<?xml version="1.0" standalone="no"?>
<!DOCTYPE svg PUBLIC "-//W3C//DTD SVG 1.1//EN" "http://www.w3.org/Graphics/SVG/1.1/DTD/svg11.dtd" >
<svg xmlns="http://www.w3.org/2000/svg" xmlns:xlink="http://www.w3.org/1999/xlink" version="1.1">
<metadata>
Created by FontForge 20170731 at Fri Oct 21 23:50:55 2016
 By Aleksey,,,
(c)  2016 Bahij Virtual Academy. All rights reserved.
</metadata>
<defs>
<font id="BahijPalatinoSansArabic-Regular" horiz-adv-x="0" >
  <font-face 
    font-family="Bahij Palatino Sans Arabic"
    font-weight="400"
    font-stretch="normal"
    units-per-em="2048"
    panose-1="2 4 5 3 5 2 1 2 2 3"
    ascent="1638"
    descent="-410"
    x-height="834"
    cap-height="1255"
    bbox="-312 -1391 4496 2476"
    underline-thickness="50"
    underline-position="-150"
    unicode-range="U+0020-FEFC"
  />
<missing-glyph horiz-adv-x="728" 
d="M0 0v1020h728v-1020h-728zM117 947l247 -372l248 372h-495zM655 881l-247 -371l247 -372v743zM612 73l-248 371l-247 -371h495zM73 138l247 372l-247 371v-743z" />
    <glyph glyph-name="uniFB01" unicode="fi" horiz-adv-x="995" 
d="M695 474q0 38 -1.5 86.5t-4.5 94.5t-4.5 83t-1.5 52q0 25 19 34.5t62 9.5h15q44 0 61.5 -9.5t17.5 -34.5q0 -15 -1.5 -52t-5 -83t-5 -94.5t-1.5 -86.5v-61q0 -52 1.5 -111t5 -111t5 -92t1.5 -55q0 -26 -18.5 -35t-60.5 -9h-15q-44 0 -62.5 9t-18.5 35q0 15 1.5 55t4.5 92
t4.5 111t1.5 111v61zM185 863q0 128 16.5 214.5t71.5 147.5q54 58 121 83.5t137 25.5q37 0 61 -2t50 -8q11 -4 19.5 -10t10.5 -23l4 -64q3 -15 10 -4q32 42 87 42q47 0 77 -32t30 -77q0 -42 -30 -74.5t-77 -32.5q-25 0 -47.5 9.5t-38 26t-22.5 41.5t2 58q-21 20 -51.5 26
t-65.5 6q-72 0 -114 -36t-64.5 -90.5t-29 -120t-6.5 -122.5v-9q0 -16 8 -20.5t18 -4.5h206q21 0 21 -23q0 -37 -6.5 -59.5t-19.5 -22.5h-201q-10 0 -18 -4.5t-8 -17.5v-138q0 -124 2.5 -212.5t6.5 -148.5t6.5 -94t2.5 -49q0 -26 -19.5 -35t-59.5 -9h-25q-45 0 -63.5 9
t-18.5 35q0 15 3 49t5.5 94t5.5 148.5t3 212.5v138q0 13 -8.5 17.5t-17.5 4.5h-110q-21 0 -21 35q0 44 6.5 57t25.5 13h99q9 0 17.5 5.5t8.5 19.5v25z" />
    <glyph glyph-name="uniFB02" unicode="fl" horiz-adv-x="1115" 
d="M850 424q0 -83 2.5 -134.5t8.5 -82t17 -47t30 -29.5q24 -18 56 -27.5t86 -9.5q18 0 35 2t24 2q17 0 17 -19q0 -14 -11.5 -44t-27.5 -39q-21 -7 -58.5 -10.5t-83.5 -3.5q-142 0 -196.5 64.5t-54.5 178.5q0 69 1.5 128.5t1.5 118.5v304q0 122 -1.5 204.5t-5.5 142.5
q-11 21 -38.5 34.5t-70.5 13.5q-76 0 -123.5 -34t-74 -85.5t-37 -109.5t-10.5 -104q0 -16 8 -20.5t18 -4.5h206q21 0 21 -23q0 -37 -6.5 -59.5t-19.5 -22.5h-201q-10 0 -18 -4.5t-8 -17.5v-138q0 -124 2.5 -212.5t6.5 -148.5t6.5 -94t2.5 -49q0 -26 -19.5 -35t-59.5 -9h-25
q-45 0 -63.5 9t-18.5 35q0 15 3 49t5.5 94t5.5 148.5t3 212.5v138q0 13 -8.5 17.5t-17.5 4.5h-110q-21 0 -21 35q0 44 6.5 57t25.5 13h99q15 0 20.5 9.5t5.5 22.5q0 93 23.5 174t73 140.5t124 92.5t173.5 33q26 0 43.5 -1.5t37.5 -5.5q8 -2 17 0t11 15q6 35 63 35h55
q30 0 45.5 -9.5t15.5 -35.5q0 -14 -2.5 -48t-5 -95t-6 -150.5t-3.5 -213.5v-352z" />
    <glyph glyph-name="uniFC31" unicode="&#xfed3;&#xfef0;" horiz-adv-x="1943" arabic-form="isolated" 
d="M1516 721q-25 0 -48 -14.5t-41 -38.5t-28 -54.5t-10 -60.5q0 -42 22 -68t59 -40.5t85 -20t99 -5.5h21t11 2q-7 56 -18.5 110.5t-30.5 96t-48.5 67.5t-72.5 26zM1109 0q26 -13 43 -40.5t17 -57.5q0 -64 -41.5 -141.5t-127 -145t-215.5 -113.5t-308 -46q-110 0 -188.5 21
t-131.5 54.5t-84.5 77.5t-47.5 88.5t-20.5 88t-4.5 75.5q0 34 5.5 68t16 65.5t22 59t24.5 44.5q18 27 67 29q22 0 22 -13q0 -9 -13 -44q-9 -26 -17.5 -64t-8.5 -96t16 -111.5t61 -94t127 -65t215 -24.5q118 0 211 22.5t158.5 58t99.5 77.5t34 79q0 16 -4.5 31t-23 32
t-57 34.5t-105.5 39.5q-33 11 -33 34q0 10 5 24t12 30q11 30 31 54t55 24h279q138 0 225.5 8t141 24t77.5 41t36 57q-16 -1 -22 -1h-12q-70 0 -136 12t-118 39.5t-83.5 74t-31.5 114.5q0 60 21.5 122t57.5 112t82 81.5t98 31.5q51 0 100 -31.5t86 -94t59 -154t22 -211.5
q0 -104 -26.5 -176.5t-98.5 -117.5t-196 -65q-109 -18 -271 -21h-101zM1457 1262q25 0 61 -37q15 -15 25.5 -32.5t10.5 -27.5q0 -9 -17 -26.5t-32 -31.5q-25 -23 -33.5 -32.5t-19.5 -9.5q-9 0 -21.5 14t-26.5 30q-17 16 -33.5 29t-16.5 22q0 7 12 24.5t28.5 34.5t34 30
t28.5 13z" />
    <glyph glyph-name="uniFC32" unicode="&#xfed3;&#xfef2;" horiz-adv-x="1943" arabic-form="isolated" 
d="M393 -662q11 0 27.5 -10.5t33.5 -26.5q14 -15 25.5 -32t11.5 -27q0 -9 -17.5 -26.5t-33.5 -32.5q-25 -22 -33.5 -32t-19.5 -10q-9 0 -21 14.5t-26 29.5q-18 16 -34 29t-16 22q0 7 11.5 25t28.5 34.5t34.5 29.5t28.5 13zM635 -662q11 0 27.5 -10.5t32.5 -26.5
q15 -15 26 -32t11 -27q0 -9 -17.5 -26.5t-31.5 -32.5q-26 -22 -34.5 -32t-19.5 -10q-9 0 -21 14.5t-27 29.5q-16 16 -33 29t-17 22q0 7 12 25t28.5 34.5t34 29.5t29.5 13zM1516 721q-25 0 -48 -14.5t-41 -38.5t-28 -54.5t-10 -60.5q0 -42 22 -68t59 -40.5t85 -20t99 -5.5h21
t11 2q-7 56 -18.5 110.5t-30.5 96t-48.5 67.5t-72.5 26zM1109 0q26 -13 43 -40.5t17 -57.5q0 -64 -41.5 -141.5t-127 -145t-215.5 -113.5t-308 -46q-110 0 -188.5 21t-131.5 54.5t-84.5 77.5t-47.5 88.5t-20.5 88t-4.5 75.5q0 34 5.5 68t16 65.5t22 59t24.5 44.5
q18 27 67 29q22 0 22 -13q0 -9 -13 -44q-9 -26 -17.5 -64t-8.5 -96t16 -111.5t61 -94t127 -65t215 -24.5q118 0 211 22.5t158.5 58t99.5 77.5t34 79q0 16 -4.5 31t-23 32t-57 34.5t-105.5 39.5q-33 11 -33 34q0 10 5 24t12 30q11 30 31 54t55 24h279q138 0 225.5 8t141 24
t77.5 41t36 57q-16 -1 -22 -1h-12q-70 0 -136 12t-118 39.5t-83.5 74t-31.5 114.5q0 60 21.5 122t57.5 112t82 81.5t98 31.5q51 0 100 -31.5t86 -94t59 -154t22 -211.5q0 -104 -26.5 -176.5t-98.5 -117.5t-196 -65q-109 -18 -271 -21h-101zM1457 1262q25 0 61 -37
q15 -15 25.5 -32.5t10.5 -27.5q0 -9 -17 -26.5t-32 -31.5q-25 -23 -33.5 -32.5t-19.5 -9.5q-9 0 -21.5 14t-26.5 30q-17 16 -33.5 29t-16.5 22q0 7 12 24.5t28.5 34.5t34 30t28.5 13z" />
    <glyph glyph-name="uniFC43" unicode="&#xfedf;&#xfef0;" horiz-adv-x="1701" arabic-form="isolated" 
d="M1109 0q26 -13 43 -40.5t17 -57.5q0 -64 -41.5 -141.5t-127 -145t-215.5 -113.5t-308 -46q-110 0 -188.5 21t-131.5 54.5t-84.5 77.5t-47.5 88.5t-20.5 88t-4.5 75.5q0 34 5.5 68t16 65.5t22 59t24.5 44.5q18 27 67 29q22 0 22 -13q0 -9 -13 -44q-9 -26 -17.5 -64
t-8.5 -96t16 -111.5t61 -94t127 -65t215 -24.5q118 0 211 22.5t158.5 58t99.5 77.5t34 79q0 16 -4.5 31t-23 32t-57 34.5t-105.5 39.5q-33 11 -33 34q0 10 5 24t12 30q11 30 31 54t55 24h315q75 0 118.5 11t66 29.5t28 44.5t5.5 55q0 17 -4 82.5t-10.5 155.5t-13.5 193.5
t-14.5 195.5t-12.5 160.5t-7 88.5q-1 21 -2 38.5t-1 31.5q0 37 21 56.5t55 30.5q22 8 38 8q26 0 27 -18.5t5 -43.5q5 -237 9.5 -401.5t7.5 -271.5t5 -165t3 -86t1 -33v-7q0 -87 -25.5 -146.5t-71 -95.5t-113.5 -52q-67 -16 -150 -16h-91z" />
    <glyph glyph-name="uniFC44" unicode="&#xfedf;&#xfef2;" horiz-adv-x="1701" arabic-form="isolated" 
d="M393 -662q11 0 27.5 -10.5t33.5 -26.5q14 -15 25.5 -32t11.5 -27q0 -9 -17.5 -26.5t-33.5 -32.5q-25 -22 -33.5 -32t-19.5 -10q-9 0 -21 14.5t-26 29.5q-18 16 -34 29t-16 22q0 7 11.5 25t28.5 34.5t34.5 29.5t28.5 13zM635 -662q11 0 27.5 -10.5t32.5 -26.5
q15 -15 26 -32t11 -27q0 -9 -17.5 -26.5t-31.5 -32.5q-26 -22 -34.5 -32t-19.5 -10q-9 0 -21 14.5t-27 29.5q-16 16 -33 29t-17 22q0 7 12 25t28.5 34.5t34 29.5t29.5 13zM1109 0q26 -13 43 -40.5t17 -57.5q0 -64 -41.5 -141.5t-127 -145t-215.5 -113.5t-308 -46
q-110 0 -188.5 21t-131.5 54.5t-84.5 77.5t-47.5 88.5t-20.5 88t-4.5 75.5q0 34 5.5 68t16 65.5t22 59t24.5 44.5q18 27 67 29q22 0 22 -13q0 -9 -13 -44q-9 -26 -17.5 -64t-8.5 -96t16 -111.5t61 -94t127 -65t215 -24.5q118 0 211 22.5t158.5 58t99.5 77.5t34 79
q0 16 -4.5 31t-23 32t-57 34.5t-105.5 39.5q-33 11 -33 34q0 10 5 24t12 30q11 30 31 54t55 24h315q75 0 118.5 11t66 29.5t28 44.5t5.5 55q0 17 -4 82.5t-10.5 155.5t-13.5 193.5t-14.5 195.5t-12.5 160.5t-7 88.5q-1 21 -2 38.5t-1 31.5q0 37 21 56.5t55 30.5q22 8 38 8
q26 0 27 -18.5t5 -43.5q5 -237 9.5 -401.5t7.5 -271.5t5 -165t3 -86t1 -33v-7q0 -87 -25.5 -146.5t-71 -95.5t-113.5 -52q-67 -16 -150 -16h-91z" />
    <glyph glyph-name="uniFC64" unicode="&#xfe8c;&#xfeae;" horiz-adv-x="1205" arabic-form="final" 
d="M631 0q-33 0 -63.5 17.5t-44.5 45.5q-5 -113 -38 -200.5t-83.5 -147.5t-113.5 -91.5t-126 -31.5q-44 0 -81 17.5t-63 43.5q-16 16 -16 28q0 15 15 16.5t52 7.5q88 5 152.5 42t108 89.5t64 114.5t20.5 119q0 24 -15 81t-59 139q-12 22 -12 36q0 19 10.5 37.5t26.5 48.5
q28 51 49 51t44 -67q44 -130 92 -185.5t118 -55.5h8q72 0 109.5 12t58 37t31.5 62.5t31 87.5q4 7 21.5 31.5t54.5 33.5q24 5 39 5t18.5 -3.5t3.5 -10.5q0 -8 -2.5 -14.5t-4.5 -10.5q-10 -18 -18 -45.5t-8 -55.5q0 -64 46.5 -96.5t166.5 -32.5q28 0 38.5 -17.5t10.5 -56.5v-9
q0 -42 -23 -57t-62 -15q-43 0 -81.5 5.5t-70.5 21t-53.5 42t-27.5 71.5q-20 -35 -43 -62t-57 -44.5t-86 -25.5t-129 -8h-8zM1144 714q0 -31 -19.5 -42.5t-72.5 -31.5q-111 -38 -172.5 -74t-70.5 -36q-8 0 -8 16q0 15 6.5 37t19.5 31q17 15 28.5 20t36.5 17q-25 11 -43 34
t-18 62q0 38 17.5 72.5t46 61.5t65.5 42t76 15q64 0 64 -47q0 -15 -5.5 -30.5t-12.5 -15.5q-9 0 -25 8t-51 8q-31 0 -65.5 -23t-34.5 -65q0 -32 27 -48.5t64 -16.5q43 0 69.5 13t57.5 27q2 3 7 3q9 0 11 -12t2 -25z" />
    <glyph glyph-name="uniFC67" unicode="&#xfe8c;&#xfee6;" horiz-adv-x="1637" arabic-form="final" 
d="M458 894q24 0 60 -37q15 -14 26 -31.5t11 -26.5t-17 -26.5t-33 -33.5q-26 -21 -34 -31.5t-19 -10.5q-9 0 -21 15t-27 29q-17 17 -33.5 30t-16.5 22q0 8 12 25.5t29 34t34.5 29t28.5 12.5zM1065 1q-7 -1 -14 -1q-114 0 -175 55q-13 -101 -58 -178.5t-111.5 -130
t-148.5 -79t-171 -26.5q-183 0 -285 86.5t-102 248.5q0 33 5.5 67t16 65.5t22 59t24.5 45.5q9 14 26 20.5t48 7.5q15 0 15 -10q0 -11 -6.5 -28t-13 -39t-13 -51.5t-6.5 -68.5q0 -114 67.5 -179.5t214.5 -65.5q109 0 181 28.5t115 71t61 88.5t18 83q0 62 -14 113t-40 104
q-9 21 -14 36t-5 29q0 32 28 74q36 56 54 56q20 0 40 -63q21 -56 33 -95t21 -79q39 -60 97 -75t113 -15q4 0 9 -1q5 1 12 1q72 0 109.5 12t58 37t31.5 62.5t31 87.5q4 7 21.5 31.5t54.5 33.5q24 5 39 5t18.5 -3.5t3.5 -10.5q0 -8 -2.5 -14.5t-4.5 -10.5q-10 -18 -18 -45.5
t-8 -55.5q0 -64 46.5 -96.5t166.5 -32.5q28 0 38.5 -17.5t10.5 -56.5v-9q0 -42 -23 -57t-62 -15q-43 0 -81.5 5.5t-70.5 21t-53.5 42t-27.5 71.5q-20 -35 -43 -62t-57 -44.5t-86 -25.5t-129 -8q-4 0 -7 1zM1577 714q0 -31 -19.5 -42.5t-72.5 -31.5q-111 -38 -172.5 -74
t-70.5 -36q-8 0 -8 16q0 15 6.5 37t19.5 31q17 15 28.5 20t36.5 17q-25 11 -43 34t-18 62q0 38 17.5 72.5t46 61.5t65.5 42t76 15q64 0 64 -47q0 -15 -5.5 -30.5t-12.5 -15.5q-9 0 -25 8t-51 8q-31 0 -65.5 -23t-34.5 -65q0 -32 27 -48.5t64 -16.5q43 0 69.5 13t57.5 27
q2 3 7 3q9 0 11 -12t2 -25z" />
    <glyph glyph-name="uniFC6A" unicode="&#xfe92;&#xfeae;" horiz-adv-x="1223" arabic-form="final" 
d="M649 1q-9 -1 -18 -1q-33 0 -63.5 17.5t-44.5 45.5q-5 -113 -38 -200.5t-83.5 -147.5t-113.5 -91.5t-126 -31.5q-44 0 -81 17.5t-63 43.5q-16 16 -16 28q0 15 15 16.5t52 7.5q88 5 152.5 42t108 89.5t64 114.5t20.5 119q0 24 -15 81t-59 139q-12 22 -12 36q0 19 10.5 37.5
t26.5 48.5q28 51 49 51t44 -67q44 -130 92 -185.5t118 -55.5q6 0 10 -1q8 1 16 1q72 0 109.5 12t58 37t31.5 62.5t31 87.5q4 7 21.5 31.5t54.5 33.5q24 5 39 5t18.5 -3.5t3.5 -10.5q0 -8 -2.5 -14.5t-4.5 -10.5q-10 -18 -18 -45.5t-8 -55.5q0 -64 46.5 -96.5t166.5 -32.5
q28 0 38.5 -17.5t10.5 -56.5v-9q0 -42 -23 -57t-62 -15q-43 0 -81.5 5.5t-70.5 21t-53.5 42t-27.5 71.5q-20 -35 -43 -62t-57 -44.5t-86 -25.5t-129 -8q-5 0 -8 1zM959 -203q11 0 27.5 -10t34.5 -27q14 -15 25.5 -32.5t11.5 -26.5t-18 -26.5t-33 -32.5q-25 -22 -33.5 -32
t-19.5 -10q-9 0 -21 14.5t-27 29.5q-17 16 -33.5 29.5t-16.5 22.5q0 7 12 24.5t28.5 34t34.5 29.5t28 13z" />
    <glyph glyph-name="uniFC70" unicode="&#xfe98;&#xfeae;" horiz-adv-x="1214" arabic-form="final" 
d="M631 0q-33 0 -63.5 17.5t-44.5 45.5q-5 -113 -38 -200.5t-83.5 -147.5t-113.5 -91.5t-126 -31.5q-44 0 -81 17.5t-63 43.5q-16 16 -16 28q0 15 15 16.5t52 7.5q88 5 152.5 42t108 89.5t64 114.5t20.5 119q0 24 -15 81t-59 139q-12 22 -12 36q0 19 10.5 37.5t26.5 48.5
q28 51 49 51t44 -67q44 -130 92 -185.5t118 -55.5h17q72 0 109.5 12t58 37t31.5 62.5t31 87.5q4 7 21.5 31.5t54.5 33.5q24 5 39 5t18.5 -3.5t3.5 -10.5q0 -8 -2.5 -14.5t-4.5 -10.5q-10 -18 -18 -45.5t-8 -55.5q0 -64 46.5 -96.5t166.5 -32.5q28 0 38.5 -17.5t10.5 -56.5
v-9q0 -42 -23 -57t-62 -15q-43 0 -81.5 5.5t-70.5 21t-53.5 42t-27.5 71.5q-20 -35 -43 -62t-57 -44.5t-86 -25.5t-129 -8h-17zM1065 894q24 0 61 -37q14 -14 25.5 -31.5t11.5 -26.5t-17.5 -26.5l-33.5 -33.5q-25 -21 -33.5 -31.5t-19.5 -10.5q-9 0 -21 15t-26 29
q-18 17 -34.5 30t-16.5 22q0 8 12 25.5t29 34t34.5 29t28.5 12.5zM823 894q24 0 61 -37q15 -14 26 -31.5t11 -26.5t-17.5 -26.5t-32.5 -33.5q-26 -21 -34 -31.5t-19 -10.5q-10 0 -21.5 15t-27.5 29q-16 17 -32.5 30t-16.5 22q0 8 12 25.5t28.5 34t34.5 29t28 12.5z" />
    <glyph glyph-name="uniFC86" unicode="&#xfee0;&#xfef0;" horiz-adv-x="1805" arabic-form="final" 
d="M1109 0q26 -13 43 -40.5t17 -57.5q0 -64 -41.5 -141.5t-127 -145t-215.5 -113.5t-308 -46q-110 0 -188.5 21t-131.5 54.5t-84.5 77.5t-47.5 88.5t-20.5 88t-4.5 75.5q0 34 5.5 68t16 65.5t22 59t24.5 44.5q18 27 67 29q22 0 22 -13q0 -9 -13 -44q-9 -26 -17.5 -64
t-8.5 -96t16 -111.5t61 -94t127 -65t215 -24.5q118 0 211 22.5t158.5 58t99.5 77.5t34 79q0 16 -4.5 31t-23 32t-57 34.5t-105.5 39.5q-33 11 -33 34q0 10 5 24t12 30q11 30 31 54t55 24h324q75 0 121.5 14t71.5 37t32 53.5t7 62.5q0 10 -4.5 71t-11 148.5t-14 189
t-14.5 192.5t-11.5 159.5t-6.5 88.5q-2 21 -3 38.5t-1 31.5q0 37 21.5 56.5t53.5 30.5q23 8 40 8q25 0 26 -18.5t4 -43.5l32 -948q2 -53 22 -86.5t53.5 -52t75 -25.5t87.5 -7q28 0 38 -17.5t10 -56.5v-9q0 -42 -23.5 -57t-61.5 -15q-80 0 -148 30.5t-110 106.5
q-50 -78 -130.5 -107.5t-192.5 -29.5h-98z" />
    <glyph glyph-name="uniFC87" unicode="&#xfee0;&#xfef2;" horiz-adv-x="1805" arabic-form="final" 
d="M393 -662q11 0 27.5 -10.5t33.5 -26.5q14 -15 25.5 -32t11.5 -27q0 -9 -17.5 -26.5t-33.5 -32.5q-25 -22 -33.5 -32t-19.5 -10q-9 0 -21 14.5t-26 29.5q-18 16 -34 29t-16 22q0 7 11.5 25t28.5 34.5t34.5 29.5t28.5 13zM635 -662q11 0 27.5 -10.5t32.5 -26.5
q15 -15 26 -32t11 -27q0 -9 -17.5 -26.5t-31.5 -32.5q-26 -22 -34.5 -32t-19.5 -10q-9 0 -21 14.5t-27 29.5q-16 16 -33 29t-17 22q0 7 12 25t28.5 34.5t34 29.5t29.5 13zM1109 0q26 -13 43 -40.5t17 -57.5q0 -64 -41.5 -141.5t-127 -145t-215.5 -113.5t-308 -46
q-110 0 -188.5 21t-131.5 54.5t-84.5 77.5t-47.5 88.5t-20.5 88t-4.5 75.5q0 34 5.5 68t16 65.5t22 59t24.5 44.5q18 27 67 29q22 0 22 -13q0 -9 -13 -44q-9 -26 -17.5 -64t-8.5 -96t16 -111.5t61 -94t127 -65t215 -24.5q118 0 211 22.5t158.5 58t99.5 77.5t34 79
q0 16 -4.5 31t-23 32t-57 34.5t-105.5 39.5q-33 11 -33 34q0 10 5 24t12 30q11 30 31 54t55 24h324q75 0 121.5 14t71.5 37t32 53.5t7 62.5q0 10 -4.5 71t-11 148.5t-14 189t-14.5 192.5t-11.5 159.5t-6.5 88.5q-2 21 -3 38.5t-1 31.5q0 37 21.5 56.5t53.5 30.5q23 8 40 8
q25 0 26 -18.5t4 -43.5l32 -948q2 -53 22 -86.5t53.5 -52t75 -25.5t87.5 -7q28 0 38 -17.5t10 -56.5v-9q0 -42 -23.5 -57t-61.5 -15q-80 0 -148 30.5t-110 106.5q-50 -78 -130.5 -107.5t-192.5 -29.5h-98z" />
    <glyph glyph-name="uniFCCC" unicode="&#xfedf;&#xfee4;" horiz-adv-x="1377" arabic-form="initial" 
d="M438 431q-31 0 -54 -17.5t-39.5 -43t-28.5 -55.5t-20 -53q37 -56 99 -93t140 -37q42 0 64 22t22 45q0 28 -17.5 67.5t-44 76.5t-59 62.5t-62.5 25.5zM870 0q-15 0 -37 4.5t-45.5 18.5t-49 37t-45.5 62q-33 -81 -82 -108.5t-111 -27.5q-32 0 -67 9t-69.5 29t-66 52.5
t-56.5 78.5q-22 -50 -51.5 -80.5t-63.5 -47t-71 -22t-72 -5.5q-18 0 -33 16.5t-15 53.5v11q0 39 24 56.5t61 17.5q46 0 75.5 20t49 51t32.5 67t25 66q30 72 60.5 115.5t61 67t59.5 29.5t59 6q70 0 133.5 -58t116.5 -152q28 -55 51.5 -95t46.5 -65.5t50.5 -38.5t66.5 -13h4
q76 0 119 11t65.5 29.5t28 44.5t5.5 55q0 17 -3.5 82.5t-10 155.5t-14 193.5t-14.5 195.5t-12 160.5t-7 88.5q-2 21 -3 38.5t-1 31.5q0 37 21.5 56.5t54.5 30.5q23 8 39 8q26 0 27 -18.5t4 -43.5q6 -237 10.5 -401.5t7.5 -271.5t5 -165t2.5 -86t0.5 -33v-7q0 -87 -25 -146.5
t-71 -95.5t-113.5 -52t-152.5 -16h-4z" />
    <glyph glyph-name="uniFCFB" unicode="&#xfeb3;&#xfef0;" horiz-adv-x="2567" arabic-form="isolated" 
d="M1109 0q26 -13 43 -40.5t17 -57.5q0 -64 -41.5 -141.5t-127 -145t-215.5 -113.5t-308 -46q-110 0 -188.5 21t-131.5 54.5t-84.5 77.5t-47.5 88.5t-20.5 88t-4.5 75.5q0 34 5.5 68t16 65.5t22 59t24.5 44.5q18 27 67 29q22 0 22 -13q0 -9 -13 -44q-9 -26 -17.5 -64
t-8.5 -96t16 -111.5t61 -94t127 -65t215 -24.5q118 0 211 22.5t158.5 58t99.5 77.5t34 79q0 16 -4.5 31t-23 32t-57 34.5t-105.5 39.5q-33 11 -33 34q0 10 5 24t12 30q11 30 31 54t55 24h315q59 0 95 11t59 36t39 62t34 90q5 12 21.5 34t53.5 31q25 5 39 5t18.5 -3.5
t4.5 -10.5q0 -17 -18 -49t-18 -92q0 -53 41.5 -83.5t115.5 -30.5q43 0 69.5 10.5t45.5 30.5t33 51t30 74q16 37 34.5 63t55.5 35q23 5 38 5t18.5 -3.5t3.5 -10.5q0 -14 -17.5 -49t-17.5 -94q0 -53 42 -82.5t115 -29.5q78 0 111.5 39.5t33.5 87.5q0 33 -19 86t-46 99
q-8 12 -8 26q0 25 37 93q29 56 52 56q25 0 53 -85q14 -43 28 -100t14 -131q0 -73 -21 -133.5t-57 -103.5t-83 -66t-101 -23q-86 0 -139.5 38.5t-66.5 101.5q-35 -70 -83.5 -105t-138.5 -35q-70 0 -132.5 30.5t-90.5 109.5q-20 -35 -43 -62t-57 -44.5t-85 -25.5
q-52 -8 -128 -8h-91z" />
    <glyph glyph-name="uniFCFC" unicode="&#xfeb3;&#xfef2;" horiz-adv-x="2567" arabic-form="isolated" 
d="M393 -662q11 0 27.5 -10.5t33.5 -26.5q14 -15 25.5 -32t11.5 -27q0 -9 -17.5 -26.5t-33.5 -32.5q-25 -22 -33.5 -32t-19.5 -10q-9 0 -21 14.5t-26 29.5q-18 16 -34 29t-16 22q0 7 11.5 25t28.5 34.5t34.5 29.5t28.5 13zM635 -662q11 0 27.5 -10.5t32.5 -26.5
q15 -15 26 -32t11 -27q0 -9 -17.5 -26.5t-31.5 -32.5q-26 -22 -34.5 -32t-19.5 -10q-9 0 -21 14.5t-27 29.5q-16 16 -33 29t-17 22q0 7 12 25t28.5 34.5t34 29.5t29.5 13zM1109 0q26 -13 43 -40.5t17 -57.5q0 -64 -41.5 -141.5t-127 -145t-215.5 -113.5t-308 -46
q-110 0 -188.5 21t-131.5 54.5t-84.5 77.5t-47.5 88.5t-20.5 88t-4.5 75.5q0 34 5.5 68t16 65.5t22 59t24.5 44.5q18 27 67 29q22 0 22 -13q0 -9 -13 -44q-9 -26 -17.5 -64t-8.5 -96t16 -111.5t61 -94t127 -65t215 -24.5q118 0 211 22.5t158.5 58t99.5 77.5t34 79
q0 16 -4.5 31t-23 32t-57 34.5t-105.5 39.5q-33 11 -33 34q0 10 5 24t12 30q11 30 31 54t55 24h315q59 0 95 11t59 36t39 62t34 90q5 12 21.5 34t53.5 31q25 5 39 5t18.5 -3.5t4.5 -10.5q0 -17 -18 -49t-18 -92q0 -53 41.5 -83.5t115.5 -30.5q43 0 69.5 10.5t45.5 30.5
t33 51t30 74q16 37 34.5 63t55.5 35q23 5 38 5t18.5 -3.5t3.5 -10.5q0 -14 -17.5 -49t-17.5 -94q0 -53 42 -82.5t115 -29.5q78 0 111.5 39.5t33.5 87.5q0 33 -19 86t-46 99q-8 12 -8 26q0 25 37 93q29 56 52 56q25 0 53 -85q14 -43 28 -100t14 -131q0 -73 -21 -133.5
t-57 -103.5t-83 -66t-101 -23q-86 0 -139.5 38.5t-66.5 101.5q-35 -70 -83.5 -105t-138.5 -35q-70 0 -132.5 30.5t-90.5 109.5q-20 -35 -43 -62t-57 -44.5t-85 -25.5q-52 -8 -128 -8h-91z" />
    <glyph glyph-name="uniFCFD" unicode="&#xfeb7;&#xfef0;" horiz-adv-x="2567" arabic-form="isolated" 
d="M1851 1077q24 0 61 -37q14 -14 25.5 -31.5t11.5 -26.5q0 -10 -17.5 -27.5t-33.5 -32.5q-25 -22 -33.5 -32t-19.5 -10q-9 0 -21 15t-26 29q-17 16 -33.5 29t-16.5 22q0 8 12 25.5t28.5 34t34 29.5t28.5 13zM2093 1077q23 0 60 -37q15 -14 26 -31.5t11 -26.5
q0 -10 -17.5 -27.5t-31.5 -32.5q-26 -22 -34.5 -32t-19.5 -10q-9 0 -21 15t-27 29q-16 16 -33 29t-17 22q0 8 12 25.5t28.5 34t34 29.5t29.5 13zM1974 1300q24 0 61 -36q15 -16 26 -33t11 -27q0 -9 -17.5 -26.5l-31.5 -31.5q-26 -23 -34.5 -33t-19.5 -10q-9 0 -21.5 14.5
t-26.5 29.5q-16 17 -33 30t-17 22q0 7 12 24.5t28.5 34t34 29.5t28.5 13zM1109 0q26 -13 43 -40.5t17 -57.5q0 -64 -41.5 -141.5t-127 -145t-215.5 -113.5t-308 -46q-110 0 -188.5 21t-131.5 54.5t-84.5 77.5t-47.5 88.5t-20.5 88t-4.5 75.5q0 34 5.5 68t16 65.5t22 59
t24.5 44.5q18 27 67 29q22 0 22 -13q0 -9 -13 -44q-9 -26 -17.5 -64t-8.5 -96t16 -111.5t61 -94t127 -65t215 -24.5q118 0 211 22.5t158.5 58t99.5 77.5t34 79q0 16 -4.5 31t-23 32t-57 34.5t-105.5 39.5q-33 11 -33 34q0 10 5 24t12 30q11 30 31 54t55 24h315q59 0 95 11
t59 36t39 62t34 90q5 12 21.5 34t53.5 31q25 5 39 5t18.5 -3.5t4.5 -10.5q0 -17 -18 -49t-18 -92q0 -53 41.5 -83.5t115.5 -30.5q43 0 69.5 10.5t45.5 30.5t33 51t30 74q16 37 34.5 63t55.5 35q23 5 38 5t18.5 -3.5t3.5 -10.5q0 -14 -17.5 -49t-17.5 -94q0 -53 42 -82.5
t115 -29.5q78 0 111.5 39.5t33.5 87.5q0 33 -19 86t-46 99q-8 12 -8 26q0 25 37 93q29 56 52 56q25 0 53 -85q14 -43 28 -100t14 -131q0 -73 -21 -133.5t-57 -103.5t-83 -66t-101 -23q-86 0 -139.5 38.5t-66.5 101.5q-35 -70 -83.5 -105t-138.5 -35q-70 0 -132.5 30.5
t-90.5 109.5q-20 -35 -43 -62t-57 -44.5t-85 -25.5q-52 -8 -128 -8h-91z" />
    <glyph glyph-name="uniFCFE" unicode="&#xfeb7;&#xfef2;" horiz-adv-x="2567" arabic-form="isolated" 
d="M393 -662q11 0 27.5 -10.5t33.5 -26.5q14 -15 25.5 -32t11.5 -27q0 -9 -17.5 -26.5t-33.5 -32.5q-25 -22 -33.5 -32t-19.5 -10q-9 0 -21 14.5t-26 29.5q-18 16 -34 29t-16 22q0 7 11.5 25t28.5 34.5t34.5 29.5t28.5 13zM635 -662q11 0 27.5 -10.5t32.5 -26.5
q15 -15 26 -32t11 -27q0 -9 -17.5 -26.5t-31.5 -32.5q-26 -22 -34.5 -32t-19.5 -10q-9 0 -21 14.5t-27 29.5q-16 16 -33 29t-17 22q0 7 12 25t28.5 34.5t34 29.5t29.5 13zM1851 1077q24 0 61 -37q14 -14 25.5 -31.5t11.5 -26.5q0 -10 -17.5 -27.5t-33.5 -32.5
q-25 -22 -33.5 -32t-19.5 -10q-9 0 -21 15t-26 29q-17 16 -33.5 29t-16.5 22q0 8 12 25.5t28.5 34t34 29.5t28.5 13zM2093 1077q23 0 60 -37q15 -14 26 -31.5t11 -26.5q0 -10 -17.5 -27.5t-31.5 -32.5q-26 -22 -34.5 -32t-19.5 -10q-9 0 -21 15t-27 29q-16 16 -33 29t-17 22
q0 8 12 25.5t28.5 34t34 29.5t29.5 13zM1974 1300q24 0 61 -36q15 -16 26 -33t11 -27q0 -9 -17.5 -26.5l-31.5 -31.5q-26 -23 -34.5 -33t-19.5 -10q-9 0 -21.5 14.5t-26.5 29.5q-16 17 -33 30t-17 22q0 7 12 24.5t28.5 34t34 29.5t28.5 13zM1109 0q26 -13 43 -40.5t17 -57.5
q0 -64 -41.5 -141.5t-127 -145t-215.5 -113.5t-308 -46q-110 0 -188.5 21t-131.5 54.5t-84.5 77.5t-47.5 88.5t-20.5 88t-4.5 75.5q0 34 5.5 68t16 65.5t22 59t24.5 44.5q18 27 67 29q22 0 22 -13q0 -9 -13 -44q-9 -26 -17.5 -64t-8.5 -96t16 -111.5t61 -94t127 -65
t215 -24.5q118 0 211 22.5t158.5 58t99.5 77.5t34 79q0 16 -4.5 31t-23 32t-57 34.5t-105.5 39.5q-33 11 -33 34q0 10 5 24t12 30q11 30 31 54t55 24h315q59 0 95 11t59 36t39 62t34 90q5 12 21.5 34t53.5 31q25 5 39 5t18.5 -3.5t4.5 -10.5q0 -17 -18 -49t-18 -92
q0 -53 41.5 -83.5t115.5 -30.5q43 0 69.5 10.5t45.5 30.5t33 51t30 74q16 37 34.5 63t55.5 35q23 5 38 5t18.5 -3.5t3.5 -10.5q0 -14 -17.5 -49t-17.5 -94q0 -53 42 -82.5t115 -29.5q78 0 111.5 39.5t33.5 87.5q0 33 -19 86t-46 99q-8 12 -8 26q0 25 37 93q29 56 52 56
q25 0 53 -85q14 -43 28 -100t14 -131q0 -73 -21 -133.5t-57 -103.5t-83 -66t-101 -23q-86 0 -139.5 38.5t-66.5 101.5q-35 -70 -83.5 -105t-138.5 -35q-70 0 -132.5 30.5t-90.5 109.5q-20 -35 -43 -62t-57 -44.5t-85 -25.5q-52 -8 -128 -8h-91z" />
    <glyph glyph-name="uniFD05" unicode="&#xfebb;&#xfef0;" horiz-adv-x="2772" arabic-form="isolated" 
d="M1882 132q32 -3 83 -6t118 -3q113 0 193 15t131 40.5t75 61.5t24 81q0 55 -45.5 96.5t-130.5 41.5q-114 0 -233 -83.5t-215 -243.5zM1109 0q26 -13 43 -40.5t17 -57.5q0 -64 -41.5 -141.5t-127 -145t-215.5 -113.5t-308 -46q-110 0 -188.5 21t-131.5 54.5t-84.5 77.5
t-47.5 88.5t-20.5 88t-4.5 75.5q0 34 5.5 68t16 65.5t22 59t24.5 44.5q18 27 67 29q22 0 22 -13q0 -9 -13 -44q-9 -26 -17.5 -64t-8.5 -96t16 -111.5t61 -94t127 -65t215 -24.5q118 0 211 22.5t158.5 58t99.5 77.5t34 79q0 16 -4.5 31t-23 32t-57 34.5t-105.5 39.5
q-33 11 -33 34q0 10 5 24t12 30q11 30 31 54t55 24h324q72 0 109.5 13t57 38t31.5 61.5t32 86.5q4 9 21.5 32.5t54.5 32.5q24 5 39 5t18.5 -3.5t3.5 -10.5q0 -8 -2.5 -14.5t-4.5 -10.5q-10 -18 -18 -45.5t-8 -55.5q0 -33 10.5 -53.5t33.5 -33t54.5 -21t74.5 -16.5
q87 141 172.5 229t165 137t148 67t119.5 18q68 0 119 -20.5t86 -55.5t52.5 -82t17.5 -103q0 -186 -158 -283t-475 -97q-200 0 -326.5 40.5t-149.5 129.5q-20 -35 -43 -62t-57 -44.5t-86 -25.5t-129 -8h-98z" />
    <glyph glyph-name="uniFD06" unicode="&#xfebb;&#xfef2;" horiz-adv-x="2772" arabic-form="isolated" 
d="M393 -662q11 0 27.5 -10.5t33.5 -26.5q14 -15 25.5 -32t11.5 -27q0 -9 -17.5 -26.5t-33.5 -32.5q-25 -22 -33.5 -32t-19.5 -10q-9 0 -21 14.5t-26 29.5q-18 16 -34 29t-16 22q0 7 11.5 25t28.5 34.5t34.5 29.5t28.5 13zM635 -662q11 0 27.5 -10.5t32.5 -26.5
q15 -15 26 -32t11 -27q0 -9 -17.5 -26.5t-31.5 -32.5q-26 -22 -34.5 -32t-19.5 -10q-9 0 -21 14.5t-27 29.5q-16 16 -33 29t-17 22q0 7 12 25t28.5 34.5t34 29.5t29.5 13zM1882 132q32 -3 83 -6t118 -3q113 0 193 15t131 40.5t75 61.5t24 81q0 55 -45.5 96.5t-130.5 41.5
q-114 0 -233 -83.5t-215 -243.5zM1109 0q26 -13 43 -40.5t17 -57.5q0 -64 -41.5 -141.5t-127 -145t-215.5 -113.5t-308 -46q-110 0 -188.5 21t-131.5 54.5t-84.5 77.5t-47.5 88.5t-20.5 88t-4.5 75.5q0 34 5.5 68t16 65.5t22 59t24.5 44.5q18 27 67 29q22 0 22 -13
q0 -9 -13 -44q-9 -26 -17.5 -64t-8.5 -96t16 -111.5t61 -94t127 -65t215 -24.5q118 0 211 22.5t158.5 58t99.5 77.5t34 79q0 16 -4.5 31t-23 32t-57 34.5t-105.5 39.5q-33 11 -33 34q0 10 5 24t12 30q11 30 31 54t55 24h324q72 0 109.5 13t57 38t31.5 61.5t32 86.5
q4 9 21.5 32.5t54.5 32.5q24 5 39 5t18.5 -3.5t3.5 -10.5q0 -8 -2.5 -14.5t-4.5 -10.5q-10 -18 -18 -45.5t-8 -55.5q0 -33 10.5 -53.5t33.5 -33t54.5 -21t74.5 -16.5q87 141 172.5 229t165 137t148 67t119.5 18q68 0 119 -20.5t86 -55.5t52.5 -82t17.5 -103
q0 -186 -158 -283t-475 -97q-200 0 -326.5 40.5t-149.5 129.5q-20 -35 -43 -62t-57 -44.5t-86 -25.5t-129 -8h-98z" />
    <glyph glyph-name="uniFD07" unicode="&#xfebf;&#xfef0;" horiz-adv-x="2772" arabic-form="isolated" 
d="M1882 132q32 -3 83 -6t118 -3q113 0 193 15t131 40.5t75 61.5t24 81q0 55 -45.5 96.5t-130.5 41.5q-114 0 -233 -83.5t-215 -243.5zM1109 0q26 -13 43 -40.5t17 -57.5q0 -64 -41.5 -141.5t-127 -145t-215.5 -113.5t-308 -46q-110 0 -188.5 21t-131.5 54.5t-84.5 77.5
t-47.5 88.5t-20.5 88t-4.5 75.5q0 34 5.5 68t16 65.5t22 59t24.5 44.5q18 27 67 29q22 0 22 -13q0 -9 -13 -44q-9 -26 -17.5 -64t-8.5 -96t16 -111.5t61 -94t127 -65t215 -24.5q118 0 211 22.5t158.5 58t99.5 77.5t34 79q0 16 -4.5 31t-23 32t-57 34.5t-105.5 39.5
q-33 11 -33 34q0 10 5 24t12 30q11 30 31 54t55 24h324q72 0 109.5 13t57 38t31.5 61.5t32 86.5q4 9 21.5 32.5t54.5 32.5q24 5 39 5t18.5 -3.5t3.5 -10.5q0 -8 -2.5 -14.5t-4.5 -10.5q-10 -18 -18 -45.5t-8 -55.5q0 -33 10.5 -53.5t33.5 -33t54.5 -21t74.5 -16.5
q87 141 172.5 229t165 137t148 67t119.5 18q68 0 119 -20.5t86 -55.5t52.5 -82t17.5 -103q0 -186 -158 -283t-475 -97q-200 0 -326.5 40.5t-149.5 129.5q-20 -35 -43 -62t-57 -44.5t-86 -25.5t-129 -8h-98zM2279 1077q24 0 61 -37q14 -14 25.5 -31.5t11.5 -26.5
q0 -10 -17.5 -27.5t-33.5 -32.5q-25 -22 -33.5 -32t-19.5 -10q-9 0 -21 15t-27 29q-17 16 -33.5 29t-16.5 22q0 8 12 25.5t29 34t34.5 29.5t28.5 13z" />
    <glyph glyph-name="uniFD08" unicode="&#xfebf;&#xfef2;" horiz-adv-x="2772" arabic-form="isolated" 
d="M393 -662q11 0 27.5 -10.5t33.5 -26.5q14 -15 25.5 -32t11.5 -27q0 -9 -17.5 -26.5t-33.5 -32.5q-25 -22 -33.5 -32t-19.5 -10q-9 0 -21 14.5t-26 29.5q-18 16 -34 29t-16 22q0 7 11.5 25t28.5 34.5t34.5 29.5t28.5 13zM635 -662q11 0 27.5 -10.5t32.5 -26.5
q15 -15 26 -32t11 -27q0 -9 -17.5 -26.5t-31.5 -32.5q-26 -22 -34.5 -32t-19.5 -10q-9 0 -21 14.5t-27 29.5q-16 16 -33 29t-17 22q0 7 12 25t28.5 34.5t34 29.5t29.5 13zM1882 132q32 -3 83 -6t118 -3q113 0 193 15t131 40.5t75 61.5t24 81q0 55 -45.5 96.5t-130.5 41.5
q-114 0 -233 -83.5t-215 -243.5zM1109 0q26 -13 43 -40.5t17 -57.5q0 -64 -41.5 -141.5t-127 -145t-215.5 -113.5t-308 -46q-110 0 -188.5 21t-131.5 54.5t-84.5 77.5t-47.5 88.5t-20.5 88t-4.5 75.5q0 34 5.5 68t16 65.5t22 59t24.5 44.5q18 27 67 29q22 0 22 -13
q0 -9 -13 -44q-9 -26 -17.5 -64t-8.5 -96t16 -111.5t61 -94t127 -65t215 -24.5q118 0 211 22.5t158.5 58t99.5 77.5t34 79q0 16 -4.5 31t-23 32t-57 34.5t-105.5 39.5q-33 11 -33 34q0 10 5 24t12 30q11 30 31 54t55 24h324q72 0 109.5 13t57 38t31.5 61.5t32 86.5
q4 9 21.5 32.5t54.5 32.5q24 5 39 5t18.5 -3.5t3.5 -10.5q0 -8 -2.5 -14.5t-4.5 -10.5q-10 -18 -18 -45.5t-8 -55.5q0 -33 10.5 -53.5t33.5 -33t54.5 -21t74.5 -16.5q87 141 172.5 229t165 137t148 67t119.5 18q68 0 119 -20.5t86 -55.5t52.5 -82t17.5 -103
q0 -186 -158 -283t-475 -97q-200 0 -326.5 40.5t-149.5 129.5q-20 -35 -43 -62t-57 -44.5t-86 -25.5t-129 -8h-98zM2279 1077q24 0 61 -37q14 -14 25.5 -31.5t11.5 -26.5q0 -10 -17.5 -27.5t-33.5 -32.5q-25 -22 -33.5 -32t-19.5 -10q-9 0 -21 15t-27 29q-17 16 -33.5 29
t-16.5 22q0 8 12 25.5t29 34t34.5 29.5t28.5 13z" />
    <glyph glyph-name="uniFD0D" unicode="&#xfeb7;&#xfeae;" horiz-adv-x="2018" arabic-form="isolated" 
d="M631 0q-33 0 -63.5 17.5t-44.5 45.5q-5 -113 -38 -200.5t-83.5 -147.5t-113.5 -91.5t-126 -31.5q-44 0 -81 17.5t-63 43.5q-16 16 -16 28q0 15 15 16.5t52 7.5q88 5 152.5 42t108 89.5t64 114.5t20.5 119q0 24 -15 81t-59 139q-12 22 -12 36q0 19 10.5 37.5t26.5 48.5
q28 51 49 51t44 -67q44 -130 92 -185.5t118 -55.5h17q59 0 95 11t59 36t39 62t34 90q5 12 21.5 34t53.5 31q25 5 39 5t18.5 -3.5t4.5 -10.5q0 -17 -18 -49t-18 -92q0 -53 41.5 -83.5t115.5 -30.5q42 0 69 10.5t46 30.5t33 51t30 74q16 37 34.5 63t55.5 35q23 5 38 5
t18.5 -3.5t3.5 -10.5q0 -14 -17.5 -49t-17.5 -94q0 -53 42 -82.5t115 -29.5q78 0 111.5 39.5t33.5 87.5q0 33 -19 86t-46 99q-8 12 -8 26q0 25 36 93q30 56 53 56q25 0 53 -85q14 -43 28 -100t14 -131q0 -73 -21 -133.5t-57 -103.5t-83 -66t-101 -23q-86 0 -140 38.5
t-66 101.5q-35 -70 -84 -105t-138 -35q-70 0 -132.5 30.5t-90.5 109.5q-20 -35 -43 -62t-57 -44.5t-86 -25.5t-129 -8h-17zM1424 1300q24 0 61 -36q15 -16 26 -33t11 -27q0 -9 -17.5 -26.5l-31.5 -31.5q-26 -23 -34.5 -33t-19.5 -10q-9 0 -21.5 14.5t-26.5 29.5
q-16 17 -33 30t-17 22q0 7 12 24.5t28.5 34t34 29.5t28.5 13zM1543 1077q23 0 60 -37q15 -14 26 -31.5t11 -26.5q0 -10 -17.5 -27.5t-31.5 -32.5q-26 -22 -34.5 -32t-19.5 -10q-9 0 -21 15t-27 29q-16 16 -33 29t-17 22q0 8 12 25.5t28.5 34t34 29.5t29.5 13zM1301 1077
q24 0 61 -37q14 -14 25.5 -31.5t11.5 -26.5q0 -10 -17.5 -27.5t-33.5 -32.5q-25 -22 -33.5 -32t-19.5 -10q-9 0 -21 15t-26 29q-18 16 -34 29t-16 22q0 8 11.5 25.5t28.5 34t34.5 29.5t28.5 13z" />
    <glyph glyph-name="uniFD0E" unicode="&#xfeb3;&#xfeae;" horiz-adv-x="2018" arabic-form="isolated" 
d="M631 0q-33 0 -63.5 17.5t-44.5 45.5q-5 -113 -38 -200.5t-83.5 -147.5t-113.5 -91.5t-126 -31.5q-44 0 -81 17.5t-63 43.5q-16 16 -16 28q0 15 15 16.5t52 7.5q88 5 152.5 42t108 89.5t64 114.5t20.5 119q0 24 -15 81t-59 139q-12 22 -12 36q0 19 10.5 37.5t26.5 48.5
q28 51 49 51t44 -67q44 -130 92 -185.5t118 -55.5h17q59 0 95 11t59 36t39 62t34 90q5 12 21.5 34t53.5 31q25 5 39 5t18.5 -3.5t4.5 -10.5q0 -17 -18 -49t-18 -92q0 -53 41.5 -83.5t115.5 -30.5q42 0 69 10.5t46 30.5t33 51t30 74q16 37 34.5 63t55.5 35q23 5 38 5
t18.5 -3.5t3.5 -10.5q0 -14 -17.5 -49t-17.5 -94q0 -53 42 -82.5t115 -29.5q78 0 111.5 39.5t33.5 87.5q0 33 -19 86t-46 99q-8 12 -8 26q0 25 36 93q30 56 53 56q25 0 53 -85q14 -43 28 -100t14 -131q0 -73 -21 -133.5t-57 -103.5t-83 -66t-101 -23q-86 0 -140 38.5
t-66 101.5q-35 -70 -84 -105t-138 -35q-70 0 -132.5 30.5t-90.5 109.5q-20 -35 -43 -62t-57 -44.5t-86 -25.5t-129 -8h-17z" />
    <glyph glyph-name="uniFD0F" unicode="&#xfebb;&#xfeae;" horiz-adv-x="2204" arabic-form="isolated" 
d="M1314 132q32 -3 83 -6t118 -3q113 0 193 15t131 40.5t74.5 61.5t23.5 81q0 55 -45 96.5t-130 41.5q-114 0 -233 -83.5t-215 -243.5zM631 0q-33 0 -63.5 17.5t-44.5 45.5q-5 -113 -38 -200.5t-83.5 -147.5t-113.5 -91.5t-126 -31.5q-44 0 -81 17.5t-63 43.5q-16 16 -16 28
q0 15 15 16.5t52 7.5q88 5 152.5 42t108 89.5t64 114.5t20.5 119q0 24 -15 81t-59 139q-12 22 -12 36q0 19 10.5 37.5t26.5 48.5q28 51 49 51t44 -67q44 -130 92 -185.5t118 -55.5h8q72 0 109.5 13t57 38t31.5 61.5t32 86.5q4 9 21.5 32.5t54.5 32.5q24 5 39 5t18.5 -3.5
t3.5 -10.5q0 -8 -2.5 -14.5t-4.5 -10.5q-10 -18 -18 -45.5t-8 -55.5q0 -33 10.5 -53.5t33 -33t54.5 -21t75 -16.5q87 141 172.5 229t165 137t148 67t119.5 18q68 0 119 -20.5t85.5 -55.5t52.5 -82t18 -103q0 -186 -158 -283t-475 -97q-200 0 -327 40.5t-149 129.5
q-20 -35 -43 -62t-57 -44.5t-86 -25.5t-129 -8h-8z" />
    <glyph glyph-name="uniFD10" unicode="&#xfebf;&#xfeae;" horiz-adv-x="2204" arabic-form="isolated" 
d="M1314 132q32 -3 83 -6t118 -3q113 0 193 15t131 40.5t74.5 61.5t23.5 81q0 55 -45 96.5t-130 41.5q-114 0 -233 -83.5t-215 -243.5zM631 0q-33 0 -63.5 17.5t-44.5 45.5q-5 -113 -38 -200.5t-83.5 -147.5t-113.5 -91.5t-126 -31.5q-44 0 -81 17.5t-63 43.5q-16 16 -16 28
q0 15 15 16.5t52 7.5q88 5 152.5 42t108 89.5t64 114.5t20.5 119q0 24 -15 81t-59 139q-12 22 -12 36q0 19 10.5 37.5t26.5 48.5q28 51 49 51t44 -67q44 -130 92 -185.5t118 -55.5h8q72 0 109.5 13t57 38t31.5 61.5t32 86.5q4 9 21.5 32.5t54.5 32.5q24 5 39 5t18.5 -3.5
t3.5 -10.5q0 -8 -2.5 -14.5t-4.5 -10.5q-10 -18 -18 -45.5t-8 -55.5q0 -33 10.5 -53.5t33 -33t54.5 -21t75 -16.5q87 141 172.5 229t165 137t148 67t119.5 18q68 0 119 -20.5t85.5 -55.5t52.5 -82t18 -103q0 -186 -158 -283t-475 -97q-200 0 -327 40.5t-149 129.5
q-20 -35 -43 -62t-57 -44.5t-86 -25.5t-129 -8h-8zM1710 1077q25 0 62 -37q14 -14 25.5 -31.5t11.5 -26.5q0 -10 -17.5 -27.5t-33.5 -32.5q-25 -22 -33.5 -32t-19.5 -10q-9 0 -21 15t-27 29q-17 16 -33.5 29t-16.5 22q0 8 12 25.5t29 34t34.5 29.5t27.5 13z" />
    <glyph glyph-name="uniFD17" unicode="&#xfeb4;&#xfef0;" horiz-adv-x="2607" arabic-form="final" 
d="M1109 0q26 -13 43 -40.5t17 -57.5q0 -64 -41.5 -141.5t-127 -145t-215.5 -113.5t-308 -46q-110 0 -188.5 21t-131.5 54.5t-84.5 77.5t-47.5 88.5t-20.5 88t-4.5 75.5q0 34 5.5 68t16 65.5t22 59t24.5 44.5q18 27 67 29q22 0 22 -13q0 -9 -13 -44q-9 -26 -17.5 -64
t-8.5 -96t16 -111.5t61 -94t127 -65t215 -24.5q118 0 211 22.5t158.5 58t99.5 77.5t34 79q0 16 -4.5 31t-23 32t-57 34.5t-105.5 39.5q-33 11 -33 34q0 10 5 24t12 30q11 30 31 54t55 24h324q59 0 95 11t59 36t39 62t34 90q5 12 21.5 34t53.5 31q25 5 39 5t18.5 -3.5
t4.5 -10.5q0 -17 -18 -49t-18 -92q0 -53 41.5 -83.5t115.5 -30.5q43 0 69.5 10.5t45.5 30.5t33 51t31 74q15 37 33.5 63t55.5 35q23 5 38 5t18.5 -3.5t3.5 -10.5q0 -14 -17.5 -49t-17.5 -94q0 -53 38.5 -82.5t101.5 -29.5q58 0 96 26.5t56 58.5q-9 31 -16 61t-9 49v9
q0 17 10.5 35.5t47.5 44.5q16 11 26 11q15 0 20 -20t14 -52q12 -38 22 -79t31 -72.5t60 -51.5t107 -20q28 0 38 -17.5t10 -56.5v-9q0 -42 -23 -57t-62 -15q-162 0 -225 123q-31 -44 -81 -83.5t-127 -39.5t-127 38.5t-63 101.5q-35 -70 -83.5 -105t-138.5 -35
q-70 0 -132.5 30.5t-90.5 109.5q-20 -35 -43 -62t-57 -44.5t-86 -25.5t-129 -8h-98z" />
    <glyph glyph-name="uniFD18" unicode="&#xfeb4;&#xfef2;" horiz-adv-x="2607" arabic-form="final" 
d="M393 -662q11 0 27.5 -10.5t33.5 -26.5q14 -15 25.5 -32t11.5 -27q0 -9 -17.5 -26.5t-33.5 -32.5q-25 -22 -33.5 -32t-19.5 -10q-9 0 -21 14.5t-26 29.5q-18 16 -34 29t-16 22q0 7 11.5 25t28.5 34.5t34.5 29.5t28.5 13zM635 -662q11 0 27.5 -10.5t32.5 -26.5
q15 -15 26 -32t11 -27q0 -9 -17.5 -26.5t-31.5 -32.5q-26 -22 -34.5 -32t-19.5 -10q-9 0 -21 14.5t-27 29.5q-16 16 -33 29t-17 22q0 7 12 25t28.5 34.5t34 29.5t29.5 13zM1109 0q26 -13 43 -40.5t17 -57.5q0 -64 -41.5 -141.5t-127 -145t-215.5 -113.5t-308 -46
q-110 0 -188.5 21t-131.5 54.5t-84.5 77.5t-47.5 88.5t-20.5 88t-4.5 75.5q0 34 5.5 68t16 65.5t22 59t24.5 44.5q18 27 67 29q22 0 22 -13q0 -9 -13 -44q-9 -26 -17.5 -64t-8.5 -96t16 -111.5t61 -94t127 -65t215 -24.5q118 0 211 22.5t158.5 58t99.5 77.5t34 79
q0 16 -4.5 31t-23 32t-57 34.5t-105.5 39.5q-33 11 -33 34q0 10 5 24t12 30q11 30 31 54t55 24h324q59 0 95 11t59 36t39 62t34 90q5 12 21.5 34t53.5 31q25 5 39 5t18.5 -3.5t4.5 -10.5q0 -17 -18 -49t-18 -92q0 -53 41.5 -83.5t115.5 -30.5q43 0 69.5 10.5t45.5 30.5
t33 51t31 74q15 37 33.5 63t55.5 35q23 5 38 5t18.5 -3.5t3.5 -10.5q0 -14 -17.5 -49t-17.5 -94q0 -53 38.5 -82.5t101.5 -29.5q58 0 96 26.5t56 58.5q-9 31 -16 61t-9 49v9q0 17 10.5 35.5t47.5 44.5q16 11 26 11q15 0 20 -20t14 -52q12 -38 22 -79t31 -72.5t60 -51.5
t107 -20q28 0 38 -17.5t10 -56.5v-9q0 -42 -23 -57t-62 -15q-162 0 -225 123q-31 -44 -81 -83.5t-127 -39.5t-127 38.5t-63 101.5q-35 -70 -83.5 -105t-138.5 -35q-70 0 -132.5 30.5t-90.5 109.5q-20 -35 -43 -62t-57 -44.5t-86 -25.5t-129 -8h-98z" />
    <glyph glyph-name="uniFD19" unicode="&#xfeb8;&#xfef0;" horiz-adv-x="2607" arabic-form="final" 
d="M1109 0q26 -13 43 -40.5t17 -57.5q0 -64 -41.5 -141.5t-127 -145t-215.5 -113.5t-308 -46q-110 0 -188.5 21t-131.5 54.5t-84.5 77.5t-47.5 88.5t-20.5 88t-4.5 75.5q0 34 5.5 68t16 65.5t22 59t24.5 44.5q18 27 67 29q22 0 22 -13q0 -9 -13 -44q-9 -26 -17.5 -64
t-8.5 -96t16 -111.5t61 -94t127 -65t215 -24.5q118 0 211 22.5t158.5 58t99.5 77.5t34 79q0 16 -4.5 31t-23 32t-57 34.5t-105.5 39.5q-33 11 -33 34q0 10 5 24t12 30q11 30 31 54t55 24h324q59 0 95 11t59 36t39 62t34 90q5 12 21.5 34t53.5 31q25 5 39 5t18.5 -3.5
t4.5 -10.5q0 -17 -18 -49t-18 -92q0 -53 41.5 -83.5t115.5 -30.5q43 0 69.5 10.5t45.5 30.5t33 51t31 74q15 37 33.5 63t55.5 35q23 5 38 5t18.5 -3.5t3.5 -10.5q0 -14 -17.5 -49t-17.5 -94q0 -53 38.5 -82.5t101.5 -29.5q58 0 96 26.5t56 58.5q-9 31 -16 61t-9 49v9
q0 17 10.5 35.5t47.5 44.5q16 11 26 11q15 0 20 -20t14 -52q12 -38 22 -79t31 -72.5t60 -51.5t107 -20q28 0 38 -17.5t10 -56.5v-9q0 -42 -23 -57t-62 -15q-162 0 -225 123q-31 -44 -81 -83.5t-127 -39.5t-127 38.5t-63 101.5q-35 -70 -83.5 -105t-138.5 -35
q-70 0 -132.5 30.5t-90.5 109.5q-20 -35 -43 -62t-57 -44.5t-86 -25.5t-129 -8h-98zM1937 1118q25 0 61 -37q15 -15 26 -32.5t11 -26.5q0 -10 -17.5 -27.5l-31.5 -31.5q-26 -23 -34.5 -33t-19.5 -10q-9 0 -21.5 15t-26.5 30q-17 17 -33 29.5t-16 21.5q0 8 11.5 25.5t28 34
t34 29.5t28.5 13zM2055 894q25 0 61 -37q15 -14 26 -31.5t11 -26.5t-17.5 -26.5t-31.5 -33.5q-26 -21 -34.5 -31.5t-19.5 -10.5q-9 0 -21.5 15t-26.5 29q-16 17 -32.5 30t-16.5 22q0 8 11.5 25.5t28 34t34 29t28.5 12.5zM1814 894q24 0 61 -37q14 -14 25.5 -31.5t11.5 -26.5
t-17.5 -26.5t-32.5 -33.5q-26 -21 -34.5 -31.5t-19.5 -10.5q-9 0 -21 15t-26 29q-17 17 -34 30t-17 22q0 8 12.5 25.5t29 34t34 29t28.5 12.5z" />
    <glyph glyph-name="uniFD1A" unicode="&#xfeb8;&#xfef2;" horiz-adv-x="2607" arabic-form="final" 
d="M393 -662q11 0 27.5 -10.5t33.5 -26.5q14 -15 25.5 -32t11.5 -27q0 -9 -17.5 -26.5t-33.5 -32.5q-25 -22 -33.5 -32t-19.5 -10q-9 0 -21 14.5t-26 29.5q-18 16 -34 29t-16 22q0 7 11.5 25t28.5 34.5t34.5 29.5t28.5 13zM635 -662q11 0 27.5 -10.5t32.5 -26.5
q15 -15 26 -32t11 -27q0 -9 -17.5 -26.5t-31.5 -32.5q-26 -22 -34.5 -32t-19.5 -10q-9 0 -21 14.5t-27 29.5q-16 16 -33 29t-17 22q0 7 12 25t28.5 34.5t34 29.5t29.5 13zM1109 0q26 -13 43 -40.5t17 -57.5q0 -64 -41.5 -141.5t-127 -145t-215.5 -113.5t-308 -46
q-110 0 -188.5 21t-131.5 54.5t-84.5 77.5t-47.5 88.5t-20.5 88t-4.5 75.5q0 34 5.5 68t16 65.5t22 59t24.5 44.5q18 27 67 29q22 0 22 -13q0 -9 -13 -44q-9 -26 -17.5 -64t-8.5 -96t16 -111.5t61 -94t127 -65t215 -24.5q118 0 211 22.5t158.5 58t99.5 77.5t34 79
q0 16 -4.5 31t-23 32t-57 34.5t-105.5 39.5q-33 11 -33 34q0 10 5 24t12 30q11 30 31 54t55 24h324q59 0 95 11t59 36t39 62t34 90q5 12 21.5 34t53.5 31q25 5 39 5t18.5 -3.5t4.5 -10.5q0 -17 -18 -49t-18 -92q0 -53 41.5 -83.5t115.5 -30.5q43 0 69.5 10.5t45.5 30.5
t33 51t31 74q15 37 33.5 63t55.5 35q23 5 38 5t18.5 -3.5t3.5 -10.5q0 -14 -17.5 -49t-17.5 -94q0 -53 38.5 -82.5t101.5 -29.5q58 0 96 26.5t56 58.5q-9 31 -16 61t-9 49v9q0 17 10.5 35.5t47.5 44.5q16 11 26 11q15 0 20 -20t14 -52q12 -38 22 -79t31 -72.5t60 -51.5
t107 -20q28 0 38 -17.5t10 -56.5v-9q0 -42 -23 -57t-62 -15q-162 0 -225 123q-31 -44 -81 -83.5t-127 -39.5t-127 38.5t-63 101.5q-35 -70 -83.5 -105t-138.5 -35q-70 0 -132.5 30.5t-90.5 109.5q-20 -35 -43 -62t-57 -44.5t-86 -25.5t-129 -8h-98zM1937 1118q25 0 61 -37
q15 -15 26 -32.5t11 -26.5q0 -10 -17.5 -27.5l-31.5 -31.5q-26 -23 -34.5 -33t-19.5 -10q-9 0 -21.5 15t-26.5 30q-17 17 -33 29.5t-16 21.5q0 8 11.5 25.5t28 34t34 29.5t28.5 13zM2055 894q25 0 61 -37q15 -14 26 -31.5t11 -26.5t-17.5 -26.5t-31.5 -33.5
q-26 -21 -34.5 -31.5t-19.5 -10.5q-9 0 -21.5 15t-26.5 29q-16 17 -32.5 30t-16.5 22q0 8 11.5 25.5t28 34t34 29t28.5 12.5zM1814 894q24 0 61 -37q14 -14 25.5 -31.5t11.5 -26.5t-17.5 -26.5t-32.5 -33.5q-26 -21 -34.5 -31.5t-19.5 -10.5q-9 0 -21 15t-26 29
q-17 17 -34 30t-17 22q0 8 12.5 25.5t29 34t34 29t28.5 12.5z" />
    <glyph glyph-name="uniFD21" unicode="&#xfebc;&#xfef0;" horiz-adv-x="2712" arabic-form="final" 
d="M1873 132q32 -3 83 -6t118 -3q113 0 193 15t131 40.5t75 61.5t24 81q0 55 -45.5 96.5t-130.5 41.5q-114 0 -233 -83.5t-215 -243.5zM1109 0q26 -13 43 -40.5t17 -57.5q0 -64 -41.5 -141.5t-127 -145t-215.5 -113.5t-308 -46q-110 0 -188.5 21t-131.5 54.5t-84.5 77.5
t-47.5 88.5t-20.5 88t-4.5 75.5q0 34 5.5 68t16 65.5t22 59t24.5 44.5q18 27 67 29q22 0 22 -13q0 -9 -13 -44q-9 -26 -17.5 -64t-8.5 -96t16 -111.5t61 -94t127 -65t215 -24.5q118 0 211 22.5t158.5 58t99.5 77.5t34 79q0 16 -4.5 31t-23 32t-57 34.5t-105.5 39.5
q-33 11 -33 34q0 10 5 24t12 30q11 30 31 54t55 24h315q72 0 109.5 13t57 38t31.5 61.5t32 86.5q4 9 21.5 32.5t54.5 32.5q24 5 39 5t18.5 -3.5t3.5 -10.5q0 -8 -2.5 -14.5t-4.5 -10.5q-10 -18 -18 -45.5t-8 -55.5q0 -33 10.5 -53.5t33.5 -33t54.5 -21t74.5 -16.5
q87 141 172.5 229t165 137t148 67t119.5 18q68 0 119 -20.5t86 -55.5t52.5 -82t17.5 -103q0 -88 -35 -153q24 -20 58 -31t87 -11q28 0 38 -17.5t10 -56.5v-9q0 -42 -23 -57t-61 -15q-133 0 -203 86q-155 -116 -504 -116q-200 0 -326.5 40.5t-149.5 129.5q-20 -35 -43 -62
t-57 -44.5t-85 -25.5q-52 -8 -128 -8h-91z" />
    <glyph glyph-name="uniFD22" unicode="&#xfebc;&#xfef2;" horiz-adv-x="2712" arabic-form="final" 
d="M393 -662q11 0 27.5 -10.5t33.5 -26.5q14 -15 25.5 -32t11.5 -27q0 -9 -17.5 -26.5t-33.5 -32.5q-25 -22 -33.5 -32t-19.5 -10q-9 0 -21 14.5t-26 29.5q-18 16 -34 29t-16 22q0 7 11.5 25t28.5 34.5t34.5 29.5t28.5 13zM635 -662q11 0 27.5 -10.5t32.5 -26.5
q15 -15 26 -32t11 -27q0 -9 -17.5 -26.5t-31.5 -32.5q-26 -22 -34.5 -32t-19.5 -10q-9 0 -21 14.5t-27 29.5q-16 16 -33 29t-17 22q0 7 12 25t28.5 34.5t34 29.5t29.5 13zM1873 132q32 -3 83 -6t118 -3q113 0 193 15t131 40.5t75 61.5t24 81q0 55 -45.5 96.5t-130.5 41.5
q-114 0 -233 -83.5t-215 -243.5zM1109 0q26 -13 43 -40.5t17 -57.5q0 -64 -41.5 -141.5t-127 -145t-215.5 -113.5t-308 -46q-110 0 -188.5 21t-131.5 54.5t-84.5 77.5t-47.5 88.5t-20.5 88t-4.5 75.5q0 34 5.5 68t16 65.5t22 59t24.5 44.5q18 27 67 29q22 0 22 -13
q0 -9 -13 -44q-9 -26 -17.5 -64t-8.5 -96t16 -111.5t61 -94t127 -65t215 -24.5q118 0 211 22.5t158.5 58t99.5 77.5t34 79q0 16 -4.5 31t-23 32t-57 34.5t-105.5 39.5q-33 11 -33 34q0 10 5 24t12 30q11 30 31 54t55 24h315q72 0 109.5 13t57 38t31.5 61.5t32 86.5
q4 9 21.5 32.5t54.5 32.5q24 5 39 5t18.5 -3.5t3.5 -10.5q0 -8 -2.5 -14.5t-4.5 -10.5q-10 -18 -18 -45.5t-8 -55.5q0 -33 10.5 -53.5t33.5 -33t54.5 -21t74.5 -16.5q87 141 172.5 229t165 137t148 67t119.5 18q68 0 119 -20.5t86 -55.5t52.5 -82t17.5 -103q0 -88 -35 -153
q24 -20 58 -31t87 -11q28 0 38 -17.5t10 -56.5v-9q0 -42 -23 -57t-61 -15q-133 0 -203 86q-155 -116 -504 -116q-200 0 -326.5 40.5t-149.5 129.5q-20 -35 -43 -62t-57 -44.5t-85 -25.5q-52 -8 -128 -8h-91z" />
    <glyph glyph-name="uniFD23" unicode="&#xfec0;&#xfef0;" horiz-adv-x="2712" arabic-form="final" 
d="M1873 132q32 -3 83 -6t118 -3q113 0 193 15t131 40.5t75 61.5t24 81q0 55 -45.5 96.5t-130.5 41.5q-114 0 -233 -83.5t-215 -243.5zM2257 1077q23 0 60 -37q16 -14 26.5 -31.5t10.5 -26.5q0 -10 -17.5 -27.5t-31.5 -32.5q-26 -22 -34.5 -32t-18.5 -10t-22 15t-27 29
q-16 16 -33 29t-17 22q0 8 12.5 25.5t29 34t34 29.5t28.5 13zM1109 0q26 -13 43 -40.5t17 -57.5q0 -64 -41.5 -141.5t-127 -145t-215.5 -113.5t-308 -46q-110 0 -188.5 21t-131.5 54.5t-84.5 77.5t-47.5 88.5t-20.5 88t-4.5 75.5q0 34 5.5 68t16 65.5t22 59t24.5 44.5
q18 27 67 29q22 0 22 -13q0 -9 -13 -44q-9 -26 -17.5 -64t-8.5 -96t16 -111.5t61 -94t127 -65t215 -24.5q118 0 211 22.5t158.5 58t99.5 77.5t34 79q0 16 -4.5 31t-23 32t-57 34.5t-105.5 39.5q-33 11 -33 34q0 10 5 24t12 30q11 30 31 54t55 24h315q72 0 109.5 13t57 38
t31.5 61.5t32 86.5q4 9 21.5 32.5t54.5 32.5q24 5 39 5t18.5 -3.5t3.5 -10.5q0 -8 -2.5 -14.5t-4.5 -10.5q-10 -18 -18 -45.5t-8 -55.5q0 -33 10.5 -53.5t33.5 -33t54.5 -21t74.5 -16.5q87 141 172.5 229t165 137t148 67t119.5 18q68 0 119 -20.5t86 -55.5t52.5 -82
t17.5 -103q0 -88 -35 -153q24 -20 58 -31t87 -11q28 0 38 -17.5t10 -56.5v-9q0 -42 -23 -57t-61 -15q-133 0 -203 86q-155 -116 -504 -116q-200 0 -326.5 40.5t-149.5 129.5q-20 -35 -43 -62t-57 -44.5t-85 -25.5q-52 -8 -128 -8h-91z" />
    <glyph glyph-name="uniFD24" unicode="&#xfec0;&#xfef2;" horiz-adv-x="2712" arabic-form="final" 
d="M393 -662q11 0 27.5 -10.5t33.5 -26.5q14 -15 25.5 -32t11.5 -27q0 -9 -17.5 -26.5t-33.5 -32.5q-25 -22 -33.5 -32t-19.5 -10q-9 0 -21 14.5t-26 29.5q-18 16 -34 29t-16 22q0 7 11.5 25t28.5 34.5t34.5 29.5t28.5 13zM635 -662q11 0 27.5 -10.5t32.5 -26.5
q15 -15 26 -32t11 -27q0 -9 -17.5 -26.5t-31.5 -32.5q-26 -22 -34.5 -32t-19.5 -10q-9 0 -21 14.5t-27 29.5q-16 16 -33 29t-17 22q0 7 12 25t28.5 34.5t34 29.5t29.5 13zM1873 132q32 -3 83 -6t118 -3q113 0 193 15t131 40.5t75 61.5t24 81q0 55 -45.5 96.5t-130.5 41.5
q-114 0 -233 -83.5t-215 -243.5zM2257 1077q23 0 60 -37q16 -14 26.5 -31.5t10.5 -26.5q0 -10 -17.5 -27.5t-31.5 -32.5q-26 -22 -34.5 -32t-18.5 -10t-22 15t-27 29q-16 16 -33 29t-17 22q0 8 12.5 25.5t29 34t34 29.5t28.5 13zM1109 0q26 -13 43 -40.5t17 -57.5
q0 -64 -41.5 -141.5t-127 -145t-215.5 -113.5t-308 -46q-110 0 -188.5 21t-131.5 54.5t-84.5 77.5t-47.5 88.5t-20.5 88t-4.5 75.5q0 34 5.5 68t16 65.5t22 59t24.5 44.5q18 27 67 29q22 0 22 -13q0 -9 -13 -44q-9 -26 -17.5 -64t-8.5 -96t16 -111.5t61 -94t127 -65
t215 -24.5q118 0 211 22.5t158.5 58t99.5 77.5t34 79q0 16 -4.5 31t-23 32t-57 34.5t-105.5 39.5q-33 11 -33 34q0 10 5 24t12 30q11 30 31 54t55 24h315q72 0 109.5 13t57 38t31.5 61.5t32 86.5q4 9 21.5 32.5t54.5 32.5q24 5 39 5t18.5 -3.5t3.5 -10.5q0 -8 -2.5 -14.5
t-4.5 -10.5q-10 -18 -18 -45.5t-8 -55.5q0 -33 10.5 -53.5t33.5 -33t54.5 -21t74.5 -16.5q87 141 172.5 229t165 137t148 67t119.5 18q68 0 119 -20.5t86 -55.5t52.5 -82t17.5 -103q0 -88 -35 -153q24 -20 58 -31t87 -11q28 0 38 -17.5t10 -56.5v-9q0 -42 -23 -57t-61 -15
q-133 0 -203 86q-155 -116 -504 -116q-200 0 -326.5 40.5t-149.5 129.5q-20 -35 -43 -62t-57 -44.5t-85 -25.5q-52 -8 -128 -8h-91z" />
    <glyph glyph-name="uniFD29" unicode="&#xfeb8;&#xfeae;" horiz-adv-x="2048" arabic-form="final" 
d="M631 0q-33 0 -63.5 17.5t-44.5 45.5q-5 -113 -38 -200.5t-83.5 -147.5t-113.5 -91.5t-126 -31.5q-44 0 -81 17.5t-63 43.5q-16 16 -16 28q0 15 15 16.5t52 7.5q88 5 152.5 42t108 89.5t64 114.5t20.5 119q0 24 -15 81t-59 139q-12 22 -12 36q0 19 10.5 37.5t26.5 48.5
q28 51 49 51t44 -67q44 -130 92 -185.5t118 -55.5h17q59 0 95 11t59 36t39 62t34 90q5 12 21.5 34t53.5 31q25 5 39 5t18.5 -3.5t4.5 -10.5q0 -17 -18 -49t-18 -92q0 -53 41.5 -83.5t115.5 -30.5q42 0 69 10.5t46 30.5t33 51t30 74q16 37 34.5 63t55.5 35q23 5 38 5
t18.5 -3.5t3.5 -10.5q0 -14 -17.5 -49t-17.5 -94q0 -53 38.5 -82.5t101.5 -29.5q58 0 96 26.5t56 58.5q-9 31 -16 61t-9 49v9q0 17 10.5 35.5t47.5 44.5q16 11 26 11q14 0 19.5 -20t14.5 -52q12 -38 22 -79t31 -72.5t60 -51.5t107 -20q28 0 38 -17.5t10 -56.5v-9
q0 -42 -23 -57t-62 -15q-162 0 -225 123q-31 -44 -81 -83.5t-127 -39.5q-78 0 -128 38.5t-62 101.5q-35 -70 -84 -105t-138 -35q-70 0 -132.5 30.5t-90.5 109.5q-20 -35 -43 -62t-57 -44.5t-86 -25.5t-129 -8h-17zM1378 1118q24 0 61 -37q15 -15 26 -32.5t11 -26.5
q0 -10 -17.5 -27.5l-31.5 -31.5q-26 -23 -34.5 -33t-19.5 -10q-9 0 -21.5 15t-26.5 30q-17 17 -33.5 29.5t-16.5 21.5q0 8 12 25.5t28.5 34t34 29.5t28.5 13zM1496 894q24 0 61 -37q15 -14 26 -31.5t11 -26.5t-17.5 -26.5t-31.5 -33.5q-26 -21 -34.5 -31.5t-19.5 -10.5
q-9 0 -21.5 15t-26.5 29q-16 17 -33 30t-17 22q0 8 12 25.5t28.5 34t34 29t28.5 12.5zM1255 894q24 0 61 -37q14 -14 25.5 -31.5t11.5 -26.5t-17.5 -26.5l-33.5 -33.5q-25 -21 -33.5 -31.5t-19.5 -10.5q-9 0 -21 15t-26 29q-17 17 -34 30t-17 22q0 8 12.5 25.5t29 34t34 29
t28.5 12.5z" />
    <glyph glyph-name="uniFD2A" unicode="&#xfeb4;&#xfeae;" horiz-adv-x="2048" arabic-form="final" 
d="M631 0q-33 0 -63.5 17.5t-44.5 45.5q-5 -113 -38 -200.5t-83.5 -147.5t-113.5 -91.5t-126 -31.5q-44 0 -81 17.5t-63 43.5q-16 16 -16 28q0 15 15 16.5t52 7.5q88 5 152.5 42t108 89.5t64 114.5t20.5 119q0 24 -15 81t-59 139q-12 22 -12 36q0 19 10.5 37.5t26.5 48.5
q28 51 49 51t44 -67q44 -130 92 -185.5t118 -55.5h17q59 0 95 11t59 36t39 62t34 90q5 12 21.5 34t53.5 31q25 5 39 5t18.5 -3.5t4.5 -10.5q0 -17 -18 -49t-18 -92q0 -53 41.5 -83.5t115.5 -30.5q42 0 69 10.5t46 30.5t33 51t30 74q16 37 34.5 63t55.5 35q23 5 38 5
t18.5 -3.5t3.5 -10.5q0 -14 -17.5 -49t-17.5 -94q0 -53 38.5 -82.5t101.5 -29.5q58 0 96 26.5t56 58.5q-9 31 -16 61t-9 49v9q0 17 10.5 35.5t47.5 44.5q16 11 26 11q14 0 19.5 -20t14.5 -52q12 -38 22 -79t31 -72.5t60 -51.5t107 -20q28 0 38 -17.5t10 -56.5v-9
q0 -42 -23 -57t-62 -15q-162 0 -225 123q-31 -44 -81 -83.5t-127 -39.5q-78 0 -128 38.5t-62 101.5q-35 -70 -84 -105t-138 -35q-70 0 -132.5 30.5t-90.5 109.5q-20 -35 -43 -62t-57 -44.5t-86 -25.5t-129 -8h-17z" />
    <glyph glyph-name="uniFD2B" unicode="&#xfebc;&#xfeae;" horiz-adv-x="2154" arabic-form="final" 
d="M1314 132q32 -3 83 -6t118 -3q113 0 193 15t131 40.5t74.5 61.5t23.5 81q0 55 -45 96.5t-130 41.5q-114 0 -233 -83.5t-215 -243.5zM631 0q-33 0 -63.5 17.5t-44.5 45.5q-5 -113 -38 -200.5t-83.5 -147.5t-113.5 -91.5t-126 -31.5q-44 0 -81 17.5t-63 43.5q-16 16 -16 28
q0 15 15 16.5t52 7.5q88 5 152.5 42t108 89.5t64 114.5t20.5 119q0 24 -15 81t-59 139q-12 22 -12 36q0 19 10.5 37.5t26.5 48.5q28 51 49 51t44 -67q44 -130 92 -185.5t118 -55.5h8q72 0 109.5 13t57 38t31.5 61.5t32 86.5q4 9 21.5 32.5t54.5 32.5q24 5 39 5t18.5 -3.5
t3.5 -10.5q0 -8 -2.5 -14.5t-4.5 -10.5q-10 -18 -18 -45.5t-8 -55.5q0 -33 10.5 -53.5t33 -33t54.5 -21t75 -16.5q87 141 172.5 229t165 137t148 67t119.5 18q68 0 119 -20.5t85.5 -55.5t52.5 -82t18 -103q0 -88 -36 -153q25 -20 59 -31t87 -11q28 0 38 -17.5t10 -56.5v-9
q0 -42 -23 -57t-62 -15q-132 0 -202 86q-155 -116 -504 -116q-200 0 -327 40.5t-149 129.5q-20 -35 -43 -62t-57 -44.5t-86 -25.5t-129 -8h-8z" />
    <glyph glyph-name="uniFD2C" unicode="&#xfec0;&#xfeae;" horiz-adv-x="2154" arabic-form="final" 
d="M1314 132q32 -3 83 -6t118 -3q113 0 193 15t131 40.5t74.5 61.5t23.5 81q0 55 -45 96.5t-130 41.5q-114 0 -233 -83.5t-215 -243.5zM1698 1077q23 0 60 -37q16 -14 26.5 -31.5t10.5 -26.5q0 -10 -17.5 -27.5t-31.5 -32.5q-27 -22 -35 -32t-19 -10q-9 0 -21 15t-27 29
q-16 16 -33 29t-17 22q0 8 12.5 25.5t29 34t34 29.5t28.5 13zM631 0q-33 0 -63.5 17.5t-44.5 45.5q-5 -113 -38 -200.5t-83.5 -147.5t-113.5 -91.5t-126 -31.5q-44 0 -81 17.5t-63 43.5q-16 16 -16 28q0 15 15 16.5t52 7.5q88 5 152.5 42t108 89.5t64 114.5t20.5 119
q0 24 -15 81t-59 139q-12 22 -12 36q0 19 10.5 37.5t26.5 48.5q28 51 49 51t44 -67q44 -130 92 -185.5t118 -55.5h8q72 0 109.5 13t57 38t31.5 61.5t32 86.5q4 9 21.5 32.5t54.5 32.5q24 5 39 5t18.5 -3.5t3.5 -10.5q0 -8 -2.5 -14.5t-4.5 -10.5q-10 -18 -18 -45.5t-8 -55.5
q0 -33 10.5 -53.5t33 -33t54.5 -21t75 -16.5q87 141 172.5 229t165 137t148 67t119.5 18q68 0 119 -20.5t85.5 -55.5t52.5 -82t18 -103q0 -88 -36 -153q25 -20 59 -31t87 -11q28 0 38 -17.5t10 -56.5v-9q0 -42 -23 -57t-62 -15q-132 0 -202 86q-155 -116 -504 -116
q-200 0 -327 40.5t-149 129.5q-20 -35 -43 -62t-57 -44.5t-86 -25.5t-129 -8h-8z" />
    <glyph glyph-name="uniFEF5" unicode="&#xfedf;&#xfe82;" horiz-adv-x="977" arabic-form="isolated" 
d="M748 1332q13 0 26 -48t22.5 -120t16 -155t6.5 -155q0 -111 -22 -217.5t-55 -175.5q48 -65 71 -124t23 -94q0 -81 -37 -129.5t-94 -74t-128 -32.5t-140 -7q-106 0 -154 15t-48 71q0 46 11 55.5t50 9.5q27 0 68 21.5t85 59t86.5 89.5t71.5 110q-40 51 -84 101.5
t-101.5 109.5t-131 132t-170.5 164q-70 67 -94 98.5t-24 59.5q0 14 6.5 32t15 33.5t17.5 25.5t17 10q4 0 42.5 -36t95.5 -92.5t126 -127t135 -141.5t121.5 -134.5t83.5 -106.5q19 48 34 123t15 138q0 45 -5 82.5t-12 77.5t-17.5 88t-21.5 113q-2 7 -2.5 13.5t-0.5 15.5
q0 36 22 64q23 28 43.5 43t30.5 15zM502 150q9 -2 38 -3t48 -1q47 0 76.5 8t44.5 20t20 26t5 25q0 24 -14 52.5t-44 65.5q-32 -48 -76 -100.5t-98 -92.5zM-118 1288q-5 0 -5 7q0 13 16 38.5t40.5 50t56 43t63.5 18.5q23 0 50 -9t58 -18t67 -17.5t80 -8.5q41 0 70.5 7t49 13
t32.5 12.5t20 6.5q8 0 9.5 -3.5t1.5 -7.5q0 -16 -15.5 -39.5t-44 -44.5t-68 -37t-88.5 -16q-37 0 -69 7t-62.5 15t-60 15.5t-62.5 7.5q-35 0 -59 -6.5t-39.5 -14t-25 -13.5t-15.5 -6z" />
    <glyph glyph-name="uniFEF6" unicode="&#xfee0;&#xfe82;" horiz-adv-x="1203" arabic-form="final" 
d="M879 1171q-2 21 -3 38.5t-1 31.5q0 37 11 56.5t44 30.5q22 8 39 8q26 0 26.5 -18.5t4.5 -43.5q0 -204 2.5 -397.5t2.5 -406.5q0 -76 9.5 -135t33.5 -99.5t66.5 -60.5t108.5 -20q28 0 38 -17.5t10 -56.5v-9q0 -42 -23 -57t-61 -15q-76 0 -130.5 24t-89.5 66t-53 99.5
t-21 122.5q-78 -117 -158 -183t-154 -99.5t-138 -42t-110 -8.5q-43 0 -96.5 8.5t-93.5 25.5q-30 11 -30 48q0 7 1 14.5t3 16.5q5 28 17 36.5t38 8.5q9 0 20.5 -2.5t28.5 -5t43 -4.5t65 -2q150 0 255.5 54t177.5 140q-18 41 -63.5 104.5t-109.5 137t-145.5 151t-172.5 146.5
q-53 40 -85 66t-32 67q0 21 11 53q9 21 14.5 36t18.5 15q8 0 24 -10q26 -18 74 -61t106 -99t120.5 -122.5t122 -135.5t108 -137.5t76.5 -125.5q14 20 32 47t32 58v122q0 179 -2 276.5t-4.5 147.5t-4.5 71.5t-3 46.5zM-9 1288q-5 0 -5 7q0 13 16 38.5t40.5 50t56 43
t63.5 18.5q23 0 50 -9t58 -18t67 -17.5t80 -8.5q41 0 70.5 7t49 13t32.5 12.5t20 6.5q8 0 9.5 -3.5t1.5 -7.5q0 -16 -15.5 -39.5t-44 -44.5t-68 -37t-88.5 -16q-37 0 -69 7t-62.5 15t-60 15.5t-62.5 7.5q-35 0 -59 -6.5t-39.5 -14t-25 -13.5t-15.5 -6z" />
    <glyph glyph-name="uniFEF7" unicode="&#xfedf;&#xfe84;" horiz-adv-x="976" arabic-form="isolated" 
d="M747 1332q12 0 25 -48t23 -120t17 -155t7 -155q0 -111 -22 -217.5t-56 -175.5q48 -65 71 -124t23 -94q0 -81 -37 -129.5t-94 -74t-128 -32.5t-139 -7q-107 0 -155 15t-48 71q0 46 11 55.5t50 9.5q27 0 68 21.5t85 59t86.5 89.5t71.5 110q-40 51 -84.5 101.5t-101.5 109.5
t-131 132t-169 164q-70 67 -94 98.5t-24 59.5q0 14 6 32t14.5 33.5t18 25.5t16.5 10q3 0 42 -36t96 -92.5t126.5 -127t135 -141.5t120.5 -134.5t85 -106.5q18 48 33 123t15 138q0 45 -4.5 82.5t-12.5 77.5t-17.5 88t-20.5 113q-3 7 -4 13.5t-1 15.5q0 36 23 64
q24 28 44.5 43t29.5 15zM502 150q9 -2 37 -3t49 -1q46 0 76 8t44 20t20 26t6 25q0 24 -14 52.5t-45 65.5q-32 -48 -76 -100.5t-97 -92.5zM253 1498q0 -32 -19.5 -42.5t-72.5 -31.5q-111 -39 -173 -75t-71 -36q-7 0 -7 17q0 15 6.5 37t19.5 31q16 15 28.5 19.5t35.5 17.5
q-23 11 -41.5 34t-18.5 62t17.5 73t46 60.5t65 42.5t75.5 16q65 0 65 -48q0 -15 -6 -31t-13 -16q-9 0 -24.5 8.5t-51.5 8.5q-30 0 -64.5 -23t-34.5 -65q0 -31 27 -48t63 -17q43 0 70 13t57 28q2 2 9 2q9 0 10.5 -12.5t1.5 -24.5z" />
    <glyph glyph-name="uniFEF8" unicode="&#xfee0;&#xfe84;" horiz-adv-x="1203" arabic-form="final" 
d="M878 1171q-2 21 -3 38.5t-1 31.5q0 37 11 56.5t44 30.5q23 8 39 8q26 0 27 -18.5t4 -43.5q0 -204 3 -397.5t3 -406.5q0 -76 9.5 -135t33 -99.5t66 -60.5t109.5 -20q28 0 37.5 -17.5t9.5 -56.5v-9q0 -42 -23 -57t-61 -15q-76 0 -130.5 24t-89.5 66t-53.5 99.5t-20.5 122.5
q-77 -117 -157.5 -183t-154 -99.5t-138 -42t-110.5 -8.5q-42 0 -96 8.5t-94 25.5q-30 11 -30 48q0 7 1 14.5t3 16.5q5 28 17 36.5t39 8.5q9 0 19.5 -2.5t28 -5t44 -4.5t64.5 -2q150 0 255.5 54t178.5 140q-19 41 -64 104.5t-109.5 137t-145.5 151t-172 146.5
q-53 40 -85.5 66t-32.5 67q0 21 11 53q9 21 14.5 36t18.5 15q7 0 24 -10q26 -18 74 -61t106 -99t120.5 -122.5t121.5 -135.5t108 -137.5t77 -125.5q15 20 32.5 47t31.5 58v122q0 179 -1.5 276.5t-4.5 147.5t-5 71.5t-3 46.5zM348 1398q0 -31 -19.5 -42t-72.5 -32
q-111 -39 -173 -74.5t-71 -35.5q-7 0 -7 16q0 15 6.5 37.5t19.5 31.5q16 14 28.5 18.5t35.5 18.5q-23 10 -41.5 33t-18.5 62t17.5 73t46 60.5t65 42.5t75.5 16q65 0 65 -48q0 -14 -6 -30t-13 -16q-9 0 -24.5 8t-51.5 8q-30 0 -64.5 -22.5t-34.5 -65.5q0 -31 27 -48t63 -17
q43 0 70 13t57 28q2 2 9 2q9 0 10.5 -12t1.5 -25z" />
    <glyph glyph-name="uniFEF9" unicode="&#xfedf;&#xfe88;" horiz-adv-x="982" arabic-form="isolated" 
d="M753 1332q13 0 26 -48t22.5 -120t16 -155t6.5 -155q0 -111 -22 -217.5t-55 -175.5q48 -65 71 -124t23 -94q0 -81 -37 -129.5t-94 -74t-128 -32.5t-139 -7q-107 0 -155 15t-48 71q0 46 11 55.5t50 9.5q28 0 68.5 21.5t84.5 59t86.5 89.5t71.5 110q-40 51 -84 101.5
t-101.5 109.5t-131 132t-170.5 164q-70 67 -94 98.5t-24 59.5q0 14 7 32t15 33.5t17 25.5t17 10q4 0 42.5 -36t95.5 -92.5t126 -127t135 -141.5t121.5 -134.5t83.5 -106.5q19 48 34 123t15 138q0 45 -5 82.5t-12 77.5t-17.5 88t-21.5 113q-2 7 -2.5 13.5t-0.5 15.5
q0 36 22 64q23 28 43.5 43t30.5 15zM507 150q9 -2 38 -3t49 -1q46 0 75.5 8t44.5 20t20 26t5 25q0 24 -13.5 52.5t-44.5 65.5q-32 -48 -76 -100.5t-98 -92.5zM343 -308q0 -32 -19.5 -42.5t-72.5 -31.5q-111 -39 -173 -75t-71 -36q-7 0 -7 17q0 15 6.5 37t19.5 31
q16 15 28.5 19.5t35.5 17.5q-23 12 -41.5 35t-18.5 61q0 39 17.5 73t46 61t65 42.5t75.5 15.5q65 0 65 -48q0 -15 -6 -30.5t-13 -15.5q-9 0 -24.5 8.5t-51.5 8.5q-30 0 -64.5 -23t-34.5 -66q0 -31 27 -47.5t63 -16.5q43 0 70 13t57 27q2 2 9 2q9 0 10.5 -12t1.5 -25z" />
    <glyph glyph-name="uniFEFA" unicode="&#xfee0;&#xfe88;" horiz-adv-x="1203" arabic-form="final" 
d="M877 1171q-2 21 -2.5 38.5t-0.5 31.5q0 37 10.5 56.5t44.5 30.5q22 8 38 8q26 0 27 -18.5t5 -43.5q0 -204 2.5 -397.5t2.5 -406.5q0 -76 9 -135t33.5 -99.5t66.5 -60.5t109 -20q27 0 37.5 -17.5t10.5 -56.5v-9q0 -42 -23 -57t-62 -15q-75 0 -129.5 24t-90 66t-54 99.5
t-19.5 122.5q-78 -117 -158 -183t-154 -99.5t-138.5 -42t-111.5 -8.5q-42 0 -95 8.5t-95 25.5q-28 11 -28 48q0 7 0.5 14.5t2.5 16.5q6 28 18 36.5t37 8.5q10 0 21 -2.5t28.5 -5t43 -4.5t64.5 -2q149 0 255.5 54t178.5 140q-19 41 -64 104.5t-110 137t-146 151t-171 146.5
q-54 40 -86 66t-32 67q0 21 11 53q9 21 15 36t18 15q8 0 25 -10q25 -18 73 -61t106 -99t121 -122.5t122 -135.5t108 -137.5t76 -125.5q15 20 32.5 47t32.5 58v122q0 179 -2 276.5t-4.5 147.5t-4.5 71.5t-4 46.5zM388 -340q0 -31 -19.5 -42t-72.5 -31q-111 -39 -173 -75
t-71 -36q-7 0 -7 17q0 14 6.5 36t19.5 32q16 15 28.5 19.5t35.5 17.5q-23 11 -41.5 34t-18.5 62t17.5 73t46 60.5t65 42.5t75.5 16q65 0 65 -48q0 -15 -6 -30.5t-13 -15.5q-9 0 -24.5 8t-51.5 8q-30 0 -64.5 -23t-34.5 -65q0 -32 27 -48.5t63 -16.5q43 0 70 13t57 28
q2 1 9 1q9 0 10.5 -11.5t1.5 -25.5z" />
    <glyph glyph-name="uniFEFB" unicode="&#xfedf;&#xfe8e;" horiz-adv-x="975" arabic-form="isolated" 
d="M745 1332q13 0 26 -48t23 -120t16.5 -155t6.5 -155q0 -111 -22 -217.5t-56 -175.5q48 -65 71.5 -124t23.5 -94q0 -81 -37 -129.5t-94 -74t-128.5 -32.5t-139.5 -7q-106 0 -154.5 15t-48.5 71q0 46 11.5 55.5t50.5 9.5q27 0 67.5 21.5t85 59t86.5 89.5t72 110
q-40 51 -84.5 101.5t-102 109.5t-131 132t-169.5 164q-70 67 -94 98.5t-24 59.5q0 14 6.5 32t15 33.5t17.5 25.5t16 10q4 0 43 -36t96 -92.5t126 -127t135 -141.5t120.5 -134.5t84.5 -106.5q19 48 33.5 123t14.5 138q0 45 -4.5 82.5t-12 77.5t-17.5 88t-21 113q-2 7 -3 13.5
t-1 15.5q0 36 22 64q24 28 44.5 43t29.5 15zM500 150q9 -2 37.5 -3t48.5 -1q46 0 76 8t44.5 20t20 26t5.5 25q0 24 -14 52.5t-44 65.5q-32 -48 -76.5 -100.5t-97.5 -92.5z" />
    <glyph glyph-name="uniFEFC" unicode="&#xfee0;&#xfe8e;" horiz-adv-x="1202" arabic-form="final" 
d="M877 1171q-2 21 -3 38.5t-1 31.5q0 37 11 56.5t44 30.5q22 8 39 8q26 0 27 -18.5t4 -43.5q0 -204 3 -397.5t3 -406.5q0 -76 9 -135t33 -99.5t66.5 -60.5t108.5 -20q28 0 38 -17.5t10 -56.5v-9q0 -42 -23 -57t-61 -15q-76 0 -130.5 24t-89.5 66t-53.5 99.5t-20.5 122.5
q-78 -117 -158 -183t-154 -99.5t-138 -42t-110 -8.5q-43 0 -96.5 8.5t-93.5 25.5q-30 11 -30 48q0 7 1 14.5t3 16.5q5 28 17 36.5t38 8.5q9 0 20 -2.5t28.5 -5t43.5 -4.5t65 -2q150 0 255.5 54t177.5 140q-19 41 -64 104.5t-109 137t-145.5 151t-171.5 146.5q-54 40 -86 66
t-32 67q0 21 10 53q10 21 15.5 36t18.5 15q7 0 24 -10q26 -18 74 -61t106 -99t120.5 -122.5t121.5 -135.5t108 -137.5t77 -125.5q14 20 32 47t32 58v122q0 179 -2 276.5t-4.5 147.5t-4.5 71.5t-3 46.5z" />
    <glyph glyph-name="uniFE8B_uniFEE4.liga" unicode="&#xfe8b;&#xfee4;" horiz-adv-x="1381" 
d="M438 431q-31 0 -54 -17.5t-39.5 -43t-28.5 -55.5t-20 -53q37 -56 99 -93t140 -37q42 0 64 22t22 45q0 28 -17.5 67.5t-44 76.5t-59 62.5t-62.5 25.5zM885 1q-7 -1 -15 -1q-15 0 -37 4.5t-45.5 18.5t-49 37t-45.5 62q-33 -81 -82 -108.5t-111 -27.5q-32 0 -67 9t-69.5 29
t-66 52.5t-56.5 78.5q-22 -50 -51.5 -80.5t-63.5 -47t-71 -22t-72 -5.5q-18 0 -33 16.5t-15 53.5v11q0 39 24 56.5t61 17.5q46 0 75.5 20t49 51t32.5 67t25 66q30 72 60.5 115.5t61 67t59.5 29.5t59 6q70 0 133.5 -58t116.5 -152q28 -55 51.5 -95t46.5 -65.5t50.5 -38.5
t66.5 -13q5 0 10 -1q6 1 12 1q60 0 98.5 12t61.5 30.5t32 40.5t9 44q0 33 -19.5 86t-46.5 99q-7 12 -7 26q0 25 36 93q30 56 52 56q26 0 54 -85q15 -43 28.5 -100t13.5 -131q0 -149 -90 -237.5t-259 -88.5q-3 0 -7 1zM1311 983q0 -31 -19.5 -42.5t-72.5 -30.5
q-110 -39 -172 -75t-72 -36q-7 0 -7 16q0 15 7 37t19 32q16 14 28.5 19t36.5 17q-24 11 -42.5 34t-18.5 62t17.5 73t46 61t65 42.5t75.5 15.5q65 0 65 -48q0 -14 -5.5 -30t-12.5 -16q-10 0 -25.5 8t-50.5 8q-31 0 -65.5 -23t-34.5 -65q0 -32 27 -48.5t63 -16.5q43 0 70 13
t58 28q2 2 8 2q9 0 10.5 -12t1.5 -25z" />
    <glyph glyph-name="uniFE8B_uniFEF0.liga" unicode="&#xfe8b;&#xfef0;" horiz-adv-x="1705" 
d="M1109 0q26 -13 43 -40.5t17 -57.5q0 -64 -41.5 -141.5t-127 -145t-215.5 -113.5t-308 -46q-110 0 -188.5 21t-131.5 54.5t-84.5 77.5t-47.5 88.5t-20.5 88t-4.5 75.5q0 34 5.5 68t16 65.5t22 59t24.5 44.5q18 27 67 29q22 0 22 -13q0 -9 -13 -44q-9 -26 -17.5 -64
t-8.5 -96t16 -111.5t61 -94t127 -65t215 -24.5q118 0 211 22.5t158.5 58t99.5 77.5t34 79q0 16 -4.5 31t-23 32t-57 34.5t-105.5 39.5q-33 11 -33 34q0 10 5 24t12 30q11 30 31 54t55 24h333q59 0 98 12t62 30.5t32 40.5t9 44q0 33 -19.5 86t-46.5 99q-7 12 -7 26
q0 25 36 93q29 56 52 56q25 0 53 -85q15 -43 28.5 -100t13.5 -131q0 -149 -90 -237.5t-258 -88.5h-107zM1635 983q0 -31 -19.5 -42.5t-72.5 -30.5q-111 -39 -172.5 -75t-71.5 -36q-8 0 -8 16q0 15 7 37t20 32q16 14 28 19t36 17q-24 11 -42.5 34t-18.5 62t17.5 73t46 61
t65.5 42.5t76 15.5q64 0 64 -48q0 -14 -5 -30t-13 -16q-9 0 -25 8t-50 8q-32 0 -66 -23t-34 -65q0 -32 26.5 -48.5t63.5 -16.5q42 0 69 13t59 28q2 2 7 2q9 0 11 -12t2 -25z" />
    <glyph glyph-name="uniFE8B_uniFEF2.liga" unicode="&#xfe8b;&#xfef2;" horiz-adv-x="1705" 
d="M393 -662q11 0 27.5 -10.5t33.5 -26.5q14 -15 25.5 -32t11.5 -27q0 -9 -17.5 -26.5t-33.5 -32.5q-25 -22 -33.5 -32t-19.5 -10q-9 0 -21 14.5t-26 29.5q-18 16 -34 29t-16 22q0 7 11.5 25t28.5 34.5t34.5 29.5t28.5 13zM635 -662q11 0 27.5 -10.5t32.5 -26.5
q15 -15 26 -32t11 -27q0 -9 -17.5 -26.5t-31.5 -32.5q-26 -22 -34.5 -32t-19.5 -10q-9 0 -21 14.5t-27 29.5q-16 16 -33 29t-17 22q0 7 12 25t28.5 34.5t34 29.5t29.5 13zM1109 0q26 -13 43 -40.5t17 -57.5q0 -64 -41.5 -141.5t-127 -145t-215.5 -113.5t-308 -46
q-110 0 -188.5 21t-131.5 54.5t-84.5 77.5t-47.5 88.5t-20.5 88t-4.5 75.5q0 34 5.5 68t16 65.5t22 59t24.5 44.5q18 27 67 29q22 0 22 -13q0 -9 -13 -44q-9 -26 -17.5 -64t-8.5 -96t16 -111.5t61 -94t127 -65t215 -24.5q118 0 211 22.5t158.5 58t99.5 77.5t34 79
q0 16 -4.5 31t-23 32t-57 34.5t-105.5 39.5q-33 11 -33 34q0 10 5 24t12 30q11 30 31 54t55 24h333q59 0 98 12t62 30.5t32 40.5t9 44q0 33 -19.5 86t-46.5 99q-7 12 -7 26q0 25 36 93q29 56 52 56q25 0 53 -85q15 -43 28.5 -100t13.5 -131q0 -149 -90 -237.5t-258 -88.5
h-107zM1635 983q0 -31 -19.5 -42.5t-72.5 -30.5q-111 -39 -172.5 -75t-71.5 -36q-8 0 -8 16q0 15 7 37t20 32q16 14 28 19t36 17q-24 11 -42.5 34t-18.5 62t17.5 73t46 61t65.5 42.5t76 15.5q64 0 64 -48q0 -14 -5 -30t-13 -16q-9 0 -25 8t-50 8q-32 0 -66 -23t-34 -65
q0 -32 26.5 -48.5t63.5 -16.5q42 0 69 13t59 28q2 2 7 2q9 0 11 -12t2 -25z" />
    <glyph glyph-name="uniFE91_uniFEE4.liga" unicode="&#xfe91;&#xfee4;" horiz-adv-x="1381" 
d="M438 431q-31 0 -54 -17.5t-39.5 -43t-28.5 -55.5t-20 -53q37 -56 99 -93t140 -37q42 0 64 22t22 45q0 28 -17.5 67.5t-44 76.5t-59 62.5t-62.5 25.5zM885 1q-7 -1 -15 -1q-15 0 -37 4.5t-45.5 18.5t-49 37t-45.5 62q-33 -81 -82 -108.5t-111 -27.5q-32 0 -67 9t-69.5 29
t-66 52.5t-56.5 78.5q-22 -50 -51.5 -80.5t-63.5 -47t-71 -22t-72 -5.5q-18 0 -33 16.5t-15 53.5v11q0 39 24 56.5t61 17.5q46 0 75.5 20t49 51t32.5 67t25 66q30 72 60.5 115.5t61 67t59.5 29.5t59 6q70 0 133.5 -58t116.5 -152q28 -55 51.5 -95t46.5 -65.5t50.5 -38.5
t66.5 -13q5 0 10 -1q6 1 12 1q60 0 98.5 12t61.5 30.5t32 40.5t9 44q0 33 -19.5 86t-46.5 99q-7 12 -7 26q0 25 36 93q30 56 52 56q26 0 54 -85q15 -43 28.5 -100t13.5 -131q0 -149 -90 -237.5t-259 -88.5q-3 0 -7 1zM1125 -203q11 0 27.5 -10t33.5 -27q14 -15 25.5 -32.5
t11.5 -26.5t-17.5 -26.5l-32.5 -32.5q-26 -22 -34.5 -32t-19.5 -10q-9 0 -21 14.5t-26 29.5q-18 16 -34 29.5t-16 22.5q0 7 11.5 24.5t28.5 34t34.5 29.5t28.5 13z" />
    <glyph glyph-name="uniFE92_uniFEE6.liga" unicode="&#xfe92;&#xfee6;" horiz-adv-x="1637" 
d="M458 894q24 0 60 -37q15 -14 26 -31.5t11 -26.5t-17 -26.5t-33 -33.5q-26 -21 -34 -31.5t-19 -10.5q-9 0 -21 15t-27 29q-17 17 -33.5 30t-16.5 22q0 8 12 25.5t29 34t34.5 29t28.5 12.5zM1065 1q-7 -1 -14 -1q-114 0 -175 55q-13 -101 -58 -178.5t-111.5 -130
t-148.5 -79t-171 -26.5q-183 0 -285 86.5t-102 248.5q0 33 5.5 67t16 65.5t22 59t24.5 45.5q9 14 26 20.5t48 7.5q15 0 15 -10q0 -11 -6.5 -28t-13 -39t-13 -51.5t-6.5 -68.5q0 -114 67.5 -179.5t214.5 -65.5q109 0 181 28.5t115 71t61 88.5t18 83q0 62 -14 113t-40 104
q-9 21 -14 36t-5 29q0 32 28 74q36 56 54 56q20 0 40 -63q21 -56 33 -95t21 -79q39 -60 97 -75t113 -15q4 0 9 -1q5 1 12 1q72 0 109.5 12t58 37t31.5 62.5t31 87.5q4 7 21.5 31.5t54.5 33.5q24 5 39 5t18.5 -3.5t3.5 -10.5q0 -8 -2.5 -14.5t-4.5 -10.5q-10 -18 -18 -45.5
t-8 -55.5q0 -64 46.5 -96.5t166.5 -32.5q28 0 38.5 -17.5t10.5 -56.5v-9q0 -42 -23 -57t-62 -15q-43 0 -81.5 5.5t-70.5 21t-53.5 42t-27.5 71.5q-20 -35 -43 -62t-57 -44.5t-86 -25.5t-129 -8q-4 0 -7 1zM1374 -203q11 0 27.5 -10t34.5 -27q14 -15 25.5 -32.5t11.5 -26.5
t-18 -26.5t-33 -32.5q-25 -22 -33.5 -32t-19.5 -10q-9 0 -21 14.5t-27 29.5q-17 16 -33.5 29.5t-16.5 22.5q0 7 12 24.5t28.5 34t34.5 29.5t28 13z" />
    <glyph glyph-name="uniFE91_uniFEF0.liga" unicode="&#xfe91;&#xfef0;" horiz-adv-x="1705" 
d="M1109 0q26 -13 43 -40.5t17 -57.5q0 -64 -41.5 -141.5t-127 -145t-215.5 -113.5t-308 -46q-110 0 -188.5 21t-131.5 54.5t-84.5 77.5t-47.5 88.5t-20.5 88t-4.5 75.5q0 34 5.5 68t16 65.5t22 59t24.5 44.5q18 27 67 29q22 0 22 -13q0 -9 -13 -44q-9 -26 -17.5 -64
t-8.5 -96t16 -111.5t61 -94t127 -65t215 -24.5q118 0 211 22.5t158.5 58t99.5 77.5t34 79q0 16 -4.5 31t-23 32t-57 34.5t-105.5 39.5q-33 11 -33 34q0 10 5 24t12 30q11 30 31 54t55 24h333q59 0 98 12t62 30.5t32 40.5t9 44q0 33 -19.5 86t-46.5 99q-7 12 -7 26
q0 25 36 93q29 56 52 56q25 0 53 -85q15 -43 28.5 -100t13.5 -131q0 -149 -90 -237.5t-258 -88.5h-107zM1448 -203q12 0 28 -10t33 -27q15 -15 26 -32.5t11 -26.5t-17.5 -26.5t-31.5 -32.5q-26 -22 -34.5 -32t-19.5 -10q-9 0 -21.5 14.5t-26.5 29.5q-17 16 -33 29.5
t-16 22.5q0 7 11.5 24.5t28 34t34 29.5t28.5 13z" />
    <glyph glyph-name="uniFE91_uniFEF2.liga" unicode="&#xfe91;&#xfef2;" horiz-adv-x="1705" 
d="M393 -662q11 0 27.5 -10.5t33.5 -26.5q14 -15 25.5 -32t11.5 -27q0 -9 -17.5 -26.5t-33.5 -32.5q-25 -22 -33.5 -32t-19.5 -10q-9 0 -21 14.5t-26 29.5q-18 16 -34 29t-16 22q0 7 11.5 25t28.5 34.5t34.5 29.5t28.5 13zM635 -662q11 0 27.5 -10.5t32.5 -26.5
q15 -15 26 -32t11 -27q0 -9 -17.5 -26.5t-31.5 -32.5q-26 -22 -34.5 -32t-19.5 -10q-9 0 -21 14.5t-27 29.5q-16 16 -33 29t-17 22q0 7 12 25t28.5 34.5t34 29.5t29.5 13zM1109 0q26 -13 43 -40.5t17 -57.5q0 -64 -41.5 -141.5t-127 -145t-215.5 -113.5t-308 -46
q-110 0 -188.5 21t-131.5 54.5t-84.5 77.5t-47.5 88.5t-20.5 88t-4.5 75.5q0 34 5.5 68t16 65.5t22 59t24.5 44.5q18 27 67 29q22 0 22 -13q0 -9 -13 -44q-9 -26 -17.5 -64t-8.5 -96t16 -111.5t61 -94t127 -65t215 -24.5q118 0 211 22.5t158.5 58t99.5 77.5t34 79
q0 16 -4.5 31t-23 32t-57 34.5t-105.5 39.5q-33 11 -33 34q0 10 5 24t12 30q11 30 31 54t55 24h333q59 0 98 12t62 30.5t32 40.5t9 44q0 33 -19.5 86t-46.5 99q-7 12 -7 26q0 25 36 93q29 56 52 56q25 0 53 -85q15 -43 28.5 -100t13.5 -131q0 -149 -90 -237.5t-258 -88.5
h-107zM1448 -203q12 0 28 -10t33 -27q15 -15 26 -32.5t11 -26.5t-17.5 -26.5t-31.5 -32.5q-26 -22 -34.5 -32t-19.5 -10q-9 0 -21.5 14.5t-26.5 29.5q-17 16 -33 29.5t-16 22.5q0 7 11.5 24.5t28 34t34 29.5t28.5 13z" />
    <glyph glyph-name="uniFE97_uniFEE4.liga" unicode="&#xfe97;&#xfee4;" horiz-adv-x="1372" 
d="M438 431q-31 0 -54 -17.5t-39.5 -43t-28.5 -55.5t-20 -53q37 -56 99 -93t140 -37q42 0 64 22t22 45q0 28 -17.5 67.5t-44 76.5t-59 62.5t-62.5 25.5zM870 0q-15 0 -37 4.5t-45.5 18.5t-49 37t-45.5 62q-33 -81 -82 -108.5t-111 -27.5q-32 0 -67 9t-69.5 29t-66 52.5
t-56.5 78.5q-22 -50 -51.5 -80.5t-63.5 -47t-71 -22t-72 -5.5q-18 0 -33 16.5t-15 53.5v11q0 39 24 56.5t61 17.5q46 0 75.5 20t49 51t32.5 67t25 66q30 72 60.5 115.5t61 67t59.5 29.5t59 6q70 0 133.5 -58t116.5 -152q28 -55 51.5 -95t46.5 -65.5t50.5 -38.5t66.5 -13h13
q60 0 98.5 12t61.5 30.5t32 40.5t9 44q0 33 -19.5 86t-46.5 99q-7 12 -7 26q0 25 36 93q30 56 52 56q26 0 54 -85q15 -43 28.5 -100t13.5 -131q0 -149 -90 -237.5t-259 -88.5h-13zM1221 1077q24 0 61 -37q15 -14 26 -31.5t11 -26.5q0 -10 -17.5 -27.5l-32.5 -32.5
q-25 -22 -34 -32t-19 -10q-9 0 -21.5 15t-26.5 29q-17 16 -33.5 29t-16.5 22q0 8 12 25.5t28.5 34t34 29.5t28.5 13zM980 1077q23 0 60 -37q15 -14 26 -31.5t11 -26.5q0 -10 -17.5 -27.5l-32.5 -32.5q-26 -22 -34 -32t-19 -10q-10 0 -21.5 15t-26.5 29q-17 16 -33.5 29
t-16.5 22q0 8 12 25.5t29 34t34 29.5t29 13z" />
    <glyph glyph-name="uniFE98_uniFEE6.liga" unicode="&#xfe98;&#xfee6;" horiz-adv-x="1628" 
d="M458 894q24 0 60 -37q15 -14 26 -31.5t11 -26.5t-17 -26.5t-33 -33.5q-26 -21 -34 -31.5t-19 -10.5q-9 0 -21 15t-27 29q-17 17 -33.5 30t-16.5 22q0 8 12 25.5t29 34t34.5 29t28.5 12.5zM1051 0q-114 0 -175 55q-13 -101 -58 -178.5t-111.5 -130t-148.5 -79t-171 -26.5
q-183 0 -285 86.5t-102 248.5q0 33 5.5 67t16 65.5t22 59t24.5 45.5q9 14 26 20.5t48 7.5q15 0 15 -10q0 -11 -6.5 -28t-13 -39t-13 -51.5t-6.5 -68.5q0 -114 67.5 -179.5t214.5 -65.5q109 0 181 28.5t115 71t61 88.5t18 83q0 62 -14 113t-40 104q-9 21 -14 36t-5 29
q0 32 28 74q36 56 54 56q20 0 40 -63q21 -56 33 -95t21 -79q39 -60 97 -75t113 -15h12q72 0 109.5 12t58 37t31.5 62.5t31 87.5q4 7 21.5 31.5t54.5 33.5q24 5 39 5t18.5 -3.5t3.5 -10.5q0 -8 -2.5 -14.5t-4.5 -10.5q-10 -18 -18 -45.5t-8 -55.5q0 -64 46.5 -96.5
t166.5 -32.5q28 0 38.5 -17.5t10.5 -56.5v-9q0 -42 -23 -57t-62 -15q-43 0 -81.5 5.5t-70.5 21t-53.5 42t-27.5 71.5q-20 -35 -43 -62t-57 -44.5t-86 -25.5t-129 -8h-12zM1485 894q24 0 61 -37q15 -14 26 -31.5t11 -26.5t-17.5 -26.5t-32.5 -33.5q-25 -21 -33.5 -31.5
t-19.5 -10.5q-9 0 -21.5 15t-26.5 29q-17 17 -33.5 30t-16.5 22q0 8 12 25.5t28.5 34t34 29t28.5 12.5zM1244 894q24 0 61 -37q14 -14 25 -31.5t11 -26.5t-17 -26.5t-33 -33.5q-25 -21 -33.5 -31.5t-19.5 -10.5q-9 0 -21 15t-26 29q-17 17 -34 30t-17 22q0 8 12 25.5t29 34
t34.5 29t28.5 12.5z" />
    <glyph glyph-name="uniFE97_uniFEF0.liga" unicode="&#xfe97;&#xfef0;" horiz-adv-x="1705" 
d="M1109 0q26 -13 43 -40.5t17 -57.5q0 -64 -41.5 -141.5t-127 -145t-215.5 -113.5t-308 -46q-110 0 -188.5 21t-131.5 54.5t-84.5 77.5t-47.5 88.5t-20.5 88t-4.5 75.5q0 34 5.5 68t16 65.5t22 59t24.5 44.5q18 27 67 29q22 0 22 -13q0 -9 -13 -44q-9 -26 -17.5 -64
t-8.5 -96t16 -111.5t61 -94t127 -65t215 -24.5q118 0 211 22.5t158.5 58t99.5 77.5t34 79q0 16 -4.5 31t-23 32t-57 34.5t-105.5 39.5q-33 11 -33 34q0 10 5 24t12 30q11 30 31 54t55 24h333q59 0 98 12t62 30.5t32 40.5t9 44q0 33 -19.5 86t-46.5 99q-7 12 -7 26
q0 25 36 93q29 56 52 56q25 0 53 -85q15 -43 28.5 -100t13.5 -131q0 -149 -90 -237.5t-258 -88.5h-107zM1554 1077q24 0 61 -37q14 -14 25.5 -31.5t11.5 -26.5q0 -10 -17.5 -27.5t-33.5 -32.5q-25 -22 -33.5 -32t-19.5 -10q-9 0 -21 15t-27 29q-17 16 -33.5 29t-16.5 22
q0 8 12 25.5t29 34t34.5 29.5t28.5 13zM1312 1077q24 0 61 -37q15 -14 25.5 -31.5t10.5 -26.5q0 -10 -17.5 -27.5t-31.5 -32.5q-26 -22 -34 -32t-19 -10q-10 0 -22 15t-27 29q-16 16 -32.5 29t-16.5 22q0 8 12 25.5t28.5 34t33.5 29.5t29 13z" />
    <glyph glyph-name="uniFE97_uniFEF2.liga" unicode="&#xfe97;&#xfef2;" horiz-adv-x="1705" 
d="M393 -662q11 0 27.5 -10.5t33.5 -26.5q14 -15 25.5 -32t11.5 -27q0 -9 -17.5 -26.5t-33.5 -32.5q-25 -22 -33.5 -32t-19.5 -10q-9 0 -21 14.5t-26 29.5q-18 16 -34 29t-16 22q0 7 11.5 25t28.5 34.5t34.5 29.5t28.5 13zM635 -662q11 0 27.5 -10.5t32.5 -26.5
q15 -15 26 -32t11 -27q0 -9 -17.5 -26.5t-31.5 -32.5q-26 -22 -34.5 -32t-19.5 -10q-9 0 -21 14.5t-27 29.5q-16 16 -33 29t-17 22q0 7 12 25t28.5 34.5t34 29.5t29.5 13zM1109 0q26 -13 43 -40.5t17 -57.5q0 -64 -41.5 -141.5t-127 -145t-215.5 -113.5t-308 -46
q-110 0 -188.5 21t-131.5 54.5t-84.5 77.5t-47.5 88.5t-20.5 88t-4.5 75.5q0 34 5.5 68t16 65.5t22 59t24.5 44.5q18 27 67 29q22 0 22 -13q0 -9 -13 -44q-9 -26 -17.5 -64t-8.5 -96t16 -111.5t61 -94t127 -65t215 -24.5q118 0 211 22.5t158.5 58t99.5 77.5t34 79
q0 16 -4.5 31t-23 32t-57 34.5t-105.5 39.5q-33 11 -33 34q0 10 5 24t12 30q11 30 31 54t55 24h333q59 0 98 12t62 30.5t32 40.5t9 44q0 33 -19.5 86t-46.5 99q-7 12 -7 26q0 25 36 93q29 56 52 56q25 0 53 -85q15 -43 28.5 -100t13.5 -131q0 -149 -90 -237.5t-258 -88.5
h-107zM1554 1077q24 0 61 -37q14 -14 25.5 -31.5t11.5 -26.5q0 -10 -17.5 -27.5t-33.5 -32.5q-25 -22 -33.5 -32t-19.5 -10q-9 0 -21 15t-27 29q-17 16 -33.5 29t-16.5 22q0 8 12 25.5t29 34t34.5 29.5t28.5 13zM1312 1077q24 0 61 -37q15 -14 25.5 -31.5t10.5 -26.5
q0 -10 -17.5 -27.5t-31.5 -32.5q-26 -22 -34 -32t-19 -10q-10 0 -22 15t-27 29q-16 16 -32.5 29t-16.5 22q0 8 12 25.5t28.5 34t33.5 29.5t29 13z" />
    <glyph glyph-name="uniFE9C_uniFEAE.liga" unicode="&#xfe9c;&#xfeae;" horiz-adv-x="1214" 
d="M631 0q-33 0 -63.5 17.5t-44.5 45.5q-5 -113 -38 -200.5t-83.5 -147.5t-113.5 -91.5t-126 -31.5q-44 0 -81 17.5t-63 43.5q-16 16 -16 28q0 15 15 16.5t52 7.5q88 5 152.5 42t108 89.5t64 114.5t20.5 119q0 24 -15 81t-59 139q-12 22 -12 36q0 19 10.5 37.5t26.5 48.5
q28 51 49 51t44 -67q44 -130 92 -185.5t118 -55.5h17q72 0 109.5 12t58 37t31.5 62.5t31 87.5q4 7 21.5 31.5t54.5 33.5q24 5 39 5t18.5 -3.5t3.5 -10.5q0 -8 -2.5 -14.5t-4.5 -10.5q-10 -18 -18 -45.5t-8 -55.5q0 -64 46.5 -96.5t166.5 -32.5q28 0 38.5 -17.5t10.5 -56.5
v-9q0 -42 -23 -57t-62 -15q-43 0 -81.5 5.5t-70.5 21t-53.5 42t-27.5 71.5q-20 -35 -43 -62t-57 -44.5t-86 -25.5t-129 -8h-17zM952 1118q24 0 61 -37q15 -15 26 -32.5t11 -26.5q0 -10 -17.5 -27.5t-32.5 -31.5q-25 -23 -33.5 -33t-19.5 -10q-9 0 -21.5 15t-26.5 30
q-17 17 -33.5 29.5t-16.5 21.5q0 8 12 25.5t28.5 34t34 29.5t28.5 13zM1070 894q24 0 61 -37q15 -14 26 -31.5t11 -26.5t-17.5 -26.5t-32.5 -33.5q-25 -21 -33.5 -31.5t-19.5 -10.5q-9 0 -21.5 15t-26.5 29q-17 17 -33.5 30t-16.5 22q0 8 12 25.5t28.5 34t34 29t28.5 12.5z
M829 894q24 0 61 -37q14 -14 25 -31.5t11 -26.5t-17 -26.5t-33 -33.5q-25 -21 -33.5 -31.5t-19.5 -10.5q-9 0 -21 15t-26 29q-17 17 -34 30t-17 22q0 8 12.5 25.5t29 34t34 29t28.5 12.5z" />
    <glyph glyph-name="uniFE9B_uniFEE4.liga" unicode="&#xfe9b;&#xfee4;" horiz-adv-x="1363" 
d="M438 431q-31 0 -54 -17.5t-39.5 -43t-28.5 -55.5t-20 -53q37 -56 99 -93t140 -37q42 0 64 22t22 45q0 28 -17.5 67.5t-44 76.5t-59 62.5t-62.5 25.5zM870 0q-15 0 -37 4.5t-45.5 18.5t-49 37t-45.5 62q-33 -81 -82 -108.5t-111 -27.5q-32 0 -67 9t-69.5 29t-66 52.5
t-56.5 78.5q-22 -50 -51.5 -80.5t-63.5 -47t-71 -22t-72 -5.5q-18 0 -33 16.5t-15 53.5v11q0 39 24 56.5t61 17.5q46 0 75.5 20t49 51t32.5 67t25 66q30 72 60.5 115.5t61 67t59.5 29.5t59 6q70 0 133.5 -58t116.5 -152q28 -55 51.5 -95t46.5 -65.5t50.5 -38.5t66.5 -13h4
q60 0 98.5 12t61.5 30.5t32 40.5t9 44q0 33 -19.5 86t-46.5 99q-7 12 -7 26q0 25 36 93q30 56 52 56q26 0 54 -85q15 -43 28.5 -100t13.5 -131q0 -149 -90 -237.5t-259 -88.5h-4zM1093 1300q24 0 61 -36q15 -16 25.5 -33t10.5 -27q0 -9 -17.5 -26.5l-31.5 -31.5
q-26 -23 -34 -33t-20 -10q-9 0 -21 14.5t-27 29.5q-16 17 -32.5 30t-16.5 22q0 7 12 24.5t28 34t33.5 29.5t29.5 13zM1211 1077q24 0 61 -37q15 -14 25.5 -31.5t10.5 -26.5q0 -10 -17.5 -27.5t-31.5 -32.5q-26 -22 -34 -32t-19 -10q-10 0 -22 15t-27 29q-16 16 -32.5 29
t-16.5 22q0 8 12 25.5t28.5 34t33.5 29.5t29 13zM969 1077q24 0 61 -37q15 -14 26 -31.5t11 -26.5q0 -10 -17.5 -27.5t-31.5 -32.5q-27 -22 -35 -32t-19 -10q-10 0 -22 15t-26 29q-16 16 -33 29t-17 22q0 8 12 25.5t28.5 34t34 29.5t28.5 13z" />
    <glyph glyph-name="uniFE9C_uniFEE6.liga" unicode="&#xfe9c;&#xfee6;" horiz-adv-x="1628" 
d="M458 894q24 0 60 -37q15 -14 26 -31.5t11 -26.5t-17 -26.5t-33 -33.5q-26 -21 -34 -31.5t-19 -10.5q-9 0 -21 15t-27 29q-17 17 -33.5 30t-16.5 22q0 8 12 25.5t29 34t34.5 29t28.5 12.5zM1051 0q-114 0 -175 55q-13 -101 -58 -178.5t-111.5 -130t-148.5 -79t-171 -26.5
q-183 0 -285 86.5t-102 248.5q0 33 5.5 67t16 65.5t22 59t24.5 45.5q9 14 26 20.5t48 7.5q15 0 15 -10q0 -11 -6.5 -28t-13 -39t-13 -51.5t-6.5 -68.5q0 -114 67.5 -179.5t214.5 -65.5q109 0 181 28.5t115 71t61 88.5t18 83q0 62 -14 113t-40 104q-9 21 -14 36t-5 29
q0 32 28 74q36 56 54 56q20 0 40 -63q21 -56 33 -95t21 -79q39 -60 97 -75t113 -15h12q72 0 109.5 12t58 37t31.5 62.5t31 87.5q4 7 21.5 31.5t54.5 33.5q24 5 39 5t18.5 -3.5t3.5 -10.5q0 -8 -2.5 -14.5t-4.5 -10.5q-10 -18 -18 -45.5t-8 -55.5q0 -64 46.5 -96.5
t166.5 -32.5q28 0 38.5 -17.5t10.5 -56.5v-9q0 -42 -23 -57t-62 -15q-43 0 -81.5 5.5t-70.5 21t-53.5 42t-27.5 71.5q-20 -35 -43 -62t-57 -44.5t-86 -25.5t-129 -8h-12zM1367 1118q24 0 61 -37q15 -15 26 -32.5t11 -26.5q0 -10 -17.5 -27.5t-32.5 -31.5q-25 -23 -33.5 -33
t-19.5 -10q-9 0 -21.5 15t-26.5 30q-17 17 -33.5 29.5t-16.5 21.5q0 8 12 25.5t28.5 34t34 29.5t28.5 13zM1485 894q24 0 61 -37q15 -14 26 -31.5t11 -26.5t-17.5 -26.5t-32.5 -33.5q-25 -21 -33.5 -31.5t-19.5 -10.5q-9 0 -21.5 15t-26.5 29q-17 17 -33.5 30t-16.5 22
q0 8 12 25.5t28.5 34t34 29t28.5 12.5zM1244 894q24 0 61 -37q14 -14 25 -31.5t11 -26.5t-17 -26.5t-33 -33.5q-25 -21 -33.5 -31.5t-19.5 -10.5q-9 0 -21 15t-26 29q-17 17 -34 30t-17 22q0 8 12 25.5t29 34t34.5 29t28.5 12.5z" />
    <glyph glyph-name="uniFE9B_uniFEF0.liga" unicode="&#xfe9b;&#xfef0;" horiz-adv-x="1696" 
d="M1109 0q26 -13 43 -40.5t17 -57.5q0 -64 -41.5 -141.5t-127 -145t-215.5 -113.5t-308 -46q-110 0 -188.5 21t-131.5 54.5t-84.5 77.5t-47.5 88.5t-20.5 88t-4.5 75.5q0 34 5.5 68t16 65.5t22 59t24.5 44.5q18 27 67 29q22 0 22 -13q0 -9 -13 -44q-9 -26 -17.5 -64
t-8.5 -96t16 -111.5t61 -94t127 -65t215 -24.5q118 0 211 22.5t158.5 58t99.5 77.5t34 79q0 16 -4.5 31t-23 32t-57 34.5t-105.5 39.5q-33 11 -33 34q0 10 5 24t12 30q11 30 31 54t55 24h324q59 0 98 12t62 30.5t32 40.5t9 44q0 33 -19.5 86t-46.5 99q-7 12 -7 26
q0 25 36 93q29 56 52 56q25 0 53 -85q15 -43 28.5 -100t13.5 -131q0 -149 -90 -237.5t-258 -88.5h-98zM1417 1300q23 0 60 -36q15 -16 26 -33t11 -27q0 -9 -17.5 -26.5t-32.5 -31.5q-26 -23 -34 -33t-20 -10q-9 0 -20.5 14.5t-26.5 29.5q-17 17 -33.5 30t-16.5 22
q0 7 12 24.5t28.5 34t34 29.5t29.5 13zM1535 1077q23 0 60 -37q15 -14 26 -31.5t11 -26.5q0 -10 -17.5 -27.5l-32.5 -32.5q-26 -22 -34 -32t-19 -10q-10 0 -21.5 15t-26.5 29q-17 16 -33.5 29t-16.5 22q0 8 12 25.5t29 34t34 29.5t29 13zM1292 1077q25 0 62 -37
q14 -14 25.5 -31.5t11.5 -26.5q0 -10 -18 -27.5t-32 -32.5q-26 -22 -34 -32t-20 -10q-9 0 -21 15t-27 29q-16 16 -32.5 29t-16.5 22q0 8 11.5 25.5t28 34t34.5 29.5t28 13z" />
    <glyph glyph-name="uniFE9B_uniFEF2.liga" unicode="&#xfe9b;&#xfef2;" horiz-adv-x="1696" 
d="M393 -662q11 0 27.5 -10.5t33.5 -26.5q14 -15 25.5 -32t11.5 -27q0 -9 -17.5 -26.5t-33.5 -32.5q-25 -22 -33.5 -32t-19.5 -10q-9 0 -21 14.5t-26 29.5q-18 16 -34 29t-16 22q0 7 11.5 25t28.5 34.5t34.5 29.5t28.5 13zM635 -662q11 0 27.5 -10.5t32.5 -26.5
q15 -15 26 -32t11 -27q0 -9 -17.5 -26.5t-31.5 -32.5q-26 -22 -34.5 -32t-19.5 -10q-9 0 -21 14.5t-27 29.5q-16 16 -33 29t-17 22q0 7 12 25t28.5 34.5t34 29.5t29.5 13zM1109 0q26 -13 43 -40.5t17 -57.5q0 -64 -41.5 -141.5t-127 -145t-215.5 -113.5t-308 -46
q-110 0 -188.5 21t-131.5 54.5t-84.5 77.5t-47.5 88.5t-20.5 88t-4.5 75.5q0 34 5.5 68t16 65.5t22 59t24.5 44.5q18 27 67 29q22 0 22 -13q0 -9 -13 -44q-9 -26 -17.5 -64t-8.5 -96t16 -111.5t61 -94t127 -65t215 -24.5q118 0 211 22.5t158.5 58t99.5 77.5t34 79
q0 16 -4.5 31t-23 32t-57 34.5t-105.5 39.5q-33 11 -33 34q0 10 5 24t12 30q11 30 31 54t55 24h324q59 0 98 12t62 30.5t32 40.5t9 44q0 33 -19.5 86t-46.5 99q-7 12 -7 26q0 25 36 93q29 56 52 56q25 0 53 -85q15 -43 28.5 -100t13.5 -131q0 -149 -90 -237.5t-258 -88.5
h-98zM1417 1300q23 0 60 -36q15 -16 26 -33t11 -27q0 -9 -17.5 -26.5t-32.5 -31.5q-26 -23 -34 -33t-20 -10q-9 0 -20.5 14.5t-26.5 29.5q-17 17 -33.5 30t-16.5 22q0 7 12 24.5t28.5 34t34 29.5t29.5 13zM1535 1077q23 0 60 -37q15 -14 26 -31.5t11 -26.5
q0 -10 -17.5 -27.5l-32.5 -32.5q-26 -22 -34 -32t-19 -10q-10 0 -21.5 15t-26.5 29q-17 16 -33.5 29t-16.5 22q0 8 12 25.5t29 34t34 29.5t29 13zM1292 1077q25 0 62 -37q14 -14 25.5 -31.5t11.5 -26.5q0 -10 -18 -27.5t-32 -32.5q-26 -22 -34 -32t-20 -10q-9 0 -21 15
t-27 29q-16 16 -32.5 29t-16.5 22q0 8 11.5 25.5t28 34t34.5 29.5t28 13z" />
    <glyph glyph-name="uniFEDB_uniFEF0.liga" unicode="&#xfedb;&#xfef0;" horiz-adv-x="2079" 
d="M1109 0q26 -13 43 -40.5t17 -57.5q0 -64 -41.5 -141.5t-127 -145t-215.5 -113.5t-308 -46q-110 0 -188.5 21t-131.5 54.5t-84.5 77.5t-47.5 88.5t-20.5 88t-4.5 75.5q0 34 5.5 68t16 65.5t22 59t24.5 44.5q18 27 67 29q22 0 22 -13q0 -9 -13 -44q-9 -26 -17.5 -64
t-8.5 -96t16 -111.5t61 -94t127 -65t215 -24.5q118 0 211 22.5t158.5 58t99.5 77.5t34 79q0 16 -4.5 31t-23 32t-57 34.5t-105.5 39.5q-33 11 -33 34q0 10 5 24t12 30q11 30 31 54t55 24h306q142 0 231.5 12t141 33.5t70 49.5t18.5 62q0 29 -12 64.5t-32 70.5t-46 68.5
t-54 65.5q-62 74 -142 146q-42 48 -80.5 81t-38.5 57q0 17 7 45t17.5 59t23 54.5t24.5 33.5q51 29 128.5 65t170.5 72t194.5 68.5t201.5 54.5q13 0 13 -15q0 -7 -2 -17.5t-4 -17.5q-7 -33 -19 -53.5t-46 -29.5q-99 -31 -195 -66t-176.5 -67.5t-141 -61t-90.5 -44.5
q50 -52 99.5 -102.5t94.5 -99t81.5 -92.5t60.5 -81q48 -76 66 -132t18 -109q0 -62 -22.5 -120.5t-88 -105t-184.5 -75t-309 -28.5h-95z" />
    <glyph glyph-name="uniFEDC_uniFEF0.liga" unicode="&#xfedc;&#xfef0;" horiz-adv-x="2056" 
d="M1109 0q26 -13 43 -40.5t17 -57.5q0 -64 -41.5 -141.5t-127 -145t-215.5 -113.5t-308 -46q-110 0 -188.5 21t-131.5 54.5t-84.5 77.5t-47.5 88.5t-20.5 88t-4.5 75.5q0 34 5.5 68t16 65.5t22 59t24.5 44.5q18 27 67 29q22 0 22 -13q0 -9 -13 -44q-9 -26 -17.5 -64
t-8.5 -96t16 -111.5t61 -94t127 -65t215 -24.5q118 0 211 22.5t158.5 58t99.5 77.5t34 79q0 16 -4.5 31t-23 32t-57 34.5t-105.5 39.5q-33 11 -33 34q0 10 5 24t12 30q11 30 31 54t55 24h315q96 0 160.5 11t103 31.5t55.5 49t17 65.5q0 26 -23 74.5t-57.5 106.5t-75 121
t-74.5 116.5t-57 93t-23 52.5t7 38.5t19.5 54.5t27 53t29.5 35q44 26 108 55.5t136.5 58t146 55.5t136.5 47t109 32t61 12q9 0 9 -18q0 -16 -7 -44q-6 -25 -16.5 -43.5t-44.5 -27.5q-100 -31 -196 -66t-176 -67.5t-140.5 -61t-90.5 -44.5q24 -51 66 -123q37 -60 94.5 -152.5
t141.5 -217.5q59 -89 108 -146t95 -91t92.5 -47t99.5 -13q28 0 38 -17.5t10 -56.5v-9q0 -42 -23 -57t-62 -15q-92 0 -179 47.5t-182 168.5q-17 -35 -41 -73t-74 -70t-136 -52q-87 -21 -228 -21h-90z" />
    <glyph glyph-name="uniFEDB_uniFEF2.liga" unicode="&#xfedb;&#xfef2;" horiz-adv-x="2079" 
d="M393 -662q11 0 27.5 -10.5t33.5 -26.5q14 -15 25.5 -32t11.5 -27q0 -9 -17.5 -26.5t-33.5 -32.5q-25 -22 -33.5 -32t-19.5 -10q-9 0 -21 14.5t-26 29.5q-18 16 -34 29t-16 22q0 7 11.5 25t28.5 34.5t34.5 29.5t28.5 13zM635 -662q11 0 27.5 -10.5t32.5 -26.5
q15 -15 26 -32t11 -27q0 -9 -17.5 -26.5t-31.5 -32.5q-26 -22 -34.5 -32t-19.5 -10q-9 0 -21 14.5t-27 29.5q-16 16 -33 29t-17 22q0 7 12 25t28.5 34.5t34 29.5t29.5 13zM1109 0q26 -13 43 -40.5t17 -57.5q0 -64 -41.5 -141.5t-127 -145t-215.5 -113.5t-308 -46
q-110 0 -188.5 21t-131.5 54.5t-84.5 77.5t-47.5 88.5t-20.5 88t-4.5 75.5q0 34 5.5 68t16 65.5t22 59t24.5 44.5q18 27 67 29q22 0 22 -13q0 -9 -13 -44q-9 -26 -17.5 -64t-8.5 -96t16 -111.5t61 -94t127 -65t215 -24.5q118 0 211 22.5t158.5 58t99.5 77.5t34 79
q0 16 -4.5 31t-23 32t-57 34.5t-105.5 39.5q-33 11 -33 34q0 10 5 24t12 30q11 30 31 54t55 24h306q142 0 231.5 12t141 33.5t70 49.5t18.5 62q0 29 -12 64.5t-32 70.5t-46 68.5t-54 65.5q-62 74 -142 146q-42 48 -80.5 81t-38.5 57q0 17 7 45t17.5 59t23 54.5t24.5 33.5
q51 29 128.5 65t170.5 72t194.5 68.5t201.5 54.5q13 0 13 -15q0 -7 -2 -17.5t-4 -17.5q-7 -33 -19 -53.5t-46 -29.5q-99 -31 -195 -66t-176.5 -67.5t-141 -61t-90.5 -44.5q50 -52 99.5 -102.5t94.5 -99t81.5 -92.5t60.5 -81q48 -76 66 -132t18 -109q0 -62 -22.5 -120.5
t-88 -105t-184.5 -75t-309 -28.5h-95z" />
    <glyph glyph-name="uniFEDC_uniFEF2.liga" unicode="&#xfedc;&#xfef2;" horiz-adv-x="2056" 
d="M393 -662q11 0 27.5 -10.5t33.5 -26.5q14 -15 25.5 -32t11.5 -27q0 -9 -17.5 -26.5t-33.5 -32.5q-25 -22 -33.5 -32t-19.5 -10q-9 0 -21 14.5t-26 29.5q-18 16 -34 29t-16 22q0 7 11.5 25t28.5 34.5t34.5 29.5t28.5 13zM635 -662q11 0 27.5 -10.5t32.5 -26.5
q15 -15 26 -32t11 -27q0 -9 -17.5 -26.5t-31.5 -32.5q-26 -22 -34.5 -32t-19.5 -10q-9 0 -21 14.5t-27 29.5q-16 16 -33 29t-17 22q0 7 12 25t28.5 34.5t34 29.5t29.5 13zM1109 0q26 -13 43 -40.5t17 -57.5q0 -64 -41.5 -141.5t-127 -145t-215.5 -113.5t-308 -46
q-110 0 -188.5 21t-131.5 54.5t-84.5 77.5t-47.5 88.5t-20.5 88t-4.5 75.5q0 34 5.5 68t16 65.5t22 59t24.5 44.5q18 27 67 29q22 0 22 -13q0 -9 -13 -44q-9 -26 -17.5 -64t-8.5 -96t16 -111.5t61 -94t127 -65t215 -24.5q118 0 211 22.5t158.5 58t99.5 77.5t34 79
q0 16 -4.5 31t-23 32t-57 34.5t-105.5 39.5q-33 11 -33 34q0 10 5 24t12 30q11 30 31 54t55 24h315q96 0 160.5 11t103 31.5t55.5 49t17 65.5q0 26 -23 74.5t-57.5 106.5t-75 121t-74.5 116.5t-57 93t-23 52.5t7 38.5t19.5 54.5t27 53t29.5 35q44 26 108 55.5t136.5 58
t146 55.5t136.5 47t109 32t61 12q9 0 9 -18q0 -16 -7 -44q-6 -25 -16.5 -43.5t-44.5 -27.5q-100 -31 -196 -66t-176 -67.5t-140.5 -61t-90.5 -44.5q24 -51 66 -123q37 -60 94.5 -152.5t141.5 -217.5q59 -89 108 -146t95 -91t92.5 -47t99.5 -13q28 0 38 -17.5t10 -56.5v-9
q0 -42 -23 -57t-62 -15q-92 0 -179 47.5t-182 168.5q-17 -35 -41 -73t-74 -70t-136 -52q-87 -21 -228 -21h-90z" />
    <glyph glyph-name="uniFEDF_uniFB51.rlig" unicode="&#xfedf;&#xfb51;" horiz-adv-x="977" 
d="M748 1332q12 0 25 -48t23 -120t16.5 -155t6.5 -155q0 -111 -22 -217.5t-56 -175.5q49 -65 72 -124t23 -94q0 -81 -37 -129.5t-94 -74t-128.5 -32.5t-139.5 -7q-106 0 -154.5 15t-48.5 71q0 46 11.5 55.5t49.5 9.5q27 0 68 21.5t85.5 59t86.5 89.5t72 110
q-40 51 -84.5 101.5t-101.5 109.5t-131 132t-170 164q-70 67 -94 98.5t-24 59.5q0 14 6 32t15 33.5t18 25.5t17 10q3 0 42 -36t96 -92.5t126 -127t134.5 -141.5t121 -134.5t84.5 -106.5q19 48 34 123t15 138q0 45 -5 82.5t-12.5 77.5t-17.5 88t-21 113q-2 7 -3 13.5t-1 15.5
q0 36 23 64t43.5 43t30.5 15zM502 150q9 -2 37.5 -3t48.5 -1q47 0 76.5 8t44 20t20 26t5.5 25q0 24 -14 52.5t-44 65.5q-32 -48 -76 -100.5t-98 -92.5zM96 1356q9 -3 29.5 -5t29.5 -2q63 0 86 12t23 29q0 15 -15 27.5t-40 12.5q-24 0 -55 -18.5t-58 -55.5zM60 1370
q54 77 102.5 99t69.5 22q36 0 55 -20t19 -50q0 -49 -41.5 -89t-131.5 -40q-47 0 -90 18.5t-66 18.5q-12 0 -30.5 -7.5t-27.5 -16.5l-9 5q13 28 27 44t25 23t21 8t17 1q14 0 26.5 -4.5t33.5 -11.5z" />
    <glyph glyph-name="uniFEE0_uniFB51.rlig" unicode="&#xfee0;&#xfb51;" horiz-adv-x="1203" 
d="M877 1171q-1 21 -2 38.5t-1 31.5q0 37 11 56.5t44 30.5q22 8 38 8q27 0 27.5 -18.5t4.5 -43.5q0 -204 2.5 -397.5t2.5 -406.5q0 -76 9.5 -135t33.5 -99.5t66.5 -60.5t108.5 -20q28 0 38 -17.5t10 -56.5v-9q0 -42 -23 -57t-62 -15q-75 0 -129.5 24t-89.5 66t-53.5 99.5
t-20.5 122.5q-78 -117 -158 -183t-154 -99.5t-138 -42t-110 -8.5q-43 0 -96.5 8.5t-93.5 25.5q-30 11 -30 48q0 7 1 14.5t2 16.5q6 28 18 36.5t38 8.5q9 0 20.5 -2.5t28.5 -5t43 -4.5t65 -2q150 0 255.5 54t177.5 140q-18 41 -63.5 104.5t-110 137t-145.5 151t-172 146.5
q-53 40 -85.5 66t-32.5 67q0 21 12 53q9 21 14.5 36t18.5 15q8 0 24 -10q26 -18 73.5 -61t106 -99t121 -122.5t122 -135.5t108 -137.5t76.5 -125.5q14 20 31.5 47t32.5 58v122q0 179 -2 276.5t-4.5 147.5t-4.5 71.5t-4 46.5zM215 1339q9 -3 29.5 -5t29.5 -2q63 0 86 12
t23 29q0 15 -15 27.5t-40 12.5q-24 0 -55 -18.5t-58 -55.5zM179 1353q54 77 102.5 99t69.5 22q36 0 55 -20t19 -50q0 -49 -41.5 -89t-131.5 -40q-47 0 -90 18.5t-66 18.5q-12 0 -30.5 -7.5t-27.5 -16.5l-9 5q13 28 27 44t25 23t21 8t17 1q14 0 26.5 -4.5t33.5 -11.5z" />
    <glyph glyph-name="uniFEDF_uniFEE2.liga" unicode="&#xfedf;&#xfee2;" horiz-adv-x="1395" 
d="M437 431q-31 0 -54.5 -17.5t-40 -43t-28 -55.5t-19.5 -53q37 -56 99 -93t139 -37q87 0 87 67q0 33 -18 73.5t-44.5 76t-58.5 59t-62 23.5zM887 0q-14 0 -39.5 4.5t-53 18.5t-55 37t-47.5 62q-34 -81 -80.5 -108.5t-100.5 -27.5q-72 0 -146.5 38.5t-124.5 130.5
q-37 -23 -57.5 -46.5t-31.5 -47.5t-13.5 -45t-2.5 -40q0 -55 14.5 -131.5t33 -168t33.5 -193t15 -208.5q-4 -83 -11 -133t-21 -62q-13 -13 -35 -20.5t-37 -7.5q-13 0 -13 13t4 39.5t4 78.5q0 115 -19.5 228t-41.5 215.5t-41.5 187t-19.5 140.5q0 46 4.5 86.5t24 82t59 89.5
t107.5 110q25 78 56 128t63.5 77.5t65 38.5t60.5 11q71 0 135 -54.5t115 -155.5q57 -110 107 -161t127 -51h5q75 0 118.5 11t66 29.5t27.5 44.5t5 55q0 17 -3.5 82.5t-10 155.5t-14 193.5t-14.5 195.5t-12 160.5t-7 88.5q-2 21 -2.5 38.5t-0.5 31.5q0 37 21 56.5t54 30.5
q23 8 39 8q26 0 27 -18.5t5 -43.5q5 -237 9.5 -401.5t7.5 -271.5t5 -165t3 -86t1 -33v-7q0 -87 -25.5 -146.5t-71.5 -95.5t-113.5 -52t-151.5 -16h-5z" />
    <glyph glyph-name="uniFEE4_uniFE8E.liga" unicode="&#xfee4;&#xfe8e;" horiz-adv-x="1373" 
d="M924 431q-32 0 -55 -17.5t-39.5 -43t-28 -55.5t-19.5 -53q36 -56 98.5 -93t139.5 -37q43 0 65 22t22 45q0 28 -17.5 67.5t-44.5 76.5t-59 62.5t-62 25.5zM455 0q-80 0 -135 26.5t-90.5 72t-52 106.5t-16.5 131v293q0 179 -2 276.5t-4.5 147.5t-4.5 71.5t-3 46.5
q-2 21 -3 38.5t-1 31.5q0 37 11.5 56.5t43.5 30.5q22 8 39 8q26 0 27 -18.5t4 -43.5q0 -204 3 -397.5t3 -406.5q0 -76 9.5 -135t33 -99.5t66 -60.5t109.5 -20h13q46 0 75.5 20t49 51t32.5 67t26 66q30 72 60 115.5t60.5 67t60 29.5t58.5 6q71 0 134.5 -58t115.5 -152
q29 -55 52.5 -95t46 -65.5t50 -38.5t66.5 -13q28 0 38.5 -17.5t10.5 -56.5v-9q0 -42 -23.5 -57t-62.5 -15q-14 0 -36 4.5t-46 18.5t-49 37t-45 62q-34 -81 -83 -108.5t-111 -27.5q-31 0 -66.5 9t-69.5 29t-66 52.5t-56 78.5q-23 -50 -52 -80.5t-63.5 -47t-71.5 -22t-72 -5.5
h-13z" />
    <glyph glyph-name="uniFEE4_uniFE82.liga" unicode="&#xfee4;&#xfe82;" horiz-adv-x="1400" 
d="M-64 1464q-5 0 -5 8q0 13 16 38.5t40.5 49.5t56 42.5t63.5 18.5q23 0 50 -8t58 -17.5t67 -17.5t80 -8q41 0 70.5 6t49 13t32.5 13t20 6q8 0 9.5 -3.5t1.5 -6.5q0 -17 -15.5 -40t-44 -44.5t-68 -37t-88.5 -15.5q-37 0 -69 6t-62.5 15t-60 16t-62.5 7q-35 0 -59 -6.5
t-39.5 -14t-25 -14t-15.5 -6.5zM951 431q-31 0 -54 -17.5t-39.5 -43t-28.5 -55.5t-20 -53q37 -56 99 -93t140 -37q42 0 64 22t22 45q0 28 -17.5 67.5t-44 76.5t-59 62.5t-62.5 25.5zM482 0q-79 0 -134.5 26.5t-90 72t-51.5 106.5t-17 131v293q0 179 -1.5 276.5t-4.5 147.5
t-5 71.5t-4 46.5q-2 21 -2.5 38.5t-0.5 31.5q0 37 11 56.5t44 30.5q22 8 39 8q25 0 26 -18.5t6 -43.5q0 -204 2.5 -397.5t2.5 -406.5q0 -76 9 -135t33 -99.5t66.5 -60.5t108.5 -20h14q46 0 75.5 20t49 51t32.5 67t25 66q30 72 60 115.5t61 67t60 29.5t59 6q70 0 133.5 -58
t115.5 -152q29 -55 52.5 -95t46.5 -65.5t50.5 -38.5t66.5 -13q28 0 38 -17.5t10 -56.5v-9q0 -42 -23 -57t-62 -15q-15 0 -37 4.5t-45.5 18.5t-49 37t-45.5 62q-33 -81 -82 -108.5t-111 -27.5q-32 0 -67 9t-69.5 29t-66.5 52.5t-56 78.5q-22 -50 -51.5 -80.5t-63.5 -47
t-71 -22t-72 -5.5h-14z" />
    <glyph glyph-name="uniFEE4_uniFE84.liga" unicode="&#xfee4;&#xfe84;" horiz-adv-x="1382" 
d="M415 1590q0 -31 -19.5 -42.5t-72.5 -31.5q-111 -39 -173 -74.5t-71 -35.5q-7 0 -7 16q0 14 6.5 37t19.5 32q16 14 28.5 18.5t35.5 17.5q-23 11 -41.5 34t-18.5 62t17.5 73t46 60.5t65 42.5t75.5 16q65 0 65 -48q0 -14 -6 -30t-13 -16q-9 0 -24.5 8t-51.5 8
q-30 0 -64.5 -23t-34.5 -65q0 -31 27 -48t63 -17q43 0 70 13t57 28q2 2 9 2q9 0 10.5 -12t1.5 -25zM932 431q-31 0 -54 -17.5t-40 -43t-28.5 -55.5t-19.5 -53q37 -56 99 -93t139 -37q43 0 65 22t22 45q0 28 -17.5 67.5t-44 76.5t-59 62.5t-62.5 25.5zM469 1q-7 -1 -15 -1
q-79 0 -134.5 26.5t-90.5 72t-52 106.5t-17 131v293q0 179 -1.5 276.5t-4.5 147.5t-4.5 71.5t-3.5 46.5q-2 21 -3 38.5t-1 31.5q0 37 11 56.5t44 30.5q23 8 39 8q26 0 27 -18.5t4 -43.5q0 -204 3 -397.5t3 -406.5q0 -76 9.5 -135t33 -99.5t66 -60.5t109.5 -20q5 0 10 -1
q6 1 12 1q46 0 76 20t49 51t32.5 67t25.5 66q30 72 60 115.5t60.5 67t60 29.5t59.5 6q70 0 133.5 -58t115.5 -152q29 -55 52.5 -95t46.5 -65.5t50.5 -38.5t65.5 -13q28 0 38.5 -17.5t10.5 -56.5v-9q0 -42 -23.5 -57t-62.5 -15q-14 0 -36 4.5t-46 18.5t-49 37t-45 62
q-33 -81 -82.5 -108.5t-111.5 -27.5q-31 0 -66 9t-69.5 29t-66.5 52.5t-56 78.5q-23 -50 -52 -80.5t-63.5 -47t-71 -22t-72.5 -5.5q-3 0 -7 1z" />
    <glyph glyph-name="uniFEE4_uniFE88.liga" unicode="&#xfee4;&#xfe88;" horiz-adv-x="1373" 
d="M438 -404q0 -31 -19.5 -42.5t-72.5 -30.5q-111 -39 -173 -75t-71 -36q-7 0 -7 16q0 15 6.5 37.5t19.5 31.5q16 14 28.5 19t35.5 17q-23 11 -41.5 34t-18.5 62t17.5 73t46 61t65 42.5t75.5 15.5q65 0 65 -48q0 -14 -6 -30t-13 -16q-9 0 -24.5 8t-51.5 8q-30 0 -64.5 -23
t-34.5 -65q0 -31 27 -48t63 -17q43 0 70 13t57 28q2 2 9 2q9 0 10.5 -12t1.5 -25zM924 431q-32 0 -55 -17.5t-39.5 -43t-28.5 -55.5t-20 -53q37 -56 99 -93t140 -37q42 0 64 22t22 45q0 28 -17.5 67.5t-44 76.5t-59 62.5t-61.5 25.5zM454 0q-79 0 -134.5 26.5t-90 72
t-51 106.5t-16.5 131v293q0 179 -2 276.5t-5 147.5t-5 71.5t-4 46.5q-1 21 -2 38.5t-1 31.5q0 37 11 56.5t45 30.5q21 8 38 8q26 0 26.5 -18.5t5.5 -43.5q0 -204 2.5 -397.5t2.5 -406.5q0 -76 9 -135t33 -99.5t67 -60.5t108 -20h14q46 0 75.5 20t49 51t32.5 67t26 66
q29 72 59.5 115.5t61 67t59.5 29.5t59 6q70 0 133.5 -58t116.5 -152q28 -55 51.5 -95t46.5 -65.5t50.5 -38.5t66.5 -13q28 0 38.5 -17.5t10.5 -56.5v-9q0 -42 -23.5 -57t-62.5 -15q-14 0 -36.5 4.5t-46 18.5t-49 37t-45.5 62q-33 -81 -82 -108.5t-111 -27.5q-32 0 -67 9
t-69 29t-66 52.5t-57 78.5q-22 -50 -51.5 -80.5t-63.5 -47t-71 -22t-72 -5.5h-14z" />
    <glyph glyph-name="uniFEE8_uniFEAE.liga" unicode="&#xfee8;&#xfeae;" horiz-adv-x="1205" 
d="M631 0q-33 0 -63.5 17.5t-44.5 45.5q-5 -113 -38 -200.5t-83.5 -147.5t-113.5 -91.5t-126 -31.5q-44 0 -81 17.5t-63 43.5q-16 16 -16 28q0 15 15 16.5t52 7.5q88 5 152.5 42t108 89.5t64 114.5t20.5 119q0 24 -15 81t-59 139q-12 22 -12 36q0 19 10.5 37.5t26.5 48.5
q28 51 49 51t44 -67q44 -130 92 -185.5t118 -55.5h8q72 0 109.5 12t58 37t31.5 62.5t31 87.5q4 7 21.5 31.5t54.5 33.5q24 5 39 5t18.5 -3.5t3.5 -10.5q0 -8 -2.5 -14.5t-4.5 -10.5q-10 -18 -18 -45.5t-8 -55.5q0 -64 46.5 -96.5t166.5 -32.5q28 0 38.5 -17.5t10.5 -56.5v-9
q0 -42 -23 -57t-62 -15q-43 0 -81.5 5.5t-70.5 21t-53.5 42t-27.5 71.5q-20 -35 -43 -62t-57 -44.5t-86 -25.5t-129 -8h-8zM967 894q24 0 61 -37q15 -14 26 -31.5t11 -26.5t-17.5 -26.5t-32.5 -33.5q-26 -21 -34 -31.5t-19 -10.5q-10 0 -21.5 15t-27.5 29q-16 17 -32.5 30
t-16.5 22q0 8 12 25.5t29 34t34.5 29t27.5 12.5z" />
    <glyph glyph-name="uniFEE7_uniFEE4.liga" unicode="&#xfee7;&#xfee4;" horiz-adv-x="1363" 
d="M438 431q-31 0 -54 -17.5t-39.5 -43t-28.5 -55.5t-20 -53q37 -56 99 -93t140 -37q42 0 64 22t22 45q0 28 -17.5 67.5t-44 76.5t-59 62.5t-62.5 25.5zM870 0q-15 0 -37 4.5t-45.5 18.5t-49 37t-45.5 62q-33 -81 -82 -108.5t-111 -27.5q-32 0 -67 9t-69.5 29t-66 52.5
t-56.5 78.5q-22 -50 -51.5 -80.5t-63.5 -47t-71 -22t-72 -5.5q-18 0 -33 16.5t-15 53.5v11q0 39 24 56.5t61 17.5q46 0 75.5 20t49 51t32.5 67t25 66q30 72 60.5 115.5t61 67t59.5 29.5t59 6q70 0 133.5 -58t116.5 -152q28 -55 51.5 -95t46.5 -65.5t50.5 -38.5t66.5 -13h4
q60 0 98.5 12t61.5 30.5t32 40.5t9 44q0 33 -19.5 86t-46.5 99q-7 12 -7 26q0 25 36 93q30 56 52 56q26 0 54 -85q15 -43 28.5 -100t13.5 -131q0 -149 -90 -237.5t-259 -88.5h-4zM1066 1077q24 0 61 -37q15 -14 26 -31.5t11 -26.5q0 -10 -17.5 -27.5l-32.5 -32.5
q-25 -22 -33.5 -32t-19.5 -10q-9 0 -21.5 15t-26.5 29q-17 16 -33 29t-16 22q0 8 11.5 25.5t28 34t34 29.5t28.5 13z" />
    <glyph glyph-name="uniFEE7_uniFEF0.liga" unicode="&#xfee7;&#xfef0;" horiz-adv-x="1696" 
d="M1109 0q26 -13 43 -40.5t17 -57.5q0 -64 -41.5 -141.5t-127 -145t-215.5 -113.5t-308 -46q-110 0 -188.5 21t-131.5 54.5t-84.5 77.5t-47.5 88.5t-20.5 88t-4.5 75.5q0 34 5.5 68t16 65.5t22 59t24.5 44.5q18 27 67 29q22 0 22 -13q0 -9 -13 -44q-9 -26 -17.5 -64
t-8.5 -96t16 -111.5t61 -94t127 -65t215 -24.5q118 0 211 22.5t158.5 58t99.5 77.5t34 79q0 16 -4.5 31t-23 32t-57 34.5t-105.5 39.5q-33 11 -33 34q0 10 5 24t12 30q11 30 31 54t55 24h324q59 0 98 12t62 30.5t32 40.5t9 44q0 33 -19.5 86t-46.5 99q-7 12 -7 26
q0 25 36 93q29 56 52 56q25 0 53 -85q15 -43 28.5 -100t13.5 -131q0 -149 -90 -237.5t-258 -88.5h-98zM1399 1077q24 0 61 -37q14 -14 25.5 -31.5t11.5 -26.5q0 -10 -17.5 -27.5t-33.5 -32.5q-25 -22 -33.5 -32t-19.5 -10q-9 0 -21 15t-26 29q-18 16 -34 29t-16 22
q0 8 11.5 25.5t28.5 34t34.5 29.5t28.5 13z" />
    <glyph glyph-name="uniFEE7_uniFEF2.liga" unicode="&#xfee7;&#xfef2;" horiz-adv-x="1696" 
d="M393 -662q11 0 27.5 -10.5t33.5 -26.5q14 -15 25.5 -32t11.5 -27q0 -9 -17.5 -26.5t-33.5 -32.5q-25 -22 -33.5 -32t-19.5 -10q-9 0 -21 14.5t-26 29.5q-18 16 -34 29t-16 22q0 7 11.5 25t28.5 34.5t34.5 29.5t28.5 13zM635 -662q11 0 27.5 -10.5t32.5 -26.5
q15 -15 26 -32t11 -27q0 -9 -17.5 -26.5t-31.5 -32.5q-26 -22 -34.5 -32t-19.5 -10q-9 0 -21 14.5t-27 29.5q-16 16 -33 29t-17 22q0 7 12 25t28.5 34.5t34 29.5t29.5 13zM1109 0q26 -13 43 -40.5t17 -57.5q0 -64 -41.5 -141.5t-127 -145t-215.5 -113.5t-308 -46
q-110 0 -188.5 21t-131.5 54.5t-84.5 77.5t-47.5 88.5t-20.5 88t-4.5 75.5q0 34 5.5 68t16 65.5t22 59t24.5 44.5q18 27 67 29q22 0 22 -13q0 -9 -13 -44q-9 -26 -17.5 -64t-8.5 -96t16 -111.5t61 -94t127 -65t215 -24.5q118 0 211 22.5t158.5 58t99.5 77.5t34 79
q0 16 -4.5 31t-23 32t-57 34.5t-105.5 39.5q-33 11 -33 34q0 10 5 24t12 30q11 30 31 54t55 24h324q59 0 98 12t62 30.5t32 40.5t9 44q0 33 -19.5 86t-46.5 99q-7 12 -7 26q0 25 36 93q29 56 52 56q25 0 53 -85q15 -43 28.5 -100t13.5 -131q0 -149 -90 -237.5t-258 -88.5
h-98zM1399 1077q24 0 61 -37q14 -14 25.5 -31.5t11.5 -26.5q0 -10 -17.5 -27.5t-33.5 -32.5q-25 -22 -33.5 -32t-19.5 -10q-9 0 -21 15t-26 29q-18 16 -34 29t-16 22q0 8 11.5 25.5t28.5 34t34.5 29.5t28.5 13z" />
    <glyph glyph-name="uniFEF4_uniFEAE.liga" unicode="&#xfef4;&#xfeae;" horiz-adv-x="1205" 
d="M631 0q-33 0 -63.5 17.5t-44.5 45.5q-5 -113 -38 -200.5t-83.5 -147.5t-113.5 -91.5t-126 -31.5q-44 0 -81 17.5t-63 43.5q-16 16 -16 28q0 15 15 16.5t52 7.5q88 5 152.5 42t108 89.5t64 114.5t20.5 119q0 24 -15 81t-59 139q-12 22 -12 36q0 19 10.5 37.5t26.5 48.5
q28 51 49 51t44 -67q44 -130 92 -185.5t118 -55.5h8q72 0 109.5 12t58 37t31.5 62.5t31 87.5q4 7 21.5 31.5t54.5 33.5q24 5 39 5t18.5 -3.5t3.5 -10.5q0 -8 -2.5 -14.5t-4.5 -10.5q-10 -18 -18 -45.5t-8 -55.5q0 -64 46.5 -96.5t166.5 -32.5q28 0 38.5 -17.5t10.5 -56.5v-9
q0 -42 -23 -57t-62 -15q-43 0 -81.5 5.5t-70.5 21t-53.5 42t-27.5 71.5q-20 -35 -43 -62t-57 -44.5t-86 -25.5t-129 -8h-8zM1049 -203q10 0 27 -10t33 -27q15 -15 26 -32.5t11 -26.5t-17 -26.5t-33 -32.5q-26 -22 -34 -32t-19 -10q-9 0 -21 14.5t-27 29.5q-17 16 -33.5 29.5
t-16.5 22.5q0 7 12 24.5t29 34t34.5 29.5t28.5 13zM807 -203q11 0 27.5 -10t32.5 -27q16 -15 26.5 -32.5t10.5 -26.5t-17.5 -26.5t-31.5 -32.5q-26 -22 -34 -32t-20 -10q-9 0 -21 14.5t-27 29.5q-16 16 -32.5 29.5t-16.5 22.5q0 7 12 24.5t28 34t33.5 29.5t29.5 13z" />
    <glyph glyph-name="uniFEF3_uniFEE4.liga" unicode="&#xfef3;&#xfee4;" horiz-adv-x="1363" 
d="M438 431q-31 0 -54 -17.5t-39.5 -43t-28.5 -55.5t-20 -53q37 -56 99 -93t140 -37q42 0 64 22t22 45q0 28 -17.5 67.5t-44 76.5t-59 62.5t-62.5 25.5zM870 0q-15 0 -37 4.5t-45.5 18.5t-49 37t-45.5 62q-33 -81 -82 -108.5t-111 -27.5q-32 0 -67 9t-69.5 29t-66 52.5
t-56.5 78.5q-22 -50 -51.5 -80.5t-63.5 -47t-71 -22t-72 -5.5q-18 0 -33 16.5t-15 53.5v11q0 39 24 56.5t61 17.5q46 0 75.5 20t49 51t32.5 67t25 66q30 72 60.5 115.5t61 67t59.5 29.5t59 6q70 0 133.5 -58t116.5 -152q28 -55 51.5 -95t46.5 -65.5t50.5 -38.5t66.5 -13h4
q60 0 98.5 12t61.5 30.5t32 40.5t9 44q0 33 -19.5 86t-46.5 99q-7 12 -7 26q0 25 36 93q30 56 52 56q26 0 54 -85q15 -43 28.5 -100t13.5 -131q0 -149 -90 -237.5t-259 -88.5h-4zM1196 -203q11 0 27.5 -10t32.5 -27q16 -15 26.5 -32.5t10.5 -26.5t-17.5 -26.5t-31.5 -32.5
q-27 -22 -35 -32t-19 -10q-9 0 -21 14.5t-27 29.5q-16 16 -33 29.5t-17 22.5q0 7 12.5 24.5t28.5 34t33.5 29.5t29.5 13zM954 -203q11 0 27.5 -10t33.5 -27q14 -15 25.5 -32.5t11.5 -26.5t-17.5 -26.5l-32.5 -32.5q-26 -22 -34.5 -32t-19.5 -10q-9 0 -21 14.5t-27 29.5
q-17 16 -33 29.5t-16 22.5q0 7 11.5 24.5t28.5 34t34.5 29.5t28.5 13z" />
    <glyph glyph-name="uniFEF4_uniFEE6.liga" unicode="&#xfef4;&#xfee6;" horiz-adv-x="1619" 
d="M458 894q24 0 60 -37q15 -14 26 -31.5t11 -26.5t-17 -26.5t-33 -33.5q-26 -21 -34 -31.5t-19 -10.5q-9 0 -21 15t-27 29q-17 17 -33.5 30t-16.5 22q0 8 12 25.5t29 34t34.5 29t28.5 12.5zM1051 0q-114 0 -175 55q-13 -101 -58 -178.5t-111.5 -130t-148.5 -79t-171 -26.5
q-183 0 -285 86.5t-102 248.5q0 33 5.5 67t16 65.5t22 59t24.5 45.5q9 14 26 20.5t48 7.5q15 0 15 -10q0 -11 -6.5 -28t-13 -39t-13 -51.5t-6.5 -68.5q0 -114 67.5 -179.5t214.5 -65.5q109 0 181 28.5t115 71t61 88.5t18 83q0 62 -14 113t-40 104q-9 21 -14 36t-5 29
q0 32 28 74q36 56 54 56q20 0 40 -63q21 -56 33 -95t21 -79q39 -60 97 -75t113 -15h3q72 0 109.5 12t58 37t31.5 62.5t31 87.5q4 7 21.5 31.5t54.5 33.5q24 5 39 5t18.5 -3.5t3.5 -10.5q0 -8 -2.5 -14.5t-4.5 -10.5q-10 -18 -18 -45.5t-8 -55.5q0 -64 46.5 -96.5
t166.5 -32.5q28 0 38.5 -17.5t10.5 -56.5v-9q0 -42 -23 -57t-62 -15q-43 0 -81.5 5.5t-70.5 21t-53.5 42t-27.5 71.5q-20 -35 -43 -62t-57 -44.5t-86 -25.5t-129 -8h-3zM1464 -203q10 0 27 -10t33 -27q15 -15 26 -32.5t11 -26.5t-17 -26.5t-33 -32.5q-26 -22 -34 -32
t-19 -10q-9 0 -21 14.5t-27 29.5q-17 16 -33.5 29.5t-16.5 22.5q0 7 12 24.5t29 34t34.5 29.5t28.5 13zM1222 -203q11 0 27.5 -10t32.5 -27q16 -15 26.5 -32.5t10.5 -26.5t-17.5 -26.5t-31.5 -32.5q-26 -22 -34 -32t-20 -10q-9 0 -21 14.5t-27 29.5q-16 16 -32.5 29.5
t-16.5 22.5q0 7 12 24.5t28 34t33.5 29.5t29.5 13z" />
    <glyph glyph-name="T_h.liga" unicode="Th" horiz-adv-x="1909" 
d="M1023 1112h-31q-54 2 -93 4t-76 3.5t-77.5 2.5t-95.5 1q-15 0 -22 -10t-7 -20q-2 -30 -3 -64.5t-1 -79.5v-401q0 -124 2.5 -212.5t5.5 -148.5t5.5 -94t2.5 -49q0 -26 -19 -35t-62 -9h-40q-44 0 -62.5 9t-18.5 35q0 15 2.5 49t5 94t5.5 148.5t3 212.5v158q0 148 -1 236.5
t-3 150.5q0 10 -7 20t-22 10q-110 0 -182 -2.5t-144 -8.5q-28 0 -34.5 9t-6.5 30q0 16 1 35.5t3 34.5q3 22 13.5 28t24.5 6q78 -7 201 -8.5t260 -1.5q157 0 265 3t179 7h22q-2 18 -2 28q0 26 19.5 35.5t61.5 9.5h26q45 0 62.5 -9.5t17.5 -35.5q0 -14 -3 -45.5t-5.5 -88.5
t-5 -143.5t-2.5 -210.5v-13q0 -6 7 -6t16 6q39 28 100.5 51t129.5 23q181 0 261.5 -87.5t80.5 -247.5q0 -14 -1 -51t-1 -85q0 -47 -2 -102.5t-2 -104.5t-0.5 -88t-0.5 -53q0 -21 -17 -29t-59 -8h-35q-34 0 -47.5 6.5t-13.5 21.5q0 7 0.5 19t2.5 27q10 111 15.5 207.5
t5.5 190.5q0 52 -10.5 98t-36 82t-68 57t-108.5 21q-37 0 -75 -9t-68 -22t-50.5 -29.5t-23.5 -29.5q-3 -19 -3 -66v-161q0 -52 1.5 -111t4 -111t4 -92t1.5 -55q0 -26 -18 -35t-61 -9h-15q-44 0 -62.5 9t-18.5 35q0 15 1.5 55t4.5 92t4.5 111t1.5 111v363q0 124 -2 214
q-3 77 -5 122z" />
    <glyph glyph-name="f_b.liga" unicode="fb" horiz-adv-x="1593" 
d="M852 197q0 -21 5 -33.5t12 -17.5q35 -23 82 -33.5t101 -10.5q145 0 211.5 86.5t66.5 235.5q0 61 -12 116.5t-42 98t-83 67t-132 24.5q-61 0 -116.5 -22t-80.5 -50q-12 -10 -12 -33v-428zM690 1123q-11 21 -38 34q-28 14 -71 14q-76 0 -123.5 -34t-74 -85.5t-37 -109.5
t-10.5 -104q0 -16 8 -20.5t18 -4.5h206q21 0 21 -23q0 -37 -6.5 -59.5t-19.5 -22.5h-201q-10 0 -18 -4.5t-8 -17.5v-138q0 -124 2.5 -212.5t6.5 -148.5t6.5 -94t2.5 -49q0 -26 -19.5 -35t-59.5 -9h-25q-45 0 -63.5 9t-18.5 35q0 15 3 49t5.5 94t5.5 148.5t3 212.5v138
q0 13 -8.5 17.5t-17.5 4.5h-110q-21 0 -21 35q0 44 6.5 57t25.5 13h99q15 0 20.5 9.5t5.5 22.5q0 93 23.5 174t73 140.5t124 92.5t173.5 33q26 0 43.5 -1.5t37.5 -5.5q8 -2 21 -8v13q0 26 19.5 35.5t61.5 9.5h26q44 0 61.5 -9.5t17.5 -35.5q0 -14 -2.5 -42.5t-5 -83
t-5 -138.5t-2.5 -208v-12q0 -7 7 -10q2 -2 4 -2q5 0 10 5q92 64 221 64q89 0 163.5 -25t127 -77.5t82 -132t29.5 -186.5q0 -103 -25 -187t-77.5 -144t-131.5 -93.5t-190 -33.5q-67 0 -129.5 14t-110.5 35q-11 6 -19 6l-97 -32q-13 0 -22 2.5t-9 13.5q0 10 1.5 50.5t4.5 103
t4.5 141t1.5 163.5v302q0 124 -3 214q-2 77 -4 133z" />
    <glyph glyph-name="f_f_b.liga" unicode="ffb" horiz-adv-x="2106" 
d="M1365 197q0 -21 5 -33.5t13 -17.5q35 -23 81.5 -33.5t100.5 -10.5q145 0 212 86.5t67 235.5q0 61 -12.5 116.5t-42.5 98t-82.5 67t-132.5 24.5q-61 0 -116.5 -22t-80.5 -50q-12 -10 -12 -33v-428zM362 708q-10 0 -18 -4.5t-8 -17.5v-138q0 -124 2.5 -212.5t6.5 -148.5
t6.5 -94t2.5 -49q0 -26 -19.5 -35t-59.5 -9h-25q-45 0 -63.5 9t-18.5 35q0 15 3 49t5.5 94t5.5 148.5t3 212.5v138q0 13 -8.5 17.5t-17.5 4.5h-110q-21 0 -21 35q0 44 6.5 57t25.5 13h99q9 0 17.5 5.5t8.5 19.5v25q0 122 16.5 211.5t71.5 150.5q54 58 121 83.5t137 25.5
q48 0 92 -7t80 -23q20 -11 20 -28q0 -7 -3.5 -23t-9 -31.5t-11 -29t-11.5 -18.5q-7 -9 -15 -4.5t-15 9.5q-19 16 -46 26.5t-72 10.5q-67 0 -108 -34.5t-62 -86t-27.5 -113.5t-6.5 -117v-27q0 -16 8 -20.5t18 -4.5h310q15 0 20.5 9.5t5.5 22.5q0 93 24 174t73 140.5
t123.5 92.5t174.5 33q26 0 43.5 -1.5t37.5 -5.5q8 -2 20 -8v13q0 26 19.5 35.5t61.5 9.5h26q45 0 62.5 -9.5t17.5 -35.5q0 -14 -3 -42.5t-5.5 -83t-5 -138.5t-2.5 -208v-12q0 -7 8 -10q1 -2 3 -2q6 0 10 5q92 64 222 64q88 0 162.5 -25t127.5 -77.5t82 -132t29 -186.5
q0 -103 -24.5 -187t-77.5 -144t-132 -93.5t-190 -33.5q-66 0 -129 14t-110 35q-11 6 -19 6l-98 -32q-12 0 -21.5 2.5t-9.5 13.5q0 10 2 50.5t4.5 103t4.5 141t2 163.5v302q0 124 -3 214q-3 77 -5 133q-11 21 -38 34q-27 14 -71 14q-75 0 -123 -34t-74.5 -85.5t-37 -109.5
t-10.5 -104q0 -16 8.5 -20.5t17.5 -4.5h207q20 0 20 -23q0 -37 -6.5 -59.5t-19.5 -22.5h-201q-9 0 -17.5 -4.5t-8.5 -17.5v-138q0 -124 3 -212.5t6.5 -148.5t6 -94t2.5 -49q0 -26 -19 -35t-60 -9h-25q-44 0 -62.5 9t-18.5 35q0 15 2.5 49t5.5 94t5.5 148.5t2.5 212.5v138
q0 13 -8 17.5t-18 4.5h-310z" />
    <glyph glyph-name="f_f.liga" unicode="ff" horiz-adv-x="1057" 
d="M672 813q10 0 18 5.5t8 19.5v25q0 122 16.5 211.5t71.5 150.5q54 58 121.5 83.5t137.5 25.5q48 0 91.5 -7t80.5 -23q20 -11 20 -28q0 -7 -4 -23t-9 -31.5t-11 -29t-11 -18.5q-8 -9 -16 -4.5t-14 9.5q-20 16 -47 26.5t-71 10.5q-68 0 -109 -34.5t-62 -86t-27.5 -113.5
t-6.5 -117v-27q0 -16 8.5 -20.5t17.5 -4.5h207q20 0 20 -23q0 -37 -6.5 -59.5t-19.5 -22.5h-201q-9 0 -17.5 -4.5t-8.5 -17.5v-138q0 -124 3 -212.5t6.5 -148.5t6 -94t2.5 -49q0 -26 -19 -35t-60 -9h-25q-44 0 -62.5 9t-18.5 35q0 15 2.5 49t5.5 94t5.5 148.5t2.5 212.5v138
q0 13 -8 17.5t-18 4.5h-310q-10 0 -18 -4.5t-8 -17.5v-138q0 -124 2.5 -212.5t6.5 -148.5t6.5 -94t2.5 -49q0 -26 -19.5 -35t-59.5 -9h-25q-45 0 -63.5 9t-18.5 35q0 15 3 49t5.5 94t5.5 148.5t3 212.5v138q0 13 -8.5 17.5t-17.5 4.5h-110q-21 0 -21 35q0 44 6.5 57t25.5 13
h99q9 0 17.5 5.5t8.5 19.5v25q0 122 16.5 211.5t71.5 150.5q54 58 121 83.5t137 25.5q48 0 92 -7t80 -23q20 -11 20 -28q0 -7 -3.5 -23t-9 -31.5t-11 -29t-11.5 -18.5q-7 -9 -15 -4.5t-15 9.5q-19 16 -46 26.5t-72 10.5q-67 0 -108 -34.5t-62 -86t-27.5 -113.5t-6.5 -117
v-27q0 -16 8 -20.5t18 -4.5h310z" />
    <glyph glyph-name="f_h.liga" unicode="fh" horiz-adv-x="1576" 
d="M681 1275v8q0 26 19.5 35.5t61.5 9.5h26q44 0 61.5 -9.5t17.5 -35.5q0 -14 -2.5 -45.5t-5 -88.5t-5 -143.5t-2.5 -210.5v-13q0 -6 6 -6q8 0 17 6q38 28 100 51t130 23q181 0 261 -87.5t80 -247.5q0 -14 -0.5 -51t-0.5 -84.5t-2 -103t-2 -104.5t-1 -88t-1 -53
q0 -21 -16.5 -29t-58.5 -8h-36q-33 0 -47 6.5t-14 21.5q0 7 1 19t3 27q10 111 15.5 207.5t5.5 190.5q0 52 -10.5 98t-36 82t-68 57t-109.5 21q-37 0 -74.5 -9t-68 -22t-50.5 -29.5t-23 -29.5q-4 -19 -4 -66.5v-101.5v-59q0 -52 2 -111t4.5 -111t4 -92t1.5 -55
q0 -26 -18.5 -35t-60.5 -9h-15q-45 0 -63 9t-18 35q0 15 1.5 55t4.5 92t4.5 111t1.5 111v363q0 124 -3 214q-2 77 -4 133q-11 21 -38 34q-28 14 -71 14q-76 0 -123.5 -34t-74 -85.5t-37 -109.5t-10.5 -104q0 -16 8 -20.5t18 -4.5h206q21 0 21 -23q0 -37 -6.5 -59.5
t-19.5 -22.5h-201q-10 0 -18 -4.5t-8 -17.5v-138q0 -124 2.5 -212.5t6.5 -148.5t6.5 -94t2.5 -49q0 -26 -19.5 -35t-59.5 -9h-25q-45 0 -63.5 9t-18.5 35q0 15 3 49t5.5 94t5.5 148.5t3 212.5v138q0 13 -8.5 17.5t-17.5 4.5h-110q-21 0 -21 35q0 44 6.5 57t25.5 13h99
q15 0 20.5 9.5t5.5 22.5q0 93 23.5 174t73 140.5t124 92.5t173.5 33q26 0 43.5 -1.5t37.5 -5.5q6 -1 21 -3z" />
    <glyph glyph-name="f_f_h.liga" unicode="ffh" horiz-adv-x="2089" 
d="M362 708q-10 0 -18 -4.5t-8 -17.5v-138q0 -124 2.5 -212.5t6.5 -148.5t6.5 -94t2.5 -49q0 -26 -19.5 -35t-59.5 -9h-25q-45 0 -63.5 9t-18.5 35q0 15 3 49t5.5 94t5.5 148.5t3 212.5v138q0 13 -8.5 17.5t-17.5 4.5h-110q-21 0 -21 35q0 44 6.5 57t25.5 13h99
q9 0 17.5 5.5t8.5 19.5v25q0 122 16.5 211.5t71.5 150.5q54 58 121 83.5t137 25.5q48 0 92 -7t80 -23q20 -11 20 -28q0 -7 -3.5 -23t-9 -31.5t-11 -29t-11.5 -18.5q-7 -9 -15 -4.5t-15 9.5q-19 16 -46 26.5t-72 10.5q-67 0 -108 -34.5t-62 -86t-27.5 -113.5t-6.5 -117v-27
q0 -16 8 -20.5t18 -4.5h310q15 0 20.5 9.5t5.5 22.5q0 93 24 174t73 140.5t123.5 92.5t174.5 33q26 0 43.5 -1.5t37.5 -5.5q5 -1 20 -3v8q0 26 19.5 35.5t61.5 9.5h26q45 0 62.5 -9.5t17.5 -35.5q0 -14 -3 -45.5t-5.5 -88.5t-5 -143.5t-2.5 -210.5v-13q0 -6 7 -6t16 6
q39 28 100.5 51t129.5 23q182 0 262 -87.5t80 -247.5q0 -14 -1 -51t-1 -84.5t-2 -103t-2 -104.5t-0.5 -88t-0.5 -53q0 -21 -17 -29t-59 -8h-35q-33 0 -47 6.5t-14 21.5q0 7 0.5 19t2.5 27q10 111 15.5 207.5t5.5 190.5q0 52 -10.5 98t-36 82t-68 57t-108.5 21q-37 0 -75 -9
t-68 -22t-50.5 -29.5t-23.5 -29.5q-3 -19 -3 -66.5v-101.5v-59q0 -52 1.5 -111t4 -111t4.5 -92t2 -55q0 -26 -18.5 -35t-61.5 -9h-15q-44 0 -62.5 9t-18.5 35q0 15 2 55t4.5 92t4.5 111t2 111v363q0 124 -3 214q-3 77 -5 133q-11 21 -38 34q-27 14 -71 14q-75 0 -123 -34
t-74.5 -85.5t-37 -109.5t-10.5 -104q0 -16 8.5 -20.5t17.5 -4.5h207q20 0 20 -23q0 -37 -6.5 -59.5t-19.5 -22.5h-201q-9 0 -17.5 -4.5t-8.5 -17.5v-138q0 -124 3 -212.5t6.5 -148.5t6 -94t2.5 -49q0 -26 -19 -35t-60 -9h-25q-44 0 -62.5 9t-18.5 35q0 15 2.5 49t5.5 94
t5.5 148.5t2.5 212.5v138q0 13 -8 17.5t-18 4.5h-310z" />
    <glyph glyph-name="f_f_i.liga" unicode="ffi" horiz-adv-x="1508" 
d="M1209 474q0 38 -2 86.5t-4.5 94.5t-4.5 83t-2 52q0 25 19.5 34.5t61.5 9.5h15q45 0 62.5 -9.5t17.5 -34.5q0 -15 -2 -52t-5 -83t-5 -94.5t-2 -86.5v-61q0 -52 2 -111t5 -111t5 -92t2 -55q0 -26 -18.5 -35t-61.5 -9h-15q-44 0 -62.5 9t-18.5 35q0 15 2 55t4.5 92t4.5 111
t2 111v61zM362 708q-10 0 -18 -4.5t-8 -17.5v-138q0 -124 2.5 -212.5t6.5 -148.5t6.5 -94t2.5 -49q0 -26 -19.5 -35t-59.5 -9h-25q-45 0 -63.5 9t-18.5 35q0 15 3 49t5.5 94t5.5 148.5t3 212.5v138q0 13 -8.5 17.5t-17.5 4.5h-110q-21 0 -21 35q0 44 6.5 57t25.5 13h99
q9 0 17.5 5.5t8.5 19.5v25q0 122 16.5 211.5t71.5 150.5q54 58 121 83.5t137 25.5q48 0 92 -7t80 -23q20 -11 20 -28q0 -7 -3.5 -23t-9 -31.5t-11 -29t-11.5 -18.5q-7 -9 -15 -4.5t-15 9.5q-19 16 -46 26.5t-72 10.5q-67 0 -108 -34.5t-62 -86t-27.5 -113.5t-6.5 -117v-27
q0 -16 8 -20.5t18 -4.5h310q10 0 18 5.5t8 19.5v25q0 128 16.5 214.5t71.5 147.5q54 58 121.5 83.5t137.5 25.5q37 0 60.5 -2t50.5 -8q10 -4 18.5 -10t10.5 -23l4 -64q3 -15 11 -4q31 42 86 42q47 0 77 -32t30 -77q0 -42 -30 -74.5t-77 -32.5q-25 0 -47 9.5t-38 26
t-22.5 41.5t1.5 58q-21 20 -51.5 26t-64.5 6q-72 0 -114.5 -36t-65 -90.5t-29 -120t-6.5 -122.5v-9q0 -16 8.5 -20.5t17.5 -4.5h207q20 0 20 -23q0 -37 -6.5 -59.5t-19.5 -22.5h-201q-9 0 -17.5 -4.5t-8.5 -17.5v-138q0 -124 3 -212.5t6.5 -148.5t6 -94t2.5 -49
q0 -26 -19 -35t-60 -9h-25q-44 0 -62.5 9t-18.5 35q0 15 2.5 49t5.5 94t5.5 148.5t2.5 212.5v138q0 13 -8 17.5t-18 4.5h-310z" />
    <glyph glyph-name="f_j.liga" unicode="fj" horiz-adv-x="995" 
d="M185 863q0 128 16.5 214.5t71.5 147.5q54 58 121 83.5t137 25.5q37 0 61 -2t50 -8q11 -4 19.5 -10t10.5 -23l4 -64q3 -15 10 -4q32 42 87 42q47 0 77 -32t30 -77q0 -42 -30 -74.5t-77 -32.5q-25 0 -47.5 9.5t-38 26t-22.5 41.5t2 58q-21 20 -51.5 26t-65.5 6
q-72 0 -114 -36t-64.5 -90.5t-29 -120t-6.5 -122.5v-9q0 -16 8 -20.5t18 -4.5h206q21 0 21 -23q0 -37 -6.5 -59.5t-19.5 -22.5h-201q-10 0 -18 -4.5t-8 -17.5v-138q0 -124 2.5 -212.5t6.5 -148.5t6.5 -94t2.5 -49q0 -26 -19.5 -35t-59.5 -9h-25q-45 0 -63.5 9t-18.5 35
q0 15 3 49t5.5 94t5.5 148.5t3 212.5v138q0 13 -8.5 17.5t-17.5 4.5h-110q-21 0 -21 35q0 44 6.5 57t25.5 13h99q9 0 17.5 5.5t8.5 19.5v25zM408 -404q85 0 140 33t88.5 89.5t46 132t12.5 158.5v465q0 38 -1.5 86.5t-4.5 94.5t-4.5 83t-1.5 52q0 25 19 34.5t62 9.5h15
q42 0 60.5 -9.5t18.5 -34.5q0 -15 -1.5 -52t-5 -83t-5 -94.5t-1.5 -86.5v-411q0 -95 -2 -167t-16 -128q-15 -65 -52 -116.5t-89.5 -88.5t-118 -56t-139.5 -19q-39 0 -51 21q-6 7 -12 26.5t-6 33.5q0 16 10.5 21.5t38.5 5.5z" />
    <glyph glyph-name="f_f_j.liga" unicode="ffj" horiz-adv-x="1508" 
d="M362 708q-10 0 -18 -4.5t-8 -17.5v-138q0 -124 2.5 -212.5t6.5 -148.5t6.5 -94t2.5 -49q0 -26 -19.5 -35t-59.5 -9h-25q-45 0 -63.5 9t-18.5 35q0 15 3 49t5.5 94t5.5 148.5t3 212.5v138q0 13 -8.5 17.5t-17.5 4.5h-110q-21 0 -21 35q0 44 6.5 57t25.5 13h99
q9 0 17.5 5.5t8.5 19.5v25q0 122 16.5 211.5t71.5 150.5q54 58 121 83.5t137 25.5q48 0 92 -7t80 -23q20 -11 20 -28q0 -7 -3.5 -23t-9 -31.5t-11 -29t-11.5 -18.5q-7 -9 -15 -4.5t-15 9.5q-19 16 -46 26.5t-72 10.5q-67 0 -108 -34.5t-62 -86t-27.5 -113.5t-6.5 -117v-27
q0 -16 8 -20.5t18 -4.5h310q10 0 18 5.5t8 19.5v25q0 128 16.5 214.5t71.5 147.5q54 58 121.5 83.5t137.5 25.5q37 0 60.5 -2t50.5 -8q10 -4 18.5 -10t10.5 -23l4 -64q3 -15 11 -4q31 42 86 42q47 0 77 -32t30 -77q0 -42 -30 -74.5t-77 -32.5q-25 0 -47 9.5t-38 26
t-22.5 41.5t1.5 58q-21 20 -51.5 26t-64.5 6q-72 0 -114.5 -36t-65 -90.5t-29 -120t-6.5 -122.5v-9q0 -16 8.5 -20.5t17.5 -4.5h207q20 0 20 -23q0 -37 -6.5 -59.5t-19.5 -22.5h-201q-9 0 -17.5 -4.5t-8.5 -17.5v-138q0 -124 3 -212.5t6.5 -148.5t6 -94t2.5 -49
q0 -26 -19 -35t-60 -9h-25q-44 0 -62.5 9t-18.5 35q0 15 2.5 49t5.5 94t5.5 148.5t2.5 212.5v138q0 13 -8 17.5t-18 4.5h-310zM921 -404q85 0 140.5 33t88.5 89.5t46.5 132t13.5 158.5v465q0 38 -2 86.5t-4.5 94.5t-5 83t-2.5 52q0 25 19.5 34.5t62.5 9.5h14q43 0 61.5 -9.5
t18.5 -34.5q0 -15 -2 -52t-4.5 -83t-4.5 -94.5t-2 -86.5v-411q0 -95 -1.5 -167t-17.5 -128q-14 -65 -51 -116.5t-89.5 -88.5t-118 -56t-139.5 -19q-39 0 -52 21q-6 7 -12 26.5t-6 33.5q0 16 11 21.5t38 5.5z" />
    <glyph glyph-name="f_k.liga" unicode="fk" horiz-adv-x="1487" 
d="M690 1123q-11 21 -38 34q-28 14 -71 14q-76 0 -123.5 -34t-74 -85.5t-37 -109.5t-10.5 -104q0 -16 8 -20.5t18 -4.5h206q21 0 21 -23q0 -37 -6.5 -59.5t-19.5 -22.5h-201q-10 0 -18 -4.5t-8 -17.5v-138q0 -124 2.5 -212.5t6.5 -148.5t6.5 -94t2.5 -49q0 -26 -19.5 -35
t-59.5 -9h-25q-45 0 -63.5 9t-18.5 35q0 15 3 49t5.5 94t5.5 148.5t3 212.5v138q0 13 -8.5 17.5t-17.5 4.5h-110q-21 0 -21 35q0 44 6.5 57t25.5 13h99q15 0 20.5 9.5t5.5 22.5q0 93 23.5 174t73 140.5t124 92.5t173.5 33q26 0 43.5 -1.5t37.5 -5.5q8 -2 21 -3v8
q0 26 19.5 35.5t61.5 9.5h26q42 0 60.5 -9.5t18.5 -35.5q0 -14 -2.5 -48t-5 -95t-6 -150.5t-3.5 -213.5v-258q0 -9 7 -12t14 3q94 68 186 148.5t194 171.5q4 3 13 7.5t24 4.5q62 0 103 -8.5t41 -31.5q0 -16 -19 -28q-14 -9 -92 -65q-40 -29 -108.5 -82.5t-179.5 -141.5
q-14 -10 0 -23q105 -111 216 -213t206 -191q21 -16 26.5 -23.5t5.5 -17.5q0 -11 -13 -16q-11 -5 -29.5 -14t-38 -16t-37 -12.5t-28.5 -5.5q-14 0 -23.5 4.5t-16.5 11.5q-102 100 -208 216.5t-222 245.5q-5 5 -13 5t-8 -14q0 -99 3.5 -165t6 -108.5t5 -66.5t2.5 -37
q0 -26 -18.5 -35t-60.5 -9h-26q-44 0 -62.5 9t-18.5 35q0 15 2.5 49t5.5 94t5.5 148.5t2.5 212.5v228q0 124 -3 214q-2 77 -4 133z" />
    <glyph glyph-name="f_f_k.liga" unicode="ffk" horiz-adv-x="2001" 
d="M362 708q-10 0 -18 -4.5t-8 -17.5v-138q0 -124 2.5 -212.5t6.5 -148.5t6.5 -94t2.5 -49q0 -26 -19.5 -35t-59.5 -9h-25q-45 0 -63.5 9t-18.5 35q0 15 3 49t5.5 94t5.5 148.5t3 212.5v138q0 13 -8.5 17.5t-17.5 4.5h-110q-21 0 -21 35q0 44 6.5 57t25.5 13h99
q9 0 17.5 5.5t8.5 19.5v25q0 122 16.5 211.5t71.5 150.5q54 58 121 83.5t137 25.5q48 0 92 -7t80 -23q20 -11 20 -28q0 -7 -3.5 -23t-9 -31.5t-11 -29t-11.5 -18.5q-7 -9 -15 -4.5t-15 9.5q-19 16 -46 26.5t-72 10.5q-67 0 -108 -34.5t-62 -86t-27.5 -113.5t-6.5 -117v-27
q0 -16 8 -20.5t18 -4.5h310q15 0 20.5 9.5t5.5 22.5q0 93 24 174t73 140.5t123.5 92.5t174.5 33q26 0 43.5 -1.5t37.5 -5.5q8 -2 20 -3v8q0 26 19.5 35.5t61.5 9.5h26q43 0 61.5 -9.5t18.5 -35.5q0 -14 -3 -48t-5.5 -95t-5.5 -150.5t-3 -213.5v-258q0 -9 6.5 -12t13.5 3
q94 68 186.5 148.5t193.5 171.5q4 3 13 7.5t24 4.5q62 0 103 -8.5t41 -31.5q0 -16 -19 -28q-14 -9 -91 -65q-41 -29 -109.5 -82.5t-179.5 -141.5q-14 -10 0 -23q106 -111 216.5 -213t206.5 -191q21 -16 26 -23.5t5 -17.5q0 -11 -12 -16t-30.5 -14t-38 -16t-37 -12.5
t-28.5 -5.5q-14 0 -23.5 4.5t-16.5 11.5q-102 100 -207.5 216.5t-222.5 245.5q-5 5 -12.5 5t-7.5 -14q0 -99 3 -165t5.5 -108.5t5.5 -66.5t3 -37q0 -26 -18.5 -35t-61.5 -9h-26q-44 0 -62.5 9t-18.5 35q0 15 3 49t5.5 94t5.5 148.5t3 212.5v228q0 124 -3 214q-3 77 -5 133
q-11 21 -38 34q-27 14 -71 14q-75 0 -123 -34t-74.5 -85.5t-37 -109.5t-10.5 -104q0 -16 8.5 -20.5t17.5 -4.5h207q20 0 20 -23q0 -37 -6.5 -59.5t-19.5 -22.5h-201q-9 0 -17.5 -4.5t-8.5 -17.5v-138q0 -124 3 -212.5t6.5 -148.5t6 -94t2.5 -49q0 -26 -19 -35t-60 -9h-25
q-44 0 -62.5 9t-18.5 35q0 15 2.5 49t5.5 94t5.5 148.5t2.5 212.5v138q0 13 -8 17.5t-18 4.5h-310z" />
    <glyph glyph-name="f_f_l.liga" unicode="ffl" horiz-adv-x="1629" 
d="M362 708q-10 0 -18 -4.5t-8 -17.5v-138q0 -124 2.5 -212.5t6.5 -148.5t6.5 -94t2.5 -49q0 -26 -19.5 -35t-59.5 -9h-25q-45 0 -63.5 9t-18.5 35q0 15 3 49t5.5 94t5.5 148.5t3 212.5v138q0 13 -8.5 17.5t-17.5 4.5h-110q-21 0 -21 35q0 44 6.5 57t25.5 13h99
q9 0 17.5 5.5t8.5 19.5v25q0 122 16.5 211.5t71.5 150.5q54 58 121 83.5t137 25.5q48 0 92 -7t80 -23q20 -11 20 -28q0 -7 -3.5 -23t-9 -31.5t-11 -29t-11.5 -18.5q-7 -9 -15 -4.5t-15 9.5q-19 16 -46 26.5t-72 10.5q-67 0 -108 -34.5t-62 -86t-27.5 -113.5t-6.5 -117v-27
q0 -16 8 -20.5t18 -4.5h310q15 0 20.5 9.5t5.5 22.5q0 93 24 174t73 140.5t123.5 92.5t174.5 33q26 0 43.5 -1.5t37.5 -5.5q8 -2 17 0t11 15q5 35 63 35h54q30 0 46 -9.5t16 -35.5q0 -14 -3 -48t-5.5 -95t-5.5 -150.5t-3 -213.5v-352q0 -83 2 -134.5t8.5 -82t17 -47
t29.5 -29.5q25 -18 57 -27.5t86 -9.5q18 0 34.5 2t23.5 2q17 0 17 -19q0 -14 -11 -44t-28 -39q-20 -7 -58 -10.5t-84 -3.5q-142 0 -196.5 64.5t-54.5 178.5q0 69 2 128.5t2 118.5v304q0 122 -2 204.5t-6 142.5q-11 21 -38 34.5t-71 13.5q-75 0 -123 -34t-74.5 -85.5
t-37 -109.5t-10.5 -104q0 -16 8.5 -20.5t17.5 -4.5h207q20 0 20 -23q0 -37 -6.5 -59.5t-19.5 -22.5h-201q-9 0 -17.5 -4.5t-8.5 -17.5v-138q0 -124 3 -212.5t6.5 -148.5t6 -94t2.5 -49q0 -26 -19 -35t-60 -9h-25q-44 0 -62.5 9t-18.5 35q0 15 2.5 49t5.5 94t5.5 148.5
t2.5 212.5v138q0 13 -8 17.5t-18 4.5h-310z" />
    <glyph glyph-name="f_t.liga" unicode="ft" horiz-adv-x="1128" 
d="M663 813q10 0 18 7t8 23q0 44 -1 85.5t-2.5 75.5t-2.5 59t-1 35q0 18 12 27.5t43 9.5h56q60 0 60 -37q0 -26 -6.5 -96.5t-6.5 -163.5q0 -16 8.5 -20.5t17.5 -4.5h207q20 0 20 -23q0 -37 -6.5 -59.5t-19.5 -22.5h-201q-9 0 -17.5 -5.5t-8.5 -18.5v-260q0 -83 3 -134.5
t9 -82.5t17.5 -47t30.5 -29q23 -18 55.5 -27.5t85.5 -9.5q19 0 35.5 2t24.5 2q16 0 16 -19q0 -14 -11 -44t-28 -39q-20 -7 -57.5 -10.5t-83.5 -3.5q-143 0 -197.5 64.5t-54.5 178.5q0 69 2 125t2 115v219q0 13 -8 18.5t-18 5.5h-301q-10 0 -18 -4.5t-8 -17.5v-138
q0 -124 2.5 -212.5t6.5 -148.5t6.5 -94t2.5 -49q0 -26 -19.5 -35t-59.5 -9h-25q-45 0 -63.5 9t-18.5 35q0 15 3 49t5.5 94t5.5 148.5t3 212.5v138q0 13 -8.5 17.5t-17.5 4.5h-110q-21 0 -21 35q0 44 6.5 57t25.5 13h99q9 0 17.5 5.5t8.5 19.5v25q0 122 16.5 211.5
t71.5 150.5q54 58 121 83.5t137 25.5q48 0 92 -7t80 -23q20 -11 20 -28q0 -7 -3.5 -23t-9 -31.5t-11 -29t-11.5 -18.5q-7 -9 -15 -4.5t-15 9.5q-19 16 -46 26.5t-72 10.5q-67 0 -108 -34.5t-62 -86t-27.5 -113.5t-6.5 -117v-27q0 -16 8 -20.5t18 -4.5h301z" />
    <glyph glyph-name="f_f_t.liga" unicode="fft" horiz-adv-x="1641" 
d="M362 708q-10 0 -18 -4.5t-8 -17.5v-138q0 -124 2.5 -212.5t6.5 -148.5t6.5 -94t2.5 -49q0 -26 -19.5 -35t-59.5 -9h-25q-45 0 -63.5 9t-18.5 35q0 15 3 49t5.5 94t5.5 148.5t3 212.5v138q0 13 -8.5 17.5t-17.5 4.5h-110q-21 0 -21 35q0 44 6.5 57t25.5 13h99
q9 0 17.5 5.5t8.5 19.5v25q0 122 16.5 211.5t71.5 150.5q54 58 121 83.5t137 25.5q48 0 92 -7t80 -23q20 -11 20 -28q0 -7 -3.5 -23t-9 -31.5t-11 -29t-11.5 -18.5q-7 -9 -15 -4.5t-15 9.5q-19 16 -46 26.5t-72 10.5q-67 0 -108 -34.5t-62 -86t-27.5 -113.5t-6.5 -117v-27
q0 -16 8 -20.5t18 -4.5h310q10 0 18 5.5t8 19.5v25q0 122 16.5 211.5t71.5 150.5q54 58 121.5 83.5t137.5 25.5q48 0 91.5 -7t80.5 -23q20 -11 20 -28q0 -7 -4 -23t-9 -31.5t-11 -29t-11 -18.5q-8 -9 -16 -4.5t-14 9.5q-20 16 -47 26.5t-71 10.5q-68 0 -109 -34.5t-62 -86
t-27.5 -113.5t-6.5 -117v-27q0 -16 8.5 -20.5t17.5 -4.5h301q10 0 18 7t8 23q0 44 -0.5 85.5t-2.5 75.5t-3 59t-1 35q0 18 12.5 27.5t42.5 9.5h56q60 0 60 -37q0 -26 -6 -96.5t-6 -163.5q0 -16 8 -20.5t18 -4.5h206q21 0 21 -23q0 -37 -7 -59.5t-19 -22.5h-201
q-10 0 -18 -5.5t-8 -18.5v-260q0 -83 2.5 -134.5t9 -82.5t17.5 -47t30 -29q24 -18 56 -27.5t86 -9.5q18 0 35 2t24 2q16 0 16 -19q0 -14 -10.5 -44t-28.5 -39q-19 -7 -57 -10.5t-84 -3.5q-142 0 -196.5 64.5t-54.5 178.5q0 69 1.5 125t1.5 115v219q0 13 -8 18.5t-18 5.5
h-301q-9 0 -17.5 -4.5t-8.5 -17.5v-138q0 -124 3 -212.5t6.5 -148.5t6 -94t2.5 -49q0 -26 -19 -35t-60 -9h-25q-44 0 -62.5 9t-18.5 35q0 15 2.5 49t5.5 94t5.5 148.5t2.5 212.5v138q0 13 -8 17.5t-18 4.5h-310z" />
    <glyph glyph-name="uni0647.fina" unicode="&#x647;" horiz-adv-x="978" arabic-form="final" 
d="M637 -338q53 0 73 35.5t20 79.5q0 38 -13 78.5t-39.5 72t-69 52t-101.5 20.5h-67v-18q0 -150 57.5 -235t139.5 -85zM557 155q35 0 62 17.5t45.5 44t26.5 60t8 64.5q0 57 -24 100.5t-61 43.5q-31 0 -57.5 -31.5t-47 -80.5t-34.5 -107t-19 -111h101zM321 155
q13 105 45 194.5t75 156t92.5 103.5t98.5 37q37 0 71.5 -25t60.5 -66t40.5 -91.5t14.5 -102.5q0 -51 -17 -106.5t-61 -99.5h257q28 0 38 -17.5t10 -56.5v-9q0 -42 -23 -57t-62 -15h-210q44 -41 73.5 -100t29.5 -132q0 -48 -13.5 -92.5t-42.5 -77.5t-73 -53.5t-104 -20.5
q-58 0 -114.5 25t-102.5 78.5t-73.5 134.5t-27.5 196q0 9 0.5 20t0.5 22q-105 -4 -148 -22.5t-43 -56.5q0 -21 2.5 -36.5t2.5 -24.5q0 -13 -9 -13q-30 0 -62.5 43t-42.5 99q-2 9 -3 17t-1 18q0 64 71 97.5t250 33.5z" />
    <glyph glyph-name="uni0672.fina" unicode="&#x672;" horiz-adv-x="472" 
d="M149 1171q-2 21 -3 38.5t-1 31.5q0 37 11 56.5t44 30.5q22 8 39 8q26 0 26.5 -18.5t4.5 -43.5q0 -204 2.5 -397.5t2.5 -406.5q0 -76 9.5 -135t33.5 -99.5t66.5 -60.5t108.5 -20q28 0 38 -17.5t10 -56.5v-9q0 -42 -23 -57t-61 -15q-80 0 -135.5 26.5t-90.5 72t-51.5 106.5
t-16.5 131v293q0 179 -2 276.5t-4.5 147.5t-4.5 71.5t-3 46.5zM222 1452q-47 0 -90 18.5t-66 18.5q-12 0 -30.5 -8t-27.5 -17l-9 6q13 28 27 43.5t25 23t21 8t17 0.5q14 0 26.5 -4.5t33.5 -11.5q14 -6 34 -10q-5 14 -5 31q0 29 12.5 54.5t34.5 45t49.5 30.5t55.5 11
q47 0 47 -35q0 -10 -4 -22.5t-8 -12.5q-8 0 -20.5 7t-36.5 7q-13 0 -26 -4t-23.5 -13t-18 -21.5t-7.5 -27.5q0 -24 20.5 -36t48.5 -12q29 0 50 9.5t42 20.5q2 2 7 2q6 0 8 -9.5t2 -18.5q0 -11 -3.5 -18.5t-11.5 -13t-21.5 -11t-33.5 -11.5q-18 -6 -43.5 -12.5t-75.5 -6.5z
" />
    <glyph glyph-name="uni0673.fina" unicode="&#x673;" horiz-adv-x="472" 
d="M149 1171q-2 21 -3 38.5t-1 31.5q0 37 11 56.5t44 30.5q22 8 39 8q26 0 26.5 -18.5t4.5 -43.5q0 -204 2.5 -397.5t2.5 -406.5q0 -76 9.5 -135t33.5 -99.5t66.5 -60.5t108.5 -20q28 0 38 -17.5t10 -56.5v-9q0 -42 -23 -57t-61 -15q-80 0 -135.5 26.5t-90.5 72t-51.5 106.5
t-16.5 131v293q0 179 -2 276.5t-4.5 147.5t-4.5 71.5t-3 46.5zM222 -419q-47 0 -90 18.5t-66 18.5q-12 0 -30.5 -7.5t-27.5 -16.5l-9 5q13 28 27 44t25 23t21 8t17 1q14 0 26.5 -4.5t33.5 -11.5q14 -7 34 -10q-5 13 -5 30q0 29 12.5 55t34.5 45t49.5 30.5t55.5 11.5
q47 0 47 -35q0 -10 -4 -22.5t-8 -12.5q-8 0 -20.5 6.5t-36.5 6.5q-13 0 -26 -4t-23.5 -12.5t-18 -21t-7.5 -28.5q0 -24 20.5 -35.5t48.5 -11.5q29 0 50 9t42 20q2 2 7 2q6 0 8 -9.5t2 -18.5q0 -11 -3.5 -18.5t-11.5 -13t-21.5 -11t-33.5 -11.5q-18 -5 -43.5 -12t-75.5 -7z
" />
    <glyph glyph-name="uni0675.fina" unicode="&#x675;" horiz-adv-x="715" 
d="M147 1171q-2 21 -3 38.5t-1 31.5q0 37 11 56.5t44 30.5q22 8 39 8q26 0 27 -18.5t4 -43.5q0 -204 3 -397.5t3 -406.5q0 -76 9.5 -135t33 -99.5t73.5 -63.5q34 -17 191 -17h154q28 0 37.5 -17.5t9.5 -56.5v-9q0 -42 -22.5 -57t-61.5 -15h-48q-239 0 -308 25
q-77 28 -112.5 73.5t-52 106.5t-16.5 131v293q0 179 -2 276.5t-4.5 147.5t-4.5 71.5t-3 46.5zM673 1500q0 -31 -19 -42.5t-72 -31.5q-111 -39 -173 -74.5t-71 -35.5q-8 0 -8 16q0 14 6.5 36.5t19.5 31.5q17 15 29 19.5t35 17.5q-23 11 -41.5 34t-18.5 62t17.5 73t46 60.5
t65.5 42.5t75 16q65 0 65 -48q0 -14 -5.5 -30t-13.5 -16q-9 0 -24.5 8t-50.5 8q-31 0 -65 -23t-34 -65q0 -32 26.5 -48.5t63.5 -16.5q42 0 69 13t58 28q2 1 8 1q9 0 10.5 -11.5t1.5 -24.5z" />
    <glyph glyph-name="uni0676.fina" unicode="&#x676;" horiz-adv-x="856" 
d="M529 155q-2 53 -14 101t-31 84t-45.5 57.5t-59.5 21.5q-31 0 -57 -17t-43.5 -40.5t-26.5 -51.5t-9 -52q0 -50 31 -76.5t129 -26.5h126zM643 0q-11 -116 -46 -204t-87.5 -148t-117 -89t-133.5 -29q-44 0 -81 17.5t-63 42.5q-16 17 -16 28q0 15 15 17t52 7q102 13 171.5 51
t111 88t59 107t19.5 112h-107q-144 0 -217.5 57t-73.5 170q0 58 21 119.5t57 111t83 81t96 31.5q111 0 182 -110t84 -305h223q27 0 37.5 -17.5t10.5 -56.5v-9q0 -42 -23 -57t-62 -15h-195zM785 933q0 -31 -19 -42t-73 -32q-110 -39 -172.5 -75t-71.5 -36q-7 0 -7 18
q0 14 6.5 36t19.5 32q16 14 28.5 18.5t35.5 18.5q-23 11 -41.5 34t-18.5 61q0 39 17.5 73.5t46 61t65.5 42t75 15.5q65 0 65 -48q0 -14 -6 -29.5t-13 -15.5q-9 0 -24.5 8t-50.5 8q-32 0 -65.5 -23t-33.5 -66q0 -31 26.5 -47.5t63.5 -16.5q42 0 69 13t58 27q1 2 8 2
q9 0 10.5 -11.5t1.5 -25.5z" />
    <glyph glyph-name="uni0677.fina" unicode="&#x677;" horiz-adv-x="856" 
d="M529 155q-2 53 -13.5 101t-31 84t-45.5 57.5t-59 21.5q-32 0 -57.5 -17t-43 -40.5t-26.5 -51.5t-9 -52q0 -50 31 -76.5t129 -26.5h125zM644 0q-11 -116 -46 -204t-88 -148t-117.5 -89t-132.5 -29q-44 0 -81 17.5t-63 42.5q-16 17 -16 28q0 15 14.5 17t51.5 7
q103 13 172.5 51t111 88t59 107t18.5 112h-107q-143 0 -217 57t-74 170q0 58 21.5 119.5t57.5 111t82.5 81t96.5 31.5q111 0 182 -110t84 -305h223q27 0 37.5 -17.5t10.5 -56.5v-9q0 -42 -23 -57t-62 -15h-195zM786 933q0 -31 -19.5 -42t-73.5 -32q-110 -39 -172 -75
t-71 -36q-7 0 -7 18q0 14 6 36t20 32q16 14 28 18.5t36 18.5q-24 11 -42 34t-18 61q0 39 17.5 73.5t45.5 61t65 42t76 15.5q65 0 65 -48q0 -14 -6 -29.5t-13 -15.5q-9 0 -25 8t-51 8q-31 0 -65 -23t-34 -66q0 -31 26.5 -47.5t63.5 -16.5q43 0 70 13t57 27q2 2 8 2
q9 0 11 -11.5t2 -25.5zM319 946q-59 4 -103 29.5t-44 74.5q0 20 9 44.5t25.5 45t38.5 34t48 13.5q34 0 54 -16t32 -41t16 -56t4 -64q10 0 26 -9.5t16 -41.5q0 -3 -2 -19t-9 -16q-2 0 -6 3q-4 2 -14.5 8.5t-29.5 10.5q-15 -54 -37 -92t-55 -62.5t-78.5 -36t-106.5 -11.5
q-29 0 -54 3t-25 14q0 7 39.5 15.5t91.5 27t99.5 51t64.5 91.5zM345 1012q0 49 -19.5 77t-46.5 28q-28 0 -41 -16t-13 -31q0 -30 37 -44t83 -14z" />
    <glyph glyph-name="uni0678.init" unicode="&#x678;" horiz-adv-x="625" 
d="M155 467q-7 12 -7 26q0 25 36 93q29 56 52 56q25 0 53 -85q15 -43 28.5 -100t13.5 -131q0 -149 -90 -237.5t-258 -88.5q-18 0 -33 16.5t-15 53.5v11q0 39 24 56.5t61 17.5q59 0 98 12t61.5 30.5t31.5 40.5t9 44q0 33 -19 86t-46 99zM591 983q0 -31 -19.5 -42.5
t-72.5 -30.5q-111 -39 -172.5 -75t-71.5 -36q-7 0 -7 16q0 15 6.5 37t19.5 32q16 14 28 19t36 17q-24 11 -42.5 34t-18.5 62t17.5 73t46 61t65.5 42.5t76 15.5q65 0 65 -48q0 -14 -5.5 -30t-12.5 -16q-10 0 -26 8t-50 8q-32 0 -66 -23t-34 -65q0 -32 26.5 -48.5t63.5 -16.5
q42 0 69 13t59 28q2 2 7 2q9 0 11 -12t2 -25z" />
    <glyph glyph-name="uni0678.medi" unicode="&#x678;" horiz-adv-x="718" 
d="M787 72q0 -42 -23 -57t-62 -15q-214 0 -252.5 5.5t-70.5 21t-53.5 42t-27.5 71.5q-20 -35 -43 -62t-57 -44.5t-86 -25.5t-129 -8q-18 0 -33 16.5t-15 53.5v11q0 39 24 56.5t61 17.5q72 0 109.5 12t58 37t31.5 62.5t31 87.5q4 7 21.5 31.5t54.5 33.5q24 5 39 5t18.5 -3.5
t3.5 -10.5q0 -8 -2.5 -14.5t-4.5 -10.5q-10 -18 -18 -45.5t-8 -55.5q0 -64 46.5 -96.5t337.5 -32.5q28 0 38.5 -17.5t10.5 -56.5v-9zM704 714q0 -31 -19.5 -42.5t-72.5 -31.5q-111 -38 -172.5 -74t-70.5 -36q-8 0 -8 16q0 15 7 37t19 31q17 15 29 20t36 17q-24 11 -42.5 34
t-18.5 62q0 38 17.5 72.5t46 61.5t65.5 42t76 15q64 0 64 -47q0 -15 -5.5 -30.5t-12.5 -15.5q-9 0 -25 8t-51 8q-31 0 -65.5 -23t-34.5 -65q0 -32 27 -48.5t64 -16.5q43 0 69.5 13t57.5 27q2 3 8 3q9 0 10.5 -12t1.5 -25z" />
    <glyph glyph-name="uni0678.fina" unicode="&#x678;" horiz-adv-x="1359" 
d="M118 -90q0 -58 16 -111.5t61 -94t126.5 -65t215.5 -24.5q118 0 211 22.5t158.5 58t99.5 77.5t34 79q0 16 -4.5 31t-23 32t-57 34.5t-105.5 39.5q-33 11 -33 34q0 10 4.5 24t12.5 30q11 30 31 54t55 24h460q28 0 37.5 -17.5t9.5 -56.5v-9q0 -42 -22.5 -57t-61.5 -15h-234
q25 -13 42.5 -40.5t17.5 -57.5q0 -64 -41.5 -141.5t-127 -145t-215.5 -113.5t-308 -46q-110 0 -188.5 21t-131.5 54.5t-84.5 77.5t-47.5 88.5t-20.5 88t-4.5 75.5q0 34 5.5 68t16 65.5t22 59t24.5 44.5q18 27 66 29q23 0 23 -13q0 -9 -13 -44q-10 -26 -18 -64t-8 -96z
M1319 456q0 -32 -19.5 -43t-72.5 -31q-111 -39 -173 -75t-71 -36q-8 0 -8 16t6.5 38t19.5 31q17 15 29 19.5t35 17.5q-23 11 -41.5 34t-18.5 62t17.5 72.5t46 60.5t65.5 43t76 16q64 0 64 -49q0 -14 -5.5 -30t-13.5 -16q-9 0 -24.5 8.5t-50.5 8.5q-31 0 -65 -23t-34 -66
q0 -30 26.5 -47t63.5 -17q42 0 69 13t58 28q2 2 8 2q9 0 11 -12.5t2 -24.5z" />
    <glyph glyph-name="uni067C.init" unicode="&#x67c;" horiz-adv-x="471" 
d="M79 1077q24 0 60 -37q16 -14 26.5 -31.5t10.5 -26.5q0 -10 -17.5 -27.5t-31.5 -32.5q-26 -22 -34 -32t-19 -10q-10 0 -22 15t-27 29q-16 16 -32.5 29t-16.5 22q0 8 12 25.5t28.5 34t33.5 29.5t29 13zM320 1077q25 0 62 -37q14 -14 25.5 -31.5t11.5 -26.5
q0 -10 -17.5 -27.5t-33.5 -32.5q-25 -22 -33.5 -32t-19.5 -10q-9 0 -21 15t-27 29q-17 16 -33.5 29t-16.5 22q0 8 12 25.5t29 34t34.5 29.5t27.5 13zM140 25q-16 -6 -33 -11q-7 -8 -14 -19q-11 -17 -19 -37.5t-8 -43.5q0 -13 4.5 -26t14 -23.5t24.5 -16.5t37 -6
q39 0 60.5 22.5t21.5 49.5q0 18 -8 36t-22 33.5t-32 28.5q-13 8 -26 13zM39 3q-27 -3 -56 -3q-18 0 -33 16.5t-15 53.5v11q0 39 24 56.5t61 17.5q59 0 98 12t61.5 30.5t31.5 40.5t9 44q0 33 -19 86t-46 99q-7 12 -7 26q0 25 36 93q29 56 52 56q25 0 53 -85q15 -43 28.5 -100
t13.5 -131q0 -149 -90 -237q-14 -14 -30 -26q17 -13 31 -29q18 -20 29.5 -47t11.5 -59q0 -28 -9 -57t-27.5 -52.5t-46 -38.5t-67.5 -15q-56 0 -92 31t-36 93q0 40 18 82q7 15 16 32z" />
    <glyph glyph-name="uni067C.medi" unicode="&#x67c;" horiz-adv-x="547" 
d="M158 894q24 0 61 -37q15 -14 26 -31.5t11 -26.5t-18 -26.5t-32 -33.5q-26 -21 -34 -31.5t-19 -10.5q-10 0 -21.5 15t-27.5 29q-16 17 -32.5 30t-16.5 22q0 8 12 25.5t28.5 34t34.5 29t28 12.5zM400 894q24 0 61 -37q14 -14 25.5 -31.5t11.5 -26.5t-17.5 -26.5
l-33.5 -33.5q-25 -21 -33.5 -31.5t-19.5 -10.5q-9 0 -21 15t-26 29q-18 17 -34.5 30t-16.5 22q0 8 12 25.5t29 34t34.5 29t28.5 12.5zM156 17q-20 -5 -44 -9q-6 -1 -11 -2q-5 -5 -8 -11q-11 -17 -19 -37.5t-8 -43.5q0 -13 4.5 -26t14 -23.5t24.5 -16.5t37 -6q39 0 60.5 22.5
t21.5 49.5q0 18 -8 36t-22 33.5t-32 28.5q-5 2 -10 5zM38 1q-26 -1 -55 -1q-18 0 -33 16.5t-15 53.5v11q0 39 24 56.5t61 17.5q72 0 109.5 12t58 37t31.5 62.5t31 87.5q4 7 21.5 31.5t54.5 33.5q24 5 39 5t18.5 -3.5t3.5 -10.5q0 -8 -2.5 -14.5t-4.5 -10.5
q-10 -18 -18 -45.5t-8 -55.5q0 -64 46.5 -96.5t166.5 -32.5q28 0 38.5 -17.5t10.5 -56.5v-9q0 -42 -23 -57t-62 -15q-43 0 -81.5 5.5t-70.5 21t-53.5 42t-27.5 71.5q-20 -35 -42 -62q-14 -15 -30 -28q8 -7 16 -16q18 -20 29.5 -47t11.5 -59q0 -28 -9 -57t-27.5 -52.5
t-46 -38.5t-67.5 -15q-56 0 -92 31t-36 93q0 40 18 82q7 15 15 30z" />
    <glyph glyph-name="uni067C.fina" unicode="&#x67c;" horiz-adv-x="1819" 
d="M766 894q24 0 61 -37q14 -14 25 -31.5t11 -26.5t-17 -26.5t-33 -33.5q-26 -21 -34 -31.5t-19 -10.5q-9 0 -21 15t-27 29q-17 17 -33.5 30t-16.5 22q0 8 12 25.5t29 34t34.5 29t28.5 12.5zM1007 894q24 0 61 -37q15 -14 26 -31.5t11 -26.5t-17.5 -26.5t-32.5 -33.5
q-26 -21 -34.5 -31.5t-19.5 -10.5q-9 0 -21 15t-26 29q-17 17 -33.5 30t-16.5 22q0 8 12 25.5t28.5 34t34 29t28.5 12.5zM758 -57q-10 0 -21 -1q-3 -1 -5 -3q-11 -10 -21 -26.5t-18 -37t-8 -43.5q0 -13 4.5 -26t14 -23.5t24.5 -16.5t37 -6q39 0 60.5 22.5t21.5 49.5
q0 18 -8 36t-22 33.5t-32 28.5q-13 8 -27 13zM671 -59h-25q-148 0 -253.5 13.5t-177 37.5t-114 56.5t-65.5 67.5t-29.5 73t-6.5 75q0 33 5.5 67.5t16 65.5t22 59t24.5 44q18 28 67 30q22 0 22 -14q0 -9 -13 -44q-9 -25 -17.5 -61t-8.5 -79q0 -40 20.5 -81t80 -74t170.5 -53
t292 -20q148 0 288.5 21t255 57t194 80t103.5 92q4 7 21.5 31.5t54.5 33.5q23 5 38 5t18.5 -3.5t3.5 -10.5q0 -8 -2.5 -14.5t-4.5 -10.5q-9 -18 -17.5 -45.5t-8.5 -55.5q0 -64 47 -96.5t167 -32.5q28 0 38 -17.5t10 -56.5v-9q0 -42 -23 -57t-62 -15q-42 0 -88.5 3.5
t-88 18.5t-73.5 46.5t-45 86.5q-192 -118 -414 -166q-115 -25 -231 -38q17 -19 29 -46q11 -27 11 -59q0 -28 -9 -57t-27.5 -52.5t-46 -38.5t-67.5 -15q-56 0 -92 31t-36 93q0 40 18 82q11 25 29 52z" />
    <glyph glyph-name="uni067D.init" unicode="&#x67d;" horiz-adv-x="471" 
d="M155 467q-7 12 -7 26q0 25 36 93q29 56 52 56q25 0 53 -85q15 -43 28.5 -100t13.5 -131q0 -149 -90 -237.5t-258 -88.5q-18 0 -33 16.5t-15 53.5v11q0 39 24 56.5t61 17.5q59 0 98 12t61.5 30.5t31.5 40.5t9 44q0 33 -19 86t-46 99zM88 1285q11 0 27.5 -10.5t32.5 -26.5
q15 -15 26 -32.5t11 -26.5t-17.5 -26.5t-31.5 -32.5q-26 -22 -34 -32t-20 -10q-9 0 -21.5 14.5t-26.5 29.5q-16 16 -32.5 29t-16.5 22q0 8 11.5 25.5t28 34t34 29.5t29.5 13zM329 1285q11 0 28 -10.5t33 -26.5q15 -15 26 -32.5t11 -26.5t-17.5 -26.5l-32.5 -32.5
q-26 -22 -34 -32t-19 -10q-10 0 -21.5 14.5t-27.5 29.5q-16 16 -32.5 29t-16.5 22q0 8 12 25.5t29 34t34.5 29.5t27.5 13zM204 1076q11 0 27.5 -10t33.5 -27q14 -14 25.5 -31.5t11.5 -26.5t-18 -26.5t-32 -33.5q-26 -21 -34 -31.5t-20 -10.5q-9 0 -20.5 15t-27.5 29
q-16 17 -32.5 29.5t-16.5 22.5q0 8 11.5 25.5t28 34t34.5 29t29 12.5z" />
    <glyph glyph-name="uni067D.medi" unicode="&#x67d;" horiz-adv-x="547" 
d="M616 72q0 -42 -23 -57t-62 -15q-43 0 -81.5 5.5t-70.5 21t-53.5 42t-27.5 71.5q-20 -35 -43 -62t-57 -44.5t-86 -25.5t-129 -8q-18 0 -33 16.5t-15 53.5v11q0 39 24 56.5t61 17.5q72 0 109.5 12t58 37t31.5 62.5t31 87.5q4 7 21.5 31.5t54.5 33.5q24 5 39 5t18.5 -3.5
t3.5 -10.5q0 -8 -2.5 -14.5t-4.5 -10.5q-10 -18 -18 -45.5t-8 -55.5q0 -64 46.5 -96.5t166.5 -32.5q28 0 38.5 -17.5t10.5 -56.5v-9zM170 1107q11 0 27.5 -10.5t32.5 -26.5q15 -15 26 -33t11 -27t-17.5 -26.5l-31.5 -31.5q-26 -23 -34.5 -32.5t-19.5 -9.5q-9 0 -21.5 14
t-26.5 30q-16 16 -33 29t-17 22q0 7 12 24.5t28.5 34.5t34 30t29.5 13zM411 1107q11 0 28 -10.5t33 -26.5q15 -15 26 -33t11 -27t-17.5 -26.5t-32.5 -31.5q-26 -23 -34 -32.5t-19 -9.5q-10 0 -21.5 14t-27.5 30t-32.5 29t-16.5 22q0 7 12 24.5t28.5 34.5t34.5 30t28 13z
M286 898q11 0 27.5 -10t33.5 -27q14 -14 25.5 -32t11.5 -27t-18 -26.5t-32 -32.5q-26 -22 -34 -32t-20 -10q-9 0 -20.5 14.5t-27.5 29.5q-16 17 -32.5 29.5t-16.5 22.5q0 7 11.5 24.5t28 34.5t34.5 29.5t29 12.5z" />
    <glyph glyph-name="uni067D.fina" unicode="&#x67d;" horiz-adv-x="1819" 
d="M1522 354q4 7 21.5 31.5t54.5 33.5q23 5 38 5t18.5 -3.5t3.5 -10.5q0 -8 -2.5 -14.5t-4.5 -10.5q-9 -18 -17.5 -45.5t-8.5 -55.5q0 -64 47 -96.5t167 -32.5q28 0 38 -17.5t10 -56.5v-9q0 -42 -23 -57t-62 -15q-42 0 -88.5 3.5t-88 18.5t-73.5 46.5t-45 86.5
q-192 -118 -414 -166t-447 -48q-148 0 -253.5 13.5t-177 37.5t-114 56.5t-65.5 67.5t-29.5 73t-6.5 75q0 33 5.5 67.5t16 65.5t22 59t24.5 44q18 28 67 30q22 0 22 -14q0 -9 -13 -44q-9 -25 -17.5 -61t-8.5 -79q0 -40 20.5 -81t80 -74t170.5 -53t292 -20q148 0 288.5 21
t255 57t194 80t103.5 92zM699 1101q11 0 27.5 -10.5t32.5 -26.5q15 -16 26 -33.5t11 -26.5t-17.5 -26.5l-31.5 -31.5q-27 -23 -35 -33t-19 -10q-9 0 -21.5 14.5t-26.5 29.5q-16 17 -33 30t-17 22q0 7 12 24.5t28.5 34t34 30t29.5 13.5zM940 1101q11 0 27.5 -10.5t33.5 -26.5
q15 -16 26 -33.5t11 -26.5t-18 -26.5t-32 -31.5q-26 -23 -34 -33t-19 -10q-10 0 -21.5 14.5t-27.5 29.5q-16 17 -32.5 30t-16.5 22q0 7 12 24.5t28.5 34t34 30t28.5 13.5zM815 892q11 0 27.5 -10t32.5 -27q15 -15 26 -32.5t11 -26.5t-17.5 -26.5t-31.5 -32.5
q-26 -22 -34.5 -32.5t-19.5 -10.5q-9 0 -21 15t-27 30q-16 17 -33 29.5t-17 22.5q0 7 12 24.5t28.5 34t34 29.5t29.5 13z" />
    <glyph glyph-name="uni0681.init" unicode="&#x681;" horiz-adv-x="1205" 
d="M1016 472q26 0 37.5 -2.5t11.5 -17.5t-11 -44q-7 -23 -14 -36.5t-20 -21t-32.5 -10t-49.5 -2.5q-75 0 -143 -28t-165 -96q-70 -50 -132.5 -89.5t-135.5 -67t-163 -42.5t-216 -15q-18 0 -33 16.5t-15 53.5v11q0 39 23 56.5t60 17.5q151 2 246 25t162.5 56t120 71t118.5 71
q-42 16 -91 34t-97 32t-90 23t-72 9q-46 0 -76.5 -3t-46.5 -3q-25 0 -25 14t10.5 35t21.5 40q26 41 54.5 52.5t66.5 11.5q62 0 129 -24t150 -51t185.5 -51.5t231.5 -24.5zM664 953q0 -32 -19 -42.5t-72 -31.5q-111 -39 -173 -75t-71 -36q-8 0 -8 17q0 15 6.5 37t19.5 32
q17 14 29 18.5t35 18.5q-23 11 -41.5 33.5t-18.5 61.5t17.5 73t46 60.5t65.5 42.5t76 16q64 0 64 -48q0 -15 -5.5 -30.5t-13.5 -15.5q-9 0 -24.5 8.5t-50.5 8.5q-31 0 -65 -23t-34 -66q0 -31 26.5 -48t63.5 -17q42 0 69 13.5t58 27.5q2 2 8 2q9 0 10.5 -12.5t1.5 -24.5z" />
    <glyph glyph-name="uni0681.medi" unicode="&#x681;" horiz-adv-x="1111" 
d="M1016 472q26 0 37.5 -2.5t11.5 -17.5t-11 -44q-14 -37 -29 -52t-55 -18q-4 -12 -9.5 -31.5t-5.5 -44.5q0 -54 36.5 -80.5t140.5 -26.5q28 0 38 -17.5t10 -56.5v-9q0 -42 -23 -57t-62 -15q-77 0 -129 14t-82 38t-43 55.5t-13 66.5q0 39 9 84t18 71q-49 -12 -101.5 -39.5
t-123.5 -75.5q-70 -50 -132.5 -89.5t-135.5 -67t-163 -42.5t-216 -15q-18 0 -33 16.5t-15 53.5v11q0 39 23 56.5t60 17.5q151 2 246 25t162.5 56t120 71t118.5 71q-42 16 -91 34t-97 32t-90 23t-72 9q-46 0 -76.5 -3t-46.5 -3q-25 0 -25 14t10.5 35t21.5 40q26 41 54.5 52.5
t66.5 11.5q62 0 129 -24t150 -51t185.5 -51.5t231.5 -24.5zM710 953q0 -32 -19.5 -42.5t-72.5 -31.5q-111 -39 -173 -75t-71 -36q-8 0 -8 17q0 15 6.5 37t20.5 32q16 14 28 18.5t35 18.5q-23 11 -41.5 33.5t-18.5 61.5t17.5 73t46 60.5t65.5 42.5t76 16q64 0 64 -48
q0 -15 -5.5 -30.5t-13.5 -15.5q-9 0 -24.5 8.5t-50.5 8.5q-31 0 -65 -23t-34 -66q0 -31 26.5 -48t63.5 -17q42 0 69 13.5t58 27.5q2 2 8 2q9 0 11 -12.5t2 -24.5z" />
    <glyph glyph-name="uni0681.fina" unicode="&#x681;" horiz-adv-x="987" 
d="M838 306q-8 -16 -8 -44q0 -54 37 -80.5t140 -26.5q28 0 38 -17.5t10 -56.5v-9q0 -42 -23 -57t-62 -15q-77 0 -128.5 14t-82 38t-44 55.5t-13.5 66.5q0 30 6 63.5t13 61.5q-135 -15 -243.5 -64.5t-184 -126t-117 -177t-41.5 -216.5q0 -108 39.5 -199t114 -157.5
t181.5 -103.5t240 -37q72 0 121 8t82.5 17.5t53.5 18t33 8.5q7 0 7 -8q0 -9 -12.5 -27.5t-22.5 -31.5q-55 -70 -135 -97.5t-189 -27.5q-122 0 -238 35t-207.5 108t-147 186.5t-55.5 270.5q0 141 47 252.5t118 193.5t154 136.5t155 82.5q-16 7 -48 15t-69.5 14t-78 9.5
t-75.5 3.5q-34 0 -61.5 -2.5t-47.5 -2.5q-29 0 -29 13q0 9 13.5 34t28.5 43q30 37 59 50t72 13q40 0 111.5 -15t150.5 -32.5t155.5 -32t129.5 -14.5t83 3t49 3q26 0 37.5 -3t11.5 -18q0 -14 -10 -44q-16 -44 -37 -59t-81 -15zM664 917q0 -32 -19.5 -42.5t-72.5 -31.5
q-111 -39 -173 -75t-71 -36q-7 0 -7 17q0 15 6 37t20 32q16 14 28 18.5t36 18.5q-24 10 -42.5 33t-18.5 62t17.5 73t46 60.5t65.5 42.5t76 16q65 0 65 -48q0 -15 -6 -30.5t-13 -15.5q-9 0 -25 8.5t-51 8.5q-31 0 -65 -23t-34 -66q0 -31 26.5 -48t63.5 -17q42 0 69 13.5
t58 27.5q2 2 8 2q9 0 11 -12.5t2 -24.5z" />
    <glyph glyph-name="uni0682.init" unicode="&#x682;" horiz-adv-x="1205" 
d="M1016 472q26 0 37.5 -2.5t11.5 -17.5t-11 -44q-7 -23 -14 -36.5t-20 -21t-32.5 -10t-49.5 -2.5q-75 0 -143 -28t-165 -96q-70 -50 -132.5 -89.5t-135.5 -67t-163 -42.5t-216 -15q-18 0 -33 16.5t-15 53.5v11q0 39 23 56.5t60 17.5q151 2 246 25t162.5 56t120 71t118.5 71
q-42 16 -91 34t-97 32t-90 23t-72 9q-46 0 -76.5 -3t-46.5 -3q-25 0 -25 14t10.5 35t21.5 40q26 41 54.5 52.5t66.5 11.5q62 0 129 -24t150 -51t185.5 -51.5t231.5 -24.5zM468 1155q24 0 61 -37q15 -15 26 -32.5t11 -26.5t-17.5 -26.5l-32.5 -32.5q-25 -22 -33.5 -32.5
t-19.5 -10.5q-9 0 -21.5 15t-26.5 29q-17 18 -33.5 30.5t-16.5 22.5q0 7 12 24.5t28.5 34t34 29.5t28.5 13zM468 929q24 0 61 -36q15 -15 26 -32.5t11 -26.5t-17.5 -26.5l-32.5 -32.5q-25 -22 -33.5 -32.5t-19.5 -10.5q-9 0 -21.5 15t-26.5 29q-17 17 -33.5 30t-16.5 23
q0 7 12 24.5t28.5 34t34 29t28.5 12.5z" />
    <glyph glyph-name="uni0682.medi" unicode="&#x682;" horiz-adv-x="1111" 
d="M1016 472q26 0 37.5 -2.5t11.5 -17.5t-11 -44q-14 -37 -29 -52t-55 -18q-4 -12 -9.5 -31.5t-5.5 -44.5q0 -54 36.5 -80.5t140.5 -26.5q28 0 38 -17.5t10 -56.5v-9q0 -42 -23 -57t-62 -15q-77 0 -129 14t-82 38t-43 55.5t-13 66.5q0 39 9 84t18 71q-49 -12 -101.5 -39.5
t-123.5 -75.5q-70 -50 -132.5 -89.5t-135.5 -67t-163 -42.5t-216 -15q-18 0 -33 16.5t-15 53.5v11q0 39 23 56.5t60 17.5q151 2 246 25t162.5 56t120 71t118.5 71q-42 16 -91 34t-97 32t-90 23t-72 9q-46 0 -76.5 -3t-46.5 -3q-25 0 -25 14t10.5 35t21.5 40q26 41 54.5 52.5
t66.5 11.5q62 0 129 -24t150 -51t185.5 -51.5t231.5 -24.5zM531 1155q25 0 61 -37q15 -15 26 -32.5t11 -26.5t-17.5 -26.5l-32.5 -32.5q-25 -22 -33.5 -32.5t-19.5 -10.5q-9 0 -21.5 15t-26.5 29q-17 18 -33.5 30.5t-16.5 22.5q0 7 12 24.5t28.5 34t34 29.5t28.5 13z
M531 929q25 0 61 -36q15 -15 26 -32.5t11 -26.5t-17.5 -26.5l-32.5 -32.5q-25 -22 -33.5 -32.5t-19.5 -10.5q-9 0 -21.5 15t-26.5 29q-17 17 -33.5 30t-16.5 23q0 7 12 24.5t28.5 34t34 29t28.5 12.5z" />
    <glyph glyph-name="uni0682.fina" unicode="&#x682;" horiz-adv-x="987" 
d="M838 306q-8 -16 -8 -44q0 -54 37 -80.5t140 -26.5q28 0 38 -17.5t10 -56.5v-9q0 -42 -23 -57t-62 -15q-77 0 -128.5 14t-82 38t-44 55.5t-13.5 66.5q0 30 6 63.5t13 61.5q-135 -15 -243.5 -64.5t-184 -126t-117 -177t-41.5 -216.5q0 -108 39.5 -199t114 -157.5
t181.5 -103.5t240 -37q72 0 121 8t82.5 17.5t53.5 18t33 8.5q7 0 7 -8q0 -9 -12.5 -27.5t-22.5 -31.5q-55 -70 -135 -97.5t-189 -27.5q-122 0 -238 35t-207.5 108t-147 186.5t-55.5 270.5q0 141 47 252.5t118 193.5t154 136.5t155 82.5q-16 7 -48 15t-69.5 14t-78 9.5
t-75.5 3.5q-34 0 -61.5 -2.5t-47.5 -2.5q-29 0 -29 13q0 9 13.5 34t28.5 43q30 37 59 50t72 13q40 0 111.5 -15t150.5 -32.5t155.5 -32t129.5 -14.5t83 3t49 3q26 0 37.5 -3t11.5 -18q0 -14 -10 -44q-16 -44 -37 -59t-81 -15zM503 1155q25 0 62 -37q14 -15 25.5 -32.5
t11.5 -26.5t-18 -26.5t-33 -32.5q-25 -22 -33.5 -32.5t-19.5 -10.5q-9 0 -21 15t-27 29q-17 18 -33.5 30.5t-16.5 22.5q0 7 12 24.5t29 34t34.5 29.5t27.5 13zM503 929q25 0 62 -36q14 -15 25.5 -32.5t11.5 -26.5t-18 -26.5t-33 -32.5q-25 -22 -33.5 -32.5t-19.5 -10.5
q-9 0 -21 15t-27 29q-17 17 -33.5 30t-16.5 23q0 7 12 24.5t29 34t34.5 29t27.5 12.5z" />
    <glyph glyph-name="uni0685.init" unicode="&#x685;" horiz-adv-x="1205" 
d="M1016 472q26 0 37.5 -2.5t11.5 -17.5t-11 -44q-7 -23 -14 -36.5t-20 -21t-32.5 -10t-49.5 -2.5q-75 0 -143 -28t-165 -96q-70 -50 -132.5 -89.5t-135.5 -67t-163 -42.5t-216 -15q-18 0 -33 16.5t-15 53.5v11q0 39 23 56.5t60 17.5q151 2 246 25t162.5 56t120 71t118.5 71
q-42 16 -91 34t-97 32t-90 23t-72 9q-46 0 -76.5 -3t-46.5 -3q-25 0 -25 14t10.5 35t21.5 40q26 41 54.5 52.5t66.5 11.5q62 0 129 -24t150 -51t185.5 -51.5t231.5 -24.5zM347 930q23 0 60 -37q15 -14 26 -31.5t11 -26.5t-17.5 -26.5t-32.5 -33.5q-26 -21 -34 -31.5
t-19 -10.5q-10 0 -21.5 15t-26.5 29q-17 17 -33.5 30t-16.5 22q0 8 12 25.5t29 34t34.5 29t28.5 12.5zM588 930q24 0 61 -37q15 -14 26 -31.5t11 -26.5t-17.5 -26.5t-32.5 -33.5q-26 -21 -34.5 -31.5t-18.5 -10.5q-9 0 -21.5 15t-26.5 29q-17 17 -34 30t-17 22
q0 8 12.5 25.5t29 34t34 29t28.5 12.5zM470 1154q24 0 61 -37q15 -15 26 -32.5t11 -26.5q0 -10 -17.5 -27.5t-32.5 -31.5q-26 -23 -34.5 -33t-18.5 -10q-9 0 -21.5 15t-26.5 30q-17 17 -34 29.5t-17 21.5q0 8 12.5 25.5t29 34t34 29.5t28.5 13z" />
    <glyph glyph-name="uni0685.medi" unicode="&#x685;" horiz-adv-x="1111" 
d="M1016 472q26 0 37.5 -2.5t11.5 -17.5t-11 -44q-14 -37 -29 -52t-55 -18q-4 -12 -9.5 -31.5t-5.5 -44.5q0 -54 36.5 -80.5t140.5 -26.5q28 0 38 -17.5t10 -56.5v-9q0 -42 -23 -57t-62 -15q-77 0 -129 14t-82 38t-43 55.5t-13 66.5q0 39 9 84t18 71q-49 -12 -101.5 -39.5
t-123.5 -75.5q-70 -50 -132.5 -89.5t-135.5 -67t-163 -42.5t-216 -15q-18 0 -33 16.5t-15 53.5v11q0 39 23 56.5t60 17.5q151 2 246 25t162.5 56t120 71t118.5 71q-42 16 -91 34t-97 32t-90 23t-72 9q-46 0 -76.5 -3t-46.5 -3q-25 0 -25 14t10.5 35t21.5 40q26 41 54.5 52.5
t66.5 11.5q62 0 129 -24t150 -51t185.5 -51.5t231.5 -24.5zM410 930q23 0 60 -37q15 -14 26 -31.5t11 -26.5t-17.5 -26.5t-32.5 -33.5q-26 -21 -34 -31.5t-19 -10.5q-10 0 -21.5 15t-26.5 29q-17 17 -33.5 30t-16.5 22q0 8 12 25.5t29 34t34.5 29t28.5 12.5zM651 930
q24 0 61 -37q15 -14 26 -31.5t11 -26.5t-17.5 -26.5t-32.5 -33.5q-25 -21 -34 -31.5t-19 -10.5q-9 0 -21.5 15t-26.5 29q-17 17 -34 30t-17 22q0 8 12.5 25.5t29 34t34 29t28.5 12.5zM533 1154q24 0 61 -37q15 -15 26 -32.5t11 -26.5q0 -10 -17.5 -27.5t-32.5 -31.5
q-25 -23 -34 -33t-19 -10q-9 0 -21.5 15t-26.5 30q-17 17 -34 29.5t-17 21.5q0 8 12.5 25.5t29 34t34 29.5t28.5 13z" />
    <glyph glyph-name="uni0685.fina" unicode="&#x685;" horiz-adv-x="987" 
d="M838 306q-8 -16 -8 -44q0 -54 37 -80.5t140 -26.5q28 0 38 -17.5t10 -56.5v-9q0 -42 -23 -57t-62 -15q-77 0 -128.5 14t-82 38t-44 55.5t-13.5 66.5q0 30 6 63.5t13 61.5q-135 -15 -243.5 -64.5t-184 -126t-117 -177t-41.5 -216.5q0 -108 39.5 -199t114 -157.5
t181.5 -103.5t240 -37q72 0 121 8t82.5 17.5t53.5 18t33 8.5q7 0 7 -8q0 -9 -12.5 -27.5t-22.5 -31.5q-55 -70 -135 -97.5t-189 -27.5q-122 0 -238 35t-207.5 108t-147 186.5t-55.5 270.5q0 141 47 252.5t118 193.5t154 136.5t155 82.5q-16 7 -48 15t-69.5 14t-78 9.5
t-75.5 3.5q-34 0 -61.5 -2.5t-47.5 -2.5q-29 0 -29 13q0 9 13.5 34t28.5 43q30 37 59 50t72 13q40 0 111.5 -15t150.5 -32.5t155.5 -32t129.5 -14.5t83 3t49 3q26 0 37.5 -3t11.5 -18q0 -14 -10 -44q-16 -44 -37 -59t-81 -15zM382 930q23 0 60 -37q16 -14 26.5 -31.5
t10.5 -26.5t-17.5 -26.5t-31.5 -33.5q-27 -21 -35 -31.5t-19 -10.5q-9 0 -21 15t-27 29q-16 17 -33 30t-17 22q0 8 12.5 25.5t29 34t34 29t28.5 12.5zM623 930q25 0 61 -37q15 -14 26 -31.5t11 -26.5t-17.5 -26.5t-32.5 -33.5q-25 -21 -33.5 -31.5t-19.5 -10.5
q-9 0 -21.5 15t-26.5 29q-17 17 -33.5 30t-16.5 22q0 8 12 25.5t28.5 34t34 29t28.5 12.5zM505 1154q25 0 61 -37q15 -15 26 -32.5t11 -26.5q0 -10 -17.5 -27.5t-32.5 -31.5q-25 -23 -33.5 -33t-19.5 -10q-9 0 -21 15t-27 30q-17 17 -33.5 29.5t-16.5 21.5q0 8 12 25.5
t28.5 34t34 29.5t28.5 13z" />
    <glyph glyph-name="uni0689.fina" unicode="&#x689;" horiz-adv-x="949" 
d="M333 -20q-26 -4 -53 -7q-5 -6 -11 -15q-10 -17 -18 -37.5t-8 -43.5q0 -13 4.5 -26t14 -23.5t24.5 -16.5t37 -6q39 0 60.5 22.5t21.5 49.5q0 18 -8 36t-22 33.5t-32 28.5q-5 2 -10 5zM218 -30q-73 0 -115 16q-44 14 -66 35t-28.5 45t-6.5 41q0 32 6.5 44.5t14.5 12.5
q7 0 18 -5.5t35 -11t63 -11t101 -5.5q96 0 162.5 21.5t106 51.5t57 65t17.5 63q0 15 -23 119t-76 287q-5 15 -8.5 26.5t-3.5 20.5q0 19 13 35t45 36q35 24 51 24q15 0 22.5 -19.5t16.5 -59.5q39 -201 69.5 -326.5t66.5 -197t85.5 -97t126.5 -25.5q28 0 38 -17.5t10 -56.5v-9
q0 -42 -23 -57t-62 -15q-42 0 -83.5 6.5t-78.5 25.5t-69 54.5t-54 94.5q-95 -122 -198 -166q-16 -7 -34 -13q3 -2 5 -5q18 -20 29.5 -47t11.5 -59q0 -28 -9 -57t-27.5 -52.5t-46 -38.5t-67.5 -15q-56 0 -92 31t-36 93q0 40 18 82q7 18 18 36z" />
    <glyph glyph-name="uni068A.fina" unicode="&#x68a;" horiz-adv-x="946" 
d="M0 107q0 32 6.5 44.5t14.5 12.5q7 0 18 -5.5t35 -11t63 -11t101 -5.5q96 0 162.5 21.5t106 51.5t57 65t17.5 63q0 15 -23 119t-76 287q-5 15 -8.5 26.5t-3.5 20.5q0 19 13 35t45 36q35 24 51 24q15 0 22.5 -19.5t16.5 -59.5q39 -201 69.5 -326.5t66.5 -197t85.5 -97
t126.5 -25.5q28 0 38 -17.5t10 -56.5v-9q0 -42 -23 -57t-62 -15q-42 0 -83.5 6.5t-78.5 25.5t-69 54.5t-54 94.5q-95 -122 -199 -166.5t-225 -44.5q-76 0 -119.5 15t-65.5 36t-28.5 45t-6.5 41zM350 -203q12 0 28 -10t34 -27q14 -15 25.5 -32.5t11.5 -26.5t-18 -26.5
t-32 -32.5q-26 -22 -34.5 -32t-19.5 -10q-9 0 -21 14.5t-27 29.5q-17 16 -33 29.5t-16 22.5q0 7 11.5 24.5t28 34t34.5 29.5t28 13z" />
    <glyph glyph-name="uni068B.fina" unicode="&#x68b;" horiz-adv-x="946" 
d="M0 107q0 32 6.5 44.5t14.5 12.5q7 0 18 -5.5t35 -11t63 -11t101 -5.5q96 0 162.5 21.5t106 51.5t57 65t17.5 63q0 15 -23 119t-76 287q-5 15 -8.5 26.5t-3.5 20.5q0 19 13 35t45 36q35 24 51 24q15 0 22.5 -19.5t16.5 -59.5q39 -201 69.5 -326.5t66.5 -197t85.5 -97
t126.5 -25.5q28 0 38 -17.5t10 -56.5v-9q0 -42 -23 -57t-62 -15q-42 0 -83.5 6.5t-78.5 25.5t-69 54.5t-54 94.5q-95 -122 -199 -166.5t-225 -44.5q-76 0 -119.5 15t-65.5 36t-28.5 45t-6.5 41zM493 1527q7 2 16 2q15 0 18.5 -6.5t5.5 -21.5v-23q0 -12 2 -28v-10
q2 -31 4.5 -74.5t4.5 -91.5q39 35 75 49t64 14q64 0 92.5 -36t28.5 -80q0 -40 -18.5 -67t-50 -42.5t-72 -22t-84.5 -6.5h-90q-42 0 -74 3q-11 0 -23 9.5t-20.5 22t-14 25t-5.5 17.5q0 14 11 14q12 0 26.5 -5t40.5 -5q22 0 49 35q0 29 -2.5 65t-5.5 71.5t-6.5 66.5t-5.5 52
v29q0 18 6.5 28.5t27.5 15.5zM581 1164q85 0 119 14.5t34 39.5q0 16 -16.5 29t-40.5 13q-66 0 -138 -96h42zM350 -203q12 0 28 -10t34 -27q14 -15 25.5 -32.5t11.5 -26.5t-18 -26.5t-32 -32.5q-26 -22 -34.5 -32t-19.5 -10q-9 0 -21 14.5t-27 29.5q-17 16 -33 29.5t-16 22.5
q0 7 11.5 24.5t28 34t34.5 29.5t28 13z" />
    <glyph glyph-name="uni068F.fina" unicode="&#x68f;" horiz-adv-x="946" 
d="M0 107q0 32 6.5 44.5t14.5 12.5q7 0 18 -5.5t35 -11t63 -11t101 -5.5q96 0 162.5 21.5t106 51.5t57 65t17.5 63q0 15 -23 119t-76 287q-5 15 -8.5 26.5t-3.5 20.5q0 19 13 35t45 36q35 24 51 24q15 0 22.5 -19.5t16.5 -59.5q39 -201 69.5 -326.5t66.5 -197t85.5 -97
t126.5 -25.5q28 0 38 -17.5t10 -56.5v-9q0 -42 -23 -57t-62 -15q-42 0 -83.5 6.5t-78.5 25.5t-69 54.5t-54 94.5q-95 -122 -199 -166.5t-225 -44.5q-76 0 -119.5 15t-65.5 36t-28.5 45t-6.5 41zM390 1472q11 0 27.5 -10t32.5 -27q15 -15 26 -32.5t11 -26.5t-17.5 -26.5
t-31.5 -32.5q-26 -22 -34.5 -32.5t-19.5 -10.5q-9 0 -21 15t-27 30q-16 17 -33 30t-17 22q0 7 12 24.5t28.5 34t34 29.5t29.5 13zM631 1472q11 0 27.5 -10t33.5 -27q15 -15 26 -32.5t11 -26.5t-18 -26.5t-32 -32.5q-26 -22 -34 -32.5t-19 -10.5q-10 0 -21.5 15t-27.5 30
q-16 17 -32.5 30t-16.5 22q0 7 12 24.5t28.5 34t34.5 29.5t28 13zM506 1264q11 0 27.5 -10.5t32.5 -26.5q16 -15 26.5 -32.5t10.5 -27.5q0 -9 -17.5 -26.5l-31.5 -31.5q-26 -23 -34 -33t-20 -10q-9 0 -21 15t-27 29q-16 17 -32.5 30t-16.5 22q0 8 11.5 25t28 33.5t34 30
t29.5 13.5z" />
    <glyph glyph-name="uni0690.fina" unicode="&#x690;" horiz-adv-x="946" 
d="M0 107q0 32 6.5 44.5t14.5 12.5q7 0 18 -5.5t35 -11t63 -11t101 -5.5q96 0 162.5 21.5t106 51.5t57 65t17.5 63q0 15 -23 119t-76 287q-5 15 -8.5 26.5t-3.5 20.5q0 19 13 35t45 36q35 24 51 24q15 0 22.5 -19.5t16.5 -59.5q39 -201 69.5 -326.5t66.5 -197t85.5 -97
t126.5 -25.5q28 0 38 -17.5t10 -56.5v-9q0 -42 -23 -57t-62 -15q-42 0 -83.5 6.5t-78.5 25.5t-69 54.5t-54 94.5q-95 -122 -199 -166.5t-225 -44.5q-76 0 -119.5 15t-65.5 36t-28.5 45t-6.5 41zM386 1489q24 0 61 -37q15 -15 26 -32.5t11 -26.5t-17.5 -26.5l-32.5 -32.5
q-26 -22 -34 -32.5t-19 -10.5q-10 0 -21.5 15t-27.5 30q-16 17 -32.5 29.5t-16.5 22.5q0 7 12 24.5t28.5 34.5t34.5 29.5t28 12.5zM628 1489q24 0 61 -37q14 -15 25.5 -32.5t11.5 -26.5t-17.5 -26.5t-33.5 -32.5q-25 -22 -33.5 -32.5t-19.5 -10.5q-9 0 -21 15t-26 30
q-18 17 -34.5 29.5t-16.5 22.5q0 7 12 24.5t29 34.5t34.5 29.5t28.5 12.5zM386 1264q24 0 61 -37q15 -15 26 -32.5t11 -26.5t-17.5 -26.5l-32.5 -32.5q-26 -22 -34 -32.5t-19 -10.5q-10 0 -21.5 15t-27.5 29q-16 18 -32.5 30.5t-16.5 22.5q0 7 12 24.5t28.5 34t34.5 29.5
t28 13zM628 1264q24 0 61 -37q14 -15 25.5 -32.5t11.5 -26.5t-17.5 -26.5t-33.5 -32.5q-25 -22 -33.5 -32.5t-19.5 -10.5q-9 0 -21 15t-26 29q-18 18 -34.5 30.5t-16.5 22.5q0 7 12 24.5t29 34t34.5 29.5t28.5 13z" />
    <glyph glyph-name="uni0692.fina" unicode="&#x692;" horiz-adv-x="649" 
d="M69 -295q88 5 152.5 42t108 89.5t64 114.5t20.5 119q0 24 -15 81t-59 139q-12 22 -12 36q0 19 10.5 37.5t26.5 48.5q28 51 49 51t44 -67q44 -130 92 -185.5t118 -55.5q27 0 37.5 -17.5t10.5 -56.5v-9q0 -42 -23.5 -57t-61.5 -15q-33 0 -63.5 17.5t-44.5 45.5
q-5 -113 -38 -200.5t-83.5 -147.5t-113.5 -91.5t-126 -31.5q-44 0 -81 17.5t-63 43.5q-16 16 -16 28q0 15 15 16.5t52 7.5zM301 720q-11 0 -19 13l-168 263q-12 18 -12 27q0 10 14 17t19 7q12 0 29 -22l151 -186q12 -12 18 -12q7 0 18 14l149 184q18 22 30 22q5 0 19 -7
t14 -17q0 -9 -12 -27l-168 -263q-8 -13 -19 -13h-63z" />
    <glyph glyph-name="uni0693.fina" unicode="&#x693;" horiz-adv-x="649" 
d="M344 -340q-22 -18 -46 -31v-1q-11 -16 -18.5 -37t-7.5 -44q0 -13 4.5 -26t14 -23t24.5 -16t36 -6q40 0 61 22t21 49q0 18 -7.5 36t-21.5 34t-32 28q-13 8 -28 15zM227 -400q-32 -8 -65 -8q-44 0 -81 17.5t-63 43.5q-16 16 -16 28q0 15 15 16.5t52 7.5q88 5 152.5 42
t108 89.5t64 114.5t20.5 119q0 24 -15 81t-59 139q-12 22 -12 36q0 19 10.5 37.5t26.5 48.5q28 51 49 51t44 -67q44 -130 92 -185.5t118 -55.5q27 0 37.5 -17.5t10.5 -56.5v-9q0 -42 -23.5 -57t-61.5 -15q-33 0 -63.5 17.5t-44.5 45.5q-5 -113 -38 -200.5t-83 -147.5
q-3 -2 -5 -5q6 -4 11 -7q22 -16 40 -35.5t29 -46.5t11 -60q0 -28 -9 -56.5t-27.5 -52.5t-46 -39t-66.5 -15q-56 0 -92 31.5t-36 93.5q0 37 16 77z" />
    <glyph glyph-name="uni0694.fina" unicode="&#x694;" horiz-adv-x="649" 
d="M69 -295q88 5 152.5 42t108 89.5t64 114.5t20.5 119q0 24 -15 81t-59 139q-12 22 -12 36q0 19 10.5 37.5t26.5 48.5q28 51 49 51t44 -67q44 -130 92 -185.5t118 -55.5q27 0 37.5 -17.5t10.5 -56.5v-9q0 -42 -23.5 -57t-61.5 -15q-33 0 -63.5 17.5t-44.5 45.5
q-5 -113 -38 -200.5t-83.5 -147.5t-113.5 -91.5t-126 -31.5q-44 0 -81 17.5t-63 43.5q-16 16 -16 28q0 15 15 16.5t52 7.5zM338 -548q23 0 60 -37q16 -15 26.5 -32.5t10.5 -26.5q0 -10 -17.5 -27.5l-31.5 -31.5q-26 -23 -34.5 -33t-18.5 -10t-22 15t-27 29q-16 17 -33 30
t-17 22q0 8 12.5 25t29 33.5t33.5 30t29 13.5z" />
    <glyph glyph-name="uni0695.fina" unicode="&#x695;" horiz-adv-x="649" 
d="M69 -295q88 5 152.5 42t108 89.5t64 114.5t20.5 119q0 24 -15 81t-59 139q-12 22 -12 36q0 19 10.5 37.5t26.5 48.5q28 51 49 51t44 -67q44 -130 92 -185.5t118 -55.5q27 0 37.5 -17.5t10.5 -56.5v-9q0 -42 -23.5 -57t-61.5 -15q-33 0 -63.5 17.5t-44.5 45.5
q-5 -113 -38 -200.5t-83.5 -147.5t-113.5 -91.5t-126 -31.5q-44 0 -81 17.5t-63 43.5q-16 16 -16 28q0 15 15 16.5t52 7.5zM301 -818q-11 0 -19 14l-168 263q-12 18 -12 27q0 10 14 16.5t19 6.5q12 0 29 -21l151 -186q12 -13 18 -13q7 0 18 15l149 184q18 21 30 21
q5 0 19 -6.5t14 -16.5q0 -9 -12 -27l-168 -263q-8 -14 -19 -14h-63z" />
    <glyph glyph-name="uni0696.fina" unicode="&#x696;" horiz-adv-x="649" 
d="M69 -295q88 5 152.5 42t108 89.5t64 114.5t20.5 119q0 24 -15 81t-59 139q-12 22 -12 36q0 19 10.5 37.5t26.5 48.5q28 51 49 51t44 -67q44 -130 92 -185.5t118 -55.5q27 0 37.5 -17.5t10.5 -56.5v-9q0 -42 -23.5 -57t-61.5 -15q-33 0 -63.5 17.5t-44.5 45.5
q-5 -113 -38 -200.5t-83.5 -147.5t-113.5 -91.5t-126 -31.5q-44 0 -81 17.5t-63 43.5q-16 16 -16 28q0 15 15 16.5t52 7.5zM397 -498q24 0 61 -37q15 -14 26 -31.5t11 -27.5q0 -9 -17.5 -27t-32.5 -32q-26 -22 -34 -32t-19 -10q-10 0 -21.5 14.5t-27.5 29.5q-16 16 -32.5 29
t-16.5 22q0 8 12 25.5t28.5 34t34 29.5t28.5 13zM176 112q12 0 28 -10.5t33 -26.5q14 -16 25.5 -33.5t11.5 -26.5t-17.5 -26.5t-32.5 -31.5q-26 -23 -34.5 -33t-19.5 -10q-9 0 -21 14.5t-26 30.5q-17 16 -33.5 29t-16.5 22q0 7 12 24.5t28.5 34.5t34 30t28.5 13z" />
    <glyph glyph-name="uni0697.fina" unicode="&#x697;" horiz-adv-x="649" 
d="M69 -295q88 5 152.5 42t108 89.5t64 114.5t20.5 119q0 24 -15 81t-59 139q-12 22 -12 36q0 19 10.5 37.5t26.5 48.5q28 51 49 51t44 -67q44 -130 92 -185.5t118 -55.5q27 0 37.5 -17.5t10.5 -56.5v-9q0 -42 -23.5 -57t-61.5 -15q-33 0 -63.5 17.5t-44.5 45.5
q-5 -113 -38 -200.5t-83.5 -147.5t-113.5 -91.5t-126 -31.5q-44 0 -81 17.5t-63 43.5q-16 16 -16 28q0 15 15 16.5t52 7.5zM233 1050q24 0 61 -37q14 -14 25.5 -31.5t11.5 -26.5q0 -10 -17.5 -27.5t-33.5 -32.5q-25 -22 -33.5 -32t-19.5 -10q-9 0 -21 15t-27 29
q-17 16 -33.5 29t-16.5 22q0 8 12 25.5t29 34t34.5 29.5t28.5 13zM474 1050q24 0 61 -37q15 -14 26 -31.5t11 -26.5q0 -10 -17.5 -27.5t-31.5 -32.5q-27 -22 -35.5 -32t-18.5 -10q-9 0 -21.5 15t-26.5 29q-17 16 -33.5 29t-16.5 22q0 8 12 25.5t28.5 34t34 29.5t28.5 13z
" />
    <glyph glyph-name="uni0699.fina" unicode="&#x699;" horiz-adv-x="649" 
d="M69 -295q88 5 152.5 42t108 89.5t64 114.5t20.5 119q0 24 -15 81t-59 139q-12 22 -12 36q0 19 10.5 37.5t26.5 48.5q28 51 49 51t44 -67q44 -130 92 -185.5t118 -55.5q27 0 37.5 -17.5t10.5 -56.5v-9q0 -42 -23.5 -57t-61.5 -15q-33 0 -63.5 17.5t-44.5 45.5
q-5 -113 -38 -200.5t-83.5 -147.5t-113.5 -91.5t-126 -31.5q-44 0 -81 17.5t-63 43.5q-16 16 -16 28q0 15 15 16.5t52 7.5zM260 1264q23 0 60 -37q15 -15 26 -32.5t11 -26.5t-17.5 -26.5l-32.5 -32.5q-26 -22 -34 -32.5t-19 -10.5q-10 0 -21.5 15t-26.5 29
q-17 18 -33.5 30.5t-16.5 22.5q0 7 12 24.5t29 34t34.5 29.5t28.5 13zM501 1264q24 0 61 -37q15 -15 26 -32.5t11 -26.5t-17.5 -26.5l-32.5 -32.5q-26 -22 -34.5 -32.5t-18.5 -10.5q-9 0 -21.5 15t-26.5 29q-17 18 -34 30.5t-17 22.5q0 7 12.5 24.5t29 34t34 29.5t28.5 13z
M260 1038q23 0 60 -37q15 -14 26 -31.5t11 -26.5t-17.5 -26.5l-32.5 -32.5q-26 -22 -34 -32.5t-19 -10.5q-10 0 -21.5 15t-26.5 29q-17 17 -33.5 30t-16.5 23q0 7 12 24.5t29 34t34.5 29t28.5 12.5zM501 1038q24 0 61 -37q15 -14 26 -31.5t11 -26.5t-17.5 -26.5l-32.5 -32.5
q-26 -22 -34.5 -32.5t-18.5 -10.5q-9 0 -21.5 15t-26.5 29q-17 17 -34 30t-17 23q0 7 12.5 24.5t29 34t34 29t28.5 12.5z" />
    <glyph glyph-name="uni069A.init" unicode="&#x69a;" horiz-adv-x="1351" 
d="M20 155q59 0 95 11t59 36t39 62t34 90q5 12 21.5 34t53.5 31q25 5 39 5t18.5 -3.5t4.5 -10.5q0 -17 -18 -49t-18 -92q0 -53 41.5 -83.5t115.5 -30.5q42 0 69 10.5t46 30.5t33 51t30 74q16 37 34.5 63t55.5 35q23 5 38 5t18.5 -3.5t3.5 -10.5q0 -14 -17.5 -49t-17.5 -94
q0 -53 42 -82.5t115 -29.5q78 0 111.5 39.5t33.5 87.5q0 33 -19 86t-46 99q-8 12 -8 26q0 25 36 93q30 56 53 56q25 0 53 -85q14 -43 28 -100t14 -131q0 -73 -21 -133.5t-57 -103.5t-83 -66t-101 -23q-86 0 -140 38.5t-66 101.5q-35 -70 -84 -105t-138 -35
q-70 0 -132.5 30.5t-90.5 109.5q-20 -35 -43 -62t-57 -44.5t-86 -25.5t-129 -8q-18 0 -33 16.5t-15 53.5v11q0 39 24 56.5t61 17.5zM759 1005q24 0 61 -37q15 -15 26 -32t11 -27q0 -9 -17.5 -26.5t-31.5 -32.5q-26 -22 -34.5 -32t-19.5 -10q-9 0 -21.5 14.5t-26.5 29.5
q-16 16 -33 29t-17 22q0 8 12 25.5t28.5 34t34 29.5t28.5 13zM759 -203q12 0 28 -10t33 -27q15 -15 26 -32.5t11 -26.5t-17.5 -26.5t-31.5 -32.5q-26 -22 -35 -32t-19 -10q-9 0 -21.5 14.5t-26.5 29.5q-17 16 -33.5 29.5t-16.5 22.5q0 7 12 24.5t28.5 34t34 29.5t28.5 13z
" />
    <glyph glyph-name="uni069A.medi" unicode="&#x69a;" horiz-adv-x="1382" 
d="M933 0q-78 0 -128 38.5t-62 101.5q-35 -70 -84 -105t-138 -35q-70 0 -132.5 30.5t-90.5 109.5q-20 -35 -43 -62t-57 -44.5t-86 -25.5t-129 -8q-18 0 -33 16.5t-15 53.5v11q0 39 24 56.5t61 17.5q59 0 95 11t59 36t39 62t34 90q5 12 21.5 34t53.5 31q25 5 39 5t18.5 -3.5
t4.5 -10.5q0 -17 -18 -49t-18 -92q0 -53 41.5 -83.5t115.5 -30.5q42 0 69 10.5t46 30.5t33 51t30 74q16 37 34.5 63t55.5 35q23 5 38 5t18.5 -3.5t3.5 -10.5q0 -14 -17.5 -49t-17.5 -94q0 -53 38.5 -82.5t101.5 -29.5q58 0 96 26.5t56 58.5q-9 31 -16 61t-9 49v9
q0 17 10.5 35.5t47.5 44.5q16 11 26 11q14 0 19.5 -20t14.5 -52q12 -38 22 -79t31 -72.5t60 -51.5t107 -20q28 0 38 -17.5t10 -56.5v-9q0 -42 -23 -57t-62 -15q-162 0 -225 123q-31 -44 -81 -83.5t-127 -39.5zM758 1002q24 0 61 -37q15 -14 26 -31.5t11 -26.5
q0 -10 -17.5 -27.5t-31.5 -32.5q-26 -22 -34.5 -32t-19.5 -10q-9 0 -21.5 15t-26.5 29q-17 17 -33.5 30t-16.5 22q0 8 12 25.5t28.5 33.5t34 29t28.5 13zM758 -203q12 0 28 -10t33 -27q15 -15 26 -32.5t11 -26.5t-17.5 -26.5t-31.5 -32.5q-26 -22 -34.5 -32t-19.5 -10
q-9 0 -21.5 14.5t-26.5 29.5q-17 16 -33.5 29.5t-16.5 22.5q0 7 12 24.5t28.5 34t34 29.5t28.5 13z" />
    <glyph glyph-name="uni069A.fina" unicode="&#x69a;" horiz-adv-x="1876" 
d="M1426 0q-78 0 -128 38.5t-62 101.5q-34 -64 -79 -102t-131 -38q-37 0 -77.5 12t-72.5 43q-13 -101 -58 -178.5t-111.5 -130t-148.5 -79t-171 -26.5q-183 0 -285 86.5t-102 248.5q0 33 5.5 67t16 65.5t22 59t24.5 45.5q9 14 26 20.5t48 7.5q15 0 15 -10q0 -11 -6.5 -28
t-13 -39t-13 -51.5t-6.5 -68.5q0 -114 67.5 -179.5t214.5 -65.5q109 0 181 28.5t115 71t61 88.5t18 83q0 62 -14 113t-40 104q-9 21 -14 36t-5 29q0 32 28 74q36 56 54 56q20 0 40 -63q21 -56 30 -90.5t20 -73.5q15 -49 55.5 -74.5t88.5 -25.5q35 0 60 11t42.5 35t33 62
t36.5 91q3 7 20.5 31.5t54.5 33.5q25 5 39 5q15 0 19 -3.5t4 -10.5q0 -19 -18 -49t-18 -86q0 -59 38 -89.5t102 -30.5q58 0 95.5 26.5t55.5 58.5q-9 31 -15 61t-8 49v9q0 17 10 35.5t47 44.5q16 11 26 11q14 0 19.5 -20t15.5 -52q11 -38 21 -79t31.5 -72.5t60 -51.5
t106.5 -20q28 0 38 -17.5t10 -56.5v-9q0 -42 -23 -57t-62 -15q-162 0 -224 123q-32 -44 -82 -83.5t-127 -39.5zM1239 974q25 0 61 -36q15 -15 26 -32.5t11 -26.5q0 -10 -17.5 -27.5l-31.5 -31.5q-26 -23 -34 -33t-20 -10q-9 0 -21 15t-27 29q-16 17 -32.5 30t-16.5 22
q0 8 11.5 25.5t28 33.5t34 29t28.5 13zM1239 -203q12 0 28 -10t33 -27q15 -15 26 -32.5t11 -26.5t-17.5 -26.5t-31.5 -32.5q-26 -22 -34.5 -32t-19.5 -10q-9 0 -21 14.5t-27 29.5q-17 16 -33 29.5t-16 22.5q0 7 11.5 24.5t28 34t34 29.5t28.5 13z" />
    <glyph glyph-name="uni069B.init" unicode="&#x69b;" horiz-adv-x="1351" 
d="M20 155q59 0 95 11t59 36t39 62t34 90q5 12 21.5 34t53.5 31q25 5 39 5t18.5 -3.5t4.5 -10.5q0 -17 -18 -49t-18 -92q0 -53 41.5 -83.5t115.5 -30.5q42 0 69 10.5t46 30.5t33 51t30 74q16 37 34.5 63t55.5 35q23 5 38 5t18.5 -3.5t3.5 -10.5q0 -14 -17.5 -49t-17.5 -94
q0 -53 42 -82.5t115 -29.5q78 0 111.5 39.5t33.5 87.5q0 33 -19 86t-46 99q-8 12 -8 26q0 25 36 93q30 56 53 56q25 0 53 -85q14 -43 28 -100t14 -131q0 -73 -21 -133.5t-57 -103.5t-83 -66t-101 -23q-86 0 -140 38.5t-66 101.5q-35 -70 -84 -105t-138 -35
q-70 0 -132.5 30.5t-90.5 109.5q-20 -35 -43 -62t-57 -44.5t-86 -25.5t-129 -8q-18 0 -33 16.5t-15 53.5v11q0 39 24 56.5t61 17.5zM617 -203q11 0 27.5 -10t33.5 -27q14 -15 25.5 -32.5t11.5 -26.5t-17.5 -26.5l-32.5 -32.5q-26 -22 -34.5 -32t-19.5 -10q-9 0 -21 14.5
t-26 29.5q-17 16 -33.5 29.5t-16.5 22.5q0 7 12 24.5t28.5 34t34 29.5t28.5 13zM859 -203q11 0 27.5 -10t32.5 -27q16 -15 26.5 -32.5t10.5 -26.5t-17.5 -26.5t-31.5 -32.5q-26 -22 -34.5 -32t-19.5 -10q-9 0 -21 14.5t-27 29.5q-16 16 -33 29.5t-17 22.5q0 7 12.5 24.5
t28.5 34t33.5 29.5t29.5 13zM733 -412q12 0 28.5 -9.5t32.5 -27.5q15 -14 26 -31.5t11 -26.5t-17.5 -26.5t-31.5 -32.5q-27 -22 -35.5 -32.5t-18.5 -10.5q-9 0 -21.5 15t-26.5 29q-16 17 -33 30t-17 23q0 7 12 24.5t28.5 34t34 29t28.5 12.5z" />
    <glyph glyph-name="uni069B.medi" unicode="&#x69b;" horiz-adv-x="1382" 
d="M933 0q-78 0 -128 38.5t-62 101.5q-35 -70 -84 -105t-138 -35q-70 0 -132.5 30.5t-90.5 109.5q-20 -35 -43 -62t-57 -44.5t-86 -25.5t-129 -8q-18 0 -33 16.5t-15 53.5v11q0 39 24 56.5t61 17.5q59 0 95 11t59 36t39 62t34 90q5 12 21.5 34t53.5 31q25 5 39 5t18.5 -3.5
t4.5 -10.5q0 -17 -18 -49t-18 -92q0 -53 41.5 -83.5t115.5 -30.5q42 0 69 10.5t46 30.5t33 51t30 74q16 37 34.5 63t55.5 35q23 5 38 5t18.5 -3.5t3.5 -10.5q0 -14 -17.5 -49t-17.5 -94q0 -53 38.5 -82.5t101.5 -29.5q58 0 96 26.5t56 58.5q-9 31 -16 61t-9 49v9
q0 17 10.5 35.5t47.5 44.5q16 11 26 11q14 0 19.5 -20t14.5 -52q12 -38 22 -79t31 -72.5t60 -51.5t107 -20q28 0 38 -17.5t10 -56.5v-9q0 -42 -23 -57t-62 -15q-162 0 -225 123q-31 -44 -81 -83.5t-127 -39.5zM572 -203q11 0 27.5 -10t33.5 -27q14 -15 25.5 -32.5
t11.5 -26.5t-17.5 -26.5l-32.5 -32.5q-26 -22 -34.5 -32t-19.5 -10q-9 0 -21 14.5t-26 29.5q-17 16 -33.5 29.5t-16.5 22.5q0 7 11.5 24.5t28.5 34t34.5 29.5t28.5 13zM814 -203q11 0 27.5 -10t32.5 -27q16 -15 26.5 -32.5t10.5 -26.5t-17.5 -26.5t-31.5 -32.5
q-26 -22 -34.5 -32t-19.5 -10q-9 0 -21 14.5t-27 29.5q-16 16 -33 29.5t-17 22.5q0 7 12.5 24.5t28.5 34t33.5 29.5t29.5 13zM688 -412q12 0 28.5 -9.5t32.5 -27.5q15 -14 26 -31.5t11 -26.5t-17.5 -26.5t-31.5 -32.5q-27 -22 -35.5 -32.5t-18.5 -10.5q-9 0 -21.5 15
t-26.5 29q-16 17 -33 30t-17 23q0 7 12 24.5t28.5 34t34 29t28.5 12.5z" />
    <glyph glyph-name="uni069B.fina" unicode="&#x69b;" horiz-adv-x="1876" 
d="M1426 0q-78 0 -128 38.5t-62 101.5q-34 -64 -79 -102t-131 -38q-37 0 -77.5 12t-72.5 43q-13 -101 -58 -178.5t-111.5 -130t-148.5 -79t-171 -26.5q-183 0 -285 86.5t-102 248.5q0 33 5.5 67t16 65.5t22 59t24.5 45.5q9 14 26 20.5t48 7.5q15 0 15 -10q0 -11 -6.5 -28
t-13 -39t-13 -51.5t-6.5 -68.5q0 -114 67.5 -179.5t214.5 -65.5q109 0 181 28.5t115 71t61 88.5t18 83q0 62 -14 113t-40 104q-9 21 -14 36t-5 29q0 32 28 74q36 56 54 56q20 0 40 -63q21 -56 30 -90.5t20 -73.5q15 -49 55.5 -74.5t88.5 -25.5q35 0 60 11t42.5 35t33 62
t36.5 91q3 7 20.5 31.5t54.5 33.5q25 5 39 5q15 0 19 -3.5t4 -10.5q0 -19 -18 -49t-18 -86q0 -59 38 -89.5t102 -30.5q58 0 95.5 26.5t55.5 58.5q-9 31 -15 61t-8 49v9q0 17 10 35.5t47 44.5q16 11 26 11q14 0 19.5 -20t15.5 -52q11 -38 21 -79t31.5 -72.5t60 -51.5
t106.5 -20q28 0 38 -17.5t10 -56.5v-9q0 -42 -23 -57t-62 -15q-162 0 -224 123q-32 -44 -82 -83.5t-127 -39.5zM1084 -203q12 0 28 -10t34 -27q14 -15 25.5 -32.5t11.5 -26.5t-18 -26.5t-32 -32.5q-26 -22 -34.5 -32t-19.5 -10q-9 0 -21 14.5t-27 29.5q-16 16 -32.5 29.5
t-16.5 22.5q0 7 11.5 24.5t28 34t34.5 29.5t28 13zM1327 -203q10 0 27 -10t33 -27q15 -15 26 -32.5t11 -26.5t-17.5 -26.5l-32.5 -32.5q-26 -22 -34 -32t-20 -10q-9 0 -20.5 14.5t-26.5 29.5q-17 16 -33.5 29.5t-16.5 22.5q0 7 12 24.5t28.5 34t34 29.5t29.5 13zM1201 -412
q11 0 28 -9.5t33 -27.5q14 -14 25.5 -31.5t11.5 -26.5t-17.5 -26.5l-32.5 -32.5q-26 -22 -34.5 -32.5t-19.5 -10.5q-9 0 -21 15t-27 29q-16 17 -32.5 30t-16.5 23q0 7 11.5 24.5t28.5 34t34.5 29t28.5 12.5z" />
    <glyph glyph-name="uni069C.init" unicode="&#x69c;" horiz-adv-x="1351" 
d="M20 155q59 0 95 11t59 36t39 62t34 90q5 12 21.5 34t53.5 31q25 5 39 5t18.5 -3.5t4.5 -10.5q0 -17 -18 -49t-18 -92q0 -53 41.5 -83.5t115.5 -30.5q42 0 69 10.5t46 30.5t33 51t30 74q16 37 34.5 63t55.5 35q23 5 38 5t18.5 -3.5t3.5 -10.5q0 -14 -17.5 -49t-17.5 -94
q0 -53 42 -82.5t115 -29.5q78 0 111.5 39.5t33.5 87.5q0 33 -19 86t-46 99q-8 12 -8 26q0 25 36 93q30 56 53 56q25 0 53 -85q14 -43 28 -100t14 -131q0 -73 -21 -133.5t-57 -103.5t-83 -66t-101 -23q-86 0 -140 38.5t-66 101.5q-35 -70 -84 -105t-138 -35
q-70 0 -132.5 30.5t-90.5 109.5q-20 -35 -43 -62t-57 -44.5t-86 -25.5t-129 -8q-18 0 -33 16.5t-15 53.5v11q0 39 24 56.5t61 17.5zM636 1077q24 0 61 -37q14 -14 25.5 -31.5t11.5 -26.5q0 -10 -17.5 -27.5t-33.5 -32.5q-25 -22 -33.5 -32t-19.5 -10q-9 0 -21 15t-26 29
q-18 16 -34 29t-16 22q0 8 11.5 25.5t28.5 34t34.5 29.5t28.5 13zM878 1077q23 0 60 -37q15 -14 26 -31.5t11 -26.5q0 -10 -17.5 -27.5t-31.5 -32.5q-26 -22 -34.5 -32t-19.5 -10q-9 0 -21 15t-27 29q-16 16 -33 29t-17 22q0 8 12 25.5t28.5 34t34 29.5t29.5 13zM759 1300
q24 0 61 -36q15 -16 26 -33t11 -27q0 -9 -17.5 -26.5l-31.5 -31.5q-26 -23 -34.5 -33t-19.5 -10q-9 0 -21.5 14.5t-26.5 29.5q-16 17 -33 30t-17 22q0 7 12 24.5t28.5 34t34 29.5t28.5 13zM617 -203q11 0 27.5 -10t33.5 -27q14 -15 25.5 -32.5t11.5 -26.5t-17.5 -26.5
l-32.5 -32.5q-26 -22 -34.5 -32t-19.5 -10q-9 0 -21 14.5t-26 29.5q-17 16 -33.5 29.5t-16.5 22.5q0 7 12 24.5t28.5 34t34 29.5t28.5 13zM859 -203q11 0 27.5 -10t32.5 -27q16 -15 26.5 -32.5t10.5 -26.5t-17.5 -26.5t-31.5 -32.5q-26 -22 -34.5 -32t-19.5 -10
q-9 0 -21 14.5t-27 29.5q-16 16 -33 29.5t-17 22.5q0 7 12.5 24.5t28.5 34t33.5 29.5t29.5 13zM733 -412q12 0 28.5 -9.5t32.5 -27.5q15 -14 26 -31.5t11 -26.5t-17.5 -26.5t-31.5 -32.5q-27 -22 -35.5 -32.5t-18.5 -10.5q-9 0 -21.5 15t-26.5 29q-16 17 -33 30t-17 23
q0 7 12 24.5t28.5 34t34 29t28.5 12.5z" />
    <glyph glyph-name="uni069C.medi" unicode="&#x69c;" horiz-adv-x="1382" 
d="M933 0q-78 0 -128 38.5t-62 101.5q-35 -70 -84 -105t-138 -35q-70 0 -132.5 30.5t-90.5 109.5q-20 -35 -43 -62t-57 -44.5t-86 -25.5t-129 -8q-18 0 -33 16.5t-15 53.5v11q0 39 24 56.5t61 17.5q59 0 95 11t59 36t39 62t34 90q5 12 21.5 34t53.5 31q25 5 39 5t18.5 -3.5
t4.5 -10.5q0 -17 -18 -49t-18 -92q0 -53 41.5 -83.5t115.5 -30.5q42 0 69 10.5t46 30.5t33 51t30 74q16 37 34.5 63t55.5 35q23 5 38 5t18.5 -3.5t3.5 -10.5q0 -14 -17.5 -49t-17.5 -94q0 -53 38.5 -82.5t101.5 -29.5q58 0 96 26.5t56 58.5q-9 31 -16 61t-9 49v9
q0 17 10.5 35.5t47.5 44.5q16 11 26 11q14 0 19.5 -20t14.5 -52q12 -38 22 -79t31 -72.5t60 -51.5t107 -20q28 0 38 -17.5t10 -56.5v-9q0 -42 -23 -57t-62 -15q-162 0 -225 123q-31 -44 -81 -83.5t-127 -39.5zM590 894q24 0 61 -37q14 -14 25.5 -31.5t11.5 -26.5
t-17.5 -26.5l-33.5 -33.5q-25 -21 -33.5 -31.5t-19.5 -10.5q-9 0 -21 15t-26 29q-18 17 -34.5 30t-16.5 22q0 8 12 25.5t29 34t34.5 29t28.5 12.5zM831 894q24 0 61 -37q15 -14 26 -31.5t11 -26.5t-17.5 -26.5t-31.5 -33.5q-26 -21 -34.5 -31.5t-19.5 -10.5q-9 0 -21.5 15
t-26.5 29q-16 17 -33 30t-17 22q0 8 12 25.5t28.5 34t34 29t28.5 12.5zM713 1118q24 0 61 -37q15 -15 26 -32.5t11 -26.5q0 -10 -17.5 -27.5l-31.5 -31.5q-26 -23 -34.5 -33t-19.5 -10q-9 0 -21.5 15t-26.5 30q-17 17 -33.5 29.5t-16.5 21.5q0 8 12 25.5t28.5 34t34 29.5
t28.5 13zM572 -203q11 0 27.5 -10t33.5 -27q14 -15 25.5 -32.5t11.5 -26.5t-17.5 -26.5l-32.5 -32.5q-26 -22 -34.5 -32t-19.5 -10q-9 0 -21 14.5t-26 29.5q-17 16 -33.5 29.5t-16.5 22.5q0 7 11.5 24.5t28.5 34t34.5 29.5t28.5 13zM814 -203q11 0 27.5 -10t32.5 -27
q16 -15 26.5 -32.5t10.5 -26.5t-17.5 -26.5t-31.5 -32.5q-26 -22 -34.5 -32t-19.5 -10q-9 0 -21 14.5t-27 29.5q-16 16 -33 29.5t-17 22.5q0 7 12.5 24.5t28.5 34t33.5 29.5t29.5 13zM688 -412q12 0 28.5 -9.5t32.5 -27.5q15 -14 26 -31.5t11 -26.5t-17.5 -26.5t-31.5 -32.5
q-27 -22 -35.5 -32.5t-18.5 -10.5q-9 0 -21.5 15t-26.5 29q-16 17 -33 30t-17 23q0 7 12 24.5t28.5 34t34 29t28.5 12.5z" />
    <glyph glyph-name="uni069C.fina" unicode="&#x69c;" horiz-adv-x="1876" 
d="M1426 0q-78 0 -128 38.5t-62 101.5q-34 -64 -79 -102t-131 -38q-37 0 -77.5 12t-72.5 43q-13 -101 -58 -178.5t-111.5 -130t-148.5 -79t-171 -26.5q-183 0 -285 86.5t-102 248.5q0 33 5.5 67t16 65.5t22 59t24.5 45.5q9 14 26 20.5t48 7.5q15 0 15 -10q0 -11 -6.5 -28
t-13 -39t-13 -51.5t-6.5 -68.5q0 -114 67.5 -179.5t214.5 -65.5q109 0 181 28.5t115 71t61 88.5t18 83q0 62 -14 113t-40 104q-9 21 -14 36t-5 29q0 32 28 74q36 56 54 56q20 0 40 -63q21 -56 30 -90.5t20 -73.5q15 -49 55.5 -74.5t88.5 -25.5q35 0 60 11t42.5 35t33 62
t36.5 91q3 7 20.5 31.5t54.5 33.5q25 5 39 5q15 0 19 -3.5t4 -10.5q0 -19 -18 -49t-18 -86q0 -59 38 -89.5t102 -30.5q58 0 95.5 26.5t55.5 58.5q-9 31 -15 61t-8 49v9q0 17 10 35.5t47 44.5q16 11 26 11q14 0 19.5 -20t15.5 -52q11 -38 21 -79t31.5 -72.5t60 -51.5
t106.5 -20q28 0 38 -17.5t10 -56.5v-9q0 -42 -23 -57t-62 -15q-162 0 -224 123q-32 -44 -82 -83.5t-127 -39.5zM1083 894q24 0 61 -37q14 -14 25.5 -31.5t11.5 -26.5t-17.5 -26.5l-33.5 -33.5q-25 -21 -33.5 -31.5t-19.5 -10.5q-9 0 -21 15t-27 29q-17 17 -33.5 30t-16.5 22
q0 8 12 25.5t29 34t34.5 29t28.5 12.5zM1324 894q24 0 61 -37q15 -14 26 -31.5t11 -26.5t-17.5 -26.5t-31.5 -33.5q-27 -21 -35 -31.5t-19 -10.5q-10 0 -22 15t-26 29q-16 17 -33 30t-17 22q0 8 12 25.5t28.5 34t34 29t28.5 12.5zM1206 1118q24 0 61 -37q15 -15 26 -32.5
t11 -26.5q0 -10 -17.5 -27.5l-31.5 -31.5q-27 -23 -35 -33t-19 -10q-9 0 -21.5 15t-26.5 30q-16 17 -33 29.5t-17 21.5q0 8 12 25.5t28.5 34t34 29.5t28.5 13zM1084 -203q12 0 28 -10t34 -27q14 -15 25.5 -32.5t11.5 -26.5t-18 -26.5t-32 -32.5q-26 -22 -34.5 -32t-19.5 -10
q-9 0 -21 14.5t-27 29.5q-16 16 -32.5 29.5t-16.5 22.5q0 7 11.5 24.5t28 34t34.5 29.5t28 13zM1327 -203q10 0 27 -10t33 -27q15 -15 26 -32.5t11 -26.5t-17.5 -26.5l-32.5 -32.5q-26 -22 -34 -32t-20 -10q-9 0 -20.5 14.5t-26.5 29.5q-17 16 -33.5 29.5t-16.5 22.5
q0 7 12 24.5t28.5 34t34 29.5t29.5 13zM1201 -412q11 0 28 -9.5t33 -27.5q14 -14 25.5 -31.5t11.5 -26.5t-17.5 -26.5l-32.5 -32.5q-26 -22 -34.5 -32.5t-19.5 -10.5q-9 0 -21 15t-27 29q-16 17 -32.5 30t-16.5 23q0 7 11.5 24.5t28.5 34t34.5 29t28.5 12.5z" />
    <glyph glyph-name="uni069D.init" unicode="&#x69d;" horiz-adv-x="1547" 
d="M250 354q4 9 21.5 32.5t54.5 32.5q24 5 39 5t18.5 -3.5t3.5 -10.5q0 -8 -2.5 -14.5t-4.5 -10.5q-10 -18 -18 -45.5t-8 -55.5q0 -33 10.5 -53.5t33 -33t54.5 -21t75 -16.5q87 141 172.5 229t165 137t148 67t119.5 18q68 0 119 -20.5t85.5 -55.5t52.5 -82t18 -103
q0 -186 -158 -283t-475 -97q-200 0 -327 40.5t-149 129.5q-20 -35 -43 -62t-57 -44.5t-86 -25.5t-129 -8q-18 0 -33 16.5t-15 53.5v11q0 39 24 56.5t61 17.5q72 0 109.5 13t57 38t31.5 61.5t32 86.5zM658 132q32 -3 83 -6t118 -3q113 0 193 15t131 40.5t74.5 61.5t23.5 81
q0 55 -45 96.5t-130 41.5q-114 0 -233 -83.5t-215 -243.5zM734 -203q12 0 28 -10t33 -27q14 -15 25.5 -32.5t11.5 -26.5t-17.5 -26.5l-32.5 -32.5q-26 -22 -34.5 -32t-19.5 -10q-9 0 -21 14.5t-26 29.5q-17 16 -33.5 29.5t-16.5 22.5q0 7 12 24.5t28.5 34t34 29.5t28.5 13z
M976 -203q11 0 27.5 -10t32.5 -27q16 -15 26.5 -32.5t10.5 -26.5t-17.5 -26.5t-31.5 -32.5q-26 -22 -34 -32t-20 -10q-9 0 -21 14.5t-27 29.5q-16 16 -32.5 29.5t-16.5 22.5q0 7 12 24.5t28 34t33.5 29.5t29.5 13z" />
    <glyph glyph-name="uni069D.medi" unicode="&#x69d;" horiz-adv-x="1496" 
d="M250 354q4 9 21.5 32.5t54.5 32.5q24 5 39 5t18.5 -3.5t3.5 -10.5q0 -8 -2.5 -14.5t-4.5 -10.5q-10 -18 -18 -45.5t-8 -55.5q0 -33 10.5 -53.5t33 -33t54.5 -21t75 -16.5q87 141 172.5 229t165 137t148 67t119.5 18q68 0 119 -20.5t85.5 -55.5t52.5 -82t18 -103
q0 -88 -36 -153q25 -20 59 -31t87 -11q28 0 38 -17.5t10 -56.5v-9q0 -42 -23 -57t-62 -15q-132 0 -202 86q-155 -116 -504 -116q-200 0 -327 40.5t-149 129.5q-20 -35 -43 -62t-57 -44.5t-86 -25.5t-129 -8q-18 0 -33 16.5t-15 53.5v11q0 39 24 56.5t61 17.5q72 0 109.5 13
t57 38t31.5 61.5t32 86.5zM658 132q32 -3 83 -6t118 -3q113 0 193 15t131 40.5t74.5 61.5t23.5 81q0 55 -45 96.5t-130 41.5q-114 0 -233 -83.5t-215 -243.5zM734 -203q12 0 28 -10t33 -27q14 -15 25.5 -32.5t11.5 -26.5t-17.5 -26.5l-32.5 -32.5q-26 -22 -34.5 -32
t-19.5 -10q-9 0 -21 14.5t-26 29.5q-17 16 -33.5 29.5t-16.5 22.5q0 7 12 24.5t28.5 34t34 29.5t28.5 13zM976 -203q11 0 27.5 -10t32.5 -27q16 -15 26.5 -32.5t10.5 -26.5t-17.5 -26.5t-31.5 -32.5q-26 -22 -34 -32t-20 -10q-9 0 -21 14.5t-27 29.5q-16 16 -32.5 29.5
t-16.5 22.5q0 7 12 24.5t28 34t33.5 29.5t29.5 13z" />
    <glyph glyph-name="uni069D.fina" unicode="&#x69d;" horiz-adv-x="2007" 
d="M0 -24q0 33 5.5 67t16 65.5t22 59t24.5 45.5q9 14 26 20.5t48 7.5q15 0 15 -10q0 -11 -6.5 -28t-13 -39t-13 -51.5t-6.5 -68.5q0 -114 67.5 -179.5t214.5 -65.5q109 0 181 28.5t115 71t61 88.5t18 83q0 62 -14 113t-40 104q-9 21 -14 36t-5 29q0 32 28 74q36 56 54 56
q20 0 40 -63q21 -56 30 -90.5t20 -73.5q15 -49 57.5 -74.5t101.5 -25.5q86 140 173 229.5t166.5 139.5t147.5 68.5t120 18.5q68 0 118.5 -20.5t86 -55.5t53 -82t17.5 -103q0 -83 -35 -153q24 -20 58.5 -31t88.5 -11q27 0 37.5 -17.5t10.5 -56.5v-9q0 -42 -23 -57t-62 -15
q-137 0 -202 88q-161 -118 -506 -118q-159 0 -263 26.5t-143 58.5q-13 -101 -58 -178.5t-111.5 -130t-148.5 -79t-171 -26.5q-183 0 -285 86.5t-102 248.5zM1165 132q32 -3 83.5 -6t118.5 -3q112 0 192.5 15t131 40.5t75 61.5t24.5 81q0 55 -45.5 96.5t-130.5 41.5
q-114 0 -233 -83.5t-216 -243.5zM1273 -203q12 0 28.5 -10t33.5 -27q14 -15 25.5 -32.5t11.5 -26.5t-17.5 -26.5l-32.5 -32.5q-26 -22 -34.5 -32t-19.5 -10q-9 0 -21 14.5t-27 29.5q-16 16 -32.5 29.5t-16.5 22.5q0 7 11.5 24.5t28.5 34t34.5 29.5t27.5 13zM1516 -203
q11 0 27.5 -10t32.5 -27q15 -15 26 -32.5t11 -26.5t-17.5 -26.5l-32.5 -32.5q-26 -22 -34 -32t-20 -10q-9 0 -20.5 14.5t-26.5 29.5q-17 16 -33.5 29.5t-16.5 22.5q0 7 12 24.5t28.5 34t34 29.5t29.5 13z" />
    <glyph glyph-name="uni069E.init" unicode="&#x69e;" horiz-adv-x="1547" 
d="M250 354q4 9 21.5 32.5t54.5 32.5q24 5 39 5t18.5 -3.5t3.5 -10.5q0 -8 -2.5 -14.5t-4.5 -10.5q-10 -18 -18 -45.5t-8 -55.5q0 -33 10.5 -53.5t33 -33t54.5 -21t75 -16.5q87 141 172.5 229t165 137t148 67t119.5 18q68 0 119 -20.5t85.5 -55.5t52.5 -82t18 -103
q0 -186 -158 -283t-475 -97q-200 0 -327 40.5t-149 129.5q-20 -35 -43 -62t-57 -44.5t-86 -25.5t-129 -8q-18 0 -33 16.5t-15 53.5v11q0 39 24 56.5t61 17.5q72 0 109.5 13t57 38t31.5 61.5t32 86.5zM658 132q32 -3 83 -6t118 -3q113 0 193 15t131 40.5t74.5 61.5t23.5 81
q0 55 -45 96.5t-130 41.5q-114 0 -233 -83.5t-215 -243.5zM813 1077q24 0 61 -37q15 -14 26 -31.5t11 -26.5q0 -10 -17.5 -27.5l-32.5 -32.5q-25 -22 -33.5 -32t-19.5 -10q-9 0 -21.5 15t-26.5 29q-17 16 -33.5 29t-16.5 22q0 8 12 25.5t28.5 34t34 29.5t28.5 13zM1055 1077
q24 0 61 -37q14 -14 25.5 -31.5t11.5 -26.5q0 -10 -17.5 -27.5l-32.5 -32.5q-26 -22 -34 -32t-20 -10q-9 0 -20.5 15t-27.5 29q-16 16 -32.5 29t-16.5 22q0 8 11.5 25.5t28.5 34t34.5 29.5t28.5 13zM936 1300q25 0 62 -36q14 -16 25.5 -33t11.5 -27q0 -9 -17.5 -26.5
t-32.5 -31.5q-26 -23 -34 -33t-20 -10q-9 0 -21 14.5t-27 29.5q-16 17 -32.5 30t-16.5 22q0 7 11.5 24.5t28.5 34t34.5 29.5t27.5 13z" />
    <glyph glyph-name="uni069E.medi" unicode="&#x69e;" horiz-adv-x="1496" 
d="M250 354q4 9 21.5 32.5t54.5 32.5q24 5 39 5t18.5 -3.5t3.5 -10.5q0 -8 -2.5 -14.5t-4.5 -10.5q-10 -18 -18 -45.5t-8 -55.5q0 -33 10.5 -53.5t33 -33t54.5 -21t75 -16.5q87 141 172.5 229t165 137t148 67t119.5 18q68 0 119 -20.5t85.5 -55.5t52.5 -82t18 -103
q0 -88 -36 -153q25 -20 59 -31t87 -11q28 0 38 -17.5t10 -56.5v-9q0 -42 -23 -57t-62 -15q-132 0 -202 86q-155 -116 -504 -116q-200 0 -327 40.5t-149 129.5q-20 -35 -43 -62t-57 -44.5t-86 -25.5t-129 -8q-18 0 -33 16.5t-15 53.5v11q0 39 24 56.5t61 17.5q72 0 109.5 13
t57 38t31.5 61.5t32 86.5zM658 132q32 -3 83 -6t118 -3q113 0 193 15t131 40.5t74.5 61.5t23.5 81q0 55 -45 96.5t-130 41.5q-114 0 -233 -83.5t-215 -243.5zM804 1077q24 0 61 -37q15 -14 26 -31.5t11 -26.5q0 -10 -17.5 -27.5l-32.5 -32.5q-25 -22 -34 -32t-19 -10
q-9 0 -21.5 15t-26.5 29q-17 16 -33.5 29t-16.5 22q0 8 12 25.5t28.5 34t34 29.5t28.5 13zM1046 1077q24 0 61 -37q14 -14 25.5 -31.5t11.5 -26.5q0 -10 -17.5 -27.5l-32.5 -32.5q-26 -22 -34 -32t-20 -10q-9 0 -20.5 15t-27.5 29q-16 16 -32.5 29t-16.5 22q0 8 11.5 25.5
t28.5 34t34.5 29.5t28.5 13zM927 1300q25 0 62 -36q14 -16 25.5 -33t11.5 -27q0 -9 -17.5 -26.5t-32.5 -31.5q-26 -23 -34 -33t-20 -10q-9 0 -21 14.5t-27 29.5q-16 17 -32.5 30t-16.5 22q0 7 11.5 24.5t28.5 34t34.5 29.5t27.5 13z" />
    <glyph glyph-name="uni069E.fina" unicode="&#x69e;" horiz-adv-x="2007" 
d="M0 -24q0 33 5.5 67t16 65.5t22 59t24.5 45.5q9 14 26 20.5t48 7.5q15 0 15 -10q0 -11 -6.5 -28t-13 -39t-13 -51.5t-6.5 -68.5q0 -114 67.5 -179.5t214.5 -65.5q109 0 181 28.5t115 71t61 88.5t18 83q0 62 -14 113t-40 104q-9 21 -14 36t-5 29q0 32 28 74q36 56 54 56
q20 0 40 -63q21 -56 30 -90.5t20 -73.5q15 -49 57.5 -74.5t101.5 -25.5q86 140 173 229.5t166.5 139.5t147.5 68.5t120 18.5q68 0 118.5 -20.5t86 -55.5t53 -82t17.5 -103q0 -83 -35 -153q24 -20 58.5 -31t88.5 -11q27 0 37.5 -17.5t10.5 -56.5v-9q0 -42 -23 -57t-62 -15
q-137 0 -202 88q-161 -118 -506 -118q-159 0 -263 26.5t-143 58.5q-13 -101 -58 -178.5t-111.5 -130t-148.5 -79t-171 -26.5q-183 0 -285 86.5t-102 248.5zM1165 132q32 -3 83.5 -6t118.5 -3q112 0 192.5 15t131 40.5t75 61.5t24.5 81q0 55 -45.5 96.5t-130.5 41.5
q-114 0 -233 -83.5t-216 -243.5zM1200 1077q24 0 61 -37q14 -14 25.5 -31.5t11.5 -26.5q0 -10 -17.5 -27.5t-33.5 -32.5q-25 -22 -33.5 -32t-19.5 -10q-9 0 -21 15t-27 29q-17 16 -33 29t-16 22q0 8 11.5 25.5t28.5 34t34.5 29.5t28.5 13zM1442 1077q23 0 60 -37
q15 -14 26 -31.5t11 -26.5q0 -10 -17.5 -27.5t-31.5 -32.5q-26 -22 -34.5 -32t-19.5 -10q-9 0 -21 15t-27 29q-16 16 -33 29t-17 22q0 8 12 25.5t28.5 34t34 29.5t29.5 13zM1323 1300q24 0 61 -36q15 -16 26 -33t11 -27q0 -9 -17.5 -26.5l-31.5 -31.5q-26 -23 -34.5 -33
t-19.5 -10q-9 0 -21.5 14.5t-26.5 29.5q-16 17 -33 30t-17 22q0 7 12 24.5t28.5 34t34 29.5t28.5 13z" />
    <glyph glyph-name="uni069F.init" unicode="&#x69f;" horiz-adv-x="1147" 
d="M204 1324q23 8 39 8q26 0 27 -18.5t5 -42.5q1 -15 4 -63t6.5 -117t7 -154t7.5 -176.5t6 -183.5t4 -173q112 112 221.5 159.5t183.5 47.5q77 0 132.5 -23t90.5 -61t52 -87t17 -99q0 -101 -47.5 -166.5t-126.5 -104t-183 -54.5t-221 -16h-446q-18 0 -33 16.5t-15 53.5v11
q0 39 24 56.5t61 17.5q35 0 59 6.5t43 19.5t36.5 34t38.5 49q0 55 -2 133.5t-5.5 167t-8.5 180t-9.5 173.5t-9 147t-9.5 102q-5 45 -5 72q0 35 11.5 54.5t44.5 30.5zM435 155q127 0 213 11t136.5 32.5t72 52.5t21.5 71q0 62 -49 99.5t-127 37.5q-109 0 -218.5 -72
t-226.5 -232h178zM526 1030q24 0 61 -37q14 -14 25.5 -31.5t11.5 -26.5q0 -10 -17.5 -27.5l-32.5 -32.5q-26 -22 -34.5 -32t-19.5 -10q-9 0 -21 15t-26 29q-17 16 -33.5 29.5t-16.5 22.5q0 8 12 25t28.5 33.5t34 29.5t28.5 13zM768 1030q23 0 60 -37q15 -14 26 -31.5
t11 -26.5q0 -10 -17.5 -27.5t-31.5 -32.5q-26 -22 -34.5 -32t-19.5 -10q-9 0 -21 15t-27 29q-16 16 -33 29.5t-17 22.5q0 8 12 25t28.5 33.5t34 29.5t29.5 13zM649 1254q25 0 61 -37q15 -16 26 -33t11 -27q0 -9 -17.5 -26.5l-31.5 -31.5q-26 -23 -34.5 -33t-19.5 -10
q-9 0 -21.5 14.5t-26.5 30.5q-16 16 -32.5 29t-16.5 22q0 7 11.5 24.5t28 34.5t34 30t28.5 13z" />
    <glyph glyph-name="uni069F.medi" unicode="&#x69f;" horiz-adv-x="1078" 
d="M206 1324q23 8 39 8q26 0 27 -18.5t4 -42.5q2 -25 7.5 -115.5t11.5 -217.5t10.5 -267.5t5.5 -264.5q113 112 221.5 158.5t182.5 46.5q77 0 132.5 -23t90.5 -61t52 -87t17 -99q0 -47 -10.5 -85t-28.5 -70q46 -31 131 -31q28 0 38 -17.5t10 -56.5v-9q0 -42 -23.5 -57
t-61.5 -15q-133 0 -201 85q-81 -48 -193 -66.5t-239 -18.5h-446q-18 0 -33 16.5t-15 53.5v11q0 39 24 56.5t61 17.5q35 0 59.5 6.5t44 20t37 35t38.5 50.5q0 55 -3 135t-5.5 167.5t-7.5 178t-9.5 172t-10 146t-8.5 101.5q-6 45 -6 72q0 35 12 54.5t45 30.5zM435 155
q127 0 213 11t136.5 32.5t72 52.5t21.5 71q0 62 -49 99.5t-127 37.5q-109 0 -218.5 -72t-226.5 -232h178zM526 1030q24 0 61 -37q14 -14 25.5 -31.5t11.5 -26.5q0 -10 -17.5 -27.5l-32.5 -32.5q-26 -22 -34.5 -32t-19.5 -10q-9 0 -21 15t-26 29q-17 16 -33.5 29.5
t-16.5 22.5q0 8 12 25t28.5 33.5t34 29.5t28.5 13zM768 1030q23 0 60 -37q15 -14 26 -31.5t11 -26.5q0 -10 -17.5 -27.5t-31.5 -32.5q-26 -22 -34.5 -32t-19.5 -10q-9 0 -21 15t-27 29q-16 16 -33 29.5t-17 22.5q0 8 12 25t28.5 33.5t34 29.5t29.5 13zM649 1254q25 0 61 -37
q15 -16 26 -33t11 -27q0 -9 -17.5 -26.5l-31.5 -31.5q-26 -23 -34.5 -33t-19.5 -10q-9 0 -21.5 14.5t-26.5 30.5q-16 16 -32.5 29t-16.5 22q0 7 11.5 24.5t28 34.5t34 30t28.5 13z" />
    <glyph glyph-name="uni069F.fina" unicode="&#x69f;" horiz-adv-x="1348" 
d="M456 1324q22 8 39 8q25 0 26.5 -18.5t4.5 -42.5q2 -25 7.5 -116.5t11 -218t11 -268.5t7.5 -266q113 114 222.5 161.5t182.5 47.5q78 0 133.5 -23t90.5 -61t51.5 -87t16.5 -99q0 -83 -35 -147q46 -39 142 -39q27 0 37.5 -17.5t10.5 -56.5v-9q0 -42 -23 -57t-62 -15
q-136 0 -205 88q-81 -53 -196.5 -73t-245.5 -20q-137 0 -246 0.5t-197 8.5q-30 1 -54 5.5t-47 16t-46.5 30t-51.5 49.5q-15 15 -27 31.5t-12 25.5q0 12 14 12q23 0 46 -4t54.5 -9.5t72 -9t98.5 -3.5q44 0 81.5 28t80.5 88q0 55 -2 133.5t-6 167t-8.5 180t-9 173.5t-9 147
t-10.5 102q-6 45 -6 72q0 35 12.5 54.5t45.5 30.5zM688 148q127 0 213 11.5t136.5 35t71.5 55.5t21 72q0 62 -48.5 99.5t-125.5 37.5q-109 0 -219 -72t-226 -239h177zM795 1030q24 0 61 -37q14 -14 25.5 -31.5t11.5 -26.5q0 -10 -17.5 -27.5t-33.5 -32.5q-25 -22 -33.5 -32
t-19.5 -10q-9 0 -21 15t-27 29q-17 16 -33 29.5t-16 22.5q0 8 11.5 25t28.5 33.5t34.5 29.5t28.5 13zM1037 1030q23 0 60 -37q15 -14 26 -31.5t11 -26.5q0 -10 -17.5 -27.5t-31.5 -32.5q-27 -22 -35 -32t-19 -10q-10 0 -21.5 15t-26.5 29q-16 16 -33 29.5t-17 22.5
q0 8 12 25t28.5 33.5t34 29.5t29.5 13zM918 1254q24 0 61 -37q15 -16 26 -33t11 -27q0 -9 -17.5 -26.5l-31.5 -31.5q-27 -23 -35 -33t-19 -10q-9 0 -21.5 14.5t-26.5 30.5q-16 16 -33 29t-17 22q0 7 12 24.5t28.5 34.5t34 30t28.5 13z" />
    <glyph glyph-name="uni06A0.init" unicode="&#x6a0;" horiz-adv-x="979" 
d="M457 607q-55 0 -94 -18.5t-63.5 -45.5t-36 -58t-11.5 -55q0 -32 9.5 -63t33.5 -60t61.5 -53.5t96.5 -43.5q24 10 75 24.5t108 27.5t108.5 22.5t75.5 9.5q19 0 19 -19q0 -6 -9.5 -30.5t-18.5 -45.5q-9 -20 -14.5 -32t-12 -18.5t-13.5 -9t-21 -4.5q-109 -12 -193.5 -35
t-168.5 -45t-180 -38.5t-225 -16.5q-18 0 -33 16.5t-15 53.5v11q0 39 24 56.5t61 17.5q31 0 87.5 2t126.5 9q-48 42 -78.5 102.5t-30.5 144.5q0 55 20.5 114t61.5 108t103 80.5t146 31.5q63 0 101 -11t62 -26q9 -6 22.5 -19.5t25.5 -44.5q13 -32 13 -52t-18 -20q-11 0 -27 5
t-38.5 11t-57 11.5t-82.5 5.5zM329 1193q25 0 62 -37q14 -14 25.5 -31.5t11.5 -26.5q0 -10 -17.5 -27.5t-33.5 -32.5q-25 -22 -33.5 -32t-19.5 -10q-9 0 -21 15t-27 29q-17 16 -33 29.5t-16 22.5q0 8 11.5 25t28.5 33.5t34.5 29.5t27.5 13zM572 1193q23 0 60 -37
q14 -14 25.5 -31.5t11.5 -26.5q0 -10 -17.5 -27.5l-32.5 -32.5q-26 -22 -34 -32t-20 -10q-9 0 -20.5 15t-26.5 29q-17 16 -33.5 29.5t-16.5 22.5q0 8 12 25t28.5 33.5t34 29.5t29.5 13zM453 1417q24 0 61 -37q15 -16 26 -33t11 -27q0 -9 -17.5 -26.5t-32.5 -31.5
q-26 -23 -34 -33t-20 -10q-9 0 -21 14.5t-26 30.5q-16 16 -33 29t-17 22q0 7 12 24.5t28.5 34.5t34 30t28.5 13z" />
    <glyph glyph-name="uni06A0.medi" unicode="&#x6a0;" horiz-adv-x="933" 
d="M132 472q-14 10 -24.5 12.5t-10.5 9.5q0 6 7 21t14 30.5t14 27t9 15.5q12 17 39 24q33 9 75.5 22.5t89 24t94 19t94.5 8.5q73 0 121 -14.5t75.5 -39.5t39 -56.5t11.5 -66.5q0 -70 -38 -154t-126 -156q33 -14 65 -22.5t70 -13t87 -6.5t115 -2q28 0 38 -17.5t10 -56.5v-9
q0 -42 -23 -57t-61 -15q-78 0 -138 6.5t-110.5 19.5t-94 32t-88.5 46q-48 -28 -98.5 -47.5t-110.5 -32.5t-131.5 -18.5t-162.5 -5.5q-18 0 -33 16.5t-15 53.5v11q0 39 24 56.5t61 17.5q70 0 121 2.5t89.5 8t69.5 13t63 16.5q-44 41 -71.5 79.5t-50 73t-46.5 66t-63 58.5z
M637 452q0 16 -5 33t-22 31t-47 23t-80 9q-24 0 -52 -4t-56 -9t-54.5 -13t-44.5 -15q22 -25 42.5 -56.5t45.5 -65t55 -67t75 -60.5q66 37 104.5 94.5t38.5 99.5zM356 1193q25 0 62 -37q14 -14 25.5 -31.5t11.5 -26.5q0 -10 -17.5 -27.5t-33.5 -32.5q-25 -22 -33.5 -32
t-19.5 -10q-9 0 -21 15t-27 29q-17 16 -33 29.5t-16 22.5q0 8 11.5 25t28.5 33.5t34.5 29.5t27.5 13zM599 1193q23 0 60 -37q15 -14 26 -31.5t11 -26.5q0 -10 -17.5 -27.5l-32.5 -32.5q-26 -22 -34 -32t-20 -10q-9 0 -20.5 15t-26.5 29q-16 16 -33 29.5t-17 22.5q0 8 12 25
t28.5 33.5t34 29.5t29.5 13zM480 1417q24 0 61 -37q15 -16 26 -33t11 -27q0 -9 -17.5 -26.5l-31.5 -31.5q-27 -23 -35 -33t-20 -10q-9 0 -21 14.5t-26 30.5q-16 16 -33 29t-17 22q0 7 12 24.5t28.5 34.5t34 30t28.5 13z" />
    <glyph glyph-name="uni06A0.fina" unicode="&#x6a0;" horiz-adv-x="901" 
d="M667 -780q72 0 121.5 8t82.5 17.5t53.5 17.5t32.5 8q8 0 8 -7q0 -11 -14 -31t-23 -32q-57 -64 -135.5 -92.5t-187.5 -28.5q-162 0 -276.5 39.5t-187.5 106t-107 152t-34 179.5q0 105 30.5 194t83 164.5t121 138t143.5 115.5q-52 47 -82 89.5t-54 81t-48.5 72t-62.5 60.5
q-15 10 -25.5 12.5t-10.5 9.5q0 6 7 21t14 30.5t15 27t9 15.5q11 17 39 24q34 9 76 22.5t88 24t94 19t94 8.5q74 0 122 -14.5t76 -39.5t38.5 -56.5t10.5 -66.5q0 -70 -38 -154t-126 -156q34 -14 59.5 -22.5t56 -13t73 -6.5t108.5 -2q27 0 37.5 -17.5t10.5 -56.5v-9
q0 -42 -23 -57t-62 -15q-64 0 -116 5.5t-98 16.5t-88 29.5t-87 43.5q-98 -58 -166 -115t-110.5 -115.5t-62 -119t-19.5 -127.5q0 -72 29.5 -144t94 -128t167.5 -91t249 -35zM637 452q0 16 -6 33t-22.5 31t-47 23t-79.5 9q-24 0 -52 -4t-56.5 -9t-54 -13t-44.5 -15
q22 -25 42.5 -56.5t45 -65t55.5 -67t75 -60.5q66 37 105 94.5t39 99.5zM338 1193q24 0 61 -37q14 -14 25.5 -31.5t11.5 -26.5q0 -10 -17.5 -27.5t-33.5 -32.5q-25 -22 -33.5 -32t-19.5 -10q-9 0 -21 15t-26 29q-18 16 -34 29.5t-16 22.5q0 8 11.5 25t28.5 33.5t34.5 29.5
t28.5 13zM580 1193q23 0 60 -37q15 -14 26 -31.5t11 -26.5q0 -10 -17.5 -27.5t-31.5 -32.5q-26 -22 -34.5 -32t-19.5 -10q-9 0 -21 15t-27 29q-16 16 -33 29.5t-17 22.5q0 8 12 25t28.5 33.5t34 29.5t29.5 13zM461 1417q24 0 61 -37q15 -16 26 -33t11 -27q0 -9 -17.5 -26.5
l-31.5 -31.5q-26 -23 -34.5 -33t-19.5 -10q-9 0 -21.5 14.5t-26.5 30.5q-16 16 -33 29t-17 22q0 7 12 24.5t28.5 34.5t34 30t28.5 13z" />
    <glyph glyph-name="uni06A1.init" unicode="&#x6a1;" horiz-adv-x="763" 
d="M500 285q-16 -1 -22 -1h-12q-70 0 -136 12t-118 39.5t-83.5 74t-31.5 114.5q0 60 21 122t57 112t82.5 81.5t98.5 31.5q51 0 100 -31.5t86 -94t59 -154t22 -211.5q0 -104 -26.5 -176.5t-98.5 -117.5t-197 -65.5t-318 -20.5q-18 0 -33 16.5t-15 53.5v11q0 39 24 56.5
t61 17.5q138 0 225.5 8t141 24t77.5 41t36 57zM337 721q-26 0 -48.5 -14.5t-40.5 -38.5t-28 -54.5t-10 -60.5q0 -42 22 -68t59 -40.5t85 -20t99 -5.5h20.5t11.5 2q-7 56 -18.5 110.5t-31 96t-48.5 67.5t-72 26z" />
    <glyph glyph-name="uni06A1.medi" unicode="&#x6a1;" horiz-adv-x="816" 
d="M20 155q65 0 126.5 2.5t129.5 8.5q-51 48 -80.5 113.5t-29.5 148.5q0 68 22 130t61.5 108t93 73t118.5 27q53 0 100.5 -19.5t83 -55.5t55.5 -88t20 -118q0 -101 -38.5 -177.5t-102.5 -133.5q53 -12 118 -15.5t140 -3.5q27 0 37.5 -17.5t10.5 -56.5v-9q0 -42 -23 -57
t-62 -15q-101 0 -200.5 17.5t-187.5 58.5q-97 -41 -207.5 -58.5t-221.5 -17.5q-18 0 -33 16.5t-15 53.5v11q0 39 24 56.5t61 17.5zM296 439q0 -43 13 -75.5t33.5 -60.5t46 -48.5t51.5 -32.5q79 44 114.5 105.5t35.5 124.5q0 83 -41.5 124.5t-97.5 41.5q-60 0 -107.5 -48.5
t-47.5 -130.5z" />
    <glyph glyph-name="uni06A1.fina" unicode="&#x6a1;" horiz-adv-x="1638" 
d="M629 95q107 0 232.5 16t239.5 53q-54 49 -84 114t-30 150q0 68 22 130t61.5 108t93.5 73t118 27q54 0 100.5 -19.5t82.5 -55.5t56.5 -88t20.5 -118q0 -94 -37 -171.5t-107 -139.5q54 -12 118.5 -15.5t141.5 -3.5q28 0 38 -17.5t10 -56.5v-9q0 -42 -23 -57t-62 -15
q-99 0 -195 17.5t-181 54.5q-133 -67 -309 -101t-383 -34q-153 0 -258 21t-170.5 63t-95 103t-29.5 140q0 33 5.5 67.5t16 65.5t22 59t24.5 44q18 28 67 30q22 0 22 -14q0 -9 -13 -44q-9 -25 -17.5 -61t-8.5 -79q0 -66 29.5 -111t91.5 -73t158.5 -40.5t231.5 -12.5z
M1118 439q0 -80 42 -131t93 -81q69 42 113.5 97.5t44.5 127.5q0 83 -41.5 124.5t-96.5 41.5q-61 0 -108 -48.5t-47 -130.5z" />
    <glyph glyph-name="uni06A2.init" unicode="&#x6a2;" horiz-adv-x="763" 
d="M500 285q-16 -1 -22 -1h-12q-70 0 -136 12t-118 39.5t-83.5 74t-31.5 114.5q0 60 21 122t57 112t82.5 81.5t98.5 31.5q51 0 100 -31.5t86 -94t59 -154t22 -211.5q0 -104 -26.5 -176.5t-98.5 -117.5t-197 -65.5t-318 -20.5q-18 0 -33 16.5t-15 53.5v11q0 39 24 56.5
t61 17.5q138 0 225.5 8t141 24t77.5 41t36 57zM337 721q-26 0 -48.5 -14.5t-40.5 -38.5t-28 -54.5t-10 -60.5q0 -42 22 -68t59 -40.5t85 -20t99 -5.5h20.5t11.5 2q-7 56 -18.5 110.5t-31 96t-48.5 67.5t-72 26zM361 -203q12 0 28 -10t33 -27q15 -15 26 -32.5t11 -26.5
t-17.5 -26.5t-31.5 -32.5q-26 -22 -35 -32t-19 -10q-9 0 -21.5 14.5t-26.5 29.5q-17 16 -33.5 29.5t-16.5 22.5q0 7 12 24.5t28.5 34t34 29.5t28.5 13z" />
    <glyph glyph-name="uni06A2.medi" unicode="&#x6a2;" horiz-adv-x="816" 
d="M20 155q65 0 126.5 2.5t129.5 8.5q-51 48 -80.5 113.5t-29.5 148.5q0 68 22 130t61.5 108t93 73t118.5 27q53 0 100.5 -19.5t83 -55.5t55.5 -88t20 -118q0 -101 -38.5 -177.5t-102.5 -133.5q53 -12 118 -15.5t140 -3.5q27 0 37.5 -17.5t10.5 -56.5v-9q0 -42 -23 -57
t-62 -15q-101 0 -200.5 17.5t-187.5 58.5q-97 -41 -207.5 -58.5t-221.5 -17.5q-18 0 -33 16.5t-15 53.5v11q0 39 24 56.5t61 17.5zM296 439q0 -43 13 -75.5t33.5 -60.5t46 -48.5t51.5 -32.5q79 44 114.5 105.5t35.5 124.5q0 83 -41.5 124.5t-97.5 41.5q-60 0 -107.5 -48.5
t-47.5 -130.5zM446 -203q11 0 27.5 -10t33.5 -27q14 -15 25.5 -32.5t11.5 -26.5t-17.5 -26.5l-32.5 -32.5q-26 -22 -34.5 -32t-19.5 -10q-9 0 -21 14.5t-26 29.5q-18 16 -34 29.5t-16 22.5q0 7 11.5 24.5t28.5 34t34.5 29.5t28.5 13z" />
    <glyph glyph-name="uni06A2.fina" unicode="&#x6a2;" horiz-adv-x="1638" 
d="M629 95q107 0 232.5 16t239.5 53q-54 49 -84 114t-30 150q0 68 22 130t61.5 108t93.5 73t118 27q54 0 100.5 -19.5t82.5 -55.5t56.5 -88t20.5 -118q0 -94 -37 -171.5t-107 -139.5q54 -12 118.5 -15.5t141.5 -3.5q28 0 38 -17.5t10 -56.5v-9q0 -42 -23 -57t-62 -15
q-99 0 -195 17.5t-181 54.5q-133 -67 -309 -101t-383 -34q-153 0 -258 21t-170.5 63t-95 103t-29.5 140q0 33 5.5 67.5t16 65.5t22 59t24.5 44q18 28 67 30q22 0 22 -14q0 -9 -13 -44q-9 -25 -17.5 -61t-8.5 -79q0 -66 29.5 -111t91.5 -73t158.5 -40.5t231.5 -12.5z
M1118 439q0 -80 42 -131t93 -81q69 42 113.5 97.5t44.5 127.5q0 83 -41.5 124.5t-96.5 41.5q-61 0 -108 -48.5t-47 -130.5zM1267 -203q12 0 28 -10t33 -27q15 -15 26 -32.5t11 -26.5t-17.5 -26.5t-31.5 -32.5q-26 -22 -34.5 -32t-19.5 -10q-9 0 -21.5 14.5t-26.5 29.5
q-17 16 -33.5 29.5t-16.5 22.5q0 7 12 24.5t28.5 34t34 29.5t28.5 13z" />
    <glyph glyph-name="uni06A3.init" unicode="&#x6a3;" horiz-adv-x="763" 
d="M500 285q-16 -1 -22 -1h-12q-70 0 -136 12t-118 39.5t-83.5 74t-31.5 114.5q0 60 21 122t57 112t82.5 81.5t98.5 31.5q51 0 100 -31.5t86 -94t59 -154t22 -211.5q0 -104 -26.5 -176.5t-98.5 -117.5t-197 -65.5t-318 -20.5q-18 0 -33 16.5t-15 53.5v11q0 39 24 56.5
t61 17.5q138 0 225.5 8t141 24t77.5 41t36 57zM337 721q-26 0 -48.5 -14.5t-40.5 -38.5t-28 -54.5t-10 -60.5q0 -42 22 -68t59 -40.5t85 -20t99 -5.5h20.5t11.5 2q-7 56 -18.5 110.5t-31 96t-48.5 67.5t-72 26zM278 1262q24 0 61 -37q15 -15 25.5 -32.5t10.5 -27.5
q0 -9 -17 -26.5t-32 -31.5q-25 -23 -33.5 -32.5t-19.5 -9.5q-9 0 -21.5 14t-26.5 30q-17 16 -33.5 29t-16.5 22q0 7 12 24.5t28.5 34.5t34 30t28.5 13zM277 -203q12 0 28 -10t33 -27q15 -15 26 -32.5t11 -26.5t-17.5 -26.5t-31.5 -32.5q-26 -22 -34.5 -32t-19.5 -10
q-9 0 -21 14.5t-27 29.5q-17 16 -33 29.5t-16 22.5q0 7 11.5 24.5t28 34t34 29.5t28.5 13z" />
    <glyph glyph-name="uni06A3.medi" unicode="&#x6a3;" horiz-adv-x="816" 
d="M20 155q65 0 126.5 2.5t129.5 8.5q-51 48 -80.5 113.5t-29.5 148.5q0 68 22 130t61.5 108t93 73t118.5 27q53 0 100.5 -19.5t83 -55.5t55.5 -88t20 -118q0 -101 -38.5 -177.5t-102.5 -133.5q53 -12 118 -15.5t140 -3.5q27 0 37.5 -17.5t10.5 -56.5v-9q0 -42 -23 -57
t-62 -15q-101 0 -200.5 17.5t-187.5 58.5q-97 -41 -207.5 -58.5t-221.5 -17.5q-18 0 -33 16.5t-15 53.5v11q0 39 24 56.5t61 17.5zM296 439q0 -43 13 -75.5t33.5 -60.5t46 -48.5t51.5 -32.5q79 44 114.5 105.5t35.5 124.5q0 83 -41.5 124.5t-97.5 41.5q-60 0 -107.5 -48.5
t-47.5 -130.5zM453 1262q24 0 61 -37q15 -15 26 -32.5t11 -27.5q0 -9 -17.5 -26.5t-32.5 -31.5q-26 -23 -34 -32.5t-20 -9.5q-9 0 -21 14t-26 30q-16 16 -33 29t-17 22q0 7 12 24.5t28.5 34.5t34 30t28.5 13zM453 -203q12 0 28 -10t33 -27q15 -15 26 -32.5t11 -26.5
t-17.5 -26.5l-32.5 -32.5q-26 -22 -34.5 -32t-19.5 -10q-9 0 -21 14.5t-26 29.5q-17 16 -33.5 29.5t-16.5 22.5q0 7 12 24.5t28.5 34t34 29.5t28.5 13z" />
    <glyph glyph-name="uni06A3.fina" unicode="&#x6a3;" horiz-adv-x="1638" 
d="M629 95q107 0 232.5 16t239.5 53q-54 49 -84 114t-30 150q0 68 22 130t61.5 108t93.5 73t118 27q54 0 100.5 -19.5t82.5 -55.5t56.5 -88t20.5 -118q0 -94 -37 -171.5t-107 -139.5q54 -12 118.5 -15.5t141.5 -3.5q28 0 38 -17.5t10 -56.5v-9q0 -42 -23 -57t-62 -15
q-99 0 -195 17.5t-181 54.5q-133 -67 -309 -101t-383 -34q-153 0 -258 21t-170.5 63t-95 103t-29.5 140q0 33 5.5 67.5t16 65.5t22 59t24.5 44q18 28 67 30q22 0 22 -14q0 -9 -13 -44q-9 -25 -17.5 -61t-8.5 -79q0 -66 29.5 -111t91.5 -73t158.5 -40.5t231.5 -12.5z
M1118 439q0 -80 42 -131t93 -81q69 42 113.5 97.5t44.5 127.5q0 83 -41.5 124.5t-96.5 41.5q-61 0 -108 -48.5t-47 -130.5zM1262 1262q23 0 60 -37q15 -15 26 -32.5t11 -27.5q0 -9 -17.5 -26.5t-32.5 -31.5q-26 -23 -34 -32.5t-19 -9.5q-10 0 -21.5 14t-26.5 30
q-16 16 -33 29t-17 22q0 7 12.5 24.5t29 34.5t34 30t28.5 13zM675 -203q12 0 28.5 -10t33.5 -27q14 -15 25.5 -32.5t11.5 -26.5t-17.5 -26.5l-32.5 -32.5q-26 -22 -34.5 -32t-19.5 -10q-9 0 -21 14.5t-27 29.5q-17 16 -33 29.5t-16 22.5q0 7 11.5 24.5t28.5 34t34.5 29.5
t27.5 13z" />
    <glyph glyph-name="uni06A5.init" unicode="&#x6a5;" horiz-adv-x="763" 
d="M500 285q-16 -1 -22 -1h-12q-70 0 -136 12t-118 39.5t-83.5 74t-31.5 114.5q0 60 21 122t57 112t82.5 81.5t98.5 31.5q51 0 100 -31.5t86 -94t59 -154t22 -211.5q0 -104 -26.5 -176.5t-98.5 -117.5t-197 -65.5t-318 -20.5q-18 0 -33 16.5t-15 53.5v11q0 39 24 56.5
t61 17.5q138 0 225.5 8t141 24t77.5 41t36 57zM337 721q-26 0 -48.5 -14.5t-40.5 -38.5t-28 -54.5t-10 -60.5q0 -42 22 -68t59 -40.5t85 -20t99 -5.5h20.5t11.5 2q-7 56 -18.5 110.5t-31 96t-48.5 67.5t-72 26zM220 -203q12 0 28.5 -10t33.5 -27q14 -15 25.5 -32.5
t11.5 -26.5t-17.5 -26.5l-32.5 -32.5q-26 -22 -34.5 -32t-19.5 -10q-9 0 -21 14.5t-27 29.5q-16 16 -32.5 29.5t-16.5 22.5q0 7 11.5 24.5t28.5 34t34.5 29.5t27.5 13zM463 -203q11 0 27.5 -10t32.5 -27q15 -15 26 -32.5t11 -26.5t-17.5 -26.5l-32.5 -32.5q-26 -22 -34 -32
t-20 -10q-9 0 -20.5 14.5t-26.5 29.5q-16 16 -33 29.5t-17 22.5q0 7 12.5 24.5t28.5 34t33.5 29.5t29.5 13zM337 -412q11 0 28 -9.5t33 -27.5q14 -14 25.5 -31.5t11.5 -26.5t-17.5 -26.5l-32.5 -32.5q-26 -22 -34.5 -32.5t-19.5 -10.5q-9 0 -21 15t-26 29q-17 17 -33.5 30
t-16.5 23q0 7 11.5 24.5t28.5 34t34.5 29t28.5 12.5z" />
    <glyph glyph-name="uni06A5.medi" unicode="&#x6a5;" horiz-adv-x="816" 
d="M20 155q65 0 126.5 2.5t129.5 8.5q-51 48 -80.5 113.5t-29.5 148.5q0 68 22 130t61.5 108t93 73t118.5 27q53 0 100.5 -19.5t83 -55.5t55.5 -88t20 -118q0 -101 -38.5 -177.5t-102.5 -133.5q53 -12 118 -15.5t140 -3.5q27 0 37.5 -17.5t10.5 -56.5v-9q0 -42 -23 -57
t-62 -15q-101 0 -200.5 17.5t-187.5 58.5q-97 -41 -207.5 -58.5t-221.5 -17.5q-18 0 -33 16.5t-15 53.5v11q0 39 24 56.5t61 17.5zM296 439q0 -43 13 -75.5t33.5 -60.5t46 -48.5t51.5 -32.5q79 44 114.5 105.5t35.5 124.5q0 83 -41.5 124.5t-97.5 41.5q-60 0 -107.5 -48.5
t-47.5 -130.5zM284 -203q11 0 27.5 -10t33.5 -27q14 -15 25.5 -32.5t11.5 -26.5t-17.5 -26.5l-32.5 -32.5q-26 -22 -34.5 -32t-19.5 -10q-9 0 -21 14.5t-27 29.5q-16 16 -32.5 29.5t-16.5 22.5q0 7 11.5 24.5t28.5 34t34.5 29.5t28.5 13zM526 -203q11 0 27.5 -10t32.5 -27
q15 -15 26 -32.5t11 -26.5t-17.5 -26.5t-31.5 -32.5q-27 -22 -35 -32t-20 -10q-9 0 -20.5 14.5t-26.5 29.5q-16 16 -33 29.5t-17 22.5q0 7 12.5 24.5t28.5 34t33.5 29.5t29.5 13zM400 -412q11 0 28 -9.5t33 -27.5q14 -14 25.5 -31.5t11.5 -26.5t-17.5 -26.5l-32.5 -32.5
q-26 -22 -34.5 -32.5t-19.5 -10.5q-9 0 -21 15t-26 29q-17 17 -33.5 30t-16.5 23q0 7 11.5 24.5t28.5 34t34.5 29t28.5 12.5z" />
    <glyph glyph-name="uni06A5.fina" unicode="&#x6a5;" horiz-adv-x="1638" 
d="M629 95q107 0 232.5 16t239.5 53q-54 49 -84 114t-30 150q0 68 22 130t61.5 108t93.5 73t118 27q54 0 100.5 -19.5t82.5 -55.5t56.5 -88t20.5 -118q0 -94 -37 -171.5t-107 -139.5q54 -12 118.5 -15.5t141.5 -3.5q28 0 38 -17.5t10 -56.5v-9q0 -42 -23 -57t-62 -15
q-99 0 -195 17.5t-181 54.5q-133 -67 -309 -101t-383 -34q-153 0 -258 21t-170.5 63t-95 103t-29.5 140q0 33 5.5 67.5t16 65.5t22 59t24.5 44q18 28 67 30q22 0 22 -14q0 -9 -13 -44q-9 -25 -17.5 -61t-8.5 -79q0 -66 29.5 -111t91.5 -73t158.5 -40.5t231.5 -12.5z
M1118 439q0 -80 42 -131t93 -81q69 42 113.5 97.5t44.5 127.5q0 83 -41.5 124.5t-96.5 41.5q-61 0 -108 -48.5t-47 -130.5zM1102 -203q12 0 28 -10t34 -27q14 -15 25.5 -32.5t11.5 -26.5t-18 -26.5t-32 -32.5q-26 -22 -34.5 -32t-19.5 -10q-9 0 -21 14.5t-27 29.5
q-16 16 -32.5 29.5t-16.5 22.5q0 7 11.5 24.5t28 34t34.5 29.5t28 13zM1345 -203q10 0 27 -10t33 -27q15 -15 26 -32.5t11 -26.5t-17.5 -26.5l-32.5 -32.5q-26 -22 -34 -32t-20 -10q-9 0 -20.5 14.5t-26.5 29.5q-17 16 -33.5 29.5t-16.5 22.5q0 7 12 24.5t28.5 34t34 29.5
t29.5 13zM1219 -412q11 0 28 -9.5t33 -27.5q14 -14 25.5 -31.5t11.5 -26.5t-17.5 -26.5l-32.5 -32.5q-26 -22 -34.5 -32.5t-19.5 -10.5q-9 0 -21 15t-27 29q-16 17 -32.5 30t-16.5 23q0 7 11.5 24.5t28.5 34t34.5 29t28.5 12.5z" />
    <glyph glyph-name="uni06A7.init" unicode="&#x6a7;" horiz-adv-x="763" 
d="M500 285q-16 -1 -22 -1h-12q-70 0 -136 12t-118 39.5t-83.5 74t-31.5 114.5q0 60 21 122t57 112t82.5 81.5t98.5 31.5q51 0 100 -31.5t86 -94t59 -154t22 -211.5q0 -104 -26.5 -176.5t-98.5 -117.5t-197 -65.5t-318 -20.5q-18 0 -33 16.5t-15 53.5v11q0 39 24 56.5
t61 17.5q138 0 225.5 8t141 24t77.5 41t36 57zM337 721q-26 0 -48.5 -14.5t-40.5 -38.5t-28 -54.5t-10 -60.5q0 -42 22 -68t59 -40.5t85 -20t99 -5.5h20.5t11.5 2q-7 56 -18.5 110.5t-31 96t-48.5 67.5t-72 26zM278 1262q24 0 61 -37q15 -15 25.5 -32.5t10.5 -27.5
q0 -9 -17 -26.5t-32 -31.5q-25 -23 -33.5 -32.5t-19.5 -9.5q-9 0 -21.5 14t-26.5 30q-17 16 -33.5 29t-16.5 22q0 7 12 24.5t28.5 34.5t34 30t28.5 13z" />
    <glyph glyph-name="uni06A7.medi" unicode="&#x6a7;" horiz-adv-x="816" 
d="M20 155q65 0 126.5 2.5t129.5 8.5q-51 48 -80.5 113.5t-29.5 148.5q0 68 22 130t61.5 108t93 73t118.5 27q53 0 100.5 -19.5t83 -55.5t55.5 -88t20 -118q0 -101 -38.5 -177.5t-102.5 -133.5q53 -12 118 -15.5t140 -3.5q27 0 37.5 -17.5t10.5 -56.5v-9q0 -42 -23 -57
t-62 -15q-101 0 -200.5 17.5t-187.5 58.5q-97 -41 -207.5 -58.5t-221.5 -17.5q-18 0 -33 16.5t-15 53.5v11q0 39 24 56.5t61 17.5zM296 439q0 -43 13 -75.5t33.5 -60.5t46 -48.5t51.5 -32.5q79 44 114.5 105.5t35.5 124.5q0 83 -41.5 124.5t-97.5 41.5q-60 0 -107.5 -48.5
t-47.5 -130.5zM453 1262q24 0 61 -37q15 -15 26 -32.5t11 -27.5q0 -9 -17.5 -26.5t-32.5 -31.5q-26 -23 -34 -32.5t-20 -9.5q-9 0 -21 14t-26 30q-16 16 -33 29t-17 22q0 7 12 24.5t28.5 34.5t34 30t28.5 13z" />
    <glyph glyph-name="uni06A7.fina" unicode="&#x6a7;" horiz-adv-x="1141" 
d="M952 155q-2 53 -12.5 101t-28.5 85t-45 59t-62 22q-31 0 -55 -14t-40.5 -36t-25.5 -50t-9 -58q0 -39 18 -61t46.5 -32.5t64.5 -13t73 -2.5h76zM118 -33q0 -48 15 -98t56.5 -89.5t116 -65.5t192.5 -26q72 0 147.5 18.5t138.5 56.5t105 97t48 140h-105q-56 0 -104.5 11.5
t-86.5 38t-59 71.5t-21 111q0 58 18.5 119t51.5 110.5t81 81t107 31.5q55 0 102 -31t80.5 -86t53 -132.5t19.5 -169.5h88q28 0 38 -17.5t10 -56.5v-9q0 -42 -23 -57t-62 -15h-64q-15 -114 -66.5 -203t-130.5 -149t-181 -90t-218 -30q-159 0 -252 46t-140 109.5t-60 132
t-13 112.5q0 33 5.5 67.5t16 65.5t22 59t24.5 44q18 28 67 30q22 0 22 -13q0 -10 -13 -44q-9 -26 -17.5 -65.5t-8.5 -104.5zM803 977q25 0 62 -37q14 -14 25.5 -31.5t11.5 -26.5t-18 -26.5t-33 -33.5q-25 -21 -33.5 -31.5t-19.5 -10.5q-9 0 -21 15t-27 29q-17 17 -33.5 30
t-16.5 22q0 8 12 25.5t28.5 34t34.5 29t28 12.5z" />
    <glyph glyph-name="uni06A8.init" unicode="&#x6a8;" horiz-adv-x="763" 
d="M500 285q-16 -1 -22 -1h-12q-70 0 -136 12t-118 39.5t-83.5 74t-31.5 114.5q0 60 21 122t57 112t82.5 81.5t98.5 31.5q51 0 100 -31.5t86 -94t59 -154t22 -211.5q0 -104 -26.5 -176.5t-98.5 -117.5t-197 -65.5t-318 -20.5q-18 0 -33 16.5t-15 53.5v11q0 39 24 56.5
t61 17.5q138 0 225.5 8t141 24t77.5 41t36 57zM337 721q-26 0 -48.5 -14.5t-40.5 -38.5t-28 -54.5t-10 -60.5q0 -42 22 -68t59 -40.5t85 -20t99 -5.5h20.5t11.5 2q-7 56 -18.5 110.5t-31 96t-48.5 67.5t-72 26zM215 1262q24 0 61 -37q15 -15 26 -32.5t11 -27.5
q0 -9 -17.5 -26.5l-31.5 -31.5q-26 -23 -35 -32.5t-19 -9.5q-9 0 -21.5 14t-26.5 30q-17 16 -33.5 29t-16.5 22q0 7 12 24.5t28.5 34.5t34 30t28.5 13zM457 1262q24 0 61 -37q15 -15 26 -32.5t11 -27.5q0 -9 -18 -26.5t-32 -31.5q-26 -23 -34 -32.5t-20 -9.5q-9 0 -20.5 14
t-27.5 30t-32.5 29t-16.5 22q0 7 12 24.5t28.5 34.5t34 30t28.5 13zM339 1485q24 0 61 -37q14 -15 25.5 -32.5t11.5 -26.5t-17.5 -26.5l-32.5 -32.5q-26 -22 -34 -32t-20 -10q-9 0 -20.5 14.5t-27.5 29.5q-16 16 -32.5 29t-16.5 22q0 8 11.5 25.5t28.5 34t34.5 29.5t28.5 13
z" />
    <glyph glyph-name="uni06A8.medi" unicode="&#x6a8;" horiz-adv-x="816" 
d="M20 155q65 0 126.5 2.5t129.5 8.5q-51 48 -80.5 113.5t-29.5 148.5q0 68 22 130t61.5 108t93 73t118.5 27q53 0 100.5 -19.5t83 -55.5t55.5 -88t20 -118q0 -101 -38.5 -177.5t-102.5 -133.5q53 -12 118 -15.5t140 -3.5q27 0 37.5 -17.5t10.5 -56.5v-9q0 -42 -23 -57
t-62 -15q-101 0 -200.5 17.5t-187.5 58.5q-97 -41 -207.5 -58.5t-221.5 -17.5q-18 0 -33 16.5t-15 53.5v11q0 39 24 56.5t61 17.5zM296 439q0 -43 13 -75.5t33.5 -60.5t46 -48.5t51.5 -32.5q79 44 114.5 105.5t35.5 124.5q0 83 -41.5 124.5t-97.5 41.5q-60 0 -107.5 -48.5
t-47.5 -130.5zM350 1262q24 0 61 -37q15 -15 25.5 -32.5t10.5 -27.5q0 -9 -17.5 -26.5l-31.5 -31.5q-26 -23 -34 -32.5t-19 -9.5q-10 0 -22 14t-27 30q-16 16 -32.5 29t-16.5 22q0 7 12 24.5t28.5 34.5t34 30t28.5 13zM592 1262q24 0 61 -37q14 -15 25.5 -32.5t11.5 -27.5
q0 -9 -17.5 -26.5t-33.5 -31.5q-25 -23 -33.5 -32.5t-19.5 -9.5q-9 0 -21 14t-27 30q-17 16 -33.5 29t-16.5 22q0 7 12 24.5t29 34.5t34.5 30t28.5 13zM474 1485q24 0 61 -37q14 -15 25.5 -32.5t11.5 -26.5t-17.5 -26.5t-33.5 -32.5q-25 -22 -33.5 -32t-19.5 -10
q-9 0 -21 14.5t-27 29.5q-17 16 -33.5 29t-16.5 22q0 8 12 25.5t29 34t34.5 29.5t28.5 13z" />
    <glyph glyph-name="uni06A8.fina" unicode="&#x6a8;" horiz-adv-x="1141" 
d="M952 155q-2 53 -12.5 101t-28.5 85t-45 59t-62 22q-31 0 -55 -14t-40.5 -36t-25.5 -50t-9 -58q0 -39 18 -61t46.5 -32.5t64.5 -13t73 -2.5h76zM118 -33q0 -48 15 -98t56.5 -89.5t116 -65.5t192.5 -26q72 0 147.5 18.5t138.5 56.5t105 97t48 140h-105q-56 0 -104.5 11.5
t-86.5 38t-59 71.5t-21 111q0 58 18.5 119t51.5 110.5t81 81t107 31.5q55 0 102 -31t80.5 -86t53 -132.5t19.5 -169.5h88q28 0 38 -17.5t10 -56.5v-9q0 -42 -23 -57t-62 -15h-64q-15 -114 -66.5 -203t-130.5 -149t-181 -90t-218 -30q-159 0 -252 46t-140 109.5t-60 132
t-13 112.5q0 33 5.5 67.5t16 65.5t22 59t24.5 44q18 28 67 30q22 0 22 -13q0 -10 -13 -44q-9 -26 -17.5 -65.5t-8.5 -104.5zM681 978q23 0 60 -37q16 -15 26.5 -32t10.5 -27q0 -9 -17.5 -26.5t-31.5 -32.5q-27 -22 -35 -32t-19 -10q-9 0 -21 14.5t-27 29.5q-16 16 -33 29
t-17 22q0 8 12.5 25.5t29 34t34 29.5t28.5 13zM922 978q25 0 61 -37q15 -15 26 -32t11 -27q0 -9 -17.5 -26.5l-32.5 -32.5q-25 -22 -33.5 -32t-19.5 -10q-9 0 -21 14.5t-27 29.5q-17 16 -33.5 29t-16.5 22q0 8 12 25.5t28.5 34t34 29.5t28.5 13zM804 1201q25 0 61 -37
q15 -15 26 -32.5t11 -26.5t-17.5 -26.5t-32.5 -31.5q-25 -23 -33.5 -33t-19.5 -10q-9 0 -21 14.5t-27 29.5q-17 17 -33.5 30t-16.5 22q0 7 12 24.5t28.5 34t34 29.5t28.5 13z" />
    <glyph glyph-name="uni06AA.init" unicode="&#x6aa;" horiz-adv-x="1508" 
d="M-17 0q-18 0 -33 16.5t-15 53.5v11q0 39 24 56.5t61 17.5h149q106 0 216 -5q107 0 189 6t195 22.5t212.5 31.5t190.5 15h47q19 0 47 -3q-5 77 -29 127.5t-61 80t-87 41t-107 11.5q-100 0 -221.5 -18.5t-259.5 -18.5q-94 0 -149.5 2.5t-83.5 9t-35 19.5t-7 33
q0 35 10.5 71t25.5 69.5t34.5 61.5t40.5 49q56 57 129 117.5t159 117t184 104.5t205 82q4 1 6 1q7 0 7 -7q0 -3 -2 -8q-16 -35 -39.5 -74.5t-43.5 -48.5q-155 -67 -267.5 -136.5t-184.5 -130.5t-107.5 -104t-35.5 -53q0 -6 25.5 -10.5t61 -9t75 -6.5t69.5 -2q111 0 216.5 12
t198.5 12q58 0 109.5 -8t96 -29.5t80 -58t61.5 -96.5q11 -26 19.5 -66.5t8.5 -93.5q0 -19 -4.5 -49t-14 -59t-23.5 -49.5t-32 -20.5q-54 6 -104 6q-101 -12 -192.5 -27t-205.5 -33.5t-197 -26.5t-197 -8q-23 0 -48 1q-93 2 -149 2h-218z" />
    <glyph glyph-name="uni06AA.medi" unicode="&#x6aa;" horiz-adv-x="1512" 
d="M1363 214q36 -35 81 -47q35 -12 89 -12q27 0 37 -17.5t10 -56.5v-9q0 -42 -23 -57t-61 -15q-135 0 -202 86q-54 6 -104 6q-101 -12 -192.5 -27t-205.5 -33.5t-197 -26.5t-197 -8q-23 0 -48 1q-93 2 -149 2h-218q-18 0 -33 16.5t-15 53.5v11q0 39 24 56.5t61 17.5h149
q106 0 216 -5q107 0 189 6t195 22.5t212.5 31.5t190.5 15h47q19 0 47 -3q-5 77 -29 127.5t-61 80t-87 41t-107 11.5q-100 0 -221.5 -18.5t-259.5 -18.5q-94 0 -149.5 2.5t-83.5 9t-35 19.5t-7 33q0 35 10.5 71t25.5 69.5t34.5 61.5t40.5 49q56 57 129 117.5t159 117
t184 104.5t205 82q4 1 6 1q7 0 7 -7q0 -3 -2 -8q-16 -35 -39.5 -74.5t-43.5 -48.5q-155 -67 -267.5 -136.5t-184.5 -130.5t-107.5 -104t-35.5 -53q0 -6 25.5 -10.5t61 -9t75 -6.5t69.5 -2q111 0 216.5 12t198.5 12q58 0 109.5 -8t96 -29.5t80 -58t61.5 -96.5
q11 -26 19.5 -66.5t8.5 -93.5q0 -19 -5 -49v-1z" />
    <glyph glyph-name="uni06AA.fina" unicode="&#x6aa;" horiz-adv-x="1638" 
d="M1298 432v-2q-37 29 -86 41h-1q-2 0 -4 1q-48 10 -102 10q-100 0 -221.5 -18.5t-260.5 -18.5q-93 0 -148.5 2.5t-83.5 9t-35 19.5t-7 33q0 35 10 71t25.5 69.5t35 61.5t39.5 49q57 57 130 117.5t159 117t183.5 104.5t205.5 82q3 1 6 1q6 0 6 -7q0 -3 -2 -8
q-15 -35 -39 -74.5t-43 -48.5q-155 -67 -268 -136.5t-185 -130.5t-107 -104t-35 -53q0 -6 25.5 -10.5t61 -9t75 -6.5t69.5 -2q110 0 215.5 12t199.5 12q48 0 91 -5q11 -1 21 -3q51 -8 95.5 -29.5t80 -58t61.5 -96.5q11 -26 19.5 -66.5t8.5 -93.5q0 -19 -4 -49v-1
q35 -35 81 -47q34 -12 88 -12q27 0 37.5 -17.5t10.5 -56.5v-9q0 -42 -23 -57t-62 -15q-135 0 -202 86q-54 6 -103 6q-56 -6 -109 -14q-44 -5 -87 -12q-91 -16 -205 -34.5t-217 -26.5q-87 -7 -147 -7h-12q-64 0 -111.5 1t-104.5 1q-49 2 -74 4q-31 1 -56 6t-49 17t-49.5 31
t-53.5 52q-16 15 -28.5 32.5t-12.5 26.5q0 13 15 13q24 0 47.5 -4t57 -10t76 -9.5t117 -5.5t195.5 -3q107 0 189 6t195 22.5t212.5 31.5t190.5 15h50q19 0 46 -3q-5 77 -29 127.5t-61 80.5q-1 1 -3 2z" />
    <glyph glyph-name="uni06AB.init" unicode="&#x6ab;" horiz-adv-x="885" 
d="M843 1317q12 0 12 -15q0 -7 -1.5 -17.5t-3.5 -17.5q-7 -33 -19 -53.5t-46 -29.5q-99 -31 -195 -66t-176.5 -67.5t-141.5 -61t-90 -44.5q50 -52 99.5 -102.5t94 -99t81.5 -92.5t61 -81q47 -76 65.5 -132t18.5 -109q0 -62 -23 -120.5t-88 -105t-184 -75t-309 -28.5
q-63 0 -63 70v11q0 39 24 56.5t61 17.5q142 0 231.5 12t141 33.5t70 49.5t18.5 62q0 29 -12 64.5t-32 70.5t-46 68.5t-54 65.5q-62 74 -142 146q-42 48 -81 81t-39 57q0 17 7.5 45t18 59t23 54.5t24.5 33.5q51 29 128.5 65t170.5 72t194.5 68.5t201.5 54.5zM134 1184
q-11 -5 -13 -5q-3 0 -3 7q5 33 21 57t30 33q51 28 138 63t185 69.5t196.5 63.5t174.5 46q5 0 5 -8q0 -1 -3.5 -14.5t-9 -28.5t-12 -28t-10.5 -13q-120 -28 -226.5 -61t-196.5 -66.5t-161 -63t-115 -51.5z" />
    <glyph glyph-name="uni06AB.medi" unicode="&#x6ab;" horiz-adv-x="840" 
d="M164 945q24 -51 66 -123q37 -60 94.5 -152.5t141.5 -217.5q59 -89 108 -146t95 -91t92.5 -47t99.5 -13q28 0 38 -17.5t10 -56.5v-9q0 -42 -23 -57t-62 -15q-92 0 -179 47.5t-182 168.5q-17 -35 -41 -73t-74 -70t-136.5 -52.5t-228.5 -20.5q-18 0 -33 16.5t-15 53.5v11
q0 39 24 56.5t61 17.5q96 0 160.5 11t103 31.5t55.5 49t17 65.5q0 26 -23 74.5t-57.5 106.5t-75 121t-74.5 116.5t-57 93t-23 52.5t7 38.5t19.5 54.5t27 53t29.5 35q44 26 108 55.5t136.5 58t146 55.5t136.5 47t109 32t61 12q9 0 9 -18q0 -16 -7 -44q-6 -25 -17 -43.5
t-44 -27.5q-100 -31 -196 -66t-176 -67.5t-141 -61t-90 -44.5zM64 1184q-11 -5 -13 -5q-3 0 -3 7q5 33 21 57t30 33q52 28 138.5 63t184 69.5t196.5 63.5t174 46q6 0 6 -8q0 -1 -3.5 -14.5t-9 -28.5t-12 -28t-9.5 -13q-121 -28 -228 -61t-196.5 -66.5t-160 -63t-115.5 -51.5
z" />
    <glyph glyph-name="uni06AB.fina" unicode="&#x6ab;" horiz-adv-x="1872" 
d="M1160 1057q42 26 107 55.5t137.5 58t146.5 55.5t137 47t109 32t60 12q10 0 10 -18q0 -16 -8 -44q-6 -25 -16.5 -43.5t-43.5 -27.5q-100 -31 -196 -66t-176.5 -67.5t-141 -61t-90.5 -44.5q24 -51 67 -123q37 -60 94 -152.5t142 -217.5q59 -89 107.5 -146t94.5 -91
t92.5 -47t99.5 -13q28 0 38 -17.5t10 -56.5v-9q0 -42 -23 -57t-62 -15q-93 0 -183 52t-193 179q-25 -69 -78 -117.5t-124 -82t-155.5 -52t-176 -27.5t-185 -12t-179.5 -3q-164 0 -275 21t-179 63t-97.5 103t-29.5 140q0 33 5.5 67.5t16 65.5t22 59t24.5 44q18 28 67 30
q22 0 22 -14q0 -9 -13 -44q-9 -25 -17.5 -61t-8.5 -79q0 -66 30.5 -111t99.5 -73t180.5 -40.5t273.5 -12.5q183 0 313.5 18.5t213 48.5t120.5 68.5t38 81.5q0 26 -23 74.5t-57 106.5t-74.5 121t-75 116.5t-57.5 93t-23 52.5t7.5 38.5t19.5 54.5t27 53t29 35zM1090 1184
q-11 -5 -13 -5q-3 0 -3 7q5 33 20.5 57t30.5 33q52 28 138.5 63t184 69.5t196.5 63.5t174 46q6 0 6 -8q0 -1 -3.5 -14.5t-9 -28.5t-12 -28t-9.5 -13q-121 -28 -228 -61t-196.5 -66.5t-160 -63t-115.5 -51.5z" />
    </font>
</defs>
</svg>
