<?xml version="1.0" standalone="no"?>
<!DOCTYPE svg PUBLIC "-//W3C//DTD SVG 1.1//EN" "http://www.w3.org/Graphics/SVG/1.1/DTD/svg11.dtd" >
<svg xmlns="http://www.w3.org/2000/svg" xmlns:xlink="http://www.w3.org/1999/xlink" version="1.1">
<metadata>
Created by FontForge 20170731 at Sat Oct 15 20:02:26 2016
 By Aleksey,,,
(c)  2013 Bahij Virtual Academy. All rights reserved.
</metadata>
<defs>
<font id="BahijInsan-Bold" horiz-adv-x="0" >
  <font-face 
    font-family="Bahij Insan"
    font-weight="700"
    font-stretch="normal"
    units-per-em="2048"
    panose-1="2 4 7 3 6 2 1 2 2 3"
    ascent="1638"
    descent="-410"
    x-height="817"
    cap-height="1163"
    bbox="-231 -946 5003 1801"
    underline-thickness="50"
    underline-position="-150"
    unicode-range="U+0020-FEFC"
  />
<missing-glyph horiz-adv-x="728" 
d="M0 0v1020h728v-1020h-728zM117 947l247 -372l248 372h-495zM655 881l-247 -371l247 -372v743zM612 73l-248 371l-247 -371h495zM73 138l247 372l-247 371v-743z" />
    <glyph glyph-name="uniFB01" unicode="fi" horiz-adv-x="868" 
d="M599 0q-4 27 -8 51q-4 23 -6 48.5t-2 47.5v547h-254v-694h-160q-4 27 -8 51q-4 23 -6 48.5t-2 47.5v547h-127v117h127v213q0 96 66.5 142t158.5 46q76 0 170 -22.5t183 -50.5l-60 -111q-80 23 -146.5 42.5t-113.5 19.5q-49 0 -65.5 -28t-16.5 -61v-190h426v-811h-156z
" />
    <glyph glyph-name="uniFB02" unicode="fl" horiz-adv-x="905" 
d="M667 -16q-18 20 -31 45q-10 22 -19 52t-9 69v901q-56 16 -104 27.5t-91 11.5q-45 0 -64.5 -25t-19.5 -64v-190h160l-14 -117h-146v-694h-160q-4 27 -8 51q-4 23 -6 48.5t-2 47.5v547h-127v117h127v213q0 55 22.5 92t55.5 58.5t71.5 29.5t71.5 8q43 0 84 -5t87 -15
t100.5 -23.5t123.5 -27.5q2 -23 7 -45q4 -21 6 -46.5t2 -50.5v-852l33 -96z" />
    <glyph glyph-name="uniFC31" unicode="&#xfed3;&#xfef0;" horiz-adv-x="2721" arabic-form="isolated" 
d="M1875 0q-47 0 -81.5 3t-63.5 17.5t-53.5 45t-48.5 84.5l-207 411q-17 29 -37.5 39t-40.5 10q-33 0 -58.5 -20.5t-25.5 -54.5q0 -11 4 -23t14 -33l64 -117q31 -57 42 -97t11 -75q0 -86 -63.5 -138t-194.5 -52h-682q-90 0 -160.5 31.5t-122 87t-78 128t-26.5 154.5
q0 179 108.5 276t313.5 97q24 0 48 -1t48 -3l-88 -145q-10 2 -15 2h-14q-110 0 -175.5 -55.5t-65.5 -159.5q0 -29 10 -68t35.5 -76t69.5 -62.5t110 -25.5h688q43 0 61.5 15.5t18.5 42.5q0 10 -4 23t-19 42l-67 125q-21 31 -28 61.5t-7 59.5q0 49 22.5 89t57.5 68.5t80 44
t90 15.5q72 0 128 -35t91 -100l164 -340q14 -29 25.5 -49.5t25.5 -32.5t33.5 -18.5t48.5 -6.5h442q92 0 140 30t48 105v136q0 75 -40 132.5t-116 57.5q-57 0 -100 -40t-43 -105q0 -62 40 -91.5t89 -29.5q37 0 74 16.5t61 50.5v-131q-65 -57 -153 -57q-48 0 -92 17.5
t-78.5 49t-56 78t-21.5 103.5q0 55 22.5 105.5t60.5 87t89 59t106 22.5q70 0 126.5 -24.5t96 -67.5t61 -103.5t21.5 -129.5v-131q0 -76 -14 -135.5t-51 -101.5t-102.5 -64.5t-167.5 -22.5h-428zM2231 944l100 103l103 -103l-103 -102z" />
    <glyph glyph-name="uniFC32" unicode="&#xfed3;&#xfef2;" horiz-adv-x="2721" arabic-form="isolated" 
d="M597 -199l103 101l100 -101l-100 -102zM810 -199l101 101l102 -101l-102 -102zM1875 0q-47 0 -81.5 3t-63.5 17.5t-53.5 45t-48.5 84.5l-207 411q-17 29 -37.5 39t-40.5 10q-33 0 -58.5 -20.5t-25.5 -54.5q0 -11 4 -23t14 -33l64 -117q31 -57 42 -97t11 -75
q0 -86 -63.5 -138t-194.5 -52h-682q-90 0 -160.5 31.5t-122 87t-78 128t-26.5 154.5q0 179 108.5 276t313.5 97q24 0 48 -1t48 -3l-88 -145q-10 2 -15 2h-14q-110 0 -175.5 -55.5t-65.5 -159.5q0 -29 10 -68t35.5 -76t69.5 -62.5t110 -25.5h688q43 0 61.5 15.5t18.5 42.5
q0 10 -4 23t-19 42l-67 125q-21 31 -28 61.5t-7 59.5q0 49 22.5 89t57.5 68.5t80 44t90 15.5q72 0 128 -35t91 -100l164 -340q14 -29 25.5 -49.5t25.5 -32.5t33.5 -18.5t48.5 -6.5h442q92 0 140 30t48 105v136q0 75 -40 132.5t-116 57.5q-57 0 -100 -40t-43 -105
q0 -62 40 -91.5t89 -29.5q37 0 74 16.5t61 50.5v-131q-65 -57 -153 -57q-48 0 -92 17.5t-78.5 49t-56 78t-21.5 103.5q0 55 22.5 105.5t60.5 87t89 59t106 22.5q70 0 126.5 -24.5t96 -67.5t61 -103.5t21.5 -129.5v-131q0 -76 -14 -135.5t-51 -101.5t-102.5 -64.5
t-167.5 -22.5h-428zM2231 944l100 103l103 -103l-103 -102z" />
    <glyph glyph-name="uniFC43" unicode="&#xfedf;&#xfef0;" horiz-adv-x="2379" arabic-form="isolated" 
d="M1875 0q-47 0 -81.5 3t-63.5 17.5t-53.5 45t-48.5 84.5l-207 411q-17 29 -37.5 39t-40.5 10q-33 0 -58.5 -20.5t-25.5 -54.5q0 -11 4 -23t14 -33l64 -117q31 -57 42 -97t11 -75q0 -86 -63.5 -138t-194.5 -52h-682q-90 0 -160.5 31.5t-122 87t-78 128t-26.5 154.5
q0 179 108.5 276t313.5 97q24 0 48 -1t48 -3l-88 -145q-10 2 -15 2h-14q-110 0 -175.5 -55.5t-65.5 -159.5q0 -29 10 -68t35.5 -76t69.5 -62.5t110 -25.5h688q43 0 61.5 15.5t18.5 42.5q0 10 -4 23t-19 42l-67 125q-21 31 -28 61.5t-7 59.5q0 49 22.5 89t57.5 68.5t80 44
t90 15.5q72 0 128 -35t91 -100l164 -340q14 -29 25.5 -49.5t25.5 -32.5t33.5 -18.5t48.5 -6.5h184q36 0 50.5 20.5t14.5 51.5v649l166 139v-845q0 -93 -46 -146t-145 -53h-210z" />
    <glyph glyph-name="uniFC44" unicode="&#xfedf;&#xfef2;" horiz-adv-x="2379" arabic-form="isolated" 
d="M597 -199l103 101l100 -101l-100 -102zM810 -199l101 101l102 -101l-102 -102zM1875 0q-47 0 -81.5 3t-63.5 17.5t-53.5 45t-48.5 84.5l-207 411q-17 29 -37.5 39t-40.5 10q-33 0 -58.5 -20.5t-25.5 -54.5q0 -11 4 -23t14 -33l64 -117q31 -57 42 -97t11 -75
q0 -86 -63.5 -138t-194.5 -52h-682q-90 0 -160.5 31.5t-122 87t-78 128t-26.5 154.5q0 179 108.5 276t313.5 97q24 0 48 -1t48 -3l-88 -145q-10 2 -15 2h-14q-110 0 -175.5 -55.5t-65.5 -159.5q0 -29 10 -68t35.5 -76t69.5 -62.5t110 -25.5h688q43 0 61.5 15.5t18.5 42.5
q0 10 -4 23t-19 42l-67 125q-21 31 -28 61.5t-7 59.5q0 49 22.5 89t57.5 68.5t80 44t90 15.5q72 0 128 -35t91 -100l164 -340q14 -29 25.5 -49.5t25.5 -32.5t33.5 -18.5t48.5 -6.5h184q36 0 50.5 20.5t14.5 51.5v649l166 139v-845q0 -93 -46 -146t-145 -53h-210z" />
    <glyph glyph-name="uniFC64" unicode="&#xfe8c;&#xfeae;" horiz-adv-x="1361" arabic-form="final" 
d="M654 0q-47 -135 -196.5 -218t-401.5 -83h-24l86 158q61 2 129.5 20.5t128 49t98.5 75.5t39 104q0 33 -1 55.5t-5 57.5l-47 410l151 123l60 -529q0 -12 1 -22.5t1 -16.5h288q28 0 46.5 14.5t18.5 45.5v370l164 138v-504q0 -29 17.5 -46.5t43.5 -17.5h111v-184h-129
q-43 0 -77 25.5t-50 56.5q-8 -33 -44 -57.5t-79 -24.5h-329zM1192 1067v-72q-18 13 -45 13q-23 0 -39 -13.5t-16 -36.5q0 -22 17 -31t40 -9h113v-76h-289l-66 76h127q-10 26 -10 47q0 49 36 80.5t83 31.5q22 0 49 -10z" />
    <glyph glyph-name="uniFC67" unicode="&#xfe8c;&#xfee6;" horiz-adv-x="1722" arabic-form="final" 
d="M598 938l102 104l101 -104l-101 -96zM1135 0q-93 0 -119 55q-17 -78 -60 -144.5t-103 -113.5t-133 -73.5t-149 -26.5q-102 0 -191 42t-153.5 110.5t-101.5 157.5t-37 186q0 90 28.5 171.5t83 143t130.5 98.5t168 37h20q10 0 21 -2l-93 -152q-51 -8 -89 -34.5t-63.5 -65.5
t-37.5 -86t-12 -96q0 -72 24.5 -134.5t67.5 -108.5t103.5 -73.5t131.5 -27.5q60 0 113 21.5t92 60.5t61.5 89t22.5 109v379l162 125v-352q0 -49 21.5 -80t76.5 -31h202q28 0 46.5 14.5t18.5 45.5v370l164 138v-504q0 -29 17.5 -46.5t43.5 -17.5h111v-184h-129
q-43 0 -77 25.5t-50 56.5q-8 -33 -44 -57.5t-79 -24.5h-209zM1553 1067v-72q-18 13 -45 13q-23 0 -39 -13.5t-16 -36.5q0 -22 17 -31t40 -9h113v-76h-289l-66 76h127q-10 26 -10 47q0 49 36 80.5t83 31.5q22 0 49 -10z" />
    <glyph glyph-name="uniFC6A" unicode="&#xfe92;&#xfeae;" horiz-adv-x="1362" arabic-form="final" 
d="M1011 -201l100 103l104 -103l-104 -102zM655 0q-48 -135 -197.5 -218t-400.5 -83h-25l86 158q61 2 130 20.5t128 49t98 75.5t39 104q0 33 -1 55.5t-5 57.5l-47 410l152 123l59 -529q0 -12 1 -22.5t1 -16.5h289q28 0 46.5 14.5t18.5 45.5v370l164 138v-504
q0 -29 17.5 -46.5t43.5 -17.5h111v-184h-129q-43 0 -77 25.5t-50 56.5q-8 -33 -44 -57.5t-79 -24.5h-329z" />
    <glyph glyph-name="uniFC70" unicode="&#xfe98;&#xfeae;" horiz-adv-x="1362" arabic-form="final" 
d="M1117 944l96 98l97 -98l-97 -96zM655 0q-48 -135 -197.5 -218t-400.5 -83h-25l86 158q61 2 130 20.5t128 49t98 75.5t39 104q0 33 -1 55.5t-5 57.5l-47 410l152 123l59 -529q0 -12 1 -22.5t1 -16.5h289q28 0 46.5 14.5t18.5 45.5v370l164 138v-504q0 -29 17.5 -46.5
t43.5 -17.5h111v-184h-129q-43 0 -77 25.5t-50 56.5q-8 -33 -44 -57.5t-79 -24.5h-329zM890 944l100 98l96 -98l-96 -96z" />
    <glyph glyph-name="uniFC86" unicode="&#xfee0;&#xfef0;" horiz-adv-x="2406" arabic-form="final" 
d="M1875 0q-47 0 -81.5 3t-63.5 17.5t-53.5 45t-48.5 84.5l-207 411q-17 29 -37.5 39t-40.5 10q-33 0 -58.5 -20.5t-25.5 -54.5q0 -11 4 -23t14 -33l64 -117q31 -57 42 -97t11 -75q0 -86 -63.5 -138t-194.5 -52h-682q-90 0 -160.5 31.5t-122 87t-78 128t-26.5 154.5
q0 179 108.5 276t313.5 97q24 0 48 -1t48 -3l-88 -145q-10 2 -15 2h-14q-110 0 -175.5 -55.5t-65.5 -159.5q0 -29 10 -68t35.5 -76t69.5 -62.5t110 -25.5h688q43 0 61.5 15.5t18.5 42.5q0 10 -4 23t-19 42l-67 125q-21 31 -28 61.5t-7 59.5q0 49 22.5 89t57.5 68.5t80 44
t90 15.5q72 0 128 -35t91 -100l164 -340q14 -29 25.5 -49.5t25.5 -32.5t33.5 -18.5t48.5 -6.5h147q32 0 46.5 20.5t14.5 51.5v651l166 137v-792q0 -68 66 -68h106v-184h-129q-47 0 -80 24.5t-47 57.5q-10 -33 -46 -57.5t-77 -24.5h-153z" />
    <glyph glyph-name="uniFC87" unicode="&#xfee0;&#xfef2;" horiz-adv-x="2406" arabic-form="final" 
d="M597 -199l103 101l100 -101l-100 -102zM810 -199l101 101l102 -101l-102 -102zM1875 0q-47 0 -81.5 3t-63.5 17.5t-53.5 45t-48.5 84.5l-207 411q-17 29 -37.5 39t-40.5 10q-33 0 -58.5 -20.5t-25.5 -54.5q0 -11 4 -23t14 -33l64 -117q31 -57 42 -97t11 -75
q0 -86 -63.5 -138t-194.5 -52h-682q-90 0 -160.5 31.5t-122 87t-78 128t-26.5 154.5q0 179 108.5 276t313.5 97q24 0 48 -1t48 -3l-88 -145q-10 2 -15 2h-14q-110 0 -175.5 -55.5t-65.5 -159.5q0 -29 10 -68t35.5 -76t69.5 -62.5t110 -25.5h688q43 0 61.5 15.5t18.5 42.5
q0 10 -4 23t-19 42l-67 125q-21 31 -28 61.5t-7 59.5q0 49 22.5 89t57.5 68.5t80 44t90 15.5q72 0 128 -35t91 -100l164 -340q14 -29 25.5 -49.5t25.5 -32.5t33.5 -18.5t48.5 -6.5h147q32 0 46.5 20.5t14.5 51.5v651l166 137v-792q0 -68 66 -68h106v-184h-129
q-47 0 -80 24.5t-47 57.5q-10 -33 -46 -57.5t-77 -24.5h-153z" />
    <glyph glyph-name="uniFCCC" unicode="&#xfedf;&#xfee4;" horiz-adv-x="1639" arabic-form="initial" 
d="M1064 0q-68 0 -117 38t-64 77q-32 -52 -76 -86.5t-110 -48.5l-256 174l57 133l213 -123q47 29 71 82t24 112q0 82 -46.5 134.5t-111.5 52.5q-39 0 -71 -20.5t-52 -63.5l-135 -299q-41 -92 -99.5 -127t-162.5 -35h-127q-33 0 -52.5 28.5t-19.5 63.5t19.5 63.5t52.5 28.5
h145q33 0 53.5 8.5t36 23.5t25.5 35.5t20 45.5l97 221q36 88 107 137.5t161 49.5q71 0 127.5 -26t96.5 -72t62.5 -108.5t26.5 -136.5q2 -32 6 -64t20.5 -57.5t49.5 -41t90 -15.5h180q36 0 50.5 20.5t14.5 51.5v649l166 139v-845q0 -93 -46 -146t-145 -53h-281z" />
    <glyph glyph-name="uniFCFB" unicode="&#xfeb3;&#xfef0;" horiz-adv-x="3301" arabic-form="isolated" 
d="M1875 0q-47 0 -81.5 3t-63.5 17.5t-53.5 45t-48.5 84.5l-207 411q-17 29 -37.5 39t-40.5 10q-33 0 -58.5 -20.5t-25.5 -54.5q0 -11 4 -23t14 -33l64 -117q31 -57 42 -97t11 -75q0 -86 -63.5 -138t-194.5 -52h-682q-90 0 -160.5 31.5t-122 87t-78 128t-26.5 154.5
q0 179 108.5 276t313.5 97q24 0 48 -1t48 -3l-88 -145q-10 2 -15 2h-14q-110 0 -175.5 -55.5t-65.5 -159.5q0 -29 10 -68t35.5 -76t69.5 -62.5t110 -25.5h688q43 0 61.5 15.5t18.5 42.5q0 10 -4 23t-19 42l-67 125q-21 31 -28 61.5t-7 59.5q0 49 22.5 89t57.5 68.5t80 44
t90 15.5q72 0 128 -35t91 -100l164 -340q14 -29 25.5 -49.5t25.5 -32.5t33.5 -18.5t48.5 -6.5h206q66 0 66 64v332l170 135v-469q0 -29 16 -45.5t45 -16.5h201q26 0 42.5 15.5t16.5 44.5v366l168 131v-493q0 -29 17.5 -46.5t46.5 -17.5h118q31 0 47.5 14.5t16.5 37.5
q0 4 -4 14l-43 364l151 127l53 -438q5 -29 7 -44t2 -30q0 -96 -55.5 -162.5t-186.5 -66.5h-119q-45 0 -78.5 22.5t-48.5 59.5q-14 -37 -50 -59.5t-77 -22.5h-243q-41 0 -76 20.5t-53 61.5q-11 -33 -46.5 -57.5t-70.5 -24.5h-225z" />
    <glyph glyph-name="uniFCFC" unicode="&#xfeb3;&#xfef2;" horiz-adv-x="3301" arabic-form="isolated" 
d="M597 -199l103 101l100 -101l-100 -102zM810 -199l101 101l102 -101l-102 -102zM1875 0q-47 0 -81.5 3t-63.5 17.5t-53.5 45t-48.5 84.5l-207 411q-17 29 -37.5 39t-40.5 10q-33 0 -58.5 -20.5t-25.5 -54.5q0 -11 4 -23t14 -33l64 -117q31 -57 42 -97t11 -75
q0 -86 -63.5 -138t-194.5 -52h-682q-90 0 -160.5 31.5t-122 87t-78 128t-26.5 154.5q0 179 108.5 276t313.5 97q24 0 48 -1t48 -3l-88 -145q-10 2 -15 2h-14q-110 0 -175.5 -55.5t-65.5 -159.5q0 -29 10 -68t35.5 -76t69.5 -62.5t110 -25.5h688q43 0 61.5 15.5t18.5 42.5
q0 10 -4 23t-19 42l-67 125q-21 31 -28 61.5t-7 59.5q0 49 22.5 89t57.5 68.5t80 44t90 15.5q72 0 128 -35t91 -100l164 -340q14 -29 25.5 -49.5t25.5 -32.5t33.5 -18.5t48.5 -6.5h206q66 0 66 64v332l170 135v-469q0 -29 16 -45.5t45 -16.5h201q26 0 42.5 15.5t16.5 44.5
v366l168 131v-493q0 -29 17.5 -46.5t46.5 -17.5h118q31 0 47.5 14.5t16.5 37.5q0 4 -4 14l-43 364l151 127l53 -438q5 -29 7 -44t2 -30q0 -96 -55.5 -162.5t-186.5 -66.5h-119q-45 0 -78.5 22.5t-48.5 59.5q-14 -37 -50 -59.5t-77 -22.5h-243q-41 0 -76 20.5t-53 61.5
q-11 -33 -46.5 -57.5t-70.5 -24.5h-225z" />
    <glyph glyph-name="uniFCFD" unicode="&#xfeb7;&#xfef0;" horiz-adv-x="3301" arabic-form="isolated" 
d="M2729 944l96 98l98 -98l-98 -96zM1875 0q-47 0 -81.5 3t-63.5 17.5t-53.5 45t-48.5 84.5l-207 411q-17 29 -37.5 39t-40.5 10q-33 0 -58.5 -20.5t-25.5 -54.5q0 -11 4 -23t14 -33l64 -117q31 -57 42 -97t11 -75q0 -86 -63.5 -138t-194.5 -52h-682q-90 0 -160.5 31.5
t-122 87t-78 128t-26.5 154.5q0 179 108.5 276t313.5 97q24 0 48 -1t48 -3l-88 -145q-10 2 -15 2h-14q-110 0 -175.5 -55.5t-65.5 -159.5q0 -29 10 -68t35.5 -76t69.5 -62.5t110 -25.5h688q43 0 61.5 15.5t18.5 42.5q0 10 -4 23t-19 42l-67 125q-21 31 -28 61.5t-7 59.5
q0 49 22.5 89t57.5 68.5t80 44t90 15.5q72 0 128 -35t91 -100l164 -340q14 -29 25.5 -49.5t25.5 -32.5t33.5 -18.5t48.5 -6.5h206q66 0 66 64v332l170 135v-469q0 -29 16 -45.5t45 -16.5h201q26 0 42.5 15.5t16.5 44.5v366l168 131v-493q0 -29 17.5 -46.5t46.5 -17.5h118
q31 0 47.5 14.5t16.5 37.5q0 4 -4 14l-43 364l151 127l53 -438q5 -29 7 -44t2 -30q0 -96 -55.5 -162.5t-186.5 -66.5h-119q-45 0 -78.5 22.5t-48.5 59.5q-14 -37 -50 -59.5t-77 -22.5h-243q-41 0 -76 20.5t-53 61.5q-11 -33 -46.5 -57.5t-70.5 -24.5h-225zM2501 944l99 98
l96 -98l-96 -96zM2614 1108l96 96l98 -96l-98 -98z" />
    <glyph glyph-name="uniFCFE" unicode="&#xfeb7;&#xfef2;" horiz-adv-x="3301" arabic-form="isolated" 
d="M597 -199l103 101l100 -101l-100 -102zM810 -199l101 101l102 -101l-102 -102zM2729 944l96 98l98 -98l-98 -96zM1875 0q-47 0 -81.5 3t-63.5 17.5t-53.5 45t-48.5 84.5l-207 411q-17 29 -37.5 39t-40.5 10q-33 0 -58.5 -20.5t-25.5 -54.5q0 -11 4 -23t14 -33l64 -117
q31 -57 42 -97t11 -75q0 -86 -63.5 -138t-194.5 -52h-682q-90 0 -160.5 31.5t-122 87t-78 128t-26.5 154.5q0 179 108.5 276t313.5 97q24 0 48 -1t48 -3l-88 -145q-10 2 -15 2h-14q-110 0 -175.5 -55.5t-65.5 -159.5q0 -29 10 -68t35.5 -76t69.5 -62.5t110 -25.5h688
q43 0 61.5 15.5t18.5 42.5q0 10 -4 23t-19 42l-67 125q-21 31 -28 61.5t-7 59.5q0 49 22.5 89t57.5 68.5t80 44t90 15.5q72 0 128 -35t91 -100l164 -340q14 -29 25.5 -49.5t25.5 -32.5t33.5 -18.5t48.5 -6.5h206q66 0 66 64v332l170 135v-469q0 -29 16 -45.5t45 -16.5h201
q26 0 42.5 15.5t16.5 44.5v366l168 131v-493q0 -29 17.5 -46.5t46.5 -17.5h118q31 0 47.5 14.5t16.5 37.5q0 4 -4 14l-43 364l151 127l53 -438q5 -29 7 -44t2 -30q0 -96 -55.5 -162.5t-186.5 -66.5h-119q-45 0 -78.5 22.5t-48.5 59.5q-14 -37 -50 -59.5t-77 -22.5h-243
q-41 0 -76 20.5t-53 61.5q-11 -33 -46.5 -57.5t-70.5 -24.5h-225zM2501 944l99 98l96 -98l-96 -96zM2614 1108l96 96l98 -96l-98 -98z" />
    <glyph glyph-name="uniFD05" unicode="&#xfebb;&#xfef0;" horiz-adv-x="3399" arabic-form="isolated" 
d="M2444 184h450q48 0 93 18.5t79.5 50.5t55 75t20.5 94q0 78 -48 121t-122 43q-69 0 -144 -43t-145.5 -105.5t-133 -132t-105.5 -121.5zM1875 0q-47 0 -81.5 3t-63.5 17.5t-53.5 45t-48.5 84.5l-207 411q-17 29 -37.5 39t-40.5 10q-33 0 -58.5 -20.5t-25.5 -54.5
q0 -11 4 -23t14 -33l64 -117q31 -57 42 -97t11 -75q0 -86 -63.5 -138t-194.5 -52h-682q-90 0 -160.5 31.5t-122 87t-78 128t-26.5 154.5q0 179 108.5 276t313.5 97q24 0 48 -1t48 -3l-88 -145q-10 2 -15 2h-14q-110 0 -175.5 -55.5t-65.5 -159.5q0 -29 10 -68t35.5 -76
t69.5 -62.5t110 -25.5h688q43 0 61.5 15.5t18.5 42.5q0 10 -4 23t-19 42l-67 125q-21 31 -28 61.5t-7 59.5q0 49 22.5 89t57.5 68.5t80 44t90 15.5q72 0 128 -35t91 -100l164 -340q14 -29 25.5 -49.5t25.5 -32.5t33.5 -18.5t48.5 -6.5h147q34 0 48.5 19.5t14.5 44.5v274
l160 129v-372q0 -68 51 -76q66 82 142.5 179t164.5 182t186.5 141.5t207.5 56.5q86 0 148 -28.5t102 -77t59.5 -110t19.5 -124.5q0 -78 -26.5 -152.5t-81 -135t-134 -97.5t-184.5 -37h-598q-63 0 -94 24.5t-47 57.5q-8 -33 -46 -57.5t-71 -24.5h-155z" />
    <glyph glyph-name="uniFD06" unicode="&#xfebb;&#xfef2;" horiz-adv-x="3399" arabic-form="isolated" 
d="M597 -199l103 101l100 -101l-100 -102zM810 -199l101 101l102 -101l-102 -102zM2444 184h450q48 0 93 18.5t79.5 50.5t55 75t20.5 94q0 78 -48 121t-122 43q-69 0 -144 -43t-145.5 -105.5t-133 -132t-105.5 -121.5zM1875 0q-47 0 -81.5 3t-63.5 17.5t-53.5 45t-48.5 84.5
l-207 411q-17 29 -37.5 39t-40.5 10q-33 0 -58.5 -20.5t-25.5 -54.5q0 -11 4 -23t14 -33l64 -117q31 -57 42 -97t11 -75q0 -86 -63.5 -138t-194.5 -52h-682q-90 0 -160.5 31.5t-122 87t-78 128t-26.5 154.5q0 179 108.5 276t313.5 97q24 0 48 -1t48 -3l-88 -145q-10 2 -15 2
h-14q-110 0 -175.5 -55.5t-65.5 -159.5q0 -29 10 -68t35.5 -76t69.5 -62.5t110 -25.5h688q43 0 61.5 15.5t18.5 42.5q0 10 -4 23t-19 42l-67 125q-21 31 -28 61.5t-7 59.5q0 49 22.5 89t57.5 68.5t80 44t90 15.5q72 0 128 -35t91 -100l164 -340q14 -29 25.5 -49.5
t25.5 -32.5t33.5 -18.5t48.5 -6.5h147q34 0 48.5 19.5t14.5 44.5v274l160 129v-372q0 -68 51 -76q66 82 142.5 179t164.5 182t186.5 141.5t207.5 56.5q86 0 148 -28.5t102 -77t59.5 -110t19.5 -124.5q0 -78 -26.5 -152.5t-81 -135t-134 -97.5t-184.5 -37h-598
q-63 0 -94 24.5t-47 57.5q-8 -33 -46 -57.5t-71 -24.5h-155z" />
    <glyph glyph-name="uniFD07" unicode="&#xfebf;&#xfef0;" horiz-adv-x="3399" arabic-form="isolated" 
d="M2444 184h450q48 0 93 18.5t79.5 50.5t55 75t20.5 94q0 78 -48 121t-122 43q-69 0 -144 -43t-145.5 -105.5t-133 -132t-105.5 -121.5zM2614 938l100 104l103 -104l-103 -96zM1875 0q-47 0 -81.5 3t-63.5 17.5t-53.5 45t-48.5 84.5l-207 411q-17 29 -37.5 39t-40.5 10
q-33 0 -58.5 -20.5t-25.5 -54.5q0 -11 4 -23t14 -33l64 -117q31 -57 42 -97t11 -75q0 -86 -63.5 -138t-194.5 -52h-682q-90 0 -160.5 31.5t-122 87t-78 128t-26.5 154.5q0 179 108.5 276t313.5 97q24 0 48 -1t48 -3l-88 -145q-10 2 -15 2h-14q-110 0 -175.5 -55.5
t-65.5 -159.5q0 -29 10 -68t35.5 -76t69.5 -62.5t110 -25.5h688q43 0 61.5 15.5t18.5 42.5q0 10 -4 23t-19 42l-67 125q-21 31 -28 61.5t-7 59.5q0 49 22.5 89t57.5 68.5t80 44t90 15.5q72 0 128 -35t91 -100l164 -340q14 -29 25.5 -49.5t25.5 -32.5t33.5 -18.5t48.5 -6.5
h147q34 0 48.5 19.5t14.5 44.5v274l160 129v-372q0 -68 51 -76q66 82 142.5 179t164.5 182t186.5 141.5t207.5 56.5q86 0 148 -28.5t102 -77t59.5 -110t19.5 -124.5q0 -78 -26.5 -152.5t-81 -135t-134 -97.5t-184.5 -37h-598q-63 0 -94 24.5t-47 57.5q-8 -33 -46 -57.5
t-71 -24.5h-155z" />
    <glyph glyph-name="uniFD08" unicode="&#xfebf;&#xfef2;" horiz-adv-x="3399" arabic-form="isolated" 
d="M597 -199l103 101l100 -101l-100 -102zM810 -199l101 101l102 -101l-102 -102zM2444 184h450q48 0 93 18.5t79.5 50.5t55 75t20.5 94q0 78 -48 121t-122 43q-69 0 -144 -43t-145.5 -105.5t-133 -132t-105.5 -121.5zM2614 938l100 104l103 -104l-103 -96zM1875 0
q-47 0 -81.5 3t-63.5 17.5t-53.5 45t-48.5 84.5l-207 411q-17 29 -37.5 39t-40.5 10q-33 0 -58.5 -20.5t-25.5 -54.5q0 -11 4 -23t14 -33l64 -117q31 -57 42 -97t11 -75q0 -86 -63.5 -138t-194.5 -52h-682q-90 0 -160.5 31.5t-122 87t-78 128t-26.5 154.5q0 179 108.5 276
t313.5 97q24 0 48 -1t48 -3l-88 -145q-10 2 -15 2h-14q-110 0 -175.5 -55.5t-65.5 -159.5q0 -29 10 -68t35.5 -76t69.5 -62.5t110 -25.5h688q43 0 61.5 15.5t18.5 42.5q0 10 -4 23t-19 42l-67 125q-21 31 -28 61.5t-7 59.5q0 49 22.5 89t57.5 68.5t80 44t90 15.5
q72 0 128 -35t91 -100l164 -340q14 -29 25.5 -49.5t25.5 -32.5t33.5 -18.5t48.5 -6.5h147q34 0 48.5 19.5t14.5 44.5v274l160 129v-372q0 -68 51 -76q66 82 142.5 179t164.5 182t186.5 141.5t207.5 56.5q86 0 148 -28.5t102 -77t59.5 -110t19.5 -124.5q0 -78 -26.5 -152.5
t-81 -135t-134 -97.5t-184.5 -37h-598q-63 0 -94 24.5t-47 57.5q-8 -33 -46 -57.5t-71 -24.5h-155z" />
    <glyph glyph-name="uniFD0D" unicode="&#xfeb7;&#xfeae;" horiz-adv-x="2261" arabic-form="isolated" 
d="M1689 944l96 98l98 -98l-98 -96zM655 0q-48 -135 -197.5 -218t-400.5 -83h-25l86 158q61 2 130 20.5t128 49t98 75.5t39 104q0 33 -1 55.5t-5 57.5l-47 410l152 123l59 -529q0 -12 1 -22.5t1 -16.5h354q66 0 66 64v332l170 135v-469q0 -29 16 -45.5t45 -16.5h201
q26 0 42.5 15.5t16.5 44.5v366l168 131v-493q0 -29 17.5 -46.5t46.5 -17.5h118q31 0 47.5 14.5t16.5 37.5q0 4 -4 14l-43 364l151 127l53 -438q5 -29 7 -44t2 -30q0 -96 -55.5 -162.5t-186.5 -66.5h-119q-45 0 -78.5 22.5t-48.5 59.5q-14 -37 -50 -59.5t-77 -22.5h-243
q-41 0 -76 20.5t-53 61.5q-11 -33 -46.5 -57.5t-70.5 -24.5h-405zM1461 944l99 98l96 -98l-96 -96zM1574 1108l96 96l98 -96l-98 -98z" />
    <glyph glyph-name="uniFD0E" unicode="&#xfeb3;&#xfeae;" horiz-adv-x="2261" arabic-form="isolated" 
d="M655 0q-48 -135 -197.5 -218t-400.5 -83h-25l86 158q61 2 130 20.5t128 49t98 75.5t39 104q0 33 -1 55.5t-5 57.5l-47 410l152 123l59 -529q0 -12 1 -22.5t1 -16.5h354q66 0 66 64v332l170 135v-469q0 -29 16 -45.5t45 -16.5h201q26 0 42.5 15.5t16.5 44.5v366l168 131
v-493q0 -29 17.5 -46.5t46.5 -17.5h118q31 0 47.5 14.5t16.5 37.5q0 4 -4 14l-43 364l151 127l53 -438q5 -29 7 -44t2 -30q0 -96 -55.5 -162.5t-186.5 -66.5h-119q-45 0 -78.5 22.5t-48.5 59.5q-14 -37 -50 -59.5t-77 -22.5h-243q-41 0 -76 20.5t-53 61.5
q-11 -33 -46.5 -57.5t-70.5 -24.5h-405z" />
    <glyph glyph-name="uniFD0F" unicode="&#xfebb;&#xfeae;" horiz-adv-x="2359" arabic-form="isolated" 
d="M1404 184h450q48 0 93 18.5t79.5 50.5t55 75t20.5 94q0 78 -48 121t-122 43q-69 0 -144 -43t-145.5 -105.5t-133 -132t-105.5 -121.5zM655 0q-48 -135 -197.5 -218t-400.5 -83h-25l86 158q61 2 130 20.5t128 49t98 75.5t39 104q0 33 -1 55.5t-5 57.5l-47 410l152 123
l59 -529q0 -12 1 -22.5t1 -16.5h295q34 0 48.5 19.5t14.5 44.5v274l160 129v-372q0 -68 51 -76q66 82 142.5 179t164.5 182t186.5 141.5t207.5 56.5q86 0 148 -28.5t102 -77t59.5 -110t19.5 -124.5q0 -78 -26.5 -152.5t-81 -135t-134 -97.5t-184.5 -37h-598q-63 0 -94 24.5
t-47 57.5q-8 -33 -46 -57.5t-71 -24.5h-335z" />
    <glyph glyph-name="uniFD10" unicode="&#xfebf;&#xfeae;" horiz-adv-x="2359" arabic-form="isolated" 
d="M1404 184h450q48 0 93 18.5t79.5 50.5t55 75t20.5 94q0 78 -48 121t-122 43q-69 0 -144 -43t-145.5 -105.5t-133 -132t-105.5 -121.5zM1574 938l100 104l103 -104l-103 -96zM655 0q-48 -135 -197.5 -218t-400.5 -83h-25l86 158q61 2 130 20.5t128 49t98 75.5t39 104
q0 33 -1 55.5t-5 57.5l-47 410l152 123l59 -529q0 -12 1 -22.5t1 -16.5h295q34 0 48.5 19.5t14.5 44.5v274l160 129v-372q0 -68 51 -76q66 82 142.5 179t164.5 182t186.5 141.5t207.5 56.5q86 0 148 -28.5t102 -77t59.5 -110t19.5 -124.5q0 -78 -26.5 -152.5t-81 -135
t-134 -97.5t-184.5 -37h-598q-63 0 -94 24.5t-47 57.5q-8 -33 -46 -57.5t-71 -24.5h-335z" />
    <glyph glyph-name="uniFD17" unicode="&#xfeb4;&#xfef0;" horiz-adv-x="3377" arabic-form="final" 
d="M1875 0q-47 0 -81.5 3t-63.5 17.5t-53.5 45t-48.5 84.5l-207 411q-17 29 -37.5 39t-40.5 10q-33 0 -58.5 -20.5t-25.5 -54.5q0 -11 4 -23t14 -33l64 -117q31 -57 42 -97t11 -75q0 -86 -63.5 -138t-194.5 -52h-682q-90 0 -160.5 31.5t-122 87t-78 128t-26.5 154.5
q0 179 108.5 276t313.5 97q24 0 48 -1t48 -3l-88 -145q-10 2 -15 2h-14q-110 0 -175.5 -55.5t-65.5 -159.5q0 -29 10 -68t35.5 -76t69.5 -62.5t110 -25.5h688q43 0 61.5 15.5t18.5 42.5q0 10 -4 23t-19 42l-67 125q-21 31 -28 61.5t-7 59.5q0 49 22.5 89t57.5 68.5t80 44
t90 15.5q72 0 128 -35t91 -100l164 -340q14 -29 25.5 -49.5t25.5 -32.5t33.5 -18.5t48.5 -6.5h192q67 0 67 64v332l166 135v-469q0 -29 16.5 -45.5t47.5 -16.5h202q25 0 41.5 15.5t16.5 44.5v366l168 131v-493q0 -29 18.5 -46.5t44.5 -17.5h119q29 0 47.5 14.5t18.5 37.5v5
q0 3 -5 19l-47 354l154 127l63 -471q7 -47 25 -66.5t51 -19.5h111v-184h-115q-37 0 -74 16.5t-55 53.5q-22 -27 -70.5 -48.5t-115.5 -21.5h-117q-47 0 -80 22.5t-49 59.5q-12 -37 -48 -59.5t-77 -22.5h-244q-41 0 -75.5 20.5t-55.5 61.5q-10 -33 -47 -57.5t-72 -24.5h-208z
" />
    <glyph glyph-name="uniFD18" unicode="&#xfeb4;&#xfef2;" horiz-adv-x="3377" arabic-form="final" 
d="M597 -199l103 101l100 -101l-100 -102zM810 -199l101 101l102 -101l-102 -102zM1875 0q-47 0 -81.5 3t-63.5 17.5t-53.5 45t-48.5 84.5l-207 411q-17 29 -37.5 39t-40.5 10q-33 0 -58.5 -20.5t-25.5 -54.5q0 -11 4 -23t14 -33l64 -117q31 -57 42 -97t11 -75
q0 -86 -63.5 -138t-194.5 -52h-682q-90 0 -160.5 31.5t-122 87t-78 128t-26.5 154.5q0 179 108.5 276t313.5 97q24 0 48 -1t48 -3l-88 -145q-10 2 -15 2h-14q-110 0 -175.5 -55.5t-65.5 -159.5q0 -29 10 -68t35.5 -76t69.5 -62.5t110 -25.5h688q43 0 61.5 15.5t18.5 42.5
q0 10 -4 23t-19 42l-67 125q-21 31 -28 61.5t-7 59.5q0 49 22.5 89t57.5 68.5t80 44t90 15.5q72 0 128 -35t91 -100l164 -340q14 -29 25.5 -49.5t25.5 -32.5t33.5 -18.5t48.5 -6.5h192q67 0 67 64v332l166 135v-469q0 -29 16.5 -45.5t47.5 -16.5h202q25 0 41.5 15.5
t16.5 44.5v366l168 131v-493q0 -29 18.5 -46.5t44.5 -17.5h119q29 0 47.5 14.5t18.5 37.5v5q0 3 -5 19l-47 354l154 127l63 -471q7 -47 25 -66.5t51 -19.5h111v-184h-115q-37 0 -74 16.5t-55 53.5q-22 -27 -70.5 -48.5t-115.5 -21.5h-117q-47 0 -80 22.5t-49 59.5
q-12 -37 -48 -59.5t-77 -22.5h-244q-41 0 -75.5 20.5t-55.5 61.5q-10 -33 -47 -57.5t-72 -24.5h-208z" />
    <glyph glyph-name="uniFD19" unicode="&#xfeb8;&#xfef0;" horiz-adv-x="3377" arabic-form="final" 
d="M2714 944l96 98l99 -98l-99 -96zM1875 0q-47 0 -81.5 3t-63.5 17.5t-53.5 45t-48.5 84.5l-207 411q-17 29 -37.5 39t-40.5 10q-33 0 -58.5 -20.5t-25.5 -54.5q0 -11 4 -23t14 -33l64 -117q31 -57 42 -97t11 -75q0 -86 -63.5 -138t-194.5 -52h-682q-90 0 -160.5 31.5
t-122 87t-78 128t-26.5 154.5q0 179 108.5 276t313.5 97q24 0 48 -1t48 -3l-88 -145q-10 2 -15 2h-14q-110 0 -175.5 -55.5t-65.5 -159.5q0 -29 10 -68t35.5 -76t69.5 -62.5t110 -25.5h688q43 0 61.5 15.5t18.5 42.5q0 10 -4 23t-19 42l-67 125q-21 31 -28 61.5t-7 59.5
q0 49 22.5 89t57.5 68.5t80 44t90 15.5q72 0 128 -35t91 -100l164 -340q14 -29 25.5 -49.5t25.5 -32.5t33.5 -18.5t48.5 -6.5h192q67 0 67 64v332l166 135v-469q0 -29 16.5 -45.5t47.5 -16.5h202q25 0 41.5 15.5t16.5 44.5v366l168 131v-493q0 -29 18.5 -46.5t44.5 -17.5
h119q29 0 47.5 14.5t18.5 37.5v5q0 3 -5 19l-47 354l154 127l63 -471q7 -47 25 -66.5t51 -19.5h111v-184h-115q-37 0 -74 16.5t-55 53.5q-22 -27 -70.5 -48.5t-115.5 -21.5h-117q-47 0 -80 22.5t-49 59.5q-12 -37 -48 -59.5t-77 -22.5h-244q-41 0 -75.5 20.5t-55.5 61.5
q-10 -33 -47 -57.5t-72 -24.5h-208zM2489 944l96 98l96 -98l-96 -96zM2600 1108l98 96l100 -96l-100 -98z" />
    <glyph glyph-name="uniFD1A" unicode="&#xfeb8;&#xfef2;" horiz-adv-x="3377" arabic-form="final" 
d="M597 -199l103 101l100 -101l-100 -102zM810 -199l101 101l102 -101l-102 -102zM2714 944l96 98l99 -98l-99 -96zM1875 0q-47 0 -81.5 3t-63.5 17.5t-53.5 45t-48.5 84.5l-207 411q-17 29 -37.5 39t-40.5 10q-33 0 -58.5 -20.5t-25.5 -54.5q0 -11 4 -23t14 -33l64 -117
q31 -57 42 -97t11 -75q0 -86 -63.5 -138t-194.5 -52h-682q-90 0 -160.5 31.5t-122 87t-78 128t-26.5 154.5q0 179 108.5 276t313.5 97q24 0 48 -1t48 -3l-88 -145q-10 2 -15 2h-14q-110 0 -175.5 -55.5t-65.5 -159.5q0 -29 10 -68t35.5 -76t69.5 -62.5t110 -25.5h688
q43 0 61.5 15.5t18.5 42.5q0 10 -4 23t-19 42l-67 125q-21 31 -28 61.5t-7 59.5q0 49 22.5 89t57.5 68.5t80 44t90 15.5q72 0 128 -35t91 -100l164 -340q14 -29 25.5 -49.5t25.5 -32.5t33.5 -18.5t48.5 -6.5h192q67 0 67 64v332l166 135v-469q0 -29 16.5 -45.5t47.5 -16.5
h202q25 0 41.5 15.5t16.5 44.5v366l168 131v-493q0 -29 18.5 -46.5t44.5 -17.5h119q29 0 47.5 14.5t18.5 37.5v5q0 3 -5 19l-47 354l154 127l63 -471q7 -47 25 -66.5t51 -19.5h111v-184h-115q-37 0 -74 16.5t-55 53.5q-22 -27 -70.5 -48.5t-115.5 -21.5h-117q-47 0 -80 22.5
t-49 59.5q-12 -37 -48 -59.5t-77 -22.5h-244q-41 0 -75.5 20.5t-55.5 61.5q-10 -33 -47 -57.5t-72 -24.5h-208zM2489 944l96 98l96 -98l-96 -96zM2600 1108l98 96l100 -96l-100 -98z" />
    <glyph glyph-name="uniFD21" unicode="&#xfebc;&#xfef0;" horiz-adv-x="3510" arabic-form="final" 
d="M2444 184h450q48 0 93 18.5t79.5 50.5t55 75t20.5 94q0 78 -48 121t-122 43q-69 0 -144 -43t-145.5 -105.5t-133 -132t-105.5 -121.5zM1875 0q-47 0 -81.5 3t-63.5 17.5t-53.5 45t-48.5 84.5l-207 411q-17 29 -37.5 39t-40.5 10q-33 0 -58.5 -20.5t-25.5 -54.5
q0 -11 4 -23t14 -33l64 -117q31 -57 42 -97t11 -75q0 -86 -63.5 -138t-194.5 -52h-682q-90 0 -160.5 31.5t-122 87t-78 128t-26.5 154.5q0 179 108.5 276t313.5 97q24 0 48 -1t48 -3l-88 -145q-10 2 -15 2h-14q-110 0 -175.5 -55.5t-65.5 -159.5q0 -29 10 -68t35.5 -76
t69.5 -62.5t110 -25.5h688q43 0 61.5 15.5t18.5 42.5q0 10 -4 23t-19 42l-67 125q-21 31 -28 61.5t-7 59.5q0 49 22.5 89t57.5 68.5t80 44t90 15.5q72 0 128 -35t91 -100l164 -340q14 -29 25.5 -49.5t25.5 -32.5t33.5 -18.5t48.5 -6.5h147q34 0 48.5 19.5t14.5 44.5v274
l160 129v-372q0 -68 51 -76q66 82 142.5 179t164.5 182t186.5 141.5t207.5 56.5q86 0 148 -28.5t102 -77t59.5 -110t19.5 -124.5q0 -100 -47 -195q10 -18 36 -30.5t67 -12.5h143v-184h-137q-78 0 -126 30.5t-75 71.5q-53 -47 -124 -74.5t-163 -27.5h-598q-63 0 -94 24.5
t-47 57.5q-8 -33 -46 -57.5t-71 -24.5h-155z" />
    <glyph glyph-name="uniFD22" unicode="&#xfebc;&#xfef2;" horiz-adv-x="3510" arabic-form="final" 
d="M597 -199l103 101l100 -101l-100 -102zM810 -199l101 101l102 -101l-102 -102zM2444 184h450q48 0 93 18.5t79.5 50.5t55 75t20.5 94q0 78 -48 121t-122 43q-69 0 -144 -43t-145.5 -105.5t-133 -132t-105.5 -121.5zM1875 0q-47 0 -81.5 3t-63.5 17.5t-53.5 45t-48.5 84.5
l-207 411q-17 29 -37.5 39t-40.5 10q-33 0 -58.5 -20.5t-25.5 -54.5q0 -11 4 -23t14 -33l64 -117q31 -57 42 -97t11 -75q0 -86 -63.5 -138t-194.5 -52h-682q-90 0 -160.5 31.5t-122 87t-78 128t-26.5 154.5q0 179 108.5 276t313.5 97q24 0 48 -1t48 -3l-88 -145q-10 2 -15 2
h-14q-110 0 -175.5 -55.5t-65.5 -159.5q0 -29 10 -68t35.5 -76t69.5 -62.5t110 -25.5h688q43 0 61.5 15.5t18.5 42.5q0 10 -4 23t-19 42l-67 125q-21 31 -28 61.5t-7 59.5q0 49 22.5 89t57.5 68.5t80 44t90 15.5q72 0 128 -35t91 -100l164 -340q14 -29 25.5 -49.5
t25.5 -32.5t33.5 -18.5t48.5 -6.5h147q34 0 48.5 19.5t14.5 44.5v274l160 129v-372q0 -68 51 -76q66 82 142.5 179t164.5 182t186.5 141.5t207.5 56.5q86 0 148 -28.5t102 -77t59.5 -110t19.5 -124.5q0 -100 -47 -195q10 -18 36 -30.5t67 -12.5h143v-184h-137
q-78 0 -126 30.5t-75 71.5q-53 -47 -124 -74.5t-163 -27.5h-598q-63 0 -94 24.5t-47 57.5q-8 -33 -46 -57.5t-71 -24.5h-155z" />
    <glyph glyph-name="uniFD23" unicode="&#xfec0;&#xfef0;" horiz-adv-x="3510" arabic-form="final" 
d="M2444 184h450q48 0 93 18.5t79.5 50.5t55 75t20.5 94q0 78 -48 121t-122 43q-69 0 -144 -43t-145.5 -105.5t-133 -132t-105.5 -121.5zM2622 938l102 104l103 -104l-103 -96zM1875 0q-47 0 -81.5 3t-63.5 17.5t-53.5 45t-48.5 84.5l-207 411q-17 29 -37.5 39t-40.5 10
q-33 0 -58.5 -20.5t-25.5 -54.5q0 -11 4 -23t14 -33l64 -117q31 -57 42 -97t11 -75q0 -86 -63.5 -138t-194.5 -52h-682q-90 0 -160.5 31.5t-122 87t-78 128t-26.5 154.5q0 179 108.5 276t313.5 97q24 0 48 -1t48 -3l-88 -145q-10 2 -15 2h-14q-110 0 -175.5 -55.5
t-65.5 -159.5q0 -29 10 -68t35.5 -76t69.5 -62.5t110 -25.5h688q43 0 61.5 15.5t18.5 42.5q0 10 -4 23t-19 42l-67 125q-21 31 -28 61.5t-7 59.5q0 49 22.5 89t57.5 68.5t80 44t90 15.5q72 0 128 -35t91 -100l164 -340q14 -29 25.5 -49.5t25.5 -32.5t33.5 -18.5t48.5 -6.5
h147q34 0 48.5 19.5t14.5 44.5v274l160 129v-372q0 -68 51 -76q66 82 142.5 179t164.5 182t186.5 141.5t207.5 56.5q86 0 148 -28.5t102 -77t59.5 -110t19.5 -124.5q0 -100 -47 -195q10 -18 36 -30.5t67 -12.5h143v-184h-137q-78 0 -126 30.5t-75 71.5q-53 -47 -124 -74.5
t-163 -27.5h-598q-63 0 -94 24.5t-47 57.5q-8 -33 -46 -57.5t-71 -24.5h-155z" />
    <glyph glyph-name="uniFD24" unicode="&#xfec0;&#xfef2;" horiz-adv-x="3510" arabic-form="final" 
d="M597 -199l103 101l100 -101l-100 -102zM810 -199l101 101l102 -101l-102 -102zM2444 184h450q48 0 93 18.5t79.5 50.5t55 75t20.5 94q0 78 -48 121t-122 43q-69 0 -144 -43t-145.5 -105.5t-133 -132t-105.5 -121.5zM2622 938l102 104l103 -104l-103 -96zM1875 0
q-47 0 -81.5 3t-63.5 17.5t-53.5 45t-48.5 84.5l-207 411q-17 29 -37.5 39t-40.5 10q-33 0 -58.5 -20.5t-25.5 -54.5q0 -11 4 -23t14 -33l64 -117q31 -57 42 -97t11 -75q0 -86 -63.5 -138t-194.5 -52h-682q-90 0 -160.5 31.5t-122 87t-78 128t-26.5 154.5q0 179 108.5 276
t313.5 97q24 0 48 -1t48 -3l-88 -145q-10 2 -15 2h-14q-110 0 -175.5 -55.5t-65.5 -159.5q0 -29 10 -68t35.5 -76t69.5 -62.5t110 -25.5h688q43 0 61.5 15.5t18.5 42.5q0 10 -4 23t-19 42l-67 125q-21 31 -28 61.5t-7 59.5q0 49 22.5 89t57.5 68.5t80 44t90 15.5
q72 0 128 -35t91 -100l164 -340q14 -29 25.5 -49.5t25.5 -32.5t33.5 -18.5t48.5 -6.5h147q34 0 48.5 19.5t14.5 44.5v274l160 129v-372q0 -68 51 -76q66 82 142.5 179t164.5 182t186.5 141.5t207.5 56.5q86 0 148 -28.5t102 -77t59.5 -110t19.5 -124.5q0 -100 -47 -195
q10 -18 36 -30.5t67 -12.5h143v-184h-137q-78 0 -126 30.5t-75 71.5q-53 -47 -124 -74.5t-163 -27.5h-598q-63 0 -94 24.5t-47 57.5q-8 -33 -46 -57.5t-71 -24.5h-155z" />
    <glyph glyph-name="uniFD29" unicode="&#xfeb8;&#xfeae;" horiz-adv-x="2337" arabic-form="final" 
d="M1674 944l96 98l99 -98l-99 -96zM655 0q-48 -135 -197.5 -218t-400.5 -83h-25l86 158q61 2 130 20.5t128 49t98 75.5t39 104q0 33 -1 55.5t-5 57.5l-47 410l152 123l59 -529q0 -12 1 -22.5t1 -16.5h340q67 0 67 64v332l166 135v-469q0 -29 16.5 -45.5t47.5 -16.5h202
q25 0 41.5 15.5t16.5 44.5v366l168 131v-493q0 -29 18.5 -46.5t44.5 -17.5h119q29 0 47.5 14.5t18.5 37.5v5q0 3 -5 19l-47 354l154 127l63 -471q7 -47 25 -66.5t51 -19.5h111v-184h-115q-37 0 -74 16.5t-55 53.5q-22 -27 -70.5 -48.5t-115.5 -21.5h-117q-47 0 -80 22.5
t-49 59.5q-12 -37 -48 -59.5t-77 -22.5h-244q-41 0 -75.5 20.5t-55.5 61.5q-10 -33 -47 -57.5t-72 -24.5h-388zM1449 944l96 98l96 -98l-96 -96zM1560 1108l98 96l100 -96l-100 -98z" />
    <glyph glyph-name="uniFD2A" unicode="&#xfeb4;&#xfeae;" horiz-adv-x="2337" arabic-form="final" 
d="M655 0q-48 -135 -197.5 -218t-400.5 -83h-25l86 158q61 2 130 20.5t128 49t98 75.5t39 104q0 33 -1 55.5t-5 57.5l-47 410l152 123l59 -529q0 -12 1 -22.5t1 -16.5h340q67 0 67 64v332l166 135v-469q0 -29 16.5 -45.5t47.5 -16.5h202q25 0 41.5 15.5t16.5 44.5v366
l168 131v-493q0 -29 18.5 -46.5t44.5 -17.5h119q29 0 47.5 14.5t18.5 37.5v5q0 3 -5 19l-47 354l154 127l63 -471q7 -47 25 -66.5t51 -19.5h111v-184h-115q-37 0 -74 16.5t-55 53.5q-22 -27 -70.5 -48.5t-115.5 -21.5h-117q-47 0 -80 22.5t-49 59.5q-12 -37 -48 -59.5
t-77 -22.5h-244q-41 0 -75.5 20.5t-55.5 61.5q-10 -33 -47 -57.5t-72 -24.5h-388z" />
    <glyph glyph-name="uniFD2B" unicode="&#xfebc;&#xfeae;" horiz-adv-x="2470" arabic-form="final" 
d="M1404 184h450q48 0 93 18.5t79.5 50.5t55 75t20.5 94q0 78 -48 121t-122 43q-69 0 -144 -43t-145.5 -105.5t-133 -132t-105.5 -121.5zM655 0q-48 -135 -197.5 -218t-400.5 -83h-25l86 158q61 2 130 20.5t128 49t98 75.5t39 104q0 33 -1 55.5t-5 57.5l-47 410l152 123
l59 -529q0 -12 1 -22.5t1 -16.5h295q34 0 48.5 19.5t14.5 44.5v274l160 129v-372q0 -68 51 -76q66 82 142.5 179t164.5 182t186.5 141.5t207.5 56.5q86 0 148 -28.5t102 -77t59.5 -110t19.5 -124.5q0 -100 -47 -195q10 -18 36 -30.5t67 -12.5h143v-184h-137q-78 0 -126 30.5
t-75 71.5q-53 -47 -124 -74.5t-163 -27.5h-598q-63 0 -94 24.5t-47 57.5q-8 -33 -46 -57.5t-71 -24.5h-335z" />
    <glyph glyph-name="uniFD2C" unicode="&#xfec0;&#xfeae;" horiz-adv-x="2470" arabic-form="final" 
d="M1404 184h450q48 0 93 18.5t79.5 50.5t55 75t20.5 94q0 78 -48 121t-122 43q-69 0 -144 -43t-145.5 -105.5t-133 -132t-105.5 -121.5zM1582 938l102 104l103 -104l-103 -96zM655 0q-48 -135 -197.5 -218t-400.5 -83h-25l86 158q61 2 130 20.5t128 49t98 75.5t39 104
q0 33 -1 55.5t-5 57.5l-47 410l152 123l59 -529q0 -12 1 -22.5t1 -16.5h295q34 0 48.5 19.5t14.5 44.5v274l160 129v-372q0 -68 51 -76q66 82 142.5 179t164.5 182t186.5 141.5t207.5 56.5q86 0 148 -28.5t102 -77t59.5 -110t19.5 -124.5q0 -100 -47 -195q10 -18 36 -30.5
t67 -12.5h143v-184h-137q-78 0 -126 30.5t-75 71.5q-53 -47 -124 -74.5t-163 -27.5h-598q-63 0 -94 24.5t-47 57.5q-8 -33 -46 -57.5t-71 -24.5h-335z" />
    <glyph glyph-name="uniFEF5" unicode="&#xfedf;&#xfe82;" horiz-adv-x="897" arabic-form="isolated" 
d="M368 829q49 -55 94.5 -109t90.5 -112q34 105 44.5 212.5t14.5 203.5h156q-2 -61 -6.5 -129t-15.5 -138.5t-30.5 -140t-54.5 -135.5q29 -35 59.5 -75.5t56.5 -81.5t42 -81t16 -75q0 -78 -50 -123t-132 -45h-573v184q51 0 106 19.5t104.5 51.5t91.5 73t68 84l90 -109
q-20 -29 -68 -62.5t-95 -56.5h208q29 0 43.5 6.5t14.5 24.5q0 16 -13.5 38.5t-42.5 57.5q-110 146 -213.5 273t-209.5 245h204zM55 934v82q25 14 53.5 23.5t55.5 9.5q30 0 54.5 -10.5t46 -22.5t46.5 -22.5t55 -10.5q23 0 43.5 7t40.5 26v-82q-26 -14 -53 -22.5t-55 -8.5
q-35 0 -58.5 10.5t-44 22.5t-42 22.5t-48.5 10.5q-24 0 -50 -9.5t-44 -25.5z" />
    <glyph glyph-name="uniFEF6" unicode="&#xfee0;&#xfe82;" horiz-adv-x="1040" arabic-form="final" 
d="M690 946l164 107v-629q0 -43 2 -85t17 -77t49 -56.5t97 -21.5h21v-184h-16q-101 0 -172.5 34t-106.5 126q-39 -41 -92 -72t-115.5 -51.5t-131.5 -30.5t-138 -10q-39 0 -79 3t-75 11l103 146q16 -2 31.5 -4t33.5 -2q60 0 130.5 13t132 41.5t103.5 75t42 111.5v555z
M278 827l336 -516q-10 -18 -27.5 -32.5t-37 -24.5t-37 -16.5t-29.5 -8.5l-385 598h180zM20 934v82q27 14 54.5 23.5t56.5 9.5q32 0 55.5 -10.5t45 -22.5t45.5 -22.5t56 -10.5q23 0 43.5 7t38.5 26v-82q-24 -14 -51 -22.5t-55 -8.5q-33 0 -56.5 10.5t-45 22.5t-42 22.5
t-47.5 10.5q-57 0 -98 -35z" />
    <glyph glyph-name="uniFEF7" unicode="&#xfedf;&#xfe84;" horiz-adv-x="897" arabic-form="isolated" 
d="M334 1118v-69q-10 4 -24.5 7t-24.5 3q-52 0 -52 -49q0 -45 56 -45h110v-74h-288l-66 74h129q-14 32 -14 53q0 47 36.5 77.5t84.5 30.5q22 0 53 -8zM369 829q49 -55 94 -109t90 -112q35 105 45 212.5t14 203.5h156q-2 -61 -6 -129t-15.5 -138.5t-31 -140t-54.5 -135.5
q29 -35 60 -75.5t56.5 -81.5t42 -81t16.5 -75q0 -78 -50.5 -123t-132.5 -45h-573v184q51 0 106.5 19.5t104.5 51.5t91 73t69 84l90 -109q-21 -29 -69 -62.5t-95 -56.5h209q28 0 42.5 6.5t14.5 24.5q0 16 -13.5 38.5t-41.5 57.5q-111 146 -214.5 273t-209.5 245h205z" />
    <glyph glyph-name="uniFEF8" unicode="&#xfee0;&#xfe84;" horiz-adv-x="1048" arabic-form="final" 
d="M700 946l160 107v-629q0 -43 3 -85t18.5 -77t50.5 -56.5t98 -21.5h19v-184h-19q-98 0 -170 34t-106 126q-39 -41 -92.5 -72t-116 -51.5t-131 -30.5t-136.5 -10q-38 0 -78 3t-81 11l106 146q17 -2 33 -4t33 -2q59 0 129.5 13t132 41.5t103.5 75t42 111.5zM287 827
l338 -516q-23 -37 -67 -57.5t-67 -24.5l-383 598h179zM289 1118v-69q-11 4 -23 7t-24 3q-23 0 -38.5 -12.5t-15.5 -36.5q0 -21 16.5 -33t39.5 -12h114v-74h-290l-66 74h129q-4 14 -8 27.5t-4 25.5q0 47 35.5 77.5t85.5 30.5q24 0 49 -8z" />
    <glyph glyph-name="uniFEF9" unicode="&#xfedf;&#xfe88;" horiz-adv-x="919" arabic-form="isolated" 
d="M350 -74v-71q-23 12 -45 12q-23 0 -39 -12.5t-16 -34.5q0 -25 16 -36t39 -11h117v-76h-293l-66 76h127q-10 30 -10 53q0 45 37 79t84 34q12 0 24.5 -4.5t24.5 -8.5zM223 1016q84 -86 173 -190.5t179 -217.5q35 105 45 212.5t13 203.5h155q-2 -61 -6 -130t-14.5 -138.5
t-29.5 -139t-54 -135.5q28 -35 59 -75.5t56.5 -81.5t42 -81t16.5 -75q0 -78 -50.5 -123t-131.5 -45h-574v184q51 0 106.5 19.5t104.5 51.5t91 73t69 84l90 -109q-21 -29 -69 -62.5t-95 -56.5h209q29 0 43 6.5t14 24.5q0 29 -57 94q-162 209 -305.5 384t-290.5 323h211z" />
    <glyph glyph-name="uniFEFA" unicode="&#xfee0;&#xfe88;" horiz-adv-x="1009" arabic-form="final" 
d="M659 946l161 107v-629q0 -43 3.5 -85t18.5 -77t49 -56.5t97 -21.5h21v-184h-19q-100 0 -170.5 34t-105.5 126q-39 -41 -92.5 -72t-116.5 -51.5t-132 -30.5t-136 -10q-82 0 -160 14l106 146q17 -2 33.5 -4t32.5 -2q59 0 131 13t133.5 41.5t102.5 75t41 111.5zM245 827
l338 -516q-23 -37 -67 -57.5t-66 -24.5l-383 598h178zM323 -74v-71q-23 12 -45 12q-23 0 -38.5 -12.5t-15.5 -34.5q0 -25 16.5 -36t39.5 -11h114v-76h-290l-68 76h129q-10 22 -10 53q0 45 35.5 79t83.5 34q12 0 24 -4.5t25 -8.5z" />
    <glyph glyph-name="uniFEFB" unicode="&#xfedf;&#xfe8e;" horiz-adv-x="919" arabic-form="isolated" 
d="M223 1016q84 -86 173 -190.5t179 -217.5q35 105 45 212.5t13 203.5h155q-2 -61 -6 -130t-14.5 -138.5t-29.5 -139t-54 -135.5q28 -35 59 -75.5t56.5 -81.5t42 -81t16.5 -75q0 -78 -50.5 -123t-131.5 -45h-574v184q51 0 106.5 19.5t104.5 51.5t91 73t69 84l90 -109
q-21 -29 -69 -62.5t-95 -56.5h209q29 0 43 6.5t14 24.5q0 29 -57 94q-162 209 -305.5 384t-290.5 323h211z" />
    <glyph glyph-name="uniFEFC" unicode="&#xfee0;&#xfe8e;" horiz-adv-x="1009" arabic-form="final" 
d="M659 946l164 107v-629q0 -43 2 -85t17.5 -77t49 -56.5t97.5 -21.5h20v-184h-16q-101 0 -172.5 34t-106.5 126q-39 -41 -92 -72t-115.5 -51.5t-131 -30.5t-138.5 -10q-39 0 -79 3t-75 11l103 146q16 -2 31.5 -4t33.5 -2q60 0 130.5 13t132 41.5t103.5 75t42 111.5v555z
M247 827l336 -516q-10 -18 -27.5 -32.5t-37 -24.5t-37 -16.5t-29.5 -8.5l-385 598h180z" />
    <glyph glyph-name="uniFE8B_uniFEE4.liga" unicode="&#xfe8b;&#xfee4;" horiz-adv-x="1714" 
d="M1496 1067v-72q-8 6 -21.5 9.5t-23.5 3.5q-23 0 -38 -13.5t-15 -36.5q0 -22 15 -31t40 -9h113v-76h-289l-66 76h129q-12 24 -12 47q0 49 36 80.5t83 31.5q22 0 49 -10zM1064 0q-68 0 -117 38t-63 77q-33 -52 -77 -86.5t-110 -48.5l-256 174l58 133l213 -123
q47 29 70.5 82t23.5 112q0 82 -46 134.5t-112 52.5q-39 0 -70.5 -20.5t-52.5 -63.5l-135 -299q-41 -92 -99.5 -127t-162.5 -35h-127q-33 0 -52.5 28.5t-19.5 63.5t19.5 63.5t52.5 28.5h145q33 0 53.5 8.5t36 23.5t25.5 35.5t21 45.5l96 221q37 88 107.5 137.5t160.5 49.5
q72 0 128 -26t96 -72t62.5 -108.5t26.5 -136.5q3 -32 7 -64t20 -57.5t49 -41t90 -15.5h244q70 0 70 56v10q0 4 -2 16l-48 361l154 125l59 -467q5 -27 7 -52.5t2 -52.5q0 -92 -43 -136t-150 -44h-354z" />
    <glyph glyph-name="uniFE8B_uniFEF0.liga" unicode="&#xfe8b;&#xfef0;" horiz-adv-x="2452" 
d="M2234 1067v-72q-8 6 -21.5 9.5t-23.5 3.5q-23 0 -38 -13.5t-15 -36.5q0 -22 15 -31t40 -9h113v-76h-289l-66 76h129q-12 24 -12 47q0 49 36 80.5t83 31.5q22 0 49 -10zM1875 0q-47 0 -82 3t-63.5 17.5t-53 45t-49.5 84.5l-207 411q-16 29 -36.5 39t-41.5 10
q-32 0 -57.5 -20.5t-25.5 -54.5q0 -11 4 -23t14 -33l63 -117q31 -57 42.5 -97t11.5 -75q0 -86 -63.5 -138t-194.5 -52h-682q-90 0 -161 31.5t-122 87t-77.5 128t-26.5 154.5q0 179 108.5 276t312.5 97q25 0 48.5 -1t48.5 -3l-88 -145q-11 2 -16 2h-13q-111 0 -176.5 -55.5
t-65.5 -159.5q0 -29 10.5 -68t36 -76t69.5 -62.5t110 -25.5h688q43 0 61.5 15.5t18.5 42.5q0 10 -4.5 23t-18.5 42l-68 125q-20 31 -27 61.5t-7 59.5q0 49 22.5 89t57 68.5t79.5 44t91 15.5q71 0 127.5 -35t91.5 -100l164 -340q14 -29 25 -49.5t25.5 -32.5t34 -18.5
t48.5 -6.5h246q70 0 70 56v10q0 4 -2 16l-48 361l154 125l59 -467q5 -27 7 -52.5t2 -52.5q0 -92 -43 -136t-150 -44h-281z" />
    <glyph glyph-name="uniFE8B_uniFEF2.liga" unicode="&#xfe8b;&#xfef2;" horiz-adv-x="2452" 
d="M597 -199l102 101l101 -101l-101 -102zM810 -199l100 101l103 -101l-103 -102zM2234 1067v-72q-8 6 -21.5 9.5t-23.5 3.5q-23 0 -38 -13.5t-15 -36.5q0 -22 15 -31t40 -9h113v-76h-289l-66 76h129q-12 24 -12 47q0 49 36 80.5t83 31.5q22 0 49 -10zM1875 0q-47 0 -82 3
t-63.5 17.5t-53 45t-49.5 84.5l-207 411q-16 29 -36.5 39t-41.5 10q-32 0 -57.5 -20.5t-25.5 -54.5q0 -11 4 -23t14 -33l63 -117q31 -57 42.5 -97t11.5 -75q0 -86 -63.5 -138t-194.5 -52h-682q-90 0 -161 31.5t-122 87t-77.5 128t-26.5 154.5q0 179 108.5 276t312.5 97
q25 0 48.5 -1t48.5 -3l-88 -145q-11 2 -16 2h-13q-111 0 -176.5 -55.5t-65.5 -159.5q0 -29 10.5 -68t36 -76t69.5 -62.5t110 -25.5h688q43 0 61.5 15.5t18.5 42.5q0 10 -4.5 23t-18.5 42l-68 125q-20 31 -27 61.5t-7 59.5q0 49 22.5 89t57 68.5t79.5 44t91 15.5
q71 0 127.5 -35t91.5 -100l164 -340q14 -29 25 -49.5t25.5 -32.5t34 -18.5t48.5 -6.5h246q70 0 70 56v10q0 4 -2 16l-48 361l154 125l59 -467q5 -27 7 -52.5t2 -52.5q0 -92 -43 -136t-150 -44h-281z" />
    <glyph glyph-name="uniFE91_uniFEE4.liga" unicode="&#xfe91;&#xfee4;" horiz-adv-x="1713" 
d="M1219 -201l102 103l100 -103q-24 -26 -47.5 -49.5l-52.5 -52.5zM1064 0q-68 0 -117 38t-64 77q-32 -52 -76 -86.5t-110 -48.5l-256 174l57 133l213 -123q47 29 71 82t24 112q0 82 -46.5 134.5t-111.5 52.5q-39 0 -71 -20.5t-52 -63.5l-135 -299q-41 -92 -99.5 -127
t-162.5 -35h-127q-33 0 -52.5 28.5t-19.5 63.5t19.5 63.5t52.5 28.5h145q33 0 53.5 8.5t36 23.5t25.5 35.5t20 45.5l97 221q36 88 107 137.5t161 49.5q71 0 127.5 -26t96.5 -72t62.5 -108.5t26.5 -136.5q2 -32 6 -64t20.5 -57.5t49.5 -41t90 -15.5h243q70 0 70 56v10
q0 4 -2 16l-48 361l154 125l59 -467q5 -27 7 -52.5t2 -52.5q0 -92 -43 -136t-150 -44h-353z" />
    <glyph glyph-name="uniFE92_uniFEE6.liga" unicode="&#xfe92;&#xfee6;" horiz-adv-x="1722" 
d="M598 938l102 104l101 -104l-101 -96zM1371 -201l100 103l104 -103l-104 -102zM1135 0q-93 0 -119 55q-17 -78 -60 -144.5t-103 -113.5t-133 -73.5t-149 -26.5q-102 0 -191 42t-153.5 110.5t-101.5 157.5t-37 186q0 90 28.5 171.5t83 143t130 98.5t168.5 37h20q10 0 21 -2
l-93 -152q-51 -8 -89 -34.5t-63.5 -65.5t-37.5 -86t-12 -96q0 -72 24.5 -134.5t67.5 -108.5t103.5 -73.5t131.5 -27.5q60 0 113 21.5t92 60.5t61.5 89t22.5 109v379l162 125v-352q0 -49 21.5 -80t76.5 -31h202q28 0 46.5 14.5t18.5 45.5v370l164 138v-504q0 -29 17.5 -46.5
t43.5 -17.5h111v-184h-129q-43 0 -77 25.5t-50 56.5q-8 -33 -44 -57.5t-79 -24.5h-209z" />
    <glyph glyph-name="uniFE91_uniFEF0.liga" unicode="&#xfe91;&#xfef0;" horiz-adv-x="2453" 
d="M1959 -201l102 103l100 -103q-24 -26 -47.5 -49.5l-52.5 -52.5zM1875 0q-47 0 -81.5 3t-63.5 17.5t-53.5 45t-48.5 84.5l-207 411q-17 29 -37.5 39t-40.5 10q-33 0 -58.5 -20.5t-25.5 -54.5q0 -11 4 -23t14 -33l64 -117q31 -57 42 -97t11 -75q0 -86 -63.5 -138
t-194.5 -52h-682q-90 0 -160.5 31.5t-122 87t-78 128t-26.5 154.5q0 179 108.5 276t313.5 97q24 0 48 -1t48 -3l-88 -145q-10 2 -15 2h-14q-110 0 -175.5 -55.5t-65.5 -159.5q0 -29 10 -68t35.5 -76t69.5 -62.5t110 -25.5h688q43 0 61.5 15.5t18.5 42.5q0 10 -4 23t-19 42
l-67 125q-21 31 -28 61.5t-7 59.5q0 49 22.5 89t57.5 68.5t80 44t90 15.5q72 0 128 -35t91 -100l164 -340q14 -29 25.5 -49.5t25.5 -32.5t33.5 -18.5t48.5 -6.5h247q70 0 70 56v10q0 4 -2 16l-48 361l154 125l59 -467q5 -27 7 -52.5t2 -52.5q0 -92 -43 -136t-150 -44h-282z
" />
    <glyph glyph-name="uniFE91_uniFEF2.liga" unicode="&#xfe91;&#xfef2;" horiz-adv-x="2453" 
d="M597 -199l103 101l100 -101l-100 -102zM810 -199l101 101l102 -101l-102 -102zM1959 -201l102 103l100 -103q-24 -26 -47.5 -49.5l-52.5 -52.5zM1875 0q-47 0 -81.5 3t-63.5 17.5t-53.5 45t-48.5 84.5l-207 411q-17 29 -37.5 39t-40.5 10q-33 0 -58.5 -20.5t-25.5 -54.5
q0 -11 4 -23t14 -33l64 -117q31 -57 42 -97t11 -75q0 -86 -63.5 -138t-194.5 -52h-682q-90 0 -160.5 31.5t-122 87t-78 128t-26.5 154.5q0 179 108.5 276t313.5 97q24 0 48 -1t48 -3l-88 -145q-10 2 -15 2h-14q-110 0 -175.5 -55.5t-65.5 -159.5q0 -29 10 -68t35.5 -76
t69.5 -62.5t110 -25.5h688q43 0 61.5 15.5t18.5 42.5q0 10 -4 23t-19 42l-67 125q-21 31 -28 61.5t-7 59.5q0 49 22.5 89t57.5 68.5t80 44t90 15.5q72 0 128 -35t91 -100l164 -340q14 -29 25.5 -49.5t25.5 -32.5t33.5 -18.5t48.5 -6.5h247q70 0 70 56v10q0 4 -2 16l-48 361
l154 125l59 -467q5 -27 7 -52.5t2 -52.5q0 -92 -43 -136t-150 -44h-282z" />
    <glyph glyph-name="uniFE97_uniFEE4.liga" unicode="&#xfe97;&#xfee4;" horiz-adv-x="1713" 
d="M1159 944l98 98l99 -98l-99 -96zM1064 0q-68 0 -117 38t-64 77q-32 -52 -76 -86.5t-110 -48.5l-256 174l57 133l213 -123q47 29 71 82t24 112q0 82 -46.5 134.5t-111.5 52.5q-39 0 -71 -20.5t-52 -63.5l-135 -299q-41 -92 -99.5 -127t-162.5 -35h-127q-33 0 -52.5 28.5
t-19.5 63.5t19.5 63.5t52.5 28.5h145q33 0 53.5 8.5t36 23.5t25.5 35.5t20 45.5l97 221q36 88 107 137.5t161 49.5q71 0 127.5 -26t96.5 -72t62.5 -108.5t26.5 -136.5q2 -32 6 -64t20.5 -57.5t49.5 -41t90 -15.5h243q70 0 70 56v10q0 4 -2 16l-48 361l154 125l59 -467
q5 -27 7 -52.5t2 -52.5q0 -92 -43 -136t-150 -44h-353zM1388 944l97 98l96 -98l-96 -96z" />
    <glyph glyph-name="uniFE98_uniFEE6.liga" unicode="&#xfe98;&#xfee6;" horiz-adv-x="1722" 
d="M598 938l102 104l101 -104l-101 -96zM1477 944l96 98l97 -98l-97 -96zM1135 0q-93 0 -119 55q-17 -78 -60 -144.5t-103 -113.5t-133 -73.5t-149 -26.5q-102 0 -191 42t-153.5 110.5t-101.5 157.5t-37 186q0 90 28.5 171.5t83 143t130 98.5t168.5 37h20q10 0 21 -2
l-93 -152q-51 -8 -89 -34.5t-63.5 -65.5t-37.5 -86t-12 -96q0 -72 24.5 -134.5t67.5 -108.5t103.5 -73.5t131.5 -27.5q60 0 113 21.5t92 60.5t61.5 89t22.5 109v379l162 125v-352q0 -49 21.5 -80t76.5 -31h202q28 0 46.5 14.5t18.5 45.5v370l164 138v-504q0 -29 17.5 -46.5
t43.5 -17.5h111v-184h-129q-43 0 -77 25.5t-50 56.5q-8 -33 -44 -57.5t-79 -24.5h-209zM1250 944l100 98l96 -98l-96 -96z" />
    <glyph glyph-name="uniFE97_uniFEF0.liga" unicode="&#xfe97;&#xfef0;" horiz-adv-x="2453" 
d="M1899 944l98 98l99 -98l-99 -96zM1875 0q-47 0 -81.5 3t-63.5 17.5t-53.5 45t-48.5 84.5l-207 411q-17 29 -37.5 39t-40.5 10q-33 0 -58.5 -20.5t-25.5 -54.5q0 -11 4 -23t14 -33l64 -117q31 -57 42 -97t11 -75q0 -86 -63.5 -138t-194.5 -52h-682q-90 0 -160.5 31.5
t-122 87t-78 128t-26.5 154.5q0 179 108.5 276t313.5 97q24 0 48 -1t48 -3l-88 -145q-10 2 -15 2h-14q-110 0 -175.5 -55.5t-65.5 -159.5q0 -29 10 -68t35.5 -76t69.5 -62.5t110 -25.5h688q43 0 61.5 15.5t18.5 42.5q0 10 -4 23t-19 42l-67 125q-21 31 -28 61.5t-7 59.5
q0 49 22.5 89t57.5 68.5t80 44t90 15.5q72 0 128 -35t91 -100l164 -340q14 -29 25.5 -49.5t25.5 -32.5t33.5 -18.5t48.5 -6.5h247q70 0 70 56v10q0 4 -2 16l-48 361l154 125l59 -467q5 -27 7 -52.5t2 -52.5q0 -92 -43 -136t-150 -44h-282zM2128 944l97 98l96 -98l-96 -96z
" />
    <glyph glyph-name="uniFE97_uniFEF2.liga" unicode="&#xfe97;&#xfef2;" horiz-adv-x="2453" 
d="M597 -199l103 101l100 -101l-100 -102zM810 -199l101 101l102 -101l-102 -102zM1899 944l98 98l99 -98l-99 -96zM1875 0q-47 0 -81.5 3t-63.5 17.5t-53.5 45t-48.5 84.5l-207 411q-17 29 -37.5 39t-40.5 10q-33 0 -58.5 -20.5t-25.5 -54.5q0 -11 4 -23t14 -33l64 -117
q31 -57 42 -97t11 -75q0 -86 -63.5 -138t-194.5 -52h-682q-90 0 -160.5 31.5t-122 87t-78 128t-26.5 154.5q0 179 108.5 276t313.5 97q24 0 48 -1t48 -3l-88 -145q-10 2 -15 2h-14q-110 0 -175.5 -55.5t-65.5 -159.5q0 -29 10 -68t35.5 -76t69.5 -62.5t110 -25.5h688
q43 0 61.5 15.5t18.5 42.5q0 10 -4 23t-19 42l-67 125q-21 31 -28 61.5t-7 59.5q0 49 22.5 89t57.5 68.5t80 44t90 15.5q72 0 128 -35t91 -100l164 -340q14 -29 25.5 -49.5t25.5 -32.5t33.5 -18.5t48.5 -6.5h247q70 0 70 56v10q0 4 -2 16l-48 361l154 125l59 -467
q5 -27 7 -52.5t2 -52.5q0 -92 -43 -136t-150 -44h-282zM2128 944l97 98l96 -98l-96 -96z" />
    <glyph glyph-name="uniFE9C_uniFEAE.liga" unicode="&#xfe9c;&#xfeae;" horiz-adv-x="1362" 
d="M1117 944l96 98l97 -98l-97 -96zM655 0q-48 -135 -197.5 -218t-400.5 -83h-25l86 158q61 2 130 20.5t128 49t98 75.5t39 104q0 33 -1 55.5t-5 57.5l-47 410l152 123l59 -529q0 -12 1 -22.5t1 -16.5h289q28 0 46.5 14.5t18.5 45.5v370l164 138v-504q0 -29 17.5 -46.5
t43.5 -17.5h111v-184h-129q-43 0 -77 25.5t-50 56.5q-8 -33 -44 -57.5t-79 -24.5h-329zM890 944l100 98l96 -98l-96 -96zM1002 1108l97 96l96 -96l-96 -98z" />
    <glyph glyph-name="uniFE9B_uniFEE4.liga" unicode="&#xfe9b;&#xfee4;" horiz-adv-x="1713" 
d="M1159 944l98 98l99 -98l-99 -96zM1064 0q-68 0 -117 38t-64 77q-32 -52 -76 -86.5t-110 -48.5l-256 174l57 133l213 -123q47 29 71 82t24 112q0 82 -46.5 134.5t-111.5 52.5q-39 0 -71 -20.5t-52 -63.5l-135 -299q-41 -92 -99.5 -127t-162.5 -35h-127q-33 0 -52.5 28.5
t-19.5 63.5t19.5 63.5t52.5 28.5h145q33 0 53.5 8.5t36 23.5t25.5 35.5t20 45.5l97 221q36 88 107 137.5t161 49.5q71 0 127.5 -26t96.5 -72t62.5 -108.5t26.5 -136.5q2 -32 6 -64t20.5 -57.5t49.5 -41t90 -15.5h243q70 0 70 56v10q0 4 -2 16l-48 361l154 125l59 -467
q5 -27 7 -52.5t2 -52.5q0 -92 -43 -136t-150 -44h-353zM1388 944l97 98l96 -98l-96 -96zM1274 1108l96 96l96 -96l-96 -98z" />
    <glyph glyph-name="uniFE9C_uniFEE6.liga" unicode="&#xfe9c;&#xfee6;" horiz-adv-x="1722" 
d="M598 938l102 104l101 -104l-101 -96zM1477 944l96 98l97 -98l-97 -96zM1135 0q-93 0 -119 55q-17 -78 -60 -144.5t-103 -113.5t-133 -73.5t-149 -26.5q-102 0 -191 42t-153.5 110.5t-101.5 157.5t-37 186q0 90 28.5 171.5t83 143t130 98.5t168.5 37h20q10 0 21 -2
l-93 -152q-51 -8 -89 -34.5t-63.5 -65.5t-37.5 -86t-12 -96q0 -72 24.5 -134.5t67.5 -108.5t103.5 -73.5t131.5 -27.5q60 0 113 21.5t92 60.5t61.5 89t22.5 109v379l162 125v-352q0 -49 21.5 -80t76.5 -31h202q28 0 46.5 14.5t18.5 45.5v370l164 138v-504q0 -29 17.5 -46.5
t43.5 -17.5h111v-184h-129q-43 0 -77 25.5t-50 56.5q-8 -33 -44 -57.5t-79 -24.5h-209zM1250 944l100 98l96 -98l-96 -96zM1362 1108l97 96l96 -96l-96 -98z" />
    <glyph glyph-name="uniFE9B_uniFEF0.liga" unicode="&#xfe9b;&#xfef0;" horiz-adv-x="2453" 
d="M1899 944l98 98l99 -98l-99 -96zM1875 0q-47 0 -81.5 3t-63.5 17.5t-53.5 45t-48.5 84.5l-207 411q-17 29 -37.5 39t-40.5 10q-33 0 -58.5 -20.5t-25.5 -54.5q0 -11 4 -23t14 -33l64 -117q31 -57 42 -97t11 -75q0 -86 -63.5 -138t-194.5 -52h-682q-90 0 -160.5 31.5
t-122 87t-78 128t-26.5 154.5q0 179 108.5 276t313.5 97q24 0 48 -1t48 -3l-88 -145q-10 2 -15 2h-14q-110 0 -175.5 -55.5t-65.5 -159.5q0 -29 10 -68t35.5 -76t69.5 -62.5t110 -25.5h688q43 0 61.5 15.5t18.5 42.5q0 10 -4 23t-19 42l-67 125q-21 31 -28 61.5t-7 59.5
q0 49 22.5 89t57.5 68.5t80 44t90 15.5q72 0 128 -35t91 -100l164 -340q14 -29 25.5 -49.5t25.5 -32.5t33.5 -18.5t48.5 -6.5h247q70 0 70 56v10q0 4 -2 16l-48 361l154 125l59 -467q5 -27 7 -52.5t2 -52.5q0 -92 -43 -136t-150 -44h-282zM2128 944l97 98l96 -98l-96 -96z
M2014 1108l96 96l96 -96l-96 -98z" />
    <glyph glyph-name="uniFE9B_uniFEF2.liga" unicode="&#xfe9b;&#xfef2;" horiz-adv-x="2453" 
d="M597 -199l103 101l100 -101l-100 -102zM810 -199l101 101l102 -101l-102 -102zM1899 944l98 98l99 -98l-99 -96zM1875 0q-47 0 -81.5 3t-63.5 17.5t-53.5 45t-48.5 84.5l-207 411q-17 29 -37.5 39t-40.5 10q-33 0 -58.5 -20.5t-25.5 -54.5q0 -11 4 -23t14 -33l64 -117
q31 -57 42 -97t11 -75q0 -86 -63.5 -138t-194.5 -52h-682q-90 0 -160.5 31.5t-122 87t-78 128t-26.5 154.5q0 179 108.5 276t313.5 97q24 0 48 -1t48 -3l-88 -145q-10 2 -15 2h-14q-110 0 -175.5 -55.5t-65.5 -159.5q0 -29 10 -68t35.5 -76t69.5 -62.5t110 -25.5h688
q43 0 61.5 15.5t18.5 42.5q0 10 -4 23t-19 42l-67 125q-21 31 -28 61.5t-7 59.5q0 49 22.5 89t57.5 68.5t80 44t90 15.5q72 0 128 -35t91 -100l164 -340q14 -29 25.5 -49.5t25.5 -32.5t33.5 -18.5t48.5 -6.5h247q70 0 70 56v10q0 4 -2 16l-48 361l154 125l59 -467
q5 -27 7 -52.5t2 -52.5q0 -92 -43 -136t-150 -44h-282zM2128 944l97 98l96 -98l-96 -96zM2014 1108l96 96l96 -96l-96 -98z" />
    <glyph glyph-name="uniFEDB_uniFEF0.liga" unicode="&#xfedb;&#xfef0;" horiz-adv-x="2854" 
d="M1875 0q-47 0 -81.5 3t-63.5 17.5t-53.5 45t-48.5 84.5l-207 411q-17 29 -37.5 39t-40.5 10q-33 0 -58.5 -20.5t-25.5 -54.5q0 -11 4 -23t14 -33l64 -117q31 -57 42 -97t11 -75q0 -86 -63.5 -138t-194.5 -52h-682q-90 0 -160.5 31.5t-122 87t-78 128t-26.5 154.5
q0 179 108.5 276t313.5 97q24 0 48 -1t48 -3l-88 -145q-10 2 -15 2h-14q-110 0 -175.5 -55.5t-65.5 -159.5q0 -29 10 -68t35.5 -76t69.5 -62.5t110 -25.5h688q43 0 61.5 15.5t18.5 42.5q0 10 -4 23t-19 42l-67 125q-21 31 -28 61.5t-7 59.5q0 49 22.5 89t57.5 68.5t80 44
t90 15.5q72 0 128 -35t91 -100l164 -340q14 -29 25.5 -49.5t25.5 -32.5t33.5 -18.5t48.5 -6.5h554l-364 379q-25 27 -29 42.5t-4 45.5v68q0 41 25.5 59.5t68.5 34.5l682 246l-65 -209l-525 -193l328 -340q35 -34 40 -64t5 -81v-100q0 -25 -17.5 -48.5t-54.5 -23.5h-630z" />
    <glyph glyph-name="uniFEDC_uniFEF0.liga" unicode="&#xfedc;&#xfef0;" horiz-adv-x="2830" 
d="M1875 0q-47 0 -81.5 3t-63.5 17.5t-53.5 45t-48.5 84.5l-207 411q-17 29 -37.5 39t-40.5 10q-33 0 -58.5 -20.5t-25.5 -54.5q0 -11 4 -23t14 -33l64 -117q31 -57 42 -97t11 -75q0 -86 -63.5 -138t-194.5 -52h-682q-90 0 -160.5 31.5t-122 87t-78 128t-26.5 154.5
q0 179 108.5 276t313.5 97q24 0 48 -1t48 -3l-88 -145q-10 2 -15 2h-14q-110 0 -175.5 -55.5t-65.5 -159.5q0 -29 10 -68t35.5 -76t69.5 -62.5t110 -25.5h688q43 0 61.5 15.5t18.5 42.5q0 10 -4 23t-19 42l-67 125q-21 31 -28 61.5t-7 59.5q0 49 22.5 89t57.5 68.5t80 44
t90 15.5q72 0 128 -35t91 -100l164 -340q14 -29 25.5 -49.5t25.5 -32.5t33.5 -18.5t48.5 -6.5h554l-364 379q-25 27 -29 42.5t-4 45.5v68q0 41 25.5 59.5t68.5 34.5l682 246l-65 -209l-525 -193l365 -378q41 -37 79 -66t93 -29h90v-184h-137q-54 0 -101 18.5t-102 79.5
q-6 -45 -48 -71.5t-97 -26.5h-471z" />
    <glyph glyph-name="uniFEDB_uniFEF2.liga" unicode="&#xfedb;&#xfef2;" horiz-adv-x="2854" 
d="M597 -199l103 101l100 -101l-100 -102zM810 -199l101 101l102 -101l-102 -102zM1875 0q-47 0 -81.5 3t-63.5 17.5t-53.5 45t-48.5 84.5l-207 411q-17 29 -37.5 39t-40.5 10q-33 0 -58.5 -20.5t-25.5 -54.5q0 -11 4 -23t14 -33l64 -117q31 -57 42 -97t11 -75
q0 -86 -63.5 -138t-194.5 -52h-682q-90 0 -160.5 31.5t-122 87t-78 128t-26.5 154.5q0 179 108.5 276t313.5 97q24 0 48 -1t48 -3l-88 -145q-10 2 -15 2h-14q-110 0 -175.5 -55.5t-65.5 -159.5q0 -29 10 -68t35.5 -76t69.5 -62.5t110 -25.5h688q43 0 61.5 15.5t18.5 42.5
q0 10 -4 23t-19 42l-67 125q-21 31 -28 61.5t-7 59.5q0 49 22.5 89t57.5 68.5t80 44t90 15.5q72 0 128 -35t91 -100l164 -340q14 -29 25.5 -49.5t25.5 -32.5t33.5 -18.5t48.5 -6.5h554l-364 379q-25 27 -29 42.5t-4 45.5v68q0 41 25.5 59.5t68.5 34.5l682 246l-65 -209
l-525 -193l328 -340q35 -34 40 -64t5 -81v-100q0 -25 -17.5 -48.5t-54.5 -23.5h-630z" />
    <glyph glyph-name="uniFEDC_uniFEF2.liga" unicode="&#xfedc;&#xfef2;" horiz-adv-x="2830" 
d="M597 -199l103 101l100 -101l-100 -102zM810 -199l101 101l102 -101l-102 -102zM1875 0q-47 0 -81.5 3t-63.5 17.5t-53.5 45t-48.5 84.5l-207 411q-17 29 -37.5 39t-40.5 10q-33 0 -58.5 -20.5t-25.5 -54.5q0 -11 4 -23t14 -33l64 -117q31 -57 42 -97t11 -75
q0 -86 -63.5 -138t-194.5 -52h-682q-90 0 -160.5 31.5t-122 87t-78 128t-26.5 154.5q0 179 108.5 276t313.5 97q24 0 48 -1t48 -3l-88 -145q-10 2 -15 2h-14q-110 0 -175.5 -55.5t-65.5 -159.5q0 -29 10 -68t35.5 -76t69.5 -62.5t110 -25.5h688q43 0 61.5 15.5t18.5 42.5
q0 10 -4 23t-19 42l-67 125q-21 31 -28 61.5t-7 59.5q0 49 22.5 89t57.5 68.5t80 44t90 15.5q72 0 128 -35t91 -100l164 -340q14 -29 25.5 -49.5t25.5 -32.5t33.5 -18.5t48.5 -6.5h554l-364 379q-25 27 -29 42.5t-4 45.5v68q0 41 25.5 59.5t68.5 34.5l682 246l-65 -209
l-525 -193l365 -378q41 -37 79 -66t93 -29h90v-184h-137q-54 0 -101 18.5t-102 79.5q-6 -45 -48 -71.5t-97 -26.5h-471z" />
    <glyph glyph-name="uniFEDF_uniFB51.rlig" unicode="&#xfedf;&#xfb51;" horiz-adv-x="917" 
d="M168 971q16 24 35.5 53t44 54.5t53.5 42t61 16.5q54 0 81.5 -31t27.5 -74q0 -53 -37 -89t-90 -36h-113q-37 0 -58.5 -7t-32.5 -18.5t-14 -22.5t-3 -17l-74 -29q0 59 27.5 103.5t91.5 54.5zM242 975h102q22 0 40.5 13t18.5 42q0 17 -12 30t-31 13q-35 0 -62.5 -28.5
t-55.5 -69.5zM389 829q49 -55 94 -109t90 -112q35 105 45.5 212.5t14.5 203.5h155q-2 -61 -6 -129t-15 -138.5t-30.5 -140t-54.5 -135.5q29 -35 59.5 -75.5t56 -81.5t42 -81t16.5 -75q0 -78 -50 -123t-132 -45h-574v184q51 0 106.5 19.5t104.5 51.5t91 73t69 84l90 -109
q-20 -29 -68.5 -62.5t-95.5 -56.5h209q29 0 43 6.5t14 24.5q0 16 -13 38.5t-42 57.5q-110 146 -213.5 273t-210.5 245h205z" />
    <glyph glyph-name="uniFEE0_uniFB51.rlig" unicode="&#xfee0;&#xfb51;" horiz-adv-x="1048" 
d="M701 946l159 107v-629q0 -43 3 -85t18.5 -77t50.5 -56.5t98 -21.5h19v-184h-19q-98 0 -169.5 34t-106.5 126q-39 -41 -92.5 -72t-116 -51.5t-131 -30.5t-135.5 -10q-39 0 -79 3t-81 11l106 146q17 -2 33.5 -4t32.5 -2q59 0 130 13t132.5 41.5t103.5 75t42 111.5zM287 827
l338 -516q-23 -37 -67 -57.5t-66 -24.5l-383 598h178zM117 971q14 24 34.5 53t44 54.5t52.5 42t63 16.5q52 0 78.5 -31t26.5 -74q0 -53 -37 -89t-90 -36h-115q-37 0 -57.5 -7t-31.5 -18.5t-14 -22.5t-3 -17l-74 -29q0 59 28.5 103.5t94.5 54.5zM184 975h105q59 0 59 55
q0 17 -11 30t-32 13q-35 0 -62.5 -28.5t-58.5 -69.5z" />
    <glyph glyph-name="uniFEDF_uniFEE2.liga" unicode="&#xfedf;&#xfee2;" horiz-adv-x="1818" 
d="M1242 0q-67 0 -117.5 38t-64.5 77q-35 -52 -78 -86.5t-109 -48.5l-258 174l58 133l215 -123q47 29 70.5 82t23.5 112q0 82 -46 134.5t-112 52.5q-41 0 -72.5 -20.5t-50.5 -63.5l-135 -299q-22 -47 -44.5 -78t-53.5 -49.5t-71 -26.5t-95 -8h-231l131 184h121q65 0 90.5 32
t46.5 81l92 221q41 88 110.5 137.5t161.5 49.5q70 0 126.5 -26t96 -72t62.5 -108.5t27 -136.5q2 -32 6 -64t20.5 -57.5t49 -41t92.5 -15.5h180q36 0 50.5 20.5t14.5 51.5v649l166 139v-845q0 -93 -46 -146t-145 -53h-282z" />
    <glyph glyph-name="uniFEE4_uniFE8E.liga" unicode="&#xfee4;&#xfe8e;" horiz-adv-x="1640" 
d="M289 0q-90 0 -137.5 55.5t-47.5 145.5v710l166 138v-793q0 -31 15.5 -51.5t50.5 -20.5h310q33 0 53.5 8.5t36 23.5t25.5 35.5t20 45.5l97 221q36 88 107 137.5t161 49.5q71 0 127.5 -26t96.5 -72t62.5 -108.5t26.5 -136.5q2 -32 6 -64t20.5 -57.5t49.5 -41t90 -15.5h16
v-184h-77q-68 0 -117 38t-64 77q-32 -52 -76 -86.5t-110 -48.5l-256 174l57 133l213 -123q47 29 71 82t24 112q0 82 -46.5 134.5t-111.5 52.5q-39 0 -71 -20.5t-52 -63.5l-135 -299q-41 -92 -99.5 -127t-162.5 -35h-339z" />
    <glyph glyph-name="uniFEE4_uniFE82.liga" unicode="&#xfee4;&#xfe82;" horiz-adv-x="1639" 
d="M28 1137v80q23 14 51.5 23t57.5 9q30 0 53.5 -10t45 -23.5t45 -23.5t56.5 -10q47 0 84 37v-82q-24 -19 -53 -26t-57 -7q-31 0 -54.5 10t-45 21.5t-42 21.5t-47.5 10q-57 0 -94 -30zM288 0q-90 0 -137.5 55.5t-47.5 145.5v710l166 138v-793q0 -31 15.5 -51.5t50.5 -20.5
h310q33 0 53.5 8.5t36 23.5t25.5 35.5t20 45.5l97 221q36 88 107 137.5t161 49.5q71 0 127.5 -26t96.5 -72t62.5 -108.5t26.5 -136.5q2 -32 6 -64t20.5 -57.5t49.5 -41t90 -15.5h16v-184h-77q-68 0 -117 38t-64 77q-32 -52 -76 -86.5t-110 -48.5l-256 174l57 133l213 -123
q47 29 71 82t24 112q0 82 -46.5 134.5t-111.5 52.5q-39 0 -71 -20.5t-52 -63.5l-135 -299q-41 -92 -99.5 -127t-162.5 -35h-339z" />
    <glyph glyph-name="uniFEE4_uniFE84.liga" unicode="&#xfee4;&#xfe84;" horiz-adv-x="1640" 
d="M281 1329v-74q-11 9 -23 11t-22 2q-23 0 -39.5 -12.5t-16.5 -34.5q0 -23 17.5 -33t40.5 -10h112v-74h-291l-63 74h131q-12 20 -12 49q0 47 35.5 79.5t83.5 32.5q20 0 47 -10zM289 0q-90 0 -137.5 55.5t-47.5 145.5v710l166 138v-793q0 -31 15.5 -51.5t50.5 -20.5h310
q33 0 53.5 8.5t36 23.5t25.5 35.5t20 45.5l97 221q36 88 107 137.5t161 49.5q71 0 127.5 -26t96.5 -72t62.5 -108.5t26.5 -136.5q2 -32 6 -64t20.5 -57.5t49.5 -41t90 -15.5h16v-184h-77q-68 0 -117 38t-64 77q-32 -52 -76 -86.5t-110 -48.5l-256 174l57 133l213 -123
q47 29 71 82t24 112q0 82 -46.5 134.5t-111.5 52.5q-39 0 -71 -20.5t-52 -63.5l-135 -299q-41 -92 -99.5 -127t-162.5 -35h-339z" />
    <glyph glyph-name="uniFEE4_uniFE88.liga" unicode="&#xfee4;&#xfe88;" horiz-adv-x="1640" 
d="M383 -74v-71q-23 12 -45 12q-23 0 -38.5 -12.5t-15.5 -34.5q0 -25 16.5 -36t39.5 -11h112v-76h-291l-63 76h129q-12 26 -12 53q0 45 35.5 79t85.5 34q10 0 22 -4.5t25 -8.5zM289 0q-90 0 -137.5 55.5t-47.5 145.5v710l166 138v-793q0 -31 15.5 -51.5t50.5 -20.5h310
q33 0 53.5 8.5t36 23.5t25.5 35.5t20 45.5l97 221q36 88 107 137.5t161 49.5q71 0 127.5 -26t96.5 -72t62.5 -108.5t26.5 -136.5q2 -32 6 -64t20.5 -57.5t49.5 -41t90 -15.5h16v-184h-77q-68 0 -117 38t-64 77q-32 -52 -76 -86.5t-110 -48.5l-256 174l57 133l213 -123
q47 29 71 82t24 112q0 82 -46.5 134.5t-111.5 52.5q-39 0 -71 -20.5t-52 -63.5l-135 -299q-41 -92 -99.5 -127t-162.5 -35h-339z" />
    <glyph glyph-name="uniFEE8_uniFEAE.liga" unicode="&#xfee8;&#xfeae;" horiz-adv-x="1362" 
d="M1000 938l103 104l100 -104l-100 -96zM655 0q-48 -135 -197.5 -218t-400.5 -83h-25l86 158q61 2 130 20.5t128 49t98 75.5t39 104q0 33 -1 55.5t-5 57.5l-47 410l152 123l59 -529q0 -12 1 -22.5t1 -16.5h289q28 0 46.5 14.5t18.5 45.5v370l164 138v-504q0 -29 17.5 -46.5
t43.5 -17.5h111v-184h-129q-43 0 -77 25.5t-50 56.5q-8 -33 -44 -57.5t-79 -24.5h-329z" />
    <glyph glyph-name="uniFEE7_uniFEE4.liga" unicode="&#xfee7;&#xfee4;" horiz-adv-x="1713" 
d="M1305 938l102 104l100 -104l-100 -96zM1064 0q-68 0 -117 38t-64 77q-32 -52 -76 -86.5t-110 -48.5l-256 174l57 133l213 -123q47 29 71 82t24 112q0 82 -46.5 134.5t-111.5 52.5q-39 0 -71 -20.5t-52 -63.5l-135 -299q-41 -92 -99.5 -127t-162.5 -35h-127
q-33 0 -52.5 28.5t-19.5 63.5t19.5 63.5t52.5 28.5h145q33 0 53.5 8.5t36 23.5t25.5 35.5t20 45.5l97 221q36 88 107 137.5t161 49.5q71 0 127.5 -26t96.5 -72t62.5 -108.5t26.5 -136.5q2 -32 6 -64t20.5 -57.5t49.5 -41t90 -15.5h243q70 0 70 56v10q0 4 -2 16l-48 361
l154 125l59 -467q5 -27 7 -52.5t2 -52.5q0 -92 -43 -136t-150 -44h-353z" />
    <glyph glyph-name="uniFEE7_uniFEF0.liga" unicode="&#xfee7;&#xfef0;" horiz-adv-x="2453" 
d="M2045 938l102 104l100 -104l-100 -96zM1875 0q-47 0 -81.5 3t-63.5 17.5t-53.5 45t-48.5 84.5l-207 411q-17 29 -37.5 39t-40.5 10q-33 0 -58.5 -20.5t-25.5 -54.5q0 -11 4 -23t14 -33l64 -117q31 -57 42 -97t11 -75q0 -86 -63.5 -138t-194.5 -52h-682q-90 0 -160.5 31.5
t-122 87t-78 128t-26.5 154.5q0 179 108.5 276t313.5 97q24 0 48 -1t48 -3l-88 -145q-10 2 -15 2h-14q-110 0 -175.5 -55.5t-65.5 -159.5q0 -29 10 -68t35.5 -76t69.5 -62.5t110 -25.5h688q43 0 61.5 15.5t18.5 42.5q0 10 -4 23t-19 42l-67 125q-21 31 -28 61.5t-7 59.5
q0 49 22.5 89t57.5 68.5t80 44t90 15.5q72 0 128 -35t91 -100l164 -340q14 -29 25.5 -49.5t25.5 -32.5t33.5 -18.5t48.5 -6.5h247q70 0 70 56v10q0 4 -2 16l-48 361l154 125l59 -467q5 -27 7 -52.5t2 -52.5q0 -92 -43 -136t-150 -44h-282z" />
    <glyph glyph-name="uniFEE7_uniFEF2.liga" unicode="&#xfee7;&#xfef2;" horiz-adv-x="2453" 
d="M597 -199l103 101l100 -101l-100 -102zM810 -199l101 101l102 -101l-102 -102zM2045 938l102 104l100 -104l-100 -96zM1875 0q-47 0 -81.5 3t-63.5 17.5t-53.5 45t-48.5 84.5l-207 411q-17 29 -37.5 39t-40.5 10q-33 0 -58.5 -20.5t-25.5 -54.5q0 -11 4 -23t14 -33
l64 -117q31 -57 42 -97t11 -75q0 -86 -63.5 -138t-194.5 -52h-682q-90 0 -160.5 31.5t-122 87t-78 128t-26.5 154.5q0 179 108.5 276t313.5 97q24 0 48 -1t48 -3l-88 -145q-10 2 -15 2h-14q-110 0 -175.5 -55.5t-65.5 -159.5q0 -29 10 -68t35.5 -76t69.5 -62.5t110 -25.5
h688q43 0 61.5 15.5t18.5 42.5q0 10 -4 23t-19 42l-67 125q-21 31 -28 61.5t-7 59.5q0 49 22.5 89t57.5 68.5t80 44t90 15.5q72 0 128 -35t91 -100l164 -340q14 -29 25.5 -49.5t25.5 -32.5t33.5 -18.5t48.5 -6.5h247q70 0 70 56v10q0 4 -2 16l-48 361l154 125l59 -467
q5 -27 7 -52.5t2 -52.5q0 -92 -43 -136t-150 -44h-282z" />
    <glyph glyph-name="uniFEF4_uniFEAE.liga" unicode="&#xfef4;&#xfeae;" horiz-adv-x="1362" 
d="M1113 -199l102 101l103 -101l-103 -102zM655 0q-48 -135 -197.5 -218t-400.5 -83h-25l86 158q61 2 130 20.5t128 49t98 75.5t39 104q0 33 -1 55.5t-5 57.5l-47 410l152 123l59 -529q0 -12 1 -22.5t1 -16.5h289q28 0 46.5 14.5t18.5 45.5v370l164 138v-504
q0 -29 17.5 -46.5t43.5 -17.5h111v-184h-129q-43 0 -77 25.5t-50 56.5q-8 -33 -44 -57.5t-79 -24.5h-329zM900 -199l102 101l103 -101l-103 -102z" />
    <glyph glyph-name="uniFEF3_uniFEE4.liga" unicode="&#xfef3;&#xfee4;" horiz-adv-x="1713" 
d="M1145 -199l100 101l100 -101l-100 -102zM1064 0q-68 0 -117 38t-64 77q-32 -52 -76 -86.5t-110 -48.5l-256 174l57 133l213 -123q47 29 71 82t24 112q0 82 -46.5 134.5t-111.5 52.5q-39 0 -71 -20.5t-52 -63.5l-135 -299q-41 -92 -99.5 -127t-162.5 -35h-127
q-33 0 -52.5 28.5t-19.5 63.5t19.5 63.5t52.5 28.5h145q33 0 53.5 8.5t36 23.5t25.5 35.5t20 45.5l97 221q36 88 107 137.5t161 49.5q71 0 127.5 -26t96.5 -72t62.5 -108.5t26.5 -136.5q2 -32 6 -64t20.5 -57.5t49.5 -41t90 -15.5h243q70 0 70 56v10q0 4 -2 16l-48 361
l154 125l59 -467q5 -27 7 -52.5t2 -52.5q0 -92 -43 -136t-150 -44h-353zM1356 -199l100 101l102 -101l-102 -102z" />
    <glyph glyph-name="uniFEF4_uniFEE6.liga" unicode="&#xfef4;&#xfee6;" horiz-adv-x="1722" 
d="M598 938l102 104l101 -104l-101 -96zM1473 -199l102 101l103 -101l-103 -102zM1135 0q-93 0 -119 55q-17 -78 -60 -144.5t-103 -113.5t-133 -73.5t-149 -26.5q-102 0 -191 42t-153.5 110.5t-101.5 157.5t-37 186q0 90 28.5 171.5t83 143t130 98.5t168.5 37h20q10 0 21 -2
l-93 -152q-51 -8 -89 -34.5t-63.5 -65.5t-37.5 -86t-12 -96q0 -72 24.5 -134.5t67.5 -108.5t103.5 -73.5t131.5 -27.5q60 0 113 21.5t92 60.5t61.5 89t22.5 109v379l162 125v-352q0 -49 21.5 -80t76.5 -31h202q28 0 46.5 14.5t18.5 45.5v370l164 138v-504q0 -29 17.5 -46.5
t43.5 -17.5h111v-184h-129q-43 0 -77 25.5t-50 56.5q-8 -33 -44 -57.5t-79 -24.5h-209zM1260 -199l102 101l103 -101l-103 -102z" />
    <glyph glyph-name="T_h.liga" unicode="Th" horiz-adv-x="1625" 
d="M841 1024h-307v-1024h-172q-4 23 -8 49q-4 23 -6 50.5t-2 56.5v868h-326v139h822l162 64q2 -21 6 -43q2 -19 4 -43.5t2 -48.5v-406q78 62 150.5 106t146.5 44q49 0 85 -19.5t59.5 -52.5t35 -78t11.5 -94v-592h-160q-4 23 -8 47q-5 23 -7 47.5t-2 52.5v428q0 25 -3 47.5
t-11 41t-23.5 30t-41.5 11.5q-25 0 -52.5 -12.5t-56.5 -33t-59.5 -46t-59.5 -52.5v-561h-164q-4 23 -8 47q-6 43 -6 100z" />
    <glyph glyph-name="f_b.liga" unicode="fb" horiz-adv-x="1391" 
d="M1139 418q0 57 -9 108.5t-29.5 91t-56.5 63.5t-87 24t-96 -35t-78 -76v-424q31 -27 72 -48.5t84 -21.5q61 0 100 27t61.5 72t30.5 102t8 117zM603 1052q-53 16 -99 27q-48 11 -91 11q-45 0 -64.5 -25t-19.5 -64v-190h160l-14 -117h-146v-694h-160q-4 27 -8 51
q-4 23 -6 48.5t-2 47.5v547h-127v117h127v213q0 55 22.5 92t55.5 58.5t71.5 29.5t71.5 8q43 0 84 -5t87 -15t100.5 -23.5t123.5 -27.5q2 -23 7 -45q4 -21 6 -46.5t2 -50.5v-267q36 33 94 65q59 32 124 32q82 0 142.5 -32.5t99.5 -88t57.5 -130t18.5 -156.5q0 -92 -21.5 -173
t-66 -140.5t-111 -94t-156.5 -34.5q-55 0 -109.5 20t-97.5 49l-45 -65l-141 45l31 106v917z" />
    <glyph glyph-name="f_f_b.liga" unicode="ffb" horiz-adv-x="1841" 
d="M1589 418q0 57 -9 108.5t-29.5 91t-56.5 63.5t-87 24t-96 -35t-78 -76v-424q31 -27 72 -48.5t84 -21.5q61 0 100 27t61.5 72t30.5 102t8 117zM329 694v-694h-160q-4 27 -8 51q-4 23 -6 48.5t-2 47.5v547h-127v117h127v213q0 55 20.5 91t52 57.5t69.5 30.5t71 9
q41 0 87 -11t81 -21l-37 -109q-22 6 -45 12.5t-45 6.5q-45 0 -61.5 -25t-16.5 -64v-190h274v213q0 55 22.5 92t55.5 58.5t71.5 29.5t71.5 8q43 0 84 -5t87 -15t100.5 -23.5t123.5 -27.5q2 -23 7 -45q4 -21 6 -46.5t2 -50.5v-267q36 33 94 65q59 32 124 32q82 0 142.5 -32.5
t99.5 -88t57.5 -130t18.5 -156.5q0 -92 -21.5 -173t-66 -140.5t-111 -94t-156.5 -34.5q-55 0 -109.5 20t-97.5 49l-45 -65l-141 45l31 106v917q-53 16 -99 27q-48 11 -91 11q-45 0 -64.5 -25t-19.5 -64v-190h160l-14 -117h-146v-694h-160q-4 27 -8 51q-4 23 -6 48.5t-2 47.5
v547h-274z" />
    <glyph glyph-name="f_f.liga" unicode="ff" horiz-adv-x="959" 
d="M603 811v213q0 55 20.5 91t52 57.5t69.5 30.5t71 9q41 0 87 -11t81 -21l-37 -109q-22 6 -45 12.5t-45 6.5q-45 0 -61.5 -25t-16.5 -64v-190h176l-16 -117h-160v-694h-160q-4 27 -8 51q-4 23 -6 48.5t-2 47.5v547h-274v-694h-160q-4 27 -8 51q-4 23 -6 48.5t-2 47.5v547
h-127v117h127v213q0 55 20.5 91t52 57.5t69.5 30.5t71 9q41 0 87 -11t81 -21l-37 -109q-22 6 -45 12.5t-45 6.5q-45 0 -61.5 -25t-16.5 -64v-190h274z" />
    <glyph glyph-name="f_h.liga" unicode="fh" horiz-adv-x="1395" 
d="M786 961v-275q78 62 150.5 106t146.5 44q49 0 85 -19.5t59.5 -52.5t35 -78t11.5 -94v-592h-160q-4 23 -8 47q-5 23 -7 47.5t-2 52.5v428q0 25 -3 47.5t-11 41t-23.5 30t-41.5 11.5q-25 0 -52.5 -12.5t-56.5 -33t-59.5 -46t-59.5 -52.5v-561h-164q-4 23 -8 47
q-6 43 -6 100v903l-5 1q-55 16 -103 28q-48 11 -91 11q-45 0 -64.5 -25t-19.5 -64v-190h160l-14 -117h-146v-694h-160q-4 27 -8 51q-4 23 -6 48.5t-2 47.5v547h-127v117h127v213q0 55 22.5 92t55.5 58.5t71.5 29.5t71.5 8q43 0 84 -5t87 -15t100.5 -23.5t123.5 -27.5
q2 -23 7 -45q2 -11 10 -135z" />
    <glyph glyph-name="f_f_h.liga" unicode="ffh" horiz-adv-x="1845" 
d="M329 694v-694h-160q-4 27 -8 51q-4 23 -6 48.5t-2 47.5v547h-127v117h127v213q0 55 20.5 91t52 57.5t69.5 30.5t71 9q41 0 87 -11t81 -21l-37 -109q-22 6 -45 12.5t-45 6.5q-45 0 -61.5 -25t-16.5 -64v-190h274v213q0 55 22.5 92t55.5 58.5t71.5 29.5t71.5 8q43 0 84 -5
t87 -15t100.5 -23.5t123.5 -27.5q2 -23 7 -45q2 -11 10 -135v-275q78 62 150.5 106t146.5 44q49 0 85 -19.5t59.5 -52.5t35 -78t11.5 -94v-592h-160q-4 23 -8 47q-5 23 -7 47.5t-2 52.5v428q0 25 -3 47.5t-11 41t-23.5 30t-41.5 11.5q-25 0 -52.5 -12.5t-56.5 -33t-59.5 -46
t-59.5 -52.5v-561h-164q-4 23 -8 47q-6 43 -6 100v903l-5 1q-55 16 -103 28q-48 11 -91 11q-45 0 -64.5 -25t-19.5 -64v-190h160l-14 -117h-146v-694h-160q-4 27 -8 51q-4 23 -6 48.5t-2 47.5v547h-274z" />
    <glyph glyph-name="f_f_i.liga" unicode="ffi" horiz-adv-x="1318" 
d="M329 694v-694h-160q-4 27 -8 51q-4 23 -6 48.5t-2 47.5v547h-127v117h127v213q0 55 20.5 91t52 57.5t69.5 30.5t71 9q41 0 87 -11t81 -21l-37 -109q-22 6 -45 12.5t-45 6.5q-45 0 -61.5 -25t-16.5 -64v-190h274v213q0 96 66.5 142t158.5 46q76 0 170 -22.5t183 -50.5
l-60 -111q-80 23 -146.5 42.5t-113.5 19.5q-49 0 -65.5 -28t-16.5 -61v-190h426v-811h-156q-4 27 -8 51q-4 23 -6 48.5t-2 47.5v547h-254v-694h-160q-4 27 -8 51q-4 23 -6 48.5t-2 47.5v547h-274z" />
    <glyph glyph-name="f_j.liga" unicode="fj" horiz-adv-x="868" 
d="M581 694h-252v-694h-160q-4 27 -8 51q-4 23 -6 48.5t-2 47.5v547h-127v117h127v213q0 96 66.5 142t158.5 46q76 0 170 -22.5t183 -50.5l-60 -111q-80 23 -146.5 42.5t-113.5 19.5q-49 0 -65.5 -28t-16.5 -61v-190h318l108 23v-961q0 -68 -28.5 -113t-76 -71.5t-108 -41
t-123.5 -20.5l14 125q27 6 53.5 13.5t47 20.5t34 35.5t13.5 59.5v813z" />
    <glyph glyph-name="f_f_j.liga" unicode="ffj" horiz-adv-x="1318" 
d="M1031 694h-252v-694h-160q-4 27 -8 51q-4 23 -6 48.5t-2 47.5v547h-274v-694h-160q-4 27 -8 51q-4 23 -6 48.5t-2 47.5v547h-127v117h127v213q0 55 20.5 91t52 57.5t69.5 30.5t71 9q41 0 87 -11t81 -21l-37 -109q-22 6 -45 12.5t-45 6.5q-45 0 -61.5 -25t-16.5 -64v-190
h274v213q0 96 66.5 142t158.5 46q76 0 170 -22.5t183 -50.5l-60 -111q-80 23 -146.5 42.5t-113.5 19.5q-49 0 -65.5 -28t-16.5 -61v-190h318l108 23v-961q0 -68 -28.5 -113t-76 -71.5t-108 -41t-123.5 -20.5l14 125q27 6 53.5 13.5t47 20.5t34 35.5t13.5 59.5v813z" />
    <glyph glyph-name="f_k.liga" unicode="fk" horiz-adv-x="1305" 
d="M784 442l130 172l161 205h170q-2 -14 -8 -31q-10 -32 -43 -73l-217 -264l254 -345q16 -22 26.5 -41.5t16.5 -33.5q8 -17 10 -31h-174l-297 403q-10 11 -23 19q-3 2 -6 3v-278l33 -96l-150 -67q-18 20 -31 45q-10 22 -19 52t-9 69v901q-56 16 -104 27.5t-91 11.5
q-45 0 -64.5 -25t-19.5 -64v-190h160l-14 -117h-146v-694h-160q-4 27 -8 51q-4 23 -6 48.5t-2 47.5v547h-127v117h127v213q0 55 22.5 92t55.5 58.5t71.5 29.5t71.5 8q43 0 84 -5t87 -15t100.5 -23.5t123.5 -27.5q2 -23 7 -45q4 -21 6 -46.5t2 -50.5v-557z" />
    <glyph glyph-name="f_f_k.liga" unicode="ffk" horiz-adv-x="1755" 
d="M329 694v-694h-160q-4 27 -8 51q-4 23 -6 48.5t-2 47.5v547h-127v117h127v213q0 55 20.5 91t52 57.5t69.5 30.5t71 9q41 0 87 -11t81 -21l-37 -109q-22 6 -45 12.5t-45 6.5q-45 0 -61.5 -25t-16.5 -64v-190h274v213q0 55 22.5 92t55.5 58.5t71.5 29.5t71.5 8q43 0 84 -5
t87 -15t100.5 -23.5t123.5 -27.5q2 -23 7 -45q4 -21 6 -46.5t2 -50.5v-557l130 172l161 205h170q-2 -14 -8 -31q-10 -32 -43 -73l-217 -264l254 -345q16 -22 26.5 -41.5t16.5 -33.5q8 -17 10 -31h-174l-297 403q-10 11 -23 19q-3 2 -6 3v-278l33 -96l-150 -67q-18 20 -31 45
q-10 22 -19 52t-9 69v901q-56 16 -104 27.5t-91 11.5q-45 0 -64.5 -25t-19.5 -64v-190h160l-14 -117h-146v-694h-160q-4 27 -8 51q-4 23 -6 48.5t-2 47.5v547h-274z" />
    <glyph glyph-name="f_f_l.liga" unicode="ffl" horiz-adv-x="1355" 
d="M329 694v-694h-160q-4 27 -8 51q-4 23 -6 48.5t-2 47.5v547h-127v117h127v213q0 55 20.5 91t52 57.5t69.5 30.5t71 9q41 0 87 -11t81 -21l-37 -109q-22 6 -45 12.5t-45 6.5q-45 0 -61.5 -25t-16.5 -64v-190h274v213q0 55 22.5 92t55.5 58.5t71.5 29.5t71.5 8q43 0 84 -5
t87 -15t100.5 -23.5t123.5 -27.5q2 -23 7 -45q4 -21 6 -46.5t2 -50.5v-852l33 -96l-150 -67q-18 20 -31 45q-10 22 -19 52t-9 69v901q-56 16 -104 27.5t-91 11.5q-45 0 -64.5 -25t-19.5 -64v-190h160l-14 -117h-146v-694h-160q-4 27 -8 51q-4 23 -6 48.5t-2 47.5v547h-274z
" />
    <glyph glyph-name="f_t.liga" unicode="ft" horiz-adv-x="957" 
d="M329 694v-694h-160q-4 27 -8 51q-4 23 -6 48.5t-2 47.5v547h-127v117h127v213q0 55 20.5 91t52 57.5t69.5 30.5t71 9q41 0 87 -11t81 -21l-37 -109q-22 6 -45 12.5t-45 6.5q-45 0 -61.5 -25t-16.5 -64v-190h284v256l150 41q4 -27 8 -49q4 -23 7 -45.5t3 -42.5v-160h176
l-14 -117h-160v-465q0 -47 21.5 -68.5t60.5 -37.5l64 -27l-68 -112q-49 8 -94 18t-81 28.5t-56.5 48.5t-20.5 77v538h-280z" />
    <glyph glyph-name="f_f_t.liga" unicode="fft" horiz-adv-x="1407" 
d="M329 694v-694h-160q-4 27 -8 51q-4 23 -6 48.5t-2 47.5v547h-127v117h127v213q0 55 20.5 91t52 57.5t69.5 30.5t71 9q41 0 87 -11t81 -21l-37 -109q-22 6 -45 12.5t-45 6.5q-45 0 -61.5 -25t-16.5 -64v-190h274v213q0 55 20.5 91t52 57.5t69.5 30.5t71 9q41 0 87 -11
t81 -21l-37 -109q-22 6 -45 12.5t-45 6.5q-45 0 -61.5 -25t-16.5 -64v-190h284v256l150 41q4 -27 8 -49q4 -23 7 -45.5t3 -42.5v-160h176l-14 -117h-160v-465q0 -47 21.5 -68.5t60.5 -37.5l64 -27l-68 -112q-49 8 -94 18t-81 28.5t-56.5 48.5t-20.5 77v538h-280v-694h-160
q-4 27 -8 51q-4 23 -6 48.5t-2 47.5v547h-274z" />
    <glyph glyph-name="uni0647.fina" unicode="&#x647;" horiz-adv-x="1239" arabic-form="final" 
d="M747 709q-45 0 -79.5 -21.5t-57 -59.5t-35 -87t-12.5 -105q0 -51 -2 -94t-14 -70q-48 -16 -85.5 -24t-84.5 -12q16 26 20 72t4 112q0 139 37 229t91 142.5t116.5 73t116.5 20.5q65 0 120.5 -22.5t95.5 -64.5t62.5 -98.5t22.5 -124.5q0 -86 -36 -162.5t-94.5 -141
t-132 -113.5t-149.5 -80l-4 -2l-125 -252q-10 -17 -14 -32t-4 -30q0 -47 31.5 -76.5t74.5 -29.5q31 0 61.5 19.5t47.5 60.5l75 160q31 65 65 118.5t80 91t106.5 58t142.5 20.5h51v-184h-66q-86 0 -131 -38t-74 -103l-84 -174q-51 -105 -124.5 -156t-161.5 -51
q-56 0 -105 22.5t-87 60.5t-60.5 88t-22.5 103q0 25 7.5 50.5t17.5 47.5l80 168q-31 -6 -61.5 -10t-72.5 -6t-99.5 -2h-141.5l150 184q180 0 309 36t210 90.5t118.5 120t37.5 124.5q0 66 -38.5 110t-92.5 44z" />
    <glyph glyph-name="uni0672.fina" unicode="&#x672;" horiz-adv-x="497" 
d="M270 256q0 -31 15.5 -51.5t50.5 -20.5h161v-184h-209q-90 0 -137 55.5t-47 145.5v710l166 138v-793zM208 1125q-13 2 -24 3q-10 1 -18 1q-14 -1 -24 -4q-25 -5 -34 -16.5t-12 -23t-3 -19.5l-76 -23q0 59 30 103q28 44 92 48l68 -4q-23 24 -37 51q-14 26 -14 57
q0 19 7.5 37.5t22.5 33t38 22.5q16 5 37 5q8 0 17 -1q50 -4 104 -26l-20 -50q-29 13 -69 16q-9 1 -17 1q-29 0 -42 -11q-17 -15 -17 -40q0 -11 4 -23t10.5 -23t13.5 -20t14 -13q25 5 45.5 8.5t41.5 5t44.5 2.5t53.5 3l-21 -73q-12 2 -25 3q-13 0 -27 -1q-30 -3 -61 -14
q-34 -12 -62 -15q-11 -1 -22 -1z" />
    <glyph glyph-name="uni0673.fina" unicode="&#x673;" horiz-adv-x="497" 
d="M270 256q0 -31 15.5 -51.5t50.5 -20.5h161v-184h-209q-90 0 -137 55.5t-47 145.5v710l166 138v-793zM207 -373q-13 2 -24 3q-10 1 -18 1q-14 -1 -24 -4q-25 -5 -34 -16.5t-12 -23t-3 -19.5l-76 -23q0 59 30 103q28 44 92 48l68 -4q-23 24 -37 51q-14 26 -14 57
q0 19 7.5 37.5t22.5 33t38 22.5q16 5 37 5q8 0 17 -1q50 -4 104 -26l-20 -50q-29 13 -69 16q-9 1 -17 1q-29 0 -42 -11q-17 -15 -17 -40q0 -11 4 -23t10.5 -23t13.5 -20t14 -13q25 5 45.5 8.5t41.5 5t44.5 2.5t53.5 3l-21 -73q-12 2 -25 3q-13 0 -27 -1q-30 -3 -61 -14
q-34 -12 -62 -15q-11 -1 -22 -1z" />
    <glyph glyph-name="uni0675.fina" unicode="&#x675;" horiz-adv-x="708" 
d="M596 1202v-74q-11 9 -23 11t-22 2q-23 0 -39.5 -12.5t-16.5 -34.5q0 -23 17.5 -33t40.5 -10h112v-74h-291l-63 74h131q-12 20 -12 49q0 47 35.5 79.5t83.5 32.5q20 0 47 -10zM270 256q0 -31 15.5 -51.5t50.5 -20.5h372v-184h-419q-90 0 -137 55.5t-47 145.5v710l165 138
v-793z" />
    <glyph glyph-name="uni0676.fina" unicode="&#x676;" horiz-adv-x="978" 
d="M585 86q-45 -35 -87 -46t-93 -11q-74 0 -131 29.5t-95 78.5t-58.5 112.5t-20.5 131.5q0 76 23.5 147.5t69.5 128t110.5 90t148.5 33.5q82 0 144.5 -27.5t104.5 -75.5t63.5 -113.5t23.5 -141.5v-123q0 -45 33 -80t92 -35h65v-184h-43q-51 0 -90 17.5t-61 58.5l-4 -2
q-8 -54 -25.5 -100t-52.5 -89q-45 -53 -110.5 -89t-139.5 -58.5t-151.5 -31.5t-147.5 -9h-20l86 160q90 4 183 30.5t159 83.5q53 47 62 108.5t9 127.5q0 53 -1 104t-1 92q-4 93 -49 160.5t-137 67.5q-49 0 -86 -21.5t-59.5 -56.5t-34 -78t-11.5 -86t12.5 -85t35 -73.5
t57.5 -51t82 -19.5q41 0 76.5 15t70.5 54zM778 1067v-72q-19 13 -47 13q-21 0 -36.5 -13.5t-15.5 -36.5q0 -22 15.5 -31t38.5 -9h114v-76h-291l-63 76h129q-12 24 -12 47q0 49 35.5 80.5t83.5 31.5q12 0 23 -3t26 -7z" />
    <glyph glyph-name="uni0677.fina" unicode="&#x677;" horiz-adv-x="978" 
d="M585 86q-45 -35 -87 -46t-93 -11q-74 0 -131 29.5t-95 78.5t-58.5 112.5t-20.5 131.5q0 76 23.5 147.5t69.5 128t110.5 90t148.5 33.5q82 0 144.5 -27.5t104.5 -75.5t63.5 -113.5t23.5 -141.5v-123q0 -45 33 -80t92 -35h65v-184h-43q-51 0 -90 17.5t-61 58.5l-4 -2
q-8 -54 -25.5 -100t-52.5 -89q-45 -53 -110.5 -89t-139.5 -58.5t-151.5 -31.5t-147.5 -9h-20l86 160q90 4 183 30.5t159 83.5q53 47 62 108.5t9 127.5q0 53 -1 104t-1 92q-4 93 -49 160.5t-137 67.5q-49 0 -86 -21.5t-59.5 -56.5t-34 -78t-11.5 -86t12.5 -85t35 -73.5
t57.5 -51t82 -19.5q41 0 76.5 15t70.5 54zM798 1067v-72q-19 13 -47 13q-21 0 -36.5 -13.5t-15.5 -36.5q0 -22 15.5 -31t38.5 -9h114v-76h-291l-63 76h129q-12 24 -12 47q0 49 35.5 80.5t83.5 31.5q12 0 23 -3t26 -7zM112 842l35 55h131q-20 17 -28.5 38.5t-8.5 39.5
q0 41 32 71.5t81 30.5q47 0 81 -34.5t34 -81.5q0 -45 -30 -82t-87 -37h-240zM354 1024q-24 0 -40.5 -18.5t-16.5 -40.5q0 -23 16.5 -41.5t40.5 -18.5q27 0 43 17.5t16 42.5q0 22 -16 40.5t-43 18.5z" />
    <glyph glyph-name="uni0678.init" unicode="&#x678;" horiz-adv-x="738" 
d="M615 1067v-72q-8 6 -21.5 9.5t-23.5 3.5q-23 0 -38 -13.5t-15 -36.5q0 -22 15 -31t40 -9h113v-76h-289l-66 76h129q-12 24 -12 47q0 49 36 80.5t83 31.5q22 0 49 -10zM402 752l59 -467q5 -27 7 -52.5t2 -52.5q0 -92 -43 -136t-150 -44h-276q-33 0 -52.5 28.5t-19.5 63.5
t19.5 63.5t52.5 28.5h227q70 0 70 56v10q0 4 -2 16l-48 361z" />
    <glyph glyph-name="uni0678.medi" unicode="&#x678;" horiz-adv-x="733" 
d="M733 184v-184h-339q-43 0 -77 25.5t-50 56.5q-8 -33 -44 -57.5t-79 -24.5h-143q-33 0 -52.5 28.5t-19.5 63.5t19.5 63.5t52.5 28.5h121q28 0 46.5 14.5t18.5 45.5v370l164 138v-504q0 -29 17.5 -46.5t43.5 -17.5h321zM615 1067v-72q-8 6 -21.5 9.5t-23.5 3.5
q-23 0 -38 -13.5t-15 -36.5q0 -22 15 -31t40 -9h113v-76h-289l-66 76h129q-12 24 -12 47q0 49 36 80.5t83 31.5q22 0 49 -10z" />
    <glyph glyph-name="uni0678.fina" unicode="&#x678;" horiz-adv-x="1875" 
d="M1140 180q43 0 61.5 15.5t18.5 42.5q0 10 -4 23t-19 42l-67 125q-21 31 -28 61.5t-7 59.5q0 49 22.5 89t57.5 68.5t80 44t90 15.5q72 0 128 -35t91 -100l164 -340q14 -29 25.5 -49.5t25.5 -32.5t33.5 -18.5t48.5 -6.5h14v-184q-47 0 -81.5 3t-63.5 17.5t-53.5 45
t-48.5 84.5l-207 411q-17 29 -37.5 39t-40.5 10q-33 0 -58.5 -20.5t-25.5 -54.5q0 -11 4 -23t14 -33l64 -117q31 -57 42 -97t11 -75q0 -86 -63.5 -138t-194.5 -52h-682q-90 0 -160.5 31.5t-122 87t-78 128t-26.5 154.5q0 179 108.5 276t313.5 97q24 0 48 -1t48 -3l-88 -145
q-10 2 -15 2h-14q-110 0 -175.5 -55.5t-65.5 -159.5q0 -29 10 -68t35.5 -76t69.5 -62.5t110 -25.5h688zM1634 1067v-72q-8 6 -21.5 9.5t-23.5 3.5q-23 0 -38.5 -13.5t-15.5 -36.5q0 -22 15.5 -31t40.5 -9h112v-76h-288l-66 76h129q-12 24 -12 47q0 49 35.5 80.5t83.5 31.5
q22 0 49 -10z" />
    <glyph glyph-name="uni067C.init" unicode="&#x67c;" horiz-adv-x="573" 
d="M170 0q-20 0 -33.5 -8.5t-22.5 -23t-13.5 -32t-4.5 -33.5q0 -20 4 -38t13.5 -32t23 -22.5t33.5 -8.5q19 0 33.5 9t23.5 23t13 32t4 37q0 16 -4.5 33.5t-13.5 32t-23 23t-33 8.5zM-3 938l104 104l100 -104l-100 -96zM58 0h-57q-33 0 -52.5 28.5t-19.5 63.5t19.5 63.5
t52.5 28.5h227q70 0 70 56v10q0 4 -2 16l-48 361l154 125l59 -467q5 -27 7 -52.5t2 -52.5q0 -92 -43 -136q-42 -43 -147 -44q12 -17 19 -38q9 -28 9 -57q0 -32 -9.5 -61.5t-28 -52t-44.5 -36t-56 -13.5q-32 0 -57.5 13.5t-44 35.5t-28.5 51.5t-10 62.5q0 29 10 57
q7 21 18 38zM210 938l100 104l102 -104l-102 -96z" />
    <glyph glyph-name="uni067C.medi" unicode="&#x67c;" horiz-adv-x="683" 
d="M170 0q-20 0 -33.5 -8.5t-22.5 -23t-13.5 -32t-4.5 -33.5q0 -20 4 -38t13.5 -32t23 -22.5t33.5 -8.5q19 0 33.5 9t23.5 23t13 32t4 37q0 16 -4.5 33.5t-13.5 32t-23 23t-33 8.5zM423 938l100 104l103 -104l-103 -96zM58 0h-57q-33 0 -52.5 28.5t-19.5 63.5t19.5 63.5
t52.5 28.5h281q28 0 46.5 14.5t18.5 45.5v370l164 138v-504q0 -29 17.5 -46.5t43.5 -17.5h111v-184h-129q-43 0 -77 25.5t-50 56.5q-8 -33 -44 -57.5t-79 -24.5h-24q12 -17 19 -38q9 -28 9 -57q0 -32 -9.5 -61.5t-28 -52t-44.5 -36t-56 -13.5q-32 0 -57.5 13.5t-44 35.5
t-28.5 51.5t-10 62.5q0 29 10 57q7 21 18 38zM212 938l102 104l99 -104l-99 -96z" />
    <glyph glyph-name="uni067C.fina" unicode="&#x67c;" horiz-adv-x="1892" 
d="M1000 0q-20 0 -33.5 -8.5t-22.5 -23t-13.5 -32t-4.5 -33.5q0 -20 4 -38t13.5 -32t23 -22.5t33.5 -8.5q19 0 33.5 9t23.5 23t13 32t4 37q0 16 -4.5 33.5t-13.5 32t-23 23t-33 8.5zM1029 938l101 104l102 -104l-102 -96zM888 0h-424q-102 0 -177 35t-123 92t-70.5 127
t-22.5 141q0 90 30.5 160t86 117t131.5 71.5t166 24.5q28 0 53 -2t53 -6l-88 -144h-26q-117 0 -181.5 -55t-64.5 -155q0 -27 9 -65t34.5 -73t69.5 -59.5t116 -24.5h983q70 0 70 56q0 6 -1 10t-1 16l-47 361l151 125l45 -373q4 -33 11.5 -68t23.5 -62.5t45 -46t76 -18.5h76
v-184h-107q-59 0 -94 24.5t-47 57.5q-14 -37 -51 -59.5t-92 -22.5h-391q12 -17 19 -38q9 -28 9 -57q0 -32 -9.5 -61.5t-28 -52t-44.5 -36t-56 -13.5q-32 0 -57.5 13.5t-44 35.5t-28.5 51.5t-10 62.5q0 29 10 57q7 21 18 38zM816 938l103 104l100 -104l-100 -96z" />
    <glyph glyph-name="uni067D.init" unicode="&#x67d;" horiz-adv-x="573" 
d="M117 1204l99 -96l-99 -98l-98 98zM230 1042l96 -98l-96 -96l-96 96zM345 1204l96 -96l-96 -98l-97 98zM1 0q-33 0 -52.5 28.5t-19.5 63.5t19.5 63.5t52.5 28.5h227q70 0 70 56v10t-2 16l-48 361l154 125l59 -467q5 -27 7 -52.5t2 -52.5q0 -92 -43 -136t-150 -44h-276z
" />
    <glyph glyph-name="uni067D.medi" unicode="&#x67d;" horiz-adv-x="522" 
d="M373 1204l97 -96l-97 -98l-96 98zM259 1042l96 -98l-96 -96l-97 96zM150 1204l96 -96l-96 -98l-100 98zM523 184v-184h-129q-43 0 -77 25.5t-50 56.5q-8 -33 -44 -57.5t-79 -24.5h-143q-33 0 -52.5 28.5t-19.5 63.5t19.5 63.5t52.5 28.5h121q28 0 46.5 14.5t18.5 45.5
v370l164 138v-504q0 -29 17.5 -46.5t43.5 -17.5h111z" />
    <glyph glyph-name="uni067D.fina" unicode="&#x67d;" horiz-adv-x="1892" 
d="M1140 1204l96 -96l-96 -98l-96 98zM1027 1042l97 -98l-97 -96l-96 96zM917 1204l96 -96l-96 -98l-101 98zM464 0q-102 0 -177 35t-123 92t-70.5 127t-22.5 141q0 90 30.5 160t86 117t131.5 71.5t166 24.5q28 0 53 -2t53 -6l-88 -144h-26q-117 0 -181.5 -55t-64.5 -155
q0 -27 9 -65t34.5 -73t69.5 -59.5t116 -24.5h983q70 0 70 56q0 6 -1 10t-1 16l-47 361l151 125l45 -373q4 -33 11.5 -68t23.5 -62.5t45 -46t76 -18.5h76v-184h-107q-59 0 -94 24.5t-47 57.5q-14 -37 -51 -59.5t-92 -22.5h-1037z" />
    <glyph glyph-name="uni0681.init" unicode="&#x681;" horiz-adv-x="1267" 
d="M1100 264q-16 2 -31.5 4t-31.5 2q-96 0 -186.5 -37.5t-206.5 -95.5q-103 -53 -219.5 -95t-255.5 -42h-168q-33 0 -52.5 28.5t-19.5 63.5t19.5 63.5t52.5 28.5h180q67 0 142 17.5t148.5 45t142.5 59.5t128 61q-47 14 -89 39.5t-87 51t-94 45t-109 19.5q-117 0 -233 -51
l78 219q96 33 170 33q67 0 120.5 -20.5t102.5 -52.5t100 -67.5t114.5 -67.5t144.5 -52.5t192 -20.5h39zM590 1125v-72q-8 6 -21.5 9.5t-23.5 3.5q-23 0 -38.5 -13.5t-15.5 -36.5q0 -22 15.5 -31t40.5 -9h112v-76h-288l-66 76h129q-12 24 -12 47q0 49 35.5 80.5t83.5 31.5
q22 0 49 -10z" />
    <glyph glyph-name="uni0681.medi" unicode="&#x681;" horiz-adv-x="1280" 
d="M801 213q-36 -16 -75 -34.5t-82 -41.5q-103 -53 -219.5 -95t-255.5 -42h-168q-33 0 -52.5 28.5t-19.5 63.5t19.5 63.5t52.5 28.5h180q67 0 142 17.5t148.5 45t142.5 59.5t128 61q-47 14 -89 39.5t-87 51t-94 45t-109 19.5q-117 0 -233 -51l78 219q96 33 170 33
q67 0 120.5 -20.5t102.5 -52.5t100 -67.5t114.5 -67.5t144.5 -52.5t192 -20.5h39l-91 -178q-16 2 -31.5 4t-31.5 2q-55 0 -117 -16q17 -47 53.5 -58.5t77.5 -11.5h230v-184h-222q-45 0 -87 11.5t-76.5 37t-59 66.5t-35.5 98zM630 1125v-72q-8 6 -21.5 9.5t-23.5 3.5
q-23 0 -38.5 -13.5t-15.5 -36.5q0 -22 15.5 -31t40.5 -9h112v-76h-288l-66 76h129q-12 24 -12 47q0 49 35.5 80.5t83.5 31.5q22 0 49 -10z" />
    <glyph glyph-name="uni0681.fina" unicode="&#x681;" horiz-adv-x="1007" 
d="M604 395q-166 -14 -265 -86.5t-99 -208.5q0 -47 20.5 -90t62.5 -75.5t104 -52t148 -19.5h281q-22 -47 -46 -83t-52 -83h-191q-125 0 -216 32.5t-149.5 85t-87 120t-28.5 139.5q0 92 36 171t102.5 139t160.5 99t209 49q-27 11 -57.5 29.5t-65.5 35.5t-77 29.5t-91 12.5
q-51 0 -100 -18.5t-90 -59.5l49 193q30 22 68 32.5t77 10.5q86 0 151.5 -39t125 -85t120 -85t136.5 -39h38q17 0 37 4l-49 -162q-24 4 -51 6t-61 2l26 -141q8 -45 26.5 -59.5t59.5 -14.5h142v-184h-164q-99 0 -151 48t-62 130zM630 1125v-72q-8 6 -21.5 9.5t-23.5 3.5
q-23 0 -38.5 -13.5t-15.5 -36.5q0 -22 15.5 -31t40.5 -9h112v-76h-288l-66 76h129q-12 24 -12 47q0 49 35.5 80.5t83.5 31.5q22 0 49 -10z" />
    <glyph glyph-name="uni0682.init" unicode="&#x682;" horiz-adv-x="1267" 
d="M1100 264q-16 2 -31.5 4t-31.5 2q-96 0 -186.5 -37.5t-206.5 -95.5q-103 -53 -219.5 -95t-255.5 -42h-168q-33 0 -52.5 28.5t-19.5 63.5t19.5 63.5t52.5 28.5h180q67 0 142 17.5t148.5 45t142.5 59.5t128 61q-47 14 -89 39.5t-87 51t-94 45t-109 19.5q-117 0 -233 -51
l78 219q96 33 170 33q67 0 120.5 -20.5t102.5 -52.5t100 -67.5t114.5 -67.5t144.5 -52.5t192 -20.5h39zM410 1246l97 -98l-97 -96l-96 96zM410 1039l97 -98l-97 -96l-96 96z" />
    <glyph glyph-name="uni0682.medi" unicode="&#x682;" horiz-adv-x="1280" 
d="M801 213q-36 -16 -75 -34.5t-82 -41.5q-103 -53 -219.5 -95t-255.5 -42h-168q-33 0 -52.5 28.5t-19.5 63.5t19.5 63.5t52.5 28.5h180q67 0 142 17.5t148.5 45t142.5 59.5t128 61q-47 14 -89 39.5t-87 51t-94 45t-109 19.5q-117 0 -233 -51l78 219q96 33 170 33
q67 0 120.5 -20.5t102.5 -52.5t100 -67.5t114.5 -67.5t144.5 -52.5t192 -20.5h39l-91 -178q-16 2 -31.5 4t-31.5 2q-55 0 -117 -16q17 -47 53.5 -58.5t77.5 -11.5h230v-184h-222q-45 0 -87 11.5t-76.5 37t-59 66.5t-35.5 98zM420 1246l97 -98l-97 -96l-96 96zM420 1039
l97 -98l-97 -96l-96 96z" />
    <glyph glyph-name="uni0682.fina" unicode="&#x682;" horiz-adv-x="1007" 
d="M604 395q-166 -14 -265 -86.5t-99 -208.5q0 -47 20.5 -90t62.5 -75.5t104 -52t148 -19.5h281q-22 -47 -46 -83t-52 -83h-191q-125 0 -216 32.5t-149.5 85t-87 120t-28.5 139.5q0 92 36 171t102.5 139t160.5 99t209 49q-27 11 -57.5 29.5t-65.5 35.5t-77 29.5t-91 12.5
q-51 0 -100 -18.5t-90 -59.5l49 193q30 22 68 32.5t77 10.5q86 0 151.5 -39t125 -85t120 -85t136.5 -39h38q17 0 37 4l-49 -162q-24 4 -51 6t-61 2l26 -141q8 -45 26.5 -59.5t59.5 -14.5h142v-184h-164q-99 0 -151 48t-62 130zM500 1266l97 -98l-97 -96l-96 96zM500 1059
l97 -98l-97 -96l-96 96z" />
    <glyph glyph-name="uni0685.init" unicode="&#x685;" horiz-adv-x="1267" 
d="M1100 264q-16 2 -31.5 4t-31.5 2q-96 0 -186.5 -37.5t-206.5 -95.5q-103 -53 -219.5 -95t-255.5 -42h-168q-33 0 -52.5 28.5t-19.5 63.5t19.5 63.5t52.5 28.5h180q67 0 142 17.5t148.5 45t142.5 59.5t128 61q-47 14 -89 39.5t-87 51t-94 45t-109 19.5q-117 0 -233 -51
l78 219q96 33 170 33q67 0 120.5 -20.5t102.5 -52.5t100 -67.5t114.5 -67.5t144.5 -52.5t192 -20.5h39zM542 941l96 98l96 -98l-96 -96zM429 1105l96 96l97 -96l-97 -98zM314 941l101 98l96 -98l-96 -96z" />
    <glyph glyph-name="uni0685.medi" unicode="&#x685;" horiz-adv-x="1280" 
d="M801 213q-36 -16 -75 -34.5t-82 -41.5q-103 -53 -219.5 -95t-255.5 -42h-168q-33 0 -52.5 28.5t-19.5 63.5t19.5 63.5t52.5 28.5h180q67 0 142 17.5t148.5 45t142.5 59.5t128 61q-47 14 -89 39.5t-87 51t-94 45t-109 19.5q-117 0 -233 -51l78 219q96 33 170 33
q67 0 120.5 -20.5t102.5 -52.5t100 -67.5t114.5 -67.5t144.5 -52.5t192 -20.5h39l-91 -178q-16 2 -31.5 4t-31.5 2q-55 0 -117 -16q17 -47 53.5 -58.5t77.5 -11.5h230v-184h-222q-45 0 -87 11.5t-76.5 37t-59 66.5t-35.5 98zM542 941l96 98l96 -98l-96 -96zM429 1105l96 96
l97 -96l-97 -98zM314 941l101 98l96 -98l-96 -96z" />
    <glyph glyph-name="uni0685.fina" unicode="&#x685;" horiz-adv-x="1007" 
d="M604 395q-166 -14 -265 -86.5t-99 -208.5q0 -47 20.5 -90t62.5 -75.5t104 -52t148 -19.5h281q-22 -47 -46 -83t-52 -83h-191q-125 0 -216 32.5t-149.5 85t-87 120t-28.5 139.5q0 92 36 171t102.5 139t160.5 99t209 49q-27 11 -57.5 29.5t-65.5 35.5t-77 29.5t-91 12.5
q-51 0 -100 -18.5t-90 -59.5l49 193q30 22 68 32.5t77 10.5q86 0 151.5 -39t125 -85t120 -85t136.5 -39h38q17 0 37 4l-49 -162q-24 4 -51 6t-61 2l26 -141q8 -45 26.5 -59.5t59.5 -14.5h142v-184h-164q-99 0 -151 48t-62 130zM628 958l96 98l96 -98l-96 -96zM515 1122
l96 96l97 -96l-97 -98zM400 958l101 98l96 -98l-96 -96z" />
    <glyph glyph-name="uni0689.fina" unicode="&#x689;" horiz-adv-x="1013" 
d="M490 0q-20 0 -33.5 -8.5t-22.5 -23t-13.5 -32t-4.5 -33.5q0 -20 4 -38t13.5 -32t23 -22.5t33.5 -8.5q19 0 33.5 9t23.5 23t13 32t4 37q0 16 -4.5 33.5t-13.5 32t-23 23t-33 8.5zM378 0h-16q-55 0 -105 23.5t-88 61.5t-60.5 89t-22.5 107l129 86q10 -97 53 -140t154 -43
h250l-56 473l152 125q14 -123 28.5 -262t32.5 -262q9 -41 30.5 -57.5t68.5 -16.5h86v-184h-97q-51 0 -98 20.5t-57 67.5q-4 -22 -17.5 -39.5t-34 -28t-42 -15.5t-39.5 -5h-29q12 -17 19 -38q9 -28 9 -57q0 -32 -9.5 -61.5t-28 -52t-44.5 -36t-56 -13.5q-32 0 -57.5 13.5
t-44 35.5t-28.5 51.5t-10 62.5q0 29 10 57q7 21 18 38z" />
    <glyph glyph-name="uni068A.fina" unicode="&#x68a;" horiz-adv-x="1013" 
d="M86 281l129 86q10 -97 53 -140t154 -43h250l-56 473l152 125q14 -123 28.5 -262t32.5 -262q9 -41 30.5 -57.5t68.5 -16.5h86v-184h-97q-51 0 -98 20.5t-57 67.5q-4 -22 -17.5 -39.5t-34 -28t-42 -15.5t-39.5 -5h-267q-55 0 -105 23.5t-88 61.5t-60.5 89t-22.5 107z
M363 -201l102 103l100 -103q-24 -26 -47.5 -49.5l-52.5 -52.5z" />
    <glyph glyph-name="uni068B.fina" unicode="&#x68b;" horiz-adv-x="1013" 
d="M86 281l129 86q10 -97 53 -140t154 -43h250l-56 473l152 125q14 -123 28.5 -262t32.5 -262q9 -41 30.5 -57.5t68.5 -16.5h86v-184h-97q-51 0 -98 20.5t-57 67.5q-4 -22 -17.5 -39.5t-34 -28t-42 -15.5t-39.5 -5h-267q-55 0 -105 23.5t-88 61.5t-60.5 89t-22.5 107z
M535 983v207l63 57v-198q35 34 78 67t96 33t83 -32t30 -81q0 -59 -42 -102t-102 -43h-262l-59 72h90q12 0 18.5 3t6.5 17zM602 963h139q25 0 50.5 19t25.5 48q0 45 -55 45q-23 0 -44.5 -11t-41 -27.5t-39 -36t-35.5 -37.5zM363 -201l102 103l100 -103q-24 -26 -47.5 -49.5
l-52.5 -52.5z" />
    <glyph glyph-name="uni068F.fina" unicode="&#x68f;" horiz-adv-x="1013" 
d="M86 281l129 86q10 -97 53 -140t154 -43h250l-56 473l152 125q14 -123 28.5 -262t32.5 -262q9 -41 30.5 -57.5t68.5 -16.5h86v-184h-97q-51 0 -98 20.5t-57 67.5q-4 -22 -17.5 -39.5t-34 -28t-42 -15.5t-39.5 -5h-267q-55 0 -105 23.5t-88 61.5t-60.5 89t-22.5 107z
M541 1250l96 -96l-96 -98l-101 98zM651 1088l97 -98l-97 -96l-96 96zM764 1250l96 -96l-96 -98l-96 98z" />
    <glyph glyph-name="uni0690.fina" unicode="&#x690;" horiz-adv-x="1013" 
d="M86 281l129 86q10 -97 53 -140t154 -43h250l-56 473l152 125q14 -123 28.5 -262t32.5 -262q9 -41 30.5 -57.5t68.5 -16.5h86v-184h-97q-51 0 -98 20.5t-57 67.5q-4 -22 -17.5 -39.5t-34 -28t-42 -15.5t-39.5 -5h-267q-55 0 -105 23.5t-88 61.5t-60.5 89t-22.5 107z
M764 1095l100 -97l-100 -100l-96 100zM541 1095l94 -97l-94 -100l-99 100zM764 1297l100 -97l-100 -100l-96 100zM541 1297l94 -97l-94 -100l-99 100z" />
    <glyph glyph-name="uni0692.fina" unicode="&#x692;" horiz-adv-x="841" 
d="M460 629l152 123l59 -529q0 -12 1 -22.5t1 -16.5h168v-184h-186q-48 -135 -197.5 -218t-400.5 -83h-25l86 158q61 2 130 20.5t128 49t98 75.5t39 104q0 33 -1 55.5t-5 57.5zM527 895l-211 224l52 73l157 -118l154 118l58 -73z" />
    <glyph glyph-name="uni0693.fina" unicode="&#x693;" horiz-adv-x="841" 
d="M529 -188q-20 0 -33.5 -8.5t-22.5 -23t-13.5 -32t-4.5 -33.5q0 -20 4 -38t13.5 -32t23 -22.5t33.5 -8.5q19 0 33.5 9t23.5 23t13 32t4 37q0 16 -4.5 33.5t-13.5 32t-23 23t-33 8.5zM392 -248q-135 -53 -335 -53h-25l86 158q61 2 130 20.5t128 49t98 75.5t39 104
q0 33 -1 55.5t-5 57.5l-47 410l152 123l59 -529q0 -12 1 -22.5t1 -16.5h168v-184h-186q-27 -76 -86 -135q9 -3 18 -7q26 -14 44 -35t27 -49t9 -57q0 -32 -9.5 -61.5t-28 -52t-44.5 -36t-56 -13.5q-32 0 -57.5 13.5t-44 35.5t-28.5 51.5t-10 62.5q0 18 3 35z" />
    <glyph glyph-name="uni0694.fina" unicode="&#x694;" horiz-adv-x="841" 
d="M460 629l152 123l59 -529q0 -12 1 -22.5t1 -16.5h168v-184h-186q-48 -135 -197.5 -218t-400.5 -83h-25l86 158q61 2 130 20.5t128 49t98 75.5t39 104q0 33 -1 55.5t-5 57.5zM459 -450l96 98l97 -98l-97 -96z" />
    <glyph glyph-name="uni0695.fina" unicode="&#x695;" horiz-adv-x="841" 
d="M460 629l152 123l59 -529q0 -12 1 -22.5t1 -16.5h168v-184h-186q-48 -135 -197.5 -218t-400.5 -83h-25l86 158q61 2 130 20.5t128 49t98 75.5t39 104q0 33 -1 55.5t-5 57.5zM461 -681l-211 224l52 73l157 -118l154 118l58 -73z" />
    <glyph glyph-name="uni0696.fina" unicode="&#x696;" horiz-adv-x="841" 
d="M460 629l152 123l59 -529q0 -12 1 -22.5t1 -16.5h168v-184h-186q-48 -135 -197.5 -218t-400.5 -83h-25l86 158q61 2 130 20.5t128 49t98 75.5t39 104q0 33 -1 55.5t-5 57.5zM459 -450l96 98l97 -98l-97 -96zM185 199l98 98l98 -98l-98 -96z" />
    <glyph glyph-name="uni0697.fina" unicode="&#x697;" horiz-adv-x="841" 
d="M509 944l96 98l97 -98l-97 -96zM280 944l98 98l98 -98l-98 -96zM460 629l152 123l59 -529q0 -12 1 -22.5t1 -16.5h168v-184h-186q-48 -135 -197.5 -218t-400.5 -83h-25l86 158q61 2 130 20.5t128 49t98 75.5t39 104q0 33 -1 55.5t-5 57.5z" />
    <glyph glyph-name="uni0699.fina" unicode="&#x699;" horiz-adv-x="841" 
d="M460 629l152 123l59 -529q0 -12 1 -22.5t1 -16.5h168v-184h-186q-48 -135 -197.5 -218t-400.5 -83h-25l86 158q61 2 130 20.5t128 49t98 75.5t39 104q0 33 -1 55.5t-5 57.5zM606 1044l100 -97l-100 -100l-96 100zM383 1044l94 -97l-94 -100l-99 100zM606 1246l100 -97
l-100 -100l-96 100zM383 1246l94 -97l-94 -100l-99 100z" />
    <glyph glyph-name="uni069A.init" unicode="&#x69a;" horiz-adv-x="1421" 
d="M734 946l96 96l98 -96l-98 -98zM337 82q-11 -33 -46.5 -57.5t-70.5 -24.5h-219q-33 0 -52.5 28.5t-19.5 63.5t19.5 63.5t52.5 28.5h186q66 0 66 64v332l170 135v-469q0 -29 16 -45.5t45 -16.5h201q26 0 42.5 15.5t16.5 44.5v366l168 131v-493q0 -29 17.5 -46.5
t46.5 -17.5h118q31 0 47.5 14.5t16.5 37.5q0 4 -4 14l-43 364l151 127l53 -438q5 -29 7 -44t2 -30q0 -96 -55.5 -162.5t-186.5 -66.5h-119q-45 0 -78.5 22.5t-48.5 59.5q-14 -37 -50 -59.5t-77 -22.5h-243q-41 0 -76 20.5t-53 61.5zM831 -106l97 -97l-97 -98l-96 98z" />
    <glyph glyph-name="uni069A.medi" unicode="&#x69a;" horiz-adv-x="1497" 
d="M720 946l98 96l100 -96l-100 -98zM322 82q-10 -33 -47 -57.5t-72 -24.5h-202q-33 0 -52.5 28.5t-19.5 63.5t19.5 63.5t52.5 28.5h172q67 0 67 64v332l166 135v-469q0 -29 16.5 -45.5t47.5 -16.5h202q25 0 41.5 15.5t16.5 44.5v366l168 131v-493q0 -29 18.5 -46.5
t44.5 -17.5h119q29 0 47.5 14.5t18.5 37.5v5q0 3 -5 19l-47 354l154 127l63 -471q7 -47 25 -66.5t51 -19.5h111v-184h-115q-37 0 -74 16.5t-55 53.5q-22 -27 -70.5 -48.5t-115.5 -21.5h-117q-47 0 -80 22.5t-49 59.5q-12 -37 -48 -59.5t-77 -22.5h-244q-41 0 -75.5 20.5
t-55.5 61.5zM821 -106l97 -97l-97 -98l-96 98z" />
    <glyph glyph-name="uni069A.fina" unicode="&#x69a;" horiz-adv-x="2125" 
d="M1335 946l96 96l99 -96l-99 -98zM537 643l-97 -145q-51 -9 -89 -35.5t-62.5 -65.5t-36.5 -86t-12 -94q0 -72 24.5 -135.5t67.5 -111.5t102.5 -76.5t130.5 -28.5q58 0 111 21.5t94 59.5t65.5 92t24.5 120v368l158 125v-393q0 -27 16.5 -52.5t57.5 -25.5h206
q27 0 41.5 16.5t14.5 43.5v370l170 131v-495q0 -29 18.5 -47.5t44.5 -18.5h119q31 0 47 15.5t16 37.5q0 5 -4 15l-43 366l152 127l63 -467q9 -45 26 -67.5t60 -22.5h103v-184h-115q-45 0 -83 16.5t-54 53.5q-33 -35 -66.5 -52.5t-89.5 -17.5h-143q-45 0 -79 22.5t-44 59.5
q-16 -37 -52 -59.5t-77 -22.5h-188q-48 0 -77.5 12.5t-51.5 34.5q-21 -76 -63 -138.5t-100.5 -106.5t-129 -68.5t-146.5 -24.5q-98 0 -186 40t-152.5 108.5t-102.5 157.5t-38 188q0 86 28.5 166t82 141t128 98t169.5 37h20q10 0 21 -2zM1433 -106l97 -97l-97 -98l-96 98z
" />
    <glyph glyph-name="uni069B.init" unicode="&#x69b;" horiz-adv-x="1421" 
d="M337 82q-11 -33 -46.5 -57.5t-70.5 -24.5h-219q-33 0 -52.5 28.5t-19.5 63.5t19.5 63.5t52.5 28.5h186q66 0 66 64v332l170 135v-469q0 -29 16 -45.5t45 -16.5h201q26 0 42.5 15.5t16.5 44.5v366l168 131v-493q0 -29 17.5 -46.5t46.5 -17.5h118q31 0 47.5 14.5t16.5 37.5
q0 4 -4 14l-43 364l151 127l53 -438q5 -29 7 -44t2 -30q0 -96 -55.5 -162.5t-186.5 -66.5h-119q-45 0 -78.5 22.5t-48.5 59.5q-14 -37 -50 -59.5t-77 -22.5h-243q-41 0 -76 20.5t-53 61.5zM831 -270l97 -97l-97 -98l-96 98zM720 -106l96 -97l-96 -100l-99 100zM943 -106
l100 -97l-100 -100l-96 100z" />
    <glyph glyph-name="uni069B.medi" unicode="&#x69b;" horiz-adv-x="1497" 
d="M322 82q-10 -33 -47 -57.5t-72 -24.5h-202q-33 0 -52.5 28.5t-19.5 63.5t19.5 63.5t52.5 28.5h172q67 0 67 64v332l166 135v-469q0 -29 16.5 -45.5t47.5 -16.5h202q25 0 41.5 15.5t16.5 44.5v366l168 131v-493q0 -29 18.5 -46.5t44.5 -17.5h119q29 0 47.5 14.5t18.5 37.5
v5q0 3 -5 19l-47 354l154 127l63 -471q7 -47 25 -66.5t51 -19.5h111v-184h-115q-37 0 -74 16.5t-55 53.5q-22 -27 -70.5 -48.5t-115.5 -21.5h-117q-47 0 -80 22.5t-49 59.5q-12 -37 -48 -59.5t-77 -22.5h-244q-41 0 -75.5 20.5t-55.5 61.5zM821 -270l97 -97l-97 -98l-96 98z
M705 -106l96 -97l-96 -100l-99 100zM929 -106l100 -97l-100 -100l-96 100z" />
    <glyph glyph-name="uni069B.fina" unicode="&#x69b;" horiz-adv-x="2125" 
d="M537 643l-97 -145q-51 -9 -89 -35.5t-62.5 -65.5t-36.5 -86t-12 -94q0 -72 24.5 -135.5t67.5 -111.5t102.5 -76.5t130.5 -28.5q58 0 111 21.5t94 59.5t65.5 92t24.5 120v368l158 125v-393q0 -27 16.5 -52.5t57.5 -25.5h206q27 0 41.5 16.5t14.5 43.5v370l170 131v-495
q0 -29 18.5 -47.5t44.5 -18.5h119q31 0 47 15.5t16 37.5q0 5 -4 15l-43 366l152 127l63 -467q9 -45 26 -67.5t60 -22.5h103v-184h-115q-45 0 -83 16.5t-54 53.5q-33 -35 -66.5 -52.5t-89.5 -17.5h-143q-45 0 -79 22.5t-44 59.5q-16 -37 -52 -59.5t-77 -22.5h-188
q-48 0 -77.5 12.5t-51.5 34.5q-21 -76 -63 -138.5t-100.5 -106.5t-129 -68.5t-146.5 -24.5q-98 0 -186 40t-152.5 108.5t-102.5 157.5t-38 188q0 86 28.5 166t82 141t128 98t169.5 37h20q10 0 21 -2zM1433 -270l97 -97l-97 -98l-96 98zM1319 -106l96 -97l-96 -100l-99 100z
M1542 -106l100 -97l-100 -100l-96 100z" />
    <glyph glyph-name="uni069C.init" unicode="&#x69c;" horiz-adv-x="1421" 
d="M849 944l96 98l98 -98l-98 -96zM734 1108l96 96l98 -96l-98 -98zM621 944l99 98l96 -98l-96 -96zM337 82q-11 -33 -46.5 -57.5t-70.5 -24.5h-219q-33 0 -52.5 28.5t-19.5 63.5t19.5 63.5t52.5 28.5h186q66 0 66 64v332l170 135v-469q0 -29 16 -45.5t45 -16.5h201
q26 0 42.5 15.5t16.5 44.5v366l168 131v-493q0 -29 17.5 -46.5t46.5 -17.5h118q31 0 47.5 14.5t16.5 37.5q0 4 -4 14l-43 364l151 127l53 -438q5 -29 7 -44t2 -30q0 -96 -55.5 -162.5t-186.5 -66.5h-119q-45 0 -78.5 22.5t-48.5 59.5q-14 -37 -50 -59.5t-77 -22.5h-243
q-41 0 -76 20.5t-53 61.5zM831 -270l97 -97l-97 -98l-96 98zM720 -106l96 -97l-96 -100l-99 100zM943 -106l100 -97l-100 -100l-96 100z" />
    <glyph glyph-name="uni069C.medi" unicode="&#x69c;" horiz-adv-x="1497" 
d="M834 944l96 98l99 -98l-99 -96zM720 1108l98 96l100 -96l-100 -98zM609 944l96 98l96 -98l-96 -96zM322 82q-10 -33 -47 -57.5t-72 -24.5h-202q-33 0 -52.5 28.5t-19.5 63.5t19.5 63.5t52.5 28.5h172q67 0 67 64v332l166 135v-469q0 -29 16.5 -45.5t47.5 -16.5h202
q25 0 41.5 15.5t16.5 44.5v366l168 131v-493q0 -29 18.5 -46.5t44.5 -17.5h119q29 0 47.5 14.5t18.5 37.5v5q0 3 -5 19l-47 354l154 127l63 -471q7 -47 25 -66.5t51 -19.5h111v-184h-115q-37 0 -74 16.5t-55 53.5q-22 -27 -70.5 -48.5t-115.5 -21.5h-117q-47 0 -80 22.5
t-49 59.5q-12 -37 -48 -59.5t-77 -22.5h-244q-41 0 -75.5 20.5t-55.5 61.5zM821 -270l97 -97l-97 -98l-96 98zM705 -106l96 -97l-96 -100l-99 100zM929 -106l100 -97l-100 -100l-96 100z" />
    <glyph glyph-name="uni069C.fina" unicode="&#x69c;" horiz-adv-x="2125" 
d="M1450 944l94 98l98 -98l-98 -96zM1335 1108l96 96l99 -96l-99 -98zM1223 944l98 98l94 -98l-94 -96zM537 643l-97 -145q-51 -9 -89 -35.5t-62.5 -65.5t-36.5 -86t-12 -94q0 -72 24.5 -135.5t67.5 -111.5t102.5 -76.5t130.5 -28.5q58 0 111 21.5t94 59.5t65.5 92t24.5 120
v368l158 125v-393q0 -27 16.5 -52.5t57.5 -25.5h206q27 0 41.5 16.5t14.5 43.5v370l170 131v-495q0 -29 18.5 -47.5t44.5 -18.5h119q31 0 47 15.5t16 37.5q0 5 -4 15l-43 366l152 127l63 -467q9 -45 26 -67.5t60 -22.5h103v-184h-115q-45 0 -83 16.5t-54 53.5
q-33 -35 -66.5 -52.5t-89.5 -17.5h-143q-45 0 -79 22.5t-44 59.5q-16 -37 -52 -59.5t-77 -22.5h-188q-48 0 -77.5 12.5t-51.5 34.5q-21 -76 -63 -138.5t-100.5 -106.5t-129 -68.5t-146.5 -24.5q-98 0 -186 40t-152.5 108.5t-102.5 157.5t-38 188q0 86 28.5 166t82 141
t128 98t169.5 37h20q10 0 21 -2zM1433 -270l97 -97l-97 -98l-96 98zM1319 -106l96 -97l-96 -100l-99 100zM1542 -106l100 -97l-100 -100l-96 100z" />
    <glyph glyph-name="uni069D.init" unicode="&#x69d;" horiz-adv-x="1519" 
d="M267 82q-8 -33 -46 -57.5t-71 -24.5h-149q-33 0 -52.5 28.5t-19.5 63.5t19.5 63.5t52.5 28.5h127q34 0 48.5 19.5t14.5 44.5v274l160 129v-372q0 -68 51 -76q66 82 142.5 179t164.5 182t186.5 141.5t207.5 56.5q86 0 148 -28.5t102 -77t59.5 -110t19.5 -124.5
q0 -78 -26.5 -152.5t-81 -135t-134 -97.5t-184.5 -37h-598q-63 0 -94 24.5t-47 57.5zM564 184h450q48 0 93 18.5t79.5 50.5t55 75t20.5 94q0 78 -48 121t-122 43q-69 0 -144 -43t-145.5 -105.5t-133 -132t-105.5 -121.5zM856 -199l100 101l102 -101l-102 -102zM645 -199
l100 101l100 -101l-100 -102z" />
    <glyph glyph-name="uni069D.medi" unicode="&#x69d;" horiz-adv-x="1630" 
d="M267 82q-8 -33 -46 -57.5t-71 -24.5h-149q-33 0 -52.5 28.5t-19.5 63.5t19.5 63.5t52.5 28.5h127q34 0 48.5 19.5t14.5 44.5v274l160 129v-372q0 -68 51 -76q66 82 142.5 179t164.5 182t186.5 141.5t207.5 56.5q86 0 148 -28.5t102 -77t59.5 -110t19.5 -124.5
q0 -100 -47 -195q10 -18 36 -30.5t67 -12.5h143v-184h-137q-78 0 -126 30.5t-75 71.5q-53 -47 -124 -74.5t-163 -27.5h-598q-63 0 -94 24.5t-47 57.5zM564 184h450q48 0 93 18.5t79.5 50.5t55 75t20.5 94q0 78 -48 121t-122 43q-69 0 -144 -43t-145.5 -105.5t-133 -132
t-105.5 -121.5zM856 -199l100 101l102 -101l-102 -102zM645 -199l100 101l100 -101l-100 -102z" />
    <glyph glyph-name="uni069D.fina" unicode="&#x69d;" horiz-adv-x="2265" 
d="M1014 78q-17 -88 -61 -156.5t-104.5 -116t-133 -72t-148.5 -24.5q-98 0 -186 40t-152.5 108.5t-102.5 157.5t-38 188q0 86 28.5 166t82 141t128 98t169.5 37h20t21 -2l-97 -145q-51 -9 -89 -35.5t-62.5 -65.5t-36.5 -86t-12 -94q0 -72 24.5 -135.5t67.5 -111.5
t102.5 -76.5t130.5 -28.5q58 0 111 21.5t94 59.5t65.5 92t24.5 120v368l158 125v-381q0 -57 45 -67q65 82 142 179t164 182t185.5 141.5t206.5 56.5q86 0 149.5 -28.5t104.5 -75t60.5 -108t19.5 -124.5q0 -53 -12.5 -102.5t-34.5 -96.5q6 -18 28.5 -30.5t49.5 -12.5h139
v-184h-129q-66 0 -110 29.5t-72 72.5q-54 -47 -122.5 -74.5t-158.5 -27.5h-485q-74 0 -113 21.5t-61 56.5zM1225 184h460q50 0 95 18.5t80.5 50.5t56 75t20.5 94q0 78 -55 121t-127 43t-146.5 -43t-145 -105.5t-132 -132t-106.5 -121.5zM1596 -199l100 101l102 -101
l-102 -102zM1385 -199l100 101l100 -101l-100 -102z" />
    <glyph glyph-name="uni069E.init" unicode="&#x69e;" horiz-adv-x="1519" 
d="M267 82q-8 -33 -46 -57.5t-71 -24.5h-149q-33 0 -52.5 28.5t-19.5 63.5t19.5 63.5t52.5 28.5h127q34 0 48.5 19.5t14.5 44.5v274l160 129v-372q0 -68 51 -76q66 82 142.5 179t164.5 182t186.5 141.5t207.5 56.5q86 0 148 -28.5t102 -77t59.5 -110t19.5 -124.5
q0 -78 -26.5 -152.5t-81 -135t-134 -97.5t-184.5 -37h-598q-63 0 -94 24.5t-47 57.5zM564 184h450q48 0 93 18.5t79.5 50.5t55 75t20.5 94q0 78 -48 121t-122 43q-69 0 -144 -43t-145.5 -105.5t-133 -132t-105.5 -121.5zM963 939l96 98l99 -98l-99 -96zM849 1103l98 96
l100 -96l-100 -98zM738 939l96 98l96 -98l-96 -96z" />
    <glyph glyph-name="uni069E.medi" unicode="&#x69e;" horiz-adv-x="1630" 
d="M267 82q-8 -33 -46 -57.5t-71 -24.5h-149q-33 0 -52.5 28.5t-19.5 63.5t19.5 63.5t52.5 28.5h127q34 0 48.5 19.5t14.5 44.5v274l160 129v-372q0 -68 51 -76q66 82 142.5 179t164.5 182t186.5 141.5t207.5 56.5q86 0 148 -28.5t102 -77t59.5 -110t19.5 -124.5
q0 -100 -47 -195q10 -18 36 -30.5t67 -12.5h143v-184h-137q-78 0 -126 30.5t-75 71.5q-53 -47 -124 -74.5t-163 -27.5h-598q-63 0 -94 24.5t-47 57.5zM564 184h450q48 0 93 18.5t79.5 50.5t55 75t20.5 94q0 78 -48 121t-122 43q-69 0 -144 -43t-145.5 -105.5t-133 -132
t-105.5 -121.5zM963 939l96 98l99 -98l-99 -96zM849 1103l98 96l100 -96l-100 -98zM738 939l96 98l96 -98l-96 -96z" />
    <glyph glyph-name="uni069E.fina" unicode="&#x69e;" horiz-adv-x="2265" 
d="M1014 78q-17 -88 -61 -156.5t-104.5 -116t-133 -72t-148.5 -24.5q-98 0 -186 40t-152.5 108.5t-102.5 157.5t-38 188q0 86 28.5 166t82 141t128 98t169.5 37h20q10 0 21 -2l-97 -145q-51 -9 -89 -35.5t-62.5 -65.5t-36.5 -86t-12 -94q0 -72 24.5 -135.5t67.5 -111.5
t102.5 -76.5t130.5 -28.5q58 0 111 21.5t94 59.5t65.5 92t24.5 120v368l158 125v-381q0 -57 45 -67q65 82 142 179t164 182t185.5 141.5t206.5 56.5q86 0 149.5 -28.5t104.5 -75t60.5 -108t19.5 -124.5q0 -53 -12.5 -102.5t-34.5 -96.5q6 -18 28.5 -30.5t49.5 -12.5h139
v-184h-129q-66 0 -110 29.5t-72 72.5q-54 -47 -122.5 -74.5t-158.5 -27.5h-485q-74 0 -113 21.5t-61 56.5zM1225 184h460q50 0 95 18.5t80.5 50.5t56 75t20.5 94q0 78 -55 121t-127 43t-146.5 -43t-145 -105.5t-132 -132t-106.5 -121.5zM1618 939l96 98l99 -98l-99 -96z
M1504 1103l98 96l100 -96l-100 -98zM1393 939l96 98l96 -98l-96 -96z" />
    <glyph glyph-name="uni069F.init" unicode="&#x69f;" horiz-adv-x="1392" 
d="M1 184h213q28 0 45.5 15.5t17.5 44.5v661l166 137v-630q51 61 110.5 123.5t127 112.5t143.5 82t160 32q73 0 132.5 -25.5t102.5 -70.5t66.5 -106.5t23.5 -133.5q0 -76 -27.5 -151.5t-81.5 -137t-136 -99.5t-191 -38h-872q-33 0 -52.5 28.5t-19.5 63.5t19.5 63.5
t52.5 28.5zM447 190v-6h424q121 0 192.5 65.5t71.5 162.5q0 86 -48 127t-116 41q-49 0 -101 -22.5t-104.5 -59.5t-102.5 -81t-92 -87t-73.5 -81t-50.5 -59zM834 939l96 98l99 -98l-99 -96zM720 1103l98 96l100 -96l-100 -98zM609 939l96 98l96 -98l-96 -96z" />
    <glyph glyph-name="uni069F.medi" unicode="&#x69f;" horiz-adv-x="1492" 
d="M1 184h209q65 0 65 60v661l166 137v-630q51 61 110.5 123.5t127 112.5t142.5 82t159 32q73 0 133.5 -25.5t103.5 -70.5t66.5 -106.5t23.5 -133.5q0 -109 -51 -203q10 -16 29.5 -27.5t54.5 -11.5h154v-184h-158q-74 0 -109.5 29.5t-64.5 70.5q-53 -45 -125 -72.5
t-164 -27.5h-872q-33 0 -52.5 28.5t-19.5 63.5t19.5 63.5t52.5 28.5zM443 190v-6h426q121 0 192.5 65.5t71.5 162.5q0 86 -48 127t-116 41q-49 0 -101 -22.5t-105.5 -59.5t-102.5 -81t-92 -87t-75 -81t-50 -59zM834 939l96 98l99 -98l-99 -96zM720 1103l98 96l100 -96
l-100 -98zM609 939l96 98l96 -98l-96 -96z" />
    <glyph glyph-name="uni069F.fina" unicode="&#x69f;" horiz-adv-x="1703" 
d="M92 184h330q67 0 67 60v661l162 137v-630q51 61 111.5 123.5t128 112.5t142.5 82t159 32q74 0 134 -25.5t103 -70.5t66.5 -106.5t23.5 -133.5q0 -104 -51 -203q10 -16 30.5 -27.5t55.5 -11.5h150v-184h-156q-72 0 -108.5 29.5t-63.5 70.5q-53 -45 -126 -72.5t-165 -27.5
h-856zM653 190v-6h426q123 0 193.5 65.5t70.5 162.5q0 86 -46 127t-118 41q-47 0 -99 -22.5t-104.5 -59.5t-102.5 -81t-92 -87t-75.5 -81t-52.5 -59zM1045 941l96 98l99 -98l-99 -96zM931 1105l98 96l100 -96l-100 -98zM820 941l96 98l96 -98l-96 -96z" />
    <glyph glyph-name="uni06A0.init" unicode="&#x6a0;" horiz-adv-x="1132" 
d="M296 184q-43 45 -74 104.5t-31 135.5q0 68 25.5 123t73 95t112 62.5t143.5 22.5q82 0 164 -19.5t142 -39.5l-80 -154q-58 14 -113 25.5t-115 11.5q-59 0 -94 -14.5t-53 -35t-23.5 -44t-5.5 -41.5q0 -35 16.5 -75t52.5 -75t94 -58.5t142 -23.5h359l-94 -184h-936
q-33 0 -52.5 28.5t-19.5 63.5t19.5 63.5t52.5 28.5h295zM554 945l96 98l99 -98l-99 -96zM440 1109l98 96l100 -96l-100 -98zM329 945l96 98l96 -98l-96 -96z" />
    <glyph glyph-name="uni06A0.medi" unicode="&#x6a0;" horiz-adv-x="1073" 
d="M1074 184v-184h-381q-57 0 -95 24.5t-55 57.5q-10 -33 -52 -57.5t-85 -24.5h-405q-33 0 -52.5 28.5t-19.5 63.5t19.5 63.5t52.5 28.5h458q-4 35 -37.5 71t-83 68.5t-106.5 56t-108 34.5l120 274q84 29 166 46.5t170 17.5q78 0 143.5 -17.5t113.5 -50.5t75 -77t27 -97
t-21.5 -101.5t-55.5 -89t-76 -74.5t-81 -61h369zM347 569l-43 -80q35 -4 80 -28.5t86 -59t71.5 -75.5t34.5 -78q19 14 50.5 39.5t61 56.5t52.5 64.5t23 68.5q0 33 -20.5 56.5t-53.5 38t-76 20.5t-86 6q-57 0 -107.5 -8t-72.5 -21zM563 945l96 98l99 -98l-99 -96zM449 1109
l98 96l100 -96l-100 -98zM338 945l96 98l96 -98l-96 -96z" />
    <glyph glyph-name="uni06A0.fina" unicode="&#x6a0;" horiz-adv-x="862" 
d="M366 252q-53 -29 -90 -78t-37 -115q0 -41 14.5 -77.5t42 -66.5t65.5 -47.5t87 -17.5h377l-95 -153h-288q-84 0 -151.5 29.5t-117 80t-76 115t-26.5 131.5q0 58 17.5 106t46 86t68.5 68.5t85 53.5q-41 47 -103.5 90t-156.5 73l57 152q66 41 161 69.5t194 28.5
q82 0 140 -19.5t96 -51t56.5 -70.5t18.5 -78q0 -53 -23.5 -93t-60.5 -70.5t-82 -53t-88 -39.5q14 -22 25.5 -43.5t26 -38t34.5 -28t53 -11.5h226v-184h-232q-55 0 -93 17.5t-64.5 47t-47 68.5t-39.5 82zM190 598q74 -37 131 -81t106 -99q80 26 133.5 61t53.5 86
q0 29 -19.5 46.5t-49.5 26.5t-63.5 12t-60.5 3q-61 0 -122.5 -13t-108.5 -42zM433 943l96 98l99 -98l-99 -96zM319 1107l98 96l100 -96l-100 -98zM208 943l96 98l96 -98l-96 -96z" />
    <glyph glyph-name="uni06A1.init" unicode="&#x6a1;" horiz-adv-x="841" 
d="M1 184h422q92 0 140 30t48 105v136q0 75 -40 132.5t-116 57.5q-57 0 -100 -40t-43 -105q0 -62 40 -91.5t89 -29.5q37 0 74 16.5t61 50.5v-131q-65 -57 -153 -57q-48 0 -92 17.5t-78.5 49t-56 78t-21.5 103.5q0 55 22.5 105.5t60.5 87t89 59t106 22.5q70 0 126.5 -24.5
t96 -67.5t61 -103.5t21.5 -129.5v-131q0 -76 -14 -135.5t-51 -101.5t-102.5 -64.5t-167.5 -22.5h-422q-33 0 -52.5 28.5t-19.5 63.5t19.5 63.5t52.5 28.5z" />
    <glyph glyph-name="uni06A1.medi" unicode="&#x6a1;" horiz-adv-x="942" 
d="M1 184h393q113 0 168 31t55 109v131q0 75 -43 132.5t-119 57.5q-57 0 -100 -40t-43 -105q0 -62 40 -91.5t89 -29.5q37 0 75 16.5t60 50.5v-131q-31 -28 -71.5 -42.5t-81.5 -14.5q-48 0 -92 17.5t-78.5 49t-56 78t-21.5 103.5q0 55 22.5 105.5t60.5 87t89 59t106 22.5
q70 0 126.5 -24.5t96 -67.5t61 -103.5t21.5 -129.5v-117q0 -68 28 -111t106 -43h51v-184h-107q-57 0 -99 27.5t-71 68.5q-10 -14 -27.5 -31.5t-48 -32t-74.5 -23.5t-108 -9h-407q-33 0 -52.5 28.5t-19.5 63.5t19.5 63.5t52.5 28.5z" />
    <glyph glyph-name="uni06A1.fina" unicode="&#x6a1;" horiz-adv-x="1925" 
d="M1396 184q111 0 166 31t55 109v131q0 75 -43 132.5t-119 57.5q-55 0 -100 -40t-45 -105q0 -62 41 -91.5t90 -29.5q39 0 76 16.5t59 50.5v-131q-35 -28 -74.5 -42.5t-76.5 -14.5q-47 0 -92 17.5t-80 49t-55.5 78t-20.5 103.5q0 55 22.5 105.5t60.5 87t88 59t105 22.5
q70 0 127.5 -24.5t97.5 -67.5t61.5 -103.5t21.5 -129.5v-117q0 -68 27.5 -111t103.5 -43h32v-184h-86q-59 0 -101 27.5t-69 68.5q-10 -14 -28.5 -31.5t-49 -32t-75.5 -23.5t-107 -9h-944q-102 0 -177 35t-123 92t-70.5 127t-22.5 141q0 90 30.5 160t86 117t131.5 71.5
t166 24.5q28 0 53 -2t53 -6l-88 -144h-26q-117 0 -181.5 -55t-64.5 -155q0 -27 9 -65t34.5 -73t69.5 -59.5t116 -24.5h936z" />
    <glyph glyph-name="uni06A2.init" unicode="&#x6a2;" horiz-adv-x="841" 
d="M1 184h422q92 0 140 30t48 105v136q0 75 -40 132.5t-116 57.5q-57 0 -100 -40t-43 -105q0 -62 40 -91.5t89 -29.5q37 0 74 16.5t61 50.5v-131q-65 -57 -153 -57q-48 0 -92 17.5t-78.5 49t-56 78t-21.5 103.5q0 55 22.5 105.5t60.5 87t89 59t106 22.5q70 0 126.5 -24.5
t96 -67.5t61 -103.5t21.5 -129.5v-131q0 -76 -14 -135.5t-51 -101.5t-102.5 -64.5t-167.5 -22.5h-422q-33 0 -52.5 28.5t-19.5 63.5t19.5 63.5t52.5 28.5zM465 -106l97 -97l-97 -98l-96 98z" />
    <glyph glyph-name="uni06A2.medi" unicode="&#x6a2;" horiz-adv-x="942" 
d="M1 184h393q113 0 168 31t55 109v131q0 75 -43 132.5t-119 57.5q-57 0 -100 -40t-43 -105q0 -62 40 -91.5t89 -29.5q37 0 75 16.5t60 50.5v-131q-31 -28 -71.5 -42.5t-81.5 -14.5q-48 0 -92 17.5t-78.5 49t-56 78t-21.5 103.5q0 55 22.5 105.5t60.5 87t89 59t106 22.5
q70 0 126.5 -24.5t96 -67.5t61 -103.5t21.5 -129.5v-117q0 -68 28 -111t106 -43h51v-184h-107q-57 0 -99 27.5t-71 68.5q-10 -14 -27.5 -31.5t-48 -32t-74.5 -23.5t-108 -9h-407q-33 0 -52.5 28.5t-19.5 63.5t19.5 63.5t52.5 28.5zM465 -106l97 -97l-97 -98l-96 98z" />
    <glyph glyph-name="uni06A2.fina" unicode="&#x6a2;" horiz-adv-x="1925" 
d="M1396 184q111 0 166 31t55 109v131q0 75 -43 132.5t-119 57.5q-55 0 -100 -40t-45 -105q0 -62 41 -91.5t90 -29.5q39 0 76 16.5t59 50.5v-131q-35 -28 -74.5 -42.5t-76.5 -14.5q-47 0 -92 17.5t-80 49t-55.5 78t-20.5 103.5q0 55 22.5 105.5t60.5 87t88 59t105 22.5
q70 0 127.5 -24.5t97.5 -67.5t61.5 -103.5t21.5 -129.5v-117q0 -68 27.5 -111t103.5 -43h32v-184h-86q-59 0 -101 27.5t-69 68.5q-10 -14 -28.5 -31.5t-49 -32t-75.5 -23.5t-107 -9h-944q-102 0 -177 35t-123 92t-70.5 127t-22.5 141q0 90 30.5 160t86 117t131.5 71.5
t166 24.5q28 0 53 -2t53 -6l-88 -144h-26q-117 0 -181.5 -55t-64.5 -155q0 -27 9 -65t34.5 -73t69.5 -59.5t116 -24.5h936zM1475 -106l97 -97l-97 -98l-96 98z" />
    <glyph glyph-name="uni06A3.init" unicode="&#x6a3;" horiz-adv-x="841" 
d="M1 184h422q92 0 140 30t48 105v136q0 75 -40 132.5t-116 57.5q-57 0 -100 -40t-43 -105q0 -62 40 -91.5t89 -29.5q37 0 74 16.5t61 50.5v-131q-65 -57 -153 -57q-48 0 -92 17.5t-78.5 49t-56 78t-21.5 103.5q0 55 22.5 105.5t60.5 87t89 59t106 22.5q70 0 126.5 -24.5
t96 -67.5t61 -103.5t21.5 -129.5v-131q0 -76 -14 -135.5t-51 -101.5t-102.5 -64.5t-167.5 -22.5h-422q-33 0 -52.5 28.5t-19.5 63.5t19.5 63.5t52.5 28.5zM351 944l100 103l103 -103l-103 -102zM447 -106l97 -97l-97 -98l-96 98z" />
    <glyph glyph-name="uni06A3.medi" unicode="&#x6a3;" horiz-adv-x="942" 
d="M1 184h393q113 0 168 31t55 109v131q0 75 -43 132.5t-119 57.5q-57 0 -100 -40t-43 -105q0 -62 40 -91.5t89 -29.5q37 0 75 16.5t60 50.5v-131q-31 -28 -71.5 -42.5t-81.5 -14.5q-48 0 -92 17.5t-78.5 49t-56 78t-21.5 103.5q0 55 22.5 105.5t60.5 87t89 59t106 22.5
q70 0 126.5 -24.5t96 -67.5t61 -103.5t21.5 -129.5v-117q0 -68 28 -111t106 -43h51v-184h-107q-57 0 -99 27.5t-71 68.5q-10 -14 -27.5 -31.5t-48 -32t-74.5 -23.5t-108 -9h-407q-33 0 -52.5 28.5t-19.5 63.5t19.5 63.5t52.5 28.5zM353 946l102 103l101 -103l-101 -102z
M449 -106l97 -97l-97 -98l-96 98z" />
    <glyph glyph-name="uni06A3.fina" unicode="&#x6a3;" horiz-adv-x="1925" 
d="M1396 184q111 0 166 31t55 109v131q0 75 -43 132.5t-119 57.5q-55 0 -100 -40t-45 -105q0 -62 41 -91.5t90 -29.5q39 0 76 16.5t59 50.5v-131q-35 -28 -74.5 -42.5t-76.5 -14.5q-47 0 -92 17.5t-80 49t-55.5 78t-20.5 103.5q0 55 22.5 105.5t60.5 87t88 59t105 22.5
q70 0 127.5 -24.5t97.5 -67.5t61.5 -103.5t21.5 -129.5v-117q0 -68 27.5 -111t103.5 -43h32v-184h-86q-59 0 -101 27.5t-69 68.5q-10 -14 -28.5 -31.5t-49 -32t-75.5 -23.5t-107 -9h-944q-102 0 -177 35t-123 92t-70.5 127t-22.5 141q0 90 30.5 160t86 117t131.5 71.5
t166 24.5q28 0 53 -2t53 -6l-88 -144h-26q-117 0 -181.5 -55t-64.5 -155q0 -27 9 -65t34.5 -73t69.5 -59.5t116 -24.5h936zM1353 942l100 102l101 -102l-101 -100zM916 -106l97 -97l-97 -98l-96 98z" />
    <glyph glyph-name="uni06A5.init" unicode="&#x6a5;" horiz-adv-x="841" 
d="M1 184h422q92 0 140 30t48 105v136q0 75 -40 132.5t-116 57.5q-57 0 -100 -40t-43 -105q0 -62 40 -91.5t89 -29.5q37 0 74 16.5t61 50.5v-131q-65 -57 -153 -57q-48 0 -92 17.5t-78.5 49t-56 78t-21.5 103.5q0 55 22.5 105.5t60.5 87t89 59t106 22.5q70 0 126.5 -24.5
t96 -67.5t61 -103.5t21.5 -129.5v-131q0 -76 -14 -135.5t-51 -101.5t-102.5 -64.5t-167.5 -22.5h-422q-33 0 -52.5 28.5t-19.5 63.5t19.5 63.5t52.5 28.5zM461 -270l97 -97l-97 -98l-96 98zM345 -106l96 -97l-96 -100l-99 100zM569 -106l100 -97l-100 -100l-96 100z" />
    <glyph glyph-name="uni06A5.medi" unicode="&#x6a5;" horiz-adv-x="942" 
d="M1 184h393q113 0 168 31t55 109v131q0 75 -43 132.5t-119 57.5q-57 0 -100 -40t-43 -105q0 -62 40 -91.5t89 -29.5q37 0 75 16.5t60 50.5v-131q-31 -28 -71.5 -42.5t-81.5 -14.5q-48 0 -92 17.5t-78.5 49t-56 78t-21.5 103.5q0 55 22.5 105.5t60.5 87t89 59t106 22.5
q70 0 126.5 -24.5t96 -67.5t61 -103.5t21.5 -129.5v-117q0 -68 28 -111t106 -43h51v-184h-107q-57 0 -99 27.5t-71 68.5q-10 -14 -27.5 -31.5t-48 -32t-74.5 -23.5t-108 -9h-407q-33 0 -52.5 28.5t-19.5 63.5t19.5 63.5t52.5 28.5zM461 -270l97 -97l-97 -98l-96 98z
M345 -106l96 -97l-96 -100l-99 100zM569 -106l100 -97l-100 -100l-96 100z" />
    <glyph glyph-name="uni06A5.fina" unicode="&#x6a5;" horiz-adv-x="1925" 
d="M1396 184q111 0 166 31t55 109v131q0 75 -43 132.5t-119 57.5q-55 0 -100 -40t-45 -105q0 -62 41 -91.5t90 -29.5q39 0 76 16.5t59 50.5v-131q-35 -28 -74.5 -42.5t-76.5 -14.5q-47 0 -92 17.5t-80 49t-55.5 78t-20.5 103.5q0 55 22.5 105.5t60.5 87t88 59t105 22.5
q70 0 127.5 -24.5t97.5 -67.5t61.5 -103.5t21.5 -129.5v-117q0 -68 27.5 -111t103.5 -43h32v-184h-86q-59 0 -101 27.5t-69 68.5q-10 -14 -28.5 -31.5t-49 -32t-75.5 -23.5t-107 -9h-944q-102 0 -177 35t-123 92t-70.5 127t-22.5 141q0 90 30.5 160t86 117t131.5 71.5
t166 24.5q28 0 53 -2t53 -6l-88 -144h-26q-117 0 -181.5 -55t-64.5 -155q0 -27 9 -65t34.5 -73t69.5 -59.5t116 -24.5h936zM1471 -270l97 -97l-97 -98l-96 98zM1355 -106l96 -97l-96 -100l-99 100zM1579 -106l100 -97l-100 -100l-96 100z" />
    <glyph glyph-name="uni06A7.init" unicode="&#x6a7;" horiz-adv-x="841" 
d="M1 184h422q92 0 140 30t48 105v136q0 75 -40 132.5t-116 57.5q-57 0 -100 -40t-43 -105q0 -62 40 -91.5t89 -29.5q37 0 74 16.5t61 50.5v-131q-65 -57 -153 -57q-48 0 -92 17.5t-78.5 49t-56 78t-21.5 103.5q0 55 22.5 105.5t60.5 87t89 59t106 22.5q70 0 126.5 -24.5
t96 -67.5t61 -103.5t21.5 -129.5v-131q0 -76 -14 -135.5t-51 -101.5t-102.5 -64.5t-167.5 -22.5h-422q-33 0 -52.5 28.5t-19.5 63.5t19.5 63.5t52.5 28.5zM351 944l100 103l103 -103l-103 -102z" />
    <glyph glyph-name="uni06A7.medi" unicode="&#x6a7;" horiz-adv-x="942" 
d="M1 184h393q113 0 168 31t55 109v131q0 75 -43 132.5t-119 57.5q-57 0 -100 -40t-43 -105q0 -62 40 -91.5t89 -29.5q37 0 75 16.5t60 50.5v-131q-31 -28 -71.5 -42.5t-81.5 -14.5q-48 0 -92 17.5t-78.5 49t-56 78t-21.5 103.5q0 55 22.5 105.5t60.5 87t89 59t106 22.5
q70 0 126.5 -24.5t96 -67.5t61 -103.5t21.5 -129.5v-117q0 -68 28 -111t106 -43h51v-184h-107q-57 0 -99 27.5t-71 68.5q-10 -14 -27.5 -31.5t-48 -32t-74.5 -23.5t-108 -9h-407q-33 0 -52.5 28.5t-19.5 63.5t19.5 63.5t52.5 28.5zM353 946l102 103l101 -103l-101 -102z" />
    <glyph glyph-name="uni06A7.fina" unicode="&#x6a7;" horiz-adv-x="1730" 
d="M1730 184v-184h-142q-45 0 -89 17.5t-72 64.5q-43 -100 -134.5 -147.5t-244.5 -47.5h-469q-113 0 -194 27t-136 70t-90 95t-53.5 103t-24.5 96.5t-6 71.5q0 80 27.5 157t82 136t135.5 95t189 36q21 0 40.5 -1t41.5 -3l-88 -143h-18q-62 0 -109 -20.5t-79 -56.5t-47 -81
t-15 -94q0 -41 15 -95.5t52 -102.5t100.5 -81t161.5 -33h515q122 0 178.5 53.5t56.5 157.5v181q0 75 -42 132.5t-116 57.5q-59 0 -103 -40t-44 -105q0 -62 40 -93.5t89 -31.5q39 0 77 16.5t60 50.5v-131q-33 -28 -73 -40.5t-80 -12.5q-48 0 -93 17.5t-79.5 49t-56 78
t-21.5 103.5q0 55 22.5 105.5t61.5 87t90 59t106 22.5q68 0 124 -24.5t96 -67.5t61.5 -103.5t21.5 -129.5v-146q0 -65 43 -95t99 -30h133zM1054 946l103 103l100 -103l-100 -102z" />
    <glyph glyph-name="uni06A8.init" unicode="&#x6a8;" horiz-adv-x="841" 
d="M246 944l99 98l94 -98l-94 -96zM355 1108l98 96l99 -96l-99 -98zM470 944l96 98l98 -98l-98 -96zM1 184h422q92 0 140 30t48 105v136q0 75 -40 132.5t-116 57.5q-57 0 -100 -40t-43 -105q0 -62 40 -91.5t89 -29.5q37 0 74 16.5t61 50.5v-131q-65 -57 -153 -57
q-48 0 -92 17.5t-78.5 49t-56 78t-21.5 103.5q0 55 22.5 105.5t60.5 87t89 59t106 22.5q70 0 126.5 -24.5t96 -67.5t61 -103.5t21.5 -129.5v-131q0 -76 -14 -135.5t-51 -101.5t-102.5 -64.5t-167.5 -22.5h-422q-33 0 -52.5 28.5t-19.5 63.5t19.5 63.5t52.5 28.5z" />
    <glyph glyph-name="uni06A8.medi" unicode="&#x6a8;" horiz-adv-x="942" 
d="M246 944l99 98l94 -98l-94 -96zM355 1108l98 96l99 -96l-99 -98zM470 944l96 98l98 -98l-98 -96zM1 184h393q113 0 168 31t55 109v131q0 75 -43 132.5t-119 57.5q-57 0 -100 -40t-43 -105q0 -62 40 -91.5t89 -29.5q37 0 75 16.5t60 50.5v-131q-31 -28 -71.5 -42.5
t-81.5 -14.5q-48 0 -92 17.5t-78.5 49t-56 78t-21.5 103.5q0 55 22.5 105.5t60.5 87t89 59t106 22.5q70 0 126.5 -24.5t96 -67.5t61 -103.5t21.5 -129.5v-117q0 -68 28 -111t106 -43h51v-184h-107q-57 0 -99 27.5t-71 68.5q-10 -14 -27.5 -31.5t-48 -32t-74.5 -23.5t-108 -9
h-407q-33 0 -52.5 28.5t-19.5 63.5t19.5 63.5t52.5 28.5z" />
    <glyph glyph-name="uni06A8.fina" unicode="&#x6a8;" horiz-adv-x="1730" 
d="M1730 184v-184h-142q-45 0 -89 17.5t-72 64.5q-43 -100 -134.5 -147.5t-244.5 -47.5h-469q-113 0 -194 27t-136 70t-90 95t-53.5 103t-24.5 96.5t-6 71.5q0 80 27.5 157t82 136t135.5 95t189 36q21 0 40.5 -1t41.5 -3l-88 -143h-18q-62 0 -109 -20.5t-79 -56.5t-47 -81
t-15 -94q0 -41 15 -95.5t52 -102.5t100.5 -81t161.5 -33h515q122 0 178.5 53.5t56.5 157.5v181q0 75 -42 132.5t-116 57.5q-59 0 -103 -40t-44 -105q0 -62 40 -93.5t89 -31.5q39 0 77 16.5t60 50.5v-131q-33 -28 -73 -40.5t-80 -12.5q-48 0 -93 17.5t-79.5 49t-56 78
t-21.5 103.5q0 55 22.5 105.5t61.5 87t90 59t106 22.5q68 0 124 -24.5t96 -67.5t61.5 -103.5t21.5 -129.5v-146q0 -65 43 -95t99 -30h133zM947 940l99 98l94 -98l-94 -96zM1056 1104l98 96l99 -96l-99 -98zM1171 940l96 98l98 -98l-98 -96z" />
    <glyph glyph-name="uni06AA.init" unicode="&#x6aa;" horiz-adv-x="974" 
d="M652 317q35 -34 40 -64t5 -81v-100q0 -25 -17.5 -48.5t-54.5 -23.5h-624q-33 0 -52.5 28.5t-19.5 63.5t19.5 63.5t52.5 28.5h534l-364 379q-25 27 -29 42.5t-4 45.5v68q0 41 25.5 59.5t68.5 34.5l682 246l-65 -209l-525 -193z" />
    <glyph glyph-name="uni06AA.medi" unicode="&#x6aa;" horiz-adv-x="950" 
d="M324 657l365 -378q41 -37 79 -66t93 -29h90v-184h-137q-54 0 -101 18.5t-102 79.5q-6 -45 -48 -71.5t-97 -26.5h-465q-33 0 -52.5 28.5t-19.5 63.5t19.5 63.5t52.5 28.5h534l-364 379q-25 27 -29 42.5t-4 45.5v68q0 41 25.5 59.5t68.5 34.5l682 246l-65 -209z" />
    <glyph glyph-name="uni06AA.fina" unicode="&#x6aa;" horiz-adv-x="1687" 
d="M1062 657l367 -378q36 -37 76 -66t96 -29h86v-184h-133q-54 0 -102 18.5t-101 79.5q-6 -45 -49 -71.5t-97 -26.5h-731q-102 0 -176 35t-122 92t-71.5 127t-23.5 141q0 90 30.5 160t85 117t130.5 71.5t168 24.5q57 0 104 -8l-86 -144h-29q-114 0 -179.5 -55t-65.5 -155
q0 -27 9 -65t34.5 -73t69.5 -59.5t116 -24.5h801l-359 379q-26 27 -30 42.5t-4 45.5v68q0 41 26.5 59.5t67.5 34.5l680 246l-66 -209z" />
    <glyph glyph-name="uni06AB.init" unicode="&#x6ab;" horiz-adv-x="1019" 
d="M181 850l770 276l-33 -110l-770 -285zM1 0q-33 0 -52.5 28.5t-19.5 63.5t19.5 63.5t52.5 28.5h592l-437 256q-18 11 -22 27t-4 37v84q0 45 25.5 62.5t66.5 33.5l682 248l-68 -213l-524 -189l399 -213q31 -16 38 -37.5t7 -50.5v-157q0 -25 -15 -48.5t-56 -23.5h-684z" />
    <glyph glyph-name="uni06AB.medi" unicode="&#x6ab;" horiz-adv-x="1032" 
d="M158 850l770 276l-34 -110l-770 -285zM1 0q-33 0 -52.5 28.5t-19.5 63.5t19.5 63.5t52.5 28.5h549l-418 254q-23 13 -27 29t-4 37v84q0 45 24.5 62.5t65.5 33.5l688 248l-65 -213l-525 -184l467 -285q47 -29 92.5 -47.5t106.5 -18.5h78v-184h-72q-59 0 -104 11.5
t-105 45.5l-104 64q-8 -43 -26.5 -67.5t-46.5 -36t-61.5 -14.5t-72.5 -3h-440z" />
    <glyph glyph-name="uni06AB.fina" unicode="&#x6ab;" horiz-adv-x="1808" 
d="M937 850l766 276l-31 -110l-772 -285zM1324 184l-422 258q-20 11 -23 26t-3 36v84q0 45 26.5 62.5t67.5 33.5l686 248l-68 -213l-526 -189l453 -268q32 -20 60 -34.5t53.5 -23.5t52 -14.5t59.5 -5.5h67v-184h-65q-62 0 -106 10t-95 41l-114 70q-11 -43 -29.5 -67.5
t-45 -36t-60 -14.5t-72.5 -3h-746q-102 0 -176 35t-122 92t-71.5 127t-23.5 141q0 90 30.5 160t85 117t130.5 71.5t168 24.5q57 0 104 -8l-86 -144h-29q-114 0 -179.5 -55t-65.5 -155q0 -27 9 -65t34.5 -73t69.5 -59.5t116 -24.5h856z" />
    <glyph glyph-name="uni06AC.init" unicode="&#x6ac;" horiz-adv-x="974" 
d="M652 317q35 -34 40 -64t5 -81v-100q0 -25 -17.5 -48.5t-54.5 -23.5h-624q-33 0 -52.5 28.5t-19.5 63.5t19.5 63.5t52.5 28.5h534l-364 379q-25 27 -29 42.5t-4 45.5v68q0 41 26.5 59.5t67.5 34.5l682 246l-65 -209l-525 -193zM275 1112l98 96l99 -96l-99 -98z" />
    <glyph glyph-name="uni06AC.medi" unicode="&#x6ac;" horiz-adv-x="950" 
d="M324 657l365 -378q41 -37 79 -66t93 -29h90v-184h-137q-54 0 -101 18.5t-102 79.5q-6 -45 -48 -71.5t-97 -26.5h-465q-33 0 -52.5 28.5t-19.5 63.5t19.5 63.5t52.5 28.5h534l-364 379q-25 27 -29 42.5t-4 45.5v68q0 41 26.5 59.5t67.5 34.5l682 246l-65 -209zM275 1112
l98 96l99 -96l-99 -98z" />
    <glyph glyph-name="uni06AC.fina" unicode="&#x6ac;" horiz-adv-x="1464" 
d="M896 0h-442q-94 0 -165 35t-119 92t-71.5 130t-23.5 146q0 101 35 170.5t93 112.5t135 62.5t159 19.5q51 0 100 -6l-88 -146q-10 5 -16 5h-17q-47 0 -90 -12.5t-76.5 -39t-54 -66.5t-20.5 -97q0 -41 15 -81t42 -71t63.5 -50.5t81.5 -19.5h461q92 0 148.5 22.5t56.5 102.5
v598l166 140v-730q0 -22 4 -45.5t15.5 -43t33 -32t56.5 -12.5h86v-184h-86q-64 0 -102 21.5t-75 66.5q-49 -53 -118.5 -69.5t-186.5 -18.5zM835 621v-70q-8 4 -21.5 8t-23.5 4q-51 0 -51 -51q0 -23 15 -34t40 -11h110v-74h-354l43 74h84q-4 14 -8 26.5t-4 28.5q0 45 37 77
t84 32q12 0 23 -3t26 -7zM1082 1198l96 98l98 -98l-98 -96z" />
    <glyph glyph-name="uni06AE.init" unicode="&#x6ae;" horiz-adv-x="974" 
d="M652 317q35 -34 40 -64t5 -81v-100q0 -25 -17.5 -48.5t-54.5 -23.5h-624q-33 0 -52.5 28.5t-19.5 63.5t19.5 63.5t52.5 28.5h534l-364 379q-25 27 -29 42.5t-4 45.5v68q0 41 26.5 59.5t67.5 34.5l682 246l-65 -209l-525 -193zM331 -270l97 -97l-97 -98l-96 98zM215 -106
l96 -97l-96 -100l-99 100zM439 -106l100 -97l-100 -100l-96 100z" />
    <glyph glyph-name="uni06AE.medi" unicode="&#x6ae;" horiz-adv-x="950" 
d="M324 657l365 -378q41 -37 79 -66t93 -29h90v-184h-137q-54 0 -101 18.5t-102 79.5q-6 -45 -48 -71.5t-97 -26.5h-465q-33 0 -52.5 28.5t-19.5 63.5t19.5 63.5t52.5 28.5h534l-364 379q-25 27 -29 42.5t-4 45.5v68q0 41 26.5 59.5t67.5 34.5l682 246l-65 -209zM331 -270
l97 -97l-97 -98l-96 98zM215 -106l96 -97l-96 -100l-99 100zM439 -106l100 -97l-100 -100l-96 100z" />
    <glyph glyph-name="uni06AE.fina" unicode="&#x6ae;" horiz-adv-x="1464" 
d="M896 0h-442q-94 0 -165 35t-119 92t-71.5 130t-23.5 146q0 101 35 170.5t93 112.5t135 62.5t159 19.5q51 0 100 -6l-88 -146q-10 5 -16 5h-17q-47 0 -90 -12.5t-76.5 -39t-54 -66.5t-20.5 -97q0 -41 15 -81t42 -71t63.5 -50.5t81.5 -19.5h461q92 0 148.5 22.5t56.5 102.5
v598l166 140v-730q0 -22 4 -45.5t15.5 -43t33 -32t56.5 -12.5h86v-184h-86q-64 0 -102 21.5t-75 66.5q-49 -53 -118.5 -69.5t-186.5 -18.5zM835 621v-70q-8 4 -21.5 8t-23.5 4q-51 0 -51 -51q0 -23 15 -34t40 -11h110v-74h-354l43 74h84q-4 14 -8 26.5t-4 28.5q0 45 37 77
t84 32q12 0 23 -3t26 -7zM701 -270l97 -97l-97 -98l-96 98zM585 -106l96 -97l-96 -100l-99 100zM809 -106l100 -97l-100 -100l-96 100z" />
    <glyph glyph-name="uni06B0.init" unicode="&#x6b0;" horiz-adv-x="1019" 
d="M181 850l770 276l-33 -110l-770 -285zM467 586l-155 -56l399 -213q31 -16 38 -37.5t7 -50.5v-157q0 -25 -15 -48.5t-56 -23.5h-684q-33 0 -52.5 28.5t-19.5 63.5t19.5 63.5t52.5 28.5h592l-437 256q-18 11 -22 27t-4 37v84q0 45 25.5 62.5t66.5 33.5l682 248l-68 -213
l-105 -38q2 -4 3 -9q9 -28 9 -57q0 -32 -9.5 -61.5t-28 -52t-44.5 -36t-56 -13.5q-32 0 -57.5 13.5t-44 35.5t-28.5 52q-5 16 -8 33zM670 659l-139 -50q0 -18 4 -34q4 -18 13.5 -32t23 -22.5t33.5 -8.5q19 0 33.5 9t23.5 23t13 32t4 37q0 16 -4 34q-2 6 -5 12z" />
    <glyph glyph-name="uni06B0.medi" unicode="&#x6b0;" horiz-adv-x="1032" 
d="M158 850l770 276l-34 -110l-770 -285zM466 597l-177 -62l467 -285q47 -29 92.5 -47.5t106.5 -18.5h78v-184h-72q-59 0 -104 11.5t-105 45.5l-104 64q-8 -43 -26.5 -67.5t-46.5 -36t-61.5 -14.5t-72.5 -3h-440q-33 0 -52.5 28.5t-19.5 63.5t19.5 63.5t52.5 28.5h549
l-418 254q-23 13 -27 29t-4 37v84q0 45 24.5 62.5t65.5 33.5l688 248l-65 -213l-86 -30q3 -8 6 -17q9 -28 9 -57q0 -32 -9.5 -61.5t-28 -52t-44.5 -36t-56 -13.5q-32 0 -57.5 13.5t-44 35.5t-28.5 52q-7 21 -9 44zM667 667l-136 -47v-7q0 -20 4 -38t13.5 -32t23 -22.5
t33.5 -8.5q19 0 33.5 9t23.5 23t13 32t4 37q0 16 -4 34q-3 11 -8 20z" />
    <glyph glyph-name="uni06B0.fina" unicode="&#x6b0;" horiz-adv-x="1808" 
d="M937 850l766 276l-31 -110l-772 -285zM1256 600l-194 -70l453 -268q32 -20 60 -34.5t53.5 -23.5t52 -14.5t59.5 -5.5h67v-184h-65q-62 0 -106 10t-95 41l-114 70q-11 -43 -29.5 -67.5t-45 -36t-60 -14.5t-72.5 -3h-746q-102 0 -176 35t-122 92t-71.5 127t-23.5 141
q0 90 30.5 160t85 117t130.5 71.5t168 24.5q57 0 104 -8l-86 -144h-29q-114 0 -179.5 -55t-65.5 -155q0 -27 9 -65t34.5 -73t69.5 -59.5t116 -24.5h856l-422 258q-20 11 -23 26t-3 36v84q0 45 26.5 62.5t67.5 33.5l686 248l-68 -213l-72 -26q4 -10 8 -21q9 -28 9 -57
q0 -32 -9.5 -61.5t-28 -52t-44.5 -36t-56 -13.5q-32 0 -57.5 13.5t-44 35.5t-28.5 52q-8 22 -9 47zM1455 671l-134 -48v-10q0 -20 4 -38t13.5 -32t23 -22.5t33.5 -8.5q19 0 33.5 9t23.5 23t13 32t4 37q0 16 -4 34q-4 13 -10 24z" />
    <glyph glyph-name="uni06B2.init" unicode="&#x6b2;" horiz-adv-x="1019" 
d="M181 850l770 276l-33 -110l-770 -285zM1 0q-33 0 -52.5 28.5t-19.5 63.5t19.5 63.5t52.5 28.5h592l-437 256q-18 11 -22 27t-4 37v84q0 45 25.5 62.5t66.5 33.5l682 248l-68 -213l-524 -189l399 -213q31 -16 38 -37.5t7 -50.5v-157q0 -25 -15 -48.5t-56 -23.5h-684z
M235 -106l96 -97l-96 -100l-99 100zM459 -106l100 -97l-100 -100l-96 100z" />
    <glyph glyph-name="uni06B2.medi" unicode="&#x6b2;" horiz-adv-x="1032" 
d="M158 850l770 276l-34 -110l-770 -285zM1 0q-33 0 -52.5 28.5t-19.5 63.5t19.5 63.5t52.5 28.5h549l-418 254q-23 13 -27 29t-4 37v84q0 45 24.5 62.5t65.5 33.5l688 248l-65 -213l-525 -184l467 -285q47 -29 92.5 -47.5t106.5 -18.5h78v-184h-72q-59 0 -104 11.5
t-105 45.5l-104 64q-8 -43 -26.5 -67.5t-46.5 -36t-61.5 -14.5t-72.5 -3h-440zM195 -106l96 -97l-96 -100l-99 100zM419 -106l100 -97l-100 -100l-96 100z" />
    <glyph glyph-name="uni06B2.fina" unicode="&#x6b2;" horiz-adv-x="1808" 
d="M937 850l766 276l-31 -110l-772 -285zM1324 184l-422 258q-20 11 -23 26t-3 36v84q0 45 26.5 62.5t67.5 33.5l686 248l-68 -213l-526 -189l453 -268q32 -20 60 -34.5t53.5 -23.5t52 -14.5t59.5 -5.5h67v-184h-65q-62 0 -106 10t-95 41l-114 70q-11 -43 -29.5 -67.5
t-45 -36t-60 -14.5t-72.5 -3h-746q-102 0 -176 35t-122 92t-71.5 127t-23.5 141q0 90 30.5 160t85 117t130.5 71.5t168 24.5q57 0 104 -8l-86 -144h-29q-114 0 -179.5 -55t-65.5 -155q0 -27 9 -65t34.5 -73t69.5 -59.5t116 -24.5h856zM665 -106l96 -97l-96 -100l-99 100z
M889 -106l100 -97l-100 -100l-96 100z" />
    <glyph glyph-name="uni06B4.init" unicode="&#x6b4;" horiz-adv-x="1019" 
d="M181 850l770 276l-33 -110l-770 -285zM1 0q-33 0 -52.5 28.5t-19.5 63.5t19.5 63.5t52.5 28.5h592l-437 256q-18 11 -22 27t-4 37v84q0 45 25.5 62.5t66.5 33.5l682 248l-68 -213l-524 -189l399 -213q31 -16 38 -37.5t7 -50.5v-157q0 -25 -15 -48.5t-56 -23.5h-684z
M166 1110l99 98l94 -98l-94 -96zM275 1274l98 96l99 -96l-99 -98zM390 1110l96 98l98 -98l-98 -96z" />
    <glyph glyph-name="uni06B4.medi" unicode="&#x6b4;" horiz-adv-x="1032" 
d="M158 850l770 276l-34 -110l-770 -285zM1 0q-33 0 -52.5 28.5t-19.5 63.5t19.5 63.5t52.5 28.5h549l-418 254q-23 13 -27 29t-4 37v84q0 45 24.5 62.5t65.5 33.5l688 248l-65 -213l-525 -184l467 -285q47 -29 92.5 -47.5t106.5 -18.5h78v-184h-72q-59 0 -104 11.5
t-105 45.5l-104 64q-8 -43 -26.5 -67.5t-46.5 -36t-61.5 -14.5t-72.5 -3h-440zM166 1110l99 98l94 -98l-94 -96zM275 1274l98 96l99 -96l-99 -98zM390 1110l96 98l98 -98l-98 -96z" />
    <glyph glyph-name="uni06B4.fina" unicode="&#x6b4;" horiz-adv-x="1808" 
d="M937 850l766 276l-31 -110l-772 -285zM1324 184l-422 258q-20 11 -23 26t-3 36v84q0 45 26.5 62.5t67.5 33.5l686 248l-68 -213l-526 -189l453 -268q32 -20 60 -34.5t53.5 -23.5t52 -14.5t59.5 -5.5h67v-184h-65q-62 0 -106 10t-95 41l-114 70q-11 -43 -29.5 -67.5
t-45 -36t-60 -14.5t-72.5 -3h-746q-102 0 -176 35t-122 92t-71.5 127t-23.5 141q0 90 30.5 160t85 117t130.5 71.5t168 24.5q57 0 104 -8l-86 -144h-29q-114 0 -179.5 -55t-65.5 -155q0 -27 9 -65t34.5 -73t69.5 -59.5t116 -24.5h856zM896 1110l99 98l94 -98l-94 -96z
M1005 1274l98 96l99 -96l-99 -98zM1120 1110l96 98l98 -98l-98 -96z" />
    <glyph glyph-name="uni06B5.init" unicode="&#x6b5;" horiz-adv-x="499" 
d="M230 256v649l166 139v-845q0 -93 -46 -146t-145 -53h-204q-33 0 -52.5 28.5t-19.5 63.5t19.5 63.5t52.5 28.5h164q36 0 50.5 20.5t14.5 51.5zM277 1093l-211 224l52 73l157 -118l154 118l58 -73z" />
    <glyph glyph-name="uni06B5.medi" unicode="&#x6b5;" horiz-adv-x="526" 
d="M527 184v-184h-129q-47 0 -80 24.5t-47 57.5q-10 -33 -46 -57.5t-77 -24.5h-147q-33 0 -52.5 28.5t-19.5 63.5t19.5 63.5t52.5 28.5h127q32 0 46.5 20.5t14.5 51.5v651l166 137v-792q0 -68 66 -68h106zM257 1093l-211 224l52 73l157 -118l154 118l58 -73z" />
    <glyph glyph-name="uni06B5.fina" unicode="&#x6b5;" horiz-adv-x="1153" 
d="M526 -303q-100 0 -181 37t-138.5 98.5t-88 141t-30.5 163.5t25.5 154.5t72.5 123t114 82t150 29.5h21q10 0 27 -4l-97 -147q-73 -10 -112 -71.5t-39 -135.5q0 -53 18.5 -105.5t53 -95.5t88 -69.5t124.5 -26.5q50 0 98 16.5t86 51t61.5 89t23.5 130.5v762l168 124v-782
q0 -35 21.5 -56.5t56.5 -21.5h104v-184h-53q-47 0 -81 14.5t-57 36.5q-12 -90 -55 -156.5t-104.5 -110.5t-134 -65.5t-142.5 -21.5zM867 1093l-211 224l52 73l157 -118l154 118l58 -73z" />
    <glyph glyph-name="uni06B6.init" unicode="&#x6b6;" horiz-adv-x="499" 
d="M230 256v649l166 139v-845q0 -93 -46 -146t-145 -53h-204q-33 0 -52.5 28.5t-19.5 63.5t19.5 63.5t52.5 28.5h164q36 0 50.5 20.5t14.5 51.5zM180 1189l96 98l98 -98l-98 -96z" />
    <glyph glyph-name="uni06B6.medi" unicode="&#x6b6;" horiz-adv-x="526" 
d="M527 184v-184h-129q-47 0 -80 24.5t-47 57.5q-10 -33 -46 -57.5t-77 -24.5h-147q-33 0 -52.5 28.5t-19.5 63.5t19.5 63.5t52.5 28.5h127q32 0 46.5 20.5t14.5 51.5v651l166 137v-792q0 -68 66 -68h106zM160 1193l96 98l98 -98l-98 -96z" />
    <glyph glyph-name="uni06B6.fina" unicode="&#x6b6;" horiz-adv-x="1153" 
d="M526 -303q-100 0 -181 37t-138.5 98.5t-88 141t-30.5 163.5t25.5 154.5t72.5 123t114 82t150 29.5h21q10 0 27 -4l-97 -147q-73 -10 -112 -71.5t-39 -135.5q0 -53 18.5 -105.5t53 -95.5t88 -69.5t124.5 -26.5q50 0 98 16.5t86 51t61.5 89t23.5 130.5v762l168 124v-782
q0 -35 21.5 -56.5t56.5 -21.5h104v-184h-53q-47 0 -81 14.5t-57 36.5q-12 -90 -55 -156.5t-104.5 -110.5t-134 -65.5t-142.5 -21.5zM769 1190l96 98l98 -98l-98 -96z" />
    <glyph glyph-name="uni06B7.init" unicode="&#x6b7;" horiz-adv-x="499" 
d="M230 256v649l166 139v-845q0 -93 -46 -146t-145 -53h-204q-33 0 -52.5 28.5t-19.5 63.5t19.5 63.5t52.5 28.5h164q36 0 50.5 20.5t14.5 51.5zM64 1196l99 98l94 -98l-94 -96zM173 1360l98 96l99 -96l-99 -98zM288 1196l96 98l98 -98l-98 -96z" />
    <glyph glyph-name="uni06B7.medi" unicode="&#x6b7;" horiz-adv-x="526" 
d="M527 184v-184h-129q-47 0 -80 24.5t-47 57.5q-10 -33 -46 -57.5t-77 -24.5h-147q-33 0 -52.5 28.5t-19.5 63.5t19.5 63.5t52.5 28.5h127q32 0 46.5 20.5t14.5 51.5v651l166 137v-792q0 -68 66 -68h106zM40 1193l99 98l94 -98l-94 -96zM149 1357l98 96l99 -96l-99 -98z
M264 1193l96 98l98 -98l-98 -96z" />
    <glyph glyph-name="uni06B7.fina" unicode="&#x6b7;" horiz-adv-x="1153" 
d="M526 -303q-100 0 -181 37t-138.5 98.5t-88 141t-30.5 163.5t25.5 154.5t72.5 123t114 82t150 29.5h21q10 0 27 -4l-97 -147q-73 -10 -112 -71.5t-39 -135.5q0 -53 18.5 -105.5t53 -95.5t88 -69.5t124.5 -26.5q50 0 98 16.5t86 51t61.5 89t23.5 130.5v762l168 124v-782
q0 -35 21.5 -56.5t56.5 -21.5h104v-184h-53q-47 0 -81 14.5t-57 36.5q-12 -90 -55 -156.5t-104.5 -110.5t-134 -65.5t-142.5 -21.5zM654 1196l99 98l94 -98l-94 -96zM763 1360l98 96l99 -96l-99 -98zM878 1196l96 98l98 -98l-98 -96z" />
    <glyph glyph-name="uni06B8.init" unicode="&#x6b8;" horiz-adv-x="499" 
d="M230 256v649l166 139v-845q0 -93 -46 -146t-145 -53h-204q-33 0 -52.5 28.5t-19.5 63.5t19.5 63.5t52.5 28.5h164q36 0 50.5 20.5t14.5 51.5zM211 -270l97 -97l-97 -98l-96 98zM95 -106l96 -97l-96 -100l-99 100zM319 -106l100 -97l-100 -100l-96 100z" />
    <glyph glyph-name="uni06B8.medi" unicode="&#x6b8;" horiz-adv-x="526" 
d="M527 184v-184h-129q-47 0 -80 24.5t-47 57.5q-10 -33 -46 -57.5t-77 -24.5h-147q-33 0 -52.5 28.5t-19.5 63.5t19.5 63.5t52.5 28.5h127q32 0 46.5 20.5t14.5 51.5v651l166 137v-792q0 -68 66 -68h106zM221 -270l97 -97l-97 -98l-96 98zM105 -106l96 -97l-96 -100
l-99 100zM329 -106l100 -97l-100 -100l-96 100z" />
    <glyph glyph-name="uni06B8.fina" unicode="&#x6b8;" horiz-adv-x="1153" 
d="M526 -303q-100 0 -181 37t-138.5 98.5t-88 141t-30.5 163.5t25.5 154.5t72.5 123t114 82t150 29.5h21q10 0 27 -4l-97 -147q-73 -10 -112 -71.5t-39 -135.5q0 -53 18.5 -105.5t53 -95.5t88 -69.5t124.5 -26.5q50 0 98 16.5t86 51t61.5 89t23.5 130.5v762l168 124v-782
q0 -35 21.5 -56.5t56.5 -21.5h104v-184h-53q-47 0 -81 14.5t-57 36.5q-12 -90 -55 -156.5t-104.5 -110.5t-134 -65.5t-142.5 -21.5zM562 -567l97 -97l-97 -98l-96 98zM446 -403l96 -97l-96 -100l-99 100zM670 -403l100 -97l-100 -100l-96 100z" />
    <glyph glyph-name="uni06B9.init" unicode="&#x6b9;" horiz-adv-x="573" 
d="M165 938l102 104l100 -104l-100 -96zM1 0q-33 0 -52.5 28.5t-19.5 63.5t19.5 63.5t52.5 28.5h227q70 0 70 56v10q0 4 -2 16l-48 361l154 125l59 -467q5 -27 7 -52.5t2 -52.5q0 -92 -43 -136t-150 -44h-276zM261 -106l97 -97l-97 -98l-96 98z" />
    <glyph glyph-name="uni06B9.medi" unicode="&#x6b9;" horiz-adv-x="522" 
d="M160 938l103 104l100 -104l-100 -96zM523 184v-184h-129q-43 0 -77 25.5t-50 56.5q-8 -33 -44 -57.5t-79 -24.5h-143q-33 0 -52.5 28.5t-19.5 63.5t19.5 63.5t52.5 28.5h121q28 0 46.5 14.5t18.5 45.5v370l164 138v-504q0 -29 17.5 -46.5t43.5 -17.5h111zM256 -106
l97 -97l-97 -98l-96 98z" />
    <glyph glyph-name="uni06B9.fina" unicode="&#x6b9;" horiz-adv-x="1204" 
d="M446 489q-51 -8 -89 -34.5t-63.5 -65.5t-37.5 -86t-12 -96q0 -72 24.5 -134.5t67.5 -108.5t103.5 -73.5t131.5 -27.5q60 0 113 21.5t92 60.5t61.5 89t22.5 109v379l162 125v-352q0 -49 21.5 -80t76.5 -31h84v-184h-69q-93 0 -119 55q-17 -78 -60 -144.5t-103 -113.5
t-133 -73.5t-149 -26.5q-102 0 -191 42t-153.5 110.5t-101.5 157.5t-37 186q0 90 28.5 171.5t83 143t130 98.5t168.5 37h20q10 0 21 -2zM498 938l102 104l101 -104l-101 -96zM594 -422l97 -97l-97 -98l-96 98z" />
    <glyph glyph-name="uni06BC.init" unicode="&#x6bc;" horiz-adv-x="573" 
d="M170 0q-20 0 -33.5 -8.5t-22.5 -23t-13.5 -32t-4.5 -33.5q0 -20 4 -38t13.5 -32t23 -22.5t33.5 -8.5q19 0 33.5 9t23.5 23t13 32t4 37q0 16 -4.5 33.5t-13.5 32t-23 23t-33 8.5zM200 938l100 104l102 -104l-102 -96zM58 0h-57q-33 0 -52.5 28.5t-19.5 63.5t19.5 63.5
t52.5 28.5h227q70 0 70 56v10q0 4 -2 16l-48 361l154 125l59 -467q5 -27 7 -52.5t2 -52.5q0 -92 -43 -136q-42 -43 -147 -44q12 -17 19 -38q9 -28 9 -57q0 -32 -9.5 -61.5t-28 -52t-44.5 -36t-56 -13.5q-32 0 -57.5 13.5t-44 35.5t-28.5 51.5t-10 62.5q0 29 10 57
q7 21 18 38z" />
    <glyph glyph-name="uni06BC.medi" unicode="&#x6bc;" horiz-adv-x="683" 
d="M170 0q-20 0 -33.5 -8.5t-22.5 -23t-13.5 -32t-4.5 -33.5q0 -20 4 -38t13.5 -32t23 -22.5t33.5 -8.5q19 0 33.5 9t23.5 23t13 32t4 37q0 16 -4.5 33.5t-13.5 32t-23 23t-33 8.5zM319 938l102 104l99 -104l-99 -96zM58 0h-57q-33 0 -52.5 28.5t-19.5 63.5t19.5 63.5
t52.5 28.5h281q28 0 46.5 14.5t18.5 45.5v370l164 138v-504q0 -29 17.5 -46.5t43.5 -17.5h111v-184h-129q-43 0 -77 25.5t-50 56.5q-8 -33 -44 -57.5t-79 -24.5h-24q12 -17 19 -38q9 -28 9 -57q0 -32 -9.5 -61.5t-28 -52t-44.5 -36t-56 -13.5q-32 0 -57.5 13.5t-44 35.5
t-28.5 51.5t-10 62.5q0 29 10 57q7 21 18 38z" />
    <glyph glyph-name="uni06BC.fina" unicode="&#x6bc;" horiz-adv-x="1204" 
d="M598 938l102 104l101 -104l-101 -96zM604 -303q-20 0 -33.5 -8.5t-22.5 -23t-13.5 -32t-4.5 -33.5q0 -20 4 -38t13.5 -32t23 -22.5t33.5 -8.5q19 0 33.5 9t23.5 23t13 32t4 37q0 16 -4.5 33.5t-13.5 32t-23 23t-33 8.5zM497 -297q-61 10 -117 36q-89 42 -153.5 110.5
t-101.5 157.5t-37 186q0 90 28.5 171.5t83 143t130 98.5t168.5 37h20q10 0 21 -2l-93 -152q-51 -8 -89 -34.5t-63.5 -65.5t-37.5 -86t-12 -96q0 -72 24.5 -134.5t67.5 -108.5t103.5 -73.5t131.5 -27.5q60 0 113 21.5t92 60.5t61.5 89t22.5 109v379l162 125v-352
q0 -49 21.5 -80t76.5 -31h84v-184h-69q-93 0 -119 55q-17 -78 -60 -144.5t-103 -113.5t-133 -73l-22 -8l8 -8q18 -21 27 -49t9 -57q0 -32 -9.5 -61.5t-28 -52t-44.5 -36t-56 -13.5q-32 0 -57.5 13.5t-44 35.5t-28.5 51.5t-10 62.5q0 29 10 57q8 25 23 44z" />
    <glyph glyph-name="uni06BD.init" unicode="&#x6bd;" horiz-adv-x="573" 
d="M19 944l98 98l99 -98l-99 -96zM134 1108l96 96l96 -96l-96 -98zM248 944l97 98l96 -98l-96 -96zM1 0q-33 0 -52.5 28.5t-19.5 63.5t19.5 63.5t52.5 28.5h227q70 0 70 56v10q0 4 -2 16l-48 361l154 125l59 -467q5 -27 7 -52.5t2 -52.5q0 -92 -43 -136t-150 -44h-276z" />
    <glyph glyph-name="uni06BD.medi" unicode="&#x6bd;" horiz-adv-x="522" 
d="M277 944l96 98l97 -98l-97 -96zM162 1108l97 96l96 -96l-96 -98zM50 944l100 98l96 -98l-96 -96zM523 184v-184h-129q-43 0 -77 25.5t-50 56.5q-8 -33 -44 -57.5t-79 -24.5h-143q-33 0 -52.5 28.5t-19.5 63.5t19.5 63.5t52.5 28.5h121q28 0 46.5 14.5t18.5 45.5v370
l164 138v-504q0 -29 17.5 -46.5t43.5 -17.5h111z" />
    <glyph glyph-name="uni06BD.fina" unicode="&#x6bd;" horiz-adv-x="1204" 
d="M446 489q-51 -8 -89 -34.5t-63.5 -65.5t-37.5 -86t-12 -96q0 -72 24.5 -134.5t67.5 -108.5t103.5 -73.5t131.5 -27.5q60 0 113 21.5t92 60.5t61.5 89t22.5 109v379l162 125v-352q0 -49 21.5 -80t76.5 -31h84v-184h-69q-93 0 -119 55q-17 -78 -60 -144.5t-103 -113.5
t-133 -73.5t-149 -26.5q-102 0 -191 42t-153.5 110.5t-101.5 157.5t-37 186q0 90 28.5 171.5t83 143t130.5 98.5t168 37h20q10 0 21 -2zM374 938l98 98l99 -98l-99 -96zM489 1102l96 96l96 -96l-96 -98zM603 938l97 98l96 -98l-96 -96z" />
    <glyph glyph-name="uni06BF.init" unicode="&#x6bf;" horiz-adv-x="1267" 
d="M812 -10l96 -94l-96 -99l-97 99zM586 -10l97 -94l-97 -99l-96 99zM697 -172l100 -98l-100 -97l-96 97zM1100 264q-16 2 -31.5 4t-31.5 2q-96 0 -186.5 -37.5t-206.5 -95.5q-103 -53 -219.5 -95t-255.5 -42h-168q-33 0 -52.5 28.5t-19.5 63.5t19.5 63.5t52.5 28.5h180
q67 0 142 17.5t148.5 45t142.5 59.5t128 61q-47 14 -89 39.5t-87 51t-94 45t-109 19.5q-117 0 -233 -51l78 219q96 33 170 33q67 0 120.5 -20.5t102.5 -52.5t100 -67.5t114.5 -67.5t144.5 -52.5t192 -20.5h39zM586 1039l97 -98l-97 -96l-96 96z" />
    <glyph glyph-name="uni06BF.medi" unicode="&#x6bf;" horiz-adv-x="1280" 
d="M797 -10l97 -94l-97 -99l-96 99zM572 -10l96 -94l-96 -99l-96 99zM685 -172l98 -98l-98 -97l-99 97zM801 213q-36 -16 -75 -34.5t-82 -41.5q-103 -53 -219.5 -95t-255.5 -42h-168q-33 0 -52.5 28.5t-19.5 63.5t19.5 63.5t52.5 28.5h180q67 0 142 17.5t148.5 45
t142.5 59.5t128 61q-47 14 -89 39.5t-87 51t-94 45t-109 19.5q-117 0 -233 -51l78 219q96 33 170 33q67 0 120.5 -20.5t102.5 -52.5t100 -67.5t114.5 -67.5t144.5 -52.5t192 -20.5h39l-91 -178q-16 2 -31.5 4t-31.5 2q-55 0 -117 -16q17 -47 53.5 -58.5t77.5 -11.5h230v-184
h-222q-45 0 -87 11.5t-76.5 37t-59 66.5t-35.5 98zM571 1039l97 -98l-97 -96l-96 96z" />
    <glyph glyph-name="uni06BF.fina" unicode="&#x6bf;" horiz-adv-x="1044" 
d="M548 232q20 -18 41.5 -35.5t44.5 -40.5l-86 -80l-76 80zM378 232q22 -18 40.5 -35.5t37.5 -40.5l-78 -80l-76 80zM462 122l78 -80l-78 -76l-76 76zM641 395q-190 -8 -295.5 -83.5t-105.5 -211.5q0 -47 20.5 -90t62.5 -75.5t104 -52t148 -19.5h281q-22 -47 -46 -83
t-52 -83h-191q-125 0 -216 32.5t-149.5 85t-87 120t-28.5 139.5q0 92 36 171t105.5 140t171 99t232.5 48q-27 11 -63 29.5t-79 35.5t-90 29.5t-96 12.5q-51 0 -100 -18.5t-90 -59.5l49 193q30 22 68 32.5t77 10.5q86 0 158 -39t137.5 -85t132 -85t142.5 -39h38q17 0 37 4
l-49 -162q-24 4 -51 6t-61 2l26 -141q8 -45 26.5 -59.5t59.5 -14.5h141v-184h-163q-99 0 -151 48t-62 130zM500 1059l97 -98l-97 -96l-96 96z" />
    <glyph glyph-name="uni06C2.fina" unicode="&#x6c2;" horiz-adv-x="950" 
d="M69 -68q12 60 43 156t77 187.5t108.5 157t142.5 65.5q75 0 133.5 -49.5t105.5 -116.5q43 -62 83 -105t98 -43h90v-184h-133q-46 0 -77.5 12.5t-57 33t-45 47t-40.5 54.5q-41 52 -77.5 97t-83.5 45q-41 0 -74 -32t-59.5 -78t-45 -100t-28.5 -97zM522 893v-68
q-21 11 -45 11q-23 0 -39.5 -13.5t-16.5 -38.5q0 -22 16.5 -31.5t39.5 -9.5h116v-75h-291l-67 75h129q-12 21 -12 52q0 47 36.5 78.5t81.5 31.5q27 0 52 -12z" />
    <glyph glyph-name="uni06C3.fina" unicode="&#x6c3;" horiz-adv-x="950" 
d="M440 844l100 102l102 -102l-102 -101zM229 844l102 102l100 -102l-100 -101zM69 -68q12 60 43 156t77 187.5t108.5 157t142.5 65.5q75 0 133.5 -49.5t105.5 -116.5q43 -62 83 -105t98 -43h90v-184h-133q-46 0 -77.5 12.5t-57 33t-45 47t-40.5 54.5q-41 52 -77.5 97
t-83.5 45q-41 0 -74 -32t-59.5 -78t-45 -100t-28.5 -97z" />
    <glyph glyph-name="uni06C4.fina" unicode="&#x6c4;" horiz-adv-x="978" 
d="M331 -130q35 7 71 18q39 11 74 27q-1 8 -3 17q-5 17 -14 31.5t-23 23t-33 8.5q-20 0 -33.5 -8.5t-22.5 -23t-13.5 -32t-4.5 -33.5q0 -14 2 -28zM534 -50q14 10 27 21q53 47 62.5 108.5t9.5 127.5q0 53 -1 104t-1 92q-5 93 -50 160.5t-137 67.5q-49 0 -86 -21.5
t-59.5 -56.5t-33.5 -78t-11 -86t12 -85t34.5 -73.5t57.5 -51t82 -19.5q41 0 77 15t71 54l-2 -143q-37 -28 -70 -40q-9 17 -24 32q-36 34 -86 34t-85 -34q-15 -14 -23 -30q-12 5 -23 11q-58 29 -96 78t-58.5 112.5t-20.5 131.5q0 76 23.5 147.5t69.5 128t110.5 90t148.5 33.5
q82 0 144.5 -27.5t104.5 -75.5t63.5 -113.5t23.5 -141.5v-123q0 -45 33 -80t92 -35h66v-184h-43q-51 0 -90 17.5t-62 58.5l-4 -2q-8 -54 -25.5 -100t-52.5 -89q-45 -53 -110.5 -89t-139 -58.5t-151.5 -31.5t-148 -9h-20l86 160q24 1 48 4q-4 19 -4 39q0 29 9.5 57t27.5 49
t43.5 34.5t59.5 13.5q31 0 57.5 -13.5t44.5 -34.5t27 -49q1 -4 2 -7z" />
    <glyph glyph-name="uni06CA.fina" unicode="&#x6ca;" horiz-adv-x="978" 
d="M585 86q-45 -35 -87 -46t-93 -11q-74 0 -131 29.5t-95 78.5t-58.5 112.5t-20.5 131.5q0 76 23.5 147.5t69.5 128t110.5 90t148.5 33.5q82 0 144.5 -27.5t104.5 -75.5t63.5 -113.5t23.5 -141.5v-123q0 -45 33 -80t92 -35h66v-184h-43q-52 0 -90.5 17.5t-61.5 58.5l-4 -2
q-8 -54 -25.5 -100t-52.5 -89q-45 -53 -110.5 -89t-139 -58.5t-151.5 -31.5t-148 -9h-20l86 160q90 4 183 30.5t159 83.5q53 47 62 108.5t9 127.5q0 53 -1 104t-1 92q-4 93 -49 160.5t-137 67.5q-49 0 -86 -21.5t-59.5 -56.5t-33.5 -78t-11 -86t12 -85t34.5 -73.5t57.5 -51
t82 -19.5q41 0 77 15t70 54zM234 993l98 98l99 -98l-99 -96zM463 993l97 98l96 -98l-96 -96z" />
    <glyph glyph-name="uni06CD.fina" unicode="&#x6cd;" horiz-adv-x="1875" 
d="M611 0q-90 0 -160.5 31.5t-122 87t-78 128t-26.5 154.5q0 49 8 92q-46 -11 -100 -11h-17q-29 0 -48 1l39 151h13q17 -2 35 -2q97 0 196 58q116 67 187 76l-38 -165q-28 -13 -50 -32q-65 -57 -65 -157q0 -29 10 -68t35.5 -76t69.5 -62.5t110 -25.5h531q43 0 61.5 15.5
t18.5 42.5q0 10 -4 23t-19 42l-67 125q-21 31 -28 61.5t-7 59.5q0 49 22.5 89t57.5 68.5t80 44t90 15.5q72 0 128 -35t91 -100l164 -340q14 -29 25.5 -49.5t25.5 -32.5t33.5 -18.5t48.5 -6.5h14v-184q-47 0 -81.5 3t-63.5 17.5t-53.5 45t-48.5 84.5l-207 411
q-17 29 -37.5 39t-40.5 10q-33 0 -58.5 -20.5t-25.5 -54.5q0 -11 4 -23t14 -33l64 -117q31 -57 42 -97t11 -75q0 -86 -63.5 -138t-194.5 -52h-525z" />
    <glyph glyph-name="uni06CE.init" unicode="&#x6ce;" horiz-adv-x="573" 
d="M5 -199l100 101l100 -101l-100 -102zM216 -199l100 101l102 -101l-102 -102zM1 0q-33 0 -52.5 28.5t-19.5 63.5t19.5 63.5t52.5 28.5h227q70 0 70 56v10t-2 16l-48 361l154 125l59 -467q5 -27 7 -52.5t2 -52.5q0 -92 -43 -136t-150 -44h-276zM312 897l-211 224l52 73
l157 -118l154 118l58 -73z" />
    <glyph glyph-name="uni06CE.medi" unicode="&#x6ce;" horiz-adv-x="522" 
d="M273 -199l102 101l103 -101l-103 -102zM60 -199l102 101l103 -101l-103 -102zM523 184v-184h-129q-43 0 -77 25.5t-50 56.5q-8 -33 -44 -57.5t-79 -24.5h-143q-33 0 -52.5 28.5t-19.5 63.5t19.5 63.5t52.5 28.5h121q28 0 46.5 14.5t18.5 45.5v370l164 138v-504
q0 -29 17.5 -46.5t43.5 -17.5h111zM252 897l-211 224l52 73l157 -118l154 118l58 -73z" />
    <glyph glyph-name="uni06CE.fina" unicode="&#x6ce;" horiz-adv-x="1875" 
d="M1140 180q43 0 61.5 15.5t18.5 42.5q0 10 -4 23t-19 42l-67 125q-21 31 -28 61.5t-7 59.5q0 49 22.5 89t57.5 68.5t80 44t90 15.5q72 0 128 -35t91 -100l164 -340q14 -29 25.5 -49.5t25.5 -32.5t33.5 -18.5t48.5 -6.5h14v-184q-47 0 -81.5 3t-63.5 17.5t-53.5 45
t-48.5 84.5l-207 411q-17 29 -37.5 39t-40.5 10q-33 0 -58.5 -20.5t-25.5 -54.5q0 -11 4 -23t14 -33l64 -117q31 -57 42 -97t11 -75q0 -86 -63.5 -138t-194.5 -52h-682q-90 0 -160.5 31.5t-122 87t-78 128t-26.5 154.5q0 179 108.5 276t313.5 97q24 0 48 -1t48 -3l-88 -145
q-10 2 -15 2h-14q-110 0 -175.5 -55.5t-65.5 -159.5q0 -29 10 -68t35.5 -76t69.5 -62.5t110 -25.5h688zM602 897l-211 224l52 73l157 -118l154 118l58 -73z" />
    <glyph glyph-name="uni06CF.fina" unicode="&#x6cf;" horiz-adv-x="978" 
d="M585 86q-45 -35 -87 -46t-93 -11q-74 0 -131 29.5t-95 78.5t-58.5 112.5t-20.5 131.5q0 76 23.5 147.5t69.5 128t110.5 90t148.5 33.5q82 0 144.5 -27.5t104.5 -75.5t63.5 -113.5t23.5 -141.5v-123q0 -45 33 -80t92 -35h66v-184h-43q-52 0 -90.5 17.5t-61.5 58.5l-4 -2
q-8 -54 -25.5 -100t-52.5 -89q-45 -53 -110.5 -89t-139 -58.5t-151.5 -31.5t-148 -9h-20l86 160q90 4 183 30.5t159 83.5q53 47 62 108.5t9 127.5q0 53 -1 104t-1 92q-4 93 -49 160.5t-137 67.5q-49 0 -86 -21.5t-59.5 -56.5t-33.5 -78t-11 -86t12 -85t34.5 -73.5t57.5 -51
t82 -19.5q41 0 77 15t70 54zM346 993l98 98l99 -98l-99 -96z" />
    <glyph glyph-name="uni06D1.init" unicode="&#x6d1;" horiz-adv-x="573" 
d="M212 -270l96 -97l-96 -98l-97 98zM99 -106l96 -97l-96 -100l-98 100zM322 -106l101 -97l-101 -100l-96 100zM1 0q-33 0 -52.5 28.5t-19.5 63.5t19.5 63.5t52.5 28.5h227q70 0 70 56v10q0 4 -2 16l-47 361l153 125l60 -467q4 -27 6 -52.5t2 -52.5q0 -92 -43 -136t-150 -44
h-276z" />
    <glyph glyph-name="uni06D1.medi" unicode="&#x6d1;" horiz-adv-x="522" 
d="M378 -106l98 -97l-98 -100l-99 100zM150 -106l98 -97l-98 -100l-96 100zM265 -270l96 -97l-96 -98l-96 98zM523 184v-184h-129q-43 0 -77 25.5t-50 56.5q-8 -33 -44 -57.5t-79 -24.5h-143q-33 0 -52.5 28.5t-19.5 63.5t19.5 63.5t52.5 28.5h121q28 0 46.5 14.5t18.5 45.5
v370l164 138v-504q0 -29 17.5 -46.5t43.5 -17.5h111z" />
    <glyph glyph-name="uni06D1.fina" unicode="&#x6d1;" horiz-adv-x="1875" 
d="M1140 180q43 0 61.5 15.5t18.5 42.5q0 10 -4 23t-19 42l-67 125q-21 31 -28 61.5t-7 59.5q0 49 22.5 89t57.5 68.5t80 44t90 15.5q72 0 128 -35t91 -100l164 -340q14 -29 25.5 -49.5t25.5 -32.5t33.5 -18.5t48.5 -6.5h14v-184q-47 0 -81.5 3t-63.5 17.5t-53.5 45
t-48.5 84.5l-207 411q-17 29 -37.5 39t-40.5 10q-33 0 -58.5 -20.5t-25.5 -54.5q0 -11 4 -23t14 -33l64 -117q31 -57 42 -97t11 -75q0 -86 -63.5 -138t-194.5 -52h-682q-90 0 -160.5 31.5t-122 87t-78 128t-26.5 154.5q0 179 108.5 276t313.5 97q24 0 48 -1t48 -3l-88 -145
q-10 2 -15 2h-14q-110 0 -175.5 -55.5t-65.5 -159.5q0 -29 10 -68t35.5 -76t69.5 -62.5t110 -25.5h688zM841 -270l96 -97l-96 -98l-97 98zM728 -106l96 -97l-96 -100l-98 100zM951 -106l101 -97l-101 -100l-96 100z" />
    <glyph glyph-name="uni06D5.fina" unicode="&#x6d5;" horiz-adv-x="1116" 
d="M673 274v320q-22 -25 -54 -42t-68.5 -28.5t-74.5 -18.5t-75 -16q-37 -10 -68.5 -21t-56.5 -29.5t-39 -46t-14 -68.5t16.5 -72t44 -52.5t63 -32.5t74.5 -11q60 0 117 25.5t98 76.5l-6 -135q-61 -53 -124.5 -73.5t-129.5 -20.5q-61 0 -117.5 19.5t-99.5 58t-69.5 93
t-26.5 126.5q0 94 47 152.5t109 88.5q55 29 121.5 42.5t129 28.5t118 41t89.5 75h166v-432q0 -72 33 -105t111 -33h129v-184h-140q-137 0 -220 70.5t-83 203.5z" />
    <glyph glyph-name="uni06EE.fina" unicode="&#x6ee;" horiz-adv-x="1013" 
d="M86 281l129 86q10 -97 53 -140t154 -43h250l-56 473l152 125q14 -123 28.5 -262t32.5 -262q9 -41 30.5 -57.5t68.5 -16.5h86v-184h-97q-51 0 -98 20.5t-57 67.5q-4 -22 -17.5 -39.5t-34 -28t-42 -15.5t-39.5 -5h-267q-55 0 -105 23.5t-88 61.5t-60.5 89t-22.5 107z
M857 968l-58 -73l-154 118l-157 -118l-52 73l211 224z" />
    <glyph glyph-name="uni06EF.fina" unicode="&#x6ef;" horiz-adv-x="841" 
d="M460 629l152 123l59 -529q0 -12 1 -22.5t1 -16.5h168v-184h-186q-48 -135 -197.5 -218t-400.5 -83h-25l86 158q61 2 130 20.5t128 49t98 75.5t39 104q0 33 -1 55.5t-5 57.5zM737 968l-58 -73l-154 118l-157 -118l-52 73l211 224z" />
    <glyph glyph-name="uni06FA.init" unicode="&#x6fa;" horiz-adv-x="1421" 
d="M849 944l96 98l98 -98l-98 -96zM734 1108l96 96l98 -96l-98 -98zM621 944l99 98l96 -98l-96 -96zM337 82q-11 -33 -46.5 -57.5t-70.5 -24.5h-219q-33 0 -52.5 28.5t-19.5 63.5t19.5 63.5t52.5 28.5h186q66 0 66 64v332l170 135v-469q0 -29 16 -45.5t45 -16.5h201
q26 0 42.5 15.5t16.5 44.5v366l168 131v-493q0 -29 17.5 -46.5t46.5 -17.5h118q31 0 47.5 14.5t16.5 37.5q0 4 -4 14l-43 364l151 127l53 -438q5 -29 7 -44t2 -30q0 -96 -55.5 -162.5t-186.5 -66.5h-119q-45 0 -78.5 22.5t-48.5 59.5q-14 -37 -50 -59.5t-77 -22.5h-243
q-41 0 -76 20.5t-53 61.5zM831 -106l97 -97l-97 -98l-96 98z" />
    <glyph glyph-name="uni06FA.medi" unicode="&#x6fa;" horiz-adv-x="1497" 
d="M834 944l96 98l99 -98l-99 -96zM720 1108l98 96l100 -96l-100 -98zM609 944l96 98l96 -98l-96 -96zM322 82q-10 -33 -47 -57.5t-72 -24.5h-202q-33 0 -52.5 28.5t-19.5 63.5t19.5 63.5t52.5 28.5h172q67 0 67 64v332l166 135v-469q0 -29 16.5 -45.5t47.5 -16.5h202
q25 0 41.5 15.5t16.5 44.5v366l168 131v-493q0 -29 18.5 -46.5t44.5 -17.5h119q29 0 47.5 14.5t18.5 37.5v5q0 3 -5 19l-47 354l154 127l63 -471q7 -47 25 -66.5t51 -19.5h111v-184h-115q-37 0 -74 16.5t-55 53.5q-22 -27 -70.5 -48.5t-115.5 -21.5h-117q-47 0 -80 22.5
t-49 59.5q-12 -37 -48 -59.5t-77 -22.5h-244q-41 0 -75.5 20.5t-55.5 61.5zM821 -106l97 -97l-97 -98l-96 98z" />
    <glyph glyph-name="uni06FA.fina" unicode="&#x6fa;" horiz-adv-x="2125" 
d="M1450 944l94 98l98 -98l-98 -96zM1335 1108l96 96l99 -96l-99 -98zM1223 944l98 98l94 -98l-94 -96zM537 643l-97 -145q-51 -9 -89 -35.5t-62.5 -65.5t-36.5 -86t-12 -94q0 -72 24.5 -135.5t67.5 -111.5t102.5 -76.5t130.5 -28.5q58 0 111 21.5t94 59.5t65.5 92t24.5 120
v368l158 125v-393q0 -27 16.5 -52.5t57.5 -25.5h206q27 0 41.5 16.5t14.5 43.5v370l170 131v-495q0 -29 18.5 -47.5t44.5 -18.5h119q31 0 47 15.5t16 37.5q0 5 -4 15l-43 366l152 127l63 -467q9 -45 26 -67.5t60 -22.5h103v-184h-115q-45 0 -83 16.5t-54 53.5
q-33 -35 -66.5 -52.5t-89.5 -17.5h-143q-45 0 -79 22.5t-44 59.5q-16 -37 -52 -59.5t-77 -22.5h-188q-48 0 -77.5 12.5t-51.5 34.5q-21 -76 -63 -138.5t-100.5 -106.5t-129 -68.5t-146.5 -24.5q-98 0 -186 40t-152.5 108.5t-102.5 157.5t-38 188q0 86 28.5 166t82 141
t128 98t169.5 37h20q10 0 21 -2zM1433 -106l97 -97l-97 -98l-96 98z" />
    <glyph glyph-name="uni06FB.init" unicode="&#x6fb;" horiz-adv-x="1519" 
d="M734 938l100 104l103 -104l-103 -96zM267 82q-8 -33 -46 -57.5t-71 -24.5h-149q-33 0 -52.5 28.5t-19.5 63.5t19.5 63.5t52.5 28.5h127q34 0 48.5 19.5t14.5 44.5v274l160 129v-372q0 -68 51 -76q66 82 142.5 179t164.5 182t186.5 141.5t207.5 56.5q86 0 148 -28.5
t102 -77t59.5 -110t19.5 -124.5q0 -78 -26.5 -152.5t-81 -135t-134 -97.5t-184.5 -37h-598q-63 0 -94 24.5t-47 57.5zM564 184h450q48 0 93 18.5t79.5 50.5t55 75t20.5 94q0 78 -48 121t-122 43q-69 0 -144 -43t-145.5 -105.5t-133 -132t-105.5 -121.5zM830 -106l97 -97
l-97 -98l-96 98z" />
    <glyph glyph-name="uni06FB.medi" unicode="&#x6fb;" horiz-adv-x="1630" 
d="M742 938l102 104l103 -104l-103 -96zM267 82q-8 -33 -46 -57.5t-71 -24.5h-149q-33 0 -52.5 28.5t-19.5 63.5t19.5 63.5t52.5 28.5h127q34 0 48.5 19.5t14.5 44.5v274l160 129v-372q0 -68 51 -76q66 82 142.5 179t164.5 182t186.5 141.5t207.5 56.5q86 0 148 -28.5
t102 -77t59.5 -110t19.5 -124.5q0 -100 -47 -195q10 -18 36 -30.5t67 -12.5h143v-184h-137q-78 0 -126 30.5t-75 71.5q-53 -47 -124 -74.5t-163 -27.5h-598q-63 0 -94 24.5t-47 57.5zM564 184h450q48 0 93 18.5t79.5 50.5t55 75t20.5 94q0 78 -48 121t-122 43
q-69 0 -144 -43t-145.5 -105.5t-133 -132t-105.5 -121.5zM838 -106l97 -97l-97 -98l-96 98z" />
    <glyph glyph-name="uni06FB.fina" unicode="&#x6fb;" horiz-adv-x="2265" 
d="M1386 938l101 104l102 -104l-102 -96zM1014 78q-17 -88 -61 -156.5t-104.5 -116t-133 -72t-148.5 -24.5q-98 0 -186 40t-152.5 108.5t-102.5 157.5t-38 188q0 86 28.5 166t82 141t128 98t169.5 37h20q10 0 21 -2l-97 -145q-51 -9 -89 -35.5t-62.5 -65.5t-36.5 -86
t-12 -94q0 -72 24.5 -135.5t67.5 -111.5t102.5 -76.5t130.5 -28.5q58 0 111 21.5t94 59.5t65.5 92t24.5 120v368l158 125v-381q0 -57 45 -67q65 82 142 179t164 182t185.5 141.5t206.5 56.5q86 0 149.5 -28.5t104.5 -75t60.5 -108t19.5 -124.5q0 -53 -12.5 -102.5
t-34.5 -96.5q6 -18 28.5 -30.5t49.5 -12.5h139v-184h-129q-66 0 -110 29.5t-72 72.5q-54 -47 -122.5 -74.5t-158.5 -27.5h-485q-74 0 -113 21.5t-61 56.5zM1225 184h460q50 0 95 18.5t80.5 50.5t56 75t20.5 94q0 78 -55 121t-127 43t-146.5 -43t-145 -105.5t-132 -132
t-106.5 -121.5zM1482 -106l97 -97l-97 -98l-96 98z" />
    <glyph glyph-name="uni06FC.init" unicode="&#x6fc;" horiz-adv-x="1132" 
d="M439 938l100 104l105 -104l-105 -96zM296 184q-43 45 -74 104.5t-31 135.5q0 68 25.5 123t73 95t112 62.5t143.5 22.5q82 0 164 -19.5t142 -39.5l-80 -154q-58 14 -113 25.5t-115 11.5q-59 0 -94 -14.5t-53 -35t-23.5 -44t-5.5 -41.5q0 -35 16.5 -75t52.5 -75t94 -58.5
t142 -23.5h359l-94 -184h-936q-33 0 -52.5 28.5t-19.5 63.5t19.5 63.5t52.5 28.5h295zM535 -106l97 -97l-97 -98l-96 98z" />
    <glyph glyph-name="uni06FC.medi" unicode="&#x6fc;" horiz-adv-x="1073" 
d="M453 938l101 104l102 -104l-102 -96zM1074 184v-184h-381q-57 0 -95 24.5t-55 57.5q-10 -33 -52 -57.5t-85 -24.5h-405q-33 0 -52.5 28.5t-19.5 63.5t19.5 63.5t52.5 28.5h458q-4 35 -37.5 71t-83 68.5t-106.5 56t-108 34.5l120 274q84 29 166 46.5t170 17.5
q78 0 143.5 -17.5t113.5 -50.5t75 -77t27 -97t-21.5 -101.5t-55.5 -89t-76 -74.5t-81 -61h369zM347 569l-43 -80q35 -4 80 -28.5t86 -59t71.5 -75.5t34.5 -78q19 14 50.5 39.5t61 56.5t52.5 64.5t23 68.5q0 33 -20.5 56.5t-53.5 38t-76 20.5t-86 6q-57 0 -107.5 -8
t-72.5 -21zM549 -106l97 -97l-97 -98l-96 98z" />
    <glyph glyph-name="uni06FC.fina" unicode="&#x6fc;" horiz-adv-x="862" 
d="M317 938l100 104l105 -104l-105 -96zM366 252q-53 -29 -90 -78t-37 -115q0 -41 14.5 -77.5t42 -66.5t65.5 -47.5t87 -17.5h377l-95 -153h-288q-84 0 -151.5 29.5t-117 80t-76 115t-26.5 131.5q0 58 17.5 106t46 86t68.5 68.5t85 53.5q-41 47 -103.5 90t-156.5 73l57 152
q66 41 161 69.5t194 28.5q82 0 140 -19.5t96 -51t56.5 -70.5t18.5 -78q0 -53 -23.5 -93t-60.5 -70.5t-82 -53t-88 -39.5q14 -22 25.5 -43.5t26 -38t34.5 -28t53 -11.5h226v-184h-232q-55 0 -93 17.5t-64.5 47t-47 68.5t-39.5 82zM190 598q74 -37 131 -81t106 -99
q80 26 133.5 61t53.5 86q0 29 -19.5 46.5t-49.5 26.5t-63.5 12t-60.5 3q-61 0 -122.5 -13t-108.5 -42zM314 -16l83 87l88 -87l-88 -80z" />
    <glyph glyph-name="uni06FF.init" unicode="&#x6ff;" horiz-adv-x="1157" 
d="M267 606v146q59 8 110.5 13t100.5 5q153 0 267 -48t187.5 -121t110.5 -160t37 -162q0 -142 -81 -219.5t-208 -77.5q-57 0 -114.5 17t-110.5 52q-57 -35 -106.5 -43t-118.5 -8h-340q-33 0 -52.5 28.5t-19.5 63.5t19.5 63.5t52.5 28.5h434q82 0 109.5 34t27.5 77
q0 45 -30.5 84t-82.5 39q-51 0 -79.5 -33t-28.5 -76q0 -49 31 -94h-134q-24 51 -24 104q0 46 16.5 86.5t47 71.5t72.5 48.5t91 17.5q51 0 97.5 -19.5t81 -53.5t55 -79t20.5 -98q0 -68 -35 -125q35 -14 65 -22.5t54 -8.5q68 0 102.5 41t34.5 101q0 55 -33.5 117.5t-95 114.5
t-149.5 86t-199 34q-82 0 -182 -25zM655 967l-58 -73l-154 118l-157 -118l-52 73l211 224z" />
    <glyph glyph-name="uni06FF.medi" unicode="&#x6ff;" horiz-adv-x="1122" 
d="M431 272q-47 -16 -85 -24t-85 -12q16 26 20 72t4 112q0 139 37 229t91.5 142.5t117 73t115.5 20.5q63 0 119.5 -22.5t96.5 -64.5t63.5 -98.5t23.5 -124.5q0 -86 -36 -162.5t-94.5 -141t-132 -113.5t-149.5 -80l-2 -2l-131 -252q-16 -31 -16 -62q0 -47 32.5 -76.5
t73.5 -29.5q31 0 61.5 19.5t51.5 60.5l72 160q30 65 64 118.5t80 91t106.5 58t142.5 20.5h51v-184h-66q-86 0 -131 -38t-75 -103l-82 -174q-49 -105 -124 -156t-161 -51q-55 0 -104.5 22.5t-87 60.5t-60 88t-22.5 103q0 25 5 50.5t17 47.5l80 168q-59 -10 -121.5 -14
t-128.5 -4h-61q-33 0 -52.5 28.5t-19.5 63.5t19.5 63.5t52.5 28.5h84q180 0 309 36t211 90.5t120 120t38 124.5q0 66 -39 110t-93 44q-45 0 -79.5 -21.5t-57 -59.5t-35 -87t-12.5 -105q0 -51 -2 -94t-14 -70zM832 1066l-58 -73l-154 118l-157 -118l-52 73l211 224z" />
    <glyph glyph-name="uni06FF.fina" unicode="&#x6ff;" horiz-adv-x="1239" 
d="M747 709q-45 0 -79.5 -21.5t-57 -59.5t-35 -87t-12.5 -105q0 -51 -2 -94t-14 -70q-48 -16 -85.5 -24t-84.5 -12q16 26 20 72t4 112q0 139 37 229t91 142.5t116.5 73t116.5 20.5q65 0 120.5 -22.5t95.5 -64.5t62.5 -98.5t22.5 -124.5q0 -86 -36 -162.5t-94.5 -141
t-132 -113.5t-149.5 -80l-4 -2l-125 -252q-10 -17 -14 -32t-4 -30q0 -47 31.5 -76.5t74.5 -29.5q31 0 61.5 19.5t47.5 60.5l75 160q31 65 65 118.5t80 91t106.5 58t142.5 20.5h51v-184h-66q-86 0 -131 -38t-74 -103l-84 -174q-51 -105 -124.5 -156t-161.5 -51
q-56 0 -105 22.5t-87 60.5t-60.5 88t-22.5 103q0 25 7.5 50.5t17.5 47.5l80 168q-31 -6 -61.5 -10t-72.5 -6t-99 -2h-142l150 184q180 0 309 36t210 90.5t118.5 120t37.5 124.5q0 66 -38.5 110t-92.5 44zM952 1066l-58 -73l-154 118l-157 -118l-52 73l211 224z" />
    <glyph glyph-name="uniFB50" unicode="&#x671;" horiz-adv-x="374" arabic-form="isolated" 
d="M104 918l166 126v-1044h-166v918zM131 1167q14 25 34.5 54.5t44 55.5t52.5 42t61 16q54 0 81.5 -32.5t27.5 -77.5q0 -51 -38 -86t-91 -35h-113q-37 0 -58.5 -8.5t-32.5 -18.5t-14 -21.5t-3 -19.5l-76 -30q0 59 29.5 106t95.5 55zM201 1169h102q27 0 43 14.5t16 41.5
q0 41 -41 41q-34 0 -63 -29t-57 -68z" />
    <glyph glyph-name="uniFB51" unicode="&#x671;" horiz-adv-x="497" arabic-form="final" 
d="M137 1167q14 25 33.5 54.5t44 55.5t53.5 42t63 16q54 0 79.5 -32.5t25.5 -77.5q0 -51 -37 -86t-90 -35h-115q-37 0 -57.5 -8.5t-31.5 -18.5t-14 -21.5t-3 -19.5l-74 -30q0 59 28.5 106t94.5 55zM204 1169h103q59 0 59 56q0 41 -41 41q-35 0 -62.5 -29t-58.5 -68zM270 256
q0 -31 15.5 -51.5t50.5 -20.5h161v-184h-209q-90 0 -137 55.5t-47 145.5v710l166 138v-793z" />
    <glyph glyph-name="uniFB52" unicode="&#x67b;" horiz-adv-x="1787" arabic-form="isolated" 
d="M464 0q-102 0 -177 35t-123 92t-70.5 127t-22.5 141q0 90 30.5 160t86 117t131.5 71.5t166 24.5q28 0 53 -2t53 -6l-88 -144h-26q-117 0 -181.5 -55t-64.5 -155q0 -27 9 -65t34.5 -73t69.5 -59.5t116 -24.5h983q70 0 70 56q0 6 -1 10t-1 16l-47 361l151 125l60 -467
q4 -27 7 -52.5t3 -52.5q0 -92 -44 -136t-149 -44h-1028zM937 -107l97 -98l-97 -96l-96 96zM937 -314l97 -98l-97 -96l-96 96z" />
    <glyph glyph-name="uniFB53" unicode="&#x67b;" horiz-adv-x="1892" arabic-form="final" 
d="M464 0q-102 0 -177 35t-123 92t-70.5 127t-22.5 141q0 90 30.5 160t86 117t131.5 71.5t166 24.5q28 0 53 -2t53 -6l-88 -144h-26q-117 0 -181.5 -55t-64.5 -155q0 -27 9 -65t34.5 -73t69.5 -59.5t116 -24.5h983q70 0 70 56q0 6 -1 10t-1 16l-47 361l151 125l45 -373
q4 -33 11.5 -68t23.5 -62.5t45 -46t76 -18.5h76v-184h-107q-59 0 -94 24.5t-47 57.5q-14 -37 -51 -59.5t-92 -22.5h-1037zM937 -107l97 -98l-97 -96l-96 96zM937 -314l97 -98l-97 -96l-96 96z" />
    <glyph glyph-name="uniFB54" unicode="&#x67b;" horiz-adv-x="573" arabic-form="initial" 
d="M1 0q-33 0 -52.5 28.5t-19.5 63.5t19.5 63.5t52.5 28.5h227q70 0 70 56v10q0 4 -2 16l-48 361l154 125l59 -467q5 -27 7 -52.5t2 -52.5q0 -92 -43 -136t-150 -44h-276zM217 -107l97 -98l-97 -96l-96 96zM217 -314l97 -98l-97 -96l-96 96z" />
    <glyph glyph-name="uniFB55" unicode="&#x67b;" horiz-adv-x="522" arabic-form="medial" 
d="M523 184v-184h-129q-43 0 -77 25.5t-50 56.5q-8 -33 -44 -57.5t-79 -24.5h-143q-33 0 -52.5 28.5t-19.5 63.5t19.5 63.5t52.5 28.5h121q28 0 46.5 14.5t18.5 45.5v370l164 138v-504q0 -29 17.5 -46.5t43.5 -17.5h111zM197 -107l97 -98l-97 -96l-96 96zM197 -314l97 -98
l-97 -96l-96 96z" />
    <glyph glyph-name="uniFB56" unicode="&#x67e;" horiz-adv-x="1787" arabic-form="isolated" 
d="M1048 -106l100 -97l-100 -100l-96 100zM825 -106l94 -97l-94 -100l-99 100zM935 -270l99 -97l-99 -98l-94 98zM464 0q-102 0 -177 35t-123 92t-70.5 127t-22.5 141q0 90 30.5 160t86 117t131.5 71.5t166 24.5q28 0 53 -2t53 -6l-88 -144h-26q-117 0 -181.5 -55
t-64.5 -155q0 -27 9 -65t34.5 -73t69.5 -59.5t116 -24.5h983q70 0 70 56q0 6 -1 10t-1 16l-47 361l151 125l60 -467q4 -27 7 -52.5t3 -52.5q0 -92 -44 -136t-149 -44h-1028z" />
    <glyph glyph-name="uniFB57" unicode="&#x67e;" horiz-adv-x="1892" arabic-form="final" 
d="M935 -270l99 -97l-99 -98l-94 98zM825 -106l94 -97l-94 -100l-99 100zM1048 -106l100 -97l-100 -100l-96 100zM464 0q-102 0 -177 35t-123 92t-70.5 127t-22.5 141q0 90 30.5 160t86 117t131.5 71.5t166 24.5q28 0 53 -2t53 -6l-88 -144h-26q-117 0 -181.5 -55
t-64.5 -155q0 -27 9 -65t34.5 -73t69.5 -59.5t116 -24.5h983q70 0 70 56q0 6 -1 10t-1 16l-47 361l151 125l45 -373q4 -33 11.5 -68t23.5 -62.5t45 -46t76 -18.5h76v-184h-107q-59 0 -94 24.5t-47 57.5q-14 -37 -51 -59.5t-92 -22.5h-1037z" />
    <glyph glyph-name="uniFB58" unicode="&#x67e;" horiz-adv-x="573" arabic-form="initial" 
d="M211 -270l97 -97l-97 -98l-96 98zM99 -106l96 -97l-96 -100l-99 100zM322 -106l100 -97l-100 -100l-96 100zM1 0q-33 0 -52.5 28.5t-19.5 63.5t19.5 63.5t52.5 28.5h227q70 0 70 56v10q0 4 -2 16l-48 361l154 125l59 -467q5 -27 7 -52.5t2 -52.5q0 -92 -43 -136t-150 -44
h-276z" />
    <glyph glyph-name="uniFB59" unicode="&#x67e;" horiz-adv-x="522" arabic-form="medial" 
d="M348 -106l98 -97l-98 -100l-99 100zM120 -106l98 -97l-98 -100l-96 100zM235 -270l96 -97l-96 -98l-96 98zM523 184v-184h-129q-43 0 -77 25.5t-50 56.5q-8 -33 -44 -57.5t-79 -24.5h-143q-33 0 -52.5 28.5t-19.5 63.5t19.5 63.5t52.5 28.5h121q28 0 46.5 14.5t18.5 45.5
v370l164 138v-504q0 -29 17.5 -46.5t43.5 -17.5h111z" />
    <glyph glyph-name="uniFB5A" unicode="&#x680;" horiz-adv-x="1787" arabic-form="isolated" 
d="M1051 -308l100 -97l-100 -100l-96 100zM828 -308l94 -97l-94 -100l-99 100zM464 0q-102 0 -177 35t-123 92t-70.5 127t-22.5 141q0 90 30.5 160t86 117t131.5 71.5t166 24.5q28 0 53 -2t53 -6l-88 -144h-26q-117 0 -181.5 -55t-64.5 -155q0 -27 9 -65t34.5 -73
t69.5 -59.5t116 -24.5h983q70 0 70 56q0 6 -1 10t-1 16l-47 361l151 125l60 -467q4 -27 7 -52.5t3 -52.5q0 -92 -44 -136t-149 -44h-1028zM1051 -106l100 -97l-100 -100l-96 100zM828 -106l94 -97l-94 -100l-99 100z" />
    <glyph glyph-name="uniFB5B" unicode="&#x680;" horiz-adv-x="1892" arabic-form="final" 
d="M464 0q-102 0 -177 35t-123 92t-70.5 127t-22.5 141q0 90 30.5 160t86 117t131.5 71.5t166 24.5q28 0 53 -2t53 -6l-88 -144h-26q-117 0 -181.5 -55t-64.5 -155q0 -27 9 -65t34.5 -73t69.5 -59.5t116 -24.5h983q70 0 70 56q0 6 -1 10t-1 16l-47 361l151 125l45 -373
q4 -33 11.5 -68t23.5 -62.5t45 -46t76 -18.5h76v-184h-107q-59 0 -94 24.5t-47 57.5q-14 -37 -51 -59.5t-92 -22.5h-1037zM1047 -308l100 -97l-100 -100l-96 100zM824 -308l94 -97l-94 -100l-99 100zM1047 -106l100 -97l-100 -100l-96 100zM824 -106l94 -97l-94 -100
l-99 100z" />
    <glyph glyph-name="uniFB5C" unicode="&#x680;" horiz-adv-x="573" arabic-form="initial" 
d="M1 0q-33 0 -52.5 28.5t-19.5 63.5t19.5 63.5t52.5 28.5h227q70 0 70 56v10q0 4 -2 16l-48 361l154 125l59 -467q5 -27 7 -52.5t2 -52.5q0 -92 -43 -136t-150 -44h-276zM324 -311l100 -97l-100 -100l-96 100zM101 -311l94 -97l-94 -100l-99 100zM324 -109l100 -97
l-100 -100l-96 100zM101 -109l94 -97l-94 -100l-99 100z" />
    <glyph glyph-name="uniFB5D" unicode="&#x680;" horiz-adv-x="522" arabic-form="medial" 
d="M523 184v-184h-129q-43 0 -77 25.5t-50 56.5q-8 -33 -44 -57.5t-79 -24.5h-143q-33 0 -52.5 28.5t-19.5 63.5t19.5 63.5t52.5 28.5h121q28 0 46.5 14.5t18.5 45.5v370l164 138v-504q0 -29 17.5 -46.5t43.5 -17.5h111zM374 -311l100 -97l-100 -100l-96 100zM151 -311
l94 -97l-94 -100l-99 100zM374 -109l100 -97l-100 -100l-96 100zM151 -109l94 -97l-94 -100l-99 100z" />
    <glyph glyph-name="uniFB5E" unicode="&#x67a;" horiz-adv-x="1787" arabic-form="isolated" 
d="M1024 1249l97 -98l-97 -96l-96 96zM464 0q-102 0 -177 35t-123 92t-70.5 127t-22.5 141q0 90 30.5 160t86 117t131.5 71.5t166 24.5q28 0 53 -2t53 -6l-88 -144h-26q-117 0 -181.5 -55t-64.5 -155q0 -27 9 -65t34.5 -73t69.5 -59.5t116 -24.5h983q70 0 70 56q0 6 -1 10
t-1 16l-47 361l151 125l60 -467q4 -27 7 -52.5t3 -52.5q0 -92 -44 -136t-149 -44h-1028zM1024 1042l97 -98l-97 -96l-96 96z" />
    <glyph glyph-name="uniFB5F" unicode="&#x67a;" horiz-adv-x="1892" arabic-form="final" 
d="M464 0q-102 0 -177 35t-123 92t-70.5 127t-22.5 141q0 90 30.5 160t86 117t131.5 71.5t166 24.5q28 0 53 -2t53 -6l-88 -144h-26q-117 0 -181.5 -55t-64.5 -155q0 -27 9 -65t34.5 -73t69.5 -59.5t116 -24.5h983q70 0 70 56q0 6 -1 10t-1 16l-47 361l151 125l45 -373
q4 -33 11.5 -68t23.5 -62.5t45 -46t76 -18.5h76v-184h-107q-59 0 -94 24.5t-47 57.5q-14 -37 -51 -59.5t-92 -22.5h-1037zM1024 1249l97 -98l-97 -96l-96 96zM1024 1042l97 -98l-97 -96l-96 96z" />
    <glyph glyph-name="uniFB60" unicode="&#x67a;" horiz-adv-x="573" arabic-form="initial" 
d="M1 0q-33 0 -52.5 28.5t-19.5 63.5t19.5 63.5t52.5 28.5h227q70 0 70 56v10q0 4 -2 16l-48 361l154 125l59 -467q5 -27 7 -52.5t2 -52.5q0 -92 -43 -136t-150 -44h-276zM309 1249l97 -98l-97 -96l-96 96zM309 1042l97 -98l-97 -96l-96 96z" />
    <glyph glyph-name="uniFB61" unicode="&#x67a;" horiz-adv-x="522" arabic-form="medial" 
d="M523 184v-184h-129q-43 0 -77 25.5t-50 56.5q-8 -33 -44 -57.5t-79 -24.5h-143q-33 0 -52.5 28.5t-19.5 63.5t19.5 63.5t52.5 28.5h121q28 0 46.5 14.5t18.5 45.5v370l164 138v-504q0 -29 17.5 -46.5t43.5 -17.5h111zM259 1249l97 -98l-97 -96l-96 96zM259 1042l97 -98
l-97 -96l-96 96z" />
    <glyph glyph-name="uniFB62" unicode="&#x67f;" horiz-adv-x="1787" arabic-form="isolated" 
d="M464 0q-102 0 -177 35t-123 92t-70.5 127t-22.5 141q0 90 30.5 160t86 117t131.5 71.5t166 24.5q28 0 53 -2t53 -6l-88 -144h-26q-117 0 -181.5 -55t-64.5 -155q0 -27 9 -65t34.5 -73t69.5 -59.5t116 -24.5h983q70 0 70 56q0 6 -1 10t-1 16l-47 361l151 125l60 -467
q4 -27 7 -52.5t3 -52.5q0 -92 -44 -136t-149 -44h-1028zM1140 1046l100 -97l-100 -100l-96 100zM917 1046l94 -97l-94 -100l-99 100zM1140 1248l100 -97l-100 -100l-96 100zM917 1248l94 -97l-94 -100l-99 100z" />
    <glyph glyph-name="uniFB63" unicode="&#x67f;" horiz-adv-x="1892" arabic-form="final" 
d="M464 0q-102 0 -177 35t-123 92t-70.5 127t-22.5 141q0 90 30.5 160t86 117t131.5 71.5t166 24.5q28 0 53 -2t53 -6l-88 -144h-26q-117 0 -181.5 -55t-64.5 -155q0 -27 9 -65t34.5 -73t69.5 -59.5t116 -24.5h983q70 0 70 56q0 6 -1 10t-1 16l-47 361l151 125l45 -373
q4 -33 11.5 -68t23.5 -62.5t45 -46t76 -18.5h76v-184h-107q-59 0 -94 24.5t-47 57.5q-14 -37 -51 -59.5t-92 -22.5h-1037zM1141 1049l100 -97l-100 -100l-96 100zM918 1049l94 -97l-94 -100l-99 100zM1141 1251l100 -97l-100 -100l-96 100zM918 1251l94 -97l-94 -100
l-99 100z" />
    <glyph glyph-name="uniFB64" unicode="&#x67f;" horiz-adv-x="573" arabic-form="initial" 
d="M1 0q-33 0 -52.5 28.5t-19.5 63.5t19.5 63.5t52.5 28.5h227q70 0 70 56v10q0 4 -2 16l-48 361l154 125l59 -467q5 -27 7 -52.5t2 -52.5q0 -92 -43 -136t-150 -44h-276zM377 1046l100 -97l-100 -100l-96 100zM154 1046l94 -97l-94 -100l-99 100zM377 1248l100 -97
l-100 -100l-96 100zM154 1248l94 -97l-94 -100l-99 100z" />
    <glyph glyph-name="uniFB65" unicode="&#x67f;" horiz-adv-x="522" arabic-form="medial" 
d="M523 184v-184h-129q-43 0 -77 25.5t-50 56.5q-8 -33 -44 -57.5t-79 -24.5h-143q-33 0 -52.5 28.5t-19.5 63.5t19.5 63.5t52.5 28.5h121q28 0 46.5 14.5t18.5 45.5v370l164 138v-504q0 -29 17.5 -46.5t43.5 -17.5h111zM377 1046l100 -97l-100 -100l-96 100zM154 1046
l94 -97l-94 -100l-99 100zM377 1248l100 -97l-100 -100l-96 100zM154 1248l94 -97l-94 -100l-99 100z" />
    <glyph glyph-name="uniFB66" unicode="&#x679;" horiz-adv-x="1787" arabic-form="isolated" 
d="M464 0q-102 0 -177 35t-123 92t-70.5 127t-22.5 141q0 90 30.5 160t86 117t131.5 71.5t166 24.5q28 0 53 -2t53 -6l-88 -144h-26q-117 0 -181.5 -55t-64.5 -155q0 -27 9 -65t34.5 -73t69.5 -59.5t116 -24.5h983q70 0 70 56q0 6 -1 10t-1 16l-47 361l151 125l60 -467
q4 -27 7 -52.5t3 -52.5q0 -92 -44 -136t-149 -44h-1028zM917 983v207l67 57v-198q35 34 77 67t95 33q52 0 82.5 -32t30.5 -81q0 -59 -41 -102t-104 -43h-258l-62 72h92q11 0 16 3t5 17zM989 963h135q26 0 51.5 19t25.5 48q0 45 -51 45q-24 0 -45.5 -11t-42 -27.5t-39 -36
t-34.5 -37.5z" />
    <glyph glyph-name="uniFB67" unicode="&#x679;" horiz-adv-x="1892" arabic-form="final" 
d="M464 0q-102 0 -177 35t-123 92t-70.5 127t-22.5 141q0 90 30.5 160t86 117t131.5 71.5t166 24.5q28 0 53 -2t53 -6l-88 -144h-26q-117 0 -181.5 -55t-64.5 -155q0 -27 9 -65t34.5 -73t69.5 -59.5t116 -24.5h983q70 0 70 56q0 6 -1 10t-1 16l-47 361l151 125l45 -373
q4 -33 11.5 -68t23.5 -62.5t45 -46t76 -18.5h76v-184h-107q-59 0 -94 24.5t-47 57.5q-14 -37 -51 -59.5t-92 -22.5h-1037zM917 983v207l67 57v-198q35 34 77 67t95 33q52 0 82.5 -32t30.5 -81q0 -59 -41 -102t-104 -43h-258l-62 72h92q11 0 16 3t5 17zM989 963h135
q26 0 51.5 19t25.5 48q0 45 -51 45q-24 0 -45.5 -11t-42 -27.5t-39 -36t-34.5 -37.5z" />
    <glyph glyph-name="uniFB68" unicode="&#x679;" horiz-adv-x="573" arabic-form="initial" 
d="M1 0q-33 0 -52.5 28.5t-19.5 63.5t19.5 63.5t52.5 28.5h227q70 0 70 56v10t-2 16l-48 361l154 125l59 -467q5 -27 7 -52.5t2 -52.5q0 -92 -43 -136t-150 -44h-276zM138 983v207l67 57v-198q35 34 78 67t97 33q51 0 81.5 -32t30.5 -81q0 -59 -42 -102t-103 -43h-260
l-60 72h90q11 0 16 3t5 17zM210 963h137q24 0 50 19t26 48q0 45 -54 45q-22 0 -44.5 -11t-43 -27.5t-39 -36t-32.5 -37.5z" />
    <glyph glyph-name="uniFB69" unicode="&#x679;" horiz-adv-x="522" arabic-form="medial" 
d="M523 184v-184h-129q-43 0 -77 25.5t-50 56.5q-8 -33 -44 -57.5t-79 -24.5h-143q-33 0 -52.5 28.5t-19.5 63.5t19.5 63.5t52.5 28.5h121q28 0 46.5 14.5t18.5 45.5v370l164 138v-504q0 -29 17.5 -46.5t43.5 -17.5h111zM146 983v207l68 57v-198q32 34 74 67t96 33
q51 0 82.5 -32t31.5 -81q0 -59 -42 -102t-105 -43h-258l-62 72h93q10 0 16 3t6 17zM216 963h135q29 0 53.5 19t24.5 48q0 45 -51 45q-25 0 -47.5 -11t-42 -27.5t-38 -36t-34.5 -37.5z" />
    <glyph glyph-name="uniFB6A" unicode="&#x6a4;" horiz-adv-x="1845" arabic-form="isolated" 
d="M1251 944l98 98l94 -98l-94 -96zM1365 1108l95 96l98 -96l-98 -98zM1474 944l98 98l98 -98l-98 -96zM1425 0h-961q-102 0 -177 35t-123 92t-70.5 127t-22.5 141q0 90 30.5 160t86 117t131.5 71.5t166 24.5q28 0 53 -2t53 -6l-88 -144h-26q-117 0 -181.5 -55t-64.5 -155
q0 -27 9 -65t34.5 -73t69.5 -59.5t116 -24.5h965q92 0 141 30t49 105v136q0 75 -41 132.5t-117 57.5q-57 0 -101 -40t-44 -105q0 -62 41 -91.5t90 -29.5q37 0 74 16.5t59 50.5v-131q-35 -28 -72.5 -42.5t-76.5 -14.5q-47 0 -92 17.5t-80 49t-56.5 78t-21.5 103.5
q0 55 22.5 105.5t60.5 87t88 59t105 22.5q70 0 127.5 -24.5t97.5 -67.5t61.5 -103.5t21.5 -129.5v-131q0 -76 -14.5 -135.5t-52.5 -101.5t-103.5 -64.5t-165.5 -22.5z" />
    <glyph glyph-name="uniFB6B" unicode="&#x6a4;" horiz-adv-x="1925" arabic-form="final" 
d="M1253 944l98 98l94 -98l-94 -96zM1365 1108l99 96l94 -96l-94 -98zM1478 944l94 98l101 -98l-101 -96zM1396 184q111 0 166 31t55 109v131q0 75 -43 132.5t-119 57.5q-55 0 -100 -40t-45 -105q0 -62 41 -91.5t90 -29.5q39 0 76 16.5t59 50.5v-131q-35 -28 -74.5 -42.5
t-76.5 -14.5q-47 0 -92 17.5t-80 49t-55.5 78t-20.5 103.5q0 55 22.5 105.5t60.5 87t88 59t105 22.5q70 0 127.5 -24.5t97.5 -67.5t61.5 -103.5t21.5 -129.5v-117q0 -68 27.5 -111t103.5 -43h32v-184h-86q-59 0 -101 27.5t-69 68.5q-10 -14 -28.5 -31.5t-49 -32t-75.5 -23.5
t-107 -9h-944q-102 0 -177 35t-123 92t-70.5 127t-22.5 141q0 90 30.5 160t86 117t131.5 71.5t166 24.5q28 0 53 -2t53 -6l-88 -144h-26q-117 0 -181.5 -55t-64.5 -155q0 -27 9 -65t34.5 -73t69.5 -59.5t116 -24.5h936z" />
    <glyph glyph-name="uniFB6C" unicode="&#x6a4;" horiz-adv-x="841" arabic-form="initial" 
d="M246 944l99 98l94 -98l-94 -96zM355 1108l98 96l99 -96l-99 -98zM470 944l96 98l98 -98l-98 -96zM1 184h422q92 0 140 30t48 105v136q0 75 -40 132.5t-116 57.5q-57 0 -100 -40t-43 -105q0 -62 40 -91.5t89 -29.5q37 0 74 16.5t61 50.5v-131q-65 -57 -153 -57
q-48 0 -92 17.5t-78.5 49t-56 78t-21.5 103.5q0 55 22.5 105.5t60.5 87t89 59t106 22.5q70 0 126.5 -24.5t96 -67.5t61 -103.5t21.5 -129.5v-131q0 -76 -14 -135.5t-51 -101.5t-102.5 -64.5t-167.5 -22.5h-422q-33 0 -52.5 28.5t-19.5 63.5t19.5 63.5t52.5 28.5z" />
    <glyph glyph-name="uniFB6D" unicode="&#x6a4;" horiz-adv-x="942" arabic-form="medial" 
d="M246 944l99 98l94 -98l-94 -96zM355 1108l98 96l99 -96l-99 -98zM470 944l96 98l98 -98l-98 -96zM1 184h393q113 0 168 31t55 109v131q0 75 -43 132.5t-119 57.5q-57 0 -100 -40t-43 -105q0 -62 40 -91.5t89 -29.5q37 0 75 16.5t60 50.5v-131q-31 -28 -71.5 -42.5
t-81.5 -14.5q-48 0 -92 17.5t-78.5 49t-56 78t-21.5 103.5q0 55 22.5 105.5t60.5 87t89 59t106 22.5q70 0 126.5 -24.5t96 -67.5t61 -103.5t21.5 -129.5v-117q0 -68 28 -111t106 -43h51v-184h-107q-57 0 -99 27.5t-71 68.5q-10 -14 -27.5 -31.5t-48 -32t-74.5 -23.5t-108 -9
h-407q-33 0 -52.5 28.5t-19.5 63.5t19.5 63.5t52.5 28.5z" />
    <glyph glyph-name="uniFB6E" unicode="&#x6a6;" horiz-adv-x="1845" arabic-form="isolated" 
d="M1425 0h-961q-102 0 -177 35t-123 92t-70.5 127t-22.5 141q0 90 30.5 160t86 117t131.5 71.5t166 24.5q28 0 53 -2t53 -6l-88 -144h-26q-117 0 -181.5 -55t-64.5 -155q0 -27 9 -65t34.5 -73t69.5 -59.5t116 -24.5h965q92 0 141 30t49 105v136q0 75 -41 132.5t-117 57.5
q-57 0 -101 -40t-44 -105q0 -62 41 -91.5t90 -29.5q37 0 74 16.5t59 50.5v-131q-35 -28 -72.5 -42.5t-76.5 -14.5q-47 0 -92 17.5t-80 49t-56.5 78t-21.5 103.5q0 55 22.5 105.5t60.5 87t88 59t105 22.5q70 0 127.5 -24.5t97.5 -67.5t61.5 -103.5t21.5 -129.5v-131
q0 -76 -14.5 -135.5t-52.5 -101.5t-103.5 -64.5t-165.5 -22.5zM1575 1044l100 -97l-100 -100l-96 100zM1352 1044l94 -97l-94 -100l-99 100zM1575 1246l100 -97l-100 -100l-96 100zM1352 1246l94 -97l-94 -100l-99 100z" />
    <glyph glyph-name="uniFB6F" unicode="&#x6a6;" horiz-adv-x="1925" arabic-form="final" 
d="M1396 184q111 0 166 31t55 109v131q0 75 -43 132.5t-119 57.5q-55 0 -100 -40t-45 -105q0 -62 41 -91.5t90 -29.5q39 0 76 16.5t59 50.5v-131q-35 -28 -74.5 -42.5t-76.5 -14.5q-47 0 -92 17.5t-80 49t-55.5 78t-20.5 103.5q0 55 22.5 105.5t60.5 87t88 59t105 22.5
q70 0 127.5 -24.5t97.5 -67.5t61.5 -103.5t21.5 -129.5v-117q0 -68 27.5 -111t103.5 -43h32v-184h-86q-59 0 -101 27.5t-69 68.5q-10 -14 -28.5 -31.5t-49 -32t-75.5 -23.5t-107 -9h-944q-102 0 -177 35t-123 92t-70.5 127t-22.5 141q0 90 30.5 160t86 117t131.5 71.5
t166 24.5q28 0 53 -2t53 -6l-88 -144h-26q-117 0 -181.5 -55t-64.5 -155q0 -27 9 -65t34.5 -73t69.5 -59.5t116 -24.5h936zM1572 1047l100 -97l-100 -100l-96 100zM1349 1047l94 -97l-94 -100l-99 100zM1572 1249l100 -97l-100 -100l-96 100zM1349 1249l94 -97l-94 -100
l-99 100z" />
    <glyph glyph-name="uniFB70" unicode="&#x6a6;" horiz-adv-x="841" arabic-form="initial" 
d="M1 184h422q92 0 140 30t48 105v136q0 75 -40 132.5t-116 57.5q-57 0 -100 -40t-43 -105q0 -62 40 -91.5t89 -29.5q37 0 74 16.5t61 50.5v-131q-65 -57 -153 -57q-48 0 -92 17.5t-78.5 49t-56 78t-21.5 103.5q0 55 22.5 105.5t60.5 87t89 59t106 22.5q70 0 126.5 -24.5
t96 -67.5t61 -103.5t21.5 -129.5v-131q0 -76 -14 -135.5t-51 -101.5t-102.5 -64.5t-167.5 -22.5h-422q-33 0 -52.5 28.5t-19.5 63.5t19.5 63.5t52.5 28.5zM565 1047l100 -97l-100 -100l-96 100zM342 1047l94 -97l-94 -100l-99 100zM565 1249l100 -97l-100 -100l-96 100z
M342 1249l94 -97l-94 -100l-99 100z" />
    <glyph glyph-name="uniFB71" unicode="&#x6a6;" horiz-adv-x="942" arabic-form="medial" 
d="M1 184h393q113 0 168 31t55 109v131q0 75 -43 132.5t-119 57.5q-57 0 -100 -40t-43 -105q0 -62 40 -91.5t89 -29.5q37 0 75 16.5t60 50.5v-131q-31 -28 -71.5 -42.5t-81.5 -14.5q-48 0 -92 17.5t-78.5 49t-56 78t-21.5 103.5q0 55 22.5 105.5t60.5 87t89 59t106 22.5
q70 0 126.5 -24.5t96 -67.5t61 -103.5t21.5 -129.5v-117q0 -68 28 -111t106 -43h51v-184h-107q-57 0 -99 27.5t-71 68.5q-10 -14 -27.5 -31.5t-48 -32t-74.5 -23.5t-108 -9h-407q-33 0 -52.5 28.5t-19.5 63.5t19.5 63.5t52.5 28.5zM565 1047l100 -97l-100 -100l-96 100z
M342 1047l94 -97l-94 -100l-99 100zM565 1249l100 -97l-100 -100l-96 100zM342 1249l94 -97l-94 -100l-99 100z" />
    <glyph glyph-name="uniFB72" unicode="&#x684;" horiz-adv-x="976" arabic-form="isolated" 
d="M594 532q-27 11 -57.5 29.5t-65.5 35.5t-77 29.5t-91 12.5q-51 0 -100 -18.5t-90 -59.5l49 193q30 22 68 32.5t77 10.5q86 0 151.5 -39t125 -85t120 -85t136.5 -39h38q17 0 37 4l-49 -162q-37 4 -77.5 6t-104.5 2q-100 0 -182 -18.5t-140.5 -55t-90 -93t-31.5 -132.5
q0 -47 20.5 -90t62.5 -75.5t104 -52t148 -19.5h281q-22 -47 -46 -83t-52 -83h-191q-125 0 -216 32.5t-149.5 85t-87 120t-28.5 139.5q0 92 36 171t102.5 139t160.5 99t209 49zM616 320l97 -98l-97 -96l-96 96zM616 113l97 -98l-97 -96l-96 96z" />
    <glyph glyph-name="uniFB73" unicode="&#x684;" horiz-adv-x="1007" arabic-form="final" 
d="M604 395q-166 -14 -265 -86.5t-99 -208.5q0 -47 20.5 -90t62.5 -75.5t104 -52t148 -19.5h281q-22 -47 -46 -83t-52 -83h-191q-125 0 -216 32.5t-149.5 85t-87 120t-28.5 139.5q0 92 36 171t102.5 139t160.5 99t209 49q-27 11 -57.5 29.5t-65.5 35.5t-77 29.5t-91 12.5
q-51 0 -100 -18.5t-90 -59.5l49 193q30 22 68 32.5t77 10.5q86 0 151.5 -39t125 -85t120 -85t136.5 -39h38q17 0 37 4l-49 -162q-24 4 -51 6t-61 2l26 -141q8 -45 26.5 -59.5t59.5 -14.5h142v-184h-164q-99 0 -151 48t-62 130zM485 320l97 -98l-97 -96l-96 96zM485 113
l97 -98l-97 -96l-96 96z" />
    <glyph glyph-name="uniFB74" unicode="&#x684;" horiz-adv-x="1267" arabic-form="initial" 
d="M1100 264q-16 2 -31.5 4t-31.5 2q-96 0 -186.5 -37.5t-206.5 -95.5q-103 -53 -219.5 -95t-255.5 -42h-168q-33 0 -52.5 28.5t-19.5 63.5t19.5 63.5t52.5 28.5h180q67 0 142 17.5t148.5 45t142.5 59.5t128 61q-47 14 -89 39.5t-87 51t-94 45t-109 19.5q-117 0 -233 -51
l78 219q96 33 170 33q67 0 120.5 -20.5t102.5 -52.5t100 -67.5t114.5 -67.5t144.5 -52.5t192 -20.5h39zM763 -3l97 -98l-97 -96l-96 96zM763 -210l97 -98l-97 -96l-96 96z" />
    <glyph glyph-name="uniFB75" unicode="&#x684;" horiz-adv-x="1280" arabic-form="medial" 
d="M801 213q-36 -16 -75 -34.5t-82 -41.5q-103 -53 -219.5 -95t-255.5 -42h-168q-33 0 -52.5 28.5t-19.5 63.5t19.5 63.5t52.5 28.5h180q67 0 142 17.5t148.5 45t142.5 59.5t128 61q-47 14 -89 39.5t-87 51t-94 45t-109 19.5q-117 0 -233 -51l78 219q96 33 170 33
q67 0 120.5 -20.5t102.5 -52.5t100 -67.5t114.5 -67.5t144.5 -52.5t192 -20.5h39l-91 -178q-16 2 -31.5 4t-31.5 2q-55 0 -117 -16q17 -47 53.5 -58.5t77.5 -11.5h230v-184h-222q-45 0 -87 11.5t-76.5 37t-59 66.5t-35.5 98zM713 -3l97 -98l-97 -96l-96 96zM713 -210l97 -98
l-97 -96l-96 96z" />
    <glyph glyph-name="uniFB76" unicode="&#x683;" horiz-adv-x="976" arabic-form="isolated" 
d="M594 532q-27 11 -57.5 29.5t-65.5 35.5t-77 29.5t-91 12.5q-51 0 -100 -18.5t-90 -59.5l49 193q30 22 68 32.5t77 10.5q86 0 151.5 -39t125 -85t120 -85t136.5 -39h38q17 0 37 4l-49 -162q-37 4 -77.5 6t-104.5 2q-100 0 -182 -18.5t-140.5 -55t-90 -93t-31.5 -132.5
q0 -47 20.5 -90t62.5 -75.5t104 -52t148 -19.5h281q-22 -47 -46 -83t-52 -83h-191q-125 0 -216 32.5t-149.5 85t-87 120t-28.5 139.5q0 92 36 171t102.5 139t160.5 99t209 49zM711 192l97 -94l-97 -99l-96 99zM486 192l96 -94l-96 -99l-96 99z" />
    <glyph glyph-name="uniFB77" unicode="&#x683;" horiz-adv-x="1044" arabic-form="final" 
d="M551 160q20 -18 41.5 -35.5t44.5 -40.5l-86 -80l-76 80zM381 160q22 -18 40.5 -35.5t37.5 -40.5l-78 -80l-76 80zM641 395q-190 -8 -295.5 -83.5t-105.5 -211.5q0 -47 20.5 -90t62.5 -75.5t104 -52t148 -19.5h281q-22 -47 -46 -83t-52 -83h-191q-125 0 -216 32.5
t-149.5 85t-87 120t-28.5 139.5q0 92 36 171t105.5 140t171 99t232.5 48q-27 11 -63 29.5t-79 35.5t-90 29.5t-96 12.5q-51 0 -100 -18.5t-90 -59.5l49 193q30 22 68 32.5t77 10.5q86 0 158 -39t137.5 -85t132 -85t142.5 -39h38q17 0 37 4l-49 -162q-24 4 -51 6t-61 2
l26 -141q8 -45 26.5 -59.5t59.5 -14.5h141v-184h-163q-99 0 -151 48t-62 130z" />
    <glyph glyph-name="uniFB78" unicode="&#x683;" horiz-adv-x="1267" arabic-form="initial" 
d="M812 -10l96 -94l-96 -99l-97 99zM586 -10l97 -94l-97 -99l-96 99zM1100 264q-16 2 -31.5 4t-31.5 2q-96 0 -186.5 -37.5t-206.5 -95.5q-103 -53 -219.5 -95t-255.5 -42h-168q-33 0 -52.5 28.5t-19.5 63.5t19.5 63.5t52.5 28.5h180q67 0 142 17.5t148.5 45t142.5 59.5
t128 61q-47 14 -89 39.5t-87 51t-94 45t-109 19.5q-117 0 -233 -51l78 219q96 33 170 33q67 0 120.5 -20.5t102.5 -52.5t100 -67.5t114.5 -67.5t144.5 -52.5t192 -20.5h39z" />
    <glyph glyph-name="uniFB79" unicode="&#x683;" horiz-adv-x="1280" arabic-form="medial" 
d="M797 -10l97 -94l-97 -99l-96 99zM572 -10l96 -94l-96 -99l-96 99zM801 213q-36 -16 -75 -34.5t-82 -41.5q-103 -53 -219.5 -95t-255.5 -42h-168q-33 0 -52.5 28.5t-19.5 63.5t19.5 63.5t52.5 28.5h180q67 0 142 17.5t148.5 45t142.5 59.5t128 61q-47 14 -89 39.5t-87 51
t-94 45t-109 19.5q-117 0 -233 -51l78 219q96 33 170 33q67 0 120.5 -20.5t102.5 -52.5t100 -67.5t114.5 -67.5t144.5 -52.5t192 -20.5h39l-91 -178q-16 2 -31.5 4t-31.5 2q-55 0 -117 -16q17 -47 53.5 -58.5t77.5 -11.5h230v-184h-222q-45 0 -87 11.5t-76.5 37t-59 66.5
t-35.5 98z" />
    <glyph glyph-name="uniFB7A" unicode="&#x686;" horiz-adv-x="976" arabic-form="isolated" 
d="M522 279q21 -23 37 -38.5t39 -37.5l-76 -76l-80 76zM600 168l78 -80l-78 -76l-74 76zM686 279q23 -23 41 -38.5t35 -37.5l-76 -76l-76 76zM594 532q-27 11 -57.5 29.5t-65.5 35.5t-77 29.5t-91 12.5q-51 0 -100 -18.5t-90 -59.5l49 193q30 22 68 32.5t77 10.5
q86 0 151.5 -39t125 -85t120 -85t136.5 -39h38q17 0 37 4l-49 -162q-37 4 -77.5 6t-104.5 2q-100 0 -182 -18.5t-140.5 -55t-90 -93t-31.5 -132.5q0 -47 20.5 -90t62.5 -75.5t104 -52t148 -19.5h281q-22 -47 -46 -83t-52 -83h-191q-125 0 -216 32.5t-149.5 85t-87 120
t-28.5 139.5q0 92 36 171t102.5 139t160.5 99t209 49z" />
    <glyph glyph-name="uniFB7B" unicode="&#x686;" horiz-adv-x="1044" arabic-form="final" 
d="M551 260q20 -18 41.5 -35.5t44.5 -40.5l-86 -80l-76 80zM381 260q22 -18 40.5 -35.5t37.5 -40.5l-78 -80l-76 80zM465 150l78 -80l-78 -76l-76 76zM641 395q-190 -8 -295.5 -83.5t-105.5 -211.5q0 -47 20.5 -90t62.5 -75.5t104 -52t148 -19.5h281q-22 -47 -46 -83
t-52 -83h-191q-125 0 -216 32.5t-149.5 85t-87 120t-28.5 139.5q0 92 36 171t105.5 140t171 99t232.5 48q-27 11 -63 29.5t-79 35.5t-90 29.5t-96 12.5q-51 0 -100 -18.5t-90 -59.5l49 193q30 22 68 32.5t77 10.5q86 0 158 -39t137.5 -85t132 -85t142.5 -39h38q17 0 37 4
l-49 -162q-24 4 -51 6t-61 2l26 -141q8 -45 26.5 -59.5t59.5 -14.5h141v-184h-163q-99 0 -151 48t-62 130z" />
    <glyph glyph-name="uniFB7C" unicode="&#x686;" horiz-adv-x="1267" arabic-form="initial" 
d="M812 -10l96 -94l-96 -99l-97 99zM586 -10l97 -94l-97 -99l-96 99zM697 -172l100 -98l-100 -97l-96 97zM1100 264q-16 2 -31.5 4t-31.5 2q-96 0 -186.5 -37.5t-206.5 -95.5q-103 -53 -219.5 -95t-255.5 -42h-168q-33 0 -52.5 28.5t-19.5 63.5t19.5 63.5t52.5 28.5h180
q67 0 142 17.5t148.5 45t142.5 59.5t128 61q-47 14 -89 39.5t-87 51t-94 45t-109 19.5q-117 0 -233 -51l78 219q96 33 170 33q67 0 120.5 -20.5t102.5 -52.5t100 -67.5t114.5 -67.5t144.5 -52.5t192 -20.5h39z" />
    <glyph glyph-name="uniFB7D" unicode="&#x686;" horiz-adv-x="1280" arabic-form="medial" 
d="M797 -10l97 -94l-97 -99l-96 99zM572 -10l96 -94l-96 -99l-96 99zM685 -172l98 -98l-98 -97l-99 97zM801 213q-36 -16 -75 -34.5t-82 -41.5q-103 -53 -219.5 -95t-255.5 -42h-168q-33 0 -52.5 28.5t-19.5 63.5t19.5 63.5t52.5 28.5h180q67 0 142 17.5t148.5 45
t142.5 59.5t128 61q-47 14 -89 39.5t-87 51t-94 45t-109 19.5q-117 0 -233 -51l78 219q96 33 170 33q67 0 120.5 -20.5t102.5 -52.5t100 -67.5t114.5 -67.5t144.5 -52.5t192 -20.5h39l-91 -178q-16 2 -31.5 4t-31.5 2q-55 0 -117 -16q17 -47 53.5 -58.5t77.5 -11.5h230v-184
h-222q-45 0 -87 11.5t-76.5 37t-59 66.5t-35.5 98z" />
    <glyph glyph-name="uniFB7E" unicode="&#x687;" horiz-adv-x="976" arabic-form="isolated" 
d="M522 123q21 -23 37 -38.5t39 -37.5l-76 -76l-80 76zM686 123q23 -23 41 -38.5t35 -37.5l-76 -76l-76 76zM594 532q-27 11 -57.5 29.5t-65.5 35.5t-77 29.5t-91 12.5q-51 0 -100 -18.5t-90 -59.5l49 193q30 22 68 32.5t77 10.5q86 0 151.5 -39t125 -85t120 -85t136.5 -39
h38q17 0 37 4l-49 -162q-37 4 -77.5 6t-104.5 2q-100 0 -182 -18.5t-140.5 -55t-90 -93t-31.5 -132.5q0 -47 20.5 -90t62.5 -75.5t104 -52t148 -19.5h281q-22 -47 -46 -83t-52 -83h-191q-125 0 -216 32.5t-149.5 85t-87 120t-28.5 139.5q0 92 36 171t102.5 139t160.5 99
t209 49zM522 279q21 -23 37 -38.5t39 -37.5l-76 -76l-80 76zM686 279q23 -23 41 -38.5t35 -37.5l-76 -76l-76 76z" />
    <glyph glyph-name="uniFB7F" unicode="&#x687;" horiz-adv-x="1044" arabic-form="final" 
d="M641 395q-190 -8 -295.5 -83.5t-105.5 -211.5q0 -47 20.5 -90t62.5 -75.5t104 -52t148 -19.5h281q-22 -47 -46 -83t-52 -83h-191q-125 0 -216 32.5t-149.5 85t-87 120t-28.5 139.5q0 92 36 171t105.5 140t171 99t232.5 48q-27 11 -63 29.5t-79 35.5t-90 29.5t-96 12.5
q-51 0 -100 -18.5t-90 -59.5l49 193q30 22 68 32.5t77 10.5q86 0 158 -39t137.5 -85t132 -85t142.5 -39h38q17 0 37 4l-49 -162q-24 4 -51 6t-61 2l26 -141q8 -45 26.5 -59.5t59.5 -14.5h141v-184h-163q-99 0 -151 48t-62 130zM386 109q21 -23 37 -38.5t39 -37.5l-76 -76
l-80 76zM550 109q23 -23 41 -38.5t35 -37.5l-76 -76l-76 76zM386 265q21 -23 37 -38.5t39 -37.5l-76 -76l-80 76zM550 265q23 -23 41 -38.5t35 -37.5l-76 -76l-76 76z" />
    <glyph glyph-name="uniFB80" unicode="&#x687;" horiz-adv-x="1267" arabic-form="initial" 
d="M1100 264q-16 2 -31.5 4t-31.5 2q-96 0 -186.5 -37.5t-206.5 -95.5q-103 -53 -219.5 -95t-255.5 -42h-168q-33 0 -52.5 28.5t-19.5 63.5t19.5 63.5t52.5 28.5h180q67 0 142 17.5t148.5 45t142.5 59.5t128 61q-47 14 -89 39.5t-87 51t-94 45t-109 19.5q-117 0 -233 -51
l78 219q96 33 170 33q67 0 120.5 -20.5t102.5 -52.5t100 -67.5t114.5 -67.5t144.5 -52.5t192 -20.5h39zM811 -210l100 -97l-100 -100l-96 100zM588 -210l94 -97l-94 -100l-99 100zM811 -8l100 -97l-100 -100l-96 100zM588 -8l94 -97l-94 -100l-99 100z" />
    <glyph glyph-name="uniFB81" unicode="&#x687;" horiz-adv-x="1280" arabic-form="medial" 
d="M801 213q-36 -16 -75 -34.5t-82 -41.5q-103 -53 -219.5 -95t-255.5 -42h-168q-33 0 -52.5 28.5t-19.5 63.5t19.5 63.5t52.5 28.5h180q67 0 142 17.5t148.5 45t142.5 59.5t128 61q-47 14 -89 39.5t-87 51t-94 45t-109 19.5q-117 0 -233 -51l78 219q96 33 170 33
q67 0 120.5 -20.5t102.5 -52.5t100 -67.5t114.5 -67.5t144.5 -52.5t192 -20.5h39l-91 -178q-16 2 -31.5 4t-31.5 2q-55 0 -117 -16q17 -47 53.5 -58.5t77.5 -11.5h230v-184h-222q-45 0 -87 11.5t-76.5 37t-59 66.5t-35.5 98zM801 -210l100 -97l-100 -100l-96 100zM578 -210
l94 -97l-94 -100l-99 100zM801 -8l100 -97l-100 -100l-96 100zM578 -8l94 -97l-94 -100l-99 100z" />
    <glyph glyph-name="uniFB82" unicode="&#x68d;" horiz-adv-x="948" arabic-form="isolated" 
d="M362 0q-57 0 -107 23.5t-88 61.5t-59.5 89t-21.5 107l129 86q10 -97 53 -140t154 -43h250l-56 473l150 125l70 -567q4 -27 5 -37t1 -20q0 -25 -7.5 -52.5t-25.5 -51t-53 -39t-90 -15.5h-304zM466 -199l100 101l102 -101l-102 -102zM255 -199l100 101l100 -101l-100 -102z
" />
    <glyph glyph-name="uniFB83" unicode="&#x68d;" horiz-adv-x="1013" arabic-form="final" 
d="M86 281l129 86q10 -97 53 -140t154 -43h250l-56 473l152 125q14 -123 28.5 -262t32.5 -262q9 -41 30.5 -57.5t68.5 -16.5h86v-184h-97q-51 0 -98 20.5t-57 67.5q-4 -22 -17.5 -39.5t-34 -28t-42 -15.5t-39.5 -5h-267q-55 0 -105 23.5t-88 61.5t-60.5 89t-22.5 107z
M466 -199l100 101l102 -101l-102 -102zM255 -199l100 101l100 -101l-100 -102z" />
    <glyph glyph-name="uniFB84" unicode="&#x68c;" horiz-adv-x="948" arabic-form="isolated" 
d="M362 0q-57 0 -107 23.5t-88 61.5t-59.5 89t-21.5 107l129 86q10 -97 53 -140t154 -43h250l-56 473l150 125l70 -567q4 -27 5 -37t1 -20q0 -25 -7.5 -52.5t-25.5 -51t-53 -39t-90 -15.5h-304zM440 990l101 98l96 -98l-96 -96zM668 990l96 98l96 -98l-96 -96z" />
    <glyph glyph-name="uniFB85" unicode="&#x68c;" horiz-adv-x="1013" arabic-form="final" 
d="M86 281l129 86q10 -97 53 -140t154 -43h250l-56 473l152 125q14 -123 28.5 -262t32.5 -262q9 -41 30.5 -57.5t68.5 -16.5h86v-184h-97q-51 0 -98 20.5t-57 67.5q-4 -22 -17.5 -39.5t-34 -28t-42 -15.5t-39.5 -5h-267q-55 0 -105 23.5t-88 61.5t-60.5 89t-22.5 107z
M440 990l101 98l96 -98l-96 -96zM668 990l96 98l96 -98l-96 -96z" />
    <glyph glyph-name="uniFB86" unicode="&#x68e;" horiz-adv-x="948" arabic-form="isolated" 
d="M362 0q-57 0 -107 23.5t-88 61.5t-59.5 89t-21.5 107l129 86q10 -97 53 -140t154 -43h250l-56 473l150 125l70 -567q4 -27 5 -37t1 -20q0 -25 -7.5 -52.5t-25.5 -51t-53 -39t-90 -15.5h-304zM440 990l101 98l96 -98l-96 -96zM555 1154l96 96l97 -96l-97 -98zM668 990
l96 98l96 -98l-96 -96z" />
    <glyph glyph-name="uniFB87" unicode="&#x68e;" horiz-adv-x="1013" arabic-form="final" 
d="M86 281l129 86q10 -97 53 -140t154 -43h250l-56 473l152 125q14 -123 28.5 -262t32.5 -262q9 -41 30.5 -57.5t68.5 -16.5h86v-184h-97q-51 0 -98 20.5t-57 67.5q-4 -22 -17.5 -39.5t-34 -28t-42 -15.5t-39.5 -5h-267q-55 0 -105 23.5t-88 61.5t-60.5 89t-22.5 107z
M440 990l101 98l96 -98l-96 -96zM555 1154l96 96l97 -96l-97 -98zM668 990l96 98l96 -98l-96 -96z" />
    <glyph glyph-name="uniFB88" unicode="&#x688;" horiz-adv-x="948" arabic-form="isolated" 
d="M362 0q-57 0 -107 23.5t-88 61.5t-59.5 89t-21.5 107l129 86q10 -97 53 -140t154 -43h250l-56 473l150 125l70 -567q4 -27 5 -37t1 -20q0 -25 -7.5 -52.5t-25.5 -51t-53 -39t-90 -15.5h-304zM535 983v207l63 57v-198q35 34 78 67t96 33t83 -32t30 -81q0 -59 -42 -102
t-102 -43h-262l-59 72h90q12 0 18.5 3t6.5 17zM602 963h139q25 0 50.5 19t25.5 48q0 45 -55 45q-23 0 -44.5 -11t-41 -27.5t-39 -36t-35.5 -37.5z" />
    <glyph glyph-name="uniFB89" unicode="&#x688;" horiz-adv-x="1013" arabic-form="final" 
d="M86 281l129 86q10 -97 53 -140t154 -43h250l-56 473l152 125q14 -123 28.5 -262t32.5 -262q9 -41 30.5 -57.5t68.5 -16.5h86v-184h-97q-51 0 -98 20.5t-57 67.5q-4 -22 -17.5 -39.5t-34 -28t-42 -15.5t-39.5 -5h-267q-55 0 -105 23.5t-88 61.5t-60.5 89t-22.5 107z
M535 983v207l63 57v-198q35 34 78 67t96 33t83 -32t30 -81q0 -59 -42 -102t-102 -43h-262l-59 72h90q12 0 18.5 3t6.5 17zM602 963h139q25 0 50.5 19t25.5 48q0 45 -55 45q-23 0 -44.5 -11t-41 -27.5t-39 -36t-35.5 -37.5z" />
    <glyph glyph-name="uniFB8A" unicode="&#x698;" horiz-adv-x="780" arabic-form="isolated" 
d="M509 944l96 98l97 -98l-97 -96zM397 1108l96 96l98 -96l-98 -98zM280 944l98 98l98 -98l-98 -96zM460 629l152 123l59 -529q4 -39 5 -58.5t1 -35.5q0 -94 -40 -173t-117.5 -136.5t-193.5 -89t-269 -31.5h-25l86 158q61 2 130 20.5t128 49t98 75.5t39 104q0 33 -1 55.5
t-5 57.5z" />
    <glyph glyph-name="uniFB8B" unicode="&#x698;" horiz-adv-x="841" arabic-form="final" 
d="M509 944l96 98l97 -98l-97 -96zM397 1108l96 96l98 -96l-98 -98zM280 944l98 98l98 -98l-98 -96zM460 629l152 123l59 -529q0 -12 1 -22.5t1 -16.5h168v-184h-186q-48 -135 -197.5 -218t-400.5 -83h-25l86 158q61 2 130 20.5t128 49t98 75.5t39 104q0 33 -1 55.5t-5 57.5
z" />
    <glyph glyph-name="uniFB8C" unicode="&#x691;" horiz-adv-x="780" arabic-form="isolated" 
d="M460 629l152 123l59 -529q4 -39 5 -58.5t1 -35.5q0 -94 -40 -173t-117.5 -136.5t-193.5 -89t-269 -31.5h-25l86 158q61 2 130 20.5t128 49t98 75.5t39 104q0 33 -1 55.5t-5 57.5zM388 983v207l66 57v-198q33 34 76 67t98 33q51 0 82 -32t31 -81q0 -59 -42 -102t-104 -43
h-260l-61 72h92q10 0 16 3t6 17zM458 963h135q29 0 53.5 19t24.5 48q0 45 -51 45q-25 0 -47.5 -11t-43 -27.5t-39 -36t-32.5 -37.5z" />
    <glyph glyph-name="uniFB8D" unicode="&#x691;" horiz-adv-x="841" arabic-form="final" 
d="M460 629l152 123l59 -529q0 -12 1 -22.5t1 -16.5h168v-184h-186q-48 -135 -197.5 -218t-400.5 -83h-25l86 158q61 2 130 20.5t128 49t98 75.5t39 104q0 33 -1 55.5t-5 57.5zM388 983v207l66 57v-198q33 34 76 67t98 33q51 0 82 -32t31 -81q0 -59 -42 -102t-104 -43h-260
l-61 72h92q10 0 16 3t6 17zM458 963h135q29 0 53.5 19t24.5 48q0 45 -51 45q-25 0 -47.5 -11t-43 -27.5t-39 -36t-32.5 -37.5z" />
    <glyph glyph-name="uniFB8E" unicode="&#x6a9;" horiz-adv-x="1716" arabic-form="isolated" 
d="M1392 317q35 -34 40 -64t5 -81v-100q0 -25 -17.5 -48.5t-56.5 -23.5h-889q-102 0 -176 35t-122 92t-71.5 127t-23.5 141q0 90 30.5 160t85 117t130.5 71.5t168 24.5q57 0 104 -8l-86 -144h-29q-114 0 -179.5 -55t-65.5 -155q0 -27 9 -65t34.5 -73t69.5 -59.5t116 -24.5
h801l-359 379q-26 27 -30 42.5t-4 45.5v68q0 41 26.5 60.5t67.5 33.5l680 246l-66 -209l-522 -193z" />
    <glyph glyph-name="uniFB8F" unicode="&#x6a9;" horiz-adv-x="1687" arabic-form="final" 
d="M1062 657l367 -378q36 -37 76 -66t96 -29h86v-184h-133q-54 0 -102 18.5t-101 79.5q-6 -45 -49 -71.5t-97 -26.5h-731q-102 0 -176 35t-122 92t-71.5 127t-23.5 141q0 90 30.5 160t85 117t130.5 71.5t168 24.5q57 0 104 -8l-86 -144h-29q-114 0 -179.5 -55t-65.5 -155
q0 -27 9 -65t34.5 -73t69.5 -59.5t116 -24.5h801l-359 379q-26 27 -30 42.5t-4 45.5v68q0 41 26.5 59.5t67.5 34.5l680 246l-66 -209z" />
    <glyph glyph-name="uniFB90" unicode="&#x6a9;" horiz-adv-x="974" arabic-form="initial" 
d="M652 317q35 -34 40 -64t5 -81v-100q0 -25 -17.5 -48.5t-54.5 -23.5h-624q-33 0 -52.5 28.5t-19.5 63.5t19.5 63.5t52.5 28.5h534l-364 379q-25 27 -29 42.5t-4 45.5v68q0 41 25.5 59.5t68.5 34.5l682 246l-65 -209l-525 -193z" />
    <glyph glyph-name="uniFB91" unicode="&#x6a9;" horiz-adv-x="950" arabic-form="medial" 
d="M324 657l365 -378q41 -37 79 -66t93 -29h90v-184h-137q-54 0 -101 18.5t-102 79.5q-6 -45 -48 -71.5t-97 -26.5h-465q-33 0 -52.5 28.5t-19.5 63.5t19.5 63.5t52.5 28.5h534l-364 379q-25 27 -29 42.5t-4 45.5v68q0 41 25.5 59.5t68.5 34.5l682 246l-65 -209z" />
    <glyph glyph-name="uniFB92" unicode="&#x6af;" horiz-adv-x="1769" arabic-form="isolated" 
d="M933 850l764 276l-31 -110l-774 -285zM1341 184l-439 258q-18 11 -22 26t-4 36v84q0 45 26.5 62.5t67.5 33.5l680 248l-66 -213l-522 -189l397 -213q29 -16 38 -37.5t9 -50.5v-157q0 -25 -17 -48.5t-65 -23.5h-950q-102 0 -176 35t-122 92t-71.5 127t-23.5 141
q0 90 30.5 160t85 117t130.5 71.5t168 24.5q57 0 104 -8l-86 -144h-29q-114 0 -179.5 -55t-65.5 -155q0 -27 9 -65t34.5 -73t69.5 -59.5t116 -24.5h873z" />
    <glyph glyph-name="uniFB93" unicode="&#x6af;" horiz-adv-x="1808" arabic-form="final" 
d="M937 850l766 276l-31 -110l-772 -285zM1324 184l-422 258q-20 11 -23 26t-3 36v84q0 45 26.5 62.5t67.5 33.5l686 248l-68 -213l-526 -189l453 -268q32 -20 60 -34.5t53.5 -23.5t52 -14.5t59.5 -5.5h67v-184h-65q-62 0 -106 10t-95 41l-114 70q-11 -43 -29.5 -67.5
t-45 -36t-60 -14.5t-72.5 -3h-746q-102 0 -176 35t-122 92t-71.5 127t-23.5 141q0 90 30.5 160t85 117t130.5 71.5t168 24.5q57 0 104 -8l-86 -144h-29q-114 0 -179.5 -55t-65.5 -155q0 -27 9 -65t34.5 -73t69.5 -59.5t116 -24.5h856z" />
    <glyph glyph-name="uniFB94" unicode="&#x6af;" horiz-adv-x="1019" arabic-form="initial" 
d="M181 850l770 276l-33 -110l-770 -285zM1 0q-33 0 -52.5 28.5t-19.5 63.5t19.5 63.5t52.5 28.5h592l-437 256q-18 11 -22 27t-4 37v84q0 45 25.5 62.5t66.5 33.5l682 248l-68 -213l-524 -189l399 -213q31 -16 38 -37.5t7 -50.5v-157q0 -25 -15 -48.5t-56 -23.5h-684z" />
    <glyph glyph-name="uniFB95" unicode="&#x6af;" horiz-adv-x="1032" arabic-form="medial" 
d="M158 850l770 276l-34 -110l-770 -285zM1 0q-33 0 -52.5 28.5t-19.5 63.5t19.5 63.5t52.5 28.5h549l-418 254q-23 13 -27 29t-4 37v84q0 45 24.5 62.5t65.5 33.5l688 248l-65 -213l-525 -184l467 -285q47 -29 92.5 -47.5t106.5 -18.5h78v-184h-72q-59 0 -104 11.5
t-105 45.5l-104 64q-8 -43 -26.5 -67.5t-46.5 -36t-61.5 -14.5t-72.5 -3h-440z" />
    <glyph glyph-name="uniFB96" unicode="&#x6b3;" horiz-adv-x="1769" arabic-form="isolated" 
d="M933 850l764 276l-31 -110l-774 -285zM1341 184l-439 258q-18 11 -22 26t-4 36v84q0 45 26.5 62.5t67.5 33.5l680 248l-66 -213l-522 -189l397 -213q29 -16 38 -37.5t9 -50.5v-157q0 -25 -17 -48.5t-65 -23.5h-950q-102 0 -176 35t-122 92t-71.5 127t-23.5 141
q0 90 30.5 160t85 117t130.5 71.5t168 24.5q57 0 104 -8l-86 -144h-29q-114 0 -179.5 -55t-65.5 -155q0 -27 9 -65t34.5 -73t69.5 -59.5t116 -24.5h873zM846 -98l97 -98l-97 -96l-96 96zM846 -305l97 -98l-97 -96l-96 96z" />
    <glyph glyph-name="uniFB97" unicode="&#x6b3;" horiz-adv-x="1808" arabic-form="final" 
d="M937 850l766 276l-31 -110l-772 -285zM1324 184l-422 258q-20 11 -23 26t-3 36v84q0 45 26.5 62.5t67.5 33.5l686 248l-68 -213l-526 -189l453 -268q32 -20 60 -34.5t53.5 -23.5t52 -14.5t59.5 -5.5h67v-184h-65q-62 0 -106 10t-95 41l-114 70q-11 -43 -29.5 -67.5
t-45 -36t-60 -14.5t-72.5 -3h-746q-102 0 -176 35t-122 92t-71.5 127t-23.5 141q0 90 30.5 160t85 117t130.5 71.5t168 24.5q57 0 104 -8l-86 -144h-29q-114 0 -179.5 -55t-65.5 -155q0 -27 9 -65t34.5 -73t69.5 -59.5t116 -24.5h856zM776 -98l97 -98l-97 -96l-96 96z
M776 -305l97 -98l-97 -96l-96 96z" />
    <glyph glyph-name="uniFB98" unicode="&#x6b3;" horiz-adv-x="1019" arabic-form="initial" 
d="M181 850l770 276l-33 -110l-770 -285zM1 0q-33 0 -52.5 28.5t-19.5 63.5t19.5 63.5t52.5 28.5h592l-437 256q-18 11 -22 27t-4 37v84q0 45 25.5 62.5t66.5 33.5l682 248l-68 -213l-524 -189l399 -213q31 -16 38 -37.5t7 -50.5v-157q0 -25 -15 -48.5t-56 -23.5h-684z
M346 -98l97 -98l-97 -96l-96 96zM346 -305l97 -98l-97 -96l-96 96z" />
    <glyph glyph-name="uniFB99" unicode="&#x6b3;" horiz-adv-x="1032" arabic-form="medial" 
d="M158 850l770 276l-34 -110l-770 -285zM1 0q-33 0 -52.5 28.5t-19.5 63.5t19.5 63.5t52.5 28.5h549l-418 254q-23 13 -27 29t-4 37v84q0 45 24.5 62.5t65.5 33.5l688 248l-65 -213l-525 -184l467 -285q47 -29 92.5 -47.5t106.5 -18.5h78v-184h-72q-59 0 -104 11.5
t-105 45.5l-104 64q-8 -43 -26.5 -67.5t-46.5 -36t-61.5 -14.5t-72.5 -3h-440zM316 -98l97 -98l-97 -96l-96 96zM316 -305l97 -98l-97 -96l-96 96z" />
    <glyph glyph-name="uniFB9A" unicode="&#x6b1;" horiz-adv-x="1769" arabic-form="isolated" 
d="M933 850l764 276l-31 -110l-774 -285zM1341 184l-439 258q-18 11 -22 26t-4 36v84q0 45 26.5 62.5t67.5 33.5l680 248l-66 -213l-522 -189l397 -213q29 -16 38 -37.5t9 -50.5v-157q0 -25 -17 -48.5t-65 -23.5h-950q-102 0 -176 35t-122 92t-71.5 127t-23.5 141
q0 90 30.5 160t85 117t130.5 71.5t168 24.5q57 0 104 -8l-86 -144h-29q-114 0 -179.5 -55t-65.5 -155q0 -27 9 -65t34.5 -73t69.5 -59.5t116 -24.5h873zM896 1110l99 98l94 -98l-94 -96zM1120 1110l96 98l98 -98l-98 -96z" />
    <glyph glyph-name="uniFB9B" unicode="&#x6b1;" horiz-adv-x="1808" arabic-form="final" 
d="M937 850l766 276l-31 -110l-772 -285zM1324 184l-422 258q-20 11 -23 26t-3 36v84q0 45 26.5 62.5t67.5 33.5l686 248l-68 -213l-526 -189l453 -268q32 -20 60 -34.5t53.5 -23.5t52 -14.5t59.5 -5.5h67v-184h-65q-62 0 -106 10t-95 41l-114 70q-11 -43 -29.5 -67.5
t-45 -36t-60 -14.5t-72.5 -3h-746q-102 0 -176 35t-122 92t-71.5 127t-23.5 141q0 90 30.5 160t85 117t130.5 71.5t168 24.5q57 0 104 -8l-86 -144h-29q-114 0 -179.5 -55t-65.5 -155q0 -27 9 -65t34.5 -73t69.5 -59.5t116 -24.5h856zM896 1110l99 98l94 -98l-94 -96z
M1120 1110l96 98l98 -98l-98 -96z" />
    <glyph glyph-name="uniFB9C" unicode="&#x6b1;" horiz-adv-x="1019" arabic-form="initial" 
d="M181 850l770 276l-33 -110l-770 -285zM1 0q-33 0 -52.5 28.5t-19.5 63.5t19.5 63.5t52.5 28.5h592l-437 256q-18 11 -22 27t-4 37v84q0 45 25.5 62.5t66.5 33.5l682 248l-68 -213l-524 -189l399 -213q31 -16 38 -37.5t7 -50.5v-157q0 -25 -15 -48.5t-56 -23.5h-684z
M166 1110l99 98l94 -98l-94 -96zM390 1110l96 98l98 -98l-98 -96z" />
    <glyph glyph-name="uniFB9D" unicode="&#x6b1;" horiz-adv-x="1032" arabic-form="medial" 
d="M158 850l770 276l-34 -110l-770 -285zM1 0q-33 0 -52.5 28.5t-19.5 63.5t19.5 63.5t52.5 28.5h549l-418 254q-23 13 -27 29t-4 37v84q0 45 24.5 62.5t65.5 33.5l688 248l-65 -213l-525 -184l467 -285q47 -29 92.5 -47.5t106.5 -18.5h78v-184h-72q-59 0 -104 11.5
t-105 45.5l-104 64q-8 -43 -26.5 -67.5t-46.5 -36t-61.5 -14.5t-72.5 -3h-440zM166 1110l99 98l94 -98l-94 -96zM390 1110l96 98l98 -98l-98 -96z" />
    <glyph glyph-name="uniFB9E" unicode="&#x6ba;" horiz-adv-x="1124" arabic-form="isolated" 
d="M446 489q-51 -8 -89 -34.5t-63.5 -65.5t-37.5 -86t-12 -96q0 -72 24.5 -134.5t67.5 -108.5t103.5 -73.5t131.5 -27.5q60 0 113 21.5t92 60.5t61.5 89t22.5 109v379l162 125v-518q0 -92 -39 -172t-102.5 -137.5t-144.5 -90t-165 -32.5q-102 0 -191 42t-153.5 110.5
t-101.5 157.5t-37 186q0 90 28.5 171.5t83 143t130 98.5t168.5 37h20t21 -2z" />
    <glyph glyph-name="uniFB9F" unicode="&#x6ba;" horiz-adv-x="1204" arabic-form="final" 
d="M446 489q-51 -8 -89 -34.5t-63.5 -65.5t-37.5 -86t-12 -96q0 -72 24.5 -134.5t67.5 -108.5t103.5 -73.5t131.5 -27.5q60 0 113 21.5t92 60.5t61.5 89t22.5 109v379l162 125v-352q0 -49 21.5 -80t76.5 -31h84v-184h-69q-93 0 -119 55q-17 -78 -60 -144.5t-103 -113.5
t-133 -73.5t-149 -26.5q-102 0 -191 42t-153.5 110.5t-101.5 157.5t-37 186q0 90 28.5 171.5t83 143t130 98.5t168.5 37h20t21 -2z" />
    <glyph glyph-name="uniFBA0" unicode="&#x6bb;" horiz-adv-x="1124" arabic-form="isolated" 
d="M446 489q-51 -8 -89 -34.5t-63.5 -65.5t-37.5 -86t-12 -96q0 -72 24.5 -134.5t67.5 -108.5t103.5 -73.5t131.5 -27.5q60 0 113 21.5t92 60.5t61.5 89t22.5 109v379l162 125v-518q0 -92 -39 -172t-102.5 -137.5t-144.5 -90t-165 -32.5q-102 0 -191 42t-153.5 110.5
t-101.5 157.5t-37 186q0 90 28.5 171.5t83 143t130 98.5t168.5 37h20q10 0 21 -2zM498 983v207l67 57v-198q35 34 78 67t97 33q51 0 81.5 -32t30.5 -81q0 -59 -42 -102t-103 -43h-260l-60 72h90q11 0 16 3t5 17zM570 963h137q24 0 50 19t26 48q0 45 -54 45q-22 0 -44.5 -11
t-43 -27.5t-39 -36t-32.5 -37.5z" />
    <glyph glyph-name="uniFBA1" unicode="&#x6bb;" horiz-adv-x="1204" arabic-form="final" 
d="M446 489q-51 -8 -89 -34.5t-63.5 -65.5t-37.5 -86t-12 -96q0 -72 24.5 -134.5t67.5 -108.5t103.5 -73.5t131.5 -27.5q60 0 113 21.5t92 60.5t61.5 89t22.5 109v379l162 125v-352q0 -49 21.5 -80t76.5 -31h84v-184h-69q-93 0 -119 55q-17 -78 -60 -144.5t-103 -113.5
t-133 -73.5t-149 -26.5q-102 0 -191 42t-153.5 110.5t-101.5 157.5t-37 186q0 90 28.5 171.5t83 143t130 98.5t168.5 37h20q10 0 21 -2zM498 983v207l67 57v-198q35 34 78 67t97 33q51 0 81.5 -32t30.5 -81q0 -59 -42 -102t-103 -43h-260l-60 72h90q11 0 16 3t5 17zM570 963
h137q24 0 50 19t26 48q0 45 -54 45q-22 0 -44.5 -11t-43 -27.5t-39 -36t-32.5 -37.5z" />
    <glyph glyph-name="uniFBA2" unicode="&#x6bb;" horiz-adv-x="573" arabic-form="initial" 
d="M1 0q-33 0 -52.5 28.5t-19.5 63.5t19.5 63.5t52.5 28.5h227q70 0 70 56v10q0 4 -2 16l-48 361l154 125l59 -467q5 -27 7 -52.5t2 -52.5q0 -92 -43 -136t-150 -44h-276zM138 983v207l67 57v-198q35 34 78 67t97 33q51 0 81.5 -32t30.5 -81q0 -59 -42 -102t-103 -43h-260
l-60 72h90q11 0 16 3t5 17zM210 963h137q24 0 50 19t26 48q0 45 -54 45q-22 0 -44.5 -11t-43 -27.5t-39 -36t-32.5 -37.5z" />
    <glyph glyph-name="uniFBA3" unicode="&#x6bb;" horiz-adv-x="522" arabic-form="medial" 
d="M523 184v-184h-129q-43 0 -77 25.5t-50 56.5q-8 -33 -44 -57.5t-79 -24.5h-143q-33 0 -52.5 28.5t-19.5 63.5t19.5 63.5t52.5 28.5h121q28 0 46.5 14.5t18.5 45.5v370l164 138v-504q0 -29 17.5 -46.5t43.5 -17.5h111zM146 983v207l68 57v-198q32 34 74 67t96 33
q51 0 82.5 -32t31.5 -81q0 -59 -42 -102t-105 -43h-258l-62 72h93q10 0 16 3t6 17zM216 963h135q29 0 53.5 19t24.5 48q0 45 -51 45q-25 0 -47.5 -11t-42 -27.5t-38 -36t-34.5 -37.5z" />
    </font>
</defs>
</svg>
