<?xml version="1.0" standalone="no"?>
<!DOCTYPE svg PUBLIC "-//W3C//DTD SVG 1.1//EN" "http://www.w3.org/Graphics/SVG/1.1/DTD/svg11.dtd" >
<svg xmlns="http://www.w3.org/2000/svg" xmlns:xlink="http://www.w3.org/1999/xlink" version="1.1">
<metadata>
Created by FontForge 20170731 at Wed Jul 13 17:45:51 2016
 By Aleksey,,,
(c)  2013 Bahij Virtual Academy. All rights reserved.
</metadata>
<defs>
<font id="BahijAban-Bold" horiz-adv-x="1035" >
  <font-face 
    font-family="Bahij Aban"
    font-weight="700"
    font-stretch="normal"
    units-per-em="2048"
    panose-1="2 4 7 3 6 2 1 2 2 3"
    ascent="1638"
    descent="-410"
    x-height="938"
    cap-height="1288"
    bbox="-309 -1190 5294 2108"
    underline-thickness="50"
    underline-position="-150"
    unicode-range="U+0020-FEFC"
  />
<missing-glyph horiz-adv-x="728" 
d="M0 0v1020h728v-1020h-728zM117 947l247 -372l248 372h-495zM655 881l-247 -371l247 -372v743zM612 73l-248 371l-247 -371h495zM73 138l247 372l-247 371v-743z" />
    <glyph glyph-name="uniFB01" unicode="fi" horiz-adv-x="1137" 
d="M770 1288h227l-2 -219h-227zM189 767h-149v171h149v121q0 158 90 252q95 100 264 100h72v-182h-52q-143 0 -143 -162v-129h575l-9 -938h-227l9 767h-354v-767h-229z" />
    <glyph glyph-name="uniFB02" unicode="fl" horiz-adv-x="1137" 
d="M189 767h-149v171h149v121q0 158 90 252q95 100 264 100h72v-182h-52q-143 0 -143 -162v-129h193v-171h-199v-767h-229zM770 1396h227l-11 -1396h-227z" />
    <glyph glyph-name="uniFC31" unicode="&#xfed3;&#xfef0;" horiz-adv-x="2152" arabic-form="isolated" 
d="M1830 478v190q0 69 -26 69q-45 -16 -105.5 -76.5t-79.5 -109.5q6 -32 211 -73zM1889 1056h-231v232h231v-232zM1288 0l35 -199q-335 -242 -668 -242q-248 0 -399 132q-160 138 -160 385q0 222 132 451l239 -97q-116 -223 -116 -357q0 -133 95 -198q82 -57 214 -57
q209 0 499 178q-50 2 -172 69t-157 110l128 212q99 -93 214 -117q60 -11 244 -11h440v7q-237 37 -291 58q-154 60 -156 216q0 84 78 201q73 112 151 160q80 73 173 73q115 0 181 -86q57 -74 57 -197v-317q0 -206 -63 -286q-73 -88 -275 -88h-423z" />
    <glyph glyph-name="uniFC32" unicode="&#xfed3;&#xfef2;" horiz-adv-x="2152" arabic-form="isolated" 
d="M919 -575l-2 -226h-221l3 226h220zM625 -575l-6 -226h-220l2 226h224zM1830 478v190q0 69 -26 69q-45 -16 -105.5 -76.5t-79.5 -109.5q6 -32 211 -73zM1889 1056h-231v232h231v-232zM1288 0l35 -199q-335 -242 -668 -242q-248 0 -399 132q-160 138 -160 385
q0 222 132 451l239 -97q-116 -223 -116 -357q0 -133 95 -198q82 -57 214 -57q209 0 499 178q-50 2 -172 69t-157 110l128 212q99 -93 214 -117q60 -11 244 -11h440v7q-237 37 -291 58q-154 60 -156 216q0 84 78 201q73 112 151 160q80 73 173 73q115 0 181 -86
q57 -74 57 -197v-317q0 -206 -63 -286q-73 -88 -275 -88h-423z" />
    <glyph glyph-name="uniFC43" unicode="&#xfedf;&#xfef0;" horiz-adv-x="1834" arabic-form="isolated" 
d="M1416 1l-128 -1l35 -199q-335 -242 -668 -242q-248 0 -399 132q-160 138 -160 385q0 222 132 451l239 -97q-116 -223 -116 -357q0 -133 95 -198q82 -57 214 -57q209 0 499 178q-50 2 -172 69t-157 110l128 212q99 -93 214 -117q48 -9 174 -11q160 7 160 110
q0 223 -107 666l266 41q112 -498 118 -821q0 -137 -145 -203q-95 -44 -222 -51z" />
    <glyph glyph-name="uniFC44" unicode="&#xfedf;&#xfef2;" horiz-adv-x="1834" arabic-form="isolated" 
d="M919 -575l-2 -226h-221l3 226h220zM625 -575l-6 -226h-220l2 226h224zM1416 1l-128 -1l35 -199q-335 -242 -668 -242q-248 0 -399 132q-160 138 -160 385q0 222 132 451l239 -97q-116 -223 -116 -357q0 -133 95 -198q82 -57 214 -57q209 0 499 178q-50 2 -172 69
t-157 110l128 212q99 -93 214 -117q48 -9 174 -11q160 7 160 110q0 223 -107 666l266 41q112 -498 118 -821q0 -137 -145 -203q-95 -44 -222 -51z" />
    <glyph glyph-name="uniFC64" unicode="&#xfe8c;&#xfeae;" horiz-adv-x="1563" arabic-form="final" 
d="M1385 804q-44 -9 -195 -72q-106 -45 -201 -64l2 147q54 6 122 41q-128 12 -128 129q0 89 82 151q71 52 167 67l45 -134q-123 -21 -125 -67v-1q0 -61 138 -61q47 0 93 8v-144zM885 0q-93 0 -122 58q7 -32 7 -69q0 -173 -210 -320q-54 -40 -362 -194l-115 222l276 135
q167 110 169 228q0 54 -32 156q-9 24 -29.5 71.5t-31.5 73.5l240 86q56 -136 80 -158q34 -30 178 -30q180 0 182 67q0 26 -13 80q-11 46 -17 82l246 59q15 -89 32 -176q13 -68 57.5 -90t184.5 -22v-259h-80q-149 0 -242 78q-106 -78 -296 -78h-102z" />
    <glyph glyph-name="uniFC67" unicode="&#xfe8c;&#xfee6;" horiz-adv-x="2133" arabic-form="final" 
d="M835 302h-229v229h229v-229zM1955 804q-44 -9 -195 -72q-106 -45 -201 -64l2 147q54 6 122 41q-128 12 -128 129q0 89 82 151q71 52 167 67l45 -134q-123 -21 -125 -67v-1q0 -61 138 -61q47 0 93 8v-144zM1460 2q-75 7 -118 33l69 -335q-142 -52 -428 -156
q-265 -93 -434 -93q-203 0 -331.5 123t-130.5 324q0 134 50 292l91 288l250 -63q-26 -78 -76 -240q-41 -141 -41 -251v-5q0 -92 69 -148q65 -54 163 -54q112 0 272 52q65 22 263 101l-144 586l242 52q49 -188 71 -208q38 -40 210 -41q176 1 178 67q0 26 -13 80
q-11 46 -17 82l246 59q15 -89 32 -176q13 -68 57.5 -90t184.5 -22v-259h-80q-149 0 -242 78q-106 -78 -296 -78h-57z" />
    <glyph glyph-name="uniFC6A" unicode="&#xfe92;&#xfeae;" horiz-adv-x="1563" arabic-form="final" 
d="M885 0q-93 0 -122 58q7 -32 7 -69q0 -173 -210 -320q-54 -40 -362 -194l-115 222l276 135q167 110 169 228q0 54 -32 156q-9 24 -29.5 71.5t-31.5 73.5l240 86q56 -136 80 -158q34 -30 173 -30h5q180 0 182 67q0 26 -13 80q-11 46 -17 82l246 59q15 -89 32 -176
q13 -68 57.5 -90t184.5 -22v-259h-80q-149 0 -242 78q-106 -78 -296 -78h-102zM1357 -456h-229v229h229v-229z" />
    <glyph glyph-name="uniFC70" unicode="&#xfe98;&#xfeae;" horiz-adv-x="1543" arabic-form="final" 
d="M870 0q-80 5 -107 58q7 -32 7 -69q0 -173 -210 -320q-54 -40 -362 -194l-115 222l276 135q167 110 169 228q0 54 -32 156q-9 24 -29.5 71.5t-31.5 73.5l240 86q56 -136 80 -158q33 -29 165 -30q173 1 175 67q0 26 -13 80q-11 46 -17 82l246 59q15 -89 32 -176
q13 -68 57.5 -90t184.5 -22v-259h-80q-149 0 -242 78q-106 -78 -296 -78h-97zM1119 737h-221v222h221v-222zM1416 737h-222v222h222v-222z" />
    <glyph glyph-name="uniFC86" unicode="&#xfee0;&#xfef0;" horiz-adv-x="1941" arabic-form="final" 
d="M1288 0l35 -199q-335 -242 -668 -242q-248 0 -399 132q-160 138 -160 385q0 222 132 451l239 -97q-116 -223 -116 -357q0 -133 95 -198q82 -57 214 -57q209 0 499 178q-50 2 -172 69t-157 110l128 212q99 -93 214 -117q60 -11 244 -11v-1q109 11 109 103q0 131 -37 339
q-19 110 -60 335l257 41l114 -732q9 -57 73 -78q26 -7 111 -7v-259h-41q-171 0 -242 95q-70 -95 -273 -95h-139z" />
    <glyph glyph-name="uniFC87" unicode="&#xfee0;&#xfef2;" horiz-adv-x="1941" arabic-form="final" 
d="M919 -575l-2 -226h-221l3 226h220zM625 -575l-6 -226h-220l2 226h224zM1288 0l35 -199q-335 -242 -668 -242q-248 0 -399 132q-160 138 -160 385q0 222 132 451l239 -97q-116 -223 -116 -357q0 -133 95 -198q82 -57 214 -57q209 0 499 178q-50 2 -172 69t-157 110
l128 212q99 -93 214 -117q60 -11 244 -11v-1q109 11 109 103q0 131 -37 339q-19 110 -60 335l257 41l114 -732q9 -57 73 -78q26 -7 111 -7v-259h-41q-171 0 -242 95q-70 -95 -273 -95h-139z" />
    <glyph glyph-name="uniFCCC" unicode="&#xfedf;&#xfee4;" horiz-adv-x="1494" arabic-form="initial" 
d="M615 199v6q0 39 -24 139q-26 108 -62 114q-39 -15 -147 -177q175 -117 196 -117q35 0 37 35zM970 0q-56 1 -81 7q-48 15 -86 67q-29 -72 -96 -106.5t-146 -36.5h-7q-63 0 -156 65q-30 21 -144 105q-50 -58 -132 -88q-52 -13 -162 -13v259q141 0 229 113q37 51 143 216
q90 114 214 114q106 0 162 -77q14 -19 28.5 -70.5t57.5 -208.5q24 -89 142 -89h42q188 2 188 112q0 223 -107 666l266 41q112 -498 118 -821q0 -137 -145 -203q-112 -52 -268 -52h-60z" />
    <glyph glyph-name="uniFCFB" unicode="&#xfeb3;&#xfef0;" horiz-adv-x="2786" arabic-form="isolated" 
d="M1288 0l35 -199q-335 -242 -668 -242q-248 0 -399 132q-160 138 -160 385q0 222 132 451l239 -97q-116 -223 -116 -357q0 -133 95 -198q82 -57 214 -57q209 0 499 178q-50 2 -172 69t-157 110l128 212q99 -93 214 -117q60 -11 253 -11q156 0 156 84q0 37 -24 109l249 47
q8 -48 33 -144t85 -96q65 0 93 93q5 33 24 151l244 -45l-24 -156q11 -43 95 -43q46 0 76 13q43 20 46 59l-52 200l246 55q62 -243 62 -305q0 -132 -125 -212q-108 -69 -246 -69q-168 0 -218 88q-74 -88 -190 -88q-126 0 -216 108q-31 -67 -137 -97q-62 -11 -177 -11h-137z
" />
    <glyph glyph-name="uniFCFC" unicode="&#xfeb3;&#xfef2;" horiz-adv-x="2786" arabic-form="isolated" 
d="M919 -575l-2 -226h-221l3 226h220zM625 -575l-6 -226h-220l2 226h224zM1288 0l35 -199q-335 -242 -668 -242q-248 0 -399 132q-160 138 -160 385q0 222 132 451l239 -97q-116 -223 -116 -357q0 -133 95 -198q82 -57 214 -57q209 0 499 178q-50 2 -172 69t-157 110
l128 212q99 -93 214 -117q60 -11 253 -11q156 0 156 84q0 37 -24 109l249 47q8 -48 33 -144t85 -96q65 0 93 93q5 33 24 151l244 -45l-24 -156q11 -43 95 -43q46 0 76 13q43 20 46 59l-52 200l246 55q62 -243 62 -305q0 -132 -125 -212q-108 -69 -246 -69q-168 0 -218 88
q-74 -88 -190 -88q-126 0 -216 108q-31 -67 -137 -97q-62 -11 -177 -11h-137z" />
    <glyph glyph-name="uniFCFD" unicode="&#xfeb7;&#xfef0;" horiz-adv-x="2786" arabic-form="isolated" 
d="M2192 1058h-231v227h231v-227zM1288 0l35 -199q-335 -242 -668 -242q-248 0 -399 132q-160 138 -160 385q0 222 132 451l239 -97q-116 -223 -116 -357q0 -133 95 -198q82 -57 214 -57q209 0 499 178q-50 2 -172 69t-157 110l128 212q99 -93 214 -117q60 -11 253 -11
q156 0 156 84q0 37 -24 109l249 47q8 -48 33 -144t85 -96q65 0 93 93q5 33 24 151l244 -45l-24 -156q11 -43 95 -43q46 0 76 13q43 20 46 59l-52 200l246 55q62 -243 62 -305q0 -132 -125 -212q-108 -69 -246 -69q-168 0 -218 88q-74 -88 -190 -88q-126 0 -216 108
q-31 -67 -137 -97q-62 -11 -177 -11h-137zM2033 748h-230v229h230v-229zM2356 748h-233v229h233v-229z" />
    <glyph glyph-name="uniFCFE" unicode="&#xfeb7;&#xfef2;" horiz-adv-x="2786" arabic-form="isolated" 
d="M919 -575l-2 -226h-221l3 226h220zM625 -575l-6 -226h-220l2 226h224zM2192 1058h-231v227h231v-227zM1288 0l35 -199q-335 -242 -668 -242q-248 0 -399 132q-160 138 -160 385q0 222 132 451l239 -97q-116 -223 -116 -357q0 -133 95 -198q82 -57 214 -57q209 0 499 178
q-50 2 -172 69t-157 110l128 212q99 -93 214 -117q60 -11 253 -11q156 0 156 84q0 37 -24 109l249 47q8 -48 33 -144t85 -96q65 0 93 93q5 33 24 151l244 -45l-24 -156q11 -43 95 -43q46 0 76 13q43 20 46 59l-52 200l246 55q62 -243 62 -305q0 -132 -125 -212
q-108 -69 -246 -69q-168 0 -218 88q-74 -88 -190 -88q-126 0 -216 108q-31 -67 -137 -97q-62 -11 -177 -11h-137zM2033 748h-230v229h230v-229zM2356 748h-233v229h233v-229z" />
    <glyph glyph-name="uniFD05" unicode="&#xfebb;&#xfef0;" horiz-adv-x="2874" arabic-form="isolated" 
d="M2563 402q0 67 -73 67q-65 0 -430 -210h344q159 0 159 143zM1416 1v-1h-128l35 -199q-335 -242 -668 -242q-248 0 -399 132q-160 138 -160 385q0 222 132 451l239 -97q-116 -223 -116 -357q0 -133 95 -198q82 -57 214 -57q209 0 499 178q-50 2 -172 69t-157 110l128 212
q99 -93 214 -117q58 -11 234 -11q120 1 120 85q0 32 -45 202l263 61q11 -78 52 -263q162 146 344 254q238 141 393 141q128 0 209 -78t83 -207v-12q0 -333 -225 -418q-67 -24 -508 -24h-97q-60 0 -160 43q-118 50 -121 93q-60 -93 -151 -121q-38 -12 -147 -14z" />
    <glyph glyph-name="uniFD06" unicode="&#xfebb;&#xfef2;" horiz-adv-x="2874" arabic-form="isolated" 
d="M919 -575l-2 -226h-221l3 226h220zM625 -575l-6 -226h-220l2 226h224zM2563 402q0 67 -73 67q-65 0 -430 -210h344q159 0 159 143zM1416 1v-1h-128l35 -199q-335 -242 -668 -242q-248 0 -399 132q-160 138 -160 385q0 222 132 451l239 -97q-116 -223 -116 -357
q0 -133 95 -198q82 -57 214 -57q209 0 499 178q-50 2 -172 69t-157 110l128 212q99 -93 214 -117q58 -11 234 -11q120 1 120 85q0 32 -45 202l263 61q11 -78 52 -263q162 146 344 254q238 141 393 141q128 0 209 -78t83 -207v-12q0 -333 -225 -418q-67 -24 -508 -24h-97
q-60 0 -160 43q-118 50 -121 93q-60 -93 -151 -121q-38 -12 -147 -14z" />
    <glyph glyph-name="uniFD07" unicode="&#xfebf;&#xfef0;" horiz-adv-x="2874" arabic-form="isolated" 
d="M2563 402q0 67 -73 67q-65 0 -430 -210h344q159 0 159 143zM2458 871h-230v231h230v-231zM1416 1v-1h-128l35 -199q-335 -242 -668 -242q-248 0 -399 132q-160 138 -160 385q0 222 132 451l239 -97q-116 -223 -116 -357q0 -133 95 -198q82 -57 214 -57q209 0 499 178
q-50 2 -172 69t-157 110l128 212q99 -93 214 -117q58 -11 234 -11q120 1 120 85q0 32 -45 202l263 61q11 -78 52 -263q162 146 344 254q238 141 393 141q128 0 209 -78t83 -207v-12q0 -333 -225 -418q-67 -24 -508 -24h-97q-60 0 -160 43q-118 50 -121 93q-60 -93 -151 -121
q-38 -12 -147 -14z" />
    <glyph glyph-name="uniFD08" unicode="&#xfebf;&#xfef2;" horiz-adv-x="2874" arabic-form="isolated" 
d="M919 -575l-2 -226h-221l3 226h220zM625 -575l-6 -226h-220l2 226h224zM2563 402q0 67 -73 67q-65 0 -430 -210h344q159 0 159 143zM2458 871h-230v231h230v-231zM1416 1v-1h-128l35 -199q-335 -242 -668 -242q-248 0 -399 132q-160 138 -160 385q0 222 132 451l239 -97
q-116 -223 -116 -357q0 -133 95 -198q82 -57 214 -57q209 0 499 178q-50 2 -172 69t-157 110l128 212q99 -93 214 -117q58 -11 234 -11q120 1 120 85q0 32 -45 202l263 61q11 -78 52 -263q162 146 344 254q238 141 393 141q128 0 209 -78t83 -207v-12q0 -333 -225 -418
q-67 -24 -508 -24h-97q-60 0 -160 43q-118 50 -121 93q-60 -93 -151 -121q-38 -12 -147 -14z" />
    <glyph glyph-name="uniFD0D" unicode="&#xfeb7;&#xfeae;" horiz-adv-x="2286" arabic-form="isolated" 
d="M1692 1058h-231v227h231v-227zM880 0q-89 2 -117 58q7 -32 7 -69q0 -173 -210 -320q-54 -40 -362 -194l-115 222l276 135q167 110 169 228q0 54 -32 156q-9 24 -29.5 71.5t-31.5 73.5l240 86q56 -136 80 -158q28 -25 125 -29v-1h45q156 0 156 84q0 37 -24 109l249 47
q8 -48 33 -144t85 -96q65 0 93 93q5 33 24 151l244 -45l-24 -156q11 -43 95 -43q46 0 76 13q43 20 46 59l-52 200l246 55q62 -243 62 -305q0 -132 -125 -212q-108 -69 -246 -69q-168 0 -218 88q-74 -88 -190 -88q-126 0 -216 108q-31 -67 -137 -97q-62 -11 -177 -11h-45z
M1533 748h-230v229h230v-229zM1856 748h-233v229h233v-229z" />
    <glyph glyph-name="uniFD0E" unicode="&#xfeb3;&#xfeae;" horiz-adv-x="2286" arabic-form="isolated" 
d="M880 0q-89 2 -117 58q7 -32 7 -69q0 -173 -210 -320q-54 -40 -362 -194l-115 222l276 135q167 110 169 228q0 54 -32 156q-9 24 -29.5 71.5t-31.5 73.5l240 86q56 -136 80 -158q28 -25 125 -29v-1h45q156 0 156 84q0 37 -24 109l249 47q8 -48 33 -144t85 -96q65 0 93 93
q5 33 24 151l244 -45l-24 -156q11 -43 95 -43q46 0 76 13q43 20 46 59l-52 200l246 55q62 -243 62 -305q0 -132 -125 -212q-108 -69 -246 -69q-168 0 -218 88q-74 -88 -190 -88q-126 0 -216 108q-31 -67 -137 -97q-62 -11 -177 -11h-45z" />
    <glyph glyph-name="uniFD0F" unicode="&#xfebb;&#xfeae;" horiz-adv-x="2404" arabic-form="isolated" 
d="M2093 402q0 67 -73 67q-65 0 -430 -210h344q159 0 159 143zM928 0h-43q-93 0 -122 58q7 -32 7 -69q0 -173 -210 -320q-54 -40 -362 -194l-115 222l276 135q167 110 169 228q0 54 -32 156q-9 24 -29.5 71.5t-31.5 73.5l240 86q56 -136 80 -158q34 -30 173 -30h5
q123 0 123 85q0 32 -45 202l263 61q11 -78 52 -263q162 146 344 254q238 141 393 141q128 0 209 -78t83 -207v-12q0 -333 -225 -418q-67 -24 -508 -24h-97q-60 0 -160 43q-118 50 -121 93q-60 -93 -151 -121q-41 -13 -165 -15z" />
    <glyph glyph-name="uniFD10" unicode="&#xfebf;&#xfeae;" horiz-adv-x="2404" arabic-form="isolated" 
d="M2093 402q0 67 -73 67q-65 0 -430 -210h344q159 0 159 143zM1988 871h-230v231h230v-231zM928 0h-43q-93 0 -122 58q7 -32 7 -69q0 -173 -210 -320q-54 -40 -362 -194l-115 222l276 135q167 110 169 228q0 54 -32 156q-9 24 -29.5 71.5t-31.5 73.5l240 86
q56 -136 80 -158q34 -30 173 -30h5q123 0 123 85q0 32 -45 202l263 61q11 -78 52 -263q162 146 344 254q238 141 393 141q128 0 209 -78t83 -207v-12q0 -333 -225 -418q-67 -24 -508 -24h-97q-60 0 -160 43q-118 50 -121 93q-60 -93 -151 -121q-41 -13 -165 -15z" />
    <glyph glyph-name="uniFD17" unicode="&#xfeb4;&#xfef0;" horiz-adv-x="2829" arabic-form="final" 
d="M1288 0l35 -199q-335 -242 -668 -242q-248 0 -399 132q-160 138 -160 385q0 222 132 451l239 -97q-116 -223 -116 -357q0 -133 95 -198q82 -57 214 -57q209 0 499 178q-50 2 -172 69t-157 110l128 212q99 -93 214 -117q60 -11 115.5 -12.5t166.5 -1.5q120 0 123 85
q0 2 -20 113l253 43q15 -97 32 -145q30 -93 89 -93q108 0 110 244l246 -41q-24 -131 -24 -153q0 -50 106 -50q93 0 93 69q0 26 -38 167l243 71q29 -166 48 -199q46 -108 156 -108v-259q-147 0 -240 84q-123 -84 -272 -84q-164 0 -214 88q-87 -88 -197 -88q-58 0 -114 34
q-48 20 -93 68q-43 -63 -143 -91q-65 -11 -179 -11h-131z" />
    <glyph glyph-name="uniFD18" unicode="&#xfeb4;&#xfef2;" horiz-adv-x="2829" arabic-form="final" 
d="M919 -575l-2 -226h-221l3 226h220zM625 -575l-6 -226h-220l2 226h224zM1288 0l35 -199q-335 -242 -668 -242q-248 0 -399 132q-160 138 -160 385q0 222 132 451l239 -97q-116 -223 -116 -357q0 -133 95 -198q82 -57 214 -57q209 0 499 178q-50 2 -172 69t-157 110
l128 212q99 -93 214 -117q60 -11 115.5 -12.5t166.5 -1.5q120 0 123 85q0 2 -20 113l253 43q15 -97 32 -145q30 -93 89 -93q108 0 110 244l246 -41q-24 -131 -24 -153q0 -50 106 -50q93 0 93 69q0 26 -38 167l243 71q29 -166 48 -199q46 -108 156 -108v-259q-147 0 -240 84
q-123 -84 -272 -84q-164 0 -214 88q-87 -88 -197 -88q-58 0 -114 34q-48 20 -93 68q-43 -63 -143 -91q-65 -11 -179 -11h-131z" />
    <glyph glyph-name="uniFD19" unicode="&#xfeb8;&#xfef0;" horiz-adv-x="2829" arabic-form="final" 
d="M2194 1050h-233v233h233v-233zM1288 0l35 -199q-335 -242 -668 -242q-248 0 -399 132q-160 138 -160 385q0 222 132 451l239 -97q-116 -223 -116 -357q0 -133 95 -198q82 -57 214 -57q209 0 499 178q-50 2 -172 69t-157 110l128 212q99 -93 214 -117q60 -11 115.5 -12.5
t166.5 -1.5q120 0 123 85q0 2 -20 113l253 43q15 -97 32 -145q30 -93 89 -93q108 0 110 244l246 -41q-24 -131 -24 -153q0 -50 106 -50q93 0 93 69q0 26 -38 167l243 71q29 -166 48 -199q46 -108 156 -108v-259q-147 0 -240 84q-123 -84 -272 -84q-164 0 -214 88
q-87 -88 -197 -88q-58 0 -114 34q-48 20 -93 68q-43 -63 -143 -91q-65 -11 -179 -11h-131zM2035 741h-232v235h232v-235zM2357 741h-234v235h234v-235z" />
    <glyph glyph-name="uniFD1A" unicode="&#xfeb8;&#xfef2;" horiz-adv-x="2829" arabic-form="final" 
d="M919 -575l-2 -226h-221l3 226h220zM625 -575l-6 -226h-220l2 226h224zM2194 1050h-233v233h233v-233zM1288 0l35 -199q-335 -242 -668 -242q-248 0 -399 132q-160 138 -160 385q0 222 132 451l239 -97q-116 -223 -116 -357q0 -133 95 -198q82 -57 214 -57q209 0 499 178
q-50 2 -172 69t-157 110l128 212q99 -93 214 -117q60 -11 115.5 -12.5t166.5 -1.5q120 0 123 85q0 2 -20 113l253 43q15 -97 32 -145q30 -93 89 -93q108 0 110 244l246 -41q-24 -131 -24 -153q0 -50 106 -50q93 0 93 69q0 26 -38 167l243 71q29 -166 48 -199
q46 -108 156 -108v-259q-147 0 -240 84q-123 -84 -272 -84q-164 0 -214 88q-87 -88 -197 -88q-58 0 -114 34q-48 20 -93 68q-43 -63 -143 -91q-65 -11 -179 -11h-131zM2035 741h-232v235h232v-235zM2357 741h-234v235h234v-235z" />
    <glyph glyph-name="uniFD21" unicode="&#xfebc;&#xfef0;" horiz-adv-x="2958" arabic-form="final" 
d="M2560 372q0 99 -65 99q-63 0 -220 -86q-61 -35 -221 -126h340q166 0 166 113zM1416 0h-128l35 -199q-335 -242 -668 -242q-248 0 -399 132q-160 138 -160 385q0 222 132 451l239 -97q-116 -223 -116 -357q0 -133 95 -198q82 -57 214 -57q209 0 499 178q-50 2 -172 69
t-157 110l128 212q99 -93 214 -117q60 -11 194 -13h55q110 0 110 74q0 47 -47 218l257 58q13 -80 22 -123q23 -89 49 -110q89 36 231 138q95 65 223 156q130 69 257 69q143 0 220.5 -82t79.5 -225q0 -52 2 -78q5 -58 20 -71q22 -22 155 -22v-259h-15q-101 0 -146 13
q-68 21 -119 84q-102 -97 -314 -97h-365q-186 0 -320 138q-66 -99 -161 -131q-29 -6 -144 -7z" />
    <glyph glyph-name="uniFD22" unicode="&#xfebc;&#xfef2;" horiz-adv-x="2958" arabic-form="final" 
d="M919 -575l-2 -226h-221l3 226h220zM625 -575l-6 -226h-220l2 226h224zM2560 372q0 99 -65 99q-63 0 -220 -86q-61 -35 -221 -126h340q166 0 166 113zM1416 0h-128l35 -199q-335 -242 -668 -242q-248 0 -399 132q-160 138 -160 385q0 222 132 451l239 -97
q-116 -223 -116 -357q0 -133 95 -198q82 -57 214 -57q209 0 499 178q-50 2 -172 69t-157 110l128 212q99 -93 214 -117q60 -11 194 -13h55q110 0 110 74q0 47 -47 218l257 58q13 -80 22 -123q23 -89 49 -110q89 36 231 138q95 65 223 156q130 69 257 69q143 0 220.5 -82
t79.5 -225q0 -52 2 -78q5 -58 20 -71q22 -22 155 -22v-259h-15q-101 0 -146 13q-68 21 -119 84q-102 -97 -314 -97h-365q-186 0 -320 138q-66 -99 -161 -131q-29 -6 -144 -7z" />
    <glyph glyph-name="uniFD23" unicode="&#xfec0;&#xfef0;" horiz-adv-x="2958" arabic-form="final" 
d="M2560 372q0 99 -65 99q-63 0 -220 -86q-61 -35 -221 -126h340q166 0 166 113zM2504 894h-229v229h229v-229zM1416 0h-128l35 -199q-335 -242 -668 -242q-248 0 -399 132q-160 138 -160 385q0 222 132 451l239 -97q-116 -223 -116 -357q0 -133 95 -198q82 -57 214 -57
q209 0 499 178q-50 2 -172 69t-157 110l128 212q99 -93 214 -117q60 -11 194 -13h55q110 0 110 74q0 47 -47 218l257 58q13 -80 22 -123q23 -89 49 -110q89 36 231 138q95 65 223 156q130 69 257 69q143 0 220.5 -82t79.5 -225q0 -52 2 -78q5 -58 20 -71q22 -22 155 -22
v-259h-15q-101 0 -146 13q-68 21 -119 84q-102 -97 -314 -97h-365q-186 0 -320 138q-66 -99 -161 -131q-29 -6 -144 -7z" />
    <glyph glyph-name="uniFD24" unicode="&#xfec0;&#xfef2;" horiz-adv-x="2958" arabic-form="final" 
d="M919 -575l-2 -226h-221l3 226h220zM625 -575l-6 -226h-220l2 226h224zM2560 372q0 99 -65 99q-63 0 -220 -86q-61 -35 -221 -126h340q166 0 166 113zM2504 894h-229v229h229v-229zM1416 0h-128l35 -199q-335 -242 -668 -242q-248 0 -399 132q-160 138 -160 385
q0 222 132 451l239 -97q-116 -223 -116 -357q0 -133 95 -198q82 -57 214 -57q209 0 499 178q-50 2 -172 69t-157 110l128 212q99 -93 214 -117q60 -11 194 -13h55q110 0 110 74q0 47 -47 218l257 58q13 -80 22 -123q23 -89 49 -110q89 36 231 138q95 65 223 156
q130 69 257 69q143 0 220.5 -82t79.5 -225q0 -52 2 -78q5 -58 20 -71q22 -22 155 -22v-259h-15q-101 0 -146 13q-68 21 -119 84q-102 -97 -314 -97h-365q-186 0 -320 138q-66 -99 -161 -131q-29 -6 -144 -7z" />
    <glyph glyph-name="uniFD29" unicode="&#xfeb8;&#xfeae;" horiz-adv-x="2339" arabic-form="final" 
d="M1704 1050h-233v233h233v-233zM885 0q-93 0 -122 58q7 -32 7 -69q0 -173 -210 -320q-54 -40 -362 -194l-115 222l276 135q167 110 169 228q0 54 -32 156q-9 24 -29.5 71.5t-31.5 73.5l240 86q56 -136 80 -158q34 -30 95.5 -31.5t113.5 -1.5q120 0 123 85q0 2 -20 113
l253 43q15 -97 32 -145q30 -93 89 -93q108 0 110 244l246 -41q-24 -131 -24 -153q0 -50 106 -50q93 0 93 69q0 26 -38 167l243 71q29 -166 48 -199q46 -108 156 -108v-259q-147 0 -240 84q-123 -84 -272 -84q-164 0 -214 88q-87 -88 -197 -88q-58 0 -114 34q-48 20 -93 68
q-43 -63 -143 -91q-65 -11 -179 -11h-44zM1545 741h-232v235h232v-235zM1867 741h-234v235h234v-235z" />
    <glyph glyph-name="uniFD2A" unicode="&#xfeb4;&#xfeae;" horiz-adv-x="2339" arabic-form="final" 
d="M885 0q-93 0 -122 58q7 -32 7 -69q0 -173 -210 -320q-54 -40 -362 -194l-115 222l276 135q167 110 169 228q0 54 -32 156q-9 24 -29.5 71.5t-31.5 73.5l240 86q56 -136 80 -158q34 -30 95.5 -31.5t113.5 -1.5q120 0 123 85q0 2 -20 113l253 43q15 -97 32 -145
q30 -93 89 -93q108 0 110 244l246 -41q-24 -131 -24 -153q0 -50 106 -50q93 0 93 69q0 26 -38 167l243 71q29 -166 48 -199q46 -108 156 -108v-259q-147 0 -240 84q-123 -84 -272 -84q-164 0 -214 88q-87 -88 -197 -88q-58 0 -114 34q-48 20 -93 68q-43 -63 -143 -91
q-65 -11 -179 -11h-44z" />
    <glyph glyph-name="uniFD2B" unicode="&#xfebc;&#xfeae;" horiz-adv-x="2488" arabic-form="final" 
d="M2090 372q0 99 -65 99q-63 0 -220 -86q-61 -35 -221 -126h340q166 0 166 113zM928 0h-48q-89 2 -117 58q7 -32 7 -69q0 -173 -210 -320q-54 -40 -362 -194l-115 222l276 135q167 110 169 228q0 54 -32 156q-9 24 -29.5 71.5t-31.5 73.5l240 86q56 -136 80 -158
q34 -30 173 -32h23q110 0 110 74q0 47 -47 218l257 58q13 -80 22 -123q23 -89 49 -110q89 36 231 138q95 65 223 156q130 69 257 69q143 0 220.5 -82t79.5 -225q0 -52 2 -78q5 -58 20 -71q22 -22 155 -22v-259h-15q-101 0 -146 13q-68 21 -119 84q-102 -97 -314 -97h-365
q-186 0 -320 138q-66 -99 -161 -131q-32 -6 -162 -7z" />
    <glyph glyph-name="uniFD2C" unicode="&#xfec0;&#xfeae;" horiz-adv-x="2488" arabic-form="final" 
d="M2090 372q0 99 -65 99q-63 0 -220 -86q-61 -35 -221 -126h340q166 0 166 113zM2034 894h-229v229h229v-229zM928 0h-48q-89 2 -117 58q7 -32 7 -69q0 -173 -210 -320q-54 -40 -362 -194l-115 222l276 135q167 110 169 228q0 54 -32 156q-9 24 -29.5 71.5t-31.5 73.5
l240 86q56 -136 80 -158q34 -30 173 -32h23q110 0 110 74q0 47 -47 218l257 58q13 -80 22 -123q23 -89 49 -110q89 36 231 138q95 65 223 156q130 69 257 69q143 0 220.5 -82t79.5 -225q0 -52 2 -78q5 -58 20 -71q22 -22 155 -22v-259h-15q-101 0 -146 13q-68 21 -119 84
q-102 -97 -314 -97h-365q-186 0 -320 138q-66 -99 -161 -131q-32 -6 -162 -7z" />
    <glyph glyph-name="uniFEF5" unicode="&#xfedf;&#xfe82;" horiz-adv-x="1022" arabic-form="isolated" 
d="M962 244q0 -242 -418 -242q-134 0 -374 32v996h253v-773q136 -11 162 -11q110 0 114 123v14q0 129 -34 319l-65 333l254 41q44 -251 72 -415q36 -223 36 -417zM566 1348l-18 -205l-354 53l-17 -112l-173 32l42 307z" />
    <glyph glyph-name="uniFEF6" unicode="&#xfee0;&#xfe82;" horiz-adv-x="1112" arabic-form="final" 
d="M1154 0h-56q-149 0 -216 86q-87 -84 -337 -84q-134 0 -376 32v997h253v-774q52 -8 97 -8q179 0 179 110q0 146 -34 339q-3 23 -65 337l257 41q20 -184 41 -369q28 -212 71 -363q18 -67 74 -81q10 -4 112 -4v-259zM566 1348l-18 -205l-354 53l-17 -112l-173 32l42 307z
" />
    <glyph glyph-name="uniFEF7" unicode="&#xfedf;&#xfe84;" horiz-adv-x="1007" arabic-form="isolated" 
d="M947 244q0 -242 -417 -242q-134 0 -375 32v996h254v-773q135 -11 162 -11q109 0 113 123v15q0 128 -33 318l-66 333l254 41q44 -251 72 -415q36 -223 36 -417zM522 1309q-56 -11 -197 -73q-95 -39 -198 -65l4 151q41 5 117 41q-128 11 -128 126q0 88 82 153q80 52 167 63
l45 -132q-123 -18 -125 -63v-1q0 -64 140 -64q52 0 93 9v-145z" />
    <glyph glyph-name="uniFEF8" unicode="&#xfee0;&#xfe84;" horiz-adv-x="1063" arabic-form="final" 
d="M1105 0h-56q-149 0 -216 86q-87 -84 -337 -84q-134 0 -376 32v997h253v-774q52 -8 97 -8q179 0 179 110q0 146 -34 339q-3 23 -65 337l257 41q20 -184 41 -369q28 -212 71 -363q18 -67 74 -81q10 -4 112 -4v-259zM522 1309q-56 -11 -197 -73q-95 -39 -198 -65l4 151
q41 5 117 41q-128 11 -128 126q0 88 82 153q80 52 167 63l45 -132q-123 -18 -125 -63v-1q0 -64 140 -64q52 0 93 9v-145z" />
    <glyph glyph-name="uniFEF9" unicode="&#xfedf;&#xfe88;" horiz-adv-x="971" arabic-form="isolated" 
d="M911 244q0 -242 -417 -242q-134 0 -374 32v996h253v-773q136 -11 162 -11q110 0 114 123v14q0 129 -34 319l-65 333l253 41q45 -251 73 -415q35 -223 35 -417zM522 -467q-54 -11 -195 -71q-95 -41 -198 -67l2 151q43 5 119 41q-128 11 -128 126q0 88 82 153q80 54 167 65
l45 -134q-123 -19 -125 -63v-2q0 -63 140 -63q50 0 91 9v-145z" />
    <glyph glyph-name="uniFEFA" unicode="&#xfee0;&#xfe88;" horiz-adv-x="1063" arabic-form="final" 
d="M1105 0h-56q-149 0 -216 86q-87 -84 -337 -84q-134 0 -376 32v997h253v-774q52 -8 97 -8q179 0 179 110q0 146 -34 339q-3 23 -65 337l257 41q20 -184 41 -369q28 -212 71 -363q18 -67 74 -81q10 -4 112 -4v-259zM537 -467q-54 -11 -195 -71q-95 -41 -198 -67l2 151
q43 5 119 41q-128 11 -128 126q0 88 82 153q80 54 167 65l45 -134q-123 -19 -125 -63v-2q0 -63 140 -63q50 0 91 9v-145z" />
    <glyph glyph-name="uniFEFB" unicode="&#xfedf;&#xfe8e;" horiz-adv-x="971" arabic-form="isolated" 
d="M911 244q0 -242 -417 -242q-134 0 -374 32v996h253v-773q136 -11 162 -11q110 0 114 123v7q0 131 -34 326l-65 333l253 41q45 -251 73 -415q35 -223 35 -417z" />
    <glyph glyph-name="uniFEFC" unicode="&#xfee0;&#xfe8e;" horiz-adv-x="1063" arabic-form="final" 
d="M1105 0h-56q-149 0 -216 86q-87 -84 -337 -84q-134 0 -376 32v997h253v-774q52 -8 97 -8q179 0 179 110q0 146 -34 339q-3 23 -65 337l257 41q20 -184 41 -369q28 -212 71 -363q18 -67 74 -81q10 -4 112 -4v-259z" />
    <glyph glyph-name="uniFE8B_uniFEE4.liga" unicode="&#xfe8b;&#xfee4;" horiz-adv-x="1563" 
d="M615 199v6q0 39 -24 139q-26 108 -62 114q-39 -15 -147 -177q175 -117 196 -117q35 0 37 35zM1445 868q-76 -19 -195 -69q-131 -54 -201 -67l2 151q55 9 122 37q-128 18 -128 128q0 95 80 155q67 50 169 63l45 -134q-123 -15 -125 -63v-1q0 -64 138 -64q19 0 93 11v-147z
M950 1q-41 1 -61 6q-48 15 -86 67q-29 -72 -96 -106.5t-146 -36.5h-7q-63 0 -156 65q-30 21 -144 105q-50 -58 -132 -88q-52 -13 -162 -13v259q141 0 229 113q37 51 143 216q90 114 214 114q106 0 162 -77q14 -19 28.5 -70.5t57.5 -208.5q23 -87 150 -87h113q138 0 138 101
v10q0 31 -33 161l239 50q61 -194 61 -304q0 -137 -104 -212q-93 -65 -237 -65h-171v1z" />
    <glyph glyph-name="uniFE8B_uniFEF0.liga" unicode="&#xfe8b;&#xfef0;" horiz-adv-x="1963" 
d="M1845 868q-76 -19 -195 -69q-131 -54 -201 -67l2 151q55 9 122 37q-128 18 -128 128q0 95 80 155q67 50 169 63l45 -134q-123 -15 -125 -63v-1q0 -64 138 -64q19 0 93 11v-147zM1288 0l35 -199q-335 -242 -668 -242q-248 0 -399 132q-160 138 -160 385q0 222 132 451
l239 -97q-116 -223 -116 -357q0 -133 95 -198q82 -57 214 -57q209 0 499 178q-50 2 -172 69t-157 110l128 212q99 -93 214 -117q60 -11 244 -11h41q138 0 138 101v10q0 31 -33 161l239 50q61 -194 61 -304q0 -137 -104 -212q-93 -65 -237 -65h-233z" />
    <glyph glyph-name="uniFE8B_uniFEF2.liga" unicode="&#xfe8b;&#xfef2;" horiz-adv-x="1963" 
d="M919 -575l-2 -226h-221l3 226h220zM625 -575l-6 -226h-220l2 226h224zM1845 868q-76 -19 -195 -69q-131 -54 -201 -67l2 151q55 9 122 37q-128 18 -128 128q0 95 80 155q67 50 169 63l45 -134q-123 -15 -125 -63v-1q0 -64 138 -64q19 0 93 11v-147zM1288 0l35 -199
q-335 -242 -668 -242q-248 0 -399 132q-160 138 -160 385q0 222 132 451l239 -97q-116 -223 -116 -357q0 -133 95 -198q82 -57 214 -57q209 0 499 178q-50 2 -172 69t-157 110l128 212q99 -93 214 -117q60 -11 244 -11h41q138 0 138 101v10q0 31 -33 161l239 50
q61 -194 61 -304q0 -137 -104 -212q-93 -65 -237 -65h-233z" />
    <glyph glyph-name="uniFE91_uniFEE4.liga" unicode="&#xfe91;&#xfee4;" horiz-adv-x="1523" 
d="M1386 -467h-251v247h251v-247zM615 199v6q0 39 -24 139q-26 108 -62 114q-39 -15 -147 -177q175 -117 196 -117q35 0 37 35zM960 0q-48 2 -71 7q-48 15 -86 67q-29 -72 -96 -106.5t-146 -36.5h-7q-63 0 -156 65q-30 21 -144 105q-50 -58 -132 -88q-52 -13 -162 -13v259
q141 0 229 113q37 51 143 216q90 114 214 114q106 0 162 -77q14 -19 28.5 -70.5t57.5 -208.5q23 -87 160 -87h113q138 0 138 101v10q0 31 -33 161l239 50q61 -194 61 -304q0 -137 -104 -212q-93 -65 -237 -65h-171z" />
    <glyph glyph-name="uniFE92_uniFEE6.liga" unicode="&#xfe92;&#xfee6;" horiz-adv-x="2143" 
d="M835 302h-229v229h229v-229zM1470 1q-82 6 -128 34l69 -335q-142 -52 -428 -156q-265 -93 -434 -93q-203 0 -331.5 123t-130.5 324q0 134 50 292l91 288l250 -63q-26 -78 -76 -240q-41 -141 -41 -251v-5q0 -92 69 -148q65 -54 163 -54q112 0 272 52q65 22 263 101
l-144 586l242 52q49 -188 71 -208q39 -41 217 -41q179 0 181 67q0 26 -13 80q-11 46 -17 82l246 59q15 -89 32 -176q13 -68 57.5 -90t184.5 -22v-259h-80q-149 0 -242 78q-106 -78 -296 -78h-97v1zM1937 -456h-229v229h229v-229z" />
    <glyph glyph-name="uniFE91_uniFEF0.liga" unicode="&#xfe91;&#xfef0;" horiz-adv-x="1893" 
d="M1756 -467h-251v247h251v-247zM1288 0l35 -199q-335 -242 -668 -242q-248 0 -399 132q-160 138 -160 385q0 222 132 451l239 -97q-116 -223 -116 -357q0 -133 95 -198q82 -57 214 -57q209 0 499 178q-50 2 -172 69t-157 110l128 212q99 -93 214 -117q60 -11 174 -11h91
q138 0 138 101v10q0 31 -33 161l239 50q61 -194 61 -304q0 -137 -104 -212q-93 -65 -237 -65h-213z" />
    <glyph glyph-name="uniFE91_uniFEF2.liga" unicode="&#xfe91;&#xfef2;" horiz-adv-x="1893" 
d="M919 -575l-2 -226h-221l3 226h220zM625 -575l-6 -226h-220l2 226h224zM1756 -467h-251v247h251v-247zM1288 0l35 -199q-335 -242 -668 -242q-248 0 -399 132q-160 138 -160 385q0 222 132 451l239 -97q-116 -223 -116 -357q0 -133 95 -198q82 -57 214 -57q209 0 499 178
q-50 2 -172 69t-157 110l128 212q99 -93 214 -117q60 -11 174 -11h91q138 0 138 101v10q0 31 -33 161l239 50q61 -194 61 -304q0 -137 -104 -212q-93 -65 -237 -65h-213z" />
    <glyph glyph-name="uniFE97_uniFEE4.liga" unicode="&#xfe97;&#xfee4;" horiz-adv-x="1569" 
d="M615 199v6q0 39 -24 139q-26 108 -62 114q-39 -15 -147 -177q175 -117 196 -117q35 0 37 35zM950 1q-41 1 -61 6q-48 15 -86 67q-29 -72 -96 -106.5t-146 -36.5h-7q-63 0 -156 65q-30 21 -144 105q-50 -58 -132 -88q-52 -13 -162 -13v259q141 0 229 113q37 51 143 216
q90 114 214 114q106 0 162 -77q14 -19 28.5 -70.5t57.5 -208.5q23 -87 150 -87h113q138 0 138 101v10q0 31 -33 161l239 50q61 -194 61 -304q0 -137 -104 -212q-93 -65 -237 -65h-171v1zM1240 959l-1 -222h-224l6 222h219zM1540 959l-4 -222h-221l2 222h223z" />
    <glyph glyph-name="uniFE98_uniFEE6.liga" unicode="&#xfe98;&#xfee6;" horiz-adv-x="2133" 
d="M835 302h-229v229h229v-229zM1460 2q-75 7 -118 33l69 -335q-142 -52 -428 -156q-265 -93 -434 -93q-203 0 -331.5 123t-130.5 324q0 134 50 292l91 288l250 -63q-26 -78 -76 -240q-41 -141 -41 -251v-5q0 -92 69 -148q65 -54 163 -54q112 0 272 52q65 22 263 101
l-144 586l242 52q49 -188 71 -208q38 -40 210 -41q176 1 178 67q0 26 -13 80q-11 46 -17 82l246 59q15 -89 32 -176q13 -68 57.5 -90t184.5 -22v-259h-80q-149 0 -242 78q-106 -78 -296 -78h-97v2zM1709 737h-221v222h221v-222zM2006 737h-222v222h222v-222z" />
    <glyph glyph-name="uniFE97_uniFEF0.liga" unicode="&#xfe97;&#xfef0;" horiz-adv-x="1969" 
d="M1288 0l35 -199q-335 -242 -668 -242q-248 0 -399 132q-160 138 -160 385q0 222 132 451l239 -97q-116 -223 -116 -357q0 -133 95 -198q82 -57 214 -57q209 0 499 178q-50 2 -172 69t-157 110l128 212q99 -93 214 -117q60 -11 194 -11h91q138 0 138 101v10q0 31 -33 161
l239 50q61 -194 61 -304q0 -137 -104 -212q-93 -65 -237 -65h-233zM1640 959l-1 -222h-224l6 222h219zM1940 959l-4 -222h-221l2 222h223z" />
    <glyph glyph-name="uniFE97_uniFEF2.liga" unicode="&#xfe97;&#xfef2;" horiz-adv-x="1969" 
d="M919 -575l-2 -226h-221l3 226h220zM625 -575l-6 -226h-220l2 226h224zM1288 0l35 -199q-335 -242 -668 -242q-248 0 -399 132q-160 138 -160 385q0 222 132 451l239 -97q-116 -223 -116 -357q0 -133 95 -198q82 -57 214 -57q209 0 499 178q-50 2 -172 69t-157 110
l128 212q99 -93 214 -117q60 -11 194 -11h91q138 0 138 101v10q0 31 -33 161l239 50q61 -194 61 -304q0 -137 -104 -212q-93 -65 -237 -65h-233zM1640 959l-1 -222h-224l6 222h219zM1940 959l-4 -222h-221l2 222h223z" />
    <glyph glyph-name="uniFE9C_uniFEAE.liga" unicode="&#xfe9c;&#xfeae;" horiz-adv-x="1543" 
d="M1267 1026h-220v223h220v-223zM870 0q-80 5 -107 58q7 -32 7 -69q0 -173 -210 -320q-54 -40 -362 -194l-115 222l276 135q167 110 169 228q0 54 -32 156q-9 24 -29.5 71.5t-31.5 73.5l240 86q56 -136 80 -158q33 -29 165 -30q173 1 175 67q0 26 -13 80q-11 46 -17 82
l246 59q15 -89 32 -176q13 -68 57.5 -90t184.5 -22v-259h-80q-149 0 -242 78q-106 -78 -296 -78h-97zM1119 737h-221v222h221v-222zM1416 737h-222v222h222v-222z" />
    <glyph glyph-name="uniFE9B_uniFEE4.liga" unicode="&#xfe9b;&#xfee4;" horiz-adv-x="1569" 
d="M615 199v6q0 39 -24 139q-26 108 -62 114q-39 -15 -147 -177q175 -117 196 -117q35 0 37 35zM1393 1249l-2 -223h-219l1 223h220zM950 1q-41 1 -61 6q-48 15 -86 67q-29 -72 -96 -106.5t-146 -36.5h-7q-63 0 -156 65q-30 21 -144 105q-50 -58 -132 -88q-52 -13 -162 -13
v259q141 0 229 113q37 51 143 216q90 114 214 114q106 0 162 -77q14 -19 28.5 -70.5t57.5 -208.5q23 -87 150 -87h113q138 0 138 101v10q0 31 -33 161l239 50q61 -194 61 -304q0 -137 -104 -212q-93 -65 -237 -65h-171v1zM1240 959l-1 -222h-224l6 222h219zM1540 959
l-4 -222h-221l2 222h223z" />
    <glyph glyph-name="uniFE9C_uniFEE6.liga" unicode="&#xfe9c;&#xfee6;" horiz-adv-x="2133" 
d="M835 302h-229v229h229v-229zM1857 1026h-220v223h220v-223zM1460 2q-75 7 -118 33l69 -335q-142 -52 -428 -156q-265 -93 -434 -93q-203 0 -331.5 123t-130.5 324q0 134 50 292l91 288l250 -63q-26 -78 -76 -240q-41 -141 -41 -251v-5q0 -92 69 -148q65 -54 163 -54
q112 0 272 52q65 22 263 101l-144 586l242 52q49 -188 71 -208q38 -40 210 -41q176 1 178 67q0 26 -13 80q-11 46 -17 82l246 59q15 -89 32 -176q13 -68 57.5 -90t184.5 -22v-259h-80q-149 0 -242 78q-106 -78 -296 -78h-97v2zM1709 737h-221v222h221v-222zM2006 737h-222
v222h222v-222z" />
    <glyph glyph-name="uniFE9B_uniFEF0.liga" unicode="&#xfe9b;&#xfef0;" horiz-adv-x="1969" 
d="M1793 1249l-2 -223h-219l1 223h220zM1288 0l35 -199q-335 -242 -668 -242q-248 0 -399 132q-160 138 -160 385q0 222 132 451l239 -97q-116 -223 -116 -357q0 -133 95 -198q82 -57 214 -57q209 0 499 178q-50 2 -172 69t-157 110l128 212q99 -93 214 -117q60 -11 194 -11
h91q138 0 138 101v10q0 31 -33 161l239 50q61 -194 61 -304q0 -137 -104 -212q-93 -65 -237 -65h-233zM1640 959l-1 -222h-224l6 222h219zM1940 959l-4 -222h-221l2 222h223z" />
    <glyph glyph-name="uniFE9B_uniFEF2.liga" unicode="&#xfe9b;&#xfef2;" horiz-adv-x="1969" 
d="M919 -575l-2 -226h-221l3 226h220zM625 -575l-6 -226h-220l2 226h224zM1793 1249l-2 -223h-219l1 223h220zM1288 0l35 -199q-335 -242 -668 -242q-248 0 -399 132q-160 138 -160 385q0 222 132 451l239 -97q-116 -223 -116 -357q0 -133 95 -198q82 -57 214 -57
q209 0 499 178q-50 2 -172 69t-157 110l128 212q99 -93 214 -117q60 -11 194 -11h91q138 0 138 101v10q0 31 -33 161l239 50q61 -194 61 -304q0 -137 -104 -212q-93 -65 -237 -65h-233zM1640 959l-1 -222h-224l6 222h219zM1940 959l-4 -222h-221l2 222h223z" />
    <glyph glyph-name="uniFEDB_uniFEF0.liga" unicode="&#xfedb;&#xfef0;" horiz-adv-x="2038" 
d="M1288 0l35 -199q-335 -242 -668 -242q-248 0 -399 132q-160 138 -160 385q0 222 132 451l239 -97q-116 -223 -116 -357q0 -133 95 -198q82 -57 214 -57q209 0 499 178q-50 2 -172 69t-157 110l128 212q99 -93 214 -117q60 -11 244 -11h119q129 2 134 59q0 51 -291 451
l488 417l166 -186l-322 -266q97 -127 147 -205q76 -121 76 -229q0 -147 -132 -227q-117 -73 -266 -73h-247z" />
    <glyph glyph-name="uniFEDC_uniFEF0.liga" unicode="&#xfedc;&#xfef0;" horiz-adv-x="2088" 
d="M1288 0l35 -199q-335 -242 -668 -242q-248 0 -399 132q-160 138 -160 385q0 222 132 451l239 -97q-116 -223 -116 -357q0 -133 95 -198q82 -57 214 -57q209 0 499 178q-50 2 -172 69t-157 110l128 212q99 -93 214 -117q60 -11 244 -11q92 0 94 -2q136 6 138 54
q0 52 -298 464l486 417l167 -190l-312 -268q134 -222 169 -272q138 -203 209 -203h61v-259h-45q-150 0 -277 95q-130 -95 -359 -95h-161z" />
    <glyph glyph-name="uniFEDB_uniFEF2.liga" unicode="&#xfedb;&#xfef2;" horiz-adv-x="2038" 
d="M919 -575l-2 -226h-221l3 226h220zM625 -575l-6 -226h-220l2 226h224zM1288 0l35 -199q-335 -242 -668 -242q-248 0 -399 132q-160 138 -160 385q0 222 132 451l239 -97q-116 -223 -116 -357q0 -133 95 -198q82 -57 214 -57q209 0 499 178q-50 2 -172 69t-157 110
l128 212q99 -93 214 -117q60 -11 244 -11h119q129 2 134 59q0 51 -291 451l488 417l166 -186l-322 -266q97 -127 147 -205q76 -121 76 -229q0 -147 -132 -227q-117 -73 -266 -73h-247z" />
    <glyph glyph-name="uniFEDC_uniFEF2.liga" unicode="&#xfedc;&#xfef2;" horiz-adv-x="2088" 
d="M919 -575l-2 -226h-221l3 226h220zM625 -575l-6 -226h-220l2 226h224zM1288 0l35 -199q-335 -242 -668 -242q-248 0 -399 132q-160 138 -160 385q0 222 132 451l239 -97q-116 -223 -116 -357q0 -133 95 -198q82 -57 214 -57q209 0 499 178q-50 2 -172 69t-157 110
l128 212q99 -93 214 -117q60 -11 244 -11q92 0 94 -2q136 6 138 54q0 52 -298 464l486 417l167 -190l-312 -268q134 -222 169 -272q138 -203 209 -203h61v-259h-45q-150 0 -277 95q-130 -95 -359 -95h-161z" />
    <glyph glyph-name="uniFEDF_uniFB51.rlig" unicode="&#xfedf;&#xfb51;" horiz-adv-x="972" 
d="M912 244q0 -242 -418 -242q-134 0 -374 32v996h253v-773q136 -11 162 -11q110 0 114 123v14q0 129 -34 319l-65 333l254 41q44 -251 72 -415q36 -223 36 -417zM433 1271q0 26 -27 26t-154 -75h129q28 0 40 11t12 38zM133 1131h-7l-12 -33l-98 23l35 130l84 -16
q79 65 147 106q90 53 140 53q46 0 74 -29q30 -31 30 -75v-2q0 -159 -177 -165h-97q-66 3 -119 8z" />
    <glyph glyph-name="uniFEE0_uniFB51.rlig" unicode="&#xfee0;&#xfb51;" horiz-adv-x="1063" 
d="M1105 0h-56q-149 0 -216 86q-87 -84 -337 -84q-134 0 -376 32v997h253v-774q52 -8 97 -8q179 0 179 110q0 146 -34 339q-3 23 -65 337l257 41q20 -184 41 -369q28 -212 71 -363q18 -67 74 -81q10 -4 112 -4v-259zM443 1271q0 26 -27 26t-154 -75h129q28 0 40 11t12 38z
M143 1131h-7l-12 -33l-98 23l35 130l84 -16q79 65 147 106q90 53 140 53q46 0 74 -29q30 -31 30 -75v-2q0 -159 -177 -165h-97q-66 3 -119 8z" />
    <glyph glyph-name="uniFEDF_uniFEE2.liga" unicode="&#xfedf;&#xfee2;" horiz-adv-x="1684" 
d="M851 216q0 47 -26 140q-28 109 -60 115q-41 -11 -147 -177q177 -115 197 -117q36 0 36 39zM1160 0q-84 1 -121 58q-73 -118 -220 -118q-75 0 -203 79.5t-184 81.5h-2q-121 0 -121 -125q0 -162 33 -380q17 -125 58 -376l-246 -35q-59 379 -69 435q-31 248 -33 438v5
q0 110 87 201q84 88 201 88q32 0 51 -4l162 240q113 131 240 133h2q122 0 178 -108q21 -43 53 -211q22 -121 59 -134q25 -9 88 -9q183 0 183 110q0 223 -107 666l266 41q112 -498 118 -821q0 -137 -145 -203q-112 -52 -268 -52h-60z" />
    <glyph glyph-name="uniFEE4_uniFE8E.liga" unicode="&#xfee4;&#xfe8e;" horiz-adv-x="1501" 
d="M1136 199v6q0 39 -24 139q-26 108 -62 114q-39 -15 -147 -177q175 -117 196 -117q35 0 37 35zM465 0q-67 0 -343 35v1037h257v-808q27 -4 113 -5q133 4 218 113q37 51 143 216q90 114 214 114q106 0 162 -77q14 -19 28.5 -70.5t57.5 -208.5q23 -87 140 -87h88v-259h-83
q-33 3 -50 7q-48 15 -86 67q-29 -72 -96 -106.5t-146 -36.5h-7q-63 0 -156 65q-30 21 -144 105q-50 -58 -132 -88q-38 -10 -107 -13h-71z" />
    <glyph glyph-name="uniFEE4_uniFE82.liga" unicode="&#xfee4;&#xfe82;" horiz-adv-x="1598" 
d="M671 1391l-21 -203l-423 48l-20 -110l-203 32l48 307zM1233 199v6q0 39 -24 139q-26 108 -62 114q-39 -15 -147 -177q175 -117 196 -117q35 0 37 35zM563 0q-67 0 -343 35v1037h257v-808q27 -4 112 -5q133 4 218 113q37 51 143 216q90 114 214 114q106 0 162 -77
q14 -19 28.5 -70.5t57.5 -208.5q23 -87 140 -87h88v-259h-83q-33 3 -50 7q-48 15 -86 67q-29 -72 -96 -106.5t-146 -36.5h-7q-63 0 -156 65q-30 21 -144 105q-50 -58 -132 -88q-38 -10 -107 -13h-70z" />
    <glyph glyph-name="uniFEE4_uniFE84.liga" unicode="&#xfee4;&#xfe84;" horiz-adv-x="1501" 
d="M463 1370q-56 -11 -197 -72q-95 -39 -198 -65l4 150q41 6 117 41q-128 11 -128 127q0 87 82 153q80 52 167 63l45 -132q-123 -19 -125 -64v-1q0 -64 140 -64q52 0 93 10v-146zM1136 199v6q0 39 -24 139q-26 108 -62 114q-39 -15 -147 -177q175 -117 196 -117q35 0 37 35z
M465 0q-67 0 -343 35v1037h257v-808q28 -4 113 -5q133 4 218 113q37 51 143 216q90 114 214 114q106 0 162 -77q14 -19 28.5 -70.5t57.5 -208.5q23 -87 140 -87h88v-259h-83q-33 3 -50 7q-48 15 -86 67q-29 -72 -96 -106.5t-146 -36.5h-7q-63 0 -156 65q-30 21 -144 105
q-50 -58 -132 -88q-38 -10 -107 -13h-71z" />
    <glyph glyph-name="uniFEE4_uniFE88.liga" unicode="&#xfee4;&#xfe88;" horiz-adv-x="1501" 
d="M498 -467q-54 -11 -195 -71q-95 -41 -198 -67l2 151q43 5 119 41q-128 11 -128 126q0 88 82 153q80 54 167 65l45 -134q-123 -19 -125 -63v-1q0 -64 140 -64q50 0 91 9v-145zM1136 199v6q0 39 -24 139q-26 108 -62 114q-39 -15 -147 -177q175 -117 196 -117q35 0 37 35z
M465 0q-67 0 -343 35v1037h257v-808q28 -4 113 -5q133 4 218 113q37 51 143 216q90 114 214 114q106 0 162 -77q14 -19 28.5 -70.5t57.5 -208.5q23 -87 140 -87h88v-259h-83q-33 3 -50 7q-48 15 -86 67q-29 -72 -96 -106.5t-146 -36.5h-7q-63 0 -156 65q-30 21 -144 105
q-50 -58 -132 -88q-38 -10 -107 -13h-71z" />
    <glyph glyph-name="uniFEE8_uniFEAE.liga" unicode="&#xfee8;&#xfeae;" horiz-adv-x="1553" 
d="M1321 745h-231v232h231v-232zM880 0q-89 2 -117 58q7 -32 7 -69q0 -173 -210 -320q-54 -40 -362 -194l-115 222l276 135q167 110 169 228q0 54 -32 156q-9 24 -29.5 71.5t-31.5 73.5l240 86q56 -136 80 -158q34 -30 170 -30q178 0 180 67q0 26 -13 80q-11 46 -17 82
l246 59q15 -89 32 -176q13 -68 57.5 -90t184.5 -22v-259h-80q-149 0 -242 78q-106 -78 -296 -78h-97z" />
    <glyph glyph-name="uniFEE7_uniFEE4.liga" unicode="&#xfee7;&#xfee4;" horiz-adv-x="1503" 
d="M616 199v6q0 39 -24 139q-26 108 -62 114q-39 -15 -147 -177q175 -117 196 -117q35 0 37 35zM1370 782h-227v233h227v-233zM940 0q-33 3 -50 7q-48 15 -86 67q-29 -72 -96 -106.5t-146 -36.5h-7q-63 0 -156 65q-30 21 -144 105q-50 -58 -132 -88q-38 -10 -107 -13h-56
v259h1q141 0 229 113q37 51 143 216q90 114 214 114q106 0 162 -77q14 -19 28.5 -70.5t57.5 -208.5q23 -87 140 -87h112q138 0 138 101v10q0 31 -33 161l239 50q61 -194 61 -304q0 -137 -104 -212q-93 -65 -237 -65h-171z" />
    <glyph glyph-name="uniFEE7_uniFEF0.liga" unicode="&#xfee7;&#xfef0;" horiz-adv-x="1883" 
d="M1750 782h-227v233h227v-233zM1288 0l35 -199q-335 -242 -668 -242q-248 0 -399 132q-160 138 -160 385q0 222 132 451l239 -97q-116 -223 -116 -357q0 -133 95 -198q82 -57 214 -57q209 0 499 178q-50 2 -172 69t-157 110l128 212q99 -93 214 -117q60 -11 174 -11h81
q138 0 138 101v10q0 31 -33 161l239 50q61 -194 61 -304q0 -137 -104 -212q-93 -65 -237 -65h-203z" />
    <glyph glyph-name="uniFEE7_uniFEF2.liga" unicode="&#xfee7;&#xfef2;" horiz-adv-x="1883" 
d="M919 -575l-2 -226h-221l3 226h220zM625 -575l-6 -226h-220l2 226h224zM1750 782h-227v233h227v-233zM1288 0l35 -199q-335 -242 -668 -242q-248 0 -399 132q-160 138 -160 385q0 222 132 451l239 -97q-116 -223 -116 -357q0 -133 95 -198q82 -57 214 -57q209 0 499 178
q-50 2 -172 69t-157 110l128 212q99 -93 214 -117q60 -11 174 -11h81q138 0 138 101v10q0 31 -33 161l239 50q61 -194 61 -304q0 -137 -104 -212q-93 -65 -237 -65h-203z" />
    <glyph glyph-name="uniFEF4_uniFEAE.liga" unicode="&#xfef4;&#xfeae;" horiz-adv-x="1543" 
d="M870 0q-80 5 -107 58q7 -32 7 -69q0 -173 -210 -320q-54 -40 -362 -194l-115 222l276 135q167 110 169 228q0 54 -32 156q-9 24 -29.5 71.5t-31.5 73.5l240 86q56 -136 80 -158q33 -29 165 -30q173 1 175 67q0 26 -13 80q-11 46 -17 82l246 59q15 -89 32 -176
q13 -68 57.5 -90t184.5 -22v-259h-80q-149 0 -242 78q-106 -78 -296 -78h-97zM1157 -464h-220v224h220v-224zM1455 -464h-224v224h224v-224z" />
    <glyph glyph-name="uniFEF3_uniFEE4.liga" unicode="&#xfef3;&#xfee4;" horiz-adv-x="1583" 
d="M616 199v6q0 39 -24 139q-26 108 -62 114q-39 -15 -147 -177q175 -117 196 -117q35 0 37 35zM940 0q-33 3 -50 7q-48 15 -86 67q-29 -72 -96 -106.5t-146 -36.5h-7q-63 0 -156 65q-30 21 -144 105q-50 -58 -132 -88q-38 -10 -107 -13h-56v259h1q141 0 229 113
q37 51 143 216q90 114 214 114q106 0 162 -77q14 -19 28.5 -70.5t57.5 -208.5q23 -87 140 -87h192q138 0 138 101v10q0 31 -33 161l239 50q61 -194 61 -304q0 -137 -104 -212q-93 -65 -237 -65h-251zM1229 -240l-2 -224h-224l6 224h220zM1528 -240l-3 -224h-222l2 224h223z
" />
    <glyph glyph-name="uniFEF4_uniFEE6.liga" unicode="&#xfef4;&#xfee6;" horiz-adv-x="2143" 
d="M835 302h-229v229h229v-229zM1470 1q-82 6 -128 34l69 -335q-142 -52 -428 -156q-265 -93 -434 -93q-203 0 -331.5 123t-130.5 324q0 134 50 292l91 288l250 -63q-26 -78 -76 -240q-41 -141 -41 -251v-5q0 -92 69 -148q65 -54 163 -54q112 0 272 52q65 22 263 101
l-144 586l242 52q49 -188 71 -208q39 -41 216 -41q180 0 182 67q0 26 -13 80q-11 46 -17 82l246 59q15 -89 32 -176q13 -68 57.5 -90t184.5 -22v-259h-80q-149 0 -242 78q-106 -78 -296 -78h-97v1zM1757 -464h-220v224h220v-224zM2055 -464h-224v224h224v-224z" />
    <glyph glyph-name="T_h.liga" unicode="Th" horiz-adv-x="1875" 
d="M969 1084h-330l-10 -1084h-238l9 1084h-361l2 204h929l1 108h227l-3 -571h3q124 139 304 139q249 0 249 -283l-7 -681h-227l2 235q3 290 3 398q0 127 -122 127q-80 0 -207 -123l-4 -637h-227z" />
    <glyph glyph-name="f_b.liga" unicode="fb" horiz-adv-x="1685" 
d="M189 767h-149v171h149v121q0 158 90 252q95 100 264 100h72v-182h-52q-143 0 -143 -162v-129h193v-171h-199v-767h-229zM988 240q50 -72 151 -72q118 0 188 98q62 87 62 209q0 120 -50 202q-58 94 -161 94q-108 0 -188 -123zM770 1396h228l-8 -571l4 -4q64 143 244 143
q169 0 275 -139q103 -133 103 -330q0 -196 -109 -350q-120 -171 -306 -171q-157 0 -216 108h-4v-82h-218z" />
    <glyph glyph-name="f_f_b.liga" unicode="ffb" horiz-adv-x="2265" 
d="M414 767v-767h-229l4 767h-149v171h149v121q0 158 90 252q95 100 264 100h72v-182h-52q-143 0 -143 -162v-129h349v121q0 158 90 252q95 100 264 100h72v-182h-52q-143 0 -143 -162v-129h193v-171h-199v-767h-229l4 767h-355zM1568 240q50 -72 151 -72q118 0 188 98
q62 87 62 209q0 120 -50 202q-58 94 -161 94q-108 0 -188 -123zM1350 1396h228l-8 -571l4 -4q64 143 244 143q169 0 275 -139q103 -133 103 -330q0 -196 -109 -350q-120 -171 -306 -171q-157 0 -216 108h-4v-82h-218z" />
    <glyph glyph-name="f_f.liga" unicode="ff" horiz-adv-x="1199" 
d="M414 767v-767h-229l4 767h-149v171h149v121q0 158 90 252q95 100 264 100h72v-182h-52q-143 0 -143 -162v-129h349v121q0 158 90 252q95 100 264 100h72v-182h-52q-143 0 -143 -162v-129h193v-171h-199v-767h-229l4 767h-355z" />
    <glyph glyph-name="f_h.liga" unicode="fh" horiz-adv-x="1675" 
d="M189 767h-149v171h149v121q0 158 90 252q95 100 264 100h72v-182h-52q-143 0 -143 -162v-129h193v-171h-199v-767h-229zM771 1396h227l-3 -571h3q124 139 304 139q249 0 249 -283l-7 -681h-227l2 235q3 290 3 398q0 127 -122 127q-80 0 -207 -123l-4 -637h-227z" />
    <glyph glyph-name="f_f_h.liga" unicode="ffh" horiz-adv-x="2255" 
d="M414 767v-767h-229l4 767h-149v171h149v121q0 158 90 252q95 100 264 100h72v-182h-52q-143 0 -143 -162v-129h349v121q0 158 90 252q95 100 264 100h72v-182h-52q-143 0 -143 -162v-129h193v-171h-199v-767h-229l4 767h-355zM1351 1396h227l-3 -571h3q124 139 304 139
q249 0 249 -283l-7 -681h-227l2 235q3 290 3 398q0 127 -122 127q-80 0 -207 -123l-4 -637h-227z" />
    <glyph glyph-name="f_f_i.liga" unicode="ffi" horiz-adv-x="1717" 
d="M1350 1288h227l-2 -219h-227zM1575 938l-9 -938h-227l9 767h-354v-767h-229l4 767h-355v-767h-229l4 767h-149v171h149v121q0 158 90 252q95 100 264 100h72v-182h-52q-143 0 -143 -162v-129h349v121q0 158 90 252q95 100 264 100h72v-182h-52q-143 0 -143 -162v-129h575
z" />
    <glyph glyph-name="f_j.liga" unicode="fj" horiz-adv-x="1137" 
d="M771 1288h228l-2 -219h-227zM769 766h-1v1h-354v-767h-229l4 767h-149v171h149v121q0 158 90 252q95 100 264 100h72v-182h-52q-143 0 -143 -162v-129h577l-8 -994q-1 -231 -72 -310q-76 -85 -302 -85v172q95 7 120 48q26 42 27 196z" />
    <glyph glyph-name="f_f_j.liga" unicode="ffj" horiz-adv-x="1717" 
d="M1351 1288h228l-2 -219h-227zM1349 766h-1v1h-354v-767h-229l4 767h-355v-767h-229l4 767h-149v171h149v121q0 158 90 252q95 100 264 100h72v-182h-52q-143 0 -143 -162v-129h349v121q0 158 90 252q95 100 264 100h72v-182h-52q-143 0 -143 -162v-129h577l-8 -994
q-1 -231 -72 -310q-76 -85 -302 -85v172q95 7 120 48q26 42 27 196z" />
    <glyph glyph-name="f_k.liga" unicode="fk" horiz-adv-x="1570" 
d="M189 767h-149v171h149v121q0 158 90 252q95 100 264 100h72v-182h-52q-143 0 -143 -162v-129h193v-171h-199v-767h-229zM773 1396h227l-11 -895h4l398 493l162 -136l-327 -368l327 -419l-186 -129l-374 518h-4v-460h-227z" />
    <glyph glyph-name="f_f_k.liga" unicode="ffk" horiz-adv-x="2150" 
d="M414 767v-767h-229l4 767h-149v171h149v121q0 158 90 252q95 100 264 100h72v-182h-52q-143 0 -143 -162v-129h349v121q0 158 90 252q95 100 264 100h72v-182h-52q-143 0 -143 -162v-129h193v-171h-199v-767h-229l4 767h-355zM1353 1396h227l-11 -895h4l398 493l162 -136
l-327 -368l327 -419l-186 -129l-374 518h-4v-460h-227z" />
    <glyph glyph-name="f_f_l.liga" unicode="ffl" horiz-adv-x="1717" 
d="M414 767v-767h-229l4 767h-149v171h149v121q0 158 90 252q95 100 264 100h72v-182h-52q-143 0 -143 -162v-129h349v121q0 158 90 252q95 100 264 100h72v-182h-52q-143 0 -143 -162v-129h193v-171h-199v-767h-229l4 767h-355zM1350 1396h227l-11 -1396h-227z" />
    <glyph glyph-name="f_t.liga" unicode="ft" horiz-adv-x="1219" 
d="M731 938v-2l36 -1l7 335h227l-7 -335l208 3v-171h-208l-6 -275q-2 -94 -2 -248q0 -99 77 -99q41 0 104 45l65 -138l-76 -41q-66 -37 -142 -37q-255 0 -255 281q0 143 2 225l6 287h-353v-767h-229l4 767h-149v171h149v121q0 158 90 252q95 100 264 100h72v-182h-52
q-143 0 -143 -162v-129h311z" />
    <glyph glyph-name="f_f_t.liga" unicode="fft" horiz-adv-x="1799" 
d="M414 767v-767h-229l4 767h-149v171h149v121q0 158 90 252q95 100 264 100h72v-182h-52q-143 0 -143 -162v-129h349v121q0 158 90 252q95 100 264 100h72v-182h-52q-143 0 -143 -162v-129h311v-2l36 -1l7 335h227l-7 -335l208 3v-171h-208l-6 -275q-2 -94 -2 -248
q0 -99 77 -99q41 0 104 45l65 -138l-76 -41q-66 -37 -142 -37q-255 0 -255 281q0 143 2 225l6 287h-353v-767h-229l4 767h-355z" />
    <glyph glyph-name="uni0647.fina" unicode="&#x647;" horiz-adv-x="835" arabic-form="final" 
d="M311 596l244 61q73 -259 73 -346q0 -86 -59 -137q100 85 232 85h76v-259q-91 0 -125 -13q-61 -30 -61 -104q0 -78 86 -144l-188 -160q-157 104 -157 302q0 82 36 158q-23 -11 -45 -19q-46 -23 -253 -123l-115 225l111 53q136 59 176 104q31 35 31 74q0 12 -3 24
q-16 70 -59 219z" />
    <glyph glyph-name="uni0672.fina" unicode="&#x672;" horiz-adv-x="492" 
d="M534 0h-68q-67 0 -343 35v1037h257v-808q33 -5 154 -5v-259zM262 1289q-30 15 -49 43q-20 30 -20 62q0 125 221 145l25 -108q-56 -6 -72 -10q-48 -12 -48 -41q0 -34 68 -54q58 -19 108 -19q10 0 15 1l-25 -120q-36 3 -67 3q-50 0 -130 -17q-14 -3 -31 -3q-54 0 -137 31
l-13 -37l-107 25l38 142z" />
    <glyph glyph-name="uni0673.fina" unicode="&#x673;" horiz-adv-x="492" 
d="M534 0h-68q-67 0 -343 35v1037h257v-808q33 -5 154 -5v-259zM262 -361q-30 15 -49 43q-20 30 -20 62q0 125 221 145l25 -108q-56 -6 -72 -10q-48 -12 -48 -41q0 -34 68 -54q58 -19 108 -19q10 0 15 1l-25 -120q-36 3 -67 3q-50 0 -130 -17q-14 -3 -31 -3q-54 0 -137 31
l-13 -37l-107 25l38 142z" />
    <glyph glyph-name="uni0675.fina" unicode="&#x675;" horiz-adv-x="922" 
d="M964 0h-139q-427 0 -703 35v1037h257v-808q34 -5 585 -5v-259zM852 1061q-56 -11 -197 -72q-95 -39 -198 -65l4 150q41 6 117 41q-128 11 -128 127q0 87 82 153q80 52 167 63l45 -132q-123 -19 -125 -64v-1q0 -64 140 -64q52 0 93 10v-146z" />
    <glyph glyph-name="uni0676.fina" unicode="&#x676;" 
d="M1077 0h-251q-41 -192 -342 -343l-222 -104l-117 220q80 35 240 110q149 78 207 145q-227 33 -292 61q-153 66 -153 235q0 114 112 222q225 217 333 217h4q166 0 221 -182q28 -93 28 -322h232v-259zM614 251v187q0 61 -28 61q-18 0 -105.5 -76.5t-87.5 -94.5
q0 -36 95 -60q-4 0 126 -17zM952 981q-28 -5 -157 -57q-100 -39 -158 -53v120q30 3 99 31q-103 13 -103 105q0 72 66 121q52 41 132 54l37 -108q-101 -15 -101 -53v-1q0 -51 110 -51q41 0 75 10v-118z" />
    <glyph glyph-name="uni0677.fina" unicode="&#x677;" 
d="M1077 0h-251q-41 -192 -342 -343l-222 -104l-117 220q80 35 240 110q149 78 207 145q-227 33 -292 61q-153 66 -153 235q0 114 112 222q225 217 333 217h4q166 0 221 -182q28 -93 28 -322h232v-259zM614 251v187q0 61 -28 61q-18 0 -105.5 -76.5t-87.5 -94.5
q0 -36 95 -60q-4 0 126 -17zM531 1225l1 -2q10 -26 10 -49q0 -75 -90 -134l-254 -173l-37 52q96 62 171 128q-46 27 -63 71q-8 19 -8 39q0 29 16 62q25 54 71 71l5 2q23 9 48 9q30 0 61 -13q53 -20 69 -63zM462 1187q-15 42 -52 42q-14 0 -31 -6q-45 -17 -45 -54
q0 -13 5 -29q9 -23 35 -33q13 -5 26 -5q12 0 23 4q44 17 44 55q0 12 -5 26zM952 981q-28 -5 -157 -57q-100 -39 -158 -53v120q30 3 99 31q-103 13 -103 105q0 72 66 121q52 41 132 54l37 -108q-101 -15 -101 -53v-1q0 -51 110 -51q41 0 75 10v-118z" />
    <glyph glyph-name="uni0678.init" unicode="&#x678;" horiz-adv-x="786" 
d="M67 259q138 0 138 101v10q0 31 -33 161l239 50q61 -194 61 -304q0 -137 -104 -212q-93 -65 -237 -65h-171v259h107zM685 868q-76 -19 -195 -69q-131 -54 -201 -67l2 151q55 9 122 37q-128 18 -128 128q0 95 80 155q67 50 169 63l45 -134q-123 -15 -125 -63v-1
q0 -64 138 -64q19 0 93 11v-147z" />
    <glyph glyph-name="uni0678.medi" unicode="&#x678;" horiz-adv-x="833" 
d="M715 804q-44 -9 -195 -72q-106 -45 -201 -64l2 147q54 6 122 41q-128 12 -128 129q0 89 82 151q71 52 167 67l45 -134q-123 -21 -125 -67v-1q0 -61 138 -61q47 0 93 8v-144zM875 0h-280q-149 0 -242 78q-106 -78 -296 -78h-97v259h43q180 0 182 67q0 26 -13 80
q-11 46 -17 82l246 59q15 -89 32 -176q13 -68 57.5 -90t384.5 -22v-259z" />
    <glyph glyph-name="uni0678.fina" unicode="&#x678;" horiz-adv-x="1464" 
d="M1506 0h-218l35 -199q-335 -242 -668 -242q-248 0 -399 132q-160 138 -160 385q0 222 132 451l239 -97q-116 -223 -116 -357q0 -133 95 -198q82 -57 214 -57q209 0 499 178q-50 2 -172 69t-157 110l128 212q99 -93 214 -117q60 -11 334 -11v-259zM1380 687
q-54 -13 -198 -73q-93 -39 -195 -65l2 149q43 6 119 41q-130 13 -130 127q0 87 82 154q82 52 169 64l45 -134q-125 -19 -125 -64v-2q0 -63 140 -63q50 0 91 11v-145z" />
    <glyph glyph-name="uni067C.init" unicode="&#x67c;" horiz-adv-x="577" 
d="M550 959l-2 -222h-223l4 222h221zM250 959l-1 -222h-220l2 222h219zM371 -117q0 13 -73 117q-118 -111 -118 -129q0 -22 40 -22h114q37 0 37 34zM435 56l62 -93q33 -49 33 -106q0 -68 -45 -112t-113 -44h-197q-70 0 -114.5 44.5t-44.5 114.5v2q0 62 67 138h-123v259h187
q138 0 138 101v10q0 31 -33 161l239 50q61 -194 61 -304q0 -137 -104 -212q-6 -5 -13 -9z" />
    <glyph glyph-name="uni067C.medi" unicode="&#x67c;" horiz-adv-x="793" 
d="M667 737h-221v222h221v-222zM371 737h-221v222h221v-222zM361 -117q0 13 -73 117q-118 -111 -118 -129q0 -22 40 -22h114q37 0 37 34zM73 0h-113v259h203q180 0 182 67q0 26 -13 80q-11 46 -17 82l246 59q15 -89 32 -176q13 -68 57.5 -90t184.5 -22v-259h-80
q-149 0 -242 78q-33 -25 -75 -41l49 -74q33 -49 33 -106q0 -68 -45 -112t-113 -44h-197q-70 0 -114.5 44.5t-44.5 114.5v2q0 62 67 138z" />
    <glyph glyph-name="uni067C.fina" unicode="&#x67c;" horiz-adv-x="1717" 
d="M1081 735h-229v228h229v-228zM761 735h-231v228h231v-228zM901 -117q0 13 -73 117q-118 -111 -118 -129q0 -22 40 -22h114q37 0 37 34zM613 0h-204q-141 0 -246 69q-117 78 -117 216q0 59 15 119q22 88 24 119l264 -45q-16 -80 -26 -128q0 -91 200 -91h607q193 0 193 97
q0 31 -26 122l261 47q5 -47 17 -143q7 -64 45 -93.5t139 -29.5v-259q-188 0 -240 80q-80 -80 -276 -80h-241l25 -37q33 -49 33 -106q0 -68 -45 -112t-113 -44h-197q-70 0 -114.5 44.5t-44.5 114.5v2q0 62 67 138z" />
    <glyph glyph-name="uni067D.init" unicode="&#x67d;" horiz-adv-x="579" 
d="M183 737l-1 223h219l2 -223h-220zM327 1027l-2 222h221l4 -222h-223zM31 1027l-6 222h224l1 -222h-219zM67 259q138 0 138 101v10q0 31 -33 161l239 50q61 -194 61 -304q0 -137 -104 -212q-93 -65 -237 -65h-171v259h107z" />
    <glyph glyph-name="uni067D.medi" unicode="&#x67d;" horiz-adv-x="633" 
d="M377 737h-220v224h220v-224zM526 1028h-222v221h222v-221zM229 1028h-221v221h221v-221zM675 0h-80q-149 0 -242 78q-106 -78 -296 -78h-97v259h43q180 0 182 67q0 26 -13 80q-11 46 -17 82l246 59q15 -89 32 -176q13 -68 57.5 -90t184.5 -22v-259z" />
    <glyph glyph-name="uni067D.fina" unicode="&#x67d;" horiz-adv-x="1717" 
d="M940 568h-229v233h229v-233zM1102 877h-231v231h231v-231zM780 877h-229v231h229v-231zM1759 0q-188 0 -240 80q-80 -80 -276 -80h-834q-141 0 -246 69q-117 78 -117 216q0 59 15 119q22 88 24 119l264 -45q-16 -80 -26 -128q0 -91 200 -91h607q193 0 193 97
q0 31 -26 122l261 47q5 -47 17 -143q7 -64 45 -93.5t139 -29.5v-259z" />
    <glyph glyph-name="uni0681.init" unicode="&#x681;" 
d="M965 309q-134 -50 -284 -147q-177 -115 -347 -147q-74 -15 -374 -15v259q400 0 672 130l-326 75l-16 -54l-241 65l80 279l836 -203v-242zM680 975q-54 -11 -197 -72q-95 -39 -196 -65l2 150q41 6 121 41q-130 11 -130 127q0 89 80 153q86 54 168 63l46 -132
q-119 -19 -125 -64q0 -65 138 -65q52 0 93 10v-146z" />
    <glyph glyph-name="uni0681.medi" unicode="&#x681;" horiz-adv-x="996" 
d="M1038 0h-162q-104 0 -236 125q-196 -125 -680 -125v259q469 0 676 130l-326 75l-19 -54l-243 67l87 277l830 -203l-1 -242l-81 -39q32 -11 155 -11v-259zM700 945q-54 -11 -197 -72q-95 -39 -196 -65l2 150q41 6 121 41q-130 11 -130 127q0 89 80 153q86 54 168 63
l46 -132q-119 -19 -125 -64q0 -65 138 -65q52 0 93 10v-146z" />
    <glyph glyph-name="uni0681.fina" unicode="&#x681;" horiz-adv-x="1082" 
d="M1124 0h-187q-109 0 -236 117q-110 -80 -237 -175q-135 -123 -137 -245v-3q0 -142 199 -204q71 -22 318 -56l-43 -248q-197 30 -335 58q-178 37 -288 136q-125 110 -125 307q0 172 93 311q69 101 233 212q4 2 281 170l-294 69l-32 -77l-231 54l82 308l844 -164l-4 -229
l-84 -58q47 -24 183 -24v-259zM840 935q-54 -11 -197 -72q-95 -39 -196 -65l2 150q41 6 121 41q-130 11 -130 127q0 89 80 153q86 54 168 63l46 -132q-119 -19 -125 -64q0 -65 138 -65q52 0 93 10v-146z" />
    <glyph glyph-name="uni0682.init" unicode="&#x682;" 
d="M965 309q-134 -50 -284 -147q-177 -115 -347 -147q-74 -15 -374 -15v259q400 0 672 130l-326 75l-16 -54l-241 65l80 279l836 -203v-242zM613 1146h-231v231h231v-231zM610 837h-229v227h229v-227z" />
    <glyph glyph-name="uni0682.medi" unicode="&#x682;" horiz-adv-x="996" 
d="M1038 0h-162q-104 0 -236 125q-196 -125 -680 -125v259q469 0 676 130l-326 75l-19 -54l-243 67l87 277l830 -203l-1 -242l-81 -39q32 -11 155 -11v-259zM613 1116h-231v231h231v-231zM610 807h-229v227h229v-227z" />
    <glyph glyph-name="uni0682.fina" unicode="&#x682;" horiz-adv-x="1082" 
d="M1124 0h-187q-109 0 -236 117q-110 -80 -237 -175q-135 -123 -137 -245v-3q0 -142 199 -204q71 -22 318 -56l-43 -248q-197 30 -335 58q-178 37 -288 136q-125 110 -125 307q0 172 93 311q69 101 233 212q4 2 281 170l-294 69l-32 -77l-231 54l82 308l844 -164l-4 -229
l-84 -58q47 -24 183 -24v-259zM753 1116h-231v231h231v-231zM750 807h-229v227h229v-227z" />
    <glyph glyph-name="uni0685.init" unicode="&#x685;" 
d="M965 309q-134 -50 -284 -147q-177 -115 -347 -147q-74 -15 -374 -15v259q400 0 672 130l-326 75l-16 -54l-241 65l80 279l836 -203v-242zM637 1144h-229v231h229v-231zM801 837h-233v229h233v-229zM477 837h-229v229h229v-229z" />
    <glyph glyph-name="uni0685.medi" unicode="&#x685;" horiz-adv-x="996" 
d="M1038 0h-162q-104 0 -236 125q-196 -125 -680 -125v259q469 0 676 130l-326 75l-19 -54l-243 67l87 277l830 -203l-1 -242l-81 -39q32 -11 155 -11v-259zM667 1114h-229v231h229v-231zM831 807h-233v229h233v-229zM507 807h-229v229h229v-229z" />
    <glyph glyph-name="uni0685.fina" unicode="&#x685;" horiz-adv-x="1082" 
d="M1124 0h-187q-109 0 -236 117q-110 -80 -237 -175q-135 -123 -137 -245v-3q0 -142 199 -204q71 -22 318 -56l-43 -248q-197 30 -335 58q-178 37 -288 136q-125 110 -125 307q0 172 93 311q69 101 233 212q4 2 281 170l-294 69l-32 -77l-231 54l82 308l844 -164l-4 -229
l-84 -58q47 -24 183 -24v-259zM687 1114h-229v231h229v-231zM851 807h-233v229h233v-229zM527 807h-229v229h229v-229z" />
    <glyph glyph-name="uni0689.fina" unicode="&#x689;" horiz-adv-x="946" 
d="M541 -117q0 13 -73 117q-118 -111 -118 -129q0 -22 40 -22h114q37 0 37 34zM473 254q85 13 85 51q0 43 -101 201q-45 69 -134 209l220 140l268 -481q48 -89 65 -100q30 -15 112 -15v-259h-15q-97 0 -129 13q-54 21 -104 76q-50 -40 -116 -62l43 -64q33 -49 33 -106
q0 -68 -45 -112t-113 -44h-197q-70 0 -114.5 44.5t-44.5 114.5v2q0 62 67 138h-159v259q246 -13 255 -13q73 0 120 7l3 2z" />
    <glyph glyph-name="uni068A.fina" unicode="&#x68a;" horiz-adv-x="946" 
d="M988 0h-15q-97 0 -129 13q-54 21 -104 76q-112 -89 -298 -89h-348v259q246 -13 255 -13q209 0 209 59q0 43 -101 201q-45 69 -134 209l220 140l268 -481q48 -89 65 -100q30 -15 112 -15v-259zM518 -456h-229v229h229v-229z" />
    <glyph glyph-name="uni068B.fina" unicode="&#x68b;" horiz-adv-x="946" 
d="M988 0h-15q-97 0 -129 13q-54 21 -104 76q-112 -89 -298 -89h-348v259q246 -13 255 -13q209 0 209 59q0 43 -101 201q-45 69 -134 209l220 140l268 -481q48 -89 65 -100q30 -15 112 -15v-259zM696 1160q0 -114 -93 -156q-55 -26 -193 -26h-201v119h29l-28 367l110 11
l20 -272q72 44 112 65q68 37 121 37q61 0 94 -44q29 -38 29 -101zM589 1162q0 32 -33 32q-29 0 -103 -38q-14 -10 -101 -59h146q91 0 91 65zM518 -456h-229v229h229v-229z" />
    <glyph glyph-name="uni068F.fina" unicode="&#x68f;" horiz-adv-x="946" 
d="M988 0h-15q-97 0 -129 13q-54 21 -104 76q-112 -89 -298 -89h-348v259q246 -13 255 -13q209 0 209 59q0 43 -101 201q-45 69 -134 209l220 140l268 -481q48 -89 65 -100q30 -15 112 -15v-259zM550 981h-229v231h229v-231zM714 1290h-233v229h233v-229zM390 1290h-229v229
h229v-229z" />
    <glyph glyph-name="uni0690.fina" unicode="&#x690;" horiz-adv-x="946" 
d="M988 0h-15q-97 0 -129 13q-54 21 -104 76q-112 -89 -298 -89h-348v259q246 -13 255 -13q209 0 209 59q0 43 -101 201q-45 69 -134 209l220 140l268 -481q48 -89 65 -100q30 -15 112 -15v-259zM714 1288h-233v229h233v-229zM390 1288h-229v229h229v-229zM714 981h-233v229
h233v-229zM390 981h-229v229h229v-229z" />
    <glyph glyph-name="uni0692.fina" unicode="&#x692;" horiz-adv-x="886" 
d="M928 0h-33q-103 0 -132 58q7 -32 7 -65q0 -179 -210 -324q-56 -41 -362 -194l-115 222q257 124 276 135q169 110 169 228q0 55 -32 156q-9 24 -29.5 71.5t-31.5 73.5l240 86q56 -134 80 -158q37 -30 173 -30v-259zM539 657l-176 41q-61 112 -103 201q-39 89 -55 163h182
q9 -33 25 -72q26 -65 51 -113q25 48 50 113q16 39 26 72h181q-16 -74 -55 -163q-49 -106 -126 -242z" />
    <glyph glyph-name="uni0693.fina" unicode="&#x693;" horiz-adv-x="886" 
d="M621 -451q0 13 -58 117q-92 -111 -92 -129q0 -22 31 -22h89q30 0 30 34zM343 -451q-63 -33 -145 -74l-115 222q257 124 276 135q169 110 169 228q0 55 -32 156q-9 24 -29.5 71.5t-31.5 73.5l240 86q56 -134 80 -158q37 -30 173 -30v-259h-33q-103 0 -132 58q7 -32 7 -65
q0 -132 -113 -245l62 -119q26 -49 26 -106q0 -68 -35.5 -112t-87.5 -44h-155q-55 0 -90 44.5t-35 114.5v2q0 10 1 21z" />
    <glyph glyph-name="uni0694.fina" unicode="&#x694;" horiz-adv-x="886" 
d="M928 0h-33q-103 0 -132 58q7 -32 7 -65q0 -179 -210 -324q-56 -41 -362 -194l-115 222q257 124 276 135q169 110 169 228q0 55 -32 156q-9 24 -29.5 71.5t-31.5 73.5l240 86q56 -134 80 -158q37 -30 173 -30v-259zM742 -706h-233v229h233v-229z" />
    <glyph glyph-name="uni0695.fina" unicode="&#x695;" horiz-adv-x="886" 
d="M928 0h-33q-103 0 -132 58q7 -32 7 -65q0 -179 -210 -324q-56 -41 -362 -194l-115 222q257 124 276 135q169 110 169 228q0 55 -32 156q-9 24 -29.5 71.5t-31.5 73.5l240 86q56 -134 80 -158q37 -30 173 -30v-259zM539 -1053l-176 41q-61 112 -103 201q-39 89 -55 163
h182q9 -33 25 -72q26 -65 51 -113q25 48 50 113q16 39 26 72h181q-16 -74 -55 -163q-49 -106 -126 -242z" />
    <glyph glyph-name="uni0696.fina" unicode="&#x696;" horiz-adv-x="886" 
d="M928 0h-33q-103 0 -132 58q7 -32 7 -65q0 -179 -210 -324q-56 -41 -362 -194l-115 222q257 124 276 135q169 110 169 228q0 55 -32 156q-9 24 -29.5 71.5t-31.5 73.5l240 86q56 -134 80 -158q37 -30 173 -30v-259zM742 -706h-233v229h233v-229zM368 -36h-229v229h229
v-229z" />
    <glyph glyph-name="uni0697.fina" unicode="&#x697;" horiz-adv-x="886" 
d="M928 0h-33q-103 0 -132 58q7 -32 7 -65q0 -179 -210 -324q-56 -41 -362 -194l-115 222q257 124 276 135q169 110 169 228q0 55 -32 156q-9 24 -29.5 71.5t-31.5 73.5l240 86q56 -134 80 -158q37 -30 173 -30v-259zM777 666h-233v229h233v-229zM453 666h-229v229h229v-229
z" />
    <glyph glyph-name="uni0699.fina" unicode="&#x699;" horiz-adv-x="886" 
d="M928 0h-33q-103 0 -132 58q7 -32 7 -65q0 -179 -210 -324q-56 -41 -362 -194l-115 222q257 124 276 135q169 110 169 228q0 55 -32 156q-9 24 -29.5 71.5t-31.5 73.5l240 86q56 -134 80 -158q37 -30 173 -30v-259zM780 969h-233v229h233v-229zM456 969h-229v229h229v-229
zM780 662h-233v229h233v-229zM456 662h-229v229h229v-229z" />
    <glyph glyph-name="uni069A.init" unicode="&#x69a;" horiz-adv-x="1366" 
d="M845 748h-232v229h232v-229zM1314 281q0 -132 -125 -212q-108 -69 -246 -69q-168 0 -218 88q-74 -88 -190 -88q-126 0 -216 108q-31 -67 -137 -97q-62 -11 -177 -11h-45v259h45q156 0 156 84q0 37 -24 109l249 47q8 -48 33 -144t85 -96q65 0 93 93q5 33 24 151l244 -45
l-24 -156q11 -43 95 -43q46 0 76 13q43 20 46 59l-52 200l246 55q62 -243 62 -305zM842 -456h-229v229h229v-229z" />
    <glyph glyph-name="uni069A.medi" unicode="&#x69a;" horiz-adv-x="1409" 
d="M842 741h-234v235h234v-235zM1451 0q-147 0 -240 84q-123 -84 -272 -84q-164 0 -214 88q-87 -88 -197 -88q-58 0 -114 34q-48 20 -93 68q-43 -63 -143 -91q-65 -11 -179 -11h-39v259l52 -2q11 -1 22 -1q120 0 123 85q0 2 -20 113l253 43q15 -97 32 -145q30 -93 89 -93
q108 0 110 244l246 -41q-24 -131 -24 -153q0 -50 106 -50q93 0 93 69q0 26 -38 167l243 71q29 -166 48 -199q46 -108 156 -108v-259zM842 -456h-229v229h229v-229z" />
    <glyph glyph-name="uni069A.fina" unicode="&#x69a;" horiz-adv-x="2350" 
d="M1762 741h-233v235h233v-235zM2392 0q-199 0 -283 78q-113 -78 -284 -78q-166 0 -211 80q-87 -78 -184 -78q-82 0 -101 33l78 -333q-143 -54 -430 -156q-275 -95 -437 -95q-199 0 -327.5 119t-130.5 320v11q0 128 45 298q20 71 94 300l248 -93q-69 -212 -76 -237
q-39 -139 -39 -242q0 -96 69 -156q63 -56 163 -58h7q98 0 262 56q46 17 264 103l-151 580l268 64q37 -147 41 -160q39 -97 114 -97q89 0 110 240l264 -43q-21 -78 -21 -136q0 -61 94 -61q91 0 93 69v5q0 57 -39 157l240 76q11 -56 33 -166q21 -74 64 -106q50 -35 163 -35
v-259zM1762 -456h-229v229h229v-229z" />
    <glyph glyph-name="uni069B.init" unicode="&#x69b;" horiz-adv-x="1366" 
d="M1314 281q0 -132 -125 -212q-108 -69 -246 -69q-168 0 -218 88q-74 -88 -190 -88q-126 0 -216 108q-31 -67 -137 -97q-62 -11 -177 -11h-45v259h45q156 0 156 84q0 37 -24 109l249 47q8 -48 33 -144t85 -96q65 0 93 93q5 33 24 151l244 -45l-24 -156q11 -43 95 -43
q46 0 76 13q43 20 46 59l-52 200l246 55q62 -243 62 -305zM976 -464h-224v224h224v-224zM653 -464h-220v224h220v-224zM812 -754h-221v225h221v-225z" />
    <glyph glyph-name="uni069B.medi" unicode="&#x69b;" horiz-adv-x="1409" 
d="M1451 0q-147 0 -240 84q-123 -84 -272 -84q-164 0 -214 88q-87 -88 -197 -88q-58 0 -114 34q-48 20 -93 68q-43 -63 -143 -91q-65 -11 -179 -11h-39v259l52 -2q11 -1 22 -1q120 0 123 85q0 2 -20 113l253 43q15 -97 32 -145q30 -93 89 -93q108 0 110 244l246 -41
q-24 -131 -24 -153q0 -50 106 -50q93 0 93 69q0 26 -38 167l243 71q29 -166 48 -199q46 -108 156 -108v-259zM987 -464h-224v224h224v-224zM665 -464h-220v224h220v-224zM824 -754h-221v225h221v-225z" />
    <glyph glyph-name="uni069B.fina" unicode="&#x69b;" horiz-adv-x="2350" 
d="M2392 0q-199 0 -283 78q-113 -78 -284 -78q-166 0 -211 80q-87 -78 -184 -78q-82 0 -101 33l78 -333q-143 -54 -430 -156q-275 -95 -437 -95q-199 0 -327.5 119t-130.5 320v11q0 128 45 298q20 71 94 300l248 -93q-69 -212 -76 -237q-39 -139 -39 -242q0 -96 69 -156
q63 -56 163 -58h7q98 0 262 56q46 17 264 103l-151 580l268 64q37 -147 41 -160q39 -97 114 -97q89 0 110 240l264 -43q-21 -78 -21 -136q0 -61 94 -61q91 0 93 69v5q0 57 -39 157l240 76q11 -56 33 -166q21 -74 64 -106q50 -35 163 -35v-259zM2140 -464h-224v224h224v-224z
M1818 -464h-220v224h220v-224zM1976 -754h-221v225h221v-225z" />
    <glyph glyph-name="uni069C.init" unicode="&#x69c;" horiz-adv-x="1366" 
d="M812 1058h-231v227h231v-227zM976 748h-233v229h233v-229zM653 748h-230v229h230v-229zM1314 281q0 -132 -125 -212q-108 -69 -246 -69q-168 0 -218 88q-74 -88 -190 -88q-126 0 -216 108q-31 -67 -137 -97q-62 -11 -177 -11h-45v259h45q156 0 156 84q0 37 -24 109
l249 47q8 -48 33 -144t85 -96q65 0 93 93q5 33 24 151l244 -45l-24 -156q11 -43 95 -43q46 0 76 13q43 20 46 59l-52 200l246 55q62 -243 62 -305zM976 -464h-224v224h224v-224zM653 -464h-220v224h220v-224zM812 -754h-221v225h221v-225z" />
    <glyph glyph-name="uni069C.medi" unicode="&#x69c;" horiz-adv-x="1409" 
d="M824 1050h-233v233h233v-233zM987 741h-234v235h234v-235zM665 741h-232v235h232v-235zM1451 0q-147 0 -240 84q-123 -84 -272 -84q-164 0 -214 88q-87 -88 -197 -88q-58 0 -114 34q-48 20 -93 68q-43 -63 -143 -91q-65 -11 -179 -11h-39v259l52 -2q11 -1 22 -1
q120 0 123 85q0 2 -20 113l253 43q15 -97 32 -145q30 -93 89 -93q108 0 110 244l246 -41q-24 -131 -24 -153q0 -50 106 -50q93 0 93 69q0 26 -38 167l243 71q29 -166 48 -199q46 -108 156 -108v-259zM987 -464h-224v224h224v-224zM665 -464h-220v224h220v-224zM824 -754
h-221v225h221v-225z" />
    <glyph glyph-name="uni069C.fina" unicode="&#x69c;" horiz-adv-x="2350" 
d="M1666 1050h-231v233h231v-233zM1830 741h-233v235h233v-235zM1508 741h-231v235h231v-235zM2392 0q-199 0 -283 78q-113 -78 -284 -78q-166 0 -211 80q-87 -78 -184 -78q-82 0 -101 33l78 -333q-143 -54 -430 -156q-275 -95 -437 -95q-199 0 -327.5 119t-130.5 320v11
q0 128 45 298q20 71 94 300l248 -93q-69 -212 -76 -237q-39 -139 -39 -242q0 -96 69 -156q63 -56 163 -58h7q98 0 262 56q46 17 264 103l-151 580l268 64q37 -147 41 -160q39 -97 114 -97q89 0 110 240l264 -43q-21 -78 -21 -136q0 -61 94 -61q91 0 93 69v5q0 57 -39 157
l240 76q11 -56 33 -166q21 -74 64 -106q50 -35 163 -35v-259zM2140 -464h-224v224h224v-224zM1818 -464h-220v224h220v-224zM1976 -754h-221v225h221v-225z" />
    <glyph glyph-name="uni069D.init" unicode="&#x69d;" horiz-adv-x="1474" 
d="M1425 454v-15q0 -243 -126 -350q-114 -95 -378 -95q-67 0 -162 4q-82 2 -164 2q-73 6 -160 43q-118 50 -121 93q-58 -93 -151 -121q-48 -15 -203 -15v259h45q121 0 121 85q0 36 -45 202l263 61q11 -78 52 -263q139 131 344 252q242 143 393 143q130 0 209.5 -77
t82.5 -208zM1163 402q0 67 -73 67q-65 0 -430 -210h344q159 0 159 143zM1096 -464h-224v224h224v-224zM773 -464h-220v224h220v-224z" />
    <glyph glyph-name="uni069D.medi" unicode="&#x69d;" horiz-adv-x="1568" 
d="M1610 0h-75q-125 0 -205 97q-100 -97 -314 -97h-365q-186 0 -320 138q-47 -80 -123 -114q-56 -24 -166 -24h-82v259l54 -2h17q110 0 110 74q0 47 -47 218l257 58q41 -229 71 -233q24 0 154 95q155 110 270 173q173 95 287 95q181 0 248 -115q48 -84 50 -279q0 -64 65 -80
q24 -4 114 -4v-259zM1170 372q0 99 -65 99q-67 0 -441 -212h340q166 0 166 113zM1096 -464h-224v224h224v-224zM773 -464h-220v224h220v-224z" />
    <glyph glyph-name="uni069D.fina" unicode="&#x69d;" horiz-adv-x="2448" 
d="M2490 0h-41q-154 0 -238 84q-88 -84 -268 -84h-415q-103 0 -174 34l77 -339q-144 -54 -436 -159q-274 -93 -439 -93q-196 0 -322.5 119.5t-126.5 318.5q0 128 52 305q39 140 93 296l244 -80q-48 -143 -76 -238q-41 -134 -41 -248q0 -95 63 -150t158 -56h8q105 0 266 52
q63 22 268 98l-145 581l264 69l39 -154q110 108 352 240q272 149 386 149q173 0 232 -110q32 -58 43 -214q10 -127 54 -149q39 -13 123 -13v-259zM2066 389q0 80 -75 82h-3q-72 0 -220 -84q-71 -43 -216 -128h350q82 0 119 22q45 28 45 108zM2092 -464h-224v224h224v-224z
M1772 -464h-220v224h220v-224z" />
    <glyph glyph-name="uni069E.init" unicode="&#x69e;" horiz-adv-x="1474" 
d="M1425 454v-12q0 -333 -225 -418q-67 -24 -508 -24h-97q-60 0 -160 43q-118 50 -121 93q-60 -93 -151 -121q-47 -15 -203 -15v259h43q123 0 123 85q0 32 -45 202l263 61q11 -78 52 -263q162 146 344 254q238 141 393 141q128 0 209 -78t83 -207zM1163 402q0 67 -73 67
q-65 0 -430 -210h344q159 0 159 143zM897 1177h-233v233h233v-233zM1060 868h-234v235h234v-235zM738 868h-232v235h232v-235z" />
    <glyph glyph-name="uni069E.medi" unicode="&#x69e;" horiz-adv-x="1568" 
d="M1610 0h-15q-101 0 -146 13q-68 21 -119 84q-102 -97 -314 -97h-365q-186 0 -320 138q-66 -99 -161 -131q-37 -7 -210 -7v259l54 -2h17q110 0 110 74q0 47 -47 218l257 58q13 -80 22 -123q23 -89 49 -110q89 36 231 138q95 65 223 156q130 69 257 69q143 0 220.5 -82
t79.5 -225q0 -52 2 -78q5 -58 20 -71q22 -22 155 -22v-259zM1170 372q0 99 -65 99q-63 0 -220 -86q-61 -35 -221 -126h340q166 0 166 113zM952 1197h-233v233h233v-233zM1115 888h-234v235h234v-235zM793 888h-232v235h232v-235z" />
    <glyph glyph-name="uni069E.fina" unicode="&#x69e;" horiz-adv-x="2448" 
d="M2490 0h-22q-108 0 -138 11q-60 19 -119 73q-91 -84 -268 -84h-415q-97 0 -174 34l77 -339q-144 -54 -436 -159q-274 -93 -439 -93q-196 0 -322.5 120t-126.5 318q0 128 52 305q39 140 93 296l244 -80q-48 -143 -76 -238q-41 -134 -41 -248q0 -95 63 -150t158 -56h8
q105 0 266 52q63 22 268 98l-145 581l264 69l39 -154q101 108 350 242q269 145 388 147h9q153 0 222 -106q37 -58 48 -196t19 -145q32 -39 134 -39h20v-259zM2066 389q0 80 -75 82h-3q-66 0 -220 -84q-41 -22 -216 -128h344q82 0 123 18q47 30 47 112zM1841 1179h-233v233
h233v-233zM2004 870h-234v235h234v-235zM1682 870h-232v235h232v-235z" />
    <glyph glyph-name="uni069F.init" unicode="&#x69f;" horiz-adv-x="1154" 
d="M1120 438q0 -270 -173 -365q-129 -73 -419 -73h-568v259h162l-63 806l242 19l43 -594q327 223 504 223q119 0 195.5 -76.5t76.5 -198.5zM883 376q0 93 -70 95h-1q-67 0 -441 -212h341q65 0 112 26q59 32 59 91zM872 1138h-231v227h231v-227zM1036 828h-233v229h233v-229z
M713 828h-230v229h230v-229z" />
    <glyph glyph-name="uni069F.medi" unicode="&#x69f;" horiz-adv-x="1216" 
d="M1258 0q-175 0 -268 93q-123 -93 -421 -93h-609v259h164l-65 804l240 21l46 -594q120 69 237 139q167 82 251 84h6q166 0 231 -106q39 -67 50 -203q7 -117 39 -134q22 -11 99 -11v-259zM883 385q0 84 -70 86h-1q-69 0 -439 -212h332q178 0 178 126zM892 1118h-231v227
h231v-227zM1056 808h-233v229h233v-229zM733 808h-230v229h230v-229z" />
    <glyph glyph-name="uni069F.fina" unicode="&#x69f;" horiz-adv-x="1317" 
d="M1359 0h-32q-194 0 -285 88q-91 -88 -488 -90q-15 0 -253 2h-255l7 259h127l-60 800l235 19l48 -590q220 121 244 139q170 82 254 84h11q153 0 219 -111q34 -58 41 -194q8 -117 36 -136q28 -11 151 -11v-259zM940 395q0 72 -73 72q-76 0 -430 -208h322q181 0 181 136z
M932 1108h-231v227h231v-227zM1096 798h-233v229h233v-229zM773 798h-230v229h230v-229z" />
    <glyph glyph-name="uni06A0.init" unicode="&#x6a0;" horiz-adv-x="834" 
d="M796 333l-54 -260q-58 5 -108 7h-9q-103 0 -332 -41q-218 -39 -333 -39v259q171 0 303 31q-152 79 -152 229q0 272 478 313l54 -234q-124 -12 -154 -21q-106 -30 -106 -89q0 -67 143 -117q117 -41 201 -41q35 0 69 3zM493 1289h-231v227h231v-227zM657 979h-233v229h233
v-229zM334 979h-230v229h230v-229z" />
    <glyph glyph-name="uni06A0.medi" unicode="&#x6a0;" horiz-adv-x="752" 
d="M794 259l-2 -259h-91q-227 0 -313 123q-126 -123 -335 -123h-93v259q235 0 322 69q-125 110 -240 121l19 190h135q112 0 135 1q249 0 387 -22q0 -197 -164 -315q74 -44 240 -44zM492 1114h-231v227h231v-227zM656 804h-233v229h233v-229zM333 804h-230v229h230v-229z" />
    <glyph glyph-name="uni06A0.fina" unicode="&#x6a0;" horiz-adv-x="1069" 
d="M1111 0h-127q-154 0 -266 117q-130 -63 -244 -171q-134 -128 -134 -249q0 -146 198 -209q70 -22 322 -56l-43 -247q-181 26 -341 57q-171 34 -287 131q-111 117 -113 320v5q0 205 164 386q139 156 359 244q-108 108 -240 121l17 190l331 1q197 0 330 -20
q0 -194 -162 -313q41 -37 111 -46q15 -2 125 -2v-259zM790 1174h-231v227h231v-227zM954 864h-233v229h233v-229zM631 864h-230v229h230v-229z" />
    <glyph glyph-name="uni06A1.init" unicode="&#x6a1;" horiz-adv-x="772" 
d="M669 374q0 -206 -63 -286q-73 -88 -275 -88h-371v259h516v7q-237 37 -291 58q-154 60 -156 216q0 84 78 201q73 112 151 160q80 73 173 73q115 0 181 -86q57 -74 57 -197v-317zM450 478v190q0 69 -26 69q-45 -16 -105.5 -76.5t-79.5 -109.5q6 -32 211 -73z" />
    <glyph glyph-name="uni06A1.medi" unicode="&#x6a1;" horiz-adv-x="681" 
d="M723 0h-149q-70 0 -139 58q-65 -58 -194 -58h-281v259h169q-91 59 -91 145q0 101 137 228.5t237 127.5q200 0 203 -365q0 -10 -2 -75v-61h110v-259zM403 253v216q0 39 -20 60q-43 -24 -77 -62q-41 -48 -52 -78q4 -37 149 -136z" />
    <glyph glyph-name="uni06A1.fina" unicode="&#x6a1;" horiz-adv-x="1787" 
d="M1829 0h-147q-67 0 -145 58q-67 -58 -194 -58h-934q-365 0 -367 272q0 119 43 251l264 -45q-26 -96 -26 -128q0 -91 211 -91h700q-69 39 -69 167q0 77 65 147q7 12 121 114q80 71 166 71q201 0 201 -347v-81l-2 -71h113v-259zM1518 240v227q0 60 -22 65q-30 -13 -85 -63
t-55 -78q0 -32 162 -151z" />
    <glyph glyph-name="uni06A2.init" unicode="&#x6a2;" horiz-adv-x="772" 
d="M669 374q0 -206 -63 -286q-73 -88 -275 -88h-371v259h516v7q-237 37 -291 58q-154 60 -156 216q0 84 78 201q73 112 151 160q80 73 173 73q115 0 181 -86q57 -74 57 -197v-317zM450 478v190q0 69 -26 69q-45 -16 -105.5 -76.5t-79.5 -109.5q6 -32 211 -73zM507 -456h-229
v229h229v-229z" />
    <glyph glyph-name="uni06A2.medi" unicode="&#x6a2;" horiz-adv-x="681" 
d="M723 0h-149q-70 0 -139 58q-65 -58 -194 -58h-281v259h169q-91 59 -91 145q0 101 137 228.5t237 127.5q200 0 203 -365q0 -10 -2 -75v-61h110v-259zM403 253v216q0 39 -20 60q-43 -24 -77 -62q-41 -48 -52 -78q4 -37 149 -136zM481 -456h-229v229h229v-229z" />
    <glyph glyph-name="uni06A2.fina" unicode="&#x6a2;" horiz-adv-x="1787" 
d="M1829 0h-147q-67 0 -145 58q-67 -58 -194 -58h-934q-365 0 -367 272q0 119 43 251l264 -45q-26 -96 -26 -128q0 -91 211 -91h700q-69 39 -69 167q0 77 65 147q7 12 121 114q80 71 166 71q201 0 201 -347v-81l-2 -71h113v-259zM1518 240v227q0 60 -22 65q-30 -13 -85 -63
t-55 -78q0 -32 162 -151zM1605 -456h-229v229h229v-229z" />
    <glyph glyph-name="uni06A3.init" unicode="&#x6a3;" horiz-adv-x="772" 
d="M509 1056h-231v232h231v-232zM669 374q0 -206 -63 -286q-73 -88 -275 -88h-371v259h516v7q-237 37 -291 58q-154 60 -156 216q0 84 78 201q73 112 151 160q80 73 173 73q115 0 181 -86q57 -74 57 -197v-317zM450 478v190q0 69 -26 69q-45 -16 -105.5 -76.5t-79.5 -109.5
q6 -32 211 -73zM507 -456h-229v229h229v-229z" />
    <glyph glyph-name="uni06A3.medi" unicode="&#x6a3;" horiz-adv-x="681" 
d="M479 905h-227v229h227v-229zM723 0h-149q-70 0 -139 58q-65 -58 -194 -58h-281v259h169q-91 59 -91 145q0 101 137 228.5t237 127.5q200 0 203 -365q0 -10 -2 -75v-61h110v-259zM403 253v216q0 39 -20 60q-43 -24 -77 -62q-41 -48 -52 -78q4 -37 149 -136zM481 -456h-229
v229h229v-229z" />
    <glyph glyph-name="uni06A3.fina" unicode="&#x6a3;" horiz-adv-x="1787" 
d="M1589 909h-231v232h231v-232zM1829 0h-147q-67 0 -145 58q-67 -58 -194 -58h-934q-365 0 -367 272q0 119 43 251l264 -45q-26 -96 -26 -128q0 -91 211 -91h700q-69 39 -69 167q0 77 65 147q7 12 121 114q80 71 166 71q201 0 201 -347v-81l-2 -71h113v-259zM1518 240v227
q0 60 -22 65q-30 -13 -85 -63t-55 -78q0 -32 162 -151zM985 -456h-229v229h229v-229z" />
    <glyph glyph-name="uni06A5.init" unicode="&#x6a5;" horiz-adv-x="772" 
d="M669 374q0 -206 -63 -286q-73 -88 -275 -88h-371v259h516v7q-237 37 -291 58q-154 60 -156 216q0 84 78 201q73 112 151 160q80 73 173 73q115 0 181 -86q57 -74 57 -197v-317zM450 478v190q0 69 -26 69q-45 -16 -105.5 -76.5t-79.5 -109.5q6 -32 211 -73zM586 -464h-224
v224h224v-224zM263 -464h-220v224h220v-224zM422 -754h-221v225h221v-225z" />
    <glyph glyph-name="uni06A5.medi" unicode="&#x6a5;" horiz-adv-x="681" 
d="M723 0h-149q-70 0 -139 58q-65 -58 -194 -58h-281v259h169q-91 59 -91 145q0 101 137 228.5t237 127.5q200 0 203 -365q0 -10 -2 -75v-61h110v-259zM403 253v216q0 39 -20 60q-43 -24 -77 -62q-41 -48 -52 -78q4 -37 149 -136zM586 -464h-224v224h224v-224zM263 -464
h-220v224h220v-224zM422 -754h-221v225h221v-225z" />
    <glyph glyph-name="uni06A5.fina" unicode="&#x6a5;" horiz-adv-x="1787" 
d="M1829 0h-147q-67 0 -145 58q-67 -58 -194 -58h-934q-365 0 -367 272q0 119 43 251l264 -45q-26 -96 -26 -128q0 -91 211 -91h700q-69 39 -69 167q0 77 65 147q7 12 121 114q80 71 166 71q201 0 201 -347v-81l-2 -71h113v-259zM1518 240v227q0 60 -22 65q-30 -13 -85 -63
t-55 -78q0 -32 162 -151zM1656 -464h-224v224h224v-224zM1333 -464h-220v224h220v-224zM1492 -754h-221v225h221v-225z" />
    <glyph glyph-name="uni06A7.init" unicode="&#x6a7;" horiz-adv-x="772" 
d="M509 1056h-231v232h231v-232zM669 374q0 -206 -63 -286q-73 -88 -275 -88h-371v259h516v7q-237 37 -291 58q-154 60 -156 216q0 84 78 201q73 112 151 160q80 73 173 73q115 0 181 -86q57 -74 57 -197v-317zM450 478v190q0 69 -26 69q-45 -16 -105.5 -76.5t-79.5 -109.5
q6 -32 211 -73z" />
    <glyph glyph-name="uni06A7.medi" unicode="&#x6a7;" horiz-adv-x="681" 
d="M479 905h-227v229h227v-229zM723 0h-149q-70 0 -139 58q-65 -58 -194 -58h-281v259h169q-91 59 -91 145q0 101 137 228.5t237 127.5q200 0 203 -365q0 -10 -2 -75v-61h110v-259zM403 253v216q0 39 -20 60q-43 -24 -77 -62q-41 -48 -52 -78q4 -37 149 -136z" />
    <glyph glyph-name="uni06A7.fina" unicode="&#x6a7;" horiz-adv-x="1479" 
d="M1521 0h-127v-374q-132 -50 -400 -145q-233 -79 -413 -79q-209 0 -328 127.5t-119 332.5q0 129 43 279q24 94 82 276l253 -58q-61 -191 -73 -240q-37 -138 -37 -246v-6q0 -92 60 -149q61 -59 158 -61h3q100 0 271 58q22 8 266 97v194q-151 31 -199 44q-79 19 -105 32
q-171 71 -173 225q0 112 110 225.5t147 145.5q91 76 184 76q183 0 243 -169q27 -84 27 -326h127v-259zM1165 244v182q0 88 -35 93q-33 -14 -110.5 -81t-81.5 -105q0 -50 227 -89zM1203 951h-232v229h232v-229z" />
    <glyph glyph-name="uni06A8.init" unicode="&#x6a8;" horiz-adv-x="772" 
d="M669 374q0 -206 -63 -286q-73 -88 -275 -88h-371v259h516v7q-237 37 -291 58q-154 60 -156 216q0 84 78 201q73 112 151 160q80 73 173 73q115 0 181 -86q57 -74 57 -197v-317zM450 478v190q0 69 -26 69q-45 -16 -105.5 -76.5t-79.5 -109.5q6 -32 211 -73zM519 1391h-229
v231h229v-231zM682 1084h-232v229h232v-229zM360 1084h-231v229h231v-229z" />
    <glyph glyph-name="uni06A8.medi" unicode="&#x6a8;" horiz-adv-x="681" 
d="M723 0h-149q-70 0 -139 58q-65 -58 -194 -58h-281v259h169q-91 59 -91 145q0 101 137 228.5t237 127.5q200 0 203 -365q0 -10 -2 -75v-61h110v-259zM403 253v216q0 39 -20 60q-43 -24 -77 -62q-41 -48 -52 -78q4 -37 149 -136zM457 1227h-229v231h229v-231zM621 920h-233
v229h233v-229zM299 920h-231v229h231v-229z" />
    <glyph glyph-name="uni06A8.fina" unicode="&#x6a8;" horiz-adv-x="1479" 
d="M1521 0h-127v-374q-132 -50 -400 -145q-233 -79 -413 -79q-209 0 -328 127.5t-119 332.5q0 129 43 279q24 94 82 276l253 -58q-61 -191 -73 -240q-37 -138 -37 -246v-6q0 -92 60 -149q61 -59 158 -61h3q100 0 271 58q22 8 266 97v194q-151 31 -199 44q-79 19 -105 32
q-171 71 -173 225q0 112 110 225.5t147 145.5q91 76 184 76q183 0 243 -169q27 -84 27 -326h127v-259zM1165 244v182q0 88 -35 93q-33 -14 -110.5 -81t-81.5 -105q0 -50 227 -89zM1200 1258h-229v231h229v-231zM1363 951h-232v229h232v-229zM1041 951h-231v229h231v-229z
" />
    <glyph glyph-name="uni06AA.init" unicode="&#x6aa;" horiz-adv-x="668" 
d="M299 318q0 51 -291 451l488 417l166 -186l-322 -266q97 -127 147 -205q76 -121 76 -229q0 -147 -132 -227q-117 -73 -266 -73h-205v259h205q129 2 134 59z" />
    <glyph glyph-name="uni06AA.medi" unicode="&#x6aa;" horiz-adv-x="698" 
d="M740 0h-45q-150 0 -277 95q-130 -95 -359 -95h-99v259q158 0 160 -2q136 6 138 54q0 52 -298 464l486 417l167 -190l-312 -268q134 -222 169 -272q138 -203 209 -203h61v-259z" />
    <glyph glyph-name="uni06AA.fina" unicode="&#x6aa;" horiz-adv-x="1837" 
d="M1879 0h-84q-181 0 -306 95q-117 -95 -329 -95h-706q-173 0 -259 45q-117 61 -119 216v7q0 78 39 227l257 -48q-7 -52 -18 -106q0 -82 134 -82h728q102 0 102 56v1q0 50 -287 457l483 417l165 -190l-312 -266l176 -270q103 -155 131 -177q35 -28 205 -28v-259z" />
    <glyph glyph-name="uni06AB.init" unicode="&#x6ab;" horiz-adv-x="688" 
d="M320 309q0 48 -268 439l486 414l147 -162l-321 -265q49 -67 144 -203q74 -119 74 -229q0 -139 -95.5 -221t-231.5 -82h-295v259h250q110 2 110 50zM487 1210l-479 -406l-63 88l475 396z" />
    <glyph glyph-name="uni06AB.medi" unicode="&#x6ab;" horiz-adv-x="747" 
d="M179 259q116 0 120 50q0 48 -113 218q-51 73 -155 218l480 413l149 -156l-326 -272l259 -369q37 -54 82 -84q37 -18 114 -18v-259q-198 0 -319 97q-82 -69 -184 -88q-42 -7 -121 -9h-205v259h219zM470 1216l-482 -412l-65 79l484 409z" />
    <glyph glyph-name="uni06AB.fina" unicode="&#x6ab;" horiz-adv-x="1829" 
d="M1496 1219l-489 -417l-62 81l484 405zM1871 0h-77q-180 0 -305 95q-114 -95 -330 -95h-705q-173 0 -259 45q-117 61 -119 216v7q0 78 39 227l257 -48q-8 -52 -19 -106q0 -82 134 -82h732q101 0 102 52q0 52 -266 434l481 417l147 -160l-317 -267l166 -251
q56 -86 126 -181q51 -44 213 -44v-259z" />
    <glyph glyph-name="uni06AC.init" unicode="&#x6ac;" horiz-adv-x="668" 
d="M299 318q0 51 -291 451l488 417l166 -186l-322 -266q97 -127 147 -205q76 -121 76 -229q0 -147 -132 -227q-117 -73 -266 -73h-205v259h205q129 2 134 59zM249 1150h-231v232h231v-232z" />
    <glyph glyph-name="uni06AC.medi" unicode="&#x6ac;" horiz-adv-x="698" 
d="M740 0h-45q-150 0 -277 95q-130 -95 -359 -95h-99v259q158 0 160 -2q136 6 138 54q0 52 -298 464l486 417l167 -190l-312 -268q134 -222 169 -272q138 -203 209 -203h61v-259zM249 1150h-231v232h231v-232z" />
    <glyph glyph-name="uni06AC.fina" unicode="&#x6ac;" horiz-adv-x="1839" 
d="M996 609q-54 -13 -196 -73q-95 -39 -197 -65l2 149q42 6 119 41q-129 13 -129 127q0 87 82 154q80 52 168 63l44 -134q-122 -16 -124 -63v-2q0 -63 139 -63q51 0 92 11v-145zM1794 0q-180 0 -305 95q-117 -95 -330 -95h-705q-173 0 -259 45q-117 61 -119 216v7
q0 78 39 227l257 -48q-8 -52 -19 -106q0 -82 134 -82h728q103 0 103 56l-2 1119h257l-6 -879q4 -116 28 -181q19 -48 47 -71q15 -7 31 -16q36 -28 205 -28h3v-259h-87zM1562 1567h-231v232h231v-232z" />
    <glyph glyph-name="uni06AE.init" unicode="&#x6ae;" horiz-adv-x="668" 
d="M299 318q0 51 -291 451l488 417l166 -186l-322 -266q97 -127 147 -205q76 -121 76 -229q0 -147 -132 -227q-117 -73 -266 -73h-205v259h205q129 2 134 59zM556 -464h-224v224h224v-224zM233 -464h-220v224h220v-224zM392 -754h-221v225h221v-225z" />
    <glyph glyph-name="uni06AE.medi" unicode="&#x6ae;" horiz-adv-x="698" 
d="M740 0h-45q-150 0 -277 95q-130 -95 -359 -95h-99v259q158 0 160 -2q136 6 138 54q0 52 -298 464l486 417l167 -190l-312 -268q134 -222 169 -272q138 -203 209 -203h61v-259zM556 -464h-224v224h224v-224zM233 -464h-220v224h220v-224zM392 -754h-221v225h221v-225z" />
    <glyph glyph-name="uni06AE.fina" unicode="&#x6ae;" horiz-adv-x="1839" 
d="M996 609q-54 -13 -196 -73q-95 -39 -197 -65l2 149q42 6 119 41q-129 13 -129 127q0 87 82 154q80 52 168 63l44 -134q-122 -16 -124 -63v-2q0 -63 139 -63q51 0 92 11v-145zM1794 0q-180 0 -305 95q-117 -95 -330 -95h-705q-173 0 -259 45q-117 61 -119 216v7
q0 78 39 227l257 -48q-8 -52 -19 -106q0 -82 134 -82h728q103 0 103 56l-2 1119h257l-6 -879q4 -116 28 -181q19 -48 47 -71q15 -7 31 -16q36 -28 205 -28h3v-259h-87zM1086 -464h-224v224h224v-224zM763 -464h-220v224h220v-224zM922 -754h-221v225h221v-225z" />
    <glyph glyph-name="uni06B0.init" unicode="&#x6b0;" horiz-adv-x="688" 
d="M487 1210l-479 -406l-63 88l475 396zM548 764q0 12 -57 107q-92 -101 -92 -118q0 -20 31 -20h89q29 0 29 31zM276 703q-3 -14 -3 -27v-2q0 -70 44.5 -114.5t114.5 -44.5h86q64 -110 64 -212q0 -139 -95.5 -221t-231.5 -82h-295v259h250q110 2 110 50t-268 439l486 414
l142 -158l-87 -75l53 -92q25 -44 25 -97q0 -62 -35 -102t-88 -40h-153q-54 0 -88 41q-23 26 -31 64z" />
    <glyph glyph-name="uni06B0.medi" unicode="&#x6b0;" horiz-adv-x="747" 
d="M548 764q0 12 -57 107q-92 -101 -92 -118q0 -20 31 -20h89q29 0 29 31zM470 1216l-482 -412l-65 79l484 409zM276 703q-3 -14 -3 -27v-2q0 -70 44.5 -114.5t114.5 -44.5h53l108 -154q37 -54 82 -84q37 -18 114 -18v-259q-198 0 -319 97q-82 -69 -184 -88q-42 -7 -121 -9
h-205v259h219q116 0 120 50q0 48 -113 218q-51 73 -155 218l480 413l145 -151l-69 -64l59 -106q25 -44 25 -97q0 -62 -35 -102t-88 -40h-153q-54 0 -88 41q-23 26 -31 64z" />
    <glyph glyph-name="uni06B0.fina" unicode="&#x6b0;" horiz-adv-x="1829" 
d="M1496 1219l-489 -417l-62 81l484 405zM1568 764q0 12 -57 107q-92 -101 -92 -118q0 -20 31 -20h89q29 0 29 31zM1293 725q-10 -25 -10 -49v-2q0 -70 44.5 -114.5t114.5 -44.5h69l21 -31q56 -86 126 -181q51 -44 213 -44v-259h-77q-180 0 -305 95q-114 -95 -330 -95h-705
q-173 0 -259 45q-117 61 -119 216v7q0 78 39 227l257 -48q-8 -52 -19 -106q0 -82 134 -82h732q101 0 102 52q0 52 -266 434l481 417l135 -145l-73 -62l68 -118q25 -44 25 -97q0 -62 -35 -102t-88 -40h-153q-54 0 -88 41q-30 34 -34 86z" />
    <glyph glyph-name="uni06B2.init" unicode="&#x6b2;" horiz-adv-x="688" 
d="M320 309q0 48 -268 439l486 414l147 -162l-321 -265q49 -67 144 -203q74 -119 74 -229q0 -139 -95.5 -221t-231.5 -82h-295v259h250q110 2 110 50zM487 1210l-479 -406l-63 88l475 396zM556 -464h-224v224h224v-224zM233 -464h-220v224h220v-224z" />
    <glyph glyph-name="uni06B2.medi" unicode="&#x6b2;" horiz-adv-x="747" 
d="M179 259q116 0 120 50q0 48 -113 218q-51 73 -155 218l480 413l149 -156l-326 -272l259 -369q37 -54 82 -84q37 -18 114 -18v-259q-198 0 -319 97q-82 -69 -184 -88q-42 -7 -121 -9h-205v259h219zM470 1216l-482 -412l-65 79l484 409zM556 -464h-224v224h224v-224z
M233 -464h-220v224h220v-224z" />
    <glyph glyph-name="uni06B2.fina" unicode="&#x6b2;" horiz-adv-x="1829" 
d="M1496 1219l-489 -417l-62 81l484 405zM1871 0h-77q-180 0 -305 95q-114 -95 -330 -95h-705q-173 0 -259 45q-117 61 -119 216v7q0 78 39 227l257 -48q-8 -52 -19 -106q0 -82 134 -82h732q101 0 102 52q0 52 -266 434l481 417l147 -160l-317 -267l166 -251
q56 -86 126 -181q51 -44 213 -44v-259zM1086 -464h-224v224h224v-224zM763 -464h-220v224h220v-224z" />
    <glyph glyph-name="uni06B4.init" unicode="&#x6b4;" horiz-adv-x="688" 
d="M320 309q0 48 -268 439l486 414l147 -162l-321 -265q49 -67 144 -203q74 -119 74 -229q0 -139 -95.5 -221t-231.5 -82h-295v259h250q110 2 110 50zM487 1210l-479 -406l-63 88l475 396zM391 1674h-229v231h229v-231zM554 1367h-232v229h232v-229zM232 1367h-231v229h231
v-229z" />
    <glyph glyph-name="uni06B4.medi" unicode="&#x6b4;" horiz-adv-x="747" 
d="M179 259q116 0 120 50q0 48 -113 218q-51 73 -155 218l480 413l149 -156l-326 -272l259 -369q37 -54 82 -84q37 -18 114 -18v-259q-198 0 -319 97q-82 -69 -184 -88q-42 -7 -121 -9h-205v259h219zM470 1216l-482 -412l-65 79l484 409zM391 1674h-229v231h229v-231z
M554 1367h-232v229h232v-229zM232 1367h-231v229h231v-229z" />
    <glyph glyph-name="uni06B4.fina" unicode="&#x6b4;" horiz-adv-x="1829" 
d="M1496 1219l-489 -417l-62 81l484 405zM1871 0h-77q-180 0 -305 95q-114 -95 -330 -95h-705q-173 0 -259 45q-117 61 -119 216v7q0 78 39 227l257 -48q-8 -52 -19 -106q0 -82 134 -82h732q101 0 102 52q0 52 -266 434l481 417l147 -160l-317 -267l166 -251
q56 -86 126 -181q51 -44 213 -44v-259zM1141 1574h-229v231h229v-231zM1304 1267h-232v229h232v-229zM982 1267h-231v229h231v-229z" />
    <glyph glyph-name="uni06B5.init" unicode="&#x6b5;" horiz-adv-x="557" 
d="M523 255q0 -137 -145 -203q-112 -52 -268 -52h-150v259h103q183 0 183 110q0 223 -107 666l266 41q112 -498 118 -821zM348 1164l-176 41q-61 112 -103 201q-39 89 -55 163h182q9 -33 25 -72q26 -65 51 -113q25 48 50 113q16 39 26 72h181q-16 -74 -55 -163
q-49 -106 -126 -242z" />
    <glyph glyph-name="uni06B5.medi" unicode="&#x6b5;" horiz-adv-x="681" 
d="M723 0h-41q-171 0 -242 95q-70 -95 -273 -95h-207v259q104 0 121 -2h45q139 0 139 104q0 131 -37 339q-19 110 -60 335l257 41l114 -732q9 -57 73 -78q26 -7 111 -7v-259zM348 1164l-176 41q-61 112 -103 201q-39 89 -55 163h182q9 -33 25 -72q26 -65 51 -113
q25 48 50 113q16 39 26 72h181q-16 -74 -55 -163q-49 -106 -126 -242z" />
    <glyph glyph-name="uni06B5.fina" unicode="&#x6b5;" horiz-adv-x="1341" 
d="M1383 0q-153 0 -179 41q22 -229 45 -343q-540 -210 -738 -210q-193 0 -323.5 124t-130.5 323q0 171 106 491l250 -76q-19 -63 -54 -194q-30 -109 -30 -197q0 -91 64 -146t157 -57h7q76 0 207 43q71 24 216 74l-108 1142l244 24l71 -704q6 -59 75 -74q25 -4 63 -4
q26 0 58 2v-259zM1068 1164l-176 41q-61 112 -103 201q-39 89 -55 163h182q9 -33 25 -72q26 -65 51 -113q25 48 50 113q16 39 26 72h181q-16 -74 -55 -163q-49 -106 -126 -242z" />
    <glyph glyph-name="uni06B6.init" unicode="&#x6b6;" horiz-adv-x="467" 
d="M433 255q0 -137 -145 -203q-112 -52 -268 -52h-60v259h13q183 0 183 110q0 223 -107 666l266 41q112 -498 118 -821zM289 1150h-231v232h231v-232z" />
    <glyph glyph-name="uni06B6.medi" unicode="&#x6b6;" horiz-adv-x="601" 
d="M643 0h-41q-171 0 -242 95q-70 -95 -273 -95h-127v259q24 0 41 -2h45q139 0 139 104q0 131 -37 339q-19 110 -60 335l257 41l114 -732q9 -57 73 -78q26 -7 111 -7v-259zM319 1150h-231v232h231v-232z" />
    <glyph glyph-name="uni06B6.fina" unicode="&#x6b6;" horiz-adv-x="1341" 
d="M1383 0q-153 0 -179 41q22 -229 45 -343q-540 -210 -738 -210q-193 0 -323.5 124t-130.5 323q0 171 106 491l250 -76q-19 -63 -54 -194q-30 -109 -30 -197q0 -91 64 -146t157 -57h7q76 0 207 43q71 24 216 74l-108 1142l244 24l71 -704q6 -59 75 -74q25 -4 63 -4
q26 0 58 2v-259zM1099 1150h-231v232h231v-232z" />
    <glyph glyph-name="uni06B7.init" unicode="&#x6b7;" horiz-adv-x="557" 
d="M523 255q0 -137 -145 -203q-112 -52 -268 -52h-150v259h103q183 0 183 110q0 223 -107 666l266 41q112 -498 118 -821zM380 1471h-229v231h229v-231zM543 1164h-232v229h232v-229zM221 1164h-231v229h231v-229z" />
    <glyph glyph-name="uni06B7.medi" unicode="&#x6b7;" horiz-adv-x="681" 
d="M723 0h-41q-171 0 -242 95q-70 -95 -273 -95h-207v259q104 0 121 -2h45q139 0 139 104q0 131 -37 339q-19 110 -60 335l257 41l114 -732q9 -57 73 -78q26 -7 111 -7v-259zM420 1471h-229v231h229v-231zM583 1164h-232v229h232v-229zM261 1164h-231v229h231v-229z" />
    <glyph glyph-name="uni06B7.fina" unicode="&#x6b7;" horiz-adv-x="1341" 
d="M1383 0q-153 0 -179 41q22 -229 45 -343q-540 -210 -738 -210q-193 0 -323.5 124t-130.5 323q0 171 106 491l250 -76q-19 -63 -54 -194q-30 -109 -30 -197q0 -91 64 -146t157 -57h7q76 0 207 43q71 24 216 74l-108 1142l244 24l71 -704q6 -59 75 -74q25 -4 63 -4
q26 0 58 2v-259zM1100 1471h-229v231h229v-231zM1263 1164h-232v229h232v-229zM941 1164h-231v229h231v-229z" />
    <glyph glyph-name="uni06B8.init" unicode="&#x6b8;" horiz-adv-x="557" 
d="M523 255q0 -137 -145 -203q-112 -52 -268 -52h-150v259h103q183 0 183 110q0 223 -107 666l266 41q112 -498 118 -821zM546 -464h-224v224h224v-224zM223 -464h-220v224h220v-224zM382 -754h-221v225h221v-225z" />
    <glyph glyph-name="uni06B8.medi" unicode="&#x6b8;" horiz-adv-x="681" 
d="M723 0h-41q-171 0 -242 95q-70 -95 -273 -95h-207v259q104 0 121 -2h45q139 0 139 104q0 131 -37 339q-19 110 -60 335l257 41l114 -732q9 -57 73 -78q26 -7 111 -7v-259zM596 -464h-224v224h224v-224zM273 -464h-220v224h220v-224zM432 -754h-221v225h221v-225z" />
    <glyph glyph-name="uni06B8.fina" unicode="&#x6b8;" horiz-adv-x="1341" 
d="M1383 0q-153 0 -179 41q22 -229 45 -343q-540 -210 -738 -210q-193 0 -323.5 124t-130.5 323q0 171 106 491l250 -76q-19 -63 -54 -194q-30 -109 -30 -197q0 -91 64 -146t157 -57h7q76 0 207 43q71 24 216 74l-108 1142l244 24l71 -704q6 -59 75 -74q25 -4 63 -4
q26 0 58 2v-259zM944 -876h-224v224h224v-224zM621 -876h-220v224h220v-224zM780 -1166h-221v225h221v-225z" />
    <glyph glyph-name="uni06B9.init" unicode="&#x6b9;" horiz-adv-x="523" 
d="M376 782h-227v233h227v-233zM67 259q138 0 138 101v10q0 31 -33 161l239 50q61 -194 61 -304q0 -137 -104 -212q-93 -65 -237 -65h-171v259h107zM388 -467h-251v247h251v-247z" />
    <glyph glyph-name="uni06B9.medi" unicode="&#x6b9;" horiz-adv-x="633" 
d="M401 745h-231v232h231v-232zM675 0h-80q-149 0 -242 78q-106 -78 -296 -78h-97v259h43q180 0 182 67q0 26 -13 80q-11 46 -17 82l246 59q15 -89 32 -176q13 -68 57.5 -90t184.5 -22v-259zM399 -456h-229v229h229v-229z" />
    <glyph glyph-name="uni06B9.fina" unicode="&#x6b9;" horiz-adv-x="1473" 
d="M835 302h-229v229h229v-229zM1515 0q-115 0 -173 35l69 -335q-142 -52 -428 -156q-265 -93 -434 -93q-203 0 -331.5 123t-130.5 324q0 134 50 292l91 288l250 -63q-26 -78 -76 -240q-41 -141 -41 -251v-5q0 -92 69 -148q65 -54 163 -54q112 0 272 52q65 22 263 101
l-144 586l242 52q49 -188 71 -208q39 -41 218 -41v-259zM831 -935h-230v233h230v-233z" />
    <glyph glyph-name="uni06BC.init" unicode="&#x6bc;" horiz-adv-x="577" 
d="M371 -117q0 13 -73 117q-118 -111 -118 -129q0 -22 40 -22h114q37 0 37 34zM435 56l62 -93q33 -49 33 -106q0 -68 -45 -112t-113 -44h-197q-70 0 -114.5 44.5t-44.5 114.5v2q0 62 67 138h-123v259h187q138 0 138 101v10q0 31 -33 161l239 50q61 -194 61 -304
q0 -137 -104 -212q-6 -5 -13 -9zM466 782h-227v233h227v-233z" />
    <glyph glyph-name="uni06BC.medi" unicode="&#x6bc;" horiz-adv-x="793" 
d="M361 -117q0 13 -73 117q-118 -111 -118 -129q0 -22 40 -22h114q37 0 37 34zM73 0h-113v259h203q180 0 182 67q0 26 -13 80q-11 46 -17 82l246 59q15 -89 32 -176q13 -68 57.5 -90t184.5 -22v-259h-80q-149 0 -242 78q-33 -25 -75 -41l49 -74q33 -49 33 -106
q0 -68 -45 -112t-113 -44h-197q-70 0 -114.5 44.5t-44.5 114.5v2q0 62 67 138zM536 782h-227v233h227v-233z" />
    <glyph glyph-name="uni06BC.fina" unicode="&#x6bc;" horiz-adv-x="1473" 
d="M797 -647q0 13 -73 117q-118 -111 -118 -129q0 -22 40 -22h114q37 0 37 34zM835 302h-229v229h229v-229zM495 -547q-167 15 -277 121q-129 123 -131 324q0 134 50 292l91 288l250 -63q-26 -78 -76 -240q-41 -141 -41 -251v-5q0 -92 69 -148q65 -54 163 -54q112 0 272 52
q65 22 263 101l-144 586l242 52q49 -188 71 -208q39 -41 218 -41v-259q-115 0 -173 35l69 -335q-142 -52 -428 -156q-57 -20 -110 -36l50 -75q33 -49 33 -106q0 -68 -45 -112t-113 -44h-197q-70 0 -114.5 44.5t-44.5 114.5v2q0 55 53 121z" />
    <glyph glyph-name="uni06BD.init" unicode="&#x6bd;" horiz-adv-x="579" 
d="M403 1249l-2 -223h-219l1 223h220zM550 959l-4 -222h-221l2 222h223zM250 959l-1 -222h-224l6 222h219zM67 259q138 0 138 101v10q0 31 -33 161l239 50q61 -194 61 -304q0 -137 -104 -212q-93 -65 -237 -65h-171v259h107z" />
    <glyph glyph-name="uni06BD.medi" unicode="&#x6bd;" horiz-adv-x="633" 
d="M357 1026h-220v223h220v-223zM506 737h-222v222h222v-222zM209 737h-221v222h221v-222zM675 0h-80q-149 0 -242 78q-106 -78 -296 -78h-97v259h43q180 0 182 67q0 26 -13 80q-11 46 -17 82l246 59q15 -89 32 -176q13 -68 57.5 -90t184.5 -22v-259z" />
    <glyph glyph-name="uni06BD.fina" unicode="&#x6bd;" horiz-adv-x="1473" 
d="M1515 0q-115 0 -173 35l69 -335q-142 -52 -428 -156q-265 -93 -434 -93q-203 0 -331.5 123t-130.5 324q0 134 50 292l91 288l250 -63q-26 -78 -76 -240q-41 -141 -41 -251v-5q0 -92 69 -148q65 -54 163 -54q112 0 272 52q65 22 263 101l-144 586l242 52q49 -188 71 -208
q39 -41 218 -41v-259zM826 1073l-2 -223h-219l1 223h220zM973 783l-4 -222h-221l2 222h223zM673 783l-1 -222h-224l6 222h219z" />
    <glyph glyph-name="uni06BF.init" unicode="&#x6bf;" 
d="M965 309q-134 -50 -284 -147q-177 -115 -347 -147q-74 -15 -374 -15v259q400 0 672 130l-326 75l-16 -54l-241 65l80 279l836 -203v-242zM733 -458h-229v231h229v-231zM412 -458h-230v231h230v-231zM571 -769h-229v231h229v-231zM571 837h-229v227h229v-227z" />
    <glyph glyph-name="uni06BF.medi" unicode="&#x6bf;" horiz-adv-x="996" 
d="M1038 0h-162q-104 0 -236 125q-196 -125 -680 -125v259q469 0 676 130l-326 75l-19 -54l-243 67l87 277l830 -203l-1 -242l-81 -39q32 -11 155 -11v-259zM733 -458h-229v231h229v-231zM412 -458h-230v231h230v-231zM571 -769h-229v231h229v-231zM571 807h-229v227h229
v-227z" />
    <glyph glyph-name="uni06BF.fina" unicode="&#x6bf;" horiz-adv-x="1083" 
d="M1029 -253h-203v199h203v-199zM1124 0h-187q-109 0 -236 117q-110 -80 -237 -175q-135 -123 -137 -245v-3q0 -142 199 -204q71 -22 318 -56l-43 -248q-197 30 -335 58q-178 37 -288 136q-125 110 -125 307q0 172 93 311q69 101 233 212q4 2 281 170l-294 69l-32 -77
l-231 54l82 308l844 -164l-4 -229l-84 -58q47 -24 183 -24v-259zM772 -253h-200v199h200v-199zM898 -503h-199v200h199v-200zM772 807h-229v227h229v-227z" />
    <glyph glyph-name="uni06C2.fina" unicode="&#x6c2;" horiz-adv-x="649" 
d="M583 1h-7q-72 4 -161 64q-53 36 -86 65v-1q-49 44 -53 44h-4q-18 0 -22 -37q-3 -30 -3 -66q0 -37 3 -80q13 -76 19 -101l-202 101q-12 82 -12 119q0 47 4 86q11 104 79 174q58 58 126 58q49 -2 89 -23.5t71 -51.5q47 -50 84 -70t91 -23h92v-259h-108v1zM500 704
q-38 -7 -198 -70q-124 -51 -197 -68l2 151q37 4 123 39q-131 15 -131 129q0 91 82 153q67 50 166 67l47 -136q-125 -19 -125 -66v-2q0 -61 136 -61q50 0 95 9v-145z" />
    <glyph glyph-name="uni06C3.fina" unicode="&#x6c3;" horiz-adv-x="649" 
d="M583 1h-7q-72 4 -161 64q-53 36 -86 65v-1q-49 44 -53 44h-4q-18 0 -22 -37q-3 -30 -3 -66q0 -37 3 -80q13 -76 19 -101l-202 101q-12 82 -12 119q0 47 4 86q11 104 79 174q58 58 126 58q49 -2 89 -23.5t71 -51.5q47 -50 84 -70t91 -23h92v-259h-108v1zM605 823l-2 -223
h-222l2 223h222zM307 823l-4 -223h-220l2 223h222z" />
    <glyph glyph-name="uni06C4.fina" unicode="&#x6c4;" horiz-adv-x="935" 
d="M614 251v187q0 61 -28 61q-18 0 -105.5 -76.5t-87.5 -94.5q0 -36 95 -60q-4 0 126 -17zM485 -140v120q0 35 -19 35q-18 0 -70.5 -46t-62.5 -68q19 -22 152 -41zM565 -80l28 28v83q0 53 -34 93q-35 43 -89 43h-5q-38 -2 -73 -26q-44 -29 -79 -57q-7 2 -13 5
q-153 66 -153 235q0 114 112 222q225 217 333 217h4q166 0 221 -182q28 -93 28 -322h132v-259h-151q-41 -192 -342 -343l-222 -104l-117 220q51 22 136 61q-26 29 -26 75q0 53 48 100q38 36 87 74q30 23 63 25h5q47 0 78 -43q29 -39 29 -91v-54z" />
    <glyph glyph-name="uni06CA.fina" unicode="&#x6ca;" horiz-adv-x="935" 
d="M977 0h-151q-41 -192 -342 -343l-222 -104l-117 220q80 35 240 110q149 78 207 145q-227 33 -292 61q-153 66 -153 235q0 114 112 222q225 217 333 217h4q166 0 221 -182q28 -93 28 -322h132v-259zM614 251v187q0 61 -28 61q-18 0 -105.5 -76.5t-87.5 -94.5q0 -36 95 -60
q-4 0 126 -17zM838 1106l-4 -222h-221l2 222h223zM538 1106l-1 -222h-224l6 222h219z" />
    <glyph glyph-name="uni06CD.fina" unicode="&#x6cd;" horiz-adv-x="1583" 
d="M676 430q-116 -223 -116 -357q0 -133 95 -198q82 -57 214 -57q209 0 499 178q-50 2 -172 69t-157 110l128 212q99 -93 214 -117q60 -11 244 -11v-259h-128l35 -199q-335 -242 -668 -242q-248 0 -399 132q-160 138 -160 385q0 59 9 118q-69 -21 -151 -38l-67 215
q123 21 212 58q76 31 105 66q6 6 10 12l14 20z" />
    <glyph glyph-name="uni06CE.init" unicode="&#x6ce;" horiz-adv-x="577" 
d="M548 -240l-3 -224h-222l2 224h223zM249 -240l-2 -224h-224l6 224h220zM147 259q138 0 138 101v10q0 31 -33 161l239 50q61 -194 61 -304q0 -137 -104 -212q-93 -65 -237 -65h-251v259h187zM370 737l-176 41q-61 112 -103 201q-39 89 -55 163h182q9 -33 25 -72
q26 -65 51 -113q25 48 50 113q16 39 26 72h181q-16 -74 -55 -163q-49 -106 -126 -242z" />
    <glyph glyph-name="uni06CE.medi" unicode="&#x6ce;" horiz-adv-x="633" 
d="M675 0h-80q-149 0 -242 78q-106 -78 -296 -78h-97v259h43q180 0 182 67q0 26 -13 80q-11 46 -17 82l246 59q15 -89 32 -176q13 -68 57.5 -90t184.5 -22v-259zM545 -464h-224v224h224v-224zM247 -464h-220v224h220v-224zM380 737l-176 41q-61 112 -103 201q-39 89 -55 163
h182q9 -33 25 -72q26 -65 51 -113q25 48 50 113q16 39 26 72h181q-16 -74 -55 -163q-49 -106 -126 -242z" />
    <glyph glyph-name="uni06CE.fina" unicode="&#x6ce;" horiz-adv-x="1374" 
d="M1416 0h-128l35 -199q-335 -242 -668 -242q-248 0 -399 132q-160 138 -160 385q0 222 132 451l239 -97q-116 -223 -116 -357q0 -133 95 -198q82 -57 214 -57q209 0 499 178q-50 2 -172 69t-157 110l128 212q99 -93 214 -117q60 -11 244 -11v-259zM698 636l-176 41
q-61 112 -103 201q-39 89 -55 163h182q9 -33 25 -72q26 -65 51 -113q25 48 50 113q16 39 26 72h181q-16 -74 -55 -163q-49 -106 -126 -242z" />
    <glyph glyph-name="uni06CF.fina" unicode="&#x6cf;" horiz-adv-x="935" 
d="M977 0h-151q-41 -192 -342 -343l-222 -104l-117 220q80 35 240 110q149 78 207 145q-227 33 -292 61q-153 66 -153 235q0 114 112 222q225 217 333 217h4q166 0 221 -182q28 -93 28 -322h132v-259zM614 251v187q0 61 -28 61q-18 0 -105.5 -76.5t-87.5 -94.5q0 -36 95 -60
q-4 0 126 -17zM688 1106l-4 -222h-221l2 222h223z" />
    <glyph glyph-name="uni06D1.init" unicode="&#x6d1;" horiz-adv-x="573" 
d="M555 -240l-1 -224h-222l2 224h221zM259 -240l-2 -224h-221l2 224h221zM410 -529l-4 -225h-221l2 225h223zM147 259q138 0 138 101v10q0 31 -33 161l239 50q61 -194 61 -304q0 -137 -104 -212q-93 -65 -237 -65h-251v259h187z" />
    <glyph glyph-name="uni06D1.medi" unicode="&#x6d1;" horiz-adv-x="633" 
d="M675 0h-80q-149 0 -242 78q-106 -78 -296 -78h-97v259h43q180 0 182 67q0 26 -13 80q-11 46 -17 82l246 59q15 -89 32 -176q13 -68 57.5 -90t184.5 -22v-259zM545 -464h-224v224h224v-224zM247 -464h-220v224h220v-224zM401 -754h-221v225h221v-225z" />
    <glyph glyph-name="uni06D1.fina" unicode="&#x6d1;" horiz-adv-x="1374" 
d="M1416 0h-128l35 -199q-335 -242 -668 -242q-248 0 -399 132q-160 138 -160 385q0 222 132 451l239 -97q-116 -223 -116 -357q0 -133 95 -198q82 -57 214 -57q209 0 499 178q-50 2 -172 69t-157 110l128 212q99 -93 214 -117q60 -11 244 -11v-259zM920 -577l-1 -224h-222
l2 224h221zM624 -577l-2 -224h-221l2 224h221zM775 -866l-4 -225h-221l2 225h223z" />
    <glyph glyph-name="uni06D5.fina" unicode="&#x6d5;" horiz-adv-x="835" 
d="M886 0h-84q-180 0 -243 127q-265 37 -317 57q-177 65 -177 233q0 130 97 225q220 218 337 220h5q162 0 217 -141q35 -90 35 -274q0 -158 22 -175q30 -14 82 -14q12 0 26 1v-259zM527 361v194q0 56 -24 56q-28 0 -111 -73t-83 -97q0 -35 93 -59q67 -8 125 -21z" />
    <glyph glyph-name="uni06EE.fina" unicode="&#x6ee;" horiz-adv-x="946" 
d="M988 0h-15q-97 0 -129 13q-54 21 -104 76q-112 -89 -298 -89h-348v259q246 -13 255 -13q209 0 209 59q0 43 -101 201q-45 69 -134 209l220 140l268 -481q48 -89 65 -100q30 -15 112 -15v-259zM643 1146q39 -90 55 -163h-181q-10 33 -26 72q-25 65 -50 112
q-25 -47 -51 -112q-16 -39 -25 -72h-182q16 73 55 163q42 89 103 200l176 42q77 -137 126 -242z" />
    <glyph glyph-name="uni06EF.fina" unicode="&#x6ef;" horiz-adv-x="886" 
d="M928 0h-33q-103 0 -132 58q7 -32 7 -65q0 -179 -210 -324q-56 -41 -362 -194l-115 222q257 124 276 135q169 110 169 228q0 55 -32 156q-9 24 -29.5 71.5t-31.5 73.5l240 86q56 -134 80 -158q37 -30 173 -30v-259zM675 820q39 -90 55 -163h-181q-10 33 -26 72
q-25 65 -50 112q-25 -47 -51 -112q-16 -39 -25 -72h-182q16 73 55 163q42 89 103 200l176 42q77 -137 126 -242z" />
    <glyph glyph-name="uni06FA.init" unicode="&#x6fa;" horiz-adv-x="1366" 
d="M772 1058h-231v227h231v-227zM936 748h-233v229h233v-229zM613 748h-230v229h230v-229zM1314 281q0 -132 -125 -212q-108 -69 -246 -69q-168 0 -218 88q-74 -88 -190 -88q-126 0 -216 108q-31 -67 -137 -97q-62 -11 -177 -11h-45v259h45q156 0 156 84q0 37 -24 109
l249 47q8 -48 33 -144t85 -96q65 0 93 93q5 33 24 151l244 -45l-24 -156q11 -43 95 -43q46 0 76 13q43 20 46 59l-52 200l246 55q62 -243 62 -305zM770 -456h-229v229h229v-229z" />
    <glyph glyph-name="uni06FA.medi" unicode="&#x6fa;" horiz-adv-x="1409" 
d="M774 1050h-233v233h233v-233zM937 741h-234v235h234v-235zM615 741h-232v235h232v-235zM1451 0q-147 0 -240 84q-123 -84 -272 -84q-164 0 -214 88q-87 -88 -197 -88q-58 0 -114 34q-48 20 -93 68q-43 -63 -143 -91q-65 -11 -179 -11h-39v259l52 -2q11 -1 22 -1
q120 0 123 85q0 2 -20 113l253 43q15 -97 32 -145q30 -93 89 -93q108 0 110 244l246 -41q-24 -131 -24 -153q0 -50 106 -50q93 0 93 69q0 26 -38 167l243 71q29 -166 48 -199q46 -108 156 -108v-259zM770 -456h-229v229h229v-229z" />
    <glyph glyph-name="uni06FA.fina" unicode="&#x6fa;" horiz-adv-x="2350" 
d="M1756 1050h-231v233h231v-233zM1920 741h-233v235h233v-235zM1598 741h-231v235h231v-235zM2392 0q-199 0 -283 78q-113 -78 -284 -78q-166 0 -211 80q-87 -78 -184 -78q-82 0 -101 33l78 -333q-143 -54 -430 -156q-275 -95 -437 -95q-199 0 -327.5 119t-130.5 320v11
q0 128 45 298q20 71 94 300l248 -93q-69 -212 -76 -237q-39 -139 -39 -242q0 -96 69 -156q63 -56 163 -58h7q98 0 262 56q46 17 264 103l-151 580l268 64q37 -147 41 -160q39 -97 114 -97q89 0 110 240l264 -43q-21 -78 -21 -136q0 -61 94 -61q91 0 93 69v5q0 57 -39 157
l240 76q11 -56 33 -166q21 -74 64 -106q50 -35 163 -35v-259zM1754 -456h-229v229h229v-229z" />
    <glyph glyph-name="uni06FB.init" unicode="&#x6fb;" horiz-adv-x="1474" 
d="M1058 871h-230v231h230v-231zM1425 454v-12q0 -333 -225 -418q-67 -24 -508 -24h-97q-60 0 -160 43q-118 50 -121 93q-60 -93 -151 -121q-47 -15 -203 -15v259h43q123 0 123 85q0 32 -45 202l263 61q11 -78 52 -263q162 146 344 254q238 141 393 141q128 0 209 -78
t83 -207zM1163 402q0 67 -73 67q-65 0 -430 -210h344q159 0 159 143zM1058 -456h-229v229h229v-229z" />
    <glyph glyph-name="uni06FB.medi" unicode="&#x6fb;" horiz-adv-x="1568" 
d="M1114 894h-229v229h229v-229zM1610 0h-15q-101 0 -146 13q-68 21 -119 84q-102 -97 -314 -97h-365q-186 0 -320 138q-66 -99 -161 -131q-37 -7 -210 -7v259l54 -2h17q110 0 110 74q0 47 -47 218l257 58q13 -80 22 -123q23 -89 49 -110q89 36 231 138q95 65 223 156
q130 69 257 69q143 0 220.5 -82t79.5 -225q0 -52 2 -78q5 -58 20 -71q22 -22 155 -22v-259zM1170 372q0 99 -65 99q-63 0 -220 -86q-61 -35 -221 -126h340q166 0 166 113zM1114 -456h-229v229h229v-229z" />
    <glyph glyph-name="uni06FB.fina" unicode="&#x6fb;" horiz-adv-x="2448" 
d="M2010 871h-229v231h229v-231zM2490 0h-22q-108 0 -138 11q-60 19 -119 73q-91 -84 -268 -84h-415q-97 0 -174 34l77 -339q-144 -54 -436 -159q-274 -93 -439 -93q-196 0 -322.5 120t-126.5 318q0 128 52 305q39 140 93 296l244 -80q-48 -143 -76 -238q-41 -134 -41 -248
q0 -95 63 -150t158 -56h8q105 0 266 52q63 22 268 98l-145 581l264 69l39 -154q101 108 350 242q269 145 388 147h9q153 0 222 -106q37 -58 48 -196t19 -145q32 -39 134 -39h20v-259zM2066 389q0 80 -75 82h-3q-66 0 -220 -84q-41 -22 -216 -128h344q82 0 123 18
q47 30 47 112zM2010 -456h-229v229h229v-229z" />
    <glyph glyph-name="uni06FC.init" unicode="&#x6fc;" horiz-adv-x="834" 
d="M560 981h-228v231h228v-231zM796 333l-54 -260q-58 5 -108 7h-9q-103 0 -332 -41q-218 -39 -333 -39v259q171 0 303 31q-152 79 -152 229q0 272 478 313l54 -234q-124 -12 -154 -21q-106 -30 -106 -89q0 -67 143 -117q117 -41 201 -41q35 0 69 3zM560 -456h-229v229h229
v-229z" />
    <glyph glyph-name="uni06FC.medi" unicode="&#x6fc;" horiz-adv-x="752" 
d="M500 804h-229v233h229v-233zM794 259l-2 -259h-91q-227 0 -313 123q-126 -123 -335 -123h-93v259q235 0 322 69q-125 110 -240 121l19 190h135q112 0 135 1q249 0 387 -22q0 -197 -164 -315q74 -44 240 -44zM500 -456h-229v229h229v-229z" />
    <glyph glyph-name="uni06FC.fina" unicode="&#x6fc;" horiz-adv-x="1069" 
d="M828 864h-227v229h227v-229zM1111 0h-127q-154 0 -266 117q-130 -63 -244 -171q-134 -128 -134 -249q0 -146 198 -209q70 -22 322 -56l-43 -247q-181 26 -341 57q-171 34 -287 131q-111 117 -113 320v5q0 205 164 386q139 156 359 244q-108 108 -240 121l17 190l331 1
q197 0 330 -20q0 -194 -162 -313q41 -37 111 -46q15 -2 125 -2v-259zM830 -372h-229v233h229v-233z" />
    <glyph glyph-name="uni06FF.init" unicode="&#x6ff;" horiz-adv-x="1128" 
d="M1090 205v-6q0 -99 -67 -152q-59 -47 -167 -47q-135 0 -460 80q-149 -80 -436 -80v259q110 0 177 15q-26 98 -52 195q-28 116 -28 199q0 105 73.5 185t177.5 82q69 0 238.5 -83t186.5 -156l216 62q29 -91 91 -276q48 -151 50 -277zM846 263q0 50 -26 117q-22 78 -54 102
q-45 -22 -167 -223l206 -30q41 0 41 34zM532 570q-192 113 -207 113q-26 0 -26 -41q0 -61 20 -145q26 -106 67 -115q39 11 146 188zM862 1219q39 -89 55 -163h-181q-10 33 -26 72q-25 65 -50 113q-25 -48 -51 -113q-16 -39 -25 -72h-182q16 74 55 163q42 89 103 201l176 41
q77 -136 126 -242z" />
    <glyph glyph-name="uni06FF.medi" unicode="&#x6ff;" horiz-adv-x="629" 
d="M595 259h76v-259q-91 0 -125 -13q-61 -30 -61 -104q0 -78 86 -144l-188 -160q-157 104 -157 302q0 82 36 158q-82 -39 -146 -39h-156v259q50 -2 78 -4q14 -1 20 -1q114 0 114 70q0 41 -67 272l244 61q73 -259 73 -346q0 -86 -59 -137q100 85 232 85zM520 959
q39 -89 55 -163h-181q-10 33 -26 72q-25 65 -50 113q-25 -48 -51 -113q-16 -39 -25 -72h-182q16 74 55 163q42 89 103 201l176 41q77 -136 126 -242z" />
    <glyph glyph-name="uni06FF.fina" unicode="&#x6ff;" horiz-adv-x="835" 
d="M311 596l244 61q73 -259 73 -346q0 -86 -59 -137q100 85 232 85h76v-259q-91 0 -125 -13q-61 -30 -61 -104q0 -78 86 -144l-188 -160q-157 104 -157 302q0 82 36 158q-23 -11 -45 -19q-46 -23 -253 -123l-115 225l111 53q136 59 176 104q31 35 31 74q0 12 -3 24
q-16 70 -59 219zM710 959q39 -89 55 -163h-181q-10 33 -26 72q-25 65 -50 113q-25 -48 -51 -113q-16 -39 -25 -72h-182q16 74 55 163q42 89 103 201l176 41q77 -136 126 -242z" />
    <glyph glyph-name="uniFB50" unicode="&#x671;" horiz-adv-x="592" arabic-form="isolated" 
d="M477 0h-250l-2 942h252v-942zM473 1219q0 26 -27 26t-154 -75h129q28 0 40 11t12 38zM173 1079h-7l-12 -33l-98 23l35 130l84 -16q79 65 147 106q90 53 140 53q46 0 74 -29q30 -31 30 -75v-2q0 -159 -177 -165h-97q-66 3 -119 8z" />
    <glyph glyph-name="uniFB51" unicode="&#x671;" horiz-adv-x="492" arabic-form="final" 
d="M534 0h-68q-67 0 -343 35v1037h257v-808q33 -5 154 -5v-259zM423 1339q0 26 -27 26t-154 -75h129q28 0 40 11t12 38zM123 1199h-7l-12 -33l-98 23l35 130l84 -16q79 65 147 106q90 53 140 53q46 0 74 -29q30 -31 30 -75v-2q0 -159 -177 -165h-97q-66 3 -119 8z" />
    <glyph glyph-name="uniFB52" unicode="&#x67b;" horiz-adv-x="1651" arabic-form="isolated" 
d="M1598 263v-6q0 -257 -365 -257h-824q-367 0 -369 253q0 47 47 270l260 -46q-15 -77 -24 -142q0 -76 140 -76h638q97 0 132 5q88 15 88 79q0 26 -26 134l259 46q44 -212 44 -260zM965 -464h-231v231h231v-231zM962 -773h-229v227h229v-227z" />
    <glyph glyph-name="uniFB53" unicode="&#x67b;" horiz-adv-x="1714" arabic-form="final" 
d="M1759 0q-188 0 -240 80q-80 -80 -276 -80h-834q-141 0 -246 69q-117 78 -117 216q0 59 15 119q22 88 24 119l264 -45q-16 -80 -26 -128q0 -91 200 -91h607q193 0 193 97q0 31 -26 122l261 47q5 -47 17 -143q7 -64 45 -93.5t139 -29.5v-259zM986 -424h-231v227h231v-227z
M984 -734h-229v228h229v-228z" />
    <glyph glyph-name="uniFB54" unicode="&#x67b;" horiz-adv-x="573" arabic-form="initial" 
d="M407 -240l-2 -224h-221l2 224h221zM410 -529l-4 -225h-221l2 225h223zM147 259q138 0 138 101v10q0 31 -33 161l239 50q61 -194 61 -304q0 -137 -104 -212q-93 -65 -237 -65h-251v259h187z" />
    <glyph glyph-name="uniFB55" unicode="&#x67b;" horiz-adv-x="633" arabic-form="medial" 
d="M675 0h-80q-149 0 -242 78q-106 -78 -296 -78h-97v259h43q180 0 182 67q0 26 -13 80q-11 46 -17 82l246 59q15 -89 32 -176q13 -68 57.5 -90t184.5 -22v-259zM398 -464h-224v224h224v-224zM401 -754h-221v225h221v-225z" />
    <glyph glyph-name="uniFB56" unicode="&#x67e;" horiz-adv-x="1651" arabic-form="isolated" 
d="M1598 263v-6q0 -257 -365 -257h-824q-367 0 -369 253q0 47 47 270l260 -46q-15 -77 -24 -142q0 -76 140 -76h638q97 0 132 5q88 15 88 79q0 26 -26 134l259 46q44 -212 44 -260zM1125 -464h-229v231h229v-231zM805 -464h-231v231h231v-231zM962 -773h-229v227h229v-227z
" />
    <glyph glyph-name="uniFB57" unicode="&#x67e;" horiz-adv-x="1714" arabic-form="final" 
d="M1759 0q-188 0 -240 80q-80 -80 -276 -80h-834q-141 0 -246 69q-117 78 -117 216q0 59 15 119q22 88 24 119l264 -45q-16 -80 -26 -128q0 -91 200 -91h607q193 0 193 97q0 31 -26 122l261 47q5 -47 17 -143q7 -64 45 -93.5t139 -29.5v-259zM1146 -424h-231v227h231v-227z
M824 -424h-229v227h229v-227zM984 -734h-229v228h229v-228z" />
    <glyph glyph-name="uniFB58" unicode="&#x67e;" horiz-adv-x="573" arabic-form="initial" 
d="M555 -240l-1 -224h-222l2 224h221zM259 -240l-2 -224h-221l2 224h221zM410 -529l-4 -225h-221l2 225h223zM147 259q138 0 138 101v10q0 31 -33 161l239 50q61 -194 61 -304q0 -137 -104 -212q-93 -65 -237 -65h-251v259h187z" />
    <glyph glyph-name="uniFB59" unicode="&#x67e;" horiz-adv-x="633" arabic-form="medial" 
d="M675 0h-80q-149 0 -242 78q-106 -78 -296 -78h-97v259h43q180 0 182 67q0 26 -13 80q-11 46 -17 82l246 59q15 -89 32 -176q13 -68 57.5 -90t184.5 -22v-259zM545 -464h-224v224h224v-224zM247 -464h-220v224h220v-224zM401 -754h-221v225h221v-225z" />
    <glyph glyph-name="uniFB5A" unicode="&#x680;" horiz-adv-x="1651" arabic-form="isolated" 
d="M1598 263v-6q0 -257 -365 -257h-824q-367 0 -369 253q0 47 47 270l260 -46q-15 -77 -24 -142q0 -76 140 -76h638q97 0 132 5q88 15 88 79q0 26 -26 134l259 46q44 -212 44 -260zM1125 -777h-229v231h229v-231zM805 -777h-231v231h231v-231zM1125 -464h-229v231h229v-231z
M805 -464h-231v231h231v-231z" />
    <glyph glyph-name="uniFB5B" unicode="&#x680;" horiz-adv-x="1714" arabic-form="final" 
d="M1759 0q-188 0 -240 80q-80 -80 -276 -80h-834q-141 0 -246 69q-117 78 -117 216q0 59 15 119q22 88 24 119l264 -45q-16 -80 -26 -128q0 -91 200 -91h607q193 0 193 97q0 31 -26 122l261 47q5 -47 17 -143q7 -64 45 -93.5t139 -29.5v-259zM1145 -747h-229v231h229v-231z
M825 -747h-231v231h231v-231zM1145 -434h-229v231h229v-231zM825 -434h-231v231h231v-231z" />
    <glyph glyph-name="uniFB5C" unicode="&#x680;" horiz-adv-x="573" arabic-form="initial" 
d="M555 -529l-1 -223h-222l2 223h221zM259 -529l-2 -223h-221l2 223h221zM147 259q138 0 138 101v10q0 31 -33 161l239 50q61 -194 61 -304q0 -137 -104 -212q-93 -65 -237 -65h-251v259h187zM555 -240l-1 -224h-222l2 224h221zM259 -240l-2 -224h-221l2 224h221z" />
    <glyph glyph-name="uniFB5D" unicode="&#x680;" horiz-adv-x="633" arabic-form="medial" 
d="M675 0h-80q-149 0 -242 78q-106 -78 -296 -78h-97v259h43q180 0 182 67q0 26 -13 80q-11 46 -17 82l246 59q15 -89 32 -176q13 -68 57.5 -90t184.5 -22v-259zM545 -752h-224v223h224v-223zM247 -752h-220v223h220v-223zM545 -464h-224v224h224v-224zM247 -464h-220v224
h220v-224z" />
    <glyph glyph-name="uniFB5E" unicode="&#x67a;" horiz-adv-x="1651" arabic-form="isolated" 
d="M945 570h-229v231h229v-231zM947 879h-233v229h233v-229zM1598 263v-6q0 -257 -365 -257h-824q-367 0 -369 253q0 47 47 270l260 -46q-15 -77 -24 -142q0 -76 140 -76h638q97 0 132 5q88 15 88 79q0 26 -26 134l259 46q44 -212 44 -260z" />
    <glyph glyph-name="uniFB5F" unicode="&#x67a;" horiz-adv-x="1717" arabic-form="final" 
d="M940 568h-229v233h229v-233zM942 877h-231v231h231v-231zM1759 0q-188 0 -240 80q-80 -80 -276 -80h-834q-141 0 -246 69q-117 78 -117 216q0 59 15 119q22 88 24 119l264 -45q-16 -80 -26 -128q0 -91 200 -91h607q193 0 193 97q0 31 -26 122l261 47q5 -47 17 -143
q7 -64 45 -93.5t139 -29.5v-259z" />
    <glyph glyph-name="uniFB60" unicode="&#x67a;" horiz-adv-x="579" arabic-form="initial" 
d="M183 737l-1 223h219l2 -223h-220zM181 1027l-6 222h224l1 -222h-219zM67 259q138 0 138 101v10q0 31 -33 161l239 50q61 -194 61 -304q0 -137 -104 -212q-93 -65 -237 -65h-171v259h107z" />
    <glyph glyph-name="uniFB61" unicode="&#x67a;" horiz-adv-x="633" arabic-form="medial" 
d="M377 737h-220v224h220v-224zM377 1028h-221v221h221v-221zM675 0h-80q-149 0 -242 78q-106 -78 -296 -78h-97v259h43q180 0 182 67q0 26 -13 80q-11 46 -17 82l246 59q15 -89 32 -176q13 -68 57.5 -90t184.5 -22v-259z" />
    <glyph glyph-name="uniFB62" unicode="&#x67f;" horiz-adv-x="1651" arabic-form="isolated" 
d="M1107 877h-233v229h233v-229zM783 877h-229v229h229v-229zM1598 263v-6q0 -257 -365 -257h-824q-367 0 -369 253q0 47 47 270l260 -46q-15 -77 -24 -142q0 -76 140 -76h638q97 0 132 5q88 15 88 79q0 26 -26 134l259 46q44 -212 44 -260zM1107 570h-233v229h233v-229z
M783 570h-229v229h229v-229z" />
    <glyph glyph-name="uniFB63" unicode="&#x67f;" horiz-adv-x="1717" arabic-form="final" 
d="M1759 0q-188 0 -240 80q-80 -80 -276 -80h-834q-141 0 -246 69q-117 78 -117 216q0 59 15 119q22 88 24 119l264 -45q-16 -80 -26 -128q0 -91 200 -91h607q193 0 193 97q0 31 -26 122l261 47q5 -47 17 -143q7 -64 45 -93.5t139 -29.5v-259zM1107 877h-233v229h233v-229z
M783 877h-229v229h229v-229zM1107 570h-233v229h233v-229zM783 570h-229v229h229v-229z" />
    <glyph glyph-name="uniFB64" unicode="&#x67f;" horiz-adv-x="579" arabic-form="initial" 
d="M550 1248l-4 -222h-221l2 222h223zM250 1248l-1 -222h-224l6 222h219zM67 259q138 0 138 101v10q0 31 -33 161l239 50q61 -194 61 -304q0 -137 -104 -212q-93 -65 -237 -65h-171v259h107zM550 959l-4 -222h-221l2 222h223zM250 959l-1 -222h-224l6 222h219z" />
    <glyph glyph-name="uniFB65" unicode="&#x67f;" horiz-adv-x="633" arabic-form="medial" 
d="M506 1026h-222v221h222v-221zM209 1026h-221v221h221v-221zM675 0h-80q-149 0 -242 78q-106 -78 -296 -78h-97v259h43q180 0 182 67q0 26 -13 80q-11 46 -17 82l246 59q15 -89 32 -176q13 -68 57.5 -90t184.5 -22v-259zM506 737h-222v222h222v-222zM209 737h-221v222h221
v-222z" />
    <glyph glyph-name="uniFB66" unicode="&#x679;" horiz-adv-x="1651" arabic-form="isolated" 
d="M1560 263v-6q0 -257 -367 -257h-824q-369 0 -369 253q0 49 47 270l260 -46q-24 -123 -24 -142q0 -76 140 -76h640q95 0 130 5q88 15 88 79q0 11 -26 134l261 46q44 -227 44 -260zM1038 831q0 -114 -93 -156q-55 -26 -193 -26h-201v119h29l-28 367l110 11l20 -272
q72 44 112 65q68 37 121 37q61 0 94 -44q29 -38 29 -101zM931 833q0 32 -33 32q-29 0 -103 -38q-14 -10 -101 -59h146q91 0 91 65z" />
    <glyph glyph-name="uniFB67" unicode="&#x679;" horiz-adv-x="1717" arabic-form="final" 
d="M1759 0q-188 0 -240 80q-80 -80 -276 -80h-834q-141 0 -246 69q-117 78 -117 216q0 59 15 119q22 88 24 119l264 -45q-16 -80 -26 -128q0 -91 200 -91h607q193 0 193 97q0 31 -26 122l261 47q5 -47 17 -143q7 -64 45 -93.5t139 -29.5v-259zM1048 921q0 -114 -93 -156
q-55 -26 -193 -26h-201v119h29l-28 367l110 11l20 -272q72 44 112 65q68 37 121 37q61 0 94 -44q29 -38 29 -101zM941 923q0 32 -33 32q-29 0 -103 -38q-14 -10 -101 -59h146q91 0 91 65z" />
    <glyph glyph-name="uniFB68" unicode="&#x679;" horiz-adv-x="577" arabic-form="initial" 
d="M147 259q138 0 138 101v10q0 31 -33 161l239 50q61 -194 61 -304q0 -137 -104 -212q-93 -65 -237 -65h-251v259h187zM530 918q0 -114 -93 -156q-55 -26 -193 -26h-201v119h29l-28 367l110 11l20 -272q72 44 112 65q68 37 121 37q61 0 94 -44q29 -38 29 -101zM423 920
q0 32 -33 32q-29 0 -103 -38q-14 -10 -101 -59h146q91 0 91 65z" />
    <glyph glyph-name="uniFB69" unicode="&#x679;" horiz-adv-x="793" arabic-form="medial" 
d="M835 0h-80q-149 0 -242 78q-106 -78 -296 -78h-257v259h203q180 0 182 67q0 26 -13 80q-11 46 -17 82l246 59q15 -89 32 -176q13 -68 57.5 -90t184.5 -22v-259zM588 917q0 -114 -93 -156q-55 -26 -193 -26h-201v119h29l-28 367l110 11l20 -272q72 44 112 65q68 37 121 37
q61 0 94 -44q29 -38 29 -101zM481 919q0 32 -33 32q-29 0 -103 -38q-14 -10 -101 -59h146q91 0 91 65z" />
    <glyph glyph-name="uniFB6A" unicode="&#x6a4;" horiz-adv-x="1789" arabic-form="isolated" 
d="M1699 374q0 -203 -63 -285q-71 -89 -272 -89h-955q-365 0 -367 272q0 119 43 251l264 -45q-26 -93 -26 -128q0 -91 224 -91h926q-48 4 -89 18q-320 38 -325 261v9q0 107 95 214q109 125 134 140q87 73 173 73q115 0 180 -86q58 -73 58 -197v-317zM1492 478v183
q0 84 -35 87q-43 -14 -110 -81q-72 -71 -72 -110q0 -38 91 -60q26 -4 126 -19zM1539 1363h-229v231h229v-231zM1703 1056h-233v229h233v-229zM1379 1056h-229v229h229v-229z" />
    <glyph glyph-name="uniFB6B" unicode="&#x6a4;" horiz-adv-x="1789" arabic-form="final" 
d="M1829 0h-147q-67 0 -145 58q-67 -58 -194 -58h-934q-365 0 -367 272q0 119 43 251l264 -45q-26 -96 -26 -128q0 -91 211 -91h700q-69 39 -69 167q0 77 65 147q7 12 121 114q80 71 166 71q201 0 201 -347v-81l-2 -71h113v-259zM1518 240v227q0 60 -22 65q-30 -13 -85 -63
t-55 -78q0 -32 162 -151zM1559 1199h-229v231h229v-231zM1723 892h-233v229h233v-229zM1399 892h-229v229h229v-229z" />
    <glyph glyph-name="uniFB6C" unicode="&#x6a4;" horiz-adv-x="772" arabic-form="initial" 
d="M669 374q0 -206 -63 -286q-73 -88 -275 -88h-371v259h516v7q-237 37 -291 58q-154 60 -156 216q0 84 78 201q73 112 151 160q80 73 173 73q115 0 181 -86q57 -74 57 -197v-317zM450 478v190q0 69 -26 69q-45 -16 -105.5 -76.5t-79.5 -109.5q6 -32 211 -73zM519 1391h-229
v231h229v-231zM682 1084h-232v229h232v-229zM360 1084h-231v229h231v-229z" />
    <glyph glyph-name="uniFB6D" unicode="&#x6a4;" horiz-adv-x="681" arabic-form="medial" 
d="M723 0h-149q-70 0 -139 58q-65 -58 -194 -58h-281v259h169q-91 59 -91 145q0 101 137 228.5t237 127.5q200 0 203 -365q0 -10 -2 -75v-61h110v-259zM403 253v216q0 39 -20 60q-43 -24 -77 -62q-41 -48 -52 -78q4 -37 149 -136zM457 1227h-229v231h229v-231zM621 920h-233
v229h233v-229zM299 920h-231v229h231v-229z" />
    <glyph glyph-name="uniFB6E" unicode="&#x6a6;" horiz-adv-x="1789" arabic-form="isolated" 
d="M1699 374q0 -203 -63 -285q-71 -89 -272 -89h-955q-365 0 -367 272q0 119 43 251l264 -45q-26 -93 -26 -128q0 -91 224 -91h946q-8 4 -109 18q-320 38 -325 261v9q0 107 95 214q109 125 134 140q87 73 173 73q115 0 180 -86q58 -73 58 -197v-317zM1492 478v183
q0 84 -35 87q-43 -14 -110 -81q-72 -71 -72 -110q0 -38 91 -60q26 -4 126 -19zM1703 1363h-233v229h233v-229zM1379 1363h-229v229h229v-229zM1703 1056h-233v229h233v-229zM1379 1056h-229v229h229v-229z" />
    <glyph glyph-name="uniFB6F" unicode="&#x6a6;" horiz-adv-x="1789" arabic-form="final" 
d="M1829 0h-147q-67 0 -145 58q-67 -58 -194 -58h-934q-365 0 -367 272q0 119 43 251l264 -45q-26 -96 -26 -128q0 -91 211 -91h700q-69 39 -69 167q0 77 65 147q7 12 121 114q80 71 166 71q201 0 201 -347v-81l-2 -71h113v-259zM1518 240v227q0 60 -22 65q-30 -13 -85 -63
t-55 -78q0 -32 162 -151zM1723 1199h-233v229h233v-229zM1399 1199h-229v229h229v-229zM1723 892h-233v229h233v-229zM1399 892h-229v229h229v-229z" />
    <glyph glyph-name="uniFB70" unicode="&#x6a6;" horiz-adv-x="772" arabic-form="initial" 
d="M669 374q0 -206 -63 -286q-73 -88 -275 -88h-371v259h516v7q-237 37 -291 58q-154 60 -156 216q0 84 78 201q73 112 151 160q80 73 173 73q115 0 181 -86q57 -74 57 -197v-317zM450 478v190q0 69 -26 69q-45 -16 -105.5 -76.5t-79.5 -109.5q6 -32 211 -73zM682 1391h-232
v229h232v-229zM360 1391h-231v229h231v-229zM682 1084h-232v229h232v-229zM360 1084h-231v229h231v-229z" />
    <glyph glyph-name="uniFB71" unicode="&#x6a6;" horiz-adv-x="681" arabic-form="medial" 
d="M723 0h-149q-70 0 -139 58q-65 -58 -194 -58h-281v259h169q-91 59 -91 145q0 101 137 228.5t237 127.5q200 0 203 -365q0 -10 -2 -75v-61h110v-259zM403 253v216q0 39 -20 60q-43 -24 -77 -62q-41 -48 -52 -78q4 -37 149 -136zM621 1227h-233v229h233v-229zM299 1227
h-231v229h231v-229zM621 920h-233v229h233v-229zM299 920h-231v229h231v-229z" />
    <glyph glyph-name="uniFB72" unicode="&#x684;" horiz-adv-x="1050" arabic-form="isolated" 
d="M846 -72h-201v197h201v-197zM1019 704l-5 -229l-548 -386q-156 -109 -158 -255v-4q0 -161 183 -197q57 -11 350 -67l-43 -246q-118 15 -350 53q-183 33 -285 132q-121 115 -121 326q0 167 97 307q76 110 232 210l278 166l-296 72l-28 -80l-231 53l82 309zM846 -322h-201
v197h201v-197z" />
    <glyph glyph-name="uniFB73" unicode="&#x684;" horiz-adv-x="1083" arabic-form="final" 
d="M822 -233h-203v199h203v-199zM1124 0h-187q-109 0 -236 117q-110 -80 -237 -175q-135 -123 -137 -245v-3q0 -142 199 -204q71 -22 318 -56l-43 -248q-197 30 -335 58q-178 37 -288 136q-125 110 -125 307q0 172 93 311q69 101 233 212q4 2 281 170l-294 69l-32 -77
l-231 54l82 308l844 -164l-4 -229l-84 -58q47 -24 183 -24v-259zM820 -483h-199v200h199v-200z" />
    <glyph glyph-name="uniFB74" unicode="&#x684;" arabic-form="initial" 
d="M965 309q-134 -50 -284 -147q-177 -115 -347 -147q-74 -15 -374 -15v259q400 0 672 130l-326 75l-16 -54l-241 65l80 279l836 -203v-242zM573 -458h-231v231h231v-231zM572 -769h-229v231h229v-231z" />
    <glyph glyph-name="uniFB75" unicode="&#x684;" horiz-adv-x="996" arabic-form="medial" 
d="M1038 0h-162q-104 0 -236 125q-196 -125 -680 -125v259q469 0 676 130l-326 75l-19 -54l-243 67l87 277l830 -203l-1 -242l-81 -39q32 -11 155 -11v-259zM573 -458h-231v231h231v-231zM572 -769h-229v231h229v-231z" />
    <glyph glyph-name="uniFB76" unicode="&#x683;" horiz-adv-x="1050" arabic-form="isolated" 
d="M1014 -227h-201v197h201v-197zM757 -227h-201v197h201v-197zM1019 704l-5 -229l-548 -386q-156 -109 -158 -255v-4q0 -161 183 -197q57 -11 350 -67l-43 -246q-118 15 -350 53q-183 33 -285 132q-121 115 -121 326q0 167 97 307q76 110 232 210l278 166l-296 72l-28 -80
l-231 53l82 309z" />
    <glyph glyph-name="uniFB77" unicode="&#x683;" horiz-adv-x="1083" arabic-form="final" 
d="M1029 -378h-203v199h203v-199zM1124 0h-187q-109 0 -236 117q-110 -80 -237 -175q-135 -123 -137 -245v-3q0 -142 199 -204q71 -22 318 -56l-43 -248q-197 30 -335 58q-178 37 -288 136q-125 110 -125 307q0 172 93 311q69 101 233 212q4 2 281 170l-294 69l-32 -77
l-231 54l82 308l844 -164l-4 -229l-84 -58q47 -24 183 -24v-259zM772 -378h-200v199h200v-199z" />
    <glyph glyph-name="uniFB78" unicode="&#x683;" arabic-form="initial" 
d="M965 309q-134 -50 -284 -147q-177 -115 -347 -147q-74 -15 -374 -15v259q400 0 672 130l-326 75l-16 -54l-241 65l80 279l836 -203v-242zM733 -458h-229v231h229v-231zM412 -458h-230v231h230v-231z" />
    <glyph glyph-name="uniFB79" unicode="&#x683;" horiz-adv-x="996" arabic-form="medial" 
d="M1038 0h-162q-104 0 -236 125q-196 -125 -680 -125v259q469 0 676 130l-326 75l-19 -54l-243 67l87 277l830 -203l-1 -242l-81 -39q32 -11 155 -11v-259zM733 -458h-229v231h229v-231zM412 -458h-230v231h230v-231z" />
    <glyph glyph-name="uniFB7A" unicode="&#x686;" horiz-adv-x="1050" arabic-form="isolated" 
d="M1014 -102h-201v197h201v-197zM757 -102h-201v197h201v-197zM1019 704l-5 -229l-548 -386q-156 -109 -158 -255v-4q0 -161 183 -197q57 -11 350 -67l-43 -246q-118 15 -350 53q-183 33 -285 132q-121 115 -121 326q0 167 97 307q76 110 232 210l278 166l-296 72l-28 -80
l-231 53l82 309zM883 -352h-201v197h201v-197z" />
    <glyph glyph-name="uniFB7B" unicode="&#x686;" horiz-adv-x="1083" arabic-form="final" 
d="M1029 -253h-203v199h203v-199zM1124 0h-187q-109 0 -236 117q-110 -80 -237 -175q-135 -123 -137 -245v-3q0 -142 199 -204q71 -22 318 -56l-43 -248q-197 30 -335 58q-178 37 -288 136q-125 110 -125 307q0 172 93 311q69 101 233 212q4 2 281 170l-294 69l-32 -77
l-231 54l82 308l844 -164l-4 -229l-84 -58q47 -24 183 -24v-259zM772 -253h-200v199h200v-199zM898 -503h-199v200h199v-200z" />
    <glyph glyph-name="uniFB7C" unicode="&#x686;" arabic-form="initial" 
d="M965 309q-134 -50 -284 -147q-177 -115 -347 -147q-74 -15 -374 -15v259q400 0 672 130l-326 75l-16 -54l-241 65l80 279l836 -203v-242zM733 -458h-229v231h229v-231zM412 -458h-230v231h230v-231zM571 -769h-229v231h229v-231z" />
    <glyph glyph-name="uniFB7D" unicode="&#x686;" horiz-adv-x="996" arabic-form="medial" 
d="M1038 0h-162q-104 0 -236 125q-196 -125 -680 -125v259q469 0 676 130l-326 75l-19 -54l-243 67l87 277l830 -203l-1 -242l-81 -39q32 -11 155 -11v-259zM733 -458h-229v231h229v-231zM412 -458h-230v231h230v-231zM571 -769h-229v231h229v-231z" />
    <glyph glyph-name="uniFB7E" unicode="&#x687;" horiz-adv-x="1050" arabic-form="isolated" 
d="M987 -326h-189v186h189v-186zM1019 704l-5 -229l-548 -386q-156 -109 -158 -255v-4q0 -161 183 -197q57 -11 350 -67l-43 -246q-118 15 -350 53q-183 33 -285 132q-121 115 -121 326q0 167 97 307q76 110 232 210l278 166l-296 72l-28 -80l-231 53l82 309zM745 -326h-189
v186h189v-186zM987 -91h-189v186h189v-186zM745 -91h-189v186h189v-186z" />
    <glyph glyph-name="uniFB7F" unicode="&#x687;" horiz-adv-x="1083" arabic-form="final" 
d="M1002 -476h-191v187h191v-187zM1124 0h-187q-109 0 -236 117q-110 -80 -237 -175q-135 -123 -137 -245v-3q0 -142 199 -204q71 -22 318 -56l-43 -248q-197 30 -335 58q-178 37 -288 136q-125 110 -125 307q0 172 93 311q69 101 233 212q4 2 281 170l-294 69l-32 -77
l-231 54l82 308l844 -164l-4 -229l-84 -58q47 -24 183 -24v-259zM760 -476h-188v187h188v-187zM1002 -241h-191v187h191v-187zM760 -241h-188v187h188v-187z" />
    <glyph glyph-name="uniFB80" unicode="&#x687;" arabic-form="initial" 
d="M965 309q-134 -50 -284 -147q-177 -115 -347 -147q-74 -15 -374 -15v259q400 0 672 130l-326 75l-16 -54l-241 65l80 279l836 -203v-242zM733 -769h-229v231h229v-231zM412 -769h-230v231h230v-231zM733 -458h-229v231h229v-231zM412 -458h-230v231h230v-231z" />
    <glyph glyph-name="uniFB81" unicode="&#x687;" horiz-adv-x="996" arabic-form="medial" 
d="M1038 0h-162q-104 0 -236 125q-196 -125 -680 -125v259q469 0 676 130l-326 75l-19 -54l-243 67l87 277l830 -203l-1 -242l-81 -39q32 -11 155 -11v-259zM733 -769h-229v231h229v-231zM412 -769h-230v231h230v-231zM733 -458h-229v231h229v-231zM412 -458h-230v231h230
v-231z" />
    <glyph glyph-name="uniFB82" unicode="&#x68d;" horiz-adv-x="875" arabic-form="isolated" 
d="M818 277q0 -141 -111 -216q-95 -61 -242 -61h-371v259h397q65 0 65 48q0 34 -237 408l224 138q57 -92 173 -278q102 -173 102 -298zM713 -458h-229v231h229v-231zM392 -458h-230v231h230v-231z" />
    <glyph glyph-name="uniFB83" unicode="&#x68d;" horiz-adv-x="946" arabic-form="final" 
d="M988 0h-15q-97 0 -129 13q-54 21 -104 76q-112 -89 -298 -89h-348v259q246 -13 255 -13q209 0 209 59q0 43 -101 201q-45 69 -134 209l220 140l268 -481q48 -89 65 -100q30 -15 112 -15v-259zM713 -458h-229v231h229v-231zM392 -458h-230v231h230v-231z" />
    <glyph glyph-name="uniFB84" unicode="&#x68c;" horiz-adv-x="875" arabic-form="isolated" 
d="M818 277q0 -141 -111 -216q-95 -61 -242 -61h-371v259h397q65 0 65 48q0 34 -237 408l224 138q57 -92 173 -278q102 -173 102 -298zM714 981h-233v229h233v-229zM390 981h-229v229h229v-229z" />
    <glyph glyph-name="uniFB85" unicode="&#x68c;" horiz-adv-x="946" arabic-form="final" 
d="M988 0h-15q-97 0 -129 13q-54 21 -104 76q-112 -89 -298 -89h-348v259q246 -13 255 -13q209 0 209 59q0 43 -101 201q-45 69 -134 209l220 140l268 -481q48 -89 65 -100q30 -15 112 -15v-259zM714 981h-233v229h233v-229zM390 981h-229v229h229v-229z" />
    <glyph glyph-name="uniFB86" unicode="&#x68e;" horiz-adv-x="875" arabic-form="isolated" 
d="M818 277q0 -141 -111 -216q-95 -61 -242 -61h-371v259h397q65 0 65 48q0 34 -237 408l224 138q57 -92 173 -278q102 -173 102 -298zM550 1288h-229v231h229v-231zM714 981h-233v229h233v-229zM390 981h-229v229h229v-229z" />
    <glyph glyph-name="uniFB87" unicode="&#x68e;" horiz-adv-x="946" arabic-form="final" 
d="M988 0h-15q-97 0 -129 13q-54 21 -104 76q-112 -89 -298 -89h-348v259q246 -13 255 -13q209 0 209 59q0 43 -101 201q-45 69 -134 209l220 140l268 -481q48 -89 65 -100q30 -15 112 -15v-259zM550 1288h-229v231h229v-231zM714 981h-233v229h233v-229zM390 981h-229v229
h229v-229z" />
    <glyph glyph-name="uniFB88" unicode="&#x688;" horiz-adv-x="875" arabic-form="isolated" 
d="M818 277q0 -141 -111 -216q-95 -61 -242 -61h-371v259h397q65 0 65 48q0 34 -237 408l224 138q57 -92 173 -278q102 -173 102 -298zM686 1160q0 -114 -93 -156q-55 -26 -193 -26h-201v119h29l-28 367l110 11l20 -272q72 44 112 65q68 37 121 37q61 0 94 -44
q29 -38 29 -101zM579 1162q0 32 -33 32q-29 0 -103 -38q-14 -10 -101 -59h146q91 0 91 65z" />
    <glyph glyph-name="uniFB89" unicode="&#x688;" horiz-adv-x="946" arabic-form="final" 
d="M988 0h-15q-97 0 -129 13q-54 21 -104 76q-112 -89 -298 -89h-348v259q246 -13 255 -13q209 0 209 59q0 43 -101 201q-45 69 -134 209l220 140l268 -481q48 -89 65 -100q30 -15 112 -15v-259zM696 1160q0 -114 -93 -156q-55 -26 -193 -26h-201v119h29l-28 367l110 11
l20 -272q72 44 112 65q68 37 121 37q61 0 94 -44q29 -38 29 -101zM589 1162q0 32 -33 32q-29 0 -103 -38q-14 -10 -101 -59h146q91 0 91 65z" />
    <glyph glyph-name="uniFB8A" unicode="&#x698;" horiz-adv-x="806" arabic-form="isolated" 
d="M757 46v-6q0 -149 -99 -264q-82 -97 -225 -173q-26 -13 -263 -128l-115 225l274 132q177 101 177 216q0 74 -97 315l242 83q104 -264 106 -400zM558 978h-229v231h229v-231zM722 671h-233v229h233v-229zM398 671h-229v229h229v-229z" />
    <glyph glyph-name="uniFB8B" unicode="&#x698;" horiz-adv-x="886" arabic-form="final" 
d="M928 0h-33q-103 0 -132 58q7 -32 7 -65q0 -179 -210 -324q-56 -41 -362 -194l-115 222q257 124 276 135q169 110 169 228q0 55 -32 156q-9 24 -29.5 71.5t-31.5 73.5l240 86q56 -134 80 -158q37 -30 173 -30v-259zM613 973h-229v231h229v-231zM777 666h-233v229h233v-229
zM453 666h-229v229h229v-229z" />
    <glyph glyph-name="uniFB8C" unicode="&#x691;" horiz-adv-x="806" arabic-form="isolated" 
d="M757 46v-6q0 -149 -99 -264q-82 -97 -225 -173q-26 -13 -263 -128l-115 225l274 132q177 101 177 216q0 74 -97 315l242 83q104 -264 106 -400zM706 847q0 -114 -93 -156q-55 -26 -193 -26h-201v119h29l-28 367l110 11l20 -272q72 44 112 65q68 37 121 37q61 0 94 -44
q29 -38 29 -101zM599 849q0 32 -33 32q-29 0 -103 -38q-14 -10 -101 -59h146q91 0 91 65z" />
    <glyph glyph-name="uniFB8D" unicode="&#x691;" horiz-adv-x="886" arabic-form="final" 
d="M928 0h-33q-103 0 -132 58q7 -32 7 -65q0 -179 -210 -324q-56 -41 -362 -194l-115 222q257 124 276 135q169 110 169 228q0 55 -32 156q-9 24 -29.5 71.5t-31.5 73.5l240 86q56 -134 80 -158q37 -30 173 -30v-259zM746 840q0 -114 -93 -156q-55 -26 -193 -26h-201v119h29
l-28 367l110 11l20 -272q72 44 112 65q68 37 121 37q61 0 94 -44q29 -38 29 -101zM639 842q0 32 -33 32q-29 0 -103 -38q-14 -10 -101 -59h146q91 0 91 65z" />
    <glyph glyph-name="uniFB8E" unicode="&#x6a9;" horiz-adv-x="1727" arabic-form="isolated" 
d="M1681 1000l-311 -266q131 -192 140 -207q84 -132 84 -225q0 -131 -116 -220q-106 -82 -238 -82h-741q-197 0 -281 37q-138 60 -140 224v7q0 78 39 227l259 -48q-15 -93 -17 -104q0 -84 129 -84h720q119 0 119 50q0 39 -288 464l478 419z" />
    <glyph glyph-name="uniFB8F" unicode="&#x6a9;" horiz-adv-x="1837" arabic-form="final" 
d="M1879 0h-84q-181 0 -306 95q-117 -95 -329 -95h-706q-173 0 -259 45q-117 61 -119 216v7q0 78 39 227l257 -48q-7 -52 -18 -106q0 -82 134 -82h728q102 0 102 56v1q0 50 -287 457l483 417l165 -190l-312 -266l176 -270q103 -155 131 -177q35 -28 205 -28v-259z" />
    <glyph glyph-name="uniFB90" unicode="&#x6a9;" horiz-adv-x="668" arabic-form="initial" 
d="M299 318q0 51 -291 451l488 417l166 -186l-322 -266q97 -127 147 -205q76 -121 76 -229q0 -147 -132 -227q-117 -73 -266 -73h-205v259h205q129 2 134 59z" />
    <glyph glyph-name="uniFB91" unicode="&#x6a9;" horiz-adv-x="698" arabic-form="medial" 
d="M740 0h-45q-150 0 -277 95q-130 -95 -359 -95h-99v259q158 0 160 -2q136 6 138 54q0 52 -298 464l486 417l167 -190l-312 -268q134 -222 169 -272q138 -203 209 -203h61v-259z" />
    <glyph glyph-name="uniFB92" unicode="&#x6af;" horiz-adv-x="1738" arabic-form="isolated" 
d="M1499 1219l-484 -415l-67 79l484 415zM1691 1004l-321 -269q47 -65 144 -203q83 -122 83 -221q0 -136 -121 -227q-111 -84 -253 -84h-797q-346 0 -348 261v9q0 89 39 225l257 -48q-7 -50 -18 -106q0 -82 130 -82h707q131 0 131 56q0 39 -268 430l482 417z" />
    <glyph glyph-name="uniFB93" unicode="&#x6af;" horiz-adv-x="1829" arabic-form="final" 
d="M1496 1219l-489 -417l-62 81l484 405zM1871 0h-77q-180 0 -305 95q-114 -95 -330 -95h-705q-173 0 -259 45q-117 61 -119 216v7q0 78 39 227l257 -48q-8 -52 -19 -106q0 -82 134 -82h732q101 0 102 52q0 52 -266 434l481 417l147 -160l-317 -267l166 -251
q56 -86 126 -181q51 -44 213 -44v-259z" />
    <glyph glyph-name="uniFB94" unicode="&#x6af;" horiz-adv-x="688" arabic-form="initial" 
d="M320 309q0 48 -268 439l486 414l147 -162l-321 -265q49 -67 144 -203q74 -119 74 -229q0 -139 -95.5 -221t-231.5 -82h-295v259h250q110 2 110 50zM487 1210l-479 -406l-63 88l475 396z" />
    <glyph glyph-name="uniFB95" unicode="&#x6af;" horiz-adv-x="747" arabic-form="medial" 
d="M179 259q116 0 120 50q0 48 -113 218q-51 73 -155 218l480 413l149 -156l-326 -272l259 -369q37 -54 82 -84q37 -18 114 -18v-259q-198 0 -319 97q-82 -69 -184 -88q-42 -7 -121 -9h-205v259h219zM470 1216l-482 -412l-65 79l484 409z" />
    <glyph glyph-name="uniFB96" unicode="&#x6b3;" horiz-adv-x="1738" arabic-form="isolated" 
d="M1499 1219l-484 -415l-67 79l484 415zM1691 1004l-321 -269q47 -65 144 -203q83 -122 83 -221q0 -136 -121 -227q-111 -84 -253 -84h-797q-346 0 -348 261v9q0 89 39 225l257 -48q-7 -50 -18 -106q0 -82 130 -82h707q131 0 131 56q0 39 -268 430l482 417zM924 -474h-229
v235h229v-235zM924 -783h-229v235h229v-235z" />
    <glyph glyph-name="uniFB97" unicode="&#x6b3;" horiz-adv-x="1829" arabic-form="final" 
d="M1496 1219l-489 -417l-62 81l484 405zM1871 0h-77q-180 0 -305 95q-114 -95 -330 -95h-705q-173 0 -259 45q-117 61 -119 216v7q0 78 39 227l257 -48q-8 -52 -19 -106q0 -82 134 -82h732q101 0 102 52q0 52 -266 434l481 417l147 -160l-317 -267l166 -251
q56 -86 126 -181q51 -44 213 -44v-259zM924 -474h-229v235h229v-235zM924 -783h-229v235h229v-235z" />
    <glyph glyph-name="uniFB98" unicode="&#x6b3;" horiz-adv-x="688" arabic-form="initial" 
d="M320 309q0 48 -268 439l486 414l147 -162l-321 -265q49 -67 144 -203q74 -119 74 -229q0 -139 -95.5 -221t-231.5 -82h-295v259h250q110 2 110 50zM487 1210l-479 -406l-63 88l475 396zM393 -474h-229v235h229v-235zM393 -783h-229v235h229v-235z" />
    <glyph glyph-name="uniFB99" unicode="&#x6b3;" horiz-adv-x="747" arabic-form="medial" 
d="M179 259q116 0 120 50q0 48 -113 218q-51 73 -155 218l480 413l149 -156l-326 -272l259 -369q37 -54 82 -84q37 -18 114 -18v-259q-198 0 -319 97q-82 -69 -184 -88q-42 -7 -121 -9h-205v259h219zM470 1216l-482 -412l-65 79l484 409zM393 -474h-229v235h229v-235z
M393 -783h-229v235h229v-235z" />
    <glyph glyph-name="uniFB9A" unicode="&#x6b1;" horiz-adv-x="1738" arabic-form="isolated" 
d="M1499 1219l-484 -415l-67 79l484 415zM1691 1004l-321 -269q47 -65 144 -203q83 -122 83 -221q0 -136 -121 -227q-111 -84 -253 -84h-797q-346 0 -348 261v9q0 89 39 225l257 -48q-7 -50 -18 -106q0 -82 130 -82h707q131 0 131 56q0 39 -268 430l482 417zM1304 1267h-232
v229h232v-229zM982 1267h-231v229h231v-229z" />
    <glyph glyph-name="uniFB9B" unicode="&#x6b1;" horiz-adv-x="1829" arabic-form="final" 
d="M1496 1219l-489 -417l-62 81l484 405zM1871 0h-77q-180 0 -305 95q-114 -95 -330 -95h-705q-173 0 -259 45q-117 61 -119 216v7q0 78 39 227l257 -48q-8 -52 -19 -106q0 -82 134 -82h732q101 0 102 52q0 52 -266 434l481 417l147 -160l-317 -267l166 -251
q56 -86 126 -181q51 -44 213 -44v-259zM1304 1267h-232v229h232v-229zM982 1267h-231v229h231v-229z" />
    <glyph glyph-name="uniFB9C" unicode="&#x6b1;" horiz-adv-x="688" arabic-form="initial" 
d="M320 309q0 48 -268 439l486 414l147 -162l-321 -265q49 -67 144 -203q74 -119 74 -229q0 -139 -95.5 -221t-231.5 -82h-295v259h250q110 2 110 50zM487 1210l-479 -406l-63 88l475 396zM554 1367h-232v229h232v-229zM232 1367h-231v229h231v-229z" />
    <glyph glyph-name="uniFB9D" unicode="&#x6b1;" horiz-adv-x="747" arabic-form="medial" 
d="M179 259q116 0 120 50q0 48 -113 218q-51 73 -155 218l480 413l149 -156l-326 -272l259 -369q37 -54 82 -84q37 -18 114 -18v-259q-198 0 -319 97q-82 -69 -184 -88q-42 -7 -121 -9h-205v259h219zM470 1216l-482 -412l-65 79l484 409zM554 1367h-232v229h232v-229z
M232 1367h-231v229h231v-229z" />
    <glyph glyph-name="uniFB9E" unicode="&#x6ba;" horiz-adv-x="1493" arabic-form="isolated" 
d="M1414 -186q-143 -54 -432 -158q-272 -94 -435 -94h-3q-198 0 -327 123q-130 123 -132 319v10q0 135 50 284q30 93 93 283l250 -62q-24 -78 -75 -236q-41 -134 -41 -246q0 -95 69 -158q60 -54 162 -54q116 0 270 52q89 34 264 95l-145 596l246 48z" />
    <glyph glyph-name="uniFB9F" unicode="&#x6ba;" horiz-adv-x="1473" arabic-form="final" 
d="M1515 0q-115 0 -173 35l69 -335q-142 -52 -428 -156q-265 -93 -434 -93q-203 0 -331.5 123t-130.5 324q0 134 50 292l91 288l250 -63q-26 -78 -76 -240q-41 -141 -41 -251v-5q0 -92 69 -148q65 -54 163 -54q112 0 272 52q65 22 263 101l-144 586l242 52q49 -188 71 -208
q39 -41 218 -41v-259z" />
    <glyph glyph-name="uniFBA0" unicode="&#x6bb;" horiz-adv-x="1493" arabic-form="isolated" 
d="M1414 -186q-143 -54 -432 -158q-272 -94 -435 -94h-3q-198 0 -327 123q-130 123 -132 319v10q0 135 50 284q30 93 93 283l250 -62q-24 -78 -75 -236q-41 -134 -41 -246q0 -95 69 -158q60 -54 162 -54q116 0 270 52q89 34 264 95l-145 596l246 48zM970 918
q0 -114 -93 -156q-55 -26 -193 -26h-201v119h29l-28 367l110 11l20 -272q72 44 112 65q68 37 121 37q61 0 94 -44q29 -38 29 -101zM863 920q0 32 -33 32q-29 0 -103 -38q-14 -10 -101 -59h146q91 0 91 65z" />
    <glyph glyph-name="uniFBA1" unicode="&#x6bb;" horiz-adv-x="1473" arabic-form="final" 
d="M1515 0q-115 0 -173 35l69 -335q-142 -52 -428 -156q-265 -93 -434 -93q-203 0 -331.5 123t-130.5 324q0 134 50 292l91 288l250 -63q-26 -78 -76 -240q-41 -141 -41 -251v-5q0 -92 69 -148q65 -54 163 -54q112 0 272 52q65 22 263 101l-144 586l242 52q49 -188 71 -208
q39 -41 218 -41v-259zM970 808q0 -114 -93 -156q-55 -26 -193 -26h-201v119h29l-28 367l110 11l20 -272q72 44 112 65q68 37 121 37q61 0 94 -44q29 -38 29 -101zM863 810q0 32 -33 32q-29 0 -103 -38q-14 -10 -101 -59h146q91 0 91 65z" />
    <glyph glyph-name="uniFBA2" unicode="&#x6bb;" horiz-adv-x="577" arabic-form="initial" 
d="M147 259q138 0 138 101v10q0 31 -33 161l239 50q61 -194 61 -304q0 -137 -104 -212q-93 -65 -237 -65h-251v259h187zM530 918q0 -114 -93 -156q-55 -26 -193 -26h-201v119h29l-28 367l110 11l20 -272q72 44 112 65q68 37 121 37q61 0 94 -44q29 -38 29 -101zM423 920
q0 32 -33 32q-29 0 -103 -38q-14 -10 -101 -59h146q91 0 91 65z" />
    <glyph glyph-name="uniFBA3" unicode="&#x6bb;" horiz-adv-x="793" arabic-form="medial" 
d="M835 0h-80q-149 0 -242 78q-106 -78 -296 -78h-257v259h203q180 0 182 67q0 26 -13 80q-11 46 -17 82l246 59q15 -89 32 -176q13 -68 57.5 -90t184.5 -22v-259zM588 917q0 -114 -93 -156q-55 -26 -193 -26h-201v119h29l-28 367l110 11l20 -272q72 44 112 65q68 37 121 37
q61 0 94 -44q29 -38 29 -101zM481 919q0 32 -33 32q-29 0 -103 -38q-14 -10 -101 -59h146q91 0 91 65z" />
    <glyph glyph-name="uniFBA4" unicode="&#x6c0;" horiz-adv-x="893" arabic-form="isolated" 
d="M829 242q0 -106 -69.5 -174t-174.5 -68h-305q-110 0 -178.5 69t-68.5 177v3q0 103 117 229q39 36 210 181l-59 86l175 115l303 -454q50 -75 50 -164zM584 283q0 19 -114 181q-182 -172 -182 -201q0 -34 61 -34h177q58 0 58 54zM610 1128q-38 -7 -198 -70
q-124 -51 -197 -68l2 151q37 4 123 39q-131 15 -131 129q0 91 82 153q67 50 166 67l47 -136q-125 -19 -125 -66v-2q0 -61 136 -61q50 0 95 9v-145z" />
    <glyph glyph-name="uniFBA5" unicode="&#x6c0;" horiz-adv-x="835" arabic-form="final" 
d="M886 0h-84q-180 0 -243 127q-265 37 -317 57q-177 65 -177 233q0 130 97 225q220 218 337 220h5q162 0 217 -141q35 -90 35 -274q0 -158 22 -175q30 -14 82 -14q12 0 26 1v-259zM527 361v194q0 56 -24 56q-28 0 -111 -73t-83 -97q0 -35 93 -59q67 -8 125 -21zM633 1128
q-37 -7 -197 -70q-125 -51 -198 -68l2 151q39 6 121 39q-130 15 -130 129q0 91 84 153q69 50 167 67l45 -136q-125 -19 -125 -66v-2q0 -61 138 -61q50 0 93 9v-145z" />
    <glyph glyph-name="uniFBA6" unicode="&#x6c1;" horiz-adv-x="893" arabic-form="isolated" 
d="M829 242q0 -106 -69.5 -174t-174.5 -68h-305q-110 0 -178.5 69t-68.5 177v3q0 103 117 229q39 36 210 181l-59 86l175 115l303 -454q50 -75 50 -164zM584 283q0 19 -114 181q-182 -172 -182 -201q0 -34 61 -34h177q58 0 58 54z" />
    <glyph glyph-name="uniFBA7" unicode="&#x6c1;" horiz-adv-x="649" arabic-form="final" 
d="M583 1h-7q-72 4 -161 64q-53 36 -86 65v-1q-49 44 -53 44h-4q-18 0 -22 -37q-3 -30 -3 -66q0 -37 3 -80q13 -76 19 -101l-202 101q-12 82 -12 119q0 47 4 86q11 104 79 174q58 58 126 58q49 -2 89 -23.5t71 -51.5q47 -50 84 -70t91 -23h92v-259h-108v1z" />
    <glyph glyph-name="uniFBA8" unicode="&#x6c1;" horiz-adv-x="523" arabic-form="initial" 
d="M67 259q138 0 138 101v10q0 31 -33 161l239 50q61 -194 61 -304q0 -137 -104 -212q-93 -65 -237 -65h-171v259h107zM143 -264q23 11 47 11q121 0 121 -119q0 -95 -131 -95q-115 0 -115 108q0 95 61 192q69 108 161 108q31 0 31 -26q0 -15 -42.5 -35.5t-82.5 -57.5
q-48 -47 -50 -86z" />
    <glyph glyph-name="uniFBA9" unicode="&#x6c1;" horiz-adv-x="629" arabic-form="medial" 
d="M595 259h76v-259q-91 0 -125 -13q-61 -30 -61 -104q0 -78 86 -144l-188 -160q-157 104 -157 302q0 82 36 158q-82 -39 -146 -39h-156v259q50 -2 78 -4q14 -1 20 -1q114 0 114 70q0 41 -67 272l244 61q73 -259 73 -346q0 -86 -59 -137q100 85 232 85z" />
    <glyph glyph-name="uniFBAA" unicode="&#x6be;" horiz-adv-x="1264" arabic-form="isolated" 
d="M982 263q0 50 -26 117q-22 78 -54 102q-45 -22 -167 -223l206 -30q41 0 41 34zM668 570q-192 113 -207 113q-26 0 -26 -41q0 -61 20 -145q26 -106 67 -115q39 11 146 188zM285 233l-13 41h1q-26 98 -52 195q-28 116 -28 199q0 105 73.5 185t177.5 82q69 0 238.5 -83
t186.5 -156l216 62q29 -91 91 -276q48 -151 50 -277v-6q0 -99 -67 -152q-59 -47 -167 -47q-135 0 -460 80q-14 -8 -30 -15q-32 -20 -69 -40q-26 -13 -263 -128l-115 225z" />
    <glyph glyph-name="uniFBAB" unicode="&#x6be;" horiz-adv-x="835" arabic-form="final" 
d="M311 596l244 61q73 -259 73 -346q0 -86 -59 -137q100 85 232 85h76v-259q-91 0 -125 -13q-61 -30 -61 -104q0 -78 86 -144l-188 -160q-157 104 -157 302q0 82 36 158q-23 -11 -45 -19q-46 -23 -253 -123l-115 225l111 53q136 59 176 104q31 35 31 74q0 12 -3 24
q-16 70 -59 219z" />
    <glyph glyph-name="uniFBAC" unicode="&#x6be;" horiz-adv-x="1128" arabic-form="initial" 
d="M1090 205v-6q0 -99 -67 -152q-59 -47 -167 -47q-135 0 -460 80q-149 -80 -436 -80v259q110 0 177 15q-26 98 -52 195q-28 116 -28 199q0 105 73.5 185t177.5 82q69 0 238.5 -83t186.5 -156l216 62q29 -91 91 -276q48 -151 50 -277zM846 263q0 50 -26 117q-22 78 -54 102
q-45 -22 -167 -223l206 -30q41 0 41 34zM532 570q-192 113 -207 113q-26 0 -26 -41q0 -61 20 -145q26 -106 67 -115q39 11 146 188z" />
    <glyph glyph-name="uniFBAD" unicode="&#x6be;" horiz-adv-x="629" arabic-form="medial" 
d="M595 259h76v-259q-91 0 -125 -13q-61 -30 -61 -104q0 -78 86 -144l-188 -160q-157 104 -157 302q0 82 36 158q-82 -39 -146 -39h-156v259q50 -2 78 -4q14 -1 20 -1q114 0 114 70q0 41 -67 272l244 61q73 -259 73 -346q0 -86 -59 -137q100 85 232 85z" />
    <glyph glyph-name="uniFBAE" unicode="&#x6d2;" horiz-adv-x="1854" arabic-form="isolated" 
d="M1213 0q-456 2 -650.5 34.5t-320.5 91.5q-144 82 -146 183v1q0 167 192 270l44 17l537 157l80 -279l-241 -65l-16 54q-311 -72 -311 -95q0 -4 10 -6q217 -83 627 -104h696l73 -259h-574z" />
    <glyph glyph-name="uniFBAF" unicode="&#x6d2;" horiz-adv-x="1397" arabic-form="final" 
d="M774 259h665v-259h-760q-204 -13 -287 -70q-6 -6 -6 -12q0 -8 9 -15q198 -98 627 -104h226l73 -259l-192 -1q-468 0 -729 80q-286 87 -304 295q21 318 678 345z" />
    <glyph glyph-name="uniFBB0" unicode="&#x6d3;" horiz-adv-x="1854" arabic-form="isolated" 
d="M1213 0q-456 2 -650.5 34.5t-320.5 91.5q-144 82 -146 183v1q0 167 192 270l44 17l537 157l80 -279l-241 -65l-16 54q-311 -72 -311 -95q0 -4 10 -6q217 -83 627 -104h696l73 -259h-574zM674 902q-38 -7 -198 -70q-124 -51 -197 -68l2 151q37 4 123 39q-131 15 -131 129
q0 91 82 153q67 50 166 67l47 -136q-125 -19 -125 -66v-2q0 -61 136 -61q50 0 95 9v-145z" />
    <glyph glyph-name="uniFBB1" unicode="&#x6d3;" horiz-adv-x="1397" arabic-form="final" 
d="M774 259h665v-259h-760q-204 -13 -287 -70q-6 -6 -6 -12q0 -8 9 -15q198 -98 627 -104h226l73 -259l-192 -1q-468 0 -729 80q-286 87 -304 295q21 318 678 345zM664 502q-38 -7 -198 -70q-124 -51 -197 -68l2 151q37 4 123 39q-131 15 -131 129q0 91 82 153q67 50 166 67
l47 -136q-125 -19 -125 -66v-2q0 -61 136 -61q50 0 95 9v-145z" />
    <glyph glyph-name="uniFBD3" unicode="&#x6ad;" horiz-adv-x="1727" arabic-form="isolated" 
d="M1593 302q0 -131 -115 -220q-106 -82 -238 -82h-741q-198 0 -282 37q-137 60 -139 224v7q0 78 39 227l259 -48q-15 -93 -17 -104q0 -84 128 -84h721q119 0 119 50l-5 994h256zM996 609q-54 -13 -196 -73q-95 -39 -197 -65l2 149q43 6 119 41q-129 13 -129 127
q0 87 82 154q80 52 168 63l45 -134q-123 -16 -125 -63v-2q0 -63 140 -63q50 0 91 11v-145zM1546 1747h-229v231h229v-231zM1709 1440h-232v229h232v-229zM1387 1440h-231v229h231v-229z" />
    <glyph glyph-name="uniFBD4" unicode="&#x6ad;" horiz-adv-x="1839" arabic-form="final" 
d="M996 609q-54 -13 -196 -73q-95 -39 -197 -65l2 149q42 6 119 41q-129 13 -129 127q0 87 82 154q80 52 168 63l44 -134q-122 -16 -124 -63v-2q0 -63 139 -63q51 0 92 11v-145zM1794 0q-180 0 -305 95q-117 -95 -330 -95h-705q-173 0 -259 45q-117 61 -119 216v7
q0 78 39 227l257 -48q-8 -52 -19 -106q0 -82 134 -82h728q103 0 103 56l-2 1119h257l-6 -879q4 -116 28 -181q19 -48 47 -71q15 -7 31 -16q36 -28 205 -28h3v-259h-87zM1546 1877h-229v231h229v-231zM1709 1570h-232v229h232v-229zM1387 1570h-231v229h231v-229z" />
    <glyph glyph-name="uniFBD5" unicode="&#x6ad;" horiz-adv-x="668" arabic-form="initial" 
d="M299 318q0 51 -291 451l488 417l166 -186l-322 -266q97 -127 147 -205q76 -121 76 -229q0 -147 -132 -227q-117 -73 -266 -73h-205v259h205q129 2 134 59zM406 1574h-229v231h229v-231zM569 1267h-232v229h232v-229zM247 1267h-231v229h231v-229z" />
    <glyph glyph-name="uniFBD6" unicode="&#x6ad;" horiz-adv-x="698" arabic-form="medial" 
d="M740 0h-45q-150 0 -277 95q-130 -95 -359 -95h-99v259q158 0 160 -2q136 6 138 54q0 52 -298 464l486 417l167 -190l-312 -268q134 -222 169 -272q138 -203 209 -203h61v-259zM406 1574h-229v231h229v-231zM569 1267h-232v229h232v-229zM247 1267h-231v229h231v-229z" />
    <glyph glyph-name="uniFBD7" unicode="&#x6c7;" horiz-adv-x="949" arabic-form="isolated" 
d="M839 11q0 -177 -216 -318q-74 -49 -366 -185l-112 220q80 36 235 108q147 73 210 145q-231 34 -292 60q-149 63 -149 227q0 117 108 222q83 80 193 165q67 52 142 56h9q104 0 173 -95q65 -87 65 -203v-402zM612 207v186q0 54 -28 54t-109 -72t-97 -105q30 -34 234 -63z
M795 1055v-2q0 -113 -142 -146l-305 -73l-17 63q114 24 210 60q-35 43 -35 91q0 50 44 93t94 43h5q56 0 103 -43q43 -39 43 -86zM716 1044q0 64 -67 64t-67 -64q0 -26 20.5 -44.5t46.5 -18.5q62 0 67 63z" />
    <glyph glyph-name="uniFBD8" unicode="&#x6c7;" horiz-adv-x="935" arabic-form="final" 
d="M977 0h-151q-41 -192 -342 -343l-222 -104l-117 220q80 35 240 110q149 78 207 145q-227 33 -292 61q-153 66 -153 235q0 114 112 222q225 217 333 217h4q166 0 221 -182q28 -93 28 -322h132v-259zM614 251v187q0 61 -28 61q-18 0 -105.5 -76.5t-87.5 -94.5q0 -36 95 -60
q-4 0 126 -17zM795 1105v-2q0 -113 -142 -146l-305 -73l-17 63q114 24 210 60q-35 43 -35 91q0 50 44 93t94 43h5q56 0 103 -43q43 -39 43 -86zM716 1094q0 64 -67 64t-67 -64q0 -26 20.5 -44.5t46.5 -18.5q62 0 67 63z" />
    <glyph glyph-name="uniFBD9" unicode="&#x6c6;" horiz-adv-x="949" arabic-form="isolated" 
d="M839 11q0 -177 -216 -318q-74 -49 -366 -185l-112 220q80 36 235 108q147 73 210 145q-231 34 -292 60q-149 63 -149 227q0 117 108 222q83 80 193 165q67 52 142 56h9q104 0 173 -95q65 -87 65 -203v-402zM612 207v186q0 54 -28 54t-109 -72t-97 -105q30 -34 234 -63z
M637 833l-176 41q-61 112 -103 201q-39 89 -55 163h182q9 -33 25 -72q26 -65 51 -113q25 48 50 113q16 39 26 72h181q-16 -74 -55 -163q-49 -106 -126 -242z" />
    <glyph glyph-name="uniFBDA" unicode="&#x6c6;" horiz-adv-x="935" arabic-form="final" 
d="M977 0h-151q-41 -192 -342 -343l-222 -104l-117 220q80 35 240 110q149 78 207 145q-227 33 -292 61q-153 66 -153 235q0 114 112 222q225 217 333 217h4q166 0 221 -182q28 -93 28 -322h132v-259zM614 251v187q0 61 -28 61q-18 0 -105.5 -76.5t-87.5 -94.5q0 -36 95 -60
q-4 0 126 -17zM627 883l-176 41q-61 112 -103 201q-39 89 -55 163h182q9 -33 25 -72q26 -65 51 -113q25 48 50 113q16 39 26 72h181q-16 -74 -55 -163q-49 -106 -126 -242z" />
    <glyph glyph-name="uniFBDB" unicode="&#x6c8;" horiz-adv-x="949" arabic-form="isolated" 
d="M839 11q0 -177 -216 -318q-74 -49 -366 -185l-112 220q80 36 235 108q147 73 210 145q-231 34 -292 60q-149 63 -149 227q0 117 108 222q83 80 193 165q67 52 142 56h9q104 0 173 -95q65 -87 65 -203v-402zM612 207v186q0 54 -28 54t-109 -72t-97 -105q30 -34 234 -63z
M632 1235l-38 -401h-63l-43 401h144z" />
    <glyph glyph-name="uniFBDC" unicode="&#x6c8;" horiz-adv-x="935" arabic-form="final" 
d="M977 0h-151q-41 -192 -342 -343l-222 -104l-117 220q80 35 240 110q149 78 207 145q-227 33 -292 61q-153 66 -153 235q0 114 112 222q225 217 333 217h4q166 0 221 -182q28 -93 28 -322h132v-259zM614 251v187q0 61 -28 61q-18 0 -105.5 -76.5t-87.5 -94.5q0 -36 95 -60
q-4 0 126 -17zM632 1285l-38 -401h-63l-43 401h144z" />
    <glyph glyph-name="uniFBDD" unicode="&#x677;" horiz-adv-x="966" arabic-form="isolated" 
d="M792 11q0 -177 -216 -318q-74 -49 -366 -185l-112 220q80 36 235 108q147 73 210 145q-231 34 -292 60q-149 63 -149 227q0 117 108 222q83 80 193 165q67 52 142 56h9q104 0 173 -95q65 -87 65 -203v-402zM565 207v186q0 54 -28 54t-109 -72t-97 -105q30 -34 234 -63z
M471 1225l1 -2q10 -26 10 -49q0 -75 -90 -134l-254 -173l-37 52q96 62 171 128q-46 27 -63 71q-8 19 -8 39q0 29 16 62q25 54 71 71l5 2q23 9 48 9q30 0 61 -13q53 -20 69 -63zM402 1187q-15 42 -52 42q-14 0 -31 -6q-45 -17 -45 -54q0 -13 5 -29q9 -23 35 -33q13 -5 26 -5
q12 0 23 4q44 17 44 55q0 12 -5 26zM902 981q-28 -5 -157 -57q-100 -39 -158 -53v120q30 3 99 31q-103 13 -103 105q0 72 66 121q52 41 132 54l37 -108q-101 -15 -101 -53v-1q0 -51 110 -51q41 0 75 10v-118z" />
    <glyph glyph-name="uniFBDE" unicode="&#x6cb;" horiz-adv-x="949" arabic-form="isolated" 
d="M839 11q0 -177 -216 -318q-74 -49 -366 -185l-112 220q80 36 235 108q147 73 210 145q-231 34 -292 60q-149 63 -149 227q0 117 108 222q83 80 193 165q67 52 142 56h9q104 0 173 -95q65 -87 65 -203v-402zM612 207v186q0 54 -28 54t-109 -72t-97 -105q30 -34 234 -63z
M691 1346l-2 -223h-219l1 223h220zM838 1056l-4 -222h-221l2 222h223zM538 1056l-1 -222h-224l6 222h219z" />
    <glyph glyph-name="uniFBDF" unicode="&#x6cb;" horiz-adv-x="935" arabic-form="final" 
d="M977 0h-151q-41 -192 -342 -343l-222 -104l-117 220q80 35 240 110q149 78 207 145q-227 33 -292 61q-153 66 -153 235q0 114 112 222q225 217 333 217h4q166 0 221 -182q28 -93 28 -322h132v-259zM614 251v187q0 61 -28 61q-18 0 -105.5 -76.5t-87.5 -94.5q0 -36 95 -60
q-4 0 126 -17zM691 1396l-2 -223h-219l1 223h220zM838 1106l-4 -222h-221l2 222h223zM538 1106l-1 -222h-224l6 222h219z" />
    <glyph glyph-name="uniFBE0" unicode="&#x6c5;" horiz-adv-x="949" arabic-form="isolated" 
d="M612 207v186q0 54 -28 54t-109 -72t-97 -105q30 -34 234 -63zM578 -32q6 7 12 13q-231 34 -292 60q-149 63 -149 227q0 117 108 222q83 80 193 165q67 52 142 56h9q104 0 173 -95q65 -87 65 -203v-402q0 -177 -216 -318q-74 -49 -366 -185l-112 220q80 36 235 108
q28 14 53 28h-288v104h433z" />
    <glyph glyph-name="uniFBE1" unicode="&#x6c5;" horiz-adv-x="935" arabic-form="final" 
d="M614 251v187q0 61 -28 61q-18 0 -105.5 -76.5t-87.5 -94.5q0 -36 95 -60q-4 0 126 -17zM573 8q10 10 19 20q-227 33 -292 61q-153 66 -153 235q0 114 112 222q225 217 333 217h4q166 0 221 -182q28 -93 28 -322h132v-259h-151q-41 -192 -342 -343l-222 -104l-117 220
q80 35 240 110q20 11 39 21h-279v104h428z" />
    <glyph glyph-name="uniFBE2" unicode="&#x6c9;" horiz-adv-x="949" arabic-form="isolated" 
d="M839 11q0 -177 -216 -318q-74 -49 -366 -185l-112 220q80 36 235 108q147 73 210 145q-231 34 -292 60q-149 63 -149 227q0 117 108 222q83 80 193 165q67 52 142 56h9q104 0 173 -95q65 -87 65 -203v-402zM612 207v186q0 54 -28 54t-109 -72t-97 -105q30 -34 234 -63z
M763 996q39 -89 55 -163h-181q-10 33 -26 72q-25 65 -50 113q-25 -48 -51 -113q-16 -39 -25 -72h-182q16 74 55 163q42 89 103 201l176 41q77 -136 126 -242z" />
    <glyph glyph-name="uniFBE3" unicode="&#x6c9;" horiz-adv-x="935" arabic-form="final" 
d="M977 0h-151q-41 -192 -342 -343l-222 -104l-117 220q80 35 240 110q149 78 207 145q-227 33 -292 61q-153 66 -153 235q0 114 112 222q225 217 333 217h4q166 0 221 -182q28 -93 28 -322h132v-259zM614 251v187q0 61 -28 61q-18 0 -105.5 -76.5t-87.5 -94.5q0 -36 95 -60
q-4 0 126 -17zM753 1046q39 -89 55 -163h-181q-10 33 -26 72q-25 65 -50 113q-25 -48 -51 -113q-16 -39 -25 -72h-182q16 74 55 163q42 89 103 201l176 41q77 -136 126 -242z" />
    <glyph glyph-name="uniFBE4" unicode="&#x6d0;" horiz-adv-x="1392" arabic-form="isolated" 
d="M1325 -74q-199 -112 -352 -183q-220 -97 -376 -97q-222 0 -361.5 124t-139.5 347q0 166 143 503l244 -71q-31 -76 -87 -232q-32 -97 -32 -187q0 -95 68 -162t165 -67q87 0 244 62q145 57 234 113q-137 0 -237 87.5t-102 218.5v1q0 267 490 371l67 -216q-91 -15 -179 -52
q-124 -52 -124 -112q0 -95 262 -121zM774 -487l-2 -224h-222l2 224h222zM775 -776l-4 -225h-222l2 225h224z" />
    <glyph glyph-name="uniFBE5" unicode="&#x6d0;" horiz-adv-x="1374" arabic-form="final" 
d="M1416 0h-128l35 -199q-335 -242 -668 -242q-248 0 -399 132q-160 138 -160 385q0 222 132 451l239 -97q-116 -223 -116 -357q0 -133 95 -198q82 -57 214 -57q209 0 499 178q-50 2 -172 69t-157 110l128 212q99 -93 214 -117q60 -11 244 -11v-259zM773 -575l-2 -224h-222
l2 224h222zM774 -864l-4 -225h-222l2 225h224z" />
    <glyph glyph-name="uniFBE6" unicode="&#x6d0;" horiz-adv-x="573" arabic-form="initial" 
d="M407 -240l-2 -224h-221l2 224h221zM410 -529l-4 -225h-221l2 225h223zM147 259q138 0 138 101v10q0 31 -33 161l239 50q61 -194 61 -304q0 -137 -104 -212q-93 -65 -237 -65h-251v259h187z" />
    <glyph glyph-name="uniFBE7" unicode="&#x6d0;" horiz-adv-x="633" arabic-form="medial" 
d="M675 0h-80q-149 0 -242 78q-106 -78 -296 -78h-97v259h43q180 0 182 67q0 26 -13 80q-11 46 -17 82l246 59q15 -89 32 -176q13 -68 57.5 -90t184.5 -22v-259zM398 -464h-224v224h224v-224zM401 -754h-221v225h221v-225z" />
    <glyph glyph-name="uniFBE8" unicode="&#x649;" horiz-adv-x="577" arabic-form="initial" 
d="M147 259q138 0 138 101v10q0 31 -33 161l239 50q61 -194 61 -304q0 -137 -104 -212q-93 -65 -237 -65h-251v259h187z" />
    <glyph glyph-name="uniFBE9" unicode="&#x649;" horiz-adv-x="633" arabic-form="medial" 
d="M675 0h-80q-149 0 -242 78q-106 -78 -296 -78h-97v259h43q180 0 182 67q0 26 -13 80q-11 46 -17 82l246 59q15 -89 32 -176q13 -68 57.5 -90t184.5 -22v-259z" />
    <glyph glyph-name="uniFBFC" unicode="&#x6cc;" horiz-adv-x="1392" arabic-form="isolated" 
d="M1325 -74q-199 -112 -352 -183q-220 -97 -376 -97q-222 0 -361.5 124t-139.5 347q0 166 143 503l244 -71q-31 -76 -87 -232q-32 -97 -32 -187q0 -95 68 -162t165 -67q87 0 244 62q145 57 234 113q-137 0 -237 87.5t-102 218.5v1q0 267 490 371l67 -216q-91 -15 -179 -52
q-124 -52 -124 -112q0 -95 262 -121z" />
    <glyph glyph-name="uniFBFD" unicode="&#x6cc;" horiz-adv-x="1374" arabic-form="final" 
d="M1416 0h-128l35 -199q-335 -242 -668 -242q-248 0 -399 132q-160 138 -160 385q0 222 132 451l239 -97q-116 -223 -116 -357q0 -133 95 -198q82 -57 214 -57q209 0 499 178q-50 2 -172 69t-157 110l128 212q99 -93 214 -117q60 -11 244 -11v-259z" />
    <glyph glyph-name="uniFBFE" unicode="&#x6cc;" horiz-adv-x="603" arabic-form="initial" 
d="M147 259q138 0 138 101v10q0 31 -33 161l239 50q61 -194 61 -304q0 -137 -104 -212q-93 -65 -237 -65h-251v259h187zM548 -240l-3 -224h-222l2 224h223zM249 -240l-2 -224h-224l6 224h220z" />
    <glyph glyph-name="uniFBFF" unicode="&#x6cc;" horiz-adv-x="633" arabic-form="medial" 
d="M675 0h-80q-149 0 -242 78q-106 -78 -296 -78h-97v259h43q180 0 182 67q0 26 -13 80q-11 46 -17 82l246 59q15 -89 32 -176q13 -68 57.5 -90t184.5 -22v-259zM545 -464h-224v224h224v-224zM247 -464h-220v224h220v-224z" />
    <glyph glyph-name="uniFC5E" unicode="&#xfc5e;" horiz-adv-x="0" arabic-form="isolated" 
d="M515 1677v-3q0 -112 -141 -146l-306 -72l-18 63q71 21 71 82q0 30 -23 35q-18 0 -48 -22l-30 49q39 55 89 55q71 -1 71 -76q0 -54 -33 -99l115 34q-35 46 -35 93q0 52 42.5 94t94.5 42h5q51 0 98 -36q48 -39 48 -93zM512 1316q0 -49 -27 -84t-74 -35q-82 0 -128 67
q-49 -110 -151 -110q-43 0 -69 31.5t-26 76.5v6q0 58 35 141l56 -28q-20 -54 -24 -84q0 -59 44 -59q92 0 92 151v7l70 39q4 -155 82 -155q51 0 51 54q0 36 -43 93l58 43q52 -76 54 -154zM437 1668q0 62 -67 62t-67 -62q0 -24 20.5 -44.5t46.5 -20.5q24 0 48 19q17 20 19 46z
" />
    <glyph glyph-name="uniFC5F" unicode="&#xfc5f;" horiz-adv-x="0" arabic-form="isolated" 
d="M524 1635v-3q0 -46 -26 -80q-27 -36 -75 -38q-78 0 -127 67q-50 -110 -150 -110q-43 0 -70 33t-27 77v6q0 57 35 141l56 -28q-20 -54 -24 -83q0 -60 46 -60q90 0 90 151v7l72 39q2 -154 82 -156q49 0 49 54q0 28 -17 52q-11 19 -26 41l58 43q52 -76 54 -153zM531 1393
l-447 -111l-18 67l446 117zM531 1246l-447 -110l-18 65l446 118z" />
    <glyph glyph-name="uniFC60" unicode="&#xfc60;" horiz-adv-x="0" arabic-form="isolated" 
d="M524 1593l-447 -112l-21 67l447 115zM524 1315q0 -48 -27 -82.5t-74 -34.5q-82 0 -128 65q-51 -110 -151 -110q-43 0 -69 32t-28 76q0 60 37 147l56 -28q-22 -54 -26 -83q0 -58 47 -58q91 0 91 150v6l71 39q3 -154 81 -154q51 0 51 54q0 35 -43 93l58 43q52 -77 54 -155z
" />
    <glyph glyph-name="uniFC61" unicode="&#xfc61;" horiz-adv-x="0" arabic-form="isolated" 
d="M517 1677v-3q0 -112 -141 -146l-305 -72l-17 63q124 26 210 58q-35 46 -35 93q0 52 42.5 94t95.5 42h5q51 0 97 -36q48 -39 48 -93zM514 1316q0 -49 -26.5 -84t-74.5 -35q-82 0 -127 67q-50 -110 -150 -110q-43 0 -70 31.5t-27 76.5v6q0 58 35 141l56 -28
q-20 -54 -24 -84q0 -59 45 -59q91 0 91 151v7l71 39q3 -155 81 -155q51 0 51 54q0 36 -43 93l58 43q52 -76 54 -154zM439 1668q0 62 -67 62t-67 -62q0 -24 20.5 -44.5t46.5 -20.5q24 0 49 19q16 20 18 46z" />
    <glyph glyph-name="uniFC62" unicode="&#xfc62;" horiz-adv-x="0" arabic-form="isolated" 
d="M544 1520v-4q0 -48 -26 -80q-27 -34 -75 -36h-2q-79 0 -125 66q-50 -108 -150 -110q-43 0 -70 33.5t-27 76.5v6q0 58 35 141l56 -28q-20 -54 -24 -84q0 -58 46 -58q90 0 90 150v7l72 39q2 -155 82 -155q49 0 49 54q0 26 -17 50q-11 19 -26 41l58 45q52 -78 54 -154z
M551 1278l-447 -110l-18 65l446 117z" />
    <glyph glyph-name="uniFC63" unicode="&#xfc63;" horiz-adv-x="0" arabic-form="isolated" 
d="M524 1315q0 -48 -27 -82.5t-74 -34.5q-82 0 -128 65q-51 -110 -151 -110q-43 0 -69 32t-28 76q0 60 37 147l56 -28q-22 -54 -26 -83q0 -58 47 -58q91 0 91 150v6l71 39q3 -154 81 -154q51 0 51 54q0 35 -43 93l58 43q52 -77 54 -155zM341 1775l-28 -287h-46l-32 287h106z
" />
    <glyph glyph-name="uniFDF2" unicode="&#xfdf2;" horiz-adv-x="2345" arabic-form="isolated" 
d="M527 361v194q0 56 -24 56q-28 0 -111 -73t-83 -97q0 -35 93 -59q67 -8 125 -21zM858 257q140 0 140 104q0 58 -21 157q-18 91 -37 182q-9 54 -39 220l257 41l114 -617q11 -57 72 -78q14 -2 23 -2h19q146 0 156 105q-10 145 -33.5 282.5t-80.5 383.5l253 41
q46 -165 85.5 -389.5t41.5 -431.5v-3q0 -119 -74 -187q-72 -65 -227 -65h-114q-149 0 -222 95q-69 -95 -272 -95h-97q-180 0 -243 127q-265 37 -317 57q-177 65 -177 233q0 130 97 225q220 218 337 220h5q162 0 217 -141q35 -90 35 -274q0 -158 22 -175q37 -16 65 -16
q8 0 15 1zM1195 1384q6 -48 6 -88q0 -160 -101 -173q-9 -1 -17 -1q-55 0 -90 53q-20 -72 -98 -82q-9 -1 -17 -1q-64 0 -95 69q-16 28 -38 166l80 10q22 -144 70 -144h4q34 5 34 91q0 28 -4 66l77 10q20 -142 67 -142h5q36 5 36 96q0 26 -3 59zM1000 1433l-77 -10l-32 247
l78 10zM2260 0h-255v1071h255v-1071z" />
    <glyph glyph-name="uniFDFA" unicode="&#xfdfa;" horiz-adv-x="1915" arabic-form="isolated" 
d="M1460 659l36 66q4 -8 9.5 -21.5t11 -29.5t9.5 -34t4 -35q0 -23 -4.5 -45t-18.5 -48q-13 -21 -21.5 -31t-22.5 -10q-7 0 -24.5 8t-37 19.5t-38 23.5t-26.5 20q-13 -12 -31 -21t-38.5 -14t-42.5 -7.5t-42 -2.5q-22 0 -30 8.5t-8 22.5h-5q-4 -6 -14 -11.5t-24 -11.5
q3 -57 5.5 -112.5t5.5 -104.5t5 -89.5t4 -66.5q3 -16 8 -22q7 -8 24.5 -9.5t29.5 -1.5q37 0 66 1t49 7q-9 14 -20.5 36t-11.5 45q0 24 13.5 53t35 54t49 42.5t54.5 17.5q23 0 46 -6.5t44 -18.5t38.5 -26.5t28.5 -28.5l-9 -6q-22 12 -53 16t-53 4q-14 0 -33 -2t-38 -8
t-38 -14t-32 -20q5 -23 19.5 -44.5t32 -38t36 -27t31.5 -14.5q3 0 16 2t31.5 3.5t40 4t40.5 5t34 4t21 2.5l-37 -81q-17 -4 -44.5 -8.5t-60.5 -9.5t-68 -9.5t-69 -8.5q-39 -6 -79.5 -7t-74.5 -1h-26q-48 0 -65 48h-7l-22 -48h-182q-22 0 -42 15t-25 41h-7l-26 -56h-199
q-23 0 -42 10.5t-29 24.5q-13 15 -18 48t-8 68h-10l-44 -68q-31 4 -59.5 10t-53.5 15q-36 11 -47.5 20.5t-11.5 22.5q0 9 7.5 26.5t18 36t21 34t15.5 22.5q8 9 35 23.5t61 30.5q13 5 26.5 11.5t25.5 12.5q0 8 -1 23t-1 22l50 76l8 -116q1 -22 4 -51t5 -59t5 -58t5 -47
q3 -16 8 -26.5t10 -14.5q13 -7 24 -10t30 -5h162l23 136l58 40l-19 -119q3 -37 26 -47t52 -10h149l-24 389q-54 -15 -118 -26.5t-114 -11.5h-26q-20 0 -35.5 5t-27.5 18.5t-19.5 38.5t-10.5 64h-7l-22 -50l-104 -13q-43 0 -69 17.5t-45 43.5l-37 -69q-62 20 -113.5 54
t-81.5 65l28 62q-10 -6 -25 -14.5t-30.5 -17.5t-29 -17.5t-22.5 -14.5q5 -33 15.5 -75.5t22 -89t19 -93.5t7.5 -88l-38 -103h-2q0 43 -10 101t-24 118.5t-28 116.5t-22 95q9 29 26.5 56.5t36.5 44.5q10 8 28 19.5t39.5 22.5t45 22t45 19t37.5 13t23 5q31 0 42.5 -17.5
t21.5 -48.5q7 -22 15 -42.5t17 -37.5q12 -23 26.5 -35t28.5 -19t28 -8.5t26 -1.5l128 13l-7 77h-26q-55 0 -90.5 13.5t-57 36.5t-30 52t-8.5 58q0 34 7 64.5t18 57.5t24.5 51t25.5 44l17 -7q-17 -39 -28.5 -73.5t-11.5 -78.5q0 -32 12 -56.5t33 -41.5t48.5 -26t58.5 -9h1
l-18 209l54 92q1 -26 3.5 -59.5t4.5 -73t5 -82t6 -84.5q77 5 135 26t81 43q-3 11 -19 23.5t-40 22.5t-55 16.5t-66 6.5q8 22 15.5 41t19.5 41q25 8 55.5 19t66.5 30q15 7 28 21t22.5 29t16.5 28t9 20t3.5 15.5t1.5 13.5l-33 441l54 90l49 -682q8 -25 33 -25q28 0 48 4.5
t34 12.5t24.5 20t20.5 26q13 19 23.5 41t15.5 38l29 -11q-5 -19 -13.5 -43.5t-18.5 -42.5q-8 -15 -14.5 -25.5t-15.5 -19.5h82q34 28 76.5 61t86 61t86.5 47.5t77 19.5q16 0 35.5 -12t37 -30t29 -38.5t11.5 -37.5q0 -19 -6.5 -39.5t-17 -41.5t-22.5 -39.5t-22 -32.5h-383
q-23 -24 -37 -50.5t-27 -58.5l-28 10q8 27 18 52.5t23 46.5h-59q-16 0 -24.5 7t-12.5 15q-20 -22 -56 -22h-33q-14 0 -24.5 6t-13.5 11q-6 5 -9.5 15t-6 22.5t-3.5 25.5t-1 24q-2 4 -2.5 13.5t-1.5 20t-1.5 19.5t-0.5 15h-8q-7 -11 -15 -27.5t-17.5 -32.5t-20 -28.5
t-17.5 -16.5q-10 -6 -20.5 -10t-19.5 -8q8 -5 16 -8.5t17 -9.5q44 -27 60 -56l-42 -113q-32 -25 -88 -48t-119 -33q2 -33 4 -64.5t5 -57.5q3 -17 7 -22q4 -6 16 -8.5t27 -4t30 -2t24 -0.5q47 0 96.5 9.5t93.5 23.5l-13 225l53 92q2 -18 3 -48.5t2.5 -69.5t4 -85t4.5 -95
q55 21 67 40q16 24 28 46.5t25 52.5l28 -11q-8 -29 -19.5 -57t-23.5 -47q-3 -6 -6.5 -12t-3.5 -7q0 -9 30 -9q31 0 53.5 6.5t45.5 20.5q10 7 19 21t16 30t13 33t10 30l29 -9q-5 -23 -13 -52t-17 -52q6 -6 21.5 -18t34 -23t34 -19.5t21.5 -8.5q2 0 4 2q2 5 2 7q0 3 -0.5 14.5
t-3.5 27t-11 33.5t-21 35zM862 1076h-111q-50 0 -65 50h-7l-22 -50h-158q-24 0 -42.5 9.5t-29.5 22.5q-12 12 -18.5 40.5t-7.5 66.5h-5l-43 -57l-124 30q-37 14 -45.5 23.5t-8.5 26.5q0 8 6 20t18 30q13 22 22 34.5t18 21.5q4 4 16.5 10.5t29.5 12.5t37.5 11.5t41.5 11.5
l43 11v28l51 71v-281q0 -16 5.5 -27.5t12.5 -16.5q12 -9 23.5 -12t30.5 -4h130l-36 238l48 80l36 -286q4 -24 18.5 -28t32.5 -4h93l-56 333l49 84l54 -383zM1769 659q-10 -19 -26.5 -38t-43.5 -19q-19 0 -37 5.5t-32.5 16t-23.5 24.5t-9 31q0 40 11 75t28.5 61t39.5 40.5
t44 14.5q24 0 44 -21t34.5 -53t23 -70.5t8.5 -72.5q0 -51 -16 -104t-45.5 -96t-69 -70t-86.5 -27q-37 0 -80.5 13.5t-106.5 45.5l7 16q35 -11 55 -15.5t43 -4.5q41 0 84 19t79.5 49t62 67.5t33.5 74.5q-2 11 -5 20t-5 18h-11zM1162 1068l-44 530l54 92q9 -143 15 -232
t9.5 -140t4.5 -72.5t1 -29.5q0 -55 -12 -93t-23 -55h-5zM1696 993q5 4 11 8.5t6 7.5q0 8 -7.5 23.5t-22 32t-34.5 28.5t-47 12q-19 0 -44.5 -10.5t-52 -27t-53 -36.5t-47.5 -38h291zM1709 1400l-434 -185l28 63l433 186zM1428 1554q0 -13 -1 -26.5t-4 -22.5q5 -3 12.5 -6.5
t16.5 -3.5q23 0 35.5 24.5t14.5 55.5l24 11q0 -24 -2 -49t-9.5 -46.5t-24 -35.5t-45.5 -14q-16 0 -26.5 6t-16.5 11q-4 -8 -9.5 -17.5t-14 -17t-20.5 -12.5t-27 -5t-26.5 9.5t-11.5 44.5q0 19 7.5 42.5t13.5 32.5l13 -6q-2 -8 -4 -18.5t-2 -19.5q0 -12 5.5 -19.5t19.5 -7.5
t24 9.5t17.5 24t12.5 29.5t8 27h20zM289 1020q0 -12 -1 -25.5t-4 -23.5q5 -3 12.5 -6.5t16.5 -3.5q23 0 35.5 25t14.5 54l24 12q0 -23 -2 -48t-9.5 -46.5t-24 -35.5t-45.5 -14q-15 0 -26 6t-16 11q-5 -8 -10.5 -17.5t-14 -17t-20 -13.5t-27.5 -6q-15 0 -26.5 10.5
t-11.5 44.5q0 20 8 43.5t13 32.5l14 -6q-3 -9 -5 -19t-2 -19q0 -13 5.5 -20t20.5 -7q13 0 23 9.5t17.5 23.5t12.5 29.5t8 26.5h20zM955 -142l-68 40l-31 -40l-71 43l49 63l67 -41l31 41l71 -43zM648 329l22 50q7 4 15.5 7.5t23.5 3.5q9 0 26 -1.5t33 -5t28.5 -10t12.5 -13.5
t-4 -17.5t-10 -22.5t-14 -22t-16 -14l-27 -15q-7 -5 -23.5 -8.5t-47.5 -3.5q-39 0 -48 1.5t-9 3.5t11.5 4.5t18.5 3.5q10 2 25.5 5.5t32.5 8.5t32 12.5t25 19.5q-2 3 -13 5.5t-25 4t-27.5 2.5t-20.5 1q-3 0 -6.5 -0.5t-8.5 -1.5zM489 197l-10 137q-8 -11 -15 -24t-17 -19
q-5 -3 -22 -11t-37 -16t-39.5 -17t-29.5 -14l-7 -10q39 -13 77.5 -20.5t84.5 -14.5zM406 1371q-9 -13 -17.5 -24.5t-17.5 -16.5q-5 -2 -24.5 -7.5t-42 -11t-44.5 -11t-33 -9.5l-7 -10q39 -15 79.5 -25.5t86.5 -19.5l15 8zM685 1636q0 -10 -1.5 -21t-3.5 -19q5 -3 10.5 -6
t14.5 -3q19 0 29.5 19t10.5 38l20 9q0 -16 -5 -35t-15 -35.5t-25.5 -28.5t-37.5 -12q-13 0 -13.5 5.5t-5.5 9.5q-7 -14 -20 -29.5t-40 -15.5q-12 0 -21.5 8.5t-9.5 37.5q0 15 6 35.5t11 28.5l12 -6q-3 -7 -4.5 -16.5t-1.5 -15.5q0 -9 4.5 -16t16.5 -7t20 8.5t14.5 20
t10.5 24.5t7 22h17zM429 598q-13 23 -23 51.5t-16 48.5q-7 23 -33 23q-15 0 -40 -7t-46 -18q14 -16 33.5 -32.5t41 -30.5t42.5 -24.5t39 -14.5zM1769 692q-6 17 -14.5 32.5t-19 28.5t-21.5 21t-22 8q-10 0 -19.5 -7.5t-16 -17t-11 -19.5t-4.5 -16q6 -13 25 -24t52 -11
q9 0 25.5 1.5t25.5 3.5z" />
    <glyph glyph-name="uniFDFB" unicode="&#xfdfb;" horiz-adv-x="2101" arabic-form="isolated" 
d="M1941 507q-15 0 -50 7.5t-71 7.5q-26 0 -56.5 -11t-63.5 -28q63 -27 128.5 -49.5t115.5 -22.5l-55 -108q-17 0 -51.5 7.5t-70.5 7.5q-34 0 -82 -22.5t-98 -53.5t-95 -62.5t-74 -49.5q-64 -41 -121.5 -66t-133.5 -25q-50 0 -78 19t-39 38q-9 15 -14 31.5t-11 35.5h-7
q-4 -15 -12 -37.5t-17 -37.5q-28 -19 -70.5 -42.5t-103 -43.5t-139 -33.5t-179.5 -13.5q-76 0 -125 22t-78 55.5t-39.5 73t-10.5 75.5q0 85 23.5 143.5t54.5 108.5l21 -8q-8 -26 -14 -46t-10 -38.5t-5.5 -37.5t-1.5 -45q0 -40 15 -75t43 -60.5t66.5 -39.5t84.5 -14
q98 0 175 13t135.5 31.5t98 39.5t62.5 37l-18 233q-23 -38 -46 -69.5t-43 -53.5q-47 -53 -98.5 -82t-107.5 -38q-40 -7 -87 -10t-91 -7l-4 15q44 18 96 40.5t95 49.5q25 16 56 38.5t62.5 48.5t60 53t49.5 53q-13 62 -40 139.5t-70 162.5l14 -187l-43 -156h-247
q-32 0 -56.5 14.5t-38.5 31.5q-16 23 -23 63.5t-11 85.5h-12l-54 -80q-82 10 -148 32q-48 15 -63.5 27.5t-15.5 31.5q0 11 9 32t21 43.5t25 43t22 29.5q9 10 43.5 28t82.5 41l69 32l-2 59l65 101l11 -153q2 -28 5.5 -66t6.5 -78.5t6.5 -77.5t6.5 -62q3 -22 9.5 -35t13.5 -18
q15 -11 31 -14.5t40 -6.5h192l-33 369q-38 60 -83.5 116t-97.5 108l-6 -46q-37 21 -64.5 39t-46.5 35t-29 35t-10 40q0 31 8.5 66t11.5 49q32 -18 72 -52.5t81 -76.5t80.5 -88.5t71.5 -90.5l-33 384q-16 18 -22.5 31t-6.5 24l78 100h7q0 -15 2 -28t11.5 -28t30 -34.5
t56.5 -47.5l-75 -100l28 -423q35 -64 60 -128.5t43 -120t28 -99.5t15 -65q6 8 11.5 17t12.5 18l-72 972l71 122q1 -32 5 -99t9.5 -155t11 -191t12 -207t12 -201t9.5 -174q22 47 38 97.5t23 80.5q4 18 6.5 36t4.5 37l-31 651l63 108l57 -1089q2 -15 5 -36.5t13 -41t27 -34
t46 -14.5q53 0 95.5 11.5t94.5 33.5q11 4 22 9t24 12q-45 19 -85.5 31t-68.5 12q-21 0 -33 -8t-22 -19q-4 -5 -8 -10.5t-8 -9.5l-21 10q14 37 25.5 64t24.5 44t30 25t43 8q15 0 42 -7.5t59.5 -19.5t68 -27t68.5 -30q39 21 70.5 39t50.5 25q-34 12 -80 34t-93.5 43t-91 36.5
t-73.5 15.5q-21 0 -34 -9t-21 -20q-4 -6 -8 -11.5t-7 -9.5l-23 13q15 37 26.5 63t24.5 43.5t30 26t43 8.5q19 0 53.5 -12.5t75 -29.5t82 -37t74.5 -34q34 -15 71 -30t72.5 -27t69 -20.5t62.5 -8.5zM1043 307q4 -29 12.5 -56.5t24 -50t39.5 -36t57 -13.5q63 0 108.5 15
t99.5 42q29 15 73.5 40.5t90 51.5t85.5 47t59 30q-22 8 -49 19.5t-55 23.5q-28 -17 -53 -32t-44 -26q-33 -18 -62.5 -34t-59.5 -27t-63 -17.5t-73 -6.5q-26 0 -43 6.5t-28 17t-17 21.5t-10 19q-7 15 -16 64.5t-16 157.5q-3 27 -3.5 56t-3.5 49h-9l-10 -30q-9 -29 -23 -68.5
t-29 -73.5q3 -29 4.5 -51.5t2.5 -30.5zM1719 1127l-456 -193l36 80l457 196zM1459 1396q0 -18 -1.5 -35t-5.5 -29q7 -6 16.5 -10t23.5 -4q30 0 46.5 32.5t19.5 71.5l31 15q0 -30 -2.5 -63.5t-13 -61.5t-32.5 -46.5t-60 -18.5q-21 0 -35 8.5t-21 14.5q-6 -11 -13.5 -23
t-18.5 -23t-26.5 -18t-36.5 -7q-19 0 -34 13t-15 60q0 13 3 28.5t7 29t8.5 25t9.5 17.5l17 -9q-2 -11 -5 -25t-3 -25q0 -15 7 -25.5t26 -10.5q18 0 31.5 13t23 31.5t16 39t10.5 35.5h27zM394 654l-14 181q-10 -15 -18.5 -33t-22.5 -24q-6 -4 -29 -14.5t-49.5 -22
t-52.5 -22.5t-40 -18l-8 -14q52 -17 102.5 -27t112.5 -18zM1842 950q-50 -18 -112 -43t-123 -50l35 81q59 23 119.5 48.5t116.5 45.5zM1428 -112l-100 62l64 84l100 -63zM1682 -8l-100 60l65 85l100 -61z" />
    <glyph glyph-name="uniFDFC" unicode="&#xfdfc;" horiz-adv-x="2996" arabic-form="isolated" 
d="M1247 -303q-123 -45 -365 -133q-227 -80 -374 -80q-194 0 -322.5 128.5t-128.5 322.5q0 102 35 240q26 104 64 231l258 -54q-18 -63 -54 -196q-29 -109 -29 -199q0 -97 63 -152q58 -49 158 -51h9q92 0 209 39q67 26 209 79l-108 1143l251 28zM2128 -240l-3 -224h-222
l2 224h223zM1700 2q-89 7 -298 33v1037h257v-808q33 -5 154 -5h74q138 0 138 101v10q0 31 -33 161l239 50q61 -194 61 -304q0 -137 -104 -212q-93 -65 -237 -65h-251v2zM1829 -240l-2 -224h-224l6 224h220zM2947 46v-6q0 -149 -99 -264q-82 -97 -225 -173q-26 -13 -263 -128
l-115 225q136 65 274 130q177 103 177 218q0 88 -97 315l242 83q104 -271 106 -400z" />
    <glyph glyph-name="uniFE80" unicode="&#x621;" horiz-adv-x="523" arabic-form="isolated" 
d="M466 117q-98 -33 -197 -76q-110 -48 -195 -65l1 151q56 5 121 41q-128 13 -128 130q0 89 78 149q71 52 168 65l46 -132q-123 -26 -123 -67q0 -62 136 -62q47 0 93 10v-144z" />
    <glyph glyph-name="uniFE81" unicode="&#x622;" horiz-adv-x="633" arabic-form="isolated" 
d="M671 1255l-21 -205l-421 52l-20 -112l-205 32l50 307zM477 0h-250l-2 942h252v-942z" />
    <glyph glyph-name="uniFE82" unicode="&#x622;" horiz-adv-x="589" arabic-form="final" 
d="M631 0h-68q-67 0 -343 35v1037h257v-808q33 -5 154 -5v-259zM671 1391l-21 -203l-423 48l-20 -110l-203 32l48 307z" />
    <glyph glyph-name="uniFE83" unicode="&#x623;" horiz-adv-x="515" arabic-form="isolated" 
d="M429 0h-255v1071h255v-1071zM507 1370q-54 -11 -197 -72q-95 -39 -196 -65l2 150q41 6 121 41q-130 11 -130 127q0 89 80 153q86 54 168 63l46 -132q-119 -19 -125 -64q0 -65 138 -65q52 0 93 10v-146z" />
    <glyph glyph-name="uniFE84" unicode="&#x623;" horiz-adv-x="492" arabic-form="final" 
d="M534 0h-69q-67 0 -343 35v1037h257v-808q34 -5 155 -5v-259zM463 1370q-56 -11 -197 -72q-95 -39 -198 -65l4 150q41 6 117 41q-128 11 -128 127q0 87 82 153q80 52 167 63l45 -132q-123 -19 -125 -64v-1q0 -64 140 -64q52 0 93 10v-146z" />
    <glyph glyph-name="uniFE85" unicode="&#x624;" horiz-adv-x="856" arabic-form="isolated" 
d="M792 11q0 -177 -216 -318q-74 -49 -366 -185l-112 220q80 36 235 108q147 73 210 145q-231 34 -292 60q-149 63 -149 227q0 117 108 222q83 80 193 165q67 52 142 56h9q104 0 173 -95q65 -87 65 -203v-402zM565 207v186q0 54 -28 54t-109 -72t-97 -105q30 -34 234 -63z
M632 994q-26 -5 -197 -74q-115 -47 -197 -64l1 148q32 3 122 40q-131 15 -131 129q0 91 84 153q69 52 168 65l44 -134q-125 -19 -125 -65v-1q0 -63 138 -63q47 0 93 10v-144z" />
    <glyph glyph-name="uniFE86" unicode="&#x624;" horiz-adv-x="935" arabic-form="final" 
d="M977 0h-151q-41 -192 -342 -343l-222 -104l-117 220q80 35 240 110q149 78 207 145q-227 33 -292 61q-153 66 -153 235q0 114 112 222q225 217 333 217h4q166 0 221 -182q28 -93 28 -322h132v-259zM614 251v187q0 61 -28 61q-18 0 -105.5 -76.5t-87.5 -94.5q0 -36 95 -60
q-4 0 126 -17zM700 1018q-88 -28 -196 -74q-74 -32 -199 -67l2 151q50 7 123 41q-129 13 -129 130q0 89 80 151q71 50 168 63l45 -132q-123 -22 -125 -67v-2q0 -60 138 -60q50 0 93 10v-144z" />
    <glyph glyph-name="uniFE87" unicode="&#x625;" horiz-adv-x="515" arabic-form="isolated" 
d="M429 0h-255v1071h255v-1071zM498 -467q-54 -11 -195 -71q-95 -41 -198 -67l2 151q43 5 119 41q-128 11 -128 126q0 88 82 153q80 54 167 65l45 -134q-123 -19 -125 -63v-1q0 -64 140 -64q50 0 91 9v-145z" />
    <glyph glyph-name="uniFE88" unicode="&#x625;" horiz-adv-x="492" arabic-form="final" 
d="M534 0h-69q-67 0 -343 35v1037h257v-808q34 -5 155 -5v-259zM498 -467q-54 -11 -195 -71q-95 -41 -198 -67l2 151q43 5 119 41q-128 11 -128 126q0 88 82 153q80 54 167 65l45 -134q-123 -19 -125 -63v-1q0 -64 140 -64q50 0 91 9v-145z" />
    <glyph glyph-name="uniFE89" unicode="&#x626;" horiz-adv-x="1392" arabic-form="isolated" 
d="M1325 -74q-199 -112 -352 -183q-220 -97 -376 -97q-222 0 -361.5 124t-139.5 347q0 166 143 503l244 -71q-31 -76 -87 -232q-32 -97 -32 -187q0 -95 68 -162t165 -67q87 0 244 62q145 57 234 113q-137 0 -237 87.5t-102 218.5v1q0 267 490 371l67 -216q-91 -15 -179 -52
q-124 -52 -124 -112q0 -95 262 -121zM815 769q-54 -13 -198 -73q-93 -39 -195 -65l2 149q43 6 119 41q-130 13 -130 127q0 87 81 154q82 52 170 63l45 -134q-125 -18 -125 -63v-2q0 -63 139 -63q51 0 92 11v-145z" />
    <glyph glyph-name="uniFE8A" unicode="&#x626;" horiz-adv-x="1374" arabic-form="final" 
d="M1416 0h-128l35 -199q-335 -242 -668 -242q-248 0 -399 132q-160 138 -160 385q0 222 132 451l239 -97q-116 -223 -116 -357q0 -133 95 -198q82 -57 214 -57q209 0 499 178q-50 2 -172 69t-157 110l128 212q99 -93 214 -117q60 -11 244 -11v-259zM880 687
q-54 -13 -198 -73q-93 -39 -195 -65l2 149q43 6 119 41q-130 13 -130 127q0 87 82 154q82 52 169 64l45 -134q-125 -19 -125 -64v-2q0 -63 140 -63q50 0 91 11v-145z" />
    <glyph glyph-name="uniFE8B" unicode="&#x626;" horiz-adv-x="573" arabic-form="initial" 
d="M455 868q-76 -19 -195 -69q-131 -54 -201 -67l2 151q55 9 122 37q-128 18 -128 128q0 95 80 155q67 50 169 63l45 -134q-123 -15 -125 -63v-1q0 -64 138 -64q19 0 93 11v-147zM67 259q138 0 138 101v10q0 31 -33 161l239 50q61 -194 61 -304q0 -137 -104 -212
q-93 -65 -237 -65h-171v259h107z" />
    <glyph glyph-name="uniFE8C" unicode="&#x626;" horiz-adv-x="633" arabic-form="medial" 
d="M455 804q-44 -9 -195 -72q-106 -45 -201 -64l2 147q54 6 122 41q-128 12 -128 129q0 89 82 151q71 52 167 67l45 -134q-123 -21 -125 -67v-1q0 -61 138 -61q47 0 93 8v-144zM675 0h-80q-149 0 -242 78q-106 -78 -296 -78h-97v259h43q180 0 182 67q0 26 -13 80
q-11 46 -17 82l246 59q15 -89 32 -176q13 -68 57.5 -90t184.5 -22v-259z" />
    <glyph glyph-name="uniFE8D" unicode="&#x627;" horiz-adv-x="515" arabic-form="isolated" 
d="M430 0h-255v1071h255v-1071z" />
    <glyph glyph-name="uniFE8E" unicode="&#x627;" horiz-adv-x="491" arabic-form="final" 
d="M533 0h-68q-67 0 -343 35v1037h257v-808q33 -5 154 -5v-259z" />
    <glyph glyph-name="uniFE8F" unicode="&#x628;" horiz-adv-x="1651" arabic-form="isolated" 
d="M1598 263v-6q0 -257 -365 -257h-824q-367 0 -369 253q0 47 47 270l260 -46q-15 -77 -24 -142q0 -76 140 -76h638q97 0 132 5q88 15 88 79q0 26 -26 134l259 46q44 -212 44 -260zM962 -462h-229v231h229v-231z" />
    <glyph glyph-name="uniFE90" unicode="&#x628;" horiz-adv-x="1717" arabic-form="final" 
d="M1759 0q-188 0 -240 80q-80 -80 -276 -80h-834q-141 0 -246 69q-117 78 -117 216q0 59 15 119q22 88 24 119l264 -45q-16 -80 -26 -128q0 -91 200 -91h607q193 0 193 97q0 31 -26 122l261 47q5 -47 17 -143q7 -64 45 -93.5t139 -29.5v-259zM981 -462h-231v233h231v-233z
" />
    <glyph glyph-name="uniFE91" unicode="&#x628;" horiz-adv-x="523" arabic-form="initial" 
d="M386 -467h-251v247h251v-247zM67 259q138 0 138 101v10q0 31 -33 161l239 50q61 -194 61 -304q0 -137 -104 -212q-93 -65 -237 -65h-171v259h107z" />
    <glyph glyph-name="uniFE92" unicode="&#x628;" horiz-adv-x="633" arabic-form="medial" 
d="M675 0h-80q-149 0 -242 78q-106 -78 -296 -78h-97v259h43q180 0 182 67q0 26 -13 80q-11 46 -17 82l246 59q15 -89 32 -176q13 -68 57.5 -90t184.5 -22v-259zM427 -456h-229v229h229v-229z" />
    <glyph glyph-name="uniFE93" unicode="&#x629;" horiz-adv-x="893" arabic-form="isolated" 
d="M830 242q0 -106 -70 -174t-174 -68h-306q-109 0 -178 69t-69 177v3q0 103 117 229q39 36 211 181l-60 86l175 115l303 -454q51 -75 51 -164zM584 283q0 19 -114 181q-182 -172 -182 -201q0 -34 61 -34h177q58 0 58 54zM718 1290l-2 -223h-221l1 223h222zM420 1290
l-4 -223h-219l2 223h221z" />
    <glyph glyph-name="uniFE94" unicode="&#x629;" horiz-adv-x="844" arabic-form="final" 
d="M886 0h-84q-180 0 -244 127q-264 37 -316 57q-177 65 -177 233q0 130 97 225q220 218 337 220h5q162 0 216 -141q36 -90 36 -274q0 -158 22 -175q30 -14 82 -14q12 0 26 1v-259zM527 361v194q0 56 -24 56q-28 0 -111 -73t-83 -97q0 -35 93 -59q67 -8 125 -21zM718 1290
l-1 -223h-222l2 223h221zM421 1290l-4 -223h-220l2 223h222z" />
    <glyph glyph-name="uniFE95" unicode="&#x62a;" horiz-adv-x="1651" arabic-form="isolated" 
d="M1067 648h-231v227h231v-227zM745 648h-231v227h231v-227zM1560 263v-6q0 -257 -367 -257h-824q-369 0 -369 253q0 49 47 270l260 -46q-24 -123 -24 -142q0 -76 140 -76h640q95 0 130 5q88 15 88 79q0 11 -26 134l261 46q44 -227 44 -260z" />
    <glyph glyph-name="uniFE96" unicode="&#x62a;" horiz-adv-x="1717" arabic-form="final" 
d="M1081 735h-229v228h229v-228zM761 735h-231v228h231v-228zM1759 0q-188 0 -240 80q-80 -80 -276 -80h-834q-141 0 -246 69q-117 78 -117 216q0 59 15 119q22 88 24 119l264 -45q-16 -80 -26 -128q0 -91 200 -91h607q193 0 193 97q0 31 -26 122l261 47q5 -47 17 -143
q7 -64 45 -93.5t139 -29.5v-259z" />
    <glyph glyph-name="uniFE97" unicode="&#x62a;" horiz-adv-x="577" arabic-form="initial" 
d="M550 959l-2 -222h-223l4 222h221zM250 959l-1 -222h-220l2 222h219zM67 259q138 0 138 101v10q0 31 -33 161l239 50q61 -194 61 -304q0 -137 -104 -212q-93 -65 -237 -65h-171v259h107z" />
    <glyph glyph-name="uniFE98" unicode="&#x62a;" horiz-adv-x="633" arabic-form="medial" 
d="M507 737h-221v222h221v-222zM211 737h-221v222h221v-222zM675 0h-80q-149 0 -242 78q-106 -78 -296 -78h-97v259h43q180 0 182 67q0 26 -13 80q-11 46 -17 82l246 59q15 -89 32 -176q13 -68 57.5 -90t184.5 -22v-259z" />
    <glyph glyph-name="uniFE99" unicode="&#x62b;" horiz-adv-x="1651" arabic-form="isolated" 
d="M943 877h-229v231h229v-231zM1107 570h-233v229h233v-229zM783 570h-229v229h229v-229zM1598 263v-6q0 -257 -365 -257h-824q-367 0 -369 253q0 47 47 270l260 -46q-15 -77 -24 -142q0 -76 140 -76h638q97 0 132 5q88 15 88 79q0 26 -26 134l259 46q44 -212 44 -260z" />
    <glyph glyph-name="uniFE9A" unicode="&#x62b;" horiz-adv-x="1717" arabic-form="final" 
d="M940 875h-229v233h229v-233zM1102 568h-231v231h231v-231zM780 568h-229v231h229v-231zM1759 0q-188 0 -240 80q-80 -80 -276 -80h-834q-141 0 -246 69q-117 78 -117 216q0 59 15 119q22 88 24 119l264 -45q-16 -80 -26 -128q0 -91 200 -91h607q193 0 193 97
q0 31 -26 122l261 47q5 -47 17 -143q7 -64 45 -93.5t139 -29.5v-259z" />
    <glyph glyph-name="uniFE9B" unicode="&#x62b;" horiz-adv-x="579" arabic-form="initial" 
d="M403 1249l-2 -223h-219l1 223h220zM550 959l-4 -222h-221l2 222h223zM250 959l-1 -222h-224l6 222h219zM67 259q138 0 138 101v10q0 31 -33 161l239 50q61 -194 61 -304q0 -137 -104 -212q-93 -65 -237 -65h-171v259h107z" />
    <glyph glyph-name="uniFE9C" unicode="&#x62b;" horiz-adv-x="633" arabic-form="medial" 
d="M357 1026h-220v223h220v-223zM506 737h-222v222h222v-222zM209 737h-221v222h221v-222zM675 0h-80q-149 0 -242 78q-106 -78 -296 -78h-97v259h43q180 0 182 67q0 26 -13 80q-11 46 -17 82l246 59q15 -89 32 -176q13 -68 57.5 -90t184.5 -22v-259z" />
    <glyph glyph-name="uniFE9D" unicode="&#x62c;" horiz-adv-x="1050" arabic-form="isolated" 
d="M908 -212h-229v227h229v-227zM1019 704l-5 -229l-548 -386q-156 -109 -158 -255v-4q0 -161 183 -197q57 -11 350 -67l-43 -246q-117 15 -350 53q-183 33 -285 132q-121 115 -121 326q0 167 97 307q76 110 233 210l277 166l-296 72l-28 -80l-231 53l82 309z" />
    <glyph glyph-name="uniFE9E" unicode="&#x62c;" horiz-adv-x="1082" arabic-form="final" 
d="M963 -406h-229v227h229v-227zM1124 0h-187q-109 0 -236 117q-110 -80 -237 -175q-135 -123 -137 -245v-3q0 -142 199 -204q71 -22 318 -56l-43 -248q-197 30 -335 58q-178 37 -288 136q-125 110 -125 307q0 172 93 311q69 101 233 212q4 2 281 170l-294 69l-32 -77
l-231 54l82 308l844 -164l-4 -229l-84 -58q47 -24 183 -24v-259z" />
    <glyph glyph-name="uniFE9F" unicode="&#x62c;" arabic-form="initial" 
d="M965 309q-134 -50 -284 -147q-177 -115 -347 -147q-74 -15 -374 -15v259q400 0 672 130l-326 75l-16 -54l-241 65l80 279l836 -203v-242zM600 -462h-229v231h229v-231z" />
    <glyph glyph-name="uniFEA0" unicode="&#x62c;" horiz-adv-x="996" arabic-form="medial" 
d="M1038 0h-162q-104 0 -236 125q-196 -125 -680 -125v259q469 0 676 130l-326 75l-19 -54l-243 67l87 277l830 -203l-1 -242l-81 -39q32 -11 155 -11v-259zM582 -456h-231v231h231v-231z" />
    <glyph glyph-name="uniFEA1" unicode="&#x62d;" horiz-adv-x="1050" arabic-form="isolated" 
d="M1019 704l-5 -229l-548 -386q-156 -109 -158 -255v-4q0 -161 183 -197q57 -11 350 -67l-43 -246q-117 15 -350 53q-183 33 -285 132q-121 115 -121 326q0 167 97 307q76 110 233 210l277 166l-296 72l-28 -80l-231 53l82 309z" />
    <glyph glyph-name="uniFEA2" unicode="&#x62d;" horiz-adv-x="1082" arabic-form="final" 
d="M1124 0h-187q-109 0 -236 117q-110 -80 -237 -175q-135 -123 -137 -245v-3q0 -142 199 -204q71 -22 318 -56l-43 -248q-197 30 -335 58q-178 37 -288 136q-125 110 -125 307q0 172 93 311q69 101 233 212q4 2 281 170l-294 69l-32 -77l-231 54l82 308l844 -164l-4 -229
l-84 -58q47 -24 183 -24v-259z" />
    <glyph glyph-name="uniFEA3" unicode="&#x62d;" arabic-form="initial" 
d="M965 309q-134 -50 -284 -147q-177 -115 -347 -147q-74 -15 -374 -15v259q400 0 672 130l-326 75l-16 -54l-241 65l80 279l836 -203v-242z" />
    <glyph glyph-name="uniFEA4" unicode="&#x62d;" horiz-adv-x="996" arabic-form="medial" 
d="M1038 0h-162q-104 0 -236 125q-196 -125 -680 -125v259q469 0 676 130l-326 75l-19 -54l-243 67l87 277l830 -203l-1 -242l-81 -39q32 -11 155 -11v-259z" />
    <glyph glyph-name="uniFEA5" unicode="&#x62e;" horiz-adv-x="1050" arabic-form="isolated" 
d="M802 981h-229v229h229v-229zM1019 704l-5 -229l-548 -386q-156 -109 -158 -255v-4q0 -161 183 -197q57 -11 350 -67l-43 -246q-117 15 -350 53q-183 33 -285 132q-121 115 -121 326q0 167 97 307q76 110 233 210l277 166l-296 72l-28 -80l-231 53l82 309z" />
    <glyph glyph-name="uniFEA6" unicode="&#x62e;" horiz-adv-x="1082" arabic-form="final" 
d="M757 804h-231v233h231v-233zM1124 0h-187q-109 0 -236 117q-110 -80 -237 -175q-135 -123 -137 -245v-3q0 -142 199 -204q71 -22 318 -56l-43 -248q-197 30 -335 58q-178 37 -288 136q-125 110 -125 307q0 172 93 311q69 101 233 212q4 2 281 170l-294 69l-32 -77
l-231 54l82 308l844 -164l-4 -229l-84 -58q47 -24 183 -24v-259z" />
    <glyph glyph-name="uniFEA7" unicode="&#x62e;" arabic-form="initial" 
d="M608 836h-227v231h227v-231zM965 309q-134 -50 -284 -147q-177 -115 -347 -147q-74 -15 -374 -15v259q400 0 672 130l-326 75l-16 -54l-241 65l80 279l836 -203v-242z" />
    <glyph glyph-name="uniFEA8" unicode="&#x62e;" horiz-adv-x="996" arabic-form="medial" 
d="M615 812h-227v231h227v-231zM1038 0h-162q-104 0 -236 125q-196 -125 -680 -125v259q469 0 676 130l-326 75l-19 -54l-243 67l87 277l830 -203l-1 -242l-81 -39q32 -11 155 -11v-259z" />
    <glyph glyph-name="uniFEA9" unicode="&#x62f;" horiz-adv-x="875" arabic-form="isolated" 
d="M818 277q0 -134 -111 -216q-107 -61 -242 -61h-371v259h397q65 0 65 48q0 24 -237 408l224 138q57 -92 173 -278q102 -173 102 -298z" />
    <glyph glyph-name="uniFEAA" unicode="&#x62f;" horiz-adv-x="946" arabic-form="final" 
d="M988 0h-15q-97 0 -129 13q-54 21 -104 76q-112 -89 -298 -89h-348v259q246 -13 255 -13q209 0 209 59q0 43 -101 201q-45 69 -134 209l220 140l268 -481q48 -89 65 -100q30 -15 112 -15v-259z" />
    <glyph glyph-name="uniFEAB" unicode="&#x630;" horiz-adv-x="875" arabic-form="isolated" 
d="M511 981h-227v229h227v-229zM818 277q0 -141 -111 -216q-95 -61 -242 -61h-371v259h397q65 0 65 48q0 34 -237 408l224 138q57 -92 173 -278q102 -173 102 -298z" />
    <glyph glyph-name="uniFEAC" unicode="&#x630;" horiz-adv-x="946" arabic-form="final" 
d="M518 985h-229v229h229v-229zM988 0h-15q-97 0 -129 13q-54 21 -104 76q-112 -89 -298 -89h-348v259q246 -13 255 -13q209 0 209 59q0 43 -101 201q-45 69 -134 209l220 140l268 -481q48 -89 65 -100q30 -15 112 -15v-259z" />
    <glyph glyph-name="uniFEAD" unicode="&#x631;" horiz-adv-x="806" arabic-form="isolated" 
d="M757 46v-6q0 -149 -99 -264q-82 -97 -225 -173q-26 -13 -263 -128l-115 225q136 65 274 130q177 103 177 218q0 88 -97 315l242 83q104 -271 106 -400z" />
    <glyph glyph-name="uniFEAE" unicode="&#x631;" horiz-adv-x="886" arabic-form="final" 
d="M928 0h-43q-93 0 -122 58q7 -32 7 -69q0 -173 -210 -320q-54 -40 -362 -194l-115 222l276 135q167 110 169 228q0 54 -32 156q-9 24 -29.5 71.5t-31.5 73.5l240 86q56 -136 80 -158q34 -30 173 -30v-259z" />
    <glyph glyph-name="uniFEAF" unicode="&#x632;" horiz-adv-x="806" arabic-form="isolated" 
d="M489 672h-227v232h227v-232zM757 46v-6q0 -149 -99 -264q-82 -97 -225 -173q-26 -13 -263 -128l-115 225l274 132q177 101 177 216q0 74 -97 315l242 83q104 -264 106 -400z" />
    <glyph glyph-name="uniFEB0" unicode="&#x632;" horiz-adv-x="886" arabic-form="final" 
d="M545 661h-231v233h231v-233zM928 0h-33q-103 0 -132 58q7 -32 7 -65q0 -179 -210 -324q-56 -41 -362 -194l-115 222q257 124 276 135q169 110 169 228q0 55 -32 156q-9 24 -29.5 71.5t-31.5 73.5l240 86q56 -134 80 -158q37 -30 173 -30v-259z" />
    <glyph glyph-name="uniFEB1" unicode="&#x633;" horiz-adv-x="2245" arabic-form="isolated" 
d="M2198 277q0 -145 -111 -217q-93 -60 -246 -60q-182 0 -227 80q-95 -78 -184 -78q-79 0 -101 33l87 -333q-143 -52 -435 -156q-276 -95 -441 -95q-200 0 -324.5 123.5t-126.5 323.5q0 152 123 579l264 -67l-72 -242q-36 -120 -38 -248v-3q0 -87 66 -146q59 -54 158 -54
q149 0 536 149l-147 586l255 73q19 -78 41 -166q39 -98 115 -98q86 0 110 238l265 -43q-21 -89 -21 -136q0 -61 86 -61q98 0 100 69v6q0 62 -39 156l240 76q67 -210 67 -289z" />
    <glyph glyph-name="uniFEB2" unicode="&#x633;" horiz-adv-x="2350" arabic-form="final" 
d="M2392 0q-195 0 -283 78q-113 -78 -284 -78q-166 0 -211 80q-95 -78 -184 -78q-78 0 -101 33l78 -333q-143 -52 -430 -156q-273 -95 -437 -95q-199 0 -327.5 119t-130.5 320v11q0 128 45 298q20 71 94 300l248 -93q-69 -212 -76 -237q-39 -139 -39 -242q0 -96 69 -156
q63 -56 163 -58h4q150 0 529 159l-151 580l268 64q37 -147 41 -160q39 -97 114 -97q85 0 110 240l264 -43q-21 -89 -21 -136q0 -61 94 -61q91 0 93 69v6q0 62 -39 156l240 76q11 -56 33 -166q21 -74 64 -106q50 -35 163 -35v-259z" />
    <glyph glyph-name="uniFEB3" unicode="&#x633;" horiz-adv-x="1366" arabic-form="initial" 
d="M1314 281q0 -128 -125 -208q-110 -73 -246 -73q-168 0 -218 88q-71 -88 -190 -88q-126 0 -216 108q-56 -108 -294 -108h-65v259h45q156 0 156 84q0 39 -24 109l249 47q17 -112 28 -145q32 -95 90 -95q63 0 93 93q3 30 24 151l244 -45l-24 -156q11 -43 95 -43
q121 0 121 76q0 21 -51 196l246 55q62 -243 62 -305z" />
    <glyph glyph-name="uniFEB4" unicode="&#x633;" horiz-adv-x="1409" arabic-form="medial" 
d="M1451 0h-35q-112 0 -205 84q-123 -84 -272 -84q-160 0 -214 88q-84 -88 -197 -88q-121 0 -207 102q-69 -102 -301 -102h-60v259l52 -2q11 -1 22 -1q120 0 123 85q0 2 -20 113l253 43q22 -121 28 -145q30 -93 93 -93q108 0 110 244l246 -41l-24 -160q0 -43 106 -43
q93 0 93 69q0 31 -38 167l243 71q22 -145 48 -199q52 -108 156 -108v-259z" />
    <glyph glyph-name="uniFEB5" unicode="&#x634;" horiz-adv-x="2245" arabic-form="isolated" 
d="M1662 1050h-231v233h231v-233zM1822 741h-229v235h229v-235zM1502 741h-229v235h229v-235zM2198 277q0 -145 -111 -217q-93 -60 -246 -60q-182 0 -227 80q-88 -78 -184 -78q-79 0 -101 33l87 -333q-143 -52 -435 -156q-276 -95 -441 -95q-200 0 -324.5 123.5
t-126.5 323.5q0 152 123 579l264 -67l-72 -242q-36 -120 -38 -248v-3q0 -87 66 -146q59 -54 158 -54q158 0 536 149l-147 586l255 73q19 -80 41 -166q39 -98 115 -98q90 0 110 238l265 -43q-21 -78 -21 -136q0 -61 86 -61q98 0 100 69v5q0 57 -39 157l240 76
q67 -212 67 -289z" />
    <glyph glyph-name="uniFEB6" unicode="&#x634;" horiz-adv-x="2350" arabic-form="final" 
d="M1666 1050h-231v233h231v-233zM1830 741h-233v235h233v-235zM1508 741h-231v235h231v-235zM2392 0q-199 0 -283 78q-113 -78 -284 -78q-166 0 -211 80q-87 -78 -184 -78q-82 0 -101 33l78 -333q-143 -54 -430 -156q-275 -95 -437 -95q-199 0 -327.5 119t-130.5 320v11
q0 128 45 298q20 71 94 300l248 -93q-69 -212 -76 -237q-39 -139 -39 -242q0 -96 69 -156q63 -56 163 -58h7q98 0 262 56q46 17 264 103l-151 580l268 64q37 -147 41 -160q39 -97 114 -97q89 0 110 240l264 -43q-21 -78 -21 -136q0 -61 94 -61q91 0 93 69v5q0 57 -39 157
l240 76q11 -56 33 -166q21 -74 64 -106q50 -35 163 -35v-259z" />
    <glyph glyph-name="uniFEB7" unicode="&#x634;" horiz-adv-x="1366" arabic-form="initial" 
d="M772 1058h-231v227h231v-227zM936 748h-233v229h233v-229zM613 748h-230v229h230v-229zM1314 281q0 -132 -125 -212q-108 -69 -246 -69q-168 0 -218 88q-74 -88 -190 -88q-126 0 -216 108q-31 -67 -137 -97q-62 -11 -177 -11h-45v259h45q156 0 156 84q0 37 -24 109
l249 47q8 -48 33 -144t85 -96q65 0 93 93q5 33 24 151l244 -45l-24 -156q11 -43 95 -43q46 0 76 13q43 20 46 59l-52 200l246 55q62 -243 62 -305z" />
    <glyph glyph-name="uniFEB8" unicode="&#x634;" horiz-adv-x="1409" arabic-form="medial" 
d="M774 1050h-233v233h233v-233zM937 741h-234v235h234v-235zM615 741h-232v235h232v-235zM1451 0q-147 0 -240 84q-123 -84 -272 -84q-164 0 -214 88q-87 -88 -197 -88q-58 0 -114 34q-48 20 -93 68q-43 -63 -143 -91q-65 -11 -179 -11h-39v259l52 -2q11 -1 22 -1
q120 0 123 85q0 2 -20 113l253 43q15 -97 32 -145q30 -93 89 -93q108 0 110 244l246 -41q-24 -131 -24 -153q0 -50 106 -50q93 0 93 69q0 26 -38 167l243 71q29 -166 48 -199q46 -108 156 -108v-259z" />
    <glyph glyph-name="uniFEB9" unicode="&#x635;" horiz-adv-x="2377" arabic-form="isolated" 
d="M2306 449v-4q0 -445 -417 -445h-359q-106 0 -196 39l79 -339q-144 -52 -432 -154q-278 -93 -438 -93q-199 0 -326.5 121t-129.5 322q0 132 50 290l90 283l257 -58q-28 -80 -80 -242q-38 -117 -41 -251v-10q0 -86 67 -139q65 -52 160 -54h7q99 0 263 56q139 47 264 95
l-141 588l253 58l35 -169q155 130 354 249q251 147 389 147q130 0 209 -80q81 -86 83 -210zM2046 395q0 74 -75 74q-76 0 -428 -210h357q79 0 112.5 30.5t33.5 105.5z" />
    <glyph glyph-name="uniFEBA" unicode="&#x635;" horiz-adv-x="2448" arabic-form="final" 
d="M2490 0h-41q-154 0 -238 84q-88 -84 -268 -84h-415q-103 0 -174 34l77 -339q-144 -54 -436 -159q-274 -93 -439 -93q-196 0 -322.5 119.5t-126.5 318.5q0 128 52 305q39 140 93 296l244 -80q-48 -143 -76 -238q-41 -134 -41 -248q0 -95 63 -150t158 -56h8q105 0 266 52
q63 22 268 98l-145 581l264 69l39 -154q110 108 352 240q272 149 386 149q173 0 232 -110q32 -58 43 -214q10 -127 54 -149q39 -13 123 -13v-259zM2066 389q0 80 -75 82h-3q-72 0 -220 -84q-71 -43 -216 -128h350q82 0 119 22q45 28 45 108z" />
    <glyph glyph-name="uniFEBB" unicode="&#x635;" horiz-adv-x="1474" arabic-form="initial" 
d="M1425 454v-15q0 -243 -126 -350q-114 -95 -378 -95q-67 0 -162 4q-82 2 -164 2q-73 6 -160 43q-118 50 -121 93q-58 -93 -151 -121q-48 -15 -203 -15v259h45q121 0 121 85q0 36 -45 202l263 61q11 -78 52 -263q139 131 344 252q242 143 393 143q130 0 209.5 -77
t82.5 -208zM1163 402q0 67 -73 67q-65 0 -430 -210h344q159 0 159 143z" />
    <glyph glyph-name="uniFEBC" unicode="&#x635;" horiz-adv-x="1568" arabic-form="medial" 
d="M1610 0h-75q-125 0 -205 97q-100 -97 -314 -97h-365q-186 0 -320 138q-47 -80 -123 -114q-56 -24 -166 -24h-82v259l54 -2h17q110 0 110 74q0 47 -47 218l257 58q41 -229 71 -233q24 0 154 95q155 110 270 173q173 95 287 95q181 0 248 -115q48 -84 50 -279q0 -64 65 -80
q24 -4 114 -4v-259zM1170 372q0 99 -65 99q-67 0 -441 -212h340q166 0 166 113z" />
    <glyph glyph-name="uniFEBD" unicode="&#x636;" horiz-adv-x="2377" arabic-form="isolated" 
d="M2075 927h-227v231h227v-231zM2306 447q0 -447 -417 -447h-359q-101 0 -196 39l79 -339q-144 -52 -432 -154q-274 -93 -438 -93q-199 0 -326.5 122.5t-129.5 320.5q0 132 50 290l90 283l257 -58q-28 -80 -80 -242q-38 -117 -41 -251v-10q0 -86 68 -139q66 -52 161 -52
q154 0 532 149l-141 588l253 58l35 -169q157 134 354 249q251 147 395 147q132 0 206 -80q80 -86 80 -212zM2047 402v3q0 64 -74 64t-218 -82q-71 -43 -212 -128h352q80 0 115.5 30.5t36.5 112.5z" />
    <glyph glyph-name="uniFEBE" unicode="&#x636;" horiz-adv-x="2448" arabic-form="final" 
d="M2000 871h-229v231h229v-231zM2490 0h-22q-108 0 -138 11q-60 19 -119 73q-91 -84 -268 -84h-415q-97 0 -174 34l77 -339q-144 -54 -436 -159q-274 -93 -439 -93q-196 0 -322.5 120t-126.5 318q0 128 52 305q39 140 93 296l244 -80q-48 -143 -76 -238q-41 -134 -41 -248
q0 -95 63 -150t158 -56h8q105 0 266 52q63 22 268 98l-145 581l264 69l39 -154q101 108 350 242q269 145 388 147h9q153 0 222 -106q37 -58 48 -196t19 -145q32 -39 134 -39h20v-259zM2066 389q0 80 -75 82h-3q-66 0 -220 -84q-41 -22 -216 -128h344q82 0 123 18
q47 30 47 112z" />
    <glyph glyph-name="uniFEBF" unicode="&#x636;" horiz-adv-x="1474" arabic-form="initial" 
d="M1058 871h-230v231h230v-231zM1425 454v-12q0 -333 -225 -418q-67 -24 -508 -24h-97q-60 0 -160 43q-118 50 -121 93q-60 -93 -151 -121q-47 -15 -203 -15v259h43q123 0 123 85q0 32 -45 202l263 61q11 -78 52 -263q162 146 344 254q238 141 393 141q128 0 209 -78
t83 -207zM1163 402q0 67 -73 67q-65 0 -430 -210h344q159 0 159 143z" />
    <glyph glyph-name="uniFEC0" unicode="&#x636;" horiz-adv-x="1568" arabic-form="medial" 
d="M1114 894h-229v229h229v-229zM1610 0h-15q-101 0 -146 13q-68 21 -119 84q-102 -97 -314 -97h-365q-186 0 -320 138q-66 -99 -161 -131q-37 -7 -210 -7v259l54 -2h17q110 0 110 74q0 47 -47 218l257 58q13 -80 22 -123q23 -89 49 -110q89 36 231 138q95 65 223 156
q130 69 257 69q143 0 220.5 -82t79.5 -225q0 -52 2 -78q5 -58 20 -71q22 -22 155 -22v-259zM1170 372q0 99 -65 99q-63 0 -220 -86q-61 -35 -221 -126h340q166 0 166 113z" />
    <glyph glyph-name="uniFEC1" unicode="&#x637;" horiz-adv-x="1184" arabic-form="isolated" 
d="M1118 397q0 -248 -203 -341q-119 -56 -420 -56h-438v259h63l-61 800l240 25l45 -594q156 96 244 143q147 80 264 80q132 0 203 -95q63 -84 63 -221zM886 402q0 69 -73 69q-62 0 -224 -84q-31 -20 -219 -128h316q200 0 200 143z" />
    <glyph glyph-name="uniFEC2" unicode="&#x637;" horiz-adv-x="1317" arabic-form="final" 
d="M1359 0h-32q-194 0 -285 88q-87 -88 -504 -88h-492l7 259h127l-60 800l235 19l48 -590q356 223 498 223q160 0 227 -104q39 -61 44 -197q6 -121 36 -138q20 -13 151 -13v-259zM940 395q0 72 -73 72q-63 0 -218 -85q-37 -21 -212 -123h322q181 0 181 136z" />
    <glyph glyph-name="uniFEC3" unicode="&#x637;" horiz-adv-x="1154" arabic-form="initial" 
d="M1120 438q0 -272 -173 -365q-131 -73 -419 -73h-568v259h162l-63 806l242 19l43 -594q331 223 504 223q117 0 194.5 -77t77.5 -198zM883 376q0 93 -70 95h-1q-59 0 -441 -212h341q65 0 112 26q59 32 59 91z" />
    <glyph glyph-name="uniFEC4" unicode="&#x637;" horiz-adv-x="1216" arabic-form="medial" 
d="M1258 0h-43q-132 0 -225 93q-127 -93 -479 -93h-551v259h164l-65 804l240 21l46 -594q79 46 241 137q158 84 247 86h6q166 0 231 -108q39 -67 50 -203q7 -117 38 -132q24 -12 73 -12q12 0 27 1v-259zM883 385q0 84 -70 86h-3q-61 0 -217 -86q-82 -44 -220 -126h332
q178 0 178 126z" />
    <glyph glyph-name="uniFEC5" unicode="&#x638;" horiz-adv-x="1184" arabic-form="isolated" 
d="M912 804h-229v233h229v-233zM1118 447q0 -266 -162 -369q-128 -80 -409 -80q-25 0 -246 2h-244v259h63l-61 800l240 25l45 -594q80 48 244 143q145 80 262 82h6q106 0 183 -74q79 -77 79 -194zM886 397v2q0 70 -73 72h-1q-78 0 -442 -212h316q198 0 200 138z" />
    <glyph glyph-name="uniFEC6" unicode="&#x638;" horiz-adv-x="1317" arabic-form="final" 
d="M964 802h-227v229h227v-229zM1359 0h-32q-194 0 -285 88q-91 -88 -488 -90q-15 0 -253 2h-255l7 259h127l-60 800l235 19l48 -590q220 121 244 139q170 82 254 84h11q153 0 219 -111q34 -58 41 -194q8 -117 36 -136q28 -11 151 -11v-259zM940 395q0 72 -73 72
q-76 0 -430 -208h322q181 0 181 136z" />
    <glyph glyph-name="uniFEC7" unicode="&#x638;" horiz-adv-x="1154" arabic-form="initial" 
d="M887 832h-227v224h227v-224zM1120 438q0 -270 -173 -365q-129 -73 -419 -73h-568v259h162l-63 806l242 19l43 -594q327 223 504 223q119 0 195.5 -76.5t76.5 -198.5zM883 376q0 93 -70 95h-1q-67 0 -441 -212h341q65 0 112 26q59 32 59 91z" />
    <glyph glyph-name="uniFEC8" unicode="&#x638;" horiz-adv-x="1216" arabic-form="medial" 
d="M908 804h-229v233h229v-233zM1258 0q-175 0 -268 93q-123 -93 -421 -93h-609v259h164l-65 804l240 21l46 -594q120 69 237 139q167 82 251 84h6q166 0 231 -106q39 -67 50 -203q7 -117 39 -134q22 -11 99 -11v-259zM883 385q0 84 -70 86h-1q-69 0 -439 -212h332
q178 0 178 126z" />
    <glyph glyph-name="uniFEC9" unicode="&#x639;" horiz-adv-x="1072" arabic-form="isolated" 
d="M1007 367l-95 -239l-188 73l-249 -175q-142 -121 -142 -253q0 -166 179 -197l354 -62l-51 -249q-115 14 -348 54q-184 35 -285 130q-117 110 -117 326q0 186 117 327q80 97 276 228q-108 87 -108 223q0 162 177 259q31 17 316 115l90 -233q-302 -96 -302 -147
q0 -46 376 -180z" />
    <glyph glyph-name="uniFECA" unicode="&#x639;" horiz-adv-x="1069" arabic-form="final" 
d="M1111 0h-127q-149 0 -266 117q-130 -63 -244 -171q-134 -128 -134 -249q0 -144 198 -209q61 -20 322 -56l-43 -247q-186 27 -341 57q-188 37 -287 131q-111 109 -113 320v5q0 209 164 388q134 147 359 242q-106 106 -240 121l17 190q96 0 174.5 1.5t171.5 1.5
q194 0 315 -22q0 -190 -162 -313q44 -37 111 -46q15 -2 125 -2v-259z" />
    <glyph glyph-name="uniFECB" unicode="&#x639;" horiz-adv-x="834" arabic-form="initial" 
d="M796 333l-54 -260q-78 7 -145 7q-108 0 -319.5 -40t-317.5 -40v259q169 0 303 31q-67 32 -109.5 95.5t-42.5 133.5q0 270 478 313l54 -234q-123 -12 -156 -21q-104 -26 -104 -89q0 -73 147 -117q126 -40 234 -40q21 0 32 2z" />
    <glyph glyph-name="uniFECC" unicode="&#x639;" horiz-adv-x="752" arabic-form="medial" 
d="M794 259l-2 -259h-91q-223 0 -313 123q-123 -123 -335 -123h-93v259q235 0 322 69q-100 98 -240 121l19 190l249 1h36q213 0 372 -22q0 -197 -164 -315q73 -44 240 -44z" />
    <glyph glyph-name="uniFECD" unicode="&#x63a;" horiz-adv-x="1072" arabic-form="isolated" 
d="M830 1048h-229v233h229v-233zM1007 367l-95 -239l-188 73l-249 -175q-142 -121 -142 -253q0 -78 53 -131t126 -66l354 -62l-51 -249q-115 14 -346 54q-186 35 -287 130q-117 110 -117 326q0 184 117 327q82 101 276 228q-108 87 -108 223q0 162 177 259q31 17 316 115
l90 -233q-302 -100 -302 -147q0 -46 376 -180z" />
    <glyph glyph-name="uniFECE" unicode="&#x63a;" horiz-adv-x="1069" arabic-form="final" 
d="M906 864h-227v229h227v-229zM1111 0h-127q-154 0 -266 117q-130 -63 -244 -171q-134 -128 -134 -249q0 -146 198 -209q70 -22 322 -56l-43 -247q-181 26 -341 57q-171 34 -287 131q-111 117 -113 320v5q0 205 164 386q139 156 359 244q-108 108 -240 121l17 190l331 1
q197 0 330 -20q0 -194 -162 -313q41 -37 111 -46q15 -2 125 -2v-259z" />
    <glyph glyph-name="uniFECF" unicode="&#x63a;" horiz-adv-x="834" arabic-form="initial" 
d="M560 981h-228v231h228v-231zM796 333l-54 -260q-58 5 -108 7h-9q-103 0 -332 -41q-218 -39 -333 -39v259q171 0 303 31q-152 79 -152 229q0 272 478 313l54 -234q-124 -12 -154 -21q-106 -30 -106 -89q0 -67 143 -117q117 -41 201 -41q35 0 69 3z" />
    <glyph glyph-name="uniFED0" unicode="&#x63a;" horiz-adv-x="752" arabic-form="medial" 
d="M500 804h-229v233h229v-233zM794 259l-2 -259h-91q-227 0 -313 123q-126 -123 -335 -123h-93v259q235 0 322 69q-125 110 -240 121l19 190h135q112 0 135 1q249 0 387 -22q0 -197 -164 -315q74 -44 240 -44z" />
    </font>
</defs>
</svg>
