<?xml version="1.0" standalone="no"?>
<!DOCTYPE svg PUBLIC "-//W3C//DTD SVG 1.1//EN" "http://www.w3.org/Graphics/SVG/1.1/DTD/svg11.dtd" >
<svg xmlns="http://www.w3.org/2000/svg" xmlns:xlink="http://www.w3.org/1999/xlink" version="1.1">
<metadata>
Created by FontForge 20170731 at Wed Jul 13 18:09:37 2016
 By Aleksey,,,
(c)  2012 Bahij Virtual Academy. All rights reserved.
</metadata>
<defs>
<font id="BahijASVCodar-Regular" horiz-adv-x="0" >
  <font-face 
    font-family="Bahij ASVCodar"
    font-weight="400"
    font-stretch="normal"
    units-per-em="2048"
    panose-1="2 4 5 3 5 2 1 2 2 3"
    ascent="1638"
    descent="-410"
    x-height="761"
    cap-height="1147"
    bbox="-284 -1607 4568 2199"
    underline-thickness="45"
    underline-position="-141"
    unicode-range="U+0020-FEFC"
  />
<missing-glyph horiz-adv-x="728" 
d="M0 0v1020h728v-1020h-728zM117 947l247 -372l248 372h-495zM655 881l-247 -371l247 -372v743zM612 73l-248 371l-247 -371h495zM73 138l247 372l-247 371v-743z" />
    <glyph glyph-name="uniFB01" unicode="fi" horiz-adv-x="1002" 
d="M772 1139q37 0 64.5 -28t27.5 -65t-27.5 -64t-64.5 -27t-64.5 27t-27.5 64t27.5 65t64.5 28zM835 169q0 -33 1.5 -58t6.5 -38q10 -20 53 -24l77 -4v-50q-46 2 -96 3.5t-111 1.5q-62 0 -112.5 -1.5t-96.5 -3.5v50l77 4q43 4 53 24q5 13 6.5 38t1.5 58v370q0 39 -2 66
t-9 36q-13 19 -61 19h-61v46q74 9 142.5 29t115.5 43l15 -12v-597zM565 1061l-20 -10q-23 21 -50.5 34t-59.5 13q-38 0 -62 -11t-37 -37.5t-17 -72.5t-4 -117v-141l199 7l-11 -88h-188v-469q0 -33 1.5 -58t6.5 -38q9 -20 53 -24l86 -4v-50q-53 2 -104.5 3.5t-113.5 1.5
q-61 0 -111.5 -1.5t-95.5 -3.5v50l77 4q43 4 52 24q6 13 7.5 38t1.5 58v469l-115 -6v37l115 50v71q0 83 16.5 139.5t52.5 98.5l97 110q32 37 73 53t76 16q18 0 37 -5t38 -13v-128z" />
    <glyph glyph-name="uniFB02" unicode="fl" horiz-adv-x="1008" 
d="M700 1005q0 13 -1.5 28.5t-5.5 30t-12.5 23t-21.5 8.5h-70v-34l-36 -10q-28 21 -57 34t-61 13q-38 0 -62 -11t-37 -37.5t-17 -72.5t-4 -117v-141l216 7l-11 -88h-205v-469q0 -33 1.5 -58t6.5 -38q9 -20 53 -24l86 -4v-50q-53 2 -104.5 3.5t-113.5 1.5q-61 0 -111.5 -1.5
t-95.5 -3.5v50l77 4q43 4 52 24q6 13 7.5 38t1.5 58v469l-115 -6v37l115 50v71q0 83 16.5 139.5t52.5 98.5l97 110q32 37 73 53t76 16q18 0 40.5 -5l58.5 -13v-46q48 9 110 23.5t125 37.5l16 -17v-1018q0 -33 1.5 -58t6.5 -38q10 -20 53 -24l76 -4v-50q-44 2 -94.5 3.5
t-112.5 1.5q-61 0 -111.5 -1.5t-95.5 -3.5v50l76 4q44 4 53 24q5 13 6.5 38t1.5 58v836z" />
    <glyph glyph-name="uniFC31" unicode="&#xfed3;&#xfef0;" horiz-adv-x="2061" arabic-form="isolated" 
d="M1697 632q-29 0 -53 -11.5t-42 -30t-28 -40.5t-10 -42q0 -31 19.5 -52.5t50.5 -38t69.5 -31t75.5 -29.5t68 -33.5t47 -43.5l5 1q-12 85 -33.5 150t-48.5 110t-58 68t-62 23zM1767 1065l-121 -121l-121 121l121 120zM1245 46q-13 75 -61 188q-78 181 -163 181
q-86 0 -194 -79q-101 -74 -101 -120q0 -32 48 -54l129 -61q144 -67 144 -129q0 -67 -153 -157q-300 -179 -523 -179q-119 0 -196 63q-91 75 -91 217q0 131 77 295q65 140 83 140q5 0 6 -7q-3 6 -40 -101q-40 -117 -40 -219q0 -125 57 -181q63 -63 217 -63q149 0 318 65
q154 58 154 91q0 21 -43 40l-167 73q-66 30 -66 109q0 104 155 248.5t267 144.5q100 0 161 -195q31 -103 42 -212h588v5q-6 18 -29 33.5t-53 28t-61.5 23t-54.5 18.5q-42 16 -75 34t-55 41t-33.5 53.5t-11.5 71.5q0 57 26 114.5t71 111.5q39 45 82.5 72t79.5 27q46 0 83 -30
t65 -86q55 -106 78.5 -234.5t23.5 -282.5v-43q0 -54 -21.5 -77.5t-72.5 -23.5h-650v46z" />
    <glyph glyph-name="uniFC32" unicode="&#xfed3;&#xfef2;" horiz-adv-x="2061" arabic-form="isolated" 
d="M820 -591l-121 -121l-120 121l120 121zM553 -591l-121 -121l-120 121l120 121zM1697 632q-29 0 -53 -11.5t-42 -30t-28 -40.5t-10 -42q0 -31 19.5 -52.5t50.5 -38t69.5 -31t75.5 -29.5t68 -33.5t47 -43.5l5 1q-12 85 -33.5 150t-48.5 110t-58 68t-62 23zM1767 1065
l-121 -121l-121 121l121 120zM1245 46q-13 75 -61 188q-78 181 -163 181q-86 0 -194 -79q-101 -74 -101 -120q0 -32 48 -54l129 -61q144 -67 144 -129q0 -67 -153 -157q-300 -179 -523 -179q-119 0 -196 63q-91 75 -91 217q0 131 77 295q65 140 83 140q5 0 6 -7
q-3 6 -40 -101q-40 -117 -40 -219q0 -125 57 -181q63 -63 217 -63q149 0 318 65q154 58 154 91q0 21 -43 40l-167 73q-66 30 -66 109q0 104 155 248.5t267 144.5q100 0 161 -195q31 -103 42 -212h588v5q-6 18 -29 33.5t-53 28t-61.5 23t-54.5 18.5q-42 16 -75 34t-55 41
t-33.5 53.5t-11.5 71.5q0 57 26 114.5t71 111.5q39 45 82.5 72t79.5 27q46 0 83 -30t65 -86q55 -106 78.5 -234.5t23.5 -282.5v-43q0 -54 -21.5 -77.5t-72.5 -23.5h-650v46z" />
    <glyph glyph-name="uniFC43" unicode="&#xfedf;&#xfef0;" horiz-adv-x="1832" arabic-form="isolated" 
d="M1238 77q-15 66 -54 157q-78 181 -163 181q-86 0 -194 -79q-101 -74 -101 -120q0 -32 48 -54l129 -61q144 -67 144 -129q0 -67 -153 -157q-300 -179 -523 -179q-119 0 -196 63q-91 75 -91 217q0 131 77 295q65 140 83 140q5 0 6 -7q-3 6 -40 -101q-40 -117 -40 -219
q0 -125 57 -181q63 -63 217 -63q149 0 318 65q154 58 154 91q0 21 -43 40l-167 73q-66 30 -66 109q0 104 155 248.5t267 144.5q100 0 161 -195q31 -103 42 -212h352q19 0 19 24q0 115 -43 410q-51 344 -116 593l118 121q145 -707 145 -1221q0 -71 -61 -71h-441v77z" />
    <glyph glyph-name="uniFC44" unicode="&#xfedf;&#xfef2;" horiz-adv-x="1832" arabic-form="isolated" 
d="M820 -591l-121 -121l-120 121l120 121zM553 -591l-121 -121l-120 121l120 121zM1238 77q-15 66 -54 157q-78 181 -163 181q-86 0 -194 -79q-101 -74 -101 -120q0 -32 48 -54l129 -61q144 -67 144 -129q0 -67 -153 -157q-300 -179 -523 -179q-119 0 -196 63
q-91 75 -91 217q0 131 77 295q65 140 83 140q5 0 6 -7q-3 6 -40 -101q-40 -117 -40 -219q0 -125 57 -181q63 -63 217 -63q149 0 318 65q154 58 154 91q0 21 -43 40l-167 73q-66 30 -66 109q0 104 155 248.5t267 144.5q100 0 161 -195q31 -103 42 -212h352q19 0 19 24
q0 115 -43 410q-51 344 -116 593l118 121q145 -707 145 -1221q0 -71 -61 -71h-441v77z" />
    <glyph glyph-name="uniFC64" unicode="&#xfe8c;&#xfeae;" horiz-adv-x="1092" arabic-form="final" 
d="M922 884q-164 -20 -270 -126q4 33 16 61.5t30 45.5q-42 25 -58.5 52.5t-16.5 59.5q0 62 47 122q54 70 129 70q74 0 74 -52q0 -36 -19 -59q-47 27 -88 27q-38 0 -66 -25q-9 -10 -18 -21.5t-9 -26.5q0 -40 106 -82q44 25 87 38t91 17zM475 0q-15 -264 -182 -514
q-60 -88 -139 -88q-118 0 -118 16q0 7 68 65q91 75 195 248q113 189 113 267q0 41 -72 159q-70 114 -113 155l91 138q118 -173 148 -302h518q13 0 13 14q0 18 -54 132q-61 132 -129 246l115 117q31 -38 95 -226q68 -198 68 -272v-97q0 -58 -75 -58h-542z" />
    <glyph glyph-name="uniFC67" unicode="&#xfe8c;&#xfee6;" horiz-adv-x="1565" arabic-form="final" 
d="M686 709l-121 -120l-121 120l121 121zM1396 884q-164 -20 -271 -126q5 33 17 61.5t30 45.5q-42 25 -59 52.5t-17 59.5q0 62 47 122q54 70 130 70q73 0 73 -52q0 -36 -19 -59q-47 27 -88 27q-38 0 -65 -25q-10 -10 -19 -21.5t-9 -26.5q0 -40 107 -82q44 25 86.5 38
t90.5 17zM955 0q-7 -36 -21 -64q-34 -66 -117 -121q-182 -121 -372 -121q-138 0 -229 59q-122 77 -122 239q0 96 55 213q48 101 66 101q5 0 5 -5q0 3 -22 -59t-22 -125q0 -267 302 -267q112 0 237 54q99 42 163 96q0 97 -90 353l97 121q69 -169 78 -330h495q12 0 12 14
q0 18 -53 132q-61 132 -130 246l115 117q31 -38 96 -226q67 -198 67 -272v-97q0 -58 -75 -58h-535z" />
    <glyph glyph-name="uniFC6A" unicode="&#xfe92;&#xfeae;" horiz-adv-x="1081" arabic-form="final" 
d="M889 -310l-121 -121l-121 121l121 121zM475 0q-15 -264 -182 -514q-60 -88 -139 -88q-118 0 -118 16q0 7 68 65q91 75 195 248q113 189 113 267q0 41 -72 159q-70 114 -113 155l91 138q118 -173 148 -302h508q12 0 12 14q0 18 -53 132q-61 132 -130 246l115 117
q32 -38 96 -226q67 -198 67 -272v-97q0 -58 -75 -58h-531z" />
    <glyph glyph-name="uniFC70" unicode="&#xfe98;&#xfeae;" horiz-adv-x="1211" arabic-form="final" 
d="M475 0q-15 -264 -182 -514q-60 -88 -139 -88q-118 0 -118 16q0 7 68 65q91 75 195 248q113 189 113 267q0 41 -72 159q-70 114 -113 155l91 138q118 -173 148 -302h637q13 0 13 14q0 18 -54 132q-61 132 -129 246l113 117q33 -38 97 -226q67 -198 67 -272v-97
q0 -58 -75 -58h-660zM860 933l-120 -121l-121 121l121 119zM1127 933l-120 -121l-120 121l120 119z" />
    <glyph glyph-name="uniFC86" unicode="&#xfee0;&#xfef0;" horiz-adv-x="1739" arabic-form="final" 
d="M1238 77q-15 66 -54 157q-78 181 -163 181q-86 0 -194 -79q-101 -74 -101 -120q0 -32 48 -54l129 -61q144 -67 144 -129q0 -67 -153 -157q-300 -179 -523 -179q-119 0 -196 63q-91 75 -91 217q0 131 77 295q65 140 83 140q5 0 6 -7q-3 6 -40 -101q-40 -117 -40 -219
q0 -125 57 -181q63 -63 217 -63q149 0 318 65q154 58 154 91q0 21 -43 40l-167 73q-66 30 -66 109q0 104 155 248.5t267 144.5q100 0 161 -195q31 -103 42 -212h352q19 0 19 24q0 115 -43 410q-51 344 -116 593l118 121q145 -707 145 -1221q0 -71 -61 -71h-441v77z" />
    <glyph glyph-name="uniFC87" unicode="&#xfee0;&#xfef2;" horiz-adv-x="1739" arabic-form="final" 
d="M820 -591l-121 -121l-120 121l120 121zM553 -591l-121 -121l-120 121l120 121zM1238 77q-15 66 -54 157q-78 181 -163 181q-86 0 -194 -79q-101 -74 -101 -120q0 -32 48 -54l129 -61q144 -67 144 -129q0 -67 -153 -157q-300 -179 -523 -179q-119 0 -196 63
q-91 75 -91 217q0 131 77 295q65 140 83 140q5 0 6 -7q-3 6 -40 -101q-40 -117 -40 -219q0 -125 57 -181q63 -63 217 -63q149 0 318 65q154 58 154 91q0 21 -43 40l-167 73q-66 30 -66 109q0 104 155 248.5t267 144.5q100 0 161 -195q31 -103 42 -212h352q19 0 19 24
q0 115 -43 410q-51 344 -116 593l118 121q145 -707 145 -1221q0 -71 -61 -71h-441v77z" />
    <glyph glyph-name="uniFCCC" unicode="&#xfedf;&#xfee4;" horiz-adv-x="1366" arabic-form="initial" 
d="M716 125q0 80 -58 191q-60 117 -108 117q-51 0 -129 -172q48 -76 154 -120q75 -32 122 -32q19 0 19 16zM776 0q-19 -35 -79 -35q-98 0 -195 52q-95 50 -151 127q-51 -44 -106 -72.5t-106 -44t-92.5 -21.5t-64.5 -6q-55 0 -55 45v52q0 47 55 47q34 0 89 10.5t112.5 35
t111.5 65t86 100.5q40 74 66 115.5t42 62.5q43 55 87 55q76 0 148 -170q57 -136 66 -274h354q19 0 19 24q0 115 -43 410q-50 344 -115 593l117 121q145 -707 145 -1221q0 -71 -61 -71h-430z" />
    <glyph glyph-name="uniFCFB" unicode="&#xfeb3;&#xfef0;" horiz-adv-x="2638" arabic-form="isolated" 
d="M1248 22q-8 79 -64 212q-78 181 -163 181q-86 0 -194 -79q-101 -74 -101 -120q0 -32 48 -54l129 -61q144 -67 144 -129q0 -67 -153 -157q-300 -179 -523 -179q-119 0 -196 63q-91 75 -91 217q0 131 77 295q65 140 83 140q5 0 6 -7q-3 6 -40 -101q-40 -117 -40 -219
q0 -125 57 -181q63 -63 217 -63q149 0 318 65q154 58 154 91q0 21 -43 40l-167 73q-66 30 -66 109q0 104 155 248.5t267 144.5q100 0 161 -195q31 -103 42 -212h9q48 0 112.5 20.5t132.5 60t134 96t118 130.5q12 18 17 18q2 0 2 -5t-1.5 -14t-4.5 -34q-6 -47 -6 -116
q0 -76 31.5 -114t73.5 -38q32 0 66.5 22.5t60.5 68.5q45 76 64 178q11 61 21 61q9 0 12 -43q5 -100 81 -190q86 -105 207 -105q56 0 76 20q-24 143 -160 361l110 122q144 -297 144 -565q0 -34 -48 -63q-49 -30 -112 -30q-188 0 -298 175q-58 -89 -129.5 -132t-135.5 -43
q-73 0 -113.5 57t-45.5 151q-56 -53 -115 -90.5t-114.5 -60t-102.5 -32.5t-77 -10h-25v3h-1v19z" />
    <glyph glyph-name="uniFCFC" unicode="&#xfeb3;&#xfef2;" horiz-adv-x="2638" arabic-form="isolated" 
d="M820 -591l-121 -121l-120 121l120 121zM553 -591l-121 -121l-120 121l120 121zM1248 22q-8 79 -64 212q-78 181 -163 181q-86 0 -194 -79q-101 -74 -101 -120q0 -32 48 -54l129 -61q144 -67 144 -129q0 -67 -153 -157q-300 -179 -523 -179q-119 0 -196 63q-91 75 -91 217
q0 131 77 295q65 140 83 140q5 0 6 -7q-3 6 -40 -101q-40 -117 -40 -219q0 -125 57 -181q63 -63 217 -63q149 0 318 65q154 58 154 91q0 21 -43 40l-167 73q-66 30 -66 109q0 104 155 248.5t267 144.5q100 0 161 -195q31 -103 42 -212h9q48 0 112.5 20.5t132.5 60t134 96
t118 130.5q12 18 17 18q2 0 2 -5t-1.5 -14t-4.5 -34q-6 -47 -6 -116q0 -76 31.5 -114t73.5 -38q32 0 66.5 22.5t60.5 68.5q45 76 64 178q11 61 21 61q9 0 12 -43q5 -100 81 -190q86 -105 207 -105q56 0 76 20q-24 143 -160 361l110 122q144 -297 144 -565q0 -34 -48 -63
q-49 -30 -112 -30q-188 0 -298 175q-58 -89 -129.5 -132t-135.5 -43q-73 0 -113.5 57t-45.5 151q-56 -53 -115 -90.5t-114.5 -60t-102.5 -32.5t-77 -10h-25v3h-1v19z" />
    <glyph glyph-name="uniFCFD" unicode="&#xfeb7;&#xfef0;" horiz-adv-x="2638" arabic-form="isolated" 
d="M1248 22q-8 79 -64 212q-78 181 -163 181q-86 0 -194 -79q-101 -74 -101 -120q0 -32 48 -54l129 -61q144 -67 144 -129q0 -67 -153 -157q-300 -179 -523 -179q-119 0 -196 63q-91 75 -91 217q0 131 77 295q65 140 83 140q5 0 6 -7q-3 6 -40 -101q-40 -117 -40 -219
q0 -125 57 -181q63 -63 217 -63q149 0 318 65q154 58 154 91q0 21 -43 40l-167 73q-66 30 -66 109q0 104 155 248.5t267 144.5q100 0 161 -195q31 -103 42 -212h9q48 0 112.5 20.5t132.5 60t134 96t118 130.5q12 18 17 18q2 0 2 -5t-1.5 -14t-4.5 -34q-6 -47 -6 -116
q0 -76 31.5 -114t73.5 -38q32 0 66.5 22.5t60.5 68.5q45 76 64 178q11 61 21 61q9 0 12 -43q5 -100 81 -190q86 -105 207 -105q56 0 76 20q-24 143 -160 361l110 122q144 -297 144 -565q0 -34 -48 -63q-49 -30 -112 -30q-188 0 -298 175q-58 -89 -129.5 -132t-135.5 -43
q-73 0 -113.5 57t-45.5 151q-56 -53 -115 -90.5t-114.5 -60t-102.5 -32.5t-77 -10h-25v3h-1v19zM2128 1062l-120 -121l-121 121l121 120zM1973 853l-121 -121l-120 121l120 121zM2283 853l-121 -121l-120 121l120 121z" />
    <glyph glyph-name="uniFCFE" unicode="&#xfeb7;&#xfef2;" horiz-adv-x="2638" arabic-form="isolated" 
d="M820 -591l-121 -121l-120 121l120 121zM553 -591l-121 -121l-120 121l120 121zM1248 22q-8 79 -64 212q-78 181 -163 181q-86 0 -194 -79q-101 -74 -101 -120q0 -32 48 -54l129 -61q144 -67 144 -129q0 -67 -153 -157q-300 -179 -523 -179q-119 0 -196 63q-91 75 -91 217
q0 131 77 295q65 140 83 140q5 0 6 -7q-3 6 -40 -101q-40 -117 -40 -219q0 -125 57 -181q63 -63 217 -63q149 0 318 65q154 58 154 91q0 21 -43 40l-167 73q-66 30 -66 109q0 104 155 248.5t267 144.5q100 0 161 -195q31 -103 42 -212h9q48 0 112.5 20.5t132.5 60t134 96
t118 130.5q12 18 17 18q2 0 2 -5t-1.5 -14t-4.5 -34q-6 -47 -6 -116q0 -76 31.5 -114t73.5 -38q32 0 66.5 22.5t60.5 68.5q45 76 64 178q11 61 21 61q9 0 12 -43q5 -100 81 -190q86 -105 207 -105q56 0 76 20q-24 143 -160 361l110 122q144 -297 144 -565q0 -34 -48 -63
q-49 -30 -112 -30q-188 0 -298 175q-58 -89 -129.5 -132t-135.5 -43q-73 0 -113.5 57t-45.5 151q-56 -53 -115 -90.5t-114.5 -60t-102.5 -32.5t-77 -10h-25v3h-1v19zM2128 1062l-120 -121l-121 121l121 120zM1973 853l-121 -121l-120 121l120 121zM2283 853l-121 -121
l-120 121l120 121z" />
    <glyph glyph-name="uniFD05" unicode="&#xfebb;&#xfef0;" horiz-adv-x="2699" arabic-form="isolated" 
d="M2543 175q0 72 -18 140t-53 127q-65 105 -138 105q-77 0 -198 -88.5t-287 -277.5q74 -60 347 -60q231 0 299 11q48 10 48 43zM1247 32q-10 77 -63 202q-78 181 -163 181q-86 0 -194 -79q-101 -74 -101 -120q0 -32 48 -54l129 -61q144 -67 144 -129q0 -67 -153 -157
q-300 -179 -523 -179q-119 0 -196 63q-91 75 -91 217q0 131 77 295q65 140 83 140q5 0 6 -7q-3 6 -40 -101q-40 -117 -40 -219q0 -125 57 -181q63 -63 217 -63q149 0 318 65q154 58 154 91q0 21 -43 40l-167 73q-66 30 -66 109q0 104 155 248.5t267 144.5q100 0 161 -195
q31 -103 42 -212h9q57 0 118.5 19t121.5 52t114.5 78.5t97.5 97.5q12 14 17 21t9 7q5 0 7 -6q0 -2 -3.5 -20.5t-3.5 -41.5q0 -88 50 -125q84 122 226 273q190 203 306 203q110 0 201 -160q93 -168 93 -402v-78q0 -44 -37 -60q-12 -5 -78 -17q-116 -20 -313 -20
q-307 0 -443 97q-38 -41 -108 -138q-7 -10 -13 -10q-7 0 -7 10q0 50 87 175q-18 17 -30.5 40t-18.5 40q-46 -45 -98 -79t-104 -56t-101.5 -33t-89.5 -11h-25v3q-1 1 -2 1v28z" />
    <glyph glyph-name="uniFD06" unicode="&#xfebb;&#xfef2;" horiz-adv-x="2699" arabic-form="isolated" 
d="M820 -591l-121 -121l-120 121l120 121zM553 -591l-121 -121l-120 121l120 121zM2543 175q0 72 -18 140t-53 127q-65 105 -138 105q-77 0 -198 -88.5t-287 -277.5q74 -60 347 -60q231 0 299 11q48 10 48 43zM1247 32q-10 77 -63 202q-78 181 -163 181q-86 0 -194 -79
q-101 -74 -101 -120q0 -32 48 -54l129 -61q144 -67 144 -129q0 -67 -153 -157q-300 -179 -523 -179q-119 0 -196 63q-91 75 -91 217q0 131 77 295q65 140 83 140q5 0 6 -7q-3 6 -40 -101q-40 -117 -40 -219q0 -125 57 -181q63 -63 217 -63q149 0 318 65q154 58 154 91
q0 21 -43 40l-167 73q-66 30 -66 109q0 104 155 248.5t267 144.5q100 0 161 -195q31 -103 42 -212h9q57 0 118.5 19t121.5 52t114.5 78.5t97.5 97.5q12 14 17 21t9 7q5 0 7 -6q0 -2 -3.5 -20.5t-3.5 -41.5q0 -88 50 -125q84 122 226 273q190 203 306 203q110 0 201 -160
q93 -168 93 -402v-78q0 -44 -37 -60q-12 -5 -78 -17q-116 -20 -313 -20q-307 0 -443 97q-38 -41 -108 -138q-7 -10 -13 -10q-7 0 -7 10q0 50 87 175q-18 17 -30.5 40t-18.5 40q-46 -45 -98 -79t-104 -56t-101.5 -33t-89.5 -11h-25v3q-1 1 -2 1v28z" />
    <glyph glyph-name="uniFD07" unicode="&#xfebf;&#xfef0;" horiz-adv-x="2699" arabic-form="isolated" 
d="M2543 175q0 72 -18 140t-53 127q-65 105 -138 105q-77 0 -198 -88.5t-287 -277.5q74 -60 347 -60q231 0 299 11q48 10 48 43zM1247 32q-10 77 -63 202q-78 181 -163 181q-86 0 -194 -79q-101 -74 -101 -120q0 -32 48 -54l129 -61q144 -67 144 -129q0 -67 -153 -157
q-300 -179 -523 -179q-119 0 -196 63q-91 75 -91 217q0 131 77 295q65 140 83 140q5 0 6 -7q-3 6 -40 -101q-40 -117 -40 -219q0 -125 57 -181q63 -63 217 -63q149 0 318 65q154 58 154 91q0 21 -43 40l-167 73q-66 30 -66 109q0 104 155 248.5t267 144.5q100 0 161 -195
q31 -103 42 -212h9q57 0 118.5 19t121.5 52t114.5 78.5t97.5 97.5q12 14 17 21t9 7q5 0 7 -6q0 -2 -3.5 -20.5t-3.5 -41.5q0 -88 50 -125q84 122 226 273q190 203 306 203q110 0 201 -160q93 -168 93 -402v-78q0 -44 -37 -60q-12 -5 -78 -17q-116 -20 -313 -20
q-307 0 -443 97q-38 -41 -108 -138q-7 -10 -13 -10q-7 0 -7 10q0 50 87 175q-18 17 -30.5 40t-18.5 40q-46 -45 -98 -79t-104 -56t-101.5 -33t-89.5 -11h-25v3q-1 1 -2 1v28zM2322 1003l-121 -120l-121 120l121 121z" />
    <glyph glyph-name="uniFD08" unicode="&#xfebf;&#xfef2;" horiz-adv-x="2699" arabic-form="isolated" 
d="M820 -591l-121 -121l-120 121l120 121zM553 -591l-121 -121l-120 121l120 121zM2543 175q0 72 -18 140t-53 127q-65 105 -138 105q-77 0 -198 -88.5t-287 -277.5q74 -60 347 -60q231 0 299 11q48 10 48 43zM1247 32q-10 77 -63 202q-78 181 -163 181q-86 0 -194 -79
q-101 -74 -101 -120q0 -32 48 -54l129 -61q144 -67 144 -129q0 -67 -153 -157q-300 -179 -523 -179q-119 0 -196 63q-91 75 -91 217q0 131 77 295q65 140 83 140q5 0 6 -7q-3 6 -40 -101q-40 -117 -40 -219q0 -125 57 -181q63 -63 217 -63q149 0 318 65q154 58 154 91
q0 21 -43 40l-167 73q-66 30 -66 109q0 104 155 248.5t267 144.5q100 0 161 -195q31 -103 42 -212h9q57 0 118.5 19t121.5 52t114.5 78.5t97.5 97.5q12 14 17 21t9 7q5 0 7 -6q0 -2 -3.5 -20.5t-3.5 -41.5q0 -88 50 -125q84 122 226 273q190 203 306 203q110 0 201 -160
q93 -168 93 -402v-78q0 -44 -37 -60q-12 -5 -78 -17q-116 -20 -313 -20q-307 0 -443 97q-38 -41 -108 -138q-7 -10 -13 -10q-7 0 -7 10q0 50 87 175q-18 17 -30.5 40t-18.5 40q-46 -45 -98 -79t-104 -56t-101.5 -33t-89.5 -11h-25v3q-1 1 -2 1v28zM2322 1003l-121 -120
l-121 120l121 121z" />
    <glyph glyph-name="uniFD0D" unicode="&#xfeb7;&#xfeae;" horiz-adv-x="1824" arabic-form="isolated" 
d="M475 0q-15 -264 -182 -514q-60 -88 -139 -88q-118 0 -118 16q0 7 68 65q91 75 195 248q113 189 113 267q0 41 -72 159q-70 114 -113 155l91 138q118 -173 148 -302q47 0 110 21q65 20 133 59.5t134 96t118 130.5q12 18 17 18q2 0 2 -5t-1.5 -14t-4.5 -34q-7 -47 -7 -116
q0 -76 32 -114t74 -38q32 0 66.5 22.5t60.5 68.5q45 76 64 178q10 61 21 61q8 0 12 -43q5 -100 81 -190q86 -105 207 -105q55 0 75 20q-23 143 -159 361l110 122q144 -297 144 -565q0 -34 -48 -63q-49 -30 -112 -30q-188 0 -298 175q-58 -89 -129.5 -132t-135.5 -43
q-73 0 -113.5 57t-45.5 151q-56 -53 -115.5 -90.5t-114.5 -60t-102 -31.5q-38 -9 -66 -11zM1318 1062l-120 -121l-121 121l121 120zM1163 853l-121 -121l-120 121l120 121zM1473 853l-121 -121l-121 121l121 121z" />
    <glyph glyph-name="uniFD0E" unicode="&#xfeb3;&#xfeae;" horiz-adv-x="1824" arabic-form="isolated" 
d="M475 0q-15 -264 -182 -514q-60 -88 -139 -88q-118 0 -118 16q0 7 68 65q91 75 195 248q113 189 113 267q0 41 -72 159q-70 114 -113 155l91 138q118 -173 148 -302q47 0 110 21q65 20 133 59.5t134 96t118 130.5q12 18 17 18q2 0 2 -5t-1.5 -14t-4.5 -34q-7 -47 -7 -116
q0 -76 32 -114t74 -38q32 0 66.5 22.5t60.5 68.5q45 76 64 178q10 61 21 61q8 0 12 -43q5 -100 81 -190q86 -105 207 -105q55 0 75 20q-23 143 -159 361l110 122q144 -297 144 -565q0 -34 -48 -63q-49 -30 -112 -30q-188 0 -298 175q-58 -89 -129.5 -132t-135.5 -43
q-73 0 -113.5 57t-45.5 151q-56 -53 -115.5 -90.5t-114.5 -60t-102 -31.5q-38 -9 -66 -11z" />
    <glyph glyph-name="uniFD0F" unicode="&#xfebb;&#xfeae;" horiz-adv-x="1889" arabic-form="isolated" 
d="M1733 175q0 72 -18 140t-54 127q-64 105 -137 105q-77 0 -198 -88.5t-287 -277.5q74 -60 347 -60q231 0 298 11q49 10 49 43zM475 0q-15 -264 -182 -514q-60 -88 -139 -88q-118 0 -118 16q0 7 68 65q91 75 195 248q113 189 113 267q0 41 -72 159q-70 114 -113 155l91 138
q118 -173 148 -302q56 0 117 19t121 52t114.5 78.5t97.5 97.5q12 14 17 21t9 7t7 -6q0 -2 -3.5 -20.5t-3.5 -41.5q0 -88 50 -125q84 122 226 273q190 203 306 203q110 0 200 -160q94 -168 94 -402v-78q0 -44 -37 -60q-12 -5 -79 -17q-115 -20 -312 -20q-307 0 -444 97
q-37 -41 -107 -138q-7 -10 -13 -10q-7 0 -7 10q0 50 86 175q-17 17 -30 40t-18 40q-46 -45 -98 -79t-104 -56t-102 -32q-42 -10 -78 -12z" />
    <glyph glyph-name="uniFD10" unicode="&#xfebf;&#xfeae;" horiz-adv-x="1889" arabic-form="isolated" 
d="M1733 175q0 72 -18 140t-54 127q-64 105 -137 105q-77 0 -198 -88.5t-287 -277.5q74 -60 347 -60q231 0 298 11q49 10 49 43zM475 0q-15 -264 -182 -514q-60 -88 -139 -88q-118 0 -118 16q0 7 68 65q91 75 195 248q113 189 113 267q0 41 -72 159q-70 114 -113 155l91 138
q118 -173 148 -302q56 0 117 19t121 52t114.5 78.5t97.5 97.5q12 14 17 21t9 7t7 -6q0 -2 -3.5 -20.5t-3.5 -41.5q0 -88 50 -125q84 122 226 273q190 203 306 203q110 0 200 -160q94 -168 94 -402v-78q0 -44 -37 -60q-12 -5 -79 -17q-115 -20 -312 -20q-307 0 -444 97
q-37 -41 -107 -138q-7 -10 -13 -10q-7 0 -7 10q0 50 86 175q-17 17 -30 40t-18 40q-46 -45 -98 -79t-104 -56t-102 -32q-42 -10 -78 -12zM1512 1003l-121 -120l-121 120l121 121z" />
    <glyph glyph-name="uniFD17" unicode="&#xfeb4;&#xfef0;" horiz-adv-x="2565" arabic-form="final" 
d="M1248 22q-8 79 -64 212q-78 181 -163 181q-86 0 -194 -79q-101 -74 -101 -120q0 -32 48 -54l129 -61q144 -67 144 -129q0 -67 -153 -157q-300 -179 -523 -179q-119 0 -196 63q-91 75 -91 217q0 131 77 295q65 140 83 140q5 0 6 -7q-3 6 -40 -101q-40 -117 -40 -219
q0 -125 57 -181q63 -63 217 -63q149 0 318 65q154 58 154 91q0 21 -43 40l-167 73q-66 30 -66 109q0 104 155 248.5t267 144.5q100 0 161 -195q31 -103 42 -212h9q48 0 112.5 20.5t132.5 60t134 96t118 130.5q12 18 17 18q2 0 2 -5t-1.5 -14t-4.5 -34q-6 -47 -6 -116
q0 -76 31.5 -114t73.5 -38q32 0 66.5 22.5t60.5 68.5q45 76 64 178q11 61 21 61q9 0 12 -43q5 -100 81 -190q86 -105 207 -105q56 0 76 20q-24 143 -160 361l110 122q144 -297 144 -565q0 -34 -48 -63q-49 -30 -112 -30q-188 0 -298 175q-58 -89 -129.5 -132t-135.5 -43
q-73 0 -113.5 57t-45.5 151q-56 -53 -115 -90.5t-114.5 -60t-102.5 -32.5t-77 -10h-25v3h-1v19z" />
    <glyph glyph-name="uniFD18" unicode="&#xfeb4;&#xfef2;" horiz-adv-x="2565" arabic-form="final" 
d="M820 -591l-121 -121l-120 121l120 121zM553 -591l-121 -121l-120 121l120 121zM1248 22q-8 79 -64 212q-78 181 -163 181q-86 0 -194 -79q-101 -74 -101 -120q0 -32 48 -54l129 -61q144 -67 144 -129q0 -67 -153 -157q-300 -179 -523 -179q-119 0 -196 63q-91 75 -91 217
q0 131 77 295q65 140 83 140q5 0 6 -7q-3 6 -40 -101q-40 -117 -40 -219q0 -125 57 -181q63 -63 217 -63q149 0 318 65q154 58 154 91q0 21 -43 40l-167 73q-66 30 -66 109q0 104 155 248.5t267 144.5q100 0 161 -195q31 -103 42 -212h9q48 0 112.5 20.5t132.5 60t134 96
t118 130.5q12 18 17 18q2 0 2 -5t-1.5 -14t-4.5 -34q-6 -47 -6 -116q0 -76 31.5 -114t73.5 -38q32 0 66.5 22.5t60.5 68.5q45 76 64 178q11 61 21 61q9 0 12 -43q5 -100 81 -190q86 -105 207 -105q56 0 76 20q-24 143 -160 361l110 122q144 -297 144 -565q0 -34 -48 -63
q-49 -30 -112 -30q-188 0 -298 175q-58 -89 -129.5 -132t-135.5 -43q-73 0 -113.5 57t-45.5 151q-56 -53 -115 -90.5t-114.5 -60t-102.5 -32.5t-77 -10h-25v3h-1v19z" />
    <glyph glyph-name="uniFD19" unicode="&#xfeb8;&#xfef0;" horiz-adv-x="2565" arabic-form="final" 
d="M1248 22q-8 79 -64 212q-78 181 -163 181q-86 0 -194 -79q-101 -74 -101 -120q0 -32 48 -54l129 -61q144 -67 144 -129q0 -67 -153 -157q-300 -179 -523 -179q-119 0 -196 63q-91 75 -91 217q0 131 77 295q65 140 83 140q5 0 6 -7q-3 6 -40 -101q-40 -117 -40 -219
q0 -125 57 -181q63 -63 217 -63q149 0 318 65q154 58 154 91q0 21 -43 40l-167 73q-66 30 -66 109q0 104 155 248.5t267 144.5q100 0 161 -195q31 -103 42 -212h9q48 0 112.5 20.5t132.5 60t134 96t118 130.5q12 18 17 18q2 0 2 -5t-1.5 -14t-4.5 -34q-6 -47 -6 -116
q0 -76 31.5 -114t73.5 -38q32 0 66.5 22.5t60.5 68.5q45 76 64 178q11 61 21 61q9 0 12 -43q5 -100 81 -190q86 -105 207 -105q56 0 76 20q-24 143 -160 361l110 122q144 -297 144 -565q0 -34 -48 -63q-49 -30 -112 -30q-188 0 -298 175q-58 -89 -129.5 -132t-135.5 -43
q-73 0 -113.5 57t-45.5 151q-56 -53 -115 -90.5t-114.5 -60t-102.5 -32.5t-77 -10h-25v3h-1v19zM2128 1062l-120 -121l-121 121l121 120zM1973 853l-121 -121l-120 121l120 121zM2283 853l-121 -121l-120 121l120 121z" />
    <glyph glyph-name="uniFD1A" unicode="&#xfeb8;&#xfef2;" horiz-adv-x="2565" arabic-form="final" 
d="M820 -591l-121 -121l-120 121l120 121zM553 -591l-121 -121l-120 121l120 121zM1248 22q-8 79 -64 212q-78 181 -163 181q-86 0 -194 -79q-101 -74 -101 -120q0 -32 48 -54l129 -61q144 -67 144 -129q0 -67 -153 -157q-300 -179 -523 -179q-119 0 -196 63q-91 75 -91 217
q0 131 77 295q65 140 83 140q5 0 6 -7q-3 6 -40 -101q-40 -117 -40 -219q0 -125 57 -181q63 -63 217 -63q149 0 318 65q154 58 154 91q0 21 -43 40l-167 73q-66 30 -66 109q0 104 155 248.5t267 144.5q100 0 161 -195q31 -103 42 -212h9q48 0 112.5 20.5t132.5 60t134 96
t118 130.5q12 18 17 18q2 0 2 -5t-1.5 -14t-4.5 -34q-6 -47 -6 -116q0 -76 31.5 -114t73.5 -38q32 0 66.5 22.5t60.5 68.5q45 76 64 178q11 61 21 61q9 0 12 -43q5 -100 81 -190q86 -105 207 -105q56 0 76 20q-24 143 -160 361l110 122q144 -297 144 -565q0 -34 -48 -63
q-49 -30 -112 -30q-188 0 -298 175q-58 -89 -129.5 -132t-135.5 -43q-73 0 -113.5 57t-45.5 151q-56 -53 -115 -90.5t-114.5 -60t-102.5 -32.5t-77 -10h-25v3h-1v19zM2128 1062l-120 -121l-121 121l121 120zM1973 853l-121 -121l-120 121l120 121zM2283 853l-121 -121
l-120 121l120 121z" />
    <glyph glyph-name="uniFD21" unicode="&#xfebc;&#xfef0;" horiz-adv-x="2628" arabic-form="final" 
d="M2543 175q0 72 -18 140t-53 127q-65 105 -138 105q-77 0 -198 -88.5t-287 -277.5q74 -60 347 -60q231 0 299 11q48 10 48 43zM1247 32q-10 77 -63 202q-78 181 -163 181q-86 0 -194 -79q-101 -74 -101 -120q0 -32 48 -54l129 -61q144 -67 144 -129q0 -67 -153 -157
q-300 -179 -523 -179q-119 0 -196 63q-91 75 -91 217q0 131 77 295q65 140 83 140q5 0 6 -7q-3 6 -40 -101q-40 -117 -40 -219q0 -125 57 -181q63 -63 217 -63q149 0 318 65q154 58 154 91q0 21 -43 40l-167 73q-66 30 -66 109q0 104 155 248.5t267 144.5q100 0 161 -195
q31 -103 42 -212h9q57 0 118.5 19t121.5 52t114.5 78.5t97.5 97.5q12 14 17 21t9 7q5 0 7 -6q0 -2 -3.5 -20.5t-3.5 -41.5q0 -88 50 -125q84 122 226 273q190 203 306 203q110 0 201 -160q93 -168 93 -402v-78q0 -44 -37 -60q-12 -5 -78 -17q-116 -20 -313 -20
q-307 0 -443 97q-38 -41 -108 -138q-7 -10 -13 -10q-7 0 -7 10q0 50 87 175q-18 17 -30.5 40t-18.5 40q-46 -45 -98 -79t-104 -56t-101.5 -33t-89.5 -11h-25v3q-1 1 -2 1v28z" />
    <glyph glyph-name="uniFD22" unicode="&#xfebc;&#xfef2;" horiz-adv-x="2628" arabic-form="final" 
d="M820 -591l-121 -121l-120 121l120 121zM553 -591l-121 -121l-120 121l120 121zM2543 175q0 72 -18 140t-53 127q-65 105 -138 105q-77 0 -198 -88.5t-287 -277.5q74 -60 347 -60q231 0 299 11q48 10 48 43zM1247 32q-10 77 -63 202q-78 181 -163 181q-86 0 -194 -79
q-101 -74 -101 -120q0 -32 48 -54l129 -61q144 -67 144 -129q0 -67 -153 -157q-300 -179 -523 -179q-119 0 -196 63q-91 75 -91 217q0 131 77 295q65 140 83 140q5 0 6 -7q-3 6 -40 -101q-40 -117 -40 -219q0 -125 57 -181q63 -63 217 -63q149 0 318 65q154 58 154 91
q0 21 -43 40l-167 73q-66 30 -66 109q0 104 155 248.5t267 144.5q100 0 161 -195q31 -103 42 -212h9q57 0 118.5 19t121.5 52t114.5 78.5t97.5 97.5q12 14 17 21t9 7q5 0 7 -6q0 -2 -3.5 -20.5t-3.5 -41.5q0 -88 50 -125q84 122 226 273q190 203 306 203q110 0 201 -160
q93 -168 93 -402v-78q0 -44 -37 -60q-12 -5 -78 -17q-116 -20 -313 -20q-307 0 -443 97q-38 -41 -108 -138q-7 -10 -13 -10q-7 0 -7 10q0 50 87 175q-18 17 -30.5 40t-18.5 40q-46 -45 -98 -79t-104 -56t-101.5 -33t-89.5 -11h-25v3q-1 1 -2 1v28z" />
    <glyph glyph-name="uniFD23" unicode="&#xfec0;&#xfef0;" horiz-adv-x="2628" arabic-form="final" 
d="M2543 175q0 72 -18 140t-53 127q-65 105 -138 105q-77 0 -198 -88.5t-287 -277.5q74 -60 347 -60q231 0 299 11q48 10 48 43zM1247 32q-10 77 -63 202q-78 181 -163 181q-86 0 -194 -79q-101 -74 -101 -120q0 -32 48 -54l129 -61q144 -67 144 -129q0 -67 -153 -157
q-300 -179 -523 -179q-119 0 -196 63q-91 75 -91 217q0 131 77 295q65 140 83 140q5 0 6 -7q-3 6 -40 -101q-40 -117 -40 -219q0 -125 57 -181q63 -63 217 -63q149 0 318 65q154 58 154 91q0 21 -43 40l-167 73q-66 30 -66 109q0 104 155 248.5t267 144.5q100 0 161 -195
q31 -103 42 -212h9q57 0 118.5 19t121.5 52t114.5 78.5t97.5 97.5q12 14 17 21t9 7q5 0 7 -6q0 -2 -3.5 -20.5t-3.5 -41.5q0 -88 50 -125q84 122 226 273q190 203 306 203q110 0 201 -160q93 -168 93 -402v-78q0 -44 -37 -60q-12 -5 -78 -17q-116 -20 -313 -20
q-307 0 -443 97q-38 -41 -108 -138q-7 -10 -13 -10q-7 0 -7 10q0 50 87 175q-18 17 -30.5 40t-18.5 40q-46 -45 -98 -79t-104 -56t-101.5 -33t-89.5 -11h-25v3q-1 1 -2 1v28zM2322 1003l-121 -120l-121 120l121 121z" />
    <glyph glyph-name="uniFD24" unicode="&#xfec0;&#xfef2;" horiz-adv-x="2628" arabic-form="final" 
d="M820 -591l-121 -121l-120 121l120 121zM553 -591l-121 -121l-120 121l120 121zM2543 175q0 72 -18 140t-53 127q-65 105 -138 105q-77 0 -198 -88.5t-287 -277.5q74 -60 347 -60q231 0 299 11q48 10 48 43zM1247 32q-10 77 -63 202q-78 181 -163 181q-86 0 -194 -79
q-101 -74 -101 -120q0 -32 48 -54l129 -61q144 -67 144 -129q0 -67 -153 -157q-300 -179 -523 -179q-119 0 -196 63q-91 75 -91 217q0 131 77 295q65 140 83 140q5 0 6 -7q-3 6 -40 -101q-40 -117 -40 -219q0 -125 57 -181q63 -63 217 -63q149 0 318 65q154 58 154 91
q0 21 -43 40l-167 73q-66 30 -66 109q0 104 155 248.5t267 144.5q100 0 161 -195q31 -103 42 -212h9q57 0 118.5 19t121.5 52t114.5 78.5t97.5 97.5q12 14 17 21t9 7q5 0 7 -6q0 -2 -3.5 -20.5t-3.5 -41.5q0 -88 50 -125q84 122 226 273q190 203 306 203q110 0 201 -160
q93 -168 93 -402v-78q0 -44 -37 -60q-12 -5 -78 -17q-116 -20 -313 -20q-307 0 -443 97q-38 -41 -108 -138q-7 -10 -13 -10q-7 0 -7 10q0 50 87 175q-18 17 -30.5 40t-18.5 40q-46 -45 -98 -79t-104 -56t-101.5 -33t-89.5 -11h-25v3q-1 1 -2 1v28zM2322 1003l-121 -120
l-121 120l121 121z" />
    <glyph glyph-name="uniFD29" unicode="&#xfeb8;&#xfeae;" horiz-adv-x="1755" arabic-form="final" 
d="M475 0q-15 -264 -182 -514q-60 -88 -139 -88q-118 0 -118 16q0 7 68 65q91 75 195 248q113 189 113 267q0 41 -72 159q-70 114 -113 155l91 138q118 -173 148 -302q47 0 110 21q65 20 133 59.5t134 96t118 130.5q12 18 17 18q2 0 2 -5t-1.5 -14t-4.5 -34q-7 -47 -7 -116
q0 -76 32 -114t74 -38q32 0 66.5 22.5t60.5 68.5q45 76 64 178q10 61 21 61q8 0 12 -43q5 -100 81 -190q86 -105 207 -105q55 0 75 20q-23 143 -159 361l110 122q144 -297 144 -565q0 -34 -48 -63q-49 -30 -112 -30q-188 0 -298 175q-58 -89 -129.5 -132t-135.5 -43
q-73 0 -113.5 57t-45.5 151q-56 -53 -115.5 -90.5t-114.5 -60t-102 -31.5q-38 -9 -66 -11zM1318 1062l-120 -121l-121 121l121 120zM1163 853l-121 -121l-120 121l120 121zM1473 853l-121 -121l-121 121l121 121z" />
    <glyph glyph-name="uniFD2A" unicode="&#xfeb4;&#xfeae;" horiz-adv-x="1755" arabic-form="final" 
d="M475 0q-15 -264 -182 -514q-60 -88 -139 -88q-118 0 -118 16q0 7 68 65q91 75 195 248q113 189 113 267q0 41 -72 159q-70 114 -113 155l91 138q118 -173 148 -302q47 0 110 21q65 20 133 59.5t134 96t118 130.5q12 18 17 18q2 0 2 -5t-1.5 -14t-4.5 -34q-7 -47 -7 -116
q0 -76 32 -114t74 -38q32 0 66.5 22.5t60.5 68.5q45 76 64 178q10 61 21 61q8 0 12 -43q5 -100 81 -190q86 -105 207 -105q55 0 75 20q-23 143 -159 361l110 122q144 -297 144 -565q0 -34 -48 -63q-49 -30 -112 -30q-188 0 -298 175q-58 -89 -129.5 -132t-135.5 -43
q-73 0 -113.5 57t-45.5 151q-56 -53 -115.5 -90.5t-114.5 -60t-102 -31.5q-38 -9 -66 -11z" />
    <glyph glyph-name="uniFD2B" unicode="&#xfebc;&#xfeae;" horiz-adv-x="1818" arabic-form="final" 
d="M1733 175q0 72 -18 140t-54 127q-64 105 -137 105q-77 0 -198 -88.5t-287 -277.5q74 -60 347 -60q231 0 298 11q49 10 49 43zM475 0q-15 -264 -182 -514q-60 -88 -139 -88q-118 0 -118 16q0 7 68 65q91 75 195 248q113 189 113 267q0 41 -72 159q-70 114 -113 155l91 138
q118 -173 148 -302q56 0 117 19t121 52t114.5 78.5t97.5 97.5q12 14 17 21t9 7t7 -6q0 -2 -3.5 -20.5t-3.5 -41.5q0 -88 50 -125q84 122 226 273q190 203 306 203q110 0 200 -160q94 -168 94 -402v-78q0 -44 -37 -60q-12 -5 -79 -17q-115 -20 -312 -20q-307 0 -444 97
q-37 -41 -107 -138q-7 -10 -13 -10q-7 0 -7 10q0 50 86 175q-17 17 -30 40t-18 40q-46 -45 -98 -79t-104 -56t-102 -32q-42 -10 -78 -12z" />
    <glyph glyph-name="uniFD2C" unicode="&#xfec0;&#xfeae;" horiz-adv-x="1818" arabic-form="final" 
d="M1733 175q0 72 -18 140t-54 127q-64 105 -137 105q-77 0 -198 -88.5t-287 -277.5q74 -60 347 -60q231 0 298 11q49 10 49 43zM475 0q-15 -264 -182 -514q-60 -88 -139 -88q-118 0 -118 16q0 7 68 65q91 75 195 248q113 189 113 267q0 41 -72 159q-70 114 -113 155l91 138
q118 -173 148 -302q56 0 117 19t121 52t114.5 78.5t97.5 97.5q12 14 17 21t9 7t7 -6q0 -2 -3.5 -20.5t-3.5 -41.5q0 -88 50 -125q84 122 226 273q190 203 306 203q110 0 200 -160q94 -168 94 -402v-78q0 -44 -37 -60q-12 -5 -79 -17q-115 -20 -312 -20q-307 0 -444 97
q-37 -41 -107 -138q-7 -10 -13 -10q-7 0 -7 10q0 50 86 175q-17 17 -30 40t-18 40q-46 -45 -98 -79t-104 -56t-102 -32q-42 -10 -78 -12zM1512 1003l-121 -120l-121 120l121 121z" />
    <glyph glyph-name="uniFEF5" unicode="&#xfedf;&#xfe82;" horiz-adv-x="989" arabic-form="isolated" 
d="M884 56q0 -20 -42 -38t-91 -18h-358l33 144q165 94 250 261q-185 231 -532 505q-22 -16 -39 -16q-20 0 -45 46q-28 48 -28 96q0 41 13.5 76.5t31.5 35.5q29 0 310 -289q148 -151 328 -366q21 94 21 261q0 158 -23 437l126 101q14 -136 14 -341q0 -369 -70 -536
q44 -69 75 -157q26 -77 26 -110v-92zM810 175q0 21 -30 82q-27 55 -50 88q-89 -108 -194 -201h209q65 0 65 31zM-29 1220q-3 -6 -11 -6q-4 0 -4 8q0 5 2 11q37 105 65 148t45 43q13 0 36 -10t54.5 -23t70 -23t80.5 -10q37 0 76 8t81 34l8 -15q-54 -59 -109 -83t-114 -24
q-38 0 -86 10.5t-106 36.5z" />
    <glyph glyph-name="uniFEF6" unicode="&#xfee0;&#xfe82;" horiz-adv-x="884" arabic-form="final" 
d="M884 56q0 -20 -42 -38t-91 -18h-358l33 144q165 94 250 261q-185 231 -532 505q-22 -16 -39 -16q-20 0 -45 46q-28 48 -28 96q0 41 13.5 76.5t31.5 35.5q29 0 310 -289q148 -151 328 -366q21 94 21 261q0 158 -23 437l126 101q14 -136 14 -341q0 -369 -70 -536
q44 -69 75 -157q26 -77 26 -110v-92zM810 175q0 21 -30 82q-27 55 -50 88q-89 -108 -194 -201h209q65 0 65 31zM-29 1220q-3 -6 -11 -6q-4 0 -4 8q0 5 2 11q37 105 65 148t45 43q13 0 36 -10t54.5 -23t70 -23t80.5 -10q37 0 76 8t81 34l8 -15q-54 -59 -109 -83t-114 -24
q-38 0 -86 10.5t-106 36.5z" />
    <glyph glyph-name="uniFEF7" unicode="&#xfedf;&#xfe84;" horiz-adv-x="989" arabic-form="isolated" 
d="M884 56q0 -20 -42 -38t-92 -18h-357l33 144q165 94 250 261q-185 231 -532 505q-22 -16 -39 -16q-20 0 -45 46q-29 48 -29 96q0 41 14 76.5t32 35.5q29 0 310 -289q148 -151 328 -366q21 94 21 261q0 158 -23 437l126 101q13 -136 13 -341q0 -369 -69 -536
q43 -69 75 -157q26 -77 26 -110v-92zM809 175q0 21 -29 82q-27 55 -51 88q-88 -108 -193 -201h208q65 0 65 31zM303 1357q-164 -20 -271 -126q5 33 17 62t30 45q-42 26 -59 53t-17 59q0 62 47 122q54 70 130 70q73 0 73 -52q0 -36 -19 -59q-47 27 -88 27q-38 0 -65 -25
q-10 -10 -19 -21.5t-9 -25.5q0 -40 107 -82q44 24 86.5 37t90.5 17z" />
    <glyph glyph-name="uniFEF8" unicode="&#xfee0;&#xfe84;" horiz-adv-x="884" arabic-form="final" 
d="M884 56q0 -20 -42 -38t-92 -18h-357l33 144q165 94 250 261q-185 231 -532 505q-22 -16 -39 -16q-20 0 -45 46q-29 48 -29 96q0 41 14 76.5t32 35.5q29 0 310 -289q148 -151 328 -366q21 94 21 261q0 158 -23 437l126 101q13 -136 13 -341q0 -369 -69 -536
q43 -69 75 -157q26 -77 26 -110v-92zM809 175q0 21 -29 82q-27 55 -51 88q-88 -108 -193 -201h208q65 0 65 31zM303 1357q-164 -20 -271 -126q5 33 17 62t30 45q-42 26 -59 53t-17 59q0 62 47 122q54 70 130 70q73 0 73 -52q0 -36 -19 -59q-47 27 -88 27q-38 0 -65 -25
q-10 -10 -19 -21.5t-9 -25.5q0 -40 107 -82q44 24 86.5 37t90.5 17z" />
    <glyph glyph-name="uniFEF9" unicode="&#xfedf;&#xfe88;" horiz-adv-x="989" arabic-form="isolated" 
d="M884 56q0 -20 -42 -38t-92 -18h-357l32 144q165 94 250 261q-185 231 -532 505q-22 -16 -38 -16q-20 0 -46 46q-28 48 -28 96q0 41 13.5 76.5t31.5 35.5q30 0 310 -289q149 -151 328 -366q21 94 21 261q0 158 -23 437l126 101q14 -136 14 -341q0 -369 -69 -536
q43 -69 74 -157q27 -77 27 -110v-92zM809 175q0 21 -29 82q-28 55 -51 88q-88 -108 -193 -201h208q65 0 65 31zM397 -367q-83 -10 -150.5 -42t-119.5 -84q4 33 16 61.5t30 45.5q-42 25 -59 52.5t-17 59.5q0 62 48 122q53 70 129 70q73 0 73 -53q0 -35 -18 -58q-48 27 -89 27
q-38 0 -65 -25q-9 -10 -18 -21.5t-9 -26.5q0 -40 106 -82q44 25 86.5 38t91.5 17z" />
    <glyph glyph-name="uniFEFA" unicode="&#xfee0;&#xfe88;" horiz-adv-x="884" arabic-form="final" 
d="M884 56q0 -20 -42 -38t-92 -18h-357l32 144q165 94 250 261q-185 231 -532 505q-22 -16 -38 -16q-20 0 -46 46q-28 48 -28 96q0 41 13.5 76.5t31.5 35.5q30 0 310 -289q149 -151 328 -366q21 94 21 261q0 158 -23 437l126 101q14 -136 14 -341q0 -369 -69 -536
q43 -69 74 -157q27 -77 27 -110v-92zM809 175q0 21 -29 82q-28 55 -51 88q-88 -108 -193 -201h208q65 0 65 31zM397 -367q-83 -10 -150.5 -42t-119.5 -84q4 33 16 61.5t30 45.5q-42 25 -59 52.5t-17 59.5q0 62 48 122q53 70 129 70q73 0 73 -53q0 -35 -18 -58q-48 27 -89 27
q-38 0 -65 -25q-9 -10 -18 -21.5t-9 -26.5q0 -40 106 -82q44 25 86.5 38t91.5 17z" />
    <glyph glyph-name="uniFEFB" unicode="&#xfedf;&#xfe8e;" horiz-adv-x="989" arabic-form="isolated" 
d="M884 56q0 -20 -42 -38t-92 -18h-357l31 144q165 94 250 261q-184 231 -532 505q-21 -16 -38 -16q-19 0 -46 47t-27 95q0 41 13 76.5t32 35.5q29 0 310 -289q148 -151 327 -366q21 94 21 261q0 158 -23 437l127 101q13 -136 13 -341q0 -369 -69 -536q43 -69 74 -157
q28 -77 28 -110v-92zM808 175q0 21 -30 82q-27 55 -50 88q-88 -108 -193 -201h209q64 0 64 31z" />
    <glyph glyph-name="uniFEFC" unicode="&#xfee0;&#xfe8e;" horiz-adv-x="884" arabic-form="final" 
d="M884 56q0 -20 -42 -38t-92 -18h-357l31 144q165 94 250 261q-184 231 -532 505q-21 -16 -38 -16q-19 0 -46 47t-27 95q0 41 13 76.5t32 35.5q29 0 310 -289q148 -151 327 -366q21 94 21 261q0 158 -23 437l127 101q13 -136 13 -341q0 -369 -69 -536q43 -69 74 -157
q28 -77 28 -110v-92zM808 175q0 21 -30 82q-27 55 -50 88q-88 -108 -193 -201h209q64 0 64 31z" />
    <glyph glyph-name="uniFE8B_uniFEE4.liga" unicode="&#xfe8b;&#xfee4;" horiz-adv-x="1457" 
d="M716 125q0 80 -58 191q-60 117 -108 117q-51 0 -129 -172q48 -76 154 -120q75 -32 122 -32q19 0 19 16zM776 0q-19 -35 -79 -35q-98 0 -195 52q-95 50 -151 127q-51 -44 -106 -72.5t-106 -44t-92.5 -21.5t-64.5 -6q-55 0 -55 45v52q0 47 55 47q34 0 89 10.5t112.5 35
t111.5 65t86 100.5q40 74 66 115.5t42 62.5q43 55 87 55q76 0 148 -170q57 -136 66 -274h501q12 0 12 14q0 18 -53 132q-61 132 -130 246l115 117q31 -38 96 -226q67 -198 67 -272v-97q0 -58 -75 -58h-547zM1229 884q-164 -20 -271 -126q5 33 17 61.5t30 45.5
q-42 25 -59 52.5t-17 59.5q0 62 47 122q54 70 130 70q73 0 73 -52q0 -36 -19 -59q-47 27 -88 27q-38 0 -65 -25q-10 -10 -19 -21.5t-9 -26.5q0 -40 107 -82q44 25 86.5 38t90.5 17z" />
    <glyph glyph-name="uniFE8B_uniFEF0.liga" unicode="&#xfe8b;&#xfef0;" horiz-adv-x="1961" 
d="M1249 0q0 82 -65 234q-78 181 -163 181q-86 0 -194 -79q-101 -74 -101 -120q0 -32 48 -54l129 -61q144 -67 144 -129q0 -67 -153 -157q-300 -179 -523 -179q-119 0 -196 63q-91 75 -91 217q0 131 77 295q65 140 83 140q5 0 6 -7q-3 6 -40 -101q-40 -117 -40 -219
q0 -125 57 -181q63 -63 217 -63q149 0 318 65q154 58 154 91q0 21 -43 40l-167 73q-66 30 -66 109q0 104 155 248.5t267 144.5q100 0 161 -195q31 -103 42 -212h508q13 0 13 14q0 18 -54 132q-60 132 -129 246l115 117q31 -38 95 -226q68 -198 68 -272v-97q0 -58 -75 -58
h-557zM1711 884q-164 -20 -270 -126q4 33 16.5 61.5t30.5 45.5q-43 25 -59.5 52.5t-16.5 59.5q0 62 47 122q54 70 129 70q74 0 74 -52q0 -36 -19 -59q-47 27 -88 27q-38 0 -65 -25q-10 -10 -19 -21.5t-9 -26.5q0 -40 106 -82q45 25 87.5 38t90.5 17z" />
    <glyph glyph-name="uniFE8B_uniFEF2.liga" unicode="&#xfe8b;&#xfef2;" horiz-adv-x="1961" 
d="M820 -591l-121 -121l-120 121l120 121zM553 -591l-121 -121l-120 121l120 121zM1249 0q0 82 -65 234q-78 181 -163 181q-86 0 -194 -79q-101 -74 -101 -120q0 -32 48 -54l129 -61q144 -67 144 -129q0 -67 -153 -157q-300 -179 -523 -179q-119 0 -196 63q-91 75 -91 217
q0 131 77 295q65 140 83 140q5 0 6 -7q-3 6 -40 -101q-40 -117 -40 -219q0 -125 57 -181q63 -63 217 -63q149 0 318 65q154 58 154 91q0 21 -43 40l-167 73q-66 30 -66 109q0 104 155 248.5t267 144.5q100 0 161 -195q31 -103 42 -212h508q13 0 13 14q0 18 -54 132
q-60 132 -129 246l115 117q31 -38 95 -226q68 -198 68 -272v-97q0 -58 -75 -58h-557zM1711 884q-164 -20 -270 -126q4 33 16.5 61.5t30.5 45.5q-43 25 -59.5 52.5t-16.5 59.5q0 62 47 122q54 70 129 70q74 0 74 -52q0 -36 -19 -59q-47 27 -88 27q-38 0 -65 -25
q-10 -10 -19 -21.5t-9 -26.5q0 -40 106 -82q45 25 87.5 38t90.5 17z" />
    <glyph glyph-name="uniFE91_uniFEE4.liga" unicode="&#xfe91;&#xfee4;" horiz-adv-x="1470" 
d="M716 125q0 80 -58 191q-60 117 -108 117q-51 0 -129 -172q48 -76 154 -120q75 -32 122 -32q19 0 19 16zM776 0q-19 -35 -79 -35q-98 0 -195 52q-95 50 -151 127q-51 -44 -106 -72.5t-106 -44t-92.5 -21.5t-64.5 -6q-55 0 -55 45v52q0 47 55 47q34 0 89 10.5t112.5 35
t111.5 65t86 100.5q40 74 66 115.5t42 62.5q43 55 87 55q76 0 148 -170q57 -136 66 -274h501q12 0 12 14q0 18 -53 132q-61 132 -130 246l115 117q31 -38 96 -226q67 -198 67 -272v-97q0 -58 -75 -58h-547zM1205 -310l-120 -121l-121 121l121 121z" />
    <glyph glyph-name="uniFE92_uniFEE6.liga" unicode="&#xfe92;&#xfee6;" horiz-adv-x="1565" 
d="M686 709l-121 -120l-121 120l121 121zM1372 -310l-120 -121l-121 121l121 121zM955 0q-7 -36 -21 -64q-34 -66 -117 -121q-182 -121 -372 -121q-138 0 -229 59q-122 77 -122 239q0 96 55 213q48 101 66 101q5 0 5 -5q0 3 -22 -59t-22 -125q0 -267 302 -267q112 0 237 54
q99 42 163 96q0 97 -90 353l97 121q69 -169 78 -330h495q12 0 12 14q0 18 -53 132q-61 132 -130 246l115 117q31 -38 96 -226q67 -198 67 -272v-97q0 -58 -75 -58h-535z" />
    <glyph glyph-name="uniFE91_uniFEF0.liga" unicode="&#xfe91;&#xfef0;" horiz-adv-x="1953" 
d="M1249 0q0 82 -65 234q-78 181 -163 181q-86 0 -194 -79q-101 -74 -101 -120q0 -32 48 -54l129 -61q144 -67 144 -129q0 -67 -153 -157q-300 -179 -523 -179q-119 0 -196 63q-91 75 -91 217q0 131 77 295q65 140 83 140q5 0 6 -7q-3 6 -40 -101q-40 -117 -40 -219
q0 -125 57 -181q63 -63 217 -63q149 0 318 65q154 58 154 91q0 21 -43 40l-167 73q-66 30 -66 109q0 104 155 248.5t267 144.5q100 0 161 -195q31 -103 42 -212h498q13 0 13 14q0 18 -54 132q-61 132 -129 246l114 117q32 -38 96 -226q67 -198 67 -272v-97q0 -58 -74 -58
h-547zM1678 -310l-121 -121l-121 121l121 121z" />
    <glyph glyph-name="uniFE91_uniFEF2.liga" unicode="&#xfe91;&#xfef2;" horiz-adv-x="1953" 
d="M820 -591l-121 -121l-120 121l120 121zM553 -591l-121 -121l-120 121l120 121zM1249 0q0 82 -65 234q-78 181 -163 181q-86 0 -194 -79q-101 -74 -101 -120q0 -32 48 -54l129 -61q144 -67 144 -129q0 -67 -153 -157q-300 -179 -523 -179q-119 0 -196 63q-91 75 -91 217
q0 131 77 295q65 140 83 140q5 0 6 -7q-3 6 -40 -101q-40 -117 -40 -219q0 -125 57 -181q63 -63 217 -63q149 0 318 65q154 58 154 91q0 21 -43 40l-167 73q-66 30 -66 109q0 104 155 248.5t267 144.5q100 0 161 -195q31 -103 42 -212h498q13 0 13 14q0 18 -54 132
q-61 132 -129 246l114 117q32 -38 96 -226q67 -198 67 -272v-97q0 -58 -74 -58h-547zM1678 -310l-121 -121l-121 121l121 121z" />
    <glyph glyph-name="uniFE97_uniFEE4.liga" unicode="&#xfe97;&#xfee4;" horiz-adv-x="1600" 
d="M716 125q0 80 -58 191q-60 117 -108 117q-51 0 -129 -172q48 -76 154 -120q75 -32 122 -32q19 0 19 16zM776 0q-19 -35 -79 -35q-98 0 -195 52q-95 50 -151 127q-51 -44 -106 -72.5t-106 -44t-92.5 -21.5t-64.5 -6q-55 0 -55 45v52q0 47 55 47q34 0 89 10.5t112.5 35
t111.5 65t86 100.5q40 74 66 115.5t42 62.5q43 55 87 55q76 0 148 -170q57 -136 66 -274h619q13 0 13 14q0 18 -54 132q-61 132 -129 246l114 117q32 -38 96 -226q68 -198 68 -272v-97q0 -58 -76 -58h-665zM1167 933l-120 -121l-121 121l121 119zM1434 933l-120 -121
l-121 121l121 119z" />
    <glyph glyph-name="uniFE98_uniFEE6.liga" unicode="&#xfe98;&#xfee6;" horiz-adv-x="1684" 
d="M686 709l-121 -120l-121 120l121 121zM955 0q-7 -36 -21 -64q-34 -66 -117 -121q-182 -121 -372 -121q-138 0 -229 59q-122 77 -122 239q0 96 55 213q48 101 66 101q5 0 5 -5q0 3 -22 -59t-22 -125q0 -267 302 -267q112 0 237 54q99 42 163 96q0 97 -90 353l97 121
q69 -169 78 -330h613q13 0 13 14q0 18 -54 132q-61 132 -129 246l114 117q32 -38 96 -226q68 -198 68 -272v-97q0 -58 -76 -58h-653zM1334 933l-120 -121l-121 121l121 119zM1601 933l-120 -121l-121 121l121 119z" />
    <glyph glyph-name="uniFE97_uniFEF0.liga" unicode="&#xfe97;&#xfef0;" horiz-adv-x="2064" 
d="M1906 933l-120 -121l-121 121l121 119zM1639 933l-120 -121l-121 121l121 119zM1247 32q-10 77 -63 202q-78 181 -163 181q-86 0 -194 -79q-101 -74 -101 -120q0 -32 48 -54l129 -61q144 -67 144 -129q0 -67 -153 -157q-300 -179 -523 -179q-119 0 -196 63
q-91 75 -91 217q0 131 77 295q65 140 83 140q5 0 6 -7q-3 6 -40 -101q-40 -117 -40 -219q0 -125 57 -181q63 -63 217 -63q149 0 318 65q154 58 154 91q0 21 -43 40l-167 73q-66 30 -66 109q0 104 155 248.5t267 144.5q100 0 161 -195q31 -103 42 -212h617q12 0 12 14
q0 18 -53 132q-61 132 -130 246l114 117q33 -38 97 -226q67 -198 67 -272v-97q0 -58 -76 -58h-666v32z" />
    <glyph glyph-name="uniFE97_uniFEF2.liga" unicode="&#xfe97;&#xfef2;" horiz-adv-x="2064" 
d="M820 -591l-121 -121l-120 121l120 121zM553 -591l-121 -121l-120 121l120 121zM1906 933l-120 -121l-121 121l121 119zM1639 933l-120 -121l-121 121l121 119zM1247 32q-10 77 -63 202q-78 181 -163 181q-86 0 -194 -79q-101 -74 -101 -120q0 -32 48 -54l129 -61
q144 -67 144 -129q0 -67 -153 -157q-300 -179 -523 -179q-119 0 -196 63q-91 75 -91 217q0 131 77 295q65 140 83 140q5 0 6 -7q-3 6 -40 -101q-40 -117 -40 -219q0 -125 57 -181q63 -63 217 -63q149 0 318 65q154 58 154 91q0 21 -43 40l-167 73q-66 30 -66 109
q0 104 155 248.5t267 144.5q100 0 161 -195q31 -103 42 -212h617q12 0 12 14q0 18 -53 132q-61 132 -130 246l114 117q33 -38 97 -226q67 -198 67 -272v-97q0 -58 -76 -58h-666v32z" />
    <glyph glyph-name="uniFE9C_uniFEAE.liga" unicode="&#xfe9c;&#xfeae;" horiz-adv-x="1211" 
d="M994 1161l-120 -121l-121 121l121 121zM475 0q-15 -264 -182 -514q-60 -88 -139 -88q-118 0 -118 16q0 7 68 65q91 75 195 248q113 189 113 267q0 41 -72 159q-70 114 -113 155l91 138q118 -173 148 -302h637q13 0 13 14q0 18 -54 132q-61 132 -129 246l113 117
q33 -38 97 -226q67 -198 67 -272v-97q0 -58 -75 -58h-660zM860 933l-120 -121l-121 121l121 119zM1127 933l-120 -121l-120 121l120 119z" />
    <glyph glyph-name="uniFE9B_uniFEE4.liga" unicode="&#xfe9b;&#xfee4;" horiz-adv-x="1600" 
d="M716 125q0 80 -58 191q-60 117 -108 117q-51 0 -129 -172q48 -76 154 -120q75 -32 122 -32q19 0 19 16zM1300 1161l-120 -121l-121 121l121 121zM776 0q-19 -35 -79 -35q-98 0 -195 52q-95 50 -151 127q-51 -44 -106 -72.5t-106 -44t-92.5 -21.5t-64.5 -6q-55 0 -55 45
v52q0 47 55 47q34 0 89 10.5t112.5 35t111.5 65t86 100.5q40 74 66 115.5t42 62.5q43 55 87 55q76 0 148 -170q57 -136 66 -274h619q13 0 13 14q0 18 -54 132q-61 132 -129 246l114 117q32 -38 96 -226q68 -198 68 -272v-97q0 -58 -76 -58h-665zM1167 933l-120 -121
l-121 121l121 119zM1434 933l-120 -121l-121 121l121 119z" />
    <glyph glyph-name="uniFE9C_uniFEE6.liga" unicode="&#xfe9c;&#xfee6;" horiz-adv-x="1684" 
d="M686 709l-121 -120l-121 120l121 121zM955 0q-7 -36 -21 -64q-34 -66 -117 -121q-182 -121 -372 -121q-138 0 -229 59q-122 77 -122 239q0 96 55 213q48 101 66 101q5 0 5 -5q0 3 -22 -59t-22 -125q0 -267 302 -267q112 0 237 54q99 42 163 96q0 97 -90 353l97 121
q69 -169 78 -330h613q13 0 13 14q0 18 -54 132q-61 132 -129 246l114 117q32 -38 96 -226q68 -198 68 -272v-97q0 -58 -76 -58h-653zM1334 933l-120 -121l-121 121l121 119zM1601 933l-120 -121l-121 121l121 119zM1467 1161l-120 -121l-121 121l121 121z" />
    <glyph glyph-name="uniFE9B_uniFEF0.liga" unicode="&#xfe9b;&#xfef0;" horiz-adv-x="2064" 
d="M1772 1161l-119 -121l-121 121l121 121zM1906 933l-120 -121l-121 121l121 119zM1639 933l-120 -121l-121 121l121 119zM1247 32q-10 77 -63 202q-78 181 -163 181q-86 0 -194 -79q-101 -74 -101 -120q0 -32 48 -54l129 -61q144 -67 144 -129q0 -67 -153 -157
q-300 -179 -523 -179q-119 0 -196 63q-91 75 -91 217q0 131 77 295q65 140 83 140q5 0 6 -7q-3 6 -40 -101q-40 -117 -40 -219q0 -125 57 -181q63 -63 217 -63q149 0 318 65q154 58 154 91q0 21 -43 40l-167 73q-66 30 -66 109q0 104 155 248.5t267 144.5q100 0 161 -195
q31 -103 42 -212h617q12 0 12 14q0 18 -53 132q-61 132 -130 246l114 117q33 -38 97 -226q67 -198 67 -272v-97q0 -58 -76 -58h-666v32z" />
    <glyph glyph-name="uniFE9B_uniFEF2.liga" unicode="&#xfe9b;&#xfef2;" horiz-adv-x="2064" 
d="M820 -591l-121 -121l-120 121l120 121zM553 -591l-121 -121l-120 121l120 121zM1772 1161l-119 -121l-121 121l121 121zM1906 933l-120 -121l-121 121l121 119zM1639 933l-120 -121l-121 121l121 119zM1247 32q-10 77 -63 202q-78 181 -163 181q-86 0 -194 -79
q-101 -74 -101 -120q0 -32 48 -54l129 -61q144 -67 144 -129q0 -67 -153 -157q-300 -179 -523 -179q-119 0 -196 63q-91 75 -91 217q0 131 77 295q65 140 83 140q5 0 6 -7q-3 6 -40 -101q-40 -117 -40 -219q0 -125 57 -181q63 -63 217 -63q149 0 318 65q154 58 154 91
q0 21 -43 40l-167 73q-66 30 -66 109q0 104 155 248.5t267 144.5q100 0 161 -195q31 -103 42 -212h617q12 0 12 14q0 18 -53 132q-61 132 -130 246l114 117q33 -38 97 -226q67 -198 67 -272v-97q0 -58 -76 -58h-666v32z" />
    <glyph glyph-name="uniFEDB_uniFEF0.liga" unicode="&#xfedb;&#xfef0;" horiz-adv-x="2173" 
d="M1237 82q-15 64 -53 152q-78 181 -163 181q-86 0 -194 -79q-101 -74 -101 -120q0 -32 48 -54l129 -61q144 -67 144 -129q0 -67 -153 -157q-300 -179 -523 -179q-119 0 -196 63q-91 75 -91 217q0 131 77 295q65 140 83 140q5 0 6 -7q-3 6 -40 -101q-40 -117 -40 -219
q0 -125 57 -181q63 -63 217 -63q149 0 318 65q154 58 154 91q0 21 -43 40l-167 73q-66 30 -66 109q0 104 155 248.5t267 144.5q100 0 161 -195q31 -103 42 -212h722q8 0 8 11q0 6 -26.5 44.5t-86.5 102.5t-156.5 150.5t-233.5 190.5q0 -11 -9 -24.5t-19 -13.5q-7 0 -24.5 12
t-34.5 34t-31 52.5t-14 67.5q0 27 6 48.5t21.5 44t44 49.5t74.5 65q33 27 82.5 61.5t106.5 73t117.5 77.5t115.5 72.5t99.5 60t69.5 40.5l-30 -163q-94 -52 -182.5 -108.5t-165 -110.5t-135.5 -99t-92 -75q45 -30 98 -72.5t103 -86t92 -83t64 -64.5q63 -68 110 -128.5
t78.5 -107.5t46.5 -79.5t15 -41.5v-125q0 -12 -5 -15.5t-19 -3.5h-838v82z" />
    <glyph glyph-name="uniFEDC_uniFEF0.liga" unicode="&#xfedc;&#xfef0;" horiz-adv-x="2099" 
d="M1237 82q-15 64 -53 152q-78 181 -163 181q-86 0 -194 -79q-101 -74 -101 -120q0 -32 48 -54l129 -61q144 -67 144 -129q0 -67 -153 -157q-300 -179 -523 -179q-119 0 -196 63q-91 75 -91 217q0 131 77 295q65 140 83 140q5 0 6 -7q-3 6 -40 -101q-40 -117 -40 -219
q0 -125 57 -181q63 -63 217 -63q149 0 318 65q154 58 154 91q0 21 -43 40l-167 73q-66 30 -66 109q0 104 155 248.5t267 144.5q100 0 161 -195q31 -103 42 -212h722q8 0 8 11q0 6 -26.5 44.5t-86.5 102.5t-156.5 150.5t-233.5 190.5q0 -11 -9 -24.5t-19 -13.5q-7 0 -24.5 12
t-34.5 34t-31 52.5t-14 67.5q0 27 6 48.5t21.5 44t44 49.5t74.5 65q33 27 82.5 61.5t106.5 73t117.5 77.5t115.5 72.5t99.5 60t69.5 40.5l-30 -163q-94 -52 -182.5 -108.5t-165 -110.5t-135.5 -99t-92 -75q45 -30 98 -72.5t103 -86t92 -83t64 -64.5q63 -68 110 -128.5
t78.5 -107.5t46.5 -79.5t15 -41.5v-125q0 -12 -5 -15.5t-19 -3.5h-838v82z" />
    <glyph glyph-name="uniFEDB_uniFEF2.liga" unicode="&#xfedb;&#xfef2;" horiz-adv-x="2173" 
d="M820 -591l-121 -121l-120 121l120 121zM553 -591l-121 -121l-120 121l120 121zM1237 82q-15 64 -53 152q-78 181 -163 181q-86 0 -194 -79q-101 -74 -101 -120q0 -32 48 -54l129 -61q144 -67 144 -129q0 -67 -153 -157q-300 -179 -523 -179q-119 0 -196 63
q-91 75 -91 217q0 131 77 295q65 140 83 140q5 0 6 -7q-3 6 -40 -101q-40 -117 -40 -219q0 -125 57 -181q63 -63 217 -63q149 0 318 65q154 58 154 91q0 21 -43 40l-167 73q-66 30 -66 109q0 104 155 248.5t267 144.5q100 0 161 -195q31 -103 42 -212h722q8 0 8 11
q0 6 -26.5 44.5t-86.5 102.5t-156.5 150.5t-233.5 190.5q0 -11 -9 -24.5t-19 -13.5q-7 0 -24.5 12t-34.5 34t-31 52.5t-14 67.5q0 27 6 48.5t21.5 44t44 49.5t74.5 65q33 27 82.5 61.5t106.5 73t117.5 77.5t115.5 72.5t99.5 60t69.5 40.5l-30 -163q-94 -52 -182.5 -108.5
t-165 -110.5t-135.5 -99t-92 -75q45 -30 98 -72.5t103 -86t92 -83t64 -64.5q63 -68 110 -128.5t78.5 -107.5t46.5 -79.5t15 -41.5v-125q0 -12 -5 -15.5t-19 -3.5h-838v82z" />
    <glyph glyph-name="uniFEDC_uniFEF2.liga" unicode="&#xfedc;&#xfef2;" horiz-adv-x="2099" 
d="M820 -591l-121 -121l-120 121l120 121zM553 -591l-121 -121l-120 121l120 121zM1237 82q-15 64 -53 152q-78 181 -163 181q-86 0 -194 -79q-101 -74 -101 -120q0 -32 48 -54l129 -61q144 -67 144 -129q0 -67 -153 -157q-300 -179 -523 -179q-119 0 -196 63
q-91 75 -91 217q0 131 77 295q65 140 83 140q5 0 6 -7q-3 6 -40 -101q-40 -117 -40 -219q0 -125 57 -181q63 -63 217 -63q149 0 318 65q154 58 154 91q0 21 -43 40l-167 73q-66 30 -66 109q0 104 155 248.5t267 144.5q100 0 161 -195q31 -103 42 -212h722q8 0 8 11
q0 6 -26.5 44.5t-86.5 102.5t-156.5 150.5t-233.5 190.5q0 -11 -9 -24.5t-19 -13.5q-7 0 -24.5 12t-34.5 34t-31 52.5t-14 67.5q0 27 6 48.5t21.5 44t44 49.5t74.5 65q33 27 82.5 61.5t106.5 73t117.5 77.5t115.5 72.5t99.5 60t69.5 40.5l-30 -163q-94 -52 -182.5 -108.5
t-165 -110.5t-135.5 -99t-92 -75q45 -30 98 -72.5t103 -86t92 -83t64 -64.5q63 -68 110 -128.5t78.5 -107.5t46.5 -79.5t15 -41.5v-125q0 -12 -5 -15.5t-19 -3.5h-838v82z" />
    <glyph glyph-name="uniFEDF_uniFB51.rlig" unicode="&#xfedf;&#xfb51;" horiz-adv-x="989" 
d="M885 56q0 -20 -42 -38t-92 -18h-357l31 144q165 94 251 261q-184 231 -532 505q-21 -16 -39 -16q-19 0 -46 47t-27 95q0 41 13.5 76.5t31.5 35.5q29 0 311 -289q147 -151 327 -366q21 94 21 261q0 158 -24 437l128 101q12 -136 12 -341q0 -369 -69 -536q43 -69 75 -157
q27 -77 27 -110v-92zM809 175q0 21 -29 82q-28 55 -51 88q-88 -108 -193 -201h209q64 0 64 31zM388 1473q0 -49 -25 -94q-11 -19 -31.5 -34t-48 -26t-60 -17t-68.5 -6q-43 0 -65 3.5t-27 3.5q-16 0 -35 -24.5t-49 -63.5q-4 -4 -8 -4q-5 0 -5 7q0 4 1.5 11t4 17t6 21t6.5 21
q20 63 47.5 92.5t42.5 29.5q13 0 17 -2q44 106 93.5 162.5t103.5 56.5q19 0 36.5 -10t32 -29t23 -48t8.5 -67zM268 1528q-67 0 -147 -131q14 -3 30.5 -4t34.5 -1q20 0 45.5 4t49.5 12t41.5 17.5t23.5 21.5q-11 40 -31.5 60.5t-46.5 20.5z" />
    <glyph glyph-name="uniFEE0_uniFB51.rlig" unicode="&#xfee0;&#xfb51;" horiz-adv-x="884" 
d="M885 56q0 -20 -42 -38t-92 -18h-357l31 144q165 94 251 261q-184 231 -532 505q-21 -16 -39 -16q-19 0 -46 47t-27 95q0 41 13.5 76.5t31.5 35.5q29 0 311 -289q147 -151 327 -366q21 94 21 261q0 158 -24 437l128 101q12 -136 12 -341q0 -369 -69 -536q43 -69 75 -157
q27 -77 27 -110v-92zM809 175q0 21 -29 82q-28 55 -51 88q-88 -108 -193 -201h209q64 0 64 31zM388 1473q0 -49 -25 -94q-11 -19 -31.5 -34t-48 -26t-60 -17t-68.5 -6q-43 0 -65 3.5t-27 3.5q-16 0 -35 -24.5t-49 -63.5q-4 -4 -8 -4q-5 0 -5 7q0 4 1.5 11t4 17t6 21t6.5 21
q20 63 47.5 92.5t42.5 29.5q13 0 17 -2q44 106 93.5 162.5t103.5 56.5q19 0 36.5 -10t32 -29t23 -48t8.5 -67zM268 1528q-67 0 -147 -131q14 -3 30.5 -4t34.5 -1q20 0 45.5 4t49.5 12t41.5 17.5t23.5 21.5q-11 40 -31.5 60.5t-46.5 20.5z" />
    <glyph glyph-name="uniFEDF_uniFEE2.liga" unicode="&#xfedf;&#xfee2;" horiz-adv-x="1380" 
d="M719 125q0 80 -58 191q-60 117 -107 117q-52 0 -129 -172q48 -76 153 -120q76 -32 122 -32q19 0 19 16zM780 0q-20 -35 -80 -35q-98 0 -194 52q-49 26 -88 56t-69 71q-13 -16 -41 -33.5t-57.5 -39.5t-52.5 -48t-23 -58q0 -31 10.5 -72.5t26 -91.5t34 -107.5t33.5 -120
t25.5 -128t10.5 -133.5q0 -12 -11 -13t-14 10q-27 117 -63 214t-67.5 181t-53.5 156.5t-22 139.5q0 63 33.5 119.5t115.5 103.5q39 22 66 41t46.5 38t34 39.5t28.5 47.5q29 57 48.5 90t36.5 54q42 55 86 55q77 0 148 -170q57 -136 67 -274h360q19 0 19 24q0 115 -43 410
q-50 344 -116 593l118 121q145 -707 145 -1221q0 -71 -61 -71h-436z" />
    <glyph glyph-name="uniFEE4_uniFE8E.liga" unicode="&#xfee4;&#xfe8e;" horiz-adv-x="1095" 
d="M1019 125q0 80 -58 191q-60 117 -107 117q-51 0 -129 -172q48 -76 153 -120q76 -32 122 -32q19 0 19 16zM294 0l-81 -54l-4 106q-4 94 -14 219t-27 284q-41 354 -95 599l114 116q48 -309 74 -568t26 -476v-82q35 0 88 11q54 10 112 34.5t111.5 65t86.5 100.5
q40 74 65.5 115.5t42.5 62.5q42 55 86 55q77 0 149 -170q67 -160 67 -323q0 -69 -13 -92q-19 -38 -82 -38q-97 0 -194 52q-95 50 -152 127q-50 -44 -105 -72.5t-106 -44t-92 -21.5q-35 -5 -57 -6z" />
    <glyph glyph-name="uniFEE4_uniFE82.liga" unicode="&#xfee4;&#xfe82;" horiz-adv-x="1106" 
d="M1031 125q0 80 -58 191q-60 117 -107 117q-52 0 -129 -172q48 -76 153 -120q76 -32 122 -32q19 0 19 16zM-60 1304q-3 -6 -11 -6q-4 0 -4 8q0 5 2 11q37 105 65 148t45 43q13 0 36 -10t54.5 -23t70 -23t80.5 -10q37 0 76 8t81 34l8 -15q-54 -59 -109 -82.5t-114 -23.5
q-38 0 -86 10.5t-106 35.5zM317 1l-82 -55l-4 106q-3 94 -13 219t-28 284q-41 354 -95 599l114 116q48 -309 74.5 -568t26.5 -476v-82q31 2 77 11q54 10 112 34.5t111.5 65t86.5 100.5q40 74 65.5 115.5t42.5 62.5q42 55 86 55q77 0 148 -170q68 -160 68 -323q0 -69 -13 -92
q-19 -38 -82 -38q-98 0 -194 52q-95 50 -152 127q-50 -44 -105.5 -72.5t-106.5 -44t-92 -21.5q-26 -4 -45 -5z" />
    <glyph glyph-name="uniFEE4_uniFE84.liga" unicode="&#xfee4;&#xfe84;" horiz-adv-x="1106" 
d="M1030 125q0 80 -57 191q-60 117 -108 117q-51 0 -129 -172q48 -76 154 -120q75 -32 122 -32q18 0 18 16zM277 1399q-164 -20 -271 -126q5 33 17 62t30 45q-42 26 -59 53t-17 59q0 62 47 122q54 70 130 70q73 0 73 -52q0 -36 -19 -59q-47 27 -88 27q-38 0 -65 -25
q-10 -10 -19 -21.5t-9 -25.5q0 -40 107 -82q44 24 86.5 37t90.5 17zM317 1l-82 -55l-5 106q-3 94 -13 219t-28 284q-41 354 -94 599l113 116q49 -309 75 -568t26 -476v-82q32 2 77 11q55 10 112.5 34.5t111.5 65t86 100.5q40 74 66 115.5t42 62.5q42 55 87 55q76 0 148 -170
q67 -160 67 -323q0 -69 -12 -92q-19 -38 -82 -38q-98 0 -195 52q-95 50 -151 127q-51 -44 -106 -72.5t-106 -44t-92 -21.5q-26 -4 -45 -5z" />
    <glyph glyph-name="uniFEE4_uniFE88.liga" unicode="&#xfee4;&#xfe88;" horiz-adv-x="1106" 
d="M321 -421q-83 -10 -150.5 -41.5t-120.5 -84.5q5 33 17 62t30 46q-42 25 -59 52t-17 59q0 62 47 122q54 70 130 70q73 0 73 -52q0 -36 -19 -59q-47 27 -88 27q-38 0 -65 -25q-10 -9 -19 -21t-9 -26q0 -40 107 -82q44 24 86.5 37t90.5 17zM1030 125q0 80 -58 191
q-59 117 -107 117q-51 0 -129 -172q48 -76 153 -120q76 -32 122 -32q19 0 19 16zM316 1l-82 -55l-4 106q-3 94 -13 219t-28 284q-41 354 -94 599l113 116q48 -309 74.5 -568t26.5 -476v-82q32 2 77 11q54 10 112 34.5t111.5 65t86.5 100.5q40 74 65.5 115.5t42.5 62.5
q42 55 86 55q77 0 149 -170q67 -160 67 -323q0 -69 -13 -92q-19 -38 -82 -38q-97 0 -194 52q-95 50 -152 127q-50 -44 -105 -72.5t-106 -44t-92 -21.5q-27 -4 -46 -5z" />
    <glyph glyph-name="uniFEE8_uniFEAE.liga" unicode="&#xfee8;&#xfeae;" horiz-adv-x="1081" 
d="M475 0q-15 -264 -182 -514q-60 -88 -139 -88q-118 0 -118 16q0 7 68 65q91 75 195 248q113 189 113 267q0 41 -72 159q-70 114 -113 155l91 138q118 -173 148 -302h508q12 0 12 14q0 18 -53 132q-61 132 -130 246l115 117q32 -38 96 -226q67 -198 67 -272v-97
q0 -58 -75 -58h-531zM904 933l-121 -121l-120 121l120 119z" />
    <glyph glyph-name="uniFEE7_uniFEE4.liga" unicode="&#xfee7;&#xfee4;" horiz-adv-x="1462" 
d="M716 125q0 80 -58 191q-60 117 -108 117q-51 0 -129 -172q48 -76 154 -120q75 -32 122 -32q19 0 19 16zM776 0q-19 -35 -79 -35q-98 0 -195 52q-95 50 -151 127q-51 -44 -106 -72.5t-106 -44t-92.5 -21.5t-64.5 -6q-55 0 -55 45v52q0 47 55 47q34 0 89 10.5t112.5 35
t111.5 65t86 100.5q40 74 66 115.5t42 62.5q43 55 87 55q76 0 148 -170q57 -136 66 -274h490q13 0 13 14q0 18 -54 132q-61 132 -129 246l114 117q32 -38 96 -226q67 -198 67 -272v-97q0 -58 -74 -58h-537zM1211 933l-121 -121l-121 121l121 119z" />
    <glyph glyph-name="uniFEE7_uniFEF0.liga" unicode="&#xfee7;&#xfef0;" horiz-adv-x="1932" 
d="M1235 89q-16 62 -51 145q-78 181 -163 181q-86 0 -194 -79q-101 -74 -101 -120q0 -32 48 -54l129 -61q144 -67 144 -129q0 -67 -153 -157q-300 -179 -523 -179q-119 0 -196 63q-91 75 -91 217q0 131 77 295q65 140 83 140q5 0 6 -7q-3 6 -40 -101q-40 -117 -40 -219
q0 -125 57 -181q63 -63 217 -63q149 0 318 65q154 58 154 91q0 21 -43 40l-167 73q-66 30 -66 109q0 104 155 248.5t267 144.5q100 0 161 -195q31 -103 42 -212h487q13 0 13 14q0 18 -54 132q-61 132 -129 246l115 117q31 -38 95 -226q68 -198 68 -272v-97q0 -58 -75 -58
h-550v89zM1683 933l-121 -121l-121 121l121 119z" />
    <glyph glyph-name="uniFEE7_uniFEF2.liga" unicode="&#xfee7;&#xfef2;" horiz-adv-x="1932" 
d="M820 -591l-121 -121l-120 121l120 121zM553 -591l-121 -121l-120 121l120 121zM1235 89q-16 62 -51 145q-78 181 -163 181q-86 0 -194 -79q-101 -74 -101 -120q0 -32 48 -54l129 -61q144 -67 144 -129q0 -67 -153 -157q-300 -179 -523 -179q-119 0 -196 63
q-91 75 -91 217q0 131 77 295q65 140 83 140q5 0 6 -7q-3 6 -40 -101q-40 -117 -40 -219q0 -125 57 -181q63 -63 217 -63q149 0 318 65q154 58 154 91q0 21 -43 40l-167 73q-66 30 -66 109q0 104 155 248.5t267 144.5q100 0 161 -195q31 -103 42 -212h487q13 0 13 14
q0 18 -54 132q-61 132 -129 246l115 117q31 -38 95 -226q68 -198 68 -272v-97q0 -58 -75 -58h-550v89zM1683 933l-121 -121l-121 121l121 119z" />
    <glyph glyph-name="uniFEF4_uniFEAE.liga" unicode="&#xfef4;&#xfeae;" horiz-adv-x="1200" 
d="M475 0q-15 -264 -182 -514q-60 -88 -139 -88q-118 0 -118 16q0 7 68 65q91 75 195 248q113 189 113 267q0 41 -72 159q-70 114 -113 155l91 138q118 -173 148 -302h627q12 0 12 14q0 18 -53 132q-61 132 -130 246l115 117q31 -38 96 -226q67 -198 67 -272v-97
q0 -58 -75 -58h-650zM834 -275l-121 -121l-121 121l121 120zM1101 -275l-121 -121l-121 121l121 120z" />
    <glyph glyph-name="uniFEF3_uniFEE4.liga" unicode="&#xfef3;&#xfee4;" horiz-adv-x="1591" 
d="M1418 -275l-121 -121l-121 121l121 120zM1151 -275l-121 -121l-121 121l121 120zM716 125q0 80 -58 191q-60 117 -108 117q-51 0 -129 -172q48 -76 154 -120q75 -32 122 -32q19 0 19 16zM776 0q-19 -35 -79 -35q-98 0 -195 52q-95 50 -151 127q-51 -44 -106 -72.5
t-106 -44t-92.5 -21.5t-64.5 -6q-55 0 -55 45v52q0 47 55 47q34 0 89 10.5t112.5 35t111.5 65t86 100.5q40 74 66 115.5t42 62.5q43 55 87 55q76 0 148 -170q57 -136 66 -274h619q13 0 13 14q0 18 -54 132q-61 132 -129 246l115 117q31 -38 95 -226q68 -198 68 -272v-97
q0 -58 -75 -58h-666z" />
    <glyph glyph-name="uniFEF4_uniFEE6.liga" unicode="&#xfef4;&#xfee6;" horiz-adv-x="1673" 
d="M686 709l-121 -120l-121 120l121 121zM1307 -275l-121 -121l-121 121l121 120zM1574 -275l-121 -121l-121 121l121 120zM955 0q-7 -36 -21 -64q-34 -66 -117 -121q-182 -121 -372 -121q-138 0 -229 59q-122 77 -122 239q0 96 55 213q48 101 66 101q5 0 5 -5q0 3 -22 -59
t-22 -125q0 -267 302 -267q112 0 237 54q99 42 163 96q0 97 -90 353l97 121q69 -169 78 -330h603q12 0 12 14q0 18 -53 132q-61 132 -129 246l114 117q32 -38 96 -226q67 -198 67 -272v-97q0 -58 -75 -58h-643z" />
    <glyph glyph-name="T_h.liga" unicode="Th" horiz-adv-x="1746" 
d="M924 880l-8 131q-3 30 -15.5 42.5t-50.5 12.5h-256q-5 -38 -6.5 -78t-1.5 -88v-701q0 -48 4 -79.5t11 -44.5q14 -23 70 -26l79 -4v-50q-129 5 -239 5q-63 0 -122 -1t-125 -4v50l80 4q57 3 70 26q8 13 11.5 44.5t3.5 79.5v701q0 48 -2 88t-5 78h-256q-39 0 -51 -12.5
t-16 -42.5l-7 -131h-51q0 68 -2.5 135.5t-9.5 131.5q90 0 179.5 -2t179.5 -2h240q44 0 89 0.5t90 2.5h3q56 8 111 20q64 13 127 38l14 -14v-560h4l123 106q28 23 56.5 32.5t77.5 9.5q146 0 210 -76t64 -213v-320q0 -33 1.5 -58t6.5 -38q9 -20 53 -24l68 -4v-50
q-32 2 -66.5 3.5t-69.5 1.5q-34 0 -69.5 -1.5t-62.5 -3.5v471q0 104 -53 157t-139 53q-37 0 -73.5 -14.5t-66 -37.5t-47 -50.5t-17.5 -53.5v-351q0 -33 2 -58t7 -38q10 -20 53 -24l75 -4v-50q-43 2 -94 3.5t-112 1.5t-112 -1.5t-94 -3.5v50l75 4q43 4 53 24q6 13 7.5 38
t1.5 58v711z" />
    <glyph glyph-name="f_b.liga" unicode="fb" horiz-adv-x="1518" 
d="M837 155q0 -14 19.5 -30t50.5 -29t66.5 -22t65.5 -9q49 0 95 19.5t79 59.5t53 100.5t20 141.5q0 55 -13 105.5t-41.5 90t-71.5 64t-104 24.5q-49 0 -89 -17.5t-68.5 -42t-45 -52t-16.5 -47.5v-356zM754 1181q34 9 67 23l16 -14v-575h3l87 89q17 17 40.5 30t50 23
t55.5 15.5t55 5.5q73 0 129.5 -27t94.5 -73t58 -107.5t20 -131.5q0 -42 -10 -86.5t-28.5 -86t-42 -76t-49.5 -54.5l-166 -119q-38 -29 -78 -33t-74 -4q-55 0 -108.5 14t-96.5 46l-66 -60l-27 11q2 17 3.5 34.5t3.5 35.5l6 192v775q0 14 -1 25q-2 13 -5 24q-6 14 -24 17
q-6 1 -11 1h-67v-34l-36 -10q-28 21 -57 34t-61 13q-38 0 -62 -11t-37 -37.5t-17 -72.5t-4 -117v-141l216 7l-11 -88h-205v-469q0 -33 1.5 -58t6.5 -38q9 -20 53 -24l86 -4v-50q-53 2 -104.5 3.5t-113.5 1.5q-61 0 -111.5 -1.5t-95.5 -3.5v50l77 4q43 4 52 24q6 13 7.5 38
t1.5 58v469l-115 -6v37l115 50v71q0 83 16.5 139.5t52.5 98.5l97 110q32 37 73 53t76 16q18 0 40.5 -5l58.5 -13v-42q49 7 98 17q3 1 7 2q30 5 60 15z" />
    <glyph glyph-name="f_f_b.liga" unicode="ffb" horiz-adv-x="2010" 
d="M1331 155q0 -14 19.5 -30t50.5 -29t67 -22t65 -9q49 0 95 19.5t79 59.5t53 100.5t20 141.5q0 55 -13 105.5t-41.5 90t-71.5 64t-104 24.5q-48 0 -88 -17.5t-69 -42t-45.5 -52t-16.5 -47.5v-356zM315 638v-469q0 -33 1.5 -58t6.5 -38q9 -20 53 -24l76 -4v-50
q-45 2 -95.5 3.5t-112.5 1.5q-61 0 -111.5 -1.5t-95.5 -3.5v50l77 4q43 4 52 24q6 13 7.5 38t1.5 58v469l-115 -6v37l115 50v71q0 83 16.5 139.5t52.5 98.5l97 110q32 37 73 53t76 16q18 0 37 -5t38 -13v-128l-20 -10q-23 21 -50.5 34t-59.5 13q-38 0 -62 -11t-37 -37.5
t-17 -72.5t-4 -117v-141l216 7l-6 -48l144 41v71q0 83 16.5 139.5t52.5 98.5l97 110q33 37 74 53t75 16q18 0 40.5 -5l58.5 -13v-42q49 7 98 17q3 1 7 2q30 5 60 15q34 9 67 23l16 -14v-575h3l88 89q16 17 39.5 30t50 23t55.5 15.5t55 5.5q73 0 129.5 -27t94.5 -73
t58 -107.5t20 -131.5q0 -42 -10 -86.5t-28.5 -86t-42 -76t-49.5 -54.5l-166 -119q-38 -29 -78 -33t-74 -4q-54 0 -108 14t-97 46l-66 -60l-27 11q2 17 3.5 34.5t3.5 35.5l6 192v775q0 14 -1 25q-2 13 -5 24q-6 14 -24 17q-5 1 -11 1h-67v-34l-36 -10q-28 21 -57 34t-60 13
q-39 0 -63 -11t-37 -37.5t-17 -72.5t-4 -117v-141l216 7l-11 -88h-205v-469q0 -33 1.5 -58t6.5 -38q10 -20 53 -24l86 -4v-50q-53 2 -104.5 3.5t-113.5 1.5q-61 0 -111.5 -1.5t-95.5 -3.5v50l77 4q43 4 52 24q6 13 7.5 38t1.5 58v469h-354z" />
    <glyph glyph-name="f_f.liga" unicode="ff" horiz-adv-x="1034" 
d="M315 638v-469q0 -33 1.5 -58t6.5 -38q9 -20 53 -24l76 -4v-50q-45 2 -95.5 3.5t-112.5 1.5q-61 0 -111.5 -1.5t-95.5 -3.5v50l77 4q43 4 52 24q6 13 7.5 38t1.5 58v469l-115 -6v37l115 50v71q0 83 16.5 139.5t52.5 98.5l97 110q32 37 73 53t76 16q18 0 37 -5t38 -13v-128
l-20 -10q-23 21 -50.5 34t-59.5 13q-38 0 -62 -11t-37 -37.5t-17 -72.5t-4 -117v-141l216 7l-6 -48l133 41v71q0 83 17 139.5t53 98.5l96 110q33 37 74 53t76 16q18 0 36.5 -5t37.5 -13v-128l-20 -10q-23 21 -50 34t-59 13q-39 0 -62.5 -11t-36.5 -37.5t-17.5 -72.5
t-4.5 -117v-141l217 7l-12 -88h-205v-469q0 -33 1.5 -58t7.5 -38q9 -20 52 -24l77 -4v-50q-45 2 -95.5 3.5t-112.5 1.5q-61 0 -111.5 -1.5t-95.5 -3.5v50l76 4q43 4 53 24q5 13 6.5 38t1.5 58v469h-343z" />
    <glyph glyph-name="f_h.liga" unicode="fh" horiz-adv-x="1526" 
d="M702 535h-2v470q0 13 -1.5 28.5t-5.5 30t-12.5 23t-21.5 8.5h-70v-34l-36 -10q-28 21 -57 34t-61 13q-38 0 -62 -11t-37 -37.5t-17 -72.5t-4 -117v-141l216 7l-11 -88h-205v-469q0 -33 1.5 -58t6.5 -38q9 -20 53 -24l86 -4v-50q-53 2 -104.5 3.5t-113.5 1.5
q-61 0 -111.5 -1.5t-95.5 -3.5v50l77 4q43 4 52 24q6 13 7.5 38t1.5 58v469l-115 -6v37l115 50v71q0 83 16.5 139.5t52.5 98.5l97 110q32 37 73 53t76 16q18 0 40.5 -5l58.5 -13v-43q36 5 71 12q19 4 39 9q34 7 68 18v-2q30 9 60 21l14 -14v-560h3l123 106q29 23 57.5 32.5
t77.5 9.5q146 0 209.5 -76t63.5 -213v-320q0 -33 2 -58t7 -38q9 -20 52 -24l69 -4v-50q-32 2 -66.5 3.5t-69.5 1.5t-70 -1.5t-62 -3.5v471q0 104 -53.5 157t-138.5 53q-38 0 -74 -14.5t-65.5 -37.5t-47 -50.5t-17.5 -53.5v-351q0 -33 1.5 -58t7.5 -38q10 -20 53 -24l75 -4
v-50q-43 2 -94 3.5t-112 1.5t-112 -1.5t-94 -3.5v50l74 4q44 4 54 24q5 13 6.5 38t1.5 58v366z" />
    <glyph glyph-name="f_f_h.liga" unicode="ffh" horiz-adv-x="1979" 
d="M1048 1095v-34l-20 -10q-23 21 -50 34t-59 13q-39 0 -62.5 -11t-36.5 -37.5t-17.5 -72.5t-4.5 -117v-141l217 7l-12 -88h-205v-469q0 -33 1.5 -58t7.5 -38q9 -20 52 -24l77 -4v-50q-45 2 -95.5 3.5t-112.5 1.5q-61 0 -111.5 -1.5t-95.5 -3.5v50l76 4q43 4 53 24
q5 13 6.5 38t1.5 58v469h-343v-469q0 -33 1.5 -58t6.5 -38q9 -20 53 -24l76 -4v-50q-45 2 -95.5 3.5t-112.5 1.5q-61 0 -111.5 -1.5t-95.5 -3.5v50l77 4q43 4 52 24q6 13 7.5 38t1.5 58v469l-115 -6v37l115 50v71q0 83 16.5 139.5t52.5 98.5l97 110q32 37 73 53t76 16
q18 0 37 -5t38 -13v-128l-20 -10q-23 21 -50.5 34t-59.5 13q-38 0 -62 -11t-37 -37.5t-17 -72.5t-4 -117v-141l216 7l-6 -48l133 41v71q0 83 17 139.5t53 98.5l96 110q33 37 74 53t76 16q18 0 36.5 -5t37.5 -13v-42q52 8 103 19q65 13 128 38l14 -14v-560h3l124 106
q28 23 56.5 32.5t77.5 9.5q146 0 209.5 -76t63.5 -213v-320q0 -33 2 -58t7 -38q9 -20 52 -24l69 -4v-50q-32 2 -66.5 3.5t-69.5 1.5t-70 -1.5t-62 -3.5v471q0 104 -53.5 157t-138.5 53q-38 0 -74 -14.5t-65.5 -37.5t-47 -50.5t-17.5 -53.5v-351q0 -33 1.5 -58t7.5 -38
q10 -20 53 -24l75 -4v-50q-43 2 -94 3.5t-112 1.5t-112 -1.5t-94 -3.5v50l75 4q43 4 53 24q5 13 7 38t2 58v859q0 29 -7 48t-35 19h-65z" />
    <glyph glyph-name="f_f_i.liga" unicode="ffi" horiz-adv-x="1491" 
d="M315 638v-469q0 -33 1.5 -58t6.5 -38q9 -20 53 -24l76 -4v-50q-45 2 -95.5 3.5t-112.5 1.5q-61 0 -111.5 -1.5t-95.5 -3.5v50l77 4q43 4 52 24q6 13 7.5 38t1.5 58v469l-115 -6v37l115 50v71q0 83 16.5 139.5t52.5 98.5l97 110q32 37 73 53t76 16q18 0 37 -5t38 -13v-128
l-20 -10q-23 21 -50.5 34t-59.5 13q-38 0 -62 -11t-37 -37.5t-17 -72.5t-4 -117v-141l216 7l-6 -48l133 41v71q0 83 17 139.5t53 98.5l96 110q33 37 74 53t76 16q18 0 36.5 -5t37.5 -13v-128l-20 -10q-23 21 -50 34t-59 13q-39 0 -62.5 -11t-36.5 -37.5t-17.5 -72.5
t-4.5 -117v-141l217 7l-12 -88h-205v-469q0 -33 1.5 -58t7.5 -38q9 -20 52 -24l77 -4v-50q-45 2 -95.5 3.5t-112.5 1.5q-61 0 -111.5 -1.5t-95.5 -3.5v50l76 4q43 4 53 24q5 13 6.5 38t1.5 58v469h-343zM1255 1139q37 0 65 -28t28 -65t-28 -64t-65 -27q-36 0 -63.5 27
t-27.5 64t27.5 65t63.5 28zM1319 169q0 -33 1.5 -58t6.5 -38q9 -20 53 -24l76 -4v-50q-45 2 -95.5 3.5t-111.5 1.5q-62 0 -112.5 -1.5t-95.5 -3.5v50l77 4q43 4 52 24q6 13 7.5 38t1.5 58v370q0 39 -2 66t-10 36q-12 19 -61 19h-61v46q75 9 143.5 29t115.5 43l15 -12v-597z
" />
    <glyph glyph-name="f_j.liga" unicode="fj" horiz-adv-x="1002" 
d="M772 1139q37 0 64.5 -28t27.5 -65t-27.5 -64t-64.5 -27t-64.5 27t-27.5 64t27.5 65t64.5 28zM565 1061l-20 -10q-23 21 -50.5 34t-59.5 13q-38 0 -62 -11t-37 -37.5t-17 -72.5t-4 -117v-141l199 7l-11 -88h-188v-469q0 -33 1.5 -58t6.5 -38q9 -20 53 -24l86 -4v-50
q-53 2 -104.5 3.5t-113.5 1.5q-61 0 -111.5 -1.5t-95.5 -3.5v50l77 4q43 4 52 24q6 13 7.5 38t1.5 58v469l-115 -6v37l115 50v71q0 83 16.5 139.5t52.5 98.5l97 110q32 37 73 53t76 16q18 0 37 -5t38 -13v-128zM841 -32q0 -100 -23 -180t-65 -133q-40 -49 -93 -86.5
t-129 -37.5l-20 63q25 -5 57 -5q19 0 45.5 17.5t44.5 53.5q19 35 31 119.5t12 208.5v554q0 40 -2 66.5t-9 35.5q-13 19 -61 19h-61v47q75 8 143 28t116 40l14 -7v-803z" />
    <glyph glyph-name="f_f_j.liga" unicode="ffj" horiz-adv-x="1491" 
d="M315 638v-469q0 -33 1.5 -58t6.5 -38q9 -20 53 -24l76 -4v-50q-45 2 -95.5 3.5t-112.5 1.5q-61 0 -111.5 -1.5t-95.5 -3.5v50l77 4q43 4 52 24q6 13 7.5 38t1.5 58v469l-115 -6v37l115 50v71q0 83 16.5 139.5t52.5 98.5l97 110q32 37 73 53t76 16q18 0 37 -5t38 -13v-128
l-20 -10q-23 21 -50.5 34t-59.5 13q-38 0 -62 -11t-37 -37.5t-17 -72.5t-4 -117v-141l216 7l-6 -48l133 41v71q0 83 17 139.5t53 98.5l96 110q33 37 74 53t76 16q18 0 36.5 -5t37.5 -13v-128l-20 -10q-23 21 -50 34t-59 13q-39 0 -62.5 -11t-36.5 -37.5t-17.5 -72.5
t-4.5 -117v-141l217 7l-12 -88h-205v-469q0 -33 1.5 -58t7.5 -38q9 -20 52 -24l77 -4v-50q-45 2 -95.5 3.5t-112.5 1.5q-61 0 -111.5 -1.5t-95.5 -3.5v50l76 4q43 4 53 24q5 13 6.5 38t1.5 58v469h-343zM1255 1139q37 0 65 -28t28 -65t-28 -64t-65 -27q-36 0 -63.5 27
t-27.5 64t27.5 65t63.5 28zM1325 -32q0 -100 -23 -180t-65 -133q-40 -49 -93.5 -86.5t-128.5 -37.5l-20 63q25 -5 57 -5q18 0 45 17.5t45 53.5q19 35 31 119.5t12 208.5v554q0 40 -2 66.5t-10 35.5q-12 19 -60 19h-61v47q74 8 142.5 28t115.5 40l15 -7v-803z" />
    <glyph glyph-name="f_k.liga" unicode="fk" horiz-adv-x="1466" 
d="M708 621l-8 384q0 13 -1.5 28.5t-5.5 30t-12.5 23t-21.5 8.5h-70v-34l-36 -10q-28 21 -57 34t-61 13q-38 0 -62 -11t-37 -37.5t-17 -72.5t-4 -117v-141l216 7l-11 -88h-205v-469q0 -33 1.5 -58t6.5 -38q9 -20 53 -24l86 -4v-50q-53 2 -104.5 3.5t-113.5 1.5
q-61 0 -111.5 -1.5t-95.5 -3.5v50l77 4q43 4 52 24q6 13 7.5 38t1.5 58v469l-115 -6v37l115 50v71q0 83 16.5 139.5t52.5 98.5l97 110q32 37 73 53t76 16q18 0 40.5 -5l58.5 -13v-44q25 4 49 8q29 7 61 14q21 4 42 7q46 12 91 30l15 -14v-757l121 98q67 52 132 115.5
t117 114.5h166v-49h-9q-48 0 -90 -25.5t-80 -53.5l-214 -167q25 -30 51 -57t55 -56l209 -207q26 -26 64.5 -53t76.5 -27v-38l-160 -48l-439 417v-228q0 -33 2 -58t6 -38q10 -20 54 -24l72 -4v-50q-43 2 -92.5 3.5t-111.5 1.5q-61 0 -111.5 -1.5t-95.5 -3.5v50l77 4
q43 4 52 24q6 13 7.5 38t1.5 58v452z" />
    <glyph glyph-name="f_f_k.liga" unicode="ffk" horiz-adv-x="1922" 
d="M1019 1060q-19 14 -41 25q-27 13 -59 13q-39 0 -62.5 -11t-36.5 -37.5t-17.5 -72.5t-4.5 -117v-141l217 7l-12 -88h-205v-469q0 -33 1.5 -58t7.5 -38q9 -20 52 -24l77 -4v-50q-45 2 -95.5 3.5t-112.5 1.5q-61 0 -111.5 -1.5t-95.5 -3.5v50l76 4q43 4 53 24q5 13 6.5 38
t1.5 58v469h-343v-469q0 -33 1.5 -58t6.5 -38q9 -20 53 -24l76 -4v-50q-45 2 -95.5 3.5t-112.5 1.5q-61 0 -111.5 -1.5t-95.5 -3.5v50l77 4q43 4 52 24q6 13 7.5 38t1.5 58v469l-115 -6v37l115 50v71q0 83 16.5 139.5t52.5 98.5l97 110q32 37 73 53t76 16q18 0 37 -5t38 -13
v-128l-20 -10q-23 21 -50.5 34t-59.5 13q-38 0 -62 -11t-37 -37.5t-17 -72.5t-4 -117v-141l216 7l-6 -48l133 41v71q0 83 17 139.5t53 98.5l96 110q33 37 74 53t76 16q18 0 36.5 -5t37.5 -13v-43q21 4 42 7q29 7 61 14q21 4 42 7q46 12 91 30l15 -14v-757l122 98
q66 52 131 115.5t117 114.5h166v-49h-9q-48 0 -90 -25.5t-80 -53.5l-214 -167q25 -30 51 -57t55 -56l209 -207q26 -26 64.5 -53t76.5 -27v-38l-160 -48l-439 417v-228q0 -33 2 -58t6 -38q11 -20 54 -24l72 -4v-50q-43 2 -92.5 3.5t-111.5 1.5q-61 0 -111.5 -1.5t-95.5 -3.5
v50l77 4q43 4 52 24q6 13 7.5 38t1.5 58v452l-8 384q0 13 -1.5 28.5t-5.5 30t-12.5 23t-21.5 8.5h-63v-34l-20 -10l-5 5z" />
    <glyph glyph-name="f_f_l.liga" unicode="ffl" horiz-adv-x="1500" 
d="M315 638v-469q0 -33 1.5 -58t6.5 -38q9 -20 53 -24l76 -4v-50q-45 2 -95.5 3.5t-112.5 1.5q-61 0 -111.5 -1.5t-95.5 -3.5v50l77 4q43 4 52 24q6 13 7.5 38t1.5 58v469l-115 -6v37l115 50v71q0 83 16.5 139.5t52.5 98.5l97 110q32 37 73 53t76 16q18 0 37 -5t38 -13v-128
l-20 -10q-23 21 -50.5 34t-59.5 13q-38 0 -62 -11t-37 -37.5t-17 -72.5t-4 -117v-141l216 7l-6 -46l133 39v71q0 83 17 139.5t53 98.5l96 110q33 37 74 53t76 16q18 0 40.5 -5l58.5 -13v-46q48 9 110 23.5t125 37.5l16 -17v-1018q0 -33 1.5 -58t5.5 -38q11 -20 54 -24l76 -4
v-50q-45 2 -95.5 3.5t-112.5 1.5q-61 0 -111.5 -1.5t-95.5 -3.5v50l77 4q43 4 53 24q5 13 6.5 38t1.5 58v836q0 13 -1.5 28.5t-6 30t-12.5 23t-21 8.5h-70v-34l-36 -10q-29 21 -57.5 34t-60.5 13q-39 0 -62.5 -11t-36.5 -37.5t-17.5 -72.5t-4.5 -117v-141l217 7l-12 -88
h-205v-469q0 -33 1.5 -58t7.5 -38q9 -20 52 -24l86 -4v-50q-52 2 -103.5 3.5t-113.5 1.5q-61 0 -111.5 -1.5t-95.5 -3.5v50l76 4q43 4 53 24q5 13 6.5 38t1.5 58v469h-343z" />
    <glyph glyph-name="f_t.liga" unicode="ft" horiz-adv-x="1052" 
d="M315 638v-469q0 -33 1.5 -58t6.5 -38q9 -20 53 -24l76 -4v-50q-45 2 -95.5 3.5t-112.5 1.5q-61 0 -111.5 -1.5t-95.5 -3.5v50l77 4q43 4 52 24q6 13 7.5 38t1.5 58v469l-115 -6v37l115 50v71q0 83 16.5 139.5t52.5 98.5l97 110q32 37 73 53t76 16q18 0 37 -5t38 -13v-128
l-20 -10q-23 21 -50.5 34t-59.5 13q-38 0 -62 -11t-37 -37.5t-17 -72.5t-4 -117v-141l216 7l-6 -45l145 43v112q0 32 -1.5 65t-5.5 65q45 14 82 32.5t58 30.5l20 -18q-8 -54 -12.5 -118.5t-4.5 -116.5v-63l227 10l-15 -90h-212v-434q0 -58 18.5 -86.5t72.5 -28.5q33 0 56 11
t42 21l21 -28l-79 -88q-12 -14 -47 -17t-61 -3q-33 0 -62.5 8.5t-51.5 29t-35 54.5t-13 84v482h-352z" />
    <glyph glyph-name="f_f_t.liga" unicode="fft" horiz-adv-x="1534" 
d="M315 638v-469q0 -33 1.5 -58t6.5 -38q9 -20 53 -24l76 -4v-50q-45 2 -95.5 3.5t-112.5 1.5q-61 0 -111.5 -1.5t-95.5 -3.5v50l77 4q43 4 52 24q6 13 7.5 38t1.5 58v469l-115 -6v37l115 50v71q0 83 16.5 139.5t52.5 98.5l97 110q32 37 73 53t76 16q18 0 37 -5t38 -13v-128
l-20 -10q-23 21 -50.5 34t-59.5 13q-38 0 -62 -11t-37 -37.5t-17 -72.5t-4 -117v-141l216 7l-6 -45l133 38v71q0 83 17 139.5t53 98.5l96 110q33 37 74 53t76 16q18 0 36.5 -5t37.5 -13v-128l-20 -10q-23 21 -50 34t-59 13q-39 0 -62.5 -11t-36.5 -37.5t-17.5 -72.5
t-4.5 -117v-141l217 7l-7 -45l146 43v112q0 32 -2 65t-6 65q45 14 82.5 32.5t58.5 30.5l20 -18q-8 -54 -13 -118.5t-5 -116.5v-63l227 10l-14 -90h-213v-434q0 -58 19 -86.5t73 -28.5q32 0 55 11t42 21l21 -28l-78 -88q-12 -14 -47 -17t-62 -3q-32 0 -61.5 8.5t-51.5 29
t-35.5 54.5t-13.5 84v482h-352v-469q0 -33 1.5 -58t7.5 -38q9 -20 52 -24l77 -4v-50q-45 2 -95.5 3.5t-112.5 1.5q-61 0 -111.5 -1.5t-95.5 -3.5v50l76 4q43 4 53 24q5 13 6.5 38t1.5 58v469h-343z" />
    <glyph glyph-name="uni0647.fina" unicode="&#x647;" horiz-adv-x="1077" arabic-form="final" 
d="M1077 71q0 -71 -76 -71q-159 0 -398 130q-78 -49 -157.5 -88.5t-164.5 -71.5q-17 -7 -33 -11.5t-31 -4.5q-11 0 -30.5 6t-49.5 21l-99 46q175 60 288 106.5t163 78.5q-92 86 -92 195q0 120 79 231q77 105 172 137q-28 24 -66 24q7 29 47 73q42 47 72 47q35 0 111 -95
q74 -93 123 -191q142 -296 142 -562zM991 183q0 39 -36 137q-23 64 -52 119t-64 103q-8 -74 -47 -173q-37 -91 -66 -128q53 -37 135 -63q69 -23 101 -23q29 0 29 28zM749 446q0 67 -28 137q-27 70 -51 70q-63 0 -137 -59q-72 -59 -72 -103q0 -43 63 -117q61 -72 101 -72
q28 0 75 55q49 55 49 89z" />
    <glyph glyph-name="uni0672.fina" unicode="&#x672;" horiz-adv-x="315" 
d="M316 7l-91 -61l-5 106q-3 94 -13 219t-28 284q-41 354 -94 599l113 116q49 -309 75 -568t26 -476v-82h17v-137zM270 1588q-3 -9 -7 -17q-2 -5 -5 -6q-5 -2 -6 6l-7 15q-24 32 -47 28q-25 -3 -48 -18q-22 -16 -21 -30q3 -28 38 -42q30 -14 65 -10q41 5 130 47l2 -4
q-18 -46 -43 -96q-109 -41 -167 -98q-29 -30 -54 -33q-20 -2 -53 15q-33 15 -49 13q-23 -3 -44 -36q-7 -11 -14 -23q-2 -5 -7 -5t-5 8q-1 5 0 10.5t2.5 14t4.5 16.5l6 15q44 79 89 85q18 3 50 -12q33 -17 44 -15q20 2 33 18l-1 4q-77 24 -83 82q-4 39 36 94q50 67 107 74
q62 8 68 -48q3 -18 -14 -52z" />
    <glyph glyph-name="uni0673.fina" unicode="&#x673;" horiz-adv-x="315" 
d="M316 7l-92 -61l-4 106q-3 94 -13 219t-28 284q-41 354 -94 599l113 116q49 -309 75 -568t26 -476v-82h17v-137zM312 -242q-3 -8 -7 -17q-2 -4 -5 -5q-5 -2 -6 5l-7 16q-24 32 -47 27q-25 -3 -48 -17q-22 -16 -21 -30q3 -28 38 -42q30 -15 65 -10q41 5 130 47l2 -4
q-18 -47 -43 -96q-109 -41 -167 -99q-29 -29 -54 -32q-20 -2 -53 14t-49 14q-23 -3 -44 -37q-7 -10 -14 -22q-2 -5 -7 -5t-5 7q-1 5 0 11t2.5 14.5t4.5 15.5l6 16q44 79 89 85q18 2 50 -12q33 -17 44 -15q20 2 33 18l-1 4q-77 24 -83 82q-4 39 36 93q50 68 107 75
q62 7 68 -48q3 -18 -14 -53z" />
    <glyph glyph-name="uni0675.fina" unicode="&#x675;" horiz-adv-x="598" 
d="M539 1399q-164 -20 -270 -126q4 33 16 62t30 45q-42 26 -59 53t-17 59q0 62 47 122q54 70 130 70q73 0 73 -52q0 -36 -19 -59q-47 27 -88 27q-38 0 -65 -25q-10 -10 -18.5 -21.5t-8.5 -25.5q0 -40 106 -82q44 24 86.5 37t90.5 17zM598 0h-283l-81 -54l-4 106
q-4 94 -14 219t-27 284q-41 354 -95 599l114 116q48 -309 74 -568t26 -476v-82h290v-144z" />
    <glyph glyph-name="uni0676.fina" unicode="&#x676;" horiz-adv-x="855" 
d="M789 800q-164 -20 -270 -126q4 32 16 61t30 46q-42 25 -59 52.5t-17 59.5q0 62 47 122q54 70 130 70q73 0 73 -53q0 -35 -19 -58q-47 27 -88 27q-38 0 -65 -25q-10 -10 -18.5 -21.5t-8.5 -26.5q0 -40 106 -82q44 25 86.5 38t90.5 17zM531 148q0 66 -42 153
q-48 97 -102 97q-58 0 -115 -63.5t-57 -129.5q0 -65 146 -65q112 0 170 8zM855 0h-220q-26 -284 -285 -542q-61 -60 -123 -60q-191 0 -191 19q0 8 45 26q122 48 294.5 237t172.5 275v45q-64 -15 -187 -15q-119 0 -165 33.5t-46 123.5q0 142 93 274q89 126 174 126
q79 0 150 -144q56 -115 68 -254h220v-144z" />
    <glyph glyph-name="uni0677.fina" unicode="&#x677;" horiz-adv-x="855" 
d="M789 800q-164 -20 -270 -126q4 32 16 61t30 46q-42 25 -59 52.5t-17 59.5q0 62 47 122q54 70 130 70q73 0 73 -53q0 -35 -19 -58q-47 27 -88 27q-38 0 -65 -25q-10 -10 -18.5 -21.5t-8.5 -26.5q0 -40 106 -82q44 25 86.5 38t90.5 17zM531 148q0 66 -42 153
q-48 97 -102 97q-58 0 -115 -63.5t-57 -129.5q0 -65 146 -65q112 0 170 8zM855 0h-220q-26 -284 -285 -542q-61 -60 -123 -60q-191 0 -191 19q0 8 45 26q122 48 294.5 237t172.5 275v45q-64 -15 -187 -15q-119 0 -165 33.5t-46 123.5q0 142 93 274q89 126 174 126
q79 0 150 -144q56 -115 68 -254h220v-144zM413 974q0 -107 -55 -216q-68 -131 -205 -183q-40 -16 -69 -16l41 89q68 15 136 62q65 43 76 73q-35 -14 -72 -14q-82 0 -82 82q0 77 60 155q58 75 111 75q59 0 59 -107zM358 881q3 46 -10.5 80t-34.5 34q-27 0 -52.5 -30
t-25.5 -61q0 -37 61 -37q35 0 62 14z" />
    <glyph glyph-name="uni0678.init" unicode="&#x678;" horiz-adv-x="773" 
d="M599 58q0 -58 -75 -58h-542q-55 0 -55 45v52q0 47 55 47h510q12 0 12 14q0 18 -53 132q-61 132 -130 246l115 117q31 -38 96 -226q67 -198 67 -272v-97zM713 884q-164 -20 -270 -126q4 33 16.5 61.5t29.5 45.5q-42 25 -58.5 52.5t-16.5 59.5q0 62 47 122q54 70 129 70
q74 0 74 -52q0 -36 -19 -59q-47 27 -88 27q-38 0 -65 -25q-10 -10 -19 -21.5t-9 -26.5q0 -40 106 -82q45 25 87.5 38t90.5 17z" />
    <glyph glyph-name="uni0678.medi" unicode="&#x678;" horiz-adv-x="771" 
d="M713 884q-164 -20 -270 -126q4 33 16.5 61.5t29.5 45.5q-42 25 -58.5 52.5t-16.5 59.5q0 62 47 122q54 70 129 70q74 0 74 -52q0 -36 -19 -59q-47 27 -88 27q-38 0 -65 -25q-10 -10 -19 -21.5t-9 -26.5q0 -40 106 -82q45 25 87.5 38t90.5 17zM492 144q12 0 12 14
q0 18 -53 132q-61 132 -130 246l115 117q31 -38 96 -226q67 -198 67 -272v-11h173v-144h-790q-55 0 -55 45v52q0 47 55 47h510z" />
    <glyph glyph-name="uni0678.fina" unicode="&#x678;" horiz-adv-x="1470" 
d="M1415 747q-164 -19 -270 -126q4 33 16 62t30 46q-42 25 -59 52t-17 59q0 62 48 122q53 70 129 70q74 0 74 -52q0 -36 -19 -59q-48 27 -89 27q-38 0 -65 -25q-9 -9 -18 -21t-9 -26q0 -40 106 -82q44 24 86.5 37t91.5 17zM1471 0h-222q0 82 -65 234q-78 181 -163 181
q-86 0 -194 -79q-101 -74 -101 -120q0 -32 48 -54l129 -61q144 -67 144 -129q0 -67 -153 -157q-300 -179 -523 -179q-119 0 -196 63q-91 75 -91 217q0 131 77 295q65 140 83 140q6 0 6 -8q0 17 -40 -100t-40 -219q0 -125 57 -181q63 -63 217 -63q149 0 318 65q154 58 154 91
q0 21 -43 40l-167 73q-66 30 -66 109q0 104 155 248.5t267 144.5q100 0 161 -195q31 -103 42 -212h206v-144z" />
    <glyph glyph-name="uni067C.init" unicode="&#x67c;" horiz-adv-x="769" 
d="M433 -172q-10 66 -47 172q-170 -102 -170 -144q0 -18 33 -32q30 -13 66 -13q74 0 118 17zM635 933l-120 -121l-121 121l121 119zM610 144q13 0 13 14q0 18 -54 132q-61 132 -129 246l114 117q32 -38 96 -226q68 -198 68 -272v-97q0 -58 -76 -58h-186l12 -64
q15 -91 15 -122v-52q0 -10 -40 -21q-49 -12 -125 -12q-64 0 -106 22.5t-42 55.5q0 94 131 193h-319q-55 0 -55 45v52q0 47 55 47h628zM368 933l-120 -121l-121 121l121 119z" />
    <glyph glyph-name="uni067C.medi" unicode="&#x67c;" horiz-adv-x="717" 
d="M635 933l-120 -121l-121 121l121 119zM368 933l-120 -121l-121 121l121 119zM433 -172q-10 66 -47 172q-170 -102 -170 -144q0 -18 33 -32q30 -13 66 -13q74 0 118 17zM610 144q13 0 13 14q0 18 -54 132q-61 132 -129 246l114 117q32 -38 96 -226q68 -198 68 -272v-97
q0 -58 -76 -58h-186l12 -64q15 -91 15 -122v-52q0 -10 -40 -21q-49 -12 -125 -12q-64 0 -106 22.5t-42 55.5q0 94 131 193h-319q-55 0 -55 45v52q0 47 55 47h628z" />
    <glyph glyph-name="uni067C.fina" unicode="&#x67c;" horiz-adv-x="1324" 
d="M1060 933l-121 -121l-120 121l120 119zM793 933l-121 -121l-120 121l120 119zM820 -172q-9 66 -46 172q-170 -102 -170 -144q0 -18 32 -32q31 -13 67 -13q73 0 117 17zM1216 144q13 0 13 14q0 18 -53 132q-61 132 -129 246l113 117q32 -38 97 -226q67 -198 67 -272v-97
q0 -58 -76 -58h-404l12 -64q15 -91 15 -122v-52q0 -10 -40 -21q-49 -12 -125 -12q-64 0 -106 22.5t-42 55.5q0 94 131 193h-281q-314 0 -314 243q0 142 110 263q38 42 94 83q48 35 57 35q8 0 8 -10q0 -2 -43 -47q-122 -132 -122 -255q0 -99 73 -137q56 -31 137 -31h808z" />
    <glyph glyph-name="uni067D.init" unicode="&#x67d;" horiz-adv-x="769" 
d="M381 812l-121 121l121 120l120 -120zM515 1041l-121 120l121 121l120 -121zM248 1041l-121 120l121 121l120 -121zM718 58q0 -58 -76 -58h-660q-55 0 -55 45v52q0 47 55 47h628q13 0 13 14q0 18 -54 132q-61 132 -129 246l114 117q32 -38 96 -226q68 -198 68 -272v-97z
" />
    <glyph glyph-name="uni067D.medi" unicode="&#x67d;" horiz-adv-x="717" 
d="M381 812l-121 121l121 120l120 -120zM515 1041l-121 120l121 121l120 -121zM248 1041l-121 120l121 121l120 -121zM718 58q0 -58 -76 -58h-660q-55 0 -55 45v52q0 47 55 47h628q13 0 13 14q0 18 -54 132q-61 132 -129 246l114 117q32 -38 96 -226q68 -198 68 -272v-97z
" />
    <glyph glyph-name="uni067D.fina" unicode="&#x67d;" horiz-adv-x="1324" 
d="M806 812l-120 121l120 120l121 -120zM939 1041l-120 120l120 121l121 -121zM672 1041l-120 120l120 121l121 -121zM1324 58q0 -58 -76 -58h-840q-314 0 -314 243q0 142 110 263q38 42 94 83q48 35 57 35q8 0 8 -10q0 -2 -43 -47q-122 -132 -122 -255q0 -99 73 -137
q56 -31 137 -31h808q13 0 13 14q0 18 -53 132q-61 132 -129 246l113 117q32 -38 97 -226q67 -198 67 -272v-97z" />
    <glyph glyph-name="uni0681.init" unicode="&#x681;" horiz-adv-x="1077" 
d="M1015 122q-12 8 -90 18q-44 5 -84.5 7.5t-79.5 2.5q-98 0 -195 -6.5t-191 -22.5t-182.5 -41t-167.5 -62q-39 -18 -51 -18q-17 0 -17 19v104q0 13 8 18q75 37 156 64t172 46t193 29.5t216 13.5q-6 4 -26 20q-22 17 -59 48q-84 67 -123 107q-80 80 -151 80q-73 0 -144 -84
q-12 -13 -15 -13q-6 0 -6 11q0 36 50 127q64 113 139 113q81 0 253 -165q68 -64 120.5 -108.5t89.5 -70.5q82 -56 185 -92v-145zM513 958q-164 -20 -270 -126q4 32 16 61t30 46q-42 25 -58.5 52.5t-16.5 58.5q0 62 47 122q53 71 129 71q74 0 74 -53q0 -36 -19 -59
q-47 28 -88 28q-38 0 -66 -26q-9 -9 -18 -20.5t-9 -26.5q0 -40 106 -82q44 24 86.5 37t91.5 18z" />
    <glyph glyph-name="uni0681.medi" unicode="&#x681;" horiz-adv-x="1014" 
d="M1015 122q-12 8 -90 18q-44 5 -84.5 7.5t-79.5 2.5q-98 0 -195 -6.5t-191 -22.5t-182.5 -41t-167.5 -62q-39 -18 -51 -18q-17 0 -17 19v104q0 13 8 18q75 37 156 64t172 46t193 29.5t216 13.5q-6 4 -26 20q-22 17 -59 48q-84 67 -123 107q-80 80 -151 80q-73 0 -144 -84
q-12 -13 -15 -13q-6 0 -6 11q0 36 50 127q64 113 139 113q81 0 253 -165q68 -64 120.5 -108.5t89.5 -70.5q82 -56 185 -92v-145zM513 958q-164 -20 -270 -126q4 32 16 61t30 46q-42 25 -58.5 52.5t-16.5 58.5q0 62 47 122q53 71 129 71q74 0 74 -53q0 -36 -19 -59
q-47 28 -88 28q-38 0 -66 -26q-9 -9 -18 -20.5t-9 -26.5q0 -40 106 -82q44 24 86.5 37t91.5 18z" />
    <glyph glyph-name="uni0681.fina" unicode="&#x681;" horiz-adv-x="1281" 
d="M1281 111q-12 9 -89 18q-87 11 -165 11q-378 0 -604 -94q-247 -102 -247 -294q0 -102 73 -229q68 -121 72 -117q0 -8 -6 -8q-10 0 -35 25q-207 207 -207 370q0 206 237 343q208 119 661 148q-13 6 -87 67q-83 67 -124 107q-79 80 -151 80q-73 0 -144 -84q-10 -12 -15 -12
q-7 0 -7 10q0 37 52 127q64 114 138 114q80 0 254 -165q134 -128 208 -180q80 -56 186 -91v-146zM796 958q-164 -20 -270 -126q4 32 16.5 61t29.5 46q-42 25 -58.5 52.5t-16.5 58.5q0 62 47 122q54 71 129 71q74 0 74 -53q0 -36 -19 -59q-47 28 -88 28q-38 0 -66 -26
q-9 -9 -18 -20.5t-9 -26.5q0 -40 106 -82q44 24 87 37t91 18z" />
    <glyph glyph-name="uni0682.init" unicode="&#x682;" horiz-adv-x="1077" 
d="M1015 122q-12 8 -90 18q-44 5 -84.5 7.5t-79.5 2.5q-98 0 -195 -6.5t-191 -22.5t-182.5 -41t-167.5 -62q-39 -18 -51 -18q-17 0 -17 19v104q0 13 8 18q75 37 156 64t172 46t193 29.5t216 13.5q-6 4 -26 20q-22 17 -59 48q-84 67 -123 107q-80 80 -151 80q-73 0 -144 -84
q-12 -13 -15 -13q-6 0 -6 11q0 36 50 127q64 113 139 113q81 0 253 -165q68 -64 120.5 -108.5t89.5 -70.5q82 -56 185 -92v-145zM488 1279l-121 -119l-120 119l120 121zM488 1035l-121 -120l-120 120l120 120z" />
    <glyph glyph-name="uni0682.medi" unicode="&#x682;" horiz-adv-x="1014" 
d="M1015 122q-12 8 -90 18q-44 5 -84.5 7.5t-79.5 2.5q-98 0 -195 -6.5t-191 -22.5t-182.5 -41t-167.5 -62q-39 -18 -51 -18q-17 0 -17 19v104q0 13 8 18q75 37 156 64t172 46t193 29.5t216 13.5q-6 4 -26 20q-22 17 -59 48q-84 67 -123 107q-80 80 -151 80q-73 0 -144 -84
q-12 -13 -15 -13q-6 0 -6 11q0 36 50 127q64 113 139 113q81 0 253 -165q68 -64 120.5 -108.5t89.5 -70.5q82 -56 185 -92v-145zM488 1279l-121 -119l-120 119l120 121zM488 1035l-121 -120l-120 120l120 120z" />
    <glyph glyph-name="uni0682.fina" unicode="&#x682;" horiz-adv-x="1281" 
d="M1281 111q-12 9 -89 18q-87 11 -165 11q-378 0 -604 -94q-247 -102 -247 -294q0 -102 73 -229q68 -121 72 -117q0 -8 -6 -8q-10 0 -35 25q-207 207 -207 370q0 206 237 343q208 119 661 148q-13 6 -87 67q-83 67 -124 107q-79 80 -151 80q-73 0 -144 -84q-10 -12 -15 -12
q-7 0 -7 10q0 37 52 127q64 114 138 114q80 0 254 -165q134 -128 208 -180q80 -56 186 -91v-146zM775 1279l-121 -119l-121 119l121 121zM775 1035l-121 -120l-121 120l121 120z" />
    <glyph glyph-name="uni0685.init" unicode="&#x685;" horiz-adv-x="1077" 
d="M1015 122q-12 8 -90 18q-44 5 -84.5 7.5t-79.5 2.5q-98 0 -195 -6.5t-191 -22.5t-182.5 -41t-167.5 -62q-39 -18 -51 -18q-17 0 -17 19v104q0 13 8 18q75 37 156 64t172 46t193 29.5t216 13.5q-6 4 -26 20q-22 17 -59 48q-84 67 -123 107q-80 80 -151 80q-73 0 -144 -84
q-12 -13 -15 -13q-6 0 -6 11q0 36 50 127q64 113 139 113q81 0 253 -165q68 -64 120.5 -108.5t89.5 -70.5q82 -56 185 -92v-145zM486 1255l-121 -121l-120 121l120 121zM619 1027l-121 -121l-119 121l119 120zM352 1027l-121 -121l-119 121l119 120z" />
    <glyph glyph-name="uni0685.medi" unicode="&#x685;" horiz-adv-x="1014" 
d="M1015 122q-12 8 -90 18q-44 5 -84.5 7.5t-79.5 2.5q-98 0 -195 -6.5t-191 -22.5t-182.5 -41t-167.5 -62q-39 -18 -51 -18q-17 0 -17 19v104q0 13 8 18q75 37 156 64t172 46t193 29.5t216 13.5q-6 4 -26 20q-22 17 -59 48q-84 67 -123 107q-80 80 -151 80q-73 0 -144 -84
q-12 -13 -15 -13q-6 0 -6 11q0 36 50 127q64 113 139 113q81 0 253 -165q68 -64 120.5 -108.5t89.5 -70.5q82 -56 185 -92v-145zM486 1255l-121 -121l-120 121l120 121zM619 1027l-121 -121l-119 121l119 120zM352 1027l-121 -121l-119 121l119 120z" />
    <glyph glyph-name="uni0685.fina" unicode="&#x685;" horiz-adv-x="1281" 
d="M1281 111q-12 9 -89 18q-87 11 -165 11q-378 0 -604 -94q-247 -102 -247 -294q0 -102 73 -229q68 -121 72 -117q0 -8 -6 -8q-10 0 -35 25q-207 207 -207 370q0 206 237 343q208 119 661 148q-13 6 -87 67q-83 67 -124 107q-79 80 -151 80q-73 0 -144 -84q-10 -12 -15 -12
q-7 0 -7 10q0 37 52 127q64 114 138 114q80 0 254 -165q134 -128 208 -180q80 -56 186 -91v-146zM769 1255l-121 -121l-120 121l120 121zM903 1027l-121 -121l-120 121l120 120zM635 1027l-120 -121l-120 121l120 120z" />
    <glyph glyph-name="uni0689.fina" unicode="&#x689;" horiz-adv-x="873" 
d="M561 114q166 7 217 26q-77 232 -374 575l74 138q196 -225 308 -453q87 -178 87 -266v-80q0 -68 -278 -83q5 -23 9 -46q15 -90 15 -122v-51q0 -11 -40 -21q-50 -13 -125 -13q-65 0 -107 22.5t-42 55.5q0 83 101 169h-17q-163 0 -193 8q-102 25 -102 134q0 49 12 92
q9 40 18 40q7 -8 7 -26q0 -35 23 -63q37 -41 160 -41q128 0 222 3zM529 -33q-22 -1 -45 -1q-132 -84 -132 -121q0 -17 32 -31q31 -14 66 -14q74 0 118 17q-8 59 -39 150z" />
    <glyph glyph-name="uni068A.fina" unicode="&#x68a;" horiz-adv-x="873" 
d="M873 54q0 -89 -484 -89q-163 0 -193 8q-102 25 -102 134q0 49 12 92q9 40 18 40q7 -8 7 -26q0 -35 23 -63q37 -41 160 -41q381 0 464 31q-77 232 -374 575l74 138q196 -225 308 -453q87 -178 87 -266v-80zM626 -310l-121 -121l-121 121l121 121z" />
    <glyph glyph-name="uni068B.fina" unicode="&#x68b;" horiz-adv-x="873" 
d="M873 54q0 -89 -484 -89q-163 0 -193 8q-102 25 -102 134q0 49 12 92q9 40 18 40q7 -8 7 -26q0 -35 23 -63q37 -41 160 -41q381 0 464 31q-77 232 -374 575l74 138q196 -225 308 -453q87 -178 87 -266v-80zM312 1455q8 -60 13.5 -112.5t5.5 -87.5q0 -27 -1.5 -47.5
t-4.5 -38.5l2 -1q18 34 39 59.5t42.5 43.5t42 27t37.5 9q30 0 50 -16t32.5 -39.5t17.5 -50.5t5 -48q0 -47 -21 -80.5t-54 -51.5q-50 -25 -102 -37t-95 -12q-59 0 -93 23t-67 70q24 -2 45 -2h44q11 15 18 31t7 35q0 33 -6.5 100.5t-22.5 166.5zM470 1212q-20 0 -42 -11
t-44 -31t-43.5 -48t-41.5 -60q37 0 76.5 5t74.5 14.5t62.5 21.5t39.5 27q-8 40 -31 61t-51 21zM626 -310l-121 -121l-121 121l121 121z" />
    <glyph glyph-name="uni068F.fina" unicode="&#x68f;" horiz-adv-x="873" 
d="M873 54q0 -89 -484 -89q-163 0 -193 8q-102 25 -102 134q0 49 12 92q9 40 18 40q7 -8 7 -26q0 -35 23 -63q37 -41 160 -41q381 0 464 31q-77 232 -374 575l74 138q196 -225 308 -453q87 -178 87 -266v-80zM425 937l-120 121l120 121l121 -121zM559 1166l-120 120l120 121
l121 -121zM292 1166l-120 120l120 121l121 -121z" />
    <glyph glyph-name="uni0690.fina" unicode="&#x690;" horiz-adv-x="873" 
d="M873 54q0 -89 -484 -89q-163 0 -193 8q-102 25 -102 134q0 49 12 92q9 40 18 40q7 -8 7 -26q0 -35 23 -63q37 -41 160 -41q381 0 464 31q-77 232 -374 575l74 138q196 -225 308 -453q87 -178 87 -266v-80zM676 1303l-120 -121l-120 121l120 119zM409 1303l-121 -121
l-119 121l119 119zM680 1058l-121 -121l-120 121l120 119zM413 1058l-121 -121l-120 121l120 119z" />
    <glyph glyph-name="uni0692.fina" unicode="&#x692;" horiz-adv-x="478" 
d="M478 56q0 -294 -185 -570q-60 -88 -139 -88q-118 0 -118 16q0 7 68 65q91 75 195 248q113 189 113 267q0 41 -72 159q-69 114 -113 155l91 138q160 -235 160 -390zM221 614l-207 276h58l201 -170l200 170h58l-207 -276h-103z" />
    <glyph glyph-name="uni0693.fina" unicode="&#x693;" horiz-adv-x="478" 
d="M293 -554q-16 -14 -34 -24q-94 -70 -93 -101q1 -18 34 -31q32 -12 67 -10q74 3 117 21q-13 66 -54 170q-20 -12 -37 -25zM172 -602h-18q-118 0 -118 16q0 7 68 65q91 75 195 223q113 214 113 292q0 41 -72 159q-70 114 -113 155l91 138q160 -235 160 -390
q0 -294 -85 -477q-5 -11 -10 -21q19 -72 34 -153q14 -90 14 -122v-52q0 -10 -40 -21q-49 -12 -125 -12q-64 0 -106 22.5t-42 55.5q0 60 54 122z" />
    <glyph glyph-name="uni0694.fina" unicode="&#x694;" horiz-adv-x="690" 
d="M626 -640l-121 -121l-119 121l119 120zM690 0h-183q-15 -264 -182 -514q-60 -88 -139 -88q-118 0 -118 16q0 7 68 65q91 75 195 248q113 189 113 267q0 41 -72 159q-70 114 -113 155l91 138q118 -173 148 -302h192v-144z" />
    <glyph glyph-name="uni0695.fina" unicode="&#x695;" horiz-adv-x="478" 
d="M478 56q0 -294 -185 -570q-60 -88 -139 -88q-118 0 -118 16q0 7 68 65q91 75 195 248q113 189 113 267q0 41 -72 159q-69 114 -113 155l91 138q160 -235 160 -390zM221 -974l-207 277h58l201 -170l200 170h58l-207 -277h-103z" />
    <glyph glyph-name="uni0696.fina" unicode="&#x696;" horiz-adv-x="690" 
d="M626 -640l-120 -121l-120 121l120 120zM305 -38l-121 -121l-120 121l120 120zM691 0h-183q-16 -264 -183 -514q-60 -88 -139 -88q-118 0 -118 16q0 7 69 65q90 75 194 248q114 189 114 267q0 41 -73 159q-69 114 -112 155l90 138q118 -173 148 -302h193v-144z" />
    <glyph glyph-name="uni0697.fina" unicode="&#x697;" horiz-adv-x="521" 
d="M566 704l-121 -121l-121 121l121 120zM299 704l-121 -121l-121 121l121 120zM361 446q53 -79 85 -140.5t48 -109t21.5 -82t5.5 -58.5q0 -154 -50 -298.5t-136 -271.5q-18 -27 -33.5 -44t-31 -27t-33 -13.5t-40.5 -3.5q-55 0 -86.5 5t-31.5 11q0 3 2.5 6.5t10 10.5
t20.5 18t35 30q48 39 98.5 106t95.5 142q24 40 45 80t36.5 75t24 64t8.5 48q0 14 -10 39.5t-26 56.5t-36.5 64t-41 63t-39.5 54t-32 37z" />
    <glyph glyph-name="uni0699.fina" unicode="&#x699;" horiz-adv-x="521" 
d="M563 948l-121 -121l-121 121l121 120zM296 948l-121 -121l-121 121l121 120zM361 446q54 -79 85.5 -140.5t47.5 -109t21.5 -82t5.5 -58.5q0 -154 -50 -298.5t-136 -271.5q-18 -27 -33.5 -44t-31 -27t-33 -13.5t-40.5 -3.5q-55 0 -86.5 5t-31.5 11q0 3 2.5 6.5t10 10.5
t20.5 18t36 30q47 39 97.5 106t95.5 142q24 40 45 80t36.5 75t24.5 64t9 48q0 14 -10 39.5t-26.5 56.5t-37 64t-41 63t-39.5 54t-31 37zM566 704l-121 -121l-121 121l121 120zM299 704l-121 -121l-121 121l121 120z" />
    <glyph glyph-name="uni069A.init" unicode="&#x69a;" horiz-adv-x="1324" 
d="M-18 0q-55 0 -55 45v52q0 47 55 47q48 0 112 20.5t132.5 60t134 96t118.5 130.5q12 18 17 18q2 0 2 -5t-1.5 -14t-4.5 -34q-7 -47 -7 -116q0 -76 31.5 -114t73.5 -38q33 0 67 22.5t61 68.5q45 76 64 178q10 61 21 61q8 0 11 -43q6 -100 81 -190q86 -105 207 -105
q56 0 76 20q-23 143 -160 361l111 122q144 -297 144 -565q0 -34 -49 -63q-48 -30 -111 -30q-188 0 -299 175q-57 -89 -128.5 -132t-136.5 -43q-72 0 -112.5 57t-45.5 151q-56 -53 -115.5 -90.5t-114.5 -60t-102.5 -32.5t-76.5 -10zM835 852l-119 -121l-121 121l121 119z
M837 -310l-120 -121l-121 121l121 121z" />
    <glyph glyph-name="uni069A.medi" unicode="&#x69a;" horiz-adv-x="1272" 
d="M-18 0q-55 0 -55 45v52q0 47 55 47q48 0 112 20.5t132.5 60t134 96t118.5 130.5q12 18 17 18q2 0 2 -5t-1.5 -14t-4.5 -34q-7 -47 -7 -116q0 -76 31.5 -114t73.5 -38q33 0 67 22.5t61 68.5q45 76 64 178q10 61 21 61q8 0 11 -43q6 -100 81 -190q86 -105 207 -105
q56 0 76 20q-23 143 -160 361l111 122q144 -297 144 -565q0 -34 -49 -63q-48 -30 -111 -30q-188 0 -299 175q-57 -89 -128.5 -132t-136.5 -43q-72 0 -112.5 57t-45.5 151q-56 -53 -115.5 -90.5t-114.5 -60t-102.5 -32.5t-76.5 -10zM825 852l-120 -121l-121 121l121 119z
M837 -310l-120 -121l-121 121l121 121z" />
    <glyph glyph-name="uni069A.fina" unicode="&#x69a;" horiz-adv-x="1833" 
d="M951 175q-122 -123 -258 -184t-264 -61q-71 0 -132 21t-106 62t-71 100t-26 135q0 117 77 231q58 86 145 157q70 57 83 57q9 0 9 -9q0 1 -32 -34q-166 -188 -166 -323q0 -59 18 -104t51.5 -76t79 -47t101.5 -16q76 0 156.5 25t153.5 75q52 35 106.5 81t102.5 104
q16 19 31 40l29 42q12 18 17 18q2 0 2 -5t-1.5 -14t-4.5 -34q-7 -47 -7 -116q0 -76 32 -114t74 -38q32 0 66.5 22.5t60.5 68.5q45 76 64 178q10 61 21 61q8 0 12 -43q5 -100 80 -190q87 -105 208 -105q55 0 75 20q-23 143 -160 361l111 122q144 -297 144 -565q0 -34 -48 -63
q-49 -30 -112 -30q-188 0 -298 175q-58 -89 -129.5 -132t-135.5 -43q-67 0 -108.5 47.5t-50.5 142.5zM1409 852l-121 -121l-120 121l120 119zM1404 -310l-121 -121l-121 121l121 121z" />
    <glyph glyph-name="uni069B.init" unicode="&#x69b;" horiz-adv-x="1324" 
d="M-18 0q-55 0 -55 45v52q0 47 55 47q48 0 112 20.5t132.5 60t134 96t118.5 130.5q12 18 17 18q2 0 2 -5t-1.5 -14t-4.5 -34q-7 -47 -7 -116q0 -76 31.5 -114t73.5 -38q33 0 67 22.5t61 68.5q45 76 64 178q10 61 21 61q8 0 11 -43q6 -100 81 -190q86 -105 207 -105
q56 0 76 20q-23 143 -160 361l111 122q144 -297 144 -565q0 -34 -49 -63q-48 -30 -111 -30q-188 0 -299 175q-57 -89 -128.5 -132t-136.5 -43q-72 0 -112.5 57t-45.5 151q-56 -53 -115.5 -90.5t-114.5 -60t-102.5 -32.5t-76.5 -10zM567 -353l-119 121l119 118l121 -118z
M875 -353l-118 121l118 118l120 -118zM722 -561l-118 119l118 119l121 -119z" />
    <glyph glyph-name="uni069B.medi" unicode="&#x69b;" horiz-adv-x="1272" 
d="M-18 0q-55 0 -55 45v52q0 47 55 47q48 0 112 20.5t132.5 60t134 96t118.5 130.5q12 18 17 18q2 0 2 -5t-1.5 -14t-4.5 -34q-7 -47 -7 -116q0 -76 31.5 -114t73.5 -38q33 0 67 22.5t61 68.5q45 76 64 178q10 61 21 61q8 0 11 -43q6 -100 81 -190q86 -105 207 -105
q56 0 76 20q-23 143 -160 361l111 122q144 -297 144 -565q0 -34 -49 -63q-48 -30 -111 -30q-188 0 -299 175q-57 -89 -128.5 -132t-136.5 -43q-72 0 -112.5 57t-45.5 151q-56 -53 -115.5 -90.5t-114.5 -60t-102.5 -32.5t-76.5 -10zM567 -353l-119 121l119 118l121 -118z
M875 -353l-118 121l118 118l120 -118zM722 -561l-118 119l118 119l121 -119z" />
    <glyph glyph-name="uni069B.fina" unicode="&#x69b;" horiz-adv-x="1833" 
d="M951 175q-122 -123 -258 -184t-264 -61q-71 0 -132 21t-106 62t-71 100t-26 135q0 117 77 231q58 86 145 157q70 57 83 57q9 0 9 -9q0 1 -32 -34q-166 -188 -166 -323q0 -59 18 -104t51.5 -76t79 -47t101.5 -16q76 0 156.5 25t153.5 75q52 35 106.5 81t102.5 104
q16 19 31 40l29 42q12 18 17 18q2 0 2 -5t-1.5 -14t-4.5 -34q-7 -47 -7 -116q0 -76 32 -114t74 -38q32 0 66.5 22.5t60.5 68.5q45 76 64 178q10 61 21 61q8 0 12 -43q5 -100 80 -190q87 -105 208 -105q55 0 75 20q-23 143 -160 361l111 122q144 -297 144 -565q0 -34 -48 -63
q-49 -30 -112 -30q-188 0 -298 175q-58 -89 -129.5 -132t-135.5 -43q-67 0 -108.5 47.5t-50.5 142.5zM1134 -353l-119 121l119 118l121 -118zM1442 -353l-119 121l119 118l120 -118zM1288 -561l-117 119l117 119l121 -119z" />
    <glyph glyph-name="uni069C.init" unicode="&#x69c;" horiz-adv-x="1324" 
d="M-18 0q-55 0 -55 45v52q0 47 55 47q48 0 112 20.5t132.5 60t134 96t118.5 130.5q12 18 17 18q2 0 2 -5t-1.5 -14t-4.5 -34q-7 -47 -7 -116q0 -76 31.5 -114t73.5 -38q33 0 67 22.5t61 68.5q45 76 64 178q10 61 21 61q8 0 11 -43q6 -100 81 -190q86 -105 207 -105
q56 0 76 20q-23 143 -160 361l111 122q144 -297 144 -565q0 -34 -49 -63q-48 -30 -111 -30q-188 0 -299 175q-57 -89 -128.5 -132t-136.5 -43q-72 0 -112.5 57t-45.5 151q-56 -53 -115.5 -90.5t-114.5 -60t-102.5 -32.5t-76.5 -10zM991 853l-121 -121l-121 121l121 121z
M681 853l-121 -121l-120 121l120 121zM835 1062l-119 -121l-121 121l121 120zM567 -353l-119 121l119 118l121 -118zM875 -353l-118 121l118 118l120 -118zM722 -561l-118 119l118 119l121 -119z" />
    <glyph glyph-name="uni069C.medi" unicode="&#x69c;" horiz-adv-x="1272" 
d="M-18 0q-55 0 -55 45v52q0 47 55 47q48 0 112 20.5t132.5 60t134 96t118.5 130.5q12 18 17 18q2 0 2 -5t-1.5 -14t-4.5 -34q-7 -47 -7 -116q0 -76 31.5 -114t73.5 -38q33 0 67 22.5t61 68.5q45 76 64 178q10 61 21 61q8 0 11 -43q6 -100 81 -190q86 -105 207 -105
q56 0 76 20q-23 143 -160 361l111 122q144 -297 144 -565q0 -34 -49 -63q-48 -30 -111 -30q-188 0 -299 175q-57 -89 -128.5 -132t-136.5 -43q-72 0 -112.5 57t-45.5 151q-56 -53 -115.5 -90.5t-114.5 -60t-102.5 -32.5t-76.5 -10zM980 853l-120 -121l-121 121l121 121z
M670 853l-121 -121l-119 121l119 121zM825 1062l-120 -121l-121 121l121 120zM567 -353l-119 121l119 118l121 -118zM875 -353l-118 121l118 118l120 -118zM722 -561l-118 119l118 119l121 -119z" />
    <glyph glyph-name="uni069C.fina" unicode="&#x69c;" horiz-adv-x="1833" 
d="M951 175q-122 -123 -258 -184t-264 -61q-71 0 -132 21t-106 62t-71 100t-26 135q0 117 77 231q58 86 145 157q70 57 83 57q9 0 9 -9q0 1 -32 -34q-166 -188 -166 -323q0 -59 18 -104t51.5 -76t79 -47t101.5 -16q76 0 156.5 25t153.5 75q52 35 106.5 81t102.5 104
q16 19 31 40l29 42q12 18 17 18q2 0 2 -5t-1.5 -14t-4.5 -34q-7 -47 -7 -116q0 -76 32 -114t74 -38q32 0 66.5 22.5t60.5 68.5q45 76 64 178q10 61 21 61q8 0 12 -43q5 -100 80 -190q87 -105 208 -105q55 0 75 20q-23 143 -160 361l111 122q144 -297 144 -565q0 -34 -48 -63
q-49 -30 -112 -30q-188 0 -298 175q-58 -89 -129.5 -132t-135.5 -43q-67 0 -108.5 47.5t-50.5 142.5zM1255 853l-121 -121l-121 121l121 121zM1564 853l-120 -121l-121 121l121 121zM1409 1062l-121 -121l-120 121l120 120zM1134 -353l-119 121l119 118l121 -118zM1442 -353
l-119 121l119 118l120 -118zM1288 -561l-117 119l117 119l121 -119z" />
    <glyph glyph-name="uni069D.init" unicode="&#x69d;" horiz-adv-x="1398" 
d="M-18 0q-55 0 -55 45v52q0 47 55 47q56 0 117.5 19t121.5 52t115 78.5t98 97.5l16.5 21t9.5 7t6 -6q0 -2 -3 -20.5t-3 -41.5q0 -88 49 -125q85 122 226 273q191 203 306 203q111 0 201 -160q94 -168 94 -402v-78q0 -44 -37 -60q-13 -5 -79 -17q-116 -20 -312 -20
q-307 0 -444 97q-38 -41 -107 -138q-7 -10 -14 -10q-6 0 -6 10q0 50 86 175q-18 17 -30.5 40t-17.5 40q-46 -45 -98 -79t-104.5 -56t-101.5 -33t-89 -11zM1251 175q0 72 -18 140t-54 127q-64 105 -138 105q-76 0 -197 -88.5t-287 -277.5q73 -60 347 -60q231 0 298 11
q49 10 49 43zM746 -395l-119 121l119 118l121 -118zM1054 -395l-119 121l119 118l120 -118z" />
    <glyph glyph-name="uni069D.medi" unicode="&#x69d;" horiz-adv-x="1335" 
d="M-18 0q-55 0 -55 45v52q0 47 55 47q56 0 117.5 19t121.5 52t115 78.5t98 97.5l16.5 21t9.5 7t6 -6q0 -2 -3 -20.5t-3 -41.5q0 -88 49 -125q85 122 226 273q191 203 306 203q111 0 201 -160q94 -168 94 -402v-78q0 -44 -37 -60q-13 -5 -79 -17q-116 -20 -312 -20
q-307 0 -444 97q-38 -41 -107 -138q-7 -10 -14 -10q-6 0 -6 10q0 50 86 175q-18 17 -30.5 40t-17.5 40q-46 -45 -98 -79t-104.5 -56t-101.5 -33t-89 -11zM1251 175q0 72 -18 140t-54 127q-64 105 -138 105q-76 0 -197 -88.5t-287 -277.5q73 -60 347 -60q231 0 298 11
q49 10 49 43zM746 -395l-119 121l119 118l121 -118zM1054 -395l-119 121l119 118l120 -118z" />
    <glyph glyph-name="uni069D.fina" unicode="&#x69d;" horiz-adv-x="1905" 
d="M946 168q-60 -60 -125 -104.5t-131 -74.5t-132 -44.5t-129 -14.5q-71 0 -132 21t-106 62t-71 100t-26 135q0 117 77 231q58 86 145 157q70 57 83 57q9 0 9 -9q0 1 -32 -34q-166 -188 -166 -323q0 -59 18 -104t51.5 -76t79 -47t101.5 -16q76 0 156.5 25t153.5 75
q43 29 87.5 65.5t88.5 81.5q14 15 27.5 29.5t26.5 30.5l18 21t11 7q4 0 6 -6q0 -2 -3 -20.5t-3 -41.5q0 -88 49 -125q84 122 226 273q190 203 306 203q110 0 201 -160q93 -168 93 -402v-78q0 -44 -36 -60q-13 -5 -79 -17q-116 -20 -312 -20q-307 0 -444 97
q-38 -41 -107 -138q-8 -10 -14 -10t-6 10q0 50 86 175q-15 17 -26.5 34.5t-19.5 34.5zM1819 175q0 72 -18 140t-53 127q-64 105 -138 105q-77 0 -198 -88.5t-287 -277.5q74 -60 347 -60q232 0 299 11q48 10 48 43zM1291 -395l-118 121l118 118l121 -118zM1600 -395l-119 121
l119 118l119 -118z" />
    <glyph glyph-name="uni069E.init" unicode="&#x69e;" horiz-adv-x="1398" 
d="M-18 0q-55 0 -55 45v52q0 47 55 47q56 0 117.5 19t121.5 52t115 78.5t98 97.5l16.5 21t9.5 7t6 -6q0 -2 -3 -20.5t-3 -41.5q0 -88 49 -125q85 122 226 273q191 203 306 203q111 0 201 -160q94 -168 94 -402v-78q0 -44 -37 -60q-13 -5 -79 -17q-116 -20 -312 -20
q-307 0 -444 97q-38 -41 -107 -138q-7 -10 -14 -10q-6 0 -6 10q0 50 86 175q-18 17 -30.5 40t-17.5 40q-46 -45 -98 -79t-104.5 -56t-101.5 -33t-89 -11zM1251 175q0 72 -18 140t-54 127q-64 105 -138 105q-76 0 -197 -88.5t-287 -277.5q73 -60 347 -60q231 0 298 11
q49 10 49 43zM877 998l-120 -119l-119 119l119 121zM1184 998l-119 -119l-119 119l119 121zM1032 1207l-121 -119l-118 119l118 120z" />
    <glyph glyph-name="uni069E.medi" unicode="&#x69e;" horiz-adv-x="1335" 
d="M-18 0q-55 0 -55 45v52q0 47 55 47q56 0 117.5 19t121.5 52t115 78.5t98 97.5l16.5 21t9.5 7t6 -6q0 -2 -3 -20.5t-3 -41.5q0 -88 49 -125q85 122 226 273q191 203 306 203q111 0 201 -160q94 -168 94 -402v-78q0 -44 -37 -60q-13 -5 -79 -17q-116 -20 -312 -20
q-307 0 -444 97q-38 -41 -107 -138q-7 -10 -14 -10q-6 0 -6 10q0 50 86 175q-18 17 -30.5 40t-17.5 40q-46 -45 -98 -79t-104.5 -56t-101.5 -33t-89 -11zM1251 175q0 72 -18 140t-54 127q-64 105 -138 105q-76 0 -197 -88.5t-287 -277.5q73 -60 347 -60q231 0 298 11
q49 10 49 43zM877 998l-120 -119l-119 119l119 121zM1184 998l-119 -119l-119 119l119 121zM1032 1207l-121 -119l-118 119l118 120z" />
    <glyph glyph-name="uni069E.fina" unicode="&#x69e;" horiz-adv-x="1905" 
d="M946 168q-60 -60 -125 -104.5t-131 -74.5t-132 -44.5t-129 -14.5q-71 0 -132 21t-106 62t-71 100t-26 135q0 117 77 231q58 86 145 157q70 57 83 57q9 0 9 -9q0 1 -32 -34q-166 -188 -166 -323q0 -59 18 -104t51.5 -76t79 -47t101.5 -16q76 0 156.5 25t153.5 75
q43 29 87.5 65.5t88.5 81.5q14 15 27.5 29.5t26.5 30.5l18 21t11 7q4 0 6 -6q0 -2 -3 -20.5t-3 -41.5q0 -88 49 -125q84 122 226 273q190 203 306 203q110 0 201 -160q93 -168 93 -402v-78q0 -44 -36 -60q-13 -5 -79 -17q-116 -20 -312 -20q-307 0 -444 97
q-38 -41 -107 -138q-8 -10 -14 -10t-6 10q0 50 86 175q-15 17 -26.5 34.5t-19.5 34.5zM1819 175q0 72 -18 140t-53 127q-64 105 -138 105q-77 0 -198 -88.5t-287 -277.5q74 -60 347 -60q232 0 299 11q48 10 48 43zM1444 998l-121 -119l-119 119l119 121zM1751 998l-120 -119
l-119 119l119 121zM1598 1207l-120 -119l-118 119l118 120z" />
    <glyph glyph-name="uni069F.init" unicode="&#x69f;" horiz-adv-x="1135" 
d="M1073 142q0 -77 -11 -101q-17 -41 -79 -41h-1001q-55 0 -55 45v52q0 47 55 47h156q158 0 158 230q0 433 -92 791l119 105q21 -90 39.5 -270t18.5 -291q0 -216 -21 -366q191 222 257 277q94 82 193 82q118 0 187 -135q76 -148 76 -425zM997 168q0 173 -58 268
q-59 111 -166 111q-155 10 -484 -403h687q21 0 21 24zM724 1013l-121 -118l-119 118l119 121zM989 1013l-120 -118l-119 118l119 121zM857 1223l-120 -119l-118 119l118 120z" />
    <glyph glyph-name="uni069F.medi" unicode="&#x69f;" horiz-adv-x="1072" 
d="M1073 142q0 -77 -11 -101q-17 -41 -79 -41h-1001q-55 0 -55 45v52q0 47 55 47h156q158 0 158 230q0 433 -92 791l119 105q21 -90 39.5 -270t18.5 -291q0 -216 -21 -366q191 222 257 277q94 82 193 82q118 0 187 -135q76 -148 76 -425zM997 168q0 173 -58 268
q-59 111 -166 111q-155 10 -484 -403h687q21 0 21 24zM713 1013l-121 -118l-118 118l118 121zM978 1013l-120 -118l-118 118l118 121zM847 1223l-121 -119l-118 119l118 120z" />
    <glyph glyph-name="uni069F.fina" unicode="&#x69f;" horiz-adv-x="1157" 
d="M1157 142q0 -77 -11 -101q-17 -41 -80 -41h-845q-74 0 -100 60q-27 68 -27 117q0 16 11 16q6 0 18 -12q37 -37 72 -37h28q157 0 157 230q0 433 -93 791l121 105q21 -90 39.5 -270t18.5 -291q0 -216 -21 -366q191 222 257 277q94 82 193 82q117 0 187 -135
q75 -148 75 -425zM1082 168q0 173 -58 268q-61 111 -166 111q-155 10 -484 -403h686q22 0 22 24zM807 1013l-121 -118l-119 118l119 121zM1072 1013l-120 -118l-119 118l119 121zM940 1223l-121 -119l-117 119l117 120z" />
    <glyph glyph-name="uni06A0.init" unicode="&#x6a0;" horiz-adv-x="985" 
d="M922 160q-78 6 -133 6q-153 0 -287.5 -19t-262.5 -53q-60 -16 -105.5 -33t-76.5 -30.5t-49.5 -22t-26.5 -8.5q-13 0 -18.5 3.5t-5.5 15.5v108q14 8 47 23.5t77 33.5t95.5 34.5t104.5 27.5q-84 113 -84 225q0 63 27.5 123.5t93.5 126.5q27 28 58 49t63 34.5t62.5 20.5
t57.5 7q53 0 98.5 -18t95.5 -64q78 -74 78 -102q0 -9 -7 -9q-2 0 -5.5 1.5t-12 5.5t-22.5 9t-37 13q-37 11 -81 15t-92 4q-24 0 -51.5 -3t-55.5 -9t-55 -16t-49 -26q-47 -33 -69 -54t-22 -38q0 -36 48 -106q62 -88 156 -145q58 8 125.5 14t144.5 6q111 0 176 -6v-144z
M513 1045l-121 -119l-119 119l119 121zM778 1045l-120 -119l-119 119l119 121zM647 1254l-121 -119l-118 119l118 120z" />
    <glyph glyph-name="uni06A0.medi" unicode="&#x6a0;" horiz-adv-x="1079" 
d="M-18 0q-55 0 -55 45v52q0 47 55 47q31 0 84.5 7.5t121.5 24.5t148 46t164 71q-64 53 -126 85.5t-115 32.5q-31 0 -51 -4l17 146q209 134 443 134q210 0 407 -134l-51 -156q-73 -10 -145 -47.5t-148 -81.5q90 -65 169.5 -94.5t152.5 -29.5h27v-125q0 -8 -7 -13.5t-19 -5.5
q-55 0 -107 12.5t-105.5 39t-112 65.5t-124.5 92q-108 -61 -206.5 -101t-180.5 -64t-144.5 -34t-91.5 -10zM914 494q-45 33 -106.5 54t-147.5 21q-195 0 -298 -72q33 -7 66.5 -22.5t67 -36t68 -44.5t68.5 -49q65 37 133 75t149 63v11zM629 950l-121 -118l-118 118l118 121z
M894 950l-120 -118l-118 118l118 121zM763 1160l-121 -119l-118 119l118 119z" />
    <glyph glyph-name="uni06A0.fina" unicode="&#x6a0;" horiz-adv-x="1291" 
d="M496 67q-320 -151 -320 -330q0 -102 73 -229q17 -32 31 -53.5t23 -34.5l13.5 -19.5t4.5 -9.5q0 -8 -6 -8q-10 0 -35 25q-207 207 -207 370q0 234 308 382l295 142q-61 48 -119 78.5t-109 30.5q-31 0 -51 -4l17 146q209 134 443 134q211 0 407 -134l-51 -156
q-73 -10 -145 -47.5t-148 -81.5q90 -65 172.5 -94.5t170.5 -29.5h27v-125q0 -8 -8 -13.5t-20 -5.5q-62 0 -117.5 12.5t-111.5 39t-114.5 65.5t-124.5 92zM1103 494q-45 33 -106.5 54t-147.5 21q-195 0 -298 -72q33 -7 66.5 -22.5t67.5 -36t68 -44.5t69 -49q64 37 132 75
t149 63v11zM838 950l-121 -118l-118 118l118 121zM1103 950l-120 -118l-118 118l118 121zM972 1160l-121 -119l-118 119l118 119z" />
    <glyph glyph-name="uni06A1.init" unicode="&#x6a1;" horiz-adv-x="780" 
d="M-18 0q-55 0 -55 45v52q0 47 55 47h600v5q-6 18 -29.5 33.5t-53.5 28t-61.5 23t-54.5 18.5q-42 16 -74.5 34t-54.5 41t-33.5 53.5t-11.5 71.5q0 57 25.5 114.5t70.5 111.5q39 45 83 72t79 27q47 0 83.5 -30t65.5 -86q54 -106 78 -234.5t24 -282.5v-43q0 -54 -22 -77.5
t-72 -23.5h-642zM425 632q-28 0 -52 -11.5t-42 -30t-28 -40.5t-10 -42q0 -31 19.5 -52.5t50.5 -38t69.5 -31t75 -29.5t67.5 -33.5t48 -43.5l4 1q-11 85 -32.5 150t-48.5 110t-58 68t-63 23z" />
    <glyph glyph-name="uni06A1.medi" unicode="&#x6a1;" horiz-adv-x="717" 
d="M-18 0q-55 0 -55 45v52q0 47 55 47h600v5q-6 18 -29.5 33.5t-53.5 28t-61.5 23t-54.5 18.5q-42 16 -74.5 34t-54.5 41t-33.5 53.5t-11.5 71.5q0 57 25.5 114.5t70.5 111.5q39 45 83 72t79 27q47 0 83.5 -30t65.5 -86q54 -106 78 -234.5t24 -282.5v-43q0 -54 -22 -77.5
t-72 -23.5h-642zM425 632q-28 0 -52 -11.5t-42 -30t-28 -40.5t-10 -42q0 -31 19.5 -52.5t50.5 -38t69.5 -31t75 -29.5t67.5 -33.5t48 -43.5l4 1q-11 85 -32.5 150t-48.5 110t-58 68t-63 23z" />
    <glyph glyph-name="uni06A1.fina" unicode="&#x6a1;" horiz-adv-x="1324" 
d="M408 0q-314 0 -314 243q0 141 110 263q19 21 43 41.5t51 41.5q48 35 57 35q8 0 8 -10q0 -1 -43 -47q-122 -132 -122 -255q0 -99 73 -137q57 -31 137 -31h780v5q-6 18 -29 33.5t-53 28t-61.5 23t-54.5 18.5q-42 16 -74.5 34t-55 41t-34 53.5t-11.5 71.5q0 57 26 114.5
t71 111.5q39 45 82.5 72t79.5 27q46 0 83 -30t65 -86q55 -106 78.5 -234.5t23.5 -282.5v-43q0 -54 -21.5 -77.5t-72.5 -23.5h-822zM1032 632q-29 0 -53 -11.5t-42 -30t-28 -40.5t-10 -42q0 -31 19.5 -52.5t50.5 -38t69.5 -31t75.5 -29.5t68 -33.5t47 -43.5l5 1
q-12 85 -33.5 150t-48.5 110t-58 68t-62 23z" />
    <glyph glyph-name="uni06A2.init" unicode="&#x6a2;" horiz-adv-x="780" 
d="M-18 0q-55 0 -55 45v52q0 47 55 47h600v5q-6 18 -29.5 33.5t-53.5 28t-61.5 23t-54.5 18.5q-42 16 -74.5 34t-54.5 41t-33.5 53.5t-11.5 71.5q0 57 25.5 114.5t70.5 111.5q39 45 83 72t79 27q47 0 83.5 -30t65.5 -86q54 -106 78 -234.5t24 -282.5v-43q0 -54 -22 -77.5
t-72 -23.5h-642zM425 632q-28 0 -52 -11.5t-42 -30t-28 -40.5t-10 -42q0 -31 19.5 -52.5t50.5 -38t69.5 -31t75 -29.5t67.5 -33.5t48 -43.5l4 1q-11 85 -32.5 150t-48.5 110t-58 68t-63 23zM583 -310l-121 -121l-121 121l121 121z" />
    <glyph glyph-name="uni06A2.medi" unicode="&#x6a2;" horiz-adv-x="717" 
d="M-18 0q-55 0 -55 45v52q0 47 55 47h600v5q-6 18 -29.5 33.5t-53.5 28t-61.5 23t-54.5 18.5q-42 16 -74.5 34t-54.5 41t-33.5 53.5t-11.5 71.5q0 57 25.5 114.5t70.5 111.5q39 45 83 72t79 27q47 0 83.5 -30t65.5 -86q54 -106 78 -234.5t24 -282.5v-43q0 -54 -22 -77.5
t-72 -23.5h-642zM425 632q-28 0 -52 -11.5t-42 -30t-28 -40.5t-10 -42q0 -31 19.5 -52.5t50.5 -38t69.5 -31t75 -29.5t67.5 -33.5t48 -43.5l4 1q-11 85 -32.5 150t-48.5 110t-58 68t-63 23zM583 -310l-121 -121l-121 121l121 121z" />
    <glyph glyph-name="uni06A2.fina" unicode="&#x6a2;" horiz-adv-x="1324" 
d="M408 0q-314 0 -314 243q0 141 110 263q19 21 43 41.5t51 41.5q48 35 57 35q8 0 8 -10q0 -1 -43 -47q-122 -132 -122 -255q0 -99 73 -137q57 -31 137 -31h780v5q-6 18 -29 33.5t-53 28t-61.5 23t-54.5 18.5q-42 16 -74.5 34t-55 41t-34 53.5t-11.5 71.5q0 57 26 114.5
t71 111.5q39 45 82.5 72t79.5 27q46 0 83 -30t65 -86q55 -106 78.5 -234.5t23.5 -282.5v-43q0 -54 -21.5 -77.5t-72.5 -23.5h-822zM1032 632q-29 0 -53 -11.5t-42 -30t-28 -40.5t-10 -42q0 -31 19.5 -52.5t50.5 -38t69.5 -31t75.5 -29.5t68 -33.5t47 -43.5l5 1
q-12 85 -33.5 150t-48.5 110t-58 68t-62 23zM1202 -310l-121 -121l-121 121l121 121z" />
    <glyph glyph-name="uni06A3.init" unicode="&#x6a3;" horiz-adv-x="780" 
d="M-18 0q-55 0 -55 45v52q0 47 55 47h600v5q-6 18 -29.5 33.5t-53.5 28t-61.5 23t-54.5 18.5q-42 16 -74.5 34t-54.5 41t-33.5 53.5t-11.5 71.5q0 57 25.5 114.5t70.5 111.5q39 45 83 72t79 27q47 0 83.5 -30t65.5 -86q54 -106 78 -234.5t24 -282.5v-43q0 -54 -22 -77.5
t-72 -23.5h-642zM425 632q-28 0 -52 -11.5t-42 -30t-28 -40.5t-10 -42q0 -31 19.5 -52.5t50.5 -38t69.5 -31t75 -29.5t67.5 -33.5t48 -43.5l4 1q-11 85 -32.5 150t-48.5 110t-58 68t-63 23zM496 1065l-121 -121l-121 121l121 120zM509 -310l-120 -121l-121 121l121 121z" />
    <glyph glyph-name="uni06A3.medi" unicode="&#x6a3;" horiz-adv-x="717" 
d="M-18 0q-55 0 -55 45v52q0 47 55 47h600v5q-6 18 -29.5 33.5t-53.5 28t-61.5 23t-54.5 18.5q-42 16 -74.5 34t-54.5 41t-33.5 53.5t-11.5 71.5q0 57 25.5 114.5t70.5 111.5q39 45 83 72t79 27q47 0 83.5 -30t65.5 -86q54 -106 78 -234.5t24 -282.5v-43q0 -54 -22 -77.5
t-72 -23.5h-642zM425 632q-28 0 -52 -11.5t-42 -30t-28 -40.5t-10 -42q0 -31 19.5 -52.5t50.5 -38t69.5 -31t75 -29.5t67.5 -33.5t48 -43.5l4 1q-11 85 -32.5 150t-48.5 110t-58 68t-63 23zM496 1065l-121 -121l-121 121l121 120zM509 -310l-120 -121l-121 121l121 121z" />
    <glyph glyph-name="uni06A3.fina" unicode="&#x6a3;" horiz-adv-x="1324" 
d="M1102 1065l-121 -121l-121 121l121 120zM408 0q-314 0 -314 243q0 141 110 263q19 21 43 41.5t51 41.5q48 35 57 35q8 0 8 -10q0 -1 -43 -47q-122 -132 -122 -255q0 -99 73 -137q57 -31 137 -31h780v5q-6 18 -29 33.5t-53 28t-61.5 23t-54.5 18.5q-42 16 -74.5 34t-55 41
t-34 53.5t-11.5 71.5q0 57 26 114.5t71 111.5q39 45 82.5 72t79.5 27q46 0 83 -30t65 -86q55 -106 78.5 -234.5t23.5 -282.5v-43q0 -54 -21.5 -77.5t-72.5 -23.5h-822zM1032 632q-29 0 -53 -11.5t-42 -30t-28 -40.5t-10 -42q0 -31 19.5 -52.5t50.5 -38t69.5 -31t75.5 -29.5
t68 -33.5t47 -43.5l5 1q-12 85 -33.5 150t-48.5 110t-58 68t-62 23zM866 -310l-121 -121l-121 121l121 121z" />
    <glyph glyph-name="uni06A5.init" unicode="&#x6a5;" horiz-adv-x="780" 
d="M-18 0q-55 0 -55 45v52q0 47 55 47h600v5q-6 18 -29.5 33.5t-53.5 28t-61.5 23t-54.5 18.5q-42 16 -74.5 34t-54.5 41t-33.5 53.5t-11.5 71.5q0 57 25.5 114.5t70.5 111.5q39 45 83 72t79 27q47 0 83.5 -30t65.5 -86q54 -106 78 -234.5t24 -282.5v-43q0 -54 -22 -77.5
t-72 -23.5h-642zM425 632q-28 0 -52 -11.5t-42 -30t-28 -40.5t-10 -42q0 -31 19.5 -52.5t50.5 -38t69.5 -31t75 -29.5t67.5 -33.5t48 -43.5l4 1q-11 85 -32.5 150t-48.5 110t-58 68t-63 23zM424 -555l-121 120l121 121l120 -121zM558 -349l-121 121l121 121l120 -121z
M291 -349l-121 121l121 121l120 -121z" />
    <glyph glyph-name="uni06A5.medi" unicode="&#x6a5;" horiz-adv-x="717" 
d="M-18 0q-55 0 -55 45v52q0 47 55 47h600v5q-6 18 -29.5 33.5t-53.5 28t-61.5 23t-54.5 18.5q-42 16 -74.5 34t-54.5 41t-33.5 53.5t-11.5 71.5q0 57 25.5 114.5t70.5 111.5q39 45 83 72t79 27q47 0 83.5 -30t65.5 -86q54 -106 78 -234.5t24 -282.5v-43q0 -54 -22 -77.5
t-72 -23.5h-642zM425 632q-28 0 -52 -11.5t-42 -30t-28 -40.5t-10 -42q0 -31 19.5 -52.5t50.5 -38t69.5 -31t75 -29.5t67.5 -33.5t48 -43.5l4 1q-11 85 -32.5 150t-48.5 110t-58 68t-63 23zM424 -555l-121 120l121 121l120 -121zM558 -349l-121 121l121 121l120 -121z
M291 -349l-121 121l121 121l120 -121z" />
    <glyph glyph-name="uni06A5.fina" unicode="&#x6a5;" horiz-adv-x="1324" 
d="M408 0q-314 0 -314 243q0 141 110 263q19 21 43 41.5t51 41.5q48 35 57 35q8 0 8 -10q0 -1 -43 -47q-122 -132 -122 -255q0 -99 73 -137q57 -31 137 -31h780v5q-6 18 -29 33.5t-53 28t-61.5 23t-54.5 18.5q-42 16 -74.5 34t-55 41t-34 53.5t-11.5 71.5q0 57 26 114.5
t71 111.5q39 45 82.5 72t79.5 27q46 0 83 -30t65 -86q55 -106 78.5 -234.5t23.5 -282.5v-43q0 -54 -21.5 -77.5t-72.5 -23.5h-822zM1032 632q-29 0 -53 -11.5t-42 -30t-28 -40.5t-10 -42q0 -31 19.5 -52.5t50.5 -38t69.5 -31t75.5 -29.5t68 -33.5t47 -43.5l5 1
q-12 85 -33.5 150t-48.5 110t-58 68t-62 23zM1043 -555l-121 120l121 121l120 -121zM1177 -349l-121 121l121 121l120 -121zM910 -349l-121 121l121 121l120 -121z" />
    <glyph glyph-name="uni06A7.init" unicode="&#x6a7;" horiz-adv-x="780" 
d="M-18 0q-55 0 -55 45v52q0 47 55 47h600v5q-6 18 -29.5 33.5t-53.5 28t-61.5 23t-54.5 18.5q-42 16 -74.5 34t-54.5 41t-33.5 53.5t-11.5 71.5q0 57 25.5 114.5t70.5 111.5q39 45 83 72t79 27q47 0 83.5 -30t65.5 -86q54 -106 78 -234.5t24 -282.5v-43q0 -54 -22 -77.5
t-72 -23.5h-642zM425 632q-28 0 -52 -11.5t-42 -30t-28 -40.5t-10 -42q0 -31 19.5 -52.5t50.5 -38t69.5 -31t75 -29.5t67.5 -33.5t48 -43.5l4 1q-11 85 -32.5 150t-48.5 110t-58 68t-63 23zM496 1065l-121 -121l-121 121l121 120z" />
    <glyph glyph-name="uni06A7.medi" unicode="&#x6a7;" horiz-adv-x="717" 
d="M-18 0q-55 0 -55 45v52q0 47 55 47h600v5q-6 18 -29.5 33.5t-53.5 28t-61.5 23t-54.5 18.5q-42 16 -74.5 34t-54.5 41t-33.5 53.5t-11.5 71.5q0 57 25.5 114.5t70.5 111.5q39 45 83 72t79 27q47 0 83.5 -30t65.5 -86q54 -106 78 -234.5t24 -282.5v-43q0 -54 -22 -77.5
t-72 -23.5h-642zM425 632q-28 0 -52 -11.5t-42 -30t-28 -40.5t-10 -42q0 -31 19.5 -52.5t50.5 -38t69.5 -31t75 -29.5t67.5 -33.5t48 -43.5l4 1q-11 85 -32.5 150t-48.5 110t-58 68t-63 23zM496 1065l-121 -121l-121 121l121 120z" />
    <glyph glyph-name="uni06A7.fina" unicode="&#x6a7;" horiz-adv-x="1134" 
d="M928 1017l-120 -121l-121 121l121 119zM1134 99q0 -73 -66 -144.5t-201 -153.5q-269 -165 -500 -165q-116 0 -193 63q-90 75 -90 217q0 131 78 295q67 140 86 140q11 0 11 -8q0 -3 -3 -9t-7.5 -16.5t-12.5 -29t-17 -46.5q-39 -113 -39 -218q0 -125 54 -181
q61 -63 205 -63q67 0 155.5 26.5t203.5 82.5q107 51 160 89t53 54q0 27 -24 48t-57.5 37.5t-70 28t-59.5 19.5q-42 16 -74.5 34t-54.5 41t-34 53.5t-12 71.5q0 57 26 114.5t71 111.5q39 45 82.5 72t79.5 27q46 0 83 -30t65 -86q51 -99 75 -216.5t27 -258.5zM842 545
q-28 0 -52.5 -12t-42 -30t-27.5 -40t-10 -42q0 -31 19 -52.5t50 -38.5t69.5 -31t75.5 -29.5t68 -33.5t48 -44l4 1q-12 86 -33.5 151t-48 109.5t-57.5 68t-63 23.5z" />
    <glyph glyph-name="uni06A8.init" unicode="&#x6a8;" horiz-adv-x="780" 
d="M-18 0q-55 0 -55 45v52q0 47 55 47h600v5q-6 18 -29.5 33.5t-53.5 28t-61.5 23t-54.5 18.5q-42 16 -74.5 34t-54.5 41t-33.5 53.5t-11.5 71.5q0 57 25.5 114.5t70.5 111.5q39 45 83 72t79 27q47 0 83.5 -30t65.5 -86q54 -106 78 -234.5t24 -282.5v-43q0 -54 -22 -77.5
t-72 -23.5h-642zM425 632q-28 0 -52 -11.5t-42 -30t-28 -40.5t-10 -42q0 -31 19.5 -52.5t50.5 -38t69.5 -31t75 -29.5t67.5 -33.5t48 -43.5l4 1q-11 85 -32.5 150t-48.5 110t-58 68t-63 23zM533 1234l-120 -121l-121 121l121 121zM666 1006l-120 -121l-121 121l121 120z
M399 1006l-120 -121l-121 121l121 120z" />
    <glyph glyph-name="uni06A8.medi" unicode="&#x6a8;" horiz-adv-x="717" 
d="M-18 0q-55 0 -55 45v52q0 47 55 47h600v5q-6 18 -29.5 33.5t-53.5 28t-61.5 23t-54.5 18.5q-42 16 -74.5 34t-54.5 41t-33.5 53.5t-11.5 71.5q0 57 25.5 114.5t70.5 111.5q39 45 83 72t79 27q47 0 83.5 -30t65.5 -86q54 -106 78 -234.5t24 -282.5v-43q0 -54 -22 -77.5
t-72 -23.5h-642zM425 632q-28 0 -52 -11.5t-42 -30t-28 -40.5t-10 -42q0 -31 19.5 -52.5t50.5 -38t69.5 -31t75 -29.5t67.5 -33.5t48 -43.5l4 1q-11 85 -32.5 150t-48.5 110t-58 68t-63 23zM533 1234l-120 -121l-121 121l121 121zM666 1006l-120 -121l-121 121l121 120z
M399 1006l-120 -121l-121 121l121 120z" />
    <glyph glyph-name="uni06A8.fina" unicode="&#x6a8;" horiz-adv-x="1134" 
d="M1134 99q0 -73 -66 -144.5t-201 -153.5q-269 -165 -500 -165q-116 0 -193 63q-90 75 -90 217q0 131 78 295q67 140 86 140q11 0 11 -8q0 -3 -3 -9t-7.5 -16.5t-12.5 -29t-17 -46.5q-39 -113 -39 -218q0 -125 54 -181q61 -63 205 -63q67 0 155.5 26.5t203.5 82.5
q107 51 160 89t53 54q0 27 -24 48t-57.5 37.5t-70 28t-59.5 19.5q-42 16 -74.5 34t-54.5 41t-34 53.5t-12 71.5q0 57 26 114.5t71 111.5q39 45 82.5 72t79.5 27q46 0 83 -30t65 -86q51 -99 75 -216.5t27 -258.5zM842 545q-28 0 -52.5 -12t-42 -30t-27.5 -40t-10 -42
q0 -31 19 -52.5t50 -38.5t69.5 -31t75.5 -29.5t68 -33.5t48 -44l4 1q-12 86 -33.5 151t-48 109.5t-57.5 68t-63 23.5zM942 1234l-120 -121l-121 121l121 121zM1075 1006l-119 -121l-121 121l121 120zM808 1006l-119 -121l-121 121l121 120z" />
    <glyph glyph-name="uni06AA.init" unicode="&#x6aa;" horiz-adv-x="900" 
d="M-18 0q-55 0 -55 45v52q0 47 55 47h744q8 0 8 11q0 6 -26.5 44.5t-86.5 102.5t-156 150.5t-234 190.5q0 -11 -9 -24.5t-18 -13.5q-8 0 -25.5 12t-34.5 34t-31 52.5t-14 67.5q0 27 6 48.5t22 44t44 49.5t75 65q32 27 81.5 61.5t107 73t117.5 77.5t115 72.5t99.5 60
t69.5 40.5l-30 -163q-94 -52 -182.5 -108.5t-165 -110.5t-135.5 -99t-92 -75q45 -30 98 -72.5t103 -86t92 -83t64 -64.5q63 -68 110 -128.5t78.5 -107.5t47 -79.5t15.5 -41.5v-125q0 -12 -5.5 -15.5t-19.5 -3.5h-832z" />
    <glyph glyph-name="uni06AA.medi" unicode="&#x6aa;" horiz-adv-x="837" 
d="M-18 0q-55 0 -55 45v52q0 47 55 47h744q8 0 8 11q0 6 -26.5 44.5t-86.5 102.5t-156 150.5t-234 190.5q0 -11 -9 -24.5t-18 -13.5q-8 0 -25.5 12t-34.5 34t-31 52.5t-14 67.5q0 27 6 48.5t22 44t44 49.5t75 65q32 27 81.5 61.5t107 73t117.5 77.5t115 72.5t99.5 60
t69.5 40.5l-30 -163q-94 -52 -182.5 -108.5t-165 -110.5t-135.5 -99t-92 -75q45 -30 98 -72.5t103 -86t92 -83t64 -64.5q63 -68 110 -128.5t78.5 -107.5t47 -79.5t15.5 -41.5v-125q0 -12 -5.5 -15.5t-19.5 -3.5h-832z" />
    <glyph glyph-name="uni06AA.fina" unicode="&#x6aa;" horiz-adv-x="1444" 
d="M1412 1200q-93 -52 -182 -108.5t-165 -110.5t-135 -99t-93 -75q46 -30 99 -72.5t103 -86t92 -83t64 -64.5q63 -68 109.5 -128.5t77.5 -107.5t46.5 -79.5t15.5 -41.5v-125q0 -12 -5.5 -15.5t-17.5 -3.5h-1013q-152 0 -233 61t-81 182q0 79 30 142.5t80 120.5
q22 23 47 44.5t47 38.5t38 26t19 9q8 0 8 -10q0 -3 -12.5 -15.5t-30.5 -31.5q-51 -56 -86.5 -120.5t-35.5 -134.5q0 -52 18.5 -85.5t54.5 -51.5q30 -17 69.5 -24t67.5 -7h924q9 0 9 11q0 6 -27 44.5t-87 102.5t-156 150.5t-234 190.5q0 -11 -9 -24.5t-19 -13.5q-7 0 -24 12
t-34.5 34t-31 52.5t-13.5 67.5q0 27 5.5 48.5t21.5 44t44.5 49.5t74.5 65q33 27 82 61.5t106.5 73t118 77.5t115 72.5t99 60t69.5 40.5z" />
    <glyph glyph-name="uni06AB.init" unicode="&#x6ab;" horiz-adv-x="900" 
d="M-18 0q-55 0 -55 45v52q0 47 55 47h709q20 0 25.5 2.5t5.5 8.5q0 12 -36.5 55.5t-102.5 106.5t-158.5 136.5t-206.5 144.5q0 -9 -5 -19t-17 -10q-5 0 -22.5 14.5t-36 39t-32.5 54t-14 61.5q0 41 22.5 73t75.5 69q26 19 72.5 48.5t103.5 64t121.5 72.5t128 74t121 67.5
t103.5 55.5l-39 -179q-75 -37 -154.5 -80.5t-153 -86.5t-136.5 -83.5t-105 -72.5q19 -15 48 -38.5t62.5 -51.5t69.5 -59.5t71.5 -62.5t67 -60.5t55.5 -52.5q51 -50 90.5 -98t67 -87t42 -66.5t14.5 -39.5v-125q0 -12 -8 -15.5t-38 -3.5h-811zM839 1426l-16 -76l-747 -435
l15 73z" />
    <glyph glyph-name="uni06AB.medi" unicode="&#x6ab;" horiz-adv-x="837" 
d="M-18 0q-55 0 -55 45v52q0 47 55 47h709q20 0 25.5 2.5t5.5 8.5q0 12 -36.5 55.5t-102.5 106.5t-158.5 136.5t-206.5 144.5q0 -9 -5 -19t-17 -10q-5 0 -22.5 14.5t-36 39t-32.5 54t-14 61.5q0 41 22.5 73t75.5 69q26 19 72.5 48.5t103.5 64t121.5 72.5t128 74t121 67.5
t103.5 55.5l-39 -179q-75 -37 -154.5 -80.5t-153 -86.5t-136.5 -83.5t-105 -72.5q19 -15 48 -38.5t62.5 -51.5t69.5 -59.5t71.5 -62.5t67 -60.5t55.5 -52.5q51 -50 90.5 -98t67 -87t42 -66.5t14.5 -39.5v-125q0 -12 -8 -15.5t-38 -3.5h-811zM839 1426l-16 -76l-747 -435
l15 73z" />
    <glyph glyph-name="uni06AB.fina" unicode="&#x6ab;" horiz-adv-x="1444" 
d="M1444 1426l-15 -76l-746 -435l14 73zM1406 1083q-75 -37 -154 -80.5t-153.5 -86.5t-137.5 -83.5t-105 -72.5q30 -22 78.5 -62.5t103 -86.5t106.5 -93t88 -83q50 -50 90 -98t67 -87t41 -66.5t14 -39.5v-125q0 -12 -8 -15.5t-37 -3.5h-991q-152 0 -233 61t-81 182
q0 79 30 142.5t80 120.5q22 23 47 44.5t47 38.5t38 26t19 9q8 0 8 -10q0 -3 -12.5 -15.5t-30.5 -31.5q-51 -56 -86.5 -120.5t-35.5 -134.5q0 -52 18.5 -85.5t54.5 -51.5q30 -17 69.5 -24t67.5 -7h890q20 0 25 2.5t5 8.5q0 12 -36 55.5t-102.5 106.5t-159.5 136.5t-205 144.5
q0 -9 -5.5 -19t-16.5 -10q-6 0 -23 14.5t-35.5 39t-33 54t-14.5 61.5q0 41 22.5 73.5t74.5 69.5q26 19 72.5 48t104.5 63.5t122 72.5t127.5 74t121.5 67.5t102 55.5z" />
    <glyph glyph-name="uni06AC.init" unicode="&#x6ac;" horiz-adv-x="900" 
d="M839 19q0 -19 -25 -19h-832q-55 0 -55 45v52q0 47 55 47h744q8 0 8 11q0 25 -113 147q-153 163 -390 341q0 -38 -27 -38q-23 0 -60 46q-45 54 -45 120q0 54 27.5 92.5t118.5 113t308 213.5q193 125 283 173l-30 -163q-330 -183 -575 -393q199 -134 357 -306
q113 -119 188 -236q63 -95 63 -121v-125zM479 1386l-120 -121l-121 121l121 121z" />
    <glyph glyph-name="uni06AC.medi" unicode="&#x6ac;" horiz-adv-x="837" 
d="M839 19q0 -19 -25 -19h-832q-55 0 -55 45v52q0 47 55 47h744q8 0 8 11q0 25 -113 147q-153 163 -390 341q0 -38 -27 -38q-23 0 -60 46q-45 54 -45 120q0 54 27.5 92.5t118.5 113t308 213.5q193 125 283 173l-30 -163q-330 -183 -575 -393q199 -134 357 -306
q113 -119 188 -236q63 -95 63 -121v-125zM479 1386l-120 -121l-121 121l121 121z" />
    <glyph glyph-name="uni06AC.fina" unicode="&#x6ac;" horiz-adv-x="1319" 
d="M408 0q-152 0 -233 61t-81 182q0 79 30 142.5t80 120.5q22 23 47 44.5t47 38.5t38 26t19 9q8 0 8 -10q0 -3 -12.5 -15.5t-30.5 -31.5q-51 -56 -86.5 -120.5t-35.5 -134.5q0 -52 18.5 -85.5t54.5 -51.5q30 -17 69.5 -24t67.5 -7h788q19 0 19 24q0 115 -43 410
q-51 344 -116 593l118 121q145 -707 145 -1221q0 -71 -61 -71h-850zM809 706l-11 6q-93 -37 -113 -102h83q106 0 106 -81q0 -73 -61 -114q-55 -37 -131 -37q-43 0 -69 6l-69 41v7q104 3 186 26q84 25 84 54q0 11 -94 11q-93 0 -93 13l-1 41q-1 61 67 145q72 84 118 84
q24 0 24 -24q0 -13 -22 -76h-4zM1245 1512l-120 -121l-121 121l121 121z" />
    <glyph glyph-name="uni06AE.init" unicode="&#x6ae;" horiz-adv-x="900" 
d="M-18 0q-55 0 -55 45v52q0 47 55 47h744q8 0 8 11q0 6 -26.5 44.5t-86.5 102.5t-156 150.5t-234 190.5q0 -11 -9 -24.5t-18 -13.5q-8 0 -25.5 12t-34.5 34t-31 52.5t-14 67.5q0 27 6 48.5t22 44t44 49.5t75 65q32 27 81.5 61.5t107 73t117.5 77.5t115 72.5t99.5 60
t69.5 40.5l-30 -163q-94 -52 -182.5 -108.5t-165 -110.5t-135.5 -99t-92 -75q45 -30 98 -72.5t103 -86t92 -83t64 -64.5q63 -68 110 -128.5t78.5 -107.5t47 -79.5t15.5 -41.5v-125q0 -12 -5.5 -15.5t-19.5 -3.5h-832zM403 -555l-121 120l121 121l120 -121zM537 -349
l-121 121l121 121l120 -121zM270 -349l-121 121l121 121l120 -121z" />
    <glyph glyph-name="uni06AE.medi" unicode="&#x6ae;" horiz-adv-x="837" 
d="M-18 0q-55 0 -55 45v52q0 47 55 47h744q8 0 8 11q0 6 -26.5 44.5t-86.5 102.5t-156 150.5t-234 190.5q0 -11 -9 -24.5t-18 -13.5q-8 0 -25.5 12t-34.5 34t-31 52.5t-14 67.5q0 27 6 48.5t22 44t44 49.5t75 65q32 27 81.5 61.5t107 73t117.5 77.5t115 72.5t99.5 60
t69.5 40.5l-30 -163q-94 -52 -182.5 -108.5t-165 -110.5t-135.5 -99t-92 -75q45 -30 98 -72.5t103 -86t92 -83t64 -64.5q63 -68 110 -128.5t78.5 -107.5t47 -79.5t15.5 -41.5v-125q0 -12 -5.5 -15.5t-19.5 -3.5h-832zM403 -555l-121 120l121 121l120 -121zM537 -349
l-121 121l121 121l120 -121zM270 -349l-121 121l121 121l120 -121z" />
    <glyph glyph-name="uni06AE.fina" unicode="&#x6ae;" horiz-adv-x="1319" 
d="M408 0q-152 0 -233 61t-81 182q0 79 30 142.5t80 120.5q22 23 47 44.5t47 38.5t38 26t19 9q8 0 8 -10q0 -3 -12.5 -15.5t-30.5 -31.5q-51 -56 -86.5 -120.5t-35.5 -134.5q0 -52 18.5 -85.5t54.5 -51.5q30 -17 69.5 -24t67.5 -7h788q19 0 19 24q0 115 -43 410
q-51 344 -116 593l118 121q145 -707 145 -1221q0 -71 -61 -71h-850zM809 706l-11 6q-93 -37 -113 -102h83q106 0 106 -81q0 -73 -61 -114q-55 -37 -131 -37q-43 0 -69 6l-69 41v7q104 3 186 26q84 25 84 54q0 11 -94 11q-93 0 -93 13l-1 41q-1 61 67 145q72 84 118 84
q24 0 24 -24q0 -13 -22 -76h-4zM759 -555l-120 120l120 121l120 -121zM893 -349l-121 121l121 121l120 -121zM626 -349l-121 121l121 121l120 -121z" />
    <glyph glyph-name="uni06B0.init" unicode="&#x6b0;" horiz-adv-x="900" 
d="M839 1426l-16 -76l-747 -435l15 73zM410 866q-28 -18 -54 -33q-63 -41 -105 -73q19 -15 48 -38.5t62.5 -51.5t69.5 -59.5t71.5 -62.5t67 -60.5t55.5 -52.5q51 -50 90.5 -98t67 -87t42 -66.5t14.5 -39.5v-125q0 -12 -8 -15.5t-38 -3.5h-811q-55 0 -55 45v52q0 47 55 47
h709q20 0 25.5 2.5t5.5 8.5q0 12 -36.5 55.5t-102.5 106.5t-158.5 136.5t-206.5 144.5q0 -9 -5 -19t-17 -10q-5 0 -22.5 14.5t-36 39t-32.5 54t-14 61.5q0 41 22.5 73t75.5 69q26 19 72.5 48.5t103.5 64t121.5 72.5t128 74t121 67.5t103.5 55.5l-39 -179q-62 -31 -129 -66
q11 -46 19 -93q15 -90 15 -122v-51q0 -11 -40 -21q-49 -13 -125 -13q-64 0 -106 22.5t-42 55.5q0 36 18 71zM610 983q-45 -25 -89 -50q-83 -59 -83 -89q0 -18 33 -31q30 -14 66 -14q73 0 118 17q-10 64 -45 167z" />
    <glyph glyph-name="uni06B0.medi" unicode="&#x6b0;" horiz-adv-x="837" 
d="M839 1426l-16 -76l-747 -435l15 73zM410 866q-28 -18 -54 -33q-63 -41 -105 -73q19 -15 48 -38.5t62.5 -51.5t69.5 -59.5t71.5 -62.5t67 -60.5t55.5 -52.5q51 -50 90.5 -98t67 -87t42 -66.5t14.5 -39.5v-125q0 -12 -8 -15.5t-38 -3.5h-811q-55 0 -55 45v52q0 47 55 47
h709q20 0 25.5 2.5t5.5 8.5q0 12 -36.5 55.5t-102.5 106.5t-158.5 136.5t-206.5 144.5q0 -9 -5 -19t-17 -10q-5 0 -22.5 14.5t-36 39t-32.5 54t-14 61.5q0 41 22.5 73t75.5 69q26 19 72.5 48.5t103.5 64t121.5 72.5t128 74t121 67.5t103.5 55.5l-39 -179q-62 -31 -129 -66
q11 -46 19 -93q15 -90 15 -122v-51q0 -11 -40 -21q-49 -13 -125 -13q-64 0 -106 22.5t-42 55.5q0 36 18 71zM610 983q-45 -25 -89 -50q-83 -59 -83 -89q0 -18 33 -31q30 -14 66 -14q73 0 118 17q-10 64 -45 167z" />
    <glyph glyph-name="uni06B0.fina" unicode="&#x6b0;" horiz-adv-x="1444" 
d="M1444 1426l-15 -76l-746 -435l14 73zM1020 868q-30 -17 -59 -35q-63 -41 -105 -73q30 -22 78.5 -62.5t103 -86.5t106.5 -93t88 -83q50 -50 90 -98t67 -87t41 -66.5t14 -39.5v-125q0 -12 -8 -15.5t-37 -3.5h-991q-152 0 -233 61t-81 182q0 79 30 142.5t80 120.5
q22 23 47 44.5t47 38.5t38 26t19 9q8 0 8 -10q0 -3 -12.5 -15.5t-30.5 -31.5q-51 -56 -86.5 -120.5t-35.5 -134.5q0 -52 18.5 -85.5t54.5 -51.5q30 -17 69.5 -24t67.5 -7h890q20 0 25 2.5t5 8.5q0 12 -36 55.5t-102.5 106.5t-159.5 136.5t-205 144.5q0 -9 -5.5 -19
t-16.5 -10q-6 0 -23 14.5t-35.5 39t-33 54t-14.5 61.5q0 41 22.5 73.5t74.5 69.5q26 19 72.5 48t104.5 63.5t122 72.5t127.5 74t121.5 67.5t102 55.5l-38 -179q-61 -31 -126 -65q10 -46 19 -94q15 -90 15 -122v-51q0 -11 -40 -21q-50 -13 -126 -13q-64 0 -106 22.5t-42 55.5
q0 37 20 73zM1218 984q-39 -22 -76 -43q-95 -65 -95 -97q0 -18 32 -31q31 -14 66 -14q74 0 118 17q-9 65 -45 168z" />
    <glyph glyph-name="uni06B2.init" unicode="&#x6b2;" horiz-adv-x="900" 
d="M-18 0q-55 0 -55 45v52q0 47 55 47h709q20 0 25.5 2.5t5.5 8.5q0 12 -36.5 55.5t-102.5 106.5t-158.5 136.5t-206.5 144.5q0 -9 -5 -19t-17 -10q-5 0 -22.5 14.5t-36 39t-32.5 54t-14 61.5q0 41 22.5 73t75.5 69q26 19 72.5 48.5t103.5 64t121.5 72.5t128 74t121 67.5
t103.5 55.5l-39 -179q-75 -37 -154.5 -80.5t-153 -86.5t-136.5 -83.5t-105 -72.5q19 -15 48 -38.5t62.5 -51.5t69.5 -59.5t71.5 -62.5t67 -60.5t55.5 -52.5q51 -50 90.5 -98t67 -87t42 -66.5t14.5 -39.5v-125q0 -12 -8 -15.5t-38 -3.5h-811zM839 1426l-16 -76l-747 -435
l15 73zM558 -349l-121 121l121 121l120 -121zM291 -349l-121 121l121 121l120 -121z" />
    <glyph glyph-name="uni06B2.medi" unicode="&#x6b2;" horiz-adv-x="837" 
d="M-18 0q-55 0 -55 45v52q0 47 55 47h709q20 0 25.5 2.5t5.5 8.5q0 12 -36.5 55.5t-102.5 106.5t-158.5 136.5t-206.5 144.5q0 -9 -5 -19t-17 -10q-5 0 -22.5 14.5t-36 39t-32.5 54t-14 61.5q0 41 22.5 73t75.5 69q26 19 72.5 48.5t103.5 64t121.5 72.5t128 74t121 67.5
t103.5 55.5l-39 -179q-75 -37 -154.5 -80.5t-153 -86.5t-136.5 -83.5t-105 -72.5q19 -15 48 -38.5t62.5 -51.5t69.5 -59.5t71.5 -62.5t67 -60.5t55.5 -52.5q51 -50 90.5 -98t67 -87t42 -66.5t14.5 -39.5v-125q0 -12 -8 -15.5t-38 -3.5h-811zM839 1426l-16 -76l-747 -435
l15 73zM558 -349l-121 121l121 121l120 -121zM291 -349l-121 121l121 121l120 -121z" />
    <glyph glyph-name="uni06B2.fina" unicode="&#x6b2;" horiz-adv-x="1444" 
d="M1444 1426l-15 -76l-746 -435l14 73zM1406 1083q-75 -37 -154 -80.5t-153.5 -86.5t-137.5 -83.5t-105 -72.5q30 -22 78.5 -62.5t103 -86.5t106.5 -93t88 -83q50 -50 90 -98t67 -87t41 -66.5t14 -39.5v-125q0 -12 -8 -15.5t-37 -3.5h-991q-152 0 -233 61t-81 182
q0 79 30 142.5t80 120.5q22 23 47 44.5t47 38.5t38 26t19 9q8 0 8 -10q0 -3 -12.5 -15.5t-30.5 -31.5q-51 -56 -86.5 -120.5t-35.5 -134.5q0 -52 18.5 -85.5t54.5 -51.5q30 -17 69.5 -24t67.5 -7h890q20 0 25 2.5t5 8.5q0 12 -36 55.5t-102.5 106.5t-159.5 136.5t-205 144.5
q0 -9 -5.5 -19t-16.5 -10q-6 0 -23 14.5t-35.5 39t-33 54t-14.5 61.5q0 41 22.5 73.5t74.5 69.5q26 19 72.5 48t104.5 63.5t122 72.5t127.5 74t121.5 67.5t102 55.5zM893 -349l-121 121l121 121l120 -121zM626 -349l-121 121l121 121l120 -121z" />
    <glyph glyph-name="uni06B4.init" unicode="&#x6b4;" horiz-adv-x="900" 
d="M-18 0q-55 0 -55 45v52q0 47 55 47h709q20 0 25.5 2.5t5.5 8.5q0 12 -36.5 55.5t-102.5 106.5t-158.5 136.5t-206.5 144.5q0 -9 -5 -19t-17 -10q-5 0 -22.5 14.5t-36 39t-32.5 54t-14 61.5q0 41 22.5 73t75.5 69q26 19 72.5 48.5t103.5 64t121.5 72.5t128 74t121 67.5
t103.5 55.5l-39 -179q-75 -37 -154.5 -80.5t-153 -86.5t-136.5 -83.5t-105 -72.5q19 -15 48 -38.5t62.5 -51.5t69.5 -59.5t71.5 -62.5t67 -60.5t55.5 -52.5q51 -50 90.5 -98t67 -87t42 -66.5t14.5 -39.5v-125q0 -12 -8 -15.5t-38 -3.5h-811zM839 1426l-16 -76l-747 -435
l15 73zM479 1691l-120 -121l-121 121l121 120zM612 1462l-119 -120l-121 120l121 120zM345 1462l-119 -120l-121 120l121 120z" />
    <glyph glyph-name="uni06B4.medi" unicode="&#x6b4;" horiz-adv-x="837" 
d="M-18 0q-55 0 -55 45v52q0 47 55 47h709q20 0 25.5 2.5t5.5 8.5q0 12 -36.5 55.5t-102.5 106.5t-158.5 136.5t-206.5 144.5q0 -9 -5 -19t-17 -10q-5 0 -22.5 14.5t-36 39t-32.5 54t-14 61.5q0 41 22.5 73t75.5 69q26 19 72.5 48.5t103.5 64t121.5 72.5t128 74t121 67.5
t103.5 55.5l-39 -179q-75 -37 -154.5 -80.5t-153 -86.5t-136.5 -83.5t-105 -72.5q19 -15 48 -38.5t62.5 -51.5t69.5 -59.5t71.5 -62.5t67 -60.5t55.5 -52.5q51 -50 90.5 -98t67 -87t42 -66.5t14.5 -39.5v-125q0 -12 -8 -15.5t-38 -3.5h-811zM839 1426l-16 -76l-747 -435
l15 73zM479 1691l-120 -121l-121 121l121 120zM612 1462l-119 -120l-121 120l121 120zM345 1462l-119 -120l-121 120l121 120z" />
    <glyph glyph-name="uni06B4.fina" unicode="&#x6b4;" horiz-adv-x="1444" 
d="M1444 1426l-15 -76l-746 -435l14 73zM1406 1083q-75 -37 -154 -80.5t-153.5 -86.5t-137.5 -83.5t-105 -72.5q30 -22 78.5 -62.5t103 -86.5t106.5 -93t88 -83q50 -50 90 -98t67 -87t41 -66.5t14 -39.5v-125q0 -12 -8 -15.5t-37 -3.5h-991q-152 0 -233 61t-81 182
q0 79 30 142.5t80 120.5q22 23 47 44.5t47 38.5t38 26t19 9q8 0 8 -10q0 -3 -12.5 -15.5t-30.5 -31.5q-51 -56 -86.5 -120.5t-35.5 -134.5q0 -52 18.5 -85.5t54.5 -51.5q30 -17 69.5 -24t67.5 -7h890q20 0 25 2.5t5 8.5q0 12 -36 55.5t-102.5 106.5t-159.5 136.5t-205 144.5
q0 -9 -5.5 -19t-16.5 -10q-6 0 -23 14.5t-35.5 39t-33 54t-14.5 61.5q0 41 22.5 73.5t74.5 69.5q26 19 72.5 48t104.5 63.5t122 72.5t127.5 74t121.5 67.5t102 55.5zM1109 1691l-120 -121l-121 121l121 120zM1242 1462l-120 -120l-121 120l121 120zM975 1462l-120 -120
l-121 120l121 120z" />
    <glyph glyph-name="uni06B5.init" unicode="&#x6b5;" horiz-adv-x="572" 
d="M-18 0q-55 0 -55 45v52q0 47 55 47h374q19 0 19 24q0 115 -43 410q-51 344 -116 593l118 121q145 -707 145 -1221q0 -71 -61 -71h-436zM207 1391l-207 276h57l201 -170l201 170h58l-207 -276h-103z" />
    <glyph glyph-name="uni06B5.medi" unicode="&#x6b5;" horiz-adv-x="478" 
d="M-18 0q-55 0 -55 45v52q0 47 55 47h374q19 0 19 24q0 115 -43 410q-51 344 -116 593l118 121q145 -707 145 -1221q0 -71 -61 -71h-436zM207 1391l-207 276h57l201 -170l201 170h58l-207 -276h-103z" />
    <glyph glyph-name="uni06B5.fina" unicode="&#x6b5;" horiz-adv-x="922" 
d="M922 95q0 -102 -15.5 -138.5t-82.5 -99t-183 -107.5q-123 -50 -236 -50q-321 0 -321 298q0 113 63 247q53 112 68 112q7 0 7 -6q-1 5 -32 -88q-30 -96 -30 -173q0 -234 265 -234q178 0 402 125v79q0 162 -53.5 513.5t-114.5 597.5l119 121q144 -707 144 -1197zM669 1391
l-208 276h58l201 -170l201 170h58l-207 -276h-103z" />
    <glyph glyph-name="uni06B6.init" unicode="&#x6b6;" horiz-adv-x="572" 
d="M-18 0q-55 0 -55 45v52q0 47 55 47h374q19 0 19 24q0 115 -43 410q-51 344 -116 593l118 121q145 -707 145 -1221q0 -71 -61 -71h-436zM380 1515l-120 -121l-121 121l121 121z" />
    <glyph glyph-name="uni06B6.medi" unicode="&#x6b6;" horiz-adv-x="478" 
d="M-18 0q-55 0 -55 45v52q0 47 55 47h374q19 0 19 24q0 115 -43 410q-51 344 -116 593l118 121q145 -707 145 -1221q0 -71 -61 -71h-436zM380 1515l-120 -121l-121 121l121 121z" />
    <glyph glyph-name="uni06B6.fina" unicode="&#x6b6;" horiz-adv-x="922" 
d="M922 95q0 -102 -15.5 -138.5t-82.5 -99t-183 -107.5q-123 -50 -236 -50q-321 0 -321 298q0 113 63 247q53 112 68 112q7 0 7 -6q-1 5 -32 -88q-30 -96 -30 -173q0 -234 265 -234q178 0 402 125v79q0 162 -53.5 513.5t-114.5 597.5l119 121q144 -707 144 -1197zM842 1515
l-120 -121l-121 121l121 121z" />
    <glyph glyph-name="uni06B7.init" unicode="&#x6b7;" horiz-adv-x="572" 
d="M-18 0q-55 0 -55 45v52q0 47 55 47h374q19 0 19 24q0 115 -43 410q-51 344 -116 593l118 121q145 -707 145 -1221q0 -71 -61 -71h-436zM395 1722l-120 -121l-121 121l121 121zM528 1494l-119 -121l-121 121l121 120zM261 1494l-120 -121l-120 121l120 120z" />
    <glyph glyph-name="uni06B7.medi" unicode="&#x6b7;" horiz-adv-x="478" 
d="M-18 0q-55 0 -55 45v52q0 47 55 47h374q19 0 19 24q0 115 -43 410q-51 344 -116 593l118 121q145 -707 145 -1221q0 -71 -61 -71h-436zM395 1722l-120 -121l-121 121l121 121zM528 1494l-119 -121l-121 121l121 120zM261 1494l-120 -121l-120 121l120 120z" />
    <glyph glyph-name="uni06B7.fina" unicode="&#x6b7;" horiz-adv-x="922" 
d="M922 95q0 -102 -15.5 -138.5t-82.5 -99t-183 -107.5q-123 -50 -236 -50q-321 0 -321 298q0 113 63 247q53 112 68 112q7 0 7 -6q-1 5 -32 -88q-30 -96 -30 -173q0 -234 265 -234q178 0 402 125v79q0 162 -53.5 513.5t-114.5 597.5l119 121q144 -707 144 -1197zM836 1722
l-120 -121l-121 121l121 121zM969 1494l-120 -121l-121 121l121 120zM702 1494l-120 -121l-121 121l121 120z" />
    <glyph glyph-name="uni06B8.init" unicode="&#x6b8;" horiz-adv-x="572" 
d="M-18 0q-55 0 -55 45v52q0 47 55 47h374q19 0 19 24q0 115 -43 410q-51 344 -116 593l118 121q145 -707 145 -1221q0 -71 -61 -71h-436zM257 -576l-121 120l121 121l120 -121zM391 -370l-121 121l121 121l119 -121zM124 -370l-121 121l121 121l119 -121z" />
    <glyph glyph-name="uni06B8.medi" unicode="&#x6b8;" horiz-adv-x="478" 
d="M-18 0q-55 0 -55 45v52q0 47 55 47h374q19 0 19 24q0 115 -43 410q-51 344 -116 593l118 121q145 -707 145 -1221q0 -71 -61 -71h-436zM257 -576l-121 120l121 121l120 -121zM391 -370l-121 121l121 121l119 -121zM124 -370l-121 121l121 121l119 -121z" />
    <glyph glyph-name="uni06B8.fina" unicode="&#x6b8;" horiz-adv-x="922" 
d="M922 95q0 -102 -15.5 -138.5t-82.5 -99t-183 -107.5q-123 -50 -236 -50q-321 0 -321 298q0 113 63 247q53 112 68 112q7 0 7 -6q-1 5 -32 -88q-30 -96 -30 -173q0 -234 265 -234q178 0 402 125v79q0 162 -53.5 513.5t-114.5 597.5l119 121q144 -707 144 -1197zM540 -839
l-121 120l121 121l120 -121zM674 -633l-121 121l121 121l120 -121zM407 -633l-121 121l121 121l120 -121z" />
    <glyph glyph-name="uni06B9.init" unicode="&#x6b9;" horiz-adv-x="650" 
d="M599 58q0 -58 -75 -58h-542q-55 0 -55 45v52q0 47 55 47h510q12 0 12 14q0 18 -53 132q-61 132 -130 246l115 117q31 -38 96 -226q67 -198 67 -272v-97zM422 933l-121 -121l-121 121l121 119zM406 -310l-120 -121l-121 121l121 121z" />
    <glyph glyph-name="uni06B9.medi" unicode="&#x6b9;" horiz-adv-x="598" 
d="M422 933l-121 -121l-121 121l121 119zM599 58q0 -58 -75 -58h-542q-55 0 -55 45v52q0 47 55 47h510q12 0 12 14q0 18 -53 132q-61 132 -130 246l115 117q31 -38 96 -226q67 -198 67 -272v-97zM406 -310l-120 -121l-121 121l121 121z" />
    <glyph glyph-name="uni06B9.fina" unicode="&#x6b9;" horiz-adv-x="965" 
d="M686 709l-121 -120l-121 120l121 121zM965 97q0 -99 -31 -161q-34 -66 -117 -121q-182 -121 -372 -121q-138 0 -229 59q-122 77 -122 239q0 96 55 213q48 101 66 101q5 0 5 -5q0 3 -22 -59t-22 -125q0 -267 302 -267q112 0 237 54q99 42 163 96q0 97 -90 353l97 121
q80 -194 80 -377zM659 -579l-121 -120l-121 120l121 121z" />
    <glyph glyph-name="uni06BC.init" unicode="&#x6bc;" horiz-adv-x="769" 
d="M433 -172q-10 66 -47 172q-170 -102 -170 -144q0 -18 33 -32q30 -13 66 -13q74 0 118 17zM610 144q13 0 13 14q0 18 -54 132q-61 132 -129 246l114 117q32 -38 96 -226q68 -198 68 -272v-97q0 -58 -76 -58h-186l12 -64q15 -91 15 -122v-52q0 -10 -40 -21
q-49 -12 -125 -12q-64 0 -106 22.5t-42 55.5q0 94 131 193h-319q-55 0 -55 45v52q0 47 55 47h628zM422 933l-121 -121l-121 121l121 119z" />
    <glyph glyph-name="uni06BC.medi" unicode="&#x6bc;" horiz-adv-x="717" 
d="M433 -172q-10 66 -47 172q-170 -102 -170 -144q0 -18 33 -32q30 -13 66 -13q74 0 118 17zM610 144q13 0 13 14q0 18 -54 132q-61 132 -129 246l114 117q32 -38 96 -226q68 -198 68 -272v-97q0 -58 -76 -58h-186l12 -64q15 -91 15 -122v-52q0 -10 -40 -21
q-49 -12 -125 -12q-64 0 -106 22.5t-42 55.5q0 94 131 193h-319q-55 0 -55 45v52q0 47 55 47h628zM422 933l-121 -121l-121 121l121 119z" />
    <glyph glyph-name="uni06BC.fina" unicode="&#x6bc;" horiz-adv-x="965" 
d="M686 709l-121 -120l-121 120l121 121zM577 -291q-11 -2 -23 -4q-150 -93 -150 -133q0 -18 33 -31q30 -14 66 -14q74 0 118 17q-10 64 -44 165zM462 -306h-17q-138 0 -229 59q-122 77 -122 239q0 96 55 213q48 101 66 101q5 0 5 -5q0 3 -22 -59t-22 -125q0 -267 302 -267
q112 0 237 54q99 42 163 96q0 97 -90 353l97 121q80 -194 80 -377q0 -99 -31 -161q-34 -66 -117 -121q-87 -58 -175 -88q7 -36 14 -75q15 -90 15 -122v-51q0 -11 -40 -21q-49 -13 -125 -13q-64 0 -106 22.5t-42 55.5q0 84 104 171z" />
    <glyph glyph-name="uni06BD.init" unicode="&#x6bd;" horiz-adv-x="769" 
d="M501 1161l-120 -121l-121 121l121 121zM635 933l-120 -121l-121 121l121 119zM368 933l-120 -121l-121 121l121 119zM718 58q0 -58 -76 -58h-660q-55 0 -55 45v52q0 47 55 47h628q13 0 13 14q0 18 -54 132q-61 132 -129 246l114 117q32 -38 96 -226q68 -198 68 -272v-97z
" />
    <glyph glyph-name="uni06BD.medi" unicode="&#x6bd;" horiz-adv-x="717" 
d="M501 1161l-120 -121l-121 121l121 121zM635 933l-120 -121l-121 121l121 119zM368 933l-120 -121l-121 121l121 119zM718 58q0 -58 -76 -58h-660q-55 0 -55 45v52q0 47 55 47h628q13 0 13 14q0 18 -54 132q-61 132 -129 246l114 117q32 -38 96 -226q68 -198 68 -272v-97z
" />
    <glyph glyph-name="uni06BD.fina" unicode="&#x6bd;" horiz-adv-x="965" 
d="M965 97q0 -99 -31 -161q-34 -66 -117 -121q-182 -121 -372 -121q-138 0 -229 59q-122 77 -122 239q0 96 55 213q48 101 66 101q5 0 5 -5q0 3 -22 -59t-22 -125q0 -267 302 -267q112 0 237 54q99 42 163 96q0 97 -90 353l97 121q80 -194 80 -377zM550 638l-121 -119
l-118 119l118 121zM815 638l-120 -119l-118 119l118 121zM684 847l-121 -118l-118 118l118 120z" />
    <glyph glyph-name="uni06BF.init" unicode="&#x6bf;" horiz-adv-x="1077" 
d="M1015 122q-12 8 -90 18q-44 5 -84.5 7.5t-79.5 2.5q-98 0 -195 -6.5t-191 -22.5t-182.5 -41t-167.5 -62q-39 -18 -51 -18q-17 0 -17 19v104q0 13 8 18q75 37 156 64t172 46t193 29.5t216 13.5q-6 4 -26 20q-22 17 -59 48q-84 67 -123 107q-80 80 -151 80q-73 0 -144 -84
q-12 -13 -15 -13q-6 0 -6 11q0 36 50 127q64 113 139 113q81 0 253 -165q68 -64 120.5 -108.5t89.5 -70.5q82 -56 185 -92v-145zM488 1035l-121 -120l-120 120l120 120zM443 -542l-121 120l121 120l121 -120zM309 -335l-121 119l121 121l121 -121zM576 -335l-121 119
l121 121l121 -121z" />
    <glyph glyph-name="uni06BF.medi" unicode="&#x6bf;" horiz-adv-x="1014" 
d="M1015 122q-12 8 -90 18q-44 5 -84.5 7.5t-79.5 2.5q-98 0 -195 -6.5t-191 -22.5t-182.5 -41t-167.5 -62q-39 -18 -51 -18q-17 0 -17 19v104q0 13 8 18q75 37 156 64t172 46t193 29.5t216 13.5q-6 4 -26 20q-22 17 -59 48q-84 67 -123 107q-80 80 -151 80q-73 0 -144 -84
q-12 -13 -15 -13q-6 0 -6 11q0 36 50 127q64 113 139 113q81 0 253 -165q68 -64 120.5 -108.5t89.5 -70.5q82 -56 185 -92v-145zM488 1035l-121 -120l-120 120l120 120zM443 -542l-121 120l121 120l121 -120zM309 -335l-121 119l121 121l121 -121zM576 -335l-121 119
l121 121l121 -121z" />
    <glyph glyph-name="uni06BF.fina" unicode="&#x6bf;" horiz-adv-x="1281" 
d="M1281 111q-12 9 -89 18q-87 11 -165 11q-378 0 -604 -94q-247 -102 -247 -294q0 -102 73 -229q68 -121 72 -117q0 -8 -6 -8q-10 0 -35 25q-207 207 -207 370q0 206 237 343q208 119 661 148q-13 6 -87 67q-83 67 -124 107q-79 80 -151 80q-73 0 -144 -84q-10 -12 -15 -12
q-7 0 -7 10q0 37 52 127q64 114 138 114q80 0 254 -165q134 -128 208 -180q80 -56 186 -91v-146zM775 1035l-121 -120l-121 120l121 120zM597 -335l-121 119l121 121l120 -121zM730 -542l-121 120l121 120l120 -120zM864 -335l-121 119l121 121l119 -121z" />
    <glyph glyph-name="uni06C2.fina" unicode="&#x6c2;" horiz-adv-x="882" 
d="M881 19q0 -8 -8 -13.5t-20 -5.5q-59 0 -114.5 18t-102 60t-81.5 111.5t-54 172.5q-160 -40 -264 -117t-166 -196q-7 -11 -12 -11q-4 0 -4 9q9 55 20.5 94t26.5 76q17 40 38.5 72.5t51.5 61.5q63 60 153 106.5t217 74.5q6 0 6 -5q0 -38 3 -68.5t9.5 -58t16.5 -52.5t25 -52
q16 -30 40.5 -57.5t55.5 -48.5t68.5 -33.5t80.5 -12.5h14v-125zM533 811q-164 -20 -270 -127q4 33 16.5 62t29.5 46q-42 25 -58.5 52.5t-16.5 58.5q0 62 47 122q54 70 129 70q74 0 74 -52q0 -36 -19 -59q-47 27 -88 27q-38 0 -65 -25q-10 -9 -19 -20.5t-9 -26.5
q0 -40 106 -82q45 24 87.5 37t90.5 18z" />
    <glyph glyph-name="uni06C3.fina" unicode="&#x6c3;" horiz-adv-x="882" 
d="M881 19q0 -8 -8 -13.5t-20 -5.5q-59 0 -114.5 18t-102 60t-81.5 111.5t-54 172.5q-160 -40 -264 -117t-166 -196q-7 -11 -12 -11q-4 0 -4 9q9 55 20.5 94t26.5 76q17 40 38.5 72.5t51.5 61.5q63 60 153 106.5t217 74.5q6 0 6 -5q0 -38 3 -68.5t9.5 -58t16.5 -52.5t25 -52
q16 -30 40.5 -57.5t55.5 -48.5t68.5 -33.5t80.5 -12.5h14v-125zM654 880l-120 -121l-120 121l120 120zM387 880l-120 -121l-121 121l121 120z" />
    <glyph glyph-name="uni06C4.fina" unicode="&#x6c4;" horiz-adv-x="639" 
d="M531 148q0 66 -42 153q-48 97 -102 97q-58 0 -115 -63.5t-57 -129.5q0 -65 146 -65q112 0 170 8zM334 -365q21 21 42 45q36 39 65 75q-171 92 -207 69q-15 -8 -10 -44q3 -32 22 -63q38 -63 75 -92q6 5 13 10zM471 -206q77 103 77 161v45q-64 -15 -187 -15
q-119 0 -165 33.5t-46 123.5q0 142 93 274q89 126 174 126q79 0 150 -144q71 -148 71 -334q0 -318 -288 -606q-61 -60 -123 -60q-191 0 -191 19q0 8 45 26q79 31 179 121l-7 7q-37 36 -76 101q-33 55 -35 102.5t26 64.5q99 59 303 -45z" />
    <glyph glyph-name="uni06CA.fina" unicode="&#x6ca;" horiz-adv-x="639" 
d="M638 64q0 -318 -288 -606q-61 -60 -123 -60q-191 0 -191 19q0 8 45 26q122 48 294.5 237t172.5 275v45q-64 -15 -187 -15q-119 0 -165 33.5t-46 123.5q0 142 93 274q89 126 174 126q79 0 150 -144q71 -148 71 -334zM531 148q0 66 -42 153q-48 97 -102 97
q-58 0 -115 -63.5t-57 -129.5q0 -65 146 -65q112 0 170 8zM664 746l-120 -120l-121 120l121 120zM397 746l-120 -120l-121 120l121 120z" />
    <glyph glyph-name="uni06CD.fina" unicode="&#x6cd;" horiz-adv-x="1406" 
d="M359 351q6 0 7 -7q-3 6 -40 -101q-40 -117 -40 -219q0 -125 57 -181q63 -63 216 -63q149 0 319 65q153 58 153 91q0 21 -43 40l-166 73q-66 30 -66 109q0 104 155 248.5t266 144.5q100 0 161 -195q49 -157 49 -332v-24h-22q0 82 -66 234q-77 181 -163 181t-193 -79
q-101 -74 -101 -120q0 -32 47 -54l130 -61q144 -67 144 -129q0 -67 -154 -157q-299 -179 -522 -179q-119 0 -196 63q-91 75 -91 217q0 126 70 282l-3 -1q-26 -10 -72 -14.5t-111 1.5q97 57 184 110q45 29 84 54l5 3h2z" />
    <glyph glyph-name="uni06CE.init" unicode="&#x6ce;" horiz-adv-x="769" 
d="M718 58q0 -58 -75 -58h-661q-55 0 -55 45v52q0 47 55 47h628q13 0 13 14q0 18 -54 132q-61 132 -129 246l115 117q31 -38 95 -226q68 -198 68 -272v-97zM619 -275l-121 -121l-121 121l121 120zM352 -275l-121 -121l-121 121l121 120zM345 775l-207 276h58l201 -170
l201 170h58l-208 -276h-103z" />
    <glyph glyph-name="uni06CE.medi" unicode="&#x6ce;" horiz-adv-x="717" 
d="M718 58q0 -58 -75 -58h-661q-55 0 -55 45v52q0 47 55 47h628q13 0 13 14q0 18 -54 132q-61 132 -129 246l115 117q31 -38 95 -226q68 -198 68 -272v-97zM619 -275l-121 -121l-121 121l121 120zM352 -275l-121 -121l-121 121l121 120zM345 775l-207 276h58l201 -170
l201 170h58l-208 -276h-103z" />
    <glyph glyph-name="uni06CE.fina" unicode="&#x6ce;" horiz-adv-x="1292" 
d="M1271 0h-22q0 82 -65 234q-78 181 -163 181q-86 0 -194 -79q-101 -74 -101 -120q0 -32 48 -54l129 -61q144 -67 144 -129q0 -67 -153 -157q-300 -179 -523 -179q-119 0 -196 63q-91 75 -91 217q0 131 77 295q65 140 83 140q5 0 6 -7q-3 6 -40 -101q-40 -117 -40 -219
q0 -125 57 -181q63 -63 217 -63q149 0 318 65q154 58 154 91q0 21 -43 40l-167 73q-66 30 -66 109q0 104 155 248.5t267 144.5q100 0 161 -195q48 -157 48 -332v-24zM355 470l-207 276h58l201 -170l201 170h57l-207 -276h-103z" />
    <glyph glyph-name="uni06CF.fina" unicode="&#x6cf;" horiz-adv-x="639" 
d="M638 64q0 -318 -288 -606q-61 -60 -123 -60q-191 0 -191 19q0 8 45 26q122 48 294.5 237t172.5 275v45q-64 -15 -187 -15q-119 0 -165 33.5t-46 123.5q0 142 93 274q89 126 174 126q79 0 150 -144q71 -148 71 -334zM531 148q0 66 -42 153q-48 97 -102 97
q-58 0 -115 -63.5t-57 -129.5q0 -65 146 -65q112 0 170 8zM530 796l-120 -121l-121 121l121 121z" />
    <glyph glyph-name="uni06D1.init" unicode="&#x6d1;" horiz-adv-x="769" 
d="M-18 0q-55 0 -55 45v52q0 47 55 47h628q9 0 11 3t2 11q0 7 -14 43t-39.5 89.5t-58.5 117.5t-71 128l114 117q9 -12 25.5 -45.5t34 -80.5t36.5 -101t34 -105.5t24.5 -95.5t9.5 -70v-97q0 -33 -18.5 -45.5t-57.5 -12.5h-660zM234 -349l-121 121l121 121l120 -121zM501 -349
l-121 121l121 121l120 -121zM368 -555l-121 120l121 121l119 -121z" />
    <glyph glyph-name="uni06D1.medi" unicode="&#x6d1;" horiz-adv-x="717" 
d="M-18 0q-55 0 -55 45v52q0 47 55 47h628q9 0 11 3t2 11q0 7 -14 43t-39.5 89.5t-58.5 117.5t-71 128l114 117q9 -12 25.5 -45.5t34 -80.5t36.5 -101t34 -105.5t24.5 -95.5t9.5 -70v-97q0 -33 -18.5 -45.5t-57.5 -12.5h-660zM234 -349l-121 121l121 121l120 -121zM501 -349
l-121 121l121 121l120 -121zM368 -555l-121 120l121 121l119 -121z" />
    <glyph glyph-name="uni06D1.fina" unicode="&#x6d1;" horiz-adv-x="1292" 
d="M1271 0h-22q0 82 -65 234q-78 181 -163 181q-86 0 -194 -79q-101 -74 -101 -120q0 -32 48 -54l129 -61q144 -67 144 -129q0 -67 -153 -157q-300 -179 -523 -179q-119 0 -196 63q-91 75 -91 217q0 131 77 295q65 140 83 140q5 0 6 -7q-3 6 -40 -101q-40 -117 -40 -219
q0 -125 57 -181q63 -63 217 -63q149 0 318 65q154 58 154 91q0 21 -43 40l-167 73q-66 30 -66 109q0 104 155 248.5t267 144.5q100 0 161 -195q48 -157 48 -332v-24zM570 -944l-121 121l121 121l120 -121zM703 -715l-121 120l121 121l120 -121zM436 -715l-121 120l121 121
l120 -121z" />
    <glyph glyph-name="uni06D5.fina" unicode="&#x6d5;" horiz-adv-x="684" 
d="M684 47q0 -20 -76 -39q-92 -23 -234 -23q-122 0 -201 42t-79 104q0 220 378 452l-18 67l111 116q54 -179 90 -392q29 -169 29 -230v-97zM589 170q-19 124 -88 325q-321 -192 -321 -271q0 -34 62 -60q58 -24 125 -24q139 0 222 30z" />
    <glyph glyph-name="uni06EE.fina" unicode="&#x6ee;" horiz-adv-x="873" 
d="M873 54q0 -89 -484 -89q-163 0 -193 8q-102 25 -102 134q0 49 12 92q9 40 18 40q7 -8 7 -26q0 -35 23 -63q37 -41 160 -41q381 0 464 31q-77 232 -374 575l74 138q196 -225 308 -453q87 -178 87 -266v-80zM480 1274l207 -276h-58l-201 170l-200 -170h-58l207 276h103z
" />
    <glyph glyph-name="uni06EF.fina" unicode="&#x6ef;" horiz-adv-x="478" 
d="M478 56q0 -294 -185 -570q-60 -88 -139 -88q-118 0 -118 16q0 7 68 65q91 75 195 248q113 189 113 267q0 41 -72 159q-69 114 -113 155l91 138q160 -235 160 -390zM324 890l207 -276h-58l-200 170l-201 -170h-58l207 276h103z" />
    <glyph glyph-name="uni06FA.init" unicode="&#x6fa;" horiz-adv-x="1324" 
d="M-18 0q-55 0 -55 45v52q0 47 55 47q48 0 112 20.5t132.5 60t134 96t118.5 130.5q12 18 17 18q2 0 2 -5t-1.5 -14t-4.5 -34q-7 -47 -7 -116q0 -76 31.5 -114t73.5 -38q33 0 67 22.5t61 68.5q45 76 64 178q10 61 21 61q8 0 11 -43q6 -100 81 -190q86 -105 207 -105
q56 0 76 20q-23 143 -160 361l111 122q144 -297 144 -565q0 -34 -49 -63q-48 -30 -111 -30q-188 0 -299 175q-57 -89 -128.5 -132t-136.5 -43q-72 0 -112.5 57t-45.5 151q-56 -53 -115.5 -90.5t-114.5 -60t-102.5 -32.5t-76.5 -10zM991 853l-121 -121l-121 121l121 121z
M681 853l-121 -121l-120 121l120 121zM835 1062l-119 -121l-121 121l121 120zM837 -310l-120 -121l-121 121l121 121z" />
    <glyph glyph-name="uni06FA.medi" unicode="&#x6fa;" horiz-adv-x="1272" 
d="M-18 0q-55 0 -55 45v52q0 47 55 47q48 0 112 20.5t132.5 60t134 96t118.5 130.5q12 18 17 18q2 0 2 -5t-1.5 -14t-4.5 -34q-7 -47 -7 -116q0 -76 31.5 -114t73.5 -38q33 0 67 22.5t61 68.5q45 76 64 178q10 61 21 61q8 0 11 -43q6 -100 81 -190q86 -105 207 -105
q56 0 76 20q-23 143 -160 361l111 122q144 -297 144 -565q0 -34 -49 -63q-48 -30 -111 -30q-188 0 -299 175q-57 -89 -128.5 -132t-136.5 -43q-72 0 -112.5 57t-45.5 151q-56 -53 -115.5 -90.5t-114.5 -60t-102.5 -32.5t-76.5 -10zM980 853l-120 -121l-121 121l121 121z
M670 853l-121 -121l-119 121l119 121zM825 1062l-120 -121l-121 121l121 120zM837 -310l-120 -121l-121 121l121 121z" />
    <glyph glyph-name="uni06FA.fina" unicode="&#x6fa;" horiz-adv-x="1833" 
d="M951 175q-122 -123 -258 -184t-264 -61q-71 0 -132 21t-106 62t-71 100t-26 135q0 117 77 231q58 86 145 157q70 57 83 57q9 0 9 -9q0 1 -32 -34q-166 -188 -166 -323q0 -59 18 -104t51.5 -76t79 -47t101.5 -16q76 0 156.5 25t153.5 75q52 35 106.5 81t102.5 104
q16 19 31 40l29 42q12 18 17 18q2 0 2 -5t-1.5 -14t-4.5 -34q-7 -47 -7 -116q0 -76 32 -114t74 -38q32 0 66.5 22.5t60.5 68.5q45 76 64 178q10 61 21 61q8 0 12 -43q5 -100 80 -190q87 -105 208 -105q55 0 75 20q-23 143 -160 361l111 122q144 -297 144 -565q0 -34 -48 -63
q-49 -30 -112 -30q-188 0 -298 175q-58 -89 -129.5 -132t-135.5 -43q-67 0 -108.5 47.5t-50.5 142.5zM1255 853l-121 -121l-121 121l121 121zM1564 853l-120 -121l-121 121l121 121zM1409 1062l-121 -121l-120 121l120 120zM1404 -310l-121 -121l-121 121l121 121z" />
    <glyph glyph-name="uni06FB.init" unicode="&#x6fb;" horiz-adv-x="1398" 
d="M-18 0q-55 0 -55 45v52q0 47 55 47q56 0 117.5 19t121.5 52t115 78.5t98 97.5l16.5 21t9.5 7t6 -6q0 -2 -3 -20.5t-3 -41.5q0 -88 49 -125q85 122 226 273q191 203 306 203q111 0 201 -160q94 -168 94 -402v-78q0 -44 -37 -60q-13 -5 -79 -17q-116 -20 -312 -20
q-307 0 -444 97q-38 -41 -107 -138q-7 -10 -14 -10q-6 0 -6 10q0 50 86 175q-18 17 -30.5 40t-17.5 40q-46 -45 -98 -79t-104.5 -56t-101.5 -33t-89 -11zM1251 175q0 72 -18 140t-54 127q-64 105 -138 105q-76 0 -197 -88.5t-287 -277.5q73 -60 347 -60q231 0 298 11
q49 10 49 43zM1030 1003l-121 -120l-121 120l121 121zM1027 -310l-121 -121l-121 121l121 121z" />
    <glyph glyph-name="uni06FB.medi" unicode="&#x6fb;" horiz-adv-x="1335" 
d="M-18 0q-55 0 -55 45v52q0 47 55 47q56 0 117.5 19t121.5 52t115 78.5t98 97.5l16.5 21t9.5 7t6 -6q0 -2 -3 -20.5t-3 -41.5q0 -88 49 -125q85 122 226 273q191 203 306 203q111 0 201 -160q94 -168 94 -402v-78q0 -44 -37 -60q-13 -5 -79 -17q-116 -20 -312 -20
q-307 0 -444 97q-38 -41 -107 -138q-7 -10 -14 -10q-6 0 -6 10q0 50 86 175q-18 17 -30.5 40t-17.5 40q-46 -45 -98 -79t-104.5 -56t-101.5 -33t-89 -11zM1251 175q0 72 -18 140t-54 127q-64 105 -138 105q-76 0 -197 -88.5t-287 -277.5q73 -60 347 -60q231 0 298 11
q49 10 49 43zM1030 1003l-121 -120l-121 120l121 121zM1027 -310l-121 -121l-121 121l121 121z" />
    <glyph glyph-name="uni06FB.fina" unicode="&#x6fb;" horiz-adv-x="1905" 
d="M1597 1003l-119 -120l-121 120l121 121zM946 168q-60 -60 -125 -104.5t-131 -74.5t-132 -44.5t-129 -14.5q-71 0 -132 21t-106 62t-71 100t-26 135q0 117 77 231q58 86 145 157q70 57 83 57q9 0 9 -9q0 1 -32 -34q-166 -188 -166 -323q0 -59 18 -104t51.5 -76t79 -47
t101.5 -16q76 0 156.5 25t153.5 75q43 29 87.5 65.5t88.5 81.5q14 15 27.5 29.5t26.5 30.5l18 21t11 7q4 0 6 -6q0 -2 -3 -20.5t-3 -41.5q0 -88 49 -125q84 122 226 273q190 203 306 203q110 0 201 -160q93 -168 93 -402v-78q0 -44 -36 -60q-13 -5 -79 -17
q-116 -20 -312 -20q-307 0 -444 97q-38 -41 -107 -138q-8 -10 -14 -10t-6 10q0 50 86 175q-15 17 -26.5 34.5t-19.5 34.5zM1819 175q0 72 -18 140t-53 127q-64 105 -138 105q-77 0 -198 -88.5t-287 -277.5q74 -60 347 -60q232 0 299 11q48 10 48 43zM1604 -310l-121 -121
l-121 121l121 121z" />
    <glyph glyph-name="uni06FC.init" unicode="&#x6fc;" horiz-adv-x="985" 
d="M645 1151l-120 -121l-121 121l121 121zM922 160q-78 6 -133 6q-153 0 -287.5 -19t-262.5 -53q-60 -16 -105.5 -33t-76.5 -30.5t-49.5 -22t-26.5 -8.5q-13 0 -18.5 3.5t-5.5 15.5v108q14 8 47 23.5t77 33.5t95.5 34.5t104.5 27.5q-84 113 -84 225q0 63 27.5 123.5
t93.5 126.5q27 28 58 49t63 34.5t62.5 20.5t57.5 7q53 0 98.5 -18t95.5 -64q78 -74 78 -102q0 -9 -7 -9q-2 0 -5.5 1.5t-12 5.5t-22.5 9t-37 13q-37 11 -81 15t-92 4q-24 0 -51.5 -3t-55.5 -9t-55 -16t-49 -26q-47 -33 -69 -54t-22 -38q0 -36 48 -106q62 -88 156 -145
q58 8 125.5 14t144.5 6q111 0 176 -6v-144zM581 -260l-120 -120l-120 120l120 121z" />
    <glyph glyph-name="uni06FC.medi" unicode="&#x6fc;" horiz-adv-x="1079" 
d="M-18 0q-55 0 -55 45v52q0 47 55 47q31 0 84.5 7.5t121.5 24.5t148 46t164 71q-64 53 -126 85.5t-115 32.5q-31 0 -51 -4l17 146q209 134 443 134q210 0 407 -134l-51 -156q-73 -10 -145 -47.5t-148 -81.5q90 -65 169.5 -94.5t152.5 -29.5h27v-125q0 -8 -7 -13.5t-19 -5.5
q-55 0 -107 12.5t-105.5 39t-112 65.5t-124.5 92q-108 -61 -206.5 -101t-180.5 -64t-144.5 -34t-91.5 -10zM914 494q-45 33 -106.5 54t-147.5 21q-195 0 -298 -72q33 -7 66.5 -22.5t67 -36t68 -44.5t68.5 -49q65 37 133 75t149 63v11zM760 1056l-121 -121l-120 121l120 119z
M729 -260l-121 -120l-120 120l120 121z" />
    <glyph glyph-name="uni06FC.fina" unicode="&#x6fc;" horiz-adv-x="1291" 
d="M969 1056l-120 -121l-121 121l121 119zM496 67q-320 -151 -320 -330q0 -102 73 -229q17 -32 31 -53.5t23 -34.5l13.5 -19.5t4.5 -9.5q0 -8 -6 -8q-10 0 -35 25q-207 207 -207 370q0 234 308 382l295 142q-61 48 -119 78.5t-109 30.5q-31 0 -51 -4l17 146q209 134 443 134
q211 0 407 -134l-51 -156q-73 -10 -145 -47.5t-148 -81.5q90 -65 172.5 -94.5t170.5 -29.5h27v-125q0 -8 -8 -13.5t-20 -5.5q-62 0 -117.5 12.5t-111.5 39t-114.5 65.5t-124.5 92zM1103 494q-45 33 -106.5 54t-147.5 21q-195 0 -298 -72q33 -7 66.5 -22.5t67.5 -36t68 -44.5
t69 -49q64 37 132 75t149 63v11zM953 -239l-121 -120l-121 120l121 121z" />
    <glyph glyph-name="uni06FF.init" unicode="&#x6ff;" horiz-adv-x="985" 
d="M-18 0q-55 0 -55 45v52q0 47 55 47q20 0 62.5 4.5t93 13.5t101.5 23.5t89 33.5q-40 41 -63 86t-23 102q0 120 80 231q77 105 172 137q-28 24 -67 24q8 29 48 73q42 47 72 47q35 0 111 -95q74 -93 123 -191q142 -296 142 -562q0 -71 -76 -71q-79 0 -181.5 33t-227.5 103
q-54 -34 -119.5 -59t-129 -42t-119 -26t-88.5 -9zM595 446q0 67 -28 137q-27 70 -51 70q-63 0 -137 -59q-72 -59 -72 -103q0 -43 63 -117q61 -72 101 -72q28 0 75 55q49 55 49 89zM836 183q0 39 -35 137q-23 64 -52 119t-64 103q-8 -74 -47 -173q-37 -91 -67 -128
q54 -37 136 -63q68 -23 101 -23q28 0 28 28zM585 1283l207 -277h-58l-200 170l-201 -170h-58l207 277h103z" />
    <glyph glyph-name="uni06FF.medi" unicode="&#x6ff;" horiz-adv-x="922" 
d="M-18 0q-55 0 -55 45v52q0 47 55 47q20 0 62.5 4.5t93 13.5t101.5 23.5t89 33.5q-40 41 -63 86t-23 102q0 120 80 231q77 105 172 137q-28 24 -67 24q8 29 48 73q42 47 72 47q35 0 111 -95q74 -93 123 -191q142 -296 142 -562q0 -71 -76 -71q-79 0 -181.5 33t-227.5 103
q-54 -34 -119.5 -59t-129 -42t-119 -26t-88.5 -9zM595 446q0 67 -28 137q-27 70 -51 70q-63 0 -137 -59q-72 -59 -72 -103q0 -43 63 -117q61 -72 101 -72q28 0 75 55q49 55 49 89zM836 183q0 39 -35 137q-23 64 -52 119t-64 103q-8 -74 -47 -173q-37 -91 -67 -128
q54 -37 136 -63q68 -23 101 -23q28 0 28 28zM585 1283l207 -277h-58l-200 170l-201 -170h-58l207 277h103z" />
    <glyph glyph-name="uni06FF.fina" unicode="&#x6ff;" horiz-adv-x="1077" 
d="M1077 71q0 -71 -76 -71q-159 0 -398 130q-78 -49 -157.5 -88.5t-164.5 -71.5q-17 -7 -33 -11.5t-31 -4.5q-11 0 -30.5 6t-49.5 21l-99 46q175 60 288 106.5t163 78.5q-92 86 -92 195q0 120 79 231q77 105 172 137q-28 24 -66 24q7 29 47 73q42 47 72 47q35 0 111 -95
q74 -93 123 -191q142 -296 142 -562zM991 183q0 39 -36 137q-23 64 -52 119t-64 103q-8 -74 -47 -173q-37 -91 -66 -128q53 -37 135 -63q69 -23 101 -23q29 0 29 28zM749 446q0 67 -28 137q-27 70 -51 70q-63 0 -137 -59q-72 -59 -72 -103q0 -43 63 -117q61 -72 101 -72
q28 0 75 55q49 55 49 89zM731 1283l207 -277h-58l-201 170l-200 -170h-58l207 277h103z" />
    <glyph glyph-name="uniFB50" unicode="&#x671;" horiz-adv-x="399" arabic-form="isolated" 
d="M295 11l-72 -65l-3 106q-4 188 -41 503q-41 354 -94 599l113 116q97 -614 97 -1044v-215zM346 1536q0 -49 -25 -94q-11 -18 -31.5 -33.5t-48 -26.5t-60 -17t-68.5 -6q-43 0 -65 3.5t-27 3.5q-16 0 -35 -24.5t-49 -63.5q-4 -4 -8 -4q-5 0 -5 8q0 3 1.5 10t4 17t6 21.5
t6.5 20.5q20 63 47.5 92.5t42.5 29.5q13 0 17 -2q44 106 93.5 163t103.5 57q19 0 36.5 -10t32 -29.5t23 -48.5t8.5 -67zM226 1591q-67 0 -147 -131q14 -3 30.5 -4t34.5 -1q20 0 45.5 4t49.5 12t41.5 17.5t23.5 21.5q-11 40 -31.5 60.5t-46.5 20.5z" />
    <glyph glyph-name="uniFB51" unicode="&#x671;" horiz-adv-x="315" arabic-form="final" 
d="M316 7l-91 -61l-5 106q-3 94 -13 219t-28 284q-41 354 -94 599l113 116q49 -309 75 -568t26 -476v-82h17v-137zM346 1536q0 -49 -25 -94q-11 -18 -31.5 -33.5t-48 -26.5t-60 -17t-68.5 -6q-43 0 -65 3.5t-27 3.5q-16 0 -35 -24.5t-49 -63.5q-4 -4 -8 -4q-5 0 -5 8
q0 3 1.5 10t4 17t6 21.5t6.5 20.5q20 63 47.5 92.5t42.5 29.5q13 0 17 -2q44 106 93.5 163t103.5 57q19 0 36.5 -10t32 -29.5t23 -48.5t8.5 -67zM226 1591q-67 0 -147 -131q14 -3 30.5 -4t34.5 -1q20 0 45.5 4t49.5 12t41.5 17.5t23.5 21.5q-11 40 -31.5 60.5t-46.5 20.5z
" />
    <glyph glyph-name="uniFB52" unicode="&#x67b;" horiz-adv-x="1377" arabic-form="isolated" 
d="M408 0q-152 0 -233 61t-81 182q0 79 30 142.5t80 120.5q22 23 47 44.5t47 38.5t38 26t19 9q8 0 8 -10q0 -3 -12.5 -15.5t-30.5 -31.5q-51 -56 -86.5 -120.5t-35.5 -134.5q0 -52 18.5 -85.5t54.5 -51.5q30 -17 69.5 -24t67.5 -7h808q8 0 10.5 3t2.5 11q0 7 -14 43
t-39 89.5t-58.5 117.5t-70.5 128l113 117q10 -12 26 -45.5t34 -80.5t37 -101t33.5 -105.5t24 -95.5t9.5 -70v-97q0 -33 -18.5 -45.5t-57.5 -12.5h-840zM781 -355l-121 120l121 120l119 -120zM781 -597l-121 120l121 121l119 -121z" />
    <glyph glyph-name="uniFB53" unicode="&#x67b;" horiz-adv-x="1324" arabic-form="final" 
d="M408 0q-152 0 -233 61t-81 182q0 79 30 142.5t80 120.5q22 23 47 44.5t47 38.5t38 26t19 9q8 0 8 -10q0 -3 -12.5 -15.5t-30.5 -31.5q-51 -56 -86.5 -120.5t-35.5 -134.5q0 -52 18.5 -85.5t54.5 -51.5q30 -17 69.5 -24t67.5 -7h808q8 0 10.5 3t2.5 11q0 7 -14 43
t-39 89.5t-58.5 117.5t-70.5 128l113 117q10 -12 26 -45.5t34 -80.5t37 -101t33.5 -105.5t24 -95.5t9.5 -70v-97q0 -33 -18.5 -45.5t-57.5 -12.5h-840zM781 -349l-121 120l121 121l119 -121zM781 -597l-121 120l121 121l119 -121z" />
    <glyph glyph-name="uniFB54" unicode="&#x67b;" horiz-adv-x="769" arabic-form="initial" 
d="M-18 0q-55 0 -55 45v52q0 47 55 47h628q9 0 11 3t2 11q0 7 -14 43t-39.5 89.5t-58.5 117.5t-71 128l114 117q9 -12 25.5 -45.5t34 -80.5t36.5 -101t34 -105.5t24.5 -95.5t9.5 -70v-97q0 -33 -18.5 -45.5t-57.5 -12.5h-660zM368 -352l-121 120l121 121l119 -121zM368 -597
l-121 120l121 121l119 -121z" />
    <glyph glyph-name="uniFB55" unicode="&#x67b;" horiz-adv-x="717" arabic-form="medial" 
d="M-18 0q-55 0 -55 45v52q0 47 55 47h628q9 0 11 3t2 11q0 7 -14 43t-39.5 89.5t-58.5 117.5t-71 128l114 117q9 -12 25.5 -45.5t34 -80.5t36.5 -101t34 -105.5t24.5 -95.5t9.5 -70v-97q0 -33 -18.5 -45.5t-57.5 -12.5h-660zM368 -350l-121 120l121 121l119 -121zM368 -597
l-121 120l121 121l119 -121z" />
    <glyph glyph-name="uniFB56" unicode="&#x67e;" horiz-adv-x="1377" arabic-form="isolated" 
d="M408 0q-152 0 -233 61t-81 182q0 79 30 142.5t80 120.5q22 23 47 44.5t47 38.5t38 26t19 9q8 0 8 -10q0 -3 -12.5 -15.5t-30.5 -31.5q-51 -56 -86.5 -120.5t-35.5 -134.5q0 -52 18.5 -85.5t54.5 -51.5q30 -17 69.5 -24t67.5 -7h808q8 0 10.5 3t2.5 11q0 7 -14 43
t-39 89.5t-58.5 117.5t-70.5 128l113 117q10 -12 26 -45.5t34 -80.5t37 -101t33.5 -105.5t24 -95.5t9.5 -70v-97q0 -33 -18.5 -45.5t-57.5 -12.5h-840zM781 -555l-121 120l121 121l119 -121zM914 -349l-121 121l121 121l120 -121zM647 -349l-121 121l121 121l120 -121z" />
    <glyph glyph-name="uniFB57" unicode="&#x67e;" horiz-adv-x="1324" arabic-form="final" 
d="M408 0q-152 0 -233 61t-81 182q0 79 30 142.5t80 120.5q22 23 47 44.5t47 38.5t38 26t19 9q8 0 8 -10q0 -3 -12.5 -15.5t-30.5 -31.5q-51 -56 -86.5 -120.5t-35.5 -134.5q0 -52 18.5 -85.5t54.5 -51.5q30 -17 69.5 -24t67.5 -7h808q8 0 10.5 3t2.5 11q0 7 -14 43
t-39 89.5t-58.5 117.5t-70.5 128l113 117q10 -12 26 -45.5t34 -80.5t37 -101t33.5 -105.5t24 -95.5t9.5 -70v-97q0 -33 -18.5 -45.5t-57.5 -12.5h-840zM781 -555l-121 120l121 121l119 -121zM914 -349l-121 121l121 121l120 -121zM647 -349l-121 121l121 121l120 -121z" />
    <glyph glyph-name="uniFB58" unicode="&#x67e;" horiz-adv-x="769" arabic-form="initial" 
d="M-18 0q-55 0 -55 45v52q0 47 55 47h628q9 0 11 3t2 11q0 7 -14 43t-39.5 89.5t-58.5 117.5t-71 128l114 117q9 -12 25.5 -45.5t34 -80.5t36.5 -101t34 -105.5t24.5 -95.5t9.5 -70v-97q0 -33 -18.5 -45.5t-57.5 -12.5h-660zM234 -349l-121 121l121 121l120 -121zM501 -349
l-121 121l121 121l120 -121zM368 -555l-121 120l121 121l119 -121z" />
    <glyph glyph-name="uniFB59" unicode="&#x67e;" horiz-adv-x="717" arabic-form="medial" 
d="M-18 0q-55 0 -55 45v52q0 47 55 47h628q9 0 11 3t2 11q0 7 -14 43t-39.5 89.5t-58.5 117.5t-71 128l114 117q9 -12 25.5 -45.5t34 -80.5t36.5 -101t34 -105.5t24.5 -95.5t9.5 -70v-97q0 -33 -18.5 -45.5t-57.5 -12.5h-660zM234 -349l-121 121l121 121l120 -121zM501 -349
l-121 121l121 121l120 -121zM368 -555l-121 120l121 121l119 -121z" />
    <glyph glyph-name="uniFB5A" unicode="&#x680;" horiz-adv-x="1377" arabic-form="isolated" 
d="M408 0q-152 0 -233 61t-81 182q0 79 30 142.5t80 120.5q22 23 47 44.5t47 38.5t38 26t19 9q8 0 8 -10q0 -3 -12.5 -15.5t-30.5 -31.5q-51 -56 -86.5 -120.5t-35.5 -134.5q0 -52 18.5 -85.5t54.5 -51.5q30 -17 69.5 -24t67.5 -7h808q8 0 10.5 3t2.5 11q0 7 -14 43
t-39 89.5t-58.5 117.5t-70.5 128l113 117q10 -12 26 -45.5t34 -80.5t37 -101t33.5 -105.5t24 -95.5t9.5 -70v-97q0 -33 -18.5 -45.5t-57.5 -12.5h-840zM914 -600l-121 121l121 120l120 -120zM647 -600l-121 121l121 120l120 -120zM914 -349l-121 121l121 121l120 -121z
M647 -349l-121 121l121 121l120 -121z" />
    <glyph glyph-name="uniFB5B" unicode="&#x680;" horiz-adv-x="1324" arabic-form="final" 
d="M408 0q-152 0 -233 61t-81 182q0 79 30 142.5t80 120.5q22 23 47 44.5t47 38.5t38 26t19 9q8 0 8 -10q0 -3 -12.5 -15.5t-30.5 -31.5q-51 -56 -86.5 -120.5t-35.5 -134.5q0 -52 18.5 -85.5t54.5 -51.5q30 -17 69.5 -24t67.5 -7h808q8 0 10.5 3t2.5 11q0 7 -14 43
t-39 89.5t-58.5 117.5t-70.5 128l113 117q10 -12 26 -45.5t34 -80.5t37 -101t33.5 -105.5t24 -95.5t9.5 -70v-97q0 -33 -18.5 -45.5t-57.5 -12.5h-840zM914 -600l-121 121l121 120l120 -120zM647 -600l-121 121l121 120l120 -120zM914 -349l-121 121l121 121l120 -121z
M647 -349l-121 121l121 121l120 -121z" />
    <glyph glyph-name="uniFB5C" unicode="&#x680;" horiz-adv-x="769" arabic-form="initial" 
d="M-18 0q-55 0 -55 45v52q0 47 55 47h628q9 0 11 3t2 11q0 7 -14 43t-39.5 89.5t-58.5 117.5t-71 128l114 117q9 -12 25.5 -45.5t34 -80.5t36.5 -101t34 -105.5t24.5 -95.5t9.5 -70v-97q0 -33 -18.5 -45.5t-57.5 -12.5h-660zM231 -600l-121 121l121 120l120 -120zM498 -600
l-121 121l121 120l120 -120zM234 -349l-121 121l121 121l120 -121zM501 -349l-121 121l121 121l120 -121z" />
    <glyph glyph-name="uniFB5D" unicode="&#x680;" horiz-adv-x="717" arabic-form="medial" 
d="M-18 0q-55 0 -55 45v52q0 47 55 47h628q9 0 11 3t2 11q0 7 -14 43t-39.5 89.5t-58.5 117.5t-71 128l114 117q9 -12 25.5 -45.5t34 -80.5t36.5 -101t34 -105.5t24.5 -95.5t9.5 -70v-97q0 -33 -18.5 -45.5t-57.5 -12.5h-660zM234 -600l-121 121l121 120l120 -120zM501 -600
l-121 121l121 120l120 -120zM234 -349l-121 121l121 121l120 -121zM501 -349l-121 121l121 121l120 -121z" />
    <glyph glyph-name="uniFB5E" unicode="&#x67a;" horiz-adv-x="1377" arabic-form="isolated" 
d="M927 916l-121 -121l-120 121l120 121zM1324 58q0 -58 -76 -58h-840q-314 0 -314 243q0 142 110 263q38 42 94 83q48 35 57 35q8 0 8 -10q0 -2 -43 -47q-122 -132 -122 -255q0 -99 73 -137q56 -31 137 -31h808q13 0 13 14q0 18 -53 132q-61 132 -129 246l113 117
q32 -38 97 -226q67 -198 67 -272v-97zM927 1161l-121 -121l-120 121l120 121z" />
    <glyph glyph-name="uniFB5F" unicode="&#x67a;" horiz-adv-x="1324" arabic-form="final" 
d="M930 916l-121 -121l-120 121l120 121zM1324 58q0 -58 -76 -58h-840q-314 0 -314 243q0 142 110 263q38 42 94 83q48 35 57 35q8 0 8 -10q0 -2 -43 -47q-122 -132 -122 -255q0 -99 73 -137q56 -31 137 -31h808q13 0 13 14q0 18 -53 132q-61 132 -129 246l113 117
q32 -38 97 -226q67 -198 67 -272v-97zM927 1161l-121 -121l-120 121l120 121z" />
    <glyph glyph-name="uniFB60" unicode="&#x67a;" horiz-adv-x="769" arabic-form="initial" 
d="M501 917l-120 -121l-121 121l121 121zM718 58q0 -58 -76 -58h-660q-55 0 -55 45v52q0 47 55 47h628q13 0 13 14q0 18 -54 132q-61 132 -129 246l114 117q32 -38 96 -226q68 -198 68 -272v-97zM501 1161l-120 -121l-121 121l121 121z" />
    <glyph glyph-name="uniFB61" unicode="&#x67a;" horiz-adv-x="717" arabic-form="medial" 
d="M501 916l-120 -121l-121 121l121 121zM718 58q0 -58 -76 -58h-660q-55 0 -55 45v52q0 47 55 47h628q13 0 13 14q0 18 -54 132q-61 132 -129 246l114 117q32 -38 96 -226q68 -198 68 -272v-97zM501 1161l-120 -121l-121 121l121 121z" />
    <glyph glyph-name="uniFB62" unicode="&#x67f;" horiz-adv-x="1377" arabic-form="isolated" 
d="M942 796l-119 120l119 121l121 -121zM675 796l-119 120l119 121l121 -121zM1324 58q0 -58 -76 -58h-840q-314 0 -314 243q0 142 110 263q38 42 94 83q48 35 57 35q8 0 8 -10q0 -2 -43 -47q-122 -132 -122 -255q0 -99 73 -137q56 -31 137 -31h808q13 0 13 14q0 18 -53 132
q-61 132 -129 246l113 117q32 -38 97 -226q67 -198 67 -272v-97zM939 1041l-120 120l120 121l121 -121zM672 1041l-120 120l120 121l121 -121z" />
    <glyph glyph-name="uniFB63" unicode="&#x67f;" horiz-adv-x="1324" arabic-form="final" 
d="M939 796l-120 120l120 121l121 -121zM672 796l-120 120l120 121l121 -121zM1324 58q0 -58 -76 -58h-840q-314 0 -314 243q0 142 110 263q38 42 94 83q48 35 57 35q8 0 8 -10q0 -2 -43 -47q-122 -132 -122 -255q0 -99 73 -137q56 -31 137 -31h808q13 0 13 14q0 18 -53 132
q-61 132 -129 246l113 117q32 -38 97 -226q67 -198 67 -272v-97zM939 1041l-120 120l120 121l121 -121zM672 1041l-120 120l120 121l121 -121z" />
    <glyph glyph-name="uniFB64" unicode="&#x67f;" horiz-adv-x="769" arabic-form="initial" 
d="M518 793l-121 120l121 120l120 -120zM251 793l-121 120l121 120l120 -120zM718 58q0 -58 -76 -58h-660q-55 0 -55 45v52q0 47 55 47h628q13 0 13 14q0 18 -54 132q-61 132 -129 246l114 117q32 -38 96 -226q68 -198 68 -272v-97zM515 1041l-121 120l121 121l120 -121z
M248 1041l-121 120l121 121l120 -121z" />
    <glyph glyph-name="uniFB65" unicode="&#x67f;" horiz-adv-x="717" arabic-form="medial" 
d="M515 793l-121 120l121 120l120 -120zM248 793l-121 120l121 120l120 -120zM718 58q0 -58 -76 -58h-660q-55 0 -55 45v52q0 47 55 47h628q13 0 13 14q0 18 -54 132q-61 132 -129 246l114 117q32 -38 96 -226q68 -198 68 -272v-97zM515 1041l-121 120l121 121l120 -121z
M248 1041l-121 120l121 121l120 -121z" />
    <glyph glyph-name="uniFB66" unicode="&#x679;" horiz-adv-x="1377" arabic-form="isolated" 
d="M1324 58q0 -58 -76 -58h-840q-314 0 -314 243q0 142 110 263q38 42 94 83q48 35 57 35q8 0 8 -10q0 -2 -43 -47q-122 -132 -122 -255q0 -99 73 -137q56 -31 137 -31h808q13 0 13 14q0 18 -53 132q-61 132 -129 246l113 117q32 -38 97 -226q67 -198 67 -272v-97zM753 1318
q9 -60 14 -112.5t5 -86.5q0 -28 -1 -48.5t-4 -38.5l2 -1q18 34 39 60t42.5 43.5t42 26.5t37.5 9q29 0 49 -15.5t32.5 -39.5t18 -50.5t5.5 -47.5q0 -48 -21 -81.5t-55 -51.5q-49 -25 -101 -36.5t-95 -11.5q-59 0 -93.5 22.5t-66.5 69.5q24 -2 45 -2h43q12 15 18.5 31.5
t6.5 34.5q0 33 -6 101t-22 166zM912 1076q-20 0 -42 -11.5t-44 -31.5t-43.5 -47.5t-41.5 -60.5q36 0 75.5 5.5t75 15t62.5 21.5t40 27q-8 39 -31.5 60.5t-50.5 21.5z" />
    <glyph glyph-name="uniFB67" unicode="&#x679;" horiz-adv-x="1324" arabic-form="final" 
d="M1324 58q0 -58 -76 -58h-840q-314 0 -314 243q0 142 110 263q38 42 94 83q48 35 57 35q8 0 8 -10q0 -2 -43 -47q-122 -132 -122 -255q0 -99 73 -137q56 -31 137 -31h808q13 0 13 14q0 18 -53 132q-61 132 -129 246l113 117q32 -38 97 -226q67 -198 67 -272v-97zM753 1318
q9 -60 14 -112.5t5 -86.5q0 -28 -1 -48.5t-4 -38.5l2 -1q18 34 39 60t42.5 43.5t42 26.5t37.5 9q29 0 49 -15.5t32.5 -39.5t18 -50.5t5.5 -47.5q0 -48 -21 -81.5t-55 -51.5q-49 -25 -101 -36.5t-95 -11.5q-59 0 -93.5 22.5t-66.5 69.5q24 -2 45 -2h43q12 15 18.5 31.5
t6.5 34.5q0 33 -6 101t-22 166zM912 1076q-20 0 -42 -11.5t-44 -31.5t-43.5 -47.5t-41.5 -60.5q36 0 75.5 5.5t75 15t62.5 21.5t40 27q-8 39 -31.5 60.5t-50.5 21.5z" />
    <glyph glyph-name="uniFB68" unicode="&#x679;" horiz-adv-x="769" arabic-form="initial" 
d="M718 58q0 -58 -76 -58h-660q-55 0 -55 45v52q0 47 55 47h628q13 0 13 14q0 18 -54 132q-61 132 -129 246l114 117q32 -38 96 -226q68 -198 68 -272v-97zM302 1318q9 -60 14 -112.5t5 -86.5q0 -28 -1 -48.5t-4 -38.5l2 -1q18 34 39 60t42.5 43.5t42 26.5t37.5 9
q29 0 49 -15.5t33 -39.5t18 -50.5t5 -47.5q0 -48 -21 -81.5t-55 -51.5q-49 -25 -101 -36.5t-95 -11.5q-59 0 -93 22.5t-67 69.5q24 -2 45 -2h43q12 15 19 31.5t7 34.5q0 33 -6.5 101t-22.5 166zM461 1076q-20 0 -42 -11.5t-44 -31.5t-43.5 -47.5t-41.5 -60.5q37 0 76 5.5
t74.5 15t62.5 21.5t40 27q-8 39 -31.5 60.5t-50.5 21.5z" />
    <glyph glyph-name="uniFB69" unicode="&#x679;" horiz-adv-x="717" arabic-form="medial" 
d="M718 58q0 -58 -76 -58h-660q-55 0 -55 45v52q0 47 55 47h628q13 0 13 14q0 18 -54 132q-61 132 -129 246l114 117q32 -38 96 -226q68 -198 68 -272v-97zM302 1318q9 -60 14 -112.5t5 -86.5q0 -28 -1 -48.5t-4 -38.5l2 -1q18 34 39 60t42.5 43.5t42 26.5t37.5 9
q29 0 49 -15.5t33 -39.5t18 -50.5t5 -47.5q0 -48 -21 -81.5t-55 -51.5q-49 -25 -101 -36.5t-95 -11.5q-59 0 -93 22.5t-67 69.5q24 -2 45 -2h43q12 15 19 31.5t7 34.5q0 33 -6.5 101t-22.5 166zM461 1076q-20 0 -42 -11.5t-44 -31.5t-43.5 -47.5t-41.5 -60.5q37 0 76 5.5
t74.5 15t62.5 21.5t40 27q-8 39 -31.5 60.5t-50.5 21.5z" />
    <glyph glyph-name="uniFB6A" unicode="&#x6a4;" horiz-adv-x="1387" arabic-form="isolated" 
d="M408 0q-314 0 -314 243q0 141 110 263q19 21 43 41.5t51 41.5q48 35 57 35q8 0 8 -10q0 -1 -43 -47q-122 -132 -122 -255q0 -99 73 -137q57 -31 137 -31h780v5q-6 18 -29 33.5t-53 28t-61.5 23t-54.5 18.5q-42 16 -74.5 34t-55 41t-34 53.5t-11.5 71.5q0 57 26 114.5
t71 111.5q39 45 82.5 72t79.5 27q46 0 83 -30t65 -86q55 -106 78.5 -234.5t23.5 -282.5v-43q0 -54 -21.5 -77.5t-72.5 -23.5h-822zM1032 632q-29 0 -53 -11.5t-42 -30t-28 -40.5t-10 -42q0 -31 19.5 -52.5t50.5 -38t69.5 -31t75.5 -29.5t68 -33.5t47 -43.5l5 1
q-12 85 -33.5 150t-48.5 110t-58 68t-62 23zM1139 1234l-120 -121l-121 121l121 121zM1273 1006l-120 -121l-121 121l121 120zM1006 1006l-120 -121l-121 121l121 120z" />
    <glyph glyph-name="uniFB6B" unicode="&#x6a4;" horiz-adv-x="1324" arabic-form="final" 
d="M408 0q-314 0 -314 243q0 141 110 263q19 21 43 41.5t51 41.5q48 35 57 35q8 0 8 -10q0 -1 -43 -47q-122 -132 -122 -255q0 -99 73 -137q57 -31 137 -31h780v5q-6 18 -29 33.5t-53 28t-61.5 23t-54.5 18.5q-42 16 -74.5 34t-55 41t-34 53.5t-11.5 71.5q0 57 26 114.5
t71 111.5q39 45 82.5 72t79.5 27q46 0 83 -30t65 -86q55 -106 78.5 -234.5t23.5 -282.5v-43q0 -54 -21.5 -77.5t-72.5 -23.5h-822zM1032 632q-29 0 -53 -11.5t-42 -30t-28 -40.5t-10 -42q0 -31 19.5 -52.5t50.5 -38t69.5 -31t75.5 -29.5t68 -33.5t47 -43.5l5 1
q-12 85 -33.5 150t-48.5 110t-58 68t-62 23zM1139 1234l-120 -121l-121 121l121 121zM1273 1006l-120 -121l-121 121l121 120zM1006 1006l-120 -121l-121 121l121 120z" />
    <glyph glyph-name="uniFB6C" unicode="&#x6a4;" horiz-adv-x="780" arabic-form="initial" 
d="M-18 0q-55 0 -55 45v52q0 47 55 47h600v5q-6 18 -29.5 33.5t-53.5 28t-61.5 23t-54.5 18.5q-42 16 -74.5 34t-54.5 41t-33.5 53.5t-11.5 71.5q0 57 25.5 114.5t70.5 111.5q39 45 83 72t79 27q47 0 83.5 -30t65.5 -86q54 -106 78 -234.5t24 -282.5v-43q0 -54 -22 -77.5
t-72 -23.5h-642zM425 632q-28 0 -52 -11.5t-42 -30t-28 -40.5t-10 -42q0 -31 19.5 -52.5t50.5 -38t69.5 -31t75 -29.5t67.5 -33.5t48 -43.5l4 1q-11 85 -32.5 150t-48.5 110t-58 68t-63 23zM533 1234l-120 -121l-121 121l121 121zM666 1006l-120 -121l-121 121l121 120z
M399 1006l-120 -121l-121 121l121 120z" />
    <glyph glyph-name="uniFB6D" unicode="&#x6a4;" horiz-adv-x="717" arabic-form="medial" 
d="M-18 0q-55 0 -55 45v52q0 47 55 47h600v5q-6 18 -29.5 33.5t-53.5 28t-61.5 23t-54.5 18.5q-42 16 -74.5 34t-54.5 41t-33.5 53.5t-11.5 71.5q0 57 25.5 114.5t70.5 111.5q39 45 83 72t79 27q47 0 83.5 -30t65.5 -86q54 -106 78 -234.5t24 -282.5v-43q0 -54 -22 -77.5
t-72 -23.5h-642zM425 632q-28 0 -52 -11.5t-42 -30t-28 -40.5t-10 -42q0 -31 19.5 -52.5t50.5 -38t69.5 -31t75 -29.5t67.5 -33.5t48 -43.5l4 1q-11 85 -32.5 150t-48.5 110t-58 68t-63 23zM533 1234l-120 -121l-121 121l121 121zM666 1006l-120 -121l-121 121l121 120z
M399 1006l-120 -121l-121 121l121 120z" />
    <glyph glyph-name="uniFB6E" unicode="&#x6a6;" horiz-adv-x="1387" arabic-form="isolated" 
d="M408 0q-314 0 -314 243q0 141 110 263q19 21 43 41.5t51 41.5q48 35 57 35q8 0 8 -10q0 -1 -43 -47q-122 -132 -122 -255q0 -99 73 -137q57 -31 137 -31h780v5q-6 18 -29 33.5t-53 28t-61.5 23t-54.5 18.5q-42 16 -74.5 34t-55 41t-34 53.5t-11.5 71.5q0 57 26 114.5
t71 111.5q39 45 82.5 72t79.5 27q46 0 83 -30t65 -86q55 -106 78.5 -234.5t23.5 -282.5v-43q0 -54 -21.5 -77.5t-72.5 -23.5h-822zM1032 632q-29 0 -53 -11.5t-42 -30t-28 -40.5t-10 -42q0 -31 19.5 -52.5t50.5 -38t69.5 -31t75.5 -29.5t68 -33.5t47 -43.5l5 1
q-12 85 -33.5 150t-48.5 110t-58 68t-62 23zM1273 1251l-120 -121l-121 121l121 120zM1006 1251l-120 -121l-121 121l121 120zM1273 1006l-120 -121l-121 121l121 120zM1006 1006l-120 -121l-121 121l121 120z" />
    <glyph glyph-name="uniFB6F" unicode="&#x6a6;" horiz-adv-x="1324" arabic-form="final" 
d="M408 0q-314 0 -314 243q0 141 110 263q19 21 43 41.5t51 41.5q48 35 57 35q8 0 8 -10q0 -1 -43 -47q-122 -132 -122 -255q0 -99 73 -137q57 -31 137 -31h780v5q-6 18 -29 33.5t-53 28t-61.5 23t-54.5 18.5q-42 16 -74.5 34t-55 41t-34 53.5t-11.5 71.5q0 57 26 114.5
t71 111.5q39 45 82.5 72t79.5 27q46 0 83 -30t65 -86q55 -106 78.5 -234.5t23.5 -282.5v-43q0 -54 -21.5 -77.5t-72.5 -23.5h-822zM1032 632q-29 0 -53 -11.5t-42 -30t-28 -40.5t-10 -42q0 -31 19.5 -52.5t50.5 -38t69.5 -31t75.5 -29.5t68 -33.5t47 -43.5l5 1
q-12 85 -33.5 150t-48.5 110t-58 68t-62 23zM1273 1254l-120 -121l-121 121l121 120zM1006 1254l-120 -121l-121 121l121 120zM1273 1006l-120 -121l-121 121l121 120zM1006 1006l-120 -121l-121 121l121 120z" />
    <glyph glyph-name="uniFB70" unicode="&#x6a6;" horiz-adv-x="780" arabic-form="initial" 
d="M-18 0q-55 0 -55 45v52q0 47 55 47h600v5q-6 18 -29.5 33.5t-53.5 28t-61.5 23t-54.5 18.5q-42 16 -74.5 34t-54.5 41t-33.5 53.5t-11.5 71.5q0 57 25.5 114.5t70.5 111.5q39 45 83 72t79 27q47 0 83.5 -30t65.5 -86q54 -106 78 -234.5t24 -282.5v-43q0 -54 -22 -77.5
t-72 -23.5h-642zM425 632q-28 0 -52 -11.5t-42 -30t-28 -40.5t-10 -42q0 -31 19.5 -52.5t50.5 -38t69.5 -31t75 -29.5t67.5 -33.5t48 -43.5l4 1q-11 85 -32.5 150t-48.5 110t-58 68t-63 23zM669 1254l-120 -121l-121 121l121 120zM402 1254l-120 -121l-121 121l121 120z
M666 1006l-120 -121l-121 121l121 120zM399 1006l-120 -121l-121 121l121 120z" />
    <glyph glyph-name="uniFB71" unicode="&#x6a6;" horiz-adv-x="717" arabic-form="medial" 
d="M-18 0q-55 0 -55 45v52q0 47 55 47h600v5q-6 18 -29.5 33.5t-53.5 28t-61.5 23t-54.5 18.5q-42 16 -74.5 34t-54.5 41t-33.5 53.5t-11.5 71.5q0 57 25.5 114.5t70.5 111.5q39 45 83 72t79 27q47 0 83.5 -30t65.5 -86q54 -106 78 -234.5t24 -282.5v-43q0 -54 -22 -77.5
t-72 -23.5h-642zM425 632q-28 0 -52 -11.5t-42 -30t-28 -40.5t-10 -42q0 -31 19.5 -52.5t50.5 -38t69.5 -31t75 -29.5t67.5 -33.5t48 -43.5l4 1q-11 85 -32.5 150t-48.5 110t-58 68t-63 23zM666 1254l-120 -121l-121 121l121 120zM399 1254l-120 -121l-121 121l121 120z
M666 1006l-120 -121l-121 121l121 120zM399 1006l-120 -121l-121 121l121 120z" />
    <glyph glyph-name="uniFB72" unicode="&#x684;" horiz-adv-x="1344" arabic-form="isolated" 
d="M1281 111q-5 4 -29.5 9t-60 9.5t-78.5 7.5t-86 3q-179 0 -334 -23t-270 -71t-181 -121t-66 -173q0 -63 22.5 -122.5t50 -107t50 -79t22.5 -37.5q0 -8 -6 -8q-4 0 -12 5t-23 20q-62 61 -102 113t-63 97t-32.5 84t-9.5 76q0 95 58 184t179 159q127 72 292.5 103.5
t366.5 44.5q-6 2 -29 21q-24 20 -56.5 46t-66.5 55.5t-56 51.5q-47 46 -81 63t-71 17q-30 0 -68.5 -20t-75.5 -64q-9 -12 -15 -12q-5 0 -6 2.5t-1 7.5q0 4 6 23.5t17.5 46.5t28 57t37.5 55t46.5 42t54.5 17q22 0 45.5 -7.5t53 -26.5t67 -51t88.5 -80q65 -62 114.5 -105
t93.5 -74t88 -52.5t98 -39.5v-146zM730 -330l-121 121l121 120l120 -120zM730 -574l-121 121l121 120l120 -120z" />
    <glyph glyph-name="uniFB73" unicode="&#x684;" horiz-adv-x="1281" arabic-form="final" 
d="M1281 111q-5 4 -29.5 9t-60 9.5t-78.5 7.5t-86 3q-179 0 -334 -23t-270 -71t-181 -121t-66 -173q0 -63 22.5 -122.5t50 -107t50 -79t22.5 -37.5q0 -8 -6 -8q-4 0 -12 5t-23 20q-62 61 -102 113t-63 97t-32.5 84t-9.5 76q0 95 58 184t179 159q127 72 292.5 103.5
t366.5 44.5q-6 2 -29 21q-24 20 -56.5 46t-66.5 55.5t-56 51.5q-47 46 -81 63t-71 17q-30 0 -68.5 -20t-75.5 -64q-9 -12 -15 -12q-5 0 -6 2.5t-1 7.5q0 4 6 23.5t17.5 46.5t28 57t37.5 55t46.5 42t54.5 17q22 0 45.5 -7.5t53 -26.5t67 -51t88.5 -80q65 -62 114.5 -105
t93.5 -74t88 -52.5t98 -39.5v-146zM730 -330l-121 121l121 120l120 -120zM730 -574l-121 121l121 120l120 -120z" />
    <glyph glyph-name="uniFB74" unicode="&#x684;" horiz-adv-x="1077" arabic-form="initial" 
d="M1015 122q-12 8 -90 18q-44 5 -84.5 7.5t-79.5 2.5q-98 0 -195 -6.5t-191 -22.5t-182.5 -41t-167.5 -62q-39 -18 -51 -18q-17 0 -17 19v104q0 13 8 18q75 37 156 64t172 46t193 29.5t216 13.5q-6 4 -26 20q-22 17 -59 48q-84 67 -123 107q-80 80 -151 80q-73 0 -144 -84
q-12 -13 -15 -13q-6 0 -6 11q0 36 50 127q64 113 139 113q81 0 253 -165q68 -64 120.5 -108.5t89.5 -70.5q82 -56 185 -92v-145zM443 -329l-121 121l121 120l121 -120zM443 -574l-121 121l121 120l121 -120z" />
    <glyph glyph-name="uniFB75" unicode="&#x684;" horiz-adv-x="1014" arabic-form="medial" 
d="M1015 122q-12 8 -90 18q-44 5 -84.5 7.5t-79.5 2.5q-98 0 -195 -6.5t-191 -22.5t-182.5 -41t-167.5 -62q-39 -18 -51 -18q-17 0 -17 19v104q0 13 8 18q75 37 156 64t172 46t193 29.5t216 13.5q-6 4 -26 20q-22 17 -59 48q-84 67 -123 107q-80 80 -151 80q-73 0 -144 -84
q-12 -13 -15 -13q-6 0 -6 11q0 36 50 127q64 113 139 113q81 0 253 -165q68 -64 120.5 -108.5t89.5 -70.5q82 -56 185 -92v-145zM443 -329l-121 121l121 120l121 -120zM443 -574l-121 121l121 120l121 -120z" />
    <glyph glyph-name="uniFB76" unicode="&#x683;" horiz-adv-x="1344" arabic-form="isolated" 
d="M1281 111q-5 4 -29.5 9t-60 9.5t-78.5 7.5t-86 3q-179 0 -334 -23t-270 -71t-181 -121t-66 -173q0 -63 22.5 -122.5t50 -107t50 -79t22.5 -37.5q0 -8 -6 -8q-4 0 -12 5t-23 20q-62 61 -102 113t-63 97t-32.5 84t-9.5 76q0 95 58 184t179 159q127 72 292.5 103.5
t366.5 44.5q-6 2 -29 21q-24 20 -56.5 46t-66.5 55.5t-56 51.5q-47 46 -81 63t-71 17q-30 0 -68.5 -20t-75.5 -64q-9 -12 -15 -12q-5 0 -6 2.5t-1 7.5q0 4 6 23.5t17.5 46.5t28 57t37.5 55t46.5 42t54.5 17q22 0 45.5 -7.5t53 -26.5t67 -51t88.5 -80q65 -62 114.5 -105
t93.5 -74t88 -52.5t98 -39.5v-146zM597 -335l-121 119l121 121l120 -121zM864 -335l-121 119l121 121l119 -121z" />
    <glyph glyph-name="uniFB77" unicode="&#x683;" horiz-adv-x="1281" arabic-form="final" 
d="M1281 111q-5 4 -29.5 9t-60 9.5t-78.5 7.5t-86 3q-179 0 -334 -23t-270 -71t-181 -121t-66 -173q0 -63 22.5 -122.5t50 -107t50 -79t22.5 -37.5q0 -8 -6 -8q-4 0 -12 5t-23 20q-62 61 -102 113t-63 97t-32.5 84t-9.5 76q0 95 58 184t179 159q127 72 292.5 103.5
t366.5 44.5q-6 2 -29 21q-24 20 -56.5 46t-66.5 55.5t-56 51.5q-47 46 -81 63t-71 17q-30 0 -68.5 -20t-75.5 -64q-9 -12 -15 -12q-5 0 -6 2.5t-1 7.5q0 4 6 23.5t17.5 46.5t28 57t37.5 55t46.5 42t54.5 17q22 0 45.5 -7.5t53 -26.5t67 -51t88.5 -80q65 -62 114.5 -105
t93.5 -74t88 -52.5t98 -39.5v-146zM597 -335l-121 119l121 121l120 -121zM864 -335l-121 119l121 121l119 -121z" />
    <glyph glyph-name="uniFB78" unicode="&#x683;" horiz-adv-x="1077" arabic-form="initial" 
d="M1015 122q-12 8 -90 18q-44 5 -84.5 7.5t-79.5 2.5q-98 0 -195 -6.5t-191 -22.5t-182.5 -41t-167.5 -62q-39 -18 -51 -18q-17 0 -17 19v104q0 13 8 18q75 37 156 64t172 46t193 29.5t216 13.5q-6 4 -26 20q-22 17 -59 48q-84 67 -123 107q-80 80 -151 80q-73 0 -144 -84
q-12 -13 -15 -13q-6 0 -6 11q0 36 50 127q64 113 139 113q81 0 253 -165q68 -64 120.5 -108.5t89.5 -70.5q82 -56 185 -92v-145zM309 -335l-121 119l121 121l121 -121zM576 -335l-121 119l121 121l121 -121z" />
    <glyph glyph-name="uniFB79" unicode="&#x683;" horiz-adv-x="1014" arabic-form="medial" 
d="M1015 122q-12 8 -90 18q-44 5 -84.5 7.5t-79.5 2.5q-98 0 -195 -6.5t-191 -22.5t-182.5 -41t-167.5 -62q-39 -18 -51 -18q-17 0 -17 19v104q0 13 8 18q75 37 156 64t172 46t193 29.5t216 13.5q-6 4 -26 20q-22 17 -59 48q-84 67 -123 107q-80 80 -151 80q-73 0 -144 -84
q-12 -13 -15 -13q-6 0 -6 11q0 36 50 127q64 113 139 113q81 0 253 -165q68 -64 120.5 -108.5t89.5 -70.5q82 -56 185 -92v-145zM309 -335l-121 119l121 121l121 -121zM576 -335l-121 119l121 121l121 -121z" />
    <glyph glyph-name="uniFB7A" unicode="&#x686;" horiz-adv-x="1344" arabic-form="isolated" 
d="M1281 111q-5 4 -29.5 9t-60 9.5t-78.5 7.5t-86 3q-179 0 -334 -23t-270 -71t-181 -121t-66 -173q0 -63 22.5 -122.5t50 -107t50 -79t22.5 -37.5q0 -8 -6 -8q-4 0 -12 5t-23 20q-62 61 -102 113t-63 97t-32.5 84t-9.5 76q0 95 58 184t179 159q127 72 292.5 103.5
t366.5 44.5q-6 2 -29 21q-24 20 -56.5 46t-66.5 55.5t-56 51.5q-47 46 -81 63t-71 17q-30 0 -68.5 -20t-75.5 -64q-9 -12 -15 -12q-5 0 -6 2.5t-1 7.5q0 4 6 23.5t17.5 46.5t28 57t37.5 55t46.5 42t54.5 17q22 0 45.5 -7.5t53 -26.5t67 -51t88.5 -80q65 -62 114.5 -105
t93.5 -74t88 -52.5t98 -39.5v-146zM597 -335l-121 119l121 121l120 -121zM730 -542l-121 120l121 120l120 -120zM864 -335l-121 119l121 121l119 -121z" />
    <glyph glyph-name="uniFB7B" unicode="&#x686;" horiz-adv-x="1281" arabic-form="final" 
d="M1281 111q-5 4 -29.5 9t-60 9.5t-78.5 7.5t-86 3q-179 0 -334 -23t-270 -71t-181 -121t-66 -173q0 -63 22.5 -122.5t50 -107t50 -79t22.5 -37.5q0 -8 -6 -8q-4 0 -12 5t-23 20q-62 61 -102 113t-63 97t-32.5 84t-9.5 76q0 95 58 184t179 159q127 72 292.5 103.5
t366.5 44.5q-6 2 -29 21q-24 20 -56.5 46t-66.5 55.5t-56 51.5q-47 46 -81 63t-71 17q-30 0 -68.5 -20t-75.5 -64q-9 -12 -15 -12q-5 0 -6 2.5t-1 7.5q0 4 6 23.5t17.5 46.5t28 57t37.5 55t46.5 42t54.5 17q22 0 45.5 -7.5t53 -26.5t67 -51t88.5 -80q65 -62 114.5 -105
t93.5 -74t88 -52.5t98 -39.5v-146zM597 -335l-121 119l121 121l120 -121zM730 -542l-121 120l121 120l120 -120zM864 -335l-121 119l121 121l119 -121z" />
    <glyph glyph-name="uniFB7C" unicode="&#x686;" horiz-adv-x="1077" arabic-form="initial" 
d="M1015 122q-12 8 -90 18q-44 5 -84.5 7.5t-79.5 2.5q-98 0 -195 -6.5t-191 -22.5t-182.5 -41t-167.5 -62q-39 -18 -51 -18q-17 0 -17 19v104q0 13 8 18q75 37 156 64t172 46t193 29.5t216 13.5q-6 4 -26 20q-22 17 -59 48q-84 67 -123 107q-80 80 -151 80q-73 0 -144 -84
q-12 -13 -15 -13q-6 0 -6 11q0 36 50 127q64 113 139 113q81 0 253 -165q68 -64 120.5 -108.5t89.5 -70.5q82 -56 185 -92v-145zM443 -542l-121 120l121 120l121 -120zM309 -335l-121 119l121 121l121 -121zM576 -335l-121 119l121 121l121 -121z" />
    <glyph glyph-name="uniFB7D" unicode="&#x686;" horiz-adv-x="1014" arabic-form="medial" 
d="M1015 122q-12 8 -90 18q-44 5 -84.5 7.5t-79.5 2.5q-98 0 -195 -6.5t-191 -22.5t-182.5 -41t-167.5 -62q-39 -18 -51 -18q-17 0 -17 19v104q0 13 8 18q75 37 156 64t172 46t193 29.5t216 13.5q-6 4 -26 20q-22 17 -59 48q-84 67 -123 107q-80 80 -151 80q-73 0 -144 -84
q-12 -13 -15 -13q-6 0 -6 11q0 36 50 127q64 113 139 113q81 0 253 -165q68 -64 120.5 -108.5t89.5 -70.5q82 -56 185 -92v-145zM443 -542l-121 120l121 120l121 -120zM309 -335l-121 119l121 121l121 -121zM576 -335l-121 119l121 121l121 -121z" />
    <glyph glyph-name="uniFB7E" unicode="&#x687;" horiz-adv-x="1344" arabic-form="isolated" 
d="M1281 111q-5 4 -29.5 9t-60 9.5t-78.5 7.5t-86 3q-179 0 -334 -23t-270 -71t-181 -121t-66 -173q0 -63 22.5 -122.5t50 -107t50 -79t22.5 -37.5q0 -8 -6 -8q-4 0 -12 5t-23 20q-62 61 -102 113t-63 97t-32.5 84t-9.5 76q0 95 58 184t179 159q127 72 292.5 103.5
t366.5 44.5q-6 2 -29 21q-24 20 -56.5 46t-66.5 55.5t-56 51.5q-47 46 -81 63t-71 17q-30 0 -68.5 -20t-75.5 -64q-9 -12 -15 -12q-5 0 -6 2.5t-1 7.5q0 4 6 23.5t17.5 46.5t28 57t37.5 55t46.5 42t54.5 17q22 0 45.5 -7.5t53 -26.5t67 -51t88.5 -80q65 -62 114.5 -105
t93.5 -74t88 -52.5t98 -39.5v-146zM597 -579l-121 120l121 120l120 -120zM864 -579l-121 120l121 120l119 -120zM597 -335l-121 119l121 121l120 -121zM864 -335l-121 119l121 121l119 -121z" />
    <glyph glyph-name="uniFB7F" unicode="&#x687;" horiz-adv-x="1281" arabic-form="final" 
d="M1281 111q-5 4 -29.5 9t-60 9.5t-78.5 7.5t-86 3q-179 0 -334 -23t-270 -71t-181 -121t-66 -173q0 -63 22.5 -122.5t50 -107t50 -79t22.5 -37.5q0 -8 -6 -8q-4 0 -12 5t-23 20q-62 61 -102 113t-63 97t-32.5 84t-9.5 76q0 95 58 184t179 159q127 72 292.5 103.5
t366.5 44.5q-6 2 -29 21q-24 20 -56.5 46t-66.5 55.5t-56 51.5q-47 46 -81 63t-71 17q-30 0 -68.5 -20t-75.5 -64q-9 -12 -15 -12q-5 0 -6 2.5t-1 7.5q0 4 6 23.5t17.5 46.5t28 57t37.5 55t46.5 42t54.5 17q22 0 45.5 -7.5t53 -26.5t67 -51t88.5 -80q65 -62 114.5 -105
t93.5 -74t88 -52.5t98 -39.5v-146zM597 -577l-121 120l121 121l120 -121zM864 -577l-121 120l121 121l119 -121zM597 -335l-121 119l121 121l120 -121zM864 -335l-121 119l121 121l119 -121z" />
    <glyph glyph-name="uniFB80" unicode="&#x687;" horiz-adv-x="1077" arabic-form="initial" 
d="M1015 122q-12 8 -90 18q-44 5 -84.5 7.5t-79.5 2.5q-98 0 -195 -6.5t-191 -22.5t-182.5 -41t-167.5 -62q-39 -18 -51 -18q-17 0 -17 19v104q0 13 8 18q75 37 156 64t172 46t193 29.5t216 13.5q-6 4 -26 20q-22 17 -59 48q-84 67 -123 107q-80 80 -151 80q-73 0 -144 -84
q-12 -13 -15 -13q-6 0 -6 11q0 36 50 127q64 113 139 113q81 0 253 -165q68 -64 120.5 -108.5t89.5 -70.5q82 -56 185 -92v-145zM309 -579l-121 120l121 120l121 -120zM576 -579l-121 120l121 120l121 -120zM309 -335l-121 119l121 121l121 -121zM576 -335l-121 119l121 121
l121 -121z" />
    <glyph glyph-name="uniFB81" unicode="&#x687;" horiz-adv-x="1014" arabic-form="medial" 
d="M1015 122q-12 8 -90 18q-44 5 -84.5 7.5t-79.5 2.5q-98 0 -195 -6.5t-191 -22.5t-182.5 -41t-167.5 -62q-39 -18 -51 -18q-17 0 -17 19v104q0 13 8 18q75 37 156 64t172 46t193 29.5t216 13.5q-6 4 -26 20q-22 17 -59 48q-84 67 -123 107q-80 80 -151 80q-73 0 -144 -84
q-12 -13 -15 -13q-6 0 -6 11q0 36 50 127q64 113 139 113q81 0 253 -165q68 -64 120.5 -108.5t89.5 -70.5q82 -56 185 -92v-145zM309 -579l-121 120l121 120l121 -120zM576 -579l-121 120l121 120l121 -120zM309 -335l-121 119l121 121l121 -121zM576 -335l-121 119l121 121
l121 -121z" />
    <glyph glyph-name="uniFB82" unicode="&#x68d;" horiz-adv-x="926" arabic-form="isolated" 
d="M873 54q0 -89 -484 -89q-163 0 -193 8q-102 25 -102 134q0 49 12 92q9 40 18 40q7 -8 7 -26q0 -35 23 -63q37 -41 160 -41q381 0 464 31q-77 232 -374 575l74 138q196 -225 308 -453q87 -178 87 -266v-80zM620 -349l-121 121l121 121l120 -121zM353 -349l-121 121
l121 121l119 -121z" />
    <glyph glyph-name="uniFB83" unicode="&#x68d;" horiz-adv-x="873" arabic-form="final" 
d="M873 54q0 -89 -484 -89q-163 0 -193 8q-102 25 -102 134q0 49 12 92q9 40 18 40q7 -8 7 -26q0 -35 23 -63q37 -41 160 -41q381 0 464 31q-77 232 -374 575l74 138q196 -225 308 -453q87 -178 87 -266v-80zM620 -349l-121 121l121 121l120 -121zM353 -349l-121 121
l121 121l119 -121z" />
    <glyph glyph-name="uniFB84" unicode="&#x68c;" horiz-adv-x="926" arabic-form="isolated" 
d="M873 54q0 -89 -484 -89q-163 0 -193 8q-102 25 -102 134q0 49 12 92q9 40 18 40q7 -8 7 -26q0 -35 23 -63q37 -41 160 -41q381 0 464 31q-77 232 -374 575l74 138q196 -225 308 -453q87 -178 87 -266v-80zM682 1153l-121 -121l-120 121l120 120zM415 1153l-121 -121
l-120 121l120 120z" />
    <glyph glyph-name="uniFB85" unicode="&#x68c;" horiz-adv-x="873" arabic-form="final" 
d="M873 54q0 -89 -484 -89q-163 0 -193 8q-102 25 -102 134q0 49 12 92q9 40 18 40q7 -8 7 -26q0 -35 23 -63q37 -41 160 -41q381 0 464 31q-77 232 -374 575l74 138q196 -225 308 -453q87 -178 87 -266v-80zM682 1153l-121 -121l-120 121l120 120zM415 1153l-121 -121
l-120 121l120 120z" />
    <glyph glyph-name="uniFB86" unicode="&#x68e;" horiz-adv-x="926" arabic-form="isolated" 
d="M873 54q0 -89 -484 -89q-163 0 -193 8q-102 25 -102 134q0 49 12 92q9 40 18 40q7 -8 7 -26q0 -35 23 -63q37 -41 160 -41q381 0 464 31q-77 232 -374 575l74 138q196 -225 308 -453q87 -178 87 -266v-80zM546 1286l-121 -121l-120 121l120 121zM680 1058l-121 -121
l-120 121l120 119zM413 1058l-121 -121l-120 121l120 119z" />
    <glyph glyph-name="uniFB87" unicode="&#x68e;" horiz-adv-x="873" arabic-form="final" 
d="M873 54q0 -89 -484 -89q-163 0 -193 8q-102 25 -102 134q0 49 12 92q9 40 18 40q7 -8 7 -26q0 -35 23 -63q37 -41 160 -41q381 0 464 31q-77 232 -374 575l74 138q196 -225 308 -453q87 -178 87 -266v-80zM546 1286l-121 -121l-120 121l120 121zM680 1058l-121 -121
l-120 121l120 119zM413 1058l-121 -121l-120 121l120 119z" />
    <glyph glyph-name="uniFB88" unicode="&#x688;" horiz-adv-x="926" arabic-form="isolated" 
d="M873 54q0 -89 -484 -89q-163 0 -193 8q-102 25 -102 134q0 49 12 92q9 40 18 40q7 -8 7 -26q0 -35 23 -63q37 -41 160 -41q381 0 464 31q-77 232 -374 575l74 138q196 -225 308 -453q87 -178 87 -266v-80zM312 1455q8 -60 13.5 -112.5t5.5 -87.5q0 -27 -1.5 -47.5
t-4.5 -38.5l2 -1q18 34 39 59.5t42.5 43.5t42 27t37.5 9q30 0 50 -16t32.5 -39.5t17.5 -50.5t5 -48q0 -47 -21 -80.5t-54 -51.5q-50 -25 -102 -37t-95 -12q-59 0 -93 23t-67 70q24 -2 45 -2h44q11 15 18 31t7 35q0 33 -6.5 100.5t-22.5 166.5zM470 1212q-20 0 -42 -11
t-44 -31t-43.5 -48t-41.5 -60q37 0 76.5 5t74.5 14.5t62.5 21.5t39.5 27q-8 40 -31 61t-51 21z" />
    <glyph glyph-name="uniFB89" unicode="&#x688;" horiz-adv-x="873" arabic-form="final" 
d="M873 54q0 -89 -484 -89q-163 0 -193 8q-102 25 -102 134q0 49 12 92q9 40 18 40q7 -8 7 -26q0 -35 23 -63q37 -41 160 -41q381 0 464 31q-77 232 -374 575l74 138q196 -225 308 -453q87 -178 87 -266v-80zM312 1455q8 -60 13.5 -112.5t5.5 -87.5q0 -27 -1.5 -47.5
t-4.5 -38.5l2 -1q18 34 39 59.5t42.5 43.5t42 27t37.5 9q30 0 50 -16t32.5 -39.5t17.5 -50.5t5 -48q0 -47 -21 -80.5t-54 -51.5q-50 -25 -102 -37t-95 -12q-59 0 -93 23t-67 70q24 -2 45 -2h44q11 15 18 31t7 35q0 33 -6.5 100.5t-22.5 166.5zM470 1212q-20 0 -42 -11
t-44 -31t-43.5 -48t-41.5 -60q37 0 76.5 5t74.5 14.5t62.5 21.5t39.5 27q-8 40 -31 61t-51 21z" />
    <glyph glyph-name="uniFB8A" unicode="&#x698;" horiz-adv-x="624" arabic-form="isolated" 
d="M432 933l-121 -121l-120 121l120 119zM566 704l-121 -121l-121 121l121 120zM299 704l-121 -121l-121 121l121 120zM361 446q53 -79 85 -140.5t48 -109t21.5 -82t5.5 -58.5q0 -154 -50 -298.5t-136 -271.5q-18 -27 -33.5 -44t-31 -27t-33 -13.5t-40.5 -3.5q-55 0 -86.5 5
t-31.5 11q0 3 2.5 6.5t10 10.5t20.5 18t35 30q48 39 98.5 106t95.5 142q24 40 45 80t36.5 75t24 64t8.5 48q0 14 -10 39.5t-26 56.5t-36.5 64t-41 63t-39.5 54t-32 37z" />
    <glyph glyph-name="uniFB8B" unicode="&#x698;" horiz-adv-x="521" arabic-form="final" 
d="M432 933l-121 -121l-120 121l120 119zM566 704l-121 -121l-121 121l121 120zM299 704l-121 -121l-121 121l121 120zM361 446q53 -79 85 -140.5t48 -109t21.5 -82t5.5 -58.5q0 -154 -50 -298.5t-136 -271.5q-18 -27 -33.5 -44t-31 -27t-33 -13.5t-40.5 -3.5q-55 0 -86.5 5
t-31.5 11q0 3 2.5 6.5t10 10.5t20.5 18t35 30q48 39 98.5 106t95.5 142q24 40 45 80t36.5 75t24 64t8.5 48q0 14 -10 39.5t-26 56.5t-36.5 64t-41 63t-39.5 54t-32 37z" />
    <glyph glyph-name="uniFB8C" unicode="&#x691;" horiz-adv-x="589" arabic-form="isolated" 
d="M361 446q54 -79 85.5 -140.5t47.5 -109t21.5 -82t5.5 -58.5q0 -154 -50 -298.5t-136 -271.5q-18 -27 -33.5 -44t-31 -27t-33 -13.5t-40.5 -3.5q-55 0 -86.5 5t-31.5 11q0 3 2.5 6.5t10 10.5t20.5 18t35 30q48 39 98.5 106t95.5 142q24 40 45 80t36.5 75t24.5 64t9 48
q0 14 -10 39.5t-26.5 56.5t-37 64t-41 63t-39.5 54t-32 37zM206 1087q9 -60 14 -112.5t5 -87.5q0 -27 -1 -47.5t-4 -38.5l2 -1q18 34 39 59.5t42.5 43.5t42 27t37.5 9q29 0 49 -16t33 -39.5t18 -50.5t5 -48q0 -47 -21 -80.5t-55 -51.5q-49 -25 -101 -36.5t-95 -11.5
q-59 0 -93 22.5t-67 69.5q24 -2 45 -2h43q12 15 19 31t7 35q0 33 -6.5 100.5t-22.5 166.5zM365 844q-20 0 -42 -11t-44 -31t-43.5 -48t-41.5 -60q37 0 76 5t74.5 14.5t62.5 21.5t40 27q-8 40 -31.5 61t-50.5 21z" />
    <glyph glyph-name="uniFB8D" unicode="&#x691;" horiz-adv-x="521" arabic-form="final" 
d="M361 446q54 -79 85.5 -140.5t47.5 -109t21.5 -82t5.5 -58.5q0 -154 -50 -298.5t-136 -271.5q-18 -27 -33.5 -44t-31 -27t-33 -13.5t-40.5 -3.5q-55 0 -86.5 5t-31.5 11q0 3 2.5 6.5t10 10.5t20.5 18t35 30q48 39 98.5 106t95.5 142q24 40 45 80t36.5 75t24.5 64t9 48
q0 14 -10 39.5t-26.5 56.5t-37 64t-41 63t-39.5 54t-32 37zM206 1087q9 -60 14 -112.5t5 -87.5q0 -27 -1 -47.5t-4 -38.5l2 -1q18 34 39 59.5t42.5 43.5t42 27t37.5 9q29 0 49 -16t33 -39.5t18 -50.5t5 -48q0 -47 -21 -80.5t-55 -51.5q-49 -25 -101 -36.5t-95 -11.5
q-59 0 -93 22.5t-67 69.5q24 -2 45 -2h43q12 15 19 31t7 35q0 33 -6.5 100.5t-22.5 166.5zM365 844q-20 0 -42 -11t-44 -31t-43.5 -48t-41.5 -60q37 0 76 5t74.5 14.5t62.5 21.5t40 27q-8 40 -31.5 61t-50.5 21z" />
    <glyph glyph-name="uniFB8E" unicode="&#x6a9;" horiz-adv-x="1507" arabic-form="isolated" 
d="M1412 1200q-93 -52 -182 -108.5t-165 -110.5t-135 -99t-93 -75q46 -30 99 -72.5t103 -86t92 -83t64 -64.5q63 -68 109.5 -128.5t77.5 -107.5t46.5 -79.5t15.5 -41.5v-125q0 -12 -5.5 -15.5t-17.5 -3.5h-1013q-152 0 -233 61t-81 182q0 79 30 142.5t80 120.5
q22 23 47 44.5t47 38.5t38 26t19 9q8 0 8 -10q0 -3 -12.5 -15.5t-30.5 -31.5q-51 -56 -86.5 -120.5t-35.5 -134.5q0 -52 18.5 -85.5t54.5 -51.5q30 -17 69.5 -24t67.5 -7h924q9 0 9 11q0 6 -27 44.5t-87 102.5t-156 150.5t-234 190.5q0 -11 -9 -24.5t-19 -13.5q-7 0 -24 12
t-34.5 34t-31 52.5t-13.5 67.5q0 27 5.5 48.5t21.5 44t44.5 49.5t74.5 65q33 27 82 61.5t106.5 73t118 77.5t115 72.5t99 60t69.5 40.5z" />
    <glyph glyph-name="uniFB8F" unicode="&#x6a9;" horiz-adv-x="1444" arabic-form="final" 
d="M1412 1200q-93 -52 -182 -108.5t-165 -110.5t-135 -99t-93 -75q46 -30 99 -72.5t103 -86t92 -83t64 -64.5q63 -68 109.5 -128.5t77.5 -107.5t46.5 -79.5t15.5 -41.5v-125q0 -12 -5.5 -15.5t-17.5 -3.5h-1013q-152 0 -233 61t-81 182q0 79 30 142.5t80 120.5
q22 23 47 44.5t47 38.5t38 26t19 9q8 0 8 -10q0 -3 -12.5 -15.5t-30.5 -31.5q-51 -56 -86.5 -120.5t-35.5 -134.5q0 -52 18.5 -85.5t54.5 -51.5q30 -17 69.5 -24t67.5 -7h924q9 0 9 11q0 6 -27 44.5t-87 102.5t-156 150.5t-234 190.5q0 -11 -9 -24.5t-19 -13.5q-7 0 -24 12
t-34.5 34t-31 52.5t-13.5 67.5q0 27 5.5 48.5t21.5 44t44.5 49.5t74.5 65q33 27 82 61.5t106.5 73t118 77.5t115 72.5t99 60t69.5 40.5z" />
    <glyph glyph-name="uniFB90" unicode="&#x6a9;" horiz-adv-x="900" arabic-form="initial" 
d="M-18 0q-55 0 -55 45v52q0 47 55 47h744q8 0 8 11q0 6 -26.5 44.5t-86.5 102.5t-156 150.5t-234 190.5q0 -11 -9 -24.5t-18 -13.5q-8 0 -25.5 12t-34.5 34t-31 52.5t-14 67.5q0 27 6 48.5t22 44t44 49.5t75 65q32 27 81.5 61.5t107 73t117.5 77.5t115 72.5t99.5 60
t69.5 40.5l-30 -163q-94 -52 -182.5 -108.5t-165 -110.5t-135.5 -99t-92 -75q45 -30 98 -72.5t103 -86t92 -83t64 -64.5q63 -68 110 -128.5t78.5 -107.5t47 -79.5t15.5 -41.5v-125q0 -12 -5.5 -15.5t-19.5 -3.5h-832z" />
    <glyph glyph-name="uniFB91" unicode="&#x6a9;" horiz-adv-x="837" arabic-form="medial" 
d="M-18 0q-55 0 -55 45v52q0 47 55 47h744q8 0 8 11q0 6 -26.5 44.5t-86.5 102.5t-156 150.5t-234 190.5q0 -11 -9 -24.5t-18 -13.5q-8 0 -25.5 12t-34.5 34t-31 52.5t-14 67.5q0 27 6 48.5t22 44t44 49.5t75 65q32 27 81.5 61.5t107 73t117.5 77.5t115 72.5t99.5 60
t69.5 40.5l-30 -163q-94 -52 -182.5 -108.5t-165 -110.5t-135.5 -99t-92 -75q45 -30 98 -72.5t103 -86t92 -83t64 -64.5q63 -68 110 -128.5t78.5 -107.5t47 -79.5t15.5 -41.5v-125q0 -12 -5.5 -15.5t-19.5 -3.5h-832z" />
    <glyph glyph-name="uniFB92" unicode="&#x6af;" horiz-adv-x="1507" arabic-form="isolated" 
d="M1444 1426l-15 -76l-746 -435l14 73zM1406 1083q-75 -37 -154 -80.5t-153.5 -86.5t-137.5 -83.5t-105 -72.5q30 -22 78.5 -62.5t103 -86.5t106.5 -93t88 -83q50 -50 90 -98t67 -87t41 -66.5t14 -39.5v-125q0 -12 -8 -15.5t-37 -3.5h-991q-152 0 -233 61t-81 182
q0 79 30 142.5t80 120.5q22 23 47 44.5t47 38.5t38 26t19 9q8 0 8 -10q0 -3 -12.5 -15.5t-30.5 -31.5q-51 -56 -86.5 -120.5t-35.5 -134.5q0 -52 18.5 -85.5t54.5 -51.5q30 -17 69.5 -24t67.5 -7h890q20 0 25 2.5t5 8.5q0 12 -36 55.5t-102.5 106.5t-159.5 136.5t-205 144.5
q0 -9 -5.5 -19t-16.5 -10q-6 0 -23 14.5t-35.5 39t-33 54t-14.5 61.5q0 41 22.5 73.5t74.5 69.5q26 19 72.5 48t104.5 63.5t122 72.5t127.5 74t121.5 67.5t102 55.5z" />
    <glyph glyph-name="uniFB93" unicode="&#x6af;" horiz-adv-x="1444" arabic-form="final" 
d="M1444 1426l-15 -76l-746 -435l14 73zM1406 1083q-75 -37 -154 -80.5t-153.5 -86.5t-137.5 -83.5t-105 -72.5q30 -22 78.5 -62.5t103 -86.5t106.5 -93t88 -83q50 -50 90 -98t67 -87t41 -66.5t14 -39.5v-125q0 -12 -8 -15.5t-37 -3.5h-991q-152 0 -233 61t-81 182
q0 79 30 142.5t80 120.5q22 23 47 44.5t47 38.5t38 26t19 9q8 0 8 -10q0 -3 -12.5 -15.5t-30.5 -31.5q-51 -56 -86.5 -120.5t-35.5 -134.5q0 -52 18.5 -85.5t54.5 -51.5q30 -17 69.5 -24t67.5 -7h890q20 0 25 2.5t5 8.5q0 12 -36 55.5t-102.5 106.5t-159.5 136.5t-205 144.5
q0 -9 -5.5 -19t-16.5 -10q-6 0 -23 14.5t-35.5 39t-33 54t-14.5 61.5q0 41 22.5 73.5t74.5 69.5q26 19 72.5 48t104.5 63.5t122 72.5t127.5 74t121.5 67.5t102 55.5z" />
    <glyph glyph-name="uniFB94" unicode="&#x6af;" horiz-adv-x="900" arabic-form="initial" 
d="M-18 0q-55 0 -55 45v52q0 47 55 47h709q20 0 25.5 2.5t5.5 8.5q0 12 -36.5 55.5t-102.5 106.5t-158.5 136.5t-206.5 144.5q0 -9 -5 -19t-17 -10q-5 0 -22.5 14.5t-36 39t-32.5 54t-14 61.5q0 41 22.5 73t75.5 69q26 19 72.5 48.5t103.5 64t121.5 72.5t128 74t121 67.5
t103.5 55.5l-39 -179q-75 -37 -154.5 -80.5t-153 -86.5t-136.5 -83.5t-105 -72.5q19 -15 48 -38.5t62.5 -51.5t69.5 -59.5t71.5 -62.5t67 -60.5t55.5 -52.5q51 -50 90.5 -98t67 -87t42 -66.5t14.5 -39.5v-125q0 -12 -8 -15.5t-38 -3.5h-811zM839 1426l-16 -76l-747 -435
l15 73z" />
    <glyph glyph-name="uniFB95" unicode="&#x6af;" horiz-adv-x="837" arabic-form="medial" 
d="M-18 0q-55 0 -55 45v52q0 47 55 47h709q20 0 25.5 2.5t5.5 8.5q0 12 -36.5 55.5t-102.5 106.5t-158.5 136.5t-206.5 144.5q0 -9 -5 -19t-17 -10q-5 0 -22.5 14.5t-36 39t-32.5 54t-14 61.5q0 41 22.5 73t75.5 69q26 19 72.5 48.5t103.5 64t121.5 72.5t128 74t121 67.5
t103.5 55.5l-39 -179q-75 -37 -154.5 -80.5t-153 -86.5t-136.5 -83.5t-105 -72.5q19 -15 48 -38.5t62.5 -51.5t69.5 -59.5t71.5 -62.5t67 -60.5t55.5 -52.5q51 -50 90.5 -98t67 -87t42 -66.5t14.5 -39.5v-125q0 -12 -8 -15.5t-38 -3.5h-811zM839 1426l-16 -76l-747 -435
l15 73z" />
    <glyph glyph-name="uniFB96" unicode="&#x6b3;" horiz-adv-x="1507" arabic-form="isolated" 
d="M1444 1426l-15 -76l-746 -435l14 73zM1406 1083q-75 -37 -154 -80.5t-153.5 -86.5t-137.5 -83.5t-105 -72.5q30 -22 78.5 -62.5t103 -86.5t106.5 -93t88 -83q50 -50 90 -98t67 -87t41 -66.5t14 -39.5v-125q0 -12 -8 -15.5t-37 -3.5h-991q-152 0 -233 61t-81 182
q0 79 30 142.5t80 120.5q22 23 47 44.5t47 38.5t38 26t19 9q8 0 8 -10q0 -3 -12.5 -15.5t-30.5 -31.5q-51 -56 -86.5 -120.5t-35.5 -134.5q0 -52 18.5 -85.5t54.5 -51.5q30 -17 69.5 -24t67.5 -7h890q20 0 25 2.5t5 8.5q0 12 -36 55.5t-102.5 106.5t-159.5 136.5t-205 144.5
q0 -9 -5.5 -19t-16.5 -10q-6 0 -23 14.5t-35.5 39t-33 54t-14.5 61.5q0 41 22.5 73.5t74.5 69.5q26 19 72.5 48t104.5 63.5t122 72.5t127.5 74t121.5 67.5t102 55.5zM759 -346l-120 120l120 121l120 -121zM759 -597l-120 120l120 121l120 -121z" />
    <glyph glyph-name="uniFB97" unicode="&#x6b3;" horiz-adv-x="1444" arabic-form="final" 
d="M1444 1426l-15 -76l-746 -435l14 73zM1406 1083q-75 -37 -154 -80.5t-153.5 -86.5t-137.5 -83.5t-105 -72.5q30 -22 78.5 -62.5t103 -86.5t106.5 -93t88 -83q50 -50 90 -98t67 -87t41 -66.5t14 -39.5v-125q0 -12 -8 -15.5t-37 -3.5h-991q-152 0 -233 61t-81 182
q0 79 30 142.5t80 120.5q22 23 47 44.5t47 38.5t38 26t19 9q8 0 8 -10q0 -3 -12.5 -15.5t-30.5 -31.5q-51 -56 -86.5 -120.5t-35.5 -134.5q0 -52 18.5 -85.5t54.5 -51.5q30 -17 69.5 -24t67.5 -7h890q20 0 25 2.5t5 8.5q0 12 -36 55.5t-102.5 106.5t-159.5 136.5t-205 144.5
q0 -9 -5.5 -19t-16.5 -10q-6 0 -23 14.5t-35.5 39t-33 54t-14.5 61.5q0 41 22.5 73.5t74.5 69.5q26 19 72.5 48t104.5 63.5t122 72.5t127.5 74t121.5 67.5t102 55.5zM759 -346l-120 120l120 121l120 -121zM759 -597l-120 120l120 121l120 -121z" />
    <glyph glyph-name="uniFB98" unicode="&#x6b3;" horiz-adv-x="900" arabic-form="initial" 
d="M-18 0q-55 0 -55 45v52q0 47 55 47h709q20 0 25.5 2.5t5.5 8.5q0 12 -36.5 55.5t-102.5 106.5t-158.5 136.5t-206.5 144.5q0 -9 -5 -19t-17 -10q-5 0 -22.5 14.5t-36 39t-32.5 54t-14 61.5q0 41 22.5 73t75.5 69q26 19 72.5 48.5t103.5 64t121.5 72.5t128 74t121 67.5
t103.5 55.5l-39 -179q-75 -37 -154.5 -80.5t-153 -86.5t-136.5 -83.5t-105 -72.5q19 -15 48 -38.5t62.5 -51.5t69.5 -59.5t71.5 -62.5t67 -60.5t55.5 -52.5q51 -50 90.5 -98t67 -87t42 -66.5t14.5 -39.5v-125q0 -12 -8 -15.5t-38 -3.5h-811zM839 1426l-16 -76l-747 -435
l15 73zM382 -346l-121 120l121 121l120 -121zM382 -597l-121 120l121 121l120 -121z" />
    <glyph glyph-name="uniFB99" unicode="&#x6b3;" horiz-adv-x="837" arabic-form="medial" 
d="M-18 0q-55 0 -55 45v52q0 47 55 47h709q20 0 25.5 2.5t5.5 8.5q0 12 -36.5 55.5t-102.5 106.5t-158.5 136.5t-206.5 144.5q0 -9 -5 -19t-17 -10q-5 0 -22.5 14.5t-36 39t-32.5 54t-14 61.5q0 41 22.5 73t75.5 69q26 19 72.5 48.5t103.5 64t121.5 72.5t128 74t121 67.5
t103.5 55.5l-39 -179q-75 -37 -154.5 -80.5t-153 -86.5t-136.5 -83.5t-105 -72.5q19 -15 48 -38.5t62.5 -51.5t69.5 -59.5t71.5 -62.5t67 -60.5t55.5 -52.5q51 -50 90.5 -98t67 -87t42 -66.5t14.5 -39.5v-125q0 -12 -8 -15.5t-38 -3.5h-811zM839 1426l-16 -76l-747 -435
l15 73zM382 -346l-121 120l121 121l120 -121zM382 -597l-121 120l121 121l120 -121z" />
    </font>
</defs>
</svg>
