<?xml version="1.0" standalone="no"?>
<!DOCTYPE svg PUBLIC "-//W3C//DTD SVG 1.1//EN" "http://www.w3.org/Graphics/SVG/1.1/DTD/svg11.dtd" >
<svg xmlns="http://www.w3.org/2000/svg" xmlns:xlink="http://www.w3.org/1999/xlink" version="1.1">
<metadata>
Created by FontForge 20170731 at Wed Oct 19 21:54:41 2016
 By Aleksey,,,
(c)  2013 Bahij Virtual Academy. All rights reserved.
</metadata>
<defs>
<font id="BahijLotus-Bold" horiz-adv-x="1024" >
  <font-face 
    font-family="Bahij Lotus"
    font-weight="700"
    font-stretch="normal"
    units-per-em="2048"
    panose-1="2 4 7 3 6 2 1 2 2 3"
    ascent="1638"
    descent="-410"
    x-height="772"
    cap-height="1136"
    bbox="-273 -1302 5096 2311"
    underline-thickness="50"
    underline-position="-150"
    unicode-range="U+0020-FEFC"
  />
<missing-glyph horiz-adv-x="728" 
d="M0 0v1020h728v-1020h-728zM117 947l247 -372l248 372h-495zM655 881l-247 -371l247 -372v743zM612 73l-248 371l-247 -371h495zM73 138l247 372l-247 371v-743z" />
    <glyph glyph-name="uniFB01" unicode="fi" horiz-adv-x="1014" 
d="M576 0v58q56 6 70 27t14 98v382q0 82 -13 101q-15 21 -78 21h-183v-507q0 -72 19 -94q18 -20 82 -28v-58h-431v58q69 6 88 27q17 22 17 95v507h-116l-9 22l52 63h73v39q0 79 43 166q39 77 136 150q121 96 258 102q136 -5 203 -83q40 -49 16 -96q-15 -35 -54 -58
q-48 -29 -73 6q-107 139 -192 139q-75 0 -97 -103q-15 -71 -15 -207v-55h172q219 0 325 22v-611q0 -77 17 -97t88 -28v-58h-412z" />
    <glyph glyph-name="uniFB02" unicode="fl" horiz-adv-x="1014" 
d="M583 0v58q50 6 63 26q13 22 13 99v879q-55 88 -141 88q-62 0 -96 -59q-38 -64 -38 -202v-117h182q6 -16 -1 -45q-7 -32 -24 -40h-157v-507q0 -74 15 -94q15 -19 80 -28v-58h-430v58q76 10 93 28q17 19 17 94v507h-118l-7 25l52 60h73v30q0 87 41 173q52 102 141 162
q118 85 238 92q98 0 182 -42q-20 -6 107 35l15 -9v-1030q0 -77 18 -97q16 -18 90 -28v-58h-408z" />
    <glyph glyph-name="uniFC31" unicode="&#xfed3;&#xfef0;" horiz-adv-x="1696" arabic-form="isolated" 
d="M1476 1079q-66 -75 -113 -161q-83 76 -165 117q52 62 116 160q66 -60 162 -116zM1306 507q21 -9 43 -9q19 0 36.5 13t17.5 28q0 13 -19 33t-31 20q-13 0 -26.5 -25.5t-20.5 -59.5zM1153 1q-7 -1 -16 -1q-6 -1 -48 -1q-80 0 -139.5 -15.5t-59.5 -36.5q0 -19 60 -35l79 -21
q9 -3 68 -17q89 -22 89 -62q0 -56 -46.5 -127.5t-113.5 -120.5q-107 -76 -265 -127.5t-287 -51.5q-200 0 -306.5 73.5t-106.5 211.5q0 182 127 361q25 35 38 35q3 0 8 -3l3 -2q5 -5 5 -12q0 -1 -2 -6l-3 -8q-2 -7 -7 -16l-11 -20l-14 -27q-55 -103 -55 -174q0 -200 360 -200
q145 0 277.5 23.5t186.5 59.5l46 30q7 4 9 8l1 3v5q-4 7 -149 40q-143 33 -149 59q13 113 105 240q112 155 248 155h151q175 0 290 102q1 7 1 11q0 29 -13 57t-27 28t-27 -21q-38 -61 -124 -61q-118 0 -118 100q0 104 58.5 226t108.5 122q67 0 149 -159q68 -130 68 -246
q0 -208 -107 -285q-120 -87 -342 -94z" />
    <glyph glyph-name="uniFC32" unicode="&#xfed3;&#xfef2;" horiz-adv-x="1696" arabic-form="isolated" 
d="M508 -949q-77 66 -147 109q47 59 103 148q45 -51 101 -85q41 53 72 106q76 -70 139 -108q-46 -60 -91 -153q-59 56 -110 86q-33 -41 -67 -103zM1476 1079q-66 -75 -113 -161q-83 76 -165 117q52 62 116 160q66 -60 162 -116zM1306 507q21 -9 43 -9q19 0 36.5 13t17.5 28
q0 13 -19 33t-31 20q-13 0 -26.5 -25.5t-20.5 -59.5zM1153 1q-7 -1 -16 -1q-6 -1 -48 -1q-80 0 -139.5 -15.5t-59.5 -36.5q0 -19 60 -35l79 -21q9 -3 68 -17q89 -22 89 -62q0 -56 -46.5 -127.5t-113.5 -120.5q-107 -76 -265 -127.5t-287 -51.5q-200 0 -306.5 73.5
t-106.5 211.5q0 182 127 361q25 35 38 35q3 0 8 -3l3 -2q5 -5 5 -12q0 -1 -2 -6l-3 -8q-2 -7 -7 -16l-11 -20l-14 -27q-55 -103 -55 -174q0 -200 360 -200q145 0 277.5 23.5t186.5 59.5l46 30q7 4 9 8l1 3v5q-4 7 -149 40q-143 33 -149 59q13 113 105 240q112 155 248 155
h151q175 0 290 102q1 7 1 11q0 29 -13 57t-27 28t-27 -21q-38 -61 -124 -61q-118 0 -118 100q0 104 58.5 226t108.5 122q67 0 149 -159q68 -130 68 -246q0 -208 -107 -285q-120 -87 -342 -94z" />
    <glyph glyph-name="uniFC43" unicode="&#xfedf;&#xfef0;" horiz-adv-x="1584" arabic-form="isolated" 
d="M1153 1q-6 -1 -16 -1q-6 -1 -48 -1q-80 0 -139.5 -15.5t-59.5 -36.5q0 -19 60 -35l79 -21q9 -3 68 -17q89 -22 89 -62q0 -56 -46.5 -127.5t-113.5 -120.5q-107 -76 -265 -127.5t-287 -51.5q-200 0 -306.5 73.5t-106.5 211.5q0 182 127 361q25 35 38 35q3 0 8 -3l3 -2
q5 -5 5 -12q0 -1 -2 -6l-3 -8q-2 -7 -7 -16l-11 -20l-14 -27q-55 -103 -55 -174q0 -200 360 -200q145 0 277.5 23.5t186.5 59.5l46 30q7 4 9 8l1 3v5q-4 7 -149 40q-143 33 -149 59q13 113 105 240q112 155 248 155h134q152 0 152 131q0 30 -8 77l-21 130q-32 201 -42 312
l-10 111q-11 122 -39 189l27 33q48 58 76 97q56 -122 128 -185q-61 -57 -61 -132q0 -36 8 -79l17 -90q54 -293 54 -447q0 -155 -88 -306q-83 -55 -259 -61z" />
    <glyph glyph-name="uniFC44" unicode="&#xfedf;&#xfef2;" horiz-adv-x="1584" arabic-form="isolated" 
d="M508 -949q-77 66 -147 109q47 59 103 148q45 -51 101 -85q41 53 72 106q76 -70 139 -108q-46 -60 -91 -153q-59 56 -110 86q-33 -41 -67 -103zM1153 1q-6 -1 -16 -1q-6 -1 -48 -1q-80 0 -139.5 -15.5t-59.5 -36.5q0 -19 60 -35l79 -21q9 -3 68 -17q89 -22 89 -62
q0 -56 -46.5 -127.5t-113.5 -120.5q-107 -76 -265 -127.5t-287 -51.5q-200 0 -306.5 73.5t-106.5 211.5q0 182 127 361q25 35 38 35q3 0 8 -3l3 -2q5 -5 5 -12q0 -1 -2 -6l-3 -8q-2 -7 -7 -16l-11 -20l-14 -27q-55 -103 -55 -174q0 -200 360 -200q145 0 277.5 23.5
t186.5 59.5l46 30q7 4 9 8l1 3v5q-4 7 -149 40q-143 33 -149 59q13 113 105 240q112 155 248 155h134q152 0 152 131q0 30 -8 77l-21 130q-32 201 -42 312l-10 111q-11 122 -39 189l27 33q48 58 76 97q56 -122 128 -185q-61 -57 -61 -132q0 -36 8 -79l17 -90
q54 -293 54 -447q0 -155 -88 -306q-83 -55 -259 -61z" />
    <glyph glyph-name="uniFC64" unicode="&#xfe8c;&#xfeae;" horiz-adv-x="1209" arabic-form="final" 
d="M1017 782q-24 38 -58 38q-26 0 -52 -14.5t-26 -29.5q0 -19 34.5 -40t65.5 -21q76 0 211 58l-4 -13q-25 -105 -99 -128q-197 -60 -227 -150q-32 23 -32 44q0 33 38 95q-73 39 -73 92q0 67 72 140.5t137 73.5q30 0 51 -19t21 -47q0 -44 -59 -79zM749 0h-39q-32 0 -42 -39
q-63 -249 -146 -350q-125 -151 -275 -151q-52 0 -145 44t-102 72v3q0 11 14 11h2q2 0 14 -2q16 -2 38 -2q76 0 179 47t178 116q118 110 159 263q-25 56 -119 134l101 177q30 -58 77.5 -80t140.5 -22h52q91 0 171 107q22 28 32 28q11 0 17 -21l12 -49q10 -38 26 -51.5
t50 -13.5h77q44 0 44 -30v-163q0 -11 -21.5 -19.5t-47.5 -8.5q-129 0 -172 95q-13 30 -24 30t-28 -24q-43 -58 -87 -80t-120 -22q-8 0 -16 1z" />
    <glyph glyph-name="uniFC67" unicode="&#xfe8c;&#xfee6;" horiz-adv-x="1540" arabic-form="final" 
d="M646 559q-67 -75 -114 -162q-83 77 -165 118q53 62 116 160q66 -60 163 -116zM1347 782q-24 38 -58 38q-26 0 -52 -14.5t-26 -29.5q0 -19 34.5 -40t65.5 -21q76 0 211 58l-4 -13q-25 -105 -99 -128q-197 -60 -227 -150q-32 23 -32 44q0 33 38 95q-73 39 -73 92
q0 67 72 140.5t137 73.5q30 0 51 -19t21 -47q0 -44 -59 -79zM1072 1q-44 2 -96 11q0 -273 -154 -435t-413 -162q-156 0 -252 88t-96 231q0 91 49 210.5t87 119.5q16 0 16 -19q0 -8 -12 -34q-53 -117 -53 -188q0 -86 81.5 -135.5t222.5 -49.5q219 0 357 102q84 63 84 194
q0 50 -16 128q-72 58 -103 135q36 78 109 159q48 -89 92 -112t161 -23h30q91 0 171 107q22 28 32 28q11 0 17 -21l12 -49q10 -38 26 -51.5t50 -13.5h77q44 0 44 -30v-163q0 -11 -21.5 -19.5t-47.5 -8.5q-129 0 -172 95q-13 30 -24 30t-28 -24q-43 -58 -87 -80t-120 -22
q-8 0 -16 1q-3 0 -7 1z" />
    <glyph glyph-name="uniFC6A" unicode="&#xfe92;&#xfeae;" horiz-adv-x="1209" arabic-form="final" 
d="M749 0h-39q-32 0 -42 -39q-63 -249 -146 -350q-125 -151 -275 -151q-52 0 -145 44t-102 72v3q0 11 14 11h2q2 0 14 -2q16 -2 38 -2q76 0 179 47t178 116q118 110 159 263q-25 56 -119 134l101 177q30 -58 77.5 -80t140.5 -22h51q91 0 172 107q21 28 31 28q12 0 17 -21
l13 -49q10 -38 25.5 -51.5t50.5 -13.5h77q43 0 43 -30v-163q0 -11 -21 -19.5t-47 -8.5q-129 0 -172 95q-13 30 -24 30t-29 -24q-42 -58 -86.5 -80t-119.5 -22q-8 0 -16 1zM1132 -327q-66 -75 -113 -162q-83 76 -165 118q52 62 116 159q66 -59 162 -115z" />
    <glyph glyph-name="uniFC70" unicode="&#xfe98;&#xfeae;" horiz-adv-x="1187" arabic-form="final" 
d="M909 538q-77 66 -147 110q47 58 102 147q46 -51 101 -85q42 53 73 106q75 -70 139 -108q-46 -60 -91 -152q-59 55 -110 86q-34 -42 -67 -104zM730 0h-20q-32 0 -42 -39q-63 -249 -146 -350q-125 -151 -275 -151q-52 0 -145 44t-102 72v3q0 11 14 11h2q2 0 14 -2
q16 -2 38 -2q76 0 179 47t178 116q118 110 159 263q-25 56 -119 134l101 177q30 -58 77.5 -80t140.5 -22h32q91 0 172 107q21 28 31 28q12 0 17 -21l13 -49q10 -38 25.5 -51.5t49.5 -13.5h77q44 0 44 -30v-163q0 -11 -21 -19.5t-47 -8.5q-129 0 -173 95q-13 30 -23 30
q-12 0 -29 -24q-43 -58 -87 -80t-120 -22q-8 0 -15 1z" />
    <glyph glyph-name="uniFC86" unicode="&#xfee0;&#xfef0;" horiz-adv-x="1674" arabic-form="final" 
d="M1137 0q-6 -1 -48 -1q-80 0 -139.5 -15.5t-59.5 -36.5q0 -19 60 -35l79 -21q9 -3 68 -17q89 -22 89 -62q0 -56 -46.5 -127.5t-113.5 -120.5q-107 -76 -265 -127.5t-287 -51.5q-200 0 -306.5 73.5t-106.5 211.5q0 182 127 361q25 35 38 35q3 0 8 -3l3 -2q5 -5 5 -12
q0 -1 -2 -6l-3 -8q-2 -7 -7 -16l-11 -20l-14 -27q-55 -103 -55 -174q0 -200 360 -200q145 0 277.5 23.5t186.5 59.5l46 30q7 4 9 8l1 3v5q-4 7 -149 40q-143 33 -149 59q13 113 105 240q111 154 246 155q9 1 20 1l13 -1q141 0 188 32t47 128q0 169 -65 689l-9 78l133 152
l38 -475q0 -147 23 -335l7 -59q16 -128 56 -169t151 -41q44 0 44 -30v-163q0 -10 -21 -19t-45 -9q-87 0 -126 17q-37 17 -70 60t-42 87q-11 48 -26 48q-13 0 -29 -41q-65 -171 -179 -171h-54z" />
    <glyph glyph-name="uniFC87" unicode="&#xfee0;&#xfef2;" horiz-adv-x="1674" arabic-form="final" 
d="M508 -949q-77 66 -147 109q47 59 103 148q45 -51 101 -85q41 53 72 106q76 -70 139 -108q-46 -60 -91 -153q-59 56 -110 86q-33 -41 -67 -103zM1137 0q-6 -1 -48 -1q-80 0 -139.5 -15.5t-59.5 -36.5q0 -19 60 -35l79 -21q9 -3 68 -17q89 -22 89 -62q0 -56 -46.5 -127.5
t-113.5 -120.5q-107 -76 -265 -127.5t-287 -51.5q-200 0 -306.5 73.5t-106.5 211.5q0 182 127 361q25 35 38 35q3 0 8 -3l3 -2q5 -5 5 -12q0 -1 -2 -6l-3 -8q-2 -7 -7 -16l-11 -20l-14 -27q-55 -103 -55 -174q0 -200 360 -200q145 0 277.5 23.5t186.5 59.5l46 30q7 4 9 8
l1 3v5q-4 7 -149 40q-143 33 -149 59q13 113 105 240q111 154 246 155q9 1 20 1l13 -1q141 0 188 32t47 128q0 169 -65 689l-9 78l133 152l38 -475q0 -147 23 -335l7 -59q16 -128 56 -169t151 -41q44 0 44 -30v-163q0 -10 -21 -19t-45 -9q-87 0 -126 17q-37 17 -70 60
t-42 87q-11 48 -26 48q-13 0 -29 -41q-65 -171 -179 -171h-54z" />
    <glyph glyph-name="uniFCCC" unicode="&#xfedf;&#xfee4;" horiz-adv-x="1375" arabic-form="initial" 
d="M509 180q25 0 25 37q0 59 -29.5 112t-61.5 53q-21 0 -57.5 -35.5t-36.5 -55.5q0 -19 66.5 -65t93.5 -46zM924 0q-14 -1 -31 -1q-101 0 -180 59q-39 28 -50 28q-15 0 -24 -60q-13 -84 -68 -84q-43 0 -184 105l-77 57q-53 40 -74 40q-12 0 -27 -18l-28 -33
q-47 -55 -83.5 -74t-93.5 -19q-63 0 -63 31v158q0 32 55 32h33q91 0 139.5 22.5t87.5 82.5q117 178 181 178q41 0 102 -64q127 -136 185 -177.5t120 -41.5h155q152 0 152 131q0 30 -8 77l-21 130q-32 201 -42 312l-10 111q-11 122 -39 189l27 33q48 58 76 97
q56 -122 128 -185q-61 -57 -61 -132q0 -36 8 -79l17 -90q54 -293 54 -447q0 -155 -88 -306q-86 -56 -268 -62z" />
    <glyph glyph-name="uniFCFB" unicode="&#xfeb3;&#xfef0;" horiz-adv-x="2294" arabic-form="isolated" 
d="M1158 2q-6 -2 -21 -2q-6 -1 -48 -1q-80 0 -139.5 -15.5t-59.5 -36.5q0 -19 60 -35l79 -21q9 -3 68 -17q89 -22 89 -62q0 -56 -46.5 -127.5t-113.5 -120.5q-107 -76 -265 -127.5t-287 -51.5q-200 0 -306.5 73.5t-106.5 211.5q0 182 127 361q25 35 38 35q3 0 8 -3l3 -2
q5 -5 5 -12q0 -1 -2 -6l-3 -8q-2 -7 -7 -16l-11 -20l-14 -27q-55 -103 -55 -174q0 -200 360 -200q145 0 277.5 23.5t186.5 59.5l46 30q7 4 9 8l1 3v5q-4 7 -149 40q-143 33 -149 59q13 113 105 240q112 155 248 155h16q19 2 50 2q165 0 226 87q32 45 43 45t23 -39
q29 -95 145 -95q85 0 139.5 32t100.5 108q35 58 54 58q15 0 22 -21l9 -30q32 -103 167 -103h8q-15 53 -56 100q43 100 101 150q67 -68 67 -182q0 -130 -52.5 -202t-146.5 -72q-82 0 -175 79q-96 -139 -237 -139q-111 0 -186 111q-15 22 -25 22q-11 0 -49 -47
q-60 -73 -171 -83z" />
    <glyph glyph-name="uniFCFC" unicode="&#xfeb3;&#xfef2;" horiz-adv-x="2294" arabic-form="isolated" 
d="M508 -949q-77 66 -147 109q47 59 103 148q45 -51 101 -85q41 53 72 106q76 -70 139 -108q-46 -60 -91 -153q-59 56 -110 86q-33 -41 -67 -103zM1158 2q-6 -2 -21 -2q-6 -1 -48 -1q-80 0 -139.5 -15.5t-59.5 -36.5q0 -19 60 -35l79 -21q9 -3 68 -17q89 -22 89 -62
q0 -56 -46.5 -127.5t-113.5 -120.5q-107 -76 -265 -127.5t-287 -51.5q-200 0 -306.5 73.5t-106.5 211.5q0 182 127 361q25 35 38 35q3 0 8 -3l3 -2q5 -5 5 -12q0 -1 -2 -6l-3 -8q-2 -7 -7 -16l-11 -20l-14 -27q-55 -103 -55 -174q0 -200 360 -200q145 0 277.5 23.5
t186.5 59.5l46 30q7 4 9 8l1 3v5q-4 7 -149 40q-143 33 -149 59q13 113 105 240q112 155 248 155h16q19 2 50 2q165 0 226 87q32 45 43 45t23 -39q29 -95 145 -95q85 0 139.5 32t100.5 108q35 58 54 58q15 0 22 -21l9 -30q32 -103 167 -103h8q-15 53 -56 100q43 100 101 150
q67 -68 67 -182q0 -130 -52.5 -202t-146.5 -72q-82 0 -175 79q-96 -139 -237 -139q-111 0 -186 111q-15 22 -25 22q-11 0 -49 -47q-60 -73 -171 -83z" />
    <glyph glyph-name="uniFCFD" unicode="&#xfeb7;&#xfef0;" horiz-adv-x="2294" arabic-form="isolated" 
d="M1791 637q-77 66 -147 110q47 58 103 147q45 -51 101 -85q41 53 72 106q76 -70 139 -108q-46 -60 -91 -152q-59 55 -110 86q-33 -42 -67 -104zM1158 2q-6 -2 -21 -2q-6 -1 -48 -1q-80 0 -139.5 -15.5t-59.5 -36.5q0 -19 60 -35l79 -21q9 -3 68 -17q89 -22 89 -62
q0 -56 -46.5 -127.5t-113.5 -120.5q-107 -76 -265 -127.5t-287 -51.5q-200 0 -306.5 73.5t-106.5 211.5q0 182 127 361q25 35 38 35q3 0 8 -3l3 -2q5 -5 5 -12q0 -1 -2 -6l-3 -8q-2 -7 -7 -16l-11 -20l-14 -27q-55 -103 -55 -174q0 -200 360 -200q145 0 277.5 23.5
t186.5 59.5l46 30q7 4 9 8l1 3v5q-4 7 -149 40q-143 33 -149 59q13 113 105 240q112 155 248 155h16q19 2 50 2q165 0 226 87q32 45 43 45t23 -39q29 -95 145 -95q85 0 139.5 32t100.5 108q35 58 54 58q15 0 22 -21l9 -30q32 -103 167 -103h8q-15 53 -56 100q43 100 101 150
q67 -68 67 -182q0 -130 -52.5 -202t-146.5 -72q-82 0 -175 79q-96 -139 -237 -139q-111 0 -186 111q-15 22 -25 22q-11 0 -49 -47q-60 -73 -171 -83zM1836 882l-37 30q-52 41 -103 71q47 67 90 165q72 -72 140 -114q-52 -79 -90 -152z" />
    <glyph glyph-name="uniFCFE" unicode="&#xfeb7;&#xfef2;" horiz-adv-x="2294" arabic-form="isolated" 
d="M508 -949q-77 66 -147 109q47 59 103 148q45 -51 101 -85q41 53 72 106q76 -70 139 -108q-46 -60 -91 -153q-59 56 -110 86q-33 -41 -67 -103zM1791 637q-77 66 -147 110q47 58 103 147q45 -51 101 -85q41 53 72 106q76 -70 139 -108q-46 -60 -91 -152q-59 55 -110 86
q-33 -42 -67 -104zM1158 2q-6 -2 -21 -2q-6 -1 -48 -1q-80 0 -139.5 -15.5t-59.5 -36.5q0 -19 60 -35l79 -21q9 -3 68 -17q89 -22 89 -62q0 -56 -46.5 -127.5t-113.5 -120.5q-107 -76 -265 -127.5t-287 -51.5q-200 0 -306.5 73.5t-106.5 211.5q0 182 127 361q25 35 38 35
q3 0 8 -3l3 -2q5 -5 5 -12q0 -1 -2 -6l-3 -8q-2 -7 -7 -16l-11 -20l-14 -27q-55 -103 -55 -174q0 -200 360 -200q145 0 277.5 23.5t186.5 59.5l46 30q7 4 9 8l1 3v5q-4 7 -149 40q-143 33 -149 59q13 113 105 240q112 155 248 155h16q19 2 50 2q165 0 226 87q32 45 43 45
t23 -39q29 -95 145 -95q85 0 139.5 32t100.5 108q35 58 54 58q15 0 22 -21l9 -30q32 -103 167 -103h8q-15 53 -56 100q43 100 101 150q67 -68 67 -182q0 -130 -52.5 -202t-146.5 -72q-82 0 -175 79q-96 -139 -237 -139q-111 0 -186 111q-15 22 -25 22q-11 0 -49 -47
q-60 -73 -171 -83zM1836 882l-37 30q-52 41 -103 71q47 67 90 165q72 -72 140 -114q-52 -79 -90 -152z" />
    <glyph glyph-name="uniFD05" unicode="&#xfebb;&#xfef0;" horiz-adv-x="2615" arabic-form="isolated" 
d="M1846 212q157 0 320 50q85 27 163 65t78 54q0 24 -62.5 52t-116.5 28q-95 0 -200.5 -69t-181.5 -180zM1156 1q-7 -1 -19 -1q-6 -1 -48 -1q-80 0 -139.5 -15.5t-59.5 -36.5q0 -19 60 -35l79 -21q9 -3 68 -17q89 -22 89 -62q0 -56 -46.5 -127.5t-113.5 -120.5
q-107 -76 -265 -127.5t-287 -51.5q-200 0 -306.5 73.5t-106.5 211.5q0 182 127 361q25 35 38 35q3 0 8 -3l3 -2q5 -5 5 -12q0 -1 -2 -6l-3 -8q-2 -7 -7 -16l-11 -20l-14 -27q-55 -103 -55 -174q0 -200 360 -200q145 0 277.5 23.5t186.5 59.5l46 30q7 4 9 8l1 3v5
q-4 7 -149 40q-143 33 -149 59q13 113 105 240q112 155 248 155h18l57 1q167 0 235 112q12 22 24 22t18 -21l13 -43q21 -71 126 -71h150q166 210 320 326t267 116q90 0 151 -61.5t61 -151.5q0 -188 -174 -295q-109 -68 -285.5 -111.5t-339.5 -43.5l-3 -6l-27 -57l-21 -42
q-20 -41 -39 -41q-28 0 -28 39q0 47 29 107q-140 0 -206 78l-37 43q-9 11 -18 11q-10 0 -42 -43q-60 -79 -178 -88z" />
    <glyph glyph-name="uniFD06" unicode="&#xfebb;&#xfef2;" horiz-adv-x="2615" arabic-form="isolated" 
d="M508 -949q-77 66 -147 109q47 59 103 148q45 -51 101 -85q41 53 72 106q76 -70 139 -108q-46 -60 -91 -153q-59 56 -110 86q-33 -41 -67 -103zM1846 212q157 0 320 50q85 27 163 65t78 54q0 24 -62.5 52t-116.5 28q-95 0 -200.5 -69t-181.5 -180zM1156 1q-7 -1 -19 -1
q-6 -1 -48 -1q-80 0 -139.5 -15.5t-59.5 -36.5q0 -19 60 -35l79 -21q9 -3 68 -17q89 -22 89 -62q0 -56 -46.5 -127.5t-113.5 -120.5q-107 -76 -265 -127.5t-287 -51.5q-200 0 -306.5 73.5t-106.5 211.5q0 182 127 361q25 35 38 35q3 0 8 -3l3 -2q5 -5 5 -12q0 -1 -2 -6
l-3 -8q-2 -7 -7 -16l-11 -20l-14 -27q-55 -103 -55 -174q0 -200 360 -200q145 0 277.5 23.5t186.5 59.5l46 30q7 4 9 8l1 3v5q-4 7 -149 40q-143 33 -149 59q13 113 105 240q112 155 248 155h18l57 1q167 0 235 112q12 22 24 22t18 -21l13 -43q21 -71 126 -71h150
q166 210 320 326t267 116q90 0 151 -61.5t61 -151.5q0 -188 -174 -295q-109 -68 -285.5 -111.5t-339.5 -43.5l-3 -6l-27 -57l-21 -42q-20 -41 -39 -41q-28 0 -28 39q0 47 29 107q-140 0 -206 78l-37 43q-9 11 -18 11q-10 0 -42 -43q-60 -79 -178 -88z" />
    <glyph glyph-name="uniFD07" unicode="&#xfebf;&#xfef0;" horiz-adv-x="2615" arabic-form="isolated" 
d="M2211 1017q-67 -75 -114 -162q-75 70 -162 118q69 91 113 160q67 -60 163 -116zM1846 212q157 0 320 50q85 27 163 65t78 54q0 24 -62.5 52t-116.5 28q-95 0 -200.5 -69t-181.5 -180zM1156 1q-7 -1 -19 -1q-6 -1 -48 -1q-80 0 -139.5 -15.5t-59.5 -36.5q0 -19 60 -35
l79 -21q9 -3 68 -17q89 -22 89 -62q0 -56 -46.5 -127.5t-113.5 -120.5q-107 -76 -265 -127.5t-287 -51.5q-200 0 -306.5 73.5t-106.5 211.5q0 182 127 361q25 35 38 35q3 0 8 -3l3 -2q5 -5 5 -12q0 -1 -2 -6l-3 -8q-2 -7 -7 -16l-11 -20l-14 -27q-55 -103 -55 -174
q0 -200 360 -200q145 0 277.5 23.5t186.5 59.5l46 30q7 4 9 8l1 3v5q-4 7 -149 40q-143 33 -149 59q13 113 105 240q112 155 248 155h18l57 1q167 0 235 112q12 22 24 22t18 -21l13 -43q21 -71 126 -71h150q166 210 320 326t267 116q90 0 151 -61.5t61 -151.5
q0 -188 -174 -295q-109 -68 -285.5 -111.5t-339.5 -43.5l-3 -6l-27 -57l-21 -42q-20 -41 -39 -41q-28 0 -28 39q0 47 29 107q-140 0 -206 78l-37 43q-9 11 -18 11q-10 0 -42 -43q-60 -79 -178 -88z" />
    <glyph glyph-name="uniFD08" unicode="&#xfebf;&#xfef2;" horiz-adv-x="2615" arabic-form="isolated" 
d="M508 -949q-77 66 -147 109q47 59 103 148q45 -51 101 -85q41 53 72 106q76 -70 139 -108q-46 -60 -91 -153q-59 56 -110 86q-33 -41 -67 -103zM2211 1017q-67 -75 -114 -162q-75 70 -162 118q69 91 113 160q67 -60 163 -116zM1846 212q157 0 320 50q85 27 163 65t78 54
q0 24 -62.5 52t-116.5 28q-95 0 -200.5 -69t-181.5 -180zM1156 1q-7 -1 -19 -1q-6 -1 -48 -1q-80 0 -139.5 -15.5t-59.5 -36.5q0 -19 60 -35l79 -21q9 -3 68 -17q89 -22 89 -62q0 -56 -46.5 -127.5t-113.5 -120.5q-107 -76 -265 -127.5t-287 -51.5q-200 0 -306.5 73.5
t-106.5 211.5q0 182 127 361q25 35 38 35q3 0 8 -3l3 -2q5 -5 5 -12q0 -1 -2 -6l-3 -8q-2 -7 -7 -16l-11 -20l-14 -27q-55 -103 -55 -174q0 -200 360 -200q145 0 277.5 23.5t186.5 59.5l46 30q7 4 9 8l1 3v5q-4 7 -149 40q-143 33 -149 59q13 113 105 240q112 155 248 155
h18l57 1q167 0 235 112q12 22 24 22t18 -21l13 -43q21 -71 126 -71h150q166 210 320 326t267 116q90 0 151 -61.5t61 -151.5q0 -188 -174 -295q-109 -68 -285.5 -111.5t-339.5 -43.5l-3 -6l-27 -57l-21 -42q-20 -41 -39 -41q-28 0 -28 39q0 47 29 107q-140 0 -206 78l-37 43
q-9 11 -18 11q-10 0 -42 -43q-60 -79 -178 -88z" />
    <glyph glyph-name="uniFD0D" unicode="&#xfeb7;&#xfeae;" horiz-adv-x="1937" arabic-form="isolated" 
d="M1441 637q-77 66 -147 110q47 58 103 147q45 -51 101 -85q41 53 72 106q76 -70 139 -108q-46 -60 -91 -152q-59 55 -110 86q-33 -42 -67 -104zM1486 882l-37 30q-52 41 -103 71q47 67 90 165q72 -72 140 -114q-52 -79 -90 -152zM710 0q-32 0 -42 -39q-63 -249 -146 -350
q-125 -151 -275 -151q-52 0 -145 44t-102 72v3q0 11 14 11h2q2 0 14 -2q16 -2 38 -2q76 0 179 47t178 116q118 110 159 263q-25 56 -119 134l101 177q30 -58 78 -80q40 -19 112 -21q18 1 45 1q165 0 226 87q32 45 43 45t23 -39q29 -95 145 -95q85 0 139.5 32t100.5 108
q35 58 54 58q15 0 22 -21l9 -30q32 -103 167 -103h8q-15 53 -56 100q43 100 101 150q67 -68 67 -182q0 -130 -52.5 -202t-146.5 -72q-82 0 -175 79q-96 -139 -237 -139q-111 0 -186 111q-15 22 -25 22q-11 0 -49 -47q-70 -85 -209 -85h-60z" />
    <glyph glyph-name="uniFD0E" unicode="&#xfeb3;&#xfeae;" horiz-adv-x="1937" arabic-form="isolated" 
d="M710 0q-32 0 -42 -39q-63 -249 -146 -350q-125 -151 -275 -151q-52 0 -145 44t-102 72v3q0 11 14 11h2q2 0 14 -2q16 -2 38 -2q76 0 179 47t178 116q118 110 159 263q-25 56 -119 134l101 177q30 -58 78 -80q40 -19 112 -21q18 1 45 1q165 0 226 87q32 45 43 45t23 -39
q29 -95 145 -95q85 0 139.5 32t100.5 108q35 58 54 58q15 0 22 -21l9 -30q32 -103 167 -103h8q-15 53 -56 100q43 100 101 150q67 -68 67 -182q0 -130 -52.5 -202t-146.5 -72q-82 0 -175 79q-96 -139 -237 -139q-111 0 -186 111q-15 22 -25 22q-11 0 -49 -47
q-70 -85 -209 -85h-60z" />
    <glyph glyph-name="uniFD0F" unicode="&#xfebb;&#xfeae;" horiz-adv-x="2249" arabic-form="isolated" 
d="M1486 212q157 0 320 50q85 27 163 65t78 54q0 24 -62.5 52t-116.5 28q-95 0 -200.5 -69t-181.5 -180zM710 0q-32 0 -42 -39q-63 -249 -146 -350q-125 -151 -275 -151q-52 0 -145 44t-102 72v3q0 11 14 11h2q2 0 14 -2q16 -2 38 -2q76 0 179 47t178 116q118 110 159 263
q-25 56 -119 134l101 177q30 -58 78 -80q41 -19 118 -22l38 1q167 0 235 112q12 22 24 22t18 -21l13 -43q21 -71 126 -71h150q166 210 320 326t267 116q90 0 151 -61.5t61 -151.5q0 -188 -174 -295q-109 -68 -285.5 -111.5t-339.5 -43.5l-3 -6l-27 -57l-21 -42
q-20 -41 -39 -41q-28 0 -28 39q0 47 29 107q-140 0 -206 78l-37 43q-9 11 -18 11q-10 0 -42 -43q-66 -86 -201 -89h-63z" />
    <glyph glyph-name="uniFD10" unicode="&#xfebf;&#xfeae;" horiz-adv-x="2249" arabic-form="isolated" 
d="M1486 212q157 0 320 50q85 27 163 65t78 54q0 24 -62.5 52t-116.5 28q-95 0 -200.5 -69t-181.5 -180zM710 0q-32 0 -42 -39q-63 -249 -146 -350q-125 -151 -275 -151q-52 0 -145 44t-102 72v3q0 11 14 11h2q2 0 14 -2q16 -2 38 -2q76 0 179 47t178 116q118 110 159 263
q-25 56 -119 134l101 177q30 -58 78 -80q41 -19 118 -22l38 1q167 0 235 112q12 22 24 22t18 -21l13 -43q21 -71 126 -71h150q166 210 320 326t267 116q90 0 151 -61.5t61 -151.5q0 -188 -174 -295q-109 -68 -285.5 -111.5t-339.5 -43.5l-3 -6l-27 -57l-21 -42
q-20 -41 -39 -41q-28 0 -28 39q0 47 29 107q-140 0 -206 78l-37 43q-9 11 -18 11q-10 0 -42 -43q-66 -86 -201 -89h-63zM1851 1017q-67 -75 -114 -162q-75 70 -162 118q69 91 113 160q67 -60 163 -116z" />
    <glyph glyph-name="uniFD17" unicode="&#xfeb4;&#xfef0;" horiz-adv-x="2263" arabic-form="final" 
d="M1153 1q-6 -1 -16 -1q-6 -1 -48 -1q-80 0 -139.5 -15.5t-59.5 -36.5q0 -19 60 -35l79 -21q9 -3 68 -17q89 -22 89 -62q0 -56 -46.5 -127.5t-113.5 -120.5q-107 -76 -265 -127.5t-287 -51.5q-200 0 -306.5 73.5t-106.5 211.5q0 182 127 361q25 35 38 35q3 0 8 -3l3 -2
q5 -5 5 -12q0 -1 -2 -6l-3 -8q-2 -7 -7 -16l-11 -20l-14 -27q-55 -103 -55 -174q0 -200 360 -200q145 0 277.5 23.5t186.5 59.5l46 30q7 4 9 8l1 3v5q-4 7 -149 40q-143 33 -149 59q13 113 105 240q112 155 248 155h17l50 1q83 0 141.5 27.5t101.5 86.5q14 19 24 19
q12 0 16 -21q14 -63 45.5 -88t98.5 -25q75 0 121 23t90 82q22 29 36 29q13 0 19 -21q22 -77 41.5 -101t61.5 -24q79 0 112 110q12 36 30 36q12 0 19 -18l11 -28q32 -88 155 -88q44 0 44 -30v-163q0 -29 -71 -29q-85 0 -135 86q-15 26 -25 26q-11 0 -37 -38q-50 -74 -117 -74
t-103 70l-19 37q-13 26 -27 26q-13 0 -38 -38q-63 -95 -166 -95q-98 0 -171 99q-25 33 -35 33q-12 0 -45 -43q-61 -80 -177 -87z" />
    <glyph glyph-name="uniFD18" unicode="&#xfeb4;&#xfef2;" horiz-adv-x="2263" arabic-form="final" 
d="M508 -949q-77 66 -147 109q47 59 103 148q45 -51 101 -85q41 53 72 106q76 -70 139 -108q-46 -60 -91 -153q-59 56 -110 86q-33 -41 -67 -103zM1153 1q-6 -1 -16 -1q-6 -1 -48 -1q-80 0 -139.5 -15.5t-59.5 -36.5q0 -19 60 -35l79 -21q9 -3 68 -17q89 -22 89 -62
q0 -56 -46.5 -127.5t-113.5 -120.5q-107 -76 -265 -127.5t-287 -51.5q-200 0 -306.5 73.5t-106.5 211.5q0 182 127 361q25 35 38 35q3 0 8 -3l3 -2q5 -5 5 -12q0 -1 -2 -6l-3 -8q-2 -7 -7 -16l-11 -20l-14 -27q-55 -103 -55 -174q0 -200 360 -200q145 0 277.5 23.5
t186.5 59.5l46 30q7 4 9 8l1 3v5q-4 7 -149 40q-143 33 -149 59q13 113 105 240q112 155 248 155h17l50 1q83 0 141.5 27.5t101.5 86.5q14 19 24 19q12 0 16 -21q14 -63 45.5 -88t98.5 -25q75 0 121 23t90 82q22 29 36 29q13 0 19 -21q22 -77 41.5 -101t61.5 -24
q79 0 112 110q12 36 30 36q12 0 19 -18l11 -28q32 -88 155 -88q44 0 44 -30v-163q0 -29 -71 -29q-85 0 -135 86q-15 26 -25 26q-11 0 -37 -38q-50 -74 -117 -74t-103 70l-19 37q-13 26 -27 26q-13 0 -38 -38q-63 -95 -166 -95q-98 0 -171 99q-25 33 -35 33q-12 0 -45 -43
q-61 -80 -177 -87z" />
    <glyph glyph-name="uniFD19" unicode="&#xfeb8;&#xfef0;" horiz-adv-x="2263" arabic-form="final" 
d="M1830 540q-77 66 -147 110q47 58 103 147q45 -51 101 -85q41 53 72 106q76 -70 139 -108q-46 -60 -91 -152q-59 55 -110 86q-33 -42 -67 -104zM1875 785l-38 30q-51 41 -103 71q48 67 91 165q71 -72 140 -114q-52 -79 -90 -152zM1153 1q-6 -1 -16 -1q-6 -1 -48 -1
q-80 0 -139.5 -15.5t-59.5 -36.5q0 -19 60 -35l79 -21q9 -3 68 -17q89 -22 89 -62q0 -56 -46.5 -127.5t-113.5 -120.5q-107 -76 -265 -127.5t-287 -51.5q-200 0 -306.5 73.5t-106.5 211.5q0 182 127 361q25 35 38 35q3 0 8 -3l3 -2q5 -5 5 -12q0 -1 -2 -6l-3 -8
q-2 -7 -7 -16l-11 -20l-14 -27q-55 -103 -55 -174q0 -200 360 -200q145 0 277.5 23.5t186.5 59.5l46 30q7 4 9 8l1 3v5q-4 7 -149 40q-143 33 -149 59q13 113 105 240q112 155 248 155h17l50 1q83 0 141.5 27.5t101.5 86.5q14 19 24 19q12 0 16 -21q14 -63 45.5 -88
t98.5 -25q75 0 121 23t90 82q22 29 36 29q13 0 19 -21q22 -77 41.5 -101t61.5 -24q79 0 112 110q12 36 30 36q12 0 19 -18l11 -28q32 -88 155 -88q44 0 44 -30v-163q0 -29 -71 -29q-85 0 -135 86q-15 26 -25 26q-11 0 -37 -38q-50 -74 -117 -74t-103 70l-19 37
q-13 26 -27 26q-13 0 -38 -38q-63 -95 -166 -95q-98 0 -171 99q-25 33 -35 33q-12 0 -45 -43q-61 -80 -177 -87z" />
    <glyph glyph-name="uniFD1A" unicode="&#xfeb8;&#xfef2;" horiz-adv-x="2263" arabic-form="final" 
d="M508 -949q-77 66 -147 109q47 59 103 148q45 -51 101 -85q41 53 72 106q76 -70 139 -108q-46 -60 -91 -153q-59 56 -110 86q-33 -41 -67 -103zM1830 540q-77 66 -147 110q47 58 103 147q45 -51 101 -85q41 53 72 106q76 -70 139 -108q-46 -60 -91 -152q-59 55 -110 86
q-33 -42 -67 -104zM1875 785l-38 30q-51 41 -103 71q48 67 91 165q71 -72 140 -114q-52 -79 -90 -152zM1153 1q-6 -1 -16 -1q-6 -1 -48 -1q-80 0 -139.5 -15.5t-59.5 -36.5q0 -19 60 -35l79 -21q9 -3 68 -17q89 -22 89 -62q0 -56 -46.5 -127.5t-113.5 -120.5
q-107 -76 -265 -127.5t-287 -51.5q-200 0 -306.5 73.5t-106.5 211.5q0 182 127 361q25 35 38 35q3 0 8 -3l3 -2q5 -5 5 -12q0 -1 -2 -6l-3 -8q-2 -7 -7 -16l-11 -20l-14 -27q-55 -103 -55 -174q0 -200 360 -200q145 0 277.5 23.5t186.5 59.5l46 30q7 4 9 8l1 3v5
q-4 7 -149 40q-143 33 -149 59q13 113 105 240q112 155 248 155h17l50 1q83 0 141.5 27.5t101.5 86.5q14 19 24 19q12 0 16 -21q14 -63 45.5 -88t98.5 -25q75 0 121 23t90 82q22 29 36 29q13 0 19 -21q22 -77 41.5 -101t61.5 -24q79 0 112 110q12 36 30 36q12 0 19 -18
l11 -28q32 -88 155 -88q44 0 44 -30v-163q0 -29 -71 -29q-85 0 -135 86q-15 26 -25 26q-11 0 -37 -38q-50 -74 -117 -74t-103 70l-19 37q-13 26 -27 26q-13 0 -38 -38q-63 -95 -166 -95q-98 0 -171 99q-25 33 -35 33q-12 0 -45 -43q-61 -80 -177 -87z" />
    <glyph glyph-name="uniFD21" unicode="&#xfebc;&#xfef0;" horiz-adv-x="2584" arabic-form="final" 
d="M1832 212q157 0 320 50q86 27 163.5 65t77.5 54q0 24 -62.5 52t-116.5 28q-95 0 -200.5 -69t-181.5 -180zM1162 3q-6 -3 -25 -3q-6 -1 -48 -1q-80 0 -139.5 -15.5t-59.5 -36.5q0 -19 60 -35l79 -21q9 -3 68 -17q89 -22 89 -62q0 -56 -46.5 -127.5t-113.5 -120.5
q-107 -76 -265 -127.5t-287 -51.5q-200 0 -306.5 73.5t-106.5 211.5q0 182 127 361q25 35 38 35q3 0 8 -3l3 -2q5 -5 5 -12q0 -1 -2 -6l-3 -8q-2 -7 -7 -16l-11 -20l-14 -27q-55 -103 -55 -174q0 -200 360 -200q145 0 277.5 23.5t186.5 59.5l46 30q7 4 9 8l1 3v5
q-4 7 -149 40q-143 33 -149 59q13 113 105 240q112 155 248 155h7l58 1q167 0 234 112q13 22 24 22q12 0 18 -21l13 -43q22 -71 127 -71h149q165 209 319.5 325.5t265.5 116.5q89 0 150 -61t61 -150q0 -54 -30 -129.5t-64 -108.5q-5 -4 -5 -7l1 -3q1 -1 4 -1q7 0 22 4
q4 1 22 4l23 4l26 2l22 3q14 1 43 1h29q44 0 44 -30v-163q0 -29 -107 -29q-159 0 -418 22q-41 4 -55 4q-10 0 -71 -4l-91 -4l-133 -13q-16 -2 -61 -4l-3 -6l-27 -57l-21 -42q-19 -41 -39 -41q-28 0 -28 39q0 47 29 107q-136 0 -203 78l-36 43q-10 11 -18 11q-10 0 -43 -43
q-56 -73 -161 -86z" />
    <glyph glyph-name="uniFD22" unicode="&#xfebc;&#xfef2;" horiz-adv-x="2584" arabic-form="final" 
d="M1832 212q157 0 320 50q86 27 163.5 65t77.5 54q0 24 -62.5 52t-116.5 28q-95 0 -200.5 -69t-181.5 -180zM508 -949q-77 66 -147 109q47 59 103 148q45 -51 101 -85q41 53 72 106q76 -70 139 -108q-46 -60 -91 -153q-59 56 -110 86q-33 -41 -67 -103zM1162 3
q-6 -3 -25 -3q-6 -1 -48 -1q-80 0 -139.5 -15.5t-59.5 -36.5q0 -19 60 -35l79 -21q9 -3 68 -17q89 -22 89 -62q0 -56 -46.5 -127.5t-113.5 -120.5q-107 -76 -265 -127.5t-287 -51.5q-200 0 -306.5 73.5t-106.5 211.5q0 182 127 361q25 35 38 35q3 0 8 -3l3 -2q5 -5 5 -12
q0 -1 -2 -6l-3 -8q-2 -7 -7 -16l-11 -20l-14 -27q-55 -103 -55 -174q0 -200 360 -200q145 0 277.5 23.5t186.5 59.5l46 30q7 4 9 8l1 3v5q-4 7 -149 40q-143 33 -149 59q13 113 105 240q112 155 248 155h7l58 1q167 0 234 112q13 22 24 22q12 0 18 -21l13 -43
q22 -71 127 -71h149q165 209 319.5 325.5t265.5 116.5q89 0 150 -61t61 -150q0 -54 -30 -129.5t-64 -108.5q-5 -4 -5 -7l1 -3q1 -1 4 -1q7 0 22 4q4 1 22 4l23 4l26 2l22 3q14 1 43 1h29q44 0 44 -30v-163q0 -29 -107 -29q-159 0 -418 22q-41 4 -55 4q-10 0 -71 -4l-91 -4
l-133 -13q-16 -2 -61 -4l-3 -6l-27 -57l-21 -42q-19 -41 -39 -41q-28 0 -28 39q0 47 29 107q-136 0 -203 78l-36 43q-10 11 -18 11q-10 0 -43 -43q-56 -73 -161 -86z" />
    <glyph glyph-name="uniFD23" unicode="&#xfec0;&#xfef0;" horiz-adv-x="2584" arabic-form="final" 
d="M1832 212q157 0 320 50q86 27 163.5 65t77.5 54q0 24 -62.5 52t-116.5 28q-95 0 -200.5 -69t-181.5 -180zM1162 3q-6 -3 -25 -3q-6 -1 -48 -1q-80 0 -139.5 -15.5t-59.5 -36.5q0 -19 60 -35l79 -21q9 -3 68 -17q89 -22 89 -62q0 -56 -46.5 -127.5t-113.5 -120.5
q-107 -76 -265 -127.5t-287 -51.5q-200 0 -306.5 73.5t-106.5 211.5q0 182 127 361q25 35 38 35q3 0 8 -3l3 -2q5 -5 5 -12q0 -1 -2 -6l-3 -8q-2 -7 -7 -16l-11 -20l-14 -27q-55 -103 -55 -174q0 -200 360 -200q145 0 277.5 23.5t186.5 59.5l46 30q7 4 9 8l1 3v5
q-4 7 -149 40q-143 33 -149 59q13 113 105 240q112 155 248 155h7l58 1q167 0 234 112q13 22 24 22q12 0 18 -21l13 -43q22 -71 127 -71h149q165 209 319.5 325.5t265.5 116.5q89 0 150 -61t61 -150q0 -54 -30 -129.5t-64 -108.5q-5 -4 -5 -7l1 -3q1 -1 4 -1q7 0 22 4
q4 1 22 4l23 4l26 2l22 3q14 1 43 1h29q44 0 44 -30v-163q0 -29 -107 -29q-159 0 -418 22q-41 4 -55 4q-10 0 -71 -4l-91 -4l-133 -13q-16 -2 -61 -4l-3 -6l-27 -57l-21 -42q-19 -41 -39 -41q-28 0 -28 39q0 47 29 107q-136 0 -203 78l-36 43q-10 11 -18 11q-10 0 -43 -43
q-56 -73 -161 -86zM2197 917q-66 -75 -114 -162q-82 77 -164 118q52 62 115 160q67 -60 163 -116z" />
    <glyph glyph-name="uniFD24" unicode="&#xfec0;&#xfef2;" horiz-adv-x="2584" arabic-form="final" 
d="M1832 212q157 0 320 50q86 27 163.5 65t77.5 54q0 24 -62.5 52t-116.5 28q-95 0 -200.5 -69t-181.5 -180zM508 -949q-77 66 -147 109q47 59 103 148q45 -51 101 -85q41 53 72 106q76 -70 139 -108q-46 -60 -91 -153q-59 56 -110 86q-33 -41 -67 -103zM1162 3
q-6 -3 -25 -3q-6 -1 -48 -1q-80 0 -139.5 -15.5t-59.5 -36.5q0 -19 60 -35l79 -21q9 -3 68 -17q89 -22 89 -62q0 -56 -46.5 -127.5t-113.5 -120.5q-107 -76 -265 -127.5t-287 -51.5q-200 0 -306.5 73.5t-106.5 211.5q0 182 127 361q25 35 38 35q3 0 8 -3l3 -2q5 -5 5 -12
q0 -1 -2 -6l-3 -8q-2 -7 -7 -16l-11 -20l-14 -27q-55 -103 -55 -174q0 -200 360 -200q145 0 277.5 23.5t186.5 59.5l46 30q7 4 9 8l1 3v5q-4 7 -149 40q-143 33 -149 59q13 113 105 240q112 155 248 155h7l58 1q167 0 234 112q13 22 24 22q12 0 18 -21l13 -43
q22 -71 127 -71h149q165 209 319.5 325.5t265.5 116.5q89 0 150 -61t61 -150q0 -54 -30 -129.5t-64 -108.5q-5 -4 -5 -7l1 -3q1 -1 4 -1q7 0 22 4q4 1 22 4l23 4l26 2l22 3q14 1 43 1h29q44 0 44 -30v-163q0 -29 -107 -29q-159 0 -418 22q-41 4 -55 4q-10 0 -71 -4l-91 -4
l-133 -13q-16 -2 -61 -4l-3 -6l-27 -57l-21 -42q-19 -41 -39 -41q-28 0 -28 39q0 47 29 107q-136 0 -203 78l-36 43q-10 11 -18 11q-10 0 -43 -43q-56 -73 -161 -86zM2197 917q-66 -75 -114 -162q-82 77 -164 118q52 62 115 160q67 -60 163 -116z" />
    <glyph glyph-name="uniFD29" unicode="&#xfeb8;&#xfeae;" horiz-adv-x="1901" arabic-form="final" 
d="M1515 785l-38 30q-51 41 -103 71q48 67 91 165q71 -72 140 -114q-52 -79 -90 -152zM1470 540q-77 66 -147 110q47 58 103 147q45 -51 101 -85q41 53 72 106q76 -70 139 -108q-46 -60 -91 -152q-59 55 -110 86q-33 -42 -67 -104zM710 0q-32 0 -42 -39q-63 -249 -146 -350
q-125 -151 -275 -151q-52 0 -145 44t-102 72v3q0 11 14 11h2q2 0 14 -2q16 -2 38 -2q76 0 179 47t178 116q118 110 159 263q-25 56 -119 134l101 177q30 -58 78 -80q41 -19 117 -22l31 1q83 0 141.5 27.5t101.5 86.5q14 19 24 19q12 0 16 -21q14 -63 45.5 -88t98.5 -25
q75 0 121 23t90 82q22 29 36 29q13 0 19 -21q22 -77 41.5 -101t61.5 -24q79 0 112 110q12 36 30 36q12 0 19 -18l11 -28q32 -88 155 -88q44 0 44 -30v-163q0 -29 -71 -29q-85 0 -135 86q-15 26 -25 26q-11 0 -37 -38q-50 -74 -117 -74t-103 70l-19 37q-13 26 -27 26
q-13 0 -38 -38q-63 -95 -166 -95q-98 0 -171 99q-25 33 -35 33q-12 0 -45 -43q-67 -87 -200 -88h-60z" />
    <glyph glyph-name="uniFD2A" unicode="&#xfeb4;&#xfeae;" horiz-adv-x="1901" arabic-form="final" 
d="M710 0q-32 0 -42 -39q-63 -249 -146 -350q-125 -151 -275 -151q-52 0 -145 44t-102 72v3q0 11 14 11h2q2 0 14 -2q16 -2 38 -2q76 0 179 47t178 116q118 110 159 263q-25 56 -119 134l101 177q30 -58 78 -80q41 -19 117 -22l31 1q83 0 141.5 27.5t101.5 86.5q14 19 24 19
q12 0 16 -21q14 -63 45.5 -88t98.5 -25q75 0 121 23t90 82q22 29 36 29q13 0 19 -21q22 -77 41.5 -101t61.5 -24q79 0 112 110q12 36 30 36q12 0 19 -18l11 -28q32 -88 155 -88q44 0 44 -30v-163q0 -29 -71 -29q-85 0 -135 86q-15 26 -25 26q-11 0 -37 -38q-50 -74 -117 -74
t-103 70l-19 37q-13 26 -27 26q-13 0 -38 -38q-63 -95 -166 -95q-98 0 -171 99q-25 33 -35 33q-12 0 -45 -43q-67 -87 -200 -88h-60z" />
    <glyph glyph-name="uniFD2B" unicode="&#xfebc;&#xfeae;" horiz-adv-x="2236" arabic-form="final" 
d="M1482 212q157 0 320 50q86 27 163.5 65t77.5 54q0 24 -62.5 52t-116.5 28q-95 0 -200.5 -69t-181.5 -180zM710 0q-32 0 -42 -39q-63 -249 -146 -350q-125 -151 -275 -151q-52 0 -145 44t-102 72v3q0 11 14 11h2q2 0 14 -2q16 -2 38 -2q76 0 179 47t178 116
q118 110 159 263q-25 56 -119 134l101 177q30 -58 78 -80q41 -19 118 -22l38 1q167 0 234 112q13 22 24 22q12 0 18 -21l13 -43q22 -71 127 -71h149q165 209 319.5 325.5t265.5 116.5q89 0 150 -61t61 -150q0 -54 -30 -129.5t-64 -108.5q-5 -4 -5 -7l1 -3q1 -1 4 -1
q7 0 22 4q4 1 22 4l23 4l26 2l22 3q14 1 43 1h29q44 0 44 -30v-163q0 -29 -107 -29q-159 0 -418 22q-41 4 -55 4q-10 0 -71 -4l-91 -4l-133 -13q-16 -2 -61 -4l-3 -6l-27 -57l-21 -42q-19 -41 -39 -41q-28 0 -28 39q0 47 29 107q-136 0 -203 78l-36 43q-10 11 -18 11
q-10 0 -43 -43q-66 -86 -200 -89h-63z" />
    <glyph glyph-name="uniFD2C" unicode="&#xfec0;&#xfeae;" horiz-adv-x="2236" arabic-form="final" 
d="M1482 212q157 0 320 50q86 27 163.5 65t77.5 54q0 24 -62.5 52t-116.5 28q-95 0 -200.5 -69t-181.5 -180zM1847 917q-66 -75 -114 -162q-82 77 -164 118q52 62 115 160q67 -60 163 -116zM710 0q-32 0 -42 -39q-63 -249 -146 -350q-125 -151 -275 -151q-52 0 -145 44
t-102 72v3q0 11 14 11h2q2 0 14 -2q16 -2 38 -2q76 0 179 47t178 116q118 110 159 263q-25 56 -119 134l101 177q30 -58 78 -80q41 -19 118 -22l38 1q167 0 234 112q13 22 24 22q12 0 18 -21l13 -43q22 -71 127 -71h149q165 209 319.5 325.5t265.5 116.5q89 0 150 -61
t61 -150q0 -54 -30 -129.5t-64 -108.5q-5 -4 -5 -7l1 -3q1 -1 4 -1q7 0 22 4q4 1 22 4l23 4l26 2l22 3q14 1 43 1h29q44 0 44 -30v-163q0 -29 -107 -29q-159 0 -418 22q-41 4 -55 4q-10 0 -71 -4l-91 -4l-133 -13q-16 -2 -61 -4l-3 -6l-27 -57l-21 -42q-19 -41 -39 -41
q-28 0 -28 39q0 47 29 107q-136 0 -203 78l-36 43q-10 11 -18 11q-10 0 -43 -43q-66 -86 -200 -89h-63z" />
    <glyph glyph-name="uniFEF5" unicode="&#xfedf;&#xfe82;" horiz-adv-x="1163" arabic-form="isolated" 
d="M622 1509q-8 -97 -60 -146q-50 -46 -140.5 -80.5t-161.5 -34.5q-50 0 -100 13q-20 5 -29 5q-33 0 -73 -37l-6 -6q-14 -14 -21 -14q-11 0 -11 21q0 60 46 120t92 60q14 0 37 -6l27 -8q49 -13 92 -13q190 0 308 126zM808 1158q19 21 24 27l28 32q21 25 30 36l24 32
q2 3 13 16q43 -92 107 -151q-49 -33 -64.5 -62.5t-15.5 -91.5v-80q0 -148 -25 -302t-64 -247q56 -132 56 -216q0 -116 -69 -168.5t-219 -52.5q-65 0 -124 5l-57 5q-10 1 -43 3v198q89 0 144.5 39.5t151.5 168.5q-143 235 -343 430q-15 14 -19 20q-6 7 -11 9l-4 1
q-12 -5 -28 -35q-8 -16 -15 -16q-13 0 -74 65l-39 41q-82 86 -82 126q0 62 27.5 124t55.5 62q73 0 275 -234.5t340 -478.5q44 118 44 417q0 166 -24 278zM682 143h12q83 0 119 18q-18 52 -41 83q-46 -64 -90 -101z" />
    <glyph glyph-name="uniFEF6" unicode="&#xfee0;&#xfe82;" horiz-adv-x="1241" arabic-form="final" 
d="M836 1067l107 198q7 -55 9 -73l13 -99l24 -187q55 -417 105 -556q26 -72 61.5 -100.5t101.5 -28.5h11q32 0 32 -30v-163q0 -29 -79 -29q-115 0 -170 52t-78 184q-9 55 -13 73l-27 151l-20 107q-3 16 -10 49h-3l-5 -28q-70 -432 -230 -573q-66 -58 -185 -97t-232 -39h-21
h-28q-27 0 -27 17q0 13 44 36q181 92 328 206t147 162q0 71 -116 199q-61 67 -135.5 124.5t-101.5 57.5q-10 0 -18 -15q-12 -24 -23 -24q-6 0 -18 7q-5 3 -48 26q-98 50 -129 88t-31 106q0 174 47 174q32 0 136.5 -61t192.5 -130q217 -171 316 -393q29 65 50.5 235.5
t21.5 335.5zM581 1386q-8 -98 -60 -146q-51 -46 -141 -80.5t-161 -34.5q-50 0 -100 13q-20 5 -29 5q-33 0 -73 -37l-6 -6q-14 -14 -21 -14q-10 0 -10 22q0 59 46 119t91 60q14 0 37 -6l27 -7q49 -14 92 -14q190 0 308 126z" />
    <glyph glyph-name="uniFEF7" unicode="&#xfedf;&#xfe84;" horiz-adv-x="1143" arabic-form="isolated" 
d="M181 1449q-24 38 -58 38q-26 0 -52 -14.5t-26 -29.5q0 -19 34.5 -40.5t65.5 -21.5q76 0 211 59l-3 -13q-26 -105 -100 -128q-197 -61 -226 -151q-33 24 -33 45q0 33 38 95q-73 38 -73 91q0 67 72 140.5t138 73.5q29 0 50 -19t21 -46q0 -44 -59 -79zM788 1158q18 21 24 27
l28 32q21 25 30 36l23 32q3 3 13 16q43 -92 108 -151q-49 -33 -64.5 -62.5t-15.5 -91.5v-80q0 -148 -25 -302t-64 -247q56 -132 56 -216q0 -116 -69 -168.5t-219 -52.5q-65 0 -124 5l-57 5q-10 1 -43 3v198q88 0 144 39.5t152 168.5q-144 235 -343 430q-15 14 -19 20
q-7 7 -11 9l-4 1q-12 -5 -28 -35q-8 -16 -15 -16q-13 0 -74 65l-39 41q-82 86 -82 126q0 62 27.5 124t55.5 62q72 0 274.5 -234.5t340.5 -478.5q44 118 44 417q0 166 -24 278zM662 143h12q83 0 119 18q-19 52 -41 83q-46 -64 -90 -101z" />
    <glyph glyph-name="uniFEF8" unicode="&#xfee0;&#xfe84;" horiz-adv-x="1221" arabic-form="final" 
d="M143 1324q-23 38 -57 38q-26 0 -52 -14.5t-26 -29.5q0 -19 34.5 -40.5t65.5 -21.5q76 0 211 59l-4 -13q-25 -105 -99 -128q-197 -61 -227 -151q-32 24 -32 45q0 33 38 95q-73 38 -73 91q0 67 72 140.5t137 73.5q30 0 51 -18.5t21 -46.5q0 -44 -60 -79zM815 1067l108 198
q6 -55 9 -73l12 -99l25 -187q55 -417 105 -556q25 -72 61 -100.5t101 -28.5h12q32 0 32 -30v-163q0 -29 -79 -29q-116 0 -171 52t-77 184q-10 55 -13 73l-28 151l-19 107q-4 16 -10 49h-4l-4 -28q-71 -432 -230 -573q-67 -58 -186 -97t-232 -39h-21h-27q-27 0 -27 17
q0 13 44 36q181 92 327.5 206t146.5 162q0 71 -115 199q-61 67 -136 124.5t-101 57.5q-11 0 -18 -15q-13 -24 -23 -24q-7 0 -18 7q-5 3 -48 26q-98 50 -129 88t-31 106q0 174 46 174q32 0 137 -61t192 -130q217 -171 317 -393q28 65 49.5 235.5t21.5 335.5z" />
    <glyph glyph-name="uniFEF9" unicode="&#xfedf;&#xfe88;" horiz-adv-x="1143" arabic-form="isolated" 
d="M385 -269q-23 39 -57 39q-26 0 -52 -15t-26 -30q0 -19 34.5 -40t65.5 -21q76 0 211 59l-4 -14q-25 -105 -99 -128q-197 -60 -227 -150q-32 23 -32 44q0 33 38 95q-73 39 -73 92q0 67 72 140.5t137 73.5q30 0 51 -19t21 -47q0 -44 -60 -79zM388 -57v198q90 0 145.5 39
t151.5 169q-166 278 -329 450l-54 58q-33 34 -37 34q-10 0 -26 -30q-10 -19 -19 -19q-16 0 -117 112q-76 84 -76 116q0 63 28.5 126t56.5 63q62 0 235 -196q189 -215 354 -490l36 -59q6 -11 32 -51q44 118 44 417q0 166 -24 278q18 21 23 27l28 32q21 25 30 36l24 32
q3 3 13 16q43 -92 108 -151q-50 -33 -65.5 -62.5t-15.5 -91.5l1 -80q0 -320 -90 -556q56 -133 56 -213q0 -217 -288 -217q-64 0 -123 5l-58 5q-9 1 -44 3zM662 143h13q89 0 118 20q-13 42 -42 80q-12 -15 -17 -23q-32 -43 -72 -77z" />
    <glyph glyph-name="uniFEFA" unicode="&#xfee0;&#xfe88;" horiz-adv-x="1221" arabic-form="final" 
d="M382 -325q-24 39 -57 39q-26 0 -52 -15t-26 -30q0 -19 34 -40t65 -21q77 0 211 59l-3 -14q-25 -105 -100 -128q-197 -60 -226 -150q-32 23 -32 44q0 33 38 95q-73 39 -73 92q0 67 72 140.5t137 73.5q30 0 50.5 -19t20.5 -47q0 -44 -59 -79zM883 615h-4l-4 -28
q-71 -432 -230 -573q-67 -58 -186 -97t-232 -39h-21h-27q-27 0 -27 17q0 13 44 36q184 93 329 207t145 164q0 36 -42.5 102t-107.5 132q-67 67 -135 118t-90 51q-13 0 -19 -15q-10 -23 -20 -23q-22 0 -148 78q-50 31 -65.5 61t-15.5 92q0 170 47 170q10 0 32 -10l47 -21
q169 -78 333 -234t241 -314l16 -31q28 65 49.5 235.5t21.5 335.5l1 38l108 198q6 -55 9 -73l12 -99l25 -187q55 -417 105 -556q25 -72 61 -100.5t101 -28.5h12q32 0 32 -30v-163q0 -29 -79 -29q-116 0 -171 52t-77 184q-10 55 -13 73l-28 151l-19 107q-4 16 -10 49z" />
    <glyph glyph-name="uniFEFB" unicode="&#xfedf;&#xfe8e;" horiz-adv-x="1141" arabic-form="isolated" 
d="M388 -57v198q83 0 134.5 33t133.5 138l29 37q-166 278 -329 450l-55 58q-32 34 -37 34q-10 0 -25 -30q-11 -19 -19 -19q-17 0 -117 112q-76 84 -76 120q0 58 29 121.5t55 63.5q67 0 260.5 -225t329.5 -461l34 -59q6 -10 32 -49q45 129 45 340q0 241 -24 354q15 17 22 25
l28 31q35 39 66 88q34 -95 108 -153q-52 -34 -66 -74t-14 -154q0 -307 -88 -558q53 -128 53 -207q0 -121 -66.5 -174t-219.5 -53q-63 0 -122 5l-57 5q-10 1 -44 3zM662 143h12q78 0 119 17q-16 49 -43 83q-44 -63 -88 -100z" />
    <glyph glyph-name="uniFEFC" unicode="&#xfee0;&#xfe8e;" horiz-adv-x="1221" arabic-form="final" 
d="M883 615h-3l-5 -28q-70 -432 -230 -573q-66 -58 -185.5 -97t-232.5 -39h-21h-27q-27 0 -27 17q0 13 44 36q184 93 329.5 207t145.5 164q0 36 -43 102t-108 132q-67 67 -135 118t-90 51q-13 0 -19 -15q-10 -23 -20 -23q-22 0 -148 78q-50 31 -65.5 61t-15.5 92
q0 170 48 170q10 0 31 -10l47 -21q169 -78 333 -234t241 -314l16 -31q29 65 50.5 235.5t21.5 335.5v38l108 198q6 -55 9 -73l12 -99l25 -187q55 -417 105 -556q25 -72 61 -100.5t102 -28.5h11q32 0 32 -30v-163q0 -29 -79 -29q-116 0 -170.5 52t-77.5 184q-10 55 -13 73
l-28 151l-19 107q-3 16 -10 49z" />
    <glyph glyph-name="uniFE8B_uniFEE4.liga" unicode="&#xfe8b;&#xfee4;" horiz-adv-x="1397" 
d="M509 180q25 0 25 37q0 59 -29.5 112t-61.5 53q-21 0 -57.5 -35.5t-36.5 -55.5q0 -19 66.5 -65t93.5 -46zM925 1q-14 -2 -32 -2q-101 0 -180 59q-39 28 -50 28q-15 0 -24 -60q-13 -84 -68 -84q-43 0 -184 105l-77 57q-53 40 -74 40q-12 0 -27 -18l-28 -33
q-47 -55 -83.5 -74t-93.5 -19q-63 0 -63 31v158q0 32 55 32h33q91 0 139.5 22.5t87.5 82.5q117 178 181 178q41 0 102 -64q127 -136 185 -177.5t120 -41.5h240q87 0 121 30q-14 40 -55 84l-37 40l-10 10q30 77 96 167l8 11q97 -140 97 -290q0 -62 -30 -129t-76 -110
q-33 -22 -119 -28q-19 -2 -51 -5q-60 -5 -88 -1q-8 0 -15 1zM1193 913q-23 38 -57 38q-26 0 -52 -14.5t-26 -29.5q0 -19 34.5 -40.5t65.5 -21.5q76 0 211 59l-4 -14q-25 -104 -99 -127q-198 -61 -227 -151q-32 24 -32 45q0 33 38 95q-73 38 -73 91q0 67 72 140.5t137 73.5
q30 0 51 -19t21 -46q0 -44 -60 -79z" />
    <glyph glyph-name="uniFE8B_uniFEF0.liga" unicode="&#xfe8b;&#xfef0;" horiz-adv-x="1598" 
d="M1393 913q-23 38 -57 38q-26 0 -52 -14.5t-26 -29.5q0 -19 34.5 -40.5t65.5 -21.5q76 0 211 59l-4 -14q-25 -104 -99 -127q-198 -61 -227 -151q-32 24 -32 45q0 33 38 95q-73 38 -73 91q0 67 72 140.5t137 73.5q30 0 51 -19t21 -46q0 -44 -60 -79zM1137 0q-6 -1 -48 -1
q-80 0 -139.5 -15.5t-59.5 -36.5q0 -19 60 -35l79 -21q9 -3 68 -17q89 -22 89 -62q0 -56 -46.5 -127.5t-113.5 -120.5q-107 -76 -265 -127.5t-287 -51.5q-200 0 -306.5 73.5t-106.5 211.5q0 182 127 361q25 35 38 35q3 0 8 -3l3 -2q5 -5 5 -12q0 -1 -2 -6l-3 -8
q-2 -7 -7 -16l-11 -20l-14 -27q-55 -103 -55 -174q0 -200 360 -200q145 0 277.5 23.5t186.5 59.5l46 30q7 4 9 8l1 3v5q-4 7 -149 40q-143 33 -149 59q13 113 105 240q112 155 248 155h199q87 0 121 30q-14 40 -55 84l-37 40l-10 10q30 77 96 167l8 11q97 -140 97 -290
q0 -62 -30 -129t-76 -110q-33 -22 -119 -28q-19 -2 -51 -5q-60 -5 -88 -1h-3z" />
    <glyph glyph-name="uniFE8B_uniFEF2.liga" unicode="&#xfe8b;&#xfef2;" horiz-adv-x="1598" 
d="M1393 913q-23 38 -57 38q-26 0 -52 -14.5t-26 -29.5q0 -19 34.5 -40.5t65.5 -21.5q76 0 211 59l-4 -14q-25 -104 -99 -127q-198 -61 -227 -151q-32 24 -32 45q0 33 38 95q-73 38 -73 91q0 67 72 140.5t137 73.5q30 0 51 -19t21 -46q0 -44 -60 -79zM508 -949
q-77 66 -147 109q47 59 103 148q45 -51 101 -85q41 53 72 106q76 -70 139 -108q-46 -60 -91 -153q-59 56 -110 86q-33 -41 -67 -103zM1137 0q-6 -1 -48 -1q-80 0 -139.5 -15.5t-59.5 -36.5q0 -19 60 -35l79 -21q9 -3 68 -17q89 -22 89 -62q0 -56 -46.5 -127.5t-113.5 -120.5
q-107 -76 -265 -127.5t-287 -51.5q-200 0 -306.5 73.5t-106.5 211.5q0 182 127 361q25 35 38 35q3 0 8 -3l3 -2q5 -5 5 -12q0 -1 -2 -6l-3 -8q-2 -7 -7 -16l-11 -20l-14 -27q-55 -103 -55 -174q0 -200 360 -200q145 0 277.5 23.5t186.5 59.5l46 30q7 4 9 8l1 3v5
q-4 7 -149 40q-143 33 -149 59q13 113 105 240q112 155 248 155h199q87 0 121 30q-14 40 -55 84l-37 40l-10 10q30 77 96 167l8 11q97 -140 97 -290q0 -62 -30 -129t-76 -110q-33 -22 -119 -28q-19 -2 -51 -5q-60 -5 -88 -1h-3z" />
    <glyph glyph-name="uniFE91_uniFEE4.liga" unicode="&#xfe91;&#xfee4;" horiz-adv-x="1401" 
d="M1316 -326q-67 -75 -114 -162q-83 77 -165 118q53 62 116 160q66 -60 163 -116zM509 180q25 0 25 37q0 59 -29.5 112t-61.5 53q-21 0 -57.5 -35.5t-36.5 -55.5q0 -19 66.5 -65t93.5 -46zM924 1q-14 -2 -31 -2q-101 0 -180 59q-39 28 -50 28q-15 0 -24 -60
q-13 -84 -68 -84q-43 0 -184 105l-77 57q-53 40 -74 40q-12 0 -27 -18l-28 -33q-47 -55 -83.5 -74t-93.5 -19q-63 0 -63 31v158q0 32 55 32h33q91 0 139.5 22.5t87.5 82.5q117 178 181 178q41 0 102 -64q127 -136 185 -177.5t120 -41.5h239q88 0 122 30q-15 40 -56 84
l-37 40q-2 2 -9 10q29 77 96 167l8 11q96 -140 96 -290q0 -62 -29.5 -129t-76.5 -110q-32 -22 -118 -28q-19 -2 -52 -5q-60 -5 -89 -1q-8 0 -14 1z" />
    <glyph glyph-name="uniFE92_uniFEE6.liga" unicode="&#xfe92;&#xfee6;" horiz-adv-x="1549" 
d="M646 559q-67 -75 -114 -162q-83 77 -165 118q53 62 116 160q66 -60 163 -116zM1472 -327q-66 -75 -113 -162q-83 76 -165 118q52 62 116 159q66 -59 162 -115zM1088 0q-51 1 -112 12q0 -273 -154 -435t-413 -162q-156 0 -252 88t-96 231q0 91 49 210.5t87 119.5
q16 0 16 -19q0 -8 -12 -34q-53 -117 -53 -188q0 -86 81.5 -135.5t222.5 -49.5q219 0 357 102q84 63 84 194q0 50 -16 128q-72 58 -103 135q36 78 109 159q48 -89 92 -112t161 -23h39q91 0 172 107q21 28 31 28q12 0 17 -21l13 -49q10 -38 25.5 -51.5t50.5 -13.5h77
q43 0 43 -30v-163q0 -11 -21 -19.5t-47 -8.5q-129 0 -172 95q-13 30 -24 30t-29 -24q-42 -58 -86.5 -80t-119.5 -22q-8 0 -16 1h-1z" />
    <glyph glyph-name="uniFE91_uniFEF0.liga" unicode="&#xfe91;&#xfef0;" horiz-adv-x="1625" 
d="M1152 1q-6 -1 -15 -1q-6 -1 -48 -1q-80 0 -139.5 -15.5t-59.5 -36.5q0 -19 60 -35l79 -21q9 -3 68 -17q89 -22 89 -62q0 -56 -46.5 -127.5t-113.5 -120.5q-107 -76 -265 -127.5t-287 -51.5q-200 0 -306.5 73.5t-106.5 211.5q0 182 127 361q25 35 38 35q3 0 8 -3l3 -2
q5 -5 5 -12q0 -1 -2 -6l-3 -8q-2 -7 -7 -16l-11 -20l-14 -27q-55 -103 -55 -174q0 -200 360 -200q145 0 277.5 23.5t186.5 59.5l46 30q7 4 9 8l1 3v5q-4 7 -149 40q-143 33 -149 59q13 113 105 240q112 155 248 155h228q88 0 122 30q-15 40 -56 84l-37 40q-2 2 -9 10
q29 77 96 167l8 11q96 -140 96 -290q0 -62 -29.5 -129t-76.5 -110q-32 -22 -118 -28q-19 -2 -52 -5q-60 -5 -89 -1q-9 0 -16 1zM1546 -326q-67 -75 -114 -162q-83 77 -165 118q53 62 116 160q66 -60 163 -116z" />
    <glyph glyph-name="uniFE91_uniFEF2.liga" unicode="&#xfe91;&#xfef2;" horiz-adv-x="1625" 
d="M508 -949q-77 66 -147 109q47 59 103 148q45 -51 101 -85q41 53 72 106q76 -70 139 -108q-46 -60 -91 -153q-59 56 -110 86q-33 -41 -67 -103zM1152 1q-6 -1 -15 -1q-6 -1 -48 -1q-80 0 -139.5 -15.5t-59.5 -36.5q0 -19 60 -35l79 -21q9 -3 68 -17q89 -22 89 -62
q0 -56 -46.5 -127.5t-113.5 -120.5q-107 -76 -265 -127.5t-287 -51.5q-200 0 -306.5 73.5t-106.5 211.5q0 182 127 361q25 35 38 35q3 0 8 -3l3 -2q5 -5 5 -12q0 -1 -2 -6l-3 -8q-2 -7 -7 -16l-11 -20l-14 -27q-55 -103 -55 -174q0 -200 360 -200q145 0 277.5 23.5
t186.5 59.5l46 30q7 4 9 8l1 3v5q-4 7 -149 40q-143 33 -149 59q13 113 105 240q112 155 248 155h228q88 0 122 30q-15 40 -56 84l-37 40q-2 2 -9 10q29 77 96 167l8 11q96 -140 96 -290q0 -62 -29.5 -129t-76.5 -110q-32 -22 -118 -28q-19 -2 -52 -5q-60 -5 -89 -1
q-9 0 -16 1zM1546 -326q-67 -75 -114 -162q-83 77 -165 118q53 62 116 160q66 -60 163 -116z" />
    <glyph glyph-name="uniFE97_uniFEE4.liga" unicode="&#xfe97;&#xfee4;" horiz-adv-x="1410" 
d="M1126 708q-77 67 -147 110q48 59 103 147q45 -51 101 -85q42 53 73 107q75 -71 139 -109q-47 -60 -91 -152q-60 55 -110 86q-34 -42 -68 -104zM509 180q25 0 25 37q0 59 -29.5 112t-61.5 53q-21 0 -57.5 -35.5t-36.5 -55.5q0 -19 66.5 -65t93.5 -46zM924 1q-14 -2 -31 -2
q-101 0 -180 59q-39 28 -50 28q-15 0 -24 -60q-13 -84 -68 -84q-43 0 -184 105l-77 57q-53 40 -74 40q-12 0 -27 -18l-28 -33q-47 -55 -83.5 -74t-93.5 -19q-63 0 -63 31v158q0 32 55 32h33q91 0 139.5 22.5t87.5 82.5q117 178 181 178q41 0 102 -64q127 -136 185 -177.5
t120 -41.5h239q88 0 122 30q-15 40 -56 84l-37 40q-2 2 -9 10q29 77 96 167l8 11q96 -140 96 -290q0 -62 -29.5 -129t-76.5 -110q-32 -22 -118 -28q-19 -2 -52 -5q-60 -5 -89 -1q-8 0 -14 1z" />
    <glyph glyph-name="uniFE98_uniFEE6.liga" unicode="&#xfe98;&#xfee6;" horiz-adv-x="1540" 
d="M1259 538q-77 66 -147 110q47 58 102 147q46 -51 101 -85q42 53 73 106q75 -70 139 -108q-46 -60 -91 -152q-59 55 -110 86q-34 -42 -67 -104zM646 559q-67 -75 -114 -162q-83 77 -165 118q53 62 116 160q66 -60 163 -116zM1074 0q-45 2 -98 12q0 -273 -154 -435
t-413 -162q-156 0 -252 88t-96 231q0 91 49 210.5t87 119.5q16 0 16 -19q0 -8 -12 -34q-53 -117 -53 -188q0 -86 81.5 -135.5t222.5 -49.5q219 0 357 102q84 63 84 194q0 50 -16 128q-72 58 -103 135q36 78 109 159q48 -89 92 -112t161 -23h30q91 0 172 107q21 28 31 28
q12 0 17 -21l13 -49q10 -38 25.5 -51.5t49.5 -13.5h77q44 0 44 -30v-163q0 -11 -21 -19.5t-47 -8.5q-129 0 -173 95q-13 30 -23 30q-12 0 -29 -24q-43 -58 -87 -80t-120 -22q-8 0 -15 1h-6z" />
    <glyph glyph-name="uniFE97_uniFEF0.liga" unicode="&#xfe97;&#xfef0;" horiz-adv-x="1633" 
d="M1356 708q-77 67 -147 110q48 59 103 147q45 -51 101 -85q42 53 73 107q75 -71 139 -109q-47 -60 -91 -152q-60 55 -110 86q-34 -42 -68 -104zM1152 1q-6 -1 -15 -1q-6 -1 -48 -1q-80 0 -139.5 -15.5t-59.5 -36.5q0 -19 60 -35l79 -21q9 -3 68 -17q89 -22 89 -62
q0 -56 -46.5 -127.5t-113.5 -120.5q-107 -76 -265 -127.5t-287 -51.5q-200 0 -306.5 73.5t-106.5 211.5q0 182 127 361q25 35 38 35q3 0 8 -3l3 -2q5 -5 5 -12q0 -1 -2 -6l-3 -8q-2 -7 -7 -16l-11 -20l-14 -27q-55 -103 -55 -174q0 -200 360 -200q145 0 277.5 23.5
t186.5 59.5l46 30q7 4 9 8l1 3v5q-4 7 -149 40q-143 33 -149 59q13 113 105 240q112 155 248 155h228q88 0 122 30q-15 40 -56 84l-37 40q-2 2 -9 10q29 77 96 167l8 11q96 -140 96 -290q0 -62 -29.5 -129t-76.5 -110q-32 -22 -118 -28q-19 -2 -52 -5q-60 -5 -89 -1
q-9 0 -16 1z" />
    <glyph glyph-name="uniFE97_uniFEF2.liga" unicode="&#xfe97;&#xfef2;" horiz-adv-x="1633" 
d="M508 -949q-77 66 -147 109q47 59 103 148q45 -51 101 -85q41 53 72 106q76 -70 139 -108q-46 -60 -91 -153q-59 56 -110 86q-33 -41 -67 -103zM1356 708q-77 67 -147 110q48 59 103 147q45 -51 101 -85q42 53 73 107q75 -71 139 -109q-47 -60 -91 -152q-60 55 -110 86
q-34 -42 -68 -104zM1152 1q-6 -1 -15 -1q-6 -1 -48 -1q-80 0 -139.5 -15.5t-59.5 -36.5q0 -19 60 -35l79 -21q9 -3 68 -17q89 -22 89 -62q0 -56 -46.5 -127.5t-113.5 -120.5q-107 -76 -265 -127.5t-287 -51.5q-200 0 -306.5 73.5t-106.5 211.5q0 182 127 361q25 35 38 35
q3 0 8 -3l3 -2q5 -5 5 -12q0 -1 -2 -6l-3 -8q-2 -7 -7 -16l-11 -20l-14 -27q-55 -103 -55 -174q0 -200 360 -200q145 0 277.5 23.5t186.5 59.5l46 30q7 4 9 8l1 3v5q-4 7 -149 40q-143 33 -149 59q13 113 105 240q112 155 248 155h228q88 0 122 30q-15 40 -56 84l-37 40
q-2 2 -9 10q29 77 96 167l8 11q96 -140 96 -290q0 -62 -29.5 -129t-76.5 -110q-32 -22 -118 -28q-19 -2 -52 -5q-60 -5 -89 -1q-9 0 -16 1z" />
    <glyph glyph-name="uniFE9C_uniFEAE.liga" unicode="&#xfe9c;&#xfeae;" horiz-adv-x="1187" 
d="M909 538q-77 66 -147 110q47 58 102 147q46 -51 101 -85q42 53 73 106q75 -70 139 -108q-46 -60 -91 -152q-59 55 -110 86q-34 -42 -67 -104zM953 783l-37 30q-52 41 -103 71q48 67 91 165q71 -72 140 -114q-52 -79 -91 -152zM730 0h-20q-32 0 -42 -39
q-63 -249 -146 -350q-125 -151 -275 -151q-52 0 -145 44t-102 72v3q0 11 14 11h2q2 0 14 -2q16 -2 38 -2q76 0 179 47t178 116q118 110 159 263q-25 56 -119 134l101 177q30 -58 77.5 -80t140.5 -22h32q91 0 172 107q21 28 31 28q12 0 17 -21l13 -49q10 -38 25.5 -51.5
t49.5 -13.5h77q44 0 44 -30v-163q0 -11 -21 -19.5t-47 -8.5q-129 0 -173 95q-13 30 -23 30q-12 0 -29 -24q-43 -58 -87 -80t-120 -22q-8 0 -15 1z" />
    <glyph glyph-name="uniFE9B_uniFEE4.liga" unicode="&#xfe9b;&#xfee4;" horiz-adv-x="1410" 
d="M1126 708q-77 67 -147 110q48 59 103 147q45 -51 101 -85q42 53 73 107q75 -71 139 -109q-47 -60 -91 -152q-60 55 -110 86q-34 -42 -68 -104zM1171 954l-37 29q-52 41 -103 71q47 67 91 165q73 -73 140 -113q-53 -81 -91 -152zM509 180q25 0 25 37q0 59 -29.5 112
t-61.5 53q-21 0 -57.5 -35.5t-36.5 -55.5q0 -19 66.5 -65t93.5 -46zM924 1q-14 -2 -31 -2q-101 0 -180 59q-39 28 -50 28q-15 0 -24 -60q-13 -84 -68 -84q-43 0 -184 105l-77 57q-53 40 -74 40q-12 0 -27 -18l-28 -33q-47 -55 -83.5 -74t-93.5 -19q-63 0 -63 31v158
q0 32 55 32h33q91 0 139.5 22.5t87.5 82.5q117 178 181 178q41 0 102 -64q127 -136 185 -177.5t120 -41.5h239q88 0 122 30q-15 40 -56 84l-37 40q-2 2 -9 10q29 77 96 167l8 11q96 -140 96 -290q0 -62 -29.5 -129t-76.5 -110q-32 -22 -118 -28q-19 -2 -52 -5q-60 -5 -89 -1
q-8 0 -14 1z" />
    <glyph glyph-name="uniFE9C_uniFEE6.liga" unicode="&#xfe9c;&#xfee6;" horiz-adv-x="1540" 
d="M1259 538q-77 66 -147 110q47 58 102 147q46 -51 101 -85q42 53 73 106q75 -70 139 -108q-46 -60 -91 -152q-59 55 -110 86q-34 -42 -67 -104zM1303 783l-37 30q-52 41 -103 71q48 67 91 165q71 -72 140 -114q-52 -79 -91 -152zM646 559q-67 -75 -114 -162
q-83 77 -165 118q53 62 116 160q66 -60 163 -116zM1074 0q-45 2 -98 12q0 -273 -154 -435t-413 -162q-156 0 -252 88t-96 231q0 91 49 210.5t87 119.5q16 0 16 -19q0 -8 -12 -34q-53 -117 -53 -188q0 -86 81.5 -135.5t222.5 -49.5q219 0 357 102q84 63 84 194q0 50 -16 128
q-72 58 -103 135q36 78 109 159q48 -89 92 -112t161 -23h30q91 0 172 107q21 28 31 28q12 0 17 -21l13 -49q10 -38 25.5 -51.5t49.5 -13.5h77q44 0 44 -30v-163q0 -11 -21 -19.5t-47 -8.5q-129 0 -173 95q-13 30 -23 30q-12 0 -29 -24q-43 -58 -87 -80t-120 -22q-8 0 -15 1
h-6z" />
    <glyph glyph-name="uniFE9B_uniFEF0.liga" unicode="&#xfe9b;&#xfef0;" horiz-adv-x="1633" 
d="M1356 708q-77 67 -147 110q48 59 103 147q45 -51 101 -85q42 53 73 107q75 -71 139 -109q-47 -60 -91 -152q-60 55 -110 86q-34 -42 -68 -104zM1401 954l-37 29q-52 41 -103 71q47 67 91 165q73 -73 140 -113q-53 -81 -91 -152zM1152 1q-6 -1 -15 -1q-6 -1 -48 -1
q-80 0 -139.5 -15.5t-59.5 -36.5q0 -19 60 -35l79 -21q9 -3 68 -17q89 -22 89 -62q0 -56 -46.5 -127.5t-113.5 -120.5q-107 -76 -265 -127.5t-287 -51.5q-200 0 -306.5 73.5t-106.5 211.5q0 182 127 361q25 35 38 35q3 0 8 -3l3 -2q5 -5 5 -12q0 -1 -2 -6l-3 -8
q-2 -7 -7 -16l-11 -20l-14 -27q-55 -103 -55 -174q0 -200 360 -200q145 0 277.5 23.5t186.5 59.5l46 30q7 4 9 8l1 3v5q-4 7 -149 40q-143 33 -149 59q13 113 105 240q112 155 248 155h228q88 0 122 30q-15 40 -56 84l-37 40q-2 2 -9 10q29 77 96 167l8 11q96 -140 96 -290
q0 -62 -29.5 -129t-76.5 -110q-32 -22 -118 -28q-19 -2 -52 -5q-60 -5 -89 -1q-9 0 -16 1z" />
    <glyph glyph-name="uniFE9B_uniFEF2.liga" unicode="&#xfe9b;&#xfef2;" horiz-adv-x="1633" 
d="M508 -949q-77 66 -147 109q47 59 103 148q45 -51 101 -85q41 53 72 106q76 -70 139 -108q-46 -60 -91 -153q-59 56 -110 86q-33 -41 -67 -103zM1356 708q-77 67 -147 110q48 59 103 147q45 -51 101 -85q42 53 73 107q75 -71 139 -109q-47 -60 -91 -152q-60 55 -110 86
q-34 -42 -68 -104zM1401 954l-37 29q-52 41 -103 71q47 67 91 165q73 -73 140 -113q-53 -81 -91 -152zM1152 1q-6 -1 -15 -1q-6 -1 -48 -1q-80 0 -139.5 -15.5t-59.5 -36.5q0 -19 60 -35l79 -21q9 -3 68 -17q89 -22 89 -62q0 -56 -46.5 -127.5t-113.5 -120.5
q-107 -76 -265 -127.5t-287 -51.5q-200 0 -306.5 73.5t-106.5 211.5q0 182 127 361q25 35 38 35q3 0 8 -3l3 -2q5 -5 5 -12q0 -1 -2 -6l-3 -8q-2 -7 -7 -16l-11 -20l-14 -27q-55 -103 -55 -174q0 -200 360 -200q145 0 277.5 23.5t186.5 59.5l46 30q7 4 9 8l1 3v5
q-4 7 -149 40q-143 33 -149 59q13 113 105 240q112 155 248 155h228q88 0 122 30q-15 40 -56 84l-37 40q-2 2 -9 10q29 77 96 167l8 11q96 -140 96 -290q0 -62 -29.5 -129t-76.5 -110q-32 -22 -118 -28q-19 -2 -52 -5q-60 -5 -89 -1q-9 0 -16 1z" />
    <glyph glyph-name="uniFEDB_uniFEF0.liga" unicode="&#xfedb;&#xfef0;" horiz-adv-x="2013" 
d="M1137 0q-6 -1 -48 -1q-80 0 -139.5 -15.5t-59.5 -36.5q0 -19 60 -35l79 -21q9 -3 68 -17q89 -22 89 -62q0 -56 -46.5 -127.5t-113.5 -120.5q-107 -76 -265 -127.5t-287 -51.5q-200 0 -306.5 73.5t-106.5 211.5q0 182 127 361q25 35 38 35q3 0 8 -3l3 -2q5 -5 5 -12
q0 -1 -2 -6l-3 -8q-2 -7 -7 -16l-11 -20l-14 -27q-55 -103 -55 -174q0 -200 360 -200q145 0 277.5 23.5t186.5 59.5l46 30q7 4 9 8l1 3v5q-4 7 -149 40q-143 33 -149 59q13 113 105 240q112 155 248 155h338q87 0 146 20.5t59 50.5q0 38 -85.5 115.5t-176.5 121.5l-92 45
q-48 23 -65 59.5t-17 112.5q0 44 9.5 66t42.5 53q99 89 315 193.5t420 162.5l-100 -215q-171 -55 -338.5 -125.5t-231.5 -113.5q21 -12 31 -18l81 -47q136 -79 209 -183.5t73 -221.5q0 -297 -360 -297h-206z" />
    <glyph glyph-name="uniFEDC_uniFEF0.liga" unicode="&#xfedc;&#xfef0;" horiz-adv-x="2124" 
d="M1137 0q-6 -1 -48 -1q-80 0 -139.5 -15.5t-59.5 -36.5q0 -19 60 -35l79 -21q9 -3 68 -17q89 -22 89 -62q0 -56 -46.5 -127.5t-113.5 -120.5q-107 -76 -265 -127.5t-287 -51.5q-200 0 -306.5 73.5t-106.5 211.5q0 182 127 361q25 35 38 35q3 0 8 -3l3 -2q5 -5 5 -12
q0 -1 -2 -6l-3 -8q-2 -7 -7 -16l-11 -20l-14 -27q-55 -103 -55 -174q0 -200 360 -200q145 0 277.5 23.5t186.5 59.5l46 30q7 4 9 8l1 3v5q-4 7 -149 40q-143 33 -149 59q13 113 105 240q110 152 242 155h157q148 0 245 37.5t97 94.5q0 30 -37 58.5t-147 82.5l-64 31
q-56 28 -93 92.5t-37 135.5q0 99 222 244t580 280l84 31l21 8l-120 -234q-233 -79 -436 -174q-255 -121 -255 -157q0 -16 115 -63q113 -45 243 -128t214 -163l75 -71q109 -105 197 -105h11q32 0 32 -30v-163q0 -10 -20.5 -19t-43.5 -9q-83 0 -212 126l-86 83l-43 42
q-22 21 -47 48q-45 47 -70 62l-4 2q-6 0 -6 -12l2 -48q0 -145 -107.5 -224t-303.5 -79h-105z" />
    <glyph glyph-name="uniFEDB_uniFEF2.liga" unicode="&#xfedb;&#xfef2;" horiz-adv-x="2013" 
d="M508 -949q-77 66 -147 109q47 59 103 148q45 -51 101 -85q41 53 72 106q76 -70 139 -108q-46 -60 -91 -153q-59 56 -110 86q-33 -41 -67 -103zM1137 0q-6 -1 -48 -1q-80 0 -139.5 -15.5t-59.5 -36.5q0 -19 60 -35l79 -21q9 -3 68 -17q89 -22 89 -62q0 -56 -46.5 -127.5
t-113.5 -120.5q-107 -76 -265 -127.5t-287 -51.5q-200 0 -306.5 73.5t-106.5 211.5q0 182 127 361q25 35 38 35q3 0 8 -3l3 -2q5 -5 5 -12q0 -1 -2 -6l-3 -8q-2 -7 -7 -16l-11 -20l-14 -27q-55 -103 -55 -174q0 -200 360 -200q145 0 277.5 23.5t186.5 59.5l46 30q7 4 9 8
l1 3v5q-4 7 -149 40q-143 33 -149 59q13 113 105 240q112 155 248 155h338q87 0 146 20.5t59 50.5q0 38 -85.5 115.5t-176.5 121.5l-92 45q-48 23 -65 59.5t-17 112.5q0 44 9.5 66t42.5 53q99 89 315 193.5t420 162.5l-100 -215q-171 -55 -338.5 -125.5t-231.5 -113.5
q21 -12 31 -18l81 -47q136 -79 209 -183.5t73 -221.5q0 -297 -360 -297h-206z" />
    <glyph glyph-name="uniFEDC_uniFEF2.liga" unicode="&#xfedc;&#xfef2;" horiz-adv-x="2124" 
d="M508 -949q-77 66 -147 109q47 59 103 148q45 -51 101 -85q41 53 72 106q76 -70 139 -108q-46 -60 -91 -153q-59 56 -110 86q-33 -41 -67 -103zM1137 0q-6 -1 -48 -1q-80 0 -139.5 -15.5t-59.5 -36.5q0 -19 60 -35l79 -21q9 -3 68 -17q89 -22 89 -62q0 -56 -46.5 -127.5
t-113.5 -120.5q-107 -76 -265 -127.5t-287 -51.5q-200 0 -306.5 73.5t-106.5 211.5q0 182 127 361q25 35 38 35q3 0 8 -3l3 -2q5 -5 5 -12q0 -1 -2 -6l-3 -8q-2 -7 -7 -16l-11 -20l-14 -27q-55 -103 -55 -174q0 -200 360 -200q145 0 277.5 23.5t186.5 59.5l46 30q7 4 9 8
l1 3v5q-4 7 -149 40q-143 33 -149 59q13 113 105 240q110 152 242 155h157q148 0 245 37.5t97 94.5q0 30 -37 58.5t-147 82.5l-64 31q-56 28 -93 92.5t-37 135.5q0 99 222 244t580 280l84 31l21 8l-120 -234q-233 -79 -436 -174q-255 -121 -255 -157q0 -16 115 -63
q113 -45 243 -128t214 -163l75 -71q109 -105 197 -105h11q32 0 32 -30v-163q0 -10 -20.5 -19t-43.5 -9q-83 0 -212 126l-86 83l-43 42q-22 21 -47 48q-45 47 -70 62l-4 2q-6 0 -6 -12l2 -48q0 -145 -107.5 -224t-303.5 -79h-105z" />
    <glyph glyph-name="uniFEDF_uniFB51.rlig" unicode="&#xfedf;&#xfb51;" horiz-adv-x="1163" 
d="M808 1158q19 21 24 27l28 32q21 25 30 36l24 32q2 3 13 16q43 -92 107 -151q-49 -33 -64.5 -62.5t-15.5 -91.5v-80q0 -148 -25 -302t-64 -247q56 -132 56 -216q0 -116 -69 -168.5t-219 -52.5q-65 0 -124 5l-57 5q-10 1 -43 3v198q89 0 144.5 39.5t151.5 168.5
q-143 235 -343 430q-15 14 -19 20q-6 7 -11 9l-4 1q-12 -5 -28 -35q-8 -16 -15 -16q-13 0 -74 65l-39 41q-82 86 -82 126q0 62 27.5 124t55.5 62q73 0 275 -234.5t340 -478.5q44 118 44 417q0 166 -24 278zM682 143h12q83 0 119 18q-18 52 -41 83q-46 -64 -90 -101zM50 1201
q-23 14 -23 38q0 62 34.5 109t80.5 47q14 0 37 -4l40 48q69 82 108.5 112t78.5 30q44 0 75 -31.5t31 -78.5q0 -91 -67 -159.5t-156 -68.5q-32 0 -80 11l-31 7q-25 6 -42 6q-69 0 -86 -66zM231 1377q47 -17 88 -17q49 0 84.5 18.5t35.5 42.5q0 17 -23.5 30.5t-54.5 13.5
q-60 0 -130 -88z" />
    <glyph glyph-name="uniFEE0_uniFB51.rlig" unicode="&#xfee0;&#xfb51;" horiz-adv-x="1241" 
d="M836 1067l107 198q7 -55 9 -73l13 -99l24 -187q55 -417 105 -556q26 -72 61.5 -100.5t101.5 -28.5h11q32 0 32 -30v-163q0 -29 -79 -29q-115 0 -170 52t-78 184q-9 55 -13 73l-27 151l-20 107q-3 16 -10 49h-3l-5 -28q-70 -432 -230 -573q-66 -58 -185 -97t-232 -39h-21
h-28q-27 0 -27 17q0 13 44 36q181 92 328 206t147 162q0 71 -116 199q-61 67 -135.5 124.5t-101.5 57.5q-10 0 -18 -15q-12 -24 -23 -24q-6 0 -18 7q-5 3 -48 26q-98 50 -129 88t-31 106q0 174 47 174q32 0 136.5 -61t192.5 -130q217 -171 316 -393q29 65 50.5 235.5
t21.5 335.5zM10 1081q-23 14 -23 38q0 62 34.5 109t80.5 47q14 0 37 -4l40 48q69 82 108.5 112t78.5 30q44 0 75 -31.5t31 -78.5q0 -91 -67 -159.5t-156 -68.5q-32 0 -80 11l-31 7q-25 6 -42 6q-69 0 -86 -66zM191 1257q47 -17 88 -17q49 0 84.5 18.5t35.5 42.5
q0 17 -23.5 30.5t-54.5 13.5q-60 0 -130 -88z" />
    <glyph glyph-name="uniFEDF_uniFEE2.liga" unicode="&#xfedf;&#xfee2;" horiz-adv-x="1419" 
d="M929 0q-187 3 -274 51q-15 9 -19 9q-18 0 -18 -70v-23q0 -65 -28.5 -104t-74.5 -39q-59 0 -100.5 58t-53.5 158q-7 56 -43 56q-62 0 -107 -45t-45 -109q0 -50 30 -208q16 -90 19 -109l13 -85q41 -262 41 -434q0 -102 -35 -102q-24 0 -43 96l-15 78q-5 28 -19 107l-16 94
q-11 62 -15 96l-11 84l-19 146l-17 149q-11 89 -11 118q0 113 65 209.5t179 154.5q51 26 72 43q32 44 53 44q19 0 48 -33l22 -27q122 -142 470 -142h72q152 0 152 131q0 30 -8 77l-21 130q-32 201 -42 312l-10 111q-11 122 -39 189l27 33q48 58 76 97q56 -122 128 -185
q-61 -57 -61 -132q0 -36 8 -79l17 -90q54 -293 54 -447q0 -155 -88 -306q-88 -58 -278 -62h-35z" />
    <glyph glyph-name="uniFEE4_uniFE8E.liga" unicode="&#xfee4;&#xfe8e;" horiz-adv-x="1379" 
d="M979 180q25 0 25 37q0 59 -29.5 112t-61.5 53q-21 0 -57.5 -35.5t-36.5 -55.5q0 -19 66.5 -65t93.5 -46zM484 0h-5q-39 -6 -107.5 6.5t-99.5 31.5q-48 28 -69 85.5t-32 189.5l-22 257q-16 179 -61 510l138 157l62 -839q8 -101 51.5 -139t153.5 -38h6q91 0 139.5 22.5
t87.5 82.5q117 178 181 178q41 0 102 -64q127 -136 185 -177.5t120 -41.5h81q44 0 44 -30v-163q0 -29 -76 -29q-101 0 -180 59q-39 28 -50 28q-15 0 -24 -60q-13 -84 -68 -84q-43 0 -184 105l-77 57q-53 40 -74 40q-12 0 -27 -18l-28 -33q-47 -55 -83 -74q-34 -17 -84 -19z
" />
    <glyph glyph-name="uniFEE4_uniFE82.liga" unicode="&#xfee4;&#xfe82;" horiz-adv-x="1397" 
d="M999 180q25 0 25 37q0 59 -29.5 112t-61.5 53q-21 0 -57.5 -35.5t-36.5 -55.5q0 -19 66.5 -65t93.5 -46zM510 1563q-9 -98 -61 -146q-51 -46 -140.5 -80.5t-161.5 -34.5q-50 0 -100 13q-19 5 -29 5q-33 0 -72 -37l-7 -6q-14 -14 -21 -14q-10 0 -10 21q0 60 46 120t91 60
q14 0 38 -6l26 -7q49 -14 92 -14q190 0 309 126zM504 0h-5q-39 -6 -107.5 6.5t-99.5 31.5q-47 28 -68.5 85.5t-32.5 189.5l-22 257q-16 179 -60 510l138 157l61 -839q8 -101 51.5 -139t154.5 -38h5q91 0 139.5 22.5t87.5 82.5q117 178 181 178q41 0 102 -64
q127 -136 185 -177.5t120 -41.5h81q44 0 44 -30v-163q0 -29 -76 -29q-101 0 -180 59q-39 28 -50 28q-15 0 -24 -60q-13 -84 -68 -84q-43 0 -184 105l-77 57q-53 40 -74 40q-12 0 -27 -18l-28 -33q-47 -55 -83 -74q-34 -17 -84 -19z" />
    <glyph glyph-name="uniFEE4_uniFE84.liga" unicode="&#xfee4;&#xfe84;" horiz-adv-x="1370" 
d="M969 180q25 0 25 37q0 59 -29.5 112t-61.5 53q-21 0 -57.5 -35.5t-36.5 -55.5q0 -19 66.5 -65t93.5 -46zM196 1469q-23 39 -57 39q-26 0 -52 -15t-26 -30q0 -19 34 -40t66 -21q76 0 210 59l-3 -14q-25 -105 -100 -128q-197 -60 -226 -150q-32 23 -32 44q0 33 38 95
q-73 39 -73 92q0 67 72 140.5t137 73.5q30 0 50.5 -19t20.5 -46q0 -44 -59 -80zM492 1q-7 -1 -14 -1q-39 -6 -107.5 6.5t-99.5 31.5q-47 28 -68 85.5t-33 189.5l-22 257q-16 179 -60 510l138 157l61 -839q8 -101 52 -139q43 -38 152 -38q90 0 138 23q48 22 87 82
q117 178 181 178q41 0 102 -64q127 -136 185 -177.5t120 -41.5h81q44 0 44 -30v-163q0 -29 -76 -29q-101 0 -180 59q-39 28 -50 28q-15 0 -24 -60q-13 -84 -68 -84q-43 0 -184 105l-77 57q-53 40 -74 40q-12 0 -27 -18l-28 -33q-47 -55 -83 -74q-28 -14 -66 -18z" />
    <glyph glyph-name="uniFEE4_uniFE88.liga" unicode="&#xfee4;&#xfe88;" horiz-adv-x="1401" 
d="M303 -205q-24 38 -58 38q-26 0 -52 -15t-26 -29q0 -20 34.5 -41t65.5 -21q76 0 211 59l-4 -14q-25 -105 -99 -128q-197 -60 -227 -150q-32 24 -32 45q0 32 38 94q-73 39 -73 92q0 67 72 140.5t137 73.5q30 0 51 -19t21 -46q0 -44 -59 -79zM999 180q25 0 25 37
q0 59 -29.5 112t-61.5 53q-21 0 -57.5 -35.5t-36.5 -55.5q0 -19 66.5 -65t93.5 -46zM500 0h-1q-15 -2 -34 -2q-147 0 -214 40q-47 28 -68.5 85.5t-32.5 189.5l-22 257q-16 179 -60 510l138 157l61 -839q6 -80 30 -115q25 -37 68.5 -49.5t147.5 -12.5h6q91 0 139.5 22.5
t87.5 82.5q117 178 181 178q41 0 102 -64q127 -136 185 -177.5t120 -41.5h81q44 0 44 -30v-163q0 -29 -76 -29q-101 0 -180 59q-39 28 -50 28q-15 0 -24 -60q-13 -84 -68 -84q-43 0 -184 105l-77 57q-53 40 -74 40q-12 0 -27 -18l-28 -33q-47 -55 -83 -74q-35 -18 -88 -19z
" />
    <glyph glyph-name="uniFEE8_uniFEAE.liga" unicode="&#xfee8;&#xfeae;" horiz-adv-x="1209" 
d="M1087 733q-66 -75 -114 -162q-82 76 -164 117q52 63 115 160q67 -59 163 -115zM751 0h-41q-32 0 -42 -39q-63 -249 -146 -350q-125 -151 -275 -151q-52 0 -145 44t-102 72v3q0 11 14 11h2q2 0 14 -2q16 -2 38 -2q76 0 179 47t178 116q118 110 159 263q-25 56 -119 134
l101 177q30 -58 77.5 -80t140.5 -22h51q91 0 172 107q21 28 31 28q12 0 17 -21l13 -49q10 -38 25.5 -51.5t49.5 -13.5h78q44 0 44 -30v-163q0 -11 -21.5 -19.5t-47.5 -8.5q-129 0 -173 95q-13 30 -23 30q-12 0 -29 -24q-43 -58 -87 -80t-118 -22q-8 0 -15 1z" />
    <glyph glyph-name="uniFEE7_uniFEE4.liga" unicode="&#xfee7;&#xfee4;" horiz-adv-x="1379" 
d="M509 180q25 0 25 37q0 59 -29.5 112t-61.5 53q-21 0 -57.5 -35.5t-36.5 -55.5q0 -19 66.5 -65t93.5 -46zM1296 930q-67 -75 -114 -161q-82 76 -165 117q53 62 116 160q67 -60 163 -116zM920 0q-12 -1 -27 -1q-101 0 -180 59q-39 28 -50 28q-15 0 -24 -60q-13 -84 -68 -84
q-43 0 -184 105l-77 57q-53 40 -74 40q-12 0 -27 -18l-28 -33q-47 -55 -83.5 -74t-93.5 -19q-63 0 -63 31v158q0 32 55 32h33q91 0 139.5 22.5t87.5 82.5q117 178 181 178q41 0 102 -64q127 -136 185 -177.5t120 -41.5h230q88 0 122 30q-15 40 -56 84l-37 40l-10 10
q30 77 97 167l7 11q97 -140 97 -290q0 -62 -30 -129t-76 -110q-33 -22 -118 -28q-19 -2 -52 -5q-60 -5 -89 -1h-9z" />
    <glyph glyph-name="uniFEE7_uniFEF0.liga" unicode="&#xfee7;&#xfef0;" horiz-adv-x="1558" 
d="M1476 930q-67 -75 -114 -161q-82 76 -165 117q53 62 116 160q67 -60 163 -116zM1117 -1h-28q-80 0 -139.5 -15.5t-59.5 -36.5q0 -19 60 -35l79 -21q9 -3 68 -17q89 -22 89 -62q0 -56 -46.5 -127.5t-113.5 -120.5q-107 -76 -265 -127.5t-287 -51.5q-200 0 -306.5 73.5
t-106.5 211.5q0 182 127 361q25 35 38 35q3 0 8 -3l3 -2q5 -5 5 -12q0 -1 -2 -6l-3 -8q-2 -7 -7 -16l-11 -20l-14 -27q-55 -103 -55 -174q0 -200 360 -200q145 0 277.5 23.5t186.5 59.5l46 30q7 4 9 8l1 3v5q-4 7 -149 40q-143 33 -149 59q13 113 105 240q112 155 248 155
h169q88 0 122 30q-15 40 -56 84l-37 40l-10 10q30 77 97 167l7 11q97 -140 97 -290q0 -62 -30 -129t-76 -110q-33 -22 -118 -28q-19 -2 -52 -5q-53 -4 -81 -2z" />
    <glyph glyph-name="uniFEE7_uniFEF2.liga" unicode="&#xfee7;&#xfef2;" horiz-adv-x="1558" 
d="M508 -949q-77 66 -147 109q47 59 103 148q45 -51 101 -85q41 53 72 106q76 -70 139 -108q-46 -60 -91 -153q-59 56 -110 86q-33 -41 -67 -103zM1476 930q-67 -75 -114 -161q-82 76 -165 117q53 62 116 160q67 -60 163 -116zM1117 -1h-28q-80 0 -139.5 -15.5t-59.5 -36.5
q0 -19 60 -35l79 -21q9 -3 68 -17q89 -22 89 -62q0 -56 -46.5 -127.5t-113.5 -120.5q-107 -76 -265 -127.5t-287 -51.5q-200 0 -306.5 73.5t-106.5 211.5q0 182 127 361q25 35 38 35q3 0 8 -3l3 -2q5 -5 5 -12q0 -1 -2 -6l-3 -8q-2 -7 -7 -16l-11 -20l-14 -27
q-55 -103 -55 -174q0 -200 360 -200q145 0 277.5 23.5t186.5 59.5l46 30q7 4 9 8l1 3v5q-4 7 -149 40q-143 33 -149 59q13 113 105 240q112 155 248 155h169q88 0 122 30q-15 40 -56 84l-37 40l-10 10q30 77 97 167l7 11q97 -140 97 -290q0 -62 -30 -129t-76 -110
q-33 -22 -118 -28q-19 -2 -52 -5q-53 -4 -81 -2z" />
    <glyph glyph-name="uniFEF4_uniFEAE.liga" unicode="&#xfef4;&#xfeae;" horiz-adv-x="1201" 
d="M741 0h-31q-32 0 -42 -39q-63 -249 -146 -350q-125 -151 -275 -151q-52 0 -145 44t-102 72v3q0 11 14 11h2q2 0 14 -2q16 -2 38 -2q76 0 179 47t178 116q118 110 159 263q-25 56 -119 134l101 177q30 -58 77.5 -80t140.5 -22h41q91 0 172 107q21 28 31 28q12 0 17 -21
l13 -49q10 -38 25.5 -51.5t49.5 -13.5h78q44 0 44 -30v-163q0 -11 -21.5 -19.5t-47.5 -8.5q-129 0 -173 95q-13 30 -23 30q-12 0 -29 -24q-43 -58 -87 -80t-118 -22q-8 0 -15 1zM899 -429q-77 67 -147 110q48 58 103 147q45 -51 101 -85q42 53 72 106q76 -70 140 -108
q-47 -60 -92 -152q-59 55 -109 86q-34 -42 -68 -104z" />
    <glyph glyph-name="uniFEF3_uniFEE4.liga" unicode="&#xfef3;&#xfee4;" horiz-adv-x="1392" 
d="M1094 -431q-77 66 -147 110q48 58 103 147q46 -51 101 -85q42 53 73 106q75 -70 139 -108q-46 -60 -91 -152q-59 55 -110 86q-34 -42 -68 -104zM509 180q25 0 25 37q0 59 -29.5 112t-61.5 53q-21 0 -57.5 -35.5t-36.5 -55.5q0 -19 66.5 -65t93.5 -46zM920 0
q-12 -1 -27 -1q-101 0 -180 59q-39 28 -50 28q-15 0 -24 -60q-13 -84 -68 -84q-43 0 -184 105l-77 57q-53 40 -74 40q-12 0 -27 -18l-28 -33q-47 -55 -83.5 -74t-93.5 -19q-63 0 -63 31v158q0 32 55 32h33q91 0 139.5 22.5t87.5 82.5q117 178 181 178q41 0 102 -64
q127 -136 185 -177.5t120 -41.5h230q88 0 122 30q-15 40 -56 84l-37 40l-10 10q30 77 97 167l7 11q97 -140 97 -290q0 -62 -30 -129t-76 -110q-33 -22 -118 -28q-19 -2 -52 -5q-60 -5 -89 -1h-9z" />
    <glyph glyph-name="uniFEF4_uniFEE6.liga" unicode="&#xfef4;&#xfee6;" horiz-adv-x="1553" 
d="M646 559q-67 -75 -114 -162q-83 77 -165 118q53 62 116 160q66 -60 163 -116zM1259 -429q-77 67 -147 110q48 58 103 147q45 -51 101 -85q42 53 72 106q76 -70 140 -108q-47 -60 -92 -152q-59 55 -109 86q-34 -42 -68 -104zM1096 0q-54 0 -120 12q0 -273 -154 -435
t-413 -162q-156 0 -252 88t-96 231q0 91 49 210.5t87 119.5q16 0 16 -19q0 -8 -12 -34q-53 -117 -53 -188q0 -86 81.5 -135.5t222.5 -49.5q219 0 357 102q84 63 84 194q0 50 -16 128q-72 58 -103 135q36 78 109 159q48 -89 92 -112t161 -23h49q91 0 172 107q21 28 31 28
q12 0 17 -21l13 -49q10 -38 25.5 -51.5t49.5 -13.5h78q44 0 44 -30v-163q0 -11 -21.5 -19.5t-47.5 -8.5q-129 0 -173 95q-13 30 -23 30q-12 0 -29 -24q-43 -58 -87 -80t-118 -22q-8 0 -15 1h-5z" />
    <glyph glyph-name="T_h.liga" unicode="Th" horiz-adv-x="1931" 
d="M1486 0v56q62 9 76 28q13 18 13 91v309q0 180 -128 180q-72 0 -125 -50v-439q0 -72 13 -91q12 -19 67 -28v-56h-417v56q79 9 95 28q18 19 18 103v857q-103 15 -340 15h-69v-830q0 -108 26 -135q24 -25 130 -34v-60h-540v60q100 9 124 34q26 27 26 135v830h-67
q-170 0 -212 -55q-38 -47 -67 -160h-63l12 182q7 105 9 153h39q30 -43 99 -43h722q171 0 171 35v23q177 31 224 48v-560q112 112 232 112q243 0 243 -291v-318q0 -82 16 -101q15 -19 84 -28v-56h-411z" />
    <glyph glyph-name="f_b.liga" unicode="fb" horiz-adv-x="1489" 
d="M952 759q76 35 125 35q151 0 257 -111q103 -109 103 -258q0 -191 -133 -319q-133 -127 -327 -127q-145 0 -312 63v1003q-77 96 -182 96q-58 0 -78 -66q-19 -54 -19 -241v-62h164q6 -16 0 -44q-7 -32 -23 -41h-141v-492q0 -85 18 -105q20 -23 108 -32v-58h-459v58
q71 8 88 28q21 24 21 109v492h-117l-7 20l50 65h74v39q0 65 23 123q41 116 153 202q100 77 215 93q93 -4 156 -44q98 18 170 44l10 -13v-487zM889 190q0 -43 9 -60q28 -82 110 -85q74 -1 127 79q62 92 62 251q0 154 -73 235q-62 70 -156 70q-45 0 -79 -14v-476z" />
    <glyph glyph-name="f_f_b.liga" unicode="ffb" horiz-adv-x="1991" 
d="M1390 727q42 21 65 30q79 37 122 37q153 0 259 -111q103 -109 103 -258q0 -191 -133 -319q-133 -127 -328 -127q-144 0 -311 63v997q-80 107 -174 107q-58 0 -85 -73q-21 -52 -21 -239v-62h164q9 -14 3 -42q-7 -30 -26 -41h-141v-506q0 -80 20 -99q18 -18 98 -26v-58
h-427v58q57 8 70 26q15 21 15 101v504h-279v-507q0 -77 16 -98q15 -18 75 -26v-58h-424v58q76 8 93 26q17 20 17 98v507h-116l-9 20l52 63h73v30q0 57 35 133q48 98 149 166q111 80 247 91q144 -5 215 -78q116 104 253 115q90 -3 154 -44q104 22 166 44l10 -13v-489z
M663 807q0 102 50 185q-75 117 -190 117q-88 0 -120 -105q-19 -64 -19 -177v-55h279v35zM1390 190q0 -41 9 -60q30 -79 110 -81q76 -1 130 82q59 91 59 244t-72 233q-63 70 -157 70q-47 0 -79 -16v-472z" />
    <glyph glyph-name="f_f.liga" unicode="ff" horiz-adv-x="1074" 
d="M160 802q0 72 38 149q45 89 134 153q111 83 235 95q149 -4 229 -87q112 104 235 120q104 0 158 -61q30 -34 12 -75q-13 -32 -54 -63q-36 -25 -63 3q-106 96 -147 96q-46 0 -58 -53q-11 -56 0 -242l4 -65h203q8 -16 2 -44q-6 -32 -23 -41h-182v-504q0 -77 24 -98
q20 -18 109 -29v-56h-440v56q54 8 69 28q14 23 14 99v504h-275v-504q0 -75 16 -97q16 -21 76 -30v-56h-429v56q74 9 93 29q20 23 20 98v504h-119l-9 20l52 65h76v30zM659 806q0 49 13 101q9 37 27 73q-73 139 -197 139q-74 0 -100 -95q-18 -67 -18 -197v-55h275v34z" />
    <glyph glyph-name="f_h.liga" unicode="fh" horiz-adv-x="1501" 
d="M1057 0v58q61 8 76 26q13 18 13 91v309q0 178 -127 178q-77 0 -130 -52v-435q0 -72 13 -91q13 -18 67 -26v-58h-402v58q69 8 83 26q15 18 15 96v862q-70 97 -181 97q-58 0 -77 -62q-22 -56 -22 -247v-58h163q10 -15 4 -45q-6 -32 -25 -40h-142v-504q0 -77 17 -97
q14 -19 82 -28v-58h-430v58q75 9 92 26q16 19 16 99v504h-110l-7 20l50 65h67v34q0 60 23 126q48 122 150 200q103 81 220 97q93 -5 152 -40q107 17 173 40l9 -11v-536q112 112 236 112q243 0 243 -289v-322q0 -79 15 -98q15 -18 85 -27v-58h-411z" />
    <glyph glyph-name="f_f_h.liga" unicode="ffh" horiz-adv-x="2004" 
d="M1560 0v58q62 8 76 25q13 17 13 87v316q0 180 -126 180q-77 0 -131 -54v-442q0 -69 13 -87q12 -17 67 -25v-58h-391v58q60 8 73 25q14 18 14 94v865q-74 104 -170 104q-62 0 -90 -84q-20 -57 -20 -228v-62h163q9 -14 4 -42q-6 -32 -25 -41h-142v-516q0 -71 20 -89
q18 -18 92 -26v-58h-421v58q58 8 70 25q16 19 16 92v514h-280v-512q0 -74 17 -94q14 -17 74 -25v-58h-420v58q71 8 88 26q17 19 17 93v512h-111l-9 20l50 63h70v30q0 55 37 137q53 96 148 162q115 83 251 91q133 -2 215 -77q115 104 248 112q91 -2 152 -38q105 16 170 40
l10 -11v-536q115 112 236 112q243 0 243 -294v-328q0 -71 15 -89q15 -17 84 -25v-58h-410zM665 811q0 111 48 185q-70 112 -192 112q-88 0 -118 -116q-18 -70 -18 -165v-55h280v39z" />
    <glyph glyph-name="f_f_i.liga" unicode="ffi" horiz-adv-x="1514" 
d="M1075 0v56q52 8 66 28q15 22 15 91v390q0 83 -13 102q-15 22 -78 22h-183v-506q0 -77 18 -99q15 -18 75 -28v-56h-402v56q55 8 69 28q16 22 16 99v506h-274v-509q0 -75 16 -96q15 -18 75 -28v-56h-422v56q70 10 88 28q19 22 19 98v507h-114l-10 20l54 63h70v30
q0 71 31 137q51 102 150 173q120 83 237 92q165 -5 234 -92q139 113 285 124q131 -3 210 -84q44 -48 20 -95q-15 -36 -54 -61q-48 -32 -76 -4l-29 37q-24 31 -44 50q-64 65 -132 65q-72 0 -96 -105q-14 -59 -14 -202v-65h175q216 0 323 22v-619q0 -70 16 -89q18 -19 91 -30
v-56h-412zM658 807q0 59 16 109q17 51 33 73q-69 133 -203 133q-77 0 -104 -101q-16 -60 -16 -194v-55h274v35z" />
    <glyph glyph-name="f_j.liga" unicode="fj" horiz-adv-x="1004" 
d="M564 772q213 0 320 22v-574q0 -163 -50 -280q-103 -242 -244 -342q-35 -26 -64 -26q-19 0 -44 28q-28 31 -28 70q0 45 40 45q115 0 137 37q16 31 21 124q8 258 8 327v362q0 83 -12 101q-14 23 -76 23h-186v-514q0 -73 20 -92q17 -17 88 -27v-56h-439v56q75 11 91 28
t16 91v514h-113l-9 20l54 63h68v39q0 77 43 164q38 78 135 154q123 94 261 100q134 -5 199 -79q41 -49 17 -96q-17 -35 -53 -58q-49 -28 -74 6q-104 135 -192 135q-71 0 -96 -108q-16 -62 -16 -202v-55h178z" />
    <glyph glyph-name="f_f_j.liga" unicode="ffj" horiz-adv-x="1501" 
d="M1061 772q213 0 320 22v-572q0 -163 -49 -282q-101 -240 -244 -342q-36 -26 -64 -26q-21 0 -43 27q-27 31 -27 71q0 44 41 47q120 5 134 35q17 31 22 124q7 138 7 325v364q0 84 -12 101q-12 21 -74 21h-189v-504q0 -77 19 -98q17 -17 94 -29v-56h-422v56q56 8 70 27
q15 21 15 100v504h-275v-507q0 -76 16 -96q14 -18 76 -28v-56h-427v56q74 10 91 28q20 21 20 98v505h-118l-10 20l54 65h74v30q0 64 32 133q48 100 151 174q117 81 239 92q159 -5 231 -95q145 119 281 126q127 -2 203 -78q45 -45 23 -95q-15 -36 -56 -63q-48 -33 -75 -4
q-6 6 -28 36q-23 31 -41 49q-61 62 -129 62t-92 -105q-16 -65 -16 -197v-65h178zM659 807q0 51 18 105q16 50 32 75q-66 132 -203 132q-78 0 -105 -102q-17 -64 -17 -190v-55h275v35z" />
    <glyph glyph-name="f_k.liga" unicode="fk" horiz-adv-x="1442" 
d="M1172 -3q-108 139 -237 345q-22 30 -33 30q-12 3 -18 3v-192q0 -79 18 -99q17 -18 92 -26v-58h-421v58q64 8 78 26q14 19 14 99v862q-69 96 -178 96q-61 0 -82 -70q-19 -62 -19 -242v-57h162q9 -16 4 -46q-6 -32 -25 -39h-141v-495q0 -84 16 -105q15 -20 83 -29v-58h-435
v58q78 9 95 28q17 21 17 106v495h-117l-7 19l50 66h74v34q0 68 23 126q40 115 157 204q105 77 211 93q101 -5 152 -42q127 26 168 42l11 -11v-791q67 13 110 66q63 73 106 149q20 32 12 46q-9 18 -67 25v54l375 16v-54q-142 -26 -211 -87q-57 -56 -131 -147
q121 -194 254 -341q74 -82 146 -96v-58z" />
    <glyph glyph-name="f_f_k.liga" unicode="ffk" horiz-adv-x="1943" 
d="M1675 -3q-85 104 -240 345q-19 30 -31 30q-11 3 -17 3v-195q0 -77 18 -96q18 -18 97 -26v-58h-426v58q63 8 78 26q14 19 14 96v860q-77 103 -171 103q-64 0 -91 -82q-20 -57 -20 -227v-62h169q5 -17 -2 -46q-7 -32 -23 -39h-144v-515q0 -70 19 -89q17 -17 85 -25v-58
h-418v58q61 8 76 25q15 19 15 89v515h-277v-509q0 -73 15 -93q14 -19 75 -27v-58h-425v58q75 8 93 26q18 19 18 93v510h-118l-10 20l54 65h74v25q0 73 42 148q46 88 139 152q113 87 256 95q143 -2 211 -77q113 99 250 114q100 -3 148 -42q115 22 170 42l9 -9v-793
q62 12 106 64q62 73 103 147q37 63 -52 75v54l378 16v-54q-137 -22 -214 -91q-59 -53 -129 -143q114 -187 255 -341q73 -81 146 -96v-58zM663 811q0 106 49 183q-80 115 -191 115q-88 0 -120 -117q-15 -58 -15 -165v-55h277v39z" />
    <glyph glyph-name="f_f_l.liga" unicode="ffl" horiz-adv-x="1514" 
d="M1082 0v56q49 6 61 24q14 21 14 95v887q-48 92 -143 92q-57 0 -95 -57q-37 -56 -37 -204v-121h184q6 -16 0 -44q-8 -31 -24 -39h-160v-506q0 -79 19 -100q15 -17 81 -27v-56h-409v56q56 8 69 27q17 22 17 100v506h-275v-507q0 -77 16 -98q15 -18 75 -28v-56h-418v56
q69 11 85 29q18 21 18 98v506h-111l-9 20l52 63h68v34q0 68 37 141q49 92 145 159q124 90 250 95q144 -3 224 -79q129 103 260 109q105 1 189 -46q23 8 96 39l20 -10v-1039q0 -73 18 -91q17 -17 92 -28v-56h-409zM659 806q0 38 19 115q6 26 33 81q-66 117 -194 117
q-87 0 -117 -115q-16 -60 -16 -184v-48h275v34z" />
    <glyph glyph-name="f_t.liga" unicode="ft" horiz-adv-x="1112" 
d="M950 -2q-47 -19 -70 -19q-215 0 -215 220v490h-279v-512q0 -75 16 -93q17 -18 92 -26v-58h-445v58q79 9 95 26q18 18 18 93v512h-119l-9 20l54 63h74v32q0 63 24 131q35 109 148 199q93 79 214 95q111 -5 164 -58q34 -34 14 -74q-13 -35 -58 -66q-32 -22 -57 0
q-91 95 -165 95q-43 0 -57 -51q-17 -57 -5 -248l2 -55h279v110l199 137l24 -12v-235h175q15 -14 12 -43q-4 -30 -26 -40h-161v-427q0 -160 97 -160q41 0 94 20l17 -57z" />
    <glyph glyph-name="f_f_t.liga" unicode="fft" horiz-adv-x="1614" 
d="M1453 -2q-41 -19 -70 -19q-215 0 -215 220v491h-279v-518q0 -73 20 -91q17 -15 97 -23v-58h-427v58q59 8 72 25q13 18 13 90v517h-279v-518q0 -70 16 -89q16 -17 76 -25v-58h-428v58q79 8 95 25q18 17 18 89v518h-120l-10 22l54 60h76v30q0 66 36 137q46 88 143 158
q118 87 258 95q129 -2 210 -77q122 107 244 114q112 -5 166 -62q33 -34 14 -73q-14 -37 -55 -65q-33 -23 -57 0q-99 103 -170 103q-43 0 -57 -53q-15 -47 -8 -245l3 -62h279v104l199 143l24 -12v-235h175q16 -14 11 -42q-3 -29 -24 -40h-162v-428q0 -160 95 -160q47 0 95 20
l19 -57zM664 811q0 100 46 181q-76 120 -196 120q-75 0 -112 -100q-18 -58 -18 -185v-55h280v39z" />
    <glyph glyph-name="uni0647.fina" unicode="&#x647;" horiz-adv-x="928" arabic-form="final" 
d="M701 -190q2 40 -91 92.5t-166 52.5q-24 0 -24 -19q0 -34 51 -104q64 -88 138 -88q32 0 61.5 21t30.5 45zM666 409q1 18 -26.5 44.5t-47.5 26.5q-33 0 -94 -72.5t-61 -112.5q0 -9 13 -9q48 0 131 47.5t85 75.5zM197 204q38 33 147 39q40 166 137 290q52 67 113 110.5
t102 43.5q33 0 45 -38t12 -140q0 -109 -41 -184t-141 -147l11 -6q136 49 362 49q43 0 43 -30v-163q0 -21 -58 -28l-68 -1l-63 -3q-38 0 -84 -9q56 -105 56 -182q0 -93 -60 -170t-132 -77q-104 0 -170 109t-78 300l-46 -9l-12 54h-2q-37 5 -68 -9q-65 -22 -85 -100
q-38 23 -38 63q0 103 57 181q28 38 61 57z" />
    <glyph glyph-name="uni0672.fina" unicode="&#x672;" horiz-adv-x="498" 
d="M109 1080l138 157l61 -839q8 -101 51.5 -139t154.5 -38h11q32 0 32 -30v-163q0 -9 -19.5 -18.5t-38.5 -9.5q-39 -6 -107.5 6.5t-99.5 31.5q-47 28 -68.5 85.5t-32.5 189.5l-22 257q-16 179 -60 510zM57 1436q27 29 62 29h3q10 0 26 -5q14 -4 29 -13q32 -19 60 -19l7 8
q-57 37 -57 88q0 60 62 110q60 49 115 49q31 0 51 -19q17 -17 17 -41q0 -27 -32 -69l-4 7q-34 39 -59 39q-26 0 -52 -12q-23 -10 -23 -17q0 -21 28 -35q32 -18 90 -18q40 0 111 11l-5 -11q-18 -38 -50 -89q-47 -8 -75 -15q-33 -11 -58 -47q-42 -62 -91 -49t-66 16t-30 3
q-69 0 -86 -66q-23 14 -23 38q0 62 35 109q7 10 15 18z" />
    <glyph glyph-name="uni0673.fina" unicode="&#x673;" horiz-adv-x="498" 
d="M109 1080l138 157l61 -839q8 -101 51.5 -139t154.5 -38h11q32 0 32 -30v-163q0 -9 -19.5 -18.5t-38.5 -9.5q-39 -6 -107.5 6.5t-99.5 31.5q-47 28 -68.5 85.5t-32.5 189.5l-22 257q-16 179 -60 510zM57 -354q27 29 62 29h3q10 0 26 -5q14 -4 29 -13q32 -19 60 -19l7 8
q-57 37 -57 88q0 60 62 110q60 49 115 49q31 0 51 -19q17 -17 17 -41q0 -27 -32 -69l-4 7q-34 39 -59 39q-26 0 -52 -12q-23 -10 -23 -17q0 -21 28 -35q32 -18 90 -18q40 0 111 11l-5 -11q-18 -38 -50 -89q-47 -8 -75 -15q-33 -11 -58 -47q-42 -62 -91 -49t-66 16t-30 3
q-69 0 -86 -66q-23 14 -23 38q0 62 35 109q7 10 15 18z" />
    <glyph glyph-name="uni0675.fina" unicode="&#x675;" horiz-adv-x="658" 
d="M456 1469q-23 39 -57 39q-26 0 -52 -15t-26 -30q0 -19 34 -40t66 -21q76 0 210 59l-3 -14q-25 -105 -100 -128q-197 -60 -226 -150q-32 23 -32 44q0 33 38 95q-73 39 -73 92q0 67 72 140.5t137 73.5q30 0 50.5 -19t20.5 -46q0 -44 -59 -80zM88 1080l138 157l61 -839
q8 -101 51.5 -139t334.5 -38h11q32 0 32 -30v-163q0 -9 -19.5 -18.5t-38.5 -9.5q-219 -6 -287.5 6.5t-99.5 31.5q-47 28 -68 85.5t-33 189.5l-22 257q-16 179 -60 510z" />
    <glyph glyph-name="uni0676.fina" unicode="&#x676;" horiz-adv-x="1101" 
d="M666 -2q-49 -3 -72 -3q-202 0 -202 140q0 88 97.5 222.5t161.5 134.5q44 0 80 -73.5t53 -197.5h332q43 0 43 -30v-163q0 -9 -19.5 -18.5t-38.5 -9.5h-338q-47 -192 -153 -331q-67 -88 -158.5 -143t-170.5 -55q-118 0 -236 148q-45 58 -45 90q0 19 13 19h3q7 -1 16 -4
l43 -16q63 -23 155 -23q171 0 290 85.5t146 227.5zM691 227q-6 45 -34 85.5t-53 40.5q-21 0 -44.5 -36.5t-23.5 -69.5q0 -6 2 -19q37 -15 79 -15t74 14zM875 883q-24 39 -57 39q-26 0 -52 -15t-26 -30q0 -19 34 -40t65 -21q77 0 211 59l-3 -14q-25 -105 -100 -128
q-197 -60 -226 -150q-32 23 -32 44q0 33 38 95q-73 39 -73 92q0 67 72 140.5t137 73.5q30 0 50.5 -19t20.5 -47q0 -44 -59 -79z" />
    <glyph glyph-name="uni0677.fina" unicode="&#x677;" horiz-adv-x="1101" 
d="M666 -2q-49 -3 -72 -3q-202 0 -202 140q0 88 97.5 222.5t161.5 134.5q44 0 80 -73.5t53 -197.5h332q43 0 43 -30v-163q0 -9 -19.5 -18.5t-38.5 -9.5h-338q-47 -192 -153 -331q-67 -88 -158.5 -143t-170.5 -55q-118 0 -236 148q-45 58 -45 90q0 19 13 19h3q7 -1 16 -4
l43 -16q63 -23 155 -23q171 0 290 85.5t146 227.5zM691 227q-6 45 -34 85.5t-53 40.5q-21 0 -44.5 -36.5t-23.5 -69.5q0 -6 2 -19q37 -15 79 -15t74 14zM875 883q-24 39 -57 39q-26 0 -52 -15t-26 -30q0 -19 34 -40t65 -21q77 0 211 59l-3 -14q-25 -105 -100 -128
q-197 -60 -226 -150q-32 23 -32 44q0 33 38 95q-73 39 -73 92q0 67 72 140.5t137 73.5q30 0 50.5 -19t20.5 -47q0 -44 -59 -79zM488 789q4 16 4 37q0 36 -22.5 63.5t-52.5 27.5q-25 0 -44 -16t-19 -37t41.5 -44t92.5 -31zM542 773q65 -30 65 -64q0 -45 -44 -93
q-22 31 -72 48q-81 -126 -289 -222q-55 -11 -108 -11q-14 0 -16 3l-1 2q1 4 13 10q3 2 14 9l27 16q162 98 276 207l6 6l-5 1q-10 3 -27 11l-24 11q-76 34 -76 101q0 74 62.5 150.5t121.5 76.5q45 0 72 -42t27 -110q0 -55 -22 -110z" />
    <glyph glyph-name="uni0678.init" unicode="&#x678;" horiz-adv-x="735" 
d="M265 251q-14 40 -55 84l-37 40l-10 10q30 77 96 167l8 11q97 -140 97 -290q0 -62 -30 -129t-76 -110q-33 -22 -119 -28q-19 -2 -51 -5q-60 -5 -88 -1q-59 0 -59 31v158q0 32 41 32h162q87 0 121 30zM501 916q-23 38 -57 38q-26 0 -52 -14.5t-26 -29.5q0 -19 34.5 -40.5
t65.5 -21.5q76 0 211 59l-4 -14q-25 -104 -99 -127q-198 -61 -227 -151q-32 24 -32 45q0 33 38 95q-73 38 -73 91q0 67 72 140.5t137 73.5q30 0 51 -19t21 -46q0 -44 -60 -79z" />
    <glyph glyph-name="uni0678.medi" unicode="&#x678;" horiz-adv-x="700" 
d="M-59 31v158q0 32 41 32h104q91 0 171 107q22 28 32 28q11 0 17 -21l12 -49q10 -38 26 -51.5t50 -13.5h327q44 0 44 -30v-163q0 -11 -21.5 -19.5t-47.5 -8.5q-379 0 -422 95q-13 30 -24 30t-28 -24q-43 -58 -87 -80t-120 -22q-8 0 -16 1q-58 4 -58 31zM509 779
q-24 38 -58 38q-26 0 -52 -14.5t-26 -29.5q0 -19 34.5 -40t65.5 -21q76 0 211 58l-4 -13q-25 -105 -99 -128q-197 -60 -227 -150q-32 23 -32 44q0 33 38 95q-73 39 -73 92q0 67 72 140.5t137 73.5q30 0 51 -19t21 -47q0 -44 -59 -79z" />
    <glyph glyph-name="uni0678.fina" unicode="&#x678;" horiz-adv-x="1496" 
d="M1291 616q-23 38 -57 38q-26 0 -52 -14.5t-26 -29.5q0 -19 34 -40.5t66 -21.5q76 0 211 59l-4 -14q-25 -104 -99 -127q-198 -61 -227 -151q-32 24 -32 45q0 32 38 95q-73 38 -73 91q0 67 72 140.5t137 73.5q30 0 50.5 -19t20.5 -46q0 -44 -59 -79zM1030 -278v5
q-4 7 -149 40q-143 33 -149 59q13 113 105 240q112 155 248 155h416q45 0 45 -30v-158q0 -14 -19 -23l-15 -7q-6 -3 -25 -3q-6 -1 -398 -1q-80 0 -139.5 -15.5t-59.5 -36.5q0 -19 60 -35l79 -21q9 -3 68 -17q89 -22 89 -62q0 -56 -46.5 -127.5t-113.5 -120.5
q-107 -76 -265 -127.5t-287 -51.5q-200 0 -306.5 73.5t-106.5 211.5q0 182 127 361q25 35 38 35q3 0 8 -3l3 -2q5 -5 5 -12q0 -1 -2 -6l-3 -8q-2 -7 -7 -16l-11 -20l-14 -27q-55 -103 -55 -174q0 -200 360 -200q145 0 277.5 23.5t186.5 59.5l46 30q7 4 9 8z" />
    <glyph glyph-name="uni067C.init" unicode="&#x67c;" horiz-adv-x="455" 
d="M186 708q-77 67 -147 110q48 59 103 147q45 -51 101 -85q42 53 73 107q75 -71 139 -109q-47 -60 -91 -152q-60 55 -110 86q-34 -42 -68 -104zM113 -4q-27 0 -49.5 -21t-22.5 -46t22 -43t53 -18q32 0 62 16t30 33q0 26 -31.5 52.5t-63.5 26.5zM16 -2q-10 1 -18 2
q-58 0 -58 31v158q0 32 41 32h162q88 0 122 30q-15 40 -56 84l-37 40q-2 2 -9 10q29 77 96 167l8 11q96 -140 96 -290q0 -62 -29.5 -129t-76.5 -110q-10 -7 -25 -12q21 -48 21 -98q0 -52 -18 -116q-58 -51 -135 -51q-48 0 -77 33.5t-29 89.5q0 52 22 118z" />
    <glyph glyph-name="uni067C.medi" unicode="&#x67c;" horiz-adv-x="455" 
d="M178 538q-77 66 -147 110q48 58 103 147q45 -51 101 -85q42 53 73 106q75 -70 139 -108q-47 -60 -92 -152q-59 55 -109 86q-34 -42 -68 -104zM113 -4q-27 0 -49.5 -21t-22.5 -46t22 -43t53 -18q32 0 62 16t30 33q0 26 -31.5 52.5t-63.5 26.5zM16 -1h-1q-8 0 -16 1
q-58 4 -58 31v158q0 32 41 32h104q91 0 171 107q22 28 32 28q11 0 17 -21l12 -49q10 -38 26 -51.5t50 -13.5h77q44 0 44 -30v-163q0 -11 -21.5 -19.5t-47.5 -8.5q-129 0 -172 95q-13 30 -24 30t-28 -24q-10 -14 -21 -26q4 -4 7 -9q45 -68 45 -142q0 -52 -18 -116
q-58 -51 -135 -51q-48 0 -77 33.5t-29 89.5q0 52 22 119z" />
    <glyph glyph-name="uni067C.fina" unicode="&#x67c;" horiz-adv-x="1618" 
d="M739 540q-89 77 -163 122q63 82 111 164q71 -67 114 -94q35 40 82 117q60 -58 156 -119q-38 -49 -74 -122q-9 -16 -26 -50l-26 23q-55 50 -96 76q-43 -53 -78 -117zM773 -64q-27 0 -49.5 -21t-22.5 -46t22 -43t53 -18q32 0 62 16t30 33q0 26 -31.5 52.5t-63.5 26.5z
M677 -60q-295 1 -450 83q-157 82 -157 239q0 134 92 255q26 35 37 35q13 0 13 -13q0 -5 -6 -17l-6 -12l-7 -16q-24 -50 -24 -97q0 -241 613 -241q354 0 518 73q37 17 56 78q11 36 29 36q17 0 28 -34q19 -60 54 -74t168 -14h11q32 0 32 -30v-163q0 -9 -20.5 -19t-37.5 -9
q-28 -4 -81.5 4t-78.5 19q-61 29 -75 97q-160 -98 -280 -129q-103 -26 -209 -38q17 -44 17 -89q0 -52 -18 -116q-58 -51 -135 -51q-48 0 -77 33.5t-29 89.5q0 53 23 120z" />
    <glyph glyph-name="uni067D.init" unicode="&#x67d;" horiz-adv-x="455" 
d="M308 1219q77 -67 147 -110q-48 -59 -103 -147q-45 51 -101 85q-42 -53 -73 -107q-75 71 -139 109q47 60 91 152q60 -55 110 -86q34 42 68 104zM263 973l37 -29q52 -41 103 -71q-47 -67 -91 -165q-73 73 -140 113q53 81 91 152zM265 251q-15 40 -56 84l-37 40q-2 2 -9 10
q29 77 96 167l8 11q96 -140 96 -290q0 -62 -29.5 -129t-76.5 -110q-32 -22 -118 -28q-19 -2 -52 -5q-60 -5 -89 -1q-58 0 -58 31v158q0 32 41 32h162q88 0 122 30z" />
    <glyph glyph-name="uni067D.medi" unicode="&#x67d;" horiz-adv-x="455" 
d="M300 1049q77 -66 147 -110q-47 -58 -102 -147q-46 51 -101 85q-42 -53 -73 -106q-75 70 -139 108q46 60 91 152q59 -55 110 -86q34 42 67 104zM256 804l37 -30q52 -41 103 -71q-48 -67 -91 -165q-71 72 -140 114q52 79 91 152zM-59 31v158q0 32 41 32h104q91 0 172 107
q21 28 31 28q12 0 17 -21l13 -49q10 -38 25.5 -51.5t49.5 -13.5h77q44 0 44 -30v-163q0 -11 -21 -19.5t-47 -8.5q-129 0 -173 95q-13 30 -23 30q-12 0 -29 -24q-43 -58 -87 -80t-120 -22q-8 0 -15 1q-59 4 -59 31z" />
    <glyph glyph-name="uni067D.fina" unicode="&#x67d;" horiz-adv-x="1618" 
d="M855 1049q77 -67 147 -110q-47 -59 -103 -148q-45 51 -101 85q-41 -52 -72 -106q-76 70 -139 108q46 60 91 153q59 -56 110 -86q33 41 67 104zM810 803l38 -30q51 -41 103 -71q-48 -67 -91 -164q-72 72 -140 113q52 79 90 152zM1384 120q-159 -98 -280 -129
q-204 -51 -421 -51q-300 0 -456.5 82.5t-156.5 239.5q0 134 91 255q27 35 37 35q13 0 13 -13q0 -5 -6 -17q-1 -2 -5 -12l-8 -16q-23 -50 -23 -97q0 -241 612 -241q354 0 519 73q36 17 55 78q11 36 29 36t28 -34q20 -60 55 -74t167 -14h11q33 0 33 -30v-163q0 -9 -20.5 -19
t-38.5 -9q-27 -4 -81 4t-79 19q-60 29 -75 97z" />
    <glyph glyph-name="uni0681.init" unicode="&#x681;" horiz-adv-x="1171" 
d="M556 353q-142 83 -286 83q-73 0 -130 -20l-32 -11q-8 -3 -15 -3q-16 0 -16 16q0 22 48 98q76 121 182 121q50 0 123 -32l73 -33q151 -68 262 -95t242 -27l113 -1l-70 -192q-66 5 -105 5q-149 0 -302.5 -37.5t-266.5 -100.5l-72 -40q-86 -49 -150 -66.5t-152 -17.5
q-62 0 -62 31v158q0 32 41 32h116q79 4 177 38l91 31l89 32q54 20 102 31zM619 1092q-24 38 -58 38q-26 0 -52 -14.5t-26 -29.5q0 -19 34.5 -40t65.5 -21q76 0 211 58l-4 -13q-25 -105 -99 -128q-197 -60 -227 -150q-32 23 -32 44q0 33 38 95q-73 39 -73 92q0 67 72 140.5
t137 73.5q30 0 51 -19t21 -47q0 -44 -59 -79z" />
    <glyph glyph-name="uni0681.medi" unicode="&#x681;" horiz-adv-x="1252" 
d="M95 221q79 4 176 38l90 30l87 32q42 15 104 35q-159 80 -285 80q-73 0 -129 -20l-32 -11q-9 -3 -15 -3q-16 0 -16 16q0 22 48 98q76 121 181 121q59 0 148 -37l100 -42q206 -87 433 -87q62 0 147 6l31 3l-68 -202h-176q0 -57 58 -57h291q43 0 43 -30v-163
q0 -9 -19.5 -18.5t-38.5 -9.5h-285q-81 0 -130 39.5t-49 104.5q0 61 34 115l8 14l-23 -3q-223 -27 -434 -146l-72 -40q-86 -48 -150 -66t-151 -18q-60 0 -60 31v158q0 32 41 32h113zM617 1102q-24 38 -58 38q-26 0 -52 -14.5t-26 -29.5q0 -19 34.5 -40t65.5 -21q76 0 211 58
l-4 -13q-25 -105 -99 -128q-197 -60 -227 -150q-32 23 -32 44q0 33 38 95q-73 39 -73 92q0 67 72 140.5t137 73.5q30 0 51 -19t21 -47q0 -44 -59 -79z" />
    <glyph glyph-name="uni0681.fina" unicode="&#x681;" horiz-adv-x="1251" 
d="M517 321q-102 33 -202 33q-54 0 -86 -14.5t-65 -53.5q-16 -19 -28 -19q-14 0 -14 17q0 24 29 88.5t55 100.5q77 103 213 103q48 0 120 -15l78 -17q119 -26 326 -26l29 1l64 2l46 1q12 0 35 4l-88 -200q-15 0 -54 -5l-44 -6q-36 -5 -84 -13q5 -81 71 -81h349q44 0 44 -30
v-163q0 -9 -19.5 -18.5t-38.5 -9.5h-314q-88 0 -144 39t-56 100q0 62 39 151q-244 -56 -412 -214t-168 -331q0 -190 172.5 -301.5t465.5 -111.5q165 0 356 14l148 12q45 3 67 3q28 0 28 -10q0 -14 -77 -62.5t-158 -86.5q-232 -106 -416 -106q-708 0 -708 531q0 405 397 664
q15 10 44 30zM727 1102q-24 38 -58 38q-26 0 -52 -14.5t-26 -29.5q0 -19 34.5 -40t65.5 -21q76 0 211 58l-4 -13q-25 -105 -99 -128q-197 -60 -227 -150q-32 23 -32 44q0 33 38 95q-73 39 -73 92q0 67 72 140.5t137 73.5q30 0 51 -19t21 -47q0 -44 -59 -79z" />
    <glyph glyph-name="uni0682.init" unicode="&#x682;" horiz-adv-x="1171" 
d="M556 353q-142 83 -286 83q-73 0 -130 -20l-32 -11q-8 -3 -15 -3q-16 0 -16 16q0 22 48 98q76 121 182 121q50 0 123 -32l73 -33q151 -68 262 -95t242 -27l113 -1l-70 -192q-66 5 -105 5q-149 0 -302.5 -37.5t-266.5 -100.5l-72 -40q-86 -49 -150 -66.5t-152 -17.5
q-62 0 -62 31v158q0 32 41 32h116q79 4 177 38l91 31l89 32q54 20 102 31zM579 1022q-71 62 -142 98q52 62 115 160q67 -59 163 -115q-65 -74 -112 -159q60 -49 141 -96q-66 -75 -114 -162q-82 76 -164 117q51 61 113 157z" />
    <glyph glyph-name="uni0682.medi" unicode="&#x682;" horiz-adv-x="1252" 
d="M95 221q79 4 176 38l90 30l87 32q42 15 104 35q-159 80 -285 80q-73 0 -129 -20l-32 -11q-9 -3 -15 -3q-16 0 -16 16q0 22 48 98q76 121 181 121q59 0 148 -37l100 -42q206 -87 433 -87q62 0 147 6l31 3l-68 -202h-176q0 -57 58 -57h291q43 0 43 -30v-163
q0 -9 -19.5 -18.5t-38.5 -9.5h-285q-81 0 -130 39.5t-49 104.5q0 61 34 115l8 14l-23 -3q-223 -27 -434 -146l-72 -40q-86 -48 -150 -66t-151 -18q-60 0 -60 31v158q0 32 41 32h113zM544 1092q-71 62 -142 98q52 62 115 160q67 -59 163 -115q-65 -74 -112 -159
q60 -49 141 -96q-66 -75 -114 -162q-82 76 -164 117q51 61 113 157z" />
    <glyph glyph-name="uni0682.fina" unicode="&#x682;" horiz-adv-x="1251" 
d="M517 321q-102 33 -202 33q-54 0 -86 -14.5t-65 -53.5q-16 -19 -28 -19q-14 0 -14 17q0 24 29 88.5t55 100.5q77 103 213 103q48 0 120 -15l78 -17q119 -26 326 -26l29 1l64 2l46 1q12 0 35 4l-88 -200q-15 0 -54 -5l-44 -6q-36 -5 -84 -13q5 -81 71 -81h349q44 0 44 -30
v-163q0 -9 -19.5 -18.5t-38.5 -9.5h-314q-88 0 -144 39t-56 100q0 62 39 151q-244 -56 -412 -214t-168 -331q0 -190 172.5 -301.5t465.5 -111.5q165 0 356 14l148 12q45 3 67 3q28 0 28 -10q0 -14 -77 -62.5t-158 -86.5q-232 -106 -416 -106q-708 0 -708 531q0 405 397 664
q15 10 44 30zM681 1092q-71 62 -142 98q52 62 115 160q67 -59 163 -115q-65 -74 -112 -159q60 -49 141 -96q-66 -75 -114 -162q-82 76 -164 117q51 61 113 157z" />
    <glyph glyph-name="uni0685.init" unicode="&#x685;" horiz-adv-x="1171" 
d="M556 353q-142 83 -286 83q-73 0 -130 -20l-32 -11q-8 -3 -15 -3q-16 0 -16 16q0 22 48 98q76 121 182 121q50 0 123 -32l73 -33q151 -68 262 -95t242 -27l113 -1l-70 -192q-66 5 -105 5q-149 0 -302.5 -37.5t-266.5 -100.5l-72 -40q-86 -49 -150 -66.5t-152 -17.5
q-62 0 -62 31v158q0 32 41 32h116q79 4 177 38l91 31l89 32q54 20 102 31zM377 780q-77 67 -147 110q48 59 103 147q45 -51 101 -85q42 53 72 107q76 -71 140 -109q-47 -60 -92 -152q-59 55 -109 86q-34 -42 -68 -104zM422 1026l-37 29q-52 41 -103 71q47 67 90 165
q72 -72 140 -113q-52 -80 -90 -152z" />
    <glyph glyph-name="uni0685.medi" unicode="&#x685;" horiz-adv-x="1252" 
d="M95 221q79 4 176 38l90 30l87 32q42 15 104 35q-159 80 -285 80q-73 0 -129 -20l-32 -11q-9 -3 -15 -3q-16 0 -16 16q0 22 48 98q76 121 181 121q59 0 148 -37l100 -42q206 -87 433 -87q62 0 147 6l31 3l-68 -202h-176q0 -57 58 -57h291q43 0 43 -30v-163
q0 -9 -19.5 -18.5t-38.5 -9.5h-285q-81 0 -130 39.5t-49 104.5q0 61 34 115l8 14l-23 -3q-223 -27 -434 -146l-72 -40q-86 -48 -150 -66t-151 -18q-60 0 -60 31v158q0 32 41 32h113zM377 780q-77 67 -147 110q48 59 103 147q45 -51 101 -85q42 53 72 107q76 -71 140 -109
q-47 -60 -92 -152q-59 55 -109 86q-34 -42 -68 -104zM422 1026l-37 29q-52 41 -103 71q47 67 90 165q72 -72 140 -113q-52 -80 -90 -152z" />
    <glyph glyph-name="uni0685.fina" unicode="&#x685;" horiz-adv-x="1251" 
d="M517 321q-102 33 -202 33q-54 0 -86 -14.5t-65 -53.5q-16 -19 -28 -19q-14 0 -14 17q0 24 29 88.5t55 100.5q77 103 213 103q48 0 120 -15l78 -17q119 -26 326 -26l29 1l64 2l46 1q12 0 35 4l-88 -200q-15 0 -54 -5l-44 -6q-36 -5 -84 -13q5 -81 71 -81h349q44 0 44 -30
v-163q0 -9 -19.5 -18.5t-38.5 -9.5h-314q-88 0 -144 39t-56 100q0 62 39 151q-244 -56 -412 -214t-168 -331q0 -190 172.5 -301.5t465.5 -111.5q165 0 356 14l148 12q45 3 67 3q28 0 28 -10q0 -14 -77 -62.5t-158 -86.5q-232 -106 -416 -106q-708 0 -708 531q0 405 397 664
q15 10 44 30zM477 780q-77 67 -147 110q48 59 103 147q45 -51 101 -85q42 53 72 107q76 -71 140 -109q-47 -60 -92 -152q-59 55 -109 86q-34 -42 -68 -104zM522 1026l-37 29q-52 41 -103 71q47 67 90 165q72 -72 140 -113q-52 -80 -90 -152z" />
    <glyph glyph-name="uni0689.fina" unicode="&#x689;" horiz-adv-x="895" 
d="M333 16q-8 -1 -17 -2q-18 -4 -34 -19q-23 -21 -23 -46t22 -43t53 -18q32 0 62 16t30 33q0 26 -31 53q-31 25 -62 26zM233 15q-58 4 -106 19q-68 20 -74 47q4 78 29 158.5t46 80.5q6 0 10 -21q7 -41 52.5 -63t119.5 -22q150 0 207 38t57 138q0 33 -10 111l-10 75
q-7 54 -44 234l125 143l65 -482q33 -250 140 -250h71q43 0 43 -30v-163q0 -29 -78 -29q-97 0 -151.5 41.5t-74.5 130.5q-10 44 -27 44q-14 0 -34 -35q-54 -91 -141 -132q23 -51 23 -104q0 -52 -18 -116q-58 -51 -135 -51q-48 0 -77 33.5t-29 89.5q0 50 21 115z" />
    <glyph glyph-name="uni068A.fina" unicode="&#x68a;" horiz-adv-x="895" 
d="M510 810l124 143l65 -482q34 -250 140 -250h71q44 0 44 -30v-163q0 -29 -78 -29q-97 0 -151.5 41.5t-75.5 130.5q-10 44 -27 44q-14 0 -34 -35q-99 -167 -310 -167q-85 0 -152.5 20.5t-72.5 47.5q3 78 28.5 158.5t45.5 80.5q6 0 10 -21q8 -41 53 -63t119 -22
q151 0 207.5 38t56.5 138q0 33 -10 111l-10 75q-7 54 -43 234zM488 -321q-66 -75 -113 -162q-83 76 -165 118q52 62 116 160q66 -60 162 -116z" />
    <glyph glyph-name="uni068B.fina" unicode="&#x68b;" horiz-adv-x="895" 
d="M510 810l124 143l65 -482q34 -250 140 -250h71q44 0 44 -30v-163q0 -29 -78 -29q-97 0 -151.5 41.5t-75.5 130.5q-10 44 -27 44q-14 0 -34 -35q-99 -167 -310 -167q-85 0 -152.5 20.5t-72.5 47.5q3 78 28.5 158.5t45.5 80.5q6 0 10 -21q8 -41 53 -63t119 -22
q151 0 207.5 38t56.5 138q0 33 -10 111l-10 75q-7 54 -43 234zM504 1205l8 7q107 86 159 86q35 0 58.5 -25t23.5 -61q0 -71 -56 -111q-50 -36 -127.5 -55.5t-167.5 -19.5q-53 0 -89 38q-24 26 -24 42q0 10 16 10q1 0 13 1q11 1 36 1q46 0 71 11q21 10 28 29t7 64v8
q0 109 -41 272q34 18 52 59q16 -37 47 -70q-30 -25 -30 -60q0 -8 2 -20l7 -37q9 -45 9 -106q0 -4 -2 -41v-22zM706 1181q-31 34 -73 34q-65 0 -133 -71q-21 -21 -21 -27q0 -5 7 -5q50 0 115.5 20.5t104.5 48.5zM488 -321q-66 -75 -113 -162q-83 76 -165 118q52 62 116 160
q66 -60 162 -116z" />
    <glyph glyph-name="uni068F.fina" unicode="&#x68f;" horiz-adv-x="895" 
d="M510 810l124 143l65 -482q34 -250 140 -250h71q44 0 44 -30v-163q0 -29 -78 -29q-97 0 -151.5 41.5t-75.5 130.5q-10 44 -27 44q-14 0 -34 -35q-99 -167 -310 -167q-85 0 -152.5 20.5t-72.5 47.5q3 78 28.5 158.5t45.5 80.5q6 0 10 -21q8 -41 53 -63t119 -22
q151 0 207.5 38t56.5 138q0 33 -10 111l-10 75q-7 54 -43 234zM633.5 1241.5q35.5 -27.5 75.5 -47.5q-29 -37 -51 -78t-39 -84q-31 31 -66 60t-73 50q24 38 46.5 76t39.5 80q32 -29 67.5 -56.5zM683.5 1482q36.5 -29 78.5 -51q-31 -34 -55 -72.5t-49 -76.5q-17 28 -46 47.5
t-55 38.5q-21 -25 -39.5 -51.5t-33.5 -55.5q-32 32 -66.5 60.5t-75.5 48.5q31 34 52 74.5t41 80.5q24 -24 51.5 -47.5t58.5 -40.5q22 23 37 50t31 55q34 -31 70.5 -60z" />
    <glyph glyph-name="uni0690.fina" unicode="&#x690;" horiz-adv-x="895" 
d="M510 810l124 143l65 -482q34 -250 140 -250h71q44 0 44 -30v-163q0 -29 -78 -29q-97 0 -151.5 41.5t-75.5 130.5q-10 44 -27 44q-14 0 -34 -35q-99 -167 -310 -167q-85 0 -152.5 20.5t-72.5 47.5q3 78 28.5 158.5t45.5 80.5q6 0 10 -21q8 -41 53 -63t119 -22
q151 0 207.5 38t56.5 138q0 33 -10 111l-10 75q-7 54 -43 234zM444 1292q-77 67 -147 110q48 59 103 147q45 -51 101 -85q42 53 72 107q76 -71 140 -109q-47 -60 -92 -152q-59 55 -109 86q-34 -42 -68 -104zM490 1032q-77 67 -147 110q48 59 103 147q45 -51 101 -85
q42 53 72 107q76 -71 140 -109q-47 -60 -92 -152q-59 55 -109 86q-34 -42 -68 -104z" />
    <glyph glyph-name="uni0692.fina" unicode="&#x692;" horiz-adv-x="768" 
d="M584 12q-24 56 -118 134l100 177q31 -58 78 -80t140 -22q44 0 44 -30v-163q0 -9 -19.5 -18.5t-39.5 -9.5h-59q-32 0 -42 -39q-62 -249 -145 -350q-125 -151 -276 -151q-52 0 -145 44t-102 72v3q0 11 14 11h2q2 0 14 -2q16 -2 38 -2q77 0 179.5 47t177.5 116
q118 110 159 263zM639 827q-107 -156 -188 -303h-67q-85 154 -185 303l47 38q27 -21 171 -161q164 154 174 161z" />
    <glyph glyph-name="uni0693.fina" unicode="&#x693;" horiz-adv-x="768" 
d="M425 -499q-27 0 -49.5 -21t-22.5 -46t22 -43t53 -18q32 0 62 16t30 33q0 26 -31.5 52.5t-63.5 26.5zM318 -531q-35 -9 -71 -9q-52 0 -145 44t-102 72v3q0 11 14 11h2q2 0 14 -2q16 -2 38 -2q76 0 179 47t178 116q118 110 159 263q-25 56 -119 134l101 177
q30 -58 77.5 -80t140.5 -22q43 0 43 -30v-163q0 -9 -19.5 -18.5t-38.5 -9.5h-59q-32 0 -42 -39q-63 -249 -146 -350q-8 -10 -17 -20q8 -9 15 -20q45 -68 45 -142q0 -52 -18 -116q-58 -51 -135 -51q-48 0 -77 33.5t-29 89.5q0 38 12 84z" />
    <glyph glyph-name="uni0694.fina" unicode="&#x694;" horiz-adv-x="768" 
d="M584 12q-24 56 -118 134l100 177q31 -58 78 -80t140 -22q44 0 44 -30v-163q0 -9 -19.5 -18.5t-39.5 -9.5h-59q-32 0 -42 -39q-62 -249 -145 -350q-125 -151 -276 -151q-52 0 -145 44t-102 72v3q0 11 14 11h2q2 0 14 -2q16 -2 38 -2q77 0 179.5 47t177.5 116
q118 110 159 263zM650 -728q-66 -75 -113 -162q-83 76 -165 118q52 62 116 159q66 -59 162 -115z" />
    <glyph glyph-name="uni0695.fina" unicode="&#x695;" horiz-adv-x="768" 
d="M584 12q-24 56 -118 134l100 177q31 -58 78 -80t140 -22q44 0 44 -30v-163q0 -9 -19.5 -18.5t-39.5 -9.5h-59q-32 0 -42 -39q-62 -249 -145 -350q-125 -151 -276 -151q-52 0 -145 44t-102 72v3q0 11 14 11h2q2 0 14 -2q16 -2 38 -2q77 0 179.5 47t177.5 116
q118 110 159 263zM662 -712q-107 -156 -188 -303h-67q-85 154 -185 303l47 38q27 -21 171 -161q164 154 174 161z" />
    <glyph glyph-name="uni0696.fina" unicode="&#x696;" horiz-adv-x="768" 
d="M584 12q-24 56 -118 134l100 177q31 -58 78 -80t140 -22q44 0 44 -30v-163q0 -9 -19.5 -18.5t-39.5 -9.5h-59q-32 0 -42 -39q-62 -249 -145 -350q-125 -151 -276 -151q-52 0 -145 44t-102 72v3q0 11 14 11h2q2 0 14 -2q16 -2 38 -2q77 0 179.5 47t177.5 116
q118 110 159 263zM650 -728q-66 -75 -113 -162q-83 76 -165 118q52 62 116 159q66 -59 162 -115zM400 8q-66 -75 -113 -162q-83 76 -165 118q52 62 116 159q66 -59 162 -115z" />
    <glyph glyph-name="uni0697.fina" unicode="&#x697;" horiz-adv-x="768" 
d="M827 31q0 -6 -5.5 -11.5t-14.5 -10t-19.5 -7t-19.5 -2.5h-53q-12 0 -19.5 -3.5t-14.5 -17.5t-14.5 -42t-19.5 -78q-22 -92 -63.5 -166.5t-95.5 -127t-117.5 -81.5t-130.5 -29q-17 0 -41.5 7t-51 18t-53 24.5t-47.5 26.5t-34 24.5t-13 18.5q0 8 5 10t11 2q5 0 22.5 -2
t33.5 -2q17 0 55.5 7.5t88 26.5t105.5 50.5t107.5 79.5t94.5 113.5t67 152.5q-7 16 -20 34t-29.5 35.5t-35 34.5t-36.5 31l102 179q16 -32 38.5 -52.5t50 -32.5t59 -16t65.5 -2q16 0 29.5 -7.5t13.5 -22.5v-162zM300 605q-37 29 -79 50q31 34 55.5 73t49.5 77
q17 -28 45.5 -48t54.5 -38q22 25 40 51t34 55q32 -32 66.5 -60t74.5 -48q-31 -34 -51.5 -75l-40.5 -81q-25 25 -52.5 48t-58.5 40q-21 -23 -36.5 -49.5t-30.5 -54.5q-34 31 -71 60z" />
    <glyph glyph-name="uni0699.fina" unicode="&#x699;" horiz-adv-x="768" 
d="M827 31q0 -6 -5.5 -11.5t-14.5 -10t-19.5 -7t-19.5 -2.5h-53q-12 0 -19.5 -3.5t-14.5 -17.5t-14.5 -42t-19.5 -78q-22 -92 -63.5 -166.5t-95.5 -127t-117.5 -81.5t-130.5 -29q-17 0 -41.5 7t-51 18t-53 24.5t-47.5 26.5t-34 24.5t-13 18.5q0 8 5 10t11 2q5 0 22.5 -2
t33.5 -2q17 0 55.5 7.5t88 26.5t105.5 50.5t107.5 79.5t94.5 113.5t67 152.5q-7 16 -20 34t-29.5 35.5t-35 34.5t-36.5 31l102 179q16 -32 38.5 -52.5t50 -32.5t59 -16t65.5 -2q16 0 29.5 -7.5t13.5 -22.5v-162zM254 869q-37 29 -79 50q31 34 55.5 73t49.5 77
q17 -28 45.5 -48t54.5 -38q22 25 40 51t34 55q32 -32 66.5 -60t74.5 -48q-31 -34 -51.5 -75l-40.5 -81q-25 25 -52.5 48t-58.5 40q-21 -23 -36.5 -49.5t-30.5 -54.5q-34 31 -71 60zM300 605q-37 29 -79 50q31 34 55.5 73t49.5 77q17 -28 45.5 -48t54.5 -38q22 25 40 51
t34 55q32 -32 66.5 -60t74.5 -48q-31 -34 -51.5 -75l-40.5 -81q-25 25 -52.5 48t-58.5 40q-21 -23 -36.5 -49.5t-30.5 -54.5q-34 31 -71 60z" />
    <glyph glyph-name="uni069A.init" unicode="&#x69a;" horiz-adv-x="1147" 
d="M968 265q-15 53 -56 100q43 100 101 150q67 -68 67 -182q0 -130 -52.5 -202t-146.5 -72q-82 0 -175 79q-96 -139 -237 -139q-111 0 -186 111q-15 22 -25 22q-11 0 -49 -47q-70 -85 -209 -85q-60 0 -60 31v158q0 21 17.5 27.5t73.5 6.5q165 0 226 87q32 45 43 45t23 -39
q29 -95 145 -95q85 0 139.5 32t100.5 108q35 58 54 58q15 0 22 -21l9 -30q32 -103 167 -103h8zM867 806q-66 -75 -113 -162q-83 76 -165 118q52 62 116 159q66 -59 162 -115zM872 -327q-66 -75 -113 -162q-83 76 -165 118q52 62 116 159q66 -59 162 -115z" />
    <glyph glyph-name="uni069A.medi" unicode="&#x69a;" horiz-adv-x="1139" 
d="M-59 31v158q0 32 41 32l50 1q83 0 141.5 27.5t101.5 86.5q14 19 24 19q12 0 16 -21q14 -63 45.5 -88t98.5 -25q75 0 121 23t90 82q22 29 36 29q13 0 19 -21q22 -77 41.5 -101t61.5 -24q79 0 112 110q12 36 30 36q12 0 19 -18l11 -28q32 -88 155 -88q44 0 44 -30v-163
q0 -29 -71 -29q-85 0 -135 86q-15 26 -25 26q-11 0 -37 -38q-50 -74 -117 -74t-103 70l-19 37q-13 26 -27 26q-13 0 -38 -38q-63 -95 -166 -95q-98 0 -171 99q-25 33 -35 33q-12 0 -45 -43q-67 -88 -202 -88q-67 0 -67 31zM905 718q-66 -75 -113 -162q-83 76 -165 118
q52 62 116 159q66 -59 162 -115zM902 -327q-66 -75 -113 -162q-83 76 -165 118q52 62 116 159q66 -59 162 -115z" />
    <glyph glyph-name="uni069A.fina" unicode="&#x69a;" horiz-adv-x="1792" 
d="M980 13q0 -275 -153 -436.5t-413 -161.5q-156 0 -254.5 86.5t-98.5 222.5q0 95 49.5 216.5t88.5 121.5q15 0 15 -19q0 -10 -10 -32q-55 -121 -55 -191q0 -81 84.5 -132t218.5 -51q219 0 358 99q88 63 88 210q0 48 -19 114q-73 66 -100 134q44 99 109 160q39 -81 81 -107
t133 -26q85 0 132 22t93 83q22 29 36 29q13 0 19 -21q21 -77 41 -101t62 -24q79 0 112 110q11 36 29 36q13 0 20 -18l10 -28q33 -88 151 -88h11q33 0 33 -30v-163q0 -11 -21.5 -19.5t-47.5 -8.5q-82 0 -132 85q-15 26 -25 26q-11 0 -37 -38q-51 -74 -117 -74q-67 0 -103 70
l-19 37q-13 26 -27 26q-13 0 -38 -38q-63 -95 -175 -95q-42 0 -129 14zM1569 706q-66 -75 -113 -162q-83 76 -165 118q52 62 116 159q66 -59 162 -115zM1572 -327q-66 -75 -113 -162q-83 76 -165 118q52 62 116 159q66 -59 162 -115z" />
    <glyph glyph-name="uni069B.init" unicode="&#x69b;" horiz-adv-x="1147" 
d="M968 265q-15 53 -56 100q43 100 101 150q67 -68 67 -182q0 -130 -52.5 -202t-146.5 -72q-82 0 -175 79q-96 -139 -237 -139q-111 0 -186 111q-15 22 -25 22q-11 0 -49 -47q-70 -85 -209 -85q-60 0 -60 31v158q0 21 17.5 27.5t73.5 6.5q165 0 226 87q32 45 43 45t23 -39
q29 -95 145 -95q85 0 139.5 32t100.5 108q35 58 54 58q15 0 22 -21l9 -30q32 -103 167 -103h8zM813.5 -454q35.5 -28 75.5 -48q-29 -37 -51 -77.5t-39 -84.5q-31 31 -66 60t-73 51q24 37 46.5 75.5t39.5 80.5q32 -29 67.5 -57zM863.5 -214q36.5 -29 78.5 -50
q-31 -34 -55.5 -72.5t-48.5 -77.5q-17 28 -46 48t-55 38q-21 -24 -39.5 -50.5t-33.5 -55.5q-32 32 -66.5 60t-75.5 48q31 34 51.5 75l40.5 81q25 -25 52.5 -48t58.5 -40q22 23 37 50t31 54q34 -31 70.5 -60z" />
    <glyph glyph-name="uni069B.medi" unicode="&#x69b;" horiz-adv-x="1139" 
d="M-59 31v158q0 32 41 32l50 1q83 0 141.5 27.5t101.5 86.5q14 19 24 19q12 0 16 -21q14 -63 45.5 -88t98.5 -25q75 0 121 23t90 82q22 29 36 29q13 0 19 -21q22 -77 41.5 -101t61.5 -24q79 0 112 110q12 36 30 36q12 0 19 -18l11 -28q32 -88 155 -88q44 0 44 -30v-163
q0 -29 -71 -29q-85 0 -135 86q-15 26 -25 26q-11 0 -37 -38q-50 -74 -117 -74t-103 70l-19 37q-13 26 -27 26q-13 0 -38 -38q-63 -95 -166 -95q-98 0 -171 99q-25 33 -35 33q-12 0 -45 -43q-67 -88 -202 -88q-67 0 -67 31zM843.5 -454q35.5 -28 75.5 -48q-29 -37 -51 -77.5
t-39 -84.5q-31 31 -66 60t-73 51q24 37 46.5 75.5t39.5 80.5q32 -29 67.5 -57zM893.5 -214q36.5 -29 78.5 -50q-31 -34 -55.5 -72.5t-48.5 -77.5q-17 28 -46 48t-55 38q-21 -24 -39.5 -50.5t-33.5 -55.5q-32 32 -66.5 60t-75.5 48q31 34 51.5 75l40.5 81q25 -25 52.5 -48
t58.5 -40q22 23 37 50t31 54q34 -31 70.5 -60z" />
    <glyph glyph-name="uni069B.fina" unicode="&#x69b;" horiz-adv-x="1792" 
d="M980 13q0 -275 -153 -436.5t-413 -161.5q-156 0 -254.5 86.5t-98.5 222.5q0 95 49.5 216.5t88.5 121.5q15 0 15 -19q0 -10 -10 -32q-55 -121 -55 -191q0 -81 84.5 -132t218.5 -51q219 0 358 99q88 63 88 210q0 48 -19 114q-73 66 -100 134q44 99 109 160q39 -81 81 -107
t133 -26q85 0 132 22t93 83q22 29 36 29q13 0 19 -21q21 -77 41 -101t62 -24q79 0 112 110q11 36 29 36q13 0 20 -18l10 -28q33 -88 151 -88h11q33 0 33 -30v-163q0 -11 -21.5 -19.5t-47.5 -8.5q-82 0 -132 85q-15 26 -25 26q-11 0 -37 -38q-51 -74 -117 -74q-67 0 -103 70
l-19 37q-13 26 -27 26q-13 0 -38 -38q-63 -95 -175 -95q-42 0 -129 14zM1473.5 -454q35.5 -28 75.5 -48q-29 -37 -51 -77.5t-39 -84.5q-31 31 -66 60t-73 51q24 37 46.5 75.5t39.5 80.5q32 -29 67.5 -57zM1523.5 -214q36.5 -29 78.5 -50q-31 -34 -55.5 -72.5t-48.5 -77.5
q-17 28 -46 48t-55 38q-21 -24 -39.5 -50.5t-33.5 -55.5q-32 32 -66.5 60t-75.5 48q31 34 51.5 75l40.5 81q25 -25 52.5 -48t58.5 -40q22 23 37 50t31 54q34 -31 70.5 -60z" />
    <glyph glyph-name="uni069C.init" unicode="&#x69c;" horiz-adv-x="1147" 
d="M671 637q-77 66 -147 110q47 58 103 147q45 -51 101 -85q41 53 72 106q76 -70 139 -108q-46 -60 -91 -152q-59 55 -110 86q-33 -42 -67 -104zM716 882l-37 30q-52 41 -103 71q47 67 90 165q72 -72 140 -114q-52 -79 -90 -152zM968 265q-15 53 -56 100q43 100 101 150
q67 -68 67 -182q0 -130 -52.5 -202t-146.5 -72q-82 0 -175 79q-96 -139 -237 -139q-111 0 -186 111q-15 22 -25 22q-11 0 -49 -47q-70 -85 -209 -85q-60 0 -60 31v158q0 21 17.5 27.5t73.5 6.5q165 0 226 87q32 45 43 45t23 -39q29 -95 145 -95q85 0 139.5 32t100.5 108
q35 58 54 58q15 0 22 -21l9 -30q32 -103 167 -103h8zM813.5 -454q35.5 -28 75.5 -48q-29 -37 -51 -77.5t-39 -84.5q-31 31 -66 60t-73 51q24 37 46.5 75.5t39.5 80.5q32 -29 67.5 -57zM863.5 -214q36.5 -29 78.5 -50q-31 -34 -55.5 -72.5t-48.5 -77.5q-17 28 -46 48t-55 38
q-21 -24 -39.5 -50.5t-33.5 -55.5q-32 32 -66.5 60t-75.5 48q31 34 51.5 75l40.5 81q25 -25 52.5 -48t58.5 -40q22 23 37 50t31 54q34 -31 70.5 -60z" />
    <glyph glyph-name="uni069C.medi" unicode="&#x69c;" horiz-adv-x="1139" 
d="M710 540q-77 66 -147 110q47 58 103 147q45 -51 101 -85q41 53 72 106q76 -70 139 -108q-46 -60 -91 -152q-59 55 -110 86q-33 -42 -67 -104zM755 785l-38 30q-51 41 -103 71q48 67 91 165q71 -72 140 -114q-52 -79 -90 -152zM-59 31v158q0 32 41 32l50 1
q83 0 141.5 27.5t101.5 86.5q14 19 24 19q12 0 16 -21q14 -63 45.5 -88t98.5 -25q75 0 121 23t90 82q22 29 36 29q13 0 19 -21q22 -77 41.5 -101t61.5 -24q79 0 112 110q12 36 30 36q12 0 19 -18l11 -28q32 -88 155 -88q44 0 44 -30v-163q0 -29 -71 -29q-85 0 -135 86
q-15 26 -25 26q-11 0 -37 -38q-50 -74 -117 -74t-103 70l-19 37q-13 26 -27 26q-13 0 -38 -38q-63 -95 -166 -95q-98 0 -171 99q-25 33 -35 33q-12 0 -45 -43q-67 -88 -202 -88q-67 0 -67 31zM843.5 -454q35.5 -28 75.5 -48q-29 -37 -51 -77.5t-39 -84.5q-31 31 -66 60
t-73 51q24 37 46.5 75.5t39.5 80.5q32 -29 67.5 -57zM893.5 -214q36.5 -29 78.5 -50q-31 -34 -55.5 -72.5t-48.5 -77.5q-17 28 -46 48t-55 38q-21 -24 -39.5 -50.5t-33.5 -55.5q-32 32 -66.5 60t-75.5 48q31 34 51.5 75l40.5 81q25 -25 52.5 -48t58.5 -40q22 23 37 50t31 54
q34 -31 70.5 -60z" />
    <glyph glyph-name="uni069C.fina" unicode="&#x69c;" horiz-adv-x="1792" 
d="M1366 543q-77 67 -147 110q47 58 103 147q45 -51 100 -85q42 53 73 107q75 -71 139 -109q-46 -60 -91 -152q-59 55 -110 86q-34 -42 -67 -104zM1411 789l-38 29q-51 41 -103 71q48 67 91 165q71 -72 140 -114q-52 -79 -90 -151zM980 13q0 -275 -153 -436.5t-413 -161.5
q-156 0 -254.5 86.5t-98.5 222.5q0 95 49.5 216.5t88.5 121.5q15 0 15 -19q0 -10 -10 -32q-55 -121 -55 -191q0 -81 84.5 -132t218.5 -51q219 0 358 99q88 63 88 210q0 48 -19 114q-73 66 -100 134q44 99 109 160q39 -81 81 -107t133 -26q85 0 132 22t93 83q22 29 36 29
q13 0 19 -21q21 -77 41 -101t62 -24q79 0 112 110q11 36 29 36q13 0 20 -18l10 -28q33 -88 151 -88h11q33 0 33 -30v-163q0 -11 -21.5 -19.5t-47.5 -8.5q-82 0 -132 85q-15 26 -25 26q-11 0 -37 -38q-51 -74 -117 -74q-67 0 -103 70l-19 37q-13 26 -27 26q-13 0 -38 -38
q-63 -95 -175 -95q-42 0 -129 14zM1473.5 -454q35.5 -28 75.5 -48q-29 -37 -51 -77.5t-39 -84.5q-31 31 -66 60t-73 51q24 37 46.5 75.5t39.5 80.5q32 -29 67.5 -57zM1523.5 -214q36.5 -29 78.5 -50q-31 -34 -55.5 -72.5t-48.5 -77.5q-17 28 -46 48t-55 38
q-21 -24 -39.5 -50.5t-33.5 -55.5q-32 32 -66.5 60t-75.5 48q31 34 51.5 75l40.5 81q25 -25 52.5 -48t58.5 -40q22 23 37 50t31 54q34 -31 70.5 -60z" />
    <glyph glyph-name="uni069D.init" unicode="&#x69d;" horiz-adv-x="1473" 
d="M606 221q166 210 320 326t267 116q90 0 151 -61.5t61 -151.5q0 -188 -174 -295q-109 -68 -285.5 -111.5t-339.5 -43.5l-3 -6l-27 -57l-21 -42q-20 -41 -39 -41q-28 0 -28 39q0 47 29 107q-140 0 -206 78l-37 43q-9 11 -18 11q-10 0 -42 -43q-68 -89 -210 -89
q-63 0 -63 31v158q0 32 42 32l57 1q167 0 235 112q12 22 24 22t18 -21l13 -43q21 -71 126 -71h150zM726 212q157 0 320 50q85 27 163 65t78 54q0 24 -62.5 52t-116.5 28q-95 0 -200.5 -69t-181.5 -180zM1023.5 -214q36.5 -29 78.5 -50q-31 -34 -55.5 -72.5t-48.5 -77.5
q-17 28 -46 48t-55 38q-21 -24 -39.5 -50.5t-33.5 -55.5q-32 32 -66.5 60t-75.5 48q31 34 51.5 75l40.5 81q25 -25 52.5 -48t58.5 -40q22 23 37 50t31 54q34 -31 70.5 -60z" />
    <glyph glyph-name="uni069D.medi" unicode="&#x69d;" horiz-adv-x="1479" 
d="M722 212q158 0 320 50q86 27 163.5 65t77.5 54q0 24 -62 52t-117 28q-95 0 -200 -69t-182 -180zM513 0q-136 0 -202 78l-37 43q-9 11 -18 11q-10 0 -42 -43q-68 -89 -211 -89q-62 0 -62 31v158q0 32 41 32l58 1q167 0 234 112q13 22 24 22q13 0 19 -21l13 -43
q21 -71 126 -71h150q165 209 319 325.5t266 116.5q88 0 149.5 -61t61.5 -150q0 -54 -30 -129.5t-65 -108.5q-5 -4 -5 -7l1 -3q2 -1 4 -1q7 0 22 4q5 1 22 4l24 4l25 2l22 3q14 1 43 1h30q43 0 43 -30v-163q0 -29 -106 -29q-159 0 -419 22q-41 4 -54 4q-11 0 -72 -4l-91 -4
l-133 -13q-15 -2 -60 -4l-4 -6l-27 -57l-21 -42q-19 -41 -38 -41q-29 0 -29 39q0 47 29 107zM943.5 -214q36.5 -29 78.5 -50q-31 -34 -55.5 -72.5t-48.5 -77.5q-17 28 -46 48t-55 38q-21 -24 -39.5 -50.5t-33.5 -55.5q-32 32 -66.5 60t-75.5 48q31 34 51.5 75l40.5 81
q25 -25 52.5 -48t58.5 -40q22 23 37 50t31 54q34 -31 70.5 -60z" />
    <glyph glyph-name="uni069D.fina" unicode="&#x69d;" horiz-adv-x="2140" 
d="M1383 212q157 0 319 50q86 27 163.5 65t77.5 54q0 24 -62 52t-117 28q-94 0 -199.5 -69t-181.5 -180zM1263 0l-3 -6l-27 -57l-21 -42q-20 -41 -39 -41q-29 0 -29 39q0 47 29 107q-100 0 -171 9l-25 4q0 -274 -154.5 -437t-414.5 -163q-154 0 -250.5 88t-96.5 228
q0 90 49 212t85 122q17 0 17 -19q0 -8 -12 -34q-51 -112 -51 -181q0 -89 80 -141.5t215 -52.5q100 0 205.5 30.5t167.5 76.5q76 58 76 179q0 83 -14 139q-73 57 -104 136q41 83 110 159l9 -16q41 -74 81.5 -96t133.5 -22h157q165 209 319 325.5t266 116.5q88 0 149.5 -61
t61.5 -150q0 -54 -30 -129.5t-64 -108.5q-5 -4 -5 -7l1 -3q1 -1 3 -1q7 0 22 4q5 1 22 4l24 4l25 2l22 3q14 1 44 1h29q44 0 44 -30v-163q0 -29 -93 -29q-168 0 -433 22q-41 4 -54 4q-10 0 -71 -4l-92 -4l-133 -13q-15 -2 -60 -4zM1643.5 -214q36.5 -29 78.5 -50
q-31 -34 -55.5 -72.5t-48.5 -77.5q-17 28 -46 48t-55 38q-21 -24 -39.5 -50.5t-33.5 -55.5q-32 32 -66.5 60t-75.5 48q31 34 51.5 75l40.5 81q25 -25 52.5 -48t58.5 -40q22 23 37 50t31 54q34 -31 70.5 -60z" />
    <glyph glyph-name="uni069E.init" unicode="&#x69e;" horiz-adv-x="1473" 
d="M606 221q166 210 320 326t267 116q90 0 151 -61.5t61 -151.5q0 -188 -174 -295q-109 -68 -285.5 -111.5t-339.5 -43.5l-3 -6l-27 -57l-21 -42q-20 -41 -39 -41q-28 0 -28 39q0 47 29 107q-140 0 -206 78l-37 43q-9 11 -18 11q-10 0 -42 -43q-68 -89 -210 -89
q-63 0 -63 31v158q0 32 42 32l57 1q167 0 235 112q12 22 24 22t18 -21l13 -43q21 -71 126 -71h150zM726 212q157 0 320 50q85 27 163 65t78 54q0 24 -62.5 52t-116.5 28q-95 0 -200.5 -69t-181.5 -180zM886 846q-77 67 -147 110q47 59 103 148q45 -52 101 -85q41 52 72 106
q76 -71 139 -109q-46 -60 -91 -152q-59 55 -110 86q-33 -42 -67 -104zM931 1092l-38 29q-51 42 -103 72q48 66 91 164q72 -72 140 -113q-52 -79 -90 -152z" />
    <glyph glyph-name="uni069E.medi" unicode="&#x69e;" horiz-adv-x="1479" 
d="M722 212q157 0 320 50q86 27 163.5 65t77.5 54q0 24 -62.5 52t-116.5 28q-95 0 -200.5 -69t-181.5 -180zM513 0q-136 0 -203 78l-36 43q-10 11 -18 11q-10 0 -43 -43q-68 -89 -210 -89q-62 0 -62 31v158q0 32 41 32l58 1q167 0 234 112q13 22 24 22q12 0 18 -21l13 -43
q22 -71 127 -71h149q165 209 319.5 325.5t265.5 116.5q89 0 150 -61t61 -150q0 -54 -30 -129.5t-64 -108.5q-5 -4 -5 -7l1 -3q1 -1 4 -1q7 0 22 4q4 1 22 4l23 4l26 2l22 3q14 1 43 1h29q44 0 44 -30v-163q0 -29 -107 -29q-159 0 -418 22q-41 4 -55 4q-10 0 -71 -4l-91 -4
l-133 -13q-16 -2 -61 -4l-3 -6l-27 -57l-21 -42q-19 -41 -39 -41q-28 0 -28 39q0 47 29 107zM878 750q-77 67 -147 110q47 59 103 148q45 -52 101 -85q41 52 72 106q76 -71 139 -109q-46 -60 -91 -152q-59 55 -110 86q-33 -42 -67 -104zM923 996l-38 29q-51 42 -103 72
q48 66 91 164q72 -72 140 -113q-52 -79 -90 -152z" />
    <glyph glyph-name="uni069E.fina" unicode="&#x69e;" horiz-adv-x="2140" 
d="M1383 212q158 0 320 50q86 27 163.5 65t77.5 54q0 24 -62 52t-117 28q-95 0 -200 -69t-182 -180zM1264 0l-4 -6l-27 -57l-21 -42q-19 -41 -38 -41q-29 0 -29 39q0 47 29 107q-101 0 -171 9l-25 4q0 -274 -154.5 -437t-414.5 -163q-155 0 -251.5 88t-96.5 228
q0 90 49.5 212t85.5 122q17 0 17 -19q0 -8 -12 -34q-52 -112 -52 -181q0 -89 80.5 -141.5t215.5 -52.5q99 0 205 30.5t168 76.5q76 58 76 179q0 83 -15 139q-72 57 -103 136q41 83 109 159l9 -16q41 -74 81.5 -96t134.5 -22h157q164 209 318.5 325.5t266.5 116.5
q88 0 149.5 -61t61.5 -150q0 -54 -30 -129.5t-65 -108.5q-5 -4 -5 -7l1 -3q2 -1 4 -1q7 0 22 4q4 1 22 4l23 4l26 2l22 3q14 1 43 1h30q43 0 43 -30v-163q0 -29 -92 -29q-168 0 -433 22q-42 4 -55 4q-10 0 -71 -4l-91 -4l-133 -13q-15 -2 -60 -4zM1540 750q-77 67 -147 110
q47 59 103 148q45 -52 101 -85q41 52 72 106q76 -71 139 -109q-46 -60 -91 -152q-59 55 -110 86q-33 -42 -67 -104zM1585 996l-38 29q-51 42 -103 72q48 66 91 164q72 -72 140 -113q-52 -79 -90 -152z" />
    <glyph glyph-name="uni069F.init" unicode="&#x69f;" horiz-adv-x="1018" 
d="M343 436l22 17q259 208 387 208q82 0 140.5 -60.5t58.5 -144.5q0 -189 -157 -291q-95 -62 -275 -114t-302 -52l-218 1q-58 0 -58 31v158q0 32 41 32l65 2q84 0 137 48q54 48 54 205v18q0 267 -99 663q80 44 125 145q39 -92 115 -170q-72 -63 -72 -146q0 -21 5 -50l17 -89
q21 -110 21 -258q0 -11 -4 -101q-3 -42 -3 -52zM834 377q-74 82 -175 82q-158 0 -324 -171q-50 -51 -50 -67q0 -11 17 -11q120 0 279 50t253 117zM583 816q-77 67 -147 110q47 59 103 148q45 -52 101 -85q41 52 72 106q76 -71 139 -109q-46 -60 -91 -152q-59 55 -110 86
q-33 -42 -67 -104zM628 1062l-38 29q-51 42 -103 72q48 66 91 164q72 -72 140 -113q-52 -79 -90 -152z" />
    <glyph glyph-name="uni069F.medi" unicode="&#x69f;" 
d="M832 377q-74 82 -176 82q-158 0 -324 -171q-50 -51 -50 -67q0 -11 17 -11q120 0 279.5 50t253.5 117zM865 221h175q44 0 44 -30v-163q0 -29 -94 -29q-110 0 -347 16q-130 9 -179 9q-64 0 -102 -3l-138 -13q-79 -8 -189 -8q-94 0 -94 31v158q0 32 42 32l61 2q85 0 137 48
q54 48 54 205v24q0 261 -99 657q81 44 126 145q38 -92 114 -170q-72 -63 -72 -146q0 -21 6 -50l16 -89q21 -110 21 -258q0 -11 -4 -101q-2 -42 -2 -52l21 17q259 208 388 208q81 0 139.5 -60.5t58.5 -144.5q0 -113 -83 -235zM583 816q-77 67 -147 110q47 59 103 148
q45 -52 101 -85q41 52 72 106q76 -71 139 -109q-46 -60 -91 -152q-59 55 -110 86q-33 -42 -67 -104zM628 1062l-38 29q-51 42 -103 72q48 66 91 164q72 -72 140 -113q-52 -79 -90 -152z" />
    <glyph glyph-name="uni069F.fina" unicode="&#x69f;" horiz-adv-x="1270" 
d="M378 1157q81 44 126 145q38 -92 114 -170q-72 -63 -72 -146q0 -21 6 -50l16 -89q21 -110 21 -258q0 -11 -4 -101q-2 -42 -2 -52l21 17q259 208 387 208q82 0 140.5 -60.5t58.5 -144.5q0 -113 -83 -235h179q44 0 44 -30v-163q0 -29 -96 -29q-112 0 -349 16q-130 9 -179 9
q-64 0 -102 -3l-138 -13q-79 -8 -138 -8q-115 0 -201 92q-59 63 -59 102q0 24 40 24l30 3l88 2q105 0 165 28q51 23 68.5 70t17.5 155v26q0 259 -99 655zM1074 377q-74 82 -176 82q-158 0 -324 -171q-50 -51 -50 -67q0 -11 17 -11q120 0 279.5 50t253.5 117zM823 816
q-77 67 -147 110q47 59 103 148q45 -52 101 -85q41 52 72 106q76 -71 139 -109q-46 -60 -91 -152q-59 55 -110 86q-33 -42 -67 -104zM868 1062l-38 29q-51 42 -103 72q48 66 91 164q72 -72 140 -113q-52 -79 -90 -152z" />
    <glyph glyph-name="uni06A0.init" unicode="&#x6a0;" horiz-adv-x="909" 
d="M344.5 1156.5q-35.5 27.5 -76.5 47.5q29 37 51 78t39 84q31 -31 66 -60t74 -51q-25 -37 -47 -75t-39 -80q-32 29 -67.5 56.5zM293.5 914q-36.5 29 -78.5 51q31 34 55.5 72.5t48.5 76.5q17 -28 46 -47.5t55 -38.5q42 48 74 107q32 -32 66.5 -60.5t74.5 -48.5
q-31 -34 -51.5 -74.5t-40.5 -81.5q-25 25 -52.5 48t-58.5 40q-22 -23 -37 -49.5t-30 -54.5q-35 31 -71.5 60zM-59 193q0 15 13.5 22.5t29.5 7.5q37 0 73 1t68.5 3.5t59 6.5t44.5 10q-37 26 -60.5 62.5t-23.5 88.5q0 31 14.5 69.5t39 79t58 79t71.5 68.5t79.5 48.5t81.5 18.5
q36 0 68.5 -12t60.5 -30.5t50 -40.5t38 -42.5t24.5 -36t8.5 -21.5q0 -14 -11.5 -21t-39.5 5q-38 17 -69.5 22t-63.5 5q-41 0 -85.5 -9.5t-82 -23t-62 -29t-24.5 -26.5q0 -18 14.5 -43.5t41 -49t62.5 -39.5t79 -16q17 0 59 17t93.5 41t103.5 50l88 44q-2 -59 -7 -113
t-16 -100l-364 -170q-77 -36 -138.5 -59t-114.5 -36.5t-102 -18.5t-100 -5q-9 0 -19.5 2.5t-19.5 7t-14.5 10t-5.5 11.5v162z" />
    <glyph glyph-name="uni06A0.medi" unicode="&#x6a0;" horiz-adv-x="797" 
d="M-59 193q0 15 13.5 22.5t29.5 7.5q60 0 108.5 2t86.5 8t66.5 17.5t47.5 30.5q-28 23 -63.5 36.5t-77.5 22.5q6 50 31 93.5t62.5 76t84.5 51.5t98 19q33 0 72.5 -9t73 -28t56.5 -48t23 -69q0 -23 -11 -42t-28 -34.5t-37.5 -27t-39.5 -19.5q17 -21 36.5 -36t49.5 -24.5
t75.5 -14.5t114.5 -5q16 0 29.5 -7.5t13.5 -22.5v-162q0 -6 -6 -11.5t-14.5 -10t-19 -7t-19.5 -2.5h-60q-27 0 -52.5 7.5t-49.5 20.5t-46.5 29t-43.5 33q-20 16 -38 32t-34 28.5t-29.5 20t-25.5 7.5q-14 0 -36 -13t-50.5 -33t-62 -43t-70.5 -43t-76.5 -33t-79.5 -13h-43
q-9 0 -19.5 2.5t-19.5 7t-14.5 10t-5.5 11.5v162zM303.5 1046q-35.5 28 -76.5 48q29 37 51 77.5t39 83.5q31 -31 66.5 -59.5t73.5 -50.5q-25 -37 -47 -75.5t-39 -80.5q-32 29 -67.5 57zM253 803q-37 29 -79 51q31 34 55.5 72.5t49.5 77.5q17 -28 45.5 -48t54.5 -38
q42 46 74 106q32 -32 66.5 -60.5t74.5 -48.5q-31 -34 -51.5 -74.5t-40.5 -80.5q-25 25 -52.5 48t-58.5 40q-22 -23 -37 -50t-30 -55q-34 31 -71 60z" />
    <glyph glyph-name="uni06A0.fina" unicode="&#x6a0;" horiz-adv-x="967" 
d="M1026 31q0 -6 -6 -11.5t-14.5 -10t-19 -7t-19.5 -2.5h-166q-55 0 -97 15.5t-73 40.5t-52.5 55.5t-35.5 60.5q-69 -29 -131 -81.5t-109.5 -120.5t-75.5 -147.5t-28 -162.5q0 -100 61 -171t168 -116.5t252.5 -66.5t314.5 -21q39 0 76 1.5t69 3.5t56.5 5.5t38.5 6.5
q47 11 47 -31q0 -9 -22.5 -28t-61.5 -42.5t-90.5 -48t-110 -44.5t-120 -33t-119.5 -13q-79 0 -160.5 12t-157.5 39t-142.5 69.5t-115.5 103.5t-77.5 141.5t-28.5 183.5q0 89 24 172.5t68 162.5t106.5 153.5t139.5 144.5q-34 29 -76 45t-88 18q11 64 39.5 113t67.5 81.5
t83.5 49t87.5 16.5q42 0 86 -13t79.5 -35.5t58 -53t22.5 -64.5q0 -24 -11 -42.5t-27.5 -33.5t-36 -27.5t-37.5 -23.5q7 -11 18 -20.5t30 -16.5t49 -10.5t75 -3.5h149q16 0 29.5 -7.5t13.5 -22.5v-162zM424 1033.5q-36 27.5 -76 47.5q29 37 51 78t39 84q31 -31 66 -60t74 -50
q-25 -38 -47 -76t-39 -80q-32 29 -68 56.5zM373.5 791q-36.5 29 -78.5 51q31 34 55.5 72.5t48.5 76.5q17 -28 46 -47.5t55 -38.5q21 25 39.5 51.5t33.5 55.5q32 -32 67 -60.5t75 -48.5q-31 -34 -51.5 -74.5t-40.5 -80.5q-25 24 -52.5 47.5t-58.5 40.5q-22 -23 -37 -50
t-31 -55q-34 31 -70.5 60z" />
    <glyph glyph-name="uni06A1.init" unicode="&#x6a1;" horiz-adv-x="566" 
d="M196 507q21 -9 43 -9q19 0 36.5 13t17.5 28q0 13 -19 33t-31 20q-13 0 -26.5 -25.5t-20.5 -59.5zM416 323q1 7 1 11q0 29 -13 57t-27 28t-27 -21q-38 -61 -124 -61q-118 0 -118 100q0 104 58.5 226t108.5 122q67 0 149 -159q68 -130 68 -246q0 -208 -107 -285
q-131 -95 -386 -95q-59 0 -59 31v158q0 32 41 32h145q175 0 290 102z" />
    <glyph glyph-name="uni06A1.medi" unicode="&#x6a1;" horiz-adv-x="682" 
d="M383 285q57 0 100.5 32.5t43.5 74.5q0 45 -36 80.5t-80 35.5q-45 0 -99 -41.5t-54 -76.5t41.5 -70t83.5 -35zM741 191v-163q0 -9 -19.5 -18.5t-38.5 -9.5h-72q-109 0 -237 73q-32 19 -52 19q-24 0 -68 -23q-132 -69 -256 -69q-57 0 -57 31v158q0 32 42 32h95q19 0 30 1
l28 2q48 4 48 25q0 3 -1 7l-5 17q-6 18 -6 34q0 101 123 248.5t207 147.5q45 0 79.5 -63.5t34.5 -146.5q0 -113 -86 -237q-7 -10 -7 -16q0 -19 55 -19h120q43 0 43 -30z" />
    <glyph glyph-name="uni06A1.fina" unicode="&#x6a1;" horiz-adv-x="1710" 
d="M1409 283q50 -3 96 31.5t46 76.5q0 44 -35.5 80t-80.5 36t-98.5 -41.5t-53.5 -76.5q0 -30 43.5 -67t82.5 -39zM1603 220h124q43 0 43 -30v-163q0 -10 -19.5 -19t-38.5 -9h-76q-106 0 -237 73q-34 19 -49 19t-96 -45q-189 -105 -584 -105q-283 0 -441.5 82t-158.5 229
q0 126 76 244q36 56 52 56q14 0 14 -14q0 -6 -10 -26q-32 -63 -32 -116q0 -241 618 -241q149 0 285 30.5t136 63.5q0 2 -1 5l-6 18q-5 18 -5 34q0 101 123 248.5t207 147.5q44 0 78.5 -64t34.5 -146q0 -113 -85 -237q-7 -10 -7 -17q0 -18 55 -18z" />
    <glyph glyph-name="uni06A2.init" unicode="&#x6a2;" horiz-adv-x="566" 
d="M196 507q21 -9 43 -9q19 0 36.5 13t17.5 28q0 13 -19 33t-31 20q-13 0 -26.5 -25.5t-20.5 -59.5zM416 323q1 7 1 11q0 29 -13 57t-27 28t-27 -21q-38 -61 -124 -61q-118 0 -118 100q0 104 58.5 226t108.5 122q67 0 149 -159q68 -130 68 -246q0 -208 -107 -285
q-131 -95 -386 -95q-59 0 -59 31v158q0 32 41 32h145q175 0 290 102zM392 -327q-66 -75 -113 -162q-83 76 -165 118q52 62 116 159q66 -59 162 -115z" />
    <glyph glyph-name="uni06A2.medi" unicode="&#x6a2;" horiz-adv-x="682" 
d="M383 285q57 0 100.5 32.5t43.5 74.5q0 45 -36 80.5t-80 35.5q-45 0 -99 -41.5t-54 -76.5t41.5 -70t83.5 -35zM741 191v-163q0 -9 -19.5 -18.5t-38.5 -9.5h-72q-109 0 -237 73q-32 19 -52 19q-24 0 -68 -23q-132 -69 -256 -69q-57 0 -57 31v158q0 32 42 32h95q19 0 30 1
l28 2q48 4 48 25q0 3 -1 7l-5 17q-6 18 -6 34q0 101 123 248.5t207 147.5q45 0 79.5 -63.5t34.5 -146.5q0 -113 -86 -237q-7 -10 -7 -16q0 -19 55 -19h120q43 0 43 -30zM502 -327q-66 -75 -113 -162q-83 76 -165 118q52 62 116 159q66 -59 162 -115z" />
    <glyph glyph-name="uni06A2.fina" unicode="&#x6a2;" horiz-adv-x="1710" 
d="M1409 283q50 -3 96 31.5t46 76.5q0 44 -35.5 80t-80.5 36t-98.5 -41.5t-53.5 -76.5q0 -30 43.5 -67t82.5 -39zM1603 220h124q43 0 43 -30v-163q0 -10 -19.5 -19t-38.5 -9h-76q-106 0 -237 73q-34 19 -49 19t-96 -45q-189 -105 -584 -105q-283 0 -441.5 82t-158.5 229
q0 126 76 244q36 56 52 56q14 0 14 -14q0 -6 -10 -26q-32 -63 -32 -116q0 -241 618 -241q149 0 285 30.5t136 63.5q0 2 -1 5l-6 18q-5 18 -5 34q0 101 123 248.5t207 147.5q44 0 78.5 -64t34.5 -146q0 -113 -85 -237q-7 -10 -7 -17q0 -18 55 -18zM1502 -327
q-66 -75 -113 -162q-83 76 -165 118q52 62 116 159q66 -59 162 -115z" />
    <glyph glyph-name="uni06A3.init" unicode="&#x6a3;" horiz-adv-x="566" 
d="M196 507q21 -9 43 -9q19 0 36.5 13t17.5 28q0 13 -19 33t-31 20q-13 0 -26.5 -25.5t-20.5 -59.5zM416 323q1 7 1 11q0 29 -13 57t-27 28t-27 -21q-38 -61 -124 -61q-118 0 -118 100q0 104 58.5 226t108.5 122q67 0 149 -159q68 -130 68 -246q0 -208 -107 -285
q-131 -95 -386 -95q-59 0 -59 31v158q0 32 41 32h145q175 0 290 102zM366 1079q-66 -75 -113 -161q-83 76 -165 117q52 62 116 160q66 -60 162 -116zM372 -327q-66 -75 -113 -162q-83 76 -165 118q52 62 116 159q66 -59 162 -115z" />
    <glyph glyph-name="uni06A3.medi" unicode="&#x6a3;" horiz-adv-x="682" 
d="M383 285q57 0 100.5 32.5t43.5 74.5q0 45 -36 80.5t-80 35.5q-45 0 -99 -41.5t-54 -76.5t41.5 -70t83.5 -35zM741 191v-163q0 -9 -19.5 -18.5t-38.5 -9.5h-72q-109 0 -237 73q-32 19 -52 19q-24 0 -68 -23q-132 -69 -256 -69q-57 0 -57 31v158q0 32 42 32h95q19 0 30 1
l28 2q48 4 48 25q0 3 -1 7l-5 17q-6 18 -6 34q0 101 123 248.5t207 147.5q45 0 79.5 -63.5t34.5 -146.5q0 -113 -86 -237q-7 -10 -7 -16q0 -19 55 -19h120q43 0 43 -30zM572 1057q-67 -75 -114 -162q-82 76 -165 117q53 62 116 160q67 -59 163 -115zM492 -327
q-66 -75 -113 -162q-83 76 -165 118q52 62 116 159q66 -59 162 -115z" />
    <glyph glyph-name="uni06A3.fina" unicode="&#x6a3;" horiz-adv-x="1710" 
d="M1409 283q50 -3 96 31.5t46 76.5q0 44 -35.5 80t-80.5 36t-98.5 -41.5t-53.5 -76.5q0 -30 43.5 -67t82.5 -39zM1603 220h124q43 0 43 -30v-163q0 -10 -19.5 -19t-38.5 -9h-76q-106 0 -237 73q-34 19 -49 19t-96 -45q-189 -105 -584 -105q-283 0 -441.5 82t-158.5 229
q0 126 76 244q36 56 52 56q14 0 14 -14q0 -6 -10 -26q-32 -63 -32 -116q0 -241 618 -241q149 0 285 30.5t136 63.5q0 2 -1 5l-6 18q-5 18 -5 34q0 101 123 248.5t207 147.5q44 0 78.5 -64t34.5 -146q0 -113 -85 -237q-7 -10 -7 -17q0 -18 55 -18zM1596 1056
q-66 -75 -113 -162q-83 76 -165 117q52 62 116 160q66 -60 162 -115zM942 -327q-66 -75 -113 -162q-83 76 -165 118q52 62 116 159q66 -59 162 -115z" />
    <glyph glyph-name="uni06A5.init" unicode="&#x6a5;" horiz-adv-x="566" 
d="M196 507q21 -9 43 -9q19 0 36.5 13t17.5 28q0 13 -19 33t-31 20q-13 0 -26.5 -25.5t-20.5 -59.5zM416 323q1 7 1 11q0 29 -13 57t-27 28t-27 -21q-38 -61 -124 -61q-118 0 -118 100q0 104 58.5 226t108.5 122q67 0 149 -159q68 -130 68 -246q0 -208 -107 -285
q-131 -95 -386 -95q-59 0 -59 31v158q0 32 41 32h145q175 0 290 102zM339.5 -500q35.5 -28 75.5 -48q-29 -37 -51 -77.5t-39 -84.5q-31 31 -66 60t-73 51q24 37 46.5 75.5t39.5 80.5q32 -29 67.5 -57zM389.5 -260q36.5 -29 78.5 -50q-31 -34 -55.5 -72.5t-48.5 -77.5
q-17 28 -46 48t-55 38q-21 -24 -39.5 -50.5t-33.5 -55.5q-32 32 -66.5 60t-75.5 48q31 34 51.5 75l40.5 81q25 -25 52.5 -48t58.5 -40q22 23 37 50t31 54q34 -31 70.5 -60z" />
    <glyph glyph-name="uni06A5.medi" unicode="&#x6a5;" horiz-adv-x="682" 
d="M383 285q57 0 100.5 32.5t43.5 74.5q0 45 -36 80.5t-80 35.5q-45 0 -99 -41.5t-54 -76.5t41.5 -70t83.5 -35zM741 191v-163q0 -9 -19.5 -18.5t-38.5 -9.5h-72q-109 0 -237 73q-32 19 -52 19q-24 0 -68 -23q-132 -69 -256 -69q-57 0 -57 31v158q0 32 42 32h95q19 0 30 1
l28 2q48 4 48 25q0 3 -1 7l-5 17q-6 18 -6 34q0 101 123 248.5t207 147.5q45 0 79.5 -63.5t34.5 -146.5q0 -113 -86 -237q-7 -10 -7 -16q0 -19 55 -19h120q43 0 43 -30zM439.5 -500q35.5 -28 75.5 -48q-29 -37 -51 -77.5t-39 -84.5q-31 31 -66 60t-73 51q24 37 46.5 75.5
t39.5 80.5q32 -29 67.5 -57zM489.5 -260q36.5 -29 78.5 -50q-31 -34 -55.5 -72.5t-48.5 -77.5q-17 28 -46 48t-55 38q-21 -24 -39.5 -50.5t-33.5 -55.5q-32 32 -66.5 60t-75.5 48q31 34 51.5 75l40.5 81q25 -25 52.5 -48t58.5 -40q22 23 37 50t31 54q34 -31 70.5 -60z" />
    <glyph glyph-name="uni06A5.fina" unicode="&#x6a5;" horiz-adv-x="1710" 
d="M1409 283q50 -3 96 31.5t46 76.5q0 44 -35.5 80t-80.5 36t-98.5 -41.5t-53.5 -76.5q0 -30 43.5 -67t82.5 -39zM1603 220h124q43 0 43 -30v-163q0 -10 -19.5 -19t-38.5 -9h-76q-106 0 -237 73q-34 19 -49 19t-96 -45q-189 -105 -584 -105q-283 0 -441.5 82t-158.5 229
q0 126 76 244q36 56 52 56q14 0 14 -14q0 -6 -10 -26q-32 -63 -32 -116q0 -241 618 -241q149 0 285 30.5t136 63.5q0 2 -1 5l-6 18q-5 18 -5 34q0 101 123 248.5t207 147.5q44 0 78.5 -64t34.5 -146q0 -113 -85 -237q-7 -10 -7 -17q0 -18 55 -18zM1439.5 -500
q35.5 -28 75.5 -48q-29 -37 -51 -77.5t-39 -84.5q-31 31 -66 60t-73 51q24 37 46.5 75.5t39.5 80.5q32 -29 67.5 -57zM1489.5 -260q36.5 -29 78.5 -50q-31 -34 -55.5 -72.5t-48.5 -77.5q-17 28 -46 48t-55 38q-21 -24 -39.5 -50.5t-33.5 -55.5q-32 32 -66.5 60t-75.5 48
q31 34 51.5 75l40.5 81q25 -25 52.5 -48t58.5 -40q22 23 37 50t31 54q34 -31 70.5 -60z" />
    <glyph glyph-name="uni06A7.init" unicode="&#x6a7;" horiz-adv-x="566" 
d="M196 507q21 -9 43 -9q19 0 36.5 13t17.5 28q0 13 -19 33t-31 20q-13 0 -26.5 -25.5t-20.5 -59.5zM416 323q1 7 1 11q0 29 -13 57t-27 28t-27 -21q-38 -61 -124 -61q-118 0 -118 100q0 104 58.5 226t108.5 122q67 0 149 -159q68 -130 68 -246q0 -208 -107 -285
q-131 -95 -386 -95q-59 0 -59 31v158q0 32 41 32h145q175 0 290 102zM366 1079q-66 -75 -113 -161q-83 76 -165 117q52 62 116 160q66 -60 162 -116z" />
    <glyph glyph-name="uni06A7.medi" unicode="&#x6a7;" horiz-adv-x="682" 
d="M383 285q57 0 100.5 32.5t43.5 74.5q0 45 -36 80.5t-80 35.5q-45 0 -99 -41.5t-54 -76.5t41.5 -70t83.5 -35zM741 191v-163q0 -9 -19.5 -18.5t-38.5 -9.5h-72q-109 0 -237 73q-32 19 -52 19q-24 0 -68 -23q-132 -69 -256 -69q-57 0 -57 31v158q0 32 42 32h95q19 0 30 1
l28 2q48 4 48 25q0 3 -1 7l-5 17q-6 18 -6 34q0 101 123 248.5t207 147.5q45 0 79.5 -63.5t34.5 -146.5q0 -113 -86 -237q-7 -10 -7 -16q0 -19 55 -19h120q43 0 43 -30zM572 1057q-67 -75 -114 -162q-82 76 -165 117q53 62 116 160q67 -59 163 -115z" />
    <glyph glyph-name="uni06A7.fina" unicode="&#x6a7;" horiz-adv-x="1106" 
d="M913 203q-33 101 -92 101t-59 -53q0 -50 114 -50q14 0 37 2zM919 0h-17q-118 0 -173.5 38t-55.5 119q0 90 70 196.5t130 106.5q84 0 144 -239h105q44 0 44 -30v-163q0 -9 -19.5 -18.5t-39.5 -9.5h-113q-21 -177 -179 -301q-86 -67 -200.5 -111.5t-201.5 -44.5
q-142 0 -243.5 97t-101.5 232q0 70 36.5 158t92.5 154l18 21q11 13 19 13q15 0 15 -14q0 -9 -14 -33l-11 -19q-67 -118 -67 -207q0 -85 84 -137.5t219 -52.5q119 0 245.5 44t191.5 109zM944 831q-66 -75 -113 -161q-83 76 -165 117q52 62 116 160q66 -60 162 -116z" />
    <glyph glyph-name="uni06A8.init" unicode="&#x6a8;" horiz-adv-x="565" 
d="M-59 193q0 15 13.5 22.5t29.5 7.5h137q60 0 106.5 10t82 25.5t61.5 33.5t45 34q0 17 -3.5 34t-9 31t-12 22.5t-12.5 8.5q-15 0 -23 -13t-21 -28t-38 -28t-74 -13q-39 0 -62 8.5t-35.5 23t-16 34.5t-3.5 43q0 30 7.5 67t20.5 75.5t29.5 74.5t35 64.5t37 45.5t34.5 17
q19 0 43.5 -17.5t49 -48t48 -70.5t41.5 -85t29 -92t11 -91q0 -30 -3.5 -63.5t-9.5 -65t-14 -57t-16 -39.5q-27 -45 -74 -76t-106.5 -50.5t-128.5 -28.5t-140 -9q-9 0 -19.5 2.5t-19.5 7t-14.5 10t-5.5 11.5v162zM254.5 505.5q8.5 3.5 17 9.5t14 13.5t5.5 16.5q0 8 -6 17
t-14 16.5t-16.5 12.5t-12.5 5q-7 0 -14 -7.5t-13.5 -19.5t-11.5 -27.5t-8 -31.5q9 -3 20 -5.5t25 -2.5q6 0 14.5 3.5zM302.5 916q-27.5 23 -58.5 40q-22 -23 -37 -49.5t-31 -54.5q-34 31 -70.5 60t-78.5 51q31 34 55 72.5t49 76.5q17 -28 45.5 -47.5t54.5 -38.5
q22 25 40.5 51.5t33.5 55.5q32 -32 66.5 -60.5t74.5 -48.5q-30 -34 -51 -74.5t-41 -81.5q-24 25 -51.5 48zM155.5 1152.5q-35.5 27.5 -75.5 47.5q29 37 51 78t39 84q31 -31 66 -60t73 -51q-25 -37 -47 -75t-39 -80q-32 29 -67.5 56.5z" />
    <glyph glyph-name="uni06A8.medi" unicode="&#x6a8;" horiz-adv-x="682" 
d="M-59 193q0 15 13.5 22.5t29.5 7.5h94q57 0 81.5 7t24.5 18q0 12 -6 29t-6 28q0 36 17 80.5t44.5 89.5t63 87t72.5 74.5t73 52.5t64 20q20 0 40 -17t36 -45.5t26 -65t10 -75.5q0 -53 -14.5 -98.5t-31.5 -80.5t-31.5 -57t-14.5 -28q0 -10 13 -14.5t45 -4.5h114
q16 0 29.5 -7.5t13.5 -22.5v-162q0 -6 -5.5 -11.5t-14.5 -10t-19.5 -7t-19.5 -2.5h-72q-59 0 -104 14.5t-80 32.5q-35 19 -61 32t-46 13q-23 0 -49 -14.5t-62.5 -31.5t-87 -31.5t-120.5 -14.5q-9 0 -19.5 2.5t-19.5 7t-14.5 10t-5.5 11.5v162zM428 294q26 7 48.5 20.5t38 33
t15.5 45.5q0 15 -7 35t-21 39t-35.5 32t-50.5 13q-22 0 -49 -11t-51 -28.5t-40 -38.5t-16 -41q0 -16 12 -34.5t30 -34.5t39.5 -26.5t39.5 -10.5q21 0 47 7zM232.5 850q-36.5 29 -78.5 51q31 34 55 72.5t49 77.5q17 -28 45.5 -48t54.5 -38q45 50 74 106q32 -32 66.5 -60
t74.5 -48q-31 -34 -51.5 -75l-40.5 -81q-24 25 -51.5 48t-58.5 40q-22 -23 -37 -50t-31 -54q-34 30 -70.5 59zM282.5 1091q-35.5 28 -75.5 48q29 37 51 77.5t39 83.5q31 -30 66 -59t73 -51q-25 -37 -47 -75.5t-39 -80.5q-32 29 -67.5 57z" />
    <glyph glyph-name="uni06A8.fina" unicode="&#x6a8;" horiz-adv-x="1106" 
d="M913 203q-33 101 -92 101t-59 -53q0 -50 114 -50q14 0 37 2zM919 0h-17q-118 0 -173.5 38t-55.5 119q0 90 70 196.5t130 106.5q84 0 144 -239h105q44 0 44 -30v-163q0 -9 -19.5 -18.5t-39.5 -9.5h-113q-21 -177 -179 -301q-86 -67 -200.5 -111.5t-201.5 -44.5
q-142 0 -243.5 97t-101.5 232q0 70 36.5 158t92.5 154l18 21q11 13 19 13q15 0 15 -14q0 -9 -14 -33l-11 -19q-67 -118 -67 -207q0 -85 84 -137.5t219 -52.5q119 0 245.5 44t191.5 109zM860.5 740q-27.5 23 -58.5 40q-22 -23 -37 -49.5t-31 -54.5q-34 31 -70.5 60t-78.5 51
q31 34 55 72.5t49 76.5q17 -28 45.5 -47.5t54.5 -38.5q22 25 40.5 51.5t33.5 55.5q32 -32 66.5 -60.5t74.5 -48.5q-30 -34 -51 -74.5t-41 -81.5q-24 25 -51.5 48zM713.5 976.5q-35.5 27.5 -75.5 47.5q29 37 51 78t39 84q31 -31 66 -60t73 -51q-25 -37 -47 -75t-39 -80
q-32 29 -67.5 56.5z" />
    <glyph glyph-name="uni06AA.init" unicode="&#x6aa;" horiz-adv-x="898" 
d="M769 1006q-171 -55 -338.5 -125.5t-231.5 -113.5q21 -12 31 -18l81 -47q136 -79 209 -183.5t73 -221.5q0 -297 -360 -297h-235q-58 0 -58 31v158q0 32 41 32h332q87 0 146 20.5t59 50.5q0 38 -85.5 115.5t-176.5 121.5l-92 45q-48 23 -65 59.5t-17 112.5q0 44 9.5 66
t42.5 53q99 89 315 193.5t420 162.5z" />
    <glyph glyph-name="uni06AA.medi" unicode="&#x6aa;" 
d="M1007 1316l-120 -234q-233 -79 -436 -174q-255 -121 -255 -157q0 -16 115 -63q113 -45 243 -128t214 -163l75 -71q109 -105 197 -105h11q32 0 32 -30v-163q0 -10 -20.5 -19t-43.5 -9q-83 0 -212 126l-86 83l-43 42q-22 21 -47 48q-45 47 -70 62l-4 2q-6 0 -6 -12l2 -48
q0 -145 -107.5 -224t-303.5 -79h-142q-59 0 -59 31v158q0 32 42 32h153q148 0 245 37.5t97 94.5q0 30 -37 58.5t-147 82.5l-64 31q-56 28 -93 92.5t-37 135.5q0 99 222 244t580 280l84 31z" />
    <glyph glyph-name="uni06AA.fina" unicode="&#x6aa;" horiz-adv-x="1731" 
d="M1595 1090q-83 -25 -169.5 -58.5t-168.5 -70.5q-183 -82 -270.5 -134t-87.5 -73q0 -6 24.5 -17.5t67 -30.5t99 -46t120.5 -64.5t132.5 -87t134.5 -111.5q53 -51 90 -84.5t66.5 -53.5t55.5 -28t58 -8q15 0 29 -7.5t14 -22.5v-162q0 -6 -6 -11.5t-14.5 -10t-19 -7
t-19.5 -2.5q-36 0 -73 17.5t-74.5 47t-76.5 67.5t-80 79q-26 26 -52.5 54t-49.5 50.5t-39.5 37t-21.5 14.5q-1 -119 -43.5 -200.5t-125 -131.5t-205.5 -72t-284 -22q-45 0 -102 4.5t-115.5 17.5t-115 35t-100.5 56.5t-72.5 83.5t-30.5 116q0 53 15.5 106.5t36.5 97t42 70.5
t33 27q8 0 12.5 -7.5t-0.5 -17.5q-14 -24 -26.5 -55.5t-12.5 -62.5q-4 -53 20 -100t84 -81.5t159.5 -54.5t246.5 -20q140 0 236 19.5t155 49t85.5 64.5t27.5 67q0 20 -20 40t-50.5 39.5t-67.5 37.5t-71.5 34.5t-62 32t-38.5 29.5q-13 16 -25.5 39t-22.5 48t-16.5 50.5
t-6.5 47.5q0 34 17 68t57.5 72.5t107.5 83.5t166 99q78 42 155 78.5t149 67t138 56t121 46.5z" />
    <glyph glyph-name="uni06AB.init" unicode="&#x6ab;" horiz-adv-x="961" 
d="M-59 193q0 15 13.5 22.5t29.5 7.5h327q53 0 92 7t64 17.5t37 23t12 22.5q1 14 -18 44t-61.5 69.5t-110 84.5t-164.5 89q-26 11 -42 25.5t-25.5 35.5t-13 51t-3.5 72q0 21 3.5 36t12.5 29t24 29t38 35q34 29 82.5 60t106.5 62t124 61.5t134 58.5t136 52t131 44l-102 -217
q-44 -14 -97.5 -33.5t-110.5 -41.5t-114 -45.5t-106 -45.5t-87 -41.5t-58 -34.5q77 -41 149 -88t127 -103.5t88 -125t33 -152.5t-27 -142t-75 -94t-114.5 -51.5t-146.5 -15.5h-229q-9 0 -19.5 2.5t-19.5 7t-14.5 10t-5.5 11.5v162zM178 1130q41 31 96.5 65.5t118 69.5
t129.5 68.5t132.5 62t126.5 49.5t112 32l-45 -146q-62 -12 -145.5 -43.5t-175 -76t-184 -97t-173.5 -106.5z" />
    <glyph glyph-name="uni06AB.medi" unicode="&#x6ab;" 
d="M184 1139q44 30 107 68.5t137.5 80t155.5 83.5t160 79.5t151 67.5t129 49l-59 -158q-34 -11 -91 -35t-126.5 -56.5t-147 -70.5t-154.5 -78t-147.5 -79.5t-126.5 -73.5zM889 1090q-84 -25 -170.5 -58.5t-167.5 -70.5q-184 -82 -271 -134t-87 -73q0 -6 24.5 -17.5t67 -30.5
t99 -46t120.5 -64.5t132 -87t134 -111.5q53 -51 90 -84.5t66.5 -53.5t55.5 -28t58 -8q16 0 29.5 -7.5t13.5 -22.5v-162q0 -6 -5.5 -11.5t-14.5 -10t-19.5 -7t-19.5 -2.5q-36 0 -72.5 17.5t-74.5 47t-77 67.5t-79 79q-26 26 -53 54t-50 50.5t-39.5 37t-21.5 14.5t-5 -16
t-0.5 -41.5t-5 -58.5t-19 -67.5t-41 -67.5t-72.5 -58.5t-113 -41.5t-162 -16h-139q-9 0 -19.5 2.5t-19.5 7t-14.5 10t-5.5 11.5v162q0 15 13.5 22.5t29.5 7.5h149q94 0 160 13t106.5 33t59 43t18.5 44q0 20 -20 40t-50.5 39.5t-67.5 37.5t-71 34.5t-61.5 32t-38.5 29.5
q-13 16 -26 39t-23 48t-16.5 50.5t-6.5 47.5q0 34 17 68t57.5 72.5t107.5 83.5t166 99q78 42 155 78.5t149.5 67t138 56t121.5 46.5z" />
    <glyph glyph-name="uni06AB.fina" unicode="&#x6ab;" horiz-adv-x="1731" 
d="M1595 1090q-83 -25 -169.5 -58.5t-168.5 -70.5q-183 -82 -270.5 -134t-87.5 -73q0 -6 24.5 -17.5t67 -30.5t99 -46t120.5 -64.5t132.5 -87t134.5 -111.5q53 -51 90 -84.5t66.5 -53.5t55.5 -28t58 -8q15 0 29 -7.5t14 -22.5v-162q0 -6 -6 -11.5t-14.5 -10t-19 -7
t-19.5 -2.5q-36 0 -73 17.5t-74.5 47t-76.5 67.5t-80 79q-26 26 -52.5 54t-49.5 50.5t-39.5 37t-21.5 14.5q-1 -119 -43.5 -200.5t-125 -131.5t-205.5 -72t-284 -22q-45 0 -102 4.5t-115.5 17.5t-115 35t-100.5 56.5t-72.5 83.5t-30.5 116q0 53 15.5 106.5t36.5 97t42 70.5
t33 27q8 0 12.5 -7.5t-0.5 -17.5q-14 -24 -26.5 -55.5t-12.5 -62.5q-4 -53 20 -100t84 -81.5t159.5 -54.5t246.5 -20q140 0 236 19.5t155 49t85.5 64.5t27.5 67q0 20 -20 40t-50.5 39.5t-67.5 37.5t-71.5 34.5t-62 32t-38.5 29.5q-13 16 -25.5 39t-22.5 48t-16.5 50.5
t-6.5 47.5q0 34 17 68t57.5 72.5t107.5 83.5t166 99q78 42 155 78.5t149 67t138 56t121 46.5zM891 1139q43 30 106 68.5t137.5 80t155.5 83.5t160 79.5t151.5 67.5t129.5 49l-60 -158q-34 -11 -90.5 -35t-126 -56.5t-147 -70.5t-154.5 -78t-147.5 -79.5t-126.5 -73.5z" />
    <glyph glyph-name="uni06AC.init" unicode="&#x6ac;" horiz-adv-x="899" 
d="M202.5 1327.5q-41.5 30.5 -87.5 50.5q34 35 62 77.5t54 84.5q36 -35 77 -64.5t87 -54.5q-34 -35 -63 -74.5t-49 -84.5q-39 35 -80.5 65.5zM-59 193q0 15 13.5 22.5t29.5 7.5h327q53 0 92 7t64 17.5t37 23t12 22.5q1 14 -18 44t-61.5 69.5t-110 84.5t-164.5 89
q-26 11 -42 25.5t-25.5 35.5t-13 51t-3.5 72q0 21 3.5 36t12.5 29t24 29t38 35q34 29 82.5 60t106.5 62t124 61.5t134 58.5t136 52t131 44l-102 -217q-44 -14 -97.5 -33.5t-110.5 -41.5t-114 -45.5t-106 -45.5t-87 -41.5t-58 -34.5q77 -41 149 -88t127 -103.5t88 -125
t33 -152.5t-27 -142t-75 -94t-114.5 -51.5t-146.5 -15.5h-229q-9 0 -19.5 2.5t-19.5 7t-14.5 10t-5.5 11.5v162z" />
    <glyph glyph-name="uni06AC.medi" unicode="&#x6ac;" 
d="M254 1327.5q-42 30.5 -88 50.5q34 35 62.5 77.5t54.5 84.5q35 -35 76 -64.5t87 -54.5q-34 -35 -63 -74.5t-49 -84.5q-38 35 -80 65.5zM889 1090q-84 -25 -170.5 -58.5t-167.5 -70.5q-184 -82 -271 -134t-87 -73q0 -6 24.5 -17.5t67 -30.5t99 -46t120.5 -64.5t132 -87
t134 -111.5q53 -51 90 -84.5t66.5 -53.5t55.5 -28t58 -8q16 0 29.5 -7.5t13.5 -22.5v-162q0 -6 -5.5 -11.5t-14.5 -10t-19.5 -7t-19.5 -2.5q-36 0 -72.5 17.5t-74.5 47t-77 67.5t-79 79q-26 26 -53 54t-50 50.5t-39.5 37t-21.5 14.5t-5 -16t-0.5 -41.5t-5 -58.5t-19 -67.5
t-41 -67.5t-72.5 -58.5t-113 -41.5t-162 -16h-139q-9 0 -19.5 2.5t-19.5 7t-14.5 10t-5.5 11.5v162q0 15 13.5 22.5t29.5 7.5h149q94 0 160 13t106.5 33t59 43t18.5 44q0 20 -20 40t-50.5 39.5t-67.5 37.5t-71 34.5t-61.5 32t-38.5 29.5q-13 16 -26 39t-23 48t-16.5 50.5
t-6.5 47.5q0 34 17 68t57.5 72.5t107.5 83.5t166 99q78 42 155 78.5t149.5 67t138 56t121.5 46.5z" />
    <glyph glyph-name="uni06AC.fina" unicode="&#x6ac;" horiz-adv-x="1585" 
d="M1340 229h-22q-41 -119 -82 -165t-129 -71q-126 -35 -439 -35q-308 0 -454 81t-146 253q0 74 42 173t73 99q14 0 14 -13q0 -5 -4 -13q-38 -67 -38 -128q0 -121 126 -175.5t406 -54.5q376 0 493 51q91 39 91 183v32l-35 659l125 143l32 -628q14 -238 48.5 -318.5
t122.5 -80.5h38q43 0 43 -30v-163q0 -29 -87 -29q-93 0 -135 44t-83 186zM572 574v25q23 -2 44 -2q70 0 135 19.5t65 40.5q0 8 -45 20q-69 18 -94.5 36.5t-25.5 51.5q0 47 39 118.5t87 111.5q44 37 90 43l13 -110q-41 -7 -75 -29.5t-34 -43.5q0 -20 40 -32
q77 -22 101.5 -41.5t24.5 -58.5q0 -72 -63 -140t-130 -68q-71 0 -172 59zM1245.5 1467.5q-41.5 30.5 -87.5 50.5q34 35 62 77.5t54 84.5q36 -35 77 -64.5t87 -54.5q-34 -35 -63 -74.5t-49 -84.5q-39 35 -80.5 65.5z" />
    <glyph glyph-name="uni06AE.init" unicode="&#x6ae;" horiz-adv-x="898" 
d="M769 1006q-171 -55 -338.5 -125.5t-231.5 -113.5q21 -12 31 -18l81 -47q136 -79 209 -183.5t73 -221.5q0 -297 -360 -297h-235q-58 0 -58 31v158q0 32 41 32h332q87 0 146 20.5t59 50.5q0 38 -85.5 115.5t-176.5 121.5l-92 45q-48 23 -65 59.5t-17 112.5q0 44 9.5 66
t42.5 53q99 89 315 193.5t420 162.5zM353.5 -454q35.5 -28 75.5 -48q-29 -37 -51 -77.5t-39 -84.5q-31 31 -66 60t-73 51q24 37 46.5 75.5t39.5 80.5q32 -29 67.5 -57zM403.5 -214q36.5 -29 78.5 -50q-31 -34 -55.5 -72.5t-48.5 -77.5q-17 28 -46 48t-55 38
q-21 -24 -39.5 -50.5t-33.5 -55.5q-32 32 -66.5 60t-75.5 48q31 34 51.5 75l40.5 81q25 -25 52.5 -48t58.5 -40q22 23 37 50t31 54q34 -31 70.5 -60z" />
    <glyph glyph-name="uni06AE.medi" unicode="&#x6ae;" 
d="M1007 1316l-120 -234q-233 -79 -436 -174q-255 -121 -255 -157q0 -16 115 -63q113 -45 243 -128t214 -163l75 -71q109 -105 197 -105h11q32 0 32 -30v-163q0 -10 -20.5 -19t-43.5 -9q-83 0 -212 126l-86 83l-43 42q-22 21 -47 48q-45 47 -70 62l-4 2q-6 0 -6 -12l2 -48
q0 -145 -107.5 -224t-303.5 -79h-142q-59 0 -59 31v158q0 32 42 32h153q148 0 245 37.5t97 94.5q0 30 -37 58.5t-147 82.5l-64 31q-56 28 -93 92.5t-37 135.5q0 99 222 244t580 280l84 31zM473.5 -454q35.5 -28 75.5 -48q-29 -37 -51 -77.5t-39 -84.5q-31 31 -66 60t-73 51
q24 37 46.5 75.5t39.5 80.5q32 -29 67.5 -57zM523.5 -214q36.5 -29 78.5 -50q-31 -34 -55.5 -72.5t-48.5 -77.5q-17 28 -46 48t-55 38q-21 -24 -39.5 -50.5t-33.5 -55.5q-32 32 -66.5 60t-75.5 48q31 34 51.5 75l40.5 81q25 -25 52.5 -48t58.5 -40q22 23 37 50t31 54
q34 -31 70.5 -60z" />
    <glyph glyph-name="uni06AE.fina" unicode="&#x6ae;" horiz-adv-x="1585" 
d="M1340 229h-22q-41 -119 -82 -165t-129 -71q-126 -35 -439 -35q-308 0 -454 81t-146 253q0 74 42 173t73 99q14 0 14 -13q0 -5 -4 -13q-38 -67 -38 -128q0 -121 126 -175.5t406 -54.5q376 0 493 51q91 39 91 183v32l-35 659l125 143l32 -628q14 -238 48.5 -318.5
t122.5 -80.5h38q43 0 43 -30v-163q0 -29 -87 -29q-93 0 -135 44t-83 186zM572 574v25q23 -2 44 -2q70 0 135 19.5t65 40.5q0 8 -45 20q-69 18 -94.5 36.5t-25.5 51.5q0 47 39 118.5t87 111.5q44 37 90 43l13 -110q-41 -7 -75 -29.5t-34 -43.5q0 -20 40 -32
q77 -22 101.5 -41.5t24.5 -58.5q0 -72 -63 -140t-130 -68q-71 0 -172 59zM803.5 -454q35.5 -28 75.5 -48q-29 -37 -51 -77.5t-39 -84.5q-31 31 -66 60t-73 51q24 37 46.5 75.5t39.5 80.5q32 -29 67.5 -57zM853.5 -214q36.5 -29 78.5 -50q-31 -34 -55.5 -72.5t-48.5 -77.5
q-17 28 -46 48t-55 38q-21 -24 -39.5 -50.5t-33.5 -55.5q-32 32 -66.5 60t-75.5 48q31 34 51.5 75l40.5 81q25 -25 52.5 -48t58.5 -40q22 23 37 50t31 54q34 -31 70.5 -60z" />
    <glyph glyph-name="uni06B0.init" unicode="&#x6b0;" horiz-adv-x="961" 
d="M538 921q-27 0 -49.5 -21t-22.5 -46t22 -43t53 -18q32 0 62 16t30 33q0 26 -31.5 52.5t-63.5 26.5zM178 1130q41 31 96.5 65.5t118 69.5t129.5 68.5t132.5 62t126.5 49.5t112 32l-45 -146q-62 -12 -145.5 -43.5t-175 -76t-184 -97t-173.5 -106.5zM430 887
q-48 -20 -90 -39q-49 -22 -87 -41.5t-58 -34.5q77 -41 149 -88t127 -103.5t88 -125t33 -152.5t-27 -142t-75 -94t-114.5 -51.5t-146.5 -15.5h-229q-9 0 -19.5 2.5t-19.5 7t-14.5 10t-5.5 11.5v162q0 15 13.5 22.5t29.5 7.5h327q53 0 92 7t64 17.5t37 23t12 22.5q1 14 -18 44
t-61.5 69.5t-110 84.5t-164.5 89q-26 11 -42 25.5t-25.5 35.5t-13 51t-3.5 72q0 21 3.5 36t12.5 29t24 29t38 35q34 29 82.5 60t106.5 62t124 61.5t134 58.5t136 52t131 44l-102 -217q-44 -14 -97 -33l-26 -10q33 -59 33 -122q0 -52 -18 -116q-58 -51 -135 -51
q-48 0 -77 33.5t-29 89.5q0 37 11 82z" />
    <glyph glyph-name="uni06B0.medi" unicode="&#x6b0;" 
d="M619 981q-27 0 -49.5 -21t-22.5 -46t22 -43t53 -18q32 0 62 16t30 33q0 26 -31.5 52.5t-63.5 26.5zM184 1139q44 30 107 68.5t137.5 80t155.5 83.5t160 79.5t151 67.5t129 49l-59 -158q-34 -11 -91 -35t-126.5 -56.5t-147 -70.5t-154.5 -78t-147.5 -79.5t-126.5 -73.5z
M510 943q-153 -70 -230 -116q-87 -52 -87 -73q0 -6 24.5 -17.5t67 -30.5t99 -46t120.5 -64.5t132 -87t134 -111.5q53 -51 90 -84.5t66.5 -53.5t55.5 -28t58 -8q16 0 29.5 -7.5t13.5 -22.5v-162q0 -6 -5.5 -11.5t-14.5 -10t-19.5 -7t-19.5 -2.5q-36 0 -72.5 17.5t-74.5 47
t-77 67.5t-79 79q-26 26 -53 54t-50 50.5t-39.5 37t-21.5 14.5t-5 -16t-0.5 -41.5t-5 -58.5t-19 -67.5t-41 -67.5t-72.5 -58.5t-113 -41.5t-162 -16h-139q-9 0 -19.5 2.5t-19.5 7t-14.5 10t-5.5 11.5v162q0 15 13.5 22.5t29.5 7.5h149q94 0 160 13t106.5 33t59 43t18.5 44
q0 20 -20 40t-50.5 39.5t-67.5 37.5t-71 34.5t-61.5 32t-38.5 29.5q-13 16 -26 39t-23 48t-16.5 50.5t-6.5 47.5q0 34 17 68t57.5 72.5t107.5 83.5t166 99q78 42 155 78.5t149.5 67t138 56t121.5 46.5l-119 -235q-81 -24 -164 -56q34 -60 34 -125q0 -52 -18 -116
q-58 -51 -135 -51q-48 0 -77 33.5t-29 89.5q0 35 10 78z" />
    <glyph glyph-name="uni06B0.fina" unicode="&#x6b0;" horiz-adv-x="1731" 
d="M1314 972q-27 0 -49.5 -21t-22.5 -46t22 -43t53 -18q32 0 62 16t30 33q0 26 -31.5 52.5t-63.5 26.5zM891 1139q43 30 106 68.5t137.5 80t155.5 83.5t160 79.5t151.5 67.5t129.5 49l-60 -158q-34 -11 -90.5 -35t-126 -56.5t-147 -70.5t-154.5 -78t-147.5 -79.5
t-126.5 -73.5zM1206 938q-145 -66 -219 -111q-88 -52 -88 -73q0 -6 24.5 -17.5t67 -30.5t99 -46t120.5 -64.5t132.5 -87t134.5 -111.5q53 -51 90 -84.5t66.5 -53.5t55.5 -28t58 -8q15 0 29 -7.5t14 -22.5v-162q0 -6 -6 -11.5t-14.5 -10t-19 -7t-19.5 -2.5q-36 0 -73 17.5
t-74.5 47t-76.5 67.5t-80 79q-26 26 -52.5 54t-49.5 50.5t-39.5 37t-21.5 14.5q-1 -119 -43.5 -200.5t-125 -131.5t-205.5 -72t-284 -22q-45 0 -102 4.5t-115.5 17.5t-115 35t-100.5 56.5t-72.5 83.5t-30.5 116q0 53 15.5 106.5t36.5 97t42 70.5t33 27q8 0 12.5 -7.5
t-0.5 -17.5q-14 -24 -26.5 -55.5t-12.5 -62.5q-4 -53 20 -100t84 -81.5t159.5 -54.5t246.5 -20q140 0 236 19.5t155 49t85.5 64.5t27.5 67q0 20 -20 40t-50.5 39.5t-67.5 37.5t-71.5 34.5t-62 32t-38.5 29.5q-13 16 -25.5 39t-22.5 48t-16.5 50.5t-6.5 47.5q0 34 17 68
t57.5 72.5t107.5 83.5t166 99q78 42 155 78.5t149 67t138 56t121 46.5l-119 -235q-83 -25 -169 -58q-5 -2 -9 -4q37 -61 37 -128q0 -52 -18 -116q-58 -51 -135 -51q-48 0 -77 33.5t-29 89.5q0 37 11 82z" />
    <glyph glyph-name="uni06B2.init" unicode="&#x6b2;" horiz-adv-x="961" 
d="M-59 193q0 15 13.5 22.5t29.5 7.5h327q53 0 92 7t64 17.5t37 23t12 22.5q1 14 -18 44t-61.5 69.5t-110 84.5t-164.5 89q-26 11 -42 25.5t-25.5 35.5t-13 51t-3.5 72q0 21 3.5 36t12.5 29t24 29t38 35q34 29 82.5 60t106.5 62t124 61.5t134 58.5t136 52t131 44l-102 -217
q-44 -14 -97.5 -33.5t-110.5 -41.5t-114 -45.5t-106 -45.5t-87 -41.5t-58 -34.5q77 -41 149 -88t127 -103.5t88 -125t33 -152.5t-27 -142t-75 -94t-114.5 -51.5t-146.5 -15.5h-229q-9 0 -19.5 2.5t-19.5 7t-14.5 10t-5.5 11.5v162zM178 1130q41 31 96.5 65.5t118 69.5
t129.5 68.5t132.5 62t126.5 49.5t112 32l-45 -146q-62 -12 -145.5 -43.5t-175 -76t-184 -97t-173.5 -106.5zM423.5 -214q36.5 -29 78.5 -50q-31 -34 -55.5 -72.5t-48.5 -77.5q-17 28 -46 48t-55 38q-21 -24 -39.5 -50.5t-33.5 -55.5q-32 32 -66.5 60t-75.5 48q31 34 51.5 75
l40.5 81q25 -25 52.5 -48t58.5 -40q22 23 37 50t31 54q34 -31 70.5 -60z" />
    <glyph glyph-name="uni06B2.medi" unicode="&#x6b2;" 
d="M184 1139q44 30 107 68.5t137.5 80t155.5 83.5t160 79.5t151 67.5t129 49l-59 -158q-34 -11 -91 -35t-126.5 -56.5t-147 -70.5t-154.5 -78t-147.5 -79.5t-126.5 -73.5zM889 1090q-84 -25 -170.5 -58.5t-167.5 -70.5q-184 -82 -271 -134t-87 -73q0 -6 24.5 -17.5t67 -30.5
t99 -46t120.5 -64.5t132 -87t134 -111.5q53 -51 90 -84.5t66.5 -53.5t55.5 -28t58 -8q16 0 29.5 -7.5t13.5 -22.5v-162q0 -6 -5.5 -11.5t-14.5 -10t-19.5 -7t-19.5 -2.5q-36 0 -72.5 17.5t-74.5 47t-77 67.5t-79 79q-26 26 -53 54t-50 50.5t-39.5 37t-21.5 14.5t-5 -16
t-0.5 -41.5t-5 -58.5t-19 -67.5t-41 -67.5t-72.5 -58.5t-113 -41.5t-162 -16h-139q-9 0 -19.5 2.5t-19.5 7t-14.5 10t-5.5 11.5v162q0 15 13.5 22.5t29.5 7.5h149q94 0 160 13t106.5 33t59 43t18.5 44q0 20 -20 40t-50.5 39.5t-67.5 37.5t-71 34.5t-61.5 32t-38.5 29.5
q-13 16 -26 39t-23 48t-16.5 50.5t-6.5 47.5q0 34 17 68t57.5 72.5t107.5 83.5t166 99q78 42 155 78.5t149.5 67t138 56t121.5 46.5zM443.5 -214q36.5 -29 78.5 -50q-31 -34 -55.5 -72.5t-48.5 -77.5q-17 28 -46 48t-55 38q-21 -24 -39.5 -50.5t-33.5 -55.5q-32 32 -66.5 60
t-75.5 48q31 34 51.5 75l40.5 81q25 -25 52.5 -48t58.5 -40q22 23 37 50t31 54q34 -31 70.5 -60z" />
    <glyph glyph-name="uni06B2.fina" unicode="&#x6b2;" horiz-adv-x="1731" 
d="M1595 1090q-83 -25 -169.5 -58.5t-168.5 -70.5q-183 -82 -270.5 -134t-87.5 -73q0 -6 24.5 -17.5t67 -30.5t99 -46t120.5 -64.5t132.5 -87t134.5 -111.5q53 -51 90 -84.5t66.5 -53.5t55.5 -28t58 -8q15 0 29 -7.5t14 -22.5v-162q0 -6 -6 -11.5t-14.5 -10t-19 -7
t-19.5 -2.5q-36 0 -73 17.5t-74.5 47t-76.5 67.5t-80 79q-26 26 -52.5 54t-49.5 50.5t-39.5 37t-21.5 14.5q-1 -119 -43.5 -200.5t-125 -131.5t-205.5 -72t-284 -22q-45 0 -102 4.5t-115.5 17.5t-115 35t-100.5 56.5t-72.5 83.5t-30.5 116q0 53 15.5 106.5t36.5 97t42 70.5
t33 27q8 0 12.5 -7.5t-0.5 -17.5q-14 -24 -26.5 -55.5t-12.5 -62.5q-4 -53 20 -100t84 -81.5t159.5 -54.5t246.5 -20q140 0 236 19.5t155 49t85.5 64.5t27.5 67q0 20 -20 40t-50.5 39.5t-67.5 37.5t-71.5 34.5t-62 32t-38.5 29.5q-13 16 -25.5 39t-22.5 48t-16.5 50.5
t-6.5 47.5q0 34 17 68t57.5 72.5t107.5 83.5t166 99q78 42 155 78.5t149 67t138 56t121 46.5zM891 1139q43 30 106 68.5t137.5 80t155.5 83.5t160 79.5t151.5 67.5t129.5 49l-60 -158q-34 -11 -90.5 -35t-126 -56.5t-147 -70.5t-154.5 -78t-147.5 -79.5t-126.5 -73.5z
M843.5 -214q36.5 -29 78.5 -50q-31 -34 -55.5 -72.5t-48.5 -77.5q-17 28 -46 48t-55 38q-21 -24 -39.5 -50.5t-33.5 -55.5q-32 32 -66.5 60t-75.5 48q31 34 51.5 75l40.5 81q25 -25 52.5 -48t58.5 -40q22 23 37 50t31 54q34 -31 70.5 -60z" />
    <glyph glyph-name="uni06B4.init" unicode="&#x6b4;" horiz-adv-x="961" 
d="M-59 193q0 15 13.5 22.5t29.5 7.5h327q53 0 92 7t64 17.5t37 23t12 22.5q1 14 -18 44t-61.5 69.5t-110 84.5t-164.5 89q-26 11 -42 25.5t-25.5 35.5t-13 51t-3.5 72q0 21 3.5 36t12.5 29t24 29t38 35q34 29 82.5 60t106.5 62t124 61.5t134 58.5t136 52t131 44l-102 -217
q-44 -14 -97.5 -33.5t-110.5 -41.5t-114 -45.5t-106 -45.5t-87 -41.5t-58 -34.5q77 -41 149 -88t127 -103.5t88 -125t33 -152.5t-27 -142t-75 -94t-114.5 -51.5t-146.5 -15.5h-229q-9 0 -19.5 2.5t-19.5 7t-14.5 10t-5.5 11.5v162zM178 1130q41 31 96.5 65.5t118 69.5
t129.5 68.5t132.5 62t126.5 49.5t112 32l-45 -146q-62 -12 -145.5 -43.5t-175 -76t-184 -97t-173.5 -106.5zM280.5 1393q-27.5 23 -58.5 40q-22 -23 -37 -49.5t-31 -54.5q-34 31 -70.5 60t-78.5 51q31 34 55 72.5t49 76.5q17 -28 45.5 -47.5t54.5 -38.5q22 25 40.5 51.5
t33.5 55.5q32 -32 66.5 -60.5t74.5 -48.5q-30 -34 -51 -74.5t-41 -81.5q-24 25 -51.5 48zM133.5 1629.5q-35.5 27.5 -75.5 47.5q29 37 51 78t39 84q31 -31 66 -60t73 -51q-25 -37 -47 -75t-39 -80q-32 29 -67.5 56.5z" />
    <glyph glyph-name="uni06B4.medi" unicode="&#x6b4;" 
d="M184 1139q44 30 107 68.5t137.5 80t155.5 83.5t160 79.5t151 67.5t129 49l-59 -158q-34 -11 -91 -35t-126.5 -56.5t-147 -70.5t-154.5 -78t-147.5 -79.5t-126.5 -73.5zM889 1090q-84 -25 -170.5 -58.5t-167.5 -70.5q-184 -82 -271 -134t-87 -73q0 -6 24.5 -17.5t67 -30.5
t99 -46t120.5 -64.5t132 -87t134 -111.5q53 -51 90 -84.5t66.5 -53.5t55.5 -28t58 -8q16 0 29.5 -7.5t13.5 -22.5v-162q0 -6 -5.5 -11.5t-14.5 -10t-19.5 -7t-19.5 -2.5q-36 0 -72.5 17.5t-74.5 47t-77 67.5t-79 79q-26 26 -53 54t-50 50.5t-39.5 37t-21.5 14.5t-5 -16
t-0.5 -41.5t-5 -58.5t-19 -67.5t-41 -67.5t-72.5 -58.5t-113 -41.5t-162 -16h-139q-9 0 -19.5 2.5t-19.5 7t-14.5 10t-5.5 11.5v162q0 15 13.5 22.5t29.5 7.5h149q94 0 160 13t106.5 33t59 43t18.5 44q0 20 -20 40t-50.5 39.5t-67.5 37.5t-71 34.5t-61.5 32t-38.5 29.5
q-13 16 -26 39t-23 48t-16.5 50.5t-6.5 47.5q0 34 17 68t57.5 72.5t107.5 83.5t166 99q78 42 155 78.5t149.5 67t138 56t121.5 46.5zM280.5 1393q-27.5 23 -58.5 40q-22 -23 -37 -49.5t-31 -54.5q-34 31 -70.5 60t-78.5 51q31 34 55 72.5t49 76.5q17 -28 45.5 -47.5
t54.5 -38.5q22 25 40.5 51.5t33.5 55.5q32 -32 66.5 -60.5t74.5 -48.5q-30 -34 -51 -74.5t-41 -81.5q-24 25 -51.5 48zM133.5 1629.5q-35.5 27.5 -75.5 47.5q29 37 51 78t39 84q31 -31 66 -60t73 -51q-25 -37 -47 -75t-39 -80q-32 29 -67.5 56.5z" />
    <glyph glyph-name="uni06B4.fina" unicode="&#x6b4;" horiz-adv-x="1731" 
d="M1595 1090q-83 -25 -169.5 -58.5t-168.5 -70.5q-183 -82 -270.5 -134t-87.5 -73q0 -6 24.5 -17.5t67 -30.5t99 -46t120.5 -64.5t132.5 -87t134.5 -111.5q53 -51 90 -84.5t66.5 -53.5t55.5 -28t58 -8q15 0 29 -7.5t14 -22.5v-162q0 -6 -6 -11.5t-14.5 -10t-19 -7
t-19.5 -2.5q-36 0 -73 17.5t-74.5 47t-76.5 67.5t-80 79q-26 26 -52.5 54t-49.5 50.5t-39.5 37t-21.5 14.5q-1 -119 -43.5 -200.5t-125 -131.5t-205.5 -72t-284 -22q-45 0 -102 4.5t-115.5 17.5t-115 35t-100.5 56.5t-72.5 83.5t-30.5 116q0 53 15.5 106.5t36.5 97t42 70.5
t33 27q8 0 12.5 -7.5t-0.5 -17.5q-14 -24 -26.5 -55.5t-12.5 -62.5q-4 -53 20 -100t84 -81.5t159.5 -54.5t246.5 -20q140 0 236 19.5t155 49t85.5 64.5t27.5 67q0 20 -20 40t-50.5 39.5t-67.5 37.5t-71.5 34.5t-62 32t-38.5 29.5q-13 16 -25.5 39t-22.5 48t-16.5 50.5
t-6.5 47.5q0 34 17 68t57.5 72.5t107.5 83.5t166 99q78 42 155 78.5t149 67t138 56t121 46.5zM891 1139q43 30 106 68.5t137.5 80t155.5 83.5t160 79.5t151.5 67.5t129.5 49l-60 -158q-34 -11 -90.5 -35t-126 -56.5t-147 -70.5t-154.5 -78t-147.5 -79.5t-126.5 -73.5z
M950.5 1363q-27.5 23 -58.5 40q-22 -23 -37 -49.5t-31 -54.5q-34 31 -70.5 60t-78.5 51q31 34 55 72.5t49 76.5q17 -28 45.5 -47.5t54.5 -38.5q22 25 40.5 51.5t33.5 55.5q32 -32 66.5 -60.5t74.5 -48.5q-30 -34 -51 -74.5t-41 -81.5q-24 25 -51.5 48zM803.5 1599.5
q-35.5 27.5 -75.5 47.5q29 37 51 78t39 84q31 -31 66 -60t73 -51q-25 -37 -47 -75t-39 -80q-32 29 -67.5 56.5z" />
    <glyph glyph-name="uni06B5.init" unicode="&#x6b5;" horiz-adv-x="458" 
d="M141 1171l27 33q48 58 76 97q56 -122 128 -185q-61 -57 -61 -132q0 -36 8 -79l17 -90q54 -293 54 -447q0 -155 -88 -306q-94 -62 -305 -62q-57 0 -57 31v158q0 32 41 32h128q152 0 152 131q0 30 -8 77l-21 130q-32 201 -42 312l-10 111q-11 122 -39 189zM455 1727
q-107 -156 -188 -303h-67q-85 154 -185 303l47 38q27 -21 171 -161q164 154 174 161z" />
    <glyph glyph-name="uni06B5.medi" unicode="&#x6b5;" horiz-adv-x="569" 
d="M177 1148l133 152l38 -475q0 -147 23 -335l7 -59q16 -128 56 -169t151 -41q44 0 44 -30v-163q0 -10 -21 -19t-45 -9q-87 0 -126 17q-37 17 -70 60t-42 87q-11 48 -26 48q-13 0 -29 -41q-65 -171 -179 -171h-91q-59 0 -59 31v158q0 33 62 33l13 -1q141 0 188 32t47 128
q0 169 -65 689zM465 1727q-107 -156 -188 -303h-67q-85 154 -185 303l47 38q27 -21 171 -161q164 154 174 161z" />
    <glyph glyph-name="uni06B5.fina" unicode="&#x6b5;" horiz-adv-x="1126" 
d="M772 1104l125 145l12 -428q0 -209 50 -433q23 -106 56.5 -136.5t126.5 -30.5q43 0 43 -30v-163q0 -29 -80 -29q-138 0 -185 134l-16 -5q2 -30 3 -40l3 -62l3 -64l-1 -34v-62q0 -265 -127 -391q-56 -57 -162 -93.5t-214 -36.5q-165 0 -256.5 81t-91.5 227q0 149 133 357
q33 52 49 52q18 0 18 -18q0 -10 -17 -39q-93 -156 -93 -253q0 -76 84.5 -130.5t201.5 -54.5q156 0 300 83q60 35 76.5 65t16.5 104q0 59 -10 234l-13 260l-20 323q-7 123 -7 186zM1085 1697q-107 -156 -188 -303h-67q-85 154 -185 303l47 38q27 -21 171 -161
q164 154 174 161z" />
    <glyph glyph-name="uni06B6.init" unicode="&#x6b6;" horiz-adv-x="458" 
d="M141 1171l27 33q48 58 76 97q56 -122 128 -185q-61 -57 -61 -132q0 -36 8 -79l17 -90q54 -293 54 -447q0 -155 -88 -306q-94 -62 -305 -62q-57 0 -57 31v158q0 32 41 32h128q152 0 152 131q0 30 -8 77l-21 130q-32 201 -42 312l-10 111q-11 122 -39 189zM176.5 1470
q-41.5 31 -88.5 51q34 35 62.5 77t54.5 84q69 -69 164 -118q-34 -36 -63.5 -75.5t-49.5 -84.5q-38 35 -79.5 66z" />
    <glyph glyph-name="uni06B6.medi" unicode="&#x6b6;" horiz-adv-x="569" 
d="M177 1148l133 152l38 -475q0 -147 23 -335l7 -59q16 -128 56 -169t151 -41q44 0 44 -30v-163q0 -10 -21 -19t-45 -9q-87 0 -126 17q-37 17 -70 60t-42 87q-11 48 -26 48q-13 0 -29 -41q-65 -171 -179 -171h-91q-59 0 -59 31v158q0 33 62 33l13 -1q141 0 188 32t47 128
q0 169 -65 689zM206.5 1470q-41.5 31 -88.5 51q34 35 62.5 77t54.5 84q69 -69 164 -118q-34 -36 -63.5 -75.5t-49.5 -84.5q-38 35 -79.5 66z" />
    <glyph glyph-name="uni06B6.fina" unicode="&#x6b6;" horiz-adv-x="1126" 
d="M772 1104l125 145l12 -428q0 -209 50 -433q23 -106 56.5 -136.5t126.5 -30.5q43 0 43 -30v-163q0 -29 -80 -29q-138 0 -185 134l-16 -5q2 -30 3 -40l3 -62l3 -64l-1 -34v-62q0 -265 -127 -391q-56 -57 -162 -93.5t-214 -36.5q-165 0 -256.5 81t-91.5 227q0 149 133 357
q33 52 49 52q18 0 18 -18q0 -10 -17 -39q-93 -156 -93 -253q0 -76 84.5 -130.5t201.5 -54.5q156 0 300 83q60 35 76.5 65t16.5 104q0 59 -10 234l-13 260l-20 323q-7 123 -7 186zM816.5 1470q-41.5 31 -88.5 51q34 35 62.5 77t54.5 84q69 -69 164 -118q-34 -36 -63.5 -75.5
t-49.5 -84.5q-38 35 -79.5 66z" />
    <glyph glyph-name="uni06B7.init" unicode="&#x6b7;" horiz-adv-x="458" 
d="M141 1171l27 33q48 58 76 97q56 -122 128 -185q-61 -57 -61 -132q0 -36 8 -79l17 -90q54 -293 54 -447q0 -155 -88 -306q-94 -62 -305 -62q-57 0 -57 31v158q0 32 41 32h128q152 0 152 131q0 30 -8 77l-21 130q-32 201 -42 312l-10 111q-11 122 -39 189zM290.5 1483
q-27.5 23 -58.5 40q-22 -23 -37 -49.5t-31 -54.5q-34 31 -70.5 60t-78.5 51q31 34 55 72.5t49 76.5q17 -28 45.5 -47.5t54.5 -38.5q22 25 40.5 51.5t33.5 55.5q32 -32 66.5 -60.5t74.5 -48.5q-30 -34 -51 -74.5t-41 -81.5q-24 25 -51.5 48zM143.5 1719.5
q-35.5 27.5 -75.5 47.5q29 37 51 78t39 84q31 -31 66 -60t73 -51q-25 -37 -47 -75t-39 -80q-32 29 -67.5 56.5z" />
    <glyph glyph-name="uni06B7.medi" unicode="&#x6b7;" horiz-adv-x="569" 
d="M177 1148l133 152l38 -475q0 -147 23 -335l7 -59q16 -128 56 -169t151 -41q44 0 44 -30v-163q0 -10 -21 -19t-45 -9q-87 0 -126 17q-37 17 -70 60t-42 87q-11 48 -26 48q-13 0 -29 -41q-65 -171 -179 -171h-91q-59 0 -59 31v158q0 33 62 33l13 -1q141 0 188 32t47 128
q0 169 -65 689zM300.5 1483q-27.5 23 -58.5 40q-22 -23 -37 -49.5t-31 -54.5q-34 31 -70.5 60t-78.5 51q31 34 55 72.5t49 76.5q17 -28 45.5 -47.5t54.5 -38.5q22 25 40.5 51.5t33.5 55.5q32 -32 66.5 -60.5t74.5 -48.5q-30 -34 -51 -74.5t-41 -81.5q-24 25 -51.5 48z
M153.5 1719.5q-35.5 27.5 -75.5 47.5q29 37 51 78t39 84q31 -31 66 -60t73 -51q-25 -37 -47 -75t-39 -80q-32 29 -67.5 56.5z" />
    <glyph glyph-name="uni06B7.fina" unicode="&#x6b7;" horiz-adv-x="1126" 
d="M772 1104l125 145l12 -428q0 -209 50 -433q23 -106 56.5 -136.5t126.5 -30.5q43 0 43 -30v-163q0 -29 -80 -29q-138 0 -185 134l-16 -5q2 -30 3 -40l3 -62l3 -64l-1 -34v-62q0 -265 -127 -391q-56 -57 -162 -93.5t-214 -36.5q-165 0 -256.5 81t-91.5 227q0 149 133 357
q33 52 49 52q18 0 18 -18q0 -10 -17 -39q-93 -156 -93 -253q0 -76 84.5 -130.5t201.5 -54.5q156 0 300 83q60 35 76.5 65t16.5 104q0 59 -10 234l-13 260l-20 323q-7 123 -7 186zM910.5 1463q-27.5 23 -58.5 40q-22 -23 -37 -49.5t-31 -54.5q-34 31 -70.5 60t-78.5 51
q31 34 55 72.5t49 76.5q17 -28 45.5 -47.5t54.5 -38.5q22 25 40.5 51.5t33.5 55.5q32 -32 66.5 -60.5t74.5 -48.5q-30 -34 -51 -74.5t-41 -81.5q-24 25 -51.5 48zM763.5 1699.5q-35.5 27.5 -75.5 47.5q29 37 51 78t39 84q31 -31 66 -60t73 -51q-25 -37 -47 -75t-39 -80
q-32 29 -67.5 56.5z" />
    <glyph glyph-name="uni06B8.init" unicode="&#x6b8;" horiz-adv-x="458" 
d="M141 1171l27 33q48 58 76 97q56 -122 128 -185q-61 -57 -61 -132q0 -36 8 -79l17 -90q54 -293 54 -447q0 -155 -88 -306q-94 -62 -305 -62q-57 0 -57 31v158q0 32 41 32h128q152 0 152 131q0 30 -8 77l-21 130q-32 201 -42 312l-10 111q-11 122 -39 189zM303.5 -454
q35.5 -28 75.5 -48q-29 -37 -51 -77.5t-39 -84.5q-31 31 -66 60t-73 51q24 37 46.5 75.5t39.5 80.5q32 -29 67.5 -57zM353.5 -214q36.5 -29 78.5 -50q-31 -34 -55.5 -72.5t-48.5 -77.5q-17 28 -46 48t-55 38q-21 -24 -39.5 -50.5t-33.5 -55.5q-32 32 -66.5 60t-75.5 48
q31 34 51.5 75l40.5 81q25 -25 52.5 -48t58.5 -40q22 23 37 50t31 54q34 -31 70.5 -60z" />
    <glyph glyph-name="uni06B8.medi" unicode="&#x6b8;" horiz-adv-x="569" 
d="M177 1148l133 152l38 -475q0 -147 23 -335l7 -59q16 -128 56 -169t151 -41q44 0 44 -30v-163q0 -10 -21 -19t-45 -9q-87 0 -126 17q-37 17 -70 60t-42 87q-11 48 -26 48q-13 0 -29 -41q-65 -171 -179 -171h-91q-59 0 -59 31v158q0 33 62 33l13 -1q141 0 188 32t47 128
q0 169 -65 689zM313.5 -454q35.5 -28 75.5 -48q-29 -37 -51 -77.5t-39 -84.5q-31 31 -66 60t-73 51q24 37 46.5 75.5t39.5 80.5q32 -29 67.5 -57zM363.5 -214q36.5 -29 78.5 -50q-31 -34 -55.5 -72.5t-48.5 -77.5q-17 28 -46 48t-55 38q-21 -24 -39.5 -50.5t-33.5 -55.5
q-32 32 -66.5 60t-75.5 48q31 34 51.5 75l40.5 81q25 -25 52.5 -48t58.5 -40q22 23 37 50t31 54q34 -31 70.5 -60z" />
    <glyph glyph-name="uni06B8.fina" unicode="&#x6b8;" horiz-adv-x="1126" 
d="M772 1104l125 145l12 -428q0 -209 50 -433q23 -106 56.5 -136.5t126.5 -30.5q43 0 43 -30v-163q0 -29 -80 -29q-138 0 -185 134l-16 -5q2 -30 3 -40l3 -62l3 -64l-1 -34v-62q0 -265 -127 -391q-56 -57 -162 -93.5t-214 -36.5q-165 0 -256.5 81t-91.5 227q0 149 133 357
q33 52 49 52q18 0 18 -18q0 -10 -17 -39q-93 -156 -93 -253q0 -76 84.5 -130.5t201.5 -54.5q156 0 300 83q60 35 76.5 65t16.5 104q0 59 -10 234l-13 260l-20 323q-7 123 -7 186zM602.5 -1075q35.5 -28 75.5 -48q-29 -37 -51 -77.5t-39 -84.5q-31 31 -66 60t-73 51
q24 37 46.5 75.5t39.5 80.5q32 -29 67.5 -57zM652.5 -835q36.5 -29 78.5 -50q-31 -34 -55.5 -72.5t-48.5 -77.5q-17 28 -46 48t-55 38q-21 -24 -39.5 -50.5t-33.5 -55.5q-32 32 -66.5 60t-75.5 48q31 34 51.5 75l40.5 81q25 -25 52.5 -48t58.5 -40q22 23 37 50t31 54
q34 -31 70.5 -60z" />
    <glyph glyph-name="uni06B9.init" unicode="&#x6b9;" horiz-adv-x="435" 
d="M366 930q-67 -75 -114 -161q-82 76 -165 117q53 62 116 160q67 -60 163 -116zM266 251q-15 40 -56 84l-37 40l-10 10q30 77 97 167l7 11q97 -140 97 -290q0 -62 -30 -129t-76 -110q-33 -22 -118 -28q-19 -2 -52 -5q-60 -5 -89 -1q-59 0 -59 31v158q0 32 41 32h163
q88 0 122 30zM376 -326q-67 -75 -114 -162q-83 77 -165 118q53 62 116 160q66 -60 163 -116z" />
    <glyph glyph-name="uni06B9.medi" unicode="&#x6b9;" horiz-adv-x="455" 
d="M337 733q-66 -75 -114 -162q-82 76 -164 117q52 63 115 160q67 -59 163 -115zM-59 31v158q0 32 42 32h102q91 0 172 107q21 28 31 28q12 0 17 -21l13 -49q10 -38 25.5 -51.5t49.5 -13.5h78q44 0 44 -30v-163q0 -11 -21.5 -19.5t-47.5 -8.5q-129 0 -173 95q-13 30 -23 30
q-12 0 -29 -24q-43 -58 -87 -80t-118 -22q-8 0 -15 1q-60 4 -60 31zM382 -327q-66 -75 -113 -162q-83 76 -165 118q52 62 116 159q66 -59 162 -115z" />
    <glyph glyph-name="uni06B9.fina" unicode="&#x6b9;" horiz-adv-x="1110" 
d="M976 12q0 -273 -154 -435t-413 -162q-156 0 -252 88t-96 231q0 91 49 210.5t87 119.5q16 0 16 -19q0 -8 -12 -34q-53 -117 -53 -188q0 -86 81.5 -135.5t222.5 -49.5q219 0 357 102q84 63 84 194q0 50 -16 128q-72 58 -103 135q36 78 109 159q48 -89 92 -112t161 -23
q33 0 33 -30v-163q0 -28 -73 -28q-54 0 -120 12zM646 559q-67 -75 -114 -162q-83 77 -165 118q53 62 116 160q66 -60 163 -116zM666 -879q-66 -75 -113 -162q-83 76 -165 117q52 62 116 160q66 -59 162 -115z" />
    <glyph glyph-name="uni06BC.init" unicode="&#x6bc;" horiz-adv-x="455" 
d="M113 -4q-27 0 -49.5 -21t-22.5 -46t22 -43t53 -18q32 0 62 16t30 33q0 26 -31.5 52.5t-63.5 26.5zM16 -2q-10 1 -18 2q-58 0 -58 31v158q0 32 41 32h162q88 0 122 30q-15 40 -56 84l-37 40q-2 2 -9 10q29 77 96 167l8 11q96 -140 96 -290q0 -62 -29.5 -129t-76.5 -110
q-10 -7 -25 -12q21 -48 21 -98q0 -52 -18 -116q-58 -51 -135 -51q-48 0 -77 33.5t-29 89.5q0 52 22 118zM366 860q-67 -75 -114 -161q-82 76 -165 117q53 62 116 160q67 -60 163 -116z" />
    <glyph glyph-name="uni06BC.medi" unicode="&#x6bc;" horiz-adv-x="455" 
d="M113 -4q-27 0 -49.5 -21t-22.5 -46t22 -43t53 -18q32 0 62 16t30 33q0 26 -31.5 52.5t-63.5 26.5zM16 -1h-1q-8 0 -16 1q-58 4 -58 31v158q0 32 41 32h104q91 0 171 107q22 28 32 28q11 0 17 -21l12 -49q10 -38 26 -51.5t50 -13.5h77q44 0 44 -30v-163q0 -11 -21.5 -19.5
t-47.5 -8.5q-129 0 -172 95q-13 30 -24 30t-28 -24q-10 -14 -21 -26q4 -4 7 -9q45 -68 45 -142q0 -52 -18 -116q-58 -51 -135 -51q-48 0 -77 33.5t-29 89.5q0 52 22 119zM337 703q-66 -75 -114 -162q-82 76 -164 117q52 63 115 160q67 -59 163 -115z" />
    <glyph glyph-name="uni06BC.fina" unicode="&#x6bc;" horiz-adv-x="1110" 
d="M646 559q-67 -75 -114 -162q-83 77 -165 118q53 62 116 160q66 -60 163 -116zM465 -583q-6 0 -12 -1q-21 -3 -39 -20q-23 -21 -23 -46t22 -43t53 -18q32 0 62 16t30 33q0 26 -31 53q-31 25 -62 26zM365 -583q-126 11 -208 86q-96 88 -96 231q0 91 49 210.5t87 119.5
q16 0 16 -19q0 -8 -12 -34q-53 -117 -53 -188q0 -86 81.5 -135.5t222.5 -49.5q219 0 357 102q84 63 84 194q0 50 -16 128q-72 58 -103 135q36 78 109 159q48 -89 92 -112t161 -23q33 0 33 -30v-163q0 -28 -73 -28q-54 0 -120 12q0 -273 -154 -435q-98 -103 -237 -140
q18 -45 18 -92q0 -52 -18 -116q-58 -51 -135 -51q-48 0 -77 33.5t-29 89.5q0 51 21 116z" />
    <glyph glyph-name="uni06BD.init" unicode="&#x6bd;" horiz-adv-x="455" 
d="M186 708q-77 67 -147 110q48 59 103 147q45 -51 101 -85q42 53 73 107q75 -71 139 -109q-47 -60 -91 -152q-60 55 -110 86q-34 -42 -68 -104zM231 954l-37 29q-52 41 -103 71q47 67 91 165q73 -73 140 -113q-53 -81 -91 -152zM265 251q-15 40 -56 84l-37 40q-2 2 -9 10
q29 77 96 167l8 11q96 -140 96 -290q0 -62 -29.5 -129t-76.5 -110q-32 -22 -118 -28q-19 -2 -52 -5q-60 -5 -89 -1q-58 0 -58 31v158q0 32 41 32h162q88 0 122 30z" />
    <glyph glyph-name="uni06BD.medi" unicode="&#x6bd;" horiz-adv-x="455" 
d="M179 538q-77 66 -147 110q47 58 102 147q46 -51 101 -85q42 53 73 106q75 -70 139 -108q-46 -60 -91 -152q-59 55 -110 86q-34 -42 -67 -104zM223 783l-37 30q-52 41 -103 71q48 67 91 165q71 -72 140 -114q-52 -79 -91 -152zM-59 31v158q0 32 41 32h104q91 0 172 107
q21 28 31 28q12 0 17 -21l13 -49q10 -38 25.5 -51.5t49.5 -13.5h77q44 0 44 -30v-163q0 -11 -21 -19.5t-47 -8.5q-129 0 -173 95q-13 30 -23 30q-12 0 -29 -24q-43 -58 -87 -80t-120 -22q-8 0 -15 1q-59 4 -59 31z" />
    <glyph glyph-name="uni06BD.fina" unicode="&#x6bd;" horiz-adv-x="1110" 
d="M1169 31q0 -6 -5.5 -11.5t-14.5 -10t-19.5 -7t-19.5 -2.5q-40 0 -72 4.5t-55 7.5q0 -57 -9.5 -124t-34 -134t-66.5 -129t-106.5 -110t-155.5 -76.5t-212 -28.5q-67 0 -128 21.5t-107.5 62t-74.5 98.5t-28 132q0 37 7.5 76.5t19 77t26.5 71t30.5 59t29 40.5t23.5 15
t15.5 -12.5t-7.5 -40.5q-25 -54 -40 -101t-15 -89q0 -53 30 -89t74.5 -58t95.5 -31t94 -9q31 0 72 3t88 13t97.5 28.5t101.5 50.5q52 32 74 85t22 121q0 25 -1 42.5t-3 32t-5 26.5t-7 26q-14 11 -29.5 26.5t-29.5 33.5t-26 37.5t-18 38.5q20 43 50 85t61 76
q21 -41 39.5 -67.5t43.5 -41.5t61 -20.5t91 -5.5q16 0 29.5 -7.5t13.5 -22.5v-162zM442.5 724.5q-35.5 27.5 -75.5 47.5q29 37 51 78t39 84q31 -31 66 -60t73 -51q-25 -37 -47 -75t-39 -80q-32 29 -67.5 56.5zM392 484q-37 29 -79 51q31 34 55.5 72.5t49.5 76.5
q17 -28 45.5 -47.5t54.5 -38.5q42 48 74 107q32 -32 66.5 -60.5t74.5 -48.5q-31 -34 -51.5 -74.5t-40.5 -81.5q-25 25 -52.5 48t-58.5 40q-21 -23 -36.5 -49.5t-30.5 -54.5q-34 31 -71 60z" />
    <glyph glyph-name="uni06BF.init" unicode="&#x6bf;" horiz-adv-x="1171" 
d="M745 910q-67 -75 -114 -162q-82 76 -165 117q53 62 116 160q67 -59 163 -115zM556 353q-142 83 -286 83q-73 0 -130 -20l-32 -11q-8 -3 -15 -3q-16 0 -16 16q0 22 48 98q76 121 182 121q50 0 123 -32l73 -33q151 -68 262 -95t242 -27l113 -1l-70 -192q-66 5 -105 5
q-149 0 -302.5 -37.5t-266.5 -100.5l-72 -40q-86 -49 -150 -66.5t-152 -17.5q-62 0 -62 31v158q0 32 41 32h116q79 4 177 38l91 31l89 32q54 20 102 31zM692.5 -392.5q35.5 -27.5 75.5 -47.5q-29 -37 -51 -78t-39 -84q-31 31 -66 60t-73 50q24 38 46.5 76t39.5 80
q32 -29 67.5 -56.5zM742.5 -152q36.5 -29 78.5 -51q-31 -34 -55 -72.5t-49 -76.5q-17 28 -46 47.5t-55 38.5q-21 -25 -39.5 -51.5t-33.5 -55.5q-32 32 -66.5 60.5t-75.5 48.5q31 34 52 74.5t41 80.5q24 -24 51.5 -47.5t58.5 -40.5q22 23 37 50t31 55q34 -31 70.5 -60z" />
    <glyph glyph-name="uni06BF.medi" unicode="&#x6bf;" horiz-adv-x="1252" 
d="M714 978q-66 -75 -113 -162q-83 77 -165 118q52 62 116 160q66 -60 162 -116zM95 221q79 4 176 38l90 30l87 32q42 15 104 35q-159 80 -285 80q-73 0 -129 -20l-32 -11q-9 -3 -15 -3q-16 0 -16 16q0 22 48 98q76 121 181 121q59 0 148 -37l100 -42q206 -87 433 -87
q62 0 147 6l31 3l-68 -202h-176q0 -57 58 -57h291q43 0 43 -30v-163q0 -9 -19.5 -18.5t-38.5 -9.5h-285q-81 0 -130 39.5t-49 104.5q0 61 34 115l8 14l-23 -3q-223 -27 -434 -146l-72 -40q-86 -48 -150 -66t-151 -18q-60 0 -60 31v158q0 32 41 32h113zM692.5 -454
q35.5 -28 75.5 -48q-29 -37 -51 -77.5t-39 -84.5q-31 31 -66 60t-73 51q24 37 46.5 75.5t39.5 80.5q32 -29 67.5 -57zM742.5 -214q36.5 -29 78.5 -50q-31 -34 -55 -72.5t-49 -77.5q-17 28 -46 48t-55 38q-21 -24 -39.5 -50.5t-33.5 -55.5q-32 32 -66.5 60t-75.5 48
q31 34 52 75t41 81q24 -25 51.5 -48t58.5 -40q22 23 37 50t31 54q34 -31 70.5 -60z" />
    <glyph glyph-name="uni06BF.fina" unicode="&#x6bf;" horiz-adv-x="1251" 
d="M845 979q-67 -75 -114 -162q-82 77 -165 118q53 62 116 160q67 -60 163 -116zM517 321q-102 33 -202 33q-54 0 -86 -14.5t-65 -53.5q-16 -19 -28 -19q-14 0 -14 17q0 24 29 88.5t55 100.5q77 103 213 103q48 0 120 -15l78 -17q119 -26 326 -26l29 1l64 2l46 1q12 0 35 4
l-88 -200q-15 0 -54 -5l-44 -6q-36 -5 -84 -13q5 -81 71 -81h349q44 0 44 -30v-163q0 -9 -19.5 -18.5t-38.5 -9.5h-314q-88 0 -144 39t-56 100q0 62 39 151q-244 -56 -412 -214t-168 -331q0 -190 172.5 -301.5t465.5 -111.5q165 0 356 14l148 12q45 3 67 3q28 0 28 -10
q0 -14 -77 -62.5t-158 -86.5q-232 -106 -416 -106q-708 0 -708 531q0 405 397 664q15 10 44 30zM747.5 -362q35.5 -28 75.5 -48q-29 -37 -51 -77.5t-39 -83.5q-31 31 -66 60t-73 50q25 37 47 75.5t39 80.5q32 -29 67.5 -57zM798 -121q37 -29 79 -51q-31 -34 -55.5 -72.5
t-49.5 -77.5q-17 28 -45.5 48t-54.5 38q-45 -50 -74 -106q-32 32 -66.5 60.5t-74.5 48.5q31 34 51.5 74.5t40.5 80.5q25 -25 52 -48t58 -40q22 23 37.5 50t30.5 55q34 -31 71 -60z" />
    <glyph glyph-name="uni06C2.fina" unicode="&#x6c2;" horiz-adv-x="582" 
d="M471 30q-43 33 -77.5 103.5t-90 70.5t-120.5 -92t-76 -212q-35 53 -37 151q2 112 55 201.5t148 122t142 -65.5q38 -80 133 -88h75q11 0 11 -30v-163q0 -11 -5 -19.5t-12 -8.5l-59 -1q-58 5 -87 31zM289 794q-24 38 -58 38q-26 0 -52 -14.5t-26 -29.5q0 -19 34.5 -40
t65.5 -21q76 0 211 58l-4 -13q-25 -105 -99 -128q-197 -60 -227 -150q-32 23 -32 44q0 33 38 95q-73 39 -73 92q0 67 72 140.5t137 73.5q30 0 51 -19t21 -47q0 -44 -59 -79z" />
    <glyph glyph-name="uni06C3.fina" unicode="&#x6c3;" horiz-adv-x="582" 
d="M471 30q-43 33 -77.5 103.5t-90 70.5t-120.5 -92t-76 -212q-35 53 -37 151q2 112 55 201.5t148 122t142 -65.5q38 -80 133 -88h75q11 0 11 -30v-163q0 -11 -5 -19.5t-12 -8.5l-59 -1q-58 5 -87 31zM222 496q-91 77 -164 121q63 81 112 165q69 -67 114 -94q36 42 81 116
q61 -58 156 -119q-37 -48 -74 -121q-9 -17 -26 -50l-26 23q-55 49 -95 76q-45 -55 -78 -117z" />
    <glyph glyph-name="uni06C4.fina" unicode="&#x6c4;" horiz-adv-x="860" 
d="M692 227q-7 45 -35 85.5t-52 40.5q-21 0 -44.5 -36.5t-23.5 -69.5q0 -6 2 -19q37 -15 79 -15t74 14zM419 -283l16 6q8 4 16 10q30 21 37 50q6 23 -7.5 47.5t-35.5 30.5q-22 5 -43 -10.5t-27 -42.5q-7 -28 0.5 -58t22.5 -34q10 -2 21 1zM576 -180q70 73 91 178
q-50 -3 -73 -3q-202 0 -202 140q0 88 98 222.5t162 134.5q44 0 80 -73.5t52 -197.5h92q44 0 44 -30v-163q0 -9 -19.5 -18.5t-39.5 -9.5h-98q-46 -192 -152 -331q-67 -88 -158.5 -143t-170.5 -55q-118 0 -236 148q-46 58 -46 90q0 19 14 19h2q8 -1 16 -4l44 -16
q63 -23 154 -23q57 0 109 10q-21 9 -48 46.5t-10 105.5q10 42 46 60t85 6q60 -15 134 -69q18 -13 30 -24z" />
    <glyph glyph-name="uni06CA.fina" unicode="&#x6ca;" horiz-adv-x="860" 
d="M920 31q0 -6 -6 -11.5t-15 -10t-19.5 -7t-19.5 -2.5h-94q-31 -133 -87 -232.5t-123.5 -166t-140 -100t-136.5 -33.5q-34 0 -68 14.5t-65 37t-57.5 50t-46.5 53t-31 45.5t-11 29q0 19 4 25.5t14 5t27 -9t42 -15t60 -14t82 -6.5q73 0 146 19.5t134.5 59t104.5 99t56 139.5
q-76 -8 -129 -2t-86 24.5t-47.5 49t-14.5 71.5q0 22 12.5 57t33 74.5t47.5 79t56.5 71t59 51.5t55.5 20q19 0 36 -15.5t31 -40t25 -55.5t19 -61t12.5 -57t5.5 -44h91q15 0 29 -7.5t14 -22.5v-162zM681 274q-10 23 -22.5 41t-26.5 29.5t-26 11.5q-11 0 -24 -12t-24 -31
t-16.5 -41t-0.5 -41q12 -8 32.5 -12t44.5 -4q19 0 38.5 3t37.5 11q-3 22 -13 45zM576 769q-77 67 -147 110q48 59 103 147q45 -51 101 -85q42 53 73 107q75 -71 139 -109q-47 -60 -91 -152q-60 55 -110 86q-34 -42 -68 -104z" />
    <glyph glyph-name="uni06CD.fina" unicode="&#x6cd;" horiz-adv-x="1473" 
d="M477 65q3 1 5 1q3 0 8 -3l3 -2q5 -5 5 -12q0 -1 -2 -6l-3 -8q-2 -7 -7 -16l-11 -20l-14 -27q-55 -103 -55 -174q0 -200 360 -200q145 0 277.5 23.5t186.5 59.5l46 30q7 4 9 8l1 3v5q-4 7 -149 40q-143 33 -149 59q13 113 105 240q112 155 248 155h146q45 0 45 -30v-158
q0 -14 -19 -23l-15 -7q-6 -3 -25 -3q-6 -1 -128 -1q-80 0 -139.5 -15.5t-59.5 -36.5q0 -19 60 -35l79 -21q9 -3 68 -17q89 -22 89 -62q0 -56 -46.5 -127.5t-113.5 -120.5q-107 -76 -265 -127.5t-287 -51.5q-200 0 -306.5 73.5t-106.5 211.5q0 73 20 145q-66 -51 -142 -51
q-38 0 -69.5 16.5t-42.5 41.5q-12 27 -3 116q40 -13 71 -13q82 0 151 30q66 28 167 105q1 1 3 2q2 2 5 3z" />
    <glyph glyph-name="uni06CE.init" unicode="&#x6ce;" horiz-adv-x="455" 
d="M164 -431q-77 66 -147 110q48 58 103 147q46 -51 101 -85q42 53 73 106q75 -70 139 -108q-46 -60 -91 -152q-59 55 -110 86q-34 -42 -68 -104zM266 251q-15 40 -56 84l-37 40l-10 10q30 77 97 167l7 11q97 -140 97 -290q0 -62 -30 -129t-76 -110q-33 -22 -118 -28
q-19 -2 -52 -5q-60 -5 -89 -1q-59 0 -59 31v158q0 32 41 32h163q88 0 122 30zM438 1072q-107 -156 -188 -303h-67q-85 154 -185 303l47 38q27 -21 171 -161q164 154 174 161z" />
    <glyph glyph-name="uni06CE.medi" unicode="&#x6ce;" horiz-adv-x="455" 
d="M-59 31v158q0 32 42 32h102q91 0 172 107q21 28 31 28q12 0 17 -21l13 -49q10 -38 25.5 -51.5t49.5 -13.5h78q44 0 44 -30v-163q0 -11 -21.5 -19.5t-47.5 -8.5q-129 0 -173 95q-13 30 -23 30q-12 0 -29 -24q-43 -58 -87 -80t-118 -22q-8 0 -15 1q-60 4 -60 31zM159 -429
q-77 67 -147 110q48 58 103 147q45 -51 101 -85q42 53 72 106q76 -70 140 -108q-47 -60 -92 -152q-59 55 -109 86q-34 -42 -68 -104zM438 852q-107 -156 -188 -303h-67q-85 154 -185 303l47 38q27 -21 171 -161q164 154 174 161z" />
    <glyph glyph-name="uni06CE.fina" unicode="&#x6ce;" horiz-adv-x="1201" 
d="M1030 -278v5q-4 7 -149 40q-143 33 -149 59q13 113 105 240q112 155 248 155h126q45 0 45 -30v-158q0 -14 -19 -23l-15 -7q-6 -3 -25 -3q-6 -1 -108 -1q-80 0 -139.5 -15.5t-59.5 -36.5q0 -19 60 -35l79 -21q9 -3 68 -17q89 -22 89 -62q0 -56 -46.5 -127.5t-113.5 -120.5
q-107 -76 -265 -127.5t-287 -51.5q-200 0 -306.5 73.5t-106.5 211.5q0 182 127 361q25 35 38 35q3 0 8 -3l3 -2q5 -5 5 -12q0 -1 -2 -6l-3 -8q-2 -7 -7 -16l-11 -20l-14 -27q-55 -103 -55 -174q0 -200 360 -200q145 0 277.5 23.5t186.5 59.5l46 30q7 4 9 8zM592 512
q-107 -156 -188 -303h-67q-85 154 -185 303l47 38q27 -21 171 -161q164 154 174 161z" />
    <glyph glyph-name="uni06CF.fina" unicode="&#x6cf;" horiz-adv-x="860" 
d="M920 31q0 -6 -6 -11.5t-15 -10t-19.5 -7t-19.5 -2.5h-94q-31 -133 -87 -232.5t-123.5 -166t-140 -100t-136.5 -33.5q-34 0 -68 14.5t-65 37t-57.5 50t-46.5 53t-31 45.5t-11 29q0 19 4 25.5t14 5t27 -9t42 -15t60 -14t82 -6.5q73 0 146 19.5t134.5 59t104.5 99t56 139.5
q-76 -8 -129 -2t-86 24.5t-47.5 49t-14.5 71.5q0 22 12.5 57t33 74.5t47.5 79t56.5 71t59 51.5t55.5 20q19 0 36 -15.5t31 -40t25 -55.5t19 -61t12.5 -57t5.5 -44h91q15 0 29 -7.5t14 -22.5v-162zM681 274q-10 23 -22.5 41t-26.5 29.5t-26 11.5q-11 0 -24 -12t-24 -31
t-16.5 -41t-0.5 -41q12 -8 32.5 -12t44.5 -4q19 0 38.5 3t37.5 11q-3 22 -13 45zM581.5 842q-41.5 31 -87.5 51q34 35 62 77.5t54 84.5q35 -35 76.5 -64.5t87.5 -54.5q-34 -35 -63 -75t-49 -85q-39 35 -80.5 66z" />
    <glyph glyph-name="uni06D1.init" unicode="&#x6d1;" horiz-adv-x="455" 
d="M-59 193q0 15 13.5 22.5t29.5 7.5h163q12 0 29 1.5t34.5 5.5t32.5 9.5t23 14.5q-21 43 -46.5 72.5t-57.5 60.5q21 50 48 95t56 85q44 -65 71.5 -143t27.5 -162q0 -24 -8.5 -55.5t-22.5 -64t-33.5 -61t-40.5 -46.5q-8 -7 -26.5 -13.5t-49.5 -11t-76.5 -7.5t-107.5 -3
q-9 0 -19.5 2.5t-19.5 7t-14.5 10t-5.5 11.5v162zM303.5 -454q35.5 -28 75.5 -48q-29 -37 -51 -77.5t-39 -84.5q-31 31 -66 60t-73 51q24 37 46.5 75.5t39.5 80.5q32 -29 67.5 -57zM353.5 -214q36.5 -29 78.5 -50q-31 -34 -55.5 -72.5t-48.5 -77.5q-17 28 -46 48t-55 38
q-21 -24 -39.5 -50.5t-33.5 -55.5q-32 32 -66.5 60t-75.5 48q31 34 51.5 75l40.5 81q25 -25 52.5 -48t58.5 -40q22 23 37 50t31 54q34 -31 70.5 -60z" />
    <glyph glyph-name="uni06D1.medi" unicode="&#x6d1;" horiz-adv-x="455" 
d="M-59 193q0 15 13.5 22.5t29.5 7.5h100q48 0 81.5 21t56.5 46.5t38.5 46.5t28.5 21t17 -21t10 -46.5t20 -46.5t47 -21h88q16 0 29.5 -7.5t13.5 -22.5v-162q0 -6 -6 -11.5t-14.5 -10t-19 -7t-19.5 -2.5q-34 0 -59.5 5.5t-45 14t-33 20t-22.5 23.5t-15.5 23t-11 19.5
t-8.5 14t-8 5.5q-11 0 -26.5 -16.5t-37.5 -45.5q-15 -23 -60.5 -43t-127.5 -20q-9 0 -19.5 2.5t-19.5 7t-14.5 10t-5.5 11.5v162zM303.5 -454q35.5 -28 75.5 -48q-29 -37 -51 -77.5t-39 -84.5q-31 31 -66 60t-73 51q24 37 46.5 75.5t39.5 80.5q32 -29 67.5 -57zM353.5 -214
q36.5 -29 78.5 -50q-31 -34 -55.5 -72.5t-48.5 -77.5q-17 28 -46 48t-55 38q-21 -24 -39.5 -50.5t-33.5 -55.5q-32 32 -66.5 60t-75.5 48q31 34 51.5 75l40.5 81q25 -25 52.5 -48t58.5 -40q22 23 37 50t31 54q34 -31 70.5 -60z" />
    <glyph glyph-name="uni06D1.fina" unicode="&#x6d1;" horiz-adv-x="1201" 
d="M1030 -278v5q-4 7 -149 40q-143 33 -149 59q13 113 105 240q112 155 248 155h126q45 0 45 -30v-158q0 -14 -19 -23l-15 -7q-6 -3 -25 -3q-6 -1 -108 -1q-80 0 -139.5 -15.5t-59.5 -36.5q0 -19 60 -35l79 -21q9 -3 68 -17q89 -22 89 -62q0 -56 -46.5 -127.5t-113.5 -120.5
q-107 -76 -265 -127.5t-287 -51.5q-200 0 -306.5 73.5t-106.5 211.5q0 182 127 361q25 35 38 35q3 0 8 -3l3 -2q5 -5 5 -12q0 -1 -2 -6l-3 -8q-2 -7 -7 -16l-11 -20l-14 -27q-55 -103 -55 -174q0 -200 360 -200q145 0 277.5 23.5t186.5 59.5l46 30q7 4 9 8zM653.5 -974
q35.5 -28 75.5 -48q-29 -37 -51 -77.5t-39 -84.5q-31 31 -66 60t-73 51q24 37 46.5 75.5t39.5 80.5q32 -29 67.5 -57zM703.5 -734q36.5 -29 78.5 -50q-31 -34 -55.5 -72.5t-48.5 -77.5q-17 28 -46 48t-55 38q-21 -24 -39.5 -50.5t-33.5 -55.5q-32 32 -66.5 60t-75.5 48
q31 34 51.5 75l40.5 81q25 -25 52.5 -48t58.5 -40q22 23 37 50t31 54q34 -31 70.5 -60z" />
    <glyph glyph-name="uni06D5.fina" unicode="&#x6d5;" horiz-adv-x="655" 
d="M428 240q-10 -9 -15 -14l-28 -28l-33 -32q-32 -32 -65 -32q-36 0 -103.5 14t-85.5 25q-30 18 -30 59q0 91 96 197t214 146l-14 83l97 129l70 -452l3 -27q9 -56 33.5 -71.5t104.5 -15.5q43 0 43 -30v-163q0 -28 -75 -28q-81 0 -123.5 33t-62.5 111l-16 61q-3 10 -10 35z
M216 354q2 -6 13 -8l63 -12q46 -9 87 -9q20 0 26.5 12.5t6.5 49.5q0 83 -27 83q-22 0 -65.5 -23.5t-67.5 -49.5l-28 -30q-8 -9 -8 -13z" />
    <glyph glyph-name="uni06EE.fina" unicode="&#x6ee;" horiz-adv-x="895" 
d="M510 810l124 143l65 -482q34 -250 140 -250h71q44 0 44 -30v-163q0 -29 -78 -29q-97 0 -151.5 41.5t-75.5 130.5q-10 44 -27 44q-14 0 -34 -35q-99 -167 -310 -167q-85 0 -152.5 20.5t-72.5 47.5q3 78 28.5 158.5t45.5 80.5q6 0 10 -21q8 -41 53 -63t119 -22
q151 0 207.5 38t56.5 138q0 33 -10 111l-10 75q-7 54 -43 234zM718 1043q-10 7 -174 161q-144 -140 -171 -161l-47 38q100 149 185 303h67q81 -147 188 -303z" />
    <glyph glyph-name="uni06EF.fina" unicode="&#x6ef;" horiz-adv-x="768" 
d="M584 12q-24 56 -118 134l100 177q31 -58 78 -80t140 -22q44 0 44 -30v-163q0 -9 -19.5 -18.5t-39.5 -9.5h-59q-32 0 -42 -39q-62 -249 -145 -350q-125 -151 -276 -151q-52 0 -145 44t-102 72v3q0 11 14 11h2q2 0 14 -2q16 -2 38 -2q77 0 179.5 47t177.5 116
q118 110 159 263zM591 524q-10 7 -174 161q-144 -140 -171 -161l-47 38q100 149 185 303h67q81 -147 188 -303z" />
    <glyph glyph-name="uni06FA.init" unicode="&#x6fa;" horiz-adv-x="1147" 
d="M671 637q-77 66 -147 110q47 58 103 147q45 -51 101 -85q41 53 72 106q76 -70 139 -108q-46 -60 -91 -152q-59 55 -110 86q-33 -42 -67 -104zM716 882l-37 30q-52 41 -103 71q47 67 90 165q72 -72 140 -114q-52 -79 -90 -152zM968 265q-15 53 -56 100q43 100 101 150
q67 -68 67 -182q0 -130 -52.5 -202t-146.5 -72q-82 0 -175 79q-96 -139 -237 -139q-111 0 -186 111q-15 22 -25 22q-11 0 -49 -47q-70 -85 -209 -85q-60 0 -60 31v158q0 21 17.5 27.5t73.5 6.5q165 0 226 87q32 45 43 45t23 -39q29 -95 145 -95q85 0 139.5 32t100.5 108
q35 58 54 58q15 0 22 -21l9 -30q32 -103 167 -103h8zM767.5 -224q35.5 -28 75.5 -48q-29 -37 -51 -77.5t-39 -84.5q-31 31 -66 60t-73 51q24 37 46.5 75.5t39.5 80.5q32 -29 67.5 -57z" />
    <glyph glyph-name="uni06FA.medi" unicode="&#x6fa;" horiz-adv-x="1139" 
d="M710 540q-77 66 -147 110q47 58 103 147q45 -51 101 -85q41 53 72 106q76 -70 139 -108q-46 -60 -91 -152q-59 55 -110 86q-33 -42 -67 -104zM755 785l-38 30q-51 41 -103 71q48 67 91 165q71 -72 140 -114q-52 -79 -90 -152zM-59 31v158q0 32 41 32l50 1
q83 0 141.5 27.5t101.5 86.5q14 19 24 19q12 0 16 -21q14 -63 45.5 -88t98.5 -25q75 0 121 23t90 82q22 29 36 29q13 0 19 -21q22 -77 41.5 -101t61.5 -24q79 0 112 110q12 36 30 36q12 0 19 -18l11 -28q32 -88 155 -88q44 0 44 -30v-163q0 -29 -71 -29q-85 0 -135 86
q-15 26 -25 26q-11 0 -37 -38q-50 -74 -117 -74t-103 70l-19 37q-13 26 -27 26q-13 0 -38 -38q-63 -95 -166 -95q-98 0 -171 99q-25 33 -35 33q-12 0 -45 -43q-67 -88 -202 -88q-67 0 -67 31zM797.5 -223q35.5 -28 75.5 -48q-29 -37 -51 -77.5t-39 -84.5q-31 31 -66 60
t-73 51q24 37 46.5 75.5t39.5 80.5q32 -29 67.5 -57z" />
    <glyph glyph-name="uni06FA.fina" unicode="&#x6fa;" horiz-adv-x="1792" 
d="M1366 543q-77 67 -147 110q47 58 103 147q45 -51 100 -85q42 53 73 107q75 -71 139 -109q-46 -60 -91 -152q-59 55 -110 86q-34 -42 -67 -104zM1411 789l-38 29q-51 41 -103 71q48 67 91 165q71 -72 140 -114q-52 -79 -90 -151zM980 13q0 -275 -153 -436.5t-413 -161.5
q-156 0 -254.5 86.5t-98.5 222.5q0 95 49.5 216.5t88.5 121.5q15 0 15 -19q0 -10 -10 -32q-55 -121 -55 -191q0 -81 84.5 -132t218.5 -51q219 0 358 99q88 63 88 210q0 48 -19 114q-73 66 -100 134q44 99 109 160q39 -81 81 -107t133 -26q85 0 132 22t93 83q22 29 36 29
q13 0 19 -21q21 -77 41 -101t62 -24q79 0 112 110q11 36 29 36q13 0 20 -18l10 -28q33 -88 151 -88h11q33 0 33 -30v-163q0 -11 -21.5 -19.5t-47.5 -8.5q-82 0 -132 85q-15 26 -25 26q-11 0 -37 -38q-51 -74 -117 -74q-67 0 -103 70l-19 37q-13 26 -27 26q-13 0 -38 -38
q-63 -95 -175 -95q-42 0 -129 14zM1427.5 -219q35.5 -28 75.5 -48q-29 -37 -51 -77.5t-39 -84.5q-31 31 -66 60t-73 51q24 37 46.5 75.5t39.5 80.5q32 -29 67.5 -57z" />
    <glyph glyph-name="uni06FB.init" unicode="&#x6fb;" horiz-adv-x="1473" 
d="M606 221q166 210 320 326t267 116q90 0 151 -61.5t61 -151.5q0 -188 -174 -295q-109 -68 -285.5 -111.5t-339.5 -43.5l-3 -6l-27 -57l-21 -42q-20 -41 -39 -41q-28 0 -28 39q0 47 29 107q-140 0 -206 78l-37 43q-9 11 -18 11q-10 0 -42 -43q-68 -89 -210 -89
q-63 0 -63 31v158q0 32 42 32l57 1q167 0 235 112q12 22 24 22t18 -21l13 -43q21 -71 126 -71h150zM1091 1017q-67 -75 -114 -162q-75 70 -162 118q69 91 113 160q67 -60 163 -116zM726 212q157 0 320 50q85 27 163 65t78 54q0 24 -62.5 52t-116.5 28q-95 0 -200.5 -69
t-181.5 -180zM1092 -327q-66 -75 -113 -162q-83 76 -165 118q52 62 116 159q66 -59 162 -115z" />
    <glyph glyph-name="uni06FB.medi" unicode="&#x6fb;" horiz-adv-x="1479" 
d="M1087 917q-66 -75 -114 -162q-82 77 -164 118q52 62 115 160q67 -60 163 -116zM722 212q157 0 320 50q86 27 163.5 65t77.5 54q0 24 -62.5 52t-116.5 28q-95 0 -200.5 -69t-181.5 -180zM513 0q-136 0 -203 78l-36 43q-10 11 -18 11q-10 0 -43 -43q-68 -89 -210 -89
q-62 0 -62 31v158q0 32 41 32l58 1q167 0 234 112q13 22 24 22q12 0 18 -21l13 -43q22 -71 127 -71h149q165 209 319.5 325.5t265.5 116.5q89 0 150 -61t61 -150q0 -54 -30 -129.5t-64 -108.5q-5 -4 -5 -7l1 -3q1 -1 4 -1q7 0 22 4q4 1 22 4l23 4l26 2l22 3q14 1 43 1h29
q44 0 44 -30v-163q0 -29 -107 -29q-159 0 -418 22q-41 4 -55 4q-10 0 -71 -4l-91 -4l-133 -13q-16 -2 -61 -4l-3 -6l-27 -57l-21 -42q-19 -41 -39 -41q-28 0 -28 39q0 47 29 107zM1092 -327q-66 -75 -113 -162q-83 76 -165 118q52 62 116 159q66 -59 162 -115z" />
    <glyph glyph-name="uni06FB.fina" unicode="&#x6fb;" horiz-adv-x="2140" 
d="M1746 919q-67 -75 -114 -162q-83 76 -165 118q53 62 116 159q66 -59 163 -115zM1383 212q158 0 320 50q86 27 163.5 65t77.5 54q0 24 -62 52t-117 28q-95 0 -200 -69t-182 -180zM1264 0l-4 -6l-27 -57l-21 -42q-19 -41 -38 -41q-29 0 -29 39q0 47 29 107q-101 0 -171 9
l-25 4q0 -274 -154.5 -437t-414.5 -163q-155 0 -251.5 88t-96.5 228q0 90 49.5 212t85.5 122q17 0 17 -19q0 -8 -12 -34q-52 -112 -52 -181q0 -89 80.5 -141.5t215.5 -52.5q99 0 205 30.5t168 76.5q76 58 76 179q0 83 -15 139q-72 57 -103 136q41 83 109 159l9 -16
q41 -74 81.5 -96t134.5 -22h157q164 209 318.5 325.5t266.5 116.5q88 0 149.5 -61t61.5 -150q0 -54 -30 -129.5t-65 -108.5q-5 -4 -5 -7l1 -3q2 -1 4 -1q7 0 22 4q4 1 22 4l23 4l26 2l22 3q14 1 43 1h30q43 0 43 -30v-163q0 -29 -92 -29q-168 0 -433 22q-42 4 -55 4
q-10 0 -71 -4l-91 -4l-133 -13q-15 -2 -60 -4zM1742 -327q-66 -75 -113 -162q-83 76 -165 118q52 62 116 159q66 -59 162 -115z" />
    <glyph glyph-name="uni06FC.init" unicode="&#x6fc;" horiz-adv-x="909" 
d="M527 1046q-66 -75 -114 -162q-82 76 -164 117q52 62 115 160q67 -60 163 -115zM842 498q0 -134 -23 -212l-361 -169q-250 -117 -445 -117q-73 0 -73 31v158q0 32 41 32l105 1q94 7 150 20q-88 62 -88 150q0 50 40 123t99 132q106 105 205 105q85 0 169 -75
q78 -70 78 -111q0 -19 -18 -19q-6 0 -33 10q-71 25 -125 25q-81 0 -170 -32t-89 -61q0 -48 63 -93t135 -49q72 13 340 151zM613 -194q-67 -75 -114 -162q-83 76 -165 118q53 62 116 159q66 -59 163 -115z" />
    <glyph glyph-name="uni06FC.medi" unicode="&#x6fc;" horiz-adv-x="797" 
d="M541 920q-66 -75 -113 -162q-83 76 -165 118q52 62 116 159q66 -59 162 -115zM292 278q-43 35 -139 59q20 109 96 173t184 64q91 0 153.5 -43t62.5 -106q0 -74 -114 -125q32 -44 92.5 -61.5t185.5 -17.5h11q32 0 32 -30v-163q0 -9 -19.5 -18.5t-38.5 -9.5
q-77 -12 -141.5 16t-160.5 113q-51 46 -74 46t-59 -24q-148 -100 -220.5 -130.5t-142.5 -20.5q-59 0 -59 31v158q0 32 42 32q15 3 108 3q146 0 201 54zM553 -194q-67 -75 -114 -162q-83 76 -165 118q53 62 116 159q66 -59 163 -115z" />
    <glyph glyph-name="uni06FC.fina" unicode="&#x6fc;" horiz-adv-x="967" 
d="M641 897q-67 -75 -114 -162q-82 76 -165 118q53 62 116 159q67 -59 163 -115zM536 170q-91 -33 -190 -141q-147 -159 -147 -360q0 -112 67.5 -187t212.5 -124q200 -67 508 -67q141 0 223 14l26 4q9 1 17 1q28 0 28 -25t-72 -70q-234 -145 -478 -145q-161 0 -306 55
t-231 150q-118 130 -118 338q0 316 334 631q-76 62 -148 62q-4 0 -15 -1q20 117 98.5 187.5t188.5 70.5q88 0 162 -51.5t74 -112.5q0 -66 -115 -127q30 -29 68 -40t107 -11h146q44 0 44 -30v-163q0 -9 -19.5 -18.5t-38.5 -9.5h-164q-167 0 -262 170zM713 -194
q-67 -75 -114 -162q-83 76 -165 118q53 62 116 159q66 -59 163 -115z" />
    <glyph glyph-name="uni06FF.init" unicode="&#x6ff;" horiz-adv-x="893" 
d="M573 460q-9 -5 -11 -17l-2 -18q-9 -65 -40 -112q153 -62 212 -62q19 0 19 14q0 28 -75.5 110.5t-102.5 84.5zM390 328q34 0 65 21.5t31 44.5q0 35 -25 73t-48 38q-37 0 -89 -41t-52 -70q0 -21 40.5 -43.5t77.5 -22.5zM227 250q-31 44 -31 85q0 93 120 223l16 18l-47 18
q9 85 35 134.5t61 49.5q43 0 122.5 -52.5t154.5 -128.5q168 -174 168 -314q0 -206 -106 -206q-33 0 -153 47q-103 40 -156 40q-70 0 -148 -78q-87 -86 -261 -86q-62 0 -62 31v158q0 32 53 32h35q146 0 199 29zM550 849q-10 7 -174 161q-144 -140 -171 -161l-47 38
q100 149 185 303h67q81 -147 188 -303z" />
    <glyph glyph-name="uni06FF.medi" unicode="&#x6ff;" horiz-adv-x="797" 
d="M570 -190q2 40 -91 92.5t-166 52.5q-24 0 -24 -19q0 -34 51 -104q64 -88 138 -88q32 0 61.5 21t30.5 45zM535 409q1 18 -26.5 44.5t-47.5 26.5q-33 0 -94 -72.5t-61 -112.5q0 -9 13 -9q48 0 131 47.5t85 75.5zM583 -13q56 -105 56 -182q0 -93 -60 -170t-132 -77
q-104 0 -170 109t-78 300l-46 -9l-12 54q-75 -12 -136 -12q-64 0 -64 31v158q0 28 42 32h46q115 0 184 22q40 166 137 290q52 67 113 110.5t102 43.5q33 0 45 -38t12 -140q0 -109 -41 -184t-141 -147l11 -6q136 49 362 49q43 0 43 -30v-163q0 -21 -58 -28l-68 -1l-63 -3
q-38 0 -84 -9zM680 789q-10 7 -174 161q-144 -140 -171 -161l-47 38q100 149 185 303h67q81 -147 188 -303z" />
    <glyph glyph-name="uni06FF.fina" unicode="&#x6ff;" horiz-adv-x="928" 
d="M701 -190q2 40 -91 92.5t-166 52.5q-24 0 -24 -19q0 -34 51 -104q64 -88 138 -88q32 0 61.5 21t30.5 45zM666 409q1 18 -26.5 44.5t-47.5 26.5q-33 0 -94 -72.5t-61 -112.5q0 -9 13 -9q48 0 131 47.5t85 75.5zM197 204q38 33 147 39q40 166 137 290q52 67 113 110.5
t102 43.5q33 0 45 -38t12 -140q0 -109 -41 -184t-141 -147l11 -6q136 49 362 49q43 0 43 -30v-163q0 -21 -58 -28l-68 -1l-63 -3q-38 0 -84 -9q56 -105 56 -182q0 -93 -60 -170t-132 -77q-104 0 -170 109t-78 300l-46 -9l-12 54h-2q-37 5 -68 -9q-65 -22 -85 -100
q-38 23 -38 63q0 103 57 181q28 38 61 57zM820 789q-10 7 -174 161q-144 -140 -171 -161l-47 38q100 149 185 303h67q81 -147 188 -303z" />
    <glyph glyph-name="uniFB50" unicode="&#x671;" horiz-adv-x="451" arabic-form="isolated" 
d="M123 1032l150 174l-2 -61q0 -169 11 -313l11 -134l9 -127l10 -144q4 -52 4 -90q0 -141 -45 -256q-38 -97 -74 -97q-12 0 -12 27q0 8 2 23q7 54 7 125q0 60 -9 151q-8 83 -13 136l-9 99l-17 159q-23 219 -23 328zM-20 1231q-23 14 -23 38q0 62 34.5 109t80.5 47
q14 0 37 -4l40 48q69 82 108.5 112t78.5 30q44 0 75 -31.5t31 -78.5q0 -91 -67 -159.5t-156 -68.5q-32 0 -80 11l-31 7q-25 6 -42 6q-69 0 -86 -66zM161 1407q47 -17 88 -17q49 0 84.5 18.5t35.5 42.5q0 17 -23.5 30.5t-54.5 13.5q-60 0 -130 -88z" />
    <glyph glyph-name="uniFB51" unicode="&#x671;" horiz-adv-x="498" arabic-form="final" 
d="M109 1080l138 157l61 -839q8 -101 51.5 -139t154.5 -38h11q32 0 32 -30v-163q0 -9 -19.5 -18.5t-38.5 -9.5q-39 -6 -107.5 6.5t-99.5 31.5q-47 28 -68.5 85.5t-32.5 189.5l-22 257q-16 179 -60 510zM30 1271q-23 14 -23 38q0 62 34.5 109t80.5 47q14 0 37 -4l40 48
q69 82 108.5 112t78.5 30q44 0 75 -31.5t31 -78.5q0 -91 -67 -159.5t-156 -68.5q-32 0 -80 11l-31 7q-25 6 -42 6q-69 0 -86 -66zM211 1447q47 -17 88 -17q49 0 84.5 18.5t35.5 42.5q0 17 -23.5 30.5t-54.5 13.5q-60 0 -130 -88z" />
    <glyph glyph-name="uniFB52" unicode="&#x67b;" horiz-adv-x="1593" arabic-form="isolated" 
d="M1444 680q12 -15 26 -45t26 -66t20 -74t8 -69q0 -22 -10.5 -59t-27 -76.5t-37.5 -76.5t-42 -60q-46 -32 -134.5 -66t-200 -63t-237.5 -47.5t-247 -18.5q-61 0 -123.5 6.5t-120 21t-107.5 37.5t-87 55.5t-58.5 76t-21.5 98.5q0 53 15.5 106.5t36.5 97t42 70.5t33 27
q8 0 12.5 -7.5t-0.5 -17.5q-14 -24 -26.5 -55.5t-12.5 -62.5q0 -33 22.5 -73t78 -75t149 -58.5t235.5 -23.5q94 0 189 9.5t182 24.5t162.5 33.5t131.5 36.5t88 33t32 23q0 15 -9.5 36t-23 42.5t-28.5 41.5t-25 34zM794 -437q-24 22 -51 43q-35 28 -73 48q25 35 47 71.5
t39 76.5q32 -28 67.5 -54.5t75.5 -45.5q-29 -35 -51 -73q-18 -31 -32 -64q25 -21 53 -41q35 -27 75 -46q-29 -35 -51 -73.5t-39 -79.5q-31 29 -66 57t-73 48q25 35 47 71q18 30 32 62z" />
    <glyph glyph-name="uniFB53" unicode="&#x67b;" horiz-adv-x="1618" arabic-form="final" 
d="M1677 31q0 -6 -6 -11.5t-14.5 -10t-19 -7t-19.5 -2.5q-59 0 -99.5 8t-67 24t-40.5 39t-18 52q-75 -54 -159.5 -89t-176.5 -55.5t-190 -29t-199 -8.5q-61 0 -128.5 4.5t-133 17.5t-125.5 35t-106 56.5t-74.5 83.5t-30.5 116q0 53 15.5 106.5t36.5 97t42 70.5t33 27
q8 0 12.5 -7.5t-0.5 -17.5q-14 -24 -26.5 -55.5t-12.5 -62.5q-4 -53 24 -100t100.5 -81.5t195.5 -54.5t309 -20q136 0 237 12t169 29.5t103.5 37.5t41.5 37q7 23 12 37.5t9.5 22.5t9 11t10.5 3q11 0 18 -10t16 -39q8 -23 21 -37.5t36.5 -22.5t60 -11t91.5 -3q16 0 29.5 -7.5
t13.5 -22.5v-162zM764 -437q-24 22 -51 43q-35 28 -73 48q25 35 47 71.5t39 76.5q32 -28 67.5 -54.5t75.5 -45.5q-29 -35 -51 -73q-18 -31 -32 -64q25 -21 53 -41q35 -27 75 -46q-29 -35 -51 -73.5t-39 -79.5q-31 29 -66 57t-73 48q25 35 47 71q18 30 32 62z" />
    <glyph glyph-name="uniFB54" unicode="&#x67b;" horiz-adv-x="455" arabic-form="initial" 
d="M-59 193q0 15 13.5 22.5t29.5 7.5h163q12 0 29 1.5t34.5 5.5t32.5 9.5t23 14.5q-21 43 -46.5 72.5t-57.5 60.5q21 50 48 95t56 85q44 -65 71.5 -143t27.5 -162q0 -24 -8.5 -55.5t-22.5 -64t-33.5 -61t-40.5 -46.5q-8 -7 -26.5 -13.5t-49.5 -11t-76.5 -7.5t-107.5 -3
q-9 0 -19.5 2.5t-19.5 7t-14.5 10t-5.5 11.5v162zM227 -408q-24 22 -51 43q-35 28 -73 48q25 35 47 71.5t39 76.5q32 -28 67.5 -54.5t75.5 -45.5q-29 -35 -51 -73q-18 -31 -32 -64q25 -21 53 -41q35 -27 75 -46q-29 -35 -51 -73.5t-39 -79.5q-31 29 -66 57t-73 48
q25 35 47 71q18 30 32 62z" />
    <glyph glyph-name="uniFB55" unicode="&#x67b;" horiz-adv-x="455" arabic-form="medial" 
d="M-59 193q0 15 13.5 22.5t29.5 7.5h100q48 0 81.5 21t56.5 46.5t38.5 46.5t28.5 21t17 -21t10 -46.5t20 -46.5t47 -21h88q16 0 29.5 -7.5t13.5 -22.5v-162q0 -6 -6 -11.5t-14.5 -10t-19 -7t-19.5 -2.5q-34 0 -59.5 5.5t-45 14t-33 20t-22.5 23.5t-15.5 23t-11 19.5
t-8.5 14t-8 5.5q-11 0 -26.5 -16.5t-37.5 -45.5q-15 -23 -60.5 -43t-127.5 -20q-9 0 -19.5 2.5t-19.5 7t-14.5 10t-5.5 11.5v162zM230 -405q-24 22 -51 43q-35 28 -73 48q25 35 47 71.5t39 76.5q32 -28 67.5 -54.5t75.5 -45.5q-29 -35 -51 -73q-18 -31 -32 -64
q25 -21 53 -41q35 -27 75 -46q-29 -35 -51 -73.5t-39 -79.5q-31 29 -66 57t-73 48q25 35 47 71q18 30 32 62z" />
    <glyph glyph-name="uniFB56" unicode="&#x67e;" horiz-adv-x="1593" arabic-form="isolated" 
d="M1444 680q12 -15 26 -45t26 -66t20 -74t8 -69q0 -22 -10.5 -59t-27 -76.5t-37.5 -76.5t-42 -60q-46 -32 -134.5 -66t-200 -63t-237.5 -47.5t-247 -18.5q-61 0 -123.5 6.5t-120 21t-107.5 37.5t-87 55.5t-58.5 76t-21.5 98.5q0 53 15.5 106.5t36.5 97t42 70.5t33 27
q8 0 12.5 -7.5t-0.5 -17.5q-14 -24 -26.5 -55.5t-12.5 -62.5q0 -33 22.5 -73t78 -75t149 -58.5t235.5 -23.5q94 0 189 9.5t182 24.5t162.5 33.5t131.5 36.5t88 33t32 23q0 15 -9.5 36t-23 42.5t-28.5 41.5t-25 34zM868.5 -491q35.5 -28 75.5 -48q-29 -37 -51 -77.5
t-39 -83.5q-31 31 -66 60t-73 50q25 37 47 75.5t39 80.5q32 -29 67.5 -57zM918.5 -250q36.5 -29 78.5 -51q-31 -34 -55 -72.5t-49 -77.5q-17 28 -45.5 48t-54.5 38q-45 -50 -74 -106q-32 32 -66.5 60.5t-74.5 48.5q30 34 51 74.5t41 80.5q24 -25 51.5 -48t58.5 -40
q22 23 37 50t31 55q34 -31 70.5 -60z" />
    <glyph glyph-name="uniFB57" unicode="&#x67e;" horiz-adv-x="1618" arabic-form="final" 
d="M1677 31q0 -6 -6 -11.5t-14.5 -10t-19 -7t-19.5 -2.5q-59 0 -99.5 8t-67 24t-40.5 39t-18 52q-75 -54 -159.5 -89t-176.5 -55.5t-190 -29t-199 -8.5q-61 0 -128.5 4.5t-133 17.5t-125.5 35t-106 56.5t-74.5 83.5t-30.5 116q0 53 15.5 106.5t36.5 97t42 70.5t33 27
q8 0 12.5 -7.5t-0.5 -17.5q-14 -24 -26.5 -55.5t-12.5 -62.5q-4 -53 24 -100t100.5 -81.5t195.5 -54.5t309 -20q136 0 237 12t169 29.5t103.5 37.5t41.5 37q7 23 12 37.5t9.5 22.5t9 11t10.5 3q11 0 18 -10t16 -39q8 -23 21 -37.5t36.5 -22.5t60 -11t91.5 -3q16 0 29.5 -7.5
t13.5 -22.5v-162zM835.5 -491q35.5 -28 75.5 -48q-29 -37 -51 -77.5t-39 -83.5q-31 31 -66 60t-73 50q25 37 47 75.5t39 80.5q32 -29 67.5 -57zM886 -250q37 -29 79 -51q-31 -34 -55.5 -72.5t-49.5 -77.5q-17 28 -45.5 48t-54.5 38q-42 -46 -74 -106q-32 32 -66.5 60.5
t-74.5 48.5q31 34 51.5 74.5t40.5 80.5q25 -25 52.5 -48t58.5 -40q21 23 36.5 50t30.5 55q34 -31 71 -60z" />
    <glyph glyph-name="uniFB58" unicode="&#x67e;" horiz-adv-x="455" arabic-form="initial" 
d="M-59 193q0 15 13.5 22.5t29.5 7.5h163q12 0 29 1.5t34.5 5.5t32.5 9.5t23 14.5q-21 43 -46.5 72.5t-57.5 60.5q21 50 48 95t56 85q44 -65 71.5 -143t27.5 -162q0 -24 -8.5 -55.5t-22.5 -64t-33.5 -61t-40.5 -46.5q-8 -7 -26.5 -13.5t-49.5 -11t-76.5 -7.5t-107.5 -3
q-9 0 -19.5 2.5t-19.5 7t-14.5 10t-5.5 11.5v162zM303.5 -454q35.5 -28 75.5 -48q-29 -37 -51 -77.5t-39 -84.5q-31 31 -66 60t-73 51q24 37 46.5 75.5t39.5 80.5q32 -29 67.5 -57zM353.5 -214q36.5 -29 78.5 -50q-31 -34 -55.5 -72.5t-48.5 -77.5q-17 28 -46 48t-55 38
q-21 -24 -39.5 -50.5t-33.5 -55.5q-32 32 -66.5 60t-75.5 48q31 34 51.5 75l40.5 81q25 -25 52.5 -48t58.5 -40q22 23 37 50t31 54q34 -31 70.5 -60z" />
    <glyph glyph-name="uniFB59" unicode="&#x67e;" horiz-adv-x="455" arabic-form="medial" 
d="M-59 193q0 15 13.5 22.5t29.5 7.5h100q48 0 81.5 21t56.5 46.5t38.5 46.5t28.5 21t17 -21t10 -46.5t20 -46.5t47 -21h88q16 0 29.5 -7.5t13.5 -22.5v-162q0 -6 -6 -11.5t-14.5 -10t-19 -7t-19.5 -2.5q-34 0 -59.5 5.5t-45 14t-33 20t-22.5 23.5t-15.5 23t-11 19.5
t-8.5 14t-8 5.5q-11 0 -26.5 -16.5t-37.5 -45.5q-15 -23 -60.5 -43t-127.5 -20q-9 0 -19.5 2.5t-19.5 7t-14.5 10t-5.5 11.5v162zM303.5 -454q35.5 -28 75.5 -48q-29 -37 -51 -77.5t-39 -84.5q-31 31 -66 60t-73 51q24 37 46.5 75.5t39.5 80.5q32 -29 67.5 -57zM353.5 -214
q36.5 -29 78.5 -50q-31 -34 -55.5 -72.5t-48.5 -77.5q-17 28 -46 48t-55 38q-21 -24 -39.5 -50.5t-33.5 -55.5q-32 32 -66.5 60t-75.5 48q31 34 51.5 75l40.5 81q25 -25 52.5 -48t58.5 -40q22 23 37 50t31 54q34 -31 70.5 -60z" />
    <glyph glyph-name="uniFB5A" unicode="&#x680;" horiz-adv-x="1593" arabic-form="isolated" 
d="M1444 680q12 -15 26 -45t26 -66t20 -74t8 -69q0 -22 -10.5 -59t-27 -76.5t-37.5 -76.5t-42 -60q-46 -32 -134.5 -66t-200 -63t-237.5 -47.5t-247 -18.5q-61 0 -123.5 6.5t-120 21t-107.5 37.5t-87 55.5t-58.5 76t-21.5 98.5q0 53 15.5 106.5t36.5 97t42 70.5t33 27
q8 0 12.5 -7.5t-0.5 -17.5q-14 -24 -26.5 -55.5t-12.5 -62.5q0 -33 22.5 -73t78 -75t149 -58.5t235.5 -23.5q94 0 189 9.5t182 24.5t162.5 33.5t131.5 36.5t88 33t32 23q0 15 -9.5 36t-23 42.5t-28.5 41.5t-25 34zM972.5 -518q36.5 -29 78.5 -51q-31 -34 -55 -72.5
t-49 -77.5q-17 28 -45.5 48t-54.5 38q-45 -50 -74 -106q-32 32 -66.5 60.5t-74.5 48.5q30 34 51 74.5t41 80.5q24 -25 51.5 -48t58.5 -40q22 23 37 50t31 55q34 -31 70.5 -60zM918.5 -250q36.5 -29 78.5 -51q-31 -34 -55 -72.5t-49 -77.5q-17 28 -45.5 48t-54.5 38
q-45 -50 -74 -106q-32 32 -66.5 60.5t-74.5 48.5q30 34 51 74.5t41 80.5q24 -25 51.5 -48t58.5 -40q22 23 37 50t31 55q34 -31 70.5 -60z" />
    <glyph glyph-name="uniFB5B" unicode="&#x680;" horiz-adv-x="1618" arabic-form="final" 
d="M1677 31q0 -6 -6 -11.5t-14.5 -10t-19 -7t-19.5 -2.5q-59 0 -99.5 8t-67 24t-40.5 39t-18 52q-75 -54 -159.5 -89t-176.5 -55.5t-190 -29t-199 -8.5q-61 0 -128.5 4.5t-133 17.5t-125.5 35t-106 56.5t-74.5 83.5t-30.5 116q0 53 15.5 106.5t36.5 97t42 70.5t33 27
q8 0 12.5 -7.5t-0.5 -17.5q-14 -24 -26.5 -55.5t-12.5 -62.5q-4 -53 24 -100t100.5 -81.5t195.5 -54.5t309 -20q136 0 237 12t169 29.5t103.5 37.5t41.5 37q7 23 12 37.5t9.5 22.5t9 11t10.5 3q11 0 18 -10t16 -39q8 -23 21 -37.5t36.5 -22.5t60 -11t91.5 -3q16 0 29.5 -7.5
t13.5 -22.5v-162zM936 -518q37 -29 79 -51q-31 -34 -55.5 -72.5t-49.5 -77.5q-17 28 -45.5 48t-54.5 38q-42 -46 -74 -106q-32 32 -66.5 60.5t-74.5 48.5q31 34 51.5 74.5t40.5 80.5q25 -25 52.5 -48t58.5 -40q21 23 36.5 50t30.5 55q34 -31 71 -60zM886 -250q37 -29 79 -51
q-31 -34 -55.5 -72.5t-49.5 -77.5q-17 28 -45.5 48t-54.5 38q-42 -46 -74 -106q-32 32 -66.5 60.5t-74.5 48.5q31 34 51.5 74.5t40.5 80.5q25 -25 52.5 -48t58.5 -40q21 23 36.5 50t30.5 55q34 -31 71 -60z" />
    <glyph glyph-name="uniFB5C" unicode="&#x680;" horiz-adv-x="455" arabic-form="initial" 
d="M-59 193q0 15 13.5 22.5t29.5 7.5h163q12 0 29 1.5t34.5 5.5t32.5 9.5t23 14.5q-21 43 -46.5 72.5t-57.5 60.5q21 50 48 95t56 85q44 -65 71.5 -143t27.5 -162q0 -24 -8.5 -55.5t-22.5 -64t-33.5 -61t-40.5 -46.5q-8 -7 -26.5 -13.5t-49.5 -11t-76.5 -7.5t-107.5 -3
q-9 0 -19.5 2.5t-19.5 7t-14.5 10t-5.5 11.5v162zM399.5 -478q36.5 -29 78.5 -50q-31 -34 -55.5 -72.5t-48.5 -77.5q-17 28 -46 48t-55 38q-21 -24 -39.5 -50.5t-33.5 -55.5q-32 32 -66.5 60t-75.5 48q31 34 51.5 75l40.5 81q25 -25 52.5 -48t58.5 -40q22 23 37 50t31 54
q34 -31 70.5 -60zM353.5 -214q36.5 -29 78.5 -50q-31 -34 -55.5 -72.5t-48.5 -77.5q-17 28 -46 48t-55 38q-21 -24 -39.5 -50.5t-33.5 -55.5q-32 32 -66.5 60t-75.5 48q31 34 51.5 75l40.5 81q25 -25 52.5 -48t58.5 -40q22 23 37 50t31 54q34 -31 70.5 -60z" />
    <glyph glyph-name="uniFB5D" unicode="&#x680;" horiz-adv-x="455" arabic-form="medial" 
d="M-59 193q0 15 13.5 22.5t29.5 7.5h100q48 0 81.5 21t56.5 46.5t38.5 46.5t28.5 21t17 -21t10 -46.5t20 -46.5t47 -21h88q16 0 29.5 -7.5t13.5 -22.5v-162q0 -6 -6 -11.5t-14.5 -10t-19 -7t-19.5 -2.5q-34 0 -59.5 5.5t-45 14t-33 20t-22.5 23.5t-15.5 23t-11 19.5
t-8.5 14t-8 5.5q-11 0 -26.5 -16.5t-37.5 -45.5q-15 -23 -60.5 -43t-127.5 -20q-9 0 -19.5 2.5t-19.5 7t-14.5 10t-5.5 11.5v162zM403.5 -482q36.5 -29 78.5 -50q-31 -34 -55.5 -72.5t-48.5 -77.5q-17 28 -46 48t-55 38q-21 -24 -39.5 -50.5t-33.5 -55.5q-32 32 -66.5 60
t-75.5 48q31 34 51.5 75l40.5 81q25 -25 52.5 -48t58.5 -40q22 23 37 50t31 54q34 -31 70.5 -60zM353.5 -214q36.5 -29 78.5 -50q-31 -34 -55.5 -72.5t-48.5 -77.5q-17 28 -46 48t-55 38q-21 -24 -39.5 -50.5t-33.5 -55.5q-32 32 -66.5 60t-75.5 48q31 34 51.5 75l40.5 81
q25 -25 52.5 -48t58.5 -40q22 23 37 50t31 54q34 -31 70.5 -60z" />
    <glyph glyph-name="uniFB5E" unicode="&#x67a;" horiz-adv-x="1593" arabic-form="isolated" 
d="M1438 336q0 41 -44 101l-31 42q-1 2 -9 13l90 182q79 -120 79 -246q0 -53 -31.5 -129t-83.5 -146q-138 -83 -374.5 -138.5t-451.5 -55.5q-237 0 -374.5 78t-137.5 213q0 132 73 244q37 56 52 56t15 -13q0 -3 -5 -13l-7 -14l-9 -18q-20 -39 -20 -80q0 -97 128 -165
q121 -65 361 -65q161 0 361 30.5t312 72.5l61 23q30 11 46 28zM765 776q62 -55 122 -89q-52 -75 -90 -142l-37 27q-52 38 -103 66q45 60 86 147l-18 13q-52 39 -103 67q47 62 90 154q72 -67 140 -106q-50 -72 -87 -137z" />
    <glyph glyph-name="uniFB5F" unicode="&#x67a;" horiz-adv-x="1618" arabic-form="final" 
d="M1384 120q-159 -98 -280 -129q-204 -51 -421 -51q-300 0 -456.5 82.5t-156.5 239.5q0 134 91 255q27 35 37 35q13 0 13 -13q0 -5 -6 -17q-1 -2 -5 -12l-8 -16q-23 -50 -23 -97q0 -241 612 -241q354 0 519 73q36 17 55 78q11 36 29 36t28 -34q20 -60 55 -74t167 -14h11
q33 0 33 -30v-163q0 -9 -20.5 -19t-38.5 -9q-27 -4 -81 4t-79 19q-60 29 -75 97zM785 766q62 -55 122 -89q-52 -75 -90 -142l-37 27q-52 38 -103 66q45 60 86 147l-18 13q-52 39 -103 67q47 62 90 154q72 -67 140 -106q-50 -72 -87 -137z" />
    <glyph glyph-name="uniFB60" unicode="&#x67a;" horiz-adv-x="455" arabic-form="initial" 
d="M265 251q-15 40 -56 84l-37 40q-2 2 -9 10q29 77 96 167l8 11q96 -140 96 -290q0 -62 -29.5 -129t-76.5 -110q-32 -22 -118 -28q-19 -2 -52 -5q-60 -5 -89 -1q-58 0 -58 31v158q0 32 41 32h162q88 0 122 30zM233 945q62 -55 122 -89q-52 -75 -90 -142l-37 27
q-52 38 -103 66q45 60 86 147l-18 13q-52 39 -103 67q47 62 90 154q72 -67 140 -106q-50 -72 -87 -137z" />
    <glyph glyph-name="uniFB61" unicode="&#x67a;" horiz-adv-x="455" arabic-form="medial" 
d="M-59 31v158q0 32 41 32h104q91 0 172 107q21 28 31 28q12 0 17 -21l13 -49q10 -38 25.5 -51.5t49.5 -13.5h77q44 0 44 -30v-163q0 -11 -21 -19.5t-47 -8.5q-129 0 -173 95q-13 30 -23 30q-12 0 -29 -24q-43 -58 -87 -80t-120 -22q-8 0 -15 1q-59 4 -59 31zM230 773
q62 -55 122 -89q-52 -75 -90 -142l-37 27q-52 38 -103 66q45 60 86 147l-18 13q-52 39 -103 67q47 62 90 154q72 -67 140 -106q-50 -72 -87 -137z" />
    <glyph glyph-name="uniFB62" unicode="&#x67f;" horiz-adv-x="1593" arabic-form="isolated" 
d="M1439 336q0 41 -45 101l-30 42q-2 2 -9 13l89 182q80 -120 80 -246q0 -53 -32 -129t-83 -146q-139 -83 -375 -138.5t-451 -55.5q-238 0 -375.5 78t-137.5 213q0 132 74 244q36 56 52 56q15 0 15 -13q0 -3 -6 -13l-7 -14l-9 -18q-20 -39 -20 -80q0 -97 129 -165
q121 -65 360 -65q162 0 361.5 30.5t312.5 72.5l60 23q31 11 47 28zM648 829q-89 77 -163 122q63 82 111 164q71 -67 114 -94q34 40 82 117q60 -58 156 -119q-38 -49 -75 -122q-8 -16 -26 -50l-25 23q-55 50 -96 76q-44 -53 -78 -117zM699 540q-89 77 -163 122q63 82 111 164
q71 -67 114 -94q34 40 82 117q60 -58 156 -119q-38 -49 -75 -122q-8 -16 -26 -50l-25 23q-55 50 -96 76q-44 -53 -78 -117z" />
    <glyph glyph-name="uniFB63" unicode="&#x67f;" horiz-adv-x="1618" arabic-form="final" 
d="M689 834q-89 77 -163 122q63 82 111 164q71 -67 114 -94q35 40 82 117q60 -58 156 -119q-38 -49 -74 -122q-9 -16 -26 -50l-26 23q-55 50 -96 76q-43 -53 -78 -117zM1385 120q-160 -98 -280 -129q-204 -51 -422 -51q-299 0 -456 82.5t-157 239.5q0 134 92 255
q26 35 37 35q13 0 13 -13q0 -5 -6 -17l-6 -12l-7 -16q-24 -50 -24 -97q0 -241 613 -241q354 0 518 73q37 17 56 78q11 36 29 36q17 0 28 -34q19 -60 54 -74t168 -14h11q32 0 32 -30v-163q0 -9 -20.5 -19t-37.5 -9q-28 -4 -81.5 4t-78.5 19q-61 29 -75 97zM739 540
q-89 77 -163 122q63 82 111 164q71 -67 114 -94q35 40 82 117q60 -58 156 -119q-38 -49 -74 -122q-9 -16 -26 -50l-26 23q-55 50 -96 76q-43 -53 -78 -117z" />
    <glyph glyph-name="uniFB64" unicode="&#x67f;" horiz-adv-x="455" arabic-form="initial" 
d="M140 976q-77 67 -147 110q48 59 103 147q45 -51 101 -85q42 53 73 107q75 -71 139 -109q-47 -60 -91 -152q-60 55 -110 86q-34 -42 -68 -104zM265 251q-15 40 -56 84l-37 40q-2 2 -9 10q29 77 96 167l8 11q96 -140 96 -290q0 -62 -29.5 -129t-76.5 -110q-32 -22 -118 -28
q-19 -2 -52 -5q-60 -5 -89 -1q-58 0 -58 31v158q0 32 41 32h162q88 0 122 30zM186 708q-77 67 -147 110q48 59 103 147q45 -51 101 -85q42 53 73 107q75 -71 139 -109q-47 -60 -91 -152q-60 55 -110 86q-34 -42 -68 -104z" />
    </font>
</defs>
</svg>
