<?xml version="1.0" standalone="no"?>
<!DOCTYPE svg PUBLIC "-//W3C//DTD SVG 1.1//EN" "http://www.w3.org/Graphics/SVG/1.1/DTD/svg11.dtd" >
<svg xmlns="http://www.w3.org/2000/svg" xmlns:xlink="http://www.w3.org/1999/xlink" version="1.1">
<metadata>
Created by FontForge 20170731 at Sat Oct 22 06:05:05 2016
 By Aleksey,,,
(c)  2014 Bahij Virtual Academy. All rights reserved.
</metadata>
<defs>
<font id="BahijTanseekPro-Regular" horiz-adv-x="0" >
  <font-face 
    font-family="Bahij Tanseek Pro"
    font-weight="400"
    font-stretch="normal"
    units-per-em="2048"
    panose-1="2 4 5 3 5 2 1 2 2 3"
    ascent="1638"
    descent="-410"
    x-height="684"
    cap-height="958"
    bbox="-271 -1249 3875 2063"
    underline-thickness="50"
    underline-position="-150"
    unicode-range="U+0020-FEFC"
  />
<missing-glyph horiz-adv-x="728" 
d="M0 0v1020h728v-1020h-728zM117 947l247 -372l248 372h-495zM655 881l-247 -371l247 -372v743zM612 73l-248 371l-247 -371h495zM73 138l247 372l-247 371v-743z" />
    <glyph glyph-name="uniFB01" unicode="fi" horiz-adv-x="884" 
d="M713 829q-56 -22 -87 -22t-31 70q0 15 59 53q56 37 70 37q17 0 36 -36q18 -33 18 -52q0 -25 -65 -50zM626 584q0 59 -57 59h-19q-14 0 -14 12q0 29 12 29l117 -2l86 2q12 0 12 -14l-4 -86v-447q0 -82 49 -82q17 0 32 7q15 8 22 8q10 0 10 -13q0 -67 -125 -67
q-121 0 -121 114v480zM145 604h-119l16 78h103v12q0 293 301 293q110 0 110 -41q0 -19 -13 -53q-16 -41 -34 -41q-6 0 -45 18q-39 19 -73 19q-72 0 -89 -23q-26 -36 -26 -121v-63h160q12 0 24 5q11 5 15 5q8 0 8 -10q0 -19 -19 -66q-4 -12 -26 -12h-162v-481q0 -52 18 -68
q22 -19 97 -20q8 0 8 -8q0 -29 -17 -29l-258 1l-67 -1q-8 0 -8 10q0 26 22 29q44 6 74 14v553z" />
    <glyph glyph-name="uniFB02" unicode="fl" horiz-adv-x="862" 
d="M608 870q0 62 -54 62q-17 -80 -45 -80q-6 0 -45 18q-39 19 -73 19q-72 0 -89 -23q-26 -36 -26 -121v-63h160q12 0 24 5q11 5 15 5q8 0 8 -10q0 -19 -19 -66q-4 -12 -26 -12h-162v-481q0 -52 18 -68q22 -19 97 -20q8 0 8 -8q0 -29 -17 -29l-258 1l-67 -1q-8 0 -8 10
q0 26 22 29q44 6 74 14v553h-119l16 78h103v12q0 293 301 293q81 0 98 -14q29 0 59 -2l44 -2l88 4q10 0 10 -15l-4 -88v-733q0 -82 49 -82q17 0 32 7q15 8 21 8q10 0 10 -13q0 -67 -125 -67q-120 0 -120 114v766z" />
    <glyph glyph-name="uniFC31" unicode="&#xfed3;&#xfef0;" horiz-adv-x="1826" arabic-form="isolated" 
d="M1604 258q0 107 -54 197q-63 102 -157 102q-51 0 -85 -41q-31 -38 -31 -88q0 -108 94 -201q96 -94 217 -96q16 69 16 127zM1402 866l-91 90l91 93l92 -93zM1081 0q-9 -150 -135 -283q-140 -147 -328 -147q-235 0 -386 194q-132 169 -132 367q0 46 31 115l67 153
q13 25 21 25q12 0 12 -16l-4 -191q0 -258 125 -396q109 -120 276 -120q138 0 238 96q86 82 86 158q0 45 -84 45h-168q-91 0 -146 44q-55 45 -55 120q0 26 15 26q10 0 16 -16q15 -43 84 -43h722q-168 148 -168 305q0 105 69 178q72 76 181 76q153 0 247 -143q81 -124 81 -283
q0 -121 -58 -264h-607z" />
    <glyph glyph-name="uniFC32" unicode="&#xfed3;&#xfef2;" horiz-adv-x="1826" arabic-form="isolated" 
d="M612 -711l-72 -73l-90 92l90 90l72 -72l72 72l92 -90l-92 -92zM1604 258q0 107 -54 197q-63 102 -157 102q-51 0 -85 -41q-31 -38 -31 -88q0 -108 94 -201q96 -94 217 -96q16 69 16 127zM1402 866l-91 90l91 93l92 -93zM1081 0q-9 -150 -135 -283q-140 -147 -328 -147
q-235 0 -386 194q-132 169 -132 367q0 46 31 115l67 153q13 25 21 25q12 0 12 -16l-4 -191q0 -258 125 -396q109 -120 276 -120q138 0 238 96q86 82 86 158q0 45 -84 45h-168q-91 0 -146 44q-55 45 -55 120q0 26 15 26q10 0 16 -16q15 -43 84 -43h722q-168 148 -168 305
q0 105 69 178q72 76 181 76q153 0 247 -143q81 -124 81 -283q0 -121 -58 -264h-607z" />
    <glyph glyph-name="uniFC43" unicode="&#xfedf;&#xfef0;" horiz-adv-x="1496" arabic-form="isolated" 
d="M1081 0q-9 -150 -135 -283q-140 -147 -328 -147q-235 0 -386 194q-132 169 -132 367q0 46 31 115l67 153q13 25 21 25q12 0 12 -16l-4 -191q0 -258 125 -396q109 -120 276 -120q138 0 238 96q86 82 86 158q0 45 -84 45h-168q-91 0 -146 44q-55 45 -55 120q0 26 15 26
q10 0 16 -16q15 -43 84 -43h653v442q0 121 -68 160l170 209q8 12 18 12q9 0 9 -24v-709q0 -118 -49 -221h-266z" />
    <glyph glyph-name="uniFC44" unicode="&#xfedf;&#xfef2;" horiz-adv-x="1496" arabic-form="isolated" 
d="M612 -711l-72 -73l-90 92l90 90l72 -72l72 72l92 -90l-92 -92zM1081 0q-9 -150 -135 -283q-140 -147 -328 -147q-235 0 -386 194q-132 169 -132 367q0 46 31 115l67 153q13 25 21 25q12 0 12 -16l-4 -191q0 -258 125 -396q109 -120 276 -120q138 0 238 96q86 82 86 158
q0 45 -84 45h-168q-91 0 -146 44q-55 45 -55 120q0 26 15 26q10 0 16 -16q15 -43 84 -43h653v442q0 121 -68 160l170 209q8 12 18 12q9 0 9 -24v-709q0 -118 -49 -221h-266z" />
    <glyph glyph-name="uniFC64" unicode="&#xfe8c;&#xfeae;" horiz-adv-x="1243" arabic-form="final" 
d="M1007 1087q-12 5 -31 5q-37 0 -63 -22q-25 -21 -25 -48q0 -66 101 -66q51 0 90 27q-5 -54 -28 -75q-22 -20 -93 -38q-57 -13 -96 -46l-35 -29q-6 0 -6 4q0 63 114 121q-100 12 -100 90q0 73 74 122q58 39 108 39q13 0 13 -8q0 -4 -4 -16zM790 0q-78 4 -133 68
q-7 -179 -109 -357q-81 -141 -164 -141l-127 10q-124 10 -198 10q-29 0 -29 15q0 16 31 16q194 5 334 117q149 119 149 295q0 150 -84 297q-84 146 -84 155q0 22 10 50l50 149q2 8 12 8q4 0 24 -61q164 -500 328 -500h240q2 21 2 45q0 189 -129 387l76 117q8 12 16 12
t16 -16q131 -262 131 -422q0 -65 -12 -123h113v-131h-10q-55 0 -87 30q-21 19 -26 26q0 -11 -29 -56h-311z" />
    <glyph glyph-name="uniFC67" unicode="&#xfe8c;&#xfee6;" horiz-adv-x="1633" arabic-form="final" 
d="M440 717l92 90l90 -90l-90 -92zM1180 0q-32 1 -60 20l-29 21q-8 0 -8 -14q-16 -207 -165 -339q-134 -118 -300 -118q-234 0 -386 196q-132 170 -132 369q0 42 31 111l69 162q9 16 19 16q12 0 12 -14l-2 -73q-2 -64 -2 -142q0 -228 118 -365q111 -129 283 -129
q158 0 256 114q90 105 90 248q0 216 -184 500l76 119q7 10 14 10q4 0 13 -12q173 -322 190 -549h347q2 21 2 45q0 189 -129 387l76 117q8 12 16 12t16 -16q131 -262 131 -422q0 -65 -12 -123h113v-131h-10q-55 0 -87 30q-21 19 -26 26q0 -11 -29 -56h-311zM1397 1087
q-12 5 -31 5q-37 0 -63 -22q-25 -21 -25 -48q0 -66 101 -66q51 0 90 27q-5 -54 -28 -75q-22 -20 -93 -38q-57 -13 -96 -46l-35 -29q-6 0 -6 4q0 63 114 121q-100 12 -100 90q0 73 74 122q58 39 108 39q13 0 13 -8q0 -4 -4 -16z" />
    <glyph glyph-name="uniFC6A" unicode="&#xfe92;&#xfeae;" horiz-adv-x="1243" arabic-form="final" 
d="M790 0q-78 4 -133 68q-7 -179 -109 -357q-81 -141 -164 -141l-127 10q-124 10 -198 10q-29 0 -29 15q0 16 31 16q194 5 334 117q149 119 149 295q0 150 -84 297q-84 146 -84 155q0 22 10 50l50 149q2 8 12 8q4 0 24 -61q164 -500 328 -500h240q2 21 2 45q0 189 -129 387
l76 117q8 12 16 12t16 -16q131 -262 131 -422q0 -65 -12 -123h113v-131h-10q-55 0 -87 30q-21 19 -26 26q0 -11 -29 -56h-311zM880 -289l92 90l90 -90l-90 -92z" />
    <glyph glyph-name="uniFC70" unicode="&#xfe98;&#xfeae;" horiz-adv-x="1243" arabic-form="final" 
d="M1042 872l-72 72l-71 -72l-93 91l93 92l71 -72l72 72l92 -92zM790 0q-78 4 -133 68q-7 -179 -109 -357q-81 -141 -164 -141l-127 10q-124 10 -198 10q-29 0 -29 15q0 16 31 16q194 5 334 117q149 119 149 295q0 150 -84 297q-84 146 -84 155q0 22 10 50l50 149q2 8 12 8
q4 0 24 -61q164 -500 328 -500h240q2 21 2 45q0 189 -129 387l76 117q8 12 16 12t16 -16q131 -262 131 -422q0 -65 -12 -123h113v-131h-10q-55 0 -87 30q-21 19 -26 26q0 -11 -29 -56h-311z" />
    <glyph glyph-name="uniFC86" unicode="&#xfee0;&#xfef0;" horiz-adv-x="1428" arabic-form="final" 
d="M1081 0q-9 -150 -135 -283q-140 -147 -328 -147q-235 0 -386 194q-132 169 -132 367q0 46 31 115l67 153q13 25 21 25q12 0 12 -16l-4 -191q0 -258 125 -396q109 -120 276 -120q138 0 238 96q86 82 86 158q0 45 -84 45h-168q-91 0 -146 44q-55 45 -55 120q0 26 15 26
q10 0 16 -16q15 -43 84 -43h586v684l100 127q9 12 19 12t10 -24v-727q0 -41 -6 -72h115v-131h-15q-54 0 -86 30q-21 19 -26 26q0 -11 -29 -56h-201z" />
    <glyph glyph-name="uniFC87" unicode="&#xfee0;&#xfef2;" horiz-adv-x="1428" arabic-form="final" 
d="M612 -711l-72 -73l-90 92l90 90l72 -72l72 72l92 -90l-92 -92zM1081 0q-9 -150 -135 -283q-140 -147 -328 -147q-235 0 -386 194q-132 169 -132 367q0 46 31 115l67 153q13 25 21 25q12 0 12 -16l-4 -191q0 -258 125 -396q109 -120 276 -120q138 0 238 96q86 82 86 158
q0 45 -84 45h-168q-91 0 -146 44q-55 45 -55 120q0 26 15 26q10 0 16 -16q15 -43 84 -43h586v684l100 127q9 12 19 12t10 -24v-727q0 -41 -6 -72h115v-131h-15q-54 0 -86 30q-21 19 -26 26q0 -11 -29 -56h-201z" />
    <glyph glyph-name="uniFCCC" unicode="&#xfedf;&#xfee4;" horiz-adv-x="1206" arabic-form="initial" 
d="M600 211q0 133 -49 238q-49 106 -113 106q-56 0 -112 -135q-94 -227 -131 -289q190 0 370 -117q35 75 35 197zM821 0q-34 4 -58 30q-28 29 -30 29q-6 0 -18 -55q-46 -164 -97 -164q-7 0 -155 80q-149 80 -273 80h-190v131h8q76 0 113 66q28 53 74 162q50 115 73 161
q87 172 185 172q121 0 207 -147q83 -142 83 -326l-6 -88h240v442q0 121 -68 160l170 209q8 12 18 12q9 0 9 -24v-709q0 -118 -49 -221h-236z" />
    <glyph glyph-name="uniFCFB" unicode="&#xfeb3;&#xfef0;" horiz-adv-x="2667" arabic-form="isolated" 
d="M1081 0q-9 -150 -135 -283q-140 -147 -328 -147q-235 0 -386 194q-132 169 -132 367q0 46 31 115l67 153q13 25 21 25q12 0 12 -16l-4 -191q0 -258 125 -396q109 -120 276 -120q138 0 238 96q86 82 86 158q0 45 -84 45h-168q-91 0 -146 44q-55 45 -55 120q0 26 15 26
q10 0 16 -16q15 -43 84 -43h916l2 45q0 189 -129 387l76 117q8 12 16 12t17 -16q131 -262 131 -422q0 -61 -13 -123h398q2 21 2 45q0 189 -129 387l75 117q9 12 17 12t16 -16q131 -262 131 -422q0 -61 -12 -123h346q2 21 2 45q0 189 -129 387l76 117q8 12 16 12t17 -16
q131 -262 131 -422q0 -132 -54 -254h-309q-48 0 -79 30q-22 20 -27 26q0 -10 -31 -56h-360q-49 0 -80 30q-21 19 -27 26q0 -10 -31 -56h-508z" />
    <glyph glyph-name="uniFCFC" unicode="&#xfeb3;&#xfef2;" horiz-adv-x="2667" arabic-form="isolated" 
d="M612 -711l-72 -73l-90 92l90 90l72 -72l72 72l92 -90l-92 -92zM1081 0q-9 -150 -135 -283q-140 -147 -328 -147q-235 0 -386 194q-132 169 -132 367q0 46 31 115l67 153q13 25 21 25q12 0 12 -16l-4 -191q0 -258 125 -396q109 -120 276 -120q138 0 238 96q86 82 86 158
q0 45 -84 45h-168q-91 0 -146 44q-55 45 -55 120q0 26 15 26q10 0 16 -16q15 -43 84 -43h916l2 45q0 189 -129 387l76 117q8 12 16 12t17 -16q131 -262 131 -422q0 -61 -13 -123h398q2 21 2 45q0 189 -129 387l75 117q9 12 17 12t16 -16q131 -262 131 -422q0 -61 -12 -123
h346q2 21 2 45q0 189 -129 387l76 117q8 12 16 12t17 -16q131 -262 131 -422q0 -132 -54 -254h-309q-48 0 -79 30q-22 20 -27 26q0 -10 -31 -56h-360q-49 0 -80 30q-21 19 -27 26q0 -10 -31 -56h-508z" />
    <glyph glyph-name="uniFCFD" unicode="&#xfeb7;&#xfef0;" horiz-adv-x="2667" arabic-form="isolated" 
d="M1958 944l-72 -72l-92 93l92 90l72 -72l72 72l92 -90l-92 -93zM1081 0q-9 -150 -135 -283q-140 -147 -328 -147q-235 0 -386 194q-132 169 -132 367q0 46 31 115l67 153q13 25 21 25q12 0 12 -16l-4 -191q0 -258 125 -396q109 -120 276 -120q138 0 238 96q86 82 86 158
q0 45 -84 45h-168q-91 0 -146 44q-55 45 -55 120q0 26 15 26q10 0 16 -16q15 -43 84 -43h916l2 45q0 189 -129 387l76 117q8 12 16 12t17 -16q131 -262 131 -422q0 -61 -13 -123h398q2 21 2 45q0 189 -129 387l75 117q9 12 17 12t16 -16q131 -262 131 -422q0 -61 -12 -123
h346q2 21 2 45q0 189 -129 387l76 117q8 12 16 12t17 -16q131 -262 131 -422q0 -132 -54 -254h-309q-48 0 -79 30q-22 20 -27 26q0 -10 -31 -56h-360q-49 0 -80 30q-21 19 -27 26q0 -10 -31 -56h-508zM1958 1087l-74 72l74 74l72 -74z" />
    <glyph glyph-name="uniFCFE" unicode="&#xfeb7;&#xfef2;" horiz-adv-x="2667" arabic-form="isolated" 
d="M612 -711l-72 -73l-90 92l90 90l72 -72l72 72l92 -90l-92 -92zM1958 944l-72 -72l-92 93l92 90l72 -72l72 72l92 -90l-92 -93zM1081 0q-9 -150 -135 -283q-140 -147 -328 -147q-235 0 -386 194q-132 169 -132 367q0 46 31 115l67 153q13 25 21 25q12 0 12 -16l-4 -191
q0 -258 125 -396q109 -120 276 -120q138 0 238 96q86 82 86 158q0 45 -84 45h-168q-91 0 -146 44q-55 45 -55 120q0 26 15 26q10 0 16 -16q15 -43 84 -43h916l2 45q0 189 -129 387l76 117q8 12 16 12t17 -16q131 -262 131 -422q0 -61 -13 -123h398q2 21 2 45q0 189 -129 387
l75 117q9 12 17 12t16 -16q131 -262 131 -422q0 -61 -12 -123h346q2 21 2 45q0 189 -129 387l76 117q8 12 16 12t17 -16q131 -262 131 -422q0 -132 -54 -254h-309q-48 0 -79 30q-22 20 -27 26q0 -10 -31 -56h-360q-49 0 -80 30q-21 19 -27 26q0 -10 -31 -56h-508zM1958 1087
l-74 72l74 74l72 -74z" />
    <glyph glyph-name="uniFD05" unicode="&#xfebb;&#xfef0;" horiz-adv-x="2173" arabic-form="isolated" 
d="M1948 131q6 43 6 102q0 117 -56 213q-64 109 -161 109q-96 0 -215 -161q-38 -51 -93 -140l-79 -123h598zM1081 0q-9 -150 -135 -283q-140 -147 -328 -147q-235 0 -386 194q-132 169 -132 367q0 46 31 115l67 153q13 25 21 25q12 0 12 -16l-4 -191q0 -258 125 -396
q109 -120 276 -120q138 0 238 96q86 82 86 158q0 45 -84 45h-168q-91 0 -146 44q-55 45 -55 120q0 26 15 26q10 0 16 -16q15 -43 84 -43h611q-5 110 -37 254l78 111q34 -168 43 -254q255 450 465 450q144 0 237 -149q82 -131 82 -293q0 -114 -51 -250h-961z" />
    <glyph glyph-name="uniFD06" unicode="&#xfebb;&#xfef2;" horiz-adv-x="2173" arabic-form="isolated" 
d="M612 -711l-72 -73l-90 92l90 90l72 -72l72 72l92 -90l-92 -92zM1948 131q6 43 6 102q0 117 -56 213q-64 109 -161 109q-96 0 -215 -161q-38 -51 -93 -140l-79 -123h598zM1081 0q-9 -150 -135 -283q-140 -147 -328 -147q-235 0 -386 194q-132 169 -132 367q0 46 31 115
l67 153q13 25 21 25q12 0 12 -16l-4 -191q0 -258 125 -396q109 -120 276 -120q138 0 238 96q86 82 86 158q0 45 -84 45h-168q-91 0 -146 44q-55 45 -55 120q0 26 15 26q10 0 16 -16q15 -43 84 -43h611q-5 110 -37 254l78 111q34 -168 43 -254q255 450 465 450
q144 0 237 -149q82 -131 82 -293q0 -114 -51 -250h-961z" />
    <glyph glyph-name="uniFD07" unicode="&#xfebf;&#xfef0;" horiz-adv-x="2173" arabic-form="isolated" 
d="M1948 131q6 43 6 102q0 117 -56 213q-64 109 -161 109q-96 0 -215 -161q-38 -51 -93 -140l-79 -123h598zM1522 805l-90 90l90 92l92 -92zM1081 0q-9 -150 -135 -283q-140 -147 -328 -147q-235 0 -386 194q-132 169 -132 367q0 46 31 115l67 153q13 25 21 25q12 0 12 -16
l-4 -191q0 -258 125 -396q109 -120 276 -120q138 0 238 96q86 82 86 158q0 45 -84 45h-168q-91 0 -146 44q-55 45 -55 120q0 26 15 26q10 0 16 -16q15 -43 84 -43h611q-5 110 -37 254l78 111q34 -168 43 -254q255 450 465 450q144 0 237 -149q82 -131 82 -293
q0 -114 -51 -250h-961z" />
    <glyph glyph-name="uniFD08" unicode="&#xfebf;&#xfef2;" horiz-adv-x="2173" arabic-form="isolated" 
d="M612 -711l-72 -73l-90 92l90 90l72 -72l72 72l92 -90l-92 -92zM1948 131q6 43 6 102q0 117 -56 213q-64 109 -161 109q-96 0 -215 -161q-38 -51 -93 -140l-79 -123h598zM1522 805l-90 90l90 92l92 -92zM1081 0q-9 -150 -135 -283q-140 -147 -328 -147q-235 0 -386 194
q-132 169 -132 367q0 46 31 115l67 153q13 25 21 25q12 0 12 -16l-4 -191q0 -258 125 -396q109 -120 276 -120q138 0 238 96q86 82 86 158q0 45 -84 45h-168q-91 0 -146 44q-55 45 -55 120q0 26 15 26q10 0 16 -16q15 -43 84 -43h611q-5 110 -37 254l78 111q34 -168 43 -254
q255 450 465 450q144 0 237 -149q82 -131 82 -293q0 -114 -51 -250h-961z" />
    <glyph glyph-name="uniFD0D" unicode="&#xfeb7;&#xfeae;" horiz-adv-x="2437" arabic-form="isolated" 
d="M1728 944l-72 -72l-92 93l92 90l72 -72l72 72l92 -90l-92 -93zM790 0q-78 4 -133 68q-7 -179 -109 -357q-81 -141 -164 -141l-127 10q-124 10 -198 10q-29 0 -29 15q0 16 31 16q194 5 334 117q149 119 149 295q0 150 -84 297q-84 146 -84 155q0 22 10 50l50 149q2 8 12 8
q4 0 24 -61q164 -500 328 -500h500l2 45q0 189 -129 387l76 117q8 12 16 12t17 -16q131 -262 131 -422q0 -61 -13 -123h398q2 21 2 45q0 189 -129 387l75 117q9 12 17 12t16 -16q131 -262 131 -422q0 -61 -12 -123h346q2 21 2 45q0 189 -129 387l76 117q8 12 16 12t17 -16
q131 -262 131 -422q0 -132 -54 -254h-309q-48 0 -79 30q-22 20 -27 26q0 -10 -31 -56h-360q-49 0 -80 30q-21 19 -27 26q0 -10 -31 -56h-569zM1728 1087l-74 72l74 74l72 -74z" />
    <glyph glyph-name="uniFD0E" unicode="&#xfeb3;&#xfeae;" horiz-adv-x="2437" arabic-form="isolated" 
d="M790 0q-78 4 -133 68q-7 -179 -109 -357q-81 -141 -164 -141l-127 10q-124 10 -198 10q-29 0 -29 15q0 16 31 16q194 5 334 117q149 119 149 295q0 150 -84 297q-84 146 -84 155q0 22 10 50l50 149q2 8 12 8q4 0 24 -61q164 -500 328 -500h500l2 45q0 189 -129 387
l76 117q8 12 16 12t17 -16q131 -262 131 -422q0 -61 -13 -123h398q2 21 2 45q0 189 -129 387l75 117q9 12 17 12t16 -16q131 -262 131 -422q0 -61 -12 -123h346q2 21 2 45q0 189 -129 387l76 117q8 12 16 12t17 -16q131 -262 131 -422q0 -132 -54 -254h-309q-48 0 -79 30
q-22 20 -27 26q0 -10 -31 -56h-360q-49 0 -80 30q-21 19 -27 26q0 -10 -31 -56h-569z" />
    <glyph glyph-name="uniFD0F" unicode="&#xfebb;&#xfeae;" horiz-adv-x="1863" arabic-form="isolated" 
d="M1638 131q6 43 6 102q0 117 -56 213q-64 109 -161 109q-96 0 -215 -161q-38 -51 -93 -140l-79 -123h598zM790 0q-78 4 -133 68q-7 -179 -109 -357q-81 -141 -164 -141l-127 10q-124 10 -198 10q-29 0 -29 15q0 16 31 16q194 5 334 117q149 119 149 295q0 150 -84 297
q-84 146 -84 155q0 22 10 50l50 149q2 8 12 8q4 0 24 -61q164 -500 328 -500h115q-5 110 -37 254l78 111q34 -168 43 -254q255 450 465 450q144 0 237 -149q82 -131 82 -293q0 -114 -51 -250h-942z" />
    <glyph glyph-name="uniFD10" unicode="&#xfebf;&#xfeae;" horiz-adv-x="1863" arabic-form="isolated" 
d="M1638 131q6 43 6 102q0 117 -56 213q-64 109 -161 109q-96 0 -215 -161q-38 -51 -93 -140l-79 -123h598zM1212 805l-90 90l90 92l92 -92zM790 0q-78 4 -133 68q-7 -179 -109 -357q-81 -141 -164 -141l-127 10q-124 10 -198 10q-29 0 -29 15q0 16 31 16q194 5 334 117
q149 119 149 295q0 150 -84 297q-84 146 -84 155q0 22 10 50l50 149q2 8 12 8q4 0 24 -61q164 -500 328 -500h115q-5 110 -37 254l78 111q34 -168 43 -254q255 450 465 450q144 0 237 -149q82 -131 82 -293q0 -114 -51 -250h-942z" />
    <glyph glyph-name="uniFD17" unicode="&#xfeb4;&#xfef0;" horiz-adv-x="2677" arabic-form="final" 
d="M1081 0q-9 -150 -135 -283q-140 -147 -328 -147q-235 0 -386 194q-132 169 -132 367q0 46 31 115l67 153q13 25 21 25q12 0 12 -16l-4 -191q0 -258 125 -396q109 -120 276 -120q138 0 238 96q86 82 86 158q0 45 -84 45h-168q-91 0 -146 44q-55 45 -55 120q0 26 15 26
q10 0 16 -16q15 -43 84 -43h916l2 45q0 189 -129 387l76 117q8 12 16 12t17 -16q131 -262 131 -422q0 -61 -13 -123h398q2 21 2 45q0 189 -129 387l75 117q9 12 17 12t16 -16q131 -262 131 -422q0 -61 -12 -123h346q2 21 2 45q0 189 -129 387l76 117q8 12 16 12t17 -16
q131 -262 131 -422q0 -65 -13 -123h113v-131h-10q-55 0 -87 30q-21 19 -26 26l-31 -56h-309q-48 0 -79 30q-21 20 -27 26q0 -10 -31 -56h-360q-49 0 -80 30q-21 19 -27 26q0 -10 -31 -56h-508z" />
    <glyph glyph-name="uniFD18" unicode="&#xfeb4;&#xfef2;" horiz-adv-x="2677" arabic-form="final" 
d="M612 -711l-72 -73l-90 92l90 90l72 -72l72 72l92 -90l-92 -92zM1081 0q-9 -150 -135 -283q-140 -147 -328 -147q-235 0 -386 194q-132 169 -132 367q0 46 31 115l67 153q13 25 21 25q12 0 12 -16l-4 -191q0 -258 125 -396q109 -120 276 -120q138 0 238 96q86 82 86 158
q0 45 -84 45h-168q-91 0 -146 44q-55 45 -55 120q0 26 15 26q10 0 16 -16q15 -43 84 -43h916l2 45q0 189 -129 387l76 117q8 12 16 12t17 -16q131 -262 131 -422q0 -61 -13 -123h398q2 21 2 45q0 189 -129 387l75 117q9 12 17 12t16 -16q131 -262 131 -422q0 -61 -12 -123
h346q2 21 2 45q0 189 -129 387l76 117q8 12 16 12t17 -16q131 -262 131 -422q0 -65 -13 -123h113v-131h-10q-55 0 -87 30q-21 19 -26 26l-31 -56h-309q-48 0 -79 30q-21 20 -27 26q0 -10 -31 -56h-360q-49 0 -80 30q-21 19 -27 26q0 -10 -31 -56h-508z" />
    <glyph glyph-name="uniFD19" unicode="&#xfeb8;&#xfef0;" horiz-adv-x="2677" arabic-form="final" 
d="M1958 944l-72 -72l-92 93l92 90l72 -72l72 72l92 -90l-92 -93zM1081 0q-9 -150 -135 -283q-140 -147 -328 -147q-235 0 -386 194q-132 169 -132 367q0 46 31 115l67 153q13 25 21 25q12 0 12 -16l-4 -191q0 -258 125 -396q109 -120 276 -120q138 0 238 96q86 82 86 158
q0 45 -84 45h-168q-91 0 -146 44q-55 45 -55 120q0 26 15 26q10 0 16 -16q15 -43 84 -43h916l2 45q0 189 -129 387l76 117q8 12 16 12t17 -16q131 -262 131 -422q0 -61 -13 -123h398q2 21 2 45q0 189 -129 387l75 117q9 12 17 12t16 -16q131 -262 131 -422q0 -61 -12 -123
h346q2 21 2 45q0 189 -129 387l76 117q8 12 16 12t17 -16q131 -262 131 -422q0 -65 -13 -123h113v-131h-10q-55 0 -87 30q-21 19 -26 26l-31 -56h-309q-48 0 -79 30q-21 20 -27 26q0 -10 -31 -56h-360q-49 0 -80 30q-21 19 -27 26q0 -10 -31 -56h-508zM1958 1087l-74 72
l74 74l72 -74z" />
    <glyph glyph-name="uniFD1A" unicode="&#xfeb8;&#xfef2;" horiz-adv-x="2677" arabic-form="final" 
d="M612 -711l-72 -73l-90 92l90 90l72 -72l72 72l92 -90l-92 -92zM1958 944l-72 -72l-92 93l92 90l72 -72l72 72l92 -90l-92 -93zM1081 0q-9 -150 -135 -283q-140 -147 -328 -147q-235 0 -386 194q-132 169 -132 367q0 46 31 115l67 153q13 25 21 25q12 0 12 -16l-4 -191
q0 -258 125 -396q109 -120 276 -120q138 0 238 96q86 82 86 158q0 45 -84 45h-168q-91 0 -146 44q-55 45 -55 120q0 26 15 26q10 0 16 -16q15 -43 84 -43h916l2 45q0 189 -129 387l76 117q8 12 16 12t17 -16q131 -262 131 -422q0 -61 -13 -123h398q2 21 2 45q0 189 -129 387
l75 117q9 12 17 12t16 -16q131 -262 131 -422q0 -61 -12 -123h346q2 21 2 45q0 189 -129 387l76 117q8 12 16 12t17 -16q131 -262 131 -422q0 -65 -13 -123h113v-131h-10q-55 0 -87 30q-21 19 -26 26l-31 -56h-309q-48 0 -79 30q-21 20 -27 26q0 -10 -31 -56h-360
q-49 0 -80 30q-21 19 -27 26q0 -10 -31 -56h-508zM1958 1087l-74 72l74 74l72 -74z" />
    <glyph glyph-name="uniFD21" unicode="&#xfebc;&#xfef0;" horiz-adv-x="2192" arabic-form="final" 
d="M1958 131q6 43 6 102q0 117 -56 213q-64 109 -161 109q-96 0 -215 -161q-38 -51 -93 -140l-79 -123h598zM1081 0q-9 -150 -135 -283q-140 -147 -328 -147q-235 0 -386 194q-132 169 -132 367q0 46 31 115l67 153q13 25 21 25q12 0 12 -16l-4 -191q0 -258 125 -396
q109 -120 276 -120q138 0 238 96q86 82 86 158q0 45 -84 45h-168q-91 0 -146 44q-55 45 -55 120q0 26 15 26q10 0 16 -16q15 -43 84 -43h621q-5 110 -37 254l78 111q34 -168 43 -254q255 450 465 450q144 0 237 -149q82 -131 82 -293q0 -61 -12 -119h111v-131h-17
q-46 0 -78 30q-30 27 -30 29q-5 0 -25 -59h-971z" />
    <glyph glyph-name="uniFD22" unicode="&#xfebc;&#xfef2;" horiz-adv-x="2192" arabic-form="final" 
d="M612 -711l-72 -73l-90 92l90 90l72 -72l72 72l92 -90l-92 -92zM1958 131q6 43 6 102q0 117 -56 213q-64 109 -161 109q-96 0 -215 -161q-38 -51 -93 -140l-79 -123h598zM1081 0q-9 -150 -135 -283q-140 -147 -328 -147q-235 0 -386 194q-132 169 -132 367q0 46 31 115
l67 153q13 25 21 25q12 0 12 -16l-4 -191q0 -258 125 -396q109 -120 276 -120q138 0 238 96q86 82 86 158q0 45 -84 45h-168q-91 0 -146 44q-55 45 -55 120q0 26 15 26q10 0 16 -16q15 -43 84 -43h621q-5 110 -37 254l78 111q34 -168 43 -254q255 450 465 450
q144 0 237 -149q82 -131 82 -293q0 -61 -12 -119h111v-131h-17q-46 0 -78 30q-30 27 -30 29q-5 0 -25 -59h-971z" />
    <glyph glyph-name="uniFD23" unicode="&#xfec0;&#xfef0;" horiz-adv-x="2192" arabic-form="final" 
d="M1958 131q6 43 6 102q0 117 -56 213q-64 109 -161 109q-96 0 -215 -161q-38 -51 -93 -140l-79 -123h598zM1534 805l-92 90l92 92l90 -92zM1081 0q-9 -150 -135 -283q-140 -147 -328 -147q-235 0 -386 194q-132 169 -132 367q0 46 31 115l67 153q13 25 21 25q12 0 12 -16
l-4 -191q0 -258 125 -396q109 -120 276 -120q138 0 238 96q86 82 86 158q0 45 -84 45h-168q-91 0 -146 44q-55 45 -55 120q0 26 15 26q10 0 16 -16q15 -43 84 -43h621q-5 110 -37 254l78 111q34 -168 43 -254q255 450 465 450q144 0 237 -149q82 -131 82 -293
q0 -61 -12 -119h111v-131h-17q-46 0 -78 30q-30 27 -30 29q-5 0 -25 -59h-971z" />
    <glyph glyph-name="uniFD24" unicode="&#xfec0;&#xfef2;" horiz-adv-x="2192" arabic-form="final" 
d="M612 -711l-72 -73l-90 92l90 90l72 -72l72 72l92 -90l-92 -92zM1958 131q6 43 6 102q0 117 -56 213q-64 109 -161 109q-96 0 -215 -161q-38 -51 -93 -140l-79 -123h598zM1534 805l-92 90l92 92l90 -92zM1081 0q-9 -150 -135 -283q-140 -147 -328 -147q-235 0 -386 194
q-132 169 -132 367q0 46 31 115l67 153q13 25 21 25q12 0 12 -16l-4 -191q0 -258 125 -396q109 -120 276 -120q138 0 238 96q86 82 86 158q0 45 -84 45h-168q-91 0 -146 44q-55 45 -55 120q0 26 15 26q10 0 16 -16q15 -43 84 -43h621q-5 110 -37 254l78 111q34 -168 43 -254
q255 450 465 450q144 0 237 -149q82 -131 82 -293q0 -61 -12 -119h111v-131h-17q-46 0 -78 30q-30 27 -30 29q-5 0 -25 -59h-971z" />
    <glyph glyph-name="uniFD29" unicode="&#xfeb8;&#xfeae;" horiz-adv-x="2447" arabic-form="final" 
d="M1728 944l-72 -72l-92 93l92 90l72 -72l72 72l92 -90l-92 -93zM790 0q-78 4 -133 68q-7 -179 -109 -357q-81 -141 -164 -141l-127 10q-124 10 -198 10q-29 0 -29 15q0 16 31 16q194 5 334 117q149 119 149 295q0 150 -84 297q-84 146 -84 155q0 22 10 50l50 149q2 8 12 8
q4 0 24 -61q164 -500 328 -500h500l2 45q0 189 -129 387l76 117q8 12 16 12t17 -16q131 -262 131 -422q0 -61 -13 -123h398q2 21 2 45q0 189 -129 387l75 117q9 12 17 12t16 -16q131 -262 131 -422q0 -61 -12 -123h346q2 21 2 45q0 189 -129 387l76 117q8 12 16 12t17 -16
q131 -262 131 -422q0 -65 -13 -123h113v-131h-10q-55 0 -87 30q-21 19 -26 26l-31 -56h-309q-48 0 -79 30q-21 20 -27 26q0 -10 -31 -56h-360q-49 0 -80 30q-21 19 -27 26q0 -10 -31 -56h-569zM1728 1087l-74 72l74 74l72 -74z" />
    <glyph glyph-name="uniFD2A" unicode="&#xfeb4;&#xfeae;" horiz-adv-x="2447" arabic-form="final" 
d="M790 0q-78 4 -133 68q-7 -179 -109 -357q-81 -141 -164 -141l-127 10q-124 10 -198 10q-29 0 -29 15q0 16 31 16q194 5 334 117q149 119 149 295q0 150 -84 297q-84 146 -84 155q0 22 10 50l50 149q2 8 12 8q4 0 24 -61q164 -500 328 -500h500l2 45q0 189 -129 387
l76 117q8 12 16 12t17 -16q131 -262 131 -422q0 -61 -13 -123h398q2 21 2 45q0 189 -129 387l75 117q9 12 17 12t16 -16q131 -262 131 -422q0 -61 -12 -123h346q2 21 2 45q0 189 -129 387l76 117q8 12 16 12t17 -16q131 -262 131 -422q0 -65 -13 -123h113v-131h-10
q-55 0 -87 30q-21 19 -26 26l-31 -56h-309q-48 0 -79 30q-21 20 -27 26q0 -10 -31 -56h-360q-49 0 -80 30q-21 19 -27 26q0 -10 -31 -56h-569z" />
    <glyph glyph-name="uniFD2B" unicode="&#xfebc;&#xfeae;" horiz-adv-x="1872" arabic-form="final" 
d="M1638 131q6 43 6 102q0 117 -56 213q-64 109 -161 109q-96 0 -215 -161q-38 -51 -93 -140l-79 -123h598zM790 0q-78 4 -133 68q-7 -179 -109 -357q-81 -141 -164 -141l-127 10q-124 10 -198 10q-29 0 -29 15q0 16 31 16q194 5 334 117q149 119 149 295q0 150 -84 297
q-84 146 -84 155q0 22 10 50l50 149q2 8 12 8q4 0 24 -61q164 -500 328 -500h115q-5 110 -37 254l78 111q34 -168 43 -254q255 450 465 450q144 0 237 -149q82 -131 82 -293q0 -61 -12 -119h111v-131h-17q-46 0 -78 30q-30 27 -30 29q-5 0 -25 -59h-942z" />
    <glyph glyph-name="uniFD2C" unicode="&#xfec0;&#xfeae;" horiz-adv-x="1872" arabic-form="final" 
d="M1638 131q6 43 6 102q0 117 -56 213q-64 109 -161 109q-96 0 -215 -161q-38 -51 -93 -140l-79 -123h598zM1214 805l-92 90l92 92l90 -92zM790 0q-78 4 -133 68q-7 -179 -109 -357q-81 -141 -164 -141l-127 10q-124 10 -198 10q-29 0 -29 15q0 16 31 16q194 5 334 117
q149 119 149 295q0 150 -84 297q-84 146 -84 155q0 22 10 50l50 149q2 8 12 8q4 0 24 -61q164 -500 328 -500h115q-5 110 -37 254l78 111q34 -168 43 -254q255 450 465 450q144 0 237 -149q82 -131 82 -293q0 -61 -12 -119h111v-131h-17q-46 0 -78 30q-30 27 -30 29
q-5 0 -25 -59h-942z" />
    <glyph glyph-name="uniFEF5" unicode="&#xfedf;&#xfe82;" horiz-adv-x="981" arabic-form="isolated" 
d="M716 131q2 14 2 47q0 138 -108 250q-113 -173 -264 -297h370zM831 920q70 -40 70 -43q0 -9 -8 -25l-23 -51q-12 -21 -27 -21t-38 15q-78 -170 -134 -273q142 -155 142 -317q0 -94 -56 -205h-589q-39 0 -39 43v70q0 24 12 24l13 -3q10 -3 16 -3q29 0 71 33
q172 130 305 323q-170 189 -229 189q-11 0 -24 -17q-13 -16 -33 -16q-30 0 -72 33q-45 35 -45 69t26 90q30 66 64 66q98 0 373 -305q87 147 133 315q11 43 29 43q4 -3 63 -34zM278 1073q-47 19 -72 19q-43 0 -71 -41q-27 -41 -31 -41t-4 6q0 45 35 92q44 59 112 59
q33 0 86 -21q53 -22 70 -22q29 0 57 43l27 43q6 0 6 -6q0 -36 -27 -83q-40 -66 -108 -66q-33 0 -80 18z" />
    <glyph glyph-name="uniFEF6" unicode="&#xfee0;&#xfe82;" horiz-adv-x="944" arabic-form="final" 
d="M278 1061q-47 18 -72 18q-43 0 -71 -41q-27 -41 -31 -41t-4 7q0 45 35 92q44 59 112 59q33 0 86 -21q53 -22 70 -22q29 0 57 43l27 43q6 0 6 -6q0 -37 -27 -83q-40 -67 -108 -67q-33 0 -80 19zM927 0q-55 0 -87 30q-29 27 -29 29q-6 0 -19 -18q-75 -111 -209 -111
q-30 0 -138 12q-107 11 -200 11q-22 0 -22 14q0 10 16 15q288 38 391 106q-84 318 -337 547q-11 -27 -31 -27q-7 0 -62 51q-51 47 -51 72q0 21 12 49l27 66q18 45 41 45q20 0 49 -25q310 -238 432 -727q33 33 33 137v576l72 90q8 12 18 12t10 -24v-729q0 -32 -10 -70h121
v-131h-27z" />
    <glyph glyph-name="uniFEF7" unicode="&#xfedf;&#xfe84;" horiz-adv-x="954" arabic-form="isolated" 
d="M286 1331q-12 4 -30 4q-38 0 -64 -21q-24 -21 -24 -48q0 -66 100 -66q52 0 90 27q-4 -54 -28 -76q-22 -20 -93 -37q-57 -13 -96 -46l-35 -30q-6 0 -6 4q0 64 115 121q-101 12 -101 90q0 73 74 123q59 39 109 39q12 0 12 -8q0 -4 -4 -16zM690 131q2 14 2 47
q0 138 -109 250q-113 -173 -264 -297h371zM805 920q69 -40 69 -43q0 -9 -8 -25l-23 -51q-12 -21 -26 -21q-15 0 -39 15q-77 -170 -133 -273q141 -155 141 -317q0 -94 -55 -205h-590q-39 0 -39 43v70q0 24 12 24l13 -3q10 -3 16 -3q30 0 72 33q171 130 305 323
q-170 189 -230 189q-10 0 -24 -17q-13 -16 -33 -16q-29 0 -71 33q-46 35 -46 69t26 90q31 66 64 66q98 0 373 -305q87 147 133 315q11 43 29 43q3 -3 64 -34z" />
    <glyph glyph-name="uniFEF8" unicode="&#xfee0;&#xfe84;" horiz-adv-x="921" arabic-form="final" 
d="M905 0q-56 0 -88 30q-29 27 -29 29q-6 0 -18 -18q-75 -111 -209 -111q-31 0 -138 12q-108 11 -200 11q-23 0 -23 14q0 10 17 15q287 38 391 106q-84 318 -338 547q-11 -27 -31 -27q-6 0 -61 51q-51 47 -51 72q0 21 12 49l27 66q18 45 40 45q20 0 50 -25
q310 -238 432 -727q33 33 33 137v576l71 90q8 12 19 12q10 0 10 -24v-729q0 -32 -10 -70h120v-131h-26zM286 1319q-12 4 -30 4q-38 0 -64 -22q-24 -21 -24 -48q0 -65 100 -65q52 0 90 26q-4 -54 -28 -75q-22 -20 -93 -37q-57 -14 -96 -47l-35 -29q-6 0 -6 4q0 64 115 121
q-101 12 -101 90q0 73 74 122q59 40 109 40q12 0 12 -8q0 -4 -4 -17z" />
    <glyph glyph-name="uniFEF9" unicode="&#xfedf;&#xfe88;" horiz-adv-x="952" arabic-form="isolated" 
d="M688 131q2 14 2 47q0 138 -109 250q-113 -173 -264 -297h371zM802 920q70 -40 70 -43q0 -9 -8 -25l-23 -51q-12 -21 -26 -21q-15 0 -39 15q-77 -170 -133 -273q141 -155 141 -317q0 -94 -55 -205h-590q-39 0 -39 43v70q0 24 12 24l13 -3q10 -3 16 -3q30 0 72 33
q171 130 305 323q-170 189 -230 189q-10 0 -24 -17q-13 -16 -33 -16q-30 0 -71 33q-46 35 -46 69t26 90q31 66 64 66q98 0 373 -305q87 147 133 315q11 43 29 43q3 -3 63 -34zM288 -252q-12 4 -30 4q-38 0 -64 -22q-24 -20 -24 -47q0 -66 100 -66q52 0 90 27q-4 -55 -28 -76
q-22 -20 -93 -37q-56 -14 -96 -46l-35 -30q-6 0 -6 4q0 64 115 121q-101 12 -101 90q0 73 74 123q59 39 109 39q12 0 12 -8q0 -4 -4 -17z" />
    <glyph glyph-name="uniFEFA" unicode="&#xfee0;&#xfe88;" horiz-adv-x="895" arabic-form="final" 
d="M878 0q-56 0 -87 30q-29 27 -29 29q-7 0 -19 -18q-75 -111 -209 -111q-31 0 -138 12q-108 11 -200 11q-22 0 -22 14q0 10 16 15q288 38 391 106q-84 318 -338 547q-10 -27 -30 -27q-7 0 -62 51q-51 47 -51 72q0 21 12 49l27 66q18 45 41 45q20 0 49 -25
q310 -238 432 -727q33 33 33 137v576l72 90q8 12 18 12t10 -24v-729q0 -32 -10 -70h121v-131h-27zM342 -299q-13 4 -31 4q-37 0 -63 -22q-25 -20 -25 -48q0 -65 100 -65q52 0 90 27q-4 -55 -28 -76q-22 -20 -92 -37q-57 -14 -97 -46l-35 -30q-6 0 -6 4q0 64 115 121
q-100 12 -100 90q0 73 73 123q59 39 109 39q12 0 12 -8q0 -4 -4 -17z" />
    <glyph glyph-name="uniFEFB" unicode="&#xfedf;&#xfe8e;" horiz-adv-x="953" arabic-form="isolated" 
d="M688 131q2 14 2 47q0 138 -108 250q-113 -173 -264 -297h370zM757 944q16 -8 46 -24q70 -40 70 -43q0 -9 -9 -25l-22 -51q-12 -21 -27 -21t-39 15q-77 -170 -133 -273q141 -155 141 -317q0 -94 -55 -205h-590q-39 0 -39 43v70q0 24 13 24l13 -3q10 -3 15 -3q30 0 72 33
q172 130 305 323q-170 189 -229 189q-11 0 -24 -17q-14 -16 -33 -16q-30 0 -72 33q-45 35 -45 69t26 90q30 66 64 66q97 0 373 -305q86 147 133 315q10 43 28 43q2 -1 18 -10z" />
    <glyph glyph-name="uniFEFC" unicode="&#xfee0;&#xfe8e;" horiz-adv-x="895" arabic-form="final" 
d="M879 0q-56 0 -88 30q-29 27 -29 29q-6 0 -18 -18q-75 -111 -209 -111q-31 0 -139 12q-107 11 -199 11q-23 0 -23 14q0 10 17 15q287 38 391 106q-85 318 -338 547q-11 -27 -31 -27q-6 0 -61 51q-52 47 -52 72q0 21 13 49l26 66q18 45 41 45q20 0 49 -25
q310 -238 433 -727q32 33 32 137v576l72 90q8 12 18 12q11 0 11 -24v-729q0 -32 -11 -70h121v-131h-26z" />
    <glyph glyph-name="uniFE8B_uniFEE4.liga" unicode="&#xfe8b;&#xfee4;" horiz-adv-x="1272" 
d="M600 211q0 133 -49 238q-49 106 -113 106q-56 0 -112 -135q-94 -227 -131 -289q190 0 370 -117q35 75 35 197zM1047 1087q-12 5 -31 5q-37 0 -63 -22q-25 -21 -25 -48q0 -66 101 -66q51 0 90 27q-5 -54 -28 -75q-22 -20 -93 -38q-57 -13 -96 -46l-35 -29q-6 0 -6 4
q0 63 114 121q-100 12 -100 90q0 73 74 122q58 39 108 39q13 0 13 -8q0 -4 -4 -16zM830 0q-39 0 -67 30q-28 29 -30 29q-6 0 -18 -55q-46 -164 -97 -164q-7 0 -155 80q-149 80 -273 80h-190v131h8q76 0 113 66q28 53 74 162q50 115 73 161q87 172 185 172q121 0 207 -147
q83 -142 83 -326l-6 -88h343q2 21 2 45q0 189 -129 387l76 117q8 12 16 12t16 -16q131 -262 131 -422q0 -132 -53 -254h-309z" />
    <glyph glyph-name="uniFE8B_uniFEF0.liga" unicode="&#xfe8b;&#xfef0;" horiz-adv-x="1552" 
d="M1081 0q-9 -150 -135 -283q-140 -147 -328 -147q-235 0 -386 194q-132 169 -132 367q0 46 31 115l67 153q13 25 21 25q12 0 12 -16l-4 -191q0 -258 125 -396q109 -120 276 -120q138 0 238 96q86 82 86 158q0 45 -84 45h-168q-91 0 -146 44q-55 45 -55 120q0 26 15 26
q10 0 16 -16q15 -43 84 -43h746q2 21 2 45q0 189 -129 387l76 117q8 12 16 12t16 -16q131 -262 131 -422q0 -132 -53 -254h-338zM1327 1087q-12 5 -31 5q-37 0 -63 -22q-25 -21 -25 -48q0 -66 101 -66q51 0 90 27q-5 -54 -28 -75q-22 -20 -93 -38q-57 -13 -96 -46l-35 -29
q-6 0 -6 4q0 63 114 121q-100 12 -100 90q0 73 74 122q58 39 108 39q13 0 13 -8q0 -4 -4 -16z" />
    <glyph glyph-name="uniFE8B_uniFEF2.liga" unicode="&#xfe8b;&#xfef2;" horiz-adv-x="1552" 
d="M612 -711l-72 -73l-90 92l90 90l72 -72l72 72l92 -90l-92 -92zM1081 0q-9 -150 -135 -283q-140 -147 -328 -147q-235 0 -386 194q-132 169 -132 367q0 46 31 115l67 153q13 25 21 25q12 0 12 -16l-4 -191q0 -258 125 -396q109 -120 276 -120q138 0 238 96q86 82 86 158
q0 45 -84 45h-168q-91 0 -146 44q-55 45 -55 120q0 26 15 26q10 0 16 -16q15 -43 84 -43h746q2 21 2 45q0 189 -129 387l76 117q8 12 16 12t16 -16q131 -262 131 -422q0 -132 -53 -254h-338zM1327 1087q-12 5 -31 5q-37 0 -63 -22q-25 -21 -25 -48q0 -66 101 -66q51 0 90 27
q-5 -54 -28 -75q-22 -20 -93 -38q-57 -13 -96 -46l-35 -29q-6 0 -6 4q0 63 114 121q-100 12 -100 90q0 73 74 122q58 39 108 39q13 0 13 -8q0 -4 -4 -16z" />
    <glyph glyph-name="uniFE91_uniFEE4.liga" unicode="&#xfe91;&#xfee4;" horiz-adv-x="1272" 
d="M600 211q0 133 -49 238q-49 106 -113 106q-56 0 -112 -135q-94 -227 -131 -289q190 0 370 -117q35 75 35 197zM830 0q-39 0 -67 30q-28 29 -30 29q-6 0 -18 -55q-46 -164 -97 -164q-7 0 -155 80q-149 80 -273 80h-190v131h8q76 0 113 66q28 53 74 162q50 115 73 161
q87 172 185 172q121 0 207 -147q83 -142 83 -326l-6 -88h343q2 21 2 45q0 189 -129 387l76 117q8 12 16 12t16 -16q131 -262 131 -422q0 -132 -53 -254h-309zM920 -289l92 90l90 -90l-90 -92z" />
    <glyph glyph-name="uniFE92_uniFEE6.liga" unicode="&#xfe92;&#xfee6;" horiz-adv-x="1633" 
d="M440 717l92 90l90 -90l-90 -92zM1270 -289l92 90l90 -90l-90 -92zM1180 0q-32 1 -60 20l-29 21q-8 0 -8 -14q-16 -207 -165 -339q-134 -118 -300 -118q-234 0 -386 196q-132 170 -132 369q0 42 31 111l69 162q9 16 19 16q12 0 12 -14l-2 -73q-2 -64 -2 -142
q0 -228 118 -365q111 -129 283 -129q158 0 256 114q90 105 90 248q0 216 -184 500l76 119q7 10 14 10q4 0 13 -12q173 -322 190 -549h347q2 21 2 45q0 189 -129 387l76 117q8 12 16 12t16 -16q131 -262 131 -422q0 -65 -12 -123h113v-131h-10q-55 0 -87 30q-21 19 -26 26
q0 -11 -29 -56h-311z" />
    <glyph glyph-name="uniFE91_uniFEF0.liga" unicode="&#xfe91;&#xfef0;" horiz-adv-x="1542" 
d="M1190 -289l92 90l90 -90l-90 -92zM1081 0q-9 -150 -135 -283q-140 -147 -328 -147q-235 0 -386 194q-132 169 -132 367q0 46 31 115l67 153q13 25 21 25q12 0 12 -16l-4 -191q0 -258 125 -396q109 -120 276 -120q138 0 238 96q86 82 86 158q0 45 -84 45h-168
q-91 0 -146 44q-55 45 -55 120q0 26 15 26q10 0 16 -16q15 -43 84 -43h736q2 21 2 45q0 189 -129 387l76 117q8 12 16 12t16 -16q131 -262 131 -422q0 -132 -53 -254h-328z" />
    <glyph glyph-name="uniFE91_uniFEF2.liga" unicode="&#xfe91;&#xfef2;" horiz-adv-x="1542" 
d="M612 -711l-72 -73l-90 92l90 90l72 -72l72 72l92 -90l-92 -92zM1190 -289l92 90l90 -90l-90 -92zM1081 0q-9 -150 -135 -283q-140 -147 -328 -147q-235 0 -386 194q-132 169 -132 367q0 46 31 115l67 153q13 25 21 25q12 0 12 -16l-4 -191q0 -258 125 -396
q109 -120 276 -120q138 0 238 96q86 82 86 158q0 45 -84 45h-168q-91 0 -146 44q-55 45 -55 120q0 26 15 26q10 0 16 -16q15 -43 84 -43h736q2 21 2 45q0 189 -129 387l76 117q8 12 16 12t16 -16q131 -262 131 -422q0 -132 -53 -254h-328z" />
    <glyph glyph-name="uniFE97_uniFEE4.liga" unicode="&#xfe97;&#xfee4;" horiz-adv-x="1272" 
d="M600 211q0 133 -49 238q-49 106 -113 106q-56 0 -112 -135q-94 -227 -131 -289q190 0 370 -117q35 75 35 197zM830 0q-39 0 -67 30q-28 29 -30 29q-6 0 -18 -55q-46 -164 -97 -164q-7 0 -155 80q-149 80 -273 80h-190v131h8q76 0 113 66q28 53 74 162q50 115 73 161
q87 172 185 172q121 0 207 -147q83 -142 83 -326l-6 -88h343q2 21 2 45q0 189 -129 387l76 117q8 12 16 12t16 -16q131 -262 131 -422q0 -132 -53 -254h-309zM1082 872l-72 72l-71 -72l-93 91l93 92l71 -72l72 72l92 -92z" />
    <glyph glyph-name="uniFE98_uniFEE6.liga" unicode="&#xfe98;&#xfee6;" horiz-adv-x="1633" 
d="M440 717l92 90l90 -90l-90 -92zM1180 0q-32 1 -60 20l-29 21q-8 0 -8 -14q-16 -207 -165 -339q-134 -118 -300 -118q-234 0 -386 196q-132 170 -132 369q0 42 31 111l69 162q9 16 19 16q12 0 12 -14l-2 -73q-2 -64 -2 -142q0 -228 118 -365q111 -129 283 -129
q158 0 256 114q90 105 90 248q0 216 -184 500l76 119q7 10 14 10q4 0 13 -12q173 -322 190 -549h347q2 21 2 45q0 189 -129 387l76 117q8 12 16 12t16 -16q131 -262 131 -422q0 -65 -12 -123h113v-131h-10q-55 0 -87 30q-21 19 -26 26q0 -11 -29 -56h-311zM1432 872l-72 72
l-71 -72l-93 91l93 92l71 -72l72 72l92 -92z" />
    <glyph glyph-name="uniFE97_uniFEF0.liga" unicode="&#xfe97;&#xfef0;" horiz-adv-x="1552" 
d="M1362 872l-72 72l-71 -72l-93 91l93 92l71 -72l72 72l92 -92zM1081 0q-9 -150 -135 -283q-140 -147 -328 -147q-235 0 -386 194q-132 169 -132 367q0 46 31 115l67 153q13 25 21 25q12 0 12 -16l-4 -191q0 -258 125 -396q109 -120 276 -120q138 0 238 96q86 82 86 158
q0 45 -84 45h-168q-91 0 -146 44q-55 45 -55 120q0 26 15 26q10 0 16 -16q15 -43 84 -43h746q2 21 2 45q0 189 -129 387l76 117q8 12 16 12t16 -16q131 -262 131 -422q0 -132 -53 -254h-338z" />
    <glyph glyph-name="uniFE97_uniFEF2.liga" unicode="&#xfe97;&#xfef2;" horiz-adv-x="1552" 
d="M612 -711l-72 -73l-90 92l90 90l72 -72l72 72l92 -90l-92 -92zM1362 872l-72 72l-71 -72l-93 91l93 92l71 -72l72 72l92 -92zM1081 0q-9 -150 -135 -283q-140 -147 -328 -147q-235 0 -386 194q-132 169 -132 367q0 46 31 115l67 153q13 25 21 25q12 0 12 -16l-4 -191
q0 -258 125 -396q109 -120 276 -120q138 0 238 96q86 82 86 158q0 45 -84 45h-168q-91 0 -146 44q-55 45 -55 120q0 26 15 26q10 0 16 -16q15 -43 84 -43h746q2 21 2 45q0 189 -129 387l76 117q8 12 16 12t16 -16q131 -262 131 -422q0 -132 -53 -254h-338z" />
    <glyph glyph-name="uniFE9C_uniFEAE.liga" unicode="&#xfe9c;&#xfeae;" horiz-adv-x="1243" 
d="M1042 872l-72 72l-71 -72l-93 91l93 92l71 -72l72 72l92 -92zM790 0q-78 4 -133 68q-7 -179 -109 -357q-81 -141 -164 -141l-127 10q-124 10 -198 10q-29 0 -29 15q0 16 31 16q194 5 334 117q149 119 149 295q0 150 -84 297q-84 146 -84 155q0 22 10 50l50 149q2 8 12 8
q4 0 24 -61q164 -500 328 -500h240q2 21 2 45q0 189 -129 387l76 117q8 12 16 12t16 -16q131 -262 131 -422q0 -65 -12 -123h113v-131h-10q-55 0 -87 30q-21 19 -26 26q0 -11 -29 -56h-311zM970 1087l-74 72l74 72l74 -72z" />
    <glyph glyph-name="uniFE9B_uniFEE4.liga" unicode="&#xfe9b;&#xfee4;" horiz-adv-x="1272" 
d="M600 211q0 133 -49 238q-49 106 -113 106q-56 0 -112 -135q-94 -227 -131 -289q190 0 370 -117q35 75 35 197zM830 0q-39 0 -67 30q-28 29 -30 29q-6 0 -18 -55q-46 -164 -97 -164q-7 0 -155 80q-149 80 -273 80h-190v131h8q76 0 113 66q28 53 74 162q50 115 73 161
q87 172 185 172q121 0 207 -147q83 -142 83 -326l-6 -88h343q2 21 2 45q0 189 -129 387l76 117q8 12 16 12t16 -16q131 -262 131 -422q0 -132 -53 -254h-309zM1010 1087l-74 72l74 72l74 -72zM1082 872l-72 72l-71 -72l-93 91l93 92l71 -72l72 72l92 -92z" />
    <glyph glyph-name="uniFE9C_uniFEE6.liga" unicode="&#xfe9c;&#xfee6;" horiz-adv-x="1633" 
d="M440 717l92 90l90 -90l-90 -92zM1180 0q-32 1 -60 20l-29 21q-8 0 -8 -14q-16 -207 -165 -339q-134 -118 -300 -118q-234 0 -386 196q-132 170 -132 369q0 42 31 111l69 162q9 16 19 16q12 0 12 -14l-2 -73q-2 -64 -2 -142q0 -228 118 -365q111 -129 283 -129
q158 0 256 114q90 105 90 248q0 216 -184 500l76 119q7 10 14 10q4 0 13 -12q173 -322 190 -549h347q2 21 2 45q0 189 -129 387l76 117q8 12 16 12t16 -16q131 -262 131 -422q0 -65 -12 -123h113v-131h-10q-55 0 -87 30q-21 19 -26 26q0 -11 -29 -56h-311zM1360 1087l-74 72
l74 72l74 -72zM1432 872l-72 72l-71 -72l-93 91l93 92l71 -72l72 72l92 -92z" />
    <glyph glyph-name="uniFE9B_uniFEF0.liga" unicode="&#xfe9b;&#xfef0;" horiz-adv-x="1552" 
d="M1362 872l-72 72l-71 -72l-93 91l93 92l71 -72l72 72l92 -92zM1081 0q-9 -150 -135 -283q-140 -147 -328 -147q-235 0 -386 194q-132 169 -132 367q0 46 31 115l67 153q13 25 21 25q12 0 12 -16l-4 -191q0 -258 125 -396q109 -120 276 -120q138 0 238 96q86 82 86 158
q0 45 -84 45h-168q-91 0 -146 44q-55 45 -55 120q0 26 15 26q10 0 16 -16q15 -43 84 -43h746q2 21 2 45q0 189 -129 387l76 117q8 12 16 12t16 -16q131 -262 131 -422q0 -132 -53 -254h-338zM1290 1087l-74 72l74 72l74 -72z" />
    <glyph glyph-name="uniFE9B_uniFEF2.liga" unicode="&#xfe9b;&#xfef2;" horiz-adv-x="1552" 
d="M612 -711l-72 -73l-90 92l90 90l72 -72l72 72l92 -90l-92 -92zM1362 872l-72 72l-71 -72l-93 91l93 92l71 -72l72 72l92 -92zM1081 0q-9 -150 -135 -283q-140 -147 -328 -147q-235 0 -386 194q-132 169 -132 367q0 46 31 115l67 153q13 25 21 25q12 0 12 -16l-4 -191
q0 -258 125 -396q109 -120 276 -120q138 0 238 96q86 82 86 158q0 45 -84 45h-168q-91 0 -146 44q-55 45 -55 120q0 26 15 26q10 0 16 -16q15 -43 84 -43h746q2 21 2 45q0 189 -129 387l76 117q8 12 16 12t16 -16q131 -262 131 -422q0 -132 -53 -254h-338zM1290 1087l-74 72
l74 72l74 -72z" />
    <glyph glyph-name="uniFEDB_uniFEF0.liga" unicode="&#xfedb;&#xfef0;" horiz-adv-x="1953" 
d="M1081 0q-9 -150 -135 -283q-140 -147 -328 -147q-235 0 -386 194q-132 169 -132 367q0 46 31 115l67 153q13 25 21 25q12 0 12 -16l-4 -191q0 -258 125 -396q109 -120 276 -120q138 0 238 96q86 82 86 158q0 45 -84 45h-168q-91 0 -146 44q-55 45 -55 120q0 26 15 26
q10 0 16 -16q15 -43 84 -43h1096q4 21 4 37q0 128 -481 410l-10 -19q-7 -12 -19 -12q-17 0 -51 24q-35 25 -35 43q0 12 6 21l53 108q31 62 134 88l481 125q8 0 8 -8q0 -2 -8 -18l-55 -90l-469 -123q198 -113 333 -215q232 -175 232 -301q0 -71 -55 -201h-697z" />
    <glyph glyph-name="uniFEDC_uniFEF0.liga" unicode="&#xfedc;&#xfef0;" horiz-adv-x="1905" 
d="M1081 0q-9 -150 -135 -283q-140 -147 -328 -147q-235 0 -386 194q-132 169 -132 367q0 46 31 115l67 153q13 25 21 25q12 0 12 -16l-4 -191q0 -258 125 -396q109 -120 276 -120q138 0 238 96q86 82 86 158q0 45 -84 45h-168q-91 0 -146 44q-55 45 -55 120q0 26 15 26
q10 0 16 -16q15 -43 84 -43h1076q4 21 4 37q0 128 -481 410l-10 -19q-7 -12 -19 -12q-17 0 -51 24q-35 25 -35 43q0 12 6 21l53 108q31 62 134 88l481 125q8 0 8 -8q0 -2 -8 -18l-55 -90l-469 -123q198 -113 333 -215q232 -175 232 -301q0 -29 -10 -70h112v-131h-16
q-55 0 -87 30q-19 18 -25 25q-2 -12 -29 -55h-677z" />
    <glyph glyph-name="uniFEDB_uniFEF2.liga" unicode="&#xfedb;&#xfef2;" horiz-adv-x="1953" 
d="M612 -711l-72 -73l-90 92l90 90l72 -72l72 72l92 -90l-92 -92zM1081 0q-9 -150 -135 -283q-140 -147 -328 -147q-235 0 -386 194q-132 169 -132 367q0 46 31 115l67 153q13 25 21 25q12 0 12 -16l-4 -191q0 -258 125 -396q109 -120 276 -120q138 0 238 96q86 82 86 158
q0 45 -84 45h-168q-91 0 -146 44q-55 45 -55 120q0 26 15 26q10 0 16 -16q15 -43 84 -43h1096q4 21 4 37q0 128 -481 410l-10 -19q-7 -12 -19 -12q-17 0 -51 24q-35 25 -35 43q0 12 6 21l53 108q31 62 134 88l481 125q8 0 8 -8q0 -2 -8 -18l-55 -90l-469 -123
q198 -113 333 -215q232 -175 232 -301q0 -71 -55 -201h-697z" />
    <glyph glyph-name="uniFEDC_uniFEF2.liga" unicode="&#xfedc;&#xfef2;" horiz-adv-x="1905" 
d="M612 -711l-72 -73l-90 92l90 90l72 -72l72 72l92 -90l-92 -92zM1081 0q-9 -150 -135 -283q-140 -147 -328 -147q-235 0 -386 194q-132 169 -132 367q0 46 31 115l67 153q13 25 21 25q12 0 12 -16l-4 -191q0 -258 125 -396q109 -120 276 -120q138 0 238 96q86 82 86 158
q0 45 -84 45h-168q-91 0 -146 44q-55 45 -55 120q0 26 15 26q10 0 16 -16q15 -43 84 -43h1076q4 21 4 37q0 128 -481 410l-10 -19q-7 -12 -19 -12q-17 0 -51 24q-35 25 -35 43q0 12 6 21l53 108q31 62 134 88l481 125q8 0 8 -8q0 -2 -8 -18l-55 -90l-469 -123
q198 -113 333 -215q232 -175 232 -301q0 -29 -10 -70h112v-131h-16q-55 0 -87 30q-19 18 -25 25q-2 -12 -29 -55h-677z" />
    <glyph glyph-name="uniFEDF_uniFB51.rlig" unicode="&#xfedf;&#xfb51;" horiz-adv-x="981" 
d="M716 131q2 14 2 47q0 138 -108 250q-113 -173 -264 -297h370zM831 920q70 -40 70 -43q0 -9 -8 -25l-23 -51q-12 -21 -27 -21t-38 15q-78 -170 -134 -273q142 -155 142 -317q0 -94 -56 -205h-589q-39 0 -39 43v70q0 24 12 24l13 -3q10 -3 16 -3q29 0 71 33
q172 130 305 323q-170 189 -229 189q-11 0 -24 -17q-13 -16 -33 -16q-30 0 -72 33q-45 35 -45 69t26 90q30 66 64 66q98 0 373 -305q87 147 133 315q11 43 29 43q4 -3 63 -34zM397 1129q27 0 48 35q17 30 17 53q0 35 -36 35q-37 0 -66 -36l-23 -31q-13 -19 -22 -27
q70 -29 82 -29zM446 1303q64 0 64 -76q0 -56 -38 -109q-45 -63 -112 -63q-32 0 -79 20q-47 19 -72 19q-46 0 -75 -41q-28 -38 -28 -41q-6 0 -6 4q0 58 59 117q38 38 96 38q9 0 19 -1q83 133 172 133z" />
    <glyph glyph-name="uniFEE0_uniFB51.rlig" unicode="&#xfee0;&#xfb51;" horiz-adv-x="944" 
d="M927 0q-55 0 -87 30q-29 27 -29 29q-6 0 -19 -18q-75 -111 -209 -111q-30 0 -138 12q-107 11 -200 11q-22 0 -22 14q0 10 16 15q288 38 391 106q-84 318 -337 547q-11 -27 -31 -27q-7 0 -62 51q-51 47 -51 72q0 21 12 49l27 66q18 45 41 45q20 0 49 -25
q310 -238 432 -727q33 33 33 137v576l72 90q8 12 18 12t10 -24v-729q0 -32 -10 -70h121v-131h-27zM397 1109q27 0 48 35q17 30 17 53q0 35 -36 35q-37 0 -66 -36l-23 -31q-13 -19 -22 -27q70 -29 82 -29zM446 1283q64 0 64 -76q0 -56 -38 -109q-45 -63 -112 -63
q-32 0 -79 20q-47 19 -72 19q-46 0 -75 -41q-28 -38 -28 -41q-6 0 -6 4q0 58 59 117q38 38 96 38q9 0 19 -1q83 133 172 133z" />
    <glyph glyph-name="uniFEDF_uniFEE2.liga" unicode="&#xfedf;&#xfee2;" horiz-adv-x="1420" 
d="M805 211q0 133 -49 238q-49 106 -113 106q-57 0 -113 -135q-94 -227 -131 -289q191 0 371 -117q35 75 35 197zM1035 0q-39 0 -67 30q-29 29 -30 29q-7 0 -19 -55q-45 -164 -96 -164q-7 0 -156 80q-148 80 -272 80q-85 0 -176 -41q43 -344 43 -391q0 -76 -53 -168
q-8 -14 -21 -14q-14 0 -14 24q0 32 -37 257q-37 224 -37 265q0 181 186 199q10 15 169 354q97 207 202 207q121 0 208 -147q83 -142 83 -326l-6 -88h249v442q0 121 -68 160l170 209q8 12 18 12q9 0 9 -24v-709q0 -118 -49 -221h-236z" />
    <glyph glyph-name="uniFEE4_uniFE8E.liga" unicode="&#xfee4;&#xfe8e;" horiz-adv-x="1226" 
d="M990 211q0 133 -49 238q-49 106 -113 106q-56 0 -112 -135q-94 -227 -131 -289q190 0 370 -117q35 75 35 197zM301 0q-133 0 -133 139v434q0 121 -68 160l170 209q8 12 18 12q11 0 11 -24v-750q0 -49 49 -49h50q76 0 113 66q28 53 74 162q50 115 73 161q87 172 185 172
q121 0 207 -147q83 -142 83 -326l-6 -88h109v-131h-15q-40 0 -68 30q-28 29 -30 29q-6 0 -18 -55q-46 -164 -97 -164q-7 0 -155 80q-149 80 -273 80h-279z" />
    <glyph glyph-name="uniFEE4_uniFE82.liga" unicode="&#xfee4;&#xfe82;" horiz-adv-x="1226" 
d="M366 1185q-40 -67 -108 -67q-33 0 -80 19q-47 18 -72 18q-43 0 -71 -41q-27 -41 -31 -41t-4 6q0 46 35 93q44 59 112 59q33 0 86 -22q53 -21 70 -21q29 0 57 43l27 43q6 0 6 -6q0 -37 -27 -83zM990 211q0 133 -49 238q-49 106 -113 106q-56 0 -112 -135
q-94 -227 -131 -289q190 0 370 -117q35 75 35 197zM303 0q-133 0 -133 139v434q0 121 -68 160l170 209q9 12 19 12t10 -24v-750q0 -49 49 -49h48q76 0 113 66q28 53 74 162q50 115 73 161q87 172 185 172q121 0 207 -147q83 -142 83 -326l-6 -88h109v-131h-15q-40 0 -68 30
q-28 29 -30 29q-6 0 -18 -55q-46 -164 -97 -164q-7 0 -155 80q-149 80 -273 80h-277z" />
    <glyph glyph-name="uniFEE4_uniFE84.liga" unicode="&#xfee4;&#xfe84;" horiz-adv-x="1246" 
d="M286 1327q-12 4 -30 4q-38 0 -64 -22q-24 -20 -24 -47q0 -66 100 -66q52 0 90 27q-4 -55 -28 -76q-22 -20 -93 -37q-57 -14 -96 -46l-35 -30q-6 0 -6 4q0 64 115 121q-101 12 -101 90q0 73 74 123q59 39 109 39q12 0 12 -8q0 -4 -4 -17zM1010 211q0 133 -49 238
q-49 106 -113 106q-56 0 -112 -135q-94 -227 -131 -289q190 0 370 -117q35 75 35 197zM320 0q-133 0 -133 139v434q0 121 -67 160l170 209q8 12 18 12t10 -24v-750q0 -49 50 -49h50q76 0 113 66q28 53 74 162q50 115 73 161q87 172 185 172q121 0 207 -147q83 -142 83 -326
l-6 -88h109v-131h-15q-40 0 -68 30q-28 29 -30 29q-6 0 -18 -55q-46 -164 -97 -164q-7 0 -155 80q-149 80 -273 80h-280z" />
    <glyph glyph-name="uniFEE4_uniFE88.liga" unicode="&#xfee4;&#xfe88;" horiz-adv-x="1226" 
d="M303 -248q-13 4 -31 4q-37 0 -63 -21q-25 -21 -25 -48q0 -66 100 -66q52 0 90 27q-4 -55 -28 -76q-22 -20 -92 -37q-57 -13 -97 -46l-34 -30q-7 0 -7 4q0 64 115 121q-100 12 -100 90q0 73 73 123q59 39 109 39q12 0 12 -8q0 -4 -4 -16zM990 211q0 133 -49 238
q-49 106 -113 106q-56 0 -112 -135q-94 -227 -131 -289q190 0 370 -117q35 75 35 197zM301 0q-133 0 -133 139v434q0 121 -68 160l170 209q8 12 18 12q11 0 11 -24v-750q0 -49 49 -49h50q76 0 113 66q28 53 74 162q50 115 73 161q87 172 185 172q121 0 207 -147
q83 -142 83 -326l-6 -88h109v-131h-15q-40 0 -68 30q-28 29 -30 29q-6 0 -18 -55q-46 -164 -97 -164q-7 0 -155 80q-149 80 -273 80h-279z" />
    <glyph glyph-name="uniFEE8_uniFEAE.liga" unicode="&#xfee8;&#xfeae;" horiz-adv-x="1243" 
d="M944 862l-93 90l93 92l90 -92zM790 0q-78 4 -133 68q-7 -179 -109 -357q-81 -141 -164 -141l-127 10q-124 10 -198 10q-29 0 -29 15q0 16 31 16q194 5 334 117q149 119 149 295q0 150 -84 297q-84 146 -84 155q0 22 10 50l50 149q2 8 12 8q4 0 24 -61q164 -500 328 -500
h240q2 21 2 45q0 189 -129 387l76 117q8 12 16 12t16 -16q131 -262 131 -422q0 -65 -12 -123h113v-131h-10q-55 0 -87 30q-21 19 -26 26q0 -11 -29 -56h-311z" />
    <glyph glyph-name="uniFEE7_uniFEE4.liga" unicode="&#xfee7;&#xfee4;" horiz-adv-x="1272" 
d="M600 211q0 133 -49 238q-49 106 -113 106q-56 0 -112 -135q-94 -227 -131 -289q190 0 370 -117q35 75 35 197zM830 0q-39 0 -67 30q-28 29 -30 29q-6 0 -18 -55q-46 -164 -97 -164q-7 0 -155 80q-149 80 -273 80h-190v131h8q76 0 113 66q28 53 74 162q50 115 73 161
q87 172 185 172q121 0 207 -147q83 -142 83 -326l-6 -88h343q2 21 2 45q0 189 -129 387l76 117q8 12 16 12t16 -16q131 -262 131 -422q0 -132 -53 -254h-309zM984 862l-93 90l93 92l90 -92z" />
    <glyph glyph-name="uniFEE7_uniFEF0.liga" unicode="&#xfee7;&#xfef0;" horiz-adv-x="1532" 
d="M1244 862l-93 90l93 92l90 -92zM1081 0q-9 -150 -135 -283q-140 -147 -328 -147q-235 0 -386 194q-132 169 -132 367q0 46 31 115l67 153q13 25 21 25q12 0 12 -16l-4 -191q0 -258 125 -396q109 -120 276 -120q138 0 238 96q86 82 86 158q0 45 -84 45h-168q-91 0 -146 44
q-55 45 -55 120q0 26 15 26q10 0 16 -16q15 -43 84 -43h726q2 21 2 45q0 189 -129 387l76 117q8 12 16 12t16 -16q131 -262 131 -422q0 -132 -53 -254h-318z" />
    <glyph glyph-name="uniFEE7_uniFEF2.liga" unicode="&#xfee7;&#xfef2;" horiz-adv-x="1532" 
d="M612 -711l-72 -73l-90 92l90 90l72 -72l72 72l92 -90l-92 -92zM1244 862l-93 90l93 92l90 -92zM1081 0q-9 -150 -135 -283q-140 -147 -328 -147q-235 0 -386 194q-132 169 -132 367q0 46 31 115l67 153q13 25 21 25q12 0 12 -16l-4 -191q0 -258 125 -396
q109 -120 276 -120q138 0 238 96q86 82 86 158q0 45 -84 45h-168q-91 0 -146 44q-55 45 -55 120q0 26 15 26q10 0 16 -16q15 -43 84 -43h726q2 21 2 45q0 189 -129 387l76 117q8 12 16 12t16 -16q131 -262 131 -422q0 -132 -53 -254h-318z" />
    <glyph glyph-name="uniFEF4_uniFEAE.liga" unicode="&#xfef4;&#xfeae;" horiz-adv-x="1243" 
d="M972 -309l-73 -72l-91 92l91 90l73 -71l72 71l90 -90l-90 -92zM790 0q-78 4 -133 68q-7 -179 -109 -357q-81 -141 -164 -141l-127 10q-124 10 -198 10q-29 0 -29 15q0 16 31 16q194 5 334 117q149 119 149 295q0 150 -84 297q-84 146 -84 155q0 22 10 50l50 149q2 8 12 8
q4 0 24 -61q164 -500 328 -500h240q2 21 2 45q0 189 -129 387l76 117q8 12 16 12t16 -16q131 -262 131 -422q0 -65 -12 -123h113v-131h-10q-55 0 -87 30q-21 19 -26 26q0 -11 -29 -56h-311z" />
    <glyph glyph-name="uniFEF3_uniFEE4.liga" unicode="&#xfef3;&#xfee4;" horiz-adv-x="1272" 
d="M600 211q0 133 -49 238q-49 106 -113 106q-56 0 -112 -135q-94 -227 -131 -289q190 0 370 -117q35 75 35 197zM830 0q-39 0 -67 30q-28 29 -30 29q-6 0 -18 -55q-46 -164 -97 -164q-7 0 -155 80q-149 80 -273 80h-190v131h8q76 0 113 66q28 53 74 162q50 115 73 161
q87 172 185 172q121 0 207 -147q83 -142 83 -326l-6 -88h343q2 21 2 45q0 189 -129 387l76 117q8 12 16 12t16 -16q131 -262 131 -422q0 -132 -53 -254h-309zM1012 -309l-73 -72l-91 92l91 90l73 -71l72 71l90 -90l-90 -92z" />
    <glyph glyph-name="uniFEF4_uniFEE6.liga" unicode="&#xfef4;&#xfee6;" horiz-adv-x="1633" 
d="M440 717l92 90l90 -90l-90 -92zM1180 0q-32 1 -60 20l-29 21q-8 0 -8 -14q-16 -207 -165 -339q-134 -118 -300 -118q-234 0 -386 196q-132 170 -132 369q0 42 31 111l69 162q9 16 19 16q12 0 12 -14l-2 -73q-2 -64 -2 -142q0 -228 118 -365q111 -129 283 -129
q158 0 256 114q90 105 90 248q0 216 -184 500l76 119q7 10 14 10q4 0 13 -12q173 -322 190 -549h347q2 21 2 45q0 189 -129 387l76 117q8 12 16 12t16 -16q131 -262 131 -422q0 -65 -12 -123h113v-131h-10q-55 0 -87 30q-21 19 -26 26q0 -11 -29 -56h-311zM1362 -309
l-73 -72l-91 92l91 90l73 -71l72 71l90 -90l-90 -92z" />
    <glyph glyph-name="T_h.liga" unicode="Th" horiz-adv-x="1386" 
d="M722 713q0 44 -17.5 73t-53.5 56q-30 24 -105 24h-106v-743q0 -54 17 -69q18 -16 85 -17q11 0 11 -10q0 -29 -17 -29l-266 1l-78 -1q-8 0 -8 10q0 30 22 33q73 9 91 14v811h-82q-86 0 -120 -25q-26 -20 -40 -75q-4 -21 -21 -21q-16 0 -16 21q0 44 23 190q0 12 11 13
q5 -1 77 -6q90 -7 239 -7q150 0 230 3.5t163 9.5l86 4q10 0 10 -15l-4 -88v-286q100 110 222 110q118 0 162 -81q34 -65 34 -224l-4 -252q0 -82 49 -82q17 0 31 7q14 8 20 8q11 0 11 -13q0 -67 -123 -67q-119 0 -119 114l4 291q0 119 -33 156q-23 27 -90 27q-113 0 -164 -60
v-395q0 -50 12 -65q18 -22 78 -23q11 0 11 -8q0 -29 -17 -29l-236 1l-67 -1q-8 0 -8 10q0 26 23 29q44 6 73 14v662z" />
    <glyph glyph-name="f_b.liga" unicode="fb" horiz-adv-x="1265" 
d="M739 113q80 -37 158 -37q65 0 115 33q65 42 65 239q0 244 -186 244q-94 0 -152 -57v-422zM554 932q-17 -80 -45 -80q-6 0 -45 18q-39 19 -73 19q-72 0 -89 -23q-26 -36 -26 -121v-63h160q12 0 24 5q11 5 15 5q8 0 8 -10q0 -19 -19 -66q-4 -12 -26 -12h-162v-481
q0 -52 18 -68q22 -19 97 -20q8 0 8 -8q0 -29 -17 -29l-258 1l-67 -1q-8 0 -8 10q0 26 22 29q44 6 74 14v553h-119l16 78h103v12q0 293 301 293q81 0 98 -14l22 -1q14 0 29 -1l50 -2l86 4q12 0 12 -15l-4 -88v-276q75 100 209 100q133 0 204 -96q64 -88 64 -229
q0 -201 -125 -303q-95 -76 -217 -76q-137 0 -260 26q-14 3 -14 19l3 70q3 79 3 169v596q0 58 -52 62z" />
    <glyph glyph-name="f_f_b.liga" unicode="ffb" horiz-adv-x="1765" 
d="M145 604h-119l16 78h103v12q0 293 301 293q110 0 110 -41q0 -19 -13 -53q-16 -41 -34 -41q-6 0 -45 18q-39 19 -73 19q-72 0 -89 -23q-26 -36 -26 -121v-63h160q12 0 24 5q11 5 15 5q8 0 8 -10q0 -19 -19 -66q-4 -12 -26 -12h-162v-481q0 -52 18 -68q22 -19 97 -20
q8 0 8 -8q0 -29 -17 -29l-258 1l-67 -1q-8 0 -8 10q0 26 22 29q44 6 74 14v553zM1239 113q80 -37 158 -37q65 0 115 33q65 42 65 239q0 244 -186 244q-94 0 -152 -57v-422zM1054 932q-17 -80 -45 -80q-6 0 -45 18q-39 19 -73 19q-72 0 -89 -23q-26 -36 -26 -121v-63h160
q12 0 24 5q11 5 15 5q8 0 8 -10q0 -19 -19 -66q-4 -12 -26 -12h-162v-481q0 -52 18 -68q22 -19 97 -20q8 0 8 -8q0 -29 -17 -29l-258 1l-67 -1q-8 0 -8 10q0 26 22 29q44 6 74 14v553h-119l16 78h103v12q0 293 301 293q81 0 98 -14l22 -1q14 0 29 -1l50 -2l86 4q12 0 12 -15
l-4 -88v-276q75 100 209 100q133 0 204 -96q64 -88 64 -229q0 -201 -125 -303q-95 -76 -217 -76q-137 0 -260 26q-14 3 -14 19l3 70q3 79 3 169v596q0 58 -52 62z" />
    <glyph glyph-name="f_f.liga" unicode="ff" horiz-adv-x="1007" 
d="M145 604h-119l16 78h103v12q0 293 301 293q110 0 110 -41q0 -19 -13 -53q-16 -41 -34 -41q-6 0 -45 18q-39 19 -73 19q-72 0 -89 -23q-26 -36 -26 -121v-63h160q12 0 24 5q11 5 15 5q8 0 8 -10q0 -19 -19 -66q-4 -12 -26 -12h-162v-481q0 -52 18 -68q22 -19 97 -20
q8 0 8 -8q0 -29 -17 -29l-258 1l-67 -1q-8 0 -8 10q0 26 22 29q44 6 74 14v553zM649 604h-119l16 78h103v12q0 293 301 293q110 0 110 -41q0 -19 -13 -53q-16 -41 -34 -41q-7 0 -45 18q-39 19 -74 19q-71 0 -88 -23q-26 -36 -26 -121v-63h159q13 0 24 5q12 5 15 5q9 0 9 -10
q0 -19 -19 -66q-4 -12 -27 -12h-161v-481q0 -52 18 -68q21 -19 96 -20q9 0 9 -8q0 -29 -17 -29l-259 1l-66 -1q-9 0 -9 10q0 26 23 29q44 6 74 14v553z" />
    <glyph glyph-name="f_h.liga" unicode="fh" horiz-adv-x="1276" 
d="M554 932q-17 -80 -45 -80q-6 0 -45 18q-39 19 -73 19q-72 0 -89 -23q-26 -36 -26 -121v-63h160q12 0 24 5q11 5 15 5q8 0 8 -10q0 -19 -19 -66q-4 -12 -26 -12h-162v-481q0 -52 18 -68q22 -19 97 -20q8 0 8 -8q0 -29 -17 -29l-258 1l-67 -1q-8 0 -8 10q0 26 22 29
q44 6 74 14v553h-119l16 78h103v12q0 293 301 293q81 0 98 -14q27 0 57 -2l50 -2l86 4q10 0 10 -15l-4 -88v-286q100 110 222 110q118 0 162 -81q34 -65 34 -224l-4 -252q0 -82 49 -82q17 0 31 7q14 8 20 8q11 0 11 -13q0 -67 -123 -67q-119 0 -119 114l4 291q0 119 -33 156
q-23 27 -90 27q-113 0 -164 -60v-395q0 -50 12 -65q18 -22 78 -23q11 0 11 -8q0 -29 -17 -29l-236 1l-67 -1q-8 0 -8 10q0 26 23 29q44 6 73 14v819q0 61 -58 62z" />
    <glyph glyph-name="f_f_h.liga" unicode="ffh" horiz-adv-x="1776" 
d="M145 604h-119l16 78h103v12q0 293 301 293q110 0 110 -41q0 -19 -13 -53q-16 -41 -34 -41q-6 0 -45 18q-39 19 -73 19q-72 0 -89 -23q-26 -36 -26 -121v-63h160q12 0 24 5q11 5 15 5q8 0 8 -10q0 -19 -19 -66q-4 -12 -26 -12h-162v-481q0 -52 18 -68q22 -19 97 -20
q8 0 8 -8q0 -29 -17 -29l-258 1l-67 -1q-8 0 -8 10q0 26 22 29q44 6 74 14v553zM1054 932q-17 -80 -45 -80q-6 0 -45 18q-39 19 -73 19q-72 0 -89 -23q-26 -36 -26 -121v-63h160q12 0 24 5q11 5 15 5q8 0 8 -10q0 -19 -19 -66q-4 -12 -26 -12h-162v-481q0 -52 18 -68
q22 -19 97 -20q8 0 8 -8q0 -29 -17 -29l-258 1l-67 -1q-8 0 -8 10q0 26 22 29q44 6 74 14v553h-119l16 78h103v12q0 293 301 293q81 0 98 -14q27 0 57 -2l50 -2l86 4q10 0 10 -15l-4 -88v-286q100 110 222 110q118 0 162 -81q34 -65 34 -224l-4 -252q0 -82 49 -82q17 0 31 7
q14 8 20 8q11 0 11 -13q0 -67 -123 -67q-119 0 -119 114l4 291q0 119 -33 156q-23 27 -90 27q-113 0 -164 -60v-395q0 -50 12 -65q18 -22 78 -23q11 0 11 -8q0 -29 -17 -29l-236 1l-67 -1q-8 0 -8 10q0 26 23 29q44 6 73 14v819q0 61 -58 62z" />
    <glyph glyph-name="f_f_i.liga" unicode="ffi" horiz-adv-x="1388" 
d="M145 604h-119l16 78h103v12q0 293 301 293q110 0 110 -41q0 -19 -13 -53q-16 -41 -34 -41q-6 0 -45 18q-39 19 -73 19q-72 0 -89 -23q-26 -36 -26 -121v-63h160q12 0 24 5q11 5 15 5q8 0 8 -10q0 -19 -19 -66q-4 -12 -26 -12h-162v-481q0 -52 18 -68q22 -19 97 -20
q8 0 8 -8q0 -29 -17 -29l-258 1l-67 -1q-8 0 -8 10q0 26 22 29q44 6 74 14v553zM649 604h-119l16 78h103v12q0 293 301 293q110 0 110 -41q0 -19 -13 -53q-16 -41 -34 -41q-7 0 -45 18q-39 19 -74 19q-71 0 -88 -23q-26 -36 -26 -121v-63h159q13 0 24 5q12 5 15 5q9 0 9 -10
q0 -19 -19 -66q-4 -12 -27 -12h-161v-481q0 -52 18 -68q21 -19 96 -20q9 0 9 -8q0 -29 -17 -29l-259 1l-66 -1q-9 0 -9 10q0 26 23 29q44 6 74 14v553zM1217 829q-56 -22 -87 -22t-31 70q0 15 59 53q56 37 70 37q17 0 36 -36q17 -33 17 -52q0 -25 -64 -50zM1130 584
q0 59 -60 59h-16q-14 0 -14 12q0 29 12 29l117 -2l86 2q12 0 12 -14l-4 -86v-447q0 -82 49 -82q17 0 32 7q15 8 21 8q11 0 11 -13q0 -67 -125 -67q-121 0 -121 114v480z" />
    <glyph glyph-name="f_j.liga" unicode="fj" horiz-adv-x="871" 
d="M713 829q-56 -22 -87 -22t-31 70q0 15 59 53q56 37 70 37q17 0 36 -36q18 -33 18 -52q0 -25 -65 -50zM145 604h-119l16 78h103v12q0 293 301 293q110 0 110 -41q0 -19 -13 -53q-16 -41 -34 -41q-6 0 -45 18q-39 19 -73 19q-72 0 -89 -23q-26 -36 -26 -121v-63h160
q12 0 24 5q11 5 15 5q8 0 8 -10q0 -19 -19 -66q-4 -12 -26 -12h-162v-481q0 -52 18 -68q22 -19 97 -20q8 0 8 -8q0 -29 -17 -29l-258 1l-67 -1q-8 0 -8 10q0 26 22 29q44 6 74 14v553zM625 584q0 59 -60 59h-16q-15 0 -15 12q0 29 13 29l117 -2l86 2q12 0 12 -14l-4 -86
v-588q0 -293 -307 -293q-109 0 -109 41q0 17 14 53q16 41 31 41q6 0 47 -18q42 -19 74 -19q75 0 92 23q25 34 25 121v639z" />
    <glyph glyph-name="f_f_j.liga" unicode="ffj" horiz-adv-x="1374" 
d="M145 604h-119l16 78h103v12q0 293 301 293q110 0 110 -41q0 -19 -13 -53q-16 -41 -34 -41q-6 0 -45 18q-39 19 -73 19q-72 0 -89 -23q-26 -36 -26 -121v-63h160q12 0 24 5q11 5 15 5q8 0 8 -10q0 -19 -19 -66q-4 -12 -26 -12h-162v-481q0 -52 18 -68q22 -19 97 -20
q8 0 8 -8q0 -29 -17 -29l-258 1l-67 -1q-8 0 -8 10q0 26 22 29q44 6 74 14v553zM649 604h-119l16 78h103v12q0 293 301 293q110 0 110 -41q0 -19 -13 -53q-16 -41 -34 -41q-7 0 -45 18q-39 19 -74 19q-71 0 -88 -23q-26 -36 -26 -121v-63h159q13 0 24 5q12 5 15 5q9 0 9 -10
q0 -19 -19 -66q-4 -12 -27 -12h-161v-481q0 -52 18 -68q21 -19 96 -20q9 0 9 -8q0 -29 -17 -29l-259 1l-66 -1q-9 0 -9 10q0 26 23 29q44 6 74 14v553zM1217 829q-56 -22 -87 -22t-31 70q0 15 59 53q56 37 70 37q17 0 36 -36q17 -33 17 -52q0 -25 -64 -50zM1128 584
q0 59 -59 59h-16q-15 0 -15 12q0 29 13 29l116 -2l86 2q13 0 13 -14l-4 -86v-588q0 -293 -308 -293q-108 0 -108 41q0 17 14 53q16 41 31 41q6 0 47 -18q42 -19 74 -19q75 0 92 23q24 34 24 121v639z" />
    <glyph glyph-name="f_k.liga" unicode="fk" horiz-adv-x="1206" 
d="M554 932q-17 -80 -45 -80q-6 0 -45 18q-39 19 -73 19q-72 0 -89 -23q-26 -36 -26 -121v-63h160q12 0 24 5q11 5 15 5q8 0 8 -10q0 -19 -19 -66q-4 -12 -26 -12h-162v-481q0 -52 18 -68q22 -19 97 -20q8 0 8 -8q0 -29 -17 -29l-258 1l-67 -1q-8 0 -8 10q0 26 22 29
q44 6 74 14v553h-119l16 78h103v12q0 293 301 293q81 0 98 -14h14q21 -1 43 -2l50 -2l86 4q10 0 10 -15l-4 -88v-516q122 115 234 234q18 18 18 35q0 22 -57 22q-16 0 -16 10q0 29 16 29l96 -2l70 2q22 0 22 -25q0 -16 -49 -65l-172 -166q141 -267 195 -338q26 -37 61 -37
q4 0 21 7q18 8 24 8q8 0 8 -13q0 -26 -33 -46q-33 -19 -77 -19q-63 0 -101 32q-44 37 -106 154q-12 21 -42 82q-36 71 -44 86l-68 -65v-156q0 -50 12 -65q18 -22 78 -23q11 0 11 -8q0 -29 -17 -29l-236 1l-67 -1q-8 0 -8 10q0 26 23 29q44 6 73 14v819q0 61 -58 62z" />
    <glyph glyph-name="f_f_k.liga" unicode="ffk" horiz-adv-x="1706" 
d="M145 604h-119l16 78h103v12q0 293 301 293q110 0 110 -41q0 -19 -13 -53q-16 -41 -34 -41q-6 0 -45 18q-39 19 -73 19q-72 0 -89 -23q-26 -36 -26 -121v-63h160q12 0 24 5q11 5 15 5q8 0 8 -10q0 -19 -19 -66q-4 -12 -26 -12h-162v-481q0 -52 18 -68q22 -19 97 -20
q8 0 8 -8q0 -29 -17 -29l-258 1l-67 -1q-8 0 -8 10q0 26 22 29q44 6 74 14v553zM1054 932q-17 -80 -45 -80q-6 0 -45 18q-39 19 -73 19q-72 0 -89 -23q-26 -36 -26 -121v-63h160q12 0 24 5q11 5 15 5q8 0 8 -10q0 -19 -19 -66q-4 -12 -26 -12h-162v-481q0 -52 18 -68
q22 -19 97 -20q8 0 8 -8q0 -29 -17 -29l-258 1l-67 -1q-8 0 -8 10q0 26 22 29q44 6 74 14v553h-119l16 78h103v12q0 293 301 293q81 0 98 -14h14q21 -1 43 -2l50 -2l86 4q10 0 10 -15l-4 -88v-516q122 115 234 234q18 18 18 35q0 22 -57 22q-16 0 -16 10q0 29 16 29l96 -2
l70 2q22 0 22 -25q0 -16 -49 -65l-172 -166q141 -267 195 -338q26 -37 61 -37q4 0 21 7q18 8 24 8q8 0 8 -13q0 -26 -33 -46q-33 -19 -77 -19q-63 0 -101 32q-44 37 -106 154q-12 21 -42 82q-36 71 -44 86l-68 -65v-156q0 -50 12 -65q18 -22 78 -23q11 0 11 -8
q0 -29 -17 -29l-236 1l-67 -1q-8 0 -8 10q0 26 23 29q44 6 73 14v819q0 61 -58 62z" />
    <glyph glyph-name="f_f_l.liga" unicode="ffl" horiz-adv-x="1372" 
d="M1118 870q0 62 -60 62q-17 -80 -45 -80q-7 0 -45 18q-39 19 -74 19q-71 0 -88 -23q-26 -36 -26 -121v-63h159q13 0 24 5q12 5 15 5q9 0 9 -10q0 -19 -19 -66q-4 -12 -27 -12h-161v-481q0 -52 18 -68q21 -19 96 -20q9 0 9 -8q0 -29 -17 -29l-259 1l-66 -1q-9 0 -9 10
q0 26 23 29q44 6 74 14v553h-119l16 78h103v12q0 293 301 293q81 0 98 -14q27 0 61 -2l47 -2l87 4q12 0 12 -15l-4 -88v-733q0 -82 49 -82q17 0 32 7q15 8 21 8q10 0 10 -13q0 -67 -125 -67q-120 0 -120 114v766zM145 604h-119l16 78h103v12q0 293 301 293q110 0 110 -41
q0 -19 -13 -53q-16 -41 -34 -41q-6 0 -45 18q-39 19 -73 19q-72 0 -89 -23q-26 -36 -26 -121v-63h160q12 0 24 5q11 5 15 5q8 0 8 -10q0 -19 -19 -66q-4 -12 -26 -12h-162v-481q0 -52 18 -68q22 -19 97 -20q8 0 8 -8q0 -29 -17 -29l-258 1l-67 -1q-8 0 -8 10q0 26 22 29
q44 6 74 14v553z" />
    <glyph glyph-name="f_t.liga" unicode="ft" horiz-adv-x="1007" 
d="M145 604h-119l16 78h103v12q0 293 301 293q110 0 110 -41q0 -19 -13 -53q-16 -41 -34 -41q-6 0 -45 18q-39 19 -73 19q-72 0 -89 -23q-26 -36 -26 -121v-63h160q12 0 24 5q11 5 15 5q8 0 8 -10q0 -19 -19 -66q-4 -12 -26 -12h-162v-481q0 -52 18 -68q22 -19 97 -20
q8 0 8 -8q0 -29 -17 -29l-258 1l-67 -1q-8 0 -8 10q0 26 22 29q44 6 74 14v553zM629 604h-113l16 78h97v106q0 22 -2 51l-2 38q0 22 10 22l112 14q15 0 15 -10v-221h164q12 0 25 5q12 5 16 5q8 0 8 -10q0 -14 -21 -66q-4 -12 -24 -12h-168v-401q0 -69 20 -94q23 -29 90 -29
q34 0 72 16q37 16 37 17q12 0 12 -15q0 -29 -46 -65q-53 -43 -120 -43q-198 0 -198 151v463z" />
    <glyph glyph-name="f_f_t.liga" unicode="fft" horiz-adv-x="1507" 
d="M145 604h-119l16 78h103v12q0 293 301 293q110 0 110 -41q0 -19 -13 -53q-16 -41 -34 -41q-6 0 -45 18q-39 19 -73 19q-72 0 -89 -23q-26 -36 -26 -121v-63h160q12 0 24 5q11 5 15 5q8 0 8 -10q0 -19 -19 -66q-4 -12 -26 -12h-162v-481q0 -52 18 -68q22 -19 97 -20
q8 0 8 -8q0 -29 -17 -29l-258 1l-67 -1q-8 0 -8 10q0 26 22 29q44 6 74 14v553zM649 604h-119l16 78h103v12q0 293 301 293q110 0 110 -41q0 -19 -13 -53q-16 -41 -34 -41q-7 0 -45 18q-39 19 -74 19q-71 0 -88 -23q-26 -36 -26 -121v-63h159q13 0 24 5q12 5 15 5q9 0 9 -10
q0 -19 -19 -66q-4 -12 -27 -12h-161v-481q0 -52 18 -68q21 -19 96 -20q9 0 9 -8q0 -29 -17 -29l-259 1l-66 -1q-9 0 -9 10q0 26 23 29q44 6 74 14v553zM1129 604h-113l16 78h97v106q0 22 -2 51l-2 38q0 22 10 22l112 14q15 0 15 -10v-221h164q12 0 25 5q12 5 16 5q8 0 8 -10
q0 -14 -21 -66q-4 -12 -24 -12h-168v-401q0 -69 20 -94q23 -29 90 -29q34 0 72 16q37 16 37 17q12 0 12 -15q0 -29 -46 -65q-53 -43 -120 -43q-198 0 -198 151v463z" />
    <glyph glyph-name="uni0647.fina" unicode="&#x647;" horiz-adv-x="1207" arabic-form="final" 
d="M549 159q99 0 150 82q37 61 37 137q0 101 -92 101q-68 0 -126 -70q-60 -74 -60 -173q0 -36 4 -77h87zM1002 178q0 112 -155 211q-25 -184 -92 -260q110 -33 188 -94q59 83 59 143zM1040 -5q-8 -17 -16 -31v1q-16 -28 -34 -59q-19 -33 -39 -33q-19 0 -53 25
q-126 81 -275 98q-7 -9 -15 -17q-95 -106 -169 -106q-11 0 -21 2l-122 37q-119 35 -191 51q-25 5 -25 17v3q2 12 19 12q6 0 14 -2q59 -11 116 -11q125 0 235 55l4 2q-39 5 -68 31q-11 8 -21 19q-20 22 -30 47.5t-11 79.5q7 175 191 345q-20 15 -20 27q0 8 4 16l70 111
q9 18 24 18q12 0 21 -28q4 -13 36 -29q459 -216 459 -467q0 -29 -18 -78h112v-131h-37q-50 0 -78 32q-25 29 -25 31q-1 0 -2 -1q-15 -31 -35 -67z" />
    <glyph glyph-name="uni0672.fina" unicode="&#x672;" horiz-adv-x="408" 
d="M309 180q0 -49 49 -49h60v-131h-107q-133 0 -133 139v434q0 121 -67 160l170 209q8 12 18 12t10 -24v-750zM288 1136q-13 -3 -27 -3q-32 0 -79.5 11t-72.5 11q-46 0 -75 -41q-28 -38 -28 -41q-6 0 -6 4q0 58 59 117q38 38 96 38h7q26 0 64 -18q-40 21 -40 67q0 66 66 110
q53 36 98 36q11 0 11 -7q0 -5 -4 -15l-17 -54q-11 4 -27 4q-34 0 -57 -20q-22 -19 -22 -43q0 -58 90 -58q47 0 81 23q-4 -49 -37 -81.5t-80 -39.5z" />
    <glyph glyph-name="uni0673.fina" unicode="&#x673;" horiz-adv-x="408" 
d="M309 180q0 -49 49 -49h60v-131h-107q-133 0 -133 139v434q0 121 -67 160l170 209q8 12 18 12t10 -24v-750zM288 -397q-13 -3 -27 -3q-32 0 -79.5 11t-72.5 11q-46 0 -75 -41q-28 -38 -28 -41q-6 0 -6 4q0 58 59 117q38 38 96 38h7q26 0 64 -18q-40 21 -40 67q0 66 66 110
q53 36 98 36q11 0 11 -7q0 -5 -4 -15l-17 -54q-11 4 -27 4q-34 0 -57 -20q-22 -19 -22 -43q0 -58 90 -58q47 0 81 23q-4 -49 -37 -81.5t-80 -39.5z" />
    <glyph glyph-name="uni0675.fina" unicode="&#x675;" horiz-adv-x="647" 
d="M298 180q0 -49 50 -49h309v-131h-357q-133 0 -133 139v434q0 121 -67 160l170 209q8 12 18 12t10 -24v-750zM550 1192q-12 4 -30 4q-38 0 -64 -22q-24 -20 -24 -47q0 -66 100 -66q52 0 90 27q-4 -55 -28 -76q-22 -20 -93 -37q-57 -14 -96 -46l-35 -30q-6 0 -6 4
q0 64 115 121q-101 12 -101 90q0 73 74 123q59 39 109 39q12 0 12 -8q0 -4 -4 -17z" />
    <glyph glyph-name="uni0676.fina" unicode="&#x676;" horiz-adv-x="899" 
d="M721 0q-15 -108 -68 -219q-62 -124 -91 -159q-43 -52 -106 -52q-11 0 -130 10t-195 10q-31 0 -31 15q0 13 37 16q426 31 467 379h-264q-211 0 -211 203q0 139 69 294q86 193 215 193q144 0 235 -189q79 -164 81 -370h180v-131h-188zM598 131q-11 148 -63 274
q-61 150 -142 150q-65 0 -104 -105q-31 -85 -31 -180q0 -90 49 -120q31 -19 110 -19h181zM754 1122q-12 4 -31 4q-37 0 -63 -21q-25 -21 -25 -48q0 -66 100 -66q52 0 91 27q-5 -54 -29 -76q-22 -20 -92 -37q-57 -13 -97 -46l-34 -30q-7 0 -7 5q0 63 115 120q-100 12 -100 90
q0 74 73 123q59 39 109 39q12 0 12 -8q0 -4 -4 -16z" />
    <glyph glyph-name="uni0677.fina" unicode="&#x677;" horiz-adv-x="899" 
d="M721 0q-15 -108 -68 -219q-62 -124 -91 -159q-43 -52 -106 -52q-11 0 -130 10t-195 10q-31 0 -31 15q0 13 37 16q426 31 467 379h-264q-211 0 -211 203q0 139 69 294q86 193 215 193q144 0 235 -189q79 -164 81 -370h180v-131h-188zM598 131q-11 148 -63 274
q-61 150 -142 150q-65 0 -104 -105q-31 -85 -31 -180q0 -90 49 -120q31 -19 110 -19h181zM754 1122q-12 4 -31 4q-37 0 -63 -21q-25 -21 -25 -48q0 -66 100 -66q52 0 91 27q-5 -54 -29 -76q-22 -20 -92 -37q-57 -13 -97 -46l-34 -30q-7 0 -7 5q0 63 115 120q-100 12 -100 90
q0 74 73 123q59 39 109 39q12 0 12 -8q0 -4 -4 -16zM446 1096q0 43 -39 43q-18 0 -45 -27q15 -37 68 -59q16 20 16 43zM430 961q-44 -68 -134 -126q-100 -63 -184 -63q-10 0 -10 6q0 7 8 11q174 74 266 209q-59 29 -59 65q0 38 35 88q39 55 80 55q53 0 53 -71q0 -44 -16 -96
q28 -16 28 -25q0 -13 -39 -70z" />
    <glyph glyph-name="uni0678.init" unicode="&#x678;" horiz-adv-x="522" 
d="M0 0v131h250q2 21 2 45q0 189 -129 387l76 117q8 12 16 12t16 -16q131 -262 131 -422q0 -132 -53 -254h-309zM411 1087q-12 5 -31 5q-37 0 -63 -22q-25 -21 -25 -48q0 -66 100 -66q52 0 90 27q-4 -54 -28 -75q-22 -20 -92 -38q-57 -13 -97 -46l-34 -29q-7 0 -7 4
q0 63 115 121q-100 12 -100 90q0 73 73 122q59 39 109 39q12 0 12 -8q0 -4 -4 -16z" />
    <glyph glyph-name="uni0678.medi" unicode="&#x678;" horiz-adv-x="533" 
d="M407 1087q-12 5 -31 5q-37 0 -63 -22q-25 -21 -25 -48q0 -66 101 -66q51 0 90 27q-5 -54 -28 -75q-22 -20 -93 -38q-57 -13 -96 -46l-35 -29q-6 0 -6 4q0 63 114 121q-100 12 -100 90q0 73 74 122q58 39 108 39q13 0 13 -8q0 -4 -4 -16zM340 56q0 -11 -29 -56h-311v131
h250q2 21 2 45q0 189 -129 387l76 117q8 12 16 12t16 -16q131 -262 131 -422q0 -65 -12 -123h193v-131h-90q-55 0 -87 30q-21 19 -26 26z" />
    <glyph glyph-name="uni0678.fina" unicode="&#x678;" horiz-adv-x="1196" 
d="M1081 0q-9 -150 -135 -283q-140 -147 -328 -147q-235 0 -386 194q-132 169 -132 367q0 46 31 115l67 153q13 25 21 25q12 0 12 -16l-4 -191q0 -258 125 -396q109 -120 276 -120q138 0 238 96q86 82 86 158q0 45 -84 45h-168q-91 0 -146 44q-55 45 -55 120q0 26 15 26
q10 0 16 -16q15 -43 84 -43h592v-131h-125zM1054 580q-12 4 -30 4q-38 0 -64 -22q-24 -20 -24 -48q0 -65 100 -65q52 0 90 27q-4 -55 -28 -76q-22 -20 -93 -37q-57 -14 -96 -46l-35 -30q-6 0 -6 4q0 64 115 121q-101 12 -101 90q0 73 74 123q59 39 109 39q12 0 12 -8
q0 -4 -4 -17z" />
    <glyph glyph-name="uni067C.init" unicode="&#x67c;" horiz-adv-x="442" 
d="M252 872l-72 72l-71 -72l-93 91l93 92l71 -72l72 72l92 -92zM132 13q-55 -69 -55 -100q0 -52 64 -52q33 0 55 13q28 17 28 50q0 35 -46 62zM71 0h-71v131h250q2 21 2 45q0 189 -129 387l76 117q8 12 16 12t16 -16q131 -262 131 -422q0 -132 -53 -254h-59q25 -28 25 -63
q0 -49 -29 -89q-37 -52 -109 -52q-52 0 -83 22q-35 23 -35 65q0 52 52 117z" />
    <glyph glyph-name="uni067C.medi" unicode="&#x67c;" horiz-adv-x="453" 
d="M252 872l-72 72l-71 -72l-93 91l93 92l71 -72l72 72l92 -92zM132 13q-55 -69 -55 -100q0 -52 64 -52q33 0 55 13q28 17 28 50q0 35 -46 62zM71 0h-71v131h250q2 21 2 45q0 189 -129 387l76 117q8 12 16 12t16 -16q131 -262 131 -422q0 -65 -12 -123h113v-131h-10
q-55 0 -87 30q-21 19 -26 26q0 -11 -29 -56h-61q25 -28 25 -63q0 -49 -29 -89q-37 -52 -109 -52q-52 0 -83 22q-35 23 -35 65q0 52 52 117z" />
    <glyph glyph-name="uni067C.fina" unicode="&#x67c;" horiz-adv-x="1137" 
d="M622 666l-71 71l-72 -71l-90 90l90 92l72 -72l73 72l90 -92zM552 13q-55 -69 -55 -100q0 -52 64 -52q33 0 55 13q28 17 28 50q0 35 -46 62zM491 0h-184q-207 0 -207 203q0 134 92 289q20 34 35 34q25 0 25 -26q0 -4 -29 -95q-29 -90 -29 -145q0 -129 148 -129h592
q2 21 2 45q0 189 -129 387l75 117q9 12 17 12t16 -16q131 -262 131 -422q0 -65 -12 -123h113v-131h-11q-54 0 -86 30q-21 19 -26 26q0 -11 -29 -56h-325q25 -28 25 -63q0 -49 -29 -89q-37 -52 -109 -52q-52 0 -83 22q-35 23 -35 65q0 52 52 117z" />
    <glyph glyph-name="uni067D.init" unicode="&#x67d;" horiz-adv-x="442" 
d="M108 1231l72 -72l71 72l93 -91l-93 -92l-71 72l-72 -72l-92 92zM180 1016l74 -72l-74 -72l-74 72zM0 0v131h250q2 21 2 45q0 189 -129 387l76 117q8 12 16 12t16 -16q131 -262 131 -422q0 -132 -53 -254h-309z" />
    <glyph glyph-name="uni067D.medi" unicode="&#x67d;" horiz-adv-x="453" 
d="M344 1140l-92 -92l-72 72l-71 -72l-93 92l93 91l71 -72l72 72zM254 944l-74 -72l-74 72l74 72zM340 56q0 -11 -29 -56h-311v131h250q2 21 2 45q0 189 -129 387l76 117q8 12 16 12t16 -16q131 -262 131 -422q0 -65 -12 -123h113v-131h-10q-55 0 -87 30q-21 19 -26 26z" />
    <glyph glyph-name="uni067D.fina" unicode="&#x67d;" horiz-adv-x="1137" 
d="M624 740l-73 -74l-72 74l72 73zM714 934l-90 -92l-73 72l-72 -72l-90 92l90 90l72 -71l71 71zM1024 56q0 -11 -29 -56h-688q-207 0 -207 203q0 134 92 289q20 34 35 34q25 0 25 -26q0 -4 -29 -95q-29 -90 -29 -145q0 -129 148 -129h592q2 21 2 45q0 189 -129 387l75 117
q9 12 17 12t16 -16q131 -262 131 -422q0 -65 -12 -123h113v-131h-11q-54 0 -86 30q-21 19 -26 26z" />
    <glyph glyph-name="uni0681.init" unicode="&#x681;" horiz-adv-x="1014" 
d="M874 37q-24 -37 -79 -37h-795v131h608q-36 34 -254 328q-75 100 -116 100q-30 0 -76 -32q-47 -31 -60 -31q-16 0 -16 16q0 14 18 33q135 145 189 145q62 0 137 -102q205 -286 276 -364q86 -93 156 -93q13 0 31 9q18 10 27 10q14 0 14 -15q0 -13 -10 -26zM444 1116
q-12 4 -31 4q-37 0 -63 -21q-25 -21 -25 -48q0 -66 100 -66q52 0 91 27q-5 -54 -29 -76q-22 -20 -92 -37q-57 -13 -97 -46l-34 -30q-7 0 -7 5q0 63 115 120q-100 12 -100 90q0 74 73 123q59 39 109 39q12 0 12 -8q0 -4 -4 -16z" />
    <glyph glyph-name="uni0681.medi" unicode="&#x681;" horiz-adv-x="1002" 
d="M1001 0q-49 0 -79 30q-27 26 -27 29q-2 0 -26 -29q-25 -30 -60 -30h-809v131h608q-36 34 -254 328q-75 100 -116 100q-30 0 -76 -32q-47 -31 -60 -31q-16 0 -16 16q0 14 18 33q135 145 189 145q62 0 137 -102q205 -286 276 -364q86 -93 156 -93h150v-131h-11zM444 1116
q-12 4 -31 4q-37 0 -63 -21q-25 -21 -25 -48q0 -66 100 -66q52 0 91 27q-5 -54 -29 -76q-22 -20 -92 -37q-57 -13 -97 -46l-34 -30q-7 0 -7 5q0 63 115 120q-100 12 -100 90q0 74 73 123q59 39 109 39q12 0 12 -8q0 -4 -4 -16z" />
    <glyph glyph-name="uni0681.fina" unicode="&#x681;" horiz-adv-x="1053" 
d="M238 -314q-138 125 -138 343q0 288 268 557q-73 47 -118 47q-34 0 -77 -23q-43 -22 -48 -22q-15 0 -15 16q0 10 25 39q87 105 168 105q30 0 140 -36t226 -36q139 0 216 21q71 20 71 22q21 0 21 -14q0 -7 -11 -27l-43 -80q-26 -47 -90 -47l-61 2l76 -326q14 -63 33 -79
q21 -17 91 -17h91v-131h-82q-114 0 -157 23q-55 30 -77 127l-92 397q-91 -10 -180 -62q-250 -151 -250 -393q0 -170 132 -280q121 -101 280 -101q62 0 143 7l90 8q23 0 23 -15q0 -11 -17 -18q-240 -90 -290 -114l-21 -9q-200 3 -327 116zM664 1122q-12 4 -31 4
q-37 0 -63 -21q-25 -21 -25 -48q0 -66 100 -66q52 0 91 27q-5 -54 -29 -76q-22 -20 -92 -37q-57 -13 -97 -46l-34 -30q-7 0 -7 5q0 63 115 120q-100 12 -100 90q0 74 73 123q59 39 109 39q12 0 12 -8q0 -4 -4 -16z" />
    <glyph glyph-name="uni0682.init" unicode="&#x682;" horiz-adv-x="1014" 
d="M874 37q-24 -37 -79 -37h-795v131h608q-36 34 -254 328q-75 100 -116 100q-30 0 -76 -32q-47 -31 -60 -31q-16 0 -16 16q0 14 18 33q135 145 189 145q62 0 137 -102q205 -286 276 -364q86 -93 156 -93q13 0 31 9q18 10 27 10q14 0 14 -15q0 -13 -10 -26zM312 1191l92 -90
l-72 -73l72 -72l-92 -90l-90 90l71 72l-71 71z" />
    <glyph glyph-name="uni0682.medi" unicode="&#x682;" horiz-adv-x="1002" 
d="M1001 0q-49 0 -79 30q-27 26 -27 29q-2 0 -26 -29q-25 -30 -60 -30h-809v131h608q-36 34 -254 328q-75 100 -116 100q-30 0 -76 -32q-47 -31 -60 -31q-16 0 -16 16q0 14 18 33q135 145 189 145q62 0 137 -102q205 -286 276 -364q86 -93 156 -93h150v-131h-11zM315 1193
l92 -90l-72 -73l72 -72l-92 -90l-90 90l71 72l-71 71z" />
    <glyph glyph-name="uni0682.fina" unicode="&#x682;" horiz-adv-x="1053" 
d="M238 -314q-138 125 -138 343q0 288 268 557q-73 47 -118 47q-34 0 -77 -23q-43 -22 -48 -22q-15 0 -15 16q0 10 25 39q87 105 168 105q30 0 140 -36t226 -36q139 0 216 21q71 20 71 22q21 0 21 -14q0 -7 -11 -27l-43 -80q-26 -47 -90 -47l-61 2l76 -326q14 -63 33 -79
q21 -17 91 -17h91v-131h-82q-114 0 -157 23q-55 30 -77 127l-92 397q-91 -10 -180 -62q-250 -151 -250 -393q0 -170 132 -280q121 -101 280 -101q62 0 143 7l90 8q23 0 23 -15q0 -11 -17 -18q-240 -90 -290 -114l-21 -9q-200 3 -327 116zM611 1179l92 -90l-72 -73l72 -72
l-92 -90l-90 90l71 72l-71 71z" />
    <glyph glyph-name="uni0685.init" unicode="&#x685;" horiz-adv-x="1014" 
d="M874 37q-24 -37 -79 -37h-795v131h608q-36 34 -254 328q-75 100 -116 100q-30 0 -76 -32q-47 -31 -60 -31q-16 0 -16 16q0 14 18 33q135 145 189 145q62 0 137 -102q205 -286 276 -364q86 -93 156 -93q13 0 31 9q18 10 27 10q14 0 14 -15q0 -13 -10 -26zM314 1041l-72 73
l72 74l73 -74zM385 830l-71 71l-72 -71l-90 90l90 92l72 -72l73 72l90 -92z" />
    <glyph glyph-name="uni0685.medi" unicode="&#x685;" horiz-adv-x="1002" 
d="M1001 0q-49 0 -79 30q-27 26 -27 29q-2 0 -26 -29q-25 -30 -60 -30h-809v131h608q-36 34 -254 328q-75 100 -116 100q-30 0 -76 -32q-47 -31 -60 -31q-16 0 -16 16q0 14 18 33q135 145 189 145q62 0 137 -102q205 -286 276 -364q86 -93 156 -93h150v-131h-11zM314 1041
l-72 73l72 74l73 -74zM385 830l-71 71l-72 -71l-90 90l90 92l72 -72l73 72l90 -92z" />
    <glyph glyph-name="uni0685.fina" unicode="&#x685;" horiz-adv-x="1053" 
d="M238 -314q-138 125 -138 343q0 288 268 557q-73 47 -118 47q-34 0 -77 -23q-43 -22 -48 -22q-15 0 -15 16q0 10 25 39q87 105 168 105q30 0 140 -36t226 -36q139 0 216 21q71 20 71 22q21 0 21 -14q0 -7 -11 -27l-43 -80q-26 -47 -90 -47l-61 2l76 -326q14 -63 33 -79
q21 -17 91 -17h91v-131h-82q-114 0 -157 23q-55 30 -77 127l-92 397q-91 -10 -180 -62q-250 -151 -250 -393q0 -170 132 -280q121 -101 280 -101q62 0 143 7l90 8q23 0 23 -15q0 -11 -17 -18q-240 -90 -290 -114l-21 -9q-200 3 -327 116zM607 1041l-72 73l72 74l73 -74z
M678 830l-71 71l-72 -71l-90 90l90 92l72 -72l73 72l90 -92z" />
    <glyph glyph-name="uni0689.fina" unicode="&#x689;" horiz-adv-x="733" 
d="M362 13q-55 -69 -55 -100q0 -52 64 -52q33 0 55 13q28 17 28 50q0 35 -46 62zM301 0h-123q-52 0 -68 29q-10 19 -10 73q0 82 27 82q7 0 14 -14q18 -39 74 -39h340q-32 60 -61 214q-27 142 -77 216l74 115q7 14 17 14q9 0 22 -28q44 -101 94 -396q25 -135 111 -135h8v-131
h-8q-41 0 -70 30l-26 27q0 -9 -35 -57h-124q25 -28 25 -63q0 -49 -29 -89q-37 -52 -109 -52q-52 0 -83 22q-35 23 -35 65q0 52 52 117z" />
    <glyph glyph-name="uni068A.fina" unicode="&#x68a;" horiz-adv-x="733" 
d="M639 57q0 -9 -35 -57h-426q-52 0 -68 29q-10 19 -10 73q0 82 27 82q7 0 14 -14q18 -39 74 -39h340q-32 60 -61 214q-27 142 -77 216l74 115q7 14 17 14q9 0 22 -28q44 -101 94 -396q25 -135 111 -135h8v-131h-8q-41 0 -70 30zM294 -289l92 90l90 -90l-90 -92z" />
    <glyph glyph-name="uni068B.fina" unicode="&#x68b;" horiz-adv-x="733" 
d="M581 952q2 9 2 27q0 92 -59 92q-21 0 -115 -119h172zM356 881q-20 0 -72 39l-34 28q0 4 6 4h92v84q0 38 -23 58l72 102q4 8 8 8t4 -6v-170q89 100 135 100q51 0 82 -52q27 -45 27 -99q0 -41 -18 -96h-279zM639 57q0 -9 -35 -57h-426q-52 0 -68 29q-10 19 -10 73
q0 82 27 82q7 0 14 -14q18 -39 74 -39h340q-32 60 -61 214q-27 142 -77 216l74 115q7 14 17 14q9 0 22 -28q44 -101 94 -396q25 -135 111 -135h8v-131h-8q-41 0 -70 30zM294 -289l92 90l90 -90l-90 -92z" />
    <glyph glyph-name="uni068F.fina" unicode="&#x68f;" horiz-adv-x="733" 
d="M639 57q0 -9 -35 -57h-426q-52 0 -68 29q-10 19 -10 73q0 82 27 82q7 0 14 -14q18 -39 74 -39h340q-32 60 -61 214q-27 142 -77 216l74 115q7 14 17 14q9 0 22 -28q44 -101 94 -396q25 -135 111 -135h8v-131h-8q-41 0 -70 30zM487 904l-73 -74l-72 74l72 73zM577 1098
l-90 -92l-73 72l-72 -72l-90 92l90 90l72 -71l71 71z" />
    <glyph glyph-name="uni0690.fina" unicode="&#x690;" horiz-adv-x="733" 
d="M639 57q0 -9 -35 -57h-426q-52 0 -68 29q-10 19 -10 73q0 82 27 82q7 0 14 -14q18 -39 74 -39h340q-32 60 -61 214q-27 142 -77 216l74 115q7 14 17 14q9 0 22 -28q44 -101 94 -396q25 -135 111 -135h8v-131h-8q-41 0 -70 30zM490 1011l85 -87l-92 -90l-71 71l-72 -71
l-90 90l84 86l-84 84l90 92l72 -72l73 72l90 -92zM478 1009l-66 66l-66 -65l66 -66z" />
    <glyph glyph-name="uni0692.fina" unicode="&#x692;" horiz-adv-x="798" 
d="M800 0q-84 0 -143 68q-7 -179 -109 -357q-81 -141 -164 -141l-127 10q-124 10 -198 10q-29 0 -29 15q0 16 31 16q194 5 334 117q149 119 149 295q0 150 -84 297q-84 146 -84 155q0 22 10 50l50 149q2 8 12 8q4 0 24 -61q164 -500 328 -500h8v-131h-8zM569 1032
q14 0 14 -17q0 -8 -3 -12q-22 -25 -56 -68l-48 -59q-22 -29 -59 -29t-61 29l-46 59q-34 43 -55 68q-3 4 -3 12q0 17 13 17h53q0 -2 98 -105q99 105 101 105h52z" />
    <glyph glyph-name="uni0693.fina" unicode="&#x693;" horiz-adv-x="798" 
d="M482 -379q-55 -69 -55 -100q0 -52 64 -52q33 0 55 13q28 17 28 50q0 35 -46 62zM519 -335q106 -58 106 -120q0 -49 -29 -89q-37 -52 -109 -52q-52 0 -83 22q-35 23 -35 65q0 37 26 80q-6 -1 -11 -1l-127 10q-124 10 -198 10q-29 0 -29 15q0 16 31 16q194 5 334 117
q149 119 149 295q0 150 -84 297q-84 146 -84 155q0 22 10 50l50 149q2 8 12 8q4 0 24 -61q164 -500 328 -500h8v-131h-8q-84 0 -143 68q-7 -179 -109 -357q-14 -26 -29 -46z" />
    <glyph glyph-name="uni0694.fina" unicode="&#x694;" horiz-adv-x="798" 
d="M800 0q-84 0 -143 68q-7 -179 -109 -357q-81 -141 -164 -141l-127 10q-124 10 -198 10q-29 0 -29 15q0 16 31 16q194 5 334 117q149 119 149 295q0 150 -84 297q-84 146 -84 155q0 22 10 50l50 149q2 8 12 8q4 0 24 -61q164 -500 328 -500h8v-131h-8zM418 -638l92 90
l90 -90l-90 -92z" />
    <glyph glyph-name="uni0695.fina" unicode="&#x695;" horiz-adv-x="798" 
d="M800 0q-84 0 -143 68q-7 -179 -109 -357q-81 -141 -164 -141l-127 10q-124 10 -198 10q-29 0 -29 15q0 16 31 16q194 5 334 117q149 119 149 295q0 150 -84 297q-84 146 -84 155q0 22 10 50l50 149q2 8 12 8q4 0 24 -61q164 -500 328 -500h8v-131h-8zM569 -525
q14 0 14 -17q0 -8 -3 -12q-22 -25 -56 -68l-48 -59q-22 -29 -59 -29t-61 29l-46 59q-34 43 -55 68q-3 4 -3 12q0 17 13 17h53q0 -2 98 -105q99 105 101 105h52z" />
    <glyph glyph-name="uni0696.fina" unicode="&#x696;" horiz-adv-x="798" 
d="M800 0q-84 0 -143 68q-7 -179 -109 -357q-81 -141 -164 -141l-127 10q-124 10 -198 10q-29 0 -29 15q0 16 31 16q194 5 334 117q149 119 149 295q0 150 -84 297q-84 146 -84 155q0 22 10 50l50 149q2 8 12 8q4 0 24 -61q164 -500 328 -500h8v-131h-8zM418 -638l92 90
l90 -90l-90 -92zM204 27l92 90l90 -90l-90 -92z" />
    <glyph glyph-name="uni0697.fina" unicode="&#x697;" horiz-adv-x="798" 
d="M800 0q-84 0 -143 68q-7 -179 -109 -357q-81 -141 -164 -141l-127 10q-124 10 -198 10q-29 0 -29 15q0 16 31 16q194 5 334 117q149 119 149 295q0 150 -84 297q-84 146 -84 155q0 22 10 50l50 149q2 8 12 8q4 0 24 -61q164 -500 328 -500h8v-131h-8zM380 924l-72 -72
l-92 92l92 90l72 -71l72 71l90 -90l-90 -92z" />
    <glyph glyph-name="uni0699.fina" unicode="&#x699;" horiz-adv-x="798" 
d="M800 0q-84 0 -143 68q-7 -179 -109 -357q-81 -141 -164 -141l-127 10q-124 10 -198 10q-29 0 -29 15q0 16 31 16q194 5 334 117q149 119 149 295q0 150 -84 297q-84 146 -84 155q0 22 10 50l50 149q2 8 12 8q4 0 24 -61q164 -500 328 -500h8v-131h-8zM458 1029l85 -87
l-92 -90l-71 71l-72 -71l-90 90l84 86l-84 84l90 92l72 -72l73 72l90 -92zM446 1027l-66 66l-66 -65l66 -66z" />
    <glyph glyph-name="uni069A.init" unicode="&#x69a;" horiz-adv-x="1647" 
d="M600 56q0 -10 -31 -56h-569v131h510l2 45q0 189 -129 387l76 117q8 12 16 12t17 -16q131 -262 131 -422q0 -61 -13 -123h398q2 21 2 45q0 189 -129 387l75 117q9 12 17 12t16 -16q131 -262 131 -422q0 -61 -12 -123h346q2 21 2 45q0 189 -129 387l76 117q8 12 16 12
t17 -16q131 -262 131 -422q0 -132 -54 -254h-309q-48 0 -79 30q-22 20 -27 26q0 -10 -31 -56h-360q-49 0 -80 30q-21 19 -27 26zM877 965l92 90l90 -90l-90 -92zM877 -289l92 90l90 -90l-90 -92z" />
    <glyph glyph-name="uni069A.medi" unicode="&#x69a;" horiz-adv-x="1657" 
d="M600 56q0 -10 -31 -56h-569v131h510l2 45q0 189 -129 387l76 117q8 12 16 12t17 -16q131 -262 131 -422q0 -61 -13 -123h398q2 21 2 45q0 189 -129 387l75 117q9 12 17 12t16 -16q131 -262 131 -422q0 -61 -12 -123h346q2 21 2 45q0 189 -129 387l76 117q8 12 16 12
t17 -16q131 -262 131 -422q0 -65 -13 -123h113v-131h-10q-55 0 -87 30q-21 19 -26 26l-31 -56h-309q-48 0 -79 30q-21 20 -27 26q0 -10 -31 -56h-360q-49 0 -80 30q-21 19 -27 26zM877 965l92 90l90 -90l-90 -92zM877 -289l92 90l90 -90l-90 -92z" />
    <glyph glyph-name="uni069A.fina" unicode="&#x69a;" horiz-adv-x="2124" 
d="M1564 56q0 -10 -30 -56h-344q-44 2 -73 22q-26 17 -26 19q-8 0 -10 -27q-16 -195 -158 -323q-133 -121 -305 -121q-234 0 -386 196q-132 170 -132 369q0 42 31 111l69 162q9 16 19 16q12 0 12 -14l-2 -73q-2 -64 -2 -142q0 -228 118 -365q111 -129 283 -129
q158 0 256 114q90 105 90 248q0 216 -184 500l76 119q7 10 14 10q4 0 13 -12q176 -322 190 -549h391q2 21 2 45q0 189 -129 387l76 117q8 12 16 12q9 0 17 -16q131 -262 131 -422q0 -61 -12 -123h346q2 21 2 45q0 189 -129 387l75 117q9 12 17 12t16 -16q131 -262 131 -422
q0 -65 -12 -123h113v-131h-11q-54 0 -86 30q-21 19 -26 26l-31 -56h-309q-49 0 -80 30q-21 19 -27 26zM1333 965l92 90l90 -90l-90 -92zM1333 -289l92 90l90 -90l-90 -92z" />
    <glyph glyph-name="uni069B.init" unicode="&#x69b;" horiz-adv-x="1647" 
d="M600 56q0 -10 -31 -56h-569v131h510l2 45q0 189 -129 387l76 117q8 12 16 12t17 -16q131 -262 131 -422q0 -61 -13 -123h398q2 21 2 45q0 189 -129 387l75 117q9 12 17 12t16 -16q131 -262 131 -422q0 -61 -12 -123h346q2 21 2 45q0 189 -129 387l76 117q8 12 16 12
t17 -16q131 -262 131 -422q0 -132 -54 -254h-309q-48 0 -79 30q-22 20 -27 26q0 -10 -31 -56h-360q-49 0 -80 30q-21 19 -27 26zM932 -309l-71 -72l-92 92l92 90l71 -71l72 71l92 -90l-92 -92zM932 -557l-73 74l73 71l74 -71z" />
    <glyph glyph-name="uni069B.medi" unicode="&#x69b;" horiz-adv-x="1657" 
d="M600 56q0 -10 -31 -56h-569v131h510l2 45q0 189 -129 387l76 117q8 12 16 12t17 -16q131 -262 131 -422q0 -61 -13 -123h398q2 21 2 45q0 189 -129 387l75 117q9 12 17 12t16 -16q131 -262 131 -422q0 -61 -12 -123h346q2 21 2 45q0 189 -129 387l76 117q8 12 16 12
t17 -16q131 -262 131 -422q0 -65 -13 -123h113v-131h-10q-55 0 -87 30q-21 19 -26 26l-31 -56h-309q-48 0 -79 30q-21 20 -27 26q0 -10 -31 -56h-360q-49 0 -80 30q-21 19 -27 26zM932 -309l-71 -72l-92 92l92 90l71 -71l72 71l92 -90l-92 -92zM932 -557l-73 74l73 71
l74 -71z" />
    <glyph glyph-name="uni069B.fina" unicode="&#x69b;" horiz-adv-x="2124" 
d="M1564 56q0 -10 -30 -56h-344q-44 2 -73 22q-26 17 -26 19q-8 0 -10 -27q-16 -195 -158 -323q-133 -121 -305 -121q-234 0 -386 196q-132 170 -132 369q0 42 31 111l69 162q9 16 19 16q12 0 12 -14l-2 -73q-2 -64 -2 -142q0 -228 118 -365q111 -129 283 -129
q158 0 256 114q90 105 90 248q0 216 -184 500l76 119q7 10 14 10q4 0 13 -12q176 -322 190 -549h391q2 21 2 45q0 189 -129 387l76 117q8 12 16 12q9 0 17 -16q131 -262 131 -422q0 -61 -12 -123h346q2 21 2 45q0 189 -129 387l75 117q9 12 17 12t16 -16q131 -262 131 -422
q0 -65 -12 -123h113v-131h-11q-54 0 -86 30q-21 19 -26 26l-31 -56h-309q-49 0 -80 30q-21 19 -27 26zM1452 -309l-71 -72l-92 92l92 90l71 -71l72 71l92 -90l-92 -92zM1452 -557l-73 74l73 71l74 -71z" />
    <glyph glyph-name="uni069C.init" unicode="&#x69c;" horiz-adv-x="1647" 
d="M600 56q0 -10 -31 -56h-569v131h510l2 45q0 189 -129 387l76 117q8 12 16 12t17 -16q131 -262 131 -422q0 -61 -13 -123h398q2 21 2 45q0 189 -129 387l75 117q9 12 17 12t16 -16q131 -262 131 -422q0 -61 -12 -123h346q2 21 2 45q0 189 -129 387l76 117q8 12 16 12
t17 -16q131 -262 131 -422q0 -132 -54 -254h-309q-48 0 -79 30q-22 20 -27 26q0 -10 -31 -56h-360q-49 0 -80 30q-21 19 -27 26zM933 944l-72 -72l-90 93l90 90l72 -72l71 72l92 -90l-92 -93zM933 1087l-72 72l72 74l73 -74zM932 -309l-71 -72l-92 92l92 90l71 -71l72 71
l92 -90l-92 -92zM932 -557l-73 74l73 71l74 -71z" />
    <glyph glyph-name="uni069C.medi" unicode="&#x69c;" horiz-adv-x="1657" 
d="M600 56q0 -10 -31 -56h-569v131h510l2 45q0 189 -129 387l76 117q8 12 16 12t17 -16q131 -262 131 -422q0 -61 -13 -123h398q2 21 2 45q0 189 -129 387l75 117q9 12 17 12t16 -16q131 -262 131 -422q0 -61 -12 -123h346q2 21 2 45q0 189 -129 387l76 117q8 12 16 12
t17 -16q131 -262 131 -422q0 -65 -13 -123h113v-131h-10q-55 0 -87 30q-21 19 -26 26l-31 -56h-309q-48 0 -79 30q-21 20 -27 26q0 -10 -31 -56h-360q-49 0 -80 30q-21 19 -27 26zM933 944l-72 -72l-90 93l90 90l72 -72l71 72l92 -90l-92 -93zM933 1087l-72 72l72 74l73 -74
zM932 -309l-71 -72l-92 92l92 90l71 -71l72 71l92 -90l-92 -92zM932 -557l-73 74l73 71l74 -71z" />
    <glyph glyph-name="uni069C.fina" unicode="&#x69c;" horiz-adv-x="2124" 
d="M1564 56q0 -10 -30 -56h-344q-44 2 -73 22q-26 17 -26 19q-8 0 -10 -27q-16 -195 -158 -323q-133 -121 -305 -121q-234 0 -386 196q-132 170 -132 369q0 42 31 111l69 162q9 16 19 16q12 0 12 -14l-2 -73q-2 -64 -2 -142q0 -228 118 -365q111 -129 283 -129
q158 0 256 114q90 105 90 248q0 216 -184 500l76 119q7 10 14 10q4 0 13 -12q176 -322 190 -549h391q2 21 2 45q0 189 -129 387l76 117q8 12 16 12q9 0 17 -16q131 -262 131 -422q0 -61 -12 -123h346q2 21 2 45q0 189 -129 387l75 117q9 12 17 12t16 -16q131 -262 131 -422
q0 -65 -12 -123h113v-131h-11q-54 0 -86 30q-21 19 -26 26l-31 -56h-309q-49 0 -80 30q-21 19 -27 26zM1453 944l-72 -72l-90 93l90 90l72 -72l71 72l92 -90l-92 -93zM1453 1087l-72 72l72 74l73 -74zM1452 -309l-71 -72l-92 92l92 90l71 -71l72 71l92 -90l-92 -92z
M1452 -557l-73 74l73 71l74 -71z" />
    <glyph glyph-name="uni069D.init" unicode="&#x69d;" horiz-adv-x="1073" 
d="M0 0v131h125q-5 110 -37 254l78 111q34 -168 43 -254q255 450 465 450q144 0 237 -149q82 -131 82 -293q0 -114 -51 -250h-942zM848 131q6 43 6 102q0 117 -56 213q-64 109 -161 109q-96 0 -215 -161q-38 -51 -93 -140l-79 -123h598zM553 -309l-73 -72l-91 92l91 90
l73 -71l72 71l90 -90l-90 -92z" />
    <glyph glyph-name="uni069D.medi" unicode="&#x69d;" horiz-adv-x="1082" 
d="M1075 0q-46 0 -78 30q-30 27 -30 29q-5 0 -25 -59h-942v131h125q-5 110 -37 254l78 111q34 -168 43 -254q255 450 465 450q144 0 237 -149q82 -131 82 -293q0 -61 -12 -119h111v-131h-17zM848 131q6 43 6 102q0 117 -56 213q-64 109 -161 109q-96 0 -215 -161
q-38 -51 -93 -140l-79 -123h598zM553 -309l-73 -72l-91 92l91 90l73 -71l72 71l90 -90l-90 -92z" />
    <glyph glyph-name="uni069D.fina" unicode="&#x69d;" horiz-adv-x="2015" 
d="M1781 131q7 43 7 102q0 117 -57 213q-63 109 -161 109q-95 0 -215 -161q-37 -51 -93 -140l-79 -123h598zM2009 0q-46 0 -78 30q-31 27 -31 29q-5 0 -24 -59h-684q-66 0 -109 35q-15 -209 -155 -341q-132 -124 -310 -124q-234 0 -386 196q-132 170 -132 369q0 42 31 111
l69 162q9 16 19 16q12 0 12 -14l-2 -73q-2 -64 -2 -142q0 -228 118 -365q111 -129 283 -129q158 0 256 114q90 105 90 248q0 216 -184 500l76 119q7 10 14 10q4 0 13 -12q134 -243 172 -422q16 -81 18 -127q302 561 524 561q145 0 238 -149q82 -131 82 -293q0 -61 -12 -119
h110v-131h-16zM1487 -309l-73 -72l-91 92l91 90l73 -71l72 71l90 -90l-90 -92z" />
    <glyph glyph-name="uni069E.init" unicode="&#x69e;" horiz-adv-x="1073" 
d="M0 0v131h125q-5 110 -37 254l78 111q34 -168 43 -254q255 450 465 450q144 0 237 -149q82 -131 82 -293q0 -114 -51 -250h-942zM848 131q6 43 6 102q0 117 -56 213q-64 109 -161 109q-96 0 -215 -161q-38 -51 -93 -140l-79 -123h598zM494 882l-72 -72l-90 93l90 90
l72 -72l71 72l92 -90l-92 -93zM494 1025l-72 72l72 74l73 -74z" />
    <glyph glyph-name="uni069E.medi" unicode="&#x69e;" horiz-adv-x="1082" 
d="M1075 0q-46 0 -78 30q-30 27 -30 29q-5 0 -25 -59h-942v131h125q-5 110 -37 254l78 111q34 -168 43 -254q255 450 465 450q144 0 237 -149q82 -131 82 -293q0 -61 -12 -119h111v-131h-17zM848 131q6 43 6 102q0 117 -56 213q-64 109 -161 109q-96 0 -215 -161
q-38 -51 -93 -140l-79 -123h598zM497 879l-72 -72l-90 93l90 90l72 -72l71 72l92 -90l-92 -93zM497 1022l-72 72l72 74l73 -74z" />
    <glyph glyph-name="uni069E.fina" unicode="&#x69e;" horiz-adv-x="2015" 
d="M1781 131q7 43 7 102q0 117 -57 213q-63 109 -161 109q-95 0 -215 -161q-37 -51 -93 -140l-79 -123h598zM2009 0q-46 0 -78 30q-31 27 -31 29q-5 0 -24 -59h-684q-66 0 -109 35q-15 -209 -155 -341q-132 -124 -310 -124q-234 0 -386 196q-132 170 -132 369q0 42 31 111
l69 162q9 16 19 16q12 0 12 -14l-2 -73q-2 -64 -2 -142q0 -228 118 -365q111 -129 283 -129q158 0 256 114q90 105 90 248q0 216 -184 500l76 119q7 10 14 10q4 0 13 -12q134 -243 172 -422q16 -81 18 -127q302 561 524 561q145 0 238 -149q82 -131 82 -293q0 -61 -12 -119
h110v-131h-16zM1433 880l-72 -72l-90 93l90 90l72 -72l71 72l92 -90l-92 -93zM1433 1023l-72 72l72 74l73 -74z" />
    <glyph glyph-name="uni069F.init" unicode="&#x69f;" horiz-adv-x="1110" 
d="M0 0v131h158v434q0 115 -60 174l160 203q8 12 18 12q11 0 11 -24v-619q226 381 424 381q144 0 237 -149q82 -131 82 -293q0 -114 -51 -250h-979zM885 131q6 43 6 102q0 117 -56 213q-64 109 -161 109q-96 0 -215 -161q-38 -51 -93 -140l-79 -123h598zM644 923l-72 -72
l-90 93l90 90l72 -72l71 72l92 -90l-92 -93zM644 1066l-72 72l72 74l73 -74z" />
    <glyph glyph-name="uni069F.medi" unicode="&#x69f;" horiz-adv-x="1116" 
d="M885 131q6 86 6 111q0 103 -49 196q-62 117 -168 117q-93 0 -207 -147q-33 -43 -180 -277h598zM977 0h-977v131h156v442q0 121 -68 160l170 209q8 12 18 12q11 0 11 -24v-617q114 180 181 251q120 128 243 128q146 0 239 -151q80 -130 80 -281q0 -57 -14 -129h110v-131
h-16q-46 0 -78 30q-30 27 -31 29q-4 0 -24 -59zM645 923l-72 -72l-90 93l90 90l72 -72l71 72l92 -90l-92 -93zM645 1066l-72 72l72 74l73 -74z" />
    <glyph glyph-name="uni069F.fina" unicode="&#x69f;" horiz-adv-x="1393" 
d="M1161 131q6 86 6 111q0 103 -49 196q-61 117 -168 117q-93 0 -207 -147q-33 -43 -180 -277h598zM1386 0q-46 0 -78 30q-30 27 -30 29q-5 0 -25 -59h-934q-26 0 -37 8q-94 68 -164 96q-18 7 -18 17t23 10h309v442q0 121 -68 160l170 209q8 12 19 12q10 0 10 -24v-617
q115 180 181 251q120 128 243 128q146 0 239 -151q80 -130 80 -281q0 -57 -14 -129h111v-131h-17zM923 920l-72 -72l-90 93l90 90l72 -72l71 72l92 -90l-92 -93zM923 1063l-72 72l72 74l73 -74z" />
    <glyph glyph-name="uni06A0.init" unicode="&#x6a0;" horiz-adv-x="817" 
d="M698 53q-25 -53 -114 -53h-584v131h199q-111 85 -111 211q0 136 102 243q104 107 238 107q101 0 193 -68q75 -57 75 -87q0 -23 -22 -23q0 2 -73 38q-77 38 -157 38q-160 0 -237 -207q29 -128 162 -197q107 -55 235 -55q56 0 90 8l35 8q8 0 8 -10q0 -4 -6 -16zM439 930
l-72 -72l-90 93l90 90l72 -72l71 72l92 -90l-92 -93zM439 1073l-72 72l72 74l73 -74z" />
    <glyph glyph-name="uni06A0.medi" unicode="&#x6a0;" horiz-adv-x="801" 
d="M565 0q-80 0 -133 43q-49 -43 -123 -43h-309v131h352q-75 258 -243 324q-23 7 -23 20l49 143q12 35 55 46q106 28 222 28q286 0 286 -203q0 -142 -137 -358h250v-131h-246zM440 174q111 162 111 266q0 117 -166 117q-76 0 -186 -27q181 -110 241 -356zM410 953l-72 -72
l-90 93l90 90l72 -72l71 72l92 -90l-92 -93zM410 1096l-72 72l72 74l73 -74z" />
    <glyph glyph-name="uni06A0.fina" unicode="&#x6a0;" horiz-adv-x="909" 
d="M675 0q-80 0 -133 43q-49 -43 -123 -43q-94 0 -131 -20q-45 -23 -45 -89q0 -95 106 -142q82 -36 206 -36q54 0 141 6q87 7 104 7q23 0 23 -15q0 -12 -16 -16q-31 -13 -173 -88q-69 -37 -155 -37q-150 0 -255 72q-124 84 -124 237q0 142 101 207q73 47 184 47l77 -2
q-75 258 -243 324q-23 7 -23 20l49 143q12 35 56 46q105 28 221 28q287 0 287 -203q0 -142 -138 -358h248v-131h-244zM551 174q110 162 110 266q0 117 -166 117q-76 0 -186 -27q181 -110 242 -356zM527 959l-72 -72l-90 93l90 90l72 -72l71 72l92 -90l-92 -93zM527 1102
l-72 72l72 74l73 -74z" />
    <glyph glyph-name="uni06A1.init" unicode="&#x6a1;" horiz-adv-x="746" 
d="M0 0v131h256q-168 148 -168 305q0 105 69 178q72 76 181 76q153 0 247 -143q81 -124 81 -283q0 -121 -58 -264h-608zM524 258q0 107 -54 197q-63 102 -157 102q-51 0 -85 -41q-31 -38 -31 -88q0 -108 94 -201q96 -94 217 -96q16 69 16 127z" />
    <glyph glyph-name="uni06A1.medi" unicode="&#x6a1;" horiz-adv-x="695" 
d="M385 0q-66 0 -106 43q-52 -43 -109 -43h-170v131h139q-55 89 -55 184q0 130 88 247q96 128 227 128q101 0 161 -80q52 -71 52 -170q0 -180 -104 -309h197v-131h-320zM479 356q0 70 -29 126q-39 71 -110 71q-68 0 -106 -62q-31 -52 -31 -126q0 -167 145 -234
q131 59 131 225z" />
    <glyph glyph-name="uni06A1.fina" unicode="&#x6a1;" horiz-adv-x="1266" 
d="M956 0q-66 0 -106 43q-52 -43 -109 -43h-434q-207 0 -207 203q0 134 92 289q20 34 35 34q25 0 25 -26q0 -4 -29 -95q-29 -90 -29 -145q0 -129 148 -129h368q-55 89 -55 184q0 130 88 247q96 128 227 128q101 0 161 -80q52 -71 52 -170q0 -180 -104 -309h197v-131h-320z
M1050 356q0 70 -29 126q-39 71 -110 71q-68 0 -105 -62q-32 -52 -32 -126q0 -167 145 -234q131 59 131 225z" />
    <glyph glyph-name="uni06A2.init" unicode="&#x6a2;" horiz-adv-x="746" 
d="M0 0v131h256q-168 148 -168 305q0 105 69 178q72 76 181 76q153 0 247 -143q81 -124 81 -283q0 -121 -58 -264h-608zM524 258q0 107 -54 197q-63 102 -157 102q-51 0 -85 -41q-31 -38 -31 -88q0 -108 94 -201q96 -94 217 -96q16 69 16 127zM270 -289l92 90l90 -90
l-90 -92z" />
    <glyph glyph-name="uni06A2.medi" unicode="&#x6a2;" horiz-adv-x="695" 
d="M385 0q-66 0 -106 43q-52 -43 -109 -43h-170v131h139q-55 89 -55 184q0 130 88 247q96 128 227 128q101 0 161 -80q52 -71 52 -170q0 -180 -104 -309h197v-131h-320zM479 356q0 70 -29 126q-39 71 -110 71q-68 0 -106 -62q-31 -52 -31 -126q0 -167 145 -234
q131 59 131 225zM250 -289l92 90l90 -90l-90 -92z" />
    <glyph glyph-name="uni06A2.fina" unicode="&#x6a2;" horiz-adv-x="1266" 
d="M956 0q-66 0 -106 43q-52 -43 -109 -43h-434q-207 0 -207 203q0 134 92 289q20 34 35 34q25 0 25 -26q0 -4 -29 -95q-29 -90 -29 -145q0 -129 148 -129h368q-55 89 -55 184q0 130 88 247q96 128 227 128q101 0 161 -80q52 -71 52 -170q0 -180 -104 -309h197v-131h-320z
M1050 356q0 70 -29 126q-39 71 -110 71q-68 0 -105 -62q-32 -52 -32 -126q0 -167 145 -234q131 59 131 225zM821 -289l92 90l90 -90l-90 -92z" />
    <glyph glyph-name="uni06A3.init" unicode="&#x6a3;" horiz-adv-x="746" 
d="M322 866l-91 90l91 93l92 -93zM0 0v131h256q-168 148 -168 305q0 105 69 178q72 76 181 76q153 0 247 -143q81 -124 81 -283q0 -121 -58 -264h-608zM524 258q0 107 -54 197q-63 102 -157 102q-51 0 -85 -41q-31 -38 -31 -88q0 -108 94 -201q96 -94 217 -96q16 69 16 127z
M231 -289l92 90l90 -90l-90 -92z" />
    <glyph glyph-name="uni06A3.medi" unicode="&#x6a3;" horiz-adv-x="695" 
d="M358 870l-90 93l90 90l93 -90zM385 0q-66 0 -106 43q-52 -43 -109 -43h-170v131h139q-55 89 -55 184q0 130 88 247q96 128 227 128q101 0 161 -80q52 -71 52 -170q0 -180 -104 -309h197v-131h-320zM479 356q0 70 -29 126q-39 71 -110 71q-68 0 -106 -62q-31 -52 -31 -126
q0 -167 145 -234q131 59 131 225zM268 -289l92 90l90 -90l-90 -92z" />
    <glyph glyph-name="uni06A3.fina" unicode="&#x6a3;" horiz-adv-x="1266" 
d="M837 963l92 90l91 -90l-91 -93zM956 0q-66 0 -106 43q-52 -43 -109 -43h-434q-207 0 -207 203q0 134 92 289q20 34 35 34q25 0 25 -26q0 -4 -29 -95q-29 -90 -29 -145q0 -129 148 -129h368q-55 89 -55 184q0 130 88 247q96 128 227 128q101 0 161 -80q52 -71 52 -170
q0 -180 -104 -309h197v-131h-320zM1050 356q0 70 -29 126q-39 71 -110 71q-68 0 -105 -62q-32 -52 -32 -126q0 -167 145 -234q131 59 131 225zM446 -289l92 90l90 -90l-90 -92z" />
    <glyph glyph-name="uni06A5.init" unicode="&#x6a5;" horiz-adv-x="746" 
d="M0 0v131h256q-168 148 -168 305q0 105 69 178q72 76 181 76q153 0 247 -143q81 -124 81 -283q0 -121 -58 -264h-608zM524 258q0 107 -54 197q-63 102 -157 102q-51 0 -85 -41q-31 -38 -31 -88q0 -108 94 -201q96 -94 217 -96q16 69 16 127zM372 -309l-71 -72l-92 92
l92 90l71 -71l72 71l92 -90l-92 -92zM372 -557l-73 74l73 71l74 -71z" />
    <glyph glyph-name="uni06A5.medi" unicode="&#x6a5;" horiz-adv-x="695" 
d="M385 0q-66 0 -106 43q-52 -43 -109 -43h-170v131h139q-55 89 -55 184q0 130 88 247q96 128 227 128q101 0 161 -80q52 -71 52 -170q0 -180 -104 -309h197v-131h-320zM479 356q0 70 -29 126q-39 71 -110 71q-68 0 -106 -62q-31 -52 -31 -126q0 -167 145 -234
q131 59 131 225zM342 -309l-71 -72l-92 92l92 90l71 -71l72 71l92 -90l-92 -92zM342 -557l-73 74l73 71l74 -71z" />
    <glyph glyph-name="uni06A5.fina" unicode="&#x6a5;" horiz-adv-x="1266" 
d="M956 0q-66 0 -106 43q-52 -43 -109 -43h-434q-207 0 -207 203q0 134 92 289q20 34 35 34q25 0 25 -26q0 -4 -29 -95q-29 -90 -29 -145q0 -129 148 -129h368q-55 89 -55 184q0 130 88 247q96 128 227 128q101 0 161 -80q52 -71 52 -170q0 -180 -104 -309h197v-131h-320z
M1050 356q0 70 -29 126q-39 71 -110 71q-68 0 -105 -62q-32 -52 -32 -126q0 -167 145 -234q131 59 131 225zM922 -309l-71 -72l-92 92l92 90l71 -71l72 71l92 -90l-92 -92zM922 -557l-73 74l73 71l74 -71z" />
    <glyph glyph-name="uni06A7.init" unicode="&#x6a7;" horiz-adv-x="746" 
d="M322 866l-91 90l91 93l92 -93zM0 0v131h256q-168 148 -168 305q0 105 69 178q72 76 181 76q153 0 247 -143q81 -124 81 -283q0 -121 -58 -264h-608zM524 258q0 107 -54 197q-63 102 -157 102q-51 0 -85 -41q-31 -38 -31 -88q0 -108 94 -201q96 -94 217 -96q16 69 16 127z
" />
    <glyph glyph-name="uni06A7.medi" unicode="&#x6a7;" horiz-adv-x="695" 
d="M358 870l-90 93l90 90l93 -90zM385 0q-66 0 -106 43q-52 -43 -109 -43h-170v131h139q-55 89 -55 184q0 130 88 247q96 128 227 128q101 0 161 -80q52 -71 52 -170q0 -180 -104 -309h197v-131h-320zM479 356q0 70 -29 126q-39 71 -110 71q-68 0 -106 -62q-31 -52 -31 -126
q0 -167 145 -234q131 59 131 225z" />
    <glyph glyph-name="uni06A7.fina" unicode="&#x6a7;" horiz-adv-x="1180" 
d="M1083 0q-31 -192 -158 -310q-128 -120 -307 -120q-235 0 -386 194q-132 169 -132 367q0 46 31 115l67 153q13 25 21 25q12 0 12 -16l-4 -191q0 -258 125 -396q109 -120 276 -120q146 0 244 101q85 89 92 198h-260q-211 0 -211 203q0 139 70 294q86 193 215 193
q133 0 225 -177q85 -165 90 -382h97v-131h-107zM962 131q-11 148 -62 274q-61 150 -143 150q-64 0 -103 -105q-32 -85 -32 -180q0 -90 49 -120q32 -19 111 -19h180zM817 866l-91 90l91 93l92 -93z" />
    <glyph glyph-name="uni06A8.init" unicode="&#x6a8;" horiz-adv-x="746" 
d="M393 864l-71 72l-72 -72l-90 90l90 93l72 -72l71 72l92 -93zM322 1077l-72 74l72 72l73 -72zM0 0v131h256q-168 148 -168 305q0 105 69 178q72 76 181 76q153 0 247 -143q81 -124 81 -283q0 -121 -58 -264h-608zM524 258q0 107 -54 197q-63 102 -157 102q-51 0 -85 -41
q-31 -38 -31 -88q0 -108 94 -201q96 -94 217 -96q16 69 16 127z" />
    <glyph glyph-name="uni06A8.medi" unicode="&#x6a8;" horiz-adv-x="695" 
d="M356 934l-71 -72l-92 92l92 90l71 -71l72 71l90 -90l-90 -92zM356 1077l-73 72l73 74l72 -74zM385 0q-66 0 -106 43q-52 -43 -109 -43h-170v131h139q-55 89 -55 184q0 130 88 247q96 128 227 128q101 0 161 -80q52 -71 52 -170q0 -180 -104 -309h197v-131h-320zM479 356
q0 70 -29 126q-39 71 -110 71q-68 0 -106 -62q-31 -52 -31 -126q0 -167 145 -234q131 59 131 225z" />
    <glyph glyph-name="uni06A8.fina" unicode="&#x6a8;" horiz-adv-x="1180" 
d="M1083 0q-31 -192 -158 -310q-128 -120 -307 -120q-235 0 -386 194q-132 169 -132 367q0 46 31 115l67 153q13 25 21 25q12 0 12 -16l-4 -191q0 -258 125 -396q109 -120 276 -120q146 0 244 101q85 89 92 198h-260q-211 0 -211 203q0 139 70 294q86 193 215 193
q133 0 225 -177q85 -165 90 -382h97v-131h-107zM962 131q-11 148 -62 274q-61 150 -143 150q-64 0 -103 -105q-32 -85 -32 -180q0 -90 49 -120q32 -19 111 -19h180zM815 861l-71 72l-72 -72l-90 90l90 93l72 -72l71 72l92 -93zM744 1074l-72 74l72 72l73 -72z" />
    <glyph glyph-name="uni06AA.init" unicode="&#x6aa;" horiz-adv-x="923" 
d="M0 0v131h680q4 21 4 37q0 128 -481 410l-10 -19q-7 -12 -19 -12q-17 0 -51 24q-35 25 -35 43q0 12 6 21l53 108q31 62 134 88l481 125q8 0 8 -8q0 -2 -8 -18l-55 -90l-469 -123q198 -113 333 -215q232 -175 232 -301q0 -71 -55 -201h-748z" />
    <glyph glyph-name="uni06AA.medi" unicode="&#x6aa;" horiz-adv-x="895" 
d="M777 55q-2 -12 -29 -55h-748v131h680q4 21 4 37q0 128 -481 410l-10 -19q-7 -12 -19 -12q-17 0 -51 24q-35 25 -35 43q0 12 6 21l53 108q31 62 134 88l481 125q8 0 8 -8q0 -2 -8 -18l-55 -90l-469 -123q198 -113 333 -215q232 -175 232 -301q0 -29 -10 -70h112v-131h-16
q-55 0 -87 30q-19 18 -25 25z" />
    <glyph glyph-name="uni06AA.fina" unicode="&#x6aa;" horiz-adv-x="1315" 
d="M1196 56q0 -11 -29 -56h-860q-207 0 -207 203q0 134 92 289q20 34 35 34q25 0 25 -26q0 -4 -29 -95q-29 -90 -29 -145q0 -129 148 -129h757q5 21 5 37q0 128 -482 410l-10 -19q-6 -12 -18 -12q-18 0 -51 24q-35 25 -35 43q0 12 6 21l53 108q31 62 133 88l481 125
q9 0 9 -8q0 -2 -9 -18l-55 -90l-469 -123q198 -113 334 -215q231 -175 231 -301q0 -29 -10 -70h113v-131h-17q-54 0 -86 30q-21 19 -26 26z" />
    <glyph glyph-name="uni06AB.init" unicode="&#x6ab;" horiz-adv-x="949" 
d="M0 0v131h680q4 21 4 37q0 128 -481 410l-10 -19q-7 -12 -19 -12q-17 0 -51 24q-35 25 -35 43q0 12 6 21l53 108q31 62 134 88l481 125q8 0 8 -8q0 -2 -8 -18l-55 -90l-469 -123q198 -113 333 -215q232 -175 232 -301q0 -71 -55 -201h-748zM274 999l31 64q14 31 62 43
l462 119l-30 -64q-16 -34 -62 -43z" />
    <glyph glyph-name="uni06AB.medi" unicode="&#x6ab;" horiz-adv-x="895" 
d="M274 999l31 64q14 31 62 43l462 119l-30 -64q-16 -34 -62 -43zM777 55q-2 -12 -29 -55h-748v131h680q4 21 4 37q0 128 -481 410l-10 -19q-7 -12 -19 -12q-17 0 -51 24q-35 25 -35 43q0 12 6 21l53 108q31 62 134 88l481 125q8 0 8 -8q0 -2 -8 -18l-55 -90l-469 -123
q198 -113 333 -215q232 -175 232 -301q0 -29 -10 -70h112v-131h-16q-55 0 -87 30q-19 18 -25 25z" />
    <glyph glyph-name="uni06AB.fina" unicode="&#x6ab;" horiz-adv-x="1315" 
d="M694 999l31 64q14 31 61 43l463 119l-31 -64q-16 -34 -61 -43zM1196 56q0 -11 -29 -56h-860q-207 0 -207 203q0 134 92 289q20 34 35 34q25 0 25 -26q0 -4 -29 -95q-29 -90 -29 -145q0 -129 148 -129h757q5 21 5 37q0 128 -482 410l-10 -19q-6 -12 -18 -12q-18 0 -51 24
q-35 25 -35 43q0 12 6 21l53 108q31 62 133 88l481 125q9 0 9 -8q0 -2 -9 -18l-55 -90l-469 -123q198 -113 334 -215q231 -175 231 -301q0 -29 -10 -70h113v-131h-17q-54 0 -86 30q-21 19 -26 26z" />
    <glyph glyph-name="uni06AC.init" unicode="&#x6ac;" horiz-adv-x="923" 
d="M0 0v131h680q4 21 4 37q0 128 -481 410l-10 -19q-7 -12 -19 -12q-17 0 -51 24q-35 25 -35 43q0 12 6 21l53 108q31 62 134 88l481 125q8 0 8 -8q0 -2 -8 -18l-55 -90l-469 -123q198 -113 333 -215q232 -175 232 -301q0 -71 -55 -201h-748zM401 1032l-91 90l91 93l92 -93z
" />
    <glyph glyph-name="uni06AC.medi" unicode="&#x6ac;" horiz-adv-x="895" 
d="M777 55q-2 -12 -29 -55h-748v131h680q4 21 4 37q0 128 -481 410l-10 -19q-7 -12 -19 -12q-17 0 -51 24q-35 25 -35 43q0 12 6 21l53 108q31 62 134 88l481 125q8 0 8 -8q0 -2 -8 -18l-55 -90l-469 -123q198 -113 333 -215q232 -175 232 -301q0 -29 -10 -70h112v-131h-16
q-55 0 -87 30q-19 18 -25 25zM401 1032l-91 90l91 93l92 -93z" />
    <glyph glyph-name="uni06AC.fina" unicode="&#x6ac;" horiz-adv-x="1143" 
d="M604 711q-12 4 -31 4q-37 0 -63 -22q-25 -21 -25 -48q0 -65 100 -65q52 0 90 26q-4 -54 -28 -75q-22 -20 -92 -37q-57 -14 -97 -47l-34 -29q-7 0 -7 4q0 63 115 121q-100 12 -100 90q0 73 73 122q59 40 109 40q12 0 12 -9q0 -4 -4 -16zM1024 56q-2 -11 -31 -56h-686
q-207 0 -207 203q0 134 92 289q20 34 35 34q25 0 25 -26q0 -4 -29 -95q-29 -90 -29 -145q0 -129 148 -129h571v684l100 127q9 12 19 12t10 -24v-727q0 -35 -6 -72h117v-131h-17q-54 0 -86 30q-21 19 -26 26zM958 1032l-91 90l91 93l92 -93z" />
    <glyph glyph-name="uni06AE.init" unicode="&#x6ae;" horiz-adv-x="923" 
d="M0 0v131h680q4 21 4 37q0 128 -481 410l-10 -19q-7 -12 -19 -12q-17 0 -51 24q-35 25 -35 43q0 12 6 21l53 108q31 62 134 88l481 125q8 0 8 -8q0 -2 -8 -18l-55 -90l-469 -123q198 -113 333 -215q232 -175 232 -301q0 -71 -55 -201h-748zM412 -309l-71 -72l-92 92l92 90
l71 -71l72 71l92 -90l-92 -92zM412 -557l-73 74l73 71l74 -71z" />
    <glyph glyph-name="uni06AE.medi" unicode="&#x6ae;" horiz-adv-x="895" 
d="M777 55q-2 -12 -29 -55h-748v131h680q4 21 4 37q0 128 -481 410l-10 -19q-7 -12 -19 -12q-17 0 -51 24q-35 25 -35 43q0 12 6 21l53 108q31 62 134 88l481 125q8 0 8 -8q0 -2 -8 -18l-55 -90l-469 -123q198 -113 333 -215q232 -175 232 -301q0 -29 -10 -70h112v-131h-16
q-55 0 -87 30q-19 18 -25 25zM402 -309l-71 -72l-92 92l92 90l71 -71l72 71l92 -90l-92 -92zM402 -557l-73 74l73 71l74 -71z" />
    <glyph glyph-name="uni06AE.fina" unicode="&#x6ae;" horiz-adv-x="1143" 
d="M604 711q-12 4 -31 4q-37 0 -63 -22q-25 -21 -25 -48q0 -65 100 -65q52 0 90 26q-4 -54 -28 -75q-22 -20 -92 -37q-57 -14 -97 -47l-34 -29q-7 0 -7 4q0 63 115 121q-100 12 -100 90q0 73 73 122q59 40 109 40q12 0 12 -9q0 -4 -4 -16zM1024 56q-2 -11 -31 -56h-686
q-207 0 -207 203q0 134 92 289q20 34 35 34q25 0 25 -26q0 -4 -29 -95q-29 -90 -29 -145q0 -129 148 -129h571v684l100 127q9 12 19 12t10 -24v-727q0 -35 -6 -72h117v-131h-17q-54 0 -86 30q-21 19 -26 26zM592 -309l-71 -72l-92 92l92 90l71 -71l72 71l92 -90l-92 -92z
M592 -557l-73 74l73 71l74 -71z" />
    <glyph glyph-name="uni06B0.init" unicode="&#x6b0;" horiz-adv-x="949" 
d="M274 999l31 64q14 31 62 43l462 119l-30 -64q-16 -34 -62 -43zM534 810q-55 -54 -55 -78q0 -41 64 -41q33 0 55 10q28 13 28 39q0 28 -46 49zM434 768l-196 -51q198 -113 333 -215q232 -175 232 -301q0 -71 -55 -201h-748v131h680q4 21 4 37q0 128 -481 410l-10 -19
q-7 -12 -19 -12q-17 0 -51 24q-35 25 -35 43q0 12 6 21l53 108q31 62 134 88l481 125q8 0 8 -8q0 -2 -8 -18l-55 -90l-52 -14q22 -26 22 -59q0 -49 -29 -89q-37 -52 -109 -52q-52 0 -83 22q-35 23 -35 65q0 26 13 55z" />
    <glyph glyph-name="uni06B0.medi" unicode="&#x6b0;" horiz-adv-x="895" 
d="M274 999l31 64q14 31 62 43l462 119l-30 -64q-16 -34 -62 -43zM434 768l-196 -51q198 -113 333 -215q232 -175 232 -301q0 -29 -10 -70h112v-131h-16q-55 0 -87 30q-19 18 -25 25q-2 -12 -29 -55h-748v131h680q4 21 4 37q0 128 -481 410l-10 -19q-7 -12 -19 -12
q-17 0 -51 24q-35 25 -35 43q0 12 6 21l53 108q31 62 134 88l481 125q8 0 8 -8q0 -2 -8 -18l-55 -90l-52 -14q22 -26 22 -59q0 -49 -29 -89q-37 -52 -109 -52q-52 0 -83 22q-35 23 -35 65q0 26 13 55zM534 810q-55 -54 -55 -78q0 -41 64 -41q33 0 55 10q28 13 28 39
q0 28 -46 49z" />
    <glyph glyph-name="uni06B0.fina" unicode="&#x6b0;" horiz-adv-x="1315" 
d="M694 999l31 64q14 31 61 43l463 119l-31 -64q-16 -34 -61 -43zM854 769l-197 -52q198 -113 334 -215q231 -175 231 -301q0 -29 -10 -70h113v-131h-17q-54 0 -86 30q-21 19 -26 26q0 -11 -29 -56h-860q-207 0 -207 203q0 134 92 289q20 34 35 34q25 0 25 -26q0 -4 -29 -95
q-29 -90 -29 -145q0 -129 148 -129h757q5 21 5 37q0 128 -482 410l-10 -19q-6 -12 -18 -12q-18 0 -51 24q-35 25 -35 43q0 12 6 21l53 108q31 62 133 88l481 125q9 0 9 -8q0 -2 -9 -18l-55 -90l-51 -13q22 -27 22 -60q0 -49 -29 -89q-37 -52 -109 -52q-52 0 -83 22
q-35 23 -35 65q0 26 13 56zM954 807q-55 -53 -55 -76q0 -40 64 -40q33 0 55 10q28 13 28 38q0 27 -46 47z" />
    <glyph glyph-name="uni06B2.init" unicode="&#x6b2;" horiz-adv-x="949" 
d="M0 0v131h680q4 21 4 37q0 128 -481 410l-10 -19q-7 -12 -19 -12q-17 0 -51 24q-35 25 -35 43q0 12 6 21l53 108q31 62 134 88l481 125q8 0 8 -8q0 -2 -8 -18l-55 -90l-469 -123q198 -113 333 -215q232 -175 232 -301q0 -71 -55 -201h-748zM274 999l31 64q14 31 62 43
l462 119l-30 -64q-16 -34 -62 -43zM401 -309l-71 -72l-92 92l92 90l71 -71l72 71l92 -90l-92 -92z" />
    <glyph glyph-name="uni06B2.medi" unicode="&#x6b2;" horiz-adv-x="895" 
d="M274 999l31 64q14 31 62 43l462 119l-30 -64q-16 -34 -62 -43zM777 55q-2 -12 -29 -55h-748v131h680q4 21 4 37q0 128 -481 410l-10 -19q-7 -12 -19 -12q-17 0 -51 24q-35 25 -35 43q0 12 6 21l53 108q31 62 134 88l481 125q8 0 8 -8q0 -2 -8 -18l-55 -90l-469 -123
q198 -113 333 -215q232 -175 232 -301q0 -29 -10 -70h112v-131h-16q-55 0 -87 30q-19 18 -25 25zM381 -309l-71 -72l-92 92l92 90l71 -71l72 71l92 -90l-92 -92z" />
    <glyph glyph-name="uni06B2.fina" unicode="&#x6b2;" horiz-adv-x="1315" 
d="M694 999l31 64q14 31 61 43l463 119l-31 -64q-16 -34 -61 -43zM1196 56q0 -11 -29 -56h-860q-207 0 -207 203q0 134 92 289q20 34 35 34q25 0 25 -26q0 -4 -29 -95q-29 -90 -29 -145q0 -129 148 -129h757q5 21 5 37q0 128 -482 410l-10 -19q-6 -12 -18 -12q-18 0 -51 24
q-35 25 -35 43q0 12 6 21l53 108q31 62 133 88l481 125q9 0 9 -8q0 -2 -9 -18l-55 -90l-469 -123q198 -113 334 -215q231 -175 231 -301q0 -29 -10 -70h113v-131h-17q-54 0 -86 30q-21 19 -26 26zM671 -309l-71 -72l-92 92l92 90l71 -71l72 71l92 -90l-92 -92z" />
    <glyph glyph-name="uni06B4.init" unicode="&#x6b4;" horiz-adv-x="948" 
d="M0 0v131h680q4 21 4 37q0 128 -481 410l-10 -19q-7 -12 -19 -12q-17 0 -51 24q-35 25 -35 43q0 12 6 21l53 108q31 62 134 88l481 125q8 0 8 -8q0 -2 -8 -18l-55 -90l-469 -123q198 -113 333 -215q232 -175 232 -301q0 -71 -55 -201h-748zM273 947l31 64q14 31 61 43
l463 119l-31 -64q-16 -34 -61 -43zM450 1241l-73 -72l-90 92l90 90l73 -71l72 71l90 -90l-90 -92zM450 1384l-73 72l73 74l72 -74z" />
    <glyph glyph-name="uni06B4.medi" unicode="&#x6b4;" horiz-adv-x="895" 
d="M777 55q-2 -12 -29 -55h-748v131h680q4 21 4 37q0 128 -481 410l-10 -19q-7 -12 -19 -12q-17 0 -51 24q-35 25 -35 43q0 12 6 21l53 108q31 62 134 88l481 125q8 0 8 -8q0 -2 -8 -18l-55 -90l-469 -123q198 -113 333 -215q232 -175 232 -301q0 -29 -10 -70h112v-131h-16
q-55 0 -87 30q-19 18 -25 25zM273 947l31 64q14 31 61 43l463 119l-31 -64q-16 -34 -61 -43zM450 1241l-73 -72l-90 92l90 90l73 -71l72 71l90 -90l-90 -92zM450 1384l-73 72l73 74l72 -74z" />
    <glyph glyph-name="uni06B4.fina" unicode="&#x6b4;" horiz-adv-x="1315" 
d="M1196 56q0 -11 -29 -56h-860q-207 0 -207 203q0 134 92 289q20 34 35 34q25 0 25 -26q0 -4 -29 -95q-29 -90 -29 -145q0 -129 148 -129h757q5 21 5 37q0 128 -482 410l-10 -19q-6 -12 -18 -12q-18 0 -51 24q-35 25 -35 43q0 12 6 21l53 108q31 62 133 88l481 125
q9 0 9 -8q0 -2 -9 -18l-55 -90l-469 -123q198 -113 334 -215q231 -175 231 -301q0 -29 -10 -70h113v-131h-17q-54 0 -86 30q-21 19 -26 26zM692 959l31 64q14 31 61 43l463 119l-31 -64q-16 -34 -61 -43zM869 1253l-73 -72l-90 92l90 90l73 -71l72 71l90 -90l-90 -92z
M869 1396l-73 72l73 74l72 -74z" />
    <glyph glyph-name="uni06B5.init" unicode="&#x6b5;" horiz-adv-x="385" 
d="M0 0v131h156v442q0 121 -68 160l170 209q8 12 18 12q9 0 9 -24v-709q0 -118 -49 -221h-236zM317 1225q14 0 14 -17q0 -8 -3 -12q-22 -25 -56 -68l-48 -59q-22 -29 -59 -29t-61 29l-46 59q-34 43 -55 68q-3 4 -3 12q0 17 13 17h53q0 -2 98 -105q99 105 101 105h52z" />
    <glyph glyph-name="uni06B5.medi" unicode="&#x6b5;" horiz-adv-x="368" 
d="M201 56q0 -11 -29 -56h-172v131h90v684l100 127q9 12 19 12t10 -24v-727q0 -41 -6 -72h165v-131h-65q-54 0 -86 30q-21 19 -26 26zM317 1225q14 0 14 -17q0 -8 -3 -12q-22 -25 -56 -68l-48 -59q-22 -29 -59 -29t-61 29l-46 59q-34 43 -55 68q-3 4 -3 12q0 17 13 17h53
q0 -2 98 -105q99 105 101 105h52z" />
    <glyph glyph-name="uni06B5.fina" unicode="&#x6b5;" horiz-adv-x="1184" 
d="M1181 0q-34 0 -63 20l-29 21q-8 0 -8 -14q0 -182 -133 -318q-137 -139 -330 -139q-235 0 -386 194q-132 169 -132 367q0 46 31 115l67 153q13 25 21 25q12 0 12 -16l-4 -191q0 -258 125 -396q109 -120 276 -120q147 0 238 94q86 87 86 213v807l102 127q9 12 19 12t10 -24
v-799h111v-131h-13zM1132 1225q14 0 14 -17q0 -8 -3 -12q-22 -25 -56 -68l-48 -59q-22 -29 -59 -29t-61 29l-46 59q-34 43 -55 68q-3 4 -3 12q0 17 13 17h53q0 -2 98 -105q99 105 101 105h52z" />
    <glyph glyph-name="uni06B6.init" unicode="&#x6b6;" horiz-adv-x="385" 
d="M0 0v131h156v442q0 121 -68 160l170 209q8 12 18 12q9 0 9 -24v-709q0 -118 -49 -221h-236zM193 1032l-91 90l91 93l92 -93z" />
    <glyph glyph-name="uni06B6.medi" unicode="&#x6b6;" horiz-adv-x="318" 
d="M201 56q0 -11 -29 -56h-172v131h90v684l100 127q9 12 19 12t10 -24v-727q0 -41 -6 -72h115v-131h-15q-54 0 -86 30q-21 19 -26 26zM164 1032l-91 90l91 93l92 -93z" />
    <glyph glyph-name="uni06B6.fina" unicode="&#x6b6;" horiz-adv-x="1184" 
d="M1181 0q-34 0 -63 20l-29 21q-8 0 -8 -14q0 -182 -133 -318q-137 -139 -330 -139q-235 0 -386 194q-132 169 -132 367q0 46 31 115l67 153q13 25 21 25q12 0 12 -16l-4 -191q0 -258 125 -396q109 -120 276 -120q147 0 238 94q86 87 86 213v807l102 127q9 12 19 12t10 -24
v-799h111v-131h-13zM991 1032l-91 90l91 93l92 -93z" />
    <glyph glyph-name="uni06B7.init" unicode="&#x6b7;" horiz-adv-x="385" 
d="M0 0v131h156v442q0 121 -68 160l170 209q8 12 18 12q9 0 9 -24v-709q0 -118 -49 -221h-236zM169 1103l-73 -72l-90 92l90 90l73 -71l72 71l90 -90l-90 -92zM169 1246l-73 72l73 74l72 -74z" />
    <glyph glyph-name="uni06B7.medi" unicode="&#x6b7;" horiz-adv-x="378" 
d="M201 56q0 -11 -29 -56h-172v131h90v684l100 127q9 12 19 12t10 -24v-727q0 -41 -6 -72h175v-131h-75q-54 0 -86 30q-21 19 -26 26zM169 1103l-73 -72l-90 92l90 90l73 -71l72 71l90 -90l-90 -92zM169 1246l-73 72l73 74l72 -74z" />
    <glyph glyph-name="uni06B7.fina" unicode="&#x6b7;" horiz-adv-x="1184" 
d="M1181 0q-34 0 -63 20l-29 21q-8 0 -8 -14q0 -182 -133 -318q-137 -139 -330 -139q-235 0 -386 194q-132 169 -132 367q0 46 31 115l67 153q13 25 21 25q12 0 12 -16l-4 -191q0 -258 125 -396q109 -120 276 -120q147 0 238 94q86 87 86 213v807l102 127q9 12 19 12t10 -24
v-799h111v-131h-13zM919 1103l-73 -72l-90 92l90 90l73 -71l72 71l90 -90l-90 -92zM919 1246l-73 72l73 74l72 -74z" />
    <glyph glyph-name="uni06B8.init" unicode="&#x6b8;" horiz-adv-x="426" 
d="M0 0v131h197v442q0 121 -68 160l170 209q8 12 18 12q9 0 9 -24v-709q0 -118 -49 -221h-277zM163 -309l-71 -72l-92 92l92 90l71 -71l72 71l92 -90l-92 -92zM163 -557l-73 74l73 71l74 -71z" />
    <glyph glyph-name="uni06B8.medi" unicode="&#x6b8;" horiz-adv-x="398" 
d="M281 56q0 -11 -29 -56h-252v131h170v684l100 127q9 12 19 12t10 -24v-727q0 -41 -6 -72h115v-131h-15q-54 0 -86 30q-21 19 -26 26zM163 -309l-71 -72l-92 92l92 90l71 -71l72 71l92 -90l-92 -92zM163 -557l-73 74l73 71l74 -71z" />
    <glyph glyph-name="uni06B8.fina" unicode="&#x6b8;" horiz-adv-x="1184" 
d="M1181 0q-34 0 -63 20l-29 21q-8 0 -8 -14q0 -182 -133 -318q-137 -139 -330 -139q-235 0 -386 194q-132 169 -132 367q0 46 31 115l67 153q13 25 21 25q12 0 12 -16l-4 -191q0 -258 125 -396q109 -120 276 -120q147 0 238 94q86 87 86 213v807l102 127q9 12 19 12t10 -24
v-799h111v-131h-13zM611 -670l-71 -72l-92 92l92 90l71 -71l72 71l92 -90l-92 -92zM611 -918l-73 74l73 71l74 -71z" />
    <glyph glyph-name="uni06B9.init" unicode="&#x6b9;" horiz-adv-x="442" 
d="M184 862l-93 90l93 92l90 -92zM0 0v131h250q2 21 2 45q0 189 -129 387l76 117q8 12 16 12t16 -16q131 -262 131 -422q0 -132 -53 -254h-309zM91 -289l92 90l90 -90l-90 -92z" />
    <glyph glyph-name="uni06B9.medi" unicode="&#x6b9;" horiz-adv-x="453" 
d="M183 862l-93 90l93 92l90 -92zM340 56q0 -11 -29 -56h-311v131h250q2 21 2 45q0 189 -129 387l76 117q8 12 16 12t16 -16q131 -262 131 -422q0 -65 -12 -123h113v-131h-10q-55 0 -87 30q-21 19 -26 26zM91 -289l92 90l90 -90l-90 -92z" />
    <glyph glyph-name="uni06B9.fina" unicode="&#x6b9;" horiz-adv-x="1186" 
d="M440 717l92 90l90 -90l-90 -92zM1183 0q-34 0 -63 20l-29 21q-8 0 -8 -14q-16 -207 -165 -339q-134 -118 -300 -118q-234 0 -386 196q-132 170 -132 369q0 42 31 111l69 162q9 16 19 16q12 0 12 -14l-2 -73q-2 -64 -2 -142q0 -228 118 -365q111 -129 283 -129
q158 0 256 114q90 105 90 248q0 216 -184 500l76 119q7 10 14 10q4 0 13 -12q173 -322 190 -549h113v-131h-13zM531 -764l-91 90l91 93l92 -93z" />
    <glyph glyph-name="uni06BC.init" unicode="&#x6bc;" horiz-adv-x="442" 
d="M132 13q-55 -69 -55 -100q0 -52 64 -52q33 0 55 13q28 17 28 50q0 35 -46 62zM184 862l-93 90l93 92l90 -92zM71 0h-71v131h250q2 21 2 45q0 189 -129 387l76 117q8 12 16 12t16 -16q131 -262 131 -422q0 -132 -53 -254h-59q25 -28 25 -63q0 -49 -29 -89
q-37 -52 -109 -52q-52 0 -83 22q-35 23 -35 65q0 52 52 117z" />
    <glyph glyph-name="uni06BC.medi" unicode="&#x6bc;" horiz-adv-x="453" 
d="M132 13q-55 -69 -55 -100q0 -52 64 -52q33 0 55 13q28 17 28 50q0 35 -46 62zM184 862l-93 90l93 92l90 -92zM71 0h-71v131h250q2 21 2 45q0 189 -129 387l76 117q8 12 16 12t16 -16q131 -262 131 -422q0 -65 -12 -123h113v-131h-10q-55 0 -87 30q-21 19 -26 26
q0 -11 -29 -56h-61q25 -28 25 -63q0 -49 -29 -89q-37 -52 -109 -52q-52 0 -83 22q-35 23 -35 65q0 52 52 117z" />
    <glyph glyph-name="uni06BC.fina" unicode="&#x6bc;" horiz-adv-x="1186" 
d="M440 717l92 90l90 -90l-90 -92zM575 -424q-55 -69 -55 -100q0 -52 64 -52q33 0 55 13q28 17 28 50q0 35 -46 62zM527 -422q-174 31 -295 188q-132 170 -132 369q0 42 31 111l69 162q9 16 19 16q12 0 12 -14l-2 -73q-2 -64 -2 -142q0 -228 118 -365q111 -129 283 -129
q158 0 256 114q90 105 90 248q0 216 -184 500l76 119q7 10 14 10q4 0 13 -12q173 -322 190 -549h113v-131h-13q-34 0 -63 20l-29 21q-8 0 -8 -14q-16 -207 -165 -339q-108 -95 -236 -113q36 -33 36 -75q0 -49 -29 -89q-37 -52 -109 -52q-52 0 -83 22q-35 23 -35 65
q0 58 65 132z" />
    <glyph glyph-name="uni06BD.init" unicode="&#x6bd;" horiz-adv-x="442" 
d="M252 872l-72 72l-71 -72l-93 91l93 92l71 -72l72 72l92 -92zM180 1087l-74 72l74 72l74 -72zM0 0v131h250q2 21 2 45q0 189 -129 387l76 117q8 12 16 12t16 -16q131 -262 131 -422q0 -132 -53 -254h-309z" />
    <glyph glyph-name="uni06BD.medi" unicode="&#x6bd;" horiz-adv-x="453" 
d="M252 872l-72 72l-71 -72l-93 91l93 92l71 -72l72 72l92 -92zM180 1087l-74 72l74 72l74 -72zM340 56q0 -11 -29 -56h-311v131h250q2 21 2 45q0 189 -129 387l76 117q8 12 16 12t16 -16q131 -262 131 -422q0 -65 -12 -123h113v-131h-10q-55 0 -87 30q-21 19 -26 26z" />
    <glyph glyph-name="uni06BD.fina" unicode="&#x6bd;" horiz-adv-x="1186" 
d="M1183 0q-34 0 -63 20l-29 21q-8 0 -8 -14q-16 -207 -165 -339q-134 -118 -300 -118q-234 0 -386 196q-132 170 -132 369q0 42 31 111l69 162q9 16 19 16q12 0 12 -14l-2 -73q-2 -64 -2 -142q0 -228 118 -365q111 -129 283 -129q158 0 256 114q90 105 90 248
q0 216 -184 500l76 119q7 10 14 10q4 0 13 -12q173 -322 190 -549h113v-131h-13zM616 628l-72 72l-71 -72l-93 91l93 92l71 -72l72 72l92 -92zM544 843l-74 72l74 72l74 -72z" />
    <glyph glyph-name="uni06BF.init" unicode="&#x6bf;" horiz-adv-x="1014" 
d="M874 37q-24 -37 -79 -37h-795v131h608q-36 34 -254 328q-75 100 -116 100q-30 0 -76 -32q-47 -31 -60 -31q-16 0 -16 16q0 14 18 33q135 145 189 145q62 0 137 -102q205 -286 276 -364q86 -93 156 -93q13 0 31 9q18 10 27 10q14 0 14 -15q0 -13 -10 -26zM358 -309
l-71 -72l-92 92l92 90l71 -71l72 71l92 -90l-92 -92zM358 -557l-73 74l73 71l74 -71zM313 866l-90 92l90 91l93 -91z" />
    <glyph glyph-name="uni06BF.medi" unicode="&#x6bf;" horiz-adv-x="1002" 
d="M358 -309l-71 -72l-92 92l92 90l71 -71l72 71l92 -90l-92 -92zM358 -557l-73 74l73 71l74 -71zM1001 0q-49 0 -79 30q-27 26 -27 29q-2 0 -26 -29q-25 -30 -60 -30h-809v131h608q-36 34 -254 328q-75 100 -116 100q-30 0 -76 -32q-47 -31 -60 -31q-16 0 -16 16
q0 14 18 33q135 145 189 145q62 0 137 -102q205 -286 276 -364q86 -93 156 -93h150v-131h-11zM313 866l-90 92l90 91l93 -91z" />
    <glyph glyph-name="uni06BF.fina" unicode="&#x6bf;" horiz-adv-x="1053" 
d="M555 72l-62 63l-63 -63l-80 80l82 79l61 -61l62 61l82 -79zM493 -94l-63 63l63 66l64 -66zM239 -314q-139 125 -139 343q0 288 269 557q-73 47 -119 47q-34 0 -77 -23q-43 -22 -48 -22q-15 0 -15 16q0 10 25 39q88 105 168 105q31 0 140 -36q110 -36 227 -36
q138 0 215 21q71 20 71 22q21 0 21 -14q0 -7 -10 -27l-43 -80q-26 -47 -91 -47l-61 2l76 -326q14 -63 33 -79q21 -17 92 -17h90v-131h-82q-114 0 -157 23q-55 30 -77 127l-92 397q-91 -10 -180 -62q-250 -151 -250 -393q0 -170 132 -280q121 -101 280 -101q62 0 143 7l90 8
q23 0 23 -15q0 -11 -17 -18q-260 -98 -297 -118l-14 -5q-200 3 -326 116zM612 852l-90 92l90 90l92 -90z" />
    <glyph glyph-name="uni06C2.fina" unicode="&#x6c2;" horiz-adv-x="1141" 
d="M1132 0q-103 0 -149 68q-33 47 -95 243q-42 135 -65 178q-31 62 -74 62q-82 0 -178 -213q-119 -265 -118 -263q-39 -75 -79 -75q-79 0 -171 114q-103 128 -103 279q0 108 19 191q19 82 42 82q17 0 17 -23l-2 -86q0 -179 58 -285q52 -94 124 -94q27 0 60 75q7 17 32 77
q21 54 37 88q128 272 299 272q69 0 103 -53q31 -50 85 -240q49 -171 71 -211q29 -55 87 -55h19v-131h-19zM684 1124q-12 4 -31 4q-37 0 -63 -21q-25 -21 -25 -48q0 -66 101 -66q51 0 90 27q-5 -54 -28 -76q-22 -19 -93 -37q-57 -13 -96 -46l-35 -29q-6 0 -6 4q0 63 114 120
q-100 12 -100 91q0 73 74 122q58 39 108 39q13 0 13 -8q0 -4 -4 -16z" />
    <glyph glyph-name="uni06C3.fina" unicode="&#x6c3;" horiz-adv-x="1141" 
d="M1132 0q-103 0 -149 68q-33 47 -95 243q-42 135 -65 178q-31 62 -74 62q-82 0 -178 -213q-119 -265 -118 -263q-39 -75 -79 -75q-79 0 -171 114q-103 128 -103 279q0 108 19 191q19 82 42 82q17 0 17 -23l-2 -86q0 -179 58 -285q52 -94 124 -94q27 0 60 75q7 17 32 77
q21 54 37 88q128 272 299 272q69 0 103 -53q31 -50 85 -240q49 -171 71 -211q29 -55 87 -55h19v-131h-19zM839 861l-71 72l-72 -72l-90 90l90 92l72 -72l71 72l92 -92z" />
    <glyph glyph-name="uni06C4.fina" unicode="&#x6c4;" horiz-adv-x="819" 
d="M598 131q-11 148 -63 274q-61 150 -142 150q-65 0 -104 -105q-31 -85 -31 -180q0 -90 49 -120q31 -19 110 -19h181zM410 -129q-33 0 -57 -23.5t-24 -57.5t24 -57.5t57 -23.5q34 0 58 23.5t24 57.5t-24 57.5t-58 23.5zM543 -184q48 77 61 184h-264q-211 0 -211 203
q0 139 69 294q86 193 215 193q144 0 235 -189q79 -164 81 -370h100v-131h-108q-15 -108 -68 -219q-62 -124 -91 -159q-43 -52 -106 -52q-11 0 -130 10t-195 10q-31 0 -31 15q0 13 37 16q125 9 218 46q-22 10 -39 28q-40 39 -40 95t39.5 95.5t94.5 39.5q56 0 96 -39
q29 -30 37 -70z" />
    <glyph glyph-name="uni06CA.fina" unicode="&#x6ca;" horiz-adv-x="819" 
d="M721 0q-15 -108 -68 -219q-62 -124 -91 -159q-43 -52 -106 -52q-11 0 -130 10t-195 10q-31 0 -31 15q0 13 37 16q426 31 467 379h-264q-211 0 -211 203q0 139 69 294q86 193 215 193q144 0 235 -189q79 -164 81 -370h100v-131h-108zM598 131q-11 148 -63 274
q-61 150 -142 150q-65 0 -104 -105q-31 -85 -31 -180q0 -90 49 -120q31 -19 110 -19h181zM502 872l-72 72l-71 -72l-93 91l93 92l71 -72l72 72l92 -92z" />
    <glyph glyph-name="uni06CD.fina" unicode="&#x6cd;" horiz-adv-x="1405" 
d="M424 253l63 146q13 25 21 25q12 0 12 -16l-4 -191q0 -258 125 -396q109 -120 276 -120q138 0 238 96q86 82 86 158q0 45 -84 45h-168q-91 0 -146 44q-55 45 -55 120q0 26 15 26q10 0 16 -16q15 -43 84 -43h512v-131h-45q-9 -150 -135 -283q-140 -147 -328 -147
q-235 0 -386 194q-100 129 -112 304q-28 -52 -77 -62q-20 -5 -41 -5q-60 0 -120 44q-64 46 -71 74v2q0 8 12 11q6 0 63 -22q39 -15 72 -15q16 0 31 4q57 4 146 154z" />
    <glyph glyph-name="uni06CE.init" unicode="&#x6ce;" horiz-adv-x="442" 
d="M182 -309l-73 -72l-91 92l91 90l73 -71l72 71l90 -90l-90 -92zM0 0v131h250q2 21 2 45q0 189 -129 387l76 117q8 12 16 12t16 -16q131 -262 131 -422q0 -132 -53 -254h-309zM344 1008q14 0 14 -17q0 -8 -3 -12q-22 -25 -56 -68l-48 -59q-22 -29 -59 -29t-61 29l-46 59
q-34 43 -55 68q-3 4 -3 12q0 17 13 17h53q0 -2 98 -105q99 105 101 105h52z" />
    <glyph glyph-name="uni06CE.medi" unicode="&#x6ce;" horiz-adv-x="453" 
d="M182 -309l-73 -72l-91 92l91 90l73 -71l72 71l90 -90l-90 -92zM340 56q0 -11 -29 -56h-311v131h250q2 21 2 45q0 189 -129 387l76 117q8 12 16 12t16 -16q131 -262 131 -422q0 -65 -12 -123h113v-131h-10q-55 0 -87 30q-21 19 -26 26zM344 1008q14 0 14 -17q0 -8 -3 -12
q-22 -25 -56 -68l-48 -59q-22 -29 -59 -29t-61 29l-46 59q-34 43 -55 68q-3 4 -3 12q0 17 13 17h53q0 -2 98 -105q99 105 101 105h52z" />
    <glyph glyph-name="uni06CE.fina" unicode="&#x6ce;" horiz-adv-x="1116" 
d="M1081 0q-9 -150 -135 -283q-140 -147 -328 -147q-235 0 -386 194q-132 169 -132 367q0 46 31 115l67 153q13 25 21 25q12 0 12 -16l-4 -191q0 -258 125 -396q109 -120 276 -120q138 0 238 96q86 82 86 158q0 45 -84 45h-168q-91 0 -146 44q-55 45 -55 120q0 26 15 26
q10 0 16 -16q15 -43 84 -43h512v-131h-45zM593 688q14 0 14 -17q0 -8 -3 -12q-22 -25 -56 -68l-48 -59q-22 -29 -59 -29t-61 29l-46 59q-34 43 -55 68q-3 4 -3 12q0 17 13 17h53q0 -2 98 -105q99 105 101 105h52z" />
    <glyph glyph-name="uni06CF.fina" unicode="&#x6cf;" horiz-adv-x="819" 
d="M721 0q-15 -108 -68 -219q-62 -124 -91 -159q-43 -52 -106 -52q-11 0 -130 10t-195 10q-31 0 -31 15q0 13 37 16q426 31 467 379h-264q-211 0 -211 203q0 139 69 294q86 193 215 193q144 0 235 -189q79 -164 81 -370h100v-131h-108zM598 131q-11 148 -63 274
q-61 150 -142 150q-65 0 -104 -105q-31 -85 -31 -180q0 -90 49 -120q31 -19 110 -19h181zM432 862l-93 90l93 92l90 -92z" />
    <glyph glyph-name="uni06D1.init" unicode="&#x6d1;" horiz-adv-x="442" 
d="M182 -309l-71 -72l-93 92l93 90l71 -71l72 71l90 -90l-90 -92zM182 -557l-73 74l73 71l74 -71zM0 0v131h250q2 21 2 45q0 189 -129 387l76 117q8 12 16 12t16 -16q131 -262 131 -422q0 -132 -53 -254h-309z" />
    <glyph glyph-name="uni06D1.medi" unicode="&#x6d1;" horiz-adv-x="453" 
d="M182 -309l-71 -72l-93 92l93 90l71 -71l72 71l90 -90l-90 -92zM182 -557l-73 74l73 71l74 -71zM340 56q0 -11 -29 -56h-311v131h250q2 21 2 45q0 189 -129 387l76 117q8 12 16 12t16 -16q131 -262 131 -422q0 -65 -12 -123h113v-131h-10q-55 0 -87 30q-21 19 -26 26z" />
    <glyph glyph-name="uni06D1.fina" unicode="&#x6d1;" horiz-adv-x="1116" 
d="M1081 0q-9 -150 -135 -283q-140 -147 -328 -147q-235 0 -386 194q-132 169 -132 367q0 46 31 115l67 153q13 25 21 25q12 0 12 -16l-4 -191q0 -258 125 -396q109 -120 276 -120q138 0 238 96q86 82 86 158q0 45 -84 45h-168q-91 0 -146 44q-55 45 -55 120q0 26 15 26
q10 0 16 -16q15 -43 84 -43h512v-131h-45zM619 -717l-71 -72l-92 92l92 90l71 -71l72 71l92 -90l-92 -92zM619 -965l-73 74l73 71l74 -71z" />
    <glyph glyph-name="uni06D5.fina" unicode="&#x6d5;" horiz-adv-x="731" 
d="M714 0q-101 0 -139 100l-51 -77l-68 -3q-356 0 -356 134q0 96 20 178q14 55 113 121l223 147q-25 66 -51 105q39 45 96 137q82 -163 131 -561q17 -150 97 -150h12v-131h-27zM452 457q-258 -178 -258 -217q0 -93 238 -93q68 0 117 11q-15 55 -32 184q-17 123 -34 180z" />
    <glyph glyph-name="uni06EE.fina" unicode="&#x6ee;" horiz-adv-x="733" 
d="M639 57q0 -9 -35 -57h-426q-52 0 -68 29q-10 19 -10 73q0 82 27 82q7 0 14 -14q18 -39 74 -39h340q-32 60 -61 214q-27 142 -77 216l74 115q7 14 17 14q9 0 22 -28q44 -101 94 -396q25 -135 111 -135h8v-131h-8q-41 0 -70 30zM517 847q-2 0 -101 105q-98 -103 -98 -105
h-53q-13 0 -13 17q0 8 3 12q21 25 55 68l46 59q24 29 61 29t59 -29l48 -59q34 -43 56 -68q3 -4 3 -12q0 -17 -14 -17h-52z" />
    <glyph glyph-name="uni06EF.fina" unicode="&#x6ef;" horiz-adv-x="798" 
d="M800 0q-84 0 -143 68q-7 -179 -109 -357q-81 -141 -164 -141l-127 10q-124 10 -198 10q-29 0 -29 15q0 16 31 16q194 5 334 117q149 119 149 295q0 150 -84 297q-84 146 -84 155q0 22 10 50l50 149q2 8 12 8q4 0 24 -61q164 -500 328 -500h8v-131h-8zM517 847
q-2 0 -101 105q-98 -103 -98 -105h-53q-13 0 -13 17q0 8 3 12q21 25 55 68l46 59q24 29 61 29t59 -29l48 -59q34 -43 56 -68q3 -4 3 -12q0 -17 -14 -17h-52z" />
    <glyph glyph-name="uni06FA.init" unicode="&#x6fa;" horiz-adv-x="1647" 
d="M600 56q0 -10 -31 -56h-569v131h510l2 45q0 189 -129 387l76 117q8 12 16 12t17 -16q131 -262 131 -422q0 -61 -13 -123h398q2 21 2 45q0 189 -129 387l75 117q9 12 17 12t16 -16q131 -262 131 -422q0 -61 -12 -123h346q2 21 2 45q0 189 -129 387l76 117q8 12 16 12
t17 -16q131 -262 131 -422q0 -132 -54 -254h-309q-48 0 -79 30q-22 20 -27 26q0 -10 -31 -56h-360q-49 0 -80 30q-21 19 -27 26zM933 944l-72 -72l-90 93l90 90l72 -72l71 72l92 -90l-92 -93zM933 1087l-72 72l72 74l73 -74zM843 -289l92 90l90 -90l-90 -92z" />
    <glyph glyph-name="uni06FA.medi" unicode="&#x6fa;" horiz-adv-x="1657" 
d="M600 56q0 -10 -31 -56h-569v131h510l2 45q0 189 -129 387l76 117q8 12 16 12t17 -16q131 -262 131 -422q0 -61 -13 -123h398q2 21 2 45q0 189 -129 387l75 117q9 12 17 12t16 -16q131 -262 131 -422q0 -61 -12 -123h346q2 21 2 45q0 189 -129 387l76 117q8 12 16 12
t17 -16q131 -262 131 -422q0 -65 -13 -123h113v-131h-10q-55 0 -87 30q-21 19 -26 26l-31 -56h-309q-48 0 -79 30q-21 20 -27 26q0 -10 -31 -56h-360q-49 0 -80 30q-21 19 -27 26zM933 944l-72 -72l-90 93l90 90l72 -72l71 72l92 -90l-92 -93zM933 1087l-72 72l72 74l73 -74
zM842 -289l92 90l90 -90l-90 -92z" />
    <glyph glyph-name="uni06FA.fina" unicode="&#x6fa;" horiz-adv-x="2124" 
d="M1564 56q0 -10 -30 -56h-344q-44 2 -73 22q-26 17 -26 19q-8 0 -10 -27q-16 -195 -158 -323q-133 -121 -305 -121q-234 0 -386 196q-132 170 -132 369q0 42 31 111l69 162q9 16 19 16q12 0 12 -14l-2 -73q-2 -64 -2 -142q0 -228 118 -365q111 -129 283 -129
q158 0 256 114q90 105 90 248q0 216 -184 500l76 119q7 10 14 10q4 0 13 -12q176 -322 190 -549h391q2 21 2 45q0 189 -129 387l76 117q8 12 16 12q9 0 17 -16q131 -262 131 -422q0 -61 -12 -123h346q2 21 2 45q0 189 -129 387l75 117q9 12 17 12t16 -16q131 -262 131 -422
q0 -65 -12 -123h113v-131h-11q-54 0 -86 30q-21 19 -26 26l-31 -56h-309q-49 0 -80 30q-21 19 -27 26zM1453 944l-72 -72l-90 93l90 90l72 -72l71 72l92 -90l-92 -93zM1453 1087l-72 72l72 74l73 -74zM1363 -289l92 90l90 -90l-90 -92z" />
    <glyph glyph-name="uni06FB.init" unicode="&#x6fb;" horiz-adv-x="1073" 
d="M422 805l-90 90l90 92l92 -92zM0 0v131h125q-5 110 -37 254l78 111q34 -168 43 -254q255 450 465 450q144 0 237 -149q82 -131 82 -293q0 -114 -51 -250h-942zM848 131q6 43 6 102q0 117 -56 213q-64 109 -161 109q-96 0 -215 -161q-38 -51 -93 -140l-79 -123h598z
M332 -289l92 90l90 -90l-90 -92z" />
    <glyph glyph-name="uni06FB.medi" unicode="&#x6fb;" horiz-adv-x="1082" 
d="M424 805l-92 90l92 92l90 -92zM1075 0q-46 0 -78 30q-30 27 -30 29q-5 0 -25 -59h-942v131h125q-5 110 -37 254l78 111q34 -168 43 -254q255 450 465 450q144 0 237 -149q82 -131 82 -293q0 -61 -12 -119h111v-131h-17zM848 131q6 43 6 102q0 117 -56 213
q-64 109 -161 109q-96 0 -215 -161q-38 -51 -93 -140l-79 -123h598zM332 -289l92 90l90 -90l-90 -92z" />
    <glyph glyph-name="uni06FB.fina" unicode="&#x6fb;" horiz-adv-x="2015" 
d="M1355 805l-90 90l90 92l91 -92zM1781 131q7 43 7 102q0 117 -57 213q-63 109 -161 109q-95 0 -215 -161q-37 -51 -93 -140l-79 -123h598zM2009 0q-46 0 -78 30q-31 27 -31 29q-5 0 -24 -59h-684q-66 0 -109 35q-15 -209 -155 -341q-132 -124 -310 -124q-234 0 -386 196
q-132 170 -132 369q0 42 31 111l69 162q9 16 19 16q12 0 12 -14l-2 -73q-2 -64 -2 -142q0 -228 118 -365q111 -129 283 -129q158 0 256 114q90 105 90 248q0 216 -184 500l76 119q7 10 14 10q4 0 13 -12q134 -243 172 -422q16 -81 18 -127q302 561 524 561q145 0 238 -149
q82 -131 82 -293q0 -61 -12 -119h110v-131h-16zM1265 -289l92 90l90 -90l-90 -92z" />
    <glyph glyph-name="uni06FC.init" unicode="&#x6fc;" horiz-adv-x="817" 
d="M365 856l-93 90l93 92l90 -92zM698 53q-25 -53 -114 -53h-584v131h199q-111 85 -111 211q0 136 102 243q104 107 238 107q101 0 193 -68q75 -57 75 -87q0 -23 -22 -23q0 2 -73 38q-77 38 -157 38q-160 0 -237 -207q29 -128 162 -197q107 -55 235 -55q56 0 90 8l35 8
q8 0 8 -10q0 -4 -6 -16zM272 -289l92 90l90 -90l-90 -92z" />
    <glyph glyph-name="uni06FC.medi" unicode="&#x6fc;" horiz-adv-x="801" 
d="M420 879l-90 90l90 92l92 -92zM565 0q-80 0 -133 43q-49 -43 -123 -43h-309v131h352q-75 258 -243 324q-23 7 -23 20l49 143q12 35 55 46q106 28 222 28q286 0 286 -203q0 -142 -137 -358h250v-131h-246zM440 174q111 162 111 266q0 117 -166 117q-76 0 -186 -27
q181 -110 241 -356zM330 -289l92 90l90 -90l-90 -92z" />
    <glyph glyph-name="uni06FC.fina" unicode="&#x6fc;" horiz-adv-x="909" 
d="M530 879l-92 90l92 92l90 -92zM675 0q-80 0 -133 43q-49 -43 -123 -43q-94 0 -131 -20q-45 -23 -45 -89q0 -95 106 -142q82 -36 206 -36q54 0 141 6q87 7 104 7q23 0 23 -15q0 -12 -16 -16q-31 -13 -173 -88q-69 -37 -155 -37q-150 0 -255 72q-124 84 -124 237
q0 142 101 207q73 47 184 47l77 -2q-75 258 -243 324q-23 7 -23 20l49 143q12 35 56 46q105 28 221 28q287 0 287 -203q0 -142 -138 -358h248v-131h-244zM551 174q110 162 110 266q0 117 -166 117q-76 0 -186 -27q181 -110 242 -356zM528 -232l-90 90l90 92l92 -92z" />
    <glyph glyph-name="uni06FF.init" unicode="&#x6ff;" horiz-adv-x="962" 
d="M279 131q104 0 157 90q39 66 39 148q0 110 -96 110q-72 0 -132 -76q-63 -80 -63 -188q0 -39 4 -84h91zM741 178q0 112 -155 211q-25 -184 -92 -260q110 -33 188 -94q59 83 59 143zM0 0v131h90l-6 82q0 178 184 348q-20 15 -20 27q0 8 4 16l70 111q9 18 24 18q12 0 21 -28
q4 -13 36 -29q459 -216 459 -467q0 -77 -133 -303q-19 -33 -39 -33q-19 0 -53 25q-159 102 -354 102h-283zM434 880q-2 0 -101 105q-98 -103 -98 -105h-53q-13 0 -13 17q0 8 3 12q21 25 55 68l46 59q24 29 61 29t59 -29l48 -59q34 -43 56 -68q3 -4 3 -12q0 -17 -14 -17h-52z
" />
    <glyph glyph-name="uni06FF.medi" unicode="&#x6ff;" horiz-adv-x="957" 
d="M279 131q104 0 157 90q39 66 39 148q0 110 -96 110q-72 0 -132 -76q-63 -80 -63 -188q0 -39 4 -84h91zM741 178q0 112 -155 211q-25 -184 -92 -260q110 -33 188 -94q59 83 59 143zM930 0q-50 0 -78 32q-25 29 -25 31q-5 0 -16 -26q-76 -164 -121 -164q-19 0 -53 25
q-159 102 -354 102h-283v131h90l-6 82q0 178 184 348q-20 15 -20 27q0 8 4 16l70 111q9 18 24 18q12 0 21 -28q4 -13 36 -29q461 -217 461 -467q0 -41 -12 -78h115v-131h-37zM439 880q-2 0 -101 105q-98 -103 -98 -105h-53q-13 0 -13 17q0 8 3 12q21 25 55 68l46 59
q24 29 61 29t59 -29l48 -59q34 -43 56 -68q3 -4 3 -12q0 -17 -14 -17h-52z" />
    <glyph glyph-name="uni06FF.fina" unicode="&#x6ff;" horiz-adv-x="1207" 
d="M549 159q99 0 150 82q37 61 37 137q0 101 -92 101q-68 0 -126 -70q-60 -74 -60 -173q0 -36 4 -77h87zM1002 178q0 112 -155 211q-25 -184 -92 -260q110 -33 188 -94q59 83 59 143zM1040 -5q-8 -17 -16 -31v1q-16 -28 -34 -59q-19 -33 -39 -33q-19 0 -53 25
q-126 81 -275 98q-7 -9 -15 -17q-95 -106 -169 -106q-11 0 -21 2l-122 37q-119 35 -191 51q-25 5 -25 17v3q2 12 19 12q6 0 14 -2q59 -11 116 -11q125 0 235 55l4 2q-39 5 -68 31q-11 8 -21 19q-20 22 -30 47.5t-11 79.5q7 175 191 345q-20 15 -20 27q0 8 4 16l70 111
q9 18 24 18q12 0 21 -28q4 -13 36 -29q459 -216 459 -467q0 -29 -18 -78h112v-131h-37q-50 0 -78 32q-25 29 -25 31q-1 0 -2 -1q-15 -31 -35 -67zM714 880q-2 0 -101 105q-98 -103 -98 -105h-53q-13 0 -13 17q0 8 3 12q21 25 55 68l46 59q24 29 61 29t59 -29l48 -59
q34 -43 56 -68q3 -4 3 -12q0 -17 -14 -17h-52z" />
    <glyph glyph-name="uniFB50" unicode="&#x671;" horiz-adv-x="410" arabic-form="isolated" 
d="M297 1190q27 0 48 35q17 30 17 53q0 35 -36 35q-37 0 -66 -36l-23 -31q-13 -19 -22 -27q70 -29 82 -29zM346 1364q64 0 64 -76q0 -56 -38 -109q-45 -63 -112 -63q-32 0 -79 20q-47 19 -72 19q-46 0 -75 -41q-28 -38 -28 -41q-6 0 -6 4q0 58 59 117q38 38 96 38q9 0 19 -1
q83 133 172 133zM281 942q8 12 18 12t10 -24v-828q0 -60 -20 -94l-60 -75q-54 -64 -71 -95q-6 -12 -19 -12q-10 0 -10 8l4 14q45 114 45 209v516q0 121 -67 160z" />
    <glyph glyph-name="uniFB51" unicode="&#x671;" horiz-adv-x="408" arabic-form="final" 
d="M297 1190q27 0 48 35q17 30 17 53q0 35 -36 35q-37 0 -66 -36l-23 -31q-13 -19 -22 -27q70 -29 82 -29zM346 1364q64 0 64 -76q0 -56 -38 -109q-45 -63 -112 -63q-32 0 -79 20q-47 19 -72 19q-46 0 -75 -41q-28 -38 -28 -41q-6 0 -6 4q0 58 59 117q38 38 96 38q9 0 19 -1
q83 133 172 133zM309 180q0 -49 49 -49h60v-131h-107q-133 0 -133 139v434q0 121 -67 160l170 209q8 12 18 12t10 -24v-750z" />
    <glyph glyph-name="uniFB52" unicode="&#x67b;" horiz-adv-x="1126" arabic-form="isolated" 
d="M307 0q-207 0 -207 203q0 134 92 289q20 34 35 34q25 0 25 -26q0 -4 -29 -95q-29 -90 -29 -145q0 -129 148 -129h592q2 21 2 45q0 189 -129 387l75 117q9 12 17 12t16 -16q131 -262 131 -422q0 -132 -53 -254h-686zM581 -199l92 -90l-72 -73l72 -72l-92 -90l-90 90l71 72
l-71 71z" />
    <glyph glyph-name="uniFB53" unicode="&#x67b;" horiz-adv-x="1137" arabic-form="final" 
d="M1024 56q0 -11 -29 -56h-688q-207 0 -207 203q0 134 92 289q20 34 35 34q25 0 25 -26q0 -4 -29 -95q-29 -90 -29 -145q0 -129 148 -129h592q2 21 2 45q0 189 -129 387l75 117q9 12 17 12t16 -16q131 -262 131 -422q0 -65 -12 -123h113v-131h-11q-54 0 -86 30
q-21 19 -26 26zM581 -199l92 -90l-72 -73l72 -72l-92 -90l-90 90l71 72l-71 71z" />
    <glyph glyph-name="uniFB54" unicode="&#x67b;" horiz-adv-x="442" arabic-form="initial" 
d="M0 0v131h250q2 21 2 45q0 189 -129 387l76 117q8 12 16 12t16 -16q131 -262 131 -422q0 -132 -53 -254h-309zM180 -199l92 -90l-72 -73l72 -72l-92 -90l-90 90l71 72l-71 71z" />
    <glyph glyph-name="uniFB55" unicode="&#x67b;" horiz-adv-x="453" arabic-form="medial" 
d="M340 56q0 -11 -29 -56h-311v131h250q2 21 2 45q0 189 -129 387l76 117q8 12 16 12t16 -16q131 -262 131 -422q0 -65 -12 -123h113v-131h-10q-55 0 -87 30q-21 19 -26 26zM180 -199l92 -90l-72 -73l72 -72l-92 -90l-90 90l71 72l-71 71z" />
    <glyph glyph-name="uniFB56" unicode="&#x67e;" horiz-adv-x="1126" arabic-form="isolated" 
d="M583 -309l-71 -72l-93 92l93 90l71 -71l72 71l90 -90l-90 -92zM583 -557l-71 72l71 73l72 -73zM307 0q-207 0 -207 203q0 134 92 289q20 34 35 34q25 0 25 -26q0 -4 -29 -95q-29 -90 -29 -145q0 -129 148 -129h592q2 21 2 45q0 189 -129 387l75 117q9 12 17 12t16 -16
q131 -262 131 -422q0 -132 -53 -254h-686z" />
    <glyph glyph-name="uniFB57" unicode="&#x67e;" horiz-adv-x="1137" arabic-form="final" 
d="M583 -309l-71 -72l-93 92l93 90l71 -71l72 71l90 -90l-90 -92zM583 -557l-71 72l71 73l72 -73zM1024 56q0 -11 -29 -56h-688q-207 0 -207 203q0 134 92 289q20 34 35 34q25 0 25 -26q0 -4 -29 -95q-29 -90 -29 -145q0 -129 148 -129h592q2 21 2 45q0 189 -129 387l75 117
q9 12 17 12t16 -16q131 -262 131 -422q0 -65 -12 -123h113v-131h-11q-54 0 -86 30q-21 19 -26 26z" />
    <glyph glyph-name="uniFB58" unicode="&#x67e;" horiz-adv-x="442" arabic-form="initial" 
d="M182 -309l-71 -72l-93 92l93 90l71 -71l72 71l90 -90l-90 -92zM182 -557l-73 74l73 71l74 -71zM0 0v131h250q2 21 2 45q0 189 -129 387l76 117q8 12 16 12t16 -16q131 -262 131 -422q0 -132 -53 -254h-309z" />
    <glyph glyph-name="uniFB59" unicode="&#x67e;" horiz-adv-x="453" arabic-form="medial" 
d="M182 -309l-71 -72l-93 92l93 90l71 -71l72 71l90 -90l-90 -92zM182 -557l-73 74l73 71l74 -71zM340 56q0 -11 -29 -56h-311v131h250q2 21 2 45q0 189 -129 387l76 117q8 12 16 12t16 -16q131 -262 131 -422q0 -65 -12 -123h113v-131h-10q-55 0 -87 30q-21 19 -26 26z" />
    <glyph glyph-name="uniFB5A" unicode="&#x680;" horiz-adv-x="1126" arabic-form="isolated" 
d="M307 0q-207 0 -207 203q0 134 92 289q20 34 35 34q25 0 25 -26q0 -4 -29 -95q-29 -90 -29 -145q0 -129 148 -129h592q2 21 2 45q0 189 -129 387l75 117q9 12 17 12t16 -16q131 -262 131 -422q0 -132 -53 -254h-686zM662 -380l85 -87l-92 -90l-71 71l-72 -71l-90 90l84 86
l-84 84l90 92l72 -72l73 72l90 -92zM650 -382l-66 66l-66 -65l66 -66z" />
    <glyph glyph-name="uniFB5B" unicode="&#x680;" horiz-adv-x="1137" arabic-form="final" 
d="M1024 56q0 -11 -29 -56h-688q-207 0 -207 203q0 134 92 289q20 34 35 34q25 0 25 -26q0 -4 -29 -95q-29 -90 -29 -145q0 -129 148 -129h592q2 21 2 45q0 189 -129 387l75 117q9 12 17 12t16 -16q131 -262 131 -422q0 -65 -12 -123h113v-131h-11q-54 0 -86 30
q-21 19 -26 26zM662 -380l85 -87l-92 -90l-71 71l-72 -71l-90 90l84 86l-84 84l90 92l72 -72l73 72l90 -92zM650 -382l-66 66l-66 -65l66 -66z" />
    <glyph glyph-name="uniFB5C" unicode="&#x680;" horiz-adv-x="442" arabic-form="initial" 
d="M0 0v131h250q2 21 2 45q0 189 -129 387l76 117q8 12 16 12t16 -16q131 -262 131 -422q0 -132 -53 -254h-309zM262 -380l85 -87l-92 -90l-71 71l-72 -71l-90 90l84 86l-84 84l90 92l72 -72l73 72l90 -92zM250 -382l-66 66l-66 -65l66 -66z" />
    <glyph glyph-name="uniFB5D" unicode="&#x680;" horiz-adv-x="453" arabic-form="medial" 
d="M340 56q0 -11 -29 -56h-311v131h250q2 21 2 45q0 189 -129 387l76 117q8 12 16 12t16 -16q131 -262 131 -422q0 -65 -12 -123h113v-131h-10q-55 0 -87 30q-21 19 -26 26zM262 -380l85 -87l-92 -90l-71 71l-72 -71l-90 90l84 86l-84 84l90 92l72 -72l73 72l90 -92z
M250 -382l-66 66l-66 -65l66 -66z" />
    <glyph glyph-name="uniFB5E" unicode="&#x67a;" horiz-adv-x="1126" arabic-form="isolated" 
d="M551 991l92 -90l-72 -73l72 -72l-92 -90l-90 90l71 72l-71 71zM307 0q-207 0 -207 203q0 134 92 289q20 34 35 34q25 0 25 -26q0 -4 -29 -95q-29 -90 -29 -145q0 -129 148 -129h592q2 21 2 45q0 189 -129 387l75 117q9 12 17 12t16 -16q131 -262 131 -422
q0 -132 -53 -254h-686z" />
    <glyph glyph-name="uniFB5F" unicode="&#x67a;" horiz-adv-x="1137" arabic-form="final" 
d="M1024 56q0 -11 -29 -56h-688q-207 0 -207 203q0 134 92 289q20 34 35 34q25 0 25 -26q0 -4 -29 -95q-29 -90 -29 -145q0 -129 148 -129h592q2 21 2 45q0 189 -129 387l75 117q9 12 17 12t16 -16q131 -262 131 -422q0 -65 -12 -123h113v-131h-11q-54 0 -86 30
q-21 19 -26 26zM551 991l92 -90l-72 -73l72 -72l-92 -90l-90 90l71 72l-71 71z" />
    <glyph glyph-name="uniFB60" unicode="&#x67a;" horiz-adv-x="442" arabic-form="initial" 
d="M0 0v131h250q2 21 2 45q0 189 -129 387l76 117q8 12 16 12t16 -16q131 -262 131 -422q0 -132 -53 -254h-309zM179 1197l92 -90l-72 -73l72 -72l-92 -90l-90 90l71 72l-71 71z" />
    <glyph glyph-name="uniFB61" unicode="&#x67a;" horiz-adv-x="453" arabic-form="medial" 
d="M340 56q0 -11 -29 -56h-311v131h250q2 21 2 45q0 189 -129 387l76 117q8 12 16 12t16 -16q131 -262 131 -422q0 -65 -12 -123h113v-131h-10q-55 0 -87 30q-21 19 -26 26zM179 1197l92 -90l-72 -73l72 -72l-92 -90l-90 90l71 72l-71 71z" />
    <glyph glyph-name="uniFB62" unicode="&#x67f;" horiz-adv-x="1126" arabic-form="isolated" 
d="M307 0q-207 0 -207 203q0 134 92 289q20 34 35 34q25 0 25 -26q0 -4 -29 -95q-29 -90 -29 -145q0 -129 148 -129h592q2 21 2 45q0 189 -129 387l75 117q9 12 17 12t16 -16q131 -262 131 -422q0 -132 -53 -254h-686zM628 843l85 -87l-92 -90l-71 71l-72 -71l-90 90l84 86
l-84 84l90 92l72 -72l73 72l90 -92zM616 841l-66 66l-66 -65l66 -66z" />
    <glyph glyph-name="uniFB63" unicode="&#x67f;" horiz-adv-x="1137" arabic-form="final" 
d="M1024 56q0 -11 -29 -56h-688q-207 0 -207 203q0 134 92 289q20 34 35 34q25 0 25 -26q0 -4 -29 -95q-29 -90 -29 -145q0 -129 148 -129h592q2 21 2 45q0 189 -129 387l75 117q9 12 17 12t16 -16q131 -262 131 -422q0 -65 -12 -123h113v-131h-11q-54 0 -86 30
q-21 19 -26 26zM628 843l85 -87l-92 -90l-71 71l-72 -71l-90 90l84 86l-84 84l90 92l72 -72l73 72l90 -92zM616 841l-66 66l-66 -65l66 -66z" />
    <glyph glyph-name="uniFB64" unicode="&#x67f;" horiz-adv-x="442" arabic-form="initial" 
d="M0 0v131h250q2 21 2 45q0 189 -129 387l76 117q8 12 16 12t16 -16q131 -262 131 -422q0 -132 -53 -254h-309zM258 1051l85 -87l-92 -90l-71 71l-72 -71l-90 90l84 86l-84 84l90 92l72 -72l73 72l90 -92zM246 1049l-66 66l-66 -65l66 -66z" />
    <glyph glyph-name="uniFB65" unicode="&#x67f;" horiz-adv-x="453" arabic-form="medial" 
d="M340 56q0 -11 -29 -56h-311v131h250q2 21 2 45q0 189 -129 387l76 117q8 12 16 12t16 -16q131 -262 131 -422q0 -65 -12 -123h113v-131h-10q-55 0 -87 30q-21 19 -26 26zM258 1051l85 -87l-92 -90l-71 71l-72 -71l-90 90l84 86l-84 84l90 92l72 -72l73 72l90 -92z
M246 1049l-66 66l-66 -65l66 -66z" />
    <glyph glyph-name="uniFB66" unicode="&#x679;" horiz-adv-x="1126" arabic-form="isolated" 
d="M635 842q2 8 2 26q0 93 -60 93q-20 0 -115 -119h173zM409 770q-20 0 -71 39l-35 29q0 4 6 4h92v84q0 37 -22 57l71 102q4 9 8 9t4 -7v-169q90 100 136 100q50 0 82 -53q26 -45 26 -99q0 -41 -18 -96h-279zM307 0q-207 0 -207 203q0 134 92 289q20 34 35 34q25 0 25 -26
q0 -4 -29 -95q-29 -90 -29 -145q0 -129 148 -129h592q2 21 2 45q0 189 -129 387l75 117q9 12 17 12t16 -16q131 -262 131 -422q0 -132 -53 -254h-686z" />
    <glyph glyph-name="uniFB67" unicode="&#x679;" horiz-adv-x="1137" arabic-form="final" 
d="M635 842q2 8 2 26q0 93 -59 93q-21 0 -115 -119h172zM410 770q-20 0 -72 39l-35 29q0 4 6 4h92v84q0 37 -22 57l72 102q4 9 8 9t4 -7v-169q89 100 135 100q51 0 82 -53q27 -45 27 -99q0 -41 -19 -96h-278zM1024 56q0 -11 -29 -56h-688q-207 0 -207 203q0 134 93 289
q20 34 34 34q25 0 25 -26q0 -4 -29 -95q-28 -90 -28 -145q0 -129 147 -129h592q2 21 2 45q0 189 -129 387l76 117q8 12 16 12t16 -16q132 -262 132 -422q0 -65 -13 -123h113v-131h-10q-55 0 -87 30q-21 19 -26 26z" />
    <glyph glyph-name="uniFB68" unicode="&#x679;" horiz-adv-x="486" arabic-form="initial" 
d="M0 0v131h276q3 21 3 45q0 189 -129 387l75 117q8 12 17 12q8 0 16 -16q131 -262 131 -422q0 -132 -53 -254h-336zM334 952q2 9 2 27q0 92 -60 92q-20 0 -114 -119h172zM109 881q-20 0 -72 39l-35 28q0 4 6 4h92v84q0 38 -22 58l72 102q4 8 8 8t4 -6v-170q89 100 135 100
q51 0 82 -52q27 -45 27 -99q0 -41 -19 -96h-278z" />
    <glyph glyph-name="uniFB69" unicode="&#x679;" horiz-adv-x="477" arabic-form="medial" 
d="M334 952q2 9 2 27q0 92 -60 92q-20 0 -114 -119h172zM109 881q-20 0 -72 39l-35 28q0 4 6 4h92v84q0 38 -22 58l72 102q4 8 8 8t4 -6v-170q89 100 135 100q51 0 82 -52q27 -45 27 -99q0 -41 -19 -96h-278zM365 55q-1 -12 -29 -55h-336v131h274q2 21 2 45q0 189 -129 387
l76 117q8 12 17 12q8 0 16 -16q131 -262 131 -422q0 -65 -12 -123h112v-131h-10q-55 0 -86 30q-20 18 -26 25z" />
    <glyph glyph-name="uniFB6A" unicode="&#x6a4;" horiz-adv-x="1313" arabic-form="isolated" 
d="M888 936l-71 -72l-90 90l90 93l71 -72l72 72l90 -93l-90 -90zM815 1151l73 72l72 -72l-72 -74zM307 0q-207 0 -207 203q0 134 92 289q20 34 35 34q25 0 25 -26q0 -4 -29 -95q-29 -90 -29 -145q0 -129 148 -129h479q-166 147 -166 305q0 105 69 178q72 76 181 76
q153 0 247 -143q81 -124 81 -283q0 -121 -58 -264h-868zM1091 258q0 107 -55 197q-62 102 -156 102q-51 0 -85 -41q-31 -38 -31 -88q0 -108 94 -201q96 -94 217 -96q16 69 16 127z" />
    <glyph glyph-name="uniFB6B" unicode="&#x6a4;" horiz-adv-x="1266" arabic-form="final" 
d="M956 0q-66 0 -106 43q-52 -43 -109 -43h-434q-207 0 -207 203q0 134 92 289q20 34 35 34q25 0 25 -26q0 -4 -29 -95q-29 -90 -29 -145q0 -129 148 -129h368q-55 89 -55 184q0 130 88 247q96 128 227 128q101 0 161 -80q52 -71 52 -170q0 -180 -104 -309h197v-131h-320z
M1050 356q0 70 -29 126q-39 71 -110 71q-68 0 -105 -62q-32 -52 -32 -126q0 -167 145 -234q131 59 131 225zM927 934l-73 -72l-90 92l90 90l73 -71l72 71l90 -90l-90 -92zM927 1077l-73 72l73 74l72 -74z" />
    <glyph glyph-name="uniFB6C" unicode="&#x6a4;" horiz-adv-x="746" arabic-form="initial" 
d="M393 864l-71 72l-72 -72l-90 90l90 93l72 -72l71 72l92 -93zM322 1077l-72 74l72 72l73 -72zM0 0v131h256q-168 148 -168 305q0 105 69 178q72 76 181 76q153 0 247 -143q81 -124 81 -283q0 -121 -58 -264h-608zM524 258q0 107 -54 197q-63 102 -157 102q-51 0 -85 -41
q-31 -38 -31 -88q0 -108 94 -201q96 -94 217 -96q16 69 16 127z" />
    <glyph glyph-name="uniFB6D" unicode="&#x6a4;" horiz-adv-x="695" arabic-form="medial" 
d="M356 934l-71 -72l-92 92l92 90l71 -71l72 71l90 -90l-90 -92zM356 1077l-73 72l73 74l72 -74zM385 0q-66 0 -106 43q-52 -43 -109 -43h-170v131h139q-55 89 -55 184q0 130 88 247q96 128 227 128q101 0 161 -80q52 -71 52 -170q0 -180 -104 -309h197v-131h-320zM479 356
q0 70 -29 126q-39 71 -110 71q-68 0 -106 -62q-31 -52 -31 -126q0 -167 145 -234q131 59 131 225z" />
    <glyph glyph-name="uniFB6E" unicode="&#x6a6;" horiz-adv-x="1313" arabic-form="isolated" 
d="M307 0q-207 0 -207 203q0 134 92 289q20 34 35 34q25 0 25 -26q0 -4 -29 -95q-29 -90 -29 -145q0 -129 148 -129h479q-166 147 -166 305q0 105 69 178q72 76 181 76q153 0 247 -143q81 -124 81 -283q0 -121 -58 -264h-868zM1091 258q0 107 -55 197q-62 102 -156 102
q-51 0 -85 -41q-31 -38 -31 -88q0 -108 94 -201q96 -94 217 -96q16 69 16 127zM968 1050l85 -87l-92 -90l-71 71l-72 -71l-90 90l84 86l-84 84l90 92l72 -72l73 72l90 -92zM956 1048l-66 66l-66 -65l66 -66z" />
    <glyph glyph-name="uniFB6F" unicode="&#x6a6;" horiz-adv-x="1266" arabic-form="final" 
d="M956 0q-66 0 -106 43q-52 -43 -109 -43h-434q-207 0 -207 203q0 134 92 289q20 34 35 34q25 0 25 -26q0 -4 -29 -95q-29 -90 -29 -145q0 -129 148 -129h368q-55 89 -55 184q0 130 88 247q96 128 227 128q101 0 161 -80q52 -71 52 -170q0 -180 -104 -309h197v-131h-320z
M1050 356q0 70 -29 126q-39 71 -110 71q-68 0 -105 -62q-32 -52 -32 -126q0 -167 145 -234q131 59 131 225zM1008 1050l85 -87l-92 -90l-71 71l-72 -71l-90 90l84 86l-84 84l90 92l72 -72l73 72l90 -92zM996 1048l-66 66l-66 -65l66 -66z" />
    <glyph glyph-name="uniFB70" unicode="&#x6a6;" horiz-adv-x="746" arabic-form="initial" 
d="M0 0v131h256q-168 148 -168 305q0 105 69 178q72 76 181 76q153 0 247 -143q81 -124 81 -283q0 -121 -58 -264h-608zM524 258q0 107 -54 197q-63 102 -157 102q-51 0 -85 -41q-31 -38 -31 -88q0 -108 94 -201q96 -94 217 -96q16 69 16 127zM398 1050l85 -87l-92 -90
l-71 71l-72 -71l-90 90l84 86l-84 84l90 92l72 -72l73 72l90 -92zM386 1048l-66 66l-66 -65l66 -66z" />
    <glyph glyph-name="uniFB71" unicode="&#x6a6;" horiz-adv-x="695" arabic-form="medial" 
d="M385 0q-66 0 -106 43q-52 -43 -109 -43h-170v131h139q-55 89 -55 184q0 130 88 247q96 128 227 128q101 0 161 -80q52 -71 52 -170q0 -180 -104 -309h197v-131h-320zM479 356q0 70 -29 126q-39 71 -110 71q-68 0 -106 -62q-31 -52 -31 -126q0 -167 145 -234
q131 59 131 225zM438 1050l85 -87l-92 -90l-71 71l-72 -71l-90 90l84 86l-84 84l90 92l72 -72l73 72l90 -92zM426 1048l-66 66l-66 -65l66 -66z" />
    <glyph glyph-name="uniFB72" unicode="&#x684;" horiz-adv-x="1057" arabic-form="isolated" 
d="M238 -314q-138 125 -138 343q0 288 268 557q-73 47 -118 47q-34 0 -77 -23q-43 -22 -48 -22q-15 0 -15 16q0 10 25 39q87 105 168 105q30 0 140 -36t226 -36q139 0 216 21q71 20 80 22h2q7 0 10 -14q0 -7 -11 -27l-43 -80q-26 -47 -90 -47l-57 2q-189 0 -301 -68
q-250 -151 -250 -393q0 -170 132 -280q121 -101 280 -101q62 0 143 7l90 8q23 0 23 -15q0 -11 -17 -18q-262 -99 -298 -118l-11 -5q-201 2 -329 116zM576 212l92 -90l-72 -73l72 -72l-92 -90l-90 90l71 72l-71 71z" />
    <glyph glyph-name="uniFB73" unicode="&#x684;" horiz-adv-x="1053" arabic-form="final" 
d="M238 -314q-138 125 -138 343q0 288 268 557q-73 47 -118 47q-34 0 -77 -23q-43 -22 -48 -22q-15 0 -15 16q0 10 25 39q87 105 168 105q30 0 140 -36t226 -36q139 0 216 21q71 20 71 22q21 0 21 -14q0 -7 -11 -27l-43 -80q-26 -47 -90 -47l-61 2l76 -326q14 -63 33 -79
q21 -17 91 -17h91v-131h-82q-114 0 -157 23q-55 30 -77 127l-92 397q-91 -10 -180 -62q-250 -151 -250 -393q0 -170 132 -280q121 -101 280 -101q62 0 143 7l90 8q23 0 23 -15q0 -11 -17 -18q-262 -99 -298 -118l-11 -5q-202 2 -329 116zM517 212l92 -90l-72 -73l72 -72
l-92 -90l-90 90l71 72l-71 71z" />
    <glyph glyph-name="uniFB74" unicode="&#x684;" horiz-adv-x="1014" arabic-form="initial" 
d="M874 37q-24 -37 -79 -37h-795v131h608q-36 34 -254 328q-75 100 -116 100q-30 0 -76 -32q-47 -31 -60 -31q-16 0 -16 16q0 14 18 33q135 145 189 145q62 0 137 -102q205 -286 276 -364q86 -93 156 -93q13 0 31 9q18 10 27 10q14 0 14 -15q0 -13 -10 -26zM356 -199l92 -90
l-72 -73l72 -72l-92 -90l-90 90l71 72l-71 71z" />
    <glyph glyph-name="uniFB75" unicode="&#x684;" horiz-adv-x="1002" arabic-form="medial" 
d="M1001 0q-49 0 -79 30q-27 26 -27 29q-2 0 -26 -29q-25 -30 -60 -30h-809v131h608q-36 34 -254 328q-75 100 -116 100q-30 0 -76 -32q-47 -31 -60 -31q-16 0 -16 16q0 14 18 33q135 145 189 145q62 0 137 -102q205 -286 276 -364q86 -93 156 -93h150v-131h-11zM359 -199
l92 -90l-72 -73l72 -72l-92 -90l-90 90l71 72l-71 71z" />
    <glyph glyph-name="uniFB76" unicode="&#x683;" horiz-adv-x="1057" arabic-form="isolated" 
d="M663 6l-71 72l-72 -72l-92 90l92 90l72 -71l71 71l93 -90zM239 -314q-139 125 -139 343q0 288 269 557q-73 47 -119 47q-34 0 -77 -23q-43 -22 -48 -22q-15 0 -15 16q0 10 25 39q88 105 168 105q31 0 140 -36q110 -36 227 -36q138 0 215 21q71 20 71 22q21 0 21 -14
q0 -7 -10 -27l-43 -80q-26 -47 -91 -47l-57 2q-188 0 -301 -68q-250 -151 -250 -393q0 -170 132 -280q121 -101 280 -101q62 0 143 7l90 8q23 0 23 -15q0 -11 -17 -18q-246 -93 -292 -115l-19 -8q-200 3 -326 116z" />
    <glyph glyph-name="uniFB77" unicode="&#x683;" horiz-adv-x="1053" arabic-form="final" 
d="M575 2l-62 63l-63 -63l-80 80l82 79l61 -61l62 61l82 -79zM239 -314q-139 125 -139 343q0 288 269 557q-73 47 -119 47q-34 0 -77 -23q-43 -22 -48 -22q-15 0 -15 16q0 10 25 39q88 105 168 105q31 0 140 -36q110 -36 227 -36q138 0 215 21q71 20 71 22q21 0 21 -14
q0 -7 -10 -27l-43 -80q-26 -47 -91 -47l-61 2l76 -326q14 -63 33 -79q21 -17 92 -17h90v-131h-82q-114 0 -157 23q-55 30 -77 127l-92 397q-91 -10 -180 -62q-250 -151 -250 -393q0 -170 132 -280q121 -101 280 -101q62 0 143 7l90 8q23 0 23 -15q0 -11 -17 -18
q-260 -98 -297 -118l-14 -5q-200 3 -326 116z" />
    <glyph glyph-name="uniFB78" unicode="&#x683;" horiz-adv-x="1014" arabic-form="initial" 
d="M874 37q-24 -37 -79 -37h-795v131h608q-36 34 -254 328q-75 100 -116 100q-30 0 -76 -32q-47 -31 -60 -31q-16 0 -16 16q0 14 18 33q135 145 189 145q62 0 137 -102q205 -286 276 -364q86 -93 156 -93q13 0 31 9q18 10 27 10q14 0 14 -15q0 -13 -10 -26zM358 -309
l-71 -72l-92 92l92 90l71 -71l72 71l92 -90l-92 -92z" />
    <glyph glyph-name="uniFB79" unicode="&#x683;" horiz-adv-x="1002" arabic-form="medial" 
d="M358 -309l-71 -72l-92 92l92 90l71 -71l72 71l92 -90l-92 -92zM1001 0q-49 0 -79 30q-27 26 -27 29q-2 0 -26 -29q-25 -30 -60 -30h-809v131h608q-36 34 -254 328q-75 100 -116 100q-30 0 -76 -32q-47 -31 -60 -31q-16 0 -16 16q0 14 18 33q135 145 189 145
q62 0 137 -102q205 -286 276 -364q86 -93 156 -93h150v-131h-11z" />
    <glyph glyph-name="uniFB7A" unicode="&#x686;" horiz-adv-x="1057" arabic-form="isolated" 
d="M663 86l-71 72l-72 -72l-92 90l92 90l72 -71l71 71l93 -90zM592 -92l-74 74l74 73l73 -73zM239 -314q-139 125 -139 343q0 288 269 557q-73 47 -119 47q-34 0 -77 -23q-43 -22 -48 -22q-15 0 -15 16q0 10 25 39q88 105 168 105q31 0 140 -36q110 -36 227 -36
q138 0 215 21q71 20 71 22q21 0 21 -14q0 -7 -10 -27l-43 -80q-26 -47 -91 -47l-57 2q-188 0 -301 -68q-250 -151 -250 -393q0 -170 132 -280q121 -101 280 -101q62 0 143 7l90 8q23 0 23 -15q0 -11 -17 -18q-246 -93 -292 -115l-19 -8q-200 3 -326 116z" />
    <glyph glyph-name="uniFB7B" unicode="&#x686;" horiz-adv-x="1053" arabic-form="final" 
d="M555 72l-62 63l-63 -63l-80 80l82 79l61 -61l62 61l82 -79zM493 -94l-63 63l63 66l64 -66zM239 -314q-139 125 -139 343q0 288 269 557q-73 47 -119 47q-34 0 -77 -23q-43 -22 -48 -22q-15 0 -15 16q0 10 25 39q88 105 168 105q31 0 140 -36q110 -36 227 -36
q138 0 215 21q71 20 71 22q21 0 21 -14q0 -7 -10 -27l-43 -80q-26 -47 -91 -47l-61 2l76 -326q14 -63 33 -79q21 -17 92 -17h90v-131h-82q-114 0 -157 23q-55 30 -77 127l-92 397q-91 -10 -180 -62q-250 -151 -250 -393q0 -170 132 -280q121 -101 280 -101q62 0 143 7l90 8
q23 0 23 -15q0 -11 -17 -18q-260 -98 -297 -118l-14 -5q-200 3 -326 116z" />
    <glyph glyph-name="uniFB7C" unicode="&#x686;" horiz-adv-x="1014" arabic-form="initial" 
d="M874 37q-24 -37 -79 -37h-795v131h608q-36 34 -254 328q-75 100 -116 100q-30 0 -76 -32q-47 -31 -60 -31q-16 0 -16 16q0 14 18 33q135 145 189 145q62 0 137 -102q205 -286 276 -364q86 -93 156 -93q13 0 31 9q18 10 27 10q14 0 14 -15q0 -13 -10 -26zM358 -309
l-71 -72l-92 92l92 90l71 -71l72 71l92 -90l-92 -92zM358 -557l-73 74l73 71l74 -71z" />
    <glyph glyph-name="uniFB7D" unicode="&#x686;" horiz-adv-x="1002" arabic-form="medial" 
d="M358 -309l-71 -72l-92 92l92 90l71 -71l72 71l92 -90l-92 -92zM358 -557l-73 74l73 71l74 -71zM1001 0q-49 0 -79 30q-27 26 -27 29q-2 0 -26 -29q-25 -30 -60 -30h-809v131h608q-36 34 -254 328q-75 100 -116 100q-30 0 -76 -32q-47 -31 -60 -31q-16 0 -16 16
q0 14 18 33q135 145 189 145q62 0 137 -102q205 -286 276 -364q86 -93 156 -93h150v-131h-11z" />
    <glyph glyph-name="uniFB7E" unicode="&#x687;" horiz-adv-x="1057" arabic-form="isolated" 
d="M239 -314q-139 125 -139 343q0 288 269 557q-73 47 -119 47q-34 0 -77 -23q-43 -22 -48 -22q-15 0 -15 16q0 10 25 39q88 105 168 105q31 0 140 -36q110 -36 227 -36q138 0 215 21q71 20 71 22q21 0 21 -14q0 -7 -10 -27l-43 -80q-26 -47 -91 -47l-57 2q-188 0 -301 -68
q-250 -151 -250 -393q0 -170 132 -280q121 -101 280 -101q62 0 143 7l90 8q23 0 23 -15q0 -11 -17 -18q-246 -93 -292 -115l-19 -8q-200 3 -326 116zM671 96l85 -87l-92 -90l-71 71l-72 -71l-90 90l84 86l-84 84l90 92l72 -72l73 72l90 -92zM659 94l-66 66l-66 -65l66 -66z
" />
    <glyph glyph-name="uniFB7F" unicode="&#x687;" horiz-adv-x="1053" arabic-form="final" 
d="M239 -314q-139 125 -139 343q0 288 269 557q-73 47 -119 47q-34 0 -77 -23q-43 -22 -48 -22q-15 0 -15 16q0 10 25 39q88 105 168 105q31 0 140 -36q110 -36 227 -36q138 0 215 21q71 20 71 22q21 0 21 -14q0 -7 -10 -27l-43 -80q-26 -47 -91 -47l-61 2l76 -326
q14 -63 33 -79q21 -17 92 -17h90v-131h-82q-114 0 -157 23q-55 30 -77 127l-92 397q-91 -10 -180 -62q-250 -151 -250 -393q0 -170 132 -280q121 -101 280 -101q62 0 143 7l90 8q23 0 23 -15q0 -11 -17 -18q-260 -98 -297 -118l-14 -5q-200 3 -326 116zM591 76l85 -87
l-92 -90l-71 71l-72 -71l-90 90l84 86l-84 84l90 92l72 -72l73 72l90 -92zM579 74l-66 66l-66 -65l66 -66z" />
    <glyph glyph-name="uniFB80" unicode="&#x687;" horiz-adv-x="1014" arabic-form="initial" 
d="M874 37q-24 -37 -79 -37h-795v131h608q-36 34 -254 328q-75 100 -116 100q-30 0 -76 -32q-47 -31 -60 -31q-16 0 -16 16q0 14 18 33q135 145 189 145q62 0 137 -102q205 -286 276 -364q86 -93 156 -93q13 0 31 9q18 10 27 10q14 0 14 -15q0 -13 -10 -26zM435 -375l85 -87
l-92 -90l-71 71l-72 -71l-90 90l84 86l-84 84l90 92l72 -72l73 72l90 -92zM423 -377l-66 66l-66 -65l66 -66z" />
    <glyph glyph-name="uniFB81" unicode="&#x687;" horiz-adv-x="1002" arabic-form="medial" 
d="M1001 0q-49 0 -79 30q-27 26 -27 29q-2 0 -26 -29q-25 -30 -60 -30h-809v131h608q-36 34 -254 328q-75 100 -116 100q-30 0 -76 -32q-47 -31 -60 -31q-16 0 -16 16q0 14 18 33q135 145 189 145q62 0 137 -102q205 -286 276 -364q86 -93 156 -93h150v-131h-11zM435 -375
l85 -87l-92 -90l-71 71l-72 -71l-90 90l84 86l-84 84l90 92l72 -72l73 72l90 -92zM423 -377l-66 66l-66 -65l66 -66z" />
    <glyph glyph-name="uniFB82" unicode="&#x68d;" horiz-adv-x="749" arabic-form="isolated" 
d="M178 0q-52 0 -68 29q-10 19 -10 73q0 82 27 82q7 0 14 -14q18 -39 74 -39h342q4 37 4 57q0 184 -166 375l76 117q8 12 14 12q10 0 16 -12q168 -226 168 -434q0 -143 -65 -246h-426zM386 -309l-71 -72l-93 92l93 90l71 -71l72 71l90 -90l-90 -92z" />
    <glyph glyph-name="uniFB83" unicode="&#x68d;" horiz-adv-x="733" arabic-form="final" 
d="M639 57q0 -9 -35 -57h-426q-52 0 -68 29q-10 19 -10 73q0 82 27 82q7 0 14 -14q18 -39 74 -39h340q-32 60 -61 214q-27 142 -77 216l74 115q7 14 17 14q9 0 22 -28q44 -101 94 -396q25 -135 111 -135h8v-131h-8q-41 0 -70 30zM386 -309l-71 -72l-93 92l93 90l71 -71
l72 71l90 -90l-90 -92z" />
    <glyph glyph-name="uniFB84" unicode="&#x68c;" horiz-adv-x="749" arabic-form="isolated" 
d="M178 0q-52 0 -68 29q-10 19 -10 73q0 82 27 82q7 0 14 -14q18 -39 74 -39h342q4 37 4 57q0 184 -166 375l76 117q8 12 14 12q10 0 16 -12q168 -226 168 -434q0 -143 -65 -246h-426zM485 830l-71 71l-72 -71l-90 90l90 92l72 -72l73 72l90 -92z" />
    <glyph glyph-name="uniFB85" unicode="&#x68c;" horiz-adv-x="733" arabic-form="final" 
d="M639 57q0 -9 -35 -57h-426q-52 0 -68 29q-10 19 -10 73q0 82 27 82q7 0 14 -14q18 -39 74 -39h340q-32 60 -61 214q-27 142 -77 216l74 115q7 14 17 14q9 0 22 -28q44 -101 94 -396q25 -135 111 -135h8v-131h-8q-41 0 -70 30zM485 830l-71 71l-72 -71l-90 90l90 92
l72 -72l73 72l90 -92z" />
    <glyph glyph-name="uniFB86" unicode="&#x68e;" horiz-adv-x="749" arabic-form="isolated" 
d="M178 0q-52 0 -68 29q-10 19 -10 73q0 82 27 82q7 0 14 -14q18 -39 74 -39h342q4 37 4 57q0 184 -166 375l76 117q8 12 14 12q10 0 16 -12q168 -226 168 -434q0 -143 -65 -246h-426zM414 1041l-72 73l72 74l73 -74zM485 830l-71 71l-72 -71l-90 90l90 92l72 -72l73 72
l90 -92z" />
    <glyph glyph-name="uniFB87" unicode="&#x68e;" horiz-adv-x="733" arabic-form="final" 
d="M639 57q0 -9 -35 -57h-426q-52 0 -68 29q-10 19 -10 73q0 82 27 82q7 0 14 -14q18 -39 74 -39h340q-32 60 -61 214q-27 142 -77 216l74 115q7 14 17 14q9 0 22 -28q44 -101 94 -396q25 -135 111 -135h8v-131h-8q-41 0 -70 30zM414 1041l-72 73l72 74l73 -74zM485 830
l-71 71l-72 -71l-90 90l90 92l72 -72l73 72l90 -92z" />
    <glyph glyph-name="uniFB88" unicode="&#x688;" horiz-adv-x="749" arabic-form="isolated" 
d="M581 952q2 9 2 27q0 92 -59 92q-21 0 -115 -119h172zM356 881q-20 0 -72 39l-34 28q0 4 6 4h92v84q0 38 -23 58l72 102q4 8 8 8t4 -6v-170q89 100 135 100q51 0 82 -52q27 -45 27 -99q0 -41 -18 -96h-279zM178 0q-52 0 -68 29q-10 19 -10 73q0 82 27 82q7 0 14 -14
q18 -39 74 -39h342q4 37 4 57q0 184 -166 375l76 117q8 12 14 12q10 0 16 -12q168 -226 168 -434q0 -143 -65 -246h-426z" />
    <glyph glyph-name="uniFB89" unicode="&#x688;" horiz-adv-x="733" arabic-form="final" 
d="M581 952q2 9 2 27q0 92 -59 92q-21 0 -115 -119h172zM356 881q-20 0 -72 39l-34 28q0 4 6 4h92v84q0 38 -23 58l72 102q4 8 8 8t4 -6v-170q89 100 135 100q51 0 82 -52q27 -45 27 -99q0 -41 -18 -96h-279zM639 57q0 -9 -35 -57h-426q-52 0 -68 29q-10 19 -10 73
q0 82 27 82q7 0 14 -14q18 -39 74 -39h340q-32 60 -61 214q-27 142 -77 216l74 115q7 14 17 14q9 0 22 -28q44 -101 94 -396q25 -135 111 -135h8v-131h-8q-41 0 -70 30z" />
    <glyph glyph-name="uniFB8A" unicode="&#x698;" horiz-adv-x="737" arabic-form="isolated" 
d="M380 924l-72 -72l-92 92l92 90l72 -71l72 71l90 -90l-90 -92zM306 1139l74 71l72 -71l-72 -74zM436 684q2 8 12 8q2 0 18 -24q191 -381 191 -576t-109 -381q-81 -141 -164 -141l-127 10q-124 10 -198 10q-29 0 -29 15q0 16 31 16q194 5 334 117q149 119 149 295
q0 150 -84 297q-84 146 -84 155q0 22 10 50z" />
    <glyph glyph-name="uniFB8B" unicode="&#x698;" horiz-adv-x="798" arabic-form="final" 
d="M800 0q-84 0 -143 68q-7 -179 -109 -357q-81 -141 -164 -141l-127 10q-124 10 -198 10q-29 0 -29 15q0 16 31 16q194 5 334 117q149 119 149 295q0 150 -84 297q-84 146 -84 155q0 22 10 50l50 149q2 8 12 8q4 0 24 -61q164 -500 328 -500h8v-131h-8zM380 924l-72 -72
l-92 92l92 90l72 -71l72 71l90 -90l-90 -92zM306 1139l74 71l72 -71l-72 -74z" />
    <glyph glyph-name="uniFB8C" unicode="&#x691;" horiz-adv-x="737" arabic-form="isolated" 
d="M467 952q2 9 2 27q0 92 -59 92q-21 0 -115 -119h172zM242 881q-20 0 -72 39l-34 28q0 4 6 4h92v84q0 38 -23 58l72 102q4 8 8 8t4 -6v-170q89 100 135 100q51 0 82 -52q27 -45 27 -99q0 -41 -18 -96h-279zM436 684q2 8 12 8q2 0 18 -24q191 -381 191 -576t-109 -381
q-81 -141 -164 -141l-127 10q-124 10 -198 10q-29 0 -29 15q0 16 31 16q194 5 334 117q149 119 149 295q0 150 -84 297q-84 146 -84 155q0 22 10 50z" />
    <glyph glyph-name="uniFB8D" unicode="&#x691;" horiz-adv-x="798" arabic-form="final" 
d="M800 0q-84 0 -143 68q-7 -179 -109 -357q-81 -141 -164 -141l-127 10q-124 10 -198 10q-29 0 -29 15q0 16 31 16q194 5 334 117q149 119 149 295q0 150 -84 297q-84 146 -84 155q0 22 10 50l50 149q2 8 12 8q4 0 24 -61q164 -500 328 -500h8v-131h-8zM467 952q2 9 2 27
q0 92 -59 92q-21 0 -115 -119h172zM242 881q-20 0 -72 39l-34 28q0 4 6 4h92v84q0 38 -23 58l72 102q4 8 8 8t4 -6v-170q89 100 135 100q51 0 82 -52q27 -45 27 -99q0 -41 -18 -96h-279z" />
    <glyph glyph-name="uniFB8E" unicode="&#x6a9;" horiz-adv-x="1342" arabic-form="isolated" 
d="M307 0q-207 0 -207 203q0 134 92 289q20 34 35 34q25 0 25 -26q0 -4 -29 -95q-29 -90 -29 -145q0 -129 148 -129h757q5 21 5 37q0 128 -482 410l-10 -19q-6 -12 -18 -12q-18 0 -51 24q-35 25 -35 43q0 12 6 21l53 108q31 62 133 88l481 125q9 0 9 -8q0 -2 -9 -18l-55 -90
l-469 -123q198 -113 334 -215q231 -175 231 -301q0 -71 -55 -201h-860z" />
    <glyph glyph-name="uniFB8F" unicode="&#x6a9;" horiz-adv-x="1315" arabic-form="final" 
d="M1196 56q0 -11 -29 -56h-860q-207 0 -207 203q0 134 92 289q20 34 35 34q25 0 25 -26q0 -4 -29 -95q-29 -90 -29 -145q0 -129 148 -129h757q5 21 5 37q0 128 -482 410l-10 -19q-6 -12 -18 -12q-18 0 -51 24q-35 25 -35 43q0 12 6 21l53 108q31 62 133 88l481 125
q9 0 9 -8q0 -2 -9 -18l-55 -90l-469 -123q198 -113 334 -215q231 -175 231 -301q0 -29 -10 -70h113v-131h-17q-54 0 -86 30q-21 19 -26 26z" />
    <glyph glyph-name="uniFB90" unicode="&#x6a9;" horiz-adv-x="923" arabic-form="initial" 
d="M0 0v131h680q4 21 4 37q0 128 -481 410l-10 -19q-7 -12 -19 -12q-17 0 -51 24q-35 25 -35 43q0 12 6 21l53 108q31 62 134 88l481 125q8 0 8 -8q0 -2 -8 -18l-55 -90l-469 -123q198 -113 333 -215q232 -175 232 -301q0 -71 -55 -201h-748z" />
    <glyph glyph-name="uniFB91" unicode="&#x6a9;" horiz-adv-x="895" arabic-form="medial" 
d="M777 55q-2 -12 -29 -55h-748v131h680q4 21 4 37q0 128 -481 410l-10 -19q-7 -12 -19 -12q-17 0 -51 24q-35 25 -35 43q0 12 6 21l53 108q31 62 134 88l481 125q8 0 8 -8q0 -2 -8 -18l-55 -90l-469 -123q198 -113 333 -215q232 -175 232 -301q0 -29 -10 -70h112v-131h-16
q-55 0 -87 30q-19 18 -25 25z" />
    <glyph glyph-name="uniFB92" unicode="&#x6af;" horiz-adv-x="1367" arabic-form="isolated" 
d="M692 999l31 64q14 31 61 43l463 119l-31 -64q-16 -34 -61 -43zM307 0q-207 0 -207 203q0 134 92 289q20 34 35 34q25 0 25 -26q0 -4 -29 -95q-29 -90 -29 -145q0 -129 148 -129h757q5 21 5 37q0 128 -482 410l-10 -19q-6 -12 -18 -12q-18 0 -51 24q-35 25 -35 43
q0 12 6 21l53 108q31 62 133 88l481 125q9 0 9 -8q0 -2 -9 -18l-55 -90l-469 -123q198 -113 334 -215q231 -175 231 -301q0 -71 -55 -201h-860z" />
    <glyph glyph-name="uniFB93" unicode="&#x6af;" horiz-adv-x="1315" arabic-form="final" 
d="M694 999l31 64q14 31 61 43l463 119l-31 -64q-16 -34 -61 -43zM1196 56q0 -11 -29 -56h-860q-207 0 -207 203q0 134 92 289q20 34 35 34q25 0 25 -26q0 -4 -29 -95q-29 -90 -29 -145q0 -129 148 -129h757q5 21 5 37q0 128 -482 410l-10 -19q-6 -12 -18 -12q-18 0 -51 24
q-35 25 -35 43q0 12 6 21l53 108q31 62 133 88l481 125q9 0 9 -8q0 -2 -9 -18l-55 -90l-469 -123q198 -113 334 -215q231 -175 231 -301q0 -29 -10 -70h113v-131h-17q-54 0 -86 30q-21 19 -26 26z" />
    <glyph glyph-name="uniFB94" unicode="&#x6af;" horiz-adv-x="949" arabic-form="initial" 
d="M0 0v131h680q4 21 4 37q0 128 -481 410l-10 -19q-7 -12 -19 -12q-17 0 -51 24q-35 25 -35 43q0 12 6 21l53 108q31 62 134 88l481 125q8 0 8 -8q0 -2 -8 -18l-55 -90l-469 -123q198 -113 333 -215q232 -175 232 -301q0 -71 -55 -201h-748zM274 999l31 64q14 31 62 43
l462 119l-30 -64q-16 -34 -62 -43z" />
    <glyph glyph-name="uniFB95" unicode="&#x6af;" horiz-adv-x="895" arabic-form="medial" 
d="M274 999l31 64q14 31 62 43l462 119l-30 -64q-16 -34 -62 -43zM777 55q-2 -12 -29 -55h-748v131h680q4 21 4 37q0 128 -481 410l-10 -19q-7 -12 -19 -12q-17 0 -51 24q-35 25 -35 43q0 12 6 21l53 108q31 62 134 88l481 125q8 0 8 -8q0 -2 -8 -18l-55 -90l-469 -123
q198 -113 333 -215q232 -175 232 -301q0 -29 -10 -70h112v-131h-16q-55 0 -87 30q-19 18 -25 25z" />
    <glyph glyph-name="uniFB96" unicode="&#x6b3;" horiz-adv-x="1367" arabic-form="isolated" 
d="M692 999l31 64q14 31 61 43l463 119l-31 -64q-16 -34 -61 -43zM307 0q-207 0 -207 203q0 134 92 289q20 34 35 34q25 0 25 -26q0 -4 -29 -95q-29 -90 -29 -145q0 -129 148 -129h757q5 21 5 37q0 128 -482 410l-10 -19q-6 -12 -18 -12q-18 0 -51 24q-35 25 -35 43
q0 12 6 21l53 108q31 62 133 88l481 125q9 0 9 -8q0 -2 -9 -18l-55 -90l-469 -123q198 -113 334 -215q231 -175 231 -301q0 -71 -55 -201h-860zM660 -199l92 -90l-72 -73l72 -72l-92 -90l-90 90l71 72l-71 71z" />
    <glyph glyph-name="uniFB97" unicode="&#x6b3;" horiz-adv-x="1315" arabic-form="final" 
d="M694 999l31 64q14 31 61 43l463 119l-31 -64q-16 -34 -61 -43zM1196 56q0 -11 -29 -56h-860q-207 0 -207 203q0 134 92 289q20 34 35 34q25 0 25 -26q0 -4 -29 -95q-29 -90 -29 -145q0 -129 148 -129h757q5 21 5 37q0 128 -482 410l-10 -19q-6 -12 -18 -12q-18 0 -51 24
q-35 25 -35 43q0 12 6 21l53 108q31 62 133 88l481 125q9 0 9 -8q0 -2 -9 -18l-55 -90l-469 -123q198 -113 334 -215q231 -175 231 -301q0 -29 -10 -70h113v-131h-17q-54 0 -86 30q-21 19 -26 26zM660 -199l92 -90l-72 -73l72 -72l-92 -90l-90 90l71 72l-71 71z" />
    <glyph glyph-name="uniFB98" unicode="&#x6b3;" horiz-adv-x="949" arabic-form="initial" 
d="M0 0v131h680q4 21 4 37q0 128 -481 410l-10 -19q-7 -12 -19 -12q-17 0 -51 24q-35 25 -35 43q0 12 6 21l53 108q31 62 134 88l481 125q8 0 8 -8q0 -2 -8 -18l-55 -90l-469 -123q198 -113 333 -215q232 -175 232 -301q0 -71 -55 -201h-748zM274 999l31 64q14 31 62 43
l462 119l-30 -64q-16 -34 -62 -43zM400 -199l92 -90l-72 -73l72 -72l-92 -90l-90 90l71 72l-71 71z" />
    <glyph glyph-name="uniFB99" unicode="&#x6b3;" horiz-adv-x="895" arabic-form="medial" 
d="M274 999l31 64q14 31 62 43l462 119l-30 -64q-16 -34 -62 -43zM777 55q-2 -12 -29 -55h-748v131h680q4 21 4 37q0 128 -481 410l-10 -19q-7 -12 -19 -12q-17 0 -51 24q-35 25 -35 43q0 12 6 21l53 108q31 62 134 88l481 125q8 0 8 -8q0 -2 -8 -18l-55 -90l-469 -123
q198 -113 333 -215q232 -175 232 -301q0 -29 -10 -70h112v-131h-16q-55 0 -87 30q-19 18 -25 25zM360 -199l92 -90l-72 -73l72 -72l-92 -90l-90 90l71 72l-71 71z" />
    <glyph glyph-name="uniFB9A" unicode="&#x6b1;" horiz-adv-x="1367" arabic-form="isolated" 
d="M692 999l31 64q14 31 61 43l463 119l-31 -64q-16 -34 -61 -43zM307 0q-207 0 -207 203q0 134 92 289q20 34 35 34q25 0 25 -26q0 -4 -29 -95q-29 -90 -29 -145q0 -129 148 -129h757q5 21 5 37q0 128 -482 410l-10 -19q-6 -12 -18 -12q-18 0 -51 24q-35 25 -35 43
q0 12 6 21l53 108q31 62 133 88l481 125q9 0 9 -8q0 -2 -9 -18l-55 -90l-469 -123q198 -113 334 -215q231 -175 231 -301q0 -71 -55 -201h-860zM869 1303l-73 -72l-90 92l90 90l73 -71l72 71l90 -90l-90 -92z" />
    <glyph glyph-name="uniFB9B" unicode="&#x6b1;" horiz-adv-x="1315" arabic-form="final" 
d="M694 999l31 64q14 31 61 43l463 119l-31 -64q-16 -34 -61 -43zM1196 56q0 -11 -29 -56h-860q-207 0 -207 203q0 134 92 289q20 34 35 34q25 0 25 -26q0 -4 -29 -95q-29 -90 -29 -145q0 -129 148 -129h757q5 21 5 37q0 128 -482 410l-10 -19q-6 -12 -18 -12q-18 0 -51 24
q-35 25 -35 43q0 12 6 21l53 108q31 62 133 88l481 125q9 0 9 -8q0 -2 -9 -18l-55 -90l-469 -123q198 -113 334 -215q231 -175 231 -301q0 -29 -10 -70h113v-131h-17q-54 0 -86 30q-21 19 -26 26zM869 1303l-73 -72l-90 92l90 90l73 -71l72 71l90 -90l-90 -92z" />
    <glyph glyph-name="uniFB9C" unicode="&#x6b1;" horiz-adv-x="949" arabic-form="initial" 
d="M0 0v131h680q4 21 4 37q0 128 -481 410l-10 -19q-7 -12 -19 -12q-17 0 -51 24q-35 25 -35 43q0 12 6 21l53 108q31 62 134 88l481 125q8 0 8 -8q0 -2 -8 -18l-55 -90l-469 -123q198 -113 333 -215q232 -175 232 -301q0 -71 -55 -201h-748zM274 999l31 64q14 31 62 43
l462 119l-30 -64q-16 -34 -62 -43zM438 1303l-73 -72l-91 92l91 90l73 -71l72 71l90 -90l-90 -92z" />
    <glyph glyph-name="uniFB9D" unicode="&#x6b1;" horiz-adv-x="895" arabic-form="medial" 
d="M274 999l31 64q14 31 62 43l462 119l-30 -64q-16 -34 -62 -43zM777 55q-2 -12 -29 -55h-748v131h680q4 21 4 37q0 128 -481 410l-10 -19q-7 -12 -19 -12q-17 0 -51 24q-35 25 -35 43q0 12 6 21l53 108q31 62 134 88l481 125q8 0 8 -8q0 -2 -8 -18l-55 -90l-469 -123
q198 -113 333 -215q232 -175 232 -301q0 -29 -10 -70h112v-131h-16q-55 0 -87 30q-19 18 -25 25zM438 1303l-74 -72l-90 92l90 90l74 -71l72 71l90 -90l-90 -92z" />
    <glyph glyph-name="uniFB9E" unicode="&#x6ba;" horiz-adv-x="1165" arabic-form="isolated" 
d="M866 682q7 10 14 10q4 0 13 -12q192 -352 192 -610q0 -225 -154 -370q-137 -130 -313 -130q-234 0 -386 196q-132 170 -132 369q0 42 31 111l69 162q9 16 19 16q12 0 12 -14l-2 -73q-2 -64 -2 -142q0 -228 118 -365q111 -129 283 -129q158 0 256 114q90 105 90 248
q0 216 -184 500z" />
    <glyph glyph-name="uniFB9F" unicode="&#x6ba;" horiz-adv-x="1186" arabic-form="final" 
d="M1183 0q-34 0 -63 20l-29 21q-8 0 -8 -14q-16 -207 -165 -339q-134 -118 -300 -118q-234 0 -386 196q-132 170 -132 369q0 42 31 111l69 162q9 16 19 16q12 0 12 -14l-2 -73q-2 -64 -2 -142q0 -228 118 -365q111 -129 283 -129q158 0 256 114q90 105 90 248
q0 216 -184 500l76 119q7 10 14 10q4 0 13 -12q173 -322 190 -549h113v-131h-13z" />
    <glyph glyph-name="uniFBA0" unicode="&#x6bb;" horiz-adv-x="1165" arabic-form="isolated" 
d="M866 682q7 10 14 10q4 0 13 -12q192 -352 192 -610q0 -225 -154 -370q-137 -130 -313 -130q-234 0 -386 196q-132 170 -132 369q0 42 31 111l69 162q9 16 19 16q12 0 12 -14l-2 -73q-2 -64 -2 -142q0 -228 118 -365q111 -129 283 -129q158 0 256 114q90 105 90 248
q0 216 -184 500zM602 711q2 9 2 27q0 92 -60 92q-20 0 -114 -119h172zM377 640q-20 0 -72 39l-35 28q0 4 6 4h92v84q0 38 -22 58l72 102q4 8 8 8t4 -6v-170q89 100 135 100q51 0 82 -52q27 -45 27 -99q0 -41 -19 -96h-278z" />
    <glyph glyph-name="uniFBA1" unicode="&#x6bb;" horiz-adv-x="1186" arabic-form="final" 
d="M1183 0q-34 0 -63 20l-29 21q-8 0 -8 -14q-16 -207 -165 -339q-134 -118 -300 -118q-234 0 -386 196q-132 170 -132 369q0 42 31 111l69 162q9 16 19 16q12 0 12 -14l-2 -73q-2 -64 -2 -142q0 -228 118 -365q111 -129 283 -129q158 0 256 114q90 105 90 248
q0 216 -184 500l76 119q7 10 14 10q4 0 13 -12q173 -322 190 -549h113v-131h-13zM602 711q2 9 2 27q0 92 -60 92q-20 0 -114 -119h172zM377 640q-20 0 -72 39l-35 28q0 4 6 4h92v84q0 38 -22 58l72 102q4 8 8 8t4 -6v-170q89 100 135 100q51 0 82 -52q27 -45 27 -99
q0 -41 -19 -96h-278z" />
    <glyph glyph-name="uniFBA2" unicode="&#x6bb;" horiz-adv-x="486" arabic-form="initial" 
d="M0 0v131h276q3 21 3 45q0 189 -129 387l75 117q8 12 17 12q8 0 16 -16q131 -262 131 -422q0 -132 -53 -254h-336zM334 952q2 9 2 27q0 92 -60 92q-20 0 -114 -119h172zM109 881q-20 0 -72 39l-35 28q0 4 6 4h92v84q0 38 -22 58l72 102q4 8 8 8t4 -6v-170q89 100 135 100
q51 0 82 -52q27 -45 27 -99q0 -41 -19 -96h-278z" />
    <glyph glyph-name="uniFBA3" unicode="&#x6bb;" horiz-adv-x="477" arabic-form="medial" 
d="M334 952q2 9 2 27q0 92 -60 92q-20 0 -114 -119h172zM109 881q-20 0 -72 39l-35 28q0 4 6 4h92v84q0 38 -22 58l72 102q4 8 8 8t4 -6v-170q89 100 135 100q51 0 82 -52q27 -45 27 -99q0 -41 -19 -96h-278zM365 55q-1 -12 -29 -55h-336v131h274q2 21 2 45q0 189 -129 387
l76 117q8 12 17 12q8 0 16 -16q131 -262 131 -422q0 -65 -12 -123h112v-131h-10q-55 0 -86 30q-20 18 -26 25z" />
    <glyph glyph-name="uniFBA4" unicode="&#x6c0;" horiz-adv-x="839" arabic-form="isolated" 
d="M383 561q-158 -195 -158 -285q0 -147 184 -147q92 0 155 38q79 47 79 140q0 102 -131 178zM293 623q-52 34 -52 73q0 36 48 99q45 61 63 61q12 0 12 -12q0 -6 -4 -20q-4 -15 -4 -25q0 -55 63 -99q17 -12 139 -76q201 -105 201 -264q0 -127 -74 -229q-97 -133 -282 -133
q-132 0 -214 56q-89 60 -89 167q0 168 211 387zM362 1253q-12 4 -31 4q-37 0 -63 -21q-25 -21 -25 -48q0 -66 101 -66q51 0 90 27q-5 -54 -28 -76q-22 -19 -93 -37q-57 -13 -96 -46l-35 -29q-6 0 -6 4q0 63 114 120q-100 12 -100 91q0 73 74 122q58 39 108 39q13 0 13 -8
q0 -4 -4 -16z" />
    <glyph glyph-name="uniFBA5" unicode="&#x6c0;" horiz-adv-x="731" arabic-form="final" 
d="M714 0q-101 0 -139 100l-51 -77l-68 -3q-356 0 -356 134q0 96 20 178q14 55 113 121l223 147q-25 66 -51 105q39 45 96 137q82 -163 131 -561q17 -150 97 -150h12v-131h-27zM452 457q-258 -178 -258 -217q0 -93 238 -93q68 0 117 11q-15 55 -32 184q-17 123 -34 180z
M454 1217q-12 4 -30 4q-38 0 -64 -22q-24 -21 -24 -48q0 -66 100 -66q52 0 90 27q-5 -54 -28 -75q-22 -20 -93 -38q-57 -13 -96 -46l-35 -29q-6 0 -6 4q0 63 115 121q-101 12 -101 90q0 73 74 122q59 39 109 39q12 0 12 -8q0 -4 -4 -16z" />
    <glyph glyph-name="uniFBA6" unicode="&#x6c1;" horiz-adv-x="839" arabic-form="isolated" 
d="M383 561q-158 -195 -158 -285q0 -147 184 -147q92 0 155 38q79 47 79 140q0 102 -131 178zM293 623q-52 34 -52 73q0 36 48 99q45 61 63 61q12 0 12 -12q0 -6 -4 -20q-4 -15 -4 -25q0 -55 63 -99q17 -12 139 -76q201 -105 201 -264q0 -127 -74 -229q-97 -133 -282 -133
q-132 0 -214 56q-89 60 -89 167q0 168 211 387z" />
    <glyph glyph-name="uniFBA7" unicode="&#x6c1;" horiz-adv-x="1141" arabic-form="final" 
d="M1132 0q-103 0 -149 68q-33 47 -95 243q-42 135 -65 178q-31 62 -74 62q-82 0 -178 -213q-119 -265 -118 -263q-39 -75 -79 -75q-79 0 -171 114q-103 128 -103 279q0 108 19 191q19 82 42 82q17 0 17 -23l-2 -86q0 -179 58 -285q52 -94 124 -94q27 0 60 75q7 17 32 77
q21 54 37 88q128 272 299 272q69 0 103 -53q31 -50 85 -240q49 -171 71 -211q29 -55 87 -55h19v-131h-19z" />
    <glyph glyph-name="uniFBA8" unicode="&#x6c1;" horiz-adv-x="445" arabic-form="initial" 
d="M180 -354q-76 72 -76 170q0 85 70 184h-174v131h252q2 21 2 45q0 189 -129 387l76 117q8 12 16 12t16 -16q132 -262 132 -422q0 -132 -54 -254h-82q-26 -53 -26 -88q0 -72 65 -137l60 -62l-107 -108z" />
    <glyph glyph-name="uniFBA9" unicode="&#x6c1;" horiz-adv-x="776" arabic-form="medial" 
d="M248 209l4 2q11 0 11 -12q-1 0 -20 -64q-19 -68 -19 -145q0 -106 37 -194q39 -91 89 -91q32 0 68 102q119 324 336 324h32v-131h-24q-110 0 -173 -65q-57 -58 -127 -226q-58 -137 -117 -137q-72 0 -138 126q-67 126 -67 265q0 56 9 111q-50 -74 -133 -74h-16v131h54
q80 0 139 40q26 17 41 27q10 7 14 11z" />
    <glyph glyph-name="uniFBAA" unicode="&#x6be;" horiz-adv-x="1223" arabic-form="isolated" 
d="M549 159q99 0 150 82q37 61 37 137q0 101 -92 101q-68 0 -126 -70q-60 -74 -60 -173q0 -36 4 -77h87zM1002 178q0 112 -155 211q-25 -184 -92 -260q110 -33 188 -94q59 83 59 143zM468 39q-39 5 -68 31q-11 8 -21 19q-20 22 -30 47.5t-11 79.5q7 175 191 345
q-20 15 -20 27q0 8 4 16l70 111q9 18 24 18q12 0 21 -28q4 -13 36 -29q459 -216 459 -467q0 -77 -133 -303q-19 -33 -39 -33q-19 0 -53 25q-126 81 -275 98q-7 -9 -15 -17q-95 -106 -169 -106q-11 0 -21 2l-122 37q-119 35 -191 51q-25 5 -25 17v3q2 12 19 12q6 0 14 -2
q59 -11 116 -11q125 0 235 55z" />
    <glyph glyph-name="uniFBAB" unicode="&#x6be;" horiz-adv-x="1207" arabic-form="final" 
d="M549 159q99 0 150 82q37 61 37 137q0 101 -92 101q-68 0 -126 -70q-60 -74 -60 -173q0 -36 4 -77h87zM1002 178q0 112 -155 211q-25 -184 -92 -260q110 -33 188 -94q59 83 59 143zM1040 -5q-8 -17 -16 -31v1q-16 -28 -34 -59q-19 -33 -39 -33q-19 0 -53 25
q-126 81 -275 98q-7 -9 -15 -17q-95 -106 -169 -106q-11 0 -21 2l-122 37q-119 35 -191 51q-25 5 -25 17v3q2 12 19 12q6 0 14 -2q59 -11 116 -11q125 0 235 55l4 2q-39 5 -68 31q-11 8 -21 19q-20 22 -30 47.5t-11 79.5q7 175 191 345q-20 15 -20 27q0 8 4 16l70 111
q9 18 24 18q12 0 21 -28q4 -13 36 -29q459 -216 459 -467q0 -29 -18 -78h112v-131h-37q-50 0 -78 32q-25 29 -25 31q-1 0 -2 -1q-15 -31 -35 -67z" />
    <glyph glyph-name="uniFBAC" unicode="&#x6be;" horiz-adv-x="962" arabic-form="initial" 
d="M279 131q104 0 157 90q39 66 39 148q0 110 -96 110q-72 0 -132 -76q-63 -80 -63 -188q0 -39 4 -84h91zM741 178q0 112 -155 211q-25 -184 -92 -260q110 -33 188 -94q59 83 59 143zM0 0v131h90l-6 82q0 178 184 348q-20 15 -20 27q0 8 4 16l70 111q9 18 24 18q12 0 21 -28
q4 -13 36 -29q459 -216 459 -467q0 -77 -133 -303q-19 -33 -39 -33q-19 0 -53 25q-159 102 -354 102h-283z" />
    <glyph glyph-name="uniFBAD" unicode="&#x6be;" horiz-adv-x="957" arabic-form="medial" 
d="M279 131q104 0 157 90q39 66 39 148q0 110 -96 110q-72 0 -132 -76q-63 -80 -63 -188q0 -39 4 -84h91zM741 178q0 112 -155 211q-25 -184 -92 -260q110 -33 188 -94q59 83 59 143zM930 0q-50 0 -78 32q-25 29 -25 31q-5 0 -16 -26q-76 -164 -121 -164q-19 0 -53 25
q-159 102 -354 102h-283v131h90l-6 82q0 178 184 348q-20 15 -20 27q0 8 4 16l70 111q9 18 24 18q12 0 21 -28q4 -13 36 -29q461 -217 461 -467q0 -41 -12 -78h115v-131h-37z" />
    <glyph glyph-name="uniFBAE" unicode="&#x6d2;" horiz-adv-x="1550" arabic-form="isolated" 
d="M204 0q-104 0 -104 61q0 17 2 27l29 172q25 148 148 198q186 75 231 120q34 34 116 226q63 150 142 150q91 0 193 -151q89 -131 89 -187q0 -16 -20 -16q-6 0 -84 101q-78 102 -146 102q-77 0 -117 -123q-53 -163 -102 -211q-39 -39 -209 -111q-127 -53 -147 -155l-14 -72
h1181q27 0 45 6q17 6 21 6q12 0 12 -12q0 -3 -43 -70q-41 -61 -108 -61h-1115z" />
    <glyph glyph-name="uniFBAF" unicode="&#x6d2;" horiz-adv-x="1233" arabic-form="final" 
d="M192 -414q-92 0 -92 62q0 16 2 22l37 226q41 235 323 235h781v-131h-783q-113 0 -162 -29q-54 -32 -67 -118l-22 -136h852q26 0 44 7q18 6 22 6q12 0 12 -13q0 -3 -43 -69q-41 -62 -109 -62h-795z" />
    <glyph glyph-name="uniFBB0" unicode="&#x6d3;" horiz-adv-x="1550" arabic-form="isolated" 
d="M204 0q-104 0 -104 61q0 17 2 27l29 172q25 148 148 198q186 75 231 120q34 34 116 226q63 150 142 150q91 0 193 -151q89 -131 89 -187q0 -16 -20 -16q-6 0 -84 101q-78 102 -146 102q-77 0 -117 -123q-53 -163 -102 -211q-39 -39 -209 -111q-127 -53 -147 -155l-14 -72
h1181q27 0 45 6q17 6 21 6q12 0 12 -12q0 -3 -43 -70q-41 -61 -108 -61h-1115zM438 1135q-12 4 -31 4q-37 0 -63 -22q-25 -21 -25 -48q0 -65 100 -65q52 0 91 26q-5 -54 -29 -75q-22 -20 -92 -37q-57 -14 -96 -47l-35 -29q-6 0 -6 4q0 63 114 121q-100 12 -100 90
q0 73 73 122q59 40 109 40q12 0 12 -9q0 -4 -4 -16z" />
    <glyph glyph-name="uniFBB1" unicode="&#x6d3;" horiz-adv-x="1233" arabic-form="final" 
d="M192 -414q-92 0 -92 62q0 16 2 22l37 226q41 235 323 235h781v-131h-783q-113 0 -162 -29q-54 -32 -67 -118l-22 -136h852q26 0 44 7q18 6 22 6q12 0 12 -13q0 -3 -43 -69q-41 -62 -109 -62h-795zM460 580q-12 4 -30 4q-37 0 -64 -22q-24 -21 -24 -48q0 -65 100 -65
q52 0 90 26q-4 -54 -28 -75q-22 -20 -93 -38q-56 -13 -96 -46l-35 -29q-6 0 -6 4q0 63 115 121q-101 12 -101 90q0 73 74 122q59 40 109 40q12 0 12 -9q0 -4 -4 -16z" />
    <glyph glyph-name="uniFBD3" unicode="&#x6ad;" horiz-adv-x="1142" arabic-form="isolated" 
d="M307 0q-207 0 -207 203q0 134 92 289q20 34 35 34q25 0 25 -26q0 -4 -29 -95q-29 -90 -29 -145q0 -129 148 -129h571v434q0 115 -59 174l159 203q9 12 19 12t10 -24v-727q0 -102 -49 -203h-686zM604 711q-12 4 -31 4q-37 0 -63 -22q-25 -21 -25 -48q0 -65 100 -65
q52 0 90 26q-4 -54 -28 -75q-22 -20 -92 -37q-57 -14 -97 -47l-34 -29q-7 0 -7 4q0 63 115 121q-100 12 -100 90q0 73 73 122q59 40 109 40q12 0 12 -9q0 -4 -4 -16zM869 1103l-73 -72l-90 92l90 90l73 -71l72 71l90 -90l-90 -92zM869 1246l-73 72l73 74l72 -74z" />
    <glyph glyph-name="uniFBD4" unicode="&#x6ad;" horiz-adv-x="1143" arabic-form="final" 
d="M604 711q-12 4 -31 4q-37 0 -63 -22q-25 -21 -25 -48q0 -65 100 -65q52 0 90 26q-4 -54 -28 -75q-22 -20 -92 -37q-57 -14 -97 -47l-34 -29q-7 0 -7 4q0 63 115 121q-100 12 -100 90q0 73 73 122q59 40 109 40q12 0 12 -9q0 -4 -4 -16zM1024 56q-2 -11 -31 -56h-686
q-207 0 -207 203q0 134 92 289q20 34 35 34q25 0 25 -26q0 -4 -29 -95q-29 -90 -29 -145q0 -129 148 -129h571v684l100 127q9 12 19 12t10 -24v-727q0 -35 -6 -72h117v-131h-17q-54 0 -86 30q-21 19 -26 26zM884 1100l-73 -72l-90 92l90 90l73 -71l72 71l90 -90l-90 -92z
M884 1243l-73 72l73 74l72 -74z" />
    <glyph glyph-name="uniFBD5" unicode="&#x6ad;" horiz-adv-x="923" arabic-form="initial" 
d="M0 0v131h680q4 21 4 37q0 128 -481 410l-10 -19q-7 -12 -19 -12q-17 0 -51 24q-35 25 -35 43q0 12 6 21l53 108q31 62 134 88l481 125q8 0 8 -8q0 -2 -8 -18l-55 -90l-469 -123q198 -113 333 -215q232 -175 232 -301q0 -71 -55 -201h-748zM377 1024l-73 -72l-90 92l90 90
l73 -71l72 71l90 -90l-90 -92zM377 1167l-73 72l73 74l72 -74z" />
    <glyph glyph-name="uniFBD6" unicode="&#x6ad;" horiz-adv-x="895" arabic-form="medial" 
d="M777 55q-2 -12 -29 -55h-748v131h680q4 21 4 37q0 128 -481 410l-10 -19q-7 -12 -19 -12q-17 0 -51 24q-35 25 -35 43q0 12 6 21l53 108q31 62 134 88l481 125q8 0 8 -8q0 -2 -8 -18l-55 -90l-469 -123q198 -113 333 -215q232 -175 232 -301q0 -29 -10 -70h112v-131h-16
q-55 0 -87 30q-19 18 -25 25zM377 1024l-73 -72l-90 92l90 90l73 -71l72 71l90 -90l-90 -92zM377 1167l-73 72l73 74l72 -74z" />
    <glyph glyph-name="uniFBD7" unicode="&#x6c7;" horiz-adv-x="829" arabic-form="isolated" 
d="M598 131q-11 148 -63 274q-61 150 -142 150q-65 0 -104 -105q-31 -85 -31 -180q0 -90 49 -120q31 -19 110 -19h181zM340 0q-211 0 -211 203q0 139 69 294q86 193 215 193q145 0 236 -191q80 -166 80 -372q0 -192 -76 -346q-62 -124 -91 -159q-43 -52 -106 -52
q-11 0 -130 10t-195 10q-31 0 -31 15q0 13 37 16q426 31 467 379h-264zM556 1096q0 43 -39 43q-18 0 -45 -27q15 -37 68 -59q16 20 16 43zM540 961q-44 -68 -134 -126q-100 -63 -184 -63q-10 0 -10 6q0 7 8 11q174 74 266 209q-59 29 -59 65q0 38 35 88q39 55 80 55
q53 0 53 -71q0 -44 -16 -96q28 -16 28 -25q0 -13 -39 -70z" />
    <glyph glyph-name="uniFBD8" unicode="&#x6c7;" horiz-adv-x="819" arabic-form="final" 
d="M721 0q-15 -108 -68 -219q-62 -124 -91 -159q-43 -52 -106 -52q-11 0 -130 10t-195 10q-31 0 -31 15q0 13 37 16q426 31 467 379h-264q-211 0 -211 203q0 139 69 294q86 193 215 193q144 0 235 -189q79 -164 81 -370h100v-131h-108zM598 131q-11 148 -63 274
q-61 150 -142 150q-65 0 -104 -105q-31 -85 -31 -180q0 -90 49 -120q31 -19 110 -19h181zM556 1096q0 43 -39 43q-18 0 -45 -27q15 -37 68 -59q16 20 16 43zM540 961q-44 -68 -134 -126q-100 -63 -184 -63q-10 0 -10 6q0 7 8 11q174 74 266 209q-59 29 -59 65q0 38 35 88
q39 55 80 55q53 0 53 -71q0 -44 -16 -96q28 -16 28 -25q0 -13 -39 -70z" />
    <glyph glyph-name="uniFBD9" unicode="&#x6c6;" horiz-adv-x="829" arabic-form="isolated" 
d="M598 131q-11 148 -63 274q-61 150 -142 150q-65 0 -104 -105q-31 -85 -31 -180q0 -90 49 -120q31 -19 110 -19h181zM340 0q-211 0 -211 203q0 139 69 294q86 193 215 193q145 0 236 -191q80 -166 80 -372q0 -192 -76 -346q-62 -124 -91 -159q-43 -52 -106 -52
q-11 0 -130 10t-195 10q-31 0 -31 15q0 13 37 16q426 31 467 379h-264zM583 1051q14 0 14 -17q0 -8 -3 -12q-22 -25 -56 -68l-48 -59q-22 -29 -59 -29t-61 29l-46 59q-34 43 -55 68q-3 4 -3 12q0 17 13 17h53q0 -2 98 -105q99 105 101 105h52z" />
    <glyph glyph-name="uniFBDA" unicode="&#x6c6;" horiz-adv-x="819" arabic-form="final" 
d="M721 0q-15 -108 -68 -219q-62 -124 -91 -159q-43 -52 -106 -52q-11 0 -130 10t-195 10q-31 0 -31 15q0 13 37 16q426 31 467 379h-264q-211 0 -211 203q0 139 69 294q86 193 215 193q144 0 235 -189q79 -164 81 -370h100v-131h-108zM598 131q-11 148 -63 274
q-61 150 -142 150q-65 0 -104 -105q-31 -85 -31 -180q0 -90 49 -120q31 -19 110 -19h181zM583 1051q14 0 14 -17q0 -8 -3 -12q-22 -25 -56 -68l-48 -59q-22 -29 -59 -29t-61 29l-46 59q-34 43 -55 68q-3 4 -3 12q0 17 13 17h53q0 -2 98 -105q99 105 101 105h52z" />
    <glyph glyph-name="uniFBDB" unicode="&#x6c8;" horiz-adv-x="829" arabic-form="isolated" 
d="M598 131q-11 148 -63 274q-61 150 -142 150q-65 0 -104 -105q-31 -85 -31 -180q0 -90 49 -120q31 -19 110 -19h181zM340 0q-211 0 -211 203q0 139 69 294q86 193 215 193q145 0 236 -191q80 -166 80 -372q0 -192 -76 -346q-62 -124 -91 -159q-43 -52 -106 -52
q-11 0 -130 10t-195 10q-31 0 -31 15q0 13 37 16q426 31 467 379h-264zM376 1211q3 11 12 11t27 -29q59 -100 59 -180q0 -48 -21 -101q-20 -51 -34 -51q-7 0 -7 6l6 26q5 23 5 48q0 97 -74 211z" />
    <glyph glyph-name="uniFBDC" unicode="&#x6c8;" horiz-adv-x="819" arabic-form="final" 
d="M721 0q-15 -108 -68 -219q-62 -124 -91 -159q-43 -52 -106 -52q-11 0 -130 10t-195 10q-31 0 -31 15q0 13 37 16q426 31 467 379h-264q-211 0 -211 203q0 139 69 294q86 193 215 193q144 0 235 -189q79 -164 81 -370h100v-131h-108zM598 131q-11 148 -63 274
q-61 150 -142 150q-65 0 -104 -105q-31 -85 -31 -180q0 -90 49 -120q31 -19 110 -19h181zM376 1211q3 11 12 11t27 -29q59 -100 59 -180q0 -48 -21 -101q-20 -51 -34 -51q-7 0 -7 6l6 26q5 23 5 48q0 97 -74 211z" />
    <glyph glyph-name="uniFBDD" unicode="&#x677;" horiz-adv-x="866" arabic-form="isolated" 
d="M598 131q-11 148 -63 274q-61 150 -142 150q-65 0 -104 -105q-31 -85 -31 -180q0 -90 49 -120q31 -19 110 -19h181zM340 0q-211 0 -211 203q0 139 69 294q86 193 215 193q145 0 236 -191q80 -166 80 -372q0 -192 -76 -346q-62 -124 -91 -159q-43 -52 -106 -52
q-11 0 -130 10t-195 10q-31 0 -31 15q0 13 37 16q426 31 467 379h-264zM754 1122q-12 4 -31 4q-37 0 -63 -21q-25 -21 -25 -48q0 -66 100 -66q52 0 91 27q-5 -54 -29 -76q-22 -20 -92 -37q-57 -13 -97 -46l-34 -30q-7 0 -7 5q0 63 115 120q-100 12 -100 90q0 74 73 123
q59 39 109 39q12 0 12 -8q0 -4 -4 -16zM446 1096q0 43 -39 43q-18 0 -45 -27q15 -37 68 -59q16 20 16 43zM430 961q-44 -68 -134 -126q-100 -63 -184 -63q-10 0 -10 6q0 7 8 11q174 74 266 209q-59 29 -59 65q0 38 35 88q39 55 80 55q53 0 53 -71q0 -44 -16 -96
q28 -16 28 -25q0 -13 -39 -70z" />
    <glyph glyph-name="uniFBDE" unicode="&#x6cb;" horiz-adv-x="829" arabic-form="isolated" 
d="M598 131q-11 148 -63 274q-61 150 -142 150q-65 0 -104 -105q-31 -85 -31 -180q0 -90 49 -120q31 -19 110 -19h181zM340 0q-211 0 -211 203q0 139 69 294q86 193 215 193q145 0 236 -191q80 -166 80 -372q0 -192 -76 -346q-62 -124 -91 -159q-43 -52 -106 -52
q-11 0 -130 10t-195 10q-31 0 -31 15q0 13 37 16q426 31 467 379h-264zM502 872l-72 72l-71 -72l-93 91l93 92l71 -72l72 72l92 -92zM430 1087l-74 72l74 72l74 -72z" />
    <glyph glyph-name="uniFBDF" unicode="&#x6cb;" horiz-adv-x="819" arabic-form="final" 
d="M721 0q-15 -108 -68 -219q-62 -124 -91 -159q-43 -52 -106 -52q-11 0 -130 10t-195 10q-31 0 -31 15q0 13 37 16q426 31 467 379h-264q-211 0 -211 203q0 139 69 294q86 193 215 193q144 0 235 -189q79 -164 81 -370h100v-131h-108zM598 131q-11 148 -63 274
q-61 150 -142 150q-65 0 -104 -105q-31 -85 -31 -180q0 -90 49 -120q31 -19 110 -19h181zM502 872l-72 72l-71 -72l-93 91l93 92l71 -72l72 72l92 -92zM430 1087l-74 72l74 72l74 -72z" />
    <glyph glyph-name="uniFBE0" unicode="&#x6c5;" horiz-adv-x="829" arabic-form="isolated" 
d="M598 131q-11 148 -63 274q-61 150 -142 150q-65 0 -104 -105q-31 -85 -31 -180q0 -90 49 -120q31 -19 110 -19h181zM578 -113q19 52 26 113h-264q-211 0 -211 203q0 139 69 294q86 193 215 193q145 0 236 -191q80 -166 80 -372q0 -192 -76 -346q-62 -124 -91 -159
q-43 -52 -106 -52q-11 0 -130 10t-195 10q-31 0 -31 15q0 13 37 16q272 20 387 169h-349l27 97h376z" />
    <glyph glyph-name="uniFBE1" unicode="&#x6c5;" horiz-adv-x="819" arabic-form="final" 
d="M598 131q-11 148 -63 274q-61 150 -142 150q-65 0 -104 -105q-31 -85 -31 -180q0 -90 49 -120q31 -19 110 -19h181zM578 -113q19 52 26 113h-264q-211 0 -211 203q0 139 69 294q86 193 215 193q144 0 235 -189q79 -164 81 -370h100v-131h-108q-15 -108 -68 -219
q-62 -124 -91 -159q-43 -52 -106 -52q-11 0 -130 10t-195 10q-31 0 -31 15q0 13 37 16q272 20 387 169h-349l27 97h376z" />
    <glyph glyph-name="uniFBE2" unicode="&#x6c9;" horiz-adv-x="829" arabic-form="isolated" 
d="M598 131q-11 148 -63 274q-61 150 -142 150q-65 0 -104 -105q-31 -85 -31 -180q0 -90 49 -120q31 -19 110 -19h181zM340 0q-211 0 -211 203q0 139 69 294q86 193 215 193q145 0 236 -191q80 -166 80 -372q0 -192 -76 -346q-62 -124 -91 -159q-43 -52 -106 -52
q-11 0 -130 10t-195 10q-31 0 -31 15q0 13 37 16q426 31 467 379h-264zM531 866q-2 0 -101 105q-98 -103 -98 -105h-53q-13 0 -13 17q0 8 3 12q21 25 55 68l46 59q24 29 61 29t59 -29l48 -59q34 -43 56 -68q3 -4 3 -12q0 -17 -14 -17h-52z" />
    <glyph glyph-name="uniFBE3" unicode="&#x6c9;" horiz-adv-x="819" arabic-form="final" 
d="M721 0q-15 -108 -68 -219q-62 -124 -91 -159q-43 -52 -106 -52q-11 0 -130 10t-195 10q-31 0 -31 15q0 13 37 16q426 31 467 379h-264q-211 0 -211 203q0 139 69 294q86 193 215 193q144 0 235 -189q79 -164 81 -370h100v-131h-108zM598 131q-11 148 -63 274
q-61 150 -142 150q-65 0 -104 -105q-31 -85 -31 -180q0 -90 49 -120q31 -19 110 -19h181zM531 866q-2 0 -101 105q-98 -103 -98 -105h-53q-13 0 -13 17q0 8 3 12q21 25 55 68l46 59q24 29 61 29t59 -29l48 -59q34 -43 56 -68q3 -4 3 -12q0 -17 -14 -17h-52z" />
    <glyph glyph-name="uniFBE4" unicode="&#x6d0;" horiz-adv-x="1163" arabic-form="isolated" 
d="M702 0q-211 0 -211 203q0 139 69 293q87 194 220 194q98 0 177 -99q63 -78 63 -116q0 -12 -17 -12q-5 0 -67 46q-63 46 -117 46q-88 0 -155 -117q-60 -105 -60 -207q0 -61 29 -83q23 -17 81 -17h238q131 0 131 -117q0 -151 -129 -290q-142 -154 -336 -154
q-235 0 -386 194q-132 169 -132 367q0 46 31 115l67 153q13 25 21 25q12 0 12 -16l-4 -191q0 -258 125 -396q109 -120 276 -120q138 0 238 96q86 82 86 158q0 45 -84 45h-166zM617 -601l92 -90l-72 -73l72 -72l-92 -90l-90 90l71 72l-71 71z" />
    <glyph glyph-name="uniFBE5" unicode="&#x6d0;" horiz-adv-x="1116" arabic-form="final" 
d="M1081 0q-9 -150 -135 -283q-140 -147 -328 -147q-235 0 -386 194q-132 169 -132 367q0 46 31 115l67 153q13 25 21 25q12 0 12 -16l-4 -191q0 -258 125 -396q109 -120 276 -120q138 0 238 96q86 82 86 158q0 45 -84 45h-168q-91 0 -146 44q-55 45 -55 120q0 26 15 26
q10 0 16 -16q15 -43 84 -43h512v-131h-45zM617 -601l92 -90l-72 -73l72 -72l-92 -90l-90 90l71 72l-71 71z" />
    <glyph glyph-name="uniFBE6" unicode="&#x6d0;" horiz-adv-x="442" arabic-form="initial" 
d="M0 0v131h250q2 21 2 45q0 189 -129 387l76 117q8 12 16 12t16 -16q131 -262 131 -422q0 -132 -53 -254h-309zM180 -199l92 -90l-72 -73l72 -72l-92 -90l-90 90l71 72l-71 71z" />
    <glyph glyph-name="uniFBE7" unicode="&#x6d0;" horiz-adv-x="453" arabic-form="medial" 
d="M340 56q0 -11 -29 -56h-311v131h250q2 21 2 45q0 189 -129 387l76 117q8 12 16 12t16 -16q131 -262 131 -422q0 -65 -12 -123h113v-131h-10q-55 0 -87 30q-21 19 -26 26zM180 -199l92 -90l-72 -73l72 -72l-92 -90l-90 90l71 72l-71 71z" />
    <glyph glyph-name="uniFBE8" unicode="&#x649;" horiz-adv-x="442" arabic-form="initial" 
d="M0 0v131h250q2 21 2 45q0 189 -129 387l76 117q8 12 16 12t16 -16q131 -262 131 -422q0 -132 -53 -254h-309z" />
    <glyph glyph-name="uniFBE9" unicode="&#x649;" horiz-adv-x="453" arabic-form="medial" 
d="M340 56q0 -11 -29 -56h-311v131h250q2 21 2 45q0 189 -129 387l76 117q8 12 16 12t16 -16q131 -262 131 -422q0 -65 -12 -123h113v-131h-10q-55 0 -87 30q-21 19 -26 26z" />
    <glyph glyph-name="uniFBFC" unicode="&#x6cc;" horiz-adv-x="1163" arabic-form="isolated" 
d="M702 0q-211 0 -211 203q0 139 69 293q87 194 220 194q98 0 177 -99q63 -78 63 -116q0 -12 -17 -12q-5 0 -67 46q-63 46 -117 46q-88 0 -155 -117q-60 -105 -60 -207q0 -61 29 -83q23 -17 81 -17h238q131 0 131 -117q0 -151 -129 -290q-142 -154 -336 -154
q-235 0 -386 194q-132 169 -132 367q0 46 31 115l67 153q13 25 21 25q12 0 12 -16l-4 -191q0 -258 125 -396q109 -120 276 -120q138 0 238 96q86 82 86 158q0 45 -84 45h-166z" />
    <glyph glyph-name="uniFBFD" unicode="&#x6cc;" horiz-adv-x="1116" arabic-form="final" 
d="M1081 0q-9 -150 -135 -283q-140 -147 -328 -147q-235 0 -386 194q-132 169 -132 367q0 46 31 115l67 153q13 25 21 25q12 0 12 -16l-4 -191q0 -258 125 -396q109 -120 276 -120q138 0 238 96q86 82 86 158q0 45 -84 45h-168q-91 0 -146 44q-55 45 -55 120q0 26 15 26
q10 0 16 -16q15 -43 84 -43h512v-131h-45z" />
    <glyph glyph-name="uniFBFE" unicode="&#x6cc;" horiz-adv-x="442" arabic-form="initial" 
d="M182 -309l-73 -72l-91 92l91 90l73 -71l72 71l90 -90l-90 -92zM0 0v131h250q2 21 2 45q0 189 -129 387l76 117q8 12 16 12t16 -16q131 -262 131 -422q0 -132 -53 -254h-309z" />
    <glyph glyph-name="uniFBFF" unicode="&#x6cc;" horiz-adv-x="453" arabic-form="medial" 
d="M182 -309l-73 -72l-91 92l91 90l73 -71l72 71l90 -90l-90 -92zM340 56q0 -11 -29 -56h-311v131h250q2 21 2 45q0 189 -129 387l76 117q8 12 16 12t16 -16q131 -262 131 -422q0 -65 -12 -123h113v-131h-10q-55 0 -87 30q-21 19 -26 26z" />
    <glyph glyph-name="uniFC5E" unicode="&#xfc5e;" arabic-form="isolated" 
d="M158 1206q-84 0 -84 104q0 74 32 125q6 8 13 8q6 0 6 -6q0 -4 -8 -34q-8 -31 -8 -52q0 -61 57 -61q53 0 78 72q25 73 30 73q7 0 7 -12l-5 -29q-4 -24 -4 -39q0 -41 39 -41q49 0 73 59q24 58 28 58q8 0 8 -12q0 -54 -37 -119q-41 -72 -90 -72q-30 0 -49 35
q-39 -57 -86 -57zM436 1841q0 43 -39 43q-20 0 -43 -27q11 -39 68 -59q14 28 14 43zM420 1705q-46 -70 -137 -127q-94 -59 -166 -59q-29 0 -29 21q0 7 38 65t38 92q0 41 -45 41q-29 0 -70 -24l-41 -25q-8 0 -8 8q0 4 4 8q90 74 164 74q63 0 63 -63q0 -58 -63 -146
q116 52 199 172q-60 34 -60 64q0 38 35 89q38 56 80 56q53 0 53 -72q0 -47 -18 -96q30 -15 30 -24q0 -10 -41 -70z" />
    <glyph glyph-name="uniFC5F" unicode="&#xfc5f;" arabic-form="isolated" 
d="M123 1664q-84 0 -84 104q0 74 33 125q5 8 12 8q6 0 6 -6q0 -4 -8 -34q-8 -31 -8 -52q0 -61 57 -61q53 0 78 72q25 73 31 73t6 -12l-4 -29q-4 -24 -4 -39q0 -41 38 -41q49 0 73 59q24 58 28 58q8 0 8 -12q0 -54 -37 -119q-41 -72 -90 -72q-30 0 -49 35q-38 -57 -86 -57z
M410 1457q0 -12 -25 -49q-109 -168 -362 -168q-23 0 -23 12q0 8 20 14q213 67 351 185q19 16 30 16q9 0 9 -10zM410 1643q0 -12 -25 -49q-109 -168 -362 -168q-23 0 -23 12q0 8 20 15q213 67 351 184q19 16 30 16q9 0 9 -10z" />
    <glyph glyph-name="uniFC60" unicode="&#xfc60;" arabic-form="isolated" 
d="M119 1313q-84 0 -84 104q0 74 33 125q5 8 12 8q6 0 6 -6q0 -4 -8 -34q-8 -31 -8 -52q0 -61 57 -61q53 0 78 72q25 73 31 73t6 -12l-4 -29q-4 -24 -4 -39q0 -41 38 -41q49 0 73 59q24 58 28 58q8 0 8 -12q0 -54 -37 -119q-41 -72 -90 -72q-30 0 -49 35q-38 -57 -86 -57z
M406 1829q0 -12 -25 -49q-109 -168 -362 -168q-23 0 -23 12q0 8 20 14q213 67 351 185q19 16 30 16q9 0 9 -10z" />
    <glyph glyph-name="uniFC61" unicode="&#xfc61;" arabic-form="isolated" 
d="M109 1238q-84 0 -84 104q0 74 32 125q6 8 13 8q6 0 6 -6q0 -4 -8 -34q-9 -31 -9 -52q0 -61 58 -61q53 0 78 72q25 73 30 73q6 0 6 -12l-4 -29q-4 -24 -4 -39q0 -41 39 -41q49 0 73 59q24 58 27 58q9 0 9 -12q0 -54 -37 -119q-41 -72 -90 -72q-30 0 -49 35
q-39 -57 -86 -57zM344 1866q0 43 -39 43q-18 0 -45 -26q15 -37 68 -60q16 20 16 43zM328 1731q-44 -68 -134 -125q-100 -63 -184 -63q-10 0 -10 6t8 10q174 75 266 209q-59 30 -59 66q0 37 35 88q39 55 80 55q53 0 53 -72q0 -43 -16 -96q28 -16 28 -24q0 -13 -39 -70z" />
    <glyph glyph-name="uniFC62" unicode="&#xfc62;" arabic-form="isolated" 
d="M123 1463q-84 0 -84 105q0 74 33 125q5 8 12 8q6 0 6 -6q0 -4 -8 -35q-8 -30 -8 -51q0 -62 57 -62q53 0 78 73t31 73t6 -12l-4 -29q-4 -24 -4 -39q0 -41 38 -41q49 0 73 58q24 59 28 59q8 0 8 -13q0 -54 -37 -118q-41 -72 -90 -72q-30 0 -49 35q-38 -58 -86 -58z
M410 1443q0 -12 -25 -49q-109 -168 -362 -168q-23 0 -23 12q0 8 20 15q213 66 351 184q19 16 30 16q9 0 9 -10z" />
    <glyph glyph-name="uniFC63" unicode="&#xfc63;" arabic-form="isolated" 
d="M84 1228q-84 0 -84 104q0 74 33 125q5 8 12 8q6 0 6 -6q0 -4 -8 -34q-8 -31 -8 -52q0 -61 57 -61q53 0 78 72q25 73 31 73t6 -12l-4 -29q-4 -24 -4 -39q0 -41 39 -41q48 0 72 59q24 58 28 58q8 0 8 -12q0 -54 -36 -119q-42 -72 -91 -72q-30 0 -49 35q-38 -57 -86 -57z
M156 1891q3 11 12 11t27 -29q59 -100 59 -180q0 -49 -21 -101q-20 -51 -34 -51q-6 0 -6 6l5 26q5 23 5 48q0 97 -74 211z" />
    <glyph glyph-name="uniFDF2" unicode="&#xfdf2;" horiz-adv-x="1795" arabic-form="isolated" 
d="M813 995q-84 0 -84 105q0 74 33 125q5 8 12 8q6 0 6 -6q0 -5 -8 -35t-8 -51q0 -62 57 -62q53 0 78 73q26 73 31 73q6 0 6 -13l-4 -28q-4 -24 -4 -39q0 -41 39 -41q48 0 72 58q24 59 28 59q8 0 8 -13q0 -54 -36 -118q-42 -72 -91 -72q-29 0 -49 35q-38 -58 -86 -58z
M885 1659q3 10 12 10t27 -29q59 -100 59 -180q0 -48 -21 -101q-19 -50 -34 -50q-6 0 -6 6l5 25q5 23 5 49q0 96 -74 210zM453 457q-258 -178 -258 -217q0 -93 237 -93q68 0 117 11q-15 55 -32 184q-17 123 -34 180zM932 56q0 -11 -29 -56h-188q-102 0 -139 100l-52 -77
l-67 -3q-357 0 -357 134q0 96 21 178q13 55 113 121l223 147q-26 66 -51 105q38 45 96 137q81 -163 131 -561q17 -150 96 -150h92v569l101 127q8 13 18 13t10 -25v-612q0 -41 -6 -72h262v320q0 114 -59 174l160 202q8 13 18 13t10 -25v-612q0 -102 -49 -203h-241
q-55 0 -87 30q-21 19 -26 26zM1564 573q0 121 -68 160l170 209q8 12 18 12q11 0 11 -24v-828q0 -60 -21 -94l-60 -75q-53 -64 -71 -95q-6 -12 -18 -12q-11 0 -11 8l5 14q45 114 45 209v516z" />
    <glyph glyph-name="uniFDFA" unicode="&#xfdfa;" horiz-adv-x="1850" arabic-form="isolated" 
d="M1750 858q0 -23 -27 -66q-24 -39 -51 -51q-80 -35 -196 -35q-18 0 -38 1t-42 2q-41 -80 -65 -80q-6 0 -6 11q0 27 37 78q-72 28 -80 45q-70 -45 -85 -45q7 -118 18 -192t24 -102q32 -61 142 -68l3 3q-35 27 -35 73q0 53 53 127q40 54 103 54q45 0 89 -29q41 -29 41 -51
q-45 14 -89 14q-56 0 -109 -23q-43 -24 -43 -45q0 -24 42 -66q38 -40 73 -49q31 2 116 31q41 13 69.5 23t42.5 19l-29 -63q-170 -89 -321 -89q-163 0 -200 123q-50 -109 -95 -109t-113 74q-109 -95 -331 -95q-34 0 -63 3t-55 6q9 -57 16 -87q14 -62 39 -84q73 -74 294 -74
q189 0 277 53q27 62 48 62q7 0 7 -12q0 -25 -20 -75q10 -22 45 -22q44 0 83 20q35 112 54 112q8 0 8 -19q0 -33 -17 -72q48 -23 73 -23q10 0 14 7q2 1 -14 65l29 60q21 -60 21 -87q0 -113 -75 -113q-39 0 -81 31q-25 -43 -99 -43q-80 0 -80 43q-33 -20 -107 -39
q-93 -18 -204 -18q-163 0 -240 46q-100 57 -101 212l-37 -55q-28 -41 -44 -43q21 -35 21 -68q0 -44 -27 -71q-13 -13 -36 -13q-33 0 -102 38q-24 -52 -71 -79q-5 -3 -16 -4.5t-22.5 -3t-22 -2t-14.5 -2.5l-19 -7q-10 0 -10 9q0 7 41 25q54 21 65 32l57 43q-17 27 -17 68
q0 35 31 68q30 36 57 36l10 -3q27 -16 48 -16q30 0 61 38l39 71q-64 19 -92 45q-51 45 -66 143h-3q-50 -84 -134 -84q-28 0 -65 13q-27 11 -27 20q0 42 72 97q34 28 70 45.5t73 29.5l-3 27l33 56q12 -181 35 -237q24 -53 95 -75l-22 221l32 72l29 -301q86 -10 159 -10
q175 0 297 66q24 64 33 64q6 0 6 -14q0 -21 -6 -42q64 -59 99 -59q43 0 70 72l-22 270q-124 -4 -147 125h-4l-12 -43q-5 -16 -11 -28q-19 -44 -46 -50l3 -4q118 8 118 -65q0 -51 -42 -77q-144 -99 -269 -99q-78 0 -124 39t-46 110q0 57 26 112q-47 15 -64 72h-4
q-24 -84 -92 -84q-83 0 -79 129l-45 -41q-12 -12 -66 -12q-82 0 -82 31q0 20 22 52q23 39 42 45l127 63v16l29 61l6 -202q2 -70 54 -70q26 0 50 17.5t28 37.5l-27 191l30 66l47 -271q16 -35 55 -35t39 22q0 39 -26 124l-17 54q-8 27 -16 55l20 56q68 -207 68 -263
q0 -40 -16 -75q-18 -47 -44 -47q-8 0 -14 5q-12 -30 -12 -65q0 -126 153 -126q119 0 239 81q3 2 3 4q0 10 -64 21q-101 14 -103 16q-19 15 23 68q100 41 107 89q2 3 2 23q0 83 -9 179.5t-25 208.5l29 94q20 -177 35.5 -284t28.5 -146q31 -96 121 -110l-8 160l35 76l12 -235
q48 17 101 60l52 -35q31 -20 64 -25q19 20 47 43t63 49q88 64 117 64q31 0 70 -23q43 -25 43 -56zM1735 128q0 -84 -65 -182q-71 -107 -150 -107q-41 0 -99 27q-62 26 -62 38q0 7 8 7q12 0 45 -12q44 -14 59 -14q114 -3 236 179l-12 37q-31 -45 -62 -45q-25 0 -42.5 22.5
t-18.5 47.5q-3 37 26 91q27 51 47 51q19 0 54 -40q36 -42 36 -100zM1672 1198q-64 -24 -196 -86q-161 -79 -161 -103q0 -18 44 -41l-15 -41q-56 17 -56 68q0 49 43 74q213 121 355 171zM841 875q-5 -111 -21 -122l-43 407l37 94zM1053 186l-44 -52l-80 59l-48 -61l-84 61
l49 59l79 -59l46 55zM1703 829q0 12 -31 28q-27 15 -43 15q-35 0 -101 -41l-45 -30q-20 -13 -33 -27q4 -1 33 -1q33 0 66.5 3.5t70.5 9.5q83 16 83 43zM1103 -80q0 -16 -1 -28.5t-1 -21.5q-11 -22 -44 -22q-16 0 -22 7q-26 -26 -52 -26q-12 0 -26.5 14t-21.5 14
q-14 0 -62 -28q-49 -31 -117 -31q-74 0 -74 14q0 11 53 11q29 0 49 0.5t28 3.5q29 5 59 26q47 32 67 32q14 0 32.5 -13.5t21.5 -13.5q26 0 30 29q2 22 19 22q6 0 6 -10q0 -12 -1 -15q3 -9 19 -10q19 0 19 19q0 27 19 27zM1410 1309l-10 -37l-327 -162l7 42zM325 566
q-148 -57 -148 -87q0 -17 53 -17q55 0 99 40zM585 1242q0 -54 -35 -54q-21 0 -35 13q-30 -25 -51 -25q-35 0 -35 45q0 32 6 46l10 10q-2 -62 29 -62q19 0 31 27l-4 38l16 24l6 -51q2 -27 25 -27q20 0 19 26l-5 36l13 18q10 -29 10 -64zM358 942q-16 -8 -33 -14.5t-36 -13.5
q-55 -27 -56 -41q-3 -18 42 -18q48 0 85 22zM401 60q-7 33 -41 58q-34 22 -56 22q-24 0 -24 -20q0 -21 43 -45q41 -25 66 -25q14 0 12 10zM1686 140q-10 54 -43 54q-27 0 -35 -41q8 -31 54 -31q20 0 24 18z" />
    </font>
</defs>
</svg>
