<?xml version="1.0" standalone="no"?>
<!DOCTYPE svg PUBLIC "-//W3C//DTD SVG 1.1//EN" "http://www.w3.org/Graphics/SVG/1.1/DTD/svg11.dtd" >
<svg xmlns="http://www.w3.org/2000/svg" xmlns:xlink="http://www.w3.org/1999/xlink" version="1.1">
<metadata>
Created by FontForge 20170731 at Tue Oct 25 03:29:40 2016
 By Aleksey,,,
(c)  2013 Bahij Virtual Academy. All rights reserved.
</metadata>
<defs>
<font id="BahijTitr-Bold" horiz-adv-x="0" >
  <font-face 
    font-family="Bahij Titr"
    font-weight="700"
    font-stretch="normal"
    units-per-em="2048"
    panose-1="2 4 7 3 6 2 1 2 2 3"
    ascent="1638"
    descent="-410"
    x-height="918"
    cap-height="1257"
    bbox="-301 -1149 5603 2112"
    underline-thickness="50"
    underline-position="-120"
    unicode-range="U+0020-FEFC"
  />
<missing-glyph horiz-adv-x="663" 
d="M0 0v929h663v-929h-663zM107 863l225 -339l226 339h-451zM597 803l-225 -338l225 -339v677zM558 67l-226 337l-225 -337h451zM67 126l225 339l-225 338v-677z" />
    <glyph glyph-name="uniFB01" unicode="fi" horiz-adv-x="1095" 
d="M137 0v685h-121v233h121v36q0 164 128 269q134 111 363 111q176 0 271 -50l-53 -245q-85 40 -203 40q-185 0 -185 -135v-26h541v-918h-323v685h-216v-685h-323z" />
    <glyph glyph-name="uniFB02" unicode="fl" horiz-adv-x="1095" 
d="M137 0v685h-121v233h121v36q0 164 137 274q131 106 358 106q218 0 367 -75v-1259h-323v1079q-22 14 -89 14q-129 0 -129 -142v-33h140v-233h-138v-685h-323z" />
    <glyph glyph-name="uniFC31" unicode="&#xfed3;&#xfef0;" horiz-adv-x="1935" arabic-form="isolated" 
d="M1738 685q0 21 -35.5 48t-69.5 29q-29 0 -52.5 -16t-23.5 -44q0 -31 95 -32h10q76 0 76 15zM1760 1234q6 -2 6 -6q0 -6 -8 -15l-113 -114q-6 -5 -12 -5t-12 5l-117 112q-7 6 -7 12q0 8 9 15l107 109q7 7 14 7t15 -7zM1337 0q-17 0 -73 51q-63 57 -81 66q-73 37 -223 37
q-90 0 -134 -16q-29 -8 -29 -21q0 -20 94 -20q158 0 213 -17q116 -34 116 -151q0 -362 -589 -362q-256 0 -379 85q-145 98 -146 333v9q0 106 46 235q47 133 104 133q65 0 65 -75q0 -35 -8 -68.5t-8 -86.5q0 -240 418 -240q210 0 339 27q44 8 44 25q0 10 -44 15q-37 4 -157 4
q-121 0 -175 19q-82 26 -82 108v4q0 170 248 244q161 48 387 48h166q276 0 321 29q19 16 19 31q0 24 -23 24h-8q-4 -2 -6 -2q-31 -15 -136 -15q-216 0 -216 177q0 122 57 234q65 135 175 135q157 0 238 -190q65 -149 65 -311q0 -498 -485 -498h-113z" />
    <glyph glyph-name="uniFC32" unicode="&#xfed3;&#xfef2;" horiz-adv-x="1935" arabic-form="isolated" 
d="M1738 685q0 21 -35.5 48t-69.5 29q-29 0 -52.5 -16t-23.5 -44q0 -31 95 -32h10q76 0 76 15zM846 -663q5 -4 5 -9q0 -6 -6 -13l-99 -100q-4 -5 -12 -5q-4 0 -11 5l-95 94l-92 -94q-6 -5 -12 -5t-13 5l-98 100q-6 4 -6 11t6 16l93 93q6 8 13 8q8 0 16 -8l93 -89l88 89
q7 7 14 7t14 -7zM1760 1234q6 -2 6 -6q0 -6 -8 -15l-113 -114q-6 -5 -12 -5t-12 5l-117 112q-7 6 -7 12q0 8 9 15l107 109q7 7 14 7t15 -7zM1337 0q-17 0 -73 51q-63 57 -81 66q-73 37 -223 37q-90 0 -134 -16q-29 -8 -29 -21q0 -20 94 -20q158 0 213 -17q116 -34 116 -151
q0 -362 -589 -362q-256 0 -379 85q-145 98 -146 333v9q0 106 46 235q47 133 104 133q65 0 65 -75q0 -35 -8 -68.5t-8 -86.5q0 -240 418 -240q210 0 339 27q44 8 44 25q0 10 -44 15q-37 4 -157 4q-121 0 -175 19q-82 26 -82 108v4q0 170 248 244q161 48 387 48h166
q276 0 321 29q19 16 19 31q0 24 -23 24h-8q-4 -2 -6 -2q-31 -15 -136 -15q-216 0 -216 177q0 122 57 234q65 135 175 135q157 0 238 -190q65 -149 65 -311q0 -498 -485 -498h-113z" />
    <glyph glyph-name="uniFC43" unicode="&#xfedf;&#xfef0;" horiz-adv-x="1830" arabic-form="isolated" 
d="M1337 0q-17 0 -73 51q-63 57 -81 66q-73 37 -223 37q-90 0 -134 -16q-29 -8 -29 -21q0 -20 94 -20q158 0 213 -17q116 -34 116 -151q0 -362 -589 -362q-256 0 -379 85q-145 98 -146 333v9q0 106 46 235q47 133 104 133q65 0 65 -75q0 -35 -8 -68.5t-8 -86.5
q0 -240 418 -240q210 0 339 27q44 8 44 25q0 10 -44 15q-37 4 -157 4q-121 0 -175 19q-82 26 -82 108v4q0 170 248 244q161 48 387 48h118q67 0 91 9q40 9 40 56v4q0 76 -32 256q-39 196 -85 366l210 188q28 24 40 24q11 0 28 -39l127 -286q10 -21 10 -37t-23 -18
q-18 0 -68 16l22 -523v-28q0 -141 -47 -238q-69 -136 -214 -136h-163z" />
    <glyph glyph-name="uniFC44" unicode="&#xfedf;&#xfef2;" horiz-adv-x="1830" arabic-form="isolated" 
d="M846 -663q5 -4 5 -9q0 -6 -6 -13l-99 -100q-4 -5 -12 -5q-4 0 -11 5l-95 94l-92 -94q-6 -5 -12 -5t-13 5l-98 100q-6 4 -6 11t6 16l93 93q6 8 13 8q8 0 16 -8l93 -89l88 89q7 7 14 7t14 -7zM1337 0q-17 0 -73 51q-63 57 -81 66q-73 37 -223 37q-90 0 -134 -16
q-29 -8 -29 -21q0 -20 94 -20q158 0 213 -17q116 -34 116 -151q0 -362 -589 -362q-256 0 -379 85q-145 98 -146 333v9q0 106 46 235q47 133 104 133q65 0 65 -75q0 -35 -8 -68.5t-8 -86.5q0 -240 418 -240q210 0 339 27q44 8 44 25q0 10 -44 15q-37 4 -157 4q-121 0 -175 19
q-82 26 -82 108v4q0 170 248 244q161 48 387 48h118q67 0 91 9q40 9 40 56v4q0 76 -32 256q-39 196 -85 366l210 188q28 24 40 24q11 0 28 -39l127 -286q10 -21 10 -37t-23 -18q-18 0 -68 16l22 -523v-28q0 -141 -47 -238q-69 -136 -214 -136h-163z" />
    <glyph glyph-name="uniFC64" unicode="&#xfe8c;&#xfeae;" horiz-adv-x="1310" arabic-form="final" 
d="M795 0q-26 2 -54 20v-73q0 -89 -54 -205t-96 -163q-21 -20 -53 -20h-397q-69 0 -69 56q0 35 31 49q107 49 274 165q212 145 214 208v1q0 51 -193 225l139 280q5 15 13 15q7 0 16 -10q103 -105 147 -134q53 -28 105 -28h32q87 0 123 49q14 28 36 103q17 56 58 56t53 -56
q16 -75 28 -103q31 -49 119 -49h66v-386h-66q-121 0 -188 114q-63 -114 -203 -114h-81zM1194 1057l-19 -122q-187 -53 -344 -158l9 91q52 47 87 65q-28 4 -45 25q-22 24 -22 60q0 66 42 132q48 73 112 73q43 0 87 -30q51 -38 51 -75q0 -19 -17 -19q-9 0 -33 5q-16 7 -33 7
q-44 0 -76.5 -15.5t-35.5 -45.5q0 -42 80 -42q25 6 157 49z" />
    <glyph glyph-name="uniFC67" unicode="&#xfe8c;&#xfee6;" horiz-adv-x="1675" arabic-form="final" 
d="M1532 1057l-19 -122q-186 -53 -344 -158l9 91q52 47 88 65q-29 4 -46 25q-22 24 -22 60q0 66 42 132q48 73 112 73q43 0 87 -30q51 -38 51 -75q0 -19 -17 -19q-9 0 -33 5q-16 7 -33 7q-44 0 -76.5 -15.5t-35.5 -45.5q0 -42 80 -42q25 6 157 49zM1161 0q-43 0 -67 39
q0 -466 -514 -466q-263 0 -379 118q-94 95 -96 258v5q0 93 39 225q47 154 106 154q35 0 45 -22q6 -21 6 -69q0 -6 -9.5 -60t-9.5 -75q0 -166 334 -166q103 0 189 22q134 33 134 106q0 59 -171 197l131 258q6 12 15 12q8 0 19 -12q138 -138 207 -138h75q88 0 123 49
q14 28 37 103q16 56 57 56t53 -56q17 -75 28 -103q31 -49 120 -49h65v-386h-65q-121 0 -189 114q-63 -114 -202 -114h-81zM679 650q4 -5 4 -11t-6 -13l-112 -117q-6 -5 -12 -5t-14 5l-115 113q-6 6 -6 13q0 9 9 18l107 109q7 8 13 8q7 0 14 -8z" />
    <glyph glyph-name="uniFC6A" unicode="&#xfe92;&#xfeae;" horiz-adv-x="1410" arabic-form="final" 
d="M1205 -246q6 -6 6 -11q0 -6 -6 -11l-114 -117q-8 -5 -12 -5q-8 0 -14 5l-114 114q-7 7 -7 14q0 8 9 16l106 107q6 7 13 7t15 -7zM801 0q-29 0 -60 20v-73q0 -89 -54 -205t-96 -163q-21 -20 -53 -20h-397q-69 0 -69 56q0 35 31 49q107 49 274 165q212 145 214 208v1
q0 51 -193 225l139 280q5 15 13 15q7 0 16 -10q103 -105 147 -134q53 -28 105 -28h132q88 0 123 49q14 28 37 103q16 56 57 56t53 -56q16 -75 28 -103q31 -49 119 -49h66v-386h-66q-121 0 -188 114q-63 -114 -202 -114h-176z" />
    <glyph glyph-name="uniFC70" unicode="&#xfe98;&#xfeae;" horiz-adv-x="1401" arabic-form="final" 
d="M1182 911q4 -4 4 -9q0 -6 -6 -11l-99 -100q-6 -5 -11 -5q-7 0 -13 5l-96 92l-93 -92q-4 -5 -9 -5t-12 5l-99 98q-7 6 -7 12q0 7 9 15l91 93q6 7 12 7q7 0 13 -7l95 -89l89 89q7 8 14 8t15 -8zM792 1q-25 3 -51 19v-73q0 -89 -54 -205t-96 -163q-21 -20 -53 -20h-397
q-69 0 -69 56q0 35 31 49q107 49 274 165q212 145 214 208v1q0 51 -193 225l139 280q5 15 13 15q7 0 16 -10q103 -105 147 -134q53 -28 105 -28h123q88 0 123 49q14 28 37 103q16 56 57 56t53 -56q16 -75 28 -103q31 -49 119 -49h66v-386h-66q-121 0 -188 114
q-63 -114 -202 -114h-176v1z" />
    <glyph glyph-name="uniFC86" unicode="&#xfee0;&#xfef0;" horiz-adv-x="1847" arabic-form="final" 
d="M1337 0q-17 0 -73 51q-63 57 -81 66q-73 37 -223 37q-90 0 -134 -16q-29 -8 -29 -21q0 -20 94 -20q158 0 213 -17q116 -34 116 -151q0 -362 -589 -362q-256 0 -379 85q-145 98 -146 333v9q0 106 46 235q47 133 104 133q65 0 65 -75q0 -35 -8 -68.5t-8 -86.5
q0 -240 418 -240q210 0 339 27q44 8 44 25q0 10 -44 15q-37 4 -157 4q-121 0 -175 19q-82 26 -82 108v4q0 170 248 244q161 48 387 48h118q92 0 92 114v17l-27 567v5q0 11 8 17l258 165q8 5 13 5q2 0 3 -1t1 -18v-761q0 -50 28 -84q22 -26 55 -26h38v-386h-48q-59 0 -124 47
q-49 36 -73 81q-88 -128 -210 -128h-78z" />
    <glyph glyph-name="uniFC87" unicode="&#xfee0;&#xfef2;" horiz-adv-x="1847" arabic-form="final" 
d="M846 -663q5 -4 5 -9q0 -6 -6 -13l-99 -100q-4 -5 -12 -5q-4 0 -11 5l-95 94l-92 -94q-6 -5 -12 -5t-13 5l-98 100q-6 4 -6 11t6 16l93 93q6 8 13 8q8 0 16 -8l93 -89l88 89q7 7 14 7t14 -7zM1337 0q-17 0 -73 51q-63 57 -81 66q-73 37 -223 37q-90 0 -134 -16
q-29 -8 -29 -21q0 -20 94 -20q158 0 213 -17q116 -34 116 -151q0 -362 -589 -362q-256 0 -379 85q-145 98 -146 333v9q0 106 46 235q47 133 104 133q65 0 65 -75q0 -35 -8 -68.5t-8 -86.5q0 -240 418 -240q210 0 339 27q44 8 44 25q0 10 -44 15q-37 4 -157 4q-121 0 -175 19
q-82 26 -82 108v4q0 170 248 244q161 48 387 48h118q92 0 92 114v17l-27 567v5q0 11 8 17l258 165q8 5 13 5q2 0 3 -1t1 -18v-761q0 -50 28 -84q22 -26 55 -26h38v-386h-48q-59 0 -124 47q-49 36 -73 81q-88 -128 -210 -128h-78z" />
    <glyph glyph-name="uniFCCC" unicode="&#xfedf;&#xfee4;" horiz-adv-x="1242" arabic-form="initial" 
d="M404 525q-34 0 -48 -39q-8 -21 -8 -47q0 -23 6 -49q14 -55 47.5 -94.5t67.5 -39.5t49 40q7 20 7 45q0 23 -6 49q-14 56 -47.5 95.5t-67.5 39.5zM782 0q-43 3 -83 43q-43 42 -59 89v2q-60 -112 -169 -134q-24 -5 -48 -5h-8q-29 1 -56 10q-53 17 -103 60q-36 31 -63 70
q-65 -135 -158 -135h-58v386h37q50 0 77 22q25 20 31 57q10 51 33 98q59 119 173 142q25 5 49 5h8q28 -2 55 -10q53 -17 103 -59q62 -54 126 -178q34 -76 101 -77h43q67 0 91 9q40 9 40 56v4q0 76 -32 256q-39 196 -85 366l210 188q28 24 40 24q11 0 28 -39l127 -286
q10 -21 10 -37t-23 -18q-18 0 -68 16l22 -523v-28q0 -141 -47 -238q-69 -136 -214 -136h-130z" />
    <glyph glyph-name="uniFCFB" unicode="&#xfeb3;&#xfef0;" horiz-adv-x="2258" arabic-form="isolated" 
d="M1337 0q-17 0 -73 51q-63 57 -81 66q-73 37 -223 37q-90 0 -134 -16q-29 -8 -29 -21q0 -20 94 -20q158 0 213 -17q116 -34 116 -151q0 -362 -589 -362q-256 0 -379 85q-145 98 -146 333v9q0 106 46 235q47 133 104 133q65 0 65 -75q0 -35 -8 -68.5t-8 -86.5
q0 -240 418 -240q210 0 339 27q44 8 44 25q0 10 -44 15q-37 4 -157 4q-121 0 -175 19q-82 26 -82 108v4q0 170 248 244q161 48 387 48h125q61 0 83 47l27 84q15 48 53 48q33 0 54 -53q10 -40 21 -83q26 -45 91 -45q47 0 64 45q14 68 18 85q20 53 57 53h1q34 0 53 -57
q10 -44 21 -87q23 -51 89 -51q78 0 78 55q0 33 -41 131l109 121q9 8 15 8q8 0 12 -10q45 -114 45 -229q0 -156 -45 -275q-63 -173 -181 -173q-49 0 -98.5 35.5t-69.5 76.5q-49 -110 -139 -110q-122 0 -166 114q-51 -116 -149 -116h-73z" />
    <glyph glyph-name="uniFCFC" unicode="&#xfeb3;&#xfef2;" horiz-adv-x="2258" arabic-form="isolated" 
d="M846 -663q5 -4 5 -9q0 -6 -6 -13l-99 -100q-4 -5 -12 -5q-4 0 -11 5l-95 94l-92 -94q-6 -5 -12 -5t-13 5l-98 100q-6 4 -6 11t6 16l93 93q6 8 13 8q8 0 16 -8l93 -89l88 89q7 7 14 7t14 -7zM1337 0q-17 0 -73 51q-63 57 -81 66q-73 37 -223 37q-90 0 -134 -16
q-29 -8 -29 -21q0 -20 94 -20q158 0 213 -17q116 -34 116 -151q0 -362 -589 -362q-256 0 -379 85q-145 98 -146 333v9q0 106 46 235q47 133 104 133q65 0 65 -75q0 -35 -8 -68.5t-8 -86.5q0 -240 418 -240q210 0 339 27q44 8 44 25q0 10 -44 15q-37 4 -157 4q-121 0 -175 19
q-82 26 -82 108v4q0 170 248 244q161 48 387 48h125q61 0 83 47l27 84q15 48 53 48q33 0 54 -53q10 -40 21 -83q26 -45 91 -45q47 0 64 45q14 68 18 85q20 53 57 53h1q34 0 53 -57q10 -44 21 -87q23 -51 89 -51q78 0 78 55q0 33 -41 131l109 121q9 8 15 8q8 0 12 -10
q45 -114 45 -229q0 -156 -45 -275q-63 -173 -181 -173q-49 0 -98.5 35.5t-69.5 76.5q-49 -110 -139 -110q-122 0 -166 114q-51 -116 -149 -116h-73z" />
    <glyph glyph-name="uniFCFD" unicode="&#xfeb7;&#xfef0;" horiz-adv-x="2258" arabic-form="isolated" 
d="M1762 1102q-5 4 -5 9t7 12l100 100q4 5 9 5q4 0 9 -5l101 -100q5 -4 5 -9q0 -7 -9 -16l-91 -94q-6 -6 -11 -6q-6 0 -11 6zM1654 909q-4 4 -4 8q0 6 5 12l100 99q5 5 11 5q4 0 10 -5l96 -97l99 97q4 5 9 5q4 0 9 -5l104 -99q3 -4 3 -9q0 -7 -5 -14l-93 -93q-7 -9 -14 -9
q-5 0 -11 9l-103 93l-91 -93q-4 -7 -10 -7q-5 0 -12 7zM1337 0q-17 0 -73 51q-63 57 -81 66q-73 37 -223 37q-90 0 -134 -16q-29 -8 -29 -21q0 -20 94 -20q158 0 213 -17q116 -34 116 -151q0 -362 -589 -362q-256 0 -379 85q-145 98 -146 333v9q0 106 46 235q47 133 104 133
q65 0 65 -75q0 -35 -8 -68.5t-8 -86.5q0 -240 418 -240q210 0 339 27q44 8 44 25q0 10 -44 15q-37 4 -157 4q-121 0 -175 19q-82 26 -82 108v4q0 170 248 244q161 48 387 48h125q61 0 83 47l27 84q15 48 53 48q33 0 54 -53q10 -40 21 -83q26 -45 91 -45q47 0 64 45
q14 68 18 85q20 53 57 53h1q34 0 53 -57q10 -44 21 -87q23 -51 89 -51q78 0 78 55q0 33 -41 131l109 121q9 8 15 8q8 0 12 -10q45 -114 45 -229q0 -156 -45 -275q-63 -173 -181 -173q-49 0 -98.5 35.5t-69.5 76.5q-49 -110 -139 -110q-122 0 -166 114q-51 -116 -149 -116
h-73z" />
    <glyph glyph-name="uniFCFE" unicode="&#xfeb7;&#xfef2;" horiz-adv-x="2258" arabic-form="isolated" 
d="M846 -663q5 -4 5 -9q0 -6 -6 -13l-99 -100q-4 -5 -12 -5q-4 0 -11 5l-95 94l-92 -94q-6 -5 -12 -5t-13 5l-98 100q-6 4 -6 11t6 16l93 93q6 8 13 8q8 0 16 -8l93 -89l88 89q7 7 14 7t14 -7zM1762 1102q-5 4 -5 9t7 12l100 100q4 5 9 5q4 0 9 -5l101 -100q5 -4 5 -9
q0 -7 -9 -16l-91 -94q-6 -6 -11 -6q-6 0 -11 6zM1654 909q-4 4 -4 8q0 6 5 12l100 99q5 5 11 5q4 0 10 -5l96 -97l99 97q4 5 9 5q4 0 9 -5l104 -99q3 -4 3 -9q0 -7 -5 -14l-93 -93q-7 -9 -14 -9q-5 0 -11 9l-103 93l-91 -93q-4 -7 -10 -7q-5 0 -12 7zM1337 0q-17 0 -73 51
q-63 57 -81 66q-73 37 -223 37q-90 0 -134 -16q-29 -8 -29 -21q0 -20 94 -20q158 0 213 -17q116 -34 116 -151q0 -362 -589 -362q-256 0 -379 85q-145 98 -146 333v9q0 106 46 235q47 133 104 133q65 0 65 -75q0 -35 -8 -68.5t-8 -86.5q0 -240 418 -240q210 0 339 27
q44 8 44 25q0 10 -44 15q-37 4 -157 4q-121 0 -175 19q-82 26 -82 108v4q0 170 248 244q161 48 387 48h125q61 0 83 47l27 84q15 48 53 48q33 0 54 -53q10 -40 21 -83q26 -45 91 -45q47 0 64 45q14 68 18 85q20 53 57 53h1q34 0 53 -57q10 -44 21 -87q23 -51 89 -51
q78 0 78 55q0 33 -41 131l109 121q9 8 15 8q8 0 12 -10q45 -114 45 -229q0 -156 -45 -275q-63 -173 -181 -173q-49 0 -98.5 35.5t-69.5 76.5q-49 -110 -139 -110q-122 0 -166 114q-51 -116 -149 -116h-73z" />
    <glyph glyph-name="uniFD05" unicode="&#xfebb;&#xfef0;" horiz-adv-x="2429" arabic-form="isolated" 
d="M2211 431q0 95 -116 96h-2q-107 0 -292 -176q17 0 40 -1h69q124 0 220 28q81 26 81 53zM1337 0q-17 0 -73 51q-63 57 -81 66q-73 37 -223 37q-90 0 -134 -16q-29 -8 -29 -21q0 -20 94 -20q158 0 213 -17q116 -34 116 -151q0 -362 -589 -362q-256 0 -379 85
q-145 98 -146 333v9q0 106 46 235q47 133 104 133q65 0 65 -75q0 -35 -8 -68.5t-8 -86.5q0 -240 418 -240q210 0 339 27q44 8 44 25q0 10 -44 15q-37 4 -157 4q-121 0 -175 19q-82 26 -82 108v4q0 170 248 244q161 48 387 48h123q55 0 81 49q9 20 33 98q14 49 45 49
q43 0 60 -93.5t68 -93.5q18 17 87 102q240 285 428 285q109 0 170 -75q51 -61 51 -152q0 -183 -126 -346q-157 -204 -425 -204q-75 0 -163 27q-101 29 -140 78q-71 -110 -159 -110h-79z" />
    <glyph glyph-name="uniFD06" unicode="&#xfebb;&#xfef2;" horiz-adv-x="2429" arabic-form="isolated" 
d="M2211 431q0 95 -116 96h-2q-107 0 -292 -176q17 0 40 -1h69q124 0 220 28q81 26 81 53zM846 -663q5 -4 5 -9q0 -6 -6 -13l-99 -100q-4 -5 -12 -5q-4 0 -11 5l-95 94l-92 -94q-6 -5 -12 -5t-13 5l-98 100q-6 4 -6 11t6 16l93 93q6 8 13 8q8 0 16 -8l93 -89l88 89q7 7 14 7
t14 -7zM1337 0q-17 0 -73 51q-63 57 -81 66q-73 37 -223 37q-90 0 -134 -16q-29 -8 -29 -21q0 -20 94 -20q158 0 213 -17q116 -34 116 -151q0 -362 -589 -362q-256 0 -379 85q-145 98 -146 333v9q0 106 46 235q47 133 104 133q65 0 65 -75q0 -35 -8 -68.5t-8 -86.5
q0 -240 418 -240q210 0 339 27q44 8 44 25q0 10 -44 15q-37 4 -157 4q-121 0 -175 19q-82 26 -82 108v4q0 170 248 244q161 48 387 48h123q55 0 81 49q9 20 33 98q14 49 45 49q43 0 60 -93.5t68 -93.5q18 17 87 102q240 285 428 285q109 0 170 -75q51 -61 51 -152
q0 -183 -126 -346q-157 -204 -425 -204q-75 0 -163 27q-101 29 -140 78q-71 -110 -159 -110h-79z" />
    <glyph glyph-name="uniFD07" unicode="&#xfebf;&#xfef0;" horiz-adv-x="2429" arabic-form="isolated" 
d="M2211 431q0 95 -116 96h-2q-107 0 -292 -176q17 0 40 -1h69q124 0 220 28q81 26 81 53zM2130 1084q5 -5 5 -10q0 -7 -7 -15l-114 -111q-5 -5 -12 -5q-6 0 -14 5l-116 111q-4 4 -4 10q0 8 6 18l109 109q6 8 12 8q7 0 15 -8zM1337 0q-17 0 -73 51q-63 57 -81 66
q-73 37 -223 37q-90 0 -134 -16q-29 -8 -29 -21q0 -20 94 -20q158 0 213 -17q116 -34 116 -151q0 -362 -589 -362q-256 0 -379 85q-145 98 -146 333v9q0 106 46 235q47 133 104 133q65 0 65 -75q0 -35 -8 -68.5t-8 -86.5q0 -240 418 -240q210 0 339 27q44 8 44 25
q0 10 -44 15q-37 4 -157 4q-121 0 -175 19q-82 26 -82 108v4q0 170 248 244q161 48 387 48h123q55 0 81 49q9 20 33 98q14 49 45 49q43 0 60 -93.5t68 -93.5q18 17 87 102q240 285 428 285q109 0 170 -75q51 -61 51 -152q0 -183 -126 -346q-157 -204 -425 -204
q-75 0 -163 27q-101 29 -140 78q-71 -110 -159 -110h-79z" />
    <glyph glyph-name="uniFD08" unicode="&#xfebf;&#xfef2;" horiz-adv-x="2429" arabic-form="isolated" 
d="M2211 431q0 95 -116 96h-2q-107 0 -292 -176q17 0 40 -1h69q124 0 220 28q81 26 81 53zM846 -663q5 -4 5 -9q0 -6 -6 -13l-99 -100q-4 -5 -12 -5q-4 0 -11 5l-95 94l-92 -94q-6 -5 -12 -5t-13 5l-98 100q-6 4 -6 11t6 16l93 93q6 8 13 8q8 0 16 -8l93 -89l88 89q7 7 14 7
t14 -7zM2130 1084q5 -5 5 -10q0 -7 -7 -15l-114 -111q-5 -5 -12 -5q-6 0 -14 5l-116 111q-4 4 -4 10q0 8 6 18l109 109q6 8 12 8q7 0 15 -8zM1337 0q-17 0 -73 51q-63 57 -81 66q-73 37 -223 37q-90 0 -134 -16q-29 -8 -29 -21q0 -20 94 -20q158 0 213 -17q116 -34 116 -151
q0 -362 -589 -362q-256 0 -379 85q-145 98 -146 333v9q0 106 46 235q47 133 104 133q65 0 65 -75q0 -35 -8 -68.5t-8 -86.5q0 -240 418 -240q210 0 339 27q44 8 44 25q0 10 -44 15q-37 4 -157 4q-121 0 -175 19q-82 26 -82 108v4q0 170 248 244q161 48 387 48h123
q55 0 81 49q9 20 33 98q14 49 45 49q43 0 60 -93.5t68 -93.5q18 17 87 102q240 285 428 285q109 0 170 -75q51 -61 51 -152q0 -183 -126 -346q-157 -204 -425 -204q-75 0 -163 27q-101 29 -140 78q-71 -110 -159 -110h-79z" />
    <glyph glyph-name="uniFD0D" unicode="&#xfeb7;&#xfeae;" horiz-adv-x="1717" arabic-form="isolated" 
d="M802 0q-29 0 -61 20v-73q0 -89 -54 -205t-96 -163q-21 -20 -53 -20h-397q-69 0 -69 56q0 35 31 49q107 49 274 165q212 145 214 208v1q0 51 -193 225l139 280q5 15 13 15q7 0 16 -10q103 -105 147 -134q53 -28 105 -28h49q61 0 83 47l28 84q15 48 52 48q34 0 54 -53
q10 -40 22 -83q26 -45 90 -45q48 0 65 45q14 68 18 85q19 53 57 53h1q34 0 52 -57q10 -44 21 -87q24 -51 90 -51q78 0 78 55q0 33 -41 131l108 121q9 8 16 8t12 -10q44 -114 44 -229q0 -156 -44 -275q-63 -173 -182 -173q-49 0 -98 35.5t-69 76.5q-49 -110 -140 -110
q-122 0 -165 114q-51 -116 -150 -116h-67zM1222 1102q-5 4 -5 9t7 12l100 100q4 5 9 5q4 0 9 -5l100 -100q5 -4 5 -9q0 -7 -8 -16l-92 -94q-5 -6 -11 -6q-5 0 -10 6zM1113 909q-3 4 -3 8q0 5 5 12l99 99q6 5 11 5t10 -5l97 -97l98 97q5 5 9 5q5 0 10 -5l103 -99q3 -5 3 -10
q0 -6 -4 -13l-93 -93q-8 -9 -14 -9q-5 0 -12 9l-102 93l-91 -93q-4 -7 -10 -7t-13 7z" />
    <glyph glyph-name="uniFD0E" unicode="&#xfeb3;&#xfeae;" horiz-adv-x="1717" arabic-form="isolated" 
d="M802 0q-29 0 -61 20v-73q0 -89 -54 -205t-96 -163q-21 -20 -53 -20h-397q-69 0 -69 56q0 35 31 49q107 49 274 165q212 145 214 208v1q0 51 -193 225l139 280q5 15 13 15q7 0 16 -10q103 -105 147 -134q53 -28 105 -28h49q61 0 83 47l28 84q15 48 52 48q34 0 54 -53
q10 -40 22 -83q26 -45 90 -45q48 0 65 45q14 68 18 85q19 53 57 53h1q34 0 52 -57q10 -44 21 -87q24 -51 90 -51q78 0 78 55q0 33 -41 131l108 121q9 8 16 8t12 -10q44 -114 44 -229q0 -156 -44 -275q-63 -173 -182 -173q-49 0 -98 35.5t-69 76.5q-49 -110 -140 -110
q-122 0 -165 114q-51 -116 -150 -116h-67z" />
    <glyph glyph-name="uniFD0F" unicode="&#xfebb;&#xfeae;" horiz-adv-x="1889" arabic-form="isolated" 
d="M1671 431q0 95 -117 96h-2q-106 0 -291 -176q16 0 40 -1h68q124 0 221 28q81 26 81 53zM802 0q-29 0 -61 20v-73q0 -89 -54 -205t-96 -163q-21 -20 -53 -20h-397q-69 0 -69 56q0 35 31 49q107 49 274 165q212 145 214 208v1q0 51 -193 225l139 280q5 15 13 15q7 0 16 -10
q103 -105 147 -134q53 -28 105 -28h48q55 0 81 49q9 20 32 98q15 49 46 49q43 0 59.5 -93.5t67.5 -93.5q19 17 88 102q240 285 428 285q109 0 170 -75q51 -61 51 -152q0 -183 -126 -346q-158 -204 -426 -204q-74 0 -163 27q-100 29 -139 78q-71 -110 -159 -110h-74z" />
    <glyph glyph-name="uniFD10" unicode="&#xfebf;&#xfeae;" horiz-adv-x="1889" arabic-form="isolated" 
d="M1671 431q0 95 -117 96h-2q-106 0 -291 -176q16 0 40 -1h68q124 0 221 28q81 26 81 53zM802 0q-29 0 -61 20v-73q0 -89 -54 -205t-96 -163q-21 -20 -53 -20h-397q-69 0 -69 56q0 35 31 49q107 49 274 165q212 145 214 208v1q0 51 -193 225l139 280q5 15 13 15q7 0 16 -10
q103 -105 147 -134q53 -28 105 -28h48q55 0 81 49q9 20 32 98q15 49 46 49q43 0 59.5 -93.5t67.5 -93.5q19 17 88 102q240 285 428 285q109 0 170 -75q51 -61 51 -152q0 -183 -126 -346q-158 -204 -426 -204q-74 0 -163 27q-100 29 -139 78q-71 -110 -159 -110h-74z
M1590 1084q5 -5 5 -10q0 -7 -7 -15l-114 -111q-6 -5 -12 -5q-7 0 -14 5l-116 111q-4 4 -4 10q0 8 6 18l108 109q6 8 13 8t15 -8z" />
    <glyph glyph-name="uniFD17" unicode="&#xfeb4;&#xfef0;" horiz-adv-x="2374" arabic-form="final" 
d="M1337 0q-17 0 -73 51q-63 57 -81 66q-73 37 -223 37q-90 0 -134 -16q-29 -8 -29 -21q0 -20 94 -20q158 0 213 -17q116 -34 116 -151q0 -362 -589 -362q-256 0 -379 85q-145 98 -146 333v9q0 106 46 235q47 133 104 133q65 0 65 -75q0 -35 -8 -68.5t-8 -86.5
q0 -240 418 -240q210 0 339 27q44 8 44 25q0 10 -44 15q-37 4 -157 4q-121 0 -175 19q-82 26 -82 108v4q0 170 248 244q161 48 387 48h134q64 0 89 47q17 74 23 89q22 57 61 57q42 0 54 -52q9 -30 25 -94q19 -49 77 -49q47 0 66 49q17 73 24 88q22 56 57 56q39 0 56 -51
q5 -29 19 -93q15 -48 66 -48q50 0 68 48q6 42 20 91t56 51h3q38 0 51 -51q7 -28 23 -91q18 -47 77 -47h65v-386h-66q-82 0 -160 112q-83 -110 -149 -110q-46 0 -91 41q-40 35 -55 73q-77 -114 -142 -114q-95 0 -151 114q-77 -116 -164 -116h-82z" />
    <glyph glyph-name="uniFD18" unicode="&#xfeb4;&#xfef2;" horiz-adv-x="2374" arabic-form="final" 
d="M846 -663q5 -4 5 -9q0 -6 -6 -13l-99 -100q-4 -5 -12 -5q-4 0 -11 5l-95 94l-92 -94q-6 -5 -12 -5t-13 5l-98 100q-6 4 -6 11t6 16l93 93q6 8 13 8q8 0 16 -8l93 -89l88 89q7 7 14 7t14 -7zM1337 0q-17 0 -73 51q-63 57 -81 66q-73 37 -223 37q-90 0 -134 -16
q-29 -8 -29 -21q0 -20 94 -20q158 0 213 -17q116 -34 116 -151q0 -362 -589 -362q-256 0 -379 85q-145 98 -146 333v9q0 106 46 235q47 133 104 133q65 0 65 -75q0 -35 -8 -68.5t-8 -86.5q0 -240 418 -240q210 0 339 27q44 8 44 25q0 10 -44 15q-37 4 -157 4q-121 0 -175 19
q-82 26 -82 108v4q0 170 248 244q161 48 387 48h134q64 0 89 47q17 74 23 89q22 57 61 57q42 0 54 -52q9 -30 25 -94q19 -49 77 -49q47 0 66 49q17 73 24 88q22 56 57 56q39 0 56 -51q5 -29 19 -93q15 -48 66 -48q50 0 68 48q6 42 20 91t56 51h3q38 0 51 -51q7 -28 23 -91
q18 -47 77 -47h65v-386h-66q-82 0 -160 112q-83 -110 -149 -110q-46 0 -91 41q-40 35 -55 73q-77 -114 -142 -114q-95 0 -151 114q-77 -116 -164 -116h-82z" />
    <glyph glyph-name="uniFD19" unicode="&#xfeb8;&#xfef0;" horiz-adv-x="2374" arabic-form="final" 
d="M1771 1102q-5 4 -5 9t7 12l100 100q4 5 9 5q4 0 9 -5l101 -100q5 -4 5 -9q0 -7 -9 -16l-91 -94q-6 -6 -11 -6q-6 0 -11 6zM1663 909q-4 4 -4 8q0 5 6 12l99 99q5 5 11 5q4 0 10 -5l96 -97l99 97q4 5 9 5q4 0 9 -5l104 -99q3 -4 3 -9q0 -7 -5 -14l-93 -93q-7 -9 -14 -9
q-5 0 -11 9l-102 93l-92 -93q-4 -7 -10 -7q-5 0 -12 7zM1337 0q-17 0 -73 51q-63 57 -81 66q-73 37 -223 37q-90 0 -134 -16q-29 -8 -29 -21q0 -20 94 -20q158 0 213 -17q116 -34 116 -151q0 -362 -589 -362q-256 0 -379 85q-145 98 -146 333v9q0 106 46 235q47 133 104 133
q65 0 65 -75q0 -35 -8 -68.5t-8 -86.5q0 -240 418 -240q210 0 339 27q44 8 44 25q0 10 -44 15q-37 4 -157 4q-121 0 -175 19q-82 26 -82 108v4q0 170 248 244q161 48 387 48h134q64 0 89 47q17 74 23 89q22 57 61 57q42 0 54 -52q9 -30 25 -94q19 -49 77 -49q47 0 66 49
q17 73 24 88q22 56 57 56q39 0 56 -51q5 -29 19 -93q15 -48 66 -48q50 0 68 48q6 42 20 91t56 51h3q38 0 51 -51q7 -28 23 -91q18 -47 77 -47h65v-386h-66q-82 0 -160 112q-83 -110 -149 -110q-46 0 -91 41q-40 35 -55 73q-77 -114 -142 -114q-95 0 -151 114
q-77 -116 -164 -116h-82z" />
    <glyph glyph-name="uniFD1A" unicode="&#xfeb8;&#xfef2;" horiz-adv-x="2374" arabic-form="final" 
d="M846 -663q5 -4 5 -9q0 -6 -6 -13l-99 -100q-4 -5 -12 -5q-4 0 -11 5l-95 94l-92 -94q-6 -5 -12 -5t-13 5l-98 100q-6 4 -6 11t6 16l93 93q6 8 13 8q8 0 16 -8l93 -89l88 89q7 7 14 7t14 -7zM1771 1102q-5 4 -5 9t7 12l100 100q4 5 9 5q4 0 9 -5l101 -100q5 -4 5 -9
q0 -7 -9 -16l-91 -94q-6 -6 -11 -6q-6 0 -11 6zM1663 909q-4 4 -4 8q0 5 6 12l99 99q5 5 11 5q4 0 10 -5l96 -97l99 97q4 5 9 5q4 0 9 -5l104 -99q3 -4 3 -9q0 -7 -5 -14l-93 -93q-7 -9 -14 -9q-5 0 -11 9l-102 93l-92 -93q-4 -7 -10 -7q-5 0 -12 7zM1337 0q-17 0 -73 51
q-63 57 -81 66q-73 37 -223 37q-90 0 -134 -16q-29 -8 -29 -21q0 -20 94 -20q158 0 213 -17q116 -34 116 -151q0 -362 -589 -362q-256 0 -379 85q-145 98 -146 333v9q0 106 46 235q47 133 104 133q65 0 65 -75q0 -35 -8 -68.5t-8 -86.5q0 -240 418 -240q210 0 339 27
q44 8 44 25q0 10 -44 15q-37 4 -157 4q-121 0 -175 19q-82 26 -82 108v4q0 170 248 244q161 48 387 48h134q64 0 89 47q17 74 23 89q22 57 61 57q42 0 54 -52q9 -30 25 -94q19 -49 77 -49q47 0 66 49q17 73 24 88q22 56 57 56q39 0 56 -51q5 -29 19 -93q15 -48 66 -48
q50 0 68 48q6 42 20 91t56 51h3q38 0 51 -51q7 -28 23 -91q18 -47 77 -47h65v-386h-66q-82 0 -160 112q-83 -110 -149 -110q-46 0 -91 41q-40 35 -55 73q-77 -114 -142 -114q-95 0 -151 114q-77 -116 -164 -116h-82z" />
    <glyph glyph-name="uniFD21" unicode="&#xfebc;&#xfef0;" horiz-adv-x="2489" arabic-form="final" 
d="M2211 431q0 95 -116 96h-2q-107 0 -292 -176q17 0 40 -1h69q124 0 220 28q81 26 81 53zM1337 0q-17 0 -73 51q-63 57 -81 66q-73 37 -223 37q-90 0 -134 -16q-29 -8 -29 -21q0 -20 94 -20q158 0 213 -17q116 -34 116 -151q0 -362 -589 -362q-256 0 -379 85
q-145 98 -146 333v9q0 106 46 235q47 133 104 133q65 0 65 -75q0 -35 -8 -68.5t-8 -86.5q0 -240 418 -240q210 0 339 27q44 8 44 25q0 10 -44 15q-37 4 -157 4q-121 0 -175 19q-82 26 -82 108v4q0 170 248 244q161 48 387 48h123q55 0 81 49q9 20 33 98q14 49 45 49
q43 0 59 -92.5t69 -92.5q3 0 87 101q96 112 187 185q128 99 242 99q104 0 167 -73q53 -61 53 -158q0 -81 -31 -146q10 -19 46 -19h68v-386h-77q-122 0 -191 149q-106 -144 -366 -144q-75 0 -163 27q-101 29 -140 78q-71 -110 -159 -110h-79z" />
    <glyph glyph-name="uniFD22" unicode="&#xfebc;&#xfef2;" horiz-adv-x="2489" arabic-form="final" 
d="M2211 431q0 95 -116 96h-2q-107 0 -292 -176q17 0 40 -1h69q124 0 220 28q81 26 81 53zM846 -663q5 -4 5 -9q0 -6 -6 -13l-99 -100q-4 -5 -12 -5q-4 0 -11 5l-95 94l-92 -94q-6 -5 -12 -5t-13 5l-98 100q-6 4 -6 11t6 16l93 93q6 8 13 8q8 0 16 -8l93 -89l88 89q7 7 14 7
t14 -7zM1337 0q-17 0 -73 51q-63 57 -81 66q-73 37 -223 37q-90 0 -134 -16q-29 -8 -29 -21q0 -20 94 -20q158 0 213 -17q116 -34 116 -151q0 -362 -589 -362q-256 0 -379 85q-145 98 -146 333v9q0 106 46 235q47 133 104 133q65 0 65 -75q0 -35 -8 -68.5t-8 -86.5
q0 -240 418 -240q210 0 339 27q44 8 44 25q0 10 -44 15q-37 4 -157 4q-121 0 -175 19q-82 26 -82 108v4q0 170 248 244q161 48 387 48h123q55 0 81 49q9 20 33 98q14 49 45 49q43 0 59 -92.5t69 -92.5q3 0 87 101q96 112 187 185q128 99 242 99q104 0 167 -73
q53 -61 53 -158q0 -81 -31 -146q10 -19 46 -19h68v-386h-77q-122 0 -191 149q-106 -144 -366 -144q-75 0 -163 27q-101 29 -140 78q-71 -110 -159 -110h-79z" />
    <glyph glyph-name="uniFD23" unicode="&#xfec0;&#xfef0;" horiz-adv-x="2489" arabic-form="final" 
d="M2211 431q0 95 -116 96h-2q-107 0 -292 -176q17 0 40 -1h69q124 0 220 28q81 26 81 53zM2130 1084q5 -5 5 -10q0 -7 -7 -15l-114 -111q-5 -5 -12 -5q-6 0 -14 5l-116 111q-4 4 -4 10q0 8 6 18l109 109q6 8 12 8q7 0 15 -8zM1337 0q-17 0 -73 51q-63 57 -81 66
q-73 37 -223 37q-90 0 -134 -16q-29 -8 -29 -21q0 -20 94 -20q158 0 213 -17q116 -34 116 -151q0 -362 -589 -362q-256 0 -379 85q-145 98 -146 333v9q0 106 46 235q47 133 104 133q65 0 65 -75q0 -35 -8 -68.5t-8 -86.5q0 -240 418 -240q210 0 339 27q44 8 44 25
q0 10 -44 15q-37 4 -157 4q-121 0 -175 19q-82 26 -82 108v4q0 170 248 244q161 48 387 48h123q55 0 81 49q9 20 33 98q14 49 45 49q43 0 59 -92.5t69 -92.5q3 0 87 101q96 112 187 185q128 99 242 99q104 0 167 -73q53 -61 53 -158q0 -81 -31 -146q10 -19 46 -19h68v-386
h-77q-122 0 -191 149q-106 -144 -366 -144q-75 0 -163 27q-101 29 -140 78q-71 -110 -159 -110h-79z" />
    <glyph glyph-name="uniFD24" unicode="&#xfec0;&#xfef2;" horiz-adv-x="2489" arabic-form="final" 
d="M2211 431q0 95 -116 96h-2q-107 0 -292 -176q17 0 40 -1h69q124 0 220 28q81 26 81 53zM846 -663q5 -4 5 -9q0 -6 -6 -13l-99 -100q-4 -5 -12 -5q-4 0 -11 5l-95 94l-92 -94q-6 -5 -12 -5t-13 5l-98 100q-6 4 -6 11t6 16l93 93q6 8 13 8q8 0 16 -8l93 -89l88 89q7 7 14 7
t14 -7zM2130 1084q5 -5 5 -10q0 -7 -7 -15l-114 -111q-5 -5 -12 -5q-6 0 -14 5l-116 111q-4 4 -4 10q0 8 6 18l109 109q6 8 12 8q7 0 15 -8zM1337 0q-17 0 -73 51q-63 57 -81 66q-73 37 -223 37q-90 0 -134 -16q-29 -8 -29 -21q0 -20 94 -20q158 0 213 -17q116 -34 116 -151
q0 -362 -589 -362q-256 0 -379 85q-145 98 -146 333v9q0 106 46 235q47 133 104 133q65 0 65 -75q0 -35 -8 -68.5t-8 -86.5q0 -240 418 -240q210 0 339 27q44 8 44 25q0 10 -44 15q-37 4 -157 4q-121 0 -175 19q-82 26 -82 108v4q0 170 248 244q161 48 387 48h123
q55 0 81 49q9 20 33 98q14 49 45 49q43 0 59 -92.5t69 -92.5q3 0 87 101q96 112 187 185q128 99 242 99q104 0 167 -73q53 -61 53 -158q0 -81 -31 -146q10 -19 46 -19h68v-386h-77q-122 0 -191 149q-106 -144 -366 -144q-75 0 -163 27q-101 29 -140 78q-71 -110 -159 -110
h-79z" />
    <glyph glyph-name="uniFD29" unicode="&#xfeb8;&#xfeae;" horiz-adv-x="1825" arabic-form="final" 
d="M802 0q-29 0 -61 20v-73q0 -89 -54 -205t-96 -163q-21 -20 -53 -20h-397q-69 0 -69 56q0 35 31 49q107 49 274 165q212 145 214 208v1q0 51 -193 225l139 280q5 15 13 15q7 0 16 -10q103 -105 147 -134q53 -28 105 -28h49q65 0 90 47q17 74 22 89q22 57 61 57
q42 0 54 -52q9 -30 26 -94q19 -49 76 -49q48 0 67 49q16 73 23 88q22 56 58 56q39 0 55 -51q6 -29 20 -93q15 -48 66 -48q49 0 67 48q7 42 20.5 91t56.5 51h3q37 0 51 -51q7 -28 22 -91q19 -47 78 -47h65v-386h-67q-81 0 -159 112q-83 -110 -150 -110q-45 0 -91 41
q-39 35 -55 73q-77 -114 -142 -114q-94 0 -151 114q-76 -116 -164 -116h-67zM1222 1102q-5 4 -5 9t7 12l100 100q4 5 9 5q4 0 9 -5l100 -100q5 -4 5 -9q0 -7 -8 -16l-92 -94q-5 -6 -11 -6q-5 0 -10 6zM1113 909q-3 4 -3 8q0 5 5 12l99 99q6 5 11 5t10 -5l97 -97l98 97
q5 5 9 5q5 0 10 -5l103 -99q3 -5 3 -10q0 -6 -4 -13l-93 -93q-8 -9 -14 -9q-5 0 -12 9l-102 93l-91 -93q-4 -7 -10 -7t-13 7z" />
    <glyph glyph-name="uniFD2A" unicode="&#xfeb4;&#xfeae;" horiz-adv-x="1825" arabic-form="final" 
d="M802 0q-29 0 -61 20v-73q0 -89 -54 -205t-96 -163q-21 -20 -53 -20h-397q-69 0 -69 56q0 35 31 49q107 49 274 165q212 145 214 208v1q0 51 -193 225l139 280q5 15 13 15q7 0 16 -10q103 -105 147 -134q53 -28 105 -28h49q65 0 90 47q17 74 22 89q22 57 61 57
q42 0 54 -52q9 -30 26 -94q19 -49 76 -49q48 0 67 49q16 73 23 88q22 56 58 56q39 0 55 -51q6 -29 20 -93q15 -48 66 -48q49 0 67 48q7 42 20.5 91t56.5 51h3q37 0 51 -51q7 -28 22 -91q19 -47 78 -47h65v-386h-67q-81 0 -159 112q-83 -110 -150 -110q-45 0 -91 41
q-39 35 -55 73q-77 -114 -142 -114q-94 0 -151 114q-76 -116 -164 -116h-67z" />
    <glyph glyph-name="uniFD2B" unicode="&#xfebc;&#xfeae;" horiz-adv-x="1949" arabic-form="final" 
d="M1671 431q0 95 -117 96h-2q-106 0 -291 -176q16 0 40 -1h68q124 0 221 28q81 26 81 53zM802 0q-29 0 -61 20v-73q0 -89 -54 -205t-96 -163q-21 -20 -53 -20h-397q-69 0 -69 56q0 35 31 49q107 49 274 165q212 145 214 208v1q0 51 -193 225l139 280q5 15 13 15q7 0 16 -10
q103 -105 147 -134q53 -28 105 -28h48q55 0 81 49q9 20 32 98q15 49 46 49q43 0 59 -92.5t68 -92.5q3 0 88 101q96 112 187 185q127 99 242 99q104 0 167 -73q53 -61 53 -158q0 -81 -31 -146q10 -19 45 -19h69v-386h-77q-122 0 -191 149q-106 -144 -367 -144q-74 0 -163 27
q-100 29 -139 78q-71 -110 -159 -110h-74z" />
    <glyph glyph-name="uniFD2C" unicode="&#xfec0;&#xfeae;" horiz-adv-x="1949" arabic-form="final" 
d="M1671 431q0 95 -117 96h-2q-106 0 -291 -176q16 0 40 -1h68q124 0 221 28q81 26 81 53zM802 0q-29 0 -61 20v-73q0 -89 -54 -205t-96 -163q-21 -20 -53 -20h-397q-69 0 -69 56q0 35 31 49q107 49 274 165q212 145 214 208v1q0 51 -193 225l139 280q5 15 13 15q7 0 16 -10
q103 -105 147 -134q53 -28 105 -28h48q55 0 81 49q9 20 32 98q15 49 46 49q43 0 59 -92.5t68 -92.5q3 0 88 101q96 112 187 185q127 99 242 99q104 0 167 -73q53 -61 53 -158q0 -81 -31 -146q10 -19 45 -19h69v-386h-77q-122 0 -191 149q-106 -144 -367 -144q-74 0 -163 27
q-100 29 -139 78q-71 -110 -159 -110h-74zM1590 1084q5 -5 5 -10q0 -7 -7 -15l-114 -111q-6 -5 -12 -5q-7 0 -14 5l-116 111q-4 4 -4 10q0 8 6 18l108 109q6 8 13 8t15 -8z" />
    <glyph glyph-name="uniFEF5" unicode="&#xfedf;&#xfe82;" horiz-adv-x="1078" arabic-form="isolated" 
d="M1064 962q9 -23 14 -53q0 -20 -18 -20t-61 17v-25q0 -165 -50 -298q-34 -89 -95 -150q66 -120 70 -204q0 -10 -27 -112q-24 -91 -45 -100q-107 -41 -317 -41q-59 0 -125 4q-46 2 -48 20q0 14 12 43q22 49 41 197q33 18 96 57q97 66 138 130q-124 183 -278 315l-33 -55
l-159 219q-9 13 -9 28q0 8 2 16l81 249q12 39 41 43q14 0 40 -14q100 -90 234 -289q122 -181 187 -321q26 51 26 115v9q-3 177 -93 319l215 201q12 10 33 22q12 0 20 -27zM769 244q-6 31 -39 67q-50 -59 -144 -101q37 -5 70 -5q51 0 93 12q21 6 21 20q0 3 -1 7zM247 1529
q77 -29 171 -31h5q81 0 148 33q33 16 69 35q26 0 28 -35v-2q0 -84 -148 -153q-125 -60 -211 -60q-103 0 -197 38q-23 0 -39.5 -41.5t-38.5 -43.5q-34 0 -34 65q0 37 50 137q45 91 83 100l11 -4q20 -10 103 -38z" />
    <glyph glyph-name="uniFEF6" unicode="&#xfee0;&#xfe82;" horiz-adv-x="1193" arabic-form="final" 
d="M1216 0h-95q-139 0 -191 105q-44 88 -44 316q-27 -82 -103 -228q-61 -116 -104 -176q-8 -13 -236 -34q-144 -14 -188 -14q-41 0 -43 48v4q0 26 29 46q227 135 347 319q8 14 8 35q0 77 -73 216.5t-129 166.5l-32 -42l-182 214q-15 19 -15 38q0 8 2 15l73 226q15 48 45 48
q27 0 49 -22q160 -118 279 -380q93 -206 105 -354q79 122 278 687q17 50 59 51h3q45 0 48 -61q4 -67 4 -86q0 -56 -16 -286q-10 -173 -10 -270q0 -196 67 -196h65v-386zM247 1569q77 -29 171 -31h5q81 0 148 33q33 16 69 35q26 0 28 -35v-2q0 -84 -148 -153
q-125 -60 -211 -60q-103 0 -197 38q-23 0 -39.5 -41.5t-38.5 -43.5q-34 0 -34 65q0 37 50 137q44 89 81 100l28 -11q27 -10 88 -31z" />
    <glyph glyph-name="uniFEF7" unicode="&#xfedf;&#xfe84;" horiz-adv-x="1014" arabic-form="isolated" 
d="M1000 962q9 -23 14 -53q0 -20 -18 -20t-61 17v-25q0 -165 -50 -298q-34 -89 -95 -150q66 -120 70 -204q0 -10 -27 -112q-24 -91 -45 -100q-107 -41 -317 -41q-59 0 -125 4q-46 2 -48 20q0 14 12 43q22 49 41 197q33 18 96 57q97 66 138 130q-124 183 -278 315l-33 -55
l-159 219q-9 13 -9 28q0 8 2 16l81 249q12 39 41 43q14 0 40 -14q100 -90 234 -289q122 -181 187 -321q26 51 26 115v9q-3 177 -93 319l215 201q12 10 33 22q12 0 20 -27zM705 244q-6 31 -39 67q-50 -59 -144 -101q37 -5 70 -5q51 0 93 12q21 6 21 20q0 3 -1 7zM384 1569
q-24 12 -67 13q-37 0 -71 -13q-41 -18 -41 -51q0 -38 80 -38q25 6 156 47l-19 -121q-192 -58 -341 -161l5 95q32 27 88 65q-26 0 -46.5 27.5t-22.5 57.5v5q0 57 45 126q47 72 112 72q92 0 134 -85q6 -10 6 -20q0 -15 -18 -19z" />
    <glyph glyph-name="uniFEF8" unicode="&#xfee0;&#xfe84;" horiz-adv-x="1116" arabic-form="final" 
d="M1139 0h-95q-139 0 -191 105q-45 88 -45 316q-26 -82 -103 -228q-61 -116 -104 -176q-8 -13 -236 -34q-144 -14 -187 -14q-41 0 -43 48v4q0 26 29 46q227 135 346 319q8 14 8 35q0 77 -72.5 216.5t-129.5 166.5l-32 -42l-181 214q-16 19 -16 39q0 7 2 14l73 226
q16 48 46 48q27 0 49 -22q159 -118 279 -380q93 -206 105 -354q79 122 277 687q18 50 60 51h3q45 0 48 -61q3 -67 3 -86q0 -56 -15 -286q-10 -173 -10 -270q0 -196 66 -196h66v-386zM365 1618q-28 12 -67 14q-37 0 -71 -14q-41 -19 -41 -51q0 -39 80 -39q25 6 156 47
l-19 -120q-192 -58 -341 -161l5 94q32 28 88 65q-26 0 -46.5 28.5t-22.5 56.5v5q0 57 45 127q47 72 112 72q92 0 134 -86q6 -10 6 -20q0 -14 -18 -18z" />
    <glyph glyph-name="uniFEF9" unicode="&#xfedf;&#xfe88;" horiz-adv-x="995" arabic-form="isolated" 
d="M981 962q9 -23 14 -53q0 -20 -18 -20t-61 17v-25q0 -165 -50 -298q-34 -89 -95 -150q66 -120 70 -204q0 -10 -27 -112q-24 -91 -45 -100q-107 -41 -317 -41q-59 0 -125 4q-46 2 -48 20q0 14 12 43q22 49 41 197q33 18 96 57q97 66 138 130q-124 183 -278 315l-33 -55
l-159 219q-9 13 -9 28q0 8 2 16l81 249q12 39 41 43q14 0 40 -14q100 -90 234 -289q122 -181 187 -321q26 51 26 115v9q-3 177 -93 319l215 201q12 10 33 22q12 0 20 -27zM686 244q-6 31 -39 67q-50 -59 -144 -101q37 -5 70 -5q51 0 93 12q21 6 21 21q0 3 -1 6zM458 -241
q-22 12 -67 14q-38 0 -71 -14q-41 -19 -41 -51q0 -39 80 -39q25 7 156 48l-18 -121q-193 -57 -342 -161l5 95q32 27 89 65q-28 0 -48.5 27.5t-21.5 56.5v3q0 59 46 129q46 72 112 72q91 0 134 -85q5 -10 5 -20q0 -15 -18 -19z" />
    <glyph glyph-name="uniFEFA" unicode="&#xfee0;&#xfe88;" horiz-adv-x="1116" arabic-form="final" 
d="M1139 0h-95q-139 0 -191 105q-45 88 -45 316q-26 -82 -103 -228q-61 -116 -104 -176q-8 -13 -236 -34q-144 -14 -187 -14q-41 0 -43 48v4q0 26 29 46q227 135 346 319q8 14 8 35q0 77 -72.5 216.5t-129.5 166.5l-32 -42l-181 214q-16 19 -16 39q0 7 2 14l73 226
q16 48 46 48q27 0 49 -22q159 -118 279 -380q93 -206 104 -354q80 122 278 687q18 50 59 51h3q46 0 48 -61q4 -67 4 -86q0 -56 -15 -286q-10 -173 -10 -270q0 -196 66 -196h66v-386zM516 -241q-30 12 -67 14q-37 0 -71 -14q-41 -19 -41 -51q0 -39 80 -39q26 7 156 48
l-18 -121q-192 -57 -342 -161l6 95q31 27 88 65q-27 0 -47.5 27.5t-22.5 56.5v3q0 59 46 129q46 72 112 72q91 0 134 -85q5 -10 5 -20q0 -15 -18 -19z" />
    <glyph glyph-name="uniFEFB" unicode="&#xfedf;&#xfe8e;" horiz-adv-x="994" arabic-form="isolated" 
d="M980 962q9 -23 14 -53q0 -20 -18 -20t-61 17v-25q0 -165 -50 -298q-34 -89 -95 -150q66 -120 70 -204q0 -10 -27 -112q-24 -91 -45 -100q-107 -41 -317 -41q-59 0 -125 4q-46 2 -48 20q0 14 12 43q22 49 41 197q33 18 96 57q97 66 138 130q-124 183 -278 315l-33 -55
l-159 219q-9 13 -9 28q0 8 2 16l81 249q12 39 41 43q14 0 40 -14q100 -90 234 -289q122 -181 187 -321q26 51 26 115v9q-3 177 -93 319l215 201q12 10 33 22q12 0 20 -27zM685 244q-6 31 -39 67q-50 -59 -144 -101q37 -5 70 -5q51 0 93 12q21 6 21 21q0 3 -1 6z" />
    <glyph glyph-name="uniFEFC" unicode="&#xfee0;&#xfe8e;" horiz-adv-x="1116" arabic-form="final" 
d="M1139 0h-95q-139 0 -191 105q-45 88 -45 316q-26 -82 -103 -228q-61 -116 -104 -176q-8 -13 -236 -34q-144 -14 -187 -14q-41 0 -43 48v4q0 26 29 46q227 135 346 319q8 14 8 35q0 77 -72.5 216.5t-129.5 166.5l-32 -42l-181 214q-16 19 -16 39q0 7 2 14l73 226
q16 48 46 48q27 0 49 -22q159 -118 279 -380q93 -206 104 -354q80 122 278 687q18 50 59 51h3q46 0 48 -61q4 -67 4 -86q0 -56 -15 -286q-10 -173 -10 -270q0 -196 66 -196h66v-386z" />
    <glyph glyph-name="uniFE8B_uniFEE4.liga" unicode="&#xfe8b;&#xfee4;" horiz-adv-x="1187" 
d="M1168 1209l-19 -122q-190 -56 -342 -160l5 96q47 38 90 63q-29 0 -49 26t-21 57v3q0 65 44 129q49 73 112 73q42 0 90 -32.5t48 -74.5q0 -15 -17 -15q-9 0 -32 6t-35 6q-42 0 -75 -18q-36 -18 -36 -47v-2q0 -37 81 -37q35 11 156 49zM404 525q-34 0 -48 -39
q-8 -21 -8 -47q0 -23 6 -49q14 -55 47.5 -94.5t67.5 -39.5t49 40q7 20 7 45q0 23 -6 49q-14 56 -47.5 95.5t-67.5 39.5zM955 386q50 0 53 26q0 12 -16 34q-63 78 -135 143q-7 6 -7 13t7 16l159 228q6 19 16 22q5 0 21 -18q134 -163 134 -405q0 -230 -68 -331
q-77 -112 -280 -114h-51q-46 0 -89 42.5t-59 89.5v2q-60 -112 -169 -134q-24 -5 -48 -5h-8q-29 1 -56 10q-53 17 -103 60q-36 31 -63 70q-65 -135 -158 -135h-58v386h37q50 0 77 22q25 20 31 57q10 51 33 98q59 119 173 142q25 5 49 5h8q28 -2 55 -10q53 -17 103 -59
q62 -54 126 -178q34 -76 101 -77h185z" />
    <glyph glyph-name="uniFE8B_uniFEF0.liga" unicode="&#xfe8b;&#xfef0;" horiz-adv-x="1766" 
d="M1701 1209l-18 -122q-191 -56 -343 -160l5 96q47 38 90 63q-29 0 -48.5 26t-20.5 57v6q0 64 44 126q49 73 112 73q41 0 89 -32.5t48 -74.5q0 -15 -17 -15q-8 0 -31.5 6t-35.5 6q-42 0 -74 -18q-37 -18 -37 -47v-2q0 -37 81 -37q36 11 156 49zM1337 0q-17 0 -73 51
q-63 57 -81 66q-73 37 -223 37q-90 0 -134 -16q-29 -8 -29 -21q0 -20 94 -20q158 0 213 -17q116 -34 116 -151q0 -362 -589 -362q-256 0 -379 85q-145 98 -146 333v9q0 106 46 235q47 133 104 133q65 0 65 -75q0 -35 -8 -68.5t-8 -86.5q0 -240 418 -240q210 0 339 27
q44 8 44 25q0 10 -44 15q-37 4 -157 4q-121 0 -175 19q-82 26 -82 108v4q0 170 248 244q161 48 387 48h251q50 0 53 26q0 12 -16 34q-63 78 -135 143q-7 6 -7 13t7 16l158 228q7 19 17 22q5 0 21 -18q134 -163 134 -405q0 -230 -69 -331q-77 -114 -286 -114h-74z" />
    <glyph glyph-name="uniFE8B_uniFEF2.liga" unicode="&#xfe8b;&#xfef2;" horiz-adv-x="1766" 
d="M846 -663q5 -4 5 -9q0 -6 -6 -13l-99 -100q-4 -5 -12 -5q-4 0 -11 5l-95 94l-92 -94q-6 -5 -12 -5t-13 5l-98 100q-6 4 -6 11t6 16l93 93q6 8 13 8q8 0 16 -8l93 -89l88 89q7 7 14 7t14 -7zM1701 1209l-18 -122q-191 -56 -343 -160l5 96q47 38 90 63q-29 0 -48.5 26
t-20.5 57v6q0 64 44 126q49 73 112 73q41 0 89 -32.5t48 -74.5q0 -15 -17 -15q-8 0 -31.5 6t-35.5 6q-42 0 -74 -18q-37 -18 -37 -47v-2q0 -37 81 -37q36 11 156 49zM1337 0q-17 0 -73 51q-63 57 -81 66q-73 37 -223 37q-90 0 -134 -16q-29 -8 -29 -21q0 -20 94 -20
q158 0 213 -17q116 -34 116 -151q0 -362 -589 -362q-256 0 -379 85q-145 98 -146 333v9q0 106 46 235q47 133 104 133q65 0 65 -75q0 -35 -8 -68.5t-8 -86.5q0 -240 418 -240q210 0 339 27q44 8 44 25q0 10 -44 15q-37 4 -157 4q-121 0 -175 19q-82 26 -82 108v4
q0 170 248 244q161 48 387 48h251q50 0 53 26q0 12 -16 34q-63 78 -135 143q-7 6 -7 13t7 16l158 228q7 19 17 22q5 0 21 -18q134 -163 134 -405q0 -230 -69 -331q-77 -114 -286 -114h-74z" />
    <glyph glyph-name="uniFE91_uniFEE4.liga" unicode="&#xfe91;&#xfee4;" horiz-adv-x="1178" 
d="M1115 -246q5 -5 5 -9q0 -6 -7 -13l-110 -117q-6 -6 -12 -6q-7 0 -14 6l-116 114q-6 6 -6 13q0 9 10 17l106 107q6 8 13 8t15 -8zM404 525q-34 0 -48 -39q-8 -21 -8 -47q0 -23 6 -49q14 -55 47.5 -94.5t67.5 -39.5t49 40q7 20 7 45q0 23 -6 49q-14 56 -47.5 95.5
t-67.5 39.5zM946 386q50 0 53 26q0 12 -16 34q-63 78 -135 143q-7 6 -7 13t7 16l158 228q7 19 17 22q5 0 21 -18q134 -163 134 -405q0 -230 -69 -331q-74 -110 -270 -114h-51q-46 0 -89 42.5t-59 89.5v2q-60 -112 -169 -134q-24 -5 -48 -5h-8q-29 1 -56 10q-53 17 -103 60
q-36 31 -63 70q-65 -135 -158 -135h-58v386h37q50 0 77 22q25 20 31 57q10 51 33 98q59 119 173 142q25 5 49 5h8q28 -2 55 -10q53 -17 103 -59q62 -54 126 -178q34 -76 101 -77h176z" />
    <glyph glyph-name="uniFE92_uniFEE6.liga" unicode="&#xfe92;&#xfee6;" horiz-adv-x="1766" 
d="M1157 0q-40 2 -63 39q0 -466 -514 -466q-263 0 -379 118q-94 95 -96 258v5q0 93 39 225q47 154 106 154q35 0 45 -22q6 -21 6 -69q0 -6 -9.5 -60t-9.5 -75q0 -166 334 -166q103 0 189 22q134 33 134 106q0 59 -171 197l131 258q6 12 15 12q8 0 19 -12q138 -138 207 -138
h167q87 0 123 49q13 28 36 103q16 56 57 56t53 -56q17 -75 28 -103q31 -49 120 -49h65v-386h-65q-121 0 -189 114q-63 -114 -202 -114h-176zM1562 -246q6 -6 6 -11q0 -6 -6 -11l-115 -117q-7 -5 -12 -5q-7 0 -14 5l-114 114q-6 7 -6 14q0 8 8 16l106 107q7 7 14 7t14 -7z
M679 650q4 -5 4 -11t-6 -13l-112 -117q-6 -5 -12 -5t-14 5l-115 113q-6 6 -6 13q0 9 9 18l107 109q7 8 13 8q7 0 14 -8z" />
    <glyph glyph-name="uniFE91_uniFEF0.liga" unicode="&#xfe91;&#xfef0;" horiz-adv-x="1766" 
d="M1703 -246q5 -5 5 -9q0 -6 -7 -13l-110 -117q-6 -6 -12 -6q-7 0 -14 6l-116 114q-6 6 -6 13q0 9 10 17l106 107q6 8 13 8t15 -8zM1337 0q-17 0 -73 51q-63 57 -81 66q-73 37 -223 37q-90 0 -134 -16q-29 -8 -29 -21q0 -20 94 -20q158 0 213 -17q116 -34 116 -151
q0 -362 -589 -362q-256 0 -379 85q-145 98 -146 333v9q0 106 46 235q47 133 104 133q65 0 65 -75q0 -35 -8 -68.5t-8 -86.5q0 -240 418 -240q210 0 339 27q44 8 44 25q0 10 -44 15q-37 4 -157 4q-121 0 -175 19q-82 26 -82 108v4q0 170 248 244q161 48 387 48h251
q50 0 53 26q0 12 -16 34q-63 78 -135 143q-7 6 -7 13t7 16l158 228q7 19 17 22q5 0 21 -18q134 -163 134 -405q0 -230 -69 -331q-77 -114 -286 -114h-74z" />
    <glyph glyph-name="uniFE91_uniFEF2.liga" unicode="&#xfe91;&#xfef2;" horiz-adv-x="1766" 
d="M846 -663q5 -4 5 -9q0 -6 -6 -13l-99 -100q-4 -5 -12 -5q-4 0 -11 5l-95 94l-92 -94q-6 -5 -12 -5t-13 5l-98 100q-6 4 -6 11t6 16l93 93q6 8 13 8q8 0 16 -8l93 -89l88 89q7 7 14 7t14 -7zM1703 -246q5 -5 5 -9q0 -6 -7 -13l-110 -117q-6 -6 -12 -6q-7 0 -14 6l-116 114
q-6 6 -6 13q0 9 10 17l106 107q6 8 13 8t15 -8zM1337 0q-17 0 -73 51q-63 57 -81 66q-73 37 -223 37q-90 0 -134 -16q-29 -8 -29 -21q0 -20 94 -20q158 0 213 -17q116 -34 116 -151q0 -362 -589 -362q-256 0 -379 85q-145 98 -146 333v9q0 106 46 235q47 133 104 133
q65 0 65 -75q0 -35 -8 -68.5t-8 -86.5q0 -240 418 -240q210 0 339 27q44 8 44 25q0 10 -44 15q-37 4 -157 4q-121 0 -175 19q-82 26 -82 108v4q0 170 248 244q161 48 387 48h251q50 0 53 26q0 12 -16 34q-63 78 -135 143q-7 6 -7 13t7 16l158 228q7 19 17 22q5 0 21 -18
q134 -163 134 -405q0 -230 -69 -331q-77 -114 -286 -114h-74z" />
    <glyph glyph-name="uniFE97_uniFEE4.liga" unicode="&#xfe97;&#xfee4;" horiz-adv-x="1223" 
d="M404 525q-34 0 -48 -39q-8 -21 -8 -47q0 -23 6 -49q14 -55 47.5 -94.5t67.5 -39.5t49 40q7 20 7 45q0 23 -6 49q-14 56 -47.5 95.5t-67.5 39.5zM1177 1101q6 -5 6 -9q0 -6 -8 -12l-98 -100q-4 -5 -10 -5q-5 0 -11 5l-95 94l-93 -94q-5 -4 -10 -4t-12 4l-102 99
q-5 5 -5 10q0 7 7 15l93 93q7 7 14 7t13 -7l95 -89l90 89q7 7 12 7q6 0 12 -7zM992 386q49 0 53 26q0 12 -17 34q-63 78 -135 143q-7 6 -7 13t7 16l159 228q6 19 16 22q6 0 21 -18q134 -163 134 -405q0 -230 -68 -331q-77 -114 -286 -114h-81q-46 0 -89 42.5t-59 89.5v2
q-60 -112 -169 -134q-24 -5 -48 -5h-8q-29 1 -56 10q-53 17 -103 60q-36 31 -63 70q-65 -135 -158 -135h-58v386h37q50 0 77 22q25 20 31 57q10 51 33 98q59 119 173 142q25 5 49 5h8q28 -2 55 -10q53 -17 103 -59q62 -54 126 -178q34 -76 101 -77h222z" />
    <glyph glyph-name="uniFE98_uniFEE6.liga" unicode="&#xfe98;&#xfee6;" horiz-adv-x="1776" 
d="M679 650q4 -5 4 -11t-6 -13l-112 -117q-6 -5 -12 -5t-14 5l-115 113q-6 6 -6 13q0 9 9 18l107 109q7 8 13 8q7 0 14 -8zM1162 0q-44 0 -68 39q0 -466 -514 -466q-263 0 -379 118q-94 95 -96 258v5q0 93 39 225q47 154 106 154q35 0 45 -22q6 -21 6 -69q0 -6 -9.5 -60
t-9.5 -75q0 -166 334 -166q103 0 189 22q134 33 134 106q0 59 -171 197l131 258q6 12 15 12q8 0 19 -12q138 -138 207 -138h176q87 0 123 49q13 28 36 103q17 56 57 56q41 0 53 -56q17 -75 29 -103q31 -49 119 -49h66v-386h-66q-121 0 -189 114q-63 -114 -202 -114h-180z
M1629 920q4 -4 4 -9q0 -6 -6 -11l-99 -100q-6 -5 -11 -5q-6 0 -13 5l-95 92l-93 -92q-4 -5 -10 -5q-5 0 -11 5l-100 98q-6 6 -6 12q0 7 8 16l91 93q6 7 13 7q6 0 13 -7l95 -90l88 90q7 8 14 8q8 0 15 -8z" />
    <glyph glyph-name="uniFE97_uniFEF0.liga" unicode="&#xfe97;&#xfef0;" horiz-adv-x="1824" 
d="M1812 1101q6 -5 6 -9q0 -6 -8 -12l-98 -100q-4 -5 -10 -5q-5 0 -11 5l-95 94l-93 -94q-5 -4 -10 -4t-12 4l-102 99q-5 5 -5 10q0 7 7 15l93 93q7 7 14 7t14 -7l94 -89l90 89q7 7 12 7q7 0 12 -7zM1337 0q-17 0 -73 51q-63 57 -81 66q-73 37 -223 37q-90 0 -134 -16
q-29 -8 -29 -21q0 -20 94 -20q158 0 213 -17q116 -34 116 -151q0 -362 -589 -362q-256 0 -379 85q-145 98 -146 333v9q0 106 46 235q47 133 104 133q65 0 65 -75q0 -35 -8 -68.5t-8 -86.5q0 -240 418 -240q210 0 339 27q44 8 44 25q0 10 -44 15q-37 4 -157 4q-121 0 -175 19
q-82 26 -82 108v4q0 170 248 244q161 48 387 48h306q49 0 53 26q0 12 -17 34q-62 78 -134 143q-7 6 -7 13t7 16l158 228q6 19 17 22q5 0 20 -18q134 -163 134 -405q0 -230 -68 -331q-77 -114 -286 -114h-129z" />
    <glyph glyph-name="uniFE97_uniFEF2.liga" unicode="&#xfe97;&#xfef2;" horiz-adv-x="1824" 
d="M846 -663q5 -4 5 -9q0 -6 -6 -13l-99 -100q-4 -5 -12 -5q-4 0 -11 5l-95 94l-92 -94q-6 -5 -12 -5t-13 5l-98 100q-6 4 -6 11t6 16l93 93q6 8 13 8q8 0 16 -8l93 -89l88 89q7 7 14 7t14 -7zM1812 1101q6 -5 6 -9q0 -6 -8 -12l-98 -100q-4 -5 -10 -5q-5 0 -11 5l-95 94
l-93 -94q-5 -4 -10 -4t-12 4l-102 99q-5 5 -5 10q0 7 7 15l93 93q7 7 14 7t14 -7l94 -89l90 89q7 7 12 7q7 0 12 -7zM1337 0q-17 0 -73 51q-63 57 -81 66q-73 37 -223 37q-90 0 -134 -16q-29 -8 -29 -21q0 -20 94 -20q158 0 213 -17q116 -34 116 -151q0 -362 -589 -362
q-256 0 -379 85q-145 98 -146 333v9q0 106 46 235q47 133 104 133q65 0 65 -75q0 -35 -8 -68.5t-8 -86.5q0 -240 418 -240q210 0 339 27q44 8 44 25q0 10 -44 15q-37 4 -157 4q-121 0 -175 19q-82 26 -82 108v4q0 170 248 244q161 48 387 48h306q49 0 53 26q0 12 -17 34
q-62 78 -134 143q-7 6 -7 13t7 16l158 228q6 19 17 22q5 0 20 -18q134 -163 134 -405q0 -230 -68 -331q-77 -114 -286 -114h-129z" />
    <glyph glyph-name="uniFE9C_uniFEAE.liga" unicode="&#xfe9c;&#xfeae;" horiz-adv-x="1410" 
d="M786 887q-3 6 -3 10t3 11l102 99q5 5 10 5t10 -5l97 -98l97 98q6 5 12 5q5 0 10 -5l101 -99q6 -5 6 -11t-7 -13l-95 -95q-5 -7 -11 -7q-7 0 -15 7l-98 95v-1l-91 -94q-5 -6 -11 -6t-13 6zM801 0q-29 0 -60 20v-73q0 -89 -54 -205t-96 -163q-21 -20 -53 -20h-397
q-69 0 -69 56q0 35 31 49q107 49 274 165q212 145 214 208v1q0 51 -193 225l139 280q5 15 13 15q7 0 16 -10q103 -105 147 -134q53 -28 105 -28h132q88 0 123 49q14 28 37 103q16 56 57 56t53 -56q16 -75 28 -103q31 -49 119 -49h66v-386h-66q-121 0 -188 114
q-63 -114 -202 -114h-176zM895 1080q-5 4 -5 11q0 5 5 10l98 99q6 6 12 6t12 -6l100 -97q5 -5 5 -11q0 -8 -8 -16l-92 -94q-6 -6 -13 -6q-6 0 -14 6z" />
    <glyph glyph-name="uniFE9B_uniFEE4.liga" unicode="&#xfe9b;&#xfee4;" horiz-adv-x="1260" 
d="M882 1267q-6 5 -6 11q0 5 6 11l100 99q4 6 9 6q4 0 9 -6l100 -99q5 -5 5 -10q0 -6 -7 -14l-92 -94q-6 -7 -11 -7q-6 0 -11 7zM773 1075q-6 6 -6 10q0 5 6 9l101 102q4 3 10 3q4 0 10 -3l94 -98l101 98q3 3 9 3q4 0 11 -3l100 -100q6 -5 6 -11q0 -7 -7 -15l-92 -93
q-7 -6 -14 -6q-6 0 -13 6l-101 93l-91 -93q-3 -7 -10 -7q-5 0 -12 7zM404 525q-34 0 -48 -39q-8 -21 -8 -47q0 -23 6 -49q14 -55 47.5 -94.5t67.5 -39.5t49 40q7 20 7 45q0 23 -6 49q-14 56 -47.5 95.5t-67.5 39.5zM1028 386q50 0 53 26q0 12 -16 34q-63 78 -135 143
q-7 6 -7 13t7 16l158 228q7 19 17 22q5 0 21 -18q134 -163 134 -405q0 -230 -69 -331q-77 -114 -286 -114h-117q-46 0 -89 42.5t-59 89.5v2q-60 -112 -169 -134q-24 -5 -48 -5h-8q-29 1 -56 10q-53 17 -103 60q-36 31 -63 70q-65 -135 -158 -135h-58v386h37q50 0 77 22
q25 20 31 57q10 51 33 98q59 119 173 142q25 5 49 5h8q28 -2 55 -10q53 -17 103 -59q62 -54 126 -178q34 -76 101 -77h258z" />
    <glyph glyph-name="uniFE9C_uniFEE6.liga" unicode="&#xfe9c;&#xfee6;" horiz-adv-x="1766" 
d="M1157 0q-40 2 -63 39q0 -466 -514 -466q-263 0 -379 118q-94 95 -96 258v5q0 93 39 225q47 154 106 154q35 0 45 -22q6 -21 6 -69q0 -6 -9.5 -60t-9.5 -75q0 -166 334 -166q103 0 189 22q134 33 134 106q0 59 -171 197l131 258q6 12 15 12q8 0 19 -12q138 -138 207 -138
h167q87 0 123 49q13 28 36 103q16 56 57 56t53 -56q17 -75 28 -103q31 -49 120 -49h65v-386h-65q-121 0 -189 114q-63 -114 -202 -114h-176zM1287 1099q-4 3 -4 11q0 4 4 10l99 98q6 6 12 6t12 -6l100 -97q5 -5 5 -11q0 -7 -8 -16l-92 -94q-6 -6 -13 -6q-6 0 -14 6z
M1179 906q-4 5 -4 10q0 3 4 11l102 98q5 5 10 5t10 -5l97 -98l97 98q6 5 12 5q5 0 10 -5l101 -98q6 -5 6 -11q0 -7 -7 -14l-95 -95q-5 -6 -11 -6q-7 0 -15 6l-98 95v-1l-91 -94q-5 -6 -11 -6t-13 6zM679 650q4 -5 4 -11t-6 -13l-112 -117q-6 -5 -12 -5t-14 5l-115 113
q-6 6 -6 13q0 9 9 18l107 109q7 8 13 8q7 0 14 -8z" />
    <glyph glyph-name="uniFE9B_uniFEF0.liga" unicode="&#xfe9b;&#xfef0;" horiz-adv-x="1848" 
d="M1470 1267q-6 5 -6 11q0 5 6 11l100 99q4 6 9 6q4 0 9 -6l100 -99q5 -5 5 -10q0 -6 -7 -14l-92 -94q-6 -7 -11 -7q-6 0 -11 7zM1361 1075q-6 6 -6 10q0 5 6 9l101 102q4 3 10 3q4 0 10 -3l94 -98l101 98q3 3 9 3q4 0 11 -3l100 -100q6 -5 6 -11q0 -7 -7 -15l-92 -93
q-7 -6 -14 -6q-6 0 -13 6l-101 93l-91 -93q-3 -7 -10 -7q-5 0 -12 7zM1337 0q-17 0 -73 51q-63 57 -81 66q-73 37 -223 37q-90 0 -134 -16q-29 -8 -29 -21q0 -20 94 -20q158 0 213 -17q116 -34 116 -151q0 -362 -589 -362q-256 0 -379 85q-145 98 -146 333v9q0 106 46 235
q47 133 104 133q65 0 65 -75q0 -35 -8 -68.5t-8 -86.5q0 -240 418 -240q210 0 339 27q44 8 44 25q0 10 -44 15q-37 4 -157 4q-121 0 -175 19q-82 26 -82 108v4q0 170 248 244q161 48 387 48h333q50 0 53 26q0 12 -16 34q-63 78 -135 143q-7 6 -7 13t7 16l158 228q7 19 17 22
q5 0 21 -18q134 -163 134 -405q0 -230 -69 -331q-77 -114 -286 -114h-156z" />
    <glyph glyph-name="uniFE9B_uniFEF2.liga" unicode="&#xfe9b;&#xfef2;" horiz-adv-x="1848" 
d="M846 -663q5 -4 5 -9q0 -6 -6 -13l-99 -100q-4 -5 -12 -5q-4 0 -11 5l-95 94l-92 -94q-6 -5 -12 -5t-13 5l-98 100q-6 4 -6 11t6 16l93 93q6 8 13 8q8 0 16 -8l93 -89l88 89q7 7 14 7t14 -7zM1470 1267q-6 5 -6 11q0 5 6 11l100 99q4 6 9 6q4 0 9 -6l100 -99q5 -5 5 -10
q0 -6 -7 -14l-92 -94q-6 -7 -11 -7q-6 0 -11 7zM1361 1075q-6 6 -6 10q0 5 6 9l101 102q4 3 10 3q4 0 10 -3l94 -98l101 98q3 3 9 3q4 0 11 -3l100 -100q6 -5 6 -11q0 -7 -7 -15l-92 -93q-7 -6 -14 -6q-6 0 -13 6l-101 93l-91 -93q-3 -7 -10 -7q-5 0 -12 7zM1337 0
q-17 0 -73 51q-63 57 -81 66q-73 37 -223 37q-90 0 -134 -16q-29 -8 -29 -21q0 -20 94 -20q158 0 213 -17q116 -34 116 -151q0 -362 -589 -362q-256 0 -379 85q-145 98 -146 333v9q0 106 46 235q47 133 104 133q65 0 65 -75q0 -35 -8 -68.5t-8 -86.5q0 -240 418 -240
q210 0 339 27q44 8 44 25q0 10 -44 15q-37 4 -157 4q-121 0 -175 19q-82 26 -82 108v4q0 170 248 244q161 48 387 48h333q50 0 53 26q0 12 -16 34q-63 78 -135 143q-7 6 -7 13t7 16l158 228q7 19 17 22q5 0 21 -18q134 -163 134 -405q0 -230 -69 -331q-77 -114 -286 -114
h-156z" />
    <glyph glyph-name="uniFEDB_uniFEF0.liga" unicode="&#xfedb;&#xfef0;" horiz-adv-x="2141" 
d="M1337 0q-17 0 -73 51q-63 57 -81 66q-73 37 -223 37q-90 0 -134 -16q-29 -8 -29 -21q0 -20 94 -20q158 0 213 -17q116 -34 116 -151q0 -362 -589 -362q-256 0 -379 85q-145 98 -146 333v9q0 106 46 235q47 133 104 133q65 0 65 -75q0 -35 -8 -68.5t-8 -86.5
q0 -240 418 -240q210 0 339 27q44 8 44 25q0 10 -44 15q-37 4 -157 4q-121 0 -175 19q-82 26 -82 108v4q0 170 248 244q161 48 387 48h147q123 0 146 2q117 9 119 41q0 10 -12 29q-34 49 -126 137q-51 45 -150 136l45 273q4 19 19 24l655 216q5 1 13 2q2 -2 2 -16l-31 -280
q0 -17 -3 -22t-17 -9l-348 -110q90 -107 120 -173q49 -103 51 -231v-7q0 -190 -106 -293q-109 -105 -301 -105h-169z" />
    <glyph glyph-name="uniFEDC_uniFEF0.liga" unicode="&#xfedc;&#xfef0;" horiz-adv-x="2221" 
d="M1337 0q-17 0 -73 51q-63 57 -81 66q-73 37 -223 37q-90 0 -134 -16q-29 -8 -29 -21q0 -20 94 -20q158 0 213 -17q116 -34 116 -151q0 -362 -589 -362q-256 0 -379 85q-145 98 -146 333v9q0 106 46 235q47 133 104 133q65 0 65 -75q0 -35 -8 -68.5t-8 -86.5
q0 -240 418 -240q210 0 339 27q44 8 44 25q0 10 -44 15q-37 4 -157 4q-121 0 -175 19q-82 26 -82 108v4q0 170 248 244q161 48 387 48h172q205 0 205 31q0 10 -15 28q-3 4 -261 277l44 272q3 17 21 27l654 213q7 0 12 2q1 0 1 -16l-27 -277q-2 -12 -6 -24q-2 -2 -14 -8
l-385 -132q236 -273 256 -289q104 -104 214 -104h90v-386h-66q-80 0 -177 63q-81 53 -141 127q-59 -113 -169 -154q-94 -36 -242 -36h-112z" />
    <glyph glyph-name="uniFEDB_uniFEF2.liga" unicode="&#xfedb;&#xfef2;" horiz-adv-x="2141" 
d="M846 -663q5 -4 5 -9q0 -6 -6 -13l-99 -100q-4 -5 -12 -5q-4 0 -11 5l-95 94l-92 -94q-6 -5 -12 -5t-13 5l-98 100q-6 4 -6 11t6 16l93 93q6 8 13 8q8 0 16 -8l93 -89l88 89q7 7 14 7t14 -7zM1337 0q-17 0 -73 51q-63 57 -81 66q-73 37 -223 37q-90 0 -134 -16
q-29 -8 -29 -21q0 -20 94 -20q158 0 213 -17q116 -34 116 -151q0 -362 -589 -362q-256 0 -379 85q-145 98 -146 333v9q0 106 46 235q47 133 104 133q65 0 65 -75q0 -35 -8 -68.5t-8 -86.5q0 -240 418 -240q210 0 339 27q44 8 44 25q0 10 -44 15q-37 4 -157 4q-121 0 -175 19
q-82 26 -82 108v4q0 170 248 244q161 48 387 48h147q123 0 146 2q117 9 119 41q0 10 -12 29q-34 49 -126 137q-51 45 -150 136l45 273q4 19 19 24l655 216q5 1 13 2q2 -2 2 -16l-31 -280q0 -17 -3 -22t-17 -9l-348 -110q90 -107 120 -173q49 -103 51 -231v-7
q0 -190 -106 -293q-109 -105 -301 -105h-169z" />
    <glyph glyph-name="uniFEDC_uniFEF2.liga" unicode="&#xfedc;&#xfef2;" horiz-adv-x="2221" 
d="M846 -663q5 -4 5 -9q0 -6 -6 -13l-99 -100q-4 -5 -12 -5q-4 0 -11 5l-95 94l-92 -94q-6 -5 -12 -5t-13 5l-98 100q-6 4 -6 11t6 16l93 93q6 8 13 8q8 0 16 -8l93 -89l88 89q7 7 14 7t14 -7zM1337 0q-17 0 -73 51q-63 57 -81 66q-73 37 -223 37q-90 0 -134 -16
q-29 -8 -29 -21q0 -20 94 -20q158 0 213 -17q116 -34 116 -151q0 -362 -589 -362q-256 0 -379 85q-145 98 -146 333v9q0 106 46 235q47 133 104 133q65 0 65 -75q0 -35 -8 -68.5t-8 -86.5q0 -240 418 -240q210 0 339 27q44 8 44 25q0 10 -44 15q-37 4 -157 4q-121 0 -175 19
q-82 26 -82 108v4q0 170 248 244q161 48 387 48h172q205 0 205 31q0 10 -15 28q-3 4 -261 277l44 272q3 17 21 27l654 213q7 0 12 2q1 0 1 -16l-27 -277q-2 -12 -6 -24q-2 -2 -14 -8l-385 -132q236 -273 256 -289q104 -104 214 -104h90v-386h-66q-80 0 -177 63
q-81 53 -141 127q-59 -113 -169 -154q-94 -36 -242 -36h-112z" />
    <glyph glyph-name="uniFEDF_uniFB51.rlig" unicode="&#xfedf;&#xfb51;" horiz-adv-x="994" 
d="M980 962q9 -23 14 -53q0 -20 -19 -20q-17 0 -61 17v-30q0 -162 -49 -293q-34 -89 -96 -150q67 -120 71 -204q0 -10 -28 -112q-23 -91 -44 -100q-107 -41 -317 -41q-60 0 -125 4q-47 2 -48 20q0 14 11 43q23 49 41 197q34 18 97 57q97 66 138 130q-124 183 -278 315
l-33 -55l-160 219q-8 12 -8 27q0 8 2 17l81 249q12 39 41 43q14 0 39 -14q101 -90 234 -289q123 -181 188 -321q26 53 26 119v5q-3 177 -93 319l215 201q12 10 32 22q12 0 21 -27zM685 244q-7 31 -39 67q-51 -59 -144 -101q37 -5 70 -5q51 0 93 12q21 6 21 21q0 3 -1 6z
M389 1545q-16 16 -33 16q-5 0 -10 -1q-24 -6 -45 -22q-9 -6 -21 -21t-23 -31.5t-18 -29.5q-5 -9 -5 -13q0 -2 1 -3q6 -4 16 -4q3 0 7 1q14 1 29.5 4.5t29.5 8.5t20 6q24 12 40.5 23t30.5 31q0 9 -19 35zM189 1443q9 18 21 39.5t29 45.5q17 23 32 43.5t31.5 37t36 27
t45.5 12.5q28 -5 43.5 -25t21.5 -46q3 -15 3 -33q0 -15 -2 -32q-5 -38 -17 -56q-27 -47 -76 -82q-58 -41 -129 -48h-15q-28 0 -58 6q-38 7 -70 28q-2 1 -4 1q-5 0 -10 -6q-7 -8 -15.5 -19.5t-16.5 -25.5t-14 -23q-5 -6 -9 -6t-8 8q-8 14 -8 23q4 14 11 32.5t16 36.5t18 35.5
t18 30.5q6 14 17 24q6 5 15 5q6 0 13 -2q3 -4 13.5 -9.5t23.5 -10.5t24.5 -8t19.5 -3z" />
    <glyph glyph-name="uniFEE0_uniFB51.rlig" unicode="&#xfee0;&#xfb51;" horiz-adv-x="1116" 
d="M1139 0h-95q-140 0 -192 105q-44 88 -44 316q-27 -82 -103 -228q-61 -116 -104 -176q-8 -13 -236 -34q-144 -14 -188 -14q-41 0 -42 48v4q0 26 29 46q227 135 346 319q8 14 8 35q0 77 -73 216.5t-129 166.5l-32 -42l-181 214q-16 19 -16 39q0 7 2 14l73 226q15 48 45 48
q28 0 50 -22q159 -118 278 -380q93 -206 105 -354q79 122 278 687q17 50 59 51h3q46 0 48 -61q4 -67 4 -86q0 -56 -16 -286q-10 -173 -10 -270q0 -196 67 -196h66v-386zM389 1591q-16 16 -33 16q-5 0 -10 -1q-24 -6 -45 -23q-9 -5 -21 -20t-23 -32t-18 -29q-5 -9 -5 -13
q0 -2 1 -3q6 -5 17 -5q3 0 6 1q14 1 29.5 4.5t29.5 8.5t20 6q24 12 40.5 23t30.5 31q0 9 -19 36zM189 1489q9 18 21 39.5t29 44.5q17 24 32 44t31.5 37t36 27.5t45.5 12.5q28 -6 43.5 -26t21.5 -46q3 -15 3 -33q0 -15 -2 -31q-5 -38 -17 -57q-27 -46 -76 -82
q-58 -41 -129 -47q-10 -1 -19 -1q-26 0 -54 6q-38 8 -70 29h-3q-5 0 -11 -5q-7 -8 -15.5 -20t-16.5 -25.5t-14 -22.5q-5 -6 -9 -6q-5 0 -8 8q-8 13 -8 22q4 15 11 33t16 36.5t18 36t18 29.5q6 15 17 25q6 5 15 5q6 0 13 -2q3 -4 13.5 -9.5t23.5 -10.5t24.5 -8t19.5 -3z" />
    <glyph glyph-name="uniFEDF_uniFEE2.liga" unicode="&#xfedf;&#xfee2;" horiz-adv-x="1375" 
d="M700 69v4q0 51 -51 92q-104 85 -134 115q37 -256 140 -256q43 0 45 45zM885 0q-33 0 -43 20q0 -93 -36 -156q-43 -79 -128 -79q-126 0 -199 138q-54 104 -66 250q-12 5 -22 5q-24 0 -47 -25q-14 -17 -18 -49v-304q0 -29 -21.5 -102.5t-37.5 -96.5q-32 -46 -75 -46
q-57 0 -57 112q-4 313 -20 567q-1 15 -1 29q0 102 71 170q80 77 225 77q37 0 61 -3q1 75 27 75q22 0 66 -43q55 -54 156 -104q96 -49 157 -49h69q66 0 90 9q40 9 40 56v9q0 76 -32 251q-39 196 -85 366l211 188q27 24 39 24t28 -39l128 -286q10 -21 10 -37t-24 -18
q-17 0 -67 16l22 -523v-23q0 -145 -48 -243q-68 -136 -214 -136h-159z" />
    <glyph glyph-name="uniFEE4_uniFE8E.liga" unicode="&#xfee4;&#xfe8e;" horiz-adv-x="1336" 
d="M924 525q-34 0 -48 -39q-8 -21 -8 -47q0 -23 6 -49q14 -55 47.5 -94.5t67.5 -39.5t49 40q7 20 7 45q0 23 -6 49q-14 56 -47.5 95.5t-67.5 39.5zM458 0q-147 2 -222 63q-93 79 -94.5 267.5t-8.5 375.5q-11 249 -23 320q-1 9 -1 18q0 26 15 38l246 173q22 17 35 17
q8 0 11 -18v-748q0 -110 90 -120h28q50 0 77 22q25 20 31 57q10 51 33 98q59 119 173 142q25 5 49 5h8q28 -2 55 -10q53 -17 103 -59q62 -54 126 -178q34 -76 101 -77h69v-386h-51q-46 0 -89 42.5t-59 89.5v2q-60 -112 -169 -134q-24 -5 -48 -5h-8q-29 1 -56 10
q-53 17 -103 60q-36 31 -63 70q-65 -135 -158 -135h-97z" />
    <glyph glyph-name="uniFEE4_uniFE82.liga" unicode="&#xfee4;&#xfe82;" horiz-adv-x="1516" 
d="M758 1557q0 -85 -168 -165q-142 -65 -238 -70q-25 -1 -47 -1q-64 0 -112 10q-30 9 -66 19q-27 -1 -46 -47q-17 -39 -41 -43h-2q-38 0 -38 62q0 34 55.5 138t99.5 110q17 -5 107 -31q84 -29 180 -29q17 0 34 1q90 2 172 41l80 38h2q28 0 28 -33zM1104 525q-34 0 -48 -39
q-8 -21 -8 -47q0 -23 6 -49q14 -55 47.5 -94.5t67.5 -39.5t49 40q7 20 7 45q0 23 -6 49q-14 56 -47.5 95.5t-67.5 39.5zM562 0q-149 0 -224 61q-93 79 -94.5 267.5t-8.5 375.5q-11 249 -23 320q-1 9 -1 18q0 26 15 38l246 173q22 17 35 17q8 0 11 -18v-748q0 -121 109 -121
h47q88 1 117 25q25 20 31 57q10 51 33 98q59 119 173 142q25 5 49 5h8q28 -2 55 -10q53 -17 103 -59q62 -54 126 -178q34 -76 101 -77h69v-386h-51q-46 0 -89 42.5t-59 89.5v2q-60 -112 -169 -134q-24 -5 -48 -5h-8q-29 1 -56 10q-53 17 -103 60q-36 31 -63 70
q-65 -135 -158 -135h-173z" />
    <glyph glyph-name="uniFEE4_uniFE84.liga" unicode="&#xfee4;&#xfe84;" horiz-adv-x="1336" 
d="M424 1468l-19 -120q-195 -58 -344 -161l6 94q33 24 87 65q-27 0 -47 28t-20 57v5q0 53 45 124q46 74 110 74q94 0 134 -85q8 -10 8 -20q0 -15 -21 -19q-7 0 -32 6q-12 5 -34 8q-43 0 -73 -17q-37 -17 -37 -47q0 -39 77 -39q35 10 160 47zM924 525q-34 0 -48 -39
q-8 -21 -8 -47q0 -23 6 -49q14 -55 47.5 -94.5t67.5 -39.5t49 40q7 20 7 45q0 23 -6 49q-14 56 -47.5 95.5t-67.5 39.5zM460 0q-149 0 -224 61q-93 79 -94.5 267.5t-8.5 375.5q-11 249 -23 320q-1 9 -1 18q0 26 15 38l246 173q22 17 35 17q8 0 11 -18v-748q0 -104 81 -118
h13q74 0 101 22q25 20 31 57q10 51 33 98q59 119 173 142q25 5 49 5h8q28 -2 55 -10q53 -17 103 -59q62 -54 126 -178q34 -76 101 -77h69v-386h-51q-46 0 -89 42.5t-59 89.5v2q-60 -112 -169 -134q-24 -5 -48 -5h-8q-29 1 -56 10q-53 17 -103 60q-36 31 -63 70
q-65 -135 -158 -135h-95z" />
    <glyph glyph-name="uniFEE4_uniFE88.liga" unicode="&#xfee4;&#xfe88;" horiz-adv-x="1336" 
d="M924 525q-34 0 -48 -39q-8 -21 -8 -47q0 -23 6 -49q14 -55 47.5 -94.5t67.5 -39.5t49 40q7 20 7 45q0 23 -6 49q-14 56 -47.5 95.5t-67.5 39.5zM453 0q-149 0 -224 61q-93 79 -94.5 267.5t-8.5 375.5q-11 249 -23 320q-1 9 -1 18q0 26 15 38l246 173q22 17 35 17
q8 0 11 -18v-748q0 -109 88 -118h13q74 0 101 22q25 20 31 57q10 51 33 98q59 119 173 142q25 5 49 5h8q28 -2 55 -10q53 -17 103 -59q62 -54 126 -178q34 -76 101 -77h69v-386h-51q-46 0 -89 42.5t-59 89.5v2q-60 -112 -169 -134q-24 -5 -48 -5h-8q-29 1 -56 10
q-53 17 -103 60q-36 31 -63 70q-65 -135 -158 -135h-102zM430 -222q-4 3 -67 13q-37 0 -71 -13q-41 -19 -41 -51q0 -39 80 -39q26 7 156 48l-18 -121q-193 -58 -342 -162l6 96q31 27 88 65q-27 0 -47.5 27.5t-21.5 56.5v5q0 58 45 127q46 72 112 72q91 0 134 -85
q5 -10 5 -20q0 -15 -18 -19z" />
    <glyph glyph-name="uniFEE8_uniFEAE.liga" unicode="&#xfee8;&#xfeae;" horiz-adv-x="1410" 
d="M1127 927q6 -5 6 -11q0 -5 -6 -10l-115 -118q-7 -5 -12 -5q-7 0 -13 5l-114 114q-7 7 -7 14q0 8 9 17l105 106q7 7 14 7t15 -7zM801 0q-29 0 -60 20v-73q0 -89 -54 -205t-96 -163q-21 -20 -53 -20h-397q-69 0 -69 56q0 35 31 49q107 49 274 165q212 145 214 208v1
q0 51 -193 225l139 280q5 15 13 15q7 0 16 -10q103 -105 147 -134q53 -28 105 -28h132q88 0 123 49q14 28 37 103q16 56 57 56t53 -56q16 -75 28 -103q31 -49 119 -49h66v-386h-66q-121 0 -188 114q-63 -114 -202 -114h-176z" />
    <glyph glyph-name="uniFEE7_uniFEE4.liga" unicode="&#xfee7;&#xfee4;" horiz-adv-x="1296" 
d="M404 525q-34 0 -48 -39q-8 -21 -8 -47q0 -23 6 -49q14 -55 47.5 -94.5t67.5 -39.5t49 40q7 20 7 45q0 23 -6 49q-14 56 -47.5 95.5t-67.5 39.5zM1116 1140q5 -5 5 -9q0 -6 -7 -13l-110 -118q-6 -6 -12 -6q-7 0 -14 6l-116 114q-6 7 -6 14q0 9 10 17l106 107q6 8 13 8
t15 -8zM1065 386q49 0 53 26q0 12 -17 34q-63 78 -135 143q-7 6 -7 13t7 16l159 228q6 19 16 22q6 0 21 -18q134 -163 134 -405q0 -230 -68 -331q-78 -114 -286 -114h-154q-46 0 -89 42.5t-59 89.5v2q-60 -112 -169 -134q-24 -5 -48 -5h-8q-29 1 -56 10q-53 17 -103 60
q-36 31 -63 70q-65 -135 -158 -135h-58v386h37q50 0 77 22q25 20 31 57q10 51 33 98q59 119 173 142q25 5 49 5h8q28 -2 55 -10q53 -17 103 -59q62 -54 126 -178q34 -76 101 -77h295z" />
    <glyph glyph-name="uniFEE7_uniFEF0.liga" unicode="&#xfee7;&#xfef0;" horiz-adv-x="1766" 
d="M1727 1192q5 -5 5 -9q0 -6 -7 -13l-110 -118q-6 -6 -12 -6q-7 0 -14 6l-117 114q-5 7 -5 13q0 9 10 18l106 107q6 8 13 8t15 -8zM1337 0q-17 0 -73 51q-63 57 -81 66q-73 37 -223 37q-90 0 -134 -16q-29 -8 -29 -21q0 -20 94 -20q158 0 213 -17q116 -34 116 -151
q0 -362 -589 -362q-256 0 -379 85q-145 98 -146 333v9q0 106 46 235q47 133 104 133q65 0 65 -75q0 -35 -8 -68.5t-8 -86.5q0 -240 418 -240q210 0 339 27q44 8 44 25q0 10 -44 15q-37 4 -157 4q-121 0 -175 19q-82 26 -82 108v4q0 170 248 244q161 48 387 48h251
q50 0 53 26q0 12 -16 34q-63 78 -135 143q-7 6 -7 13t7 16l158 228q7 19 17 22q5 0 21 -18q134 -163 134 -405q0 -230 -69 -331q-77 -114 -286 -114h-74z" />
    <glyph glyph-name="uniFEE7_uniFEF2.liga" unicode="&#xfee7;&#xfef2;" horiz-adv-x="1766" 
d="M846 -663q5 -4 5 -9q0 -6 -6 -13l-99 -100q-4 -5 -12 -5q-4 0 -11 5l-95 94l-92 -94q-6 -5 -12 -5t-13 5l-98 100q-6 4 -6 11t6 16l93 93q6 8 13 8q8 0 16 -8l93 -89l88 89q7 7 14 7t14 -7zM1727 1192q5 -5 5 -9q0 -6 -7 -13l-110 -118q-6 -6 -12 -6q-7 0 -14 6l-117 114
q-5 7 -5 13q0 9 10 18l106 107q6 8 13 8t15 -8zM1337 0q-17 0 -73 51q-63 57 -81 66q-73 37 -223 37q-90 0 -134 -16q-29 -8 -29 -21q0 -20 94 -20q158 0 213 -17q116 -34 116 -151q0 -362 -589 -362q-256 0 -379 85q-145 98 -146 333v9q0 106 46 235q47 133 104 133
q65 0 65 -75q0 -35 -8 -68.5t-8 -86.5q0 -240 418 -240q210 0 339 27q44 8 44 25q0 10 -44 15q-37 4 -157 4q-121 0 -175 19q-82 26 -82 108v4q0 170 248 244q161 48 387 48h251q50 0 53 26q0 12 -16 34q-63 78 -135 143q-7 6 -7 13t7 16l158 228q7 19 17 22q5 0 21 -18
q134 -163 134 -405q0 -230 -69 -331q-77 -114 -286 -114h-74z" />
    <glyph glyph-name="uniFEF4_uniFEAE.liga" unicode="&#xfef4;&#xfeae;" horiz-adv-x="1401" 
d="M1273 -246q4 -4 4 -9q0 -6 -6 -11l-99 -100q-6 -5 -11 -5q-7 0 -13 5l-96 92l-93 -92q-4 -5 -9 -5t-12 5l-99 98q-7 6 -7 12q0 7 9 15l91 93q6 7 13 7q6 0 13 -7l94 -89l89 89q7 8 14 8t15 -8zM792 1q-25 3 -51 19v-73q0 -89 -54 -205t-96 -163q-21 -20 -53 -20h-397
q-69 0 -69 56q0 35 31 49q107 49 274 165q212 145 214 208v1q0 51 -193 225l139 280q5 15 13 15q7 0 16 -10q103 -105 147 -134q53 -28 105 -28h123q88 0 123 49q14 28 37 103q16 56 57 56t53 -56q16 -75 28 -103q31 -49 119 -49h66v-386h-66q-121 0 -188 114
q-63 -114 -202 -114h-176v1z" />
    <glyph glyph-name="uniFEF3_uniFEE4.liga" unicode="&#xfef3;&#xfee4;" horiz-adv-x="1223" 
d="M1174 -245q6 -5 6 -9q0 -6 -8 -11l-98 -100q-4 -5 -10 -5q-5 0 -11 5l-95 94l-93 -94q-5 -5 -10 -5t-12 5l-102 98q-5 5 -5 10q0 7 7 16l93 93q7 7 14 7t13 -7l95 -90l90 90q7 7 12 7q7 0 12 -7zM404 525q-34 0 -48 -39q-8 -21 -8 -47q0 -23 6 -49q14 -55 47.5 -94.5
t67.5 -39.5t49 40q7 20 7 45q0 23 -6 49q-14 56 -47.5 95.5t-67.5 39.5zM992 386q49 0 53 26q0 12 -17 34q-63 78 -135 143q-7 6 -7 13t7 16l159 228q6 19 16 22q6 0 21 -18q134 -163 134 -405q0 -230 -68 -331q-77 -114 -286 -114h-81q-46 0 -89 42.5t-59 89.5v2
q-60 -112 -169 -134q-24 -5 -48 -5h-8q-29 1 -56 10q-53 17 -103 60q-36 31 -63 70q-65 -135 -158 -135h-58v386h37q50 0 77 22q25 20 31 57q10 51 33 98q59 119 173 142q25 5 49 5h8q28 -2 55 -10q53 -17 103 -59q62 -54 126 -178q34 -76 101 -77h222z" />
    <glyph glyph-name="uniFEF4_uniFEE6.liga" unicode="&#xfef4;&#xfee6;" horiz-adv-x="1776" 
d="M679 650q4 -5 4 -11t-6 -13l-112 -117q-6 -5 -12 -5t-14 5l-115 113q-6 6 -6 13q0 9 9 18l107 109q7 8 13 8q7 0 14 -8zM1162 0q-44 0 -68 39q0 -466 -514 -466q-263 0 -379 118q-94 95 -96 258v5q0 93 39 225q47 154 106 154q35 0 45 -22q6 -21 6 -69q0 -6 -9.5 -60
t-9.5 -75q0 -166 334 -166q103 0 189 22q134 33 134 106q0 59 -171 197l131 258q6 12 15 12q8 0 19 -12q138 -138 207 -138h176q87 0 123 49q13 28 36 103q17 56 57 56q41 0 53 -56q17 -75 29 -103q31 -49 119 -49h66v-386h-66q-121 0 -189 114q-63 -114 -202 -114h-180z
M1655 -249q5 -5 5 -10t-6 -10l-100 -100q-5 -5 -11 -5t-12 5l-96 92l-93 -92q-4 -5 -9 -5t-12 5l-99 98q-7 6 -7 12q0 7 9 16l91 93q6 7 12 7q7 0 13 -7l95 -90l88 90q7 8 15 8q7 0 15 -8z" />
    <glyph glyph-name="T_h.liga" unicode="Th" horiz-adv-x="1840" 
d="M868 979h-224v-979h-323v979h-289v278h1159v-434h3q41 50 102 82q66 32 134 32q298 0 298 -405v-532h-322v509q0 166 -107 166q-73 0 -98 -68q-10 -26 -10 -60v-547h-323v979z" />
    <glyph glyph-name="f_b.liga" unicode="fb" horiz-adv-x="1662" 
d="M1018 377q0 -29 7 -49q26 -93 111 -93q144 0 144 228q0 220 -144 220q-90 0 -111 -95q-7 -20 -7 -47v-164zM697 1071q-89 8 -127 8q-112 0 -112 -118v-43h165v-233h-163v-685h-323v685h-121v233h121v29q0 190 114 294q96 93 258 93q88 0 220 -18h289v-490h5
q86 111 240 111q155 0 250 -129q93 -127 92 -329q0 -233 -119 -371q-108 -126 -269 -126t-238 132h-4l-12 -114h-273q7 138 7 291v780z" />
    <glyph glyph-name="f_f_b.liga" unicode="ffb" horiz-adv-x="2220" 
d="M1574 377q0 -29 6 -49q27 -93 111 -93q144 0 144 228q0 220 -144 220q-89 0 -111 -95q-6 -20 -6 -47v-164zM460 685v-685h-323v685h-121v233h121v8q0 175 101 277q102 103 289 103q66 0 116 -17l-43 -240q-31 9 -57 9q-85 0 -85 -120v-20h235v29q0 190 114 294
q95 93 258 93q88 0 220 -18h289v-490h4q87 111 241 111q155 0 250 -129q92 -127 92 -329q0 -233 -119 -371q-108 -126 -270 -126q-160 0 -237 132h-4l-13 -114h-272q7 138 7 291v780q-89 8 -127 8q-112 0 -112 -118v-43h164v-233h-163v-685h-322v685h-233z" />
    <glyph glyph-name="f_f.liga" unicode="ff" horiz-adv-x="1202" 
d="M693 0v685h-233v-685h-323v685h-121v233h121v8q0 175 101 277q102 103 289 103q66 0 116 -17l-43 -240q-31 9 -57 9q-85 0 -85 -120v-20h235v29q0 190 114 294q96 93 258 93q88 0 156 -18l-12 -246q-41 9 -82 9q-113 0 -113 -118v-43h164v-233h-162v-685h-323z" />
    <glyph glyph-name="f_h.liga" unicode="fh" horiz-adv-x="1667" 
d="M705 1071q-97 8 -135 8q-112 0 -112 -118v-43h165v-233h-163v-685h-323v685h-121v233h121v29q0 190 114 294q96 93 258 93q88 0 229 -18h289v-493h4q40 50 101 82q67 32 134 32q299 0 299 -405v-532h-323v509q0 166 -106 166q-73 0 -99 -68q-10 -26 -10 -60v-547h-322
v1071z" />
    <glyph glyph-name="f_f_h.liga" unicode="ffh" horiz-adv-x="2228" 
d="M460 685v-685h-323v685h-121v233h121v8q0 175 101 277q102 103 289 103q66 0 116 -17l-43 -240q-31 9 -57 9q-85 0 -85 -120v-20h235v29q0 190 114 294q95 93 258 93q88 0 229 -18h289v-493h4q40 50 101 82q66 32 134 32q298 0 298 -405v-532h-322v509q0 166 -107 166
q-72 0 -98 -68q-10 -26 -10 -60v-547h-323v1071q-96 8 -134 8q-112 0 -112 -118v-43h164v-233h-163v-685h-322v685h-233z" />
    <glyph glyph-name="f_f_i.liga" unicode="ffi" horiz-adv-x="1663" 
d="M1399 1049q-83 30 -187 30q-185 0 -185 -135v-26h541v-918h-322v685h-217v-685h-322v685h-247v-685h-323v685h-121v233h121v8q0 188 130 294q102 86 266 86q83 0 154 -26l-71 -231q-24 11 -62 11q-32 0 -66 -22q-30 -30 -30 -100v-20h249v36q0 164 126 269
q135 111 364 111q160 0 258 -43z" />
    <glyph glyph-name="f_j.liga" unicode="fj" horiz-adv-x="1093" 
d="M137 0v685h-121v233h121v36q0 164 128 269q134 111 363 111q176 0 271 -50l-53 -245q-85 40 -203 40q-185 0 -185 -135v-26h541v-811q0 -285 -136 -400q-122 -102 -358 -102l-28 251q109 10 149 53q50 45 50 260v516h-216v-685h-323z" />
    <glyph glyph-name="f_f_j.liga" unicode="ffj" horiz-adv-x="1643" 
d="M1399 1049q-83 30 -187 30q-185 0 -185 -135v-26h541v-811q0 -285 -136 -400q-121 -102 -358 -102l-29 251q110 10 150 53q51 45 51 260v516h-217v-685h-322v685h-247v-685h-323v685h-121v233h121v8q0 188 130 294q102 86 266 86q83 0 154 -26l-71 -231q-24 11 -62 11
q-32 0 -66 -22q-30 -30 -30 -100v-20h249v36q0 164 126 269q135 111 364 111q160 0 258 -43z" />
    <glyph glyph-name="f_k.liga" unicode="fk" horiz-adv-x="1613" 
d="M697 1071q-91 8 -127 8q-112 0 -112 -118v-43h165v-233h-163v-685h-323v685h-121v233h121v29q0 190 114 294q96 93 258 93q88 0 229 -18h280v-777h4q35 80 56 120l132 259h376l-288 -375l321 -543h-386l-157 351l-58 -86v-265h-321v1071z" />
    <glyph glyph-name="f_f_k.liga" unicode="ffk" horiz-adv-x="2170" 
d="M460 685v-685h-323v685h-121v233h121v8q0 175 101 277q102 103 289 103q66 0 116 -17l-43 -240q-31 9 -57 9q-85 0 -85 -120v-20h235v29q0 190 114 294q95 93 258 93q88 0 229 -18h280v-777h4q35 80 56 120l132 259h375l-287 -375l321 -543h-386l-157 351l-58 -86v-265
h-321v1071q-91 8 -127 8q-112 0 -112 -118v-43h164v-233h-163v-685h-322v685h-233z" />
    <glyph glyph-name="f_f_l.liga" unicode="ffl" horiz-adv-x="1663" 
d="M625 1050q-31 10 -68 10q-43 0 -67 -24q-32 -30 -32 -98v-20h249v36q0 166 135 274q132 106 358 106q219 0 368 -75v-1259h-322v1079q-23 14 -90 14q-129 0 -129 -142v-33h141v-233h-139v-685h-322v685h-247v-685h-323v685h-121v233h121v8q0 186 129 288q109 92 286 92
q76 0 139 -22z" />
    <glyph glyph-name="f_t.liga" unicode="ft" horiz-adv-x="1274" 
d="M460 685v-685h-323v685h-121v233h121v29q0 190 114 294q96 93 258 93q88 0 157 -18l-14 -246q-40 9 -82 9q-112 0 -112 -118v-43h262v170l317 87v-257h189v-233h-189v-293q0 -146 103 -146q48 0 75 5v-246q-75 -21 -190 -21q-140 0 -219 76q-86 83 -86 283v342h-260z" />
    <glyph glyph-name="f_f_t.liga" unicode="fft" horiz-adv-x="1832" 
d="M460 685v-685h-323v685h-121v233h121v8q0 175 101 277q102 103 289 103q66 0 116 -17l-43 -240q-31 9 -57 9q-85 0 -85 -120v-20h235v29q0 190 114 294q95 93 258 93q88 0 156 -18l-13 -246q-40 9 -82 9q-112 0 -112 -118v-43h262v170l317 87v-257h189v-233h-189v-293
q0 -146 103 -146q48 0 75 5v-246q-75 -21 -191 -21q-139 0 -218 76q-86 83 -86 283v342h-261v-685h-322v685h-233z" />
    <glyph glyph-name="uni0647.fina" unicode="&#x647;" horiz-adv-x="948" arabic-form="final" 
d="M729 448q0 50 -71 50q-31 0 -73.5 -38.5t-65.5 -85.5h139q32 0 51.5 22.5t19.5 51.5zM722 -61q0 27 -22 48t-49 25h-140q23 -48 66.5 -86t73.5 -38q71 0 71 51zM389 384l6 2q17 114 120 223q108 115 220 115q63 0 109 -44t46 -107q0 -95 -61 -187h142v-386h-137
q43 -83 43 -141q0 -168 -167 -171h-2q-126 0 -229 121q-74 87 -94 191h-87v2q-47 -12 -88 -31q-19 -13 -42 -35q-18 -19 -23 -21q-2 -1 -3 -1q-19 0 -28 73q-3 28 -3 57q0 55 12 113q36 227 264 227h2z" />
    <glyph glyph-name="uni0672.fina" unicode="&#x672;" horiz-adv-x="514" 
d="M537 0h-93q-144 0 -221 63q-96 81 -96 270q-2 373 -35 557q-1 9 -1 17q0 29 17 41l245 173q24 17 36 17q9 0 9 -18v-614q0 -120 109 -120h30v-386zM400 1391q-32 31 -54 31h-3q-23 -2 -46 -15q-19 -10 -19 -16q2 -19 28 -30q23 -11 58 -11q12 0 25 1q36 3 91 15l5 -7
q-14 -36 -39 -85q-42 -11 -69 -19q-31 -9 -83 -50q-46 -36 -78 -39h-3q-20 0 -46 13q-25 11 -38 11h-4q-17 0 -37 -14l-16 20q28 84 84 87q4 1 9 1q20 0 45 -12q26 -13 49 -13h6l7 8q-55 29 -59 76v8q0 49 48 95q52 50 102 53h8q22 0 39 -13q16 -14 18 -36v-5q0 -23 -15 -53
z" />
    <glyph glyph-name="uni0673.fina" unicode="&#x673;" horiz-adv-x="514" 
d="M537 0h-93q-144 0 -221 63q-96 81 -96 270q-2 373 -35 557q-1 9 -1 17q0 29 17 41l245 173q24 17 36 17q9 0 9 -18v-614q0 -120 109 -120h30v-386zM338 -242q-33 31 -56 31h-1q-23 -2 -46 -15q-19 -10 -19 -16q2 -19 28 -30q23 -11 58 -11q12 0 25 1q36 2 91 15l5 -7
q-14 -37 -39 -85q-42 -11 -69 -19q-31 -9 -83 -50q-46 -37 -78 -39h-3q-20 0 -46 12q-25 12 -38 12h-4q-17 -1 -37 -14l-16 20q28 84 84 87q4 1 8 1q21 0 46 -13q26 -12 49 -12h6l7 8q-55 29 -59 75v8q0 50 48 96q52 49 102 53h8q22 0 39 -14q16 -13 18 -35v-5
q0 -23 -15 -53z" />
    <glyph glyph-name="uni0675.fina" unicode="&#x675;" horiz-adv-x="840" 
d="M863 0h-410q-149 0 -224 61q-93 79 -94.5 267.5t-8.5 375.5q-11 249 -23 320q-1 9 -1 18q0 26 15 38l246 173q22 17 35 17q8 0 11 -18v-748q0 -121 109 -121h345v-383zM779 1469q-4 3 -67 13q-37 0 -71 -13q-41 -19 -41 -51q0 -39 79 -39q26 7 157 48l-19 -121
q-192 -58 -341 -161l5 95q32 27 88 65q-27 0 -47.5 27.5t-21.5 56.5v5q0 58 45 127q47 71 112 71q92 0 134 -84q6 -10 6 -20q0 -15 -18 -19z" />
    <glyph glyph-name="uni0676.fina" unicode="&#x676;" horiz-adv-x="898" 
d="M921 0h-184q-23 -287 -153 -421q-18 -20 -49 -20h-398q-68 0 -70 56v2q0 33 29 47q171 78 324 186.5t153 143.5q-172 0 -224 20q-114 43 -114 206q0 154 51 284q70 173 198 173h2q180 0 240 -291h195v-386zM563 315q0 14 -36 47q-37 26 -69 26q-33 0 -56.5 -16t-23.5 -43
q0 -32 94 -32q89 0 91 18zM890 1057l-19 -122q-190 -55 -342 -158l4 91q55 47 89 65q-29 4 -49.5 29.5t-20.5 55.5v2q0 56 44 125q49 78 112 78q44 0 87 -30q54 -40 54 -75q0 -19 -20 -19q-7 0 -32 5q-14 7 -34 7q-41 0 -73 -17q-37 -14 -37 -44q0 -42 79 -42q17 5 158 49z
" />
    <glyph glyph-name="uni0677.fina" unicode="&#x677;" horiz-adv-x="889" 
d="M921 0h-184q-23 -287 -153 -421q-18 -20 -49 -20h-398q-68 0 -70 56v2q0 33 29 47q171 78 324 186.5t153 143.5q-172 0 -224 20q-114 43 -114 206q0 154 51 284q70 173 198 173h2q180 0 240 -291h195v-386zM563 315q0 14 -36 47q-37 26 -69 26q-33 0 -56.5 -16t-23.5 -43
q0 -32 94 -32q89 0 91 18zM890 1057l-19 -122q-190 -55 -342 -158l4 91q55 47 89 65q-29 4 -49.5 29.5t-20.5 55.5v2q0 56 44 125q49 78 112 78q44 0 87 -30q54 -40 54 -75q0 -19 -20 -19q-7 0 -32 5q-14 7 -34 7q-41 0 -73 -17q-37 -14 -37 -44q0 -42 79 -42q17 5 158 49z
M462 1067q-14 -101 -148 -200q-94 -70 -159 -84l-21 69q126 58 170 119q-65 22 -79 96q-2 14 -2 29t2 31q16 84 100 102q9 2 18 2q13 0 27 -4q80 -18 94 -106q2 -11 2 -22q0 -16 -4 -32zM391 1101q-7 40 -43 40q-6 0 -13 -1q-33 -7 -33 -38q0 -7 1 -14q5 -38 38 -38h7
q44 5 44 41q0 4 -1 10z" />
    <glyph glyph-name="uni0678.init" unicode="&#x678;" horiz-adv-x="612" 
d="M398 445q0 -230 -68 -331q-78 -114 -286 -114h-67v386h189q50 0 53 26q0 12 -16 34q-63 78 -135 143q-7 6 -7 13t7 16l159 228q6 19 16 22q5 0 21 -18q134 -163 134 -405zM612 1209l-18 -122q-191 -56 -343 -160l5 96q47 38 90 63q-29 0 -48.5 26t-20.5 57v6q0 64 43 126
q50 73 112 73q42 0 90 -32.5t48 -74.5q0 -15 -17 -15q-9 0 -32 6t-35 6q-42 0 -75 -18q-36 -18 -36 -47v-2q0 -37 81 -37q36 11 156 49z" />
    <glyph glyph-name="uni0678.medi" unicode="&#x678;" horiz-adv-x="723" 
d="M746 0h-297q-121 0 -189 114q-63 -114 -202 -114h-81v386h55q87 0 123 49q13 28 36 103q16 56 57 56t53 -56q17 -75 29 -103q31 -49 119 -49h297v-386zM609 1057l-19 -122q-187 -53 -344 -158l9 91q52 47 87 65q-28 4 -45 25q-22 24 -22 60q0 66 42 132q48 73 112 73
q43 0 86 -30q51 -38 51 -75q0 -19 -16 -19q-9 0 -33 5q-16 7 -34 7q-43 0 -75.5 -15.5t-36.5 -45.5q0 -42 81 -42q25 6 157 49z" />
    <glyph glyph-name="uni0678.fina" unicode="&#x678;" horiz-adv-x="1413" 
d="M1436 0h-101q-17 0 -73 51q-63 57 -81 66q-73 37 -223 37q-90 0 -134 -16q-29 -8 -29 -21q0 -20 94 -20q158 0 213 -17q116 -34 116 -151q0 -362 -589 -362q-256 0 -379 85q-145 98 -146 333v9q0 106 46 235q47 133 104 133q65 0 65 -75q0 -35 -8 -68.5t-8 -86.5
q0 -240 418 -240q210 0 339 27q44 8 44 25q0 10 -44 15q-37 4 -157 4q-121 0 -175 19q-82 26 -82 108v4q0 170 248 244q161 48 387 48h155v-386zM1307 841q-5 3 -65 14q-38 0 -72 -14q-41 -18 -41 -50q0 -39 80 -39q25 6 156 47l-19 -120q-191 -59 -340 -162l4 95
q33 28 88 65q-27 0 -47 27.5t-22 57.5v5q0 57 45 126q46 72 113 72q92 0 134 -85q5 -10 5 -20q0 -14 -19 -19z" />
    <glyph glyph-name="uni067C.init" unicode="&#x67c;" horiz-adv-x="538" 
d="M466 1101q6 -5 6 -10t-7 -11l-99 -100q-4 -5 -10 -5q-5 0 -11 5l-95 94l-92 -94q-6 -4 -11 -4t-11 4l-102 99q-5 5 -5 11t6 14l93 93q7 7 14 7t14 -7l94 -89l91 89q6 7 11 7q7 0 12 -7zM27 0h-50v386h330q49 0 53 26q0 12 -17 34q-62 78 -134 143q-7 6 -7 13t7 16
l158 228q6 19 16 22q6 0 21 -18q134 -163 134 -405q0 -230 -68 -331q-36 -53 -100 -81q19 -40 19 -87v-4q0 -108 -55 -173q-57 -67 -151 -68h-2q-176 0 -177 168q0 48 23 131zM162 0h-15q-12 -5 -25 -36q-7 -19 -7 -37q0 -44 90 -44q78 0 78 32q0 16 -50 51q-43 29 -71 34z
" />
    <glyph glyph-name="uni067C.medi" unicode="&#x67c;" horiz-adv-x="734" 
d="M597 929q4 -4 4 -9q0 -6 -6 -11l-100 -100q-5 -5 -10 -5q-7 0 -13 5l-96 92l-93 -92q-4 -5 -9 -5t-12 5l-99 98q-7 6 -7 12q0 7 9 16l91 93q6 7 12 7q7 0 13 -7l95 -90l88 90q7 8 15 8q7 0 15 -8zM35 0h-58v386h297q88 0 123 49q14 28 37 103q16 56 57 56t53 -56
q16 -75 28 -103q31 -49 119 -49h66v-386h-66q-121 0 -188 114q-34 -62 -121 -90q15 -37 15 -78v-4q0 -108 -55 -173q-57 -67 -151 -68h-2q-175 0 -176 168v4q0 47 22 127zM170 0h-14q-13 -5 -26 -36q-7 -19 -7 -37q0 -44 90 -44q78 0 78 32q0 16 -50 51q-42 29 -71 34z" />
    <glyph glyph-name="uni067C.fina" unicode="&#x67c;" horiz-adv-x="1413" 
d="M897 840q5 -5 5 -11t-5 -12l-101 -98q-5 -6 -10 -6t-10 6l-95 94l-93 -94q-6 -6 -12 -6t-12 6l-100 98q-5 5 -5 11q0 8 9 17l91 93q6 7 12 7t13 -7l97 -88l88 88q6 7 13 7q6 0 13 -7zM504 -48q-190 9 -284 89q-116 97 -116 315q0 79 21 165q28 120 81 120q51 0 57 -82
q6 -106 51 -154q79 -82 317 -84h13q236 0 402 69q108 45 181 124q61 66 77 66q42 0 44 -56q0 -8 -12 -58q-8 -23 -28 -59q24 -21 67 -21h61v-386h-65q-140 0 -210 148q-120 -117 -312 -164q18 -39 18 -83q0 -111 -56.5 -177.5t-149.5 -67.5h-2q-176 0 -177 167v4
q0 47 22 125zM645 -46q-12 -1 -24 -1q-11 -9 -21 -35q-8 -18 -8 -36q0 -44 91 -44q78 0 78 32q0 15 -50 51q-39 26 -66 33z" />
    <glyph glyph-name="uni067D.init" unicode="&#x67d;" horiz-adv-x="480" 
d="M480 445q0 -230 -68 -331q-78 -114 -287 -114h-148v386h271q50 0 53 26q0 12 -16 34q-63 78 -135 143q-7 6 -7 13t7 16l159 228q6 19 16 22q5 0 21 -18q134 -163 134 -405zM125 1388q7 6 12 6q7 0 10 -6l91 -94l101 94q7 6 13 6q7 0 14 -6l92 -94q8 -8 8 -15q0 -6 -7 -11
l-99 -100q-8 -3 -12 -3q-6 0 -9 3l-101 98l-94 -98q-6 -3 -10 -3q-6 0 -10 3l-101 102q-5 4 -5 9t5 10zM234 1193q5 7 11 7q5 0 11 -7l92 -94q7 -8 7 -14t-4 -10l-101 -98q-5 -6 -9 -6q-5 0 -9 6l-100 98q-6 6 -6 12q0 5 6 10z" />
    <glyph glyph-name="uni067D.medi" unicode="&#x67d;" horiz-adv-x="586" 
d="M121 1217q7 6 13 6t11 -6l91 -94v-1l98 95q8 7 15 7q6 0 11 -7l95 -95q7 -7 7 -13t-6 -11l-101 -99q-5 -5 -10 -5q-6 0 -12 5l-97 98l-97 -98q-5 -5 -10 -5t-10 5l-102 99q-4 7 -4 11t4 10zM226 1024q8 6 14 6q7 0 13 -6l92 -94q8 -8 8 -16q0 -6 -5 -11l-100 -97
q-6 -6 -12 -6t-12 6l-99 99q-4 5 -4 10q0 7 4 11zM609 0h-65q-122 0 -189 114q-63 -114 -202 -114h-176v386h149q88 0 123 49q14 28 37 103q16 56 57 56t53 -56q16 -75 28 -103q31 -49 120 -49h65v-386z" />
    <glyph glyph-name="uni067D.fina" unicode="&#x67d;" horiz-adv-x="1413" 
d="M1436 0h-65q-140 0 -210 148q-203 -197 -607 -197q-228 0 -334 90q-116 97 -116 315q0 79 21 165q28 120 81 120q51 0 57 -82q6 -106 51 -154q79 -82 317 -84h13q236 0 402 69q108 45 181 124q61 66 77 66q42 0 44 -56q0 -8 -12 -58q-8 -23 -28 -59q24 -21 67 -21h61
v-386zM582 1114q8 7 14 7q5 0 11 -7l93 -93v-2l98 95q8 7 14 7q4 0 12 -7l93 -95q5 -6 5 -12q0 -5 -4 -11l-102 -97q-4 -6 -9 -6t-11 6l-96 95l-99 -95q-5 -5 -10 -5t-10 5l-100 99q-5 3 -5 8q0 7 5 10zM690 921q8 8 13 8q6 0 10 -8l93 -93q8 -11 8 -19q0 -5 -2 -8l-102 -99
q-6 -5 -11 -5q-6 0 -11 5l-98 102q-6 5 -6 10t6 10z" />
    <glyph glyph-name="uni0681.init" unicode="&#x681;" horiz-adv-x="1027" 
d="M1020 527l-98 -226q-142 0 -217 -38q-53 -25 -148.5 -103.5t-154.5 -104.5q-114 -55 -269 -55h-156v386h193q270 0 387 47l-166 69q-87 36 -129 37h-4q-36 0 -82 -34q-50 -37 -67 -37q-51 0 -51 56q0 61 82 173q103 143 224 143q88 0 213 -80q153 -100 233 -129
q71 -27 173 -48l19 -3q25 -5 25 -21q0 -12 -7 -32zM531 1245q-30 16 -66 19h-11q-31 0 -61 -9q-42 -15 -44 -47v-3q0 -36 76 -42q27 5 160 35l-29 -118q-195 -43 -351 -134l12 93q34 25 93 58q-27 3 -45 32t-18 58q3 59 55 128q48 62 108 62h10q91 -6 127 -94q4 -10 4 -20
q-2 -15 -20 -18z" />
    <glyph glyph-name="uni0681.medi" unicode="&#x681;" horiz-adv-x="1058" 
d="M1081 0h-166q-226 0 -298 260q-97 -124 -248.5 -192t-308.5 -68h-83v386h148q254 0 429 86q-219 67 -278 67q-55 0 -100.5 -45t-69.5 -45q-52 0 -52 70v4q0 70 67 188q86 147 204 147q59 0 244 -65t314 -65h96q31 0 31 -14q0 -3 -7 -27l-81 -260h-158q36 -41 158 -41h159
v-386zM540 1245q-28 17 -66 19h-11q-31 0 -61 -9q-41 -15 -44 -47v-3q0 -36 76 -42q27 5 160 35l-28 -118q-195 -43 -352 -134l12 93q34 25 93 58q-27 3 -45 32t-18 58q3 59 55 128q48 62 108 62h10q91 -6 127 -94q4 -10 4 -20q-2 -15 -20 -18z" />
    <glyph glyph-name="uni0681.fina" unicode="&#x681;" horiz-adv-x="1149" 
d="M1172 0h-76q-112 0 -186 92.5t-76 236.5q0 70 18 136q-189 -51 -268 -117q-124 -104 -126 -277v-4q0 -206 193 -276q94 -33 316 -33q113 0 113 -53q0 -44 -79 -75q-108 -41 -269 -41q-297 0 -461.5 116t-166.5 321v4q0 178 169 304q112 83 339 163l-237 17h-6
q-72 0 -119 -50q-50 -53 -69 -53q-43 0 -43 75t64 191q85 151 212 154l180 -36q171 -33 325 -33h160q35 0 35 -20q0 -14 -8 -40l-85 -239h-84q20 -77 157 -77h78v-386zM820 1236q-27 13 -66 18q-8 1 -16 1q-28 0 -56 -9q-42 -15 -44 -47v-3q0 -36 76 -42q27 5 160 35
l-29 -119q-195 -42 -351 -133l12 93q34 25 93 58q-27 3 -45 32t-18 58q3 59 55 128q48 62 108 62h10q91 -6 127 -94q4 -10 4 -20q-2 -15 -20 -18z" />
    <glyph glyph-name="uni0682.init" unicode="&#x682;" horiz-adv-x="1027" 
d="M1020 527l-98 -226q-142 0 -217 -38q-53 -25 -148.5 -103.5t-154.5 -104.5q-114 -55 -269 -55h-156v386h193q270 0 387 47l-166 69q-87 36 -129 37h-4q-36 0 -82 -34q-50 -37 -67 -37q-51 0 -51 56q0 61 82 173q103 143 224 143q88 0 213 -80q153 -100 233 -129
q71 -27 173 -48l19 -3q25 -5 25 -21q0 -12 -7 -32zM481 1250l-116 112q-5 6 -5 13q0 8 7 17l106 108q6 8 14 8q9 0 16 -8l115 -111q7 -5 7 -10q0 -7 -7 -15l-114 -114q0 -2 -2 -3q1 -2 2 -3l116 -111q7 -5 7 -10q0 -7 -7 -15l-114 -114q-3 -6 -10 -6q-5 0 -13 6l-116 112
q-5 6 -5 13q0 8 7 17l105 108q3 3 7 6z" />
    <glyph glyph-name="uni0682.medi" unicode="&#x682;" horiz-adv-x="1058" 
d="M1081 0h-166q-226 0 -298 260q-97 -124 -248.5 -192t-308.5 -68h-83v386h148q254 0 429 86q-219 67 -278 67q-55 0 -100.5 -45t-69.5 -45q-52 0 -52 70v4q0 70 67 188q86 147 204 147q59 0 244 -65t314 -65h96q31 0 31 -14q0 -3 -7 -27l-81 -260h-158q36 -41 158 -41h159
v-386zM483 1250q-2 1 -3 2l-116 112q-5 6 -5 13q0 8 7 17l106 107q6 9 14 9q9 0 16 -9l115 -110q7 -5 7 -10q0 -7 -7 -15l-113 -114q-2 -3 -4 -4q3 -2 4 -4l116 -111q7 -5 7 -10q0 -7 -7 -15l-114 -114q-3 -6 -10 -6q-5 0 -13 6l-116 112q-5 6 -5 13q0 8 7 17l105 108
q4 4 9 6z" />
    <glyph glyph-name="uni0682.fina" unicode="&#x682;" horiz-adv-x="1147" 
d="M1170 0h-75q-126 0 -198 105q-61 92 -63 224v11q0 55 17 125q-189 -51 -270 -117q-122 -102 -122 -277v-4q0 -206 192 -276q91 -33 315 -33q112 0 114 -53v-2q0 -42 -81 -73q-111 -41 -272 -41q-256 0 -419 88q-204 114 -204 349q0 184 169 308q108 80 337 163l-237 17
h-5q-70 0 -118 -50q-50 -53 -68 -53q-47 0 -47 75q0 108 83 220q88 122 192 125q81 0 252.5 -34.5t255.5 -34.5h160q34 0 37 -20q0 -8 -12 -40l-81 -239h-86q22 -77 157 -77h77v-386zM652 1147q-1 1 -3 2l-116 114q-5 5 -5 12q0 8 9 19l106 104q6 9 13 9q8 0 16 -9l117 -112
q5 -4 5 -8q0 -6 -8 -13l-112 -116l-3 -3q2 -2 5 -4l117 -113q5 -4 5 -8q0 -6 -8 -13l-112 -116q-5 -5 -11 -5q-7 0 -15 5l-115 114q-5 5 -5 12q0 8 8 19l107 105z" />
    <glyph glyph-name="uni0685.init" unicode="&#x685;" horiz-adv-x="1027" 
d="M1020 527l-98 -226q-142 0 -217 -38q-53 -25 -148.5 -103.5t-154.5 -104.5q-114 -55 -269 -55h-156v386h193q270 0 387 47l-166 69q-87 36 -129 37h-4q-36 0 -82 -34q-50 -37 -67 -37q-51 0 -51 56q0 61 82 173q103 143 224 143q88 0 213 -80q153 -100 233 -129
q71 -27 173 -48l19 -3q25 -5 25 -21q0 -12 -7 -32zM480 1035q-7 -7 -14 -7t-13 7l-90 93l-100 -93q-7 -7 -13 -7t-11 7l-93 93q-7 8 -7 14t6 11l99 97q5 5 11 5q4 0 10 -5l96 -97l101 97q4 5 10 5q5 0 8 -5l102 -98q4 -6 4 -12q0 -4 -2 -8zM371 1226q-6 -4 -13 -4t-14 4
l-87 96q-9 8 -9 15q0 4 3 7l102 100q6 5 11 5t9 -5l101 -100q4 -5 4 -10q0 -4 -3 -8z" />
    <glyph glyph-name="uni0685.medi" unicode="&#x685;" horiz-adv-x="1058" 
d="M1081 0h-166q-226 0 -298 260q-97 -124 -248.5 -192t-308.5 -68h-83v386h148q254 0 429 86q-219 67 -278 67q-55 0 -100.5 -45t-69.5 -45q-52 0 -52 70v4q0 70 67 188q86 147 204 147q59 0 244 -65t314 -65h96q31 0 31 -14q0 -3 -7 -27l-81 -260h-158q36 -41 158 -41h159
v-386zM480 1035q-7 -7 -14 -7t-13 7l-90 93l-100 -93q-7 -7 -13 -7t-11 7l-93 93q-7 8 -7 14t6 11l99 97q5 5 11 5q4 0 10 -5l96 -97l101 97q4 5 10 5q5 0 8 -5l102 -98q4 -6 4 -12q0 -4 -2 -8zM371 1226q-6 -4 -13 -4t-14 4l-87 96q-9 8 -9 15q0 4 3 7l102 100q6 5 11 5
t9 -5l101 -100q4 -5 4 -10q0 -4 -3 -8z" />
    <glyph glyph-name="uni0685.fina" unicode="&#x685;" horiz-adv-x="1147" 
d="M1170 0h-75q-126 0 -198 105q-61 92 -63 224v11q0 55 17 125q-189 -51 -270 -117q-122 -102 -122 -277v-4q0 -206 192 -276q91 -33 315 -33q112 0 114 -53v-2q0 -42 -81 -73q-111 -41 -272 -41q-256 0 -419 88q-204 114 -204 349q0 184 169 308q108 80 337 163l-237 17
h-5q-70 0 -118 -50q-50 -53 -68 -53q-47 0 -47 75q0 108 83 220q88 122 192 125q81 0 252.5 -34.5t255.5 -34.5h160q34 0 37 -20q0 -8 -12 -40l-81 -239h-86q22 -77 157 -77h77v-386zM740 939q-7 -6 -14 -6t-13 6l-90 93l-100 -93q-7 -6 -13 -6t-11 6l-93 93q-7 8 -7 15
q0 6 6 11l99 96q5 6 11 6q4 0 10 -6l96 -96l101 96q4 6 10 6q5 0 8 -6l102 -98q4 -6 4 -12q0 -4 -2 -8zM631 1131q-6 -5 -13 -5t-14 5l-87 95q-9 8 -9 15q0 4 3 7l102 100q6 5 11 5t9 -5l101 -100q4 -5 4 -10q0 -4 -3 -7z" />
    <glyph glyph-name="uni0689.fina" unicode="&#x689;" horiz-adv-x="1002" 
d="M383 -29h-25q-11 -7 -22 -35q-7 -18 -7 -36q0 -44 90 -44q79 0 79 32q0 15 -51 51q-38 25 -64 32zM247 -8q-141 59 -142 284v5q0 56 19 133q24 103 67 103q49 0 63 -47q22 -73 31 -85q34 -47 124 -49h8q44 0 109 19q71 21 75 54l-4 8l-139 339l188 191q7 8 21 11
q6 0 12 -20l159 -436q42 -116 124 -116h63v-386h-72q-162 0 -268 212q-60 -115 -123 -170q40 -55 41 -123v-4q0 -108 -55 -173q-57 -67 -151 -68h-2q-175 0 -176 167v4q0 53 28 147z" />
    <glyph glyph-name="uni068A.fina" unicode="&#x68a;" horiz-adv-x="1002" 
d="M1025 0h-72q-162 0 -268 212q-64 -124 -132 -178q-78 -63 -188 -63q-258 0 -260 305v5q0 56 19 133q24 103 67 103q49 0 63 -47q22 -73 31 -85q34 -47 124 -49h8q44 0 109 19q71 21 75 54l-4 8l-139 339l188 191q7 8 21 11q6 0 12 -20l159 -436q42 -116 124 -116h63v-386
zM527 -297q6 -5 6 -10q0 -7 -6 -16l-114 -113q-4 -6 -10 -6t-14 6l-116 112q-5 6 -5 13q0 8 7 17l106 107q6 8 15 8t15 -8z" />
    <glyph glyph-name="uni068B.fina" unicode="&#x68b;" horiz-adv-x="1002" 
d="M1025 0h-72q-162 0 -268 212q-64 -124 -132 -178q-78 -63 -188 -63q-258 0 -260 305v5q0 56 19 133q24 103 67 103q49 0 63 -47q22 -73 31 -85q34 -47 124 -49h8q44 0 109 19q71 21 75 54l-4 8l-139 339l188 191q7 8 21 11q6 0 12 -20l159 -436q42 -116 124 -116h63v-386
zM527 -297q6 -5 6 -10q0 -7 -6 -16l-114 -113q-4 -6 -10 -6t-14 6l-116 112q-5 6 -5 13q0 8 7 17l106 107q6 8 15 8t15 -8zM846 1327v-3q0 -38 -27 -88q-33 -60 -87 -96q-71 -45 -162 -45q-47 0 -96 27q-44 24 -79 62q-28 31 -28 40q0 12 8 15.5t32 3.5q16 0 46 -1t45 -1
q0 95 -19 177q-12 60 -33 102l87 76q11 9 16 9q3 0 11 -15l51 -114q3 -8 5 -17q0 -4 -7 -4q-8 0 -24 5q3 -18 3 -35q0 -74 -28 -146q121 135 205 135q40 0 63 -29q18 -23 18 -58zM745 1275q0 17 -12 27.5t-32 10.5q-47 0 -117 -69q10 -1 30 -1q35 0 72 5q59 8 59 27z" />
    <glyph glyph-name="uni068F.fina" unicode="&#x68f;" horiz-adv-x="1002" 
d="M1025 0h-72q-162 0 -268 212q-64 -124 -132 -178q-78 -63 -188 -63q-258 0 -260 305v5q0 56 19 133q24 103 67 103q49 0 63 -47q22 -73 31 -85q34 -47 124 -49h8q44 0 109 19q71 21 75 54l-4 8l-139 339l188 191q7 8 21 11q6 0 12 -20l159 -436q42 -116 124 -116h63v-386
zM660 1471l-116 -115q-8 -8 -15 -8q-8 0 -15 8l-108 108q-6 10 -6 17t6 12l113 114q9 3 15 3q5 0 12 -3l112 -114l3 -3l3 3l114 114q8 3 15 3q5 0 12 -3l112 -114q7 -7 7 -13q0 -5 -6 -9l-115 -115q-8 -8 -16 -8q-7 0 -14 8l-109 108q-2 4 -3 7h-1zM665 1088q-6 -8 -15 -8
q-8 0 -15 8l-106 107q-6 9 -6 17q0 7 5 13l115 112q9 6 14 6q6 0 10 -6l114 -113q6 -9 6 -16q0 -5 -6 -10z" />
    <glyph glyph-name="uni0690.fina" unicode="&#x690;" horiz-adv-x="1002" 
d="M1025 0h-72q-162 0 -268 212q-64 -124 -132 -178q-78 -63 -188 -63q-258 0 -260 305v5q0 56 19 133q24 103 67 103q49 0 63 -47q22 -73 31 -85q34 -47 124 -49h8q44 0 109 19q71 21 75 54l-4 8l-139 339l188 191q7 8 21 11q6 0 12 -20l159 -436q42 -116 124 -116h63v-386
zM519 1284q-3 1 -6 1l-114 114q-6 5 -6 12q0 8 6 17l109 109q7 8 14 8q8 0 16 -8l115 -116h1q1 4 4 7l108 109q7 8 15 8q7 0 15 -8l116 -116q6 -4 6 -9t-8 -13l-112 -114h-3q4 -2 8 -6l115 -116q6 -4 6 -9t-7 -12l-112 -114q-7 -3 -12 -3q-7 0 -15 3l-114 114q-2 1 -3 3
q-1 -2 -3 -3l-112 -114q-7 -3 -12 -3q-6 0 -15 3l-113 114q-6 5 -6 12q0 8 6 17l108 108zM778 1284q-3 1 -6 1l-114 114l-4 4l-2 -4l-113 -114h-2q3 -2 7 -6l116 -116h1q1 4 3 8l109 108q2 3 5 5z" />
    <glyph glyph-name="uni0692.fina" unicode="&#x692;" horiz-adv-x="828" 
d="M851 0h-49q-29 0 -61 20v-73q0 -89 -54 -205t-96 -163q-21 -20 -53 -20h-397q-69 0 -69 56q0 35 31 49q107 49 274 165q212 145 214 208v1q0 51 -193 225l139 280q5 15 13 15q7 0 16 -10q103 -105 147 -134q53 -28 105 -28h33v-386zM593 736h-93l-224 293h98l173 -140
l175 140h98z" />
    <glyph glyph-name="uni0693.fina" unicode="&#x693;" horiz-adv-x="828" 
d="M505 -441h-15q-13 -4 -25 -36q-8 -19 -8 -37q0 -44 91 -44q78 0 78 32q0 16 -50 51q-43 30 -71 34zM370 -441h-229q-69 0 -69 56q0 35 31 49q107 49 274 165q212 145 214 208v1q0 51 -193 225l139 280q5 15 13 15q7 0 16 -10q103 -105 147 -134q53 -28 105 -28h33v-386
h-49q-29 0 -61 20v-73q0 -89 -54 -205q-18 -41 -36 -72q80 -68 81 -165q0 -111 -56 -177.5t-150 -67.5h-2q-176 0 -177 168v4q0 47 23 127z" />
    <glyph glyph-name="uni0694.fina" unicode="&#x694;" horiz-adv-x="828" 
d="M851 0h-49q-29 0 -61 20v-73q0 -89 -54 -205t-96 -163q-21 -20 -53 -20h-397q-69 0 -69 56q0 35 31 49q107 49 274 165q212 145 214 208v1q0 51 -193 225l139 280q5 15 13 15q7 0 16 -10q103 -105 147 -134q53 -28 105 -28h33v-386zM649 -677q6 -5 6 -10q0 -7 -6 -15
l-114 -114q-4 -6 -10 -6q-5 0 -14 6l-115 112q-5 6 -5 13q0 8 6 17l106 107q7 9 15 9q9 0 15 -9z" />
    <glyph glyph-name="uni0695.fina" unicode="&#x695;" horiz-adv-x="828" 
d="M851 0h-49q-29 0 -61 20v-73q0 -89 -54 -205t-96 -163q-21 -20 -53 -20h-397q-69 0 -69 56q0 35 31 49q107 49 274 165q212 145 214 208v1q0 51 -193 225l139 280q5 15 13 15q7 0 16 -10q103 -105 147 -134q53 -28 105 -28h33v-386zM502 -858h-93l-224 293h97l174 -140
l174 140h99z" />
    <glyph glyph-name="uni0696.fina" unicode="&#x696;" horiz-adv-x="828" 
d="M851 0h-49q-29 0 -61 20v-73q0 -89 -54 -205t-96 -163q-21 -20 -53 -20h-397q-69 0 -69 56q0 35 31 49q107 49 274 165q212 145 214 208v1q0 51 -193 225l139 280q5 15 13 15q7 0 16 -10q103 -105 147 -134q53 -28 105 -28h33v-386zM382 52q6 -6 6 -10q0 -7 -6 -16
l-114 -113q-4 -6 -10 -6t-14 6l-116 112q-5 6 -5 13q0 8 7 17l106 107q6 8 15 8t15 -8zM682 -659q6 -5 6 -10q0 -7 -6 -15l-114 -114q-4 -6 -10 -6t-14 6l-116 112q-5 6 -5 13q0 8 7 17l106 108q6 8 14 8q9 0 16 -8z" />
    <glyph glyph-name="uni0697.fina" unicode="&#x697;" horiz-adv-x="828" 
d="M851 0h-49q-29 0 -61 20v-73q0 -89 -54 -205t-96 -163q-21 -20 -53 -20h-397q-69 0 -69 56q0 35 31 49q107 49 274 165q212 145 214 208v1q0 51 -193 225l139 280q5 15 13 15q7 0 16 -10q103 -105 147 -134q53 -28 105 -28h33v-386zM494 859q3 6 7 10l108 106q7 7 13 7
q7 0 13 -7l118 -112q4 -4 4 -10t-6 -14l-112 -114q-7 -5 -13 -5t-11 5l-117 112q-3 3 -5 7q-1 -3 -3 -6l-112 -114q-7 -5 -13 -5t-11 5l-116 112q-7 6 -7 14t10 18l107 106q7 7 14 7q6 0 12 -7l118 -112q1 -1 2 -3z" />
    <glyph glyph-name="uni0699.fina" unicode="&#x699;" horiz-adv-x="828" 
d="M851 0h-49q-29 0 -61 20v-73q0 -89 -54 -205t-96 -163q-21 -20 -53 -20h-397q-69 0 -69 56q0 35 31 49q107 49 274 165q212 145 214 208v1q0 51 -193 225l139 280q5 15 13 15q7 0 16 -10q103 -105 147 -134q53 -28 105 -28h33v-386zM357 980q-4 0 -9 5l-117 112
q-7 6 -7 14t10 18l108 105q7 7 13 7q7 0 13 -7l118 -112q1 -1 1 -2q3 5 8 10l107 105q7 7 14 7t13 -7l117 -112q4 -4 4 -10t-6 -13l-112 -114q-4 -3 -8 -5q6 -1 11 -6l118 -112q4 -4 4 -10t-6 -14l-112 -114q-7 -5 -13 -5t-11 5l-117 112q-3 3 -5 7q-1 -3 -3 -6l-112 -114
q-7 -5 -13 -5t-11 5l-116 112q-7 6 -7 14t10 18l107 106q5 4 9 6zM618 981q-5 0 -9 5l-117 112q-4 3 -5 6q-1 -3 -3 -5l-112 -114q-5 -3 -8 -5q5 -1 10 -6l118 -112q1 -1 2 -3q3 6 7 10l108 106q4 4 9 6z" />
    <glyph glyph-name="uni069A.init" unicode="&#x69a;" horiz-adv-x="892" 
d="M892 448q0 -156 -45 -275q-63 -173 -181 -173q-49 0 -98.5 35.5t-69.5 76.5q-49 -110 -139 -110q-122 0 -166 114q-51 -116 -149 -116h-67v386h65q61 0 83 47l27 84q15 48 53 48q33 0 54 -53q10 -40 21 -83q26 -45 91 -45q47 0 64 45q14 68 18 85q20 53 57 53h1
q34 0 53 -57q10 -44 21 -87q23 -51 89 -51q78 0 78 55q0 33 -41 131l109 121q9 8 15 8q8 0 12 -10q45 -114 45 -229zM392 -302q-4 4 -4 8q0 6 7 13l99 100q5 6 11 6q5 0 11 -6l100 -100q6 -4 6 -9q0 -7 -10 -16l-90 -94q-6 -4 -12 -4t-15 4zM391 920q-3 3 -3 7q0 6 7 14
l98 99q5 6 11 6q5 0 11 -6l100 -99q6 -4 6 -10t-9 -15l-90 -94q-7 -5 -12 -5q-7 0 -15 5z" />
    <glyph glyph-name="uni069A.medi" unicode="&#x69a;" horiz-adv-x="999" 
d="M1022 0h-67q-81 0 -159 112q-83 -110 -149 -110q-46 0 -91 41q-40 35 -55 73q-78 -114 -142 -114q-95 0 -152 114q-76 -116 -163 -116h-67v386h65q64 0 89 47q17 74 23 89q22 57 61 57q42 0 54 -52q9 -30 25 -94q19 -49 77 -49q47 0 66 49q16 73 24 88q22 56 57 56
q39 0 56 -51q5 -29 19 -93q15 -48 66 -48q50 0 68 48q6 42 19.5 91t56.5 51h3q37 0 51 -51q7 -28 23 -91q18 -47 77 -47h65v-386zM392 -302q-4 4 -4 8q0 6 7 13l99 100q5 6 11 6q5 0 11 -6l100 -100q6 -4 6 -9q0 -7 -10 -16l-90 -94q-6 -4 -12 -4t-15 4zM391 920q-3 3 -3 7
q0 6 7 14l98 99q5 6 11 6q5 0 11 -6l100 -99q6 -4 6 -10t-9 -15l-90 -94q-7 -5 -12 -5q-7 0 -15 5z" />
    <glyph glyph-name="uni069A.fina" unicode="&#x69a;" horiz-adv-x="1776" 
d="M1799 0h-63q-87 0 -159 95q-22 -26 -51.5 -55.5t-76.5 -29.5q-95 0 -144 80q-45 -78 -104 -78q-66 0 -107 27q0 -466 -514 -466q-263 0 -379 118q-94 95 -96 258v5q0 92 39 225q45 154 106 154q37 0 45 -30q6 -13 6 -61q0 -6 -9.5 -60t-9.5 -75q0 -166 334 -166
q103 0 189 22q134 33 134 106q0 59 -171 197l131 258q6 12 15 12q8 0 19 -12q46 -46 118 -110q57 -38 118 -38q57 0 73 48q6 29 25 83q12 50 56 50q39 0 47 -48t14 -86q19 -49 71 -49q48 0 68 49q10 40 19 81q21 54 54 54q36 0 48 -48q5 -25 19 -79q13 -45 73 -45h63v-386z
M1192 -302q-4 4 -4 8q0 6 7 13l99 100q5 6 11 6q5 0 11 -6l100 -100q6 -4 6 -9q0 -7 -10 -16l-90 -94q-6 -4 -12 -4t-15 4zM1191 920q-3 3 -3 7q0 6 7 14l98 99q5 6 11 6q5 0 11 -6l100 -99q6 -4 6 -10t-9 -15l-90 -94q-7 -5 -12 -5q-7 0 -15 5z" />
    <glyph glyph-name="uni069B.init" unicode="&#x69b;" horiz-adv-x="892" 
d="M892 448q0 -156 -45 -275q-63 -173 -181 -173q-49 0 -98.5 35.5t-69.5 76.5q-49 -110 -139 -110q-122 0 -166 114q-51 -116 -149 -116h-67v386h65q61 0 83 47l27 84q15 48 53 48q33 0 54 -53q10 -40 21 -83q26 -45 91 -45q47 0 64 45q14 68 18 85q20 53 57 53h1
q34 0 53 -57q10 -44 21 -87q23 -51 89 -51q78 0 78 55q0 33 -41 131l109 121q9 8 15 8q8 0 12 -10q45 -114 45 -229zM383 -137q7 8 14 8t14 -8l88 -93l102 93q8 8 14 8t10 -8l95 -93q7 -8 7 -14q0 -5 -5 -10l-101 -99q-5 -5 -11 -5q-5 0 -10 5l-97 97l-100 -97q-6 -5 -11 -5
t-9 5l-99 99q-4 6 -4 12q0 4 3 8zM491 -329q8 6 15 6q5 0 12 -6l90 -93q9 -9 9 -16q0 -5 -6 -9l-100 -101q-6 -5 -11 -5q-6 0 -11 5l-98 101q-7 7 -7 13q0 4 3 7z" />
    <glyph glyph-name="uni069B.medi" unicode="&#x69b;" horiz-adv-x="999" 
d="M1022 0h-67q-81 0 -159 112q-83 -110 -149 -110q-46 0 -91 41q-40 35 -55 73q-78 -114 -142 -114q-95 0 -152 114q-76 -116 -163 -116h-67v386h65q64 0 89 47q17 74 23 89q22 57 61 57q42 0 54 -52q9 -30 25 -94q19 -49 77 -49q47 0 66 49q16 73 24 88q22 56 57 56
q39 0 56 -51q5 -29 19 -93q15 -48 66 -48q50 0 68 48q6 42 19.5 91t56.5 51h3q37 0 51 -51q7 -28 23 -91q18 -47 77 -47h65v-386zM383 -137q7 8 14 8t14 -8l88 -93l102 93q8 8 14 8t10 -8l95 -93q7 -8 7 -14q0 -5 -5 -10l-101 -99q-5 -5 -11 -5q-5 0 -10 5l-97 97l-100 -97
q-6 -5 -11 -5t-9 5l-99 99q-4 6 -4 12q0 4 3 8zM491 -329q8 6 15 6q5 0 12 -6l90 -93q9 -9 9 -16q0 -5 -6 -9l-100 -101q-6 -5 -11 -5q-6 0 -11 5l-98 101q-7 7 -7 13q0 4 3 7z" />
    <glyph glyph-name="uni069B.fina" unicode="&#x69b;" horiz-adv-x="1776" 
d="M1799 0h-63q-87 0 -159 95q-22 -26 -51.5 -55.5t-76.5 -29.5q-95 0 -144 80q-45 -78 -104 -78q-66 0 -107 27q0 -466 -514 -466q-263 0 -379 118q-94 95 -96 258v5q0 92 39 225q45 154 106 154q37 0 45 -30q6 -13 6 -61q0 -6 -9.5 -60t-9.5 -75q0 -166 334 -166
q103 0 189 22q134 33 134 106q0 59 -171 197l131 258q6 12 15 12q8 0 19 -12q46 -46 118 -110q57 -38 118 -38q57 0 73 48q6 29 25 83q12 50 56 50q39 0 47 -48t14 -86q19 -49 71 -49q48 0 68 49q10 40 19 81q21 54 54 54q36 0 48 -48q5 -25 19 -79q13 -45 73 -45h63v-386z
M1253 -137q7 8 14 8t14 -8l88 -93l102 93q8 8 14 8t10 -8l95 -93q7 -8 7 -14q0 -5 -5 -10l-101 -99q-5 -5 -11 -5q-5 0 -10 5l-97 97l-100 -97q-6 -5 -11 -5t-9 5l-99 99q-4 6 -4 12q0 4 3 8zM1361 -329q8 6 15 6q5 0 12 -6l90 -93q9 -9 9 -16q0 -5 -6 -9l-100 -101
q-6 -5 -11 -5q-6 0 -11 5l-98 101q-7 7 -7 13q0 4 3 7z" />
    <glyph glyph-name="uni069C.init" unicode="&#x69c;" horiz-adv-x="892" 
d="M892 448q0 -156 -45 -275q-63 -173 -181 -173q-49 0 -98.5 35.5t-69.5 76.5q-49 -110 -139 -110q-122 0 -166 114q-51 -116 -149 -116h-67v386h65q61 0 83 47l27 84q15 48 53 48q33 0 54 -53q10 -40 21 -83q26 -45 91 -45q47 0 64 45q14 68 18 85q20 53 57 53h1
q34 0 53 -57q10 -44 21 -87q23 -51 89 -51q78 0 78 55q0 33 -41 131l109 121q9 8 15 8q8 0 12 -10q45 -114 45 -229zM391 -202q7 7 12 7q6 0 10 -7l91 -94l103 94q6 8 11 8q7 0 14 -8l93 -94q5 -8 5 -15q0 -5 -3 -9l-104 -98q-5 -5 -9 -5q-5 0 -9 5l-99 96l-96 -96
q-6 -5 -10 -5q-6 0 -11 5l-100 98q-5 6 -5 12q0 5 4 9zM500 -394q5 6 11 6q5 0 11 -6l91 -93q9 -10 9 -17q0 -6 -5 -9l-101 -100q-5 -4 -9 -4q-5 0 -9 4l-100 100q-7 7 -7 12q0 4 5 8zM288 909q-4 4 -4 8q0 6 5 12l100 99q5 5 11 5q4 0 10 -5l96 -97l99 97q4 5 9 5q4 0 9 -5
l104 -99q3 -4 3 -9q0 -7 -5 -14l-93 -93q-7 -9 -14 -9q-5 0 -11 9l-103 93l-91 -93q-4 -7 -10 -7q-5 0 -12 7zM396 1102q-5 4 -5 9t7 12l100 100q4 5 9 5q4 0 9 -5l101 -100q5 -4 5 -9q0 -7 -9 -16l-91 -94q-6 -6 -11 -6q-6 0 -11 6z" />
    <glyph glyph-name="uni069C.medi" unicode="&#x69c;" horiz-adv-x="999" 
d="M1022 0h-67q-81 0 -159 112q-83 -110 -149 -110q-46 0 -91 41q-40 35 -55 73q-78 -114 -142 -114q-95 0 -152 114q-76 -116 -163 -116h-67v386h65q64 0 89 47q17 74 23 89q22 57 61 57q42 0 54 -52q9 -30 25 -94q19 -49 77 -49q47 0 66 49q16 73 24 88q22 56 57 56
q39 0 56 -51q5 -29 19 -93q15 -48 66 -48q50 0 68 48q6 42 19.5 91t56.5 51h3q37 0 51 -51q7 -28 23 -91q18 -47 77 -47h65v-386zM391 -202q7 7 12 7q6 0 10 -7l91 -94l103 94q6 8 11 8q7 0 14 -8l93 -94q5 -8 5 -15q0 -5 -3 -9l-104 -98q-5 -5 -9 -5q-5 0 -9 5l-99 96
l-96 -96q-6 -5 -10 -5q-6 0 -11 5l-100 98q-5 6 -5 12q0 5 4 9zM500 -394q5 6 11 6q5 0 11 -6l91 -93q9 -10 9 -17q0 -6 -5 -9l-101 -100q-5 -4 -9 -4q-5 0 -9 4l-100 100q-7 7 -7 12q0 4 5 8zM288 909q-4 4 -4 8q0 6 5 12l100 99q5 5 11 5q4 0 10 -5l96 -97l99 97q4 5 9 5
q4 0 9 -5l104 -99q3 -4 3 -9q0 -7 -5 -14l-93 -93q-7 -9 -14 -9q-5 0 -11 9l-103 93l-91 -93q-4 -7 -10 -7q-5 0 -12 7zM396 1102q-5 4 -5 9t7 12l100 100q4 5 9 5q4 0 9 -5l101 -100q5 -4 5 -9q0 -7 -9 -16l-91 -94q-6 -6 -11 -6q-6 0 -11 6z" />
    <glyph glyph-name="uni069C.fina" unicode="&#x69c;" horiz-adv-x="1776" 
d="M1799 0h-63q-87 0 -159 95q-22 -26 -51.5 -55.5t-76.5 -29.5q-95 0 -144 80q-45 -78 -104 -78q-66 0 -107 27q0 -466 -514 -466q-263 0 -379 118q-94 95 -96 258v5q0 92 39 225q45 154 106 154q37 0 45 -30q6 -13 6 -61q0 -6 -9.5 -60t-9.5 -75q0 -166 334 -166
q103 0 189 22q134 33 134 106q0 59 -171 197l131 258q6 12 15 12q8 0 19 -12q46 -46 118 -110q57 -38 118 -38q57 0 73 48q6 29 25 83q12 50 56 50q39 0 47 -48t14 -86q19 -49 71 -49q48 0 68 49q10 40 19 81q21 54 54 54q36 0 48 -48q5 -25 19 -79q13 -45 73 -45h63v-386z
M1252 -164q7 8 14 8t14 -8l89 -94l102 94q7 8 13 8t10 -8l95 -94q7 -7 7 -14q0 -5 -5 -10l-100 -98q-6 -6 -11 -6q-6 0 -11 6l-97 97l-100 -97q-6 -6 -11 -6t-9 6l-98 98q-5 7 -5 13q0 4 3 8zM1360 -356q9 5 15 5q5 0 12 -5l90 -93q10 -10 10 -17q0 -5 -6 -9l-101 -100
q-5 -5 -11 -5q-5 0 -11 5l-98 100q-7 7 -7 13q0 4 3 7zM1133 909q-2 3 -2 7q0 6 4 13l99 99q4 6 9 6t11 -6l100 -97l97 97q5 6 10 6q6 0 11 -6l101 -99q5 -5 5 -10q0 -6 -7 -13l-95 -93q-4 -8 -10 -8t-14 8l-102 93l-88 -93q-7 -8 -14 -8t-14 8zM1238 1102q-3 4 -3 8
q0 6 7 13l98 100q5 6 11 6q5 0 11 -6l100 -100q6 -4 6 -10t-9 -15l-90 -94q-7 -5 -12 -5q-7 0 -15 5z" />
    <glyph glyph-name="uni069D.init" unicode="&#x69d;" horiz-adv-x="1063" 
d="M1063 555q0 -183 -126 -346q-157 -204 -425 -204q-75 0 -163 27q-101 29 -140 78q-71 -110 -159 -110h-73v386h63q55 0 81 49q9 20 33 98q14 49 45 49q43 0 60 -93.5t68 -93.5q18 17 87 102q240 285 428 285q109 0 170 -75q51 -61 51 -152zM845 431q0 95 -116 96h-2
q-107 0 -292 -176q17 0 40 -1h69q124 0 220 28q81 26 81 53zM650 -297l108 108q6 8 13 8t14 -8l120 -112q5 -5 5 -11t-6 -14l-114 -110q-6 -5 -13 -5q-6 0 -14 5l-113 108l-112 -108q-6 -5 -12 -5q-7 0 -14 5l-116 110q-4 4 -4 10q0 8 6 18l108 109q6 8 13 8t15 -8z" />
    <glyph glyph-name="uni069D.medi" unicode="&#x69d;" horiz-adv-x="1123" 
d="M1146 0h-77q-122 0 -191 149q-106 -144 -366 -144q-75 0 -163 27q-101 29 -140 78q-71 -110 -159 -110h-73v386h63q55 0 81 49q9 20 33 98q14 49 45 49q43 0 59 -92.5t69 -92.5q3 0 87 101q96 112 187 185q128 99 242 99q104 0 167 -73q53 -61 53 -158q0 -81 -31 -146
q10 -19 46 -19h68v-386zM845 431q0 95 -116 96h-2q-107 0 -292 -176q17 0 40 -1h69q124 0 220 28q81 26 81 53zM588 -308q1 3 2 5l109 109q6 8 12 8q7 0 15 -8l120 -112q5 -5 5 -10q0 -7 -7 -16l-114 -110q-5 -5 -12 -5q-6 0 -14 5l-116 110q-1 1 -1 2q-1 -2 -1 -3
l-114 -110q-6 -5 -13 -5q-6 0 -14 5l-115 110q-4 5 -4 12t5 17l109 109q6 8 13 8t14 -8l120 -112z" />
    <glyph glyph-name="uni069D.fina" unicode="&#x69d;" horiz-adv-x="1880" 
d="M1903 0h-68q-125 0 -200 148q-54 -68 -152.5 -107t-208.5 -41h-9q-86 0 -171 39q0 -466 -514 -466q-263 0 -379 118q-94 95 -96 258v5q0 93 39 225q47 154 106 154q35 0 45 -22q6 -21 6 -69q0 -6 -9.5 -60t-9.5 -75q0 -166 334 -166q103 0 189 22q134 33 134 106
q0 59 -171 197l131 258q7 14 16 14q6 0 18 -14q118 -136 141 -136q3 0 88 100q104 122 188 191q128 101 248 101q100 0 160 -73q53 -66 55 -150v-14q0 -91 -25 -138q9 -19 46 -19h69v-386zM1598 425q0 97 -118 97q-116 0 -291 -174q26 -2 77 -2q155 0 247 28q85 25 85 51z
M1443 -276l103 107q7 8 15 8t16 -8l117 -112q6 -5 6 -12q0 -6 -6 -13l-115 -110q-5 -5 -11 -5q-7 0 -15 5l-110 106l-110 -106q-5 -5 -11 -5q-7 0 -15 5l-113 110q-8 6 -8 13t9 15l105 109q7 8 15 8t16 -8z" />
    <glyph glyph-name="uni069E.init" unicode="&#x69e;" horiz-adv-x="1063" 
d="M1063 555q0 -183 -126 -346q-157 -204 -425 -204q-75 0 -163 27q-101 29 -140 78q-71 -110 -159 -110h-73v386h63q55 0 81 49q9 20 33 98q14 49 45 49q43 0 60 -93.5t68 -93.5q18 17 87 102q240 285 428 285q109 0 170 -75q51 -61 51 -152zM845 431q0 95 -116 96h-2
q-107 0 -292 -176q17 0 40 -1h69q124 0 220 28q81 26 81 53zM566 1021q-3 4 -3 8q0 6 4 12l99 99q4 6 9 6t11 -6l100 -97l97 97q5 6 10 6q6 0 11 -6l101 -99q5 -5 5 -10q0 -6 -7 -13l-95 -93q-4 -8 -10 -8t-14 8l-102 93l-88 -93q-7 -8 -14 -8t-14 8zM670 1214q-3 4 -3 8
q0 6 7 13l98 100q5 6 11 6q5 0 11 -6l100 -100q6 -4 6 -10t-9 -15l-90 -94q-7 -5 -12 -5q-7 0 -15 5z" />
    <glyph glyph-name="uni069E.medi" unicode="&#x69e;" horiz-adv-x="1123" 
d="M1146 0h-77q-122 0 -191 149q-106 -144 -366 -144q-75 0 -163 27q-101 29 -140 78q-71 -110 -159 -110h-73v386h63q55 0 81 49q9 20 33 98q14 49 45 49q43 0 59 -92.5t69 -92.5q3 0 87 101q96 112 187 185q128 99 242 99q104 0 167 -73q53 -61 53 -158q0 -81 -31 -146
q10 -19 46 -19h68v-386zM845 431q0 95 -116 96h-2q-107 0 -292 -176q17 0 40 -1h69q124 0 220 28q81 26 81 53zM566 1021q-3 4 -3 8q0 6 4 12l99 99q4 6 9 6t11 -6l100 -97l97 97q5 6 10 6q6 0 11 -6l101 -99q5 -5 5 -10q0 -6 -7 -13l-95 -93q-4 -8 -10 -8t-14 8l-102 93
l-88 -93q-7 -8 -14 -8t-14 8zM670 1214q-3 4 -3 8q0 6 7 13l98 100q5 6 11 6q5 0 11 -6l100 -100q6 -4 6 -10t-9 -15l-90 -94q-7 -5 -12 -5q-7 0 -15 5z" />
    <glyph glyph-name="uni069E.fina" unicode="&#x69e;" horiz-adv-x="1880" 
d="M1903 0h-68q-125 0 -200 148q-54 -68 -152.5 -107t-208.5 -41h-9q-86 0 -171 39q0 -466 -514 -466q-263 0 -379 118q-94 95 -96 258v5q0 93 39 225q47 154 106 154q35 0 45 -22q6 -21 6 -69q0 -6 -9.5 -60t-9.5 -75q0 -166 334 -166q103 0 189 22q134 33 134 106
q0 59 -171 197l131 258q7 14 16 14q6 0 18 -14q118 -136 141 -136q3 0 88 100q104 122 188 191q128 101 248 101q100 0 160 -73q53 -66 55 -150v-14q0 -91 -25 -138q9 -19 46 -19h69v-386zM1598 425q0 97 -118 97q-116 0 -291 -174q26 -2 77 -2q155 0 247 28q85 25 85 51z
M1338 1021q-3 4 -3 8q0 6 4 12l99 99q4 6 9 6t11 -6l100 -97l97 97q5 6 10 6q6 0 11 -6l101 -99q5 -5 5 -10q0 -6 -7 -13l-95 -93q-4 -8 -10 -8t-14 8l-102 93l-88 -93q-7 -8 -14 -8t-14 8zM1442 1214q-3 4 -3 8q0 6 7 13l98 100q5 6 11 6q5 0 11 -6l100 -100q6 -4 6 -10
t-9 -15l-90 -94q-7 -5 -12 -5q-7 0 -15 5z" />
    <glyph glyph-name="uni069F.init" unicode="&#x69f;" horiz-adv-x="1030" 
d="M1030 589q0 -195 -149 -362q-205 -227 -615 -227h-289v386h179q0 408 -133 688l219 191q27 24 38 24t28 -39l127 -286q16 -35 16 -45q0 -9 -15 -9q-19 0 -64 15q5 -47 5 -90q0 -194 -73 -367q309 339 521 339q102 0 160 -73q45 -59 45 -145zM780 455q0 98 -120 98
q-111 0 -291 -177q27 -2 76 -2q83 0 183 16q152 22 152 65zM552 1019q-3 4 -3 8q0 5 5 12l99 98q5 5 11 5q4 0 10 -5l97 -97l98 97q4 5 9 5q4 0 9 -5l104 -98q3 -4 3 -9q0 -7 -5 -15l-93 -93q-7 -8 -13 -8t-12 8l-102 93l-91 -93q-5 -7 -11 -7q-5 0 -12 7zM660 1212
q-5 4 -5 8q0 6 7 13l100 99q5 5 9 5q5 0 10 -5l100 -99q5 -4 5 -9q0 -7 -9 -17l-91 -94q-6 -6 -11 -6q-6 0 -11 6z" />
    <glyph glyph-name="uni069F.medi" unicode="&#x69f;" horiz-adv-x="1104" 
d="M1127 0h-54q-167 0 -250 181q-200 -181 -583 -181h-263v386h179q0 408 -133 688l219 191q27 24 38 24t28 -39l127 -286q16 -35 16 -45q0 -9 -15 -9q-19 0 -64 15q5 -47 5 -90q0 -194 -73 -367q309 339 521 339q102 0 160 -73q45 -59 45 -145q0 -119 -39 -182
q12 -21 72 -21h64v-386zM780 455q0 41 -34.5 69.5t-85.5 28.5q-111 0 -291 -177q27 -2 76 -2q83 0 183 16q152 22 152 65zM561 1019q-3 4 -3 8q0 5 5 12l99 98q6 5 11 5t10 -5l97 -97l98 97q4 5 9 5q4 0 9 -5l104 -98q3 -4 3 -9q0 -7 -5 -15l-93 -93q-7 -8 -13 -8t-12 8
l-102 93l-91 -93q-4 -7 -10 -7t-13 7zM669 1212q-5 4 -5 8q0 6 7 13l100 99q5 5 9 5q5 0 10 -5l100 -99q5 -4 5 -9q0 -7 -9 -17l-91 -94q-6 -6 -11 -6q-6 0 -11 6z" />
    <glyph glyph-name="uni069F.fina" unicode="&#x69f;" horiz-adv-x="1386" 
d="M1409 0h-54q-169 0 -252 181q-193 -177 -490 -177q-116 0 -240 67q-110 61 -199 156q-70 78 -70 102q0 31 19.5 38t82.5 7q37 0 113.5 -1t114.5 -1q0 237 -47 444q-33 152 -84 258l218 191q28 24 41 24q8 0 28 -39l128 -286q9 -23 14 -45q0 -9 -15 -9q-19 0 -63 15
q5 -47 5 -90q0 -187 -71 -367q305 339 519 339q101 0 159 -73q46 -57 46 -145v-10q0 -110 -41 -172q16 -21 72 -21h66v-386zM1058 455q0 45 -31.5 71.5t-82.5 26.5q-116 0 -293 -177q25 -2 76 -2q87 0 181 14q150 23 150 67zM858 1019q-3 4 -3 8q0 5 5 12l99 98q6 5 11 5
t10 -5l97 -97l98 97q5 5 9 5q5 0 10 -5l103 -98q3 -5 3 -10q0 -7 -4 -14l-93 -93q-8 -8 -14 -8q-5 0 -12 8l-102 93l-91 -93q-4 -7 -10 -7t-13 7zM967 1212q-5 4 -5 8q0 6 7 13l100 99q4 5 9 5q4 0 9 -5l100 -99q5 -4 5 -10q0 -7 -8 -16l-92 -94q-5 -6 -11 -6q-5 0 -10 6z
" />
    <glyph glyph-name="uni06A0.init" unicode="&#x6a0;" horiz-adv-x="749" 
d="M742 421q-13 -43 -44 -161q-40 -160 -51 -163q-39 -7 -141 -7q-94 0 -139 7q-47 -40 -157.5 -68.5t-169.5 -28.5h-63v386h63q41 0 66 18q-60 52 -61 98v2q0 140 110 267q111 128 261 130h3q100 0 186 -78q93 -85 108 -193q0 -51 -29 -51q-22 0 -74 16q-60 19 -147 19
q-86 0 -152 -20q-88 -27 -88 -75q0 -47 95 -70q61 -14 131 -14q108 0 264 30q9 1 15 1q20 0 21 -11q0 -10 -7 -34zM170 1110q-2 3 -2 7q0 6 4 13l98 98q5 6 10 6t10 -6l101 -96l96 96q5 6 11 6q5 0 11 -6l100 -98q5 -5 5 -10q0 -6 -7 -14l-94 -93q-4 -7 -10 -7t-14 7
l-102 93l-88 -93q-7 -7 -14 -7t-15 7zM275 1303q-3 3 -3 7q0 6 7 14l98 99q5 6 11 6q5 0 11 -6l100 -99q6 -4 6 -9q0 -7 -10 -17l-90 -94q-6 -4 -12 -4t-14 4z" />
    <glyph glyph-name="uni06A0.medi" unicode="&#x6a0;" horiz-adv-x="698" 
d="M721 0h-77q-97 0 -180 36.5t-107 99.5q-42 -73 -93 -99q-61 -37 -163 -37h-124v386h112q120 0 142 19q-71 99 -157 138q-16 8 -16 42q0 102 108 168q94 60 201 60q108 0 180 -51q83 -60 83 -148q0 -49 -53 -122q-15 -20 -88 -93q33 -13 129 -13h103v-386zM115 1064
q-2 3 -2 7q0 6 4 13l99 99q4 6 9 6t11 -6l100 -97l97 97q5 6 10 6q6 0 11 -6l101 -99q5 -5 5 -10q0 -6 -7 -14l-95 -92q-4 -8 -10 -8t-14 8l-102 92l-88 -92q-7 -8 -14 -8t-14 8zM220 1257q-3 3 -3 7q0 6 7 14l98 99q5 6 11 6q5 0 11 -6l100 -99q6 -4 6 -10t-9 -15l-90 -94
q-7 -5 -12 -5q-7 0 -15 5z" />
    <glyph glyph-name="uni06A0.fina" unicode="&#x6a0;" horiz-adv-x="1070" 
d="M477 1082q-3 4 -3 9t4 11l99 99q4 6 9 6t11 -6l100 -97l97 97q5 6 11 6q5 0 11 -6l100 -99q5 -5 5 -10q0 -6 -7 -13l-95 -93q-4 -8 -10 -8t-14 8l-102 93l-88 -93q-7 -8 -14 -8t-14 8zM581 1275q-3 4 -3 8q0 6 7 13l98 100q5 6 11 6q5 0 11 -6l100 -100q6 -4 6 -10
t-9 -15l-90 -94q-7 -5 -12 -5q-7 0 -15 5zM855 -283l38 1q17 0 46 2q117 0 119 -54v-1q0 -108 -396 -108q-558 0 -558 399q0 161 96 268q63 71 205 134q64 20 191 65q-56 74 -112 106q-3 4 -59 19q-14 5 -17 37q0 102 107 168q93 60 200 60q109 0 182 -51q79 -56 83 -148
q0 -49 -56 -117l-90 -90q43 -21 118 -21h141v-386h-102q-125 0 -216 105q-77 85 -92 207q-92 -42 -151 -127q-61 -90 -61 -187q0 -149 123 -222q100 -58 261 -59z" />
    <glyph glyph-name="uni06A1.init" unicode="&#x6a1;" horiz-adv-x="569" 
d="M569 498q0 -498 -485 -498h-107v386h106q276 0 321 29q19 16 19 31q0 24 -23 24h-8q-4 -2 -6 -2q-31 -15 -136 -15q-216 0 -216 177q0 122 57 234q65 135 175 135q157 0 238 -190q65 -149 65 -311zM372 685q0 21 -35.5 48t-69.5 29q-29 0 -52.5 -16t-23.5 -44
q0 -31 95 -32h10q76 0 76 15z" />
    <glyph glyph-name="uni06A1.medi" unicode="&#x6a1;" horiz-adv-x="584" 
d="M607 0h-67q-56 0 -127.5 37.5t-104.5 80.5q-140 -118 -272 -118h-59v386h120q-27 25 -27 114v3q0 102 78 216q92 133 213 133q91 0 145 -87q46 -73 48 -170q0 -135 -54 -209h107v-386zM414 509q0 27 -32.5 49t-66.5 22q-43 0 -76.5 -21t-35.5 -49q0 -20 42 -50
q37 -27 63 -27q39 0 72.5 26t33.5 50z" />
    <glyph glyph-name="uni06A1.fina" unicode="&#x6a1;" horiz-adv-x="1417" 
d="M1440 0h-69q-57 0 -122 36.5t-102 85.5q-181 -156 -508 -156q-272 0 -397 81q-138 89 -138 307q0 92 31 191q36 108 83 108q45 0 45 -83q0 -147 128 -200q81 -32 260 -32q200 0 295 24q-43 45 -45 138q0 104 80 219q92 133 213 133q93 0 149 -94q42 -71 42 -163v-9
q0 -124 -56 -200h111v-386zM1247 509q0 25 -32 50q-35 21 -71 21q-46 0 -76.5 -20.5t-31.5 -49.5q0 -22 39.5 -49.5t65.5 -27.5q41 0 73.5 26t32.5 50z" />
    <glyph glyph-name="uni06A2.init" unicode="&#x6a2;" horiz-adv-x="569" 
d="M569 498q0 -498 -485 -498h-107v386h106q276 0 321 29q19 16 19 31q0 24 -23 24h-8q-4 -2 -6 -2q-31 -15 -136 -15q-216 0 -216 177q0 122 57 234q65 135 175 135q157 0 238 -190q65 -149 65 -311zM372 685q0 21 -35.5 48t-69.5 29q-29 0 -52.5 -16t-23.5 -44
q0 -31 95 -32h10q76 0 76 15zM421 -282q6 -2 6 -7q0 -6 -8 -15l-114 -114q-6 -5 -12 -5t-12 5l-116 112q-8 7 -8 13q0 7 9 14l107 109q7 7 14 7q8 0 15 -7z" />
    <glyph glyph-name="uni06A2.medi" unicode="&#x6a2;" horiz-adv-x="584" 
d="M607 0h-67q-56 0 -127.5 37.5t-104.5 80.5q-140 -118 -272 -118h-59v386h120q-27 25 -27 114v3q0 102 78 216q92 133 213 133q91 0 145 -87q46 -73 48 -170q0 -135 -54 -209h107v-386zM414 509q0 27 -32.5 49t-66.5 22q-43 0 -76.5 -21t-35.5 -49q0 -20 42 -50
q37 -27 63 -27q39 0 72.5 26t33.5 50zM411 -233q6 -5 6 -10q0 -7 -8 -14l-112 -113q-4 -5 -10 -5t-14 5l-116 112q-5 6 -5 11q0 8 9 17l107 109q5 9 12 9t15 -9z" />
    <glyph glyph-name="uni06A2.fina" unicode="&#x6a2;" horiz-adv-x="1417" 
d="M1440 0h-69q-57 0 -122 36.5t-102 85.5q-181 -156 -508 -156q-272 0 -397 81q-138 89 -138 307q0 92 31 191q36 108 83 108q45 0 45 -83q0 -147 128 -200q81 -32 260 -32q200 0 295 24q-43 45 -45 138q0 104 80 219q92 133 213 133q93 0 149 -94q42 -71 42 -163v-9
q0 -124 -56 -200h111v-386zM1247 509q0 25 -32 50q-35 21 -71 21q-46 0 -76.5 -20.5t-31.5 -49.5q0 -22 39.5 -49.5t65.5 -27.5q41 0 73.5 26t32.5 50zM1237 -224q4 -5 4 -11t-6 -13l-114 -114q-7 -6 -13 -6t-11 6l-116 112q-6 5 -6 11q0 9 10 19l105 108q6 7 13 7t14 -7z
" />
    <glyph glyph-name="uni06A3.init" unicode="&#x6a3;" horiz-adv-x="569" 
d="M569 498q0 -498 -485 -498h-107v386h106q276 0 321 29q19 16 19 31q0 24 -23 24h-8q-4 -2 -6 -2q-31 -15 -136 -15q-216 0 -216 177q0 122 57 234q65 135 175 135q157 0 238 -190q65 -149 65 -311zM372 685q0 21 -35.5 48t-69.5 29q-29 0 -52.5 -16t-23.5 -44
q0 -31 95 -32h10q76 0 76 15zM401 -282q5 -2 5 -6q0 -6 -7 -15l-114 -114q-6 -5 -12 -5t-12 5l-116 112q-8 6 -8 13t9 14l107 109q7 7 14 7q8 0 15 -7zM394 1234q6 -2 6 -6q0 -6 -8 -15l-113 -114q-6 -5 -12 -5t-12 5l-117 112q-7 6 -7 12q0 8 9 15l107 109q7 7 14 7t15 -7z
" />
    <glyph glyph-name="uni06A3.medi" unicode="&#x6a3;" horiz-adv-x="584" 
d="M607 0h-67q-56 0 -127.5 37.5t-104.5 80.5q-140 -118 -272 -118h-59v386h120q-27 25 -27 114v3q0 102 78 216q92 133 213 133q91 0 145 -87q46 -73 48 -170q0 -135 -54 -209h107v-386zM414 509q0 27 -32.5 49t-66.5 22q-43 0 -76.5 -21t-35.5 -49q0 -20 42 -50
q37 -27 63 -27q39 0 72.5 26t33.5 50zM437 -220q7 -5 7 -10q0 -7 -9 -14l-112 -113q-4 -5 -10 -5q-5 0 -13 5l-116 112q-5 6 -5 12q0 8 8 16l107 109q5 9 12 9t15 -9zM437 1099q7 -5 7 -10q0 -7 -9 -14l-112 -113q-4 -5 -10 -5q-5 0 -13 5l-116 112q-5 6 -5 12q0 8 8 16
l107 109q5 9 12 9t15 -9z" />
    <glyph glyph-name="uni06A3.fina" unicode="&#x6a3;" horiz-adv-x="1417" 
d="M1440 0h-69q-57 0 -122 36.5t-102 85.5q-181 -156 -508 -156q-272 0 -397 81q-138 89 -138 307q0 92 31 191q36 108 83 108q45 0 45 -83q0 -147 128 -200q81 -32 260 -32q200 0 295 24q-43 45 -45 138q0 104 80 219q92 133 213 133q93 0 149 -94q42 -71 42 -163v-9
q0 -124 -56 -200h111v-386zM1247 509q0 25 -32 50q-35 21 -71 21q-46 0 -76.5 -20.5t-31.5 -49.5q0 -22 39.5 -49.5t65.5 -27.5q41 0 73.5 26t32.5 50zM811 -309q4 -5 4 -10q0 -7 -7 -14l-114 -113q-6 -6 -12 -6t-11 6l-116 112q-6 5 -6 11q0 8 10 18l104 108q6 7 13 7
t15 -7zM1297 1102q4 -5 4 -10q0 -6 -7 -13l-114 -114q-7 -6 -13 -6t-11 6l-115 112q-6 5 -6 12q0 8 9 17l105 108q6 7 13 7t14 -7z" />
    <glyph glyph-name="uni06A5.init" unicode="&#x6a5;" horiz-adv-x="569" 
d="M569 498q0 -498 -485 -498h-107v386h106q276 0 321 29q19 16 19 31q0 24 -23 24h-8q-4 -2 -6 -2q-31 -15 -136 -15q-216 0 -216 177q0 122 57 234q65 135 175 135q157 0 238 -190q65 -149 65 -311zM372 685q0 21 -35.5 48t-69.5 29q-29 0 -52.5 -16t-23.5 -44
q0 -31 95 -32h10q76 0 76 15zM167 -109q8 8 15 8t14 -8l88 -93l102 93q8 8 14 8t10 -8l94 -93q7 -8 7 -14q0 -5 -5 -10l-100 -98q-6 -6 -11 -6q-6 0 -11 6l-96 96l-101 -96q-5 -6 -10 -6t-10 6l-98 98q-4 7 -4 13q0 4 2 7zM276 -301q8 5 15 5q5 0 12 -5l89 -93
q10 -10 10 -16q0 -5 -6 -9l-100 -100q-6 -5 -11 -5q-6 0 -11 5l-98 100q-7 7 -7 13q0 4 3 7z" />
    <glyph glyph-name="uni06A5.medi" unicode="&#x6a5;" horiz-adv-x="584" 
d="M607 0h-67q-56 0 -127.5 37.5t-104.5 80.5q-140 -118 -272 -118h-59v386h120q-27 25 -27 114v3q0 102 78 216q92 133 213 133q91 0 145 -87q46 -73 48 -170q0 -135 -54 -209h107v-386zM414 509q0 27 -32.5 49t-66.5 22q-43 0 -76.5 -21t-35.5 -49q0 -20 42 -50
q37 -27 63 -27q39 0 72.5 26t33.5 50zM163 -121q8 8 15 8t14 -8l88 -93l101 93q8 8 14 8t10 -8l96 -93q7 -8 7 -14q0 -5 -5 -10l-101 -98q-5 -6 -11 -6q-5 0 -11 6l-97 96l-100 -96q-6 -6 -11 -6t-9 6l-99 98q-3 7 -3 12q0 4 2 8zM271 -312q9 5 16 5q5 0 12 -5l90 -93
q9 -10 9 -17q0 -5 -6 -9l-100 -100q-6 -5 -12 -5q-5 0 -11 5l-98 100q-7 7 -7 12t4 8z" />
    <glyph glyph-name="uni06A5.fina" unicode="&#x6a5;" horiz-adv-x="1417" 
d="M1440 0h-69q-57 0 -122 36.5t-102 85.5q-181 -156 -508 -156q-272 0 -397 81q-138 89 -138 307q0 92 31 191q36 108 83 108q45 0 45 -83q0 -147 128 -200q81 -32 260 -32q200 0 295 24q-43 45 -45 138q0 104 80 219q92 133 213 133q93 0 149 -94q42 -71 42 -163v-9
q0 -124 -56 -200h111v-386zM1247 509q0 25 -32 50q-35 21 -71 21q-46 0 -76.5 -20.5t-31.5 -49.5q0 -22 39.5 -49.5t65.5 -27.5q41 0 73.5 26t32.5 50zM983 -134q8 8 15 8t13 -8l89 -93l102 93q8 8 13 8q6 0 10 -8l95 -93q7 -8 7 -14q0 -5 -5 -10l-100 -98q-6 -6 -11 -6
q-6 0 -11 6l-98 97l-99 -97q-6 -6 -11 -6t-9 6l-98 98q-5 7 -5 13q0 4 3 8zM1092 -325q8 5 13 5q7 0 14 -5l89 -93q10 -10 10 -17q0 -5 -6 -9l-100 -100q-6 -5 -11 -5q-6 0 -11 5l-100 100q-6 7 -6 12q0 4 4 8z" />
    <glyph glyph-name="uni06A7.init" unicode="&#x6a7;" horiz-adv-x="569" 
d="M569 498q0 -498 -485 -498h-107v386h106q276 0 321 29q19 16 19 31q0 24 -23 24h-8q-4 -2 -6 -2q-31 -15 -136 -15q-216 0 -216 177q0 122 57 234q65 135 175 135q157 0 238 -190q65 -149 65 -311zM372 685q0 21 -35.5 48t-69.5 29q-29 0 -52.5 -16t-23.5 -44
q0 -31 95 -32h10q76 0 76 15zM394 1234q6 -2 6 -6q0 -6 -8 -15l-113 -114q-6 -5 -12 -5t-12 5l-117 112q-7 6 -7 12q0 8 9 15l107 109q7 7 14 7t15 -7z" />
    <glyph glyph-name="uni06A7.medi" unicode="&#x6a7;" horiz-adv-x="584" 
d="M607 0h-67q-56 0 -127.5 37.5t-104.5 80.5q-140 -118 -272 -118h-59v386h120q-27 25 -27 114v3q0 102 78 216q92 133 213 133q91 0 145 -87q46 -73 48 -170q0 -135 -54 -209h107v-386zM414 509q0 27 -32.5 49t-66.5 22q-43 0 -76.5 -21t-35.5 -49q0 -20 42 -50
q37 -27 63 -27q39 0 72.5 26t33.5 50zM437 1099q7 -5 7 -10q0 -7 -9 -14l-112 -113q-4 -5 -10 -5q-5 0 -13 5l-116 112q-5 6 -5 12q0 8 8 16l107 109q5 9 12 9t15 -9z" />
    <glyph glyph-name="uni06A7.fina" unicode="&#x6a7;" horiz-adv-x="1147" 
d="M1170 0h-96q0 -427 -484 -427q-215 0 -339 81q-147 95 -147 295q0 98 39 230q47 154 106 154q35 0 45 -22q6 -21 6 -69q0 -6 -9.5 -60t-9.5 -75q0 -166 334 -166q258 0 317 42q20 19 24 32q0 12 -89 14q-154 2 -213 38q-64 40 -64 155v9q0 155 66 291q76 155 183 155
q197 0 223 -291h108v-386zM917 353q0 25 -39 48.5t-66 25.5h-6q-26 0 -48 -15q-26 -18 -26 -44q0 -32 95 -34h8q80 0 82 19zM713 896q-4 3 -4 8t7 12l99 100q5 5 10 5q6 0 11 -5l101 -100q6 -4 6 -9q0 -7 -10 -17l-89 -93q-8 -5 -12 -5q-7 0 -16 5z" />
    <glyph glyph-name="uni06A8.init" unicode="&#x6a8;" horiz-adv-x="569" 
d="M569 498q0 -498 -485 -498h-107v386h106q276 0 321 29q19 16 19 31q0 24 -23 24h-8q-4 -2 -6 -2q-31 -15 -136 -15q-216 0 -216 177q0 122 57 234q65 135 175 135q157 0 238 -190q65 -149 65 -311zM372 685q0 21 -35.5 48t-69.5 29q-29 0 -52.5 -16t-23.5 -44
q0 -31 95 -32h10q76 0 76 15zM54 1208q-3 4 -3 8q0 6 4 12l99 98q4 6 9 6t11 -6l100 -96l97 96q5 6 10 6q6 0 11 -6l101 -98q5 -5 5 -10q0 -6 -7 -14l-95 -93q-4 -7 -10 -7t-14 7l-102 93l-88 -93q-7 -7 -14 -7t-14 7zM158 1401q-3 3 -3 7q0 6 7 13l98 100q5 5 11 5
q5 0 11 -5l100 -100q6 -4 6 -9q0 -7 -9 -16l-90 -93q-7 -6 -11 -6q-8 0 -16 6z" />
    <glyph glyph-name="uni06A8.medi" unicode="&#x6a8;" horiz-adv-x="584" 
d="M607 0h-67q-56 0 -127.5 37.5t-104.5 80.5q-140 -118 -272 -118h-59v386h120q-27 25 -27 114v3q0 102 78 216q92 133 213 133q91 0 145 -87q46 -73 48 -170q0 -135 -54 -209h107v-386zM414 509q0 27 -32.5 49t-66.5 22q-43 0 -76.5 -21t-35.5 -49q0 -20 42 -50
q37 -27 63 -27q39 0 72.5 26t33.5 50zM109 1059q-2 3 -2 7q0 6 4 13l98 98q5 6 10 6t10 -6l101 -97l96 97q6 6 11 6q6 0 12 -6l100 -98q5 -5 5 -10q0 -6 -7 -14l-95 -93q-4 -7 -10 -7t-14 7l-101 93l-89 -93q-6 -7 -14 -7q-7 0 -15 7zM215 1252q-4 3 -4 8t7 12l98 100
q6 5 11 5q6 0 12 -5l99 -100q6 -4 6 -9q0 -7 -9 -17l-90 -93q-6 -5 -12 -5t-15 5z" />
    <glyph glyph-name="uni06A8.fina" unicode="&#x6a8;" horiz-adv-x="1147" 
d="M1170 0h-96q0 -427 -484 -427q-215 0 -339 81q-147 95 -147 295q0 98 39 230q47 154 106 154q35 0 45 -22q6 -21 6 -69q0 -6 -9.5 -60t-9.5 -75q0 -166 334 -166q258 0 317 42q20 19 24 32q0 12 -89 14q-154 2 -213 38q-64 40 -64 155v9q0 155 66 291q76 155 183 155
q197 0 223 -291h108v-386zM917 353q0 25 -39 48.5t-66 25.5h-6q-26 0 -48 -15q-26 -18 -26 -44q0 -32 95 -34h8q80 0 82 19zM1049 921q7 -4 7 -8q0 -6 -7 -12l-99 -98q-4 -6 -11 -6q-5 0 -12 6l-95 91l-91 -91q-7 -6 -12 -6t-14 6l-100 98q-6 6 -6 11q0 7 8 15l93 96
q7 5 14 5q6 0 15 -5l93 -92l88 92q8 5 16 5q6 0 13 -5zM713 1123q-4 4 -4 8q0 6 7 12l99 101q5 5 10 5q6 0 11 -5l101 -101q6 -3 6 -9t-10 -16l-89 -93q-8 -6 -12 -6q-7 0 -16 6z" />
    <glyph glyph-name="uni06AA.init" unicode="&#x6aa;" horiz-adv-x="1562" 
d="M-23 386h1058q223 0 263.5 22.5t40.5 53.5q0 30 -24 49q-16 12 -43 19q-17 4 -39 7l-62 1h-828q-145 0 -197 90q-24 43 -24 95q0 29 8 61q29 154 108 266q85 120 212 168q51 23 108 36q31 6 58 7l11 1l12 -1q10 0 20 -1q44 -6 74 -26q47 -29 64 -80q14 -39 15 -108
q0 -49 -11 -68q-8 -14 -22 -14t-33 13q-61 23 -162 27q-222 -4 -317 -105q-23 -25 -23 -43q0 -5 2 -9q6 -16 32 -34q33 -22 123 -22h609q44 0 84 -2q67 -3 122 -11q84 -11 140 -32q139 -53 175 -161q31 -99 31 -193q0 -115 -39 -194q-64 -175 -406 -190l-200 -8h-940v386z
" />
    <glyph glyph-name="uni06AA.medi" unicode="&#x6aa;" horiz-adv-x="1736" 
d="M1498 149q-90 -128 -381 -141l-200 -8h-940v386h1058q223 0 263.5 22.5t40.5 53.5q0 30 -24 49q-16 12 -43 19q-17 4 -39 7l-62 1h-828q-145 0 -197 90q-24 43 -24 95q0 29 8 61q29 154 108 266q85 120 212 168q51 23 108 36q31 6 58 7l11 1l12 -1q10 0 20 -1
q44 -6 74 -26q47 -29 64 -80q14 -39 15 -108q0 -49 -11 -68q-8 -14 -22 -14t-33 13q-61 23 -162 27q-222 -4 -317 -105q-23 -25 -23 -43q0 -5 2 -9q6 -16 32 -34q33 -22 123 -22h609q44 0 84 -2q67 -3 122 -11q84 -11 140 -32q139 -53 175 -161l6 -20q6 -11 9 -27
q16 -75 28 -103q31 -49 120 -49h65v-386h-65q-119 0 -186 108z" />
    <glyph glyph-name="uni06AA.fina" unicode="&#x6aa;" horiz-adv-x="1966" 
d="M1280 356q223 0 263.5 22.5t40.5 53.5q0 30 -24 49q-16 12 -43 19q-17 4 -39 7l-62 1h-948q-145 0 -197 90q-24 43 -24 95q0 29 8 61q29 154 108 266q85 120 212 168q51 23 108 36q31 6 58 7l11 1l12 -1q10 0 20 -1q44 -6 74 -26q47 -29 64 -80q14 -39 15 -108
q0 -49 -11 -68q-8 -14 -22 -14t-33 13q-61 23 -162 27q-222 -4 -317 -105q-23 -25 -23 -43q0 -5 2 -9q6 -16 32 -34q33 -22 123 -22h729q44 0 84 -2q67 -3 122 -11q84 -11 140 -32q139 -53 175 -161q18 -58 26 -114l2 -6q31 -49 120 -49h65v-386h-65q-104 0 -168 83l-18 30
q-92 -123 -376 -135q-43 -2 -90 -2h-5v1l-628 -1q-253 0 -374 67q-159 86 -161 313h1176z" />
    <glyph glyph-name="uni06AB.init" unicode="&#x6ab;" horiz-adv-x="744" 
d="M744 1234l-12 -79l-649 -210l14 92zM729 1079l-18 -229q-2 -19 -4 -25t-18 -9l-332 -92q129 -157 129 -320q0 -250 -161 -348q-92 -56 -210 -56h-138v386h78q124 0 185 13q26 3 26 25q0 9 -9 24q-36 48 -223 221l40 209q0 6 7 14l632 202l14 4q2 -3 2 -12v-7z" />
    <glyph glyph-name="uni06AB.medi" unicode="&#x6ab;" horiz-adv-x="810" 
d="M750 1234l-8 -79l-651 -210l16 92zM833 0h-67q-82 0 -177 63q-79 53 -142 127q-94 -190 -344 -190h-126v386h88q112 0 164 16q23 5 26 19q0 4 -15 25q-61 78 -196 223l39 209q0 6 6 14l634 202l12 4q3 -3 3 -10q0 -4 -1 -9l-18 -229q0 -19 -4 -25t-17 -9l-355 -109
q199 -237 214 -249q78 -72 187 -72h89v-386z" />
    <glyph glyph-name="uni06AB.fina" unicode="&#x6ab;" horiz-adv-x="1617" 
d="M1559 1234l-10 -79l-651 -210l17 92zM1640 0h-66q-80 0 -176 63q-81 53 -144 127q-65 -131 -221 -180q-105 -34 -287 -34h-108q-252 0 -374 67q-160 89 -160 319q0 89 32 195t83 106q45 0 45 -86q0 -101 51 -146q82 -75 337 -75q298 0 389 29q20 7 20 19q0 13 -12 27
q-67 86 -197 238l37 209q0 6 7 14l634 202q11 4 15 4v-19l-18 -229q-2 -19 -4.5 -24t-14.5 -10l-356 -109l214 -249q77 -72 185 -72h89v-386z" />
    <glyph glyph-name="uni06AC.init" unicode="&#x6ac;" horiz-adv-x="766" 
d="M766 1230l-31 -280q0 -17 -3 -22t-17 -9l-348 -110q90 -107 120 -173q49 -103 51 -231v-7q0 -190 -106 -293q-109 -105 -301 -105h-154v386h78q122 0 146 2q117 9 119 41q0 10 -12 29q-34 49 -126 137q-51 45 -150 136l45 273q4 19 18 24l655 216q6 1 14 2q2 -2 2 -16z
M76 1345q-3 3 -3 7q0 6 6 13l99 100q5 5 11 5q5 0 11 -5l100 -100q6 -3 6 -9q0 -7 -10 -17l-89 -92q-7 -6 -12 -6q-7 0 -15 6z" />
    <glyph glyph-name="uni06AC.medi" unicode="&#x6ac;" horiz-adv-x="855" 
d="M878 0h-66q-80 0 -177 63q-81 53 -141 127q-59 -113 -169 -154q-94 -36 -242 -36h-106v386h112q205 0 205 31q0 10 -15 28q-3 4 -261 277l44 272q3 17 21 27l654 213q7 0 12 2q1 0 1 -16l-27 -277q-2 -12 -6 -24q-2 -2 -14 -8l-385 -132q236 -273 256 -289
q104 -104 214 -104h90v-386zM76 1345q-3 3 -3 7q0 6 6 13l99 100q5 5 11 5q5 0 11 -5l100 -100q6 -3 6 -9q0 -7 -10 -17l-89 -92q-7 -6 -12 -6q-7 0 -15 6z" />
    <glyph glyph-name="uni06AC.fina" unicode="&#x6ac;" horiz-adv-x="1520" 
d="M851 682v-4q0 -53 -45 -123q-53 -80 -131 -82h-7q-70 0 -113 41l36 102q45 -30 108 -30q28 0 46 11.5t18 32.5q0 12 -71.5 17.5t-71.5 47.5q0 54 52 165q42 94 101 96q28 0 53 -35t25 -66v-4q0 -38 -34 -38q-13 0 -25 13.5t-39 15.5h-2q-16 0 -27 -17q-12 -19 -12 -37
q0 -23 36 -31q62 -11 67 -13q36 -12 36 -62zM1164 156l-7 -12q-203 -193 -603 -193q-228 0 -334 90q-116 97 -116 315q0 79 21 165q28 120 81 120q51 0 57 -82q6 -106 51 -154q79 -82 317 -84h13q236 0 402 69q47 20 87 46q-2 135 -7 270q-11 249 -23 320q-1 9 -1 18
q0 26 15 38l246 173q22 17 35 17q8 0 11 -18v-748q0 -121 109 -121h25v-383h-90q-149 0 -224 61q-42 36 -65 93zM1121 1433q-3 3 -3 7q0 6 6 13l99 100q5 5 11 5q5 0 11 -5l100 -100q6 -3 6 -9q0 -7 -10 -17l-89 -92q-7 -6 -12 -6q-7 0 -15 6z" />
    <glyph glyph-name="uni06AE.init" unicode="&#x6ae;" horiz-adv-x="766" 
d="M766 1230l-31 -280q0 -17 -3 -22t-17 -9l-348 -110q90 -107 120 -173q49 -103 51 -231v-7q0 -190 -106 -293q-109 -105 -301 -105h-154v386h78q122 0 146 2q117 9 119 41q0 10 -12 29q-34 49 -126 137q-51 45 -150 136l45 273q4 19 18 24l655 216q6 1 14 2q2 -2 2 -16z
M444 -203q2 -4 2 -9q0 -6 -4 -12l-102 -99q-3 -4 -9 -4q-5 0 -10 4l-100 97l-96 -97q-6 -4 -10 -4q-6 0 -11 4l-100 97q-5 5 -5 11q0 7 7 15l93 93q5 7 11 7t13 -7l100 -93l90 93q6 7 13 7t14 -7zM335 -399q3 -3 3 -6q0 -4 -5 -10l-100 -101q-4 -5 -9 -5t-11 5l-102 101
q-3 3 -3 7q0 6 8 14l88 95q7 6 14 6t13 -6z" />
    <glyph glyph-name="uni06AE.medi" unicode="&#x6ae;" horiz-adv-x="855" 
d="M878 0h-66q-80 0 -177 63q-81 53 -141 127q-59 -113 -169 -154q-94 -36 -242 -36h-106v386h112q205 0 205 31q0 10 -15 28q-3 4 -261 277l44 272q3 17 21 27l654 213q7 0 12 2q1 0 1 -16l-27 -277q-2 -12 -6 -24q-2 -2 -14 -8l-385 -132q236 -273 256 -289
q104 -104 214 -104h90v-386zM514 -203q2 -4 2 -9q0 -6 -4 -12l-102 -99q-3 -4 -9 -4q-5 0 -10 4l-100 97l-96 -97q-6 -4 -10 -4q-6 0 -11 4l-100 97q-5 5 -5 11q0 7 7 15l93 93q5 7 11 7t13 -7l100 -93l90 93q6 7 13 7t14 -7zM405 -399q3 -3 3 -6q0 -4 -5 -10l-100 -101
q-4 -5 -9 -5t-11 5l-102 101q-3 3 -3 7q0 6 8 14l88 95q7 6 14 6t13 -6z" />
    <glyph glyph-name="uni06AE.fina" unicode="&#x6ae;" horiz-adv-x="1520" 
d="M851 682v-4q0 -53 -45 -123q-53 -80 -131 -82h-7q-70 0 -113 41l36 102q45 -30 108 -30q28 0 46 11.5t18 32.5q0 12 -71.5 17.5t-71.5 47.5q0 54 52 165q42 94 101 96q28 0 53 -35t25 -66v-4q0 -38 -34 -38q-13 0 -25 13.5t-39 15.5h-2q-16 0 -27 -17q-12 -19 -12 -37
q0 -23 36 -31q62 -11 67 -13q36 -12 36 -62zM1164 156l-7 -12q-203 -193 -603 -193q-228 0 -334 90q-116 97 -116 315q0 79 21 165q28 120 81 120q51 0 57 -82q6 -106 51 -154q79 -82 317 -84h13q236 0 402 69q47 20 87 46q-2 135 -7 270q-11 249 -23 320q-1 9 -1 18
q0 26 15 38l246 173q22 17 35 17q8 0 11 -18v-748q0 -121 109 -121h25v-383h-90q-149 0 -224 61q-42 36 -65 93zM952 -203q2 -4 2 -9q0 -6 -4 -12l-102 -99q-3 -4 -9 -4q-5 0 -10 4l-100 97l-96 -97q-6 -4 -10 -4q-6 0 -11 4l-100 97q-5 5 -5 11q0 7 7 15l93 93q5 7 11 7
t13 -7l100 -93l90 93q6 7 13 7t14 -7zM842 -399q3 -3 3 -6q0 -4 -5 -10l-100 -101q-4 -5 -9 -5t-11 5l-102 101q-3 3 -3 7q0 6 8 14l88 95q7 6 14 6t13 -6z" />
    <glyph glyph-name="uni06B0.init" unicode="&#x6b0;" horiz-adv-x="1006" 
d="M779 719q0 15 -50.5 50t-80.5 35q-16 0 -31 -37q-7 -18 -7 -36q0 -44 90 -44q79 0 79 32zM1006 1312l-11 -78l-912 -289l14 92zM514 769l-157 -45q129 -157 129 -320q0 -250 -161 -348q-92 -56 -210 -56h-138v386h78q124 0 185 13q26 3 26 25q0 9 -9 24q-36 48 -223 221
l40 209q0 6 7 14l894 280q8 2 14 4q3 -3 3 -10q0 -4 -1 -9l-17 -229q-2 -19 -4.5 -25t-17.5 -8l-103 -30q34 -51 35 -115v-4q0 -108 -55 -173q-57 -67 -151 -68h-2q-175 0 -176 167v5q0 38 14 92z" />
    <glyph glyph-name="uni06B0.medi" unicode="&#x6b0;" horiz-adv-x="1129" 
d="M1119 1351l-9 -78l-1019 -328l16 92zM600 788l-257 -81q199 -237 214 -249q78 -72 187 -72h408v-386h-386q-82 0 -177 63q-79 53 -142 127q-94 -190 -344 -190h-126v386h88q112 0 164 16q23 5 26 19q0 4 -15 25q-61 78 -196 223l39 209q0 6 6 14l1002 320q6 1 12 3
q3 -2 3 -10q0 -4 -1 -9l-18 -228q0 -20 -4 -25.5t-17 -8.5l-130 -41q36 -52 37 -117v-4q0 -108 -55 -173q-57 -67 -151 -68h-2q-176 0 -177 168v5q0 34 12 84zM738 831l-11 -4q-11 -8 -21 -33q-7 -19 -7 -37q0 -44 90 -44q78 0 78 32q0 16 -50 51q-49 34 -79 35z" />
    <glyph glyph-name="uni06B0.fina" unicode="&#x6b0;" horiz-adv-x="1945" 
d="M1938 1354l-10 -79l-1030 -330l17 92zM1395 783l-243 -76l214 -249q77 -72 185 -72h417v-386h-394q-80 0 -176 63q-81 53 -144 127q-65 -131 -221 -180q-105 -34 -287 -34h-108q-252 0 -374 67q-160 89 -160 319q0 89 32 195t83 106q45 0 45 -86q0 -101 51 -146
q82 -75 337 -75q298 0 389 29q20 7 20 19q0 13 -12 27q-67 86 -197 238l37 209q0 6 7 14l1013 322q11 4 15 4v-19l-18 -229q-2 -19 -4.5 -24t-14.5 -9l-156 -49q36 -52 37 -116q0 -112 -56.5 -178.5t-149.5 -66.5h-2q-176 0 -177 167v5q0 35 12 84zM1533 826l-12 -4
q-10 -8 -20 -33q-8 -18 -8 -36q0 -44 91 -44q78 0 78 32q0 15 -50 51q-49 32 -79 34z" />
    <glyph glyph-name="uni06B2.init" unicode="&#x6b2;" horiz-adv-x="744" 
d="M744 1234l-12 -79l-649 -210l14 92zM729 1079l-18 -229q-2 -19 -4 -25t-18 -9l-332 -92q129 -157 129 -320q0 -250 -161 -348q-92 -56 -210 -56h-138v386h78q124 0 185 13q26 3 26 25q0 9 -9 24q-36 48 -223 221l40 209q0 6 7 14l632 202l14 4q2 -3 2 -12v-7zM442 -241
q7 -3 7 -8t-7 -12l-99 -98q-4 -5 -12 -5q-4 0 -11 5l-95 91l-91 -91q-8 -5 -12 -5q-6 0 -14 5l-100 98q-6 6 -6 12q0 7 8 15l93 96q7 4 13 4q7 0 16 -4l93 -92l88 92q8 4 16 4q6 0 13 -4z" />
    <glyph glyph-name="uni06B2.medi" unicode="&#x6b2;" horiz-adv-x="810" 
d="M750 1234l-8 -79l-651 -210l16 92zM833 0h-67q-82 0 -177 63q-79 53 -142 127q-94 -190 -344 -190h-126v386h88q112 0 164 16q23 5 26 19q0 4 -15 25q-61 78 -196 223l39 209q0 6 6 14l634 202l12 4q3 -3 3 -10q0 -4 -1 -9l-18 -229q0 -19 -4 -25t-17 -9l-355 -109
q199 -237 214 -249q78 -72 187 -72h89v-386zM448 -254q7 -4 7 -8q0 -6 -7 -12l-98 -99q-5 -5 -12 -5q-5 0 -12 5l-95 91l-91 -91q-7 -5 -12 -5t-13 5l-101 99q-5 5 -5 11q0 7 7 15l93 96q7 4 14 4q6 0 15 -4l93 -92l89 92q8 4 15 4q6 0 14 -4z" />
    <glyph glyph-name="uni06B2.fina" unicode="&#x6b2;" horiz-adv-x="1617" 
d="M1559 1234l-10 -79l-651 -210l17 92zM1640 0h-66q-80 0 -176 63q-81 53 -144 127q-65 -131 -221 -180q-105 -34 -287 -34h-108q-252 0 -374 67q-160 89 -160 319q0 89 32 195t83 106q45 0 45 -86q0 -101 51 -146q82 -75 337 -75q298 0 389 29q20 7 20 19q0 13 -12 27
q-67 86 -197 238l37 209q0 6 7 14l634 202q11 4 15 4v-19l-18 -229q-2 -19 -4.5 -24t-14.5 -10l-356 -109l214 -249q77 -72 185 -72h89v-386zM944 -301q7 -3 7 -8t-7 -12l-98 -98q-5 -6 -12 -6q-5 0 -12 6l-95 91l-91 -91q-7 -6 -12 -6t-13 6l-101 98q-6 6 -6 12q0 7 8 15
l93 95q7 5 14 5q6 0 15 -5l93 -92l89 92q8 5 15 5q6 0 14 -5z" />
    <glyph glyph-name="uni06B4.init" unicode="&#x6b4;" horiz-adv-x="744" 
d="M744 1234l-12 -79l-649 -210l14 92zM729 1079l-18 -229q-2 -19 -4 -25t-18 -9l-332 -92q129 -157 129 -320q0 -250 -161 -348q-92 -56 -210 -56h-138v386h78q124 0 185 13q26 3 26 25q0 9 -9 24q-36 48 -223 221l40 209q0 6 7 14l632 202l14 4q2 -3 2 -12v-7zM478 1355
q7 -4 7 -8q0 -6 -7 -12l-98 -99q-5 -5 -12 -5q-5 0 -12 5l-95 91l-91 -91q-7 -5 -12 -5t-13 5l-101 99q-5 5 -5 11q0 7 7 15l93 96q7 4 14 4q6 0 15 -4l93 -92l89 92q8 4 15 4q6 0 14 -4zM142 1557q-3 3 -3 7q0 6 6 13l99 100q5 5 11 5q5 0 11 -5l100 -100q6 -3 6 -9
q0 -7 -10 -17l-89 -92q-7 -6 -12 -6q-7 0 -15 6z" />
    <glyph glyph-name="uni06B4.medi" unicode="&#x6b4;" horiz-adv-x="810" 
d="M750 1234l-8 -79l-651 -210l16 92zM833 0h-67q-82 0 -177 63q-79 53 -142 127q-94 -190 -344 -190h-126v386h88q112 0 164 16q23 5 26 19q0 4 -15 25q-61 78 -196 223l39 209q0 6 6 14l634 202l12 4q3 -3 3 -10q0 -4 -1 -9l-18 -229q0 -19 -4 -25t-17 -9l-355 -109
q199 -237 214 -249q78 -72 187 -72h89v-386zM508 1355q7 -4 7 -8q0 -6 -7 -12l-98 -99q-5 -5 -12 -5q-5 0 -12 5l-95 91l-91 -91q-7 -5 -12 -5t-13 5l-101 99q-5 5 -5 11q0 7 7 15l93 96q7 4 14 4q6 0 15 -4l93 -92l89 92q8 4 15 4q6 0 14 -4zM172 1557q-3 3 -3 7q0 6 6 13
l99 100q5 5 11 5q5 0 11 -5l100 -100q6 -3 6 -9q0 -7 -10 -17l-89 -92q-7 -6 -12 -6q-7 0 -15 6z" />
    <glyph glyph-name="uni06B4.fina" unicode="&#x6b4;" horiz-adv-x="1617" 
d="M1559 1234l-10 -79l-651 -210l17 92zM1640 0h-66q-80 0 -176 63q-81 53 -144 127q-65 -131 -221 -180q-105 -34 -287 -34h-108q-252 0 -374 67q-160 89 -160 319q0 89 32 195t83 106q45 0 45 -86q0 -101 51 -146q82 -75 337 -75q298 0 389 29q20 7 20 19q0 13 -12 27
q-67 86 -197 238l37 209q0 6 7 14l634 202q11 4 15 4v-19l-18 -229q-2 -19 -4.5 -24t-14.5 -10l-356 -109l214 -249q77 -72 185 -72h89v-386zM1181 1321q7 -4 7 -8q0 -6 -7 -12l-99 -98q-4 -6 -11 -6q-5 0 -12 6l-95 91l-91 -91q-7 -6 -12 -6t-14 6l-100 98q-6 6 -6 11
q0 7 8 15l93 96q7 5 14 5q6 0 15 -5l93 -92l88 92q9 5 16 5q6 0 14 -5zM845 1523q-4 3 -4 8t7 12l99 101q5 5 11 5q5 0 11 -5l100 -101q6 -3 6 -9t-10 -16l-89 -93q-7 -6 -12 -6q-7 0 -15 6z" />
    <glyph glyph-name="uni06B5.init" unicode="&#x6b5;" horiz-adv-x="565" 
d="M555 964q10 -21 10 -37t-24 -18q-17 0 -67 16l21 -523v-28q0 -141 -47 -238q-68 -136 -214 -136h-257v386h159q66 0 90 9q40 9 40 56v9q0 76 -32 251q-39 196 -85 366l211 188q27 24 39 24t28 -39zM338 1407h-93l-224 293h97l173 -140l175 140h99z" />
    <glyph glyph-name="uni06B5.medi" unicode="&#x6b5;" horiz-adv-x="553" 
d="M576 0h-129q-59 0 -124 47q-49 36 -73 81q-88 -128 -210 -128h-63v386h49q92 0 92 114v17l-27 567v5q0 11 8 17l258 165q8 5 12 5q2 0 3 -1q2 -1 2 -18v-761q0 -50 28 -84q21 -26 55 -26h119v-386zM320 1407h-93l-224 293h97l173 -140l175 140h98z" />
    <glyph glyph-name="uni06B5.fina" unicode="&#x6b5;" horiz-adv-x="1140" 
d="M1163 0h-51q-60 0 -117 59q0 -151 -68 -269q-111 -192 -363 -192q-250 0 -366 124q-94 99 -94 261q0 98 37 232q43 153 102 153q34 0 48 -25q5 -19 5 -67q0 -10 -6 -52.5t-6 -69.5q0 -181 314 -183q236 0 239 171q0 12 -1 24l-65 918q0 14 8 22l258 165q8 5 12 5
q1 0 2 -1q3 -1 3 -18v-781q0 -90 83 -90h26v-386zM920 1335h-93l-224 293h98l173 -140l175 140h98z" />
    <glyph glyph-name="uni06B6.init" unicode="&#x6b6;" horiz-adv-x="455" 
d="M445 964q10 -21 10 -37t-23 -18q-18 0 -68 16l22 -523v-28q0 -141 -47 -238q-69 -136 -214 -136h-148v386h49q67 0 90 9q40 9 40 56v9q0 77 -31 251q-40 196 -85 366l210 188q28 24 39 24q12 0 29 -39zM319 1532q6 -5 6 -10q0 -6 -8 -13l-112 -113q-4 -5 -10 -5t-14 5
l-116 112q-5 6 -5 11q0 8 9 17l107 108q5 9 12 9t15 -9z" />
    <glyph glyph-name="uni06B6.medi" unicode="&#x6b6;" horiz-adv-x="471" 
d="M494 0h-47q-59 0 -124 47q-49 36 -73 81q-88 -128 -210 -128h-63v386h49q92 0 92 114v17l-27 567v5q0 11 8 17l258 165q8 5 12 5q2 0 3 -1q2 -1 2 -18v-761q0 -50 28 -84q21 -26 55 -26h37v-386zM328 1478q6 -5 6 -10q0 -7 -8 -14l-112 -113q-4 -5 -10 -5t-14 5l-116 112
q-5 6 -5 11q0 8 9 17l107 109q5 9 12 9t15 -9z" />
    <glyph glyph-name="uni06B6.fina" unicode="&#x6b6;" horiz-adv-x="1140" 
d="M1163 0h-51q-60 0 -117 59q0 -151 -68 -269q-111 -192 -363 -192q-250 0 -366 124q-94 99 -94 261q0 98 37 232q43 153 102 153q34 0 48 -25q5 -19 5 -67q0 -10 -6 -52.5t-6 -69.5q0 -181 314 -183q236 0 239 171q0 12 -1 24l-65 918q0 14 8 22l258 165q8 5 12 5
q1 0 2 -1q3 -1 3 -18v-781q0 -90 83 -90h26v-386zM1024 1487q7 -5 7 -10q0 -7 -9 -14l-112 -113q-4 -5 -10 -5q-5 0 -13 5l-116 112q-5 6 -5 12q0 7 9 16l106 109q5 9 12 9t15 -9z" />
    <glyph glyph-name="uni06B7.init" unicode="&#x6b7;" horiz-adv-x="565" 
d="M555 964q10 -21 10 -37t-24 -18q-17 0 -67 16l21 -523v-28q0 -141 -47 -238q-68 -136 -214 -136h-257v386h159q66 0 90 9q40 9 40 56v9q0 76 -32 251q-39 196 -85 366l211 188q27 24 39 24t28 -39zM512 1518q7 -4 7 -8q0 -6 -7 -12l-99 -99q-4 -5 -11 -5q-5 0 -12 5
l-95 91l-91 -91q-7 -5 -12 -5t-14 5l-100 99q-6 6 -6 11q0 7 8 15l93 96q7 4 14 4q6 0 15 -4l93 -92l88 92q9 4 16 4q6 0 13 -4zM176 1720q-4 3 -4 8t7 12l99 100q5 5 11 5q5 0 11 -5l100 -100q6 -3 6 -9t-10 -16l-89 -93q-7 -6 -12 -6q-7 0 -16 6z" />
    <glyph glyph-name="uni06B7.medi" unicode="&#x6b7;" horiz-adv-x="553" 
d="M576 0h-129q-59 0 -124 47q-49 36 -73 81q-88 -128 -210 -128h-63v386h49q92 0 92 114v17l-27 567v5q0 11 8 17l258 165q8 5 12 5q2 0 3 -1q2 -1 2 -18v-761q0 -50 28 -84q21 -26 55 -26h119v-386zM468 1510q7 -3 7 -8t-7 -12l-98 -98q-5 -5 -12 -5q-5 0 -12 5l-95 91
l-91 -91q-7 -5 -12 -5t-13 5l-101 98q-5 5 -5 12t7 15l93 96q7 4 14 4q6 0 15 -4l93 -92l89 92q8 4 15 4q6 0 14 -4zM132 1713q-3 3 -3 7q0 6 6 13l99 100q5 5 11 5q5 0 11 -5l100 -100q6 -3 6 -9q0 -7 -10 -17l-89 -93q-7 -5 -12 -5q-7 0 -15 5z" />
    <glyph glyph-name="uni06B7.fina" unicode="&#x6b7;" horiz-adv-x="1140" 
d="M1163 0h-51q-60 0 -117 59q0 -151 -68 -269q-111 -192 -363 -192q-250 0 -366 124q-94 99 -94 261q0 98 37 232q43 153 102 153q34 0 48 -25q5 -19 5 -67q0 -10 -6 -52.5t-6 -69.5q0 -181 314 -183q236 0 239 171q0 12 -1 24l-65 918q0 14 8 22l258 165q8 5 12 5
q1 0 2 -1q3 -1 3 -18v-781q0 -90 83 -90h26v-386zM1114 1504q8 -4 8 -8q0 -6 -8 -12l-98 -98q-5 -6 -12 -6q-4 0 -12 6l-94 91l-92 -91q-7 -6 -11 -6q-6 0 -14 6l-100 98q-6 6 -6 11q0 7 8 15l92 96q8 5 14 5t16 -5l93 -92l88 92q8 5 15 5t14 -5zM778 1706q-3 4 -3 7
q0 6 7 13l98 101q5 5 11 5q5 0 11 -5l100 -101q6 -4 6 -9q0 -7 -9 -16l-90 -93q-7 -5 -11 -5q-8 0 -16 5z" />
    <glyph glyph-name="uni06B8.init" unicode="&#x6b8;" horiz-adv-x="565" 
d="M555 964q10 -21 10 -37t-24 -18q-17 0 -67 16l21 -523v-28q0 -141 -47 -238q-68 -136 -214 -136h-257v386h159q66 0 90 9q40 9 40 56v9q0 76 -32 251q-39 196 -85 366l211 188q27 24 39 24t28 -39zM373 -363q-7 -4 -13 -4q-8 0 -16 4l-88 92l-93 -92q-9 -4 -16 -4
q-6 0 -13 4l-93 96q-8 8 -8 15q0 6 6 11l100 99q8 5 14 5q4 0 12 -5l91 -91l95 91q7 5 11 5q8 0 12 -5l99 -99q7 -6 7 -11t-7 -9zM240 -364q8 5 16 5q4 0 12 -5l89 -93q10 -10 10 -17q0 -6 -6 -9l-101 -100q-6 -5 -11 -5q-6 0 -11 5l-98 100q-7 7 -7 13q0 4 3 7z" />
    <glyph glyph-name="uni06B8.medi" unicode="&#x6b8;" horiz-adv-x="553" 
d="M576 0h-129q-59 0 -124 47q-49 36 -73 81q-88 -128 -210 -128h-63v386h49q92 0 92 114v17l-27 567v5q0 11 8 17l258 165q8 5 12 5q2 0 3 -1q2 -1 2 -18v-761q0 -50 28 -84q21 -26 55 -26h119v-386zM359 -390q-8 -4 -14 -4q-7 0 -15 4l-89 92l-93 -92q-9 -4 -15 -4
q-7 0 -14 4l-93 96q-7 8 -7 15q0 6 5 11l101 99q8 5 13 5t12 -5l91 -92l95 92q7 5 12 5q7 0 12 -5l98 -99q7 -6 7 -12q0 -4 -7 -8zM226 -392q8 6 15 6q5 0 12 -6l89 -93q10 -10 10 -16q0 -5 -6 -9l-100 -100q-6 -5 -11 -5q-6 0 -11 5l-99 100q-6 7 -6 13q0 4 3 7z" />
    <glyph glyph-name="uni06B8.fina" unicode="&#x6b8;" horiz-adv-x="1140" 
d="M1163 0h-51q-60 0 -117 59q0 -151 -68 -269q-111 -192 -363 -192q-250 0 -366 124q-94 99 -94 261q0 98 37 232q43 153 102 153q34 0 48 -25q5 -19 5 -67q0 -10 -6 -52.5t-6 -69.5q0 -181 314 -183q236 0 239 171q0 12 -1 24l-65 918q0 14 8 22l258 165q8 5 12 5
q1 0 2 -1q3 -1 3 -18v-781q0 -90 83 -90h26v-386zM740 -756q-7 -5 -14 -5t-15 5l-89 92l-93 -92q-9 -5 -15 -5t-14 5l-93 96q-7 7 -7 14q0 6 6 12l100 98q8 6 13 6t12 -6l91 -91l95 91q7 6 12 6q7 0 12 -6l98 -98q7 -6 7 -12q0 -4 -7 -8zM607 -758q8 5 15 5q5 0 12 -5
l90 -93q9 -9 9 -16q0 -5 -6 -9l-100 -101q-6 -5 -11 -5q-6 0 -11 5l-98 101q-7 7 -7 13q0 3 3 7z" />
    <glyph glyph-name="uni06B9.init" unicode="&#x6b9;" horiz-adv-x="398" 
d="M398 445q0 -230 -68 -331q-78 -114 -286 -114h-67v386h189q50 0 53 26q0 12 -16 34q-63 78 -135 143q-7 6 -7 13t7 16l159 228q6 19 16 22q5 0 21 -18q134 -163 134 -405zM300 -260q6 -5 6 -11t-6 -12l-114 -114q-6 -7 -12 -7q-7 0 -14 7l-116 112q-4 5 -4 11q0 8 8 18
l106 107q6 9 14 9q7 0 16 -9zM300 1138q6 -6 6 -12t-6 -12l-114 -114q-6 -7 -12 -7q-7 0 -14 7l-116 112q-4 5 -4 11q0 9 8 19l106 106q6 9 14 9q7 0 16 -9z" />
    <glyph glyph-name="uni06B9.medi" unicode="&#x6b9;" horiz-adv-x="492" 
d="M515 0h-66q-121 0 -189 114q-63 -114 -202 -114h-81v386h55q87 0 123 49q13 28 36 103q16 56 57 56t53 -56q17 -75 29 -103q31 -49 119 -49h66v-386zM356 -240q4 -5 4 -10q0 -6 -6 -13l-114 -116q-6 -6 -12 -6t-11 6l-116 114q-6 5 -6 11q0 8 10 18l106 108q5 5 12 5
q6 0 14 -5zM356 935q4 -6 4 -11q0 -7 -5 -13l-114 -116q-7 -6 -13 -6t-11 6l-116 114q-6 5 -6 11q0 8 10 18l107 109q5 5 11 5q7 0 14 -5z" />
    <glyph glyph-name="uni06B9.fina" unicode="&#x6b9;" horiz-adv-x="1188" 
d="M1211 0h-49q-44 0 -68 39q0 -466 -514 -466q-263 0 -379 118q-94 95 -96 258v5q0 93 39 225q47 154 106 154q35 0 45 -22q6 -21 6 -69q0 -6 -9.5 -60t-9.5 -75q0 -166 334 -166q103 0 189 22q134 33 134 106q0 59 -171 197l131 258q6 12 15 12q8 0 19 -12
q138 -138 207 -138h71v-386zM705 -683q4 -5 4 -11t-6 -13l-112 -117q-6 -5 -11 -5q-7 0 -14 5l-116 113q-6 6 -6 13q0 8 10 18l106 109q7 8 14 8t14 -8zM705 650q4 -5 4 -11t-6 -13l-112 -117q-6 -5 -12 -5t-14 5l-115 113q-6 6 -6 13q0 9 9 18l107 109q7 8 13 8q7 0 14 -8z
" />
    <glyph glyph-name="uni06BC.init" unicode="&#x6bc;" horiz-adv-x="548" 
d="M37 0h-60v386h340q49 0 53 26q0 12 -17 34q-62 78 -134 143q-7 6 -7 13t7 16l158 228q6 19 16 22q6 0 21 -18q134 -163 134 -405q0 -230 -68 -331q-36 -53 -100 -81q19 -40 19 -87v-4q0 -108 -55 -173q-57 -67 -151 -68h-2q-176 0 -177 168q0 48 23 131zM172 0h-15
q-12 -5 -25 -36q-7 -19 -7 -37q0 -44 90 -44q78 0 78 32q0 16 -50 51q-43 29 -71 34zM298 1100q5 -4 5 -9q0 -6 -7 -13l-112 -116q-6 -6 -12 -6t-14 6l-115 114q-6 5 -6 11q0 8 9 17l107 109q7 8 13 8q7 0 14 -8z" />
    <glyph glyph-name="uni06BC.medi" unicode="&#x6bc;" horiz-adv-x="704" 
d="M35 0h-58v386h267q88 0 123 49q14 28 37 103q16 56 57 56t53 -56q16 -75 28 -103q31 -49 119 -49h66v-386h-66q-121 0 -188 114q-34 -62 -91 -90q15 -37 15 -78v-4q0 -108 -55 -173q-57 -67 -151 -68h-2q-175 0 -176 168v4q0 47 22 127zM170 0h-14q-13 -5 -26 -36
q-7 -19 -7 -37q0 -44 90 -44q78 0 78 32q0 16 -50 51q-42 29 -71 34zM370 942q5 -4 5 -9q0 -6 -7 -13l-112 -116q-6 -6 -12 -6t-14 6l-115 114q-6 5 -6 12q0 8 9 17l107 109q7 7 13 7q7 0 14 -7z" />
    <glyph glyph-name="uni06BC.fina" unicode="&#x6bc;" horiz-adv-x="1188" 
d="M680 -513q0 16 -50.5 51t-80.5 35q-16 0 -30 -38q-8 -18 -8 -36q0 -44 90 -44q79 0 79 32zM679 650q4 -5 4 -11t-6 -13l-112 -117q-6 -5 -12 -5t-14 5l-115 113q-6 6 -6 13q0 9 9 18l107 109q7 8 13 8q7 0 14 -8zM427 -415q-147 25 -226 106q-94 95 -96 258v5
q0 93 39 225q47 154 106 154q35 0 45 -22q6 -21 6 -69q0 -6 -9.5 -60t-9.5 -75q0 -166 334 -166q103 0 189 22q134 33 134 106q0 59 -171 197l131 258q6 12 15 12q8 0 19 -12q138 -138 207 -138h71v-386h-49q-44 0 -68 39q0 -370 -322 -446q13 -35 13 -75v-4
q0 -108 -55 -173q-57 -67 -150 -68h-2q-176 0 -177 168v4q0 51 26 140z" />
    <glyph glyph-name="uni06BD.init" unicode="&#x6bd;" horiz-adv-x="480" 
d="M480 445q0 -230 -68 -331q-78 -114 -287 -114h-148v386h271q50 0 53 26q0 12 -16 34q-63 78 -135 143q-7 6 -7 13t7 16l159 228q6 19 16 22q5 0 21 -18q134 -163 134 -405zM23 1075q-5 6 -5 10q0 5 5 9l101 102q4 3 10 3q4 0 10 -3l94 -98l101 98q3 3 9 3q4 0 12 -3
l99 -100q7 -5 7 -11q0 -7 -8 -15l-92 -93q-7 -6 -14 -6q-6 0 -13 6l-101 93l-91 -93q-3 -7 -10 -7q-5 0 -12 7zM132 1267q-6 5 -6 11q0 5 6 11l100 99q4 6 9 6q4 0 9 -6l101 -99q4 -4 4 -10t-7 -14l-92 -94q-6 -7 -11 -7q-6 0 -11 7z" />
    <glyph glyph-name="uni06BD.medi" unicode="&#x6bd;" horiz-adv-x="586" 
d="M17 906q-4 5 -4 10q0 3 4 11l102 98q5 5 10 5t10 -5l97 -98l97 98q6 5 12 5q5 0 10 -5l101 -98q6 -5 6 -11q0 -7 -7 -14l-95 -95q-5 -6 -11 -6q-7 0 -15 6l-98 95v-1l-91 -94q-5 -6 -11 -6t-13 6zM125 1099q-4 3 -4 11q0 4 4 10l99 98q6 6 12 6t12 -6l100 -97q5 -5 5 -11
q0 -7 -8 -16l-92 -94q-6 -6 -13 -6q-6 0 -14 6zM609 0h-65q-122 0 -189 114q-63 -114 -202 -114h-176v386h149q88 0 123 49q14 28 37 103q16 56 57 56t53 -56q16 -75 28 -103q31 -49 120 -49h65v-386z" />
    <glyph glyph-name="uni06BD.fina" unicode="&#x6bd;" horiz-adv-x="1188" 
d="M1211 0h-49q-44 0 -68 39q0 -466 -514 -466q-263 0 -379 118q-94 95 -96 258v5q0 93 39 225q47 154 106 154q35 0 45 -22q6 -21 6 -69q0 -6 -9.5 -60t-9.5 -75q0 -166 334 -166q103 0 189 22q134 33 134 106q0 59 -171 197l131 258q6 12 15 12q8 0 19 -12
q138 -138 207 -138h71v-386zM775 618q7 -4 7 -9t-7 -11l-99 -99q-4 -5 -12 -5q-4 0 -12 5l-94 91l-91 -91q-8 -5 -12 -5q-6 0 -14 5l-100 99q-6 5 -6 11q0 7 8 15l93 96q7 4 13 4q7 0 16 -4l93 -92l88 92q8 4 16 4q6 0 13 -4zM438 820q-3 3 -3 7q0 6 7 13l98 100q5 5 11 5
q5 0 11 -5l100 -100q6 -4 6 -9q0 -7 -9 -17l-89 -92q-8 -6 -12 -6q-8 0 -16 6z" />
    <glyph glyph-name="uni06BF.init" unicode="&#x6bf;" horiz-adv-x="1027" 
d="M1020 527l-98 -226q-142 0 -217 -38q-53 -25 -148.5 -103.5t-154.5 -104.5q-114 -55 -269 -55h-156v386h193q270 0 387 47l-166 69q-87 36 -129 37h-4q-36 0 -82 -34q-50 -37 -67 -37q-51 0 -51 56q0 61 82 173q103 143 224 143q88 0 213 -80q153 -100 233 -129
q71 -27 173 -48l19 -3q25 -5 25 -21q0 -12 -7 -32zM805 -190q5 -5 5 -10q0 -6 -5 -12l-100 -100q-7 -6 -12 -6q-4 0 -7 6l-100 97l-97 -97q-5 -5 -10 -5q-6 0 -10 5l-102 100q-5 5 -5 10q0 6 7 13l94 96q6 5 11 5t13 -5l99 -96l93 96q6 5 12 5t12 -5zM696 -386q7 -4 7 -9
t-7 -10l-99 -97q-6 -5 -11 -5t-9 5l-103 97q-2 3 -2 7q0 8 7 18l94 93q4 5 10 5t14 -5zM620 1133q7 -5 7 -10q0 -7 -7 -15l-114 -114q-3 -6 -10 -6q-5 0 -13 6l-116 112q-5 6 -5 13q0 8 7 17l105 108q7 8 15 8q9 0 15 -8z" />
    <glyph glyph-name="uni06BF.medi" unicode="&#x6bf;" horiz-adv-x="1058" 
d="M1081 0h-166q-226 0 -298 260q-97 -124 -248.5 -192t-308.5 -68h-83v386h148q254 0 429 86q-219 67 -278 67q-55 0 -100.5 -45t-69.5 -45q-52 0 -52 70v4q0 70 67 188q86 147 204 147q59 0 244 -65t314 -65h96q31 0 31 -14q0 -3 -7 -27l-81 -260h-158q36 -41 158 -41h159
v-386zM747 -190q3 -7 3 -10q0 -5 -3 -12l-103 -100q-4 -5 -9 -5t-12 5l-97 97l-96 -97q-5 -5 -12 -5q-5 0 -8 5l-102 100q-4 4 -4 9q0 7 7 14l91 96q8 5 12 5q6 0 14 -5l98 -96l92 96q6 7 13 7q6 0 13 -7zM638 -386q5 -4 5 -9t-5 -10l-100 -97q-6 -5 -12 -5q-4 0 -10 5
l-102 97q-2 3 -2 7q0 7 6 18l92 93q6 6 13 6q6 0 13 -6zM620 1133q7 -5 7 -10q0 -7 -7 -15l-114 -114q-3 -6 -10 -6q-5 0 -13 6l-116 112q-5 6 -5 13q0 8 7 17l105 108q7 8 15 8q9 0 15 -8z" />
    <glyph glyph-name="uni06BF.fina" unicode="&#x6bf;" horiz-adv-x="1151" 
d="M1174 0h-76q-112 0 -186 92.5t-76 236.5q0 70 18 136q-189 -51 -268 -117q-124 -104 -126 -277v-4q0 -206 193 -276q94 -33 316 -33q113 0 113 -53q0 -44 -79 -75q-108 -41 -269 -41q-297 0 -461.5 116t-166.5 321v4q0 178 169 304q112 83 339 163l-237 17h-6
q-72 0 -119 -50q-50 -53 -69 -53q-43 0 -43 75t64 191q85 151 212 154l180 -36q171 -33 325 -33h160q35 0 35 -20q0 -14 -8 -40l-85 -239h-84q20 -77 157 -77h78v-386zM869 75l-84 -81q-5 -6 -9 -6t-7 6l-85 79l-80 -79q-4 -6 -8 -6t-8 6l-87 81q-4 4 -4 8q0 5 6 12l79 78
q6 6 10 6q6 0 10 -6l82 -80l2 2l76 78q6 5 11 5t10 -5l86 -81q5 -3 5 -8q0 -4 -5 -9zM777 -71q6 -2 6 -7q0 -3 -6 -9l-81 -82q-4 -4 -9 -4t-10 4l-85 82q-4 4 -4 8q0 6 8 12l75 81q6 3 12 3q4 0 11 -3zM750 1029q5 -4 5 -8q0 -6 -8 -13l-112 -116q-5 -5 -11 -5t-14 5
l-116 114q-5 5 -5 12q0 8 9 19l106 105q6 9 13 9q8 0 16 -9z" />
    <glyph glyph-name="uni06C2.fina" unicode="&#x6c2;" horiz-adv-x="736" 
d="M686 0l-54 1q-25 3 -47 10q-39 11 -68 36q-53 46 -70 137q-24 126 -61 164q-10 10 -26 17l-16 1q-32 -2 -53.5 -46.5t-21.5 -106.5q-2 -51 -2 -79q-3 -82 -21 -115q-6 -12 -14 -18q-8 -5 -18 -5q-49 3 -72 110q-15 69 -18 203q0 136 63 233q21 31 44 52q25 24 56 35
q25 9 53 9q90 0 153 -96q18 -28 31 -59q32 -53 77 -77q21 -11 44 -16q12 -3 25 -4h89v-386h-73zM430 992q-34 15 -65 18q-8 1 -16 1q-29 0 -56 -9q-42 -15 -45 -47v-3q0 -36 76 -42q27 5 160 35l-28 -119q-195 -42 -352 -134l12 94q34 25 93 58q-27 2 -45 31.5t-18 58.5
q4 59 56 128q47 62 107 62h10q91 -6 128 -94q3 -10 3 -21q-2 -14 -20 -17z" />
    <glyph glyph-name="uni06C3.fina" unicode="&#x6c3;" horiz-adv-x="728" 
d="M552 886q4 -4 4 -9q0 -6 -6 -13l-100 -99q-5 -6 -10 -6q-6 0 -12 6l-96 94l-92 -94q-6 -6 -11 -6q-6 0 -11 6l-102 99q-6 5 -6 12t6 15l96 93q6 7 12 7q7 0 14 -7l94 -89l91 89q6 7 12 7t13 -7zM678 0l-54 1q-25 3 -47 10q-39 11 -68 36q-53 46 -70 137q-24 126 -61 164
q-10 10 -26 17l-16 1q-32 -2 -53.5 -46.5t-21.5 -106.5q-2 -51 -2 -79q-3 -82 -21 -115q-6 -12 -14 -18q-8 -5 -18 -5q-49 3 -72 110q-15 69 -18 203q0 136 63 233q21 31 44 52q25 24 56 35q25 9 53 9q90 0 153 -96q18 -28 31 -59q32 -53 77 -77q21 -11 44 -16q12 -3 25 -4
h89v-386h-73z" />
    <glyph glyph-name="uni06C4.fina" unicode="&#x6c4;" horiz-adv-x="805" 
d="M563 315q0 14 -36 47q-37 26 -69 26q-33 0 -56.5 -16t-23.5 -43q0 -32 94 -32q89 0 91 18zM297 -230q42 25 82 52v8q0 8 -1 21q-15 33 -49 42q-3 1 -6 1q-28 0 -57 -53q-17 -30 -17 -46q0 -12 9 -17q12 -9 27 -9q6 0 12 1zM444 -132q129 94 129 126q-172 0 -224 20
q-114 43 -114 206q0 154 51 284q70 173 198 173h2q180 0 240 -291h102v-386h-91q-23 -287 -153 -421q-18 -20 -49 -20h-398q-68 0 -70 56v2q0 33 29 47q61 28 120 60q-32 28 -44 64q-9 23 -9 47q0 34 19 68q39 71 97 71q30 0 66 -20q38 -20 95 -82z" />
    <glyph glyph-name="uni06CA.fina" unicode="&#x6ca;" horiz-adv-x="805" 
d="M828 0h-91q-23 -287 -153 -421q-18 -20 -49 -20h-398q-68 0 -70 56v2q0 33 29 47q171 78 324 186.5t153 143.5q-172 0 -224 20q-114 43 -114 206q0 154 51 284q70 173 198 173h2q180 0 240 -291h102v-386zM563 315q0 14 -36 47q-37 26 -69 26q-33 0 -56.5 -16t-23.5 -43
q0 -32 94 -32q89 0 91 18zM702 898q4 -4 4 -8q0 -6 -6 -14l-100 -98q-5 -6 -10 -6q-6 0 -12 6l-97 94l-92 -94q-5 -6 -11 -6q-5 0 -10 6l-102 98q-6 5 -6 12t6 16l95 93q6 7 13 7t14 -7l93 -90l92 90q5 7 11 7q7 0 14 -7z" />
    <glyph glyph-name="uni06CD.fina" unicode="&#x6cd;" horiz-adv-x="1607" 
d="M435 316q30 46 63 46q65 0 65 -75q0 -35 -8 -68.5t-8 -86.5q0 -240 418 -240q210 0 339 27q44 8 44 25q0 10 -44 15q-37 4 -157 4q-121 0 -175 19q-82 26 -82 108v4q0 170 248 244q161 48 387 48h105v-386h-51q-17 0 -73 51q-63 57 -81 66q-73 37 -223 37q-90 0 -134 -16
q-29 -8 -29 -21q0 -20 94 -20q158 0 213 -17q116 -34 116 -151q0 -362 -589 -362q-256 0 -379 85q-145 98 -146 333v9q0 27 5 70q-38 -18 -75 -18q-23 0 -46 7q-61 18 -93.5 76t-34.5 111q0 61 20 63q12 0 52.5 -20t121.5 -22q69 0 115 37q13 9 22 18z" />
    <glyph glyph-name="uni06CE.init" unicode="&#x6ce;" horiz-adv-x="557" 
d="M553 445q0 -230 -69 -331q-77 -114 -286 -114h-221v386h344q50 0 53 26q0 12 -16 34q-63 78 -135 143q-7 6 -7 13t7 16l158 228q7 19 17 22q5 0 21 -18q134 -163 134 -405zM468 -248q5 -4 5 -9t-6 -11l-100 -100q-5 -6 -10 -6q-7 0 -14 6l-95 92l-93 -92q-6 -6 -8 -6
q-6 0 -12 6l-102 100q-5 4 -5 9q0 7 8 17l93 93q5 7 11 7t13 -7l95 -91l88 91q7 8 14 8q8 0 15 -8zM330 947h-92l-225 293h98l173 -140l175 140h98z" />
    <glyph glyph-name="uni06CE.medi" unicode="&#x6ce;" horiz-adv-x="586" 
d="M456 -248q5 -4 5 -9t-6 -11l-100 -100q-5 -6 -10 -6q-7 0 -14 6l-95 92l-93 -92q-6 -6 -8 -6q-6 0 -12 6l-102 100q-5 4 -5 9q0 7 8 17l93 93q5 7 11 7t13 -7l95 -91l88 91q7 8 14 8q8 0 15 -8zM609 0h-65q-122 0 -189 114q-63 -114 -202 -114h-176v386h149q88 0 123 49
q14 28 37 103q16 56 57 56t53 -56q16 -75 28 -103q31 -49 120 -49h65v-386zM316 764h-93l-224 294h97l173 -141l175 141h99z" />
    <glyph glyph-name="uni06CE.fina" unicode="&#x6ce;" horiz-adv-x="1365" 
d="M1388 0h-51q-17 0 -73 51q-63 57 -81 66q-73 37 -223 37q-90 0 -134 -16q-29 -8 -29 -21q0 -20 94 -20q158 0 213 -17q116 -34 116 -151q0 -362 -589 -362q-256 0 -379 85q-145 98 -146 333v9q0 106 46 235q47 133 104 133q65 0 65 -75q0 -35 -8 -68.5t-8 -86.5
q0 -240 418 -240q210 0 339 27q44 8 44 25q0 10 -44 15q-37 4 -157 4q-121 0 -175 19q-82 26 -82 108v4q0 170 248 244q161 48 387 48h105v-386zM553 495h-93l-224 293h98l173 -140l175 140h98z" />
    <glyph glyph-name="uni06CF.fina" unicode="&#x6cf;" horiz-adv-x="805" 
d="M828 0h-91q-23 -287 -153 -421q-18 -20 -49 -20h-398q-68 0 -70 56v2q0 33 29 47q171 78 324 186.5t153 143.5q-172 0 -224 20q-114 43 -114 206q0 154 51 284q70 173 198 173h2q180 0 240 -291h102v-386zM563 315q0 14 -36 47q-37 26 -69 26q-33 0 -56.5 -16t-23.5 -43
q0 -32 94 -32q89 0 91 18zM607 955q5 -4 5 -9q0 -6 -7 -13l-112 -116q-6 -6 -12 -6t-13 6l-116 114q-6 5 -6 11q0 8 10 17l106 110q7 7 14 7t14 -7z" />
    <glyph glyph-name="uni06D1.init" unicode="&#x6d1;" horiz-adv-x="475" 
d="M475 445q0 -230 -68 -331q-77 -114 -286 -114h-144v386h267q49 0 53 26q0 12 -17 34q-62 78 -134 143q-7 6 -7 13t7 16l158 228q6 19 16 22q6 0 21 -18q134 -163 134 -405zM444 -203q2 -4 2 -9q0 -6 -4 -12l-102 -99q-3 -4 -9 -4q-5 0 -10 4l-100 97l-96 -97
q-6 -4 -10 -4q-6 0 -11 4l-100 97q-5 5 -5 11q0 7 7 15l93 93q5 7 11 7t13 -7l100 -93l90 93q6 7 13 7t14 -7zM335 -399q3 -3 3 -6q0 -4 -5 -10l-100 -101q-4 -5 -9 -5t-11 5l-102 101q-3 3 -3 7q0 6 8 14l88 95q7 6 14 6t13 -6z" />
    <glyph glyph-name="uni06D1.medi" unicode="&#x6d1;" horiz-adv-x="586" 
d="M609 0h-65q-122 0 -189 114q-63 -114 -202 -114h-176v386h149q88 0 123 49q14 28 37 103q16 56 57 56t53 -56q16 -75 28 -103q31 -49 120 -49h65v-386zM463 -203q2 -5 2 -10q0 -6 -3 -11l-102 -99q-3 -4 -9 -4q-5 0 -10 4l-100 97l-96 -97q-6 -4 -10 -4q-6 0 -11 4
l-100 97q-5 5 -5 11q0 7 7 15l93 93q5 7 11 7t13 -7l100 -93l90 93q6 7 13 7t14 -7zM355 -399q3 -3 3 -6q0 -4 -5 -10l-100 -101q-4 -5 -9 -5t-11 5l-102 101q-3 3 -3 7q0 6 8 14l88 95q7 6 14 6t13 -6z" />
    <glyph glyph-name="uni06D1.fina" unicode="&#x6d1;" horiz-adv-x="1365" 
d="M1388 0h-51q-17 0 -73 51q-63 57 -81 66q-73 37 -223 37q-90 0 -134 -16q-29 -8 -29 -21q0 -20 94 -20q158 0 213 -17q116 -34 116 -151q0 -362 -589 -362q-256 0 -379 85q-145 98 -146 333v9q0 106 46 235q47 133 104 133q65 0 65 -75q0 -35 -8 -68.5t-8 -86.5
q0 -240 418 -240q210 0 339 27q44 8 44 25q0 10 -44 15q-37 4 -157 4q-121 0 -175 19q-82 26 -82 108v4q0 170 248 244q161 48 387 48h105v-386zM782 -783q-7 -4 -14 -4t-15 4l-89 92l-93 -92q-9 -4 -15 -4q-7 0 -14 4l-93 96q-7 8 -7 15t5 12l101 98q8 5 13 5t12 -5l91 -91
l95 91q7 5 12 5q7 0 12 -5l98 -98q7 -7 7 -12t-7 -9zM649 -784q8 5 15 5q5 0 12 -5l89 -93q10 -10 10 -17q0 -5 -6 -9l-100 -100q-6 -5 -11 -5q-6 0 -11 5l-98 100q-7 7 -7 13q0 4 3 7z" />
    <glyph glyph-name="uni06D5.fina" unicode="&#x6d5;" horiz-adv-x="801" 
d="M824 0h-85q-187 0 -240 200q-35 -83 -79 -84h-8q-77 0 -173 38q-135 55 -135 147q0 98 68 195q38 35 211 183l-19 71l198 201q8 6 19 11q10 0 13 -23l82 -437q22 -116 91 -116h57v-386zM464 376l-49 172q-117 -83 -117 -123q0 -37 166 -49z" />
    <glyph glyph-name="uni06EE.fina" unicode="&#x6ee;" horiz-adv-x="1002" 
d="M1025 0h-72q-162 0 -268 212q-64 -124 -132 -178q-78 -63 -188 -63q-258 0 -260 305v5q0 56 19 133q24 103 67 103q49 0 63 -47q22 -73 31 -85q34 -47 124 -49h8q44 0 109 19q71 21 75 54l-4 8l-139 339l188 191q7 8 21 11q6 0 12 -20l159 -436q42 -116 124 -116h63v-386
zM939 1028h-98l-175 140l-173 -140h-97l224 293h93z" />
    <glyph glyph-name="uni06EF.fina" unicode="&#x6ef;" horiz-adv-x="828" 
d="M851 0h-49q-29 0 -61 20v-73q0 -89 -54 -205t-96 -163q-21 -20 -53 -20h-397q-69 0 -69 56q0 35 31 49q107 49 274 165q212 145 214 208v1q0 51 -193 225l139 280q5 15 13 15q7 0 16 -10q103 -105 147 -134q53 -28 105 -28h33v-386zM820 736h-98l-175 140l-173 -140h-98
l224 293h93z" />
    <glyph glyph-name="uni06FA.init" unicode="&#x6fa;" horiz-adv-x="892" 
d="M892 448q0 -156 -45 -275q-63 -173 -181 -173q-49 0 -98.5 35.5t-69.5 76.5q-49 -110 -139 -110q-122 0 -166 114q-51 -116 -149 -116h-67v386h65q61 0 83 47l27 84q15 48 53 48q33 0 54 -53q10 -40 21 -83q26 -45 91 -45q47 0 64 45q14 68 18 85q20 53 57 53h1
q34 0 53 -57q10 -44 21 -87q23 -51 89 -51q78 0 78 55q0 33 -41 131l109 121q9 8 15 8q8 0 12 -10q45 -114 45 -229zM500 -194q5 6 11 6q5 0 11 -6l91 -93q9 -10 9 -17q0 -5 -5 -8l-101 -101q-5 -4 -9 -4q-5 0 -9 4l-100 101q-7 6 -7 11t5 9zM288 909q-4 4 -4 8q0 6 5 12
l100 99q5 5 11 5q4 0 10 -5l96 -97l99 97q4 5 9 5q4 0 9 -5l104 -99q3 -4 3 -9q0 -7 -5 -14l-93 -93q-7 -9 -14 -9q-5 0 -11 9l-103 93l-91 -93q-4 -7 -10 -7q-5 0 -12 7zM396 1102q-5 4 -5 9t7 12l100 100q4 5 9 5q4 0 9 -5l101 -100q5 -4 5 -9q0 -7 -9 -16l-91 -94
q-6 -6 -11 -6q-6 0 -11 6z" />
    <glyph glyph-name="uni06FA.medi" unicode="&#x6fa;" horiz-adv-x="999" 
d="M1022 0h-67q-81 0 -159 112q-83 -110 -149 -110q-46 0 -91 41q-40 35 -55 73q-78 -114 -142 -114q-95 0 -152 114q-76 -116 -163 -116h-67v386h65q64 0 89 47q17 74 23 89q22 57 61 57q42 0 54 -52q9 -30 25 -94q19 -49 77 -49q47 0 66 49q16 73 24 88q22 56 57 56
q39 0 56 -51q5 -29 19 -93q15 -48 66 -48q50 0 68 48q6 42 19.5 91t56.5 51h3q37 0 51 -51q7 -28 23 -91q18 -47 77 -47h65v-386zM500 -194q5 6 11 6q5 0 11 -6l91 -93q9 -10 9 -17q0 -5 -5 -8l-101 -101q-5 -4 -9 -4q-5 0 -9 4l-100 101q-7 6 -7 11t5 9zM288 909q-4 4 -4 8
q0 6 5 12l100 99q5 5 11 5q4 0 10 -5l96 -97l99 97q4 5 9 5q4 0 9 -5l104 -99q3 -4 3 -9q0 -7 -5 -14l-93 -93q-7 -9 -14 -9q-5 0 -11 9l-103 93l-91 -93q-4 -7 -10 -7q-5 0 -12 7zM396 1102q-5 4 -5 9t7 12l100 100q4 5 9 5q4 0 9 -5l101 -100q5 -4 5 -9q0 -7 -9 -16
l-91 -94q-6 -6 -11 -6q-6 0 -11 6z" />
    <glyph glyph-name="uni06FA.fina" unicode="&#x6fa;" horiz-adv-x="1776" 
d="M1799 0h-63q-87 0 -159 95q-22 -26 -51.5 -55.5t-76.5 -29.5q-95 0 -144 80q-45 -78 -104 -78q-66 0 -107 27q0 -466 -514 -466q-263 0 -379 118q-94 95 -96 258v5q0 92 39 225q45 154 106 154q37 0 45 -30q6 -13 6 -61q0 -6 -9.5 -60t-9.5 -75q0 -166 334 -166
q103 0 189 22q134 33 134 106q0 59 -171 197l131 258q6 12 15 12q8 0 19 -12q46 -46 118 -110q57 -38 118 -38q57 0 73 48q6 29 25 83q12 50 56 50q39 0 47 -48t14 -86q19 -49 71 -49q48 0 68 49q10 40 19 81q21 54 54 54q36 0 48 -48q5 -25 19 -79q13 -45 73 -45h63v-386z
M1360 -156q9 6 15 6q5 0 12 -6l90 -93q10 -10 10 -16t-6 -9l-101 -100q-5 -5 -11 -5q-5 0 -11 5l-98 100q-7 7 -7 13q0 4 3 7zM1133 909q-2 3 -2 7q0 6 4 13l99 99q4 6 9 6t11 -6l100 -97l97 97q5 6 10 6q6 0 11 -6l101 -99q5 -5 5 -10q0 -6 -7 -13l-95 -93q-4 -8 -10 -8
t-14 8l-102 93l-88 -93q-7 -8 -14 -8t-14 8zM1238 1102q-3 4 -3 8q0 6 7 13l98 100q5 6 11 6q5 0 11 -6l100 -100q6 -4 6 -10t-9 -15l-90 -94q-7 -5 -12 -5q-7 0 -15 5z" />
    <glyph glyph-name="uni06FB.init" unicode="&#x6fb;" horiz-adv-x="1063" 
d="M1063 555q0 -183 -126 -346q-157 -204 -425 -204q-75 0 -163 27q-101 29 -140 78q-71 -110 -159 -110h-73v386h63q55 0 81 49q9 20 33 98q14 49 45 49q43 0 60 -93.5t68 -93.5q18 17 87 102q240 285 428 285q109 0 170 -75q51 -61 51 -152zM845 431q0 95 -116 96h-2
q-107 0 -292 -176q17 0 40 -1h69q124 0 220 28q81 26 81 53zM764 -310q5 -5 5 -10q0 -7 -7 -15l-114 -110q-5 -5 -12 -5q-6 0 -14 5l-116 110q-4 4 -4 10q0 8 6 18l109 109q6 8 12 8q7 0 15 -8zM764 1084q5 -5 5 -10q0 -7 -7 -15l-114 -111q-5 -5 -12 -5q-6 0 -14 5
l-116 111q-4 4 -4 10q0 8 6 18l109 109q6 8 12 8q7 0 15 -8z" />
    <glyph glyph-name="uni06FB.medi" unicode="&#x6fb;" horiz-adv-x="1123" 
d="M1146 0h-77q-122 0 -191 149q-106 -144 -366 -144q-75 0 -163 27q-101 29 -140 78q-71 -110 -159 -110h-73v386h63q55 0 81 49q9 20 33 98q14 49 45 49q43 0 59 -92.5t69 -92.5q3 0 87 101q96 112 187 185q128 99 242 99q104 0 167 -73q53 -61 53 -158q0 -81 -31 -146
q10 -19 46 -19h68v-386zM845 431q0 95 -116 96h-2q-107 0 -292 -176q17 0 40 -1h69q124 0 220 28q81 26 81 53zM764 -310q5 -5 5 -10q0 -7 -7 -15l-114 -110q-5 -5 -12 -5q-6 0 -14 5l-116 110q-4 4 -4 10q0 8 6 18l109 109q6 8 12 8q7 0 15 -8zM764 1084q5 -5 5 -10
q0 -7 -7 -15l-114 -111q-5 -5 -12 -5q-6 0 -14 5l-116 111q-4 4 -4 10q0 8 6 18l109 109q6 8 12 8q7 0 15 -8z" />
    <glyph glyph-name="uni06FB.fina" unicode="&#x6fb;" horiz-adv-x="1880" 
d="M1903 0h-68q-125 0 -200 148q-54 -68 -152.5 -107t-208.5 -41h-9q-86 0 -171 39q0 -466 -514 -466q-263 0 -379 118q-94 95 -96 258v5q0 93 39 225q47 154 106 154q35 0 45 -22q6 -21 6 -69q0 -6 -9.5 -60t-9.5 -75q0 -166 334 -166q103 0 189 22q134 33 134 106
q0 59 -171 197l131 258q7 14 16 14q6 0 18 -14q118 -136 141 -136q3 0 88 100q104 122 188 191q128 101 248 101q100 0 160 -73q53 -66 55 -150v-14q0 -91 -25 -138q9 -19 46 -19h69v-386zM1598 425q0 97 -118 97q-116 0 -291 -174q26 -2 77 -2q155 0 247 28q85 25 85 51z
M1565 -310q6 -6 6 -12t-6 -13l-114 -110q-5 -5 -12 -5q-6 0 -14 5l-114 110q-7 6 -7 12q0 8 9 16l105 109q7 8 14 8q8 0 17 -8zM1565 1084q6 -6 6 -12t-6 -13l-114 -111q-5 -5 -12 -5q-6 0 -14 5l-114 111q-7 5 -7 12t9 16l105 109q7 8 14 8q8 0 17 -8z" />
    <glyph glyph-name="uni06FC.init" unicode="&#x6fc;" horiz-adv-x="749" 
d="M742 421q-13 -43 -44 -161q-40 -160 -51 -163q-39 -7 -141 -7q-94 0 -139 7q-47 -40 -157.5 -68.5t-169.5 -28.5h-63v386h63q41 0 66 18q-60 52 -61 98v2q0 140 110 267q111 128 261 130h3q100 0 186 -78q93 -85 108 -193q0 -51 -29 -51q-22 0 -74 16q-60 19 -147 19
q-86 0 -152 -20q-88 -27 -88 -75q0 -47 95 -70q61 -14 131 -14q108 0 264 30q9 1 15 1q20 0 21 -11q0 -10 -7 -34zM514 -212q5 -5 5 -10q0 -6 -7 -14l-112 -113q-5 -7 -11 -7q-7 0 -15 7l-116 111q-6 6 -6 13q0 8 8 16l108 109q7 8 14 8t13 -8zM520 1164q5 -5 5 -10
q0 -6 -7 -13l-112 -113q-5 -7 -11 -7t-14 7l-117 111q-5 6 -5 12q0 8 8 17l107 108q8 8 15 8t13 -8z" />
    <glyph glyph-name="uni06FC.medi" unicode="&#x6fc;" horiz-adv-x="698" 
d="M721 0h-77q-97 0 -180 36.5t-107 99.5q-42 -73 -93 -99q-61 -37 -163 -37h-124v386h112q120 0 142 19q-71 99 -157 138q-16 8 -16 42q0 102 108 168q94 60 201 60q108 0 180 -51q83 -60 83 -148q0 -49 -53 -122q-15 -20 -88 -93q33 -13 129 -13h103v-386zM502 -241
q6 -6 6 -12t-6 -14l-116 -110q-5 -6 -10 -6q-6 0 -15 6l-113 110q-7 7 -7 14t7 14l106 110q8 7 16 7t16 -7zM483 1084q6 -5 6 -12q0 -5 -6 -13l-116 -111q-5 -5 -10 -5q-6 0 -16 5l-113 111q-6 6 -6 13t7 15l106 109q8 8 16 8t16 -8z" />
    <glyph glyph-name="uni06FC.fina" unicode="&#x6fc;" horiz-adv-x="1070" 
d="M791 -45q3 -4 3 -9q0 -6 -5 -13l-96 -94q-5 -5 -10 -5t-10 5l-101 94q-5 5 -5 10q0 7 9 15l90 93q6 6 12 6q7 0 13 -6zM850 1084q4 -5 4 -11t-5 -14l-112 -111q-6 -5 -12 -5t-12 5l-119 111q-5 4 -5 10q0 8 11 18l104 109q7 7 15 7q7 0 15 -7zM855 -283l38 1q17 0 46 2
q117 0 119 -54v-1q0 -108 -396 -108q-558 0 -558 399q0 161 96 268q63 71 205 134q64 20 191 65q-56 74 -112 106q-3 4 -59 19q-14 5 -17 37q0 102 107 168q93 60 200 60q109 0 182 -51q79 -56 83 -148q0 -49 -56 -117l-90 -90q43 -21 118 -21h141v-386h-102
q-125 0 -216 105q-77 85 -92 207q-92 -42 -151 -127q-61 -90 -61 -187q0 -149 123 -222q100 -58 261 -59z" />
    <glyph glyph-name="uni06FF.init" unicode="&#x6ff;" horiz-adv-x="810" 
d="M810 317q0 -85 -56 -189q-70 -128 -167 -128q-61 0 -235 110q-125 -110 -222 -110h-153v386h98q-18 31 -18 75q0 109 81 149l-49 31l114 258q18 44 40 44q12 0 53 -24q230 -130 344 -242q170 -168 170 -360zM647 283q0 58 -123 142q0 -11 1 -18q0 -80 -54 -112
q30 -29 72 -49t67 -20q37 0 37 57zM400 453q0 29 -32.5 51.5t-56.5 24.5q-45 0 -82 -27q-24 -22 -24 -41q0 -20 43 -50q46 -25 68 -25q25 0 53.5 20.5t30.5 46.5zM553 1019h-99l-175 140l-173 -140h-97l224 293h93z" />
    <glyph glyph-name="uni06FF.medi" unicode="&#x6ff;" horiz-adv-x="655" 
d="M678 0h-138q43 -83 43 -141q0 -168 -167 -171h-2q-126 0 -228 121q-75 87 -95 191h-114v386h124q17 114 120 223q109 115 221 115q62 0 108.5 -44t46.5 -107q0 -95 -62 -187h143v-386zM435 448q0 50 -71 50q-31 0 -73.5 -38.5t-65.5 -85.5h139q32 0 51.5 22.5t19.5 51.5z
M428 -61q0 27 -22 48t-49 25h-139q22 -48 65.5 -86t73.5 -38q71 0 71 51zM645 835h-99l-175 140l-173 -140h-97l224 293h93z" />
    <glyph glyph-name="uni06FF.fina" unicode="&#x6ff;" horiz-adv-x="948" 
d="M729 448q0 50 -71 50q-31 0 -73.5 -38.5t-65.5 -85.5h139q32 0 51.5 22.5t19.5 51.5zM722 -61q0 27 -22 48t-49 25h-140q23 -48 66.5 -86t73.5 -38q71 0 71 51zM389 384l6 2q17 114 120 223q108 115 220 115q63 0 109 -44t46 -107q0 -95 -61 -187h142v-386h-137
q43 -83 43 -141q0 -168 -167 -171h-2q-126 0 -229 121q-74 87 -94 191h-87v2q-47 -12 -88 -31q-19 -13 -42 -35q-18 -19 -23 -21q-2 -1 -3 -1q-19 0 -28 73q-3 28 -3 57q0 55 12 113q36 227 264 227h2zM950 824h-98l-175 141l-173 -141h-98l225 294h93z" />
    <glyph glyph-name="uniFB50" unicode="&#x671;" horiz-adv-x="519" arabic-form="isolated" 
d="M475 1114l1 -321v-215q0 -43 -17 -184q-6 -50 -48 -170q-37 -104 -66 -153q-41 -69 -71 -73q-33 0 -57 89q-30 115 -47 913l261 138q22 12 31 12q13 0 13 -36zM454 1408q-16 17 -34 17q-5 0 -9 -1q-24 -6 -45 -23q-9 -5 -21 -20t-23 -32t-18 -30q-5 -9 -5 -13q0 -1 1 -2
q6 -5 17 -5q3 0 6 1q14 1 29.5 4.5t29.5 8.5t20 6q24 12 40.5 23t30.5 31q0 9 -19 35zM254 1306q9 19 21 40t29 45t32 44t31.5 37t36 27.5t45.5 11.5q28 -5 43.5 -25t21.5 -46q3 -15 3 -33q0 -15 -2 -32q-5 -38 -17 -56q-27 -46 -76 -82q-58 -41 -129 -47q-10 -1 -19 -1
q-26 0 -54 6q-38 8 -70 29h-3q-5 0 -11 -5q-7 -8 -15.5 -20t-16.5 -25.5t-14 -22.5q-5 -6 -9 -6q-5 0 -8 8q-8 13 -8 22q4 15 11 33t16 36.5t18 35.5t18 30q6 15 17 25q6 5 14 5q6 0 14 -3q3 -3 13.5 -8.5t23.5 -10.5t24.5 -8.5t19.5 -3.5z" />
    <glyph glyph-name="uniFB51" unicode="&#x671;" horiz-adv-x="605" arabic-form="final" 
d="M628 0h-184q-144 0 -220 63q-97 81 -97 270q-2 373 -35 557q-1 9 -1 17q0 29 17 41l246 173q23 17 35 17q9 0 9 -18v-614q0 -120 109 -120h121v-386zM454 1408q-16 17 -34 17q-5 0 -9 -1q-24 -6 -45 -23q-9 -5 -21 -20t-23 -32t-18 -30q-5 -9 -5 -13q0 -1 1 -2
q6 -5 17 -5q3 0 6 1q14 1 29.5 4.5t29.5 8.5t20 6q24 12 40.5 23t30.5 31q0 9 -19 35zM254 1306q9 19 21 40t29 45t32 44t31.5 37t36 27.5t45.5 11.5q28 -5 43.5 -25t21.5 -46q3 -15 3 -33q0 -15 -2 -32q-5 -38 -17 -56q-27 -46 -76 -82q-58 -41 -129 -47q-10 -1 -19 -1
q-26 0 -54 6q-38 8 -70 29h-3q-5 0 -11 -5q-7 -8 -15.5 -20t-16.5 -25.5t-14 -22.5q-5 -6 -9 -6q-5 0 -8 8q-8 13 -8 22q4 15 11 33t16 36.5t18 35.5t18 30q6 15 17 25q6 5 14 5q6 0 14 -3q3 -3 13.5 -8.5t23.5 -10.5t24.5 -8.5t19.5 -3.5z" />
    <glyph glyph-name="uniFB52" unicode="&#x67b;" horiz-adv-x="1287" arabic-form="isolated" 
d="M1285 476v-6q0 -286 -191 -403q-148 -91 -453 -91q-277 0 -396 79q-139 91 -139 307q0 96 29 193q34 108 87 108q45 0 45 -86q0 -101 51 -146q81 -75 336 -75q233 0 285 4q104 8 139 34q20 8 20 20q0 10 -16 32q-34 42 -118 97q-10 10 -10 21q0 5 2 9l144 260q5 9 13 9
q7 0 16 -7q154 -156 156 -359zM707 -385l115 -111q5 -5 5 -9q0 -6 -7 -12l-112 -118q-6 -5 -12 -5t-11 5l-115 114q-7 7 -7 14q0 8 9 17l104 106q2 2 3 4l-109 109q-7 6 -7 13q0 8 9 17l104 107q6 8 13 8q8 0 16 -8l117 -112q5 -5 5 -9q0 -6 -7 -13l-112 -117h-1z" />
    <glyph glyph-name="uniFB53" unicode="&#x67b;" horiz-adv-x="1413" arabic-form="final" 
d="M1436 0h-65q-140 0 -210 148q-203 -197 -607 -197q-228 0 -334 90q-116 97 -116 315q0 79 21 165q28 120 81 120q51 0 57 -82q6 -106 51 -154q79 -82 317 -84h13q236 0 402 69q108 45 181 124q61 66 77 66q42 0 44 -56q0 -8 -12 -58q-8 -23 -28 -59q24 -21 67 -21h61
v-386zM666 -385l115 -112q6 -5 6 -10q0 -6 -6 -12l-113 -118q-6 -5 -12 -5q-7 0 -14 5l-115 114q-7 7 -7 15t9 16l106 107q1 1 3 2l-113 112q-7 7 -7 14q0 8 9 16l106 107q6 6 14 6q7 0 17 -6l115 -112q6 -5 6 -10q0 -6 -6 -12z" />
    <glyph glyph-name="uniFB54" unicode="&#x67b;" horiz-adv-x="398" arabic-form="initial" 
d="M398 445q0 -230 -68 -331q-78 -114 -286 -114h-67v386h189q50 0 53 26q0 12 -16 34q-63 78 -135 143q-7 6 -7 13t7 16l159 228q6 19 16 22q5 0 21 -18q134 -163 134 -405zM187 -385l112 -109q5 -5 5 -9q0 -6 -7 -13l-110 -117q-6 -6 -12 -6q-7 0 -14 6l-117 114
q-5 6 -5 13q0 9 10 18l106 106q1 1 1 2l-112 109q-5 6 -5 12q0 9 10 18l106 107q6 8 13 8t15 -8l116 -112q5 -5 5 -9q0 -6 -7 -13z" />
    <glyph glyph-name="uniFB55" unicode="&#x67b;" horiz-adv-x="586" arabic-form="medial" 
d="M231 -384l112 -106q6 -6 6 -11q0 -6 -6 -11l-115 -118q-7 -4 -11 -4q-8 0 -14 4l-114 114q-7 7 -7 15t9 16l106 107v1l-106 106q-7 7 -7 14q0 8 9 16l105 107q7 7 14 7t15 -7l118 -112q6 -6 6 -11q0 -6 -6 -11zM609 0h-65q-122 0 -189 114q-63 -114 -202 -114h-176v386
h149q88 0 123 49q14 28 37 103q16 56 57 56t53 -56q16 -75 28 -103q31 -49 120 -49h65v-386z" />
    <glyph glyph-name="uniFB56" unicode="&#x67e;" horiz-adv-x="1287" arabic-form="isolated" 
d="M1285 476v-6q0 -286 -191 -403q-148 -91 -453 -91q-277 0 -396 79q-139 91 -139 307q0 96 29 193q34 108 87 108q45 0 45 -86q0 -101 51 -146q81 -75 336 -75q233 0 285 4q104 8 139 34q20 8 20 20q0 10 -16 32q-34 42 -118 97q-10 10 -10 21q0 5 2 9l144 260q5 9 13 9
q7 0 16 -7q154 -156 156 -359zM915 -244q5 -4 5 -9q0 -4 -5 -10l-100 -101q-5 -4 -10 -4q-4 0 -10 4l-98 100l-97 -100q-6 -5 -11 -5t-10 5l-103 101q-4 4 -4 9q0 6 6 13l95 95q6 5 12 5q5 0 13 -5l99 -95v1l93 94q5 5 11 5t12 -5zM806 -435q6 -5 6 -11t-6 -12l-101 -99
q-5 -5 -10 -5t-10 5l-102 97q-4 6 -4 12q0 8 6 15l93 95q5 6 12 6q6 0 14 -6z" />
    <glyph glyph-name="uniFB57" unicode="&#x67e;" horiz-adv-x="1413" arabic-form="final" 
d="M1436 0h-65q-140 0 -210 148q-203 -197 -607 -197q-228 0 -334 90q-116 97 -116 315q0 79 21 165q28 120 81 120q51 0 57 -82q6 -106 51 -154q79 -82 317 -84h13q236 0 402 69q108 45 181 124q61 66 77 66q42 0 44 -56q0 -8 -12 -58q-8 -23 -28 -59q24 -21 67 -21h61
v-386zM871 -244q5 -4 5 -9q0 -4 -5 -10l-100 -101q-5 -4 -10 -4q-4 0 -10 4l-99 100l-96 -100q-6 -5 -11 -5t-10 5l-103 101q-4 4 -4 9q0 6 6 13l95 95q6 5 11 5q6 0 14 -5l98 -95v1l93 94q6 5 12 5t12 -5zM764 -435q6 -5 6 -11t-6 -12l-100 -99q-5 -5 -10 -5t-11 5l-101 97
q-4 6 -4 12q0 8 6 15l93 95q5 6 11 6q7 0 14 -6z" />
    <glyph glyph-name="uniFB58" unicode="&#x67e;" horiz-adv-x="475" arabic-form="initial" 
d="M475 445q0 -230 -68 -331q-77 -114 -286 -114h-144v386h267q49 0 53 26q0 12 -17 34q-62 78 -134 143q-7 6 -7 13t7 16l158 228q6 19 16 22q6 0 21 -18q134 -163 134 -405zM444 -203q2 -4 2 -9q0 -6 -4 -12l-102 -99q-3 -4 -9 -4q-5 0 -10 4l-100 97l-96 -97
q-6 -4 -10 -4q-6 0 -11 4l-100 97q-5 5 -5 11q0 7 7 15l93 93q5 7 11 7t13 -7l100 -93l90 93q6 7 13 7t14 -7zM335 -399q3 -3 3 -6q0 -4 -5 -10l-100 -101q-4 -5 -9 -5t-11 5l-102 101q-3 3 -3 7q0 6 8 14l88 95q7 6 14 6t13 -6z" />
    <glyph glyph-name="uniFB59" unicode="&#x67e;" horiz-adv-x="586" arabic-form="medial" 
d="M609 0h-65q-122 0 -189 114q-63 -114 -202 -114h-176v386h149q88 0 123 49q14 28 37 103q16 56 57 56t53 -56q16 -75 28 -103q31 -49 120 -49h65v-386zM463 -203q2 -5 2 -10q0 -6 -3 -11l-102 -99q-3 -4 -9 -4q-5 0 -10 4l-100 97l-96 -97q-6 -4 -10 -4q-6 0 -11 4
l-100 97q-5 5 -5 11q0 7 7 15l93 93q5 7 11 7t13 -7l100 -93l90 93q6 7 13 7t14 -7zM355 -399q3 -3 3 -6q0 -4 -5 -10l-100 -101q-4 -5 -9 -5t-11 5l-102 101q-3 3 -3 7q0 6 8 14l88 95q7 6 14 6t13 -6z" />
    <glyph glyph-name="uniFB5A" unicode="&#x680;" horiz-adv-x="1287" arabic-form="isolated" 
d="M1285 476v-6q0 -286 -191 -403q-148 -91 -453 -91q-277 0 -396 79q-139 91 -139 307q0 96 29 193q34 108 87 108q45 0 45 -86q0 -101 51 -146q81 -75 336 -75q233 0 285 4q104 8 139 34q20 8 20 20q0 10 -16 32q-34 42 -118 97q-10 10 -10 21q0 5 2 9l144 260q5 9 13 9
q7 0 16 -7q154 -156 156 -359zM767 -367q3 -1 6 -3l102 -98q5 -4 5 -9q0 -4 -5 -10l-100 -102q-5 -3 -10 -3q-4 0 -10 3l-99 101l-96 -101q-6 -4 -11 -4t-10 4l-103 102q-4 4 -4 9q0 6 6 13l94 95q3 2 6 3l-3 3l-103 101q-4 4 -4 9q0 6 6 13l95 95q6 5 12 5q5 0 13 -5
l99 -95v1l93 94q5 5 11 5t12 -5l102 -98q5 -4 5 -9q0 -4 -5 -10l-100 -101q-2 -2 -4 -3zM552 -367q3 -1 6 -3l98 -95v1l93 94q3 3 6 4l-4 2l-98 100l-97 -100q-2 -2 -4 -3z" />
    <glyph glyph-name="uniFB5B" unicode="&#x680;" horiz-adv-x="1413" arabic-form="final" 
d="M1436 0h-65q-140 0 -210 148q-203 -197 -607 -197q-228 0 -334 90q-116 97 -116 315q0 79 21 165q28 120 81 120q51 0 57 -82q6 -106 51 -154q79 -82 317 -84h13q236 0 402 69q108 45 181 124q61 66 77 66q42 0 44 -56q0 -8 -12 -58q-8 -23 -28 -59q24 -21 67 -21h61
v-386zM769 -365l102 -99q5 -4 5 -9q0 -4 -5 -10l-100 -101q-5 -4 -10 -4q-4 0 -10 4l-99 100l-96 -100q-6 -4 -11 -4t-10 4l-103 101q-4 4 -4 9q0 6 6 14l95 95l4 2l-101 100q-4 4 -4 9q0 6 6 13l95 95q6 5 11 5q6 0 14 -5l98 -95v1l93 94q6 5 12 5t12 -5l102 -98q5 -4 5 -9
q0 -4 -5 -10l-100 -101q-1 -1 -2 -1zM554 -365l98 -95v1l93 94l4 2l-97 99l-96 -100q-1 -1 -2 -1z" />
    <glyph glyph-name="uniFB5C" unicode="&#x680;" horiz-adv-x="475" arabic-form="initial" 
d="M475 445q0 -230 -68 -331q-77 -114 -286 -114h-144v386h267q49 0 53 26q0 12 -17 34q-62 78 -134 143q-7 6 -7 13t7 16l158 228q6 19 16 22q6 0 21 -18q134 -163 134 -405zM338 -324q2 -1 3 -3l104 -97q2 -5 2 -10q0 -6 -3 -11l-103 -98q-2 -5 -8 -5q-5 0 -10 5l-100 97
l-97 -97q-5 -5 -10 -5t-10 5l-100 97q-6 5 -6 11t8 14l93 94q2 3 4 4h-1l-100 97q-5 5 -5 11q0 7 7 15l93 93q5 7 11 7t13 -7l100 -93l90 93q6 7 13 7t14 -7l104 -96q2 -4 2 -9q0 -6 -4 -12l-102 -99q-1 0 -2 -1zM122 -324l3 -3l100 -94l90 94q3 4 6 5l-100 96l-96 -97
q-2 0 -3 -1z" />
    <glyph glyph-name="uniFB5D" unicode="&#x680;" horiz-adv-x="586" arabic-form="medial" 
d="M609 0h-65q-122 0 -189 114q-63 -114 -202 -114h-176v386h149q88 0 123 49q14 28 37 103q16 56 57 56t53 -56q16 -75 28 -103q31 -49 120 -49h65v-386zM358 -324q3 -2 4 -4l104 -97q2 -4 2 -8q0 -6 -4 -12l-102 -99q-2 -4 -8 -4q-5 0 -10 4l-100 97l-97 -97q-5 -4 -10 -4
t-11 4l-99 97q-6 5 -6 11t8 14l93 94q2 3 3 4q0 1 -1 1l-100 97q-5 5 -5 11q0 7 7 15l93 93q5 7 11 7t13 -7l100 -93l90 93q6 7 13 7t14 -7l103 -96q2 -5 2 -10q0 -6 -3 -11l-102 -99q-1 0 -2 -1zM142 -324l4 -4l100 -94l90 94q3 4 5 5l-100 97l-96 -97q-2 0 -3 -1z" />
    <glyph glyph-name="uniFB5E" unicode="&#x67a;" horiz-adv-x="1287" arabic-form="isolated" 
d="M1285 476v-6q0 -286 -191 -403q-148 -91 -453 -91q-277 0 -396 79q-139 91 -139 307q0 96 29 193q34 108 87 108q45 0 45 -86q0 -101 51 -146q81 -75 336 -75q233 0 285 4q104 8 139 34q20 8 20 20q0 10 -16 32q-34 42 -118 97q-10 10 -10 21q0 5 2 9l144 260q5 9 13 9
q7 0 16 -7q154 -156 156 -359zM618 1086q4 2 8 2q8 0 15 -6l98 -100q7 -4 7 -10q0 -5 -7 -12l-94 -95l94 -92q6 -5 6 -11q0 -5 -6 -12l-98 -102q-5 -5 -11 -5q-8 0 -17 7l-93 92q-7 8 -7 15q0 8 7 15l88 93l-88 90q-7 6 -7 13t7 14z" />
    <glyph glyph-name="uniFB5F" unicode="&#x67a;" horiz-adv-x="1413" arabic-form="final" 
d="M1436 0h-65q-140 0 -210 148q-203 -197 -607 -197q-228 0 -334 90q-116 97 -116 315q0 79 21 165q28 120 81 120q51 0 57 -82q6 -106 51 -154q79 -82 317 -84h13q236 0 402 69q108 45 181 124q61 66 77 66q42 0 44 -56q0 -8 -12 -58q-8 -23 -28 -59q24 -21 67 -21h61
v-386zM669 1081q6 5 11 5q6 0 12 -5l98 -100q6 -6 6 -11t-6 -9l-94 -96l94 -92q6 -6 6 -12t-6 -12l-98 -100q-5 -5 -11 -5q-8 0 -17 8l-94 91q-6 6 -6 13q0 6 6 13l89 96l-89 89q-6 6 -6 12q0 7 6 13z" />
    <glyph glyph-name="uniFB60" unicode="&#x67a;" horiz-adv-x="398" arabic-form="initial" 
d="M398 445q0 -230 -68 -331q-78 -114 -286 -114h-67v386h189q50 0 53 26q0 12 -16 34q-63 78 -135 143q-7 6 -7 13t7 16l159 228q6 19 16 22q5 0 21 -18q134 -163 134 -405zM190 1433q5 6 9 6q6 0 11 -8l100 -98q5 -4 5 -10q0 -5 -5 -11l-93 -95l93 -93q5 -5 5 -10t-5 -12
l-98 -102q-5 -5 -10 -5q-7 0 -15 7l-93 93q-7 7 -7 14t7 13l89 95l-89 90q-8 7 -8 12q0 7 8 12z" />
    <glyph glyph-name="uniFB61" unicode="&#x67a;" horiz-adv-x="586" arabic-form="medial" 
d="M176 1183q5 5 10 5t10 -6l100 -100q4 -5 4 -11t-4 -12l-92 -96l92 -93q5 -4 5 -9t-5 -12l-99 -99q-5 -7 -11 -7q-7 0 -16 9l-93 91q-6 6 -6 12q0 7 6 13l89 95l-89 88q-7 7 -7 14q0 8 7 15zM609 0h-65q-122 0 -189 114q-63 -114 -202 -114h-176v386h149q88 0 123 49
q14 28 37 103q16 56 57 56t53 -56q16 -75 28 -103q31 -49 120 -49h65v-386z" />
    <glyph glyph-name="uniFB62" unicode="&#x67f;" horiz-adv-x="1287" arabic-form="isolated" 
d="M1285 476v-6q0 -286 -191 -403q-148 -91 -453 -91q-277 0 -396 79q-139 91 -139 307q0 96 29 193q34 108 87 108q45 0 45 -86q0 -101 51 -146q81 -75 336 -75q233 0 285 4q104 8 139 34q20 8 20 20q0 10 -16 32q-34 42 -118 97q-10 10 -10 21q0 5 2 9l144 260q5 9 13 9
q7 0 16 -7q154 -156 156 -359zM514 945q-4 1 -10 5l-102 99q-5 5 -5 11q0 7 7 16l92 94q8 7 15 7q8 0 15 -7l94 -89l89 89q6 7 13 7t14 -7l104 -99q3 -5 3 -9q0 -7 -6 -13l-101 -99q-1 -3 -3 -4q5 -1 13 -8l103 -98q3 -5 3 -9q0 -7 -6 -14l-100 -98q-4 -7 -10 -7t-12 7
l-95 94l-92 -94q-5 -6 -11 -6t-13 6l-102 98q-5 5 -5 11q0 8 7 17l92 93q5 5 9 7zM725 944q-5 1 -10 6l-95 94l-92 -94q-3 -3 -6 -4q7 -1 13 -8l94 -88l89 88q3 4 7 6z" />
    <glyph glyph-name="uniFB63" unicode="&#x67f;" horiz-adv-x="1413" arabic-form="final" 
d="M1436 0h-65q-140 0 -210 148q-203 -197 -607 -197q-228 0 -334 90q-116 97 -116 315q0 79 21 165q28 120 81 120q51 0 57 -82q6 -106 51 -154q79 -82 317 -84h13q236 0 402 69q108 45 181 124q61 66 77 66q42 0 44 -56q0 -8 -12 -58q-8 -23 -28 -59q24 -21 67 -21h61
v-386zM566 944q-2 1 -5 3l-100 99q-5 5 -5 11q0 7 9 16l91 94q6 7 12 7q7 0 13 -7l97 -88l88 88q6 7 13 7q6 0 13 -7l102 -98q5 -5 5 -11t-5 -12l-100 -99l-6 -4q3 -2 7 -5l102 -98q5 -5 5 -11t-5 -12l-101 -98q-5 -6 -10 -6t-10 6l-95 94l-93 -94q-6 -6 -12 -6t-12 6
l-100 98q-5 5 -5 11q0 8 9 17l91 93q3 4 7 6zM776 944q-1 2 -2 3l-96 94l-93 -94q-4 -3 -6 -4l5 -5l97 -88l88 88q4 4 7 6z" />
    <glyph glyph-name="uniFB64" unicode="&#x67f;" horiz-adv-x="455" arabic-form="initial" 
d="M452 445q0 -230 -69 -331q-77 -114 -286 -114h-120v386h243q49 0 53 26q0 12 -16 34q-63 78 -135 143q-7 6 -7 13t7 16l158 228q7 19 17 22q5 0 21 -18q134 -163 134 -405zM116 1203l-3 3l-102 99q-5 5 -5 10q0 7 7 15l92 93q7 7 14 7t14 -7l95 -89l90 89q6 7 12 7t11 -7
l102 -97q6 -5 6 -10t-7 -10l-99 -100q-2 -3 -6 -4q3 -2 4 -5l102 -96q6 -5 6 -10t-7 -11l-99 -100q-4 -5 -10 -5q-5 0 -11 5l-94 94l-93 -94q-6 -4 -10 -4q-6 0 -12 4l-102 99q-5 5 -5 10q0 7 7 15l92 93q6 6 11 6zM326 1203q-2 1 -4 3l-94 94l-93 -94q-5 -3 -9 -4
q4 -2 7 -5l95 -89l90 89q4 5 8 6z" />
    <glyph glyph-name="uniFB65" unicode="&#x67f;" horiz-adv-x="586" arabic-form="medial" 
d="M609 0h-65q-122 0 -189 114q-63 -114 -202 -114h-176v386h149q88 0 123 49q14 28 37 103q16 56 57 56t53 -56q16 -75 28 -103q31 -49 120 -49h65v-386zM125 1033q-2 2 -5 4l-99 98q-7 6 -7 12q0 7 9 15l91 93q6 7 12 7t13 -7l95 -89l88 89q7 8 14 8q8 0 15 -8l103 -98
q4 -5 4 -10t-5 -10l-100 -100q-2 -3 -5 -4q3 -2 7 -5l103 -99q4 -4 4 -9q0 -6 -6 -11l-99 -100q-6 -5 -11 -5q-6 0 -13 5l-95 92l-93 -92q-4 -5 -10 -5q-5 0 -11 5l-100 98q-6 6 -6 12q0 7 8 16l91 93q4 4 8 5zM334 1034q-2 1 -4 3l-96 92l-93 -92q-2 -3 -5 -4q3 -2 7 -5
l95 -90l88 90q4 4 8 6z" />
    <glyph glyph-name="uniFB66" unicode="&#x679;" horiz-adv-x="1287" arabic-form="isolated" 
d="M1285 476v-6q0 -286 -191 -403q-148 -91 -453 -91q-277 0 -396 79q-139 91 -139 307q0 96 29 193q34 108 87 108q45 0 45 -86q0 -101 51 -146q81 -75 336 -75q233 0 285 4q104 8 139 34q20 8 20 20q0 10 -16 32q-34 42 -118 97q-10 10 -10 21q0 5 2 9l144 260q5 9 13 9
q7 0 16 -7q154 -156 156 -359zM889 937v-3q0 -39 -27 -89q-33 -60 -87 -96q-71 -45 -162 -45q-47 0 -96 28q-44 23 -79 62q-28 30 -28 40q0 11 8 14.5t32 3.5q16 0 46 -1t45 -1q0 95 -19 177q-12 60 -33 102l87 76q11 9 16 9q3 0 11 -15l51 -114q3 -8 5 -17q0 -4 -6 -4
q-8 0 -25 6q3 -19 3 -36q0 -74 -28 -146q121 135 205 135q40 0 63 -29q18 -23 18 -57zM788 884q0 17 -12 27.5t-32 10.5q-47 0 -117 -69q10 -1 30 -1q35 0 72 5q59 8 59 27z" />
    <glyph glyph-name="uniFB67" unicode="&#x679;" horiz-adv-x="1413" arabic-form="final" 
d="M1436 0h-65q-140 0 -210 148q-203 -197 -607 -197q-228 0 -334 90q-116 97 -116 315q0 79 21 165q28 120 81 120q51 0 57 -82q6 -106 51 -154q79 -82 317 -84h13q236 0 402 69q108 45 181 124q61 66 77 66q42 0 44 -56q0 -8 -12 -58q-8 -23 -28 -59q24 -21 67 -21h61
v-386zM935 937v-3q0 -39 -27 -89q-33 -60 -88 -96q-71 -45 -162 -45q-47 0 -96 28q-43 23 -79 62q-27 30 -27 40q0 11 7.5 14.5t32.5 3.5q15 0 45 -1t45 -1q0 95 -18 177q-13 60 -34 102l87 76q11 9 16 9q4 0 11 -15l51 -114q4 -8 5 -17q0 -4 -6 -4q-8 0 -25 6q3 -19 3 -36
q0 -74 -28 -146q121 135 206 135q40 0 63 -29q18 -23 18 -57zM834 884q0 17 -12.5 27.5t-32.5 10.5q-46 0 -117 -69q11 -1 31 -1q34 0 72 5q59 8 59 27z" />
    <glyph glyph-name="uniFB68" unicode="&#x679;" horiz-adv-x="493" arabic-form="initial" 
d="M493 445q0 -230 -69 -331q-77 -114 -286 -114h-161v386h284q49 0 53 26q0 12 -16 34q-63 78 -135 143q-7 6 -7 13t7 16l158 228q7 19 17 22q5 0 21 -18q134 -163 134 -405zM488 1203v-3q0 -38 -27 -88q-33 -60 -88 -96q-71 -45 -162 -45q-46 0 -96 27q-43 24 -79 62
q-27 31 -27 41q0 11 7.5 14.5t32.5 3.5q15 0 45.5 -1t44.5 -1q0 95 -18 177q-13 60 -34 102l88 76q11 9 15 9t11 -15l51 -114q4 -8 6 -17q0 -4 -7 -4q-8 0 -24 5q2 -18 2 -35q0 -74 -28 -146q121 135 206 135q40 0 63 -29q18 -23 18 -58zM387 1151q0 17 -12.5 27.5
t-32.5 10.5q-46 0 -116 -69q10 -1 30 -1q34 0 72 5q59 8 59 27z" />
    <glyph glyph-name="uniFB69" unicode="&#x679;" horiz-adv-x="586" arabic-form="medial" 
d="M470 1049v-3q0 -39 -27 -89q-33 -60 -88 -96q-71 -45 -162 -45q-47 0 -96 28q-43 23 -79 62q-27 31 -27 40q0 11 7.5 14.5t32.5 3.5q15 0 45 -1t45 -1q0 95 -18 177q-13 60 -34 102l87 76q11 9 16 9q4 0 11 -15l51 -114q4 -8 5 -17q0 -4 -6 -4q-8 0 -25 6q3 -19 3 -36
q0 -74 -28 -146q121 135 206 135q40 0 63 -29q18 -23 18 -57zM369 996q0 17 -12.5 27.5t-32.5 10.5q-46 0 -117 -69q11 -1 31 -1q34 0 72 5q59 9 59 27zM609 0h-65q-122 0 -189 114q-63 -114 -202 -114h-176v386h149q88 0 123 49q14 28 37 103q16 56 57 56t53 -56
q16 -75 28 -103q31 -49 120 -49h65v-386z" />
    <glyph glyph-name="uniFB6A" unicode="&#x6a4;" horiz-adv-x="1307" arabic-form="isolated" 
d="M1307 465q0 -297 -202 -410q-151 -87 -466 -89h-14q-242 0 -360 68q-161 90 -161 320q0 92 31 191q36 108 83 108q45 0 45 -83q0 -147 128 -200q81 -32 260 -32q266 0 322 3q158 10 197 53q12 8 12 18q0 9 -10 12q-4 0 -13 -3q-38 -16 -158 -16q-226 0 -226 190
q0 121 55 233q68 136 177 137h3q152 0 235 -188q62 -147 62 -312zM1107 646q0 24 -33 48.5t-71 26.5q-34 0 -55.5 -17t-21.5 -41q0 -32 94 -33h16q71 0 71 16zM796 1171q-2 3 -2 7q0 6 4 13l99 98q4 6 9 6t11 -6l100 -96l96 96q5 6 11 6q5 0 11 -6l101 -98q5 -5 5 -10
q0 -6 -7 -14l-95 -93q-4 -7 -10 -7t-14 7l-102 93l-87 -93q-7 -7 -14 -7t-15 7zM901 1364q-3 3 -3 7q0 6 7 13l98 100q5 5 11 5q5 0 11 -5l100 -100q7 -4 7 -10t-9 -16l-91 -93q-7 -5 -12 -5q-7 0 -15 5z" />
    <glyph glyph-name="uniFB6B" unicode="&#x6a4;" horiz-adv-x="1417" arabic-form="final" 
d="M1440 0h-69q-57 0 -122 36.5t-102 85.5q-181 -156 -508 -156q-272 0 -397 81q-138 89 -138 307q0 92 31 191q36 108 83 108q45 0 45 -83q0 -147 128 -200q81 -32 260 -32q200 0 295 24q-43 45 -45 138q0 104 80 219q92 133 213 133q93 0 149 -94q42 -71 42 -163v-9
q0 -124 -56 -200h111v-386zM1247 509q0 25 -32 50q-35 21 -71 21q-46 0 -76.5 -20.5t-31.5 -49.5q0 -22 39.5 -49.5t65.5 -27.5q41 0 73.5 26t32.5 50zM981 1059q-2 3 -2 7q0 6 4 13l99 98q4 6 9 6t11 -6l98 -97l98 97q5 6 11 6q5 0 11 -6l100 -98q5 -5 5 -10q0 -7 -6 -14
l-95 -93q-4 -7 -10 -7t-14 7l-102 93l-88 -93q-6 -7 -13 -7t-15 7zM1086 1252q-4 4 -4 8q0 5 6 12l100 100q5 5 11 5q5 0 11 -5l100 -100q6 -4 6 -9q0 -7 -9 -17l-90 -93q-7 -5 -13 -5t-14 5z" />
    <glyph glyph-name="uniFB6C" unicode="&#x6a4;" horiz-adv-x="569" arabic-form="initial" 
d="M569 498q0 -498 -485 -498h-107v386h106q276 0 321 29q19 16 19 31q0 24 -23 24h-8q-4 -2 -6 -2q-31 -15 -136 -15q-216 0 -216 177q0 122 57 234q65 135 175 135q157 0 238 -190q65 -149 65 -311zM372 685q0 21 -35.5 48t-69.5 29q-29 0 -52.5 -16t-23.5 -44
q0 -31 95 -32h10q76 0 76 15zM54 1208q-3 4 -3 8q0 6 4 12l99 98q4 6 9 6t11 -6l100 -96l97 96q5 6 10 6q6 0 11 -6l101 -98q5 -5 5 -10q0 -6 -7 -14l-95 -93q-4 -7 -10 -7t-14 7l-102 93l-88 -93q-7 -7 -14 -7t-14 7zM158 1401q-3 3 -3 7q0 6 7 13l98 100q5 5 11 5
q5 0 11 -5l100 -100q6 -4 6 -9q0 -7 -9 -16l-90 -93q-7 -6 -11 -6q-8 0 -16 6z" />
    <glyph glyph-name="uniFB6D" unicode="&#x6a4;" horiz-adv-x="584" arabic-form="medial" 
d="M607 0h-67q-56 0 -127.5 37.5t-104.5 80.5q-140 -118 -272 -118h-59v386h120q-27 25 -27 114v3q0 102 78 216q92 133 213 133q91 0 145 -87q46 -73 48 -170q0 -135 -54 -209h107v-386zM414 509q0 27 -32.5 49t-66.5 22q-43 0 -76.5 -21t-35.5 -49q0 -20 42 -50
q37 -27 63 -27q39 0 72.5 26t33.5 50zM109 1059q-2 3 -2 7q0 6 4 13l98 98q5 6 10 6t10 -6l101 -97l96 97q6 6 11 6q6 0 12 -6l100 -98q5 -5 5 -10q0 -6 -7 -14l-95 -93q-4 -7 -10 -7t-14 7l-101 93l-89 -93q-6 -7 -14 -7q-7 0 -15 7zM215 1252q-4 3 -4 8t7 12l98 100
q6 5 11 5q6 0 12 -5l99 -100q6 -4 6 -9q0 -7 -9 -17l-90 -93q-6 -5 -12 -5t-15 5z" />
    <glyph glyph-name="uniFB6E" unicode="&#x6a6;" horiz-adv-x="1307" arabic-form="isolated" 
d="M1307 465q0 -297 -202 -410q-151 -87 -466 -89h-14q-242 0 -360 68q-161 90 -161 320q0 92 31 191q36 108 83 108q45 0 45 -83q0 -147 128 -200q81 -32 260 -32q266 0 322 3q158 10 197 53q12 8 12 18q0 9 -10 12q-4 0 -13 -3q-38 -16 -158 -16q-226 0 -226 190
q0 121 55 233q68 136 177 137h3q152 0 235 -188q62 -147 62 -312zM1107 646q0 24 -33 48.5t-71 26.5q-34 0 -55.5 -17t-21.5 -41q0 -32 94 -33h16q71 0 71 16zM898 1291q-4 2 -8 5l-100 97q-2 3 -2 7q0 6 4 13l98 98q4 6 9 6t11 -6l100 -96l97 96q5 6 11 6q5 0 11 -6
l100 -98q5 -5 5 -10q0 -6 -7 -14l-94 -93q-1 -1 -2 -3q2 -1 4 -4l101 -98q5 -5 5 -10q0 -6 -7 -14l-95 -93q-4 -7 -10 -7t-14 7l-102 93l-87 -93q-7 -7 -14 -7t-15 7l-101 97q-2 3 -2 7q0 6 4 13l99 98q1 1 1 2zM1115 1291q-2 2 -6 5l-102 93l-88 -93q-2 -2 -5 -4l3 -3
l100 -96l96 96z" />
    <glyph glyph-name="uniFB6F" unicode="&#x6a6;" horiz-adv-x="1417" arabic-form="final" 
d="M1440 0h-69q-57 0 -122 36.5t-102 85.5q-181 -156 -508 -156q-272 0 -397 81q-138 89 -138 307q0 92 31 191q36 108 83 108q45 0 45 -83q0 -147 128 -200q81 -32 260 -32q200 0 295 24q-43 45 -45 138q0 104 80 219q92 133 213 133q93 0 149 -94q42 -71 42 -163v-9
q0 -124 -56 -200h111v-386zM1247 509q0 25 -32 50q-35 21 -71 21q-46 0 -76.5 -20.5t-31.5 -49.5q0 -22 39.5 -49.5t65.5 -27.5q41 0 73.5 26t32.5 50zM1087 1182q-5 2 -8 6l-100 97q-3 4 -3 8q0 6 4 12l99 98q4 6 9 6t11 -6l98 -97l99 97q5 6 10 6q6 0 11 -6l101 -98
q5 -5 5 -10q0 -6 -7 -14l-95 -93q-3 -5 -6 -6l5 -5l100 -98q5 -5 5 -10q0 -7 -6 -14l-95 -93q-4 -7 -10 -7t-14 7l-102 93l-88 -93q-6 -7 -13 -7t-15 7l-101 97q-2 3 -2 7q0 6 4 13l99 98q2 4 5 5zM1305 1183q-4 1 -8 5l-102 93l-88 -93q-5 -5 -10 -7q2 -1 5 -4l98 -97
l98 97q3 4 7 6z" />
    <glyph glyph-name="uniFB70" unicode="&#x6a6;" horiz-adv-x="569" arabic-form="initial" 
d="M569 498q0 -498 -485 -498h-107v386h106q276 0 321 29q19 16 19 31q0 24 -23 24h-8q-4 -2 -6 -2q-31 -15 -136 -15q-216 0 -216 177q0 122 57 234q65 135 175 135q157 0 238 -190q65 -149 65 -311zM372 685q0 21 -35.5 48t-69.5 29q-29 0 -52.5 -16t-23.5 -44
q0 -31 95 -32h10q76 0 76 15zM159 1332q-4 1 -10 6l-100 98q-2 3 -2 7q0 6 4 13l98 98q4 6 9 6t11 -6l100 -96l97 96q5 6 11 6q5 0 11 -6l100 -98q5 -5 5 -10q0 -6 -7 -14l-94 -94q-3 -5 -7 -6q4 -2 7 -6l101 -98q5 -5 5 -10q0 -6 -7 -14l-95 -93q-4 -7 -10 -7t-14 7
l-102 93l-88 -93q-7 -7 -14 -7t-14 7l-100 97q-3 4 -3 8q0 6 4 12l99 98q2 4 5 6zM378 1332q-5 2 -10 6l-102 94l-89 -94q-5 -5 -10 -7q3 -1 7 -5l100 -96l97 96q3 4 7 6z" />
    <glyph glyph-name="uniFB71" unicode="&#x6a6;" horiz-adv-x="584" arabic-form="medial" 
d="M607 0h-67q-56 0 -127.5 37.5t-104.5 80.5q-140 -118 -272 -118h-59v386h120q-27 25 -27 114v3q0 102 78 216q92 133 213 133q91 0 145 -87q46 -73 48 -170q0 -135 -54 -209h107v-386zM414 509q0 27 -32.5 49t-66.5 22q-43 0 -76.5 -21t-35.5 -49q0 -20 42 -50
q37 -27 63 -27q39 0 72.5 26t33.5 50zM213 1181l-6 4l-100 97q-2 3 -2 7q0 6 4 13l98 98q5 6 10 6t11 -6l100 -96l96 96q6 6 11 6q6 0 12 -6l100 -98q5 -5 5 -10q0 -6 -7 -14l-95 -93q-2 -3 -4 -5l3 -3l100 -98q5 -5 5 -10q0 -6 -7 -14l-95 -93q-4 -7 -10 -7t-14 7l-101 93
l-89 -93q-6 -7 -14 -7q-7 0 -15 7l-100 97q-2 3 -2 7q0 6 4 13l98 98q2 3 4 4zM431 1181q-2 2 -5 4l-101 93l-88 -93q-5 -4 -9 -6q0 -1 1 -2l101 -97l96 97q3 3 5 4z" />
    <glyph glyph-name="uniFB72" unicode="&#x684;" horiz-adv-x="1092" arabic-form="isolated" 
d="M1064 710l-64 -227h-56q-203 0 -337 -98q-151 -111 -153 -306q0 -195 147 -266q83 -37 239 -41h77q56 0 68 2q107 0 107 -46q0 -48 -83 -87q-108 -50 -358 -52q-231 0 -377 97q-170 112 -170 331q0 308 477 466q-185 22 -208 22q-82 0 -118 -29q-13 -12 -49 -50
q-25 -24 -51 -24q-44 0 -44 55q0 85 49 185q77 158 223 162q4 0 140 -19q122 -17 291 -17h227q33 0 33 -17q0 -8 -10 -41zM806 343q4 4 9 4q6 0 12 -6l99 -100q6 -6 6 -10q0 -6 -6 -10l-96 -101l96 -96q5 -5 5 -11t-5 -12l-98 -99q-6 -4 -11 -4q-7 0 -13 5l-96 93
q-6 6 -6 12t6 12l96 102l-96 91q-6 8 -6 12q0 6 6 14z" />
    <glyph glyph-name="uniFB73" unicode="&#x684;" horiz-adv-x="1151" arabic-form="final" 
d="M1174 0h-76q-112 0 -186 92.5t-76 236.5q0 70 18 136q-189 -51 -268 -117q-124 -104 -126 -277v-4q0 -206 193 -276q94 -33 316 -33q113 0 113 -53q0 -44 -79 -75q-108 -41 -269 -41q-297 0 -461.5 116t-166.5 321v4q0 178 169 304q112 83 339 163l-237 17h-6
q-72 0 -119 -50q-50 -53 -69 -53q-43 0 -43 75t64 191q85 151 212 154l180 -36q171 -33 325 -33h160q35 0 35 -20q0 -14 -8 -40l-85 -239h-84q20 -77 157 -77h78v-386zM694 267l81 -85q7 -5 7 -9q0 -3 -7 -6l-79 -85l79 -79q6 -6 6 -9t-6 -9l-81 -86q-4 -4 -8 -4q-5 0 -12 6
l-78 79q-6 5 -6 11q0 4 6 10l80 81l-2 2l-78 76q-5 5 -5 10t5 10l81 87q4 5 8 5t9 -5z" />
    <glyph glyph-name="uniFB74" unicode="&#x684;" horiz-adv-x="1027" arabic-form="initial" 
d="M1020 527l-98 -226q-142 0 -217 -38q-53 -25 -148.5 -103.5t-154.5 -104.5q-114 -55 -269 -55h-156v386h193q270 0 387 47l-166 69q-87 36 -129 37h-4q-36 0 -82 -34q-50 -37 -67 -37q-51 0 -51 56q0 61 82 173q103 143 224 143q88 0 213 -80q153 -100 233 -129
q71 -27 173 -48l19 -3q25 -5 25 -21q0 -12 -7 -32zM573 15q5 6 11 6q5 0 11 -6l100 -100q6 -6 6 -11q0 -4 -6 -7l-97 -100l97 -97q5 -5 5 -10q0 -7 -5 -11l-100 -101q-5 -5 -10 -5q-6 0 -14 7l-95 95q-4 4 -4 10q0 5 4 13l95 99l-95 93q-5 6 -5 12t5 11z" />
    <glyph glyph-name="uniFB75" unicode="&#x684;" horiz-adv-x="1058" arabic-form="medial" 
d="M1081 0h-166q-226 0 -298 260q-97 -124 -248.5 -192t-308.5 -68h-83v386h148q254 0 429 86q-219 67 -278 67q-55 0 -100.5 -45t-69.5 -45q-52 0 -52 70v4q0 70 67 188q86 147 204 147q59 0 244 -65t314 -65h96q31 0 31 -14q0 -3 -7 -27l-81 -260h-158q36 -41 158 -41h159
v-386zM515 18q7 4 10 4q5 0 12 -4l100 -103q5 -3 5 -9q0 -4 -5 -12l-96 -96l96 -97q5 -5 5 -12q0 -5 -5 -8l-100 -102q-4 -4 -9 -4q-6 0 -14 8l-95 89q-6 9 -6 14t6 13l95 99l-95 92q-7 6 -7 12q0 7 7 13z" />
    <glyph glyph-name="uniFB76" unicode="&#x683;" horiz-adv-x="1092" arabic-form="isolated" 
d="M1064 710l-64 -227h-56q-203 0 -337 -98q-151 -111 -153 -306q0 -195 147 -266q83 -37 239 -41h77q56 0 68 2q107 0 107 -46q0 -48 -83 -87q-108 -50 -358 -52q-231 0 -377 97q-170 112 -170 331q0 308 477 466q-185 22 -208 22q-82 0 -118 -29q-13 -12 -49 -50
q-25 -24 -51 -24q-44 0 -44 55q0 85 49 185q77 158 223 162q4 0 140 -19q122 -17 291 -17h227q33 0 33 -17q0 -8 -10 -41zM1037 178q4 -4 4 -9q0 -6 -5 -12l-100 -99q-6 -6 -10 -6q-6 0 -11 6l-99 96l-98 -96q-5 -5 -10 -5q-6 0 -12 5l-100 98q-4 5 -4 11q0 7 6 14l94 95
q6 6 11 6q6 0 12 -6l101 -95l92 95q7 7 12 7q6 0 14 -7z" />
    <glyph glyph-name="uniFB77" unicode="&#x683;" horiz-adv-x="1151" arabic-form="final" 
d="M1174 0h-76q-112 0 -186 92.5t-76 236.5q0 70 18 136q-189 -51 -268 -117q-124 -104 -126 -277v-4q0 -206 193 -276q94 -33 316 -33q113 0 113 -53q0 -44 -79 -75q-108 -41 -269 -41q-297 0 -461.5 116t-166.5 321v4q0 178 169 304q112 83 339 163l-237 17h-6
q-72 0 -119 -50q-50 -53 -69 -53q-43 0 -43 75t64 191q85 151 212 154l180 -36q171 -33 325 -33h160q35 0 35 -20q0 -14 -8 -40l-85 -239h-84q20 -77 157 -77h78v-386zM869 75l-84 -81q-5 -6 -9 -6t-7 6l-85 79l-80 -79q-4 -6 -8 -6t-8 6l-87 81q-4 4 -4 8q0 5 6 12l79 78
q6 6 10 6q6 0 10 -6l82 -80l2 2l76 78q6 5 11 5t10 -5l86 -81q5 -3 5 -8q0 -4 -5 -9z" />
    <glyph glyph-name="uniFB78" unicode="&#x683;" horiz-adv-x="1027" arabic-form="initial" 
d="M1020 527l-98 -226q-142 0 -217 -38q-53 -25 -148.5 -103.5t-154.5 -104.5q-114 -55 -269 -55h-156v386h193q270 0 387 47l-166 69q-87 36 -129 37h-4q-36 0 -82 -34q-50 -37 -67 -37q-51 0 -51 56q0 61 82 173q103 143 224 143q88 0 213 -80q153 -100 233 -129
q71 -27 173 -48l19 -3q25 -5 25 -21q0 -12 -7 -32zM805 -190q5 -5 5 -10q0 -6 -5 -12l-100 -100q-7 -6 -12 -6q-4 0 -7 6l-100 97l-97 -97q-5 -5 -10 -5q-6 0 -10 5l-102 100q-5 5 -5 10q0 6 7 13l94 96q6 5 11 5t13 -5l99 -96l93 96q6 5 12 5t12 -5z" />
    <glyph glyph-name="uniFB79" unicode="&#x683;" horiz-adv-x="1058" arabic-form="medial" 
d="M1081 0h-166q-226 0 -298 260q-97 -124 -248.5 -192t-308.5 -68h-83v386h148q254 0 429 86q-219 67 -278 67q-55 0 -100.5 -45t-69.5 -45q-52 0 -52 70v4q0 70 67 188q86 147 204 147q59 0 244 -65t314 -65h96q31 0 31 -14q0 -3 -7 -27l-81 -260h-158q36 -41 158 -41h159
v-386zM747 -190q3 -7 3 -10q0 -5 -3 -12l-103 -100q-4 -5 -9 -5t-12 5l-97 97l-96 -97q-5 -5 -12 -5q-5 0 -8 5l-102 100q-4 4 -4 9q0 7 7 14l91 96q8 5 12 5q6 0 14 -5l98 -96l92 96q6 7 13 7q6 0 13 -7z" />
    <glyph glyph-name="uniFB7A" unicode="&#x686;" horiz-adv-x="1092" arabic-form="isolated" 
d="M1064 710l-64 -227h-56q-203 0 -337 -98q-151 -111 -153 -306q0 -195 147 -266q83 -37 239 -41h77q56 0 68 2q107 0 107 -46q0 -48 -83 -87q-108 -50 -358 -52q-231 0 -377 97q-170 112 -170 331q0 308 477 466q-185 22 -208 22q-82 0 -118 -29q-13 -12 -49 -50
q-25 -24 -51 -24q-44 0 -44 55q0 85 49 185q77 158 223 162q4 0 140 -19q122 -17 291 -17h227q33 0 33 -17q0 -8 -10 -41zM1037 178q4 -4 4 -9q0 -6 -5 -12l-100 -99q-6 -6 -10 -6q-6 0 -11 6l-99 96l-98 -96q-5 -5 -10 -5q-6 0 -12 5l-100 98q-4 5 -4 11q0 7 6 14l94 95
q6 6 11 6q6 0 12 -6l101 -95l92 95q7 7 12 7q6 0 14 -7zM928 -15q4 -5 4 -11t-5 -12l-100 -99q-5 -5 -11 -5q-5 0 -10 5l-100 99q-4 5 -4 10q0 7 8 15l90 94q6 6 13 6q6 0 13 -6z" />
    <glyph glyph-name="uniFB7B" unicode="&#x686;" horiz-adv-x="1151" arabic-form="final" 
d="M1174 0h-76q-112 0 -186 92.5t-76 236.5q0 70 18 136q-189 -51 -268 -117q-124 -104 -126 -277v-4q0 -206 193 -276q94 -33 316 -33q113 0 113 -53q0 -44 -79 -75q-108 -41 -269 -41q-297 0 -461.5 116t-166.5 321v4q0 178 169 304q112 83 339 163l-237 17h-6
q-72 0 -119 -50q-50 -53 -69 -53q-43 0 -43 75t64 191q85 151 212 154l180 -36q171 -33 325 -33h160q35 0 35 -20q0 -14 -8 -40l-85 -239h-84q20 -77 157 -77h78v-386zM869 75l-84 -81q-5 -6 -9 -6t-7 6l-85 79l-80 -79q-4 -6 -8 -6t-8 6l-87 81q-4 4 -4 8q0 5 6 12l79 78
q6 6 10 6q6 0 10 -6l82 -80l2 2l76 78q6 5 11 5t10 -5l86 -81q5 -3 5 -8q0 -4 -5 -9zM777 -71q6 -2 6 -7q0 -3 -6 -9l-81 -82q-4 -4 -9 -4t-10 4l-85 82q-4 4 -4 8q0 6 8 12l75 81q6 3 12 3q4 0 11 -3z" />
    <glyph glyph-name="uniFB7C" unicode="&#x686;" horiz-adv-x="1027" arabic-form="initial" 
d="M1020 527l-98 -226q-142 0 -217 -38q-53 -25 -148.5 -103.5t-154.5 -104.5q-114 -55 -269 -55h-156v386h193q270 0 387 47l-166 69q-87 36 -129 37h-4q-36 0 -82 -34q-50 -37 -67 -37q-51 0 -51 56q0 61 82 173q103 143 224 143q88 0 213 -80q153 -100 233 -129
q71 -27 173 -48l19 -3q25 -5 25 -21q0 -12 -7 -32zM805 -190q5 -5 5 -10q0 -6 -5 -12l-100 -100q-7 -6 -12 -6q-4 0 -7 6l-100 97l-97 -97q-5 -5 -10 -5q-6 0 -10 5l-102 100q-5 5 -5 10q0 6 7 13l94 96q6 5 11 5t13 -5l99 -96l93 96q6 5 12 5t12 -5zM696 -386q7 -4 7 -9
t-7 -10l-99 -97q-6 -5 -11 -5t-9 5l-103 97q-2 3 -2 7q0 8 7 18l94 93q4 5 10 5t14 -5z" />
    <glyph glyph-name="uniFB7D" unicode="&#x686;" horiz-adv-x="1058" arabic-form="medial" 
d="M1081 0h-166q-226 0 -298 260q-97 -124 -248.5 -192t-308.5 -68h-83v386h148q254 0 429 86q-219 67 -278 67q-55 0 -100.5 -45t-69.5 -45q-52 0 -52 70v4q0 70 67 188q86 147 204 147q59 0 244 -65t314 -65h96q31 0 31 -14q0 -3 -7 -27l-81 -260h-158q36 -41 158 -41h159
v-386zM747 -190q3 -7 3 -10q0 -5 -3 -12l-103 -100q-4 -5 -9 -5t-12 5l-97 97l-96 -97q-5 -5 -12 -5q-5 0 -8 5l-102 100q-4 4 -4 9q0 7 7 14l91 96q8 5 12 5q6 0 14 -5l98 -96l92 96q6 7 13 7q6 0 13 -7zM638 -386q5 -4 5 -9t-5 -10l-100 -97q-6 -5 -12 -5q-4 0 -10 5
l-102 97q-2 3 -2 7q0 7 6 18l92 93q6 6 13 6q6 0 13 -6z" />
    <glyph glyph-name="uniFB7E" unicode="&#x687;" horiz-adv-x="1092" arabic-form="isolated" 
d="M1064 710l-64 -227h-56q-203 0 -337 -98q-151 -111 -153 -306q0 -195 147 -266q83 -37 239 -41h77q56 0 68 2q107 0 107 -46q0 -48 -83 -87q-108 -50 -358 -52q-231 0 -377 97q-170 112 -170 331q0 308 477 466q-185 22 -208 22q-82 0 -118 -29q-13 -12 -49 -50
q-25 -24 -51 -24q-44 0 -44 55q0 85 49 185q77 158 223 162q4 0 140 -19q122 -17 291 -17h227q33 0 33 -17q0 -8 -10 -41zM939 61l2 -2l103 -98q4 -4 4 -9q0 -6 -5 -12l-100 -98q-5 -7 -10 -7t-11 7l-99 95l-98 -95q-5 -5 -10 -5q-6 0 -12 5l-100 97q-4 5 -4 11q0 7 6 15
l92 93h-1l-100 98q-4 5 -4 11q0 7 6 14l94 95q6 6 11 6q6 0 12 -6l101 -95l92 95q7 7 12 7q6 0 14 -7l103 -98q4 -4 4 -9q0 -6 -5 -12zM721 61l2 -2l101 -94l91 93l-99 96z" />
    <glyph glyph-name="uniFB7F" unicode="&#x687;" horiz-adv-x="1151" arabic-form="final" 
d="M1174 0h-76q-112 0 -186 92.5t-76 236.5q0 70 18 136q-189 -51 -268 -117q-124 -104 -126 -277v-4q0 -206 193 -276q94 -33 316 -33q113 0 113 -53q0 -44 -79 -75q-108 -41 -269 -41q-297 0 -461.5 116t-166.5 321v4q0 178 169 304q112 83 339 163l-237 17h-6
q-72 0 -119 -50q-50 -53 -69 -53q-43 0 -43 75t64 191q85 151 212 154l180 -36q171 -33 325 -33h160q35 0 35 -20q0 -14 -8 -40l-85 -239h-84q20 -77 157 -77h78v-386zM770 30l73 -68q4 -3 4 -7t-4 -8l-71 -68q-4 -5 -8 -5q-3 0 -6 5l-71 66l-67 -66q-4 -5 -8 -5q-2 0 -6 5
l-73 68q-4 3 -4 7t6 10l66 66l-72 67q-3 3 -3 7t5 10l67 66q4 6 9 6q4 0 8 -6l69 -67l1 1l64 66q5 5 9 5q5 0 9 -5l73 -68q4 -3 4 -7q0 -3 -4 -8zM618 30l69 -67l2 1l64 66l1 1l-70 65z" />
    <glyph glyph-name="uniFB80" unicode="&#x687;" horiz-adv-x="1027" arabic-form="initial" 
d="M1020 527l-98 -226q-142 0 -217 -38q-53 -25 -148.5 -103.5t-154.5 -104.5q-114 -55 -269 -55h-156v386h193q270 0 387 47l-166 69q-87 36 -129 37h-4q-36 0 -82 -34q-50 -37 -67 -37q-51 0 -51 56q0 61 82 173q103 143 224 143q88 0 213 -80q153 -100 233 -129
q71 -27 173 -48l19 -3q25 -5 25 -21q0 -12 -7 -32zM703 -314q1 0 2 -1l102 -98q5 -5 5 -10q0 -6 -5 -12l-100 -100q-7 -6 -12 -6q-4 0 -7 6l-101 98l-96 -98q-5 -4 -10 -4q-7 0 -10 4l-102 100q-5 5 -5 10q0 6 7 14l94 96q2 2 4 3l-102 100q-5 5 -5 10q0 6 7 13l94 96
q6 5 11 5t13 -5l99 -96l93 96q6 5 12 5t12 -5l102 -97q5 -5 5 -10q0 -6 -5 -12l-100 -100zM487 -314q1 0 2 -1l98 -96l94 96q2 2 5 3l-100 97l-97 -97z" />
    <glyph glyph-name="uniFB81" unicode="&#x687;" horiz-adv-x="1058" arabic-form="medial" 
d="M1081 0h-166q-226 0 -298 260q-97 -124 -248.5 -192t-308.5 -68h-83v386h148q254 0 429 86q-219 67 -278 67q-55 0 -100.5 -45t-69.5 -45q-52 0 -52 70v4q0 70 67 188q86 147 204 147q59 0 244 -65t314 -65h96q31 0 31 -14q0 -3 -7 -27l-81 -260h-158q36 -41 158 -41h159
v-386zM643 -313q2 -1 3 -2l103 -98q3 -6 3 -10t-3 -12l-103 -100q-4 -4 -9 -4t-12 4l-97 98l-96 -98q-5 -4 -12 -4q-5 0 -8 4l-102 100q-4 4 -4 10t7 14l90 96q4 2 7 3l-102 100q-4 4 -4 9q0 7 7 14l91 96q8 5 12 5q6 0 14 -5l98 -96l92 96q6 7 13 7q6 0 13 -7l103 -97
q3 -7 3 -10q0 -5 -3 -12l-103 -100zM428 -314q1 0 2 -1l98 -96l92 96l3 3l-97 97l-96 -97z" />
    <glyph glyph-name="uniFB82" unicode="&#x68d;" horiz-adv-x="819" arabic-form="isolated" 
d="M817 415v-4q0 -409 -386 -409q-327 0 -327 288q0 37 15 112q9 37 27 96q15 36 47 40q29 0 45 -50q24 -79 59 -98q44 -24 176 -24q169 0 169 41q0 17 -26 42q-98 99 -319 218l134 281q10 20 26 20q8 0 16 -4q94 -41 190 -151q153 -177 154 -398zM456 -288q1 3 3 5l106 108
q6 5 14 5q7 0 16 -5l114 -114q5 -6 5 -12t-5 -13l-112 -112q-5 -5 -12 -5q-6 0 -14 5l-114 110q-1 0 -1 1l-111 -111q-5 -5 -12 -5t-14 5l-115 110q-7 6 -7 14q0 9 10 19l106 108q6 5 13 5q8 0 17 -5z" />
    <glyph glyph-name="uniFB83" unicode="&#x68d;" horiz-adv-x="1002" arabic-form="final" 
d="M1025 0h-72q-162 0 -268 212q-64 -124 -132 -178q-78 -63 -188 -63q-258 0 -260 305v5q0 56 19 133q24 103 67 103q49 0 63 -47q22 -73 31 -85q34 -47 124 -49h8q44 0 109 19q71 21 75 54l-4 8l-139 339l188 191q7 8 21 11q6 0 12 -20l159 -436q42 -116 124 -116h63v-386
zM378 -303q1 3 4 7l108 108q7 8 15 8q7 0 15 -8l116 -115q6 -4 6 -9q0 -6 -8 -13l-112 -114q-6 -3 -12 -3t-14 3l-114 114q-2 2 -4 3l-3 -3l-112 -114q-6 -3 -11 -3q-7 0 -15 3l-114 114q-6 5 -6 12q0 8 6 17l109 108q7 8 14 8q8 0 16 -8l115 -115h1z" />
    <glyph glyph-name="uniFB84" unicode="&#x68c;" horiz-adv-x="819" arabic-form="isolated" 
d="M817 415v-4q0 -409 -386 -409q-327 0 -327 288q0 37 15 112q9 37 27 96q15 36 47 40q29 0 45 -50q24 -79 59 -98q44 -24 176 -24q169 0 169 41q0 17 -26 42q-98 99 -319 218l134 281q10 20 26 20q8 0 16 -4q94 -41 190 -151q153 -177 154 -398zM456 1188q1 3 3 5l106 108
q6 5 14 5q7 0 16 -5l114 -114q5 -6 5 -12t-5 -13l-112 -112q-5 -5 -12 -5q-6 0 -14 5l-114 110q-1 0 -1 1l-111 -111q-5 -5 -12 -5t-14 5l-115 110q-7 6 -7 13q0 9 10 20l106 108q6 5 13 5q8 0 17 -5z" />
    <glyph glyph-name="uniFB85" unicode="&#x68c;" horiz-adv-x="1002" arabic-form="final" 
d="M1025 0h-72q-162 0 -268 212q-64 -124 -132 -178q-78 -63 -188 -63q-258 0 -260 305v5q0 56 19 133q24 103 67 103q49 0 63 -47q22 -73 31 -85q34 -47 124 -49h8q44 0 109 19q71 21 75 54l-4 8l-139 339l188 191q7 8 21 11q6 0 12 -20l159 -436q42 -116 124 -116h63v-386
zM661 1163q1 4 3 8l109 108q7 8 14 8q8 0 16 -8l115 -116q6 -4 6 -9t-7 -12l-112 -114q-7 -3 -12 -3q-7 0 -15 3l-114 114q-2 1 -3 3q-1 -2 -3 -3l-112 -114q-7 -3 -12 -3q-6 0 -15 3l-113 114q-6 5 -6 12q0 8 6 17l108 108q7 8 15 8q7 0 15 -8l116 -116h1z" />
    <glyph glyph-name="uniFB86" unicode="&#x68e;" horiz-adv-x="819" arabic-form="isolated" 
d="M817 415v-4q0 -409 -386 -409q-327 0 -327 288q0 37 15 112q9 37 27 96q15 36 47 40q29 0 45 -50q24 -79 59 -98q44 -24 176 -24q169 0 169 41q0 17 -26 42q-98 99 -319 218l134 281q10 20 26 20q8 0 16 -4q94 -41 190 -151q153 -177 154 -398zM456 1188q1 3 3 5l106 108
q6 5 14 5q7 0 16 -5l114 -114q5 -6 5 -12t-5 -13l-112 -112q-5 -5 -12 -5q-6 0 -14 5l-114 110q-1 0 -1 1l-111 -111q-5 -5 -12 -5t-14 5l-115 110q-7 6 -7 13q0 9 10 20l106 108q6 5 13 5q8 0 17 -5zM584 1463q6 -5 6 -10q0 -7 -6 -15l-114 -114q-3 -6 -10 -6q-5 0 -13 6
l-116 112q-5 6 -5 13q0 8 7 17l105 107q7 9 15 9q9 0 15 -9z" />
    <glyph glyph-name="uniFB87" unicode="&#x68e;" horiz-adv-x="1002" arabic-form="final" 
d="M1025 0h-72q-162 0 -268 212q-64 -124 -132 -178q-78 -63 -188 -63q-258 0 -260 305v5q0 56 19 133q24 103 67 103q49 0 63 -47q22 -73 31 -85q34 -47 124 -49h8q44 0 109 19q71 21 75 54l-4 8l-139 339l188 191q7 8 21 11q6 0 12 -20l159 -436q42 -116 124 -116h63v-386
zM661 1163q1 4 3 8l109 108q7 8 14 8q8 0 16 -8l115 -116q6 -4 6 -9t-7 -12l-112 -114q-7 -3 -12 -3q-7 0 -15 3l-114 114q-2 1 -3 3q-1 -2 -3 -3l-112 -114q-7 -3 -12 -3q-6 0 -15 3l-113 114q-6 5 -6 12q0 8 6 17l108 108q7 8 15 8q7 0 15 -8l116 -116h1zM781 1437
q6 -6 6 -10q0 -8 -6 -16l-114 -114q-4 -5 -10 -5q-5 0 -14 5l-115 112q-5 7 -5 14q0 8 6 16l106 108q7 8 15 8q9 0 15 -8z" />
    <glyph glyph-name="uniFB88" unicode="&#x688;" horiz-adv-x="819" arabic-form="isolated" 
d="M817 415v-4q0 -409 -386 -409q-327 0 -327 288q0 37 15 112q9 37 27 96q15 36 47 40q29 0 45 -50q24 -79 59 -98q44 -24 176 -24q169 0 169 41q0 17 -26 42q-98 99 -319 218l134 281q10 20 26 20q8 0 16 -4q94 -41 190 -151q153 -177 154 -398zM692 1355v-3
q0 -38 -28 -88q-33 -61 -87 -97q-71 -45 -162 -45q-47 0 -96 28q-44 23 -79 62q-28 31 -28 40q0 12 8 15t32 3q16 0 46 -1t45 -1q0 95 -19 177q-12 60 -33 102l87 76q11 10 16 10q3 0 11 -16l51 -114q3 -8 5 -17q0 -4 -6 -4q-8 0 -25 6q3 -19 3 -36q0 -74 -28 -146
q121 135 206 135q40 0 62 -29q19 -23 19 -57zM590 1302q0 17 -12 27.5t-32 10.5q-47 0 -117 -69q10 -1 30 -1q35 0 72 5q59 9 59 27z" />
    <glyph glyph-name="uniFB89" unicode="&#x688;" horiz-adv-x="1002" arabic-form="final" 
d="M1025 0h-72q-162 0 -268 212q-64 -124 -132 -178q-78 -63 -188 -63q-258 0 -260 305v5q0 56 19 133q24 103 67 103q49 0 63 -47q22 -73 31 -85q34 -47 124 -49h8q44 0 109 19q71 21 75 54l-4 8l-139 339l188 191q7 8 21 11q6 0 12 -20l159 -436q42 -116 124 -116h63v-386
zM846 1327v-3q0 -38 -27 -88q-33 -60 -87 -96q-71 -45 -162 -45q-47 0 -96 27q-44 24 -79 62q-28 31 -28 40q0 12 8 15.5t32 3.5q16 0 46 -1t45 -1q0 95 -19 177q-12 60 -33 102l87 76q11 9 16 9q3 0 11 -15l51 -114q3 -8 5 -17q0 -4 -7 -4q-8 0 -24 5q3 -18 3 -35
q0 -74 -28 -146q121 135 205 135q40 0 63 -29q18 -23 18 -58zM745 1275q0 17 -12 27.5t-32 10.5q-47 0 -117 -69q10 -1 30 -1q35 0 72 5q59 8 59 27z" />
    <glyph glyph-name="uniFB8A" unicode="&#x698;" horiz-adv-x="759" arabic-form="isolated" 
d="M757 71v-7q0 -308 -166 -485q-21 -20 -53 -20h-397q-69 0 -69 56q0 35 31 49q107 49 274 165q212 145 214 208v1q0 51 -193 225l139 280q5 13 13 13q7 0 16 -8q112 -95 154 -214q35 -100 37 -263zM275 833q-4 4 -4 9t6 11l98 100q8 5 12 5q6 0 11 -5l99 -98l96 98
q5 5 10 5t10 -5l100 -100q6 -4 6 -9q0 -6 -7 -13l-93 -97q-5 -6 -12 -6q-6 0 -13 6l-97 97l-94 -97q-5 -6 -11 -6q-7 0 -15 6zM384 1026q-5 4 -5 9q0 6 6 12l99 96q7 7 11 7q5 0 8 -7l104 -94q3 -4 3 -9q0 -8 -9 -17l-93 -96q-4 -5 -10 -5q-5 0 -12 5z" />
    <glyph glyph-name="uniFB8B" unicode="&#x698;" horiz-adv-x="828" arabic-form="final" 
d="M851 0h-49q-29 0 -61 20v-73q0 -89 -54 -205t-96 -163q-21 -20 -53 -20h-397q-69 0 -69 56q0 35 31 49q107 49 274 165q212 145 214 208v1q0 51 -193 225l139 280q5 15 13 15q7 0 16 -10q103 -105 147 -134q53 -28 105 -28h33v-386zM275 833q-4 4 -4 9t6 11l98 100
q8 5 12 5q6 0 11 -5l99 -98l96 98q5 5 10 5t10 -5l100 -100q6 -4 6 -9q0 -6 -7 -13l-93 -97q-5 -6 -12 -6q-6 0 -13 6l-97 97l-94 -97q-5 -6 -11 -6q-7 0 -15 6zM384 1026q-5 4 -5 9q0 6 6 12l99 96q7 7 11 7q5 0 8 -7l104 -94q3 -4 3 -9q0 -8 -9 -17l-93 -96q-4 -5 -10 -5
q-5 0 -12 5z" />
    </font>
</defs>
</svg>
