<?xml version="1.0" standalone="no"?>
<!DOCTYPE svg PUBLIC "-//W3C//DTD SVG 1.1//EN" "http://www.w3.org/Graphics/SVG/1.1/DTD/svg11.dtd" >
<svg xmlns="http://www.w3.org/2000/svg" xmlns:xlink="http://www.w3.org/1999/xlink" version="1.1">
<metadata>
Created by FontForge 20170731 at Thu Oct 20 14:36:32 2016
 By Aleksey,,,
(c)  2013 Bahij Virtual Academy. All rights reserved.
</metadata>
<defs>
<font id="BahijMuna-Regular" horiz-adv-x="0" >
  <font-face 
    font-family="Bahij Muna"
    font-weight="400"
    font-stretch="normal"
    units-per-em="2048"
    panose-1="2 4 5 3 5 2 1 2 2 3"
    ascent="1638"
    descent="-410"
    x-height="638"
    cap-height="951"
    bbox="-267 -1121 3782 1792"
    underline-thickness="50"
    underline-position="-150"
    unicode-range="U+0020-FEFC"
  />
<missing-glyph horiz-adv-x="728" 
d="M0 0v1020h728v-1020h-728zM117 947l247 -372l248 372h-495zM655 881l-247 -371l247 -372v743zM612 73l-248 371l-247 -371h495zM73 138l247 372l-247 371v-743z" />
    <glyph glyph-name="uniFB01" unicode="fi" horiz-adv-x="811" 
d="M462 0v39q61 7 75 24q15 17 15 84v348q0 54 -11 67q-13 15 -68 15h-195v-430q0 -66 18 -84q17 -17 86 -24v-39h-337v39q70 8 87 25q18 17 18 83v430h-108l-7 17l42 44h73v36q0 62 20 120q39 101 123 166q94 73 189 80q109 -4 162 -71q19 -28 7 -59q-13 -26 -35 -36
q-27 -18 -45 1q-75 94 -157 94q-60 0 -92 -57q-44 -67 -44 -222v-52h123q188 0 281 19v-510q0 -68 16 -84q16 -17 87 -24v-39h-323z" />
    <glyph glyph-name="uniFB02" unicode="fl" horiz-adv-x="808" 
d="M460 0v39q62 7 77 24t15 84v756q-44 70 -132 70q-60 0 -97 -50q-45 -60 -45 -201v-84h172q6 -11 1 -32q-4 -22 -17 -29h-156v-431q0 -67 16 -83q15 -17 83 -24v-39h-332v39q72 8 88 24q17 17 17 83v431h-106l-6 19l41 42h71v26q0 79 20 136q38 98 123 166q81 63 176 74
q75 0 128 -33q23 5 72 30l13 -9v-881q0 -67 17 -84q17 -16 89 -24v-39h-328z" />
    <glyph glyph-name="uniFC31" unicode="&#xfed3;&#xfef0;" horiz-adv-x="1545" arabic-form="isolated" 
d="M1323 358q-59 117 -110 117q-15 0 -59 -33.5t-44 -54.5q0 -18 47 -37q39 -14 56 -14q47 0 110 22zM1139 741q-8 -14 -27.5 -49t-27.5 -53l-133 84q36 61 55 94q45 -20 133 -76zM936 0q-31 -63 -70 -143q-59 -102 -152.5 -143t-165.5 -50q-60 -8 -127 -8h-28
q-123 0 -205 55q-98 66 -98 193q0 92 63 225q60 127 130 186h10q-39 -77 -76 -153q-53 -111 -53 -168q0 -107 96 -160q76 -41 192 -41q271 0 363 92q-4 88 -107 109q-77 10 -155 22q49 103 67 103h767q2 8 2 24q0 35 -16.5 100.5t-30.5 75.5q-78 -110 -183 -110
q-40 0 -86 22q-57 29 -57 72q0 64 97.5 173.5t170.5 109.5q76 0 131 -166q43 -129 43 -203q0 -33 -16 -113q-22 -104 -51 -104h-455z" />
    <glyph glyph-name="uniFC32" unicode="&#xfed3;&#xfef2;" horiz-adv-x="1545" arabic-form="isolated" 
d="M643 -537q0 -6 -19 -34q-22 -35 -28 -45q-35 14 -119 65q-2 -2 -37 -61q-43 22 -133 71q12 29 55 97l127 -78q12 22 37 65l117 -65v-15zM1323 358q-59 117 -110 117q-15 0 -59 -33.5t-44 -54.5q0 -18 47 -37q39 -14 56 -14q47 0 110 22zM1139 741q-8 -14 -27.5 -49
t-27.5 -53l-133 84q36 61 55 94q45 -20 133 -76zM936 0q-31 -63 -70 -143q-59 -102 -152.5 -143t-165.5 -50q-60 -8 -127 -8h-28q-123 0 -205 55q-98 66 -98 193q0 92 63 225q60 127 130 186h10q-39 -77 -76 -153q-53 -111 -53 -168q0 -107 96 -160q76 -41 192 -41
q271 0 363 92q-4 88 -107 109q-77 10 -155 22q49 103 67 103h767q2 8 2 24q0 35 -16.5 100.5t-30.5 75.5q-78 -110 -183 -110q-40 0 -86 22q-57 29 -57 72q0 64 97.5 173.5t170.5 109.5q76 0 131 -166q43 -129 43 -203q0 -33 -16 -113q-22 -104 -51 -104h-455z" />
    <glyph glyph-name="uniFC43" unicode="&#xfedf;&#xfef0;" horiz-adv-x="1320" arabic-form="isolated" 
d="M936 0q-31 -63 -70 -143q-59 -102 -152.5 -143t-165.5 -50q-60 -8 -127 -8h-28q-123 0 -205 55q-98 66 -98 193q0 92 63 225q60 127 130 186h10q-39 -77 -76 -153q-53 -111 -53 -168q0 -107 96 -160q76 -41 192 -41q271 0 363 92q-4 88 -107 109q-77 10 -155 22
q49 103 67 103h520q6 18 6 45q0 18 -12 117q-7 59 -13 94q-12 102 -41 291q-10 8 -26 28q-6 6 -6 23q0 18 6 28q22 48 76 132h20q1 -4 1 -11t-1 -16l-4 -21q0 -16 14 -24q33 -19 97 -51q-33 -74 -70 -140l-8 7l37 -396q0 -28 -7.5 -68t-20.5 -86t-24 -71h-228z" />
    <glyph glyph-name="uniFC44" unicode="&#xfedf;&#xfef2;" horiz-adv-x="1320" arabic-form="isolated" 
d="M643 -537q0 -6 -19 -34q-22 -35 -28 -45q-35 14 -119 65q-2 -2 -37 -61q-43 22 -133 71q12 29 55 97l127 -78q12 22 37 65l117 -65v-15zM936 0q-31 -63 -70 -143q-59 -102 -152.5 -143t-165.5 -50q-60 -8 -127 -8h-28q-123 0 -205 55q-98 66 -98 193q0 92 63 225
q60 127 130 186h10q-39 -77 -76 -153q-53 -111 -53 -168q0 -107 96 -160q76 -41 192 -41q271 0 363 92q-4 88 -107 109q-77 10 -155 22q49 103 67 103h520q6 18 6 45q0 18 -12 117q-7 59 -13 94q-12 102 -41 291q-10 8 -26 28q-6 6 -6 23q0 18 6 28q22 48 76 132h20
q1 -4 1 -11t-1 -16l-4 -21q0 -16 14 -24q33 -19 97 -51q-33 -74 -70 -140l-8 7l37 -396q0 -28 -7.5 -68t-20.5 -86t-24 -71h-228z" />
    <glyph glyph-name="uniFC64" unicode="&#xfe8c;&#xfeae;" horiz-adv-x="1183" arabic-form="final" 
d="M1124 689q-12 -24 -35 -51h-7q-80 0 -228 -86v15q0 13 92 71q-41 6 -101 33q-6 6 -6 20q0 55 53.5 99.5t106.5 44.5q29 0 39 -7q2 0 14 -12q0 -22 -18 -57q0 1 -19 12q-22 12 -39 12q-24 0 -53 -10q-37 -16 -37 -39q0 -4 2 -6q21 -16 35 -18q62 -13 201 -21zM720 0
q-39 1 -67 19q-30 18 -40 30q-9 -49 -34.5 -116.5t-63.5 -122.5q-63 -101 -148 -142q-36 -16 -65 -16q-27 0 -79 13q-43 11 -101 34q-74 28 -117 67q-2 6 -2 10q0 13 14 15q4 0 60.5 -22.5t85.5 -30.5q18 -5 32 -5q52 0 134 54q51 33 116 103q14 15 26 29q85 109 85 159
q0 16 -57 92q-52 66 -66 78l68 121q49 -72 98 -146q65 -86 129 -104h319v137q0 18 6 27q31 47 109 123v-56l-33 -215q10 -16 37 -16h35v-119h-103q-20 0 -36 25q-7 14 -25 45q-10 -13 -49 -70h-268z" />
    <glyph glyph-name="uniFC67" unicode="&#xfe8c;&#xfee6;" horiz-adv-x="1423" arabic-form="final" 
d="M548 561q-15 -33 -64 -108l-156 90l66 108zM1364 689q-12 -24 -35 -51h-7q-80 0 -228 -86v15q0 13 92 71q-41 6 -101 33q-6 6 -6 20q0 55 53.5 99.5t106.5 44.5q29 0 39 -7q2 0 14 -12q0 -22 -18 -57q0 1 -19 12q-22 12 -39 12q-24 0 -53 -10q-37 -16 -37 -39q0 -4 2 -6
q21 -16 35 -18q62 -13 201 -21zM914 0q-10 -29 -25.5 -90.5t-73.5 -127t-124 -97.5q-92 -47 -183 -60q-57 -9 -108 -9q-32 0 -63 4q-79 8 -153 54q-88 64 -88 187q-1 9 -1 18q0 57 22 130q12 41 19 59t33 70q26 50 59 78q4 4 8 7q5 3 7 3q1 0 3 -1q1 -1 1 -3v-1q0 -2 -1 -4
q-80 -174 -80 -252v-4q0 -109 82 -166q69 -47 167 -47l29 1q90 5 213 47q169 63 169 155q0 65 -53 174q-48 99 -53 101q3 13 67 143q45 -54 70 -123q37 -105 94 -127h336v137q0 18 6 27q31 47 109 123v-56l-33 -215q10 -16 37 -16h35v-119h-103q-20 0 -36 25q-7 14 -25 45
q-10 -13 -49 -70h-314z" />
    <glyph glyph-name="uniFC6A" unicode="&#xfe92;&#xfeae;" horiz-adv-x="1183" arabic-form="final" 
d="M720 0q-39 1 -67 19q-30 18 -40 30q-9 -49 -34.5 -116.5t-63.5 -122.5q-63 -101 -148 -142q-36 -16 -65 -16q-27 0 -79 13q-43 11 -101 34q-74 28 -117 67q-2 6 -2 10q0 13 14 15q4 0 60.5 -22.5t85.5 -30.5q18 -5 32 -5q52 0 134 54q51 33 116 103q14 15 26 29
q85 109 85 159q0 16 -57 92q-52 66 -66 78l68 121q49 -72 98 -146q65 -86 129 -104h319v137q0 18 6 27q31 47 109 123v-56l-33 -215q10 -16 37 -16h35v-119h-103q-20 0 -36 25q-7 14 -25 45q-10 -13 -49 -70h-268zM1019 -227q-6 -15 -59 -103l-134 84q35 60 56 94
q0 -2 137 -75z" />
    <glyph glyph-name="uniFC70" unicode="&#xfe98;&#xfeae;" horiz-adv-x="1183" arabic-form="final" 
d="M720 0q-39 1 -67 19q-30 18 -40 30q-9 -49 -34.5 -116.5t-63.5 -122.5q-63 -101 -148 -142q-36 -16 -65 -16q-27 0 -79 13q-43 11 -101 34q-74 28 -117 67q-2 6 -2 10q0 13 14 15q4 0 60.5 -22.5t85.5 -30.5q18 -5 32 -5q52 0 134 54q51 33 116 103q14 15 26 29
q85 109 85 159q0 16 -57 92q-52 66 -66 78l68 121q49 -72 98 -146q65 -86 129 -104h319v137q0 18 6 27q31 47 109 123v-56l-33 -215q10 -16 37 -16h35v-119h-103q-20 0 -36 25q-7 14 -25 45q-10 -13 -49 -70h-268zM1148 623q-15 -31 -56 -99q-26 15 -127 74q-26 -29 -45 -70
l-143 80q29 49 59 101l127 -78q13 20 45 69z" />
    <glyph glyph-name="uniFC86" unicode="&#xfee0;&#xfef0;" horiz-adv-x="1231" arabic-form="final" 
d="M936 0q-31 -63 -70 -143q-59 -102 -152.5 -143t-165.5 -50q-60 -8 -127 -8h-28q-123 0 -205 55q-98 66 -98 193q0 92 63 225q60 127 130 186h10q-39 -77 -76 -153q-53 -111 -53 -168q0 -107 96 -160q76 -41 192 -41q271 0 363 92q-4 88 -107 109q-77 10 -155 22
q49 103 67 103h502l-86 649l105 127q8 -88 13 -159.5t15 -221.5q4 -37 8 -111q5 -92 23 -284h49v-119h-115l-6 60q-30 -60 -59 -60h-133z" />
    <glyph glyph-name="uniFC87" unicode="&#xfee0;&#xfef2;" horiz-adv-x="1231" arabic-form="final" 
d="M643 -537q0 -6 -19 -34q-22 -35 -28 -45q-35 14 -119 65q-2 -2 -37 -61q-43 22 -133 71q12 29 55 97l127 -78q12 22 37 65l117 -65v-15zM936 0q-31 -63 -70 -143q-59 -102 -152.5 -143t-165.5 -50q-60 -8 -127 -8h-28q-123 0 -205 55q-98 66 -98 193q0 92 63 225
q60 127 130 186h10q-39 -77 -76 -153q-53 -111 -53 -168q0 -107 96 -160q76 -41 192 -41q271 0 363 92q-4 88 -107 109q-77 10 -155 22q49 103 67 103h502l-86 649l105 127q8 -88 13 -159.5t15 -221.5q4 -37 8 -111q5 -92 23 -284h49v-119h-115l-6 60q-30 -60 -59 -60h-133z
" />
    <glyph glyph-name="uniFCCC" unicode="&#xfedf;&#xfee4;" horiz-adv-x="583" arabic-form="initial" 
d="M517 37q0 -21 -18.5 -55.5t-36.5 -67.5q-109 139 -170 139q-4 0 -87 -26.5t-87 -26.5h-158v119h162q24 0 72 16q61 21 61 47q0 2 -5 46t-7 69q-2 35 -9 94q-8 92 -26 275q-10 8 -29 24q-6 6 -6 23q0 14 36 80.5t56 80.5q13 -3 13 -18q0 -3 -1 -6q-6 -37 -6 -39
q17 -12 115 -66l-70 -139h-6q-1 -9 -1 -23q0 -26 3 -69l4 -64v-112q0 -66 11 -107q6 -30 98 -87.5t92 -106.5z" />
    <glyph glyph-name="uniFCFB" unicode="&#xfeb3;&#xfef0;" horiz-adv-x="1859" arabic-form="isolated" 
d="M936 0q-31 -63 -70 -143q-59 -102 -152.5 -143t-165.5 -50q-60 -8 -127 -8h-28q-123 0 -205 55q-98 66 -98 193q0 92 63 225q60 127 130 186h10q-39 -77 -76 -153q-53 -111 -53 -168q0 -107 96 -160q76 -41 192 -41q271 0 363 92q-4 88 -107 109q-77 10 -155 22
q49 103 67 103h516q39 0 43 59q2 31 2 64q51 55 111 112q-4 -53 -11 -104q-10 -80 -38 -115q7 -12 36 -16q54 -4 91 -4t94 4q0 28 5 88q9 29 114 125l-45 -213q25 -1 38.5 -2t44.5 -1t44.5 1t34.5 2q2 4 2 12q0 19 -12 60l-13 42q0 11 48 64q24 29 51 55v-212
q0 -61 -47 -140q-17 0 -59 -4t-46 -4q-69 0 -109 18l-40 19q-38 -28 -58 -30q-27 -4 -60 -4q-36 0 -94.5 3t-93.5 43q-28 -41 -80 -41h-153z" />
    <glyph glyph-name="uniFCFC" unicode="&#xfeb3;&#xfef2;" horiz-adv-x="1859" arabic-form="isolated" 
d="M643 -537q0 -6 -19 -34q-22 -35 -28 -45q-35 14 -119 65q-2 -2 -37 -61q-43 22 -133 71q12 29 55 97l127 -78q12 22 37 65l117 -65v-15zM936 0q-31 -63 -70 -143q-59 -102 -152.5 -143t-165.5 -50q-60 -8 -127 -8h-28q-123 0 -205 55q-98 66 -98 193q0 92 63 225
q60 127 130 186h10q-39 -77 -76 -153q-53 -111 -53 -168q0 -107 96 -160q76 -41 192 -41q271 0 363 92q-4 88 -107 109q-77 10 -155 22q49 103 67 103h516q39 0 43 59q2 31 2 64q51 55 111 112q-4 -53 -11 -104q-10 -80 -38 -115q7 -12 36 -16q54 -4 91 -4t94 4q0 28 5 88
q9 29 114 125l-45 -213q25 -1 38.5 -2t44.5 -1t44.5 1t34.5 2q2 4 2 12q0 19 -12 60l-13 42q0 11 48 64q24 29 51 55v-212q0 -61 -47 -140q-17 0 -59 -4t-46 -4q-69 0 -109 18l-40 19q-38 -28 -58 -30q-27 -4 -60 -4q-36 0 -94.5 3t-93.5 43q-28 -41 -80 -41h-153z" />
    <glyph glyph-name="uniFCFD" unicode="&#xfeb7;&#xfef0;" horiz-adv-x="1859" arabic-form="isolated" 
d="M936 0q-31 -63 -70 -143q-59 -102 -152.5 -143t-165.5 -50q-60 -8 -127 -8h-28q-123 0 -205 55q-98 66 -98 193q0 92 63 225q60 127 130 186h10q-39 -77 -76 -153q-53 -111 -53 -168q0 -107 96 -160q76 -41 192 -41q271 0 363 92q-4 88 -107 109q-77 10 -155 22
q49 103 67 103h516q39 0 43 59q2 31 2 64q51 55 111 112q-4 -53 -11 -104q-10 -80 -38 -115q7 -12 36 -16q54 -4 91 -4t94 4q0 28 5 88q9 29 114 125l-45 -213q25 -1 38.5 -2t44.5 -1t44.5 1t34.5 2q2 4 2 12q0 19 -12 60l-13 42q0 11 48 64q24 29 51 55v-212
q0 -61 -47 -140q-17 0 -59 -4t-46 -4q-69 0 -109 18l-40 19q-38 -28 -58 -30q-27 -4 -60 -4q-36 0 -94.5 3t-93.5 43q-28 -41 -80 -41h-153zM1609 569q-17 -30 -52 -98q-43 25 -131 74q-4 -4 -41 -66q-24 13 -141 76q2 6 53 104q54 -26 138 -81q12 6 24 30q17 35 21 39z
M1473 778l-55 -104l-137 78q8 14 24.5 46.5t24.5 47.5z" />
    <glyph glyph-name="uniFCFE" unicode="&#xfeb7;&#xfef2;" horiz-adv-x="1859" arabic-form="isolated" 
d="M643 -537q0 -6 -19 -34q-22 -35 -28 -45q-35 14 -119 65q-2 -2 -37 -61q-43 22 -133 71q12 29 55 97l127 -78q12 22 37 65l117 -65v-15zM936 0q-31 -63 -70 -143q-59 -102 -152.5 -143t-165.5 -50q-60 -8 -127 -8h-28q-123 0 -205 55q-98 66 -98 193q0 92 63 225
q60 127 130 186h10q-39 -77 -76 -153q-53 -111 -53 -168q0 -107 96 -160q76 -41 192 -41q271 0 363 92q-4 88 -107 109q-77 10 -155 22q49 103 67 103h516q39 0 43 59q2 31 2 64q51 55 111 112q-4 -53 -11 -104q-10 -80 -38 -115q7 -12 36 -16q54 -4 91 -4t94 4q0 28 5 88
q9 29 114 125l-45 -213q25 -1 38.5 -2t44.5 -1t44.5 1t34.5 2q2 4 2 12q0 19 -12 60l-13 42q0 11 48 64q24 29 51 55v-212q0 -61 -47 -140q-17 0 -59 -4t-46 -4q-69 0 -109 18l-40 19q-38 -28 -58 -30q-27 -4 -60 -4q-36 0 -94.5 3t-93.5 43q-28 -41 -80 -41h-153zM1609 569
q-17 -30 -52 -98q-43 25 -131 74q-4 -4 -41 -66q-24 13 -141 76q2 6 53 104q54 -26 138 -81q12 6 24 30q17 35 21 39zM1473 778l-55 -104l-137 78q8 14 24.5 46.5t24.5 47.5z" />
    <glyph glyph-name="uniFD05" unicode="&#xfebb;&#xfef0;" horiz-adv-x="2123" arabic-form="isolated" 
d="M1821 276q-28 11 -57 11h-5q-41 0 -74 -15q-41 -16 -130 -80.5t-118 -72.5h465q19 0 43 16q1 3 1 7q0 33 -54 84q-42 39 -71 50zM936 0q-31 -63 -70 -143q-59 -102 -152.5 -143t-165.5 -50q-60 -8 -127 -8h-28q-123 0 -205 55q-98 66 -98 193q0 92 63 225q60 127 130 186
h10q-39 -77 -76 -153q-53 -111 -53 -168q0 -107 96 -160q76 -41 192 -41q271 0 363 92q-4 88 -107 109q-77 10 -155 22q49 103 67 103h486q39 0 43 59q2 31 2 64q51 55 111 112q-4 -53 -11 -104q-10 -80 -38 -115q7 -12 36 -16h39q16 0 41 12q16 8 30 16q27 13 86 50
q6 4 164 114q101 72 154 88q43 15 63 15q58 0 137.5 -72t79.5 -135q0 -25 -24 -72q-19 -35 -58 -106q-18 -29 -43 -29h-578l-104 1q-73 0 -97 40q-28 -41 -80 -41h-123z" />
    <glyph glyph-name="uniFD06" unicode="&#xfebb;&#xfef2;" horiz-adv-x="2123" arabic-form="isolated" 
d="M643 -537q0 -6 -19 -34q-22 -35 -28 -45q-35 14 -119 65q-2 -2 -37 -61q-43 22 -133 71q12 29 55 97l127 -78q12 22 37 65l117 -65v-15zM1821 276q-28 11 -57 11h-5q-41 0 -74 -15q-41 -16 -130 -80.5t-118 -72.5h465q19 0 43 16q1 3 1 7q0 33 -54 84q-42 39 -71 50z
M936 0q-31 -63 -70 -143q-59 -102 -152.5 -143t-165.5 -50q-60 -8 -127 -8h-28q-123 0 -205 55q-98 66 -98 193q0 92 63 225q60 127 130 186h10q-39 -77 -76 -153q-53 -111 -53 -168q0 -107 96 -160q76 -41 192 -41q271 0 363 92q-4 88 -107 109q-77 10 -155 22
q49 103 67 103h486q39 0 43 59q2 31 2 64q51 55 111 112q-4 -53 -11 -104q-10 -80 -38 -115q7 -12 36 -16h39q16 0 41 12q16 8 30 16q27 13 86 50q6 4 164 114q101 72 154 88q43 15 63 15q58 0 137.5 -72t79.5 -135q0 -25 -24 -72q-19 -35 -58 -106q-18 -29 -43 -29h-578
l-104 1q-73 0 -97 40q-28 -41 -80 -41h-123z" />
    <glyph glyph-name="uniFD07" unicode="&#xfebf;&#xfef0;" horiz-adv-x="2123" arabic-form="isolated" 
d="M1821 276q-28 11 -57 11h-5q-41 0 -74 -15q-41 -16 -130 -80.5t-118 -72.5h465q19 0 43 16q1 3 1 7q0 33 -54 84q-42 39 -71 50zM936 0q-31 -63 -70 -143q-59 -102 -152.5 -143t-165.5 -50q-60 -8 -127 -8h-28q-123 0 -205 55q-98 66 -98 193q0 92 63 225q60 127 130 186
h10q-39 -77 -76 -153q-53 -111 -53 -168q0 -107 96 -160q76 -41 192 -41q271 0 363 92q-4 88 -107 109q-77 10 -155 22q49 103 67 103h486q39 0 43 59q2 31 2 64q51 55 111 112q-4 -53 -11 -104q-10 -80 -38 -115q7 -12 36 -16h39q16 0 41 12q16 8 30 16q27 13 86 50
q6 4 164 114q101 72 154 88q43 15 63 15q58 0 137.5 -72t79.5 -135q0 -25 -24 -72q-19 -35 -58 -106q-18 -29 -43 -29h-578l-104 1q-73 0 -97 40q-28 -41 -80 -41h-123zM1630 653q-35 -67 -56 -102l-137 80q16 37 61 102z" />
    <glyph glyph-name="uniFD08" unicode="&#xfebf;&#xfef2;" horiz-adv-x="2123" arabic-form="isolated" 
d="M643 -537q0 -6 -19 -34q-22 -35 -28 -45q-35 14 -119 65q-2 -2 -37 -61q-43 22 -133 71q12 29 55 97l127 -78q12 22 37 65l117 -65v-15zM1821 276q-28 11 -57 11h-5q-41 0 -74 -15q-41 -16 -130 -80.5t-118 -72.5h465q19 0 43 16q1 3 1 7q0 33 -54 84q-42 39 -71 50z
M936 0q-31 -63 -70 -143q-59 -102 -152.5 -143t-165.5 -50q-60 -8 -127 -8h-28q-123 0 -205 55q-98 66 -98 193q0 92 63 225q60 127 130 186h10q-39 -77 -76 -153q-53 -111 -53 -168q0 -107 96 -160q76 -41 192 -41q271 0 363 92q-4 88 -107 109q-77 10 -155 22
q49 103 67 103h486q39 0 43 59q2 31 2 64q51 55 111 112q-4 -53 -11 -104q-10 -80 -38 -115q7 -12 36 -16h39q16 0 41 12q16 8 30 16q27 13 86 50q6 4 164 114q101 72 154 88q43 15 63 15q58 0 137.5 -72t79.5 -135q0 -25 -24 -72q-19 -35 -58 -106q-18 -29 -43 -29h-578
l-104 1q-73 0 -97 40q-28 -41 -80 -41h-123zM1630 653q-35 -67 -56 -102l-137 80q16 37 61 102z" />
    <glyph glyph-name="uniFD0D" unicode="&#xfeb7;&#xfeae;" horiz-adv-x="1699" arabic-form="isolated" 
d="M720 0q-39 1 -67 19q-30 18 -40 30q-9 -49 -34.5 -116.5t-63.5 -122.5q-63 -101 -148 -142q-36 -16 -65 -16q-27 0 -79 13q-43 11 -101 34q-74 28 -117 67q-2 6 -2 10q0 13 14 15q4 0 60.5 -22.5t85.5 -30.5q18 -5 32 -5q52 0 134 54q51 33 116 103q14 15 26 29
q85 109 85 159q0 16 -57 92q-52 66 -66 78l68 121q49 -72 98 -146q65 -86 129 -104h248q39 0 43 59q2 31 2 64q51 55 111 112q-4 -53 -11 -104q-10 -80 -38 -115q7 -12 36 -16q54 -4 91 -4t94 4q0 28 5 88q9 29 114 125l-45 -213q25 -1 38.5 -2t44.5 -1t44.5 1t34.5 2
q2 4 2 12q0 19 -12 60l-13 42q0 11 48 64q24 29 51 55v-212q0 -61 -47 -140q-17 0 -59 -4t-46 -4q-69 0 -109 18l-40 19q-38 -28 -58 -30q-27 -4 -60 -4q-36 0 -94.5 3t-93.5 43q-28 -41 -80 -41h-209zM1449 569q-17 -30 -52 -98q-43 25 -131 74q-4 -4 -41 -66
q-24 13 -141 76q2 6 53 104q54 -26 138 -81q12 6 24 30q17 35 21 39zM1313 778l-55 -104l-137 78q8 14 24.5 46.5t24.5 47.5z" />
    <glyph glyph-name="uniFD0E" unicode="&#xfeb3;&#xfeae;" horiz-adv-x="1699" arabic-form="isolated" 
d="M720 0q-39 1 -67 19q-30 18 -40 30q-9 -49 -34.5 -116.5t-63.5 -122.5q-63 -101 -148 -142q-36 -16 -65 -16q-27 0 -79 13q-43 11 -101 34q-74 28 -117 67q-2 6 -2 10q0 13 14 15q4 0 60.5 -22.5t85.5 -30.5q18 -5 32 -5q52 0 134 54q51 33 116 103q14 15 26 29
q85 109 85 159q0 16 -57 92q-52 66 -66 78l68 121q49 -72 98 -146q65 -86 129 -104h248q39 0 43 59q2 31 2 64q51 55 111 112q-4 -53 -11 -104q-10 -80 -38 -115q7 -12 36 -16q54 -4 91 -4t94 4q0 28 5 88q9 29 114 125l-45 -213q25 -1 38.5 -2t44.5 -1t44.5 1t34.5 2
q2 4 2 12q0 19 -12 60l-13 42q0 11 48 64q24 29 51 55v-212q0 -61 -47 -140q-17 0 -59 -4t-46 -4q-69 0 -109 18l-40 19q-38 -28 -58 -30q-27 -4 -60 -4q-36 0 -94.5 3t-93.5 43q-28 -41 -80 -41h-209z" />
    <glyph glyph-name="uniFD0F" unicode="&#xfebb;&#xfeae;" horiz-adv-x="1993" arabic-form="isolated" 
d="M1691 276q-28 11 -57 11h-5q-41 0 -74 -15q-41 -16 -130 -80.5t-118 -72.5h465q19 0 43 16q1 3 1 7q0 33 -54 84q-42 39 -71 50zM720 0q-39 1 -67 19q-30 18 -40 30q-9 -49 -34.5 -116.5t-63.5 -122.5q-63 -101 -148 -142q-36 -16 -65 -16q-27 0 -79 13q-43 11 -101 34
q-74 28 -117 67q-2 6 -2 10q0 13 14 15q4 0 60.5 -22.5t85.5 -30.5q18 -5 32 -5q52 0 134 54q51 33 116 103q14 15 26 29q85 109 85 159q0 16 -57 92q-52 66 -66 78l68 121q49 -72 98 -146q65 -86 129 -104h248q39 0 43 59q2 31 2 64q51 55 111 112q-4 -53 -11 -104
q-10 -80 -38 -115q7 -12 36 -16h39q16 0 41 12q16 8 30 16q27 13 86 50q6 4 164 114q101 72 154 88q43 15 63 15q58 0 137.5 -72t79.5 -135q0 -25 -24 -72q-19 -35 -58 -106q-18 -29 -43 -29h-578l-104 1q-73 0 -97 40q-28 -41 -80 -41h-209z" />
    <glyph glyph-name="uniFD10" unicode="&#xfebf;&#xfeae;" horiz-adv-x="1993" arabic-form="isolated" 
d="M1691 276q-28 11 -57 11h-5q-41 0 -74 -15q-41 -16 -130 -80.5t-118 -72.5h465q19 0 43 16q1 3 1 7q0 33 -54 84q-42 39 -71 50zM720 0q-39 1 -67 19q-30 18 -40 30q-9 -49 -34.5 -116.5t-63.5 -122.5q-63 -101 -148 -142q-36 -16 -65 -16q-27 0 -79 13q-43 11 -101 34
q-74 28 -117 67q-2 6 -2 10q0 13 14 15q4 0 60.5 -22.5t85.5 -30.5q18 -5 32 -5q52 0 134 54q51 33 116 103q14 15 26 29q85 109 85 159q0 16 -57 92q-52 66 -66 78l68 121q49 -72 98 -146q65 -86 129 -104h248q39 0 43 59q2 31 2 64q51 55 111 112q-4 -53 -11 -104
q-10 -80 -38 -115q7 -12 36 -16h39q16 0 41 12q16 8 30 16q27 13 86 50q6 4 164 114q101 72 154 88q43 15 63 15q58 0 137.5 -72t79.5 -135q0 -25 -24 -72q-19 -35 -58 -106q-18 -29 -43 -29h-578l-104 1q-73 0 -97 40q-28 -41 -80 -41h-209zM1500 653q-35 -67 -56 -102
l-137 80q16 37 61 102z" />
    <glyph glyph-name="uniFD17" unicode="&#xfeb4;&#xfef0;" horiz-adv-x="1775" arabic-form="final" 
d="M936 0q-31 -63 -70 -143q-59 -102 -152.5 -143t-165.5 -50q-60 -8 -127 -8h-28q-123 0 -205 55q-98 66 -98 193q0 92 63 225q60 127 130 186h10q-39 -77 -76 -153q-53 -111 -53 -168q0 -107 96 -160q76 -41 192 -41q271 0 363 92q-4 88 -107 109q-77 10 -155 22
q49 103 67 103h496q39 0 43 59q2 31 2 64q51 55 111 112q-4 -53 -11 -104q-10 -80 -38 -115q7 -12 36 -16q54 -4 91 -4t94 4q0 28 5 88q9 29 114 125l-45 -213q25 -1 38.5 -2t44.5 -1t45 1q12 1 32 2h1v7q0 23 -9 67q-10 43 -12 46q4 10 99 113v-178q0 -2 -9 -55h45v-119
h-34q-105 -8 -155 -8q-69 0 -109 18l-40 19q-38 -28 -58 -30q-27 -4 -60 -4q-36 0 -94.5 3t-93.5 43q-28 -41 -80 -41h-133z" />
    <glyph glyph-name="uniFD18" unicode="&#xfeb4;&#xfef2;" horiz-adv-x="1775" arabic-form="final" 
d="M643 -537q0 -6 -19 -34q-22 -35 -28 -45q-35 14 -119 65q-2 -2 -37 -61q-43 22 -133 71q12 29 55 97l127 -78q12 22 37 65l117 -65v-15zM936 0q-31 -63 -70 -143q-59 -102 -152.5 -143t-165.5 -50q-60 -8 -127 -8h-28q-123 0 -205 55q-98 66 -98 193q0 92 63 225
q60 127 130 186h10q-39 -77 -76 -153q-53 -111 -53 -168q0 -107 96 -160q76 -41 192 -41q271 0 363 92q-4 88 -107 109q-77 10 -155 22q49 103 67 103h496q39 0 43 59q2 31 2 64q51 55 111 112q-4 -53 -11 -104q-10 -80 -38 -115q7 -12 36 -16q54 -4 91 -4t94 4q0 28 5 88
q9 29 114 125l-45 -213q25 -1 38.5 -2t44.5 -1t45 1q12 1 32 2h1v7q0 23 -9 67q-10 43 -12 46q4 10 99 113v-178q0 -2 -9 -55h45v-119h-34q-105 -8 -155 -8q-69 0 -109 18l-40 19q-38 -28 -58 -30q-27 -4 -60 -4q-36 0 -94.5 3t-93.5 43q-28 -41 -80 -41h-133z" />
    <glyph glyph-name="uniFD19" unicode="&#xfeb8;&#xfef0;" horiz-adv-x="1775" arabic-form="final" 
d="M1453 778l-55 -104l-137 78q8 14 24.5 46.5t24.5 47.5zM936 0q-31 -63 -70 -143q-59 -102 -152.5 -143t-165.5 -50q-60 -8 -127 -8h-28q-123 0 -205 55q-98 66 -98 193q0 92 63 225q60 127 130 186h10q-39 -77 -76 -153q-53 -111 -53 -168q0 -107 96 -160q76 -41 192 -41
q271 0 363 92q-4 88 -107 109q-77 10 -155 22q49 103 67 103h496q39 0 43 59q2 31 2 64q51 55 111 112q-4 -53 -11 -104q-10 -80 -38 -115q7 -12 36 -16q54 -4 91 -4t94 4q0 28 5 88q9 29 114 125l-45 -213q25 -1 38.5 -2t44.5 -1t45 1q12 1 32 2h1v7q0 23 -9 67
q-10 43 -12 46q4 10 99 113v-178q0 -2 -9 -55h45v-119h-34q-105 -8 -155 -8q-69 0 -109 18l-40 19q-38 -28 -58 -30q-27 -4 -60 -4q-36 0 -94.5 3t-93.5 43q-28 -41 -80 -41h-133zM1589 569q-17 -30 -52 -98q-43 25 -131 74q-4 -4 -41 -66q-24 13 -141 76q2 6 53 104
q54 -26 138 -81q12 6 24 30q17 35 21 39z" />
    <glyph glyph-name="uniFD1A" unicode="&#xfeb8;&#xfef2;" horiz-adv-x="1775" arabic-form="final" 
d="M643 -537q0 -6 -19 -34q-22 -35 -28 -45q-35 14 -119 65q-2 -2 -37 -61q-43 22 -133 71q12 29 55 97l127 -78q12 22 37 65l117 -65v-15zM1453 778l-55 -104l-137 78q8 14 24.5 46.5t24.5 47.5zM936 0q-31 -63 -70 -143q-59 -102 -152.5 -143t-165.5 -50q-60 -8 -127 -8
h-28q-123 0 -205 55q-98 66 -98 193q0 92 63 225q60 127 130 186h10q-39 -77 -76 -153q-53 -111 -53 -168q0 -107 96 -160q76 -41 192 -41q271 0 363 92q-4 88 -107 109q-77 10 -155 22q49 103 67 103h496q39 0 43 59q2 31 2 64q51 55 111 112q-4 -53 -11 -104
q-10 -80 -38 -115q7 -12 36 -16q54 -4 91 -4t94 4q0 28 5 88q9 29 114 125l-45 -213q25 -1 38.5 -2t44.5 -1t45 1q12 1 32 2h1v7q0 23 -9 67q-10 43 -12 46q4 10 99 113v-178q0 -2 -9 -55h45v-119h-34q-105 -8 -155 -8q-69 0 -109 18l-40 19q-38 -28 -58 -30q-27 -4 -60 -4
q-36 0 -94.5 3t-93.5 43q-28 -41 -80 -41h-133zM1589 569q-17 -30 -52 -98q-43 25 -131 74q-4 -4 -41 -66q-24 13 -141 76q2 6 53 104q54 -26 138 -81q12 6 24 30q17 35 21 39z" />
    <glyph glyph-name="uniFD21" unicode="&#xfebc;&#xfef0;" horiz-adv-x="2095" arabic-form="final" 
d="M1831 276q-28 11 -57 11h-5q-41 0 -74 -15q-41 -16 -130 -80.5t-118 -72.5h465q19 0 43 16q1 3 1 7q0 33 -54 84q-42 39 -71 50zM936 0q-31 -63 -70 -143q-59 -102 -152.5 -143t-165.5 -50q-60 -8 -127 -8h-28q-123 0 -205 55q-98 66 -98 193q0 92 63 225q60 127 130 186
h10q-39 -77 -76 -153q-53 -111 -53 -168q0 -107 96 -160q76 -41 192 -41q271 0 363 92q-4 88 -107 109q-77 10 -155 22q49 103 67 103h496q39 0 43 59q2 31 2 64q51 55 111 112q-4 -53 -11 -104q-10 -80 -38 -115q7 -12 36 -16h39q16 0 41 12q16 8 30 16q27 13 86 50
q6 4 164 114q101 72 154 88q43 15 63 15q58 0 137.5 -72t79.5 -135q0 -25 -24 -72q-4 -7 -9 -16h93v-119h-763l-104 1q-73 0 -97 40q-28 -41 -80 -41h-133z" />
    <glyph glyph-name="uniFD22" unicode="&#xfebc;&#xfef2;" horiz-adv-x="2095" arabic-form="final" 
d="M643 -537q0 -6 -19 -34q-22 -35 -28 -45q-35 14 -119 65q-2 -2 -37 -61q-43 22 -133 71q12 29 55 97l127 -78q12 22 37 65l117 -65v-15zM1831 276q-28 11 -57 11h-5q-41 0 -74 -15q-41 -16 -130 -80.5t-118 -72.5h465q19 0 43 16q1 3 1 7q0 33 -54 84q-42 39 -71 50z
M936 0q-31 -63 -70 -143q-59 -102 -152.5 -143t-165.5 -50q-60 -8 -127 -8h-28q-123 0 -205 55q-98 66 -98 193q0 92 63 225q60 127 130 186h10q-39 -77 -76 -153q-53 -111 -53 -168q0 -107 96 -160q76 -41 192 -41q271 0 363 92q-4 88 -107 109q-77 10 -155 22
q49 103 67 103h496q39 0 43 59q2 31 2 64q51 55 111 112q-4 -53 -11 -104q-10 -80 -38 -115q7 -12 36 -16h39q16 0 41 12q16 8 30 16q27 13 86 50q6 4 164 114q101 72 154 88q43 15 63 15q58 0 137.5 -72t79.5 -135q0 -25 -24 -72q-4 -7 -9 -16h93v-119h-763l-104 1
q-73 0 -97 40q-28 -41 -80 -41h-133z" />
    <glyph glyph-name="uniFD23" unicode="&#xfec0;&#xfef0;" horiz-adv-x="2095" arabic-form="final" 
d="M1831 276q-28 11 -57 11h-5q-41 0 -74 -15q-41 -16 -130 -80.5t-118 -72.5h465q19 0 43 16q1 3 1 7q0 33 -54 84q-42 39 -71 50zM936 0q-31 -63 -70 -143q-59 -102 -152.5 -143t-165.5 -50q-60 -8 -127 -8h-28q-123 0 -205 55q-98 66 -98 193q0 92 63 225q60 127 130 186
h10q-39 -77 -76 -153q-53 -111 -53 -168q0 -107 96 -160q76 -41 192 -41q271 0 363 92q-4 88 -107 109q-77 10 -155 22q49 103 67 103h496q39 0 43 59q2 31 2 64q51 55 111 112q-4 -53 -11 -104q-10 -80 -38 -115q7 -12 36 -16h39q16 0 41 12q16 8 30 16q27 13 86 50
q6 4 164 114q101 72 154 88q43 15 63 15q58 0 137.5 -72t79.5 -135q0 -25 -24 -72q-4 -7 -9 -16h93v-119h-763l-104 1q-73 0 -97 40q-28 -41 -80 -41h-133zM1640 653q-35 -67 -56 -102l-137 80q16 37 61 102z" />
    <glyph glyph-name="uniFD24" unicode="&#xfec0;&#xfef2;" horiz-adv-x="2095" arabic-form="final" 
d="M643 -537q0 -6 -19 -34q-22 -35 -28 -45q-35 14 -119 65q-2 -2 -37 -61q-43 22 -133 71q12 29 55 97l127 -78q12 22 37 65l117 -65v-15zM1831 276q-28 11 -57 11h-5q-41 0 -74 -15q-41 -16 -130 -80.5t-118 -72.5h465q19 0 43 16q1 3 1 7q0 33 -54 84q-42 39 -71 50z
M936 0q-31 -63 -70 -143q-59 -102 -152.5 -143t-165.5 -50q-60 -8 -127 -8h-28q-123 0 -205 55q-98 66 -98 193q0 92 63 225q60 127 130 186h10q-39 -77 -76 -153q-53 -111 -53 -168q0 -107 96 -160q76 -41 192 -41q271 0 363 92q-4 88 -107 109q-77 10 -155 22
q49 103 67 103h496q39 0 43 59q2 31 2 64q51 55 111 112q-4 -53 -11 -104q-10 -80 -38 -115q7 -12 36 -16h39q16 0 41 12q16 8 30 16q27 13 86 50q6 4 164 114q101 72 154 88q43 15 63 15q58 0 137.5 -72t79.5 -135q0 -25 -24 -72q-4 -7 -9 -16h93v-119h-763l-104 1
q-73 0 -97 40q-28 -41 -80 -41h-133zM1640 653q-35 -67 -56 -102l-137 80q16 37 61 102z" />
    <glyph glyph-name="uniFD29" unicode="&#xfeb8;&#xfeae;" horiz-adv-x="1635" arabic-form="final" 
d="M1313 778l-55 -104l-137 78q8 14 24.5 46.5t24.5 47.5zM720 0q-39 1 -67 19q-30 18 -40 30q-9 -49 -34.5 -116.5t-63.5 -122.5q-63 -101 -148 -142q-36 -16 -65 -16q-27 0 -79 13q-43 11 -101 34q-74 28 -117 67q-2 6 -2 10q0 13 14 15q4 0 60.5 -22.5t85.5 -30.5
q18 -5 32 -5q52 0 134 54q51 33 116 103q14 15 26 29q85 109 85 159q0 16 -57 92q-52 66 -66 78l68 121q49 -72 98 -146q65 -86 129 -104h248q39 0 43 59q2 31 2 64q51 55 111 112q-4 -53 -11 -104q-10 -80 -38 -115q7 -12 36 -16q54 -4 91 -4t94 4q0 28 5 88q9 29 114 125
l-45 -213q25 -1 38.5 -2t44.5 -1t45 1q12 1 32 2h1v7q0 23 -9 67q-10 43 -12 46q4 10 99 113v-178q0 -2 -9 -55h45v-119h-34q-105 -8 -155 -8q-69 0 -109 18l-40 19q-38 -28 -58 -30q-27 -4 -60 -4q-36 0 -94.5 3t-93.5 43q-28 -41 -80 -41h-209zM1449 569q-17 -30 -52 -98
q-43 25 -131 74q-4 -4 -41 -66q-24 13 -141 76q2 6 53 104q54 -26 138 -81q12 6 24 30q17 35 21 39z" />
    <glyph glyph-name="uniFD2A" unicode="&#xfeb4;&#xfeae;" horiz-adv-x="1635" arabic-form="final" 
d="M720 0q-39 1 -67 19q-30 18 -40 30q-9 -49 -34.5 -116.5t-63.5 -122.5q-63 -101 -148 -142q-36 -16 -65 -16q-27 0 -79 13q-43 11 -101 34q-74 28 -117 67q-2 6 -2 10q0 13 14 15q4 0 60.5 -22.5t85.5 -30.5q18 -5 32 -5q52 0 134 54q51 33 116 103q14 15 26 29
q85 109 85 159q0 16 -57 92q-52 66 -66 78l68 121q49 -72 98 -146q65 -86 129 -104h248q39 0 43 59q2 31 2 64q51 55 111 112q-4 -53 -11 -104q-10 -80 -38 -115q7 -12 36 -16q54 -4 91 -4t94 4q0 28 5 88q9 29 114 125l-45 -213q25 -1 38.5 -2t44.5 -1t45 1q12 1 32 2h1v7
q0 23 -9 67q-10 43 -12 46q4 10 99 113v-178q0 -2 -9 -55h45v-119h-34q-105 -8 -155 -8q-69 0 -109 18l-40 19q-38 -28 -58 -30q-27 -4 -60 -4q-36 0 -94.5 3t-93.5 43q-28 -41 -80 -41h-209z" />
    <glyph glyph-name="uniFD2B" unicode="&#xfebc;&#xfeae;" horiz-adv-x="1955" arabic-form="final" 
d="M1691 276q-28 11 -57 11h-5q-41 0 -74 -15q-41 -16 -130 -80.5t-118 -72.5h465q19 0 43 16q1 3 1 7q0 33 -54 84q-42 39 -71 50zM720 0q-39 1 -67 19q-30 18 -40 30q-9 -49 -34.5 -116.5t-63.5 -122.5q-63 -101 -148 -142q-36 -16 -65 -16q-27 0 -79 13q-43 11 -101 34
q-74 28 -117 67q-2 6 -2 10q0 13 14 15q4 0 60.5 -22.5t85.5 -30.5q18 -5 32 -5q52 0 134 54q51 33 116 103q14 15 26 29q85 109 85 159q0 16 -57 92q-52 66 -66 78l68 121q49 -72 98 -146q65 -86 129 -104h248q39 0 43 59q2 31 2 64q51 55 111 112q-4 -53 -11 -104
q-10 -80 -38 -115q7 -12 36 -16h39q16 0 41 12q16 8 30 16q27 13 86 50q6 4 164 114q101 72 154 88q43 15 63 15q58 0 137.5 -72t79.5 -135q0 -25 -24 -72q-4 -7 -9 -16h93v-119h-763l-104 1q-73 0 -97 40q-28 -41 -80 -41h-209z" />
    <glyph glyph-name="uniFD2C" unicode="&#xfec0;&#xfeae;" horiz-adv-x="1955" arabic-form="final" 
d="M1691 276q-28 11 -57 11h-5q-41 0 -74 -15q-41 -16 -130 -80.5t-118 -72.5h465q19 0 43 16q1 3 1 7q0 33 -54 84q-42 39 -71 50zM720 0q-39 1 -67 19q-30 18 -40 30q-9 -49 -34.5 -116.5t-63.5 -122.5q-63 -101 -148 -142q-36 -16 -65 -16q-27 0 -79 13q-43 11 -101 34
q-74 28 -117 67q-2 6 -2 10q0 13 14 15q4 0 60.5 -22.5t85.5 -30.5q18 -5 32 -5q52 0 134 54q51 33 116 103q14 15 26 29q85 109 85 159q0 16 -57 92q-52 66 -66 78l68 121q49 -72 98 -146q65 -86 129 -104h248q39 0 43 59q2 31 2 64q51 55 111 112q-4 -53 -11 -104
q-10 -80 -38 -115q7 -12 36 -16h39q16 0 41 12q16 8 30 16q27 13 86 50q6 4 164 114q101 72 154 88q43 15 63 15q58 0 137.5 -72t79.5 -135q0 -25 -24 -72q-4 -7 -9 -16h93v-119h-763l-104 1q-73 0 -97 40q-28 -41 -80 -41h-209zM1500 653q-35 -67 -56 -102l-137 80
q16 37 61 102z" />
    <glyph glyph-name="uniFEF5" unicode="&#xfedf;&#xfe82;" horiz-adv-x="859" arabic-form="isolated" 
d="M795 799q-24 -39 -78 -109v-125q0 -61 -19 -123q-21 -65 -60 -112t-39 -51q1 0 10 -23q39 -88 39 -174q0 -82 -47 -82h-367q12 51 23 127q26 8 79 41q35 22 95 70q73 59 73 75q0 29 -108 154q-98 113 -115 123q-12 -31 -20 -62q-74 52 -148 101q-59 51 -59 131
q0 119 43 119q8 0 70 -41q217 -142 397 -473q80 73 80 180q0 104 -29 203q-4 10 -24.5 32.5t-20.5 28.5q0 10 37 70.5t49 72.5v-5q0 -31 45 -81q49 -55 94 -67zM582 106q-1 53 -34 141q-50 -59 -203 -141h237zM389 1091q-2 0 -24 -31q-33 -45 -95 -71q-32 -15 -57 -15
q-94 0 -135 43q-12 -24 -25 -47q-16 -28 -34 -34l-11 6q21 51 74 155q92 -49 135 -49q31 0 64 12q18 9 94 50h14v-19z" />
    <glyph glyph-name="uniFEF6" unicode="&#xfee0;&#xfe82;" horiz-adv-x="1029" arabic-form="final" 
d="M1047 0h-270q-3 94 -7 188q-6 109 -28 168q-13 -14 -70 -135q-24 -47 -72 -110q-90 -117 -231 -170q-68 -27 -248 -60h-49q0 13 8 19q39 22 189 106q90 51 168 111q26 20 67 57q0 2 7 6t7 10q0 9 -18 78q-43 164 -184 289q-8 -12 -25 -37q-94 29 -170 121q-6 6 -8 11
q-1 1 -1 3q0 5 2 11t44 165l2 9q31 -9 94 -58q129 -100 201 -213q23 -34 45 -86q52 -115 52 -207q0 -12 1 -55q76 72 131 166q47 80 47 113l-20 286q0 11 10 25q27 35 78 104q6 -55 13.5 -140t19.5 -249q4 -32 8 -98q12 -176 25 -266q0 -12 6 -21q20 -22 35 -22h141v-119z
M381 1051q-2 0 -24 -31q-33 -45 -95 -71q-32 -15 -57 -15q-94 0 -135 43q-12 -24 -25 -47q-16 -28 -34 -34l-11 6q21 51 74 155q92 -49 135 -49q31 0 64 12q18 9 94 50h14v-19z" />
    <glyph glyph-name="uniFEF7" unicode="&#xfedf;&#xfe84;" horiz-adv-x="859" arabic-form="isolated" 
d="M795 799q-24 -39 -78 -109v-125q0 -61 -19 -123q-21 -65 -60 -112t-39 -51q1 0 10 -23q39 -88 39 -174q0 -82 -47 -82h-367q12 51 23 127q26 8 79 41q35 22 95 70q73 59 73 75q0 29 -108 154q-98 113 -115 123q-12 -31 -20 -62q-74 52 -148 101q-59 51 -59 131
q0 119 43 119q8 0 70 -41q217 -142 397 -473q80 73 80 180q0 104 -29 203q-4 10 -24.5 32.5t-20.5 28.5q0 10 37 70.5t49 72.5v-5q0 -31 45 -81q49 -55 94 -67zM582 106q-1 53 -34 141q-50 -59 -203 -141h237zM285 1084q-13 -24 -35 -51h-7q-80 0 -229 -86v15q0 13 92 71
q-40 6 -100 33q-6 6 -6 20q0 55 53 99.5t107 44.5q28 0 39 -7q2 0 14 -12q0 -22 -18 -57q0 1 -19 12q-22 12 -39 12q-24 0 -53 -10q-37 -16 -37 -39q0 -4 2 -6q21 -16 35 -18q61 -13 201 -21z" />
    <glyph glyph-name="uniFEF8" unicode="&#xfee0;&#xfe84;" horiz-adv-x="1027" arabic-form="final" 
d="M1045 0h-270q-3 94 -7 188q-6 109 -28 168q-13 -14 -70 -135q-24 -47 -72 -110q-90 -117 -231 -170q-68 -27 -248 -60h-49q0 13 8 19q39 22 189 106q90 51 168 111q26 20 67 57q0 2 7 6t7 10q0 9 -18 78q-43 164 -184 289q-8 -12 -25 -37q-94 29 -170 121q-6 6 -8 11
q-1 1 -1 3q0 5 2 11t44 165l2 9q31 -9 94 -58q129 -100 201 -213q23 -34 45 -86q52 -115 52 -207q0 -12 1 -55q76 72 131 166q47 80 47 113l-20 286q0 11 10 25q27 35 78 104q6 -55 13.5 -140t19.5 -249q4 -32 8 -98q12 -176 25 -266q0 -12 6 -21q20 -22 35 -22h141v-119z
M305 1034q-13 -24 -35 -51h-7q-80 0 -229 -86v15q0 13 92 71q-40 6 -100 33q-6 6 -6 20q0 55 53 99.5t107 44.5q28 0 39 -7q2 0 14 -12q0 -22 -18 -57q0 1 -19 12q-22 12 -39 12q-24 0 -53 -10q-37 -16 -37 -39q0 -4 2 -6q21 -16 35 -18q61 -13 201 -21z" />
    <glyph glyph-name="uniFEF9" unicode="&#xfedf;&#xfe88;" horiz-adv-x="859" arabic-form="isolated" 
d="M795 799q-24 -39 -78 -109v-125q0 -61 -19 -123q-21 -65 -60 -112t-39 -51q1 0 10 -23q39 -88 39 -174q0 -82 -47 -82h-367q12 51 23 127q26 8 79 41q35 22 95 70q73 59 73 75q0 29 -108 154q-98 113 -115 123q-12 -31 -20 -62q-74 52 -148 101q-59 51 -59 131
q0 119 43 119q8 0 70 -41q217 -142 397 -473q80 73 80 180q0 104 -29 203q-4 10 -24.5 32.5t-20.5 28.5q0 10 37 70.5t49 72.5v-5q0 -31 45 -81q49 -55 94 -67zM582 106q-1 53 -34 141q-50 -59 -203 -141h237zM355 -220q-13 -24 -35 -51h-7q-80 0 -229 -86v15q0 13 92 71
q-40 6 -100 33q-6 6 -6 20q0 55 53 99.5t107 44.5q28 0 39 -7q2 0 14 -12q0 -22 -18 -57q0 1 -19 12q-22 12 -39 12q-24 0 -53 -10q-37 -16 -37 -39q0 -4 2 -6q21 -16 35 -18q61 -13 201 -21z" />
    <glyph glyph-name="uniFEFA" unicode="&#xfee0;&#xfe88;" horiz-adv-x="1027" arabic-form="final" 
d="M1045 0h-270q-3 94 -7 188q-6 109 -28 168q-13 -14 -70 -135q-24 -47 -72 -110q-90 -117 -231 -170q-68 -27 -248 -60h-49q0 13 8 19q39 22 189 106q90 51 168 111q26 20 67 57q0 2 7 6t7 10q0 9 -18 78q-43 164 -184 289q-8 -12 -25 -37q-94 29 -170 121q-6 6 -8 11
q-1 1 -1 3q0 5 2 11t44 165l2 9q31 -9 94 -58q129 -100 201 -213q23 -34 45 -86q52 -115 52 -207q0 -12 1 -55q76 72 131 166q47 80 47 113l-20 286q0 11 10 25q27 35 78 104q6 -55 13.5 -140t19.5 -249q4 -32 8 -98q12 -176 25 -266q0 -12 6 -21q20 -22 35 -22h141v-119z
M355 -350q-13 -24 -35 -51h-7q-80 0 -229 -86v15q0 13 92 71q-40 6 -100 33q-6 6 -6 20q0 55 53 99.5t107 44.5q28 0 39 -7q2 0 14 -12q0 -22 -18 -57q0 1 -19 12q-22 12 -39 12q-24 0 -53 -10q-37 -16 -37 -39q0 -4 2 -6q21 -16 35 -18q61 -13 201 -21z" />
    <glyph glyph-name="uniFEFB" unicode="&#xfedf;&#xfe8e;" horiz-adv-x="859" arabic-form="isolated" 
d="M795 799q-24 -39 -78 -109v-125q0 -61 -19 -123q-21 -65 -60 -112t-39 -51q1 0 10 -23q39 -88 39 -174q0 -82 -47 -82h-367q12 51 23 127q26 8 79 41q35 22 95 70q73 59 73 75q0 29 -108 154q-98 113 -115 123q-12 -31 -20 -62q-74 52 -148 101q-59 51 -59 131
q0 119 43 119q8 0 70 -41q217 -142 397 -473q80 73 80 180q0 104 -29 203q-4 10 -24.5 32.5t-20.5 28.5q0 10 37 70.5t49 72.5v-5q0 -31 45 -81q49 -55 94 -67zM582 106q-1 53 -34 141q-50 -59 -203 -141h237z" />
    <glyph glyph-name="uniFEFC" unicode="&#xfee0;&#xfe8e;" horiz-adv-x="1027" arabic-form="final" 
d="M1045 0h-270q-3 94 -7 188q-6 109 -28 168q-13 -14 -70 -135q-24 -47 -72 -110q-90 -117 -231 -170q-68 -27 -248 -60h-49q0 13 8 19q39 22 189 106q90 51 168 111q26 20 67 57q0 2 7 6t7 10q0 9 -18 78q-43 164 -184 289q-8 -12 -25 -37q-94 29 -170 121q-6 6 -8 11
q-1 1 -1 3q0 5 2 11t44 165l2 9q31 -9 94 -58q129 -100 201 -213q23 -34 45 -86q52 -115 52 -207q0 -12 1 -55q76 72 131 166q47 80 47 113l-20 286q0 11 10 25q27 35 78 104q6 -55 13.5 -140t19.5 -249q4 -32 8 -98q12 -176 25 -266q0 -12 6 -21q20 -22 35 -22h141v-119z
" />
    <glyph glyph-name="uniFE8B_uniFEE4.liga" unicode="&#xfe8b;&#xfee4;" horiz-adv-x="1160" 
d="M478 115.5q10 -1.5 19 -1.5q17 0 17 7q-18 96 -35 121q-13 23 -41 23q-86 -1 -128 -67q109 -65 149 -78q9 -3 19 -4.5zM1058 669q-12 -24 -35 -51h-7q-80 0 -228 -86v15q0 13 92 71q-41 6 -101 33q-6 6 -6 20q0 55 53.5 99.5t106.5 44.5q29 0 39 -7q2 0 14 -12
q0 -22 -18 -57q0 1 -19 12q-22 12 -39 12q-24 0 -53 -10q-37 -16 -37 -39q0 -4 2 -6q21 -16 35 -18q62 -13 201 -21zM586 0q-4 -5 -37 -77h-2l-296 162q-20 0 -50 -62q-19 -23 -37 -23h-204v119h217q40 0 65 85q21 55 39 69q59 52 133 89q53 23 85 23h5q27 0 27 -25v-45
q0 -5 -2 -9q22 -80 48 -128q39 -59 72 -59h349q2 0 2 12q0 37 -39 118l-39 81q0 2 60 121q28 -29 60 -118t32 -138q0 -43 -37 -195h-451z" />
    <glyph glyph-name="uniFE8B_uniFEF0.liga" unicode="&#xfe8b;&#xfef0;" horiz-adv-x="1390" 
d="M1288 669q-12 -24 -35 -51h-7q-80 0 -228 -86v15q0 13 92 71q-41 6 -101 33q-6 6 -6 20q0 55 53.5 99.5t106.5 44.5q29 0 39 -7q2 0 14 -12q0 -22 -18 -57q0 1 -19 12q-22 12 -39 12q-24 0 -53 -10q-37 -16 -37 -39q0 -4 2 -6q21 -16 35 -18q62 -13 201 -21zM936 0
q-31 -63 -70 -143q-59 -102 -152.5 -143t-165.5 -50q-60 -8 -127 -8h-28q-123 0 -205 55q-98 66 -98 193q0 92 63 225q60 127 130 186h10q-39 -77 -76 -153q-53 -111 -53 -168q0 -107 96 -160q76 -41 192 -41q271 0 363 92q-4 88 -107 109q-77 10 -155 22q49 103 67 103h608
q2 0 2 12q0 37 -39 118l-39 81q0 2 60 121q28 -29 60 -118t32 -138q0 -43 -37 -195h-331z" />
    <glyph glyph-name="uniFE8B_uniFEF2.liga" unicode="&#xfe8b;&#xfef2;" horiz-adv-x="1390" 
d="M643 -537q0 -6 -19 -34q-22 -35 -28 -45q-35 14 -119 65q-2 -2 -37 -61q-43 22 -133 71q12 29 55 97l127 -78q12 22 37 65l117 -65v-15zM1288 669q-12 -24 -35 -51h-7q-80 0 -228 -86v15q0 13 92 71q-41 6 -101 33q-6 6 -6 20q0 55 53.5 99.5t106.5 44.5q29 0 39 -7
q2 0 14 -12q0 -22 -18 -57q0 1 -19 12q-22 12 -39 12q-24 0 -53 -10q-37 -16 -37 -39q0 -4 2 -6q21 -16 35 -18q62 -13 201 -21zM936 0q-31 -63 -70 -143q-59 -102 -152.5 -143t-165.5 -50q-60 -8 -127 -8h-28q-123 0 -205 55q-98 66 -98 193q0 92 63 225q60 127 130 186h10
q-39 -77 -76 -153q-53 -111 -53 -168q0 -107 96 -160q76 -41 192 -41q271 0 363 92q-4 88 -107 109q-77 10 -155 22q49 103 67 103h608q2 0 2 12q0 37 -39 118l-39 81q0 2 60 121q28 -29 60 -118t32 -138q0 -43 -37 -195h-331z" />
    <glyph glyph-name="uniFE91_uniFEE4.liga" unicode="&#xfe91;&#xfee4;" horiz-adv-x="1150" 
d="M478 115.5q10 -1.5 19 -1.5q17 0 17 7q-18 96 -35 121q-13 23 -41 23q-86 -1 -128 -67q109 -65 149 -78q9 -3 19 -4.5zM949 -227q-6 -15 -59 -103l-134 84q35 60 56 94q0 -2 137 -75zM586 0q-4 -5 -37 -77h-2l-296 162q-20 0 -50 -62q-19 -23 -37 -23h-204v119h217
q40 0 65 85q21 55 39 69q59 52 133 89q53 23 85 23h5q27 0 27 -25v-45q0 -5 -2 -9q22 -80 48 -128q39 -59 72 -59h339q2 0 2 12q0 37 -39 118l-39 81q0 2 60 121q28 -29 60 -118t32 -138q0 -43 -37 -195h-441z" />
    <glyph glyph-name="uniFE92_uniFEE6.liga" unicode="&#xfe92;&#xfee6;" horiz-adv-x="1423" 
d="M548 561q-15 -33 -64 -108l-156 90l66 108zM914 0q-10 -29 -25.5 -90.5t-73.5 -127t-124 -97.5q-92 -47 -183 -60q-57 -9 -108 -9q-32 0 -63 4q-79 8 -153 54q-88 64 -88 187q-1 9 -1 18q0 57 22 130q12 41 19 59t33 70q26 50 59 78q4 4 8 7q5 3 7 3q1 0 3 -1q1 -1 1 -3
v-1q0 -2 -1 -4q-80 -174 -80 -252v-4q0 -109 82 -166q69 -47 167 -47l29 1q90 5 213 47q169 63 169 155q0 65 -53 174q-48 99 -53 101q3 13 67 143q45 -54 70 -123q37 -105 94 -127h336v137q0 18 6 27q31 47 109 123v-56l-33 -215q10 -16 37 -16h35v-119h-103q-20 0 -36 25
q-7 14 -25 45q-10 -13 -49 -70h-314zM1259 -227q-6 -15 -59 -103l-134 84q35 60 56 94q0 -2 137 -75z" />
    <glyph glyph-name="uniFE91_uniFEF0.liga" unicode="&#xfe91;&#xfef0;" horiz-adv-x="1390" 
d="M1189 -227q-6 -15 -59 -103l-134 84q35 60 56 94q0 -2 137 -75zM936 0q-31 -63 -70 -143q-59 -102 -152.5 -143t-165.5 -50q-60 -8 -127 -8h-28q-123 0 -205 55q-98 66 -98 193q0 92 63 225q60 127 130 186h10q-39 -77 -76 -153q-53 -111 -53 -168q0 -107 96 -160
q76 -41 192 -41q271 0 363 92q-4 88 -107 109q-77 10 -155 22q49 103 67 103h608q2 0 2 12q0 37 -39 118l-39 81q0 2 60 121q28 -29 60 -118t32 -138q0 -43 -37 -195h-331z" />
    <glyph glyph-name="uniFE91_uniFEF2.liga" unicode="&#xfe91;&#xfef2;" horiz-adv-x="1390" 
d="M643 -537q0 -6 -19 -34q-22 -35 -28 -45q-35 14 -119 65q-2 -2 -37 -61q-43 22 -133 71q12 29 55 97l127 -78q12 22 37 65l117 -65v-15zM1189 -227q-6 -15 -59 -103l-134 84q35 60 56 94q0 -2 137 -75zM936 0q-31 -63 -70 -143q-59 -102 -152.5 -143t-165.5 -50
q-60 -8 -127 -8h-28q-123 0 -205 55q-98 66 -98 193q0 92 63 225q60 127 130 186h10q-39 -77 -76 -153q-53 -111 -53 -168q0 -107 96 -160q76 -41 192 -41q271 0 363 92q-4 88 -107 109q-77 10 -155 22q49 103 67 103h608q2 0 2 12q0 37 -39 118l-39 81q0 2 60 121
q28 -29 60 -118t32 -138q0 -43 -37 -195h-331z" />
    <glyph glyph-name="uniFE97_uniFEE4.liga" unicode="&#xfe97;&#xfee4;" horiz-adv-x="1150" 
d="M478 115.5q10 -1.5 19 -1.5q17 0 17 7q-18 96 -35 121q-13 23 -41 23q-86 -1 -128 -67q109 -65 149 -78q9 -3 19 -4.5zM586 0q-4 -5 -37 -77h-2l-296 162q-20 0 -50 -62q-19 -23 -37 -23h-204v119h217q40 0 65 85q21 55 39 69q59 52 133 89q53 23 85 23h5q27 0 27 -25
v-45q0 -5 -2 -9q22 -80 48 -128q39 -59 72 -59h339q2 0 2 12q0 37 -39 118l-39 81q0 2 60 121q28 -29 60 -118t32 -138q0 -43 -37 -195h-441zM1063 631q-12 -31 -53 -99q-27 15 -129 74q-23 -24 -45 -69l-141 79q26 50 59 101q45 -25 127 -78q14 23 45 70z" />
    <glyph glyph-name="uniFE98_uniFEE6.liga" unicode="&#xfe98;&#xfee6;" horiz-adv-x="1423" 
d="M548 561q-15 -33 -64 -108l-156 90l66 108zM914 0q-10 -29 -25.5 -90.5t-73.5 -127t-124 -97.5q-92 -47 -183 -60q-57 -9 -108 -9q-32 0 -63 4q-79 8 -153 54q-88 64 -88 187q-1 9 -1 18q0 57 22 130q12 41 19 59t33 70q26 50 59 78q4 4 8 7q5 3 7 3q1 0 3 -1q1 -1 1 -3
v-1q0 -2 -1 -4q-80 -174 -80 -252v-4q0 -109 82 -166q69 -47 167 -47l29 1q90 5 213 47q169 63 169 155q0 65 -53 174q-48 99 -53 101q3 13 67 143q45 -54 70 -123q37 -105 94 -127h336v137q0 18 6 27q31 47 109 123v-56l-33 -215q10 -16 37 -16h35v-119h-103q-20 0 -36 25
q-7 14 -25 45q-10 -13 -49 -70h-314zM1388 623q-15 -31 -56 -99q-26 15 -127 74q-26 -29 -45 -70l-143 80q29 49 59 101l127 -78q13 20 45 69z" />
    <glyph glyph-name="uniFE97_uniFEF0.liga" unicode="&#xfe97;&#xfef0;" horiz-adv-x="1390" 
d="M936 0q-31 -63 -70 -143q-59 -102 -152.5 -143t-165.5 -50q-60 -8 -127 -8h-28q-123 0 -205 55q-98 66 -98 193q0 92 63 225q60 127 130 186h10q-39 -77 -76 -153q-53 -111 -53 -168q0 -107 96 -160q76 -41 192 -41q271 0 363 92q-4 88 -107 109q-77 10 -155 22
q49 103 67 103h608q2 0 2 12q0 37 -39 118l-39 81q0 2 60 121q28 -29 60 -118t32 -138q0 -43 -37 -195h-331zM1303 631q-12 -31 -53 -99q-27 15 -129 74q-23 -24 -45 -69l-141 79q26 50 59 101q45 -25 127 -78q14 23 45 70z" />
    <glyph glyph-name="uniFE97_uniFEF2.liga" unicode="&#xfe97;&#xfef2;" horiz-adv-x="1390" 
d="M643 -537q0 -6 -19 -34q-22 -35 -28 -45q-35 14 -119 65q-2 -2 -37 -61q-43 22 -133 71q12 29 55 97l127 -78q12 22 37 65l117 -65v-15zM936 0q-31 -63 -70 -143q-59 -102 -152.5 -143t-165.5 -50q-60 -8 -127 -8h-28q-123 0 -205 55q-98 66 -98 193q0 92 63 225
q60 127 130 186h10q-39 -77 -76 -153q-53 -111 -53 -168q0 -107 96 -160q76 -41 192 -41q271 0 363 92q-4 88 -107 109q-77 10 -155 22q49 103 67 103h608q2 0 2 12q0 37 -39 118l-39 81q0 2 60 121q28 -29 60 -118t32 -138q0 -43 -37 -195h-331zM1303 631q-12 -31 -53 -99
q-27 15 -129 74q-23 -24 -45 -69l-141 79q26 50 59 101q45 -25 127 -78q14 23 45 70z" />
    <glyph glyph-name="uniFE9C_uniFEAE.liga" unicode="&#xfe9c;&#xfeae;" horiz-adv-x="1183" 
d="M1000 823l-59 -96q-43 21 -133 78q26 51 57 98zM720 0q-39 1 -67 19q-30 18 -40 30q-9 -49 -34.5 -116.5t-63.5 -122.5q-63 -101 -148 -142q-36 -16 -65 -16q-27 0 -79 13q-43 11 -101 34q-74 28 -117 67q-2 6 -2 10q0 13 14 15q4 0 60.5 -22.5t85.5 -30.5q18 -5 32 -5
q52 0 134 54q51 33 116 103q14 15 26 29q85 109 85 159q0 16 -57 92q-52 66 -66 78l68 121q49 -72 98 -146q65 -86 129 -104h319v137q0 18 6 27q31 47 109 123v-56l-33 -215q10 -16 37 -16h35v-119h-103q-20 0 -36 25q-7 14 -25 45q-10 -13 -49 -70h-268zM1148 623
q-15 -31 -56 -99q-26 15 -127 74q-26 -29 -45 -70l-143 80q29 49 59 101l127 -78q13 20 45 69z" />
    <glyph glyph-name="uniFE9B_uniFEE4.liga" unicode="&#xfe9b;&#xfee4;" horiz-adv-x="1150" 
d="M478 115.5q10 -1.5 19 -1.5q17 0 17 7q-18 96 -35 121q-13 23 -41 23q-86 -1 -128 -67q109 -65 149 -78q9 -3 19 -4.5zM916 823q-17 -30 -60 -98q-41 23 -133 80l60 98zM586 0q-4 -5 -37 -77h-2l-296 162q-20 0 -50 -62q-19 -23 -37 -23h-204v119h217q40 0 65 85
q21 55 39 69q59 52 133 89q53 23 85 23h5q27 0 27 -25v-45q0 -5 -2 -9q22 -80 48 -128q39 -59 72 -59h339q2 0 2 12q0 37 -39 118l-39 81q0 2 60 121q28 -29 60 -118t32 -138q0 -43 -37 -195h-441zM1063 631q-12 -31 -53 -99q-27 15 -129 74q-23 -24 -45 -69l-141 79
q26 50 59 101q45 -25 127 -78q14 23 45 70z" />
    <glyph glyph-name="uniFE9C_uniFEE6.liga" unicode="&#xfe9c;&#xfee6;" horiz-adv-x="1423" 
d="M548 561q-15 -33 -64 -108l-156 90l66 108zM1240 823l-59 -96q-43 21 -133 78q26 51 57 98zM914 0q-10 -29 -25.5 -90.5t-73.5 -127t-124 -97.5q-92 -47 -183 -60q-57 -9 -108 -9q-32 0 -63 4q-79 8 -153 54q-88 64 -88 187q-1 9 -1 18q0 57 22 130q12 41 19 59t33 70
q26 50 59 78q4 4 8 7q5 3 7 3q1 0 3 -1q1 -1 1 -3v-1q0 -2 -1 -4q-80 -174 -80 -252v-4q0 -109 82 -166q69 -47 167 -47l29 1q90 5 213 47q169 63 169 155q0 65 -53 174q-48 99 -53 101q3 13 67 143q45 -54 70 -123q37 -105 94 -127h336v137q0 18 6 27q31 47 109 123v-56
l-33 -215q10 -16 37 -16h35v-119h-103q-20 0 -36 25q-7 14 -25 45q-10 -13 -49 -70h-314zM1388 623q-15 -31 -56 -99q-26 15 -127 74q-26 -29 -45 -70l-143 80q29 49 59 101l127 -78q13 20 45 69z" />
    <glyph glyph-name="uniFE9B_uniFEF0.liga" unicode="&#xfe9b;&#xfef0;" horiz-adv-x="1390" 
d="M1156 823q-17 -30 -60 -98q-41 23 -133 80l60 98zM936 0q-31 -63 -70 -143q-59 -102 -152.5 -143t-165.5 -50q-60 -8 -127 -8h-28q-123 0 -205 55q-98 66 -98 193q0 92 63 225q60 127 130 186h10q-39 -77 -76 -153q-53 -111 -53 -168q0 -107 96 -160q76 -41 192 -41
q271 0 363 92q-4 88 -107 109q-77 10 -155 22q49 103 67 103h608q2 0 2 12q0 37 -39 118l-39 81q0 2 60 121q28 -29 60 -118t32 -138q0 -43 -37 -195h-331zM1303 631q-12 -31 -53 -99q-27 15 -129 74q-23 -24 -45 -69l-141 79q26 50 59 101q45 -25 127 -78q14 23 45 70z" />
    <glyph glyph-name="uniFE9B_uniFEF2.liga" unicode="&#xfe9b;&#xfef2;" horiz-adv-x="1390" 
d="M643 -537q0 -6 -19 -34q-22 -35 -28 -45q-35 14 -119 65q-2 -2 -37 -61q-43 22 -133 71q12 29 55 97l127 -78q12 22 37 65l117 -65v-15zM1156 823q-17 -30 -60 -98q-41 23 -133 80l60 98zM936 0q-31 -63 -70 -143q-59 -102 -152.5 -143t-165.5 -50q-60 -8 -127 -8h-28
q-123 0 -205 55q-98 66 -98 193q0 92 63 225q60 127 130 186h10q-39 -77 -76 -153q-53 -111 -53 -168q0 -107 96 -160q76 -41 192 -41q271 0 363 92q-4 88 -107 109q-77 10 -155 22q49 103 67 103h608q2 0 2 12q0 37 -39 118l-39 81q0 2 60 121q28 -29 60 -118t32 -138
q0 -43 -37 -195h-331zM1303 631q-12 -31 -53 -99q-27 15 -129 74q-23 -24 -45 -69l-141 79q26 50 59 101q45 -25 127 -78q14 23 45 70z" />
    <glyph glyph-name="uniFEDB_uniFEF0.liga" unicode="&#xfedb;&#xfef0;" horiz-adv-x="1436" 
d="M936 0q-31 -63 -70 -143q-59 -102 -152.5 -143t-165.5 -50q-60 -8 -127 -8h-28q-123 0 -205 55q-98 66 -98 193q0 92 63 225q60 127 130 186h10q-39 -77 -76 -153q-53 -111 -53 -168q0 -107 96 -160q76 -41 192 -41q271 0 363 92q-4 88 -107 109q-77 10 -155 22
q49 103 67 103h637q-27 71 -115 149q-20 19 -153 117q-21 -33 -31 -33q-6 0 -25 17q-63 53 -86 96q-4 10 -4 24q0 19 4 39q21 70 56 154q39 25 104 55q210 99 309 139q50 19 101 36l-47 -137l-3 -1q-161 -59 -446 -182q141 -111 195 -158q123 -106 172 -184q10 -17 16 -31
q14 -29 14 -55q0 -49 -22 -117q-4 -16 -27 -47h-333z" />
    <glyph glyph-name="uniFEDC_uniFEF0.liga" unicode="&#xfedc;&#xfef0;" horiz-adv-x="1432" 
d="M936 0q-31 -63 -70 -143q-59 -102 -152.5 -143t-165.5 -50q-60 -8 -127 -8h-28q-123 0 -205 55q-98 66 -98 193q0 92 63 225q60 127 130 186h10q-39 -77 -76 -153q-53 -111 -53 -168q0 -107 96 -160q76 -41 192 -41q271 0 363 92q-4 88 -107 109q-77 10 -155 22
q49 103 67 103h553q11 0 23 12t12 19q0 14 -86 92q-49 45 -149 131q-10 -11 -25 -21q-51 43 -98 101q-23 26 -23 34q0 19 4 41q9 37 19 74q12 47 41 74q53 24 160 76q170 84 354 145q-12 -49 -47 -137q-150 -58 -453 -176q78 -70 234 -215q69 -74 139 -148q90 -92 127 -102
h45v-119h-100l-88 86q-67 -66 -101 -86h-225z" />
    <glyph glyph-name="uniFEDB_uniFEF2.liga" unicode="&#xfedb;&#xfef2;" horiz-adv-x="1436" 
d="M643 -537q0 -6 -19 -34q-22 -35 -28 -45q-35 14 -119 65q-2 -2 -37 -61q-43 22 -133 71q12 29 55 97l127 -78q12 22 37 65l117 -65v-15zM936 0q-31 -63 -70 -143q-59 -102 -152.5 -143t-165.5 -50q-60 -8 -127 -8h-28q-123 0 -205 55q-98 66 -98 193q0 92 63 225
q60 127 130 186h10q-39 -77 -76 -153q-53 -111 -53 -168q0 -107 96 -160q76 -41 192 -41q271 0 363 92q-4 88 -107 109q-77 10 -155 22q49 103 67 103h637q-27 71 -115 149q-20 19 -153 117q-21 -33 -31 -33q-6 0 -25 17q-63 53 -86 96q-4 10 -4 24q0 19 4 39q21 70 56 154
q39 25 104 55q210 99 309 139q50 19 101 36l-47 -137l-3 -1q-161 -59 -446 -182q141 -111 195 -158q123 -106 172 -184q10 -17 16 -31q14 -29 14 -55q0 -49 -22 -117q-4 -16 -27 -47h-333z" />
    <glyph glyph-name="uniFEDC_uniFEF2.liga" unicode="&#xfedc;&#xfef2;" horiz-adv-x="1432" 
d="M643 -537q0 -6 -19 -34q-22 -35 -28 -45q-35 14 -119 65q-2 -2 -37 -61q-43 22 -133 71q12 29 55 97l127 -78q12 22 37 65l117 -65v-15zM936 0q-31 -63 -70 -143q-59 -102 -152.5 -143t-165.5 -50q-60 -8 -127 -8h-28q-123 0 -205 55q-98 66 -98 193q0 92 63 225
q60 127 130 186h10q-39 -77 -76 -153q-53 -111 -53 -168q0 -107 96 -160q76 -41 192 -41q271 0 363 92q-4 88 -107 109q-77 10 -155 22q49 103 67 103h553q11 0 23 12t12 19q0 14 -86 92q-49 45 -149 131q-10 -11 -25 -21q-51 43 -98 101q-23 26 -23 34q0 19 4 41
q9 37 19 74q12 47 41 74q53 24 160 76q170 84 354 145q-12 -49 -47 -137q-150 -58 -453 -176q78 -70 234 -215q69 -74 139 -148q90 -92 127 -102h45v-119h-100l-88 86q-67 -66 -101 -86h-225z" />
    <glyph glyph-name="uniFEDF_uniFB51.rlig" unicode="&#xfedf;&#xfb51;" horiz-adv-x="859" 
d="M795 799q-24 -39 -78 -109v-125q0 -61 -19 -123q-21 -65 -60 -112t-39 -51q1 0 10 -23q39 -88 39 -174q0 -82 -47 -82h-367q12 51 23 127q26 8 79 41q35 22 95 70q73 59 73 75q0 29 -108 154q-98 113 -115 123q-12 -31 -20 -62q-74 52 -148 101q-59 51 -59 131
q0 119 43 119q8 0 70 -41q217 -142 397 -473q80 73 80 180q0 104 -29 203q-4 10 -24.5 32.5t-20.5 28.5q0 10 37 70.5t49 72.5v-5q0 -31 45 -81q49 -55 94 -67zM582 106q-1 53 -34 141q-50 -59 -203 -141h237zM255 1041q32 0 60 12q30 13 31 32q-16 57 -70 59
q-62 0 -126 -79q50 -24 105 -24zM82 1098q6 -3 37 -16q92 130 168 130q42 0 69 -30q28 -33 28 -90q0 -52 -37 -89q-40 -38 -101 -38q-62 0 -117 23q-27 11 -36.5 17.5t-14.5 12.5q-12 -24 -25 -47q-16 -28 -34 -34l-11 6l58 125q8 14 16 30z" />
    <glyph glyph-name="uniFEE0_uniFB51.rlig" unicode="&#xfee0;&#xfb51;" horiz-adv-x="1029" 
d="M1047 0h-270q-3 94 -7 188q-6 109 -28 168q-13 -14 -70 -135q-24 -47 -72 -110q-90 -117 -231 -170q-68 -27 -248 -60h-49q0 13 8 19q39 22 189 106q90 51 168 111q26 20 67 57q0 2 7 6t7 10q0 9 -18 78q-43 164 -184 289q-8 -12 -25 -37q-94 29 -170 121q-6 6 -8 11
q-1 1 -1 3q0 5 2 11t44 165l2 9q31 -9 94 -58q129 -100 201 -213q23 -34 45 -86q52 -115 52 -207q0 -12 1 -55q76 72 131 166q47 80 47 113l-20 286q0 11 10 25q27 35 78 104q6 -55 13.5 -140t19.5 -249q4 -32 8 -98q12 -176 25 -266q0 -12 6 -21q20 -22 35 -22h141v-119z
M255 1011q32 0 60 12q30 13 31 32q-16 57 -70 59q-62 0 -126 -79q50 -24 105 -24zM82 1068q6 -3 37 -16q92 130 168 130q42 0 69 -30q28 -33 28 -90q0 -52 -37 -89q-40 -38 -101 -38q-62 0 -117 23q-27 11 -36.5 17.5t-14.5 12.5q-12 -24 -25 -47q-16 -28 -34 -34l-11 6
l58 125q8 14 16 30z" />
    <glyph glyph-name="uniFEDF_uniFEE2.liga" unicode="&#xfedf;&#xfee2;" horiz-adv-x="1163" 
d="M1100 745l-68 -133l-14 4l36 -397q0 -43 -16 -117.5t-31 -101.5h-360q-25 -29 -45 -61q-37 22 -113 59q-65 27 -96 43q-59 31 -102 72q12 30 32 86l1 1q0 1 -7 1q-4 0 -14 -5.5t-14 -5.5q-52 -12 -158 -90q16 -73 43 -180q16 -65 35 -131q28 -108 28 -149q0 -91 -45 -203
q-4 53 -22 162q-27 100 -54 198q-43 166 -43 244q0 80 43 139q29 37 59 60.5t157 89.5q147 76 192 76q14 0 66.5 -143.5t80.5 -143.5q0 2 78 2q77 0 232 -2q4 12 4 41q0 18 -12 116q-7 60 -13 95q-10 96 -41 286q-2 9 -17 22t-15 34q0 32 81 161h15q8 -4 8 -16q0 -9 -6 -24
v-23q16 -10 115 -66zM581 84q-4 14 -45 96q-24 49 -28 94q-88 -26 -136 -71q91 -90 209 -119z" />
    <glyph glyph-name="uniFEE4_uniFE8E.liga" unicode="&#xfee4;&#xfe8e;" horiz-adv-x="1107" 
d="M927 114q17 0 17 7q-18 96 -35 121q-13 23 -41 23q-86 -1 -128 -67q109 -65 149 -78q9 -3 19 -4.5t19 -1.5zM190 0l-68 852q0 25 2 27q14 24 84 106q6 -47 33 -412q16 -202 45 -395q10 -59 123 -59h198q40 0 65 85q21 55 39 69q59 52 133 89q53 23 85 23h5q27 0 27 -25
v-45q0 -5 -2 -9q22 -80 48 -128q39 -59 72 -59h46v-119h-109q-4 -5 -37 -77h-2l-296 162q-20 0 -50 -62q-19 -23 -37 -23h-404z" />
    <glyph glyph-name="uniFEE4_uniFE82.liga" unicode="&#xfee4;&#xfe82;" horiz-adv-x="1107" 
d="M399 1161q-2 0 -24 -31q-33 -45 -95 -71q-32 -15 -57 -15q-94 0 -135 43q-12 -24 -25 -47q-16 -28 -34 -34l-11 6q21 51 74 155q92 -49 135 -49q31 0 64 12q18 9 94 50h14v-19zM927 114q17 0 17 7q-18 96 -35 121q-13 23 -41 23q-86 -1 -128 -67q109 -65 149 -78
q9 -3 19 -4.5t19 -1.5zM190 0l-68 852q0 25 2 27q14 24 84 106q6 -47 33 -412q16 -202 45 -395q10 -59 123 -59h198q40 0 65 85q21 55 39 69q59 52 133 89q53 23 85 23h5q27 0 27 -25v-45q0 -5 -2 -9q22 -80 48 -128q39 -59 72 -59h46v-119h-109q-4 -5 -37 -77h-2l-296 162
q-20 0 -50 -62q-19 -23 -37 -23h-404z" />
    <glyph glyph-name="uniFEE4_uniFE84.liga" unicode="&#xfee4;&#xfe84;" horiz-adv-x="1107" 
d="M295 1114q-12 -24 -35 -51h-7q-80 0 -228 -86v15q0 13 92 71q-41 6 -101 33q-6 6 -6 20q0 55 53.5 99.5t106.5 44.5q29 0 39 -7q2 0 14 -12q0 -22 -18 -57q0 1 -19 12q-22 12 -39 12q-24 0 -53 -10q-37 -16 -37 -39q0 -4 2 -6q21 -16 35 -18q62 -13 201 -21zM927 114
q17 0 17 7q-18 96 -35 121q-13 23 -41 23q-86 -1 -128 -67q109 -65 149 -78q9 -3 19 -4.5t19 -1.5zM190 0l-68 852q0 25 2 27q14 24 84 106q6 -47 33 -412q16 -202 45 -395q10 -59 123 -59h198q40 0 65 85q21 55 39 69q59 52 133 89q53 23 85 23h5q27 0 27 -25v-45
q0 -5 -2 -9q22 -80 48 -128q39 -59 72 -59h46v-119h-109q-4 -5 -37 -77h-2l-296 162q-20 0 -50 -62q-19 -23 -37 -23h-404z" />
    <glyph glyph-name="uniFEE4_uniFE88.liga" unicode="&#xfee4;&#xfe88;" horiz-adv-x="1107" 
d="M355 -220q-12 -24 -35 -51h-7q-80 0 -228 -86v15q0 13 92 71q-41 6 -101 33q-6 6 -6 20q0 55 53.5 99.5t106.5 44.5q29 0 39 -7q2 0 14 -12q0 -22 -18 -57q0 1 -19 12q-22 12 -39 12q-24 0 -53 -10q-37 -16 -37 -39q0 -4 2 -6q21 -16 35 -18q62 -13 201 -21zM927 114
q17 0 17 7q-18 96 -35 121q-13 23 -41 23q-86 -1 -128 -67q109 -65 149 -78q9 -3 19 -4.5t19 -1.5zM190 0l-68 852q0 25 2 27q14 24 84 106q6 -47 33 -412q16 -202 45 -395q10 -59 123 -59h198q40 0 65 85q21 55 39 69q59 52 133 89q53 23 85 23h5q27 0 27 -25v-45
q0 -5 -2 -9q22 -80 48 -128q39 -59 72 -59h46v-119h-109q-4 -5 -37 -77h-2l-296 162q-20 0 -50 -62q-19 -23 -37 -23h-404z" />
    <glyph glyph-name="uniFEE8_uniFEAE.liga" unicode="&#xfee8;&#xfeae;" horiz-adv-x="1183" 
d="M1079 750q-10 -21 -31.5 -62t-31.5 -59q-72 35 -160 90l62 115zM720 0q-39 1 -67 19q-30 18 -40 30q-9 -49 -34.5 -116.5t-63.5 -122.5q-63 -101 -148 -142q-36 -16 -65 -16q-27 0 -79 13q-43 11 -101 34q-74 28 -117 67q-2 6 -2 10q0 13 14 15q4 0 60.5 -22.5
t85.5 -30.5q18 -5 32 -5q52 0 134 54q51 33 116 103q14 15 26 29q85 109 85 159q0 16 -57 92q-52 66 -66 78l68 121q49 -72 98 -146q65 -86 129 -104h319v137q0 18 6 27q31 47 109 123v-56l-33 -215q10 -16 37 -16h35v-119h-103q-20 0 -36 25q-7 14 -25 45q-10 -13 -49 -70
h-268z" />
    <glyph glyph-name="uniFEE7_uniFEE4.liga" unicode="&#xfee7;&#xfee4;" horiz-adv-x="1150" 
d="M478 115.5q10 -1.5 19 -1.5q17 0 17 7q-18 96 -35 121q-13 23 -41 23q-86 -1 -128 -67q109 -65 149 -78q9 -3 19 -4.5zM1002 782q-17 -34 -60 -110l-137 84q17 32 55 98zM586 0q-4 -5 -37 -77h-2l-296 162q-20 0 -50 -62q-19 -23 -37 -23h-204v119h217q40 0 65 85
q21 55 39 69q59 52 133 89q53 23 85 23h5q27 0 27 -25v-45q0 -5 -2 -9q22 -80 48 -128q39 -59 72 -59h339q2 0 2 12q0 37 -39 118l-39 81q0 2 60 121q28 -29 60 -118t32 -138q0 -43 -37 -195h-441z" />
    <glyph glyph-name="uniFEE7_uniFEF0.liga" unicode="&#xfee7;&#xfef0;" horiz-adv-x="1360" 
d="M1212 782q-17 -34 -60 -110l-137 84q17 32 55 98zM936 0q-31 -63 -70 -143q-59 -102 -152.5 -143t-165.5 -50q-60 -8 -127 -8h-28q-123 0 -205 55q-98 66 -98 193q0 92 63 225q60 127 130 186h10q-39 -77 -76 -153q-53 -111 -53 -168q0 -107 96 -160q76 -41 192 -41
q271 0 363 92q-4 88 -107 109q-77 10 -155 22q49 103 67 103h578q2 0 2 12q0 37 -39 118l-39 81q0 2 60 121q28 -29 60 -118t32 -138q0 -43 -37 -195h-301z" />
    <glyph glyph-name="uniFEE7_uniFEF2.liga" unicode="&#xfee7;&#xfef2;" horiz-adv-x="1360" 
d="M643 -537q0 -6 -19 -34q-22 -35 -28 -45q-35 14 -119 65q-2 -2 -37 -61q-43 22 -133 71q12 29 55 97l127 -78q12 22 37 65l117 -65v-15zM1212 782q-17 -34 -60 -110l-137 84q17 32 55 98zM936 0q-31 -63 -70 -143q-59 -102 -152.5 -143t-165.5 -50q-60 -8 -127 -8h-28
q-123 0 -205 55q-98 66 -98 193q0 92 63 225q60 127 130 186h10q-39 -77 -76 -153q-53 -111 -53 -168q0 -107 96 -160q76 -41 192 -41q271 0 363 92q-4 88 -107 109q-77 10 -155 22q49 103 67 103h578q2 0 2 12q0 37 -39 118l-39 81q0 2 60 121q28 -29 60 -118t32 -138
q0 -43 -37 -195h-301z" />
    <glyph glyph-name="uniFEF4_uniFEAE.liga" unicode="&#xfef4;&#xfeae;" horiz-adv-x="1183" 
d="M720 0q-39 1 -67 19q-30 18 -40 30q-9 -49 -34.5 -116.5t-63.5 -122.5q-63 -101 -148 -142q-36 -16 -65 -16q-27 0 -79 13q-43 11 -101 34q-74 28 -117 67q-2 6 -2 10q0 13 14 15q4 0 60.5 -22.5t85.5 -30.5q18 -5 32 -5q52 0 134 54q51 33 116 103q14 15 26 29
q85 109 85 159q0 16 -57 92q-52 66 -66 78l68 121q49 -72 98 -146q65 -86 129 -104h319v137q0 18 6 27q31 47 109 123v-56l-33 -215q10 -16 37 -16h35v-119h-103q-20 0 -36 25q-7 14 -25 45q-10 -13 -49 -70h-268zM1129 -223q-13 -31 -56 -99q-26 15 -127 76
q-16 -26 -47 -71l-139 79l59 103l127 -78q15 23 45 70z" />
    <glyph glyph-name="uniFEF3_uniFEE4.liga" unicode="&#xfef3;&#xfee4;" horiz-adv-x="1160" 
d="M478 115.5q10 -1.5 19 -1.5q17 0 17 7q-18 96 -35 121q-13 23 -41 23q-86 -1 -128 -67q109 -65 149 -78q9 -3 19 -4.5zM586 0q-4 -5 -37 -77h-2l-296 162q-20 0 -50 -62q-19 -23 -37 -23h-204v119h217q40 0 65 85q21 55 39 69q59 52 133 89q53 23 85 23h5q27 0 27 -25
v-45q0 -5 -2 -9q22 -80 48 -128q39 -59 72 -59h349q2 0 2 12q0 37 -39 118l-39 81q0 2 60 121q28 -29 60 -118t32 -138q0 -43 -37 -195h-451zM1069 -223q-13 -31 -56 -99q-26 15 -127 76q-16 -26 -47 -71l-139 79l59 103l127 -78q15 23 45 70z" />
    <glyph glyph-name="uniFEF4_uniFEE6.liga" unicode="&#xfef4;&#xfee6;" horiz-adv-x="1423" 
d="M548 561q-15 -33 -64 -108l-156 90l66 108zM914 0q-10 -29 -25.5 -90.5t-73.5 -127t-124 -97.5q-92 -47 -183 -60q-57 -9 -108 -9q-32 0 -63 4q-79 8 -153 54q-88 64 -88 187q-1 9 -1 18q0 57 22 130q12 41 19 59t33 70q26 50 59 78q4 4 8 7q5 3 7 3q1 0 3 -1q1 -1 1 -3
v-1q0 -2 -1 -4q-80 -174 -80 -252v-4q0 -109 82 -166q69 -47 167 -47l29 1q90 5 213 47q169 63 169 155q0 65 -53 174q-48 99 -53 101q3 13 67 143q45 -54 70 -123q37 -105 94 -127h336v137q0 18 6 27q31 47 109 123v-56l-33 -215q10 -16 37 -16h35v-119h-103q-20 0 -36 25
q-7 14 -25 45q-10 -13 -49 -70h-314zM1369 -223q-13 -31 -56 -99q-26 15 -127 76q-16 -26 -47 -71l-139 79l59 103l127 -78q15 23 45 70z" />
    <glyph glyph-name="T_h.liga" unicode="Th" horiz-adv-x="1624" 
d="M1273 0v41q64 5 80 24q15 18 15 88v237q0 179 -143 177q-88 0 -149 -73v-341q0 -70 16 -87q15 -18 81 -25v-41h-330v41q72 7 88 24q17 18 17 91v730q-104 10 -300 10h-97v-708q0 -94 23 -116q24 -23 125 -30v-42h-430v42q98 7 120 30q23 23 23 116v708h-87
q-100 0 -138 -11q-33 -9 -52 -37q-26 -40 -51 -131h-43q13 175 17 271h28q25 -37 86 -37h632q87 0 117 8q27 8 27 30v19q46 6 128 35v-494q103 105 209 106q212 5 212 -253v-248q0 -72 17 -90q15 -18 82 -23v-41h-323z" />
    <glyph glyph-name="f_b.liga" unicode="fb" horiz-adv-x="1215" 
d="M794 637q46 18 71 18q122 0 209 -88q88 -90 88 -217q0 -157 -113 -263q-111 -104 -267 -104q-112 0 -228 52v867q-59 67 -145 67q-58 0 -94 -53q-38 -58 -37 -217l2 -61h169q7 -13 2 -33q-5 -21 -20 -28h-151v-408q0 -79 19 -99q20 -22 106 -29v-41h-357v41q66 7 83 25
q19 20 19 90v421h-106l-6 17l42 44h70v32q0 68 16 119q36 105 117 172q84 69 176 79q68 -2 115 -35q72 22 102 35l7 -9v-440zM683 172q0 -28 7 -51q11 -30 42 -53q38 -30 87 -30q91 -2 146 73t55 201q0 120 -68 194q-64 68 -158 68q-69 0 -111 -26v-376z" />
    <glyph glyph-name="f_f_b.liga" unicode="ffb" horiz-adv-x="1618" 
d="M1088 593q51 19 111 45q37 17 70 17q122 0 209 -88q88 -90 88 -217q0 -157 -115 -263q-112 -104 -268 -104q-108 0 -226 52v865q-57 74 -140 74q-57 0 -93 -51q-38 -53 -41 -225v-60h169q7 -12 2 -32q-5 -21 -18 -29h-153v-424q0 -71 19 -89q18 -17 96 -25v-39h-333v39
q59 9 73 25q16 19 16 89v424h-276v-424q0 -70 17 -88q16 -18 82 -26v-39h-329v41q68 7 84 25q18 18 18 87v424h-106l-5 16l41 45h70v17q0 56 20 111q36 98 124 163q88 66 190 76q115 -4 171 -70q96 95 209 105q73 -2 116 -35q41 9 101 35l7 -7v-440zM554 664q0 105 43 188
q-57 90 -161 90q-78 0 -117 -71q-39 -66 -39 -197v-36h274v26zM1088 173q0 -31 9 -51q9 -28 40 -52q39 -30 88 -31q85 -1 141 71q59 75 59 202q0 122 -68 193q-62 67 -158 67q-66 0 -111 -24v-375z" />
    <glyph glyph-name="f_f.liga" unicode="ff" horiz-adv-x="852" 
d="M146 658q0 67 22 117q35 94 115 156q90 68 187 78q117 -3 180 -74q91 93 199 106q80 -3 125 -53q20 -23 8 -50q-9 -20 -34 -39q-26 -21 -46 1q-64 64 -123 64q-47 0 -74 -45q-29 -53 -28 -226l2 -55h177q7 -11 3 -31q-3 -22 -16 -30h-166v-426q0 -70 20 -88
q19 -17 103 -25v-38h-341v38q60 8 74 25q16 19 16 90v424h-274v-426q0 -69 17 -88q16 -17 82 -25v-38h-329v39q68 7 84 25q17 18 17 87v426h-107l-4 17l41 44h70v20zM549 669q0 63 12 106q8 29 27 71q-62 101 -166 101q-69 0 -106 -66q-41 -73 -41 -204v-39h274v31z" />
    <glyph glyph-name="f_h.liga" unicode="fh" horiz-adv-x="1231" 
d="M880 0v41q64 7 80 25t16 87v237q0 177 -144 177q-90 0 -149 -73v-341q0 -68 16 -87q16 -18 79 -25v-41h-319v41q63 7 78 24q17 19 17 88v749q-60 70 -145 70q-58 0 -96 -54q-33 -50 -33 -222v-58h167q7 -12 2 -33t-18 -30h-151v-409q0 -80 16 -99q14 -18 78 -26v-41h-324
v41q67 8 83 25q17 18 17 87v422h-103l-6 16l41 47h68v25q0 72 16 125q35 103 115 170q90 72 173 82q77 -1 118 -35q51 11 104 35l7 -7v-482q103 103 210 104q211 5 211 -253v-248q0 -71 17 -89q15 -17 82 -24v-41h-323z" />
    <glyph glyph-name="f_f_h.liga" unicode="ffh" horiz-adv-x="1634" 
d="M1283 0v41q65 7 80 24q16 17 16 86v239q0 180 -144 180q-90 -4 -148 -75v-344q0 -68 16 -86q16 -17 80 -24v-41h-318v41q61 7 76 24q17 19 17 88v749q-63 72 -141 72q-66 0 -96 -55q-38 -55 -38 -221v-60h169q7 -12 3 -32q-5 -22 -19 -29h-153v-426q0 -67 18 -86
q17 -17 87 -24v-41h-323v41q58 7 73 25q16 19 16 87v424h-274v-424q0 -68 16 -87q16 -17 81 -25v-41h-325v41q64 7 81 26t17 86v424h-105l-4 16l41 45h68v17q0 51 22 111q36 98 122 163q88 68 194 76q111 -4 169 -70q91 91 202 105q72 0 117 -35q54 11 103 35l8 -7v-482
q103 103 209 104q99 2 154 -58q59 -66 59 -196v-251q0 -68 17 -86q16 -18 81 -23v-41h-324zM554 666q0 106 43 188q-55 88 -160 88q-79 0 -118 -74q-39 -69 -39 -194v-36h274v28z" />
    <glyph glyph-name="f_f_i.liga" unicode="ffi" horiz-adv-x="1209" 
d="M861 0v39q61 7 76 24q16 17 16 83v351q0 54 -12 66q-12 14 -66 14h-196v-431q0 -66 16 -83t81 -24v-39h-319v39q63 7 77 23q15 17 15 85v430h-274v-426q0 -70 16 -88q15 -17 82 -25v-38h-325v39q67 7 82 23q16 18 16 89v426h-105l-5 17l41 44h69v31q0 47 17 106
q36 95 128 165q91 65 187 74q128 -4 179 -79q108 102 226 106q108 -1 164 -71q24 -30 10 -57q-15 -26 -36 -39q-28 -22 -51 1q-83 97 -153 97q-60 0 -97 -59q-41 -59 -41 -212v-63h124q187 0 278 19v-511q0 -66 16 -82q16 -17 86 -25v-39h-322zM549 679q0 53 15 103
q12 41 27 69q-59 99 -166 99q-73 0 -110 -67q-40 -72 -40 -203v-42h274v41z" />
    <glyph glyph-name="f_j.liga" unicode="fj" horiz-adv-x="791" 
d="M403 638q189 0 280 19v-494q0 -141 -35 -236q-64 -172 -180 -285q-22 -19 -43 -19q-17 0 -35 18q-20 20 -20 46q0 25 31 35q84 21 104 49q28 33 38 112q11 96 11 293v319q0 54 -12 67q-13 15 -67 15h-195v-431q0 -66 17 -83t88 -24v-39h-340v39q73 8 89 24q17 17 17 83
v431h-107l-6 17l42 44h71v36q0 64 21 120q37 102 121 167q93 72 189 79q112 -4 162 -70q21 -33 9 -60q-13 -21 -35 -36q-31 -16 -46 1q-76 92 -158 92q-60 0 -92 -58q-42 -68 -42 -219v-52h123z" />
    <glyph glyph-name="f_f_j.liga" unicode="ffj" horiz-adv-x="1194" 
d="M807 638q185 0 278 19l2 -492q0 -145 -35 -236q-69 -190 -181 -289q-23 -17 -41 -17q-17 0 -34 19q-20 22 -20 48t31 35q81 19 103 49q25 33 34 108q13 101 13 287l-1 326q0 55 -10 67q-12 15 -66 15h-198v-431q0 -66 16 -82q17 -17 91 -25v-39h-330v39q64 7 79 24
q16 17 16 84v430h-274v-426q0 -70 15 -88q15 -17 82 -25v-38h-326v39q66 7 82 24q17 19 17 88v426h-106l-5 17l41 44h70v31q0 48 19 103q35 99 124 165q90 65 189 75q128 -4 178 -80q109 102 224 109q104 -2 165 -71q21 -30 8 -57q-12 -24 -34 -40q-30 -20 -51 2
q-89 95 -156 95q-57 0 -94 -58q-40 -61 -40 -211v-63h125zM554 679q0 61 14 106q11 34 28 63q-61 100 -168 100q-74 0 -109 -67q-39 -67 -39 -201v-42h274v41z" />
    <glyph glyph-name="f_k.liga" unicode="fk" horiz-adv-x="1175" 
d="M993 -3q-57 60 -246 288q-23 30 -41 30q-11 1 -24 -2v-157q0 -72 19 -91q17 -17 88 -24v-41h-336v41q68 7 84 24q17 19 17 91v749q-60 65 -142 65q-66 0 -97 -55q-38 -66 -37 -219l2 -58h167q7 -10 3 -32q-5 -23 -17 -31h-153v-406q0 -81 16 -101q15 -19 81 -27v-41h-329
v41q68 8 84 26q18 19 18 89v419h-106l-5 16l40 47h71v25q0 69 16 125q33 100 118 170q89 72 170 82q77 -2 117 -33q56 10 103 33l8 -7v-682q54 12 93 51q55 53 105 128q23 34 17 46q-7 13 -58 18v40l309 13v-40q-114 -16 -191 -81q-31 -29 -128 -139q86 -124 233 -268
q76 -75 140 -78v-41z" />
    <glyph glyph-name="f_f_k.liga" unicode="ffk" horiz-adv-x="1579" 
d="M1398 -3l-247 288q-25 30 -41 30q-11 1 -25 -2v-159q0 -70 19 -89q18 -17 90 -24v-41h-335v41q66 7 81 24q17 18 17 89v746q-62 73 -140 73q-62 0 -95 -52q-39 -59 -39 -223v-60h169q7 -12 2 -33t-18 -28h-153v-428q0 -67 18 -84q16 -16 86 -24v-41h-325v41q61 8 75 24
q17 18 17 84v428h-276v-426q0 -67 17 -85q16 -17 82 -25v-41h-329v42q68 7 84 24q18 18 18 85v426h-106l-6 14l42 47h70v16q0 49 22 115q37 95 121 159q89 69 196 77q114 -4 168 -70q91 91 205 105q71 -2 112 -33q58 9 105 33l6 -7v-682q54 12 93 51q57 53 104 125
q22 33 14 47q-9 14 -56 19v41l311 13v-40q-113 -16 -191 -84q-45 -40 -126 -136q79 -117 231 -266q78 -76 140 -80v-41zM554 666q0 103 43 188q-59 88 -161 88q-74 0 -118 -74q-38 -60 -38 -194v-36h274v28z" />
    <glyph glyph-name="f_f_l.liga" unicode="ffl" horiz-adv-x="1213" 
d="M867 0v39q60 7 74 24q16 17 16 83v759q-42 71 -130 71q-62 0 -100 -48q-44 -55 -44 -216v-74h173q6 -10 2 -32q-5 -22 -18 -29h-155l-2 -430q0 -67 16 -84t82 -24v-39h-321v39q63 7 78 24q16 18 16 84v430h-274v-426q0 -69 16 -87q15 -17 80 -25v-39h-325v39q66 7 82 24
q17 19 17 88v426h-103l-6 17l41 44h68v29q0 57 20 106q35 92 121 159q91 70 196 77q115 -3 176 -72q97 97 208 103q76 1 136 -36q22 9 65 35l13 -9v-884q0 -66 17 -83q16 -17 88 -24v-39h-323zM554 669q0 68 16 120q3 12 27 66q-51 89 -164 89q-77 0 -117 -69
q-36 -68 -36 -198v-39h274v31z" />
    <glyph glyph-name="f_t.liga" unicode="ft" horiz-adv-x="881" 
d="M771 1q-36 -18 -63 -18q-154 0 -154 174v420h-274v-424q0 -70 16 -87q17 -18 91 -25v-41h-342v41q71 8 88 25q17 18 17 85v426h-106l-8 17l41 44h73v36q0 62 16 115q31 103 119 174q85 67 167 77q72 -1 116 -45q24 -28 9 -57q-12 -24 -37 -39q-19 -13 -37 4
q-53 57 -118 57q-49 0 -78 -44q-33 -50 -29 -237l2 -41h274v98l109 102l20 -6v-194h166q11 -11 8 -32t-18 -29h-156v-367q0 -142 88 -142q38 0 90 25l14 -41z" />
    <glyph glyph-name="f_f_t.liga" unicode="fft" horiz-adv-x="1289" 
d="M1173 0q-37 -17 -62 -17q-153 0 -153 174v421h-275v-429q0 -69 19 -86q17 -16 93 -24v-39h-330v39q59 8 73 25q16 18 16 86v428h-274v-429q0 -68 17 -85q15 -17 82 -25v-39h-332v41q69 7 86 23q17 18 17 85v429h-106l-6 16l41 44h71v17q0 58 20 110q36 95 123 163
q90 69 195 77q112 -4 169 -71q91 92 198 106q74 -1 118 -45q24 -28 9 -55t-38 -43q-18 -10 -35 6q-60 60 -121 60q-47 0 -76 -47q-30 -53 -29 -230v-48h275v95l110 103l19 -4v-194h167q11 -11 8 -31t-18 -29h-157v-368q0 -142 87 -142q40 0 90 25l15 -41zM554 667
q0 106 42 185q-59 89 -160 89q-72 0 -117 -66q-41 -66 -41 -201v-36h276v29z" />
    <glyph glyph-name="uni0647.fina" unicode="&#x647;" horiz-adv-x="684" arabic-form="final" 
d="M552 -158q1 9 1 17q0 59 -68 104q-52 36 -126 37h-73q18 -80 94 -129q64 -43 125 -43q29 0 47 14zM543 395l-11 -6q-107 -56 -205 -260q42 12 89 33q58 28 104 63q12 6 25 21q11 24 11 78q0 6 -3 29q-3 17 -10 42zM43 -71q24 79 70 129.5t126 61.5q12 45 40 102
q140 252 331 294q22 -18 22 -80q0 -69 -18 -160q-25 -116 -66 -157h154v-119h-79q12 -34 12 -71q0 -20 -3 -41q-38 -161 -182 -169q-107 0 -172 75q-65 74 -66 202q-81 -6 -153 -77q-3 -4 -6 -7t-5 -4h-2q-2 0 -3 2q-2 2 -2 7t2 12z" />
    <glyph glyph-name="uni0672.fina" unicode="&#x672;" horiz-adv-x="422" 
d="M440 0h-245l-68 852q0 25 2 27q14 24 84 106q6 -47 33 -412q16 -202 45 -395q10 -59 123 -59h26v-119zM281 1075q-40 -33 -81 -33q-2 0 -4 1q-43 1 -76 19t-37 24q-10 -24 -21 -47q-13 -28 -29 -34l-9 6l49 125q7 14 14 30q63 -47 105 -50q9 -1 17 -1q30 0 49 9
q-34 6 -85 33q-5 6 -5 20q0 55 45 99.5t90 44.5q25 0 33 -7q2 0 14 -13q-2 -21 -17 -56q0 1 -16 12q-19 12 -33 12q-4 1 -8 1q-18 0 -37 -11q-31 -16 -31 -39q0 -4 1 -6q15 -17 49 -26q24 -6 77 -6q24 0 54 1l-31 -69q-36 -6 -77 -39z" />
    <glyph glyph-name="uni0673.fina" unicode="&#x673;" horiz-adv-x="422" 
d="M440 0h-245l-68 852q0 25 2 27q14 24 84 106q6 -47 33 -412q16 -202 45 -395q10 -59 123 -59h26v-119zM281 -320q-40 -33 -81 -33q-2 0 -4 1q-43 1 -76 19t-37 24q-10 -24 -21 -47q-13 -28 -29 -34l-9 6l49 125q7 14 14 30q63 -47 105 -50q9 -1 17 -1q30 0 49 9
q-34 6 -85 33q-5 6 -5 20q0 55 45 99.5t90 44.5q25 0 33 -7q2 0 14 -13q-2 -21 -17 -56q0 1 -16 12q-19 12 -33 12q-4 1 -8 1q-18 0 -37 -11q-31 -16 -31 -39q0 -4 1 -6q15 -17 49 -26q24 -6 77 -6q24 0 54 1l-31 -69q-36 -6 -77 -39z" />
    <glyph glyph-name="uni0675.fina" unicode="&#x675;" horiz-adv-x="587" 
d="M605 0h-415l-68 852q0 25 2 27q14 24 84 106q6 -47 33 -412q16 -202 45 -395q10 -59 123 -59h196v-119zM568 1041q-12 -24 -35 -51h-7q-80 0 -228 -86v15q0 13 92 71q-41 6 -101 33q-6 6 -6 20q0 55 53.5 99.5t106.5 44.5q29 0 39 -7q2 0 14 -12q0 -22 -18 -57
q0 1 -19 12q-22 12 -39 12q-24 0 -53 -10q-37 -16 -37 -39q0 -4 2 -6q21 -16 35 -18q62 -13 201 -21z" />
    <glyph glyph-name="uni0676.fina" unicode="&#x676;" horiz-adv-x="815" 
d="M532 119v30q-2 70 -51 119q-19 19 -34 26q-9 4 -17 4q-6 0 -11 -2q-25 -6 -55.5 -41.5t-30.5 -57.5q1 -22 23 -40q29 -20 62 -27t60 -9t54 -2zM477 -270q-49 -58 -110 -88q-36 -16 -65 -16q-27 0 -79 13q-43 11 -101 34q-74 28 -117 67q-2 6 -2 10q0 13 14 15
q4 0 60.5 -22.5t85.5 -30.5q18 -5 32 -5q52 0 134 54q33 21 73 56q11 9 21 19q89 84 117 164q-87 0 -124 5q-95 11 -126 71q-10 18 -10 65q0 31 2 37q10 55 27 92q20 49 51 95.5t72 66.5q12 6 22 6q21 0 37 -12q90 -68 111 -279l2 -28h229v-119h-233q-2 -12 -11 -39
q-43 -143 -112 -231zM782 667q-12 -24 -35 -51h-7q-80 0 -228 -86v15q0 13 92 71q-41 6 -101 33q-6 6 -6 20q0 55 53.5 99.5t106.5 44.5q29 0 39 -7q2 0 14 -12q0 -22 -18 -57q0 1 -19 12q-22 12 -39 12q-24 0 -53 -10q-37 -16 -37 -39q0 -4 2 -6q21 -16 35 -18
q62 -13 201 -21z" />
    <glyph glyph-name="uni0677.fina" unicode="&#x677;" horiz-adv-x="815" 
d="M532 119v30q-2 70 -51 119q-19 19 -34 26q-9 4 -17 4q-6 0 -11 -2q-25 -6 -55.5 -41.5t-30.5 -57.5q1 -22 23 -40q29 -20 62 -27t60 -9t54 -2zM477 -270q-49 -58 -110 -88q-36 -16 -65 -16q-27 0 -79 13q-43 11 -101 34q-74 28 -117 67q-2 6 -2 10q0 13 14 15
q4 0 60.5 -22.5t85.5 -30.5q18 -5 32 -5q52 0 134 54q33 21 73 56q11 9 21 19q89 84 117 164q-87 0 -124 5q-95 11 -126 71q-10 18 -10 65q0 31 2 37q10 55 27 92q20 49 51 95.5t72 66.5q12 6 22 6q21 0 37 -12q90 -68 111 -279l2 -28h229v-119h-233q-2 -12 -11 -39
q-43 -143 -112 -231zM782 667q-12 -24 -35 -51h-7q-80 0 -228 -86v15q0 13 92 71q-41 6 -101 33q-6 6 -6 20q0 55 53.5 99.5t106.5 44.5q29 0 39 -7q2 0 14 -12q0 -22 -18 -57q0 1 -19 12q-22 12 -39 12q-24 0 -53 -10q-37 -16 -37 -39q0 -4 2 -6q21 -16 35 -18
q62 -13 201 -21zM424 818h3q34 0 34 -46q0 -64 -70 -134q24 -15 24 -35q0 -26 -28 -41q-6 22 -47 35q-51 -39 -126 -77.5t-98 -38.5q-4 0 -5 3q-1 0 -1 1q0 12 77 57q100 59 120 78q-55 34 -55 62q0 33 62.5 82.5t109.5 53.5zM377 699q14 19 14 31q0 17 -26 17
q-49 0 -55 -27q-3 -4 -3 -9q0 -13 19 -30q10 -10 21 -19q7 7 30 37z" />
    <glyph glyph-name="uni0678.init" unicode="&#x678;" horiz-adv-x="598" 
d="M548 669q-12 -24 -35 -51h-7q-80 0 -228 -86v15q0 13 92 71q-41 6 -101 33q-6 6 -6 20q0 55 53.5 99.5t106.5 44.5q29 0 39 -7q2 0 14 -12q0 -22 -18 -57q0 1 -19 12q-22 12 -39 12q-24 0 -53 -10q-37 -16 -37 -39q0 -4 2 -6q21 -16 35 -18q62 -13 201 -21zM374 195
q0 -43 -37 -195h-377v119h338q2 0 2 12q0 37 -39 118l-39 81q0 2 60 121q28 -29 60 -118t32 -138z" />
    <glyph glyph-name="uni0678.medi" unicode="&#x678;" horiz-adv-x="633" 
d="M604 689q-12 -24 -35 -51h-7q-80 0 -228 -86v15q0 13 92 71q-41 6 -101 33q-6 6 -6 20q0 55 53.5 99.5t106.5 44.5q29 0 39 -7q2 0 14 -12q0 -22 -18 -57q0 1 -19 12q-22 12 -39 12q-24 0 -53 -10q-37 -16 -37 -39q0 -4 2 -6q21 -16 35 -18q62 -13 201 -21zM338 0
q-20 0 -36 25q-7 14 -25 45q-10 -13 -49 -70h-268v119h327v137q0 18 6 27q31 47 109 123v-56l-33 -215q10 -16 37 -16h245v-119h-313z" />
    <glyph glyph-name="uni0678.fina" unicode="&#x678;" horiz-adv-x="996" 
d="M971 426q-12 -24 -35 -51h-7q-80 0 -228 -86v15q0 13 92 71q-41 6 -101 33q-6 6 -6 20q0 55 53.5 99.5t106.5 44.5q29 0 39 -7q2 0 14 -12q0 -22 -18 -57q0 1 -19 12q-22 12 -39 12q-24 0 -53 -10q-37 -16 -37 -39q0 -4 2 -6q21 -16 35 -18q62 -13 201 -21zM1014 119
v-119h-78q-31 -63 -70 -143q-59 -102 -152.5 -143t-165.5 -50q-60 -8 -127 -8h-28q-123 0 -205 55q-98 66 -98 193q0 92 63 225q60 127 130 186h10q-39 -77 -76 -153q-53 -111 -53 -168q0 -107 96 -160q76 -41 192 -41q271 0 363 92q-4 88 -107 109q-77 10 -155 22
q49 103 67 103h394z" />
    <glyph glyph-name="uni067C.init" unicode="&#x67c;" horiz-adv-x="464" 
d="M371 647l-57 -92q-37 18 -129 74q-14 -23 -45 -70l-137 80q30 59 55 100l127 -77q14 22 45 69zM189 -77q0 15 -26.5 42t-45.5 35l-36 -40q-20 -26 -20 -48q0 -31 40 -31q24 0 53 10q35 13 35 32zM73 0h-113v119h342q2 0 2 12q0 33 -39 117q-37 80 -39 80q0 14 64 121
q35 -50 51 -93q4 -10 12 -32q25 -64 25 -134q0 -24 -33 -190h-111q10 -17 10 -37q-1 -43 -21 -73.5t-56 -53.5q-47 -28 -90 -28q-75 0 -75 56q0 38 53 112z" />
    <glyph glyph-name="uni067C.medi" unicode="&#x67c;" horiz-adv-x="423" 
d="M386 635q-27 -51 -60 -98l-127 73q-26 -32 -45 -69l-137 80q33 67 55 100q43 -25 131 -74q8 12 41 66q23 -13 71 -39.5t71 -38.5zM179 -77q0 15 -26.5 42t-45.5 35l-36 -40q-20 -26 -20 -48q0 -31 40 -31q24 0 53 10q35 13 35 32zM63 0h-103v119h327v137q0 18 6 27
q31 47 109 123v-56l-33 -215q10 -16 37 -16h35v-119h-103q-20 0 -36 25q-7 14 -25 45q-10 -13 -49 -70h-4q10 -17 10 -37q0 -10 -4 -32.5t-21.5 -49.5t-51.5 -45q-47 -28 -90 -28q-75 0 -75 56q0 38 53 112z" />
    <glyph glyph-name="uni067C.fina" unicode="&#x67c;" horiz-adv-x="1153" 
d="M821 508q-19 -33 -55 -94q-43 22 -132 69q-14 -22 -43 -65l-139 80l53 96q29 -12 129 -74q17 17 50 70zM669 -77q0 15 -26.5 42t-45.5 35l-36 -40q-20 -26 -20 -48q0 -31 40 -31q24 0 53 10q35 13 35 32zM553 0h-253q0 1 -32 6q-82 17 -132 70t-50 117q0 49 45 137t78 96
v-18l-24 -54q-24 -53 -24 -75q0 -70 47.5 -115t114.5 -45h694v137q0 18 6 27q31 47 109 123v-56l-33 -215q10 -16 37 -16h35v-119h-103q-20 0 -36 25q-7 14 -25 45q-10 -13 -49 -70h-244q10 -17 10 -37v-4q0 -9 -2 -25q-4 -22 -23 -51t-52 -47q-47 -28 -90 -28q-75 0 -75 56
q0 38 53 112z" />
    <glyph glyph-name="uni067D.init" unicode="&#x67d;" horiz-adv-x="460" 
d="M374 195q0 -43 -37 -195h-377v119h338q2 0 2 12q0 37 -39 118l-39 81q0 2 60 121q28 -29 60 -118t32 -138zM344 629q-12 -29 -55 -99l-137 80l57 98q70 -34 135 -79zM370 811q-18 -31 -55 -94q-72 37 -131 73l-41 -69q-55 26 -141 80q16 32 53 96q29 -12 129 -74
q18 21 45 70z" />
    <glyph glyph-name="uni067D.medi" unicode="&#x67d;" horiz-adv-x="423" 
d="M441 0h-103q-20 0 -36 25q-7 14 -25 45q-10 -13 -49 -70h-268v119h327v137q0 18 6 27q31 47 109 123v-56l-33 -215q10 -16 37 -16h35v-119zM344 629q-12 -29 -55 -99l-137 80l57 98q70 -34 135 -79zM370 811q-18 -31 -55 -94q-72 37 -131 73l-41 -69q-55 26 -141 80
q16 32 53 96q29 -12 129 -74q18 21 45 70z" />
    <glyph glyph-name="uni067D.fina" unicode="&#x67d;" horiz-adv-x="1153" 
d="M300 0q0 1 -32 6q-82 17 -132 70t-50 117q0 49 45 137t78 96v-18l-24 -54q-24 -53 -24 -75q0 -70 47.5 -115t114.5 -45h694v137q0 18 6 27q31 47 109 123v-56l-33 -215q10 -16 37 -16h35v-119h-103q-20 0 -36 25q-7 14 -25 45q-10 -13 -49 -70h-658zM789 496
q-12 -29 -55 -99l-137 80l57 98q70 -34 135 -79zM815 678q-18 -31 -55 -94q-72 37 -131 73l-41 -69q-55 26 -141 80q16 32 53 96q29 -12 129 -74q18 21 45 70z" />
    <glyph glyph-name="uni0681.init" unicode="&#x681;" horiz-adv-x="926" 
d="M112 266q0 25 18 53q43 70 115 93q16 6 49 6q24 0 33 -2q53 -8 104 -41q154 -99 158 -101q92 -55 170 -75q32 -11 110 -11q-8 -20 -24.5 -63t-24.5 -64q-39 11 -72 15q-90 14 -167 14q-64 0 -169 -46q-99 -44 -192 -44h-260v119h330q20 0 61 10t133 53q-30 21 -105 67
t-130 56q-8 2 -23 2q-16 0 -22 -2q-23 -4 -53.5 -26.5t-32.5 -22.5t-3 1q-3 2 -3 8v1zM568 698q-12 -24 -35 -51h-7q-80 0 -228 -86v15q0 13 92 71q-41 6 -101 33q-6 6 -6 20q0 55 53.5 99.5t106.5 44.5q29 0 39 -7q2 0 14 -12q0 -22 -18 -57q0 1 -19 12q-22 12 -39 12
q-24 0 -53 -10q-37 -16 -37 -39q0 -4 2 -6q21 -16 35 -18q62 -13 201 -21z" />
    <glyph glyph-name="uni0681.medi" unicode="&#x681;" horiz-adv-x="909" 
d="M141 279q7 33 54 86q29 33 53 48q20 13 40 16q10 1 20 1q8 0 15 -1q16 -2 63.5 -12t153.5 -38q163 -47 254 -47q49 0 71 4q-14 -43 -49 -127h-104q-66 0 -129 -31q2 -16 15 -37.5t48 -21.5h281v-119h-312q-41 0 -57 24.5t-31 122.5q-57 -52 -128 -99.5t-187 -47.5h-252
v119h251q99 0 187 39q82 37 131 82q-211 59 -256 59q-34 0 -57.5 -10t-46.5 -35t-25 -25t-3 1q-3 1 -4 7v1q-1 6 -1 12q0 14 5 29zM568 698q-12 -24 -35 -51h-7q-80 0 -228 -86v15q0 13 92 71q-41 6 -101 33q-6 6 -6 20q0 55 53.5 99.5t106.5 44.5q29 0 39 -7q2 0 14 -12
q0 -22 -18 -57q0 1 -19 12q-22 12 -39 12q-24 0 -53 -10q-37 -16 -37 -39q0 -4 2 -6q21 -16 35 -18q62 -13 201 -21z" />
    <glyph glyph-name="uni0681.fina" unicode="&#x681;" horiz-adv-x="839" 
d="M495 209q10 -47 23 -68.5t48 -21.5h291v-119h-322q-41 0 -57 24.5t-31 122.5l-7 42q-128 -59 -225 -181q-46 -55 -66 -112q-12 -39 -12 -62q0 -41 12 -82q39 -112 156 -166q59 -28 198 -55q58 -10 129 -16h207q-47 -47 -125 -72q-26 -8 -82.5 -18.5t-126.5 -10.5
q-180 0 -297 70q-137 82 -137 242q0 321 295 522q-29 12 -88 22q-39 4 -82 4q-47 0 -72.5 -5t-46.5 -13l-18 -10q4 45 34.5 92t51.5 59q20 15 49 15h5q32 -2 313 -39h247q-39 -78 -57 -125q-120 -12 -207 -39zM568 698q-12 -24 -35 -51h-7q-80 0 -228 -86v15q0 13 92 71
q-41 6 -101 33q-6 6 -6 20q0 55 53.5 99.5t106.5 44.5q29 0 39 -7q2 0 14 -12q0 -22 -18 -57q0 1 -19 12q-22 12 -39 12q-24 0 -53 -10q-37 -16 -37 -39q0 -4 2 -6q21 -16 35 -18q62 -13 201 -21z" />
    <glyph glyph-name="uni0682.init" unicode="&#x682;" horiz-adv-x="926" 
d="M112 266q0 25 18 53q43 70 115 93q16 6 49 6q24 0 33 -2q53 -8 104 -41q154 -99 158 -101q92 -55 170 -75q32 -11 110 -11q-8 -20 -24.5 -63t-24.5 -64q-39 11 -72 15q-90 14 -167 14q-64 0 -169 -46q-99 -44 -192 -44h-260v119h330q20 0 61 10t133 53q-30 21 -105 67
t-130 56q-8 2 -23 2q-16 0 -22 -2q-23 -4 -53.5 -26.5t-32.5 -22.5t-3 1q-3 2 -3 8v1zM350 783q-58 53 -118 102q38 51 79 92q54 -40 115 -104q-42 -58 -76 -90zM376 599q-63 57 -118 101q35 48 79 93q55 -42 115 -105q-46 -62 -76 -89z" />
    <glyph glyph-name="uni0682.medi" unicode="&#x682;" horiz-adv-x="909" 
d="M141 279q7 33 54 86q29 33 53 48q20 13 40 16q10 1 20 1q8 0 15 -1q16 -2 63.5 -12t153.5 -38q163 -47 254 -47q49 0 71 4q-14 -43 -49 -127h-104q-66 0 -129 -31q2 -16 15 -37.5t48 -21.5h281v-119h-312q-41 0 -57 24.5t-31 122.5q-57 -52 -128 -99.5t-187 -47.5h-252
v119h251q99 0 187 39q82 37 131 82q-211 59 -256 59q-34 0 -57.5 -10t-46.5 -35t-25 -25t-3 1q-3 1 -4 7v1q-1 6 -1 12q0 14 5 29zM370 785q-58 53 -118 102q38 51 79 92q54 -40 115 -104q-42 -58 -76 -90zM396 601q-63 57 -118 101q35 48 79 93q55 -42 115 -105
q-46 -62 -76 -89z" />
    <glyph glyph-name="uni0682.fina" unicode="&#x682;" horiz-adv-x="839" 
d="M495 209q10 -47 23 -68.5t48 -21.5h291v-119h-322q-41 0 -57 24.5t-31 122.5l-7 42q-128 -59 -225 -181q-46 -55 -66 -112q-12 -39 -12 -62q0 -41 12 -82q39 -112 156 -166q59 -28 198 -55q58 -10 129 -16h207q-47 -47 -125 -72q-26 -8 -82.5 -18.5t-126.5 -10.5
q-180 0 -297 70q-137 82 -137 242q0 321 295 522q-29 12 -88 22q-39 4 -82 4q-47 0 -72.5 -5t-46.5 -13l-18 -10q4 45 34.5 92t51.5 59q20 15 49 15h5q32 -2 313 -39h247q-39 -78 -57 -125q-120 -12 -207 -39zM379 783q-58 53 -118 102q38 51 79 92q54 -40 115 -104
q-42 -58 -76 -90zM405 599q-63 57 -118 101q35 48 79 93q55 -42 115 -105q-46 -62 -76 -89z" />
    <glyph glyph-name="uni0685.init" unicode="&#x685;" horiz-adv-x="926" 
d="M112 266q0 25 18 53q43 70 115 93q16 6 49 6q24 0 33 -2q53 -8 104 -41q154 -99 158 -101q92 -55 170 -75q32 -11 110 -11q-8 -20 -24.5 -63t-24.5 -64q-39 11 -72 15q-90 14 -167 14q-64 0 -169 -46q-99 -44 -192 -44h-260v119h330q20 0 61 10t133 53q-30 21 -105 67
t-130 56q-8 2 -23 2q-16 0 -22 -2q-23 -4 -53.5 -26.5t-32.5 -22.5t-3 1q-3 2 -3 8v1zM441 886q-12 -29 -55 -98l-137 80l57 98q70 -35 135 -80zM611 694q-18 -31 -55 -95q-72 37 -131 74l-41 -70q-55 27 -141 80q16 33 53 97q29 -13 129 -74q18 20 45 69z" />
    <glyph glyph-name="uni0685.medi" unicode="&#x685;" horiz-adv-x="909" 
d="M141 279q7 33 54 86q29 33 53 48q20 13 40 16q10 1 20 1q8 0 15 -1q16 -2 63.5 -12t153.5 -38q163 -47 254 -47q49 0 71 4q-14 -43 -49 -127h-104q-66 0 -129 -31q2 -16 15 -37.5t48 -21.5h281v-119h-312q-41 0 -57 24.5t-31 122.5q-57 -52 -128 -99.5t-187 -47.5h-252
v119h251q99 0 187 39q82 37 131 82q-211 59 -256 59q-34 0 -57.5 -10t-46.5 -35t-25 -25t-3 1q-3 1 -4 7v1q-1 6 -1 12q0 14 5 29zM454 886q-12 -29 -55 -98l-137 80l57 98q70 -35 135 -80zM624 694q-18 -31 -55 -95q-72 37 -131 74l-41 -70q-55 27 -141 80q16 33 53 97
q29 -13 129 -74q18 20 45 69z" />
    <glyph glyph-name="uni0685.fina" unicode="&#x685;" horiz-adv-x="839" 
d="M495 209q10 -47 23 -68.5t48 -21.5h291v-119h-322q-41 0 -57 24.5t-31 122.5l-7 42q-128 -59 -225 -181q-46 -55 -66 -112q-12 -39 -12 -62q0 -41 12 -82q39 -112 156 -166q59 -28 198 -55q58 -10 129 -16h207q-47 -47 -125 -72q-26 -8 -82.5 -18.5t-126.5 -10.5
q-180 0 -297 70q-137 82 -137 242q0 321 295 522q-29 12 -88 22q-39 4 -82 4q-47 0 -72.5 -5t-46.5 -13l-18 -10q4 45 34.5 92t51.5 59q20 15 49 15h5q32 -2 313 -39h247q-39 -78 -57 -125q-120 -12 -207 -39zM474 883q-12 -29 -55 -98l-137 80l57 98q70 -35 135 -80z
M644 691q-18 -31 -55 -95q-72 37 -131 74l-41 -70q-55 27 -141 80q16 33 53 97q29 -13 129 -74q18 20 45 69z" />
    <glyph glyph-name="uni0689.fina" unicode="&#x689;" horiz-adv-x="705" 
d="M389 -101q0 15 -26.5 42t-45.5 35l-36 -40q-20 -26 -20 -48q0 -31 40 -31q24 0 53 10q35 13 35 32zM425 -11q19 -22 19 -50q0 -5 -4.5 -26.5t-24 -52.5t-48.5 -48q-47 -28 -90 -28q-75 0 -75 56q0 38 53 112l16 20q-28 -1 -52 -1q-64 0 -80.5 5.5t-27 17t-15.5 41.5
q-1 14 -1 27q0 82 46 151q12 -4 14 -59q2 -21 12 -36.5t39 -19.5t87 -4q86 0 190 25q41 10 51 78l-65 252q10 20 33.5 64t33.5 65q27 -60 52 -240q22 -156 65 -208q7 -10 22 -11h48v-119h-38q-37 1 -58 14q-23 13 -39 47l-27 54q-26 -62 -68 -109q-10 -8 -68 -17z" />
    <glyph glyph-name="uni068A.fina" unicode="&#x68a;" horiz-adv-x="705" 
d="M685 0q-37 1 -58 14q-23 13 -39 47l-27 54q-26 -62 -68 -109q-12 -10 -100 -22q-102 -13 -174 -13q-64 0 -80.5 5.5t-27 17t-15.5 41.5q-1 14 -1 27q0 82 46 151q12 -4 14 -59q2 -21 12 -36.5t39 -19.5t87 -4q86 0 190 25q41 10 51 78l-65 252q10 20 33.5 64t33.5 65
q27 -60 52 -240q22 -156 65 -208q7 -10 22 -11h48v-119h-38zM427 -227q-6 -15 -60 -103l-133 84q35 60 56 94q0 -2 137 -75z" />
    <glyph glyph-name="uni068B.fina" unicode="&#x68b;" horiz-adv-x="705" 
d="M685 0q-37 1 -58 14q-23 13 -39 47l-27 54q-26 -62 -68 -109q-12 -10 -100 -22q-102 -13 -174 -13q-64 0 -80.5 5.5t-27 17t-15.5 41.5q-1 14 -1 27q0 82 46 151q12 -4 14 -59q2 -21 12 -36.5t39 -19.5t87 -4q86 0 190 25q41 10 51 78l-65 252q10 20 33.5 64t33.5 65
q27 -60 52 -240q22 -156 65 -208q7 -10 22 -11h48v-119h-38zM608 751q0 -7 -7 -25q-8 -21 -21 -40q-4 -5 -7 -5h-270q-16 0 -26 4t-19.5 12t-14.5 21q-3 8 -3 19q0 15 7 38q9 20 13 23l8 3q-9 -35 -9 -44v-1q0 -9 1 -11q3 -18 24.5 -21t44.5 -3q17 0 29 2q15 2 22 13
q2 3 2 5t-1.5 15.5t-2.5 20.5q-1 9 -3 29q-2 36 -9 110q0 3 -2 4q-6 4 -10 11v5q0 6 5 16q8 15 25 40l5 -2q1 -1 1 -4v-4q0 -1 -1.5 -4.5t-1.5 -5.5q0 -3 7.5 -8t32.5 -17q-21 -49 -25 -49q-2 0 -2.5 0.5t-1.5 0.5l5 -83q0 -10 -1 -28q-2 -30 -7 -49v-2q8 4 25 18
q22 17 30 22q21 14 61 37q12 5 22 5q11 0 22 -5q25 -12 43 -35q4 -6 6 -10q4 -14 4 -18zM576 729q0 14 -21 30q-17 13 -30 18q-6 2 -13 2q-9 0 -22 -5t-40 -27t-39 -25h133q2 -1 6 -1q8 0 19 3q3 2 7 5zM427 -227q-6 -15 -60 -103l-133 84q35 60 56 94q0 -2 137 -75z" />
    <glyph glyph-name="uni068F.fina" unicode="&#x68f;" horiz-adv-x="705" 
d="M685 0q-37 1 -58 14q-23 13 -39 47l-27 54q-26 -62 -68 -109q-12 -10 -100 -22q-102 -13 -174 -13q-64 0 -80.5 5.5t-27 17t-15.5 41.5q-1 14 -1 27q0 82 46 151q12 -4 14 -59q2 -21 12 -36.5t39 -19.5t87 -4q86 0 190 25q41 10 51 78l-65 252q10 20 33.5 64t33.5 65
q27 -60 52 -240q22 -156 65 -208q7 -10 22 -11h48v-119h-38zM595 792q-12 -29 -55 -99l-137 80l57 98q70 -34 135 -79zM621 974q-18 -31 -55 -94q-72 37 -131 73l-41 -69q-55 26 -141 80q16 32 53 96q29 -12 129 -74q18 21 45 70z" />
    <glyph glyph-name="uni0690.fina" unicode="&#x690;" horiz-adv-x="705" 
d="M685 0q-37 1 -58 14q-23 13 -39 47l-27 54q-26 -62 -68 -109q-12 -10 -100 -22q-102 -13 -174 -13q-64 0 -80.5 5.5t-27 17t-15.5 41.5q-1 14 -1 27q0 82 46 151q12 -4 14 -59q2 -21 12 -36.5t39 -19.5t87 -4q86 0 190 25q41 10 51 78l-65 252q10 20 33.5 64t33.5 65
q27 -60 52 -240q22 -156 65 -208q7 -10 22 -11h48v-119h-38zM586 968q-19 -33 -55 -94q-43 22 -132 69q-14 -22 -43 -65l-139 80l53 96q29 -12 129 -74q17 17 50 70zM655 796q-19 -33 -55 -94q-43 22 -132 69q-14 -22 -43 -65l-139 80l53 96q29 -12 129 -74q17 17 50 70z
" />
    <glyph glyph-name="uni0692.fina" unicode="&#x692;" horiz-adv-x="743" 
d="M725 0q-42 0 -72 18.5t-40 30.5q-9 -49 -34.5 -116.5t-63.5 -122.5q-63 -101 -148 -142q-36 -16 -65 -16q-27 0 -79 13q-43 11 -101 34q-74 28 -117 67q-2 6 -2 10q0 13 14 15q4 0 60.5 -22.5t85.5 -30.5q18 -5 32 -5q52 0 134 54q51 33 116 103q14 15 26 29
q85 109 85 159q0 16 -57 92q-52 66 -66 78l68 121q49 -72 98 -146q65 -86 129 -104h33v-119h-36zM636 771q-134 -153 -150 -212l-19 -10q-10 60 -175 195l23 97h8q121 -119 154 -176h3q29 61 133 181q15 -34 23 -75z" />
    <glyph glyph-name="uni0693.fina" unicode="&#x693;" horiz-adv-x="743" 
d="M495 -373q0 15 -26.5 42t-45.5 35l-36 -40q-20 -26 -20 -48q0 -31 40 -31q24 0 53 10q35 13 35 32zM347 -340q-24 -8 -45 -8q-27 0 -79 13q-43 11 -101 34q-74 28 -117 67q-2 6 -2 10q0 13 14 15q4 0 60.5 -22.5t85.5 -30.5q18 -5 32 -5q52 0 134 54q51 33 116 103
q14 15 26 29q85 109 85 159q0 16 -57 92q-52 66 -66 78l68 121q49 -72 98 -146q65 -86 129 -104h33v-119h-36q-42 0 -72 18.5t-40 30.5q-9 -49 -34.5 -116.5t-63.5 -122.5q-17 -27 -36 -50l42 -34q29 -25 29 -59q0 -5 -3 -30.5t-21.5 -52t-52.5 -44.5q-47 -28 -90 -28
q-75 0 -75 56q0 33 39 92z" />
    <glyph glyph-name="uni0694.fina" unicode="&#x694;" horiz-adv-x="743" 
d="M725 0q-42 0 -72 18.5t-40 30.5q-9 -49 -34.5 -116.5t-63.5 -122.5q-63 -101 -148 -142q-36 -16 -65 -16q-27 0 -79 13q-43 11 -101 34q-74 28 -117 67q-2 6 -2 10q0 13 14 15q4 0 60.5 -22.5t85.5 -30.5q18 -5 32 -5q52 0 134 54q51 33 116 103q14 15 26 29
q85 109 85 159q0 16 -57 92q-52 66 -66 78l68 121q49 -72 98 -146q65 -86 129 -104h33v-119h-36zM572 -508l-55 -96h-14l-123 78q29 51 53 98z" />
    <glyph glyph-name="uni0695.fina" unicode="&#x695;" horiz-adv-x="743" 
d="M725 0q-42 0 -72 18.5t-40 30.5q-9 -49 -34.5 -116.5t-63.5 -122.5q-63 -101 -148 -142q-36 -16 -65 -16q-27 0 -79 13q-43 11 -101 34q-74 28 -117 67q-2 6 -2 10q0 13 14 15q4 0 60.5 -22.5t85.5 -30.5q18 -5 32 -5q52 0 134 54q51 33 116 103q14 15 26 29
q85 109 85 159q0 16 -57 92q-52 66 -66 78l68 121q49 -72 98 -146q65 -86 129 -104h33v-119h-36zM619 -539q-134 -153 -150 -212l-19 -10q-10 60 -175 195l23 97h8q121 -119 154 -176h3q29 61 133 181q15 -34 23 -75z" />
    <glyph glyph-name="uni0696.fina" unicode="&#x696;" horiz-adv-x="743" 
d="M725 0q-42 0 -72 18.5t-40 30.5q-9 -49 -34.5 -116.5t-63.5 -122.5q-63 -101 -148 -142q-36 -16 -65 -16q-27 0 -79 13q-43 11 -101 34q-74 28 -117 67q-2 6 -2 10q0 13 14 15q4 0 60.5 -22.5t85.5 -30.5q18 -5 32 -5q52 0 134 54q51 33 116 103q14 15 26 29
q85 109 85 159q0 16 -57 92q-52 66 -66 78l68 121q49 -72 98 -146q65 -86 129 -104h33v-119h-36zM572 -508l-55 -96h-14l-123 78q29 51 53 98zM376 35l-55 -96h-14l-123 78q29 51 53 98z" />
    <glyph glyph-name="uni0697.fina" unicode="&#x697;" horiz-adv-x="743" 
d="M725 0q-42 0 -72 18.5t-40 30.5q-9 -49 -34.5 -116.5t-63.5 -122.5q-63 -101 -148 -142q-36 -16 -65 -16q-27 0 -79 13q-43 11 -101 34q-74 28 -117 67q-2 6 -2 10q0 13 14 15q4 0 60.5 -22.5t85.5 -30.5q18 -5 32 -5q52 0 134 54q51 33 116 103q14 15 26 29
q85 109 85 159q0 16 -57 92q-52 66 -66 78l68 121q49 -72 98 -146q65 -86 129 -104h33v-119h-36zM625 639q-18 -31 -55 -95q-72 37 -131 74l-41 -70q-55 27 -141 80q16 33 53 97q29 -13 129 -74q18 20 45 69z" />
    <glyph glyph-name="uni0699.fina" unicode="&#x699;" horiz-adv-x="743" 
d="M725 0q-42 0 -72 18.5t-40 30.5q-9 -49 -34.5 -116.5t-63.5 -122.5q-63 -101 -148 -142q-36 -16 -65 -16q-27 0 -79 13q-43 11 -101 34q-74 28 -117 67q-2 6 -2 10q0 13 14 15q4 0 60.5 -22.5t85.5 -30.5q18 -5 32 -5q52 0 134 54q51 33 116 103q14 15 26 29
q85 109 85 159q0 16 -57 92q-52 66 -66 78l68 121q49 -72 98 -146q65 -86 129 -104h33v-119h-36zM554 810q-19 -33 -56 -94q-43 22 -131 69q-14 -22 -43 -65l-139 80l53 96q29 -12 129 -74q17 17 49 70zM623 638q-19 -33 -56 -94q-43 22 -131 69q-14 -22 -43 -65l-139 80
l53 96q29 -12 129 -74q17 17 49 70z" />
    <glyph glyph-name="uni069A.init" unicode="&#x69a;" horiz-adv-x="939" 
d="M216 119q39 0 43 59q2 31 2 64q51 55 111 112q-4 -53 -11 -104q-10 -80 -38 -115q7 -12 36 -16q54 -4 91 -4t94 4q0 28 5 88q9 29 114 125l-45 -213q25 -1 38.5 -2t44.5 -1t44.5 1t34.5 2q2 4 2 12q0 19 -12 60l-13 42q0 11 48 64q24 29 51 55v-212q0 -61 -47 -140
q-17 0 -59 -4t-46 -4q-69 0 -109 18l-40 19q-38 -28 -58 -30q-27 -4 -60 -4q-36 0 -94.5 3t-93.5 43q-28 -41 -80 -41h-209v119h256zM553 575l-55 -104l-137 78q8 14 24.5 46.5t24.5 47.5zM553 -227q-6 -15 -59 -103l-134 84q35 60 56 94q0 -2 137 -75z" />
    <glyph glyph-name="uni069A.medi" unicode="&#x69a;" horiz-adv-x="875" 
d="M553 575l-55 -104l-137 78q8 14 24.5 46.5t24.5 47.5zM859 0q-105 -8 -155 -8q-69 0 -109 18l-40 19q-38 -28 -58 -30q-27 -4 -60 -4q-36 0 -94.5 3t-93.5 43q-28 -41 -80 -41h-209v119h256q39 0 43 59q2 31 2 64q51 55 111 112q-4 -53 -11 -104q-10 -80 -38 -115
q7 -12 36 -16q54 -4 91 -4t94 4q0 28 5 88q9 29 114 125l-45 -213q25 -1 38.5 -2t44.5 -1t45 1q12 1 32 2h1v7q0 23 -9 67q-10 43 -12 46q4 10 99 113v-178q0 -2 -9 -55h45v-119h-34zM553 -227q-6 -15 -59 -103l-134 84q35 60 56 94q0 -2 137 -75z" />
    <glyph glyph-name="uni069A.fina" unicode="&#x69a;" horiz-adv-x="1335" 
d="M814 -3l-5 -36q-35 -172 -190 -246q-117 -55 -267 -55q-112 0 -182 51q-80 60 -80 176q0 74 36 178q34 99 81 151q4 5 9 7q2 1 4 1q3 0 7 -2q4 -3 5 -8v-2q0 -5 -5 -13q-29 -49 -52 -110.5t-23 -113.5q0 -102 77 -153q64 -41 154 -41q82 0 201 39q155 51 155 133
q0 88 -94 240l60 133q20 -23 58 -110t64 -97l6 -1q40 -3 77 -3t94 4q0 28 5 88q9 29 114 125l-45 -213q25 -1 38.5 -2t44.5 -1t45 1q12 1 32 2h1v7q0 23 -9 67q-10 43 -12 46q4 10 99 113v-178q0 -2 -9 -55h45v-119h-34q-105 -8 -155 -8q-69 0 -109 18l-40 19
q-38 -28 -58 -30q-27 -4 -60 -4t-83 2zM1103 575l-55 -104l-137 78q8 14 24.5 46.5t24.5 47.5zM1103 -227q-6 -15 -59 -103l-134 84q35 60 56 94q0 -2 137 -75z" />
    <glyph glyph-name="uni069B.init" unicode="&#x69b;" horiz-adv-x="939" 
d="M216 119q39 0 43 59q2 31 2 64q51 55 111 112q-4 -53 -11 -104q-10 -80 -38 -115q7 -12 36 -16q54 -4 91 -4t94 4q0 28 5 88q9 29 114 125l-45 -213q25 -1 38.5 -2t44.5 -1t44.5 1t34.5 2q2 4 2 12q0 19 -12 60l-13 42q0 11 48 64q24 29 51 55v-212q0 -61 -47 -140
q-17 0 -59 -4t-46 -4q-69 0 -109 18l-40 19q-38 -28 -58 -30q-27 -4 -60 -4q-36 0 -94.5 3t-93.5 43q-28 -41 -80 -41h-209v119h256zM655 -408q-12 -29 -55 -99l-137 80l57 98q70 -34 135 -79zM681 -226q-18 -31 -55 -94q-72 37 -131 73l-41 -69q-55 26 -141 80q16 32 53 96
q29 -12 129 -74q18 21 45 70z" />
    <glyph glyph-name="uni069B.medi" unicode="&#x69b;" horiz-adv-x="875" 
d="M859 0q-105 -8 -155 -8q-69 0 -109 18l-40 19q-38 -28 -58 -30q-27 -4 -60 -4q-36 0 -94.5 3t-93.5 43q-28 -41 -80 -41h-209v119h256q39 0 43 59q2 31 2 64q51 55 111 112q-4 -53 -11 -104q-10 -80 -38 -115q7 -12 36 -16q54 -4 91 -4t94 4q0 28 5 88q9 29 114 125
l-45 -213q25 -1 38.5 -2t44.5 -1t45 1q12 1 32 2h1v7q0 23 -9 67q-10 43 -12 46q4 10 99 113v-178q0 -2 -9 -55h45v-119h-34zM655 -408q-12 -29 -55 -99l-137 80l57 98q70 -34 135 -79zM681 -226q-18 -31 -55 -94q-72 37 -131 73l-41 -69q-55 26 -141 80q16 32 53 96
q29 -12 129 -74q18 21 45 70z" />
    <glyph glyph-name="uni069B.fina" unicode="&#x69b;" horiz-adv-x="1335" 
d="M814 -3l-5 -36q-35 -172 -190 -246q-117 -55 -267 -55q-112 0 -182 51q-80 60 -80 176q0 74 36 178q34 99 81 151q4 5 9 7q2 1 4 1q3 0 7 -2q4 -3 5 -8v-2q0 -5 -5 -13q-29 -49 -52 -110.5t-23 -113.5q0 -102 77 -153q64 -41 154 -41q82 0 201 39q155 51 155 133
q0 88 -94 240l60 133q20 -23 58 -110t64 -97l6 -1q40 -3 77 -3t94 4q0 28 5 88q9 29 114 125l-45 -213q25 -1 38.5 -2t44.5 -1t45 1q12 1 32 2h1v7q0 23 -9 67q-10 43 -12 46q4 10 99 113v-178q0 -2 -9 -55h45v-119h-34q-105 -8 -155 -8q-69 0 -109 18l-40 19
q-38 -28 -58 -30q-27 -4 -60 -4t-83 2zM1225 -408q-12 -29 -55 -99l-137 80l57 98q70 -34 135 -79zM1251 -226q-18 -31 -55 -94q-72 37 -131 73l-41 -69q-55 26 -141 80q16 32 53 96q29 -12 129 -74q18 21 45 70z" />
    <glyph glyph-name="uni069C.init" unicode="&#x69c;" horiz-adv-x="939" 
d="M216 119q39 0 43 59q2 31 2 64q51 55 111 112q-4 -53 -11 -104q-10 -80 -38 -115q7 -12 36 -16q54 -4 91 -4t94 4q0 28 5 88q9 29 114 125l-45 -213q25 -1 38.5 -2t44.5 -1t44.5 1t34.5 2q2 4 2 12q0 19 -12 60l-13 42q0 11 48 64q24 29 51 55v-212q0 -61 -47 -140
q-17 0 -59 -4t-46 -4q-69 0 -109 18l-40 19q-38 -28 -58 -30q-27 -4 -60 -4q-36 0 -94.5 3t-93.5 43q-28 -41 -80 -41h-209v119h256zM553 778l-55 -104l-137 78q8 14 24.5 46.5t24.5 47.5zM689 569q-17 -30 -52 -98q-43 25 -131 74q-4 -4 -41 -66q-24 13 -141 76q2 6 53 104
q54 -26 138 -81q12 6 24 30q17 35 21 39zM655 -408q-12 -29 -55 -99l-137 80l57 98q70 -34 135 -79zM681 -226q-18 -31 -55 -94q-72 37 -131 73l-41 -69q-55 26 -141 80q16 32 53 96q29 -12 129 -74q18 21 45 70z" />
    <glyph glyph-name="uni069C.medi" unicode="&#x69c;" horiz-adv-x="875" 
d="M553 778l-55 -104l-137 78q8 14 24.5 46.5t24.5 47.5zM689 569q-17 -30 -52 -98q-43 25 -131 74q-4 -4 -41 -66q-24 13 -141 76q2 6 53 104q54 -26 138 -81q12 6 24 30q17 35 21 39zM859 0q-105 -8 -155 -8q-69 0 -109 18l-40 19q-38 -28 -58 -30q-27 -4 -60 -4
q-36 0 -94.5 3t-93.5 43q-28 -41 -80 -41h-209v119h256q39 0 43 59q2 31 2 64q51 55 111 112q-4 -53 -11 -104q-10 -80 -38 -115q7 -12 36 -16q54 -4 91 -4t94 4q0 28 5 88q9 29 114 125l-45 -213q25 -1 38.5 -2t44.5 -1t45 1q12 1 32 2h1v7q0 23 -9 67q-10 43 -12 46
q4 10 99 113v-178q0 -2 -9 -55h45v-119h-34zM655 -408q-12 -29 -55 -99l-137 80l57 98q70 -34 135 -79zM681 -226q-18 -31 -55 -94q-72 37 -131 73l-41 -69q-55 26 -141 80q16 32 53 96q29 -12 129 -74q18 21 45 70z" />
    <glyph glyph-name="uni069C.fina" unicode="&#x69c;" horiz-adv-x="1335" 
d="M814 -3l-5 -36q-35 -172 -190 -246q-117 -55 -267 -55q-112 0 -182 51q-80 60 -80 176q0 74 36 178q34 99 81 151q4 5 9 7q2 1 4 1q3 0 7 -2q4 -3 5 -8v-2q0 -5 -5 -13q-29 -49 -52 -110.5t-23 -113.5q0 -102 77 -153q64 -41 154 -41q82 0 201 39q155 51 155 133
q0 88 -94 240l60 133q20 -23 58 -110t64 -97l6 -1q40 -3 77 -3t94 4q0 28 5 88q9 29 114 125l-45 -213q25 -1 38.5 -2t44.5 -1t45 1q12 1 32 2h1v7q0 23 -9 67q-10 43 -12 46q4 10 99 113v-178q0 -2 -9 -55h45v-119h-34q-105 -8 -155 -8q-69 0 -109 18l-40 19
q-38 -28 -58 -30q-27 -4 -60 -4t-83 2zM1103 778l-55 -104l-137 78q8 14 24.5 46.5t24.5 47.5zM1239 569q-17 -30 -52 -98q-43 25 -131 74q-4 -4 -41 -66q-24 13 -141 76q2 6 53 104q54 -26 138 -81q12 6 24 30q17 35 21 39zM1225 -408q-12 -29 -55 -99l-137 80l57 98
q70 -34 135 -79zM1251 -226q-18 -31 -55 -94q-72 37 -131 73l-41 -69q-55 26 -141 80q16 32 53 96q29 -12 129 -74q18 21 45 70z" />
    <glyph glyph-name="uni069D.init" unicode="&#x69d;" horiz-adv-x="1233" 
d="M931 276q-28 11 -57 11h-5q-41 0 -74 -15q-41 -16 -130 -80.5t-118 -72.5h465q19 0 43 16q1 3 1 7q0 33 -54 84q-42 39 -71 50zM249 41q-28 -41 -80 -41h-209v119h256q39 0 43 59q2 31 2 64q51 55 111 112q-4 -53 -11 -104q-10 -80 -38 -115q7 -12 36 -16h39q16 0 41 12
q16 8 30 16q27 13 86 50q6 4 164 114q101 72 154 88q43 15 63 15q58 0 137.5 -72t79.5 -135q0 -25 -24 -72q-19 -35 -58 -106q-18 -29 -43 -29h-578l-104 1q-73 0 -97 40zM916 -223q-13 -31 -56 -99q-26 15 -127 76q-16 -26 -47 -71l-139 79l59 103l127 -78q15 23 45 70z
" />
    <glyph glyph-name="uni069D.medi" unicode="&#x69d;" horiz-adv-x="1195" 
d="M931 276q-28 11 -57 11h-5q-41 0 -74 -15q-41 -16 -130 -80.5t-118 -72.5h465q19 0 43 16q1 3 1 7q0 33 -54 84q-42 39 -71 50zM450 0l-104 1q-73 0 -97 40q-28 -41 -80 -41h-209v119h256q39 0 43 59q2 31 2 64q51 55 111 112q-4 -53 -11 -104q-10 -80 -38 -115
q7 -12 36 -16h39q16 0 41 12q16 8 30 16q27 13 86 50q6 4 164 114q101 72 154 88q43 15 63 15q58 0 137.5 -72t79.5 -135q0 -25 -24 -72q-4 -7 -9 -16h93v-119h-763zM916 -223q-13 -31 -56 -99q-26 15 -127 76q-16 -26 -47 -71l-139 79l59 103l127 -78q15 23 45 70z" />
    <glyph glyph-name="uni069D.fina" unicode="&#x69d;" horiz-adv-x="1624" 
d="M1370 276q-28 11 -57 11h-5q-41 0 -74 -15q-41 -16 -130 -80.5t-118 -72.5h465q19 0 43 16q1 3 1 7q0 33 -54 84q-42 39 -71 50zM814 0l-5 -39q-35 -172 -190 -246q-117 -55 -267 -55q-112 0 -182 51q-80 60 -80 176q0 74 36 178q34 99 81 151q4 5 9 7q2 1 4 1q3 0 7 -2
q4 -3 5 -8v-2q0 -5 -5 -13q-29 -49 -52 -110.5t-23 -113.5q0 -102 77 -153q64 -41 154 -41q82 0 201 39q155 51 155 133q0 88 -94 240l60 133q20 -23 58 -110t64 -97h10q16 0 41 12q16 8 30 16q27 13 86 50q6 4 164 114q101 72 154 88q43 15 63 15q58 0 137.5 -72t79.5 -135
q0 -25 -24 -72q-4 -7 -9 -16h83v-119h-828zM1425 -223q-12 -31 -55 -99q-27 15 -127 76q-17 -26 -48 -71l-139 79l60 103l127 -78q14 23 45 70z" />
    <glyph glyph-name="uni069E.init" unicode="&#x69e;" horiz-adv-x="1233" 
d="M931 276q-28 11 -57 11h-5q-41 0 -74 -15q-41 -16 -130 -80.5t-118 -72.5h465q19 0 43 16q1 3 1 7q0 33 -54 84q-42 39 -71 50zM249 41q-28 -41 -80 -41h-209v119h256q39 0 43 59q2 31 2 64q51 55 111 112q-4 -53 -11 -104q-10 -80 -38 -115q7 -12 36 -16h39q16 0 41 12
q16 8 30 16q27 13 86 50q6 4 164 114q101 72 154 88q43 15 63 15q58 0 137.5 -72t79.5 -135q0 -25 -24 -72q-19 -35 -58 -106q-18 -29 -43 -29h-578l-104 1q-73 0 -97 40zM777 850l-55 -104l-137 78q8 14 24.5 46.5t24.5 47.5zM913 641q-17 -30 -52 -98q-43 25 -131 74
q-4 -4 -41 -66q-24 13 -141 76q2 6 53 104q54 -26 138 -81q12 6 24 30q17 35 21 39z" />
    <glyph glyph-name="uni069E.medi" unicode="&#x69e;" horiz-adv-x="1195" 
d="M931 276q-28 11 -57 11h-5q-41 0 -74 -15q-41 -16 -130 -80.5t-118 -72.5h465q19 0 43 16q1 3 1 7q0 33 -54 84q-42 39 -71 50zM450 0l-104 1q-73 0 -97 40q-28 -41 -80 -41h-209v119h256q39 0 43 59q2 31 2 64q51 55 111 112q-4 -53 -11 -104q-10 -80 -38 -115
q7 -12 36 -16h39q16 0 41 12q16 8 30 16q27 13 86 50q6 4 164 114q101 72 154 88q43 15 63 15q58 0 137.5 -72t79.5 -135q0 -25 -24 -72q-4 -7 -9 -16h93v-119h-763zM774 853l-55 -104l-137 78q8 14 24.5 46.5t24.5 47.5zM910 644q-17 -30 -52 -98q-43 25 -131 74
q-4 -4 -41 -66q-24 13 -141 76q2 6 53 104q54 -26 138 -81q12 6 24 30q17 35 21 39z" />
    <glyph glyph-name="uni069E.fina" unicode="&#x69e;" horiz-adv-x="1624" 
d="M1370 276q-28 11 -57 11h-5q-41 0 -74 -15q-41 -16 -130 -80.5t-118 -72.5h465q19 0 43 16q1 3 1 7q0 33 -54 84q-42 39 -71 50zM814 0l-5 -39q-35 -172 -190 -246q-117 -55 -267 -55q-112 0 -182 51q-80 60 -80 176q0 74 36 178q34 99 81 151q4 5 9 7q2 1 4 1q3 0 7 -2
q4 -3 5 -8v-2q0 -5 -5 -13q-29 -49 -52 -110.5t-23 -113.5q0 -102 77 -153q64 -41 154 -41q82 0 201 39q155 51 155 133q0 88 -94 240l60 133q20 -23 58 -110t64 -97h10q16 0 41 12q16 8 30 16q27 13 86 50q6 4 164 114q101 72 154 88q43 15 63 15q58 0 137.5 -72t79.5 -135
q0 -25 -24 -72q-4 -7 -9 -16h83v-119h-828zM1210 853l-55 -104l-137 78q8 14 24.5 46.5t24.5 47.5zM1346 644q-17 -30 -52 -98q-43 25 -131 74q-4 -4 -41 -66q-24 13 -141 76q2 6 53 104q54 -26 138 -81q12 6 24 30q17 35 21 39z" />
    <glyph glyph-name="uni069F.init" unicode="&#x69f;" horiz-adv-x="968" 
d="M888 209q0 -23 -37 -111q-43 -98 -70 -98h-821v119h178q21 0 48.5 21.5t27.5 45.5q0 4 -5 45t-7 62q-2 31 -9 90q-6 104 -26 315q-12 13 -33 41q-6 9 -6 23q0 16 40 82.5t56 83.5q12 -8 12 -21q0 -6 -4 -19.5t-4 -17.5q0 -20 121 -79l-74 -146q-4 4 -8 4q0 -51 6 -150
l6 -96q0 -77 -26 -235q16 8 106 65q72 56 144 109q102 72 164 72q59 0 140 -72t81 -133zM798 154q0 34 -76 83.5t-121 49.5q-59 0 -149 -66q-127 -94 -136 -98h437q10 0 27.5 10t17.5 21zM701 839l-55 -104l-137 78q8 14 24.5 46.5t24.5 47.5zM837 630q-17 -30 -52 -98
q-43 25 -131 74q-4 -4 -41 -66q-24 13 -141 76q2 6 53 104q54 -26 138 -81q12 6 24 30q17 35 21 39z" />
    <glyph glyph-name="uni069F.medi" unicode="&#x69f;" horiz-adv-x="954" 
d="M972 0h-1012v119h170q33 0 68 14q45 19 45 47l-13 101q-4 38 -12 118q-16 195 -29 299q0 9 -4 13q-28 20 -28 45q0 20 42 94t52 74q14 0 14 -17q0 -8 -5 -23l-5 -16q0 -16 59 -49q49 -26 64 -28l-70 -148q-2 0 -8 3t-8 3q2 -43 10 -133q6 -82 6 -86l-2 -21q-2 -26 -2 -79
q-4 -70 -25 -158v-4q9 4 218 151q127 91 194 91q62 0 141 -66q84 -72 84 -137q0 -19 -30 -88h86v-119zM820 143v4q0 36 -65 89q-70 55 -127 55q-62 0 -142 -64q-114 -88 -153 -108h401q27 0 66 8q8 6 20 16zM665 836l-55 -104l-137 78q8 14 24.5 46.5t24.5 47.5zM801 627
q-17 -30 -52 -98q-43 25 -131 74q-4 -4 -41 -66q-24 13 -141 76q2 6 53 104q54 -26 138 -81q12 6 24 30q17 35 21 39z" />
    <glyph glyph-name="uni069F.fina" unicode="&#x69f;" horiz-adv-x="1181" 
d="M1052 154q0 6 -11 22q-34 53 -104 92q-41 23 -80 23q-31 0 -66 -15q-43 -16 -127 -86q-75 -63 -104 -71h403q19 0 51 8q38 10 38 27zM237 0q-48 0 -77.5 11.5t-57.5 35t-42 62.5q-10 24 -10 59q0 43 22 111q27 61 38 68l22 9q-26 -103 -26 -131v-2q1 -26 3 -33
q10 -53 73.5 -62t133.5 -9h8q146 3 146 67q0 4 -5 47t-7 64q-2 31 -9 90q-6 105 -26 311q-10 11 -31 33q-8 12 -8 31q0 18 86 162h14q4 -4 13 -15q-10 -42 -11 -42q1 -9 11 -19q22 -14 108 -62l-76 -141q-2 0 -8 4q-2 -7 -2 -19q0 -11 2 -28q14 -141 14 -188q0 -43 -7 -116
t-21 -130q35 14 90 59q65 54 86 66q65 45 182 106q29 11 55 11q60 0 140 -66q82 -72 82 -135q-1 0 -25 -90h82v-119h-962zM932 836l-55 -104l-137 78q8 14 24.5 46.5t24.5 47.5zM1068 627q-17 -30 -52 -98q-43 25 -131 74q-4 -4 -41 -66q-24 13 -141 76q2 6 53 104
q54 -26 138 -81q12 6 24 30q17 35 21 39z" />
    <glyph glyph-name="uni06A0.init" unicode="&#x6a0;" horiz-adv-x="796" 
d="M746 119l-57 -119h-729v119h172q43 0 43 1l-1 1q-7 1 -27.5 28t-26.5 56q0 14 39 88q28 49 91.5 108.5t112.5 71.5q33 11 74 12q16 0 34.5 -6t55.5 -41q51 -47 80 -131l-4 -22q-39 26 -117 67q-34 15 -71 15q-29 0 -107 -23q-98 -31 -98 -63q0 -15 24 -41
q82 -86 138 -111q22 -8 71 -8zM401 972l-55 -104l-137 78q8 14 24.5 46.5t24.5 47.5zM537 763q-17 -30 -52 -98q-43 25 -131 74q-4 -4 -41 -66q-24 13 -141 76q2 6 53 104q54 -26 138 -81q12 6 24 30q17 35 21 39z" />
    <glyph glyph-name="uni06A0.medi" unicode="&#x6a0;" horiz-adv-x="544" 
d="M562 0h-98q-37 0 -71 19t-50 51q-44 -39 -86 -55q-37 -15 -111 -15h-186v119h190q97 0 143 33q-22 36 -36 44.5t-26 8.5q-13 0 -38 -4q-36 0 -36 28q0 11 18 45q21 45 76 127q20 21 63 21q25 0 62 -14q20 -7 59 -32t77 -54q6 -6 6 -14v-4l-10 -29q-36 -87 -49 -100
t-44 -13q10 -38 49 -43h98v-119zM340 911l-55 -104l-137 78q8 14 24.5 46.5t24.5 47.5zM476 702q-17 -30 -52 -98q-43 25 -131 74q-4 -4 -41 -66q-24 13 -141 76q2 6 53 104q54 -26 138 -81q12 6 24 30q17 35 21 39z" />
    <glyph glyph-name="uni06A0.fina" unicode="&#x6a0;" horiz-adv-x="682" 
d="M801 -440q-97 -78 -177 -96q-66 -16 -125 -16q-13 0 -25 1q-32 0 -85 6t-112.5 24.5t-102.5 57.5q-49 41 -69 82q-11 23 -18 52.5t-7 82.5q0 82 16 150q47 178 181 291q-31 32 -57 46q-13 6 -29 6q-20 0 -45 -9q8 56 28 94q27 55 72 71q14 7 45 10q8 1 17 1q25 0 55 -6
q40 -9 77 -33t52 -47q14 -19 14 -39q0 -29 -27 -74l-8 -12q-40 -2 -72 -21q43 -44 93 -54q45 -9 86 -9h125v-119h-117q-35 0 -74 7.5t-82 33.5t-90 82l-14 16q-8 -4 -21 -16q-37 -31 -86 -94q-61 -76 -73 -183q0 -34 8 -77q31 -94 103.5 -137.5t145.5 -56.5t126 -15h272z
M386 904l-55 -104l-137 78q8 14 24.5 46.5t24.5 47.5zM522 695q-17 -30 -52 -98q-43 25 -131 74q-4 -4 -41 -66q-24 13 -141 76q2 6 53 104q54 -26 138 -81q12 6 24 30q17 35 21 39z" />
    <glyph glyph-name="uni06A1.init" unicode="&#x6a1;" horiz-adv-x="665" 
d="M578 217q0 -33 -16 -113q-22 -104 -51 -104h-551v119h547q2 8 2 24q0 35 -16.5 100.5t-30.5 75.5q-78 -110 -183 -110q-40 0 -86 22q-57 29 -57 72q0 64 97.5 173.5t170.5 109.5q76 0 131 -166q43 -129 43 -203zM443 358q-59 117 -110 117q-15 0 -59 -33.5t-44 -54.5
q0 -18 47 -37q39 -14 56 -14q47 0 110 22z" />
    <glyph glyph-name="uni06A1.medi" unicode="&#x6a1;" horiz-adv-x="606" 
d="M337 350q106 84 172 84q37 0 63 -78q19 -59 19 -86q-6 -87 -70 -151h103v-119h-664v119h245q-12 18 -12 42q0 12 3 25q2 8 6 18t12 22q41 59 123 124zM501 184q0 37 -24.5 74t-70.5 37q-20 0 -26 -2q-25 -6 -55 -23q-50 -28 -50 -57q0 -16 22.5 -43t53.5 -37
q27 -10 47 -10h4q25 0 58 14q41 21 41 47z" />
    <glyph glyph-name="uni06A1.fina" unicode="&#x6a1;" horiz-adv-x="1248" 
d="M1143 184q0 37 -24.5 74t-70.5 37q-20 0 -26 -2q-25 -6 -55 -23q-50 -28 -50 -57q0 -16 22.5 -43t53.5 -37q27 -10 47 -10h4q25 0 58 14q41 21 41 47zM847 119q-12 18 -12 42q0 12 3 25q2 8 6 18t12 22q41 59 123 124q106 84 172 84q37 0 63 -78q19 -59 19 -86
q-6 -87 -70 -151h103v-119h-952q0 1 -32 6q-82 17 -132 70t-50 117q0 49 45 137t78 96v-18l-24 -54q-24 -53 -24 -75q0 -70 47.5 -115t114.5 -45h510z" />
    <glyph glyph-name="uni06A2.init" unicode="&#x6a2;" horiz-adv-x="665" 
d="M578 217q0 -33 -16 -113q-22 -104 -51 -104h-551v119h547q2 8 2 24q0 35 -16.5 100.5t-30.5 75.5q-78 -110 -183 -110q-40 0 -86 22q-57 29 -57 72q0 64 97.5 173.5t170.5 109.5q76 0 131 -166q43 -129 43 -203zM443 358q-59 117 -110 117q-15 0 -59 -33.5t-44 -54.5
q0 -18 47 -37q39 -14 56 -14q47 0 110 22zM443 -227q-6 -15 -59 -103l-133 84q35 60 55 94q0 -2 137 -75z" />
    <glyph glyph-name="uni06A2.medi" unicode="&#x6a2;" horiz-adv-x="606" 
d="M337 350q106 84 172 84q37 0 63 -78q19 -59 19 -86q-6 -87 -70 -151h103v-119h-664v119h245q-12 18 -12 42q0 12 3 25q2 8 6 18t12 22q41 59 123 124zM501 184q0 37 -24.5 74t-70.5 37q-20 0 -26 -2q-25 -6 -55 -23q-50 -28 -50 -57q0 -16 22.5 -43t53.5 -37
q27 -10 47 -10h4q25 0 58 14q41 21 41 47zM484 -227q-6 -15 -59 -103l-133 84q35 60 55 94q0 -2 137 -75z" />
    <glyph glyph-name="uni06A2.fina" unicode="&#x6a2;" horiz-adv-x="1248" 
d="M1143 184q0 37 -24.5 74t-70.5 37q-20 0 -26 -2q-25 -6 -55 -23q-50 -28 -50 -57q0 -16 22.5 -43t53.5 -37q27 -10 47 -10h4q25 0 58 14q41 21 41 47zM847 119q-12 18 -12 42q0 12 3 25q2 8 6 18t12 22q41 59 123 124q106 84 172 84q37 0 63 -78q19 -59 19 -86
q-6 -87 -70 -151h103v-119h-952q0 1 -32 6q-82 17 -132 70t-50 117q0 49 45 137t78 96v-18l-24 -54q-24 -53 -24 -75q0 -70 47.5 -115t114.5 -45h510zM1126 -227q-6 -15 -59 -103l-133 84q35 60 55 94q0 -2 137 -75z" />
    <glyph glyph-name="uni06A3.init" unicode="&#x6a3;" horiz-adv-x="665" 
d="M259 741q-8 -14 -27.5 -49t-27.5 -53l-133 84q36 61 55 94q45 -20 133 -76zM578 217q0 -33 -16 -113q-22 -104 -51 -104h-551v119h547q2 8 2 24q0 35 -16.5 100.5t-30.5 75.5q-78 -110 -183 -110q-40 0 -86 22q-57 29 -57 72q0 64 97.5 173.5t170.5 109.5q76 0 131 -166
q43 -129 43 -203zM443 358q-59 117 -110 117q-15 0 -59 -33.5t-44 -54.5q0 -18 47 -37q39 -14 56 -14q47 0 110 22zM366 -227q-7 -15 -60 -103l-133 84q35 60 55 94q0 -2 138 -75z" />
    <glyph glyph-name="uni06A3.medi" unicode="&#x6a3;" horiz-adv-x="606" 
d="M337 350q106 84 172 84q37 0 63 -78q19 -59 19 -86q-6 -87 -70 -151h103v-119h-664v119h245q-12 18 -12 42q0 12 3 25q2 8 6 18t12 22q41 59 123 124zM501 184q0 37 -24.5 74t-70.5 37q-20 0 -26 -2q-25 -6 -55 -23q-50 -28 -50 -57q0 -16 22.5 -43t53.5 -37
q27 -10 47 -10h4q25 0 58 14q41 21 41 47zM501 694q-20 -43 -55 -107q-45 27 -138 80q7 16 52 102zM501 -227q-6 -15 -59 -103l-134 84q35 60 56 94q0 -2 137 -75z" />
    <glyph glyph-name="uni06A3.fina" unicode="&#x6a3;" horiz-adv-x="1248" 
d="M1044 709q-20 -43 -55 -107q-45 27 -137 80q6 16 51 102zM1143 184q0 37 -24.5 74t-70.5 37q-20 0 -26 -2q-25 -6 -55 -23q-50 -28 -50 -57q0 -16 22.5 -43t53.5 -37q27 -10 47 -10h4q25 0 58 14q41 21 41 47zM847 119q-12 18 -12 42q0 12 3 25q2 8 6 18t12 22
q41 59 123 124q106 84 172 84q37 0 63 -78q19 -59 19 -86q-6 -87 -70 -151h103v-119h-952q0 1 -32 6q-82 17 -132 70t-50 117q0 49 45 137t78 96v-18l-24 -54q-24 -53 -24 -75q0 -70 47.5 -115t114.5 -45h510zM780 -227q-6 -15 -59 -103l-133 84q35 60 55 94q0 -2 137 -75z
" />
    <glyph glyph-name="uni06A5.init" unicode="&#x6a5;" horiz-adv-x="665" 
d="M578 217q0 -33 -16 -113q-22 -104 -51 -104h-551v119h547q2 8 2 24q0 35 -16.5 100.5t-30.5 75.5q-78 -110 -183 -110q-40 0 -86 22q-57 29 -57 72q0 64 97.5 173.5t170.5 109.5q76 0 131 -166q43 -129 43 -203zM443 358q-59 117 -110 117q-15 0 -59 -33.5t-44 -54.5
q0 -18 47 -37q39 -14 56 -14q47 0 110 22zM475 -408q-12 -29 -55 -99l-137 80l57 98q70 -34 135 -79zM501 -226q-18 -31 -55 -94q-72 37 -131 73l-41 -69q-55 26 -141 80q16 32 53 96q29 -12 129 -74q18 21 45 70z" />
    <glyph glyph-name="uni06A5.medi" unicode="&#x6a5;" horiz-adv-x="606" 
d="M337 350q106 84 172 84q37 0 63 -78q19 -59 19 -86q-6 -87 -70 -151h103v-119h-664v119h245q-12 18 -12 42q0 12 3 25q2 8 6 18t12 22q41 59 123 124zM501 184q0 37 -24.5 74t-70.5 37q-20 0 -26 -2q-25 -6 -55 -23q-50 -28 -50 -57q0 -16 22.5 -43t53.5 -37
q27 -10 47 -10h4q25 0 58 14q41 21 41 47zM515 -408q-12 -29 -55 -99l-137 80l57 98q70 -34 135 -79zM541 -226q-18 -31 -55 -94q-72 37 -131 73l-41 -69q-55 26 -141 80q16 32 53 96q29 -12 129 -74q18 21 45 70z" />
    <glyph glyph-name="uni06A5.fina" unicode="&#x6a5;" horiz-adv-x="1248" 
d="M1143 184q0 37 -24.5 74t-70.5 37q-20 0 -26 -2q-25 -6 -55 -23q-50 -28 -50 -57q0 -16 22.5 -43t53.5 -37q27 -10 47 -10h4q25 0 58 14q41 21 41 47zM847 119q-12 18 -12 42q0 12 3 25q2 8 6 18t12 22q41 59 123 124q106 84 172 84q37 0 63 -78q19 -59 19 -86
q-6 -87 -70 -151h103v-119h-952q0 1 -32 6q-82 17 -132 70t-50 117q0 49 45 137t78 96v-18l-24 -54q-24 -53 -24 -75q0 -70 47.5 -115t114.5 -45h510zM1175 -408q-12 -29 -55 -99l-137 80l57 98q70 -34 135 -79zM1201 -226q-18 -31 -55 -94q-72 37 -131 73l-41 -69
q-55 26 -141 80q16 32 53 96q29 -12 129 -74q18 21 45 70z" />
    <glyph glyph-name="uni06A7.init" unicode="&#x6a7;" horiz-adv-x="665" 
d="M259 741q-8 -14 -27.5 -49t-27.5 -53l-133 84q36 61 55 94q45 -20 133 -76zM578 217q0 -33 -16 -113q-22 -104 -51 -104h-551v119h547q2 8 2 24q0 35 -16.5 100.5t-30.5 75.5q-78 -110 -183 -110q-40 0 -86 22q-57 29 -57 72q0 64 97.5 173.5t170.5 109.5q76 0 131 -166
q43 -129 43 -203zM443 358q-59 117 -110 117q-15 0 -59 -33.5t-44 -54.5q0 -18 47 -37q39 -14 56 -14q47 0 110 22z" />
    <glyph glyph-name="uni06A7.medi" unicode="&#x6a7;" horiz-adv-x="606" 
d="M337 350q106 84 172 84q37 0 63 -78q19 -59 19 -86q-6 -87 -70 -151h103v-119h-664v119h245q-12 18 -12 42q0 12 3 25q2 8 6 18t12 22q41 59 123 124zM501 184q0 37 -24.5 74t-70.5 37q-20 0 -26 -2q-25 -6 -55 -23q-50 -28 -50 -57q0 -16 22.5 -43t53.5 -37
q27 -10 47 -10h4q25 0 58 14q41 21 41 47zM501 694q-20 -43 -55 -107q-45 27 -138 80q7 16 52 102z" />
    <glyph glyph-name="uni06A7.fina" unicode="&#x6a7;" horiz-adv-x="858" 
d="M757 120q-12 52 -53 98t-73 46q-23 0 -40.5 -31.5t-17.5 -50.5q0 -30 49 -51q39 -14 72 -14q43 0 63 3zM832 119h44v-119h-38v-6q0 -57 -19 -119q-7 -22 -44.5 -59.5t-94.5 -73.5q-90 -55 -186 -70q-64 -8 -127 -8q-279 0 -279 211q0 72 46 186.5t75 135.5q12 -4 12 -23
q0 -18 -28.5 -81.5t-28.5 -129.5q0 -106 67 -143q47 -25 154 -25q47 0 68 2q69 9 127 23q98 26 155 63q38 28 38 38v11q0 12 -1 26q-2 21 -6 42h-80q-174 0 -174 129q0 57 47 152q57 114 125 114q76 0 117 -122q23 -57 31 -154zM717 652l-55 -104l-137 78q8 14 24.5 46.5
t24.5 47.5z" />
    <glyph glyph-name="uni06A8.init" unicode="&#x6a8;" horiz-adv-x="665" 
d="M578 217q0 -33 -16 -113q-22 -104 -51 -104h-551v119h547q2 8 2 24q0 35 -16.5 100.5t-30.5 75.5q-78 -110 -183 -110q-40 0 -86 22q-57 29 -57 72q0 64 97.5 173.5t170.5 109.5q76 0 131 -166q43 -129 43 -203zM443 358q-59 117 -110 117q-15 0 -59 -33.5t-44 -54.5
q0 -18 47 -37q39 -14 56 -14q47 0 110 22zM258 986l-55 -104l-137 78q8 14 24.5 46.5t24.5 47.5zM394 777q-17 -30 -52 -98q-43 25 -131 74q-4 -4 -41 -66q-24 13 -141 76q2 6 53 104q54 -26 138 -81q12 6 24 30q17 35 21 39z" />
    <glyph glyph-name="uni06A8.medi" unicode="&#x6a8;" horiz-adv-x="606" 
d="M337 350q106 84 172 84q37 0 63 -78q19 -59 19 -86q-6 -87 -70 -151h103v-119h-664v119h245q-12 18 -12 42q0 12 3 25q2 8 6 18t12 22q41 59 123 124zM501 184q0 37 -24.5 74t-70.5 37q-20 0 -26 -2q-25 -6 -55 -23q-50 -28 -50 -57q0 -16 22.5 -43t53.5 -37
q27 -10 47 -10h4q25 0 58 14q41 21 41 47zM411 900l-55 -104l-137 78q8 14 24.5 46.5t24.5 47.5zM547 691q-17 -30 -52 -98q-43 25 -131 74q-4 -4 -41 -66q-24 13 -141 76q2 6 53 104q54 -26 138 -81q12 6 24 30q17 35 21 39z" />
    <glyph glyph-name="uni06A8.fina" unicode="&#x6a8;" horiz-adv-x="858" 
d="M757 120q-12 52 -53 98t-73 46q-23 0 -40.5 -31.5t-17.5 -50.5q0 -30 49 -51q39 -14 72 -14q43 0 63 3zM832 119h44v-119h-38v-6q0 -57 -19 -119q-7 -22 -44.5 -59.5t-94.5 -73.5q-90 -55 -186 -70q-64 -8 -127 -8q-279 0 -279 211q0 72 46 186.5t75 135.5q12 -4 12 -23
q0 -18 -28.5 -81.5t-28.5 -129.5q0 -106 67 -143q47 -25 154 -25q47 0 68 2q69 9 127 23q98 26 155 63q38 28 38 38v11q0 12 -1 26q-2 21 -6 42h-80q-174 0 -174 129q0 57 47 152q57 114 125 114q76 0 117 -122q23 -57 31 -154zM659 851l-55 -104l-137 78q8 14 24.5 46.5
t24.5 47.5zM795 642q-17 -30 -52 -98q-43 25 -131 74q-4 -4 -41 -66q-24 13 -141 76q2 6 53 104q54 -26 138 -81q12 6 24 30q17 35 21 39z" />
    <glyph glyph-name="uni06AA.init" unicode="&#x6aa;" horiz-adv-x="626" 
d="M557 774q-161 -59 -446 -182q141 -111 195 -158q123 -106 172 -184q10 -17 16 -31q14 -29 14 -55q0 -49 -22 -117q-4 -16 -27 -47h-499v119h487q-27 71 -115 149q-20 19 -153 117q-21 -33 -31 -33q-6 0 -25 17q-63 53 -86 96q-4 10 -4 24q0 19 4 39q21 70 56 154
q39 25 104 55q210 99 309 139q50 19 101 36l-47 -137z" />
    <glyph glyph-name="uni06AA.medi" unicode="&#x6aa;" horiz-adv-x="642" 
d="M660 0h-100l-88 86q-67 -66 -101 -86h-411v119h423q11 0 23 12t12 19q0 14 -86 92q-49 45 -149 131q-10 -11 -25 -21q-51 43 -98 101q-23 26 -23 34q0 19 4 41q9 37 19 74q12 47 41 74q53 24 160 76q170 84 354 145q-12 -49 -47 -137q-150 -58 -453 -176q78 -70 234 -215
q69 -74 139 -148q90 -92 127 -102h45v-119z" />
    <glyph glyph-name="uni06AA.fina" unicode="&#x6aa;" horiz-adv-x="1152" 
d="M314 0q0 1 -32 6q-82 17 -132 70t-50 117q0 49 45 137t78 96v-18l-24 -54q-24 -53 -24 -75q0 -70 47.5 -115t114.5 -45h556q11 0 23 12t12 19q0 14 -86 92q-49 45 -149 131q-10 -11 -25 -21q-51 43 -98 101q-23 26 -23 34q0 19 4 41q9 37 19 74q12 47 41 74q53 24 160 76
q170 84 354 145q-12 -49 -47 -137q-150 -58 -453 -176q78 -70 234 -215q69 -74 139 -148q90 -92 127 -102h45v-119h-100l-88 86q-67 -66 -101 -86h-567z" />
    <glyph glyph-name="uni06AB.init" unicode="&#x6ab;" horiz-adv-x="626" 
d="M557 774q-161 -59 -446 -182q141 -111 195 -158q123 -106 172 -184q10 -17 16 -31q14 -29 14 -55q0 -49 -22 -117q-4 -16 -27 -47h-499v119h487q-27 71 -115 149q-20 19 -153 117q-21 -33 -31 -33q-6 0 -25 17q-63 53 -86 96q-4 10 -4 24q0 19 4 39q21 70 56 154
q39 25 104 55q210 99 309 139q50 19 101 36l-47 -137zM116 827q81 49 237.5 123t204.5 93q24 10 49 18l-23 -67h-1q-195 -79 -488 -230q8 33 21 63z" />
    <glyph glyph-name="uni06AB.medi" unicode="&#x6ab;" horiz-adv-x="642" 
d="M660 0h-100l-88 86q-67 -66 -101 -86h-411v119h423q11 0 23 12t12 19q0 14 -86 92q-49 45 -149 131q-10 -11 -25 -21q-51 43 -98 101q-23 26 -23 34q0 19 4 41q9 37 19 74q12 47 41 74q53 24 160 76q170 84 354 145q-12 -49 -47 -137q-150 -58 -453 -176q78 -70 234 -215
q69 -74 139 -148q90 -92 127 -102h45v-119zM124 819q81 49 237.5 123t204.5 93q24 10 49 18l-23 -67h-1q-195 -79 -489 -230q9 33 22 63z" />
    <glyph glyph-name="uni06AB.fina" unicode="&#x6ab;" horiz-adv-x="1152" 
d="M314 0q0 1 -32 6q-82 17 -132 70t-50 117q0 49 45 137t78 96v-18l-24 -54q-24 -53 -24 -75q0 -70 47.5 -115t114.5 -45h556q11 0 23 12t12 19q0 14 -86 92q-49 45 -149 131q-10 -11 -25 -21q-51 43 -98 101q-23 26 -23 34q0 19 4 41q9 37 19 74q12 47 41 74q53 24 160 76
q170 84 354 145q-12 -49 -47 -137q-150 -58 -453 -176q78 -70 234 -215q69 -74 139 -148q90 -92 127 -102h45v-119h-100l-88 86q-67 -66 -101 -86h-567zM633 823q81 49 237.5 123t204.5 93q24 10 49 18l-23 -67h-1q-195 -79 -489 -230q9 33 22 63z" />
    <glyph glyph-name="uni06AC.init" unicode="&#x6ac;" horiz-adv-x="626" 
d="M557 774q-161 -59 -446 -182q141 -111 195 -158q123 -106 172 -184q10 -17 16 -31q14 -29 14 -55q0 -49 -22 -117q-4 -16 -27 -47h-499v119h487q-27 71 -115 149q-20 19 -153 117q-21 -33 -31 -33q-6 0 -25 17q-63 53 -86 96q-4 10 -4 24q0 19 4 39q21 70 56 154
q39 25 104 55q210 99 309 139q50 19 101 36l-47 -137zM285 981l-55 -104l-137 78q8 14 24.5 46.5t24.5 47.5z" />
    <glyph glyph-name="uni06AC.medi" unicode="&#x6ac;" horiz-adv-x="642" 
d="M660 0h-100l-88 86q-67 -66 -101 -86h-411v119h423q11 0 23 12t12 19q0 14 -86 92q-49 45 -149 131q-10 -11 -25 -21q-51 43 -98 101q-23 26 -23 34q0 19 4 41q9 37 19 74q12 47 41 74q53 24 160 76q170 84 354 145q-12 -49 -47 -137q-150 -58 -453 -176q78 -70 234 -215
q69 -74 139 -148q90 -92 127 -102h45v-119zM288 986l-55 -104l-137 78q8 14 24.5 46.5t24.5 47.5z" />
    <glyph glyph-name="uni06AC.fina" unicode="&#x6ac;" horiz-adv-x="1110" 
d="M712 643q-6 -29 -37 -92q-35 -16 -109 -74q0 -2 -4 -6t-4 -10q0 -10 20.5 -16.5t47 -12.5t47.5 -22q1 -6 1 -12q0 -73 -93 -142q-19 -14 -78 -14q-4 0 -31.5 3t-40.5 3q17 16 88 37q66 20 80 45q-37 12 -96 41q-10 6 -10 26q0 27 29.5 78t78.5 100q62 64 111 68zM314 0
q0 1 -32 6q-82 17 -132 70t-50 117q0 49 45 137t78 96v-18l-24 -54q-24 -53 -24 -75q0 -70 47.5 -115t114.5 -45h445q43 0 93 14t89 51l-78 574q0 10 2 16q39 45 98 121q6 -66 17 -197q4 -47 8 -114q10 -150 33 -451q0 -14 37 -14h47v-119h-142q-6 37 -20 115
q-33 -74 -90 -99q-41 -16 -62 -16h-500zM996 1055l-55 -104l-137 78q8 14 24.5 46.5t24.5 47.5z" />
    <glyph glyph-name="uni06AE.init" unicode="&#x6ae;" horiz-adv-x="626" 
d="M557 774q-161 -59 -446 -182q141 -111 195 -158q123 -106 172 -184q10 -17 16 -31q14 -29 14 -55q0 -49 -22 -117q-4 -16 -27 -47h-499v119h487q-27 71 -115 149q-20 19 -153 117q-21 -33 -31 -33q-6 0 -25 17q-63 53 -86 96q-4 10 -4 24q0 19 4 39q21 70 56 154
q39 25 104 55q210 99 309 139q50 19 101 36l-47 -137zM345 -408q-12 -29 -55 -99l-137 80l57 98q70 -34 135 -79zM371 -226q-18 -31 -55 -94q-72 37 -131 73l-41 -69q-55 26 -141 80q16 32 53 96q29 -12 129 -74q18 21 45 70z" />
    <glyph glyph-name="uni06AE.medi" unicode="&#x6ae;" horiz-adv-x="642" 
d="M660 0h-100l-88 86q-67 -66 -101 -86h-411v119h423q11 0 23 12t12 19q0 14 -86 92q-49 45 -149 131q-10 -11 -25 -21q-51 43 -98 101q-23 26 -23 34q0 19 4 41q9 37 19 74q12 47 41 74q53 24 160 76q170 84 354 145q-12 -49 -47 -137q-150 -58 -453 -176q78 -70 234 -215
q69 -74 139 -148q90 -92 127 -102h45v-119zM345 -408q-12 -29 -55 -99l-137 80l57 98q70 -34 135 -79zM371 -226q-18 -31 -55 -94q-72 37 -131 73l-41 -69q-55 26 -141 80q16 32 53 96q29 -12 129 -74q18 21 45 70z" />
    <glyph glyph-name="uni06AE.fina" unicode="&#x6ae;" horiz-adv-x="1110" 
d="M712 643q-6 -29 -37 -92q-35 -16 -109 -74q0 -2 -4 -6t-4 -10q0 -10 20.5 -16.5t47 -12.5t47.5 -22q1 -6 1 -12q0 -73 -93 -142q-19 -14 -78 -14q-4 0 -31.5 3t-40.5 3q17 16 88 37q66 20 80 45q-37 12 -96 41q-10 6 -10 26q0 27 29.5 78t78.5 100q62 64 111 68zM314 0
q0 1 -32 6q-82 17 -132 70t-50 117q0 49 45 137t78 96v-18l-24 -54q-24 -53 -24 -75q0 -70 47.5 -115t114.5 -45h445q43 0 93 14t89 51l-78 574q0 10 2 16q39 45 98 121q6 -66 17 -197q4 -47 8 -114q10 -150 33 -451q0 -14 37 -14h47v-119h-142q-6 37 -20 115
q-33 -74 -90 -99q-41 -16 -62 -16h-500zM785 -408q-12 -29 -55 -99l-137 80l57 98q70 -34 135 -79zM811 -226q-18 -31 -55 -94q-72 37 -131 73l-41 -69q-55 26 -141 80q16 32 53 96q29 -12 129 -74q18 21 45 70z" />
    <glyph glyph-name="uni06B0.init" unicode="&#x6b0;" horiz-adv-x="626" 
d="M437 632q0 14 -24 38t-41 31q-15 -18 -31 -36q-18 -23 -18 -42q0 -28 36 -28q21 0 46 9q32 11 32 28zM116 827q81 49 237.5 123t204.5 93q24 10 49 18l-23 -67h-1q-195 -79 -488 -230q8 33 21 63zM318 680q-94 -39 -207 -88q141 -111 195 -158q123 -106 172 -184
q10 -17 16 -31q14 -29 14 -55q0 -49 -22 -117q-4 -16 -27 -47h-499v119h487q-27 71 -115 149q-20 19 -153 117q-21 -33 -31 -33q-6 0 -25 17q-63 53 -86 96q-4 10 -4 24q0 19 4 39q21 70 56 154q39 25 104 55q210 99 309 139q50 19 101 36l-47 -137l-3 -1q-49 -18 -110 -42
q6 -6 13 -11q26 -22 26 -53q0 -4 -4 -25t-18.5 -44.5t-46.5 -43.5q-41 -25 -80 -25q-67 0 -67 49q0 34 48 101z" />
    <glyph glyph-name="uni06B0.medi" unicode="&#x6b0;" horiz-adv-x="642" 
d="M437 612q0 14 -24 38t-41 31q-15 -18 -31 -36q-18 -23 -18 -42q0 -28 36 -28q21 0 46 9q32 11 32 28zM124 819q81 49 237.5 123t204.5 93q24 10 49 18l-23 -67h-1q-195 -79 -489 -230q9 33 22 63zM322 664q-93 -36 -207 -80q78 -70 234 -215q69 -74 139 -148
q90 -92 127 -102h45v-119h-100l-88 86q-67 -66 -101 -86h-411v119h423q11 0 23 12t12 19q0 14 -86 92q-49 45 -149 131q-10 -11 -25 -21q-51 43 -98 101q-23 26 -23 34q0 19 4 41q9 37 19 74q12 47 41 74q53 24 160 76q170 84 354 145q-12 -49 -47 -137q-52 -20 -122 -47
l14 -12q26 -22 26 -53q0 -4 -3 -21.5t-20.5 -46t-45.5 -45.5q-41 -25 -80 -25q-67 0 -67 49q0 34 48 101z" />
    <glyph glyph-name="uni06B0.fina" unicode="&#x6b0;" horiz-adv-x="1152" 
d="M965 621q0 14 -24 38t-41 31q-15 -18 -31 -36q-18 -23 -18 -42q0 -28 36 -28q21 0 46 9q32 11 32 28zM633 823q81 49 237.5 123t204.5 93q24 10 49 18l-23 -67h-1q-195 -79 -489 -230q9 33 22 63zM847 670q-98 -38 -222 -86q78 -70 234 -215q69 -74 139 -148
q90 -92 127 -102h45v-119h-100l-88 86q-67 -66 -101 -86h-567q0 1 -32 6q-82 17 -132 70t-50 117q0 49 45 137t78 96v-18l-24 -54q-24 -53 -24 -75q0 -70 47.5 -115t114.5 -45h556q11 0 23 12t12 19q0 14 -86 92q-49 45 -149 131q-10 -11 -25 -21q-51 43 -98 101
q-23 26 -23 34q0 19 4 41q9 37 19 74q12 47 41 74q53 24 160 76q170 84 354 145q-12 -49 -47 -137q-45 -17 -103 -40q7 -5 13 -10q26 -22 26 -53q-2 -29 -8 -45.5t-20 -33.5t-41 -34q-41 -25 -80 -25q-67 0 -67 49q0 34 48 101z" />
    <glyph glyph-name="uni06B2.init" unicode="&#x6b2;" horiz-adv-x="626" 
d="M557 774q-161 -59 -446 -182q141 -111 195 -158q123 -106 172 -184q10 -17 16 -31q14 -29 14 -55q0 -49 -22 -117q-4 -16 -27 -47h-499v119h487q-27 71 -115 149q-20 19 -153 117q-21 -33 -31 -33q-6 0 -25 17q-63 53 -86 96q-4 10 -4 24q0 19 4 39q21 70 56 154
q39 25 104 55q210 99 309 139q50 19 101 36l-47 -137zM116 827q81 49 237.5 123t204.5 93q24 10 49 18l-23 -67h-1q-195 -79 -488 -230q8 33 21 63zM371 -226q-18 -31 -55 -94q-72 37 -131 73l-41 -69q-55 26 -141 80q16 32 53 96q29 -12 129 -74q18 21 45 70z" />
    <glyph glyph-name="uni06B2.medi" unicode="&#x6b2;" horiz-adv-x="642" 
d="M660 0h-100l-88 86q-67 -66 -101 -86h-411v119h423q11 0 23 12t12 19q0 14 -86 92q-49 45 -149 131q-10 -11 -25 -21q-51 43 -98 101q-23 26 -23 34q0 19 4 41q9 37 19 74q12 47 41 74q53 24 160 76q170 84 354 145q-12 -49 -47 -137q-150 -58 -453 -176q78 -70 234 -215
q69 -74 139 -148q90 -92 127 -102h45v-119zM124 819q81 49 237.5 123t204.5 93q24 10 49 18l-23 -67h-1q-195 -79 -489 -230q9 33 22 63zM371 -226q-18 -31 -55 -94q-72 37 -131 73l-41 -69q-55 26 -141 80q16 32 53 96q29 -12 129 -74q18 21 45 70z" />
    <glyph glyph-name="uni06B2.fina" unicode="&#x6b2;" horiz-adv-x="1152" 
d="M314 0q0 1 -32 6q-82 17 -132 70t-50 117q0 49 45 137t78 96v-18l-24 -54q-24 -53 -24 -75q0 -70 47.5 -115t114.5 -45h556q11 0 23 12t12 19q0 14 -86 92q-49 45 -149 131q-10 -11 -25 -21q-51 43 -98 101q-23 26 -23 34q0 19 4 41q9 37 19 74q12 47 41 74q53 24 160 76
q170 84 354 145q-12 -49 -47 -137q-150 -58 -453 -176q78 -70 234 -215q69 -74 139 -148q90 -92 127 -102h45v-119h-100l-88 86q-67 -66 -101 -86h-567zM633 823q81 49 237.5 123t204.5 93q24 10 49 18l-23 -67h-1q-195 -79 -489 -230q9 33 22 63zM811 -226q-18 -31 -55 -94
q-72 37 -131 73l-41 -69q-55 26 -141 80q16 32 53 96q29 -12 129 -74q18 21 45 70z" />
    <glyph glyph-name="uni06B4.init" unicode="&#x6b4;" horiz-adv-x="626" 
d="M557 774q-161 -59 -446 -182q141 -111 195 -158q123 -106 172 -184q10 -17 16 -31q14 -29 14 -55q0 -49 -22 -117q-4 -16 -27 -47h-499v119h487q-27 71 -115 149q-20 19 -153 117q-21 -33 -31 -33q-6 0 -25 17q-63 53 -86 96q-4 10 -4 24q0 19 4 39q21 70 56 154
q39 25 104 55q210 99 309 139q50 19 101 36l-47 -137zM116 827q81 49 237.5 123t204.5 93q24 10 49 18l-23 -67h-1q-195 -79 -488 -230q8 33 21 63zM288 1339l-55 -104l-137 78q8 14 24.5 46.5t24.5 47.5zM424 1130q-17 -30 -52 -98q-43 25 -131 74q-4 -4 -41 -66
q-24 13 -141 76q2 6 53 104q54 -26 138 -81q12 6 24 30q17 35 21 39z" />
    <glyph glyph-name="uni06B4.medi" unicode="&#x6b4;" horiz-adv-x="642" 
d="M660 0h-100l-88 86q-67 -66 -101 -86h-411v119h423q11 0 23 12t12 19q0 14 -86 92q-49 45 -149 131q-10 -11 -25 -21q-51 43 -98 101q-23 26 -23 34q0 19 4 41q9 37 19 74q12 47 41 74q53 24 160 76q170 84 354 145q-12 -49 -47 -137q-150 -58 -453 -176q78 -70 234 -215
q69 -74 139 -148q90 -92 127 -102h45v-119zM124 819q81 49 237.5 123t204.5 93q24 10 49 18l-23 -67h-1q-195 -79 -489 -230q9 33 22 63zM288 1339l-55 -104l-137 78q8 14 24.5 46.5t24.5 47.5zM424 1130q-17 -30 -52 -98q-43 25 -131 74q-4 -4 -41 -66q-24 13 -141 76
q2 6 53 104q54 -26 138 -81q12 6 24 30q17 35 21 39z" />
    <glyph glyph-name="uni06B4.fina" unicode="&#x6b4;" horiz-adv-x="1152" 
d="M314 0q0 1 -32 6q-82 17 -132 70t-50 117q0 49 45 137t78 96v-18l-24 -54q-24 -53 -24 -75q0 -70 47.5 -115t114.5 -45h556q11 0 23 12t12 19q0 14 -86 92q-49 45 -149 131q-10 -11 -25 -21q-51 43 -98 101q-23 26 -23 34q0 19 4 41q9 37 19 74q12 47 41 74q53 24 160 76
q170 84 354 145q-12 -49 -47 -137q-150 -58 -453 -176q78 -70 234 -215q69 -74 139 -148q90 -92 127 -102h45v-119h-100l-88 86q-67 -66 -101 -86h-567zM633 823q81 49 237.5 123t204.5 93q24 10 49 18l-23 -67h-1q-195 -79 -489 -230q9 33 22 63zM848 1339l-55 -104
l-137 78q8 14 24.5 46.5t24.5 47.5zM984 1130q-17 -30 -52 -98q-43 25 -131 74q-4 -4 -41 -66q-24 13 -141 76q2 6 53 104q54 -26 138 -81q12 6 24 30q17 35 21 39z" />
    <glyph glyph-name="uni06B5.init" unicode="&#x6b5;" horiz-adv-x="430" 
d="M-40 119h290q6 18 6 45q0 18 -12 117q-7 59 -13 94q-12 102 -41 291q-10 8 -26 28q-6 6 -6 23q0 18 6 28q22 48 76 132h20q1 -4 1 -11t-1 -16l-4 -21q0 -16 14 -24q33 -19 97 -51q-33 -74 -70 -140l-8 7l37 -396q0 -28 -7.5 -68t-20.5 -86t-24 -71h-314v119zM384 1217
q-134 -153 -150 -212l-19 -10q-10 60 -175 195l23 97h8q121 -119 154 -176h3q29 61 133 181q15 -34 23 -75z" />
    <glyph glyph-name="uni06B5.medi" unicode="&#x6b5;" horiz-adv-x="431" 
d="M449 0h-215l-6 60q-30 -60 -59 -60h-209v119h262l-86 649l105 127q8 -88 13 -159.5t15 -221.5q4 -37 8 -111q5 -92 23 -284h149v-119zM364 1217q-134 -153 -150 -212l-19 -10q-10 60 -175 195l23 97h8q121 -119 154 -176h3q29 61 133 181q15 -34 23 -75z" />
    <glyph glyph-name="uni06B5.fina" unicode="&#x6b5;" horiz-adv-x="850" 
d="M697 -58q-3 98 -43 486q-4 57 -24 201q-19 131 -19 133q0 16 107 149l39 -792h111v-119h-107q-6 -48 -23 -91q-11 -22 -25 -44q-112 -164 -296 -191q-35 -4 -66 -4q-256 0 -256 232q0 51 4 73q6 48 26 99q52 116 95 141h1q6 0 6 -6q0 -3 -1 -6l-34 -83q-31 -85 -31 -130
q0 -189 210 -189q48 0 99.5 11t92 30.5t80.5 47.5q36 24 54 52zM814 1217q-134 -153 -150 -212l-19 -10q-10 60 -175 195l23 97h8q121 -119 154 -176h3q29 61 133 181q15 -34 23 -75z" />
    <glyph glyph-name="uni06B6.init" unicode="&#x6b6;" horiz-adv-x="430" 
d="M-40 119h290q6 18 6 45q0 18 -12 117q-7 59 -13 94q-12 102 -41 291q-10 8 -26 28q-6 6 -6 23q0 18 6 28q22 48 76 132h20q1 -4 1 -11t-1 -16l-4 -21q0 -16 14 -24q33 -19 97 -51q-33 -74 -70 -140l-8 7l37 -396q0 -28 -7.5 -68t-20.5 -86t-24 -71h-314v119zM306 1082
q-12 -29 -55 -98l-137 80l57 98q70 -35 135 -80z" />
    <glyph glyph-name="uni06B6.medi" unicode="&#x6b6;" horiz-adv-x="331" 
d="M349 0h-115l-6 60q-30 -60 -59 -60h-209v119h262l-86 649l105 127q8 -88 13 -159.5t15 -221.5q4 -37 8 -111q5 -92 23 -284h49v-119zM256 1082q-12 -29 -55 -98l-137 80l57 98q70 -35 135 -80z" />
    <glyph glyph-name="uni06B6.fina" unicode="&#x6b6;" horiz-adv-x="787" 
d="M697 -58q-3 98 -43 486q-4 57 -24 201q-19 131 -19 133q0 16 107 149l39 -792h51v-119h-47q-6 -48 -23 -91q-11 -22 -25 -44q-112 -164 -296 -191q-35 -4 -66 -4q-256 0 -256 232q0 51 4 73q6 48 26 99q52 116 95 141h1q6 0 6 -6q0 -3 -1 -6l-34 -83q-31 -85 -31 -130
q0 -189 210 -189q48 0 99.5 11t92 30.5t80.5 47.5q36 24 54 52zM746 1082q-12 -29 -55 -98l-137 80l57 98q70 -35 135 -80z" />
    <glyph glyph-name="uni06B7.init" unicode="&#x6b7;" horiz-adv-x="430" 
d="M-40 119h290q6 18 6 45q0 18 -12 117q-7 59 -13 94q-12 102 -41 291q-10 8 -26 28q-6 6 -6 23q0 18 6 28q22 48 76 132h20q1 -4 1 -11t-1 -16l-4 -21q0 -16 14 -24q33 -19 97 -51q-33 -74 -70 -140l-8 7l37 -396q0 -28 -7.5 -68t-20.5 -86t-24 -71h-314v119zM242 1264
l-55 -104l-137 78q8 14 24.5 46.5t24.5 47.5zM378 1055q-17 -30 -52 -98q-43 25 -131 74q-4 -4 -41 -66q-24 13 -141 76q2 6 53 104q54 -26 138 -81q12 6 24 30q17 35 21 39z" />
    <glyph glyph-name="uni06B7.medi" unicode="&#x6b7;" horiz-adv-x="431" 
d="M449 0h-215l-6 60q-30 -60 -59 -60h-209v119h262l-86 649l105 127q8 -88 13 -159.5t15 -221.5q4 -37 8 -111q5 -92 23 -284h149v-119zM232 1264l-55 -104l-137 78q8 14 24.5 46.5t24.5 47.5zM368 1055q-17 -30 -52 -98q-43 25 -131 74q-4 -4 -41 -66q-24 13 -141 76
q2 6 53 104q54 -26 138 -81q12 6 24 30q17 35 21 39z" />
    <glyph glyph-name="uni06B7.fina" unicode="&#x6b7;" horiz-adv-x="850" 
d="M697 -58q-3 98 -43 486q-4 57 -24 201q-19 131 -19 133q0 16 107 149l39 -792h111v-119h-107q-6 -48 -23 -91q-11 -22 -25 -44q-112 -164 -296 -191q-35 -4 -66 -4q-256 0 -256 232q0 51 4 73q6 48 26 99q52 116 95 141h1q6 0 6 -6q0 -3 -1 -6l-34 -83q-31 -85 -31 -130
q0 -189 210 -189q48 0 99.5 11t92 30.5t80.5 47.5q36 24 54 52zM692 1264l-55 -104l-137 78q8 14 24.5 46.5t24.5 47.5zM828 1055q-17 -30 -52 -98q-43 25 -131 74q-4 -4 -41 -66q-24 13 -141 76q2 6 53 104q54 -26 138 -81q12 6 24 30q17 35 21 39z" />
    <glyph glyph-name="uni06B8.init" unicode="&#x6b8;" horiz-adv-x="430" 
d="M-40 119h290q6 18 6 45q0 18 -12 117q-7 59 -13 94q-12 102 -41 291q-10 8 -26 28q-6 6 -6 23q0 18 6 28q22 48 76 132h20q1 -4 1 -11t-1 -16l-4 -21q0 -16 14 -24q33 -19 97 -51q-33 -74 -70 -140l-8 7l37 -396q0 -28 -7.5 -68t-20.5 -86t-24 -71h-314v119zM345 -408
q-12 -29 -55 -99l-137 80l57 98q70 -34 135 -79zM371 -226q-18 -31 -55 -94q-72 37 -131 73l-41 -69q-55 26 -141 80q16 32 53 96q29 -12 129 -74q18 21 45 70z" />
    <glyph glyph-name="uni06B8.medi" unicode="&#x6b8;" horiz-adv-x="431" 
d="M449 0h-215l-6 60q-30 -60 -59 -60h-209v119h262l-86 649l105 127q8 -88 13 -159.5t15 -221.5q4 -37 8 -111q5 -92 23 -284h149v-119zM345 -408q-12 -29 -55 -99l-137 80l57 98q70 -34 135 -79zM371 -226q-18 -31 -55 -94q-72 37 -131 73l-41 -69q-55 26 -141 80
q16 32 53 96q29 -12 129 -74q18 21 45 70z" />
    <glyph glyph-name="uni06B8.fina" unicode="&#x6b8;" horiz-adv-x="850" 
d="M697 -58q-3 98 -43 486q-4 57 -24 201q-19 131 -19 133q0 16 107 149l39 -792h111v-119h-107q-6 -48 -23 -91q-11 -22 -25 -44q-112 -164 -296 -191q-35 -4 -66 -4q-256 0 -256 232q0 51 4 73q6 48 26 99q52 116 95 141h1q6 0 6 -6q0 -3 -1 -6l-34 -83q-31 -85 -31 -130
q0 -189 210 -189q48 0 99.5 11t92 30.5t80.5 47.5q36 24 54 52zM604 -674q-12 -29 -55 -99l-137 80l57 98q70 -34 135 -79zM630 -492q-18 -31 -55 -94q-72 37 -131 73l-41 -69q-55 26 -141 80q16 32 53 96q29 -12 129 -74q18 21 45 70z" />
    <glyph glyph-name="uni06B9.init" unicode="&#x6b9;" horiz-adv-x="460" 
d="M312 782q-17 -34 -60 -110l-137 84q17 32 55 98zM374 195q0 -43 -37 -195h-377v119h338q2 0 2 12q0 37 -39 118l-39 81q0 2 60 121q28 -29 60 -118t32 -138zM308 -227q-6 -15 -60 -103l-133 84q35 60 55 94q0 -2 138 -75z" />
    <glyph glyph-name="uni06B9.medi" unicode="&#x6b9;" horiz-adv-x="423" 
d="M338 0q-20 0 -36 25q-7 14 -25 45q-10 -13 -49 -70h-268v119h327v137q0 18 6 27q31 47 109 123v-56l-33 -215q10 -16 37 -16h35v-119h-103zM289 -227q-6 -15 -60 -103l-133 84q35 60 56 94q0 -2 137 -75zM312 739q-17 -34 -60 -110l-137 84q17 32 55 98z" />
    <glyph glyph-name="uni06B9.fina" unicode="&#x6b9;" horiz-adv-x="982" 
d="M548 561q-15 -33 -64 -108l-156 90l66 108zM914 0q-10 -29 -25.5 -90.5t-73.5 -127t-124 -97.5q-92 -47 -183 -60q-57 -9 -108 -9q-32 0 -63 4q-79 8 -153 54q-88 64 -88 187q-1 9 -1 18q0 57 22 130q12 41 19 59t33 70q26 50 59 78q4 4 8 7q5 3 7 3q1 0 3 -1q1 -1 1 -3
v-1q0 -2 -1 -4q-80 -174 -80 -252v-4q0 -109 82 -166q69 -47 167 -47l29 1q90 5 213 47q169 63 169 155q0 65 -53 174q-48 99 -53 101q3 13 67 143q45 -54 70 -123q37 -105 94 -127h49v-119h-86zM581 -596q-20 -37 -63 -109l-144 82l56 103q49 -21 151 -76z" />
    <glyph glyph-name="uni06BC.init" unicode="&#x6bc;" horiz-adv-x="464" 
d="M189 -77q0 15 -26.5 42t-45.5 35l-36 -40q-20 -26 -20 -48q0 -31 40 -31q24 0 53 10q35 13 35 32zM277 681q-17 -34 -60 -110l-137 84q17 32 55 98zM73 0h-113v119h342q2 0 2 12q0 33 -39 117q-37 80 -39 80q0 14 64 121q35 -50 51 -93q4 -10 12 -32q25 -64 25 -134
q0 -24 -33 -190h-111q10 -17 10 -37v-8q0 -15 -5 -35q-7 -26 -22.5 -45.5t-49.5 -38.5q-47 -28 -90 -28q-75 0 -75 56q0 38 53 112z" />
    <glyph glyph-name="uni06BC.medi" unicode="&#x6bc;" horiz-adv-x="423" 
d="M179 -77q0 15 -26.5 42t-45.5 35l-36 -40q-20 -26 -20 -48q0 -31 40 -31q24 0 53 10q35 13 35 32zM303 641q-17 -34 -60 -110l-137 84q17 32 55 98zM63 0h-103v119h327v137q0 18 6 27q31 47 109 123v-56l-33 -215q10 -16 37 -16h35v-119h-103q-20 0 -36 25q-7 14 -25 45
q-10 -13 -49 -70h-4q10 -17 10 -37v-6q0 -9 -2 -25q-3 -22 -20 -48.5t-55 -47.5q-47 -28 -90 -28q-75 0 -75 56q0 38 53 112z" />
    <glyph glyph-name="uni06BC.fina" unicode="&#x6bc;" horiz-adv-x="982" 
d="M548 561q-15 -33 -64 -108l-156 90l66 108zM518 -459q0 15 -26.5 42t-45.5 35l-36 -40q-20 -26 -20 -48q0 -31 40 -31q24 0 53 10q35 13 35 32zM401 -384h-1q-32 0 -63 4q-79 8 -153 54q-88 64 -88 187q-1 9 -1 18q0 57 22 130q12 41 19 59t33 70q26 50 59 78q4 4 8 7
q5 3 7 3q1 0 3 -1q1 -1 1 -3v-1q0 -2 -1 -4q-80 -174 -80 -252v-4q0 -109 82 -166q69 -47 167 -47l29 1q90 5 213 47q169 63 169 155q0 65 -53 174q-48 99 -53 101q3 13 67 143q45 -54 70 -123q37 -105 94 -127h49v-119h-86q-10 -29 -25.5 -90.5t-73.5 -127t-124 -97.5
q-70 -36 -140 -52q22 -23 23 -50v-11q0 -12 -4 -28q-5 -23 -21.5 -46t-52.5 -44q-47 -28 -90 -28q-75 0 -75 56q0 38 53 112q8 11 17 22z" />
    <glyph glyph-name="uni06BD.init" unicode="&#x6bd;" horiz-adv-x="460" 
d="M226 823q-17 -30 -60 -98q-41 23 -133 80l60 98zM373 631q-12 -31 -53 -99q-27 15 -129 74q-23 -24 -45 -69l-141 79q26 50 59 101q45 -25 127 -78q14 23 45 70zM374 195q0 -43 -37 -195h-377v119h338q2 0 2 12q0 37 -39 118l-39 81q0 2 60 121q28 -29 60 -118t32 -138z
" />
    <glyph glyph-name="uni06BD.medi" unicode="&#x6bd;" horiz-adv-x="423" 
d="M240 823l-59 -96q-43 21 -133 78q26 51 57 98zM388 623q-15 -31 -56 -99q-26 15 -127 74q-26 -29 -45 -70l-143 80q29 49 59 101l127 -78q13 20 45 69zM441 0h-103q-20 0 -36 25q-7 14 -25 45q-10 -13 -49 -70h-268v119h327v137q0 18 6 27q31 47 109 123v-56l-33 -215
q10 -16 37 -16h35v-119z" />
    <glyph glyph-name="uni06BD.fina" unicode="&#x6bd;" horiz-adv-x="982" 
d="M914 0q-10 -29 -25.5 -90.5t-73.5 -127t-124 -97.5q-92 -47 -183 -60q-57 -9 -108 -9q-32 0 -63 4q-79 8 -153 54q-88 64 -88 187q-1 9 -1 18q0 57 22 130q12 41 19 59t33 70q26 50 59 78q4 4 8 7q5 3 7 3q1 0 3 -1q1 -1 1 -3v-1q0 -2 -1 -4q-80 -174 -80 -252v-4
q0 -109 82 -166q69 -47 167 -47l29 1q90 5 213 47q169 63 169 155q0 65 -53 174q-48 99 -53 101q3 13 67 143q45 -54 70 -123q37 -105 94 -127h49v-119h-86zM472 742q-17 -30 -60 -98q-41 23 -133 80l60 98zM619 550q-12 -31 -53 -99q-27 15 -129 74q-23 -24 -45 -69
l-141 79q26 50 59 101q45 -25 127 -78q14 23 45 70z" />
    <glyph glyph-name="uni06BF.init" unicode="&#x6bf;" horiz-adv-x="926" 
d="M435 702l-56 -99l-137 80q17 33 55 98q45 -22 138 -79zM112 266q0 25 18 53q43 70 115 93q16 6 49 6q24 0 33 -2q53 -8 104 -41q154 -99 158 -101q92 -55 170 -75q32 -11 110 -11q-8 -20 -24.5 -63t-24.5 -64q-39 11 -72 15q-90 14 -167 14q-64 0 -169 -46
q-99 -44 -192 -44h-260v119h330q20 0 61 10t133 53q-30 21 -105 67t-130 56q-8 2 -23 2q-16 0 -22 -2q-23 -4 -53.5 -26.5t-32.5 -22.5t-3 1q-3 2 -3 8v1zM598 -411q-12 -29 -55 -99l-137 80l57 98q70 -34 135 -79zM624 -229q-18 -31 -55 -94q-72 37 -131 73l-41 -69
q-55 26 -141 80q16 32 53 96q29 -12 129 -74q18 21 45 70z" />
    <glyph glyph-name="uni06BF.medi" unicode="&#x6bf;" horiz-adv-x="909" 
d="M451 702q-18 -33 -55 -99q-45 27 -137 80q12 29 55 98q90 -51 137 -79zM141 279q7 33 54 86q29 33 53 48q20 13 40 16q10 1 20 1q8 0 15 -1q16 -2 63.5 -12t153.5 -38q163 -47 254 -47q49 0 71 4q-14 -43 -49 -127h-104q-66 0 -129 -31q2 -16 15 -37.5t48 -21.5h281v-119
h-312q-41 0 -57 24.5t-31 122.5q-57 -52 -128 -99.5t-187 -47.5h-252v119h251q99 0 187 39q82 37 131 82q-211 59 -256 59q-34 0 -57.5 -10t-46.5 -35t-25 -25t-3 1q-3 1 -4 7v1q-1 6 -1 12q0 14 5 29zM619 -403q-12 -29 -55 -99l-137 80l57 98q70 -34 135 -79zM645 -221
q-18 -31 -55 -94q-72 37 -131 73l-41 -69q-55 26 -141 80q16 32 53 96q29 -12 129 -74q18 21 45 70z" />
    <glyph glyph-name="uni06BF.fina" unicode="&#x6bf;" horiz-adv-x="839" 
d="M469 697q-16 -33 -55 -98l-133 84l59 98zM495 209q10 -47 23 -68.5t48 -21.5h291v-119h-322q-41 0 -57 24.5t-31 122.5l-7 42q-128 -59 -225 -181q-46 -55 -66 -112q-12 -39 -12 -62q0 -41 12 -82q39 -112 156 -166q59 -28 198 -55q58 -10 129 -16h207q-47 -47 -125 -72
q-26 -8 -82.5 -18.5t-126.5 -10.5q-180 0 -297 70q-137 82 -137 242q0 321 295 522q-29 12 -88 22q-39 4 -82 4q-47 0 -72.5 -5t-46.5 -13l-18 -10q4 45 34.5 92t51.5 59q20 15 49 15h5q32 -2 313 -39h247q-39 -78 -57 -125q-120 -12 -207 -39zM583 -318q-12 -29 -55 -99
l-137 80l57 98q70 -34 135 -79zM609 -136q-18 -31 -55 -94q-72 37 -131 73l-41 -69q-55 26 -141 80q16 32 53 96q29 -12 129 -74q18 21 45 70z" />
    <glyph glyph-name="uni06C2.fina" unicode="&#x6c2;" horiz-adv-x="794" 
d="M52 77l83 140q202 165 333 170q70 0 84 -83q8 -44 40 -93q61 -92 186 -92h34v-119h-57q-105 6 -170 56.5t-102 161.5q-5 31 -52 40h-4q-97 0 -252 -100q-83 -58 -115 -90q-2 -1 -4 -1q-1 0 -3 1q-3 2 -3 4t2 5zM555 675q-12 -24 -35 -51h-7q-80 0 -228 -86v15q0 13 92 71
q-41 6 -101 33q-6 6 -6 20q0 55 53.5 99.5t106.5 44.5q29 0 39 -7q2 0 14 -12q0 -22 -18 -57q0 1 -19 12q-22 12 -39 12q-24 0 -53 -10q-37 -16 -37 -39q0 -4 2 -6q21 -16 35 -18q62 -13 201 -21z" />
    <glyph glyph-name="uni06C3.fina" unicode="&#x6c3;" horiz-adv-x="794" 
d="M52 77l83 140q202 165 333 170q70 0 84 -83q8 -44 40 -93q61 -92 186 -92h34v-119h-57q-105 6 -170 56.5t-102 161.5q-5 31 -52 40h-4q-97 0 -252 -100q-83 -58 -115 -90q-2 -1 -4 -1q-1 0 -3 1q-3 2 -3 4t2 5zM559 651q-29 -47 -55 -96q-41 20 -132 78l-40 -74l-142 82
q27 51 60 98q43 -25 127 -78q6 12 45 70q22 -12 68 -40t69 -40z" />
    <glyph glyph-name="uni06C4.fina" unicode="&#x6c4;" horiz-adv-x="655" 
d="M532 119v30q-2 70 -51 119q-19 19 -34 26q-9 4 -17 4q-6 0 -11 -2q-25 -6 -55.5 -41.5t-30.5 -57.5q1 -22 23 -40q29 -20 62 -27t60 -9t54 -2zM368 -211q3 2 6 5q7 6 7 14q0 12 -21.5 33.5t-36.5 28.5q-15 -16 -29 -33q-17 -21 -17 -38q0 -25 33 -25q19 0 42 7q10 4 16 8
zM426 -161q86 82 114 161q-87 0 -124 5q-95 11 -126 71q-10 18 -10 65q0 31 2 37q10 55 27 92q20 49 51 95.5t72 66.5q12 6 22 6q21 0 37 -12q90 -68 111 -279l2 -28h69v-119h-73q-2 -12 -11 -39q-43 -143 -112 -231q-49 -58 -110 -88q-36 -16 -65 -16q-27 0 -79 13
q-43 11 -101 34q-74 28 -117 67q-2 6 -2 10q0 13 14 15q4 0 60.5 -22.5t85.5 -30.5q18 -5 32 -5q26 0 58 13q-24 11 -24 39q0 31 43 92q34 44 68 89q31 -25 63 -51q23 -21 23 -49v-1z" />
    <glyph glyph-name="uni06CA.fina" unicode="&#x6ca;" horiz-adv-x="655" 
d="M532 119v30q-2 70 -51 119q-19 19 -34 26q-9 4 -17 4q-6 0 -11 -2q-25 -6 -55.5 -41.5t-30.5 -57.5q1 -22 23 -40q29 -20 62 -27t60 -9t54 -2zM477 -270q-49 -58 -110 -88q-36 -16 -65 -16q-27 0 -79 13q-43 11 -101 34q-74 28 -117 67q-2 6 -2 10q0 13 14 15
q4 0 60.5 -22.5t85.5 -30.5q18 -5 32 -5q52 0 134 54q33 21 73 56q11 9 21 19q89 84 117 164q-87 0 -124 5q-95 11 -126 71q-10 18 -10 65q0 31 2 37q10 55 27 92q20 49 51 95.5t72 66.5q12 6 22 6q21 0 37 -12q90 -68 111 -279l2 -28h69v-119h-73q-2 -12 -11 -39
q-43 -143 -112 -231zM603 649q-17 -30 -52 -98q-43 25 -131 74q-4 -4 -41 -66q-24 13 -141 76q2 6 53 104q54 -26 138 -81q12 6 24 30q17 35 21 39z" />
    <glyph glyph-name="uni06CD.fina" unicode="&#x6cd;" horiz-adv-x="1024" 
d="M311 315h10q-39 -77 -76 -153q-53 -111 -53 -168q0 -107 96 -160q76 -41 192 -41q271 0 363 92q-4 88 -107 109q-77 10 -155 22q49 103 67 103h394v-119h-78q-31 -63 -70 -143q-59 -102 -152.5 -143t-165.5 -50q-60 -8 -127 -8h-28q-123 0 -205 55q-98 66 -98 193
q0 92 63 225q10 21 20 39q-40 -19 -81 -24q-15 -2 -27 -2q-33 0 -38 16l28 82q22 -7 50 -7q36 1 59 6.5t41.5 15.5t58.5 44q9 9 19 16z" />
    <glyph glyph-name="uni06CE.init" unicode="&#x6ce;" horiz-adv-x="460" 
d="M374 195q0 -43 -37 -195h-377v119h338q2 0 2 12q0 37 -39 118l-39 81q0 2 60 121q28 -29 60 -118t32 -138zM369 -223q-13 -31 -56 -99q-26 15 -127 76q-16 -26 -47 -71l-139 79l59 103l127 -78q15 23 45 70zM437 782q-134 -153 -150 -212l-19 -10q-10 60 -175 195l23 97
h8q121 -119 154 -176h3q29 61 133 181q15 -34 23 -75z" />
    <glyph glyph-name="uni06CE.medi" unicode="&#x6ce;" horiz-adv-x="423" 
d="M338 0q-20 0 -36 25q-7 14 -25 45q-10 -13 -49 -70h-268v119h327v137q0 18 6 27q31 47 109 123v-56l-33 -215q10 -16 37 -16h35v-119h-103zM369 -223q-13 -31 -56 -99q-26 15 -127 76q-16 -26 -47 -71l-139 79l59 103l127 -78q15 23 45 70zM397 782q-134 -153 -150 -212
l-19 -10q-10 60 -175 195l23 97h8q121 -119 154 -176h3q29 61 133 181q15 -34 23 -75z" />
    <glyph glyph-name="uni06CE.fina" unicode="&#x6ce;" horiz-adv-x="996" 
d="M1014 119v-119h-78q-31 -63 -70 -143q-59 -102 -152.5 -143t-165.5 -50q-60 -8 -127 -8h-28q-123 0 -205 55q-98 66 -98 193q0 92 63 225q60 127 130 186h10q-39 -77 -76 -153q-53 -111 -53 -168q0 -107 96 -160q76 -41 192 -41q271 0 363 92q-4 88 -107 109
q-77 10 -155 22q49 103 67 103h394zM566 526q-134 -153 -150 -212l-19 -10q-10 60 -175 195l23 97h8q121 -119 154 -176h3q29 61 133 181q15 -34 23 -75z" />
    <glyph glyph-name="uni06CF.fina" unicode="&#x6cf;" horiz-adv-x="655" 
d="M532 119v30q-2 70 -51 119q-19 19 -34 26q-9 4 -17 4q-6 0 -11 -2q-25 -6 -55.5 -41.5t-30.5 -57.5q1 -22 23 -40q29 -20 62 -27t60 -9t54 -2zM477 -270q-49 -58 -110 -88q-36 -16 -65 -16q-27 0 -79 13q-43 11 -101 34q-74 28 -117 67q-2 6 -2 10q0 13 14 15
q4 0 60.5 -22.5t85.5 -30.5q18 -5 32 -5q52 0 134 54q33 21 73 56q11 9 21 19q89 84 117 164q-87 0 -124 5q-95 11 -126 71q-10 18 -10 65q0 31 2 37q10 55 27 92q20 49 51 95.5t72 66.5q12 6 22 6q21 0 37 -12q90 -68 111 -279l2 -28h69v-119h-73q-2 -12 -11 -39
q-43 -143 -112 -231zM517 655l-55 -104l-137 78q8 14 24.5 46.5t24.5 47.5z" />
    <glyph glyph-name="uni06D1.init" unicode="&#x6d1;" horiz-adv-x="460" 
d="M298 119q2 0 2 12q0 37 -39 118l-39 81q0 2 60 121q28 -29 60 -118t32 -138q0 -43 -37 -195h-377v119h338zM345 -408q-12 -29 -55 -99l-137 80l57 98q70 -34 135 -79zM371 -226q-18 -31 -55 -94q-72 37 -131 73l-41 -69q-55 26 -141 80q16 32 53 96q29 -12 129 -74
q18 21 45 70z" />
    <glyph glyph-name="uni06D1.medi" unicode="&#x6d1;" horiz-adv-x="423" 
d="M441 0h-103q-20 0 -36 25q-7 14 -25 45q-10 -13 -49 -70h-268v119h327v137q0 18 6 27q31 47 109 123v-56l-33 -215q10 -16 37 -16h35v-119zM345 -408q-12 -29 -55 -99l-137 80l57 98q70 -34 135 -79zM371 -226q-18 -31 -55 -94q-72 37 -131 73l-41 -69q-55 26 -141 80
q16 32 53 96q29 -12 129 -74q18 21 45 70z" />
    <glyph glyph-name="uni06D1.fina" unicode="&#x6d1;" horiz-adv-x="996" 
d="M1014 119v-119h-78q-31 -63 -70 -143q-59 -102 -152.5 -143t-165.5 -50q-60 -8 -127 -8h-28q-123 0 -205 55q-98 66 -98 193q0 92 63 225q60 127 130 186h10q-39 -77 -76 -153q-53 -111 -53 -168q0 -107 96 -160q76 -41 192 -41q271 0 363 92q-4 88 -107 109
q-77 10 -155 22q49 103 67 103h394zM652 -736q-12 -29 -55 -99l-137 80l57 98q70 -34 135 -79zM678 -554q-18 -31 -55 -94q-72 37 -131 73l-41 -69q-55 26 -141 80q16 32 53 96q29 -12 129 -74q18 21 45 70z" />
    <glyph glyph-name="uni06D5.fina" unicode="&#x6d5;" horiz-adv-x="617" 
d="M430 221l-35 213q-18 -33 -51 -72q-22 -14 -81.5 -33.5t-86.5 -39.5q25 -27 60 -37q55 -21 85.5 -26t47.5 -5h61zM604 119h31v-119h-105q-12 0 -28 8q-31 17 -45 51q-6 13 -15 91q-2 18 -10 34q-20 -8 -39 -39q-10 -20 -22 -43q-9 -12 -23 -12q-12 0 -141 35
q-37 8 -55 16q-37 13 -66 35q25 146 115 223q26 25 90 45q78 25 96 35q-4 19 -4 49v21q8 22 82 106q18 -163 57 -493q0 -10 6 -19q21 -24 76 -24z" />
    <glyph glyph-name="uni06EE.fina" unicode="&#x6ee;" horiz-adv-x="705" 
d="M685 0q-37 1 -58 14q-23 13 -39 47l-27 54q-26 -62 -68 -109q-12 -10 -100 -22q-102 -13 -174 -13q-64 0 -80.5 5.5t-27 17t-15.5 41.5q-1 14 -1 27q0 82 46 151q12 -4 14 -59q2 -21 12 -36.5t39 -19.5t87 -4q86 0 190 25q41 10 51 78l-65 252q10 20 33.5 64t33.5 65
q27 -60 52 -240q22 -156 65 -208q7 -10 22 -11h48v-119h-38zM322 771q134 153 150 212l19 10q10 -60 175 -195l-23 -97h-8q-121 119 -154 176h-3q-29 -61 -133 -181q-15 34 -23 75z" />
    <glyph glyph-name="uni06EF.fina" unicode="&#x6ef;" horiz-adv-x="743" 
d="M725 0q-42 0 -72 18.5t-40 30.5q-9 -49 -34.5 -116.5t-63.5 -122.5q-63 -101 -148 -142q-36 -16 -65 -16q-27 0 -79 13q-43 11 -101 34q-74 28 -117 67q-2 6 -2 10q0 13 14 15q4 0 60.5 -22.5t85.5 -30.5q18 -5 32 -5q52 0 134 54q51 33 116 103q14 15 26 29
q85 109 85 159q0 16 -57 92q-52 66 -66 78l68 121q49 -72 98 -146q65 -86 129 -104h33v-119h-36zM281 613q134 153 150 212l19 10q10 -60 175 -195l-23 -97h-8q-121 119 -154 176h-3q-29 -61 -133 -181q-15 34 -23 75z" />
    <glyph glyph-name="uni06FA.init" unicode="&#x6fa;" horiz-adv-x="939" 
d="M216 119q39 0 43 59q2 31 2 64q51 55 111 112q-4 -53 -11 -104q-10 -80 -38 -115q7 -12 36 -16q54 -4 91 -4t94 4q0 28 5 88q9 29 114 125l-45 -213q25 -1 38.5 -2t44.5 -1t44.5 1t34.5 2q2 4 2 12q0 19 -12 60l-13 42q0 11 48 64q24 29 51 55v-212q0 -61 -47 -140
q-17 0 -59 -4t-46 -4q-69 0 -109 18l-40 19q-38 -28 -58 -30q-27 -4 -60 -4q-36 0 -94.5 3t-93.5 43q-28 -41 -80 -41h-209v119h256zM553 778l-55 -104l-137 78q8 14 24.5 46.5t24.5 47.5zM689 569q-17 -30 -52 -98q-43 25 -131 74q-4 -4 -41 -66q-24 13 -141 76q2 6 53 104
q54 -26 138 -81q12 6 24 30q17 35 21 39zM553 -227q-6 -15 -59 -103l-134 84q35 60 56 94q0 -2 137 -75z" />
    <glyph glyph-name="uni06FA.medi" unicode="&#x6fa;" horiz-adv-x="875" 
d="M553 778l-55 -104l-137 78q8 14 24.5 46.5t24.5 47.5zM689 569q-17 -30 -52 -98q-43 25 -131 74q-4 -4 -41 -66q-24 13 -141 76q2 6 53 104q54 -26 138 -81q12 6 24 30q17 35 21 39zM859 0q-105 -8 -155 -8q-69 0 -109 18l-40 19q-38 -28 -58 -30q-27 -4 -60 -4
q-36 0 -94.5 3t-93.5 43q-28 -41 -80 -41h-209v119h256q39 0 43 59q2 31 2 64q51 55 111 112q-4 -53 -11 -104q-10 -80 -38 -115q7 -12 36 -16q54 -4 91 -4t94 4q0 28 5 88q9 29 114 125l-45 -213q25 -1 38.5 -2t44.5 -1t45 1q12 1 32 2h1v7q0 23 -9 67q-10 43 -12 46
q4 10 99 113v-178q0 -2 -9 -55h45v-119h-34zM553 -227q-6 -15 -59 -103l-134 84q35 60 56 94q0 -2 137 -75z" />
    <glyph glyph-name="uni06FA.fina" unicode="&#x6fa;" horiz-adv-x="1335" 
d="M814 -3l-5 -36q-35 -172 -190 -246q-117 -55 -267 -55q-112 0 -182 51q-80 60 -80 176q0 74 36 178q34 99 81 151q4 5 9 7q2 1 4 1q3 0 7 -2q4 -3 5 -8v-2q0 -5 -5 -13q-29 -49 -52 -110.5t-23 -113.5q0 -102 77 -153q64 -41 154 -41q82 0 201 39q155 51 155 133
q0 88 -94 240l60 133q20 -23 58 -110t64 -97l6 -1q40 -3 77 -3t94 4q0 28 5 88q9 29 114 125l-45 -213q25 -1 38.5 -2t44.5 -1t45 1q12 1 32 2h1v7q0 23 -9 67q-10 43 -12 46q4 10 99 113v-178q0 -2 -9 -55h45v-119h-34q-105 -8 -155 -8q-69 0 -109 18l-40 19
q-38 -28 -58 -30q-27 -4 -60 -4t-83 2zM1103 778l-55 -104l-137 78q8 14 24.5 46.5t24.5 47.5zM1239 569q-17 -30 -52 -98q-43 25 -131 74q-4 -4 -41 -66q-24 13 -141 76q2 6 53 104q54 -26 138 -81q12 6 24 30q17 35 21 39zM1103 -227q-6 -15 -59 -103l-134 84q35 60 56 94
q0 -2 137 -75z" />
    <glyph glyph-name="uni06FB.init" unicode="&#x6fb;" horiz-adv-x="1233" 
d="M931 276q-28 11 -57 11h-5q-41 0 -74 -15q-41 -16 -130 -80.5t-118 -72.5h465q19 0 43 16q1 3 1 7q0 33 -54 84q-42 39 -71 50zM249 41q-28 -41 -80 -41h-209v119h256q39 0 43 59q2 31 2 64q51 55 111 112q-4 -53 -11 -104q-10 -80 -38 -115q7 -12 36 -16h39q16 0 41 12
q16 8 30 16q27 13 86 50q6 4 164 114q101 72 154 88q43 15 63 15q58 0 137.5 -72t79.5 -135q0 -25 -24 -72q-19 -35 -58 -106q-18 -29 -43 -29h-578l-104 1q-73 0 -97 40zM740 653q-35 -67 -56 -102l-137 80q16 37 61 102zM740 -227q-7 -15 -60 -103l-133 84q35 60 55 94
q0 -2 138 -75z" />
    <glyph glyph-name="uni06FB.medi" unicode="&#x6fb;" horiz-adv-x="1195" 
d="M931 276q-28 11 -57 11h-5q-41 0 -74 -15q-41 -16 -130 -80.5t-118 -72.5h465q19 0 43 16q1 3 1 7q0 33 -54 84q-42 39 -71 50zM450 0l-104 1q-73 0 -97 40q-28 -41 -80 -41h-209v119h256q39 0 43 59q2 31 2 64q51 55 111 112q-4 -53 -11 -104q-10 -80 -38 -115
q7 -12 36 -16h39q16 0 41 12q16 8 30 16q27 13 86 50q6 4 164 114q101 72 154 88q43 15 63 15q58 0 137.5 -72t79.5 -135q0 -25 -24 -72q-4 -7 -9 -16h93v-119h-763zM740 653q-35 -67 -56 -102l-137 80q16 37 61 102zM740 -227q-7 -15 -60 -103l-133 84q35 60 55 94
q0 -2 138 -75z" />
    <glyph glyph-name="uni06FB.fina" unicode="&#x6fb;" horiz-adv-x="1624" 
d="M1370 276q-28 11 -57 11h-5q-41 0 -74 -15q-41 -16 -130 -80.5t-118 -72.5h465q19 0 43 16q1 3 1 7q0 33 -54 84q-42 39 -71 50zM814 0l-5 -39q-35 -172 -190 -246q-117 -55 -267 -55q-112 0 -182 51q-80 60 -80 176q0 74 36 178q34 99 81 151q4 5 9 7q2 1 4 1q3 0 7 -2
q4 -3 5 -8v-2q0 -5 -5 -13q-29 -49 -52 -110.5t-23 -113.5q0 -102 77 -153q64 -41 154 -41q82 0 201 39q155 51 155 133q0 88 -94 240l60 133q20 -23 58 -110t64 -97h10q16 0 41 12q16 8 30 16q27 13 86 50q6 4 164 114q101 72 154 88q43 15 63 15q58 0 137.5 -72t79.5 -135
q0 -25 -24 -72q-4 -7 -9 -16h83v-119h-828zM1179 653q-35 -67 -56 -102l-137 80q16 37 61 102zM1179 -227q-7 -15 -60 -103l-133 84q35 60 55 94q0 -2 138 -75z" />
    <glyph glyph-name="uni06FC.init" unicode="&#x6fc;" horiz-adv-x="796" 
d="M456 772q-27 -55 -60 -106l-137 79q33 68 55 103zM746 119l-57 -119h-729v119h172q43 0 43 1l-1 1q-7 1 -27.5 28t-26.5 56q0 14 39 88q28 49 91.5 108.5t112.5 71.5q33 11 74 12q16 0 34.5 -6t55.5 -41q51 -47 80 -131l-4 -22q-39 26 -117 67q-34 15 -71 15
q-29 0 -107 -23q-98 -31 -98 -63q0 -15 24 -41q82 -86 138 -111q22 -8 71 -8zM456 -227q-6 -15 -59 -103l-134 84q35 60 56 94q0 -2 137 -75z" />
    <glyph glyph-name="uni06FC.medi" unicode="&#x6fc;" horiz-adv-x="544" 
d="M411 709l-60 -107q-45 27 -137 80l51 102zM562 0h-98q-37 0 -71 19t-50 51q-44 -39 -86 -55q-37 -15 -111 -15h-186v119h190q97 0 143 33q-22 36 -36 44.5t-26 8.5q-13 0 -38 -4q-36 0 -36 28q0 11 18 45q21 45 76 127q20 21 63 21q25 0 62 -14q20 -7 59 -32t77 -54
q6 -6 6 -14v-4l-10 -29q-36 -87 -49 -100t-44 -13q10 -38 49 -43h98v-119zM407 -227q-7 -15 -60 -103l-133 84q35 60 55 94q0 -2 138 -75z" />
    <glyph glyph-name="uni06FC.fina" unicode="&#x6fc;" horiz-adv-x="682" 
d="M449 709q-23 -45 -56 -107q-47 29 -141 80l55 102zM801 -440q-97 -78 -177 -96q-66 -16 -125 -16q-13 0 -25 1q-32 0 -85 6t-112.5 24.5t-102.5 57.5q-49 41 -69 82q-11 23 -18 52.5t-7 82.5q0 82 16 150q47 178 181 291q-31 32 -57 46q-13 6 -29 6q-20 0 -45 -9
q8 56 28 94q27 55 72 71q14 7 45 10q8 1 17 1q25 0 55 -6q40 -9 77 -33t52 -47q14 -19 14 -39q0 -29 -27 -74l-8 -12q-40 -2 -72 -21q43 -44 93 -54q45 -9 86 -9h125v-119h-117q-35 0 -74 7.5t-82 33.5t-90 82l-14 16q-8 -4 -21 -16q-37 -31 -86 -94q-61 -76 -73 -183
q0 -34 8 -77q31 -94 103.5 -137.5t145.5 -56.5t126 -15h272zM495 -155q-31 -59 -55 -100l-135 77q18 33 55 99q45 -27 135 -76z" />
    <glyph glyph-name="uni06FF.init" unicode="&#x6ff;" horiz-adv-x="862" 
d="M671 215q-47 68 -74 68q-23 0 -41 -43q-14 -31 -14 -45q0 -35 59 -60q47 -20 80 -20q16 0 24 6q5 4 5 13q0 4 -1 10q-7 23 -38 71zM497 236q0 24 -25 60t-53 36q-41 0 -81 -54q-35 -46 -35 -71q0 -4 1 -7q7 -25 45 -36q43 -17 64 -17q26 0 55 32t29 57zM268 119
q-29 16 -38 67q-2 9 -2 18q0 43 33 91q40 58 115 139q-2 12 -2 23q0 12 2 24q0 15 23.5 60t35.5 45q6 0 45 -31q213 -176 271 -289q28 -61 28 -98q0 -47 -28.5 -102.5t-59.5 -65.5l-294 27q-137 -28 -195 -28q-9 0 -16 1h-226v119h308zM265 720q134 153 150 212l19 10
q10 -60 175 -195l-23 -97h-8q-121 119 -154 176h-3q-29 -61 -133 -181q-15 34 -23 75z" />
    <glyph glyph-name="uni06FF.medi" unicode="&#x6ff;" horiz-adv-x="666" 
d="M484 -158q1 9 1 17q0 59 -68 104q-52 36 -126 37h-73q18 -80 94 -129q64 -43 125 -43q29 0 47 14zM475 395l-11 -6q-107 -56 -205 -260q42 12 89 33q58 28 104 63q12 6 25 21q11 24 11 78q0 6 -3 29q-3 17 -10 42zM555 0q12 -34 12 -71q0 -20 -3 -41q-38 -161 -182 -169
q-107 0 -172.5 75t-65.5 206h-184v119l211 1q12 45 40 102q140 252 331 294q22 -18 22 -80q0 -69 -18 -160q-25 -116 -66 -157h204v-119h-129zM285 720q134 153 150 212l19 10q10 -60 175 -195l-23 -97h-8q-121 119 -154 176h-3q-29 -61 -133 -181q-15 34 -23 75z" />
    <glyph glyph-name="uni06FF.fina" unicode="&#x6ff;" horiz-adv-x="744" 
d="M552 -158q1 9 1 17q0 59 -68 104q-52 36 -126 37h-73q18 -80 94 -129q64 -43 125 -43q29 0 47 14zM543 395l-11 -6q-107 -56 -205 -260q42 12 89 33q58 28 104 63q12 6 25 21q11 24 11 78q0 6 -3 29q-3 17 -10 42zM43 -71q24 79 70 129.5t126 61.5q12 45 40 102
q140 252 331 294q22 -18 22 -80q0 -69 -18 -160q-25 -116 -66 -157h214v-119h-139q12 -34 12 -71q0 -20 -3 -41q-38 -161 -182 -169q-107 0 -172 75q-65 74 -66 202q-81 -6 -153 -77q-3 -4 -6 -7t-5 -4h-2q-2 0 -3 2q-2 2 -2 7t2 12zM355 720q134 153 150 212l19 10
q10 -60 175 -195l-23 -97h-8q-121 119 -154 176h-3q-29 -61 -133 -181q-15 34 -23 75z" />
    <glyph glyph-name="uniFB50" unicode="&#x671;" horiz-adv-x="414" arabic-form="isolated" 
d="M269 211q0 -92 -59 -211l-76 762q0 53 92 199zM270 1110q32 0 60 12q30 13 31 32q-16 57 -70 59q-62 0 -126 -79q50 -24 105 -24zM97 1167q6 -3 37 -16q92 130 168 130q42 0 69 -30q28 -33 28 -90q0 -52 -37 -89q-40 -38 -101 -38q-62 0 -117 23q-27 11 -36.5 17.5
t-14.5 12.5q-12 -24 -25 -47q-16 -28 -34 -34l-11 6l58 125q8 14 16 30z" />
    <glyph glyph-name="uniFB51" unicode="&#x671;" horiz-adv-x="422" arabic-form="final" 
d="M440 0h-245l-68 852q0 25 2 27q14 24 84 106q6 -47 33 -412q16 -202 45 -395q10 -59 123 -59h26v-119zM270 1110q32 0 60 12q30 13 31 32q-16 57 -70 59q-62 0 -126 -79q50 -24 105 -24zM97 1167q6 -3 37 -16q92 130 168 130q42 0 69 -30q28 -33 28 -90q0 -52 -37 -89
q-40 -38 -101 -38q-62 0 -117 23q-27 11 -36.5 17.5t-14.5 12.5q-12 -24 -25 -47q-16 -28 -34 -34l-11 6l58 125q8 14 16 30z" />
    <glyph glyph-name="uniFB52" unicode="&#x67b;" horiz-adv-x="1173" arabic-form="isolated" 
d="M1087 195q0 -52 -37 -195h-750q0 1 -32 6q-82 17 -132 70t-50 117q0 49 45 137t78 96v-18l-24 -54q-24 -53 -24 -75q0 -70 47.5 -115t114.5 -45h688q2 2 2 14q0 64 -86 205l68 121q29 -31 60.5 -119t31.5 -145zM617 -334q-58 53 -118 102q38 51 79 92q54 -40 115 -104
q-42 -58 -76 -90zM643 -518q-63 57 -118 101q35 48 79 93q55 -42 115 -105q-46 -62 -76 -89z" />
    <glyph glyph-name="uniFB53" unicode="&#x67b;" horiz-adv-x="1153" arabic-form="final" 
d="M300 0q0 1 -32 6q-82 17 -132 70t-50 117q0 49 45 137t78 96v-18l-24 -54q-24 -53 -24 -75q0 -70 47.5 -115t114.5 -45h694v137q0 18 6 27q31 47 109 123v-56l-33 -215q10 -16 37 -16h35v-119h-103q-20 0 -36 25q-7 14 -25 45q-10 -13 -49 -70h-658zM617 -334
q-58 53 -118 102q38 51 79 92q54 -40 115 -104q-42 -58 -76 -90zM643 -518q-63 57 -118 101q35 48 79 93q55 -42 115 -105q-46 -62 -76 -89z" />
    <glyph glyph-name="uniFB54" unicode="&#x67b;" horiz-adv-x="460" arabic-form="initial" 
d="M298 119q2 0 2 12q0 37 -39 118l-39 81q0 2 60 121q28 -29 60 -118t32 -138q0 -43 -37 -195h-377v119h338zM177 -334q-58 53 -118 102q38 51 79 92q54 -40 115 -104q-42 -58 -76 -90zM203 -518q-63 57 -118 101q35 48 79 93q55 -42 115 -105q-46 -62 -76 -89z" />
    <glyph glyph-name="uniFB55" unicode="&#x67b;" horiz-adv-x="423" arabic-form="medial" 
d="M441 0h-103q-20 0 -36 25q-7 14 -25 45q-10 -13 -49 -70h-268v119h327v137q0 18 6 27q31 47 109 123v-56l-33 -215q10 -16 37 -16h35v-119zM177 -334q-58 53 -118 102q38 51 79 92q54 -40 115 -104q-42 -58 -76 -90zM203 -518q-63 57 -118 101q35 48 79 93
q55 -42 115 -105q-46 -62 -76 -89z" />
    <glyph glyph-name="uniFB56" unicode="&#x67e;" horiz-adv-x="1173" arabic-form="isolated" 
d="M1087 195q0 -52 -37 -195h-750q0 1 -32 6q-82 17 -132 70t-50 117q0 49 45 137t78 96v-18l-24 -54q-24 -53 -24 -75q0 -70 47.5 -115t114.5 -45h688q2 2 2 14q0 64 -86 205l68 121q29 -31 60.5 -119t31.5 -145zM785 -408q-12 -29 -55 -99l-137 80l57 98q70 -34 135 -79z
M811 -226q-18 -31 -55 -94q-72 37 -131 73l-41 -69q-55 26 -141 80q16 32 53 96q29 -12 129 -74q18 21 45 70z" />
    <glyph glyph-name="uniFB57" unicode="&#x67e;" horiz-adv-x="1153" arabic-form="final" 
d="M300 0q0 1 -32 6q-82 17 -132 70t-50 117q0 49 45 137t78 96v-18l-24 -54q-24 -53 -24 -75q0 -70 47.5 -115t114.5 -45h694v137q0 18 6 27q31 47 109 123v-56l-33 -215q10 -16 37 -16h35v-119h-103q-20 0 -36 25q-7 14 -25 45q-10 -13 -49 -70h-658zM785 -408
q-12 -29 -55 -99l-137 80l57 98q70 -34 135 -79zM811 -226q-18 -31 -55 -94q-72 37 -131 73l-41 -69q-55 26 -141 80q16 32 53 96q29 -12 129 -74q18 21 45 70z" />
    <glyph glyph-name="uniFB58" unicode="&#x67e;" horiz-adv-x="460" arabic-form="initial" 
d="M298 119q2 0 2 12q0 37 -39 118l-39 81q0 2 60 121q28 -29 60 -118t32 -138q0 -43 -37 -195h-377v119h338zM345 -408q-12 -29 -55 -99l-137 80l57 98q70 -34 135 -79zM371 -226q-18 -31 -55 -94q-72 37 -131 73l-41 -69q-55 26 -141 80q16 32 53 96q29 -12 129 -74
q18 21 45 70z" />
    <glyph glyph-name="uniFB59" unicode="&#x67e;" horiz-adv-x="423" arabic-form="medial" 
d="M441 0h-103q-20 0 -36 25q-7 14 -25 45q-10 -13 -49 -70h-268v119h327v137q0 18 6 27q31 47 109 123v-56l-33 -215q10 -16 37 -16h35v-119zM345 -408q-12 -29 -55 -99l-137 80l57 98q70 -34 135 -79zM371 -226q-18 -31 -55 -94q-72 37 -131 73l-41 -69q-55 26 -141 80
q16 32 53 96q29 -12 129 -74q18 21 45 70z" />
    <glyph glyph-name="uniFB5A" unicode="&#x680;" horiz-adv-x="1173" arabic-form="isolated" 
d="M1087 195q0 -52 -37 -195h-750q0 1 -32 6q-82 17 -132 70t-50 117q0 49 45 137t78 96v-18l-24 -54q-24 -53 -24 -75q0 -70 47.5 -115t114.5 -45h688q2 2 2 14q0 64 -86 205l68 121q29 -31 60.5 -119t31.5 -145zM812 -226q-19 -33 -55 -94q-43 22 -132 69q-14 -22 -43 -65
l-139 80l53 96q29 -12 129 -74q17 17 50 70zM881 -398q-19 -33 -55 -94q-43 22 -132 69q-14 -22 -43 -65l-139 80l53 96q29 -12 129 -74q17 17 50 70z" />
    <glyph glyph-name="uniFB5B" unicode="&#x680;" horiz-adv-x="1153" arabic-form="final" 
d="M300 0q0 1 -32 6q-82 17 -132 70t-50 117q0 49 45 137t78 96v-18l-24 -54q-24 -53 -24 -75q0 -70 47.5 -115t114.5 -45h694v137q0 18 6 27q31 47 109 123v-56l-33 -215q10 -16 37 -16h35v-119h-103q-20 0 -36 25q-7 14 -25 45q-10 -13 -49 -70h-658zM812 -226
q-19 -33 -55 -94q-43 22 -132 69q-14 -22 -43 -65l-139 80l53 96q29 -12 129 -74q17 17 50 70zM881 -398q-19 -33 -55 -94q-43 22 -132 69q-14 -22 -43 -65l-139 80l53 96q29 -12 129 -74q17 17 50 70z" />
    <glyph glyph-name="uniFB5C" unicode="&#x680;" horiz-adv-x="460" arabic-form="initial" 
d="M298 119q2 0 2 12q0 37 -39 118l-39 81q0 2 60 121q28 -29 60 -118t32 -138q0 -43 -37 -195h-377v119h338zM370 -226q-19 -33 -55 -94q-43 22 -132 69q-14 -22 -43 -65l-139 80l53 96q29 -12 129 -74q17 17 50 70zM439 -398q-19 -33 -55 -94q-43 22 -132 69
q-14 -22 -43 -65l-139 80l53 96q29 -12 129 -74q17 17 50 70z" />
    <glyph glyph-name="uniFB5D" unicode="&#x680;" horiz-adv-x="423" arabic-form="medial" 
d="M441 0h-103q-20 0 -36 25q-7 14 -25 45q-10 -13 -49 -70h-268v119h327v137q0 18 6 27q31 47 109 123v-56l-33 -215q10 -16 37 -16h35v-119zM370 -226q-19 -33 -55 -94q-43 22 -132 69q-14 -22 -43 -65l-139 80l53 96q29 -12 129 -74q17 17 50 70zM439 -398
q-19 -33 -55 -94q-43 22 -132 69q-14 -22 -43 -65l-139 80l53 96q29 -12 129 -74q17 17 50 70z" />
    <glyph glyph-name="uniFB5E" unicode="&#x67a;" horiz-adv-x="1173" arabic-form="isolated" 
d="M1087 195q0 -52 -37 -195h-750q0 1 -32 6q-82 17 -132 70t-50 117q0 49 45 137t78 96v-18l-24 -54q-24 -53 -24 -75q0 -70 47.5 -115t114.5 -45h688q2 2 2 14q0 64 -86 205l68 121q29 -31 60.5 -119t31.5 -145zM623 582q-58 53 -118 102q38 51 79 92q54 -40 115 -104
q-42 -58 -76 -90zM649 398q-63 57 -118 101q35 48 79 93q55 -42 115 -105q-46 -62 -76 -89z" />
    <glyph glyph-name="uniFB5F" unicode="&#x67a;" horiz-adv-x="1153" arabic-form="final" 
d="M300 0q0 1 -32 6q-82 17 -132 70t-50 117q0 49 45 137t78 96v-18l-24 -54q-24 -53 -24 -75q0 -70 47.5 -115t114.5 -45h694v137q0 18 6 27q31 47 109 123v-56l-33 -215q10 -16 37 -16h35v-119h-103q-20 0 -36 25q-7 14 -25 45q-10 -13 -49 -70h-658zM626 582
q-58 53 -118 102q38 51 79 92q54 -40 115 -104q-42 -58 -76 -90zM652 398q-63 57 -118 101q35 48 79 93q55 -42 115 -105q-46 -62 -76 -89z" />
    <glyph glyph-name="uniFB60" unicode="&#x67a;" horiz-adv-x="460" arabic-form="initial" 
d="M374 195q0 -43 -37 -195h-377v119h338q2 0 2 12q0 37 -39 118l-39 81q0 2 60 121q28 -29 60 -118t32 -138zM233 718q-58 53 -118 102q38 51 79 92q54 -40 115 -104q-42 -58 -76 -90zM259 534q-63 57 -118 101q35 48 79 93q55 -42 115 -105q-46 -62 -76 -89z" />
    <glyph glyph-name="uniFB61" unicode="&#x67a;" horiz-adv-x="423" arabic-form="medial" 
d="M441 0h-103q-20 0 -36 25q-7 14 -25 45q-10 -13 -49 -70h-268v119h327v137q0 18 6 27q31 47 109 123v-56l-33 -215q10 -16 37 -16h35v-119zM236 717q-58 53 -118 102q38 51 79 92q54 -40 115 -104q-42 -58 -76 -90zM262 533q-63 57 -118 101q35 48 79 93q55 -42 115 -105
q-46 -62 -76 -89z" />
    <glyph glyph-name="uniFB62" unicode="&#x67f;" horiz-adv-x="1173" arabic-form="isolated" 
d="M702 680q-19 -33 -55 -94q-43 22 -132 69q-14 -22 -43 -65l-139 80l53 96q29 -12 129 -74q17 17 50 70zM1087 195q0 -52 -37 -195h-750q0 1 -32 6q-82 17 -132 70t-50 117q0 49 45 137t78 96v-18l-24 -54q-24 -53 -24 -75q0 -70 47.5 -115t114.5 -45h688q2 2 2 14
q0 64 -86 205l68 121q29 -31 60.5 -119t31.5 -145zM771 508q-19 -33 -55 -94q-43 22 -132 69q-14 -22 -43 -65l-139 80l53 96q29 -12 129 -74q17 17 50 70z" />
    <glyph glyph-name="uniFB63" unicode="&#x67f;" horiz-adv-x="1153" arabic-form="final" 
d="M300 0q0 1 -32 6q-82 17 -132 70t-50 117q0 49 45 137t78 96v-18l-24 -54q-24 -53 -24 -75q0 -70 47.5 -115t114.5 -45h694v137q0 18 6 27q31 47 109 123v-56l-33 -215q10 -16 37 -16h35v-119h-103q-20 0 -36 25q-7 14 -25 45q-10 -13 -49 -70h-658zM752 680
q-19 -33 -55 -94q-43 22 -132 69q-14 -22 -43 -65l-139 80l53 96q29 -12 129 -74q17 17 50 70zM821 508q-19 -33 -55 -94q-43 22 -132 69q-14 -22 -43 -65l-139 80l53 96q29 -12 129 -74q17 17 50 70z" />
    <glyph glyph-name="uniFB64" unicode="&#x67f;" horiz-adv-x="464" arabic-form="initial" 
d="M378 190q0 -24 -33 -190h-385v119h342q2 0 2 12q0 33 -39 117q-37 80 -39 80q0 14 64 121q35 -50 51 -93q4 -10 12 -32q25 -64 25 -134zM354 822q-19 -33 -55 -94q-43 22 -132 69q-14 -22 -43 -65l-139 80l53 96q29 -12 129 -74q17 17 50 70zM423 650q-19 -33 -55 -94
q-43 22 -132 69q-14 -22 -43 -65l-139 80l53 96q29 -12 129 -74q17 17 50 70z" />
    <glyph glyph-name="uniFB65" unicode="&#x67f;" horiz-adv-x="423" arabic-form="medial" 
d="M441 0h-103q-20 0 -36 25q-7 14 -25 45q-10 -13 -49 -70h-268v119h327v137q0 18 6 27q31 47 109 123v-56l-33 -215q10 -16 37 -16h35v-119zM356 804q-19 -33 -55 -94q-43 22 -132 69q-14 -22 -43 -65l-139 80l53 96q29 -12 129 -74q17 17 50 70zM425 632q-19 -33 -55 -94
q-43 22 -132 69q-14 -22 -43 -65l-139 80l53 96q29 -12 129 -74q17 17 50 70z" />
    <glyph glyph-name="uniFB66" unicode="&#x679;" horiz-adv-x="1173" arabic-form="isolated" 
d="M1087 195q0 -52 -37 -195h-750q0 1 -32 6q-82 17 -132 70t-50 117q0 49 45 137t78 96v-18l-24 -54q-24 -53 -24 -75q0 -70 47.5 -115t114.5 -45h688q2 2 2 14q0 64 -86 205l68 121q29 -31 60.5 -119t31.5 -145zM773 491q0 -7 -7 -25q-8 -21 -21 -40q-4 -5 -7 -5h-270
q-16 0 -26 4t-19.5 12t-14.5 21q-3 8 -3 19q0 15 7 38q9 20 13 23l8 3q-9 -35 -9 -44v-1q0 -9 1 -11q3 -18 24.5 -21t44.5 -3q17 0 29 2q15 2 22 13q2 3 2 5t-1.5 15.5t-2.5 20.5q-1 9 -3 29q-2 36 -9 110q0 3 -2 4q-6 4 -10 11v5q0 6 5 16q8 15 25 40l5 -2q1 -1 1 -4v-4
q0 -1 -1.5 -4.5t-1.5 -5.5q0 -3 7.5 -8t32.5 -17q-21 -49 -25 -49q-2 0 -2.5 0.5t-1.5 0.5l5 -83q0 -10 -1 -28q-2 -30 -7 -49v-2q8 4 25 18q22 17 30 22q21 14 61 37q12 5 22 5q11 0 22 -5q25 -12 43 -35q4 -6 6 -10q4 -14 4 -18zM741 469q0 14 -21 30q-17 13 -30 18
q-6 2 -13 2q-9 0 -22 -5t-40 -27t-39 -25h133q2 -1 6 -1q8 0 19 3q3 2 7 5z" />
    <glyph glyph-name="uniFB67" unicode="&#x679;" horiz-adv-x="1153" arabic-form="final" 
d="M300 0q0 1 -32 6q-82 17 -132 70t-50 117q0 49 45 137t78 96v-18l-24 -54q-24 -53 -24 -75q0 -70 47.5 -115t114.5 -45h694v137q0 18 6 27q31 47 109 123v-56l-33 -215q10 -16 37 -16h35v-119h-103q-20 0 -36 25q-7 14 -25 45q-10 -13 -49 -70h-658zM823 491q0 -7 -7 -25
q-8 -21 -21 -40q-4 -5 -7 -5h-270q-16 0 -26 4t-19.5 12t-14.5 21q-3 8 -3 19q0 15 7 38q9 20 13 23l8 3q-9 -35 -9 -44v-1q0 -9 1 -11q3 -18 24.5 -21t44.5 -3q17 0 29 2q15 2 22 13q2 3 2 5t-1.5 15.5t-2.5 20.5q-1 9 -3 29q-2 36 -9 110q0 3 -2 4q-6 4 -10 11v5q0 6 5 16
q8 15 25 40l5 -2q1 -1 1 -4v-4q0 -1 -1.5 -4.5t-1.5 -5.5q0 -3 7.5 -8t32.5 -17q-21 -49 -25 -49q-2 0 -2.5 0.5t-1.5 0.5l5 -83q0 -10 -1 -28q-2 -30 -7 -49v-2q8 4 25 18q22 17 30 22q21 14 61 37q12 5 22 5q11 0 22 -5q25 -12 43 -35q4 -6 6 -10q4 -14 4 -18zM791 469
q0 14 -21 30q-17 13 -30 18q-6 2 -13 2q-9 0 -22 -5t-40 -27t-39 -25h133q2 -1 6 -1q8 0 19 3q3 2 7 5z" />
    <glyph glyph-name="uniFB68" unicode="&#x679;" horiz-adv-x="464" arabic-form="initial" 
d="M378 190q0 -24 -33 -190h-385v119h342q2 0 2 12q0 33 -39 117q-37 80 -39 80q0 14 64 121q35 -50 51 -93q4 -10 12 -32q25 -64 25 -134zM370 626q0 -7 -7 -25q-8 -21 -21 -40q-4 -5 -7 -5h-270q-16 0 -26 4t-19.5 12t-14.5 21q-3 8 -3 19q0 15 7 38q9 20 13 23l8 3
q-9 -35 -9 -44v-1q0 -9 1 -11q3 -18 24.5 -21t44.5 -3q17 0 29 2q15 2 22 13q2 3 2 5t-1.5 15.5t-2.5 20.5q-1 9 -3 29q-2 36 -9 110q0 3 -2 4q-6 4 -10 11v5q0 6 5 16q8 15 25 40l5 -2q1 -1 1 -4v-4q0 -1 -1.5 -4.5t-1.5 -5.5q0 -3 7.5 -8t32.5 -17q-21 -49 -25 -49
q-2 0 -2.5 0.5t-1.5 0.5l5 -83q0 -10 -1 -28q-2 -30 -7 -49v-2q8 4 25 18q22 17 30 22q21 14 61 37q12 5 22 5q11 0 22 -5q25 -12 43 -35q4 -6 6 -10q4 -14 4 -18zM338 604q0 14 -21 30q-17 13 -30 18q-6 2 -13 2q-9 0 -22 -5t-40 -27t-39 -25h133q2 -1 6 -1q8 0 19 3
q3 2 7 5z" />
    <glyph glyph-name="uniFB69" unicode="&#x679;" horiz-adv-x="423" arabic-form="medial" 
d="M441 0h-103q-20 0 -36 25q-7 14 -25 45q-10 -13 -49 -70h-268v119h327v137q0 18 6 27q31 47 109 123v-56l-33 -215q10 -16 37 -16h35v-119zM384 610q0 -7 -7 -25q-8 -21 -21 -40q-4 -5 -7 -5h-270q-16 0 -26 4t-19.5 12t-14.5 21q-3 8 -3 19q0 15 7 38q9 20 13 23l8 3
q-9 -35 -9 -44v-1q0 -9 1 -11q3 -18 24.5 -21t44.5 -3q17 0 29 2q15 2 22 13q2 3 2 5t-1.5 15.5t-2.5 20.5q-1 9 -3 29q-2 36 -9 110q0 3 -2 4q-6 4 -10 11v5q0 6 5 16q8 15 25 40l5 -2q1 -1 1 -4v-4q0 -1 -1.5 -4.5t-1.5 -5.5q0 -3 7.5 -8t32.5 -17q-21 -49 -25 -49
q-2 0 -2.5 0.5t-1.5 0.5l5 -83q0 -10 -1 -28q-2 -30 -7 -49v-2q8 4 25 18q22 17 30 22q21 14 61 37q12 5 22 5q11 0 22 -5q25 -12 43 -35q4 -6 6 -10q4 -14 4 -18zM352 588q0 14 -21 30q-17 13 -30 18q-6 2 -13 2q-9 0 -22 -5t-40 -27t-39 -25h133q2 -1 6 -1q8 0 19 3
q3 2 7 5z" />
    <glyph glyph-name="uniFB6A" unicode="&#x6a4;" horiz-adv-x="1355" arabic-form="isolated" 
d="M1133 358q-59 117 -110 117q-15 0 -59 -33.5t-44 -54.5q0 -18 47 -37q39 -14 56 -14q47 0 110 22zM314 0q0 1 -32 6q-82 17 -132 70t-50 117q0 49 45 137t78 96v-18l-24 -54q-24 -53 -24 -75q0 -70 47.5 -115t114.5 -45h860q2 8 2 24q0 35 -16.5 100.5t-30.5 75.5
q-78 -110 -183 -110q-40 0 -86 22q-57 29 -57 72q0 64 97.5 173.5t170.5 109.5q76 0 131 -166q43 -129 43 -203q0 -33 -16 -113q-22 -104 -51 -104h-887zM1040 998l-55 -104l-137 78q8 14 24.5 46.5t24.5 47.5zM1176 789q-17 -30 -52 -98q-43 25 -131 74q-4 -4 -41 -66
q-24 13 -141 76q2 6 53 104q54 -26 138 -81q12 6 24 30q17 35 21 39z" />
    <glyph glyph-name="uniFB6B" unicode="&#x6a4;" horiz-adv-x="1248" arabic-form="final" 
d="M1143 184q0 37 -24.5 74t-70.5 37q-20 0 -26 -2q-25 -6 -55 -23q-50 -28 -50 -57q0 -16 22.5 -43t53.5 -37q27 -10 47 -10h4q25 0 58 14q41 21 41 47zM847 119q-12 18 -12 42q0 12 3 25q2 8 6 18t12 22q41 59 123 124q106 84 172 84q37 0 63 -78q19 -59 19 -86
q-6 -87 -70 -151h103v-119h-952q0 1 -32 6q-82 17 -132 70t-50 117q0 49 45 137t78 96v-18l-24 -54q-24 -53 -24 -75q0 -70 47.5 -115t114.5 -45h510zM1075 906l-55 -104l-137 78q8 14 24.5 46.5t24.5 47.5zM1211 697q-17 -30 -52 -98q-43 25 -131 74q-4 -4 -41 -66
q-24 13 -141 76q2 6 53 104q54 -26 138 -81q12 6 24 30q17 35 21 39z" />
    <glyph glyph-name="uniFB6C" unicode="&#x6a4;" horiz-adv-x="665" arabic-form="initial" 
d="M578 217q0 -33 -16 -113q-22 -104 -51 -104h-551v119h547q2 8 2 24q0 35 -16.5 100.5t-30.5 75.5q-78 -110 -183 -110q-40 0 -86 22q-57 29 -57 72q0 64 97.5 173.5t170.5 109.5q76 0 131 -166q43 -129 43 -203zM443 358q-59 117 -110 117q-15 0 -59 -33.5t-44 -54.5
q0 -18 47 -37q39 -14 56 -14q47 0 110 22zM258 986l-55 -104l-137 78q8 14 24.5 46.5t24.5 47.5zM394 777q-17 -30 -52 -98q-43 25 -131 74q-4 -4 -41 -66q-24 13 -141 76q2 6 53 104q54 -26 138 -81q12 6 24 30q17 35 21 39z" />
    <glyph glyph-name="uniFB6D" unicode="&#x6a4;" horiz-adv-x="606" arabic-form="medial" 
d="M337 350q106 84 172 84q37 0 63 -78q19 -59 19 -86q-6 -87 -70 -151h103v-119h-664v119h245q-12 18 -12 42q0 12 3 25q2 8 6 18t12 22q41 59 123 124zM501 184q0 37 -24.5 74t-70.5 37q-20 0 -26 -2q-25 -6 -55 -23q-50 -28 -50 -57q0 -16 22.5 -43t53.5 -37
q27 -10 47 -10h4q25 0 58 14q41 21 41 47zM411 900l-55 -104l-137 78q8 14 24.5 46.5t24.5 47.5zM547 691q-17 -30 -52 -98q-43 25 -131 74q-4 -4 -41 -66q-24 13 -141 76q2 6 53 104q54 -26 138 -81q12 6 24 30q17 35 21 39z" />
    <glyph glyph-name="uniFB6E" unicode="&#x6a6;" horiz-adv-x="1355" arabic-form="isolated" 
d="M1133 358q-59 117 -110 117q-15 0 -59 -33.5t-44 -54.5q0 -18 47 -37q39 -14 56 -14q47 0 110 22zM314 0q0 1 -32 6q-82 17 -132 70t-50 117q0 49 45 137t78 96v-18l-24 -54q-24 -53 -24 -75q0 -70 47.5 -115t114.5 -45h860q2 8 2 24q0 35 -16.5 100.5t-30.5 75.5
q-78 -110 -183 -110q-40 0 -86 22q-57 29 -57 72q0 64 97.5 173.5t170.5 109.5q76 0 131 -166q43 -129 43 -203q0 -33 -16 -113q-22 -104 -51 -104h-887zM1111 960q-19 -33 -56 -94q-43 22 -131 69q-14 -22 -43 -65l-139 80l53 96q29 -12 129 -74q17 17 49 70zM1180 788
q-19 -33 -56 -94q-43 22 -131 69q-14 -22 -43 -65l-139 80l53 96q29 -12 129 -74q17 17 49 70z" />
    <glyph glyph-name="uniFB6F" unicode="&#x6a6;" horiz-adv-x="1248" arabic-form="final" 
d="M1143 184q0 37 -24.5 74t-70.5 37q-20 0 -26 -2q-25 -6 -55 -23q-50 -28 -50 -57q0 -16 22.5 -43t53.5 -37q27 -10 47 -10h4q25 0 58 14q41 21 41 47zM847 119q-12 18 -12 42q0 12 3 25q2 8 6 18t12 22q41 59 123 124q106 84 172 84q37 0 63 -78q19 -59 19 -86
q-6 -87 -70 -151h103v-119h-952q0 1 -32 6q-82 17 -132 70t-50 117q0 49 45 137t78 96v-18l-24 -54q-24 -53 -24 -75q0 -70 47.5 -115t114.5 -45h510zM1148 862q-19 -33 -56 -94q-43 22 -131 69q-14 -22 -43 -65l-139 80l53 96q29 -12 129 -74q17 17 49 70zM1217 690
q-19 -33 -56 -94q-43 22 -131 69q-14 -22 -43 -65l-139 80l53 96q29 -12 129 -74q17 17 49 70z" />
    <glyph glyph-name="uniFB70" unicode="&#x6a6;" horiz-adv-x="665" arabic-form="initial" 
d="M578 217q0 -33 -16 -113q-22 -104 -51 -104h-551v119h547q2 8 2 24q0 35 -16.5 100.5t-30.5 75.5q-78 -110 -183 -110q-40 0 -86 22q-57 29 -57 72q0 64 97.5 173.5t170.5 109.5q76 0 131 -166q43 -129 43 -203zM443 358q-59 117 -110 117q-15 0 -59 -33.5t-44 -54.5
q0 -18 47 -37q39 -14 56 -14q47 0 110 22zM385 951q-19 -33 -56 -94q-43 22 -131 69q-14 -22 -43 -65l-139 80l53 96q29 -12 129 -74q17 17 49 70zM454 779q-19 -33 -56 -94q-43 22 -131 69q-14 -22 -43 -65l-139 80l53 96q29 -12 129 -74q17 17 49 70z" />
    <glyph glyph-name="uniFB71" unicode="&#x6a6;" horiz-adv-x="606" arabic-form="medial" 
d="M337 350q106 84 172 84q37 0 63 -78q19 -59 19 -86q-6 -87 -70 -151h103v-119h-664v119h245q-12 18 -12 42q0 12 3 25q2 8 6 18t12 22q41 59 123 124zM501 184q0 37 -24.5 74t-70.5 37q-20 0 -26 -2q-25 -6 -55 -23q-50 -28 -50 -57q0 -16 22.5 -43t53.5 -37
q27 -10 47 -10h4q25 0 58 14q41 21 41 47zM481 862q-19 -33 -56 -94q-43 22 -131 69q-14 -22 -43 -65l-139 80l53 96q29 -12 129 -74q17 17 49 70zM550 690q-19 -33 -56 -94q-43 22 -131 69q-14 -22 -43 -65l-139 80l53 96q29 -12 129 -74q17 17 49 70z" />
    <glyph glyph-name="uniFB72" unicode="&#x684;" horiz-adv-x="866" arabic-form="isolated" 
d="M858 -485q-47 -47 -125 -72q-26 -8 -82.5 -18.5t-126.5 -10.5q-180 0 -297 70q-137 82 -137 242q0 321 295 522q-29 12 -88 22q-39 4 -82 4q-47 0 -72.5 -5t-46.5 -13l-18 -10q4 45 34.5 92t51.5 59q20 15 49 15h5q32 -2 313 -39h247q-39 -78 -57 -125q-150 -15 -248 -53
q-137 -58 -239 -187q-46 -55 -66 -112q-12 -39 -12 -62q0 -41 12 -82q39 -112 156 -166q59 -28 198 -55q58 -10 129 -16h207zM523 -167q-58 53 -118 102q38 51 79 92q54 -40 115 -104q-42 -58 -76 -90zM549 -351q-63 57 -118 101q35 48 79 93q55 -42 115 -105
q-46 -62 -76 -89z" />
    <glyph glyph-name="uniFB73" unicode="&#x684;" horiz-adv-x="839" arabic-form="final" 
d="M535 0q-41 0 -57 24.5t-31 122.5l-7 42q-128 -59 -225 -181q-46 -55 -66 -112q-12 -39 -12 -62q0 -41 12 -82q39 -112 156 -166q59 -28 198 -55q58 -10 129 -16h207q-47 -47 -125 -72q-26 -8 -82.5 -18.5t-126.5 -10.5q-180 0 -297 70q-137 82 -137 242q0 321 295 522
q-29 12 -88 22q-39 4 -82 4q-47 0 -72.5 -5t-46.5 -13l-18 -10q4 45 34.5 92t51.5 59q20 15 49 15h5q32 -2 313 -39h247q-39 -78 -57 -125q-120 -12 -207 -39q10 -47 23 -68.5t48 -21.5h291v-119h-322zM408 -187q-58 53 -118 102q38 51 79 92q54 -40 115 -104
q-42 -58 -76 -90zM434 -371q-63 57 -118 101q35 48 79 93q55 -42 115 -105q-46 -62 -76 -89z" />
    <glyph glyph-name="uniFB74" unicode="&#x684;" horiz-adv-x="926" arabic-form="initial" 
d="M290 119q20 0 61 10t133 53q-30 21 -105 67t-130 56q-8 2 -23 2q-16 0 -22 -2q-23 -4 -53.5 -26.5t-32.5 -22.5t-3 1q-3 2 -3 8v1q0 25 18 53q43 70 115 93q16 6 49 6q24 0 33 -2q53 -8 104 -41q154 -99 158 -101q92 -55 170 -75q32 -11 110 -11q-8 -20 -24.5 -63
t-24.5 -64q-39 11 -72 15q-90 14 -167 14q-64 0 -169 -46q-99 -44 -192 -44h-260v119h330zM463 -343q-58 53 -118 102q38 51 79 92q54 -40 115 -104q-42 -58 -76 -90zM489 -527q-63 57 -118 101q35 48 79 93q55 -42 115 -105q-46 -62 -76 -89z" />
    <glyph glyph-name="uniFB75" unicode="&#x684;" horiz-adv-x="909" arabic-form="medial" 
d="M615 0q-41 0 -57 24.5t-31 122.5q-57 -52 -128 -99.5t-187 -47.5h-252v119h251q99 0 187 39q82 37 131 82q-211 59 -256 59q-34 0 -57.5 -10t-46.5 -35t-25 -25t-3 1q-3 1 -4 7v1q-1 6 -1 12q0 14 5 29q7 33 54 86q29 33 53 48q20 13 40 16q10 1 20 1q8 0 15 -1
q16 -2 63.5 -12t153.5 -38q163 -47 254 -47q49 0 71 4q-14 -43 -49 -127h-104q-66 0 -129 -31q2 -16 15 -37.5t48 -21.5h281v-119h-312zM463 -343q-58 53 -118 102q38 51 79 92q54 -40 115 -104q-42 -58 -76 -90zM489 -527q-63 57 -118 101q35 48 79 93q55 -42 115 -105
q-46 -62 -76 -89z" />
    <glyph glyph-name="uniFB76" unicode="&#x683;" horiz-adv-x="866" arabic-form="isolated" 
d="M858 -485q-47 -47 -125 -72q-26 -8 -82.5 -18.5t-126.5 -10.5q-180 0 -297 70q-137 82 -137 242q0 321 295 522q-29 12 -88 22q-39 4 -82 4q-47 0 -72.5 -5t-46.5 -13l-18 -10q4 45 34.5 92t51.5 59q20 15 49 15h5q32 -2 313 -39h247q-39 -78 -57 -125q-150 -15 -248 -53
q-137 -58 -239 -187q-46 -55 -66 -112q-12 -39 -12 -62q0 -41 12 -82q39 -112 156 -166q59 -28 198 -55q58 -10 129 -16h207zM696 -113q-18 -31 -55 -94q-72 37 -131 73l-41 -69q-55 26 -141 80q16 32 53 96q29 -12 129 -74q18 21 45 70z" />
    <glyph glyph-name="uniFB77" unicode="&#x683;" horiz-adv-x="839" arabic-form="final" 
d="M535 0q-41 0 -57 24.5t-31 122.5l-7 42q-128 -59 -225 -181q-46 -55 -66 -112q-12 -39 -12 -62q0 -41 12 -82q39 -112 156 -166q59 -28 198 -55q58 -10 129 -16h207q-47 -47 -125 -72q-26 -8 -82.5 -18.5t-126.5 -10.5q-180 0 -297 70q-137 82 -137 242q0 321 295 522
q-29 12 -88 22q-39 4 -82 4q-47 0 -72.5 -5t-46.5 -13l-18 -10q4 45 34.5 92t51.5 59q20 15 49 15h5q32 -2 313 -39h247q-39 -78 -57 -125q-120 -12 -207 -39q10 -47 23 -68.5t48 -21.5h291v-119h-322zM669 -196q-18 -31 -55 -94q-72 37 -131 73l-41 -69q-55 26 -141 80
q16 32 53 96q29 -12 129 -74q18 21 45 70z" />
    <glyph glyph-name="uniFB78" unicode="&#x683;" horiz-adv-x="926" arabic-form="initial" 
d="M290 119q20 0 61 10t133 53q-30 21 -105 67t-130 56q-8 2 -23 2q-16 0 -22 -2q-23 -4 -53.5 -26.5t-32.5 -22.5t-3 1q-3 2 -3 8v1q0 25 18 53q43 70 115 93q16 6 49 6q24 0 33 -2q53 -8 104 -41q154 -99 158 -101q92 -55 170 -75q32 -11 110 -11q-8 -20 -24.5 -63
t-24.5 -64q-39 11 -72 15q-90 14 -167 14q-64 0 -169 -46q-99 -44 -192 -44h-260v119h330zM624 -229q-18 -31 -55 -94q-72 37 -131 73l-41 -69q-55 26 -141 80q16 32 53 96q29 -12 129 -74q18 21 45 70z" />
    <glyph glyph-name="uniFB79" unicode="&#x683;" horiz-adv-x="909" arabic-form="medial" 
d="M615 0q-41 0 -57 24.5t-31 122.5q-57 -52 -128 -99.5t-187 -47.5h-252v119h251q99 0 187 39q82 37 131 82q-211 59 -256 59q-34 0 -57.5 -10t-46.5 -35t-25 -25t-3 1q-3 1 -4 7v1q-1 6 -1 12q0 14 5 29q7 33 54 86q29 33 53 48q20 13 40 16q10 1 20 1q8 0 15 -1
q16 -2 63.5 -12t153.5 -38q163 -47 254 -47q49 0 71 4q-14 -43 -49 -127h-104q-66 0 -129 -31q2 -16 15 -37.5t48 -21.5h281v-119h-312zM645 -221q-18 -31 -55 -94q-72 37 -131 73l-41 -69q-55 26 -141 80q16 32 53 96q29 -12 129 -74q18 21 45 70z" />
    <glyph glyph-name="uniFB7A" unicode="&#x686;" horiz-adv-x="866" arabic-form="isolated" 
d="M858 -485q-47 -47 -125 -72q-26 -8 -82.5 -18.5t-126.5 -10.5q-180 0 -297 70q-137 82 -137 242q0 321 295 522q-29 12 -88 22q-39 4 -82 4q-47 0 -72.5 -5t-46.5 -13l-18 -10q4 45 34.5 92t51.5 59q20 15 49 15h5q32 -2 313 -39h247q-39 -78 -57 -125q-150 -15 -248 -53
q-137 -58 -239 -187q-46 -55 -66 -112q-12 -39 -12 -62q0 -41 12 -82q39 -112 156 -166q59 -28 198 -55q58 -10 129 -16h207zM670 -255q-12 -29 -55 -99l-137 80l57 98q70 -34 135 -79zM696 -73q-18 -31 -55 -94q-72 37 -131 73l-41 -69q-55 26 -141 80q16 32 53 96
q29 -12 129 -74q18 21 45 70z" />
    <glyph glyph-name="uniFB7B" unicode="&#x686;" horiz-adv-x="839" arabic-form="final" 
d="M535 0q-41 0 -57 24.5t-31 122.5l-7 42q-128 -59 -225 -181q-46 -55 -66 -112q-12 -39 -12 -62q0 -41 12 -82q39 -112 156 -166q59 -28 198 -55q58 -10 129 -16h207q-47 -47 -125 -72q-26 -8 -82.5 -18.5t-126.5 -10.5q-180 0 -297 70q-137 82 -137 242q0 321 295 522
q-29 12 -88 22q-39 4 -82 4q-47 0 -72.5 -5t-46.5 -13l-18 -10q4 45 34.5 92t51.5 59q20 15 49 15h5q32 -2 313 -39h247q-39 -78 -57 -125q-120 -12 -207 -39q10 -47 23 -68.5t48 -21.5h291v-119h-322zM583 -318q-12 -29 -55 -99l-137 80l57 98q70 -34 135 -79zM609 -136
q-18 -31 -55 -94q-72 37 -131 73l-41 -69q-55 26 -141 80q16 32 53 96q29 -12 129 -74q18 21 45 70z" />
    <glyph glyph-name="uniFB7C" unicode="&#x686;" horiz-adv-x="926" arabic-form="initial" 
d="M290 119q20 0 61 10t133 53q-30 21 -105 67t-130 56q-8 2 -23 2q-16 0 -22 -2q-23 -4 -53.5 -26.5t-32.5 -22.5t-3 1q-3 2 -3 8v1q0 25 18 53q43 70 115 93q16 6 49 6q24 0 33 -2q53 -8 104 -41q154 -99 158 -101q92 -55 170 -75q32 -11 110 -11q-8 -20 -24.5 -63
t-24.5 -64q-39 11 -72 15q-90 14 -167 14q-64 0 -169 -46q-99 -44 -192 -44h-260v119h330zM598 -411q-12 -29 -55 -99l-137 80l57 98q70 -34 135 -79zM624 -229q-18 -31 -55 -94q-72 37 -131 73l-41 -69q-55 26 -141 80q16 32 53 96q29 -12 129 -74q18 21 45 70z" />
    <glyph glyph-name="uniFB7D" unicode="&#x686;" horiz-adv-x="909" arabic-form="medial" 
d="M615 0q-41 0 -57 24.5t-31 122.5q-57 -52 -128 -99.5t-187 -47.5h-252v119h251q99 0 187 39q82 37 131 82q-211 59 -256 59q-34 0 -57.5 -10t-46.5 -35t-25 -25t-3 1q-3 1 -4 7v1q-1 6 -1 12q0 14 5 29q7 33 54 86q29 33 53 48q20 13 40 16q10 1 20 1q8 0 15 -1
q16 -2 63.5 -12t153.5 -38q163 -47 254 -47q49 0 71 4q-14 -43 -49 -127h-104q-66 0 -129 -31q2 -16 15 -37.5t48 -21.5h281v-119h-312zM619 -403q-12 -29 -55 -99l-137 80l57 98q70 -34 135 -79zM645 -221q-18 -31 -55 -94q-72 37 -131 73l-41 -69q-55 26 -141 80
q16 32 53 96q29 -12 129 -74q18 21 45 70z" />
    <glyph glyph-name="uniFB7E" unicode="&#x687;" horiz-adv-x="866" arabic-form="isolated" 
d="M858 -485q-47 -47 -125 -72q-26 -8 -82.5 -18.5t-126.5 -10.5q-180 0 -297 70q-137 82 -137 242q0 321 295 522q-29 12 -88 22q-39 4 -82 4q-47 0 -72.5 -5t-46.5 -13l-18 -10q4 45 34.5 92t51.5 59q20 15 49 15h5q32 -2 313 -39h247q-39 -78 -57 -125q-150 -15 -248 -53
q-137 -58 -239 -187q-46 -55 -66 -112q-12 -39 -12 -62q0 -41 12 -82q39 -112 156 -166q59 -28 198 -55q58 -10 129 -16h207zM685 -67q-19 -33 -55 -94q-43 22 -132 69q-14 -22 -43 -65l-139 80l53 96q29 -12 129 -74q17 17 50 70zM754 -239q-19 -33 -55 -94q-43 22 -132 69
q-14 -22 -43 -65l-139 80l53 96q29 -12 129 -74q17 17 50 70z" />
    <glyph glyph-name="uniFB7F" unicode="&#x687;" horiz-adv-x="839" arabic-form="final" 
d="M535 0q-41 0 -57 24.5t-31 122.5l-7 42q-128 -59 -225 -181q-46 -55 -66 -112q-12 -39 -12 -62q0 -41 12 -82q39 -112 156 -166q59 -28 198 -55q58 -10 129 -16h207q-47 -47 -125 -72q-26 -8 -82.5 -18.5t-126.5 -10.5q-180 0 -297 70q-137 82 -137 242q0 321 295 522
q-29 12 -88 22q-39 4 -82 4q-47 0 -72.5 -5t-46.5 -13l-18 -10q4 45 34.5 92t51.5 59q20 15 49 15h5q32 -2 313 -39h247q-39 -78 -57 -125q-120 -12 -207 -39q10 -47 23 -68.5t48 -21.5h291v-119h-322zM607 -122q-19 -33 -55 -94q-43 22 -132 69q-14 -22 -43 -65l-139 80
l53 96q29 -12 129 -74q17 17 50 70zM676 -294q-19 -33 -55 -94q-43 22 -132 69q-14 -22 -43 -65l-139 80l53 96q29 -12 129 -74q17 17 50 70z" />
    <glyph glyph-name="uniFB80" unicode="&#x687;" horiz-adv-x="926" arabic-form="initial" 
d="M290 119q20 0 61 10t133 53q-30 21 -105 67t-130 56q-8 2 -23 2q-16 0 -22 -2q-23 -4 -53.5 -26.5t-32.5 -22.5t-3 1q-3 2 -3 8v1q0 25 18 53q43 70 115 93q16 6 49 6q24 0 33 -2q53 -8 104 -41q154 -99 158 -101q92 -55 170 -75q32 -11 110 -11q-8 -20 -24.5 -63
t-24.5 -64q-39 11 -72 15q-90 14 -167 14q-64 0 -169 -46q-99 -44 -192 -44h-260v119h330zM621 -229q-19 -33 -55 -94q-43 22 -132 69q-14 -22 -43 -65l-139 80l53 96q29 -12 129 -74q17 17 50 70zM690 -401q-19 -33 -55 -94q-43 22 -132 69q-14 -22 -43 -65l-139 80l53 96
q29 -12 129 -74q17 17 50 70z" />
    <glyph glyph-name="uniFB81" unicode="&#x687;" horiz-adv-x="909" arabic-form="medial" 
d="M615 0q-41 0 -57 24.5t-31 122.5q-57 -52 -128 -99.5t-187 -47.5h-252v119h251q99 0 187 39q82 37 131 82q-211 59 -256 59q-34 0 -57.5 -10t-46.5 -35t-25 -25t-3 1q-3 1 -4 7v1q-1 6 -1 12q0 14 5 29q7 33 54 86q29 33 53 48q20 13 40 16q10 1 20 1q8 0 15 -1
q16 -2 63.5 -12t153.5 -38q163 -47 254 -47q49 0 71 4q-14 -43 -49 -127h-104q-66 0 -129 -31q2 -16 15 -37.5t48 -21.5h281v-119h-312zM644 -220q-19 -33 -55 -94q-43 22 -132 69q-14 -22 -43 -65l-139 80l53 96q29 -12 129 -74q17 17 50 70zM713 -392q-19 -33 -55 -94
q-43 22 -132 69q-14 -22 -43 -65l-139 80l53 96q29 -12 129 -74q17 17 50 70z" />
    <glyph glyph-name="uniFB82" unicode="&#x68d;" horiz-adv-x="648" arabic-form="isolated" 
d="M556 289q10 -41 10 -90q0 -33 -2 -43q-8 -54 -25 -115q-75 -43 -282 -43h-78l-84 2l38 138q45 -7 119 -8q133 0 244 22q9 10 9 22q0 21 -11 47q-20 62 -90 139q-22 21 -72 63l21 155q156 -95 203 -289zM515 -223q-12 -31 -55 -99q-27 15 -127 76q-17 -26 -48 -71l-139 79
l60 103l127 -78q14 23 45 70z" />
    <glyph glyph-name="uniFB83" unicode="&#x68d;" horiz-adv-x="705" arabic-form="final" 
d="M685 0q-37 1 -58 14q-23 13 -39 47l-27 54q-26 -62 -68 -109q-12 -10 -100 -22q-102 -13 -174 -13q-64 0 -80.5 5.5t-27 17t-15.5 41.5q-1 14 -1 27q0 82 46 151q12 -4 14 -59q2 -21 12 -36.5t39 -19.5t87 -4q86 0 190 25q41 10 51 78l-65 252q10 20 33.5 64t33.5 65
q27 -60 52 -240q22 -156 65 -208q7 -10 22 -11h48v-119h-38zM515 -223q-12 -31 -55 -99q-27 15 -127 76q-17 -26 -48 -71l-139 79l60 103l127 -78q14 23 45 70z" />
    <glyph glyph-name="uniFB84" unicode="&#x68c;" horiz-adv-x="648" arabic-form="isolated" 
d="M556 289q10 -41 10 -90q0 -33 -2 -43q-8 -54 -25 -115q-75 -43 -282 -43h-78l-84 2l38 138q45 -7 119 -8q133 0 244 22q9 10 9 22q0 21 -11 47q-20 62 -90 139q-22 21 -72 63l21 155q156 -95 203 -289zM524 795q-18 -31 -55 -95q-72 37 -131 74l-41 -70q-55 27 -141 80
q16 33 53 97q29 -13 129 -74q18 20 45 69z" />
    <glyph glyph-name="uniFB85" unicode="&#x68c;" horiz-adv-x="705" arabic-form="final" 
d="M685 0q-37 1 -58 14q-23 13 -39 47l-27 54q-26 -62 -68 -109q-12 -10 -100 -22q-102 -13 -174 -13q-64 0 -80.5 5.5t-27 17t-15.5 41.5q-1 14 -1 27q0 82 46 151q12 -4 14 -59q2 -21 12 -36.5t39 -19.5t87 -4q86 0 190 25q41 10 51 78l-65 252q10 20 33.5 64t33.5 65
q27 -60 52 -240q22 -156 65 -208q7 -10 22 -11h48v-119h-38zM654 795q-18 -31 -55 -95q-72 37 -131 74l-41 -70q-55 27 -141 80q16 33 53 97q29 -13 129 -74q18 20 45 69z" />
    <glyph glyph-name="uniFB86" unicode="&#x68e;" horiz-adv-x="648" arabic-form="isolated" 
d="M556 289q10 -41 10 -90q0 -33 -2 -43q-8 -54 -25 -115q-75 -43 -282 -43h-78l-84 2l38 138q45 -7 119 -8q133 0 244 22q9 10 9 22q0 21 -11 47q-20 62 -90 139q-22 21 -72 63l21 155q156 -95 203 -289zM354 987q-12 -29 -55 -98l-137 80l57 98q70 -35 135 -80zM524 795
q-18 -31 -55 -95q-72 37 -131 74l-41 -70q-55 27 -141 80q16 33 53 97q29 -13 129 -74q18 20 45 69z" />
    <glyph glyph-name="uniFB87" unicode="&#x68e;" horiz-adv-x="705" arabic-form="final" 
d="M685 0q-37 1 -58 14q-23 13 -39 47l-27 54q-26 -62 -68 -109q-12 -10 -100 -22q-102 -13 -174 -13q-64 0 -80.5 5.5t-27 17t-15.5 41.5q-1 14 -1 27q0 82 46 151q12 -4 14 -59q2 -21 12 -36.5t39 -19.5t87 -4q86 0 190 25q41 10 51 78l-65 252q10 20 33.5 64t33.5 65
q27 -60 52 -240q22 -156 65 -208q7 -10 22 -11h48v-119h-38zM484 987q-12 -29 -55 -98l-137 80l57 98q70 -35 135 -80zM654 795q-18 -31 -55 -95q-72 37 -131 74l-41 -70q-55 27 -141 80q16 33 53 97q29 -13 129 -74q18 20 45 69z" />
    <glyph glyph-name="uniFB88" unicode="&#x688;" horiz-adv-x="648" arabic-form="isolated" 
d="M556 289q10 -41 10 -90q0 -33 -2 -43q-8 -54 -25 -115q-75 -43 -282 -43h-78l-84 2l38 138q45 -7 119 -8q133 0 244 22q9 10 9 22q0 21 -11 47q-20 62 -90 139q-22 21 -72 63l21 155q156 -95 203 -289zM508 751q0 -7 -7 -25q-8 -21 -21 -40q-4 -5 -7 -5h-270q-16 0 -26 4
t-19.5 12t-14.5 21q-3 8 -3 19q0 15 7 38q9 20 13 23l8 3q-9 -35 -9 -44v-1q0 -9 1 -11q3 -18 24.5 -21t44.5 -3q17 0 29 2q15 2 22 13q2 3 2 5t-1.5 15.5t-2.5 20.5q-1 9 -3 29q-2 36 -9 110q0 3 -2 4q-6 4 -10 11v5q0 6 5 16q8 15 25 40l5 -2q1 -1 1 -4v-4q0 -1 -1.5 -4.5
t-1.5 -5.5q0 -3 7.5 -8t32.5 -17q-21 -49 -25 -49q-2 0 -2.5 0.5t-1.5 0.5l5 -83q0 -10 -1 -28q-2 -30 -7 -49v-2q8 4 25 18q22 17 30 22q21 14 61 37q12 5 22 5q11 0 22 -5q25 -12 43 -35q4 -6 6 -10q4 -14 4 -18zM476 729q0 14 -21 30q-17 13 -30 18q-6 2 -13 2
q-9 0 -22 -5t-40 -27t-39 -25h133q2 -1 6 -1q8 0 19 3q3 2 7 5z" />
    <glyph glyph-name="uniFB89" unicode="&#x688;" horiz-adv-x="705" arabic-form="final" 
d="M685 0q-37 1 -58 14q-23 13 -39 47l-27 54q-26 -62 -68 -109q-12 -10 -100 -22q-102 -13 -174 -13q-64 0 -80.5 5.5t-27 17t-15.5 41.5q-1 14 -1 27q0 82 46 151q12 -4 14 -59q2 -21 12 -36.5t39 -19.5t87 -4q86 0 190 25q41 10 51 78l-65 252q10 20 33.5 64t33.5 65
q27 -60 52 -240q22 -156 65 -208q7 -10 22 -11h48v-119h-38zM608 751q0 -7 -7 -25q-8 -21 -21 -40q-4 -5 -7 -5h-270q-16 0 -26 4t-19.5 12t-14.5 21q-3 8 -3 19q0 15 7 38q9 20 13 23l8 3q-9 -35 -9 -44v-1q0 -9 1 -11q3 -18 24.5 -21t44.5 -3q17 0 29 2q15 2 22 13
q2 3 2 5t-1.5 15.5t-2.5 20.5q-1 9 -3 29q-2 36 -9 110q0 3 -2 4q-6 4 -10 11v5q0 6 5 16q8 15 25 40l5 -2q1 -1 1 -4v-4q0 -1 -1.5 -4.5t-1.5 -5.5q0 -3 7.5 -8t32.5 -17q-21 -49 -25 -49q-2 0 -2.5 0.5t-1.5 0.5l5 -83q0 -10 -1 -28q-2 -30 -7 -49v-2q8 4 25 18
q22 17 30 22q21 14 61 37q12 5 22 5q11 0 22 -5q25 -12 43 -35q4 -6 6 -10q4 -14 4 -18zM576 729q0 14 -21 30q-17 13 -30 18q-6 2 -13 2q-9 0 -22 -5t-40 -27t-39 -25h133q2 -1 6 -1q8 0 19 3q3 2 7 5z" />
    <glyph glyph-name="uniFB8A" unicode="&#x698;" horiz-adv-x="673" arabic-form="isolated" 
d="M591 150q0 -125 -92 -263q-97 -143 -203 -143q-59 0 -168 42t-127 69v24h20l65 -29q65 -28 105 -28q91 0 221 126t130 214q0 53 -156 174q10 47 29 145q176 -123 176 -331zM380 921q-12 -29 -55 -98l-137 80l57 98q70 -35 135 -80zM550 729q-18 -31 -55 -95
q-72 37 -131 74l-41 -70q-55 27 -141 80q16 33 53 97q29 -13 129 -74q18 20 45 69z" />
    <glyph glyph-name="uniFB8B" unicode="&#x698;" horiz-adv-x="743" arabic-form="final" 
d="M725 0q-42 0 -72 18.5t-40 30.5q-9 -49 -34.5 -116.5t-63.5 -122.5q-63 -101 -148 -142q-36 -16 -65 -16q-27 0 -79 13q-43 11 -101 34q-74 28 -117 67q-2 6 -2 10q0 13 14 15q4 0 60.5 -22.5t85.5 -30.5q18 -5 32 -5q52 0 134 54q51 33 116 103q14 15 26 29
q85 109 85 159q0 16 -57 92q-52 66 -66 78l68 121q49 -72 98 -146q65 -86 129 -104h33v-119h-36zM455 831q-12 -29 -55 -98l-137 80l57 98q70 -35 135 -80zM625 639q-18 -31 -55 -95q-72 37 -131 74l-41 -70q-55 27 -141 80q16 33 53 97q29 -13 129 -74q18 20 45 69z" />
    <glyph glyph-name="uniFB8C" unicode="&#x691;" horiz-adv-x="673" arabic-form="isolated" 
d="M591 150q0 -125 -92 -263q-97 -143 -203 -143q-59 0 -168 42t-127 69v24h20l65 -29q65 -28 105 -28q91 0 221 126t130 214q0 53 -156 174q10 47 29 145q176 -123 176 -331zM557 705q0 -7 -7 -25q-8 -21 -21 -40q-4 -5 -7 -5h-270q-16 0 -26 4t-19.5 12t-14.5 21
q-3 8 -3 19q0 15 7 38q9 20 13 23l8 3q-9 -35 -9 -44v-1q0 -9 1 -11q3 -18 24.5 -21t44.5 -3q17 0 29 2q15 2 22 13q2 3 2 5t-1.5 15.5t-2.5 20.5q-1 9 -3 29q-2 36 -9 110q0 3 -2 4q-6 4 -10 11v5q0 6 5 16q8 15 25 40l5 -2q1 -1 1 -4v-4q0 -1 -1.5 -4.5t-1.5 -5.5
q0 -3 7.5 -8t32.5 -17q-21 -49 -25 -49q-2 0 -2.5 0.5t-1.5 0.5l5 -83q0 -10 -1 -28q-2 -30 -7 -49v-2q8 4 25 18q22 17 30 22q21 14 61 37q12 5 22 5q11 0 22 -5q25 -12 43 -35q4 -6 6 -10q4 -14 4 -18zM525 683q0 14 -21 30q-17 13 -30 18q-6 2 -13 2q-9 0 -22 -5t-40 -27
t-39 -25h133q2 -1 6 -1q8 0 19 3q3 2 7 5z" />
    <glyph glyph-name="uniFB8D" unicode="&#x691;" horiz-adv-x="743" arabic-form="final" 
d="M725 0q-42 0 -72 18.5t-40 30.5q-9 -49 -34.5 -116.5t-63.5 -122.5q-63 -101 -148 -142q-36 -16 -65 -16q-27 0 -79 13q-43 11 -101 34q-74 28 -117 67q-2 6 -2 10q0 13 14 15q4 0 60.5 -22.5t85.5 -30.5q18 -5 32 -5q52 0 134 54q51 33 116 103q14 15 26 29
q85 109 85 159q0 16 -57 92q-52 66 -66 78l68 121q49 -72 98 -146q65 -86 129 -104h33v-119h-36zM635 619q0 -7 -7 -25q-8 -21 -21 -40q-4 -5 -7 -5h-270q-16 0 -26 4t-19.5 12t-14.5 21q-3 8 -3 19q0 15 7 38q9 20 13 23l8 3q-9 -35 -9 -44v-1q0 -9 1 -11q3 -18 24.5 -21
t44.5 -3q17 0 29 2q15 2 22 13q2 3 2 5t-1.5 15.5t-2.5 20.5q-1 9 -3 29q-2 36 -9 110q0 3 -2 4q-6 4 -10 11v5q0 6 5 16q8 15 25 40l5 -2q1 -1 1 -4v-4q0 -1 -1.5 -4.5t-1.5 -5.5q0 -3 7.5 -8t32.5 -17q-21 -49 -25 -49q-2 0 -2.5 0.5t-1.5 0.5l5 -83q0 -10 -1 -28
q-2 -30 -7 -49v-2q8 4 25 18q22 17 30 22q21 14 61 37q12 5 22 5q11 0 22 -5q25 -12 43 -35q4 -6 6 -10q4 -14 4 -18zM603 597q0 14 -21 30q-17 13 -30 18q-6 2 -13 2q-9 0 -22 -5t-40 -27t-39 -25h133q2 -1 6 -1q8 0 19 3q3 2 7 5z" />
    <glyph glyph-name="uniFB8E" unicode="&#x6a9;" horiz-adv-x="1206" arabic-form="isolated" 
d="M314 0q0 1 -32 6q-82 17 -132 70t-50 117q0 49 45 137t78 96v-18l-24 -54q-24 -53 -24 -75q0 -70 47.5 -115t114.5 -45h690q-27 71 -115 149q-20 19 -153 117q-21 -33 -31 -33q-6 0 -25 17q-63 53 -86 96q-4 10 -4 24q0 19 4 39q21 70 56 154q39 25 104 55
q210 99 309 139q50 19 101 36l-47 -137l-3 -1q-161 -59 -446 -182q141 -111 195 -158q123 -106 172 -184q10 -17 16 -31q14 -29 14 -55q0 -49 -22 -117q-4 -16 -27 -47h-725z" />
    <glyph glyph-name="uniFB8F" unicode="&#x6a9;" horiz-adv-x="1152" arabic-form="final" 
d="M314 0q0 1 -32 6q-82 17 -132 70t-50 117q0 49 45 137t78 96v-18l-24 -54q-24 -53 -24 -75q0 -70 47.5 -115t114.5 -45h556q11 0 23 12t12 19q0 14 -86 92q-49 45 -149 131q-10 -11 -25 -21q-51 43 -98 101q-23 26 -23 34q0 19 4 41q9 37 19 74q12 47 41 74q53 24 160 76
q170 84 354 145q-12 -49 -47 -137q-150 -58 -453 -176q78 -70 234 -215q69 -74 139 -148q90 -92 127 -102h45v-119h-100l-88 86q-67 -66 -101 -86h-567z" />
    <glyph glyph-name="uniFB90" unicode="&#x6a9;" horiz-adv-x="626" arabic-form="initial" 
d="M557 774q-161 -59 -446 -182q141 -111 195 -158q123 -106 172 -184q10 -17 16 -31q14 -29 14 -55q0 -49 -22 -117q-4 -16 -27 -47h-499v119h487q-27 71 -115 149q-20 19 -153 117q-21 -33 -31 -33q-6 0 -25 17q-63 53 -86 96q-4 10 -4 24q0 19 4 39q21 70 56 154
q39 25 104 55q210 99 309 139q50 19 101 36l-47 -137z" />
    <glyph glyph-name="uniFB91" unicode="&#x6a9;" horiz-adv-x="642" arabic-form="medial" 
d="M660 0h-100l-88 86q-67 -66 -101 -86h-411v119h423q11 0 23 12t12 19q0 14 -86 92q-49 45 -149 131q-10 -11 -25 -21q-51 43 -98 101q-23 26 -23 34q0 19 4 41q9 37 19 74q12 47 41 74q53 24 160 76q170 84 354 145q-12 -49 -47 -137q-150 -58 -453 -176q78 -70 234 -215
q69 -74 139 -148q90 -92 127 -102h45v-119z" />
    <glyph glyph-name="uniFB92" unicode="&#x6af;" horiz-adv-x="1206" arabic-form="isolated" 
d="M696 827q81 49 237.5 123t204.5 93q24 10 49 18l-23 -67h-1q-195 -79 -489 -230q9 33 22 63zM314 0q0 1 -32 6q-82 17 -132 70t-50 117q0 49 45 137t78 96v-18l-24 -54q-24 -53 -24 -75q0 -70 47.5 -115t114.5 -45h690q-27 71 -115 149q-20 19 -153 117q-21 -33 -31 -33
q-6 0 -25 17q-63 53 -86 96q-4 10 -4 24q0 19 4 39q21 70 56 154q39 25 104 55q210 99 309 139q50 19 101 36l-47 -137l-3 -1q-161 -59 -446 -182q141 -111 195 -158q123 -106 172 -184q10 -17 16 -31q14 -29 14 -55q0 -49 -22 -117q-4 -16 -27 -47h-725z" />
    <glyph glyph-name="uniFB93" unicode="&#x6af;" horiz-adv-x="1152" arabic-form="final" 
d="M314 0q0 1 -32 6q-82 17 -132 70t-50 117q0 49 45 137t78 96v-18l-24 -54q-24 -53 -24 -75q0 -70 47.5 -115t114.5 -45h556q11 0 23 12t12 19q0 14 -86 92q-49 45 -149 131q-10 -11 -25 -21q-51 43 -98 101q-23 26 -23 34q0 19 4 41q9 37 19 74q12 47 41 74q53 24 160 76
q170 84 354 145q-12 -49 -47 -137q-150 -58 -453 -176q78 -70 234 -215q69 -74 139 -148q90 -92 127 -102h45v-119h-100l-88 86q-67 -66 -101 -86h-567zM633 823q81 49 237.5 123t204.5 93q24 10 49 18l-23 -67h-1q-195 -79 -489 -230q9 33 22 63z" />
    <glyph glyph-name="uniFB94" unicode="&#x6af;" horiz-adv-x="626" arabic-form="initial" 
d="M557 774q-161 -59 -446 -182q141 -111 195 -158q123 -106 172 -184q10 -17 16 -31q14 -29 14 -55q0 -49 -22 -117q-4 -16 -27 -47h-499v119h487q-27 71 -115 149q-20 19 -153 117q-21 -33 -31 -33q-6 0 -25 17q-63 53 -86 96q-4 10 -4 24q0 19 4 39q21 70 56 154
q39 25 104 55q210 99 309 139q50 19 101 36l-47 -137zM116 827q81 49 237.5 123t204.5 93q24 10 49 18l-23 -67h-1q-195 -79 -488 -230q8 33 21 63z" />
    <glyph glyph-name="uniFB95" unicode="&#x6af;" horiz-adv-x="642" arabic-form="medial" 
d="M660 0h-100l-88 86q-67 -66 -101 -86h-411v119h423q11 0 23 12t12 19q0 14 -86 92q-49 45 -149 131q-10 -11 -25 -21q-51 43 -98 101q-23 26 -23 34q0 19 4 41q9 37 19 74q12 47 41 74q53 24 160 76q170 84 354 145q-12 -49 -47 -137q-150 -58 -453 -176q78 -70 234 -215
q69 -74 139 -148q90 -92 127 -102h45v-119zM124 819q81 49 237.5 123t204.5 93q24 10 49 18l-23 -67h-1q-195 -79 -489 -230q9 33 22 63z" />
    <glyph glyph-name="uniFB96" unicode="&#x6b3;" horiz-adv-x="1206" arabic-form="isolated" 
d="M696 827q81 49 237.5 123t204.5 93q24 10 49 18l-23 -67h-1q-195 -79 -489 -230q9 33 22 63zM314 0q0 1 -32 6q-82 17 -132 70t-50 117q0 49 45 137t78 96v-18l-24 -54q-24 -53 -24 -75q0 -70 47.5 -115t114.5 -45h690q-27 71 -115 149q-20 19 -153 117q-21 -33 -31 -33
q-6 0 -25 17q-63 53 -86 96q-4 10 -4 24q0 19 4 39q21 70 56 154q39 25 104 55q210 99 309 139q50 19 101 36l-47 -137l-3 -1q-161 -59 -446 -182q141 -111 195 -158q123 -106 172 -184q10 -17 16 -31q14 -29 14 -55q0 -49 -22 -117q-4 -16 -27 -47h-725zM637 -334
q-58 53 -118 102q38 51 79 92q54 -40 115 -104q-42 -58 -76 -90zM663 -518q-63 57 -118 101q35 48 79 93q55 -42 115 -105q-46 -62 -76 -89z" />
    <glyph glyph-name="uniFB97" unicode="&#x6b3;" horiz-adv-x="1152" arabic-form="final" 
d="M314 0q0 1 -32 6q-82 17 -132 70t-50 117q0 49 45 137t78 96v-18l-24 -54q-24 -53 -24 -75q0 -70 47.5 -115t114.5 -45h556q11 0 23 12t12 19q0 14 -86 92q-49 45 -149 131q-10 -11 -25 -21q-51 43 -98 101q-23 26 -23 34q0 19 4 41q9 37 19 74q12 47 41 74q53 24 160 76
q170 84 354 145q-12 -49 -47 -137q-150 -58 -453 -176q78 -70 234 -215q69 -74 139 -148q90 -92 127 -102h45v-119h-100l-88 86q-67 -66 -101 -86h-567zM633 823q81 49 237.5 123t204.5 93q24 10 49 18l-23 -67h-1q-195 -79 -489 -230q9 33 22 63zM637 -334q-58 53 -118 102
q38 51 79 92q54 -40 115 -104q-42 -58 -76 -90zM663 -518q-63 57 -118 101q35 48 79 93q55 -42 115 -105q-46 -62 -76 -89z" />
    <glyph glyph-name="uniFB98" unicode="&#x6b3;" horiz-adv-x="626" arabic-form="initial" 
d="M557 774q-161 -59 -446 -182q141 -111 195 -158q123 -106 172 -184q10 -17 16 -31q14 -29 14 -55q0 -49 -22 -117q-4 -16 -27 -47h-499v119h487q-27 71 -115 149q-20 19 -153 117q-21 -33 -31 -33q-6 0 -25 17q-63 53 -86 96q-4 10 -4 24q0 19 4 39q21 70 56 154
q39 25 104 55q210 99 309 139q50 19 101 36l-47 -137zM116 827q81 49 237.5 123t204.5 93q24 10 49 18l-23 -67h-1q-195 -79 -488 -230q8 33 21 63zM227 -334q-58 53 -118 102q38 51 79 92q54 -40 115 -104q-42 -58 -76 -90zM253 -518q-63 57 -118 101q35 48 79 93
q55 -42 115 -105q-46 -62 -76 -89z" />
    <glyph glyph-name="uniFB99" unicode="&#x6b3;" horiz-adv-x="642" arabic-form="medial" 
d="M660 0h-100l-88 86q-67 -66 -101 -86h-411v119h423q11 0 23 12t12 19q0 14 -86 92q-49 45 -149 131q-10 -11 -25 -21q-51 43 -98 101q-23 26 -23 34q0 19 4 41q9 37 19 74q12 47 41 74q53 24 160 76q170 84 354 145q-12 -49 -47 -137q-150 -58 -453 -176q78 -70 234 -215
q69 -74 139 -148q90 -92 127 -102h45v-119zM124 819q81 49 237.5 123t204.5 93q24 10 49 18l-23 -67h-1q-195 -79 -489 -230q9 33 22 63zM227 -334q-58 53 -118 102q38 51 79 92q54 -40 115 -104q-42 -58 -76 -90zM253 -518q-63 57 -118 101q35 48 79 93q55 -42 115 -105
q-46 -62 -76 -89z" />
    <glyph glyph-name="uniFB9A" unicode="&#x6b1;" horiz-adv-x="1206" arabic-form="isolated" 
d="M696 827q81 49 237.5 123t204.5 93q24 10 49 18l-23 -67h-1q-195 -79 -489 -230q9 33 22 63zM314 0q0 1 -32 6q-82 17 -132 70t-50 117q0 49 45 137t78 96v-18l-24 -54q-24 -53 -24 -75q0 -70 47.5 -115t114.5 -45h690q-27 71 -115 149q-20 19 -153 117q-21 -33 -31 -33
q-6 0 -25 17q-63 53 -86 96q-4 10 -4 24q0 19 4 39q21 70 56 154q39 25 104 55q210 99 309 139q50 19 101 36l-47 -137l-3 -1q-161 -59 -446 -182q141 -111 195 -158q123 -106 172 -184q10 -17 16 -31q14 -29 14 -55q0 -49 -22 -117q-4 -16 -27 -47h-725zM984 1130
q-17 -30 -52 -98q-43 25 -131 74q-4 -4 -41 -66q-24 13 -141 76q2 6 53 104q54 -26 138 -81q12 6 24 30q17 35 21 39z" />
    <glyph glyph-name="uniFB9B" unicode="&#x6b1;" horiz-adv-x="1152" arabic-form="final" 
d="M314 0q0 1 -32 6q-82 17 -132 70t-50 117q0 49 45 137t78 96v-18l-24 -54q-24 -53 -24 -75q0 -70 47.5 -115t114.5 -45h556q11 0 23 12t12 19q0 14 -86 92q-49 45 -149 131q-10 -11 -25 -21q-51 43 -98 101q-23 26 -23 34q0 19 4 41q9 37 19 74q12 47 41 74q53 24 160 76
q170 84 354 145q-12 -49 -47 -137q-150 -58 -453 -176q78 -70 234 -215q69 -74 139 -148q90 -92 127 -102h45v-119h-100l-88 86q-67 -66 -101 -86h-567zM633 823q81 49 237.5 123t204.5 93q24 10 49 18l-23 -67h-1q-195 -79 -489 -230q9 33 22 63zM984 1130q-17 -30 -52 -98
q-43 25 -131 74q-4 -4 -41 -66q-24 13 -141 76q2 6 53 104q54 -26 138 -81q12 6 24 30q17 35 21 39z" />
    <glyph glyph-name="uniFB9C" unicode="&#x6b1;" horiz-adv-x="626" arabic-form="initial" 
d="M557 774q-161 -59 -446 -182q141 -111 195 -158q123 -106 172 -184q10 -17 16 -31q14 -29 14 -55q0 -49 -22 -117q-4 -16 -27 -47h-499v119h487q-27 71 -115 149q-20 19 -153 117q-21 -33 -31 -33q-6 0 -25 17q-63 53 -86 96q-4 10 -4 24q0 19 4 39q21 70 56 154
q39 25 104 55q210 99 309 139q50 19 101 36l-47 -137zM116 827q81 49 237.5 123t204.5 93q24 10 49 18l-23 -67h-1q-195 -79 -488 -230q8 33 21 63zM424 1130q-17 -30 -52 -98q-43 25 -131 74q-4 -4 -41 -66q-24 13 -141 76q2 6 53 104q54 -26 138 -81q12 6 24 30
q17 35 21 39z" />
    <glyph glyph-name="uniFB9D" unicode="&#x6b1;" horiz-adv-x="642" arabic-form="medial" 
d="M660 0h-100l-88 86q-67 -66 -101 -86h-411v119h423q11 0 23 12t12 19q0 14 -86 92q-49 45 -149 131q-10 -11 -25 -21q-51 43 -98 101q-23 26 -23 34q0 19 4 41q9 37 19 74q12 47 41 74q53 24 160 76q170 84 354 145q-12 -49 -47 -137q-150 -58 -453 -176q78 -70 234 -215
q69 -74 139 -148q90 -92 127 -102h45v-119zM124 819q81 49 237.5 123t204.5 93q24 10 49 18l-23 -67h-1q-195 -79 -489 -230q9 33 22 63zM424 1130q-17 -30 -52 -98q-43 25 -131 74q-4 -4 -41 -66q-24 13 -141 76q2 6 53 104q54 -26 138 -81q12 6 24 30q17 35 21 39z" />
    <glyph glyph-name="uniFB9E" unicode="&#x6ba;" horiz-adv-x="945" arabic-form="isolated" 
d="M246 297q-80 -174 -80 -252v-4q0 -109 82 -166q69 -47 167 -47q91 0 207 39q162 55 162 143q0 92 -104 281l71 137q50 -51 80 -152q29 -90 29 -172q0 -208 -160 -315q-129 -88 -325 -88q-115 0 -191 53q-88 64 -88 187q-1 9 -1 18q0 57 22 130q12 41 19 59t33 70
q26 50 59 78q4 4 8 7q5 3 7 3q1 0 3 -1q1 -1 1 -3v-1q0 -2 -1 -4z" />
    <glyph glyph-name="uniFB9F" unicode="&#x6ba;" horiz-adv-x="982" arabic-form="final" 
d="M914 0q-10 -29 -25.5 -90.5t-73.5 -127t-124 -97.5q-92 -47 -183 -60q-57 -9 -108 -9q-32 0 -63 4q-79 8 -153 54q-88 64 -88 187q-1 9 -1 18q0 57 22 130q12 41 19 59t33 70q26 50 59 78q4 4 8 7q5 3 7 3q1 0 3 -1q1 -1 1 -3v-1q0 -2 -1 -4q-80 -174 -80 -252v-4
q0 -109 82 -166q69 -47 167 -47l29 1q90 5 213 47q169 63 169 155q0 65 -53 174q-48 99 -53 101q3 13 67 143q45 -54 70 -123q37 -105 94 -127h49v-119h-86z" />
    <glyph glyph-name="uniFBA0" unicode="&#x6bb;" horiz-adv-x="945" arabic-form="isolated" 
d="M246 297q-80 -174 -80 -252v-4q0 -109 82 -166q69 -47 167 -47q91 0 207 39q162 55 162 143q0 92 -104 281l71 137q50 -51 80 -152q29 -90 29 -172q0 -208 -160 -315q-129 -88 -325 -88q-115 0 -191 53q-88 64 -88 187q-1 9 -1 18q0 57 22 130q12 41 19 59t33 70
q26 50 59 78q4 4 8 7q5 3 7 3q1 0 3 -1q1 -1 1 -3v-1q0 -2 -1 -4zM607 560q0 -7 -7 -25q-8 -21 -21 -40q-4 -5 -7 -5h-270q-16 0 -26 4t-19.5 12t-14.5 21q-3 8 -3 19q0 15 7 38q9 20 13 23l8 3q-9 -35 -9 -44v-1q0 -9 1 -11q3 -18 24.5 -21t44.5 -3q17 0 29 2q15 2 22 13
q2 3 2 5t-1.5 15.5t-2.5 20.5q-1 9 -3 29q-2 36 -9 110q0 3 -2 4q-6 4 -10 11v5q0 6 5 16q8 15 25 40l5 -2q1 -1 1 -4v-4q0 -1 -1.5 -4.5t-1.5 -5.5q0 -3 7.5 -8t32.5 -17q-21 -49 -25 -49q-2 0 -2.5 0.5t-1.5 0.5l5 -83q0 -10 -1 -28q-2 -30 -7 -49v-2q8 4 25 18
q22 17 30 22q21 14 61 37q12 5 22 5q11 0 22 -5q25 -12 43 -35q4 -6 6 -10q4 -14 4 -18zM575 538q0 14 -21 30q-17 13 -30 18q-6 2 -13 2q-9 0 -22 -5t-40 -27t-39 -25h133q2 -1 6 -1q8 0 19 3q3 2 7 5z" />
    <glyph glyph-name="uniFBA1" unicode="&#x6bb;" horiz-adv-x="982" arabic-form="final" 
d="M914 0q-10 -29 -25.5 -90.5t-73.5 -127t-124 -97.5q-92 -47 -183 -60q-57 -9 -108 -9q-32 0 -63 4q-79 8 -153 54q-88 64 -88 187q-1 9 -1 18q0 57 22 130q12 41 19 59t33 70q26 50 59 78q4 4 8 7q5 3 7 3q1 0 3 -1q1 -1 1 -3v-1q0 -2 -1 -4q-80 -174 -80 -252v-4
q0 -109 82 -166q69 -47 167 -47l29 1q90 5 213 47q169 63 169 155q0 65 -53 174q-48 99 -53 101q3 13 67 143q45 -54 70 -123q37 -105 94 -127h49v-119h-86zM642 522q0 -7 -7 -25q-8 -21 -21 -40q-4 -5 -7 -5h-270q-16 0 -26 4t-19.5 12t-14.5 21q-3 8 -3 19q0 15 7 38
q9 20 13 23l8 3q-9 -35 -9 -44v-1q0 -9 1 -11q3 -18 24.5 -21t44.5 -3q17 0 29 2q15 2 22 13q2 3 2 5t-1.5 15.5t-2.5 20.5q-1 9 -3 29q-2 36 -9 110q0 3 -2 4q-6 4 -10 11v5q0 6 5 16q8 15 25 40l5 -2q1 -1 1 -4v-4q0 -1 -1.5 -4.5t-1.5 -5.5q0 -3 7.5 -8t32.5 -17
q-21 -49 -25 -49q-2 0 -2.5 0.5t-1.5 0.5l5 -83q0 -10 -1 -28q-2 -30 -7 -49v-2q8 4 25 18q22 17 30 22q21 14 61 37q12 5 22 5q11 0 22 -5q25 -12 43 -35q4 -6 6 -10q4 -14 4 -18zM610 500q0 14 -21 30q-17 13 -30 18q-6 2 -13 2q-9 0 -22 -5t-40 -27t-39 -25h133
q2 -1 6 -1q8 0 19 3q3 2 7 5z" />
    <glyph glyph-name="uniFBA2" unicode="&#x6bb;" horiz-adv-x="464" arabic-form="initial" 
d="M378 190q0 -24 -33 -190h-385v119h342q2 0 2 12q0 33 -39 117q-37 80 -39 80q0 14 64 121q35 -50 51 -93q4 -10 12 -32q25 -64 25 -134zM370 626q0 -7 -7 -25q-8 -21 -21 -40q-4 -5 -7 -5h-270q-16 0 -26 4t-19.5 12t-14.5 21q-3 8 -3 19q0 15 7 38q9 20 13 23l8 3
q-9 -35 -9 -44v-1q0 -9 1 -11q3 -18 24.5 -21t44.5 -3q17 0 29 2q15 2 22 13q2 3 2 5t-1.5 15.5t-2.5 20.5q-1 9 -3 29q-2 36 -9 110q0 3 -2 4q-6 4 -10 11v5q0 6 5 16q8 15 25 40l5 -2q1 -1 1 -4v-4q0 -1 -1.5 -4.5t-1.5 -5.5q0 -3 7.5 -8t32.5 -17q-21 -49 -25 -49
q-2 0 -2.5 0.5t-1.5 0.5l5 -83q0 -10 -1 -28q-2 -30 -7 -49v-2q8 4 25 18q22 17 30 22q21 14 61 37q12 5 22 5q11 0 22 -5q25 -12 43 -35q4 -6 6 -10q4 -14 4 -18zM338 604q0 14 -21 30q-17 13 -30 18q-6 2 -13 2q-9 0 -22 -5t-40 -27t-39 -25h133q2 -1 6 -1q8 0 19 3
q3 2 7 5z" />
    <glyph glyph-name="uniFBA3" unicode="&#x6bb;" horiz-adv-x="423" arabic-form="medial" 
d="M441 0h-103q-20 0 -36 25q-7 14 -25 45q-10 -13 -49 -70h-268v119h327v137q0 18 6 27q31 47 109 123v-56l-33 -215q10 -16 37 -16h35v-119zM384 610q0 -7 -7 -25q-8 -21 -21 -40q-4 -5 -7 -5h-270q-16 0 -26 4t-19.5 12t-14.5 21q-3 8 -3 19q0 15 7 38q9 20 13 23l8 3
q-9 -35 -9 -44v-1q0 -9 1 -11q3 -18 24.5 -21t44.5 -3q17 0 29 2q15 2 22 13q2 3 2 5t-1.5 15.5t-2.5 20.5q-1 9 -3 29q-2 36 -9 110q0 3 -2 4q-6 4 -10 11v5q0 6 5 16q8 15 25 40l5 -2q1 -1 1 -4v-4q0 -1 -1.5 -4.5t-1.5 -5.5q0 -3 7.5 -8t32.5 -17q-21 -49 -25 -49
q-2 0 -2.5 0.5t-1.5 0.5l5 -83q0 -10 -1 -28q-2 -30 -7 -49v-2q8 4 25 18q22 17 30 22q21 14 61 37q12 5 22 5q11 0 22 -5q25 -12 43 -35q4 -6 6 -10q4 -14 4 -18zM352 588q0 14 -21 30q-17 13 -30 18q-6 2 -13 2q-9 0 -22 -5t-40 -27t-39 -25h133q2 -1 6 -1q8 0 19 3
q3 2 7 5z" />
    <glyph glyph-name="uniFBA4" unicode="&#x6c0;" horiz-adv-x="590" arabic-form="isolated" 
d="M504 268q0 -8 -11.5 -43t-11.5 -39q-18 -82 -110 -137q-80 -49 -156 -49q-129 0 -129 96q0 66 92 195l144 188q65 -53 133 -108q49 -43 49 -103zM410 199q0 26 -46.5 72t-78.5 61l-62 -70q-35 -45 -35 -82q0 -53 70 -53q41 0 90 16q62 23 62 56zM436 727q-12 -24 -35 -51
h-7q-80 0 -228 -86v15q0 13 92 71q-41 6 -101 33q-6 6 -6 20q0 55 53.5 99.5t106.5 44.5q29 0 39 -7q2 0 14 -12q0 -22 -18 -57q0 1 -19 12q-22 12 -39 12q-24 0 -53 -10q-37 -16 -37 -39q0 -4 2 -6q21 -16 35 -18q62 -13 201 -21z" />
    </font>
</defs>
</svg>
