<?xml version="1.0" standalone="no"?>
<!DOCTYPE svg PUBLIC "-//W3C//DTD SVG 1.1//EN" "http://www.w3.org/Graphics/SVG/1.1/DTD/svg11.dtd" >
<svg xmlns="http://www.w3.org/2000/svg" xmlns:xlink="http://www.w3.org/1999/xlink" version="1.1">
<metadata>
Created by FontForge 20170731 at Sun Oct 23 03:08:39 2016
 By Aleksey,,,
(c)  2013 Bahij Virtual Academy. All rights reserved.
</metadata>
<defs>
<font id="BahijTheSansArabic-ExtraBold" horiz-adv-x="0" >
  <font-face 
    font-family="Bahij TheSansArabic ExtraBold"
    font-weight="500"
    font-stretch="normal"
    units-per-em="2048"
    panose-1="2 4 5 3 5 2 1 2 2 3"
    ascent="1638"
    descent="-410"
    x-height="1018"
    cap-height="1382"
    bbox="-555 -1085 5771 2422"
    underline-thickness="50"
    underline-position="-150"
    unicode-range="U+0020-FEFC"
  />
<missing-glyph horiz-adv-x="728" 
d="M0 0v1020h728v-1020h-728zM117 947l247 -372l248 372h-495zM655 881l-247 -371l247 -372v743zM612 73l-248 371l-247 -371h495zM73 138l247 372l-247 371v-743z" />
    <glyph glyph-name="uniFB01" unicode="fi" horiz-adv-x="1226" 
d="M792 0v778h-307v-778h-311v778h-156v240h156v31q0 464 520 464q164 0 336 -36l-51 -260q-135 38 -252 38q-242 0 -242 -192v-45h620v-1018h-313z" />
    <glyph glyph-name="uniFB02" unicode="fl" horiz-adv-x="1226" 
d="M792 0v1247q-48 10 -121 10q-186 0 -186 -161v-78h190v-240h-190v-778h-311v778h-156v240h156v86q0 409 524 409q168 0 407 -38v-1475h-313z" />
    <glyph glyph-name="uniFC31" unicode="&#xfed3;&#xfef0;" horiz-adv-x="3289" arabic-form="isolated" 
d="M2837 479q0 258 -184 258q-96 0 -152 -68q-53 -65 -53 -167q0 -248 264 -248h125v225zM1615 0v504q0 132 -39 182q-40 51 -150 51q-55 0 -108 -10v-727h-459q-776 0 -776 614q0 155 47 308l346 55q-65 -148 -65 -330q0 -208 107 -299q111 -94 374 -94h115v698
q198 39 438 39q264 0 380 -123q101 -109 101 -333v-281h182q70 0 111 -16q-90 77 -90 258q0 207 135 344q150 151 409 151q244 0 367 -133q113 -123 113 -344v-514h-1538zM2532 1159q-47 47 -47 115q0 66 47 113t113 47q67 0 114 -46q47 -47 47 -114q0 -68 -47 -115
t-114 -47t-113 47z" />
    <glyph glyph-name="uniFC32" unicode="&#xfed3;&#xfef2;" horiz-adv-x="3289" arabic-form="isolated" 
d="M1089 -419q-45 -46 -109 -46q-66 0 -110 46q-44 45 -44 112q0 65 44 111q45 46 110 46q64 0 109 -46t45 -111q0 -66 -45 -112zM725 -419q-45 -46 -110 -46q-64 0 -109 46q-44 46 -44 112q0 65 44 111q45 46 109 46q65 0 110 -46q44 -46 44 -111q0 -66 -44 -112zM2837 479
q0 258 -184 258q-96 0 -152 -68q-53 -65 -53 -167q0 -248 264 -248h125v225zM1615 0v504q0 132 -39 182q-40 51 -150 51q-55 0 -108 -10v-727h-459q-776 0 -776 614q0 155 47 308l346 55q-65 -148 -65 -330q0 -208 107 -299q111 -94 374 -94h115v698q198 39 438 39
q264 0 380 -123q101 -109 101 -333v-281h182q70 0 111 -16q-90 77 -90 258q0 207 135 344q150 151 409 151q244 0 367 -133q113 -123 113 -344v-514h-1538zM2532 1159q-47 47 -47 115q0 66 47 113t113 47q67 0 114 -46q47 -47 47 -114q0 -68 -47 -115t-114 -47t-113 47z" />
    <glyph glyph-name="uniFC43" unicode="&#xfedf;&#xfef0;" horiz-adv-x="2730" arabic-form="isolated" 
d="M1615 0v504q0 132 -39 182q-40 51 -150 51q-55 0 -108 -10v-727h-459q-776 0 -776 614q0 155 47 308l346 55q-65 -148 -65 -330q0 -208 107 -299q111 -94 374 -94h115v698q198 39 438 39q264 0 380 -123q101 -109 101 -333v-281h317v1190h326v-1444h-954z" />
    <glyph glyph-name="uniFC44" unicode="&#xfedf;&#xfef2;" horiz-adv-x="2730" arabic-form="isolated" 
d="M1089 -419q-45 -46 -109 -46q-66 0 -110 46q-44 45 -44 112q0 65 44 111q45 46 110 46q64 0 109 -46t45 -111q0 -66 -45 -112zM725 -419q-45 -46 -110 -46q-64 0 -109 46q-44 46 -44 112q0 65 44 111q45 46 109 46q65 0 110 -46q44 -46 44 -111q0 -66 -44 -112zM1615 0
v504q0 132 -39 182q-40 51 -150 51q-55 0 -108 -10v-727h-459q-776 0 -776 614q0 155 47 308l346 55q-65 -148 -65 -330q0 -208 107 -299q111 -94 374 -94h115v698q198 39 438 39q264 0 380 -123q101 -109 101 -333v-281h317v1190h326v-1444h-954z" />
    <glyph glyph-name="uniFC64" unicode="&#xfe8c;&#xfeae;" horiz-adv-x="1560" arabic-form="final" 
d="M929 1290q59 0 96 -10q-26 20 -26 70q0 104 73 169q84 76 246 76q96 0 127 -10l-27 -178l-34 4q-37 4 -70 4q-88 0 -88 -57q0 -68 131 -68h119v-180h-547v180zM692 0v-8q0 -508 -527 -508q-77 0 -145 12l23 256q62 -16 139 -16q94 0 138 50q48 57 48 194v983h324v-709
h384v709h326v-709h184v-254h-894z" />
    <glyph glyph-name="uniFC67" unicode="&#xfe8c;&#xfee6;" horiz-adv-x="2084" arabic-form="final" 
d="M1459 1290q59 0 96 -10q-26 20 -26 70q0 104 73 169q84 76 246 76q96 0 127 -10l-27 -178l-34 4q-37 4 -70 4q-88 0 -88 -57q0 -68 131 -68h119v-180h-547v180zM483 715q-47 47 -47 114q0 66 47 113t113 47q68 0 114 -46q48 -46 48 -114q0 -67 -48 -114q-47 -47 -114 -47
q-66 0 -113 47zM1202 0q-74 -471 -592 -471q-559 0 -559 590q0 173 47 352l336 59q-59 -196 -59 -380q0 -367 260 -367q130 0 190 79q66 87 66 290v811h323v-709h392v709h326v-709h184v-254h-914z" />
    <glyph glyph-name="uniFC6A" unicode="&#xfe92;&#xfeae;" horiz-adv-x="1555" arabic-form="final" 
d="M692 0v-8q0 -508 -527 -508q-77 0 -145 12l23 256q62 -16 139 -16q94 0 138 50q48 57 48 194v983h324v-709h384v709h326v-709h184v-254h-894zM966 -421q-47 47 -47 114t47 113q46 47 113 47t114 -47q47 -46 47 -113q0 -68 -47 -114t-114 -46t-113 46z" />
    <glyph glyph-name="uniFC70" unicode="&#xfe98;&#xfeae;" horiz-adv-x="1560" arabic-form="final" 
d="M1272 1143q-44 46 -44 112t44 112t110 46q64 0 109 -46q44 -47 44 -112q0 -66 -44 -112q-45 -47 -109 -47q-66 0 -110 47zM908 1143q-45 46 -45 112q0 65 45 112q45 46 109 46q65 0 110 -46q44 -46 44 -112t-44 -112q-44 -47 -110 -47q-64 0 -109 47zM692 0v-8
q0 -508 -527 -508q-77 0 -145 12l23 256q62 -16 139 -16q94 0 138 50q48 57 48 194v983h324v-709h384v709h326v-709h184v-254h-894z" />
    <glyph glyph-name="uniFC86" unicode="&#xfee0;&#xfef0;" horiz-adv-x="2734" arabic-form="final" 
d="M1615 0v504q0 132 -39 182q-40 51 -150 51q-55 0 -108 -10v-727h-459q-776 0 -776 614q0 155 47 308l346 55q-65 -148 -65 -330q0 -208 107 -299q111 -94 374 -94h115v698q198 39 438 39q264 0 380 -123q101 -109 101 -333v-281h317v1190h326v-1190h191v-254h-1145z" />
    <glyph glyph-name="uniFC87" unicode="&#xfee0;&#xfef2;" horiz-adv-x="2734" arabic-form="final" 
d="M1089 -419q-45 -46 -109 -46q-66 0 -110 46q-44 45 -44 112q0 65 44 111q45 46 110 46q64 0 109 -46t45 -111q0 -66 -45 -112zM725 -419q-45 -46 -110 -46q-64 0 -109 46q-44 46 -44 112q0 65 44 111q45 46 109 46q65 0 110 -46q44 -46 44 -111q0 -66 -44 -112zM1615 0
v504q0 132 -39 182q-40 51 -150 51q-55 0 -108 -10v-727h-459q-776 0 -776 614q0 155 47 308l346 55q-65 -148 -65 -330q0 -208 107 -299q111 -94 374 -94h115v698q198 39 438 39q264 0 380 -123q101 -109 101 -333v-281h317v1190h326v-1190h191v-254h-1145z" />
    <glyph glyph-name="uniFCCC" unicode="&#xfedf;&#xfee4;" horiz-adv-x="2024" arabic-form="initial" 
d="M900 479q0 258 -184 258q-96 0 -152 -68q-53 -65 -53 -167q0 -248 264 -248h125v225zM775 0q-318 0 -448 137q-72 -137 -336 -137h-31v254q231 0 231 242q0 207 136 344q149 151 409 151q244 0 367 -133q112 -123 112 -344v-260h318v1190h326v-1444h-1084z" />
    <glyph glyph-name="uniFCFB" unicode="&#xfeb3;&#xfef0;" horiz-adv-x="3900" arabic-form="isolated" 
d="M1615 0v504q0 132 -39 182q-40 51 -150 51q-55 0 -108 -10v-727h-459q-776 0 -776 614q0 155 47 308l346 55q-65 -148 -65 -330q0 -208 107 -299q111 -94 374 -94h115v698q198 39 438 39q264 0 380 -123q101 -109 101 -333v-281h185q94 0 129 47q36 49 36 191v348h326
v-381q0 -127 26 -175q26 -46 95 -46q135 0 135 219v465h309v-506q0 -98 40 -130t165 -32h45q13 120 13 221q0 263 -54 537l316 43q61 -269 61 -561q0 -251 -27 -494h-409q-274 0 -352 127q-74 -143 -306 -143q-226 0 -280 149q-62 -133 -273 -133h-491z" />
    <glyph glyph-name="uniFCFC" unicode="&#xfeb3;&#xfef2;" horiz-adv-x="3900" arabic-form="isolated" 
d="M1089 -419q-45 -46 -109 -46q-66 0 -110 46q-44 45 -44 112q0 65 44 111q45 46 110 46q64 0 109 -46t45 -111q0 -66 -45 -112zM725 -419q-45 -46 -110 -46q-64 0 -109 46q-44 46 -44 112q0 65 44 111q45 46 109 46q65 0 110 -46q44 -46 44 -111q0 -66 -44 -112zM1615 0
v504q0 132 -39 182q-40 51 -150 51q-55 0 -108 -10v-727h-459q-776 0 -776 614q0 155 47 308l346 55q-65 -148 -65 -330q0 -208 107 -299q111 -94 374 -94h115v698q198 39 438 39q264 0 380 -123q101 -109 101 -333v-281h185q94 0 129 47q36 49 36 191v348h326v-381
q0 -127 26 -175q26 -46 95 -46q135 0 135 219v465h309v-506q0 -98 40 -130t165 -32h45q13 120 13 221q0 263 -54 537l316 43q61 -269 61 -561q0 -251 -27 -494h-409q-274 0 -352 127q-74 -143 -306 -143q-226 0 -280 149q-62 -133 -273 -133h-491z" />
    <glyph glyph-name="uniFCFD" unicode="&#xfeb7;&#xfef0;" horiz-adv-x="3900" arabic-form="isolated" 
d="M1615 0v504q0 132 -39 182q-40 51 -150 51q-55 0 -108 -10v-727h-459q-776 0 -776 614q0 155 47 308l346 55q-65 -148 -65 -330q0 -208 107 -299q111 -94 374 -94h115v698q198 39 438 39q264 0 380 -123q101 -109 101 -333v-281h185q94 0 129 47q36 49 36 191v348h326
v-381q0 -127 26 -175q26 -46 95 -46q135 0 135 219v465h309v-506q0 -98 40 -130t165 -32h45q13 120 13 221q0 263 -54 537l316 43q61 -269 61 -561q0 -251 -27 -494h-409q-274 0 -352 127q-74 -143 -306 -143q-226 0 -280 149q-62 -133 -273 -133h-491zM2710 1143
q-44 46 -44 112q0 65 44 112q45 46 109 46q66 0 110 -46t44 -112t-44 -112q-44 -47 -110 -47q-64 0 -109 47zM3074 1143q-44 46 -44 112t44 112t110 46q64 0 109 -46q44 -47 44 -112q0 -66 -44 -112q-45 -47 -109 -47q-66 0 -110 47zM2901 1460q-41 42 -41 103q0 60 41 102
q41 43 100 43q60 0 100 -43q40 -42 40 -102q0 -61 -40 -103q-40 -43 -100 -43q-59 0 -100 43z" />
    <glyph glyph-name="uniFCFE" unicode="&#xfeb7;&#xfef2;" horiz-adv-x="3900" arabic-form="isolated" 
d="M1089 -419q-45 -46 -109 -46q-66 0 -110 46q-44 45 -44 112q0 65 44 111q45 46 110 46q64 0 109 -46t45 -111q0 -66 -45 -112zM725 -419q-45 -46 -110 -46q-64 0 -109 46q-44 46 -44 112q0 65 44 111q45 46 109 46q65 0 110 -46q44 -46 44 -111q0 -66 -44 -112zM1615 0
v504q0 132 -39 182q-40 51 -150 51q-55 0 -108 -10v-727h-459q-776 0 -776 614q0 155 47 308l346 55q-65 -148 -65 -330q0 -208 107 -299q111 -94 374 -94h115v698q198 39 438 39q264 0 380 -123q101 -109 101 -333v-281h185q94 0 129 47q36 49 36 191v348h326v-381
q0 -127 26 -175q26 -46 95 -46q135 0 135 219v465h309v-506q0 -98 40 -130t165 -32h45q13 120 13 221q0 263 -54 537l316 43q61 -269 61 -561q0 -251 -27 -494h-409q-274 0 -352 127q-74 -143 -306 -143q-226 0 -280 149q-62 -133 -273 -133h-491zM2710 1143q-44 46 -44 112
q0 65 44 112q45 46 109 46q66 0 110 -46t44 -112t-44 -112q-44 -47 -110 -47q-64 0 -109 47zM3074 1143q-44 46 -44 112t44 112t110 46q64 0 109 -46q44 -47 44 -112q0 -66 -44 -112q-45 -47 -109 -47q-66 0 -110 47zM2901 1460q-41 42 -41 103q0 60 41 102q41 43 100 43
q60 0 100 -43q40 -42 40 -102q0 -61 -40 -103q-40 -43 -100 -43q-59 0 -100 43z" />
    <glyph glyph-name="uniFD05" unicode="&#xfebb;&#xfef0;" horiz-adv-x="3601" arabic-form="isolated" 
d="M2893 254q286 0 286 254q0 225 -182 225q-136 0 -253 -141q-115 -138 -152 -338h301zM1615 0v504q0 132 -39 182q-40 51 -150 51q-55 0 -108 -10v-727h-459q-776 0 -776 614q0 155 47 308l346 55q-65 -148 -65 -330q0 -208 107 -299q111 -94 374 -94h115v698
q198 39 438 39q264 0 380 -123q101 -109 101 -333v-281h346v709h324v-31q0 -148 -25 -262h2q64 151 203 238q131 83 287 83q221 0 337 -125q111 -121 111 -340q0 -241 -148 -376q-165 -150 -497 -150h-1251z" />
    <glyph glyph-name="uniFD06" unicode="&#xfebb;&#xfef2;" horiz-adv-x="3601" arabic-form="isolated" 
d="M1089 -419q-45 -46 -109 -46q-66 0 -110 46q-44 45 -44 112q0 65 44 111q45 46 110 46q64 0 109 -46t45 -111q0 -66 -45 -112zM725 -419q-45 -46 -110 -46q-64 0 -109 46q-44 46 -44 112q0 65 44 111q45 46 109 46q65 0 110 -46q44 -46 44 -111q0 -66 -44 -112zM2893 254
q286 0 286 254q0 225 -182 225q-136 0 -253 -141q-115 -138 -152 -338h301zM1615 0v504q0 132 -39 182q-40 51 -150 51q-55 0 -108 -10v-727h-459q-776 0 -776 614q0 155 47 308l346 55q-65 -148 -65 -330q0 -208 107 -299q111 -94 374 -94h115v698q198 39 438 39
q264 0 380 -123q101 -109 101 -333v-281h346v709h324v-31q0 -148 -25 -262h2q64 151 203 238q131 83 287 83q221 0 337 -125q111 -121 111 -340q0 -241 -148 -376q-165 -150 -497 -150h-1251z" />
    <glyph glyph-name="uniFD07" unicode="&#xfebf;&#xfef0;" horiz-adv-x="3601" arabic-form="isolated" 
d="M2893 254q286 0 286 254q0 225 -182 225q-136 0 -253 -141q-115 -138 -152 -338h301zM1615 0v504q0 132 -39 182q-40 51 -150 51q-55 0 -108 -10v-727h-459q-776 0 -776 614q0 155 47 308l346 55q-65 -148 -65 -330q0 -208 107 -299q111 -94 374 -94h115v698
q198 39 438 39q264 0 380 -123q101 -109 101 -333v-281h346v709h324v-31q0 -148 -25 -262h2q64 151 203 238q131 83 287 83q221 0 337 -125q111 -121 111 -340q0 -241 -148 -376q-165 -150 -497 -150h-1251zM2888 1149q-47 47 -47 115q0 66 47 113q47 46 113 46
q68 0 115 -46t47 -113q0 -68 -47 -115t-115 -47q-66 0 -113 47z" />
    <glyph glyph-name="uniFD08" unicode="&#xfebf;&#xfef2;" horiz-adv-x="3601" arabic-form="isolated" 
d="M1089 -419q-45 -46 -109 -46q-66 0 -110 46q-44 45 -44 112q0 65 44 111q45 46 110 46q64 0 109 -46t45 -111q0 -66 -45 -112zM725 -419q-45 -46 -110 -46q-64 0 -109 46q-44 46 -44 112q0 65 44 111q45 46 109 46q65 0 110 -46q44 -46 44 -111q0 -66 -44 -112zM2893 254
q286 0 286 254q0 225 -182 225q-136 0 -253 -141q-115 -138 -152 -338h301zM1615 0v504q0 132 -39 182q-40 51 -150 51q-55 0 -108 -10v-727h-459q-776 0 -776 614q0 155 47 308l346 55q-65 -148 -65 -330q0 -208 107 -299q111 -94 374 -94h115v698q198 39 438 39
q264 0 380 -123q101 -109 101 -333v-281h346v709h324v-31q0 -148 -25 -262h2q64 151 203 238q131 83 287 83q221 0 337 -125q111 -121 111 -340q0 -241 -148 -376q-165 -150 -497 -150h-1251zM2888 1149q-47 47 -47 115q0 66 47 113q47 46 113 46q68 0 115 -46t47 -113
q0 -68 -47 -115t-115 -47q-66 0 -113 47z" />
    <glyph glyph-name="uniFD0D" unicode="&#xfeb7;&#xfeae;" horiz-adv-x="2686" arabic-form="isolated" 
d="M692 0v-8q0 -508 -527 -508q-77 0 -145 12l23 256q62 -16 139 -16q94 0 138 50q48 57 48 194v983h324v-709h209q94 0 129 47q36 49 36 191v348h326v-381q0 -127 26 -175q26 -46 95 -46q135 0 135 219v465h309v-506q0 -98 40 -130t165 -32h45q13 120 13 221q0 263 -54 537
l316 43q61 -269 61 -561q0 -251 -27 -494h-409q-274 0 -352 127q-74 -143 -306 -143q-226 0 -280 149q-62 -133 -273 -133h-204zM1500 1143q-44 46 -44 112q0 65 44 112q45 46 109 46q66 0 110 -46t44 -112t-44 -112q-44 -47 -110 -47q-64 0 -109 47zM1864 1143
q-44 46 -44 112t44 112t110 46q64 0 109 -46q44 -47 44 -112q0 -66 -44 -112q-45 -47 -109 -47q-66 0 -110 47zM1691 1460q-41 42 -41 103q0 60 41 102q41 43 100 43q60 0 100 -43q40 -42 40 -102q0 -61 -40 -103q-40 -43 -100 -43q-59 0 -100 43z" />
    <glyph glyph-name="uniFD0E" unicode="&#xfeb3;&#xfeae;" horiz-adv-x="2686" arabic-form="isolated" 
d="M692 0v-8q0 -508 -527 -508q-77 0 -145 12l23 256q62 -16 139 -16q94 0 138 50q48 57 48 194v983h324v-709h209q94 0 129 47q36 49 36 191v348h326v-381q0 -127 26 -175q26 -46 95 -46q135 0 135 219v465h309v-506q0 -98 40 -130t165 -32h45q13 120 13 221q0 263 -54 537
l316 43q61 -269 61 -561q0 -251 -27 -494h-409q-274 0 -352 127q-74 -143 -306 -143q-226 0 -280 149q-62 -133 -273 -133h-204z" />
    <glyph glyph-name="uniFD0F" unicode="&#xfebb;&#xfeae;" horiz-adv-x="2387" arabic-form="isolated" 
d="M1683 254q286 0 286 254q0 225 -182 225q-136 0 -253 -141q-115 -138 -152 -338h301zM692 0v-8q0 -508 -527 -508q-77 0 -145 12l23 256q62 -16 139 -16q94 0 138 50q48 57 48 194v983h324v-709h370v709h324v-31q0 -148 -25 -262h2q64 151 203 238q131 83 287 83
q221 0 337 -125q111 -121 111 -340q0 -241 -148 -376q-165 -150 -497 -150h-964z" />
    <glyph glyph-name="uniFD10" unicode="&#xfebf;&#xfeae;" horiz-adv-x="2387" arabic-form="isolated" 
d="M1683 254q286 0 286 254q0 225 -182 225q-136 0 -253 -141q-115 -138 -152 -338h301zM692 0v-8q0 -508 -527 -508q-77 0 -145 12l23 256q62 -16 139 -16q94 0 138 50q48 57 48 194v983h324v-709h370v709h324v-31q0 -148 -25 -262h2q64 151 203 238q131 83 287 83
q221 0 337 -125q111 -121 111 -340q0 -241 -148 -376q-165 -150 -497 -150h-964zM1678 1149q-47 47 -47 115q0 66 47 113q47 46 113 46q68 0 115 -46t47 -113q0 -68 -47 -115t-115 -47q-66 0 -113 47z" />
    <glyph glyph-name="uniFD17" unicode="&#xfeb4;&#xfef0;" horiz-adv-x="3900" arabic-form="final" 
d="M1615 0v504q0 132 -39 182q-40 51 -150 51q-55 0 -108 -10v-727h-459q-776 0 -776 614q0 155 47 308l346 55q-65 -148 -65 -330q0 -208 107 -299q111 -94 374 -94h115v698q198 39 438 39q264 0 380 -123q101 -109 101 -333v-281h195q94 0 129 47q36 49 36 191v348h326
v-381q0 -127 26 -175q26 -46 95 -46q135 0 135 219v465h309v-506q0 -98 40 -130t165 -32h45q13 120 13 221q0 263 -54 537l316 43q61 -269 61 -561q0 -117 -6 -240h180v-254h-610q-274 0 -352 127q-74 -143 -306 -143q-226 0 -280 149q-62 -133 -273 -133h-501z" />
    <glyph glyph-name="uniFD18" unicode="&#xfeb4;&#xfef2;" horiz-adv-x="3900" arabic-form="final" 
d="M1089 -419q-45 -46 -109 -46q-66 0 -110 46q-44 45 -44 112q0 65 44 111q45 46 110 46q64 0 109 -46t45 -111q0 -66 -45 -112zM725 -419q-45 -46 -110 -46q-64 0 -109 46q-44 46 -44 112q0 65 44 111q45 46 109 46q65 0 110 -46q44 -46 44 -111q0 -66 -44 -112zM1615 0
v504q0 132 -39 182q-40 51 -150 51q-55 0 -108 -10v-727h-459q-776 0 -776 614q0 155 47 308l346 55q-65 -148 -65 -330q0 -208 107 -299q111 -94 374 -94h115v698q198 39 438 39q264 0 380 -123q101 -109 101 -333v-281h195q94 0 129 47q36 49 36 191v348h326v-381
q0 -127 26 -175q26 -46 95 -46q135 0 135 219v465h309v-506q0 -98 40 -130t165 -32h45q13 120 13 221q0 263 -54 537l316 43q61 -269 61 -561q0 -117 -6 -240h180v-254h-610q-274 0 -352 127q-74 -143 -306 -143q-226 0 -280 149q-62 -133 -273 -133h-501z" />
    <glyph glyph-name="uniFD19" unicode="&#xfeb8;&#xfef0;" horiz-adv-x="3900" arabic-form="final" 
d="M1615 0v504q0 132 -39 182q-40 51 -150 51q-55 0 -108 -10v-727h-459q-776 0 -776 614q0 155 47 308l346 55q-65 -148 -65 -330q0 -208 107 -299q111 -94 374 -94h115v698q198 39 438 39q264 0 380 -123q101 -109 101 -333v-281h195q94 0 129 47q36 49 36 191v348h326
v-381q0 -127 26 -175q26 -46 95 -46q135 0 135 219v465h309v-506q0 -98 40 -130t165 -32h45q13 120 13 221q0 263 -54 537l316 43q61 -269 61 -561q0 -117 -6 -240h180v-254h-610q-274 0 -352 127q-74 -143 -306 -143q-226 0 -280 149q-62 -133 -273 -133h-501zM2911 1460
q-41 42 -41 103q0 60 41 102q41 43 100 43q60 0 100 -43q40 -42 40 -102q0 -61 -40 -103q-40 -43 -100 -43q-59 0 -100 43zM2720 1143q-44 46 -44 112q0 65 44 112q45 46 109 46q66 0 110 -46t44 -112t-44 -112q-44 -47 -110 -47q-64 0 -109 47zM3084 1143q-44 46 -44 112
t44 112t110 46q64 0 109 -46q44 -47 44 -112q0 -66 -44 -112q-45 -47 -109 -47q-66 0 -110 47z" />
    <glyph glyph-name="uniFD1A" unicode="&#xfeb8;&#xfef2;" horiz-adv-x="3900" arabic-form="final" 
d="M1089 -419q-45 -46 -109 -46q-66 0 -110 46q-44 45 -44 112q0 65 44 111q45 46 110 46q64 0 109 -46t45 -111q0 -66 -45 -112zM725 -419q-45 -46 -110 -46q-64 0 -109 46q-44 46 -44 112q0 65 44 111q45 46 109 46q65 0 110 -46q44 -46 44 -111q0 -66 -44 -112zM1615 0
v504q0 132 -39 182q-40 51 -150 51q-55 0 -108 -10v-727h-459q-776 0 -776 614q0 155 47 308l346 55q-65 -148 -65 -330q0 -208 107 -299q111 -94 374 -94h115v698q198 39 438 39q264 0 380 -123q101 -109 101 -333v-281h195q94 0 129 47q36 49 36 191v348h326v-381
q0 -127 26 -175q26 -46 95 -46q135 0 135 219v465h309v-506q0 -98 40 -130t165 -32h45q13 120 13 221q0 263 -54 537l316 43q61 -269 61 -561q0 -117 -6 -240h180v-254h-610q-274 0 -352 127q-74 -143 -306 -143q-226 0 -280 149q-62 -133 -273 -133h-501zM2911 1460
q-41 42 -41 103q0 60 41 102q41 43 100 43q60 0 100 -43q40 -42 40 -102q0 -61 -40 -103q-40 -43 -100 -43q-59 0 -100 43zM2720 1143q-44 46 -44 112q0 65 44 112q45 46 109 46q66 0 110 -46t44 -112t-44 -112q-44 -47 -110 -47q-64 0 -109 47zM3084 1143q-44 46 -44 112
t44 112t110 46q64 0 109 -46q44 -47 44 -112q0 -66 -44 -112q-45 -47 -109 -47q-66 0 -110 47z" />
    <glyph glyph-name="uniFD21" unicode="&#xfebc;&#xfef0;" horiz-adv-x="3554" arabic-form="final" 
d="M2899 254q270 5 270 254q0 225 -182 225q-136 0 -253 -141q-115 -138 -152 -338h317zM1615 0v504q0 132 -39 182q-40 51 -150 51q-55 0 -108 -10v-727h-459q-776 0 -776 614q0 155 47 308l346 55q-65 -148 -65 -330q0 -208 107 -299q111 -94 374 -94h115v698
q198 39 438 39q264 0 380 -123q101 -109 101 -333v-281h336v709h324v-31q0 -148 -25 -262h2q64 151 203 238q131 83 287 83q221 0 337 -125q111 -121 111 -340q0 -159 -65 -272h151v-254h-1972z" />
    <glyph glyph-name="uniFD22" unicode="&#xfebc;&#xfef2;" horiz-adv-x="3554" arabic-form="final" 
d="M1089 -419q-45 -46 -109 -46q-66 0 -110 46q-44 45 -44 112q0 65 44 111q45 46 110 46q64 0 109 -46t45 -111q0 -66 -45 -112zM725 -419q-45 -46 -110 -46q-64 0 -109 46q-44 46 -44 112q0 65 44 111q45 46 109 46q65 0 110 -46q44 -46 44 -111q0 -66 -44 -112zM2899 254
q270 5 270 254q0 225 -182 225q-136 0 -253 -141q-115 -138 -152 -338h317zM1615 0v504q0 132 -39 182q-40 51 -150 51q-55 0 -108 -10v-727h-459q-776 0 -776 614q0 155 47 308l346 55q-65 -148 -65 -330q0 -208 107 -299q111 -94 374 -94h115v698q198 39 438 39
q264 0 380 -123q101 -109 101 -333v-281h336v709h324v-31q0 -148 -25 -262h2q64 151 203 238q131 83 287 83q221 0 337 -125q111 -121 111 -340q0 -159 -65 -272h151v-254h-1972z" />
    <glyph glyph-name="uniFD23" unicode="&#xfec0;&#xfef0;" horiz-adv-x="3554" arabic-form="final" 
d="M2899 254q270 5 270 254q0 225 -182 225q-136 0 -253 -141q-115 -138 -152 -338h317zM1615 0v504q0 132 -39 182q-40 51 -150 51q-55 0 -108 -10v-727h-459q-776 0 -776 614q0 155 47 308l346 55q-65 -148 -65 -330q0 -208 107 -299q111 -94 374 -94h115v698
q198 39 438 39q264 0 380 -123q101 -109 101 -333v-281h336v709h324v-31q0 -148 -25 -262h2q64 151 203 238q131 83 287 83q221 0 337 -125q111 -121 111 -340q0 -159 -65 -272h151v-254h-1972zM2878 1149q-47 47 -47 115q0 66 47 113q47 46 113 46q68 0 115 -46t47 -113
q0 -68 -47 -115t-115 -47q-66 0 -113 47z" />
    <glyph glyph-name="uniFD24" unicode="&#xfec0;&#xfef2;" horiz-adv-x="3554" arabic-form="final" 
d="M1089 -419q-45 -46 -109 -46q-66 0 -110 46q-44 45 -44 112q0 65 44 111q45 46 110 46q64 0 109 -46t45 -111q0 -66 -45 -112zM725 -419q-45 -46 -110 -46q-64 0 -109 46q-44 46 -44 112q0 65 44 111q45 46 109 46q65 0 110 -46q44 -46 44 -111q0 -66 -44 -112zM2899 254
q270 5 270 254q0 225 -182 225q-136 0 -253 -141q-115 -138 -152 -338h317zM1615 0v504q0 132 -39 182q-40 51 -150 51q-55 0 -108 -10v-727h-459q-776 0 -776 614q0 155 47 308l346 55q-65 -148 -65 -330q0 -208 107 -299q111 -94 374 -94h115v698q198 39 438 39
q264 0 380 -123q101 -109 101 -333v-281h336v709h324v-31q0 -148 -25 -262h2q64 151 203 238q131 83 287 83q221 0 337 -125q111 -121 111 -340q0 -159 -65 -272h151v-254h-1972zM2878 1149q-47 47 -47 115q0 66 47 113q47 46 113 46q68 0 115 -46t47 -113q0 -68 -47 -115
t-115 -47q-66 0 -113 47z" />
    <glyph glyph-name="uniFD29" unicode="&#xfeb8;&#xfeae;" horiz-adv-x="2695" arabic-form="final" 
d="M1874 1143q-44 46 -44 112t44 112t110 46q64 0 109 -46q44 -47 44 -112q0 -66 -44 -112q-45 -47 -109 -47q-66 0 -110 47zM1510 1143q-44 46 -44 112q0 65 44 112q45 46 109 46q66 0 110 -46t44 -112t-44 -112q-44 -47 -110 -47q-64 0 -109 47zM1701 1460q-41 42 -41 103
q0 60 41 102q41 43 100 43q60 0 100 -43q40 -42 40 -102q0 -61 -40 -103q-40 -43 -100 -43q-59 0 -100 43zM692 0v-8q0 -508 -527 -508q-77 0 -145 12l23 256q62 -16 139 -16q94 0 138 50q48 57 48 194v983h324v-709h219q94 0 129 47q36 49 36 191v348h326v-381
q0 -127 26 -175q26 -46 95 -46q135 0 135 219v465h309v-506q0 -98 40 -130t165 -32h45q13 120 13 221q0 263 -54 537l316 43q61 -269 61 -561q0 -117 -6 -240h180v-254h-610q-274 0 -352 127q-74 -143 -306 -143q-226 0 -280 149q-62 -133 -273 -133h-214z" />
    <glyph glyph-name="uniFD2A" unicode="&#xfeb4;&#xfeae;" horiz-adv-x="2695" arabic-form="final" 
d="M692 0v-8q0 -508 -527 -508q-77 0 -145 12l23 256q62 -16 139 -16q94 0 138 50q48 57 48 194v983h324v-709h219q94 0 129 47q36 49 36 191v348h326v-381q0 -127 26 -175q26 -46 95 -46q135 0 135 219v465h309v-506q0 -98 40 -130t165 -32h45q13 120 13 221q0 263 -54 537
l316 43q61 -269 61 -561q0 -117 -6 -240h180v-254h-610q-274 0 -352 127q-74 -143 -306 -143q-226 0 -280 149q-62 -133 -273 -133h-214z" />
    <glyph glyph-name="uniFD2B" unicode="&#xfebc;&#xfeae;" horiz-adv-x="2353" arabic-form="final" 
d="M1699 254q270 5 270 254q0 225 -182 225q-136 0 -253 -141q-115 -138 -152 -338h317zM692 0v-8q0 -508 -527 -508q-77 0 -145 12l23 256q62 -16 139 -16q94 0 138 50q48 57 48 194v983h324v-709h370v709h324v-31q0 -148 -25 -262h2q64 151 203 238q131 83 287 83
q221 0 337 -125q111 -121 111 -340q0 -159 -65 -272h151v-254h-1695z" />
    <glyph glyph-name="uniFD2C" unicode="&#xfec0;&#xfeae;" horiz-adv-x="2353" arabic-form="final" 
d="M1699 254q270 5 270 254q0 225 -182 225q-136 0 -253 -141q-115 -138 -152 -338h317zM692 0v-8q0 -508 -527 -508q-77 0 -145 12l23 256q62 -16 139 -16q94 0 138 50q48 57 48 194v983h324v-709h370v709h324v-31q0 -148 -25 -262h2q64 151 203 238q131 83 287 83
q221 0 337 -125q111 -121 111 -340q0 -159 -65 -272h151v-254h-1695zM1678 1149q-47 47 -47 115q0 66 47 113q47 46 113 46q68 0 115 -46t47 -113q0 -68 -47 -115t-115 -47q-66 0 -113 47z" />
    <glyph glyph-name="uniFEF5" unicode="&#xfedf;&#xfe82;" horiz-adv-x="1243" arabic-form="isolated" 
d="M648 389h-330l-272 1028l324 45zM130 0v254h631v1190h323v-1444h-954zM-40 1694l238 174q75 -80 192 -80q116 0 211 82v-228q-91 -77 -225 -77q-108 0 -183 65l-127 -88z" />
    <glyph glyph-name="uniFEF6" unicode="&#xfee0;&#xfe82;" horiz-adv-x="1243" arabic-form="final" 
d="M130 0v254h631v1190h323v-1190h193v-254h-1147zM648 389h-330l-272 1028l324 45zM-40 1694l238 174q75 -80 192 -80q116 0 211 82v-228q-91 -77 -225 -77q-108 0 -183 65l-127 -88z" />
    <glyph glyph-name="uniFEF7" unicode="&#xfedf;&#xfe84;" horiz-adv-x="1284" arabic-form="isolated" 
d="M687 389h-329l-191 680h332zM169 0v254h631v1143h324v-1397h-955zM34 1294q61 0 94 -8q-24 21 -24 68q0 93 75 152q84 67 238 67q70 0 127 -14l-27 -160q-41 10 -108 10q-88 0 -88 -55q0 -60 127 -60h129v-164h-543v164z" />
    <glyph glyph-name="uniFEF8" unicode="&#xfee0;&#xfe84;" horiz-adv-x="1284" arabic-form="final" 
d="M169 0v254h631v1143h324v-1143h192v-254h-1147zM687 389h-329l-191 680h332zM34 1294q61 0 94 -8q-24 21 -24 68q0 93 75 152q84 67 238 67q70 0 127 -14l-27 -160q-41 10 -108 10q-88 0 -88 -55q0 -60 127 -60h129v-164h-543v164z" />
    <glyph glyph-name="uniFEF9" unicode="&#xfedf;&#xfe88;" horiz-adv-x="1243" arabic-form="isolated" 
d="M647 389h-330l-272 1028l324 45zM129 0v254h631v1190h323v-1444h-954zM248 -389q70 0 100 -8q-31 22 -31 75q0 87 76 144q85 65 238 65q78 0 127 -12l-29 -160l-36 5q-38 6 -70 6q-89 0 -89 -56q0 -59 127 -59h129v-164h-542v164z" />
    <glyph glyph-name="uniFEFA" unicode="&#xfee0;&#xfe88;" horiz-adv-x="1243" arabic-form="final" 
d="M129 254h631v1190h323v-1190h193v-254h-1147v254zM647 389h-330l-272 1028l324 45zM248 -389q70 0 100 -8q-31 22 -31 75q0 87 76 144q85 65 238 65q78 0 127 -12l-29 -160l-36 5q-38 6 -70 6q-89 0 -89 -56q0 -59 127 -59h129v-164h-542v164z" />
    <glyph glyph-name="uniFEFB" unicode="&#xfedf;&#xfe8e;" horiz-adv-x="1243" arabic-form="isolated" 
d="M647 389h-330l-272 1028l324 45zM129 0v254h631v1190h323v-1444h-954z" />
    <glyph glyph-name="uniFEFC" unicode="&#xfee0;&#xfe8e;" horiz-adv-x="1243" arabic-form="final" 
d="M129 0v254h631v1190h323v-1190h193v-254h-1147zM647 389h-330l-272 1028l324 45z" />
    <glyph glyph-name="uniFE8B_uniFEE4.liga" unicode="&#xfe8b;&#xfee4;" horiz-adv-x="2045" 
d="M1419 1288q59 0 96 -10q-26 20 -26 70q0 104 73 169q84 76 246 76q96 0 127 -10l-27 -178l-34 4q-37 4 -70 4q-88 0 -88 -57q0 -68 131 -68h119v-180h-547v180zM900 479q0 258 -184 258q-96 0 -152 -68q-53 -65 -53 -167q0 -248 264 -248h125v225zM775 0q-318 0 -448 137
q-72 -137 -336 -137h-31v254q231 0 231 242q0 207 136 344q149 151 409 151q244 0 367 -133q112 -123 112 -344v-260h351v709h326v-963h-1117z" />
    <glyph glyph-name="uniFE8B_uniFEF0.liga" unicode="&#xfe8b;&#xfef0;" horiz-adv-x="2756" 
d="M2129 1288q59 0 96 -10q-26 20 -26 70q0 104 73 169q84 76 246 76q96 0 127 -10l-27 -178l-34 4q-37 4 -70 4q-88 0 -88 -57q0 -68 131 -68h119v-180h-547v180zM1615 0v504q0 132 -39 182q-40 51 -150 51q-55 0 -108 -10v-727h-459q-776 0 -776 614q0 155 47 308l346 55
q-65 -148 -65 -330q0 -208 107 -299q111 -94 374 -94h115v698q198 39 438 39q264 0 380 -123q101 -109 101 -333v-281h350v709h326v-963h-987z" />
    <glyph glyph-name="uniFE8B_uniFEF2.liga" unicode="&#xfe8b;&#xfef2;" horiz-adv-x="2756" 
d="M1089 -419q-45 -46 -109 -46q-66 0 -110 46q-44 45 -44 112q0 65 44 111q45 46 110 46q64 0 109 -46t45 -111q0 -66 -45 -112zM725 -419q-45 -46 -110 -46q-64 0 -109 46q-44 46 -44 112q0 65 44 111q45 46 109 46q65 0 110 -46q44 -46 44 -111q0 -66 -44 -112z
M2129 1288q59 0 96 -10q-26 20 -26 70q0 104 73 169q84 76 246 76q96 0 127 -10l-27 -178l-34 4q-37 4 -70 4q-88 0 -88 -57q0 -68 131 -68h119v-180h-547v180zM1615 0v504q0 132 -39 182q-40 51 -150 51q-55 0 -108 -10v-727h-459q-776 0 -776 614q0 155 47 308l346 55
q-65 -148 -65 -330q0 -208 107 -299q111 -94 374 -94h115v698q198 39 438 39q264 0 380 -123q101 -109 101 -333v-281h350v709h326v-963h-987z" />
    <glyph glyph-name="uniFE91_uniFEE4.liga" unicode="&#xfe91;&#xfee4;" horiz-adv-x="2054" 
d="M1466 -421q-47 47 -47 114t47 113q46 47 113 47t114 -47q47 -46 47 -113q0 -68 -47 -114t-114 -46t-113 46zM900 479q0 258 -184 258q-96 0 -152 -68q-53 -65 -53 -167q0 -248 264 -248h125v225zM775 0q-318 0 -448 137q-72 -137 -336 -137h-31v254q231 0 231 242
q0 207 136 344q149 151 409 151q244 0 367 -133q112 -123 112 -344v-260h361v709h326v-963h-1127z" />
    <glyph glyph-name="uniFE92_uniFEE6.liga" unicode="&#xfe92;&#xfee6;" horiz-adv-x="2076" 
d="M483 715q-47 47 -47 114q0 66 47 113t113 47q68 0 114 -46q48 -46 48 -114q0 -67 -48 -114q-47 -47 -114 -47q-66 0 -113 47zM1496 -421q-47 47 -47 114t47 113q46 47 113 47t114 -47q47 -46 47 -113q0 -68 -47 -114t-114 -46t-113 46zM1202 0q-74 -471 -592 -471
q-559 0 -559 590q0 173 47 352l336 59q-59 -196 -59 -380q0 -367 260 -367q130 0 190 79q66 87 66 290v811h323v-709h392v709h326v-709h184v-254h-914z" />
    <glyph glyph-name="uniFE91_uniFEF0.liga" unicode="&#xfe91;&#xfef0;" horiz-adv-x="2752" 
d="M2166 -421q-47 47 -47 114t47 113q46 47 113 47t114 -47q47 -46 47 -113q0 -68 -47 -114t-114 -46t-113 46zM1615 0v504q0 132 -39 182q-40 51 -150 51q-55 0 -108 -10v-727h-459q-776 0 -776 614q0 155 47 308l346 55q-65 -148 -65 -330q0 -208 107 -299
q111 -94 374 -94h115v698q198 39 438 39q264 0 380 -123q101 -109 101 -333v-281h350v709h326v-963h-987z" />
    <glyph glyph-name="uniFE91_uniFEF2.liga" unicode="&#xfe91;&#xfef2;" horiz-adv-x="2752" 
d="M1089 -419q-45 -46 -109 -46q-66 0 -110 46q-44 45 -44 112q0 65 44 111q45 46 110 46q64 0 109 -46t45 -111q0 -66 -45 -112zM725 -419q-45 -46 -110 -46q-64 0 -109 46q-44 46 -44 112q0 65 44 111q45 46 109 46q65 0 110 -46q44 -46 44 -111q0 -66 -44 -112z
M2166 -421q-47 47 -47 114t47 113q46 47 113 47t114 -47q47 -46 47 -113q0 -68 -47 -114t-114 -46t-113 46zM1615 0v504q0 132 -39 182q-40 51 -150 51q-55 0 -108 -10v-727h-459q-776 0 -776 614q0 155 47 308l346 55q-65 -148 -65 -330q0 -208 107 -299q111 -94 374 -94
h115v698q198 39 438 39q264 0 380 -123q101 -109 101 -333v-281h350v709h326v-963h-987z" />
    <glyph glyph-name="uniFE97_uniFEE4.liga" unicode="&#xfe97;&#xfee4;" horiz-adv-x="2050" 
d="M900 479q0 258 -184 258q-96 0 -152 -68q-53 -65 -53 -167q0 -248 264 -248h125v225zM775 0q-318 0 -448 137q-72 -137 -336 -137h-31v254q231 0 231 242q0 207 136 344q149 151 409 151q244 0 367 -133q112 -123 112 -344v-260h361v709h326v-963h-1127zM1408 1143
q-45 46 -45 112q0 65 45 112q45 46 109 46q65 0 110 -46q44 -46 44 -112t-44 -112q-44 -47 -110 -47q-64 0 -109 47zM1772 1143q-44 46 -44 112t44 112t110 46q64 0 109 -46q44 -47 44 -112q0 -66 -44 -112q-45 -47 -109 -47q-66 0 -110 47z" />
    <glyph glyph-name="uniFE98_uniFEE6.liga" unicode="&#xfe98;&#xfee6;" horiz-adv-x="2080" 
d="M483 715q-47 47 -47 114q0 66 47 113t113 47q68 0 114 -46q48 -46 48 -114q0 -67 -48 -114q-47 -47 -114 -47q-66 0 -113 47zM1438 1143q-45 46 -45 112q0 65 45 112q45 46 109 46q65 0 110 -46q44 -46 44 -112t-44 -112q-44 -47 -110 -47q-64 0 -109 47zM1802 1143
q-44 46 -44 112t44 112t110 46q64 0 109 -46q44 -47 44 -112q0 -66 -44 -112q-45 -47 -109 -47q-66 0 -110 47zM1202 0q-74 -471 -592 -471q-559 0 -559 590q0 173 47 352l336 59q-59 -196 -59 -380q0 -367 260 -367q130 0 190 79q66 87 66 290v811h323v-709h392v709h326
v-709h184v-254h-914z" />
    <glyph glyph-name="uniFE97_uniFEF0.liga" unicode="&#xfe97;&#xfef0;" horiz-adv-x="2756" 
d="M2108 1143q-45 46 -45 112q0 65 45 112q45 46 109 46q65 0 110 -46q44 -46 44 -112t-44 -112q-44 -47 -110 -47q-64 0 -109 47zM2472 1143q-44 46 -44 112t44 112t110 46q64 0 109 -46q44 -47 44 -112q0 -66 -44 -112q-45 -47 -109 -47q-66 0 -110 47zM1615 0v504
q0 132 -39 182q-40 51 -150 51q-55 0 -108 -10v-727h-459q-776 0 -776 614q0 155 47 308l346 55q-65 -148 -65 -330q0 -208 107 -299q111 -94 374 -94h115v698q198 39 438 39q264 0 380 -123q101 -109 101 -333v-281h350v709h326v-963h-987z" />
    <glyph glyph-name="uniFE97_uniFEF2.liga" unicode="&#xfe97;&#xfef2;" horiz-adv-x="2756" 
d="M1089 -419q-45 -46 -109 -46q-66 0 -110 46q-44 45 -44 112q0 65 44 111q45 46 110 46q64 0 109 -46t45 -111q0 -66 -45 -112zM2108 1143q-45 46 -45 112q0 65 45 112q45 46 109 46q65 0 110 -46q44 -46 44 -112t-44 -112q-44 -47 -110 -47q-64 0 -109 47zM2472 1143
q-44 46 -44 112t44 112t110 46q64 0 109 -46q44 -47 44 -112q0 -66 -44 -112q-45 -47 -109 -47q-66 0 -110 47zM1615 0v504q0 132 -39 182q-40 51 -150 51q-55 0 -108 -10v-727h-459q-776 0 -776 614q0 155 47 308l346 55q-65 -148 -65 -330q0 -208 107 -299
q111 -94 374 -94h115v698q198 39 438 39q264 0 380 -123q101 -109 101 -333v-281h350v709h326v-963h-987zM725 -419q-45 -46 -110 -46q-64 0 -109 46q-44 46 -44 112q0 65 44 111q45 46 109 46q65 0 110 -46q44 -46 44 -111q0 -66 -44 -112z" />
    <glyph glyph-name="uniFE9C_uniFEAE.liga" unicode="&#xfe9c;&#xfeae;" horiz-adv-x="1560" 
d="M1272 1143q-44 46 -44 112t44 112t110 46q64 0 109 -46q44 -47 44 -112q0 -66 -44 -112q-45 -47 -109 -47q-66 0 -110 47zM908 1143q-45 46 -45 112q0 65 45 112q45 46 109 46q65 0 110 -46q44 -46 44 -112t-44 -112q-44 -47 -110 -47q-64 0 -109 47zM1099 1460
q-41 42 -41 103q0 60 41 102q41 43 100 43q60 0 100 -43q40 -42 40 -102q0 -61 -40 -103q-40 -43 -100 -43q-59 0 -100 43zM692 0v-8q0 -508 -527 -508q-77 0 -145 12l23 256q62 -16 139 -16q94 0 138 50q48 57 48 194v983h324v-709h384v709h326v-709h184v-254h-894z" />
    <glyph glyph-name="uniFE9B_uniFEE4.liga" unicode="&#xfe9b;&#xfee4;" horiz-adv-x="2050" 
d="M900 479q0 258 -184 258q-96 0 -152 -68q-53 -65 -53 -167q0 -248 264 -248h125v225zM775 0q-318 0 -448 137q-72 -137 -336 -137h-31v254q231 0 231 242q0 207 136 344q149 151 409 151q244 0 367 -133q112 -123 112 -344v-260h361v709h326v-963h-1127zM1408 1143
q-45 46 -45 112q0 65 45 112q45 46 109 46q65 0 110 -46q44 -46 44 -112t-44 -112q-44 -47 -110 -47q-64 0 -109 47zM1772 1143q-44 46 -44 112t44 112t110 46q64 0 109 -46q44 -47 44 -112q0 -66 -44 -112q-45 -47 -109 -47q-66 0 -110 47zM1599 1460q-41 42 -41 103
q0 60 41 102q41 43 100 43q60 0 100 -43q40 -42 40 -102q0 -61 -40 -103q-40 -43 -100 -43q-59 0 -100 43z" />
    <glyph glyph-name="uniFE9C_uniFEE6.liga" unicode="&#xfe9c;&#xfee6;" horiz-adv-x="2080" 
d="M483 715q-47 47 -47 114q0 66 47 113t113 47q68 0 114 -46q48 -46 48 -114q0 -67 -48 -114q-47 -47 -114 -47q-66 0 -113 47zM1629 1460q-41 42 -41 103q0 60 41 102q41 43 100 43q60 0 100 -43q40 -42 40 -102q0 -61 -40 -103q-40 -43 -100 -43q-59 0 -100 43z
M1438 1143q-45 46 -45 112q0 65 45 112q45 46 109 46q65 0 110 -46q44 -46 44 -112t-44 -112q-44 -47 -110 -47q-64 0 -109 47zM1802 1143q-44 46 -44 112t44 112t110 46q64 0 109 -46q44 -47 44 -112q0 -66 -44 -112q-45 -47 -109 -47q-66 0 -110 47zM1202 0
q-74 -471 -592 -471q-559 0 -559 590q0 173 47 352l336 59q-59 -196 -59 -380q0 -367 260 -367q130 0 190 79q66 87 66 290v811h323v-709h392v709h326v-709h184v-254h-914z" />
    <glyph glyph-name="uniFE9B_uniFEF0.liga" unicode="&#xfe9b;&#xfef0;" horiz-adv-x="2756" 
d="M2108 1143q-45 46 -45 112q0 65 45 112q45 46 109 46q65 0 110 -46q44 -46 44 -112t-44 -112q-44 -47 -110 -47q-64 0 -109 47zM2472 1143q-44 46 -44 112t44 112t110 46q64 0 109 -46q44 -47 44 -112q0 -66 -44 -112q-45 -47 -109 -47q-66 0 -110 47zM2299 1460
q-41 42 -41 103q0 60 41 102q41 43 100 43q60 0 100 -43q40 -42 40 -102q0 -61 -40 -103q-40 -43 -100 -43q-59 0 -100 43zM1615 0v504q0 132 -39 182q-40 51 -150 51q-55 0 -108 -10v-727h-459q-776 0 -776 614q0 155 47 308l346 55q-65 -148 -65 -330q0 -208 107 -299
q111 -94 374 -94h115v698q198 39 438 39q264 0 380 -123q101 -109 101 -333v-281h350v709h326v-963h-987z" />
    <glyph glyph-name="uniFE9B_uniFEF2.liga" unicode="&#xfe9b;&#xfef2;" horiz-adv-x="2756" 
d="M1089 -419q-45 -46 -109 -46q-66 0 -110 46q-44 45 -44 112q0 65 44 111q45 46 110 46q64 0 109 -46t45 -111q0 -66 -45 -112zM2108 1143q-45 46 -45 112q0 65 45 112q45 46 109 46q65 0 110 -46q44 -46 44 -112t-44 -112q-44 -47 -110 -47q-64 0 -109 47zM2472 1143
q-44 46 -44 112t44 112t110 46q64 0 109 -46q44 -47 44 -112q0 -66 -44 -112q-45 -47 -109 -47q-66 0 -110 47zM2299 1460q-41 42 -41 103q0 60 41 102q41 43 100 43q60 0 100 -43q40 -42 40 -102q0 -61 -40 -103q-40 -43 -100 -43q-59 0 -100 43zM1615 0v504q0 132 -39 182
q-40 51 -150 51q-55 0 -108 -10v-727h-459q-776 0 -776 614q0 155 47 308l346 55q-65 -148 -65 -330q0 -208 107 -299q111 -94 374 -94h115v698q198 39 438 39q264 0 380 -123q101 -109 101 -333v-281h350v709h326v-963h-987zM725 -419q-45 -46 -110 -46q-64 0 -109 46
q-44 46 -44 112q0 65 44 111q45 46 109 46q65 0 110 -46q44 -46 44 -111q0 -66 -44 -112z" />
    <glyph glyph-name="uniFEDB_uniFEF0.liga" unicode="&#xfedb;&#xfef0;" horiz-adv-x="3051" 
d="M1615 0v504q0 132 -39 182q-40 51 -150 51q-55 0 -108 -10v-727h-459q-776 0 -776 614q0 155 47 308l346 55q-65 -148 -65 -330q0 -208 107 -299q111 -94 374 -94h115v698q198 39 438 39q264 0 380 -123q101 -109 101 -333v-281h647q-22 407 -475 500v235l832 522v-321
l-463 -275q426 -198 426 -757v-158h-1278z" />
    <glyph glyph-name="uniFEDC_uniFEF0.liga" unicode="&#xfedc;&#xfef0;" horiz-adv-x="3021" 
d="M1615 0v504q0 132 -39 182q-40 51 -150 51q-55 0 -108 -10v-727h-459q-776 0 -776 614q0 155 47 308l346 55q-65 -148 -65 -330q0 -208 107 -299q111 -94 374 -94h115v698q198 39 438 39q264 0 380 -123q101 -109 101 -333v-281h657q-22 407 -475 500v235l832 522v-321
l-463 -275q389 -184 422 -661h149v-254h-1433z" />
    <glyph glyph-name="uniFEDB_uniFEF2.liga" unicode="&#xfedb;&#xfef2;" horiz-adv-x="3051" 
d="M1089 -419q-45 -46 -109 -46q-66 0 -110 46q-44 45 -44 112q0 65 44 111q45 46 110 46q64 0 109 -46t45 -111q0 -66 -45 -112zM725 -419q-45 -46 -110 -46q-64 0 -109 46q-44 46 -44 112q0 65 44 111q45 46 109 46q65 0 110 -46q44 -46 44 -111q0 -66 -44 -112zM1615 0
v504q0 132 -39 182q-40 51 -150 51q-55 0 -108 -10v-727h-459q-776 0 -776 614q0 155 47 308l346 55q-65 -148 -65 -330q0 -208 107 -299q111 -94 374 -94h115v698q198 39 438 39q264 0 380 -123q101 -109 101 -333v-281h647q-22 407 -475 500v235l832 522v-321l-463 -275
q426 -198 426 -757v-158h-1278z" />
    <glyph glyph-name="uniFEDC_uniFEF2.liga" unicode="&#xfedc;&#xfef2;" horiz-adv-x="3021" 
d="M1089 -419q-45 -46 -109 -46q-66 0 -110 46q-44 45 -44 112q0 65 44 111q45 46 110 46q64 0 109 -46t45 -111q0 -66 -45 -112zM725 -419q-45 -46 -110 -46q-64 0 -109 46q-44 46 -44 112q0 65 44 111q45 46 109 46q65 0 110 -46q44 -46 44 -111q0 -66 -44 -112zM1615 0
v504q0 132 -39 182q-40 51 -150 51q-55 0 -108 -10v-727h-459q-776 0 -776 614q0 155 47 308l346 55q-65 -148 -65 -330q0 -208 107 -299q111 -94 374 -94h115v698q198 39 438 39q264 0 380 -123q101 -109 101 -333v-281h657q-22 407 -475 500v235l832 522v-321l-463 -275
q389 -184 422 -661h149v-254h-1433z" />
    <glyph glyph-name="uniFEDF_uniFB51.rlig" unicode="&#xfedf;&#xfb51;" horiz-adv-x="1284" 
d="M687 389h-329l-191 680h332zM169 0v254h631v1143h324v-1397h-955zM474 1288v31q0 121 -64 121q-95 0 -135 -152h199zM39 1288h79q89 289 308 289q89 0 141 -62q53 -65 53 -180v-188h-581v141z" />
    <glyph glyph-name="uniFEE0_uniFB51.rlig" unicode="&#xfee0;&#xfb51;" horiz-adv-x="1284" 
d="M169 0v254h631v1143h324v-1143h192v-254h-1147zM687 389h-329l-191 680h332zM474 1288v31q0 121 -64 121q-95 0 -135 -152h199zM39 1288h79q89 289 308 289q89 0 141 -62q53 -65 53 -180v-188h-581v141z" />
    <glyph glyph-name="uniFEDF_uniFEE2.liga" unicode="&#xfedf;&#xfee2;" horiz-adv-x="2357" 
d="M1247 479q0 258 -184 258q-94 0 -150 -68q-53 -65 -53 -167q0 -248 262 -248h125v225zM1091 0q-490 0 -546 375h-35q-76 0 -96 -50q-21 -51 2 -188l106 -669h-313l-103 649q-37 237 56 368q103 144 354 144h45q44 163 172 259q139 103 350 103q244 0 367 -133
q113 -123 113 -344v-260h300v1190h326v-1444h-1098z" />
    <glyph glyph-name="uniFEE4_uniFE8E.liga" unicode="&#xfee4;&#xfe8e;" horiz-adv-x="1980" 
d="M1550 479q0 258 -184 258q-96 0 -152 -68q-53 -65 -53 -167q0 -248 264 -248h125v225zM159 0v1444h324v-1190h127q231 0 231 242q0 207 136 344q149 151 409 151q244 0 367 -133q112 -123 112 -344v-260h152v-254h-592q-318 0 -448 137q-67 -128 -302 -136v-1h-516z" />
    <glyph glyph-name="uniFEE4_uniFE82.liga" unicode="&#xfee4;&#xfe82;" horiz-adv-x="1980" 
d="M1550 479q0 258 -184 258q-96 0 -152 -68q-53 -65 -53 -167q0 -248 264 -248h125v225zM-40 1694l238 174q75 -80 192 -80q116 0 211 82v-228q-91 -77 -225 -77q-108 0 -183 65l-127 -88zM161 0v1444h323v-1190h126q231 0 231 242q0 207 136 344q149 151 409 151
q244 0 367 -133q112 -123 112 -344v-260h152v-254h-592q-318 0 -448 137q-67 -127 -300 -136v-1h-516z" />
    <glyph glyph-name="uniFEE4_uniFE84.liga" unicode="&#xfee4;&#xfe84;" horiz-adv-x="1998" 
d="M1560 479q0 258 -184 258q-96 0 -152 -68q-53 -65 -53 -167q0 -248 264 -248h125v225zM34 1653q64 0 109 -11q-37 25 -37 84q0 85 73 145q86 71 246 71q38 0 84 -7l43 -6l-29 -160l-34 5q-37 4 -72 4q-94 0 -94 -60q0 -65 135 -65h125v-164h-549v164zM159 0v1382h324
v-1128h137q231 0 231 242q0 207 136 344q149 151 409 151q244 0 367 -133q112 -123 112 -344v-260h152v-254h-592q-318 0 -448 137q-69 -131 -312 -137h-516z" />
    <glyph glyph-name="uniFEE4_uniFE88.liga" unicode="&#xfee4;&#xfe88;" horiz-adv-x="1993" 
d="M6 -389q70 0 100 -8q-30 22 -30 75q0 87 75 144q85 65 238 65q78 0 127 -12l-29 -160l-36 5q-38 6 -70 6q-88 0 -88 -56q0 -59 127 -59h129v-164h-543v164zM1560 479q0 258 -184 258q-96 0 -152 -68q-53 -65 -53 -167q0 -248 264 -248h125v225zM160 0v1444h323v-1190h137
q231 0 231 242q0 207 136 344q149 151 409 151q244 0 367 -133q112 -123 112 -344v-260h152v-254h-592q-318 0 -448 137q-69 -130 -311 -137h-516z" />
    <glyph glyph-name="uniFEE8_uniFEAE.liga" unicode="&#xfee8;&#xfeae;" horiz-adv-x="1555" 
d="M692 0v-8q0 -508 -527 -508q-77 0 -145 12l23 256q62 -16 139 -16q94 0 138 50q48 57 48 194v983h324v-709h384v709h326v-709h184v-254h-894zM1125 1149q-46 47 -46 115q0 66 46 113q47 46 113 46q68 0 115 -46t47 -113q0 -68 -47 -115t-115 -47q-66 0 -113 47z" />
    <glyph glyph-name="uniFEE7_uniFEE4.liga" unicode="&#xfee7;&#xfee4;" horiz-adv-x="2050" 
d="M900 479q0 258 -184 258q-96 0 -152 -68q-53 -65 -53 -167q0 -248 264 -248h125v225zM1615 1149q-46 47 -46 115q0 66 46 113q47 46 113 46q68 0 115 -46t47 -113q0 -68 -47 -115t-115 -47q-66 0 -113 47zM775 0q-318 0 -448 137q-72 -137 -336 -137h-31v254
q231 0 231 242q0 207 136 344q149 151 409 151q244 0 367 -133q112 -123 112 -344v-260h351v709h326v-963h-1117z" />
    <glyph glyph-name="uniFEE7_uniFEF0.liga" unicode="&#xfee7;&#xfef0;" horiz-adv-x="2752" 
d="M2335 1149q-46 47 -46 115q0 66 46 113q47 46 113 46q68 0 115 -46t47 -113q0 -68 -47 -115t-115 -47q-66 0 -113 47zM1615 0v504q0 132 -39 182q-40 51 -150 51q-55 0 -108 -10v-727h-459q-776 0 -776 614q0 155 47 308l346 55q-65 -148 -65 -330q0 -208 107 -299
q111 -94 374 -94h115v698q198 39 438 39q264 0 380 -123q101 -109 101 -333v-281h360v709h326v-963h-997z" />
    <glyph glyph-name="uniFEE7_uniFEF2.liga" unicode="&#xfee7;&#xfef2;" horiz-adv-x="2752" 
d="M1089 -419q-45 -46 -109 -46q-66 0 -110 46q-44 45 -44 112q0 65 44 111q45 46 110 46q64 0 109 -46t45 -111q0 -66 -45 -112zM725 -419q-45 -46 -110 -46q-64 0 -109 46q-44 46 -44 112q0 65 44 111q45 46 109 46q65 0 110 -46q44 -46 44 -111q0 -66 -44 -112z
M2335 1149q-46 47 -46 115q0 66 46 113q47 46 113 46q68 0 115 -46t47 -113q0 -68 -47 -115t-115 -47q-66 0 -113 47zM1615 0v504q0 132 -39 182q-40 51 -150 51q-55 0 -108 -10v-727h-459q-776 0 -776 614q0 155 47 308l346 55q-65 -148 -65 -330q0 -208 107 -299
q111 -94 374 -94h115v698q198 39 438 39q264 0 380 -123q101 -109 101 -333v-281h360v709h326v-963h-997z" />
    <glyph glyph-name="uniFEF4_uniFEAE.liga" unicode="&#xfef4;&#xfeae;" horiz-adv-x="1620" 
d="M692 0v-8q0 -508 -527 -508q-77 0 -145 12l23 256q62 -16 139 -16q94 0 138 50q48 57 48 194v983h324v-709h384v709h326v-709h256v-254h-966zM1083 -419q-44 -46 -109 -46q-64 0 -109 46t-45 112q0 65 45 111t109 46t109 -46t45 -111q0 -66 -45 -112zM1448 -419
q-45 -46 -109 -46q-66 0 -110 46q-44 45 -44 112q0 65 44 111t110 46q64 0 109 -46q44 -46 44 -111q0 -66 -44 -112z" />
    <glyph glyph-name="uniFEF3_uniFEE4.liga" unicode="&#xfef3;&#xfee4;" horiz-adv-x="2136" 
d="M1938 -419q-45 -46 -109 -46q-66 0 -110 46q-44 45 -44 112q0 65 44 111t110 46q64 0 109 -46q44 -46 44 -111q0 -66 -44 -112zM1573 -419q-44 -46 -109 -46q-64 0 -109 46t-45 112q0 65 45 111t109 46t109 -46t45 -111q0 -66 -45 -112zM900 479q0 258 -184 258
q-96 0 -152 -68q-53 -65 -53 -167q0 -248 264 -248h125v225zM775 0q-318 0 -448 137q-72 -137 -336 -137h-31v254q231 0 231 242q0 207 136 344q149 151 409 151q244 0 367 -133q112 -123 112 -344v-260h444v709h323v-963h-1207z" />
    <glyph glyph-name="uniFEF4_uniFEE6.liga" unicode="&#xfef4;&#xfee6;" horiz-adv-x="2158" 
d="M483 715q-47 47 -47 114q0 66 47 113t113 47q68 0 114 -46q48 -46 48 -114q0 -67 -48 -114q-47 -47 -114 -47q-66 0 -113 47zM1613 -419q-44 -46 -109 -46q-64 0 -109 46t-45 112q0 65 45 111t109 46t109 -46t45 -111q0 -66 -45 -112zM1978 -419q-45 -46 -109 -46
q-66 0 -110 46q-44 45 -44 112q0 65 44 111t110 46q64 0 109 -46q44 -46 44 -111q0 -66 -44 -112zM1202 0q-74 -471 -592 -471q-559 0 -559 590q0 173 47 352l336 59q-59 -196 -59 -380q0 -367 260 -367q130 0 190 79q66 87 66 290v811h323v-709h392v709h326v-709h256v-254
h-986z" />
    <glyph glyph-name="T_h.liga" unicode="Th" horiz-adv-x="2041" 
d="M28 1382h1273v-295q0 -124 -16 -208h2q100 161 321 161q302 0 302 -323v-717h-312v647q0 131 -94 131q-82 0 -143 -87q-60 -86 -60 -199v-492h-311v1110h-313v-1110h-317v1110h-332v272z" />
    <glyph glyph-name="f_b.liga" unicode="fb" horiz-adv-x="1833" 
d="M1282 780q-80 0 -131 -81q-50 -80 -50 -203v-256q43 -13 109 -13q211 0 211 305q0 248 -139 248zM790 1247q-48 10 -119 10q-186 0 -186 -161v-78h190v-240h-190v-778h-311v778h-156v240h156v86q0 409 524 409q168 0 407 -38v-340h-4v-41q0 -110 -14 -203l2 -2
q81 151 289 151q180 0 278 -128q95 -124 95 -349q0 -259 -145 -418q-152 -168 -419 -168q-208 0 -397 52v1218z" />
    <glyph glyph-name="f_f_b.liga" unicode="ffb" horiz-adv-x="2453" 
d="M794 1106q0 80 15 145q-42 4 -82 4q-242 0 -242 -192v-45h309v88zM1902 780q-80 0 -131 -81q-50 -80 -50 -203v-256q43 -13 109 -13q211 0 211 305q0 248 -139 248zM1410 1247q-26 5 -109 10h-10q-186 0 -186 -161v-78h209v-240h-209v-778h-313v778h-307v-778h-311v778
h-156v240h156v31q0 464 520 464q152 0 311 -31q85 31 206 31q26 0 50 -1q28 1 57 1q168 0 407 -38v-366h-4v-15q0 -110 -14 -203l2 -2q81 151 289 151q180 0 278 -128q95 -124 95 -349q0 -259 -145 -418q-152 -168 -419 -168q-208 0 -397 52v1218z" />
    <glyph glyph-name="f_f.liga" unicode="ff" horiz-adv-x="1356" 
d="M809 1251q-42 4 -82 4q-242 0 -242 -192v-45h309v88q0 80 15 145zM792 0v778h-307v-778h-311v778h-156v240h156v31q0 464 520 464q152 0 311 -31q85 31 206 31q93 0 164 -16l-20 -254q-55 19 -113 19q-137 0 -137 -154v-90h209v-240h-209v-778h-313z" />
    <glyph glyph-name="f_h.liga" unicode="fh" horiz-adv-x="1842" 
d="M790 1247q-48 10 -119 10q-186 0 -186 -161v-78h190v-240h-190v-778h-311v778h-156v240h156v86q0 409 524 409q168 0 407 -38v-470h-6q-4 -71 -14 -126h2q100 161 321 161q302 0 302 -323v-717h-312v647q0 131 -94 131q-82 0 -143 -87q-60 -86 -60 -199v-492h-311v1247z
" />
    <glyph glyph-name="f_f_h.liga" unicode="ffh" horiz-adv-x="2466" 
d="M794 1106q0 80 15 145q-42 4 -82 4q-242 0 -242 -192v-45h309v88zM1410 1247q-26 5 -109 10h-10q-186 0 -186 -161v-78h209v-240h-209v-778h-313v778h-307v-778h-311v778h-156v240h156v31q0 464 520 464q152 0 311 -31q85 31 206 31q26 0 50 -1q28 1 57 1q168 0 407 -38
v-370h-4v-18q0 -124 -16 -208h2q100 161 321 161q302 0 302 -323v-717h-312v647q0 131 -94 131q-82 0 -143 -87q-60 -86 -60 -199v-492h-311v1247z" />
    <glyph glyph-name="f_f_i.liga" unicode="ffi" horiz-adv-x="1859" 
d="M485 778v-778h-311v778h-156v240h156v31q0 464 520 464q152 0 311 -31q85 31 206 31q26 0 50 -1q26 1 53 1q164 0 336 -36l-51 -260q-130 37 -284 37q-210 -12 -210 -191v-45h620v-1018h-313v778h-307v-778h-313v778h-307zM794 1106q0 80 15 145q-42 4 -82 4
q-242 0 -242 -192v-45h309v88z" />
    <glyph glyph-name="f_j.liga" unicode="fj" horiz-adv-x="1226" 
d="M792 778h-307v-778h-311v778h-156v240h156v31q0 464 520 464q164 0 336 -36l-51 -260q-135 38 -252 38q-242 0 -242 -192v-45h623v-1069q0 -449 -424 -449q-75 0 -147 21l18 264q58 -23 117 -23q125 0 125 152z" />
    <glyph glyph-name="f_f_j.liga" unicode="ffj" horiz-adv-x="1859" 
d="M794 1106q0 80 15 145q-42 4 -82 4q-242 0 -242 -192v-45h309v88zM1725 1018l1 -1039q-8 -479 -432 -479q-75 0 -147 21l18 264q58 -23 117 -23q125 0 125 152v864h-302v-778h-313v778h-307v-778h-311v778h-156v240h156v31q0 464 520 464q152 0 311 -31q85 31 206 31
q26 0 50 -1q26 1 53 1q164 0 336 -36l-51 -260q-130 37 -284 37q-210 -12 -210 -191v-45h620z" />
    <glyph glyph-name="f_k.liga" unicode="fk" horiz-adv-x="1768" 
d="M1105 482v-482h-313v1247q-48 10 -121 10q-186 0 -186 -161v-78h190v-240h-190v-778h-311v778h-156v240h156v86q0 409 524 409q168 0 407 -38v-861l254 404h383l-336 -467l361 -551h-389z" />
    <glyph glyph-name="f_f_k.liga" unicode="ffk" horiz-adv-x="2390" 
d="M794 1106q0 80 15 145q-42 4 -82 4q-242 0 -242 -192v-45h309v88zM1725 482v-482h-313v1247q-25 5 -111 10h-10q-186 0 -186 -161v-78h209v-240h-209v-778h-313v778h-307v-778h-311v778h-156v240h156v31q0 464 520 464q152 0 311 -31q85 31 206 31q26 0 50 -1q28 1 57 1
q168 0 407 -38v-861l254 404h383l-336 -467l361 -551h-389z" />
    <glyph glyph-name="f_f_l.liga" unicode="ffl" horiz-adv-x="1863" 
d="M485 778v-778h-311v778h-156v240h156v31q0 464 520 464q152 0 311 -31q85 31 206 31q26 0 50 -1q28 1 57 1q168 0 407 -38v-1475h-313v1247q-25 5 -111 10h-10q-186 0 -186 -161v-78h209v-240h-209v-778h-313v778h-307zM794 1106q0 80 15 145q-42 4 -82 4
q-242 0 -242 -192v-45h309v88z" />
    <glyph glyph-name="f_t.liga" unicode="ft" horiz-adv-x="1473" 
d="M485 778v-778h-311v778h-156v240h156v88q0 206 97 305q101 102 320 102q93 0 164 -16l-20 -254q-55 19 -113 19q-137 0 -137 -154v-90h355v301l313 84v-385h219v-240h-219v-401q0 -78 23 -109q23 -30 81 -30q46 0 107 14l18 -244q-116 -31 -231 -31q-177 0 -244 71
q-67 70 -67 257v473h-355z" />
    <glyph glyph-name="f_f_t.liga" unicode="fft" horiz-adv-x="2093" 
d="M809 1251q-42 4 -82 4q-242 0 -242 -192v-45h309v88q0 80 15 145zM1105 778v-778h-313v778h-307v-778h-311v778h-156v240h156v31q0 464 520 464q152 0 311 -31q85 31 206 31q93 0 164 -16l-20 -254q-55 19 -113 19q-137 0 -137 -154v-90h355v301l313 84v-385h219v-240
h-219v-401q0 -78 23 -109q23 -30 81 -30q46 0 107 14l18 -244q-116 -31 -231 -31q-177 0 -244 71q-67 70 -67 257v473h-355z" />
    <glyph glyph-name="uni0647.fina" unicode="&#x647;" horiz-adv-x="1402" arabic-form="final" 
d="M1433 0h-143q-49 0 -168 20v-4q158 -45 158 -223q0 -199 -130 -322q-132 -126 -353 -126q-510 0 -551 655h-197v254h203q59 552 473 815q518 -251 518 -573q0 -180 -125 -252v-4q108 14 164 14h151v-254zM563 0q34 -401 250 -401q68 0 108 49q41 50 41 135
q0 217 -288 217h-111zM563 254h131q238 0 238 188q0 143 -187 260q-154 -154 -182 -448z" />
    <glyph glyph-name="uni0672.fina" unicode="&#x672;" horiz-adv-x="645" 
d="M160 1382h323v-1128h193v-254h-516v1382zM453 1754q-12 71 -64 71q-100 0 -143 -152h366v-141h-616v141h84q94 289 326 289q95 0 150 -62q47 -55 55 -146h-158z" />
    <glyph glyph-name="uni0673.fina" unicode="&#x673;" horiz-adv-x="645" 
d="M160 1382h323v-1128h193v-254h-516v1382zM453 -316q-12 71 -64 71q-100 0 -143 -152h366v-141h-616v141h84q94 289 326 289q95 0 150 -62q47 -55 55 -146h-158z" />
    <glyph glyph-name="uni0675.fina" unicode="&#x675;" horiz-adv-x="1104" 
d="M159 1382h324v-1128h652v-254h-976v1382zM474 1653q64 0 109 -11q-37 25 -37 84q0 85 73 145q86 71 246 71q38 0 84 -7l43 -6l-29 -160l-34 5q-37 4 -72 4q-94 0 -94 -60q0 -65 135 -65h125v-164h-549v164z" />
    <glyph glyph-name="uni0676.fina" unicode="&#x676;" horiz-adv-x="1400" 
d="M92 -489l18 260q149 -31 313 -31q330 0 330 244v16h-131q-553 0 -553 471q0 221 132 362q149 158 425 158q256 0 442 -71v-666h365v-254h-365q-6 -236 -166 -369q-175 -145 -505 -145q-152 0 -305 25zM753 705q-63 32 -158 32t-151 -68q-53 -65 -53 -167q0 -248 264 -248
h98v451zM755 1282q59 0 96 -10q-26 20 -26 69q0 105 73 170q84 76 246 76q96 0 127 -10l-27 -178l-34 4q-37 4 -70 4q-88 0 -88 -57q0 -68 131 -68h119v-180h-547v180z" />
    <glyph glyph-name="uni0677.fina" unicode="&#x677;" horiz-adv-x="1400" 
d="M92 -489l18 260q149 -31 313 -31q330 0 330 244v16h-131q-553 0 -553 471q0 221 132 362q149 158 425 158q256 0 442 -71v-666h365v-254h-365q-6 -236 -166 -369q-175 -145 -505 -145q-152 0 -305 25zM753 705q-63 32 -158 32t-151 -68q-53 -65 -53 -167q0 -248 264 -248
h98v451zM755 1282q59 0 96 -10q-26 20 -26 69q0 105 73 170q84 76 246 76q96 0 127 -10l-27 -178l-34 4q-37 4 -70 4q-88 0 -88 -57q0 -68 131 -68h119v-180h-547v180zM79 1253l179 39q-10 29 -10 71q0 101 72 166q71 63 176 63q101 0 159 -53q52 -49 52 -128
q0 -174 -237 -224l-360 -77zM461 1335q81 16 81 64q0 50 -58 50q-80 0 -80 -80q0 -27 9 -43z" />
    <glyph glyph-name="uni0678.init" unicode="&#x678;" horiz-adv-x="1172" 
d="M549 1288q59 0 96 -10q-26 20 -26 70q0 104 73 169q84 76 246 76q96 0 127 -10l-27 -178l-34 4q-37 4 -70 4q-88 0 -88 -57q0 -68 131 -68h119v-180h-547v180zM0 254h276v709h326v-963h-602v254z" />
    <glyph glyph-name="uni0678.medi" unicode="&#x678;" horiz-adv-x="1203" 
d="M0 254h276v709h326v-709h634v-254h-1236v254zM549 1290q59 0 96 -10q-26 20 -26 70q0 104 73 169q84 76 246 76q96 0 127 -10l-27 -178l-34 4q-37 4 -70 4q-88 0 -88 -57q0 -68 131 -68h119v-180h-547v180z" />
    <glyph glyph-name="uni0678.fina" unicode="&#x678;" horiz-adv-x="2162" 
d="M859 0q-776 0 -776 614q0 155 47 308l346 55q-65 -148 -65 -330q0 -208 107 -299q111 -94 374 -94h115v698q198 39 438 39q264 0 380 -123q101 -109 101 -333v-281h272v-254h-583v504q0 132 -39 182q-40 51 -150 51q-55 0 -108 -10v-727h-459zM1495 1290q59 0 96 -10
q-26 20 -26 70q0 104 73 169q84 76 246 76q96 0 127 -10l-26 -178l-35 4q-37 4 -70 4q-88 0 -88 -57q0 -68 131 -68h119v-180h-547v180z" />
    <glyph glyph-name="uni067C.init" unicode="&#x67c;" horiz-adv-x="827" 
d="M472 1143q-44 46 -44 112t44 112t110 46q64 0 109 -46q44 -47 44 -112q0 -66 -44 -112q-45 -47 -109 -47q-66 0 -110 47zM108 1143q-45 46 -45 112q0 65 45 112q45 46 109 46t109 -46q45 -47 45 -112q0 -66 -45 -112q-45 -47 -109 -47t-109 47zM393 -130q0 130 -116 130
q-60 0 -94 -33q-32 -31 -32 -77q0 -119 171 -119h71v99zM38 0h-38v254h369v709h323v-963h-191q15 -43 15 -99v-253h-232q-272 0 -272 231q0 68 26 121z" />
    <glyph glyph-name="uni067C.medi" unicode="&#x67c;" horiz-adv-x="825" 
d="M472 1143q-44 46 -44 112t44 112t110 46q64 0 109 -46q44 -47 44 -112q0 -66 -44 -112q-45 -47 -109 -47q-66 0 -110 47zM108 1143q-45 46 -45 112q0 65 45 112q45 46 109 46t109 -46q45 -47 45 -112q0 -66 -45 -112q-45 -47 -109 -47t-109 47zM393 -130q0 130 -116 130
q-60 0 -94 -33q-32 -31 -32 -77q0 -119 171 -119h71v99zM38 0h-38v254h276v709h326v-709h256v-254h-357q15 -43 15 -99v-253h-232q-272 0 -272 231q0 68 26 121z" />
    <glyph glyph-name="uni067C.fina" unicode="&#x67c;" horiz-adv-x="1603" 
d="M895 1143q-44 46 -44 112t44 112t110 46q64 0 109 -46q44 -47 44 -112q0 -66 -44 -112q-45 -47 -109 -47q-66 0 -110 47zM531 1143q-45 46 -45 112q0 65 45 112q45 46 109 46t109 -46q45 -47 45 -112q0 -66 -45 -112q-45 -47 -109 -47t-109 47zM953 -130q0 130 -116 130
q-60 0 -94 -33q-32 -31 -32 -77q0 -119 171 -119h71v99zM608 19q-525 90 -525 595q0 155 47 308l346 55q-65 -148 -65 -330q0 -208 107 -299q111 -94 374 -94h231v709h326v-709h184v-254h-572q15 -43 15 -99v-253h-232q-272 0 -272 231q0 81 36 140z" />
    <glyph glyph-name="uni067D.init" unicode="&#x67d;" horiz-adv-x="735" 
d="M0 254h276v709h326v-963h-602v254zM399 1387q60 0 100 -43q40 -42 40 -103q0 -60 -40 -102q-40 -43 -100 -43q-59 0 -100 43q-41 42 -41 102q0 61 41 103q41 43 100 43zM582 1708q64 0 109 -47q44 -46 44 -112q0 -65 -44 -112q-45 -46 -109 -46q-66 0 -110 46t-44 112
t44 112q44 47 110 47zM217 1708q66 0 110 -47q44 -46 44 -112t-44 -112q-45 -46 -110 -46q-64 0 -109 46q-45 47 -45 112q0 66 45 112q45 47 109 47z" />
    <glyph glyph-name="uni067D.medi" unicode="&#x67d;" horiz-adv-x="755" 
d="M0 254h276v709h326v-709h184v-254h-786v254zM582 1708q64 0 109 -47q44 -46 44 -112q0 -65 -44 -112q-45 -46 -109 -46q-66 0 -110 46t-44 112t44 112q44 47 110 47zM217 1708q66 0 110 -47q44 -46 44 -112t-44 -112q-45 -46 -110 -46q-64 0 -109 46q-45 47 -45 112
q0 66 45 112q45 47 109 47zM399 1387q60 0 100 -43q40 -42 40 -103q0 -60 -40 -102q-40 -43 -100 -43q-59 0 -100 43q-41 42 -41 102q0 61 41 103q41 43 100 43z" />
    <glyph glyph-name="uni067D.fina" unicode="&#x67d;" horiz-adv-x="1603" 
d="M859 0q-776 0 -776 614q0 155 47 308l346 55q-65 -148 -65 -330q0 -208 107 -299q111 -94 374 -94h231v709h326v-709h184v-254h-774zM1005 1708q64 0 109 -47q44 -46 44 -112q0 -65 -44 -112q-45 -46 -109 -46q-66 0 -110 46t-44 112t44 112q44 47 110 47zM640 1708
q66 0 110 -47q44 -46 44 -112t-44 -112q-45 -46 -110 -46q-64 0 -109 46q-45 47 -45 112q0 66 45 112q45 47 109 47zM822 1387q60 0 100 -43q40 -42 40 -103q0 -60 -40 -102q-40 -43 -100 -43q-59 0 -100 43q-41 42 -41 102q0 61 41 103q41 43 100 43z" />
    <glyph glyph-name="uni0681.init" unicode="&#x681;" horiz-adv-x="1183" 
d="M0 254h758q6 52 6 121q0 348 -369 348q-132 0 -239 -18v251q123 21 272 21q344 0 504 -150q153 -144 153 -444q0 -174 -34 -383h-1051v254zM213 1263q64 0 109 -11q-37 25 -37 84q0 85 73 145q86 71 246 71q38 0 84 -7l43 -6l-29 -160l-34 5q-37 4 -72 4q-94 0 -94 -60
q0 -65 135 -65h125v-164h-549v164z" />
    <glyph glyph-name="uni0681.medi" unicode="&#x681;" horiz-adv-x="1189" 
d="M0 254h758q6 52 6 121q0 348 -369 348q-132 0 -239 -18v251q123 21 272 21q344 0 504 -150q153 -144 153 -444q0 -39 -4 -129h142v-254h-1223v254zM213 1263q64 0 109 -11q-37 25 -37 84q0 85 73 145q86 71 246 71q38 0 84 -7l43 -6l-29 -160l-34 5q-37 4 -72 4
q-94 0 -94 -60q0 -65 135 -65h125v-164h-549v164z" />
    <glyph glyph-name="uni0681.fina" unicode="&#x681;" horiz-adv-x="1210" 
d="M702 0q-354 0 -354 -199q0 -202 319 -202q153 0 340 34l20 -249q-212 -39 -393 -39q-304 0 -461 119q-147 112 -147 317q0 211 165 336q181 137 519 137h68q6 52 6 121q0 348 -369 348q-132 0 -239 -18v251q122 21 272 21q344 0 504 -150q153 -144 153 -444
q0 -39 -4 -129h142v-254h-541zM233 1263q64 0 109 -11q-37 25 -37 84q0 85 73 145q86 71 246 71q38 0 84 -7l43 -6l-29 -160l-34 5q-37 4 -72 4q-94 0 -94 -60q0 -65 135 -65h125v-164h-549v164z" />
    <glyph glyph-name="uni0682.init" unicode="&#x682;" horiz-adv-x="1183" 
d="M0 254h758q6 52 6 121q0 348 -369 348q-132 0 -239 -18v251q123 21 272 21q344 0 504 -150q153 -144 153 -444q0 -174 -34 -383h-1051v254zM597 1733q46 -45 46 -109q0 -66 -46 -110q-45 -44 -112 -44q-65 0 -111 44t-46 110q0 64 46 109q46 44 111 44q66 0 112 -44z
M597 1368q46 -44 46 -109q0 -64 -46 -109t-112 -45q-65 0 -111 45t-46 109t46 109t111 45q66 0 112 -45z" />
    <glyph glyph-name="uni0682.medi" unicode="&#x682;" horiz-adv-x="1189" 
d="M0 254h758q6 52 6 121q0 348 -369 348q-132 0 -239 -18v251q123 21 272 21q344 0 504 -150q153 -144 153 -444q0 -39 -4 -129h142v-254h-1223v254zM597 1733q46 -45 46 -109q0 -66 -46 -110q-45 -44 -112 -44q-65 0 -111 44t-46 110q0 64 46 109q46 44 111 44
q66 0 112 -44zM597 1368q46 -44 46 -109q0 -64 -46 -109t-112 -45q-65 0 -111 45t-46 109t46 109t111 45q66 0 112 -45z" />
    <glyph glyph-name="uni0682.fina" unicode="&#x682;" horiz-adv-x="1210" 
d="M702 0q-354 0 -354 -199q0 -202 319 -202q153 0 340 34l20 -249q-212 -39 -393 -39q-304 0 -461 119q-147 112 -147 317q0 211 165 336q181 137 519 137h68q6 52 6 121q0 348 -369 348q-132 0 -239 -18v251q122 21 272 21q344 0 504 -150q153 -144 153 -444
q0 -39 -4 -129h142v-254h-541zM617 1733q46 -45 46 -109q0 -66 -46 -110q-45 -44 -112 -44q-65 0 -111 44t-46 110q0 64 46 109q46 44 111 44q66 0 112 -44zM617 1368q46 -44 46 -109q0 -64 -46 -109t-112 -45q-65 0 -111 45t-46 109t46 109t111 45q66 0 112 -45z" />
    <glyph glyph-name="uni0685.init" unicode="&#x685;" horiz-adv-x="1183" 
d="M0 254h758q6 52 6 121q0 348 -369 348q-132 0 -239 -18v251q123 21 272 21q344 0 504 -150q153 -144 153 -444q0 -174 -34 -383h-1051v254zM382 1460q-41 42 -41 103q0 60 41 102q41 43 100 43q60 0 100 -43q40 -42 40 -102q0 -61 -40 -103q-40 -43 -100 -43
q-59 0 -100 43zM555 1143q-44 46 -44 112t44 112t110 46q64 0 109 -46q44 -47 44 -112q0 -66 -44 -112q-45 -47 -109 -47q-66 0 -110 47zM191 1143q-45 46 -45 112q0 65 45 112q45 46 109 46q65 0 110 -46q44 -46 44 -112t-44 -112q-44 -47 -110 -47q-64 0 -109 47z" />
    <glyph glyph-name="uni0685.medi" unicode="&#x685;" horiz-adv-x="1189" 
d="M0 254h758q6 52 6 121q0 348 -369 348q-132 0 -239 -18v251q123 21 272 21q344 0 504 -150q153 -144 153 -444q0 -39 -4 -129h142v-254h-1223v254zM382 1460q-41 42 -41 103q0 60 41 102q41 43 100 43q60 0 100 -43q40 -42 40 -102q0 -61 -40 -103q-40 -43 -100 -43
q-59 0 -100 43zM555 1143q-44 46 -44 112t44 112t110 46q64 0 109 -46q44 -47 44 -112q0 -66 -44 -112q-45 -47 -109 -47q-66 0 -110 47zM191 1143q-45 46 -45 112q0 65 45 112q45 46 109 46q65 0 110 -46q44 -46 44 -112t-44 -112q-44 -47 -110 -47q-64 0 -109 47z" />
    <glyph glyph-name="uni0685.fina" unicode="&#x685;" horiz-adv-x="1210" 
d="M702 0q-354 0 -354 -199q0 -202 319 -202q153 0 340 34l20 -249q-212 -39 -393 -39q-304 0 -461 119q-147 112 -147 317q0 211 165 336q181 137 519 137h68q6 52 6 121q0 348 -369 348q-132 0 -239 -18v251q122 21 272 21q344 0 504 -150q153 -144 153 -444
q0 -39 -4 -129h142v-254h-541zM402 1460q-41 42 -41 103q0 60 41 102q41 43 100 43q60 0 100 -43q40 -42 40 -102q0 -61 -40 -103q-40 -43 -100 -43q-59 0 -100 43zM575 1143q-44 46 -44 112t44 112t110 46q64 0 109 -46q44 -47 44 -112q0 -66 -44 -112q-45 -47 -109 -47
q-66 0 -110 47zM211 1143q-45 46 -45 112q0 65 45 112q45 46 109 46q65 0 110 -46q44 -46 44 -112t-44 -112q-44 -47 -110 -47q-64 0 -109 47z" />
    <glyph glyph-name="uni0689.fina" unicode="&#x689;" horiz-adv-x="1058" 
d="M653 -130q0 130 -116 130q-60 0 -94 -33q-32 -31 -32 -77q0 -119 171 -119h71v99zM298 0h-212v254h575q-25 399 -460 496l75 268q656 -155 699 -764h117v-254h-331q15 -43 15 -99v-253h-232q-272 0 -272 231q0 68 26 121z" />
    <glyph glyph-name="uni068A.fina" unicode="&#x68a;" horiz-adv-x="1058" 
d="M86 254h575q-25 399 -460 496l75 268q656 -155 699 -764h117v-254h-1006v254zM419 -421q-47 47 -47 114t47 113q47 47 113 47q68 0 115 -47q47 -46 47 -113q0 -68 -47 -114t-115 -46q-66 0 -113 46z" />
    <glyph glyph-name="uni068B.fina" unicode="&#x68b;" horiz-adv-x="1058" 
d="M86 254h575q-25 399 -460 496l75 268q656 -155 699 -764h117v-254h-1006v254zM373 1559q0 -51 -13 -115h2q82 133 234 133q211 0 211 -205q0 -115 -84 -183q-85 -69 -236 -69h-274v592h160v-153zM569 1450q-59 0 -115 -59q-55 -58 -81 -144h131q135 0 135 113
q0 90 -70 90zM419 -421q-47 47 -47 114t47 113q47 47 113 47q68 0 115 -47q47 -46 47 -113q0 -68 -47 -114t-115 -46q-66 0 -113 46z" />
    <glyph glyph-name="uni068F.fina" unicode="&#x68f;" horiz-adv-x="1058" 
d="M86 254h575q-25 399 -460 496l75 268q656 -155 699 -764h117v-254h-1006v254zM504 1133q-38 -38 -93 -38q-56 0 -93 38q-38 37 -38 93q0 54 38 92t93 38t93 -37t38 -93q0 -55 -38 -93zM685 1399q-41 -41 -100 -41q-58 0 -98 40q-39 41 -39 101q0 58 39 99q40 40 98 40
q60 0 100 -40q39 -40 39 -99t-39 -100zM334 1399q-41 -41 -99 -41q-59 0 -99 40q-40 41 -40 101q0 58 40 99q40 40 99 40q58 0 99 -40q40 -41 40 -99q0 -59 -40 -100z" />
    <glyph glyph-name="uni0690.fina" unicode="&#x690;" horiz-adv-x="1058" 
d="M86 254h575q-25 399 -460 496l75 268q656 -155 699 -764h117v-254h-1006v254zM686 1134q-41 -41 -100 -41q-58 0 -98 40q-39 41 -39 101q0 58 39 99q40 40 98 40q60 0 100 -40q39 -40 39 -99t-39 -100zM335 1134q-41 -41 -99 -41q-59 0 -99 40q-40 41 -40 101q0 58 40 99
q40 40 99 40q58 0 99 -40q40 -41 40 -99q0 -59 -40 -100zM689 1461q-41 -41 -100 -41q-58 0 -98 40q-39 41 -39 101q0 58 39 99q40 40 98 40q60 0 100 -40q39 -40 39 -99t-39 -100zM338 1461q-41 -41 -99 -41q-59 0 -99 40q-40 41 -40 101q0 58 40 99q40 40 99 40
q58 0 99 -40q40 -41 40 -99q0 -59 -40 -100z" />
    <glyph glyph-name="uni0692.fina" unicode="&#x692;" horiz-adv-x="845" 
d="M20 -504l23 256q62 -16 139 -16q94 0 138 50q48 57 48 194v983h324v-709h186v-254h-186v-8q0 -508 -527 -508q-77 0 -145 12zM528 1099l-313 270l110 135l205 -154l205 154l109 -135z" />
    <glyph glyph-name="uni0693.fina" unicode="&#x693;" horiz-adv-x="845" 
d="M366 -493l-16 -4q-27 -8 -45 -26q-32 -31 -32 -77q0 -119 171 -119h71v99q0 130 -116 130q-18 0 -33 -3zM149 -516q-68 1 -129 12l23 256q62 -16 139 -16q94 0 138 50q48 57 48 194v983h324v-709h186v-254h-186v-8q0 -260 -138 -387q16 -12 29 -26q55 -60 55 -168v-253
h-232q-272 0 -272 231q0 52 15 95z" />
    <glyph glyph-name="uni0694.fina" unicode="&#x694;" horiz-adv-x="845" 
d="M20 -504l23 256q62 -16 139 -16q94 0 138 50q48 57 48 194v983h324v-709h186v-254h-186v-8q0 -508 -527 -508q-77 0 -145 12zM365 -873q-41 42 -41 103q0 60 41 102q41 43 100 43q60 0 100 -43q40 -42 40 -102q0 -61 -40 -103q-40 -43 -100 -43q-59 0 -100 43z" />
    <glyph glyph-name="uni0695.fina" unicode="&#x695;" horiz-adv-x="845" 
d="M20 -504l23 256q62 -16 139 -16q94 0 138 50q48 57 48 194v983h324v-709h186v-254h-186v-8q0 -508 -527 -508q-77 0 -145 12zM438 -1011l-313 270l110 135l205 -154l205 154l109 -135z" />
    <glyph glyph-name="uni0696.fina" unicode="&#x696;" horiz-adv-x="935" 
d="M110 -504l23 256q62 -16 139 -16q94 0 138 50q48 57 48 194v983h324v-709h186v-254h-186v-8q0 -508 -527 -508q-77 0 -145 12zM114 43q-41 42 -41 103q0 60 41 102q41 43 100 43q60 0 100 -43q40 -42 40 -102q0 -61 -40 -103q-40 -43 -100 -43q-59 0 -100 43zM435 -873
q-41 42 -41 103q0 60 41 102q41 43 100 43q60 0 100 -43q40 -42 40 -102q0 -61 -40 -103q-40 -43 -100 -43q-59 0 -100 43z" />
    <glyph glyph-name="uni0697.fina" unicode="&#x697;" horiz-adv-x="845" 
d="M20 -504l23 256q62 -16 139 -16q94 0 138 50q48 57 48 194v983h324v-709h186v-254h-186v-8q0 -508 -527 -508q-77 0 -145 12zM580 1143q-44 46 -44 112t44 112t110 46q64 0 109 -46q44 -47 44 -112q0 -66 -44 -112q-45 -47 -109 -47q-66 0 -110 47zM216 1143
q-44 46 -44 112q0 65 44 112q45 46 109 46q65 0 110 -46q44 -46 44 -112t-44 -112q-44 -47 -110 -47q-64 0 -109 47z" />
    <glyph glyph-name="uni0699.fina" unicode="&#x699;" horiz-adv-x="845" 
d="M20 -504l23 256q62 -16 139 -16q94 0 138 50q48 57 48 194v983h324v-709h186v-254h-186v-8q0 -508 -527 -508q-77 0 -145 12zM766 1134q-41 -41 -100 -41q-58 0 -98 40q-39 41 -39 101q0 58 39 99q40 40 98 40q60 0 100 -40q39 -40 39 -99t-39 -100zM415 1134
q-41 -41 -99 -41q-59 0 -99 40q-40 41 -40 101q0 58 40 99q40 40 99 40q58 0 99 -40q40 -41 40 -99q0 -59 -40 -100zM769 1461q-41 -41 -100 -41q-58 0 -98 40q-39 41 -39 101q0 58 39 99q40 40 98 40q60 0 100 -40q39 -40 39 -99t-39 -100zM418 1461q-41 -41 -99 -41
q-59 0 -99 40q-40 41 -40 101q0 58 40 99q40 40 99 40q58 0 99 -40q40 -41 40 -99q0 -59 -40 -100z" />
    <glyph glyph-name="uni069A.init" unicode="&#x69a;" horiz-adv-x="1878" 
d="M0 254h111q94 0 129 47q36 49 36 191v348h326v-381q0 -127 26 -175q26 -46 95 -46q135 0 135 219v465h309v-506q0 -98 40 -130t165 -32h45q13 120 13 221q0 263 -54 537l316 43q61 -269 61 -561q0 -251 -27 -494h-409q-274 0 -352 127q-74 -143 -306 -143
q-226 0 -280 149q-62 -133 -273 -133h-106v254zM899 1140q-47 47 -47 114t47 113q46 47 113 47t114 -47q47 -46 47 -113q0 -68 -47 -114t-114 -46t-113 46zM899 -421q-47 47 -47 114t47 113q46 47 113 47t114 -47q47 -46 47 -113q0 -68 -47 -114t-114 -46t-113 46z" />
    <glyph glyph-name="uni069A.medi" unicode="&#x69a;" horiz-adv-x="1898" 
d="M0 254h111q94 0 129 47q36 49 36 191v348h326v-381q0 -127 26 -175q26 -46 95 -46q135 0 135 219v465h309v-506q0 -98 40 -130t165 -32h45q13 120 13 221q0 263 -54 537l316 43q61 -269 61 -561q0 -117 -6 -240h180v-254h-610q-274 0 -352 127q-74 -143 -306 -143
q-226 0 -280 149q-62 -133 -273 -133h-106v254zM899 1140q-47 47 -47 114t47 113q46 47 113 47t114 -47q47 -46 47 -113q0 -68 -47 -114t-114 -46t-113 46zM899 -421q-47 47 -47 114t47 113q46 47 113 47t114 -47q47 -46 47 -113q0 -68 -47 -114t-114 -46t-113 46z" />
    <glyph glyph-name="uni069A.fina" unicode="&#x69a;" horiz-adv-x="2500" 
d="M81 119q0 173 47 352l336 59q-59 -196 -59 -380q0 -367 243 -367q232 0 232 367v690h323v-381q0 -126 31 -175q28 -46 96 -46q73 0 103 52q28 50 28 167v465h308v-506q0 -96 41 -129t163 -33h47q11 133 11 221q0 280 -54 537l318 43q61 -284 61 -561q0 -76 -8 -240h182
v-254h-610q-285 0 -352 127q-40 -83 -136 -118q-63 -22 -116 -19q-94 0 -129 45q0 -255 -166 -388q-149 -118 -397 -118q-543 0 -543 590zM1509 1140q-47 47 -47 114t47 113q46 47 113 47t114 -47q47 -46 47 -113q0 -68 -47 -114t-114 -46t-113 46zM1509 -421
q-47 47 -47 114t47 113q46 47 113 47t114 -47q47 -46 47 -113q0 -68 -47 -114t-114 -46t-113 46z" />
    <glyph glyph-name="uni069B.init" unicode="&#x69b;" horiz-adv-x="1878" 
d="M0 254h111q94 0 129 47q36 49 36 191v348h326v-381q0 -127 26 -175q26 -46 95 -46q135 0 135 219v465h309v-506q0 -98 40 -130t165 -32h45q13 120 13 221q0 263 -54 537l316 43q61 -269 61 -561q0 -251 -27 -494h-409q-274 0 -352 127q-74 -143 -306 -143
q-226 0 -280 149q-62 -133 -273 -133h-106v254zM1001 -419q59 0 99 -43q40 -42 40 -103q0 -60 -40 -102q-40 -43 -99 -43q-60 0 -101 43q-40 42 -40 102q0 61 40 103q41 43 101 43zM1183 -98q64 0 109 -47q45 -46 45 -112q0 -65 -45 -112q-45 -46 -109 -46q-65 0 -110 46
q-43 46 -43 112t43 112q45 47 110 47zM819 -98q65 0 109 -47q44 -46 44 -112t-44 -112t-109 -46q-64 0 -109 46q-45 47 -45 112q0 66 45 112q44 47 109 47z" />
    <glyph glyph-name="uni069B.medi" unicode="&#x69b;" horiz-adv-x="1898" 
d="M0 254h111q94 0 129 47q36 49 36 191v348h326v-381q0 -127 26 -175q26 -46 95 -46q135 0 135 219v465h309v-506q0 -98 40 -130t165 -32h45q13 120 13 221q0 263 -54 537l316 43q61 -269 61 -561q0 -117 -6 -240h180v-254h-610q-274 0 -352 127q-74 -143 -306 -143
q-226 0 -280 149q-62 -133 -273 -133h-106v254zM1001 -419q59 0 99 -43q40 -42 40 -103q0 -60 -40 -102q-40 -43 -99 -43q-60 0 -101 43q-40 42 -40 102q0 61 40 103q41 43 101 43zM1183 -98q64 0 109 -47q45 -46 45 -112q0 -65 -45 -112q-45 -46 -109 -46q-65 0 -110 46
q-43 46 -43 112t43 112q45 47 110 47zM819 -98q65 0 109 -47q44 -46 44 -112t-44 -112t-109 -46q-64 0 -109 46q-45 47 -45 112q0 66 45 112q44 47 109 47z" />
    <glyph glyph-name="uni069B.fina" unicode="&#x69b;" horiz-adv-x="2500" 
d="M81 119q0 173 47 352l336 59q-59 -196 -59 -380q0 -367 243 -367q232 0 232 367v690h323v-381q0 -126 31 -175q28 -46 96 -46q73 0 103 52q28 50 28 167v465h308v-506q0 -96 41 -129t163 -33h47q11 133 11 221q0 280 -54 537l318 43q61 -284 61 -561q0 -76 -8 -240h182
v-254h-610q-285 0 -352 127q-40 -83 -136 -118q-63 -22 -116 -19q-94 0 -129 45q0 -255 -166 -388q-149 -118 -397 -118q-543 0 -543 590zM1621 -399q59 0 99 -43q40 -42 40 -103q0 -60 -40 -102q-40 -43 -99 -43q-60 0 -101 43q-40 42 -40 102q0 61 40 103q41 43 101 43z
M1803 -78q64 0 109 -47q45 -46 45 -112q0 -65 -45 -112q-45 -46 -109 -46q-65 0 -110 46q-43 46 -43 112t43 112q45 47 110 47zM1439 -78q65 0 109 -47q44 -46 44 -112t-44 -112t-109 -46q-64 0 -109 46q-45 47 -45 112q0 66 45 112q44 47 109 47z" />
    <glyph glyph-name="uni069C.init" unicode="&#x69c;" horiz-adv-x="1878" 
d="M0 254h111q94 0 129 47q36 49 36 191v348h326v-381q0 -127 26 -175q26 -46 95 -46q135 0 135 219v465h309v-506q0 -98 40 -130t165 -32h45q13 120 13 221q0 263 -54 537l316 43q61 -269 61 -561q0 -251 -27 -494h-409q-274 0 -352 127q-74 -143 -306 -143
q-226 0 -280 149q-62 -133 -273 -133h-106v254zM901 1460q-41 42 -41 103q0 60 41 102q41 43 100 43q60 0 100 -43q40 -42 40 -102q0 -61 -40 -103q-40 -43 -100 -43q-59 0 -100 43zM1074 1143q-44 46 -44 112t44 112t110 46q64 0 109 -46q44 -47 44 -112q0 -66 -44 -112
q-45 -47 -109 -47q-66 0 -110 47zM710 1143q-44 46 -44 112q0 65 44 112q45 46 109 46q66 0 110 -46t44 -112t-44 -112q-44 -47 -110 -47q-64 0 -109 47zM1001 -419q59 0 99 -43q40 -42 40 -103q0 -60 -40 -102q-40 -43 -99 -43q-60 0 -101 43q-40 42 -40 102q0 61 40 103
q41 43 101 43zM1183 -98q64 0 109 -47q45 -46 45 -112q0 -65 -45 -112q-45 -46 -109 -46q-65 0 -110 46q-43 46 -43 112t43 112q45 47 110 47zM819 -98q65 0 109 -47q44 -46 44 -112t-44 -112t-109 -46q-64 0 -109 46q-45 47 -45 112q0 66 45 112q44 47 109 47z" />
    <glyph glyph-name="uni069C.medi" unicode="&#x69c;" horiz-adv-x="1898" 
d="M0 254h111q94 0 129 47q36 49 36 191v348h326v-381q0 -127 26 -175q26 -46 95 -46q135 0 135 219v465h309v-506q0 -98 40 -130t165 -32h45q13 120 13 221q0 263 -54 537l316 43q61 -269 61 -561q0 -117 -6 -240h180v-254h-610q-274 0 -352 127q-74 -143 -306 -143
q-226 0 -280 149q-62 -133 -273 -133h-106v254zM1074 1143q-44 46 -44 112t44 112t110 46q64 0 109 -46q44 -47 44 -112q0 -66 -44 -112q-45 -47 -109 -47q-66 0 -110 47zM710 1143q-44 46 -44 112q0 65 44 112q45 46 109 46q66 0 110 -46t44 -112t-44 -112
q-44 -47 -110 -47q-64 0 -109 47zM901 1460q-41 42 -41 103q0 60 41 102q41 43 100 43q60 0 100 -43q40 -42 40 -102q0 -61 -40 -103q-40 -43 -100 -43q-59 0 -100 43zM1001 -419q59 0 99 -43q40 -42 40 -103q0 -60 -40 -102q-40 -43 -99 -43q-60 0 -101 43q-40 42 -40 102
q0 61 40 103q41 43 101 43zM1183 -98q64 0 109 -47q45 -46 45 -112q0 -65 -45 -112q-45 -46 -109 -46q-65 0 -110 46q-43 46 -43 112t43 112q45 47 110 47zM819 -98q65 0 109 -47q44 -46 44 -112t-44 -112t-109 -46q-64 0 -109 46q-45 47 -45 112q0 66 45 112q44 47 109 47z
" />
    <glyph glyph-name="uni069C.fina" unicode="&#x69c;" horiz-adv-x="2500" 
d="M81 119q0 173 47 352l336 59q-59 -196 -59 -380q0 -367 243 -367q232 0 232 367v690h323v-381q0 -126 31 -175q28 -46 96 -46q73 0 103 52q28 50 28 167v465h308v-506q0 -96 41 -129t163 -33h47q11 133 11 221q0 280 -54 537l318 43q61 -284 61 -561q0 -76 -8 -240h182
v-254h-610q-285 0 -352 127q-40 -83 -136 -118q-63 -22 -116 -19q-94 0 -129 45q0 -255 -166 -388q-149 -118 -397 -118q-543 0 -543 590zM1685 1143q-43 46 -43 112t43 112q45 46 110 46q64 0 109 -46q45 -47 45 -112q0 -66 -45 -112q-45 -47 -109 -47q-65 0 -110 47z
M1322 1143q-45 46 -45 112q0 65 45 112q45 46 109 46q65 0 109 -46t44 -112t-44 -112q-44 -47 -109 -47t-109 47zM1512 1460q-40 42 -40 103q0 60 40 102q41 43 101 43q59 0 99 -43q40 -42 40 -102q0 -61 -40 -103q-40 -43 -99 -43q-60 0 -101 43zM1621 -399q59 0 99 -43
q40 -42 40 -103q0 -60 -40 -102q-40 -43 -99 -43q-60 0 -101 43q-40 42 -40 102q0 61 40 103q41 43 101 43zM1803 -78q64 0 109 -47q45 -46 45 -112q0 -65 -45 -112q-45 -46 -109 -46q-65 0 -110 46q-43 46 -43 112t43 112q45 47 110 47zM1439 -78q65 0 109 -47
q44 -46 44 -112t-44 -112t-109 -46q-64 0 -109 46q-45 47 -45 112q0 66 45 112q44 47 109 47z" />
    <glyph glyph-name="uni069D.init" unicode="&#x69d;" horiz-adv-x="1574" 
d="M0 254h262v709h324v-31q0 -148 -25 -262h2q64 151 203 238q131 83 287 83q221 0 337 -125q111 -121 111 -340q0 -241 -148 -376q-165 -150 -497 -150h-856v254zM883 254q286 0 286 254q0 225 -182 225q-136 0 -253 -141q-115 -138 -152 -338h301zM1053 -98q64 0 109 -47
q45 -46 45 -112q0 -65 -45 -112q-45 -46 -109 -46q-65 0 -110 46q-43 46 -43 112t43 112q45 47 110 47zM689 -98q65 0 109 -47q44 -46 44 -112t-44 -112t-109 -46q-64 0 -109 46q-45 47 -45 112q0 66 45 112q44 47 109 47z" />
    <glyph glyph-name="uni069D.medi" unicode="&#x69d;" horiz-adv-x="1566" 
d="M0 254h262v709h324v-31q0 -148 -25 -262h2q64 151 203 238q131 83 287 83q221 0 337 -125q111 -121 111 -340q0 -159 -65 -272h174v-254h-1610v254zM899 254q270 5 270 254q0 225 -182 225q-136 0 -253 -141q-115 -138 -152 -338h317zM1053 -98q64 0 109 -47
q45 -46 45 -112q0 -65 -45 -112q-45 -46 -109 -46q-65 0 -110 46q-43 46 -43 112t43 112q45 47 110 47zM689 -98q65 0 109 -47q44 -46 44 -112t-44 -112t-109 -46q-64 0 -109 46q-45 47 -45 112q0 66 45 112q44 47 109 47z" />
    <glyph glyph-name="uni069D.fina" unicode="&#x69d;" horiz-adv-x="2193" 
d="M81 119q0 173 47 352l336 59q-59 -196 -59 -380q0 -367 243 -367q232 0 232 367v813h323v-31q0 -148 -24 -262h4q63 151 201 238q131 83 288 83q220 0 337 -125q112 -121 112 -340q0 -155 -68 -272h185v-254h-1051q-55 -471 -563 -471q-543 0 -543 590zM1517 254
q270 5 270 254q0 225 -182 225q-137 0 -254 -141q-114 -138 -152 -338h318zM1803 -78q64 0 109 -47q45 -46 45 -112q0 -65 -45 -112q-45 -46 -109 -46q-65 0 -110 46q-43 46 -43 112t43 112q45 47 110 47zM1439 -78q65 0 109 -47q44 -46 44 -112t-44 -112t-109 -46
q-64 0 -109 46q-45 47 -45 112q0 66 45 112q44 47 109 47z" />
    <glyph glyph-name="uni069E.init" unicode="&#x69e;" horiz-adv-x="1564" 
d="M0 254h262v709h324v-31q0 -148 -25 -262h2q64 151 203 238q131 83 287 83q221 0 337 -125q111 -121 111 -340q0 -241 -148 -376q-165 -150 -497 -150h-856v254zM883 254q286 0 286 254q0 225 -182 225q-136 0 -253 -141q-115 -138 -152 -338h301zM892 1460
q-40 42 -40 103q0 60 40 102q41 43 101 43q59 0 99 -43q40 -42 40 -102q0 -61 -40 -103q-40 -43 -99 -43q-60 0 -101 43zM1065 1143q-43 46 -43 112t43 112q45 46 110 46q64 0 109 -46q45 -47 45 -112q0 -66 -45 -112q-45 -47 -109 -47q-65 0 -110 47zM702 1143
q-45 46 -45 112q0 65 45 112q45 46 109 46q65 0 109 -46t44 -112t-44 -112q-44 -47 -109 -47t-109 47z" />
    <glyph glyph-name="uni069E.medi" unicode="&#x69e;" horiz-adv-x="1544" 
d="M0 254h262v709h324v-31q0 -148 -25 -262h2q64 151 203 238q131 83 287 83q221 0 337 -125q111 -121 111 -340q0 -159 -65 -272h151v-254h-1587v254zM899 254q270 5 270 254q0 225 -182 225q-136 0 -253 -141q-115 -138 -152 -338h317zM892 1460q-40 42 -40 103
q0 60 40 102q41 43 101 43q59 0 99 -43q40 -42 40 -102q0 -61 -40 -103q-40 -43 -99 -43q-60 0 -101 43zM1065 1143q-43 46 -43 112t43 112q45 46 110 46q64 0 109 -46q45 -47 45 -112q0 -66 -45 -112q-45 -47 -109 -47q-65 0 -110 47zM702 1143q-45 46 -45 112q0 65 45 112
q45 46 109 46q65 0 109 -46t44 -112t-44 -112q-44 -47 -109 -47t-109 47z" />
    <glyph glyph-name="uni069E.fina" unicode="&#x69e;" horiz-adv-x="2193" 
d="M81 119q0 173 47 352l336 59q-59 -196 -59 -380q0 -367 243 -367q232 0 232 367v813h323v-31q0 -148 -24 -262h4q63 151 201 238q131 83 288 83q220 0 337 -125q112 -121 112 -340q0 -155 -68 -272h185v-254h-1051q-55 -471 -563 -471q-543 0 -543 590zM1517 254
q270 5 270 254q0 225 -182 225q-137 0 -254 -141q-114 -138 -152 -338h318zM1542 1460q-40 42 -40 103q0 60 40 102q41 43 101 43q59 0 99 -43q40 -42 40 -102q0 -61 -40 -103q-40 -43 -99 -43q-60 0 -101 43zM1715 1143q-43 46 -43 112t43 112q45 46 110 46q64 0 109 -46
q45 -47 45 -112q0 -66 -45 -112q-45 -47 -109 -47q-65 0 -110 47zM1352 1143q-45 46 -45 112q0 65 45 112q45 46 109 46q65 0 109 -46t44 -112t-44 -112q-44 -47 -109 -47t-109 47z" />
    <glyph glyph-name="uni069F.init" unicode="&#x69f;" horiz-adv-x="1533" 
d="M0 254h229v1190h326v-512q0 -150 -27 -262h4q63 150 202 238q132 83 288 83q220 0 336 -125q112 -121 112 -340q0 -241 -148 -376q-165 -150 -499 -150h-823v254zM850 254q287 0 287 254q0 225 -183 225q-135 0 -252 -141q-115 -139 -151 -338h299zM892 1460
q-40 42 -40 103q0 60 40 102q41 43 101 43q59 0 99 -43q40 -42 40 -102q0 -61 -40 -103q-40 -43 -99 -43q-60 0 -101 43zM1065 1143q-43 46 -43 112t43 112q45 46 110 46q64 0 109 -46q45 -47 45 -112q0 -66 -45 -112q-45 -47 -109 -47q-65 0 -110 47zM702 1143
q-45 46 -45 112q0 65 45 112q45 46 109 46q65 0 109 -46t44 -112t-44 -112q-44 -47 -109 -47t-109 47z" />
    <glyph glyph-name="uni069F.medi" unicode="&#x69f;" horiz-adv-x="1544" 
d="M0 254h229v1190h326v-512q0 -150 -27 -262h4q63 150 202 238q132 83 288 83q220 0 336 -125q112 -121 112 -340q0 -159 -65 -272h182v-254h-1587v254zM850 254q287 0 287 254q0 225 -183 225q-135 0 -252 -141q-115 -139 -151 -338h299zM892 1460q-40 42 -40 103
q0 60 40 102q41 43 101 43q59 0 99 -43q40 -42 40 -102q0 -61 -40 -103q-40 -43 -99 -43q-60 0 -101 43zM1065 1143q-43 46 -43 112t43 112q45 46 110 46q64 0 109 -46q45 -47 45 -112q0 -66 -45 -112q-45 -47 -109 -47q-65 0 -110 47zM702 1143q-45 46 -45 112q0 65 45 112
q45 46 109 46q65 0 109 -46t44 -112t-44 -112q-44 -47 -109 -47t-109 47z" />
    <glyph glyph-name="uni069F.fina" unicode="&#x69f;" horiz-adv-x="1544" 
d="M0 254h229v1190h326v-512q0 -150 -27 -262h4q63 150 202 238q132 83 288 83q220 0 336 -125q112 -121 112 -340q0 -159 -65 -272h182v-254h-1587v254zM850 254q287 0 287 254q0 225 -183 225q-135 0 -252 -141q-115 -139 -151 -338h299zM892 1460q-40 42 -40 103
q0 60 40 102q41 43 101 43q59 0 99 -43q40 -42 40 -102q0 -61 -40 -103q-40 -43 -99 -43q-60 0 -101 43zM1065 1143q-43 46 -43 112t43 112q45 46 110 46q64 0 109 -46q45 -47 45 -112q0 -66 -45 -112q-45 -47 -109 -47q-65 0 -110 47zM702 1143q-45 46 -45 112q0 65 45 112
q45 46 109 46q65 0 109 -46t44 -112t-44 -112q-44 -47 -109 -47t-109 47z" />
    <glyph glyph-name="uni06A0.init" unicode="&#x6a0;" horiz-adv-x="1093" 
d="M0 254h258q-119 87 -119 266q0 203 137 331q150 140 418 140q135 0 248 -35l-57 -256q-82 37 -193 37q-101 0 -164 -61t-63 -158q0 -121 100 -190q109 -74 316 -74h153v-254h-1034v254zM527 1463q-40 42 -40 103q0 60 40 102q41 43 101 43q59 0 99 -43q40 -42 40 -102
q0 -61 -40 -103q-40 -43 -99 -43q-60 0 -101 43zM700 1146q-43 46 -43 112t43 112q45 46 110 46q64 0 109 -46q45 -47 45 -112q0 -66 -45 -112q-45 -47 -109 -47q-65 0 -110 47zM337 1146q-45 46 -45 112q0 65 45 112q45 46 109 46q65 0 109 -46t44 -112t-44 -112
q-44 -47 -109 -47t-109 47z" />
    <glyph glyph-name="uni06A0.medi" unicode="&#x6a0;" horiz-adv-x="1292" 
d="M0 254h74q249 0 420 41q-235 218 -385 256l26 231q307 215 592 215q228 0 349 -103q108 -92 108 -243q0 -204 -180 -368q82 -29 178 -29h141v-254h-176q-234 0 -424 113q-282 -113 -666 -113h-57v254zM770 420q92 80 92 190q0 152 -172 152q-107 0 -256 -96
q53 -23 336 -246zM597 1463q-40 42 -40 103q0 60 40 102q41 43 101 43q59 0 99 -43q40 -42 40 -102q0 -61 -40 -103q-40 -43 -99 -43q-60 0 -101 43zM770 1146q-43 46 -43 112t43 112q45 46 110 46q64 0 109 -46q45 -47 45 -112q0 -66 -45 -112q-45 -47 -109 -47
q-65 0 -110 47zM407 1146q-45 46 -45 112q0 65 45 112q45 46 109 46q65 0 109 -46t44 -112t-44 -112q-44 -47 -109 -47t-109 47z" />
    <glyph glyph-name="uni06A0.fina" unicode="&#x6a0;" horiz-adv-x="1292" 
d="M185 -411q-138 96 -138 257q0 167 141 285q89 75 301 168q-235 215 -381 252l27 231q307 215 592 215q228 0 349 -103q108 -92 108 -243q0 -209 -197 -362q89 -35 195 -35h141v-254h-176q-249 0 -447 127q-175 -83 -224 -115q-97 -64 -97 -133q0 -145 297 -145
q159 0 299 24l18 -243q-176 -35 -352 -35q-301 0 -456 109zM754 432q108 78 108 178q0 152 -172 152q-107 0 -256 -96q55 -24 320 -234zM597 1463q-40 42 -40 103q0 60 40 102q41 43 101 43q59 0 99 -43q40 -42 40 -102q0 -61 -40 -103q-40 -43 -99 -43q-60 0 -101 43z
M770 1146q-43 46 -43 112t43 112q45 46 110 46q64 0 109 -46q45 -47 45 -112q0 -66 -45 -112q-45 -47 -109 -47q-65 0 -110 47zM407 1146q-45 46 -45 112q0 65 45 112q45 46 109 46q65 0 109 -46t44 -112t-44 -112q-44 -47 -109 -47t-109 47z" />
    <glyph glyph-name="uni06A1.init" unicode="&#x6a1;" horiz-adv-x="1253" 
d="M0 0v254h88q70 0 111 -16q-90 77 -90 258q0 207 135 344q150 151 409 151q244 0 367 -133q113 -123 113 -344v-514h-1133zM817 479q0 258 -184 258q-96 0 -152 -68q-53 -65 -53 -167q0 -248 264 -248h125v225z" />
    <glyph glyph-name="uni06A1.medi" unicode="&#x6a1;" horiz-adv-x="1243" 
d="M0 254h63q60 0 113 -10q-67 85 -67 231q0 229 151 373q150 143 385 143t361 -120q129 -122 129 -355q0 -186 -93 -272q74 10 142 10h90v-254h-1274v254zM758 316q53 65 53 180q0 241 -186 241q-80 0 -133 -55q-60 -63 -60 -178q0 -250 186 -250q88 0 140 62z" />
    <glyph glyph-name="uni06A1.fina" unicode="&#x6a1;" horiz-adv-x="1941" 
d="M1971 0h-1112q-776 0 -776 614q0 155 47 308l346 55q-65 -148 -65 -330q0 -393 422 -393h36q-63 76 -63 221q0 229 151 373q151 143 386 143q234 0 360 -120q129 -122 129 -355q0 -186 -92 -272q74 10 141 10h90v-254zM1322 737q-80 0 -132 -55q-60 -63 -60 -178
q0 -250 186 -250q88 0 139 62q53 65 53 180q0 241 -186 241z" />
    <glyph glyph-name="uni06A2.init" unicode="&#x6a2;" horiz-adv-x="1253" 
d="M0 0v254h88q70 0 111 -16q-90 77 -90 258q0 207 135 344q150 151 409 151q244 0 367 -133q113 -123 113 -344v-514h-1133zM817 479q0 258 -184 258q-96 0 -152 -68q-53 -65 -53 -167q0 -248 264 -248h125v225zM529 -421q-47 47 -47 114t47 113q47 47 113 47q68 0 115 -47
q47 -46 47 -113q0 -68 -47 -114t-115 -46q-66 0 -113 46z" />
    <glyph glyph-name="uni06A2.medi" unicode="&#x6a2;" horiz-adv-x="1243" 
d="M0 254h63q60 0 113 -10q-67 85 -67 231q0 229 151 373q150 143 385 143t361 -120q129 -122 129 -355q0 -186 -93 -272q74 10 142 10h90v-254h-1274v254zM758 316q53 65 53 180q0 241 -186 241q-80 0 -133 -55q-60 -63 -60 -178q0 -250 186 -250q88 0 140 62zM509 -421
q-47 47 -47 114t47 113q47 47 113 47q68 0 115 -47q47 -46 47 -113q0 -68 -47 -114t-115 -46q-66 0 -113 46z" />
    <glyph glyph-name="uni06A2.fina" unicode="&#x6a2;" horiz-adv-x="1941" 
d="M1971 0h-1112q-776 0 -776 614q0 155 47 308l346 55q-65 -148 -65 -330q0 -393 422 -393h36q-63 76 -63 221q0 229 151 373q151 143 386 143q234 0 360 -120q129 -122 129 -355q0 -186 -92 -272q74 10 141 10h90v-254zM1322 737q-80 0 -132 -55q-60 -63 -60 -178
q0 -250 186 -250q88 0 139 62q53 65 53 180q0 241 -186 241zM1229 -421q-47 47 -47 114t47 113q47 47 113 47q68 0 115 -47q47 -46 47 -113q0 -68 -47 -114t-115 -46q-66 0 -113 46z" />
    <glyph glyph-name="uni06A3.init" unicode="&#x6a3;" horiz-adv-x="1253" 
d="M0 0v254h88q70 0 111 -16q-90 77 -90 258q0 207 135 344q150 151 409 151q244 0 367 -133q113 -123 113 -344v-514h-1133zM817 479q0 258 -184 258q-96 0 -152 -68q-53 -65 -53 -167q0 -248 264 -248h125v225zM512 1159q-47 47 -47 115q0 66 47 113t113 47q67 0 114 -46
q47 -47 47 -114q0 -68 -47 -115t-114 -47t-113 47zM519 -421q-47 47 -47 114t47 113q47 47 113 47q68 0 115 -47q47 -46 47 -113q0 -68 -47 -114t-115 -46q-66 0 -113 46z" />
    <glyph glyph-name="uni06A3.medi" unicode="&#x6a3;" horiz-adv-x="1243" 
d="M0 254h63q60 0 113 -10q-67 85 -67 231q0 229 151 373q150 143 385 143t361 -120q129 -122 129 -355q0 -186 -93 -272q74 10 142 10h90v-254h-1274v254zM758 316q53 65 53 180q0 241 -186 241q-80 0 -133 -55q-60 -63 -60 -178q0 -250 186 -250q88 0 140 62zM510 1159
q-47 47 -47 115q0 66 47 113t113 47q67 0 114 -46q47 -47 47 -114q0 -68 -47 -115t-114 -47t-113 47zM499 -421q-47 47 -47 114t47 113q47 47 113 47q68 0 115 -47q47 -46 47 -113q0 -68 -47 -114t-115 -46q-66 0 -113 46z" />
    <glyph glyph-name="uni06A3.fina" unicode="&#x6a3;" horiz-adv-x="1941" 
d="M1971 0h-1112q-776 0 -776 614q0 155 47 308l346 55q-65 -148 -65 -330q0 -393 422 -393h36q-63 76 -63 221q0 229 151 373q151 143 386 143q234 0 360 -120q129 -122 129 -355q0 -186 -92 -272q74 10 141 10h90v-254zM1322 737q-80 0 -132 -55q-60 -63 -60 -178
q0 -250 186 -250q88 0 139 62q53 65 53 180q0 241 -186 241zM1207 1159q-47 47 -47 115q0 66 47 113t113 47q68 0 115 -46q47 -47 47 -114q0 -68 -47 -115t-115 -47q-66 0 -113 47zM809 -421q-47 47 -47 114t47 113q47 47 113 47q68 0 115 -47q47 -46 47 -113
q0 -68 -47 -114t-115 -46q-66 0 -113 46z" />
    <glyph glyph-name="uni06A5.init" unicode="&#x6a5;" horiz-adv-x="1253" 
d="M0 0v254h88q70 0 111 -16q-90 77 -90 258q0 207 135 344q150 151 409 151q244 0 367 -133q113 -123 113 -344v-514h-1133zM817 479q0 258 -184 258q-96 0 -152 -68q-53 -65 -53 -167q0 -248 264 -248h125v225zM563 -319q-40 -41 -98 -41q-59 0 -99 40q-41 41 -41 101
q0 58 41 99q40 40 99 40q58 0 98 -40q41 -41 41 -99q0 -59 -41 -100zM914 -319q-40 -41 -99 -41t-98 40q-39 41 -39 101q0 58 39 99q40 40 98 40q59 0 99 -40t40 -99t-40 -100zM734 -585q-38 -38 -93 -38q-56 0 -93 38q-38 37 -38 93q0 54 38 92t93 38t93 -37t38 -93
q0 -55 -38 -93z" />
    <glyph glyph-name="uni06A5.medi" unicode="&#x6a5;" horiz-adv-x="1243" 
d="M0 254h63q60 0 113 -10q-67 85 -67 231q0 229 151 373q150 143 385 143t361 -120q129 -122 129 -355q0 -186 -93 -272q74 10 142 10h90v-254h-1274v254zM758 316q53 65 53 180q0 241 -186 241q-80 0 -133 -55q-60 -63 -60 -178q0 -250 186 -250q88 0 140 62zM523 -319
q-40 -41 -98 -41q-59 0 -99 40q-41 41 -41 101q0 58 41 99q40 40 99 40q58 0 98 -40q41 -41 41 -99q0 -59 -41 -100zM874 -319q-40 -41 -99 -41t-98 40q-39 41 -39 101q0 58 39 99q40 40 98 40q59 0 99 -40t40 -99t-40 -100zM694 -585q-38 -38 -93 -38q-56 0 -93 38
q-38 37 -38 93q0 54 38 92t93 38t93 -37t38 -93q0 -55 -38 -93z" />
    <glyph glyph-name="uni06A5.fina" unicode="&#x6a5;" horiz-adv-x="1941" 
d="M1971 0h-1112q-776 0 -776 614q0 155 47 308l346 55q-65 -148 -65 -330q0 -393 422 -393h36q-63 76 -63 221q0 229 151 373q151 143 386 143q234 0 360 -120q129 -122 129 -355q0 -186 -92 -272q74 10 141 10h90v-254zM1322 737q-80 0 -132 -55q-60 -63 -60 -178
q0 -250 186 -250q88 0 139 62q53 65 53 180q0 241 -186 241zM1263 -319q-40 -41 -98 -41q-59 0 -99 40q-41 41 -41 101q0 58 41 99q40 40 99 40q58 0 98 -40q41 -41 41 -99q0 -59 -41 -100zM1614 -319q-40 -41 -99 -41t-98 40q-39 41 -39 101q0 58 39 99q40 40 98 40
q59 0 99 -40t40 -99t-40 -100zM1434 -585q-38 -38 -93 -38q-56 0 -93 38q-38 37 -38 93q0 54 38 92t93 38t93 -37t38 -93q0 -55 -38 -93z" />
    <glyph glyph-name="uni06A7.init" unicode="&#x6a7;" horiz-adv-x="1253" 
d="M0 0v254h88q70 0 111 -16q-90 77 -90 258q0 207 135 344q150 151 409 151q244 0 367 -133q113 -123 113 -344v-514h-1133zM817 479q0 258 -184 258q-96 0 -152 -68q-53 -65 -53 -167q0 -248 264 -248h125v225zM512 1159q-47 47 -47 115q0 66 47 113t113 47q67 0 114 -46
q47 -47 47 -114q0 -68 -47 -115t-114 -47t-113 47z" />
    <glyph glyph-name="uni06A7.medi" unicode="&#x6a7;" horiz-adv-x="1243" 
d="M0 254h63q60 0 113 -10q-67 85 -67 231q0 229 151 373q150 143 385 143t361 -120q129 -122 129 -355q0 -186 -93 -272q74 10 142 10h90v-254h-1274v254zM758 316q53 65 53 180q0 241 -186 241q-80 0 -133 -55q-60 -63 -60 -178q0 -250 186 -250q88 0 140 62zM510 1159
q-47 47 -47 115q0 66 47 113t113 47q67 0 114 -46q47 -47 47 -114q0 -68 -47 -115t-114 -47t-113 47z" />
    <glyph glyph-name="uni06A7.fina" unicode="&#x6a7;" horiz-adv-x="1832" 
d="M1678 254h185v-254h-185v-489q-438 -23 -688 -23q-484 0 -702 158q-207 151 -207 475q0 171 47 350l336 59q-59 -196 -59 -378q0 -225 129 -314q140 -96 503 -96q125 0 299 8v250h-104q-553 0 -553 471q0 221 132 362q150 158 427 158q254 0 440 -71v-666zM1363 705
q-63 32 -158 32t-151 -68q-53 -65 -53 -167q0 -248 264 -248h98v451zM1119 1143q-43 46 -43 112t43 112q45 46 110 46q64 0 109 -46q45 -47 45 -112q0 -66 -45 -112q-44 -47 -109 -47t-110 47z" />
    <glyph glyph-name="uni06A8.init" unicode="&#x6a8;" horiz-adv-x="1253" 
d="M0 0v254h88q70 0 111 -16q-90 77 -90 258q0 207 135 344q150 151 409 151q244 0 367 -133q113 -123 113 -344v-514h-1133zM817 479q0 258 -184 258q-96 0 -152 -68q-53 -65 -53 -167q0 -248 264 -248h125v225zM526 1460q-41 42 -41 103q0 60 41 102q41 43 101 43
q59 0 99 -43q40 -42 40 -102q0 -61 -40 -103q-40 -43 -99 -43q-60 0 -101 43zM699 1143q-44 46 -44 112t44 112q45 46 110 46q64 0 109 -46q45 -47 45 -112q0 -66 -45 -112q-45 -47 -109 -47q-66 0 -110 47zM335 1143q-44 46 -44 112q0 65 44 112q45 46 109 46q66 0 110 -46
t44 -112t-44 -112q-44 -47 -110 -47q-64 0 -109 47z" />
    <glyph glyph-name="uni06A8.medi" unicode="&#x6a8;" horiz-adv-x="1243" 
d="M0 254h63q60 0 113 -10q-67 85 -67 231q0 229 151 373q150 143 385 143t361 -120q129 -122 129 -355q0 -186 -93 -272q74 10 142 10h90v-254h-1274v254zM758 316q53 65 53 180q0 241 -186 241q-80 0 -133 -55q-60 -63 -60 -178q0 -250 186 -250q88 0 140 62zM524 1460
q-41 42 -41 103q0 60 41 102q41 43 101 43q59 0 99 -43q40 -42 40 -102q0 -61 -40 -103q-40 -43 -99 -43q-60 0 -101 43zM697 1143q-44 46 -44 112t44 112q45 46 110 46q64 0 109 -46q45 -47 45 -112q0 -66 -45 -112q-45 -47 -109 -47q-66 0 -110 47zM333 1143
q-44 46 -44 112q0 65 44 112q45 46 109 46q66 0 110 -46t44 -112t-44 -112q-44 -47 -110 -47q-64 0 -109 47z" />
    <glyph glyph-name="uni06A8.fina" unicode="&#x6a8;" horiz-adv-x="1832" 
d="M1678 254h185v-254h-185v-489q-438 -23 -688 -23q-484 0 -702 158q-207 151 -207 475q0 171 47 350l336 59q-59 -196 -59 -378q0 -225 129 -314q140 -96 503 -96q125 0 299 8v250h-104q-553 0 -553 471q0 221 132 362q150 158 427 158q254 0 440 -71v-666zM1363 705
q-63 32 -158 32t-151 -68q-53 -65 -53 -167q0 -248 264 -248h98v451zM1106 1460q-40 42 -40 103q0 60 40 102q42 43 101 43t100 -43q39 -42 39 -102q0 -61 -39 -103q-41 -43 -100 -43t-101 43zM1279 1143q-43 46 -43 112t43 112q45 46 110 46q64 0 109 -46q45 -47 45 -112
q0 -66 -45 -112q-44 -47 -109 -47t-110 47zM916 1143q-45 46 -45 112q0 65 45 112q45 46 109 46q65 0 110 -46q43 -46 43 -112t-43 -112q-45 -47 -110 -47t-109 47z" />
    <glyph glyph-name="uni06AA.init" unicode="&#x6aa;" horiz-adv-x="1066" 
d="M0 254h573q-22 407 -475 500v235l832 522v-321l-463 -275q426 -198 426 -757v-158h-893v254z" />
    <glyph glyph-name="uni06AA.medi" unicode="&#x6aa;" horiz-adv-x="1007" 
d="M0 254h573q-22 407 -475 500v235l832 522v-321l-463 -275q389 -184 422 -661h149v-254h-1038v254z" />
    <glyph glyph-name="uni06AA.fina" unicode="&#x6aa;" horiz-adv-x="1732" 
d="M859 0q-776 0 -776 614q0 155 47 308l346 55q-65 -148 -65 -330q0 -208 107 -299q111 -94 374 -94h405q-22 407 -477 500v235l834 522v-321l-463 -275q389 -184 422 -661h149v-254h-903z" />
    <glyph glyph-name="uni06AB.init" unicode="&#x6ab;" horiz-adv-x="1062" 
d="M0 254h573q-22 407 -475 500v204l832 523v-291l-463 -275q426 -198 426 -757v-158h-893v254zM98 1389l832 522v-273l-832 -522v273z" />
    <glyph glyph-name="uni06AB.medi" unicode="&#x6ab;" horiz-adv-x="1007" 
d="M0 254h573q-22 407 -475 500v204l832 523v-291l-463 -275q389 -184 422 -661h149v-254h-1038v254zM98 1389l832 522v-273l-832 -522v273z" />
    <glyph glyph-name="uni06AB.fina" unicode="&#x6ab;" horiz-adv-x="1732" 
d="M859 0q-776 0 -776 614q0 155 47 308l346 55q-65 -148 -65 -330q0 -208 107 -299q111 -94 374 -94h405q-22 407 -477 500v204l834 523v-291l-463 -275q389 -184 422 -661h149v-254h-903zM820 1389l834 522v-273l-834 -522v273z" />
    <glyph glyph-name="uni06AC.init" unicode="&#x6ac;" horiz-adv-x="1066" 
d="M0 254h573q-22 407 -475 500v235l832 522v-321l-463 -275q426 -198 426 -757v-158h-893v254zM261 1439q-44 46 -44 112q0 65 44 112q45 46 109 46q66 0 110 -46t44 -112t-44 -112q-44 -47 -110 -47q-64 0 -109 47z" />
    <glyph glyph-name="uni06AC.medi" unicode="&#x6ac;" horiz-adv-x="1007" 
d="M0 254h573q-22 407 -475 500v235l832 522v-321l-463 -275q389 -184 422 -661h149v-254h-1038v254zM261 1439q-44 46 -44 112q0 65 44 112q45 46 109 46q66 0 110 -46t44 -112t-44 -112q-44 -47 -110 -47q-64 0 -109 47z" />
    <glyph glyph-name="uni06AC.fina" unicode="&#x6ac;" horiz-adv-x="1763" 
d="M859 0q-776 0 -776 614q0 155 47 308l346 55q-65 -148 -65 -330q0 -208 107 -299q111 -94 374 -94h387v1190h324v-1190h192v-254h-936zM603 1028q59 0 96 -10q-26 20 -26 69q0 105 73 170q84 76 246 76q97 0 127 -10l-26 -178l-35 4q-37 4 -70 4q-88 0 -88 -57
q0 -68 131 -68h119v-180h-547v180zM1335 1579q-44 46 -44 112t44 112q45 46 110 46q64 0 109 -46q45 -47 45 -112q0 -66 -45 -112q-45 -47 -109 -47q-66 0 -110 47z" />
    <glyph glyph-name="uni06AE.init" unicode="&#x6ae;" horiz-adv-x="1066" 
d="M0 254h573q-22 407 -475 500v235l832 522v-321l-463 -275q426 -198 426 -757v-158h-893v254zM393 -319q-40 -41 -98 -41q-59 0 -99 40q-41 41 -41 101q0 58 41 99q40 40 99 40q58 0 98 -40q41 -41 41 -99q0 -59 -41 -100zM744 -319q-40 -41 -99 -41t-98 40
q-39 41 -39 101q0 58 39 99q40 40 98 40q59 0 99 -40t40 -99t-40 -100zM564 -585q-38 -38 -93 -38q-56 0 -93 38q-38 37 -38 93q0 54 38 92t93 38t93 -37t38 -93q0 -55 -38 -93z" />
    <glyph glyph-name="uni06AE.medi" unicode="&#x6ae;" horiz-adv-x="1007" 
d="M0 254h573q-22 407 -475 500v235l832 522v-321l-463 -275q389 -184 422 -661h149v-254h-1038v254zM393 -319q-40 -41 -98 -41q-59 0 -99 40q-41 41 -41 101q0 58 41 99q40 40 99 40q58 0 98 -40q41 -41 41 -99q0 -59 -41 -100zM744 -319q-40 -41 -99 -41t-98 40
q-39 41 -39 101q0 58 39 99q40 40 98 40q59 0 99 -40t40 -99t-40 -100zM564 -585q-38 -38 -93 -38q-56 0 -93 38q-38 37 -38 93q0 54 38 92t93 38t93 -37t38 -93q0 -55 -38 -93z" />
    <glyph glyph-name="uni06AE.fina" unicode="&#x6ae;" horiz-adv-x="1763" 
d="M859 0q-776 0 -776 614q0 155 47 308l346 55q-65 -148 -65 -330q0 -208 107 -299q111 -94 374 -94h387v1190h324v-1190h192v-254h-936zM603 1028q59 0 96 -10q-26 20 -26 69q0 105 73 170q84 76 246 76q97 0 127 -10l-26 -178l-35 4q-37 4 -70 4q-88 0 -88 -57
q0 -68 131 -68h119v-180h-547v180zM833 -319q-40 -41 -98 -41q-59 0 -99 40q-41 41 -41 101q0 58 41 99q40 40 99 40q58 0 98 -40q41 -41 41 -99q0 -59 -41 -100zM1184 -319q-40 -41 -99 -41t-98 40q-39 41 -39 101q0 58 39 99q40 40 98 40q59 0 99 -40t40 -99t-40 -100z
M1004 -585q-38 -38 -93 -38q-56 0 -93 38q-38 37 -38 93q0 54 38 92t93 38t93 -37t38 -93q0 -55 -38 -93z" />
    <glyph glyph-name="uni06B0.init" unicode="&#x6b0;" horiz-adv-x="1066" 
d="M98 1389l832 522v-273l-832 -522v273zM757 902q0 130 -116 130q-60 0 -94 -33q-32 -31 -32 -77q0 -119 171 -119h71v99zM413 772q46 -168 290 -168h96q94 -183 94 -446v-158h-893v254h573q-22 407 -475 500v204l832 523v-291l-112 -66q-16 6 -34 10q23 -13 41 -33
q55 -60 55 -168v-253h-232q-172 0 -235 92z" />
    <glyph glyph-name="uni06B0.medi" unicode="&#x6b0;" horiz-adv-x="1007" 
d="M98 1389l832 522v-273l-832 -522v273zM757 902q0 130 -116 130q-60 0 -94 -33q-32 -31 -32 -77q0 -119 171 -119h71v99zM413 772q46 -168 290 -168h95q77 -149 91 -350h149v-254h-1038v254h573q-22 407 -475 500v204l832 523v-291l-112 -66q-16 6 -34 10q23 -13 41 -33
q55 -60 55 -168v-253h-232q-172 0 -235 92z" />
    <glyph glyph-name="uni06B0.fina" unicode="&#x6b0;" horiz-adv-x="1732" 
d="M820 1389l834 522v-273l-834 -522v273zM1477 902q0 130 -116 130q-60 0 -94 -33q-32 -31 -32 -77q0 -119 171 -119h71v99zM1133 772q46 -168 290 -168h99q77 -149 91 -350h149v-254h-903q-776 0 -776 614q0 155 47 308l346 55q-65 -148 -65 -330q0 -208 107 -299
q111 -94 374 -94h405q-22 407 -477 500v204l834 523v-291l-113 -67q-18 7 -37 11q23 -13 41 -33q55 -60 55 -168v-253h-232q-172 0 -235 92z" />
    <glyph glyph-name="uni06B2.init" unicode="&#x6b2;" horiz-adv-x="1062" 
d="M0 254h573q-22 407 -475 500v204l832 523v-291l-463 -275q426 -198 426 -757v-158h-893v254zM98 1389l832 522v-273l-832 -522v273zM393 -319q-40 -41 -98 -41q-59 0 -99 40q-41 41 -41 101q0 58 41 99q40 40 99 40q58 0 98 -40q41 -41 41 -99q0 -59 -41 -100zM744 -319
q-40 -41 -99 -41t-98 40q-39 41 -39 101q0 58 39 99q40 40 98 40q59 0 99 -40t40 -99t-40 -100z" />
    <glyph glyph-name="uni06B2.medi" unicode="&#x6b2;" horiz-adv-x="1007" 
d="M0 254h573q-22 407 -475 500v204l832 523v-291l-463 -275q389 -184 422 -661h149v-254h-1038v254zM98 1389l832 522v-273l-832 -522v273zM393 -319q-40 -41 -98 -41q-59 0 -99 40q-41 41 -41 101q0 58 41 99q40 40 99 40q58 0 98 -40q41 -41 41 -99q0 -59 -41 -100z
M744 -319q-40 -41 -99 -41t-98 40q-39 41 -39 101q0 58 39 99q40 40 98 40q59 0 99 -40t40 -99t-40 -100z" />
    <glyph glyph-name="uni06B2.fina" unicode="&#x6b2;" horiz-adv-x="1732" 
d="M859 0q-776 0 -776 614q0 155 47 308l346 55q-65 -148 -65 -330q0 -208 107 -299q111 -94 374 -94h405q-22 407 -477 500v204l834 523v-291l-463 -275q389 -184 422 -661h149v-254h-903zM820 1389l834 522v-273l-834 -522v273zM833 -319q-40 -41 -98 -41q-59 0 -99 40
q-41 41 -41 101q0 58 41 99q40 40 99 40q58 0 98 -40q41 -41 41 -99q0 -59 -41 -100zM1184 -319q-40 -41 -99 -41t-98 40q-39 41 -39 101q0 58 39 99q40 40 98 40q59 0 99 -40t40 -99t-40 -100z" />
    <glyph glyph-name="uni06B4.init" unicode="&#x6b4;" horiz-adv-x="1070" 
d="M0 254h573q-22 407 -475 500v204l832 523v-291l-463 -275q426 -198 426 -757v-158h-893v254zM323 1984q-41 42 -41 103q0 60 41 102q41 43 101 43q59 0 99 -43q40 -42 40 -102q0 -61 -40 -103q-40 -43 -99 -43q-60 0 -101 43zM132 1667q-44 46 -44 112q0 65 44 112
q45 46 109 46q66 0 110 -46t44 -112t-44 -112q-44 -47 -110 -47q-64 0 -109 47zM496 1667q-44 46 -44 112t44 112q45 46 110 46q64 0 109 -46q45 -47 45 -112q0 -66 -45 -112q-45 -47 -109 -47q-66 0 -110 47zM825 1845l105 66v-273l-832 -522v273l352 221q63 -63 156 -63
q94 0 161 69q66 68 66 165q0 34 -8 64z" />
    <glyph glyph-name="uni06B4.medi" unicode="&#x6b4;" horiz-adv-x="1007" 
d="M0 254h573q-22 407 -475 500v204l832 523v-291l-463 -275q389 -184 422 -661h149v-254h-1038v254zM323 1984q-41 42 -41 103q0 60 41 102q41 43 101 43q59 0 99 -43q40 -42 40 -102q0 -61 -40 -103q-40 -43 -99 -43q-60 0 -101 43zM132 1667q-44 46 -44 112q0 65 44 112
q45 46 109 46q66 0 110 -46t44 -112t-44 -112q-44 -47 -110 -47q-64 0 -109 47zM496 1667q-44 46 -44 112t44 112q45 46 110 46q64 0 109 -46q45 -47 45 -112q0 -66 -45 -112q-45 -47 -109 -47q-66 0 -110 47zM825 1845l105 66v-273l-832 -522v273l352 221q63 -63 156 -63
q94 0 161 69q66 68 66 165q0 34 -8 64z" />
    <glyph glyph-name="uni06B4.fina" unicode="&#x6b4;" horiz-adv-x="1732" 
d="M859 0q-776 0 -776 614q0 155 47 308l346 55q-65 -148 -65 -330q0 -208 107 -299q111 -94 374 -94h405q-22 407 -477 500v204l834 523v-291l-463 -275q389 -184 422 -661h149v-254h-903zM822 1856q-41 42 -41 103q0 60 41 102q41 43 101 43q59 0 99 -43q40 -42 40 -102
q0 -61 -40 -103q-40 -43 -99 -43q-60 0 -101 43zM995 1539q-44 46 -44 112t44 112q45 46 110 46q64 0 109 -46q45 -47 45 -112q0 -66 -45 -112q-45 -47 -109 -47q-66 0 -110 47zM631 1539q-44 46 -44 112q0 65 44 112q45 46 109 46q66 0 110 -46t44 -112t-44 -112
q-44 -47 -110 -47q-64 0 -109 47zM1334 1711l320 200v-273l-834 -522v273l124 78q61 -45 143 -45q104 0 176 76q73 75 73 182q0 16 -2 31z" />
    <glyph glyph-name="uni06B5.init" unicode="&#x6b5;" horiz-adv-x="718" 
d="M0 254h233v1190h326v-1444h-559v254zM376 1567l-313 270l110 135l205 -154l205 154l109 -135z" />
    <glyph glyph-name="uni06B5.medi" unicode="&#x6b5;" horiz-adv-x="718" 
d="M0 254h233v1190h326v-1190h191v-254h-750v254zM376 1567l-313 270l110 135l205 -154l205 154l109 -135z" />
    <glyph glyph-name="uni06B5.fina" unicode="&#x6b5;" horiz-adv-x="1349" 
d="M880 1444h323v-1190h176v-254h-190q-73 -471 -565 -471q-543 0 -543 590q0 173 47 352l336 59q-59 -196 -59 -380q0 -367 243 -367q232 0 232 373v1288zM1026 1567l-313 270l110 135l205 -154l205 154l109 -135z" />
    <glyph glyph-name="uni06B6.init" unicode="&#x6b6;" horiz-adv-x="718" 
d="M0 254h233v1190h326v-1444h-559v254zM293 1612q-44 46 -44 112t44 112q45 46 110 46q64 0 109 -46q45 -47 45 -112q0 -66 -45 -112q-45 -47 -109 -47q-66 0 -110 47z" />
    <glyph glyph-name="uni06B6.medi" unicode="&#x6b6;" horiz-adv-x="718" 
d="M0 254h233v1190h326v-1190h191v-254h-750v254zM293 1612q-44 46 -44 112t44 112q45 46 110 46q64 0 109 -46q45 -47 45 -112q0 -66 -45 -112q-45 -47 -109 -47q-66 0 -110 47z" />
    <glyph glyph-name="uni06B6.fina" unicode="&#x6b6;" horiz-adv-x="1349" 
d="M880 1444h323v-1190h176v-254h-190q-73 -471 -565 -471q-543 0 -543 590q0 173 47 352l336 59q-59 -196 -59 -380q0 -367 243 -367q232 0 232 373v1288zM933 1612q-44 46 -44 112t44 112q45 46 110 46q64 0 109 -46q45 -47 45 -112q0 -66 -45 -112q-45 -47 -109 -47
q-66 0 -110 47z" />
    <glyph glyph-name="uni06B7.init" unicode="&#x6b7;" horiz-adv-x="718" 
d="M0 254h233v1190h326v-1444h-559v254zM260 1929q-41 42 -41 103q0 60 41 102q41 43 101 43q59 0 99 -43q40 -42 40 -102q0 -61 -40 -103q-40 -43 -99 -43q-60 0 -101 43zM69 1612q-44 46 -44 112q0 65 44 112q45 46 109 46q66 0 110 -46t44 -112t-44 -112
q-44 -47 -110 -47q-64 0 -109 47zM433 1612q-44 46 -44 112t44 112q45 46 110 46q64 0 109 -46q45 -47 45 -112q0 -66 -45 -112q-45 -47 -109 -47q-66 0 -110 47z" />
    <glyph glyph-name="uni06B7.medi" unicode="&#x6b7;" horiz-adv-x="718" 
d="M0 254h233v1190h326v-1190h191v-254h-750v254zM260 1929q-41 42 -41 103q0 60 41 102q41 43 101 43q59 0 99 -43q40 -42 40 -102q0 -61 -40 -103q-40 -43 -99 -43q-60 0 -101 43zM69 1612q-44 46 -44 112q0 65 44 112q45 46 109 46q66 0 110 -46t44 -112t-44 -112
q-44 -47 -110 -47q-64 0 -109 47zM433 1612q-44 46 -44 112t44 112q45 46 110 46q64 0 109 -46q45 -47 45 -112q0 -66 -45 -112q-45 -47 -109 -47q-66 0 -110 47z" />
    <glyph glyph-name="uni06B7.fina" unicode="&#x6b7;" horiz-adv-x="1349" 
d="M880 1444h323v-1190h176v-254h-190q-73 -471 -565 -471q-543 0 -543 590q0 173 47 352l336 59q-59 -196 -59 -380q0 -367 243 -367q232 0 232 373v1288zM900 1929q-41 42 -41 103q0 60 41 102q41 43 101 43q59 0 99 -43q40 -42 40 -102q0 -61 -40 -103q-40 -43 -99 -43
q-60 0 -101 43zM709 1612q-44 46 -44 112q0 65 44 112q45 46 109 46q66 0 110 -46t44 -112t-44 -112q-44 -47 -110 -47q-64 0 -109 47zM1073 1612q-44 46 -44 112t44 112q45 46 110 46q64 0 109 -46q45 -47 45 -112q0 -66 -45 -112q-45 -47 -109 -47q-66 0 -110 47z" />
    <glyph glyph-name="uni06B8.init" unicode="&#x6b8;" horiz-adv-x="718" 
d="M0 254h233v1190h326v-1444h-559v254zM253 -319q-40 -41 -98 -41q-59 0 -99 40q-41 41 -41 101q0 58 41 99q40 40 99 40q58 0 98 -40q41 -41 41 -99q0 -59 -41 -100zM604 -319q-40 -41 -99 -41t-98 40q-39 41 -39 101q0 58 39 99q40 40 98 40q59 0 99 -40t40 -99t-40 -100
zM424 -585q-38 -38 -93 -38q-56 0 -93 38q-38 37 -38 93q0 54 38 92t93 38t93 -37t38 -93q0 -55 -38 -93z" />
    <glyph glyph-name="uni06B8.medi" unicode="&#x6b8;" horiz-adv-x="718" 
d="M0 254h233v1190h326v-1190h191v-254h-750v254zM263 -319q-40 -41 -98 -41q-59 0 -99 40q-41 41 -41 101q0 58 41 99q40 40 99 40q58 0 98 -40q41 -41 41 -99q0 -59 -41 -100zM614 -319q-40 -41 -99 -41t-98 40q-39 41 -39 101q0 58 39 99q40 40 98 40q59 0 99 -40t40 -99
t-40 -100zM434 -585q-38 -38 -93 -38q-56 0 -93 38q-38 37 -38 93q0 54 38 92t93 38t93 -37t38 -93q0 -55 -38 -93z" />
    <glyph glyph-name="uni06B8.fina" unicode="&#x6b8;" horiz-adv-x="1349" 
d="M880 1444h323v-1190h176v-254h-190q-73 -471 -565 -471q-543 0 -543 590q0 173 47 352l336 59q-59 -196 -59 -380q0 -367 243 -367q232 0 232 373v1288zM564 -778q-40 -41 -98 -41q-59 0 -99 40q-41 41 -41 101q0 58 41 99q40 40 99 40q58 0 98 -40q41 -41 41 -99
q0 -59 -41 -100zM915 -778q-40 -41 -99 -41t-98 40q-39 41 -39 101q0 58 39 99q40 40 98 40q59 0 99 -40t40 -99t-40 -100zM735 -1044q-38 -38 -93 -38q-56 0 -93 38q-38 37 -38 93q0 54 38 92t93 38t93 -37t38 -93q0 -55 -38 -93z" />
    <glyph glyph-name="uni06B9.init" unicode="&#x6b9;" horiz-adv-x="735" 
d="M325 1149q-46 47 -46 115q0 66 46 113q47 46 113 46q68 0 115 -46t47 -113q0 -68 -47 -115t-115 -47q-66 0 -113 47zM0 254h276v709h326v-963h-602v254zM166 -421q-47 47 -47 114t47 113q46 47 113 47t114 -47q47 -46 47 -113q0 -68 -47 -114t-114 -46t-113 46z" />
    <glyph glyph-name="uni06B9.medi" unicode="&#x6b9;" horiz-adv-x="755" 
d="M0 254h276v709h326v-709h184v-254h-786v254zM325 1149q-46 47 -46 115q0 66 46 113q47 46 113 46q68 0 115 -46t47 -113q0 -68 -47 -115t-115 -47q-66 0 -113 47zM166 -421q-47 47 -47 114t47 113q46 47 113 47t114 -47q47 -46 47 -113q0 -68 -47 -114t-114 -46t-113 46z
" />
    <glyph glyph-name="uni06B9.fina" unicode="&#x6b9;" horiz-adv-x="1368" 
d="M1214 254h185v-254h-197q-74 -471 -592 -471q-559 0 -559 590q0 173 47 352l336 59q-59 -196 -59 -380q0 -367 260 -367q130 0 190 79q66 87 66 290v811h323v-709zM483 715q-47 47 -47 114q0 66 47 113t113 47q68 0 114 -46q48 -46 48 -114q0 -67 -48 -114
q-47 -47 -114 -47q-66 0 -113 47zM487 -823q-47 47 -47 114q0 66 47 113t113 47q68 0 115 -46t47 -114q0 -67 -47 -114q-48 -47 -115 -47q-66 0 -113 47z" />
    <glyph glyph-name="uni06BC.init" unicode="&#x6bc;" horiz-adv-x="827" 
d="M422 1143q-44 46 -44 112t44 112t110 46q64 0 109 -46q44 -47 44 -112q0 -66 -44 -112q-45 -47 -109 -47q-66 0 -110 47zM393 -130q0 130 -116 130q-60 0 -94 -33q-32 -31 -32 -77q0 -119 171 -119h71v99zM38 0h-38v254h369v709h323v-963h-191q15 -43 15 -99v-253h-232
q-272 0 -272 231q0 68 26 121z" />
    <glyph glyph-name="uni06BC.medi" unicode="&#x6bc;" horiz-adv-x="825" 
d="M342 1143q-44 46 -44 112t44 112t110 46q64 0 109 -46q44 -47 44 -112q0 -66 -44 -112q-45 -47 -109 -47q-66 0 -110 47zM393 -130q0 130 -116 130q-60 0 -94 -33q-32 -31 -32 -77q0 -119 171 -119h71v99zM38 0h-38v254h276v709h326v-709h256v-254h-357q15 -43 15 -99
v-253h-232q-272 0 -272 231q0 68 26 121z" />
    <glyph glyph-name="uni06BC.fina" unicode="&#x6bc;" horiz-adv-x="1368" 
d="M747 -602q0 130 -116 130q-60 0 -94 -33q-32 -31 -32 -77q0 -119 171 -119h71v99zM483 715q-47 47 -47 114q0 66 47 113t113 47q68 0 114 -46q48 -46 48 -114q0 -67 -48 -114q-47 -47 -114 -47q-66 0 -113 47zM406 -447q-355 96 -355 566q0 173 47 352l336 59
q-59 -196 -59 -380q0 -367 260 -367q130 0 190 79q66 87 66 290v811h323v-709h185v-254h-197q-55 -353 -360 -441q28 -53 28 -130v-253h-232q-272 0 -272 231q0 85 40 146z" />
    <glyph glyph-name="uni06BD.init" unicode="&#x6bd;" horiz-adv-x="735" 
d="M0 254h276v709h326v-963h-602v254zM299 1460q-41 42 -41 103q0 60 41 102q41 43 100 43q60 0 100 -43q40 -42 40 -102q0 -61 -40 -103q-40 -43 -100 -43q-59 0 -100 43zM472 1143q-44 46 -44 112t44 112t110 46q64 0 109 -46q44 -47 44 -112q0 -66 -44 -112
q-45 -47 -109 -47q-66 0 -110 47zM108 1143q-45 46 -45 112q0 65 45 112q45 46 109 46q65 0 110 -46q44 -46 44 -112t-44 -112q-44 -47 -110 -47q-64 0 -109 47z" />
    <glyph glyph-name="uni06BD.medi" unicode="&#x6bd;" horiz-adv-x="755" 
d="M0 254h276v709h326v-709h184v-254h-786v254zM472 1143q-44 46 -44 112t44 112t110 46q64 0 109 -46q44 -47 44 -112q0 -66 -44 -112q-45 -47 -109 -47q-66 0 -110 47zM108 1143q-45 46 -45 112q0 65 45 112q45 46 109 46q65 0 110 -46q44 -46 44 -112t-44 -112
q-44 -47 -110 -47q-64 0 -109 47zM299 1460q-41 42 -41 103q0 60 41 102q41 43 100 43q60 0 100 -43q40 -42 40 -102q0 -61 -40 -103q-40 -43 -100 -43q-59 0 -100 43z" />
    <glyph glyph-name="uni06BD.fina" unicode="&#x6bd;" horiz-adv-x="1368" 
d="M1214 254h185v-254h-197q-74 -471 -592 -471q-559 0 -559 590q0 173 47 352l336 59q-59 -196 -59 -380q0 -367 260 -367q130 0 190 79q66 87 66 290v811h323v-709zM479 1370q-41 42 -41 103q0 60 41 102q41 43 100 43q60 0 100 -43q40 -42 40 -102q0 -61 -40 -103
q-40 -43 -100 -43q-59 0 -100 43zM652 1053q-44 46 -44 112t44 112t110 46q64 0 109 -46q44 -47 44 -112q0 -66 -44 -112q-45 -47 -109 -47q-66 0 -110 47zM288 1053q-45 46 -45 112q0 65 45 112q45 46 109 46q65 0 110 -46q44 -46 44 -112t-44 -112q-44 -47 -110 -47
q-64 0 -109 47z" />
    <glyph glyph-name="uni06BF.init" unicode="&#x6bf;" horiz-adv-x="1183" 
d="M0 254h758q6 52 6 121q0 348 -369 348q-132 0 -239 -18v251q123 21 272 21q344 0 504 -150q153 -144 153 -444q0 -174 -34 -383h-1051v254zM581 -585q-38 -38 -94 -38q-55 0 -93 38q-38 37 -38 93q0 54 38 92t93 38q56 0 94 -37q37 -37 37 -93q0 -55 -37 -93zM761 -319
q-40 -41 -99 -41t-98 40q-40 41 -40 101q0 58 40 99q39 40 98 40t99 -40t40 -99t-40 -100zM410 -319q-41 -41 -99 -41t-99 40q-40 41 -40 101q0 58 40 99q41 40 99 40q59 0 99 -40q41 -41 41 -99q0 -59 -41 -100zM597 1368q46 -44 46 -109q0 -64 -46 -109t-112 -45
q-65 0 -111 45t-46 109t46 109t111 45q66 0 112 -45z" />
    <glyph glyph-name="uni06BF.medi" unicode="&#x6bf;" horiz-adv-x="1189" 
d="M0 254h758q6 52 6 121q0 348 -369 348q-132 0 -239 -18v251q123 21 272 21q344 0 504 -150q153 -144 153 -444q0 -39 -4 -129h142v-254h-1223v254zM410 -319q-41 -41 -99 -41t-99 40q-40 41 -40 101q0 58 40 99q41 40 99 40q59 0 99 -40q41 -41 41 -99q0 -59 -41 -100z
M761 -319q-40 -41 -99 -41t-98 40q-40 41 -40 101q0 58 40 99q39 40 98 40t99 -40t40 -99t-40 -100zM581 -585q-38 -38 -94 -38q-55 0 -93 38q-38 37 -38 93q0 54 38 92t93 38q56 0 94 -37q37 -37 37 -93q0 -55 -37 -93zM597 1368q46 -44 46 -109q0 -64 -46 -109t-112 -45
q-65 0 -111 45t-46 109t46 109t111 45q66 0 112 -45z" />
    <glyph glyph-name="uni06BF.fina" unicode="&#x6bf;" horiz-adv-x="1290" 
d="M702 0q-354 0 -354 -213q0 -145 184 -180l-72 -260q-434 78 -434 426q0 216 165 343q180 138 519 138h145q9 70 9 119q0 350 -369 350q-131 0 -242 -18v251q123 21 273 21q344 0 504 -150q153 -144 153 -444q0 -39 -4 -129h141v-254h-618zM799 -319q-41 -41 -99 -41
q-59 0 -99 40q-40 41 -40 101q0 58 40 99q40 40 99 40q58 0 99 -40q40 -41 40 -99q0 -59 -40 -100zM1150 -319q-41 -41 -100 -41q-58 0 -98 40q-39 41 -39 101q0 58 39 99q40 40 98 40q60 0 100 -40q39 -40 39 -99t-39 -100zM969 -585q-38 -38 -93 -38q-56 0 -93 38
q-38 37 -38 93q0 54 38 92t93 38t93 -37t38 -93q0 -55 -38 -93zM757 1368q46 -44 46 -109q0 -64 -46 -109t-112 -45q-65 0 -111 45t-46 109t46 109t111 45q66 0 112 -45z" />
    <glyph glyph-name="uni06C2.fina" unicode="&#x6c2;" horiz-adv-x="1167" 
d="M1198 0h-58q-516 0 -516 426v37q-196 -50 -366 -303l-199 162q291 419 750 419q59 0 127 -6v-227q0 -145 50 -200q50 -54 179 -54h33v-254zM394 1049q58 0 96 -10q-27 20 -27 70q0 104 73 170q85 76 247 76q96 0 127 -11l-27 -178l-35 4q-37 4 -69 4q-88 0 -88 -57
q0 -68 131 -68h118v-180h-546v180z" />
    <glyph glyph-name="uni06C3.fina" unicode="&#x6c3;" horiz-adv-x="1167" 
d="M1198 0h-58q-516 0 -516 426v37q-196 -50 -366 -303l-199 162q291 419 750 419q59 0 127 -6v-227q0 -145 50 -200q50 -54 179 -54h33v-254zM753 915q-44 46 -44 112t44 112t110 46q64 0 109 -46q44 -47 44 -112q0 -66 -44 -112q-45 -47 -109 -47q-66 0 -110 47zM389 915
q-44 46 -44 112q0 65 44 112q45 46 109 46t109 -46q45 -47 45 -112q0 -66 -45 -112q-45 -47 -109 -47t-109 47z" />
    <glyph glyph-name="uni06C4.fina" unicode="&#x6c4;" horiz-adv-x="1257" 
d="M790 705q-63 32 -158 32t-151 -68q-53 -65 -53 -167q0 -248 264 -248h98v451zM717 -184q0 130 -116 130q-60 0 -94 -33q-32 -31 -32 -77q0 -119 171 -119h71v99zM814 -27q-12 62 -49 102q-61 66 -180 66q-129 0 -202 -76q-9 -9 -16 -19q-261 102 -261 425q0 221 132 362
q149 158 425 158q256 0 442 -71v-666h185v-254h-185q-6 -236 -166 -369q-175 -145 -505 -145q-152 0 -305 25l18 260q97 -20 199 -27q-10 36 -10 81q0 110 67 180q73 76 202 76q119 0 180 -66q17 -19 29 -42z" />
    <glyph glyph-name="uni06CA.fina" unicode="&#x6ca;" horiz-adv-x="1257" 
d="M129 -489l18 260q149 -31 313 -31q330 0 330 244v16h-131q-553 0 -553 471q0 221 132 362q149 158 425 158q256 0 442 -71v-666h185v-254h-185q-6 -236 -166 -369q-175 -145 -505 -145q-152 0 -305 25zM790 705q-63 32 -158 32t-151 -68q-53 -65 -53 -167
q0 -248 264 -248h98v451zM702 1143q-44 46 -44 112t44 112t110 46q64 0 109 -46q44 -47 44 -112q0 -66 -44 -112q-45 -47 -109 -47q-66 0 -110 47zM338 1143q-45 46 -45 112q0 65 45 112q45 46 109 46q65 0 110 -46q44 -46 44 -112t-44 -112q-44 -47 -110 -47q-64 0 -109 47
z" />
    <glyph glyph-name="uni06CD.fina" unicode="&#x6cd;" horiz-adv-x="2449" 
d="M877 977q-65 -148 -65 -330q0 -208 107 -299q111 -94 374 -94h115v698q198 39 438 39q264 0 380 -123q101 -109 101 -333v-281h152v-254h-463v504q0 132 -39 182q-40 51 -150 51q-55 0 -108 -10v-727h-459q-776 0 -776 614q0 22 1 43q-116 -31 -243 -31q-74 0 -156 8v191
q226 -29 791 152z" />
    <glyph glyph-name="uni06CE.init" unicode="&#x6ce;" horiz-adv-x="827" 
d="M0 254h369v709h323v-963h-692v254zM648 -419q-45 -46 -109 -46q-66 0 -110 46q-44 45 -44 112q0 65 44 111t110 46q64 0 109 -46q44 -46 44 -111q0 -66 -44 -112zM283 -419q-44 -46 -109 -46q-64 0 -109 46t-45 112q0 65 45 111t109 46t109 -46t45 -111q0 -66 -45 -112z
M506 1066l-313 270l110 135l205 -154l205 154l109 -135z" />
    <glyph glyph-name="uni06CE.medi" unicode="&#x6ce;" horiz-adv-x="825" 
d="M0 254h276v709h326v-709h256v-254h-858v254zM648 -419q-45 -46 -109 -46q-66 0 -110 46q-44 45 -44 112q0 65 44 111t110 46q64 0 109 -46q44 -46 44 -111q0 -66 -44 -112zM283 -419q-44 -46 -109 -46q-64 0 -109 46t-45 112q0 65 45 111t109 46t109 -46t45 -111
q0 -66 -45 -112zM436 1066l-313 270l110 135l205 -154l205 154l109 -135z" />
    <glyph glyph-name="uni06CE.fina" unicode="&#x6ce;" horiz-adv-x="2048" 
d="M859 0q-776 0 -776 614q0 155 47 308l346 55q-65 -148 -65 -330q0 -208 107 -299q111 -94 374 -94h115v698q198 39 438 39q264 0 380 -123q101 -109 101 -333v-281h152v-254h-463v504q0 132 -39 182q-40 51 -150 51q-55 0 -108 -10v-727h-459zM726 996l-313 270l110 135
l205 -154l205 154l109 -135z" />
    <glyph glyph-name="uni06CF.fina" unicode="&#x6cf;" horiz-adv-x="1257" 
d="M129 -489l18 260q149 -31 313 -31q330 0 330 244v16h-131q-553 0 -553 471q0 221 132 362q149 158 425 158q256 0 442 -71v-666h185v-254h-185q-6 -236 -166 -369q-175 -145 -505 -145q-152 0 -305 25zM790 705q-63 32 -158 32t-151 -68q-53 -65 -53 -167
q0 -248 264 -248h98v451zM532 1143q-44 46 -44 112t44 112t110 46q64 0 109 -46q44 -47 44 -112q0 -66 -44 -112q-45 -47 -109 -47q-66 0 -110 47z" />
    <glyph glyph-name="uni06D1.init" unicode="&#x6d1;" horiz-adv-x="827" 
d="M0 254h369v709h323v-963h-692v254zM464 -585q-38 -38 -93 -38q-56 0 -93 38q-38 37 -38 93q0 54 38 92t93 38t93 -37t38 -93q0 -55 -38 -93zM644 -319q-40 -41 -99 -41t-98 40q-39 41 -39 101q0 58 39 99q40 40 98 40q59 0 99 -40t40 -99t-40 -100zM293 -319
q-40 -41 -98 -41q-59 0 -99 40q-41 41 -41 101q0 58 41 99q40 40 99 40q58 0 98 -40q41 -41 41 -99q0 -59 -41 -100z" />
    <glyph glyph-name="uni06D1.medi" unicode="&#x6d1;" horiz-adv-x="845" 
d="M0 254h369v709h323v-709h187v-254h-879v254zM293 -319q-40 -41 -98 -41q-59 0 -99 40q-41 41 -41 101q0 58 41 99q40 40 99 40q58 0 98 -40q41 -41 41 -99q0 -59 -41 -100zM644 -319q-40 -41 -99 -41t-98 40q-39 41 -39 101q0 58 39 99q40 40 98 40q59 0 99 -40t40 -99
t-40 -100zM464 -585q-38 -38 -93 -38q-56 0 -93 38q-38 37 -38 93q0 54 38 92t93 38t93 -37t38 -93q0 -55 -38 -93z" />
    <glyph glyph-name="uni06D1.fina" unicode="&#x6d1;" horiz-adv-x="2048" 
d="M859 0q-776 0 -776 614q0 155 47 308l346 55q-65 -148 -65 -330q0 -208 107 -299q111 -94 374 -94h115v698q198 39 438 39q264 0 380 -123q101 -109 101 -333v-281h152v-254h-463v504q0 132 -39 182q-40 51 -150 51q-55 0 -108 -10v-727h-459zM894 -605q-38 -38 -93 -38
q-56 0 -93 38q-38 37 -38 93q0 54 38 92t93 38t93 -37t38 -93q0 -55 -38 -93zM1074 -339q-40 -41 -99 -41t-98 40q-39 41 -39 101q0 58 39 99q40 40 98 40q59 0 99 -40t40 -99t-40 -100zM723 -339q-40 -41 -98 -41q-59 0 -99 40q-41 41 -41 101q0 58 41 99q40 40 99 40
q58 0 98 -40q41 -41 41 -99q0 -59 -41 -100z" />
    <glyph glyph-name="uni06D5.fina" unicode="&#x6d5;" horiz-adv-x="1222" 
d="M622 0q-553 0 -553 471q0 221 132 362q149 158 425 158q256 0 442 -71v-666h185v-254h-631zM753 705q-63 32 -158 32t-151 -68q-53 -65 -53 -167q0 -248 264 -248h98v451z" />
    <glyph glyph-name="uni06EE.fina" unicode="&#x6ee;" horiz-adv-x="1058" 
d="M86 254h575q-25 399 -460 496l75 268q656 -155 699 -764h117v-254h-1006v254zM714 1234l-109 -135l-205 154l-205 -154l-110 135l313 270z" />
    <glyph glyph-name="uni06EF.fina" unicode="&#x6ef;" horiz-adv-x="845" 
d="M20 -504l23 256q62 -16 139 -16q94 0 138 50q48 57 48 194v983h324v-709h186v-254h-186v-8q0 -508 -527 -508q-77 0 -145 12zM844 1234l-109 -135l-205 154l-205 -154l-110 135l313 270z" />
    <glyph glyph-name="uni06FA.init" unicode="&#x6fa;" horiz-adv-x="1878" 
d="M0 254h111q94 0 129 47q36 49 36 191v348h326v-381q0 -127 26 -175q26 -46 95 -46q135 0 135 219v465h309v-506q0 -98 40 -130t165 -32h45q13 120 13 221q0 263 -54 537l316 43q61 -269 61 -561q0 -251 -27 -494h-409q-274 0 -352 127q-74 -143 -306 -143
q-226 0 -280 149q-62 -133 -273 -133h-106v254zM901 1460q-41 42 -41 103q0 60 41 102q41 43 100 43q60 0 100 -43q40 -42 40 -102q0 -61 -40 -103q-40 -43 -100 -43q-59 0 -100 43zM1074 1143q-44 46 -44 112t44 112t110 46q64 0 109 -46q44 -47 44 -112q0 -66 -44 -112
q-45 -47 -109 -47q-66 0 -110 47zM710 1143q-44 46 -44 112q0 65 44 112q45 46 109 46q66 0 110 -46t44 -112t-44 -112q-44 -47 -110 -47q-64 0 -109 47zM899 -421q-47 47 -47 114t47 113q46 47 113 47t114 -47q47 -46 47 -113q0 -68 -47 -114t-114 -46t-113 46z" />
    <glyph glyph-name="uni06FA.medi" unicode="&#x6fa;" horiz-adv-x="1898" 
d="M0 254h111q94 0 129 47q36 49 36 191v348h326v-381q0 -127 26 -175q26 -46 95 -46q135 0 135 219v465h309v-506q0 -98 40 -130t165 -32h45q13 120 13 221q0 263 -54 537l316 43q61 -269 61 -561q0 -117 -6 -240h180v-254h-610q-274 0 -352 127q-74 -143 -306 -143
q-226 0 -280 149q-62 -133 -273 -133h-106v254zM1074 1143q-44 46 -44 112t44 112t110 46q64 0 109 -46q44 -47 44 -112q0 -66 -44 -112q-45 -47 -109 -47q-66 0 -110 47zM710 1143q-44 46 -44 112q0 65 44 112q45 46 109 46q66 0 110 -46t44 -112t-44 -112
q-44 -47 -110 -47q-64 0 -109 47zM901 1460q-41 42 -41 103q0 60 41 102q41 43 100 43q60 0 100 -43q40 -42 40 -102q0 -61 -40 -103q-40 -43 -100 -43q-59 0 -100 43zM899 -421q-47 47 -47 114t47 113q46 47 113 47t114 -47q47 -46 47 -113q0 -68 -47 -114t-114 -46
t-113 46z" />
    <glyph glyph-name="uni06FA.fina" unicode="&#x6fa;" horiz-adv-x="2500" 
d="M81 119q0 173 47 352l336 59q-59 -196 -59 -380q0 -367 243 -367q232 0 232 367v690h323v-381q0 -126 31 -175q28 -46 96 -46q73 0 103 52q28 50 28 167v465h308v-506q0 -96 41 -129t163 -33h47q11 133 11 221q0 280 -54 537l318 43q61 -284 61 -561q0 -76 -8 -240h182
v-254h-610q-285 0 -352 127q-40 -83 -136 -118q-63 -22 -116 -19q-94 0 -129 45q0 -255 -166 -388q-149 -118 -397 -118q-543 0 -543 590zM1685 1143q-43 46 -43 112t43 112q45 46 110 46q64 0 109 -46q45 -47 45 -112q0 -66 -45 -112q-45 -47 -109 -47q-65 0 -110 47z
M1322 1143q-45 46 -45 112q0 65 45 112q45 46 109 46q65 0 109 -46t44 -112t-44 -112q-44 -47 -109 -47t-109 47zM1512 1460q-40 42 -40 103q0 60 40 102q41 43 101 43q59 0 99 -43q40 -42 40 -102q0 -61 -40 -103q-40 -43 -99 -43q-60 0 -101 43zM1509 -421q-47 47 -47 114
t47 113q46 47 113 47t114 -47q47 -46 47 -113q0 -68 -47 -114t-114 -46t-113 46z" />
    <glyph glyph-name="uni06FB.init" unicode="&#x6fb;" horiz-adv-x="1564" 
d="M0 254h262v709h324v-31q0 -148 -25 -262h2q64 151 203 238q131 83 287 83q221 0 337 -125q111 -121 111 -340q0 -241 -148 -376q-165 -150 -497 -150h-856v254zM883 254q286 0 286 254q0 225 -182 225q-136 0 -253 -141q-115 -138 -152 -338h301zM878 1149
q-47 47 -47 115q0 66 47 113q47 46 113 46q68 0 115 -46t47 -113q0 -68 -47 -115t-115 -47q-66 0 -113 47zM869 -421q-47 47 -47 114t47 113q46 47 113 47t114 -47q47 -46 47 -113q0 -68 -47 -114t-114 -46t-113 46z" />
    <glyph glyph-name="uni06FB.medi" unicode="&#x6fb;" horiz-adv-x="1544" 
d="M0 254h262v709h324v-31q0 -148 -25 -262h2q64 151 203 238q131 83 287 83q221 0 337 -125q111 -121 111 -340q0 -159 -65 -272h151v-254h-1587v254zM899 254q270 5 270 254q0 225 -182 225q-136 0 -253 -141q-115 -138 -152 -338h317zM878 1149q-47 47 -47 115
q0 66 47 113q47 46 113 46q68 0 115 -46t47 -113q0 -68 -47 -115t-115 -47q-66 0 -113 47zM869 -421q-47 47 -47 114t47 113q46 47 113 47t114 -47q47 -46 47 -113q0 -68 -47 -114t-114 -46t-113 46z" />
    <glyph glyph-name="uni06FB.fina" unicode="&#x6fb;" horiz-adv-x="2193" 
d="M81 119q0 173 47 352l336 59q-59 -196 -59 -380q0 -367 243 -367q232 0 232 367v813h323v-31q0 -148 -24 -262h4q63 151 201 238q131 83 288 83q220 0 337 -125q112 -121 112 -340q0 -155 -68 -272h185v-254h-1051q-55 -471 -563 -471q-543 0 -543 590zM1517 254
q270 5 270 254q0 225 -182 225q-137 0 -254 -141q-114 -138 -152 -338h318zM1529 1149q-47 47 -47 115q0 66 47 113q47 46 113 46q67 0 114 -46t47 -113q0 -68 -47 -115t-114 -47t-113 47zM1519 -421q-47 47 -47 114t47 113q46 47 113 47t114 -47q47 -46 47 -113
q0 -68 -47 -114t-114 -46t-113 46z" />
    <glyph glyph-name="uni06FC.init" unicode="&#x6fc;" horiz-adv-x="1093" 
d="M0 254h258q-119 87 -119 266q0 203 137 331q150 140 418 140q135 0 248 -35l-57 -256q-82 37 -193 37q-101 0 -164 -61t-63 -158q0 -121 100 -190q109 -74 316 -74h153v-254h-1034v254zM737 -157q46 -45 46 -109q0 -66 -46 -110q-45 -44 -112 -44q-65 0 -111 44t-46 110
q0 64 46 109q46 44 111 44q66 0 112 -44zM747 1368q46 -44 46 -109q0 -64 -46 -109t-112 -45q-65 0 -111 45t-46 109t46 109t111 45q66 0 112 -45z" />
    <glyph glyph-name="uni06FC.medi" unicode="&#x6fc;" horiz-adv-x="1292" 
d="M0 254h74q249 0 420 41q-235 218 -385 256l26 231q307 215 592 215q228 0 349 -103q108 -92 108 -243q0 -204 -180 -368q82 -29 178 -29h141v-254h-176q-234 0 -424 113q-282 -113 -666 -113h-57v254zM770 420q92 80 92 190q0 152 -172 152q-107 0 -256 -96
q53 -23 336 -246zM807 -147q46 -45 46 -109q0 -66 -46 -110q-45 -44 -112 -44q-65 0 -111 44t-46 110q0 64 46 109q46 44 111 44q66 0 112 -44zM807 1378q46 -44 46 -109q0 -64 -46 -109t-112 -45q-65 0 -111 45t-46 109t46 109t111 45q66 0 112 -45z" />
    <glyph glyph-name="uni06FC.fina" unicode="&#x6fc;" horiz-adv-x="1292" 
d="M185 -411q-138 96 -138 257q0 167 141 285q89 75 301 168q-235 215 -381 252l27 231q307 215 592 215q228 0 349 -103q108 -92 108 -243q0 -209 -197 -362q89 -35 195 -35h141v-254h-176q-249 0 -447 127q-175 -83 -224 -115q-97 -64 -97 -133q0 -132 245 -144l14 -255
q-299 0 -453 109zM754 432q108 78 108 178q0 152 -172 152q-107 0 -256 -96q55 -24 320 -234zM810 1386q46 -44 46 -109q0 -64 -46 -109t-112 -45q-65 0 -111 45t-46 109t46 109t111 45q66 0 112 -45zM957 -249q46 -45 46 -109q0 -66 -46 -110q-45 -44 -112 -44
q-65 0 -111 44t-46 110q0 64 46 109q46 44 111 44q66 0 112 -44z" />
    <glyph glyph-name="uni06FF.init" unicode="&#x6ff;" horiz-adv-x="1571" 
d="M0 0v254h127q63 0 104 -14q-32 45 -32 102q0 151 104 246q109 100 297 100q202 0 301 -121q86 -106 86 -286v-27h172v14q0 284 -128 421q-135 145 -427 145q-213 0 -440 -76l-31 229q256 82 508 82q825 0 825 -833v-236h-1466zM729 289q0 203 -151 203q-123 0 -123 -115
q0 -133 170 -133h104v45zM952 1297l-109 -135l-205 154l-205 -154l-110 135l313 270z" />
    <glyph glyph-name="uni06FF.medi" unicode="&#x6ff;" horiz-adv-x="1353" 
d="M1384 0h-143q-49 0 -168 20v-4q158 -45 158 -223q0 -199 -130 -322q-132 -126 -353 -126q-510 0 -551 655h-197v254h203q59 552 473 815q518 -251 518 -573q0 -180 -125 -252v-4q108 14 164 14h151v-254zM514 0q34 -401 250 -401q68 0 108 49q41 50 41 135
q0 217 -288 217h-111zM514 254h131q238 0 238 188q0 143 -187 260q-154 -154 -182 -448zM992 1297l-109 -135l-205 154l-205 -154l-110 135l313 270z" />
    <glyph glyph-name="uni06FF.fina" unicode="&#x6ff;" horiz-adv-x="1402" 
d="M1433 0h-143q-49 0 -168 20v-4q158 -45 158 -223q0 -199 -130 -322q-132 -126 -353 -126q-510 0 -551 655h-197v254h203q59 552 473 815q518 -251 518 -573q0 -180 -125 -252v-4q108 14 164 14h151v-254zM563 0q34 -401 250 -401q68 0 108 49q41 50 41 135
q0 217 -288 217h-111zM563 254h131q238 0 238 188q0 143 -187 260q-154 -154 -182 -448zM1042 1297l-109 -135l-205 154l-205 -154l-110 135l313 270z" />
    <glyph glyph-name="uniFB50" unicode="&#x671;" horiz-adv-x="645" arabic-form="isolated" 
d="M457 1673v31q0 121 -68 121q-100 0 -143 -152h211zM-4 1673h84q94 289 326 289q95 0 150 -62q56 -65 56 -180v-188h-616v141zM160 1382h323v-1382h-323v1382z" />
    <glyph glyph-name="uniFB51" unicode="&#x671;" horiz-adv-x="645" arabic-form="final" 
d="M160 1382h323v-1128h193v-254h-516v1382zM-4 1673h84q94 289 326 289q95 0 150 -62q56 -65 56 -180v-188h-616v141zM457 1673v31q0 121 -68 121q-100 0 -143 -152h211z" />
    <glyph glyph-name="uniFB52" unicode="&#x67b;" horiz-adv-x="1583" arabic-form="isolated" 
d="M859 0q-776 0 -776 614q0 155 47 308l346 55q-65 -148 -65 -330q0 -208 107 -299q111 -94 374 -94h231v709h326v-963h-590zM920 -192q46 -45 46 -109q0 -66 -46 -110q-45 -44 -112 -44q-65 0 -111 44t-46 110q0 64 46 109q46 44 111 44q66 0 112 -44zM920 -557
q46 -44 46 -109q0 -64 -46 -109t-112 -45q-65 0 -111 45t-46 109t46 109t111 45q66 0 112 -45z" />
    <glyph glyph-name="uniFB53" unicode="&#x67b;" horiz-adv-x="1603" arabic-form="final" 
d="M859 0q-776 0 -776 614q0 155 47 308l346 55q-65 -148 -65 -330q0 -208 107 -299q111 -94 374 -94h231v709h326v-709h184v-254h-774zM920 -192q46 -45 46 -109q0 -66 -46 -110q-45 -44 -112 -44q-65 0 -111 44t-46 110q0 64 46 109q46 44 111 44q66 0 112 -44zM920 -557
q46 -44 46 -109q0 -64 -46 -109t-112 -45q-65 0 -111 45t-46 109t46 109t111 45q66 0 112 -45z" />
    <glyph glyph-name="uniFB54" unicode="&#x67b;" horiz-adv-x="735" arabic-form="initial" 
d="M0 254h276v709h326v-963h-602v254zM390 -192q46 -45 46 -109q0 -66 -46 -110q-45 -44 -112 -44q-65 0 -111 44t-46 110q0 64 46 109q46 44 111 44q66 0 112 -44zM390 -557q46 -44 46 -109q0 -64 -46 -109t-112 -45q-65 0 -111 45t-46 109t46 109t111 45q66 0 112 -45z
" />
    <glyph glyph-name="uniFB55" unicode="&#x67b;" horiz-adv-x="755" arabic-form="medial" 
d="M0 254h276v709h326v-709h184v-254h-786v254zM390 -192q46 -45 46 -109q0 -66 -46 -110q-45 -44 -112 -44q-65 0 -111 44t-46 110q0 64 46 109q46 44 111 44q66 0 112 -44zM390 -557q46 -44 46 -109q0 -64 -46 -109t-112 -45q-65 0 -111 45t-46 109t46 109t111 45
q66 0 112 -45z" />
    <glyph glyph-name="uniFB56" unicode="&#x67e;" horiz-adv-x="1583" arabic-form="isolated" 
d="M859 0q-776 0 -776 614q0 155 47 308l346 55q-65 -148 -65 -330q0 -208 107 -299q111 -94 374 -94h231v709h326v-963h-590zM942 -585q-38 -38 -93 -38q-56 0 -93 38q-38 37 -38 93q0 54 38 92t93 38t93 -37t38 -93q0 -55 -38 -93zM1123 -319q-41 -41 -100 -41
q-58 0 -98 40q-39 41 -39 101q0 58 39 99q40 40 98 40q60 0 100 -40q39 -40 39 -99t-39 -100zM772 -319q-41 -41 -99 -41q-59 0 -99 40q-40 41 -40 101q0 58 40 99q40 40 99 40q58 0 99 -40q40 -41 40 -99q0 -59 -40 -100z" />
    <glyph glyph-name="uniFB57" unicode="&#x67e;" horiz-adv-x="1603" arabic-form="final" 
d="M859 0q-776 0 -776 614q0 155 47 308l346 55q-65 -148 -65 -330q0 -208 107 -299q111 -94 374 -94h231v709h326v-709h184v-254h-774zM772 -319q-41 -41 -99 -41q-59 0 -99 40q-40 41 -40 101q0 58 40 99q40 40 99 40q58 0 99 -40q40 -41 40 -99q0 -59 -40 -100z
M1123 -319q-41 -41 -100 -41q-58 0 -98 40q-39 41 -39 101q0 58 39 99q40 40 98 40q60 0 100 -40q39 -40 39 -99t-39 -100zM942 -585q-38 -38 -93 -38q-56 0 -93 38q-38 37 -38 93q0 54 38 92t93 38t93 -37t38 -93q0 -55 -38 -93z" />
    <glyph glyph-name="uniFB58" unicode="&#x67e;" horiz-adv-x="827" arabic-form="initial" 
d="M0 254h369v709h323v-963h-692v254zM464 -585q-38 -38 -93 -38q-56 0 -93 38q-38 37 -38 93q0 54 38 92t93 38t93 -37t38 -93q0 -55 -38 -93zM644 -319q-40 -41 -99 -41t-98 40q-39 41 -39 101q0 58 39 99q40 40 98 40q59 0 99 -40t40 -99t-40 -100zM293 -319
q-40 -41 -98 -41q-59 0 -99 40q-41 41 -41 101q0 58 41 99q40 40 99 40q58 0 98 -40q41 -41 41 -99q0 -59 -41 -100z" />
    <glyph glyph-name="uniFB59" unicode="&#x67e;" horiz-adv-x="845" arabic-form="medial" 
d="M0 254h369v709h323v-709h187v-254h-879v254zM293 -319q-40 -41 -98 -41q-59 0 -99 40q-41 41 -41 101q0 58 41 99q40 40 99 40q58 0 98 -40q41 -41 41 -99q0 -59 -41 -100zM644 -319q-40 -41 -99 -41t-98 40q-39 41 -39 101q0 58 39 99q40 40 98 40q59 0 99 -40t40 -99
t-40 -100zM464 -585q-38 -38 -93 -38q-56 0 -93 38q-38 37 -38 93q0 54 38 92t93 38t93 -37t38 -93q0 -55 -38 -93z" />
    <glyph glyph-name="uniFB5A" unicode="&#x680;" horiz-adv-x="1583" arabic-form="isolated" 
d="M859 0q-776 0 -776 614q0 155 47 308l346 55q-65 -148 -65 -330q0 -208 107 -299q111 -94 374 -94h231v709h326v-963h-590zM1119 -644q-40 -41 -99 -41t-98 40q-39 41 -39 101q0 58 39 99q40 40 98 40q59 0 99 -40t40 -99t-40 -100zM768 -644q-40 -41 -98 -41
q-59 0 -99 40q-41 41 -41 101q0 58 41 99q40 40 99 40q58 0 98 -40q41 -41 41 -99q0 -59 -41 -100zM1119 -322q-40 -41 -99 -41t-98 40q-39 41 -39 101q0 58 39 99q40 40 98 40q59 0 99 -40t40 -99t-40 -100zM768 -322q-40 -41 -98 -41q-59 0 -99 40q-41 41 -41 101
q0 58 41 99q40 40 99 40q58 0 98 -40q41 -41 41 -99q0 -59 -41 -100z" />
    <glyph glyph-name="uniFB5B" unicode="&#x680;" horiz-adv-x="1603" arabic-form="final" 
d="M859 0q-776 0 -776 614q0 155 47 308l346 55q-65 -148 -65 -330q0 -208 107 -299q111 -94 374 -94h231v709h326v-709h184v-254h-774zM1119 -644q-40 -41 -99 -41t-98 40q-39 41 -39 101q0 58 39 99q40 40 98 40q59 0 99 -40t40 -99t-40 -100zM768 -644q-40 -41 -98 -41
q-59 0 -99 40q-41 41 -41 101q0 58 41 99q40 40 99 40q58 0 98 -40q41 -41 41 -99q0 -59 -41 -100zM1119 -322q-40 -41 -99 -41t-98 40q-39 41 -39 101q0 58 39 99q40 40 98 40q59 0 99 -40t40 -99t-40 -100zM768 -322q-40 -41 -98 -41q-59 0 -99 40q-41 41 -41 101
q0 58 41 99q40 40 99 40q58 0 98 -40q41 -41 41 -99q0 -59 -41 -100z" />
    <glyph glyph-name="uniFB5C" unicode="&#x680;" horiz-adv-x="827" arabic-form="initial" 
d="M0 254h369v709h323v-963h-692v254zM644 -641q-40 -41 -99 -41t-98 40q-39 41 -39 101q0 58 39 99q40 40 98 40q59 0 99 -40t40 -99t-40 -100zM293 -641q-40 -41 -98 -41q-59 0 -99 40q-41 41 -41 101q0 58 41 99q40 40 99 40q58 0 98 -40q41 -41 41 -99q0 -59 -41 -100z
M644 -319q-40 -41 -99 -41t-98 40q-39 41 -39 101q0 58 39 99q40 40 98 40q59 0 99 -40t40 -99t-40 -100zM293 -319q-40 -41 -98 -41q-59 0 -99 40q-41 41 -41 101q0 58 41 99q40 40 99 40q58 0 98 -40q41 -41 41 -99q0 -59 -41 -100z" />
    <glyph glyph-name="uniFB5D" unicode="&#x680;" horiz-adv-x="845" arabic-form="medial" 
d="M0 254h369v709h323v-709h187v-254h-879v254zM644 -641q-40 -41 -99 -41t-98 40q-39 41 -39 101q0 58 39 99q40 40 98 40q59 0 99 -40t40 -99t-40 -100zM293 -641q-40 -41 -98 -41q-59 0 -99 40q-41 41 -41 101q0 58 41 99q40 40 99 40q58 0 98 -40q41 -41 41 -99
q0 -59 -41 -100zM644 -319q-40 -41 -99 -41t-98 40q-39 41 -39 101q0 58 39 99q40 40 98 40q59 0 99 -40t40 -99t-40 -100zM293 -319q-40 -41 -98 -41q-59 0 -99 40q-41 41 -41 101q0 58 41 99q40 40 99 40q58 0 98 -40q41 -41 41 -99q0 -59 -41 -100z" />
    <glyph glyph-name="uniFB5E" unicode="&#x67a;" horiz-adv-x="1583" arabic-form="isolated" 
d="M859 0q-776 0 -776 614q0 155 47 308l346 55q-65 -148 -65 -330q0 -208 107 -299q111 -94 374 -94h231v709h326v-963h-590zM934 1723q46 -45 46 -109q0 -66 -46 -110q-45 -44 -112 -44q-65 0 -111 44t-46 110q0 64 46 109q46 44 111 44q66 0 112 -44zM934 1358
q46 -44 46 -109q0 -64 -46 -109t-112 -45q-65 0 -111 45t-46 109t46 109t111 45q66 0 112 -45z" />
    <glyph glyph-name="uniFB5F" unicode="&#x67a;" horiz-adv-x="1603" arabic-form="final" 
d="M859 0q-776 0 -776 614q0 155 47 308l346 55q-65 -148 -65 -330q0 -208 107 -299q111 -94 374 -94h231v709h326v-709h184v-254h-774zM934 1723q46 -45 46 -109q0 -66 -46 -110q-45 -44 -112 -44q-65 0 -111 44t-46 110q0 64 46 109q46 44 111 44q66 0 112 -44zM934 1358
q46 -44 46 -109q0 -64 -46 -109t-112 -45q-65 0 -111 45t-46 109t46 109t111 45q66 0 112 -45z" />
    <glyph glyph-name="uniFB60" unicode="&#x67a;" horiz-adv-x="735" arabic-form="initial" 
d="M0 254h276v709h326v-963h-602v254zM554 1733q46 -45 46 -109q0 -66 -46 -110q-45 -44 -112 -44q-65 0 -111 44t-46 110q0 64 46 109q46 44 111 44q66 0 112 -44zM554 1368q46 -44 46 -109q0 -64 -46 -109t-112 -45q-65 0 -111 45t-46 109t46 109t111 45q66 0 112 -45z
" />
    <glyph glyph-name="uniFB61" unicode="&#x67a;" horiz-adv-x="755" arabic-form="medial" 
d="M0 254h276v709h326v-709h184v-254h-786v254zM554 1733q46 -45 46 -109q0 -66 -46 -110q-45 -44 -112 -44q-65 0 -111 44t-46 110q0 64 46 109q46 44 111 44q66 0 112 -44zM554 1368q46 -44 46 -109q0 -64 -46 -109t-112 -45q-65 0 -111 45t-46 109t46 109t111 45
q66 0 112 -45z" />
    <glyph glyph-name="uniFB62" unicode="&#x67f;" horiz-adv-x="1583" arabic-form="isolated" 
d="M859 0q-776 0 -776 614q0 155 47 308l346 55q-65 -148 -65 -330q0 -208 107 -299q111 -94 374 -94h231v709h326v-963h-590zM891 1509q-44 46 -44 112t44 112t110 46q64 0 109 -46q44 -47 44 -112q0 -66 -44 -112q-45 -47 -109 -47q-66 0 -110 47zM527 1509
q-45 46 -45 112q0 65 45 112q45 46 109 46t109 -46q45 -47 45 -112q0 -66 -45 -112q-45 -47 -109 -47t-109 47zM895 1143q-44 46 -44 112t44 112t110 46q64 0 109 -46q44 -47 44 -112q0 -66 -44 -112q-45 -47 -109 -47q-66 0 -110 47zM531 1143q-45 46 -45 112q0 65 45 112
q45 46 109 46t109 -46q45 -47 45 -112q0 -66 -45 -112q-45 -47 -109 -47t-109 47z" />
    <glyph glyph-name="uniFB63" unicode="&#x67f;" horiz-adv-x="1603" arabic-form="final" 
d="M859 0q-776 0 -776 614q0 155 47 308l346 55q-65 -148 -65 -330q0 -208 107 -299q111 -94 374 -94h231v709h326v-709h184v-254h-774zM891 1509q-44 46 -44 112t44 112t110 46q64 0 109 -46q44 -47 44 -112q0 -66 -44 -112q-45 -47 -109 -47q-66 0 -110 47zM527 1509
q-45 46 -45 112q0 65 45 112q45 46 109 46t109 -46q45 -47 45 -112q0 -66 -45 -112q-45 -47 -109 -47t-109 47zM895 1143q-44 46 -44 112t44 112t110 46q64 0 109 -46q44 -47 44 -112q0 -66 -44 -112q-45 -47 -109 -47q-66 0 -110 47zM531 1143q-45 46 -45 112q0 65 45 112
q45 46 109 46t109 -46q45 -47 45 -112q0 -66 -45 -112q-45 -47 -109 -47t-109 47z" />
    <glyph glyph-name="uniFB64" unicode="&#x67f;" horiz-adv-x="827" arabic-form="initial" 
d="M0 254h369v709h323v-963h-692v254zM471 1509q-44 46 -44 112t44 112t110 46q64 0 109 -46q44 -47 44 -112q0 -66 -44 -112q-45 -47 -109 -47q-66 0 -110 47zM107 1509q-45 46 -45 112q0 65 45 112q45 46 109 46t109 -46q45 -47 45 -112q0 -66 -45 -112q-45 -47 -109 -47
t-109 47zM475 1143q-44 46 -44 112t44 112t110 46q64 0 109 -46q44 -47 44 -112q0 -66 -44 -112q-45 -47 -109 -47q-66 0 -110 47zM111 1143q-45 46 -45 112q0 65 45 112q45 46 109 46t109 -46q45 -47 45 -112q0 -66 -45 -112q-45 -47 -109 -47t-109 47z" />
    <glyph glyph-name="uniFB65" unicode="&#x67f;" horiz-adv-x="825" arabic-form="medial" 
d="M0 254h276v709h326v-709h256v-254h-858v254zM471 1509q-44 46 -44 112t44 112t110 46q64 0 109 -46q44 -47 44 -112q0 -66 -44 -112q-45 -47 -109 -47q-66 0 -110 47zM107 1509q-45 46 -45 112q0 65 45 112q45 46 109 46t109 -46q45 -47 45 -112q0 -66 -45 -112
q-45 -47 -109 -47t-109 47zM475 1143q-44 46 -44 112t44 112t110 46q64 0 109 -46q44 -47 44 -112q0 -66 -44 -112q-45 -47 -109 -47q-66 0 -110 47zM111 1143q-45 46 -45 112q0 65 45 112q45 46 109 46t109 -46q45 -47 45 -112q0 -66 -45 -112q-45 -47 -109 -47t-109 47z
" />
    <glyph glyph-name="uniFB66" unicode="&#x679;" horiz-adv-x="1583" arabic-form="isolated" 
d="M933 1389q-59 0 -115 -60q-55 -57 -82 -143h131q136 0 136 112q0 91 -70 91zM736 1497q0 -50 -12 -115h2q82 134 234 134q210 0 210 -205q0 -115 -83 -183q-86 -69 -236 -69h-274v592h159v-154zM859 0q-776 0 -776 614q0 155 47 308l346 55q-65 -148 -65 -330
q0 -208 107 -299q111 -94 374 -94h231v709h326v-963h-590z" />
    <glyph glyph-name="uniFB67" unicode="&#x679;" horiz-adv-x="1603" arabic-form="final" 
d="M859 0q-776 0 -776 614q0 155 47 308l346 55q-65 -148 -65 -330q0 -208 107 -299q111 -94 374 -94h231v709h326v-709h184v-254h-774zM736 1497q0 -50 -12 -115h2q82 134 234 134q210 0 210 -205q0 -115 -83 -183q-86 -69 -236 -69h-274v592h159v-154zM933 1389
q-59 0 -115 -60q-55 -57 -82 -143h131q136 0 136 112q0 91 -70 91z" />
    <glyph glyph-name="uniFB68" unicode="&#x679;" horiz-adv-x="827" arabic-form="initial" 
d="M526 1450q-59 0 -115 -59q-55 -58 -81 -144h131q135 0 135 113q0 90 -70 90zM330 1559q0 -51 -13 -115h2q82 133 234 133q211 0 211 -205q0 -115 -84 -183q-85 -69 -236 -69h-274v592h160v-153zM0 254h369v709h323v-963h-692v254z" />
    <glyph glyph-name="uniFB69" unicode="&#x679;" horiz-adv-x="845" arabic-form="medial" 
d="M0 254h369v709h323v-709h187v-254h-879v254zM330 1559q0 -51 -13 -115h2q82 133 234 133q211 0 211 -205q0 -115 -84 -183q-85 -69 -236 -69h-274v592h160v-153zM526 1450q-59 0 -115 -59q-55 -58 -81 -144h131q135 0 135 113q0 90 -70 90z" />
    <glyph glyph-name="uniFB6A" unicode="&#x6a4;" horiz-adv-x="1902" arabic-form="isolated" 
d="M1678 143q-152 -143 -385 -143h-434q-776 0 -776 614q0 155 47 308l346 55q-65 -148 -65 -330q0 -393 422 -393h36q-63 76 -63 221q0 229 151 373q151 143 386 143q234 0 360 -120q129 -123 129 -357q0 -227 -154 -371zM1322 737q-80 0 -132 -55q-60 -63 -60 -178
q0 -250 186 -250q88 0 139 62q53 65 53 180q0 241 -186 241zM1221 1460q-40 42 -40 103q0 60 40 102q42 43 101 43t100 -43q39 -42 39 -102q0 -61 -39 -103q-41 -43 -100 -43t-101 43zM1394 1143q-43 46 -43 112t43 112q45 46 110 46q64 0 109 -46q45 -47 45 -112
q0 -66 -45 -112q-44 -47 -109 -47t-110 47zM1031 1143q-45 46 -45 112q0 65 45 112q45 46 109 46q65 0 110 -46q43 -46 43 -112t-43 -112q-45 -47 -110 -47t-109 47z" />
    <glyph glyph-name="uniFB6B" unicode="&#x6a4;" horiz-adv-x="1941" arabic-form="final" 
d="M1971 0h-1112q-776 0 -776 614q0 155 47 308l346 55q-65 -148 -65 -330q0 -393 422 -393h36q-63 76 -63 221q0 229 151 373q151 143 386 143q234 0 360 -120q129 -122 129 -355q0 -186 -92 -272q74 10 141 10h90v-254zM1322 737q-80 0 -132 -55q-60 -63 -60 -178
q0 -250 186 -250q88 0 139 62q53 65 53 180q0 241 -186 241zM1221 1460q-40 42 -40 103q0 60 40 102q42 43 101 43t100 -43q39 -42 39 -102q0 -61 -39 -103q-41 -43 -100 -43t-101 43zM1394 1143q-43 46 -43 112t43 112q45 46 110 46q64 0 109 -46q45 -47 45 -112
q0 -66 -45 -112q-44 -47 -109 -47t-110 47zM1031 1143q-45 46 -45 112q0 65 45 112q45 46 109 46q65 0 110 -46q43 -46 43 -112t-43 -112q-45 -47 -110 -47t-109 47z" />
    <glyph glyph-name="uniFB6C" unicode="&#x6a4;" horiz-adv-x="1253" arabic-form="initial" 
d="M0 0v254h88q70 0 111 -16q-90 77 -90 258q0 207 135 344q150 151 409 151q244 0 367 -133q113 -123 113 -344v-514h-1133zM817 479q0 258 -184 258q-96 0 -152 -68q-53 -65 -53 -167q0 -248 264 -248h125v225zM526 1460q-41 42 -41 103q0 60 41 102q41 43 101 43
q59 0 99 -43q40 -42 40 -102q0 -61 -40 -103q-40 -43 -99 -43q-60 0 -101 43zM699 1143q-44 46 -44 112t44 112q45 46 110 46q64 0 109 -46q45 -47 45 -112q0 -66 -45 -112q-45 -47 -109 -47q-66 0 -110 47zM335 1143q-44 46 -44 112q0 65 44 112q45 46 109 46q66 0 110 -46
t44 -112t-44 -112q-44 -47 -110 -47q-64 0 -109 47z" />
    <glyph glyph-name="uniFB6D" unicode="&#x6a4;" horiz-adv-x="1243" arabic-form="medial" 
d="M0 254h63q60 0 113 -10q-67 85 -67 231q0 229 151 373q150 143 385 143t361 -120q129 -122 129 -355q0 -186 -93 -272q74 10 142 10h90v-254h-1274v254zM758 316q53 65 53 180q0 241 -186 241q-80 0 -133 -55q-60 -63 -60 -178q0 -250 186 -250q88 0 140 62zM524 1460
q-41 42 -41 103q0 60 41 102q41 43 101 43q59 0 99 -43q40 -42 40 -102q0 -61 -40 -103q-40 -43 -99 -43q-60 0 -101 43zM697 1143q-44 46 -44 112t44 112q45 46 110 46q64 0 109 -46q45 -47 45 -112q0 -66 -45 -112q-45 -47 -109 -47q-66 0 -110 47zM333 1143
q-44 46 -44 112q0 65 44 112q45 46 109 46q66 0 110 -46t44 -112t-44 -112q-44 -47 -110 -47q-64 0 -109 47z" />
    <glyph glyph-name="uniFB6E" unicode="&#x6a6;" horiz-adv-x="1902" arabic-form="isolated" 
d="M1678 143q-152 -143 -385 -143h-434q-776 0 -776 614q0 155 47 308l346 55q-65 -148 -65 -330q0 -393 422 -393h36q-63 76 -63 221q0 229 151 373q151 143 386 143q234 0 360 -120q129 -123 129 -357q0 -227 -154 -371zM1322 737q-80 0 -132 -55q-60 -63 -60 -178
q0 -250 186 -250q88 0 139 62q53 65 53 180q0 241 -186 241zM1389 1511q-43 46 -43 112t43 112q45 46 110 46q64 0 109 -46q45 -47 45 -112q0 -66 -45 -112q-45 -47 -109 -47q-65 0 -110 47zM1026 1511q-45 46 -45 112q0 65 45 112q45 46 109 46q65 0 109 -46t44 -112
t-44 -112q-44 -47 -109 -47t-109 47zM1392 1143q-43 46 -43 112t43 112q45 46 110 46q64 0 109 -46q45 -47 45 -112q0 -66 -45 -112q-45 -47 -109 -47q-65 0 -110 47zM1029 1143q-45 46 -45 112q0 65 45 112q45 46 109 46q65 0 109 -46t44 -112t-44 -112q-44 -47 -109 -47
t-109 47z" />
    <glyph glyph-name="uniFB6F" unicode="&#x6a6;" horiz-adv-x="1941" arabic-form="final" 
d="M1971 0h-1112q-776 0 -776 614q0 155 47 308l346 55q-65 -148 -65 -330q0 -393 422 -393h36q-63 76 -63 221q0 229 151 373q151 143 386 143q234 0 360 -120q129 -122 129 -355q0 -186 -92 -272q74 10 141 10h90v-254zM1322 737q-80 0 -132 -55q-60 -63 -60 -178
q0 -250 186 -250q88 0 139 62q53 65 53 180q0 241 -186 241zM1389 1511q-43 46 -43 112t43 112q45 46 110 46q64 0 109 -46q45 -47 45 -112q0 -66 -45 -112q-45 -47 -109 -47q-65 0 -110 47zM1026 1511q-45 46 -45 112q0 65 45 112q45 46 109 46q65 0 109 -46t44 -112
t-44 -112q-44 -47 -109 -47t-109 47zM1392 1143q-43 46 -43 112t43 112q45 46 110 46q64 0 109 -46q45 -47 45 -112q0 -66 -45 -112q-45 -47 -109 -47q-65 0 -110 47zM1029 1143q-45 46 -45 112q0 65 45 112q45 46 109 46q65 0 109 -46t44 -112t-44 -112q-44 -47 -109 -47
t-109 47z" />
    <glyph glyph-name="uniFB70" unicode="&#x6a6;" horiz-adv-x="1253" arabic-form="initial" 
d="M0 0v254h88q70 0 111 -16q-90 77 -90 258q0 207 135 344q150 151 409 151q244 0 367 -133q113 -123 113 -344v-514h-1133zM817 479q0 258 -184 258q-96 0 -152 -68q-53 -65 -53 -167q0 -248 264 -248h125v225zM694 1511q-43 46 -43 112t43 112q45 46 110 46q64 0 109 -46
q45 -47 45 -112q0 -66 -45 -112q-45 -47 -109 -47q-65 0 -110 47zM331 1511q-45 46 -45 112q0 65 45 112q45 46 109 46q65 0 109 -46t44 -112t-44 -112q-44 -47 -109 -47t-109 47zM697 1143q-43 46 -43 112t43 112q45 46 110 46q64 0 109 -46q45 -47 45 -112q0 -66 -45 -112
q-45 -47 -109 -47q-65 0 -110 47zM334 1143q-45 46 -45 112q0 65 45 112q45 46 109 46q65 0 109 -46t44 -112t-44 -112q-44 -47 -109 -47t-109 47z" />
    <glyph glyph-name="uniFB71" unicode="&#x6a6;" horiz-adv-x="1243" arabic-form="medial" 
d="M0 254h63q60 0 113 -10q-67 85 -67 231q0 229 151 373q150 143 385 143t361 -120q129 -122 129 -355q0 -186 -93 -272q74 10 142 10h90v-254h-1274v254zM758 316q53 65 53 180q0 241 -186 241q-80 0 -133 -55q-60 -63 -60 -178q0 -250 186 -250q88 0 140 62zM694 1511
q-43 46 -43 112t43 112q45 46 110 46q64 0 109 -46q45 -47 45 -112q0 -66 -45 -112q-45 -47 -109 -47q-65 0 -110 47zM331 1511q-45 46 -45 112q0 65 45 112q45 46 109 46q65 0 109 -46t44 -112t-44 -112q-44 -47 -109 -47t-109 47zM697 1143q-43 46 -43 112t43 112
q45 46 110 46q64 0 109 -46q45 -47 45 -112q0 -66 -45 -112q-45 -47 -109 -47q-65 0 -110 47zM334 1143q-45 46 -45 112q0 65 45 112q45 46 109 46q65 0 109 -46t44 -112t-44 -112q-44 -47 -109 -47t-109 47z" />
    <glyph glyph-name="uniFB72" unicode="&#x684;" horiz-adv-x="1282" arabic-form="isolated" 
d="M702 0q-354 0 -354 -213q0 -145 184 -180l-72 -260q-434 78 -434 426q0 216 165 343q180 138 519 138h145q9 70 9 119q0 350 -369 350q-131 0 -242 -18v251q123 21 273 21q344 0 504 -150q153 -144 153 -444q0 -186 -33 -383h-448zM923 -125q41 -40 41 -99t-40 -98
q-41 -40 -101 -40q-58 0 -99 40q-40 39 -40 98t40 99t99 40t100 -40zM923 -476q41 -41 41 -99t-40 -99q-41 -40 -101 -40q-58 0 -99 40q-40 41 -40 99q0 59 40 99q41 41 99 41q59 0 100 -41z" />
    <glyph glyph-name="uniFB73" unicode="&#x684;" horiz-adv-x="1290" arabic-form="final" 
d="M702 0q-354 0 -354 -213q0 -145 184 -180l-72 -260q-434 78 -434 426q0 216 165 343q180 138 519 138h145q9 70 9 119q0 350 -369 350q-131 0 -242 -18v251q123 21 273 21q344 0 504 -150q153 -144 153 -444q0 -39 -4 -129h141v-254h-618zM923 -125q41 -40 41 -99
t-40 -98q-41 -40 -101 -40q-58 0 -99 40q-40 39 -40 98t40 99t99 40t100 -40zM923 -476q41 -41 41 -99t-40 -99q-41 -40 -101 -40q-58 0 -99 40q-40 41 -40 99q0 59 40 99q41 41 99 41q59 0 100 -41z" />
    <glyph glyph-name="uniFB74" unicode="&#x684;" horiz-adv-x="1183" arabic-form="initial" 
d="M0 254h758q6 52 6 121q0 348 -369 348q-132 0 -239 -18v251q123 21 272 21q344 0 504 -150q153 -144 153 -444q0 -174 -34 -383h-1051v254zM586 -125q41 -40 41 -99t-40 -98q-41 -40 -101 -40q-58 0 -99 40q-40 39 -40 98t40 99t99 40t100 -40zM586 -476q41 -41 41 -99
t-40 -99q-41 -40 -101 -40q-58 0 -99 40q-40 41 -40 99q0 59 40 99q41 41 99 41q59 0 100 -41z" />
    <glyph glyph-name="uniFB75" unicode="&#x684;" horiz-adv-x="1189" arabic-form="medial" 
d="M0 254h758q6 52 6 121q0 348 -369 348q-132 0 -239 -18v251q123 21 272 21q344 0 504 -150q153 -144 153 -444q0 -39 -4 -129h142v-254h-1223v254zM586 -125q41 -40 41 -99t-40 -98q-41 -40 -101 -40q-58 0 -99 40q-40 39 -40 98t40 99t99 40t100 -40zM586 -476
q41 -41 41 -99t-40 -99q-41 -40 -101 -40q-58 0 -99 40q-40 41 -40 99q0 59 40 99q41 41 99 41q59 0 100 -41z" />
    <glyph glyph-name="uniFB76" unicode="&#x683;" horiz-adv-x="1282" arabic-form="isolated" 
d="M702 0q-354 0 -354 -213q0 -145 184 -180l-72 -260q-434 78 -434 426q0 216 165 343q180 138 519 138h145q9 70 9 119q0 350 -369 350q-131 0 -242 -18v251q123 21 273 21q344 0 504 -150q153 -144 153 -444q0 -186 -33 -383h-448zM1150 -319q-41 -41 -100 -41
q-58 0 -98 40q-39 41 -39 101q0 58 39 99q40 40 98 40q60 0 100 -40q39 -40 39 -99t-39 -100zM799 -319q-41 -41 -99 -41q-59 0 -99 40q-40 41 -40 101q0 58 40 99q40 40 99 40q58 0 99 -40q40 -41 40 -99q0 -59 -40 -100z" />
    <glyph glyph-name="uniFB77" unicode="&#x683;" horiz-adv-x="1290" arabic-form="final" 
d="M702 0q-354 0 -354 -213q0 -145 184 -180l-72 -260q-434 78 -434 426q0 216 165 343q180 138 519 138h145q9 70 9 119q0 350 -369 350q-131 0 -242 -18v251q123 21 273 21q344 0 504 -150q153 -144 153 -444q0 -39 -4 -129h141v-254h-618zM799 -319q-41 -41 -99 -41
q-59 0 -99 40q-40 41 -40 101q0 58 40 99q40 40 99 40q58 0 99 -40q40 -41 40 -99q0 -59 -40 -100zM1150 -319q-41 -41 -100 -41q-58 0 -98 40q-39 41 -39 101q0 58 39 99q40 40 98 40q60 0 100 -40q39 -40 39 -99t-39 -100z" />
    <glyph glyph-name="uniFB78" unicode="&#x683;" horiz-adv-x="1183" arabic-form="initial" 
d="M0 254h758q6 52 6 121q0 348 -369 348q-132 0 -239 -18v251q123 21 272 21q344 0 504 -150q153 -144 153 -444q0 -174 -34 -383h-1051v254zM761 -319q-40 -41 -99 -41t-98 40q-40 41 -40 101q0 58 40 99q39 40 98 40t99 -40t40 -99t-40 -100zM410 -319q-41 -41 -99 -41
t-99 40q-40 41 -40 101q0 58 40 99q41 40 99 40q59 0 99 -40q41 -41 41 -99q0 -59 -41 -100z" />
    <glyph glyph-name="uniFB79" unicode="&#x683;" horiz-adv-x="1189" arabic-form="medial" 
d="M0 254h758q6 52 6 121q0 348 -369 348q-132 0 -239 -18v251q123 21 272 21q344 0 504 -150q153 -144 153 -444q0 -39 -4 -129h142v-254h-1223v254zM410 -319q-41 -41 -99 -41t-99 40q-40 41 -40 101q0 58 40 99q41 40 99 40q59 0 99 -40q41 -41 41 -99q0 -59 -41 -100z
M761 -319q-40 -41 -99 -41t-98 40q-40 41 -40 101q0 58 40 99q39 40 98 40t99 -40t40 -99t-40 -100z" />
    <glyph glyph-name="uniFB7A" unicode="&#x686;" horiz-adv-x="1282" arabic-form="isolated" 
d="M702 0q-354 0 -354 -213q0 -145 184 -180l-72 -260q-434 78 -434 426q0 216 165 343q180 138 519 138h145q9 70 9 119q0 350 -369 350q-131 0 -242 -18v251q123 21 273 21q344 0 504 -150q153 -144 153 -444q0 -186 -33 -383h-448zM969 -585q-38 -38 -93 -38
q-56 0 -93 38q-38 37 -38 93q0 54 38 92t93 38t93 -37t38 -93q0 -55 -38 -93zM1150 -319q-41 -41 -100 -41q-58 0 -98 40q-39 41 -39 101q0 58 39 99q40 40 98 40q60 0 100 -40q39 -40 39 -99t-39 -100zM799 -319q-41 -41 -99 -41q-59 0 -99 40q-40 41 -40 101q0 58 40 99
q40 40 99 40q58 0 99 -40q40 -41 40 -99q0 -59 -40 -100z" />
    <glyph glyph-name="uniFB7B" unicode="&#x686;" horiz-adv-x="1290" arabic-form="final" 
d="M702 0q-354 0 -354 -213q0 -145 184 -180l-72 -260q-434 78 -434 426q0 216 165 343q180 138 519 138h145q9 70 9 119q0 350 -369 350q-131 0 -242 -18v251q123 21 273 21q344 0 504 -150q153 -144 153 -444q0 -39 -4 -129h141v-254h-618zM799 -319q-41 -41 -99 -41
q-59 0 -99 40q-40 41 -40 101q0 58 40 99q40 40 99 40q58 0 99 -40q40 -41 40 -99q0 -59 -40 -100zM1150 -319q-41 -41 -100 -41q-58 0 -98 40q-39 41 -39 101q0 58 39 99q40 40 98 40q60 0 100 -40q39 -40 39 -99t-39 -100zM969 -585q-38 -38 -93 -38q-56 0 -93 38
q-38 37 -38 93q0 54 38 92t93 38t93 -37t38 -93q0 -55 -38 -93z" />
    <glyph glyph-name="uniFB7C" unicode="&#x686;" horiz-adv-x="1183" arabic-form="initial" 
d="M0 254h758q6 52 6 121q0 348 -369 348q-132 0 -239 -18v251q123 21 272 21q344 0 504 -150q153 -144 153 -444q0 -174 -34 -383h-1051v254zM581 -585q-38 -38 -94 -38q-55 0 -93 38q-38 37 -38 93q0 54 38 92t93 38q56 0 94 -37q37 -37 37 -93q0 -55 -37 -93zM761 -319
q-40 -41 -99 -41t-98 40q-40 41 -40 101q0 58 40 99q39 40 98 40t99 -40t40 -99t-40 -100zM410 -319q-41 -41 -99 -41t-99 40q-40 41 -40 101q0 58 40 99q41 40 99 40q59 0 99 -40q41 -41 41 -99q0 -59 -41 -100z" />
    <glyph glyph-name="uniFB7D" unicode="&#x686;" horiz-adv-x="1189" arabic-form="medial" 
d="M0 254h758q6 52 6 121q0 348 -369 348q-132 0 -239 -18v251q123 21 272 21q344 0 504 -150q153 -144 153 -444q0 -39 -4 -129h142v-254h-1223v254zM410 -319q-41 -41 -99 -41t-99 40q-40 41 -40 101q0 58 40 99q41 40 99 40q59 0 99 -40q41 -41 41 -99q0 -59 -41 -100z
M761 -319q-40 -41 -99 -41t-98 40q-40 41 -40 101q0 58 40 99q39 40 98 40t99 -40t40 -99t-40 -100zM581 -585q-38 -38 -94 -38q-55 0 -93 38q-38 37 -38 93q0 54 38 92t93 38q56 0 94 -37q37 -37 37 -93q0 -55 -37 -93z" />
    <glyph glyph-name="uniFB7E" unicode="&#x687;" horiz-adv-x="1282" arabic-form="isolated" 
d="M26 -227q0 216 165 343q180 138 519 138h145q9 70 9 119q0 350 -369 350q-131 0 -242 -18v251q123 21 273 21q344 0 504 -150q153 -144 153 -444q0 -186 -33 -383h-448q-354 0 -354 -213q0 -133 156 -174l-79 -259q-399 86 -399 419zM1147 -646q-41 -41 -100 -41
q-58 0 -98 40q-39 41 -39 101q0 58 39 99q40 40 98 40q60 0 100 -40q39 -40 39 -99t-39 -100zM796 -646q-41 -41 -99 -41q-59 0 -99 40q-40 41 -40 101q0 58 40 99q40 40 99 40q58 0 99 -40q40 -41 40 -99q0 -59 -40 -100zM1150 -319q-41 -41 -100 -41q-58 0 -98 40
q-39 41 -39 101q0 58 39 99q40 40 98 40q60 0 100 -40q39 -40 39 -99t-39 -100zM799 -319q-41 -41 -99 -41q-59 0 -99 40q-40 41 -40 101q0 58 40 99q40 40 99 40q58 0 99 -40q40 -41 40 -99q0 -59 -40 -100z" />
    <glyph glyph-name="uniFB7F" unicode="&#x687;" horiz-adv-x="1290" arabic-form="final" 
d="M26 -227q0 216 165 343q180 138 519 138h145q9 70 9 119q0 350 -369 350q-131 0 -242 -18v251q123 21 273 21q344 0 504 -150q153 -144 153 -444q0 -39 -4 -129h141v-254h-618q-354 0 -354 -213q0 -135 159 -175l-78 -259q-403 84 -403 420zM1147 -646q-41 -41 -100 -41
q-58 0 -98 40q-39 41 -39 101q0 58 39 99q40 40 98 40q60 0 100 -40q39 -40 39 -99t-39 -100zM796 -646q-41 -41 -99 -41q-59 0 -99 40q-40 41 -40 101q0 58 40 99q40 40 99 40q58 0 99 -40q40 -41 40 -99q0 -59 -40 -100zM1150 -319q-41 -41 -100 -41q-58 0 -98 40
q-39 41 -39 101q0 58 39 99q40 40 98 40q60 0 100 -40q39 -40 39 -99t-39 -100zM799 -319q-41 -41 -99 -41q-59 0 -99 40q-40 41 -40 101q0 58 40 99q40 40 99 40q58 0 99 -40q40 -41 40 -99q0 -59 -40 -100z" />
    <glyph glyph-name="uniFB80" unicode="&#x687;" horiz-adv-x="1183" arabic-form="initial" 
d="M0 254h758q6 52 6 121q0 348 -369 348q-132 0 -239 -18v251q123 21 272 21q344 0 504 -150q153 -144 153 -444q0 -174 -34 -383h-1051v254zM758 -646q-41 -41 -100 -41q-58 0 -98 40q-39 41 -39 101q0 58 39 99q40 40 98 40q60 0 100 -40q39 -40 39 -99t-39 -100z
M407 -646q-41 -41 -99 -41q-59 0 -99 40q-40 41 -40 101q0 58 40 99q40 40 99 40q58 0 99 -40q40 -41 40 -99q0 -59 -40 -100zM761 -319q-41 -41 -100 -41q-58 0 -98 40q-39 41 -39 101q0 58 39 99q40 40 98 40q60 0 100 -40q39 -40 39 -99t-39 -100zM410 -319
q-41 -41 -99 -41q-59 0 -99 40q-40 41 -40 101q0 58 40 99q40 40 99 40q58 0 99 -40q40 -41 40 -99q0 -59 -40 -100z" />
    <glyph glyph-name="uniFB81" unicode="&#x687;" horiz-adv-x="1189" arabic-form="medial" 
d="M0 254h758q6 52 6 121q0 348 -369 348q-132 0 -239 -18v251q123 21 272 21q344 0 504 -150q153 -144 153 -444q0 -39 -4 -129h142v-254h-1223v254zM758 -646q-41 -41 -100 -41q-58 0 -98 40q-39 41 -39 101q0 58 39 99q40 40 98 40q60 0 100 -40q39 -40 39 -99t-39 -100z
M407 -646q-41 -41 -99 -41q-59 0 -99 40q-40 41 -40 101q0 58 40 99q40 40 99 40q58 0 99 -40q40 -41 40 -99q0 -59 -40 -100zM761 -319q-41 -41 -100 -41q-58 0 -98 40q-39 41 -39 101q0 58 39 99q40 40 98 40q60 0 100 -40q39 -40 39 -99t-39 -100zM410 -319
q-41 -41 -99 -41q-59 0 -99 40q-40 41 -40 101q0 58 40 99q40 40 99 40q58 0 99 -40q40 -41 40 -99q0 -59 -40 -100z" />
    <glyph glyph-name="uniFB82" unicode="&#x68d;" horiz-adv-x="1058" arabic-form="isolated" 
d="M86 254h575q-25 399 -460 496l75 268q703 -164 703 -860v-158h-893v254zM601 -418q-44 46 -44 112t44 112t110 46q64 0 109 -46q44 -47 44 -112q0 -66 -44 -112q-45 -47 -109 -47q-66 0 -110 47zM237 -418q-45 46 -45 112q0 65 45 112q45 46 109 46q65 0 110 -46
q44 -46 44 -112t-44 -112q-44 -47 -110 -47q-64 0 -109 47z" />
    <glyph glyph-name="uniFB83" unicode="&#x68d;" horiz-adv-x="1058" arabic-form="final" 
d="M86 254h575q-25 399 -460 496l75 268q656 -155 699 -764h117v-254h-1006v254zM601 -418q-44 46 -44 112t44 112t110 46q64 0 109 -46q44 -47 44 -112q0 -66 -44 -112q-45 -47 -109 -47q-66 0 -110 47zM237 -418q-45 46 -45 112q0 65 45 112q45 46 109 46q65 0 110 -46
q44 -46 44 -112t-44 -112q-44 -47 -110 -47q-64 0 -109 47z" />
    <glyph glyph-name="uniFB84" unicode="&#x68c;" horiz-adv-x="1058" arabic-form="isolated" 
d="M86 254h575q-25 399 -460 496l75 268q703 -164 703 -860v-158h-893v254zM724 1234q0 -59 -39 -99q-40 -40 -100 -40q-58 0 -98 40q-39 41 -39 99q0 60 39 101q40 40 98 40q59 0 100 -41q39 -41 39 -100zM374 1234q0 -58 -40 -99q-41 -40 -99 -40q-59 0 -99 40
q-40 41 -40 99q0 60 40 101q40 40 99 40q58 0 99 -41q40 -41 40 -100z" />
    <glyph glyph-name="uniFB85" unicode="&#x68c;" horiz-adv-x="1058" arabic-form="final" 
d="M86 254h575q-25 399 -460 496l75 268q656 -155 699 -764h117v-254h-1006v254zM724 1234q0 -59 -39 -99q-40 -40 -100 -40q-58 0 -98 40q-39 41 -39 99q0 60 39 101q40 40 98 40q59 0 100 -41q39 -41 39 -100zM374 1234q0 -58 -40 -99q-41 -40 -99 -40q-59 0 -99 40
q-40 41 -40 99q0 60 40 101q40 40 99 40q58 0 99 -41q40 -41 40 -100z" />
    <glyph glyph-name="uniFB86" unicode="&#x68e;" horiz-adv-x="1058" arabic-form="isolated" 
d="M86 254h575q-25 399 -460 496l75 268q703 -164 703 -860v-158h-893v254zM542 1507q0 -56 -38 -93t-93 -37t-93 38t-38 92q0 56 38 93q37 38 93 38q55 0 93 -38t38 -93zM724 1234q0 -59 -39 -99q-40 -40 -100 -40q-58 0 -98 40q-39 41 -39 99q0 60 39 101q40 40 98 40
q59 0 100 -41q39 -41 39 -100zM374 1234q0 -58 -40 -99q-41 -40 -99 -40q-59 0 -99 40q-40 41 -40 99q0 60 40 101q40 40 99 40q58 0 99 -41q40 -41 40 -100z" />
    <glyph glyph-name="uniFB87" unicode="&#x68e;" horiz-adv-x="1058" arabic-form="final" 
d="M86 254h575q-25 399 -460 496l75 268q656 -155 699 -764h117v-254h-1006v254zM542 1507q0 -56 -38 -93t-93 -37t-93 38t-38 92q0 56 38 93q37 38 93 38q55 0 93 -38t38 -93zM724 1234q0 -59 -39 -99q-40 -40 -100 -40q-58 0 -98 40q-39 41 -39 99q0 60 39 101
q40 40 98 40q59 0 100 -41q39 -41 39 -100zM374 1234q0 -58 -40 -99q-41 -40 -99 -40q-59 0 -99 40q-40 41 -40 99q0 60 40 101q40 40 99 40q58 0 99 -41q40 -41 40 -100z" />
    <glyph glyph-name="uniFB88" unicode="&#x688;" horiz-adv-x="1058" arabic-form="isolated" 
d="M86 254h575q-25 399 -460 496l75 268q703 -164 703 -860v-158h-893v254zM569 1450q-59 0 -115 -59q-55 -58 -81 -144h131q135 0 135 113q0 90 -70 90zM373 1559q0 -51 -13 -115h2q82 133 234 133q211 0 211 -205q0 -115 -84 -183q-85 -69 -236 -69h-274v592h160v-153z
" />
    <glyph glyph-name="uniFB89" unicode="&#x688;" horiz-adv-x="1058" arabic-form="final" 
d="M86 254h575q-25 399 -460 496l75 268q656 -155 699 -764h117v-254h-1006v254zM373 1559q0 -51 -13 -115h2q82 133 234 133q211 0 211 -205q0 -115 -84 -183q-85 -69 -236 -69h-274v592h160v-153zM569 1450q-59 0 -115 -59q-55 -58 -81 -144h131q135 0 135 113
q0 90 -70 90z" />
    <glyph glyph-name="uniFB8A" unicode="&#x698;" horiz-adv-x="826" arabic-form="isolated" 
d="M20 -504l23 256q62 -16 139 -16q94 0 138 50q48 57 48 194v983h324v-971q0 -508 -527 -508q-77 0 -145 12zM407 1460q-41 42 -41 103q0 60 41 102q41 43 100 43q60 0 100 -43q40 -42 40 -102q0 -61 -40 -103q-40 -43 -100 -43q-59 0 -100 43zM580 1143q-44 46 -44 112
t44 112t110 46q64 0 109 -46q44 -47 44 -112q0 -66 -44 -112q-45 -47 -109 -47q-66 0 -110 47zM216 1143q-44 46 -44 112q0 65 44 112q45 46 109 46q65 0 110 -46q44 -46 44 -112t-44 -112q-44 -47 -110 -47q-64 0 -109 47z" />
    <glyph glyph-name="uniFB8B" unicode="&#x698;" horiz-adv-x="845" arabic-form="final" 
d="M20 -504l23 256q62 -16 139 -16q94 0 138 50q48 57 48 194v983h324v-709h186v-254h-186v-8q0 -508 -527 -508q-77 0 -145 12zM580 1143q-44 46 -44 112t44 112t110 46q64 0 109 -46q44 -47 44 -112q0 -66 -44 -112q-45 -47 -109 -47q-66 0 -110 47zM216 1143
q-44 46 -44 112q0 65 44 112q45 46 109 46q65 0 110 -46q44 -46 44 -112t-44 -112q-44 -47 -110 -47q-64 0 -109 47zM407 1460q-41 42 -41 103q0 60 41 102q41 43 100 43q60 0 100 -43q40 -42 40 -102q0 -61 -40 -103q-40 -43 -100 -43q-59 0 -100 43z" />
    <glyph glyph-name="uniFB8C" unicode="&#x691;" horiz-adv-x="826" arabic-form="isolated" 
d="M20 -504l23 256q62 -16 139 -16q94 0 138 50q48 57 48 194v983h324v-971q0 -508 -527 -508q-77 0 -145 12zM591 1450q-59 0 -115 -59q-55 -58 -81 -144h131q135 0 135 113q0 90 -70 90zM395 1559q0 -51 -13 -115h3q81 133 233 133q211 0 211 -205q0 -115 -84 -183
q-85 -69 -236 -69h-274v592h160v-153z" />
    <glyph glyph-name="uniFB8D" unicode="&#x691;" horiz-adv-x="845" arabic-form="final" 
d="M20 -504l23 256q62 -16 139 -16q94 0 138 50q48 57 48 194v983h324v-709h186v-254h-186v-8q0 -508 -527 -508q-77 0 -145 12zM395 1559q0 -51 -13 -115h3q81 133 233 133q211 0 211 -205q0 -115 -84 -183q-85 -69 -236 -69h-274v592h160v-153zM591 1450q-59 0 -115 -59
q-55 -58 -81 -144h131q135 0 135 113q0 90 -70 90z" />
    <glyph glyph-name="uniFB8E" unicode="&#x6a9;" horiz-adv-x="1798" arabic-form="isolated" 
d="M859 0q-776 0 -776 614q0 155 47 308l346 55q-65 -148 -65 -330q0 -208 107 -299q111 -94 374 -94h405q-22 407 -477 500v235l834 522v-321l-463 -275q426 -198 426 -757v-158h-758z" />
    <glyph glyph-name="uniFB8F" unicode="&#x6a9;" horiz-adv-x="1732" arabic-form="final" 
d="M859 0q-776 0 -776 614q0 155 47 308l346 55q-65 -148 -65 -330q0 -208 107 -299q111 -94 374 -94h405q-22 407 -477 500v235l834 522v-321l-463 -275q389 -184 422 -661h149v-254h-903z" />
    <glyph glyph-name="uniFB90" unicode="&#x6a9;" horiz-adv-x="1066" arabic-form="initial" 
d="M0 254h573q-22 407 -475 500v235l832 522v-321l-463 -275q426 -198 426 -757v-158h-893v254z" />
    <glyph glyph-name="uniFB91" unicode="&#x6a9;" horiz-adv-x="1007" arabic-form="medial" 
d="M0 254h573q-22 407 -475 500v235l832 522v-321l-463 -275q389 -184 422 -661h149v-254h-1038v254z" />
    <glyph glyph-name="uniFB92" unicode="&#x6af;" horiz-adv-x="1798" arabic-form="isolated" 
d="M859 0q-776 0 -776 614q0 155 47 308l346 55q-65 -148 -65 -330q0 -208 107 -299q111 -94 374 -94h405q-22 407 -477 500v204l834 523v-291l-463 -275q426 -198 426 -757v-158h-758zM820 1389l834 522v-273l-834 -522v273z" />
    <glyph glyph-name="uniFB93" unicode="&#x6af;" horiz-adv-x="1732" arabic-form="final" 
d="M859 0q-776 0 -776 614q0 155 47 308l346 55q-65 -148 -65 -330q0 -208 107 -299q111 -94 374 -94h405q-22 407 -477 500v204l834 523v-291l-463 -275q389 -184 422 -661h149v-254h-903zM820 1389l834 522v-273l-834 -522v273z" />
    <glyph glyph-name="uniFB94" unicode="&#x6af;" horiz-adv-x="1062" arabic-form="initial" 
d="M0 254h573q-22 407 -475 500v204l832 523v-291l-463 -275q426 -198 426 -757v-158h-893v254zM98 1389l832 522v-273l-832 -522v273z" />
    <glyph glyph-name="uniFB95" unicode="&#x6af;" horiz-adv-x="1007" arabic-form="medial" 
d="M0 254h573q-22 407 -475 500v204l832 523v-291l-463 -275q389 -184 422 -661h149v-254h-1038v254zM98 1389l832 522v-273l-832 -522v273z" />
    <glyph glyph-name="uniFB96" unicode="&#x6b3;" horiz-adv-x="1798" arabic-form="isolated" 
d="M859 0q-776 0 -776 614q0 155 47 308l346 55q-65 -148 -65 -330q0 -208 107 -299q111 -94 374 -94h405q-22 407 -477 500v204l834 523v-291l-463 -275q426 -198 426 -757v-158h-758zM820 1389l834 522v-273l-834 -522v273zM1027 -193q46 -45 46 -109q0 -66 -46 -110
q-45 -44 -112 -44q-65 0 -111 44t-46 110q0 64 46 109q46 44 111 44q66 0 112 -44zM1027 -558q46 -44 46 -109q0 -64 -46 -109t-112 -45q-65 0 -111 45t-46 109t46 109t111 45q66 0 112 -45z" />
    <glyph glyph-name="uniFB97" unicode="&#x6b3;" horiz-adv-x="1732" arabic-form="final" 
d="M859 0q-776 0 -776 614q0 155 47 308l346 55q-65 -148 -65 -330q0 -208 107 -299q111 -94 374 -94h405q-22 407 -477 500v204l834 523v-291l-463 -275q389 -184 422 -661h149v-254h-903zM820 1389l834 522v-273l-834 -522v273zM1027 -193q46 -45 46 -109q0 -66 -46 -110
q-45 -44 -112 -44q-65 0 -111 44t-46 110q0 64 46 109q46 44 111 44q66 0 112 -44zM1027 -558q46 -44 46 -109q0 -64 -46 -109t-112 -45q-65 0 -111 45t-46 109t46 109t111 45q66 0 112 -45z" />
    <glyph glyph-name="uniFB98" unicode="&#x6b3;" horiz-adv-x="1066" arabic-form="initial" 
d="M0 254h573q-22 407 -475 500v204l832 523v-291l-463 -275q426 -198 426 -757v-158h-893v254zM98 1389l832 522v-273l-832 -522v273zM547 -193q46 -45 46 -109q0 -66 -46 -110q-45 -44 -112 -44q-65 0 -111 44t-46 110q0 64 46 109q46 44 111 44q66 0 112 -44zM547 -558
q46 -44 46 -109q0 -64 -46 -109t-112 -45q-65 0 -111 45t-46 109t46 109t111 45q66 0 112 -45z" />
    <glyph glyph-name="uniFB99" unicode="&#x6b3;" horiz-adv-x="1007" arabic-form="medial" 
d="M0 254h573q-22 407 -475 500v204l832 523v-291l-463 -275q389 -184 422 -661h149v-254h-1038v254zM98 1389l832 522v-273l-832 -522v273zM547 -193q46 -45 46 -109q0 -66 -46 -110q-45 -44 -112 -44q-65 0 -111 44t-46 110q0 64 46 109q46 44 111 44q66 0 112 -44z
M547 -558q46 -44 46 -109q0 -64 -46 -109t-112 -45q-65 0 -111 45t-46 109t46 109t111 45q66 0 112 -45z" />
    <glyph glyph-name="uniFB9A" unicode="&#x6b1;" horiz-adv-x="1798" arabic-form="isolated" 
d="M859 0q-776 0 -776 614q0 155 47 308l346 55q-65 -148 -65 -330q0 -208 107 -299q111 -94 374 -94h405q-22 407 -477 500v204l834 523v-291l-463 -275q426 -198 426 -757v-158h-758zM995 1539q-44 46 -44 112t44 112q45 46 110 46q64 0 109 -46q45 -47 45 -112
q0 -66 -45 -112q-45 -47 -109 -47q-66 0 -110 47zM631 1539q-44 46 -44 112q0 65 44 112q45 46 109 46q66 0 110 -46t44 -112t-44 -112q-44 -47 -110 -47q-64 0 -109 47zM1334 1711l320 200v-273l-834 -522v273l124 78q61 -45 143 -45q104 0 176 76q73 75 73 182q0 16 -2 31
z" />
    <glyph glyph-name="uniFB9B" unicode="&#x6b1;" horiz-adv-x="1732" arabic-form="final" 
d="M859 0q-776 0 -776 614q0 155 47 308l346 55q-65 -148 -65 -330q0 -208 107 -299q111 -94 374 -94h405q-22 407 -477 500v204l834 523v-291l-463 -275q389 -184 422 -661h149v-254h-903zM995 1539q-44 46 -44 112t44 112q45 46 110 46q64 0 109 -46q45 -47 45 -112
q0 -66 -45 -112q-45 -47 -109 -47q-66 0 -110 47zM631 1539q-44 46 -44 112q0 65 44 112q45 46 109 46q66 0 110 -46t44 -112t-44 -112q-44 -47 -110 -47q-64 0 -109 47zM1334 1711l320 200v-273l-834 -522v273l124 78q61 -45 143 -45q104 0 176 76q73 75 73 182q0 16 -2 31
z" />
    <glyph glyph-name="uniFB9C" unicode="&#x6b1;" horiz-adv-x="1066" arabic-form="initial" 
d="M0 254h573q-22 407 -475 500v204l832 523v-291l-463 -275q426 -198 426 -757v-158h-893v254zM132 1667q-44 46 -44 112q0 65 44 112q45 46 109 46q66 0 110 -46t44 -112t-44 -112q-44 -47 -110 -47q-64 0 -109 47zM496 1667q-44 46 -44 112t44 112q45 46 110 46
q64 0 109 -46q45 -47 45 -112q0 -66 -45 -112q-45 -47 -109 -47q-66 0 -110 47zM825 1845l105 66v-273l-832 -522v273l352 221q63 -63 156 -63q94 0 161 69q66 68 66 165q0 34 -8 64z" />
    <glyph glyph-name="uniFB9D" unicode="&#x6b1;" horiz-adv-x="1007" arabic-form="medial" 
d="M0 254h573q-22 407 -475 500v204l832 523v-291l-463 -275q389 -184 422 -661h149v-254h-1038v254zM132 1667q-44 46 -44 112q0 65 44 112q45 46 109 46q66 0 110 -46t44 -112t-44 -112q-44 -47 -110 -47q-64 0 -109 47zM496 1667q-44 46 -44 112t44 112q45 46 110 46
q64 0 109 -46q45 -47 45 -112q0 -66 -45 -112q-45 -47 -109 -47q-66 0 -110 47zM825 1845l105 66v-273l-832 -522v273l352 221q63 -63 156 -63q94 0 161 69q66 68 66 165q0 34 -8 64z" />
    <glyph glyph-name="uniFB9E" unicode="&#x6ba;" horiz-adv-x="1380" arabic-form="isolated" 
d="M1244 174q0 -645 -604 -645q-559 0 -559 590q0 173 47 352l336 59q-59 -196 -59 -380q0 -367 260 -367q130 0 190 79q66 87 66 290v811h323v-789z" />
    <glyph glyph-name="uniFB9F" unicode="&#x6ba;" horiz-adv-x="1368" arabic-form="final" 
d="M1214 254h185v-254h-197q-74 -471 -592 -471q-559 0 -559 590q0 173 47 352l336 59q-59 -196 -59 -380q0 -367 260 -367q130 0 190 79q66 87 66 290v811h323v-709z" />
    <glyph glyph-name="uniFBA0" unicode="&#x6bb;" horiz-adv-x="1347" arabic-form="isolated" 
d="M1214 174q0 -645 -604 -645q-559 0 -559 590q0 173 47 352l336 59q-59 -196 -59 -380q0 -367 260 -367q130 0 190 79q66 87 66 290v811h323v-789zM656 1330q-59 0 -115 -59q-55 -58 -81 -144h131q135 0 135 113q0 90 -70 90zM460 1439q0 -51 -13 -115h2q82 133 234 133
q211 0 211 -205q0 -115 -84 -183q-85 -69 -236 -69h-274v592h160v-153z" />
    <glyph glyph-name="uniFBA1" unicode="&#x6bb;" horiz-adv-x="1368" arabic-form="final" 
d="M1214 254h185v-254h-197q-74 -471 -592 -471q-559 0 -559 590q0 173 47 352l336 59q-59 -196 -59 -380q0 -367 260 -367q130 0 190 79q66 87 66 290v811h323v-709zM656 1330q-59 0 -115 -59q-55 -58 -81 -144h131q135 0 135 113q0 90 -70 90zM460 1439q0 -51 -13 -115h2
q82 133 234 133q211 0 211 -205q0 -115 -84 -183q-85 -69 -236 -69h-274v592h160v-153z" />
    <glyph glyph-name="uniFBA2" unicode="&#x6bb;" horiz-adv-x="827" arabic-form="initial" 
d="M526 1450q-59 0 -115 -59q-55 -58 -81 -144h131q135 0 135 113q0 90 -70 90zM330 1559q0 -51 -13 -115h2q82 133 234 133q211 0 211 -205q0 -115 -84 -183q-85 -69 -236 -69h-274v592h160v-153zM0 254h369v709h323v-963h-692v254z" />
    <glyph glyph-name="uniFBA3" unicode="&#x6bb;" horiz-adv-x="845" arabic-form="medial" 
d="M0 254h369v709h323v-709h187v-254h-879v254zM330 1559q0 -51 -13 -115h2q82 133 234 133q211 0 211 -205q0 -115 -84 -183q-85 -69 -236 -69h-274v592h160v-153zM526 1450q-59 0 -115 -59q-55 -58 -81 -144h131q135 0 135 113q0 90 -70 90z" />
    <glyph glyph-name="uniFBA4" unicode="&#x6c0;" horiz-adv-x="1216" arabic-form="isolated" 
d="M622 0q-553 0 -553 471q0 224 137 366q148 154 410 154q243 0 366 -133q113 -123 113 -344v-514h-473zM780 479q0 258 -185 258q-95 0 -151 -68q-53 -65 -53 -167q0 -248 264 -248h125v225zM307 1298q58 0 96 -10q-27 20 -27 70q0 104 73 170q85 76 247 76q96 0 127 -11
l-27 -178l-35 4q-37 4 -69 4q-88 0 -88 -57q0 -68 131 -68h118v-180h-546v180z" />
    <glyph glyph-name="uniFBA5" unicode="&#x6c0;" horiz-adv-x="1222" arabic-form="final" 
d="M622 0q-553 0 -553 471q0 221 132 362q149 158 425 158q256 0 442 -71v-666h185v-254h-631zM753 705q-63 32 -158 32t-151 -68q-53 -65 -53 -167q0 -248 264 -248h98v451zM307 1298q58 0 96 -10q-27 20 -27 70q0 104 73 170q85 76 247 76q96 0 127 -11l-27 -178l-35 4
q-37 4 -69 4q-88 0 -88 -57q0 -68 131 -68h118v-180h-546v180z" />
    <glyph glyph-name="uniFBA6" unicode="&#x6c1;" horiz-adv-x="1216" arabic-form="isolated" 
d="M622 0q-553 0 -553 471q0 224 137 366q148 154 410 154q243 0 366 -133q113 -123 113 -344v-514h-473zM780 479q0 258 -185 258q-95 0 -151 -68q-53 -65 -53 -167q0 -248 264 -248h125v225z" />
    <glyph glyph-name="uniFBA7" unicode="&#x6c1;" horiz-adv-x="1167" arabic-form="final" 
d="M1198 0h-58q-516 0 -516 426v37q-196 -50 -366 -303l-199 162q291 419 750 419q59 0 127 -6v-227q0 -145 50 -200q50 -54 179 -54h33v-254z" />
    <glyph glyph-name="uniFBA8" unicode="&#x6c1;" horiz-adv-x="735" arabic-form="initial" 
d="M0 254h276v709h326v-963h-602v254zM133 -456q-37 39 -37 104q0 91 76 159q87 79 252 99l41 -111q-107 -39 -107 -94q0 -14 7 -36q6 -21 6 -36q0 -53 -36 -89q-38 -38 -102 -38q-63 0 -100 42z" />
    <glyph glyph-name="uniFBA9" unicode="&#x6c1;" horiz-adv-x="1490" arabic-form="medial" 
d="M1522 0h-211v-532h-291q-289 0 -448 139q-154 136 -154 377q0 116 26 192h-4q-93 -176 -307 -176h-133v254h156q118 0 187 90q67 86 67 221v193h311v-699q0 -334 278 -340v535h523v-254zM88 -506q-39 45 -39 115q0 181 219 315l84 -88q-69 -67 -69 -117q0 -23 24 -62
q25 -40 25 -83q0 -50 -37 -87q-39 -40 -98 -40q-69 0 -109 47z" />
    <glyph glyph-name="uniFBAA" unicode="&#x6be;" horiz-adv-x="1611" arabic-form="isolated" 
d="M40 0v254h127q63 0 104 -14q-32 45 -32 102q0 151 104 246q109 100 297 100q202 0 301 -121q86 -106 86 -286v-27h172v14q0 284 -128 421q-135 145 -427 145q-213 0 -440 -76l-31 229q256 82 508 82q825 0 825 -833v-236h-1466zM769 289q0 203 -151 203q-123 0 -123 -115
q0 -133 170 -133h104v45z" />
    <glyph glyph-name="uniFBAB" unicode="&#x6be;" horiz-adv-x="1402" arabic-form="final" 
d="M1433 0h-143q-49 0 -168 20v-4q158 -45 158 -223q0 -199 -130 -322q-132 -126 -353 -126q-510 0 -551 655h-197v254h203q59 552 473 815q518 -251 518 -573q0 -180 -125 -252v-4q108 14 164 14h151v-254zM563 0q34 -401 250 -401q68 0 108 49q41 50 41 135
q0 217 -288 217h-111zM563 254h131q238 0 238 188q0 143 -187 260q-154 -154 -182 -448z" />
    <glyph glyph-name="uniFBAC" unicode="&#x6be;" horiz-adv-x="1571" arabic-form="initial" 
d="M0 0v254h127q63 0 104 -14q-32 45 -32 102q0 151 104 246q109 100 297 100q202 0 301 -121q86 -106 86 -286v-27h172v14q0 284 -128 421q-135 145 -427 145q-213 0 -440 -76l-31 229q256 82 508 82q825 0 825 -833v-236h-1466zM729 289q0 203 -151 203q-123 0 -123 -115
q0 -133 170 -133h104v45z" />
    <glyph glyph-name="uniFBAD" unicode="&#x6be;" horiz-adv-x="1353" arabic-form="medial" 
d="M1384 0h-143q-49 0 -168 20v-4q158 -45 158 -223q0 -199 -130 -322q-132 -126 -353 -126q-510 0 -551 655h-197v254h203q59 552 473 815q518 -251 518 -573q0 -180 -125 -252v-4q108 14 164 14h151v-254zM514 0q34 -401 250 -401q68 0 108 49q41 50 41 135
q0 217 -288 217h-111zM514 254h131q238 0 238 188q0 143 -187 260q-154 -154 -182 -448z" />
    <glyph glyph-name="uniFBAE" unicode="&#x6d2;" horiz-adv-x="1536" arabic-form="isolated" 
d="M163 0q-59 376 150 681q213 310 551 310q346 0 346 -366v-113h-311v68q0 147 -95 147q-120 0 -228 -163q-103 -156 -103 -310h1003v-254h-1313z" />
    <glyph glyph-name="uniFBAF" unicode="&#x6d2;" horiz-adv-x="1729" arabic-form="final" 
d="M156 -655q-50 373 171 632q236 277 671 277h804v-254h-845q-228 0 -369 -135q-123 -118 -123 -266h1004v-254h-1313z" />
    <glyph glyph-name="uniFBB0" unicode="&#x6d3;" horiz-adv-x="1536" arabic-form="isolated" 
d="M163 0q-59 376 150 681q213 310 551 310q346 0 346 -366v-113h-311v68q0 147 -95 147q-120 0 -228 -163q-103 -156 -103 -310h1003v-254h-1313zM427 1298q59 0 97 -10q-27 20 -27 70q0 104 73 170q85 76 247 76q96 0 127 -11l-27 -178l-35 4q-37 4 -69 4q-89 0 -89 -57
q0 -68 132 -68h118v-180h-547v180z" />
    <glyph glyph-name="uniFBB1" unicode="&#x6d3;" horiz-adv-x="1729" arabic-form="final" 
d="M136 -655q-50 373 171 632q236 277 671 277h814v-254h-855q-228 0 -369 -135q-123 -118 -123 -266h1004v-254h-1313zM105 557q59 0 96 -10q-26 20 -26 69q0 105 73 170q84 76 246 76q97 0 127 -10l-26 -178l-35 4q-37 4 -70 4q-88 0 -88 -57q0 -68 131 -68h119v-180h-547
v180z" />
    <glyph glyph-name="uniFBD3" unicode="&#x6ad;" horiz-adv-x="1763" arabic-form="isolated" 
d="M603 1028q59 0 96 -10q-26 20 -26 69q0 105 73 170q84 76 246 76q97 0 127 -10l-26 -178l-35 4q-37 4 -70 4q-88 0 -88 -57q0 -68 131 -68h119v-180h-547v180zM859 0q-776 0 -776 614q0 155 47 308l346 55q-65 -148 -65 -330q0 -208 107 -299q111 -94 374 -94h387v1190
h324v-1444h-744zM1302 1896q-41 42 -41 103q0 60 41 102q41 43 101 43q59 0 99 -43q40 -42 40 -102q0 -61 -40 -103q-40 -43 -99 -43q-60 0 -101 43zM1475 1579q-44 46 -44 112t44 112q45 46 110 46q64 0 109 -46q45 -47 45 -112q0 -66 -45 -112q-45 -47 -109 -47
q-66 0 -110 47zM1111 1579q-44 46 -44 112q0 65 44 112q45 46 109 46q66 0 110 -46t44 -112t-44 -112q-44 -47 -110 -47q-64 0 -109 47z" />
    <glyph glyph-name="uniFBD4" unicode="&#x6ad;" horiz-adv-x="1763" arabic-form="final" 
d="M859 0q-776 0 -776 614q0 155 47 308l346 55q-65 -148 -65 -330q0 -208 107 -299q111 -94 374 -94h387v1190h324v-1190h192v-254h-936zM603 1028q59 0 96 -10q-26 20 -26 69q0 105 73 170q84 76 246 76q97 0 127 -10l-26 -178l-35 4q-37 4 -70 4q-88 0 -88 -57
q0 -68 131 -68h119v-180h-547v180zM1302 1896q-41 42 -41 103q0 60 41 102q41 43 101 43q59 0 99 -43q40 -42 40 -102q0 -61 -40 -103q-40 -43 -99 -43q-60 0 -101 43zM1475 1579q-44 46 -44 112t44 112q45 46 110 46q64 0 109 -46q45 -47 45 -112q0 -66 -45 -112
q-45 -47 -109 -47q-66 0 -110 47zM1111 1579q-44 46 -44 112q0 65 44 112q45 46 109 46q66 0 110 -46t44 -112t-44 -112q-44 -47 -110 -47q-64 0 -109 47z" />
    <glyph glyph-name="uniFBD5" unicode="&#x6ad;" horiz-adv-x="1066" arabic-form="initial" 
d="M0 254h573q-22 407 -475 500v235l832 522v-321l-463 -275q426 -198 426 -757v-158h-893v254zM332 1856q-41 42 -41 103q0 60 41 102q41 43 101 43q59 0 99 -43q40 -42 40 -102q0 -61 -40 -103q-40 -43 -99 -43q-60 0 -101 43zM505 1539q-44 46 -44 112t44 112
q45 46 110 46q64 0 109 -46q45 -47 45 -112q0 -66 -45 -112q-45 -47 -109 -47q-66 0 -110 47zM141 1539q-44 46 -44 112q0 65 44 112q45 46 109 46q66 0 110 -46t44 -112t-44 -112q-44 -47 -110 -47q-64 0 -109 47z" />
    <glyph glyph-name="uniFBD6" unicode="&#x6ad;" horiz-adv-x="1007" arabic-form="medial" 
d="M0 254h573q-22 407 -475 500v235l832 522v-321l-463 -275q389 -184 422 -661h149v-254h-1038v254zM332 1856q-41 42 -41 103q0 60 41 102q41 43 101 43q59 0 99 -43q40 -42 40 -102q0 -61 -40 -103q-40 -43 -99 -43q-60 0 -101 43zM505 1539q-44 46 -44 112t44 112
q45 46 110 46q64 0 109 -46q45 -47 45 -112q0 -66 -45 -112q-45 -47 -109 -47q-66 0 -110 47zM141 1539q-44 46 -44 112q0 65 44 112q45 46 109 46q66 0 110 -46t44 -112t-44 -112q-44 -47 -110 -47q-64 0 -109 47z" />
    <glyph glyph-name="uniFBD7" unicode="&#x6c7;" horiz-adv-x="1202" arabic-form="isolated" 
d="M92 -489l18 260q149 -31 313 -31q330 0 330 244v16h-131q-553 0 -553 471q0 221 132 362q149 158 425 158q256 0 442 -71v-902q0 -244 -160 -382q-173 -150 -511 -150q-152 0 -305 25zM753 705q-63 32 -158 32t-151 -68q-53 -65 -53 -167q0 -248 264 -248h98v451z
M345 1226l154 33q-9 25 -9 61q0 87 62 143q61 54 151 54q87 0 136 -46q45 -42 45 -110q0 -149 -203 -192l-309 -66zM673 1296q69 14 69 55q0 43 -49 43q-69 0 -69 -69q0 -23 8 -37z" />
    <glyph glyph-name="uniFBD8" unicode="&#x6c7;" horiz-adv-x="1257" arabic-form="final" 
d="M129 -489l18 260q149 -31 313 -31q330 0 330 244v16h-131q-553 0 -553 471q0 221 132 362q149 158 425 158q256 0 442 -71v-666h185v-254h-185q-6 -236 -166 -369q-175 -145 -505 -145q-152 0 -305 25zM790 705q-63 32 -158 32t-151 -68q-53 -65 -53 -167
q0 -248 264 -248h98v451zM355 1226l154 33q-9 25 -9 61q0 87 62 143q61 54 151 54q87 0 136 -46q45 -42 45 -110q0 -149 -203 -192l-309 -66zM683 1296q69 14 69 55q0 43 -49 43q-69 0 -69 -69q0 -23 8 -37z" />
    <glyph glyph-name="uniFBD9" unicode="&#x6c6;" horiz-adv-x="1202" arabic-form="isolated" 
d="M92 -489l18 260q149 -31 313 -31q330 0 330 244v16h-131q-553 0 -553 471q0 221 132 362q149 158 425 158q256 0 442 -71v-902q0 -244 -160 -382q-173 -150 -511 -150q-152 0 -305 25zM753 705q-63 32 -158 32t-151 -68q-53 -65 -53 -167q0 -248 264 -248h98v451z
M636 1096l-313 270l110 135l205 -154l205 154l109 -135z" />
    <glyph glyph-name="uniFBDA" unicode="&#x6c6;" horiz-adv-x="1257" arabic-form="final" 
d="M129 -489l18 260q149 -31 313 -31q330 0 330 244v16h-131q-553 0 -553 471q0 221 132 362q149 158 425 158q256 0 442 -71v-666h185v-254h-185q-6 -236 -166 -369q-175 -145 -505 -145q-152 0 -305 25zM790 705q-63 32 -158 32t-151 -68q-53 -65 -53 -167
q0 -248 264 -248h98v451zM636 1096l-313 270l110 135l205 -154l205 154l109 -135z" />
    <glyph glyph-name="uniFBDB" unicode="&#x6c8;" horiz-adv-x="1202" arabic-form="isolated" 
d="M92 -489l18 260q149 -31 313 -31q330 0 330 244v16h-131q-553 0 -553 471q0 221 132 362q149 158 425 158q256 0 442 -71v-902q0 -244 -160 -382q-173 -150 -511 -150q-152 0 -305 25zM753 705q-63 32 -158 32t-151 -68q-53 -65 -53 -167q0 -248 264 -248h98v451z
M520 1095v494h227v-461z" />
    <glyph glyph-name="uniFBDC" unicode="&#x6c8;" horiz-adv-x="1257" arabic-form="final" 
d="M129 -489l18 260q149 -31 313 -31q330 0 330 244v16h-131q-553 0 -553 471q0 221 132 362q149 158 425 158q256 0 442 -71v-666h185v-254h-185q-6 -236 -166 -369q-175 -145 -505 -145q-152 0 -305 25zM790 705q-63 32 -158 32t-151 -68q-53 -65 -53 -167
q0 -248 264 -248h98v451zM520 1095v494h227v-461z" />
    <glyph glyph-name="uniFBDD" unicode="&#x677;" horiz-adv-x="1370" arabic-form="isolated" 
d="M92 -489l18 260q149 -31 313 -31q330 0 330 244v16h-131q-553 0 -553 471q0 221 132 362q149 158 425 158q256 0 442 -71v-902q0 -244 -160 -382q-173 -150 -511 -150q-152 0 -305 25zM753 705q-63 32 -158 32t-151 -68q-53 -65 -53 -167q0 -248 264 -248h98v451z
M755 1282q59 0 96 -10q-26 20 -26 69q0 105 73 170q84 76 246 76q96 0 127 -10l-27 -178l-34 4q-37 4 -70 4q-88 0 -88 -57q0 -68 131 -68h119v-180h-547v180zM79 1253l179 39q-10 29 -10 71q0 101 72 166q71 63 176 63q101 0 159 -53q52 -49 52 -128q0 -174 -237 -224
l-360 -77zM461 1335q81 16 81 64q0 50 -58 50q-80 0 -80 -80q0 -27 9 -43z" />
    <glyph glyph-name="uniFBDE" unicode="&#x6cb;" horiz-adv-x="1202" arabic-form="isolated" 
d="M92 -489l18 260q149 -31 313 -31q330 0 330 244v16h-131q-553 0 -553 471q0 221 132 362q149 158 425 158q256 0 442 -71v-902q0 -244 -160 -382q-173 -150 -511 -150q-152 0 -305 25zM753 705q-63 32 -158 32t-151 -68q-53 -65 -53 -167q0 -248 264 -248h98v451z
M529 1460q-41 42 -41 103q0 60 41 102q41 43 100 43q60 0 100 -43q40 -42 40 -102q0 -61 -40 -103q-40 -43 -100 -43q-59 0 -100 43zM702 1143q-44 46 -44 112t44 112t110 46q64 0 109 -46q44 -47 44 -112q0 -66 -44 -112q-45 -47 -109 -47q-66 0 -110 47zM338 1143
q-45 46 -45 112q0 65 45 112q45 46 109 46q65 0 110 -46q44 -46 44 -112t-44 -112q-44 -47 -110 -47q-64 0 -109 47z" />
    <glyph glyph-name="uniFBDF" unicode="&#x6cb;" horiz-adv-x="1257" arabic-form="final" 
d="M129 -489l18 260q149 -31 313 -31q330 0 330 244v16h-131q-553 0 -553 471q0 221 132 362q149 158 425 158q256 0 442 -71v-666h185v-254h-185q-6 -236 -166 -369q-175 -145 -505 -145q-152 0 -305 25zM790 705q-63 32 -158 32t-151 -68q-53 -65 -53 -167
q0 -248 264 -248h98v451zM529 1460q-41 42 -41 103q0 60 41 102q41 43 100 43q60 0 100 -43q40 -42 40 -102q0 -61 -40 -103q-40 -43 -100 -43q-59 0 -100 43zM702 1143q-44 46 -44 112t44 112t110 46q64 0 109 -46q44 -47 44 -112q0 -66 -44 -112q-45 -47 -109 -47
q-66 0 -110 47zM338 1143q-45 46 -45 112q0 65 45 112q45 46 109 46q65 0 110 -46q44 -46 44 -112t-44 -112q-44 -47 -110 -47q-64 0 -109 47z" />
    <glyph glyph-name="uniFBE0" unicode="&#x6c5;" horiz-adv-x="1202" arabic-form="isolated" 
d="M753 705q-63 32 -158 32t-151 -68q-53 -65 -53 -167q0 -248 264 -248h98v451zM760 -3v97h-516q-175 112 -175 377q0 221 132 362q149 158 425 158q256 0 442 -71v-902q0 -244 -160 -382q-173 -150 -511 -150q-152 0 -305 25l18 260q149 -31 313 -31q215 0 290 104h-469
v153h516z" />
    <glyph glyph-name="uniFBE1" unicode="&#x6c5;" horiz-adv-x="1257" arabic-form="final" 
d="M790 705q-63 32 -158 32t-151 -68q-53 -65 -53 -167q0 -248 264 -248h98v451zM800 -3v97h-516q-178 110 -178 377q0 221 132 362q149 158 425 158q256 0 442 -71v-666h185v-254h-185q-6 -236 -166 -369q-175 -145 -505 -145q-152 0 -305 25l18 260q149 -31 313 -31
q215 0 290 104h-456v153h506z" />
    <glyph glyph-name="uniFBE2" unicode="&#x6c9;" horiz-adv-x="1202" arabic-form="isolated" 
d="M92 -489l18 260q149 -31 313 -31q330 0 330 244v16h-131q-553 0 -553 471q0 221 132 362q149 158 425 158q256 0 442 -71v-902q0 -244 -160 -382q-173 -150 -511 -150q-152 0 -305 25zM753 705q-63 32 -158 32t-151 -68q-53 -65 -53 -167q0 -248 264 -248h98v451z
M952 1231l-109 -135l-205 154l-205 -154l-110 135l313 270z" />
    <glyph glyph-name="uniFBE3" unicode="&#x6c9;" horiz-adv-x="1257" arabic-form="final" 
d="M129 -489l18 260q149 -31 313 -31q330 0 330 244v16h-131q-553 0 -553 471q0 221 132 362q149 158 425 158q256 0 442 -71v-666h185v-254h-185q-6 -236 -166 -369q-175 -145 -505 -145q-152 0 -305 25zM790 705q-63 32 -158 32t-151 -68q-53 -65 -53 -167
q0 -248 264 -248h98v451zM952 1231l-109 -135l-205 154l-205 -154l-110 135l313 270z" />
    <glyph glyph-name="uniFBE4" unicode="&#x6d0;" horiz-adv-x="2048" arabic-form="isolated" 
d="M859 0q-776 0 -776 614q0 155 47 308l346 55q-65 -148 -65 -330q0 -208 107 -299q111 -94 374 -94h115v698q198 39 438 39q264 0 380 -123q101 -109 101 -333v-289h-311v258q0 132 -39 182q-40 51 -150 51q-55 0 -108 -10v-727h-459zM910 -152q46 -45 46 -109
q0 -66 -46 -110q-45 -44 -112 -44q-65 0 -111 44t-46 110q0 64 46 109q46 44 111 44q66 0 112 -44zM910 -517q46 -44 46 -109q0 -64 -46 -109t-112 -45q-65 0 -111 45t-46 109t46 109t111 45q66 0 112 -45z" />
    <glyph glyph-name="uniFBE5" unicode="&#x6d0;" horiz-adv-x="2048" arabic-form="final" 
d="M859 0q-776 0 -776 614q0 155 47 308l346 55q-65 -148 -65 -330q0 -208 107 -299q111 -94 374 -94h115v698q198 39 438 39q264 0 380 -123q101 -109 101 -333v-281h152v-254h-463v504q0 132 -39 182q-40 51 -150 51q-55 0 -108 -10v-727h-459zM910 -152q46 -45 46 -109
q0 -66 -46 -110q-45 -44 -112 -44q-65 0 -111 44t-46 110q0 64 46 109q46 44 111 44q66 0 112 -44zM910 -517q46 -44 46 -109q0 -64 -46 -109t-112 -45q-65 0 -111 45t-46 109t46 109t111 45q66 0 112 -45z" />
    <glyph glyph-name="uniFBE6" unicode="&#x6d0;" horiz-adv-x="735" arabic-form="initial" 
d="M0 254h276v709h326v-963h-602v254zM390 -192q46 -45 46 -109q0 -66 -46 -110q-45 -44 -112 -44q-65 0 -111 44t-46 110q0 64 46 109q46 44 111 44q66 0 112 -44zM390 -557q46 -44 46 -109q0 -64 -46 -109t-112 -45q-65 0 -111 45t-46 109t46 109t111 45q66 0 112 -45z
" />
    <glyph glyph-name="uniFBE7" unicode="&#x6d0;" horiz-adv-x="755" arabic-form="medial" 
d="M0 254h276v709h326v-709h184v-254h-786v254zM390 -192q46 -45 46 -109q0 -66 -46 -110q-45 -44 -112 -44q-65 0 -111 44t-46 110q0 64 46 109q46 44 111 44q66 0 112 -44zM390 -557q46 -44 46 -109q0 -64 -46 -109t-112 -45q-65 0 -111 45t-46 109t46 109t111 45
q66 0 112 -45z" />
    <glyph glyph-name="uniFBE8" unicode="&#x649;" horiz-adv-x="735" arabic-form="initial" 
d="M0 254h276v709h326v-963h-602v254z" />
    <glyph glyph-name="uniFBE9" unicode="&#x649;" horiz-adv-x="755" arabic-form="medial" 
d="M0 254h276v709h326v-709h184v-254h-786v254z" />
    <glyph glyph-name="uniFBFC" unicode="&#x6cc;" horiz-adv-x="2048" arabic-form="isolated" 
d="M859 0q-776 0 -776 614q0 155 47 308l346 55q-65 -148 -65 -330q0 -208 107 -299q111 -94 374 -94h115v698q198 39 438 39q264 0 380 -123q101 -109 101 -333v-289h-311v258q0 132 -39 182q-40 51 -150 51q-55 0 -108 -10v-727h-459z" />
    <glyph glyph-name="uniFBFD" unicode="&#x6cc;" horiz-adv-x="2048" arabic-form="final" 
d="M859 0q-776 0 -776 614q0 155 47 308l346 55q-65 -148 -65 -330q0 -208 107 -299q111 -94 374 -94h115v698q198 39 438 39q264 0 380 -123q101 -109 101 -333v-281h152v-254h-463v504q0 132 -39 182q-40 51 -150 51q-55 0 -108 -10v-727h-459z" />
    <glyph glyph-name="uniFBFE" unicode="&#x6cc;" horiz-adv-x="827" arabic-form="initial" 
d="M0 254h369v709h323v-963h-692v254zM648 -419q-45 -46 -109 -46q-66 0 -110 46q-44 45 -44 112q0 65 44 111t110 46q64 0 109 -46q44 -46 44 -111q0 -66 -44 -112zM283 -419q-44 -46 -109 -46q-64 0 -109 46t-45 112q0 65 45 111t109 46t109 -46t45 -111q0 -66 -45 -112z
" />
    <glyph glyph-name="uniFBFF" unicode="&#x6cc;" horiz-adv-x="825" arabic-form="medial" 
d="M0 254h276v709h326v-709h256v-254h-858v254zM648 -419q-45 -46 -109 -46q-66 0 -110 46q-44 45 -44 112q0 65 44 111t110 46q64 0 109 -46q44 -46 44 -111q0 -66 -44 -112zM283 -419q-44 -46 -109 -46q-64 0 -109 46t-45 112q0 65 45 111t109 46t109 -46t45 -111
q0 -66 -45 -112z" />
    <glyph glyph-name="uniFC5E" unicode="&#xfc5e;" arabic-form="isolated" 
d="M-63 2110l119 25l39 -172l75 14q-12 29 -12 58q0 85 58 140q56 52 141 52q160 0 160 -147q0 -146 -183 -183l-338 -69zM330 2012q62 16 62 61q0 43 -47 43q-62 0 -62 -69q0 -23 8 -43zM158 1523q-85 0 -115 141l-16 76l117 26l14 -73q6 -41 35 -41q37 0 27 57l-13 80
l113 24l16 -77q12 -50 41 -50q40 0 29 68l-16 86l114 22l17 -77q20 -99 -18 -159t-124 -60q-56 0 -86 38q-32 -81 -135 -81z" />
    <glyph glyph-name="uniFC5F" unicode="&#xfc5f;" arabic-form="isolated" 
d="M64 1809l438 66l18 -111l-438 -67zM90 1643l441 70l16 -111l-438 -71zM129 1897q-92 0 -119 146l-14 78l117 18l12 -72q9 -41 37 -41q34 -3 27 56l-11 80l113 22l14 -80q12 -49 39 -49q38 0 31 68l-12 86l114 18l15 -76q32 -214 -146 -217q-56 0 -88 41q-31 -78 -129 -78
z" />
    <glyph glyph-name="uniFC60" unicode="&#xfc60;" arabic-form="isolated" 
d="M77 1999l430 68l16 -111l-428 -69zM224 1551q-91 0 -118 145l-15 80l117 19l12 -72q9 -41 37 -41q34 0 27 55l-10 80l114 21l15 -78q8 -49 36 -49q38 0 31 67l-12 86l115 19l14 -76q32 -214 -145 -217q-57 0 -89 41q-31 -80 -129 -80z" />
    <glyph glyph-name="uniFC61" unicode="&#xfc61;" arabic-form="isolated" 
d="M158 1523q-85 0 -115 141l-16 76l117 26l14 -73q6 -41 35 -41q37 0 26 57l-12 80l113 24l16 -77q12 -50 41 -50q39 0 29 68l-17 86l115 22l16 -77q20 -99 -17 -159q-39 -60 -124 -60q-56 0 -86 38q-33 -81 -135 -81zM-6 1944l139 31q-10 25 -10 62q0 86 60 139
q58 51 147 51q180 0 180 -152q0 -142 -203 -186l-286 -61zM299 2010q72 15 72 55q0 43 -51 43q-64 0 -64 -67q0 -23 10 -37z" />
    <glyph glyph-name="uniFC62" unicode="&#xfc62;" arabic-form="isolated" 
d="M129 1669l440 68l18 -111l-438 -69zM196 1747q-92 0 -119 146l-14 78l117 18l12 -72q9 -41 37 -41q34 -3 27 56l-11 80l113 22l14 -80q12 -49 39 -49q38 0 31 68l-12 86l114 18l15 -76q32 -214 -146 -217q-56 0 -88 41q-31 -78 -129 -78z" />
    <glyph glyph-name="uniFC63" unicode="&#xfc63;" arabic-form="isolated" 
d="M139 1541q-93 -3 -123 127l-16 70l117 22l14 -65q6 -37 35 -37q36 0 27 53l-13 72l113 20l16 -70q12 -46 39 -43q41 0 31 62l-17 76l115 20l17 -69q41 -191 -140 -197q-55 -3 -88 33q-32 -71 -127 -74zM164 1840v278h121v-250z" />
    <glyph glyph-name="uniFDF2" unicode="&#xfdf2;" horiz-adv-x="3281" arabic-form="isolated" 
d="M622 0q-553 0 -553 471q0 221 132 362q149 158 425 158q256 0 442 -71v-666h387v1042h324v-1042h395v1190h324v-1444h-1876zM753 705q-63 32 -158 32t-151 -68q-53 -65 -53 -167q0 -248 264 -248h98v451zM2809 1444h324v-1444h-324v1444zM1478 1429q-93 -3 -123 127
l-16 70l117 22l14 -65q6 -37 35 -37q36 0 27 53l-13 72l113 20l16 -70q12 -46 39 -43q41 0 31 62l-17 76l115 20l17 -69q41 -191 -140 -197q-55 -3 -88 33q-32 -71 -127 -74zM1503 1728v278h121v-250z" />
    <glyph glyph-name="uniFDFA" unicode="&#xfdfa;" horiz-adv-x="2164" arabic-form="isolated" 
d="M2082 895q0 -29 -31.5 -79t-64.5 -64q-94 -43 -238 -43q-47 0 -98 4q-49 -97 -78 -97q-8 0 -8 13q0 30 45 96q-86 33 -98 53q-80 -53 -103 -53q15 -287 51.5 -360.5t172.5 -81.5l4 4q-43 32 -43 88q0 69 65 155q49 66 125 66q60 0 109 -35q49 -33 49 -63q-51 18 -107 18
q-73 0 -133 -29q-53 -28 -53 -55q0 -29 51 -80t90 -59q37 4 139.5 36.5t137.5 51.5l-35 -76q-207 -108 -391 -108q-197 0 -244 149q-61 -133 -117 -133q-53 0 -137 90q-131 -115 -403 -115q-82 0 -144 11q8 -68 19 -107q18 -74 47 -102q90 -90 360 -90q234 0 338 65
q31 76 58 76q8 0 8 -16q0 -29 -25 -91q12 -26 55 -26q54 0 101 24q43 136 67 136q9 0 9 -23q0 -37 -21 -88q64 -27 90 -27q15 0 17 7q2 6 -17 79l35 74q25 -74 25 -106q0 -138 -91 -138q-47 0 -98 39q-31 -53 -121 -53q-98 0 -98 53q-39 -28 -131 -49q-104 -22 -248 -22
q-198 0 -293 57q-118 72 -123 258l-45 -66q-34 -51 -53 -53q25 -43 25 -84q0 -51 -33 -86q-16 -16 -43 -16q-41 0 -125 47q-27 -64 -86 -96q-14 -8 -48 -9.5t-44 -5.5l-23 -8q-12 0 -12 10q0 11 49 31q62 25 80 39l70 53q-21 37 -21 82q0 43 37 85t70 42q6 0 12 -4
q37 -20 59 -20q37 0 74 47l47 86q-78 24 -112 55q-62 55 -80 174h-4q-60 -102 -162 -102q-41 0 -80 16q-33 14 -33 25q0 51 88 118q84 64 174 91l-4 34l41 68q17 -221 44.5 -287.5t113.5 -93.5l-27 270l39 88l35 -368q108 -12 195 -12q213 0 362 81q27 78 39 78q8 0 8 -18
q0 -19 -8 -51q74 -72 121 -72q53 0 86 88l-27 330q-151 -6 -180 151h-4q-17 -61 -29 -86q-22 -51 -55 -61l4 -4q143 10 143 -80q0 -60 -51 -94q-174 -121 -328 -121q-94 0 -151 48t-57 134q0 64 32 137q-57 17 -78 88h-4q-30 -104 -112 -104q-101 0 -97 158l-55 -50
q-16 -14 -80 -14q-100 0 -100 37q0 20 27.5 64.5t50.5 54.5l155 76v20l35 74l8 -246q5 -86 66 -86q31 0 60.5 21.5t33.5 46.5l-33 233l37 80l58 -330q18 -43 67 -43q47 0 47 27q0 41 -32 151q-21 66 -41 133l26 68q82 -258 82 -321q0 -41 -20 -91q-23 -57 -52 -57
q-10 0 -18 6q-14 -43 -14 -80q0 -153 186 -153q145 0 291 98q4 4 4 6q0 12 -78 25q-117 18 -125 20q-24 19 27 82q123 51 131 109q2 10 2 28q0 199 -41 473l35 115q49 -434 78 -524q37 -117 147 -135l-10 196l43 92l16 -286q60 20 123 73q51 -36 62 -43q38 -24 79 -30
q43 47 134 112q104 78 143 78q37 0 84 -28q53 -31 53 -68zM2064 4q0 -100 -80 -221q-86 -131 -182 -131q-45 0 -121 32.5t-76 47.5q0 8 10 8q8 0 55.5 -15.5t71.5 -15.5q139 -4 287 217l-14 45q-37 -53 -76 -53q-29 0 -50.5 26.5t-23.5 57.5q-2 47 32 110.5t56 63.5
q27 0 66 -49q45 -55 45 -123zM1986 1309q-72 -25 -238 -105q-196 -96 -196 -125q0 -24 53 -51l-18 -49q-68 22 -68 82q0 61 53 90q260 149 432 209zM974 915q-6 -135 -26 -149l-52 496l45 116zM1232 76l-53 -64l-98 72l-58 -74l-102 74l59 72l97 -72l55 68zM2025 860
q0 14 -36 32.5t-54 18.5q-43 0 -123 -49q-64 -39 -96 -69q12 -2 41 -2q83 0 167 16q101 20 101 53zM1294 -248q0 -47 -4 -61q-13 -27 -52 -27q-18 0 -28 8q-31 -32 -62 -32q-16 0 -33.5 17t-25.5 17q-17 0 -76 -35.5t-143 -35.5q-90 0 -90 16q0 14 65 14q72 0 94 5
q29 6 72 32q61 39 82 39q16 0 38.5 -16.5t26.5 -16.5q31 0 37 35q4 27 23 27q8 0 8 -12q0 -9 -2 -19q4 -8 23 -12q24 0 24 24q0 33 23 33zM1668 1444l-12 -45l-399 -197l8 51zM345 539q-180 -72 -180 -107q0 -20 64 -20q67 0 121 49zM663 1362q0 -66 -43 -66q-27 0 -43 17
q-37 -31 -62 -31q-43 0 -43 55q0 41 7 56l12 12q-4 -76 35 -76q22 0 39 33l-5 47l19 29l8 -62q4 -33 31 -33q26 0 22 31l-6 45l15 21q14 -39 14 -78zM386 997q-41 -18 -84 -34q-67 -31 -69 -50q-2 -22 51 -22q57 0 104 27zM438 -78q-9 41 -50 70q-36 28 -69 28
q-29 0 -29 -24q0 -27 53 -55q50 -31 80 -31q17 0 15 12zM2004 20q-12 66 -53 66q-31 0 -41 -51q8 -37 64 -37q26 0 30 22z" />
    <glyph glyph-name="uniFDFB" unicode="&#xfdfb;" horiz-adv-x="2277" arabic-form="isolated" 
d="M2068 536q-15 0 -51.5 7t-75.5 7q-26 0 -58.5 -11.5t-66.5 -28.5q67 -30 135 -53t120 -23l-58 -113q-17 0 -53 7.5t-74 7.5q-36 0 -85 -23.5t-101.5 -55.5t-99.5 -65t-79 -51q-67 -42 -126.5 -69t-138.5 -27q-54 0 -83 20.5t-39 40.5q-10 16 -15 32.5t-11 37.5h-7
q-7 -17 -14 -40t-17 -39q-30 -20 -75 -44.5t-106.5 -45.5t-143.5 -35.5t-189 -14.5q-80 0 -130.5 23.5t-81.5 58t-42 77t-11 76.5q0 90 25 152t58 114l23 -10q-11 -26 -16.5 -47t-10 -41t-6 -40t-1.5 -47q0 -41 15.5 -77.5t45 -63t70 -41t89.5 -14.5q101 0 181.5 13.5
t141 32.5t103 41t63.5 41l-16 242q-26 -40 -49.5 -73.5t-44.5 -55.5q-49 -55 -103 -86t-113 -40q-41 -6 -90.5 -9t-95.5 -7l-4 15q45 17 99.5 41.5t100.5 53.5q25 14 57 38.5t66 51t63.5 54.5t51.5 58q-15 63 -43.5 143.5t-72.5 169.5l15 -194l-44 -163h-258q-34 0 -59.5 15
t-39.5 32q-17 25 -24 67.5t-14 87.5h-11l-57 -81q-84 9 -154 31q-50 17 -66 29.5t-16 33.5q0 10 9 33t22.5 45.5t26.5 44.5t22 31q10 12 46 30t86 42l72 33l-1 62l65 105l14 -160q0 -28 4 -67.5t7 -82.5t7 -81t7 -63q5 -24 11.5 -37t13.5 -20q15 -11 32 -15t42 -7h200
l-36 386q-37 61 -84.5 121t-102.5 113l-7 -48q-40 22 -67.5 41t-48 36.5t-30 35.5t-9.5 40q0 35 8 71.5t11 50.5q36 -19 77 -55t83 -80.5t84 -92t75 -95.5l-33 403q-19 19 -25.5 32t-6.5 24l83 105h6q0 -16 2 -29t11.5 -29.5t31.5 -36t60 -48.5l-79 -104l30 -442
q36 -69 62.5 -136t44.5 -125t28.5 -103t16.5 -69q7 9 12.5 18t12.5 19l-76 1016l74 126q2 -32 7 -102.5t10 -162t11 -198.5t13 -216t11.5 -211t9.5 -183q24 50 41 103t24 83q4 21 6 39.5t5 38.5l-32 678l65 113l58 -1136q2 -16 6 -38t13.5 -42.5t27.5 -36.5t49 -16
q56 0 100 13.5t98 34.5q12 4 24 9.5t26 12.5q-49 21 -90.5 33t-72.5 12q-20 0 -33 -8t-23 -21q-4 -5 -8 -10.5t-9 -10.5l-22 13q15 37 27 65t25.5 45.5t31 26t46.5 8.5q14 0 43 -7.5t62.5 -20.5t70.5 -29t70 -31q42 23 74.5 41.5t53.5 26.5q-36 11 -83.5 34t-97 46.5
t-96.5 38t-77 14.5q-20 0 -34.5 -9t-21.5 -20q-7 -7 -10.5 -12t-5.5 -9l-25 12q16 38 28.5 65.5t26 46.5t30.5 27t46 8q19 0 54.5 -12t78.5 -30t86 -39t78 -35q35 -16 74 -32t76 -28t72.5 -21t64.5 -9zM1130 326q5 -31 13 -60.5t24.5 -52t42.5 -36t58 -13.5q67 0 115 14
t103 44q31 14 78 41.5t94 54t88.5 49.5t62.5 31q-25 9 -52.5 20.5t-57.5 25.5q-29 -18 -54.5 -34t-47.5 -29q-35 -16 -64.5 -33.5t-61.5 -28.5t-66 -18t-76 -7q-27 0 -45 7t-29.5 18t-17.5 22t-12 21q-6 14 -15 66t-15 164q-4 30 -5.5 59.5t-2.5 51.5h-10l-11 -33
q-10 -29 -24 -70t-31 -77q4 -29 5 -54t3 -32zM1837 1182l-477 -202l38 84l477 205zM1566 1463q0 -19 -2 -37t-6 -30q8 -5 17.5 -9.5t22.5 -4.5q32 0 49.5 33.5t21.5 74.5l32 17q0 -34 -3.5 -68.5t-13 -63.5t-33 -49t-63.5 -20q-21 0 -35.5 9t-22.5 17q-5 -11 -13.5 -24.5
t-20 -25.5t-27.5 -19t-38 -7q-21 0 -35.5 14.5t-14.5 64.5q0 14 2.5 28t6.5 29t8.5 27.5t9.5 17.5l17 -10q0 -9 -4 -24.5t-4 -25.5q0 -17 7 -27t29 -10q18 0 32 13t23.5 32t16.5 41.5t13 36.5h28zM453 688l-14 189q-13 -16 -21 -34t-21 -25q-7 -5 -31.5 -16.5t-52 -23
l-55 -23t-40.5 -18.5l-9 -14q53 -19 106 -28.5t119 -20.5zM1965 997q-52 -18 -117 -45t-129 -53l37 84q63 27 125.5 53t119.5 47zM1532 -112l-104 64l68 89l102 -67zM1797 -3l-103 63l67 88l103 -63z" />
    <glyph glyph-name="uniFDFC" unicode="&#xfdfc;" horiz-adv-x="3432" arabic-form="isolated" 
d="M880 1444h323v-1264q0 -651 -579 -651q-543 0 -543 590q0 173 47 352l336 59q-59 -196 -59 -380q0 -367 243 -367q232 0 232 373v1288zM2328 -419q-45 -46 -109 -46q-66 0 -110 46q-44 45 -44 112q0 65 44 111t110 46q64 0 109 -46q44 -46 44 -111q0 -66 -44 -112z
M1963 -419q-44 -46 -109 -46q-64 0 -109 46t-45 112q0 65 45 111t109 46t109 -46t45 -111q0 -66 -45 -112zM1499 0v1444h324v-1190h446v709h323v-963h-1093zM2600 -504l23 256q62 -16 139 -16q94 0 138 50q48 57 48 194v983h324v-971q0 -508 -527 -508q-77 0 -145 12z" />
    <glyph glyph-name="uniFE80" unicode="&#x621;" horiz-adv-x="976" arabic-form="isolated" 
d="M73 254q102 0 154 -14q-48 30 -48 112q0 153 108 249q124 112 364 112q102 0 188 -15l-39 -252q-61 13 -158 13q-139 0 -139 -97q0 -108 203 -108h182v-254h-815v254z" />
    <glyph glyph-name="uniFE81" unicode="&#x622;" horiz-adv-x="645" arabic-form="isolated" 
d="M161 1444h323v-1444h-323v1444zM-40 1694l238 174q75 -80 192 -80q116 0 211 82v-228q-91 -77 -225 -77q-108 0 -183 65l-127 -88z" />
    <glyph glyph-name="uniFE82" unicode="&#x622;" horiz-adv-x="645" arabic-form="final" 
d="M161 1444h323v-1190h193v-254h-516v1444zM-40 1694l238 174q75 -80 192 -80q116 0 211 82v-228q-91 -77 -225 -77q-108 0 -183 65l-127 -88z" />
    <glyph glyph-name="uniFE83" unicode="&#x623;" horiz-adv-x="645" arabic-form="isolated" 
d="M159 1382h324v-1382h-324v1382zM34 1653q64 0 109 -11q-37 25 -37 84q0 85 73 145q86 71 246 71q38 0 84 -7l43 -6l-29 -160l-34 5q-37 4 -72 4q-94 0 -94 -60q0 -65 135 -65h125v-164h-549v164z" />
    <glyph glyph-name="uniFE84" unicode="&#x623;" horiz-adv-x="645" arabic-form="final" 
d="M159 1382h324v-1128h192v-254h-516v1382zM34 1653q64 0 109 -11q-37 25 -37 84q0 85 73 145q86 71 246 71q38 0 84 -7l43 -6l-29 -160l-34 5q-37 4 -72 4q-94 0 -94 -60q0 -65 135 -65h125v-164h-549v164z" />
    <glyph glyph-name="uniFE85" unicode="&#x624;" horiz-adv-x="1202" arabic-form="isolated" 
d="M92 -489l18 260q149 -31 313 -31q330 0 330 244v16h-131q-553 0 -553 471q0 221 132 362q149 158 425 158q256 0 442 -71v-902q0 -244 -160 -382q-173 -150 -511 -150q-152 0 -305 25zM753 705q-63 32 -158 32t-151 -68q-53 -65 -53 -167q0 -248 264 -248h98v451z
M325 1282q59 0 96 -10q-26 20 -26 69q0 105 73 170q84 76 246 76q96 0 127 -10l-27 -178l-34 4q-37 4 -70 4q-88 0 -88 -57q0 -68 131 -68h119v-180h-547v180z" />
    <glyph glyph-name="uniFE86" unicode="&#x624;" horiz-adv-x="1222" arabic-form="final" 
d="M92 -489l18 260q149 -31 313 -31q330 0 330 244v16h-131q-553 0 -553 471q0 221 132 362q149 158 425 158q256 0 442 -71v-666h185v-254h-185q-6 -236 -166 -369q-175 -145 -505 -145q-152 0 -305 25zM325 1282q59 0 96 -10q-26 20 -26 69q0 105 73 170q84 76 246 76
q96 0 127 -10l-27 -178l-34 4q-37 4 -70 4q-88 0 -88 -57q0 -68 131 -68h119v-180h-547v180zM753 705q-63 32 -158 32t-151 -68q-53 -65 -53 -167q0 -248 264 -248h98v451z" />
    <glyph glyph-name="uniFE87" unicode="&#x625;" horiz-adv-x="645" arabic-form="isolated" 
d="M159 1444h323v-1444h-323v1444zM36 -389q70 0 100 -8q-30 22 -30 75q0 87 75 144q85 65 238 65q78 0 127 -12l-29 -160l-36 5q-38 6 -70 6q-88 0 -88 -56q0 -59 127 -59h129v-164h-543v164z" />
    <glyph glyph-name="uniFE88" unicode="&#x625;" horiz-adv-x="645" arabic-form="final" 
d="M160 1444h323v-1190h193v-254h-516v1444zM6 -389q70 0 100 -8q-30 22 -30 75q0 87 75 144q85 65 238 65q78 0 127 -12l-29 -160l-36 5q-38 6 -70 6q-88 0 -88 -56q0 -59 127 -59h129v-164h-543v164z" />
    <glyph glyph-name="uniFE89" unicode="&#x626;" horiz-adv-x="2048" arabic-form="isolated" 
d="M859 0q-776 0 -776 614q0 155 47 308l346 55q-65 -148 -65 -330q0 -208 107 -299q111 -94 374 -94h115v698q198 39 438 39q264 0 380 -123q101 -109 101 -333v-289h-311v258q0 132 -39 182q-40 51 -150 51q-55 0 -108 -10v-727h-459zM85 1290q59 0 96 -10q-26 20 -26 70
q0 104 73 169q84 76 246 76q96 0 127 -10l-26 -178l-35 4q-37 4 -70 4q-88 0 -88 -57q0 -68 131 -68h119v-180h-547v180z" />
    <glyph glyph-name="uniFE8A" unicode="&#x626;" horiz-adv-x="2048" arabic-form="final" 
d="M85 1290q59 0 96 -10q-26 20 -26 70q0 104 73 169q84 76 246 76q96 0 127 -10l-26 -178l-35 4q-37 4 -70 4q-88 0 -88 -57q0 -68 131 -68h119v-180h-547v180zM859 0q-776 0 -776 614q0 155 47 308l346 55q-65 -148 -65 -330q0 -208 107 -299q111 -94 374 -94h115v698
q198 39 438 39q264 0 380 -123q101 -109 101 -333v-281h152v-254h-463v504q0 132 -39 182q-40 51 -150 51q-55 0 -108 -10v-727h-459z" />
    <glyph glyph-name="uniFE8B" unicode="&#x626;" horiz-adv-x="735" arabic-form="initial" 
d="M129 1288q59 0 96 -10q-26 20 -26 70q0 104 73 169q84 76 246 76q96 0 127 -10l-27 -178l-34 4q-37 4 -70 4q-88 0 -88 -57q0 -68 131 -68h119v-180h-547v180zM0 254h276v709h326v-963h-602v254z" />
    <glyph glyph-name="uniFE8C" unicode="&#x626;" horiz-adv-x="755" arabic-form="medial" 
d="M0 254h276v709h326v-709h184v-254h-786v254zM129 1290q59 0 96 -10q-26 20 -26 70q0 104 73 169q84 76 246 76q96 0 127 -10l-27 -178l-34 4q-37 4 -70 4q-88 0 -88 -57q0 -68 131 -68h119v-180h-547v180z" />
    <glyph glyph-name="uniFE8D" unicode="&#x627;" horiz-adv-x="645" arabic-form="isolated" 
d="M159 1444h324v-1444h-324v1444z" />
    <glyph glyph-name="uniFE8E" unicode="&#x627;" horiz-adv-x="645" arabic-form="final" 
d="M159 1444h324v-1190h192v-254h-516v1444z" />
    <glyph glyph-name="uniFE8F" unicode="&#x628;" horiz-adv-x="1583" arabic-form="isolated" 
d="M859 0q-776 0 -776 614q0 155 47 308l346 55q-65 -148 -65 -330q0 -208 107 -299q111 -94 374 -94h231v709h326v-963h-590zM695 -421q-47 47 -47 114t47 113q47 47 113 47q68 0 115 -47q47 -46 47 -113q0 -68 -47 -114t-115 -46q-66 0 -113 46z" />
    <glyph glyph-name="uniFE90" unicode="&#x628;" horiz-adv-x="1603" arabic-form="final" 
d="M859 0q-776 0 -776 614q0 155 47 308l346 55q-65 -148 -65 -330q0 -208 107 -299q111 -94 374 -94h231v709h326v-709h184v-254h-774zM695 -421q-47 47 -47 114t47 113q47 47 113 47q68 0 115 -47q47 -46 47 -113q0 -68 -47 -114t-115 -46q-66 0 -113 46z" />
    <glyph glyph-name="uniFE91" unicode="&#x628;" horiz-adv-x="735" arabic-form="initial" 
d="M0 254h276v709h326v-963h-602v254zM166 -421q-47 47 -47 114t47 113q46 47 113 47t114 -47q47 -46 47 -113q0 -68 -47 -114t-114 -46t-113 46z" />
    <glyph glyph-name="uniFE92" unicode="&#x628;" horiz-adv-x="755" arabic-form="medial" 
d="M0 254h276v709h326v-709h184v-254h-786v254zM166 -421q-47 47 -47 114t47 113q46 47 113 47t114 -47q47 -46 47 -113q0 -68 -47 -114t-114 -46t-113 46z" />
    <glyph glyph-name="uniFE93" unicode="&#x629;" horiz-adv-x="1216" arabic-form="isolated" 
d="M622 0q-553 0 -553 471q0 224 137 366q148 154 410 154q243 0 366 -133q113 -123 113 -344v-514h-473zM780 479q0 258 -185 258q-95 0 -151 -68q-53 -65 -53 -167q0 -248 264 -248h125v225zM670 1143q-44 46 -44 112t44 112t110 46q64 0 109 -46q44 -47 44 -112
q0 -66 -44 -112q-45 -47 -109 -47q-66 0 -110 47zM306 1143q-44 46 -44 112q0 65 44 112q45 46 109 46t109 -46q45 -47 45 -112q0 -66 -45 -112q-45 -47 -109 -47t-109 47z" />
    <glyph glyph-name="uniFE94" unicode="&#x629;" horiz-adv-x="1222" arabic-form="final" 
d="M622 0q-553 0 -553 471q0 221 132 362q149 158 425 158q256 0 442 -71v-666h185v-254h-631zM753 705q-63 32 -158 32t-151 -68q-53 -65 -53 -167q0 -248 264 -248h98v451zM670 1143q-44 46 -44 112t44 112t110 46q64 0 109 -46q44 -47 44 -112q0 -66 -44 -112
q-45 -47 -109 -47q-66 0 -110 47zM306 1143q-44 46 -44 112q0 65 44 112q45 46 109 46t109 -46q45 -47 45 -112q0 -66 -45 -112q-45 -47 -109 -47t-109 47z" />
    <glyph glyph-name="uniFE95" unicode="&#x62a;" horiz-adv-x="1583" arabic-form="isolated" 
d="M859 0q-776 0 -776 614q0 155 47 308l346 55q-65 -148 -65 -330q0 -208 107 -299q111 -94 374 -94h231v709h326v-963h-590zM895 1143q-44 46 -44 112t44 112t110 46q64 0 109 -46q44 -47 44 -112q0 -66 -44 -112q-45 -47 -109 -47q-66 0 -110 47zM531 1143
q-45 46 -45 112q0 65 45 112q45 46 109 46t109 -46q45 -47 45 -112q0 -66 -45 -112q-45 -47 -109 -47t-109 47z" />
    <glyph glyph-name="uniFE96" unicode="&#x62a;" horiz-adv-x="1603" arabic-form="final" 
d="M859 0q-776 0 -776 614q0 155 47 308l346 55q-65 -148 -65 -330q0 -208 107 -299q111 -94 374 -94h231v709h326v-709h184v-254h-774zM895 1143q-44 46 -44 112t44 112t110 46q64 0 109 -46q44 -47 44 -112q0 -66 -44 -112q-45 -47 -109 -47q-66 0 -110 47zM531 1143
q-45 46 -45 112q0 65 45 112q45 46 109 46t109 -46q45 -47 45 -112q0 -66 -45 -112q-45 -47 -109 -47t-109 47z" />
    <glyph glyph-name="uniFE97" unicode="&#x62a;" horiz-adv-x="735" arabic-form="initial" 
d="M0 254h276v709h326v-963h-602v254zM472 1143q-44 46 -44 112t44 112t110 46q64 0 109 -46q44 -47 44 -112q0 -66 -44 -112q-45 -47 -109 -47q-66 0 -110 47zM108 1143q-45 46 -45 112q0 65 45 112q45 46 109 46t109 -46q45 -47 45 -112q0 -66 -45 -112q-45 -47 -109 -47
t-109 47z" />
    <glyph glyph-name="uniFE98" unicode="&#x62a;" horiz-adv-x="735" arabic-form="medial" 
d="M0 254h276v709h326v-709h166v-254h-768v254zM472 1143q-44 46 -44 112t44 112t110 46q64 0 109 -46q44 -47 44 -112q0 -66 -44 -112q-45 -47 -109 -47q-66 0 -110 47zM108 1143q-45 46 -45 112q0 65 45 112q45 46 109 46t109 -46q45 -47 45 -112q0 -66 -45 -112
q-45 -47 -109 -47t-109 47z" />
    <glyph glyph-name="uniFE99" unicode="&#x62b;" horiz-adv-x="1583" arabic-form="isolated" 
d="M859 0q-776 0 -776 614q0 155 47 308l346 55q-65 -148 -65 -330q0 -208 107 -299q111 -94 374 -94h231v709h326v-963h-590zM722 1460q-41 42 -41 103q0 60 41 102q41 43 100 43q60 0 100 -43q40 -42 40 -102q0 -61 -40 -103q-40 -43 -100 -43q-59 0 -100 43zM895 1143
q-44 46 -44 112t44 112t110 46q64 0 109 -46q44 -47 44 -112q0 -66 -44 -112q-45 -47 -109 -47q-66 0 -110 47zM531 1143q-45 46 -45 112q0 65 45 112q45 46 109 46q65 0 110 -46q44 -46 44 -112t-44 -112q-44 -47 -110 -47q-64 0 -109 47z" />
    <glyph glyph-name="uniFE9A" unicode="&#x62b;" horiz-adv-x="1603" arabic-form="final" 
d="M859 0q-776 0 -776 614q0 155 47 308l346 55q-65 -148 -65 -330q0 -208 107 -299q111 -94 374 -94h231v709h326v-709h184v-254h-774zM895 1143q-44 46 -44 112t44 112t110 46q64 0 109 -46q44 -47 44 -112q0 -66 -44 -112q-45 -47 -109 -47q-66 0 -110 47zM531 1143
q-45 46 -45 112q0 65 45 112q45 46 109 46q65 0 110 -46q44 -46 44 -112t-44 -112q-44 -47 -110 -47q-64 0 -109 47zM722 1460q-41 42 -41 103q0 60 41 102q41 43 100 43q60 0 100 -43q40 -42 40 -102q0 -61 -40 -103q-40 -43 -100 -43q-59 0 -100 43z" />
    <glyph glyph-name="uniFE9B" unicode="&#x62b;" horiz-adv-x="735" arabic-form="initial" 
d="M0 254h276v709h326v-963h-602v254zM299 1460q-41 42 -41 103q0 60 41 102q41 43 100 43q60 0 100 -43q40 -42 40 -102q0 -61 -40 -103q-40 -43 -100 -43q-59 0 -100 43zM472 1143q-44 46 -44 112t44 112t110 46q64 0 109 -46q44 -47 44 -112q0 -66 -44 -112
q-45 -47 -109 -47q-66 0 -110 47zM108 1143q-45 46 -45 112q0 65 45 112q45 46 109 46q65 0 110 -46q44 -46 44 -112t-44 -112q-44 -47 -110 -47q-64 0 -109 47z" />
    <glyph glyph-name="uniFE9C" unicode="&#x62b;" horiz-adv-x="755" arabic-form="medial" 
d="M0 254h276v709h326v-709h184v-254h-786v254zM472 1143q-44 46 -44 112t44 112t110 46q64 0 109 -46q44 -47 44 -112q0 -66 -44 -112q-45 -47 -109 -47q-66 0 -110 47zM108 1143q-45 46 -45 112q0 65 45 112q45 46 109 46q65 0 110 -46q44 -46 44 -112t-44 -112
q-44 -47 -110 -47q-64 0 -109 47zM299 1460q-41 42 -41 103q0 60 41 102q41 43 100 43q60 0 100 -43q40 -42 40 -102q0 -61 -40 -103q-40 -43 -100 -43q-59 0 -100 43z" />
    </font>
</defs>
</svg>
