<?xml version="1.0" standalone="no"?>
<!DOCTYPE svg PUBLIC "-//W3C//DTD SVG 1.1//EN" "http://www.w3.org/Graphics/SVG/1.1/DTD/svg11.dtd" >
<svg xmlns="http://www.w3.org/2000/svg" xmlns:xlink="http://www.w3.org/1999/xlink" version="1.1">
<metadata>
Created by FontForge 20170731 at Sun Oct 23 22:48:38 2016
 By Aleksey,,,
(c)  2013 Bahij Virtual Academy. All rights reserved.
</metadata>
<defs>
<font id="BahijTheSansArabic-Light" horiz-adv-x="1212" >
  <font-face 
    font-family="Bahij TheSansArabic Light"
    font-weight="300"
    font-stretch="normal"
    units-per-em="2048"
    panose-1="2 4 5 3 5 2 1 2 2 3"
    ascent="1638"
    descent="-410"
    x-height="1018"
    cap-height="1382"
    bbox="-448 -1025 5711 2343"
    underline-thickness="50"
    underline-position="-150"
    unicode-range="U+0020-FEFC"
  />
<missing-glyph horiz-adv-x="728" 
d="M0 0v1020h728v-1020h-728zM117 947l247 -372l248 372h-495zM655 881l-247 -371l247 -372v743zM612 73l-248 371l-247 -371h495zM73 138l247 372l-247 371v-743z" />
    <glyph glyph-name="uniFB01" unicode="fi" horiz-adv-x="1200" 
d="M876 0v915h-502v-915h-129v915h-233v103h233v51q0 436 455 436q133 0 264 -39l-26 -108q-127 41 -246 41q-318 0 -318 -307v-74h629v-1018h-127z" />
    <glyph glyph-name="uniFB02" unicode="fl" horiz-adv-x="1200" 
d="M876 0v1384q-111 17 -200 17q-157 0 -229 -64q-73 -65 -73 -209v-110h312v-103h-312v-915h-129v915h-233v103h233v131q0 356 445 356q131 0 313 -26v-1479h-127z" />
    <glyph glyph-name="uniFC31" unicode="&#xfed3;&#xfef0;" horiz-adv-x="3273" arabic-form="isolated" 
d="M2948 502q0 377 -307 377q-161 0 -255 -105q-94 -103 -94 -280q0 -201 98 -294q101 -96 322 -96h236v398zM1722 0v516q0 194 -80 279q-79 84 -256 84q-96 0 -198 -21v-858h-350q-362 0 -528 145q-163 141 -163 443q0 205 74 356l139 25q-84 -168 -84 -363
q0 -260 119 -374q134 -128 463 -128h201v840q170 39 344 39q240 0 349 -117q99 -107 99 -327v-435h364q71 0 120 -6q-178 103 -178 383q0 213 126 352q137 150 372 150q422 0 422 -451v-532h-1355zM2573 1244q-27 27 -27 65q0 37 27 63q27 27 63 27q38 0 64 -26
q27 -26 27 -64q0 -37 -27 -64q-27 -26 -64 -26t-63 25z" />
    <glyph glyph-name="uniFC32" unicode="&#xfed3;&#xfef2;" horiz-adv-x="3273" arabic-form="isolated" 
d="M1018 -369q-27 -26 -64 -26t-62 26q-26 26 -26 64q0 37 26 63q26 27 62 27q38 0 64 -26t26 -64q0 -37 -26 -64zM742 -369q-26 -26 -64 -26q-37 0 -63 26q-25 26 -25 64q0 37 25 63q26 27 63 27q90 0 90 -90q0 -37 -26 -64zM2948 502q0 377 -307 377q-161 0 -255 -105
q-94 -103 -94 -280q0 -201 98 -294q101 -96 322 -96h236v398zM1722 0v516q0 194 -80 279q-79 84 -256 84q-96 0 -198 -21v-858h-350q-362 0 -528 145q-163 141 -163 443q0 205 74 356l139 25q-84 -168 -84 -363q0 -260 119 -374q134 -128 463 -128h201v840q170 39 344 39
q240 0 349 -117q99 -107 99 -327v-435h364q71 0 120 -6q-178 103 -178 383q0 213 126 352q137 150 372 150q422 0 422 -451v-532h-1355zM2573 1244q-27 27 -27 65q0 37 27 63q27 27 63 27q38 0 64 -26q27 -26 27 -64q0 -37 -27 -64q-27 -26 -64 -26t-63 25z" />
    <glyph glyph-name="uniFC43" unicode="&#xfedf;&#xfef0;" horiz-adv-x="2659" arabic-form="isolated" 
d="M1722 0v516q0 194 -80 279q-79 84 -256 84q-96 0 -198 -21v-858h-350q-362 0 -528 145q-163 141 -163 443q0 205 74 356l139 25q-84 -168 -84 -363q0 -260 119 -374q134 -128 463 -128h201v840q170 39 344 39q240 0 349 -117q99 -107 99 -327v-435h468v1340h129v-1444
h-726z" />
    <glyph glyph-name="uniFC44" unicode="&#xfedf;&#xfef2;" horiz-adv-x="2659" arabic-form="isolated" 
d="M1018 -369q-27 -26 -64 -26t-62 26q-26 26 -26 64q0 37 26 63q26 27 62 27q38 0 64 -26t26 -64q0 -37 -26 -64zM742 -369q-26 -26 -64 -26q-37 0 -63 26q-25 26 -25 64q0 37 25 63q26 27 63 27q90 0 90 -90q0 -37 -26 -64zM1722 0v516q0 194 -80 279q-79 84 -256 84
q-96 0 -198 -21v-858h-350q-362 0 -528 145q-163 141 -163 443q0 205 74 356l139 25q-84 -168 -84 -363q0 -260 119 -374q134 -128 463 -128h201v840q170 39 344 39q240 0 349 -117q99 -107 99 -327v-435h468v1340h129v-1444h-726z" />
    <glyph glyph-name="uniFC64" unicode="&#xfe8c;&#xfeae;" horiz-adv-x="1519" arabic-form="final" 
d="M684 0v-10q0 -520 -452 -520q-131 0 -242 36l20 111q116 -43 234 -43q311 0 311 397v992h129v-859h491v859h131v-859h244v-104h-866zM952 1266q97 0 162 -11q-70 28 -70 111q0 76 54 127q64 59 184 59q41 0 102 -8l-14 -88q-49 8 -98 8q-123 0 -123 -94q0 -104 170 -104
h106v-88h-473v88z" />
    <glyph glyph-name="uniFC67" unicode="&#xfe8c;&#xfee6;" horiz-adv-x="1963" arabic-form="final" 
d="M561 831q-27 26 -27 64q0 37 27 63q27 27 64 27t63 -26q27 -26 27 -64q0 -37 -27 -64q-27 -26 -63 -26q-38 0 -64 26zM1128 0q-33 -473 -510 -473q-211 0 -337 122q-150 145 -150 441q0 210 51 406l135 26q-55 -209 -55 -420q0 -257 120 -376q95 -95 253 -95
q366 0 366 437v895h131v-859h487v859h131v-859h244v-104h-866zM1396 1266q97 0 162 -11q-70 28 -70 111q0 76 54 127q64 59 184 59q41 0 102 -8l-14 -88q-49 8 -98 8q-123 0 -123 -94q0 -104 170 -104h106v-88h-473v88z" />
    <glyph glyph-name="uniFC6A" unicode="&#xfe92;&#xfeae;" horiz-adv-x="1519" arabic-form="final" 
d="M1050 -371q-26 26 -26 64q0 37 26 63q27 27 64 27t63 -26q27 -26 27 -64q0 -37 -27 -64q-26 -26 -63 -26t-64 26zM684 0v-10q0 -520 -452 -520q-131 0 -242 36l20 111q116 -43 234 -43q311 0 311 397v992h129v-859h491v859h131v-859h244v-104h-866z" />
    <glyph glyph-name="uniFC70" unicode="&#xfe98;&#xfeae;" horiz-adv-x="1519" arabic-form="final" 
d="M684 0v-10q0 -520 -452 -520q-131 0 -242 36l20 111q116 -43 234 -43q311 0 311 397v992h129v-859h491v859h131v-859h244v-104h-866zM1284 1199q-27 27 -27 65q0 36 27 62q26 26 63 26q88 0 88 -88q0 -37 -25 -64q-26 -26 -63 -26t-63 25zM1008 1199q-25 26 -25 65
q0 36 25 62q26 26 63 26t63 -25q27 -26 27 -63t-27 -64q-26 -26 -63 -26t-63 25z" />
    <glyph glyph-name="uniFC86" unicode="&#xfee0;&#xfef0;" horiz-adv-x="2659" arabic-form="final" 
d="M1722 0v516q0 194 -80 279q-79 84 -256 84q-96 0 -198 -21v-858h-350q-362 0 -528 145q-163 141 -163 443q0 205 74 356l139 25q-84 -168 -84 -363q0 -260 119 -374q134 -128 463 -128h201v840q170 39 344 39q240 0 349 -117q99 -107 99 -327v-435h468v1340h129v-1340
h242v-104h-968z" />
    <glyph glyph-name="uniFC87" unicode="&#xfee0;&#xfef2;" horiz-adv-x="2659" arabic-form="final" 
d="M1018 -369q-27 -26 -64 -26t-62 26q-26 26 -26 64q0 37 26 63q26 27 62 27q38 0 64 -26t26 -64q0 -37 -26 -64zM742 -369q-26 -26 -64 -26q-37 0 -63 26q-25 26 -25 64q0 37 25 63q26 27 63 27q90 0 90 -90q0 -37 -26 -64zM1722 0v516q0 194 -80 279q-79 84 -256 84
q-96 0 -198 -21v-858h-350q-362 0 -528 145q-163 141 -163 443q0 205 74 356l139 25q-84 -168 -84 -363q0 -260 119 -374q134 -128 463 -128h201v840q170 39 344 39q240 0 349 -117q99 -107 99 -327v-435h468v1340h129v-1340h242v-104h-968z" />
    <glyph glyph-name="uniFCCC" unicode="&#xfedf;&#xfee4;" horiz-adv-x="1990" arabic-form="initial" 
d="M1051 502q0 377 -308 377q-160 0 -254 -105q-94 -103 -94 -280q0 -201 98 -294q101 -96 322 -96h236v398zM817 0q-373 0 -483 217q-19 -95 -96 -154q-83 -63 -207 -63h-31v104q126 0 185 70q75 87 75 307q0 213 126 352q137 150 372 150q422 0 422 -451v-428h470v1340
h129v-1444h-962z" />
    <glyph glyph-name="uniFCFB" unicode="&#xfeb3;&#xfef0;" horiz-adv-x="3761" arabic-form="isolated" 
d="M1722 0v516q0 194 -80 279q-79 84 -256 84q-96 0 -198 -21v-858h-350q-362 0 -528 145q-163 141 -163 443q0 205 74 356l139 25q-84 -168 -84 -363q0 -260 119 -374q134 -128 463 -128h201v840q170 39 344 39q240 0 349 -117q99 -107 99 -327v-435h239q120 0 173 65
q56 70 56 234v437h131v-371q0 -211 23 -275q37 -104 170 -104q116 0 174 74q70 90 70 303v455h129v-533q0 -181 76 -237q65 -48 261 -48h76q19 139 19 314q0 326 -74 575l127 29q78 -267 78 -590q0 -218 -37 -432h-156q-218 0 -313 37q-97 38 -139 143q-61 -194 -312 -194
q-209 0 -256 188q-58 -174 -276 -174h-368z" />
    <glyph glyph-name="uniFCFC" unicode="&#xfeb3;&#xfef2;" horiz-adv-x="3761" arabic-form="isolated" 
d="M1018 -369q-27 -26 -64 -26t-62 26q-26 26 -26 64q0 37 26 63q26 27 62 27q38 0 64 -26t26 -64q0 -37 -26 -64zM742 -369q-26 -26 -64 -26q-37 0 -63 26q-25 26 -25 64q0 37 25 63q26 27 63 27q90 0 90 -90q0 -37 -26 -64zM1722 0v516q0 194 -80 279q-79 84 -256 84
q-96 0 -198 -21v-858h-350q-362 0 -528 145q-163 141 -163 443q0 205 74 356l139 25q-84 -168 -84 -363q0 -260 119 -374q134 -128 463 -128h201v840q170 39 344 39q240 0 349 -117q99 -107 99 -327v-435h239q120 0 173 65q56 70 56 234v437h131v-371q0 -211 23 -275
q37 -104 170 -104q116 0 174 74q70 90 70 303v455h129v-533q0 -181 76 -237q65 -48 261 -48h76q19 139 19 314q0 326 -74 575l127 29q78 -267 78 -590q0 -218 -37 -432h-156q-218 0 -313 37q-97 38 -139 143q-61 -194 -312 -194q-209 0 -256 188q-58 -174 -276 -174h-368z
" />
    <glyph glyph-name="uniFCFD" unicode="&#xfeb7;&#xfef0;" horiz-adv-x="3761" arabic-form="isolated" 
d="M1722 0v516q0 194 -80 279q-79 84 -256 84q-96 0 -198 -21v-858h-350q-362 0 -528 145q-163 141 -163 443q0 205 74 356l139 25q-84 -168 -84 -363q0 -260 119 -374q134 -128 463 -128h201v840q170 39 344 39q240 0 349 -117q99 -107 99 -327v-435h239q120 0 173 65
q56 70 56 234v437h131v-371q0 -211 23 -275q37 -104 170 -104q116 0 174 74q70 90 70 303v455h129v-533q0 -181 76 -237q65 -48 261 -48h76q19 139 19 314q0 326 -74 575l127 29q78 -267 78 -590q0 -218 -37 -432h-156q-218 0 -313 37q-97 38 -139 143q-61 -194 -312 -194
q-209 0 -256 188q-58 -174 -276 -174h-368zM2742 1199q-25 26 -25 65q0 36 25 62q26 26 63 26t63 -25q27 -26 27 -63t-27 -64q-27 -26 -63 -26q-37 0 -63 25zM3018 1199q-27 27 -27 65q0 36 27 62q26 26 63 26q88 0 88 -88q0 -37 -25 -64q-26 -26 -63 -26t-63 25zM2856 1473
q0 36 25 62t61 26q88 0 88 -88q0 -37 -26 -63q-25 -26 -62 -26q-86 0 -86 89z" />
    <glyph glyph-name="uniFCFE" unicode="&#xfeb7;&#xfef2;" horiz-adv-x="3761" arabic-form="isolated" 
d="M1018 -369q-27 -26 -64 -26t-62 26q-26 26 -26 64q0 37 26 63q26 27 62 27q38 0 64 -26t26 -64q0 -37 -26 -64zM742 -369q-26 -26 -64 -26q-37 0 -63 26q-25 26 -25 64q0 37 25 63q26 27 63 27q90 0 90 -90q0 -37 -26 -64zM1722 0v516q0 194 -80 279q-79 84 -256 84
q-96 0 -198 -21v-858h-350q-362 0 -528 145q-163 141 -163 443q0 205 74 356l139 25q-84 -168 -84 -363q0 -260 119 -374q134 -128 463 -128h201v840q170 39 344 39q240 0 349 -117q99 -107 99 -327v-435h239q120 0 173 65q56 70 56 234v437h131v-371q0 -211 23 -275
q37 -104 170 -104q116 0 174 74q70 90 70 303v455h129v-533q0 -181 76 -237q65 -48 261 -48h76q19 139 19 314q0 326 -74 575l127 29q78 -267 78 -590q0 -218 -37 -432h-156q-218 0 -313 37q-97 38 -139 143q-61 -194 -312 -194q-209 0 -256 188q-58 -174 -276 -174h-368z
M2742 1199q-25 26 -25 65q0 36 25 62q26 26 63 26t63 -25q27 -26 27 -63t-27 -64q-27 -26 -63 -26q-37 0 -63 25zM3018 1199q-27 27 -27 65q0 36 27 62q26 26 63 26q88 0 88 -88q0 -37 -25 -64q-26 -26 -63 -26t-63 25zM2856 1473q0 36 25 62t61 26q88 0 88 -88
q0 -37 -26 -63q-25 -26 -62 -26q-86 0 -86 89z" />
    <glyph glyph-name="uniFD05" unicode="&#xfebb;&#xfef0;" horiz-adv-x="3523" arabic-form="isolated" 
d="M2864 104q426 0 426 400q0 375 -279 375q-228 0 -389 -252q-144 -226 -166 -523h408zM1722 0v516q0 194 -80 279q-79 84 -256 84q-96 0 -198 -21v-858h-350q-362 0 -528 145q-163 141 -163 443q0 205 74 356l139 25q-84 -168 -84 -363q0 -260 119 -374q134 -128 463 -128
h201v840q170 39 344 39q240 0 349 -117q99 -107 99 -327v-435h476v859h131v-101q0 -233 -20 -411h2q71 254 238 397q158 135 354 135q186 0 289 -121q104 -122 104 -344q0 -229 -127 -363q-148 -155 -451 -155h-1125z" />
    <glyph glyph-name="uniFD06" unicode="&#xfebb;&#xfef2;" horiz-adv-x="3523" arabic-form="isolated" 
d="M1018 -369q-27 -26 -64 -26t-62 26q-26 26 -26 64q0 37 26 63q26 27 62 27q38 0 64 -26t26 -64q0 -37 -26 -64zM742 -369q-26 -26 -64 -26q-37 0 -63 26q-25 26 -25 64q0 37 25 63q26 27 63 27q90 0 90 -90q0 -37 -26 -64zM2864 104q426 0 426 400q0 375 -279 375
q-228 0 -389 -252q-144 -226 -166 -523h408zM1722 0v516q0 194 -80 279q-79 84 -256 84q-96 0 -198 -21v-858h-350q-362 0 -528 145q-163 141 -163 443q0 205 74 356l139 25q-84 -168 -84 -363q0 -260 119 -374q134 -128 463 -128h201v840q170 39 344 39q240 0 349 -117
q99 -107 99 -327v-435h476v859h131v-101q0 -233 -20 -411h2q71 254 238 397q158 135 354 135q186 0 289 -121q104 -122 104 -344q0 -229 -127 -363q-148 -155 -451 -155h-1125z" />
    <glyph glyph-name="uniFD07" unicode="&#xfebf;&#xfef0;" horiz-adv-x="3523" arabic-form="isolated" 
d="M2864 104q426 0 426 400q0 375 -279 375q-228 0 -389 -252q-144 -226 -166 -523h408zM1722 0v516q0 194 -80 279q-79 84 -256 84q-96 0 -198 -21v-858h-350q-362 0 -528 145q-163 141 -163 443q0 205 74 356l139 25q-84 -168 -84 -363q0 -260 119 -374q134 -128 463 -128
h201v840q170 39 344 39q240 0 349 -117q99 -107 99 -327v-435h476v859h131v-101q0 -233 -20 -411h2q71 254 238 397q158 135 354 135q186 0 289 -121q104 -122 104 -344q0 -229 -127 -363q-148 -155 -451 -155h-1125zM2942 1242q-27 27 -27 65q0 36 27 63q26 27 63 27
t64 -26q26 -26 26 -64q0 -37 -26 -64q-27 -26 -64 -26t-63 25z" />
    <glyph glyph-name="uniFD08" unicode="&#xfebf;&#xfef2;" horiz-adv-x="3523" arabic-form="isolated" 
d="M1018 -369q-27 -26 -64 -26t-62 26q-26 26 -26 64q0 37 26 63q26 27 62 27q38 0 64 -26t26 -64q0 -37 -26 -64zM742 -369q-26 -26 -64 -26q-37 0 -63 26q-25 26 -25 64q0 37 25 63q26 27 63 27q90 0 90 -90q0 -37 -26 -64zM2864 104q426 0 426 400q0 375 -279 375
q-228 0 -389 -252q-144 -226 -166 -523h408zM1722 0v516q0 194 -80 279q-79 84 -256 84q-96 0 -198 -21v-858h-350q-362 0 -528 145q-163 141 -163 443q0 205 74 356l139 25q-84 -168 -84 -363q0 -260 119 -374q134 -128 463 -128h201v840q170 39 344 39q240 0 349 -117
q99 -107 99 -327v-435h476v859h131v-101q0 -233 -20 -411h2q71 254 238 397q158 135 354 135q186 0 289 -121q104 -122 104 -344q0 -229 -127 -363q-148 -155 -451 -155h-1125zM2942 1242q-27 27 -27 65q0 36 27 63q26 27 63 27t64 -26q26 -26 26 -64q0 -37 -26 -64
q-27 -26 -64 -26t-63 25z" />
    <glyph glyph-name="uniFD0D" unicode="&#xfeb7;&#xfeae;" horiz-adv-x="2617" arabic-form="isolated" 
d="M684 0v-10q0 -520 -452 -520q-131 0 -242 36l20 111q116 -43 234 -43q311 0 311 397v992h129v-859h262q120 0 173 65q56 70 56 234v437h131v-371q0 -211 23 -275q37 -104 170 -104q116 0 174 74q70 90 70 303v455h129v-533q0 -181 76 -237q65 -48 261 -48h76
q19 139 19 314q0 326 -74 575l127 29q78 -267 78 -590q0 -218 -37 -432h-156q-218 0 -313 37q-97 38 -139 143q-61 -194 -312 -194q-209 0 -256 188q-58 -174 -276 -174h-262zM1598 1199q-25 26 -25 65q0 36 25 62q26 26 63 26t63 -25q27 -26 27 -63t-27 -64
q-27 -26 -63 -26q-37 0 -63 25zM1874 1199q-27 27 -27 65q0 36 27 62q26 26 63 26q88 0 88 -88q0 -37 -25 -64q-26 -26 -63 -26t-63 25zM1712 1473q0 36 25 62t61 26q88 0 88 -88q0 -37 -26 -63q-25 -26 -62 -26q-86 0 -86 89z" />
    <glyph glyph-name="uniFD0E" unicode="&#xfeb3;&#xfeae;" horiz-adv-x="2617" arabic-form="isolated" 
d="M684 0v-10q0 -520 -452 -520q-131 0 -242 36l20 111q116 -43 234 -43q311 0 311 397v992h129v-859h262q120 0 173 65q56 70 56 234v437h131v-371q0 -211 23 -275q37 -104 170 -104q116 0 174 74q70 90 70 303v455h129v-533q0 -181 76 -237q65 -48 261 -48h76
q19 139 19 314q0 326 -74 575l127 29q78 -267 78 -590q0 -218 -37 -432h-156q-218 0 -313 37q-97 38 -139 143q-61 -194 -312 -194q-209 0 -256 188q-58 -174 -276 -174h-262z" />
    <glyph glyph-name="uniFD0F" unicode="&#xfebb;&#xfeae;" horiz-adv-x="2369" arabic-form="isolated" 
d="M1710 104q426 0 426 400q0 375 -279 375q-228 0 -389 -252q-144 -226 -166 -523h408zM684 0v-10q0 -520 -452 -520q-131 0 -242 36l20 111q116 -43 234 -43q311 0 311 397v992h129v-859h489v859h131v-101q0 -233 -20 -411h2q71 254 238 397q158 135 354 135
q186 0 289 -121q104 -122 104 -344q0 -229 -127 -363q-148 -155 -451 -155h-1009z" />
    <glyph glyph-name="uniFD10" unicode="&#xfebf;&#xfeae;" horiz-adv-x="2369" arabic-form="isolated" 
d="M1710 104q426 0 426 400q0 375 -279 375q-228 0 -389 -252q-144 -226 -166 -523h408zM684 0v-10q0 -520 -452 -520q-131 0 -242 36l20 111q116 -43 234 -43q311 0 311 397v992h129v-859h489v859h131v-101q0 -233 -20 -411h2q71 254 238 397q158 135 354 135
q186 0 289 -121q104 -122 104 -344q0 -229 -127 -363q-148 -155 -451 -155h-1009zM1788 1242q-27 27 -27 65q0 36 27 63q26 27 63 27t64 -26q26 -26 26 -64q0 -37 -26 -64q-27 -26 -64 -26t-63 25z" />
    <glyph glyph-name="uniFD17" unicode="&#xfeb4;&#xfef0;" horiz-adv-x="3767" arabic-form="final" 
d="M1722 0v516q0 194 -80 279q-79 84 -256 84q-96 0 -198 -21v-858h-350q-362 0 -528 145q-163 141 -163 443q0 205 74 356l139 25q-84 -168 -84 -363q0 -260 119 -374q134 -128 463 -128h201v840q170 39 344 39q240 0 349 -117q99 -107 99 -327v-435h229q120 0 173 65
q56 70 56 234v437h131v-371q0 -211 23 -275q37 -104 170 -104q116 0 174 74q70 90 70 303v455h129v-533q0 -181 76 -237q65 -48 261 -48h76q19 139 19 314q0 326 -74 575l127 29q78 -267 78 -590q0 -157 -23 -328h252v-104h-422q-218 0 -313 37q-97 38 -139 143
q-61 -194 -312 -194q-209 0 -256 188q-58 -174 -276 -174h-358z" />
    <glyph glyph-name="uniFD18" unicode="&#xfeb4;&#xfef2;" horiz-adv-x="3767" arabic-form="final" 
d="M1018 -369q-27 -26 -64 -26t-62 26q-26 26 -26 64q0 37 26 63q26 27 62 27q38 0 64 -26t26 -64q0 -37 -26 -64zM742 -369q-26 -26 -64 -26q-37 0 -63 26q-25 26 -25 64q0 37 25 63q26 27 63 27q90 0 90 -90q0 -37 -26 -64zM1722 0v516q0 194 -80 279q-79 84 -256 84
q-96 0 -198 -21v-858h-350q-362 0 -528 145q-163 141 -163 443q0 205 74 356l139 25q-84 -168 -84 -363q0 -260 119 -374q134 -128 463 -128h201v840q170 39 344 39q240 0 349 -117q99 -107 99 -327v-435h229q120 0 173 65q56 70 56 234v437h131v-371q0 -211 23 -275
q37 -104 170 -104q116 0 174 74q70 90 70 303v455h129v-533q0 -181 76 -237q65 -48 261 -48h76q19 139 19 314q0 326 -74 575l127 29q78 -267 78 -590q0 -157 -23 -328h252v-104h-422q-218 0 -313 37q-97 38 -139 143q-61 -194 -312 -194q-209 0 -256 188
q-58 -174 -276 -174h-358z" />
    <glyph glyph-name="uniFD19" unicode="&#xfeb8;&#xfef0;" horiz-adv-x="3767" arabic-form="final" 
d="M1722 0v516q0 194 -80 279q-79 84 -256 84q-96 0 -198 -21v-858h-350q-362 0 -528 145q-163 141 -163 443q0 205 74 356l139 25q-84 -168 -84 -363q0 -260 119 -374q134 -128 463 -128h201v840q170 39 344 39q240 0 349 -117q99 -107 99 -327v-435h229q120 0 173 65
q56 70 56 234v437h131v-371q0 -211 23 -275q37 -104 170 -104q116 0 174 74q70 90 70 303v455h129v-533q0 -181 76 -237q65 -48 261 -48h76q19 139 19 314q0 326 -74 575l127 29q78 -267 78 -590q0 -157 -23 -328h252v-104h-422q-218 0 -313 37q-97 38 -139 143
q-61 -194 -312 -194q-209 0 -256 188q-58 -174 -276 -174h-358zM2846 1473q0 36 25 62t61 26q88 0 88 -88q0 -37 -26 -63q-25 -26 -62 -26q-86 0 -86 89zM3008 1199q-27 27 -27 65q0 36 27 62q26 26 63 26q88 0 88 -88q0 -37 -25 -64q-26 -26 -63 -26t-63 25zM2732 1199
q-25 26 -25 65q0 36 25 62q26 26 63 26t63 -25q27 -26 27 -63t-27 -64q-27 -26 -63 -26q-37 0 -63 25z" />
    <glyph glyph-name="uniFD1A" unicode="&#xfeb8;&#xfef2;" horiz-adv-x="3767" arabic-form="final" 
d="M1018 -369q-27 -26 -64 -26t-62 26q-26 26 -26 64q0 37 26 63q26 27 62 27q38 0 64 -26t26 -64q0 -37 -26 -64zM742 -369q-26 -26 -64 -26q-37 0 -63 26q-25 26 -25 64q0 37 25 63q26 27 63 27q90 0 90 -90q0 -37 -26 -64zM1722 0v516q0 194 -80 279q-79 84 -256 84
q-96 0 -198 -21v-858h-350q-362 0 -528 145q-163 141 -163 443q0 205 74 356l139 25q-84 -168 -84 -363q0 -260 119 -374q134 -128 463 -128h201v840q170 39 344 39q240 0 349 -117q99 -107 99 -327v-435h229q120 0 173 65q56 70 56 234v437h131v-371q0 -211 23 -275
q37 -104 170 -104q116 0 174 74q70 90 70 303v455h129v-533q0 -181 76 -237q65 -48 261 -48h76q19 139 19 314q0 326 -74 575l127 29q78 -267 78 -590q0 -157 -23 -328h252v-104h-422q-218 0 -313 37q-97 38 -139 143q-61 -194 -312 -194q-209 0 -256 188
q-58 -174 -276 -174h-358zM2846 1473q0 36 25 62t61 26q88 0 88 -88q0 -37 -26 -63q-25 -26 -62 -26q-86 0 -86 89zM3008 1199q-27 27 -27 65q0 36 27 62q26 26 63 26q88 0 88 -88q0 -37 -25 -64q-26 -26 -63 -26t-63 25zM2732 1199q-25 26 -25 65q0 36 25 62q26 26 63 26
t63 -25q27 -26 27 -63t-27 -64q-27 -26 -63 -26q-37 0 -63 25z" />
    <glyph glyph-name="uniFD21" unicode="&#xfebc;&#xfef0;" horiz-adv-x="3533" arabic-form="final" 
d="M2888 104q402 11 402 400q0 375 -279 375q-228 0 -389 -252q-144 -226 -166 -523h432zM1722 0v516q0 194 -80 279q-79 84 -256 84q-96 0 -198 -21v-858h-350q-362 0 -528 145q-163 141 -163 443q0 205 74 356l139 25q-84 -168 -84 -363q0 -260 119 -374
q134 -128 463 -128h201v840q170 39 344 39q240 0 349 -117q99 -107 99 -327v-435h476v859h131v-101q0 -233 -20 -411h2q71 254 238 397q158 135 354 135q186 0 289 -121q104 -122 104 -344q0 -280 -184 -414h323v-104h-1842z" />
    <glyph glyph-name="uniFD22" unicode="&#xfebc;&#xfef2;" horiz-adv-x="3533" arabic-form="final" 
d="M1018 -369q-27 -26 -64 -26t-62 26q-26 26 -26 64q0 37 26 63q26 27 62 27q38 0 64 -26t26 -64q0 -37 -26 -64zM742 -369q-26 -26 -64 -26q-37 0 -63 26q-25 26 -25 64q0 37 25 63q26 27 63 27q90 0 90 -90q0 -37 -26 -64zM2888 104q402 11 402 400q0 375 -279 375
q-228 0 -389 -252q-144 -226 -166 -523h432zM1722 0v516q0 194 -80 279q-79 84 -256 84q-96 0 -198 -21v-858h-350q-362 0 -528 145q-163 141 -163 443q0 205 74 356l139 25q-84 -168 -84 -363q0 -260 119 -374q134 -128 463 -128h201v840q170 39 344 39q240 0 349 -117
q99 -107 99 -327v-435h476v859h131v-101q0 -233 -20 -411h2q71 254 238 397q158 135 354 135q186 0 289 -121q104 -122 104 -344q0 -280 -184 -414h323v-104h-1842z" />
    <glyph glyph-name="uniFD23" unicode="&#xfec0;&#xfef0;" horiz-adv-x="3533" arabic-form="final" 
d="M2888 104q402 11 402 400q0 375 -279 375q-228 0 -389 -252q-144 -226 -166 -523h432zM1722 0v516q0 194 -80 279q-79 84 -256 84q-96 0 -198 -21v-858h-350q-362 0 -528 145q-163 141 -163 443q0 205 74 356l139 25q-84 -168 -84 -363q0 -260 119 -374
q134 -128 463 -128h201v840q170 39 344 39q240 0 349 -117q99 -107 99 -327v-435h476v859h131v-101q0 -233 -20 -411h2q71 254 238 397q158 135 354 135q186 0 289 -121q104 -122 104 -344q0 -280 -184 -414h323v-104h-1842zM2942 1242q-27 27 -27 65q0 36 27 63
q26 27 63 27t64 -26q26 -26 26 -64q0 -37 -26 -64q-27 -26 -64 -26t-63 25z" />
    <glyph glyph-name="uniFD24" unicode="&#xfec0;&#xfef2;" horiz-adv-x="3533" arabic-form="final" 
d="M1018 -369q-27 -26 -64 -26t-62 26q-26 26 -26 64q0 37 26 63q26 27 62 27q38 0 64 -26t26 -64q0 -37 -26 -64zM742 -369q-26 -26 -64 -26q-37 0 -63 26q-25 26 -25 64q0 37 25 63q26 27 63 27q90 0 90 -90q0 -37 -26 -64zM2888 104q402 11 402 400q0 375 -279 375
q-228 0 -389 -252q-144 -226 -166 -523h432zM1722 0v516q0 194 -80 279q-79 84 -256 84q-96 0 -198 -21v-858h-350q-362 0 -528 145q-163 141 -163 443q0 205 74 356l139 25q-84 -168 -84 -363q0 -260 119 -374q134 -128 463 -128h201v840q170 39 344 39q240 0 349 -117
q99 -107 99 -327v-435h476v859h131v-101q0 -233 -20 -411h2q71 254 238 397q158 135 354 135q186 0 289 -121q104 -122 104 -344q0 -280 -184 -414h323v-104h-1842zM2942 1242q-27 27 -27 65q0 36 27 63q26 27 63 27t64 -26q26 -26 26 -64q0 -37 -26 -64q-27 -26 -64 -26
t-63 25z" />
    <glyph glyph-name="uniFD29" unicode="&#xfeb8;&#xfeae;" horiz-adv-x="2633" arabic-form="final" 
d="M684 0v-10q0 -520 -452 -520q-131 0 -242 36l20 111q116 -43 234 -43q311 0 311 397v992h129v-859h262q120 0 173 65q56 70 56 234v437h131v-371q0 -211 23 -275q37 -104 170 -104q116 0 174 74q70 90 70 303v455h129v-533q0 -181 76 -237q65 -48 261 -48h76
q19 139 19 314q0 326 -74 575l127 29q78 -267 78 -590q0 -157 -23 -328h252v-104h-422q-218 0 -313 37q-97 38 -139 143q-61 -194 -312 -194q-209 0 -256 188q-58 -174 -276 -174h-262zM1712 1473q0 36 25 62t61 26q88 0 88 -88q0 -37 -26 -63q-25 -26 -62 -26q-86 0 -86 89
zM1874 1199q-27 27 -27 65q0 36 27 62q26 26 63 26q88 0 88 -88q0 -37 -25 -64q-26 -26 -63 -26t-63 25zM1598 1199q-25 26 -25 65q0 36 25 62q26 26 63 26t63 -25q27 -26 27 -63t-27 -64q-27 -26 -63 -26q-37 0 -63 25z" />
    <glyph glyph-name="uniFD2A" unicode="&#xfeb4;&#xfeae;" horiz-adv-x="2633" arabic-form="final" 
d="M684 0v-10q0 -520 -452 -520q-131 0 -242 36l20 111q116 -43 234 -43q311 0 311 397v992h129v-859h262q120 0 173 65q56 70 56 234v437h131v-371q0 -211 23 -275q37 -104 170 -104q116 0 174 74q70 90 70 303v455h129v-533q0 -181 76 -237q65 -48 261 -48h76
q19 139 19 314q0 326 -74 575l127 29q78 -267 78 -590q0 -157 -23 -328h252v-104h-422q-218 0 -313 37q-97 38 -139 143q-61 -194 -312 -194q-209 0 -256 188q-58 -174 -276 -174h-262z" />
    <glyph glyph-name="uniFD2B" unicode="&#xfebc;&#xfeae;" horiz-adv-x="2379" arabic-form="final" 
d="M1734 104q402 11 402 400q0 375 -279 375q-228 0 -389 -252q-144 -226 -166 -523h432zM684 0v-10q0 -520 -452 -520q-131 0 -242 36l20 111q116 -43 234 -43q311 0 311 397v992h129v-859h489v859h131v-101q0 -233 -20 -411h2q71 254 238 397q158 135 354 135
q186 0 289 -121q104 -122 104 -344q0 -280 -184 -414h323v-104h-1726z" />
    <glyph glyph-name="uniFD2C" unicode="&#xfec0;&#xfeae;" horiz-adv-x="2379" arabic-form="final" 
d="M1734 104q402 11 402 400q0 375 -279 375q-228 0 -389 -252q-144 -226 -166 -523h432zM684 0v-10q0 -520 -452 -520q-131 0 -242 36l20 111q116 -43 234 -43q311 0 311 397v992h129v-859h489v859h131v-101q0 -233 -20 -411h2q71 254 238 397q158 135 354 135
q186 0 289 -121q104 -122 104 -344q0 -280 -184 -414h323v-104h-1726zM1788 1242q-27 27 -27 65q0 36 27 63q26 27 63 27t64 -26q26 -26 26 -64q0 -37 -26 -64q-27 -26 -64 -26t-63 25z" />
    <glyph glyph-name="uniFEF5" unicode="&#xfedf;&#xfe82;" horiz-adv-x="1171" arabic-form="isolated" 
d="M586 311h-131l-346 1123l127 18zM197 0v104h635v1340h131v-1444h-766zM-45 1720l160 121q-2 1 15 -14q18 -17 39 -30q65 -42 136 -42q125 0 217 92v-118l-15 -14q-19 -14 -42 -26q-73 -38 -166 -38q-117 0 -184 67l-99 -73z" />
    <glyph glyph-name="uniFEF6" unicode="&#xfee0;&#xfe82;" horiz-adv-x="1171" arabic-form="final" 
d="M197 104h635v1340h131v-1340h239v-104h-1005v104zM586 311h-131l-346 1123l127 18zM-45 1720l160 121q-2 1 15 -14q18 -17 39 -30q65 -42 136 -42q125 0 217 92v-118l-15 -14q-19 -14 -42 -26q-73 -38 -166 -38q-117 0 -184 67l-99 -73z" />
    <glyph glyph-name="uniFEF7" unicode="&#xfedf;&#xfe84;" arabic-form="isolated" 
d="M626 311h-131l-286 924h133zM237 0v104h635v1336h131v-1440h-766zM10 1397q96 0 133 -6q-45 26 -45 84q0 70 54 114q57 47 155 47q63 0 104 -10l-14 -88q-46 12 -94 12q-100 0 -100 -73q0 -80 139 -80h119v-86h-451v86z" />
    <glyph glyph-name="uniFEF8" unicode="&#xfee0;&#xfe84;" arabic-form="final" 
d="M237 0v104h635v1336h131v-1336h240v-104h-1006zM626 311h-131l-286 924h133zM10 1397q96 0 133 -6q-45 26 -45 84q0 70 54 114q57 47 155 47q63 0 104 -10l-14 -88q-46 12 -94 12q-100 0 -100 -73q0 -80 139 -80h119v-86h-451v86z" />
    <glyph glyph-name="uniFEF9" unicode="&#xfedf;&#xfe88;" horiz-adv-x="1171" arabic-form="isolated" 
d="M585 311h-131l-346 1123l127 18zM196 0v104h635v1340h131v-1444h-766zM329 -412q96 0 133 -6q-45 26 -45 84q0 69 54 114q57 48 153 48q63 0 107 -10l-15 -88q-49 12 -96 12q-100 0 -100 -74q0 -80 139 -80h121v-86h-451v86z" />
    <glyph glyph-name="uniFEFA" unicode="&#xfee0;&#xfe88;" horiz-adv-x="1171" arabic-form="final" 
d="M196 0v104h635v1340h131v-1340h240v-104h-1006zM585 311h-131l-346 1123l127 18zM329 -412q96 0 133 -6q-45 26 -45 84q0 69 54 114q57 48 153 48q63 0 107 -10l-15 -88q-49 12 -96 12q-100 0 -100 -74q0 -80 139 -80h121v-86h-451v86z" />
    <glyph glyph-name="uniFEFB" unicode="&#xfedf;&#xfe8e;" horiz-adv-x="1171" arabic-form="isolated" 
d="M585 311h-131l-346 1123l127 18zM196 0v104h635v1340h131v-1444h-766z" />
    <glyph glyph-name="uniFEFC" unicode="&#xfee0;&#xfe8e;" horiz-adv-x="1171" arabic-form="final" 
d="M196 0v104h635v1340h131v-1340h240v-104h-1006zM585 311h-131l-346 1123l127 18z" />
    <glyph glyph-name="uniFE8B_uniFEE4.liga" unicode="&#xfe8b;&#xfee4;" horiz-adv-x="1976" 
d="M1051 502q0 377 -308 377q-160 0 -254 -105q-94 -103 -94 -280q0 -201 98 -294q100 -96 322 -96h236v398zM1426 1255q97 0 162 -10q-70 27 -70 111q0 76 54 127q64 59 184 59q41 0 102 -8l-14 -88q-49 8 -98 8q-123 0 -123 -94q0 -105 170 -105h106v-88h-473v88zM817 0
q-373 0 -483 217q-19 -95 -96 -154q-83 -63 -207 -63h-31v104q126 0 185 70q75 87 75 307q0 213 126 352q137 150 372 150q422 0 422 -451v-428h469v859h131v-963h-963z" />
    <glyph glyph-name="uniFE8B_uniFEF0.liga" unicode="&#xfe8b;&#xfef0;" horiz-adv-x="2646" 
d="M2096 1255q97 0 162 -10q-70 27 -70 111q0 76 54 127q64 59 184 59q41 0 102 -8l-14 -88q-49 8 -98 8q-123 0 -123 -94q0 -105 170 -105h106v-88h-473v88zM1722 0v516q0 194 -80 279q-79 84 -256 84q-96 0 -198 -21v-858h-350q-362 0 -528 145q-163 141 -163 443
q0 205 74 356l139 25q-84 -168 -84 -363q0 -260 119 -374q134 -128 463 -128h201v840q170 39 344 39q240 0 349 -117q99 -107 99 -327v-435h468v859h131v-963h-728z" />
    <glyph glyph-name="uniFE8B_uniFEF2.liga" unicode="&#xfe8b;&#xfef2;" horiz-adv-x="2646" 
d="M1018 -369q-27 -26 -64 -26t-62 26q-26 26 -26 64q0 37 26 63q26 27 62 27q38 0 64 -26t26 -64q0 -37 -26 -64zM742 -369q-26 -26 -64 -26q-37 0 -63 26q-25 26 -25 64q0 37 25 63q26 27 63 27q90 0 90 -90q0 -37 -26 -64zM2096 1255q97 0 162 -10q-70 27 -70 111
q0 76 54 127q64 59 184 59q41 0 102 -8l-14 -88q-49 8 -98 8q-123 0 -123 -94q0 -105 170 -105h106v-88h-473v88zM1722 0v516q0 194 -80 279q-79 84 -256 84q-96 0 -198 -21v-858h-350q-362 0 -528 145q-163 141 -163 443q0 205 74 356l139 25q-84 -168 -84 -363
q0 -260 119 -374q134 -128 463 -128h201v840q170 39 344 39q240 0 349 -117q99 -107 99 -327v-435h468v859h131v-963h-728z" />
    <glyph glyph-name="uniFE91_uniFEE4.liga" unicode="&#xfe91;&#xfee4;" horiz-adv-x="1976" 
d="M1051 502q0 377 -308 377q-160 0 -254 -105q-94 -103 -94 -280q0 -201 98 -294q100 -96 322 -96h236v398zM817 0q-373 0 -483 217q-19 -95 -96 -154q-83 -63 -207 -63h-31v104q126 0 185 70q75 87 75 307q0 213 126 352q137 150 372 150q422 0 422 -451v-428h469v859h131
v-963h-963zM1524 -371q-26 26 -26 64q0 37 26 63q27 27 64 27t63 -26q27 -26 27 -64q0 -37 -27 -64q-26 -26 -63 -26t-64 26z" />
    <glyph glyph-name="uniFE92_uniFEE6.liga" unicode="&#xfe92;&#xfee6;" horiz-adv-x="1973" 
d="M561 831q-27 26 -27 64q0 37 27 63q27 27 64 27t63 -26q27 -26 27 -64q0 -37 -27 -64q-27 -26 -63 -26q-38 0 -64 26zM1128 0q-33 -473 -510 -473q-211 0 -337 122q-150 145 -150 441q0 210 51 406l135 26q-55 -209 -55 -420q0 -257 120 -376q95 -95 253 -95
q366 0 366 437v895h131v-859h497v859h131v-859h244v-104h-876zM1504 -371q-26 26 -26 64q0 37 26 63q27 27 64 27t63 -26q27 -26 27 -64q0 -37 -27 -64q-26 -26 -63 -26t-64 26z" />
    <glyph glyph-name="uniFE91_uniFEF0.liga" unicode="&#xfe91;&#xfef0;" horiz-adv-x="2646" 
d="M1722 0v516q0 194 -80 279q-79 84 -256 84q-96 0 -198 -21v-858h-350q-362 0 -528 145q-163 141 -163 443q0 205 74 356l139 25q-84 -168 -84 -363q0 -260 119 -374q134 -128 463 -128h201v840q170 39 344 39q240 0 349 -117q99 -107 99 -327v-435h468v859h131v-963h-728
zM2194 -371q-26 26 -26 64q0 37 26 63q27 27 64 27t63 -26q27 -26 27 -64q0 -37 -27 -64q-26 -26 -63 -26t-64 26z" />
    <glyph glyph-name="uniFE91_uniFEF2.liga" unicode="&#xfe91;&#xfef2;" horiz-adv-x="2646" 
d="M1018 -369q-27 -26 -64 -26t-62 26q-26 26 -26 64q0 37 26 63q26 27 62 27q38 0 64 -26t26 -64q0 -37 -26 -64zM742 -369q-26 -26 -64 -26q-37 0 -63 26q-25 26 -25 64q0 37 25 63q26 27 63 27q90 0 90 -90q0 -37 -26 -64zM1722 0v516q0 194 -80 279q-79 84 -256 84
q-96 0 -198 -21v-858h-350q-362 0 -528 145q-163 141 -163 443q0 205 74 356l139 25q-84 -168 -84 -363q0 -260 119 -374q134 -128 463 -128h201v840q170 39 344 39q240 0 349 -117q99 -107 99 -327v-435h468v859h131v-963h-728zM2194 -371q-26 26 -26 64q0 37 26 63
q27 27 64 27t63 -26q27 -26 27 -64q0 -37 -27 -64q-26 -26 -63 -26t-64 26z" />
    <glyph glyph-name="uniFE97_uniFEE4.liga" unicode="&#xfe97;&#xfee4;" horiz-adv-x="1976" 
d="M1051 502q0 377 -308 377q-160 0 -254 -105q-94 -103 -94 -280q0 -201 98 -294q100 -96 322 -96h236v398zM817 0q-373 0 -483 217q-19 -95 -96 -154q-83 -63 -207 -63h-31v104q126 0 185 70q75 87 75 307q0 213 126 352q137 150 372 150q422 0 422 -451v-428h469v859h131
v-963h-963zM1482 1199q-25 26 -25 65q0 36 25 62q26 26 63 26t63 -25q27 -26 27 -63t-27 -64q-26 -26 -63 -26t-63 25zM1758 1199q-27 27 -27 65q0 36 27 62q26 26 63 26q88 0 88 -88q0 -37 -25 -64q-26 -26 -63 -26t-63 25z" />
    <glyph glyph-name="uniFE98_uniFEE6.liga" unicode="&#xfe98;&#xfee6;" horiz-adv-x="1973" 
d="M561 831q-27 26 -27 64q0 37 27 63q27 27 64 27t63 -26q27 -26 27 -64q0 -37 -27 -64q-27 -26 -63 -26q-38 0 -64 26zM1128 0q-33 -473 -510 -473q-211 0 -337 122q-150 145 -150 441q0 210 51 406l135 26q-55 -209 -55 -420q0 -257 120 -376q95 -95 253 -95
q366 0 366 437v895h131v-859h497v859h131v-859h244v-104h-876zM1738 1199q-27 27 -27 65q0 36 27 62q26 26 63 26q88 0 88 -88q0 -37 -25 -64q-26 -26 -63 -26t-63 25zM1462 1199q-25 26 -25 65q0 36 25 62q26 26 63 26t63 -25q27 -26 27 -63t-27 -64q-26 -26 -63 -26
t-63 25z" />
    <glyph glyph-name="uniFE97_uniFEF0.liga" unicode="&#xfe97;&#xfef0;" horiz-adv-x="2646" 
d="M1722 0v516q0 194 -80 279q-79 84 -256 84q-96 0 -198 -21v-858h-350q-362 0 -528 145q-163 141 -163 443q0 205 74 356l139 25q-84 -168 -84 -363q0 -260 119 -374q134 -128 463 -128h201v840q170 39 344 39q240 0 349 -117q99 -107 99 -327v-435h468v859h131v-963h-728
zM2152 1199q-25 26 -25 65q0 36 25 62q26 26 63 26t63 -25q27 -26 27 -63t-27 -64q-26 -26 -63 -26t-63 25zM2428 1199q-27 27 -27 65q0 36 27 62q26 26 63 26q88 0 88 -88q0 -37 -25 -64q-26 -26 -63 -26t-63 25z" />
    <glyph glyph-name="uniFE97_uniFEF2.liga" unicode="&#xfe97;&#xfef2;" horiz-adv-x="2646" 
d="M1018 -369q-27 -26 -64 -26t-62 26q-26 26 -26 64q0 37 26 63q26 27 62 27q38 0 64 -26t26 -64q0 -37 -26 -64zM742 -369q-26 -26 -64 -26q-37 0 -63 26q-25 26 -25 64q0 37 25 63q26 27 63 27q90 0 90 -90q0 -37 -26 -64zM1722 0v516q0 194 -80 279q-79 84 -256 84
q-96 0 -198 -21v-858h-350q-362 0 -528 145q-163 141 -163 443q0 205 74 356l139 25q-84 -168 -84 -363q0 -260 119 -374q134 -128 463 -128h201v840q170 39 344 39q240 0 349 -117q99 -107 99 -327v-435h468v859h131v-963h-728zM2152 1199q-25 26 -25 65q0 36 25 62
q26 26 63 26t63 -25q27 -26 27 -63t-27 -64q-26 -26 -63 -26t-63 25zM2428 1199q-27 27 -27 65q0 36 27 62q26 26 63 26q88 0 88 -88q0 -37 -25 -64q-26 -26 -63 -26t-63 25z" />
    <glyph glyph-name="uniFE9C_uniFEAE.liga" unicode="&#xfe9c;&#xfeae;" horiz-adv-x="1519" 
d="M684 0v-10q0 -520 -452 -520q-131 0 -242 36l20 111q116 -43 234 -43q311 0 311 397v992h129v-859h491v859h131v-859h244v-104h-866zM1122 1473q0 36 25 62q26 26 61 26q88 0 88 -88q0 -37 -26 -63q-25 -26 -62 -26q-86 0 -86 89zM1284 1199q-27 27 -27 65q0 36 27 62
q26 26 63 26q88 0 88 -88q0 -37 -25 -64q-26 -26 -63 -26t-63 25zM1008 1199q-25 26 -25 65q0 36 25 62q26 26 63 26t63 -25q27 -26 27 -63t-27 -64q-26 -26 -63 -26t-63 25z" />
    <glyph glyph-name="uniFE9B_uniFEE4.liga" unicode="&#xfe9b;&#xfee4;" horiz-adv-x="1976" 
d="M1051 502q0 377 -308 377q-160 0 -254 -105q-94 -103 -94 -280q0 -201 98 -294q100 -96 322 -96h236v398zM817 0q-373 0 -483 217q-19 -95 -96 -154q-83 -63 -207 -63h-31v104q126 0 185 70q75 87 75 307q0 213 126 352q137 150 372 150q422 0 422 -451v-428h469v859h131
v-963h-963zM1482 1199q-25 26 -25 65q0 36 25 62q26 26 63 26t63 -25q27 -26 27 -63t-27 -64q-26 -26 -63 -26t-63 25zM1758 1199q-27 27 -27 65q0 36 27 62q26 26 63 26q88 0 88 -88q0 -37 -25 -64q-26 -26 -63 -26t-63 25zM1596 1473q0 36 25 62q26 26 61 26q88 0 88 -88
q0 -37 -26 -63q-25 -26 -62 -26q-86 0 -86 89z" />
    <glyph glyph-name="uniFE9C_uniFEE6.liga" unicode="&#xfe9c;&#xfee6;" horiz-adv-x="1973" 
d="M561 831q-27 26 -27 64q0 37 27 63q27 27 64 27t63 -26q27 -26 27 -64q0 -37 -27 -64q-27 -26 -63 -26q-38 0 -64 26zM1128 0q-33 -473 -510 -473q-211 0 -337 122q-150 145 -150 441q0 210 51 406l135 26q-55 -209 -55 -420q0 -257 120 -376q95 -95 253 -95
q366 0 366 437v895h131v-859h497v859h131v-859h244v-104h-876zM1576 1473q0 36 25 62q26 26 61 26q88 0 88 -88q0 -37 -26 -63q-25 -26 -62 -26q-86 0 -86 89zM1738 1199q-27 27 -27 65q0 36 27 62q26 26 63 26q88 0 88 -88q0 -37 -25 -64q-26 -26 -63 -26t-63 25z
M1462 1199q-25 26 -25 65q0 36 25 62q26 26 63 26t63 -25q27 -26 27 -63t-27 -64q-26 -26 -63 -26t-63 25z" />
    <glyph glyph-name="uniFE9B_uniFEF0.liga" unicode="&#xfe9b;&#xfef0;" horiz-adv-x="2646" 
d="M1722 0v516q0 194 -80 279q-79 84 -256 84q-96 0 -198 -21v-858h-350q-362 0 -528 145q-163 141 -163 443q0 205 74 356l139 25q-84 -168 -84 -363q0 -260 119 -374q134 -128 463 -128h201v840q170 39 344 39q240 0 349 -117q99 -107 99 -327v-435h468v859h131v-963h-728
zM2152 1199q-25 26 -25 65q0 36 25 62q26 26 63 26t63 -25q27 -26 27 -63t-27 -64q-26 -26 -63 -26t-63 25zM2428 1199q-27 27 -27 65q0 36 27 62q26 26 63 26q88 0 88 -88q0 -37 -25 -64q-26 -26 -63 -26t-63 25zM2266 1473q0 36 25 62q26 26 61 26q88 0 88 -88
q0 -37 -26 -63q-25 -26 -62 -26q-86 0 -86 89z" />
    <glyph glyph-name="uniFE9B_uniFEF2.liga" unicode="&#xfe9b;&#xfef2;" horiz-adv-x="2646" 
d="M1018 -369q-27 -26 -64 -26t-62 26q-26 26 -26 64q0 37 26 63q26 27 62 27q38 0 64 -26t26 -64q0 -37 -26 -64zM742 -369q-26 -26 -64 -26q-37 0 -63 26q-25 26 -25 64q0 37 25 63q26 27 63 27q90 0 90 -90q0 -37 -26 -64zM1722 0v516q0 194 -80 279q-79 84 -256 84
q-96 0 -198 -21v-858h-350q-362 0 -528 145q-163 141 -163 443q0 205 74 356l139 25q-84 -168 -84 -363q0 -260 119 -374q134 -128 463 -128h201v840q170 39 344 39q240 0 349 -117q99 -107 99 -327v-435h468v859h131v-963h-728zM2152 1199q-25 26 -25 65q0 36 25 62
q26 26 63 26t63 -25q27 -26 27 -63t-27 -64q-26 -26 -63 -26t-63 25zM2428 1199q-27 27 -27 65q0 36 27 62q26 26 63 26q88 0 88 -88q0 -37 -25 -64q-26 -26 -63 -26t-63 25zM2266 1473q0 36 25 62q26 26 61 26q88 0 88 -88q0 -37 -26 -63q-25 -26 -62 -26q-86 0 -86 89z
" />
    <glyph glyph-name="uniFEDB_uniFEF0.liga" unicode="&#xfedb;&#xfef0;" horiz-adv-x="3019" 
d="M1722 0v516q0 194 -80 279q-79 84 -256 84q-96 0 -199 -21v-858h-350q-361 0 -528 145q-162 141 -162 443q0 205 74 356l139 25q-84 -168 -84 -363q0 -260 119 -374q133 -128 463 -128h200v840q170 39 344 39q240 0 349 -117q100 -107 100 -327v-435h863q-1 338 -138 521
q-130 173 -425 266v98l754 473v-133l-598 -371q274 -111 399 -301q137 -211 137 -577v-80h-1121z" />
    <glyph glyph-name="uniFEDC_uniFEF0.liga" unicode="&#xfedc;&#xfef0;" horiz-adv-x="3019" 
d="M1722 0v516q0 194 -80 279q-79 84 -256 84q-96 0 -199 -21v-858h-350q-361 0 -528 145q-162 141 -162 443q0 205 74 356l139 25q-84 -168 -84 -363q0 -260 119 -374q133 -128 463 -128h200v840q170 39 344 39q240 0 349 -117q100 -107 100 -327v-435h863q-1 338 -138 521
q-130 173 -425 266v98l754 473v-133l-598 -371q269 -109 394 -295q138 -206 142 -559h207v-104h-1328z" />
    <glyph glyph-name="uniFEDB_uniFEF2.liga" unicode="&#xfedb;&#xfef2;" horiz-adv-x="3019" 
d="M1017 -369q-26 -26 -63 -26t-63 26q-25 26 -25 64q0 37 25 63q26 27 63 27t63 -26q27 -26 27 -64q0 -37 -27 -64zM742 -369q-27 -26 -65 -26q-37 0 -62 26q-26 26 -26 64q0 37 26 63q26 27 62 27q91 0 91 -90q0 -37 -26 -64zM1722 0v516q0 194 -80 279q-79 84 -256 84
q-96 0 -199 -21v-858h-350q-361 0 -528 145q-162 141 -162 443q0 205 74 356l139 25q-84 -168 -84 -363q0 -260 119 -374q133 -128 463 -128h200v840q170 39 344 39q240 0 349 -117q100 -107 100 -327v-435h863q-1 338 -138 521q-130 173 -425 266v98l754 473v-133
l-598 -371q274 -111 399 -301q137 -211 137 -577v-80h-1121z" />
    <glyph glyph-name="uniFEDC_uniFEF2.liga" unicode="&#xfedc;&#xfef2;" horiz-adv-x="3019" 
d="M1017 -369q-26 -26 -63 -26t-63 26q-25 26 -25 64q0 37 25 63q26 27 63 27t63 -26q27 -26 27 -64q0 -37 -27 -64zM742 -369q-27 -26 -65 -26q-37 0 -62 26q-26 26 -26 64q0 37 26 63q26 27 62 27q91 0 91 -90q0 -37 -26 -64zM1722 0v516q0 194 -80 279q-79 84 -256 84
q-96 0 -199 -21v-858h-350q-361 0 -528 145q-162 141 -162 443q0 205 74 356l139 25q-84 -168 -84 -363q0 -260 119 -374q133 -128 463 -128h200v840q170 39 344 39q240 0 349 -117q100 -107 100 -327v-435h863q-1 338 -138 521q-130 173 -425 266v98l754 473v-133
l-598 -371q269 -109 394 -295q138 -206 142 -559h207v-104h-1328z" />
    <glyph glyph-name="uniFEDF_uniFB51.rlig" unicode="&#xfedf;&#xfb51;" 
d="M626 311h-131l-286 924h133zM237 0v104h635v1336h131v-1440h-766zM451 1387v25q0 147 -82 147q-120 0 -164 -172h246zM13 1387h104q67 244 261 244q81 0 118 -42q45 -51 45 -173v-101h-528v72z" />
    <glyph glyph-name="uniFEE0_uniFB51.rlig" unicode="&#xfee0;&#xfb51;" 
d="M237 0v104h635v1336h131v-1336h240v-104h-1006zM626 311h-131l-286 924h133zM451 1387v25q0 147 -82 147q-120 0 -164 -172h246zM13 1387h104q67 244 261 244q81 0 118 -42q45 -51 45 -173v-101h-528v72z" />
    <glyph glyph-name="uniFEDF_uniFEE2.liga" unicode="&#xfedf;&#xfee2;" horiz-adv-x="2231" 
d="M1322 502q0 377 -307 377q-161 0 -255 -105q-95 -104 -95 -280q0 -201 99 -294q101 -96 323 -96h235v398zM1062 0q-518 0 -528 457h-72q-196 0 -196 -221q0 -46 8 -101l106 -667h-127l-104 653q-10 61 -10 114q0 126 55 206q83 120 279 120h65q23 185 146 299
q133 123 346 123q422 0 422 -451v-428h439v1340h129v-1444h-958z" />
    <glyph glyph-name="uniFEE4_uniFE8E.liga" unicode="&#xfee4;&#xfe8e;" horiz-adv-x="1896" 
d="M1571 502q0 377 -308 377q-160 0 -254 -105q-94 -103 -94 -280q0 -201 98 -294q100 -96 322 -96h236v398zM208 0v1444h131v-1340h181q126 0 185 70q75 87 75 307q0 213 126 352q137 150 372 150q422 0 422 -451v-428h227v-104h-590q-373 0 -483 217q-19 -95 -96 -154
q-73 -56 -179 -62v-1h-371z" />
    <glyph glyph-name="uniFEE4_uniFE82.liga" unicode="&#xfee4;&#xfe82;" horiz-adv-x="1896" 
d="M-40 1720l160 121q0 -1 15 -14q18 -17 39 -30q65 -42 136 -42q125 0 217 92v-118l-15 -14q-19 -14 -42 -26q-73 -38 -166 -38q-117 0 -184 67l-99 -73zM1571 502q0 377 -308 377q-160 0 -254 -105q-94 -103 -94 -280q0 -201 98 -294q100 -96 322 -96h236v398zM210 0v1444
h131v-1340h179q126 0 185 70q75 87 75 307q0 213 126 352q137 150 372 150q422 0 422 -451v-428h227v-104h-590q-373 0 -483 217q-19 -95 -96 -154q-73 -55 -177 -62v-1h-371z" />
    <glyph glyph-name="uniFEE4_uniFE84.liga" unicode="&#xfee4;&#xfe84;" horiz-adv-x="1896" 
d="M14 1587q100 0 162 -10q-70 30 -70 111q0 76 54 126q63 58 182 58q63 0 104 -8l-14 -86q-49 8 -101 8q-122 0 -122 -94q0 -105 172 -105h106v-86h-473v86zM1571 502q0 377 -308 377q-160 0 -254 -105q-94 -103 -94 -280q0 -201 98 -294q100 -96 322 -96h236v398zM209 0
v1382h131v-1278h180q126 0 185 70q75 87 75 307q0 213 126 352q137 150 372 150q422 0 422 -451v-428h227v-104h-590q-373 0 -483 217q-19 -95 -96 -154q-73 -56 -179 -62v-1h-370z" />
    <glyph glyph-name="uniFEE4_uniFE88.liga" unicode="&#xfee4;&#xfe88;" horiz-adv-x="1896" 
d="M22 -412q96 0 133 -6q-45 26 -45 84q0 69 54 114q57 48 153 48q63 0 106 -10l-14 -88q-49 12 -96 12q-101 0 -101 -74q0 -80 140 -80h121v-86h-451v86zM1571 502q0 377 -308 377q-160 0 -254 -105q-94 -103 -94 -280q0 -201 98 -294q100 -96 322 -96h236v398zM208 0v1444
h131v-1340h181q126 0 185 70q75 87 75 307q0 213 126 352q137 150 372 150q422 0 422 -451v-428h227v-104h-590q-373 0 -483 217q-19 -95 -96 -154q-73 -56 -179 -62v-1h-371z" />
    <glyph glyph-name="uniFEE8_uniFEAE.liga" unicode="&#xfee8;&#xfeae;" horiz-adv-x="1520" 
d="M684 0v-10q0 -520 -452 -520q-131 0 -242 36l21 111q115 -43 233 -43q311 0 311 397v992h129v-859h492v859h131v-859h244v-104h-867zM1178 1242q-26 27 -26 65q0 36 26 63q27 27 64 27t63 -26q27 -26 27 -64q0 -37 -27 -64q-26 -26 -63 -26t-64 25z" />
    <glyph glyph-name="uniFEE7_uniFEE4.liga" unicode="&#xfee7;&#xfee4;" horiz-adv-x="1976" 
d="M1051 502q0 377 -308 377q-160 0 -254 -105q-94 -103 -94 -280q0 -201 98 -294q100 -96 322 -96h236v398zM1651 1242q-26 27 -26 65q0 36 26 63q27 27 64 27t63 -26q27 -26 27 -64q0 -37 -27 -64q-26 -26 -63 -26t-64 25zM817 0q-373 0 -483 217q-19 -95 -96 -154
q-83 -63 -207 -63h-31v104q126 0 185 70q75 87 75 307q0 213 126 352q137 150 372 150q422 0 422 -451v-428h469v859h131v-963h-963z" />
    <glyph glyph-name="uniFEE7_uniFEF0.liga" unicode="&#xfee7;&#xfef0;" horiz-adv-x="2656" 
d="M2331 1242q-26 27 -26 65q0 36 26 63q27 27 64 27t63 -26q27 -26 27 -64q0 -37 -27 -64q-26 -26 -63 -26t-64 25zM1722 0v516q0 194 -80 279q-79 84 -256 84q-96 0 -198 -21v-858h-350q-362 0 -528 145q-163 141 -163 443q0 205 74 356l139 25q-84 -168 -84 -363
q0 -260 119 -374q134 -128 463 -128h201v840q170 39 344 39q240 0 349 -117q99 -107 99 -327v-435h478v859h131v-963h-738z" />
    <glyph glyph-name="uniFEE7_uniFEF2.liga" unicode="&#xfee7;&#xfef2;" horiz-adv-x="2656" 
d="M1018 -369q-27 -26 -64 -26t-62 26q-26 26 -26 64q0 37 26 63q26 27 62 27q38 0 64 -26t26 -64q0 -37 -26 -64zM742 -369q-26 -26 -64 -26q-37 0 -63 26q-25 26 -25 64q0 37 25 63q26 27 63 27q90 0 90 -90q0 -37 -26 -64zM2331 1242q-26 27 -26 65q0 36 26 63
q27 27 64 27t63 -26q27 -26 27 -64q0 -37 -27 -64q-26 -26 -63 -26t-64 25zM1722 0v516q0 194 -80 279q-79 84 -256 84q-96 0 -198 -21v-858h-350q-362 0 -528 145q-163 141 -163 443q0 205 74 356l139 25q-84 -168 -84 -363q0 -260 119 -374q134 -128 463 -128h201v840
q170 39 344 39q240 0 349 -117q99 -107 99 -327v-435h478v859h131v-963h-738z" />
    <glyph glyph-name="uniFEF4_uniFEAE.liga" unicode="&#xfef4;&#xfeae;" horiz-adv-x="1630" 
d="M684 0v-10q0 -520 -452 -520q-131 0 -242 36l20 111q116 -43 234 -43q311 0 311 397v992h129v-859h602v859h129v-859h246v-104h-977zM1368 -369q-27 -26 -63 -26q-38 0 -63 26q-26 26 -26 64q0 37 26 63q26 27 63 27t63 -26q27 -26 27 -64q0 -37 -27 -64zM1092 -369
q-26 -26 -64 -26q-37 0 -62 26q-26 26 -26 64q0 37 26 63q25 27 62 27q90 0 90 -90q0 -37 -26 -64z" />
    <glyph glyph-name="uniFEF3_uniFEE4.liga" unicode="&#xfef3;&#xfee4;" horiz-adv-x="2097" 
d="M1051 502q0 377 -308 377q-160 0 -254 -105q-94 -103 -94 -280q0 -201 98 -294q100 -96 322 -96h236v398zM817 0q-373 0 -483 217q-19 -95 -96 -154q-83 -63 -207 -63h-31v104q126 0 185 70q75 87 75 307q0 213 126 352q137 150 372 150q422 0 422 -451v-428h590v859h129
v-963h-1082zM1576 -369q-26 -26 -64 -26q-37 0 -62 26q-26 26 -26 64q0 37 26 63q25 27 62 27q90 0 90 -90q0 -37 -26 -64zM1852 -369q-27 -26 -63 -26q-38 0 -63 26q-26 26 -26 64q0 37 26 63q26 27 63 27t63 -26q27 -26 27 -64q0 -37 -27 -64z" />
    <glyph glyph-name="uniFEF4_uniFEE6.liga" unicode="&#xfef4;&#xfee6;" horiz-adv-x="2084" 
d="M561 831q-26 26 -26 64q0 37 26 63q27 27 64 27t63 -26q27 -26 27 -64q0 -37 -27 -64q-26 -26 -63 -26q-38 0 -64 26zM1128 0q-33 -473 -510 -473q-211 0 -337 122q-150 145 -150 441q0 210 51 406l135 26q-55 -209 -55 -420q0 -257 120 -376q95 -95 253 -95
q366 0 366 437v895h132v-859h607v859h129v-859h246v-104h-987zM1822 -369q-27 -26 -63 -26q-38 0 -63 26q-26 26 -26 64q0 37 26 63q26 27 63 27t63 -26q27 -26 27 -64q0 -37 -27 -64zM1546 -369q-26 -26 -64 -26q-37 0 -62 26q-26 26 -26 64q0 37 26 63q25 27 62 27
q90 0 90 -90q0 -37 -26 -64z" />
    <glyph glyph-name="T_h.liga" unicode="Th" horiz-adv-x="2005" 
d="M1145 1382v-401q0 -134 -16 -203l4 -2q97 258 368 258q308 0 308 -325v-709h-129v659q0 271 -207 271q-144 0 -236 -126q-92 -125 -92 -319v-485h-129v1274h-419v-1274h-131v1274h-428v108h1107z" />
    <glyph glyph-name="f_b.liga" unicode="fb" horiz-adv-x="1822" 
d="M1327 930q-151 0 -243 -151q-79 -129 -79 -287v-371q87 -31 213 -31q371 0 371 453q0 387 -262 387zM1003 1434h2v-473q0 -108 -18 -185l4 -2q91 260 356 260q377 0 377 -479q0 -272 -142 -422q-138 -145 -376 -145q-176 0 -330 37v1359q-111 17 -200 17q-157 0 -229 -64
q-73 -65 -73 -209v-110h312v-103h-312v-915h-129v915h-233v103h233v131q0 356 445 356q131 0 313 -26v-45z" />
    <glyph glyph-name="f_f_b.liga" unicode="ffb" horiz-adv-x="2452" 
d="M1957 930q-151 0 -243 -151q-79 -129 -79 -287v-371q87 -31 213 -31q371 0 371 453q0 387 -262 387zM374 915v-915h-129v915h-233v103h233v69q0 418 379 418q85 0 168 -18l-12 -111q-73 23 -166 23q-240 0 -240 -307v-74h501v131q0 356 445 356q131 0 313 -26v-45h2v-473
q0 -108 -18 -185l4 -2q91 260 356 260q377 0 377 -479q0 -272 -142 -422q-138 -145 -376 -145q-176 0 -330 37v1359q-111 17 -200 17q-157 0 -229 -64q-73 -65 -73 -209v-110h312v-103h-312v-915h-129v915h-501z" />
    <glyph glyph-name="f_f.liga" unicode="ff" horiz-adv-x="1338" 
d="M875 1018v69q0 418 379 418q85 0 168 -18l-12 -111q-73 23 -166 23q-240 0 -240 -307v-74h314v-103h-314v-915h-129v915h-501v-915h-129v915h-233v103h233v69q0 418 379 418q85 0 168 -18l-12 -111q-73 23 -166 23q-240 0 -240 -307v-74h501z" />
    <glyph glyph-name="f_h.liga" unicode="fh" horiz-adv-x="1865" 
d="M1003 1446h2v-465q0 -134 -16 -203l4 -2q97 258 368 258q308 0 308 -325v-709h-129v659q0 271 -207 271q-144 0 -236 -126q-92 -125 -92 -319v-485h-129v1384q-111 17 -200 17q-157 0 -229 -64q-73 -65 -73 -209v-110h312v-103h-312v-915h-129v915h-233v103h233v131
q0 356 445 356q131 0 313 -26v-33z" />
    <glyph glyph-name="f_f_h.liga" unicode="ffh" horiz-adv-x="2495" 
d="M374 915v-915h-129v915h-233v103h233v69q0 418 379 418q85 0 168 -18l-12 -111q-73 23 -166 23q-240 0 -240 -307v-74h501v131q0 356 445 356q131 0 313 -26v-33h2v-465q0 -134 -16 -203l4 -2q97 258 368 258q308 0 308 -325v-709h-129v659q0 271 -207 271
q-144 0 -236 -126q-92 -125 -92 -319v-485h-129v1384q-111 17 -200 17q-157 0 -229 -64q-73 -65 -73 -209v-110h312v-103h-312v-915h-129v915h-501z" />
    <glyph glyph-name="f_f_i.liga" unicode="ffi" horiz-adv-x="1830" 
d="M374 915v-915h-129v915h-233v103h233v69q0 418 379 418q85 0 168 -18l-12 -111q-73 23 -166 23q-240 0 -240 -307v-74h501v51q0 436 455 436q133 0 264 -39l-26 -108q-127 41 -246 41q-318 0 -318 -307v-74h629v-1018h-127v915h-502v-915h-129v915h-501z" />
    <glyph glyph-name="f_j.liga" unicode="fj" horiz-adv-x="1200" 
d="M874 915h-500v-915h-129v915h-233v103h233v51q0 436 455 436q133 0 264 -39l-26 -108q-127 41 -246 41q-318 0 -318 -307v-74h629v-1157q0 -208 -69 -296q-72 -93 -251 -93q-79 0 -137 18l14 117q67 -25 133 -25q109 0 145 56q36 54 36 215v1062z" />
    <glyph glyph-name="f_f_j.liga" unicode="ffj" horiz-adv-x="1830" 
d="M1504 915h-500v-915h-129v915h-501v-915h-129v915h-233v103h233v69q0 418 379 418q85 0 168 -18l-12 -111q-73 23 -166 23q-240 0 -240 -307v-74h501v51q0 436 455 436q133 0 264 -39l-26 -108q-127 41 -246 41q-318 0 -318 -307v-74h629v-1157q0 -208 -69 -296
q-72 -93 -251 -93q-79 0 -137 18l14 117q67 -25 133 -25q109 0 145 56q36 54 36 215v1062z" />
    <glyph glyph-name="f_k.liga" unicode="fk" horiz-adv-x="1648" 
d="M1003 544v-544h-127v1384q-111 17 -200 17q-157 0 -229 -64q-73 -65 -73 -209v-110h312v-103h-312v-915h-129v915h-233v103h233v131q0 356 445 356q131 0 313 -26v-928l403 467h156l-414 -463l449 -555h-172z" />
    <glyph glyph-name="f_f_k.liga" unicode="ffk" horiz-adv-x="2278" 
d="M374 915v-915h-129v915h-233v103h233v69q0 418 379 418q85 0 168 -18l-12 -111q-73 23 -166 23q-240 0 -240 -307v-74h501v131q0 356 445 356q131 0 313 -26v-928l403 467h156l-414 -463l449 -555h-172l-422 544v-544h-127v1384q-111 17 -200 17q-157 0 -229 -64
q-73 -65 -73 -209v-110h312v-103h-312v-915h-129v915h-501z" />
    <glyph glyph-name="f_f_l.liga" unicode="ffl" horiz-adv-x="1830" 
d="M1633 0h-127v1384q-111 17 -200 17q-157 0 -229 -64q-73 -65 -73 -209v-110h312v-103h-312v-915h-129v915h-501v-915h-129v915h-233v103h233v69q0 418 379 418q85 0 168 -18l-12 -111q-73 23 -166 23q-240 0 -240 -307v-74h501v131q0 356 445 356q131 0 313 -26v-1479z
" />
    <glyph glyph-name="f_t.liga" unicode="ft" horiz-adv-x="1395" 
d="M875 1018v344l127 35v-379h314v-103h-314v-571q0 -145 34 -195q33 -49 128 -49q79 0 142 17l18 -111q-92 -20 -195 -20q-144 0 -201 70q-53 66 -53 225v634h-501v-915h-129v915h-233v103h233v69q0 418 379 418q85 0 168 -18l-12 -111q-73 23 -166 23q-240 0 -240 -307
v-74h501z" />
    <glyph glyph-name="f_f_t.liga" unicode="fft" horiz-adv-x="2025" 
d="M374 915v-915h-129v915h-233v103h233v69q0 418 379 418q85 0 168 -18l-12 -111q-73 23 -166 23q-240 0 -240 -307v-74h501v69q0 418 379 418q85 0 168 -18l-12 -111q-73 23 -166 23q-240 0 -240 -307v-74h501v344l127 35v-379h314v-103h-314v-571q0 -145 34 -195
q33 -49 128 -49q79 0 142 17l18 -111q-92 -20 -195 -20q-144 0 -201 70q-53 66 -53 225v634h-501v-915h-129v915h-501z" />
    <glyph glyph-name="uni0647.fina" unicode="&#x647;" horiz-adv-x="1332" arabic-form="final" 
d="M40 104h191q13 581 434 887q442 -258 442 -555q0 -260 -186 -332v-4q55 4 150 4h292v-104h-301q-84 0 -141 4v-2q225 -70 225 -295q0 -173 -105 -269q-103 -93 -286 -93q-247 0 -382 174q-130 169 -142 481h-191v104zM362 104h270q344 0 344 316q0 221 -303 416
q-308 -255 -311 -732zM364 0q28 -551 406 -551q245 0 245 248q0 130 -109 215q-113 88 -296 88h-246z" />
    <glyph glyph-name="uni0672.fina" unicode="&#x672;" horiz-adv-x="548" 
d="M209 1382h131v-1278h240v-104h-371v1382zM439 1740q-13 120 -92 120q-137 0 -187 -197h281v2h102v-84h-602v82h119q76 279 297 279q92 0 135 -49q43 -48 50 -153h-103z" />
    <glyph glyph-name="uni0673.fina" unicode="&#x673;" horiz-adv-x="548" 
d="M209 1382h131v-1278h240v-104h-371v1382zM439 -374q-13 120 -92 120q-137 0 -187 -197h281v2h102v-84h-602v82h119q76 279 297 279q92 0 135 -49q43 -48 50 -153h-103z" />
    <glyph glyph-name="uni0675.fina" unicode="&#x675;" horiz-adv-x="948" 
d="M209 1382h131v-1278h639v-104h-770v1382zM417 1357q100 0 162 -10q-70 30 -70 111q0 76 54 126q63 58 182 58q63 0 104 -8l-14 -86q-49 8 -101 8q-122 0 -122 -94q0 -105 172 -105h106v-86h-473v86z" />
    <glyph glyph-name="uni0676.fina" unicode="&#x676;" 
d="M108 -485l10 114q183 -45 334 -45q418 0 418 353v63h-238q-532 0 -532 481q0 214 125 352q137 150 375 150q213 0 399 -72v-807h244v-104h-244v-63q0 -186 -121 -308q-149 -149 -444 -149q-160 0 -326 35zM870 825q-115 54 -287 54q-160 0 -254 -104t-94 -279
q0 -202 98 -296q100 -96 322 -96h215v721zM661 1264q97 0 162 -11q-70 28 -70 111q0 76 55 127q63 59 183 59q41 0 102 -8l-14 -88q-49 8 -98 8q-123 0 -123 -94q0 -104 170 -104h106v-88h-473v88z" />
    <glyph glyph-name="uni0677.fina" unicode="&#x677;" 
d="M108 -485l10 114q183 -45 334 -45q418 0 418 353v63h-238q-532 0 -532 481q0 214 125 352q137 150 375 150q213 0 399 -72v-807h244v-104h-244v-63q0 -186 -121 -308q-149 -149 -444 -149q-160 0 -326 35zM870 825q-115 54 -287 54q-160 0 -254 -104t-94 -279
q0 -202 98 -296q100 -96 322 -96h215v721zM661 1264q97 0 162 -11q-70 28 -70 111q0 76 55 127q63 59 183 59q41 0 102 -8l-14 -88q-49 8 -98 8q-123 0 -123 -94q0 -104 170 -104h106v-88h-473v88zM153 1251l164 34q-17 37 -17 78q0 74 51 120q49 44 126 44q62 0 102 -37
q41 -37 41 -96q0 -117 -176 -154l-275 -59zM429 1310q111 20 111 78q0 65 -70 65q-88 0 -88 -88q0 -39 17 -61z" />
    <glyph glyph-name="uni0678.init" unicode="&#x678;" horiz-adv-x="840" 
d="M306 1255q97 0 162 -10q-70 27 -70 111q0 76 54 127q64 59 184 59q41 0 102 -8l-14 -88q-49 8 -98 8q-123 0 -123 -94q0 -105 170 -105h106v-88h-473v88zM0 104h309v859h131v-963h-440v104z" />
    <glyph glyph-name="uni0678.medi" unicode="&#x678;" horiz-adv-x="853" 
d="M0 104h309v859h131v-859h444v-104h-884v104zM306 1266q97 0 162 -11q-70 28 -70 111q0 76 54 127q64 59 184 59q41 0 102 -8l-14 -88q-49 8 -98 8q-123 0 -123 -94q0 -104 170 -104h106v-88h-473v88z" />
    <glyph glyph-name="uni0678.fina" unicode="&#x678;" horiz-adv-x="2048" 
d="M837 0q-361 0 -528 145q-162 141 -162 443q0 205 74 356l139 25q-84 -168 -84 -363q0 -260 119 -374q133 -128 463 -128h200v840q170 39 345 39q239 0 348 -117q100 -107 100 -327v-435h227v-104h-356v516q0 194 -80 279q-79 84 -256 84q-96 0 -199 -21v-858h-350z
M1508 1264q97 0 162 -11q-70 28 -70 111q0 76 54 127q64 59 184 59q41 0 102 -8l-14 -88q-49 8 -99 8q-122 0 -122 -94q0 -104 170 -104h106v-88h-473v88z" />
    <glyph glyph-name="uni067C.init" unicode="&#x67c;" horiz-adv-x="636" 
d="M284 -112q0 112 -96 112q-50 0 -79 -31t-29 -83q0 -60 31 -87q31 -29 100 -29h73v118zM419 1199q-26 26 -26 65q0 36 26 62q25 26 62 26q38 0 64 -25q26 -26 26 -63t-26 -64q-27 -26 -64 -26t-62 25zM92 0h-92v104h309v859h131v-963h-152q36 -35 36 -108v-165h-120
q-166 0 -166 149q0 66 39 110q7 8 15 14zM142 1199q-25 26 -25 65q0 36 25 62q26 26 63 26q90 0 90 -88q0 -38 -26 -64t-64 -26q-37 0 -63 25z" />
    <glyph glyph-name="uni067C.medi" unicode="&#x67c;" horiz-adv-x="636" 
d="M284 -112q0 112 -96 112q-50 0 -79 -31t-29 -83q0 -60 31 -87q31 -29 100 -29h73v118zM142 1199q-25 26 -25 65q0 36 25 62q26 26 63 26q90 0 90 -88q0 -38 -26 -64t-64 -26q-37 0 -63 25zM92 0h-92v104h309v859h131v-859h228v-104h-380q36 -35 36 -108v-165h-120
q-166 0 -166 149q0 66 39 110q7 8 15 14zM419 1199q-26 26 -26 65q0 36 26 62q25 26 62 26q38 0 64 -25q26 -26 26 -63t-26 -64q-27 -26 -64 -26t-62 25z" />
    <glyph glyph-name="uni067C.fina" unicode="&#x67c;" horiz-adv-x="1599" 
d="M934 -112q0 112 -96 112q-50 0 -79 -31t-29 -83q0 -60 31 -87q31 -29 100 -29h73v118zM619 1199q-26 26 -26 65q0 36 26 62t63 26q90 0 90 -88q0 -38 -26 -64t-64 -26q-37 0 -63 25zM745 3q-291 16 -436 142q-162 141 -162 443q0 205 74 356l139 25q-84 -168 -84 -363
q0 -260 119 -374q133 -128 463 -128h397v859h129v-859h246v-104h-692q36 -35 36 -108v-165h-120q-166 0 -166 149q0 66 39 110q9 9 18 17zM896 1199q-26 26 -26 65q0 36 26 62q25 26 62 26t63 -25q27 -26 27 -63t-27 -64q-26 -26 -63 -26t-62 25z" />
    <glyph glyph-name="uni067D.init" unicode="&#x67d;" horiz-adv-x="636" 
d="M0 104h309v859h131v-963h-440v104zM342 1351q37 0 62 -26q26 -26 26 -63q0 -88 -88 -88q-35 0 -61 26q-25 26 -25 62q0 89 86 89zM481 1561q37 0 63 -26q25 -27 25 -64q0 -88 -88 -88q-37 0 -63 26q-27 26 -27 62q0 38 27 65q26 25 63 25zM205 1561q37 0 63 -26
q27 -27 27 -64t-27 -63q-26 -25 -63 -25t-63 26q-25 26 -25 62q0 39 25 65q26 25 63 25z" />
    <glyph glyph-name="uni067D.medi" unicode="&#x67d;" horiz-adv-x="653" 
d="M0 104h309v859h131v-859h244v-104h-684v104zM205 1561q37 0 63 -26q27 -27 27 -64t-27 -63q-26 -25 -63 -25t-63 26q-25 26 -25 62q0 39 25 65q26 25 63 25zM481 1561q37 0 63 -26q25 -27 25 -64q0 -88 -88 -88q-37 0 -63 26q-27 26 -27 62q0 38 27 65q26 25 63 25z
M342 1351q37 0 62 -26q26 -26 26 -63q0 -88 -88 -88q-35 0 -61 26q-25 26 -25 62q0 89 86 89z" />
    <glyph glyph-name="uni067D.fina" unicode="&#x67d;" horiz-adv-x="1599" 
d="M837 0q-361 0 -528 145q-162 141 -162 443q0 205 74 356l139 25q-84 -168 -84 -363q0 -260 119 -374q133 -128 463 -128h397v859h129v-859h246v-104h-793zM684 1561q36 0 63 -26q27 -27 27 -64t-27 -63q-26 -25 -63 -25t-63 26q-25 26 -25 62q0 39 25 65q26 25 63 25z
M960 1561q37 0 63 -26q25 -27 25 -64q0 -88 -88 -88q-37 0 -63 26q-27 26 -27 62q0 38 27 65q26 25 63 25zM821 1351q37 0 62 -26q26 -26 26 -63q0 -88 -88 -88q-36 0 -61 26t-25 62q0 89 86 89z" />
    <glyph glyph-name="uni0681.init" unicode="&#x681;" horiz-adv-x="1183" 
d="M0 104h883q18 133 18 250q0 268 -105 385q-112 125 -378 125q-112 0 -221 -14v102q118 17 231 17q324 0 468 -153q134 -143 134 -445q0 -174 -33 -371h-997v104zM266 1255q97 0 162 -10q-70 27 -70 111q0 76 54 127q64 59 184 59q41 0 102 -8l-14 -88q-49 8 -98 8
q-123 0 -123 -94q0 -105 170 -105h106v-88h-473v88z" />
    <glyph glyph-name="uni0681.medi" unicode="&#x681;" horiz-adv-x="1193" 
d="M0 104h883q18 133 18 250q0 268 -105 385q-112 125 -378 125q-112 0 -221 -14v102q118 17 231 17q324 0 468 -153q134 -143 134 -445q0 -135 -18 -267h213v-104h-1225v104zM266 1255q97 0 162 -10q-70 27 -70 111q0 76 54 127q64 59 184 59q41 0 102 -8l-14 -88
q-49 8 -98 8q-123 0 -123 -94q0 -105 170 -105h106v-88h-473v88z" />
    <glyph glyph-name="uni0681.fina" unicode="&#x681;" horiz-adv-x="1214" 
d="M184 -551q-135 98 -135 260q0 395 612 395h242q18 133 18 250q0 268 -105 385q-111 125 -378 125q-112 0 -221 -14v102q119 17 231 17q324 0 468 -153q134 -143 134 -445q0 -135 -18 -267h213v-104h-594q-473 0 -473 -276q0 -122 105 -196q112 -79 315 -79q177 0 381 45
l12 -102q-206 -47 -403 -47q-260 0 -404 104zM306 1255q97 0 162 -10q-70 27 -70 111q0 76 54 127q64 59 184 59q41 0 102 -8l-14 -88q-49 8 -98 8q-123 0 -123 -94q0 -105 170 -105h106v-88h-473v88z" />
    <glyph glyph-name="uni0682.init" unicode="&#x682;" horiz-adv-x="1183" 
d="M0 104h883q18 133 18 250q0 268 -105 385q-112 125 -378 125q-112 0 -221 -14v102q118 17 231 17q324 0 468 -153q134 -143 134 -445q0 -174 -33 -371h-997v104zM393 1530q0 37 26 63q27 25 64 25q88 0 88 -88q0 -37 -26 -63q-26 -27 -62 -27q-38 0 -65 27q-25 26 -25 63
zM393 1254q0 36 26 63q27 27 64 27t63 -27q25 -26 25 -63t-26 -63q-26 -25 -62 -25q-39 0 -65 25q-25 26 -25 63z" />
    <glyph glyph-name="uni0682.medi" unicode="&#x682;" horiz-adv-x="1193" 
d="M0 104h883q18 133 18 250q0 268 -105 385q-112 125 -378 125q-112 0 -221 -14v102q118 17 231 17q324 0 468 -153q134 -143 134 -445q0 -135 -18 -267h213v-104h-1225v104zM393 1530q0 37 26 63q27 25 64 25q88 0 88 -88q0 -37 -26 -63q-26 -27 -62 -27q-38 0 -65 27
q-25 26 -25 63zM393 1254q0 36 26 63q27 27 64 27t63 -27q25 -26 25 -63t-26 -63q-26 -25 -62 -25q-39 0 -65 25q-25 26 -25 63z" />
    <glyph glyph-name="uni0682.fina" unicode="&#x682;" horiz-adv-x="1214" 
d="M184 -551q-135 98 -135 260q0 395 612 395h242q18 133 18 250q0 268 -105 385q-111 125 -378 125q-112 0 -221 -14v102q119 17 231 17q324 0 468 -153q134 -143 134 -445q0 -135 -18 -267h213v-104h-594q-473 0 -473 -276q0 -122 105 -196q112 -79 315 -79q177 0 381 45
l12 -102q-206 -47 -403 -47q-260 0 -404 104zM413 1530q0 37 26 63q27 25 64 25q88 0 88 -88q0 -37 -26 -63q-26 -27 -62 -27q-38 0 -65 27q-25 26 -25 63zM413 1254q0 36 26 63q27 27 64 27t63 -27q25 -26 25 -63t-26 -63q-26 -25 -62 -25q-39 0 -65 25q-25 26 -25 63z" />
    <glyph glyph-name="uni0685.init" unicode="&#x685;" horiz-adv-x="1183" 
d="M0 104h883q18 133 18 250q0 268 -105 385q-112 125 -378 125q-112 0 -221 -14v102q118 17 231 17q324 0 468 -153q134 -143 134 -445q0 -174 -33 -371h-997v104zM396 1473q0 36 25 62q26 26 61 26q88 0 88 -88q0 -37 -26 -63q-25 -26 -62 -26q-86 0 -86 89zM558 1199
q-27 27 -27 65q0 36 27 62q26 26 63 26q88 0 88 -88q0 -37 -25 -64q-26 -26 -63 -26t-63 25zM282 1199q-25 26 -25 65q0 36 25 62q26 26 63 26t63 -25q27 -26 27 -63t-27 -64q-26 -26 -63 -26t-63 25z" />
    <glyph glyph-name="uni0685.medi" unicode="&#x685;" horiz-adv-x="1193" 
d="M0 104h883q18 133 18 250q0 268 -105 385q-112 125 -378 125q-112 0 -221 -14v102q118 17 231 17q324 0 468 -153q134 -143 134 -445q0 -135 -18 -267h213v-104h-1225v104zM396 1473q0 36 25 62q26 26 61 26q88 0 88 -88q0 -37 -26 -63q-25 -26 -62 -26q-86 0 -86 89z
M558 1199q-27 27 -27 65q0 36 27 62q26 26 63 26q88 0 88 -88q0 -37 -25 -64q-26 -26 -63 -26t-63 25zM282 1199q-25 26 -25 65q0 36 25 62q26 26 63 26t63 -25q27 -26 27 -63t-27 -64q-26 -26 -63 -26t-63 25z" />
    <glyph glyph-name="uni0685.fina" unicode="&#x685;" horiz-adv-x="1214" 
d="M184 -551q-135 98 -135 260q0 395 612 395h242q18 133 18 250q0 268 -105 385q-111 125 -378 125q-112 0 -221 -14v102q119 17 231 17q324 0 468 -153q134 -143 134 -445q0 -135 -18 -267h213v-104h-594q-473 0 -473 -276q0 -122 105 -196q112 -79 315 -79q177 0 381 45
l12 -102q-206 -47 -403 -47q-260 0 -404 104zM416 1473q0 36 25 62q26 26 61 26q88 0 88 -88q0 -37 -26 -63q-25 -26 -62 -26q-86 0 -86 89zM578 1199q-27 27 -27 65q0 36 27 62q26 26 63 26q88 0 88 -88q0 -37 -25 -64q-26 -26 -63 -26t-63 25zM302 1199q-25 26 -25 65
q0 36 25 62q26 26 63 26t63 -25q27 -26 27 -63t-27 -64q-26 -26 -63 -26t-63 25z" />
    <glyph glyph-name="uni0689.fina" unicode="&#x689;" horiz-adv-x="1087" 
d="M604 -112q0 112 -96 112q-50 0 -79 -31t-29 -83q0 -60 31 -87q31 -29 100 -29h73v118zM412 0h-298v104h692q-1 323 -124 502q-125 181 -416 279l36 110q332 -110 478 -312q151 -208 155 -579h180v-104h-507q36 -35 36 -108v-165h-120q-166 0 -166 149q0 66 39 110
q7 8 15 14z" />
    <glyph glyph-name="uni068A.fina" unicode="&#x68a;" horiz-adv-x="1087" 
d="M114 104h692q-1 323 -124 502q-125 181 -416 279l36 110q332 -110 478 -312q151 -208 155 -579h180v-104h-1001v104zM461 -371q-26 26 -26 64q0 37 26 63q27 27 64 27t63 -26q27 -26 27 -64q0 -37 -27 -64q-26 -26 -63 -26t-64 26z" />
    <glyph glyph-name="uni068B.fina" unicode="&#x68b;" horiz-adv-x="1087" 
d="M114 104h692q-1 323 -124 502q-125 181 -416 279l36 110q332 -110 478 -312q151 -208 155 -579h180v-104h-1001v104zM360 1604q0 -58 -15 -134h2q93 168 261 168q186 0 186 -186q0 -244 -297 -244h-238v574h101v-178zM593 1554q-84 0 -160 -89q-72 -85 -75 -175h155
q176 0 176 148q0 116 -96 116zM461 -371q-26 26 -26 64q0 37 26 63q27 27 64 27t63 -26q27 -26 27 -64q0 -37 -27 -64q-26 -26 -63 -26t-64 26z" />
    <glyph glyph-name="uni068F.fina" unicode="&#x68f;" horiz-adv-x="1087" 
d="M114 104h692q-1 323 -124 502q-125 181 -416 279l36 110q332 -110 478 -312q151 -208 155 -579h180v-104h-1001v104zM492 1351q37 0 62 -26q26 -26 26 -63q0 -88 -88 -88q-35 0 -61 26q-25 26 -25 62q0 89 86 89zM631 1561q37 0 63 -26q25 -27 25 -64q0 -88 -88 -88
q-37 0 -63 26q-27 26 -27 62q0 38 27 65q26 25 63 25zM355 1561q37 0 63 -26q27 -27 27 -64t-27 -63q-26 -25 -63 -25t-63 26q-25 26 -25 62q0 39 25 65q26 25 63 25z" />
    <glyph glyph-name="uni0690.fina" unicode="&#x690;" horiz-adv-x="1087" 
d="M114 104h692q-1 323 -124 502q-125 181 -416 279l36 110q332 -110 478 -312q151 -208 155 -579h180v-104h-1001v104zM418 1592q26 -26 26 -61q0 -88 -89 -88q-35 0 -61 25q-27 26 -27 63q0 35 26 61q26 27 62 27q37 0 63 -27zM418 1327q26 -25 26 -61q0 -88 -89 -88
q-35 0 -61 26q-27 26 -27 62t26 61t62 25q37 0 63 -25zM694 1592q26 -26 26 -61q0 -88 -89 -88q-35 0 -61 25q-27 26 -27 63q0 35 26 61q26 27 62 27q37 0 63 -27zM694 1327q26 -25 26 -61q0 -88 -89 -88q-35 0 -61 26q-27 26 -27 62t26 61t62 25q37 0 63 -25z" />
    <glyph glyph-name="uni0692.fina" unicode="&#x692;" horiz-adv-x="898" 
d="M-10 -494l20 111q116 -43 234 -43q311 0 311 397v992h129v-859h246v-104h-246v-10q0 -520 -452 -520q-131 0 -242 36zM610 1173l-224 258l56 67l170 -180l170 180l54 -63z" />
    <glyph glyph-name="uni0693.fina" unicode="&#x693;" horiz-adv-x="898" 
d="M372 -515l-20 -4q-24 -8 -41 -26q-29 -31 -29 -83q0 -60 31 -87q31 -29 100 -29h73v118q0 112 -96 112q-9 0 -18 -1zM278 -529q-22 -1 -46 -1q-131 0 -242 36l20 111q116 -43 234 -43q311 0 311 397v992h129v-859h246v-104h-246v-10q0 -375 -235 -480q77 -25 77 -132
v-165h-120q-166 0 -166 149q0 66 38 109z" />
    <glyph glyph-name="uni0694.fina" unicode="&#x694;" horiz-adv-x="898" 
d="M-10 -494l20 111q116 -43 234 -43q311 0 311 397v992h129v-859h246v-104h-246v-10q0 -520 -452 -520q-131 0 -242 36zM409 -854q-26 27 -26 65q0 36 26 62q27 26 64 26q88 0 88 -88q0 -37 -26 -64q-26 -26 -62 -26q-37 0 -64 25z" />
    <glyph glyph-name="uni0695.fina" unicode="&#x695;" horiz-adv-x="898" 
d="M-10 -494l20 111q116 -43 234 -43q311 0 311 397v992h129v-859h246v-104h-246v-10q0 -520 -452 -520q-131 0 -242 36zM323 -1003l-224 258l56 67l170 -180l170 180l54 -63z" />
    <glyph glyph-name="uni0696.fina" unicode="&#x696;" horiz-adv-x="898" 
d="M-10 -494l20 111q116 -43 234 -43q311 0 311 397v992h129v-859h246v-104h-246v-10q0 -520 -452 -520q-131 0 -242 36zM409 -854q-26 27 -26 65q0 36 26 62q27 26 64 26q88 0 88 -88q0 -37 -26 -64q-26 -26 -62 -26q-37 0 -64 25zM229 25q-26 27 -26 65q0 36 26 62
q27 26 64 26q88 0 88 -88q0 -37 -26 -64q-26 -26 -62 -26q-37 0 -64 25z" />
    <glyph glyph-name="uni0697.fina" unicode="&#x697;" horiz-adv-x="898" 
d="M-10 -494l20 111q116 -43 234 -43q311 0 311 397v992h129v-859h246v-104h-246v-10q0 -520 -452 -520q-131 0 -242 36zM409 1199q-26 26 -26 65q0 36 26 62q25 26 62 26q38 0 64 -25q26 -26 26 -63t-26 -64q-27 -26 -64 -26t-62 25zM684 1199q-26 27 -26 65q0 36 26 62
q27 26 64 26q88 0 88 -88q0 -37 -26 -64q-26 -26 -62 -26q-37 0 -64 25z" />
    <glyph glyph-name="uni0699.fina" unicode="&#x699;" horiz-adv-x="898" 
d="M-10 -494l20 111q116 -43 234 -43q311 0 311 397v992h129v-859h246v-104h-246v-10q0 -520 -452 -520q-131 0 -242 36zM535 1591q26 -26 26 -61q0 -88 -89 -88q-35 0 -61 25q-27 26 -27 63q0 35 26 61q26 27 62 27q37 0 63 -27zM535 1326q26 -25 26 -61q0 -88 -89 -88
q-35 0 -61 26q-27 26 -27 62t26 61t62 25q37 0 63 -25zM811 1591q26 -26 26 -61q0 -88 -89 -88q-35 0 -61 25q-27 26 -27 63q0 35 26 61q26 27 62 27q37 0 63 -27zM811 1326q26 -25 26 -61q0 -88 -89 -88q-35 0 -61 26q-27 26 -27 62t26 61t62 25q37 0 63 -25z" />
    <glyph glyph-name="uni069A.init" unicode="&#x69a;" horiz-adv-x="1751" 
d="M0 104h80q120 0 173 65q56 70 56 234v437h131v-371q0 -211 23 -275q37 -104 170 -104q116 0 174 74q70 90 70 303v455h129v-533q0 -181 76 -237q65 -48 261 -48h76q19 139 19 314q0 326 -74 575l127 29q78 -267 78 -590q0 -218 -37 -432h-156q-218 0 -313 37
q-97 38 -139 143q-61 -194 -312 -194q-209 0 -256 188q-58 -174 -276 -174h-80v104zM846 1263q0 36 25 62t61 26q88 0 88 -88q0 -37 -26 -63q-25 -26 -62 -26q-86 0 -86 89zM866 -371q-26 26 -26 64q0 37 26 63q27 27 64 27t63 -26q27 -26 27 -64q0 -37 -27 -64
q-26 -26 -63 -26t-64 26z" />
    <glyph glyph-name="uni069A.medi" unicode="&#x69a;" horiz-adv-x="1767" 
d="M1376 0q-218 0 -313 37q-97 38 -139 143q-61 -194 -312 -194q-209 0 -256 188q-58 -174 -276 -174h-80v104h80q120 0 173 65q56 70 56 234v437h131v-371q0 -211 23 -275q37 -104 170 -104q116 0 174 74q70 90 70 303v455h129v-533q0 -181 76 -237q65 -48 261 -48h76
q19 139 19 314q0 326 -74 575l127 29q78 -267 78 -590q0 -157 -23 -328h252v-104h-422zM846 1263q0 36 25 62t61 26q88 0 88 -88q0 -37 -26 -63q-25 -26 -62 -26q-86 0 -86 89zM866 -371q-26 26 -26 64q0 37 26 63q27 27 64 27t63 -26q27 -26 27 -64q0 -37 -27 -64
q-26 -26 -63 -26t-64 26z" />
    <glyph glyph-name="uni069A.fina" unicode="&#x69a;" horiz-adv-x="2422" 
d="M2031 0q-216 0 -312 37q-99 39 -140 143q-29 -100 -117 -152q-70 -42 -149 -42q-156 0 -222 110v-19q0 -550 -471 -550q-211 0 -336 122q-149 145 -149 441q0 210 51 406l135 26q-55 -209 -55 -420q0 -471 373 -471q325 0 325 437v772h132v-371q0 -194 45 -282
q50 -97 165 -97q226 0 226 377v455h129v-533q0 -180 76 -237q65 -48 264 -48h73q21 154 21 314q0 319 -76 575l127 29q78 -267 78 -590q0 -147 -21 -328h250v-104h-422zM1487 1263q0 36 25 62t61 26q88 0 88 -88q0 -37 -26 -63q-25 -26 -62 -26q-86 0 -86 89zM1507 -371
q-26 26 -26 64q0 37 26 63q27 27 64 27t63 -26q27 -26 27 -64q0 -37 -27 -64q-26 -26 -63 -26t-64 26z" />
    <glyph glyph-name="uni069B.init" unicode="&#x69b;" horiz-adv-x="1751" 
d="M0 104h80q120 0 173 65q56 70 56 234v437h131v-371q0 -211 23 -275q37 -104 170 -104q116 0 174 74q70 90 70 303v455h129v-533q0 -181 76 -237q65 -48 261 -48h76q19 139 19 314q0 326 -74 575l127 29q78 -267 78 -590q0 -218 -37 -432h-156q-218 0 -313 37
q-97 38 -139 143q-61 -194 -312 -194q-209 0 -256 188q-58 -174 -276 -174h-80v104zM995 -501q-26 -25 -61 -25q-88 0 -88 86q0 37 26 62q25 26 62 26q35 0 61 -26q25 -26 25 -62t-25 -61zM1133 -296q-26 -26 -62 -26q-88 0 -88 89q0 35 25 61q26 27 63 27q36 0 62 -26
t26 -62q0 -37 -26 -63zM860 -296q-26 -26 -61 -26q-88 0 -88 89q0 35 26 61q25 27 62 27q35 0 61 -26q25 -26 25 -62q0 -37 -25 -63z" />
    <glyph glyph-name="uni069B.medi" unicode="&#x69b;" horiz-adv-x="1767" 
d="M1376 0q-218 0 -313 37q-97 38 -139 143q-61 -194 -312 -194q-209 0 -256 188q-58 -174 -276 -174h-80v104h80q120 0 173 65q56 70 56 234v437h131v-371q0 -211 23 -275q37 -104 170 -104q116 0 174 74q70 90 70 303v455h129v-533q0 -181 76 -237q65 -48 261 -48h76
q19 139 19 314q0 326 -74 575l127 29q78 -267 78 -590q0 -157 -23 -328h252v-104h-422zM995 -501q-26 -25 -61 -25q-88 0 -88 86q0 37 26 62q25 26 62 26q35 0 61 -26q25 -26 25 -62t-25 -61zM1133 -296q-26 -26 -62 -26q-88 0 -88 89q0 35 25 61q26 27 63 27q36 0 62 -26
t26 -62q0 -37 -26 -63zM860 -296q-26 -26 -61 -26q-88 0 -88 89q0 35 26 61q25 27 62 27q35 0 61 -26q25 -26 25 -62q0 -37 -25 -63z" />
    <glyph glyph-name="uni069B.fina" unicode="&#x69b;" horiz-adv-x="2422" 
d="M2031 0q-216 0 -312 37q-99 39 -140 143q-29 -100 -117 -152q-70 -42 -149 -42q-156 0 -222 110v-19q0 -550 -471 -550q-211 0 -336 122q-149 145 -149 441q0 210 51 406l135 26q-55 -209 -55 -420q0 -471 373 -471q325 0 325 437v772h132v-371q0 -194 45 -282
q50 -97 165 -97q226 0 226 377v455h129v-533q0 -180 76 -237q65 -48 264 -48h73q21 154 21 314q0 319 -76 575l127 29q78 -267 78 -590q0 -147 -21 -328h250v-104h-422zM1636 -501q-26 -25 -61 -25q-88 0 -88 86q0 37 26 62q25 26 62 26q35 0 61 -26q25 -26 25 -62t-25 -61z
M1774 -296q-26 -26 -62 -26q-88 0 -88 89q0 35 25 61q26 27 63 27q36 0 62 -26t26 -62q0 -37 -26 -63zM1501 -296q-26 -26 -61 -26q-88 0 -88 89q0 35 26 61q25 27 62 27q35 0 61 -26q25 -26 25 -62q0 -37 -25 -63z" />
    <glyph glyph-name="uni069C.init" unicode="&#x69c;" horiz-adv-x="1751" 
d="M0 104h80q120 0 173 65q56 70 56 234v437h131v-371q0 -211 23 -275q37 -104 170 -104q116 0 174 74q70 90 70 303v455h129v-533q0 -181 76 -237q65 -48 261 -48h76q19 139 19 314q0 326 -74 575l127 29q78 -267 78 -590q0 -218 -37 -432h-156q-218 0 -313 37
q-97 38 -139 143q-61 -194 -312 -194q-209 0 -256 188q-58 -174 -276 -174h-80v104zM846 1473q0 36 25 62t61 26q88 0 88 -88q0 -37 -26 -63q-25 -26 -62 -26q-86 0 -86 89zM1008 1199q-27 27 -27 65q0 36 27 62q26 26 63 26q88 0 88 -88q0 -37 -25 -64q-26 -26 -63 -26
t-63 25zM732 1199q-25 26 -25 65q0 36 25 62q26 26 63 26t63 -25q27 -26 27 -63t-27 -64q-27 -26 -63 -26q-37 0 -63 25zM995 -501q-26 -25 -61 -25q-88 0 -88 86q0 37 26 62q25 26 62 26q35 0 61 -26q25 -26 25 -62t-25 -61zM1133 -296q-26 -26 -62 -26q-88 0 -88 89
q0 35 25 61q26 27 63 27q36 0 62 -26t26 -62q0 -37 -26 -63zM860 -296q-26 -26 -61 -26q-88 0 -88 89q0 35 26 61q25 27 62 27q35 0 61 -26q25 -26 25 -62q0 -37 -25 -63z" />
    <glyph glyph-name="uni069C.medi" unicode="&#x69c;" horiz-adv-x="1767" 
d="M1376 0q-218 0 -313 37q-97 38 -139 143q-61 -194 -312 -194q-209 0 -256 188q-58 -174 -276 -174h-80v104h80q120 0 173 65q56 70 56 234v437h131v-371q0 -211 23 -275q37 -104 170 -104q116 0 174 74q70 90 70 303v455h129v-533q0 -181 76 -237q65 -48 261 -48h76
q19 139 19 314q0 326 -74 575l127 29q78 -267 78 -590q0 -157 -23 -328h252v-104h-422zM732 1199q-25 26 -25 65q0 36 25 62q26 26 63 26t63 -25q27 -26 27 -63t-27 -64q-27 -26 -63 -26q-37 0 -63 25zM1008 1199q-27 27 -27 65q0 36 27 62q26 26 63 26q88 0 88 -88
q0 -37 -25 -64q-26 -26 -63 -26t-63 25zM846 1473q0 36 25 62t61 26q88 0 88 -88q0 -37 -26 -63q-25 -26 -62 -26q-86 0 -86 89zM995 -501q-26 -25 -61 -25q-88 0 -88 86q0 37 26 62q25 26 62 26q35 0 61 -26q25 -26 25 -62t-25 -61zM1133 -296q-26 -26 -62 -26
q-88 0 -88 89q0 35 25 61q26 27 63 27q36 0 62 -26t26 -62q0 -37 -26 -63zM860 -296q-26 -26 -61 -26q-88 0 -88 89q0 35 26 61q25 27 62 27q35 0 61 -26q25 -26 25 -62q0 -37 -25 -63z" />
    <glyph glyph-name="uni069C.fina" unicode="&#x69c;" horiz-adv-x="2422" 
d="M2031 0q-216 0 -312 37q-99 39 -140 143q-29 -100 -117 -152q-70 -42 -149 -42q-156 0 -222 110v-19q0 -550 -471 -550q-211 0 -336 122q-149 145 -149 441q0 210 51 406l135 26q-55 -209 -55 -420q0 -471 373 -471q325 0 325 437v772h132v-371q0 -194 45 -282
q50 -97 165 -97q226 0 226 377v455h129v-533q0 -180 76 -237q65 -48 264 -48h73q21 154 21 314q0 319 -76 575l127 29q78 -267 78 -590q0 -147 -21 -328h250v-104h-422zM1373 1199q-26 26 -26 65q0 36 26 62t62 26q38 0 64 -25q27 -26 27 -63t-27 -64q-27 -26 -64 -26
t-62 25zM1648 1199q-26 27 -26 65q0 36 26 62q27 26 64 26q88 0 88 -88q0 -37 -26 -64q-25 -26 -62 -26t-64 25zM1487 1473q0 36 25 62t61 26q88 0 88 -88q0 -37 -26 -63q-25 -26 -62 -26q-86 0 -86 89zM1636 -501q-26 -25 -61 -25q-88 0 -88 86q0 37 26 62q25 26 62 26
q35 0 61 -26q25 -26 25 -62t-25 -61zM1774 -296q-26 -26 -62 -26q-88 0 -88 89q0 35 25 61q26 27 63 27q36 0 62 -26t26 -62q0 -37 -26 -63zM1501 -296q-26 -26 -61 -26q-88 0 -88 89q0 35 26 61q25 27 62 27q35 0 61 -26q25 -26 25 -62q0 -37 -25 -63z" />
    <glyph glyph-name="uni069D.init" unicode="&#x69d;" horiz-adv-x="1542" 
d="M0 104h307v859h131v-101q0 -233 -20 -411h2q71 254 238 397q158 135 354 135q186 0 289 -121q104 -122 104 -344q0 -229 -127 -363q-148 -155 -451 -155h-827v104zM844 104q426 0 426 400q0 375 -279 375q-228 0 -389 -252q-144 -226 -166 -523h408zM1064 -296
q-26 -26 -62 -26q-88 0 -88 89q0 35 25 61q26 27 63 27q36 0 62 -26t26 -62q0 -37 -26 -63zM791 -296q-26 -26 -61 -26q-88 0 -88 89q0 35 26 61q25 27 62 27q35 0 61 -26q25 -26 25 -62q0 -37 -25 -63z" />
    <glyph glyph-name="uni069D.medi" unicode="&#x69d;" horiz-adv-x="1540" 
d="M0 0v104h307v859h131v-101q0 -233 -20 -411h2q71 254 238 397q158 135 354 135q186 0 289 -121q104 -122 104 -344q0 -280 -184 -414h354v-104h-1575zM844 104q426 0 426 400q0 375 -279 375q-228 0 -389 -252q-144 -226 -166 -523h408zM1004 -296q-26 -26 -62 -26
q-88 0 -88 89q0 35 25 61q26 27 63 27q36 0 62 -26t26 -62q0 -37 -26 -63zM731 -296q-26 -26 -61 -26q-88 0 -88 89q0 35 26 61q25 27 62 27q35 0 61 -26q25 -26 25 -62q0 -37 -25 -63z" />
    <glyph glyph-name="uni069D.fina" unicode="&#x69d;" horiz-adv-x="2170" 
d="M284 -351q-149 145 -149 441q0 210 51 406l135 26q-55 -209 -55 -420q0 -471 373 -471q325 0 325 437v895h132v-101q0 -233 -21 -411h2q72 254 238 397q158 135 354 135q186 0 289 -121q104 -122 104 -344q0 -280 -184 -414h328v-104h-1115q-14 -233 -148 -358
q-124 -115 -323 -115q-211 0 -336 122zM1526 104q401 11 401 400q0 375 -279 375q-227 0 -388 -252q-145 -226 -167 -523h433zM1774 -296q-26 -26 -62 -26q-88 0 -88 89q0 35 25 61q26 27 63 27q36 0 62 -26t26 -62q0 -37 -26 -63zM1501 -296q-26 -26 -61 -26q-88 0 -88 89
q0 35 26 61q25 27 62 27q35 0 61 -26q25 -26 25 -62q0 -37 -25 -63z" />
    <glyph glyph-name="uni069E.init" unicode="&#x69e;" horiz-adv-x="1503" 
d="M0 104h307v859h131v-101q0 -233 -20 -411h2q71 254 238 397q158 135 354 135q186 0 289 -121q104 -122 104 -344q0 -229 -127 -363q-148 -155 -451 -155h-827v104zM844 104q426 0 426 400q0 375 -279 375q-228 0 -389 -252q-144 -226 -166 -523h408zM773 1199
q-26 26 -26 65q0 36 26 62t62 26q38 0 64 -25q27 -26 27 -63t-27 -64q-27 -26 -64 -26t-62 25zM1048 1199q-26 27 -26 65q0 36 26 62q27 26 64 26q88 0 88 -88q0 -37 -26 -64q-25 -26 -62 -26t-64 25zM887 1473q0 36 25 62t61 26q88 0 88 -88q0 -37 -26 -63q-25 -26 -62 -26
q-86 0 -86 89z" />
    <glyph glyph-name="uni069E.medi" unicode="&#x69e;" horiz-adv-x="1511" 
d="M0 104h307v859h131v-101q0 -233 -20 -411h2q71 254 238 397q158 135 354 135q186 0 289 -121q104 -122 104 -344q0 -280 -184 -414h323v-104h-1544v104zM868 104q402 11 402 400q0 375 -279 375q-228 0 -389 -252q-144 -226 -166 -523h432zM773 1199q-26 26 -26 65
q0 36 26 62t62 26q38 0 64 -25q27 -26 27 -63t-27 -64q-27 -26 -64 -26t-62 25zM1048 1199q-26 27 -26 65q0 36 26 62q27 26 64 26q88 0 88 -88q0 -37 -26 -64q-25 -26 -62 -26t-64 25zM887 1473q0 36 25 62t61 26q88 0 88 -88q0 -37 -26 -63q-25 -26 -62 -26q-86 0 -86 89z
" />
    <glyph glyph-name="uni069E.fina" unicode="&#x69e;" horiz-adv-x="2170" 
d="M284 -351q-149 145 -149 441q0 210 51 406l135 26q-55 -209 -55 -420q0 -471 373 -471q325 0 325 437v895h132v-101q0 -233 -21 -411h2q72 254 238 397q158 135 354 135q186 0 289 -121q104 -122 104 -344q0 -280 -184 -414h328v-104h-1115q-14 -233 -148 -358
q-124 -115 -323 -115q-211 0 -336 122zM1501 104q426 0 426 400q0 375 -279 375q-227 0 -388 -252q-145 -226 -167 -523h408zM1443 1199q-26 26 -26 65q0 36 26 62t62 26q38 0 64 -25q27 -26 27 -63t-27 -64q-27 -26 -64 -26t-62 25zM1718 1199q-26 27 -26 65q0 36 26 62
q27 26 64 26q88 0 88 -88q0 -37 -26 -64q-25 -26 -62 -26t-64 25zM1557 1473q0 36 25 62t61 26q88 0 88 -88q0 -37 -26 -63q-25 -26 -62 -26q-86 0 -86 89z" />
    <glyph glyph-name="uni069F.init" unicode="&#x69f;" horiz-adv-x="1501" 
d="M0 104h305v1340h129v-582q0 -233 -20 -411h2q73 255 239 397q157 135 355 135q186 0 289 -121q104 -122 104 -344q0 -229 -127 -363q-148 -155 -451 -155h-825v104zM842 104q426 0 426 400q0 375 -281 375q-226 0 -387 -252q-144 -226 -168 -523h410zM773 1199
q-26 26 -26 65q0 36 26 62t62 26q38 0 64 -25q27 -26 27 -63t-27 -64q-27 -26 -64 -26t-62 25zM1048 1199q-26 27 -26 65q0 36 26 62q27 26 64 26q88 0 88 -88q0 -37 -26 -64q-25 -26 -62 -26t-64 25zM887 1473q0 36 25 62t61 26q88 0 88 -88q0 -37 -26 -63q-25 -26 -62 -26
q-86 0 -86 89z" />
    <glyph glyph-name="uni069F.medi" unicode="&#x69f;" horiz-adv-x="1531" 
d="M0 104h305v1340h129v-582q0 -233 -20 -411h2q73 255 239 397q157 135 355 135q186 0 289 -121q104 -122 104 -344q0 -280 -184 -414h348v-104h-1567v104zM866 104q402 11 402 400q0 375 -281 375q-226 0 -387 -252q-144 -226 -168 -523h434zM773 1199q-26 26 -26 65
q0 36 26 62t62 26q38 0 64 -25q27 -26 27 -63t-27 -64q-27 -26 -64 -26t-62 25zM1048 1199q-26 27 -26 65q0 36 26 62q27 26 64 26q88 0 88 -88q0 -37 -26 -64q-25 -26 -62 -26t-64 25zM887 1473q0 36 25 62t61 26q88 0 88 -88q0 -37 -26 -63q-25 -26 -62 -26q-86 0 -86 89z
" />
    <glyph glyph-name="uni069F.fina" unicode="&#x69f;" horiz-adv-x="1511" 
d="M0 104h305v1340h129v-582q0 -233 -20 -411h2q73 255 239 397q157 135 355 135q186 0 289 -121q104 -122 104 -344q0 -280 -184 -414h325v-104h-1544v104zM866 104q402 11 402 400q0 375 -281 375q-226 0 -387 -252q-144 -226 -168 -523h434zM773 1199q-26 26 -26 65
q0 36 26 62t62 26q38 0 64 -25q27 -26 27 -63t-27 -64q-27 -26 -64 -26t-62 25zM1048 1199q-26 27 -26 65q0 36 26 62q27 26 64 26q88 0 88 -88q0 -37 -26 -64q-25 -26 -62 -26t-64 25zM887 1473q0 36 25 62t61 26q88 0 88 -88q0 -37 -26 -63q-25 -26 -62 -26q-86 0 -86 89z
" />
    <glyph glyph-name="uni06A0.init" unicode="&#x6a0;" horiz-adv-x="1208" 
d="M0 104h455q-115 46 -187 149q-78 112 -78 257q0 202 121 332q132 141 365 141q147 0 274 -51l-24 -107q-125 56 -264 56q-154 0 -246 -94q-94 -97 -94 -265q0 -187 140 -296q156 -122 460 -122h174v-104h-1096v104zM433 1199q-26 26 -26 65q0 36 26 62t62 26q38 0 64 -25
q27 -26 27 -63t-27 -64q-27 -26 -64 -26t-62 25zM708 1199q-26 27 -26 65q0 36 26 62q27 26 64 26q88 0 88 -88q0 -37 -26 -64q-25 -26 -62 -26t-64 25zM547 1473q0 36 25 62t61 26q88 0 88 -88q0 -37 -26 -63q-25 -26 -62 -26q-86 0 -86 89z" />
    <glyph glyph-name="uni06A0.medi" unicode="&#x6a0;" horiz-adv-x="1277" 
d="M0 104h66q351 0 610 142q-342 328 -529 393l11 88q333 260 594 260q183 0 280 -94q86 -83 86 -213q0 -239 -264 -440q166 -136 336 -136h119v-104h-142q-207 0 -411 172q-296 -172 -707 -172h-49v104zM774 309q215 158 215 353q0 97 -59 156q-66 67 -193 67
q-189 0 -456 -193q146 -56 493 -383zM513 1199q-26 26 -26 65q0 36 26 62t62 26q38 0 64 -25q27 -26 27 -63t-27 -64q-27 -26 -64 -26t-62 25zM788 1199q-26 27 -26 65q0 36 26 62q27 26 64 26q88 0 88 -88q0 -37 -26 -64q-25 -26 -62 -26t-64 25zM627 1473q0 36 25 62
t61 26q88 0 88 -88q0 -37 -26 -63q-25 -26 -62 -26q-86 0 -86 89z" />
    <glyph glyph-name="uni06A0.fina" unicode="&#x6a0;" horiz-adv-x="1277" 
d="M218 -429q-126 91 -126 245q0 159 173 285q71 51 359 194q-277 274 -477 344l11 88q333 260 593 260q183 0 281 -94q86 -83 86 -213q0 -228 -309 -404q193 -172 381 -172h119v-104h-142q-225 0 -465 221q-282 -143 -327 -174q-152 -103 -152 -223q0 -250 428 -250
q156 0 332 29l8 -101q-184 -32 -356 -32q-275 0 -417 101zM731 350q258 142 258 312q0 97 -59 156q-66 67 -193 67q-189 0 -457 -193q153 -57 451 -342zM503 1199q-26 26 -26 65q0 36 26 62t62 26q38 0 64 -25q27 -26 27 -63t-27 -64q-27 -26 -64 -26t-62 25zM778 1199
q-26 27 -26 65q0 36 26 62q27 26 64 26q88 0 88 -88q0 -37 -26 -64q-25 -26 -62 -26t-64 25zM617 1473q0 36 25 62t61 26q88 0 88 -88q0 -37 -26 -63q-25 -26 -62 -26q-86 0 -86 89z" />
    <glyph glyph-name="uni06A1.init" unicode="&#x6a1;" horiz-adv-x="1253" 
d="M0 0v104h195q71 0 120 -6q-178 103 -178 383q0 213 126 352q137 150 372 150q422 0 422 -451v-532h-1057zM928 502q0 377 -307 377q-161 0 -255 -105q-94 -103 -94 -280q0 -201 98 -294q101 -96 322 -96h236v398z" />
    <glyph glyph-name="uni06A1.medi" unicode="&#x6a1;" horiz-adv-x="1196" 
d="M0 104h143q74 0 158 -4q-164 105 -164 389q0 209 125 347q132 147 354 147q197 0 311 -106q132 -122 132 -371q0 -277 -189 -406q117 4 195 4h162v-104h-1227v104zM827 198q99 105 99 302q0 379 -326 379q-137 0 -227 -92q-101 -103 -101 -289q0 -188 86 -291t244 -103
q138 0 225 94z" />
    <glyph glyph-name="uni06A1.fina" unicode="&#x6a1;" horiz-adv-x="1894" 
d="M1925 0h-1088q-361 0 -528 145q-162 141 -162 443q0 205 74 356l139 25q-84 -168 -84 -363q0 -259 118 -374q132 -128 458 -128h143q-160 103 -160 385q0 209 125 347q132 147 354 147q197 0 311 -106q132 -122 132 -371q0 -277 -189 -406q117 4 195 4h162v-104z
M1298 879q-137 0 -227 -92q-101 -103 -101 -291q0 -187 86 -289q86 -103 244 -103q138 0 225 94q99 105 99 302q0 379 -326 379z" />
    <glyph glyph-name="uni06A2.init" unicode="&#x6a2;" horiz-adv-x="1253" 
d="M0 0v104h195q71 0 120 -6q-178 103 -178 383q0 213 126 352q137 150 372 150q422 0 422 -451v-532h-1057zM928 502q0 377 -307 377q-161 0 -255 -105q-94 -103 -94 -280q0 -201 98 -294q101 -96 322 -96h236v398zM536 -371q-26 26 -26 64q0 37 26 63q27 27 64 27t63 -26
q27 -26 27 -64q0 -37 -27 -64q-26 -26 -63 -26t-64 26z" />
    <glyph glyph-name="uni06A2.medi" unicode="&#x6a2;" horiz-adv-x="1196" 
d="M0 104h143q74 0 158 -4q-164 105 -164 389q0 209 125 347q132 147 354 147q197 0 311 -106q132 -122 132 -371q0 -277 -189 -406q117 4 195 4h162v-104h-1227v104zM827 198q99 105 99 302q0 379 -326 379q-137 0 -227 -92q-101 -103 -101 -289q0 -188 86 -291t244 -103
q138 0 225 94zM535 -371q-26 26 -26 64q0 37 26 63q27 27 64 27t63 -26q27 -26 27 -64q0 -37 -27 -64q-26 -26 -63 -26t-64 26z" />
    <glyph glyph-name="uni06A2.fina" unicode="&#x6a2;" horiz-adv-x="1894" 
d="M1925 0h-1088q-361 0 -528 145q-162 141 -162 443q0 205 74 356l139 25q-84 -168 -84 -363q0 -259 118 -374q132 -128 458 -128h143q-160 103 -160 385q0 209 125 347q132 147 354 147q197 0 311 -106q132 -122 132 -371q0 -277 -189 -406q117 4 195 4h162v-104z
M1298 879q-137 0 -227 -92q-101 -103 -101 -291q0 -187 86 -289q86 -103 244 -103q138 0 225 94q99 105 99 302q0 379 -326 379zM1233 -371q-26 26 -26 64q0 37 26 63q27 27 64 27t63 -26q27 -26 27 -64q0 -37 -27 -64q-26 -26 -63 -26t-64 26z" />
    <glyph glyph-name="uni06A3.init" unicode="&#x6a3;" horiz-adv-x="1253" 
d="M0 0v104h195q71 0 120 -6q-178 103 -178 383q0 213 126 352q137 150 372 150q422 0 422 -451v-532h-1057zM928 502q0 377 -307 377q-161 0 -255 -105q-94 -103 -94 -280q0 -201 98 -294q101 -96 322 -96h236v398zM553 1244q-27 27 -27 65q0 37 27 63q27 27 63 27
q38 0 64 -26q27 -26 27 -64q0 -37 -27 -64q-27 -26 -64 -26t-63 25zM552 -371q-26 26 -26 64q0 37 26 63q27 27 64 27t63 -26q27 -26 27 -64q0 -37 -27 -64q-26 -26 -63 -26t-64 26z" />
    <glyph glyph-name="uni06A3.medi" unicode="&#x6a3;" horiz-adv-x="1196" 
d="M0 104h143q74 0 158 -4q-164 105 -164 389q0 209 125 347q132 147 354 147q197 0 311 -106q132 -122 132 -371q0 -277 -189 -406q117 4 195 4h162v-104h-1227v104zM827 198q99 105 99 302q0 379 -326 379q-137 0 -227 -92q-101 -103 -101 -289q0 -188 86 -291t244 -103
q138 0 225 94zM545 1244q-27 27 -27 65q0 37 27 63q26 27 63 27t64 -26q26 -26 26 -64q0 -37 -26 -64q-27 -26 -64 -26t-63 25zM544 -371q-26 26 -26 64q0 37 26 63q27 27 64 27t63 -26q27 -26 27 -64q0 -37 -27 -64q-26 -26 -63 -26t-64 26z" />
    <glyph glyph-name="uni06A3.fina" unicode="&#x6a3;" horiz-adv-x="1894" 
d="M1925 0h-1088q-361 0 -528 145q-162 141 -162 443q0 205 74 356l139 25q-84 -168 -84 -363q0 -259 118 -374q132 -128 458 -128h143q-160 103 -160 385q0 209 125 347q132 147 354 147q197 0 311 -106q132 -122 132 -371q0 -277 -189 -406q117 4 195 4h162v-104z
M1298 879q-137 0 -227 -92q-101 -103 -101 -291q0 -187 86 -289q86 -103 244 -103q138 0 225 94q99 105 99 302q0 379 -326 379zM1243 1244q-27 27 -27 65q0 37 27 63q26 27 63 27t64 -26q26 -26 26 -64q0 -37 -26 -64q-27 -26 -64 -26t-63 25zM888 -371q-26 26 -26 64
q0 37 26 63q27 27 64 27t63 -26q27 -26 27 -64q0 -37 -27 -64q-26 -26 -63 -26t-64 26z" />
    <glyph glyph-name="uni06A5.init" unicode="&#x6a5;" horiz-adv-x="1253" 
d="M0 0v104h195q71 0 120 -6q-178 103 -178 383q0 213 126 352q137 150 372 150q422 0 422 -451v-532h-1057zM928 502q0 377 -307 377q-161 0 -255 -105q-94 -103 -94 -280q0 -201 98 -294q101 -96 322 -96h236v398zM695 -501q-26 -25 -61 -25q-88 0 -88 86q0 37 26 62
q25 26 62 26q35 0 61 -26q25 -26 25 -62t-25 -61zM833 -296q-26 -26 -62 -26q-88 0 -88 89q0 35 25 61q26 27 63 27q36 0 62 -26t26 -62q0 -37 -26 -63zM560 -296q-26 -26 -61 -26q-88 0 -88 89q0 35 26 61q25 27 62 27q35 0 61 -26q25 -26 25 -62q0 -37 -25 -63z" />
    <glyph glyph-name="uni06A5.medi" unicode="&#x6a5;" horiz-adv-x="1196" 
d="M0 104h143q74 0 158 -4q-164 105 -164 389q0 209 125 347q132 147 354 147q197 0 311 -106q132 -122 132 -371q0 -277 -189 -406q117 4 195 4h162v-104h-1227v104zM827 198q99 105 99 302q0 379 -326 379q-137 0 -227 -92q-101 -103 -101 -289q0 -188 86 -291t244 -103
q138 0 225 94zM655 -501q-26 -25 -61 -25q-88 0 -88 86q0 37 26 62q25 26 62 26q35 0 61 -26q25 -26 25 -62t-25 -61zM793 -296q-26 -26 -62 -26q-88 0 -88 89q0 35 25 61q26 27 63 27q36 0 62 -26t26 -62q0 -37 -26 -63zM520 -296q-26 -26 -61 -26q-88 0 -88 89q0 35 26 61
q25 27 62 27q35 0 61 -26q25 -26 25 -62q0 -37 -25 -63z" />
    <glyph glyph-name="uni06A5.fina" unicode="&#x6a5;" horiz-adv-x="1894" 
d="M1925 0h-1088q-361 0 -528 145q-162 141 -162 443q0 205 74 356l139 25q-84 -168 -84 -363q0 -259 118 -374q132 -128 458 -128h143q-160 103 -160 385q0 209 125 347q132 147 354 147q197 0 311 -106q132 -122 132 -371q0 -277 -189 -406q117 4 195 4h162v-104z
M1298 879q-137 0 -227 -92q-101 -103 -101 -291q0 -187 86 -289q86 -103 244 -103q138 0 225 94q99 105 99 302q0 379 -326 379zM1385 -501q-26 -25 -61 -25q-88 0 -88 86q0 37 26 62q25 26 62 26q35 0 61 -26q25 -26 25 -62t-25 -61zM1523 -296q-26 -26 -62 -26
q-88 0 -88 89q0 35 25 61q26 27 63 27q36 0 62 -26t26 -62q0 -37 -26 -63zM1250 -296q-26 -26 -61 -26q-88 0 -88 89q0 35 26 61q25 27 62 27q35 0 61 -26q25 -26 25 -62q0 -37 -25 -63z" />
    <glyph glyph-name="uni06A7.init" unicode="&#x6a7;" horiz-adv-x="1253" 
d="M0 0v104h195q71 0 120 -6q-178 103 -178 383q0 213 126 352q137 150 372 150q422 0 422 -451v-532h-1057zM928 502q0 377 -307 377q-161 0 -255 -105q-94 -103 -94 -280q0 -201 98 -294q101 -96 322 -96h236v398zM553 1244q-27 27 -27 65q0 37 27 63q27 27 63 27
q38 0 64 -26q27 -26 27 -64q0 -37 -27 -64q-27 -26 -64 -26t-63 25z" />
    <glyph glyph-name="uni06A7.medi" unicode="&#x6a7;" horiz-adv-x="1196" 
d="M0 104h143q74 0 158 -4q-164 105 -164 389q0 209 125 347q132 147 354 147q197 0 311 -106q132 -122 132 -371q0 -277 -189 -406q117 4 195 4h162v-104h-1227v104zM827 198q99 105 99 302q0 379 -326 379q-137 0 -227 -92q-101 -103 -101 -289q0 -188 86 -291t244 -103
q138 0 225 94zM545 1244q-27 27 -27 65q0 37 27 63q26 27 63 27t64 -26q26 -26 26 -64q0 -37 -26 -64q-27 -26 -64 -26t-63 25z" />
    <glyph glyph-name="uni06A7.fina" unicode="&#x6a7;" horiz-adv-x="1818" 
d="M1603 104h246v-104h-246v-485q-292 -29 -589 -29q-465 0 -672 144t-207 470q0 200 51 396l135 26q-55 -209 -55 -405q0 -285 179 -407q176 -120 585 -120q209 0 442 21v389h-235q-531 0 -531 481q0 214 125 352q135 150 373 150q213 0 399 -72v-807zM1474 825
q-114 54 -286 54q-160 0 -254 -104t-94 -279q0 -202 98 -296q101 -96 321 -96h215v721zM1127 1244q-26 27 -26 65q0 37 26 63q27 27 64 27t63 -26q27 -26 27 -64q0 -37 -27 -64q-26 -26 -63 -26t-64 25z" />
    <glyph glyph-name="uni06A8.init" unicode="&#x6a8;" horiz-adv-x="1253" 
d="M0 0v104h195q71 0 120 -6q-178 103 -178 383q0 213 126 352q137 150 372 150q422 0 422 -451v-532h-1057zM928 502q0 377 -307 377q-161 0 -255 -105q-94 -103 -94 -280q0 -201 98 -294q101 -96 322 -96h236v398zM528 1473q0 36 26 62q25 26 60 26q88 0 88 -88
q0 -37 -25 -63q-26 -26 -63 -26q-86 0 -86 89zM690 1199q-26 27 -26 65q0 36 26 62q27 26 64 26q88 0 88 -88q0 -37 -26 -64q-26 -26 -62 -26q-38 0 -64 25zM415 1199q-26 26 -26 65q0 36 26 62q25 26 62 26q38 0 64 -25q26 -26 26 -63t-26 -64q-27 -26 -64 -26t-62 25z" />
    <glyph glyph-name="uni06A8.medi" unicode="&#x6a8;" horiz-adv-x="1196" 
d="M0 104h143q74 0 158 -4q-164 105 -164 389q0 209 125 347q132 147 354 147q197 0 311 -106q132 -122 132 -371q0 -277 -189 -406q117 4 195 4h162v-104h-1227v104zM827 198q99 105 99 302q0 379 -326 379q-137 0 -227 -92q-101 -103 -101 -289q0 -188 86 -291t244 -103
q138 0 225 94zM520 1473q0 36 26 62q25 26 60 26q88 0 88 -88q0 -37 -25 -63q-26 -26 -63 -26q-86 0 -86 89zM682 1199q-27 27 -27 65q0 36 27 62q26 26 63 26q89 0 89 -88q0 -37 -26 -64q-26 -26 -63 -26t-63 25zM407 1199q-26 26 -26 65q0 36 26 62q25 26 62 26t63 -25
q27 -26 27 -63t-27 -64q-26 -26 -63 -26t-62 25z" />
    <glyph glyph-name="uni06A8.fina" unicode="&#x6a8;" horiz-adv-x="1818" 
d="M1603 104h246v-104h-246v-485q-292 -29 -589 -29q-465 0 -672 144t-207 470q0 200 51 396l135 26q-55 -209 -55 -405q0 -285 179 -407q176 -120 585 -120q209 0 442 21v389h-235q-531 0 -531 481q0 214 125 352q135 150 373 150q213 0 399 -72v-807zM1474 825
q-114 54 -286 54q-160 0 -254 -104t-94 -279q0 -202 98 -296q101 -96 321 -96h215v721zM1108 1473q0 36 25 62q26 26 61 26q88 0 88 -88q0 -37 -25 -63q-26 -26 -63 -26q-86 0 -86 89zM1270 1199q-27 27 -27 65q0 36 27 62q26 26 63 26q88 0 88 -88q0 -37 -25 -64
q-26 -26 -63 -26t-63 25zM994 1199q-25 26 -25 65q0 36 25 62q26 26 63 26t63 -25q27 -26 27 -63t-27 -64q-26 -26 -63 -26t-63 25z" />
    <glyph glyph-name="uni06AA.init" unicode="&#x6aa;" horiz-adv-x="999" 
d="M0 104h694q-1 338 -138 521q-130 173 -425 266v98l754 473v-133l-598 -371q274 -111 399 -301q137 -211 137 -577v-80h-823v104z" />
    <glyph glyph-name="uni06AA.medi" unicode="&#x6aa;" horiz-adv-x="999" 
d="M0 104h694q-1 338 -138 521q-130 173 -425 266v98l754 473v-133l-598 -371q269 -109 394 -295q138 -206 142 -559h207v-104h-1030v104z" />
    <glyph glyph-name="uni06AA.fina" unicode="&#x6aa;" horiz-adv-x="1736" 
d="M837 0q-361 0 -528 145q-162 141 -162 443q0 205 74 356l139 25q-84 -168 -84 -363q0 -260 119 -374q133 -128 463 -128h571q-1 337 -138 521q-129 173 -423 266v98l752 473v-133l-599 -371q271 -109 396 -295q137 -205 141 -559h209v-104h-930z" />
    <glyph glyph-name="uni06AB.init" unicode="&#x6ab;" horiz-adv-x="999" 
d="M0 104h694q-1 338 -138 521q-130 173 -425 266v94l754 473v-129l-598 -371q274 -111 399 -301q137 -211 137 -577v-80h-823v104zM131 1305l754 473v-129l-754 -471v127z" />
    <glyph glyph-name="uni06AB.medi" unicode="&#x6ab;" horiz-adv-x="999" 
d="M0 104h694q-1 338 -138 521q-130 173 -425 266v94l754 473v-129l-598 -371q269 -109 394 -295q138 -206 142 -559h207v-104h-1030v104zM131 1305l754 473v-129l-754 -471v127z" />
    <glyph glyph-name="uni06AB.fina" unicode="&#x6ab;" horiz-adv-x="1736" 
d="M837 0q-361 0 -528 145q-162 141 -162 443q0 205 74 356l139 25q-84 -168 -84 -363q0 -260 119 -374q133 -128 463 -128h571q-1 337 -138 521q-129 173 -423 266v94l752 473v-129l-599 -371q271 -109 396 -295q137 -205 141 -559h209v-104h-930zM868 1305l752 473v-129
l-752 -471v127z" />
    <glyph glyph-name="uni06AC.init" unicode="&#x6ac;" horiz-adv-x="999" 
d="M0 104h694q-1 338 -138 521q-130 173 -425 266v98l754 473v-133l-598 -371q274 -111 399 -301q137 -211 137 -577v-80h-823v104zM268 1422q0 36 25 62q26 26 61 26q88 0 88 -88q0 -37 -25 -63q-26 -25 -63 -25q-86 0 -86 88z" />
    <glyph glyph-name="uni06AC.medi" unicode="&#x6ac;" horiz-adv-x="999" 
d="M0 104h694q-1 338 -138 521q-130 173 -425 266v98l754 473v-133l-598 -371q269 -109 394 -295q138 -206 142 -559h207v-104h-1030v104zM268 1422q0 36 25 62q26 26 61 26q88 0 88 -88q0 -37 -25 -63q-26 -25 -63 -25q-86 0 -86 88z" />
    <glyph glyph-name="uni06AC.fina" unicode="&#x6ac;" horiz-adv-x="1734" 
d="M837 0q-361 0 -528 145q-162 141 -162 443q0 205 74 356l139 25q-84 -168 -84 -363q0 -260 119 -374q133 -128 463 -128h536v1340h129v-1340h240v-104h-926zM651 920q97 0 162 -11q-70 28 -70 111q0 76 54 127q64 59 184 59q40 0 102 -8l-14 -88q-50 8 -99 8
q-123 0 -123 -94q0 -104 170 -104h107v-89h-473v89zM1363 1638q0 36 25 62q26 26 61 26q88 0 88 -88q0 -37 -25 -63q-26 -25 -63 -25q-86 0 -86 88z" />
    <glyph glyph-name="uni06AE.init" unicode="&#x6ae;" horiz-adv-x="999" 
d="M0 104h694q-1 338 -138 521q-130 173 -425 266v98l754 473v-133l-598 -371q274 -111 399 -301q137 -211 137 -577v-80h-823v104zM447 -501q-25 -25 -61 -25q-88 0 -88 86q0 37 26 62q25 26 62 26q36 0 61 -26t25 -62t-25 -61zM585 -296q-26 -26 -61 -26q-88 0 -88 89
q0 35 25 61q26 27 63 27q35 0 61 -26q27 -26 27 -62q0 -37 -27 -63zM310 -296q-25 -26 -61 -26q-88 0 -88 89q0 35 26 61q26 27 62 27t61 -26t25 -62q0 -37 -25 -63z" />
    <glyph glyph-name="uni06AE.medi" unicode="&#x6ae;" horiz-adv-x="999" 
d="M0 104h694q-1 338 -138 521q-130 173 -425 266v98l754 473v-133l-598 -371q269 -109 394 -295q138 -206 142 -559h207v-104h-1030v104zM447 -501q-25 -25 -61 -25q-88 0 -88 86q0 37 26 62q25 26 62 26q36 0 61 -26t25 -62t-25 -61zM585 -296q-26 -26 -61 -26
q-88 0 -88 89q0 35 25 61q26 27 63 27q35 0 61 -26q27 -26 27 -62q0 -37 -27 -63zM310 -296q-25 -26 -61 -26q-88 0 -88 89q0 35 26 61q26 27 62 27t61 -26t25 -62q0 -37 -25 -63z" />
    <glyph glyph-name="uni06AE.fina" unicode="&#x6ae;" horiz-adv-x="1734" 
d="M837 0q-361 0 -528 145q-162 141 -162 443q0 205 74 356l139 25q-84 -168 -84 -363q0 -260 119 -374q133 -128 463 -128h536v1340h129v-1340h240v-104h-926zM651 920q97 0 162 -11q-70 28 -70 111q0 76 54 127q64 59 184 59q40 0 102 -8l-14 -88q-50 8 -99 8
q-123 0 -123 -94q0 -104 170 -104h107v-89h-473v89zM947 -501q-25 -25 -61 -25q-88 0 -88 86q0 37 26 62q25 26 62 26q36 0 61 -26t25 -62t-25 -61zM1085 -296q-26 -26 -61 -26q-88 0 -88 89q0 35 25 61q26 27 63 27q35 0 61 -26q27 -26 27 -62q0 -37 -27 -63zM810 -296
q-25 -26 -61 -26q-88 0 -88 89q0 35 26 61q26 27 62 27t61 -26t25 -62q0 -37 -25 -63z" />
    <glyph glyph-name="uni06B0.init" unicode="&#x6b0;" horiz-adv-x="999" 
d="M797 1078q0 112 -96 112q-50 0 -79 -31t-29 -83q0 -60 31 -87q31 -29 100 -29h73v118zM131 1305l754 473v-129l-754 -471v127zM561 1128l-274 -170q274 -111 399 -301q137 -211 137 -577v-80h-823v104h694q-1 338 -138 521q-130 173 -425 266v94l754 473v-129l-173 -107
q125 -3 125 -140v-165h-120q-166 0 -166 149q0 34 10 62z" />
    <glyph glyph-name="uni06B0.medi" unicode="&#x6b0;" horiz-adv-x="999" 
d="M131 1305l754 473v-129l-754 -471v127zM797 1078q0 112 -96 112q-50 0 -79 -31t-29 -83q0 -60 31 -87q31 -29 100 -29h73v118zM561 1128l-274 -170q269 -109 394 -295q138 -206 142 -559h207v-104h-1030v104h694q-1 338 -138 521q-130 173 -425 266v94l754 473v-129
l-173 -107q125 -3 125 -140v-165h-120q-166 0 -166 149q0 34 10 62z" />
    <glyph glyph-name="uni06B0.fina" unicode="&#x6b0;" horiz-adv-x="1736" 
d="M868 1305l752 473v-129l-752 -471v127zM1527 1078q0 112 -96 112q-50 0 -79 -31t-29 -83q0 -60 31 -87q31 -29 100 -29h73v118zM1290 1125l-269 -167q271 -109 396 -295q137 -205 141 -559h209v-104h-930q-361 0 -528 145q-162 141 -162 443q0 205 74 356l139 25
q-84 -168 -84 -363q0 -260 119 -374q133 -128 463 -128h571q-1 337 -138 521q-129 173 -423 266v94l752 473v-129l-173 -107q120 -6 120 -140v-165h-120q-166 0 -166 149q0 32 9 59z" />
    <glyph glyph-name="uni06B2.init" unicode="&#x6b2;" horiz-adv-x="999" 
d="M0 104h694q-1 338 -138 521q-130 173 -425 266v94l754 473v-129l-598 -371q274 -111 399 -301q137 -211 137 -577v-80h-823v104zM131 1305l754 473v-129l-754 -471v127zM585 -296q-26 -26 -61 -26q-88 0 -88 89q0 35 25 61q26 27 63 27q35 0 61 -26q27 -26 27 -62
q0 -37 -27 -63zM310 -296q-25 -26 -61 -26q-88 0 -88 89q0 35 26 61q26 27 62 27t61 -26t25 -62q0 -37 -25 -63z" />
    <glyph glyph-name="uni06B2.medi" unicode="&#x6b2;" horiz-adv-x="999" 
d="M0 104h694q-1 338 -138 521q-130 173 -425 266v94l754 473v-129l-598 -371q269 -109 394 -295q138 -206 142 -559h207v-104h-1030v104zM131 1305l754 473v-129l-754 -471v127zM585 -296q-26 -26 -61 -26q-88 0 -88 89q0 35 25 61q26 27 63 27q35 0 61 -26q27 -26 27 -62
q0 -37 -27 -63zM310 -296q-25 -26 -61 -26q-88 0 -88 89q0 35 26 61q26 27 62 27t61 -26t25 -62q0 -37 -25 -63z" />
    <glyph glyph-name="uni06B2.fina" unicode="&#x6b2;" horiz-adv-x="1736" 
d="M837 0q-361 0 -528 145q-162 141 -162 443q0 205 74 356l139 25q-84 -168 -84 -363q0 -260 119 -374q133 -128 463 -128h571q-1 337 -138 521q-129 173 -423 266v94l752 473v-129l-599 -371q271 -109 396 -295q137 -205 141 -559h209v-104h-930zM868 1305l752 473v-129
l-752 -471v127zM1085 -296q-26 -26 -61 -26q-88 0 -88 89q0 35 25 61q26 27 63 27q35 0 61 -26q27 -26 27 -62q0 -37 -27 -63zM810 -296q-25 -26 -61 -26q-88 0 -88 89q0 35 26 61q26 27 62 27t61 -26t25 -62q0 -37 -25 -63z" />
    <glyph glyph-name="uni06B4.init" unicode="&#x6b4;" horiz-adv-x="999" 
d="M0 104h694q-1 338 -138 521q-130 173 -425 266v94l754 473v-129l-598 -371q274 -111 399 -301q137 -211 137 -577v-80h-823v104zM131 1305l754 473v-129l-754 -471v127zM258 1943q0 36 25 62q26 26 61 26q88 0 88 -88q0 -37 -25 -63q-26 -26 -63 -26q-86 0 -86 89z
M420 1669q-27 27 -27 65q0 36 27 62q26 26 63 26q88 0 88 -88q0 -37 -25 -64q-26 -26 -63 -26t-63 25zM144 1669q-25 26 -25 65q0 36 25 62q26 26 63 26t63 -25q27 -26 27 -63t-27 -64q-26 -26 -63 -26t-63 25z" />
    <glyph glyph-name="uni06B4.medi" unicode="&#x6b4;" horiz-adv-x="999" 
d="M0 104h694q-1 338 -138 521q-130 173 -425 266v94l754 473v-129l-598 -371q269 -109 394 -295q138 -206 142 -559h207v-104h-1030v104zM131 1305l754 473v-129l-754 -471v127zM258 1943q0 36 25 62q26 26 61 26q88 0 88 -88q0 -37 -25 -63q-26 -26 -63 -26q-86 0 -86 89z
M420 1669q-27 27 -27 65q0 36 27 62q26 26 63 26q88 0 88 -88q0 -37 -25 -64q-26 -26 -63 -26t-63 25zM144 1669q-25 26 -25 65q0 36 25 62q26 26 63 26t63 -25q27 -26 27 -63t-27 -64q-26 -26 -63 -26t-63 25z" />
    <glyph glyph-name="uni06B4.fina" unicode="&#x6b4;" horiz-adv-x="1736" 
d="M837 0q-361 0 -528 145q-162 141 -162 443q0 205 74 356l139 25q-84 -168 -84 -363q0 -260 119 -374q133 -128 463 -128h571q-1 337 -138 521q-129 173 -423 266v94l752 473v-129l-599 -371q271 -109 396 -295q137 -205 141 -559h209v-104h-930zM868 1305l752 473v-129
l-752 -471v127zM968 1943q0 36 25 62q26 26 61 26q88 0 88 -88q0 -37 -25 -63q-26 -26 -63 -26q-86 0 -86 89zM1130 1669q-27 27 -27 65q0 36 27 62q26 26 63 26q88 0 88 -88q0 -37 -25 -64q-26 -26 -63 -26t-63 25zM854 1669q-25 26 -25 65q0 36 25 62q26 26 63 26t63 -25
q27 -26 27 -63t-27 -64q-26 -26 -63 -26t-63 25z" />
    <glyph glyph-name="uni06B5.init" unicode="&#x6b5;" horiz-adv-x="649" 
d="M0 104h309v1340h129v-1444h-438v104zM384 1551l-224 258l56 67l170 -180l170 180l54 -63z" />
    <glyph glyph-name="uni06B5.medi" unicode="&#x6b5;" horiz-adv-x="649" 
d="M0 104h309v1340h129v-1340h242v-104h-680v104zM374 1551l-224 258l56 67l170 -180l170 180l54 -63z" />
    <glyph glyph-name="uni06B5.fina" unicode="&#x6b5;" horiz-adv-x="1302" 
d="M964 1444h132v-1340h237v-104h-242q-21 -243 -158 -365q-120 -108 -313 -108q-211 0 -336 122q-149 145 -149 441q0 210 51 406l135 26q-55 -209 -55 -420q0 -471 373 -471q325 0 325 451v1362zM1034 1551l-224 258l56 67l170 -180l170 180l54 -63z" />
    <glyph glyph-name="uni06B6.init" unicode="&#x6b6;" horiz-adv-x="649" 
d="M0 104h309v1340h129v-1444h-438v104zM288 1682q0 36 25 62q26 26 61 26q88 0 88 -88q0 -37 -25 -63q-26 -25 -63 -25q-86 0 -86 88z" />
    <glyph glyph-name="uni06B6.medi" unicode="&#x6b6;" horiz-adv-x="649" 
d="M0 104h309v1340h129v-1340h242v-104h-680v104zM288 1682q0 36 25 62q26 26 61 26q88 0 88 -88q0 -37 -25 -63q-26 -25 -63 -25q-86 0 -86 88z" />
    <glyph glyph-name="uni06B6.fina" unicode="&#x6b6;" horiz-adv-x="1302" 
d="M964 1444h132v-1340h237v-104h-242q-21 -243 -158 -365q-120 -108 -313 -108q-211 0 -336 122q-149 145 -149 441q0 210 51 406l135 26q-55 -209 -55 -420q0 -471 373 -471q325 0 325 451v1362zM948 1682q0 36 25 62q26 26 61 26q88 0 88 -88q0 -37 -25 -63
q-26 -25 -63 -25q-86 0 -86 88z" />
    <glyph glyph-name="uni06B7.init" unicode="&#x6b7;" horiz-adv-x="649" 
d="M0 104h309v1340h129v-1444h-438v104zM288 1893q0 36 25 62q26 26 61 26q88 0 88 -88q0 -37 -25 -63q-26 -26 -63 -26q-86 0 -86 89zM450 1619q-27 27 -27 65q0 36 27 62q26 26 63 26q88 0 88 -88q0 -37 -25 -64q-26 -26 -63 -26t-63 25zM174 1619q-25 26 -25 65
q0 36 25 62q26 26 63 26t63 -25q27 -26 27 -63t-27 -64q-26 -26 -63 -26t-63 25z" />
    <glyph glyph-name="uni06B7.medi" unicode="&#x6b7;" horiz-adv-x="649" 
d="M0 104h309v1340h129v-1340h242v-104h-680v104zM288 1893q0 36 25 62q26 26 61 26q88 0 88 -88q0 -37 -25 -63q-26 -26 -63 -26q-86 0 -86 89zM450 1619q-27 27 -27 65q0 36 27 62q26 26 63 26q88 0 88 -88q0 -37 -25 -64q-26 -26 -63 -26t-63 25zM174 1619q-25 26 -25 65
q0 36 25 62q26 26 63 26t63 -25q27 -26 27 -63t-27 -64q-26 -26 -63 -26t-63 25z" />
    <glyph glyph-name="uni06B7.fina" unicode="&#x6b7;" horiz-adv-x="1302" 
d="M964 1444h132v-1340h237v-104h-242q-21 -243 -158 -365q-120 -108 -313 -108q-211 0 -336 122q-149 145 -149 441q0 210 51 406l135 26q-55 -209 -55 -420q0 -471 373 -471q325 0 325 451v1362zM948 1893q0 36 25 62q26 26 61 26q88 0 88 -88q0 -37 -25 -63
q-26 -26 -63 -26q-86 0 -86 89zM1110 1619q-27 27 -27 65q0 36 27 62q26 26 63 26q88 0 88 -88q0 -37 -25 -64q-26 -26 -63 -26t-63 25zM834 1619q-25 26 -25 65q0 36 25 62q26 26 63 26t63 -25q27 -26 27 -63t-27 -64q-26 -26 -63 -26t-63 25z" />
    <glyph glyph-name="uni06B8.init" unicode="&#x6b8;" horiz-adv-x="819" 
d="M0 104h479v1340h129v-1444h-608v104zM447 -501q-25 -25 -61 -25q-88 0 -88 86q0 37 26 62q25 26 62 26q36 0 61 -26t25 -62t-25 -61zM585 -296q-26 -26 -61 -26q-88 0 -88 89q0 35 25 61q26 27 63 27q35 0 61 -26q27 -26 27 -62q0 -37 -27 -63zM310 -296q-25 -26 -61 -26
q-88 0 -88 89q0 35 26 61q26 27 62 27t61 -26t25 -62q0 -37 -25 -63z" />
    <glyph glyph-name="uni06B8.medi" unicode="&#x6b8;" horiz-adv-x="919" 
d="M0 104h579v1340h129v-1340h242v-104h-950v104zM447 -501q-25 -25 -61 -25q-88 0 -88 86q0 37 26 62q25 26 62 26q36 0 61 -26t25 -62t-25 -61zM585 -296q-26 -26 -61 -26q-88 0 -88 89q0 35 25 61q26 27 63 27q35 0 61 -26q27 -26 27 -62q0 -37 -27 -63zM310 -296
q-25 -26 -61 -26q-88 0 -88 89q0 35 26 61q26 27 62 27t61 -26t25 -62q0 -37 -25 -63z" />
    <glyph glyph-name="uni06B8.fina" unicode="&#x6b8;" horiz-adv-x="1302" 
d="M964 1444h132v-1340h237v-104h-242q-21 -243 -158 -365q-120 -108 -313 -108q-211 0 -336 122q-149 145 -149 441q0 210 51 406l135 26q-55 -209 -55 -420q0 -471 373 -471q325 0 325 451v1362zM686 -974q-25 -25 -61 -25q-88 0 -88 86q0 37 26 62q25 26 62 26
q36 0 61 -26t25 -62t-25 -61zM824 -769q-26 -26 -61 -26q-88 0 -88 89q0 35 25 61q26 27 63 27q35 0 61 -26q27 -26 27 -62q0 -37 -27 -63zM549 -769q-25 -26 -61 -26q-88 0 -88 89q0 35 26 61q26 27 62 27t61 -26t25 -62q0 -37 -25 -63z" />
    <glyph glyph-name="uni06B9.init" unicode="&#x6b9;" horiz-adv-x="636" 
d="M311 1242q-26 27 -26 65q0 36 26 63q27 27 64 27t63 -26q27 -26 27 -64q0 -37 -27 -64q-26 -26 -63 -26t-64 25zM0 104h309v859h131v-963h-440v104zM311 -371q-26 26 -26 64q0 37 26 63q27 27 64 27t63 -26q27 -26 27 -64q0 -37 -27 -64q-26 -26 -63 -26t-64 26z" />
    <glyph glyph-name="uni06B9.medi" unicode="&#x6b9;" horiz-adv-x="653" 
d="M0 104h309v859h131v-859h244v-104h-684v104zM311 1242q-26 27 -26 65q0 36 26 63q27 27 64 27t63 -26q27 -26 27 -64q0 -37 -27 -64q-26 -26 -63 -26t-64 25zM311 -371q-26 26 -26 64q0 37 26 63q27 27 64 27t63 -26q27 -26 27 -64q0 -37 -27 -64q-26 -26 -63 -26t-64 26
z" />
    <glyph glyph-name="uni06B9.fina" unicode="&#x6b9;" horiz-adv-x="1347" 
d="M1132 104h246v-104h-250q-33 -473 -510 -473q-211 0 -337 122q-150 145 -150 441q0 210 51 406l135 26q-55 -209 -55 -420q0 -257 120 -376q95 -95 253 -95q366 0 366 437v895h131v-859zM561 831q-27 26 -27 64q0 37 27 63q27 27 64 27t63 -26q27 -26 27 -64
q0 -37 -27 -64q-27 -26 -63 -26q-38 0 -64 26zM560 -778q-26 26 -26 64q0 37 26 63q27 27 64 27t63 -26q27 -26 27 -64q0 -37 -27 -64q-26 -26 -63 -26t-64 26z" />
    <glyph glyph-name="uni06BC.init" unicode="&#x6bc;" horiz-adv-x="636" 
d="M287 1199q-25 26 -25 65q0 36 25 62q26 26 63 26q90 0 90 -88q0 -38 -26 -64t-64 -26q-37 0 -63 25zM284 -112q0 112 -96 112q-50 0 -79 -31t-29 -83q0 -60 31 -87q31 -29 100 -29h73v118zM92 0h-92v104h309v859h131v-963h-152q36 -35 36 -108v-165h-120q-166 0 -166 149
q0 66 39 110q7 8 15 14z" />
    <glyph glyph-name="uni06BC.medi" unicode="&#x6bc;" horiz-adv-x="636" 
d="M287 1199q-25 26 -25 65q0 36 25 62q26 26 63 26q90 0 90 -88q0 -38 -26 -64t-64 -26q-37 0 -63 25zM284 -112q0 112 -96 112q-50 0 -79 -31t-29 -83q0 -60 31 -87q31 -29 100 -29h73v118zM92 0h-92v104h309v859h131v-859h228v-104h-380q36 -35 36 -108v-165h-120
q-166 0 -166 149q0 66 39 110q7 8 15 14z" />
    <glyph glyph-name="uni06BC.fina" unicode="&#x6bc;" horiz-adv-x="1347" 
d="M561 831q-27 26 -27 64q0 37 27 63q27 27 64 27t63 -26q27 -26 27 -64q0 -37 -27 -64q-27 -26 -63 -26q-38 0 -64 26zM551 -470q-165 17 -270 119q-150 145 -150 441q0 210 51 406l135 26q-55 -209 -55 -420q0 -257 120 -376q95 -95 253 -95q366 0 366 437v895h131v-859
h246v-104h-250q-29 -411 -392 -465q44 -34 44 -115v-165h-120q-166 0 -166 149q0 66 39 110q8 9 18 16zM654 -472q-13 -1 -27 -1q-38 -4 -62 -30q-29 -31 -29 -83q0 -60 31 -87q31 -29 100 -29h73v118q0 106 -86 112z" />
    <glyph glyph-name="uni06BD.init" unicode="&#x6bd;" horiz-adv-x="636" 
d="M0 104h309v859h131v-963h-440v104zM256 1473q0 36 25 62q26 26 61 26q88 0 88 -88q0 -37 -26 -63q-25 -26 -62 -26q-86 0 -86 89zM418 1199q-27 27 -27 65q0 36 27 62q26 26 63 26q88 0 88 -88q0 -37 -25 -64q-26 -26 -63 -26t-63 25zM142 1199q-25 26 -25 65q0 36 25 62
q26 26 63 26t63 -25q27 -26 27 -63t-27 -64q-26 -26 -63 -26t-63 25z" />
    <glyph glyph-name="uni06BD.medi" unicode="&#x6bd;" horiz-adv-x="653" 
d="M0 104h309v859h131v-859h244v-104h-684v104zM142 1199q-25 26 -25 65q0 36 25 62q26 26 63 26t63 -25q27 -26 27 -63t-27 -64q-26 -26 -63 -26t-63 25zM418 1199q-27 27 -27 65q0 36 27 62q26 26 63 26q88 0 88 -88q0 -37 -25 -64q-26 -26 -63 -26t-63 25zM256 1473
q0 36 25 62q26 26 61 26q88 0 88 -88q0 -37 -26 -63q-25 -26 -62 -26q-86 0 -86 89z" />
    <glyph glyph-name="uni06BD.fina" unicode="&#x6bd;" horiz-adv-x="1347" 
d="M1132 104h246v-104h-250q-33 -473 -510 -473q-211 0 -337 122q-150 145 -150 441q0 210 51 406l135 26q-55 -209 -55 -420q0 -257 120 -376q95 -95 253 -95q366 0 366 437v895h131v-859zM533 1102q0 36 25 62q26 26 61 26q88 0 88 -88q0 -37 -26 -63q-25 -26 -62 -26
q-86 0 -86 89zM695 828q-27 27 -27 65q0 36 27 62q26 26 63 26q88 0 88 -88q0 -37 -25 -64q-26 -26 -63 -26t-63 25zM419 828q-25 26 -25 65q0 36 25 62q26 26 63 26t63 -25q27 -26 27 -63t-27 -64q-26 -26 -63 -26t-63 25z" />
    <glyph glyph-name="uni06BF.init" unicode="&#x6bf;" horiz-adv-x="1183" 
d="M0 104h883q18 133 18 250q0 268 -105 385q-112 125 -378 125q-112 0 -221 -14v102q118 17 231 17q324 0 468 -153q134 -143 134 -445q0 -174 -33 -371h-997v104zM546 -501q-25 -25 -61 -25q-88 0 -88 86q0 37 26 62q26 26 62 26t61 -26t25 -62t-25 -61zM684 -296
q-26 -26 -61 -26q-88 0 -88 89q0 35 25 61q26 27 63 27q35 0 61 -26q27 -26 27 -62q0 -37 -27 -63zM409 -296q-25 -26 -61 -26q-88 0 -88 89q0 35 26 61q26 27 62 27t61 -26t25 -62q0 -37 -25 -63zM423 1242q-26 27 -26 65q0 36 26 63q27 27 64 27t63 -26q27 -26 27 -64
q0 -37 -27 -64q-26 -26 -63 -26q-38 0 -64 25z" />
    <glyph glyph-name="uni06BF.medi" unicode="&#x6bf;" horiz-adv-x="1193" 
d="M0 104h883q18 133 18 250q0 268 -105 385q-112 125 -378 125q-112 0 -221 -14v102q118 17 231 17q324 0 468 -153q134 -143 134 -445q0 -135 -18 -267h213v-104h-1225v104zM684 -296q-26 -26 -61 -26q-88 0 -88 89q0 35 25 61q26 27 63 27q35 0 61 -26q27 -26 27 -62
q0 -37 -27 -63zM409 -296q-25 -26 -61 -26q-88 0 -88 89q0 35 26 61q26 27 62 27t61 -26t25 -62q0 -37 -25 -63zM546 -501q-25 -25 -61 -25q-88 0 -88 86q0 37 26 62q26 26 62 26t61 -26t25 -62t-25 -61zM423 1242q-26 27 -26 65q0 36 26 63q27 27 64 27t63 -26
q27 -26 27 -64q0 -37 -27 -64q-26 -26 -63 -26q-38 0 -64 25z" />
    <glyph glyph-name="uni06BF.fina" unicode="&#x6bf;" horiz-adv-x="1222" 
d="M651 0q-473 0 -473 -276q0 -220 295 -265l-25 -106q-184 24 -291 119q-108 96 -108 235q0 397 612 397h250q17 118 17 250q0 268 -104 385q-111 125 -378 125q-115 0 -221 -14v102q119 17 232 17q323 0 467 -153q135 -143 135 -445q0 -135 -19 -267h213v-104h-602z
M934 -296q-26 -26 -62 -26q-88 0 -88 89q0 35 26 61q26 27 62 27t62 -26t26 -62q0 -37 -26 -63zM659 -296q-26 -26 -61 -26q-88 0 -88 89q0 35 25 61q26 27 63 27q35 0 61 -26q25 -26 25 -62q0 -37 -25 -63zM796 -501q-26 -25 -61 -25q-88 0 -88 86q0 37 26 62q25 26 62 26
q36 0 61 -26t25 -62t-25 -61zM530 1242q-26 27 -26 65q0 36 26 63q27 27 64 27t63 -26q27 -26 27 -64q0 -37 -27 -64q-26 -26 -63 -26q-38 0 -64 25z" />
    <glyph glyph-name="uni06C2.fina" unicode="&#x6c2;" horiz-adv-x="1130" 
d="M1160 0h-51q-416 0 -416 449v124q-304 -43 -483 -335l-92 73q258 385 668 385q18 0 37 -2v-223q0 -194 71 -281q71 -86 225 -86h41v-104zM338 992q97 0 162 -11q-70 28 -70 111q0 76 54 127q64 59 184 59q41 0 102 -8l-14 -88q-49 8 -98 8q-123 0 -123 -94
q0 -104 170 -104h106v-88h-473v88z" />
    <glyph glyph-name="uni06C3.fina" unicode="&#x6c3;" horiz-adv-x="1130" 
d="M1160 0h-51q-416 0 -416 449v124q-304 -43 -483 -335l-92 73q258 385 668 385q18 0 37 -2v-223q0 -194 71 -281q71 -86 225 -86h41v-104zM663 929q-26 26 -26 65q0 36 26 62q25 26 62 26t63 -25q27 -26 27 -63t-27 -64q-26 -26 -63 -26t-62 25zM386 929q-26 26 -26 65
q0 36 26 62t63 26q90 0 90 -88q0 -38 -26 -64t-64 -26t-63 25z" />
    <glyph glyph-name="uni06C4.fina" unicode="&#x6c4;" horiz-adv-x="1234" 
d="M892 825q-115 54 -287 54q-160 0 -254 -104t-94 -279q0 -202 98 -296q100 -96 322 -96h215v721zM713 -374q1 1 3 2v116q0 112 -96 112q-50 0 -79 -31t-29 -83q0 -60 31 -87q31 -29 100 -29h70zM756 -351q136 87 136 288v63h-238q-532 0 -532 481q0 214 125 352
q137 150 375 150q213 0 399 -72v-807h244v-104h-244v-63q0 -186 -121 -308q-149 -149 -444 -149q-160 0 -326 35l10 114q183 -45 334 -45q53 0 99 6q-103 25 -103 142q0 66 39 110q43 46 116 46q131 0 131 -140v-99z" />
    <glyph glyph-name="uni06CA.fina" unicode="&#x6ca;" horiz-adv-x="1234" 
d="M130 -485l10 114q183 -45 334 -45q418 0 418 353v63h-238q-532 0 -532 481q0 214 125 352q137 150 375 150q213 0 399 -72v-807h244v-104h-244v-63q0 -186 -121 -308q-149 -149 -444 -149q-160 0 -326 35zM892 825q-115 54 -287 54q-160 0 -254 -104t-94 -279
q0 -202 98 -296q100 -96 322 -96h215v721zM690 1199q-26 27 -26 65q0 36 26 62q27 26 64 26q88 0 88 -88q0 -37 -26 -64q-26 -26 -62 -26q-38 0 -64 25zM415 1199q-26 26 -26 65q0 36 26 62q25 26 62 26q38 0 64 -25q26 -26 26 -63t-26 -64q-27 -26 -64 -26t-62 25z" />
    <glyph glyph-name="uni06CD.fina" unicode="&#x6cd;" horiz-adv-x="2235" 
d="M547 969q-84 -168 -84 -363q0 -260 119 -374q133 -128 463 -128h200v840q170 39 344 39q240 0 349 -117q100 -107 100 -327v-435h227v-104h-356v516q0 194 -80 279q-79 84 -256 84q-96 0 -199 -21v-858h-350q-361 0 -528 145q-162 141 -162 443q0 120 25 222
q-58 -14 -123 -14q-42 0 -89 5v108q17 -2 36 -2q79 0 216 35l4 1l5 1l82 15z" />
    <glyph glyph-name="uni06CE.init" unicode="&#x6ce;" horiz-adv-x="757" 
d="M0 104h430v859h129v-963h-559v104zM512 -369q-27 -26 -63 -26q-38 0 -63 26q-26 26 -26 64q0 37 26 63q26 27 63 27t63 -26q27 -26 27 -64q0 -37 -27 -64zM236 -369q-26 -26 -64 -26q-37 0 -62 26q-26 26 -26 64q0 37 26 63q25 27 62 27q90 0 90 -90q0 -37 -26 -64z
M487 1173l-224 258l56 67l170 -180l170 180l54 -63z" />
    <glyph glyph-name="uni06CE.medi" unicode="&#x6ce;" horiz-adv-x="774" 
d="M0 104h430v859h129v-859h246v-104h-805v104zM236 -369q-26 -26 -64 -26q-37 0 -62 26q-26 26 -26 64q0 37 26 63q25 27 62 27q90 0 90 -90q0 -37 -26 -64zM512 -369q-27 -26 -63 -26q-38 0 -63 26q-26 26 -26 64q0 37 26 63q26 27 63 27t63 -26q27 -26 27 -64
q0 -37 -27 -64zM487 1173l-224 258l56 67l170 -180l170 180l54 -63z" />
    <glyph glyph-name="uni06CE.fina" unicode="&#x6ce;" horiz-adv-x="2048" 
d="M837 0q-361 0 -528 145q-162 141 -162 443q0 205 74 356l139 25q-84 -168 -84 -363q0 -260 119 -374q133 -128 463 -128h200v840q170 39 344 39q240 0 349 -117q100 -107 100 -327v-435h227v-104h-356v516q0 194 -80 279q-79 84 -256 84q-96 0 -199 -21v-858h-350z
M617 1093l-224 258l56 67l170 -180l170 180l54 -63z" />
    <glyph glyph-name="uni06CF.fina" unicode="&#x6cf;" horiz-adv-x="1234" 
d="M130 -485l10 114q183 -45 334 -45q418 0 418 353v63h-238q-532 0 -532 481q0 214 125 352q137 150 375 150q213 0 399 -72v-807h244v-104h-244v-63q0 -186 -121 -308q-149 -149 -444 -149q-160 0 -326 35zM892 825q-115 54 -287 54q-160 0 -254 -104t-94 -279
q0 -202 98 -296q100 -96 322 -96h215v721zM528 1262q0 36 26 62q25 26 60 26q88 0 88 -88q0 -37 -25 -63q-26 -25 -63 -25q-86 0 -86 88z" />
    <glyph glyph-name="uni06D1.init" unicode="&#x6d1;" horiz-adv-x="757" 
d="M0 104h430v859h129v-963h-559v104zM397 -501q-25 -25 -61 -25q-88 0 -88 86q0 37 26 62q25 26 62 26q36 0 61 -26t25 -62t-25 -61zM535 -296q-26 -26 -61 -26q-88 0 -88 89q0 35 25 61q26 27 63 27q35 0 61 -26q27 -26 27 -62q0 -37 -27 -63zM260 -296q-25 -26 -61 -26
q-88 0 -88 89q0 35 26 61q26 27 62 27t61 -26t25 -62q0 -37 -25 -63z" />
    <glyph glyph-name="uni06D1.medi" unicode="&#x6d1;" horiz-adv-x="774" 
d="M0 104h430v859h129v-859h246v-104h-805v104zM535 -296q-26 -26 -61 -26q-88 0 -88 89q0 35 25 61q26 27 63 27q35 0 61 -26q27 -26 27 -62q0 -37 -27 -63zM260 -296q-25 -26 -61 -26q-88 0 -88 89q0 35 26 61q26 27 62 27t61 -26t25 -62q0 -37 -25 -63zM397 -501
q-25 -25 -61 -25q-88 0 -88 86q0 37 26 62q25 26 62 26q36 0 61 -26t25 -62t-25 -61z" />
    <glyph glyph-name="uni06D1.fina" unicode="&#x6d1;" horiz-adv-x="2048" 
d="M837 0q-361 0 -528 145q-162 141 -162 443q0 205 74 356l139 25q-84 -168 -84 -363q0 -260 119 -374q133 -128 463 -128h200v840q170 39 344 39q240 0 349 -117q100 -107 100 -327v-435h227v-104h-356v516q0 194 -80 279q-79 84 -256 84q-96 0 -199 -21v-858h-350z
M827 -501q-25 -25 -61 -25q-88 0 -88 86q0 37 26 62q25 26 62 26q36 0 61 -26t25 -62t-25 -61zM965 -296q-26 -26 -61 -26q-88 0 -88 89q0 35 25 61q26 27 63 27q35 0 61 -26q27 -26 27 -62q0 -37 -27 -63zM690 -296q-25 -26 -61 -26q-88 0 -88 89q0 35 26 61q26 27 62 27
t61 -26t25 -62q0 -37 -25 -63z" />
    <glyph glyph-name="uni06D5.fina" unicode="&#x6d5;" 
d="M632 0q-532 0 -532 481q0 214 125 352q137 150 375 150q213 0 399 -72v-807h244v-104h-611zM870 825q-115 54 -287 54q-160 0 -254 -104t-94 -279q0 -202 98 -296q100 -96 322 -96h215v721z" />
    <glyph glyph-name="uni06EE.fina" unicode="&#x6ee;" horiz-adv-x="1087" 
d="M114 104h692q-1 323 -124 502q-125 181 -416 279l36 110q332 -110 478 -312q151 -208 155 -579h180v-104h-1001v104zM630 1236l-54 -63l-170 180l-170 -180l-56 67l224 258z" />
    <glyph glyph-name="uni06EF.fina" unicode="&#x6ef;" horiz-adv-x="898" 
d="M-10 -494l20 111q116 -43 234 -43q311 0 311 397v992h129v-859h246v-104h-246v-10q0 -520 -452 -520q-131 0 -242 36zM836 1236l-54 -63l-170 180l-170 -180l-56 67l224 258z" />
    <glyph glyph-name="uni06FA.init" unicode="&#x6fa;" horiz-adv-x="1751" 
d="M0 104h80q120 0 173 65q56 70 56 234v437h131v-371q0 -211 23 -275q37 -104 170 -104q116 0 174 74q70 90 70 303v455h129v-533q0 -181 76 -237q65 -48 261 -48h76q19 139 19 314q0 326 -74 575l127 29q78 -267 78 -590q0 -218 -37 -432h-156q-218 0 -313 37
q-97 38 -139 143q-61 -194 -312 -194q-209 0 -256 188q-58 -174 -276 -174h-80v104zM846 1473q0 36 25 62t61 26q88 0 88 -88q0 -37 -26 -63q-25 -26 -62 -26q-86 0 -86 89zM1008 1199q-27 27 -27 65q0 36 27 62q26 26 63 26q88 0 88 -88q0 -37 -25 -64q-26 -26 -63 -26
t-63 25zM732 1199q-25 26 -25 65q0 36 25 62q26 26 63 26t63 -25q27 -26 27 -63t-27 -64q-27 -26 -63 -26q-37 0 -63 25zM872 -371q-26 26 -26 64q0 37 26 63q27 27 64 27t63 -26q27 -26 27 -64q0 -37 -27 -64q-26 -26 -63 -26t-64 26z" />
    <glyph glyph-name="uni06FA.medi" unicode="&#x6fa;" horiz-adv-x="1767" 
d="M1376 0q-218 0 -313 37q-97 38 -139 143q-61 -194 -312 -194q-209 0 -256 188q-58 -174 -276 -174h-80v104h80q120 0 173 65q56 70 56 234v437h131v-371q0 -211 23 -275q37 -104 170 -104q116 0 174 74q70 90 70 303v455h129v-533q0 -181 76 -237q65 -48 261 -48h76
q19 139 19 314q0 326 -74 575l127 29q78 -267 78 -590q0 -157 -23 -328h252v-104h-422zM732 1199q-25 26 -25 65q0 36 25 62q26 26 63 26t63 -25q27 -26 27 -63t-27 -64q-27 -26 -63 -26q-37 0 -63 25zM1008 1199q-27 27 -27 65q0 36 27 62q26 26 63 26q88 0 88 -88
q0 -37 -25 -64q-26 -26 -63 -26t-63 25zM846 1473q0 36 25 62t61 26q88 0 88 -88q0 -37 -26 -63q-25 -26 -62 -26q-86 0 -86 89zM872 -371q-26 26 -26 64q0 37 26 63q27 27 64 27t63 -26q27 -26 27 -64q0 -37 -27 -64q-26 -26 -63 -26t-64 26z" />
    <glyph glyph-name="uni06FA.fina" unicode="&#x6fa;" horiz-adv-x="2422" 
d="M2031 0q-216 0 -312 37q-99 39 -140 143q-29 -100 -117 -152q-70 -42 -149 -42q-156 0 -222 110v-19q0 -550 -471 -550q-211 0 -336 122q-149 145 -149 441q0 210 51 406l135 26q-55 -209 -55 -420q0 -471 373 -471q325 0 325 437v772h132v-371q0 -194 45 -282
q50 -97 165 -97q226 0 226 377v455h129v-533q0 -180 76 -237q65 -48 264 -48h73q21 154 21 314q0 319 -76 575l127 29q78 -267 78 -590q0 -147 -21 -328h250v-104h-422zM1373 1199q-26 26 -26 65q0 36 26 62t62 26q38 0 64 -25q27 -26 27 -63t-27 -64q-27 -26 -64 -26
t-62 25zM1648 1199q-26 27 -26 65q0 36 26 62q27 26 64 26q88 0 88 -88q0 -37 -26 -64q-25 -26 -62 -26t-64 25zM1487 1473q0 36 25 62t61 26q88 0 88 -88q0 -37 -26 -63q-25 -26 -62 -26q-86 0 -86 89zM1507 -371q-26 26 -26 64q0 37 26 63q27 27 64 27t63 -26
q27 -26 27 -64q0 -37 -27 -64q-26 -26 -63 -26t-64 26z" />
    <glyph glyph-name="uni06FB.init" unicode="&#x6fb;" horiz-adv-x="1503" 
d="M0 104h307v859h131v-101q0 -233 -20 -411h2q71 254 238 397q158 135 354 135q186 0 289 -121q104 -122 104 -344q0 -229 -127 -363q-148 -155 -451 -155h-827v104zM844 104q426 0 426 400q0 375 -279 375q-228 0 -389 -252q-144 -226 -166 -523h408zM922 1242
q-27 27 -27 65q0 36 27 63q26 27 63 27t64 -26q26 -26 26 -64q0 -37 -26 -64q-27 -26 -64 -26t-63 25zM921 -371q-26 26 -26 64q0 37 26 63q27 27 64 27t63 -26q27 -26 27 -64q0 -37 -27 -64q-26 -26 -63 -26t-64 26z" />
    <glyph glyph-name="uni06FB.medi" unicode="&#x6fb;" horiz-adv-x="1511" 
d="M0 104h307v859h131v-101q0 -233 -20 -411h2q71 254 238 397q158 135 354 135q186 0 289 -121q104 -122 104 -344q0 -280 -184 -414h323v-104h-1544v104zM868 104q402 11 402 400q0 375 -279 375q-228 0 -389 -252q-144 -226 -166 -523h432zM922 1242q-27 27 -27 65
q0 36 27 63q26 27 63 27t64 -26q26 -26 26 -64q0 -37 -26 -64q-27 -26 -64 -26t-63 25zM921 -371q-26 26 -26 64q0 37 26 63q27 27 64 27t63 -26q27 -26 27 -64q0 -37 -27 -64q-26 -26 -63 -26t-64 26z" />
    <glyph glyph-name="uni06FB.fina" unicode="&#x6fb;" horiz-adv-x="2170" 
d="M284 -351q-149 145 -149 441q0 210 51 406l135 26q-55 -209 -55 -420q0 -471 373 -471q325 0 325 437v895h132v-101q0 -233 -21 -411h2q72 254 238 397q158 135 354 135q186 0 289 -121q104 -122 104 -344q0 -280 -184 -414h328v-104h-1115q-14 -233 -148 -358
q-124 -115 -323 -115q-211 0 -336 122zM1501 104q426 0 426 400q0 375 -279 375q-227 0 -388 -252q-145 -226 -167 -523h408zM1581 1242q-27 27 -27 65q0 36 27 63t63 27q38 0 64 -26t26 -64q0 -37 -26 -64q-27 -26 -64 -26t-63 25zM1580 -371q-26 26 -26 64q0 37 26 63
q27 27 64 27t63 -26q27 -26 27 -64q0 -37 -27 -64q-26 -26 -63 -26t-64 26z" />
    <glyph glyph-name="uni06FC.init" unicode="&#x6fc;" horiz-adv-x="1208" 
d="M0 104h455q-115 46 -187 149q-78 112 -78 257q0 202 121 332q132 141 365 141q147 0 274 -51l-24 -107q-125 56 -264 56q-154 0 -246 -94q-94 -97 -94 -265q0 -187 140 -296q156 -122 460 -122h174v-104h-1096v104zM575 1242q-26 27 -26 65q0 36 26 63q27 27 64 27
t63 -26q27 -26 27 -64q0 -37 -27 -64q-26 -26 -63 -26t-64 25zM575 -371q-26 26 -26 64q0 37 26 63q27 27 64 27t63 -26q27 -26 27 -64q0 -37 -27 -64q-26 -26 -63 -26t-64 26z" />
    <glyph glyph-name="uni06FC.medi" unicode="&#x6fc;" horiz-adv-x="1277" 
d="M0 104h66q351 0 610 142q-342 328 -529 393l11 88q333 260 594 260q183 0 280 -94q86 -83 86 -213q0 -239 -264 -440q166 -136 336 -136h119v-104h-142q-207 0 -411 172q-296 -172 -707 -172h-49v104zM774 309q215 158 215 353q0 97 -59 156q-66 67 -193 67
q-189 0 -456 -193q146 -56 493 -383zM645 1244q-27 27 -27 65q0 37 27 63q27 27 64 27t63 -26q27 -26 27 -64q0 -37 -27 -64q-27 -26 -63 -26q-38 0 -64 25zM645 -371q-26 26 -26 64q0 37 26 63q27 27 64 27t63 -26q27 -26 27 -64q0 -37 -27 -64q-26 -26 -63 -26t-64 26z
" />
    <glyph glyph-name="uni06FC.fina" unicode="&#x6fc;" horiz-adv-x="1277" 
d="M218 -429q-126 91 -126 245q0 159 173 285q71 51 359 194q-277 274 -477 344l11 88q333 260 593 260q183 0 281 -94q86 -83 86 -213q0 -228 -309 -404q193 -172 381 -172h119v-104h-142q-225 0 -465 221q-282 -143 -327 -174q-152 -103 -152 -223q0 -250 428 -250
q156 0 332 29l8 -101q-184 -32 -356 -32q-275 0 -417 101zM731 350q258 142 258 312q0 97 -59 156q-66 67 -193 67q-189 0 -457 -193q153 -57 451 -342zM645 1244q-27 27 -27 65q0 37 27 63q27 27 63 27q38 0 64 -26q27 -26 27 -64q0 -37 -27 -64q-27 -26 -64 -26t-63 25z
M621 -201q-26 26 -26 64q0 37 26 63q27 27 64 27t63 -26q27 -26 27 -64q0 -37 -27 -64q-26 -26 -63 -26t-64 26z" />
    <glyph glyph-name="uni06FF.init" unicode="&#x6ff;" horiz-adv-x="1565" 
d="M0 0v104l331 -1l23 -1q-22 11 -51 54q-49 69 -49 159q0 157 103 248q100 88 266 88q352 0 352 -442v-105h293v54q0 417 -158 602q-151 176 -481 176q-212 0 -434 -70l-15 101q233 71 469 71q372 0 554 -199q194 -212 194 -667v-172h-1397zM850 197q0 356 -238 356
q-110 0 -171 -59q-60 -58 -60 -158q0 -117 76 -178q67 -54 178 -54h215v93zM840 1236l-54 -63l-170 180l-170 -180l-56 67l224 258z" />
    <glyph glyph-name="uni06FF.medi" unicode="&#x6ff;" horiz-adv-x="1353" 
d="M1384 0h-301q-84 0 -141 4v-2q225 -70 225 -295q0 -173 -105 -269q-103 -93 -286 -93q-247 0 -382 174q-130 169 -142 481h-252v104h252q13 581 434 887q442 -258 442 -555q0 -260 -186 -332v-4q55 4 150 4h292v-104zM383 104h270q344 0 344 316q0 221 -303 416
q-308 -255 -311 -732zM385 0q28 -551 406 -551q245 0 245 248q0 130 -109 215q-113 88 -296 88h-246zM910 1196l-54 -63l-170 180l-170 -180l-56 67l224 258z" />
    <glyph glyph-name="uni06FF.fina" unicode="&#x6ff;" horiz-adv-x="1332" 
d="M40 104h191q13 581 434 887q442 -258 442 -555q0 -260 -186 -332v-4q55 4 150 4h292v-104h-301q-84 0 -141 4v-2q225 -70 225 -295q0 -173 -105 -269q-103 -93 -286 -93q-247 0 -382 174q-130 169 -142 481h-191v104zM362 104h270q344 0 344 316q0 221 -303 416
q-308 -255 -311 -732zM364 0q28 -551 406 -551q245 0 245 248q0 130 -109 215q-113 88 -296 88h-246zM890 1196l-54 -63l-170 180l-170 -180l-56 67l224 258z" />
    <glyph glyph-name="uniFB50" unicode="&#x671;" horiz-adv-x="548" arabic-form="isolated" 
d="M441 1663v29q0 168 -94 168q-137 0 -187 -197h281zM-59 1663h119q76 279 297 279q92 0 135 -49q51 -57 51 -197v-115h-602v82zM209 1382h131v-1382h-131v1382z" />
    <glyph glyph-name="uniFB51" unicode="&#x671;" horiz-adv-x="548" arabic-form="final" 
d="M209 1382h131v-1278h240v-104h-371v1382zM-59 1663h119q76 279 297 279q92 0 135 -49q51 -57 51 -197v-115h-602v82zM441 1663v29q0 168 -94 168q-137 0 -187 -197h281z" />
    <glyph glyph-name="uniFB52" unicode="&#x67b;" horiz-adv-x="1583" arabic-form="isolated" 
d="M837 0q-361 0 -528 145q-162 141 -162 443q0 205 74 356l139 25q-84 -168 -84 -363q0 -260 119 -374q133 -128 463 -128h397v859h129v-963h-547zM910 -177q25 -26 25 -61q0 -88 -88 -88q-35 0 -61 25q-27 26 -27 63q0 35 26 61q26 27 62 27q37 0 63 -27zM910 -452
q25 -25 25 -61q0 -88 -88 -88q-35 0 -61 26q-27 26 -27 62t26 61t62 25q37 0 63 -25z" />
    <glyph glyph-name="uniFB53" unicode="&#x67b;" horiz-adv-x="1599" arabic-form="final" 
d="M837 0q-361 0 -528 145q-162 141 -162 443q0 205 74 356l139 25q-84 -168 -84 -363q0 -260 119 -374q133 -128 463 -128h397v859h129v-859h246v-104h-793zM910 -177q25 -26 25 -61q0 -88 -88 -88q-35 0 -61 25q-27 26 -27 63q0 35 26 61q26 27 62 27q37 0 63 -27z
M910 -452q25 -25 25 -61q0 -88 -88 -88q-35 0 -61 26q-27 26 -27 62t26 61t62 25q37 0 63 -25z" />
    <glyph glyph-name="uniFB54" unicode="&#x67b;" horiz-adv-x="757" arabic-form="initial" 
d="M0 104h430v859h129v-963h-559v104zM400 -177q25 -26 25 -61q0 -88 -88 -88q-35 0 -61 25q-27 26 -27 63q0 35 26 61q26 27 62 27q37 0 63 -27zM400 -452q25 -25 25 -61q0 -88 -88 -88q-35 0 -61 26q-27 26 -27 62t26 61t62 25q37 0 63 -25z" />
    <glyph glyph-name="uniFB55" unicode="&#x67b;" horiz-adv-x="774" arabic-form="medial" 
d="M0 104h430v859h129v-859h246v-104h-805v104zM400 -177q25 -26 25 -61q0 -88 -88 -88q-35 0 -61 25q-27 26 -27 63q0 35 26 61q26 27 62 27q37 0 63 -27zM400 -452q25 -25 25 -61q0 -88 -88 -88q-35 0 -61 26q-27 26 -27 62t26 61t62 25q37 0 63 -25z" />
    <glyph glyph-name="uniFB56" unicode="&#x67e;" horiz-adv-x="1583" arabic-form="isolated" 
d="M837 0q-361 0 -528 145q-162 141 -162 443q0 205 74 356l139 25q-84 -168 -84 -363q0 -260 119 -374q133 -128 463 -128h397v859h129v-963h-547zM910 -501q-25 -25 -61 -25q-88 0 -88 86q0 37 26 62q26 26 62 26t61 -26t25 -62t-25 -61zM1048 -296q-26 -26 -61 -26
q-88 0 -88 89q0 35 25 61q26 27 63 27q35 0 61 -26q27 -26 27 -62q0 -37 -27 -63zM773 -296q-25 -26 -61 -26q-88 0 -88 89q0 35 26 61q26 27 62 27t61 -26t25 -62q0 -37 -25 -63z" />
    <glyph glyph-name="uniFB57" unicode="&#x67e;" horiz-adv-x="1599" arabic-form="final" 
d="M837 0q-361 0 -528 145q-162 141 -162 443q0 205 74 356l139 25q-84 -168 -84 -363q0 -260 119 -374q133 -128 463 -128h397v859h129v-859h246v-104h-793zM1048 -296q-26 -26 -61 -26q-88 0 -88 89q0 35 25 61q26 27 63 27q35 0 61 -26q27 -26 27 -62q0 -37 -27 -63z
M773 -296q-25 -26 -61 -26q-88 0 -88 89q0 35 26 61q26 27 62 27t61 -26t25 -62q0 -37 -25 -63zM910 -501q-25 -25 -61 -25q-88 0 -88 86q0 37 26 62q26 26 62 26t61 -26t25 -62t-25 -61z" />
    <glyph glyph-name="uniFB58" unicode="&#x67e;" horiz-adv-x="757" arabic-form="initial" 
d="M0 104h430v859h129v-963h-559v104zM397 -501q-25 -25 -61 -25q-88 0 -88 86q0 37 26 62q25 26 62 26q36 0 61 -26t25 -62t-25 -61zM535 -296q-26 -26 -61 -26q-88 0 -88 89q0 35 25 61q26 27 63 27q35 0 61 -26q27 -26 27 -62q0 -37 -27 -63zM260 -296q-25 -26 -61 -26
q-88 0 -88 89q0 35 26 61q26 27 62 27t61 -26t25 -62q0 -37 -25 -63z" />
    <glyph glyph-name="uniFB59" unicode="&#x67e;" horiz-adv-x="774" arabic-form="medial" 
d="M0 104h430v859h129v-859h246v-104h-805v104zM535 -296q-26 -26 -61 -26q-88 0 -88 89q0 35 25 61q26 27 63 27q35 0 61 -26q27 -26 27 -62q0 -37 -27 -63zM260 -296q-25 -26 -61 -26q-88 0 -88 89q0 35 26 61q26 27 62 27t61 -26t25 -62q0 -37 -25 -63zM397 -501
q-25 -25 -61 -25q-88 0 -88 86q0 37 26 62q25 26 62 26q36 0 61 -26t25 -62t-25 -61z" />
    <glyph glyph-name="uniFB5A" unicode="&#x680;" horiz-adv-x="1583" arabic-form="isolated" 
d="M837 0q-361 0 -528 145q-162 141 -162 443q0 205 74 356l139 25q-84 -168 -84 -363q0 -260 119 -374q133 -128 463 -128h397v859h129v-963h-547zM771 -172q26 -26 26 -61q0 -88 -89 -88q-35 0 -61 25q-27 26 -27 63q0 35 26 61q26 27 62 27q37 0 63 -27zM771 -437
q26 -25 26 -61q0 -88 -89 -88q-35 0 -61 26q-27 26 -27 62t26 61t62 25q37 0 63 -25zM1047 -172q26 -26 26 -61q0 -88 -89 -88q-35 0 -61 25q-27 26 -27 63q0 35 26 61q26 27 62 27q37 0 63 -27zM1047 -437q26 -25 26 -61q0 -88 -89 -88q-35 0 -61 26q-27 26 -27 62t26 61
t62 25q37 0 63 -25z" />
    <glyph glyph-name="uniFB5B" unicode="&#x680;" horiz-adv-x="1599" arabic-form="final" 
d="M837 0q-361 0 -528 145q-162 141 -162 443q0 205 74 356l139 25q-84 -168 -84 -363q0 -260 119 -374q133 -128 463 -128h397v859h129v-859h246v-104h-793zM771 -172q26 -26 26 -61q0 -88 -89 -88q-35 0 -61 25q-27 26 -27 63q0 35 26 61q26 27 62 27q37 0 63 -27z
M771 -437q26 -25 26 -61q0 -88 -89 -88q-35 0 -61 26q-27 26 -27 62t26 61t62 25q37 0 63 -25zM1047 -172q26 -26 26 -61q0 -88 -89 -88q-35 0 -61 25q-27 26 -27 63q0 35 26 61q26 27 62 27q37 0 63 -27zM1047 -437q26 -25 26 -61q0 -88 -89 -88q-35 0 -61 26
q-27 26 -27 62t26 61t62 25q37 0 63 -25z" />
    <glyph glyph-name="uniFB5C" unicode="&#x680;" horiz-adv-x="757" arabic-form="initial" 
d="M0 104h430v859h129v-963h-559v104zM241 -172q26 -26 26 -61q0 -88 -89 -88q-35 0 -61 25q-27 26 -27 63q0 35 26 61q26 27 62 27q37 0 63 -27zM241 -437q26 -25 26 -61q0 -88 -89 -88q-35 0 -61 26q-27 26 -27 62t26 61t62 25q37 0 63 -25zM517 -172q26 -26 26 -61
q0 -88 -89 -88q-35 0 -61 25q-27 26 -27 63q0 35 26 61q26 27 62 27q37 0 63 -27zM517 -437q26 -25 26 -61q0 -88 -89 -88q-35 0 -61 26q-27 26 -27 62t26 61t62 25q37 0 63 -25z" />
    <glyph glyph-name="uniFB5D" unicode="&#x680;" horiz-adv-x="774" arabic-form="medial" 
d="M0 104h430v859h129v-859h246v-104h-805v104zM251 -172q26 -26 26 -61q0 -88 -89 -88q-35 0 -61 25q-27 26 -27 63q0 35 26 61q26 27 62 27q37 0 63 -27zM251 -437q26 -25 26 -61q0 -88 -89 -88q-35 0 -61 26q-27 26 -27 62t26 61t62 25q37 0 63 -25zM527 -172
q26 -26 26 -61q0 -88 -89 -88q-35 0 -61 25q-27 26 -27 63q0 35 26 61q26 27 62 27q37 0 63 -27zM527 -437q26 -25 26 -61q0 -88 -89 -88q-35 0 -61 26q-27 26 -27 62t26 61t62 25q37 0 63 -25z" />
    <glyph glyph-name="uniFB5E" unicode="&#x67a;" horiz-adv-x="1583" arabic-form="isolated" 
d="M837 0q-361 0 -528 145q-162 141 -162 443q0 205 74 356l139 25q-84 -168 -84 -363q0 -260 119 -374q133 -128 463 -128h397v859h129v-963h-547zM733 1530q0 37 26 63q27 25 64 25q88 0 88 -88q0 -37 -26 -63q-26 -27 -62 -27q-38 0 -65 27q-25 26 -25 63zM733 1254
q0 36 26 63q27 27 64 27t63 -27q25 -26 25 -63t-26 -63q-26 -25 -62 -25q-39 0 -65 25q-25 26 -25 63z" />
    <glyph glyph-name="uniFB5F" unicode="&#x67a;" horiz-adv-x="1599" arabic-form="final" 
d="M837 0q-361 0 -528 145q-162 141 -162 443q0 205 74 356l139 25q-84 -168 -84 -363q0 -260 119 -374q133 -128 463 -128h397v859h129v-859h246v-104h-793zM733 1530q0 37 26 63q27 25 64 25q88 0 88 -88q0 -37 -26 -63q-26 -27 -62 -27q-38 0 -65 27q-25 26 -25 63z
M733 1254q0 36 26 63q27 27 64 27t63 -27q25 -26 25 -63t-26 -63q-26 -25 -62 -25q-39 0 -65 25q-25 26 -25 63z" />
    <glyph glyph-name="uniFB60" unicode="&#x67a;" horiz-adv-x="636" arabic-form="initial" 
d="M0 104h309v859h131v-963h-440v104zM293 1530q0 37 26 63q27 25 64 25q88 0 88 -88q0 -37 -26 -63q-26 -27 -62 -27q-38 0 -65 27q-25 26 -25 63zM293 1254q0 36 26 63q27 27 64 27t63 -27q25 -26 25 -63t-26 -63q-26 -25 -62 -25q-39 0 -65 25q-25 26 -25 63z" />
    <glyph glyph-name="uniFB61" unicode="&#x67a;" horiz-adv-x="653" arabic-form="medial" 
d="M0 104h309v859h131v-859h244v-104h-684v104zM293 1530q0 37 26 63q27 25 64 25q88 0 88 -88q0 -37 -26 -63q-26 -27 -62 -27q-38 0 -65 27q-25 26 -25 63zM293 1254q0 36 26 63q27 27 64 27t63 -27q25 -26 25 -63t-26 -63q-26 -25 -62 -25q-39 0 -65 25q-25 26 -25 63z
" />
    <glyph glyph-name="uniFB62" unicode="&#x67f;" horiz-adv-x="1583" arabic-form="isolated" 
d="M837 0q-361 0 -528 145q-162 141 -162 443q0 205 74 356l139 25q-84 -168 -84 -363q0 -260 119 -374q133 -128 463 -128h397v859h129v-963h-547zM745 1529q26 -26 26 -61q0 -88 -89 -88q-35 0 -61 25q-27 26 -27 63q0 35 26 61q26 27 62 27q37 0 63 -27zM745 1264
q26 -25 26 -61q0 -88 -89 -88q-35 0 -61 26q-27 26 -27 62t26 61t62 25q37 0 63 -25zM1021 1529q26 -26 26 -61q0 -88 -89 -88q-35 0 -61 25q-27 26 -27 63q0 35 26 61q26 27 62 27q37 0 63 -27zM1021 1264q26 -25 26 -61q0 -88 -89 -88q-35 0 -61 26q-27 26 -27 62t26 61
t62 25q37 0 63 -25z" />
    <glyph glyph-name="uniFB63" unicode="&#x67f;" horiz-adv-x="1599" arabic-form="final" 
d="M837 0q-361 0 -528 145q-162 141 -162 443q0 205 74 356l139 25q-84 -168 -84 -363q0 -260 119 -374q133 -128 463 -128h397v859h129v-859h246v-104h-793zM745 1529q26 -26 26 -61q0 -88 -89 -88q-35 0 -61 25q-27 26 -27 63q0 35 26 61q26 27 62 27q37 0 63 -27z
M745 1264q26 -25 26 -61q0 -88 -89 -88q-35 0 -61 26q-27 26 -27 62t26 61t62 25q37 0 63 -25zM1021 1529q26 -26 26 -61q0 -88 -89 -88q-35 0 -61 25q-27 26 -27 63q0 35 26 61q26 27 62 27q37 0 63 -27zM1021 1264q26 -25 26 -61q0 -88 -89 -88q-35 0 -61 26
q-27 26 -27 62t26 61t62 25q37 0 63 -25z" />
    <glyph glyph-name="uniFB64" unicode="&#x67f;" horiz-adv-x="636" arabic-form="initial" 
d="M0 104h309v859h131v-963h-440v104zM265 1529q26 -26 26 -61q0 -88 -89 -88q-35 0 -61 25q-27 26 -27 63q0 35 26 61q26 27 62 27q37 0 63 -27zM265 1264q26 -25 26 -61q0 -88 -89 -88q-35 0 -61 26q-27 26 -27 62t26 61t62 25q37 0 63 -25zM541 1529q26 -26 26 -61
q0 -88 -89 -88q-35 0 -61 25q-27 26 -27 63q0 35 26 61q26 27 62 27q37 0 63 -27zM541 1264q26 -25 26 -61q0 -88 -89 -88q-35 0 -61 26q-27 26 -27 62t26 61t62 25q37 0 63 -25z" />
    <glyph glyph-name="uniFB65" unicode="&#x67f;" horiz-adv-x="653" arabic-form="medial" 
d="M0 104h309v859h131v-859h244v-104h-684v104zM265 1529q26 -26 26 -61q0 -88 -89 -88q-35 0 -61 25q-27 26 -27 63q0 35 26 61q26 27 62 27q37 0 63 -27zM265 1264q26 -25 26 -61q0 -88 -89 -88q-35 0 -61 26q-27 26 -27 62t26 61t62 25q37 0 63 -25zM541 1529
q26 -26 26 -61q0 -88 -89 -88q-35 0 -61 25q-27 26 -27 63q0 35 26 61q26 27 62 27q37 0 63 -27zM541 1264q26 -25 26 -61q0 -88 -89 -88q-35 0 -61 26q-27 26 -27 62t26 61t62 25q37 0 63 -25z" />
    <glyph glyph-name="uniFB66" unicode="&#x679;" horiz-adv-x="1583" arabic-form="isolated" 
d="M921 1493q-84 0 -160 -89q-72 -86 -75 -175h155q176 0 176 147q0 117 -96 117zM688 1542q0 -58 -15 -133h2q93 168 260 168q187 0 187 -186q0 -244 -297 -244h-238v573h101v-178zM837 0q-361 0 -528 145q-162 141 -162 443q0 205 74 356l139 25q-84 -168 -84 -363
q0 -260 119 -374q133 -128 463 -128h397v859h129v-963h-547z" />
    <glyph glyph-name="uniFB67" unicode="&#x679;" horiz-adv-x="1599" arabic-form="final" 
d="M837 0q-361 0 -528 145q-162 141 -162 443q0 205 74 356l139 25q-84 -168 -84 -363q0 -260 119 -374q133 -128 463 -128h397v859h129v-859h246v-104h-793zM688 1542q0 -58 -15 -133h2q93 168 260 168q187 0 187 -186q0 -244 -297 -244h-238v573h101v-178zM921 1493
q-84 0 -160 -89q-72 -86 -75 -175h155q176 0 176 147q0 117 -96 117z" />
    <glyph glyph-name="uniFB68" unicode="&#x679;" horiz-adv-x="757" arabic-form="initial" 
d="M457 1554q-85 0 -160 -89q-73 -85 -76 -175h156q176 0 176 148q0 116 -96 116zM223 1604q0 -58 -14 -134h2q93 168 260 168q186 0 186 -186q0 -244 -297 -244h-237v574h100v-178zM0 104h430v859h129v-963h-559v104z" />
    <glyph glyph-name="uniFB69" unicode="&#x679;" horiz-adv-x="774" arabic-form="medial" 
d="M223 1604q0 -58 -14 -134h2q93 168 260 168q186 0 186 -186q0 -244 -297 -244h-237v574h100v-178zM0 104h430v859h129v-859h246v-104h-805v104zM457 1554q-85 0 -160 -89q-73 -85 -76 -175h156q176 0 176 148q0 116 -96 116z" />
    <glyph glyph-name="uniFB6A" unicode="&#x6a4;" horiz-adv-x="1880" arabic-form="isolated" 
d="M1629 148q-133 -148 -352 -148h-440q-361 0 -528 145q-162 141 -162 443q0 205 74 356l139 25q-84 -168 -84 -363q0 -259 118 -374q132 -128 458 -128h143q-160 103 -160 385q0 209 125 347q132 147 354 147q197 0 311 -106q132 -122 132 -371q0 -216 -128 -358z
M1298 879q-137 0 -227 -92q-101 -103 -101 -291q0 -187 86 -289q86 -103 244 -103q138 0 225 94q99 105 99 302q0 379 -326 379zM1218 1473q0 36 25 62q26 26 61 26q88 0 88 -88q0 -37 -25 -63q-26 -26 -63 -26q-86 0 -86 89zM1380 1199q-27 27 -27 65q0 36 27 62
q26 26 63 26q88 0 88 -88q0 -37 -25 -64q-26 -26 -63 -26t-63 25zM1104 1199q-25 26 -25 65q0 36 25 62q26 26 63 26t63 -25q27 -26 27 -63t-27 -64q-26 -26 -63 -26t-63 25z" />
    <glyph glyph-name="uniFB6B" unicode="&#x6a4;" horiz-adv-x="1894" arabic-form="final" 
d="M1925 0h-1088q-361 0 -528 145q-162 141 -162 443q0 205 74 356l139 25q-84 -168 -84 -363q0 -259 118 -374q132 -128 458 -128h143q-160 103 -160 385q0 209 125 347q132 147 354 147q197 0 311 -106q132 -122 132 -371q0 -277 -189 -406q117 4 195 4h162v-104z
M1298 879q-137 0 -227 -92q-101 -103 -101 -291q0 -187 86 -289q86 -103 244 -103q138 0 225 94q99 105 99 302q0 379 -326 379zM1218 1473q0 36 25 62q26 26 61 26q88 0 88 -88q0 -37 -25 -63q-26 -26 -63 -26q-86 0 -86 89zM1380 1199q-27 27 -27 65q0 36 27 62
q26 26 63 26q88 0 88 -88q0 -37 -25 -64q-26 -26 -63 -26t-63 25zM1104 1199q-25 26 -25 65q0 36 25 62q26 26 63 26t63 -25q27 -26 27 -63t-27 -64q-26 -26 -63 -26t-63 25z" />
    <glyph glyph-name="uniFB6C" unicode="&#x6a4;" horiz-adv-x="1253" arabic-form="initial" 
d="M0 0v104h195q71 0 120 -6q-178 103 -178 383q0 213 126 352q137 150 372 150q422 0 422 -451v-532h-1057zM928 502q0 377 -307 377q-161 0 -255 -105q-94 -103 -94 -280q0 -201 98 -294q101 -96 322 -96h236v398zM528 1473q0 36 26 62q25 26 60 26q88 0 88 -88
q0 -37 -25 -63q-26 -26 -63 -26q-86 0 -86 89zM690 1199q-26 27 -26 65q0 36 26 62q27 26 64 26q88 0 88 -88q0 -37 -26 -64q-26 -26 -62 -26q-38 0 -64 25zM415 1199q-26 26 -26 65q0 36 26 62q25 26 62 26q38 0 64 -25q26 -26 26 -63t-26 -64q-27 -26 -64 -26t-62 25z" />
    <glyph glyph-name="uniFB6D" unicode="&#x6a4;" horiz-adv-x="1196" arabic-form="medial" 
d="M0 104h143q74 0 158 -4q-164 105 -164 389q0 209 125 347q132 147 354 147q197 0 311 -106q132 -122 132 -371q0 -277 -189 -406q117 4 195 4h162v-104h-1227v104zM827 198q99 105 99 302q0 379 -326 379q-137 0 -227 -92q-101 -103 -101 -289q0 -188 86 -291t244 -103
q138 0 225 94zM520 1473q0 36 26 62q25 26 60 26q88 0 88 -88q0 -37 -25 -63q-26 -26 -63 -26q-86 0 -86 89zM682 1199q-27 27 -27 65q0 36 27 62q26 26 63 26q89 0 89 -88q0 -37 -26 -64q-26 -26 -63 -26t-63 25zM407 1199q-26 26 -26 65q0 36 26 62q25 26 62 26t63 -25
q27 -26 27 -63t-27 -64q-26 -26 -63 -26t-62 25z" />
    <glyph glyph-name="uniFB6E" unicode="&#x6a6;" horiz-adv-x="1880" arabic-form="isolated" 
d="M1629 148q-133 -148 -352 -148h-440q-361 0 -528 145q-162 141 -162 443q0 205 74 356l139 25q-84 -168 -84 -363q0 -259 118 -374q132 -128 458 -128h143q-160 103 -160 385q0 209 125 347q132 147 354 147q197 0 311 -106q132 -122 132 -371q0 -216 -128 -358z
M1298 879q-137 0 -227 -92q-101 -103 -101 -291q0 -187 86 -289q86 -103 244 -103q138 0 225 94q99 105 99 302q0 379 -326 379zM1225 1591q26 -26 26 -61q0 -88 -89 -88q-35 0 -61 25q-27 26 -27 63q0 35 26 61q26 27 62 27q37 0 63 -27zM1225 1326q26 -25 26 -61
q0 -88 -89 -88q-35 0 -61 26q-27 26 -27 62t26 61t62 25q37 0 63 -25zM1501 1591q26 -26 26 -61q0 -88 -89 -88q-35 0 -61 25q-27 26 -27 63q0 35 26 61q26 27 62 27q37 0 63 -27zM1501 1326q26 -25 26 -61q0 -88 -89 -88q-35 0 -61 26q-27 26 -27 62t26 61t62 25
q37 0 63 -25z" />
    <glyph glyph-name="uniFB6F" unicode="&#x6a6;" horiz-adv-x="1894" arabic-form="final" 
d="M1925 0h-1088q-361 0 -528 145q-162 141 -162 443q0 205 74 356l139 25q-84 -168 -84 -363q0 -259 118 -374q132 -128 458 -128h143q-160 103 -160 385q0 209 125 347q132 147 354 147q197 0 311 -106q132 -122 132 -371q0 -277 -189 -406q117 4 195 4h162v-104z
M1298 879q-137 0 -227 -92q-101 -103 -101 -291q0 -187 86 -289q86 -103 244 -103q138 0 225 94q99 105 99 302q0 379 -326 379zM1225 1591q26 -26 26 -61q0 -88 -89 -88q-35 0 -61 25q-27 26 -27 63q0 35 26 61q26 27 62 27q37 0 63 -27zM1225 1326q26 -25 26 -61
q0 -88 -89 -88q-35 0 -61 26q-27 26 -27 62t26 61t62 25q37 0 63 -25zM1501 1591q26 -26 26 -61q0 -88 -89 -88q-35 0 -61 25q-27 26 -27 63q0 35 26 61q26 27 62 27q37 0 63 -27zM1501 1326q26 -25 26 -61q0 -88 -89 -88q-35 0 -61 26q-27 26 -27 62t26 61t62 25
q37 0 63 -25z" />
    <glyph glyph-name="uniFB70" unicode="&#x6a6;" horiz-adv-x="1253" arabic-form="initial" 
d="M0 0v104h195q71 0 120 -6q-178 103 -178 383q0 213 126 352q137 150 372 150q422 0 422 -451v-532h-1057zM928 502q0 377 -307 377q-161 0 -255 -105q-94 -103 -94 -280q0 -201 98 -294q101 -96 322 -96h236v398zM542 1591q26 -26 26 -61q0 -88 -89 -88q-35 0 -61 25
q-27 26 -27 63q0 35 26 61q26 27 62 27q37 0 63 -27zM542 1326q26 -25 26 -61q0 -88 -89 -88q-35 0 -61 26q-27 26 -27 62t26 61t62 25q37 0 63 -25zM818 1591q26 -26 26 -61q0 -88 -89 -88q-35 0 -61 25q-27 26 -27 63q0 35 26 61q26 27 62 27q37 0 63 -27zM818 1326
q26 -25 26 -61q0 -88 -89 -88q-35 0 -61 26q-27 26 -27 62t26 61t62 25q37 0 63 -25z" />
    <glyph glyph-name="uniFB71" unicode="&#x6a6;" horiz-adv-x="1196" arabic-form="medial" 
d="M0 104h143q74 0 158 -4q-164 105 -164 389q0 209 125 347q132 147 354 147q197 0 311 -106q132 -122 132 -371q0 -277 -189 -406q117 4 195 4h162v-104h-1227v104zM827 198q99 105 99 302q0 379 -326 379q-137 0 -227 -92q-101 -103 -101 -289q0 -188 86 -291t244 -103
q138 0 225 94zM532 1591q26 -26 26 -61q0 -88 -89 -88q-35 0 -61 25q-27 26 -27 63q0 35 26 61q26 27 62 27q37 0 63 -27zM532 1326q26 -25 26 -61q0 -88 -89 -88q-35 0 -61 26q-27 26 -27 62t26 61t62 25q37 0 63 -25zM808 1591q26 -26 26 -61q0 -88 -89 -88q-35 0 -61 25
q-27 26 -27 63q0 35 26 61q26 27 62 27q37 0 63 -27zM808 1326q26 -25 26 -61q0 -88 -89 -88q-35 0 -61 26q-27 26 -27 62t26 61t62 25q37 0 63 -25z" />
    <glyph glyph-name="uniFB72" unicode="&#x684;" arabic-form="isolated" 
d="M651 0q-473 0 -473 -276q0 -220 295 -265l-25 -106q-184 24 -291 119q-108 96 -108 235q0 397 612 397h250q17 118 17 250q0 268 -104 385q-111 125 -378 125q-115 0 -221 -14v102q119 17 232 17q323 0 467 -153q135 -143 135 -445q0 -174 -33 -371h-375zM735 -143
q37 0 63 -26q25 -26 25 -62q0 -37 -26 -63q-26 -25 -62 -25q-88 0 -88 88q0 36 26 62t62 26zM735 -419q37 0 63 -26q25 -25 25 -60q0 -37 -26 -63t-62 -26q-88 0 -88 89q0 35 26 60q25 26 62 26z" />
    <glyph glyph-name="uniFB73" unicode="&#x684;" horiz-adv-x="1222" arabic-form="final" 
d="M651 0q-473 0 -473 -276q0 -220 295 -265l-25 -106q-184 24 -291 119q-108 96 -108 235q0 397 612 397h250q17 118 17 250q0 268 -104 385q-111 125 -378 125q-115 0 -221 -14v102q119 17 232 17q323 0 467 -153q135 -143 135 -445q0 -135 -19 -267h213v-104h-602z
M735 -143q37 0 63 -26q25 -26 25 -62q0 -37 -26 -63q-26 -25 -62 -25q-88 0 -88 88q0 36 26 62t62 26zM735 -419q37 0 63 -26q25 -25 25 -60q0 -37 -26 -63t-62 -26q-88 0 -88 89q0 35 26 60q25 26 62 26z" />
    <glyph glyph-name="uniFB74" unicode="&#x684;" horiz-adv-x="1183" arabic-form="initial" 
d="M0 104h883q18 133 18 250q0 268 -105 385q-112 125 -378 125q-112 0 -221 -14v102q118 17 231 17q324 0 468 -153q134 -143 134 -445q0 -174 -33 -371h-997v104zM485 -143q37 0 63 -26q25 -26 25 -62q0 -37 -26 -63q-26 -25 -62 -25q-88 0 -88 88q0 36 26 62t62 26z
M485 -419q37 0 63 -26q25 -25 25 -60q0 -37 -26 -63t-62 -26q-88 0 -88 89q0 35 26 60q25 26 62 26z" />
    <glyph glyph-name="uniFB75" unicode="&#x684;" horiz-adv-x="1193" arabic-form="medial" 
d="M0 104h883q18 133 18 250q0 268 -105 385q-112 125 -378 125q-112 0 -221 -14v102q118 17 231 17q324 0 468 -153q134 -143 134 -445q0 -135 -18 -267h213v-104h-1225v104zM485 -143q37 0 63 -26q25 -26 25 -62q0 -37 -26 -63q-26 -25 -62 -25q-88 0 -88 88q0 36 26 62
t62 26zM485 -419q37 0 63 -26q25 -25 25 -60q0 -37 -26 -63t-62 -26q-88 0 -88 89q0 35 26 60q25 26 62 26z" />
    <glyph glyph-name="uniFB76" unicode="&#x683;" arabic-form="isolated" 
d="M651 0q-473 0 -473 -276q0 -220 295 -265l-25 -106q-184 24 -291 119q-108 96 -108 235q0 397 612 397h250q17 118 17 250q0 268 -104 385q-111 125 -378 125q-115 0 -221 -14v102q119 17 232 17q323 0 467 -153q135 -143 135 -445q0 -174 -33 -371h-375zM934 -296
q-26 -26 -62 -26q-88 0 -88 89q0 35 26 61q26 27 62 27t62 -26t26 -62q0 -37 -26 -63zM659 -296q-26 -26 -61 -26q-88 0 -88 89q0 35 25 61q26 27 63 27q35 0 61 -26q25 -26 25 -62q0 -37 -25 -63z" />
    <glyph glyph-name="uniFB77" unicode="&#x683;" horiz-adv-x="1222" arabic-form="final" 
d="M651 0q-473 0 -473 -276q0 -220 295 -265l-25 -106q-184 24 -291 119q-108 96 -108 235q0 397 612 397h250q17 118 17 250q0 268 -104 385q-111 125 -378 125q-115 0 -221 -14v102q119 17 232 17q323 0 467 -153q135 -143 135 -445q0 -135 -19 -267h213v-104h-602z
M934 -296q-26 -26 -62 -26q-88 0 -88 89q0 35 26 61q26 27 62 27t62 -26t26 -62q0 -37 -26 -63zM659 -296q-26 -26 -61 -26q-88 0 -88 89q0 35 25 61q26 27 63 27q35 0 61 -26q25 -26 25 -62q0 -37 -25 -63z" />
    <glyph glyph-name="uniFB78" unicode="&#x683;" horiz-adv-x="1183" arabic-form="initial" 
d="M0 104h883q18 133 18 250q0 268 -105 385q-112 125 -378 125q-112 0 -221 -14v102q118 17 231 17q324 0 468 -153q134 -143 134 -445q0 -174 -33 -371h-997v104zM684 -296q-26 -26 -61 -26q-88 0 -88 89q0 35 25 61q26 27 63 27q35 0 61 -26q27 -26 27 -62q0 -37 -27 -63
zM409 -296q-25 -26 -61 -26q-88 0 -88 89q0 35 26 61q26 27 62 27t61 -26t25 -62q0 -37 -25 -63z" />
    <glyph glyph-name="uniFB79" unicode="&#x683;" horiz-adv-x="1193" arabic-form="medial" 
d="M0 104h883q18 133 18 250q0 268 -105 385q-112 125 -378 125q-112 0 -221 -14v102q118 17 231 17q324 0 468 -153q134 -143 134 -445q0 -135 -18 -267h213v-104h-1225v104zM684 -296q-26 -26 -61 -26q-88 0 -88 89q0 35 25 61q26 27 63 27q35 0 61 -26q27 -26 27 -62
q0 -37 -27 -63zM409 -296q-25 -26 -61 -26q-88 0 -88 89q0 35 26 61q26 27 62 27t61 -26t25 -62q0 -37 -25 -63z" />
    <glyph glyph-name="uniFB7A" unicode="&#x686;" arabic-form="isolated" 
d="M651 0q-473 0 -473 -276q0 -220 295 -265l-25 -106q-184 24 -291 119q-108 96 -108 235q0 397 612 397h250q17 118 17 250q0 268 -104 385q-111 125 -378 125q-115 0 -221 -14v102q119 17 232 17q323 0 467 -153q135 -143 135 -445q0 -174 -33 -371h-375zM796 -501
q-26 -25 -61 -25q-88 0 -88 86q0 37 26 62q25 26 62 26q36 0 61 -26t25 -62t-25 -61zM934 -296q-26 -26 -62 -26q-88 0 -88 89q0 35 26 61q26 27 62 27t62 -26t26 -62q0 -37 -26 -63zM659 -296q-26 -26 -61 -26q-88 0 -88 89q0 35 25 61q26 27 63 27q35 0 61 -26
q25 -26 25 -62q0 -37 -25 -63z" />
    <glyph glyph-name="uniFB7B" unicode="&#x686;" horiz-adv-x="1222" arabic-form="final" 
d="M651 0q-473 0 -473 -276q0 -220 295 -265l-25 -106q-184 24 -291 119q-108 96 -108 235q0 397 612 397h250q17 118 17 250q0 268 -104 385q-111 125 -378 125q-115 0 -221 -14v102q119 17 232 17q323 0 467 -153q135 -143 135 -445q0 -135 -19 -267h213v-104h-602z
M934 -296q-26 -26 -62 -26q-88 0 -88 89q0 35 26 61q26 27 62 27t62 -26t26 -62q0 -37 -26 -63zM659 -296q-26 -26 -61 -26q-88 0 -88 89q0 35 25 61q26 27 63 27q35 0 61 -26q25 -26 25 -62q0 -37 -25 -63zM796 -501q-26 -25 -61 -25q-88 0 -88 86q0 37 26 62q25 26 62 26
q36 0 61 -26t25 -62t-25 -61z" />
    <glyph glyph-name="uniFB7C" unicode="&#x686;" horiz-adv-x="1183" arabic-form="initial" 
d="M0 104h883q18 133 18 250q0 268 -105 385q-112 125 -378 125q-112 0 -221 -14v102q118 17 231 17q324 0 468 -153q134 -143 134 -445q0 -174 -33 -371h-997v104zM546 -501q-25 -25 -61 -25q-88 0 -88 86q0 37 26 62q26 26 62 26t61 -26t25 -62t-25 -61zM684 -296
q-26 -26 -61 -26q-88 0 -88 89q0 35 25 61q26 27 63 27q35 0 61 -26q27 -26 27 -62q0 -37 -27 -63zM409 -296q-25 -26 -61 -26q-88 0 -88 89q0 35 26 61q26 27 62 27t61 -26t25 -62q0 -37 -25 -63z" />
    <glyph glyph-name="uniFB7D" unicode="&#x686;" horiz-adv-x="1193" arabic-form="medial" 
d="M0 104h883q18 133 18 250q0 268 -105 385q-112 125 -378 125q-112 0 -221 -14v102q118 17 231 17q324 0 468 -153q134 -143 134 -445q0 -135 -18 -267h213v-104h-1225v104zM684 -296q-26 -26 -61 -26q-88 0 -88 89q0 35 25 61q26 27 63 27q35 0 61 -26q27 -26 27 -62
q0 -37 -27 -63zM409 -296q-25 -26 -61 -26q-88 0 -88 89q0 35 26 61q26 27 62 27t61 -26t25 -62q0 -37 -25 -63zM546 -501q-25 -25 -61 -25q-88 0 -88 86q0 37 26 62q26 26 62 26t61 -26t25 -62t-25 -61z" />
    <glyph glyph-name="uniFB7E" unicode="&#x687;" arabic-form="isolated" 
d="M157 -528q-108 96 -108 235q0 397 612 397h250q17 118 17 250q0 268 -104 385q-111 125 -378 125q-115 0 -221 -14v102q119 17 232 17q323 0 467 -153q135 -143 135 -445q0 -174 -33 -371h-375q-473 0 -473 -276q0 -202 248 -256l-25 -107q-151 28 -244 111zM661 -172
q26 -26 26 -61q0 -88 -89 -88q-35 0 -61 25q-27 26 -27 63q0 35 26 61q26 27 62 27q37 0 63 -27zM661 -437q26 -25 26 -61q0 -88 -89 -88q-35 0 -61 26q-27 26 -27 62t26 61t62 25q37 0 63 -25zM937 -172q26 -26 26 -61q0 -88 -89 -88q-35 0 -61 25q-27 26 -27 63
q0 35 26 61q26 27 62 27q37 0 63 -27zM937 -437q26 -25 26 -61q0 -88 -89 -88q-35 0 -61 26q-27 26 -27 62t26 61t62 25q37 0 63 -25z" />
    <glyph glyph-name="uniFB7F" unicode="&#x687;" horiz-adv-x="1222" arabic-form="final" 
d="M157 -528q-108 96 -108 235q0 397 612 397h250q17 118 17 250q0 268 -104 385q-111 125 -378 125q-115 0 -221 -14v102q119 17 232 17q323 0 467 -153q135 -143 135 -445q0 -135 -19 -267h213v-104h-602q-473 0 -473 -276q0 -197 237 -254l-29 -106q-141 30 -229 108z
M661 -172q26 -26 26 -61q0 -88 -89 -88q-35 0 -61 25q-27 26 -27 63q0 35 26 61q26 27 62 27q37 0 63 -27zM661 -437q26 -25 26 -61q0 -88 -89 -88q-35 0 -61 26q-27 26 -27 62t26 61t62 25q37 0 63 -25zM937 -172q26 -26 26 -61q0 -88 -89 -88q-35 0 -61 25q-27 26 -27 63
q0 35 26 61q26 27 62 27q37 0 63 -27zM937 -437q26 -25 26 -61q0 -88 -89 -88q-35 0 -61 26q-27 26 -27 62t26 61t62 25q37 0 63 -25z" />
    <glyph glyph-name="uniFB80" unicode="&#x687;" horiz-adv-x="1183" arabic-form="initial" 
d="M0 104h883q18 133 18 250q0 268 -105 385q-112 125 -378 125q-112 0 -221 -14v102q118 17 231 17q324 0 468 -153q134 -143 134 -445q0 -174 -33 -371h-997v104zM411 -172q26 -26 26 -61q0 -88 -89 -88q-35 0 -61 25q-27 26 -27 63q0 35 26 61q26 27 62 27q37 0 63 -27z
M411 -437q26 -25 26 -61q0 -88 -89 -88q-35 0 -61 26q-27 26 -27 62t26 61t62 25q37 0 63 -25zM687 -172q26 -26 26 -61q0 -88 -89 -88q-35 0 -61 25q-27 26 -27 63q0 35 26 61q26 27 62 27q37 0 63 -27zM687 -437q26 -25 26 -61q0 -88 -89 -88q-35 0 -61 26q-27 26 -27 62
t26 61t62 25q37 0 63 -25z" />
    <glyph glyph-name="uniFB81" unicode="&#x687;" horiz-adv-x="1193" arabic-form="medial" 
d="M0 104h883q18 133 18 250q0 268 -105 385q-112 125 -378 125q-112 0 -221 -14v102q118 17 231 17q324 0 468 -153q134 -143 134 -445q0 -135 -18 -267h213v-104h-1225v104zM411 -172q26 -26 26 -61q0 -88 -89 -88q-35 0 -61 25q-27 26 -27 63q0 35 26 61q26 27 62 27
q37 0 63 -27zM411 -437q26 -25 26 -61q0 -88 -89 -88q-35 0 -61 26q-27 26 -27 62t26 61t62 25q37 0 63 -25zM687 -172q26 -26 26 -61q0 -88 -89 -88q-35 0 -61 25q-27 26 -27 63q0 35 26 61q26 27 62 27q37 0 63 -27zM687 -437q26 -25 26 -61q0 -88 -89 -88q-35 0 -61 26
q-27 26 -27 62t26 61t62 25q37 0 63 -25z" />
    <glyph glyph-name="uniFB82" unicode="&#x68d;" horiz-adv-x="1087" arabic-form="isolated" 
d="M114 104h692q-1 323 -124 502q-125 181 -416 279l36 110q337 -112 483 -319q150 -214 150 -598v-78h-821v104zM722 -369q-27 -26 -63 -26q-38 0 -63 26q-26 26 -26 64q0 37 26 63q26 27 63 27t63 -26q27 -26 27 -64q0 -37 -27 -64zM446 -369q-26 -26 -64 -26
q-37 0 -62 26q-26 26 -26 64q0 37 26 63q25 27 62 27q90 0 90 -90q0 -37 -26 -64z" />
    <glyph glyph-name="uniFB83" unicode="&#x68d;" horiz-adv-x="1087" arabic-form="final" 
d="M114 104h692q-1 323 -124 502q-125 181 -416 279l36 110q332 -110 478 -312q151 -208 155 -579h180v-104h-1001v104zM722 -369q-27 -26 -63 -26q-38 0 -63 26q-26 26 -26 64q0 37 26 63q26 27 63 27t63 -26q27 -26 27 -64q0 -37 -27 -64zM446 -369q-26 -26 -64 -26
q-37 0 -62 26q-26 26 -26 64q0 37 26 63q25 27 62 27q90 0 90 -90q0 -37 -26 -64z" />
    <glyph glyph-name="uniFB84" unicode="&#x68c;" horiz-adv-x="1087" arabic-form="isolated" 
d="M114 104h692q-1 323 -124 502q-125 181 -416 279l36 110q337 -112 483 -319q150 -214 150 -598v-78h-821v104zM618 1199q-27 27 -27 65q0 36 27 62q26 26 63 26q88 0 88 -88q0 -37 -25 -64q-26 -26 -63 -26t-63 25zM342 1199q-25 26 -25 65q0 36 25 62q26 26 63 26
t63 -25q27 -26 27 -63t-27 -64q-26 -26 -63 -26t-63 25z" />
    <glyph glyph-name="uniFB85" unicode="&#x68c;" horiz-adv-x="1087" arabic-form="final" 
d="M114 104h692q-1 323 -124 502q-125 181 -416 279l36 110q332 -110 478 -312q151 -208 155 -579h180v-104h-1001v104zM618 1199q-27 27 -27 65q0 36 27 62q26 26 63 26q88 0 88 -88q0 -37 -25 -64q-26 -26 -63 -26t-63 25zM342 1199q-25 26 -25 65q0 36 25 62q26 26 63 26
t63 -25q27 -26 27 -63t-27 -64q-26 -26 -63 -26t-63 25z" />
    <glyph glyph-name="uniFB86" unicode="&#x68e;" horiz-adv-x="1087" arabic-form="isolated" 
d="M114 104h692q-1 323 -124 502q-125 181 -416 279l36 110q337 -112 483 -319q150 -214 150 -598v-78h-821v104zM406 1473q0 36 25 62q26 26 61 26q88 0 88 -88q0 -37 -26 -63q-25 -26 -62 -26q-86 0 -86 89zM568 1199q-27 27 -27 65q0 36 27 62q26 26 63 26q88 0 88 -88
q0 -37 -25 -64q-26 -26 -63 -26t-63 25zM292 1199q-25 26 -25 65q0 36 25 62q26 26 63 26t63 -25q27 -26 27 -63t-27 -64q-26 -26 -63 -26t-63 25z" />
    <glyph glyph-name="uniFB87" unicode="&#x68e;" horiz-adv-x="1087" arabic-form="final" 
d="M114 104h692q-1 323 -124 502q-125 181 -416 279l36 110q332 -110 478 -312q151 -208 155 -579h180v-104h-1001v104zM406 1473q0 36 25 62q26 26 61 26q88 0 88 -88q0 -37 -26 -63q-25 -26 -62 -26q-86 0 -86 89zM568 1199q-27 27 -27 65q0 36 27 62q26 26 63 26
q88 0 88 -88q0 -37 -25 -64q-26 -26 -63 -26t-63 25zM292 1199q-25 26 -25 65q0 36 25 62q26 26 63 26t63 -25q27 -26 27 -63t-27 -64q-26 -26 -63 -26t-63 25z" />
    <glyph glyph-name="uniFB88" unicode="&#x688;" horiz-adv-x="1087" arabic-form="isolated" 
d="M114 104h692q-1 323 -124 502q-125 181 -416 279l36 110q337 -112 483 -319q150 -214 150 -598v-78h-821v104zM593 1554q-84 0 -160 -89q-72 -85 -75 -175h155q176 0 176 148q0 116 -96 116zM360 1604q0 -58 -15 -134h2q93 168 261 168q186 0 186 -186q0 -244 -297 -244
h-238v574h101v-178z" />
    <glyph glyph-name="uniFB89" unicode="&#x688;" horiz-adv-x="1087" arabic-form="final" 
d="M114 104h692q-1 323 -124 502q-125 181 -416 279l36 110q332 -110 478 -312q151 -208 155 -579h180v-104h-1001v104zM360 1604q0 -58 -15 -134h2q93 168 261 168q186 0 186 -186q0 -244 -297 -244h-238v574h101v-178zM593 1554q-84 0 -160 -89q-72 -85 -75 -175h155
q176 0 176 148q0 116 -96 116z" />
    <glyph glyph-name="uniFB8A" unicode="&#x698;" horiz-adv-x="882" arabic-form="isolated" 
d="M-10 -494l20 111q116 -43 234 -43q311 0 311 397v992h129v-973q0 -520 -452 -520q-131 0 -242 36zM522 1473q0 36 26 62q25 26 60 26q89 0 89 -88q0 -37 -26 -63t-63 -26q-86 0 -86 89zM684 1199q-26 27 -26 65q0 36 26 62q27 26 64 26q88 0 88 -88q0 -37 -26 -64
q-26 -26 -62 -26q-37 0 -64 25zM409 1199q-26 26 -26 65q0 36 26 62q25 26 62 26q38 0 64 -25q26 -26 26 -63t-26 -64q-27 -26 -64 -26t-62 25z" />
    <glyph glyph-name="uniFB8B" unicode="&#x698;" horiz-adv-x="898" arabic-form="final" 
d="M-10 -494l20 111q116 -43 234 -43q311 0 311 397v992h129v-859h246v-104h-246v-10q0 -520 -452 -520q-131 0 -242 36zM409 1199q-26 26 -26 65q0 36 26 62q25 26 62 26q38 0 64 -25q26 -26 26 -63t-26 -64q-27 -26 -64 -26t-62 25zM684 1199q-26 27 -26 65q0 36 26 62
q27 26 64 26q88 0 88 -88q0 -37 -26 -64q-26 -26 -62 -26q-37 0 -64 25zM522 1473q0 36 26 62q25 26 60 26q89 0 89 -88q0 -37 -26 -63t-63 -26q-86 0 -86 89z" />
    <glyph glyph-name="uniFB8C" unicode="&#x691;" horiz-adv-x="882" arabic-form="isolated" 
d="M-10 -494l20 111q116 -43 234 -43q311 0 311 397v992h129v-973q0 -520 -452 -520q-131 0 -242 36zM682 1554q-84 0 -160 -89q-72 -85 -75 -175h155q176 0 176 148q0 116 -96 116zM449 1604q0 -58 -15 -134h2q93 168 261 168q186 0 186 -186q0 -244 -297 -244h-238v574
h101v-178z" />
    <glyph glyph-name="uniFB8D" unicode="&#x691;" horiz-adv-x="898" arabic-form="final" 
d="M-10 -494l20 111q116 -43 234 -43q311 0 311 397v992h129v-859h246v-104h-246v-10q0 -520 -452 -520q-131 0 -242 36zM449 1604q0 -58 -15 -134h2q93 168 261 168q186 0 186 -186q0 -244 -297 -244h-238v574h101v-178zM682 1554q-84 0 -160 -89q-72 -85 -75 -175h155
q176 0 176 148q0 116 -96 116z" />
    <glyph glyph-name="uniFB8E" unicode="&#x6a9;" horiz-adv-x="1736" arabic-form="isolated" 
d="M837 0q-361 0 -528 145q-162 141 -162 443q0 205 74 356l139 25q-84 -168 -84 -363q0 -260 119 -374q133 -128 463 -128h571q-1 337 -138 521q-129 173 -423 266v98l752 473v-133l-599 -371q276 -111 400 -301q137 -210 137 -577v-80h-721z" />
    <glyph glyph-name="uniFB8F" unicode="&#x6a9;" horiz-adv-x="1736" arabic-form="final" 
d="M837 0q-361 0 -528 145q-162 141 -162 443q0 205 74 356l139 25q-84 -168 -84 -363q0 -260 119 -374q133 -128 463 -128h571q-1 337 -138 521q-129 173 -423 266v98l752 473v-133l-599 -371q271 -109 396 -295q137 -205 141 -559h209v-104h-930z" />
    <glyph glyph-name="uniFB90" unicode="&#x6a9;" horiz-adv-x="999" arabic-form="initial" 
d="M0 104h694q-1 338 -138 521q-130 173 -425 266v98l754 473v-133l-598 -371q274 -111 399 -301q137 -211 137 -577v-80h-823v104z" />
    <glyph glyph-name="uniFB91" unicode="&#x6a9;" horiz-adv-x="999" arabic-form="medial" 
d="M0 104h694q-1 338 -138 521q-130 173 -425 266v98l754 473v-133l-598 -371q269 -109 394 -295q138 -206 142 -559h207v-104h-1030v104z" />
    <glyph glyph-name="uniFB92" unicode="&#x6af;" horiz-adv-x="1736" arabic-form="isolated" 
d="M837 0q-361 0 -528 145q-162 141 -162 443q0 205 74 356l139 25q-84 -168 -84 -363q0 -260 119 -374q133 -128 463 -128h571q-1 337 -138 521q-129 173 -423 266v94l752 473v-129l-599 -371q276 -111 400 -301q137 -210 137 -577v-80h-721zM868 1305l752 473v-129
l-752 -471v127z" />
    <glyph glyph-name="uniFB93" unicode="&#x6af;" horiz-adv-x="1736" arabic-form="final" 
d="M837 0q-361 0 -528 145q-162 141 -162 443q0 205 74 356l139 25q-84 -168 -84 -363q0 -260 119 -374q133 -128 463 -128h571q-1 337 -138 521q-129 173 -423 266v94l752 473v-129l-599 -371q271 -109 396 -295q137 -205 141 -559h209v-104h-930zM868 1305l752 473v-129
l-752 -471v127z" />
    <glyph glyph-name="uniFB94" unicode="&#x6af;" horiz-adv-x="999" arabic-form="initial" 
d="M0 104h694q-1 338 -138 521q-130 173 -425 266v94l754 473v-129l-598 -371q274 -111 399 -301q137 -211 137 -577v-80h-823v104zM131 1305l754 473v-129l-754 -471v127z" />
    <glyph glyph-name="uniFB95" unicode="&#x6af;" horiz-adv-x="999" arabic-form="medial" 
d="M0 104h694q-1 338 -138 521q-130 173 -425 266v94l754 473v-129l-598 -371q269 -109 394 -295q138 -206 142 -559h207v-104h-1030v104zM131 1305l754 473v-129l-754 -471v127z" />
    <glyph glyph-name="uniFB96" unicode="&#x6b3;" horiz-adv-x="1736" arabic-form="isolated" 
d="M837 0q-361 0 -528 145q-162 141 -162 443q0 205 74 356l139 25q-84 -168 -84 -363q0 -260 119 -374q133 -128 463 -128h571q-1 337 -138 521q-129 173 -423 266v94l752 473v-129l-599 -371q276 -111 400 -301q137 -210 137 -577v-80h-721zM868 1305l752 473v-129
l-752 -471v127zM949 -180q25 -26 25 -61q0 -88 -88 -88q-35 0 -61 25q-27 26 -27 63q0 35 26 61q26 27 62 27q37 0 63 -27zM949 -455q25 -25 25 -61q0 -88 -88 -88q-35 0 -61 26q-27 26 -27 62t26 61t62 25q37 0 63 -25z" />
    <glyph glyph-name="uniFB97" unicode="&#x6b3;" horiz-adv-x="1736" arabic-form="final" 
d="M837 0q-361 0 -528 145q-162 141 -162 443q0 205 74 356l139 25q-84 -168 -84 -363q0 -260 119 -374q133 -128 463 -128h571q-1 337 -138 521q-129 173 -423 266v94l752 473v-129l-599 -371q271 -109 396 -295q137 -205 141 -559h209v-104h-930zM868 1305l752 473v-129
l-752 -471v127zM949 -180q25 -26 25 -61q0 -88 -88 -88q-35 0 -61 25q-27 26 -27 63q0 35 26 61q26 27 62 27q37 0 63 -27zM949 -455q25 -25 25 -61q0 -88 -88 -88q-35 0 -61 26q-27 26 -27 62t26 61t62 25q37 0 63 -25z" />
    <glyph glyph-name="uniFB98" unicode="&#x6b3;" horiz-adv-x="999" arabic-form="initial" 
d="M0 104h694q-1 338 -138 521q-130 173 -425 266v94l754 473v-129l-598 -371q274 -111 399 -301q137 -211 137 -577v-80h-823v104zM131 1305l754 473v-129l-754 -471v127zM449 -180q25 -26 25 -61q0 -88 -88 -88q-35 0 -61 25q-27 26 -27 63q0 35 26 61q26 27 62 27
q37 0 63 -27zM449 -455q25 -25 25 -61q0 -88 -88 -88q-35 0 -61 26q-27 26 -27 62t26 61t62 25q37 0 63 -25z" />
    <glyph glyph-name="uniFB99" unicode="&#x6b3;" horiz-adv-x="999" arabic-form="medial" 
d="M0 104h694q-1 338 -138 521q-130 173 -425 266v94l754 473v-129l-598 -371q269 -109 394 -295q138 -206 142 -559h207v-104h-1030v104zM131 1305l754 473v-129l-754 -471v127zM449 -180q25 -26 25 -61q0 -88 -88 -88q-35 0 -61 25q-27 26 -27 63q0 35 26 61q26 27 62 27
q37 0 63 -27zM449 -455q25 -25 25 -61q0 -88 -88 -88q-35 0 -61 26q-27 26 -27 62t26 61t62 25q37 0 63 -25z" />
    <glyph glyph-name="uniFB9A" unicode="&#x6b1;" horiz-adv-x="1736" arabic-form="isolated" 
d="M837 0q-361 0 -528 145q-162 141 -162 443q0 205 74 356l139 25q-84 -168 -84 -363q0 -260 119 -374q133 -128 463 -128h571q-1 337 -138 521q-129 173 -423 266v94l752 473v-129l-599 -371q276 -111 400 -301q137 -210 137 -577v-80h-721zM868 1305l752 473v-129
l-752 -471v127zM1130 1669q-27 27 -27 65q0 36 27 62q26 26 63 26q88 0 88 -88q0 -37 -25 -64q-26 -26 -63 -26t-63 25zM854 1669q-25 26 -25 65q0 36 25 62q26 26 63 26t63 -25q27 -26 27 -63t-27 -64q-26 -26 -63 -26t-63 25z" />
    <glyph glyph-name="uniFB9B" unicode="&#x6b1;" horiz-adv-x="1736" arabic-form="final" 
d="M837 0q-361 0 -528 145q-162 141 -162 443q0 205 74 356l139 25q-84 -168 -84 -363q0 -260 119 -374q133 -128 463 -128h571q-1 337 -138 521q-129 173 -423 266v94l752 473v-129l-599 -371q271 -109 396 -295q137 -205 141 -559h209v-104h-930zM868 1305l752 473v-129
l-752 -471v127zM1130 1669q-27 27 -27 65q0 36 27 62q26 26 63 26q88 0 88 -88q0 -37 -25 -64q-26 -26 -63 -26t-63 25zM854 1669q-25 26 -25 65q0 36 25 62q26 26 63 26t63 -25q27 -26 27 -63t-27 -64q-26 -26 -63 -26t-63 25z" />
    <glyph glyph-name="uniFB9C" unicode="&#x6b1;" horiz-adv-x="999" arabic-form="initial" 
d="M0 104h694q-1 338 -138 521q-130 173 -425 266v94l754 473v-129l-598 -371q274 -111 399 -301q137 -211 137 -577v-80h-823v104zM131 1305l754 473v-129l-754 -471v127zM420 1669q-27 27 -27 65q0 36 27 62q26 26 63 26q88 0 88 -88q0 -37 -25 -64q-26 -26 -63 -26
t-63 25zM144 1669q-25 26 -25 65q0 36 25 62q26 26 63 26t63 -25q27 -26 27 -63t-27 -64q-26 -26 -63 -26t-63 25z" />
    <glyph glyph-name="uniFB9D" unicode="&#x6b1;" horiz-adv-x="999" arabic-form="medial" 
d="M0 104h694q-1 338 -138 521q-130 173 -425 266v94l754 473v-129l-598 -371q269 -109 394 -295q138 -206 142 -559h207v-104h-1030v104zM131 1305l754 473v-129l-754 -471v127zM420 1669q-27 27 -27 65q0 36 27 62q26 26 63 26q88 0 88 -88q0 -37 -25 -64q-26 -26 -63 -26
t-63 25zM144 1669q-25 26 -25 65q0 36 25 62q26 26 63 26t63 -25q27 -26 27 -63t-27 -64q-26 -26 -63 -26t-63 25z" />
    <glyph glyph-name="uniFB9E" unicode="&#x6ba;" horiz-adv-x="1331" arabic-form="isolated" 
d="M1132 74q0 -547 -514 -547q-211 0 -337 122q-150 145 -150 441q0 210 51 406l135 26q-55 -209 -55 -420q0 -257 120 -376q95 -95 253 -95q366 0 366 437v895h131v-889z" />
    <glyph glyph-name="uniFB9F" unicode="&#x6ba;" horiz-adv-x="1347" arabic-form="final" 
d="M1132 104h246v-104h-250q-33 -473 -510 -473q-211 0 -337 122q-150 145 -150 441q0 210 51 406l135 26q-55 -209 -55 -420q0 -257 120 -376q95 -95 253 -95q366 0 366 437v895h131v-859z" />
    <glyph glyph-name="uniFBA0" unicode="&#x6bb;" horiz-adv-x="1331" arabic-form="isolated" 
d="M1132 74q0 -547 -514 -547q-211 0 -337 122q-150 145 -150 441q0 210 51 406l135 26q-55 -209 -55 -420q0 -257 120 -376q95 -95 253 -95q366 0 366 437v895h131v-889zM678 1246q-85 0 -160 -89q-73 -85 -76 -175h156q176 0 176 148q0 116 -96 116zM444 1296
q0 -58 -14 -134h2q93 168 260 168q186 0 186 -186q0 -244 -297 -244h-237v574h100v-178z" />
    <glyph glyph-name="uniFBA1" unicode="&#x6bb;" horiz-adv-x="1347" arabic-form="final" 
d="M1132 104h246v-104h-250q-33 -473 -510 -473q-211 0 -337 122q-150 145 -150 441q0 210 51 406l135 26q-55 -209 -55 -420q0 -257 120 -376q95 -95 253 -95q366 0 366 437v895h131v-859zM678 1246q-85 0 -160 -89q-73 -85 -76 -175h156q176 0 176 148q0 116 -96 116z
M444 1296q0 -58 -14 -134h2q93 168 260 168q186 0 186 -186q0 -244 -297 -244h-237v574h100v-178z" />
    <glyph glyph-name="uniFBA2" unicode="&#x6bb;" horiz-adv-x="757" arabic-form="initial" 
d="M457 1554q-85 0 -160 -89q-73 -85 -76 -175h156q176 0 176 148q0 116 -96 116zM223 1604q0 -58 -14 -134h2q93 168 260 168q186 0 186 -186q0 -244 -297 -244h-237v574h100v-178zM0 104h430v859h129v-963h-559v104z" />
    <glyph glyph-name="uniFBA3" unicode="&#x6bb;" horiz-adv-x="774" arabic-form="medial" 
d="M223 1604q0 -58 -14 -134h2q93 168 260 168q186 0 186 -186q0 -244 -297 -244h-237v574h100v-178zM0 104h430v859h129v-859h246v-104h-805v104zM457 1554q-85 0 -160 -89q-73 -85 -76 -175h156q176 0 176 148q0 116 -96 116z" />
    <glyph glyph-name="uniFBA4" unicode="&#x6c0;" horiz-adv-x="1216" arabic-form="isolated" 
d="M632 0q-532 0 -532 479q0 214 126 354q136 150 372 150q422 0 422 -451v-532h-388zM891 502q0 377 -308 377q-161 0 -254 -105q-94 -103 -94 -280q0 -201 98 -294q100 -96 322 -96h236v398zM315 1266q97 0 162 -11q-70 28 -70 111q0 76 54 127q64 59 184 59q41 0 102 -8
l-14 -88q-49 8 -98 8q-123 0 -123 -94q0 -104 170 -104h106v-88h-473v88z" />
    <glyph glyph-name="uniFBA5" unicode="&#x6c0;" arabic-form="final" 
d="M632 0q-532 0 -532 481q0 214 125 352q137 150 375 150q213 0 399 -72v-807h244v-104h-611zM870 825q-115 54 -287 54q-160 0 -254 -104t-94 -279q0 -202 98 -296q100 -96 322 -96h215v721zM315 1266q97 0 162 -11q-70 28 -70 111q0 76 54 127q64 59 184 59q41 0 102 -8
l-14 -88q-49 8 -98 8q-123 0 -123 -94q0 -104 170 -104h106v-88h-473v88z" />
    <glyph glyph-name="uniFBA6" unicode="&#x6c1;" horiz-adv-x="1216" arabic-form="isolated" 
d="M632 0q-532 0 -532 479q0 214 126 354q136 150 372 150q422 0 422 -451v-532h-388zM891 502q0 377 -308 377q-161 0 -254 -105q-94 -103 -94 -280q0 -201 98 -294q100 -96 322 -96h236v398z" />
    <glyph glyph-name="uniFBA7" unicode="&#x6c1;" horiz-adv-x="1130" arabic-form="final" 
d="M1160 0h-51q-416 0 -416 449v124q-304 -43 -483 -335l-92 73q258 385 668 385q18 0 37 -2v-223q0 -194 71 -281q71 -86 225 -86h41v-104z" />
    <glyph glyph-name="uniFBA8" unicode="&#x6c1;" horiz-adv-x="636" arabic-form="initial" 
d="M0 104h309v859h131v-963h-440v104zM129 -383q0 127 180 281l51 -52q-90 -82 -90 -155q0 -27 16 -52q15 -26 15 -47q0 -81 -80 -81q-92 0 -92 106z" />
    <glyph glyph-name="uniFBA9" unicode="&#x6c1;" horiz-adv-x="1425" arabic-form="medial" 
d="M1456 0h-282v-535h-134q-263 0 -411 143q-152 146 -152 415q0 128 15 231l-5 2q-94 -256 -364 -256h-123v104h143q148 0 241 126q91 125 91 321v207h129v-717q0 -232 115 -353q113 -120 325 -120v536h412v-104zM100 -424q0 128 170 285l54 -47q-86 -86 -86 -160
q0 -26 17 -53t17 -52q0 -79 -79 -79q-93 0 -93 106z" />
    <glyph glyph-name="uniFBAA" unicode="&#x6be;" horiz-adv-x="1605" arabic-form="isolated" 
d="M40 0v104l331 -1l23 -1q-22 11 -51 54q-49 69 -49 159q0 157 103 248q100 88 266 88q352 0 352 -442v-105h293v54q0 417 -158 602q-151 176 -481 176q-212 0 -434 -70l-15 101q233 71 469 71q372 0 554 -199q194 -212 194 -667v-172h-1397zM890 197q0 356 -238 356
q-110 0 -171 -59q-60 -58 -60 -158q0 -117 76 -178q67 -54 178 -54h215v93z" />
    <glyph glyph-name="uniFBAB" unicode="&#x6be;" horiz-adv-x="1332" arabic-form="final" 
d="M40 104h191q13 581 434 887q442 -258 442 -555q0 -260 -186 -332v-4q55 4 150 4h292v-104h-301q-84 0 -141 4v-2q225 -70 225 -295q0 -173 -105 -269q-103 -93 -286 -93q-247 0 -382 174q-130 169 -142 481h-191v104zM362 104h270q344 0 344 316q0 221 -303 416
q-308 -255 -311 -732zM364 0q28 -551 406 -551q245 0 245 248q0 130 -109 215q-113 88 -296 88h-246z" />
    <glyph glyph-name="uniFBAC" unicode="&#x6be;" horiz-adv-x="1565" arabic-form="initial" 
d="M0 0v104l331 -1l23 -1q-22 11 -51 54q-49 69 -49 159q0 157 103 248q100 88 266 88q352 0 352 -442v-105h293v54q0 417 -158 602q-151 176 -481 176q-212 0 -434 -70l-15 101q233 71 469 71q372 0 554 -199q194 -212 194 -667v-172h-1397zM850 197q0 356 -238 356
q-110 0 -171 -59q-60 -58 -60 -158q0 -117 76 -178q67 -54 178 -54h215v93z" />
    <glyph glyph-name="uniFBAD" unicode="&#x6be;" horiz-adv-x="1353" arabic-form="medial" 
d="M1384 0h-301q-84 0 -141 4v-2q225 -70 225 -295q0 -173 -105 -269q-103 -93 -286 -93q-247 0 -382 174q-130 169 -142 481h-252v104h252q13 581 434 887q442 -258 442 -555q0 -260 -186 -332v-4q55 4 150 4h292v-104zM383 104h270q344 0 344 316q0 221 -303 416
q-308 -255 -311 -732zM385 0q28 -551 406 -551q245 0 245 248q0 130 -109 215q-113 88 -296 88h-246z" />
    <glyph glyph-name="uniFBAE" unicode="&#x6d2;" horiz-adv-x="1499" arabic-form="isolated" 
d="M150 0q-3 44 -3 87q0 320 159 583q188 313 473 313q315 0 315 -330v-141h-129v96q0 137 -43 200q-49 71 -164 71q-205 0 -348 -262q-131 -237 -131 -513h1104v-104h-1233z" />
    <glyph glyph-name="uniFBAF" unicode="&#x6d2;" horiz-adv-x="1568" arabic-form="final" 
d="M149 -655q-2 28 -2 55q0 279 170 474q201 230 559 230h723v-104h-741q-279 0 -442 -186q-138 -158 -138 -365h1104v-104h-1233z" />
    <glyph glyph-name="uniFBB0" unicode="&#x6d3;" horiz-adv-x="1499" arabic-form="isolated" 
d="M150 0q-3 44 -3 87q0 320 159 583q188 313 473 313q315 0 315 -330v-141h-129v96q0 137 -43 200q-49 71 -164 71q-205 0 -348 -262q-131 -237 -131 -513h1104v-104h-1233zM387 1266q97 0 162 -11q-69 28 -69 111q0 76 54 127q64 59 183 59q41 0 103 -8l-15 -88
q-49 8 -98 8q-123 0 -123 -94q0 -104 170 -104h107v-88h-474v88z" />
    <glyph glyph-name="uniFBB1" unicode="&#x6d3;" horiz-adv-x="1568" arabic-form="final" 
d="M149 -655q-2 28 -2 55q0 279 169 474q201 230 560 230h723v-104h-742q-278 0 -441 -186q-138 -158 -138 -365h1103v-104h-1232zM350 432q97 0 162 -10q-70 27 -70 110q0 77 54 127q64 60 184 60q41 0 102 -9l-14 -88q-49 9 -99 9q-122 0 -122 -95q0 -104 170 -104h106
v-88h-473v88z" />
    <glyph glyph-name="uniFBD3" unicode="&#x6ad;" horiz-adv-x="1734" arabic-form="isolated" 
d="M651 920q97 0 162 -11q-70 28 -70 111q0 76 54 127q64 59 184 59q40 0 102 -8l-14 -88q-50 8 -99 8q-123 0 -123 -94q0 -104 170 -104h107v-89h-473v89zM837 0q-361 0 -528 145q-162 141 -162 443q0 205 74 356l139 25q-84 -168 -84 -363q0 -260 119 -374
q133 -128 463 -128h536v1340h129v-1444h-686zM1363 1849q0 36 25 62q26 26 61 26q88 0 88 -88q0 -37 -25 -63q-26 -26 -63 -26q-86 0 -86 89zM1525 1575q-27 27 -27 65q0 36 27 62q26 26 63 26q88 0 88 -88q0 -37 -25 -64q-26 -26 -63 -26t-63 25zM1249 1575q-25 26 -25 65
q0 36 25 62q26 26 63 26t63 -25q27 -26 27 -63t-27 -64q-26 -26 -63 -26t-63 25z" />
    <glyph glyph-name="uniFBD4" unicode="&#x6ad;" horiz-adv-x="1734" arabic-form="final" 
d="M837 0q-361 0 -528 145q-162 141 -162 443q0 205 74 356l139 25q-84 -168 -84 -363q0 -260 119 -374q133 -128 463 -128h536v1340h129v-1340h240v-104h-926zM651 920q97 0 162 -11q-70 28 -70 111q0 76 54 127q64 59 184 59q40 0 102 -8l-14 -88q-50 8 -99 8
q-123 0 -123 -94q0 -104 170 -104h107v-89h-473v89zM1363 1849q0 36 25 62q26 26 61 26q88 0 88 -88q0 -37 -25 -63q-26 -26 -63 -26q-86 0 -86 89zM1525 1575q-27 27 -27 65q0 36 27 62q26 26 63 26q88 0 88 -88q0 -37 -25 -64q-26 -26 -63 -26t-63 25zM1249 1575
q-25 26 -25 65q0 36 25 62q26 26 63 26t63 -25q27 -26 27 -63t-27 -64q-26 -26 -63 -26t-63 25z" />
    <glyph glyph-name="uniFBD5" unicode="&#x6ad;" horiz-adv-x="999" arabic-form="initial" 
d="M0 104h694q-1 338 -138 521q-130 173 -425 266v98l754 473v-133l-598 -371q274 -111 399 -301q137 -211 137 -577v-80h-823v104zM268 1633q0 36 25 62q26 26 61 26q88 0 88 -88q0 -37 -25 -63q-26 -26 -63 -26q-86 0 -86 89zM430 1359q-27 27 -27 65q0 36 27 62
q26 26 63 26q88 0 88 -88q0 -37 -25 -64q-26 -26 -63 -26t-63 25zM154 1359q-25 26 -25 65q0 36 25 62q26 26 63 26t63 -25q27 -26 27 -63t-27 -64q-26 -26 -63 -26t-63 25z" />
    <glyph glyph-name="uniFBD6" unicode="&#x6ad;" horiz-adv-x="999" arabic-form="medial" 
d="M0 104h694q-1 338 -138 521q-130 173 -425 266v98l754 473v-133l-598 -371q269 -109 394 -295q138 -206 142 -559h207v-104h-1030v104zM268 1633q0 36 25 62q26 26 61 26q88 0 88 -88q0 -37 -25 -63q-26 -26 -63 -26q-86 0 -86 89zM430 1359q-27 27 -27 65q0 36 27 62
q26 26 63 26q88 0 88 -88q0 -37 -25 -64q-26 -26 -63 -26t-63 25zM154 1359q-25 26 -25 65q0 36 25 62q26 26 63 26t63 -25q27 -26 27 -63t-27 -64q-26 -26 -63 -26t-63 25z" />
    <glyph glyph-name="uniFBD7" unicode="&#x6c7;" horiz-adv-x="1196" arabic-form="isolated" 
d="M108 -485l10 114q183 -45 334 -45q418 0 418 353v63h-238q-532 0 -532 481q0 214 125 352q137 150 375 150q213 0 399 -72v-974q0 -186 -121 -308q-149 -149 -444 -149q-160 0 -326 35zM870 825q-115 54 -287 54q-160 0 -254 -104t-94 -279q0 -202 98 -296
q100 -96 322 -96h215v721zM353 1191l164 34q-17 37 -17 78q0 74 51 120q49 44 126 44q62 0 102 -37q41 -37 41 -96q0 -117 -176 -154l-275 -59zM629 1250q111 20 111 78q0 65 -70 65q-88 0 -88 -88q0 -39 17 -61z" />
    <glyph glyph-name="uniFBD8" unicode="&#x6c7;" horiz-adv-x="1234" arabic-form="final" 
d="M130 -485l10 114q183 -45 334 -45q418 0 418 353v63h-238q-532 0 -532 481q0 214 125 352q137 150 375 150q213 0 399 -72v-807h244v-104h-244v-63q0 -186 -121 -308q-149 -149 -444 -149q-160 0 -326 35zM892 825q-115 54 -287 54q-160 0 -254 -104t-94 -279
q0 -202 98 -296q100 -96 322 -96h215v721zM353 1191l164 34q-17 37 -17 78q0 74 51 120q49 44 126 44q62 0 102 -37q41 -37 41 -96q0 -117 -176 -154l-275 -59zM629 1250q111 20 111 78q0 65 -70 65q-88 0 -88 -88q0 -39 17 -61z" />
    <glyph glyph-name="uniFBD9" unicode="&#x6c6;" horiz-adv-x="1196" arabic-form="isolated" 
d="M108 -485l10 114q183 -45 334 -45q418 0 418 353v63h-238q-532 0 -532 481q0 214 125 352q137 150 375 150q213 0 399 -72v-974q0 -186 -121 -308q-149 -149 -444 -149q-160 0 -326 35zM870 825q-115 54 -287 54q-160 0 -254 -104t-94 -279q0 -202 98 -296
q100 -96 322 -96h215v721zM617 1173l-224 258l56 67l170 -180l170 180l54 -63z" />
    <glyph glyph-name="uniFBDA" unicode="&#x6c6;" horiz-adv-x="1234" arabic-form="final" 
d="M130 -485l10 114q183 -45 334 -45q418 0 418 353v63h-238q-532 0 -532 481q0 214 125 352q137 150 375 150q213 0 399 -72v-807h244v-104h-244v-63q0 -186 -121 -308q-149 -149 -444 -149q-160 0 -326 35zM892 825q-115 54 -287 54q-160 0 -254 -104t-94 -279
q0 -202 98 -296q100 -96 322 -96h215v721zM617 1173l-224 258l56 67l170 -180l170 180l54 -63z" />
    <glyph glyph-name="uniFBDB" unicode="&#x6c8;" horiz-adv-x="1196" arabic-form="isolated" 
d="M108 -485l10 114q183 -45 334 -45q418 0 418 353v63h-238q-532 0 -532 481q0 214 125 352q137 150 375 150q213 0 399 -72v-974q0 -186 -121 -308q-149 -149 -444 -149q-160 0 -326 35zM870 825q-115 54 -287 54q-160 0 -254 -104t-94 -279q0 -202 98 -296
q100 -96 322 -96h215v721zM565 1162v461h104v-438z" />
    <glyph glyph-name="uniFBDC" unicode="&#x6c8;" horiz-adv-x="1234" arabic-form="final" 
d="M130 -485l10 114q183 -45 334 -45q418 0 418 353v63h-238q-532 0 -532 481q0 214 125 352q137 150 375 150q213 0 399 -72v-807h244v-104h-244v-63q0 -186 -121 -308q-149 -149 -444 -149q-160 0 -326 35zM892 825q-115 54 -287 54q-160 0 -254 -104t-94 -279
q0 -202 98 -296q100 -96 322 -96h215v721zM565 1162v461h104v-438z" />
    <glyph glyph-name="uniFBDD" unicode="&#x677;" horiz-adv-x="1196" arabic-form="isolated" 
d="M108 -485l10 114q183 -45 334 -45q418 0 418 353v63h-238q-532 0 -532 481q0 214 125 352q137 150 375 150q213 0 399 -72v-974q0 -186 -121 -308q-149 -149 -444 -149q-160 0 -326 35zM870 825q-115 54 -287 54q-160 0 -254 -104t-94 -279q0 -202 98 -296
q100 -96 322 -96h215v721zM661 1264q97 0 162 -11q-70 28 -70 111q0 76 55 127q63 59 183 59q41 0 102 -8l-14 -88q-49 8 -98 8q-123 0 -123 -94q0 -104 170 -104h106v-88h-473v88zM153 1251l164 34q-17 37 -17 78q0 74 51 120q49 44 126 44q62 0 102 -37q41 -37 41 -96
q0 -117 -176 -154l-275 -59zM429 1310q111 20 111 78q0 65 -70 65q-88 0 -88 -88q0 -39 17 -61z" />
    <glyph glyph-name="uniFBDE" unicode="&#x6cb;" horiz-adv-x="1196" arabic-form="isolated" 
d="M108 -485l10 114q183 -45 334 -45q418 0 418 353v63h-238q-532 0 -532 481q0 214 125 352q137 150 375 150q213 0 399 -72v-974q0 -186 -121 -308q-149 -149 -444 -149q-160 0 -326 35zM870 825q-115 54 -287 54q-160 0 -254 -104t-94 -279q0 -202 98 -296
q100 -96 322 -96h215v721zM528 1473q0 36 26 62q25 26 60 26q88 0 88 -88q0 -37 -25 -63q-26 -26 -63 -26q-86 0 -86 89zM690 1199q-26 27 -26 65q0 36 26 62q27 26 64 26q88 0 88 -88q0 -37 -26 -64q-26 -26 -62 -26q-38 0 -64 25zM415 1199q-26 26 -26 65q0 36 26 62
q25 26 62 26q38 0 64 -25q26 -26 26 -63t-26 -64q-27 -26 -64 -26t-62 25z" />
    <glyph glyph-name="uniFBDF" unicode="&#x6cb;" horiz-adv-x="1234" arabic-form="final" 
d="M130 -485l10 114q183 -45 334 -45q418 0 418 353v63h-238q-532 0 -532 481q0 214 125 352q137 150 375 150q213 0 399 -72v-807h244v-104h-244v-63q0 -186 -121 -308q-149 -149 -444 -149q-160 0 -326 35zM892 825q-115 54 -287 54q-160 0 -254 -104t-94 -279
q0 -202 98 -296q100 -96 322 -96h215v721zM528 1473q0 36 26 62q25 26 60 26q88 0 88 -88q0 -37 -25 -63q-26 -26 -63 -26q-86 0 -86 89zM690 1199q-26 27 -26 65q0 36 26 62q27 26 64 26q88 0 88 -88q0 -37 -26 -64q-26 -26 -62 -26q-38 0 -64 25zM415 1199q-26 26 -26 65
q0 36 26 62q25 26 62 26q38 0 64 -25q26 -26 26 -63t-26 -64q-27 -26 -64 -26t-62 25z" />
    <glyph glyph-name="uniFBE0" unicode="&#x6c5;" horiz-adv-x="1196" arabic-form="isolated" 
d="M870 825q-115 54 -287 54q-160 0 -254 -104t-94 -279q0 -202 98 -296q100 -96 322 -96h215v721zM864 -141q6 37 6 78v63h-238q-532 0 -532 481q0 214 125 352q137 150 375 150q213 0 399 -72v-974q0 -186 -121 -308q-149 -149 -444 -149q-160 0 -326 35l10 114
q183 -45 334 -45q291 0 379 171h-436v104h469z" />
    <glyph glyph-name="uniFBE1" unicode="&#x6c5;" horiz-adv-x="1234" arabic-form="final" 
d="M892 825q-115 54 -287 54q-160 0 -254 -104t-94 -279q0 -202 98 -296q100 -96 322 -96h215v721zM886 -141q6 37 6 78v63h-238q-532 0 -532 481q0 214 125 352q137 150 375 150q213 0 399 -72v-807h244v-104h-244v-63q0 -186 -121 -308q-149 -149 -444 -149
q-160 0 -326 35l10 114q183 -45 334 -45q291 0 379 171h-458v104h491z" />
    <glyph glyph-name="uniFBE2" unicode="&#x6c9;" horiz-adv-x="1196" arabic-form="isolated" 
d="M108 -485l10 114q183 -45 334 -45q418 0 418 353v63h-238q-532 0 -532 481q0 214 125 352q137 150 375 150q213 0 399 -72v-974q0 -186 -121 -308q-149 -149 -444 -149q-160 0 -326 35zM870 825q-115 54 -287 54q-160 0 -254 -104t-94 -279q0 -202 98 -296
q100 -96 322 -96h215v721zM843 1236l-54 -63l-170 180l-170 -180l-56 67l224 258z" />
    <glyph glyph-name="uniFBE3" unicode="&#x6c9;" horiz-adv-x="1234" arabic-form="final" 
d="M130 -485l10 114q183 -45 334 -45q418 0 418 353v63h-238q-532 0 -532 481q0 214 125 352q137 150 375 150q213 0 399 -72v-807h244v-104h-244v-63q0 -186 -121 -308q-149 -149 -444 -149q-160 0 -326 35zM892 825q-115 54 -287 54q-160 0 -254 -104t-94 -279
q0 -202 98 -296q100 -96 322 -96h215v721zM843 1236l-54 -63l-170 180l-170 -180l-56 67l224 258z" />
    <glyph glyph-name="uniFBE4" unicode="&#x6d0;" horiz-adv-x="2048" arabic-form="isolated" 
d="M837 0q-361 0 -528 145q-162 141 -162 443q0 205 74 356l139 25q-84 -168 -84 -363q0 -260 119 -374q133 -128 463 -128h200v840q170 39 344 39q240 0 349 -117q100 -107 100 -327v-293h-129v270q0 194 -80 279q-79 84 -256 84q-96 0 -199 -21v-858h-350zM880 -177
q25 -26 25 -61q0 -88 -88 -88q-35 0 -61 25q-27 26 -27 63q0 35 26 61q26 27 62 27q37 0 63 -27zM880 -452q25 -25 25 -61q0 -88 -88 -88q-35 0 -61 26q-27 26 -27 62t26 61t62 25q37 0 63 -25z" />
    <glyph glyph-name="uniFBE5" unicode="&#x6d0;" horiz-adv-x="2048" arabic-form="final" 
d="M837 0q-361 0 -528 145q-162 141 -162 443q0 205 74 356l139 25q-84 -168 -84 -363q0 -260 119 -374q133 -128 463 -128h200v840q170 39 344 39q240 0 349 -117q100 -107 100 -327v-435h227v-104h-356v516q0 194 -80 279q-79 84 -256 84q-96 0 -199 -21v-858h-350z
M880 -177q25 -26 25 -61q0 -88 -88 -88q-35 0 -61 25q-27 26 -27 63q0 35 26 61q26 27 62 27q37 0 63 -27zM880 -452q25 -25 25 -61q0 -88 -88 -88q-35 0 -61 26q-27 26 -27 62t26 61t62 25q37 0 63 -25z" />
    <glyph glyph-name="uniFBE6" unicode="&#x6d0;" horiz-adv-x="757" arabic-form="initial" 
d="M0 104h430v859h129v-963h-559v104zM400 -177q25 -26 25 -61q0 -88 -88 -88q-35 0 -61 25q-27 26 -27 63q0 35 26 61q26 27 62 27q37 0 63 -27zM400 -452q25 -25 25 -61q0 -88 -88 -88q-35 0 -61 26q-27 26 -27 62t26 61t62 25q37 0 63 -25z" />
    <glyph glyph-name="uniFBE7" unicode="&#x6d0;" horiz-adv-x="774" arabic-form="medial" 
d="M0 104h430v859h129v-859h246v-104h-805v104zM400 -177q25 -26 25 -61q0 -88 -88 -88q-35 0 -61 25q-27 26 -27 63q0 35 26 61q26 27 62 27q37 0 63 -27zM400 -452q25 -25 25 -61q0 -88 -88 -88q-35 0 -61 26q-27 26 -27 62t26 61t62 25q37 0 63 -25z" />
    <glyph glyph-name="uniFBE8" unicode="&#x649;" horiz-adv-x="757" arabic-form="initial" 
d="M0 104h430v859h129v-963h-559v104z" />
    <glyph glyph-name="uniFBE9" unicode="&#x649;" horiz-adv-x="753" arabic-form="medial" 
d="M0 104h309v859h131v-859h342v-104h-782v104z" />
    <glyph glyph-name="uniFBFC" unicode="&#x6cc;" horiz-adv-x="2048" arabic-form="isolated" 
d="M837 0q-361 0 -528 145q-162 141 -162 443q0 205 74 356l139 25q-84 -168 -84 -363q0 -260 119 -374q133 -128 463 -128h200v840q170 39 344 39q240 0 349 -117q100 -107 100 -327v-293h-129v270q0 194 -80 279q-79 84 -256 84q-96 0 -199 -21v-858h-350z" />
    <glyph glyph-name="uniFBFD" unicode="&#x6cc;" horiz-adv-x="2048" arabic-form="final" 
d="M837 0q-361 0 -528 145q-162 141 -162 443q0 205 74 356l139 25q-84 -168 -84 -363q0 -260 119 -374q133 -128 463 -128h200v840q170 39 344 39q240 0 349 -117q100 -107 100 -327v-435h227v-104h-356v516q0 194 -80 279q-79 84 -256 84q-96 0 -199 -21v-858h-350z" />
    <glyph glyph-name="uniFBFE" unicode="&#x6cc;" horiz-adv-x="757" arabic-form="initial" 
d="M0 104h430v859h129v-963h-559v104zM512 -369q-27 -26 -63 -26q-38 0 -63 26q-26 26 -26 64q0 37 26 63q26 27 63 27t63 -26q27 -26 27 -64q0 -37 -27 -64zM236 -369q-26 -26 -64 -26q-37 0 -62 26q-26 26 -26 64q0 37 26 63q25 27 62 27q90 0 90 -90q0 -37 -26 -64z" />
    <glyph glyph-name="uniFBFF" unicode="&#x6cc;" horiz-adv-x="774" arabic-form="medial" 
d="M0 104h430v859h129v-859h246v-104h-805v104zM236 -369q-26 -26 -64 -26q-37 0 -62 26q-26 26 -26 64q0 37 26 63q25 27 62 27q90 0 90 -90q0 -37 -26 -64zM512 -369q-27 -26 -63 -26q-38 0 -63 26q-26 26 -26 64q0 37 26 63q26 27 63 27t63 -26q27 -26 27 -64
q0 -37 -27 -64z" />
    <glyph glyph-name="uniFC5E" unicode="&#xfc5e;" horiz-adv-x="0" arabic-form="isolated" 
d="M-51 2032l76 17l37 -172l118 24q-14 39 -14 76q0 73 52 122q51 48 128 48q133 0 133 -123q0 -135 -147 -164l-332 -67zM307 1926q93 19 93 94q0 55 -64 55q-90 0 -90 -94q0 -35 10 -65zM142 1540q-84 0 -106 109l-15 72l72 12l14 -70q12 -53 52 -53q54 0 54 58q0 9 -1 20
l-12 69l69 15l15 -72q11 -59 53 -59q58 0 58 64q0 13 -3 30l-12 72l71 12l13 -72q4 -23 4 -43q0 -49 -25 -83q-38 -50 -118 -50q-47 0 -74 33q-30 -64 -109 -64z" />
    <glyph glyph-name="uniFC5F" unicode="&#xfc5f;" horiz-adv-x="0" arabic-form="isolated" 
d="M35 1733l408 64l14 -70l-409 -63zM56 1594l410 61l10 -69l-408 -64zM125 1834q-87 0 -107 108l-14 72l72 14l14 -70q8 -55 51 -55q54 0 54 52q0 12 -3 26l-10 72l70 12l14 -72q11 -59 53 -59q58 3 58 66q0 13 -2 28l-13 72l72 12l12 -72q4 -23 4 -43q0 -49 -24 -82
q-36 -49 -115 -51q-51 0 -78 33q-30 -63 -108 -63z" />
    <glyph glyph-name="uniFC60" unicode="&#xfc60;" horiz-adv-x="0" arabic-form="isolated" 
d="M2 1907l406 99l12 -69l-406 -100zM149 1550q-84 0 -104 109l-14 72l69 14l15 -72q11 -53 51 -53q55 0 55 53q0 12 -2 25l-10 69l67 15l15 -72q11 -59 53 -59q57 2 57 65q0 13 -2 29l-12 70l72 14l12 -74q5 -23 5 -44q0 -47 -25 -80q-36 -49 -115 -52q-50 0 -78 35
q-30 -64 -109 -64z" />
    <glyph glyph-name="uniFC61" unicode="&#xfc61;" horiz-adv-x="0" arabic-form="isolated" 
d="M142 1540q-85 0 -107 109l-14 72l72 12l14 -70q11 -53 51 -53q55 0 55 57q0 10 -2 21l-12 69l70 15l14 -72q11 -59 53 -59q58 0 58 65q0 13 -2 29l-13 72l72 12l12 -72q4 -23 4 -43q0 -49 -25 -83q-37 -50 -118 -50q-47 0 -74 33q-30 -64 -108 -64zM4 1863l160 32
q-15 37 -15 80q0 73 50 118q48 44 124 44q64 0 104 -37t40 -96q0 -117 -176 -154l-273 -57zM276 1920q111 22 111 80q0 65 -70 65q-86 0 -86 -88q0 -41 15 -63z" />
    <glyph glyph-name="uniFC62" unicode="&#xfc62;" horiz-adv-x="0" arabic-form="isolated" 
d="M60 1627l410 61l10 -69l-407 -62zM126 1736q-87 0 -107 108l-14 72l72 14l14 -70q8 -55 51 -55q54 0 54 52q0 12 -3 26l-10 72l70 12l14 -72q11 -59 53 -59q58 3 58 66q0 13 -2 28l-13 72l72 12l12 -72q4 -23 4 -43q0 -49 -24 -82q-36 -49 -115 -51q-51 0 -78 33
q-30 -63 -108 -63z" />
    <glyph glyph-name="uniFC63" unicode="&#xfc63;" horiz-adv-x="0" arabic-form="isolated" 
d="M121 1523q-87 0 -107 107l-14 72l70 12l14 -68q11 -55 53 -55q54 0 54 52q0 12 -3 26l-10 70l70 14l14 -72q11 -59 53 -59q56 2 56 65q0 13 -2 29l-13 70l74 12l12 -70q4 -22 4 -42q0 -49 -24 -82q-36 -49 -115 -52q-51 0 -78 33q-30 -62 -108 -62zM168 1819v279h72v-255
z" />
    <glyph glyph-name="uniFDF2" unicode="&#xfdf2;" horiz-adv-x="3038" arabic-form="isolated" 
d="M632 0q-532 0 -532 481q0 214 125 352q137 150 375 150q213 0 399 -72v-807h522v1182h131v-1182h519v1340h131v-1444h-1670zM870 825q-115 54 -287 54q-160 0 -254 -104t-94 -279q0 -202 98 -296q100 -96 322 -96h215v721zM1463 1497q-87 0 -107 107l-14 72l70 12l14 -68
q11 -55 53 -55q54 0 54 52q0 12 -3 26l-10 70l70 14l14 -72q11 -59 53 -59q56 2 56 65q0 13 -2 29l-13 70l74 12l12 -70q4 -22 4 -42q0 -49 -24 -82q-36 -49 -115 -52q-51 0 -78 33q-30 -62 -108 -62zM1510 1793v279h72v-255zM2698 1444h131v-1444h-131v1444z" />
    <glyph glyph-name="uniFDFA" unicode="&#xfdfa;" horiz-adv-x="2164" arabic-form="isolated" 
d="M2082 1085q0 -29 -31.5 -79t-64.5 -64q-94 -43 -238 -43q-47 0 -98 4q-49 -97 -78 -97q-8 0 -8 13q0 30 45 96q-86 33 -98 53q-80 -53 -103 -53q15 -287 51.5 -360.5t172.5 -81.5l4 4q-43 32 -43 88q0 69 65 155q49 66 125 66q60 0 109 -35q49 -33 49 -63q-51 18 -107 18
q-73 0 -133 -29q-53 -28 -53 -55q0 -29 51 -80t90 -59q37 4 139.5 36.5t137.5 51.5l-35 -76q-207 -108 -391 -108q-197 0 -244 149q-61 -133 -117 -133q-53 0 -137 90q-131 -115 -403 -115q-82 0 -144 11q8 -68 19 -107q18 -74 47 -102q90 -90 360 -90q234 0 338 65
q31 76 58 76q8 0 8 -16q0 -29 -25 -91q12 -26 55 -26q54 0 101 24q43 136 67 136q9 0 9 -23q0 -37 -21 -88q64 -27 90 -27q15 0 17 7q2 6 -17 79l35 74q25 -74 25 -106q0 -138 -91 -138q-47 0 -98 39q-31 -53 -121 -53q-98 0 -98 53q-39 -28 -131 -49q-104 -22 -248 -22
q-198 0 -293 57q-118 72 -123 258l-45 -66q-34 -51 -53 -53q25 -43 25 -84q0 -51 -33 -86q-16 -16 -43 -16q-41 0 -125 47q-27 -64 -86 -96q-14 -8 -48 -9.5t-44 -5.5l-23 -8q-12 0 -12 10q0 11 49 31q62 25 80 39l70 53q-21 37 -21 82q0 43 37 85t70 42q6 0 12 -4
q37 -20 59 -20q37 0 74 47l47 86q-78 24 -112 55q-62 55 -80 174h-4q-60 -102 -162 -102q-41 0 -80 16q-33 14 -33 25q0 51 88 118q84 64 174 91l-4 34l41 68q17 -221 44.5 -287.5t113.5 -93.5l-27 270l39 88l35 -368q108 -12 195 -12q213 0 362 81q27 78 39 78q8 0 8 -18
q0 -19 -8 -51q74 -72 121 -72q53 0 86 88l-27 330q-151 -6 -180 151h-4q-17 -61 -29 -86q-22 -51 -55 -61l4 -4q143 10 143 -80q0 -60 -51 -94q-174 -121 -328 -121q-94 0 -151 48t-57 134q0 64 32 137q-57 17 -78 88h-4q-30 -104 -112 -104q-101 0 -97 158l-55 -50
q-16 -14 -80 -14q-100 0 -100 37q0 20 27.5 64.5t50.5 54.5l155 76v20l35 74l8 -246q5 -86 66 -86q31 0 60.5 21.5t33.5 46.5l-33 233l37 80l58 -330q18 -43 67 -43q47 0 47 27q0 41 -32 151q-21 66 -41 133l26 68q82 -258 82 -321q0 -41 -20 -91q-23 -57 -52 -57
q-10 0 -18 6q-14 -43 -14 -80q0 -153 186 -153q145 0 291 98q4 4 4 6q0 12 -78 25q-117 18 -125 20q-24 19 27 82q123 51 131 109q2 10 2 28q0 199 -41 473l35 115q49 -434 78 -524q37 -117 147 -135l-10 196l43 92l16 -286q60 20 123 73q51 -36 62 -43q38 -24 79 -30
q43 47 134 112q104 78 143 78q37 0 84 -28q53 -31 53 -68zM2064 194q0 -100 -80 -221q-86 -131 -182 -131q-45 0 -121 32.5t-76 47.5q0 8 10 8q8 0 55.5 -15.5t71.5 -15.5q139 -4 287 217l-14 45q-37 -53 -76 -53q-29 0 -50.5 26.5t-23.5 57.5q-2 47 32 110.5t56 63.5
q27 0 66 -49q45 -55 45 -123zM1986 1499q-72 -25 -238 -105q-196 -96 -196 -125q0 -24 53 -51l-18 -49q-68 22 -68 82q0 61 53 90q260 149 432 209zM974 1105q-6 -135 -26 -149l-52 496l45 116zM1232 266l-53 -64l-98 72l-58 -74l-102 74l59 72l97 -72l55 68zM2025 1050
q0 14 -36 32.5t-54 18.5q-43 0 -123 -49q-64 -39 -96 -69q12 -2 41 -2q83 0 167 16q101 20 101 53zM1294 -58q0 -47 -4 -61q-13 -27 -52 -27q-18 0 -28 8q-31 -32 -62 -32q-16 0 -33.5 17t-25.5 17q-17 0 -76 -35.5t-143 -35.5q-90 0 -90 16q0 14 65 14q72 0 94 5
q29 6 72 32q61 39 82 39q16 0 38.5 -16.5t26.5 -16.5q31 0 37 35q4 27 23 27q8 0 8 -12q0 -9 -2 -19q4 -8 23 -12q24 0 24 24q0 33 23 33zM1668 1634l-12 -45l-399 -197l8 51zM345 729q-180 -72 -180 -107q0 -20 64 -20q67 0 121 49zM663 1552q0 -66 -43 -66q-27 0 -43 17
q-37 -31 -62 -31q-43 0 -43 55q0 41 7 56l12 12q-4 -76 35 -76q22 0 39 33l-5 47l19 29l8 -62q4 -33 31 -33q26 0 22 31l-6 45l15 21q14 -39 14 -78zM386 1187q-41 -18 -84 -34q-67 -31 -69 -50q-2 -22 51 -22q57 0 104 27zM438 112q-9 41 -50 70q-36 28 -69 28
q-29 0 -29 -24q0 -27 53 -55q50 -31 80 -31q17 0 15 12zM2004 210q-12 66 -53 66q-31 0 -41 -51q8 -37 64 -37q26 0 30 22z" />
    <glyph glyph-name="uniFDFB" unicode="&#xfdfb;" horiz-adv-x="2277" arabic-form="isolated" 
d="M2068 536q-15 0 -51.5 7t-75.5 7q-26 0 -58.5 -11.5t-66.5 -28.5q67 -30 135 -53t120 -23l-58 -113q-17 0 -53 7.5t-74 7.5q-36 0 -85 -23.5t-101.5 -55.5t-99.5 -65t-79 -51q-67 -42 -126.5 -69t-138.5 -27q-54 0 -83 20.5t-39 40.5q-10 16 -15 32.5t-11 37.5h-7
q-7 -17 -14 -40t-17 -39q-30 -20 -75 -44.5t-106.5 -45.5t-143.5 -35.5t-189 -14.5q-80 0 -130.5 23.5t-81.5 58t-42 77t-11 76.5q0 90 25 152t58 114l23 -10q-11 -26 -16.5 -47t-10 -41t-6 -40t-1.5 -47q0 -41 15.5 -77.5t45 -63t70 -41t89.5 -14.5q101 0 181.5 13.5
t141 32.5t103 41t63.5 41l-16 242q-26 -40 -49.5 -73.5t-44.5 -55.5q-49 -55 -103 -86t-113 -40q-41 -6 -90.5 -9t-95.5 -7l-4 15q45 17 99.5 41.5t100.5 53.5q25 14 57 38.5t66 51t63.5 54.5t51.5 58q-15 63 -43.5 143.5t-72.5 169.5l15 -194l-44 -163h-258q-34 0 -59.5 15
t-39.5 32q-17 25 -24 67.5t-14 87.5h-11l-57 -81q-84 9 -154 31q-50 17 -66 29.5t-16 33.5q0 10 9 33t22.5 45.5t26.5 44.5t22 31q10 12 46 30t86 42l72 33l-1 62l65 105l14 -160q0 -28 4 -67.5t7 -82.5t7 -81t7 -63q5 -24 11.5 -37t13.5 -20q15 -11 32 -15t42 -7h200
l-36 386q-37 61 -84.5 121t-102.5 113l-7 -48q-40 22 -67.5 41t-48 36.5t-30 35.5t-9.5 40q0 35 8 71.5t11 50.5q36 -19 77 -55t83 -80.5t84 -92t75 -95.5l-33 403q-19 19 -25.5 32t-6.5 24l83 105h6q0 -16 2 -29t11.5 -29.5t31.5 -36t60 -48.5l-79 -104l30 -442
q36 -69 62.5 -136t44.5 -125t28.5 -103t16.5 -69q7 9 12.5 18t12.5 19l-76 1016l74 126q2 -32 7 -102.5t10 -162t11 -198.5t13 -216t11.5 -211t9.5 -183q24 50 41 103t24 83q4 21 6 39.5t5 38.5l-32 678l65 113l58 -1136q2 -16 6 -38t13.5 -42.5t27.5 -36.5t49 -16
q56 0 100 13.5t98 34.5q12 4 24 9.5t26 12.5q-49 21 -90.5 33t-72.5 12q-20 0 -33 -8t-23 -21q-4 -5 -8 -10.5t-9 -10.5l-22 13q15 37 27 65t25.5 45.5t31 26t46.5 8.5q14 0 43 -7.5t62.5 -20.5t70.5 -29t70 -31q42 23 74.5 41.5t53.5 26.5q-36 11 -83.5 34t-97 46.5
t-96.5 38t-77 14.5q-20 0 -34.5 -9t-21.5 -20q-7 -7 -10.5 -12t-5.5 -9l-25 12q16 38 28.5 65.5t26 46.5t30.5 27t46 8q19 0 54.5 -12t78.5 -30t86 -39t78 -35q35 -16 74 -32t76 -28t72.5 -21t64.5 -9zM1130 326q5 -31 13 -60.5t24.5 -52t42.5 -36t58 -13.5q67 0 115 14
t103 44q31 14 78 41.5t94 54t88.5 49.5t62.5 31q-25 9 -52.5 20.5t-57.5 25.5q-29 -18 -54.5 -34t-47.5 -29q-35 -16 -64.5 -33.5t-61.5 -28.5t-66 -18t-76 -7q-27 0 -45 7t-29.5 18t-17.5 22t-12 21q-6 14 -15 66t-15 164q-4 30 -5.5 59.5t-2.5 51.5h-10l-11 -33
q-10 -29 -24 -70t-31 -77q4 -29 5 -54t3 -32zM1837 1182l-477 -202l38 84l477 205zM1566 1463q0 -19 -2 -37t-6 -30q8 -5 17.5 -9.5t22.5 -4.5q32 0 49.5 33.5t21.5 74.5l32 17q0 -34 -3.5 -68.5t-13 -63.5t-33 -49t-63.5 -20q-21 0 -35.5 9t-22.5 17q-5 -11 -13.5 -24.5
t-20 -25.5t-27.5 -19t-38 -7q-21 0 -35.5 14.5t-14.5 64.5q0 14 2.5 28t6.5 29t8.5 27.5t9.5 17.5l17 -10q0 -9 -4 -24.5t-4 -25.5q0 -17 7 -27t29 -10q18 0 32 13t23.5 32t16.5 41.5t13 36.5h28zM453 688l-14 189q-13 -16 -21 -34t-21 -25q-7 -5 -31.5 -16.5t-52 -23
l-55 -23t-40.5 -18.5l-9 -14q53 -19 106 -28.5t119 -20.5zM1965 997q-52 -18 -117 -45t-129 -53l37 84q63 27 125.5 53t119.5 47zM1532 -112l-104 64l68 89l102 -67zM1797 -3l-103 63l67 88l103 -63z" />
    <glyph glyph-name="uniFDFC" unicode="&#xfdfc;" horiz-adv-x="2986" arabic-form="isolated" 
d="M965 1444h131v-1348q0 -292 -140 -440q-124 -129 -335 -129t-337 122q-149 145 -149 441q0 210 51 406l136 26q-56 -209 -56 -420q0 -471 373 -471q326 0 326 451v1362zM1438 0v1444h131v-1340h581v859h129v-963h-841zM1826 -369q-26 -26 -64 -26q-37 0 -62 26
q-26 26 -26 64q0 37 26 63q25 27 62 27q90 0 90 -90q0 -37 -26 -64zM2102 -369q-27 -26 -63 -26q-38 0 -63 26q-26 26 -26 64q0 37 26 63q26 27 63 27t63 -26q27 -26 27 -64q0 -37 -27 -64zM2348 -426q311 0 311 397v992h129v-973q0 -520 -452 -520q-68 0 -131 10l22 106
q60 -12 121 -12z" />
    <glyph glyph-name="uniFE80" unicode="&#x621;" horiz-adv-x="1085" arabic-form="isolated" 
d="M114 102q152 0 283 -8q-133 49 -133 205q0 121 86 201q100 94 288 94q99 0 168 -14l-14 -107q-97 19 -176 19q-221 0 -221 -185q0 -205 307 -205h186v-102h-774v102z" />
    <glyph glyph-name="uniFE81" unicode="&#x622;" horiz-adv-x="548" arabic-form="isolated" 
d="M210 1444h131v-1444h-131v1444zM-40 1720l160 121q-2 1 15 -14q18 -17 39 -30q65 -42 136 -42q125 0 217 92v-118l-15 -14q-19 -14 -42 -26q-73 -38 -166 -38q-117 0 -184 67l-99 -73z" />
    <glyph glyph-name="uniFE82" unicode="&#x622;" horiz-adv-x="548" arabic-form="final" 
d="M210 1444h131v-1340h240v-104h-371v1444zM-40 1720l160 121q-2 1 15 -14q18 -17 39 -30q65 -42 136 -42q125 0 217 92v-118l-15 -14q-19 -14 -42 -26q-73 -38 -166 -38q-117 0 -184 67l-99 -73z" />
    <glyph glyph-name="uniFE83" unicode="&#x623;" horiz-adv-x="548" arabic-form="isolated" 
d="M209 1382h131v-1382h-131v1382zM14 1587q100 0 162 -10q-70 30 -70 111q0 76 54 126q63 58 182 58q63 0 104 -8l-14 -86q-49 8 -101 8q-122 0 -122 -94q0 -105 172 -105h106v-86h-473v86z" />
    <glyph glyph-name="uniFE84" unicode="&#x623;" horiz-adv-x="548" arabic-form="final" 
d="M209 1382h131v-1278h239v-104h-370v1382zM14 1587q100 0 162 -10q-70 30 -70 111q0 76 54 126q63 58 182 58q63 0 104 -8l-14 -86q-49 8 -101 8q-122 0 -122 -94q0 -105 172 -105h106v-86h-473v86z" />
    <glyph glyph-name="uniFE85" unicode="&#x624;" horiz-adv-x="1196" arabic-form="isolated" 
d="M108 -485l10 114q183 -45 334 -45q418 0 418 353v63h-238q-532 0 -532 481q0 214 125 352q137 150 375 150q213 0 399 -72v-974q0 -186 -121 -308q-149 -149 -444 -149q-160 0 -326 35zM870 825q-115 54 -287 54q-160 0 -254 -104t-94 -279q0 -202 98 -296
q100 -96 322 -96h215v721zM321 1264q97 0 162 -11q-70 28 -70 111q0 76 55 127q63 59 183 59q41 0 102 -8l-14 -88q-49 8 -98 8q-123 0 -123 -94q0 -104 170 -104h106v-88h-473v88z" />
    <glyph glyph-name="uniFE86" unicode="&#x624;" arabic-form="final" 
d="M108 -485l10 114q183 -45 334 -45q418 0 418 353v63h-238q-532 0 -532 481q0 214 125 352q137 150 375 150q213 0 399 -72v-807h244v-104h-244v-63q0 -186 -121 -308q-149 -149 -444 -149q-160 0 -326 35zM870 825q-115 54 -287 54q-160 0 -254 -104t-94 -279
q0 -202 98 -296q100 -96 322 -96h215v721zM325 1264q97 0 162 -11q-70 28 -70 111q0 76 55 127q63 59 183 59q41 0 102 -8l-14 -88q-49 8 -98 8q-123 0 -123 -94q0 -104 170 -104h106v-88h-473v88z" />
    <glyph glyph-name="uniFE87" unicode="&#x625;" horiz-adv-x="548" arabic-form="isolated" 
d="M208 1444h131v-1444h-131v1444zM26 -412q96 0 133 -6q-45 26 -45 84q0 69 54 114q57 48 153 48q63 0 106 -10l-14 -88q-49 12 -96 12q-101 0 -101 -74q0 -80 140 -80h121v-86h-451v86z" />
    <glyph glyph-name="uniFE88" unicode="&#x625;" horiz-adv-x="548" arabic-form="final" 
d="M208 1444h131v-1340h240v-104h-371v1444zM22 -412q96 0 133 -6q-45 26 -45 84q0 69 54 114q57 48 153 48q63 0 106 -10l-14 -88q-49 12 -96 12q-101 0 -101 -74q0 -80 140 -80h121v-86h-451v86z" />
    <glyph glyph-name="uniFE89" unicode="&#x626;" horiz-adv-x="2048" arabic-form="isolated" 
d="M837 0q-361 0 -528 145q-162 141 -162 443q0 205 74 356l139 25q-84 -168 -84 -363q0 -260 119 -374q133 -128 463 -128h200v840q170 39 345 39q239 0 348 -117q100 -107 100 -327v-293h-129v270q0 194 -80 279q-79 84 -256 84q-96 0 -199 -21v-858h-350zM100 1266
q97 0 162 -11q-70 28 -70 111q0 76 54 127q64 59 184 59q41 0 102 -8l-14 -88q-49 8 -99 8q-122 0 -122 -94q0 -104 170 -104h106v-88h-473v88z" />
    <glyph glyph-name="uniFE8A" unicode="&#x626;" horiz-adv-x="2048" arabic-form="final" 
d="M100 1266q97 0 162 -11q-70 28 -70 111q0 76 54 127q64 59 184 59q41 0 102 -8l-14 -88q-49 8 -99 8q-122 0 -122 -94q0 -104 170 -104h106v-88h-473v88zM837 0q-361 0 -528 145q-162 141 -162 443q0 205 74 356l139 25q-84 -168 -84 -363q0 -260 119 -374
q133 -128 463 -128h200v840q170 39 345 39q239 0 348 -117q100 -107 100 -327v-435h227v-104h-356v516q0 194 -80 279q-79 84 -256 84q-96 0 -199 -21v-858h-350z" />
    <glyph glyph-name="uniFE8B" unicode="&#x626;" horiz-adv-x="636" arabic-form="initial" 
d="M86 1255q97 0 162 -10q-70 27 -70 111q0 76 54 127q64 59 184 59q41 0 102 -8l-14 -88q-49 8 -98 8q-123 0 -123 -94q0 -105 170 -105h106v-88h-473v88zM0 104h309v859h131v-963h-440v104z" />
    <glyph glyph-name="uniFE8C" unicode="&#x626;" horiz-adv-x="653" arabic-form="medial" 
d="M0 104h309v859h131v-859h244v-104h-684v104zM86 1266q97 0 162 -11q-70 28 -70 111q0 76 54 127q64 59 184 59q41 0 102 -8l-14 -88q-49 8 -98 8q-123 0 -123 -94q0 -104 170 -104h106v-88h-473v88z" />
    <glyph glyph-name="uniFE8D" unicode="&#x627;" horiz-adv-x="548" arabic-form="isolated" 
d="M208 1444h131v-1444h-131v1444z" />
    <glyph glyph-name="uniFE8E" unicode="&#x627;" horiz-adv-x="548" arabic-form="final" 
d="M208 1444h131v-1340h240v-104h-371v1444z" />
    <glyph glyph-name="uniFE8F" unicode="&#x628;" horiz-adv-x="1583" arabic-form="isolated" 
d="M837 0q-361 0 -528 145q-162 141 -162 443q0 205 74 356l139 25q-84 -168 -84 -363q0 -260 119 -374q133 -128 463 -128h397v859h129v-963h-547zM741 -371q-27 26 -27 64q0 37 27 63q27 27 63 27q38 0 64 -26q27 -26 27 -64q0 -37 -27 -64q-27 -26 -64 -26t-63 26z" />
    <glyph glyph-name="uniFE90" unicode="&#x628;" horiz-adv-x="1599" arabic-form="final" 
d="M837 0q-361 0 -528 145q-162 141 -162 443q0 205 74 356l139 25q-84 -168 -84 -363q0 -260 119 -374q133 -128 463 -128h397v859h129v-859h246v-104h-793zM741 -371q-27 26 -27 64q0 37 27 63q27 27 63 27q38 0 64 -26q27 -26 27 -64q0 -37 -27 -64q-27 -26 -64 -26
t-63 26z" />
    <glyph glyph-name="uniFE91" unicode="&#x628;" horiz-adv-x="636" arabic-form="initial" 
d="M0 104h309v859h131v-963h-440v104zM184 -371q-26 26 -26 64q0 37 26 63q27 27 64 27t63 -26q27 -26 27 -64q0 -37 -27 -64q-26 -26 -63 -26t-64 26z" />
    <glyph glyph-name="uniFE92" unicode="&#x628;" horiz-adv-x="653" arabic-form="medial" 
d="M0 104h309v859h131v-859h244v-104h-684v104zM184 -371q-26 26 -26 64q0 37 26 63q27 27 64 27t63 -26q27 -26 27 -64q0 -37 -27 -64q-26 -26 -63 -26t-64 26z" />
    <glyph glyph-name="uniFE93" unicode="&#x629;" horiz-adv-x="1216" arabic-form="isolated" 
d="M632 0q-532 0 -532 479q0 214 126 354q136 150 372 150q422 0 422 -451v-532h-388zM891 502q0 377 -308 377q-161 0 -254 -105q-94 -103 -94 -280q0 -201 98 -294q100 -96 322 -96h236v398zM662 1199q-25 26 -25 65q0 36 25 62q26 26 63 26t63 -25q27 -26 27 -63t-27 -64
q-26 -26 -63 -26t-63 25zM386 1199q-26 26 -26 65q0 36 26 62q25 26 62 26q90 0 90 -88q0 -38 -26 -64t-64 -26q-37 0 -62 25z" />
    <glyph glyph-name="uniFE94" unicode="&#x629;" arabic-form="final" 
d="M632 0q-532 0 -532 481q0 214 125 352q137 150 375 150q213 0 399 -72v-807h244v-104h-611zM870 825q-115 54 -287 54q-160 0 -254 -104t-94 -279q0 -202 98 -296q100 -96 322 -96h215v721zM662 1199q-25 26 -25 65q0 36 25 62q26 26 63 26t63 -25q27 -26 27 -63t-27 -64
q-26 -26 -63 -26t-63 25zM386 1199q-26 26 -26 65q0 36 26 62q25 26 62 26q90 0 90 -88q0 -38 -26 -64t-64 -26q-37 0 -62 25z" />
    <glyph glyph-name="uniFE95" unicode="&#x62a;" horiz-adv-x="1583" arabic-form="isolated" 
d="M837 0q-361 0 -528 145q-162 141 -162 443q0 205 74 356l139 25q-84 -168 -84 -363q0 -260 119 -374q133 -128 463 -128h397v859h129v-963h-547zM896 1199q-26 26 -26 65q0 36 26 62q25 26 62 26t63 -25q27 -26 27 -63t-27 -64q-26 -26 -63 -26t-62 25zM619 1199
q-26 26 -26 65q0 36 26 62t63 26q90 0 90 -88q0 -38 -26 -64t-64 -26q-37 0 -63 25z" />
    <glyph glyph-name="uniFE96" unicode="&#x62a;" horiz-adv-x="1599" arabic-form="final" 
d="M837 0q-361 0 -528 145q-162 141 -162 443q0 205 74 356l139 25q-84 -168 -84 -363q0 -260 119 -374q133 -128 463 -128h397v859h129v-859h246v-104h-793zM619 1199q-26 26 -26 65q0 36 26 62t63 26q90 0 90 -88q0 -38 -26 -64t-64 -26q-37 0 -63 25zM896 1199
q-26 26 -26 65q0 36 26 62q25 26 62 26t63 -25q27 -26 27 -63t-27 -64q-26 -26 -63 -26t-62 25z" />
    <glyph glyph-name="uniFE97" unicode="&#x62a;" horiz-adv-x="636" arabic-form="initial" 
d="M0 104h309v859h131v-963h-440v104zM419 1199q-26 26 -26 65q0 36 26 62q25 26 62 26q38 0 64 -25q26 -26 26 -63t-26 -64q-27 -26 -64 -26t-62 25zM142 1199q-25 26 -25 65q0 36 25 62q26 26 63 26q90 0 90 -88q0 -38 -26 -64t-64 -26q-37 0 -63 25z" />
    <glyph glyph-name="uniFE98" unicode="&#x62a;" horiz-adv-x="636" arabic-form="medial" 
d="M0 104h309v859h131v-859h228v-104h-668v104zM142 1199q-25 26 -25 65q0 36 25 62q26 26 63 26q90 0 90 -88q0 -38 -26 -64t-64 -26q-37 0 -63 25zM419 1199q-26 26 -26 65q0 36 26 62q25 26 62 26q38 0 64 -25q26 -26 26 -63t-26 -64q-27 -26 -64 -26t-62 25z" />
    <glyph glyph-name="uniFE99" unicode="&#x62b;" horiz-adv-x="1583" arabic-form="isolated" 
d="M837 0q-361 0 -528 145q-162 141 -162 443q0 205 74 356l139 25q-84 -168 -84 -363q0 -260 119 -374q133 -128 463 -128h397v859h129v-963h-547zM735 1473q0 36 25 62t61 26q88 0 88 -88q0 -37 -26 -63q-25 -26 -62 -26q-86 0 -86 89zM897 1199q-27 27 -27 65q0 36 27 62
q26 26 63 26q88 0 88 -88q0 -37 -25 -64q-26 -26 -63 -26t-63 25zM621 1199q-25 26 -25 65q0 36 25 62q26 26 63 26t63 -25q27 -26 27 -63t-27 -64q-27 -26 -63 -26q-37 0 -63 25z" />
    <glyph glyph-name="uniFE9A" unicode="&#x62b;" horiz-adv-x="1599" arabic-form="final" 
d="M837 0q-361 0 -528 145q-162 141 -162 443q0 205 74 356l139 25q-84 -168 -84 -363q0 -260 119 -374q133 -128 463 -128h397v859h129v-859h246v-104h-793zM621 1199q-25 26 -25 65q0 36 25 62q26 26 63 26t63 -25q27 -26 27 -63t-27 -64q-27 -26 -63 -26q-37 0 -63 25z
M897 1199q-27 27 -27 65q0 36 27 62q26 26 63 26q88 0 88 -88q0 -37 -25 -64q-26 -26 -63 -26t-63 25zM735 1473q0 36 25 62t61 26q88 0 88 -88q0 -37 -26 -63q-25 -26 -62 -26q-86 0 -86 89z" />
    <glyph glyph-name="uniFE9B" unicode="&#x62b;" horiz-adv-x="636" arabic-form="initial" 
d="M0 104h309v859h131v-963h-440v104zM256 1473q0 36 25 62q26 26 61 26q88 0 88 -88q0 -37 -26 -63q-25 -26 -62 -26q-86 0 -86 89zM418 1199q-27 27 -27 65q0 36 27 62q26 26 63 26q88 0 88 -88q0 -37 -25 -64q-26 -26 -63 -26t-63 25zM142 1199q-25 26 -25 65q0 36 25 62
q26 26 63 26t63 -25q27 -26 27 -63t-27 -64q-26 -26 -63 -26t-63 25z" />
    <glyph glyph-name="uniFE9C" unicode="&#x62b;" horiz-adv-x="653" arabic-form="medial" 
d="M0 104h309v859h131v-859h244v-104h-684v104zM142 1199q-25 26 -25 65q0 36 25 62q26 26 63 26t63 -25q27 -26 27 -63t-27 -64q-26 -26 -63 -26t-63 25zM418 1199q-27 27 -27 65q0 36 27 62q26 26 63 26q88 0 88 -88q0 -37 -25 -64q-26 -26 -63 -26t-63 25zM256 1473
q0 36 25 62q26 26 61 26q88 0 88 -88q0 -37 -26 -63q-25 -26 -62 -26q-86 0 -86 89z" />
    <glyph glyph-name="uniFE9D" unicode="&#x62c;" horiz-adv-x="1208" arabic-form="isolated" 
d="M651 0q-473 0 -473 -276q0 -118 104 -193q114 -82 314 -82l-8 -104q-258 0 -404 108q-135 100 -135 256q0 395 612 395h246q16 141 16 250q0 268 -104 385q-111 125 -379 125q-112 0 -221 -14v102q123 17 233 17q324 0 468 -153q135 -143 135 -445q0 -162 -35 -371h-369z
M659 -371q-26 26 -26 64q0 37 26 63q27 27 64 27t63 -26q27 -26 27 -64q0 -37 -27 -64q-26 -26 -63 -26t-64 26z" />
    <glyph glyph-name="uniFE9E" unicode="&#x62c;" horiz-adv-x="1196" arabic-form="final" 
d="M651 0q-473 0 -473 -276q0 -118 104 -193q114 -82 314 -82l-8 -104q-258 0 -404 108q-135 100 -135 256q0 395 612 395h246q16 141 16 250q0 268 -104 385q-111 125 -379 125q-112 0 -221 -14v102q123 17 233 17q324 0 468 -153q135 -143 135 -445q0 -120 -21 -267h193
v-104h-576zM659 -371q-26 26 -26 64q0 37 26 63q27 27 64 27t63 -26q27 -26 27 -64q0 -37 -27 -64q-26 -26 -63 -26t-64 26z" />
    <glyph glyph-name="uniFE9F" unicode="&#x62c;" horiz-adv-x="1183" arabic-form="initial" 
d="M0 104h883q18 133 18 250q0 268 -105 385q-112 125 -378 125q-112 0 -221 -14v102q118 17 231 17q324 0 468 -153q134 -143 134 -445q0 -174 -33 -371h-997v104zM420 -371q-27 26 -27 64q0 37 27 63q26 27 63 27q38 0 64 -26t26 -64q0 -37 -26 -64q-27 -26 -64 -26
t-63 26z" />
    <glyph glyph-name="uniFEA0" unicode="&#x62c;" horiz-adv-x="1193" arabic-form="medial" 
d="M0 104h883q18 133 18 250q0 268 -105 385q-112 125 -378 125q-112 0 -221 -14v102q118 17 231 17q324 0 468 -153q134 -143 134 -445q0 -135 -18 -267h213v-104h-1225v104zM420 -371q-27 26 -27 64q0 37 27 63q26 27 63 27q38 0 64 -26t26 -64q0 -37 -26 -64
q-27 -26 -64 -26t-63 26z" />
    <glyph glyph-name="uniFEA1" unicode="&#x62d;" horiz-adv-x="1204" arabic-form="isolated" 
d="M184 -551q-135 98 -135 260q0 395 612 395h242q18 133 18 250q0 268 -105 385q-111 125 -378 125q-112 0 -221 -14v102q119 17 231 17q324 0 468 -153q134 -143 134 -445q0 -174 -32 -371h-367q-473 0 -473 -276q0 -122 105 -196q112 -79 315 -79q177 0 381 45l12 -102
q-206 -47 -403 -47q-260 0 -404 104z" />
    <glyph glyph-name="uniFEA2" unicode="&#x62d;" horiz-adv-x="1214" arabic-form="final" 
d="M651 0q-473 0 -473 -276q0 -122 105 -196q112 -79 315 -79q177 0 381 45l12 -102q-206 -47 -403 -47q-260 0 -404 104q-135 98 -135 260q0 395 612 395h242q18 133 18 250q0 268 -105 385q-111 125 -378 125q-112 0 -221 -14v102q119 17 231 17q324 0 468 -153
q134 -143 134 -445q0 -135 -18 -267h213v-104h-594z" />
    </font>
</defs>
</svg>
