<?xml version="1.0" standalone="no"?>
<!DOCTYPE svg PUBLIC "-//W3C//DTD SVG 1.1//EN" "http://www.w3.org/Graphics/SVG/1.1/DTD/svg11.dtd" >
<svg xmlns="http://www.w3.org/2000/svg" xmlns:xlink="http://www.w3.org/1999/xlink" version="1.1">
<metadata>
Created by FontForge 20170731 at Mon Oct 24 05:11:30 2016
 By Aleksey,,,
(c)  2013 Bahij Virtual Academy. All rights reserved.
</metadata>
<defs>
<font id="BahijTheSansArabic-SemiLight" horiz-adv-x="1181" >
  <font-face 
    font-family="Bahij TheSansArabic SemiLight"
    font-weight="400"
    font-stretch="normal"
    units-per-em="2048"
    panose-1="2 4 5 3 5 2 1 2 2 3"
    ascent="1638"
    descent="-410"
    x-height="1018"
    cap-height="1382"
    bbox="-462 -1029 5731 2343"
    underline-thickness="50"
    underline-position="-150"
    unicode-range="U+0020-FEFC"
  />
<missing-glyph horiz-adv-x="728" 
d="M0 0v1020h728v-1020h-728zM117 947l247 -372l248 372h-495zM655 881l-247 -371l247 -372v743zM612 73l-248 371l-247 -371h495zM73 138l247 372l-247 371v-743z" />
    <glyph glyph-name="uniFB01" unicode="fi" horiz-adv-x="1204" 
d="M864 0v897h-475v-897h-154v897h-221v121h221v49q0 438 463 438q139 0 277 -37l-31 -129q-127 41 -248 41q-307 0 -307 -293v-69h629v-1018h-154z" />
    <glyph glyph-name="uniFB02" unicode="fl" horiz-adv-x="1204" 
d="M864 0v1366q-102 16 -188 16q-287 0 -287 -258v-106h297v-121h-297v-897h-154v897h-221v121h221v125q0 362 455 362q154 0 328 -26v-1479h-154z" />
    <glyph glyph-name="uniFC31" unicode="&#xfed3;&#xfef0;" horiz-adv-x="3263" arabic-form="isolated" 
d="M2923 498q0 362 -290 362q-153 0 -242 -99q-88 -99 -88 -265q0 -191 94 -280q95 -91 305 -91h221v373zM1708 0v514q0 185 -75 266q-74 80 -240 80q-93 0 -187 -20v-840h-364q-370 0 -540 148q-163 143 -163 444q0 197 70 348l168 31q-82 -164 -82 -359q0 -253 117 -364
q130 -123 450 -123h191v821q172 39 356 39q243 0 352 -118q101 -108 101 -328v-414h328q72 0 119 -8q-166 100 -166 366q0 212 128 351q138 151 376 151q430 0 430 -455v-530h-1369zM2557 1231q-29 29 -29 72q0 41 29 69q28 29 69 29q42 0 70 -29q29 -28 29 -69
q0 -42 -29 -71q-28 -30 -70 -30q-41 0 -69 29z" />
    <glyph glyph-name="uniFC32" unicode="&#xfed3;&#xfef2;" horiz-adv-x="3263" arabic-form="isolated" 
d="M1028 -375q-29 -28 -70 -28q-40 0 -69 27q-29 29 -29 71q0 40 29 69q30 29 69 29q41 0 70 -28q29 -29 29 -70t-29 -70zM740 -375q-29 -28 -70 -28t-68 27q-29 28 -29 71q0 40 29 69q28 29 68 29q41 0 70 -28q28 -29 28 -70q0 -42 -28 -70zM2923 498q0 362 -290 362
q-153 0 -242 -99q-88 -99 -88 -265q0 -191 94 -280q95 -91 305 -91h221v373zM1708 0v514q0 185 -75 266q-74 80 -240 80q-93 0 -187 -20v-840h-364q-370 0 -540 148q-163 143 -163 444q0 197 70 348l168 31q-82 -164 -82 -359q0 -253 117 -364q130 -123 450 -123h191v821
q172 39 356 39q243 0 352 -118q101 -108 101 -328v-414h328q72 0 119 -8q-166 100 -166 366q0 212 128 351q138 151 376 151q430 0 430 -455v-530h-1369zM2557 1231q-29 29 -29 72q0 41 29 69q28 29 69 29q42 0 70 -29q29 -28 29 -69q0 -42 -29 -71q-28 -30 -70 -30
q-41 0 -69 29z" />
    <glyph glyph-name="uniFC43" unicode="&#xfedf;&#xfef0;" horiz-adv-x="2667" arabic-form="isolated" 
d="M1708 0v514q0 185 -75 266q-74 80 -241 80q-92 0 -186 -20v-840h-365q-369 0 -539 148q-163 143 -163 444q0 197 70 348l168 31q-82 -164 -82 -359q0 -253 117 -364q130 -123 450 -123h190v821q172 39 357 39q242 0 352 -118q100 -108 100 -328v-414h448v1319h156v-1444
h-757z" />
    <glyph glyph-name="uniFC44" unicode="&#xfedf;&#xfef2;" horiz-adv-x="2667" arabic-form="isolated" 
d="M1027 -375q-29 -28 -69 -28t-69 27q-29 29 -29 71q0 40 29 69t69 29t69 -28q30 -29 30 -70t-30 -70zM739 -375q-28 -28 -70 -28q-40 0 -68 27q-28 28 -28 71q0 40 28 69q29 29 68 29q42 0 70 -28q29 -29 29 -70q0 -42 -29 -70zM1708 0v514q0 185 -75 266q-74 80 -241 80
q-92 0 -186 -20v-840h-365q-369 0 -539 148q-163 143 -163 444q0 197 70 348l168 31q-82 -164 -82 -359q0 -253 117 -364q130 -123 450 -123h190v821q172 39 357 39q242 0 352 -118q100 -108 100 -328v-414h448v1319h156v-1444h-757z" />
    <glyph glyph-name="uniFC64" unicode="&#xfe8c;&#xfeae;" horiz-adv-x="1521" arabic-form="final" 
d="M684 0v-10q0 -518 -463 -518q-114 0 -231 32l23 131q112 -41 221 -41q145 0 214 82q79 90 79 297v990h157v-838h475v838h156v-838h237v-125h-868zM946 1268q92 0 154 -11q-64 28 -64 105q0 81 57 133q65 61 191 61q51 0 105 -8l-15 -100q-45 8 -100 8q-119 0 -119 -90
q0 -98 166 -98h108v-101h-483v101z" />
    <glyph glyph-name="uniFC67" unicode="&#xfe8c;&#xfee6;" horiz-adv-x="1976" arabic-form="final" 
d="M550 813q-29 29 -29 72q0 41 29 70q28 28 70 28q41 0 69 -28q29 -29 29 -70q0 -42 -29 -71q-28 -30 -69 -30q-42 0 -70 29zM1140 0q-43 -473 -523 -473q-218 0 -346 125q-149 145 -149 442q0 213 49 398l162 30q-55 -206 -55 -413q0 -250 115 -366q91 -91 243 -91
q352 0 352 426v885h156v-838h470v838h156v-838h237v-125h-867zM1401 1268q92 0 154 -11q-64 28 -64 105q0 81 57 133q65 61 191 61q51 0 105 -8l-15 -100q-45 8 -100 8q-119 0 -119 -90q0 -98 166 -98h108v-101h-483v101z" />
    <glyph glyph-name="uniFC6A" unicode="&#xfe92;&#xfeae;" horiz-adv-x="1521" arabic-form="final" 
d="M684 0v-10q0 -518 -463 -518q-114 0 -231 32l23 131q112 -41 221 -41q145 0 214 82q79 90 79 297v990h157v-838h475v838h156v-838h237v-125h-868zM1036 -378q-28 28 -28 71q0 41 28 70q28 28 70 28t70 -28t28 -70t-28 -70q-29 -29 -70 -29q-42 0 -70 28z" />
    <glyph glyph-name="uniFC70" unicode="&#xfe98;&#xfeae;" horiz-adv-x="1521" arabic-form="final" 
d="M684 0v-10q0 -518 -463 -518q-114 0 -231 32l23 131q112 -41 221 -41q145 0 214 82q79 90 79 297v990h157v-838h475v838h156v-838h237v-125h-868zM1279 1192q-28 28 -28 70q0 41 28 69q28 29 69 29t69 -29q29 -28 29 -69t-29 -70q-28 -29 -69 -29t-69 29zM991 1192
q-28 28 -28 70q0 41 28 69q28 29 70 29q40 0 69 -29q29 -28 29 -69q0 -40 -29 -70q-29 -29 -69 -29q-42 0 -70 29z" />
    <glyph glyph-name="uniFC86" unicode="&#xfee0;&#xfef0;" horiz-adv-x="2677" arabic-form="final" 
d="M1708 0v514q0 185 -75 266q-74 80 -241 80q-92 0 -186 -20v-840h-365q-369 0 -539 148q-163 143 -163 444q0 197 70 348l168 31q-82 -164 -82 -359q0 -253 117 -364q130 -123 450 -123h190v821q172 39 357 39q242 0 352 -118q100 -108 100 -328v-414h458v1319h156v-1319
h233v-125h-1000z" />
    <glyph glyph-name="uniFC87" unicode="&#xfee0;&#xfef2;" horiz-adv-x="2677" arabic-form="final" 
d="M1027 -375q-29 -28 -69 -28t-69 27q-29 29 -29 71q0 40 29 69t69 29t69 -28q30 -29 30 -70t-30 -70zM739 -375q-28 -28 -70 -28q-40 0 -68 27q-28 28 -28 71q0 40 28 69q29 29 68 29q42 0 70 -28q29 -29 29 -70q0 -42 -29 -70zM1708 0v514q0 185 -75 266q-74 80 -241 80
q-92 0 -186 -20v-840h-365q-369 0 -539 148q-163 143 -163 444q0 197 70 348l168 31q-82 -164 -82 -359q0 -253 117 -364q130 -123 450 -123h190v821q172 39 357 39q242 0 352 -118q100 -108 100 -328v-414h458v1319h156v-1319h233v-125h-1000z" />
    <glyph glyph-name="uniFCCC" unicode="&#xfedf;&#xfee4;" horiz-adv-x="1947" arabic-form="initial" 
d="M996 498q0 362 -291 362q-152 0 -241 -99q-88 -99 -88 -265q0 -191 93 -280q96 -91 306 -91h221v373zM777 0q-365 0 -479 207q-47 -207 -307 -207h-31v125q126 0 184 67q72 83 72 291q0 212 127 351q139 151 377 151q430 0 430 -455v-405h439v1319h156v-1444h-968z" />
    <glyph glyph-name="uniFCFB" unicode="&#xfeb3;&#xfef0;" horiz-adv-x="3787" arabic-form="isolated" 
d="M1708 0v514q0 185 -75 266q-74 80 -241 80q-92 0 -186 -20v-840h-365q-369 0 -539 148q-163 143 -163 444q0 197 70 348l168 31q-82 -164 -82 -359q0 -253 117 -364q130 -123 450 -123h190v821q172 39 357 39q242 0 352 -118q100 -108 100 -328v-414h243q117 0 167 62
q54 66 54 227v426h156v-371q0 -199 24 -262q36 -96 160 -96q111 0 165 70q64 85 64 286v455h152v-529q0 -170 72 -223q62 -45 250 -45h71q19 162 19 301q0 315 -72 569l152 31q75 -277 75 -586q0 -214 -34 -440h-191q-209 0 -300 36q-96 36 -138 138q-62 -188 -312 -188
q-212 0 -258 182q-60 -168 -278 -168h-394z" />
    <glyph glyph-name="uniFCFC" unicode="&#xfeb3;&#xfef2;" horiz-adv-x="3787" arabic-form="isolated" 
d="M1027 -375q-29 -28 -69 -28t-69 27q-29 29 -29 71q0 40 29 69t69 29t69 -28q30 -29 30 -70t-30 -70zM739 -375q-28 -28 -70 -28q-40 0 -68 27q-28 28 -28 71q0 40 28 69q29 29 68 29q42 0 70 -28q29 -29 29 -70q0 -42 -29 -70zM1708 0v514q0 185 -75 266q-74 80 -241 80
q-92 0 -186 -20v-840h-365q-369 0 -539 148q-163 143 -163 444q0 197 70 348l168 31q-82 -164 -82 -359q0 -253 117 -364q130 -123 450 -123h190v821q172 39 357 39q242 0 352 -118q100 -108 100 -328v-414h243q117 0 167 62q54 66 54 227v426h156v-371q0 -199 24 -262
q36 -96 160 -96q111 0 165 70q64 85 64 286v455h152v-529q0 -170 72 -223q62 -45 250 -45h71q19 162 19 301q0 315 -72 569l152 31q75 -277 75 -586q0 -214 -34 -440h-191q-209 0 -300 36q-96 36 -138 138q-62 -188 -312 -188q-212 0 -258 182q-60 -168 -278 -168h-394z" />
    <glyph glyph-name="uniFCFD" unicode="&#xfeb7;&#xfef0;" horiz-adv-x="3787" arabic-form="isolated" 
d="M1708 0v514q0 185 -75 266q-74 80 -241 80q-92 0 -186 -20v-840h-365q-369 0 -539 148q-163 143 -163 444q0 197 70 348l168 31q-82 -164 -82 -359q0 -253 117 -364q130 -123 450 -123h190v821q172 39 357 39q242 0 352 -118q100 -108 100 -328v-414h243q117 0 167 62
q54 66 54 227v426h156v-371q0 -199 24 -262q36 -96 160 -96q111 0 165 70q64 85 64 286v455h152v-529q0 -170 72 -223q62 -45 250 -45h71q19 162 19 301q0 315 -72 569l152 31q75 -277 75 -586q0 -214 -34 -440h-191q-209 0 -300 36q-96 36 -138 138q-62 -188 -312 -188
q-212 0 -258 182q-60 -168 -278 -168h-394zM2749 1192q-29 28 -29 70q0 41 29 69q28 29 70 29q40 0 69 -29q29 -28 29 -69q0 -40 -29 -70q-29 -29 -69 -29q-42 0 -70 29zM3037 1192q-28 28 -28 70q0 41 28 69q28 29 68 29q42 0 70 -29q29 -28 29 -69t-29 -70
q-28 -29 -70 -29q-40 0 -68 29zM2895 1416q-27 27 -27 69q0 40 27 68t67 28t67 -28t27 -68t-27 -68t-67 -28t-67 27z" />
    <glyph glyph-name="uniFCFE" unicode="&#xfeb7;&#xfef2;" horiz-adv-x="3787" arabic-form="isolated" 
d="M1027 -375q-29 -28 -69 -28t-69 27q-29 29 -29 71q0 40 29 69t69 29t69 -28q30 -29 30 -70t-30 -70zM739 -375q-28 -28 -70 -28q-40 0 -68 27q-28 28 -28 71q0 40 28 69q29 29 68 29q42 0 70 -28q29 -29 29 -70q0 -42 -29 -70zM1708 0v514q0 185 -75 266q-74 80 -241 80
q-92 0 -186 -20v-840h-365q-369 0 -539 148q-163 143 -163 444q0 197 70 348l168 31q-82 -164 -82 -359q0 -253 117 -364q130 -123 450 -123h190v821q172 39 357 39q242 0 352 -118q100 -108 100 -328v-414h243q117 0 167 62q54 66 54 227v426h156v-371q0 -199 24 -262
q36 -96 160 -96q111 0 165 70q64 85 64 286v455h152v-529q0 -170 72 -223q62 -45 250 -45h71q19 162 19 301q0 315 -72 569l152 31q75 -277 75 -586q0 -214 -34 -440h-191q-209 0 -300 36q-96 36 -138 138q-62 -188 -312 -188q-212 0 -258 182q-60 -168 -278 -168h-394z
M2749 1192q-29 28 -29 70q0 41 29 69q28 29 70 29q40 0 69 -29q29 -28 29 -69q0 -40 -29 -70q-29 -29 -69 -29q-42 0 -70 29zM3037 1192q-28 28 -28 70q0 41 28 69q28 29 68 29q42 0 70 -29q29 -28 29 -69t-29 -70q-28 -29 -70 -29q-40 0 -68 29zM2895 1416q-27 27 -27 69
q0 40 27 68t67 28t67 -28t27 -68t-27 -68t-67 -28t-67 27z" />
    <glyph glyph-name="uniFD05" unicode="&#xfebb;&#xfef0;" horiz-adv-x="3511" arabic-form="isolated" 
d="M2850 125q407 0 407 381q0 354 -268 354q-214 0 -369 -238q-140 -214 -165 -497h395zM1708 0v514q0 185 -75 266q-74 80 -240 80q-93 0 -187 -20v-840h-364q-370 0 -540 148q-163 143 -163 444q0 197 70 348l168 31q-82 -164 -82 -359q0 -253 117 -364q130 -123 450 -123
h191v821q172 39 356 39q243 0 352 -118q101 -108 101 -328v-414h439v838h158v-93q0 -225 -23 -391h2q72 242 235 378q154 128 345 128q190 0 295 -122q104 -122 104 -345q0 -230 -129 -363q-150 -155 -457 -155h-1123z" />
    <glyph glyph-name="uniFD06" unicode="&#xfebb;&#xfef2;" horiz-adv-x="3511" arabic-form="isolated" 
d="M1028 -375q-29 -28 -70 -28q-40 0 -69 27q-29 29 -29 71q0 40 29 69q30 29 69 29q41 0 70 -28q29 -29 29 -70t-29 -70zM740 -375q-29 -28 -70 -28t-68 27q-29 28 -29 71q0 40 29 69q28 29 68 29q41 0 70 -28q28 -29 28 -70q0 -42 -28 -70zM2850 125q407 0 407 381
q0 354 -268 354q-214 0 -369 -238q-140 -214 -165 -497h395zM1708 0v514q0 185 -75 266q-74 80 -240 80q-93 0 -187 -20v-840h-364q-370 0 -540 148q-163 143 -163 444q0 197 70 348l168 31q-82 -164 -82 -359q0 -253 117 -364q130 -123 450 -123h191v821q172 39 356 39
q243 0 352 -118q101 -108 101 -328v-414h439v838h158v-93q0 -225 -23 -391h2q72 242 235 378q154 128 345 128q190 0 295 -122q104 -122 104 -345q0 -230 -129 -363q-150 -155 -457 -155h-1123z" />
    <glyph glyph-name="uniFD07" unicode="&#xfebf;&#xfef0;" horiz-adv-x="3511" arabic-form="isolated" 
d="M2850 125q407 0 407 381q0 354 -268 354q-214 0 -369 -238q-140 -214 -165 -497h395zM1708 0v514q0 185 -75 266q-74 80 -240 80q-93 0 -187 -20v-840h-364q-370 0 -540 148q-163 143 -163 444q0 197 70 348l168 31q-82 -164 -82 -359q0 -253 117 -364q130 -123 450 -123
h191v821q172 39 356 39q243 0 352 -118q101 -108 101 -328v-414h439v838h158v-93q0 -225 -23 -391h2q72 242 235 378q154 128 345 128q190 0 295 -122q104 -122 104 -345q0 -230 -129 -363q-150 -155 -457 -155h-1123zM2915 1229q-28 29 -28 71t28 70q29 29 70 29
q42 0 70 -29q28 -28 28 -70q0 -41 -28 -70q-29 -30 -70 -30q-42 0 -70 29z" />
    <glyph glyph-name="uniFD08" unicode="&#xfebf;&#xfef2;" horiz-adv-x="3511" arabic-form="isolated" 
d="M1028 -375q-29 -28 -70 -28q-40 0 -69 27q-29 29 -29 71q0 40 29 69q30 29 69 29q41 0 70 -28q29 -29 29 -70t-29 -70zM740 -375q-29 -28 -70 -28t-68 27q-29 28 -29 71q0 40 29 69q28 29 68 29q41 0 70 -28q28 -29 28 -70q0 -42 -28 -70zM2850 125q407 0 407 381
q0 354 -268 354q-214 0 -369 -238q-140 -214 -165 -497h395zM1708 0v514q0 185 -75 266q-74 80 -240 80q-93 0 -187 -20v-840h-364q-370 0 -540 148q-163 143 -163 444q0 197 70 348l168 31q-82 -164 -82 -359q0 -253 117 -364q130 -123 450 -123h191v821q172 39 356 39
q243 0 352 -118q101 -108 101 -328v-414h439v838h158v-93q0 -225 -23 -391h2q72 242 235 378q154 128 345 128q190 0 295 -122q104 -122 104 -345q0 -230 -129 -363q-150 -155 -457 -155h-1123zM2915 1229q-28 29 -28 71t28 70q29 29 70 29q42 0 70 -29q28 -28 28 -70
q0 -41 -28 -70q-29 -30 -70 -30q-42 0 -70 29z" />
    <glyph glyph-name="uniFD0D" unicode="&#xfeb7;&#xfeae;" horiz-adv-x="2631" arabic-form="isolated" 
d="M684 0v-10q0 -518 -463 -518q-114 0 -231 32l23 131q112 -41 221 -41q145 0 214 82q79 90 79 297v990h157v-838h264q117 0 167 62q54 66 54 227v426h156v-371q0 -199 24 -262q36 -96 160 -96q111 0 165 70q64 85 64 286v455h152v-529q0 -170 72 -223q62 -45 250 -45h71
q19 162 19 301q0 315 -72 569l152 31q75 -277 75 -586q0 -214 -34 -440h-191q-209 0 -300 36q-96 36 -138 138q-62 -188 -312 -188q-212 0 -258 182q-60 -168 -278 -168h-262zM1593 1192q-29 28 -29 70q0 41 29 69q28 29 70 29q40 0 69 -29q29 -28 29 -69q0 -40 -29 -70
q-29 -29 -69 -29q-42 0 -70 29zM1881 1192q-28 28 -28 70q0 41 28 69q28 29 68 29q42 0 70 -29q29 -28 29 -69t-29 -70q-28 -29 -70 -29q-40 0 -68 29zM1739 1416q-27 27 -27 69q0 40 27 68t67 28t67 -28t27 -68t-27 -68t-67 -28t-67 27z" />
    <glyph glyph-name="uniFD0E" unicode="&#xfeb3;&#xfeae;" horiz-adv-x="2631" arabic-form="isolated" 
d="M684 0v-10q0 -518 -463 -518q-114 0 -231 32l23 131q112 -41 221 -41q145 0 214 82q79 90 79 297v990h157v-838h264q117 0 167 62q54 66 54 227v426h156v-371q0 -199 24 -262q36 -96 160 -96q111 0 165 70q64 85 64 286v455h152v-529q0 -170 72 -223q62 -45 250 -45h71
q19 162 19 301q0 315 -72 569l152 31q75 -277 75 -586q0 -214 -34 -440h-191q-209 0 -300 36q-96 36 -138 138q-62 -188 -312 -188q-212 0 -258 182q-60 -168 -278 -168h-262z" />
    <glyph glyph-name="uniFD0F" unicode="&#xfebb;&#xfeae;" horiz-adv-x="2365" arabic-form="isolated" 
d="M1704 125q407 0 407 381q0 354 -268 354q-214 0 -369 -238q-140 -214 -165 -497h395zM684 0v-10q0 -518 -463 -518q-114 0 -231 32l23 131q112 -41 221 -41q145 0 214 82q79 90 79 297v990h157v-838h471v838h158v-93q0 -225 -23 -391h2q72 242 235 378q154 128 345 128
q190 0 295 -122q104 -122 104 -345q0 -230 -129 -363q-150 -155 -457 -155h-1001z" />
    <glyph glyph-name="uniFD10" unicode="&#xfebf;&#xfeae;" horiz-adv-x="2365" arabic-form="isolated" 
d="M1704 125q407 0 407 381q0 354 -268 354q-214 0 -369 -238q-140 -214 -165 -497h395zM684 0v-10q0 -518 -463 -518q-114 0 -231 32l23 131q112 -41 221 -41q145 0 214 82q79 90 79 297v990h157v-838h471v838h158v-93q0 -225 -23 -391h2q72 242 235 378q154 128 345 128
q190 0 295 -122q104 -122 104 -345q0 -230 -129 -363q-150 -155 -457 -155h-1001zM1769 1229q-28 29 -28 71t28 70q29 29 70 29q42 0 70 -29q28 -28 28 -70q0 -41 -28 -70q-29 -30 -70 -30q-42 0 -70 29z" />
    <glyph glyph-name="uniFD17" unicode="&#xfeb4;&#xfef0;" horiz-adv-x="3805" arabic-form="final" 
d="M1708 0v514q0 185 -75 266q-74 80 -241 80q-92 0 -186 -20v-840h-365q-369 0 -539 148q-163 143 -163 444q0 197 70 348l168 31q-82 -164 -82 -359q0 -253 117 -364q130 -123 450 -123h190v821q172 39 357 39q242 0 352 -118q100 -108 100 -328v-414h243q117 0 167 62
q54 66 54 227v426h156v-371q0 -199 24 -262q36 -96 160 -96q111 0 165 70q64 85 64 286v455h152v-529q0 -170 72 -223q62 -45 250 -45h71q19 162 19 301q0 315 -72 569l152 31q75 -277 75 -586q0 -127 -18 -315h242v-125h-449q-209 0 -300 36q-96 36 -138 138
q-62 -188 -312 -188q-212 0 -258 182q-60 -168 -278 -168h-394z" />
    <glyph glyph-name="uniFD18" unicode="&#xfeb4;&#xfef2;" horiz-adv-x="3805" arabic-form="final" 
d="M1027 -375q-29 -28 -69 -28t-69 27q-29 29 -29 71q0 40 29 69t69 29t69 -28q30 -29 30 -70t-30 -70zM739 -375q-28 -28 -70 -28q-40 0 -68 27q-28 28 -28 71q0 40 28 69q29 29 68 29q42 0 70 -28q29 -29 29 -70q0 -42 -29 -70zM1708 0v514q0 185 -75 266q-74 80 -241 80
q-92 0 -186 -20v-840h-365q-369 0 -539 148q-163 143 -163 444q0 197 70 348l168 31q-82 -164 -82 -359q0 -253 117 -364q130 -123 450 -123h190v821q172 39 357 39q242 0 352 -118q100 -108 100 -328v-414h243q117 0 167 62q54 66 54 227v426h156v-371q0 -199 24 -262
q36 -96 160 -96q111 0 165 70q64 85 64 286v455h152v-529q0 -170 72 -223q62 -45 250 -45h71q19 162 19 301q0 315 -72 569l152 31q75 -277 75 -586q0 -127 -18 -315h242v-125h-449q-209 0 -300 36q-96 36 -138 138q-62 -188 -312 -188q-212 0 -258 182q-60 -168 -278 -168
h-394z" />
    <glyph glyph-name="uniFD19" unicode="&#xfeb8;&#xfef0;" horiz-adv-x="3805" arabic-form="final" 
d="M1708 0v514q0 185 -75 266q-74 80 -241 80q-92 0 -186 -20v-840h-365q-369 0 -539 148q-163 143 -163 444q0 197 70 348l168 31q-82 -164 -82 -359q0 -253 117 -364q130 -123 450 -123h190v821q172 39 357 39q242 0 352 -118q100 -108 100 -328v-414h243q117 0 167 62
q54 66 54 227v426h156v-371q0 -199 24 -262q36 -96 160 -96q111 0 165 70q64 85 64 286v455h152v-529q0 -170 72 -223q62 -45 250 -45h71q19 162 19 301q0 315 -72 569l152 31q75 -277 75 -586q0 -127 -18 -315h242v-125h-449q-209 0 -300 36q-96 36 -138 138
q-62 -188 -312 -188q-212 0 -258 182q-60 -168 -278 -168h-394zM2895 1416q-27 27 -27 69q0 40 27 68t67 28t67 -28t27 -68t-27 -68t-67 -28t-67 27zM3037 1192q-28 28 -28 70q0 41 28 69q28 29 68 29q42 0 70 -29q29 -28 29 -69t-29 -70q-28 -29 -70 -29q-40 0 -68 29z
M2749 1192q-29 28 -29 70q0 41 29 69q28 29 70 29q40 0 69 -29q29 -28 29 -69q0 -40 -29 -70q-29 -29 -69 -29q-42 0 -70 29z" />
    <glyph glyph-name="uniFD1A" unicode="&#xfeb8;&#xfef2;" horiz-adv-x="3805" arabic-form="final" 
d="M1027 -375q-29 -28 -69 -28t-69 27q-29 29 -29 71q0 40 29 69t69 29t69 -28q30 -29 30 -70t-30 -70zM739 -375q-28 -28 -70 -28q-40 0 -68 27q-28 28 -28 71q0 40 28 69q29 29 68 29q42 0 70 -28q29 -29 29 -70q0 -42 -29 -70zM1708 0v514q0 185 -75 266q-74 80 -241 80
q-92 0 -186 -20v-840h-365q-369 0 -539 148q-163 143 -163 444q0 197 70 348l168 31q-82 -164 -82 -359q0 -253 117 -364q130 -123 450 -123h190v821q172 39 357 39q242 0 352 -118q100 -108 100 -328v-414h243q117 0 167 62q54 66 54 227v426h156v-371q0 -199 24 -262
q36 -96 160 -96q111 0 165 70q64 85 64 286v455h152v-529q0 -170 72 -223q62 -45 250 -45h71q19 162 19 301q0 315 -72 569l152 31q75 -277 75 -586q0 -127 -18 -315h242v-125h-449q-209 0 -300 36q-96 36 -138 138q-62 -188 -312 -188q-212 0 -258 182q-60 -168 -278 -168
h-394zM2895 1416q-27 27 -27 69q0 40 27 68t67 28t67 -28t27 -68t-27 -68t-67 -28t-67 27zM3037 1192q-28 28 -28 70q0 41 28 69q28 29 68 29q42 0 70 -29q29 -28 29 -69t-29 -70q-28 -29 -70 -29q-40 0 -68 29zM2749 1192q-29 28 -29 70q0 41 29 69q28 29 70 29
q40 0 69 -29q29 -28 29 -69q0 -40 -29 -70q-29 -29 -69 -29q-42 0 -70 29z" />
    <glyph glyph-name="uniFD21" unicode="&#xfebc;&#xfef0;" horiz-adv-x="3515" arabic-form="final" 
d="M2850 125q407 0 407 381q0 354 -268 354q-214 0 -369 -238q-140 -214 -165 -497h395zM1708 0v514q0 185 -75 266q-74 80 -240 80q-93 0 -187 -20v-840h-364q-370 0 -540 148q-163 143 -163 444q0 197 70 348l168 31q-82 -164 -82 -359q0 -253 117 -364q130 -123 450 -123
h191v821q172 39 356 39q243 0 352 -118q101 -108 101 -328v-414h439v838h158v-93q0 -225 -23 -391h2q72 242 235 378q154 128 345 128q190 0 295 -122q104 -122 104 -345q0 -257 -162 -393h299v-125h-1846z" />
    <glyph glyph-name="uniFD22" unicode="&#xfebc;&#xfef2;" horiz-adv-x="3515" arabic-form="final" 
d="M1028 -375q-29 -28 -70 -28q-40 0 -69 27q-29 29 -29 71q0 40 29 69q30 29 69 29q41 0 70 -28q29 -29 29 -70t-29 -70zM740 -375q-29 -28 -70 -28t-68 27q-29 28 -29 71q0 40 29 69q28 29 68 29q41 0 70 -28q28 -29 28 -70q0 -42 -28 -70zM2850 125q407 0 407 381
q0 354 -268 354q-214 0 -369 -238q-140 -214 -165 -497h395zM1708 0v514q0 185 -75 266q-74 80 -240 80q-93 0 -187 -20v-840h-364q-370 0 -540 148q-163 143 -163 444q0 197 70 348l168 31q-82 -164 -82 -359q0 -253 117 -364q130 -123 450 -123h191v821q172 39 356 39
q243 0 352 -118q101 -108 101 -328v-414h439v838h158v-93q0 -225 -23 -391h2q72 242 235 378q154 128 345 128q190 0 295 -122q104 -122 104 -345q0 -257 -162 -393h299v-125h-1846z" />
    <glyph glyph-name="uniFD23" unicode="&#xfec0;&#xfef0;" horiz-adv-x="3515" arabic-form="final" 
d="M2850 125q407 0 407 381q0 354 -268 354q-214 0 -369 -238q-140 -214 -165 -497h395zM1708 0v514q0 185 -75 266q-74 80 -240 80q-93 0 -187 -20v-840h-364q-370 0 -540 148q-163 143 -163 444q0 197 70 348l168 31q-82 -164 -82 -359q0 -253 117 -364q130 -123 450 -123
h191v821q172 39 356 39q243 0 352 -118q101 -108 101 -328v-414h439v838h158v-93q0 -225 -23 -391h2q72 242 235 378q154 128 345 128q190 0 295 -122q104 -122 104 -345q0 -257 -162 -393h299v-125h-1846zM2915 1229q-28 29 -28 71t28 70q29 29 70 29q42 0 70 -29
q28 -28 28 -70q0 -41 -28 -70q-29 -30 -70 -30q-42 0 -70 29z" />
    <glyph glyph-name="uniFD24" unicode="&#xfec0;&#xfef2;" horiz-adv-x="3515" arabic-form="final" 
d="M1028 -375q-29 -28 -70 -28q-40 0 -69 27q-29 29 -29 71q0 40 29 69q30 29 69 29q41 0 70 -28q29 -29 29 -70t-29 -70zM740 -375q-29 -28 -70 -28t-68 27q-29 28 -29 71q0 40 29 69q28 29 68 29q41 0 70 -28q28 -29 28 -70q0 -42 -28 -70zM2850 125q407 0 407 381
q0 354 -268 354q-214 0 -369 -238q-140 -214 -165 -497h395zM1708 0v514q0 185 -75 266q-74 80 -240 80q-93 0 -187 -20v-840h-364q-370 0 -540 148q-163 143 -163 444q0 197 70 348l168 31q-82 -164 -82 -359q0 -253 117 -364q130 -123 450 -123h191v821q172 39 356 39
q243 0 352 -118q101 -108 101 -328v-414h439v838h158v-93q0 -225 -23 -391h2q72 242 235 378q154 128 345 128q190 0 295 -122q104 -122 104 -345q0 -257 -162 -393h299v-125h-1846zM2915 1229q-28 29 -28 71t28 70q29 29 70 29q42 0 70 -29q28 -28 28 -70q0 -41 -28 -70
q-29 -30 -70 -30q-42 0 -70 29z" />
    <glyph glyph-name="uniFD29" unicode="&#xfeb8;&#xfeae;" horiz-adv-x="2649" arabic-form="final" 
d="M684 0v-10q0 -518 -463 -518q-114 0 -231 32l23 131q112 -41 221 -41q145 0 214 82q79 90 79 297v990h157v-838h264q117 0 167 62q54 66 54 227v426h156v-371q0 -199 24 -262q36 -96 160 -96q111 0 165 70q64 85 64 286v455h152v-529q0 -170 72 -223q62 -45 250 -45h71
q19 162 19 301q0 315 -72 569l152 31q75 -277 75 -586q0 -127 -18 -315h242v-125h-449q-209 0 -300 36q-96 36 -138 138q-62 -188 -312 -188q-212 0 -258 182q-60 -168 -278 -168h-262zM1739 1416q-27 27 -27 69q0 40 27 68t67 28t67 -28t27 -68t-27 -68t-67 -28t-67 27z
M1881 1192q-28 28 -28 70q0 41 28 69q28 29 68 29q42 0 70 -29q29 -28 29 -69t-29 -70q-28 -29 -70 -29q-40 0 -68 29zM1593 1192q-29 28 -29 70q0 41 29 69q28 29 70 29q40 0 69 -29q29 -28 29 -69q0 -40 -29 -70q-29 -29 -69 -29q-42 0 -70 29z" />
    <glyph glyph-name="uniFD2A" unicode="&#xfeb4;&#xfeae;" horiz-adv-x="2649" arabic-form="final" 
d="M684 0v-10q0 -518 -463 -518q-114 0 -231 32l23 131q112 -41 221 -41q145 0 214 82q79 90 79 297v990h157v-838h264q117 0 167 62q54 66 54 227v426h156v-371q0 -199 24 -262q36 -96 160 -96q111 0 165 70q64 85 64 286v455h152v-529q0 -170 72 -223q62 -45 250 -45h71
q19 162 19 301q0 315 -72 569l152 31q75 -277 75 -586q0 -127 -18 -315h242v-125h-449q-209 0 -300 36q-96 36 -138 138q-62 -188 -312 -188q-212 0 -258 182q-60 -168 -278 -168h-262z" />
    <glyph glyph-name="uniFD2B" unicode="&#xfebc;&#xfeae;" horiz-adv-x="2359" arabic-form="final" 
d="M1694 125q407 0 407 381q0 354 -268 354q-214 0 -369 -238q-140 -214 -165 -497h395zM684 0v-10q0 -518 -463 -518q-114 0 -231 32l23 131q112 -41 221 -41q145 0 214 82q79 90 79 297v990h157v-838h461v838h158v-93q0 -225 -23 -391h2q72 242 235 378q154 128 345 128
q190 0 295 -122q104 -122 104 -345q0 -257 -162 -393h299v-125h-1714z" />
    <glyph glyph-name="uniFD2C" unicode="&#xfec0;&#xfeae;" horiz-adv-x="2359" arabic-form="final" 
d="M1694 125q407 0 407 381q0 354 -268 354q-214 0 -369 -238q-140 -214 -165 -497h395zM684 0v-10q0 -518 -463 -518q-114 0 -231 32l23 131q112 -41 221 -41q145 0 214 82q79 90 79 297v990h157v-838h461v838h158v-93q0 -225 -23 -391h2q72 242 235 378q154 128 345 128
q190 0 295 -122q104 -122 104 -345q0 -257 -162 -393h299v-125h-1714zM1759 1229q-28 29 -28 71t28 70q29 29 70 29q42 0 70 -29q28 -28 28 -70q0 -41 -28 -70q-29 -30 -70 -30q-42 0 -70 29z" />
    <glyph glyph-name="uniFEF5" unicode="&#xfedf;&#xfe82;" arabic-form="isolated" 
d="M594 322h-158l-336 1110l154 22zM188 0v125h633v1319h158v-1444h-791zM-45 1718l168 127q86 -86 192 -86q125 0 218 92v-133q-98 -78 -226 -78q-119 0 -184 66l-102 -74z" />
    <glyph glyph-name="uniFEF6" unicode="&#xfee0;&#xfe82;" arabic-form="final" 
d="M188 125h633v1319h158v-1319h233v-125h-1024v125zM594 322h-158l-336 1110l154 22zM-45 1718l168 127q86 -86 192 -86q125 0 218 92v-133q-98 -78 -226 -78q-119 0 -184 66l-102 -74z" />
    <glyph glyph-name="uniFEF7" unicode="&#xfedf;&#xfe84;" horiz-adv-x="1222" arabic-form="isolated" 
d="M635 322h-158l-275 890h160zM229 0v125h633v1309h158v-1434h-791zM14 1384q81 0 127 -8q-41 26 -41 82q0 74 56 120q60 50 165 50q58 0 109 -10l-17 -98q-43 12 -96 12q-100 0 -100 -72q0 -76 139 -76h121v-96h-463v96z" />
    <glyph glyph-name="uniFEF8" unicode="&#xfee0;&#xfe84;" horiz-adv-x="1222" arabic-form="final" 
d="M229 125h633v1309h158v-1309h233v-125h-1024v125zM635 322h-158l-275 890h160zM14 1384q81 0 127 -8q-41 26 -41 82q0 74 56 120q60 50 165 50q58 0 109 -10l-17 -98q-43 12 -96 12q-100 0 -100 -72q0 -76 139 -76h121v-96h-463v96z" />
    <glyph glyph-name="uniFEF9" unicode="&#xfedf;&#xfe88;" arabic-form="isolated" 
d="M594 322h-158l-336 1110l154 22zM188 0v125h633v1319h158v-1444h-791zM317 -408q83 0 129 -8q-43 25 -43 84q0 72 56 118q61 50 165 50q58 0 109 -10l-17 -98q-57 12 -96 12q-100 0 -100 -72q0 -76 139 -76h121v-98h-463v98z" />
    <glyph glyph-name="uniFEFA" unicode="&#xfee0;&#xfe88;" arabic-form="final" 
d="M188 0v125h633v1319h158v-1319h233v-125h-1024zM594 322h-158l-336 1110l154 22zM317 -408q83 0 129 -8q-43 25 -43 84q0 72 56 118q61 50 165 50q58 0 109 -10l-17 -98q-57 12 -96 12q-100 0 -100 -72q0 -76 139 -76h121v-98h-463v98z" />
    <glyph glyph-name="uniFEFB" unicode="&#xfedf;&#xfe8e;" arabic-form="isolated" 
d="M594 322h-158l-336 1110l154 22zM188 0v125h633v1319h158v-1444h-791z" />
    <glyph glyph-name="uniFEFC" unicode="&#xfee0;&#xfe8e;" arabic-form="final" 
d="M188 0v125h633v1319h158v-1319h233v-125h-1024zM594 322h-158l-336 1110l154 22z" />
    <glyph glyph-name="uniFE8B_uniFEE4.liga" unicode="&#xfe8b;&#xfee4;" horiz-adv-x="1942" 
d="M996 498q0 362 -290 362q-153 0 -242 -99q-88 -99 -88 -265q0 -191 93 -280q96 -91 306 -91h221v373zM1383 1260q92 0 154 -11q-64 27 -64 105q0 81 57 133q65 61 191 61q51 0 105 -8l-15 -100q-45 8 -100 8q-119 0 -119 -90q0 -98 166 -98h108v-101h-483v101zM777 0
q-365 0 -479 207q-47 -207 -307 -207h-31v125q126 0 184 67q72 83 72 291q0 212 128 351q138 151 376 151q430 0 430 -455v-405h446v838h156v-963h-975z" />
    <glyph glyph-name="uniFE8B_uniFEF0.liga" unicode="&#xfe8b;&#xfef0;" horiz-adv-x="2661" 
d="M2102 1260q92 0 154 -11q-64 27 -64 105q0 81 57 133q65 61 191 61q51 0 105 -8l-15 -100q-45 8 -100 8q-119 0 -119 -90q0 -98 166 -98h108v-101h-483v101zM1708 0v514q0 185 -75 266q-74 80 -240 80q-93 0 -187 -20v-840h-364q-370 0 -540 148q-163 143 -163 444
q0 197 70 348l168 31q-82 -164 -82 -359q0 -253 117 -364q130 -123 450 -123h191v821q172 39 356 39q243 0 352 -118q101 -108 101 -328v-414h453v838h156v-963h-763z" />
    <glyph glyph-name="uniFE8B_uniFEF2.liga" unicode="&#xfe8b;&#xfef2;" horiz-adv-x="2661" 
d="M1028 -375q-29 -28 -70 -28q-40 0 -69 27q-29 29 -29 71q0 40 29 69q30 29 69 29q41 0 70 -28q29 -29 29 -70t-29 -70zM740 -375q-29 -28 -70 -28t-68 27q-29 28 -29 71q0 40 29 69q28 29 68 29q41 0 70 -28q28 -29 28 -70q0 -42 -28 -70zM2102 1260q92 0 154 -11
q-64 27 -64 105q0 81 57 133q65 61 191 61q51 0 105 -8l-15 -100q-45 8 -100 8q-119 0 -119 -90q0 -98 166 -98h108v-101h-483v101zM1708 0v514q0 185 -75 266q-74 80 -240 80q-93 0 -187 -20v-840h-364q-370 0 -540 148q-163 143 -163 444q0 197 70 348l168 31
q-82 -164 -82 -359q0 -253 117 -364q130 -123 450 -123h191v821q172 39 356 39q243 0 352 -118q101 -108 101 -328v-414h453v838h156v-963h-763z" />
    <glyph glyph-name="uniFE91_uniFEE4.liga" unicode="&#xfe91;&#xfee4;" horiz-adv-x="1951" 
d="M996 498q0 362 -291 362q-152 0 -241 -99q-88 -99 -88 -265q0 -191 93 -280q96 -91 306 -91h221v373zM777 0q-365 0 -479 207q-47 -207 -307 -207h-31v125q126 0 184 67q72 83 72 291q0 212 127 351q139 151 377 151q430 0 430 -455v-405h455v838h156v-963h-984z
M1482 -378q-28 28 -28 71q0 41 28 70q28 28 70 28t70 -28t28 -70t-28 -70q-29 -29 -70 -29q-42 0 -70 28z" />
    <glyph glyph-name="uniFE92_uniFEE6.liga" unicode="&#xfe92;&#xfee6;" horiz-adv-x="1987" 
d="M550 813q-29 29 -29 72q0 41 29 70q28 28 70 28q41 0 70 -28q28 -29 28 -70q0 -42 -28 -71q-29 -30 -70 -30q-42 0 -70 29zM1140 0q-43 -473 -522 -473q-219 0 -346 125q-150 145 -150 442q0 213 49 398l162 30q-55 -206 -55 -413q0 -250 115 -366q91 -91 243 -91
q352 0 352 426v885h156v-838h481v838h156v-838h237v-125h-878zM1502 -378q-28 28 -28 71q0 41 28 70q28 28 70 28t70 -28t28 -70t-28 -70q-29 -29 -70 -29q-42 0 -70 28z" />
    <glyph glyph-name="uniFE91_uniFEF0.liga" unicode="&#xfe91;&#xfef0;" horiz-adv-x="2661" 
d="M1708 0v514q0 185 -75 266q-74 80 -240 80q-93 0 -187 -20v-840h-364q-370 0 -540 148q-163 143 -163 444q0 197 70 348l168 31q-82 -164 -82 -359q0 -253 117 -364q130 -123 450 -123h191v821q172 39 356 39q243 0 352 -118q101 -108 101 -328v-414h453v838h156v-963
h-763zM2192 -378q-28 28 -28 71q0 41 28 70q28 28 70 28t70 -28t28 -70t-28 -70q-29 -29 -70 -29q-42 0 -70 28z" />
    <glyph glyph-name="uniFE91_uniFEF2.liga" unicode="&#xfe91;&#xfef2;" horiz-adv-x="2661" 
d="M1028 -375q-29 -28 -70 -28q-40 0 -69 27q-29 29 -29 71q0 40 29 69q30 29 69 29q41 0 70 -28q29 -29 29 -70t-29 -70zM740 -375q-29 -28 -70 -28t-68 27q-29 28 -29 71q0 40 29 69q28 29 68 29q41 0 70 -28q28 -29 28 -70q0 -42 -28 -70zM1708 0v514q0 185 -75 266
q-74 80 -240 80q-93 0 -187 -20v-840h-364q-370 0 -540 148q-163 143 -163 444q0 197 70 348l168 31q-82 -164 -82 -359q0 -253 117 -364q130 -123 450 -123h191v821q172 39 356 39q243 0 352 -118q101 -108 101 -328v-414h453v838h156v-963h-763zM2192 -378q-28 28 -28 71
q0 41 28 70q28 28 70 28t70 -28t28 -70t-28 -70q-29 -29 -70 -29q-42 0 -70 28z" />
    <glyph glyph-name="uniFE97_uniFEE4.liga" unicode="&#xfe97;&#xfee4;" horiz-adv-x="1951" 
d="M996 498q0 362 -291 362q-152 0 -241 -99q-88 -99 -88 -265q0 -191 93 -280q96 -91 306 -91h221v373zM777 0q-365 0 -479 207q-47 -207 -307 -207h-31v125q126 0 184 67q72 83 72 291q0 212 127 351q139 151 377 151q430 0 430 -455v-405h455v838h156v-963h-984z
M1437 1192q-28 28 -28 70q0 41 28 69q28 29 70 29q40 0 69 -29q29 -28 29 -69q0 -40 -29 -70q-29 -29 -69 -29q-42 0 -70 29zM1725 1192q-28 28 -28 70q0 41 28 69q28 29 69 29t69 -29q29 -28 29 -69t-29 -70q-28 -29 -69 -29t-69 29z" />
    <glyph glyph-name="uniFE98_uniFEE6.liga" unicode="&#xfe98;&#xfee6;" horiz-adv-x="1987" 
d="M550 813q-29 29 -29 72q0 41 29 70q28 28 70 28q41 0 70 -28q28 -29 28 -70q0 -42 -28 -71q-29 -30 -70 -30q-42 0 -70 29zM1140 0q-43 -473 -522 -473q-219 0 -346 125q-150 145 -150 442q0 213 49 398l162 30q-55 -206 -55 -413q0 -250 115 -366q91 -91 243 -91
q352 0 352 426v885h156v-838h481v838h156v-838h237v-125h-878zM1745 1192q-28 28 -28 70q0 41 28 69q28 29 69 29t69 -29q29 -28 29 -69t-29 -70q-28 -29 -69 -29t-69 29zM1457 1192q-28 28 -28 70q0 41 28 69q28 29 70 29q40 0 69 -29q29 -28 29 -69q0 -40 -29 -70
q-29 -29 -69 -29q-42 0 -70 29z" />
    <glyph glyph-name="uniFE97_uniFEF0.liga" unicode="&#xfe97;&#xfef0;" horiz-adv-x="2651" 
d="M1708 0v514q0 185 -75 266q-74 80 -240 80q-93 0 -187 -20v-840h-364q-370 0 -540 148q-163 143 -163 444q0 197 70 348l168 31q-82 -164 -82 -359q0 -253 117 -364q130 -123 450 -123h191v821q172 39 356 39q243 0 352 -118q101 -108 101 -328v-414h443v838h156v-963
h-753zM2137 1192q-28 28 -28 70q0 41 28 69q28 29 70 29q40 0 69 -29q29 -28 29 -69q0 -40 -29 -70q-29 -29 -69 -29q-42 0 -70 29zM2425 1192q-28 28 -28 70q0 41 28 69q28 29 69 29t69 -29q29 -28 29 -69t-29 -70q-28 -29 -69 -29t-69 29z" />
    <glyph glyph-name="uniFE97_uniFEF2.liga" unicode="&#xfe97;&#xfef2;" horiz-adv-x="2651" 
d="M1028 -375q-29 -28 -70 -28q-40 0 -69 27q-29 29 -29 71q0 40 29 69q30 29 69 29q41 0 70 -28q29 -29 29 -70t-29 -70zM740 -375q-29 -28 -70 -28t-68 27q-29 28 -29 71q0 40 29 69q28 29 68 29q41 0 70 -28q28 -29 28 -70q0 -42 -28 -70zM1708 0v514q0 185 -75 266
q-74 80 -240 80q-93 0 -187 -20v-840h-364q-370 0 -540 148q-163 143 -163 444q0 197 70 348l168 31q-82 -164 -82 -359q0 -253 117 -364q130 -123 450 -123h191v821q172 39 356 39q243 0 352 -118q101 -108 101 -328v-414h443v838h156v-963h-753zM2137 1192q-28 28 -28 70
q0 41 28 69q28 29 70 29q40 0 69 -29q29 -28 29 -69q0 -40 -29 -70q-29 -29 -69 -29q-42 0 -70 29zM2425 1192q-28 28 -28 70q0 41 28 69q28 29 69 29t69 -29q29 -28 29 -69t-29 -70q-28 -29 -69 -29t-69 29z" />
    <glyph glyph-name="uniFE9C_uniFEAE.liga" unicode="&#xfe9c;&#xfeae;" horiz-adv-x="1521" 
d="M684 0v-10q0 -518 -463 -518q-114 0 -231 32l23 131q112 -41 221 -41q145 0 214 82q79 90 79 297v990h157v-838h475v838h156v-838h237v-125h-868zM1137 1416q-27 27 -27 69q0 40 27 68t67 28t67 -28t27 -68t-27 -68t-67 -28t-67 27zM1279 1192q-28 28 -28 70q0 41 28 69
q28 29 69 29t69 -29q29 -28 29 -69t-29 -70q-28 -29 -69 -29t-69 29zM991 1192q-28 28 -28 70q0 41 28 69q28 29 70 29q40 0 69 -29q29 -28 29 -69q0 -40 -29 -70q-29 -29 -69 -29q-42 0 -70 29z" />
    <glyph glyph-name="uniFE9B_uniFEE4.liga" unicode="&#xfe9b;&#xfee4;" horiz-adv-x="1951" 
d="M996 498q0 362 -291 362q-152 0 -241 -99q-88 -99 -88 -265q0 -191 93 -280q96 -91 306 -91h221v373zM777 0q-365 0 -479 207q-47 -207 -307 -207h-31v125q126 0 184 67q72 83 72 291q0 212 127 351q139 151 377 151q430 0 430 -455v-405h455v838h156v-963h-984z
M1437 1192q-28 28 -28 70q0 41 28 69q28 29 70 29q40 0 69 -29q29 -28 29 -69q0 -40 -29 -70q-29 -29 -69 -29q-42 0 -70 29zM1725 1192q-28 28 -28 70q0 41 28 69q28 29 69 29t69 -29q29 -28 29 -69t-29 -70q-28 -29 -69 -29t-69 29zM1583 1416q-27 27 -27 69q0 40 27 68
t67 28t67 -28t27 -68t-27 -68t-67 -28t-67 27z" />
    <glyph glyph-name="uniFE9C_uniFEE6.liga" unicode="&#xfe9c;&#xfee6;" horiz-adv-x="1987" 
d="M550 813q-29 29 -29 72q0 41 29 70q28 28 70 28q41 0 70 -28q28 -29 28 -70q0 -42 -28 -71q-29 -30 -70 -30q-42 0 -70 29zM1140 0q-43 -473 -522 -473q-219 0 -346 125q-150 145 -150 442q0 213 49 398l162 30q-55 -206 -55 -413q0 -250 115 -366q91 -91 243 -91
q352 0 352 426v885h156v-838h481v838h156v-838h237v-125h-878zM1603 1416q-27 27 -27 69q0 40 27 68t67 28t67 -28t27 -68t-27 -68t-67 -28t-67 27zM1745 1192q-28 28 -28 70q0 41 28 69q28 29 69 29t69 -29q29 -28 29 -69t-29 -70q-28 -29 -69 -29t-69 29zM1457 1192
q-28 28 -28 70q0 41 28 69q28 29 70 29q40 0 69 -29q29 -28 29 -69q0 -40 -29 -70q-29 -29 -69 -29q-42 0 -70 29z" />
    <glyph glyph-name="uniFE9B_uniFEF0.liga" unicode="&#xfe9b;&#xfef0;" horiz-adv-x="2651" 
d="M1708 0v514q0 185 -75 266q-74 80 -240 80q-93 0 -187 -20v-840h-364q-370 0 -540 148q-163 143 -163 444q0 197 70 348l168 31q-82 -164 -82 -359q0 -253 117 -364q130 -123 450 -123h191v821q172 39 356 39q243 0 352 -118q101 -108 101 -328v-414h443v838h156v-963
h-753zM2137 1192q-28 28 -28 70q0 41 28 69q28 29 70 29q40 0 69 -29q29 -28 29 -69q0 -40 -29 -70q-29 -29 -69 -29q-42 0 -70 29zM2425 1192q-28 28 -28 70q0 41 28 69q28 29 69 29t69 -29q29 -28 29 -69t-29 -70q-28 -29 -69 -29t-69 29zM2283 1416q-27 27 -27 69
q0 40 27 68t67 28t67 -28t27 -68t-27 -68t-67 -28t-67 27z" />
    <glyph glyph-name="uniFE9B_uniFEF2.liga" unicode="&#xfe9b;&#xfef2;" horiz-adv-x="2651" 
d="M1028 -375q-29 -28 -70 -28q-40 0 -69 27q-29 29 -29 71q0 40 29 69q30 29 69 29q41 0 70 -28q29 -29 29 -70t-29 -70zM740 -375q-29 -28 -70 -28t-68 27q-29 28 -29 71q0 40 29 69q28 29 68 29q41 0 70 -28q28 -29 28 -70q0 -42 -28 -70zM1708 0v514q0 185 -75 266
q-74 80 -240 80q-93 0 -187 -20v-840h-364q-370 0 -540 148q-163 143 -163 444q0 197 70 348l168 31q-82 -164 -82 -359q0 -253 117 -364q130 -123 450 -123h191v821q172 39 356 39q243 0 352 -118q101 -108 101 -328v-414h443v838h156v-963h-753zM2137 1192q-28 28 -28 70
q0 41 28 69q28 29 70 29q40 0 69 -29q29 -28 29 -69q0 -40 -29 -70q-29 -29 -69 -29q-42 0 -70 29zM2425 1192q-28 28 -28 70q0 41 28 69q28 29 69 29t69 -29q29 -28 29 -69t-29 -70q-28 -29 -69 -29t-69 29zM2283 1416q-27 27 -27 69q0 40 27 68t67 28t67 -28t27 -68
t-27 -68t-67 -28t-67 27z" />
    <glyph glyph-name="uniFEDB_uniFEF0.liga" unicode="&#xfedb;&#xfef0;" horiz-adv-x="3011" 
d="M1708 0v514q0 185 -75 266q-74 80 -240 80q-93 0 -187 -20v-840h-364q-370 0 -540 148q-163 143 -163 444q0 197 70 348l168 31q-82 -164 -82 -359q0 -253 117 -364q130 -123 450 -123h191v821q172 39 356 39q243 0 352 -118q101 -108 101 -328v-414h826q-3 318 -138 494
q-128 167 -413 253v117l764 479v-157l-580 -359q264 -108 386 -296q134 -208 134 -566v-90h-1133z" />
    <glyph glyph-name="uniFEDC_uniFEF0.liga" unicode="&#xfedc;&#xfef0;" horiz-adv-x="3011" 
d="M1708 0v514q0 185 -75 266q-74 80 -240 80q-93 0 -187 -20v-840h-364q-370 0 -540 148q-163 143 -163 444q0 197 70 348l168 31q-82 -164 -82 -359q0 -253 117 -364q130 -123 450 -123h191v821q172 39 356 39q243 0 352 -118q101 -108 101 -328v-414h826q-3 318 -138 494
q-128 167 -413 253v117l764 479v-157l-580 -359q258 -107 379 -287q136 -200 141 -540h201v-125h-1334z" />
    <glyph glyph-name="uniFEDB_uniFEF2.liga" unicode="&#xfedb;&#xfef2;" horiz-adv-x="3011" 
d="M1028 -375q-29 -28 -70 -28q-40 0 -69 27q-29 29 -29 71q0 40 29 69q30 29 69 29q41 0 70 -28q29 -29 29 -70t-29 -70zM740 -375q-29 -28 -70 -28t-68 27q-29 28 -29 71q0 40 29 69q28 29 68 29q41 0 70 -28q28 -29 28 -70q0 -42 -28 -70zM1708 0v514q0 185 -75 266
q-74 80 -240 80q-93 0 -187 -20v-840h-364q-370 0 -540 148q-163 143 -163 444q0 197 70 348l168 31q-82 -164 -82 -359q0 -253 117 -364q130 -123 450 -123h191v821q172 39 356 39q243 0 352 -118q101 -108 101 -328v-414h826q-3 318 -138 494q-128 167 -413 253v117
l764 479v-157l-580 -359q264 -108 386 -296q134 -208 134 -566v-90h-1133z" />
    <glyph glyph-name="uniFEDC_uniFEF2.liga" unicode="&#xfedc;&#xfef2;" horiz-adv-x="3011" 
d="M1028 -375q-29 -28 -70 -28q-40 0 -69 27q-29 29 -29 71q0 40 29 69q30 29 69 29q41 0 70 -28q29 -29 29 -70t-29 -70zM740 -375q-29 -28 -70 -28t-68 27q-29 28 -29 71q0 40 29 69q28 29 68 29q41 0 70 -28q28 -29 28 -70q0 -42 -28 -70zM1708 0v514q0 185 -75 266
q-74 80 -240 80q-93 0 -187 -20v-840h-364q-370 0 -540 148q-163 143 -163 444q0 197 70 348l168 31q-82 -164 -82 -359q0 -253 117 -364q130 -123 450 -123h191v821q172 39 356 39q243 0 352 -118q101 -108 101 -328v-414h826q-3 318 -138 494q-128 167 -413 253v117
l764 479v-157l-580 -359q258 -107 379 -287q136 -200 141 -540h201v-125h-1334z" />
    <glyph glyph-name="uniFEDF_uniFB51.rlig" unicode="&#xfedf;&#xfb51;" horiz-adv-x="1222" 
d="M635 322h-158l-275 890h160zM229 0v125h633v1309h158v-1434h-791zM438 1386v26q0 139 -79 139q-111 0 -154 -165h233zM14 1386h99q66 240 257 240q161 0 161 -210v-126h-517v96z" />
    <glyph glyph-name="uniFEE0_uniFB51.rlig" unicode="&#xfee0;&#xfb51;" horiz-adv-x="1222" 
d="M229 125h633v1309h158v-1309h233v-125h-1024v125zM635 322h-158l-275 890h160zM438 1386v26q0 139 -79 139q-111 0 -154 -165h233zM14 1386h99q66 240 257 240q161 0 161 -210v-126h-517v96z" />
    <glyph glyph-name="uniFEDF_uniFEE2.liga" unicode="&#xfedf;&#xfee2;" horiz-adv-x="2237" 
d="M1313 498q0 362 -291 362q-152 0 -241 -99t-89 -265q0 -191 94 -280q96 -91 306 -91h221v373zM1067 0q-516 0 -532 444h-66q-184 0 -184 -210q0 -44 8 -99l106 -667h-151l-105 651q-10 62 -10 115q0 130 57 212q85 123 289 123h62q26 183 149 295q134 121 346 121
q430 0 430 -455v-405h413v1319h156v-1444h-968z" />
    <glyph glyph-name="uniFEE4_uniFE8E.liga" unicode="&#xfee4;&#xfe8e;" horiz-adv-x="1905" 
d="M1566 498q0 362 -291 362q-152 0 -241 -99q-88 -99 -88 -265q0 -191 93 -280q96 -91 306 -91h221v373zM202 0v1444h156v-1319h172q126 0 184 67q72 83 72 291q0 212 127 351q139 151 377 151q430 0 430 -455v-405h217v-125h-590q-365 0 -479 207q-44 -195 -277 -206v-1
h-389z" />
    <glyph glyph-name="uniFEE4_uniFE82.liga" unicode="&#xfee4;&#xfe82;" horiz-adv-x="1905" 
d="M-40 1718l168 127q86 -86 192 -86q125 0 218 92v-133q-98 -78 -226 -78q-119 0 -184 66l-102 -74zM1566 498q0 362 -291 362q-152 0 -241 -99q-88 -99 -88 -265q0 -191 93 -280q96 -91 306 -91h221v373zM204 0v1444h155v-1319h171q126 0 184 67q72 83 72 291
q0 212 127 351q139 151 377 151q430 0 430 -455v-405h217v-125h-590q-365 0 -479 207q-44 -194 -275 -206v-1h-389z" />
    <glyph glyph-name="uniFEE4_uniFE84.liga" unicode="&#xfee4;&#xfe84;" horiz-adv-x="1905" 
d="M16 1593q106 0 156 -8q-66 28 -66 107q0 76 56 128q67 60 192 60q59 0 106 -10l-16 -94q-90 8 -100 8q-121 0 -121 -90q0 -101 168 -101h108v-96h-483v96zM1566 498q0 362 -291 362q-152 0 -241 -99q-88 -99 -88 -265q0 -191 93 -280q96 -91 306 -91h221v373zM202 0v1382
h156v-1257h172q126 0 184 67q72 83 72 291q0 212 127 351q139 151 377 151q430 0 430 -455v-405h217v-125h-590q-365 0 -479 207q-44 -195 -277 -206v-1h-389z" />
    <glyph glyph-name="uniFEE4_uniFE88.liga" unicode="&#xfee4;&#xfe88;" horiz-adv-x="1905" 
d="M20 -408q83 0 129 -8q-43 25 -43 84q0 72 56 118q61 50 165 50q58 0 109 -10l-17 -98q-57 12 -96 12q-100 0 -100 -72q0 -76 139 -76h121v-98h-463v98zM1566 498q0 362 -291 362q-152 0 -241 -99q-88 -99 -88 -265q0 -191 93 -280q96 -91 306 -91h221v373zM202 0v1444
h156v-1319h172q126 0 184 67q72 83 72 291q0 212 127 351q139 151 377 151q430 0 430 -455v-405h217v-125h-590q-365 0 -479 207q-44 -195 -277 -206v-1h-389z" />
    <glyph glyph-name="uniFEE8_uniFEAE.liga" unicode="&#xfee8;&#xfeae;" horiz-adv-x="888" 
d="M684 0v-10q0 -518 -463 -518q-114 0 -231 32l23 131q112 -41 221 -41q145 0 214 82q79 90 79 297v990h157v-838h475v838h156v-838h237v-125h-868zM1167 1229q-28 29 -28 71t28 70q29 29 70 29t70 -29q28 -28 28 -70q0 -41 -28 -70q-29 -30 -70 -30q-42 0 -70 29z" />
    <glyph glyph-name="uniFEE7_uniFEE4.liga" unicode="&#xfee7;&#xfee4;" horiz-adv-x="1951" 
d="M996 498q0 362 -291 362q-152 0 -241 -99q-88 -99 -88 -265q0 -191 93 -280q96 -91 306 -91h221v373zM1613 1229q-28 29 -28 71t28 70q29 29 70 29t70 -29q28 -28 28 -70q0 -41 -28 -70q-29 -30 -70 -30q-42 0 -70 29zM777 0q-365 0 -479 207q-47 -207 -307 -207h-31v125
q126 0 184 67q72 83 72 291q0 212 127 351q139 151 377 151q430 0 430 -455v-405h455v838h156v-963h-984z" />
    <glyph glyph-name="uniFEE7_uniFEF0.liga" unicode="&#xfee7;&#xfef0;" horiz-adv-x="2661" 
d="M2323 1229q-28 29 -28 71t28 70q29 29 70 29t70 -29q28 -28 28 -70q0 -41 -28 -70q-29 -30 -70 -30q-42 0 -70 29zM1708 0v514q0 185 -75 266q-74 80 -240 80q-93 0 -187 -20v-840h-364q-370 0 -540 148q-163 143 -163 444q0 197 70 348l168 31q-82 -164 -82 -359
q0 -253 117 -364q130 -123 450 -123h191v821q172 39 356 39q243 0 352 -118q101 -108 101 -328v-414h453v838h156v-963h-763z" />
    <glyph glyph-name="uniFEE7_uniFEF2.liga" unicode="&#xfee7;&#xfef2;" horiz-adv-x="2661" 
d="M1028 -375q-29 -28 -70 -28q-40 0 -69 27q-29 29 -29 71q0 40 29 69q30 29 69 29q41 0 70 -28q29 -29 29 -70t-29 -70zM740 -375q-29 -28 -70 -28t-68 27q-29 28 -29 71q0 40 29 69q28 29 68 29q41 0 70 -28q28 -29 28 -70q0 -42 -28 -70zM2323 1229q-28 29 -28 71t28 70
q29 29 70 29t70 -29q28 -28 28 -70q0 -41 -28 -70q-29 -30 -70 -30q-42 0 -70 29zM1708 0v514q0 185 -75 266q-74 80 -240 80q-93 0 -187 -20v-840h-364q-370 0 -540 148q-163 143 -163 444q0 197 70 348l168 31q-82 -164 -82 -359q0 -253 117 -364q130 -123 450 -123h191
v821q172 39 356 39q243 0 352 -118q101 -108 101 -328v-414h453v838h156v-963h-763z" />
    <glyph glyph-name="uniFEF4_uniFEAE.liga" unicode="&#xfef4;&#xfeae;" horiz-adv-x="1617" 
d="M684 0v-10q0 -518 -463 -518q-114 0 -231 32l23 131q112 -41 221 -41q145 0 214 82q79 90 79 297v990h157v-838h475v838h156v-838h332v-125h-963zM1096 -375q-28 -28 -70 -28q-40 0 -68 27q-28 28 -28 71q0 40 28 69t68 29q42 0 70 -28q28 -29 28 -70q0 -42 -28 -70z
M1384 -375q-29 -28 -69 -28q-41 0 -69 27q-30 29 -30 71q0 40 30 69q29 29 69 29t69 -28q29 -29 29 -70t-29 -70z" />
    <glyph glyph-name="uniFEF3_uniFEE4.liga" unicode="&#xfef3;&#xfee4;" horiz-adv-x="2065" 
d="M996 498q0 362 -291 362q-152 0 -241 -99q-88 -99 -88 -265q0 -191 93 -280q96 -91 306 -91h221v373zM777 0q-365 0 -479 207q-47 -207 -307 -207h-31v125q126 0 184 67q72 83 72 291q0 212 127 351q139 151 377 151q430 0 430 -455v-405h572v838h156v-963h-1101z
M1542 -375q-28 -28 -70 -28q-40 0 -68 27q-28 28 -28 71q0 40 28 69t68 29q42 0 70 -28q28 -29 28 -70q0 -42 -28 -70zM1830 -375q-29 -28 -69 -28q-41 0 -69 27q-30 29 -30 71q0 40 30 69q29 29 69 29t69 -28q29 -29 29 -70t-29 -70z" />
    <glyph glyph-name="uniFEF4_uniFEE6.liga" unicode="&#xfef4;&#xfee6;" horiz-adv-x="2082" 
d="M550 813q-29 29 -29 72q0 41 29 70q28 28 70 28q41 0 69 -28q29 -29 29 -70q0 -42 -29 -71q-28 -30 -69 -30q-42 0 -70 29zM1140 0q-43 -473 -523 -473q-218 0 -346 125q-149 145 -149 442q0 213 49 398l162 30q-55 -206 -55 -413q0 -250 115 -366q91 -91 243 -91
q352 0 352 426v885h156v-838h480v838h156v-838h332v-125h-972zM1561 -375q-28 -28 -70 -28q-40 0 -68 27q-28 28 -28 71q0 40 28 69t68 29q42 0 70 -28q28 -29 28 -70q0 -42 -28 -70zM1849 -375q-29 -28 -69 -28q-41 0 -69 27q-30 29 -30 71q0 40 30 69q29 29 69 29t69 -28
q29 -29 29 -70t-29 -70z" />
    <glyph glyph-name="T_h.liga" unicode="Th" horiz-adv-x="2011" 
d="M1170 1382v-387q0 -134 -17 -202l4 -2q98 245 363 245q305 0 305 -327v-709h-154v657q0 252 -190 252q-136 0 -224 -120q-87 -119 -87 -302v-487h-154v1251h-409v-1251h-155v1251h-414v131h1132z" />
    <glyph glyph-name="f_b.liga" unicode="fb" horiz-adv-x="1822" 
d="M1323 909q-142 0 -229 -141q-74 -122 -74 -276v-357q85 -26 198 -26q348 0 348 434q0 366 -243 366zM1018 1398h2v-419q0 -110 -19 -186l4 -2q92 245 348 245q375 0 375 -481q0 -269 -142 -420q-140 -147 -382 -147q-196 0 -338 39v1077h-2v262q-102 16 -188 16
q-287 0 -287 -258v-106h297v-121h-297v-897h-154v897h-221v121h221v125q0 362 455 362q154 0 328 -26v-81z" />
    <glyph glyph-name="f_f_b.liga" unicode="ffb" horiz-adv-x="2452" 
d="M1953 909q-142 0 -229 -141q-74 -122 -74 -276v-357q85 -26 198 -26q348 0 348 434q0 366 -243 366zM1650 979q0 -110 -19 -186l4 -2q92 245 348 245q375 0 375 -481q0 -269 -142 -420q-140 -147 -382 -147q-196 0 -338 39v1338q-104 17 -190 17q-287 0 -287 -258v-106
h297v-121h-297v-897h-154v897h-476v-897h-154v897h-221v121h221v72q0 415 385 415q85 0 168 -18l-14 -129q-71 22 -160 22q-225 0 -225 -286v-76h476v125q0 362 455 362q154 0 331 -28z" />
    <glyph glyph-name="f_f.liga" unicode="ff" horiz-adv-x="1342" 
d="M389 897v-897h-154v897h-221v121h221v72q0 415 385 415q85 0 168 -18l-14 -129q-71 22 -160 22q-225 0 -225 -286v-76h476v72q0 415 385 415q85 0 168 -18l-14 -129q-71 22 -160 22q-225 0 -225 -286v-76h301v-121h-301v-897h-154v897h-476z" />
    <glyph glyph-name="f_h.liga" unicode="fh" horiz-adv-x="1861" 
d="M1018 1438h2v-443q0 -134 -17 -202l4 -2q98 245 363 245q305 0 305 -327v-709h-154v657q0 252 -190 252q-136 0 -224 -120q-87 -119 -87 -302v-487h-154v1146h-2v220q-102 16 -188 16q-287 0 -287 -258v-106h297v-121h-297v-897h-154v897h-221v121h221v125q0 362 455 362
q154 0 328 -26v-41z" />
    <glyph glyph-name="f_f_h.liga" unicode="ffh" horiz-adv-x="2491" 
d="M389 897v-897h-154v897h-221v121h221v72q0 415 385 415q85 0 168 -18l-14 -129q-71 22 -160 22q-225 0 -225 -286v-76h476v125q0 362 455 362q154 0 328 -26v-41h2v-443q0 -134 -17 -202l4 -2q98 245 363 245q305 0 305 -327v-709h-154v657q0 252 -190 252
q-136 0 -224 -120q-87 -119 -87 -302v-487h-154v1146h-2v220q-102 16 -188 16q-287 0 -287 -258v-106h297v-121h-297v-897h-154v897h-476z" />
    <glyph glyph-name="f_f_i.liga" unicode="ffi" horiz-adv-x="1834" 
d="M389 897v-897h-154v897h-221v121h221v72q0 415 385 415q85 0 168 -18l-14 -129q-71 22 -160 22q-225 0 -225 -286v-76h476v49q0 438 463 438q139 0 277 -37l-31 -129q-127 41 -248 41q-307 0 -307 -293v-69h629v-1018h-154v897h-475v-897h-154v897h-476z" />
    <glyph glyph-name="f_j.liga" unicode="fj" horiz-adv-x="1204" 
d="M863 897h-474v-897h-154v897h-221v121h221v49q0 438 463 438q139 0 277 -37l-31 -129q-127 41 -248 41q-307 0 -307 -293v-69h626v-1147q0 -209 -71 -299q-76 -96 -263 -96q-79 0 -137 18l14 135q67 -24 131 -24q103 0 139 53q35 53 35 203v1036z" />
    <glyph glyph-name="f_f_j.liga" unicode="ffj" horiz-adv-x="1834" 
d="M1493 897h-474v-897h-154v897h-476v-897h-154v897h-221v121h221v72q0 415 385 415q85 0 168 -18l-14 -129q-71 22 -160 22q-225 0 -225 -286v-76h476v49q0 438 463 438q139 0 277 -37l-31 -129q-127 41 -248 41q-307 0 -307 -293v-69h626v-1147q0 -209 -71 -299
q-76 -96 -263 -96q-79 0 -137 18l14 135q67 -24 131 -24q103 0 139 53q35 53 35 203v1036z" />
    <glyph glyph-name="f_k.liga" unicode="fk" horiz-adv-x="1667" 
d="M1018 429v-429h-154v1366q-102 16 -188 16q-287 0 -287 -258v-106h297v-121h-297v-897h-154v897h-221v121h221v125q0 362 455 362q154 0 328 -26v-762h2v-156l383 457h186l-406 -463l437 -555h-199l-401 535v-106h-2z" />
    <glyph glyph-name="f_f_k.liga" unicode="ffk" horiz-adv-x="2297" 
d="M1648 0h-154v1366q-102 16 -188 16q-287 0 -287 -258v-106h297v-121h-297v-897h-154v897h-476v-897h-154v897h-221v121h221v72q0 415 385 415q85 0 168 -18l-14 -129q-71 22 -160 22q-225 0 -225 -286v-76h476v125q0 362 455 362q154 0 328 -26v-920l385 459h186
l-406 -463l437 -555h-199l-403 535v-535z" />
    <glyph glyph-name="f_f_l.liga" unicode="ffl" horiz-adv-x="1834" 
d="M389 897v-897h-154v897h-221v121h221v72q0 415 385 415q85 0 168 -18l-14 -129q-71 22 -160 22q-225 0 -225 -286v-76h476v125q0 362 455 362q154 0 328 -26v-1479h-154v1366q-102 16 -188 16q-287 0 -287 -258v-106h297v-121h-297v-897h-154v897h-476z" />
    <glyph glyph-name="f_t.liga" unicode="ft" horiz-adv-x="1397" 
d="M389 897v-897h-154v897h-221v121h221v72q0 415 385 415q85 0 168 -18l-14 -129q-71 22 -160 22q-225 0 -225 -286v-76h476v338l154 43v-381h299v-121h-299v-549q0 -136 31 -183q32 -46 122 -46q75 0 138 16l18 -129q-105 -22 -199 -22q-149 0 -209 71q-55 67 -55 230v612
h-476z" />
    <glyph glyph-name="f_f_t.liga" unicode="fft" horiz-adv-x="2027" 
d="M1495 1018v338l154 43v-381h299v-121h-299v-549q0 -136 31 -183q32 -46 122 -46q75 0 138 16l18 -129q-105 -22 -199 -22q-149 0 -209 71q-55 67 -55 230v612h-476v-897h-154v897h-476v-897h-154v897h-221v121h221v72q0 415 385 415q85 0 168 -18l-14 -129
q-71 22 -160 22q-225 0 -225 -286v-76h476v72q0 415 385 415q85 0 168 -18l-14 -129q-71 22 -160 22q-225 0 -225 -286v-76h476z" />
    <glyph glyph-name="uni0647.fina" unicode="&#x647;" horiz-adv-x="1393" arabic-form="final" 
d="M1424 0h-278q-59 0 -145 6v-2q215 -66 215 -287q0 -175 -108 -274q-108 -98 -296 -98q-249 0 -385 176q-129 168 -143 479h-244v125h244q24 580 442 876q451 -258 451 -557q0 -251 -179 -321v-4q86 6 152 6h274v-125zM439 125h252q330 0 330 299q0 213 -287 393
q-285 -239 -295 -692zM441 0q31 -530 387 -530q112 0 173 65q59 62 59 172q0 128 -104 209q-108 84 -287 84h-228z" />
    <glyph glyph-name="uni0672.fina" unicode="&#x672;" horiz-adv-x="561" 
d="M203 1382h156v-1257h233v-125h-389v1382zM452 1716q-8 116 -83 116q-118 0 -164 -175h346v-102h-548v102h104q71 255 273 255q160 0 170 -196h-98z" />
    <glyph glyph-name="uni0673.fina" unicode="&#x673;" horiz-adv-x="561" 
d="M203 1382h156v-1257h233v-125h-389v1382zM453 -357q-8 114 -82 114q-116 0 -161 -173h341v-100h-541v100h103q70 252 270 252q157 0 167 -193h-97z" />
    <glyph glyph-name="uni0675.fina" unicode="&#x675;" horiz-adv-x="941" 
d="M202 1382h156v-1257h613v-125h-769v1382zM415 1316q107 0 156 -8q-66 28 -66 107q0 76 57 128q66 60 191 60q59 0 107 -10l-17 -94q-90 8 -100 8q-121 0 -121 -90q0 -101 168 -101h109v-96h-484v96z" />
    <glyph glyph-name="uni0676.fina" unicode="&#x676;" horiz-adv-x="1214" 
d="M106 -487l13 135q176 -43 329 -43q406 0 406 338v57h-223q-535 0 -535 479q0 215 126 354q138 152 380 152q219 0 405 -72v-788h238v-125h-238v-53q0 -193 -126 -316q-151 -149 -451 -149q-160 0 -324 31zM854 809q-109 51 -269 51q-152 0 -241 -99q-88 -98 -88 -263
q0 -192 93 -281q97 -92 306 -92h199v684zM621 1266q92 0 154 -11q-64 28 -64 105q0 81 57 133q66 61 191 61q51 0 105 -8l-15 -100q-45 8 -100 8q-119 0 -119 -90q0 -98 166 -98h109v-101h-484v101z" />
    <glyph glyph-name="uni0677.fina" unicode="&#x677;" horiz-adv-x="1214" 
d="M107 -487l12 135q176 -43 330 -43q405 0 405 338v57h-223q-535 0 -535 479q0 215 127 354q138 152 379 152q219 0 406 -72v-788h237v-125h-237v-53q0 -193 -126 -316q-152 -149 -452 -149q-160 0 -323 31zM854 809q-108 51 -268 51q-153 0 -242 -99q-88 -98 -88 -263
q0 -192 94 -281q96 -92 305 -92h199v684zM622 1266q92 0 153 -11q-63 28 -63 105q0 81 56 133q66 61 192 61q51 0 104 -8l-14 -100q-45 8 -101 8q-118 0 -118 -90q0 -98 165 -98h109v-101h-483v101zM93 1252l162 34q-17 35 -17 76q0 76 53 122q51 46 130 46q65 0 106 -38
t41 -99q0 -122 -180 -158l-279 -59zM376 1311q104 22 104 78q0 61 -68 61q-83 0 -83 -86q0 -37 14 -59z" />
    <glyph glyph-name="uni0678.init" unicode="&#x678;" horiz-adv-x="961" 
d="M402 1260q92 0 154 -11q-64 27 -64 105q0 81 57 133q65 61 191 61q51 0 105 -8l-15 -100q-45 8 -100 8q-119 0 -119 -90q0 -98 166 -98h108v-101h-483v101zM0 125h305v838h156v-963h-461v125z" />
    <glyph glyph-name="uni0678.medi" unicode="&#x678;" horiz-adv-x="947" 
d="M0 125h305v838h156v-838h517v-125h-978v125zM402 1268q92 0 154 -11q-64 28 -64 105q0 81 57 133q65 61 191 61q51 0 105 -8l-15 -100q-45 8 -100 8q-119 0 -119 -90q0 -98 166 -98h108v-101h-483v101z" />
    <glyph glyph-name="uni0678.fina" unicode="&#x678;" horiz-adv-x="2048" 
d="M841 0q-369 0 -539 148q-163 143 -163 444q0 197 70 348l168 31q-82 -164 -82 -359q0 -253 117 -364q130 -123 450 -123h190v821q172 39 357 39q242 0 352 -118q100 -108 100 -328v-414h217v-125h-370v514q0 185 -75 266q-74 80 -241 80q-92 0 -186 -20v-840h-365z
M1498 1268q92 0 154 -11q-64 28 -64 105q0 81 56 133q66 61 192 61q51 0 104 -8l-14 -100q-45 8 -100 8q-119 0 -119 -90q0 -98 166 -98h108v-101h-483v101z" />
    <glyph glyph-name="uni067C.init" unicode="&#x67c;" horiz-adv-x="651" 
d="M426 1192q-29 28 -29 70q0 41 29 69q29 29 70 29q40 0 69 -29q29 -28 29 -69q0 -40 -29 -70q-29 -29 -69 -29q-41 0 -70 29zM139 1192q-28 28 -28 70q0 41 28 69q28 29 68 29q41 0 70 -29q28 -28 28 -69t-28 -70q-29 -29 -70 -29q-40 0 -68 29zM290 -108q0 107 -91 107
q-47 0 -75 -29q-27 -29 -27 -78q0 -56 29 -82q30 -27 95 -27h69v109zM76 0h-76v125h305v838h156v-963h-134q22 -36 22 -96v-177h-133q-178 0 -178 159q0 69 38 114z" />
    <glyph glyph-name="uni067C.medi" unicode="&#x67c;" horiz-adv-x="651" 
d="M426 1192q-29 28 -29 70q0 41 29 69q29 29 70 29q40 0 69 -29q29 -28 29 -69q0 -40 -29 -70q-29 -29 -69 -29q-41 0 -70 29zM139 1192q-28 28 -28 70q0 41 28 69q28 29 68 29q41 0 70 -29q28 -28 28 -69t-28 -70q-29 -29 -70 -29q-40 0 -68 29zM290 -108q0 107 -91 107
q-47 0 -75 -29q-27 -29 -27 -78q0 -56 29 -82q30 -27 95 -27h69v109zM76 0h-76v125h305v838h156v-838h221v-125h-355q22 -36 22 -96v-177h-133q-178 0 -178 159q0 69 38 114z" />
    <glyph glyph-name="uni067C.fina" unicode="&#x67c;" horiz-adv-x="1599" 
d="M897 1192q-29 28 -29 70q0 41 29 69q29 29 69 29q41 0 70 -29q29 -28 29 -69q0 -40 -29 -70q-30 -29 -70 -29t-69 29zM610 1192q-29 28 -29 70q0 41 29 69q28 29 68 29q41 0 70 -29q28 -28 28 -69t-28 -70q-29 -29 -70 -29q-40 0 -68 29zM910 -108q0 107 -91 107
q-47 0 -75 -29q-27 -29 -27 -78q0 -56 29 -82q30 -27 95 -27h69v109zM702 6q-264 24 -400 142q-163 143 -163 444q0 197 70 348l168 31q-82 -164 -82 -359q0 -253 117 -364q130 -123 450 -123h375v838h157v-838h236v-125h-683q22 -36 22 -96v-177h-133q-178 0 -178 159
q0 72 42 118z" />
    <glyph glyph-name="uni067D.init" unicode="&#x67d;" horiz-adv-x="651" 
d="M0 125h305v838h156v-963h-461v125zM350 1356q40 0 67 -28t27 -68q0 -41 -27 -69t-67 -28t-67 28t-27 69t27 68q27 28 67 28zM494 1581q41 0 69 -29q29 -29 29 -69q0 -42 -29 -70q-28 -29 -69 -29t-69 29q-28 28 -28 70q0 41 28 70q28 28 69 28zM207 1581q40 0 69 -29
t29 -69q0 -41 -29 -70t-69 -29q-42 0 -70 29q-28 28 -28 70q0 41 28 70q28 28 70 28z" />
    <glyph glyph-name="uni067D.medi" unicode="&#x67d;" horiz-adv-x="667" 
d="M0 125h305v838h156v-838h237v-125h-698v125zM207 1581q40 0 69 -29t29 -69q0 -41 -29 -70t-69 -29q-42 0 -70 29q-28 28 -28 70q0 41 28 70q28 28 70 28zM494 1581q41 0 69 -29q29 -29 29 -69q0 -42 -29 -70q-28 -29 -69 -29t-69 29q-28 28 -28 70q0 41 28 70
q28 28 69 28zM350 1356q40 0 67 -28t27 -68q0 -41 -27 -69t-67 -28t-67 28t-27 69t27 68q27 28 67 28z" />
    <glyph glyph-name="uni067D.fina" unicode="&#x67d;" horiz-adv-x="1599" 
d="M841 0q-369 0 -539 148q-163 143 -163 444q0 197 70 348l168 31q-82 -164 -82 -359q0 -253 117 -364q130 -123 450 -123h375v838h157v-838h236v-125h-789zM678 1581q40 0 69 -29t29 -69q0 -41 -29 -70t-69 -29q-42 0 -70 29q-29 28 -29 70q0 41 29 70q28 28 70 28z
M964 1581q41 0 70 -29t29 -69q0 -42 -29 -70q-28 -29 -70 -29q-40 0 -68 29q-28 28 -28 70q0 41 28 70q28 28 68 28zM821 1356q40 0 67 -28t27 -68q0 -41 -27 -69t-67 -28t-67 28t-27 69t27 68q27 28 67 28z" />
    <glyph glyph-name="uni0681.init" unicode="&#x681;" horiz-adv-x="1183" 
d="M0 125h866q17 128 17 231q0 256 -102 369q-109 121 -367 121q-115 0 -224 -15v123q127 17 238 17q327 0 473 -153q137 -143 137 -445q0 -164 -34 -373h-1004v125zM301 1296q92 0 154 -11q-64 28 -64 105q0 81 57 133q66 61 191 61q51 0 105 -8l-15 -100q-45 8 -100 8
q-119 0 -119 -90q0 -98 166 -98h109v-101h-484v101z" />
    <glyph glyph-name="uni0681.medi" unicode="&#x681;" horiz-adv-x="1193" 
d="M0 125h866q17 128 17 231q0 256 -102 369q-109 121 -367 121q-115 0 -224 -15v123q127 17 238 17q327 0 473 -153q137 -143 137 -445q0 -97 -16 -248h203v-125h-1225v125zM301 1296q92 0 154 -11q-64 28 -64 105q0 81 57 133q66 61 191 61q51 0 105 -8l-15 -100
q-45 8 -100 8q-119 0 -119 -90q0 -98 166 -98h109v-101h-484v101z" />
    <glyph glyph-name="uni0681.fina" unicode="&#x681;" horiz-adv-x="1214" 
d="M182 -549q-137 101 -137 268q0 406 623 406h219q16 128 16 231q0 256 -102 369q-108 121 -367 121q-114 0 -223 -15v123q127 17 237 17q327 0 474 -153q137 -143 137 -445q0 -97 -17 -248h203v-125h-588q-456 0 -456 -266q0 -118 100 -188q108 -76 305 -76q171 0 377 43
l12 -121q-200 -47 -401 -47q-266 0 -412 106zM301 1296q92 0 154 -11q-64 28 -64 105q0 81 57 133q66 61 191 61q51 0 105 -8l-15 -100q-45 8 -100 8q-119 0 -119 -90q0 -98 166 -98h109v-101h-484v101z" />
    <glyph glyph-name="uni0682.init" unicode="&#x682;" horiz-adv-x="1183" 
d="M0 125h866q17 128 17 231q0 256 -102 369q-109 121 -367 121q-115 0 -224 -15v123q127 17 238 17q327 0 473 -153q137 -143 137 -445q0 -164 -34 -373h-1004v125zM386 1586q0 41 29 70q29 28 69 28q42 0 70 -28q29 -28 29 -70q0 -40 -29 -68q-28 -28 -70 -28
q-41 0 -69 28q-29 28 -29 68zM386 1299q0 40 29 70q30 29 69 29q42 0 70 -29q29 -29 29 -70t-29 -69q-28 -29 -70 -29q-41 0 -69 29q-29 28 -29 69z" />
    <glyph glyph-name="uni0682.medi" unicode="&#x682;" horiz-adv-x="1193" 
d="M0 125h866q17 128 17 231q0 256 -102 369q-109 121 -367 121q-115 0 -224 -15v123q127 17 238 17q327 0 473 -153q137 -143 137 -445q0 -97 -16 -248h203v-125h-1225v125zM386 1586q0 41 29 70q29 28 69 28q42 0 70 -28q29 -28 29 -70q0 -40 -29 -68q-28 -28 -70 -28
q-41 0 -69 28q-29 28 -29 68zM386 1299q0 40 29 70q30 29 69 29q42 0 70 -29q29 -29 29 -70t-29 -69q-28 -29 -70 -29q-41 0 -69 29q-29 28 -29 69z" />
    <glyph glyph-name="uni0682.fina" unicode="&#x682;" horiz-adv-x="1214" 
d="M182 -549q-137 101 -137 268q0 406 623 406h219q16 128 16 231q0 256 -102 369q-108 121 -367 121q-114 0 -223 -15v123q127 17 237 17q327 0 474 -153q137 -143 137 -445q0 -97 -17 -248h203v-125h-588q-456 0 -456 -266q0 -118 100 -188q108 -76 305 -76q171 0 377 43
l12 -121q-200 -47 -401 -47q-266 0 -412 106zM406 1586q0 41 29 70q29 28 69 28q42 0 70 -28q29 -28 29 -70q0 -40 -29 -68q-28 -28 -70 -28q-41 0 -69 28q-29 28 -29 68zM406 1299q0 40 29 70q30 29 69 29q42 0 70 -29q29 -29 29 -70t-29 -69q-28 -29 -70 -29q-41 0 -69 29
q-29 28 -29 69z" />
    <glyph glyph-name="uni0685.init" unicode="&#x685;" horiz-adv-x="1183" 
d="M0 125h866q17 128 17 231q0 256 -102 369q-109 121 -367 121q-115 0 -224 -15v123q127 17 238 17q327 0 473 -153q137 -143 137 -445q0 -164 -34 -373h-1004v125zM444 1448q-27 27 -27 69q0 40 27 68t67 28t67 -28t27 -68t-27 -68t-67 -28t-67 27zM586 1224
q-28 28 -28 70q0 41 28 69q28 29 68 29q42 0 70 -29q29 -28 29 -69t-29 -70t-70 -29q-40 0 -68 29zM298 1224q-29 28 -29 70q0 41 29 69q28 29 70 29q40 0 69 -29q29 -28 29 -69q0 -40 -29 -70q-29 -29 -69 -29q-42 0 -70 29z" />
    <glyph glyph-name="uni0685.medi" unicode="&#x685;" horiz-adv-x="1193" 
d="M0 125h866q17 128 17 231q0 256 -102 369q-109 121 -367 121q-115 0 -224 -15v123q127 17 238 17q327 0 473 -153q137 -143 137 -445q0 -97 -16 -248h203v-125h-1225v125zM444 1448q-27 27 -27 69q0 40 27 68t67 28t67 -28t27 -68t-27 -68t-67 -28t-67 27zM586 1224
q-28 28 -28 70q0 41 28 69q28 29 68 29q42 0 70 -29q29 -28 29 -69t-29 -70t-70 -29q-40 0 -68 29zM298 1224q-29 28 -29 70q0 41 29 69q28 29 70 29q40 0 69 -29q29 -28 29 -69q0 -40 -29 -70q-29 -29 -69 -29q-42 0 -70 29z" />
    <glyph glyph-name="uni0685.fina" unicode="&#x685;" horiz-adv-x="1214" 
d="M182 -549q-137 101 -137 268q0 406 623 406h219q16 128 16 231q0 256 -102 369q-108 121 -367 121q-114 0 -223 -15v123q127 17 237 17q327 0 474 -153q137 -143 137 -445q0 -97 -17 -248h203v-125h-588q-456 0 -456 -266q0 -118 100 -188q108 -76 305 -76q171 0 377 43
l12 -121q-200 -47 -401 -47q-266 0 -412 106zM444 1448q-27 27 -27 69q0 40 27 68t67 28t67 -28t27 -68t-27 -68t-67 -28t-67 27zM586 1224q-28 28 -28 70q0 41 28 69q28 29 68 29q42 0 70 -29q29 -28 29 -69t-29 -70t-70 -29q-40 0 -68 29zM298 1224q-29 28 -29 70
q0 41 29 69q28 29 70 29q40 0 69 -29q29 -28 29 -69q0 -40 -29 -70q-29 -29 -69 -29q-42 0 -70 29z" />
    <glyph glyph-name="uni0689.fina" unicode="&#x689;" horiz-adv-x="1083" 
d="M592 -108q0 107 -90 107q-48 0 -75 -29q-28 -29 -28 -78q0 -56 30 -82q29 -27 94 -27h69v109zM379 0h-269v125h678q-3 305 -125 477q-123 174 -406 264l41 133q330 -108 480 -305q156 -207 163 -569h173v-125h-485q22 -36 22 -96v-177h-133q-178 0 -178 159q0 69 39 114z
" />
    <glyph glyph-name="uni068A.fina" unicode="&#x68a;" horiz-adv-x="1083" 
d="M110 125h678q-3 305 -125 477q-123 174 -406 264l41 133q330 -108 480 -305q156 -207 163 -569h173v-125h-1004v125zM456 -378q-29 28 -29 71q0 41 29 70q28 28 70 28t70 -28t28 -70t-28 -70q-29 -29 -70 -29q-42 0 -70 28z" />
    <glyph glyph-name="uni068B.fina" unicode="&#x68b;" horiz-adv-x="1083" 
d="M110 125h678q-3 305 -125 477q-123 174 -406 264l41 133q330 -108 480 -305q156 -207 163 -569h173v-125h-1004v125zM360 1597q0 -66 -12 -131h2q92 164 256 164q188 0 188 -188q0 -244 -299 -244h-242v576h107v-177zM591 1540q-81 0 -155 -85q-70 -81 -76 -171h151
q172 0 172 143q0 113 -92 113zM456 -378q-29 28 -29 71q0 41 29 70q28 28 70 28t70 -28t28 -70t-28 -70q-29 -29 -70 -29q-42 0 -70 28z" />
    <glyph glyph-name="uni068F.fina" unicode="&#x68f;" horiz-adv-x="1083" 
d="M110 125h678q-3 305 -125 477q-123 174 -406 264l41 133q330 -108 480 -305q156 -207 163 -569h173v-125h-1004v125zM491 1356q40 0 67 -28t27 -68q0 -41 -27 -69t-67 -28t-67 28t-27 69t27 68q27 28 67 28zM634 1581q41 0 70 -29t29 -69q0 -42 -29 -70q-28 -29 -70 -29
q-40 0 -68 29q-28 28 -28 70q0 41 28 70q28 28 68 28zM348 1581q40 0 69 -29t29 -69q0 -41 -29 -70t-69 -29q-42 0 -70 29q-29 28 -29 70q0 41 29 70q28 28 70 28z" />
    <glyph glyph-name="uni0690.fina" unicode="&#x690;" horiz-adv-x="1083" 
d="M110 125h678q-3 305 -125 477q-123 174 -406 264l41 133q330 -108 480 -305q156 -207 163 -569h173v-125h-1004v125zM699 1193q-27 -28 -67 -28q-39 0 -66 28q-28 28 -28 69q0 38 28 66t66 28q40 0 67 -27t27 -67q0 -41 -27 -69zM414 1193q-27 -28 -67 -28q-39 0 -66 28
q-28 28 -28 69q0 38 28 66t66 28q40 0 67 -27q28 -27 28 -67q0 -41 -28 -69zM699 1428q-27 -28 -67 -28q-39 0 -66 28q-28 28 -28 69q0 38 28 66t66 28q40 0 67 -27t27 -67q0 -41 -27 -69zM414 1428q-27 -28 -67 -28q-39 0 -66 28q-28 28 -28 69q0 38 28 66t66 28
q40 0 67 -27q28 -27 28 -67q0 -41 -28 -69z" />
    <glyph glyph-name="uni0692.fina" unicode="&#x692;" horiz-adv-x="888" 
d="M-10 -496l23 131q112 -41 221 -41q145 0 214 82q79 90 79 297v990h157v-838h236v-125h-236v-10q0 -518 -463 -518q-114 0 -231 32zM590 1164l-235 228l64 66l175 -154l174 154l61 -65z" />
    <glyph glyph-name="uni0693.fina" unicode="&#x693;" horiz-adv-x="888" 
d="M345 -517q-13 -3 -26 -4q-24 -7 -41 -25q-27 -29 -27 -78q0 -56 29 -82q30 -27 95 -27h69v109q0 107 -91 107h-8zM221 -528q-114 0 -231 32l23 131q112 -41 221 -41q145 0 214 82q79 90 79 297v990h157v-838h236v-125h-236v-10q0 -368 -233 -474q52 -37 52 -128v-177
h-133q-178 0 -178 159q0 60 29 102z" />
    <glyph glyph-name="uni0694.fina" unicode="&#x694;" horiz-adv-x="888" 
d="M-10 -496l23 131q112 -41 221 -41q145 0 214 82q79 90 79 297v990h157v-838h236v-125h-236v-10q0 -518 -463 -518q-114 0 -231 32zM360 -850q-28 28 -28 70q0 41 28 69q28 29 68 29q42 0 70 -29q29 -28 29 -69t-29 -70q-28 -29 -70 -29q-40 0 -68 29z" />
    <glyph glyph-name="uni0695.fina" unicode="&#x695;" horiz-adv-x="888" 
d="M-10 -496l23 131q112 -41 221 -41q145 0 214 82q79 90 79 297v990h157v-838h236v-125h-236v-10q0 -518 -463 -518q-114 0 -231 32zM372 -977l-235 228l64 66l175 -154l174 154l61 -65z" />
    <glyph glyph-name="uni0696.fina" unicode="&#x696;" horiz-adv-x="888" 
d="M-10 -496l23 131q112 -41 221 -41q145 0 214 82q79 90 79 297v990h157v-838h236v-125h-236v-10q0 -518 -463 -518q-114 0 -231 32zM360 -850q-28 28 -28 70q0 41 28 69q28 29 68 29q42 0 70 -29q29 -28 29 -69t-29 -70q-28 -29 -70 -29q-40 0 -68 29zM223 25
q-29 28 -29 70q0 41 29 69q28 29 70 29q40 0 69 -29q29 -28 29 -69q0 -40 -29 -70q-29 -29 -69 -29q-42 0 -70 29z" />
    <glyph glyph-name="uni0697.fina" unicode="&#x697;" horiz-adv-x="888" 
d="M-10 -496l23 131q112 -41 221 -41q145 0 214 82q79 90 79 297v990h157v-838h236v-125h-236v-10q0 -518 -463 -518q-114 0 -231 32zM379 1192q-29 28 -29 70q0 41 29 69q28 29 70 29q40 0 69 -29q29 -28 29 -69q0 -40 -29 -70q-29 -29 -69 -29q-42 0 -70 29zM667 1192
q-28 28 -28 70q0 41 28 69q28 29 68 29q42 0 70 -29q29 -28 29 -69t-29 -70q-28 -29 -70 -29q-40 0 -68 29z" />
    <glyph glyph-name="uni0699.fina" unicode="&#x699;" horiz-adv-x="888" 
d="M-10 -496l23 131q112 -41 221 -41q145 0 214 82q79 90 79 297v990h157v-838h236v-125h-236v-10q0 -518 -463 -518q-114 0 -231 32zM803 1193q-27 -28 -67 -28q-39 0 -66 28q-28 28 -28 69q0 38 28 66t66 28q40 0 67 -27t27 -67q0 -41 -27 -69zM518 1193q-27 -28 -67 -28
q-39 0 -66 28q-28 28 -28 69q0 38 28 66t66 28q40 0 67 -27q28 -27 28 -67q0 -41 -28 -69zM803 1428q-27 -28 -67 -28q-39 0 -66 28q-28 28 -28 69q0 38 28 66t66 28q40 0 67 -27t27 -67q0 -41 -27 -69zM518 1428q-27 -28 -67 -28q-39 0 -66 28q-28 28 -28 69q0 38 28 66
t66 28q40 0 67 -27q28 -27 28 -67q0 -41 -28 -69z" />
    <glyph glyph-name="uni069A.init" unicode="&#x69a;" horiz-adv-x="1767" 
d="M0 125h84q117 0 167 62q54 66 54 227v426h156v-371q0 -199 24 -262q36 -96 160 -96q111 0 165 70q64 85 64 286v455h152v-529q0 -170 72 -223q62 -45 250 -45h71q19 162 19 301q0 315 -72 569l152 31q75 -277 75 -586q0 -214 -34 -440h-191q-209 0 -300 36
q-96 36 -138 138q-62 -188 -312 -188q-212 0 -258 182q-60 -168 -278 -168h-82v125zM872 1192q-28 28 -28 70q0 41 28 69q29 29 70 29q40 0 69 -29q29 -28 29 -69q0 -40 -29 -70q-29 -29 -69 -29q-41 0 -70 29zM872 -378q-28 28 -28 71q0 41 28 70q29 28 70 28q42 0 70 -28
t28 -70t-28 -70q-28 -29 -70 -29t-70 28z" />
    <glyph glyph-name="uni069A.medi" unicode="&#x69a;" horiz-adv-x="1785" 
d="M0 125h84q117 0 167 62q54 66 54 227v426h156v-371q0 -199 24 -262q36 -96 160 -96q111 0 165 70q64 85 64 286v455h152v-529q0 -170 72 -223q62 -45 250 -45h71q19 162 19 301q0 315 -72 569l152 31q75 -277 75 -586q0 -127 -18 -315h242v-125h-449q-209 0 -300 36
q-96 36 -138 138q-62 -188 -312 -188q-212 0 -258 182q-60 -168 -278 -168h-82v125zM873 1192q-28 28 -28 70q0 41 28 69q28 29 68 29q42 0 70 -29q28 -28 28 -69t-28 -70q-29 -29 -70 -29q-40 0 -68 29zM871 -378q-28 28 -28 71q0 41 28 70q29 28 70 28q42 0 70 -28t28 -70
t-28 -70q-28 -29 -70 -29t-70 28z" />
    <glyph glyph-name="uni069A.fina" unicode="&#x69a;" horiz-adv-x="2433" 
d="M277 -348q-148 145 -148 442q0 213 49 398l162 30q-55 -206 -55 -413q0 -457 354 -457q315 0 315 426v762h156v-371q0 -186 44 -269q46 -89 157 -89q213 0 213 356v455h151v-529q0 -169 72 -222q62 -46 250 -46h71q19 162 19 301q0 320 -74 569l154 31q76 -277 76 -586
q0 -127 -19 -315h240v-125h-447q-209 0 -303 37q-97 38 -135 137q-32 -98 -121 -149q-69 -39 -145 -39q-146 0 -209 102v-18q0 -543 -481 -543q-219 0 -346 125zM1510 1192q-28 28 -28 70q0 41 28 69q28 29 68 29q41 0 70 -29q28 -28 28 -69t-28 -70q-29 -29 -70 -29
q-40 0 -68 29zM1508 -378q-28 28 -28 71q0 41 28 70q28 28 70 28t70 -28t28 -70t-28 -70q-29 -29 -70 -29q-42 0 -70 28z" />
    <glyph glyph-name="uni069B.init" unicode="&#x69b;" horiz-adv-x="1767" 
d="M0 125h84q117 0 167 62q54 66 54 227v426h156v-371q0 -199 24 -262q36 -96 160 -96q111 0 165 70q64 85 64 286v455h152v-529q0 -170 72 -223q62 -45 250 -45h71q19 162 19 301q0 315 -72 569l152 31q75 -277 75 -586q0 -214 -34 -440h-191q-209 0 -300 36
q-96 36 -138 138q-62 -188 -312 -188q-212 0 -258 182q-60 -168 -278 -168h-82v125zM870 -300q-27 -28 -67 -28q-39 0 -66 28q-28 28 -28 69q0 38 28 66q27 28 66 28q40 0 67 -27t27 -67q0 -41 -27 -69zM1157 -300q-28 -28 -67 -28t-67 28t-28 69q0 38 28 66t67 28t67 -27
q27 -27 27 -67q0 -41 -27 -69zM1009 -512q-26 -27 -65 -27t-66 26q-28 27 -28 67q0 38 28 65t66 27q39 0 65 -26q27 -27 27 -66t-27 -66z" />
    <glyph glyph-name="uni069B.medi" unicode="&#x69b;" horiz-adv-x="1785" 
d="M0 125h84q117 0 167 62q54 66 54 227v426h156v-371q0 -199 24 -262q36 -96 160 -96q111 0 165 70q64 85 64 286v455h152v-529q0 -170 72 -223q62 -45 250 -45h71q19 162 19 301q0 315 -72 569l152 31q75 -277 75 -586q0 -127 -18 -315h242v-125h-449q-209 0 -300 36
q-96 36 -138 138q-62 -188 -312 -188q-212 0 -258 182q-60 -168 -278 -168h-82v125zM870 -300q-27 -28 -67 -28q-39 0 -66 28q-28 28 -28 69q0 38 28 66q27 28 66 28q40 0 67 -27t27 -67q0 -41 -27 -69zM1157 -300q-28 -28 -67 -28t-67 28t-28 69q0 38 28 66t67 28t67 -27
q27 -27 27 -67q0 -41 -27 -69zM1009 -512q-26 -27 -65 -27t-66 26q-28 27 -28 67q0 38 28 65t66 27q39 0 65 -26q27 -27 27 -66t-27 -66z" />
    <glyph glyph-name="uni069B.fina" unicode="&#x69b;" horiz-adv-x="2433" 
d="M277 -348q-148 145 -148 442q0 213 49 398l162 30q-55 -206 -55 -413q0 -457 354 -457q315 0 315 426v762h156v-371q0 -186 44 -269q46 -89 157 -89q213 0 213 356v455h151v-529q0 -169 72 -222q62 -46 250 -46h71q19 162 19 301q0 320 -74 569l154 31q76 -277 76 -586
q0 -127 -19 -315h240v-125h-447q-209 0 -303 37q-97 38 -135 137q-32 -98 -121 -149q-69 -39 -145 -39q-146 0 -209 102v-18q0 -543 -481 -543q-219 0 -346 125zM1507 -300q-28 -28 -67 -28t-67 28q-27 28 -27 69q0 38 27 66q28 28 67 28q40 0 67 -27t27 -67q0 -41 -27 -69z
M1794 -300q-28 -28 -68 -28q-38 0 -66 28t-28 69q0 38 28 66t66 28q40 0 68 -27q27 -27 27 -67q0 -41 -27 -69zM1646 -512q-27 -27 -65 -27q-39 0 -66 26q-28 27 -28 67q0 38 28 65q27 27 66 27t65 -26q27 -27 27 -66t-27 -66z" />
    <glyph glyph-name="uni069C.init" unicode="&#x69c;" horiz-adv-x="1767" 
d="M0 125h84q117 0 167 62q54 66 54 227v426h156v-371q0 -199 24 -262q36 -96 160 -96q111 0 165 70q64 85 64 286v455h152v-529q0 -170 72 -223q62 -45 250 -45h71q19 162 19 301q0 315 -72 569l152 31q75 -277 75 -586q0 -214 -34 -440h-191q-209 0 -300 36
q-96 36 -138 138q-62 -188 -312 -188q-212 0 -258 182q-60 -168 -278 -168h-82v125zM875 1416q-27 27 -27 69q0 40 27 68t67 28t67 -28t27 -68t-27 -68t-67 -28t-67 27zM1017 1192q-28 28 -28 70q0 41 28 69q28 29 68 29q42 0 70 -29q29 -28 29 -69t-29 -70q-28 -29 -70 -29
q-40 0 -68 29zM729 1192q-29 28 -29 70q0 41 29 69q28 29 70 29q40 0 69 -29q29 -28 29 -69q0 -40 -29 -70q-29 -29 -69 -29q-42 0 -70 29zM870 -300q-27 -28 -67 -28q-39 0 -66 28q-28 28 -28 69q0 38 28 66q27 28 66 28q40 0 67 -27t27 -67q0 -41 -27 -69zM1157 -300
q-28 -28 -67 -28t-67 28t-28 69q0 38 28 66t67 28t67 -27q27 -27 27 -67q0 -41 -27 -69zM1009 -512q-26 -27 -65 -27t-66 26q-28 27 -28 67q0 38 28 65t66 27q39 0 65 -26q27 -27 27 -66t-27 -66z" />
    <glyph glyph-name="uni069C.medi" unicode="&#x69c;" horiz-adv-x="1785" 
d="M0 125h84q117 0 167 62q54 66 54 227v426h156v-371q0 -199 24 -262q36 -96 160 -96q111 0 165 70q64 85 64 286v455h152v-529q0 -170 72 -223q62 -45 250 -45h71q19 162 19 301q0 315 -72 569l152 31q75 -277 75 -586q0 -127 -18 -315h242v-125h-449q-209 0 -300 36
q-96 36 -138 138q-62 -188 -312 -188q-212 0 -258 182q-60 -168 -278 -168h-82v125zM729 1192q-29 28 -29 70q0 41 29 69q28 29 70 29q40 0 69 -29q29 -28 29 -69q0 -40 -29 -70q-29 -29 -69 -29q-42 0 -70 29zM1017 1192q-28 28 -28 70q0 41 28 69q28 29 68 29q42 0 70 -29
q29 -28 29 -69t-29 -70q-28 -29 -70 -29q-40 0 -68 29zM875 1416q-27 27 -27 69q0 40 27 68t67 28t67 -28t27 -68t-27 -68t-67 -28t-67 27zM870 -300q-27 -28 -67 -28q-39 0 -66 28q-28 28 -28 69q0 38 28 66q27 28 66 28q40 0 67 -27t27 -67q0 -41 -27 -69zM1157 -300
q-28 -28 -67 -28t-67 28t-28 69q0 38 28 66t67 28t67 -27q27 -27 27 -67q0 -41 -27 -69zM1009 -512q-26 -27 -65 -27t-66 26q-28 27 -28 67q0 38 28 65t66 27q39 0 65 -26q27 -27 27 -66t-27 -66z" />
    <glyph glyph-name="uni069C.fina" unicode="&#x69c;" horiz-adv-x="2433" 
d="M277 -348q-148 145 -148 442q0 213 49 398l162 30q-55 -206 -55 -413q0 -457 354 -457q315 0 315 426v762h156v-371q0 -186 44 -269q46 -89 157 -89q213 0 213 356v455h151v-529q0 -169 72 -222q62 -46 250 -46h71q19 162 19 301q0 320 -74 569l154 31q76 -277 76 -586
q0 -127 -19 -315h240v-125h-447q-209 0 -303 37q-97 38 -135 137q-32 -98 -121 -149q-69 -39 -145 -39q-146 0 -209 102v-18q0 -543 -481 -543q-219 0 -346 125zM1366 1192q-29 28 -29 70q0 41 29 69q28 29 70 29q40 0 69 -29q29 -28 29 -69q0 -40 -29 -70q-29 -29 -69 -29
q-42 0 -70 29zM1654 1192q-28 28 -28 70q0 41 28 69q28 29 68 29q42 0 70 -29q29 -28 29 -69t-29 -70t-70 -29q-40 0 -68 29zM1512 1416q-27 27 -27 69q0 40 27 68t67 28t67 -28t27 -68t-27 -68t-67 -28t-67 27zM1507 -300q-28 -28 -67 -28t-67 28q-27 28 -27 69q0 38 27 66
q28 28 67 28q40 0 67 -27t27 -67q0 -41 -27 -69zM1794 -300q-28 -28 -68 -28q-38 0 -66 28t-28 69q0 38 28 66t66 28q40 0 68 -27q27 -27 27 -67q0 -41 -27 -69zM1646 -512q-27 -27 -65 -27q-39 0 -66 26q-28 27 -28 67q0 38 28 65q27 27 66 27t65 -26q27 -27 27 -66
t-27 -66z" />
    <glyph glyph-name="uni069D.init" unicode="&#x69d;" horiz-adv-x="1546" 
d="M0 125h301v838h158v-93q0 -225 -23 -391h2q72 242 235 378q154 128 345 128q190 0 295 -122q104 -122 104 -345q0 -230 -129 -363q-150 -155 -457 -155h-831v125zM850 125q407 0 407 381q0 354 -268 354q-214 0 -369 -238q-140 -214 -165 -497h395zM1050 -375
q-29 -28 -69 -28q-41 0 -69 27q-30 29 -30 71q0 40 30 69q29 29 69 29t69 -28q29 -29 29 -70t-29 -70zM762 -375q-28 -28 -70 -28q-40 0 -68 27q-28 28 -28 71q0 40 28 69t68 29q42 0 70 -28q28 -29 28 -70q0 -42 -28 -70z" />
    <glyph glyph-name="uni069D.medi" unicode="&#x69d;" horiz-adv-x="1544" 
d="M0 0v125h301v838h158v-93q0 -225 -23 -391h2q72 242 235 378q154 128 345 128q190 0 295 -122q104 -122 104 -345q0 -257 -162 -393h328v-125h-1583zM872 125q385 10 385 381q0 354 -268 354q-214 0 -369 -238q-140 -214 -165 -497h417zM1020 -375q-29 -28 -69 -28
q-41 0 -69 27q-30 29 -30 71q0 40 30 69q29 29 69 29t69 -28q29 -29 29 -70t-29 -70zM732 -375q-28 -28 -70 -28q-40 0 -68 27q-28 28 -28 71q0 40 28 69t68 29q42 0 70 -28q28 -29 28 -70q0 -42 -28 -70z" />
    <glyph glyph-name="uni069D.fina" unicode="&#x69d;" horiz-adv-x="2174" 
d="M277 -348q-148 145 -148 442q0 213 49 398l162 30q-55 -206 -55 -413q0 -457 354 -457q315 0 315 426v885h156v-93q0 -218 -20 -391h2q70 242 232 378q154 128 345 128q192 0 297 -122t105 -345q0 -257 -162 -393h305v-125h-1110q-16 -234 -153 -359q-126 -114 -328 -114
q-219 0 -346 125zM1501 125q408 0 408 381q0 354 -267 354q-215 0 -370 -238q-141 -214 -164 -497h393zM1770 -375q-29 -28 -69 -28q-41 0 -69 27q-30 29 -30 71q0 40 30 69q29 29 69 29t69 -28q29 -29 29 -70t-29 -70zM1482 -375q-28 -28 -70 -28q-40 0 -68 27
q-28 28 -28 71q0 40 28 69t68 29q42 0 70 -28q28 -29 28 -70q0 -42 -28 -70z" />
    <glyph glyph-name="uni069E.init" unicode="&#x69e;" horiz-adv-x="1511" 
d="M0 125h301v838h158v-93q0 -225 -23 -391h2q72 242 235 378q154 128 345 128q190 0 295 -122q104 -122 104 -345q0 -230 -129 -363q-150 -155 -457 -155h-831v125zM850 125q407 0 407 381q0 354 -268 354q-214 0 -369 -238q-140 -214 -165 -497h395zM775 1456
q-27 27 -27 69q0 40 27 68t67 28t67 -28t27 -68t-27 -68t-67 -28t-67 27zM917 1232q-28 28 -28 70q0 41 28 69q28 29 68 29q42 0 70 -29q29 -28 29 -69t-29 -70q-28 -29 -70 -29q-40 0 -68 29zM629 1232q-29 28 -29 70q0 41 29 69q28 29 70 29q40 0 69 -29q29 -28 29 -69
q0 -40 -29 -70q-29 -29 -69 -29q-42 0 -70 29z" />
    <glyph glyph-name="uni069E.medi" unicode="&#x69e;" horiz-adv-x="1515" 
d="M0 125h301v838h158v-93q0 -225 -23 -391h2q72 242 235 378q154 128 345 128q190 0 295 -122q104 -122 104 -345q0 -257 -162 -393h299v-125h-1554v125zM850 125q407 0 407 381q0 354 -268 354q-214 0 -369 -238q-140 -214 -165 -497h395zM775 1456q-27 27 -27 69
q0 40 27 68t67 28t67 -28t27 -68t-27 -68t-67 -28t-67 27zM917 1232q-28 28 -28 70q0 41 28 69q28 29 68 29q42 0 70 -29q29 -28 29 -69t-29 -70q-28 -29 -70 -29q-40 0 -68 29zM629 1232q-29 28 -29 70q0 41 29 69q28 29 70 29q40 0 69 -29q29 -28 29 -69q0 -40 -29 -70
q-29 -29 -69 -29q-42 0 -70 29z" />
    <glyph glyph-name="uni069E.fina" unicode="&#x69e;" horiz-adv-x="2174" 
d="M277 -348q-148 145 -148 442q0 213 49 398l162 30q-55 -206 -55 -413q0 -457 354 -457q315 0 315 426v885h156v-93q0 -218 -20 -391h2q70 242 232 378q154 128 345 128q192 0 297 -122t105 -345q0 -257 -162 -393h305v-125h-1110q-16 -234 -153 -359q-126 -114 -328 -114
q-219 0 -346 125zM1501 125q408 0 408 381q0 354 -267 354q-215 0 -370 -238q-141 -214 -164 -497h393zM1435 1456q-27 27 -27 69q0 40 27 68t67 28t67 -28t27 -68t-27 -68t-67 -28t-67 27zM1577 1232q-28 28 -28 70q0 41 28 69q28 29 68 29q42 0 70 -29q29 -28 29 -69
t-29 -70q-28 -29 -70 -29q-40 0 -68 29zM1289 1232q-29 28 -29 70q0 41 29 69q28 29 70 29q40 0 69 -29q29 -28 29 -69q0 -40 -29 -70q-29 -29 -69 -29q-42 0 -70 29z" />
    <glyph glyph-name="uni069F.init" unicode="&#x69f;" horiz-adv-x="1505" 
d="M0 125h295v1319h156v-574q0 -218 -21 -391h2q70 241 234 378q154 128 346 128q190 0 295 -122q104 -122 104 -345q0 -230 -129 -363q-150 -155 -457 -155h-825v125zM842 125q407 0 407 381q0 354 -266 354q-214 0 -369 -238q-140 -214 -165 -497h393zM865 1456
q-27 27 -27 69q0 40 27 68t67 28t67 -28t27 -68t-27 -68t-67 -28t-67 27zM1007 1232q-28 28 -28 70q0 41 28 69q28 29 68 29q42 0 70 -29q29 -28 29 -69t-29 -70q-28 -29 -70 -29q-40 0 -68 29zM719 1232q-29 28 -29 70q0 41 29 69q28 29 70 29q40 0 69 -29q29 -28 29 -69
q0 -40 -29 -70q-29 -29 -69 -29q-42 0 -70 29z" />
    <glyph glyph-name="uni069F.medi" unicode="&#x69f;" horiz-adv-x="1515" 
d="M0 125h295v1319h156v-574q0 -218 -21 -391h2q70 241 234 378q154 128 346 128q190 0 295 -122q104 -122 104 -345q0 -257 -162 -393h305v-125h-1554v125zM842 125q407 0 407 381q0 354 -266 354q-214 0 -369 -238q-140 -214 -165 -497h393zM865 1456q-27 27 -27 69
q0 40 27 68t67 28t67 -28t27 -68t-27 -68t-67 -28t-67 27zM1007 1232q-28 28 -28 70q0 41 28 69q28 29 68 29q42 0 70 -29q29 -28 29 -69t-29 -70q-28 -29 -70 -29q-40 0 -68 29zM719 1232q-29 28 -29 70q0 41 29 69q28 29 70 29q40 0 69 -29q29 -28 29 -69q0 -40 -29 -70
q-29 -29 -69 -29q-42 0 -70 29z" />
    <glyph glyph-name="uni069F.fina" unicode="&#x69f;" horiz-adv-x="1515" 
d="M0 125h295v1319h156v-574q0 -218 -21 -391h2q70 241 234 378q154 128 346 128q190 0 295 -122q104 -122 104 -345q0 -257 -162 -393h305v-125h-1554v125zM842 125q407 0 407 381q0 354 -266 354q-214 0 -369 -238q-140 -214 -165 -497h393zM865 1456q-27 27 -27 69
q0 40 27 68t67 28t67 -28t27 -68t-27 -68t-67 -28t-67 27zM1007 1232q-28 28 -28 70q0 41 28 69q28 29 68 29q42 0 70 -29q29 -28 29 -69t-29 -70q-28 -29 -70 -29q-40 0 -68 29zM719 1232q-29 28 -29 70q0 41 29 69q28 29 70 29q40 0 69 -29q29 -28 29 -69q0 -40 -29 -70
q-29 -29 -69 -29q-42 0 -70 29z" />
    <glyph glyph-name="uni06A0.init" unicode="&#x6a0;" horiz-adv-x="1191" 
d="M0 125h430q-107 43 -174 143q-72 107 -72 242q0 203 123 333q134 142 371 142q147 0 272 -49l-30 -127q-119 53 -254 53q-147 0 -235 -90q-91 -93 -91 -252q0 -177 136 -280q150 -115 439 -115h172v-125h-1087v125zM416 1192q-29 28 -29 70q0 41 29 69q28 29 70 29
q40 0 69 -29q29 -28 29 -69q0 -40 -29 -70q-29 -29 -69 -29q-42 0 -70 29zM704 1192q-28 28 -28 70q0 41 28 69q28 29 68 29q42 0 70 -29q29 -28 29 -69t-29 -70t-70 -29q-40 0 -68 29zM562 1416q-27 27 -27 69q0 40 27 68t67 28t67 -28t27 -68t-27 -68t-67 -28t-67 27z" />
    <glyph glyph-name="uni06A0.medi" unicode="&#x6a0;" horiz-adv-x="1280" 
d="M0 125h66q341 0 587 125q-329 315 -512 377l13 108q333 252 594 252q189 0 291 -95q89 -84 89 -216q0 -241 -256 -434q155 -117 318 -117h121v-125h-146q-214 0 -413 164q-294 -164 -703 -164h-49v125zM774 324q199 148 199 331q0 213 -242 213q-176 0 -430 -180
q128 -49 473 -364zM486 1192q-29 28 -29 70q0 41 29 69q28 29 70 29q40 0 69 -29q29 -28 29 -69q0 -40 -29 -70q-29 -29 -69 -29q-42 0 -70 29zM774 1192q-28 28 -28 70q0 41 28 69q28 29 68 29q42 0 70 -29q29 -28 29 -69t-29 -70t-70 -29q-40 0 -68 29zM632 1416
q-27 27 -27 69q0 40 27 68t67 28t67 -28t27 -68t-27 -68t-67 -28t-67 27z" />
    <glyph glyph-name="uni06A0.fina" unicode="&#x6a0;" horiz-adv-x="1280" 
d="M214 -427q-128 92 -128 247q0 160 169 284q77 57 351 191q-275 266 -465 332l13 108q333 252 594 252q189 0 291 -95q89 -84 89 -216q0 -228 -299 -400q180 -151 361 -151h121v-125h-146q-236 0 -465 207q-259 -130 -312 -166q-144 -98 -144 -209q0 -238 411 -238
q156 0 326 29l10 -119q-184 -34 -354 -34q-279 0 -423 103zM735 360q238 134 238 295q0 213 -242 213q-176 0 -430 -180q145 -56 434 -328zM496 1192q-29 28 -29 70q0 41 29 69q28 29 70 29q40 0 69 -29q29 -28 29 -69q0 -40 -29 -70q-29 -29 -69 -29q-42 0 -70 29z
M784 1192q-28 28 -28 70q0 41 28 69q28 29 68 29q42 0 70 -29q29 -28 29 -69t-29 -70t-70 -29q-40 0 -68 29zM642 1416q-27 27 -27 69q0 40 27 68t67 28t67 -28t27 -68t-27 -68t-67 -28t-67 27z" />
    <glyph glyph-name="uni06A1.init" unicode="&#x6a1;" horiz-adv-x="1253" 
d="M0 0v125h180q72 0 119 -8q-166 100 -166 366q0 212 128 351q138 151 376 151q430 0 430 -455v-530h-1067zM913 498q0 362 -290 362q-153 0 -242 -99q-88 -99 -88 -265q0 -191 94 -280q95 -91 305 -91h221v373z" />
    <glyph glyph-name="uni06A1.medi" unicode="&#x6a1;" horiz-adv-x="1202" 
d="M0 125h133q72 0 152 -6q-152 105 -152 368q0 212 129 351q135 147 359 147q200 0 316 -108q132 -123 132 -369q0 -263 -176 -389q111 6 186 6h154v-125h-1233v125zM817 214q92 100 92 286q0 360 -305 360q-130 0 -215 -86q-96 -98 -96 -274q0 -375 311 -375q131 0 213 89
z" />
    <glyph glyph-name="uni06A1.fina" unicode="&#x6a1;" horiz-adv-x="1900" 
d="M1931 0h-1090q-369 0 -539 148q-163 143 -163 444q0 197 70 348l168 31q-82 -164 -82 -359q0 -252 116 -364q128 -123 439 -123h129q-148 97 -148 362q0 212 129 351q135 147 359 147q200 0 316 -108q132 -123 132 -369q0 -263 -176 -389q111 6 186 6h154v-125zM1302 860
q-130 0 -215 -87q-96 -97 -96 -275q0 -180 81 -277q81 -96 230 -96q132 0 214 89q91 100 91 286q0 360 -305 360z" />
    <glyph glyph-name="uni06A2.init" unicode="&#x6a2;" horiz-adv-x="1253" 
d="M0 0v125h180q72 0 119 -8q-166 100 -166 366q0 212 128 351q138 151 376 151q430 0 430 -455v-530h-1067zM913 498q0 362 -290 362q-153 0 -242 -99q-88 -99 -88 -265q0 -191 94 -280q95 -91 305 -91h221v373zM547 -378q-29 28 -29 71q0 41 29 70q28 28 70 28t70 -28
t28 -70t-28 -70q-29 -29 -70 -29q-42 0 -70 28z" />
    <glyph glyph-name="uni06A2.medi" unicode="&#x6a2;" horiz-adv-x="1202" 
d="M0 125h133q72 0 152 -6q-152 105 -152 368q0 212 129 351q135 147 359 147q200 0 316 -108q132 -123 132 -369q0 -263 -176 -389q111 6 186 6h154v-125h-1233v125zM817 214q92 100 92 286q0 360 -305 360q-130 0 -215 -86q-96 -98 -96 -274q0 -375 311 -375q131 0 213 89
zM541 -378q-29 28 -29 71q0 41 29 70q28 28 70 28t70 -28t28 -70t-28 -70q-29 -29 -70 -29q-42 0 -70 28z" />
    <glyph glyph-name="uni06A2.fina" unicode="&#x6a2;" horiz-adv-x="1900" 
d="M1931 0h-1090q-369 0 -539 148q-163 143 -163 444q0 197 70 348l168 31q-82 -164 -82 -359q0 -252 116 -364q128 -123 439 -123h129q-148 97 -148 362q0 212 129 351q135 147 359 147q200 0 316 -108q132 -123 132 -369q0 -263 -176 -389q111 6 186 6h154v-125zM1302 860
q-130 0 -215 -87q-96 -97 -96 -275q0 -180 81 -277q81 -96 230 -96q132 0 214 89q91 100 91 286q0 360 -305 360zM1230 -378q-29 28 -29 71q0 41 29 70q28 28 70 28t70 -28t28 -70t-28 -70q-29 -29 -70 -29q-42 0 -70 28z" />
    <glyph glyph-name="uni06A3.init" unicode="&#x6a3;" horiz-adv-x="1253" 
d="M0 0v125h180q72 0 119 -8q-166 100 -166 366q0 212 128 351q138 151 376 151q430 0 430 -455v-530h-1067zM913 498q0 362 -290 362q-153 0 -242 -99q-88 -99 -88 -265q0 -191 94 -280q95 -91 305 -91h221v373zM547 1231q-29 29 -29 72q0 41 29 69q28 29 69 29
q42 0 70 -29q29 -28 29 -69q0 -42 -29 -71q-28 -30 -70 -30q-41 0 -69 29zM547 -378q-29 28 -29 71q0 41 29 70q28 28 70 28t70 -28t28 -70t-28 -70q-29 -29 -70 -29q-42 0 -70 28z" />
    <glyph glyph-name="uni06A3.medi" unicode="&#x6a3;" horiz-adv-x="1202" 
d="M0 125h133q72 0 152 -6q-152 105 -152 368q0 212 129 351q135 147 359 147q200 0 316 -108q132 -123 132 -369q0 -263 -176 -389q111 6 186 6h154v-125h-1233v125zM817 214q92 100 92 286q0 360 -305 360q-130 0 -215 -86q-96 -98 -96 -274q0 -375 311 -375q131 0 213 89
zM540 1231q-28 29 -28 72q0 41 28 69q29 29 70 29q42 0 70 -29q29 -28 29 -69q0 -42 -29 -71q-28 -30 -70 -30q-41 0 -70 29zM541 -378q-29 28 -29 71q0 41 29 70q28 28 70 28t70 -28t28 -70t-28 -70q-29 -29 -70 -29q-42 0 -70 28z" />
    <glyph glyph-name="uni06A3.fina" unicode="&#x6a3;" horiz-adv-x="1900" 
d="M1931 0h-1090q-369 0 -539 148q-163 143 -163 444q0 197 70 348l168 31q-82 -164 -82 -359q0 -252 116 -364q128 -123 439 -123h129q-148 97 -148 362q0 212 129 351q135 147 359 147q200 0 316 -108q132 -123 132 -369q0 -263 -176 -389q111 6 186 6h154v-125zM1302 860
q-130 0 -215 -87q-96 -97 -96 -275q0 -180 81 -277q81 -96 230 -96q132 0 214 89q91 100 91 286q0 360 -305 360zM1239 1231q-29 29 -29 72q0 41 29 69q28 29 69 29q42 0 70 -29q29 -28 29 -69q0 -42 -29 -71q-28 -30 -70 -30q-41 0 -69 29zM884 -378q-29 28 -29 71
q0 41 29 70q28 28 70 28t70 -28t28 -70t-28 -70q-29 -29 -70 -29q-42 0 -70 28z" />
    <glyph glyph-name="uni06A5.init" unicode="&#x6a5;" horiz-adv-x="1253" 
d="M0 0v125h180q72 0 119 -8q-166 100 -166 366q0 212 128 351q138 151 376 151q430 0 430 -455v-530h-1067zM913 498q0 362 -290 362q-153 0 -242 -99q-88 -99 -88 -265q0 -191 94 -280q95 -91 305 -91h221v373zM550 -300q-27 -28 -67 -28q-39 0 -66 28q-28 28 -28 69
q0 38 28 66q27 28 66 28q40 0 67 -27t27 -67q0 -41 -27 -69zM837 -300q-28 -28 -67 -28t-67 28t-28 69q0 38 28 66t67 28t67 -27q27 -27 27 -67q0 -41 -27 -69zM689 -512q-26 -27 -65 -27t-66 26q-28 27 -28 67q0 38 28 65t66 27q39 0 65 -26q27 -27 27 -66t-27 -66z" />
    <glyph glyph-name="uni06A5.medi" unicode="&#x6a5;" horiz-adv-x="1202" 
d="M0 125h133q72 0 152 -6q-152 105 -152 368q0 212 129 351q135 147 359 147q200 0 316 -108q132 -123 132 -369q0 -263 -176 -389q111 6 186 6h154v-125h-1233v125zM817 214q92 100 92 286q0 360 -305 360q-130 0 -215 -86q-96 -98 -96 -274q0 -375 311 -375q131 0 213 89
zM520 -300q-27 -28 -67 -28q-39 0 -66 28q-28 28 -28 69q0 38 28 66q27 28 66 28q40 0 67 -27t27 -67q0 -41 -27 -69zM807 -300q-28 -28 -67 -28t-67 28t-28 69q0 38 28 66t67 28t67 -27q27 -27 27 -67q0 -41 -27 -69zM659 -512q-26 -27 -65 -27t-66 26q-28 27 -28 67
q0 38 28 65t66 27q39 0 65 -26q27 -27 27 -66t-27 -66z" />
    <glyph glyph-name="uni06A5.fina" unicode="&#x6a5;" horiz-adv-x="1900" 
d="M1931 0h-1090q-369 0 -539 148q-163 143 -163 444q0 197 70 348l168 31q-82 -164 -82 -359q0 -252 116 -364q128 -123 439 -123h129q-148 97 -148 362q0 212 129 351q135 147 359 147q200 0 316 -108q132 -123 132 -369q0 -263 -176 -389q111 6 186 6h154v-125zM1302 860
q-130 0 -215 -87q-96 -97 -96 -275q0 -180 81 -277q81 -96 230 -96q132 0 214 89q91 100 91 286q0 360 -305 360zM1250 -300q-27 -28 -67 -28q-39 0 -66 28q-28 28 -28 69q0 38 28 66q27 28 66 28q40 0 67 -27t27 -67q0 -41 -27 -69zM1537 -300q-28 -28 -67 -28t-67 28
t-28 69q0 38 28 66t67 28t67 -27q27 -27 27 -67q0 -41 -27 -69zM1389 -512q-26 -27 -65 -27t-66 26q-28 27 -28 67q0 38 28 65t66 27q39 0 65 -26q27 -27 27 -66t-27 -66z" />
    <glyph glyph-name="uni06A7.init" unicode="&#x6a7;" horiz-adv-x="1253" 
d="M0 0v125h180q72 0 119 -8q-166 100 -166 366q0 212 128 351q138 151 376 151q430 0 430 -455v-530h-1067zM913 498q0 362 -290 362q-153 0 -242 -99q-88 -99 -88 -265q0 -191 94 -280q95 -91 305 -91h221v373zM550 1192q-28 28 -28 70q0 41 28 69q28 29 68 29
q42 0 70 -29q28 -28 28 -69t-28 -70q-29 -29 -70 -29q-40 0 -68 29z" />
    <glyph glyph-name="uni06A7.medi" unicode="&#x6a7;" horiz-adv-x="1202" 
d="M0 125h133q72 0 152 -6q-152 105 -152 368q0 212 129 351q135 147 359 147q200 0 316 -108q132 -123 132 -369q0 -263 -176 -389q111 6 186 6h154v-125h-1233v125zM817 214q92 100 92 286q0 360 -305 360q-130 0 -215 -86q-96 -98 -96 -274q0 -375 311 -375q131 0 213 89
zM542 1192q-28 28 -28 70q0 41 28 69q28 29 68 29q41 0 70 -29q28 -28 28 -69t-28 -70q-29 -29 -70 -29q-40 0 -68 29z" />
    <glyph glyph-name="uni06A7.fina" unicode="&#x6a7;" horiz-adv-x="1820" 
d="M1614 125h237v-125h-237v-487q-311 -27 -604 -27q-467 0 -674 145t-207 471q0 205 49 390l162 30q-55 -206 -55 -401q0 -277 172 -394q171 -116 575 -116q197 0 422 18v371h-217q-535 0 -535 479q0 215 127 354q138 152 379 152q219 0 406 -72v-788zM1460 809
q-108 51 -270 51q-152 0 -241 -99q-89 -98 -89 -263q0 -191 95 -281q97 -92 307 -92h198v684zM1125 1192q-28 28 -28 70q0 41 28 69q28 29 69 29t69 -29q29 -28 29 -69t-29 -70q-28 -29 -69 -29t-69 29z" />
    <glyph glyph-name="uni06A8.init" unicode="&#x6a8;" horiz-adv-x="1253" 
d="M0 0v125h180q72 0 119 -8q-166 100 -166 366q0 212 128 351q138 151 376 151q430 0 430 -455v-530h-1067zM913 498q0 362 -290 362q-153 0 -242 -99q-88 -99 -88 -265q0 -191 94 -280q95 -91 305 -91h221v373zM549 1416q-27 27 -27 69q0 40 27 68q28 28 67 28
q40 0 68 -28q27 -28 27 -68t-27 -68q-28 -28 -68 -28t-67 27zM692 1192q-28 28 -28 70q0 41 28 69q28 29 68 29q41 0 70 -29q28 -28 28 -69t-28 -70q-29 -29 -70 -29q-40 0 -68 29zM403 1192q-28 28 -28 70q0 41 28 69q29 29 70 29q40 0 69 -29q29 -28 29 -69q0 -40 -29 -70
q-29 -29 -69 -29q-41 0 -70 29z" />
    <glyph glyph-name="uni06A8.medi" unicode="&#x6a8;" horiz-adv-x="1202" 
d="M0 125h133q72 0 152 -6q-152 105 -152 368q0 212 129 351q135 147 359 147q200 0 316 -108q132 -123 132 -369q0 -263 -176 -389q111 6 186 6h154v-125h-1233v125zM817 214q92 100 92 286q0 360 -305 360q-130 0 -215 -86q-96 -98 -96 -274q0 -375 311 -375q131 0 213 89
zM543 1416q-27 27 -27 69q0 40 27 68q28 28 67 28q40 0 67 -28q28 -28 28 -68t-28 -68q-27 -28 -67 -28t-67 27zM686 1192q-29 28 -29 70q0 41 29 69q28 29 68 29q41 0 70 -29q28 -28 28 -69t-28 -70q-29 -29 -70 -29q-40 0 -68 29zM397 1192q-28 28 -28 70q0 41 28 69
q28 29 70 29q40 0 69 -29q29 -28 29 -69q0 -40 -29 -70q-29 -29 -69 -29q-42 0 -70 29z" />
    <glyph glyph-name="uni06A8.fina" unicode="&#x6a8;" horiz-adv-x="1820" 
d="M1614 125h237v-125h-237v-487q-311 -27 -604 -27q-467 0 -674 145t-207 471q0 205 49 390l162 30q-55 -206 -55 -401q0 -277 172 -394q171 -116 575 -116q197 0 422 18v371h-217q-535 0 -535 479q0 215 127 354q138 152 379 152q219 0 406 -72v-788zM1460 809
q-108 51 -270 51q-152 0 -241 -99q-89 -98 -89 -263q0 -191 95 -281q97 -92 307 -92h198v684zM1129 1416q-27 27 -27 69q0 40 27 68q28 28 67 28q40 0 68 -28q27 -28 27 -68t-27 -68q-28 -28 -68 -28t-67 27zM1272 1192q-28 28 -28 70q0 41 28 69q28 29 68 29q41 0 70 -29
q28 -28 28 -69t-28 -70q-29 -29 -70 -29q-40 0 -68 29zM983 1192q-28 28 -28 70q0 41 28 69q29 29 70 29q40 0 69 -29q29 -28 29 -69q0 -40 -29 -70q-29 -29 -69 -29q-41 0 -70 29z" />
    <glyph glyph-name="uni06AA.init" unicode="&#x6aa;" horiz-adv-x="1001" 
d="M0 125h678q-3 318 -138 494q-128 167 -413 253v117l764 479v-157l-580 -359q264 -108 386 -296q134 -208 134 -566v-90h-831v125z" />
    <glyph glyph-name="uni06AA.medi" unicode="&#x6aa;" horiz-adv-x="1001" 
d="M0 125h678q-3 318 -138 494q-128 167 -413 253v117l764 479v-157l-580 -359q258 -107 379 -287q136 -200 141 -540h201v-125h-1032v125z" />
    <glyph glyph-name="uni06AA.fina" unicode="&#x6aa;" horiz-adv-x="1734" 
d="M841 0q-369 0 -539 148q-163 143 -163 444q0 197 70 348l168 31q-82 -164 -82 -359q0 -253 117 -364q130 -123 450 -123h549q-2 318 -136 494q-128 167 -413 253v117l762 479v-157l-580 -359q259 -106 381 -287q136 -200 141 -540h201v-125h-926z" />
    <glyph glyph-name="uni06AB.init" unicode="&#x6ab;" horiz-adv-x="1001" 
d="M0 125h678q-3 318 -138 494q-128 167 -413 253v111l764 479v-151l-580 -359q264 -108 386 -296q134 -208 134 -566v-90h-831v125zM127 1317l764 479v-147l-764 -480v148z" />
    <glyph glyph-name="uni06AB.medi" unicode="&#x6ab;" horiz-adv-x="1001" 
d="M0 125h678q-3 318 -138 494q-128 167 -413 253v111l764 479v-151l-580 -359q258 -107 379 -287q136 -200 141 -540h201v-125h-1032v125zM127 1317l764 479v-147l-764 -480v148z" />
    <glyph glyph-name="uni06AB.fina" unicode="&#x6ab;" horiz-adv-x="1734" 
d="M841 0q-369 0 -539 148q-163 143 -163 444q0 197 70 348l168 31q-82 -164 -82 -359q0 -253 117 -364q130 -123 450 -123h549q-2 318 -136 494q-128 167 -413 253v111l762 479v-151l-580 -359q259 -106 381 -287q136 -200 141 -540h201v-125h-926zM862 1317l762 479v-147
l-762 -480v148z" />
    <glyph glyph-name="uni06AC.init" unicode="&#x6ac;" horiz-adv-x="1001" 
d="M0 125h678q-3 318 -138 494q-128 167 -413 253v117l764 479v-157l-580 -359q264 -108 386 -296q134 -208 134 -566v-90h-831v125zM183 1333q-28 28 -28 70q0 41 28 69q28 29 68 29q42 0 70 -29q28 -28 28 -69t-28 -70q-29 -29 -70 -29q-40 0 -68 29z" />
    <glyph glyph-name="uni06AC.medi" unicode="&#x6ac;" horiz-adv-x="1001" 
d="M0 125h678q-3 318 -138 494q-128 167 -413 253v117l764 479v-157l-580 -359q258 -107 379 -287q136 -200 141 -540h201v-125h-1032v125zM183 1333q-28 28 -28 70q0 41 28 69q28 29 68 29q42 0 70 -29q28 -28 28 -69t-28 -70q-29 -29 -70 -29q-40 0 -68 29z" />
    <glyph glyph-name="uni06AC.fina" unicode="&#x6ac;" horiz-adv-x="1738" 
d="M841 0q-369 0 -539 148q-163 143 -163 444q0 197 70 348l168 31q-82 -164 -82 -359q0 -253 117 -364q130 -123 450 -123h516v1319h156v-1319h235v-125h-928zM645 934q92 0 153 -10q-63 27 -63 104q0 81 56 133q66 62 192 62q51 0 104 -9l-14 -100q-45 8 -100 8
q-119 0 -119 -90q0 -98 166 -98h108v-100h-483v100zM1383 1621q-28 28 -28 70q0 41 28 69q28 29 68 29q42 0 70 -29q28 -28 28 -69t-28 -70q-29 -29 -70 -29q-40 0 -68 29z" />
    <glyph glyph-name="uni06AE.init" unicode="&#x6ae;" horiz-adv-x="1001" 
d="M0 125h678q-3 318 -138 494q-128 167 -413 253v117l764 479v-157l-580 -359q264 -108 386 -296q134 -208 134 -566v-90h-831v125zM310 -300q-27 -28 -67 -28q-39 0 -66 28q-28 28 -28 69q0 38 28 66q27 28 66 28q40 0 67 -27t27 -67q0 -41 -27 -69zM597 -300
q-28 -28 -67 -28t-67 28t-28 69q0 38 28 66t67 28t67 -27q27 -27 27 -67q0 -41 -27 -69zM449 -512q-26 -27 -65 -27t-66 26q-28 27 -28 67q0 38 28 65t66 27q39 0 65 -26q27 -27 27 -66t-27 -66z" />
    <glyph glyph-name="uni06AE.medi" unicode="&#x6ae;" horiz-adv-x="1001" 
d="M0 125h678q-3 318 -138 494q-128 167 -413 253v117l764 479v-157l-580 -359q258 -107 379 -287q136 -200 141 -540h201v-125h-1032v125zM310 -300q-27 -28 -67 -28q-39 0 -66 28q-28 28 -28 69q0 38 28 66q27 28 66 28q40 0 67 -27t27 -67q0 -41 -27 -69zM597 -300
q-28 -28 -67 -28t-67 28t-28 69q0 38 28 66t67 28t67 -27q27 -27 27 -67q0 -41 -27 -69zM449 -512q-26 -27 -65 -27t-66 26q-28 27 -28 67q0 38 28 65t66 27q39 0 65 -26q27 -27 27 -66t-27 -66z" />
    <glyph glyph-name="uni06AE.fina" unicode="&#x6ae;" horiz-adv-x="1738" 
d="M841 0q-369 0 -539 148q-163 143 -163 444q0 197 70 348l168 31q-82 -164 -82 -359q0 -253 117 -364q130 -123 450 -123h516v1319h156v-1319h235v-125h-928zM645 934q92 0 153 -10q-63 27 -63 104q0 81 56 133q66 62 192 62q51 0 104 -9l-14 -100q-45 8 -100 8
q-119 0 -119 -90q0 -98 166 -98h108v-100h-483v100zM820 -300q-27 -28 -67 -28q-39 0 -66 28q-28 28 -28 69q0 38 28 66q27 28 66 28q40 0 67 -27t27 -67q0 -41 -27 -69zM1107 -300q-28 -28 -67 -28t-67 28t-28 69q0 38 28 66t67 28t67 -27q27 -27 27 -67q0 -41 -27 -69z
M959 -512q-26 -27 -65 -27t-66 26q-28 27 -28 67q0 38 28 65t66 27q39 0 65 -26q27 -27 27 -66t-27 -66z" />
    <glyph glyph-name="uni06B0.init" unicode="&#x6b0;" horiz-adv-x="1001" 
d="M127 1317l764 479v-147l-764 -480v148zM642 1157l-12 -8q-6 -4 -12 -10q-27 -29 -27 -78q0 -56 29 -82q30 -27 95 -27h69v109q0 107 -91 107q-29 0 -51 -11zM535 1091l-224 -139q264 -108 386 -296q134 -208 134 -566v-90h-831v125h678q-3 318 -138 494
q-128 167 -413 253v111l764 479v-151l-147 -91q99 -21 99 -147v-177h-133q-178 0 -178 159q0 19 3 36z" />
    <glyph glyph-name="uni06B0.medi" unicode="&#x6b0;" horiz-adv-x="1001" 
d="M127 1317l764 479v-147l-764 -480v148zM642 1157l-12 -8q-6 -4 -12 -10q-27 -29 -27 -78q0 -56 29 -82q30 -27 95 -27h69v109q0 107 -91 107q-29 0 -51 -11zM535 1091l-224 -139q258 -107 379 -287q136 -200 141 -540h201v-125h-1032v125h678q-3 318 -138 494
q-128 167 -413 253v111l764 479v-151l-147 -91q99 -21 99 -147v-177h-133q-178 0 -178 159q0 19 3 36z" />
    <glyph glyph-name="uni06B0.fina" unicode="&#x6b0;" horiz-adv-x="1734" 
d="M862 1317l762 479v-147l-762 -480v148zM1382 1161l-31 -19l-3 -3q-27 -29 -27 -78q0 -56 29 -82q30 -27 95 -27h69v109q0 107 -91 107q-23 0 -41 -7zM1264 1088l-220 -136q259 -106 381 -287q136 -200 141 -540h201v-125h-926q-369 0 -539 148q-163 143 -163 444
q0 197 70 348l168 31q-82 -164 -82 -359q0 -253 117 -364q130 -123 450 -123h549q-2 318 -136 494q-128 167 -413 253v111l762 479v-151l-148 -92q97 -22 97 -146v-177h-133q-178 0 -178 159q0 18 2 33z" />
    <glyph glyph-name="uni06B2.init" unicode="&#x6b2;" horiz-adv-x="1001" 
d="M0 125h678q-3 318 -138 494q-128 167 -413 253v111l764 479v-151l-580 -359q264 -108 386 -296q134 -208 134 -566v-90h-831v125zM127 1317l764 479v-147l-764 -480v148zM310 -300q-27 -28 -67 -28q-39 0 -66 28q-28 28 -28 69q0 38 28 66q27 28 66 28q40 0 67 -27
t27 -67q0 -41 -27 -69zM597 -300q-28 -28 -67 -28t-67 28t-28 69q0 38 28 66t67 28t67 -27q27 -27 27 -67q0 -41 -27 -69z" />
    <glyph glyph-name="uni06B2.medi" unicode="&#x6b2;" horiz-adv-x="1001" 
d="M0 125h678q-3 318 -138 494q-128 167 -413 253v111l764 479v-151l-580 -359q258 -107 379 -287q136 -200 141 -540h201v-125h-1032v125zM127 1317l764 479v-147l-764 -480v148zM310 -300q-27 -28 -67 -28q-39 0 -66 28q-28 28 -28 69q0 38 28 66q27 28 66 28q40 0 67 -27
t27 -67q0 -41 -27 -69zM597 -300q-28 -28 -67 -28t-67 28t-28 69q0 38 28 66t67 28t67 -27q27 -27 27 -67q0 -41 -27 -69z" />
    <glyph glyph-name="uni06B2.fina" unicode="&#x6b2;" horiz-adv-x="1734" 
d="M841 0q-369 0 -539 148q-163 143 -163 444q0 197 70 348l168 31q-82 -164 -82 -359q0 -253 117 -364q130 -123 450 -123h549q-2 318 -136 494q-128 167 -413 253v111l762 479v-151l-580 -359q259 -106 381 -287q136 -200 141 -540h201v-125h-926zM862 1317l762 479v-147
l-762 -480v148zM820 -300q-27 -28 -67 -28q-39 0 -66 28q-28 28 -28 69q0 38 28 66q27 28 66 28q40 0 67 -27t27 -67q0 -41 -27 -69zM1107 -300q-28 -28 -67 -28t-67 28t-28 69q0 38 28 66t67 28t67 -27q27 -27 27 -67q0 -41 -27 -69z" />
    <glyph glyph-name="uni06B4.init" unicode="&#x6b4;" horiz-adv-x="1001" 
d="M0 125h678q-3 318 -138 494q-128 167 -413 253v111l764 479v-151l-580 -359q264 -108 386 -296q134 -208 134 -566v-90h-831v125zM127 1317l764 479v-147l-764 -480v148zM270 1897q-27 27 -27 69q0 40 27 68q28 28 67 28q40 0 68 -28q27 -28 27 -68t-27 -68
q-28 -28 -68 -28t-67 27zM413 1673q-28 28 -28 70q0 41 28 69q28 29 68 29q41 0 70 -29q28 -28 28 -69t-28 -70q-29 -29 -70 -29q-40 0 -68 29zM124 1673q-28 28 -28 70q0 41 28 69q29 29 70 29q40 0 69 -29q29 -28 29 -69q0 -40 -29 -70q-29 -29 -69 -29q-41 0 -70 29z" />
    <glyph glyph-name="uni06B4.medi" unicode="&#x6b4;" horiz-adv-x="1001" 
d="M0 125h678q-3 318 -138 494q-128 167 -413 253v111l764 479v-151l-580 -359q258 -107 379 -287q136 -200 141 -540h201v-125h-1032v125zM127 1317l764 479v-147l-764 -480v148zM270 1897q-27 27 -27 69q0 40 27 68q28 28 67 28q40 0 68 -28q27 -28 27 -68t-27 -68
q-28 -28 -68 -28t-67 27zM413 1673q-28 28 -28 70q0 41 28 69q28 29 68 29q41 0 70 -29q28 -28 28 -69t-28 -70q-29 -29 -70 -29q-40 0 -68 29zM124 1673q-28 28 -28 70q0 41 28 69q29 29 70 29q40 0 69 -29q29 -28 29 -69q0 -40 -29 -70q-29 -29 -69 -29q-41 0 -70 29z" />
    <glyph glyph-name="uni06B4.fina" unicode="&#x6b4;" horiz-adv-x="1734" 
d="M841 0q-369 0 -539 148q-163 143 -163 444q0 197 70 348l168 31q-82 -164 -82 -359q0 -253 117 -364q130 -123 450 -123h549q-2 318 -136 494q-128 167 -413 253v111l762 479v-151l-580 -359q259 -106 381 -287q136 -200 141 -540h201v-125h-926zM862 1317l762 479v-147
l-762 -480v148zM980 1897q-27 27 -27 69q0 40 27 68q28 28 67 28q40 0 68 -28q27 -28 27 -68t-27 -68q-28 -28 -68 -28t-67 27zM1123 1673q-28 28 -28 70q0 41 28 69q28 29 68 29q41 0 70 -29q28 -28 28 -69t-28 -70q-29 -29 -70 -29q-40 0 -68 29zM834 1673q-28 28 -28 70
q0 41 28 69q29 29 70 29q40 0 69 -29q29 -28 29 -69q0 -40 -29 -70q-29 -29 -69 -29q-41 0 -70 29z" />
    <glyph glyph-name="uni06B5.init" unicode="&#x6b5;" horiz-adv-x="657" 
d="M0 125h299v1319h156v-1444h-455v125zM369 1559l-235 228l64 66l175 -154l174 154l61 -65z" />
    <glyph glyph-name="uni06B5.medi" unicode="&#x6b5;" horiz-adv-x="657" 
d="M0 125h299v1319h156v-1319h233v-125h-688v125zM379 1559l-235 228l64 66l175 -154l174 154l61 -65z" />
    <glyph glyph-name="uni06B5.fina" unicode="&#x6b5;" horiz-adv-x="1308" 
d="M954 1444h156v-1319h229v-125h-235q-49 -473 -481 -473q-219 0 -346 125q-148 145 -148 442q0 213 49 398l162 30q-55 -206 -55 -413q0 -457 354 -457q315 0 315 440v1352zM1039 1559l-235 228l64 66l175 -154l174 154l61 -65z" />
    <glyph glyph-name="uni06B6.init" unicode="&#x6b6;" horiz-adv-x="657" 
d="M0 125h299v1319h156v-1444h-455v125zM302 1587q-28 28 -28 70q0 41 28 69q28 29 68 29q42 0 70 -29q28 -28 28 -69t-28 -70q-29 -29 -70 -29q-40 0 -68 29z" />
    <glyph glyph-name="uni06B6.medi" unicode="&#x6b6;" horiz-adv-x="657" 
d="M0 125h299v1319h156v-1319h233v-125h-688v125zM312 1587q-28 28 -28 70q0 41 28 69q28 29 68 29q42 0 70 -29q28 -28 28 -69t-28 -70q-29 -29 -70 -29q-40 0 -68 29z" />
    <glyph glyph-name="uni06B6.fina" unicode="&#x6b6;" horiz-adv-x="1308" 
d="M954 1444h156v-1319h229v-125h-235q-49 -473 -481 -473q-219 0 -346 125q-148 145 -148 442q0 213 49 398l162 30q-55 -206 -55 -413q0 -457 354 -457q315 0 315 440v1352zM962 1587q-28 28 -28 70q0 41 28 69q28 29 68 29q42 0 70 -29q28 -28 28 -69t-28 -70
q-29 -29 -70 -29q-40 0 -68 29z" />
    <glyph glyph-name="uni06B7.init" unicode="&#x6b7;" horiz-adv-x="657" 
d="M0 125h299v1319h156v-1444h-455v125zM310 1817q-27 27 -27 69q0 40 27 68q28 28 67 28q40 0 68 -28q27 -28 27 -68t-27 -68q-28 -28 -68 -28t-67 27zM453 1593q-28 28 -28 70q0 41 28 69q28 29 68 29q41 0 70 -29q28 -28 28 -69t-28 -70q-29 -29 -70 -29q-40 0 -68 29z
M164 1593q-28 28 -28 70q0 41 28 69q29 29 70 29q40 0 69 -29q29 -28 29 -69q0 -40 -29 -70q-29 -29 -69 -29q-41 0 -70 29z" />
    <glyph glyph-name="uni06B7.medi" unicode="&#x6b7;" horiz-adv-x="657" 
d="M0 125h299v1319h156v-1319h233v-125h-688v125zM310 1817q-27 27 -27 69q0 40 27 68q28 28 67 28q40 0 68 -28q27 -28 27 -68t-27 -68q-28 -28 -68 -28t-67 27zM453 1593q-28 28 -28 70q0 41 28 69q28 29 68 29q41 0 70 -29q28 -28 28 -69t-28 -70q-29 -29 -70 -29
q-40 0 -68 29zM164 1593q-28 28 -28 70q0 41 28 69q29 29 70 29q40 0 69 -29q29 -28 29 -69q0 -40 -29 -70q-29 -29 -69 -29q-41 0 -70 29z" />
    <glyph glyph-name="uni06B7.fina" unicode="&#x6b7;" horiz-adv-x="1308" 
d="M954 1444h156v-1319h229v-125h-235q-49 -473 -481 -473q-219 0 -346 125q-148 145 -148 442q0 213 49 398l162 30q-55 -206 -55 -413q0 -457 354 -457q315 0 315 440v1352zM960 1817q-27 27 -27 69q0 40 27 68q28 28 67 28q40 0 68 -28q27 -28 27 -68t-27 -68
q-28 -28 -68 -28t-67 27zM1103 1593q-28 28 -28 70q0 41 28 69q28 29 68 29q41 0 70 -29q28 -28 28 -69t-28 -70q-29 -29 -70 -29q-40 0 -68 29zM814 1593q-28 28 -28 70q0 41 28 69q29 29 70 29q40 0 69 -29q29 -28 29 -69q0 -40 -29 -70q-29 -29 -69 -29q-41 0 -70 29z
" />
    <glyph glyph-name="uni06B8.init" unicode="&#x6b8;" horiz-adv-x="767" 
d="M0 125h409v1319h156v-1444h-565v125zM220 -300q-27 -28 -67 -28q-39 0 -66 28q-28 28 -28 69q0 38 28 66q27 28 66 28q40 0 67 -27t27 -67q0 -41 -27 -69zM507 -300q-28 -28 -67 -28t-67 28t-28 69q0 38 28 66t67 28t67 -27q27 -27 27 -67q0 -41 -27 -69zM359 -512
q-26 -27 -65 -27t-66 26q-28 27 -28 67q0 38 28 65t66 27q39 0 65 -26q27 -27 27 -66t-27 -66z" />
    <glyph glyph-name="uni06B8.medi" unicode="&#x6b8;" horiz-adv-x="657" 
d="M0 125h299v1319h156v-1319h233v-125h-688v125zM220 -300q-27 -28 -67 -28q-39 0 -66 28q-28 28 -28 69q0 38 28 66q27 28 66 28q40 0 67 -27t27 -67q0 -41 -27 -69zM507 -300q-28 -28 -67 -28t-67 28t-28 69q0 38 28 66t67 28t67 -27q27 -27 27 -67q0 -41 -27 -69z
M359 -512q-26 -27 -65 -27t-66 26q-28 27 -28 67q0 38 28 65t66 27q39 0 65 -26q27 -27 27 -66t-27 -66z" />
    <glyph glyph-name="uni06B8.fina" unicode="&#x6b8;" horiz-adv-x="1308" 
d="M954 1444h156v-1319h229v-125h-235q-49 -473 -481 -473q-219 0 -346 125q-148 145 -148 442q0 213 49 398l162 30q-55 -206 -55 -413q0 -457 354 -457q315 0 315 440v1352zM573 -762q-27 -28 -67 -28q-39 0 -66 28q-28 28 -28 69q0 38 28 66q27 28 66 28q40 0 67 -27
t27 -67q0 -41 -27 -69zM860 -762q-28 -28 -67 -28t-67 28t-28 69q0 38 28 66t67 28t67 -27q27 -27 27 -67q0 -41 -27 -69zM712 -974q-26 -27 -65 -27t-66 26q-28 27 -28 67q0 38 28 65t66 27q39 0 65 -26q27 -27 27 -66t-27 -66z" />
    <glyph glyph-name="uni06B9.init" unicode="&#x6b9;" horiz-adv-x="651" 
d="M313 1229q-28 29 -28 71t28 70q29 29 70 29t70 -29q28 -28 28 -70q0 -41 -28 -70q-29 -30 -70 -30q-42 0 -70 29zM0 125h305v838h156v-963h-461v125zM314 -378q-29 28 -29 71q0 41 29 70q28 28 70 28t70 -28t28 -70t-28 -70q-29 -29 -70 -29q-42 0 -70 28z" />
    <glyph glyph-name="uni06B9.medi" unicode="&#x6b9;" horiz-adv-x="667" 
d="M0 125h305v838h156v-838h237v-125h-698v125zM313 1229q-28 29 -28 71t28 70q29 29 70 29t70 -29q28 -28 28 -70q0 -41 -28 -70q-29 -30 -70 -30q-42 0 -70 29zM314 -378q-29 28 -29 71q0 41 29 70q28 28 70 28t70 -28t28 -70t-28 -70q-29 -29 -70 -29q-42 0 -70 28z" />
    <glyph glyph-name="uni06B9.fina" unicode="&#x6b9;" horiz-adv-x="1349" 
d="M1144 125h235v-125h-239q-43 -473 -522 -473q-219 0 -346 125q-150 145 -150 442q0 213 49 398l162 30q-55 -206 -55 -413q0 -250 115 -366q91 -91 243 -91q352 0 352 426v885h156v-838zM550 813q-29 29 -29 72q0 41 29 70q28 28 70 28q41 0 70 -28q28 -29 28 -70
q0 -42 -28 -71q-29 -30 -70 -30q-42 0 -70 29zM547 -788q-29 28 -29 71q0 41 29 70q28 28 70 28t70 -28t28 -70t-28 -70q-29 -29 -70 -29q-42 0 -70 28z" />
    <glyph glyph-name="uni06BC.init" unicode="&#x6bc;" horiz-adv-x="651" 
d="M295 1192q-28 28 -28 70q0 41 28 69q28 29 68 29q41 0 70 -29q28 -28 28 -69t-28 -70q-29 -29 -70 -29q-40 0 -68 29zM290 -108q0 107 -91 107q-47 0 -75 -29q-27 -29 -27 -78q0 -56 29 -82q30 -27 95 -27h69v109zM76 0h-76v125h305v838h156v-963h-134q22 -36 22 -96
v-177h-133q-178 0 -178 159q0 69 38 114z" />
    <glyph glyph-name="uni06BC.medi" unicode="&#x6bc;" horiz-adv-x="651" 
d="M314 1192q-28 28 -28 70q0 41 28 69q28 29 68 29q41 0 70 -29q28 -28 28 -69t-28 -70q-29 -29 -70 -29q-40 0 -68 29zM290 -108q0 107 -91 107q-47 0 -75 -29q-27 -29 -27 -78q0 -56 29 -82q30 -27 95 -27h69v109zM76 0h-76v125h305v838h156v-838h221v-125h-355
q22 -36 22 -96v-177h-133q-178 0 -178 159q0 69 38 114z" />
    <glyph glyph-name="uni06BC.fina" unicode="&#x6bc;" horiz-adv-x="1349" 
d="M550 813q-29 29 -29 72q0 41 29 70q28 28 70 28q41 0 70 -28q28 -29 28 -70q0 -42 -28 -71q-29 -30 -70 -30q-42 0 -70 29zM712 -580q0 107 -91 107q-47 0 -75 -29q-27 -29 -27 -78q0 -56 29 -82q30 -27 95 -27h69v109zM506 -464q-141 25 -234 116q-150 145 -150 442
q0 213 49 398l162 30q-55 -206 -55 -413q0 -250 115 -366q91 -91 243 -91q352 0 352 426v885h156v-838h235v-125h-239q-37 -407 -397 -464q28 -37 28 -104v-177h-133q-178 0 -178 159q0 72 42 118z" />
    <glyph glyph-name="uni06BD.init" unicode="&#x6bd;" horiz-adv-x="651" 
d="M0 125h305v838h156v-963h-461v125zM283 1416q-27 27 -27 69q0 40 27 68t67 28t67 -28t27 -68t-27 -68t-67 -28t-67 27zM425 1192q-28 28 -28 70q0 41 28 69q28 29 69 29t69 -29q29 -28 29 -69t-29 -70q-28 -29 -69 -29t-69 29zM137 1192q-28 28 -28 70q0 41 28 69
q28 29 70 29q40 0 69 -29q29 -28 29 -69q0 -40 -29 -70q-29 -29 -69 -29q-42 0 -70 29z" />
    <glyph glyph-name="uni06BD.medi" unicode="&#x6bd;" horiz-adv-x="667" 
d="M0 125h305v838h156v-838h237v-125h-698v125zM137 1192q-28 28 -28 70q0 41 28 69q28 29 70 29q40 0 69 -29q29 -28 29 -69q0 -40 -29 -70q-29 -29 -69 -29q-42 0 -70 29zM425 1192q-28 28 -28 70q0 41 28 69q28 29 69 29t69 -29q29 -28 29 -69t-29 -70q-28 -29 -69 -29
t-69 29zM283 1416q-27 27 -27 69q0 40 27 68t67 28t67 -28t27 -68t-27 -68t-67 -28t-67 27z" />
    <glyph glyph-name="uni06BD.fina" unicode="&#x6bd;" horiz-adv-x="1349" 
d="M1144 125h235v-125h-239q-43 -473 -522 -473q-219 0 -346 125q-150 145 -150 442q0 213 49 398l162 30q-55 -206 -55 -413q0 -250 115 -366q91 -91 243 -91q352 0 352 426v885h156v-838zM522 1039q-27 27 -27 69q0 40 27 68t67 28t67 -28t27 -68t-27 -68t-67 -28t-67 27z
M664 815q-28 28 -28 70q0 41 28 69q28 29 69 29t69 -29q29 -28 29 -69t-29 -70q-28 -29 -69 -29t-69 29zM376 815q-28 28 -28 70q0 41 28 69q28 29 70 29q40 0 69 -29q29 -28 29 -69q0 -40 -29 -70q-29 -29 -69 -29q-42 0 -70 29z" />
    <glyph glyph-name="uni06BF.init" unicode="&#x6bf;" horiz-adv-x="1183" 
d="M0 125h866q17 128 17 231q0 256 -102 369q-109 121 -367 121q-115 0 -224 -15v123q127 17 238 17q327 0 473 -153q137 -143 137 -445q0 -164 -34 -373h-1004v125zM413 1229q-28 29 -28 71t28 70q29 29 70 29q42 0 70 -29q29 -28 29 -70q0 -41 -29 -70q-28 -30 -70 -30
q-41 0 -70 29zM551 -512q-27 -27 -66 -27t-66 26q-28 27 -28 67q0 38 28 65t66 27q39 0 66 -26q27 -27 27 -66t-27 -66zM694 -300q-28 -28 -67 -28t-67 28t-28 69q0 38 28 66t67 28q40 0 67 -27t27 -67q0 -41 -27 -69zM409 -300q-27 -28 -67 -28q-39 0 -66 28q-28 28 -28 69
q0 38 28 66t66 28q40 0 67 -27t27 -67q0 -41 -27 -69z" />
    <glyph glyph-name="uni06BF.medi" unicode="&#x6bf;" horiz-adv-x="1193" 
d="M0 125h866q17 128 17 231q0 256 -102 369q-109 121 -367 121q-115 0 -224 -15v123q127 17 238 17q327 0 473 -153q137 -143 137 -445q0 -97 -16 -248h203v-125h-1225v125zM413 1229q-28 29 -28 71t28 70q29 29 70 29q42 0 70 -29q29 -28 29 -70q0 -41 -29 -70
q-28 -30 -70 -30q-41 0 -70 29zM409 -300q-27 -28 -67 -28q-39 0 -66 28q-28 28 -28 69q0 38 28 66t66 28q40 0 67 -27t27 -67q0 -41 -27 -69zM694 -300q-28 -28 -67 -28t-67 28t-28 69q0 38 28 66t67 28q40 0 67 -27t27 -67q0 -41 -27 -69zM551 -512q-27 -27 -66 -27
t-66 26q-28 27 -28 67q0 38 28 65t66 27q39 0 66 -26q27 -27 27 -66t-27 -66z" />
    <glyph glyph-name="uni06BF.fina" unicode="&#x6bf;" horiz-adv-x="1230" 
d="M536 1229q-28 29 -28 71t28 70q29 29 70 29q42 0 70 -29q28 -28 28 -70q0 -41 -28 -70q-29 -30 -70 -30t-70 29zM657 0q-456 0 -456 -268q0 -211 280 -252l-30 -129q-189 28 -296 123q-110 98 -110 243q0 408 623 408h235q16 106 16 231q0 256 -101 369
q-108 121 -365 121q-118 0 -224 -15v123q127 17 236 17q327 0 473 -153q137 -143 137 -445q0 -116 -14 -248h201v-125h-605zM677 -300q-27 -28 -67 -28q-39 0 -66 28q-28 28 -28 69q0 38 28 66t66 28q40 0 67 -27t27 -67q0 -41 -27 -69zM962 -300q-27 -28 -67 -28
q-39 0 -66 28q-28 28 -28 69q0 38 28 66t66 28q40 0 67 -27t27 -67q0 -41 -27 -69zM819 -512q-27 -27 -65 -27q-39 0 -67 26q-28 27 -28 67q0 38 28 65t67 27q38 0 65 -26q27 -27 27 -66t-27 -66z" />
    <glyph glyph-name="uni06C2.fina" unicode="&#x6c2;" horiz-adv-x="1134" 
d="M1165 0h-51q-429 0 -429 444v115q-292 -46 -469 -332l-106 84q261 391 680 391q22 0 47 -2v-225q0 -186 69 -269q68 -81 220 -81h39v-125zM384 987q92 0 154 -10q-64 27 -64 104q0 81 57 133q65 62 191 62q51 0 105 -9l-15 -100q-45 8 -100 8q-119 0 -119 -90
q0 -98 166 -98h108v-101h-483v101z" />
    <glyph glyph-name="uni06C3.fina" unicode="&#x6c3;" horiz-adv-x="1134" 
d="M1165 0h-51q-429 0 -429 444v115q-292 -46 -469 -332l-106 84q261 391 680 391q22 0 47 -2v-225q0 -186 69 -269q68 -81 220 -81h39v-125zM710 912q-29 28 -29 70q0 41 29 69q29 29 69 29t69 -29q29 -28 29 -69q0 -40 -29 -70q-29 -29 -69 -29t-69 29zM422 912
q-28 28 -28 70q0 41 28 69q28 29 68 29q42 0 70 -29q29 -28 29 -69t-29 -70q-28 -29 -70 -29q-40 0 -68 29z" />
    <glyph glyph-name="uni06C4.fina" unicode="&#x6c4;" horiz-adv-x="1239" 
d="M878 809q-109 51 -269 51q-152 0 -241 -99q-88 -98 -88 -263q0 -192 93 -281q97 -92 306 -92h199v684zM668 -252q0 107 -91 107q-47 0 -75 -29q-27 -29 -27 -78q0 -56 29 -82q30 -27 95 -27h69v109zM727 -344q151 81 151 287v57h-223q-535 0 -535 479q0 215 126 354
q138 152 380 152q219 0 405 -72v-788h238v-125h-238v-53q0 -193 -126 -316q-151 -149 -451 -149q-160 0 -324 31l13 135q176 -43 329 -43h14q-70 37 -70 137q0 72 42 118q46 51 126 51q143 0 143 -151v-104z" />
    <glyph glyph-name="uni06CA.fina" unicode="&#x6ca;" horiz-adv-x="1239" 
d="M130 -487l13 135q176 -43 329 -43q406 0 406 338v57h-223q-535 0 -535 479q0 215 126 354q138 152 380 152q219 0 405 -72v-788h238v-125h-238v-53q0 -193 -126 -316q-151 -149 -451 -149q-160 0 -324 31zM878 809q-109 51 -269 51q-152 0 -241 -99q-88 -98 -88 -263
q0 -192 93 -281q97 -92 306 -92h199v684zM692 1192q-28 28 -28 70q0 41 28 69q28 29 68 29q41 0 70 -29q28 -28 28 -69t-28 -70q-29 -29 -70 -29q-40 0 -68 29zM403 1192q-28 28 -28 70q0 41 28 69q29 29 70 29q40 0 69 -29q29 -28 29 -69q0 -40 -29 -70q-29 -29 -69 -29
q-41 0 -70 29z" />
    <glyph glyph-name="uni06CD.fina" unicode="&#x6cd;" horiz-adv-x="2278" 
d="M596 948q-71 -154 -71 -336q0 -253 117 -364q130 -123 450 -123h190v821q172 39 357 39q242 0 352 -118q100 -108 100 -328v-414h217v-125h-370v514q0 185 -75 266q-74 80 -241 80q-92 0 -186 -20v-840h-365q-369 0 -539 148q-163 143 -163 444q0 103 19 193
q-69 -17 -145 -17q-49 0 -104 6v127q20 -3 42 -3q93 0 253 41l5 1l168 31z" />
    <glyph glyph-name="uni06CE.init" unicode="&#x6ce;" horiz-adv-x="765" 
d="M0 125h422v838h156v-963h-578v125zM530 -375q-29 -28 -69 -28q-41 0 -69 27q-30 29 -30 71q0 40 30 69q29 29 69 29t69 -28q29 -29 29 -70t-29 -70zM242 -375q-28 -28 -70 -28q-40 0 -68 27q-28 28 -28 71q0 40 28 69t68 29q42 0 70 -28q28 -29 28 -70q0 -42 -28 -70z
M504 1100l-235 228l64 66l175 -154l174 154l61 -65z" />
    <glyph glyph-name="uni06CE.medi" unicode="&#x6ce;" horiz-adv-x="763" 
d="M0 125h305v838h156v-838h332v-125h-793v125zM530 -375q-29 -28 -69 -28q-41 0 -69 27q-30 29 -30 71q0 40 30 69q29 29 69 29t69 -28q29 -29 29 -70t-29 -70zM242 -375q-28 -28 -70 -28q-40 0 -68 27q-28 28 -28 71q0 40 28 69t68 29q42 0 70 -28q28 -29 28 -70
q0 -42 -28 -70zM394 1100l-235 228l64 66l175 -154l174 154l61 -65z" />
    <glyph glyph-name="uni06CE.fina" unicode="&#x6ce;" horiz-adv-x="2048" 
d="M841 0q-369 0 -539 148q-163 143 -163 444q0 197 70 348l168 31q-82 -164 -82 -359q0 -253 117 -364q130 -123 450 -123h190v821q172 39 357 39q242 0 352 -118q100 -108 100 -328v-414h217v-125h-370v514q0 185 -75 266q-74 80 -241 80q-92 0 -186 -20v-840h-365z
M604 1100l-235 228l64 66l175 -154l174 154l61 -65z" />
    <glyph glyph-name="uni06CF.fina" unicode="&#x6cf;" horiz-adv-x="1239" 
d="M130 -487l13 135q176 -43 329 -43q406 0 406 338v57h-223q-535 0 -535 479q0 215 126 354q138 152 380 152q219 0 405 -72v-788h238v-125h-238v-53q0 -193 -126 -316q-151 -149 -451 -149q-160 0 -324 31zM878 809q-109 51 -269 51q-152 0 -241 -99q-88 -98 -88 -263
q0 -192 93 -281q97 -92 306 -92h199v684zM547 1192q-28 28 -28 70q0 41 28 69q29 29 70 29q40 0 69 -29q29 -28 29 -69q0 -40 -29 -70q-29 -29 -69 -29q-41 0 -70 29z" />
    <glyph glyph-name="uni06D1.init" unicode="&#x6d1;" horiz-adv-x="765" 
d="M0 125h422v838h156v-963h-578v125zM424 -512q-27 -27 -66 -27t-66 26q-28 27 -28 67q0 38 28 65t66 27q39 0 66 -26q27 -27 27 -66t-27 -66zM567 -300q-28 -28 -67 -28t-67 28q-27 28 -27 69q0 38 27 66q28 28 67 28q40 0 67 -27t27 -67q0 -41 -27 -69zM282 -300
q-27 -28 -67 -28q-39 0 -66 28q-28 28 -28 69q0 38 28 66t66 28q40 0 67 -27t27 -67q0 -41 -27 -69z" />
    <glyph glyph-name="uni06D1.medi" unicode="&#x6d1;" horiz-adv-x="784" 
d="M0 125h422v838h156v-838h237v-125h-815v125zM282 -300q-27 -28 -67 -28q-39 0 -66 28q-28 28 -28 69q0 38 28 66t66 28q40 0 67 -27t27 -67q0 -41 -27 -69zM567 -300q-28 -28 -67 -28t-67 28q-27 28 -27 69q0 38 27 66q28 28 67 28q40 0 67 -27t27 -67q0 -41 -27 -69z
M424 -512q-27 -27 -66 -27t-66 26q-28 27 -28 67q0 38 28 65t66 27q39 0 66 -26q27 -27 27 -66t-27 -66z" />
    <glyph glyph-name="uni06D1.fina" unicode="&#x6d1;" horiz-adv-x="2048" 
d="M841 0q-369 0 -539 148q-163 143 -163 444q0 197 70 348l168 31q-82 -164 -82 -359q0 -253 117 -364q130 -123 450 -123h190v821q172 39 357 39q242 0 352 -118q100 -108 100 -328v-414h217v-125h-370v514q0 185 -75 266q-74 80 -241 80q-92 0 -186 -20v-840h-365z
M882 -584q-27 -27 -66 -27t-66 26q-28 27 -28 67q0 38 28 65t66 27q39 0 66 -26q27 -27 27 -66t-27 -66zM1025 -372q-28 -28 -67 -28t-67 28q-27 28 -27 69q0 38 27 66q28 28 67 28q40 0 67 -27t27 -67q0 -41 -27 -69zM740 -372q-27 -28 -67 -28q-39 0 -66 28q-28 28 -28 69
q0 38 28 66t66 28q40 0 67 -27t27 -67q0 -41 -27 -69z" />
    <glyph glyph-name="uni06D5.fina" unicode="&#x6d5;" horiz-adv-x="1214" 
d="M631 0q-535 0 -535 479q0 215 126 354q138 152 380 152q219 0 405 -72v-788h238v-125h-614zM854 809q-109 51 -269 51q-152 0 -241 -99q-88 -98 -88 -263q0 -192 93 -281q97 -92 306 -92h199v684z" />
    <glyph glyph-name="uni06EE.fina" unicode="&#x6ee;" horiz-adv-x="1083" 
d="M110 125h678q-3 305 -125 477q-123 174 -406 264l41 133q330 -108 480 -305q156 -207 163 -569h173v-125h-1004v125zM725 1228l-61 -64l-174 153l-175 -153l-64 66l235 228z" />
    <glyph glyph-name="uni06EF.fina" unicode="&#x6ef;" horiz-adv-x="888" 
d="M-10 -496l23 131q112 -41 221 -41q145 0 214 82q79 90 79 297v990h157v-838h236v-125h-236v-10q0 -518 -463 -518q-114 0 -231 32zM829 1228l-61 -64l-174 153l-175 -153l-64 66l235 228z" />
    <glyph glyph-name="uni06FA.init" unicode="&#x6fa;" horiz-adv-x="1767" 
d="M0 125h84q117 0 167 62q54 66 54 227v426h156v-371q0 -199 24 -262q36 -96 160 -96q111 0 165 70q64 85 64 286v455h152v-529q0 -170 72 -223q62 -45 250 -45h71q19 162 19 301q0 315 -72 569l152 31q75 -277 75 -586q0 -214 -34 -440h-191q-209 0 -300 36
q-96 36 -138 138q-62 -188 -312 -188q-212 0 -258 182q-60 -168 -278 -168h-82v125zM875 1416q-27 27 -27 69q0 40 27 68t67 28t67 -28t27 -68t-27 -68t-67 -28t-67 27zM1017 1192q-28 28 -28 70q0 41 28 69q28 29 68 29q42 0 70 -29q29 -28 29 -69t-29 -70q-28 -29 -70 -29
q-40 0 -68 29zM729 1192q-29 28 -29 70q0 41 29 69q28 29 70 29q40 0 69 -29q29 -28 29 -69q0 -40 -29 -70q-29 -29 -69 -29q-42 0 -70 29zM1013 -300q-27 -28 -67 -28q-39 0 -66 28q-28 28 -28 69q0 38 28 66t66 28q40 0 67 -27t27 -67q0 -41 -27 -69z" />
    <glyph glyph-name="uni06FA.medi" unicode="&#x6fa;" horiz-adv-x="1785" 
d="M0 125h84q117 0 167 62q54 66 54 227v426h156v-371q0 -199 24 -262q36 -96 160 -96q111 0 165 70q64 85 64 286v455h152v-529q0 -170 72 -223q62 -45 250 -45h71q19 162 19 301q0 315 -72 569l152 31q75 -277 75 -586q0 -127 -18 -315h242v-125h-449q-209 0 -300 36
q-96 36 -138 138q-62 -188 -312 -188q-212 0 -258 182q-60 -168 -278 -168h-82v125zM729 1192q-29 28 -29 70q0 41 29 69q28 29 70 29q40 0 69 -29q29 -28 29 -69q0 -40 -29 -70q-29 -29 -69 -29q-42 0 -70 29zM1017 1192q-28 28 -28 70q0 41 28 69q28 29 68 29q42 0 70 -29
q29 -28 29 -69t-29 -70q-28 -29 -70 -29q-40 0 -68 29zM875 1416q-27 27 -27 69q0 40 27 68t67 28t67 -28t27 -68t-27 -68t-67 -28t-67 27zM1013 -300q-27 -28 -67 -28q-39 0 -66 28q-28 28 -28 69q0 38 28 66t66 28q40 0 67 -27t27 -67q0 -41 -27 -69z" />
    <glyph glyph-name="uni06FA.fina" unicode="&#x6fa;" horiz-adv-x="2433" 
d="M277 -348q-148 145 -148 442q0 213 49 398l162 30q-55 -206 -55 -413q0 -457 354 -457q315 0 315 426v762h156v-371q0 -186 44 -269q46 -89 157 -89q213 0 213 356v455h151v-529q0 -169 72 -222q62 -46 250 -46h71q19 162 19 301q0 320 -74 569l154 31q76 -277 76 -586
q0 -127 -19 -315h240v-125h-447q-209 0 -303 37q-97 38 -135 137q-32 -98 -121 -149q-69 -39 -145 -39q-146 0 -209 102v-18q0 -543 -481 -543q-219 0 -346 125zM1366 1192q-29 28 -29 70q0 41 29 69q28 29 70 29q40 0 69 -29q29 -28 29 -69q0 -40 -29 -70q-29 -29 -69 -29
q-42 0 -70 29zM1654 1192q-28 28 -28 70q0 41 28 69q28 29 68 29q42 0 70 -29q29 -28 29 -69t-29 -70t-70 -29q-40 0 -68 29zM1512 1416q-27 27 -27 69q0 40 27 68t67 28t67 -28t27 -68t-27 -68t-67 -28t-67 27zM1651 -300q-28 -28 -68 -28q-38 0 -66 28t-28 69q0 38 28 66
t66 28q40 0 68 -27q27 -27 27 -67q0 -41 -27 -69z" />
    <glyph glyph-name="uni06FB.init" unicode="&#x6fb;" horiz-adv-x="1511" 
d="M0 125h301v838h158v-93q0 -225 -23 -391h2q72 242 235 378q154 128 345 128q190 0 295 -122q104 -122 104 -345q0 -230 -129 -363q-150 -155 -457 -155h-831v125zM850 125q407 0 407 381q0 354 -268 354q-214 0 -369 -238q-140 -214 -165 -497h395zM915 1229
q-28 29 -28 71t28 70q29 29 70 29q42 0 70 -29q28 -28 28 -70q0 -41 -28 -70q-29 -30 -70 -30q-42 0 -70 29zM1049 -300q-28 -28 -68 -28q-38 0 -66 28t-28 69q0 38 28 66t66 28q40 0 68 -27q27 -27 27 -67q0 -41 -27 -69z" />
    <glyph glyph-name="uni06FB.medi" unicode="&#x6fb;" horiz-adv-x="1515" 
d="M0 125h301v838h158v-93q0 -225 -23 -391h2q72 242 235 378q154 128 345 128q190 0 295 -122q104 -122 104 -345q0 -257 -162 -393h299v-125h-1554v125zM850 125q407 0 407 381q0 354 -268 354q-214 0 -369 -238q-140 -214 -165 -497h395zM915 1229q-28 29 -28 71t28 70
q29 29 70 29q42 0 70 -29q28 -28 28 -70q0 -41 -28 -70q-29 -30 -70 -30q-42 0 -70 29zM1049 -300q-28 -28 -68 -28q-38 0 -66 28t-28 69q0 38 28 66t66 28q40 0 68 -27q27 -27 27 -67q0 -41 -27 -69z" />
    <glyph glyph-name="uni06FB.fina" unicode="&#x6fb;" horiz-adv-x="2174" 
d="M277 -348q-148 145 -148 442q0 213 49 398l162 30q-55 -206 -55 -413q0 -457 354 -457q315 0 315 426v885h156v-93q0 -218 -20 -391h2q70 242 232 378q154 128 345 128q192 0 297 -122t105 -345q0 -257 -162 -393h305v-125h-1110q-16 -234 -153 -359q-126 -114 -328 -114
q-219 0 -346 125zM1501 125q408 0 408 381q0 354 -267 354q-215 0 -370 -238q-141 -214 -164 -497h393zM1575 1229q-29 29 -29 71t29 70q28 29 70 29q41 0 69 -29q29 -28 29 -70q0 -41 -29 -70q-28 -30 -69 -30q-42 0 -70 29zM1716 -300q-28 -28 -68 -28q-38 0 -66 28
t-28 69q0 38 28 66t66 28q40 0 68 -27q27 -27 27 -67q0 -41 -27 -69z" />
    <glyph glyph-name="uni06FC.init" unicode="&#x6fc;" horiz-adv-x="1191" 
d="M0 125h430q-107 43 -174 143q-72 107 -72 242q0 203 123 333q134 142 371 142q147 0 272 -49l-30 -127q-119 53 -254 53q-147 0 -235 -90q-91 -93 -91 -252q0 -177 136 -280q150 -115 439 -115h172v-125h-1087v125zM567 1229q-28 29 -28 71t28 70q28 29 70 29
q41 0 70 -29q28 -28 28 -70q0 -41 -28 -70q-29 -30 -70 -30q-42 0 -70 29zM567 -378q-29 28 -29 71q0 41 29 70q28 28 70 28t70 -28t28 -70t-28 -70q-29 -29 -70 -29q-42 0 -70 28z" />
    <glyph glyph-name="uni06FC.medi" unicode="&#x6fc;" horiz-adv-x="1280" 
d="M0 125h66q341 0 587 125q-329 315 -512 377l13 108q333 252 594 252q189 0 291 -95q89 -84 89 -216q0 -241 -256 -434q155 -117 318 -117h121v-125h-146q-214 0 -413 164q-294 -164 -703 -164h-49v125zM774 324q199 148 199 331q0 213 -242 213q-176 0 -430 -180
q128 -49 473 -364zM637 1233q-29 29 -29 72q0 41 29 69q28 29 70 29q41 0 69 -29q29 -28 29 -69q0 -42 -29 -71q-28 -30 -69 -30q-42 0 -70 29zM637 -378q-29 28 -29 71q0 41 29 70q28 28 70 28t70 -28t28 -70t-28 -70q-29 -29 -70 -29q-42 0 -70 28z" />
    <glyph glyph-name="uni06FC.fina" unicode="&#x6fc;" horiz-adv-x="1280" 
d="M214 -427q-128 92 -128 247q0 160 169 284q77 57 351 191q-275 266 -465 332l13 108q333 252 594 252q189 0 291 -95q89 -84 89 -216q0 -228 -299 -400q180 -151 361 -151h121v-125h-146q-236 0 -465 207q-259 -130 -312 -166q-144 -98 -144 -209q0 -238 411 -238
q156 0 326 29l10 -119q-184 -34 -354 -34q-279 0 -423 103zM735 360q238 134 238 295q0 213 -242 213q-176 0 -430 -180q145 -56 434 -328zM637 1233q-29 29 -29 72q0 41 29 69q28 29 70 29q41 0 69 -29q29 -28 29 -69q0 -42 -29 -71q-28 -30 -69 -30q-42 0 -70 29z
M637 -217q-28 29 -28 71t28 70q28 29 70 29q41 0 70 -29q28 -28 28 -70q0 -41 -28 -70q-29 -30 -70 -30q-42 0 -70 29z" />
    <glyph glyph-name="uni06FF.init" unicode="&#x6ff;" horiz-adv-x="1566" 
d="M0 0v125h262q24 0 52 -2l24 -2q-20 10 -48 50q-44 65 -44 148q0 157 103 248q101 88 269 88q359 0 359 -436v-94h276v47q0 400 -153 578q-149 172 -475 172q-212 0 -435 -70l-16 117q235 73 473 73q377 0 562 -199q196 -211 196 -663v-180h-1405zM834 209q0 336 -226 336
q-103 0 -161 -56q-56 -54 -56 -147q0 -110 73 -168q64 -51 171 -51h199v86zM863 1262l-61 -65l-174 154l-175 -154l-64 66l235 228z" />
    <glyph glyph-name="uni06FF.medi" unicode="&#x6ff;" horiz-adv-x="1353" 
d="M1384 0h-278q-59 0 -145 6v-2q215 -66 215 -287q0 -175 -108 -274q-108 -98 -296 -98q-249 0 -385 176q-129 168 -143 479h-244v125h244q24 580 442 876q451 -258 451 -557q0 -251 -179 -321v-4q86 6 152 6h274v-125zM399 125h252q330 0 330 299q0 213 -287 393
q-285 -239 -295 -692zM401 0q31 -530 387 -530q112 0 173 65q59 62 59 172q0 128 -104 209q-108 84 -287 84h-228zM923 1262l-61 -65l-174 154l-175 -154l-64 66l235 228z" />
    <glyph glyph-name="uni06FF.fina" unicode="&#x6ff;" horiz-adv-x="1393" 
d="M1424 0h-278q-59 0 -145 6v-2q215 -66 215 -287q0 -175 -108 -274q-108 -98 -296 -98q-249 0 -385 176q-129 168 -143 479h-244v125h244q24 580 442 876q451 -258 451 -557q0 -251 -179 -321v-4q86 6 152 6h274v-125zM439 125h252q330 0 330 299q0 213 -287 393
q-285 -239 -295 -692zM441 0q31 -530 387 -530q112 0 173 65q59 62 59 172q0 128 -104 209q-108 84 -287 84h-228zM963 1262l-61 -65l-174 154l-175 -154l-64 66l235 228z" />
    <glyph glyph-name="uniFB50" unicode="&#x671;" horiz-adv-x="561" arabic-form="isolated" 
d="M452 1657v28q0 148 -84 148q-119 0 -164 -176h248zM0 1657h105q71 256 274 256q172 0 172 -224v-134h-551v102zM203 1382h156v-1382h-156v1382z" />
    <glyph glyph-name="uniFB51" unicode="&#x671;" horiz-adv-x="561" arabic-form="final" 
d="M203 1382h156v-1257h233v-125h-389v1382zM3 1657h104q71 254 273 254q171 0 171 -223v-133h-548v102zM453 1657v28q0 146 -84 146q-118 0 -163 -174h247z" />
    <glyph glyph-name="uniFB52" unicode="&#x67b;" horiz-adv-x="1583" arabic-form="isolated" 
d="M841 0q-369 0 -539 148q-163 143 -163 444q0 197 70 348l168 31q-82 -164 -82 -359q0 -253 117 -364q130 -123 450 -123h375v838h157v-963h-553zM850 -137q40 0 67 -27t27 -67q0 -38 -28 -66t-66 -28q-41 0 -69 28q-28 27 -28 66q0 40 29 67q28 27 68 27zM850 -422
q40 0 67 -27t27 -67q0 -38 -28 -66t-66 -28q-41 0 -69 28q-28 27 -28 66q0 40 29 67q28 27 68 27z" />
    <glyph glyph-name="uniFB53" unicode="&#x67b;" horiz-adv-x="1599" arabic-form="final" 
d="M841 0q-369 0 -539 148q-163 143 -163 444q0 197 70 348l168 31q-82 -164 -82 -359q0 -253 117 -364q130 -123 450 -123h375v838h157v-838h236v-125h-789zM850 -137q40 0 67 -27t27 -67q0 -38 -28 -66t-66 -28q-41 0 -69 28q-28 27 -28 66q0 40 29 67q28 27 68 27z
M850 -422q40 0 67 -27t27 -67q0 -38 -28 -66t-66 -28q-41 0 -69 28q-28 27 -28 66q0 40 29 67q28 27 68 27z" />
    <glyph glyph-name="uniFB54" unicode="&#x67b;" horiz-adv-x="765" arabic-form="initial" 
d="M0 125h422v838h156v-963h-578v125zM360 -137q40 0 67 -27t27 -67q0 -38 -28 -66t-66 -28q-41 0 -69 28q-28 27 -28 66q0 40 29 67q28 27 68 27zM360 -422q40 0 67 -27t27 -67q0 -38 -28 -66t-66 -28q-41 0 -69 28q-28 27 -28 66q0 40 29 67q28 27 68 27z" />
    <glyph glyph-name="uniFB55" unicode="&#x67b;" horiz-adv-x="784" arabic-form="medial" 
d="M0 125h422v838h156v-838h237v-125h-815v125zM360 -137q40 0 67 -27t27 -67q0 -38 -28 -66t-66 -28q-41 0 -69 28q-28 27 -28 66q0 40 29 67q28 27 68 27zM360 -422q40 0 67 -27t27 -67q0 -38 -28 -66t-66 -28q-41 0 -69 28q-28 27 -28 66q0 40 29 67q28 27 68 27z" />
    <glyph glyph-name="uniFB56" unicode="&#x67e;" horiz-adv-x="1583" arabic-form="isolated" 
d="M841 0q-369 0 -539 148q-163 143 -163 444q0 197 70 348l168 31q-82 -164 -82 -359q0 -253 117 -364q130 -123 450 -123h375v838h157v-963h-553zM915 -512q-27 -27 -65 -27q-39 0 -67 26q-28 27 -28 67q0 38 28 65t67 27q38 0 65 -26q27 -27 27 -66t-27 -66zM1058 -300
q-27 -28 -67 -28q-39 0 -66 28q-28 28 -28 69q0 38 28 66t66 28q40 0 67 -27t27 -67q0 -41 -27 -69zM773 -300q-27 -28 -67 -28q-39 0 -66 28q-28 28 -28 69q0 38 28 66t66 28q40 0 67 -27q28 -27 28 -67q0 -41 -28 -69z" />
    <glyph glyph-name="uniFB57" unicode="&#x67e;" horiz-adv-x="1599" arabic-form="final" 
d="M841 0q-369 0 -539 148q-163 143 -163 444q0 197 70 348l168 31q-82 -164 -82 -359q0 -253 117 -364q130 -123 450 -123h375v838h157v-838h236v-125h-789zM773 -300q-27 -28 -67 -28q-39 0 -66 28q-28 28 -28 69q0 38 28 66t66 28q40 0 67 -27q28 -27 28 -67
q0 -41 -28 -69zM1058 -300q-27 -28 -67 -28q-39 0 -66 28q-28 28 -28 69q0 38 28 66t66 28q40 0 67 -27t27 -67q0 -41 -27 -69zM915 -512q-27 -27 -65 -27q-39 0 -67 26q-28 27 -28 67q0 38 28 65t67 27q38 0 65 -26q27 -27 27 -66t-27 -66z" />
    <glyph glyph-name="uniFB58" unicode="&#x67e;" horiz-adv-x="765" arabic-form="initial" 
d="M0 125h422v838h156v-963h-578v125zM424 -512q-27 -27 -66 -27t-66 26q-28 27 -28 67q0 38 28 65t66 27q39 0 66 -26q27 -27 27 -66t-27 -66zM567 -300q-28 -28 -67 -28t-67 28q-27 28 -27 69q0 38 27 66q28 28 67 28q40 0 67 -27t27 -67q0 -41 -27 -69zM282 -300
q-27 -28 -67 -28q-39 0 -66 28q-28 28 -28 69q0 38 28 66t66 28q40 0 67 -27t27 -67q0 -41 -27 -69z" />
    <glyph glyph-name="uniFB59" unicode="&#x67e;" horiz-adv-x="784" arabic-form="medial" 
d="M0 125h422v838h156v-838h237v-125h-815v125zM282 -300q-27 -28 -67 -28q-39 0 -66 28q-28 28 -28 69q0 38 28 66t66 28q40 0 67 -27t27 -67q0 -41 -27 -69zM567 -300q-28 -28 -67 -28t-67 28q-27 28 -27 69q0 38 27 66q28 28 67 28q40 0 67 -27t27 -67q0 -41 -27 -69z
M424 -512q-27 -27 -66 -27t-66 26q-28 27 -28 67q0 38 28 65t66 27q39 0 66 -26q27 -27 27 -66t-27 -66z" />
    <glyph glyph-name="uniFB5A" unicode="&#x680;" horiz-adv-x="1583" arabic-form="isolated" 
d="M841 0q-369 0 -539 148q-163 143 -163 444q0 197 70 348l168 31q-82 -164 -82 -359q0 -253 117 -364q130 -123 450 -123h375v838h157v-963h-553zM1058 -535q-27 -28 -67 -28q-39 0 -66 28q-28 28 -28 69q0 38 28 66t66 28q40 0 67 -27t27 -67q0 -41 -27 -69zM773 -535
q-27 -28 -67 -28q-39 0 -66 28q-28 28 -28 69q0 38 28 66t66 28q40 0 67 -27q28 -27 28 -67q0 -41 -28 -69zM1058 -300q-27 -28 -67 -28q-39 0 -66 28q-28 28 -28 69q0 38 28 66t66 28q40 0 67 -27t27 -67q0 -41 -27 -69zM773 -300q-27 -28 -67 -28q-39 0 -66 28
q-28 28 -28 69q0 38 28 66t66 28q40 0 67 -27q28 -27 28 -67q0 -41 -28 -69z" />
    <glyph glyph-name="uniFB5B" unicode="&#x680;" horiz-adv-x="1599" arabic-form="final" 
d="M841 0q-369 0 -539 148q-163 143 -163 444q0 197 70 348l168 31q-82 -164 -82 -359q0 -253 117 -364q130 -123 450 -123h375v838h157v-838h236v-125h-789zM1058 -535q-27 -28 -67 -28q-39 0 -66 28q-28 28 -28 69q0 38 28 66t66 28q40 0 67 -27t27 -67q0 -41 -27 -69z
M773 -535q-27 -28 -67 -28q-39 0 -66 28q-28 28 -28 69q0 38 28 66t66 28q40 0 67 -27q28 -27 28 -67q0 -41 -28 -69zM1058 -300q-27 -28 -67 -28q-39 0 -66 28q-28 28 -28 69q0 38 28 66t66 28q40 0 67 -27t27 -67q0 -41 -27 -69zM773 -300q-27 -28 -67 -28q-39 0 -66 28
q-28 28 -28 69q0 38 28 66t66 28q40 0 67 -27q28 -27 28 -67q0 -41 -28 -69z" />
    <glyph glyph-name="uniFB5C" unicode="&#x680;" horiz-adv-x="765" arabic-form="initial" 
d="M0 125h422v838h156v-963h-578v125zM567 -535q-27 -28 -67 -28q-39 0 -66 28q-28 28 -28 69q0 38 28 66t66 28q40 0 67 -27t27 -67q0 -41 -27 -69zM282 -535q-27 -28 -67 -28q-39 0 -66 28q-28 28 -28 69q0 38 28 66t66 28q40 0 67 -27q28 -27 28 -67q0 -41 -28 -69z
M567 -300q-27 -28 -67 -28q-39 0 -66 28q-28 28 -28 69q0 38 28 66t66 28q40 0 67 -27t27 -67q0 -41 -27 -69zM282 -300q-27 -28 -67 -28q-39 0 -66 28q-28 28 -28 69q0 38 28 66t66 28q40 0 67 -27q28 -27 28 -67q0 -41 -28 -69z" />
    <glyph glyph-name="uniFB5D" unicode="&#x680;" horiz-adv-x="784" arabic-form="medial" 
d="M0 125h422v838h156v-838h237v-125h-815v125zM567 -535q-27 -28 -67 -28q-39 0 -66 28q-28 28 -28 69q0 38 28 66t66 28q40 0 67 -27t27 -67q0 -41 -27 -69zM282 -535q-27 -28 -67 -28q-39 0 -66 28q-28 28 -28 69q0 38 28 66t66 28q40 0 67 -27q28 -27 28 -67
q0 -41 -28 -69zM567 -300q-27 -28 -67 -28q-39 0 -66 28q-28 28 -28 69q0 38 28 66t66 28q40 0 67 -27t27 -67q0 -41 -27 -69zM282 -300q-27 -28 -67 -28q-39 0 -66 28q-28 28 -28 69q0 38 28 66t66 28q40 0 67 -27q28 -27 28 -67q0 -41 -28 -69z" />
    <glyph glyph-name="uniFB5E" unicode="&#x67a;" horiz-adv-x="1583" arabic-form="isolated" 
d="M841 0q-369 0 -539 148q-163 143 -163 444q0 197 70 348l168 31q-82 -164 -82 -359q0 -253 117 -364q130 -123 450 -123h375v838h157v-963h-553zM723 1546q0 41 29 70q29 28 69 28q41 0 70 -28q28 -28 28 -70q0 -40 -28 -68q-29 -28 -70 -28t-70 28q-28 28 -28 68z
M723 1259q0 40 29 70q29 29 69 29q41 0 70 -29q28 -29 28 -70t-28 -69q-29 -29 -70 -29t-70 29q-28 28 -28 69z" />
    <glyph glyph-name="uniFB5F" unicode="&#x67a;" horiz-adv-x="1599" arabic-form="final" 
d="M841 0q-369 0 -539 148q-163 143 -163 444q0 197 70 348l168 31q-82 -164 -82 -359q0 -253 117 -364q130 -123 450 -123h375v838h157v-838h236v-125h-789zM723 1546q0 41 29 70q29 28 69 28q41 0 70 -28q28 -28 28 -70q0 -40 -28 -68q-29 -28 -70 -28t-70 28
q-28 28 -28 68zM723 1259q0 40 29 70q29 29 69 29q41 0 70 -29q28 -29 28 -70t-28 -69q-29 -29 -70 -29t-70 29q-28 28 -28 69z" />
    <glyph glyph-name="uniFB60" unicode="&#x67a;" horiz-adv-x="651" arabic-form="initial" 
d="M0 125h305v838h156v-963h-461v125zM264 1546q0 41 29 70q29 28 69 28q42 0 70 -28q29 -28 29 -70q0 -40 -29 -68q-28 -28 -70 -28q-41 0 -69 28q-29 28 -29 68zM264 1259q0 40 29 70q30 29 69 29q42 0 70 -29q29 -29 29 -70t-29 -69q-28 -29 -70 -29q-41 0 -69 29
q-29 28 -29 69z" />
    <glyph glyph-name="uniFB61" unicode="&#x67a;" horiz-adv-x="667" arabic-form="medial" 
d="M0 125h305v838h156v-838h237v-125h-698v125zM264 1546q0 41 29 70q29 28 69 28q42 0 70 -28q29 -28 29 -70q0 -40 -29 -68q-28 -28 -70 -28q-41 0 -69 28q-29 28 -29 68zM264 1259q0 40 29 70q30 29 69 29q42 0 70 -29q29 -29 29 -70t-29 -69q-28 -29 -70 -29
q-41 0 -69 29q-29 28 -29 69z" />
    <glyph glyph-name="uniFB62" unicode="&#x67f;" horiz-adv-x="1583" arabic-form="isolated" 
d="M841 0q-369 0 -539 148q-163 143 -163 444q0 197 70 348l168 31q-82 -164 -82 -359q0 -253 117 -364q130 -123 450 -123h375v838h157v-963h-553zM1031 1191q-27 -28 -67 -28q-39 0 -66 28q-28 28 -28 69q0 38 28 66t66 28q40 0 67 -27t27 -67q0 -41 -27 -69zM746 1191
q-27 -28 -67 -28q-39 0 -66 28q-28 28 -28 69q0 38 28 66t66 28q40 0 67 -27q28 -27 28 -67q0 -41 -28 -69zM1031 1426q-27 -28 -67 -28q-39 0 -66 28q-28 28 -28 69q0 38 28 66t66 28q40 0 67 -27t27 -67q0 -41 -27 -69zM746 1426q-27 -28 -67 -28q-39 0 -66 28
q-28 28 -28 69q0 38 28 66t66 28q40 0 67 -27q28 -27 28 -67q0 -41 -28 -69z" />
    <glyph glyph-name="uniFB63" unicode="&#x67f;" horiz-adv-x="1599" arabic-form="final" 
d="M841 0q-369 0 -539 148q-163 143 -163 444q0 197 70 348l168 31q-82 -164 -82 -359q0 -253 117 -364q130 -123 450 -123h375v838h157v-838h236v-125h-789zM1031 1191q-27 -28 -67 -28q-39 0 -66 28q-28 28 -28 69q0 38 28 66t66 28q40 0 67 -27t27 -67q0 -41 -27 -69z
M746 1191q-27 -28 -67 -28q-39 0 -66 28q-28 28 -28 69q0 38 28 66t66 28q40 0 67 -27q28 -27 28 -67q0 -41 -28 -69zM1031 1426q-27 -28 -67 -28q-39 0 -66 28q-28 28 -28 69q0 38 28 66t66 28q40 0 67 -27t27 -67q0 -41 -27 -69zM746 1426q-27 -28 -67 -28q-39 0 -66 28
q-28 28 -28 69q0 38 28 66t66 28q40 0 67 -27q28 -27 28 -67q0 -41 -28 -69z" />
    <glyph glyph-name="uniFB64" unicode="&#x67f;" horiz-adv-x="651" arabic-form="initial" 
d="M0 125h305v838h156v-963h-461v125zM561 1191q-27 -28 -67 -28q-39 0 -66 28q-28 28 -28 69q0 38 28 66t66 28q40 0 67 -27t27 -67q0 -41 -27 -69zM276 1191q-27 -28 -67 -28q-39 0 -66 28q-28 28 -28 69q0 38 28 66t66 28q40 0 67 -27q28 -27 28 -67q0 -41 -28 -69z
M561 1426q-27 -28 -67 -28q-39 0 -66 28q-28 28 -28 69q0 38 28 66t66 28q40 0 67 -27t27 -67q0 -41 -27 -69zM276 1426q-27 -28 -67 -28q-39 0 -66 28q-28 28 -28 69q0 38 28 66t66 28q40 0 67 -27q28 -27 28 -67q0 -41 -28 -69z" />
    <glyph glyph-name="uniFB65" unicode="&#x67f;" horiz-adv-x="667" arabic-form="medial" 
d="M0 125h305v838h156v-838h237v-125h-698v125zM561 1191q-27 -28 -67 -28q-39 0 -66 28q-28 28 -28 69q0 38 28 66t66 28q40 0 67 -27t27 -67q0 -41 -27 -69zM276 1191q-27 -28 -67 -28q-39 0 -66 28q-28 28 -28 69q0 38 28 66t66 28q40 0 67 -27q28 -27 28 -67
q0 -41 -28 -69zM561 1426q-27 -28 -67 -28q-39 0 -66 28q-28 28 -28 69q0 38 28 66t66 28q40 0 67 -27t27 -67q0 -41 -27 -69zM276 1426q-27 -28 -67 -28q-39 0 -66 28q-28 28 -28 69q0 38 28 66t66 28q40 0 67 -27q28 -27 28 -67q0 -41 -28 -69z" />
    <glyph glyph-name="uniFB66" unicode="&#x679;" horiz-adv-x="1583" arabic-form="isolated" 
d="M925 1479q-81 0 -154 -85q-71 -82 -77 -171h152q172 0 172 143q0 113 -93 113zM694 1536q0 -67 -12 -131h2q92 164 256 164q188 0 188 -189q0 -243 -299 -243h-241v575h106v-176zM841 0q-369 0 -539 148q-163 143 -163 444q0 197 70 348l168 31q-82 -164 -82 -359
q0 -253 117 -364q130 -123 450 -123h375v838h157v-963h-553z" />
    <glyph glyph-name="uniFB67" unicode="&#x679;" horiz-adv-x="1599" arabic-form="final" 
d="M841 0q-369 0 -539 148q-163 143 -163 444q0 197 70 348l168 31q-82 -164 -82 -359q0 -253 117 -364q130 -123 450 -123h375v838h157v-838h236v-125h-789zM694 1536q0 -67 -12 -131h2q92 164 256 164q188 0 188 -189q0 -243 -299 -243h-241v575h106v-176zM925 1479
q-81 0 -154 -85q-71 -82 -77 -171h152q172 0 172 143q0 113 -93 113z" />
    <glyph glyph-name="uniFB68" unicode="&#x679;" horiz-adv-x="765" arabic-form="initial" 
d="M467 1540q-82 0 -155 -85q-70 -81 -76 -171h151q172 0 172 143q0 113 -92 113zM236 1597q0 -66 -13 -131h2q93 164 256 164q189 0 189 -188q0 -244 -299 -244h-242v576h107v-177zM0 125h422v838h156v-963h-578v125z" />
    <glyph glyph-name="uniFB69" unicode="&#x679;" horiz-adv-x="784" arabic-form="medial" 
d="M0 125h422v838h156v-838h237v-125h-815v125zM236 1597q0 -66 -13 -131h2q93 164 256 164q189 0 189 -188q0 -244 -299 -244h-242v576h107v-177zM467 1540q-82 0 -155 -85q-70 -81 -76 -171h151q172 0 172 143q0 113 -92 113z" />
    <glyph glyph-name="uniFB6A" unicode="&#x6a4;" horiz-adv-x="1884" arabic-form="isolated" 
d="M1636 148q-136 -148 -356 -148h-439q-369 0 -539 148q-163 143 -163 444q0 197 70 348l168 31q-82 -164 -82 -359q0 -252 116 -364q128 -123 439 -123h129q-148 97 -148 362q0 212 129 351q135 147 359 147q200 0 316 -108q132 -124 132 -371q0 -216 -131 -358zM1302 860
q-130 0 -215 -87q-96 -97 -96 -275q0 -180 81 -277q81 -96 230 -96q132 0 214 89q91 100 91 286q0 360 -305 360zM1241 1416q-27 27 -27 69q0 40 27 68q28 28 67 28q40 0 67 -28q28 -28 28 -68t-28 -68q-27 -28 -67 -28t-67 27zM1384 1192q-28 28 -28 70q0 41 28 69
q28 29 68 29q41 0 70 -29q28 -28 28 -69t-28 -70q-29 -29 -70 -29q-40 0 -68 29zM1095 1192q-28 28 -28 70q0 41 28 69q29 29 70 29q40 0 69 -29q29 -28 29 -69q0 -40 -29 -70q-29 -29 -69 -29q-41 0 -70 29z" />
    <glyph glyph-name="uniFB6B" unicode="&#x6a4;" horiz-adv-x="1900" arabic-form="final" 
d="M1931 0h-1090q-369 0 -539 148q-163 143 -163 444q0 197 70 348l168 31q-82 -164 -82 -359q0 -252 116 -364q128 -123 439 -123h129q-148 97 -148 362q0 212 129 351q135 147 359 147q200 0 316 -108q132 -123 132 -369q0 -263 -176 -389q111 6 186 6h154v-125zM1302 860
q-130 0 -215 -87q-96 -97 -96 -275q0 -180 81 -277q81 -96 230 -96q132 0 214 89q91 100 91 286q0 360 -305 360zM1241 1416q-27 27 -27 69q0 40 27 68q28 28 67 28q40 0 67 -28q28 -28 28 -68t-28 -68q-27 -28 -67 -28t-67 27zM1384 1192q-28 28 -28 70q0 41 28 69
q28 29 68 29q41 0 70 -29q28 -28 28 -69t-28 -70q-29 -29 -70 -29q-40 0 -68 29zM1095 1192q-28 28 -28 70q0 41 28 69q29 29 70 29q40 0 69 -29q29 -28 29 -69q0 -40 -29 -70q-29 -29 -69 -29q-41 0 -70 29z" />
    <glyph glyph-name="uniFB6C" unicode="&#x6a4;" horiz-adv-x="1253" arabic-form="initial" 
d="M0 0v125h180q72 0 119 -8q-166 100 -166 366q0 212 128 351q138 151 376 151q430 0 430 -455v-530h-1067zM913 498q0 362 -290 362q-153 0 -242 -99q-88 -99 -88 -265q0 -191 94 -280q95 -91 305 -91h221v373zM549 1416q-27 27 -27 69q0 40 27 68q28 28 67 28
q40 0 68 -28q27 -28 27 -68t-27 -68q-28 -28 -68 -28t-67 27zM692 1192q-28 28 -28 70q0 41 28 69q28 29 68 29q41 0 70 -29q28 -28 28 -69t-28 -70q-29 -29 -70 -29q-40 0 -68 29zM403 1192q-28 28 -28 70q0 41 28 69q29 29 70 29q40 0 69 -29q29 -28 29 -69q0 -40 -29 -70
q-29 -29 -69 -29q-41 0 -70 29z" />
    <glyph glyph-name="uniFB6D" unicode="&#x6a4;" horiz-adv-x="1202" arabic-form="medial" 
d="M0 125h133q72 0 152 -6q-152 105 -152 368q0 212 129 351q135 147 359 147q200 0 316 -108q132 -123 132 -369q0 -263 -176 -389q111 6 186 6h154v-125h-1233v125zM817 214q92 100 92 286q0 360 -305 360q-130 0 -215 -86q-96 -98 -96 -274q0 -375 311 -375q131 0 213 89
zM543 1416q-27 27 -27 69q0 40 27 68q28 28 67 28q40 0 67 -28q28 -28 28 -68t-28 -68q-27 -28 -67 -28t-67 27zM686 1192q-29 28 -29 70q0 41 29 69q28 29 68 29q41 0 70 -29q28 -28 28 -69t-28 -70q-29 -29 -70 -29q-40 0 -68 29zM397 1192q-28 28 -28 70q0 41 28 69
q28 29 70 29q40 0 69 -29q29 -28 29 -69q0 -40 -29 -70q-29 -29 -69 -29q-42 0 -70 29z" />
    <glyph glyph-name="uniFB6E" unicode="&#x6a6;" horiz-adv-x="1884" arabic-form="isolated" 
d="M1636 148q-136 -148 -356 -148h-439q-369 0 -539 148q-163 143 -163 444q0 197 70 348l168 31q-82 -164 -82 -359q0 -252 116 -364q128 -123 439 -123h129q-148 97 -148 362q0 212 129 351q135 147 359 147q200 0 316 -108q132 -124 132 -371q0 -216 -131 -358zM1302 860
q-130 0 -215 -87q-96 -97 -96 -275q0 -180 81 -277q81 -96 230 -96q132 0 214 89q91 100 91 286q0 360 -305 360zM1520 1195q-27 -28 -67 -28q-39 0 -66 28q-28 28 -28 69q0 38 28 66t66 28q40 0 67 -27t27 -67q0 -41 -27 -69zM1235 1195q-27 -28 -67 -28q-39 0 -66 28
q-28 28 -28 69q0 38 28 66t66 28q40 0 67 -27q28 -27 28 -67q0 -41 -28 -69zM1520 1430q-27 -28 -67 -28q-39 0 -66 28q-28 28 -28 69q0 38 28 66t66 28q40 0 67 -27t27 -67q0 -41 -27 -69zM1235 1430q-27 -28 -67 -28q-39 0 -66 28q-28 28 -28 69q0 38 28 66t66 28
q40 0 67 -27q28 -27 28 -67q0 -41 -28 -69z" />
    <glyph glyph-name="uniFB6F" unicode="&#x6a6;" horiz-adv-x="1900" arabic-form="final" 
d="M1931 0h-1090q-369 0 -539 148q-163 143 -163 444q0 197 70 348l168 31q-82 -164 -82 -359q0 -252 116 -364q128 -123 439 -123h129q-148 97 -148 362q0 212 129 351q135 147 359 147q200 0 316 -108q132 -123 132 -369q0 -263 -176 -389q111 6 186 6h154v-125zM1302 860
q-130 0 -215 -87q-96 -97 -96 -275q0 -180 81 -277q81 -96 230 -96q132 0 214 89q91 100 91 286q0 360 -305 360zM1520 1195q-27 -28 -67 -28q-39 0 -66 28q-28 28 -28 69q0 38 28 66t66 28q40 0 67 -27t27 -67q0 -41 -27 -69zM1235 1195q-27 -28 -67 -28q-39 0 -66 28
q-28 28 -28 69q0 38 28 66t66 28q40 0 67 -27q28 -27 28 -67q0 -41 -28 -69zM1520 1430q-27 -28 -67 -28q-39 0 -66 28q-28 28 -28 69q0 38 28 66t66 28q40 0 67 -27t27 -67q0 -41 -27 -69zM1235 1430q-27 -28 -67 -28q-39 0 -66 28q-28 28 -28 69q0 38 28 66t66 28
q40 0 67 -27q28 -27 28 -67q0 -41 -28 -69z" />
    <glyph glyph-name="uniFB70" unicode="&#x6a6;" horiz-adv-x="1253" arabic-form="initial" 
d="M0 0v125h180q72 0 119 -8q-166 100 -166 366q0 212 128 351q138 151 376 151q430 0 430 -455v-530h-1067zM913 498q0 362 -290 362q-153 0 -242 -99q-88 -99 -88 -265q0 -191 94 -280q95 -91 305 -91h221v373zM820 1195q-27 -28 -67 -28q-39 0 -66 28q-28 28 -28 69
q0 38 28 66t66 28q40 0 67 -27t27 -67q0 -41 -27 -69zM535 1195q-27 -28 -67 -28q-39 0 -66 28q-28 28 -28 69q0 38 28 66t66 28q40 0 67 -27q28 -27 28 -67q0 -41 -28 -69zM820 1430q-27 -28 -67 -28q-39 0 -66 28q-28 28 -28 69q0 38 28 66t66 28q40 0 67 -27t27 -67
q0 -41 -27 -69zM535 1430q-27 -28 -67 -28q-39 0 -66 28q-28 28 -28 69q0 38 28 66t66 28q40 0 67 -27q28 -27 28 -67q0 -41 -28 -69z" />
    <glyph glyph-name="uniFB71" unicode="&#x6a6;" horiz-adv-x="1202" arabic-form="medial" 
d="M0 125h133q72 0 152 -6q-152 105 -152 368q0 212 129 351q135 147 359 147q200 0 316 -108q132 -123 132 -369q0 -263 -176 -389q111 6 186 6h154v-125h-1233v125zM817 214q92 100 92 286q0 360 -305 360q-130 0 -215 -86q-96 -98 -96 -274q0 -375 311 -375q131 0 213 89
zM820 1195q-27 -28 -67 -28q-39 0 -66 28q-28 28 -28 69q0 38 28 66t66 28q40 0 67 -27t27 -67q0 -41 -27 -69zM535 1195q-27 -28 -67 -28q-39 0 -66 28q-28 28 -28 69q0 38 28 66t66 28q40 0 67 -27q28 -27 28 -67q0 -41 -28 -69zM820 1430q-27 -28 -67 -28q-39 0 -66 28
q-28 28 -28 69q0 38 28 66t66 28q40 0 67 -27t27 -67q0 -41 -27 -69zM535 1430q-27 -28 -67 -28q-39 0 -66 28q-28 28 -28 69q0 38 28 66t66 28q40 0 67 -27q28 -27 28 -67q0 -41 -28 -69z" />
    <glyph glyph-name="uniFB72" unicode="&#x684;" horiz-adv-x="1210" arabic-form="isolated" 
d="M657 0q-456 0 -456 -268q0 -112 100 -184q110 -78 303 -78l-10 -125q-264 0 -412 109q-137 101 -137 263q0 408 623 408h225q16 128 16 231q0 256 -101 369q-109 121 -366 121q-116 0 -225 -15v123q131 17 238 17q326 0 473 -153q137 -143 137 -445q0 -176 -33 -373h-375
zM750 -137q40 0 67 -27t27 -67q0 -38 -28 -66t-66 -28q-41 0 -69 28q-28 27 -28 66q0 40 29 67q28 27 68 27zM750 -422q40 0 67 -27t27 -67q0 -38 -28 -66t-66 -28q-41 0 -69 28q-28 27 -28 66q0 40 29 67q28 27 68 27z" />
    <glyph glyph-name="uniFB73" unicode="&#x684;" horiz-adv-x="1200" arabic-form="final" 
d="M657 0q-456 0 -456 -268q0 -112 100 -184q110 -78 303 -78l-10 -125q-264 0 -412 109q-137 101 -137 263q0 408 623 408h225q16 128 16 231q0 256 -101 369q-109 121 -366 121q-116 0 -225 -15v123q131 17 238 17q326 0 473 -153q137 -143 137 -445q0 -116 -14 -248h180
v-125h-574zM750 -137q40 0 67 -27t27 -67q0 -38 -28 -66t-66 -28q-41 0 -69 28q-28 27 -28 66q0 40 29 67q28 27 68 27zM750 -422q40 0 67 -27t27 -67q0 -38 -28 -66t-66 -28q-41 0 -69 28q-28 27 -28 66q0 40 29 67q28 27 68 27z" />
    <glyph glyph-name="uniFB74" unicode="&#x684;" horiz-adv-x="1183" arabic-form="initial" 
d="M0 125h866q17 128 17 231q0 256 -102 369q-109 121 -367 121q-115 0 -224 -15v123q127 17 238 17q327 0 473 -153q137 -143 137 -445q0 -164 -34 -373h-1004v125zM480 -137q40 0 67 -27t27 -67q0 -38 -28 -66t-66 -28q-41 0 -69 28q-28 27 -28 66q0 40 29 67q28 27 68 27
zM480 -422q40 0 67 -27t27 -67q0 -38 -28 -66t-66 -28q-41 0 -69 28q-28 27 -28 66q0 40 29 67q28 27 68 27z" />
    <glyph glyph-name="uniFB75" unicode="&#x684;" horiz-adv-x="1193" arabic-form="medial" 
d="M0 125h866q17 128 17 231q0 256 -102 369q-109 121 -367 121q-115 0 -224 -15v123q127 17 238 17q327 0 473 -153q137 -143 137 -445q0 -97 -16 -248h203v-125h-1225v125zM480 -137q40 0 67 -27t27 -67q0 -38 -28 -66t-66 -28q-41 0 -69 28q-28 27 -28 66q0 40 29 67
q28 27 68 27zM480 -422q40 0 67 -27t27 -67q0 -38 -28 -66t-66 -28q-41 0 -69 28q-28 27 -28 66q0 40 29 67q28 27 68 27z" />
    <glyph glyph-name="uniFB76" unicode="&#x683;" horiz-adv-x="1220" arabic-form="isolated" 
d="M657 0q-456 0 -456 -268q0 -211 280 -252l-30 -129q-189 28 -296 123q-110 98 -110 243q0 408 623 408h235q16 106 16 231q0 256 -101 369q-108 121 -365 121q-118 0 -224 -15v123q127 17 236 17q327 0 473 -153q137 -143 137 -445q0 -176 -33 -373h-385zM962 -300
q-27 -28 -67 -28q-39 0 -66 28q-28 28 -28 69q0 38 28 66t66 28q40 0 67 -27t27 -67q0 -41 -27 -69zM677 -300q-27 -28 -67 -28q-39 0 -66 28q-28 28 -28 69q0 38 28 66t66 28q40 0 67 -27t27 -67q0 -41 -27 -69z" />
    <glyph glyph-name="uniFB77" unicode="&#x683;" horiz-adv-x="1230" arabic-form="final" 
d="M657 0q-456 0 -456 -268q0 -211 280 -252l-30 -129q-189 28 -296 123q-110 98 -110 243q0 408 623 408h235q16 106 16 231q0 256 -101 369q-108 121 -365 121q-118 0 -224 -15v123q127 17 236 17q327 0 473 -153q137 -143 137 -445q0 -116 -14 -248h201v-125h-605z
M677 -300q-27 -28 -67 -28q-39 0 -66 28q-28 28 -28 69q0 38 28 66t66 28q40 0 67 -27t27 -67q0 -41 -27 -69zM962 -300q-27 -28 -67 -28q-39 0 -66 28q-28 28 -28 69q0 38 28 66t66 28q40 0 67 -27t27 -67q0 -41 -27 -69z" />
    <glyph glyph-name="uniFB78" unicode="&#x683;" horiz-adv-x="1183" arabic-form="initial" 
d="M0 125h866q17 128 17 231q0 256 -102 369q-109 121 -367 121q-115 0 -224 -15v123q127 17 238 17q327 0 473 -153q137 -143 137 -445q0 -164 -34 -373h-1004v125zM694 -300q-28 -28 -67 -28t-67 28t-28 69q0 38 28 66t67 28q40 0 67 -27t27 -67q0 -41 -27 -69zM409 -300
q-27 -28 -67 -28q-39 0 -66 28q-28 28 -28 69q0 38 28 66t66 28q40 0 67 -27t27 -67q0 -41 -27 -69z" />
    <glyph glyph-name="uniFB79" unicode="&#x683;" horiz-adv-x="1193" arabic-form="medial" 
d="M0 125h866q17 128 17 231q0 256 -102 369q-109 121 -367 121q-115 0 -224 -15v123q127 17 238 17q327 0 473 -153q137 -143 137 -445q0 -97 -16 -248h203v-125h-1225v125zM409 -300q-27 -28 -67 -28q-39 0 -66 28q-28 28 -28 69q0 38 28 66t66 28q40 0 67 -27t27 -67
q0 -41 -27 -69zM694 -300q-28 -28 -67 -28t-67 28t-28 69q0 38 28 66t67 28q40 0 67 -27t27 -67q0 -41 -27 -69z" />
    <glyph glyph-name="uniFB7A" unicode="&#x686;" horiz-adv-x="1220" arabic-form="isolated" 
d="M657 0q-456 0 -456 -268q0 -211 280 -252l-30 -129q-189 28 -296 123q-110 98 -110 243q0 408 623 408h235q16 106 16 231q0 256 -101 369q-108 121 -365 121q-118 0 -224 -15v123q127 17 236 17q327 0 473 -153q137 -143 137 -445q0 -176 -33 -373h-385zM819 -512
q-27 -27 -65 -27q-39 0 -67 26q-28 27 -28 67q0 38 28 65t67 27q38 0 65 -26q27 -27 27 -66t-27 -66zM962 -300q-27 -28 -67 -28q-39 0 -66 28q-28 28 -28 69q0 38 28 66t66 28q40 0 67 -27t27 -67q0 -41 -27 -69zM677 -300q-27 -28 -67 -28q-39 0 -66 28q-28 28 -28 69
q0 38 28 66t66 28q40 0 67 -27t27 -67q0 -41 -27 -69z" />
    <glyph glyph-name="uniFB7B" unicode="&#x686;" horiz-adv-x="1230" arabic-form="final" 
d="M657 0q-456 0 -456 -268q0 -211 280 -252l-30 -129q-189 28 -296 123q-110 98 -110 243q0 408 623 408h235q16 106 16 231q0 256 -101 369q-108 121 -365 121q-118 0 -224 -15v123q127 17 236 17q327 0 473 -153q137 -143 137 -445q0 -116 -14 -248h201v-125h-605z
M677 -300q-27 -28 -67 -28q-39 0 -66 28q-28 28 -28 69q0 38 28 66t66 28q40 0 67 -27t27 -67q0 -41 -27 -69zM962 -300q-27 -28 -67 -28q-39 0 -66 28q-28 28 -28 69q0 38 28 66t66 28q40 0 67 -27t27 -67q0 -41 -27 -69zM819 -512q-27 -27 -65 -27q-39 0 -67 26
q-28 27 -28 67q0 38 28 65t67 27q38 0 65 -26q27 -27 27 -66t-27 -66z" />
    <glyph glyph-name="uniFB7C" unicode="&#x686;" horiz-adv-x="1183" arabic-form="initial" 
d="M0 125h866q17 128 17 231q0 256 -102 369q-109 121 -367 121q-115 0 -224 -15v123q127 17 238 17q327 0 473 -153q137 -143 137 -445q0 -164 -34 -373h-1004v125zM551 -512q-27 -27 -66 -27t-66 26q-28 27 -28 67q0 38 28 65t66 27q39 0 66 -26q27 -27 27 -66t-27 -66z
M694 -300q-28 -28 -67 -28t-67 28t-28 69q0 38 28 66t67 28q40 0 67 -27t27 -67q0 -41 -27 -69zM409 -300q-27 -28 -67 -28q-39 0 -66 28q-28 28 -28 69q0 38 28 66t66 28q40 0 67 -27t27 -67q0 -41 -27 -69z" />
    <glyph glyph-name="uniFB7D" unicode="&#x686;" horiz-adv-x="1193" arabic-form="medial" 
d="M0 125h866q17 128 17 231q0 256 -102 369q-109 121 -367 121q-115 0 -224 -15v123q127 17 238 17q327 0 473 -153q137 -143 137 -445q0 -97 -16 -248h203v-125h-1225v125zM409 -300q-27 -28 -67 -28q-39 0 -66 28q-28 28 -28 69q0 38 28 66t66 28q40 0 67 -27t27 -67
q0 -41 -27 -69zM694 -300q-28 -28 -67 -28t-67 28t-28 69q0 38 28 66t67 28q40 0 67 -27t27 -67q0 -41 -27 -69zM551 -512q-27 -27 -66 -27t-66 26q-28 27 -28 67q0 38 28 65t66 27q39 0 66 -26q27 -27 27 -66t-27 -66z" />
    <glyph glyph-name="uniFB7E" unicode="&#x687;" horiz-adv-x="1220" arabic-form="isolated" 
d="M657 0q-456 0 -456 -268q0 -211 280 -252l-30 -129q-189 28 -296 123q-110 98 -110 243q0 408 623 408h235q16 106 16 231q0 256 -101 369q-108 121 -365 121q-118 0 -224 -15v123q127 17 236 17q327 0 473 -153q137 -143 137 -445q0 -176 -33 -373h-385zM960 -535
q-27 -28 -67 -28q-39 0 -66 28q-28 28 -28 69q0 38 28 66t66 28q40 0 67 -27t27 -67q0 -41 -27 -69zM675 -535q-27 -28 -67 -28q-39 0 -66 28q-28 28 -28 69q0 38 28 66t66 28q40 0 67 -27q28 -27 28 -67q0 -41 -28 -69zM960 -300q-27 -28 -67 -28q-39 0 -66 28
q-28 28 -28 69q0 38 28 66t66 28q40 0 67 -27t27 -67q0 -41 -27 -69zM675 -300q-27 -28 -67 -28q-39 0 -66 28q-28 28 -28 69q0 38 28 66t66 28q40 0 67 -27q28 -27 28 -67q0 -41 -28 -69z" />
    <glyph glyph-name="uniFB7F" unicode="&#x687;" horiz-adv-x="1230" arabic-form="final" 
d="M657 0q-456 0 -456 -268q0 -211 280 -252l-30 -129q-189 28 -296 123q-110 98 -110 243q0 408 623 408h235q16 106 16 231q0 256 -101 369q-108 121 -365 121q-118 0 -224 -15v123q127 17 236 17q327 0 473 -153q137 -143 137 -445q0 -116 -14 -248h201v-125h-605z
M960 -535q-27 -28 -67 -28q-39 0 -66 28q-28 28 -28 69q0 38 28 66t66 28q40 0 67 -27t27 -67q0 -41 -27 -69zM675 -535q-27 -28 -67 -28q-39 0 -66 28q-28 28 -28 69q0 38 28 66t66 28q40 0 67 -27q28 -27 28 -67q0 -41 -28 -69zM960 -300q-27 -28 -67 -28q-39 0 -66 28
q-28 28 -28 69q0 38 28 66t66 28q40 0 67 -27t27 -67q0 -41 -27 -69zM675 -300q-27 -28 -67 -28q-39 0 -66 28q-28 28 -28 69q0 38 28 66t66 28q40 0 67 -27q28 -27 28 -67q0 -41 -28 -69z" />
    <glyph glyph-name="uniFB80" unicode="&#x687;" horiz-adv-x="1183" arabic-form="initial" 
d="M0 125h866q17 128 17 231q0 256 -102 369q-109 121 -367 121q-115 0 -224 -15v123q127 17 238 17q327 0 473 -153q137 -143 137 -445q0 -164 -34 -373h-1004v125zM690 -535q-27 -28 -67 -28q-39 0 -66 28q-28 28 -28 69q0 38 28 66t66 28q40 0 67 -27t27 -67
q0 -41 -27 -69zM405 -535q-27 -28 -67 -28q-39 0 -66 28q-28 28 -28 69q0 38 28 66t66 28q40 0 67 -27q28 -27 28 -67q0 -41 -28 -69zM690 -300q-27 -28 -67 -28q-39 0 -66 28q-28 28 -28 69q0 38 28 66t66 28q40 0 67 -27t27 -67q0 -41 -27 -69zM405 -300q-27 -28 -67 -28
q-39 0 -66 28q-28 28 -28 69q0 38 28 66t66 28q40 0 67 -27q28 -27 28 -67q0 -41 -28 -69z" />
    <glyph glyph-name="uniFB81" unicode="&#x687;" horiz-adv-x="1193" arabic-form="medial" 
d="M0 125h866q17 128 17 231q0 256 -102 369q-109 121 -367 121q-115 0 -224 -15v123q127 17 238 17q327 0 473 -153q137 -143 137 -445q0 -97 -16 -248h203v-125h-1225v125zM690 -535q-27 -28 -67 -28q-39 0 -66 28q-28 28 -28 69q0 38 28 66t66 28q40 0 67 -27t27 -67
q0 -41 -27 -69zM405 -535q-27 -28 -67 -28q-39 0 -66 28q-28 28 -28 69q0 38 28 66t66 28q40 0 67 -27q28 -27 28 -67q0 -41 -28 -69zM690 -300q-27 -28 -67 -28q-39 0 -66 28q-28 28 -28 69q0 38 28 66t66 28q40 0 67 -27t27 -67q0 -41 -27 -69zM405 -300q-27 -28 -67 -28
q-39 0 -66 28q-28 28 -28 69q0 38 28 66t66 28q40 0 67 -27q28 -27 28 -67q0 -41 -28 -69z" />
    <glyph glyph-name="uniFB82" unicode="&#x68d;" horiz-adv-x="1083" arabic-form="isolated" 
d="M110 125h678q-3 305 -125 477q-123 174 -406 264l41 133q339 -109 489 -315q154 -213 154 -596v-88h-831v125zM740 -375q-29 -28 -69 -28q-41 0 -69 27q-30 29 -30 71q0 40 30 69q29 29 69 29t69 -28q29 -29 29 -70t-29 -70zM452 -375q-28 -28 -70 -28q-40 0 -68 27
q-28 28 -28 71q0 40 28 69t68 29q42 0 70 -28q28 -29 28 -70q0 -42 -28 -70z" />
    <glyph glyph-name="uniFB83" unicode="&#x68d;" horiz-adv-x="1083" arabic-form="final" 
d="M110 125h678q-3 305 -125 477q-123 174 -406 264l41 133q330 -108 480 -305q156 -207 163 -569h173v-125h-1004v125zM740 -375q-29 -28 -69 -28q-41 0 -69 27q-30 29 -30 71q0 40 30 69q29 29 69 29t69 -28q29 -29 29 -70t-29 -70zM452 -375q-28 -28 -70 -28
q-40 0 -68 27q-28 28 -28 71q0 40 28 69t68 29q42 0 70 -28q28 -29 28 -70q0 -42 -28 -70z" />
    <glyph glyph-name="uniFB84" unicode="&#x68c;" horiz-adv-x="1083" arabic-form="isolated" 
d="M110 125h678q-3 305 -125 477q-123 174 -406 264l41 133q339 -109 489 -315q154 -213 154 -596v-88h-831v125zM566 1192q-28 28 -28 70q0 41 28 69q28 29 68 29q42 0 70 -29q29 -28 29 -69t-29 -70t-70 -29q-40 0 -68 29zM278 1192q-29 28 -29 70q0 41 29 69q28 29 70 29
q40 0 69 -29q29 -28 29 -69q0 -40 -29 -70q-29 -29 -69 -29q-42 0 -70 29z" />
    <glyph glyph-name="uniFB85" unicode="&#x68c;" horiz-adv-x="1083" arabic-form="final" 
d="M110 125h678q-3 305 -125 477q-123 174 -406 264l41 133q330 -108 480 -305q156 -207 163 -569h173v-125h-1004v125zM566 1192q-28 28 -28 70q0 41 28 69q28 29 68 29q42 0 70 -29q29 -28 29 -69t-29 -70t-70 -29q-40 0 -68 29zM278 1192q-29 28 -29 70q0 41 29 69
q28 29 70 29q40 0 69 -29q29 -28 29 -69q0 -40 -29 -70q-29 -29 -69 -29q-42 0 -70 29z" />
    <glyph glyph-name="uniFB86" unicode="&#x68e;" horiz-adv-x="1083" arabic-form="isolated" 
d="M110 125h678q-3 305 -125 477q-123 174 -406 264l41 133q339 -109 489 -315q154 -213 154 -596v-88h-831v125zM424 1416q-27 27 -27 69q0 40 27 68t67 28t67 -28t27 -68t-27 -68t-67 -28t-67 27zM566 1192q-28 28 -28 70q0 41 28 69q28 29 68 29q42 0 70 -29
q29 -28 29 -69t-29 -70t-70 -29q-40 0 -68 29zM278 1192q-29 28 -29 70q0 41 29 69q28 29 70 29q40 0 69 -29q29 -28 29 -69q0 -40 -29 -70q-29 -29 -69 -29q-42 0 -70 29z" />
    <glyph glyph-name="uniFB87" unicode="&#x68e;" horiz-adv-x="1083" arabic-form="final" 
d="M110 125h678q-3 305 -125 477q-123 174 -406 264l41 133q330 -108 480 -305q156 -207 163 -569h173v-125h-1004v125zM424 1416q-27 27 -27 69q0 40 27 68t67 28t67 -28t27 -68t-27 -68t-67 -28t-67 27zM566 1192q-28 28 -28 70q0 41 28 69q28 29 68 29q42 0 70 -29
q29 -28 29 -69t-29 -70t-70 -29q-40 0 -68 29zM278 1192q-29 28 -29 70q0 41 29 69q28 29 70 29q40 0 69 -29q29 -28 29 -69q0 -40 -29 -70q-29 -29 -69 -29q-42 0 -70 29z" />
    <glyph glyph-name="uniFB88" unicode="&#x688;" horiz-adv-x="1083" arabic-form="isolated" 
d="M110 125h678q-3 305 -125 477q-123 174 -406 264l41 133q339 -109 489 -315q154 -213 154 -596v-88h-831v125zM591 1540q-81 0 -155 -85q-70 -81 -76 -171h151q172 0 172 143q0 113 -92 113zM360 1597q0 -66 -12 -131h2q92 164 256 164q188 0 188 -188q0 -244 -299 -244
h-242v576h107v-177z" />
    <glyph glyph-name="uniFB89" unicode="&#x688;" horiz-adv-x="1083" arabic-form="final" 
d="M110 125h678q-3 305 -125 477q-123 174 -406 264l41 133q330 -108 480 -305q156 -207 163 -569h173v-125h-1004v125zM360 1597q0 -66 -12 -131h2q92 164 256 164q188 0 188 -188q0 -244 -299 -244h-242v576h107v-177zM591 1540q-81 0 -155 -85q-70 -81 -76 -171h151
q172 0 172 143q0 113 -92 113z" />
    <glyph glyph-name="uniFB8A" unicode="&#x698;" horiz-adv-x="871" arabic-form="isolated" 
d="M-10 -496l23 131q112 -41 221 -41q145 0 214 82q79 90 79 297v990h157v-973q0 -518 -463 -518q-114 0 -231 32zM525 1416q-27 27 -27 69q0 40 27 68t67 28t67 -28t27 -68t-27 -68t-67 -28t-67 27zM667 1192q-28 28 -28 70q0 41 28 69q28 29 68 29q42 0 70 -29
q29 -28 29 -69t-29 -70q-28 -29 -70 -29q-40 0 -68 29zM379 1192q-29 28 -29 70q0 41 29 69q28 29 70 29q40 0 69 -29q29 -28 29 -69q0 -40 -29 -70q-29 -29 -69 -29q-42 0 -70 29z" />
    <glyph glyph-name="uniFB8B" unicode="&#x698;" horiz-adv-x="888" arabic-form="final" 
d="M-10 -496l23 131q112 -41 221 -41q145 0 214 82q79 90 79 297v990h157v-838h236v-125h-236v-10q0 -518 -463 -518q-114 0 -231 32zM379 1192q-29 28 -29 70q0 41 29 69q28 29 70 29q40 0 69 -29q29 -28 29 -69q0 -40 -29 -70q-29 -29 -69 -29q-42 0 -70 29zM667 1192
q-28 28 -28 70q0 41 28 69q28 29 68 29q42 0 70 -29q29 -28 29 -69t-29 -70q-28 -29 -70 -29q-40 0 -68 29zM525 1416q-27 27 -27 69q0 40 27 68t67 28t67 -28t27 -68t-27 -68t-67 -28t-67 27z" />
    <glyph glyph-name="uniFB8C" unicode="&#x691;" horiz-adv-x="871" arabic-form="isolated" 
d="M-10 -496l23 131q112 -41 221 -41q145 0 214 82q79 90 79 297v990h157v-973q0 -518 -463 -518q-114 0 -231 32zM670 1540q-82 0 -155 -85q-70 -81 -76 -171h151q172 0 172 143q0 113 -92 113zM439 1597q0 -66 -13 -131h2q93 164 256 164q189 0 189 -188q0 -244 -299 -244
h-242v576h107v-177z" />
    <glyph glyph-name="uniFB8D" unicode="&#x691;" horiz-adv-x="888" arabic-form="final" 
d="M-10 -496l23 131q112 -41 221 -41q145 0 214 82q79 90 79 297v990h157v-838h236v-125h-236v-10q0 -518 -463 -518q-114 0 -231 32zM439 1597q0 -66 -13 -131h2q93 164 256 164q189 0 189 -188q0 -244 -299 -244h-242v576h107v-177zM670 1540q-82 0 -155 -85
q-70 -81 -76 -171h151q172 0 172 143q0 113 -92 113z" />
    <glyph glyph-name="uniFB8E" unicode="&#x6a9;" horiz-adv-x="1734" arabic-form="isolated" 
d="M841 0q-369 0 -539 148q-163 143 -163 444q0 197 70 348l168 31q-82 -164 -82 -359q0 -253 117 -364q130 -123 450 -123h549q-2 318 -136 494q-128 167 -413 253v117l762 479v-157l-580 -359q265 -108 387 -296q135 -207 135 -566v-90h-725z" />
    <glyph glyph-name="uniFB8F" unicode="&#x6a9;" horiz-adv-x="1734" arabic-form="final" 
d="M841 0q-369 0 -539 148q-163 143 -163 444q0 197 70 348l168 31q-82 -164 -82 -359q0 -253 117 -364q130 -123 450 -123h549q-2 318 -136 494q-128 167 -413 253v117l762 479v-157l-580 -359q259 -106 381 -287q136 -200 141 -540h201v-125h-926z" />
    <glyph glyph-name="uniFB90" unicode="&#x6a9;" horiz-adv-x="1001" arabic-form="initial" 
d="M0 125h678q-3 318 -138 494q-128 167 -413 253v117l764 479v-157l-580 -359q264 -108 386 -296q134 -208 134 -566v-90h-831v125z" />
    <glyph glyph-name="uniFB91" unicode="&#x6a9;" horiz-adv-x="1001" arabic-form="medial" 
d="M0 125h678q-3 318 -138 494q-128 167 -413 253v117l764 479v-157l-580 -359q258 -107 379 -287q136 -200 141 -540h201v-125h-1032v125z" />
    <glyph glyph-name="uniFB92" unicode="&#x6af;" horiz-adv-x="1734" arabic-form="isolated" 
d="M841 0q-369 0 -539 148q-163 143 -163 444q0 197 70 348l168 31q-82 -164 -82 -359q0 -253 117 -364q130 -123 450 -123h549q-2 318 -136 494q-128 167 -413 253v111l762 479v-151l-580 -359q265 -108 387 -296q135 -207 135 -566v-90h-725zM862 1317l762 479v-147
l-762 -480v148z" />
    <glyph glyph-name="uniFB93" unicode="&#x6af;" horiz-adv-x="1734" arabic-form="final" 
d="M841 0q-369 0 -539 148q-163 143 -163 444q0 197 70 348l168 31q-82 -164 -82 -359q0 -253 117 -364q130 -123 450 -123h549q-2 318 -136 494q-128 167 -413 253v111l762 479v-151l-580 -359q259 -106 381 -287q136 -200 141 -540h201v-125h-926zM862 1317l762 479v-147
l-762 -480v148z" />
    <glyph glyph-name="uniFB94" unicode="&#x6af;" horiz-adv-x="1001" arabic-form="initial" 
d="M0 125h678q-3 318 -138 494q-128 167 -413 253v111l764 479v-151l-580 -359q264 -108 386 -296q134 -208 134 -566v-90h-831v125zM127 1317l764 479v-147l-764 -480v148z" />
    <glyph glyph-name="uniFB95" unicode="&#x6af;" horiz-adv-x="1001" arabic-form="medial" 
d="M0 125h678q-3 318 -138 494q-128 167 -413 253v111l764 479v-151l-580 -359q258 -107 379 -287q136 -200 141 -540h201v-125h-1032v125zM127 1317l764 479v-147l-764 -480v148z" />
    <glyph glyph-name="uniFB96" unicode="&#x6b3;" horiz-adv-x="1734" arabic-form="isolated" 
d="M841 0q-369 0 -539 148q-163 143 -163 444q0 197 70 348l168 31q-82 -164 -82 -359q0 -253 117 -364q130 -123 450 -123h549q-2 318 -136 494q-128 167 -413 253v111l762 479v-151l-580 -359q265 -108 387 -296q135 -207 135 -566v-90h-725zM862 1317l762 479v-147
l-762 -480v148zM860 -137q40 0 67 -27t27 -67q0 -38 -28 -66t-66 -28q-41 0 -69 28q-28 27 -28 66q0 40 29 67q28 27 68 27zM860 -422q40 0 67 -27t27 -67q0 -38 -28 -66t-66 -28q-41 0 -69 28q-28 27 -28 66q0 40 29 67q28 27 68 27z" />
    <glyph glyph-name="uniFB97" unicode="&#x6b3;" horiz-adv-x="1734" arabic-form="final" 
d="M841 0q-369 0 -539 148q-163 143 -163 444q0 197 70 348l168 31q-82 -164 -82 -359q0 -253 117 -364q130 -123 450 -123h549q-2 318 -136 494q-128 167 -413 253v111l762 479v-151l-580 -359q259 -106 381 -287q136 -200 141 -540h201v-125h-926zM862 1317l762 479v-147
l-762 -480v148zM860 -137q40 0 67 -27t27 -67q0 -38 -28 -66t-66 -28q-41 0 -69 28q-28 27 -28 66q0 40 29 67q28 27 68 27zM860 -422q40 0 67 -27t27 -67q0 -38 -28 -66t-66 -28q-41 0 -69 28q-28 27 -28 66q0 40 29 67q28 27 68 27z" />
    <glyph glyph-name="uniFB98" unicode="&#x6b3;" horiz-adv-x="1001" arabic-form="initial" 
d="M0 125h678q-3 318 -138 494q-128 167 -413 253v111l764 479v-151l-580 -359q264 -108 386 -296q134 -208 134 -566v-90h-831v125zM127 1317l764 479v-147l-764 -480v148zM370 -137q40 0 67 -27t27 -67q0 -38 -28 -66t-66 -28q-41 0 -69 28q-28 27 -28 66q0 40 29 67
q28 27 68 27zM370 -422q40 0 67 -27t27 -67q0 -38 -28 -66t-66 -28q-41 0 -69 28q-28 27 -28 66q0 40 29 67q28 27 68 27z" />
    <glyph glyph-name="uniFB99" unicode="&#x6b3;" horiz-adv-x="1001" arabic-form="medial" 
d="M0 125h678q-3 318 -138 494q-128 167 -413 253v111l764 479v-151l-580 -359q258 -107 379 -287q136 -200 141 -540h201v-125h-1032v125zM127 1317l764 479v-147l-764 -480v148zM370 -137q40 0 67 -27t27 -67q0 -38 -28 -66t-66 -28q-41 0 -69 28q-28 27 -28 66
q0 40 29 67q28 27 68 27zM370 -422q40 0 67 -27t27 -67q0 -38 -28 -66t-66 -28q-41 0 -69 28q-28 27 -28 66q0 40 29 67q28 27 68 27z" />
    <glyph glyph-name="uniFB9A" unicode="&#x6b1;" horiz-adv-x="1734" arabic-form="isolated" 
d="M841 0q-369 0 -539 148q-163 143 -163 444q0 197 70 348l168 31q-82 -164 -82 -359q0 -253 117 -364q130 -123 450 -123h549q-2 318 -136 494q-128 167 -413 253v111l762 479v-151l-580 -359q265 -108 387 -296q135 -207 135 -566v-90h-725zM862 1317l762 479v-147
l-762 -480v148zM1123 1673q-28 28 -28 70q0 41 28 69q28 29 68 29q41 0 70 -29q28 -28 28 -69t-28 -70q-29 -29 -70 -29q-40 0 -68 29zM834 1673q-28 28 -28 70q0 41 28 69q29 29 70 29q40 0 69 -29q29 -28 29 -69q0 -40 -29 -70q-29 -29 -69 -29q-41 0 -70 29z" />
    <glyph glyph-name="uniFB9B" unicode="&#x6b1;" horiz-adv-x="1734" arabic-form="final" 
d="M841 0q-369 0 -539 148q-163 143 -163 444q0 197 70 348l168 31q-82 -164 -82 -359q0 -253 117 -364q130 -123 450 -123h549q-2 318 -136 494q-128 167 -413 253v111l762 479v-151l-580 -359q259 -106 381 -287q136 -200 141 -540h201v-125h-926zM862 1317l762 479v-147
l-762 -480v148zM1123 1673q-28 28 -28 70q0 41 28 69q28 29 68 29q41 0 70 -29q28 -28 28 -69t-28 -70q-29 -29 -70 -29q-40 0 -68 29zM834 1673q-28 28 -28 70q0 41 28 69q29 29 70 29q40 0 69 -29q29 -28 29 -69q0 -40 -29 -70q-29 -29 -69 -29q-41 0 -70 29z" />
    <glyph glyph-name="uniFB9C" unicode="&#x6b1;" horiz-adv-x="1001" arabic-form="initial" 
d="M0 125h678q-3 318 -138 494q-128 167 -413 253v111l764 479v-151l-580 -359q264 -108 386 -296q134 -208 134 -566v-90h-831v125zM127 1317l764 479v-147l-764 -480v148zM413 1673q-28 28 -28 70q0 41 28 69q28 29 68 29q41 0 70 -29q28 -28 28 -69t-28 -70
q-29 -29 -70 -29q-40 0 -68 29zM124 1673q-28 28 -28 70q0 41 28 69q29 29 70 29q40 0 69 -29q29 -28 29 -69q0 -40 -29 -70q-29 -29 -69 -29q-41 0 -70 29z" />
    <glyph glyph-name="uniFB9D" unicode="&#x6b1;" horiz-adv-x="1001" arabic-form="medial" 
d="M0 125h678q-3 318 -138 494q-128 167 -413 253v111l764 479v-151l-580 -359q258 -107 379 -287q136 -200 141 -540h201v-125h-1032v125zM127 1317l764 479v-147l-764 -480v148zM413 1673q-28 28 -28 70q0 41 28 69q28 29 68 29q41 0 70 -29q28 -28 28 -69t-28 -70
q-29 -29 -70 -29q-40 0 -68 29zM124 1673q-28 28 -28 70q0 41 28 69q29 29 70 29q40 0 69 -29q29 -28 29 -69q0 -40 -29 -70q-29 -29 -69 -29q-41 0 -70 29z" />
    <glyph glyph-name="uniFB9E" unicode="&#x6ba;" horiz-adv-x="1339" arabic-form="isolated" 
d="M1151 88q0 -561 -526 -561q-219 0 -346 125q-150 145 -150 442q0 213 49 398l162 30q-55 -206 -55 -413q0 -250 115 -366q91 -91 243 -91q352 0 352 426v885h156v-875z" />
    <glyph glyph-name="uniFB9F" unicode="&#x6ba;" horiz-adv-x="1349" arabic-form="final" 
d="M1144 125h235v-125h-239q-43 -473 -522 -473q-219 0 -346 125q-150 145 -150 442q0 213 49 398l162 30q-55 -206 -55 -413q0 -250 115 -366q91 -91 243 -91q352 0 352 426v885h156v-838z" />
    <glyph glyph-name="uniFBA0" unicode="&#x6bb;" horiz-adv-x="1333" arabic-form="isolated" 
d="M1144 88q0 -561 -526 -561q-219 0 -346 125q-150 145 -150 442q0 213 49 398l162 30q-55 -206 -55 -413q0 -250 115 -366q91 -91 243 -91q352 0 352 426v885h156v-875zM655 1115q-82 0 -155 -85q-70 -81 -76 -171h151q172 0 172 143q0 113 -92 113zM424 1172
q0 -66 -13 -131h2q93 164 256 164q189 0 189 -188q0 -244 -299 -244h-242v576h107v-177z" />
    <glyph glyph-name="uniFBA1" unicode="&#x6bb;" horiz-adv-x="1349" arabic-form="final" 
d="M1144 125h235v-125h-239q-43 -473 -522 -473q-219 0 -346 125q-150 145 -150 442q0 213 49 398l162 30q-55 -206 -55 -413q0 -250 115 -366q91 -91 243 -91q352 0 352 426v885h156v-838zM655 1115q-82 0 -155 -85q-70 -81 -76 -171h151q172 0 172 143q0 113 -92 113z
M424 1172q0 -66 -13 -131h2q93 164 256 164q189 0 189 -188q0 -244 -299 -244h-242v576h107v-177z" />
    <glyph glyph-name="uniFBA2" unicode="&#x6bb;" horiz-adv-x="765" arabic-form="initial" 
d="M467 1540q-82 0 -155 -85q-70 -81 -76 -171h151q172 0 172 143q0 113 -92 113zM236 1597q0 -66 -13 -131h2q93 164 256 164q189 0 189 -188q0 -244 -299 -244h-242v576h107v-177zM0 125h422v838h156v-963h-578v125z" />
    <glyph glyph-name="uniFBA3" unicode="&#x6bb;" horiz-adv-x="784" arabic-form="medial" 
d="M0 125h422v838h156v-838h237v-125h-815v125zM236 1597q0 -66 -13 -131h2q93 164 256 164q189 0 189 -188q0 -244 -299 -244h-242v576h107v-177zM467 1540q-82 0 -155 -85q-70 -81 -76 -171h151q172 0 172 143q0 113 -92 113z" />
    <glyph glyph-name="uniFBA4" unicode="&#x6c0;" horiz-adv-x="1216" arabic-form="isolated" 
d="M631 0q-535 0 -535 477q0 216 127 356q138 152 377 152q430 0 430 -455v-530h-399zM876 498q0 362 -291 362q-152 0 -241 -99q-88 -99 -88 -265q0 -191 93 -280q96 -91 306 -91h221v373zM315 1270q92 0 154 -10q-64 27 -64 104q0 81 57 133q65 62 191 62q51 0 105 -9
l-15 -100q-45 8 -100 8q-119 0 -119 -90q0 -98 166 -98h108v-101h-483v101z" />
    <glyph glyph-name="uniFBA5" unicode="&#x6c0;" horiz-adv-x="1214" arabic-form="final" 
d="M631 0q-535 0 -535 479q0 215 126 354q138 152 380 152q219 0 405 -72v-788h238v-125h-614zM854 809q-109 51 -269 51q-152 0 -241 -99q-88 -98 -88 -263q0 -192 93 -281q97 -92 306 -92h199v684zM315 1270q92 0 154 -10q-64 27 -64 104q0 81 57 133q65 62 191 62
q51 0 105 -9l-15 -100q-45 8 -100 8q-119 0 -119 -90q0 -98 166 -98h108v-101h-483v101z" />
    <glyph glyph-name="uniFBA6" unicode="&#x6c1;" horiz-adv-x="1216" arabic-form="isolated" 
d="M631 0q-535 0 -535 477q0 216 127 356q138 152 377 152q430 0 430 -455v-530h-399zM876 498q0 362 -291 362q-152 0 -241 -99q-88 -99 -88 -265q0 -191 93 -280q96 -91 306 -91h221v373z" />
    <glyph glyph-name="uniFBA7" unicode="&#x6c1;" horiz-adv-x="1134" arabic-form="final" 
d="M1165 0h-51q-429 0 -429 444v115q-292 -46 -469 -332l-106 84q261 391 680 391q22 0 47 -2v-225q0 -186 69 -269q68 -81 220 -81h39v-125z" />
    <glyph glyph-name="uniFBA8" unicode="&#x6c1;" horiz-adv-x="651" arabic-form="initial" 
d="M0 125h305v838h156v-963h-461v125zM152 -457q-27 31 -27 78q0 140 201 277l49 -58q-94 -78 -94 -149q0 -24 14 -49q14 -24 14 -45q0 -86 -86 -86q-43 0 -71 32z" />
    <glyph glyph-name="uniFBA9" unicode="&#x6c1;" horiz-adv-x="1433" arabic-form="medial" 
d="M1464 0h-272v-535h-154q-266 0 -416 143q-153 145 -153 408q0 116 16 228l-4 2q-94 -246 -358 -246h-123v125h145q144 0 233 121q89 120 89 307v205h154v-715q0 -455 417 -455v537h426v-125zM121 -501q-27 32 -27 81q0 136 176 289l58 -51q-84 -84 -84 -154q0 -26 18 -55
q19 -29 19 -55q0 -36 -24 -61q-25 -28 -62 -28q-46 0 -74 34z" />
    <glyph glyph-name="uniFBAA" unicode="&#x6be;" horiz-adv-x="1607" arabic-form="isolated" 
d="M40 0v125h262q24 0 52 -2l24 -2q-20 10 -48 50q-44 65 -44 148q0 157 103 248q101 88 269 88q359 0 359 -436v-94h276v47q0 400 -153 578q-149 172 -475 172q-212 0 -435 -70l-16 117q235 73 473 73q377 0 562 -199q196 -211 196 -663v-180h-1405zM874 209
q0 336 -226 336q-103 0 -161 -56q-56 -54 -56 -147q0 -110 73 -168q64 -51 171 -51h199v86z" />
    <glyph glyph-name="uniFBAB" unicode="&#x6be;" horiz-adv-x="1393" arabic-form="final" 
d="M1424 0h-278q-59 0 -145 6v-2q215 -66 215 -287q0 -175 -108 -274q-108 -98 -296 -98q-249 0 -385 176q-129 168 -143 479h-244v125h244q24 580 442 876q451 -258 451 -557q0 -251 -179 -321v-4q86 6 152 6h274v-125zM439 125h252q330 0 330 299q0 213 -287 393
q-285 -239 -295 -692zM441 0q31 -530 387 -530q112 0 173 65q59 62 59 172q0 128 -104 209q-108 84 -287 84h-228z" />
    <glyph glyph-name="uniFBAC" unicode="&#x6be;" horiz-adv-x="1566" arabic-form="initial" 
d="M0 0v125h262q24 0 52 -2l24 -2q-20 10 -48 50q-44 65 -44 148q0 157 103 248q101 88 269 88q359 0 359 -436v-94h276v47q0 400 -153 578q-149 172 -475 172q-212 0 -435 -70l-16 117q235 73 473 73q377 0 562 -199q196 -211 196 -663v-180h-1405zM834 209q0 336 -226 336
q-103 0 -161 -56q-56 -54 -56 -147q0 -110 73 -168q64 -51 171 -51h199v86z" />
    <glyph glyph-name="uniFBAD" unicode="&#x6be;" horiz-adv-x="1353" arabic-form="medial" 
d="M1384 0h-278q-59 0 -145 6v-2q215 -66 215 -287q0 -175 -108 -274q-108 -98 -296 -98q-249 0 -385 176q-129 168 -143 479h-244v125h244q24 580 442 876q451 -258 451 -557q0 -251 -179 -321v-4q86 6 152 6h274v-125zM399 125h252q330 0 330 299q0 213 -287 393
q-285 -239 -295 -692zM401 0q31 -530 387 -530q112 0 173 65q59 62 59 172q0 128 -104 209q-108 84 -287 84h-228z" />
    <glyph glyph-name="uniFBAE" unicode="&#x6d2;" horiz-adv-x="1536" arabic-form="isolated" 
d="M187 0q-30 371 154 672q192 313 483 313q320 0 320 -336v-137h-154v92q0 129 -40 188q-45 66 -150 66q-194 0 -334 -248q-127 -227 -127 -485h1091v-125h-1243z" />
    <glyph glyph-name="uniFBAF" unicode="&#x6d2;" horiz-adv-x="1593" arabic-form="final" 
d="M182 -655q-2 35 -2 69q0 278 169 474q205 237 574 237h721v-125h-741q-272 0 -432 -178q-138 -153 -138 -352h1092v-125h-1243z" />
    <glyph glyph-name="uniFBB0" unicode="&#x6d3;" horiz-adv-x="1536" arabic-form="isolated" 
d="M187 0q-30 371 154 672q192 313 483 313q320 0 320 -336v-137h-154v92q0 129 -40 188q-45 66 -150 66q-194 0 -334 -248q-127 -227 -127 -485h1091v-125h-1243zM429 1270q92 0 153 -10q-63 27 -63 104q0 81 56 133q66 62 192 62q51 0 104 -9l-14 -100q-45 8 -100 8
q-119 0 -119 -90q0 -98 166 -98h108v-101h-483v101z" />
    <glyph glyph-name="uniFBB1" unicode="&#x6d3;" horiz-adv-x="1593" arabic-form="final" 
d="M161 -655q-2 34 -2 66q0 280 170 477q205 237 574 237h721v-125h-742q-271 0 -432 -178q-137 -153 -137 -352h1092v-125h-1244zM98 516q92 0 154 -10q-64 27 -64 104q0 81 56 134q66 61 192 61q51 0 104 -8l-14 -101q-45 9 -100 9q-119 0 -119 -91q0 -98 166 -98h108
v-100h-483v100z" />
    <glyph glyph-name="uniFBD3" unicode="&#x6ad;" horiz-adv-x="1738" arabic-form="isolated" 
d="M645 934q92 0 153 -10q-63 27 -63 104q0 81 56 133q66 62 192 62q51 0 104 -9l-14 -100q-45 8 -100 8q-119 0 -119 -90q0 -98 166 -98h108v-100h-483v100zM841 0q-369 0 -539 148q-163 143 -163 444q0 197 70 348l168 31q-82 -164 -82 -359q0 -253 117 -364
q130 -123 450 -123h516v1319h156v-1444h-693zM1378 1848q-27 27 -27 69q0 40 27 68q28 28 67 28q40 0 68 -28q27 -28 27 -68t-27 -68q-28 -28 -68 -28t-67 27zM1521 1624q-28 28 -28 70q0 41 28 69q28 29 68 29q41 0 70 -29q28 -28 28 -69t-28 -70q-29 -29 -70 -29
q-40 0 -68 29zM1232 1624q-28 28 -28 70q0 41 28 69q29 29 70 29q40 0 69 -29q29 -28 29 -69q0 -40 -29 -70q-29 -29 -69 -29q-41 0 -70 29z" />
    <glyph glyph-name="uniFBD4" unicode="&#x6ad;" horiz-adv-x="1738" arabic-form="final" 
d="M841 0q-369 0 -539 148q-163 143 -163 444q0 197 70 348l168 31q-82 -164 -82 -359q0 -253 117 -364q130 -123 450 -123h516v1319h156v-1319h235v-125h-928zM645 934q92 0 153 -10q-63 27 -63 104q0 81 56 133q66 62 192 62q51 0 104 -9l-14 -100q-45 8 -100 8
q-119 0 -119 -90q0 -98 166 -98h108v-100h-483v100zM1378 1848q-27 27 -27 69q0 40 27 68q28 28 67 28q40 0 68 -28q27 -28 27 -68t-27 -68q-28 -28 -68 -28t-67 27zM1521 1624q-28 28 -28 70q0 41 28 69q28 29 68 29q41 0 70 -29q28 -28 28 -69t-28 -70q-29 -29 -70 -29
q-40 0 -68 29zM1232 1624q-28 28 -28 70q0 41 28 69q29 29 70 29q40 0 69 -29q29 -28 29 -69q0 -40 -29 -70q-29 -29 -69 -29q-41 0 -70 29z" />
    <glyph glyph-name="uniFBD5" unicode="&#x6ad;" horiz-adv-x="1001" arabic-form="initial" 
d="M0 125h678q-3 318 -138 494q-128 167 -413 253v117l764 479v-157l-580 -359q264 -108 386 -296q134 -208 134 -566v-90h-831v125zM309 1596q-27 27 -27 69q0 40 27 68q28 28 67 28q40 0 68 -28q27 -28 27 -68t-27 -68q-28 -28 -68 -28t-67 27zM452 1372q-28 28 -28 70
q0 41 28 69q28 29 68 29q41 0 70 -29q28 -28 28 -69t-28 -70q-29 -29 -70 -29q-40 0 -68 29zM163 1372q-28 28 -28 70q0 41 28 69q29 29 70 29q40 0 69 -29q29 -28 29 -69q0 -40 -29 -70q-29 -29 -69 -29q-41 0 -70 29z" />
    <glyph glyph-name="uniFBD6" unicode="&#x6ad;" horiz-adv-x="1001" arabic-form="medial" 
d="M0 125h678q-3 318 -138 494q-128 167 -413 253v117l764 479v-157l-580 -359q258 -107 379 -287q136 -200 141 -540h201v-125h-1032v125zM299 1596q-27 27 -27 69q0 40 27 68q28 28 67 28q40 0 68 -28q27 -28 27 -68t-27 -68q-28 -28 -68 -28t-67 27zM442 1372
q-28 28 -28 70q0 41 28 69q28 29 68 29q41 0 70 -29q28 -28 28 -69t-28 -70q-29 -29 -70 -29q-40 0 -68 29zM153 1372q-28 28 -28 70q0 41 28 69q29 29 70 29q40 0 69 -29q29 -28 29 -69q0 -40 -29 -70q-29 -29 -69 -29q-41 0 -70 29z" />
    <glyph glyph-name="uniFBD7" unicode="&#x6c7;" horiz-adv-x="1198" arabic-form="isolated" 
d="M106 -487l13 135q176 -43 329 -43q406 0 406 338v57h-223q-535 0 -535 479q0 215 126 354q138 152 380 152q219 0 405 -72v-966q0 -193 -126 -316q-151 -149 -451 -149q-160 0 -324 31zM854 809q-109 51 -269 51q-152 0 -241 -99q-88 -98 -88 -263q0 -192 93 -281
q97 -92 306 -92h199v684zM378 1215l162 34q-17 35 -17 76q0 76 53 122q51 46 130 46q65 0 106 -38t41 -99q0 -122 -180 -158l-279 -59zM661 1274q104 22 104 78q0 61 -68 61q-83 0 -83 -86q0 -37 14 -59z" />
    <glyph glyph-name="uniFBD8" unicode="&#x6c7;" horiz-adv-x="1239" arabic-form="final" 
d="M130 -487l13 135q176 -43 329 -43q406 0 406 338v57h-223q-535 0 -535 479q0 215 126 354q138 152 380 152q219 0 405 -72v-788h238v-125h-238v-53q0 -193 -126 -316q-151 -149 -451 -149q-160 0 -324 31zM878 809q-109 51 -269 51q-152 0 -241 -99q-88 -98 -88 -263
q0 -192 93 -281q97 -92 306 -92h199v684zM378 1215l162 34q-17 35 -17 76q0 76 53 122q51 46 130 46q65 0 106 -38t41 -99q0 -122 -180 -158l-279 -59zM661 1274q104 22 104 78q0 61 -68 61q-83 0 -83 -86q0 -37 14 -59z" />
    <glyph glyph-name="uniFBD9" unicode="&#x6c6;" horiz-adv-x="1198" arabic-form="isolated" 
d="M106 -487l13 135q176 -43 329 -43q406 0 406 338v57h-223q-535 0 -535 479q0 215 126 354q138 152 380 152q219 0 405 -72v-966q0 -193 -126 -316q-151 -149 -451 -149q-160 0 -324 31zM854 809q-109 51 -269 51q-152 0 -241 -99q-88 -98 -88 -263q0 -192 93 -281
q97 -92 306 -92h199v684zM609 1167l-235 228l64 66l175 -154l174 154l61 -65z" />
    <glyph glyph-name="uniFBDA" unicode="&#x6c6;" horiz-adv-x="1239" arabic-form="final" 
d="M130 -487l13 135q176 -43 329 -43q406 0 406 338v57h-223q-535 0 -535 479q0 215 126 354q138 152 380 152q219 0 405 -72v-788h238v-125h-238v-53q0 -193 -126 -316q-151 -149 -451 -149q-160 0 -324 31zM878 809q-109 51 -269 51q-152 0 -241 -99q-88 -98 -88 -263
q0 -192 93 -281q97 -92 306 -92h199v684zM609 1167l-235 228l64 66l175 -154l174 154l61 -65z" />
    <glyph glyph-name="uniFBDB" unicode="&#x6c8;" horiz-adv-x="1198" arabic-form="isolated" 
d="M106 -487l13 135q176 -43 329 -43q406 0 406 338v57h-223q-535 0 -535 479q0 215 126 354q138 152 380 152q219 0 405 -72v-966q0 -193 -126 -316q-151 -149 -451 -149q-160 0 -324 31zM854 809q-109 51 -269 51q-152 0 -241 -99q-88 -98 -88 -263q0 -192 93 -281
q97 -92 306 -92h199v684zM545 1156v465h119v-442z" />
    <glyph glyph-name="uniFBDC" unicode="&#x6c8;" horiz-adv-x="1239" arabic-form="final" 
d="M130 -487l13 135q176 -43 329 -43q406 0 406 338v57h-223q-535 0 -535 479q0 215 126 354q138 152 380 152q219 0 405 -72v-788h238v-125h-238v-53q0 -193 -126 -316q-151 -149 -451 -149q-160 0 -324 31zM878 809q-109 51 -269 51q-152 0 -241 -99q-88 -98 -88 -263
q0 -192 93 -281q97 -92 306 -92h199v684zM545 1156v465h119v-442z" />
    <glyph glyph-name="uniFBDD" unicode="&#x677;" horiz-adv-x="1198" arabic-form="isolated" 
d="M107 -487l12 135q176 -43 330 -43q405 0 405 338v57h-223q-535 0 -535 479q0 215 127 354q138 152 379 152q219 0 406 -72v-966q0 -193 -126 -316q-152 -149 -452 -149q-160 0 -323 31zM854 809q-108 51 -268 51q-153 0 -242 -99q-88 -98 -88 -263q0 -192 94 -281
q96 -92 305 -92h199v684zM622 1266q92 0 153 -11q-63 28 -63 105q0 81 56 133q66 61 192 61q51 0 104 -8l-14 -100q-45 8 -101 8q-118 0 -118 -90q0 -98 165 -98h109v-101h-483v101zM93 1252l162 34q-17 35 -17 76q0 76 53 122q51 46 130 46q65 0 106 -38t41 -99
q0 -122 -180 -158l-279 -59zM376 1311q104 22 104 78q0 61 -68 61q-83 0 -83 -86q0 -37 14 -59z" />
    <glyph glyph-name="uniFBDE" unicode="&#x6cb;" horiz-adv-x="1198" arabic-form="isolated" 
d="M106 -487l13 135q176 -43 329 -43q406 0 406 338v57h-223q-535 0 -535 479q0 215 126 354q138 152 380 152q219 0 405 -72v-966q0 -193 -126 -316q-151 -149 -451 -149q-160 0 -324 31zM854 809q-109 51 -269 51q-152 0 -241 -99q-88 -98 -88 -263q0 -192 93 -281
q97 -92 306 -92h199v684zM549 1416q-27 27 -27 69q0 40 27 68q28 28 67 28q40 0 68 -28q27 -28 27 -68t-27 -68q-28 -28 -68 -28t-67 27zM692 1192q-28 28 -28 70q0 41 28 69q28 29 68 29q41 0 70 -29q28 -28 28 -69t-28 -70q-29 -29 -70 -29q-40 0 -68 29zM403 1192
q-28 28 -28 70q0 41 28 69q29 29 70 29q40 0 69 -29q29 -28 29 -69q0 -40 -29 -70q-29 -29 -69 -29q-41 0 -70 29z" />
    <glyph glyph-name="uniFBDF" unicode="&#x6cb;" horiz-adv-x="1239" arabic-form="final" 
d="M130 -487l13 135q176 -43 329 -43q406 0 406 338v57h-223q-535 0 -535 479q0 215 126 354q138 152 380 152q219 0 405 -72v-788h238v-125h-238v-53q0 -193 -126 -316q-151 -149 -451 -149q-160 0 -324 31zM878 809q-109 51 -269 51q-152 0 -241 -99q-88 -98 -88 -263
q0 -192 93 -281q97 -92 306 -92h199v684zM549 1416q-27 27 -27 69q0 40 27 68q28 28 67 28q40 0 68 -28q27 -28 27 -68t-27 -68q-28 -28 -68 -28t-67 27zM692 1192q-28 28 -28 70q0 41 28 69q28 29 68 29q41 0 70 -29q28 -28 28 -69t-28 -70q-29 -29 -70 -29q-40 0 -68 29z
M403 1192q-28 28 -28 70q0 41 28 69q29 29 70 29q40 0 69 -29q29 -28 29 -69q0 -40 -29 -70q-29 -29 -69 -29q-41 0 -70 29z" />
    <glyph glyph-name="uniFBE0" unicode="&#x6c5;" horiz-adv-x="1198" arabic-form="isolated" 
d="M854 809q-109 51 -269 51q-152 0 -241 -99q-88 -98 -88 -263q0 -192 93 -281q97 -92 306 -92h199v684zM849 -130q5 34 5 73v57h-223q-535 0 -535 479q0 215 126 354q138 152 380 152q219 0 405 -72v-966q0 -193 -126 -316q-151 -149 -451 -149q-160 0 -324 31l13 135
q176 -43 329 -43q273 0 363 153h-459v112h497z" />
    <glyph glyph-name="uniFBE1" unicode="&#x6c5;" horiz-adv-x="1239" arabic-form="final" 
d="M878 809q-109 51 -269 51q-152 0 -241 -99q-88 -98 -88 -263q0 -192 93 -281q97 -92 306 -92h199v684zM873 -130q5 34 5 73v57h-223q-535 0 -535 479q0 215 126 354q138 152 380 152q219 0 405 -72v-788h238v-125h-238v-53q0 -193 -126 -316q-151 -149 -451 -149
q-160 0 -324 31l13 135q176 -43 329 -43q273 0 363 153h-483v112h521z" />
    <glyph glyph-name="uniFBE2" unicode="&#x6c9;" horiz-adv-x="1198" arabic-form="isolated" 
d="M106 -487l13 135q176 -43 329 -43q406 0 406 338v57h-223q-535 0 -535 479q0 215 126 354q138 152 380 152q219 0 405 -72v-966q0 -193 -126 -316q-151 -149 -451 -149q-160 0 -324 31zM854 809q-109 51 -269 51q-152 0 -241 -99q-88 -98 -88 -263q0 -192 93 -281
q97 -92 306 -92h199v684zM848 1232l-61 -65l-174 154l-175 -154l-64 66l235 228z" />
    <glyph glyph-name="uniFBE3" unicode="&#x6c9;" horiz-adv-x="1239" arabic-form="final" 
d="M130 -487l13 135q176 -43 329 -43q406 0 406 338v57h-223q-535 0 -535 479q0 215 126 354q138 152 380 152q219 0 405 -72v-788h238v-125h-238v-53q0 -193 -126 -316q-151 -149 -451 -149q-160 0 -324 31zM878 809q-109 51 -269 51q-152 0 -241 -99q-88 -98 -88 -263
q0 -192 93 -281q97 -92 306 -92h199v684zM848 1232l-61 -65l-174 154l-175 -154l-64 66l235 228z" />
    <glyph glyph-name="uniFBE4" unicode="&#x6d0;" horiz-adv-x="2048" arabic-form="isolated" 
d="M841 0q-369 0 -539 148q-163 143 -163 444q0 197 70 348l168 31q-82 -164 -82 -359q0 -253 117 -364q130 -123 450 -123h190v821q172 39 357 39q242 0 352 -118q100 -108 100 -328v-293h-153v268q0 185 -75 266q-74 80 -241 80q-92 0 -186 -20v-840h-365zM810 -212
q40 0 67 -27t27 -67q0 -38 -28 -66t-66 -28q-41 0 -69 28q-28 27 -28 66q0 40 29 67q28 27 68 27zM810 -497q40 0 67 -27t27 -67q0 -38 -28 -66t-66 -28q-41 0 -69 28q-28 27 -28 66q0 40 29 67q28 27 68 27z" />
    <glyph glyph-name="uniFBE5" unicode="&#x6d0;" horiz-adv-x="2048" arabic-form="final" 
d="M841 0q-369 0 -539 148q-163 143 -163 444q0 197 70 348l168 31q-82 -164 -82 -359q0 -253 117 -364q130 -123 450 -123h190v821q172 39 357 39q242 0 352 -118q100 -108 100 -328v-414h217v-125h-370v514q0 185 -75 266q-74 80 -241 80q-92 0 -186 -20v-840h-365z
M810 -212q40 0 67 -27t27 -67q0 -38 -28 -66t-66 -28q-41 0 -69 28q-28 27 -28 66q0 40 29 67q28 27 68 27zM810 -497q40 0 67 -27t27 -67q0 -38 -28 -66t-66 -28q-41 0 -69 28q-28 27 -28 66q0 40 29 67q28 27 68 27z" />
    <glyph glyph-name="uniFBE6" unicode="&#x6d0;" horiz-adv-x="765" arabic-form="initial" 
d="M0 125h422v838h156v-963h-578v125zM360 -137q40 0 67 -27t27 -67q0 -38 -28 -66t-66 -28q-41 0 -69 28q-28 27 -28 66q0 40 29 67q28 27 68 27zM360 -422q40 0 67 -27t27 -67q0 -38 -28 -66t-66 -28q-41 0 -69 28q-28 27 -28 66q0 40 29 67q28 27 68 27z" />
    <glyph glyph-name="uniFBE7" unicode="&#x6d0;" horiz-adv-x="784" arabic-form="medial" 
d="M0 125h422v838h156v-838h237v-125h-815v125zM360 -137q40 0 67 -27t27 -67q0 -38 -28 -66t-66 -28q-41 0 -69 28q-28 27 -28 66q0 40 29 67q28 27 68 27zM360 -422q40 0 67 -27t27 -67q0 -38 -28 -66t-66 -28q-41 0 -69 28q-28 27 -28 66q0 40 29 67q28 27 68 27z" />
    <glyph glyph-name="uniFBE8" unicode="&#x649;" horiz-adv-x="765" arabic-form="initial" 
d="M0 125h422v838h156v-963h-578v125z" />
    <glyph glyph-name="uniFBE9" unicode="&#x649;" horiz-adv-x="763" arabic-form="medial" 
d="M0 125h305v838h156v-838h332v-125h-793v125z" />
    <glyph glyph-name="uniFBFC" unicode="&#x6cc;" horiz-adv-x="2048" arabic-form="isolated" 
d="M841 0q-369 0 -539 148q-163 143 -163 444q0 197 70 348l168 31q-82 -164 -82 -359q0 -253 117 -364q130 -123 450 -123h190v821q172 39 357 39q242 0 352 -118q100 -108 100 -328v-293h-153v268q0 185 -75 266q-74 80 -241 80q-92 0 -186 -20v-840h-365z" />
    <glyph glyph-name="uniFBFD" unicode="&#x6cc;" horiz-adv-x="2048" arabic-form="final" 
d="M841 0q-369 0 -539 148q-163 143 -163 444q0 197 70 348l168 31q-82 -164 -82 -359q0 -253 117 -364q130 -123 450 -123h190v821q172 39 357 39q242 0 352 -118q100 -108 100 -328v-414h217v-125h-370v514q0 185 -75 266q-74 80 -241 80q-92 0 -186 -20v-840h-365z" />
    <glyph glyph-name="uniFBFE" unicode="&#x6cc;" horiz-adv-x="765" arabic-form="initial" 
d="M0 125h422v838h156v-963h-578v125zM530 -375q-29 -28 -69 -28q-41 0 -69 27q-30 29 -30 71q0 40 30 69q29 29 69 29t69 -28q29 -29 29 -70t-29 -70zM242 -375q-28 -28 -70 -28q-40 0 -68 27q-28 28 -28 71q0 40 28 69t68 29q42 0 70 -28q28 -29 28 -70q0 -42 -28 -70z
" />
    <glyph glyph-name="uniFBFF" unicode="&#x6cc;" horiz-adv-x="763" arabic-form="medial" 
d="M0 125h305v838h156v-838h332v-125h-793v125zM530 -375q-29 -28 -69 -28q-41 0 -69 27q-30 29 -30 71q0 40 30 69q29 29 69 29t69 -28q29 -29 29 -70t-29 -70zM242 -375q-28 -28 -70 -28q-40 0 -68 27q-28 28 -28 71q0 40 28 69t68 29q42 0 70 -28q28 -29 28 -70
q0 -42 -28 -70z" />
    <glyph glyph-name="uniFC5E" unicode="&#xfc5e;" horiz-adv-x="0" arabic-form="isolated" 
d="M-79 2052l82 19l37 -172l112 22q-12 37 -12 72q0 75 52 125q52 49 130 49q136 0 136 -127q0 -137 -152 -166l-334 -67zM283 1948q91 16 91 88q0 53 -62 53q-88 0 -88 -90q0 -33 12 -61zM144 1530q-84 0 -106 113l-15 71l76 17l15 -72q11 -51 49 -51q52 0 52 50
q0 11 -3 24l-10 71l73 17l15 -74q11 -57 53 -57q54 0 54 60q0 13 -3 30l-14 73l78 15l14 -74q5 -24 5 -46q0 -49 -26 -84q-37 -52 -118 -52q-48 0 -76 35q-30 -66 -113 -66z" />
    <glyph glyph-name="uniFC5F" unicode="&#xfc5f;" horiz-adv-x="0" arabic-form="isolated" 
d="M69 1744l412 66l14 -76l-413 -66zM90 1601l414 63l12 -76l-412 -63zM129 1844q-86 0 -107 113l-14 74l76 14l14 -72q11 -51 49 -51q52 0 52 50q0 11 -3 24l-10 72l74 14l14 -72q12 -57 53 -57q53 3 53 67q0 11 -1 23l-13 72l78 14l13 -74q4 -23 4 -43q0 -51 -25 -85
q-37 -50 -117 -52q-51 0 -78 35q-32 -66 -112 -66z" />
    <glyph glyph-name="uniFC60" unicode="&#xfc60;" horiz-adv-x="0" arabic-form="isolated" 
d="M0 1944l410 63l12 -76l-410 -63zM147 1542q-86 0 -106 113l-14 74l75 14l15 -70q11 -53 49 -53q52 0 52 51q0 11 -3 25l-10 71l76 15l14 -74q9 -57 51 -57q53 2 53 65q0 12 -2 25l-12 74l78 12l12 -72q5 -27 5 -51q0 -126 -142 -131q-49 0 -78 35q-29 -66 -113 -66z" />
    <glyph glyph-name="uniFC61" unicode="&#xfc61;" horiz-adv-x="0" arabic-form="isolated" 
d="M144 1540q-84 0 -107 113l-14 71l76 17l14 -72q11 -51 49 -51q52 0 52 50q0 11 -3 24l-10 71l74 17l14 -74q12 -57 53 -57q55 0 55 60q0 14 -3 30l-15 73l78 15l14 -74q5 -25 5 -46q0 -49 -25 -84q-38 -52 -119 -52q-47 0 -76 35q-29 -66 -112 -66zM-16 1901l160 34
q-17 33 -17 76q0 76 52 121q50 45 129 45q65 0 106 -38q41 -37 41 -97q0 -122 -180 -158l-273 -59zM263 1960q104 20 104 76q0 63 -66 63q-84 0 -84 -86q0 -37 15 -59z" />
    <glyph glyph-name="uniFC62" unicode="&#xfc62;" horiz-adv-x="0" arabic-form="isolated" 
d="M57 1618l414 61l12 -75l-411 -62zM125 1722q-88 0 -109 113l-14 74l78 14l12 -72q11 -51 49 -51q52 0 52 50q0 11 -3 24l-10 72l76 14l14 -72q12 -57 51 -57q54 2 54 62q0 13 -2 28l-13 72l78 14l13 -74q4 -23 4 -44q0 -49 -25 -84q-37 -50 -117 -52q-51 0 -78 35
q-29 -66 -110 -66z" />
    <glyph glyph-name="uniFC63" unicode="&#xfc63;" horiz-adv-x="0" arabic-form="isolated" 
d="M123 1509q-86 0 -109 111l-14 72l76 14l14 -70q11 -51 51 -51q51 0 51 53q0 10 -2 21l-12 70l76 14l14 -70q12 -57 51 -57q54 2 54 61q0 12 -2 27l-13 72l78 14l13 -72q5 -23 5 -44q0 -47 -25 -81q-37 -48 -116 -51h-7q-43 0 -73 33q-29 -62 -110 -66zM166 1815v245h80
v-225z" />
    <glyph glyph-name="uniFDF2" unicode="&#xfdf2;" horiz-adv-x="3061" arabic-form="isolated" 
d="M631 0q-535 0 -535 479q0 215 126 354q138 152 380 152q219 0 405 -72v-788h506v1161h156v-1161h502v1319h155v-1444h-1695zM854 809q-109 51 -269 51q-152 0 -241 -99q-88 -98 -88 -263q0 -192 93 -281q97 -92 306 -92h199v684zM1479 1411q-86 0 -109 111l-14 72l76 14
l14 -70q11 -51 51 -51q51 0 51 53q0 10 -2 21l-12 70l76 14l14 -70q12 -57 51 -57q54 2 54 61q0 12 -2 27l-13 72l78 14l13 -72q5 -23 5 -44q0 -47 -25 -81q-37 -48 -116 -51h-7q-43 0 -73 33q-29 -62 -110 -66zM1522 1717v245h80v-225zM2702 1444h156v-1444h-156v1444z" />
    <glyph glyph-name="uniFDFA" unicode="&#xfdfa;" horiz-adv-x="2164" arabic-form="isolated" 
d="M2082 1085q0 -29 -31.5 -79t-64.5 -64q-94 -43 -238 -43q-47 0 -98 4q-49 -97 -78 -97q-8 0 -8 13q0 30 45 96q-86 33 -98 53q-80 -53 -103 -53q15 -287 51.5 -360.5t172.5 -81.5l4 4q-43 32 -43 88q0 69 65 155q49 66 125 66q60 0 109 -35q49 -33 49 -63q-51 18 -107 18
q-73 0 -133 -29q-53 -28 -53 -55q0 -29 51 -80t90 -59q37 4 139.5 36.5t137.5 51.5l-35 -76q-207 -108 -391 -108q-197 0 -244 149q-61 -133 -117 -133q-53 0 -137 90q-131 -115 -403 -115q-82 0 -144 11q8 -68 19 -107q18 -74 47 -102q90 -90 360 -90q234 0 338 65
q31 76 58 76q8 0 8 -16q0 -29 -25 -91q12 -26 55 -26q54 0 101 24q43 136 67 136q9 0 9 -23q0 -37 -21 -88q64 -27 90 -27q15 0 17 7q2 6 -17 79l35 74q25 -74 25 -106q0 -138 -91 -138q-47 0 -98 39q-31 -53 -121 -53q-98 0 -98 53q-39 -28 -131 -49q-104 -22 -248 -22
q-198 0 -293 57q-118 72 -123 258l-45 -66q-34 -51 -53 -53q25 -43 25 -84q0 -51 -33 -86q-16 -16 -43 -16q-41 0 -125 47q-27 -64 -86 -96q-14 -8 -48 -9.5t-44 -5.5l-23 -8q-12 0 -12 10q0 11 49 31q62 25 80 39l70 53q-21 37 -21 82q0 43 37 85t70 42q6 0 12 -4
q37 -20 59 -20q37 0 74 47l47 86q-78 24 -112 55q-62 55 -80 174h-4q-60 -102 -162 -102q-41 0 -80 16q-33 14 -33 25q0 51 88 118q84 64 174 91l-4 34l41 68q17 -221 44.5 -287.5t113.5 -93.5l-27 270l39 88l35 -368q108 -12 195 -12q213 0 362 81q27 78 39 78q8 0 8 -18
q0 -19 -8 -51q74 -72 121 -72q53 0 86 88l-27 330q-151 -6 -180 151h-4q-17 -61 -29 -86q-22 -51 -55 -61l4 -4q143 10 143 -80q0 -60 -51 -94q-174 -121 -328 -121q-94 0 -151 48t-57 134q0 64 32 137q-57 17 -78 88h-4q-30 -104 -112 -104q-101 0 -97 158l-55 -50
q-16 -14 -80 -14q-100 0 -100 37q0 20 27.5 64.5t50.5 54.5l155 76v20l35 74l8 -246q5 -86 66 -86q31 0 60.5 21.5t33.5 46.5l-33 233l37 80l58 -330q18 -43 67 -43q47 0 47 27q0 41 -32 151q-21 66 -41 133l26 68q82 -258 82 -321q0 -41 -20 -91q-23 -57 -52 -57
q-10 0 -18 6q-14 -43 -14 -80q0 -153 186 -153q145 0 291 98q4 4 4 6q0 12 -78 25q-117 18 -125 20q-24 19 27 82q123 51 131 109q2 10 2 28q0 199 -41 473l35 115q49 -434 78 -524q37 -117 147 -135l-10 196l43 92l16 -286q60 20 123 73q51 -36 62 -43q38 -24 79 -30
q43 47 134 112q104 78 143 78q37 0 84 -28q53 -31 53 -68zM2064 194q0 -100 -80 -221q-86 -131 -182 -131q-45 0 -121 32.5t-76 47.5q0 8 10 8q8 0 55.5 -15.5t71.5 -15.5q139 -4 287 217l-14 45q-37 -53 -76 -53q-29 0 -50.5 26.5t-23.5 57.5q-2 47 32 110.5t56 63.5
q27 0 66 -49q45 -55 45 -123zM1986 1499q-72 -25 -238 -105q-196 -96 -196 -125q0 -24 53 -51l-18 -49q-68 22 -68 82q0 61 53 90q260 149 432 209zM974 1105q-6 -135 -26 -149l-52 496l45 116zM1232 266l-53 -64l-98 72l-58 -74l-102 74l59 72l97 -72l55 68zM2025 1050
q0 14 -36 32.5t-54 18.5q-43 0 -123 -49q-64 -39 -96 -69q12 -2 41 -2q83 0 167 16q101 20 101 53zM1294 -58q0 -47 -4 -61q-13 -27 -52 -27q-18 0 -28 8q-31 -32 -62 -32q-16 0 -33.5 17t-25.5 17q-17 0 -76 -35.5t-143 -35.5q-90 0 -90 16q0 14 65 14q72 0 94 5
q29 6 72 32q61 39 82 39q16 0 38.5 -16.5t26.5 -16.5q31 0 37 35q4 27 23 27q8 0 8 -12q0 -9 -2 -19q4 -8 23 -12q24 0 24 24q0 33 23 33zM1668 1634l-12 -45l-399 -197l8 51zM345 729q-180 -72 -180 -107q0 -20 64 -20q67 0 121 49zM663 1552q0 -66 -43 -66q-27 0 -43 17
q-37 -31 -62 -31q-43 0 -43 55q0 41 7 56l12 12q-4 -76 35 -76q22 0 39 33l-5 47l19 29l8 -62q4 -33 31 -33q26 0 22 31l-6 45l15 21q14 -39 14 -78zM386 1187q-41 -18 -84 -34q-67 -31 -69 -50q-2 -22 51 -22q57 0 104 27zM438 112q-9 41 -50 70q-36 28 -69 28
q-29 0 -29 -24q0 -27 53 -55q50 -31 80 -31q17 0 15 12zM2004 210q-12 66 -53 66q-31 0 -41 -51q8 -37 64 -37q26 0 30 22z" />
    <glyph glyph-name="uniFDFB" unicode="&#xfdfb;" horiz-adv-x="2277" arabic-form="isolated" 
d="M2068 536q-15 0 -51.5 7t-75.5 7q-26 0 -58.5 -11.5t-66.5 -28.5q67 -30 135 -53t120 -23l-58 -113q-17 0 -53 7.5t-74 7.5q-36 0 -85 -23.5t-101.5 -55.5t-99.5 -65t-79 -51q-67 -42 -126.5 -69t-138.5 -27q-54 0 -83 20.5t-39 40.5q-10 16 -15 32.5t-11 37.5h-7
q-7 -17 -14 -40t-17 -39q-30 -20 -75 -44.5t-106.5 -45.5t-143.5 -35.5t-189 -14.5q-80 0 -130.5 23.5t-81.5 58t-42 77t-11 76.5q0 90 25 152t58 114l23 -10q-11 -26 -16.5 -47t-10 -41t-6 -40t-1.5 -47q0 -41 15.5 -77.5t45 -63t70 -41t89.5 -14.5q101 0 181.5 13.5
t141 32.5t103 41t63.5 41l-16 242q-26 -40 -49.5 -73.5t-44.5 -55.5q-49 -55 -103 -86t-113 -40q-41 -6 -90.5 -9t-95.5 -7l-4 15q45 17 99.5 41.5t100.5 53.5q25 14 57 38.5t66 51t63.5 54.5t51.5 58q-15 63 -43.5 143.5t-72.5 169.5l15 -194l-44 -163h-258q-34 0 -59.5 15
t-39.5 32q-17 25 -24 67.5t-14 87.5h-11l-57 -81q-84 9 -154 31q-50 17 -66 29.5t-16 33.5q0 10 9 33t22.5 45.5t26.5 44.5t22 31q10 12 46 30t86 42l72 33l-1 62l65 105l14 -160q0 -28 4 -67.5t7 -82.5t7 -81t7 -63q5 -24 11.5 -37t13.5 -20q15 -11 32 -15t42 -7h200
l-36 386q-37 61 -84.5 121t-102.5 113l-7 -48q-40 22 -67.5 41t-48 36.5t-30 35.5t-9.5 40q0 35 8 71.5t11 50.5q36 -19 77 -55t83 -80.5t84 -92t75 -95.5l-33 403q-19 19 -25.5 32t-6.5 24l83 105h6q0 -16 2 -29t11.5 -29.5t31.5 -36t60 -48.5l-79 -104l30 -442
q36 -69 62.5 -136t44.5 -125t28.5 -103t16.5 -69q7 9 12.5 18t12.5 19l-76 1016l74 126q2 -32 7 -102.5t10 -162t11 -198.5t13 -216t11.5 -211t9.5 -183q24 50 41 103t24 83q4 21 6 39.5t5 38.5l-32 678l65 113l58 -1136q2 -16 6 -38t13.5 -42.5t27.5 -36.5t49 -16
q56 0 100 13.5t98 34.5q12 4 24 9.5t26 12.5q-49 21 -90.5 33t-72.5 12q-20 0 -33 -8t-23 -21q-4 -5 -8 -10.5t-9 -10.5l-22 13q15 37 27 65t25.5 45.5t31 26t46.5 8.5q14 0 43 -7.5t62.5 -20.5t70.5 -29t70 -31q42 23 74.5 41.5t53.5 26.5q-36 11 -83.5 34t-97 46.5
t-96.5 38t-77 14.5q-20 0 -34.5 -9t-21.5 -20q-7 -7 -10.5 -12t-5.5 -9l-25 12q16 38 28.5 65.5t26 46.5t30.5 27t46 8q19 0 54.5 -12t78.5 -30t86 -39t78 -35q35 -16 74 -32t76 -28t72.5 -21t64.5 -9zM1130 326q5 -31 13 -60.5t24.5 -52t42.5 -36t58 -13.5q67 0 115 14
t103 44q31 14 78 41.5t94 54t88.5 49.5t62.5 31q-25 9 -52.5 20.5t-57.5 25.5q-29 -18 -54.5 -34t-47.5 -29q-35 -16 -64.5 -33.5t-61.5 -28.5t-66 -18t-76 -7q-27 0 -45 7t-29.5 18t-17.5 22t-12 21q-6 14 -15 66t-15 164q-4 30 -5.5 59.5t-2.5 51.5h-10l-11 -33
q-10 -29 -24 -70t-31 -77q4 -29 5 -54t3 -32zM1837 1182l-477 -202l38 84l477 205zM1566 1463q0 -19 -2 -37t-6 -30q8 -5 17.5 -9.5t22.5 -4.5q32 0 49.5 33.5t21.5 74.5l32 17q0 -34 -3.5 -68.5t-13 -63.5t-33 -49t-63.5 -20q-21 0 -35.5 9t-22.5 17q-5 -11 -13.5 -24.5
t-20 -25.5t-27.5 -19t-38 -7q-21 0 -35.5 14.5t-14.5 64.5q0 14 2.5 28t6.5 29t8.5 27.5t9.5 17.5l17 -10q0 -9 -4 -24.5t-4 -25.5q0 -17 7 -27t29 -10q18 0 32 13t23.5 32t16.5 41.5t13 36.5h28zM453 688l-14 189q-13 -16 -21 -34t-21 -25q-7 -5 -31.5 -16.5t-52 -23
l-55 -23t-40.5 -18.5l-9 -14q53 -19 106 -28.5t119 -20.5zM1965 997q-52 -18 -117 -45t-129 -53l37 84q63 27 125.5 53t119.5 47zM1532 -112l-104 64l68 89l102 -67zM1797 -3l-103 63l67 88l103 -63z" />
    <glyph glyph-name="uniFDFC" unicode="&#xfdfc;" horiz-adv-x="3187" arabic-form="isolated" 
d="M954 1444h156v-1335q0 -298 -141 -448q-126 -134 -346 -134q-219 0 -346 125q-148 145 -148 442q0 213 49 398l162 30q-55 -206 -55 -413q0 -457 354 -457q315 0 315 440v1352zM1482 0v1444h156v-1319h594v838h156v-963h-906zM1892 -375q-28 -28 -70 -28q-40 0 -68 27
q-28 28 -28 71q0 40 28 69t68 29q42 0 70 -28q28 -29 28 -70q0 -42 -28 -70zM2180 -375q-29 -28 -69 -28q-41 0 -69 27q-30 29 -30 71q0 40 30 69q29 29 69 29t69 -28q29 -29 29 -70t-29 -70zM2306 -496l23 131q112 -41 221 -41q145 0 214 82q79 90 79 297v990h157v-973
q0 -518 -463 -518q-114 0 -231 32z" />
    <glyph glyph-name="uniFE80" unicode="&#x621;" horiz-adv-x="1071" arabic-form="isolated" 
d="M108 123q164 0 266 -10q-121 47 -121 192q0 126 89 209q103 96 298 96q92 0 170 -14l-18 -125q-98 16 -172 16q-211 0 -211 -172q0 -192 295 -192h184v-123h-780v123z" />
    <glyph glyph-name="uniFE81" unicode="&#x622;" horiz-adv-x="561" arabic-form="isolated" 
d="M204 1444h155v-1444h-155v1444zM-40 1718l168 127q86 -86 192 -86q125 0 218 92v-133q-98 -78 -226 -78q-119 0 -184 66l-102 -74z" />
    <glyph glyph-name="uniFE82" unicode="&#x622;" horiz-adv-x="561" arabic-form="final" 
d="M204 1444h155v-1319h234v-125h-389v1444zM-40 1718l168 127q86 -86 192 -86q125 0 218 92v-133q-98 -78 -226 -78q-119 0 -184 66l-102 -74z" />
    <glyph glyph-name="uniFE83" unicode="&#x623;" horiz-adv-x="561" arabic-form="isolated" 
d="M202 1382h156v-1382h-156v1382zM16 1593q106 0 156 -8q-66 28 -66 107q0 76 56 128q67 60 192 60q59 0 106 -10l-16 -94q-90 8 -100 8q-121 0 -121 -90q0 -101 168 -101h108v-96h-483v96z" />
    <glyph glyph-name="uniFE84" unicode="&#x623;" horiz-adv-x="561" arabic-form="final" 
d="M202 1382h156v-1257h233v-125h-389v1382zM16 1593q106 0 156 -8q-66 28 -66 107q0 76 56 128q67 60 192 60q59 0 106 -10l-16 -94q-90 8 -100 8q-121 0 -121 -90q0 -101 168 -101h108v-96h-483v96z" />
    <glyph glyph-name="uniFE85" unicode="&#x624;" horiz-adv-x="1198" arabic-form="isolated" 
d="M106 -487l13 135q176 -43 329 -43q406 0 406 338v57h-223q-535 0 -535 479q0 215 126 354q138 152 380 152q219 0 405 -72v-966q0 -193 -126 -316q-151 -149 -451 -149q-160 0 -324 31zM854 809q-109 51 -269 51q-152 0 -241 -99q-88 -98 -88 -263q0 -192 93 -281
q97 -92 306 -92h199v684zM321 1266q92 0 154 -11q-64 28 -64 105q0 81 57 133q66 61 191 61q51 0 105 -8l-15 -100q-45 8 -100 8q-119 0 -119 -90q0 -98 166 -98h109v-101h-484v101z" />
    <glyph glyph-name="uniFE86" unicode="&#x624;" horiz-adv-x="1214" arabic-form="final" 
d="M106 -487l13 135q176 -43 329 -43q406 0 406 338v57h-223q-535 0 -535 479q0 215 126 354q138 152 380 152q219 0 405 -72v-788h238v-125h-238v-53q0 -193 -126 -316q-151 -149 -451 -149q-160 0 -324 31zM854 809q-109 51 -269 51q-152 0 -241 -99q-88 -98 -88 -263
q0 -192 93 -281q97 -92 306 -92h199v684zM325 1266q93 0 154 -11q-64 28 -64 105q0 81 57 133q66 61 191 61q51 0 105 -8l-15 -100q-45 8 -100 8q-119 0 -119 -90q0 -98 166 -98h109v-101h-484v101z" />
    <glyph glyph-name="uniFE87" unicode="&#x625;" horiz-adv-x="561" arabic-form="isolated" 
d="M202 1444h156v-1444h-156v1444zM26 -408q83 0 129 -8q-43 25 -43 84q0 72 56 118q61 50 165 50q58 0 109 -10l-17 -98q-57 12 -96 12q-100 0 -100 -72q0 -76 139 -76h121v-98h-463v98z" />
    <glyph glyph-name="uniFE88" unicode="&#x625;" horiz-adv-x="561" arabic-form="final" 
d="M202 1444h156v-1319h233v-125h-389v1444zM20 -408q83 0 129 -8q-43 25 -43 84q0 72 56 118q61 50 165 50q58 0 109 -10l-17 -98q-57 12 -96 12q-100 0 -100 -72q0 -76 139 -76h121v-98h-463v98z" />
    <glyph glyph-name="uniFE89" unicode="&#x626;" horiz-adv-x="2048" arabic-form="isolated" 
d="M841 0q-369 0 -539 148q-163 143 -163 444q0 197 70 348l168 31q-82 -164 -82 -359q0 -253 117 -364q130 -123 450 -123h190v821q172 39 357 39q242 0 352 -118q100 -108 100 -328v-293h-153v268q0 185 -75 266q-74 80 -241 80q-92 0 -186 -20v-840h-365zM98 1268
q92 0 154 -11q-64 28 -64 105q0 81 56 133q66 61 192 61q51 0 104 -8l-14 -100q-45 8 -100 8q-119 0 -119 -90q0 -98 166 -98h108v-101h-483v101z" />
    <glyph glyph-name="uniFE8A" unicode="&#x626;" horiz-adv-x="2048" arabic-form="final" 
d="M98 1268q92 0 154 -11q-64 28 -64 105q0 81 56 133q66 61 192 61q51 0 104 -8l-14 -100q-45 8 -100 8q-119 0 -119 -90q0 -98 166 -98h108v-101h-483v101zM841 0q-369 0 -539 148q-163 143 -163 444q0 197 70 348l168 31q-82 -164 -82 -359q0 -253 117 -364
q130 -123 450 -123h190v821q172 39 357 39q242 0 352 -118q100 -108 100 -328v-414h217v-125h-370v514q0 185 -75 266q-74 80 -241 80q-92 0 -186 -20v-840h-365z" />
    <glyph glyph-name="uniFE8B" unicode="&#x626;" horiz-adv-x="651" arabic-form="initial" 
d="M92 1260q92 0 154 -11q-64 27 -64 105q0 81 57 133q65 61 191 61q51 0 105 -8l-15 -100q-45 8 -100 8q-119 0 -119 -90q0 -98 166 -98h108v-101h-483v101zM0 125h305v838h156v-963h-461v125z" />
    <glyph glyph-name="uniFE8C" unicode="&#x626;" horiz-adv-x="667" arabic-form="medial" 
d="M0 125h305v838h156v-838h237v-125h-698v125zM92 1268q92 0 154 -11q-64 28 -64 105q0 81 57 133q65 61 191 61q51 0 105 -8l-15 -100q-45 8 -100 8q-119 0 -119 -90q0 -98 166 -98h108v-101h-483v101z" />
    <glyph glyph-name="uniFE8D" unicode="&#x627;" horiz-adv-x="561" arabic-form="isolated" 
d="M202 1444h156v-1444h-156v1444z" />
    <glyph glyph-name="uniFE8E" unicode="&#x627;" horiz-adv-x="561" arabic-form="final" 
d="M202 1444h156v-1319h233v-125h-389v1444z" />
    <glyph glyph-name="uniFE8F" unicode="&#x628;" horiz-adv-x="1583" arabic-form="isolated" 
d="M841 0q-369 0 -539 148q-163 143 -163 444q0 197 70 348l168 31q-82 -164 -82 -359q0 -253 117 -364q130 -123 450 -123h375v838h157v-963h-553zM735 -378q-29 28 -29 71q0 41 29 70q28 28 70 28q41 0 69 -28q29 -28 29 -70t-29 -70q-28 -29 -69 -29q-42 0 -70 28z" />
    <glyph glyph-name="uniFE90" unicode="&#x628;" horiz-adv-x="1599" arabic-form="final" 
d="M841 0q-369 0 -539 148q-163 143 -163 444q0 197 70 348l168 31q-82 -164 -82 -359q0 -253 117 -364q130 -123 450 -123h375v838h157v-838h236v-125h-789zM735 -378q-29 28 -29 71q0 41 29 70q28 28 70 28q41 0 69 -28q29 -28 29 -70t-29 -70q-28 -29 -69 -29
q-42 0 -70 28z" />
    <glyph glyph-name="uniFE91" unicode="&#x628;" horiz-adv-x="651" arabic-form="initial" 
d="M0 125h305v838h156v-963h-461v125zM182 -378q-28 28 -28 71q0 41 28 70q28 28 70 28t70 -28t28 -70t-28 -70q-29 -29 -70 -29q-42 0 -70 28z" />
    <glyph glyph-name="uniFE92" unicode="&#x628;" horiz-adv-x="667" arabic-form="medial" 
d="M0 125h305v838h156v-838h237v-125h-698v125zM182 -378q-28 28 -28 71q0 41 28 70q28 28 70 28t70 -28t28 -70t-28 -70q-29 -29 -70 -29q-42 0 -70 28z" />
    <glyph glyph-name="uniFE93" unicode="&#x629;" horiz-adv-x="1216" arabic-form="isolated" 
d="M631 0q-535 0 -535 477q0 216 127 356q138 152 377 152q430 0 430 -455v-530h-399zM876 498q0 362 -291 362q-152 0 -241 -99q-88 -99 -88 -265q0 -191 93 -280q96 -91 306 -91h221v373zM664 1192q-29 28 -29 70q0 41 29 69q29 29 69 29t69 -29q29 -28 29 -69
q0 -40 -29 -70q-29 -29 -69 -29t-69 29zM376 1192q-28 28 -28 70q0 41 28 69q28 29 68 29q42 0 70 -29q28 -28 28 -69t-28 -70q-29 -29 -70 -29q-40 0 -68 29z" />
    <glyph glyph-name="uniFE94" unicode="&#x629;" horiz-adv-x="1214" arabic-form="final" 
d="M631 0q-535 0 -535 479q0 215 126 354q138 152 380 152q219 0 405 -72v-788h238v-125h-614zM854 809q-109 51 -269 51q-152 0 -241 -99q-88 -98 -88 -263q0 -192 93 -281q97 -92 306 -92h199v684zM664 1192q-29 28 -29 70q0 41 29 69q29 29 69 29t69 -29q29 -28 29 -69
q0 -40 -29 -70q-29 -29 -69 -29t-69 29zM376 1192q-28 28 -28 70q0 41 28 69q28 29 68 29q42 0 70 -29q28 -28 28 -69t-28 -70q-29 -29 -70 -29q-40 0 -68 29z" />
    <glyph glyph-name="uniFE95" unicode="&#x62a;" horiz-adv-x="1583" arabic-form="isolated" 
d="M841 0q-369 0 -539 148q-163 143 -163 444q0 197 70 348l168 31q-82 -164 -82 -359q0 -253 117 -364q130 -123 450 -123h375v838h157v-963h-553zM897 1192q-29 28 -29 70q0 41 29 69q29 29 69 29q41 0 70 -29q29 -28 29 -69q0 -40 -29 -70q-30 -29 -70 -29t-69 29z
M610 1192q-29 28 -29 70q0 41 29 69q28 29 68 29q41 0 70 -29q28 -28 28 -69t-28 -70q-29 -29 -70 -29q-40 0 -68 29z" />
    <glyph glyph-name="uniFE96" unicode="&#x62a;" horiz-adv-x="1599" arabic-form="final" 
d="M841 0q-369 0 -539 148q-163 143 -163 444q0 197 70 348l168 31q-82 -164 -82 -359q0 -253 117 -364q130 -123 450 -123h375v838h157v-838h236v-125h-789zM897 1192q-29 28 -29 70q0 41 29 69q29 29 69 29q41 0 70 -29q29 -28 29 -69q0 -40 -29 -70q-30 -29 -70 -29
t-69 29zM610 1192q-29 28 -29 70q0 41 29 69q28 29 68 29q41 0 70 -29q28 -28 28 -69t-28 -70q-29 -29 -70 -29q-40 0 -68 29z" />
    <glyph glyph-name="uniFE97" unicode="&#x62a;" horiz-adv-x="651" arabic-form="initial" 
d="M0 125h305v838h156v-963h-461v125zM426 1192q-29 28 -29 70q0 41 29 69q29 29 70 29q40 0 69 -29q29 -28 29 -69q0 -40 -29 -70q-29 -29 -69 -29q-41 0 -70 29zM139 1192q-28 28 -28 70q0 41 28 69q28 29 68 29q41 0 70 -29q28 -28 28 -69t-28 -70q-29 -29 -70 -29
q-40 0 -68 29z" />
    <glyph glyph-name="uniFE98" unicode="&#x62a;" horiz-adv-x="651" arabic-form="medial" 
d="M0 125h305v838h156v-838h221v-125h-682v125zM426 1192q-29 28 -29 70q0 41 29 69q29 29 70 29q40 0 69 -29q29 -28 29 -69q0 -40 -29 -70q-29 -29 -69 -29q-41 0 -70 29zM139 1192q-28 28 -28 70q0 41 28 69q28 29 68 29q41 0 70 -29q28 -28 28 -69t-28 -70
q-29 -29 -70 -29q-40 0 -68 29z" />
    </font>
</defs>
</svg>
