<?xml version="1.0" standalone="no"?>
<!DOCTYPE svg PUBLIC "-//W3C//DTD SVG 1.1//EN" "http://www.w3.org/Graphics/SVG/1.1/DTD/svg11.dtd" >
<svg xmlns="http://www.w3.org/2000/svg" xmlns:xlink="http://www.w3.org/1999/xlink" version="1.1">
<metadata>
Created by FontForge 20170731 at Sat Oct 15 19:05:53 2016
 By Aleksey,,,
(c)  2013 Bahij Virtual Academy. All rights reserved.
</metadata>
<defs>
<font id="BahijHoma-Bold" horiz-adv-x="0" >
  <font-face 
    font-family="Bahij Homa"
    font-weight="700"
    font-stretch="normal"
    units-per-em="2048"
    panose-1="2 4 7 3 6 2 1 2 2 3"
    ascent="1638"
    descent="-410"
    x-height="1030"
    cap-height="1300"
    bbox="-320 -1315 6307 2336"
    underline-thickness="50"
    underline-position="-150"
    unicode-range="U+0020-FEFC"
  />
<missing-glyph horiz-adv-x="728" 
d="M0 0v1020h728v-1020h-728zM117 947l247 -372l248 372h-495zM655 881l-247 -371l247 -372v743zM612 73l-248 371l-247 -371h495zM73 138l247 372l-247 371v-743z" />
    <glyph glyph-name="uniFB01" unicode="fi" horiz-adv-x="854" 
d="M548 0v926h-192v-1030h-160v1030h-137v104h141v160q0 219 232 219q135 0 234 -120l-93 -96q-84 107 -141 107q-74 0 -74 -110v-160h352v-1030h-162z" />
    <glyph glyph-name="uniFB02" unicode="fl" horiz-adv-x="849" 
d="M544 0v926h-168v-1030h-160v1030h-137v104h141v146q0 109 66 178q51 55 143 55q96 0 115 -20v22h160v-1411h-160zM544 1237l-28 -27q-46 90 -83 90q-55 0 -55 -131v-139h166v207z" />
    <glyph glyph-name="uniFC31" unicode="&#xfed3;&#xfef0;" horiz-adv-x="1928" arabic-form="isolated" 
d="M1571 426q-26 73 -100.5 158.5t-127.5 85.5q-39 0 -70 -63q-21 -52 -21 -95v-4q0 -115 155 -115q108 0 164 33zM1418 950q-60 7 -112 7t-97 -7v188q17 7 99 9h25q49 0 85 -6v-191zM983 0q33 -67 35 -93q0 -142 -188 -216q-140 -54 -307 -56h-5q-444 0 -444 341
q0 119 140 396q119 241 212 371l145 -93q-91 -131 -190 -320q-117 -224 -117 -315q0 -127 89 -177q64 -37 207 -37q84 0 162 24q102 34 104 93q0 37 -38 59.5t-77 22.5v171h275v4h503q139 0 139 63q-69 -22 -160 -22h-11q-378 0 -380 281q0 114 62 224q72 130 178 130
q157 0 326 -211q162 -201 162 -363q0 -124 -97 -204q-89 -73 -217 -73h-508z" />
    <glyph glyph-name="uniFC32" unicode="&#xfed3;&#xfef2;" horiz-adv-x="1928" arabic-form="isolated" 
d="M796 -464q-3 0 -16 -197q-73 19 -242 21h-24q-162 0 -230 -13l-7 195q61 15 257 15h31q171 0 231 -21zM1571 426q-26 73 -100.5 158.5t-127.5 85.5q-39 0 -70 -63q-21 -52 -21 -95v-4q0 -115 155 -115q108 0 164 33zM1418 950q-60 7 -112 7t-97 -7v188q17 7 99 9h25
q49 0 85 -6v-191zM983 0q33 -67 35 -93q0 -142 -188 -216q-140 -54 -307 -56h-5q-444 0 -444 341q0 119 140 396q119 241 212 371l145 -93q-91 -131 -190 -320q-117 -224 -117 -315q0 -127 89 -177q64 -37 207 -37q84 0 162 24q102 34 104 93q0 37 -38 59.5t-77 22.5v171
h275v4h503q139 0 139 63q-69 -22 -160 -22h-11q-378 0 -380 281q0 114 62 224q72 130 178 130q157 0 326 -211q162 -201 162 -363q0 -124 -97 -204q-89 -73 -217 -73h-508z" />
    <glyph glyph-name="uniFC43" unicode="&#xfedf;&#xfef0;" horiz-adv-x="1522" arabic-form="isolated" 
d="M983 0q33 -67 35 -93q0 -142 -188 -216q-140 -54 -307 -56h-5q-444 0 -444 341q0 119 140 396q119 241 212 371l145 -93q-91 -131 -190 -320q-117 -224 -117 -315q0 -127 89 -177q64 -37 207 -37q84 0 162 24q102 34 104 93q0 37 -38 59.5t-77 22.5v171h295v4h115
q108 0 110 155q0 121 -48 422q-39 242 -91 432l158 62q149 -481 149 -916q0 -120 -49 -213q-59 -117 -169 -117h-198z" />
    <glyph glyph-name="uniFC44" unicode="&#xfedf;&#xfef2;" horiz-adv-x="1522" arabic-form="isolated" 
d="M796 -464q-3 0 -16 -197q-73 19 -242 21h-24q-162 0 -230 -13l-7 195q61 15 257 15h31q171 0 231 -21zM983 0q33 -67 35 -93q0 -142 -188 -216q-140 -54 -307 -56h-5q-444 0 -444 341q0 119 140 396q119 241 212 371l145 -93q-91 -131 -190 -320q-117 -224 -117 -315
q0 -127 89 -177q64 -37 207 -37q84 0 162 24q102 34 104 93q0 37 -38 59.5t-77 22.5v171h295v4h115q108 0 110 155q0 121 -48 422q-39 242 -91 432l158 62q149 -481 149 -916q0 -120 -49 -213q-59 -117 -169 -117h-198z" />
    <glyph glyph-name="uniFC64" unicode="&#xfe8c;&#xfeae;" horiz-adv-x="1188" arabic-form="final" 
d="M1045 1028q-177 -51 -298 -121l-54 72l74 39q-89 54 -89 133v3q0 172 276 177l5 -84q-195 -14 -195 -89q0 -43 37 -61q28 -26 74 -26q12 0 146 39zM579 0q-47 0 -95 43q-45 -229 -205 -404l-136 110q179 236 179 471q0 104 -73 303l-93 259l153 78l193 -549
q47 -136 114 -136h120q57 0 91.5 40t34.5 100q0 28 -5 46l-144 417l162 75q53 -132 213 -613q22 -65 69 -65h59v-175h-59q-116 0 -179 102q-82 -102 -183 -102h-216z" />
    <glyph glyph-name="uniFC67" unicode="&#xfe8c;&#xfee6;" horiz-adv-x="1793" arabic-form="final" 
d="M657 640q-58 8 -110 8t-99 -8v187q17 9 101 11q52 0 108 -4v-194zM1650 1028q-177 -51 -298 -121l-54 72l74 39q-89 54 -89 133v3q0 172 276 177l5 -84q-195 -14 -195 -89q0 -43 37 -61q28 -26 74 -26q12 0 146 39zM1180 0q-56 0 -110 43q-35 -179 -251 -261
q-157 -61 -378 -61q-365 0 -367 296v6q0 109 68 283q70 178 157 286l130 -86q-61 -100 -113 -236q-60 -156 -60 -253q0 -131 201 -131q207 0 304 45q145 63 145 240q0 181 -147 587l153 65q111 -268 165 -518q12 -50 45.5 -90t74.5 -40h144q57 0 91.5 40t34.5 100
q0 28 -5 46l-144 417l162 75q53 -132 213 -613q22 -65 69 -65h59v-175h-59q-116 0 -179 102q-82 -102 -183 -102h-220z" />
    <glyph glyph-name="uniFC6A" unicode="&#xfe92;&#xfeae;" horiz-adv-x="1198" arabic-form="final" 
d="M579 0q-47 0 -95 43q-45 -229 -205 -404l-136 110q179 236 179 471q0 104 -73 303l-93 259l153 78l193 -549q47 -136 114 -136h130q57 0 91.5 40t34.5 100q0 28 -5 46l-144 417l162 75q53 -132 213 -613q22 -65 69 -65h59v-175h-59q-116 0 -179 102q-82 -102 -183 -102
h-226zM1042 -335q-58 5 -110 5q-54 0 -101 -5v186q21 8 103 9h27q46 0 81 -5v-190z" />
    <glyph glyph-name="uniFC70" unicode="&#xfe98;&#xfeae;" horiz-adv-x="1275" arabic-form="final" 
d="M579 0q-47 0 -95 43q-45 -229 -205 -404l-136 110q179 236 179 471q0 104 -73 303l-93 259l153 78l193 -549q47 -136 114 -136h198q56 0 90.5 41t34.5 99q0 28 -8 46l-143 417l162 75q54 -132 214 -613q20 -65 69 -65h69v-175h-69q-116 0 -181 102q-80 -102 -182 -102
h-291zM1129 1149q-4 -21 -15 -196q-71 15 -244 17q-36 1 -68 1q-120 0 -185 -12l-6 193q67 17 257 19h28q166 0 233 -22z" />
    <glyph glyph-name="uniFC86" unicode="&#xfee0;&#xfef0;" horiz-adv-x="1539" arabic-form="final" 
d="M983 0q33 -67 35 -93q0 -142 -188 -216q-140 -54 -307 -56h-5q-444 0 -444 341q0 119 140 396q119 241 212 371l145 -93q-91 -131 -190 -320q-117 -224 -117 -315q0 -127 89 -177q64 -37 207 -37q84 0 162 24q102 34 104 93q0 37 -38 59.5t-77 22.5v171h305v4h106
q50 0 84 52q24 52 24 116q0 156 -43 411q-46 277 -95 436l160 54q53 -144 99 -436q43 -268 49 -447q7 -186 98 -186h69v-175h-108q-104 0 -132 84q-56 -84 -147 -84h-197z" />
    <glyph glyph-name="uniFC87" unicode="&#xfee0;&#xfef2;" horiz-adv-x="1539" arabic-form="final" 
d="M796 -464q-3 0 -16 -197q-73 19 -242 21h-24q-162 0 -230 -13l-7 195q61 15 257 15h31q171 0 231 -21zM983 0q33 -67 35 -93q0 -142 -188 -216q-140 -54 -307 -56h-5q-444 0 -444 341q0 119 140 396q119 241 212 371l145 -93q-91 -131 -190 -320q-117 -224 -117 -315
q0 -127 89 -177q64 -37 207 -37q84 0 162 24q102 34 104 93q0 37 -38 59.5t-77 22.5v171h305v4h106q50 0 84 52q24 52 24 116q0 156 -43 411q-46 277 -95 436l160 54q53 -144 99 -436q43 -268 49 -447q7 -186 98 -186h69v-175h-108q-104 0 -132 84q-56 -84 -147 -84h-197z
" />
    <glyph glyph-name="uniFCCC" unicode="&#xfedf;&#xfee4;" horiz-adv-x="1658" arabic-form="initial" 
d="M648 598q-1 -79 -62 -191q-63 -115 -63 -156q0 -76 102 -76q69 0 120 30q57 35 59 102v7q0 28 -15 53zM1124 0q-52 0 -109 43q-51 37 -80 87q-99 -130 -319 -130q-205 0 -247 130q-58 -54 -158.5 -92t-178.5 -38h-60v175h60q162 0 307 164q126 141 171 316l135 -53
l-94 154l149 84l324 -540q74 -125 123 -125h110q108 0 110 155q0 121 -48 422q-39 242 -91 432l158 62q149 -481 149 -916q0 -120 -49 -213q-59 -117 -169 -117h-193z" />
    <glyph glyph-name="uniFCFB" unicode="&#xfeb3;&#xfef0;" horiz-adv-x="2433" arabic-form="isolated" 
d="M983 0q33 -67 35 -93q0 -142 -188 -216q-140 -54 -307 -56h-5q-444 0 -444 341q0 119 140 396q119 241 212 371l145 -93q-91 -131 -190 -320q-117 -224 -117 -315q0 -127 89 -177q64 -37 207 -37q84 0 162 24q102 34 104 93q0 37 -38 59.5t-77 22.5v171h385v4h69
q43 0 76.5 40t36.5 79q0 9 -3 17l-93 450l165 54l84 -405q26 -123 36 -144q40 -91 119 -91q102 0 102 134q0 34 -4 43l-91 409l168 62l87 -412q21 -91 47 -147q41 -89 113 -89q54 0 82 47q24 41 24 98q0 30 -5 47l-142 391l162 65l160 -402q21 -52 21 -112q0 -127 -78 -214
q-82 -93 -207 -95h-6q-63 0 -137 39q-62 32 -82 67q-54 -106 -190 -106q-173 0 -244 104q-52 -104 -190 -104h-193z" />
    <glyph glyph-name="uniFCFC" unicode="&#xfeb3;&#xfef2;" horiz-adv-x="2433" arabic-form="isolated" 
d="M796 -464q-3 0 -16 -197q-73 19 -242 21h-24q-162 0 -230 -13l-7 195q61 15 257 15h31q171 0 231 -21zM983 0q33 -67 35 -93q0 -142 -188 -216q-140 -54 -307 -56h-5q-444 0 -444 341q0 119 140 396q119 241 212 371l145 -93q-91 -131 -190 -320q-117 -224 -117 -315
q0 -127 89 -177q64 -37 207 -37q84 0 162 24q102 34 104 93q0 37 -38 59.5t-77 22.5v171h385v4h69q43 0 76.5 40t36.5 79q0 9 -3 17l-93 450l165 54l84 -405q26 -123 36 -144q40 -91 119 -91q102 0 102 134q0 34 -4 43l-91 409l168 62l87 -412q21 -91 47 -147
q41 -89 113 -89q54 0 82 47q24 41 24 98q0 30 -5 47l-142 391l162 65l160 -402q21 -52 21 -112q0 -127 -78 -214q-82 -93 -207 -95h-6q-63 0 -137 39q-62 32 -82 67q-54 -106 -190 -106q-173 0 -244 104q-52 -104 -190 -104h-193z" />
    <glyph glyph-name="uniFCFD" unicode="&#xfeb7;&#xfef0;" horiz-adv-x="2433" arabic-form="isolated" 
d="M1738 1221q-57 6 -108 6q-52 0 -98 -6v187q20 9 100 11h26q50 0 80 -6v-192zM983 0q33 -67 35 -93q0 -142 -188 -216q-140 -54 -307 -56h-5q-444 0 -444 341q0 119 140 396q119 241 212 371l145 -93q-91 -131 -190 -320q-117 -224 -117 -315q0 -127 89 -177
q64 -37 207 -37q84 0 162 24q102 34 104 93q0 37 -38 59.5t-77 22.5v171h385v4h69q43 0 76.5 40t36.5 79q0 9 -3 17l-93 450l165 54l84 -405q26 -123 36 -144q40 -91 119 -91q102 0 102 134q0 34 -4 43l-91 409l168 62l87 -412q21 -91 47 -147q41 -89 113 -89q54 0 82 47
q24 41 24 98q0 30 -5 47l-142 391l162 65l160 -402q21 -52 21 -112q0 -127 -78 -214q-82 -93 -207 -95h-6q-63 0 -137 39q-62 32 -82 67q-54 -106 -190 -106q-173 0 -244 104q-52 -104 -190 -104h-193zM1904 1147q-7 0 -17 -197q-76 14 -240 18q-44 2 -82 2q-108 0 -173 -13
l-7 194q82 16 258 16q200 0 261 -20z" />
    <glyph glyph-name="uniFCFE" unicode="&#xfeb7;&#xfef2;" horiz-adv-x="2433" arabic-form="isolated" 
d="M796 -464q-3 0 -16 -197q-73 19 -242 21h-24q-162 0 -230 -13l-7 195q61 15 257 15h31q171 0 231 -21zM1738 1221q-57 6 -108 6q-52 0 -98 -6v187q20 9 100 11h26q50 0 80 -6v-192zM983 0q33 -67 35 -93q0 -142 -188 -216q-140 -54 -307 -56h-5q-444 0 -444 341
q0 119 140 396q119 241 212 371l145 -93q-91 -131 -190 -320q-117 -224 -117 -315q0 -127 89 -177q64 -37 207 -37q84 0 162 24q102 34 104 93q0 37 -38 59.5t-77 22.5v171h385v4h69q43 0 76.5 40t36.5 79q0 9 -3 17l-93 450l165 54l84 -405q26 -123 36 -144q40 -91 119 -91
q102 0 102 134q0 34 -4 43l-91 409l168 62l87 -412q21 -91 47 -147q41 -89 113 -89q54 0 82 47q24 41 24 98q0 30 -5 47l-142 391l162 65l160 -402q21 -52 21 -112q0 -127 -78 -214q-82 -93 -207 -95h-6q-63 0 -137 39q-62 32 -82 67q-54 -106 -190 -106q-173 0 -244 104
q-52 -104 -190 -104h-193zM1904 1147q-7 0 -17 -197q-76 14 -240 18q-44 2 -82 2q-108 0 -173 -13l-7 194q82 16 258 16q200 0 261 -20z" />
    <glyph glyph-name="uniFD05" unicode="&#xfebb;&#xfef0;" horiz-adv-x="2296" arabic-form="isolated" 
d="M2000 313q0 100 -43 216q-52 132 -121 132h-2q-83 0 -170 -175q-68 -142 -96 -304q83 -7 147 -7q283 0 285 138zM1159 1v-1h-176q33 -67 35 -93q0 -142 -188 -216q-140 -54 -307 -56h-5q-444 0 -444 341q0 119 140 396q119 241 212 371l145 -93q-91 -131 -190 -320
q-117 -224 -117 -315q0 -127 89 -177q64 -37 207 -37q84 0 162 24q102 34 104 93q0 37 -38 59.5t-77 22.5v171h285v4h138q61 0 80 32q13 22 13 87q0 173 -119 467q67 23 154 75q56 -110 96 -276.5t40 -295.5q47 214 191 393t267 179q95 0 184 -104q71 -84 108 -226
q25 -95 25 -176q0 -112 -47 -181q-106 -153 -445 -155h-6q-197 0 -346 64q-22 -24 -91 -43q-44 -11 -79 -14z" />
    <glyph glyph-name="uniFD06" unicode="&#xfebb;&#xfef2;" horiz-adv-x="2296" arabic-form="isolated" 
d="M796 -464q-3 0 -16 -197q-73 19 -242 21h-24q-162 0 -230 -13l-7 195q61 15 257 15h31q171 0 231 -21zM2000 313q0 100 -43 216q-52 132 -121 132h-2q-83 0 -170 -175q-68 -142 -96 -304q83 -7 147 -7q283 0 285 138zM1159 1v-1h-176q33 -67 35 -93q0 -142 -188 -216
q-140 -54 -307 -56h-5q-444 0 -444 341q0 119 140 396q119 241 212 371l145 -93q-91 -131 -190 -320q-117 -224 -117 -315q0 -127 89 -177q64 -37 207 -37q84 0 162 24q102 34 104 93q0 37 -38 59.5t-77 22.5v171h285v4h138q61 0 80 32q13 22 13 87q0 173 -119 467
q67 23 154 75q56 -110 96 -276.5t40 -295.5q47 214 191 393t267 179q95 0 184 -104q71 -84 108 -226q25 -95 25 -176q0 -112 -47 -181q-106 -153 -445 -155h-6q-197 0 -346 64q-22 -24 -91 -43q-44 -11 -79 -14z" />
    <glyph glyph-name="uniFD07" unicode="&#xfebf;&#xfef0;" horiz-adv-x="2296" arabic-form="isolated" 
d="M2000 313q0 100 -43 216q-52 132 -121 132h-2q-83 0 -170 -175q-68 -142 -96 -304q83 -7 147 -7q283 0 285 138zM1910 950q-58 7 -110 7t-98 -7v188q16 7 100 9h26q49 0 82 -6v-191zM1159 1v-1h-176q33 -67 35 -93q0 -142 -188 -216q-140 -54 -307 -56h-5
q-444 0 -444 341q0 119 140 396q119 241 212 371l145 -93q-91 -131 -190 -320q-117 -224 -117 -315q0 -127 89 -177q64 -37 207 -37q84 0 162 24q102 34 104 93q0 37 -38 59.5t-77 22.5v171h285v4h138q61 0 80 32q13 22 13 87q0 173 -119 467q67 23 154 75
q56 -110 96 -276.5t40 -295.5q47 214 191 393t267 179q95 0 184 -104q71 -84 108 -226q25 -95 25 -176q0 -112 -47 -181q-106 -153 -445 -155h-6q-197 0 -346 64q-22 -24 -91 -43q-44 -11 -79 -14z" />
    <glyph glyph-name="uniFD08" unicode="&#xfebf;&#xfef2;" horiz-adv-x="2296" arabic-form="isolated" 
d="M796 -464q-3 0 -16 -197q-73 19 -242 21h-24q-162 0 -230 -13l-7 195q61 15 257 15h31q171 0 231 -21zM2000 313q0 100 -43 216q-52 132 -121 132h-2q-83 0 -170 -175q-68 -142 -96 -304q83 -7 147 -7q283 0 285 138zM1910 950q-58 7 -110 7t-98 -7v188q16 7 100 9h26
q49 0 82 -6v-191zM1159 1v-1h-176q33 -67 35 -93q0 -142 -188 -216q-140 -54 -307 -56h-5q-444 0 -444 341q0 119 140 396q119 241 212 371l145 -93q-91 -131 -190 -320q-117 -224 -117 -315q0 -127 89 -177q64 -37 207 -37q84 0 162 24q102 34 104 93q0 37 -38 59.5
t-77 22.5v171h285v4h138q61 0 80 32q13 22 13 87q0 173 -119 467q67 23 154 75q56 -110 96 -276.5t40 -295.5q47 214 191 393t267 179q95 0 184 -104q71 -84 108 -226q25 -95 25 -176q0 -112 -47 -181q-106 -153 -445 -155h-6q-197 0 -346 64q-22 -24 -91 -43
q-44 -11 -79 -14z" />
    <glyph glyph-name="uniFD0D" unicode="&#xfeb7;&#xfeae;" horiz-adv-x="1948" arabic-form="isolated" 
d="M1253 1221q-57 6 -108 6q-52 0 -98 -6v187q20 9 100 11h26q50 0 80 -6v-192zM579 0q-47 0 -95 43q-45 -229 -205 -404l-136 110q179 236 179 471q0 104 -73 303l-93 259l153 78l193 -549q47 -136 114 -136h64q43 0 76.5 40t36.5 79q0 9 -3 17l-93 450l165 54l84 -405
q26 -123 36 -144q40 -91 119 -91q102 0 102 134q0 34 -4 43l-91 409l168 62l87 -412q21 -91 47 -147q41 -89 113 -89q54 0 82 47q24 41 24 98q0 30 -5 47l-142 391l162 65l160 -402q21 -52 21 -112q0 -127 -78 -214q-82 -93 -207 -95h-6q-63 0 -137 39q-62 32 -82 67
q-54 -106 -190 -106q-173 0 -244 104q-52 -104 -190 -104h-112zM1419 1147q-7 0 -17 -197q-76 14 -240 18q-44 2 -82 2q-108 0 -173 -13l-7 194q82 16 258 16q200 0 261 -20z" />
    <glyph glyph-name="uniFD0E" unicode="&#xfeb3;&#xfeae;" horiz-adv-x="1948" arabic-form="isolated" 
d="M579 0q-47 0 -95 43q-45 -229 -205 -404l-136 110q179 236 179 471q0 104 -73 303l-93 259l153 78l193 -549q47 -136 114 -136h64q43 0 76.5 40t36.5 79q0 9 -3 17l-93 450l165 54l84 -405q26 -123 36 -144q40 -91 119 -91q102 0 102 134q0 34 -4 43l-91 409l168 62
l87 -412q21 -91 47 -147q41 -89 113 -89q54 0 82 47q24 41 24 98q0 30 -5 47l-142 391l162 65l160 -402q21 -52 21 -112q0 -127 -78 -214q-82 -93 -207 -95h-6q-63 0 -137 39q-62 32 -82 67q-54 -106 -190 -106q-173 0 -244 104q-52 -104 -190 -104h-112z" />
    <glyph glyph-name="uniFD0F" unicode="&#xfebb;&#xfeae;" horiz-adv-x="1911" arabic-form="isolated" 
d="M1615 313q0 100 -43 216q-52 132 -121 132h-2q-83 0 -170 -175q-68 -142 -96 -304q83 -7 147 -7q283 0 285 138zM579 0q-47 0 -95 43q-45 -229 -205 -404l-136 110q179 236 179 471q0 104 -73 303l-93 259l153 78l193 -549q47 -136 114 -136h133q61 0 80 32q13 22 13 87
q0 173 -119 467q67 23 154 75q56 -110 96 -276.5t40 -295.5q47 214 191 393t267 179q95 0 184 -104q71 -84 108 -226q25 -95 25 -176q0 -112 -47 -181q-106 -153 -445 -155h-6q-197 0 -346 64q-22 -24 -91 -43q-60 -15 -104 -15h-170z" />
    <glyph glyph-name="uniFD10" unicode="&#xfebf;&#xfeae;" horiz-adv-x="1911" arabic-form="isolated" 
d="M1615 313q0 100 -43 216q-52 132 -121 132h-2q-83 0 -170 -175q-68 -142 -96 -304q83 -7 147 -7q283 0 285 138zM1525 950q-58 7 -110 7t-98 -7v188q16 7 100 9h26q49 0 82 -6v-191zM579 0q-47 0 -95 43q-45 -229 -205 -404l-136 110q179 236 179 471q0 104 -73 303
l-93 259l153 78l193 -549q47 -136 114 -136h133q61 0 80 32q13 22 13 87q0 173 -119 467q67 23 154 75q56 -110 96 -276.5t40 -295.5q47 214 191 393t267 179q95 0 184 -104q71 -84 108 -226q25 -95 25 -176q0 -112 -47 -181q-106 -153 -445 -155h-6q-197 0 -346 64
q-22 -24 -91 -43q-60 -15 -104 -15h-170z" />
    <glyph glyph-name="uniFD17" unicode="&#xfeb4;&#xfef0;" horiz-adv-x="2455" arabic-form="final" 
d="M1159 1v-1h-176q33 -67 35 -93q0 -142 -188 -216q-140 -54 -307 -56h-5q-444 0 -444 341q0 119 140 396q119 241 212 371l145 -93q-91 -131 -190 -320q-117 -224 -117 -315q0 -127 89 -177q64 -37 207 -37q84 0 162 24q102 34 104 93q0 37 -38 59.5t-77 22.5v171h345v4
h69q43 0 76.5 40t36.5 79q0 9 -3 17l-93 450l165 54l84 -405q13 -62 36 -146q39 -91 119 -93h3q99 0 99 136q0 28 -4 45l-91 409l168 60l87 -411q21 -93 47 -147q41 -92 113 -92q52 0 82 51q24 41 24 96q0 32 -5 49l-142 391l162 63l196 -510q52 -136 117 -136h80v-175h-115
q-92 0 -173 89q-79 -89 -209 -89q-74 0 -143 37q-60 32 -82 67q-24 -43 -82 -73.5t-108 -30.5q-173 0 -244 104q-48 -95 -167 -103z" />
    <glyph glyph-name="uniFD18" unicode="&#xfeb4;&#xfef2;" horiz-adv-x="2454" arabic-form="final" 
d="M796 -464q-3 0 -16 -197q-73 19 -242 21h-24q-162 0 -230 -13l-7 195q61 15 257 15h31q171 0 231 -21zM1159 1v-1h-176q33 -67 35 -93q0 -142 -188 -216q-140 -54 -307 -56h-5q-444 0 -444 341q0 119 140 396q119 241 212 371l145 -93q-91 -131 -190 -320
q-117 -224 -117 -315q0 -127 89 -177q64 -37 207 -37q84 0 162 24q102 34 104 93q0 37 -38 59.5t-77 22.5v171h345v4h69q43 0 76.5 40t36.5 79q0 9 -3 17l-93 450l165 54l84 -405q13 -62 36 -146q39 -91 119 -93h3q99 0 99 136q0 28 -4 45l-91 409l168 60l87 -411
q21 -93 47 -147q41 -92 113 -92q52 0 82 51q24 41 24 96q0 32 -5 49l-142 391l162 63l196 -510q52 -136 117 -136h80v-175h-115q-92 0 -173 89q-79 -89 -209 -89q-74 0 -143 37q-60 32 -82 67q-24 -43 -82 -73.5t-108 -30.5q-173 0 -244 104q-48 -95 -167 -103z" />
    <glyph glyph-name="uniFD19" unicode="&#xfeb8;&#xfef0;" horiz-adv-x="2454" arabic-form="final" 
d="M1698 1221q-57 6 -108 6q-52 0 -98 -6v187q20 9 100 11h26q50 0 80 -6v-192zM1864 1147q-7 0 -17 -197q-76 14 -240 18q-44 2 -82 2q-108 0 -173 -13l-7 194q82 16 258 16q200 0 261 -20zM1159 1v-1h-176q33 -67 35 -93q0 -142 -188 -216q-140 -54 -307 -56h-5
q-444 0 -444 341q0 119 140 396q119 241 212 371l145 -93q-91 -131 -190 -320q-117 -224 -117 -315q0 -127 89 -177q64 -37 207 -37q84 0 162 24q102 34 104 93q0 37 -38 59.5t-77 22.5v171h345v4h69q43 0 76.5 40t36.5 79q0 9 -3 17l-93 450l165 54l84 -405q13 -62 36 -146
q39 -91 119 -93h3q99 0 99 136q0 28 -4 45l-91 409l168 60l87 -411q21 -93 47 -147q41 -92 113 -92q52 0 82 51q24 41 24 96q0 32 -5 49l-142 391l162 63l196 -510q52 -136 117 -136h80v-175h-115q-92 0 -173 89q-79 -89 -209 -89q-74 0 -143 37q-60 32 -82 67
q-24 -43 -82 -73.5t-108 -30.5q-173 0 -244 104q-48 -95 -167 -103z" />
    <glyph glyph-name="uniFD1A" unicode="&#xfeb8;&#xfef2;" horiz-adv-x="2454" arabic-form="final" 
d="M796 -464q-3 0 -16 -197q-73 19 -242 21h-24q-162 0 -230 -13l-7 195q61 15 257 15h31q171 0 231 -21zM1698 1221q-57 6 -108 6q-52 0 -98 -6v187q20 9 100 11h26q50 0 80 -6v-192zM1864 1147q-7 0 -17 -197q-76 14 -240 18q-44 2 -82 2q-108 0 -173 -13l-7 194
q82 16 258 16q200 0 261 -20zM1159 1v-1h-176q33 -67 35 -93q0 -142 -188 -216q-140 -54 -307 -56h-5q-444 0 -444 341q0 119 140 396q119 241 212 371l145 -93q-91 -131 -190 -320q-117 -224 -117 -315q0 -127 89 -177q64 -37 207 -37q84 0 162 24q102 34 104 93
q0 37 -38 59.5t-77 22.5v171h345v4h69q43 0 76.5 40t36.5 79q0 9 -3 17l-93 450l165 54l84 -405q13 -62 36 -146q39 -91 119 -93h3q99 0 99 136q0 28 -4 45l-91 409l168 60l87 -411q21 -93 47 -147q41 -92 113 -92q52 0 82 51q24 41 24 96q0 32 -5 49l-142 391l162 63
l196 -510q52 -136 117 -136h80v-175h-115q-92 0 -173 89q-79 -89 -209 -89q-74 0 -143 37q-60 32 -82 67q-24 -43 -82 -73.5t-108 -30.5q-173 0 -244 104q-48 -95 -167 -103z" />
    <glyph glyph-name="uniFD21" unicode="&#xfebc;&#xfef0;" horiz-adv-x="2359" arabic-form="final" 
d="M2010 313q0 100 -43 216q-52 132 -121 132h-2q-83 0 -170 -175q-68 -142 -96 -304q83 -7 147 -7q283 0 285 138zM1159 0h-176q33 -67 35 -93q0 -142 -188 -216q-140 -54 -307 -56h-5q-444 0 -444 341q0 119 140 396q119 241 212 371l145 -93q-91 -131 -190 -320
q-117 -224 -117 -315q0 -127 89 -177q64 -37 207 -37q84 0 162 24q102 34 104 93q0 37 -38 59.5t-77 22.5v171h295v4h138q61 0 80 32q13 22 13 87q0 173 -119 467q67 23 154 75q56 -110 96 -276.5t40 -295.5q47 214 191 393t267 179q97 0 184 -104q81 -99 108 -226
q12 -74 41 -221q26 -114 101 -114h87v-171h-104q-54 0 -112.5 37t-75.5 86q-33 -73 -195 -106q-108 -23 -235 -23q-238 0 -326 64q-22 -24 -91 -43q-50 -13 -89 -15z" />
    <glyph glyph-name="uniFD22" unicode="&#xfebc;&#xfef2;" horiz-adv-x="2359" arabic-form="final" 
d="M796 -464q-3 0 -16 -197q-73 19 -242 21h-24q-162 0 -230 -13l-7 195q61 15 257 15h31q171 0 231 -21zM2010 313q0 100 -43 216q-52 132 -121 132h-2q-83 0 -170 -175q-68 -142 -96 -304q83 -7 147 -7q283 0 285 138zM1159 0h-176q33 -67 35 -93q0 -142 -188 -216
q-140 -54 -307 -56h-5q-444 0 -444 341q0 119 140 396q119 241 212 371l145 -93q-91 -131 -190 -320q-117 -224 -117 -315q0 -127 89 -177q64 -37 207 -37q84 0 162 24q102 34 104 93q0 37 -38 59.5t-77 22.5v171h295v4h138q61 0 80 32q13 22 13 87q0 173 -119 467
q67 23 154 75q56 -110 96 -276.5t40 -295.5q47 214 191 393t267 179q97 0 184 -104q81 -99 108 -226q12 -74 41 -221q26 -114 101 -114h87v-171h-104q-54 0 -112.5 37t-75.5 86q-33 -73 -195 -106q-108 -23 -235 -23q-238 0 -326 64q-22 -24 -91 -43q-50 -13 -89 -15z" />
    <glyph glyph-name="uniFD23" unicode="&#xfec0;&#xfef0;" horiz-adv-x="2359" arabic-form="final" 
d="M2010 313q0 100 -43 216q-52 132 -121 132h-2q-83 0 -170 -175q-68 -142 -96 -304q83 -7 147 -7q283 0 285 138zM1920 950q-58 7 -110 7t-98 -7v188q16 7 100 9h26q49 0 82 -6v-191zM1159 0h-176q33 -67 35 -93q0 -142 -188 -216q-140 -54 -307 -56h-5q-444 0 -444 341
q0 119 140 396q119 241 212 371l145 -93q-91 -131 -190 -320q-117 -224 -117 -315q0 -127 89 -177q64 -37 207 -37q84 0 162 24q102 34 104 93q0 37 -38 59.5t-77 22.5v171h295v4h138q61 0 80 32q13 22 13 87q0 173 -119 467q67 23 154 75q56 -110 96 -276.5t40 -295.5
q47 214 191 393t267 179q97 0 184 -104q81 -99 108 -226q12 -74 41 -221q26 -114 101 -114h87v-171h-104q-54 0 -112.5 37t-75.5 86q-33 -73 -195 -106q-108 -23 -235 -23q-238 0 -326 64q-22 -24 -91 -43q-50 -13 -89 -15z" />
    <glyph glyph-name="uniFD24" unicode="&#xfec0;&#xfef2;" horiz-adv-x="2359" arabic-form="final" 
d="M796 -464q-3 0 -16 -197q-73 19 -242 21h-24q-162 0 -230 -13l-7 195q61 15 257 15h31q171 0 231 -21zM2010 313q0 100 -43 216q-52 132 -121 132h-2q-83 0 -170 -175q-68 -142 -96 -304q83 -7 147 -7q283 0 285 138zM1920 950q-58 7 -110 7t-98 -7v188q16 7 100 9h26
q49 0 82 -6v-191zM1159 0h-176q33 -67 35 -93q0 -142 -188 -216q-140 -54 -307 -56h-5q-444 0 -444 341q0 119 140 396q119 241 212 371l145 -93q-91 -131 -190 -320q-117 -224 -117 -315q0 -127 89 -177q64 -37 207 -37q84 0 162 24q102 34 104 93q0 37 -38 59.5t-77 22.5
v171h295v4h138q61 0 80 32q13 22 13 87q0 173 -119 467q67 23 154 75q56 -110 96 -276.5t40 -295.5q47 214 191 393t267 179q97 0 184 -104q81 -99 108 -226q12 -74 41 -221q26 -114 101 -114h87v-171h-104q-54 0 -112.5 37t-75.5 86q-33 -73 -195 -106q-108 -23 -235 -23
q-238 0 -326 64q-22 -24 -91 -43q-50 -13 -89 -15z" />
    <glyph glyph-name="uniFD29" unicode="&#xfeb8;&#xfeae;" horiz-adv-x="2009" arabic-form="final" 
d="M1253 1221q-57 6 -108 6q-52 0 -98 -6v187q20 9 100 11h26q50 0 80 -6v-192zM579 0q-47 0 -95 43q-45 -229 -205 -404l-136 110q179 236 179 471q0 104 -73 303l-93 259l153 78l193 -549q47 -136 114 -136h64q43 0 76.5 40t36.5 79q0 9 -3 17l-93 450l165 54l84 -405
q13 -62 36 -146q39 -91 119 -93h3q99 0 99 136q0 28 -4 45l-91 409l168 60l87 -411q21 -93 47 -147q41 -92 113 -92q52 0 82 51q24 41 24 96q0 32 -5 49l-142 391l162 63l196 -510q52 -136 117 -136h80v-175h-115q-92 0 -173 89q-79 -89 -209 -89q-74 0 -143 37
q-60 32 -82 67q-24 -43 -82 -73.5t-108 -30.5q-173 0 -244 104q-52 -104 -190 -104h-112zM1419 1147q-7 0 -17 -197q-76 14 -240 18q-44 2 -82 2q-108 0 -173 -13l-7 194q82 16 258 16q200 0 261 -20z" />
    <glyph glyph-name="uniFD2A" unicode="&#xfeb4;&#xfeae;" horiz-adv-x="2009" arabic-form="final" 
d="M579 0q-47 0 -95 43q-45 -229 -205 -404l-136 110q179 236 179 471q0 104 -73 303l-93 259l153 78l193 -549q47 -136 114 -136h64q43 0 76.5 40t36.5 79q0 9 -3 17l-93 450l165 54l84 -405q13 -62 36 -146q39 -91 119 -93h3q99 0 99 136q0 28 -4 45l-91 409l168 60
l87 -411q21 -93 47 -147q41 -92 113 -92q52 0 82 51q24 41 24 96q0 32 -5 49l-142 391l162 63l196 -510q52 -136 117 -136h80v-175h-115q-92 0 -173 89q-79 -89 -209 -89q-74 0 -143 37q-60 32 -82 67q-24 -43 -82 -73.5t-108 -30.5q-173 0 -244 104q-52 -104 -190 -104
h-112z" />
    <glyph glyph-name="uniFD2B" unicode="&#xfebc;&#xfeae;" horiz-adv-x="1974" arabic-form="final" 
d="M1625 313q0 100 -43 216q-52 132 -121 132h-2q-83 0 -170 -175q-68 -142 -96 -304q83 -7 147 -7q283 0 285 138zM579 0q-47 0 -95 43q-45 -229 -205 -404l-136 110q179 236 179 471q0 104 -73 303l-93 259l153 78l193 -549q47 -136 114 -136h143q61 0 80 32q13 22 13 87
q0 173 -119 467q67 23 154 75q56 -110 96 -276.5t40 -295.5q47 214 191 393t267 179q97 0 184 -104q81 -99 108 -226q12 -74 41 -221q26 -114 101 -114h87v-171h-104q-54 0 -112.5 37t-75.5 86q-33 -73 -195 -106q-108 -23 -235 -23q-238 0 -326 64q-22 -24 -91 -43
q-60 -15 -104 -15h-180z" />
    <glyph glyph-name="uniFD2C" unicode="&#xfec0;&#xfeae;" horiz-adv-x="1974" arabic-form="final" 
d="M1625 313q0 100 -43 216q-52 132 -121 132h-2q-83 0 -170 -175q-68 -142 -96 -304q83 -7 147 -7q283 0 285 138zM1535 950q-58 7 -110 7t-98 -7v188q16 7 100 9h26q49 0 82 -6v-191zM579 0q-47 0 -95 43q-45 -229 -205 -404l-136 110q179 236 179 471q0 104 -73 303
l-93 259l153 78l193 -549q47 -136 114 -136h143q61 0 80 32q13 22 13 87q0 173 -119 467q67 23 154 75q56 -110 96 -276.5t40 -295.5q47 214 191 393t267 179q97 0 184 -104q81 -99 108 -226q12 -74 41 -221q26 -114 101 -114h87v-171h-104q-54 0 -112.5 37t-75.5 86
q-33 -73 -195 -106q-108 -23 -235 -23q-238 0 -326 64q-22 -24 -91 -43q-60 -15 -104 -15h-180z" />
    <glyph glyph-name="uniFEF5" unicode="&#xfedf;&#xfe82;" horiz-adv-x="919" arabic-form="isolated" 
d="M796 361q0 -147 -69 -247q-79 -114 -218 -114h-311v175h46q0 480 -100 855l179 52q35 -144 61 -375q24 -215 24 -400q0 -100 -3 -132h54q167 0 167 173q0 157 -37 410q-39 260 -86 421l158 61q135 -415 135 -879zM699 1458q-99 -110 -219 -140q-63 -4 -190 -15
q-107 -11 -199 -97l-91 125q102 114 218 129q67 5 202 16q108 13 190 99z" />
    <glyph glyph-name="uniFEF6" unicode="&#xfee0;&#xfe82;" horiz-adv-x="954" arabic-form="final" 
d="M982 0h-73q-154 0 -199 88q-75 -88 -201 -88h-311v175h46q0 480 -100 855l179 52q35 -144 61 -375q24 -215 24 -400q0 -100 -3 -132h54q167 0 167 173q0 157 -37 410q-39 260 -86 421l158 61q135 -415 135 -879q0 -186 122 -186h64v-175zM699 1458q-99 -110 -219 -140
q-63 -4 -190 -15q-107 -11 -199 -97l-91 125q102 114 218 129q67 5 202 16q108 13 190 99z" />
    <glyph glyph-name="uniFEF7" unicode="&#xfedf;&#xfe84;" horiz-adv-x="917" arabic-form="isolated" 
d="M794 361q0 -147 -68 -247q-79 -114 -218 -114h-311v175h46q0 480 -100 855l179 52q35 -144 61 -375q24 -215 24 -400q0 -100 -4 -132h54q168 0 168 173q0 157 -37 410q-39 260 -86 421l158 61q134 -415 134 -879zM374 1307q-166 -45 -296 -121l-56 71l76 39
q-89 59 -91 136v2q0 169 277 176l4 -81q-192 -17 -192 -94q0 -40 34 -61q28 -24 74 -24q17 0 145 41z" />
    <glyph glyph-name="uniFEF8" unicode="&#xfee0;&#xfe84;" horiz-adv-x="953" arabic-form="final" 
d="M981 0h-73q-155 0 -199 88q-75 -88 -201 -88h-311v175h46q0 480 -100 855l179 52q35 -144 61 -375q24 -215 24 -400q0 -100 -4 -132h54q168 0 168 173q0 157 -37 410q-39 260 -86 421l158 61q134 -415 134 -879q0 -186 123 -186h64v-175zM374 1307q-166 -45 -296 -121
l-56 71l76 39q-89 59 -91 136v2q0 169 277 176l4 -81q-192 -17 -192 -94q0 -40 34 -61q28 -24 74 -24q17 0 145 41z" />
    <glyph glyph-name="uniFEF9" unicode="&#xfedf;&#xfe88;" horiz-adv-x="849" arabic-form="isolated" 
d="M726 361q0 -147 -69 -247q-78 -114 -218 -114h-311v175h47q0 480 -101 855l179 52q35 -144 62 -375q24 -215 24 -400q0 -100 -4 -132h54q168 0 168 173q0 157 -38 410q-39 260 -85 421l158 61q134 -415 134 -879zM449 -393q-166 -45 -296 -121l-56 71l76 39
q-89 60 -91 136v2q0 169 277 177l4 -82q-192 -17 -192 -93q0 -41 34 -62q28 -24 74 -24q17 0 145 41z" />
    <glyph glyph-name="uniFEFA" unicode="&#xfee0;&#xfe88;" horiz-adv-x="884" arabic-form="final" 
d="M912 0h-73q-154 0 -199 88q-74 -88 -201 -88h-311v175h47q0 480 -101 855l179 52q35 -144 61 -375q24 -215 24 -400q0 -100 -3 -132h54q167 0 167 173q0 157 -37 410q-39 260 -86 421l159 61q134 -415 134 -879q0 -186 123 -186h63v-175zM489 -393q-166 -45 -296 -121
l-56 71l77 39q-90 60 -92 136v1q0 170 278 178l4 -82q-192 -17 -192 -93q0 -41 33 -62q28 -24 75 -24q17 0 145 41z" />
    <glyph glyph-name="uniFEFB" unicode="&#xfedf;&#xfe8e;" horiz-adv-x="849" arabic-form="isolated" 
d="M726 361q0 -147 -69 -247q-78 -114 -218 -114h-311v175h47q0 480 -101 855l179 52q35 -144 61 -375q24 -215 24 -400q0 -100 -3 -132h54q167 0 167 173q0 157 -37 410q-39 260 -86 421l159 61q134 -415 134 -879z" />
    <glyph glyph-name="uniFEFC" unicode="&#xfee0;&#xfe8e;" horiz-adv-x="884" arabic-form="final" 
d="M912 0h-73q-154 0 -199 88q-74 -88 -201 -88h-311v175h47q0 480 -101 855l179 52q35 -144 61 -375q24 -215 24 -400q0 -100 -3 -132h54q167 0 167 173q0 157 -37 410q-39 260 -86 421l159 61q134 -415 134 -879q0 -186 123 -186h63v-175z" />
    <glyph glyph-name="uniFE8B_uniFEE4.liga" unicode="&#xfe8b;&#xfee4;" horiz-adv-x="1776" 
d="M648 598q-1 -79 -62 -191q-63 -115 -63 -156q0 -76 102 -76q69 0 120 30q57 35 59 102v7q0 28 -15 53zM1586 1028q-177 -51 -298 -121l-54 72l74 39q-89 54 -89 133v3q0 172 276 177l5 -84q-195 -14 -195 -89q0 -43 37 -61q28 -26 74 -26q12 0 146 39zM1124 0
q-52 0 -109 43q-51 37 -80 87q-99 -130 -319 -130q-205 0 -247 130q-58 -54 -158.5 -92t-178.5 -38h-60v175h60q162 0 307 164q126 141 171 316l135 -53l-94 154l149 84l324 -540q74 -125 123 -125h195q52 0 88.5 44t36.5 96q0 20 -6 46l-145 417l162 75q71 -175 158 -453
q17 -52 17 -97q0 -117 -69 -206q-73 -97 -186 -97h-274z" />
    <glyph glyph-name="uniFE8B_uniFEF0.liga" unicode="&#xfe8b;&#xfef0;" horiz-adv-x="1660" 
d="M1470 1028q-177 -51 -298 -121l-54 72l74 39q-89 54 -89 133v3q0 172 276 177l5 -84q-195 -14 -195 -89q0 -43 37 -61q28 -26 74 -26q12 0 146 39zM983 0q33 -67 35 -93q0 -142 -188 -216q-140 -54 -307 -56h-5q-444 0 -444 341q0 119 140 396q119 241 212 371l145 -93
q-91 -131 -190 -320q-117 -224 -117 -315q0 -127 89 -177q64 -37 207 -37q84 0 162 24q102 34 104 93q0 37 -38 59.5t-77 22.5v171h325v4h190q52 0 88.5 44t36.5 96q0 20 -6 46l-145 417l162 75q71 -175 158 -453q17 -52 17 -97q0 -117 -69 -206q-73 -97 -186 -97h-299z" />
    <glyph glyph-name="uniFE8B_uniFEF2.liga" unicode="&#xfe8b;&#xfef2;" horiz-adv-x="1660" 
d="M796 -464q-3 0 -16 -197q-73 19 -242 21h-24q-162 0 -230 -13l-7 195q61 15 257 15h31q171 0 231 -21zM1470 1028q-177 -51 -298 -121l-54 72l74 39q-89 54 -89 133v3q0 172 276 177l5 -84q-195 -14 -195 -89q0 -43 37 -61q28 -26 74 -26q12 0 146 39zM983 0
q33 -67 35 -93q0 -142 -188 -216q-140 -54 -307 -56h-5q-444 0 -444 341q0 119 140 396q119 241 212 371l145 -93q-91 -131 -190 -320q-117 -224 -117 -315q0 -127 89 -177q64 -37 207 -37q84 0 162 24q102 34 104 93q0 37 -38 59.5t-77 22.5v171h325v4h190q52 0 88.5 44
t36.5 96q0 20 -6 46l-145 417l162 75q71 -175 158 -453q17 -52 17 -97q0 -117 -69 -206q-73 -97 -186 -97h-299z" />
    <glyph glyph-name="uniFE91_uniFEE4.liga" unicode="&#xfe91;&#xfee4;" horiz-adv-x="1776" 
d="M648 598q-1 -79 -62 -191q-63 -115 -63 -156q0 -76 102 -76q69 0 120 30q57 35 59 102v7q0 28 -15 53zM1124 0q-52 0 -109 43q-51 37 -80 87q-99 -130 -319 -130q-205 0 -247 130q-58 -54 -158.5 -92t-178.5 -38h-60v175h60q162 0 307 164q126 141 171 316l135 -53
l-94 154l149 84l324 -540q74 -125 123 -125h195q52 0 88.5 44t36.5 96q0 20 -6 46l-145 417l162 75q71 -175 158 -453q17 -52 17 -97q0 -117 -69 -206q-73 -97 -186 -97h-274zM1524 -333q-54 6 -103 6q-56 0 -105 -8v186q24 9 102 11h29q48 0 77 -5v-190z" />
    <glyph glyph-name="uniFE92_uniFEE6.liga" unicode="&#xfe92;&#xfee6;" horiz-adv-x="1803" 
d="M657 640q-58 8 -110 8t-99 -8v187q17 9 101 11q52 0 108 -4v-194zM1180 0q-56 0 -110 43q-35 -179 -251 -261q-157 -61 -378 -61q-365 0 -367 296v6q0 109 68 283q70 178 157 286l130 -86q-61 -100 -113 -236q-60 -156 -60 -253q0 -131 201 -131q207 0 304 45
q145 63 145 240q0 181 -147 587l153 65q111 -268 165 -518q12 -50 45.5 -90t74.5 -40h154q57 0 91.5 40t34.5 100q0 28 -5 46l-144 417l162 75q53 -132 213 -613q22 -65 69 -65h59v-175h-59q-116 0 -179 102q-82 -102 -183 -102h-230zM1647 -335q-58 5 -110 5q-54 0 -101 -5
v186q21 8 103 9h27q46 0 81 -5v-190z" />
    <glyph glyph-name="uniFE91_uniFEF0.liga" unicode="&#xfe91;&#xfef0;" horiz-adv-x="1640" 
d="M983 0q33 -67 35 -93q0 -142 -188 -216q-140 -54 -307 -56h-5q-444 0 -444 341q0 119 140 396q119 241 212 371l145 -93q-91 -131 -190 -320q-117 -224 -117 -315q0 -127 89 -177q64 -37 207 -37q84 0 162 24q102 34 104 93q0 37 -38 59.5t-77 22.5v171h305v4h190
q52 0 88.5 44t36.5 96q0 20 -6 46l-145 417l162 75q71 -175 158 -453q17 -52 17 -97q0 -117 -69 -206q-73 -97 -186 -97h-279zM1388 -333q-54 6 -103 6q-56 0 -105 -8v186q24 9 102 11h29q48 0 77 -5v-190z" />
    <glyph glyph-name="uniFE91_uniFEF2.liga" unicode="&#xfe91;&#xfef2;" horiz-adv-x="1640" 
d="M796 -464q-3 0 -16 -197q-73 19 -242 21h-24q-162 0 -230 -13l-7 195q61 15 257 15h31q171 0 231 -21zM983 0q33 -67 35 -93q0 -142 -188 -216q-140 -54 -307 -56h-5q-444 0 -444 341q0 119 140 396q119 241 212 371l145 -93q-91 -131 -190 -320q-117 -224 -117 -315
q0 -127 89 -177q64 -37 207 -37q84 0 162 24q102 34 104 93q0 37 -38 59.5t-77 22.5v171h305v4h190q52 0 88.5 44t36.5 96q0 20 -6 46l-145 417l162 75q71 -175 158 -453q17 -52 17 -97q0 -117 -69 -206q-73 -97 -186 -97h-279zM1388 -333q-54 6 -103 6q-56 0 -105 -8v186
q24 9 102 11h29q48 0 77 -5v-190z" />
    <glyph glyph-name="uniFE97_uniFEE4.liga" unicode="&#xfe97;&#xfee4;" horiz-adv-x="1845" 
d="M649 598q-1 -79 -62 -191q-63 -115 -63 -156q0 -76 102 -76q69 0 120 30q57 35 59 102v7q0 28 -15 53zM1125 0q-52 0 -109 43q-51 37 -80 87q-99 -130 -319 -130q-205 0 -247 130q-58 -54 -158.5 -92t-178.5 -38h-60v175h60q162 0 307 164q126 141 171 316l135 -53
l-94 154l149 84l324 -540q74 -125 123 -125h250q52 0 91 41q34 47 36 99v7q0 17 -8 39l-143 417l164 75q76 -196 158 -453q13 -46 13 -97q0 -115 -67 -204q-75 -99 -186 -99h-331zM1722 1143q-4 0 -17 -199q-70 15 -244 19q-31 1 -59 1q-122 0 -192 -11l-7 194q72 15 258 17
h16q172 0 245 -21z" />
    <glyph glyph-name="uniFE98_uniFEE6.liga" unicode="&#xfe98;&#xfee6;" horiz-adv-x="1880" 
d="M657 640q-58 8 -110 8t-99 -8v187q17 9 101 11q52 0 108 -4v-194zM1180 0q-56 0 -110 43q-35 -179 -251 -261q-157 -61 -378 -61q-365 0 -367 296v6q0 109 68 283q70 178 157 286l130 -86q-61 -100 -113 -236q-60 -156 -60 -253q0 -131 201 -131q207 0 304 45
q145 63 145 240q0 181 -147 587l153 65q111 -268 165 -518q12 -50 45.5 -90t74.5 -40h222q56 0 90.5 41t34.5 99q0 28 -8 46l-143 417l162 75q54 -132 214 -613q20 -65 69 -65h69v-175h-69q-116 0 -181 102q-80 -102 -182 -102h-295zM1744 1149q-4 -21 -15 -196
q-71 15 -244 17q-36 1 -68 1q-120 0 -185 -12l-6 193q67 17 257 19h28q166 0 233 -22z" />
    <glyph glyph-name="uniFE97_uniFEF0.liga" unicode="&#xfe97;&#xfef0;" horiz-adv-x="1698" 
d="M983 0q33 -67 35 -93q0 -142 -188 -216q-140 -54 -307 -56h-5q-444 0 -444 341q0 119 140 396q119 241 212 371l145 -93q-91 -131 -190 -320q-117 -224 -117 -315q0 -127 89 -177q64 -37 207 -37q84 0 162 24q102 34 104 93q0 37 -38 59.5t-77 22.5v171h285v4h255
q52 0 91 41q34 47 36 99v7q0 17 -8 39l-143 417l164 75q76 -196 158 -453q13 -46 13 -97q0 -115 -67 -204q-75 -99 -186 -99h-326zM1575 1143q-4 0 -17 -199q-70 15 -244 19q-31 1 -59 1q-122 0 -192 -11l-7 194q72 15 258 17h16q172 0 245 -21z" />
    <glyph glyph-name="uniFE97_uniFEF2.liga" unicode="&#xfe97;&#xfef2;" horiz-adv-x="1698" 
d="M796 -464q-3 0 -16 -197q-73 19 -242 21h-24q-162 0 -230 -13l-7 195q61 15 257 15h31q171 0 231 -21zM983 0q33 -67 35 -93q0 -142 -188 -216q-140 -54 -307 -56h-5q-444 0 -444 341q0 119 140 396q119 241 212 371l145 -93q-91 -131 -190 -320q-117 -224 -117 -315
q0 -127 89 -177q64 -37 207 -37q84 0 162 24q102 34 104 93q0 37 -38 59.5t-77 22.5v171h285v4h255q52 0 91 41q34 47 36 99v7q0 17 -8 39l-143 417l164 75q76 -196 158 -453q13 -46 13 -97q0 -115 -67 -204q-75 -99 -186 -99h-326zM1575 1143q-4 0 -17 -199q-70 15 -244 19
q-31 1 -59 1q-122 0 -192 -11l-7 194q72 15 258 17h16q172 0 245 -21z" />
    <glyph glyph-name="uniFE9C_uniFEAE.liga" unicode="&#xfe9c;&#xfeae;" horiz-adv-x="1274" 
d="M967 1225q-56 6 -105 6q-57 0 -104 -8v188q17 8 101 8q83 0 108 -4v-190zM579 0q-47 0 -95 43q-45 -229 -205 -404l-136 110q179 236 179 471q0 104 -73 303l-93 259l153 78l193 -549q47 -136 114 -136h198q56 0 90.5 41t34.5 99q0 28 -8 46l-143 417l162 75
q54 -132 214 -613q20 -65 69 -65h69v-175h-69q-116 0 -181 102q-80 -102 -182 -102h-291zM1129 1149q-4 -21 -15 -196q-71 15 -244 17q-36 1 -68 1q-120 0 -185 -12l-6 193q67 17 257 19h28q166 0 233 -22z" />
    <glyph glyph-name="uniFE9B_uniFEE4.liga" unicode="&#xfe9b;&#xfee4;" horiz-adv-x="1844" 
d="M648 598q-1 -79 -62 -191q-63 -115 -63 -156q0 -76 102 -76q69 0 120 30q57 35 59 102v7q0 28 -15 53zM1557 1216q-58 7 -110 7t-100 -7v188q18 7 104 9h28q46 0 78 -5v-192zM1124 0q-52 0 -109 43q-51 37 -80 87q-99 -130 -319 -130q-205 0 -247 130q-58 -54 -158.5 -92
t-178.5 -38h-60v175h60q162 0 307 164q126 141 171 316l135 -53l-94 154l149 84l324 -540q74 -125 123 -125h250q52 0 91 41q34 47 36 99v7q0 17 -8 39l-143 417l164 75q76 -196 158 -453q13 -46 13 -97q0 -115 -67 -204q-75 -99 -186 -99h-331zM1721 1143q-4 0 -17 -199
q-70 15 -244 19q-31 1 -59 1q-122 0 -192 -11l-7 194q72 15 258 17h16q172 0 245 -21z" />
    <glyph glyph-name="uniFE9C_uniFEE6.liga" unicode="&#xfe9c;&#xfee6;" horiz-adv-x="1880" 
d="M657 640q-58 8 -110 8t-99 -8v187q17 9 101 11q52 0 108 -4v-194zM1582 1225q-56 6 -105 6q-57 0 -104 -8v188q17 8 101 8q83 0 108 -4v-190zM1180 0q-56 0 -110 43q-35 -179 -251 -261q-157 -61 -378 -61q-365 0 -367 296v6q0 109 68 283q70 178 157 286l130 -86
q-61 -100 -113 -236q-60 -156 -60 -253q0 -131 201 -131q207 0 304 45q145 63 145 240q0 181 -147 587l153 65q111 -268 165 -518q12 -50 45.5 -90t74.5 -40h222q56 0 90.5 41t34.5 99q0 28 -8 46l-143 417l162 75q54 -132 214 -613q20 -65 69 -65h69v-175h-69
q-116 0 -181 102q-80 -102 -182 -102h-295zM1744 1149q-4 -21 -15 -196q-71 15 -244 17q-36 1 -68 1q-120 0 -185 -12l-6 193q67 17 257 19h28q166 0 233 -22z" />
    <glyph glyph-name="uniFE9B_uniFEF0.liga" unicode="&#xfe9b;&#xfef0;" horiz-adv-x="1698" 
d="M1411 1216q-58 7 -110 7t-100 -7v188q18 7 104 9h28q46 0 78 -5v-192zM983 0q33 -67 35 -93q0 -142 -188 -216q-140 -54 -307 -56h-5q-444 0 -444 341q0 119 140 396q119 241 212 371l145 -93q-91 -131 -190 -320q-117 -224 -117 -315q0 -127 89 -177q64 -37 207 -37
q84 0 162 24q102 34 104 93q0 37 -38 59.5t-77 22.5v171h285v4h255q52 0 91 41q34 47 36 99v7q0 17 -8 39l-143 417l164 75q76 -196 158 -453q13 -46 13 -97q0 -115 -67 -204q-75 -99 -186 -99h-326zM1575 1143q-4 0 -17 -199q-70 15 -244 19q-31 1 -59 1q-122 0 -192 -11
l-7 194q72 15 258 17h16q172 0 245 -21z" />
    <glyph glyph-name="uniFE9B_uniFEF2.liga" unicode="&#xfe9b;&#xfef2;" horiz-adv-x="1698" 
d="M796 -464q-3 0 -16 -197q-73 19 -242 21h-24q-162 0 -230 -13l-7 195q61 15 257 15h31q171 0 231 -21zM1411 1216q-58 7 -110 7t-100 -7v188q18 7 104 9h28q46 0 78 -5v-192zM983 0q33 -67 35 -93q0 -142 -188 -216q-140 -54 -307 -56h-5q-444 0 -444 341q0 119 140 396
q119 241 212 371l145 -93q-91 -131 -190 -320q-117 -224 -117 -315q0 -127 89 -177q64 -37 207 -37q84 0 162 24q102 34 104 93q0 37 -38 59.5t-77 22.5v171h285v4h255q52 0 91 41q34 47 36 99v7q0 17 -8 39l-143 417l164 75q76 -196 158 -453q13 -46 13 -97
q0 -115 -67 -204q-75 -99 -186 -99h-326zM1575 1143q-4 0 -17 -199q-70 15 -244 19q-31 1 -59 1q-122 0 -192 -11l-7 194q72 15 258 17h16q172 0 245 -21z" />
    <glyph glyph-name="uniFEDB_uniFEF0.liga" unicode="&#xfedb;&#xfef0;" horiz-adv-x="2001" 
d="M983 0q33 -67 35 -93q0 -142 -188 -216q-140 -54 -307 -56h-5q-444 0 -444 341q0 119 140 396q119 241 212 371l145 -93q-91 -131 -190 -320q-117 -224 -117 -315q0 -127 89 -177q64 -37 207 -37q84 0 162 24q102 34 104 93q0 37 -38 59.5t-77 22.5v171h275v4h579
q97 0 97 102v23l-34 247q-13 99 -156 144q-37 11 -128 13q-25 1 -46 1q-48 0 -72 -5q-11 0 -35 -4q-91 0 -93 110q0 19 5 56l15 82q11 61 67 115q69 64 166 82q50 8 188 10h14q141 0 230 -19v-169q-134 27 -218 27h-17q-270 0 -270 -128q190 0 267 -19q221 -54 244 -242
l37 -316q2 -19 2 -34q0 -100 -54 -171q-60 -80 -147 -80h-644z" />
    <glyph glyph-name="uniFEDC_uniFEF0.liga" unicode="&#xfedc;&#xfef0;" horiz-adv-x="1976" 
d="M983 0q33 -67 35 -93q0 -142 -188 -216q-140 -54 -307 -56h-5q-444 0 -444 341q0 119 140 396q119 241 212 371l145 -93q-91 -131 -190 -320q-117 -224 -117 -315q0 -127 89 -177q64 -37 207 -37q84 0 162 24q102 34 104 93q0 37 -38 59.5t-77 22.5v171h275v4h579
q97 0 97 102v23l-34 247q-13 99 -156 144q-37 11 -128 13q-25 1 -46 1q-48 0 -72 -5q-11 0 -35 -4q-91 0 -93 110q0 19 5 56l15 82q11 61 67 115q69 64 166 82q50 8 188 10h14q141 0 230 -19v-169q-134 27 -218 27h-17q-270 0 -270 -128q190 0 267 -19q221 -54 244 -242
l35 -286q17 -140 97 -140h83v-175h-117q-67 0 -119 67q-60 -67 -141 -67h-644z" />
    <glyph glyph-name="uniFEDB_uniFEF2.liga" unicode="&#xfedb;&#xfef2;" horiz-adv-x="2001" 
d="M796 -464q-3 0 -16 -197q-73 19 -242 21h-24q-162 0 -230 -13l-7 195q61 15 257 15h31q171 0 231 -21zM983 0q33 -67 35 -93q0 -142 -188 -216q-140 -54 -307 -56h-5q-444 0 -444 341q0 119 140 396q119 241 212 371l145 -93q-91 -131 -190 -320q-117 -224 -117 -315
q0 -127 89 -177q64 -37 207 -37q84 0 162 24q102 34 104 93q0 37 -38 59.5t-77 22.5v171h275v4h579q97 0 97 102v23l-34 247q-13 99 -156 144q-37 11 -128 13q-25 1 -46 1q-48 0 -72 -5q-11 0 -35 -4q-91 0 -93 110q0 19 5 56l15 82q11 61 67 115q69 64 166 82q50 8 188 10
h14q141 0 230 -19v-169q-134 27 -218 27h-17q-270 0 -270 -128q190 0 267 -19q221 -54 244 -242l37 -316q2 -19 2 -34q0 -100 -54 -171q-60 -80 -147 -80h-644z" />
    <glyph glyph-name="uniFEDC_uniFEF2.liga" unicode="&#xfedc;&#xfef2;" horiz-adv-x="1977" 
d="M796 -464q-3 0 -16 -197q-73 19 -242 21h-24q-162 0 -230 -13l-7 195q61 15 257 15h31q171 0 231 -21zM983 0q33 -67 35 -93q0 -142 -188 -216q-140 -54 -307 -56h-5q-444 0 -444 341q0 119 140 396q119 241 212 371l145 -93q-91 -131 -190 -320q-117 -224 -117 -315
q0 -127 89 -177q64 -37 207 -37q84 0 162 24q102 34 104 93q0 37 -38 59.5t-77 22.5v171h275v4h579q97 0 97 102v23l-34 247q-13 99 -156 144q-37 11 -128 13q-25 1 -46 1q-48 0 -72 -5q-11 0 -35 -4q-91 0 -93 110q0 19 5 56l15 82q11 61 67 115q69 64 166 82q50 8 188 10
h14q141 0 230 -19v-169q-134 27 -218 27h-17q-270 0 -270 -128q190 0 267 -19q221 -54 244 -242l35 -286q17 -140 97 -140h83v-175h-117q-67 0 -119 67q-60 -67 -141 -67h-644z" />
    <glyph glyph-name="uniFEDF_uniFB51.rlig" unicode="&#xfedf;&#xfb51;" horiz-adv-x="918" 
d="M795 361q0 -147 -68 -247q-79 -114 -218 -114h-311v175h46q0 480 -100 855l179 52q35 -144 61 -375q24 -215 24 -400q0 -100 -3 -132h54q167 0 167 173q0 157 -37 410q-39 260 -86 421l158 61q134 -415 134 -879zM491 1433q0 32 -14 70q-18 42 -42 42q-29 0 -59 -56
q-23 -46 -46 -135q47 8 97 24q63 23 64 55zM264 1346l21 74q0 1 1 1q16 73 65 134t91 61q32 0 63 -35q24 -29 37 -77q8 -33 8 -61q0 -37 -15 -61q-58 -56 -111.5 -75.5t-88.5 -28t-67 -11.5l-25 -1q-66 2 -71 80v61q0 27 -27 27h-4q-26 0 -50 -33q-26 -36 -26 -69
q0 -26 17 -76l-58 -50q-4 11 -9 23q-22 62 -22 107q0 65 63 124q59 58 112 58h3q21 0 41 -15q23 -17 23 -51v-4q-1 -21 -3 -49q5 -52 32 -53z" />
    <glyph glyph-name="uniFEE0_uniFB51.rlig" unicode="&#xfee0;&#xfb51;" horiz-adv-x="954" 
d="M982 0h-73q-154 0 -199 88q-75 -88 -201 -88h-311v175h46q0 480 -100 855l179 52q35 -144 61 -375q24 -215 24 -400q0 -100 -3 -132h54q167 0 167 173q0 157 -37 410q-39 260 -86 421l158 61q134 -415 134 -879q0 -186 123 -186h64v-175zM491 1433q0 32 -14 70
q-18 42 -42 42q-29 0 -59 -56q-23 -46 -46 -135q47 8 97 24q63 23 64 55zM264 1346l21 74q0 1 1 1q16 73 65 134t91 61q32 0 63 -35q24 -29 37 -77q8 -33 8 -61q0 -37 -15 -61q-58 -56 -111.5 -75.5t-88.5 -28t-67 -11.5l-25 -1q-66 2 -71 80v61q0 27 -27 27h-4
q-26 0 -50 -33q-26 -36 -26 -69q0 -26 17 -76l-58 -50q-4 11 -9 23q-22 62 -22 107q0 65 63 124q59 58 112 58h3q21 0 41 -15q23 -17 23 -51v-4q-1 -21 -3 -49q5 -52 32 -53z" />
    <glyph glyph-name="uniFEDF_uniFEE2.liga" unicode="&#xfedf;&#xfee2;" horiz-adv-x="1680" 
d="M1130 0q-49 0 -108 45q-54 39 -82 85q-101 -130 -319 -130q-262 0 -262 212q0 34 48 162q49 123 49 145q0 8 -8 8q-37 0 -121 -117q-89 -127 -89 -235q0 -112 110 -223q98 -101 214 -140l-80 -142q-155 49 -280 200q-128 158 -128 314q0 205 149 382q134 156 259 156
q56 0 100.5 -38t44.5 -94q0 -91 -45.5 -207.5t-45.5 -151.5q0 -56 104 -56q65 0 114 30q55 35 57 98v6q0 29 -18 58l-237 389l149 84l324 -540q75 -125 123 -125h127q108 0 110 155q0 121 -48 422q-39 242 -91 432l158 62q149 -481 149 -916q0 -120 -49 -213
q-59 -117 -169 -117h-209z" />
    <glyph glyph-name="uniFEE4_uniFE8E.liga" unicode="&#xfee4;&#xfe8e;" horiz-adv-x="1691" 
d="M1166 598q-1 -79 -62 -191q-63 -115 -63 -156q0 -76 102 -76q69 0 120 30q57 35 59 102v7q0 28 -15 53zM351 0q-141 0 -214 115q-63 97 -63 246q0 194 44 442.5t111 423.5l171 -52q-58 -142 -104 -414q-40 -230 -40 -389q0 -113 43 -163q38 -34 118 -34h133
q162 0 307 164q126 141 171 316l135 -53l-94 154l149 84l324 -540q74 -125 123 -125h54v-175h-77q-52 0 -109 43q-51 37 -80 87q-99 -130 -319 -130q-205 0 -247 130q-58 -54 -158.5 -92t-178.5 -38h-199z" />
    <glyph glyph-name="uniFEE4_uniFE82.liga" unicode="&#xfee4;&#xfe82;" horiz-adv-x="1717" 
d="M740 1540q-119 -110 -265 -140q-76 -4 -229 -15q-128 -11 -236 -97l-110 125q123 114 263 129q78 5 238 16q136 13 231 99zM1192 598q-1 -79 -62 -191q-63 -115 -63 -156q0 -76 102 -76q69 0 120 30q57 35 59 102v7q0 28 -15 53zM380 0q-139 0 -214 115q-63 99 -63 246
q0 198 43.5 441.5t112.5 424.5l170 -52q-67 -170 -106 -414q-38 -227 -38 -389q0 -100 30 -145q37 -52 131 -52h130q162 0 307 164q126 141 171 316l135 -53l-94 154l149 84l324 -540q74 -125 123 -125h54v-175h-77q-52 0 -109 43q-51 37 -80 87q-99 -130 -319 -130
q-205 0 -247 130q-58 -54 -158.5 -92t-178.5 -38h-196z" />
    <glyph glyph-name="uniFEE4_uniFE84.liga" unicode="&#xfee4;&#xfe84;" horiz-adv-x="1691" 
d="M445 1430q-166 -45 -297 -121l-55 71l76 39q-89 59 -91 136v2q0 169 277 176l4 -82q-192 -16 -192 -93q0 -41 34 -61q28 -24 74 -24q17 0 145 41zM1166 598q-1 -79 -62 -191q-63 -115 -63 -156q0 -76 102 -76q69 0 120 30q57 35 59 102v7q0 28 -15 53zM351 0
q-141 0 -214 115q-63 97 -63 246q0 194 44 442.5t111 423.5l171 -52q-58 -142 -104 -414q-40 -230 -40 -389q0 -113 43 -163q38 -34 118 -34h133q162 0 307 164q126 141 171 316l135 -53l-94 154l149 84l324 -540q74 -125 123 -125h54v-175h-77q-52 0 -109 43q-51 37 -80 87
q-99 -130 -319 -130q-205 0 -247 130q-58 -54 -158.5 -92t-178.5 -38h-199z" />
    <glyph glyph-name="uniFEE4_uniFE88.liga" unicode="&#xfee4;&#xfe88;" horiz-adv-x="1708" 
d="M441 -393q-166 -45 -296 -121l-56 71l76 39q-89 60 -91 136v2q0 169 277 177l4 -82q-192 -17 -192 -93q0 -41 34 -62q28 -24 74 -24q17 0 145 41zM1183 598q-1 -79 -62 -191q-63 -115 -63 -156q0 -76 102 -76q69 0 120 30q57 35 59 102v7q0 28 -15 53zM368 0
q-141 0 -214 115q-63 97 -63 246q0 194 43.5 442.5t110.5 423.5l171 -52q-57 -142 -104 -414q-39 -230 -39 -389q0 -113 43 -163q37 -34 117 -34h134q162 0 307 164q126 141 171 316l135 -53l-94 154l149 84l324 -540q74 -125 123 -125h54v-175h-77q-52 0 -109 43
q-51 37 -80 87q-99 -130 -319 -130q-205 0 -247 130q-58 -54 -158.5 -92t-178.5 -38h-199z" />
    <glyph glyph-name="uniFEE8_uniFEAE.liga" unicode="&#xfee8;&#xfeae;" horiz-adv-x="1178" 
d="M949 948q-59 7 -112 7q-52 0 -100 -7v186q20 9 102 11h25q49 0 85 -6v-191zM579 0q-47 0 -95 43q-45 -229 -205 -404l-136 110q179 236 179 471q0 104 -73 303l-93 259l153 78l193 -549q47 -136 114 -136h110q57 0 91.5 40t34.5 100q0 28 -5 46l-144 417l162 75
q53 -132 213 -613q22 -65 69 -65h59v-175h-59q-116 0 -179 102q-82 -102 -183 -102h-206z" />
    <glyph glyph-name="uniFEE7_uniFEE4.liga" unicode="&#xfee7;&#xfee4;" horiz-adv-x="1776" 
d="M648 598q-1 -79 -62 -191q-63 -115 -63 -156q0 -76 102 -76q69 0 120 30q57 35 59 102v7q0 28 -15 53zM1470 953q-53 5 -100 5q-59 0 -108 -8v188q20 9 100 9q84 0 108 -4v-190zM1124 0q-52 0 -109 43q-51 37 -80 87q-99 -130 -319 -130q-205 0 -247 130
q-58 -54 -158.5 -92t-178.5 -38h-60v175h60q162 0 307 164q126 141 171 316l135 -53l-94 154l149 84l324 -540q74 -125 123 -125h195q52 0 88.5 44t36.5 96q0 20 -6 46l-145 417l162 75q71 -175 158 -453q17 -52 17 -97q0 -117 -69 -206q-73 -97 -186 -97h-274z" />
    <glyph glyph-name="uniFEE7_uniFEF0.liga" unicode="&#xfee7;&#xfef0;" horiz-adv-x="1620" 
d="M1314 953q-53 5 -100 5q-59 0 -108 -8v188q20 9 100 9q84 0 108 -4v-190zM983 0q33 -67 35 -93q0 -142 -188 -216q-140 -54 -307 -56h-5q-444 0 -444 341q0 119 140 396q119 241 212 371l145 -93q-91 -131 -190 -320q-117 -224 -117 -315q0 -127 89 -177q64 -37 207 -37
q84 0 162 24q102 34 104 93q0 37 -38 59.5t-77 22.5v171h285v4h190q52 0 88.5 44t36.5 96q0 20 -6 46l-145 417l162 75q71 -175 158 -453q17 -52 17 -97q0 -117 -69 -206q-73 -97 -186 -97h-259z" />
    <glyph glyph-name="uniFEE7_uniFEF2.liga" unicode="&#xfee7;&#xfef2;" horiz-adv-x="1620" 
d="M796 -464q-3 0 -16 -197q-73 19 -242 21h-24q-162 0 -230 -13l-7 195q61 15 257 15h31q171 0 231 -21zM1314 953q-53 5 -100 5q-59 0 -108 -8v188q20 9 100 9q84 0 108 -4v-190zM983 0q33 -67 35 -93q0 -142 -188 -216q-140 -54 -307 -56h-5q-444 0 -444 341
q0 119 140 396q119 241 212 371l145 -93q-91 -131 -190 -320q-117 -224 -117 -315q0 -127 89 -177q64 -37 207 -37q84 0 162 24q102 34 104 93q0 37 -38 59.5t-77 22.5v171h285v4h190q52 0 88.5 44t36.5 96q0 20 -6 46l-145 417l162 75q71 -175 158 -453q17 -52 17 -97
q0 -117 -69 -206q-73 -97 -186 -97h-259z" />
    <glyph glyph-name="uniFEF4_uniFEAE.liga" unicode="&#xfef4;&#xfeae;" horiz-adv-x="1264" 
d="M579 0q-47 0 -95 43q-45 -229 -205 -404l-136 110q179 236 179 471q0 104 -73 303l-93 259l153 78l193 -549q47 -136 114 -136h188q56 0 90.5 41t34.5 99q0 28 -8 46l-143 417l162 75q54 -132 214 -613q20 -65 69 -65h69v-175h-69q-116 0 -181 102q-80 -102 -182 -102
h-281zM1215 -155q-7 0 -18 -197q-62 17 -242 21h-23q-155 0 -229 -13l-9 195q62 15 261 15h30q168 0 230 -21z" />
    <glyph glyph-name="uniFEF3_uniFEE4.liga" unicode="&#xfef3;&#xfee4;" horiz-adv-x="1831" 
d="M648 598q-1 -79 -62 -191q-63 -115 -63 -156q0 -76 102 -76q69 0 120 30q57 35 59 102v7q0 28 -15 53zM1124 0q-52 0 -109 43q-51 37 -80 87q-99 -130 -319 -130q-205 0 -247 130q-58 -54 -158.5 -92t-178.5 -38h-60v175h60q162 0 307 164q126 141 171 316l135 -53
l-94 154l149 84l324 -540q74 -125 123 -125h250q52 0 91 41q34 47 36 99v7q0 17 -8 39l-143 417l164 75q76 -196 158 -453q13 -46 13 -97q0 -115 -67 -204q-75 -99 -186 -99h-331zM1737 -155q-4 -20 -15 -197q-67 17 -244 21h-23q-157 0 -228 -13l-10 195q60 15 259 15h31
q172 0 230 -21z" />
    <glyph glyph-name="uniFEF4_uniFEE6.liga" unicode="&#xfef4;&#xfee6;" horiz-adv-x="1869" 
d="M657 640q-58 8 -110 8t-99 -8v187q17 9 101 11q52 0 108 -4v-194zM1180 0q-56 0 -110 43q-35 -179 -251 -261q-157 -61 -378 -61q-365 0 -367 296v6q0 109 68 283q70 178 157 286l130 -86q-61 -100 -113 -236q-60 -156 -60 -253q0 -131 201 -131q207 0 304 45
q145 63 145 240q0 181 -147 587l153 65q111 -268 165 -518q12 -50 45.5 -90t74.5 -40h212q56 0 90.5 41t34.5 99q0 28 -8 46l-143 417l162 75q54 -132 214 -613q20 -65 69 -65h69v-175h-69q-116 0 -181 102q-80 -102 -182 -102h-285zM1820 -155q-7 0 -18 -197
q-62 17 -242 21h-23q-155 0 -229 -13l-9 195q62 15 261 15h30q168 0 230 -21z" />
    <glyph glyph-name="T_h.liga" unicode="Th" horiz-adv-x="1769" 
d="M898 1180h-341v-1180h-176v1180h-375v120h892v111h164v-430q53 66 246 66q236 0 339 -208q50 -103 50 -257q0 -239 -116 -582h-167q123 289 123 567q0 179 -67 278q-60 91 -179 91q-87 0 -157 -62q-72 -63 -72 -186v-688h-164v1180z" />
    <glyph glyph-name="f_b.liga" unicode="fb" horiz-adv-x="1402" 
d="M536 926h-160v-1030h-160v1030h-137v104h141v146q0 109 66 178q51 55 143 55q81 0 107 -14v16h168v-412q48 60 244 60q168 0 270 -108q125 -134 125 -369q0 -217 -88 -372q-119 -210 -400 -210h-319v926zM704 773v-669h119q358 0 358 484q0 190 -77 281q-70 83 -165 83
q-88 0 -166 -67q-54 -46 -69 -112zM536 1030v199l-20 -19q-46 90 -83 90q-55 0 -55 -131v-139h158z" />
    <glyph glyph-name="f_f_b.liga" unicode="ffb" horiz-adv-x="1752" 
d="M884 1237l-28 -27q-46 90 -83 90q-55 0 -55 -131v-139h166v207zM1454 869q-70 83 -165 83q-88 0 -166 -67q-75 -64 -75 -168v-613h125q358 0 358 484q0 190 -77 281zM564 1229q-73 71 -141 71h-11q-55 0 -55 -131v-139h203v146q0 28 4 53zM884 0v926h-168v-1030h-160
v1030h-201v-1030h-160v1030h-137v104h141v146q0 109 66 178q51 55 143 55q135 -2 203 -70l15 15q51 55 143 55q96 0 115 -20v22h164v-421q40 69 250 69q168 0 270 -108q125 -134 125 -369q0 -217 -88 -372q-119 -210 -400 -210h-321z" />
    <glyph glyph-name="f_f.liga" unicode="ff" horiz-adv-x="907" 
d="M559 1030v146q0 17 2 32q-76 92 -129 92q-74 0 -74 -110v-160h201zM356 926v-1030h-160v1030h-137v104h141v160q0 219 232 219q101 0 182 -67q5 6 11 12q51 55 143 55q147 0 186 -103l-99 -96q-46 90 -83 90q-55 0 -55 -131v-139h207v-104h-209v-1030h-160v1030h-199z
" />
    <glyph glyph-name="f_h.liga" unicode="fh" horiz-adv-x="1419" 
d="M544 1237l-28 -27q-46 90 -83 90q-55 0 -55 -131v-139h166v207zM544 0v926h-168v-1030h-160v1030h-137v104h141v146q0 109 66 178q51 55 143 55q96 0 115 -20v22h168v-430q53 66 246 66q236 0 339 -208q50 -103 50 -257q0 -239 -116 -582h-167q123 289 123 567
q0 179 -67 278q-60 91 -179 91q-87 0 -157 -62q-72 -63 -72 -186v-688h-168z" />
    <glyph glyph-name="f_f_h.liga" unicode="ffh" horiz-adv-x="1749" 
d="M559 1030v146q0 17 2 32q-76 92 -129 92q-74 0 -74 -110v-160h201zM878 1388v23h164v-430q53 66 246 66q236 0 339 -208q50 -103 50 -257q0 -239 -116 -582h-167q123 289 123 567q0 179 -67 278q-60 91 -179 91q-87 0 -157 -62q-72 -63 -72 -186v-688h-164v926h-163
v-1030h-160v1030h-199v-1030h-160v1030h-137v104h141v160q0 219 232 219q101 0 182 -67q5 6 11 12q51 55 143 55q66 0 110 -21zM878 1030v202l-23 -22q-46 90 -83 90q-55 0 -55 -131v-139h161z" />
    <glyph glyph-name="f_f_i.liga" unicode="ffi" horiz-adv-x="1214" 
d="M589 1318q53 91 203 91q135 0 234 -120l-93 -96q-84 107 -141 107q-74 0 -74 -110v-160h352v-1030h-162v926h-192v-1030h-160v1030h-201v-1030h-160v1030h-137v104h141v146q0 109 66 178q51 55 143 55q138 0 181 -91zM560 1030v160q0 56 15 98l-80 -78q-46 90 -83 90
q-55 0 -55 -131v-139h203z" />
    <glyph glyph-name="f_j.liga" unicode="fj" horiz-adv-x="854" 
d="M549 0h-1v926h-192v-1030h-160v1030h-137v104h141v160q0 219 232 219q135 0 234 -120l-93 -96q-84 107 -141 107q-74 0 -74 -110v-160h352v-1030h-4v-135q0 -250 -266 -250l2 106q107 3 107 148v131z" />
    <glyph glyph-name="f_f_j.liga" unicode="ffj" horiz-adv-x="1214" 
d="M560 1030v160q0 56 15 98l-80 -78q-46 90 -83 90q-55 0 -55 -131v-139h203zM909 0h-1v926h-192v-1030h-160v1030h-201v-1030h-160v1030h-137v104h141v146q0 109 66 178q51 55 143 55q138 0 181 -91q53 91 203 91q135 0 234 -120l-93 -96q-84 107 -141 107q-74 0 -74 -110
v-160h352v-1030h-4v-135q0 -250 -266 -250l2 106q107 3 107 148v131z" />
    <glyph glyph-name="f_k.liga" unicode="fk" horiz-adv-x="1263" 
d="M544 1237l-28 -27q-46 90 -83 90q-55 0 -55 -131v-139h166v207zM544 0v926h-168v-1030h-160v1030h-137v104h141v146q0 109 66 178q51 55 143 55q96 0 115 -20v22h168v-977q129 0 237 105q105 102 105 280q0 106 -40 211h155q45 -96 45 -207q0 -299 -255 -434
q190 -205 267 -389h-185q-65 162 -223 337q-45 -13 -106 -13v-324h-168z" />
    <glyph glyph-name="f_f_k.liga" unicode="ffk" horiz-adv-x="1593" 
d="M884 1237l-28 -27q-46 90 -83 90q-55 0 -55 -131v-139h166v207zM564 1229q-73 71 -141 71h-11q-55 0 -55 -131v-139h203v146q0 28 4 53zM878 926h-162v-1030h-160v1030h-201v-1030h-160v1030h-137v104h141v146q0 109 66 178q51 55 143 55q135 -2 203 -70l15 15
q51 55 143 55q84 0 109 -15v17h166v-977q128 1 235 105q105 102 105 280q0 106 -40 211h155q45 -96 45 -207q0 -299 -255 -434q190 -205 267 -389h-185q-65 162 -223 337q-44 -13 -104 -13v-324h-166v926z" />
    <glyph glyph-name="f_f_l.liga" unicode="ffl" horiz-adv-x="1189" 
d="M884 1237l-28 -27q-46 90 -83 90q-55 0 -55 -131v-139h166v207zM564 1229q-73 71 -141 71h-11q-55 0 -55 -131v-139h203v146q0 28 4 53zM611 1339l15 15q51 55 143 55q96 0 115 -20v22h160v-1411h-160v926h-168v-1030h-160v1030h-201v-1030h-160v1030h-137v104h141v146
q0 109 66 178q51 55 143 55q135 -2 203 -70z" />
    <glyph glyph-name="f_t.liga" unicode="ft" horiz-adv-x="879" 
d="M432 1300q-74 0 -74 -110v-160h195v111h160v-111h148v-104h-151v-926h-162v926h-192v-1030h-160v1030h-137v104h141v160q0 219 232 219q120 0 211 -94l-91 -96q-70 81 -120 81z" />
    <glyph glyph-name="f_f_t.liga" unicode="fft" horiz-adv-x="1239" 
d="M560 1030v160q0 56 15 98l-80 -78q-46 90 -83 90q-55 0 -55 -131v-139h203zM792 1300q-74 0 -74 -110v-160h195v111h160v-111h148v-104h-151v-926h-162v926h-192v-1030h-160v1030h-201v-1030h-160v1030h-137v104h141v146q0 109 66 178q51 55 143 55q138 0 181 -91
q53 91 203 91q119 0 210 -93l-90 -97q-70 81 -120 81z" />
    <glyph glyph-name="uni0647.fina" unicode="&#x647;" horiz-adv-x="909" arabic-form="final" 
d="M494 570q-63 -14 -122 -173q-35 -95 -35 -191q0 -66 17 -134q80 75 121.5 192t41.5 231q-8 71 -23 75zM290 -182q-71 -46 -154 -77l-62 155q75 33 138 73q-21 70 -29 160q-3 33 -3 66q0 215 128 431q121 201 221 201q142 0 142 -365q0 -319 -253 -544q50 -48 101 -48h10
q30 136 108 214q91 91 211 91h89v-175h-69q-86 0 -138 -108q-41 -86 -41 -181q-46 -37 -130 -37q-118 3 -235 105q-14 12 -34 39z" />
    <glyph glyph-name="uni0672.fina" unicode="&#x672;" horiz-adv-x="571" 
d="M599 0h-194q-139 0 -214 115q-63 99 -63 246q0 198 43.5 441.5t112.5 424.5l170 -52q-67 -170 -106 -414q-38 -227 -38 -389q0 -100 30 -145q37 -52 131 -52h128v-175zM336 1466q-82 56 -82 136q0 169 252 179l5 -84q-179 -17 -179 -91q0 -84 102 -84q31 0 136 39l19 -84
q-219 -118 -326 -128l-30 -1q-81 2 -87 98v75q0 33 -34 33h-4q-33 0 -62 -41q-32 -44 -32 -85q0 -31 21 -93l-71 -61q-5 13 -11 28q-27 76 -27 132q0 79 77 152q72 71 138 71h3q26 0 50 -19q29 -21 29 -62v-5q-2 -26 -4 -60q6 -65 40 -65l26 2l25 6z" />
    <glyph glyph-name="uni0673.fina" unicode="&#x673;" horiz-adv-x="581" 
d="M609 0h-194q-139 0 -214 115q-63 99 -63 246q0 198 43.5 441.5t112.5 424.5l170 -52q-67 -170 -106 -414q-38 -227 -38 -389q0 -100 30 -145q37 -52 131 -52h128v-175zM336 -425q-82 56 -82 136q0 169 252 179l5 -84q-179 -17 -179 -91q0 -84 102 -84q31 0 136 39l19 -84
q-219 -118 -326 -128l-30 -1q-81 2 -87 98v75q0 33 -34 33h-4q-33 0 -62 -41q-32 -44 -32 -85q0 -31 21 -93l-71 -61q-5 13 -11 28q-27 76 -27 132q0 79 77 152q72 71 138 71h3q26 0 50 -19q29 -21 29 -62v-5q-2 -26 -4 -60q6 -65 40 -65l26 2l25 6z" />
    <glyph glyph-name="uni0675.fina" unicode="&#x675;" horiz-adv-x="877" 
d="M860 1133q-166 -45 -297 -121l-55 71l76 39q-89 59 -91 136v2q0 169 277 176l4 -82q-192 -16 -192 -93q0 -41 34 -61q28 -24 74 -24q17 0 145 41zM905 0h-554q-141 0 -214 115q-63 97 -63 246q0 194 44 442.5t111 423.5l171 -52q-58 -142 -104 -414q-40 -230 -40 -389
q0 -113 43 -163q38 -34 118 -34h488v-175z" />
    <glyph glyph-name="uni0676.fina" unicode="&#x676;" horiz-adv-x="908" 
d="M936 0h-215q-47 -194 -209 -356l-128 120q111 96 145 236h-179q-123 0 -182 168q-45 119 -45 264q0 136 45 255q61 156 177 158h2q129 0 266 -234q128 -222 128 -436h195v-175zM562 175q6 28 6 45q0 141 -84 294q-76 138 -117 138q-67 0 -71 -237q0 -74 28 -156
q37 -84 90 -84h148zM853 1028q-177 -51 -296 -121l-56 72l76 39q-89 54 -91 133v3q0 172 277 177l4 -84q-194 -14 -194 -89q0 -43 36 -61q31 -26 74 -26q19 0 145 39z" />
    <glyph glyph-name="uni0677.fina" unicode="&#x677;" horiz-adv-x="944" 
d="M972 0h-215q-47 -194 -209 -356l-128 120q111 96 145 236h-179q-123 0 -182 168q-45 119 -45 264q0 136 45 255q61 156 177 158h2q129 0 266 -234q128 -222 128 -436h195v-175zM598 175q6 28 6 45q0 141 -84 294q-76 138 -117 138q-67 0 -71 -237q0 -74 28 -156
q37 -84 90 -84h148zM889 1028q-177 -51 -296 -121l-56 72l76 39q-89 54 -91 133v3q0 172 277 177l4 -84q-194 -14 -194 -89q0 -43 36 -61q31 -26 74 -26q19 0 145 39zM462 1201q0 -132 -99.5 -230.5t-233.5 -102.5q0 4 -6 78q127 6 195 80q-109 34 -111 103v5q0 85 65 177
q58 80 95 80q95 0 95 -190zM399 1213q0 100 -36 100q-22 0 -52 -66t-30 -94q0 -47 86 -62q32 43 32 122z" />
    <glyph glyph-name="uni0678.init" unicode="&#x678;" horiz-adv-x="670" 
d="M596 1028q-177 -51 -298 -121l-54 72l74 39q-89 54 -89 133v3q0 172 276 177l5 -84q-195 -14 -195 -89q0 -43 37 -61q28 -26 74 -26q12 0 146 39zM456 400q17 -52 17 -97q0 -117 -69 -206q-73 -97 -186 -97h-246v175h190q52 0 88.5 44t36.5 96q0 20 -6 46l-145 417
l162 75q71 -175 158 -453z" />
    <glyph glyph-name="uni0678.medi" unicode="&#x678;" horiz-adv-x="619" 
d="M536 1028q-177 -51 -298 -121l-54 72l74 39q-89 54 -89 133v3q0 172 276 177l5 -84q-195 -14 -195 -89q0 -43 37 -61q28 -26 74 -26q12 0 146 39zM647 0h-129q-116 0 -179 102q-82 -102 -183 -102h-184v175h125q57 0 91.5 40t34.5 100q0 28 -5 46l-144 417l162 75
q53 -132 213 -613q22 -65 69 -65h129v-175z" />
    <glyph glyph-name="uni0678.fina" unicode="&#x678;" horiz-adv-x="1241" 
d="M1269 0h-286q33 -67 35 -93q0 -142 -188 -216q-140 -54 -307 -56h-5q-444 0 -444 341q0 119 140 396q119 241 212 371l145 -93q-91 -131 -190 -320q-117 -224 -117 -315q0 -127 89 -177q64 -37 207 -37q84 0 162 24q102 34 104 93q0 37 -38 59.5t-77 22.5v171h558v-171z
M1140 471q-166 -44 -296 -121l-56 71l76 39q-89 60 -91 136v2q0 169 277 177l4 -82q-192 -17 -192 -93q0 -41 34 -62q28 -24 74 -24q17 0 146 41z" />
    <glyph glyph-name="uni067C.init" unicode="&#x67c;" horiz-adv-x="661" 
d="M111 0h-139v175h255q52 0 91 41q34 47 36 99v7q0 17 -8 39l-143 417l164 75q76 -196 158 -453q13 -46 13 -97q0 -115 -67 -204q-37 -49 -84 -74q86 -99 86 -180q0 -61 -37 -107q-41 -48 -100 -48h-135q-133 0 -133 132q0 86 43 178zM268 0h-41q-46 -99 -46 -153
q0 -56 38 -56h91q25 0 41 18q13 20 13 42q0 39 -56 107q-19 22 -40 42zM570 1145q-4 -22 -15 -197q-80 15 -244 18q-43 2 -80 2q-107 0 -173 -13l-6 194q78 16 257 16q199 0 261 -20z" />
    <glyph glyph-name="uni067C.medi" unicode="&#x67c;" horiz-adv-x="635" 
d="M577 1147q-7 0 -13 -199q-71 16 -244 18q-37 1 -69 1q-123 0 -186 -12l-7 194q70 16 260 18h30q159 0 229 -20zM228 0h-41q-46 -99 -46 -153q0 -56 38 -56h91q25 0 41 18q13 20 13 42q0 39 -56 107q-19 22 -40 42zM71 0h-99v175h203q56 0 90.5 41t34.5 99q0 28 -8 46
l-143 417l162 75q54 -132 214 -613q20 -65 69 -65h69v-175h-69q-116 0 -181 102q-34 -44 -73 -69q93 -104 93 -188q0 -61 -37 -107q-41 -48 -100 -48h-135q-133 0 -133 132q0 86 43 178z" />
    <glyph glyph-name="uni067C.fina" unicode="&#x67c;" horiz-adv-x="1686" 
d="M1076 953q-4 0 -17 -199q-71 15 -244 19h-40q-144 0 -211 -13l-10 195q71 17 259 19q186 0 263 -21zM832 0h-41q-46 -99 -46 -153q0 -56 38 -56h91q25 0 41 18q13 20 13 42q0 39 -56 107q-19 22 -40 42zM675 0h-275q-131 0 -227.5 109t-98.5 282v6q0 99 65 242
q54 117 123 197l136 -114q-58 -63 -101 -163.5t-43 -182.5v-4q0 -97 51 -150q46 -47 121 -47h810q55 0 88 41t36 99q0 18 -9 46l-141 417l162 75q54 -132 214 -613q20 -65 69 -65h59v-175h-59q-114 0 -183 102q-80 -102 -181 -102h-319q65 -84 65 -155q0 -61 -37 -107
q-41 -48 -100 -48h-135q-133 0 -133 132q0 86 43 178z" />
    <glyph glyph-name="uni067D.init" unicode="&#x67d;" horiz-adv-x="661" 
d="M525 400q13 -46 13 -97q0 -115 -67 -204q-75 -99 -186 -99h-313v175h255q52 0 91 41q34 47 36 99v7q0 17 -8 39l-143 417l164 75q76 -196 158 -453zM387 944q-58 7 -110 7t-100 -7v188q18 7 104 9h28q46 0 78 -5v-192zM551 1392q-4 0 -17 -199q-70 15 -244 19
q-31 1 -59 1q-122 0 -192 -11l-7 194q72 15 258 17h16q172 0 245 -21z" />
    <glyph glyph-name="uni067D.medi" unicode="&#x67d;" horiz-adv-x="635" 
d="M408 955q-56 6 -105 6q-57 0 -104 -8v188q17 8 101 8q83 0 108 -4v-190zM570 1397q-4 -21 -15 -196q-71 15 -244 17q-36 1 -68 1q-120 0 -185 -12l-6 193q67 17 257 19h28q166 0 233 -22zM663 0h-69q-116 0 -181 102q-80 -102 -182 -102h-259v175h203q56 0 90.5 41
t34.5 99q0 28 -8 46l-143 417l162 75q54 -132 214 -613q20 -65 69 -65h69v-175z" />
    <glyph glyph-name="uni067D.fina" unicode="&#x67d;" horiz-adv-x="1686" 
d="M901 750q-58 8 -110 8t-101 -8v186q24 10 103 10q85 0 108 -4v-192zM1064 1196q-3 0 -15 -196q-81 13 -242 19q-34 1 -64 1q-116 0 -191 -12l-7 195q89 13 261 13q197 0 258 -20zM1714 0h-59q-114 0 -183 102q-80 -102 -181 -102h-891q-131 0 -227.5 109t-98.5 282v6
q0 99 65 242q54 117 123 197l136 -114q-58 -63 -101 -163.5t-43 -182.5v-4q0 -97 51 -150q46 -47 121 -47h810q55 0 88 41t36 99q0 18 -9 46l-141 417l162 75q54 -132 214 -613q20 -65 69 -65h59v-175z" />
    <glyph glyph-name="uni0681.init" unicode="&#x681;" horiz-adv-x="964" 
d="M821 281q20 -39 20 -82q0 -80 -48 -139.5t-125 -59.5h-696v175h667q20 0 24 20q1 4 1 7q0 15 -9 31l-208 380q-17 27 -34 27t-28 -27l-152 -401l-173 60l191 465q38 92 157 93q115 0 165 -93zM534 1056q-177 -51 -298 -121l-54 72l74 39q-89 54 -89 133v3q0 172 276 177
l5 -84q-195 -14 -195 -89q0 -43 37 -61q28 -26 74 -26q12 0 146 39z" />
    <glyph glyph-name="uni0681.medi" unicode="&#x681;" horiz-adv-x="962" 
d="M990 0h-67q-24 0 -60 26t-46 50q-52 -76 -138 -76h-707v175h680q22 0 26 20q1 4 1 7q0 15 -9 31l-208 380q-17 27 -34 27q-18 0 -28 -27l-154 -401l-172 60l190 465q38 92 157 93q117 0 167 -93l263 -489q39 -73 93 -73h46v-175zM534 1056q-177 -51 -298 -121l-54 72
l74 39q-89 54 -89 133v3q0 172 276 177l5 -84q-195 -14 -195 -89q0 -43 37 -61q28 -26 74 -26q12 0 146 39z" />
    <glyph glyph-name="uni0681.fina" unicode="&#x681;" horiz-adv-x="1042" 
d="M1070 0h-69q-24 0 -59.5 26t-46.5 50q-52 -76 -138 -76h-331q-160 0 -160 -143q0 -45 30.5 -84t80.5 -47l529 -87l-28 -179l-573 91q-101 17 -165 106.5t-66 199.5v5q0 140 104 227q101 86 248 86h303q21 0 24 20q1 5 1 9q0 14 -8 29l-207 380q-16 27 -35 27t-28 -27
l-153 -401l-173 60l192 465q37 92 156 93q118 0 168 -93l261 -489q39 -73 95 -73h48v-175zM618 1056q-177 -51 -298 -121l-54 72l74 39q-89 54 -89 133v3q0 172 276 177l5 -84q-195 -14 -195 -89q0 -43 37 -61q28 -26 74 -26q12 0 146 39z" />
    <glyph glyph-name="uni0682.init" unicode="&#x682;" horiz-adv-x="964" 
d="M821 281q20 -39 20 -82q0 -80 -48 -139.5t-125 -59.5h-696v175h667q20 0 24 20q1 4 1 7q0 15 -9 31l-208 380q-17 27 -34 27t-28 -27l-152 -401l-173 60l191 465q38 92 157 93q115 0 165 -93zM512 949q-58 8 -110 8t-101 -8v186q24 10 103 10q85 0 108 -4v-192zM512 1200
q-58 8 -110 8t-101 -8v186q24 10 103 10q85 0 108 -4v-192z" />
    <glyph glyph-name="uni0682.medi" unicode="&#x682;" horiz-adv-x="962" 
d="M990 0h-67q-24 0 -60 26t-46 50q-52 -76 -138 -76h-707v175h680q22 0 26 20q1 4 1 7q0 15 -9 31l-208 380q-17 27 -34 27q-18 0 -28 -27l-154 -401l-172 60l190 465q38 92 157 93q117 0 167 -93l263 -489q39 -73 93 -73h46v-175zM512 949q-58 8 -110 8t-101 -8v186
q24 10 103 10q85 0 108 -4v-192zM512 1200q-58 8 -110 8t-101 -8v186q24 10 103 10q85 0 108 -4v-192z" />
    <glyph glyph-name="uni0682.fina" unicode="&#x682;" horiz-adv-x="1042" 
d="M1070 0h-69q-24 0 -59.5 26t-46.5 50q-52 -76 -138 -76h-331q-160 0 -160 -143q0 -45 30.5 -84t80.5 -47l529 -87l-28 -179l-573 91q-101 17 -165 106.5t-66 199.5v5q0 140 104 227q101 86 248 86h303q21 0 24 20q1 5 1 9q0 14 -8 29l-207 380q-16 27 -35 27t-28 -27
l-153 -401l-173 60l192 465q37 92 156 93q118 0 168 -93l261 -489q39 -73 95 -73h48v-175zM586 949q-58 8 -110 8t-101 -8v186q24 10 103 10q85 0 108 -4v-192zM586 1200q-58 8 -110 8t-101 -8v186q24 10 103 10q85 0 108 -4v-192z" />
    <glyph glyph-name="uni0685.init" unicode="&#x685;" horiz-adv-x="964" 
d="M821 281q20 -39 20 -82q0 -80 -48 -139.5t-125 -59.5h-696v175h667q20 0 24 20q1 4 1 7q0 15 -9 31l-208 380q-17 27 -34 27t-28 -27l-152 -401l-173 60l191 465q38 92 157 93q115 0 165 -93zM508 1197q-58 8 -110 8t-100 -8v186q24 10 102 10q86 0 108 -4v-192z
M672 1123q-4 0 -15 -196q-82 13 -242 19q-34 1 -64 1q-116 0 -191 -12l-7 195q89 13 260 13q198 0 259 -20z" />
    <glyph glyph-name="uni0685.medi" unicode="&#x685;" horiz-adv-x="962" 
d="M990 0h-67q-24 0 -60 26t-46 50q-52 -76 -138 -76h-707v175h680q22 0 26 20q1 4 1 7q0 15 -9 31l-208 380q-17 27 -34 27q-18 0 -28 -27l-154 -401l-172 60l190 465q38 92 157 93q117 0 167 -93l263 -489q39 -73 93 -73h46v-175zM508 1197q-58 8 -110 8t-100 -8v186
q24 10 102 10q86 0 108 -4v-192zM672 1123q-4 0 -15 -196q-82 13 -242 19q-34 1 -64 1q-116 0 -191 -12l-7 195q89 13 260 13q198 0 259 -20z" />
    <glyph glyph-name="uni0685.fina" unicode="&#x685;" horiz-adv-x="1042" 
d="M1070 0h-69q-24 0 -59.5 26t-46.5 50q-52 -76 -138 -76h-331q-160 0 -160 -143q0 -45 30.5 -84t80.5 -47l529 -87l-28 -179l-573 91q-101 17 -165 106.5t-66 199.5v5q0 140 104 227q101 86 248 86h303q21 0 24 20q1 5 1 9q0 14 -8 29l-207 380q-16 27 -35 27t-28 -27
l-153 -401l-173 60l192 465q37 92 156 93q118 0 168 -93l261 -489q39 -73 95 -73h48v-175zM584 1200q-58 8 -110 8t-100 -8v186q24 10 102 10q86 0 108 -4v-192zM748 1126q-4 0 -15 -196q-82 13 -242 19q-34 1 -64 1q-116 0 -191 -12l-7 195q89 13 260 13q198 0 259 -20z
" />
    <glyph glyph-name="uni0689.fina" unicode="&#x689;" horiz-adv-x="886" 
d="M234 0h-111v175h309q65 0 65 74q0 28 -13 49l-303 430l130 110l426 -575q66 -88 112 -88h65v-175h-126q-28 0 -74.5 33.5t-59.5 63.5q-53 -78 -126 -93q68 -87 68 -159q0 -61 -37 -107q-41 -48 -100 -48h-135q-133 0 -133 132q0 86 43 178zM391 0h-41q-46 -99 -46 -153
q0 -56 38 -56h91q25 0 41 18q13 20 13 42q0 39 -56 107q-19 22 -40 42z" />
    <glyph glyph-name="uni068A.fina" unicode="&#x68a;" horiz-adv-x="886" 
d="M914 0h-126q-28 0 -74.5 33.5t-59.5 63.5q-65 -97 -164 -97h-367v175h309q65 0 65 74q0 28 -13 49l-303 430l130 110l427 -575q65 -88 111 -88h65v-175zM508 -333q-54 6 -103 6q-56 0 -105 -8v186q24 9 102 11h29q48 0 77 -5v-190z" />
    <glyph glyph-name="uni068B.fina" unicode="&#x68b;" horiz-adv-x="886" 
d="M914 0h-126q-28 0 -74.5 33.5t-59.5 63.5q-65 -97 -164 -97h-367v175h309q65 0 65 74q0 28 -13 49l-303 430l130 110l427 -575q65 -88 111 -88h65v-175zM508 -333q-54 6 -103 6q-56 0 -105 -8v186q24 9 102 11h29q48 0 77 -5v-190zM493 1099q0 -72 -53 -113
q-49 -38 -124 -38h-175v74q0 77 -22 218q-22 137 -45 221l71 21q16 -47 35 -151q19 -99 23 -155q18 44 60 90.5t76 46.5q57 0 105.5 -69t48.5 -145zM417 1095q0 35 -20 83q-24 55 -53 56h-1q-27 0 -64 -73q-38 -75 -46 -137h90q94 0 94 71z" />
    <glyph glyph-name="uni068F.fina" unicode="&#x68f;" horiz-adv-x="886" 
d="M914 0h-126q-28 0 -74.5 33.5t-59.5 63.5q-65 -97 -164 -97h-367v175h309q65 0 65 74q0 28 -13 49l-303 430l130 110l427 -575q65 -88 111 -88h65v-175zM429 940q-58 8 -110 8t-100 -8v186q24 10 102 10q86 0 108 -4v-192zM593 1386q-4 0 -15 -196q-82 13 -242 19
q-34 1 -64 1q-116 0 -191 -12l-7 195q89 13 260 13q198 0 259 -20z" />
    <glyph glyph-name="uni0690.fina" unicode="&#x690;" horiz-adv-x="886" 
d="M914 0h-126q-28 0 -74.5 33.5t-59.5 63.5q-65 -97 -164 -97h-367v175h309q65 0 65 74q0 28 -13 49l-303 430l130 110l427 -575q65 -88 111 -88h65v-175zM593 1388q-4 0 -15 -196q-82 13 -242 19q-34 1 -64 1q-116 0 -191 -12l-7 195q89 13 260 13q198 0 259 -20z
M593 1138q-4 0 -15 -196q-82 13 -242 19q-34 1 -64 1q-116 0 -191 -12l-7 195q89 13 260 13q198 0 259 -20z" />
    <glyph glyph-name="uni0692.fina" unicode="&#x692;" horiz-adv-x="727" 
d="M755 0h-78q-48 0 -98 43q-39 -229 -205 -404l-132 110q177 231 177 471q0 113 -71 303l-97 259l156 78l192 -549q49 -136 116 -136h40v-175zM345 1151q13 -25 27 -25h1q13 0 22 24l90 262l134 -59l-119 -320q-30 -83 -122 -83h-4q-92 2 -131 89l-140 310l123 65z" />
    <glyph glyph-name="uni0693.fina" unicode="&#x693;" horiz-adv-x="669" 
d="M467 -29q56 -5 98 -47q47 -48 47 -115t-47.5 -114.5t-115.5 -47.5q-67 0 -114 48q-3 2 -5 5q-24 -32 -51 -61l-136 110q179 236 179 471q0 104 -73 303l-93 259l153 78l193 -549q47 -136 114 -136h81v-175h-118q-47 0 -95 43q-7 -37 -17 -72zM445 -95q-30 -78 -76 -149
q5 -8 13 -15q28 -28 67 -28q40 0 68 28t28 68t-28 68t-68 28h-4z" />
    <glyph glyph-name="uni0694.fina" unicode="&#x694;" horiz-adv-x="629" 
d="M657 0h-79q-46 0 -94 43q-45 -229 -205 -404l-136 110q179 236 179 471q0 104 -73 303l-93 259l153 78l193 -549q47 -136 114 -136h41v-175zM498 -675q-55 7 -105 7q-56 0 -104 -9v188q20 8 102 10h17q43 0 90 -4v-192z" />
    <glyph glyph-name="uni0695.fina" unicode="&#x695;" horiz-adv-x="703" 
d="M731 0h-78q-48 0 -98 43q-39 -229 -205 -404l-132 110q177 231 177 471q0 113 -71 303l-97 259l156 78l192 -549q49 -136 116 -136h40v-175zM316 -699q13 -25 27 -25h1q13 0 22 24l90 262l134 -59l-119 -320q-30 -83 -122 -83h-4q-92 2 -131 89l-140 310l123 65z" />
    <glyph glyph-name="uni0696.fina" unicode="&#x696;" horiz-adv-x="721" 
d="M749 0h-79q-46 0 -94 43q-45 -229 -205 -404l-136 110q179 236 179 471q0 104 -73 303l-93 259l153 78l193 -549q47 -136 114 -136h41v-175zM590 -675q-55 7 -105 7q-56 0 -104 -9v188q20 8 102 10h17q43 0 90 -4v-192zM283 102q-55 7 -105 7q-56 0 -104 -9v188
q20 8 102 10h17q43 0 90 -4v-192z" />
    <glyph glyph-name="uni0697.fina" unicode="&#x697;" horiz-adv-x="699" 
d="M595 1147q-7 0 -16 -197q-79 14 -242 18q-44 2 -82 2q-108 0 -172 -13l-9 194q82 16 261 16q199 0 260 -20zM727 0h-78q-48 0 -98 43q-39 -229 -205 -404l-132 110q177 231 177 471q0 113 -71 303l-97 259l156 78l192 -549q49 -136 116 -136h40v-175z" />
    <glyph glyph-name="uni0699.fina" unicode="&#x699;" horiz-adv-x="697" 
d="M725 0h-78q-48 0 -98 43q-39 -229 -205 -404l-132 110q177 231 177 471q0 113 -71 303l-97 259l156 78l192 -549q49 -136 116 -136h40v-175zM593 1395q-4 0 -15 -196q-82 13 -242 19q-34 1 -64 1q-116 0 -191 -12l-7 195q89 13 260 13q198 0 259 -20zM593 1145
q-4 0 -15 -196q-82 13 -242 19q-34 1 -64 1q-116 0 -191 -12l-7 195q89 13 260 13q198 0 259 -20z" />
    <glyph glyph-name="uni069A.init" unicode="&#x69a;" horiz-adv-x="1309" 
d="M1165 421q21 -52 21 -112q0 -127 -78 -214q-82 -93 -207 -95h-6q-63 0 -137 39q-62 32 -82 67q-54 -106 -190 -106q-173 0 -244 104q-52 -104 -190 -104h-80v175h69q43 0 76.5 40t36.5 79q0 9 -3 17l-93 450l165 54l84 -405q26 -123 36 -144q40 -91 119 -91
q102 0 102 134q0 34 -4 43l-91 409l168 62l87 -412q21 -91 47 -147q41 -89 113 -89q54 0 82 47q24 41 24 98q0 30 -5 47l-142 391l162 65zM684 965q-56 6 -106 6q-57 0 -106 -8v186q26 11 104 13h28q46 0 80 -5v-192zM684 -333q-54 6 -103 6q-56 0 -105 -8v186q24 9 102 11
h29q48 0 77 -5v-190z" />
    <glyph glyph-name="uni069A.medi" unicode="&#x69a;" horiz-adv-x="1370" 
d="M1398 0h-115q-92 0 -173 89q-79 -89 -209 -89q-74 0 -143 37q-60 32 -82 67q-24 -43 -82 -73.5t-108 -30.5q-173 0 -244 104q-52 -104 -190 -104h-80v175h69q43 0 76.5 40t36.5 79q0 9 -3 17l-93 450l165 54l84 -405q13 -62 36 -146q39 -91 119 -93h3q99 0 99 136
q0 28 -4 45l-91 409l168 60l87 -411q21 -93 47 -147q41 -92 113 -92q52 0 82 51q24 41 24 96q0 32 -5 49l-142 391l162 63l196 -510q52 -136 117 -136h80v-175zM684 965q-56 6 -106 6q-57 0 -106 -8v186q26 11 104 13h28q46 0 80 -5v-192zM684 -333q-54 6 -103 6
q-56 0 -105 -8v186q24 9 102 11h29q48 0 77 -5v-190z" />
    <glyph glyph-name="uni069A.fina" unicode="&#x69a;" horiz-adv-x="2072" 
d="M2100 0h-97q-93 0 -171 89q-81 -89 -211 -89q-74 0 -145 37q-47 23 -82 67q-50 -104 -179 -104q-93 0 -145 24q-17 -164 -253 -246q-168 -57 -376 -57q-367 0 -367 296q0 123 73 301q67 170 150 274l134 -86q-65 -96 -117 -236q-59 -156 -59 -253q0 -131 201 -131
q450 0 450 231q0 13 -3 54l-123 590q48 17 163 54l84 -405q24 -116 36 -146q41 -91 119 -93q48 0 78 41q24 47 24 95q0 17 -5 45l-88 409l164 60l91 -411q24 -110 43 -147q45 -92 115 -92q53 0 82 49q25 37 26 98v9q0 19 -7 40l-140 391l160 63l194 -510q52 -136 121 -136
h60v-175zM1414 965q-56 6 -106 6q-57 0 -106 -8v186q26 11 104 13h28q46 0 80 -5v-192zM1414 -333q-54 6 -103 6q-56 0 -105 -8v186q24 9 102 11h29q48 0 77 -5v-190z" />
    <glyph glyph-name="uni069B.init" unicode="&#x69b;" horiz-adv-x="1309" 
d="M1165 421q21 -52 21 -112q0 -127 -78 -214q-82 -93 -207 -95h-6q-63 0 -137 39q-62 32 -82 67q-54 -106 -190 -106q-173 0 -244 104q-52 -104 -190 -104h-80v175h69q43 0 76.5 40t36.5 79q0 9 -3 17l-93 450l165 54l84 -405q26 -123 36 -144q40 -91 119 -91
q102 0 102 134q0 34 -4 43l-91 409l168 62l87 -412q21 -91 47 -147q41 -89 113 -89q54 0 82 47q24 41 24 98q0 30 -5 47l-142 391l162 65zM880 -162q-7 0 -13 -197q-74 16 -244 20q-44 2 -82 2q-108 0 -173 -13l-7 194q82 16 260 16q200 0 259 -22zM714 -609q-58 8 -110 8
t-101 -8v186q21 10 103 12h15q54 0 93 -6v-192z" />
    <glyph glyph-name="uni069B.medi" unicode="&#x69b;" horiz-adv-x="1370" 
d="M1398 0h-115q-92 0 -173 89q-79 -89 -209 -89q-74 0 -143 37q-60 32 -82 67q-24 -43 -82 -73.5t-108 -30.5q-173 0 -244 104q-52 -104 -190 -104h-80v175h69q43 0 76.5 40t36.5 79q0 9 -3 17l-93 450l165 54l84 -405q13 -62 36 -146q39 -91 119 -93h3q99 0 99 136
q0 28 -4 45l-91 409l168 60l87 -411q21 -93 47 -147q41 -92 113 -92q52 0 82 51q24 41 24 96q0 32 -5 49l-142 391l162 63l196 -510q52 -136 117 -136h80v-175zM880 -162q-7 0 -13 -197q-74 16 -244 20q-44 2 -82 2q-108 0 -173 -13l-7 194q82 16 260 16q200 0 259 -22z
M714 -609q-58 8 -110 8t-101 -8v186q21 10 103 12h15q54 0 93 -6v-192z" />
    <glyph glyph-name="uni069B.fina" unicode="&#x69b;" horiz-adv-x="2072" 
d="M2100 0h-97q-93 0 -171 89q-81 -89 -211 -89q-74 0 -145 37q-47 23 -82 67q-50 -104 -179 -104q-93 0 -145 24q-17 -164 -253 -246q-168 -57 -376 -57q-367 0 -367 296q0 123 73 301q67 170 150 274l134 -86q-65 -96 -117 -236q-59 -156 -59 -253q0 -131 201 -131
q450 0 450 231q0 13 -3 54l-123 590q48 17 163 54l84 -405q24 -116 36 -146q41 -91 119 -93q48 0 78 41q24 47 24 95q0 17 -5 45l-88 409l164 60l91 -411q24 -110 43 -147q45 -92 115 -92q53 0 82 49q25 37 26 98v9q0 19 -7 40l-140 391l160 63l194 -510q52 -136 121 -136
h60v-175zM1648 -162q-7 0 -13 -197q-74 16 -244 20q-44 2 -82 2q-108 0 -173 -13l-7 194q82 16 260 16q200 0 259 -22zM1484 -609q-58 8 -110 8t-101 -8v186q21 10 103 12h15q54 0 93 -6v-192z" />
    <glyph glyph-name="uni069C.init" unicode="&#x69c;" horiz-adv-x="1309" 
d="M614 1221q-57 6 -108 6q-52 0 -98 -6v187q20 9 100 11h26q50 0 80 -6v-192zM780 1147q-7 0 -17 -197q-76 14 -240 18q-44 2 -82 2q-108 0 -173 -13l-7 194q82 16 258 16q200 0 261 -20zM1165 421q21 -52 21 -112q0 -127 -78 -214q-82 -93 -207 -95h-6q-63 0 -137 39
q-62 32 -82 67q-54 -106 -190 -106q-173 0 -244 104q-52 -104 -190 -104h-80v175h69q43 0 76.5 40t36.5 79q0 9 -3 17l-93 450l165 54l84 -405q26 -123 36 -144q40 -91 119 -91q102 0 102 134q0 34 -4 43l-91 409l168 62l87 -412q21 -91 47 -147q41 -89 113 -89q54 0 82 47
q24 41 24 98q0 30 -5 47l-142 391l162 65zM780 -162q-7 0 -13 -197q-74 16 -244 20q-44 2 -82 2q-108 0 -173 -13l-7 194q82 16 260 16q200 0 259 -22zM614 -609q-58 8 -110 8t-101 -8v186q21 10 103 12h15q54 0 93 -6v-192z" />
    <glyph glyph-name="uni069C.medi" unicode="&#x69c;" horiz-adv-x="1370" 
d="M614 1221q-57 6 -108 6q-52 0 -98 -6v187q20 9 100 11h26q50 0 80 -6v-192zM780 1147q-7 0 -17 -197q-76 14 -240 18q-44 2 -82 2q-108 0 -173 -13l-7 194q82 16 258 16q200 0 261 -20zM1398 0h-115q-92 0 -173 89q-79 -89 -209 -89q-74 0 -143 37q-60 32 -82 67
q-24 -43 -82 -73.5t-108 -30.5q-173 0 -244 104q-52 -104 -190 -104h-80v175h69q43 0 76.5 40t36.5 79q0 9 -3 17l-93 450l165 54l84 -405q13 -62 36 -146q39 -91 119 -93h3q99 0 99 136q0 28 -4 45l-91 409l168 60l87 -411q21 -93 47 -147q41 -92 113 -92q52 0 82 51
q24 41 24 96q0 32 -5 49l-142 391l162 63l196 -510q52 -136 117 -136h80v-175zM780 -162q-7 0 -13 -197q-74 16 -244 20q-44 2 -82 2q-108 0 -173 -13l-7 194q82 16 260 16q200 0 259 -22zM614 -609q-58 8 -110 8t-101 -8v186q21 10 103 12h15q54 0 93 -6v-192z" />
    <glyph glyph-name="uni069C.fina" unicode="&#x69c;" horiz-adv-x="2072" 
d="M2100 0h-97q-93 0 -171 89q-81 -89 -211 -89q-74 0 -145 37q-47 23 -82 67q-50 -104 -179 -104q-93 0 -145 24q-17 -164 -253 -246q-168 -57 -376 -57q-367 0 -367 296q0 123 73 301q67 170 150 274l134 -86q-65 -96 -117 -236q-59 -156 -59 -253q0 -131 201 -131
q450 0 450 231q0 13 -3 54l-123 590q48 17 163 54l84 -405q24 -116 36 -146q41 -91 119 -93q48 0 78 41q24 47 24 95q0 17 -5 45l-88 409l164 60l91 -411q24 -110 43 -147q45 -92 115 -92q53 0 82 49q25 37 26 98v9q0 19 -7 40l-140 391l160 63l194 -510q52 -136 121 -136
h60v-175zM1434 1216q-56 6 -106 6q-57 0 -106 -8v186q26 11 104 13h28q46 0 80 -5v-192zM1598 1141q-5 0 -16 -197q-82 15 -244 19q-30 1 -58 1q-121 0 -194 -11l-9 194q89 15 259 15q201 0 262 -21zM1598 -162q-7 0 -13 -197q-74 16 -244 20q-44 2 -82 2q-108 0 -173 -13
l-7 194q82 16 260 16q200 0 259 -22zM1434 -609q-58 8 -110 8t-101 -8v186q21 10 103 12h15q54 0 93 -6v-192z" />
    <glyph glyph-name="uni069D.init" unicode="&#x69d;" horiz-adv-x="1272" 
d="M1124 506q25 -95 25 -176q0 -112 -47 -181q-106 -153 -445 -155h-6q-197 0 -346 64q-22 -24 -91 -43q-60 -15 -104 -15h-138v175h138q61 0 80 32q13 22 13 87q0 173 -119 467q67 23 154 75q56 -110 96 -276.5t40 -295.5q47 214 191 393t267 179q95 0 184 -104
q71 -84 108 -226zM976 313q0 100 -43 216q-52 132 -121 132h-2q-83 0 -170 -175q-68 -142 -96 -304q83 -7 147 -7q283 0 285 138zM1004 -162q-4 0 -15 -197q-75 16 -242 20q-44 2 -82 2q-109 0 -173 -13l-8 194q82 16 261 16q201 0 259 -22z" />
    <glyph glyph-name="uni069D.medi" unicode="&#x69d;" horiz-adv-x="1325" 
d="M1353 0h-104q-54 0 -112.5 37t-75.5 86q-33 -73 -195 -106q-108 -23 -235 -23q-238 0 -326 64q-22 -24 -91 -43q-60 -15 -104 -15h-138v175h138q61 0 80 32q13 22 13 87q0 173 -119 467q67 23 154 75q56 -110 96 -276.5t40 -295.5q47 214 191 393t267 179q97 0 184 -104
q81 -99 108 -226q12 -74 41 -221q26 -114 101 -114h87v-171zM976 313q0 100 -43 216q-52 132 -121 132h-2q-83 0 -170 -175q-68 -142 -96 -304q83 -7 147 -7q283 0 285 138zM1004 -162q-4 0 -15 -197q-75 16 -242 20q-44 2 -82 2q-109 0 -173 -13l-8 194q82 16 261 16
q201 0 259 -22z" />
    <glyph glyph-name="uni069D.fina" unicode="&#x69d;" horiz-adv-x="2003" 
d="M2031 0h-90q-52 0 -109.5 37t-76.5 86q-57 -123 -419 -125h-21q-142 0 -245 26q-17 -164 -253 -246q-168 -57 -376 -57q-367 0 -367 296q0 123 73 301q67 170 150 274l134 -86q-65 -96 -117 -236q-59 -156 -59 -253q0 -131 201 -131q204 0 301 45q144 63 146 240v5
q0 278 -123 585q67 23 152 75q132 -257 140 -572q43 213 188 392.5t264 179.5q101 0 187 -104q78 -95 106 -226q13 -74 41 -221q24 -114 104 -114h69v-171zM1670 313v4q0 96 -45 212q-52 132 -121 132h-2q-87 0 -175 -199q-65 -149 -89 -280q83 -7 149 -7q281 0 283 138z
M1714 -162q-4 0 -15 -197q-75 16 -242 20q-44 2 -82 2q-109 0 -173 -13l-8 194q82 16 261 16q201 0 259 -22z" />
    <glyph glyph-name="uni069E.init" unicode="&#x69e;" horiz-adv-x="1272" 
d="M1124 506q25 -95 25 -176q0 -112 -47 -181q-106 -153 -445 -155h-6q-197 0 -346 64q-22 -24 -91 -43q-60 -15 -104 -15h-138v175h138q61 0 80 32q13 22 13 87q0 173 -119 467q67 23 154 75q56 -110 96 -276.5t40 -295.5q47 214 191 393t267 179q95 0 184 -104
q71 -84 108 -226zM976 313q0 100 -43 216q-52 132 -121 132h-2q-83 0 -170 -175q-68 -142 -96 -304q83 -7 147 -7q283 0 285 138zM884 1212q-56 6 -108 6t-99 -6v187q22 9 101 11h26q50 0 80 -6v-192zM1051 1138q-7 0 -16 -197q-79 14 -242 18q-44 2 -82 2q-108 0 -172 -13
l-9 194q82 16 261 16q199 0 260 -20z" />
    <glyph glyph-name="uni069E.medi" unicode="&#x69e;" horiz-adv-x="1325" 
d="M1353 0h-104q-54 0 -112.5 37t-75.5 86q-33 -73 -195 -106q-108 -23 -235 -23q-238 0 -326 64q-22 -24 -91 -43q-60 -15 -104 -15h-138v175h138q61 0 80 32q13 22 13 87q0 173 -119 467q67 23 154 75q56 -110 96 -276.5t40 -295.5q47 214 191 393t267 179q97 0 184 -104
q81 -99 108 -226q12 -74 41 -221q26 -114 101 -114h87v-171zM976 313q0 100 -43 216q-52 132 -121 132h-2q-83 0 -170 -175q-68 -142 -96 -304q83 -7 147 -7q283 0 285 138zM884 1212q-56 6 -108 6t-99 -6v187q22 9 101 11h26q50 0 80 -6v-192zM1051 1138q-7 0 -16 -197
q-79 14 -242 18q-44 2 -82 2q-108 0 -172 -13l-9 194q82 16 261 16q199 0 260 -20z" />
    <glyph glyph-name="uni069E.fina" unicode="&#x69e;" horiz-adv-x="2003" 
d="M2031 0h-90q-52 0 -109.5 37t-76.5 86q-57 -123 -419 -125h-21q-142 0 -245 26q-17 -164 -253 -246q-168 -57 -376 -57q-367 0 -367 296q0 123 73 301q67 170 150 274l134 -86q-65 -96 -117 -236q-59 -156 -59 -253q0 -131 201 -131q204 0 301 45q144 63 146 240v5
q0 278 -123 585q67 23 152 75q132 -257 140 -572q43 213 188 392.5t264 179.5q101 0 187 -104q78 -95 106 -226q13 -74 41 -221q24 -114 104 -114h69v-171zM1670 313v4q0 96 -45 212q-52 132 -121 132h-2q-87 0 -175 -199q-65 -149 -89 -280q83 -7 149 -7q281 0 283 138z
M1594 1212q-56 6 -108 6t-99 -6v187q22 9 101 11h26q50 0 80 -6v-192zM1761 1138q-7 0 -16 -197q-79 14 -242 18q-44 2 -82 2q-108 0 -172 -13l-9 194q82 16 261 16q199 0 260 -20z" />
    <glyph glyph-name="uni069F.init" unicode="&#x69f;" horiz-adv-x="1118" 
d="M994 354q1 -10 1 -21q0 -148 -122 -242q-117 -91 -283 -91h-618v171h140q55 0 65 47q4 24 5 106v11q0 152 -54 423q-48 247 -96 421l163 48q38 -108 82 -346q41 -228 51 -356q44 99 128 194q106 119 188 119q121 0 229 -151t121 -333zM823 339v5q0 70 -49 183
q-55 128 -121 130h-1q-63 0 -151 -171q-86 -166 -101 -311h205q216 0 218 164zM763 1212q-56 6 -108 6t-99 -6v187q22 9 101 11h26q50 0 80 -6v-192zM930 1138q-7 0 -16 -197q-79 14 -242 18q-44 2 -82 2q-108 0 -172 -13l-9 194q82 16 261 16q199 0 260 -20z" />
    <glyph glyph-name="uni069F.medi" unicode="&#x69f;" horiz-adv-x="1154" 
d="M1182 0h-76q-54 0 -108 39t-82 89q-114 -128 -326 -128h-618v171h140q55 0 65 47q4 24 5 106v11q0 152 -54 423q-48 247 -96 421l163 48q38 -108 82 -346q41 -228 51 -356q44 99 128 194q106 119 188 119q142 0 248 -177q93 -151 102 -307q9 -183 130 -183h58v-171z
M823 339v5q0 70 -49 183q-55 128 -121 130h-1q-63 0 -151 -171q-86 -166 -101 -311h205q216 0 218 164zM763 1212q-56 6 -108 6t-99 -6v187q22 9 101 11h26q50 0 80 -6v-192zM930 1138q-7 0 -16 -197q-79 14 -242 18q-44 2 -82 2q-108 0 -172 -13l-9 194q82 16 261 16
q199 0 260 -20z" />
    <glyph glyph-name="uni069F.fina" unicode="&#x69f;" horiz-adv-x="1197" 
d="M1225 0h-79q-52 0 -107 40t-82 88q-114 -128 -326 -128h-402v171q0 175 -51 501q-50 313 -104 507l164 48q37 -108 80 -346q43 -228 52 -356q43 99 139 206t174 107q143 0 251 -177q91 -149 103 -307q11 -183 128 -183h60v-171zM863 339q0 80 -46 190q-56 126 -123 128
h-1q-63 0 -148 -168q-87 -171 -106 -314h208q216 0 216 164zM767 1212q-56 6 -108 6t-99 -6v187q22 9 101 11h26q50 0 80 -6v-192zM934 1138q-7 0 -16 -197q-79 14 -242 18q-44 2 -82 2q-108 0 -172 -13l-9 194q82 16 261 16q199 0 260 -20z" />
    <glyph glyph-name="uni06A0.init" unicode="&#x6a0;" horiz-adv-x="940" 
d="M817 778l-35 -164l-229 45q-39 8 -65 9h-7q-91 0 -166 -52q-88 -59 -88 -149q0 -119 107 -205.5t232 -86.5h231v-175h-825v175h212q-123 138 -124 294v4q0 142 132 261q124 109 258 109q34 0 43 -3zM524 1216q-56 6 -106 6q-57 0 -106 -8v186q26 11 104 13h28q46 0 80 -5
v-192zM688 1141q-5 0 -16 -197q-82 15 -244 19q-30 1 -58 1q-121 0 -194 -11l-9 194q89 15 259 15q201 0 262 -21z" />
    <glyph glyph-name="uni06A0.medi" unicode="&#x6a0;" horiz-adv-x="1111" 
d="M1139 0h-575v141q0 112 66 244.5t154 208.5q-32 32 -132 54q-86 20 -148 20q-102 0 -178 -50q-91 -58 -91 -160q0 -112 85.5 -197.5t197.5 -89.5v-171h-546v175h201q-119 108 -119 281q0 181 141 285q127 95 306 95q126 0 287 -55t260 -133l-65 -145
q-102 -26 -161 -115.5t-59 -212.5h376v-175zM633 1216q-56 6 -106 6q-57 0 -106 -8v186q26 11 104 13h28q46 0 80 -5v-192zM797 1141q-5 0 -16 -197q-82 15 -244 19q-30 1 -58 1q-121 0 -194 -11l-9 194q89 15 259 15q201 0 262 -21z" />
    <glyph glyph-name="uni06A0.fina" unicode="&#x6a0;" horiz-adv-x="1146" 
d="M1174 0h-556v141q0 118 65 248q63 123 158 205q-35 32 -119 52q-95 22 -164 22q-102 0 -181 -50q-89 -56 -89 -160v-5q0 -109 85 -192q86 -86 198 -90v-171h-106q-74 0 -127.5 -38t-53.5 -103q0 -60 53 -103q46 -37 108 -46l478 -75l-26 -169l-501 76q-151 22 -240 125
q-82 93 -82 208q0 175 199 259q-72 41 -123 143q-44 90 -44 179v5q0 173 145 280q126 95 305 95q129 0 302 -61q152 -54 244 -127l-65 -145q-99 -25 -157.5 -113t-58.5 -215h353v-175zM654 1216q-56 6 -106 6q-57 0 -106 -8v186q26 11 104 13h28q46 0 80 -5v-192zM818 1141
q-5 0 -16 -197q-82 15 -244 19q-30 1 -58 1q-121 0 -194 -11l-9 194q89 15 259 15q201 0 262 -21z" />
    <glyph glyph-name="uni06A1.init" unicode="&#x6a1;" horiz-adv-x="914" 
d="M791 277q0 -124 -97 -204q-89 -73 -217 -73h-505v175h503q139 0 139 63q-68 -22 -160 -22h-11q-378 0 -380 281q0 114 62 224q72 130 178 130q157 0 326 -211q162 -201 162 -363zM557 426q-26 73 -100.5 158.5t-126.5 85.5q-40 0 -71 -63q-21 -52 -21 -95v-4
q0 -115 155 -115q108 0 164 33z" />
    <glyph glyph-name="uni06A1.medi" unicode="&#x6a1;" horiz-adv-x="814" 
d="M842 0h-460q-77 0 -103 20q-35 -20 -128 -20h-179v175h190q-35 67 -37 231v12q0 142 46 263q62 159 168 159q132 0 262 -213q118 -189 118 -292q0 -121 -69 -160h192v-175zM546 341q0 46 -77.5 183t-105.5 137q-71 0 -73 -238q0 -172 82 -248q47 9 103 50q69 49 71 116z
" />
    <glyph glyph-name="uni06A1.fina" unicode="&#x6a1;" horiz-adv-x="1648" 
d="M1676 0h-458q-77 0 -105 20q-35 -20 -124 -20h-589q-130 0 -227 109t-99 282v3q0 98 56 226q52 121 125 203l132 -101q-43 -46 -89 -158q-43 -102 -43 -188v-7q0 -95 50 -147q47 -47 121 -47h570q-35 65 -35 231q0 154 44 275q60 159 170 159q130 0 260 -213
q116 -188 118 -292v-7q0 -115 -67 -153h190v-175zM1380 341q0 43 -77 184q-74 136 -106 136q-71 0 -71 -238q0 -175 80 -248q62 13 114 58q60 50 60 108z" />
    <glyph glyph-name="uni06A2.init" unicode="&#x6a2;" horiz-adv-x="914" 
d="M791 277q0 -124 -97 -204q-89 -73 -217 -73h-505v175h503q139 0 139 63q-69 -22 -160 -22h-11q-378 0 -380 281q0 114 62 224q72 130 178 130q157 0 326 -211q162 -201 162 -363zM557 426q-26 73 -100.5 158.5t-127.5 85.5q-39 0 -70 -63q-21 -52 -21 -95v-4
q0 -115 155 -115q108 0 164 33zM403 -333q-54 6 -103 6q-56 0 -105 -8v186q24 9 102 11h29q48 0 77 -5v-190z" />
    <glyph glyph-name="uni06A2.medi" unicode="&#x6a2;" horiz-adv-x="813" 
d="M841 0h-459q-77 0 -103 20q-35 -20 -128 -20h-179v175h190q-35 67 -37 231v12q0 142 46 263q62 159 168 159q132 0 262 -213q118 -189 118 -292q0 -121 -69 -160h191v-175zM545 341q0 46 -77 183t-105 137q-71 0 -73 -238q0 -172 82 -248q47 9 103 50q69 49 70 116z
M469 -333q-54 6 -103 6q-56 0 -105 -8v186q24 9 102 11h29q48 0 77 -5v-190z" />
    <glyph glyph-name="uni06A2.fina" unicode="&#x6a2;" horiz-adv-x="1647" 
d="M1675 0h-458q-76 0 -104 20q-36 -20 -125 -20h-588q-131 0 -227.5 109t-98.5 282v7q0 96 56 222q52 121 124 203l133 -101q-43 -46 -90 -158q-43 -102 -43 -188v-4q0 -97 51 -150q46 -47 121 -47h569q-35 65 -35 231q0 154 45 275q59 159 169 159q131 0 261 -213
q115 -188 117 -292v-7q0 -115 -67 -153h190v-175zM1379 341q0 43 -76 184q-75 136 -106 136q-71 0 -71 -238q0 -175 80 -248q61 13 113 58q60 50 60 108zM1307 -333q-54 6 -103 6q-56 0 -105 -8v186q24 9 102 11h29q48 0 77 -5v-190z" />
    <glyph glyph-name="uni06A3.init" unicode="&#x6a3;" horiz-adv-x="914" 
d="M404 950q-60 7 -112 7t-97 -7v188q17 7 99 9h25q49 0 85 -6v-191zM791 277q0 -124 -97 -204q-89 -73 -217 -73h-505v175h503q139 0 139 63q-69 -22 -160 -22h-11q-378 0 -380 281q0 114 62 224q72 130 178 130q157 0 326 -211q162 -201 162 -363zM557 426
q-26 73 -100.5 158.5t-127.5 85.5q-39 0 -70 -63q-21 -52 -21 -95v-4q0 -115 155 -115q108 0 164 33zM403 -333q-54 6 -103 6q-56 0 -105 -8v186q24 9 102 11h29q48 0 77 -5v-190z" />
    <glyph glyph-name="uni06A3.medi" unicode="&#x6a3;" horiz-adv-x="813" 
d="M469 953q-58 8 -110 8t-98 -8v188q14 6 102 8q13 1 25 1q39 0 81 -5v-192zM841 0h-459q-77 0 -103 20q-35 -20 -128 -20h-179v175h190q-35 67 -37 231v12q0 142 46 263q62 159 168 159q132 0 262 -213q118 -189 118 -292q0 -121 -69 -160h191v-175zM545 341q0 46 -77 183
t-105 137q-71 0 -73 -238q0 -172 82 -248q47 9 103 50q69 49 70 116zM469 -333q-54 6 -103 6q-56 0 -105 -8v186q24 9 102 11h29q48 0 77 -5v-190z" />
    <glyph glyph-name="uni06A3.fina" unicode="&#x6a3;" horiz-adv-x="1647" 
d="M1243 955q-55 7 -104 7q-56 0 -104 -9v188q16 8 102 10h17q42 0 89 -4v-192zM1675 0h-458q-76 0 -104 20q-36 -20 -125 -20h-588q-131 0 -227.5 109t-98.5 282v7q0 96 56 222q52 121 124 203l133 -101q-43 -46 -90 -158q-43 -102 -43 -188v-4q0 -97 51 -150
q46 -47 121 -47h569q-35 65 -35 231q0 154 45 275q59 159 169 159q131 0 261 -213q115 -188 117 -292v-7q0 -115 -67 -153h190v-175zM1379 341q0 43 -76 184q-75 136 -106 136q-71 0 -71 -238q0 -175 80 -248q61 13 113 58q60 50 60 108zM915 -333q-54 6 -103 6
q-56 0 -105 -8v186q24 9 102 11h29q48 0 77 -5v-190z" />
    <glyph glyph-name="uni06A5.init" unicode="&#x6a5;" horiz-adv-x="914" 
d="M791 277q0 -124 -97 -204q-89 -73 -217 -73h-505v175h503q139 0 139 63q-68 -22 -160 -22h-11q-378 0 -380 281q0 114 62 224q72 130 178 130q157 0 326 -211q162 -201 162 -363zM557 426q-26 73 -100.5 158.5t-126.5 85.5q-40 0 -71 -63q-21 -52 -21 -95v-4
q0 -115 155 -115q108 0 164 33zM650 -162q-7 0 -13 -197q-74 16 -244 20q-44 2 -82 2q-108 0 -173 -13l-7 194q82 16 260 16q200 0 259 -22zM484 -609q-58 8 -110 8t-101 -8v186q21 10 103 12h15q54 0 93 -6v-192z" />
    <glyph glyph-name="uni06A5.medi" unicode="&#x6a5;" horiz-adv-x="814" 
d="M842 0h-460q-77 0 -103 20q-35 -20 -128 -20h-179v175h190q-35 67 -37 231v12q0 142 46 263q62 159 168 159q132 0 262 -213q118 -189 118 -292q0 -121 -69 -160h192v-175zM546 341q0 46 -77.5 183t-105.5 137q-71 0 -73 -238q0 -172 82 -248q47 9 103 50q69 49 71 116z
M650 -162q-7 0 -13 -197q-74 16 -244 20q-44 2 -82 2q-108 0 -173 -13l-7 194q82 16 260 16q200 0 259 -22zM484 -609q-58 8 -110 8t-101 -8v186q21 10 103 12h15q54 0 93 -6v-192z" />
    <glyph glyph-name="uni06A5.fina" unicode="&#x6a5;" horiz-adv-x="1648" 
d="M1676 0h-458q-77 0 -105 20q-35 -20 -124 -20h-589q-130 0 -227 109t-99 282v3q0 98 56 226q52 121 125 203l132 -101q-43 -46 -89 -158q-43 -102 -43 -188v-7q0 -95 50 -147q47 -47 121 -47h570q-35 65 -35 231q0 154 44 275q60 159 170 159q130 0 260 -213
q116 -188 118 -292v-7q0 -115 -67 -153h190v-175zM1380 341q0 43 -77 184q-74 136 -106 136q-71 0 -71 -238q0 -175 80 -248q62 13 114 58q60 50 60 108zM1485 -162q-7 0 -13 -197q-74 16 -244 20q-44 2 -82 2q-108 0 -173 -13l-7 194q82 16 260 16q200 0 259 -22z
M1319 -609q-58 8 -110 8t-101 -8v186q21 10 103 12h15q54 0 93 -6v-192z" />
    <glyph glyph-name="uni06A7.init" unicode="&#x6a7;" horiz-adv-x="914" 
d="M404 950q-60 7 -112 7t-97 -7v188q17 7 99 9h25q49 0 85 -6v-191zM791 277q0 -124 -97 -204q-89 -73 -217 -73h-505v175h503q139 0 139 63q-69 -22 -160 -22h-11q-378 0 -380 281q0 114 62 224q72 130 178 130q157 0 326 -211q162 -201 162 -363zM557 426
q-26 73 -100.5 158.5t-127.5 85.5q-39 0 -70 -63q-21 -52 -21 -95v-4q0 -115 155 -115q108 0 164 33z" />
    <glyph glyph-name="uni06A7.medi" unicode="&#x6a7;" horiz-adv-x="813" 
d="M469 953q-58 8 -110 8t-98 -8v188q14 6 102 8q13 1 25 1q39 0 81 -5v-192zM841 0h-459q-77 0 -103 20q-35 -20 -128 -20h-179v175h190q-35 67 -37 231v12q0 142 46 263q62 159 168 159q132 0 262 -213q118 -189 118 -292q0 -121 -69 -160h191v-175zM545 341q0 46 -77 183
t-105 137q-71 0 -73 -238q0 -172 82 -248q47 9 103 50q69 49 70 116z" />
    <glyph glyph-name="uni06A7.fina" unicode="&#x6a7;" horiz-adv-x="1312" 
d="M1340 0h-142q-1 -34 -11 -88q-44 -143 -231 -260q-191 -121 -389 -121q-227 0 -359 123.5t-134 347.5v6q0 205 136 428l149 -69q-49 -73 -82 -173q-37 -108 -37 -188q0 -116 61 -201q76 -105 231 -105q143 0 301 80q185 92 192 220h-260q-149 0 -213.5 68t-66.5 219v6
q0 179 111 364q113 188 236 188q106 0 199 -126q78 -110 134 -319q24 -93 32 -225h143v-175zM1029 175q-4 149 -56 307q-61 181 -143 181q-62 0 -129 -136q-61 -123 -61 -209v-8q0 -135 128 -135h261zM945 971q-56 6 -106 6q-58 0 -107 -8v187q26 11 105 13h15q54 0 93 -6
v-192z" />
    <glyph glyph-name="uni06A8.init" unicode="&#x6a8;" horiz-adv-x="914" 
d="M791 277q0 -124 -97 -204q-89 -73 -217 -73h-505v175h503q139 0 139 63q-68 -22 -160 -22h-11q-378 0 -380 281q0 114 62 224q72 130 178 130q157 0 326 -211q162 -201 162 -363zM557 426q-26 73 -100.5 158.5t-126.5 85.5q-40 0 -71 -63q-21 -52 -21 -95v-4
q0 -115 155 -115q108 0 164 33zM423 1236q-56 6 -106 6q-58 0 -107 -8v187q26 11 105 13h15q54 0 93 -6v-192zM586 1162q-5 0 -16 -198q-82 15 -244 19q-38 1 -72 1q-111 0 -180 -10l-9 193q90 15 259 15q201 0 262 -20z" />
    <glyph glyph-name="uni06A8.medi" unicode="&#x6a8;" horiz-adv-x="814" 
d="M842 0h-460q-77 0 -103 20q-35 -20 -128 -20h-179v175h190q-35 67 -37 231v12q0 142 46 263q62 159 168 159q132 0 262 -213q118 -189 118 -292q0 -121 -69 -160h192v-175zM546 341q0 46 -77.5 183t-105.5 137q-71 0 -73 -238q0 -172 82 -248q47 9 103 50q69 49 71 116z
M423 1236q-56 6 -106 6q-58 0 -107 -8v187q26 11 105 13h15q54 0 93 -6v-192zM586 1162q-5 0 -16 -198q-82 15 -244 19q-38 1 -72 1q-111 0 -180 -10l-9 193q90 15 259 15q201 0 262 -20z" />
    <glyph glyph-name="uni06A8.fina" unicode="&#x6a8;" horiz-adv-x="1312" 
d="M1340 0h-142q-1 -34 -11 -88q-44 -143 -231 -260q-191 -121 -389 -121q-227 0 -359 123.5t-134 347.5v6q0 205 136 428l149 -69q-49 -73 -82 -173q-37 -108 -37 -188q0 -116 61 -201q76 -105 231 -105q143 0 301 80q185 92 192 220h-260q-149 0 -213.5 68t-66.5 219v6
q0 179 111 364q113 188 236 188q106 0 199 -126q78 -110 134 -319q24 -93 32 -225h143v-175zM1029 175q-4 149 -56 307q-61 181 -143 181q-62 0 -129 -136q-61 -123 -61 -209v-8q0 -135 128 -135h261zM947 1236q-56 6 -106 6q-58 0 -107 -8v187q26 11 105 13h15q54 0 93 -6
v-192zM1110 1162q-5 0 -16 -198q-82 15 -244 19q-38 1 -72 1q-111 0 -180 -10l-9 193q90 15 259 15q201 0 262 -20z" />
    <glyph glyph-name="uni06AA.init" unicode="&#x6aa;" horiz-adv-x="987" 
d="M812 285q2 -19 2 -34q0 -100 -54 -171q-60 -80 -147 -80h-641v175h579q97 0 97 102v23l-34 247q-13 99 -156 144q-37 11 -128 13q-25 1 -46 1q-48 0 -72 -5q-11 0 -35 -4q-91 0 -93 110q0 19 5 56l15 82q11 61 67 115q69 64 166 82q50 8 188 10h14q141 0 230 -19v-169
q-134 27 -218 27h-17q-270 0 -270 -128q190 0 267 -19q221 -54 244 -242z" />
    <glyph glyph-name="uni06AA.medi" unicode="&#x6aa;" horiz-adv-x="962" 
d="M990 0h-117q-67 0 -119 67q-60 -67 -141 -67h-641v175h579q97 0 97 102v23l-34 247q-13 99 -156 144q-37 11 -128 13q-25 1 -46 1q-48 0 -72 -5q-11 0 -35 -4q-91 0 -93 110q0 19 5 56l15 82q11 61 67 115q69 64 166 82q50 8 188 10h14q141 0 230 -19v-169
q-134 27 -218 27h-17q-270 0 -270 -128q190 0 267 -19q221 -54 244 -242l35 -286q17 -140 97 -140h83v-175z" />
    <glyph glyph-name="uni06AA.fina" unicode="&#x6aa;" horiz-adv-x="1609" 
d="M1637 0h-95q-67 0 -120 67q-59 -67 -141 -67h-780q-181 0 -300 110q-125 113 -127 292v2q0 210 202 449l122 -119q-147 -170 -147 -304q0 -100 60 -175q67 -80 166 -80h743q96 0 96 102q0 13 -3 23l-30 247q-13 99 -157 144q-37 11 -128 13q-26 1 -47 1q-48 0 -70 -5
q-12 0 -34 -4q-93 0 -95 110q0 19 6 56l15 82q11 61 67 115q52 49 123 71q57 19 227 21h15q143 0 230 -19v-169q-132 27 -215 27h-17q-270 0 -270 -128q190 0 266 -19q222 -54 244 -242l32 -286q16 -140 100 -140h62v-175z" />
    <glyph glyph-name="uni06AB.init" unicode="&#x6ab;" horiz-adv-x="987" 
d="M771 1251v-58q-119 21 -246 21h-16q-181 0 -304 -43l-15 54q156 39 369 39q113 0 212 -13zM812 285q2 -19 2 -34q0 -100 -54 -171q-60 -80 -147 -80h-641v175h579q97 0 97 102v23l-34 247q-13 99 -156 144q-37 11 -128 13q-25 1 -46 1q-48 0 -72 -5q-11 0 -35 -4
q-91 0 -93 110q0 19 5 56l15 82q11 61 67 115q69 64 166 82q50 8 188 10h14q141 0 230 -19v-169q-134 27 -218 27h-17q-270 0 -270 -128q190 0 267 -19q221 -54 244 -242z" />
    <glyph glyph-name="uni06AB.medi" unicode="&#x6ab;" horiz-adv-x="962" 
d="M771 1251v-58q-125 23 -283 23q-175 0 -283 -36l-15 54q123 32 335 32q136 0 246 -15zM990 0h-117q-67 0 -119 67q-60 -67 -141 -67h-641v175h579q97 0 97 102v23l-34 247q-13 99 -156 144q-37 11 -128 13q-25 1 -46 1q-48 0 -72 -5q-11 0 -35 -4q-91 0 -93 110
q0 19 5 56l15 82q11 61 67 115q69 64 166 82q50 8 188 10h14q141 0 230 -19v-169q-134 27 -218 27h-17q-270 0 -270 -128q190 0 267 -19q221 -54 244 -242l35 -286q17 -140 97 -140h83v-175z" />
    <glyph glyph-name="uni06AB.fina" unicode="&#x6ab;" horiz-adv-x="1609" 
d="M1439 1251q-2 -8 -2 -23q0 -14 2 -35q-125 23 -281 23q-177 0 -285 -36l-15 54q123 32 335 32q136 0 246 -15zM1637 0h-95q-67 0 -120 67q-59 -67 -141 -67h-780q-181 0 -300 110q-125 113 -127 292v2q0 210 202 449l122 -119q-147 -170 -147 -304q0 -100 60 -175
q67 -80 166 -80h743q96 0 96 102q0 13 -3 23l-30 247q-13 99 -157 144q-37 11 -128 13q-26 1 -47 1q-48 0 -70 -5q-12 0 -34 -4q-93 0 -95 110q0 19 6 56l15 82q11 61 67 115q52 49 123 71q57 19 227 21h15q143 0 230 -19v-169q-132 27 -215 27h-17q-270 0 -270 -128
q190 0 266 -19q222 -54 244 -242l32 -286q16 -140 100 -140h62v-175z" />
    <glyph glyph-name="uni06AC.init" unicode="&#x6ac;" horiz-adv-x="987" 
d="M812 285q2 -19 2 -34q0 -100 -54 -171q-60 -80 -148 -80h-640v175h579q97 0 97 102v23l-34 247q-13 99 -156 144q-37 11 -129 13q-25 1 -45 1q-48 0 -72 -5q-11 0 -35 -4q-91 0 -93 110q0 19 5 56l15 82q11 61 67 115q69 64 166 82q50 8 188 10h14q141 0 230 -19v-169
q-134 27 -218 27h-17q-270 0 -270 -128q190 0 267 -19q221 -54 243 -242zM510 1270q-56 6 -106 6q-57 0 -106 -8v187q26 11 104 13h15q54 0 93 -6v-192z" />
    <glyph glyph-name="uni06AC.medi" unicode="&#x6ac;" horiz-adv-x="962" 
d="M990 0h-117q-67 0 -119 67q-60 -67 -142 -67h-640v175h579q97 0 97 102v23l-34 247q-13 99 -156 144q-37 11 -129 13q-25 1 -45 1q-48 0 -72 -5q-11 0 -35 -4q-91 0 -93 110q0 19 5 56l15 82q11 61 67 115q69 64 166 82q50 8 188 10h14q141 0 230 -19v-169
q-134 27 -218 27h-17q-270 0 -270 -128q190 0 267 -19q221 -54 243 -242l36 -286q17 -140 97 -140h83v-175zM510 1270q-56 6 -106 6q-57 0 -106 -8v187q26 11 104 13h15q54 0 93 -6v-192z" />
    <glyph glyph-name="uni06AC.fina" unicode="&#x6ac;" horiz-adv-x="1608" 
d="M1474 315q19 -140 100 -140h62v-175h-95q-67 0 -119 67q-60 -67 -142 -67h-780q-180 0 -300 110q-124 113 -126 292v4q0 209 201 447l123 -119q-147 -170 -147 -304q0 -100 59 -175q67 -80 166 -80h743q97 0 97 102q0 13 -4 23l-58 367q-48 350 -100 517l180 35
q45 -189 86 -482zM1012 570q-165 -45 -296 -121l-56 72l77 38q-90 59 -92 135v1q0 171 278 178l4 -82q-192 -16 -192 -93q0 -41 33 -61q28 -24 75 -24q17 0 145 40zM1336 1336q-56 6 -106 6q-57 0 -106 -8v187q26 11 104 13h15q54 0 93 -6v-192z" />
    <glyph glyph-name="uni06AE.init" unicode="&#x6ae;" horiz-adv-x="987" 
d="M812 285q2 -19 2 -34q0 -100 -54 -171q-60 -80 -147 -80h-641v175h579q97 0 97 102v23l-34 247q-13 99 -156 144q-37 11 -128 13q-25 1 -46 1q-48 0 -72 -5q-11 0 -35 -4q-91 0 -93 110q0 19 5 56l15 82q11 61 67 115q69 64 166 82q50 8 188 10h14q141 0 230 -19v-169
q-134 27 -218 27h-17q-270 0 -270 -128q190 0 267 -19q221 -54 244 -242zM660 -162q-7 0 -13 -197q-74 16 -244 20q-44 2 -82 2q-108 0 -173 -13l-7 194q82 16 260 16q200 0 259 -22zM494 -609q-58 8 -110 8t-101 -8v186q21 10 103 12h15q54 0 93 -6v-192z" />
    <glyph glyph-name="uni06AE.medi" unicode="&#x6ae;" horiz-adv-x="962" 
d="M990 0h-117q-67 0 -119 67q-60 -67 -141 -67h-641v175h579q97 0 97 102v23l-34 247q-13 99 -156 144q-37 11 -128 13q-25 1 -46 1q-48 0 -72 -5q-11 0 -35 -4q-91 0 -93 110q0 19 5 56l15 82q11 61 67 115q69 64 166 82q50 8 188 10h14q141 0 230 -19v-169
q-134 27 -218 27h-17q-270 0 -270 -128q190 0 267 -19q221 -54 244 -242l35 -286q17 -140 97 -140h83v-175zM660 -162q-7 0 -13 -197q-74 16 -244 20q-44 2 -82 2q-108 0 -173 -13l-7 194q82 16 260 16q200 0 259 -22zM494 -609q-58 8 -110 8t-101 -8v186q21 10 103 12h15
q54 0 93 -6v-192z" />
    <glyph glyph-name="uni06AE.fina" unicode="&#x6ae;" horiz-adv-x="1608" 
d="M1474 315q19 -140 100 -140h62v-175h-95q-67 0 -119 67q-60 -67 -142 -67h-780q-180 0 -300 110q-124 113 -126 292v4q0 209 201 447l123 -119q-147 -170 -147 -304q0 -100 59 -175q67 -80 166 -80h743q97 0 97 102q0 13 -4 23l-58 367q-48 350 -100 517l180 35
q45 -189 86 -482zM1012 570q-165 -45 -296 -121l-56 72l77 38q-90 59 -92 135v1q0 171 278 178l4 -82q-192 -16 -192 -93q0 -41 33 -61q28 -24 75 -24q17 0 145 40zM1054 -162q-7 0 -13 -197q-74 16 -244 20q-44 2 -82 2q-108 0 -173 -13l-7 194q82 16 260 16q200 0 259 -22
zM888 -609q-58 8 -110 8t-101 -8v186q21 10 103 12h15q54 0 93 -6v-192z" />
    <glyph glyph-name="uni06B0.init" unicode="&#x6b0;" horiz-adv-x="987" 
d="M771 1251v-58q-119 21 -246 21h-16q-181 0 -304 -43l-15 54q156 39 369 39q113 0 212 -13zM775 601l37 -316q2 -19 2 -34q0 -100 -54 -171q-60 -80 -147 -80h-641v175h579q97 0 97 102v23l-34 247q-13 99 -156 144q-37 11 -128 13q-25 1 -46 1q-48 0 -72 -5q-11 0 -35 -4
q-91 0 -93 110q0 19 5 56l15 82q11 61 67 115q69 64 166 82q50 8 188 10h14q141 0 230 -19v-169q-95 19 -164 24q40 -57 40 -104q0 -41 -23 -72q-24 -32 -60 -32h-82q-81 0 -81 89q0 56 25 115l-10 -1q-150 -24 -150 -120q44 0 92 -1q16 -111 113 -120h90q54 7 100 50
q101 -66 116 -190zM500 1006q-2 -5 -4 -11l2 -1q-31 -72 -31 -110q0 -37 24 -37h55q15 0 25 12q8 13 8 28q0 26 -34 71q-20 26 -45 48z" />
    <glyph glyph-name="uni06B0.medi" unicode="&#x6b0;" horiz-adv-x="962" 
d="M771 1251v-58q-125 23 -283 23q-175 0 -283 -36l-15 54q123 32 335 32q136 0 246 -15zM775 601l35 -286q17 -140 97 -140h83v-175h-117q-67 0 -119 67q-60 -67 -141 -67h-641v175h579q97 0 97 102v23l-34 247q-13 99 -156 144q-37 11 -128 13q-25 1 -46 1q-48 0 -72 -5
q-11 0 -35 -4q-91 0 -93 110q0 19 5 56l15 82q11 61 67 115q69 64 166 82q50 8 188 10h14q141 0 230 -19v-169q-95 19 -164 24q40 -57 40 -104q0 -41 -23 -72q-24 -32 -60 -32h-82q-81 0 -81 89q0 56 25 115l-10 -1q-150 -24 -150 -120q43 0 100 -1q7 -104 105 -120h90
q61 8 94 53q107 -66 122 -193zM502 1005q-2 -5 -4 -11q-31 -72 -31 -110q0 -37 24 -37h55q15 0 25 12q8 13 8 28q0 26 -34 71q-20 26 -43 47z" />
    <glyph glyph-name="uni06B0.fina" unicode="&#x6b0;" horiz-adv-x="1609" 
d="M1439 1251q-2 -8 -2 -23q0 -14 2 -35q-125 23 -281 23q-177 0 -285 -36l-15 54q123 32 335 32q136 0 246 -15zM1443 601l32 -286q16 -140 100 -140h62v-175h-95q-67 0 -120 67q-59 -67 -141 -67h-780q-181 0 -300 110q-125 113 -127 292v2q0 210 202 449l122 -119
q-147 -170 -147 -304q0 -100 60 -175q67 -80 166 -80h743q96 0 96 102q0 13 -3 23l-30 247q-13 99 -157 144q-37 11 -128 13q-26 1 -47 1q-48 0 -70 -5q-12 0 -34 -4q-93 0 -95 110q0 19 6 56l15 82q11 61 67 115q52 49 123 71q57 19 227 21h15q143 0 230 -19v-169
q-95 19 -166 25q41 -57 41 -105q0 -41 -23 -72q-24 -32 -60 -32h-82q-81 0 -81 89q0 55 25 114l-10 -1q-146 -25 -146 -119q42 0 88 -1q11 -112 113 -120h90q61 5 99 52q105 -66 120 -192zM1165 1006q-2 -5 -4 -11l2 -1q-31 -72 -31 -110q0 -37 24 -37h55q15 0 25 12
q8 13 8 28q0 26 -34 71q-20 26 -45 48z" />
    <glyph glyph-name="uni06B2.init" unicode="&#x6b2;" horiz-adv-x="987" 
d="M771 1251v-58q-119 21 -246 21h-16q-181 0 -304 -43l-15 54q156 39 369 39q113 0 212 -13zM812 285q2 -19 2 -34q0 -100 -54 -171q-60 -80 -147 -80h-641v175h579q97 0 97 102v23l-34 247q-13 99 -156 144q-37 11 -128 13q-25 1 -46 1q-48 0 -72 -5q-11 0 -35 -4
q-91 0 -93 110q0 19 5 56l15 82q11 61 67 115q69 64 166 82q50 8 188 10h14q141 0 230 -19v-169q-134 27 -218 27h-17q-270 0 -270 -128q190 0 267 -19q221 -54 244 -242zM660 -162q-7 0 -13 -197q-74 16 -244 20q-44 2 -82 2q-108 0 -173 -13l-7 194q82 16 260 16
q200 0 259 -22z" />
    <glyph glyph-name="uni06B2.medi" unicode="&#x6b2;" horiz-adv-x="962" 
d="M771 1251v-58q-125 23 -283 23q-175 0 -283 -36l-15 54q123 32 335 32q136 0 246 -15zM990 0h-117q-67 0 -119 67q-60 -67 -141 -67h-641v175h579q97 0 97 102v23l-34 247q-13 99 -156 144q-37 11 -128 13q-25 1 -46 1q-48 0 -72 -5q-11 0 -35 -4q-91 0 -93 110
q0 19 5 56l15 82q11 61 67 115q69 64 166 82q50 8 188 10h14q141 0 230 -19v-169q-134 27 -218 27h-17q-270 0 -270 -128q190 0 267 -19q221 -54 244 -242l35 -286q17 -140 97 -140h83v-175zM660 -162q-7 0 -13 -197q-74 16 -244 20q-44 2 -82 2q-108 0 -173 -13l-7 194
q82 16 260 16q200 0 259 -22z" />
    <glyph glyph-name="uni06B2.fina" unicode="&#x6b2;" horiz-adv-x="1609" 
d="M1439 1251q-2 -8 -2 -23q0 -14 2 -35q-125 23 -281 23q-177 0 -285 -36l-15 54q123 32 335 32q136 0 246 -15zM1637 0h-95q-67 0 -120 67q-59 -67 -141 -67h-780q-181 0 -300 110q-125 113 -127 292v2q0 210 202 449l122 -119q-147 -170 -147 -304q0 -100 60 -175
q67 -80 166 -80h743q96 0 96 102q0 13 -3 23l-30 247q-13 99 -157 144q-37 11 -128 13q-26 1 -47 1q-48 0 -70 -5q-12 0 -34 -4q-93 0 -95 110q0 19 6 56l15 82q11 61 67 115q52 49 123 71q57 19 227 21h15q143 0 230 -19v-169q-132 27 -215 27h-17q-270 0 -270 -128
q190 0 266 -19q222 -54 244 -242l32 -286q16 -140 100 -140h62v-175zM1055 -162q-7 0 -13 -197q-74 16 -244 20q-44 2 -82 2q-108 0 -173 -13l-7 194q82 16 260 16q200 0 259 -22z" />
    <glyph glyph-name="uni06B4.init" unicode="&#x6b4;" horiz-adv-x="987" 
d="M771 1251v-58q-119 21 -246 21h-16q-181 0 -304 -43l-15 54q156 39 369 39q113 0 212 -13zM812 285q2 -19 2 -34q0 -100 -54 -171q-60 -80 -147 -80h-641v175h579q97 0 97 102v23l-34 247q-13 99 -156 144q-37 11 -128 13q-25 1 -46 1q-48 0 -72 -5q-11 0 -35 -4
q-91 0 -93 110q0 19 5 56l15 82q11 61 67 115q69 64 166 82q50 8 188 10h14q141 0 230 -19v-169q-134 27 -218 27h-17q-270 0 -270 -128q190 0 267 -19q221 -54 244 -242zM510 1640q-56 6 -106 6q-57 0 -106 -8v187q26 11 104 13h15q54 0 93 -6v-192zM674 1566
q-6 0 -17 -198q-82 15 -244 19q-38 1 -72 1q-111 0 -179 -10l-10 193q90 15 259 15q201 0 263 -20z" />
    <glyph glyph-name="uni06B4.medi" unicode="&#x6b4;" horiz-adv-x="962" 
d="M771 1251v-58q-125 23 -283 23q-175 0 -283 -36l-15 54q123 32 335 32q136 0 246 -15zM990 0h-117q-67 0 -119 67q-60 -67 -141 -67h-641v175h579q97 0 97 102v23l-34 247q-13 99 -156 144q-37 11 -128 13q-25 1 -46 1q-48 0 -72 -5q-11 0 -35 -4q-91 0 -93 110
q0 19 5 56l15 82q11 61 67 115q69 64 166 82q50 8 188 10h14q141 0 230 -19v-169q-134 27 -218 27h-17q-270 0 -270 -128q190 0 267 -19q221 -54 244 -242l35 -286q17 -140 97 -140h83v-175zM530 1640q-56 6 -106 6q-57 0 -106 -8v187q26 11 104 13h15q54 0 93 -6v-192z
M694 1566q-6 0 -17 -198q-82 15 -244 19q-38 1 -72 1q-111 0 -179 -10l-10 193q90 15 259 15q201 0 263 -20z" />
    <glyph glyph-name="uni06B4.fina" unicode="&#x6b4;" horiz-adv-x="1609" 
d="M1439 1251q-2 -8 -2 -23q0 -14 2 -35q-125 23 -281 23q-177 0 -285 -36l-15 54q123 32 335 32q136 0 246 -15zM1637 0h-95q-67 0 -120 67q-59 -67 -141 -67h-780q-181 0 -300 110q-125 113 -127 292v2q0 210 202 449l122 -119q-147 -170 -147 -304q0 -100 60 -175
q67 -80 166 -80h743q96 0 96 102q0 13 -3 23l-30 247q-13 99 -157 144q-37 11 -128 13q-26 1 -47 1q-48 0 -70 -5q-12 0 -34 -4q-93 0 -95 110q0 19 6 56l15 82q11 61 67 115q52 49 123 71q57 19 227 21h15q143 0 230 -19v-169q-132 27 -215 27h-17q-270 0 -270 -128
q190 0 266 -19q222 -54 244 -242l32 -286q16 -140 100 -140h62v-175zM1195 1640q-56 6 -106 6q-57 0 -106 -8v187q26 11 104 13h15q54 0 93 -6v-192zM1359 1566q-6 0 -17 -198q-82 15 -244 19q-38 1 -72 1q-111 0 -179 -10l-10 193q90 15 259 15q201 0 263 -20z" />
    <glyph glyph-name="uni06B5.init" unicode="&#x6b5;" horiz-adv-x="698" 
d="M575 330q0 -120 -49 -213q-59 -117 -169 -117h-385v175h325q108 0 110 155q0 121 -48 422q-39 242 -91 432l158 62q149 -481 149 -916zM299 1568q13 -25 27 -25h1q13 0 22 24l90 262l134 -59l-119 -320q-30 -83 -122 -83h-4q-92 2 -131 89l-140 310l123 65z" />
    <glyph glyph-name="uni06B5.medi" unicode="&#x6b5;" horiz-adv-x="695" 
d="M723 0h-108q-104 0 -132 84q-56 -84 -147 -84h-364v175h306q50 0 84 52q24 52 24 116q0 156 -43 411q-46 277 -95 436l160 54q53 -144 99 -436q43 -268 49 -447q7 -186 98 -186h69v-175zM289 1568q13 -25 27 -25h1q13 0 22 24l90 262l134 -59l-119 -320q-30 -83 -122 -83
h-4q-92 2 -131 89l-140 310l123 65z" />
    <glyph glyph-name="uni06B5.fina" unicode="&#x6b5;" horiz-adv-x="1243" 
d="M1271 0h-102q-45 0 -99 43q-35 -179 -251 -261q-157 -61 -378 -61q-365 0 -367 296v6q0 109 68 283q70 178 157 286l130 -86q-61 -100 -113 -236q-60 -156 -60 -253q0 -131 201 -131q207 0 304 45q145 63 145 240q0 170 -41 529q-41 344 -86 506l168 54q91 -400 130 -955
q4 -48 34 -89t74 -41h86v-175zM803 1568q13 -25 27 -25h1q13 0 22 24l90 262l134 -59l-119 -320q-30 -83 -122 -83h-4q-92 2 -131 89l-140 310l123 65z" />
    <glyph glyph-name="uni06B6.init" unicode="&#x6b6;" horiz-adv-x="488" 
d="M365 330q0 -120 -49 -213q-59 -117 -169 -117h-175v175h115q108 0 110 155q0 121 -48 422q-39 242 -91 432l158 62q149 -481 149 -916zM240 1378q-56 6 -106 6q-57 0 -106 -8v187q26 11 104 13h15q54 0 93 -6v-192z" />
    <glyph glyph-name="uni06B6.medi" unicode="&#x6b6;" horiz-adv-x="495" 
d="M523 0h-108q-104 0 -132 84q-56 -84 -147 -84h-164v175h106q50 0 84 52q24 52 24 116q0 156 -43 411q-46 277 -95 436l160 54q53 -144 99 -436q43 -268 49 -447q7 -186 98 -186h69v-175zM240 1378q-56 6 -106 6q-57 0 -106 -8v187q26 11 104 13h15q54 0 93 -6v-192z" />
    <glyph glyph-name="uni06B6.fina" unicode="&#x6b6;" horiz-adv-x="1243" 
d="M1271 0h-102q-45 0 -99 43q-35 -179 -251 -261q-157 -61 -378 -61q-365 0 -367 296v6q0 109 68 283q70 178 157 286l130 -86q-61 -100 -113 -236q-60 -156 -60 -253q0 -131 201 -131q207 0 304 45q145 63 145 240q0 170 -41 529q-41 344 -86 506l168 54q91 -400 130 -955
q4 -48 34 -89t74 -41h86v-175zM944 1378q-56 6 -106 6q-57 0 -106 -8v187q26 11 104 13h15q54 0 93 -6v-192z" />
    <glyph glyph-name="uni06B7.init" unicode="&#x6b7;" horiz-adv-x="658" 
d="M535 330q0 -120 -49 -213q-59 -117 -169 -117h-345v175h285q108 0 110 155q0 121 -48 422q-39 242 -91 432l158 62q149 -481 149 -916zM410 1630q-56 6 -106 6q-57 0 -106 -8v187q26 11 104 13h15q54 0 93 -6v-192zM574 1556q-6 0 -17 -198q-82 15 -244 19q-38 1 -72 1
q-111 0 -179 -10l-10 193q90 15 259 15q201 0 263 -20z" />
    <glyph glyph-name="uni06B7.medi" unicode="&#x6b7;" horiz-adv-x="675" 
d="M703 0h-108q-104 0 -132 84q-56 -84 -147 -84h-344v175h286q50 0 84 52q24 52 24 116q0 156 -43 411q-46 277 -95 436l160 54q53 -144 99 -436q43 -268 49 -447q7 -186 98 -186h69v-175zM420 1630q-56 6 -106 6q-57 0 -106 -8v187q26 11 104 13h15q54 0 93 -6v-192z
M584 1556q-6 0 -17 -198q-82 15 -244 19q-38 1 -72 1q-111 0 -179 -10l-10 193q90 15 259 15q201 0 263 -20z" />
    <glyph glyph-name="uni06B7.fina" unicode="&#x6b7;" horiz-adv-x="1243" 
d="M1271 0h-102q-45 0 -99 43q-35 -179 -251 -261q-157 -61 -378 -61q-365 0 -367 296v6q0 109 68 283q70 178 157 286l130 -86q-61 -100 -113 -236q-60 -156 -60 -253q0 -131 201 -131q207 0 304 45q145 63 145 240q0 170 -41 529q-41 344 -86 506l168 54q91 -400 130 -955
q4 -48 34 -89t74 -41h86v-175zM944 1630q-56 6 -106 6q-57 0 -106 -8v187q26 11 104 13h15q54 0 93 -6v-192zM1108 1556q-6 0 -17 -198q-82 15 -244 19q-38 1 -72 1q-111 0 -179 -10l-10 193q90 15 259 15q201 0 263 -20z" />
    <glyph glyph-name="uni06B8.init" unicode="&#x6b8;" horiz-adv-x="708" 
d="M585 330q0 -120 -49 -213q-59 -117 -169 -117h-395v175h335q108 0 110 155q0 121 -48 422q-39 242 -91 432l158 62q149 -481 149 -916zM580 -162q-7 0 -13 -197q-74 16 -244 20q-44 2 -82 2q-108 0 -173 -13l-7 194q82 16 260 16q200 0 259 -22zM414 -609q-58 8 -110 8
t-101 -8v186q21 10 103 12h15q54 0 93 -6v-192z" />
    <glyph glyph-name="uni06B8.medi" unicode="&#x6b8;" horiz-adv-x="675" 
d="M703 0h-108q-104 0 -132 84q-56 -84 -147 -84h-344v175h286q50 0 84 52q24 52 24 116q0 156 -43 411q-46 277 -95 436l160 54q53 -144 99 -436q43 -268 49 -447q7 -186 98 -186h69v-175zM609 -162q-7 0 -13 -197q-74 16 -244 20q-44 2 -82 2q-108 0 -173 -13l-7 194
q82 16 260 16q200 0 259 -22zM443 -609q-58 8 -110 8t-101 -8v186q21 10 103 12h15q54 0 93 -6v-192z" />
    <glyph glyph-name="uni06B8.fina" unicode="&#x6b8;" horiz-adv-x="1243" 
d="M1271 0h-102q-45 0 -99 43q-35 -179 -251 -261q-157 -61 -378 -61q-365 0 -367 296v6q0 109 68 283q70 178 157 286l130 -86q-61 -100 -113 -236q-60 -156 -60 -253q0 -131 201 -131q207 0 304 45q145 63 145 240q0 170 -41 529q-41 344 -86 506l168 54q91 -400 130 -955
q4 -48 34 -89t74 -41h86v-175zM785 -424q-7 0 -13 -197q-74 16 -244 20q-44 2 -82 2q-108 0 -173 -13l-7 194q82 16 260 16q200 0 259 -22zM619 -871q-58 8 -110 8t-101 -8v186q21 10 103 12h15q54 0 93 -6v-192z" />
    <glyph glyph-name="uni06B9.init" unicode="&#x6b9;" horiz-adv-x="596" 
d="M290 953q-53 5 -100 5q-59 0 -108 -8v188q20 9 100 9q84 0 108 -4v-190zM456 400q17 -52 17 -97q0 -117 -69 -206q-73 -97 -186 -97h-246v175h190q52 0 88.5 44t36.5 96q0 20 -6 46l-145 417l162 75q71 -175 158 -453zM290 -333q-54 6 -103 6q-56 0 -105 -8v186
q24 9 102 11h29q48 0 77 -5v-190z" />
    <glyph glyph-name="uni06B9.medi" unicode="&#x6b9;" horiz-adv-x="549" 
d="M320 948q-59 7 -112 7q-52 0 -100 -7v186q20 9 102 11h25q49 0 85 -6v-191zM577 0h-59q-116 0 -179 102q-82 -102 -183 -102h-184v175h125q57 0 91.5 40t34.5 100q0 28 -5 46l-144 417l162 75q53 -132 213 -613q22 -65 69 -65h59v-175zM320 -333q-54 6 -103 6
q-56 0 -105 -8v186q24 9 102 11h29q48 0 77 -5v-190z" />
    <glyph glyph-name="uni06B9.fina" unicode="&#x6b9;" horiz-adv-x="1243" 
d="M657 640q-58 8 -110 8t-99 -8v187q17 9 101 11q52 0 108 -4v-194zM1271 0h-91q-56 0 -110 43q-35 -179 -251 -261q-157 -61 -378 -61q-365 0 -367 296v6q0 109 68 283q70 178 157 286l130 -86q-61 -100 -113 -236q-60 -156 -60 -253q0 -131 201 -131q207 0 304 45
q145 63 145 240q0 181 -147 587l153 65q111 -268 165 -518q12 -50 45.5 -90t74.5 -40h74v-175zM657 -611q-58 8 -110 8t-99 -8v187q17 9 101 11q52 0 108 -4v-194z" />
    <glyph glyph-name="uni06BC.init" unicode="&#x6bc;" horiz-adv-x="661" 
d="M111 0h-139v175h255q52 0 91 41q34 47 36 99v7q0 17 -8 39l-143 417l164 75q76 -196 158 -453q13 -46 13 -97q0 -115 -67 -204q-37 -49 -84 -74q86 -99 86 -180q0 -61 -37 -107q-41 -48 -100 -48h-135q-133 0 -133 132q0 86 43 178zM268 0h-41q-46 -99 -46 -153
q0 -56 38 -56h91q25 0 41 18q13 20 13 42q0 39 -56 107q-19 22 -40 42zM380 953q-53 5 -100 5q-59 0 -108 -8v188q20 9 100 9q84 0 108 -4v-190z" />
    <glyph glyph-name="uni06BC.medi" unicode="&#x6bc;" horiz-adv-x="635" 
d="M310 953q-53 5 -100 5q-59 0 -108 -8v188q20 9 100 9q84 0 108 -4v-190zM71 0h-99v175h203q56 0 90.5 41t34.5 99q0 28 -8 46l-143 417l162 75q54 -132 214 -613q20 -65 69 -65h69v-175h-69q-116 0 -181 102q-34 -44 -73 -69q93 -104 93 -188q0 -61 -37 -107
q-41 -48 -100 -48h-135q-133 0 -133 132q0 86 43 178zM228 0h-41q-46 -99 -46 -153q0 -56 38 -56h91q25 0 41 18q13 20 13 42q0 39 -56 107q-19 22 -40 42z" />
    <glyph glyph-name="uni06BC.fina" unicode="&#x6bc;" horiz-adv-x="1243" 
d="M657 640q-58 8 -110 8t-99 -8v187q17 9 101 11q52 0 108 -4v-194zM562 -274q-12 -1 -25 -2l3 -1q-51 -106 -51 -163q0 -56 38 -56h91q25 0 41 18q13 20 13 42q0 39 -56 107q-25 30 -54 55zM423 -279q-347 7 -349 296v6q0 109 68 283q70 178 157 286l130 -86
q-61 -100 -113 -236q-60 -156 -60 -253q0 -131 201 -131q207 0 304 45q145 63 145 240q0 181 -147 587l153 65q111 -268 165 -518q12 -50 45.5 -90t74.5 -40h74v-175h-91q-56 0 -110 43q-35 -179 -251 -261q-60 -23 -129 -38q91 -103 91 -186q0 -61 -37 -107
q-41 -48 -100 -48h-135q-133 0 -133 132q0 90 47 186z" />
    <glyph glyph-name="uni06BD.init" unicode="&#x6bd;" horiz-adv-x="661" 
d="M525 400q13 -46 13 -97q0 -115 -67 -204q-75 -99 -186 -99h-313v175h255q52 0 91 41q34 47 36 99v7q0 17 -8 39l-143 417l164 75q76 -196 158 -453zM387 1216q-58 7 -110 7t-100 -7v188q18 7 104 9h28q46 0 78 -5v-192zM551 1143q-4 0 -17 -199q-70 15 -244 19
q-31 1 -59 1q-122 0 -192 -11l-7 194q72 15 258 17h16q172 0 245 -21z" />
    <glyph glyph-name="uni06BD.medi" unicode="&#x6bd;" horiz-adv-x="635" 
d="M408 1225q-56 6 -105 6q-57 0 -104 -8v188q17 8 101 8q83 0 108 -4v-190zM570 1149q-4 -21 -15 -196q-71 15 -244 17q-36 1 -68 1q-120 0 -185 -12l-6 193q67 17 257 19h28q166 0 233 -22zM663 0h-69q-116 0 -181 102q-80 -102 -182 -102h-259v175h203q56 0 90.5 41
t34.5 99q0 28 -8 46l-143 417l162 75q54 -132 214 -613q20 -65 69 -65h69v-175z" />
    <glyph glyph-name="uni06BD.fina" unicode="&#x6bd;" horiz-adv-x="1243" 
d="M1271 0h-91q-56 0 -110 43q-35 -179 -251 -261q-157 -61 -378 -61q-365 0 -367 296v6q0 109 68 283q70 178 157 286l130 -86q-61 -100 -113 -236q-60 -156 -60 -253q0 -131 201 -131q207 0 304 45q145 63 145 240q0 181 -147 587l153 65q111 -268 165 -518
q12 -50 45.5 -90t74.5 -40h74v-175zM644 1111q-58 7 -110 7t-100 -7v188q18 7 104 9h28q46 0 78 -5v-192zM808 1038q-4 0 -17 -199q-70 15 -244 19q-31 1 -59 1q-122 0 -192 -11l-7 194q72 15 258 17h16q172 0 245 -21z" />
    <glyph glyph-name="uni06BF.init" unicode="&#x6bf;" horiz-adv-x="964" 
d="M512 950q-58 7 -110 7t-100 -7v188q18 7 104 9h24q46 0 82 -6v-191zM821 281q20 -39 20 -82q0 -80 -48 -139.5t-125 -59.5h-696v175h667q20 0 24 20q1 4 1 7q0 15 -9 31l-208 380q-17 27 -34 27t-28 -27l-152 -401l-173 60l191 465q38 92 157 93q115 0 165 -93zM704 -162
q-4 0 -15 -197q-75 16 -242 20q-44 2 -82 2q-109 0 -173 -13l-8 194q82 16 261 16q201 0 259 -22zM523 -609q-58 8 -110 8q-54 0 -100 -8v186q18 10 100 12h16q55 0 94 -6v-192z" />
    <glyph glyph-name="uni06BF.medi" unicode="&#x6bf;" horiz-adv-x="962" 
d="M512 950q-58 7 -110 7t-100 -7v188q18 7 104 9h24q46 0 82 -6v-191zM990 0h-67q-24 0 -60 26t-46 50q-52 -76 -138 -76h-707v175h680q22 0 26 20q1 4 1 7q0 15 -9 31l-208 380q-17 27 -34 27q-18 0 -28 -27l-154 -401l-172 60l190 465q38 92 157 93q117 0 167 -93
l263 -489q39 -73 93 -73h46v-175zM704 -162q-4 0 -15 -197q-75 16 -242 20q-44 2 -82 2q-109 0 -173 -13l-8 194q82 16 261 16q201 0 259 -22zM523 -609q-58 8 -110 8q-54 0 -100 -8v186q18 10 100 12h16q55 0 94 -6v-192z" />
    <glyph glyph-name="uni06BF.fina" unicode="&#x6bf;" horiz-adv-x="1042" 
d="M586 950q-58 7 -110 7q-50 0 -97 -7v188q13 7 101 9h25q48 0 81 -6v-191zM1070 0h-69q-24 0 -59.5 26t-46.5 50q-52 -76 -138 -76h-331q-160 0 -160 -143q0 -45 30.5 -84t80.5 -47l529 -87l-28 -179l-573 91q-101 17 -165 106.5t-66 199.5v5q0 140 104 227q101 86 248 86
h303q21 0 24 20q1 5 1 9q0 14 -8 29l-207 380q-16 27 -35 27t-28 -27l-153 -401l-173 60l192 465q37 92 156 93q118 0 168 -93l261 -489q39 -73 95 -73h48v-175zM701 -47q-5 -18 -11 -109q-28 7 -132 11q-27 1 -50 1q-58 0 -90 -7l-2 106q36 8 144 8q110 0 141 -10z
M612 -270q-33 3 -59 3q-35 0 -57 -5v106q6 4 54 4q49 0 62 -4v-104z" />
    <glyph glyph-name="uni06C2.fina" unicode="&#x6c2;" horiz-adv-x="862" 
d="M544 1089q-177 -50 -298 -121l-54 71l74 39q-89 54 -89 136v2q0 169 275 175l6 -82q-194 -15 -194 -90q0 -40 33.5 -63.5t76.5 -23.5q23 0 145 41zM890 0h-155q-191 0 -193 335q0 45 18 168q13 91 13 117q0 60 -72 60q-95 0 -176 -81t-81 -154q0 -58 52 -175
q43 -99 88 -164l-120 -95q-72 82 -130 211q-60 135 -60 236q0 142 168 274q158 126 304 126q74 0 130 -35q67 -41 67 -112t-14 -210.5t-14 -210.5q0 -115 76 -115h99v-175z" />
    <glyph glyph-name="uni06C3.fina" unicode="&#x6c3;" horiz-adv-x="862" 
d="M754 1143q-7 0 -17 -197q-80 15 -240 18q-35 1 -67 1q-119 0 -188 -12l-7 194q82 17 258 17q200 0 261 -21zM890 0h-155q-191 0 -193 335q0 45 18 168q13 91 13 117q0 60 -72 60q-95 0 -176 -81t-81 -154q0 -58 52 -175q43 -99 88 -164l-120 -95q-72 82 -130 211
q-60 135 -60 236q0 142 168 274q158 126 304 126q74 0 130 -35q67 -41 67 -112t-14 -210.5t-14 -210.5q0 -115 76 -115h99v-175z" />
    <glyph glyph-name="uni06C4.fina" unicode="&#x6c4;" horiz-adv-x="838" 
d="M562 175q6 28 6 45q0 141 -84 294q-76 138 -117 138q-67 0 -71 -237q0 -74 28 -156q37 -84 89 -84h149zM438 5q-30 0 -51.5 -21.5t-21.5 -52.5q0 -30 21.5 -51.5t51.5 -21.5q31 0 52.5 21.5t21.5 51.5q0 31 -21.5 52.5t-52.5 21.5zM555 -61v8q0 56 -38.5 94.5t-93.5 38.5
q-56 0 -94 -38q-16 -16 -26 -35q-88 27 -135 161q-45 119 -45 264q0 136 45 255q61 156 177 158h2q129 0 266 -234q128 -222 128 -436h125v-175h-145q-47 -194 -209 -356l-128 120q28 24 51 51q-46 1 -79 34q-34 34 -34 82q0 49 34 83t82 34q49 0 83 -34q31 -31 34 -75z" />
    <glyph glyph-name="uni06CA.fina" unicode="&#x6ca;" horiz-adv-x="864" 
d="M892 0h-145q-47 -194 -209 -356l-128 120q111 96 145 236h-179q-123 0 -182 168q-45 119 -45 264q0 136 45 255q61 156 177 158h2q129 0 266 -234q128 -222 128 -436h125v-175zM588 175q6 28 6 45q0 141 -84 294q-76 138 -117 138q-67 0 -71 -237q0 -74 28 -156
q37 -84 89 -84h149zM645 1119q-6 0 -17 -198q-82 15 -244 19q-38 1 -72 1q-111 0 -179 -10l-10 193q90 15 259 15q201 0 263 -20z" />
    <glyph glyph-name="uni06CD.fina" unicode="&#x6cd;" horiz-adv-x="1252" 
d="M690 651l2 -1q-91 -131 -190 -320q-117 -224 -117 -315q0 -127 89 -177q64 -37 207 -37q84 0 162 24q102 34 104 93q0 37 -38 59.5t-77 22.5v171h448v-171h-176q33 -67 35 -93q0 -142 -188 -216q-140 -54 -307 -56h-5q-444 0 -444 341q0 115 131 377q-104 -40 -223 -53
l-29 173q290 58 446 234q6 7 12 15q8 11 15 21l61 -39l83 -52z" />
    <glyph glyph-name="uni06CE.init" unicode="&#x6ce;" horiz-adv-x="661" 
d="M525 400q13 -46 13 -97q0 -115 -67 -204q-75 -99 -186 -99h-313v175h255q52 0 91 41q34 47 36 99v7q0 17 -8 39l-143 417l164 75q76 -196 158 -453zM261 1152q13 -25 27 -25h1q13 0 22 24l90 262l134 -59l-119 -320q-30 -83 -122 -83h-4q-92 2 -131 89l-140 310l123 65z
M566 -155q-4 -20 -15 -197q-67 17 -244 21h-23q-157 0 -228 -13l-10 195q60 15 259 15h31q172 0 230 -21z" />
    <glyph glyph-name="uni06CE.medi" unicode="&#x6ce;" horiz-adv-x="635" 
d="M663 0h-69q-116 0 -181 102q-80 -102 -182 -102h-259v175h203q56 0 90.5 41t34.5 99q0 28 -8 46l-143 417l162 75q54 -132 214 -613q20 -65 69 -65h69v-175zM586 -155q-7 0 -18 -197q-62 17 -242 21h-23q-155 0 -229 -13l-9 195q62 15 261 15h30q168 0 230 -21zM261 1152
q13 -25 27 -25h1q13 0 22 24l90 262l134 -59l-119 -320q-30 -83 -122 -83h-4q-92 2 -131 89l-140 310l123 65z" />
    <glyph glyph-name="uni06CE.fina" unicode="&#x6ce;" horiz-adv-x="1131" 
d="M381 330q-117 -224 -117 -315q0 -127 89 -177q64 -37 207 -37q84 0 162 24q102 34 104 93q0 37 -38 59.5t-77 22.5v171h448v-171h-176q33 -67 35 -93q0 -142 -188 -216q-140 -54 -307 -56h-5q-444 0 -444 341q0 119 140 396q34 68 65 128l139 -100q-18 -34 -37 -70z
M464 703q13 -25 27 -25h1q13 0 22 24l90 262l134 -59l-119 -320q-30 -83 -122 -83h-4q-92 2 -131 89l-140 310l123 65z" />
    <glyph glyph-name="uni06CF.fina" unicode="&#x6cf;" horiz-adv-x="838" 
d="M866 0h-145q-47 -194 -209 -356l-128 120q111 96 145 236h-179q-123 0 -182 168q-45 119 -45 264q0 136 45 255q61 156 177 158h2q129 0 266 -234q128 -222 128 -436h125v-175zM562 175q6 28 6 45q0 141 -84 294q-76 138 -117 138q-67 0 -71 -237q0 -74 28 -156
q37 -84 89 -84h149zM455 941q-56 6 -106 6q-57 0 -106 -8v187q26 11 104 13h15q54 0 93 -6v-192z" />
    <glyph glyph-name="uni06D1.init" unicode="&#x6d1;" horiz-adv-x="661" 
d="M525 400q13 -46 13 -97q0 -115 -67 -204q-75 -99 -186 -99h-313v175h255q52 0 91 41q34 47 36 99v7q0 17 -8 39l-143 417l164 75q76 -196 158 -453zM564 -162q-7 -33 -17 -197q-74 16 -244 20q-43 2 -81 2q-106 0 -170 -13l-9 194q82 16 259 16q204 0 262 -22zM380 -609
q-58 8 -110 8t-99 -8v186q19 10 101 12h17q57 0 91 -6v-192z" />
    <glyph glyph-name="uni06D1.medi" unicode="&#x6d1;" horiz-adv-x="635" 
d="M663 0h-69q-116 0 -181 102q-80 -102 -182 -102h-259v175h203q56 0 90.5 41t34.5 99q0 28 -8 46l-143 417l162 75q54 -132 214 -613q20 -65 69 -65h69v-175zM577 -162q-7 0 -13 -197q-74 16 -244 20q-44 2 -82 2q-108 0 -173 -13l-7 194q82 16 260 16q200 0 259 -22z
M395 -609q-58 8 -110 8t-101 -8v186q21 10 103 12h15q54 0 93 -6v-192z" />
    <glyph glyph-name="uni06D1.fina" unicode="&#x6d1;" horiz-adv-x="1131" 
d="M1159 0h-176q33 -67 35 -93q0 -142 -188 -216q-140 -54 -307 -56h-5q-444 0 -444 341q0 119 140 396q119 241 212 371l145 -93q-91 -131 -190 -320q-117 -224 -117 -315q0 -127 89 -177q64 -37 207 -37q84 0 162 24q102 34 104 93q0 37 -38 59.5t-77 22.5v171h448v-171z
M798 -468q-7 -33 -17 -197q-74 16 -244 20q-43 2 -81 2q-106 0 -170 -13l-9 194q82 16 259 16q204 0 262 -22zM614 -915q-58 8 -110 8t-99 -8v186q19 10 101 12h17q57 0 91 -6v-192z" />
    <glyph glyph-name="uni06D5.fina" unicode="&#x6d5;" horiz-adv-x="862" 
d="M890 0h-155q-191 0 -193 335q0 45 18 168q13 91 13 117q0 60 -72 60q-95 0 -176 -81t-81 -154q0 -58 52 -175q43 -99 88 -164l-120 -95q-72 82 -130 211q-60 135 -60 236q0 142 168 274q158 126 304 126q74 0 130 -35q67 -41 67 -112t-14 -210.5t-14 -210.5
q0 -115 76 -115h99v-175z" />
    <glyph glyph-name="uni06EE.fina" unicode="&#x6ee;" horiz-adv-x="886" 
d="M914 0h-126q-28 0 -74.5 33.5t-59.5 63.5q-65 -97 -164 -97h-367v175h309q65 0 65 74q0 28 -13 49l-303 430l130 110l427 -575q65 -88 111 -88h65v-175zM348 1213q-13 25 -27 25h-1q-13 0 -22 -24l-90 -262l-134 59l119 320q30 83 122 83h4q92 -2 131 -89l140 -310
l-123 -65z" />
    <glyph glyph-name="uni06EF.fina" unicode="&#x6ef;" horiz-adv-x="703" 
d="M731 0h-78q-48 0 -98 43q-39 -229 -205 -404l-132 110q177 231 177 471q0 113 -71 303l-97 259l156 78l192 -549q49 -136 116 -136h40v-175zM348 1213q-13 25 -27 25h-1q-13 0 -22 -24l-90 -262l-134 59l119 320q30 83 122 83h4q92 -2 131 -89l140 -310l-123 -65z" />
    <glyph glyph-name="uni06FA.init" unicode="&#x6fa;" horiz-adv-x="1309" 
d="M614 1221q-57 6 -108 6q-52 0 -98 -6v187q20 9 100 11h26q50 0 80 -6v-192zM780 1147q-7 0 -17 -197q-76 14 -240 18q-44 2 -82 2q-108 0 -173 -13l-7 194q82 16 258 16q200 0 261 -20zM1165 421q21 -52 21 -112q0 -127 -78 -214q-82 -93 -207 -95h-6q-63 0 -137 39
q-62 32 -82 67q-54 -106 -190 -106q-173 0 -244 104q-52 -104 -190 -104h-80v175h69q43 0 76.5 40t36.5 79q0 9 -3 17l-93 450l165 54l84 -405q26 -123 36 -144q40 -91 119 -91q102 0 102 134q0 34 -4 43l-91 409l168 62l87 -412q21 -91 47 -147q41 -89 113 -89q54 0 82 47
q24 41 24 98q0 30 -5 47l-142 391l162 65zM684 -333q-54 6 -103 6q-56 0 -105 -8v186q24 9 102 11h29q48 0 77 -5v-190z" />
    <glyph glyph-name="uni06FA.medi" unicode="&#x6fa;" horiz-adv-x="1370" 
d="M614 1221q-57 6 -108 6q-52 0 -98 -6v187q20 9 100 11h26q50 0 80 -6v-192zM780 1147q-7 0 -17 -197q-76 14 -240 18q-44 2 -82 2q-108 0 -173 -13l-7 194q82 16 258 16q200 0 261 -20zM1398 0h-115q-92 0 -173 89q-79 -89 -209 -89q-74 0 -143 37q-60 32 -82 67
q-24 -43 -82 -73.5t-108 -30.5q-173 0 -244 104q-52 -104 -190 -104h-80v175h69q43 0 76.5 40t36.5 79q0 9 -3 17l-93 450l165 54l84 -405q13 -62 36 -146q39 -91 119 -93h3q99 0 99 136q0 28 -4 45l-91 409l168 60l87 -411q21 -93 47 -147q41 -92 113 -92q52 0 82 51
q24 41 24 96q0 32 -5 49l-142 391l162 63l196 -510q52 -136 117 -136h80v-175zM684 -333q-54 6 -103 6q-56 0 -105 -8v186q24 9 102 11h29q48 0 77 -5v-190z" />
    <glyph glyph-name="uni06FA.fina" unicode="&#x6fa;" horiz-adv-x="2072" 
d="M1334 1225q-59 6 -111 6t-101 -6v186q21 8 104 8q82 0 108 -2v-192zM1498 1149q-5 0 -16 -196q-82 17 -244 21h-40q-144 0 -212 -13l-9 193q82 17 259 17q203 0 262 -22zM2100 0h-97q-93 0 -171 89q-81 -89 -211 -89q-74 0 -145 37q-47 23 -82 67q-50 -104 -179 -104
q-93 0 -145 24q-17 -164 -253 -246q-168 -57 -376 -57q-367 0 -367 296q0 123 73 301q67 170 150 274l134 -86q-65 -96 -117 -236q-59 -156 -59 -253q0 -131 201 -131q450 0 450 231q0 13 -3 54l-123 590q48 17 163 54l84 -405q24 -116 36 -146q41 -91 119 -93q48 0 78 41
q24 47 24 95q0 17 -5 45l-88 409l164 60l91 -411q24 -110 43 -147q45 -92 115 -92q53 0 82 49q25 37 26 98v9q0 19 -7 40l-140 391l160 63l194 -510q52 -136 121 -136h60v-175zM1414 -333q-54 6 -103 6q-56 0 -105 -8v186q24 9 102 11h29q48 0 77 -5v-190z" />
    <glyph glyph-name="uni06FB.init" unicode="&#x6fb;" horiz-adv-x="1272" 
d="M886 950q-58 7 -110 7t-98 -7v188q16 7 100 9h26q49 0 82 -6v-191zM1124 506q25 -95 25 -176q0 -112 -47 -181q-106 -153 -445 -155h-6q-197 0 -346 64q-22 -24 -91 -43q-60 -15 -104 -15h-138v175h138q61 0 80 32q13 22 13 87q0 173 -119 467q67 23 154 75
q56 -110 96 -276.5t40 -295.5q47 214 191 393t267 179q95 0 184 -104q71 -84 108 -226zM976 313q0 100 -43 216q-52 132 -121 132h-2q-83 0 -170 -175q-68 -142 -96 -304q83 -7 147 -7q283 0 285 138zM886 -333q-54 6 -103 6q-56 0 -105 -8v186q24 9 102 11h29q48 0 77 -5
v-190z" />
    <glyph glyph-name="uni06FB.medi" unicode="&#x6fb;" horiz-adv-x="1325" 
d="M886 950q-58 7 -110 7t-98 -7v188q16 7 100 9h26q49 0 82 -6v-191zM1353 0h-104q-54 0 -112.5 37t-75.5 86q-33 -73 -195 -106q-108 -23 -235 -23q-238 0 -326 64q-22 -24 -91 -43q-60 -15 -104 -15h-138v175h138q61 0 80 32q13 22 13 87q0 173 -119 467q67 23 154 75
q56 -110 96 -276.5t40 -295.5q47 214 191 393t267 179q97 0 184 -104q81 -99 108 -226q12 -74 41 -221q26 -114 101 -114h87v-171zM976 313q0 100 -43 216q-52 132 -121 132h-2q-83 0 -170 -175q-68 -142 -96 -304q83 -7 147 -7q283 0 285 138zM886 -333q-54 6 -103 6
q-56 0 -105 -8v186q24 9 102 11h29q48 0 77 -5v-190z" />
    <glyph glyph-name="uni06FB.fina" unicode="&#x6fb;" horiz-adv-x="2003" 
d="M1593 946q-57 7 -110 7q-50 0 -96 -7v186q14 9 100 11q65 0 106 -5v-192zM2031 0h-90q-52 0 -109.5 37t-76.5 86q-57 -123 -419 -125h-21q-142 0 -245 26q-17 -164 -253 -246q-168 -57 -376 -57q-367 0 -367 296q0 123 73 301q67 170 150 274l134 -86q-65 -96 -117 -236
q-59 -156 -59 -253q0 -131 201 -131q204 0 301 45q144 63 146 240v5q0 278 -123 585q67 23 152 75q132 -257 140 -572q43 213 188 392.5t264 179.5q101 0 187 -104q78 -95 106 -226q13 -74 41 -221q24 -114 104 -114h69v-171zM1670 313v4q0 96 -45 212q-52 132 -121 132h-2
q-87 0 -175 -199q-65 -149 -89 -280q83 -7 149 -7q281 0 283 138zM1593 -333q-54 6 -103 6q-56 0 -105 -8v186q24 9 102 11h29q48 0 77 -5v-190z" />
    <glyph glyph-name="uni06FC.init" unicode="&#x6fc;" horiz-adv-x="940" 
d="M518 948q-58 7 -112 7q-52 0 -99 -7v186q21 9 101 11h25q49 0 85 -6v-191zM817 778l-35 -164l-229 45q-39 8 -65 9h-7q-91 0 -166 -52q-88 -59 -88 -149q0 -119 107 -205.5t232 -86.5h231v-175h-825v175h212q-123 138 -124 294v4q0 142 132 261q124 109 258 109
q34 0 43 -3zM515 -333q-54 6 -103 6q-56 0 -105 -8v186q24 9 102 11h29q48 0 77 -5v-190z" />
    <glyph glyph-name="uni06FC.medi" unicode="&#x6fc;" horiz-adv-x="1111" 
d="M633 955q-58 8 -110 8t-99 -8v188q23 6 101 8h16q41 0 92 -4v-192zM1139 0h-575v141q0 112 66 244.5t154 208.5q-32 32 -132 54q-86 20 -148 20q-102 0 -178 -50q-91 -58 -91 -160q0 -112 85.5 -197.5t197.5 -89.5v-171h-546v175h201q-119 108 -119 281q0 181 141 285
q127 95 306 95q126 0 287 -55t260 -133l-65 -145q-102 -26 -161 -115.5t-59 -212.5h376v-175zM632 -333q-54 6 -103 6q-56 0 -105 -8v186q24 9 102 11h29q48 0 77 -5v-190z" />
    <glyph glyph-name="uni06FC.fina" unicode="&#x6fc;" horiz-adv-x="1146" 
d="M647 955q-55 8 -108 8q-52 0 -98 -8v188q20 6 100 8h17q43 0 89 -4v-192zM1174 0h-556v141q0 118 65 248q63 123 158 205q-35 32 -119 52q-95 22 -164 22q-102 0 -181 -50q-89 -56 -89 -160v-5q0 -109 85 -192q86 -86 198 -90v-171h-106q-74 0 -127.5 -38t-53.5 -103
q0 -60 53 -103q46 -37 108 -46l478 -75l-26 -169l-501 76q-151 22 -240 125q-82 93 -82 208q0 175 199 259q-72 41 -123 143q-44 90 -44 179v5q0 173 145 280q126 95 305 95q129 0 302 -61q152 -54 244 -127l-65 -145q-99 -25 -157.5 -113t-58.5 -215h353v-175zM664 -251
q-60 8 -110 8q-52 0 -99 -8v188q12 6 101 8q13 1 26 1q39 0 82 -5v-192z" />
    <glyph glyph-name="uni06FF.init" unicode="&#x6ff;" horiz-adv-x="1045" 
d="M922 199q0 -82 -85 -140.5t-189 -58.5h-676v175h130q-24 63 -24 177q0 112 62 212q70 114 182 145l-11 12l97 119q182 -92 348 -297.5t166 -343.5zM732 242q0 95 -164 268v-22q2 -17 2 -30q0 -209 -82 -283h130q48 0 75 13q39 22 39 54zM380 352q16 52 16 153
q0 74 -16 74q-32 0 -73 -75.5t-48 -134.5q-4 -24 -4 -52t4 -60q7 -71 26 -75q33 0 95 170zM425 1183q-13 25 -27 25h-1q-13 0 -22 -24l-90 -262l-134 59l119 320q30 83 122 83h4q92 -2 131 -89l140 -310l-123 -65z" />
    <glyph glyph-name="uni06FF.medi" unicode="&#x6ff;" horiz-adv-x="806" 
d="M834 0h-69q-86 0 -138 -108q-41 -86 -41 -181q-46 -37 -130 -37q-125 0 -242 100.5t-117 225.5h-125v175h104q0 233 129 451q121 201 221 201q142 0 142 -365q0 -462 -242 -462h-45q0 -58 43 -93t102 -37q30 136 108 214q91 91 211 91h89v-175zM391 570q-32 0 -78 -136
q-49 -142 -51 -259h23q28 0 56 37t41 88q22 87 24 203q0 63 -15 67zM415 1183q-13 25 -27 25h-1q-13 0 -22 -24l-90 -262l-134 59l119 320q30 83 122 83h4q92 -2 131 -89l140 -310l-123 -65z" />
    <glyph glyph-name="uni06FF.fina" unicode="&#x6ff;" horiz-adv-x="909" 
d="M494 570q-63 -14 -122 -173q-35 -95 -35 -191q0 -66 17 -134q80 75 121.5 192t41.5 231q-8 71 -23 75zM290 -182q-71 -46 -154 -77l-62 155q75 33 138 73q-21 70 -29 160q-3 33 -3 66q0 215 128 431q121 201 221 201q142 0 142 -365q0 -319 -253 -544q50 -48 101 -48h10
q30 136 108 214q91 91 211 91h89v-175h-69q-86 0 -138 -108q-41 -86 -41 -181q-46 -37 -130 -37q-118 3 -235 105q-14 12 -34 39zM549 1183q-13 25 -27 25h-1q-13 0 -22 -24l-90 -262l-134 59l119 320q30 83 122 83h4q92 -2 131 -89l140 -310l-123 -65z" />
    <glyph glyph-name="uniFB50" unicode="&#x671;" horiz-adv-x="549" arabic-form="isolated" 
d="M421 0h-168q2 48 4 104v15q0 191 -50 561q-47 353 -97 519l177 34q50 -209 89 -481q48 -354 50 -607q0 -72 -5 -145zM482 1528q0 36 -17 78q-20 47 -46 47q-32 0 -66 -62q-25 -52 -51 -151q52 9 108 27q70 25 72 61zM228 1431l24 83v1q19 81 73.5 149t101.5 68
q35 0 70 -39q26 -32 41 -86q9 -37 9 -67q0 -42 -17 -69q-64 -62 -124 -84t-98.5 -31t-75.5 -13l-27 -1q-74 2 -79 89v69q0 30 -31 30h-4q-30 0 -56 -38q-29 -40 -29 -77q0 -28 19 -85l-64 -55q-5 12 -10 25q-25 70 -25 120q0 72 70 139q65 64 125 64h3q24 0 46 -17
q26 -19 26 -56v-5q-2 -24 -4 -55q6 -58 36 -59z" />
    <glyph glyph-name="uniFB51" unicode="&#x671;" horiz-adv-x="549" arabic-form="final" 
d="M577 0h-194q-139 0 -214 115q-63 99 -63 246q0 198 43.5 441.5t112.5 424.5l170 -52q-67 -170 -106 -414q-38 -227 -38 -389q0 -100 30 -145q37 -52 131 -52h128v-175zM482 1528q0 36 -17 78q-20 47 -46 47q-32 0 -66 -62q-25 -52 -51 -151q52 9 108 27q70 25 72 61z
M228 1431l24 83v1q19 81 73.5 149t101.5 68q35 0 70 -39q26 -32 41 -86q9 -37 9 -67q0 -42 -17 -69q-64 -62 -124 -84t-98.5 -31t-75.5 -13l-27 -1q-74 2 -79 89v69q0 30 -31 30h-4q-30 0 -56 -38q-29 -40 -29 -77q0 -28 19 -85l-64 -55q-5 12 -10 25q-25 70 -25 120
q0 72 70 139q65 64 125 64h3q24 0 46 -17q26 -19 26 -56v-5q-2 -24 -4 -55q6 -58 36 -59z" />
    <glyph glyph-name="uniFB52" unicode="&#x67b;" horiz-adv-x="1670" arabic-form="isolated" 
d="M1532 400q15 -44 15 -97q0 -111 -73 -207t-183 -96h-891q-131 0 -227.5 109t-98.5 282v6q0 99 65 242q54 117 123 197l136 -114q-58 -63 -101 -163.5t-43 -182.5v-4q0 -97 51 -150q46 -47 121 -47h810q55 0 88 41t36 99q0 18 -9 46l-141 417l162 75q59 -144 160 -453z
M891 -341q-59 8 -112 8q-52 0 -96 -8v186q16 10 102 12h16q54 0 90 -6v-192zM891 -609q-59 8 -112 8q-52 0 -96 -8v186q16 10 102 12h16q54 0 90 -6v-192z" />
    <glyph glyph-name="uniFB53" unicode="&#x67b;" horiz-adv-x="1686" arabic-form="final" 
d="M1714 0h-59q-114 0 -183 102q-80 -102 -181 -102h-891q-131 0 -227.5 109t-98.5 282v6q0 99 65 242q54 117 123 197l136 -114q-58 -63 -101 -163.5t-43 -182.5v-4q0 -97 51 -150q46 -47 121 -47h810q55 0 88 41t36 99q0 18 -9 46l-141 417l162 75q54 -132 214 -613
q20 -65 69 -65h59v-175zM891 -341q-59 8 -112 8q-52 0 -96 -8v186q16 10 102 12h16q54 0 90 -6v-192zM891 -609q-59 8 -112 8q-52 0 -96 -8v186q16 10 102 12h16q54 0 90 -6v-192z" />
    <glyph glyph-name="uniFB54" unicode="&#x67b;" horiz-adv-x="661" arabic-form="initial" 
d="M525 400q13 -46 13 -97q0 -115 -67 -204q-75 -99 -186 -99h-313v175h255q52 0 91 41q34 47 36 99v7q0 17 -8 39l-143 417l164 75q76 -196 158 -453zM377 -341q-59 8 -112 8q-52 0 -96 -8v186q16 10 102 12h16q54 0 90 -6v-192zM377 -609q-59 8 -112 8q-52 0 -96 -8v186
q16 10 102 12h16q54 0 90 -6v-192z" />
    <glyph glyph-name="uniFB55" unicode="&#x67b;" horiz-adv-x="635" arabic-form="medial" 
d="M663 0h-69q-116 0 -181 102q-80 -102 -182 -102h-259v175h203q56 0 90.5 41t34.5 99q0 28 -8 46l-143 417l162 75q54 -132 214 -613q20 -65 69 -65h69v-175zM397 -341q-59 8 -112 8q-52 0 -96 -8v186q16 10 102 12h16q54 0 90 -6v-192zM397 -609q-59 8 -112 8
q-52 0 -96 -8v186q16 10 102 12h16q54 0 90 -6v-192z" />
    <glyph glyph-name="uniFB56" unicode="&#x67e;" horiz-adv-x="1670" arabic-form="isolated" 
d="M1532 400q15 -44 15 -97q0 -111 -73 -207t-183 -96h-891q-131 0 -227.5 109t-98.5 282v6q0 99 65 242q54 117 123 197l136 -114q-58 -63 -101 -163.5t-43 -182.5v-4q0 -97 51 -150q46 -47 121 -47h810q55 0 88 41t36 99q0 18 -9 46l-141 417l162 75q59 -144 160 -453z
M1076 -162q-6 0 -17 -197q-73 16 -244 20q-44 2 -82 2q-108 0 -169 -13l-10 194q82 16 259 16q203 0 263 -22zM891 -609q-59 8 -112 8q-52 0 -96 -8v186q16 10 102 12h16q54 0 90 -6v-192z" />
    <glyph glyph-name="uniFB57" unicode="&#x67e;" horiz-adv-x="1686" arabic-form="final" 
d="M1714 0h-59q-114 0 -183 102q-80 -102 -181 -102h-891q-131 0 -227.5 109t-98.5 282v6q0 99 65 242q54 117 123 197l136 -114q-58 -63 -101 -163.5t-43 -182.5v-4q0 -97 51 -150q46 -47 121 -47h810q55 0 88 41t36 99q0 18 -9 46l-141 417l162 75q54 -132 214 -613
q20 -65 69 -65h59v-175zM1076 -162q-6 0 -17 -197q-73 16 -244 20q-44 2 -82 2q-108 0 -169 -13l-10 194q82 16 259 16q203 0 263 -22zM891 -609q-59 8 -112 8q-52 0 -96 -8v186q16 10 102 12h16q54 0 90 -6v-192z" />
    <glyph glyph-name="uniFB58" unicode="&#x67e;" horiz-adv-x="661" arabic-form="initial" 
d="M525 400q13 -46 13 -97q0 -115 -67 -204q-75 -99 -186 -99h-313v175h255q52 0 91 41q34 47 36 99v7q0 17 -8 39l-143 417l164 75q76 -196 158 -453zM564 -162q-7 -33 -17 -197q-74 16 -244 20q-43 2 -81 2q-106 0 -170 -13l-9 194q82 16 259 16q204 0 262 -22zM380 -609
q-58 8 -110 8t-99 -8v186q19 10 101 12h17q57 0 91 -6v-192z" />
    <glyph glyph-name="uniFB59" unicode="&#x67e;" horiz-adv-x="635" arabic-form="medial" 
d="M663 0h-69q-116 0 -181 102q-80 -102 -182 -102h-259v175h203q56 0 90.5 41t34.5 99q0 28 -8 46l-143 417l162 75q54 -132 214 -613q20 -65 69 -65h69v-175zM577 -162q-7 0 -13 -197q-74 16 -244 20q-44 2 -82 2q-108 0 -173 -13l-7 194q82 16 260 16q200 0 259 -22z
M395 -609q-58 8 -110 8t-101 -8v186q21 10 103 12h15q54 0 93 -6v-192z" />
    <glyph glyph-name="uniFB5A" unicode="&#x680;" horiz-adv-x="1670" arabic-form="isolated" 
d="M1532 400q15 -44 15 -97q0 -111 -73 -207t-183 -96h-891q-131 0 -227.5 109t-98.5 282v6q0 99 65 242q54 117 123 197l136 -114q-58 -63 -101 -163.5t-43 -182.5v-4q0 -97 51 -150q46 -47 121 -47h810q55 0 88 41t36 99q0 18 -9 46l-141 417l162 75q59 -144 160 -453z
M1073 -159q-4 0 -15 -196q-82 13 -242 19q-34 1 -64 1q-116 0 -191 -12l-7 195q89 13 260 13q198 0 259 -20zM1073 -409q-4 0 -15 -196q-82 13 -242 19q-34 1 -64 1q-116 0 -191 -12l-7 195q89 13 260 13q198 0 259 -20z" />
    <glyph glyph-name="uniFB5B" unicode="&#x680;" horiz-adv-x="1686" arabic-form="final" 
d="M1714 0h-59q-114 0 -183 102q-80 -102 -181 -102h-891q-131 0 -227.5 109t-98.5 282v6q0 99 65 242q54 117 123 197l136 -114q-58 -63 -101 -163.5t-43 -182.5v-4q0 -97 51 -150q46 -47 121 -47h810q55 0 88 41t36 99q0 18 -9 46l-141 417l162 75q54 -132 214 -613
q20 -65 69 -65h59v-175zM1073 -159q-4 0 -15 -196q-82 13 -242 19q-34 1 -64 1q-116 0 -191 -12l-7 195q89 13 260 13q198 0 259 -20zM1073 -409q-4 0 -15 -196q-82 13 -242 19q-34 1 -64 1q-116 0 -191 -12l-7 195q89 13 260 13q198 0 259 -20z" />
    <glyph glyph-name="uniFB5C" unicode="&#x680;" horiz-adv-x="661" arabic-form="initial" 
d="M525 400q13 -46 13 -97q0 -115 -67 -204q-75 -99 -186 -99h-313v175h255q52 0 91 41q34 47 36 99v7q0 17 -8 39l-143 417l164 75q76 -196 158 -453zM564 -159q-4 0 -15 -196q-82 13 -242 19q-34 1 -64 1q-116 0 -191 -12l-7 195q89 13 260 13q198 0 259 -20zM564 -409
q-4 0 -15 -196q-82 13 -242 19q-34 1 -64 1q-116 0 -191 -12l-7 195q89 13 260 13q198 0 259 -20z" />
    <glyph glyph-name="uniFB5D" unicode="&#x680;" horiz-adv-x="635" arabic-form="medial" 
d="M663 0h-69q-116 0 -181 102q-80 -102 -182 -102h-259v175h203q56 0 90.5 41t34.5 99q0 28 -8 46l-143 417l162 75q54 -132 214 -613q20 -65 69 -65h69v-175zM574 -159q-4 0 -15 -196q-82 13 -242 19q-34 1 -64 1q-116 0 -191 -12l-7 195q89 13 260 13q198 0 259 -20z
M574 -409q-4 0 -15 -196q-82 13 -242 19q-34 1 -64 1q-116 0 -191 -12l-7 195q89 13 260 13q198 0 259 -20z" />
    <glyph glyph-name="uniFB5E" unicode="&#x67a;" horiz-adv-x="1670" arabic-form="isolated" 
d="M901 769q-58 8 -110 8t-101 -8v186q24 10 103 10q85 0 108 -4v-192zM900 1020q-58 8 -110 8t-100 -8v186q24 10 102 10q86 0 108 -4v-192zM1532 400q15 -44 15 -97q0 -111 -72.5 -207t-182.5 -96h-892q-130 0 -227 109t-99 282v3q0 100 66 245q54 117 123 197l135 -114
q-57 -63 -100 -163.5t-43 -182.5v-7q0 -95 50 -147q47 -47 121 -47h810q56 0 88.5 41t36.5 99q0 18 -9 46l-142 417l162 75q60 -144 160 -453z" />
    <glyph glyph-name="uniFB5F" unicode="&#x67a;" horiz-adv-x="1686" arabic-form="final" 
d="M1714 0h-59q-114 0 -183 102q-80 -102 -181 -102h-891q-131 0 -227.5 109t-98.5 282v6q0 99 65 242q54 117 123 197l136 -114q-58 -63 -101 -163.5t-43 -182.5v-4q0 -97 51 -150q46 -47 121 -47h810q55 0 88 41t36 99q0 18 -9 46l-141 417l162 75q54 -132 214 -613
q20 -65 69 -65h59v-175zM901 769q-58 8 -110 8t-101 -8v186q24 10 103 10q85 0 108 -4v-192zM901 1020q-58 8 -110 8t-101 -8v186q24 10 103 10q85 0 108 -4v-192z" />
    <glyph glyph-name="uniFB60" unicode="&#x67a;" horiz-adv-x="661" arabic-form="initial" 
d="M525 400q13 -46 13 -97q0 -115 -67 -204q-75 -99 -186 -99h-313v175h255q52 0 91 41q34 47 36 99v7q0 17 -8 39l-143 417l164 75q76 -196 158 -453zM390 965q-58 8 -110 8t-101 -8v186q24 10 103 10q85 0 108 -4v-192zM390 1216q-58 8 -110 8t-101 -8v186q24 10 103 10
q85 0 108 -4v-192z" />
    <glyph glyph-name="uniFB61" unicode="&#x67a;" horiz-adv-x="635" arabic-form="medial" 
d="M663 0h-69q-116 0 -181 102q-80 -102 -182 -102h-259v175h203q56 0 90.5 41t34.5 99q0 28 -8 46l-143 417l162 75q54 -132 214 -613q20 -65 69 -65h69v-175zM380 975q-58 8 -110 8t-101 -8v186q24 10 103 10q85 0 108 -4v-192zM380 1226q-58 8 -110 8t-101 -8v186
q24 10 103 10q85 0 108 -4v-192z" />
    <glyph glyph-name="uniFB62" unicode="&#x67f;" horiz-adv-x="1670" arabic-form="isolated" 
d="M1065 1196q-4 0 -15 -196q-82 13 -242 19q-34 1 -64 1q-116 0 -191 -12l-7 195q89 13 260 13q198 0 259 -20zM1532 400q15 -44 15 -97q0 -111 -72.5 -207t-182.5 -96h-892q-130 0 -227 109t-99 282v3q0 100 66 245q54 117 123 197l135 -114q-57 -63 -100 -163.5
t-43 -182.5v-7q0 -95 50 -147q47 -47 121 -47h810q56 0 88.5 41t36.5 99q0 18 -9 46l-142 417l162 75q60 -144 160 -453zM1065 946q-4 0 -15 -196q-82 13 -242 19q-34 1 -64 1q-116 0 -191 -12l-7 195q89 13 260 13q198 0 259 -20z" />
    <glyph glyph-name="uniFB63" unicode="&#x67f;" horiz-adv-x="1686" arabic-form="final" 
d="M1714 0h-59q-114 0 -183 102q-80 -102 -181 -102h-891q-131 0 -227.5 109t-98.5 282v6q0 99 65 242q54 117 123 197l136 -114q-58 -63 -101 -163.5t-43 -182.5v-4q0 -97 51 -150q46 -47 121 -47h810q55 0 88 41t36 99q0 18 -9 46l-141 417l162 75q54 -132 214 -613
q20 -65 69 -65h59v-175zM1064 1196q-4 0 -15 -196q-82 13 -242 19q-34 1 -64 1q-116 0 -191 -12l-7 195q89 13 260 13q198 0 259 -20zM1064 946q-4 0 -15 -196q-82 13 -242 19q-34 1 -64 1q-116 0 -191 -12l-7 195q89 13 260 13q198 0 259 -20z" />
    <glyph glyph-name="uniFB64" unicode="&#x67f;" horiz-adv-x="661" arabic-form="initial" 
d="M525 400q13 -46 13 -97q0 -115 -67 -204q-75 -99 -186 -99h-313v175h255q52 0 91 41q34 47 36 99v7q0 17 -8 39l-143 417l164 75q76 -196 158 -453zM549 1392q-4 0 -15 -196q-82 13 -242 19q-34 1 -64 1q-116 0 -191 -12l-7 195q89 13 260 13q198 0 259 -20zM549 1142
q-4 0 -15 -196q-82 13 -242 19q-34 1 -64 1q-116 0 -191 -12l-7 195q89 13 260 13q198 0 259 -20z" />
    <glyph glyph-name="uniFB65" unicode="&#x67f;" horiz-adv-x="635" arabic-form="medial" 
d="M663 0h-69q-116 0 -181 102q-80 -102 -182 -102h-259v175h203q56 0 90.5 41t34.5 99q0 28 -8 46l-143 417l162 75q54 -132 214 -613q20 -65 69 -65h69v-175zM569 1392q-4 0 -15 -196q-82 13 -242 19q-34 1 -64 1q-116 0 -191 -12l-7 195q89 13 260 13q198 0 259 -20z
M569 1142q-4 0 -15 -196q-82 13 -242 19q-34 1 -64 1q-116 0 -191 -12l-7 195q89 13 260 13q198 0 259 -20z" />
    <glyph glyph-name="uniFB66" unicode="&#x679;" horiz-adv-x="1670" arabic-form="isolated" 
d="M1532 400q15 -44 15 -97q0 -111 -73 -207t-183 -96h-891q-131 0 -227.5 109t-98.5 282v6q0 99 65 242q54 117 123 197l136 -114q-58 -63 -101 -163.5t-43 -182.5v-4q0 -97 51 -150q46 -47 121 -47h810q55 0 88 41t36 99q0 18 -9 46l-141 417l162 75q59 -144 160 -453z
M1002 916q0 -72 -53 -113q-49 -38 -124 -38h-175v74q0 77 -22 218q-22 137 -45 221l71 21q16 -47 35 -151q19 -99 23 -155q18 44 60 90.5t76 46.5q57 0 105.5 -69t48.5 -145zM926 912q0 35 -20 83q-24 55 -53 56h-1q-27 0 -64 -73q-38 -75 -46 -137h90q94 0 94 71z" />
    <glyph glyph-name="uniFB67" unicode="&#x679;" horiz-adv-x="1686" arabic-form="final" 
d="M1714 0h-59q-114 0 -183 102q-80 -102 -181 -102h-891q-131 0 -227.5 109t-98.5 282v6q0 99 65 242q54 117 123 197l136 -114q-58 -63 -101 -163.5t-43 -182.5v-4q0 -97 51 -150q46 -47 121 -47h810q55 0 88 41t36 99q0 18 -9 46l-141 417l162 75q54 -132 214 -613
q20 -65 69 -65h59v-175zM1002 916q0 -72 -53 -113q-49 -38 -124 -38h-175v74q0 77 -22 218q-22 137 -45 221l71 21q16 -47 35 -151q19 -99 23 -155q18 44 60 90.5t76 46.5q57 0 105.5 -69t48.5 -145zM926 912q0 35 -20 83q-24 55 -53 56h-1q-27 0 -64 -73q-38 -75 -46 -137
h90q94 0 94 71z" />
    <glyph glyph-name="uniFB68" unicode="&#x679;" horiz-adv-x="661" arabic-form="initial" 
d="M525 400q13 -46 13 -97q0 -115 -67 -204q-75 -99 -186 -99h-313v175h255q52 0 91 41q34 47 36 99v7q0 17 -8 39l-143 417l164 75q76 -196 158 -453zM494 1099q0 -72 -53 -113q-49 -38 -124 -38h-175v74q0 77 -22 218q-22 137 -45 221l71 21q16 -47 35 -151
q19 -99 23 -155q18 44 60 90.5t76 46.5q57 0 105.5 -69t48.5 -145zM418 1095q0 35 -20 83q-24 55 -53 56h-1q-27 0 -64 -73q-38 -75 -46 -137h90q94 0 94 71z" />
    <glyph glyph-name="uniFB69" unicode="&#x679;" horiz-adv-x="635" arabic-form="medial" 
d="M663 0h-69q-116 0 -181 102q-80 -102 -182 -102h-259v175h203q56 0 90.5 41t34.5 99q0 28 -8 46l-143 417l162 75q54 -132 214 -613q20 -65 69 -65h69v-175zM484 1099q0 -72 -53 -113q-49 -38 -124 -38h-175v74q0 77 -22 218q-22 137 -45 221l71 21q16 -47 35 -151
q19 -99 23 -155q18 44 60 90.5t76 46.5q57 0 105.5 -69t48.5 -145zM408 1095q0 35 -20 83q-24 55 -53 56h-1q-27 0 -64 -73q-38 -75 -46 -137h90q94 0 94 71z" />
    <glyph glyph-name="uniFB6A" unicode="&#x6a4;" horiz-adv-x="1672" arabic-form="isolated" 
d="M1549 277q0 -128 -92 -202.5t-221 -74.5h-836q-130 0 -227 109t-99 282v3q0 98 56 226q52 121 125 203l132 -101q-43 -46 -89 -158q-43 -102 -43 -188v-7q0 -95 50 -147q47 -47 121 -47h810q138 0 138 63q-69 -22 -158 -22h-11q-380 0 -380 281q0 116 59 225
q73 129 179 129q157 0 326 -214q160 -201 160 -360zM1316 426q-22 66 -91 149q-78 95 -134 95q-45 0 -71 -59q-22 -51 -22 -99q0 -67 39 -97q35 -22 117 -22q105 0 162 33zM1195 1236q-56 6 -106 6q-57 0 -106 -8v187q26 11 104 13h16q54 0 92 -6v-192zM1359 1162
q-5 0 -17 -198q-82 15 -244 19q-38 1 -72 1q-110 0 -179 -10l-9 193q89 15 259 15q201 0 262 -20z" />
    <glyph glyph-name="uniFB6B" unicode="&#x6a4;" horiz-adv-x="1648" arabic-form="final" 
d="M1676 0h-458q-77 0 -105 20q-35 -20 -124 -20h-589q-130 0 -227 109t-99 282v3q0 98 56 226q52 121 125 203l132 -101q-43 -46 -89 -158q-43 -102 -43 -188v-7q0 -95 50 -147q47 -47 121 -47h570q-35 65 -35 231q0 154 44 275q60 159 170 159q130 0 260 -213
q116 -188 118 -292v-7q0 -115 -67 -153h190v-175zM1380 341q0 43 -77 184q-74 136 -106 136q-71 0 -71 -238q0 -175 80 -248q62 13 114 58q60 50 60 108zM1257 1236q-56 6 -106 6q-57 0 -106 -8v187q26 11 104 13h15q54 0 93 -6v-192zM1421 1162q-6 0 -17 -198
q-82 15 -244 19q-38 1 -72 1q-111 0 -179 -10l-10 193q90 15 259 15q201 0 263 -20z" />
    <glyph glyph-name="uniFB6C" unicode="&#x6a4;" horiz-adv-x="914" arabic-form="initial" 
d="M791 277q0 -124 -97 -204q-89 -73 -217 -73h-505v175h503q139 0 139 63q-68 -22 -160 -22h-11q-378 0 -380 281q0 114 62 224q72 130 178 130q157 0 326 -211q162 -201 162 -363zM557 426q-26 73 -100.5 158.5t-126.5 85.5q-40 0 -71 -63q-21 -52 -21 -95v-4
q0 -115 155 -115q108 0 164 33zM423 1236q-56 6 -106 6q-58 0 -107 -8v187q26 11 105 13h15q54 0 93 -6v-192zM586 1162q-5 0 -16 -198q-82 15 -244 19q-38 1 -72 1q-111 0 -180 -10l-9 193q90 15 259 15q201 0 262 -20z" />
    <glyph glyph-name="uniFB6D" unicode="&#x6a4;" horiz-adv-x="814" arabic-form="medial" 
d="M842 0h-460q-77 0 -103 20q-35 -20 -128 -20h-179v175h190q-35 67 -37 231v12q0 142 46 263q62 159 168 159q132 0 262 -213q118 -189 118 -292q0 -121 -69 -160h192v-175zM546 341q0 46 -77.5 183t-105.5 137q-71 0 -73 -238q0 -172 82 -248q47 9 103 50q69 49 71 116z
M423 1236q-56 6 -106 6q-58 0 -107 -8v187q26 11 105 13h15q54 0 93 -6v-192zM586 1162q-5 0 -16 -198q-82 15 -244 19q-38 1 -72 1q-111 0 -180 -10l-9 193q90 15 259 15q201 0 262 -20z" />
    <glyph glyph-name="uniFB6E" unicode="&#x6a6;" horiz-adv-x="1672" arabic-form="isolated" 
d="M1549 277q0 -128 -92 -202.5t-221 -74.5h-836q-130 0 -227 109t-99 282v3q0 98 56 226q52 121 125 203l132 -101q-43 -46 -89 -158q-43 -102 -43 -188v-7q0 -95 50 -147q47 -47 121 -47h810q138 0 138 63q-69 -22 -158 -22h-11q-380 0 -380 281q0 116 59 225
q73 129 179 129q157 0 326 -214q160 -201 160 -360zM1316 426q-22 66 -91 149q-78 95 -134 95q-45 0 -71 -59q-22 -51 -22 -99q0 -67 39 -97q35 -22 117 -22q105 0 162 33zM1358 1411q-4 0 -15 -196q-82 13 -242 19q-34 1 -64 1q-116 0 -191 -12l-7 195q89 13 260 13
q198 0 259 -20zM1358 1161q-4 0 -15 -196q-82 13 -242 19q-34 1 -64 1q-116 0 -191 -12l-7 195q89 13 260 13q198 0 259 -20z" />
    <glyph glyph-name="uniFB6F" unicode="&#x6a6;" horiz-adv-x="1648" arabic-form="final" 
d="M1676 0h-458q-77 0 -105 20q-35 -20 -124 -20h-589q-130 0 -227 109t-99 282v3q0 98 56 226q52 121 125 203l132 -101q-43 -46 -89 -158q-43 -102 -43 -188v-7q0 -95 50 -147q47 -47 121 -47h570q-35 65 -35 231q0 154 44 275q60 159 170 159q130 0 260 -213
q116 -188 118 -292v-7q0 -115 -67 -153h190v-175zM1380 341q0 43 -77 184q-74 136 -106 136q-71 0 -71 -238q0 -175 80 -248q62 13 114 58q60 50 60 108zM1418 1411q-4 0 -15 -196q-82 13 -242 19q-34 1 -64 1q-116 0 -191 -12l-7 195q89 13 260 13q198 0 259 -20z
M1418 1161q-4 0 -15 -196q-82 13 -242 19q-34 1 -64 1q-116 0 -191 -12l-7 195q89 13 260 13q198 0 259 -20z" />
    <glyph glyph-name="uniFB70" unicode="&#x6a6;" horiz-adv-x="914" arabic-form="initial" 
d="M791 277q0 -124 -97 -204q-89 -73 -217 -73h-505v175h503q139 0 139 63q-68 -22 -160 -22h-11q-378 0 -380 281q0 114 62 224q72 130 178 130q157 0 326 -211q162 -201 162 -363zM557 426q-26 73 -100.5 158.5t-126.5 85.5q-40 0 -71 -63q-21 -52 -21 -95v-4
q0 -115 155 -115q108 0 164 33zM583 1411q-4 0 -15 -196q-82 13 -242 19q-34 1 -64 1q-116 0 -191 -12l-7 195q89 13 260 13q198 0 259 -20zM583 1161q-4 0 -15 -196q-82 13 -242 19q-34 1 -64 1q-116 0 -191 -12l-7 195q89 13 260 13q198 0 259 -20z" />
    <glyph glyph-name="uniFB71" unicode="&#x6a6;" horiz-adv-x="814" arabic-form="medial" 
d="M842 0h-460q-77 0 -103 20q-35 -20 -128 -20h-179v175h190q-35 67 -37 231v12q0 142 46 263q62 159 168 159q132 0 262 -213q118 -189 118 -292q0 -121 -69 -160h192v-175zM546 341q0 46 -77.5 183t-105.5 137q-71 0 -73 -238q0 -172 82 -248q47 9 103 50q69 49 71 116z
M583 1411q-4 0 -15 -196q-82 13 -242 19q-34 1 -64 1q-116 0 -191 -12l-7 195q89 13 260 13q198 0 259 -20zM583 1161q-4 0 -15 -196q-82 13 -242 19q-34 1 -64 1q-116 0 -191 -12l-7 195q89 13 260 13q198 0 259 -20z" />
    <glyph glyph-name="uniFB72" unicode="&#x684;" horiz-adv-x="1055" arabic-form="isolated" 
d="M914 281q18 -35 18 -82q0 -80 -48.5 -139.5t-126.5 -59.5h-331q-160 0 -160 -143q0 -45 30.5 -84t80.5 -47l529 -87l-28 -179l-573 91q-101 17 -165 106.5t-66 199.5v5q0 140 104 227q101 86 248 86h303q21 0 24 20q1 5 1 9q0 14 -8 29l-207 380q-16 27 -35 27t-28 -27
l-153 -401l-173 60l192 465q37 92 156 93q118 0 168 -93zM612 -265q-33 3 -59 3q-35 0 -57 -5v106q6 4 54 4q49 0 62 -4v-104zM612 -145q-33 3 -59 3q-35 0 -57 -5v106q6 4 54 4q49 0 62 -4v-104z" />
    <glyph glyph-name="uniFB73" unicode="&#x684;" horiz-adv-x="1042" arabic-form="final" 
d="M1070 0h-69q-24 0 -59.5 26t-46.5 50q-52 -76 -138 -76h-331q-160 0 -160 -143q0 -45 30.5 -84t80.5 -47l529 -87l-28 -179l-573 91q-101 17 -165 106.5t-66 199.5v5q0 140 104 227q101 86 248 86h303q21 0 24 20q1 5 1 9q0 14 -8 29l-207 380q-16 27 -35 27t-28 -27
l-153 -401l-173 60l192 465q37 92 156 93q118 0 168 -93l261 -489q39 -73 95 -73h48v-175zM612 -265q-33 3 -59 3q-35 0 -57 -5v106q6 4 54 4q49 0 62 -4v-104zM612 -145q-33 3 -59 3q-35 0 -57 -5v106q6 4 54 4q49 0 62 -4v-104z" />
    <glyph glyph-name="uniFB74" unicode="&#x684;" horiz-adv-x="964" arabic-form="initial" 
d="M821 281q20 -39 20 -82q0 -80 -48 -139.5t-125 -59.5h-696v175h667q20 0 24 20q1 4 1 7q0 15 -9 31l-208 380q-17 27 -34 27t-28 -27l-152 -401l-173 60l191 465q38 92 157 93q115 0 165 -93zM521 -589q-58 8 -110 8t-101 -8v186q24 10 103 10q85 0 108 -4v-192z
M521 -338q-58 8 -110 8t-101 -8v186q24 10 103 10q85 0 108 -4v-192z" />
    <glyph glyph-name="uniFB75" unicode="&#x684;" horiz-adv-x="962" arabic-form="medial" 
d="M990 0h-67q-24 0 -60 26t-46 50q-52 -76 -138 -76h-707v175h680q22 0 26 20q1 4 1 7q0 15 -9 31l-208 380q-17 27 -34 27q-18 0 -28 -27l-154 -401l-172 60l190 465q38 92 157 93q117 0 167 -93l263 -489q39 -73 93 -73h46v-175zM521 -589q-58 8 -110 8t-101 -8v186
q24 10 103 10q85 0 108 -4v-192zM521 -338q-58 8 -110 8t-101 -8v186q24 10 103 10q85 0 108 -4v-192z" />
    <glyph glyph-name="uniFB76" unicode="&#x683;" horiz-adv-x="1055" arabic-form="isolated" 
d="M914 281q18 -35 18 -82q0 -80 -48.5 -139.5t-126.5 -59.5h-331q-160 0 -160 -143q0 -45 30.5 -84t80.5 -47l529 -87l-28 -179l-573 91q-101 17 -165 106.5t-66 199.5v5q0 140 104 227q101 86 248 86h303q21 0 24 20q1 5 1 9q0 14 -8 29l-207 380q-16 27 -35 27t-28 -27
l-153 -401l-173 60l192 465q37 92 156 93q118 0 168 -93zM756 -96q-3 0 -11 -139q-53 11 -171 14q-31 2 -58 2q-77 0 -122 -10l-6 138q58 11 185 11q142 0 183 -16z" />
    <glyph glyph-name="uniFB77" unicode="&#x683;" horiz-adv-x="1042" arabic-form="final" 
d="M1070 0h-69q-24 0 -59.5 26t-46.5 50q-52 -76 -138 -76h-331q-160 0 -160 -143q0 -45 30.5 -84t80.5 -47l529 -87l-28 -179l-573 91q-101 17 -165 106.5t-66 199.5v5q0 140 104 227q101 86 248 86h303q21 0 24 20q1 5 1 9q0 14 -8 29l-207 380q-16 27 -35 27t-28 -27
l-153 -401l-173 60l192 465q37 92 156 93q118 0 168 -93l261 -489q39 -73 95 -73h48v-175zM756 -96q-3 0 -11 -139q-53 11 -171 14q-31 2 -58 2q-77 0 -122 -10l-6 138q58 11 185 11q142 0 183 -16z" />
    <glyph glyph-name="uniFB78" unicode="&#x683;" horiz-adv-x="964" arabic-form="initial" 
d="M821 281q20 -39 20 -82q0 -80 -48 -139.5t-125 -59.5h-696v175h667q20 0 24 20q1 4 1 7q0 15 -9 31l-208 380q-17 27 -34 27t-28 -27l-152 -401l-173 60l191 465q38 92 157 93q115 0 165 -93zM704 -162q-4 0 -15 -197q-75 16 -242 20q-44 2 -82 2q-109 0 -173 -13l-8 194
q82 16 261 16q201 0 259 -22z" />
    <glyph glyph-name="uniFB79" unicode="&#x683;" horiz-adv-x="962" arabic-form="medial" 
d="M990 0h-67q-24 0 -60 26t-46 50q-52 -76 -138 -76h-707v175h680q22 0 26 20q1 4 1 7q0 15 -9 31l-208 380q-17 27 -34 27q-18 0 -28 -27l-154 -401l-172 60l190 465q38 92 157 93q117 0 167 -93l263 -489q39 -73 93 -73h46v-175zM704 -162q-4 0 -15 -197q-75 16 -242 20
q-44 2 -82 2q-109 0 -173 -13l-8 194q82 16 261 16q201 0 259 -22z" />
    <glyph glyph-name="uniFB7A" unicode="&#x686;" horiz-adv-x="1055" arabic-form="isolated" 
d="M914 281q18 -35 18 -82q0 -80 -48.5 -139.5t-126.5 -59.5h-331q-160 0 -160 -143q0 -45 30.5 -84t80.5 -47l529 -87l-28 -179l-573 91q-101 17 -165 106.5t-66 199.5v5q0 140 104 227q101 86 248 86h303q21 0 24 20q1 5 1 9q0 14 -8 29l-207 380q-16 27 -35 27t-28 -27
l-153 -401l-173 60l192 465q37 92 156 93q118 0 168 -93zM701 -47q-5 -18 -11 -109q-28 7 -132 11q-27 1 -50 1q-58 0 -90 -7l-2 106q36 8 144 8q110 0 141 -10zM612 -270q-33 3 -59 3q-35 0 -57 -5v106q6 4 54 4q49 0 62 -4v-104z" />
    <glyph glyph-name="uniFB7B" unicode="&#x686;" horiz-adv-x="1042" arabic-form="final" 
d="M1070 0h-69q-24 0 -59.5 26t-46.5 50q-52 -76 -138 -76h-331q-160 0 -160 -143q0 -45 30.5 -84t80.5 -47l529 -87l-28 -179l-573 91q-101 17 -165 106.5t-66 199.5v5q0 140 104 227q101 86 248 86h303q21 0 24 20q1 5 1 9q0 14 -8 29l-207 380q-16 27 -35 27t-28 -27
l-153 -401l-173 60l192 465q37 92 156 93q118 0 168 -93l261 -489q39 -73 95 -73h48v-175zM701 -47q-5 -18 -11 -109q-28 7 -132 11q-27 1 -50 1q-58 0 -90 -7l-2 106q36 8 144 8q110 0 141 -10zM612 -270q-33 3 -59 3q-35 0 -57 -5v106q6 4 54 4q49 0 62 -4v-104z" />
    <glyph glyph-name="uniFB7C" unicode="&#x686;" horiz-adv-x="964" arabic-form="initial" 
d="M821 281q20 -39 20 -82q0 -80 -48 -139.5t-125 -59.5h-696v175h667q20 0 24 20q1 4 1 7q0 15 -9 31l-208 380q-17 27 -34 27t-28 -27l-152 -401l-173 60l191 465q38 92 157 93q115 0 165 -93zM704 -162q-4 0 -15 -197q-75 16 -242 20q-44 2 -82 2q-109 0 -173 -13l-8 194
q82 16 261 16q201 0 259 -22zM523 -609q-58 8 -110 8q-54 0 -100 -8v186q18 10 100 12h16q55 0 94 -6v-192z" />
    <glyph glyph-name="uniFB7D" unicode="&#x686;" horiz-adv-x="962" arabic-form="medial" 
d="M990 0h-67q-24 0 -60 26t-46 50q-52 -76 -138 -76h-707v175h680q22 0 26 20q1 4 1 7q0 15 -9 31l-208 380q-17 27 -34 27q-18 0 -28 -27l-154 -401l-172 60l190 465q38 92 157 93q117 0 167 -93l263 -489q39 -73 93 -73h46v-175zM704 -162q-4 0 -15 -197q-75 16 -242 20
q-44 2 -82 2q-109 0 -173 -13l-8 194q82 16 261 16q201 0 259 -22zM523 -609q-58 8 -110 8q-54 0 -100 -8v186q18 10 100 12h16q55 0 94 -6v-192z" />
    <glyph glyph-name="uniFB7E" unicode="&#x687;" horiz-adv-x="1055" arabic-form="isolated" 
d="M914 281q18 -35 18 -82q0 -80 -48.5 -139.5t-126.5 -59.5h-331q-160 0 -160 -143q0 -45 30.5 -84t80.5 -47l529 -87l-28 -179l-573 91q-101 17 -165 106.5t-66 199.5v5q0 140 104 227q101 86 248 86h303q21 0 24 20q1 5 1 9q0 14 -8 29l-207 380q-16 27 -35 27t-28 -27
l-153 -401l-173 60l192 465q37 92 156 93q118 0 168 -93zM745 -67q-6 -12 -13 -75q-32 5 -153 8h-58q-68 0 -105 -5l-2 74q42 5 167 5q128 0 164 -7zM745 -171q-6 -12 -13 -75q-32 5 -153 8h-58q-68 0 -105 -5l-2 74q42 5 167 5q128 0 164 -7z" />
    <glyph glyph-name="uniFB7F" unicode="&#x687;" horiz-adv-x="1042" arabic-form="final" 
d="M1070 0h-69q-24 0 -59.5 26t-46.5 50q-52 -76 -138 -76h-331q-160 0 -160 -143q0 -45 30.5 -84t80.5 -47l529 -87l-28 -179l-573 91q-101 17 -165 106.5t-66 199.5v5q0 140 104 227q101 86 248 86h303q21 0 24 20q1 5 1 9q0 14 -8 29l-207 380q-16 27 -35 27t-28 -27
l-153 -401l-173 60l192 465q37 92 156 93q118 0 168 -93l261 -489q39 -73 95 -73h48v-175zM745 -67q-6 -12 -13 -75q-32 5 -153 8h-58q-68 0 -105 -5l-2 74q42 5 167 5q128 0 164 -7zM745 -171q-6 -12 -13 -75q-32 5 -153 8h-58q-68 0 -105 -5l-2 74q42 5 167 5
q128 0 164 -7z" />
    <glyph glyph-name="uniFB80" unicode="&#x687;" horiz-adv-x="964" arabic-form="initial" 
d="M821 281q20 -39 20 -82q0 -80 -48 -139.5t-125 -59.5h-696v175h667q20 0 24 20q1 4 1 7q0 15 -9 31l-208 380q-17 27 -34 27t-28 -27l-152 -401l-173 60l191 465q38 92 157 93q115 0 165 -93zM703 -159q-4 0 -15 -196q-82 13 -242 19q-34 1 -64 1q-116 0 -191 -12l-7 195
q89 13 260 13q198 0 259 -20zM703 -409q-4 0 -15 -196q-82 13 -242 19q-34 1 -64 1q-116 0 -191 -12l-7 195q89 13 260 13q198 0 259 -20z" />
    <glyph glyph-name="uniFB81" unicode="&#x687;" horiz-adv-x="962" arabic-form="medial" 
d="M990 0h-67q-24 0 -60 26t-46 50q-52 -76 -138 -76h-707v175h680q22 0 26 20q1 4 1 7q0 15 -9 31l-208 380q-17 27 -34 27q-18 0 -28 -27l-154 -401l-172 60l190 465q38 92 157 93q117 0 167 -93l263 -489q39 -73 93 -73h46v-175zM703 -159q-4 0 -15 -196q-82 13 -242 19
q-34 1 -64 1q-116 0 -191 -12l-7 195q89 13 260 13q198 0 259 -20zM703 -409q-4 0 -15 -196q-82 13 -242 19q-34 1 -64 1q-116 0 -191 -12l-7 195q89 13 260 13q198 0 259 -20z" />
    <glyph glyph-name="uniFB82" unicode="&#x68d;" horiz-adv-x="763" arabic-form="isolated" 
d="M637 397q52 -69 52 -164q0 -97 -56.5 -165t-153.5 -68h-356v175h309q65 0 65 74q0 28 -13 49l-303 430l130 110zM630 -162q-7 -33 -17 -197q-74 16 -244 20q-43 2 -81 2q-106 0 -170 -13l-9 194q82 16 259 16q204 0 262 -22z" />
    <glyph glyph-name="uniFB83" unicode="&#x68d;" horiz-adv-x="886" arabic-form="final" 
d="M914 0h-126q-28 0 -74.5 33.5t-59.5 63.5q-65 -97 -164 -97h-367v175h309q65 0 65 74q0 28 -13 49l-303 430l130 110l427 -575q65 -88 111 -88h65v-175zM598 -162q-7 -33 -17 -197q-74 16 -244 20q-43 2 -81 2q-106 0 -170 -13l-9 194q82 16 259 16q204 0 262 -22z" />
    <glyph glyph-name="uniFB84" unicode="&#x68c;" horiz-adv-x="763" arabic-form="isolated" 
d="M637 397q52 -69 52 -164q0 -97 -56.5 -165t-153.5 -68h-356v175h309q65 0 65 74q0 28 -13 49l-303 430l130 110zM593 1136q-4 0 -15 -196q-82 13 -242 19q-34 1 -64 1q-116 0 -191 -12l-7 195q89 13 260 13q198 0 259 -20z" />
    <glyph glyph-name="uniFB85" unicode="&#x68c;" horiz-adv-x="886" arabic-form="final" 
d="M914 0h-126q-28 0 -74.5 33.5t-59.5 63.5q-65 -97 -164 -97h-367v175h309q65 0 65 74q0 28 -13 49l-303 430l130 110l427 -575q65 -88 111 -88h65v-175zM593 1136q-4 0 -15 -196q-82 13 -242 19q-34 1 -64 1q-116 0 -191 -12l-7 195q89 13 260 13q198 0 259 -20z" />
    <glyph glyph-name="uniFB86" unicode="&#x68e;" horiz-adv-x="763" arabic-form="isolated" 
d="M637 397q52 -69 52 -164q0 -97 -56.5 -165t-153.5 -68h-356v175h309q65 0 65 74q0 28 -13 49l-303 430l130 110zM429 1210q-58 8 -110 8t-100 -8v186q24 10 102 10q86 0 108 -4v-192zM593 1136q-4 0 -15 -196q-82 13 -242 19q-34 1 -64 1q-116 0 -191 -12l-7 195
q89 13 260 13q198 0 259 -20z" />
    <glyph glyph-name="uniFB87" unicode="&#x68e;" horiz-adv-x="886" arabic-form="final" 
d="M914 0h-126q-28 0 -74.5 33.5t-59.5 63.5q-65 -97 -164 -97h-367v175h309q65 0 65 74q0 28 -13 49l-303 430l130 110l427 -575q65 -88 111 -88h65v-175zM429 1210q-58 8 -110 8t-100 -8v186q24 10 102 10q86 0 108 -4v-192zM593 1136q-4 0 -15 -196q-82 13 -242 19
q-34 1 -64 1q-116 0 -191 -12l-7 195q89 13 260 13q198 0 259 -20z" />
    <glyph glyph-name="uniFB88" unicode="&#x688;" horiz-adv-x="763" arabic-form="isolated" 
d="M637 397q52 -69 52 -164q0 -97 -56.5 -165t-153.5 -68h-356v175h309q65 0 65 74q0 28 -13 49l-303 430l130 110zM493 1099q0 -72 -53 -113q-49 -38 -124 -38h-175v74q0 77 -22 218q-22 137 -45 221l71 21q16 -47 35 -151q19 -99 23 -155q18 44 60 90.5t76 46.5
q57 0 105.5 -69t48.5 -145zM417 1095q0 35 -20 83q-24 55 -53 56h-1q-27 0 -64 -73q-38 -75 -46 -137h90q94 0 94 71z" />
    <glyph glyph-name="uniFB89" unicode="&#x688;" horiz-adv-x="882" arabic-form="final" 
d="M910 0h-126q-28 0 -74.5 33.5t-59.5 63.5q-65 -97 -164 -97h-367v175h309q65 0 65 74q0 28 -13 49l-303 430l130 110l427 -575q65 -88 111 -88h65v-175zM493 1099q0 -72 -53 -113q-49 -38 -124 -38h-175v74q0 77 -22 218q-22 137 -45 221l71 21q16 -47 35 -151
q19 -99 23 -155q18 44 60 90.5t76 46.5q57 0 105.5 -69t48.5 -145zM417 1095q0 35 -20 83q-24 55 -53 56h-1q-27 0 -64 -73q-38 -75 -46 -137h90q94 0 94 71z" />
    <glyph glyph-name="uniFB8A" unicode="&#x698;" horiz-adv-x="669" arabic-form="isolated" 
d="M428 1223q-55 6 -103 6q-56 0 -104 -8v188q19 8 101 10h26q50 0 80 -6v-190zM595 1147q-7 0 -16 -197q-69 16 -242 18q-37 1 -69 1q-123 0 -185 -12l-9 194q71 16 261 18h28q166 0 232 -22zM575 186q0 -311 -218 -547l-134 110q177 234 177 471q0 113 -69 303l-97 259
l153 78l110 -300q78 -214 78 -374z" />
    <glyph glyph-name="uniFB8B" unicode="&#x698;" horiz-adv-x="699" arabic-form="final" 
d="M428 1221q-56 6 -108 6t-99 -6v187q22 9 101 11h26q50 0 80 -6v-192zM595 1147q-7 0 -16 -197q-79 14 -242 18q-44 2 -82 2q-108 0 -172 -13l-9 194q82 16 261 16q199 0 260 -20zM727 0h-78q-48 0 -98 43q-39 -229 -205 -404l-132 110q177 231 177 471q0 113 -71 303
l-97 259l156 78l192 -549q49 -136 116 -136h40v-175z" />
    <glyph glyph-name="uniFB8C" unicode="&#x691;" horiz-adv-x="598" arabic-form="isolated" 
d="M524 186q0 -311 -218 -547l-134 110q177 234 177 471q0 113 -69 303l-97 259l153 78l110 -300q78 -214 78 -374zM522 1099q0 -72 -53 -113q-49 -38 -124 -38h-175v74q0 77 -22 218q-22 137 -45 221l71 21q16 -47 35 -151q19 -99 23 -155q18 44 60 90.5t76 46.5
q57 0 105.5 -69t48.5 -145zM446 1095q0 35 -20 83q-24 55 -53 56h-1q-27 0 -64 -73q-38 -75 -46 -137h90q94 0 94 71z" />
    <glyph glyph-name="uniFB8D" unicode="&#x691;" horiz-adv-x="657" arabic-form="final" 
d="M685 0h-78q-48 0 -98 43q-39 -229 -205 -404l-132 110q177 231 177 471q0 113 -71 303l-97 259l156 78l192 -549q49 -136 116 -136h40v-175zM522 1099q0 -72 -53 -113q-49 -38 -124 -38h-175v74q0 77 -22 218q-22 137 -45 221l71 21q16 -47 35 -151q19 -99 23 -155
q18 44 60 90.5t76 46.5q57 0 105.5 -69t48.5 -145zM446 1095q0 35 -20 83q-24 55 -53 56h-1q-27 0 -64 -73q-38 -75 -46 -137h90q94 0 94 71z" />
    <glyph glyph-name="uniFB8E" unicode="&#x6a9;" horiz-adv-x="1655" arabic-form="isolated" 
d="M1480 285q2 -19 2 -34q0 -98 -50 -169q-56 -82 -151 -82h-780q-181 0 -300 110q-125 113 -127 292v2q0 210 202 449l122 -119q-147 -170 -147 -304q0 -100 60 -175q67 -80 166 -80h743q96 0 96 102q0 13 -3 23l-30 247q-13 99 -157 144q-37 11 -128 13q-26 1 -47 1
q-48 0 -70 -5q-12 0 -34 -4q-93 0 -95 110q0 19 6 56l15 82q11 61 67 115q52 49 123 71q57 19 227 21h15q143 0 230 -19v-169q-132 27 -215 27h-17q-270 0 -270 -128q190 0 266 -19q222 -54 244 -242z" />
    <glyph glyph-name="uniFB8F" unicode="&#x6a9;" horiz-adv-x="1609" arabic-form="final" 
d="M1637 0h-95q-67 0 -120 67q-59 -67 -141 -67h-780q-181 0 -300 110q-125 113 -127 292v2q0 210 202 449l122 -119q-147 -170 -147 -304q0 -100 60 -175q67 -80 166 -80h743q96 0 96 102q0 13 -3 23l-30 247q-13 99 -157 144q-37 11 -128 13q-26 1 -47 1q-48 0 -70 -5
q-12 0 -34 -4q-93 0 -95 110q0 19 6 56l15 82q11 61 67 115q52 49 123 71q57 19 227 21h15q143 0 230 -19v-169q-132 27 -215 27h-17q-270 0 -270 -128q190 0 266 -19q222 -54 244 -242l32 -286q16 -140 100 -140h62v-175z" />
    <glyph glyph-name="uniFB90" unicode="&#x6a9;" horiz-adv-x="987" arabic-form="initial" 
d="M812 285q2 -19 2 -34q0 -100 -54 -171q-60 -80 -147 -80h-641v175h579q97 0 97 102v23l-34 247q-13 99 -156 144q-37 11 -128 13q-25 1 -46 1q-48 0 -72 -5q-11 0 -35 -4q-91 0 -93 110q0 19 5 56l15 82q11 61 67 115q69 64 166 82q50 8 188 10h14q141 0 230 -19v-169
q-134 27 -218 27h-17q-270 0 -270 -128q190 0 267 -19q221 -54 244 -242z" />
    <glyph glyph-name="uniFB91" unicode="&#x6a9;" horiz-adv-x="962" arabic-form="medial" 
d="M990 0h-117q-67 0 -119 67q-60 -67 -141 -67h-641v175h579q97 0 97 102v23l-34 247q-13 99 -156 144q-37 11 -128 13q-25 1 -46 1q-48 0 -72 -5q-11 0 -35 -4q-91 0 -93 110q0 19 5 56l15 82q11 61 67 115q69 64 166 82q50 8 188 10h14q141 0 230 -19v-169
q-134 27 -218 27h-17q-270 0 -270 -128q190 0 267 -19q221 -54 244 -242l35 -286q17 -140 97 -140h83v-175z" />
    <glyph glyph-name="uniFB92" unicode="&#x6af;" horiz-adv-x="1655" arabic-form="isolated" 
d="M1439 1251q-2 -8 -2 -23q0 -14 2 -35q-125 23 -281 23q-177 0 -285 -36l-15 54q123 32 335 32q136 0 246 -15zM1480 285q2 -19 2 -34q0 -98 -50 -169q-56 -82 -151 -82h-780q-181 0 -300 110q-125 113 -127 292v2q0 210 202 449l122 -119q-147 -170 -147 -304
q0 -100 60 -175q67 -80 166 -80h743q96 0 96 102q0 13 -3 23l-30 247q-13 99 -157 144q-37 11 -128 13q-26 1 -47 1q-48 0 -70 -5q-12 0 -34 -4q-93 0 -95 110q0 19 6 56l15 82q11 61 67 115q52 49 123 71q57 19 227 21h15q143 0 230 -19v-169q-132 27 -215 27h-17
q-270 0 -270 -128q190 0 266 -19q222 -54 244 -242z" />
    <glyph glyph-name="uniFB93" unicode="&#x6af;" horiz-adv-x="1609" arabic-form="final" 
d="M1439 1251q-2 -8 -2 -23q0 -14 2 -35q-125 23 -281 23q-177 0 -285 -36l-15 54q123 32 335 32q136 0 246 -15zM1637 0h-95q-67 0 -120 67q-59 -67 -141 -67h-780q-181 0 -300 110q-125 113 -127 292v2q0 210 202 449l122 -119q-147 -170 -147 -304q0 -100 60 -175
q67 -80 166 -80h743q96 0 96 102q0 13 -3 23l-30 247q-13 99 -157 144q-37 11 -128 13q-26 1 -47 1q-48 0 -70 -5q-12 0 -34 -4q-93 0 -95 110q0 19 6 56l15 82q11 61 67 115q52 49 123 71q57 19 227 21h15q143 0 230 -19v-169q-132 27 -215 27h-17q-270 0 -270 -128
q190 0 266 -19q222 -54 244 -242l32 -286q16 -140 100 -140h62v-175z" />
    <glyph glyph-name="uniFB94" unicode="&#x6af;" horiz-adv-x="987" arabic-form="initial" 
d="M771 1251v-58q-119 21 -246 21h-16q-181 0 -304 -43l-15 54q156 39 369 39q113 0 212 -13zM812 285q2 -19 2 -34q0 -100 -54 -171q-60 -80 -147 -80h-641v175h579q97 0 97 102v23l-34 247q-13 99 -156 144q-37 11 -128 13q-25 1 -46 1q-48 0 -72 -5q-11 0 -35 -4
q-91 0 -93 110q0 19 5 56l15 82q11 61 67 115q69 64 166 82q50 8 188 10h14q141 0 230 -19v-169q-134 27 -218 27h-17q-270 0 -270 -128q190 0 267 -19q221 -54 244 -242z" />
    <glyph glyph-name="uniFB95" unicode="&#x6af;" horiz-adv-x="962" arabic-form="medial" 
d="M771 1251v-58q-125 23 -283 23q-175 0 -283 -36l-15 54q123 32 335 32q136 0 246 -15zM990 0h-117q-67 0 -119 67q-60 -67 -141 -67h-641v175h579q97 0 97 102v23l-34 247q-13 99 -156 144q-37 11 -128 13q-25 1 -46 1q-48 0 -72 -5q-11 0 -35 -4q-91 0 -93 110
q0 19 5 56l15 82q11 61 67 115q69 64 166 82q50 8 188 10h14q141 0 230 -19v-169q-134 27 -218 27h-17q-270 0 -270 -128q190 0 267 -19q221 -54 244 -242l35 -286q17 -140 97 -140h83v-175z" />
    <glyph glyph-name="uniFB96" unicode="&#x6b3;" horiz-adv-x="1655" arabic-form="isolated" 
d="M1439 1251q-2 -8 -2 -23q0 -14 2 -35q-125 23 -281 23q-177 0 -285 -36l-15 54q123 32 335 32q136 0 246 -15zM1480 285q2 -19 2 -34q0 -98 -50 -169q-56 -82 -151 -82h-780q-181 0 -300 110q-125 113 -127 292v2q0 210 202 449l122 -119q-147 -170 -147 -304
q0 -100 60 -175q67 -80 166 -80h743q96 0 96 102q0 13 -3 23l-30 247q-13 99 -157 144q-37 11 -128 13q-26 1 -47 1q-48 0 -70 -5q-12 0 -34 -4q-93 0 -95 110q0 19 6 56l15 82q11 61 67 115q52 49 123 71q57 19 227 21h15q143 0 230 -19v-169q-132 27 -215 27h-17
q-270 0 -270 -128q190 0 266 -19q222 -54 244 -242zM889 -592q-58 8 -110 8t-101 -8v186q24 10 103 10q85 0 108 -4v-192zM889 -341q-58 8 -110 8t-101 -8v186q24 10 103 10q85 0 108 -4v-192z" />
    <glyph glyph-name="uniFB97" unicode="&#x6b3;" horiz-adv-x="1609" arabic-form="final" 
d="M1439 1251q-2 -8 -2 -23q0 -14 2 -35q-125 23 -281 23q-177 0 -285 -36l-15 54q123 32 335 32q136 0 246 -15zM1637 0h-95q-67 0 -120 67q-59 -67 -141 -67h-780q-181 0 -300 110q-125 113 -127 292v2q0 210 202 449l122 -119q-147 -170 -147 -304q0 -100 60 -175
q67 -80 166 -80h743q96 0 96 102q0 13 -3 23l-30 247q-13 99 -157 144q-37 11 -128 13q-26 1 -47 1q-48 0 -70 -5q-12 0 -34 -4q-93 0 -95 110q0 19 6 56l15 82q11 61 67 115q52 49 123 71q57 19 227 21h15q143 0 230 -19v-169q-132 27 -215 27h-17q-270 0 -270 -128
q190 0 266 -19q222 -54 244 -242l32 -286q16 -140 100 -140h62v-175zM889 -592q-58 8 -110 8t-101 -8v186q24 10 103 10q85 0 108 -4v-192zM889 -341q-58 8 -110 8t-101 -8v186q24 10 103 10q85 0 108 -4v-192z" />
    <glyph glyph-name="uniFB98" unicode="&#x6b3;" horiz-adv-x="987" arabic-form="initial" 
d="M771 1251v-58q-119 21 -246 21h-16q-181 0 -304 -43l-15 54q156 39 369 39q113 0 212 -13zM812 285q2 -19 2 -34q0 -100 -54 -171q-60 -80 -147 -80h-641v175h579q97 0 97 102v23l-34 247q-13 99 -156 144q-37 11 -128 13q-25 1 -46 1q-48 0 -72 -5q-11 0 -35 -4
q-91 0 -93 110q0 19 5 56l15 82q11 61 67 115q69 64 166 82q50 8 188 10h14q141 0 230 -19v-169q-134 27 -218 27h-17q-270 0 -270 -128q190 0 267 -19q221 -54 244 -242zM504 -592q-58 8 -110 8t-101 -8v186q24 10 103 10q85 0 108 -4v-192zM504 -341q-58 8 -110 8t-101 -8
v186q24 10 103 10q85 0 108 -4v-192z" />
    <glyph glyph-name="uniFB99" unicode="&#x6b3;" horiz-adv-x="962" arabic-form="medial" 
d="M771 1251v-58q-125 23 -283 23q-175 0 -283 -36l-15 54q123 32 335 32q136 0 246 -15zM990 0h-117q-67 0 -119 67q-60 -67 -141 -67h-641v175h579q97 0 97 102v23l-34 247q-13 99 -156 144q-37 11 -128 13q-25 1 -46 1q-48 0 -72 -5q-11 0 -35 -4q-91 0 -93 110
q0 19 5 56l15 82q11 61 67 115q69 64 166 82q50 8 188 10h14q141 0 230 -19v-169q-134 27 -218 27h-17q-270 0 -270 -128q190 0 267 -19q221 -54 244 -242l35 -286q17 -140 97 -140h83v-175zM504 -592q-58 8 -110 8t-101 -8v186q24 10 103 10q85 0 108 -4v-192zM504 -341
q-58 8 -110 8t-101 -8v186q24 10 103 10q85 0 108 -4v-192z" />
    <glyph glyph-name="uniFB9A" unicode="&#x6b1;" horiz-adv-x="1655" arabic-form="isolated" 
d="M1439 1251q-2 -8 -2 -23q0 -14 2 -35q-125 23 -281 23q-177 0 -285 -36l-15 54q123 32 335 32q136 0 246 -15zM1480 285q2 -19 2 -34q0 -98 -50 -169q-56 -82 -151 -82h-780q-181 0 -300 110q-125 113 -127 292v2q0 210 202 449l122 -119q-147 -170 -147 -304
q0 -100 60 -175q67 -80 166 -80h743q96 0 96 102q0 13 -3 23l-30 247q-13 99 -157 144q-37 11 -128 13q-26 1 -47 1q-48 0 -70 -5q-12 0 -34 -4q-93 0 -95 110q0 19 6 56l15 82q11 61 67 115q52 49 123 71q57 19 227 21h15q143 0 230 -19v-169q-132 27 -215 27h-17
q-270 0 -270 -128q190 0 266 -19q222 -54 244 -242zM1359 1566q-6 0 -17 -198q-82 15 -244 19q-38 1 -72 1q-111 0 -179 -10l-10 193q90 15 259 15q201 0 263 -20z" />
    <glyph glyph-name="uniFB9B" unicode="&#x6b1;" horiz-adv-x="1609" arabic-form="final" 
d="M1439 1251q-2 -8 -2 -23q0 -14 2 -35q-125 23 -281 23q-177 0 -285 -36l-15 54q123 32 335 32q136 0 246 -15zM1637 0h-95q-67 0 -120 67q-59 -67 -141 -67h-780q-181 0 -300 110q-125 113 -127 292v2q0 210 202 449l122 -119q-147 -170 -147 -304q0 -100 60 -175
q67 -80 166 -80h743q96 0 96 102q0 13 -3 23l-30 247q-13 99 -157 144q-37 11 -128 13q-26 1 -47 1q-48 0 -70 -5q-12 0 -34 -4q-93 0 -95 110q0 19 6 56l15 82q11 61 67 115q52 49 123 71q57 19 227 21h15q143 0 230 -19v-169q-132 27 -215 27h-17q-270 0 -270 -128
q190 0 266 -19q222 -54 244 -242l32 -286q16 -140 100 -140h62v-175zM1359 1566q-6 0 -17 -198q-82 15 -244 19q-38 1 -72 1q-111 0 -179 -10l-10 193q90 15 259 15q201 0 263 -20z" />
    <glyph glyph-name="uniFB9C" unicode="&#x6b1;" horiz-adv-x="987" arabic-form="initial" 
d="M771 1251v-58q-119 21 -246 21h-16q-181 0 -304 -43l-15 54q156 39 369 39q113 0 212 -13zM812 285q2 -19 2 -34q0 -100 -54 -171q-60 -80 -147 -80h-641v175h579q97 0 97 102v23l-34 247q-13 99 -156 144q-37 11 -128 13q-25 1 -46 1q-48 0 -72 -5q-11 0 -35 -4
q-91 0 -93 110q0 19 5 56l15 82q11 61 67 115q69 64 166 82q50 8 188 10h14q141 0 230 -19v-169q-134 27 -218 27h-17q-270 0 -270 -128q190 0 267 -19q221 -54 244 -242zM674 1566q-6 0 -17 -198q-82 15 -244 19q-38 1 -72 1q-111 0 -179 -10l-10 193q90 15 259 15
q201 0 263 -20z" />
    <glyph glyph-name="uniFB9D" unicode="&#x6b1;" horiz-adv-x="962" arabic-form="medial" 
d="M771 1251v-58q-125 23 -283 23q-175 0 -283 -36l-15 54q123 32 335 32q136 0 246 -15zM990 0h-117q-67 0 -119 67q-60 -67 -141 -67h-641v175h579q97 0 97 102v23l-34 247q-13 99 -156 144q-37 11 -128 13q-25 1 -46 1q-48 0 -72 -5q-11 0 -35 -4q-91 0 -93 110
q0 19 5 56l15 82q11 61 67 115q69 64 166 82q50 8 188 10h14q141 0 230 -19v-169q-134 27 -218 27h-17q-270 0 -270 -128q190 0 267 -19q221 -54 244 -242l35 -286q17 -140 97 -140h83v-175zM694 1566q-6 0 -17 -198q-82 15 -244 19q-38 1 -72 1q-111 0 -179 -10l-10 193
q90 15 259 15q201 0 263 -20z" />
    <glyph glyph-name="uniFB9E" unicode="&#x6ba;" horiz-adv-x="1202" arabic-form="isolated" 
d="M1074 61q-26 -188 -246 -275q-160 -65 -387 -65q-365 0 -367 296v6q0 109 68 283q70 178 157 286l130 -86q-61 -100 -113 -236q-60 -156 -60 -253q0 -131 201 -131q207 0 304 45q145 63 145 240q0 110 -50 304q-47 180 -90 283l149 67q67 -118 116 -311q48 -199 48 -358
q0 -50 -5 -95z" />
    <glyph glyph-name="uniFB9F" unicode="&#x6ba;" horiz-adv-x="1243" arabic-form="final" 
d="M1271 0h-91q-56 0 -110 43q-35 -179 -251 -261q-157 -61 -378 -61q-365 0 -367 296v6q0 109 68 283q70 178 157 286l130 -86q-61 -100 -113 -236q-60 -156 -60 -253q0 -131 201 -131q207 0 304 45q145 63 145 240q0 181 -147 587l153 65q111 -268 165 -518
q12 -50 45.5 -90t74.5 -40h74v-175z" />
    <glyph glyph-name="uniFBA0" unicode="&#x6bb;" horiz-adv-x="1202" arabic-form="isolated" 
d="M1074 61q-26 -188 -246 -275q-160 -65 -387 -65q-365 0 -367 296v6q0 109 68 283q70 178 157 286l130 -86q-61 -100 -113 -236q-60 -156 -60 -253q0 -131 201 -131q207 0 304 45q145 63 145 240q0 110 -50 304q-47 180 -90 283l149 67q67 -118 116 -311q48 -199 48 -358
q0 -50 -5 -95zM721 910q0 -72 -53 -113q-49 -38 -124 -38h-175v74q0 77 -22 218q-22 137 -45 221l71 21q16 -47 35 -151q19 -99 23 -155q18 44 60 90.5t76 46.5q57 0 105.5 -69t48.5 -145zM645 906q0 35 -20 83q-24 55 -53 56h-1q-27 0 -64 -73q-38 -75 -46 -137h90
q94 0 94 71z" />
    <glyph glyph-name="uniFBA1" unicode="&#x6bb;" horiz-adv-x="1243" arabic-form="final" 
d="M1271 0h-91q-56 0 -110 43q-35 -179 -251 -261q-157 -61 -378 -61q-365 0 -367 296v6q0 109 68 283q70 178 157 286l130 -86q-61 -100 -113 -236q-60 -156 -60 -253q0 -131 201 -131q207 0 304 45q145 63 145 240q0 181 -147 587l153 65q111 -268 165 -518
q12 -50 45.5 -90t74.5 -40h74v-175zM721 910q0 -72 -53 -113q-49 -38 -124 -38h-175v74q0 77 -22 218q-22 137 -45 221l71 21q16 -47 35 -151q19 -99 23 -155q18 44 60 90.5t76 46.5q57 0 105.5 -69t48.5 -145zM645 906q0 35 -20 83q-24 55 -53 56h-1q-27 0 -64 -73
q-38 -75 -46 -137h90q94 0 94 71z" />
    <glyph glyph-name="uniFBA2" unicode="&#x6bb;" horiz-adv-x="661" arabic-form="initial" 
d="M525 400q13 -46 13 -97q0 -115 -67 -204q-75 -99 -186 -99h-313v175h255q52 0 91 41q34 47 36 99v7q0 17 -8 39l-143 417l164 75q76 -196 158 -453zM494 1099q0 -72 -53 -113q-49 -38 -124 -38h-175v74q0 77 -22 218q-22 137 -45 221l71 21q16 -47 35 -151
q19 -99 23 -155q18 44 60 90.5t76 46.5q57 0 105.5 -69t48.5 -145zM418 1095q0 35 -20 83q-24 55 -53 56h-1q-27 0 -64 -73q-38 -75 -46 -137h90q94 0 94 71z" />
    <glyph glyph-name="uniFBA3" unicode="&#x6bb;" horiz-adv-x="635" arabic-form="medial" 
d="M663 0h-69q-116 0 -181 102q-80 -102 -182 -102h-259v175h203q56 0 90.5 41t34.5 99q0 28 -8 46l-143 417l162 75q54 -132 214 -613q20 -65 69 -65h69v-175zM484 1099q0 -72 -53 -113q-49 -38 -124 -38h-175v74q0 77 -22 218q-22 137 -45 221l71 21q16 -47 35 -151
q19 -99 23 -155q18 44 60 90.5t76 46.5q57 0 105.5 -69t48.5 -145zM408 1095q0 35 -20 83q-24 55 -53 56h-1q-27 0 -64 -73q-38 -75 -46 -137h90q94 0 94 71z" />
    <glyph glyph-name="uniFBA4" unicode="&#x6c0;" horiz-adv-x="847" arabic-form="isolated" 
d="M508 1091q-162 -47 -294 -121l-58 71l77 39q-88 56 -90 134v1q0 170 278 180l2 -84q-192 -15 -192 -92q0 -35 33.5 -60t76.5 -25q26 0 145 39zM724 268q0 -106 -59 -184q-65 -84 -160 -84h-216q-215 0 -215 229q0 186 110 389l153 -63q-82 -184 -82 -283q0 -97 62 -97
h147q39 0 65 32q20 33 20 72q0 67 -89 185q-117 149 -285 236l89 136q151 -54 302 -231q158 -186 158 -337z" />
    <glyph glyph-name="uniFBA5" unicode="&#x6c0;" horiz-adv-x="862" arabic-form="final" 
d="M544 1089q-177 -50 -298 -121l-54 71l74 39q-89 54 -89 136v2q0 169 275 175l6 -82q-194 -15 -194 -90q0 -40 33.5 -63.5t76.5 -23.5q23 0 145 41zM890 0h-155q-191 0 -193 335q0 45 18 168q13 91 13 117q0 60 -72 60q-95 0 -176 -81t-81 -154q0 -58 52 -175
q43 -99 88 -164l-120 -95q-72 82 -130 211q-60 135 -60 236q0 142 168 274q158 126 304 126q74 0 130 -35q67 -41 67 -112t-14 -210.5t-14 -210.5q0 -115 76 -115h99v-175z" />
    <glyph glyph-name="uniFBA6" unicode="&#x6c1;" horiz-adv-x="847" arabic-form="isolated" 
d="M724 268q0 -106 -59 -184q-65 -84 -160 -84h-216q-215 0 -215 229q0 186 110 389l153 -63q-82 -184 -82 -283q0 -97 62 -97h147q39 0 65 32q20 33 20 72q0 67 -89 185q-117 149 -285 236l89 136q151 -54 302 -231q158 -186 158 -337z" />
    <glyph glyph-name="uniFBA7" unicode="&#x6c1;" horiz-adv-x="862" arabic-form="final" 
d="M890 0h-155q-191 0 -193 335q0 45 18 168q13 91 13 117q0 60 -72 60q-95 0 -176 -81t-81 -154q0 -58 52 -175q43 -99 88 -164l-120 -95q-72 82 -130 211q-60 135 -60 236q0 142 168 274q158 126 304 126q74 0 130 -35q67 -41 67 -112t-14 -210.5t-14 -210.5
q0 -115 76 -115h99v-175z" />
    <glyph glyph-name="uniFBA8" unicode="&#x6c1;" horiz-adv-x="661" arabic-form="initial" 
d="M525 400q13 -46 13 -97q0 -115 -67 -204q-75 -99 -186 -99h-313v175h255q52 0 91 41q34 47 36 99v7q0 17 -8 39l-143 417l164 75q76 -196 158 -453zM370 -434q0 -72 -44 -114t-115 -42t-110 63q-29 52 -31 127v8q0 182 186 288q0 -2 52 -86q-65 -41 -93 -100
q71 0 117 -49q38 -37 38 -95z" />
    <glyph glyph-name="uniFBA9" unicode="&#x6c1;" horiz-adv-x="806" arabic-form="medial" 
d="M277 0l4 -9q3 -52 43 -84q43 -35 102 -37q30 136 108 214q91 91 211 91h89v-175h-69q-86 0 -138 -108q-41 -86 -41 -181q-46 -37 -130 -37q-125 0 -242 100.5t-117 225.5h-125v175h255q52 0 91 41q34 47 36 99v7q0 17 -8 39l-143 417l164 75q76 -196 158 -453
q13 -46 13 -97q0 -115 -67 -204q-75 -99 -186 -99h-8zM253 -485q0 -49 -30 -77t-77 -28q-48 0 -75 42q-20 35 -21 86v6q0 123 125 194q0 -1 35 -58q-60 -28 -81 -103q35 19 60 19q23 0 38 -16q26 -26 26 -65z" />
    <glyph glyph-name="uniFBAA" unicode="&#x6be;" horiz-adv-x="1082" arabic-form="isolated" 
d="M769 242q0 95 -164 268v-22q2 -17 2 -30q-9 -209 -73 -284l121 1q48 0 75 13q39 22 39 54zM429 352q19 52 19 153q0 74 -19 74q-38 0 -87 -75.5t-57 -134.5q-5 -24 -5 -52t5 -60q8 -71 31 -75q39 0 113 170zM415 0q-107 -112 -243 -184l-98 143q26 20 141 108
q-113 96 -113 249q0 152 72.5 257t184.5 136l-11 12l97 119q182 -92 348 -297.5t166 -343.5q0 -82 -85 -140.5t-189 -58.5h-270z" />
    <glyph glyph-name="uniFBAB" unicode="&#x6be;" horiz-adv-x="909" arabic-form="final" 
d="M494 570q-63 -14 -122 -173q-35 -95 -35 -191q0 -66 17 -134q80 75 121.5 192t41.5 231q-8 71 -23 75zM290 -182q-71 -46 -154 -77l-62 155q75 33 138 73q-21 70 -29 160q-3 33 -3 66q0 215 128 431q121 201 221 201q142 0 142 -365q0 -319 -253 -544q50 -48 101 -48h10
q30 136 108 214q91 91 211 91h89v-175h-69q-86 0 -138 -108q-41 -86 -41 -181q-46 -37 -130 -37q-118 3 -235 105q-14 12 -34 39z" />
    <glyph glyph-name="uniFBAC" unicode="&#x6be;" horiz-adv-x="1045" arabic-form="initial" 
d="M922 199q0 -82 -85 -140.5t-189 -58.5h-676v175h130q-24 63 -24 177q0 112 62 212q70 114 182 145l-11 12l97 119q182 -92 348 -297.5t166 -343.5zM732 242q0 95 -164 268v-22q2 -17 2 -30q0 -209 -82 -283h130q48 0 75 13q39 22 39 54zM380 352q16 52 16 153
q0 74 -16 74q-32 0 -73 -75.5t-48 -134.5q-4 -24 -4 -52t4 -60q7 -71 26 -75q33 0 95 170z" />
    <glyph glyph-name="uniFBAD" unicode="&#x6be;" horiz-adv-x="806" arabic-form="medial" 
d="M834 0h-69q-86 0 -138 -108q-41 -86 -41 -181q-46 -37 -130 -37q-125 0 -242 100.5t-117 225.5h-125v175h104q0 233 129 451q121 201 221 201q142 0 142 -365q0 -462 -242 -462h-45q0 -58 43 -93t102 -37q30 136 108 214q91 91 211 91h89v-175zM391 570q-32 0 -78 -136
q-49 -142 -51 -259h23q28 0 56 37t41 88q22 87 24 203q0 63 -15 67z" />
    <glyph glyph-name="uniFBAE" unicode="&#x6d2;" horiz-adv-x="1736" arabic-form="isolated" 
d="M530 613q-11 27 -28 27t-34 -27l-208 -380q-9 -16 -9 -31q0 -3 1 -7q4 -20 24 -20h1337v-175h-1366q-77 0 -125 59.5t-48 139.5q0 43 20 82l248 456q50 93 165 93q119 -1 157 -93l137 -334l-164 -71z" />
    <glyph glyph-name="uniFBAF" unicode="&#x6d2;" horiz-adv-x="1237" arabic-form="final" 
d="M1265 0h-768q-13 1 -26 1q-39 0 -68 -11q-39 -16 -63 -60l-80 -147q-9 -16 -9 -31q0 -3 1 -7q4 -20 24 -20h837v-175h-866q-77 0 -125 59.5t-48 139.5q0 43 20 82l136 250q55 89 176 94h859v-175z" />
    <glyph glyph-name="uniFBB0" unicode="&#x6d3;" horiz-adv-x="1736" arabic-form="isolated" 
d="M530 613q-11 27 -28 27t-34 -27l-208 -380q-9 -16 -9 -31q0 -3 1 -7q4 -20 24 -20h1337v-175h-1366q-77 0 -125 59.5t-48 139.5q0 43 20 82l248 456q50 93 165 93q119 -1 157 -93l137 -334l-164 -71zM542 1019q-177 -50 -298 -121l-54 71l74 39q-89 54 -89 136v2
q0 169 275 175l6 -82q-194 -15 -194 -90q0 -40 33.5 -63.5t76.5 -23.5q23 0 145 41z" />
    <glyph glyph-name="uniFBB1" unicode="&#x6d3;" horiz-adv-x="1237" arabic-form="final" 
d="M1265 0h-768q-13 1 -26 1q-39 0 -68 -11q-39 -16 -63 -60l-80 -147q-9 -16 -9 -31q0 -3 1 -7q4 -20 24 -20h837v-175h-866q-77 0 -125 59.5t-48 139.5q0 43 20 82l136 250q55 89 176 94h859v-175zM544 419q-177 -50 -298 -121l-54 71l74 39q-89 54 -89 136v2
q0 169 275 175l6 -82q-194 -15 -194 -90q0 -40 33.5 -63.5t76.5 -23.5q23 0 145 41z" />
    <glyph glyph-name="uniFBD3" unicode="&#x6ad;" horiz-adv-x="1604" arabic-form="isolated" 
d="M1480 285q1 -19 1 -34q0 -98 -50 -169q-56 -82 -151 -82h-780q-180 0 -300 110q-124 113 -126 292v4q0 209 201 447l123 -119q-147 -170 -147 -304q0 -100 59 -175q67 -80 166 -80h743q97 0 97 102q0 13 -4 23l-30 247q-24 177 -72 429q-49 260 -77 346l181 35
q56 -227 128 -756zM1007 594q-166 -45 -296 -121l-56 71l76 39q-89 59 -91 136v2q0 169 277 176l4 -82q-192 -16 -192 -93q0 -41 34 -61q28 -24 74 -24q17 0 145 41zM1306 1736q-56 6 -106 6q-57 0 -106 -8v187q26 11 104 13h15q54 0 93 -6v-192zM1470 1662q-6 0 -17 -198
q-82 15 -244 19q-38 1 -72 1q-111 0 -179 -10l-10 193q90 15 259 15q201 0 263 -20z" />
    <glyph glyph-name="uniFBD4" unicode="&#x6ad;" horiz-adv-x="1608" arabic-form="final" 
d="M1474 315q19 -140 100 -140h62v-175h-95q-67 0 -119 67q-60 -67 -142 -67h-780q-180 0 -300 110q-124 113 -126 292v4q0 209 201 447l123 -119q-147 -170 -147 -304q0 -100 59 -175q67 -80 166 -80h743q97 0 97 102q0 13 -4 23l-58 367q-48 350 -100 517l180 35
q45 -189 86 -482zM1012 570q-165 -45 -296 -121l-56 72l77 38q-90 59 -92 135v1q0 171 278 178l4 -82q-192 -16 -192 -93q0 -41 33 -61q28 -24 75 -24q17 0 145 40zM1336 1606q-56 6 -106 6q-57 0 -106 -8v187q26 11 104 13h15q54 0 93 -6v-192zM1500 1532q-6 0 -17 -198
q-82 15 -244 19q-38 1 -72 1q-111 0 -179 -10l-10 193q90 15 259 15q201 0 263 -20z" />
    <glyph glyph-name="uniFBD5" unicode="&#x6ad;" horiz-adv-x="987" arabic-form="initial" 
d="M812 285q2 -19 2 -34q0 -100 -54 -171q-60 -80 -148 -80h-640v175h579q97 0 97 102v23l-34 247q-13 99 -156 144q-37 11 -129 13q-25 1 -45 1q-48 0 -72 -5q-11 0 -35 -4q-91 0 -93 110q0 19 5 56l15 82q11 61 67 115q69 64 166 82q50 8 188 10h14q141 0 230 -19v-169
q-134 27 -218 27h-17q-270 0 -270 -128q190 0 267 -19q221 -54 243 -242zM510 1540q-56 6 -106 6q-57 0 -106 -8v187q26 11 104 13h15q54 0 93 -6v-192zM674 1466q-6 0 -17 -198q-82 15 -244 19q-38 1 -72 1q-111 0 -179 -10l-10 193q90 15 259 15q201 0 263 -20z" />
    <glyph glyph-name="uniFBD6" unicode="&#x6ad;" horiz-adv-x="962" arabic-form="medial" 
d="M990 0h-117q-67 0 -119 67q-60 -67 -142 -67h-640v175h579q97 0 97 102v23l-34 247q-13 99 -156 144q-37 11 -129 13q-25 1 -45 1q-48 0 -72 -5q-11 0 -35 -4q-91 0 -93 110q0 19 5 56l15 82q11 61 67 115q69 64 166 82q50 8 188 10h14q141 0 230 -19v-169
q-134 27 -218 27h-17q-270 0 -270 -128q190 0 267 -19q221 -54 243 -242l36 -286q17 -140 97 -140h83v-175zM510 1540q-56 6 -106 6q-57 0 -106 -8v187q26 11 104 13h15q54 0 93 -6v-192zM674 1466q-6 0 -17 -198q-82 15 -244 19q-38 1 -72 1q-111 0 -179 -10l-10 193
q90 15 259 15q201 0 263 -20z" />
    <glyph glyph-name="uniFBD7" unicode="&#x6c7;" horiz-adv-x="815" arabic-form="isolated" 
d="M741 182q0 -307 -229 -538l-128 120q111 96 145 236h-179q-123 0 -182 168q-45 119 -45 264q0 136 45 255q61 156 177 158h2q155 0 282 -260q112 -226 112 -403zM562 175q6 28 6 45q0 141 -84 294q-76 138 -117 138q-67 0 -71 -237q0 -74 28 -156q37 -84 89 -84h149z
M503 1223q0 -132 -99.5 -230.5t-233.5 -102.5q0 4 -6 78q127 6 195 80q-109 34 -111 103v5q0 85 65 177q58 80 95 80q95 0 95 -190zM440 1235q0 100 -36 100q-22 0 -52 -66t-30 -94q0 -47 86 -62q32 43 32 122z" />
    <glyph glyph-name="uniFBD8" unicode="&#x6c7;" horiz-adv-x="838" arabic-form="final" 
d="M866 0h-145q-47 -194 -209 -356l-128 120q111 96 145 236h-179q-123 0 -182 168q-45 119 -45 264q0 136 45 255q61 156 177 158h2q129 0 266 -234q128 -222 128 -436h125v-175zM562 175q6 28 6 45q0 141 -84 294q-76 138 -117 138q-67 0 -71 -237q0 -74 28 -156
q37 -84 89 -84h149zM503 1223q0 -132 -99.5 -230.5t-233.5 -102.5q0 4 -6 78q127 6 195 80q-109 34 -111 103v5q0 85 65 177q58 80 95 80q95 0 95 -190zM440 1235q0 100 -36 100q-22 0 -52 -66t-30 -94q0 -47 86 -62q32 43 32 122z" />
    <glyph glyph-name="uniFBD9" unicode="&#x6c6;" horiz-adv-x="872" arabic-form="isolated" 
d="M798 182q0 -307 -229 -538l-128 120q111 96 145 236h-179q-123 0 -182 168q-45 119 -45 264q0 136 45 255q61 156 177 158h2q155 0 282 -260q112 -226 112 -403zM619 175q6 28 6 45q0 141 -84 294q-76 138 -117 138q-67 0 -71 -237q0 -74 28 -156q37 -84 89 -84h149z
M365 1145q13 -25 27 -25h1q13 0 22 24l90 262l134 -59l-119 -320q-30 -83 -122 -83h-4q-92 2 -131 89l-140 310l123 65z" />
    <glyph glyph-name="uniFBDA" unicode="&#x6c6;" horiz-adv-x="895" arabic-form="final" 
d="M923 0h-145q-47 -194 -209 -356l-128 120q111 96 145 236h-179q-123 0 -182 168q-45 119 -45 264q0 136 45 255q61 156 177 158h2q129 0 266 -234q128 -222 128 -436h125v-175zM619 175q6 28 6 45q0 141 -84 294q-76 138 -117 138q-67 0 -71 -237q0 -74 28 -156
q37 -84 89 -84h149zM365 1145q13 -25 27 -25h1q13 0 22 24l90 262l134 -59l-119 -320q-30 -83 -122 -83h-4q-92 2 -131 89l-140 310l123 65z" />
    <glyph glyph-name="uniFBDB" unicode="&#x6c8;" horiz-adv-x="815" arabic-form="isolated" 
d="M741 182q0 -307 -229 -538l-128 120q111 96 145 236h-179q-123 0 -182 168q-45 119 -45 264q0 136 45 255q61 156 177 158h2q155 0 282 -260q112 -226 112 -403zM562 175q6 28 6 45q0 141 -84 294q-76 138 -117 138q-67 0 -71 -237q0 -74 28 -156q37 -84 89 -84h149z
M392 949h-89q0 27 2 40q0 165 -62 374l93 18q58 -232 58 -376q0 -35 -2 -56z" />
    <glyph glyph-name="uniFBDC" unicode="&#x6c8;" horiz-adv-x="838" arabic-form="final" 
d="M866 0h-145q-47 -194 -209 -356l-128 120q111 96 145 236h-179q-123 0 -182 168q-45 119 -45 264q0 136 45 255q61 156 177 158h2q129 0 266 -234q128 -222 128 -436h125v-175zM562 175q6 28 6 45q0 141 -84 294q-76 138 -117 138q-67 0 -71 -237q0 -74 28 -156
q37 -84 89 -84h149zM392 949h-89q0 27 2 40q0 165 -62 374l93 18q58 -232 58 -376q0 -35 -2 -56z" />
    <glyph glyph-name="uniFBDD" unicode="&#x677;" horiz-adv-x="963" arabic-form="isolated" 
d="M889 1028q-177 -51 -296 -121l-56 72l76 39q-89 54 -91 133v3q0 172 277 177l4 -84q-194 -14 -194 -89q0 -43 36 -61q31 -26 74 -26q19 0 145 39zM777 182q0 -307 -229 -538l-128 120q111 96 145 236h-179q-123 0 -182 168q-45 119 -45 264q0 136 45 255q61 156 177 158
h2q155 0 283 -260q111 -226 111 -403zM598 175q6 28 6 45q0 141 -84 294q-76 138 -117 138q-67 0 -71 -237q0 -74 28 -156q37 -84 90 -84h148zM462 1201q0 -132 -99.5 -230.5t-233.5 -102.5q0 4 -6 78q127 6 195 80q-109 34 -111 103v5q0 85 65 177q58 80 95 80
q95 0 95 -190zM399 1213q0 100 -36 100q-22 0 -52 -66t-30 -94q0 -47 86 -62q32 43 32 122z" />
    <glyph glyph-name="uniFBDE" unicode="&#x6cb;" horiz-adv-x="841" arabic-form="isolated" 
d="M767 182q0 -307 -229 -538l-128 120q111 96 145 236h-179q-123 0 -182 168q-45 119 -45 264q0 136 45 255q61 156 177 158h2q155 0 282 -260q112 -226 112 -403zM588 175q6 28 6 45q0 141 -84 294q-76 138 -117 138q-67 0 -71 -237q0 -74 28 -156q37 -84 89 -84h149z
M481 1193q-56 6 -106 6q-57 0 -106 -8v187q26 11 104 13h15q54 0 93 -6v-192zM645 1119q-6 0 -17 -198q-82 15 -244 19q-38 1 -72 1q-111 0 -179 -10l-10 193q90 15 259 15q201 0 263 -20z" />
    <glyph glyph-name="uniFBDF" unicode="&#x6cb;" horiz-adv-x="864" arabic-form="final" 
d="M892 0h-145q-47 -194 -209 -356l-128 120q111 96 145 236h-179q-123 0 -182 168q-45 119 -45 264q0 136 45 255q61 156 177 158h2q129 0 266 -234q128 -222 128 -436h125v-175zM588 175q6 28 6 45q0 141 -84 294q-76 138 -117 138q-67 0 -71 -237q0 -74 28 -156
q37 -84 89 -84h149zM481 1193q-56 6 -106 6q-57 0 -106 -8v187q26 11 104 13h15q54 0 93 -6v-192zM645 1119q-6 0 -17 -198q-82 15 -244 19q-38 1 -72 1q-111 0 -179 -10l-10 193q90 15 259 15q201 0 263 -20z" />
    <glyph glyph-name="uniFBE0" unicode="&#x6c5;" horiz-adv-x="815" arabic-form="isolated" 
d="M562 175q6 28 6 45q0 141 -84 294q-76 138 -117 138q-67 0 -71 -237q0 -74 28 -156q37 -84 89 -84h149zM530 -25l30 71h-321q-43 42 -71 122q-45 119 -45 264q0 136 45 255q61 156 177 158h2q155 0 282 -260q112 -226 112 -403q0 -307 -229 -538l-128 120q67 58 106 132
h-243v79h283z" />
    <glyph glyph-name="uniFBE1" unicode="&#x6c5;" horiz-adv-x="838" arabic-form="final" 
d="M562 175q6 28 6 45q0 141 -84 294q-76 138 -117 138q-67 0 -71 -237q0 -74 28 -156q37 -84 89 -84h149zM530 -25l30 71h-321q-43 42 -71 122q-45 119 -45 264q0 136 45 255q61 156 177 158h2q129 0 266 -234q128 -222 128 -436h125v-175h-145q-47 -194 -209 -356
l-128 120q67 58 106 132h-243v79h283z" />
    <glyph glyph-name="uniFBE2" unicode="&#x6c9;" horiz-adv-x="872" arabic-form="isolated" 
d="M798 182q0 -307 -229 -538l-128 120q111 96 145 236h-179q-123 0 -182 168q-45 119 -45 264q0 136 45 255q61 156 177 158h2q155 0 282 -260q112 -226 112 -403zM619 175q6 28 6 45q0 141 -84 294q-76 138 -117 138q-67 0 -71 -237q0 -74 28 -156q37 -84 89 -84h149z
M397 1207q-13 25 -27 25h-1q-13 0 -22 -24l-90 -262l-134 59l119 320q30 83 122 83h4q92 -2 131 -89l140 -310l-123 -65z" />
    <glyph glyph-name="uniFBE3" unicode="&#x6c9;" horiz-adv-x="895" arabic-form="final" 
d="M923 0h-145q-47 -194 -209 -356l-128 120q111 96 145 236h-179q-123 0 -182 168q-45 119 -45 264q0 136 45 255q61 156 177 158h2q129 0 266 -234q128 -222 128 -436h125v-175zM619 175q6 28 6 45q0 141 -84 294q-76 138 -117 138q-67 0 -71 -237q0 -74 28 -156
q37 -84 89 -84h149zM397 1207q-13 25 -27 25h-1q-13 0 -22 -24l-90 -262l-134 59l119 320q30 83 122 83h4q92 -2 131 -89l140 -310l-123 -65z" />
    <glyph glyph-name="uniFBE4" unicode="&#x6d0;" horiz-adv-x="1236" arabic-form="isolated" 
d="M1113 681h-201q-45 0 -74.5 -29.5t-29.5 -74.5q0 -59 72 -130l140 -140q74 -93 76 -201v-4q0 -198 -216 -303q-169 -82 -395 -82q-411 0 -411 318q0 129 84 326q61 145 141 257l149 -89q-193 -296 -193 -468q0 -111 78 -149q54 -27 169 -27q404 0 408 225q0 65 -75 139
q-46 45 -134 138q-72 82 -74 188v5q0 111 91 198q90 84 205 84h190v-181zM631 -603q-59 8 -112 8q-52 0 -96 -8v186q16 10 102 12h16q54 0 90 -6v-192zM631 -871q-59 8 -112 8q-52 0 -96 -8v186q16 10 102 12h16q54 0 90 -6v-192z" />
    <glyph glyph-name="uniFBE5" unicode="&#x6d0;" horiz-adv-x="1131" arabic-form="final" 
d="M1159 0h-176q33 -67 35 -93q0 -142 -188 -216q-140 -54 -307 -56h-5q-444 0 -444 341q0 119 140 396q119 241 212 371l145 -93q-91 -131 -190 -320q-117 -224 -117 -315q0 -127 89 -177q64 -37 207 -37q84 0 162 24q102 34 104 93q0 37 -38 59.5t-77 22.5v171h448v-171z
M641 -643q-59 8 -112 8q-52 0 -96 -8v186q16 10 102 12h16q54 0 90 -6v-192zM641 -911q-59 8 -112 8q-52 0 -96 -8v186q16 10 102 12h16q54 0 90 -6v-192z" />
    <glyph glyph-name="uniFBE6" unicode="&#x6d0;" horiz-adv-x="661" arabic-form="initial" 
d="M525 400q13 -46 13 -97q0 -115 -67 -204q-75 -99 -186 -99h-313v175h255q52 0 91 41q34 47 36 99v7q0 17 -8 39l-143 417l164 75q76 -196 158 -453zM377 -341q-59 8 -112 8q-52 0 -96 -8v186q16 10 102 12h16q54 0 90 -6v-192zM377 -609q-59 8 -112 8q-52 0 -96 -8v186
q16 10 102 12h16q54 0 90 -6v-192z" />
    <glyph glyph-name="uniFBE7" unicode="&#x6d0;" horiz-adv-x="635" arabic-form="medial" 
d="M663 0h-69q-116 0 -181 102q-80 -102 -182 -102h-259v175h203q56 0 90.5 41t34.5 99q0 28 -8 46l-143 417l162 75q54 -132 214 -613q20 -65 69 -65h69v-175zM397 -341q-59 8 -112 8q-52 0 -96 -8v186q16 10 102 12h16q54 0 90 -6v-192zM397 -609q-59 8 -112 8
q-52 0 -96 -8v186q16 10 102 12h16q54 0 90 -6v-192z" />
    <glyph glyph-name="uniFBE8" unicode="&#x649;" horiz-adv-x="661" arabic-form="initial" 
d="M525 400q13 -46 13 -97q0 -115 -67 -204q-75 -99 -186 -99h-313v175h255q52 0 91 41q34 47 36 99v7q0 17 -8 39l-143 417l164 75q76 -196 158 -453z" />
    <glyph glyph-name="uniFBE9" unicode="&#x649;" horiz-adv-x="635" arabic-form="medial" 
d="M663 0h-69q-116 0 -181 102q-80 -102 -182 -102h-259v175h203q56 0 90.5 41t34.5 99q0 28 -8 46l-143 417l162 75q54 -132 214 -613q20 -65 69 -65h69v-175z" />
    <glyph glyph-name="uniFBFC" unicode="&#x6cc;" horiz-adv-x="1236" arabic-form="isolated" 
d="M1113 681h-201q-45 0 -74.5 -29.5t-29.5 -74.5q0 -59 72 -130l140 -140q74 -93 76 -201v-4q0 -198 -216 -303q-169 -82 -395 -82q-411 0 -411 318q0 129 84 326q61 145 141 257l149 -89q-193 -296 -193 -468q0 -111 78 -149q54 -27 169 -27q404 0 408 225q0 65 -75 139
q-46 45 -134 138q-72 82 -74 188v5q0 111 91 198q90 84 205 84h190v-181z" />
    <glyph glyph-name="uniFBFD" unicode="&#x6cc;" horiz-adv-x="1131" arabic-form="final" 
d="M1159 0h-176q33 -67 35 -93q0 -142 -188 -216q-140 -54 -307 -56h-5q-444 0 -444 341q0 119 140 396q119 241 212 371l145 -93q-91 -131 -190 -320q-117 -224 -117 -315q0 -127 89 -177q64 -37 207 -37q84 0 162 24q102 34 104 93q0 37 -38 59.5t-77 22.5v171h448v-171z
" />
    <glyph glyph-name="uniFBFE" unicode="&#x6cc;" horiz-adv-x="661" arabic-form="initial" 
d="M525 400q13 -46 13 -97q0 -115 -67 -204q-75 -99 -186 -99h-313v175h255q52 0 91 41q34 47 36 99v7q0 17 -8 39l-143 417l164 75q76 -196 158 -453zM566 -155q-4 -20 -15 -197q-67 17 -244 21h-23q-157 0 -228 -13l-10 195q60 15 259 15h31q172 0 230 -21z" />
    <glyph glyph-name="uniFBFF" unicode="&#x6cc;" horiz-adv-x="635" arabic-form="medial" 
d="M663 0h-69q-116 0 -181 102q-80 -102 -182 -102h-259v175h203q56 0 90.5 41t34.5 99q0 28 -8 46l-143 417l162 75q54 -132 214 -613q20 -65 69 -65h69v-175zM586 -155q-7 0 -18 -197q-62 17 -242 21h-23q-155 0 -229 -13l-9 195q62 15 261 15h30q168 0 230 -21z" />
    <glyph glyph-name="uniFC5E" unicode="&#xfc5e;" arabic-form="isolated" 
d="M393 2031q0 -136 -106 -238q-99 -97 -227 -97q0 4 -6 78l28 4q4 33 6 56q0 31 -23 35q-16 0 -67 -31l-22 59q47 43 101 45h5q31 0 48 -21q17 -24 17 -70q0 -28 -7 -64q69 19 108 67q-108 34 -108 101q0 95 63 184q58 80 95 80q95 0 95 -188zM473 1550v-5
q0 -166 -119 -168h-5q-61 0 -92 49q-37 -99 -115 -101h-5q-55 0 -96 45q-37 41 -37 111q0 71 13 120l78 -17q-9 -47 -11 -82v-5q0 -81 58 -81q59 0 59 82q0 49 -20 138q22 6 82 19q15 -101 18 -114q21 -73 73 -73q41 0 41 53q0 70 -48 171l70 39q56 -115 56 -181zM328 2039
q0 102 -35 102q-23 0 -52.5 -66t-29.5 -96q0 -45 87 -60q30 41 30 120z" />
    <glyph glyph-name="uniFC5F" unicode="&#xfc5f;" arabic-form="isolated" 
d="M462 2031v-6q0 -171 -119 -171q-64 0 -97 50q-37 -100 -116 -100h-5q-60 0 -95 44q-37 38 -37 110q0 73 13 119l78 -18q-9 -43 -11 -80v-6q0 -80 57 -80q60 0 60 82q0 48 -21 140q23 5 82 18q15 -113 28 -141q21 -45 64 -45q41 0 41 50q0 69 -49 174l71 37
q56 -114 56 -177zM497 1737q-212 -75 -462 -283l-48 71q246 201 473 292zM534 1565q-206 -70 -461 -283l-47 71q225 194 473 294z" />
    <glyph glyph-name="uniFC60" unicode="&#xfc60;" arabic-form="isolated" 
d="M446 1946q-212 -79 -458 -283l-48 70q225 190 473 294zM467 1530q0 -171 -116 -173h-5q-63 0 -97 49q-33 -99 -115 -101h-5q-57 0 -94 43q-39 45 -39 113q0 64 15 120l76 -17q-7 -58 -9 -82v-6q0 -80 56 -80q61 0 61 82q0 50 -22 138q24 6 82 19q15 -99 28 -142
q22 -45 65 -45t44 53v4q0 57 -54 167l73 39q56 -121 56 -181z" />
    <glyph glyph-name="uniFC61" unicode="&#xfc61;" arabic-form="isolated" 
d="M400 2025q0 -134 -99.5 -233.5t-233.5 -99.5q0 7 -5 74q128 10 195 82q-110 32 -112 101v5q0 85 66 177q57 82 94 82h2q93 0 93 -188zM471 1555v-5q0 -166 -119 -168h-5q-61 0 -92 49q-37 -99 -115 -101h-5q-55 0 -96 45q-37 41 -37 111q0 71 13 120l78 -17
q-9 -47 -11 -82v-5q0 -81 58 -81q59 0 59 82q0 49 -20 138q22 6 82 19q15 -101 18 -114q21 -73 73 -73q41 0 41 53q0 70 -48 171l70 39q56 -115 56 -181zM337 2036q0 97 -35 97q-24 0 -53 -64t-29 -94q0 -49 85 -60q32 39 32 121z" />
    <glyph glyph-name="uniFC62" unicode="&#xfc62;" arabic-form="isolated" 
d="M446 1807q0 -175 -119 -175q-63 0 -101 47q-33 -95 -115 -95q-136 0 -136 153q0 63 11 119l78 -19q-1 -18 -7 -80q0 -86 54 -87h3q58 0 58 83q0 39 -22 140q24 4 82 17q15 -103 30 -140q22 -46 63 -48q43 0 43 56q0 61 -52 169l72 37q58 -121 58 -177zM500 1528
q-218 -80 -458 -285l-48 69q230 199 473 298z" />
    <glyph glyph-name="uniFC63" unicode="&#xfc63;" arabic-form="isolated" 
d="M479 1534q0 -65 -33 -113q-37 -56 -99 -56q-46 0 -98 50q-40 -54 -116 -54q-58 0 -102.5 59.5t-44.5 124.5q0 62 11 138l80 -18q-11 -38 -11 -84q0 -129 67 -129q56 0 56 64q0 13 -22 145q24 2 85 9l24 -153q10 -59 69 -59q41 0 41 48v4q0 49 -50 160l73 39
q70 -119 70 -175zM249 1746h-89q0 23 1 34q0 143 -61 322l93 16q58 -200 58 -323q0 -31 -2 -49z" />
    <glyph glyph-name="uniFDF2" unicode="&#xfdf2;" horiz-adv-x="2101" arabic-form="isolated" 
d="M916 1234h-43q1 9 1 18q0 63 -29 157l43 8q28 -98 28 -170v-13zM1113 1084q0 -47 -26 -73q-24 -34 -73 -34q-37 0 -74 30q-30 -31 -86 -31q-41 0 -75.5 36t-34.5 81v8q0 27 10 81l59 -13q-7 -22 -7 -56q0 -83 48 -83q41 0 41 41q0 5 -17 96q26 0 65 6q6 -32 19 -101
q9 -37 50 -37q28 0 30 32q0 35 -37 106l56 22q52 -70 52 -111zM1584 359q0 -147 -56 -238q-67 -108 -205 -108q-57 0 -130 32q-82 37 -101 83q-78 -113 -286 -113q-138 0 -198 82q-56 76 -56 233q0 41 8.5 121t8.5 121q0 76 -65 76q-76 0 -166 -63q-95 -67 -95 -140
q0 -114 162 -341l-130 -91q-65 67 -130 197q-71 147 -71 248q0 136 169 251q155 105 309 106h4q157 0 158 -154q0 -17 -5 -205q-1 -29 -1 -56q0 -61 6 -110q13 -91 121 -91q79 0 110.5 33.5t31.5 115.5q0 125 -108 488l166 35q28 -91 70 -299q36 -174 73 -261
q47 -112 129 -112h3q103 0 103 155q0 154 -185 607l136 70q80 -162 150 -372t70 -300zM1971 0h-168q4 48 4 104v39q0 215 -39 514q-45 339 -108 542l181 34q44 -189 85 -481q49 -354 52 -607q0 -72 -7 -145z" />
    </font>
</defs>
</svg>
