<?xml version="1.0" standalone="no"?>
<!DOCTYPE svg PUBLIC "-//W3C//DTD SVG 1.1//EN" "http://www.w3.org/Graphics/SVG/1.1/DTD/svg11.dtd" >
<svg xmlns="http://www.w3.org/2000/svg" xmlns:xlink="http://www.w3.org/1999/xlink" version="1.1">
<metadata>
Created by FontForge 20170731 at Wed Oct 26 05:09:41 2016
 By Aleksey,,,
(c)  2012 Bahij Virtual Academy. All rights reserved.
</metadata>
<defs>
<font id="BahijYakout-Bold" horiz-adv-x="0" >
  <font-face 
    font-family="Bahij Yakout"
    font-weight="700"
    font-stretch="normal"
    units-per-em="2048"
    panose-1="2 4 7 3 6 2 1 2 2 3"
    ascent="1638"
    descent="-410"
    x-height="704"
    cap-height="1047"
    bbox="-255 -1226 4966 2116"
    underline-thickness="40"
    underline-position="-135"
    unicode-range="U+0020-FEFC"
  />
<missing-glyph horiz-adv-x="728" 
d="M0 0v1020h728v-1020h-728zM117 947l247 -372l248 372h-495zM655 881l-247 -371l247 -372v743zM612 73l-248 371l-247 -371h495zM73 138l247 372l-247 371v-743z" />
    <glyph glyph-name="uniFB01" unicode="fi" horiz-adv-x="1013" 
d="M675 1054q33 31 88 31q56 0 90 -31q33 -30 33 -78q0 -49 -33 -80q-34 -31 -90 -31q-54 0 -88 31q-35 31 -35 80q0 48 35 78zM551 63q112 3 112 35v507q0 25 -23 29h-299v-526q0 -45 152 -45h12v-63h-462v63q91 3 91 45v526h-91v70h91v97q0 128 88 208q84 76 211 76
q145 0 145 -115q0 -37 -23 -68q-25 -32 -59 -32q-43 0 -82 63q-38 65 -71 65q-49 0 -49 -66q0 -12 23 -86q24 -73 24 -142h231q115 2 186 19q42 9 67 19h53q-8 -33 -8 -95v-549q0 -32 102 -35v-63h-421v63z" />
    <glyph glyph-name="uniFB02" unicode="fl" horiz-adv-x="1013" 
d="M134 801q0 128 88 208q84 76 211 76q80 0 117 -36h22q112 2 186 18q42 9 67 18h53q-8 -33 -8 -94v-893q0 -32 102 -35v-63h-421v63q112 3 112 35v536h-322v-526q0 -45 152 -45h12v-63h-462v63q91 3 91 45v526h-91v70h91v97zM663 949q0 30 -39 30q-26 0 -46 -5
q0 -38 -21 -69q-24 -35 -61 -35q-43 0 -82 63q-38 65 -71 65q-49 0 -49 -66q0 -12 23 -86q24 -73 24 -142h322v245z" />
    <glyph glyph-name="uniFC31" unicode="&#xfed3;&#xfef0;" horiz-adv-x="2062" arabic-form="isolated" 
d="M1862 380q-15 77 -36 129.5t-44.5 85.5t-47.5 47.5t-44 14.5t-42.5 -8t-41.5 -20.5t-31 -28t-12 -31.5q0 -9 6 -22.5t34.5 -35.5t89 -54t169.5 -77zM1145 0q-23 0 -50 1t-53.5 2.5t-50 3t-39.5 1.5q-38 0 -68 -5t-50.5 -12t-31 -14.5t-10.5 -13.5q0 -5 7.5 -10t21.5 -10
t32 -10t38 -10q42 -11 76.5 -21t59 -23.5t38.5 -31.5t14 -44q0 -27 -5 -55.5t-15 -55t-23 -48t-29 -33.5q-52 -42 -121 -78.5t-144.5 -62.5t-153 -41t-148.5 -15q-69 0 -134 20.5t-114.5 63.5t-80 110.5t-30.5 161.5q0 41 8.5 97t30 116t57 119.5t89.5 109.5q29 25 43 25
q6 0 6 -8t-5.5 -23.5t-22.5 -37.5q-30 -42 -50.5 -85.5t-33.5 -83t-18 -73t-5 -55.5q0 -52 19 -95.5t59 -77t101.5 -52t146.5 -18.5q48 0 107 11t116 26t107 32.5t83 32.5v4q-31 9 -65.5 18.5t-66.5 18t-58.5 17t-41.5 15.5q-31 13 -48 30.5t-17 48.5q0 14 7.5 42t23 62.5
t37.5 71.5t51 67q47 49 120.5 79t169.5 30h120q93 0 174 -4.5t149.5 -9.5t125.5 -9.5t100 -4.5q32 0 52.5 1t24.5 2v7q-95 28 -160 55.5t-105 55.5t-57.5 60t-17.5 70q0 39 12.5 81t34 83t50.5 77.5t61 64.5t66.5 44t66.5 16q33 0 62 -15.5t52 -41t42 -58t30 -65.5
q12 -34 21.5 -64.5t15.5 -67.5t9.5 -84t3.5 -114q0 -101 -13.5 -169t-42.5 -94q-24 -24 -62.5 -36t-81.5 -18t-86 -7t-77 -1q-56 0 -108.5 2t-107 4t-112 4t-122.5 2h-6zM1699 908l-209 128q10 20 24 43.5t28.5 46.5t27.5 43t23 34q22 -13 49.5 -29.5t56 -35t55.5 -36
t49 -32.5q-9 -17 -21.5 -38.5t-27 -44t-29 -43.5t-26.5 -36z" />
    <glyph glyph-name="uniFC32" unicode="&#xfed3;&#xfef2;" horiz-adv-x="2062" arabic-form="isolated" 
d="M409 -954l-200 121q10 19 21 39.5t22.5 40.5t22.5 38.5t22 33.5q49 -26 96 -55t94 -61l70 121q59 -32 109 -62t88 -56q-23 -39 -44.5 -76t-45.5 -72q-23 13 -47 28t-48 29.5t-46 29t-40 25.5q-18 -32 -36.5 -63.5t-37.5 -60.5zM1862 380q-15 77 -36 129.5t-44.5 85.5
t-47.5 47.5t-44 14.5t-42.5 -8t-41.5 -20.5t-31 -28t-12 -31.5q0 -9 6 -22.5t34.5 -35.5t89 -54t169.5 -77zM1145 0q-23 0 -50 1t-53.5 2.5t-50 3t-39.5 1.5q-38 0 -68 -5t-50.5 -12t-31 -14.5t-10.5 -13.5q0 -5 7.5 -10t21.5 -10t32 -10t38 -10q42 -11 76.5 -21t59 -23.5
t38.5 -31.5t14 -44q0 -27 -5 -55.5t-15 -55t-23 -48t-29 -33.5q-52 -42 -121 -78.5t-144.5 -62.5t-153 -41t-148.5 -15q-69 0 -134 20.5t-114.5 63.5t-80 110.5t-30.5 161.5q0 41 8.5 97t30 116t57 119.5t89.5 109.5q29 25 43 25q6 0 6 -8t-5.5 -23.5t-22.5 -37.5
q-30 -42 -50.5 -85.5t-33.5 -83t-18 -73t-5 -55.5q0 -52 19 -95.5t59 -77t101.5 -52t146.5 -18.5q48 0 107 11t116 26t107 32.5t83 32.5v4q-31 9 -65.5 18.5t-66.5 18t-58.5 17t-41.5 15.5q-31 13 -48 30.5t-17 48.5q0 14 7.5 42t23 62.5t37.5 71.5t51 67q47 49 120.5 79
t169.5 30h120q93 0 174 -4.5t149.5 -9.5t125.5 -9.5t100 -4.5q32 0 52.5 1t24.5 2v7q-95 28 -160 55.5t-105 55.5t-57.5 60t-17.5 70q0 39 12.5 81t34 83t50.5 77.5t61 64.5t66.5 44t66.5 16q33 0 62 -15.5t52 -41t42 -58t30 -65.5q12 -34 21.5 -64.5t15.5 -67.5t9.5 -84
t3.5 -114q0 -101 -13.5 -169t-42.5 -94q-24 -24 -62.5 -36t-81.5 -18t-86 -7t-77 -1q-56 0 -108.5 2t-107 4t-112 4t-122.5 2h-6zM1699 908l-209 128q10 20 24 43.5t28.5 46.5t27.5 43t23 34q22 -13 49.5 -29.5t56 -35t55.5 -36t49 -32.5q-9 -17 -21.5 -38.5t-27 -44
t-29 -43.5t-26.5 -36z" />
    <glyph glyph-name="uniFC43" unicode="&#xfedf;&#xfef0;" horiz-adv-x="1741" arabic-form="isolated" 
d="M1145 0q-23 0 -50 1t-53.5 2.5t-50 3t-39.5 1.5q-38 0 -68 -5t-50.5 -12t-31 -14.5t-10.5 -13.5q0 -5 7.5 -10t21.5 -10t32 -10t38 -10q42 -11 76.5 -21t59 -23.5t38.5 -31.5t14 -44q0 -27 -5 -55.5t-15 -55t-23 -48t-29 -33.5q-52 -42 -121 -78.5t-144.5 -62.5t-153 -41
t-148.5 -15q-69 0 -134 20.5t-114.5 63.5t-80 110.5t-30.5 161.5q0 41 8.5 97t30 116t57 119.5t89.5 109.5q29 25 43 25q6 0 6 -8t-5.5 -23.5t-22.5 -37.5q-30 -42 -50.5 -85.5t-33.5 -83t-18 -73t-5 -55.5q0 -52 19 -95.5t59 -77t101.5 -52t146.5 -18.5q48 0 107 11t116 26
t107 32.5t83 32.5v4q-31 9 -65.5 18.5t-66.5 18t-58.5 17t-41.5 15.5q-31 13 -48 30.5t-17 48.5q0 14 7.5 42t23 62.5t37.5 71.5t51 67q47 49 120.5 79t169.5 30h121q7 -1 27.5 -2.5t49 -3t64.5 -2.5t73 -1q31 0 60.5 1t60.5 5q0 43 -9.5 145t-27.5 268q-11 103 -18.5 181
t-9.5 132q37 43 82 85.5t93 80.5q2 -62 6 -138t8.5 -160t9.5 -172t9 -173.5t6.5 -164.5t2.5 -144q0 -124 -20 -151q-6 -10 -23.5 -16t-40 -9t-49 -4t-51.5 -1t-70 1t-92 2.5t-87 3.5t-54 3h-7z" />
    <glyph glyph-name="uniFC44" unicode="&#xfedf;&#xfef2;" horiz-adv-x="1741" arabic-form="isolated" 
d="M409 -954l-200 121q10 19 21 39.5t22.5 40.5t22.5 38.5t22 33.5q49 -26 96 -55t94 -61l70 121q59 -32 109 -62t88 -56q-23 -39 -44.5 -76t-45.5 -72q-23 13 -47 28t-48 29.5t-46 29t-40 25.5q-18 -32 -36.5 -63.5t-37.5 -60.5zM1145 0q-23 0 -50 1t-53.5 2.5t-50 3
t-39.5 1.5q-38 0 -68 -5t-50.5 -12t-31 -14.5t-10.5 -13.5q0 -5 7.5 -10t21.5 -10t32 -10t38 -10q42 -11 76.5 -21t59 -23.5t38.5 -31.5t14 -44q0 -27 -5 -55.5t-15 -55t-23 -48t-29 -33.5q-52 -42 -121 -78.5t-144.5 -62.5t-153 -41t-148.5 -15q-69 0 -134 20.5
t-114.5 63.5t-80 110.5t-30.5 161.5q0 41 8.5 97t30 116t57 119.5t89.5 109.5q29 25 43 25q6 0 6 -8t-5.5 -23.5t-22.5 -37.5q-30 -42 -50.5 -85.5t-33.5 -83t-18 -73t-5 -55.5q0 -52 19 -95.5t59 -77t101.5 -52t146.5 -18.5q48 0 107 11t116 26t107 32.5t83 32.5v4
q-31 9 -65.5 18.5t-66.5 18t-58.5 17t-41.5 15.5q-31 13 -48 30.5t-17 48.5q0 14 7.5 42t23 62.5t37.5 71.5t51 67q47 49 120.5 79t169.5 30h121q7 -1 27.5 -2.5t49 -3t64.5 -2.5t73 -1q31 0 60.5 1t60.5 5q0 43 -9.5 145t-27.5 268q-11 103 -18.5 181t-9.5 132
q37 43 82 85.5t93 80.5q2 -62 6 -138t8.5 -160t9.5 -172t9 -173.5t6.5 -164.5t2.5 -144q0 -124 -20 -151q-6 -10 -23.5 -16t-40 -9t-49 -4t-51.5 -1t-70 1t-92 2.5t-87 3.5t-54 3h-7z" />
    <glyph glyph-name="uniFC64" unicode="&#xfe8c;&#xfeae;" horiz-adv-x="1360" arabic-form="final" 
d="M890 687q-1 20 -1 27v17q0 21 2 36.5t8 28.5q7 13 15.5 22t21.5 19q-31 22 -50 45t-19 60q0 27 18 59.5t47.5 60t67 46.5t77.5 19q37 0 63.5 -18.5t26.5 -48.5q0 -16 -10.5 -35t-39.5 -33q-43 38 -84 38q-12 0 -23.5 -2.5t-22 -7.5t-17 -12.5t-6.5 -18.5t10.5 -25
t25.5 -27.5t33 -22.5t35 -9q12 0 34 6.5t48 15t55 19t54 17.5q-20 -78 -37 -120q-69 -21 -119 -38t-87.5 -34.5t-66.5 -37t-57 -47.5zM761 0q-3 -23 -6 -48q-12 -70 -35.5 -140.5t-58 -135.5t-80 -115.5t-102.5 -81t-125 -30.5q-47 0 -92 21t-86 55t-75.5 75.5t-57.5 82.5
q-43 75 -43 92q0 8 10 8q7 0 17 -7q145 -90 246 -90q71 0 132 25t109.5 69t85.5 102.5t61 125.5q-22 55 -69.5 113t-117.5 116q20 54 49.5 112t62.5 108q51 -44 86 -84.5t56 -83.5q12 -26 21 -55h3q12 0 36 -1t53.5 -2t60.5 -3t60 -2.5t52 -1.5t34 -1q42 0 79.5 1.5
t69.5 6.5q0 22 -10 49t-26 56.5t-37.5 58.5t-44.5 53q47 96 122 215q48 -54 79.5 -117.5t49.5 -131t25 -137t7 -134.5q0 -46 -8 -77t-27.5 -48.5t-52 -24.5t-81.5 -7q-59 0 -126.5 2t-130 4.5t-112.5 5.5q-40 2 -63 2z" />
    <glyph glyph-name="uniFC67" unicode="&#xfe8c;&#xfee6;" horiz-adv-x="1639" arabic-form="final" 
d="M635 613l-223 136q11 21 25.5 45.5t30.5 49t30 46t24 35.5q23 -13 52 -31t59 -37.5t59.5 -38.5t51.5 -33q-8 -19 -22 -42t-29 -46t-30 -45t-28 -39zM1173 687q-1 20 -1 27v17q0 21 2 36.5t8 28.5q7 13 15.5 22t21.5 19q-31 22 -50.5 45t-19.5 60q0 27 18.5 59.5t47.5 60
t66.5 46.5t77.5 19q37 0 63.5 -18.5t26.5 -48.5q0 -16 -10 -35t-40 -33q-43 38 -84 38q-11 0 -23 -2.5t-22 -7.5t-16.5 -12.5t-6.5 -18.5t10.5 -25t25.5 -27.5t33 -22.5t35 -9q11 0 33 6.5t48.5 15t55.5 19t54 17.5q-21 -78 -37 -120q-70 -21 -119.5 -38t-87 -34.5t-67 -37
t-56.5 -47.5zM1045 0q-2 -19 -5 -35q-9 -59 -23.5 -106t-33.5 -83.5t-40 -62.5q-32 -38 -86.5 -73.5t-120.5 -63.5t-136.5 -45t-133.5 -17q-97 0 -172.5 26.5t-126.5 75t-77.5 119.5t-26.5 160q0 51 9.5 105t26 105.5t39.5 98.5t50 85q23 34 41.5 50t29.5 16q9 0 9 -10
q0 -7 -7.5 -28t-25.5 -57q-14 -26 -25 -57t-20 -64.5t-14 -65.5t-5 -57q0 -63 21.5 -111t61 -81t95 -50t122.5 -17q60 0 121.5 10t120 30t111.5 50.5t96 71.5q0 47 -7.5 99.5t-25 106t-47 106t-73.5 101.5q37 66 70.5 121.5t64.5 99.5q73 -89 110 -209q16 -54 25 -110
q13 0 34 -1q24 -1 53 -2t60.5 -3t60 -2.5t51.5 -1.5t35 -1q42 0 79 1.5t69 6.5q0 22 -9.5 49t-25.5 56.5t-37.5 58.5t-45.5 53q47 96 122 215q49 -54 80.5 -117.5t49.5 -131t24.5 -137t6.5 -134.5q0 -46 -7.5 -77t-27 -48.5t-52.5 -24.5t-81 -7q-59 0 -127 2t-130.5 4.5
t-111.5 5.5q-40 1 -62 2z" />
    <glyph glyph-name="uniFC6A" unicode="&#xfe92;&#xfeae;" horiz-adv-x="1374" arabic-form="final" 
d="M761 0q-3 -23 -6 -48q-12 -70 -35.5 -140.5t-58 -135.5t-80 -115.5t-102.5 -81t-125 -30.5q-47 0 -92 21t-86 55t-75.5 75.5t-57.5 82.5q-43 75 -43 92q0 8 10 8q7 0 17 -7q145 -90 246 -90q71 0 132 25t109.5 69t85.5 102.5t61 125.5q-22 55 -69.5 113t-117.5 116
q20 54 49.5 112t62.5 108q51 -44 86 -84.5t56 -83.5q12 -26 21 -55h22q13 0 37 -1t53 -2t60.5 -3t60 -2.5t51.5 -1.5t35 -1q42 0 79 1.5t69 6.5q0 22 -9.5 49t-25.5 56.5t-37.5 58.5t-45.5 53q47 96 122 215q49 -54 80 -117.5t49.5 -131t25 -137t6.5 -134.5q0 -46 -7.5 -77
t-27 -48.5t-52.5 -24.5t-82 -7q-58 0 -126 2t-130.5 4.5t-112 5t-72.5 2.5h-10zM1152 -512l-210 127q11 21 24.5 44.5t28 46.5t28 43t22.5 33q22 -12 50 -29t56 -35.5t55.5 -36t48.5 -31.5q-8 -17 -21 -38.5t-27 -44t-28.5 -43.5t-26.5 -36z" />
    <glyph glyph-name="uniFC70" unicode="&#xfe98;&#xfeae;" horiz-adv-x="1379" arabic-form="final" 
d="M761 0q-3 -23 -6 -48q-12 -70 -35.5 -140.5t-58 -135.5t-80 -115.5t-102.5 -81t-125 -30.5q-47 0 -92 21t-86 55t-75.5 75.5t-57.5 82.5q-43 75 -43 92q0 8 10 8q7 0 17 -7q145 -90 246 -90q71 0 132 25t109.5 69t85.5 102.5t61 125.5q-22 55 -69.5 113t-117.5 116
q20 54 49.5 112t62.5 108q51 -44 86 -84.5t56 -83.5q12 -26 21 -55h22q13 0 37 -1t53 -2t60.5 -3t60 -2.5t51.5 -1.5t35 -1q42 0 79 1.5t69 6.5q0 22 -9.5 49t-25.5 56.5t-37.5 58.5t-45.5 53q47 96 122 215q49 -54 80 -117.5t49.5 -131t25 -137t6.5 -134.5q0 -46 -7.5 -77
t-27 -48.5t-52.5 -24.5t-82 -7q-58 0 -126 2t-130.5 4.5t-112 5t-72.5 2.5h-10zM1010 717q-47 29 -93.5 56.5t-92.5 56.5q22 39 41 72t45 67q44 -25 86.5 -50.5t89.5 -53.5q20 32 38.5 61.5t36.5 55.5q42 -25 89 -54.5t91 -60.5q-10 -19 -22.5 -38.5t-24.5 -38t-23 -33.5
t-18 -24q-41 25 -82.5 51t-82.5 52q-19 -28 -38 -57.5t-40 -61.5z" />
    <glyph glyph-name="uniFC86" unicode="&#xfee0;&#xfef0;" horiz-adv-x="1639" arabic-form="final" 
d="M1145 0q-23 0 -50 1t-53.5 2.5t-50 3t-39.5 1.5q-38 0 -68 -5t-50.5 -12t-31 -14.5t-10.5 -13.5q0 -5 7.5 -10t21.5 -10t32 -10t38 -10q42 -11 76.5 -21t59 -23.5t38.5 -31.5t14 -44q0 -27 -5 -55.5t-15 -55t-23 -48t-29 -33.5q-52 -42 -121 -78.5t-144.5 -62.5t-153 -41
t-148.5 -15q-69 0 -134 20.5t-114.5 63.5t-80 110.5t-30.5 161.5q0 41 8.5 97t30 116t57 119.5t89.5 109.5q29 25 43 25q6 0 6 -8t-5.5 -23.5t-22.5 -37.5q-30 -42 -50.5 -85.5t-33.5 -83t-18 -73t-5 -55.5q0 -52 19 -95.5t59 -77t101.5 -52t146.5 -18.5q48 0 107 11t116 26
t107 32.5t83 32.5v4q-31 9 -65.5 18.5t-66.5 18t-58.5 17t-41.5 15.5q-31 13 -48 30.5t-17 48.5q0 14 7.5 42t23 62.5t37.5 71.5t51 67q47 49 120.5 79t169.5 30h121q7 -1 27.5 -2.5t49 -3t64.5 -2.5t73 -1q31 0 60.5 1t60.5 5q0 43 -9.5 145t-27.5 268q-11 103 -18.5 181
t-9.5 132q37 43 82 85.5t93 80.5q2 -62 6 -138t8.5 -160t9.5 -172t9 -173.5t6.5 -164.5t2.5 -144q0 -124 -20 -151q-6 -10 -23.5 -16t-40 -9t-49 -4t-51.5 -1t-70 1t-92 2.5t-87 3.5t-54 3h-7z" />
    <glyph glyph-name="uniFC87" unicode="&#xfee0;&#xfef2;" horiz-adv-x="1639" arabic-form="final" 
d="M409 -954l-200 121q10 19 21 39.5t22.5 40.5t22.5 38.5t22 33.5q49 -26 96 -55t94 -61l70 121q59 -32 109 -62t88 -56q-23 -39 -44.5 -76t-45.5 -72q-23 13 -47 28t-48 29.5t-46 29t-40 25.5q-18 -32 -36.5 -63.5t-37.5 -60.5zM1145 0q-23 0 -50 1t-53.5 2.5t-50 3
t-39.5 1.5q-38 0 -68 -5t-50.5 -12t-31 -14.5t-10.5 -13.5q0 -5 7.5 -10t21.5 -10t32 -10t38 -10q42 -11 76.5 -21t59 -23.5t38.5 -31.5t14 -44q0 -27 -5 -55.5t-15 -55t-23 -48t-29 -33.5q-52 -42 -121 -78.5t-144.5 -62.5t-153 -41t-148.5 -15q-69 0 -134 20.5
t-114.5 63.5t-80 110.5t-30.5 161.5q0 41 8.5 97t30 116t57 119.5t89.5 109.5q29 25 43 25q6 0 6 -8t-5.5 -23.5t-22.5 -37.5q-30 -42 -50.5 -85.5t-33.5 -83t-18 -73t-5 -55.5q0 -52 19 -95.5t59 -77t101.5 -52t146.5 -18.5q48 0 107 11t116 26t107 32.5t83 32.5v4
q-31 9 -65.5 18.5t-66.5 18t-58.5 17t-41.5 15.5q-31 13 -48 30.5t-17 48.5q0 14 7.5 42t23 62.5t37.5 71.5t51 67q47 49 120.5 79t169.5 30h121q7 -1 27.5 -2.5t49 -3t64.5 -2.5t73 -1q31 0 60.5 1t60.5 5q0 43 -9.5 145t-27.5 268q-11 103 -18.5 181t-9.5 132
q37 43 82 85.5t93 80.5q2 -62 6 -138t8.5 -160t9.5 -172t9 -173.5t6.5 -164.5t2.5 -144q0 -124 -20 -151q-6 -10 -23.5 -16t-40 -9t-49 -4t-51.5 -1t-70 1t-92 2.5t-87 3.5t-54 3h-7z" />
    <glyph glyph-name="uniFCCC" unicode="&#xfedf;&#xfee4;" horiz-adv-x="814" arabic-form="initial" 
d="M696 -111q-21 32 -51.5 61.5t-63 53t-66 38t-61.5 14.5q-10 0 -24.5 -2.5t-29 -6.5l-29 -8t-26.5 -7q-67 -16 -154 -24t-191 -8q-42 0 -61.5 5t-26.5 15q-15 21 -15 91q0 80 14 102q6 11 26 16t63 5h58q53 0 100.5 1t85 6t59.5 15t22 27q0 12 -4 57.5t-10.5 108.5
t-14.5 138.5t-14.5 148t-12 135.5t-7.5 103l133 148l2 -1q3 -64 23 -107t47.5 -69.5t57 -39t51.5 -13.5q-4 -37 -14 -65t-22 -51.5t-26.5 -42t-27.5 -34.5q-16 -19 -24.5 -32.5t-7.5 -30.5q3 -67 5.5 -115.5t4.5 -81t5 -51t6 -25.5q7 -15 20.5 -28t36.5 -28
q127 -85 195.5 -137t68.5 -82q0 -24 -8 -49.5t-22 -51.5t-32 -51t-38 -47z" />
    <glyph glyph-name="uniFCFB" unicode="&#xfeb3;&#xfef0;" horiz-adv-x="2647" arabic-form="isolated" 
d="M1145 0q-23 0 -50 1t-53.5 2.5t-50 3t-39.5 1.5q-38 0 -68 -5t-50.5 -12t-31 -14.5t-10.5 -13.5q0 -5 7.5 -10t21.5 -10t32 -10t38 -10q42 -11 76.5 -21t59 -23.5t38.5 -31.5t14 -44q0 -27 -5 -55.5t-15 -55t-23 -48t-29 -33.5q-52 -42 -121 -78.5t-144.5 -62.5t-153 -41
t-148.5 -15q-69 0 -134 20.5t-114.5 63.5t-80 110.5t-30.5 161.5q0 41 8.5 97t30 116t57 119.5t89.5 109.5q29 25 43 25q6 0 6 -8t-5.5 -23.5t-22.5 -37.5q-30 -42 -50.5 -85.5t-33.5 -83t-18 -73t-5 -55.5q0 -52 19 -95.5t59 -77t101.5 -52t146.5 -18.5q48 0 107 11t116 26
t107 32.5t83 32.5v4q-31 9 -65.5 18.5t-66.5 18t-58.5 17t-41.5 15.5q-31 13 -48 30.5t-17 48.5q0 14 7.5 42t23 62.5t37.5 71.5t51 67q47 49 120.5 79t169.5 30h259q31 0 70.5 0.5t76.5 2t67 5.5t39 12q24 16 35 60t19 126q47 36 93.5 70t92.5 65q-2 -45 -9.5 -91t-20 -88
t-29 -79t-36.5 -64q37 -10 90.5 -14.5t110.5 -4.5q34 0 57 6t36 17.5t18.5 29t5.5 40.5t-4.5 52.5t-9.5 64.5q85 80 168 148q3 -20 5 -43t2 -48q0 -56 -9 -115.5t-27 -110.5q10 -9 32 -18t49.5 -16.5t59 -11.5t59.5 -4q39 0 66 10.5t27 35.5q0 13 -6.5 34.5t-16 46.5
t-23 50.5t-25.5 47.5q33 46 67.5 89t71.5 87q13 -19 26 -64.5t23.5 -105t16.5 -125.5t6 -127q0 -62 -7.5 -110.5t-25.5 -68.5q-13 -13 -46.5 -19t-74.5 -6q-99 0 -192.5 16.5t-183.5 57.5q-48 -43 -98.5 -58.5t-115.5 -15.5q-37 0 -67 3.5t-59.5 9.5t-59 14t-64.5 19
q-25 -16 -50 -25t-57.5 -13.5t-76 -6t-104.5 -1.5h-137z" />
    <glyph glyph-name="uniFCFC" unicode="&#xfeb3;&#xfef2;" horiz-adv-x="2647" arabic-form="isolated" 
d="M409 -954l-200 121q10 19 21 39.5t22.5 40.5t22.5 38.5t22 33.5q49 -26 96 -55t94 -61l70 121q59 -32 109 -62t88 -56q-23 -39 -44.5 -76t-45.5 -72q-23 13 -47 28t-48 29.5t-46 29t-40 25.5q-18 -32 -36.5 -63.5t-37.5 -60.5zM1145 0q-23 0 -50 1t-53.5 2.5t-50 3
t-39.5 1.5q-38 0 -68 -5t-50.5 -12t-31 -14.5t-10.5 -13.5q0 -5 7.5 -10t21.5 -10t32 -10t38 -10q42 -11 76.5 -21t59 -23.5t38.5 -31.5t14 -44q0 -27 -5 -55.5t-15 -55t-23 -48t-29 -33.5q-52 -42 -121 -78.5t-144.5 -62.5t-153 -41t-148.5 -15q-69 0 -134 20.5
t-114.5 63.5t-80 110.5t-30.5 161.5q0 41 8.5 97t30 116t57 119.5t89.5 109.5q29 25 43 25q6 0 6 -8t-5.5 -23.5t-22.5 -37.5q-30 -42 -50.5 -85.5t-33.5 -83t-18 -73t-5 -55.5q0 -52 19 -95.5t59 -77t101.5 -52t146.5 -18.5q48 0 107 11t116 26t107 32.5t83 32.5v4
q-31 9 -65.5 18.5t-66.5 18t-58.5 17t-41.5 15.5q-31 13 -48 30.5t-17 48.5q0 14 7.5 42t23 62.5t37.5 71.5t51 67q47 49 120.5 79t169.5 30h259q31 0 70.5 0.5t76.5 2t67 5.5t39 12q24 16 35 60t19 126q47 36 93.5 70t92.5 65q-2 -45 -9.5 -91t-20 -88t-29 -79t-36.5 -64
q37 -10 90.5 -14.5t110.5 -4.5q34 0 57 6t36 17.5t18.5 29t5.5 40.5t-4.5 52.5t-9.5 64.5q85 80 168 148q3 -20 5 -43t2 -48q0 -56 -9 -115.5t-27 -110.5q10 -9 32 -18t49.5 -16.5t59 -11.5t59.5 -4q39 0 66 10.5t27 35.5q0 13 -6.5 34.5t-16 46.5t-23 50.5t-25.5 47.5
q33 46 67.5 89t71.5 87q13 -19 26 -64.5t23.5 -105t16.5 -125.5t6 -127q0 -62 -7.5 -110.5t-25.5 -68.5q-13 -13 -46.5 -19t-74.5 -6q-99 0 -192.5 16.5t-183.5 57.5q-48 -43 -98.5 -58.5t-115.5 -15.5q-37 0 -67 3.5t-59.5 9.5t-59 14t-64.5 19q-25 -16 -50 -25
t-57.5 -13.5t-76 -6t-104.5 -1.5h-137z" />
    <glyph glyph-name="uniFCFD" unicode="&#xfeb7;&#xfef0;" horiz-adv-x="2647" arabic-form="isolated" 
d="M1145 0q-23 0 -50 1t-53.5 2.5t-50 3t-39.5 1.5q-38 0 -68 -5t-50.5 -12t-31 -14.5t-10.5 -13.5q0 -5 7.5 -10t21.5 -10t32 -10t38 -10q42 -11 76.5 -21t59 -23.5t38.5 -31.5t14 -44q0 -27 -5 -55.5t-15 -55t-23 -48t-29 -33.5q-52 -42 -121 -78.5t-144.5 -62.5t-153 -41
t-148.5 -15q-69 0 -134 20.5t-114.5 63.5t-80 110.5t-30.5 161.5q0 41 8.5 97t30 116t57 119.5t89.5 109.5q29 25 43 25q6 0 6 -8t-5.5 -23.5t-22.5 -37.5q-30 -42 -50.5 -85.5t-33.5 -83t-18 -73t-5 -55.5q0 -52 19 -95.5t59 -77t101.5 -52t146.5 -18.5q48 0 107 11t116 26
t107 32.5t83 32.5v4q-31 9 -65.5 18.5t-66.5 18t-58.5 17t-41.5 15.5q-31 13 -48 30.5t-17 48.5q0 14 7.5 42t23 62.5t37.5 71.5t51 67q47 49 120.5 79t169.5 30h259q31 0 70.5 0.5t76.5 2t67 5.5t39 12q24 16 35 60t19 126q47 36 93.5 70t92.5 65q-2 -45 -9.5 -91t-20 -88
t-29 -79t-36.5 -64q37 -10 90.5 -14.5t110.5 -4.5q34 0 57 6t36 17.5t18.5 29t5.5 40.5t-4.5 52.5t-9.5 64.5q85 80 168 148q3 -20 5 -43t2 -48q0 -56 -9 -115.5t-27 -110.5q10 -9 32 -18t49.5 -16.5t59 -11.5t59.5 -4q39 0 66 10.5t27 35.5q0 13 -6.5 34.5t-16 46.5
t-23 50.5t-25.5 47.5q33 46 67.5 89t71.5 87q13 -19 26 -64.5t23.5 -105t16.5 -125.5t6 -127q0 -62 -7.5 -110.5t-25.5 -68.5q-13 -13 -46.5 -19t-74.5 -6q-99 0 -192.5 16.5t-183.5 57.5q-48 -43 -98.5 -58.5t-115.5 -15.5q-37 0 -67 3.5t-59.5 9.5t-59 14t-64.5 19
q-25 -16 -50 -25t-57.5 -13.5t-76 -6t-104.5 -1.5h-137zM2044 957q-47 28 -91 54t-87 51q19 35 40 69.5t46 65.5l178 -107q-5 -8 -13.5 -23.5t-20.5 -34.5t-25 -38.5t-27 -36.5zM2000 702q-47 28 -93.5 56t-92.5 56q22 39 41 72.5t45 67.5q44 -26 86 -51t90 -54
q20 32 38.5 61.5t35.5 55.5q42 -25 89.5 -54.5t91.5 -60.5q-11 -18 -23 -37.5t-24 -38t-23 -34t-18 -24.5q-41 26 -82.5 52t-82.5 51q-19 -27 -38 -57t-40 -61z" />
    <glyph glyph-name="uniFCFE" unicode="&#xfeb7;&#xfef2;" horiz-adv-x="2647" arabic-form="isolated" 
d="M409 -954l-200 121q10 19 21 39.5t22.5 40.5t22.5 38.5t22 33.5q49 -26 96 -55t94 -61l70 121q59 -32 109 -62t88 -56q-23 -39 -44.5 -76t-45.5 -72q-23 13 -47 28t-48 29.5t-46 29t-40 25.5q-18 -32 -36.5 -63.5t-37.5 -60.5zM1145 0q-23 0 -50 1t-53.5 2.5t-50 3
t-39.5 1.5q-38 0 -68 -5t-50.5 -12t-31 -14.5t-10.5 -13.5q0 -5 7.5 -10t21.5 -10t32 -10t38 -10q42 -11 76.5 -21t59 -23.5t38.5 -31.5t14 -44q0 -27 -5 -55.5t-15 -55t-23 -48t-29 -33.5q-52 -42 -121 -78.5t-144.5 -62.5t-153 -41t-148.5 -15q-69 0 -134 20.5
t-114.5 63.5t-80 110.5t-30.5 161.5q0 41 8.5 97t30 116t57 119.5t89.5 109.5q29 25 43 25q6 0 6 -8t-5.5 -23.5t-22.5 -37.5q-30 -42 -50.5 -85.5t-33.5 -83t-18 -73t-5 -55.5q0 -52 19 -95.5t59 -77t101.5 -52t146.5 -18.5q48 0 107 11t116 26t107 32.5t83 32.5v4
q-31 9 -65.5 18.5t-66.5 18t-58.5 17t-41.5 15.5q-31 13 -48 30.5t-17 48.5q0 14 7.5 42t23 62.5t37.5 71.5t51 67q47 49 120.5 79t169.5 30h259q31 0 70.5 0.5t76.5 2t67 5.5t39 12q24 16 35 60t19 126q47 36 93.5 70t92.5 65q-2 -45 -9.5 -91t-20 -88t-29 -79t-36.5 -64
q37 -10 90.5 -14.5t110.5 -4.5q34 0 57 6t36 17.5t18.5 29t5.5 40.5t-4.5 52.5t-9.5 64.5q85 80 168 148q3 -20 5 -43t2 -48q0 -56 -9 -115.5t-27 -110.5q10 -9 32 -18t49.5 -16.5t59 -11.5t59.5 -4q39 0 66 10.5t27 35.5q0 13 -6.5 34.5t-16 46.5t-23 50.5t-25.5 47.5
q33 46 67.5 89t71.5 87q13 -19 26 -64.5t23.5 -105t16.5 -125.5t6 -127q0 -62 -7.5 -110.5t-25.5 -68.5q-13 -13 -46.5 -19t-74.5 -6q-99 0 -192.5 16.5t-183.5 57.5q-48 -43 -98.5 -58.5t-115.5 -15.5q-37 0 -67 3.5t-59.5 9.5t-59 14t-64.5 19q-25 -16 -50 -25
t-57.5 -13.5t-76 -6t-104.5 -1.5h-137zM2044 957q-47 28 -91 54t-87 51q19 35 40 69.5t46 65.5l178 -107q-5 -8 -13.5 -23.5t-20.5 -34.5t-25 -38.5t-27 -36.5zM2000 702q-47 28 -93.5 56t-92.5 56q22 39 41 72.5t45 67.5q44 -26 86 -51t90 -54q20 32 38.5 61.5t35.5 55.5
q42 -25 89.5 -54.5t91.5 -60.5q-11 -18 -23 -37.5t-24 -38t-23 -34t-18 -24.5q-41 26 -82.5 52t-82.5 51q-19 -27 -38 -57t-40 -61z" />
    <glyph glyph-name="uniFD05" unicode="&#xfebb;&#xfef0;" horiz-adv-x="2865" arabic-form="isolated" 
d="M1943 226q47 -2 96 -3.5t94.5 -2.5t86 -1.5t72.5 -0.5q27 0 63 0.5t73 2t73.5 3.5t65 5.5t46 7.5t17.5 10q0 10 -7 26.5t-20 36t-32 40.5t-44 40q-17 14 -34.5 26.5t-38.5 21.5t-46 14.5t-56 5.5q-27 0 -60.5 -7.5t-81 -31t-113 -68t-154.5 -121.5v-4zM1145 0
q-23 0 -50 1t-53.5 2.5t-50 3t-39.5 1.5q-38 0 -68 -5t-50.5 -12t-31 -14.5t-10.5 -13.5q0 -5 7.5 -10t21.5 -10t32 -10t38 -10q42 -11 76.5 -21t59 -23.5t38.5 -31.5t14 -44q0 -27 -5 -55.5t-15 -55t-23 -48t-29 -33.5q-52 -42 -121 -78.5t-144.5 -62.5t-153 -41
t-148.5 -15q-69 0 -134 20.5t-114.5 63.5t-80 110.5t-30.5 161.5q0 41 8.5 97t30 116t57 119.5t89.5 109.5q29 25 43 25q6 0 6 -8t-5.5 -23.5t-22.5 -37.5q-30 -42 -50.5 -85.5t-33.5 -83t-18 -73t-5 -55.5q0 -52 19 -95.5t59 -77t101.5 -52t146.5 -18.5q48 0 107 11t116 26
t107 32.5t83 32.5v4q-31 9 -65.5 18.5t-66.5 18t-58.5 17t-41.5 15.5q-31 13 -48 30.5t-17 48.5q0 14 7.5 42t23 62.5t37.5 71.5t51 67q47 49 120.5 79t169.5 30h238q64 0 110.5 2t76.5 8t43.5 15.5t13.5 25.5q0 11 -5.5 36.5t-12.5 53t-14 53t-10 36.5q28 38 71 80t96 89
q24 -74 28.5 -124.5t4.5 -70.5t-1 -39t-4.5 -39t-9.5 -42.5t-16 -51.5q28 -16 55 -22.5t55 -6.5q12 0 21.5 3.5t24.5 15t38.5 33t62.5 59.5q85 79 156 140t134 102t120.5 62.5t115.5 21.5q38 0 72 -10t64 -27.5t56 -41.5t49 -51q60 -75 82 -136t22 -116q0 -53 -10 -101
t-24 -82q-13 -33 -35.5 -53t-51.5 -31.5t-64.5 -16.5t-75.5 -9q-49 -5 -105 -7.5t-113.5 -3.5t-114 -1.5t-103.5 -0.5q-95 0 -177.5 1t-151.5 8.5t-124.5 22t-97.5 43.5q-26 -29 -90 -45t-171 -16h-114z" />
    <glyph glyph-name="uniFD06" unicode="&#xfebb;&#xfef2;" horiz-adv-x="2865" arabic-form="isolated" 
d="M409 -954l-200 121q10 19 21 39.5t22.5 40.5t22.5 38.5t22 33.5q49 -26 96 -55t94 -61l70 121q59 -32 109 -62t88 -56q-23 -39 -44.5 -76t-45.5 -72q-23 13 -47 28t-48 29.5t-46 29t-40 25.5q-18 -32 -36.5 -63.5t-37.5 -60.5zM1943 226q47 -2 96 -3.5t94.5 -2.5t86 -1.5
t72.5 -0.5q27 0 63 0.5t73 2t73.5 3.5t65 5.5t46 7.5t17.5 10q0 10 -7 26.5t-20 36t-32 40.5t-44 40q-17 14 -34.5 26.5t-38.5 21.5t-46 14.5t-56 5.5q-27 0 -60.5 -7.5t-81 -31t-113 -68t-154.5 -121.5v-4zM1145 0q-23 0 -50 1t-53.5 2.5t-50 3t-39.5 1.5q-38 0 -68 -5
t-50.5 -12t-31 -14.5t-10.5 -13.5q0 -5 7.5 -10t21.5 -10t32 -10t38 -10q42 -11 76.5 -21t59 -23.5t38.5 -31.5t14 -44q0 -27 -5 -55.5t-15 -55t-23 -48t-29 -33.5q-52 -42 -121 -78.5t-144.5 -62.5t-153 -41t-148.5 -15q-69 0 -134 20.5t-114.5 63.5t-80 110.5t-30.5 161.5
q0 41 8.5 97t30 116t57 119.5t89.5 109.5q29 25 43 25q6 0 6 -8t-5.5 -23.5t-22.5 -37.5q-30 -42 -50.5 -85.5t-33.5 -83t-18 -73t-5 -55.5q0 -52 19 -95.5t59 -77t101.5 -52t146.5 -18.5q48 0 107 11t116 26t107 32.5t83 32.5v4q-31 9 -65.5 18.5t-66.5 18t-58.5 17
t-41.5 15.5q-31 13 -48 30.5t-17 48.5q0 14 7.5 42t23 62.5t37.5 71.5t51 67q47 49 120.5 79t169.5 30h238q64 0 110.5 2t76.5 8t43.5 15.5t13.5 25.5q0 11 -5.5 36.5t-12.5 53t-14 53t-10 36.5q28 38 71 80t96 89q24 -74 28.5 -124.5t4.5 -70.5t-1 -39t-4.5 -39t-9.5 -42.5
t-16 -51.5q28 -16 55 -22.5t55 -6.5q12 0 21.5 3.5t24.5 15t38.5 33t62.5 59.5q85 79 156 140t134 102t120.5 62.5t115.5 21.5q38 0 72 -10t64 -27.5t56 -41.5t49 -51q60 -75 82 -136t22 -116q0 -53 -10 -101t-24 -82q-13 -33 -35.5 -53t-51.5 -31.5t-64.5 -16.5t-75.5 -9
q-49 -5 -105 -7.5t-113.5 -3.5t-114 -1.5t-103.5 -0.5q-95 0 -177.5 1t-151.5 8.5t-124.5 22t-97.5 43.5q-26 -29 -90 -45t-171 -16h-114z" />
    <glyph glyph-name="uniFD07" unicode="&#xfebf;&#xfef0;" horiz-adv-x="2865" arabic-form="isolated" 
d="M1943 226q47 -2 96 -3.5t94.5 -2.5t86 -1.5t72.5 -0.5q27 0 63 0.5t73 2t73.5 3.5t65 5.5t46 7.5t17.5 10q0 10 -7 26.5t-20 36t-32 40.5t-44 40q-17 14 -34.5 26.5t-38.5 21.5t-46 14.5t-56 5.5q-27 0 -60.5 -7.5t-81 -31t-113 -68t-154.5 -121.5v-4zM1145 0
q-23 0 -50 1t-53.5 2.5t-50 3t-39.5 1.5q-38 0 -68 -5t-50.5 -12t-31 -14.5t-10.5 -13.5q0 -5 7.5 -10t21.5 -10t32 -10t38 -10q42 -11 76.5 -21t59 -23.5t38.5 -31.5t14 -44q0 -27 -5 -55.5t-15 -55t-23 -48t-29 -33.5q-52 -42 -121 -78.5t-144.5 -62.5t-153 -41
t-148.5 -15q-69 0 -134 20.5t-114.5 63.5t-80 110.5t-30.5 161.5q0 41 8.5 97t30 116t57 119.5t89.5 109.5q29 25 43 25q6 0 6 -8t-5.5 -23.5t-22.5 -37.5q-30 -42 -50.5 -85.5t-33.5 -83t-18 -73t-5 -55.5q0 -52 19 -95.5t59 -77t101.5 -52t146.5 -18.5q48 0 107 11t116 26
t107 32.5t83 32.5v4q-31 9 -65.5 18.5t-66.5 18t-58.5 17t-41.5 15.5q-31 13 -48 30.5t-17 48.5q0 14 7.5 42t23 62.5t37.5 71.5t51 67q47 49 120.5 79t169.5 30h238q64 0 110.5 2t76.5 8t43.5 15.5t13.5 25.5q0 11 -5.5 36.5t-12.5 53t-14 53t-10 36.5q28 38 71 80t96 89
q24 -74 28.5 -124.5t4.5 -70.5t-1 -39t-4.5 -39t-9.5 -42.5t-16 -51.5q28 -16 55 -22.5t55 -6.5q12 0 21.5 3.5t24.5 15t38.5 33t62.5 59.5q85 79 156 140t134 102t120.5 62.5t115.5 21.5q38 0 72 -10t64 -27.5t56 -41.5t49 -51q60 -75 82 -136t22 -116q0 -53 -10 -101
t-24 -82q-13 -33 -35.5 -53t-51.5 -31.5t-64.5 -16.5t-75.5 -9q-49 -5 -105 -7.5t-113.5 -3.5t-114 -1.5t-103.5 -0.5q-95 0 -177.5 1t-151.5 8.5t-124.5 22t-97.5 43.5q-26 -29 -90 -45t-171 -16h-114zM2364 839l-210 127q11 21 24.5 44.5t28.5 46.5t28 43t23 33
q21 -12 49 -29t56.5 -35.5t55.5 -36t49 -31.5q-9 -17 -21.5 -38.5t-27 -44t-29 -43.5t-26.5 -36z" />
    <glyph glyph-name="uniFD08" unicode="&#xfebf;&#xfef2;" horiz-adv-x="2865" arabic-form="isolated" 
d="M409 -954l-200 121q10 19 21 39.5t22.5 40.5t22.5 38.5t22 33.5q49 -26 96 -55t94 -61l70 121q59 -32 109 -62t88 -56q-23 -39 -44.5 -76t-45.5 -72q-23 13 -47 28t-48 29.5t-46 29t-40 25.5q-18 -32 -36.5 -63.5t-37.5 -60.5zM1943 226q47 -2 96 -3.5t94.5 -2.5t86 -1.5
t72.5 -0.5q27 0 63 0.5t73 2t73.5 3.5t65 5.5t46 7.5t17.5 10q0 10 -7 26.5t-20 36t-32 40.5t-44 40q-17 14 -34.5 26.5t-38.5 21.5t-46 14.5t-56 5.5q-27 0 -60.5 -7.5t-81 -31t-113 -68t-154.5 -121.5v-4zM1145 0q-23 0 -50 1t-53.5 2.5t-50 3t-39.5 1.5q-38 0 -68 -5
t-50.5 -12t-31 -14.5t-10.5 -13.5q0 -5 7.5 -10t21.5 -10t32 -10t38 -10q42 -11 76.5 -21t59 -23.5t38.5 -31.5t14 -44q0 -27 -5 -55.5t-15 -55t-23 -48t-29 -33.5q-52 -42 -121 -78.5t-144.5 -62.5t-153 -41t-148.5 -15q-69 0 -134 20.5t-114.5 63.5t-80 110.5t-30.5 161.5
q0 41 8.5 97t30 116t57 119.5t89.5 109.5q29 25 43 25q6 0 6 -8t-5.5 -23.5t-22.5 -37.5q-30 -42 -50.5 -85.5t-33.5 -83t-18 -73t-5 -55.5q0 -52 19 -95.5t59 -77t101.5 -52t146.5 -18.5q48 0 107 11t116 26t107 32.5t83 32.5v4q-31 9 -65.5 18.5t-66.5 18t-58.5 17
t-41.5 15.5q-31 13 -48 30.5t-17 48.5q0 14 7.5 42t23 62.5t37.5 71.5t51 67q47 49 120.5 79t169.5 30h238q64 0 110.5 2t76.5 8t43.5 15.5t13.5 25.5q0 11 -5.5 36.5t-12.5 53t-14 53t-10 36.5q28 38 71 80t96 89q24 -74 28.5 -124.5t4.5 -70.5t-1 -39t-4.5 -39t-9.5 -42.5
t-16 -51.5q28 -16 55 -22.5t55 -6.5q12 0 21.5 3.5t24.5 15t38.5 33t62.5 59.5q85 79 156 140t134 102t120.5 62.5t115.5 21.5q38 0 72 -10t64 -27.5t56 -41.5t49 -51q60 -75 82 -136t22 -116q0 -53 -10 -101t-24 -82q-13 -33 -35.5 -53t-51.5 -31.5t-64.5 -16.5t-75.5 -9
q-49 -5 -105 -7.5t-113.5 -3.5t-114 -1.5t-103.5 -0.5q-95 0 -177.5 1t-151.5 8.5t-124.5 22t-97.5 43.5q-26 -29 -90 -45t-171 -16h-114zM2364 839l-210 127q11 21 24.5 44.5t28.5 46.5t28 43t23 33q21 -12 49 -29t56.5 -35.5t55.5 -36t49 -31.5q-9 -17 -21.5 -38.5
t-27 -44t-29 -43.5t-26.5 -36z" />
    <glyph glyph-name="uniFD0D" unicode="&#xfeb7;&#xfeae;" horiz-adv-x="2271" arabic-form="isolated" 
d="M761 0q-3 -23 -6 -48q-12 -70 -35.5 -140.5t-58 -135.5t-80 -115.5t-102.5 -81t-125 -30.5q-47 0 -92 21t-86 55t-75.5 75.5t-57.5 82.5q-43 75 -43 92q0 8 10 8q7 0 17 -7q145 -90 246 -90q71 0 132 25t109.5 69t85.5 102.5t61 125.5q-22 55 -69.5 113t-117.5 116
q20 54 49.5 112t62.5 108q51 -44 86 -84.5t56 -83.5q12 -26 21 -56q10 1 22 1h140q30 0 69.5 0.5t76.5 2t67 5.5t40 12q23 16 34 60t19 126q47 36 93.5 70t93.5 65q-3 -45 -10.5 -91t-19.5 -88t-28.5 -79t-37.5 -64q37 -10 91 -14.5t110 -4.5q34 0 57 6t36.5 17.5t18.5 29
t5 40.5t-4 52.5t-9 64.5q85 80 168 148q2 -20 4 -43t2 -48q0 -56 -8.5 -115.5t-27.5 -110.5q10 -9 32 -18t50 -16.5t59 -11.5t59 -4q39 0 66 10.5t27 35.5q0 13 -6.5 34.5t-16 46.5t-22.5 50.5t-26 47.5q33 46 67.5 89t71.5 87q13 -19 26 -64.5t23.5 -105t17 -125.5
t6.5 -127q0 -62 -8 -110.5t-26 -68.5q-13 -13 -46.5 -19t-74.5 -6q-99 0 -192.5 16.5t-182.5 57.5q-49 -43 -99.5 -58.5t-115.5 -15.5q-36 0 -66.5 3.5t-59.5 9.5t-59 14t-65 19q-24 -16 -49 -25t-58 -13.5t-76.5 -6t-104.5 -1.5h-141zM1664 957q-46 28 -90 54t-87 51
q18 35 39 69.5t47 65.5l177 -107q-5 -8 -13.5 -23.5t-20.5 -34.5t-25 -38.5t-27 -36.5zM1620 702q-46 28 -93 56t-93 56q22 39 41.5 72.5t44.5 67.5q44 -26 86.5 -51t90.5 -54q19 32 37.5 61.5t36.5 55.5q42 -25 89 -54.5t91 -60.5q-10 -18 -22.5 -37.5t-24.5 -38t-23 -34
t-17 -24.5q-41 26 -82.5 52t-82.5 51q-20 -27 -39 -57t-40 -61z" />
    <glyph glyph-name="uniFD0E" unicode="&#xfeb3;&#xfeae;" horiz-adv-x="2271" arabic-form="isolated" 
d="M761 0q-3 -23 -6 -48q-12 -70 -35.5 -140.5t-58 -135.5t-80 -115.5t-102.5 -81t-125 -30.5q-47 0 -92 21t-86 55t-75.5 75.5t-57.5 82.5q-43 75 -43 92q0 8 10 8q7 0 17 -7q145 -90 246 -90q71 0 132 25t109.5 69t85.5 102.5t61 125.5q-22 55 -69.5 113t-117.5 116
q20 54 49.5 112t62.5 108q51 -44 86 -84.5t56 -83.5q12 -26 21 -56q10 1 22 1h140q30 0 69.5 0.5t76.5 2t67 5.5t40 12q23 16 34 60t19 126q47 36 93.5 70t93.5 65q-3 -45 -10.5 -91t-19.5 -88t-28.5 -79t-37.5 -64q37 -10 91 -14.5t110 -4.5q34 0 57 6t36.5 17.5t18.5 29
t5 40.5t-4 52.5t-9 64.5q85 80 168 148q2 -20 4 -43t2 -48q0 -56 -8.5 -115.5t-27.5 -110.5q10 -9 32 -18t50 -16.5t59 -11.5t59 -4q39 0 66 10.5t27 35.5q0 13 -6.5 34.5t-16 46.5t-22.5 50.5t-26 47.5q33 46 67.5 89t71.5 87q13 -19 26 -64.5t23.5 -105t17 -125.5
t6.5 -127q0 -62 -8 -110.5t-26 -68.5q-13 -13 -46.5 -19t-74.5 -6q-99 0 -192.5 16.5t-182.5 57.5q-49 -43 -99.5 -58.5t-115.5 -15.5q-36 0 -66.5 3.5t-59.5 9.5t-59 14t-65 19q-24 -16 -49 -25t-58 -13.5t-76.5 -6t-104.5 -1.5h-141z" />
    <glyph glyph-name="uniFD0F" unicode="&#xfebb;&#xfeae;" horiz-adv-x="2480" arabic-form="isolated" 
d="M1563 226q48 -2 96.5 -3.5t94 -2.5t86 -1.5t72.5 -0.5q28 0 63.5 0.5t72.5 2t73.5 3.5t65 5.5t46 7.5t17.5 10q0 10 -7 26.5t-20 36t-32 40.5t-43 40q-18 14 -35.5 26.5t-38.5 21.5t-46 14.5t-56 5.5q-26 0 -60 -7.5t-81.5 -31t-112.5 -68t-155 -121.5v-4zM761 0
q-3 -23 -6 -48q-12 -70 -35.5 -140.5t-58 -135.5t-80 -115.5t-102.5 -81t-125 -30.5q-47 0 -92 21t-86 55t-75.5 75.5t-57.5 82.5q-43 75 -43 92q0 8 10 8q7 0 17 -7q145 -90 246 -90q71 0 132 25t109.5 69t85.5 102.5t61 125.5q-22 55 -69.5 113t-117.5 116q20 54 49.5 112
t62.5 108q51 -44 86 -84.5t56 -83.5q12 -26 21 -55h140q65 0 111 2t76 8t43.5 15.5t13.5 25.5q0 11 -5 36.5t-12.5 53t-14.5 53t-10 36.5q29 38 72 80t95 89q25 -74 29 -124.5t4 -70.5t-0.5 -39t-4 -39t-10 -42.5t-16.5 -51.5q29 -16 55.5 -22.5t55.5 -6.5q11 0 21 3.5
t24.5 15t38 33t62.5 59.5q85 79 156 140t134 102t121 62.5t115 21.5q38 0 72.5 -10t64 -27.5t56 -41.5t48.5 -51q61 -75 83 -136t22 -116q0 -53 -10.5 -101t-23.5 -82q-14 -33 -36.5 -53t-51.5 -31.5t-64.5 -16.5t-75.5 -9q-49 -5 -105 -7.5t-113.5 -3.5t-113.5 -1.5
t-103 -0.5q-96 0 -178.5 1t-151.5 8.5t-124.5 22t-97.5 43.5q-25 -29 -89.5 -45t-170.5 -16h-119z" />
    <glyph glyph-name="uniFD10" unicode="&#xfebf;&#xfeae;" horiz-adv-x="2480" arabic-form="isolated" 
d="M1563 226q48 -2 96.5 -3.5t94 -2.5t86 -1.5t72.5 -0.5q28 0 63.5 0.5t72.5 2t73.5 3.5t65 5.5t46 7.5t17.5 10q0 10 -7 26.5t-20 36t-32 40.5t-43 40q-18 14 -35.5 26.5t-38.5 21.5t-46 14.5t-56 5.5q-26 0 -60 -7.5t-81.5 -31t-112.5 -68t-155 -121.5v-4zM761 0
q-3 -23 -6 -48q-12 -70 -35.5 -140.5t-58 -135.5t-80 -115.5t-102.5 -81t-125 -30.5q-47 0 -92 21t-86 55t-75.5 75.5t-57.5 82.5q-43 75 -43 92q0 8 10 8q7 0 17 -7q145 -90 246 -90q71 0 132 25t109.5 69t85.5 102.5t61 125.5q-22 55 -69.5 113t-117.5 116q20 54 49.5 112
t62.5 108q51 -44 86 -84.5t56 -83.5q12 -26 21 -55h140q65 0 111 2t76 8t43.5 15.5t13.5 25.5q0 11 -5 36.5t-12.5 53t-14.5 53t-10 36.5q29 38 72 80t95 89q25 -74 29 -124.5t4 -70.5t-0.5 -39t-4 -39t-10 -42.5t-16.5 -51.5q29 -16 55.5 -22.5t55.5 -6.5q11 0 21 3.5
t24.5 15t38 33t62.5 59.5q85 79 156 140t134 102t121 62.5t115 21.5q38 0 72.5 -10t64 -27.5t56 -41.5t48.5 -51q61 -75 83 -136t22 -116q0 -53 -10.5 -101t-23.5 -82q-14 -33 -36.5 -53t-51.5 -31.5t-64.5 -16.5t-75.5 -9q-49 -5 -105 -7.5t-113.5 -3.5t-113.5 -1.5
t-103 -0.5q-96 0 -178.5 1t-151.5 8.5t-124.5 22t-97.5 43.5q-25 -29 -89.5 -45t-170.5 -16h-119zM1985 839l-210 127q10 21 24 44.5t28.5 46.5t27.5 43t23 33q22 -12 49.5 -29t56 -35.5t56 -36t48.5 -31.5q-9 -17 -21.5 -38.5t-26.5 -44t-29 -43.5t-26 -36z" />
    <glyph glyph-name="uniFD17" unicode="&#xfeb4;&#xfef0;" horiz-adv-x="2561" arabic-form="final" 
d="M1145 0q-23 0 -50 1t-53.5 2.5t-50 3t-39.5 1.5q-38 0 -68 -5t-50.5 -12t-31 -14.5t-10.5 -13.5q0 -5 7.5 -10t21.5 -10t32 -10t38 -10q42 -11 76.5 -21t59 -23.5t38.5 -31.5t14 -44q0 -27 -5 -55.5t-15 -55t-23 -48t-29 -33.5q-52 -42 -121 -78.5t-144.5 -62.5t-153 -41
t-148.5 -15q-69 0 -134 20.5t-114.5 63.5t-80 110.5t-30.5 161.5q0 41 8.5 97t30 116t57 119.5t89.5 109.5q29 25 43 25q6 0 6 -8t-5.5 -23.5t-22.5 -37.5q-30 -42 -50.5 -85.5t-33.5 -83t-18 -73t-5 -55.5q0 -52 19 -95.5t59 -77t101.5 -52t146.5 -18.5q48 0 107 11t116 26
t107 32.5t83 32.5v4q-31 9 -65.5 18.5t-66.5 18t-58.5 17t-41.5 15.5q-31 13 -48 30.5t-17 48.5q0 14 7.5 42t23 62.5t37.5 71.5t51 67q47 49 120.5 79t169.5 30h259q31 0 70.5 0.5t76.5 2t67 5.5t39 12q24 16 35 60t19 126q47 36 93.5 70t92.5 65q-2 -45 -9.5 -91t-20 -88
t-29 -79t-36.5 -64q37 -10 90.5 -14.5t110.5 -4.5q34 0 57 6t36 17.5t18.5 29t5.5 40.5t-4.5 52.5t-9.5 64.5q85 80 168 148q3 -20 5 -43t2 -48q0 -56 -9 -115.5t-27 -110.5q10 -9 32 -18t49.5 -16.5t59 -11.5t59.5 -4q39 0 66 10.5t27 35.5q0 13 -6.5 34.5t-16 46.5
t-23 50.5t-25.5 47.5q33 46 67.5 89t71.5 87q13 -19 26 -64.5t23.5 -105t16.5 -125.5t6 -127q0 -62 -7.5 -110.5t-25.5 -68.5q-13 -13 -46.5 -19t-74.5 -6q-99 0 -192.5 16.5t-183.5 57.5q-48 -43 -98.5 -58.5t-115.5 -15.5q-37 0 -67 3.5t-59.5 9.5t-59 14t-64.5 19
q-25 -16 -50 -25t-57.5 -13.5t-76 -6t-104.5 -1.5h-137z" />
    <glyph glyph-name="uniFD18" unicode="&#xfeb4;&#xfef2;" horiz-adv-x="2561" arabic-form="final" 
d="M409 -954l-200 121q10 19 21 39.5t22.5 40.5t22.5 38.5t22 33.5q49 -26 96 -55t94 -61l70 121q59 -32 109 -62t88 -56q-23 -39 -44.5 -76t-45.5 -72q-23 13 -47 28t-48 29.5t-46 29t-40 25.5q-18 -32 -36.5 -63.5t-37.5 -60.5zM1145 0q-23 0 -50 1t-53.5 2.5t-50 3
t-39.5 1.5q-38 0 -68 -5t-50.5 -12t-31 -14.5t-10.5 -13.5q0 -5 7.5 -10t21.5 -10t32 -10t38 -10q42 -11 76.5 -21t59 -23.5t38.5 -31.5t14 -44q0 -27 -5 -55.5t-15 -55t-23 -48t-29 -33.5q-52 -42 -121 -78.5t-144.5 -62.5t-153 -41t-148.5 -15q-69 0 -134 20.5
t-114.5 63.5t-80 110.5t-30.5 161.5q0 41 8.5 97t30 116t57 119.5t89.5 109.5q29 25 43 25q6 0 6 -8t-5.5 -23.5t-22.5 -37.5q-30 -42 -50.5 -85.5t-33.5 -83t-18 -73t-5 -55.5q0 -52 19 -95.5t59 -77t101.5 -52t146.5 -18.5q48 0 107 11t116 26t107 32.5t83 32.5v4
q-31 9 -65.5 18.5t-66.5 18t-58.5 17t-41.5 15.5q-31 13 -48 30.5t-17 48.5q0 14 7.5 42t23 62.5t37.5 71.5t51 67q47 49 120.5 79t169.5 30h259q31 0 70.5 0.5t76.5 2t67 5.5t39 12q24 16 35 60t19 126q47 36 93.5 70t92.5 65q-2 -45 -9.5 -91t-20 -88t-29 -79t-36.5 -64
q37 -10 90.5 -14.5t110.5 -4.5q34 0 57 6t36 17.5t18.5 29t5.5 40.5t-4.5 52.5t-9.5 64.5q85 80 168 148q3 -20 5 -43t2 -48q0 -56 -9 -115.5t-27 -110.5q10 -9 32 -18t49.5 -16.5t59 -11.5t59.5 -4q39 0 66 10.5t27 35.5q0 13 -6.5 34.5t-16 46.5t-23 50.5t-25.5 47.5
q33 46 67.5 89t71.5 87q13 -19 26 -64.5t23.5 -105t16.5 -125.5t6 -127q0 -62 -7.5 -110.5t-25.5 -68.5q-13 -13 -46.5 -19t-74.5 -6q-99 0 -192.5 16.5t-183.5 57.5q-48 -43 -98.5 -58.5t-115.5 -15.5q-37 0 -67 3.5t-59.5 9.5t-59 14t-64.5 19q-25 -16 -50 -25
t-57.5 -13.5t-76 -6t-104.5 -1.5h-137z" />
    <glyph glyph-name="uniFD19" unicode="&#xfeb8;&#xfef0;" horiz-adv-x="2561" arabic-form="final" 
d="M1145 0q-23 0 -50 1t-53.5 2.5t-50 3t-39.5 1.5q-38 0 -68 -5t-50.5 -12t-31 -14.5t-10.5 -13.5q0 -5 7.5 -10t21.5 -10t32 -10t38 -10q42 -11 76.5 -21t59 -23.5t38.5 -31.5t14 -44q0 -27 -5 -55.5t-15 -55t-23 -48t-29 -33.5q-52 -42 -121 -78.5t-144.5 -62.5t-153 -41
t-148.5 -15q-69 0 -134 20.5t-114.5 63.5t-80 110.5t-30.5 161.5q0 41 8.5 97t30 116t57 119.5t89.5 109.5q29 25 43 25q6 0 6 -8t-5.5 -23.5t-22.5 -37.5q-30 -42 -50.5 -85.5t-33.5 -83t-18 -73t-5 -55.5q0 -52 19 -95.5t59 -77t101.5 -52t146.5 -18.5q48 0 107 11t116 26
t107 32.5t83 32.5v4q-31 9 -65.5 18.5t-66.5 18t-58.5 17t-41.5 15.5q-31 13 -48 30.5t-17 48.5q0 14 7.5 42t23 62.5t37.5 71.5t51 67q47 49 120.5 79t169.5 30h259q31 0 70.5 0.5t76.5 2t67 5.5t39 12q24 16 35 60t19 126q47 36 93.5 70t92.5 65q-2 -45 -9.5 -91t-20 -88
t-29 -79t-36.5 -64q37 -10 90.5 -14.5t110.5 -4.5q34 0 57 6t36 17.5t18.5 29t5.5 40.5t-4.5 52.5t-9.5 64.5q85 80 168 148q3 -20 5 -43t2 -48q0 -56 -9 -115.5t-27 -110.5q10 -9 32 -18t49.5 -16.5t59 -11.5t59.5 -4q39 0 66 10.5t27 35.5q0 13 -6.5 34.5t-16 46.5
t-23 50.5t-25.5 47.5q33 46 67.5 89t71.5 87q13 -19 26 -64.5t23.5 -105t16.5 -125.5t6 -127q0 -62 -7.5 -110.5t-25.5 -68.5q-13 -13 -46.5 -19t-74.5 -6q-99 0 -192.5 16.5t-183.5 57.5q-48 -43 -98.5 -58.5t-115.5 -15.5q-37 0 -67 3.5t-59.5 9.5t-59 14t-64.5 19
q-25 -16 -50 -25t-57.5 -13.5t-76 -6t-104.5 -1.5h-137zM2044 957q-47 28 -91 54t-87 51q19 35 40 69.5t46 65.5l178 -107q-5 -8 -13.5 -23.5t-20.5 -34.5t-25 -38.5t-27 -36.5zM2000 702q-47 28 -93.5 56t-92.5 56q22 39 41 72.5t45 67.5q44 -26 86 -51t90 -54
q20 32 38.5 61.5t35.5 55.5q42 -25 89.5 -54.5t91.5 -60.5q-11 -18 -23 -37.5t-24 -38t-23 -34t-18 -24.5q-41 26 -82.5 52t-82.5 51q-19 -27 -38 -57t-40 -61z" />
    <glyph glyph-name="uniFD1A" unicode="&#xfeb8;&#xfef2;" horiz-adv-x="2561" arabic-form="final" 
d="M409 -954l-200 121q10 19 21 39.5t22.5 40.5t22.5 38.5t22 33.5q49 -26 96 -55t94 -61l70 121q59 -32 109 -62t88 -56q-23 -39 -44.5 -76t-45.5 -72q-23 13 -47 28t-48 29.5t-46 29t-40 25.5q-18 -32 -36.5 -63.5t-37.5 -60.5zM1145 0q-23 0 -50 1t-53.5 2.5t-50 3
t-39.5 1.5q-38 0 -68 -5t-50.5 -12t-31 -14.5t-10.5 -13.5q0 -5 7.5 -10t21.5 -10t32 -10t38 -10q42 -11 76.5 -21t59 -23.5t38.5 -31.5t14 -44q0 -27 -5 -55.5t-15 -55t-23 -48t-29 -33.5q-52 -42 -121 -78.5t-144.5 -62.5t-153 -41t-148.5 -15q-69 0 -134 20.5
t-114.5 63.5t-80 110.5t-30.5 161.5q0 41 8.5 97t30 116t57 119.5t89.5 109.5q29 25 43 25q6 0 6 -8t-5.5 -23.5t-22.5 -37.5q-30 -42 -50.5 -85.5t-33.5 -83t-18 -73t-5 -55.5q0 -52 19 -95.5t59 -77t101.5 -52t146.5 -18.5q48 0 107 11t116 26t107 32.5t83 32.5v4
q-31 9 -65.5 18.5t-66.5 18t-58.5 17t-41.5 15.5q-31 13 -48 30.5t-17 48.5q0 14 7.5 42t23 62.5t37.5 71.5t51 67q47 49 120.5 79t169.5 30h259q31 0 70.5 0.5t76.5 2t67 5.5t39 12q24 16 35 60t19 126q47 36 93.5 70t92.5 65q-2 -45 -9.5 -91t-20 -88t-29 -79t-36.5 -64
q37 -10 90.5 -14.5t110.5 -4.5q34 0 57 6t36 17.5t18.5 29t5.5 40.5t-4.5 52.5t-9.5 64.5q85 80 168 148q3 -20 5 -43t2 -48q0 -56 -9 -115.5t-27 -110.5q10 -9 32 -18t49.5 -16.5t59 -11.5t59.5 -4q39 0 66 10.5t27 35.5q0 13 -6.5 34.5t-16 46.5t-23 50.5t-25.5 47.5
q33 46 67.5 89t71.5 87q13 -19 26 -64.5t23.5 -105t16.5 -125.5t6 -127q0 -62 -7.5 -110.5t-25.5 -68.5q-13 -13 -46.5 -19t-74.5 -6q-99 0 -192.5 16.5t-183.5 57.5q-48 -43 -98.5 -58.5t-115.5 -15.5q-37 0 -67 3.5t-59.5 9.5t-59 14t-64.5 19q-25 -16 -50 -25
t-57.5 -13.5t-76 -6t-104.5 -1.5h-137zM2044 957q-47 28 -91 54t-87 51q19 35 40 69.5t46 65.5l178 -107q-5 -8 -13.5 -23.5t-20.5 -34.5t-25 -38.5t-27 -36.5zM2000 702q-47 28 -93.5 56t-92.5 56q22 39 41 72.5t45 67.5q44 -26 86 -51t90 -54q20 32 38.5 61.5t35.5 55.5
q42 -25 89.5 -54.5t91.5 -60.5q-11 -18 -23 -37.5t-24 -38t-23 -34t-18 -24.5q-41 26 -82.5 52t-82.5 51q-19 -27 -38 -57t-40 -61z" />
    <glyph glyph-name="uniFD21" unicode="&#xfebc;&#xfef0;" horiz-adv-x="2766" arabic-form="final" 
d="M1943 226q47 -2 96 -3.5t94.5 -2.5t86 -1.5t72.5 -0.5q27 0 63 0.5t73 2t73.5 3.5t65 5.5t46 7.5t17.5 10q0 10 -7 26.5t-20 36t-32 40.5t-44 40q-17 14 -34.5 26.5t-38.5 21.5t-46 14.5t-56 5.5q-27 0 -60.5 -7.5t-81 -31t-113 -68t-154.5 -121.5v-4zM1145 0
q-23 0 -50 1t-53.5 2.5t-50 3t-39.5 1.5q-38 0 -68 -5t-50.5 -12t-31 -14.5t-10.5 -13.5q0 -5 7.5 -10t21.5 -10t32 -10t38 -10q42 -11 76.5 -21t59 -23.5t38.5 -31.5t14 -44q0 -27 -5 -55.5t-15 -55t-23 -48t-29 -33.5q-52 -42 -121 -78.5t-144.5 -62.5t-153 -41
t-148.5 -15q-69 0 -134 20.5t-114.5 63.5t-80 110.5t-30.5 161.5q0 41 8.5 97t30 116t57 119.5t89.5 109.5q29 25 43 25q6 0 6 -8t-5.5 -23.5t-22.5 -37.5q-30 -42 -50.5 -85.5t-33.5 -83t-18 -73t-5 -55.5q0 -52 19 -95.5t59 -77t101.5 -52t146.5 -18.5q48 0 107 11t116 26
t107 32.5t83 32.5v4q-31 9 -65.5 18.5t-66.5 18t-58.5 17t-41.5 15.5q-31 13 -48 30.5t-17 48.5q0 14 7.5 42t23 62.5t37.5 71.5t51 67q47 49 120.5 79t169.5 30h238q64 0 110.5 2t76.5 8t43.5 15.5t13.5 25.5q0 11 -5.5 36.5t-12.5 53t-14 53t-10 36.5q28 38 71 80t96 89
q24 -74 28.5 -124.5t4.5 -70.5t-1 -39t-4.5 -39t-9.5 -42.5t-16 -51.5q28 -16 55 -22.5t55 -6.5q12 0 21.5 3.5t24.5 15t38.5 33t62.5 59.5q85 79 156 140t134 102t120.5 62.5t115.5 21.5q38 0 72 -10t64 -27.5t56 -41.5t49 -51q60 -75 82 -136t22 -116q0 -53 -10 -101
t-24 -82q-13 -33 -35.5 -53t-51.5 -31.5t-64.5 -16.5t-75.5 -9q-49 -5 -105 -7.5t-113.5 -3.5t-114 -1.5t-103.5 -0.5q-95 0 -177.5 1t-151.5 8.5t-124.5 22t-97.5 43.5q-26 -29 -90 -45t-171 -16h-114z" />
    <glyph glyph-name="uniFD22" unicode="&#xfebc;&#xfef2;" horiz-adv-x="2766" arabic-form="final" 
d="M409 -954l-200 121q10 19 21 39.5t22.5 40.5t22.5 38.5t22 33.5q49 -26 96 -55t94 -61l70 121q59 -32 109 -62t88 -56q-23 -39 -44.5 -76t-45.5 -72q-23 13 -47 28t-48 29.5t-46 29t-40 25.5q-18 -32 -36.5 -63.5t-37.5 -60.5zM1943 226q47 -2 96 -3.5t94.5 -2.5t86 -1.5
t72.5 -0.5q27 0 63 0.5t73 2t73.5 3.5t65 5.5t46 7.5t17.5 10q0 10 -7 26.5t-20 36t-32 40.5t-44 40q-17 14 -34.5 26.5t-38.5 21.5t-46 14.5t-56 5.5q-27 0 -60.5 -7.5t-81 -31t-113 -68t-154.5 -121.5v-4zM1145 0q-23 0 -50 1t-53.5 2.5t-50 3t-39.5 1.5q-38 0 -68 -5
t-50.5 -12t-31 -14.5t-10.5 -13.5q0 -5 7.5 -10t21.5 -10t32 -10t38 -10q42 -11 76.5 -21t59 -23.5t38.5 -31.5t14 -44q0 -27 -5 -55.5t-15 -55t-23 -48t-29 -33.5q-52 -42 -121 -78.5t-144.5 -62.5t-153 -41t-148.5 -15q-69 0 -134 20.5t-114.5 63.5t-80 110.5t-30.5 161.5
q0 41 8.5 97t30 116t57 119.5t89.5 109.5q29 25 43 25q6 0 6 -8t-5.5 -23.5t-22.5 -37.5q-30 -42 -50.5 -85.5t-33.5 -83t-18 -73t-5 -55.5q0 -52 19 -95.5t59 -77t101.5 -52t146.5 -18.5q48 0 107 11t116 26t107 32.5t83 32.5v4q-31 9 -65.5 18.5t-66.5 18t-58.5 17
t-41.5 15.5q-31 13 -48 30.5t-17 48.5q0 14 7.5 42t23 62.5t37.5 71.5t51 67q47 49 120.5 79t169.5 30h238q64 0 110.5 2t76.5 8t43.5 15.5t13.5 25.5q0 11 -5.5 36.5t-12.5 53t-14 53t-10 36.5q28 38 71 80t96 89q24 -74 28.5 -124.5t4.5 -70.5t-1 -39t-4.5 -39t-9.5 -42.5
t-16 -51.5q28 -16 55 -22.5t55 -6.5q12 0 21.5 3.5t24.5 15t38.5 33t62.5 59.5q85 79 156 140t134 102t120.5 62.5t115.5 21.5q38 0 72 -10t64 -27.5t56 -41.5t49 -51q60 -75 82 -136t22 -116q0 -53 -10 -101t-24 -82q-13 -33 -35.5 -53t-51.5 -31.5t-64.5 -16.5t-75.5 -9
q-49 -5 -105 -7.5t-113.5 -3.5t-114 -1.5t-103.5 -0.5q-95 0 -177.5 1t-151.5 8.5t-124.5 22t-97.5 43.5q-26 -29 -90 -45t-171 -16h-114z" />
    <glyph glyph-name="uniFD23" unicode="&#xfec0;&#xfef0;" horiz-adv-x="2766" arabic-form="final" 
d="M1943 226q47 -2 96 -3.5t94.5 -2.5t86 -1.5t72.5 -0.5q27 0 63 0.5t73 2t73.5 3.5t65 5.5t46 7.5t17.5 10q0 10 -7 26.5t-20 36t-32 40.5t-44 40q-17 14 -34.5 26.5t-38.5 21.5t-46 14.5t-56 5.5q-27 0 -60.5 -7.5t-81 -31t-113 -68t-154.5 -121.5v-4zM1145 0
q-23 0 -50 1t-53.5 2.5t-50 3t-39.5 1.5q-38 0 -68 -5t-50.5 -12t-31 -14.5t-10.5 -13.5q0 -5 7.5 -10t21.5 -10t32 -10t38 -10q42 -11 76.5 -21t59 -23.5t38.5 -31.5t14 -44q0 -27 -5 -55.5t-15 -55t-23 -48t-29 -33.5q-52 -42 -121 -78.5t-144.5 -62.5t-153 -41
t-148.5 -15q-69 0 -134 20.5t-114.5 63.5t-80 110.5t-30.5 161.5q0 41 8.5 97t30 116t57 119.5t89.5 109.5q29 25 43 25q6 0 6 -8t-5.5 -23.5t-22.5 -37.5q-30 -42 -50.5 -85.5t-33.5 -83t-18 -73t-5 -55.5q0 -52 19 -95.5t59 -77t101.5 -52t146.5 -18.5q48 0 107 11t116 26
t107 32.5t83 32.5v4q-31 9 -65.5 18.5t-66.5 18t-58.5 17t-41.5 15.5q-31 13 -48 30.5t-17 48.5q0 14 7.5 42t23 62.5t37.5 71.5t51 67q47 49 120.5 79t169.5 30h238q64 0 110.5 2t76.5 8t43.5 15.5t13.5 25.5q0 11 -5.5 36.5t-12.5 53t-14 53t-10 36.5q28 38 71 80t96 89
q24 -74 28.5 -124.5t4.5 -70.5t-1 -39t-4.5 -39t-9.5 -42.5t-16 -51.5q28 -16 55 -22.5t55 -6.5q12 0 21.5 3.5t24.5 15t38.5 33t62.5 59.5q85 79 156 140t134 102t120.5 62.5t115.5 21.5q38 0 72 -10t64 -27.5t56 -41.5t49 -51q60 -75 82 -136t22 -116q0 -53 -10 -101
t-24 -82q-13 -33 -35.5 -53t-51.5 -31.5t-64.5 -16.5t-75.5 -9q-49 -5 -105 -7.5t-113.5 -3.5t-114 -1.5t-103.5 -0.5q-95 0 -177.5 1t-151.5 8.5t-124.5 22t-97.5 43.5q-26 -29 -90 -45t-171 -16h-114zM2364 839l-210 127q11 21 24.5 44.5t28.5 46.5t28 43t23 33
q21 -12 49 -29t56.5 -35.5t55.5 -36t49 -31.5q-9 -17 -21.5 -38.5t-27 -44t-29 -43.5t-26.5 -36z" />
    <glyph glyph-name="uniFD24" unicode="&#xfec0;&#xfef2;" horiz-adv-x="2766" arabic-form="final" 
d="M409 -954l-200 121q10 19 21 39.5t22.5 40.5t22.5 38.5t22 33.5q49 -26 96 -55t94 -61l70 121q59 -32 109 -62t88 -56q-23 -39 -44.5 -76t-45.5 -72q-23 13 -47 28t-48 29.5t-46 29t-40 25.5q-18 -32 -36.5 -63.5t-37.5 -60.5zM1943 226q47 -2 96 -3.5t94.5 -2.5t86 -1.5
t72.5 -0.5q27 0 63 0.5t73 2t73.5 3.5t65 5.5t46 7.5t17.5 10q0 10 -7 26.5t-20 36t-32 40.5t-44 40q-17 14 -34.5 26.5t-38.5 21.5t-46 14.5t-56 5.5q-27 0 -60.5 -7.5t-81 -31t-113 -68t-154.5 -121.5v-4zM1145 0q-23 0 -50 1t-53.5 2.5t-50 3t-39.5 1.5q-38 0 -68 -5
t-50.5 -12t-31 -14.5t-10.5 -13.5q0 -5 7.5 -10t21.5 -10t32 -10t38 -10q42 -11 76.5 -21t59 -23.5t38.5 -31.5t14 -44q0 -27 -5 -55.5t-15 -55t-23 -48t-29 -33.5q-52 -42 -121 -78.5t-144.5 -62.5t-153 -41t-148.5 -15q-69 0 -134 20.5t-114.5 63.5t-80 110.5t-30.5 161.5
q0 41 8.5 97t30 116t57 119.5t89.5 109.5q29 25 43 25q6 0 6 -8t-5.5 -23.5t-22.5 -37.5q-30 -42 -50.5 -85.5t-33.5 -83t-18 -73t-5 -55.5q0 -52 19 -95.5t59 -77t101.5 -52t146.5 -18.5q48 0 107 11t116 26t107 32.5t83 32.5v4q-31 9 -65.5 18.5t-66.5 18t-58.5 17
t-41.5 15.5q-31 13 -48 30.5t-17 48.5q0 14 7.5 42t23 62.5t37.5 71.5t51 67q47 49 120.5 79t169.5 30h238q64 0 110.5 2t76.5 8t43.5 15.5t13.5 25.5q0 11 -5.5 36.5t-12.5 53t-14 53t-10 36.5q28 38 71 80t96 89q24 -74 28.5 -124.5t4.5 -70.5t-1 -39t-4.5 -39t-9.5 -42.5
t-16 -51.5q28 -16 55 -22.5t55 -6.5q12 0 21.5 3.5t24.5 15t38.5 33t62.5 59.5q85 79 156 140t134 102t120.5 62.5t115.5 21.5q38 0 72 -10t64 -27.5t56 -41.5t49 -51q60 -75 82 -136t22 -116q0 -53 -10 -101t-24 -82q-13 -33 -35.5 -53t-51.5 -31.5t-64.5 -16.5t-75.5 -9
q-49 -5 -105 -7.5t-113.5 -3.5t-114 -1.5t-103.5 -0.5q-95 0 -177.5 1t-151.5 8.5t-124.5 22t-97.5 43.5q-26 -29 -90 -45t-171 -16h-114zM2364 839l-210 127q11 21 24.5 44.5t28.5 46.5t28 43t23 33q21 -12 49 -29t56.5 -35.5t55.5 -36t49 -31.5q-9 -17 -21.5 -38.5
t-27 -44t-29 -43.5t-26.5 -36z" />
    <glyph glyph-name="uniFD29" unicode="&#xfeb8;&#xfeae;" horiz-adv-x="2181" arabic-form="final" 
d="M761 0q-3 -23 -6 -48q-12 -70 -35.5 -140.5t-58 -135.5t-80 -115.5t-102.5 -81t-125 -30.5q-47 0 -92 21t-86 55t-75.5 75.5t-57.5 82.5q-43 75 -43 92q0 8 10 8q7 0 17 -7q145 -90 246 -90q71 0 132 25t109.5 69t85.5 102.5t61 125.5q-22 55 -69.5 113t-117.5 116
q20 54 49.5 112t62.5 108q51 -44 86 -84.5t56 -83.5q12 -26 21 -56q10 1 22 1h140q30 0 69.5 0.5t76.5 2t67 5.5t40 12q23 16 34 60t19 126q47 36 93.5 70t93.5 65q-3 -45 -10.5 -91t-19.5 -88t-28.5 -79t-37.5 -64q37 -10 91 -14.5t110 -4.5q34 0 57 6t36.5 17.5t18.5 29
t5 40.5t-4 52.5t-9 64.5q85 80 168 148q2 -20 4 -43t2 -48q0 -56 -8.5 -115.5t-27.5 -110.5q10 -9 32 -18t50 -16.5t59 -11.5t59 -4q39 0 66 10.5t27 35.5q0 13 -6.5 34.5t-16 46.5t-22.5 50.5t-26 47.5q33 46 67.5 89t71.5 87q13 -19 26 -64.5t23.5 -105t17 -125.5
t6.5 -127q0 -62 -8 -110.5t-26 -68.5q-13 -13 -46.5 -19t-74.5 -6q-99 0 -192.5 16.5t-182.5 57.5q-49 -43 -99.5 -58.5t-115.5 -15.5q-36 0 -66.5 3.5t-59.5 9.5t-59 14t-65 19q-24 -16 -49 -25t-58 -13.5t-76.5 -6t-104.5 -1.5h-141zM1664 957q-46 28 -90 54t-87 51
q18 35 39 69.5t47 65.5l177 -107q-5 -8 -13.5 -23.5t-20.5 -34.5t-25 -38.5t-27 -36.5zM1620 702q-46 28 -93 56t-93 56q22 39 41.5 72.5t44.5 67.5q44 -26 86.5 -51t90.5 -54q19 32 37.5 61.5t36.5 55.5q42 -25 89 -54.5t91 -60.5q-10 -18 -22.5 -37.5t-24.5 -38t-23 -34
t-17 -24.5q-41 26 -82.5 52t-82.5 51q-20 -27 -39 -57t-40 -61z" />
    <glyph glyph-name="uniFD2A" unicode="&#xfeb4;&#xfeae;" horiz-adv-x="2181" arabic-form="final" 
d="M761 0q-3 -23 -6 -48q-12 -70 -35.5 -140.5t-58 -135.5t-80 -115.5t-102.5 -81t-125 -30.5q-47 0 -92 21t-86 55t-75.5 75.5t-57.5 82.5q-43 75 -43 92q0 8 10 8q7 0 17 -7q145 -90 246 -90q71 0 132 25t109.5 69t85.5 102.5t61 125.5q-22 55 -69.5 113t-117.5 116
q20 54 49.5 112t62.5 108q51 -44 86 -84.5t56 -83.5q12 -26 21 -56q10 1 22 1h140q30 0 69.5 0.5t76.5 2t67 5.5t40 12q23 16 34 60t19 126q47 36 93.5 70t93.5 65q-3 -45 -10.5 -91t-19.5 -88t-28.5 -79t-37.5 -64q37 -10 91 -14.5t110 -4.5q34 0 57 6t36.5 17.5t18.5 29
t5 40.5t-4 52.5t-9 64.5q85 80 168 148q2 -20 4 -43t2 -48q0 -56 -8.5 -115.5t-27.5 -110.5q10 -9 32 -18t50 -16.5t59 -11.5t59 -4q39 0 66 10.5t27 35.5q0 13 -6.5 34.5t-16 46.5t-22.5 50.5t-26 47.5q33 46 67.5 89t71.5 87q13 -19 26 -64.5t23.5 -105t17 -125.5
t6.5 -127q0 -62 -8 -110.5t-26 -68.5q-13 -13 -46.5 -19t-74.5 -6q-99 0 -192.5 16.5t-182.5 57.5q-49 -43 -99.5 -58.5t-115.5 -15.5q-36 0 -66.5 3.5t-59.5 9.5t-59 14t-65 19q-24 -16 -49 -25t-58 -13.5t-76.5 -6t-104.5 -1.5h-141z" />
    <glyph glyph-name="uniFD2B" unicode="&#xfebc;&#xfeae;" horiz-adv-x="2382" arabic-form="final" 
d="M1563 226q48 -2 96.5 -3.5t94 -2.5t86 -1.5t72.5 -0.5q28 0 63.5 0.5t72.5 2t73.5 3.5t65 5.5t46 7.5t17.5 10q0 10 -7 26.5t-20 36t-32 40.5t-43 40q-18 14 -35.5 26.5t-38.5 21.5t-46 14.5t-56 5.5q-26 0 -60 -7.5t-81.5 -31t-112.5 -68t-155 -121.5v-4zM761 0
q-3 -23 -6 -48q-12 -70 -35.5 -140.5t-58 -135.5t-80 -115.5t-102.5 -81t-125 -30.5q-47 0 -92 21t-86 55t-75.5 75.5t-57.5 82.5q-43 75 -43 92q0 8 10 8q7 0 17 -7q145 -90 246 -90q71 0 132 25t109.5 69t85.5 102.5t61 125.5q-22 55 -69.5 113t-117.5 116q20 54 49.5 112
t62.5 108q51 -44 86 -84.5t56 -83.5q12 -26 21 -55h140q65 0 111 2t76 8t43.5 15.5t13.5 25.5q0 11 -5 36.5t-12.5 53t-14.5 53t-10 36.5q29 38 72 80t95 89q25 -74 29 -124.5t4 -70.5t-0.5 -39t-4 -39t-10 -42.5t-16.5 -51.5q29 -16 55.5 -22.5t55.5 -6.5q11 0 21 3.5
t24.5 15t38 33t62.5 59.5q85 79 156 140t134 102t121 62.5t115 21.5q38 0 72.5 -10t64 -27.5t56 -41.5t48.5 -51q61 -75 83 -136t22 -116q0 -53 -10.5 -101t-23.5 -82q-14 -33 -36.5 -53t-51.5 -31.5t-64.5 -16.5t-75.5 -9q-49 -5 -105 -7.5t-113.5 -3.5t-113.5 -1.5
t-103 -0.5q-96 0 -178.5 1t-151.5 8.5t-124.5 22t-97.5 43.5q-25 -29 -89.5 -45t-170.5 -16h-119z" />
    <glyph glyph-name="uniFD2C" unicode="&#xfec0;&#xfeae;" horiz-adv-x="2382" arabic-form="final" 
d="M1563 226q48 -2 96.5 -3.5t94 -2.5t86 -1.5t72.5 -0.5q28 0 63.5 0.5t72.5 2t73.5 3.5t65 5.5t46 7.5t17.5 10q0 10 -7 26.5t-20 36t-32 40.5t-43 40q-18 14 -35.5 26.5t-38.5 21.5t-46 14.5t-56 5.5q-26 0 -60 -7.5t-81.5 -31t-112.5 -68t-155 -121.5v-4zM761 0
q-3 -23 -6 -48q-12 -70 -35.5 -140.5t-58 -135.5t-80 -115.5t-102.5 -81t-125 -30.5q-47 0 -92 21t-86 55t-75.5 75.5t-57.5 82.5q-43 75 -43 92q0 8 10 8q7 0 17 -7q145 -90 246 -90q71 0 132 25t109.5 69t85.5 102.5t61 125.5q-22 55 -69.5 113t-117.5 116q20 54 49.5 112
t62.5 108q51 -44 86 -84.5t56 -83.5q12 -26 21 -55h140q65 0 111 2t76 8t43.5 15.5t13.5 25.5q0 11 -5 36.5t-12.5 53t-14.5 53t-10 36.5q29 38 72 80t95 89q25 -74 29 -124.5t4 -70.5t-0.5 -39t-4 -39t-10 -42.5t-16.5 -51.5q29 -16 55.5 -22.5t55.5 -6.5q11 0 21 3.5
t24.5 15t38 33t62.5 59.5q85 79 156 140t134 102t121 62.5t115 21.5q38 0 72.5 -10t64 -27.5t56 -41.5t48.5 -51q61 -75 83 -136t22 -116q0 -53 -10.5 -101t-23.5 -82q-14 -33 -36.5 -53t-51.5 -31.5t-64.5 -16.5t-75.5 -9q-49 -5 -105 -7.5t-113.5 -3.5t-113.5 -1.5
t-103 -0.5q-96 0 -178.5 1t-151.5 8.5t-124.5 22t-97.5 43.5q-25 -29 -89.5 -45t-170.5 -16h-119zM1985 839l-210 127q10 21 24 44.5t28.5 46.5t27.5 43t23 33q22 -12 49.5 -29t56 -35.5t56 -36t48.5 -31.5q-9 -17 -21.5 -38.5t-26.5 -44t-29 -43.5t-26 -36z" />
    <glyph glyph-name="uniFEF5" unicode="&#xfedf;&#xfe82;" horiz-adv-x="1056" arabic-form="isolated" 
d="M940 1141q1 -37 3 -89t3.5 -106.5t2.5 -103t1 -78.5q0 -92 -5.5 -166t-19.5 -135.5t-38 -113t-59 -101.5q16 -23 30.5 -53t26 -60t17.5 -57.5t6 -47.5q0 -10 -3 -34t-9.5 -53t-19 -57t-30.5 -46q-25 -12 -60 -20.5t-75.5 -13.5t-82.5 -7.5t-79 -2.5q-60 0 -113 5.5
t-84 12.5q-4 9 -5.5 26t-1.5 40q0 25 2 53.5t4.5 52.5t5.5 39.5t6 15.5q33 7 70.5 25t76.5 44.5t78.5 60t77.5 73.5l3 3q-98 124 -182.5 206t-150.5 137l-33 -49q-32 23 -70.5 49.5t-71.5 56t-55.5 63.5t-22.5 72q0 25 12.5 57.5t30 63.5t36 57.5t31.5 41.5q63 -52 137 -127
t149.5 -162.5t147.5 -182.5t132 -184q12 28 19 72t7 101q0 60 -3.5 125t-8 126t-9 114t-7.5 89q49 54 95.5 98.5t87.5 69.5zM552 12q24 1 62.5 2t76 3.5t67 8.5t37.5 17q0 7 -13 41t-50 85q-17 -22 -42.5 -44.5t-51.5 -43.5t-50 -38.5t-38 -25.5zM562 1345q-13 -46 -34 -83
t-52 -63.5t-74.5 -41t-101.5 -14.5q-14 0 -32.5 1.5t-31.5 1.5q-50 0 -86 -20t-53 -67l-2 -1q-17 9 -26.5 30.5t-9.5 42.5q0 34 12 61t32.5 46t47.5 30t56 11q31 0 62.5 -4.5t62.5 -4.5t61 4.5t57 16t49 33t36 56.5z" />
    <glyph glyph-name="uniFEF6" unicode="&#xfee0;&#xfe82;" horiz-adv-x="1080" arabic-form="final" 
d="M1080 0h-31q-63 0 -102.5 36.5t-61.5 101.5q-55 -130 -133 -191.5t-193 -61.5q-40 0 -85 11t-93 28t-97 37.5t-94 38.5q-2 6 -1.5 11.5t5.5 9.5q77 13 150 27t136 30.5t113.5 36t83.5 42.5q5 5 7 10t2 10q0 17 -15 49t-41 71t-59.5 82t-69.5 84t-72.5 77t-68.5 60
l-39 -44q-80 52 -123.5 89.5t-64 64.5t-24 46t-3.5 34q0 35 17 71t38.5 67t42.5 54t29 33q51 -49 107.5 -106.5t113.5 -121t110.5 -132.5t97.5 -142.5t76.5 -149t46.5 -152.5h2q34 31 49.5 60t15.5 70q0 30 -4 77.5t-11 104t-15.5 118.5t-15.5 122t-13 114t-7 95
q49 53 95 94.5t81 64.5q3 -70 6 -147t6.5 -154t7 -150.5t6 -136t5 -110.5t3.5 -75q2 -42 7 -66.5t15.5 -37t25.5 -16.5t36 -4v-234zM548 1323q-13 -46 -34 -83t-52 -63.5t-74.5 -41t-101.5 -14.5q-14 0 -32.5 1.5t-31.5 1.5q-50 0 -86 -20t-53 -67l-2 -1q-17 8 -26.5 29.5
t-9.5 43.5q0 33 12 60.5t32.5 46.5t47.5 29.5t56 10.5q31 0 62.5 -4t62.5 -4t61 4t57 16t49 33.5t36 56.5z" />
    <glyph glyph-name="uniFEF7" unicode="&#xfedf;&#xfe84;" horiz-adv-x="1056" arabic-form="isolated" 
d="M939 1141q2 -37 4 -89t3.5 -106.5t2.5 -103t1 -78.5q0 -92 -6 -166t-19.5 -135.5t-37.5 -113t-59 -101.5q15 -23 30 -53t26 -60t17.5 -57.5t6.5 -47.5q0 -10 -3 -34t-10 -53t-19 -57t-31 -46q-24 -12 -59 -20.5t-75.5 -13.5t-82.5 -7.5t-79 -2.5q-60 0 -113 5.5t-85 12.5
q-3 9 -4.5 26t-1.5 40q0 25 1.5 53.5t4 52.5t5.5 39.5t6 15.5q33 7 71 25t77 44.5t78.5 60t77.5 73.5l3 3q-99 124 -183.5 206t-149.5 137l-33 -49q-33 23 -71.5 49.5t-71 56t-55 63.5t-22.5 72q0 25 12 57.5t30 63.5t36.5 57.5t30.5 41.5q64 -52 137.5 -127t149 -162.5
t148 -182.5t131.5 -184q12 28 19.5 72t7.5 101q0 60 -3.5 125t-8.5 126t-9.5 114t-6.5 89q48 54 94.5 98.5t87.5 69.5zM552 12q24 1 62.5 2t75.5 3.5t67 8.5t38 17q0 7 -13.5 41t-50.5 85q-16 -22 -41.5 -44.5t-52 -43.5t-50.5 -38.5t-37 -25.5zM369 1238q-9 -39 -19 -73
t-17 -51q-66 -20 -113.5 -34.5t-84 -30t-65 -33.5t-54.5 -46q-1 13 -2 25t-1 23q0 31 9.5 56.5t33.5 40.5q-27 19 -41.5 41t-14.5 52q0 31 16.5 62.5t44.5 58t65 43t78 16.5q34 0 60 -16t26 -47q0 -21 -12 -38.5t-35 -28.5q-20 20 -44.5 32t-42.5 12q-27 0 -42.5 -12.5
t-15.5 -25.5q0 -15 9.5 -30t24 -25.5t31.5 -17.5t31 -7q10 0 28 4.5t41 12t50.5 17t55.5 20.5z" />
    <glyph glyph-name="uniFEF8" unicode="&#xfee0;&#xfe84;" horiz-adv-x="1080" arabic-form="final" 
d="M1080 0h-30q-63 0 -102.5 36.5t-62.5 101.5q-55 -130 -133 -191.5t-192 -61.5q-40 0 -85.5 11t-93 28t-96.5 37.5t-94 38.5q-2 6 -1.5 11.5t5.5 9.5q77 13 150 27t135.5 30.5t113.5 36t83 42.5q6 5 8 10t2 10q0 17 -15 49t-41 71t-59.5 82t-70 84t-73 77t-67.5 60
l-39 -44q-80 52 -123.5 89.5t-64 64.5t-24 46t-3.5 34q0 35 16.5 71t38 67t42.5 54t30 33q51 -49 107.5 -106.5t113 -121t110.5 -132.5t97.5 -142.5t76.5 -149t47 -152.5h2q34 31 49.5 60t15.5 70q0 30 -4.5 77.5t-11.5 104t-15 118.5t-15.5 122t-13 114t-6.5 95
q48 53 94.5 94.5t80.5 64.5q3 -70 6.5 -147l7 -154t7 -150.5t6 -136t4.5 -110.5t3 -75q2 -42 7.5 -66.5t16 -37t25.5 -16.5t35 -4v-234zM399 1238q-9 -39 -19 -73t-17 -51q-66 -20 -113.5 -34.5t-84 -30t-65 -33.5t-54.5 -46q-1 13 -2 25t-1 23q0 31 9.5 56.5t33.5 40.5
q-27 19 -41.5 41t-14.5 52q0 31 16.5 62.5t44.5 58t65 43t78 16.5q34 0 60 -16t26 -47q0 -21 -12 -38.5t-35 -28.5q-20 20 -44.5 32t-42.5 12q-27 0 -42.5 -12.5t-15.5 -25.5q0 -15 9.5 -30t24 -25.5t31.5 -17.5t31 -7q10 0 28 4.5t41 12t50.5 17t55.5 20.5z" />
    <glyph glyph-name="uniFEF9" unicode="&#xfedf;&#xfe88;" horiz-adv-x="1056" arabic-form="isolated" 
d="M939 1141q2 -37 4 -89t3.5 -106.5t2.5 -103t1 -78.5q0 -92 -6 -166t-19.5 -135.5t-37.5 -113t-59 -101.5q15 -23 30 -53t26 -60t17.5 -57.5t6.5 -47.5q0 -10 -3 -34t-10 -53t-19 -57t-31 -46q-24 -12 -59 -20.5t-75.5 -13.5t-82.5 -7.5t-79 -2.5q-60 0 -113 5.5t-85 12.5
q-3 9 -4.5 26t-1.5 40q0 25 2 53.5t4 52.5t5 39.5t6 15.5q33 7 71 25t77 44.5t78.5 60t77.5 73.5l3 3q-99 124 -183.5 206t-149.5 137l-33 -49q-33 23 -71.5 49.5t-71 56t-55 63.5t-22.5 72q0 25 12 57.5t30 63.5t36.5 57.5t30.5 41.5q64 -52 137.5 -127t149 -162.5
t148 -182.5t132.5 -184q11 28 18.5 72t7.5 101q0 60 -3.5 125t-8.5 126t-9.5 114t-6.5 89q48 54 94.5 98.5t87.5 69.5zM552 12q24 1 62.5 2t75.5 3.5t67 8.5t38 17q0 7 -13.5 41t-50.5 85q-16 -22 -41.5 -44.5t-52 -43.5t-50.5 -38.5t-37 -25.5zM616 -471q-9 -39 -19 -72.5
t-17 -50.5q-66 -20 -113.5 -34.5t-84 -30.5t-65 -34t-54.5 -45q-1 13 -2 25t-1 23q0 31 9.5 56.5t33.5 39.5q-27 20 -41.5 42t-14.5 52t16.5 62t44.5 58.5t65 43t78 16.5q34 0 60 -16t26 -48q0 -20 -12 -37.5t-35 -28.5q-20 20 -44.5 32t-42.5 12q-27 0 -42.5 -12.5
t-15.5 -25.5q0 -16 9.5 -30.5t24 -25.5t31.5 -17.5t31 -6.5q10 0 28 4.5t41 12t50.5 17t55.5 19.5z" />
    <glyph glyph-name="uniFEFA" unicode="&#xfee0;&#xfe88;" horiz-adv-x="1080" arabic-form="final" 
d="M1080 0h-30q-63 0 -103 36.5t-62 101.5q-55 -130 -133 -191.5t-192 -61.5q-40 0 -85.5 11t-93.5 28t-96.5 37.5t-93.5 38.5q-2 6 -1.5 11.5t5.5 9.5q77 13 149.5 27t135.5 30.5t114 36t83 42.5q6 5 8 10t2 10q0 17 -15 49t-41 71t-60 82t-70 84t-72.5 77t-67.5 60
l-39 -44q-80 52 -123.5 89.5t-64 64.5t-24 46t-3.5 34q0 35 16.5 71t38 67t42.5 54t30 33q51 -49 107.5 -106.5t113 -121t110.5 -132.5t97.5 -142.5t76.5 -149t46 -152.5h2q35 31 50.5 60t15.5 70q0 30 -4.5 77.5t-11.5 104t-15 118.5t-15.5 122t-13.5 114t-7 95
q49 53 95.5 94.5t80.5 64.5q3 -70 6.5 -147l7 -154t7 -150.5t5.5 -136t4.5 -110.5t3.5 -75q2 -42 7.5 -66.5t15.5 -37t25.5 -16.5t35.5 -4v-234zM661 -405q-8 -39 -18.5 -73t-17.5 -51q-65 -20 -113 -34.5t-84.5 -30t-65 -33.5t-54.5 -46q-1 13 -2 25.5t-1 22.5
q0 31 10 56.5t33 40.5q-26 19 -41 41t-15 53q0 30 17 61.5t44.5 58t64.5 43t78 16.5q35 0 60.5 -16t25.5 -47q0 -21 -11.5 -38.5t-34.5 -28.5q-21 20 -45.5 32t-41.5 12q-28 0 -43.5 -12.5t-15.5 -25.5q0 -15 10 -30t24.5 -25.5t31 -17.5t31.5 -7q9 0 27.5 4.5t41 12.5
t50 17t55.5 20z" />
    <glyph glyph-name="uniFEFB" unicode="&#xfedf;&#xfe8e;" horiz-adv-x="1056" arabic-form="isolated" 
d="M939 1141q2 -37 4 -89t3.5 -106.5t2.5 -103t1 -78.5q0 -92 -6 -166t-19.5 -135.5t-37.5 -113t-59 -101.5q15 -23 30 -53t26 -60t17.5 -57.5t6.5 -47.5q0 -10 -3 -34t-10 -53t-19 -57t-31 -46q-24 -12 -59 -20.5t-75.5 -13.5t-82.5 -7.5t-79 -2.5q-60 0 -113 5.5t-85 12.5
q-3 9 -4.5 26t-1.5 40q0 25 2 53.5t4 52.5t5 39.5t6 15.5q33 7 71 25t77 44.5t78.5 60t77.5 73.5l3 3q-99 124 -183.5 206t-149.5 137l-33 -49q-33 23 -71.5 49.5t-71 56t-55 63.5t-22.5 72q0 25 12 57.5t30 63.5t36.5 57.5t30.5 41.5q64 -52 137.5 -127t149 -162.5
t148 -182.5t132.5 -184q11 28 18.5 72t7.5 101q0 60 -3.5 125t-8.5 126t-9.5 114t-6.5 89q48 54 94.5 98.5t87.5 69.5zM552 12q24 1 62.5 2t75.5 3.5t67 8.5t38 17q0 7 -13.5 41t-50.5 85q-16 -22 -41.5 -44.5t-52 -43.5t-50.5 -38.5t-37 -25.5z" />
    <glyph glyph-name="uniFEFC" unicode="&#xfee0;&#xfe8e;" horiz-adv-x="1080" arabic-form="final" 
d="M1080 0h-30q-63 0 -103 36.5t-62 101.5q-55 -130 -133 -191.5t-192 -61.5q-40 0 -85.5 11t-93.5 28t-96.5 37.5t-93.5 38.5q-2 6 -1.5 11.5t5.5 9.5q77 13 149.5 27t135.5 30.5t114 36t83 42.5q6 5 8 10t2 10q0 17 -15 49t-41 71t-60 82t-70 84t-72.5 77t-67.5 60
l-39 -44q-80 52 -123.5 89.5t-64 64.5t-24 46t-3.5 34q0 35 16.5 71t38 67t42.5 54t30 33q51 -49 107.5 -106.5t113 -121t110.5 -132.5t97.5 -142.5t76.5 -149t46 -152.5h2q35 31 50.5 60t15.5 70q0 30 -4.5 77.5t-11.5 104t-15 118.5t-15.5 122t-13.5 114t-7 95
q49 53 95.5 94.5t80.5 64.5q3 -70 6.5 -147l7 -154t7 -150.5t5.5 -136t4.5 -110.5t3.5 -75q2 -42 7.5 -66.5t15.5 -37t25.5 -16.5t35.5 -4v-234z" />
    <glyph glyph-name="uniFE8B_uniFEE4.liga" unicode="&#xfe8b;&#xfee4;" horiz-adv-x="1639" 
d="M491 315q39 -38 87.5 -62t95 -37.5t86 -18.5t61.5 -5q6 0 6 6t-4.5 25t-15 44.5t-26 53t-37 51t-48.5 39t-60 15.5q-19 0 -39 -8.5t-39.5 -23.5t-37 -35t-29.5 -44zM918 2q-39 -38 -123 -38q-37 0 -91 8t-113 25.5t-114.5 45t-95.5 67.5q-28 -41 -57 -63.5t-62 -32.5
t-72.5 -12t-89.5 -2h-99q-30 0 -46.5 1.5t-24.5 5.5q-20 9 -26.5 36t-6.5 74q0 91 20 105q8 4 27 8t57 4h66q85 0 138.5 4t90 20t62 47.5t53.5 86.5q25 49 51.5 92.5t57 76t67.5 51.5t84 19q51 0 92 -27.5t73 -71t56 -98t40 -109.5q13 -48 20 -91q12 0 32 -1q24 -1 53 -2
t60.5 -3t60.5 -2.5t51.5 -1.5t34.5 -1q42 0 79 1.5t69 6.5q0 22 -9.5 49t-25.5 56.5t-37.5 58.5t-45.5 53q47 96 122 215q49 -54 80.5 -117.5t49.5 -131t24.5 -137t6.5 -134.5q0 -46 -7.5 -77t-27 -48.5t-52.5 -24.5t-81 -7q-59 0 -127 2t-130.5 4.5t-112 5t-72.5 2.5
q-15 1 -29 2zM1086 687q-1 20 -1 27v17q0 21 2 36.5t8 28.5q7 13 15.5 22t21.5 19q-31 22 -50 45t-19 60q0 27 18 59.5t47 60t66.5 46.5t77.5 19q38 0 64 -18.5t26 -48.5q0 -16 -10 -35t-40 -33q-43 38 -84 38q-11 0 -23 -2.5t-22 -7.5t-16.5 -12.5t-6.5 -18.5t10.5 -25
t25.5 -27.5t33 -22.5t35 -9q11 0 33 6.5t48.5 15t55.5 19t54 17.5q-21 -78 -37 -120q-69 -21 -119 -38t-87.5 -34.5t-67 -37t-56.5 -47.5z" />
    <glyph glyph-name="uniFE8B_uniFEF0.liga" unicode="&#xfe8b;&#xfef0;" horiz-adv-x="1836" 
d="M1145 0q-23 0 -50 1t-53.5 2.5t-50 3t-39.5 1.5q-38 0 -68 -5t-50.5 -12t-31 -14.5t-10.5 -13.5q0 -5 7.5 -10t21.5 -10t32 -10t38 -10q42 -11 76.5 -21t59 -23.5t38.5 -31.5t14 -44q0 -27 -5 -55.5t-15 -55t-23 -48t-29 -33.5q-52 -42 -121 -78.5t-144.5 -62.5t-153 -41
t-148.5 -15q-69 0 -134 20.5t-114.5 63.5t-80 110.5t-30.5 161.5q0 41 8.5 97t30 116t57 119.5t89.5 109.5q29 25 43 25q6 0 6 -8t-5.5 -23.5t-22.5 -37.5q-30 -42 -50.5 -85.5t-33.5 -83t-18 -73t-5 -55.5q0 -52 19 -95.5t59 -77t101.5 -52t146.5 -18.5q48 0 107 11t116 26
t107 32.5t83 32.5v4q-31 9 -65.5 18.5t-66.5 18t-58.5 17t-41.5 15.5q-31 13 -48 30.5t-17 48.5q0 14 7.5 42t23 62.5t37.5 71.5t51 67q47 49 120.5 79t169.5 30h120q13 0 36.5 -1t53 -2t60.5 -3t60 -2.5t52 -1.5t35 -1q42 0 79 1.5t69 6.5q0 22 -10 49t-26 56.5t-37.5 58.5
t-44.5 53q47 96 122 215q49 -54 80 -117.5t49 -131t25 -137t7 -134.5q0 -46 -8 -77t-27.5 -48.5t-52 -24.5t-81.5 -7q-58 0 -126 2t-130.5 4.5t-112.5 5t-72 2.5h-6zM1289 687v27v17q0 21 1.5 36.5t7.5 28.5q7 13 16 22t21 19q-31 22 -50 45t-19 60q0 27 18 59.5t47.5 60
t67 46.5t77.5 19q37 0 63.5 -18.5t26.5 -48.5q0 -16 -10.5 -35t-39.5 -33q-43 38 -84 38q-12 0 -23.5 -2.5t-22 -7.5t-16.5 -12.5t-6 -18.5t10 -25t25 -27.5t33.5 -22.5t34.5 -9q12 0 34 6.5t48.5 15t55 19t53.5 17.5q-20 -78 -37 -120q-69 -21 -118.5 -38t-87.5 -34.5
t-67 -37t-57 -47.5z" />
    <glyph glyph-name="uniFE8B_uniFEF2.liga" unicode="&#xfe8b;&#xfef2;" horiz-adv-x="1836" 
d="M409 -954l-200 121q10 19 21 39.5t22.5 40.5t22.5 38.5t22 33.5q49 -26 96 -55t94 -61l70 121q59 -32 109 -62t88 -56q-23 -39 -44.5 -76t-45.5 -72q-23 13 -47 28t-48 29.5t-46 29t-40 25.5q-18 -32 -36.5 -63.5t-37.5 -60.5zM1145 0q-23 0 -50 1t-53.5 2.5t-50 3
t-39.5 1.5q-38 0 -68 -5t-50.5 -12t-31 -14.5t-10.5 -13.5q0 -5 7.5 -10t21.5 -10t32 -10t38 -10q42 -11 76.5 -21t59 -23.5t38.5 -31.5t14 -44q0 -27 -5 -55.5t-15 -55t-23 -48t-29 -33.5q-52 -42 -121 -78.5t-144.5 -62.5t-153 -41t-148.5 -15q-69 0 -134 20.5
t-114.5 63.5t-80 110.5t-30.5 161.5q0 41 8.5 97t30 116t57 119.5t89.5 109.5q29 25 43 25q6 0 6 -8t-5.5 -23.5t-22.5 -37.5q-30 -42 -50.5 -85.5t-33.5 -83t-18 -73t-5 -55.5q0 -52 19 -95.5t59 -77t101.5 -52t146.5 -18.5q48 0 107 11t116 26t107 32.5t83 32.5v4
q-31 9 -65.5 18.5t-66.5 18t-58.5 17t-41.5 15.5q-31 13 -48 30.5t-17 48.5q0 14 7.5 42t23 62.5t37.5 71.5t51 67q47 49 120.5 79t169.5 30h120q13 0 36.5 -1t53 -2t60.5 -3t60 -2.5t52 -1.5t35 -1q42 0 79 1.5t69 6.5q0 22 -10 49t-26 56.5t-37.5 58.5t-44.5 53
q47 96 122 215q49 -54 80 -117.5t49 -131t25 -137t7 -134.5q0 -46 -8 -77t-27.5 -48.5t-52 -24.5t-81.5 -7q-58 0 -126 2t-130.5 4.5t-112.5 5t-72 2.5h-6zM1289 687v27v17q0 21 1.5 36.5t7.5 28.5q7 13 16 22t21 19q-31 22 -50 45t-19 60q0 27 18 59.5t47.5 60t67 46.5
t77.5 19q37 0 63.5 -18.5t26.5 -48.5q0 -16 -10.5 -35t-39.5 -33q-43 38 -84 38q-12 0 -23.5 -2.5t-22 -7.5t-16.5 -12.5t-6 -18.5t10 -25t25 -27.5t33.5 -22.5t34.5 -9q12 0 34 6.5t48.5 15t55 19t53.5 17.5q-20 -78 -37 -120q-69 -21 -118.5 -38t-87.5 -34.5t-67 -37
t-57 -47.5z" />
    <glyph glyph-name="uniFE91_uniFEE4.liga" unicode="&#xfe91;&#xfee4;" horiz-adv-x="1643" 
d="M1328 -512l-210 127q11 21 24.5 44.5t28.5 46.5t28 43t23 33q21 -12 49 -29t56 -35.5t55.5 -36l49.5 -31.5q-9 -17 -22 -38.5t-27 -44t-28.5 -43.5t-26.5 -36zM491 315q39 -38 87.5 -62t95 -37.5t86 -18.5t61.5 -5q6 0 6 6t-4.5 25t-15 44.5t-26 53t-37 51t-48.5 39
t-60 15.5q-19 0 -39 -8.5t-39.5 -23.5t-37 -35t-29.5 -44zM918 2q-39 -38 -123 -38q-37 0 -91 8t-113 25.5t-114.5 45t-95.5 67.5q-28 -41 -57 -63.5t-62 -32.5t-72.5 -12t-89.5 -2h-99q-30 0 -46.5 1.5t-24.5 5.5q-20 9 -26.5 36t-6.5 74q0 91 20 105q8 4 27 8t57 4h66
q85 0 138.5 4t90 20t62 47.5t53.5 86.5q25 49 51.5 92.5t57 76t67.5 51.5t84 19q51 0 92 -27.5t73 -71t56 -98t40 -109.5q13 -48 20 -91q12 0 32 -1q24 -1 53 -2t60.5 -3t60.5 -2.5t51.5 -1.5t34.5 -1q42 0 79 1.5t69 6.5q0 22 -9.5 49t-25.5 56.5t-37.5 58.5t-45.5 53
q47 96 122 215q49 -54 80.5 -117.5t49.5 -131t24.5 -137t6.5 -134.5q0 -46 -7.5 -77t-27 -48.5t-52.5 -24.5t-81 -7q-59 0 -127 2t-130.5 4.5t-112 5t-72.5 2.5q-15 1 -29 2z" />
    <glyph glyph-name="uniFE92_uniFEE6.liga" unicode="&#xfe92;&#xfee6;" horiz-adv-x="1639" 
d="M635 613l-223 136q11 21 25.5 45.5t30.5 49t30 46t24 35.5q23 -13 52 -31t59 -37.5t59.5 -38.5t51.5 -33q-8 -19 -22 -42t-29 -46t-30 -45t-28 -39zM1415 -512l-210 127q11 21 24.5 44.5t28 46.5t28 43t23.5 33q21 -12 49 -29t56 -35.5t55.5 -36t48.5 -31.5
q-8 -17 -21 -38.5t-27 -44t-28.5 -43.5t-26.5 -36zM1045 0q-2 -19 -5 -35q-9 -59 -23.5 -106t-33.5 -83.5t-40 -62.5q-32 -38 -86.5 -73.5t-120.5 -63.5t-136.5 -45t-133.5 -17q-97 0 -172.5 26.5t-126.5 75t-77.5 119.5t-26.5 160q0 51 9.5 105t26 105.5t39.5 98.5t50 85
q23 34 41.5 50t29.5 16q9 0 9 -10q0 -7 -7.5 -28t-25.5 -57q-14 -26 -25 -57t-20 -64.5t-14 -65.5t-5 -57q0 -63 21.5 -111t61 -81t95 -50t122.5 -17q60 0 121.5 10t120 30t111.5 50.5t96 71.5q0 47 -7.5 99.5t-25 106t-47 106t-73.5 101.5q37 66 70.5 121.5t64.5 99.5
q73 -89 110 -209q16 -54 25 -110q13 0 34 -1q24 -1 53 -2t60.5 -3t60 -2.5t51.5 -1.5t35 -1q42 0 79 1.5t69 6.5q0 22 -9.5 49t-25.5 56.5t-37.5 58.5t-45.5 53q47 96 122 215q49 -54 80.5 -117.5t49.5 -131t24.5 -137t6.5 -134.5q0 -46 -7.5 -77t-27 -48.5t-52.5 -24.5
t-81 -7q-59 0 -127 2t-130.5 4.5t-111.5 5.5q-40 1 -62 2z" />
    <glyph glyph-name="uniFE91_uniFEF0.liga" unicode="&#xfe91;&#xfef0;" horiz-adv-x="1848" 
d="M1145 0q-23 0 -50 1t-53.5 2.5t-50 3t-39.5 1.5q-38 0 -68 -5t-50.5 -12t-31 -14.5t-10.5 -13.5q0 -5 7.5 -10t21.5 -10t32 -10t38 -10q42 -11 76.5 -21t59 -23.5t38.5 -31.5t14 -44q0 -27 -5 -55.5t-15 -55t-23 -48t-29 -33.5q-52 -42 -121 -78.5t-144.5 -62.5t-153 -41
t-148.5 -15q-69 0 -134 20.5t-114.5 63.5t-80 110.5t-30.5 161.5q0 41 8.5 97t30 116t57 119.5t89.5 109.5q29 25 43 25q6 0 6 -8t-5.5 -23.5t-22.5 -37.5q-30 -42 -50.5 -85.5t-33.5 -83t-18 -73t-5 -55.5q0 -52 19 -95.5t59 -77t101.5 -52t146.5 -18.5q48 0 107 11t116 26
t107 32.5t83 32.5v4q-31 9 -65.5 18.5t-66.5 18t-58.5 17t-41.5 15.5q-31 13 -48 30.5t-17 48.5q0 14 7.5 42t23 62.5t37.5 71.5t51 67q47 49 120.5 79t169.5 30h120q13 0 36.5 -1t53 -2t60.5 -3t60 -2.5t52 -1.5t35 -1q42 0 79 1.5t69 6.5q0 22 -10 49t-26 56.5t-37.5 58.5
t-44.5 53q47 96 122 215q49 -54 80 -117.5t49 -131t25 -137t7 -134.5q0 -46 -8 -77t-27.5 -48.5t-52 -24.5t-81.5 -7q-58 0 -126 2t-130.5 4.5t-112.5 5t-72 2.5h-6zM1532 -512l-210 127q10 21 24 44.5t28.5 46.5t27.5 43t23 33q22 -12 49.5 -29t56 -35.5t56 -36t48.5 -31.5
q-9 -17 -21.5 -38.5t-26.5 -44t-29 -43.5t-26 -36z" />
    <glyph glyph-name="uniFE91_uniFEF2.liga" unicode="&#xfe91;&#xfef2;" horiz-adv-x="1848" 
d="M409 -954l-200 121q10 19 21 39.5t22.5 40.5t22.5 38.5t22 33.5q49 -26 96 -55t94 -61l70 121q59 -32 109 -62t88 -56q-23 -39 -44.5 -76t-45.5 -72q-23 13 -47 28t-48 29.5t-46 29t-40 25.5q-18 -32 -36.5 -63.5t-37.5 -60.5zM1145 0q-23 0 -50 1t-53.5 2.5t-50 3
t-39.5 1.5q-38 0 -68 -5t-50.5 -12t-31 -14.5t-10.5 -13.5q0 -5 7.5 -10t21.5 -10t32 -10t38 -10q42 -11 76.5 -21t59 -23.5t38.5 -31.5t14 -44q0 -27 -5 -55.5t-15 -55t-23 -48t-29 -33.5q-52 -42 -121 -78.5t-144.5 -62.5t-153 -41t-148.5 -15q-69 0 -134 20.5
t-114.5 63.5t-80 110.5t-30.5 161.5q0 41 8.5 97t30 116t57 119.5t89.5 109.5q29 25 43 25q6 0 6 -8t-5.5 -23.5t-22.5 -37.5q-30 -42 -50.5 -85.5t-33.5 -83t-18 -73t-5 -55.5q0 -52 19 -95.5t59 -77t101.5 -52t146.5 -18.5q48 0 107 11t116 26t107 32.5t83 32.5v4
q-31 9 -65.5 18.5t-66.5 18t-58.5 17t-41.5 15.5q-31 13 -48 30.5t-17 48.5q0 14 7.5 42t23 62.5t37.5 71.5t51 67q47 49 120.5 79t169.5 30h120q13 0 36.5 -1t53 -2t60.5 -3t60 -2.5t52 -1.5t35 -1q42 0 79 1.5t69 6.5q0 22 -10 49t-26 56.5t-37.5 58.5t-44.5 53
q47 96 122 215q49 -54 80 -117.5t49 -131t25 -137t7 -134.5q0 -46 -8 -77t-27.5 -48.5t-52 -24.5t-81.5 -7q-58 0 -126 2t-130.5 4.5t-112.5 5t-72 2.5h-6zM1532 -512l-210 127q10 21 24 44.5t28.5 46.5t27.5 43t23 33q22 -12 49.5 -29t56 -35.5t56 -36t48.5 -31.5
q-9 -17 -21.5 -38.5t-26.5 -44t-29 -43.5t-26 -36z" />
    <glyph glyph-name="uniFE97_uniFEE4.liga" unicode="&#xfe97;&#xfee4;" horiz-adv-x="1639" 
d="M491 315q39 -38 87.5 -62t95 -37.5t86 -18.5t61.5 -5q6 0 6 6t-4.5 25t-15 44.5t-26 53t-37 51t-48.5 39t-60 15.5q-19 0 -39 -8.5t-39.5 -23.5t-37 -35t-29.5 -44zM918 2q-39 -38 -123 -38q-37 0 -91 8t-113 25.5t-114.5 45t-95.5 67.5q-28 -41 -57 -63.5t-62 -32.5
t-72.5 -12t-89.5 -2h-99q-30 0 -46.5 1.5t-24.5 5.5q-20 9 -26.5 36t-6.5 74q0 91 20 105q8 4 27 8t57 4h66q85 0 138.5 4t90 20t62 47.5t53.5 86.5q25 49 51.5 92.5t57 76t67.5 51.5t84 19q51 0 92 -27.5t73 -71t56 -98t40 -109.5q13 -48 20 -91q12 0 32 -1q24 -1 53 -2
t60.5 -3t60.5 -2.5t51.5 -1.5t34.5 -1q42 0 79 1.5t69 6.5q0 22 -9.5 49t-25.5 56.5t-37.5 58.5t-45.5 53q47 96 122 215q49 -54 80.5 -117.5t49.5 -131t24.5 -137t6.5 -134.5q0 -46 -7.5 -77t-27 -48.5t-52.5 -24.5t-81 -7q-59 0 -127 2t-130.5 4.5t-112 5t-72.5 2.5
q-15 1 -29 2zM1187 717q-47 29 -94 56.5t-93 56.5q23 39 42 72t44 67q44 -25 86.5 -50.5t90.5 -53.5q19 32 37.5 61.5t36.5 55.5q42 -25 89.5 -54.5t90.5 -60.5q-10 -19 -22.5 -38.5t-24.5 -38t-23 -33.5t-17 -24q-41 25 -82.5 51t-82.5 52q-20 -28 -39 -57.5t-39 -61.5z
" />
    <glyph glyph-name="uniFE98_uniFEE6.liga" unicode="&#xfe98;&#xfee6;" horiz-adv-x="1639" 
d="M635 613l-223 136q11 21 25.5 45.5t30.5 49t30 46t24 35.5q23 -13 52 -31t59 -37.5t59.5 -38.5t51.5 -33q-8 -19 -22 -42t-29 -46t-30 -45t-28 -39zM1273 717q-46 29 -93 56.5t-93 56.5q22 39 41.5 72t44.5 67q44 -25 86.5 -50.5t90.5 -53.5q19 32 37.5 61.5t36.5 55.5
q42 -25 89 -54.5t91 -60.5q-10 -19 -22.5 -38.5t-24.5 -38t-23 -33.5t-17 -24q-41 25 -82.5 51t-82.5 52q-20 -28 -39 -57.5t-40 -61.5zM1045 0q-2 -19 -5 -35q-9 -59 -23.5 -106t-33.5 -83.5t-40 -62.5q-32 -38 -86.5 -73.5t-120.5 -63.5t-136.5 -45t-133.5 -17
q-97 0 -172.5 26.5t-126.5 75t-77.5 119.5t-26.5 160q0 51 9.5 105t26 105.5t39.5 98.5t50 85q23 34 41.5 50t29.5 16q9 0 9 -10q0 -7 -7.5 -28t-25.5 -57q-14 -26 -25 -57t-20 -64.5t-14 -65.5t-5 -57q0 -63 21.5 -111t61 -81t95 -50t122.5 -17q60 0 121.5 10t120 30
t111.5 50.5t96 71.5q0 47 -7.5 99.5t-25 106t-47 106t-73.5 101.5q37 66 70.5 121.5t64.5 99.5q73 -89 110 -209q16 -54 25 -110q13 0 34 -1q24 -1 53 -2t60.5 -3t60 -2.5t51.5 -1.5t35 -1q42 0 79 1.5t69 6.5q0 22 -9.5 49t-25.5 56.5t-37.5 58.5t-45.5 53q47 96 122 215
q49 -54 80.5 -117.5t49.5 -131t24.5 -137t6.5 -134.5q0 -46 -7.5 -77t-27 -48.5t-52.5 -24.5t-81 -7q-59 0 -127 2t-130.5 4.5t-111.5 5.5q-40 1 -62 2z" />
    <glyph glyph-name="uniFE97_uniFEF0.liga" unicode="&#xfe97;&#xfef0;" horiz-adv-x="1840" 
d="M1145 0q-23 0 -50 1t-53.5 2.5t-50 3t-39.5 1.5q-38 0 -68 -5t-50.5 -12t-31 -14.5t-10.5 -13.5q0 -5 7.5 -10t21.5 -10t32 -10t38 -10q42 -11 76.5 -21t59 -23.5t38.5 -31.5t14 -44q0 -27 -5 -55.5t-15 -55t-23 -48t-29 -33.5q-52 -42 -121 -78.5t-144.5 -62.5t-153 -41
t-148.5 -15q-69 0 -134 20.5t-114.5 63.5t-80 110.5t-30.5 161.5q0 41 8.5 97t30 116t57 119.5t89.5 109.5q29 25 43 25q6 0 6 -8t-5.5 -23.5t-22.5 -37.5q-30 -42 -50.5 -85.5t-33.5 -83t-18 -73t-5 -55.5q0 -52 19 -95.5t59 -77t101.5 -52t146.5 -18.5q48 0 107 11t116 26
t107 32.5t83 32.5v4q-31 9 -65.5 18.5t-66.5 18t-58.5 17t-41.5 15.5q-31 13 -48 30.5t-17 48.5q0 14 7.5 42t23 62.5t37.5 71.5t51 67q47 49 120.5 79t169.5 30h120q13 0 36.5 -1t53 -2t60.5 -3t60 -2.5t52 -1.5t35 -1q42 0 79 1.5t69 6.5q0 22 -10 49t-26 56.5t-37.5 58.5
t-44.5 53q47 96 122 215q49 -54 80 -117.5t49 -131t25 -137t7 -134.5q0 -46 -8 -77t-27.5 -48.5t-52 -24.5t-81.5 -7q-58 0 -126 2t-130.5 4.5t-112.5 5t-72 2.5h-6zM1390 717q-47 29 -94 56.5t-92 56.5q22 39 41 72t44 67q44 -25 86.5 -50.5t90.5 -53.5q20 32 38.5 61.5
t35.5 55.5q42 -25 89.5 -54.5t91.5 -60.5q-11 -19 -23 -38.5t-24.5 -38t-23 -33.5t-17.5 -24q-41 25 -82.5 51t-82.5 52q-19 -28 -38 -57.5t-40 -61.5z" />
    <glyph glyph-name="uniFE97_uniFEF2.liga" unicode="&#xfe97;&#xfef2;" horiz-adv-x="1840" 
d="M409 -954l-200 121q10 19 21 39.5t22.5 40.5t22.5 38.5t22 33.5q49 -26 96 -55t94 -61l70 121q59 -32 109 -62t88 -56q-23 -39 -44.5 -76t-45.5 -72q-23 13 -47 28t-48 29.5t-46 29t-40 25.5q-18 -32 -36.5 -63.5t-37.5 -60.5zM1145 0q-23 0 -50 1t-53.5 2.5t-50 3
t-39.5 1.5q-38 0 -68 -5t-50.5 -12t-31 -14.5t-10.5 -13.5q0 -5 7.5 -10t21.5 -10t32 -10t38 -10q42 -11 76.5 -21t59 -23.5t38.5 -31.5t14 -44q0 -27 -5 -55.5t-15 -55t-23 -48t-29 -33.5q-52 -42 -121 -78.5t-144.5 -62.5t-153 -41t-148.5 -15q-69 0 -134 20.5
t-114.5 63.5t-80 110.5t-30.5 161.5q0 41 8.5 97t30 116t57 119.5t89.5 109.5q29 25 43 25q6 0 6 -8t-5.5 -23.5t-22.5 -37.5q-30 -42 -50.5 -85.5t-33.5 -83t-18 -73t-5 -55.5q0 -52 19 -95.5t59 -77t101.5 -52t146.5 -18.5q48 0 107 11t116 26t107 32.5t83 32.5v4
q-31 9 -65.5 18.5t-66.5 18t-58.5 17t-41.5 15.5q-31 13 -48 30.5t-17 48.5q0 14 7.5 42t23 62.5t37.5 71.5t51 67q47 49 120.5 79t169.5 30h120q13 0 36.5 -1t53 -2t60.5 -3t60 -2.5t52 -1.5t35 -1q42 0 79 1.5t69 6.5q0 22 -10 49t-26 56.5t-37.5 58.5t-44.5 53
q47 96 122 215q49 -54 80 -117.5t49 -131t25 -137t7 -134.5q0 -46 -8 -77t-27.5 -48.5t-52 -24.5t-81.5 -7q-58 0 -126 2t-130.5 4.5t-112.5 5t-72 2.5h-6zM1390 717q-47 29 -94 56.5t-92 56.5q22 39 41 72t44 67q44 -25 86.5 -50.5t90.5 -53.5q20 32 38.5 61.5t35.5 55.5
q42 -25 89.5 -54.5t91.5 -60.5q-11 -19 -23 -38.5t-24.5 -38t-23 -33.5t-17.5 -24q-41 25 -82.5 51t-82.5 52q-19 -28 -38 -57.5t-40 -61.5z" />
    <glyph glyph-name="uniFE9C_uniFEAE.liga" unicode="&#xfe9c;&#xfeae;" horiz-adv-x="1379" 
d="M761 0q-3 -23 -6 -48q-12 -70 -35.5 -140.5t-58 -135.5t-80 -115.5t-102.5 -81t-125 -30.5q-47 0 -92 21t-86 55t-75.5 75.5t-57.5 82.5q-43 75 -43 92q0 8 10 8q7 0 17 -7q145 -90 246 -90q71 0 132 25t109.5 69t85.5 102.5t61 125.5q-22 55 -69.5 113t-117.5 116
q20 54 49.5 112t62.5 108q51 -44 86 -84.5t56 -83.5q12 -26 21 -55h22q13 0 37 -1t53 -2t60.5 -3t60 -2.5t51.5 -1.5t35 -1q42 0 79 1.5t69 6.5q0 22 -9.5 49t-25.5 56.5t-37.5 58.5t-45.5 53q47 96 122 215q49 -54 80 -117.5t49.5 -131t25 -137t6.5 -134.5q0 -46 -7.5 -77
t-27 -48.5t-52.5 -24.5t-82 -7q-58 0 -126 2t-130.5 4.5t-112 5t-72.5 2.5h-10zM1054 972q-47 29 -90.5 54.5t-86.5 51.5q18 35 39 69t47 65l177 -106q-5 -9 -13.5 -24t-20.5 -34t-25 -38.5t-27 -37.5zM1010 717q-47 29 -93.5 56.5t-92.5 56.5q22 39 41 72t45 67
q44 -25 86.5 -50.5t89.5 -53.5q20 32 38.5 61.5t36.5 55.5q42 -25 89 -54.5t91 -60.5q-10 -19 -22.5 -38.5t-24.5 -38t-23 -33.5t-18 -24q-41 25 -82.5 51t-82.5 52q-19 -28 -38 -57.5t-40 -61.5z" />
    <glyph glyph-name="uniFE9B_uniFEE4.liga" unicode="&#xfe9b;&#xfee4;" horiz-adv-x="1639" 
d="M491 315q39 -38 87.5 -62t95 -37.5t86 -18.5t61.5 -5q6 0 6 6t-4.5 25t-15 44.5t-26 53t-37 51t-48.5 39t-60 15.5q-19 0 -39 -8.5t-39.5 -23.5t-37 -35t-29.5 -44zM918 2q-39 -38 -123 -38q-37 0 -91 8t-113 25.5t-114.5 45t-95.5 67.5q-28 -41 -57 -63.5t-62 -32.5
t-72.5 -12t-89.5 -2h-99q-30 0 -46.5 1.5t-24.5 5.5q-20 9 -26.5 36t-6.5 74q0 91 20 105q8 4 27 8t57 4h66q85 0 138.5 4t90 20t62 47.5t53.5 86.5q25 49 51.5 92.5t57 76t67.5 51.5t84 19q51 0 92 -27.5t73 -71t56 -98t40 -109.5q13 -48 20 -91q12 0 32 -1q24 -1 53 -2
t60.5 -3t60.5 -2.5t51.5 -1.5t34.5 -1q42 0 79 1.5t69 6.5q0 22 -9.5 49t-25.5 56.5t-37.5 58.5t-45.5 53q47 96 122 215q49 -54 80.5 -117.5t49.5 -131t24.5 -137t6.5 -134.5q0 -46 -7.5 -77t-27 -48.5t-52.5 -24.5t-81 -7q-59 0 -127 2t-130.5 4.5t-112 5t-72.5 2.5
q-15 1 -29 2zM1230 972q-46 29 -90 54.5t-87 51.5q18 35 39 69t47 65l177 -106q-5 -9 -13.5 -24t-20.5 -34t-25 -38.5t-27 -37.5zM1187 717q-47 29 -94 56.5t-93 56.5q23 39 42 72t44 67q44 -25 86.5 -50.5t90.5 -53.5q19 32 37.5 61.5t36.5 55.5q42 -25 89.5 -54.5
t90.5 -60.5q-10 -19 -22.5 -38.5t-24.5 -38t-23 -33.5t-17 -24q-41 25 -82.5 51t-82.5 52q-20 -28 -39 -57.5t-39 -61.5z" />
    <glyph glyph-name="uniFE9C_uniFEE6.liga" unicode="&#xfe9c;&#xfee6;" horiz-adv-x="1639" 
d="M635 613l-223 136q11 21 25.5 45.5t30.5 49t30 46t24 35.5q23 -13 52 -31t59 -37.5t59.5 -38.5t51.5 -33q-8 -19 -22 -42t-29 -46t-30 -45t-28 -39zM1317 972q-46 29 -90 54.5t-87 51.5q18 35 39 69t47 65l177 -106q-5 -9 -13.5 -24t-20.5 -34t-25 -38.5t-27 -37.5z
M1273 717q-46 29 -93 56.5t-93 56.5q22 39 41.5 72t44.5 67q44 -25 86.5 -50.5t90.5 -53.5q19 32 37.5 61.5t36.5 55.5q42 -25 89 -54.5t91 -60.5q-10 -19 -22.5 -38.5t-24.5 -38t-23 -33.5t-17 -24q-41 25 -82.5 51t-82.5 52q-20 -28 -39 -57.5t-40 -61.5zM1045 0
q-2 -19 -5 -35q-9 -59 -23.5 -106t-33.5 -83.5t-40 -62.5q-32 -38 -86.5 -73.5t-120.5 -63.5t-136.5 -45t-133.5 -17q-97 0 -172.5 26.5t-126.5 75t-77.5 119.5t-26.5 160q0 51 9.5 105t26 105.5t39.5 98.5t50 85q23 34 41.5 50t29.5 16q9 0 9 -10q0 -7 -7.5 -28t-25.5 -57
q-14 -26 -25 -57t-20 -64.5t-14 -65.5t-5 -57q0 -63 21.5 -111t61 -81t95 -50t122.5 -17q60 0 121.5 10t120 30t111.5 50.5t96 71.5q0 47 -7.5 99.5t-25 106t-47 106t-73.5 101.5q37 66 70.5 121.5t64.5 99.5q73 -89 110 -209q16 -54 25 -110q13 0 34 -1q24 -1 53 -2
t60.5 -3t60 -2.5t51.5 -1.5t35 -1q42 0 79 1.5t69 6.5q0 22 -9.5 49t-25.5 56.5t-37.5 58.5t-45.5 53q47 96 122 215q49 -54 80.5 -117.5t49.5 -131t24.5 -137t6.5 -134.5q0 -46 -7.5 -77t-27 -48.5t-52.5 -24.5t-81 -7q-59 0 -127 2t-130.5 4.5t-111.5 5.5q-40 1 -62 2z
" />
    <glyph glyph-name="uniFE9B_uniFEF0.liga" unicode="&#xfe9b;&#xfef0;" horiz-adv-x="1840" 
d="M1145 0q-23 0 -50 1t-53.5 2.5t-50 3t-39.5 1.5q-38 0 -68 -5t-50.5 -12t-31 -14.5t-10.5 -13.5q0 -5 7.5 -10t21.5 -10t32 -10t38 -10q42 -11 76.5 -21t59 -23.5t38.5 -31.5t14 -44q0 -27 -5 -55.5t-15 -55t-23 -48t-29 -33.5q-52 -42 -121 -78.5t-144.5 -62.5t-153 -41
t-148.5 -15q-69 0 -134 20.5t-114.5 63.5t-80 110.5t-30.5 161.5q0 41 8.5 97t30 116t57 119.5t89.5 109.5q29 25 43 25q6 0 6 -8t-5.5 -23.5t-22.5 -37.5q-30 -42 -50.5 -85.5t-33.5 -83t-18 -73t-5 -55.5q0 -52 19 -95.5t59 -77t101.5 -52t146.5 -18.5q48 0 107 11t116 26
t107 32.5t83 32.5v4q-31 9 -65.5 18.5t-66.5 18t-58.5 17t-41.5 15.5q-31 13 -48 30.5t-17 48.5q0 14 7.5 42t23 62.5t37.5 71.5t51 67q47 49 120.5 79t169.5 30h120q13 0 36.5 -1t53 -2t60.5 -3t60 -2.5t52 -1.5t35 -1q42 0 79 1.5t69 6.5q0 22 -10 49t-26 56.5t-37.5 58.5
t-44.5 53q47 96 122 215q49 -54 80 -117.5t49 -131t25 -137t7 -134.5q0 -46 -8 -77t-27.5 -48.5t-52 -24.5t-81.5 -7q-58 0 -126 2t-130.5 4.5t-112.5 5t-72 2.5h-6zM1434 972q-47 29 -91 54.5t-87 51.5q19 35 40 69t46 65l178 -106q-5 -9 -14 -24t-20.5 -34t-24.5 -38.5
t-27 -37.5zM1390 717q-47 29 -94 56.5t-92 56.5q22 39 41 72t44 67q44 -25 86.5 -50.5t90.5 -53.5q20 32 38.5 61.5t35.5 55.5q42 -25 89.5 -54.5t91.5 -60.5q-11 -19 -23 -38.5t-24.5 -38t-23 -33.5t-17.5 -24q-41 25 -82.5 51t-82.5 52q-19 -28 -38 -57.5t-40 -61.5z" />
    <glyph glyph-name="uniFE9B_uniFEF2.liga" unicode="&#xfe9b;&#xfef2;" horiz-adv-x="1840" 
d="M409 -954l-200 121q10 19 21 39.5t22.5 40.5t22.5 38.5t22 33.5q49 -26 96 -55t94 -61l70 121q59 -32 109 -62t88 -56q-23 -39 -44.5 -76t-45.5 -72q-23 13 -47 28t-48 29.5t-46 29t-40 25.5q-18 -32 -36.5 -63.5t-37.5 -60.5zM1145 0q-23 0 -50 1t-53.5 2.5t-50 3
t-39.5 1.5q-38 0 -68 -5t-50.5 -12t-31 -14.5t-10.5 -13.5q0 -5 7.5 -10t21.5 -10t32 -10t38 -10q42 -11 76.5 -21t59 -23.5t38.5 -31.5t14 -44q0 -27 -5 -55.5t-15 -55t-23 -48t-29 -33.5q-52 -42 -121 -78.5t-144.5 -62.5t-153 -41t-148.5 -15q-69 0 -134 20.5
t-114.5 63.5t-80 110.5t-30.5 161.5q0 41 8.5 97t30 116t57 119.5t89.5 109.5q29 25 43 25q6 0 6 -8t-5.5 -23.5t-22.5 -37.5q-30 -42 -50.5 -85.5t-33.5 -83t-18 -73t-5 -55.5q0 -52 19 -95.5t59 -77t101.5 -52t146.5 -18.5q48 0 107 11t116 26t107 32.5t83 32.5v4
q-31 9 -65.5 18.5t-66.5 18t-58.5 17t-41.5 15.5q-31 13 -48 30.5t-17 48.5q0 14 7.5 42t23 62.5t37.5 71.5t51 67q47 49 120.5 79t169.5 30h120q13 0 36.5 -1t53 -2t60.5 -3t60 -2.5t52 -1.5t35 -1q42 0 79 1.5t69 6.5q0 22 -10 49t-26 56.5t-37.5 58.5t-44.5 53
q47 96 122 215q49 -54 80 -117.5t49 -131t25 -137t7 -134.5q0 -46 -8 -77t-27.5 -48.5t-52 -24.5t-81.5 -7q-58 0 -126 2t-130.5 4.5t-112.5 5t-72 2.5h-6zM1434 972q-47 29 -91 54.5t-87 51.5q19 35 40 69t46 65l178 -106q-5 -9 -14 -24t-20.5 -34t-24.5 -38.5t-27 -37.5z
M1390 717q-47 29 -94 56.5t-92 56.5q22 39 41 72t44 67q44 -25 86.5 -50.5t90.5 -53.5q20 32 38.5 61.5t35.5 55.5q42 -25 89.5 -54.5t91.5 -60.5q-11 -19 -23 -38.5t-24.5 -38t-23 -33.5t-17.5 -24q-41 25 -82.5 51t-82.5 52q-19 -28 -38 -57.5t-40 -61.5z" />
    <glyph glyph-name="uniFEDB_uniFEF0.liga" unicode="&#xfedb;&#xfef0;" horiz-adv-x="2164" 
d="M1145 0q-23 0 -50 1t-53.5 2.5t-50 3t-39.5 1.5q-38 0 -68 -5t-50.5 -12t-31 -14.5t-10.5 -13.5q0 -5 7.5 -10t21.5 -10t32 -10t38 -10q42 -11 76.5 -21t59 -23.5t38.5 -31.5t14 -44q0 -27 -5 -55.5t-15 -55t-23 -48t-29 -33.5q-52 -42 -121 -78.5t-144.5 -62.5t-153 -41
t-148.5 -15q-69 0 -134 20.5t-114.5 63.5t-80 110.5t-30.5 161.5q0 41 8.5 97t30 116t57 119.5t89.5 109.5q29 25 43 25q6 0 6 -8t-5.5 -23.5t-22.5 -37.5q-30 -42 -50.5 -85.5t-33.5 -83t-18 -73t-5 -55.5q0 -52 19 -95.5t59 -77t101.5 -52t146.5 -18.5q48 0 107 11t116 26
t107 32.5t83 32.5v4q-31 9 -65.5 18.5t-66.5 18t-58.5 17t-41.5 15.5q-31 13 -48 30.5t-17 48.5q0 14 7.5 42t23 62.5t37.5 71.5t51 67q47 49 120.5 79t169.5 30h121q36 0 90 -2.5t115 -5l122 -5t112 -2.5q63 0 123.5 2t115.5 7v8q-16 16 -43 38.5t-59 48t-68 53t-70.5 53.5
t-65.5 48t-55 37l-35 -57q-59 48 -91 76.5t-47.5 47.5t-19 33.5t-3.5 34.5q0 15 4.5 35.5t11 40.5t16 36t20.5 22q42 22 119.5 59.5t177.5 82.5t215 96t232 101q-12 -53 -30 -108.5t-43 -120.5q-60 -22 -127.5 -46.5t-133 -49.5t-125 -48.5t-103.5 -42.5v-7
q58 -43 129 -98.5t145 -114t144.5 -116t127.5 -104.5l-5 -86q-2 -40 -9 -67.5t-15 -45t-17 -27t-15 -13.5q-16 -10 -43.5 -18t-67.5 -12.5t-93.5 -6.5t-123.5 -2q-44 0 -93.5 0.5t-100 2t-99 2.5t-90.5 2.5t-76 2.5t-53 2h-7z" />
    <glyph glyph-name="uniFEDC_uniFEF0.liga" unicode="&#xfedc;&#xfef0;" horiz-adv-x="2144" 
d="M1145 0q-23 0 -50 1t-53.5 2.5t-50 3t-39.5 1.5q-38 0 -68 -5t-50.5 -12t-31 -14.5t-10.5 -13.5q0 -5 7.5 -10t21.5 -10t32 -10t38 -10q42 -11 76.5 -21t59 -23.5t38.5 -31.5t14 -44q0 -27 -5 -55.5t-15 -55t-23 -48t-29 -33.5q-52 -42 -121 -78.5t-144.5 -62.5t-153 -41
t-148.5 -15q-69 0 -134 20.5t-114.5 63.5t-80 110.5t-30.5 161.5q0 41 8.5 97t30 116t57 119.5t89.5 109.5q29 25 43 25q6 0 6 -8t-5.5 -23.5t-22.5 -37.5q-30 -42 -50.5 -85.5t-33.5 -83t-18 -73t-5 -55.5q0 -52 19 -95.5t59 -77t101.5 -52t146.5 -18.5q48 0 107 11t116 26
t107 32.5t83 32.5v4q-31 9 -65.5 18.5t-66.5 18t-58.5 17t-41.5 15.5q-31 13 -48 30.5t-17 48.5q0 14 7.5 42t23 62.5t37.5 71.5t51 67q47 49 120.5 79t169.5 30h121q36 0 90 -2.5t115 -5l122 -5t112 -2.5q63 0 116 2t109 7v8q-15 16 -40.5 38.5t-56 48t-65.5 53t-68.5 53.5
t-63.5 48t-53 37l-35 -57q-59 48 -91 76.5t-47.5 47.5t-19 33.5t-3.5 34.5q0 15 4.5 35.5t11 40.5t16 36t20.5 22q42 22 123 60t185.5 85t223 99t235.5 101q-13 -52 -31 -108t-42 -120q-61 -22 -131.5 -47.5t-140.5 -51.5t-133 -51t-107 -44v-7q47 -35 109 -85t129.5 -105.5
t136 -112t130.5 -106.5q34 -27 65.5 -41.5t66.5 -14.5v-234q-29 0 -46.5 1t-32 6t-30.5 14t-41 27q-25 -17 -54 -28t-67 -18t-88.5 -10.5t-120.5 -3.5q-44 0 -93.5 0.5t-100 2t-99 2.5t-90.5 2.5t-76 2.5t-53 2h-7z" />
    <glyph glyph-name="uniFEDB_uniFEF2.liga" unicode="&#xfedb;&#xfef2;" horiz-adv-x="2164" 
d="M409 -954l-200 121q10 19 21 39.5t22.5 40.5t22.5 38.5t22 33.5q49 -26 96 -55t94 -61l70 121q59 -32 109 -62t88 -56q-23 -39 -44.5 -76t-45.5 -72q-23 13 -47 28t-48 29.5t-46 29t-40 25.5q-18 -32 -36.5 -63.5t-37.5 -60.5zM1145 0q-23 0 -50 1t-53.5 2.5t-50 3
t-39.5 1.5q-38 0 -68 -5t-50.5 -12t-31 -14.5t-10.5 -13.5q0 -5 7.5 -10t21.5 -10t32 -10t38 -10q42 -11 76.5 -21t59 -23.5t38.5 -31.5t14 -44q0 -27 -5 -55.5t-15 -55t-23 -48t-29 -33.5q-52 -42 -121 -78.5t-144.5 -62.5t-153 -41t-148.5 -15q-69 0 -134 20.5
t-114.5 63.5t-80 110.5t-30.5 161.5q0 41 8.5 97t30 116t57 119.5t89.5 109.5q29 25 43 25q6 0 6 -8t-5.5 -23.5t-22.5 -37.5q-30 -42 -50.5 -85.5t-33.5 -83t-18 -73t-5 -55.5q0 -52 19 -95.5t59 -77t101.5 -52t146.5 -18.5q48 0 107 11t116 26t107 32.5t83 32.5v4
q-31 9 -65.5 18.5t-66.5 18t-58.5 17t-41.5 15.5q-31 13 -48 30.5t-17 48.5q0 14 7.5 42t23 62.5t37.5 71.5t51 67q47 49 120.5 79t169.5 30h121q36 0 90 -2.5t115 -5l122 -5t112 -2.5q63 0 123.5 2t115.5 7v8q-16 16 -43 38.5t-59 48t-68 53t-70.5 53.5t-65.5 48t-55 37
l-35 -57q-59 48 -91 76.5t-47.5 47.5t-19 33.5t-3.5 34.5q0 15 4.5 35.5t11 40.5t16 36t20.5 22q42 22 119.5 59.5t177.5 82.5t215 96t232 101q-12 -53 -30 -108.5t-43 -120.5q-60 -22 -127.5 -46.5t-133 -49.5t-125 -48.5t-103.5 -42.5v-7q58 -43 129 -98.5t145 -114
t144.5 -116t127.5 -104.5l-5 -86q-2 -40 -9 -67.5t-15 -45t-17 -27t-15 -13.5q-16 -10 -43.5 -18t-67.5 -12.5t-93.5 -6.5t-123.5 -2q-44 0 -93.5 0.5t-100 2t-99 2.5t-90.5 2.5t-76 2.5t-53 2h-7z" />
    <glyph glyph-name="uniFEDC_uniFEF2.liga" unicode="&#xfedc;&#xfef2;" horiz-adv-x="2144" 
d="M409 -954l-200 121q10 19 21 39.5t22.5 40.5t22.5 38.5t22 33.5q49 -26 96 -55t94 -61l70 121q59 -32 109 -62t88 -56q-23 -39 -44.5 -76t-45.5 -72q-23 13 -47 28t-48 29.5t-46 29t-40 25.5q-18 -32 -36.5 -63.5t-37.5 -60.5zM1145 0q-23 0 -50 1t-53.5 2.5t-50 3
t-39.5 1.5q-38 0 -68 -5t-50.5 -12t-31 -14.5t-10.5 -13.5q0 -5 7.5 -10t21.5 -10t32 -10t38 -10q42 -11 76.5 -21t59 -23.5t38.5 -31.5t14 -44q0 -27 -5 -55.5t-15 -55t-23 -48t-29 -33.5q-52 -42 -121 -78.5t-144.5 -62.5t-153 -41t-148.5 -15q-69 0 -134 20.5
t-114.5 63.5t-80 110.5t-30.5 161.5q0 41 8.5 97t30 116t57 119.5t89.5 109.5q29 25 43 25q6 0 6 -8t-5.5 -23.5t-22.5 -37.5q-30 -42 -50.5 -85.5t-33.5 -83t-18 -73t-5 -55.5q0 -52 19 -95.5t59 -77t101.5 -52t146.5 -18.5q48 0 107 11t116 26t107 32.5t83 32.5v4
q-31 9 -65.5 18.5t-66.5 18t-58.5 17t-41.5 15.5q-31 13 -48 30.5t-17 48.5q0 14 7.5 42t23 62.5t37.5 71.5t51 67q47 49 120.5 79t169.5 30h121q36 0 90 -2.5t115 -5l122 -5t112 -2.5q63 0 116 2t109 7v8q-15 16 -40.5 38.5t-56 48t-65.5 53t-68.5 53.5t-63.5 48t-53 37
l-35 -57q-59 48 -91 76.5t-47.5 47.5t-19 33.5t-3.5 34.5q0 15 4.5 35.5t11 40.5t16 36t20.5 22q42 22 123 60t185.5 85t223 99t235.5 101q-13 -52 -31 -108t-42 -120q-61 -22 -131.5 -47.5t-140.5 -51.5t-133 -51t-107 -44v-7q47 -35 109 -85t129.5 -105.5t136 -112
t130.5 -106.5q34 -27 65.5 -41.5t66.5 -14.5v-234q-29 0 -46.5 1t-32 6t-30.5 14t-41 27q-25 -17 -54 -28t-67 -18t-88.5 -10.5t-120.5 -3.5q-44 0 -93.5 0.5t-100 2t-99 2.5t-90.5 2.5t-76 2.5t-53 2h-7z" />
    <glyph glyph-name="uniFEDF_uniFB51.rlig" unicode="&#xfedf;&#xfb51;" horiz-adv-x="1056" 
d="M940 1141q2 -37 4 -89t3.5 -106.5t2.5 -103t1 -78.5q0 -92 -6 -166t-19.5 -135.5t-37.5 -113t-59 -101.5q15 -23 30 -53t26 -60t17.5 -57.5t6.5 -47.5q0 -10 -3 -34t-10 -53t-19 -57t-31 -46q-24 -12 -59 -20.5t-75.5 -13.5t-82.5 -7.5t-79 -2.5q-60 0 -113 5.5t-85 12.5
q-4 9 -5.5 26t-1.5 40q0 25 2 53.5t4.5 52.5t5.5 39.5t6 15.5q33 7 70.5 25t77 44.5t79 60t77.5 73.5l3 3q-99 124 -183.5 206t-149.5 137l-33 -49q-33 23 -71.5 49.5t-71 56t-55 63.5t-22.5 72q0 25 12 57.5t29.5 63.5t36.5 57.5t31 41.5q64 -52 137.5 -127t149 -162.5
t148 -182.5t131.5 -184q12 28 19.5 72t7.5 101q0 60 -3.5 125t-8.5 126t-9.5 114t-7.5 89q49 54 95.5 98.5t87.5 69.5zM552 12q25 1 63.5 2t75.5 3.5t67 8.5t38 17q0 7 -13.5 41t-50.5 85q-17 -22 -42 -44.5t-51.5 -43.5t-50.5 -38.5t-38 -25.5zM228 1187q11 -5 26 -8.5
t31.5 -6.5t32 -4t28.5 -1q17 0 32.5 1t28.5 4t20 7.5t7 10.5t-4 17.5t-14 23.5t-25.5 20.5t-39.5 8.5q-33 0 -61.5 -20t-61.5 -53zM38 1051q3 47 14 78.5t26.5 50.5t32 27t30.5 8q10 0 18.5 -2t16.5 -5q39 48 67.5 77t52 45t42.5 21.5t39 5.5q18 0 38 -9t36.5 -27.5
t27.5 -47.5t11 -70q0 -36 -7.5 -63t-25.5 -45t-48 -27t-76 -9q-39 0 -71 6t-56.5 12.5t-43.5 12t-31 5.5q-18 0 -40 -10t-50 -35z" />
    <glyph glyph-name="uniFEE0_uniFB51.rlig" unicode="&#xfee0;&#xfb51;" horiz-adv-x="1080" 
d="M1080 0h-30q-64 0 -103.5 36.5t-61.5 101.5q-55 -130 -133 -191.5t-192 -61.5q-40 0 -85.5 11t-93.5 28t-96.5 37.5t-93.5 38.5q-2 6 -1.5 11.5t5.5 9.5q77 13 149.5 27t135.5 30.5t114 36t83 42.5q6 5 8 10t2 10q0 17 -15 49t-41 71t-60 82t-70 84t-72.5 77t-67.5 60
l-39 -44q-80 52 -123.5 89.5t-64 64.5t-24 46t-3.5 34q0 35 16.5 71t38 67t42.5 54t30 33q51 -49 107.5 -106.5t113 -121t110 -132.5t97.5 -142.5t77 -149t46 -152.5h2q35 31 50.5 60t15.5 70q0 30 -4.5 77.5t-11.5 104t-15 118.5t-15.5 122t-13.5 114t-7 95
q49 53 95.5 94.5t80.5 64.5q3 -70 6.5 -147l7 -154t7 -150.5t5.5 -136t4.5 -110.5t3.5 -75q2 -42 7.5 -66.5t15.5 -37t25.5 -16.5t35.5 -4v-234zM295 1202q11 -5 26 -8.5t31.5 -6.5t32 -4.5t28.5 -1.5q17 0 32.5 1.5t28.5 4.5t20 7.5t7 10.5q0 5 -4 17t-14 23.5t-25.5 20.5
t-39.5 9q-33 0 -61.5 -20t-61.5 -53zM105 1066q3 47 14 78t26.5 50t32 27.5t30.5 8.5q10 0 18.5 -2t16.5 -5q39 48 67.5 77t52 45t42.5 21.5t39 5.5q18 0 38 -9t36.5 -27.5t27.5 -48t11 -70.5q0 -36 -7.5 -63t-25.5 -45t-48 -26.5t-76 -8.5q-39 0 -71 5.5t-56.5 12
t-43.5 12.5t-31 6q-18 0 -40 -10.5t-50 -34.5z" />
    <glyph glyph-name="uniFEDF_uniFEE2.liga" unicode="&#xfedf;&#xfee2;" horiz-adv-x="1395" 
d="M769 2q-8 -2 -14 -2q-112 0 -196.5 2.5t-145.5 4.5q-41 2 -70.5 3t-48.5 1q-12 0 -23 -0.5t-21 -3t-16 -7t-6 -13.5q0 -10 10 -50.5t24 -96.5q9 -42 20.5 -88.5t20 -90.5t14.5 -82t6 -64q0 -73 -23.5 -134t-56.5 -101l-4 1q-2 34 -10 80t-20.5 100.5t-27.5 112.5l-30 116
q-13 52 -26.5 102.5t-23 94t-15.5 78t-6 55.5q0 18 4.5 36.5t10.5 36.5t14 34t14 29q14 28 28.5 44t32.5 23.5t42.5 10t58.5 2.5q26 0 66 -2t81.5 -5t77.5 -4.5t53 -1.5v5q-21 28 -43.5 57.5t-45 54.5t-44.5 40.5t-42 15.5q-11 0 -27 -3.5t-41.5 -16.5t-61.5 -40t-87 -73
q-6 -6 -14.5 -5.5t-8.5 8.5q0 11 10.5 39t23.5 58.5t26 56.5l17 34q26 36 55.5 67t61.5 53t63 35.5t59 13.5q29 0 55 -14t50 -36t46.5 -52.5t45.5 -62.5q14 -22 31.5 -48t34 -52t31.5 -48.5t28 -36.5q22 -25 46.5 -31.5t52.5 -7.5q-1 -3 -1 -6q27 -1 59 -2q35 -1 72 -1
q31 0 61 1t60 5q0 43 -9 145t-28 268q-11 103 -18 181t-9 132q37 43 82 85.5t93 80.5q1 -62 5 -138t8.5 -160t10 -172t9.5 -173.5t6 -164.5t2 -144q0 -124 -19 -151q-7 -10 -24 -16t-40 -9t-49.5 -4t-50.5 -1q-25 0 -70 1t-92.5 2.5t-87 3.5t-54.5 3q-18 1 -32 2z" />
    <glyph glyph-name="uniFEE4_uniFE8E.liga" unicode="&#xfee4;&#xfe8e;" horiz-adv-x="1430" 
d="M959 315q39 -38 87.5 -62t95 -37.5t86 -18.5t61.5 -5q6 0 6 6t-4.5 25t-15 44.5t-26 53t-37 51t-48.5 39t-60 15.5q-19 0 -39 -8.5t-39.5 -23.5t-37 -35t-29.5 -44zM340 0q-132 0 -173 74q-14 27 -27 148q-7 61 -18.5 190.5t-25.5 332.5l-17 230q53 50 98 86t82 62
q7 -193 13 -334t9.5 -234.5t6 -143.5t2.5 -60q1 -33 5 -55.5t12 -36t21 -19.5t32 -6h175q85 0 138.5 4t90 20t62 47.5t53.5 86.5q25 49 51.5 92.5t57 76t67.5 51.5t84 19q51 0 92 -27.5t73 -71t56 -98t39.5 -110t23 -105.5t7.5 -84q0 -85 -38.5 -128t-128.5 -43q-37 0 -91 8
t-112.5 25.5t-114.5 45t-96 67.5q-28 -41 -57 -63.5t-62 -32.5t-72.5 -12t-89.5 -2h-228z" />
    <glyph glyph-name="uniFEE4_uniFE82.liga" unicode="&#xfee4;&#xfe82;" horiz-adv-x="1430" 
d="M959 315q39 -38 88 -62t95.5 -37.5t86 -18.5t61.5 -5q6 0 6 6t-5 25t-15 44.5t-26 53t-37.5 51t-48 39t-59.5 15.5q-19 0 -39 -8.5t-39.5 -23.5t-37 -35t-30.5 -44zM443 1413q-13 -46 -34 -83.5t-52 -63.5t-74.5 -41t-101.5 -15q-14 0 -32.5 1.5t-31.5 1.5q-50 0 -86 -20
t-53 -67h-2q-17 8 -26.5 29.5t-9.5 43.5q0 33 12 60.5t32.5 46.5t47.5 29.5t56 10.5q31 0 62.5 -4.5t62.5 -4.5t61 4.5t57 16.5t49 33.5t36 56.5zM340 0q-132 0 -173 74q-13 27 -27 148q-7 61 -18 190.5t-26 332.5l-16 230q52 50 97.5 86t81.5 62q8 -193 14 -334t9.5 -234.5
t5.5 -143.5t2 -60q1 -33 5 -55.5t12.5 -36t21 -19.5t32.5 -6h174q85 0 139 4t90.5 20t62 47.5t53.5 86.5q24 49 50.5 92.5t57.5 76t68 51.5t84 19q50 0 91 -27.5t73.5 -71t56.5 -98t39.5 -110t23 -105.5t7.5 -84q0 -85 -39 -128t-128 -43q-37 0 -91.5 8t-113 25.5t-114 45
t-95.5 67.5q-29 -41 -57.5 -63.5t-61.5 -32.5t-73 -12t-89 -2h-229z" />
    <glyph glyph-name="uniFEE4_uniFE84.liga" unicode="&#xfee4;&#xfe84;" horiz-adv-x="1430" 
d="M959 315q39 -38 88 -62t95.5 -37.5t86 -18.5t61.5 -5q6 0 6 6t-5 25t-15 44.5t-26 53t-37 51t-48 39t-60 15.5q-19 0 -39 -8.5t-39.5 -23.5t-37 -35t-30.5 -44zM354 1351q-9 -39 -19 -72.5t-17 -51.5q-66 -19 -113.5 -34t-84 -30.5t-65 -33.5t-54.5 -45q-1 12 -2 24.5
t-1 22.5q0 32 9.5 57t33.5 40q-27 20 -41.5 41.5t-14.5 52.5q0 30 16.5 61.5t44.5 58t65 43t78 16.5q34 0 60 -16t26 -47q0 -21 -12 -38.5t-35 -27.5q-20 19 -44.5 31t-42.5 12q-27 0 -42.5 -12.5t-15.5 -25.5q0 -15 9.5 -30t24 -25.5t31.5 -17.5t31 -7q10 0 28 4.5t41 12.5
t50.5 17t55.5 20zM340 0q-131 0 -172 74q-14 27 -28 148q-7 61 -18 190.5t-26 332.5l-16 230q52 50 97.5 86t81.5 62q8 -193 14 -334t9.5 -234.5t6 -143.5t2.5 -60q1 -33 4.5 -55.5t12 -36t21 -19.5t32.5 -6h175q84 0 138 4t90.5 20t62 47.5t53.5 86.5q25 49 51 92.5t57 76
t68 51.5t84 19q51 0 92 -27.5t73 -71t56 -98t39.5 -110t23 -105.5t7.5 -84q0 -85 -38.5 -128t-128.5 -43q-37 0 -91.5 8t-113 25.5t-114 45t-95.5 67.5q-28 -41 -57 -63.5t-62 -32.5t-72.5 -12t-89.5 -2h-229z" />
    <glyph glyph-name="uniFEE4_uniFE88.liga" unicode="&#xfee4;&#xfe88;" horiz-adv-x="1455" 
d="M988 315q39 -38 87.5 -62t95 -37.5t86 -18.5t62.5 -5q6 0 6 6t-5 25t-15.5 44.5t-26 53t-37 51t-48.5 39t-60 15.5q-18 0 -38 -8.5t-39.5 -23.5t-37 -35t-30.5 -44zM484 -240q-9 -39 -19 -73t-17 -51q-65 -20 -113 -34.5t-84.5 -30t-65 -33.5t-54.5 -46q-1 13 -2 25
t-1 23q0 31 9.5 56.5t33.5 40.5q-27 19 -41.5 41t-14.5 53q0 30 16.5 61.5t44.5 58t65 43t78 16.5q34 0 60 -16t26 -47q0 -21 -11.5 -38.5t-35.5 -28.5q-20 20 -44.5 32t-42.5 12q-27 0 -42.5 -12.5t-15.5 -25.5q0 -15 9.5 -30t24.5 -25.5t31.5 -17.5t30.5 -7q10 0 28 4.5
t41 12.5t50.5 17t55.5 20zM340 0q-132 0 -173 74q-14 27 -27 148q-7 61 -18.5 190.5t-25.5 332.5l-17 230q53 50 98 86t82 62q7 -193 13 -334t9.5 -234.5t6 -143.5t2.5 -60q1 -33 5 -55.5t12 -36t21 -19.5t32 -6h204q85 0 138.5 4t90.5 20t62 47.5t54 86.5q24 49 50.5 92.5
t57 76t68 51.5t83.5 19q51 0 92 -27.5t73.5 -71t56 -98t39.5 -110t23 -105.5t7 -84q0 -85 -38.5 -128t-128.5 -43q-37 0 -91 8t-112.5 25.5t-114 45t-96.5 67.5q-28 -41 -56.5 -63.5t-62 -32.5t-73 -12t-89.5 -2h-257z" />
    <glyph glyph-name="uniFEE8_uniFEAE.liga" unicode="&#xfee8;&#xfeae;" horiz-adv-x="1392" 
d="M761 1q-3 -24 -6 -49q-12 -70 -35.5 -140.5t-58 -135.5t-80 -115.5t-102.5 -81t-125 -30.5q-47 0 -92 21t-86 55t-75.5 75.5t-57.5 82.5q-43 75 -43 92q0 8 10 8q7 0 17 -7q145 -90 246 -90q71 0 132 25t109.5 69t85.5 102.5t61 125.5q-22 55 -69.5 113t-117.5 116
q20 54 49.5 112t62.5 108q51 -44 86 -84.5t56 -83.5q13 -26 21 -56q14 1 32 1q13 0 36.5 -1t53 -2t61 -3t60 -2.5t51.5 -1.5t35 -1q42 0 79 1.5t69 6.5q0 22 -9.5 49t-26 56.5t-38 58.5t-44.5 53q47 96 122 215q49 -54 80 -117.5t49 -131t25 -137t7 -134.5q0 -46 -8 -77
t-27.5 -48.5t-52 -24.5t-81.5 -7q-58 0 -126 2t-130.5 4.5t-112.5 5t-72 2.5q-10 0 -20 1zM1114 787l-210 128q11 20 24.5 43.5t28 46.5t28 43t22.5 34q22 -13 50 -29.5t56 -35t55.5 -36.5t48.5 -32q-9 -17 -21.5 -38.5t-26.5 -44t-28.5 -43.5t-26.5 -36z" />
    <glyph glyph-name="uniFEE7_uniFEE4.liga" unicode="&#xfee7;&#xfee4;" horiz-adv-x="1562" 
d="M491 315q39 -38 87.5 -62t95 -37.5t86 -18.5t61.5 -5q6 0 6 6t-4.5 25t-15 44.5t-26 53t-37 51t-48.5 39t-60 15.5q-19 0 -39 -8.5t-39.5 -23.5t-37 -35t-29.5 -44zM919 2q-39 -38 -124 -38q-37 0 -91 8t-113 25.5t-114.5 45t-95.5 67.5q-28 -41 -57 -63.5t-62 -32.5
t-72.5 -12t-89.5 -2h-99q-30 0 -46.5 1.5t-24.5 5.5q-20 9 -26.5 36t-6.5 74q0 91 20 105q8 4 27 8t57 4h66q85 0 138.5 4t90 20t62 47.5t53.5 86.5q25 49 51.5 92.5t57 76t67.5 51.5t84 19q51 0 92 -27.5t73 -71t56 -98t40 -109.5q13 -48 20 -91h5q13 0 37 -1t53 -2
t60.5 -3t60 -2.5t51.5 -1.5t35 -1q42 0 79 1.5t69 6.5q0 22 -9.5 49t-25.5 56.5t-37.5 58.5t-45.5 53q47 96 122 215q49 -54 80 -117.5t49.5 -131t25 -137t6.5 -134.5q0 -46 -7.5 -77t-27 -48.5t-52.5 -24.5t-82 -7q-58 0 -126 2t-130.5 4.5t-112 5t-72.5 2.5q-21 1 -38 2z
M1290 787l-210 128q11 20 24.5 43.5t28 46.5t28 43t23.5 34q21 -13 49 -29.5t56 -35t55.5 -36.5t48.5 -32q-8 -17 -21 -38.5t-27 -44t-28.5 -43.5t-26.5 -36z" />
    <glyph glyph-name="uniFEE7_uniFEF0.liga" unicode="&#xfee7;&#xfef0;" horiz-adv-x="1848" 
d="M1484 787l-210 128q11 20 24.5 43.5t28 46.5t28 43t22.5 34q22 -13 49.5 -29.5t56 -35t56 -36.5t48.5 -32q-9 -17 -21.5 -38.5t-26.5 -44t-29 -43.5t-26 -36zM1145 0q-23 0 -50 1t-53.5 2.5t-50 3t-39.5 1.5q-38 0 -68 -5t-50.5 -12t-31 -14.5t-10.5 -13.5q0 -5 7.5 -10
t21.5 -10t32 -10t38 -10q42 -11 76.5 -21t59 -23.5t38.5 -31.5t14 -44q0 -27 -5 -55.5t-15 -55t-23 -48t-29 -33.5q-52 -42 -121 -78.5t-144.5 -62.5t-153 -41t-148.5 -15q-69 0 -134 20.5t-114.5 63.5t-80 110.5t-30.5 161.5q0 41 8.5 97t30 116t57 119.5t89.5 109.5
q29 25 43 25q6 0 6 -8t-5.5 -23.5t-22.5 -37.5q-30 -42 -50.5 -85.5t-33.5 -83t-18 -73t-5 -55.5q0 -52 19 -95.5t59 -77t101.5 -52t146.5 -18.5q48 0 107 11t116 26t107 32.5t83 32.5v4q-31 9 -65.5 18.5t-66.5 18t-58.5 17t-41.5 15.5q-31 13 -48 30.5t-17 48.5
q0 14 7.5 42t23 62.5t37.5 71.5t51 67q47 49 120.5 79t169.5 30h120q13 0 36.5 -1t53 -2t60.5 -3t60 -2.5t52 -1.5t35 -1q42 0 79 1.5t69 6.5q0 22 -10 49t-26 56.5t-37.5 58.5t-44.5 53q47 96 122 215q49 -54 80 -117.5t49 -131t25 -137t7 -134.5q0 -46 -8 -77t-27.5 -48.5
t-52 -24.5t-81.5 -7q-58 0 -126 2t-130.5 4.5t-112.5 5t-72 2.5h-6z" />
    <glyph glyph-name="uniFEE7_uniFEF2.liga" unicode="&#xfee7;&#xfef2;" horiz-adv-x="1848" 
d="M409 -954l-200 121q10 19 21 39.5t22.5 40.5t22.5 38.5t22 33.5q49 -26 96 -55t94 -61l70 121q59 -32 109 -62t88 -56q-23 -39 -44.5 -76t-45.5 -72q-23 13 -47 28t-48 29.5t-46 29t-40 25.5q-18 -32 -36.5 -63.5t-37.5 -60.5zM1484 787l-210 128q11 20 24.5 43.5
t28 46.5t28 43t22.5 34q22 -13 49.5 -29.5t56 -35t56 -36.5t48.5 -32q-9 -17 -21.5 -38.5t-26.5 -44t-29 -43.5t-26 -36zM1145 0q-23 0 -50 1t-53.5 2.5t-50 3t-39.5 1.5q-38 0 -68 -5t-50.5 -12t-31 -14.5t-10.5 -13.5q0 -5 7.5 -10t21.5 -10t32 -10t38 -10
q42 -11 76.5 -21t59 -23.5t38.5 -31.5t14 -44q0 -27 -5 -55.5t-15 -55t-23 -48t-29 -33.5q-52 -42 -121 -78.5t-144.5 -62.5t-153 -41t-148.5 -15q-69 0 -134 20.5t-114.5 63.5t-80 110.5t-30.5 161.5q0 41 8.5 97t30 116t57 119.5t89.5 109.5q29 25 43 25q6 0 6 -8
t-5.5 -23.5t-22.5 -37.5q-30 -42 -50.5 -85.5t-33.5 -83t-18 -73t-5 -55.5q0 -52 19 -95.5t59 -77t101.5 -52t146.5 -18.5q48 0 107 11t116 26t107 32.5t83 32.5v4q-31 9 -65.5 18.5t-66.5 18t-58.5 17t-41.5 15.5q-31 13 -48 30.5t-17 48.5q0 14 7.5 42t23 62.5t37.5 71.5
t51 67q47 49 120.5 79t169.5 30h120q13 0 36.5 -1t53 -2t60.5 -3t60 -2.5t52 -1.5t35 -1q42 0 79 1.5t69 6.5q0 22 -10 49t-26 56.5t-37.5 58.5t-44.5 53q47 96 122 215q49 -54 80 -117.5t49 -131t25 -137t7 -134.5q0 -46 -8 -77t-27.5 -48.5t-52 -24.5t-81.5 -7
q-58 0 -126 2t-130.5 4.5t-112.5 5t-72 2.5h-6z" />
    <glyph glyph-name="uniFEF4_uniFEAE.liga" unicode="&#xfef4;&#xfeae;" horiz-adv-x="1379" 
d="M761 0q-3 -23 -6 -48q-12 -70 -35.5 -140.5t-58 -135.5t-80 -115.5t-102.5 -81t-125 -30.5q-47 0 -92 21t-86 55t-75.5 75.5t-57.5 82.5q-43 75 -43 92q0 8 10 8q7 0 17 -7q145 -90 246 -90q71 0 132 25t109.5 69t85.5 102.5t61 125.5q-22 55 -69.5 113t-117.5 116
q20 54 49.5 112t62.5 108q51 -44 86 -84.5t56 -83.5q12 -26 21 -55h22q13 0 37 -1t53 -2t60.5 -3t60 -2.5t51.5 -1.5t35 -1q42 0 79 1.5t69 6.5q0 22 -9.5 49t-25.5 56.5t-37.5 58.5t-45.5 53q47 96 122 215q49 -54 80 -117.5t49.5 -131t25 -137t6.5 -134.5q0 -46 -7.5 -77
t-27 -48.5t-52.5 -24.5t-82 -7q-58 0 -126 2t-130.5 4.5t-112 5t-72.5 2.5h-10zM1016 -491l-200 121q10 19 21 39.5t22.5 40.5t22.5 38.5t22 32.5q49 -25 96 -54.5t94 -60.5l71 120q58 -31 108.5 -61.5t87.5 -55.5q-23 -39 -44.5 -76t-45.5 -72q-22 12 -46.5 27.5t-48.5 30
t-46 28.5t-40 26q-18 -32 -36.5 -64t-37.5 -60z" />
    <glyph glyph-name="uniFEF3_uniFEE4.liga" unicode="&#xfef3;&#xfee4;" horiz-adv-x="1647" 
d="M491 315q39 -38 87.5 -62t95 -37.5t86 -18.5t61.5 -5q6 0 6 6t-4.5 25t-15 44.5t-26 53t-37 51t-48.5 39t-60 15.5q-19 0 -39 -8.5t-39.5 -23.5t-37 -35t-29.5 -44zM918 2q-39 -38 -123 -38q-37 0 -91 8t-113 25.5t-114.5 45t-95.5 67.5q-28 -41 -57 -63.5t-62 -32.5
t-72.5 -12t-89.5 -2h-99q-30 0 -46.5 1.5t-24.5 5.5q-20 9 -26.5 36t-6.5 74q0 91 20 105q8 4 27 8t57 4h66q85 0 138.5 4t90 20t62 47.5t53.5 86.5q25 49 51.5 92.5t57 76t67.5 51.5t84 19q51 0 92 -27.5t73 -71t56 -98t40 -109.5q13 -48 20 -91q12 0 32 -1q24 -1 53 -2
t60.5 -3t60.5 -2.5t51.5 -1.5t34.5 -1q42 0 79 1.5t69 6.5q0 22 -9.5 49t-25.5 56.5t-37.5 58.5t-45.5 53q47 96 122 215q49 -54 80.5 -117.5t49.5 -131t24.5 -137t6.5 -134.5q0 -46 -7.5 -77t-27 -48.5t-52.5 -24.5t-81 -7q-59 0 -127 2t-130.5 4.5t-112 5t-72.5 2.5
q-15 1 -29 2zM1192 -491l-200 121q10 19 21 39.5t22.5 40.5t22.5 38.5t22 32.5q49 -25 96.5 -54.5t93.5 -60.5l71 120q58 -31 108.5 -61.5t87.5 -55.5q-22 -39 -43.5 -76t-46.5 -72q-22 12 -46.5 27.5t-48.5 30t-46 28.5t-39 26q-19 -32 -37.5 -64t-37.5 -60z" />
    <glyph glyph-name="uniFEF4_uniFEE6.liga" unicode="&#xfef4;&#xfee6;" horiz-adv-x="1639" 
d="M635 613l-223 136q11 21 25.5 45.5t30.5 49t30 46t24 35.5q23 -13 52 -31t59 -37.5t59.5 -38.5t51.5 -33q-8 -19 -22 -42t-29 -46t-30 -45t-28 -39zM1279 -491l-200 121q10 19 21 39.5t22.5 40.5t22.5 38.5t22 32.5q49 -25 96.5 -54.5t93.5 -60.5l71 120
q58 -31 108.5 -61.5t87.5 -55.5q-23 -39 -44.5 -76t-45.5 -72q-22 12 -46.5 27.5t-48.5 30t-46 28.5t-40 26q-18 -32 -36.5 -64t-37.5 -60zM1045 0q-2 -19 -5 -35q-9 -59 -23.5 -106t-33.5 -83.5t-40 -62.5q-32 -38 -86.5 -73.5t-120.5 -63.5t-136.5 -45t-133.5 -17
q-97 0 -172.5 26.5t-126.5 75t-77.5 119.5t-26.5 160q0 51 9.5 105t26 105.5t39.5 98.5t50 85q23 34 41.5 50t29.5 16q9 0 9 -10q0 -7 -7.5 -28t-25.5 -57q-14 -26 -25 -57t-20 -64.5t-14 -65.5t-5 -57q0 -63 21.5 -111t61 -81t95 -50t122.5 -17q60 0 121.5 10t120 30
t111.5 50.5t96 71.5q0 47 -7.5 99.5t-25 106t-47 106t-73.5 101.5q37 66 70.5 121.5t64.5 99.5q73 -89 110 -209q16 -54 25 -110q13 0 34 -1q24 -1 53 -2t60.5 -3t60 -2.5t51.5 -1.5t35 -1q42 0 79 1.5t69 6.5q0 22 -9.5 49t-25.5 56.5t-37.5 58.5t-45.5 53q47 96 122 215
q49 -54 80.5 -117.5t49.5 -131t24.5 -137t6.5 -134.5q0 -46 -7.5 -77t-27 -48.5t-52.5 -24.5t-81 -7q-59 0 -127 2t-130.5 4.5t-111.5 5.5q-40 1 -62 2z" />
    <glyph glyph-name="T_h.liga" unicode="Th" horiz-adv-x="1775" 
d="M975 735q-2 130 -71 184.5t-135.5 56t-127.5 1.5v-847q0 -18 4.5 -29t16 -18t34.5 -10t59 -3h50v-70h-599v70h50q70 0 92 13t22 47v847q-61 0 -103 -22t-69.5 -58.5t-45 -85t-30.5 -99.5l-90 24q6 23 13 61.5t11.5 81.5t7 86.5t0.5 81.5l1123 1q-6 -31 -6 -56v-358
q0 -16 4 -16q6 0 26 19t65.5 47t83 43t83.5 15q103 0 153.5 -53t50.5 -149v-442q0 -11 7 -17t20 -9.5t31 -5t38 -2.5v-64h-381v64q35 2 57 7t22 27v412q0 63 -32 85q-31 23 -70 23q-26 0 -54 -13t-51 -35t-38 -52.5t-15 -63.5v-356q0 -22 26 -27t66 -7v-64h-403v64
q49 2 77 7t28 27v637z" />
    <glyph glyph-name="f_b.liga" unicode="fb" horiz-adv-x="1442" 
d="M862 190q0 -40 14 -67t34 -44.5t43 -25t39 -7.5q47 0 78.5 28t51.5 74t30.5 107t10.5 125q0 53 -9.5 103.5t-28.5 87.5t-47 60t-66 23q-32 0 -59 -17t-47 -38t-32 -42t-12 -27v-340zM656 634h-315v-526q0 -45 152 -45h12v-63h-462v63q91 3 91 45v526h-91v70h91v97
q0 128 88 208q84 76 211 76q80 0 117 -36h22q68 1 123 8q30 4 56 11q21 4 39 9t26 8h54q-2 -15 -5 -41.5t-3 -51.5v-313q0 -11 1 -17t10 -6q6 0 10.5 5t10.5 11q36 32 82 51t102 19q76 0 135 -30.5t98 -81t59 -117.5t20 -143q0 -59 -17 -127.5t-61 -126.5t-116.5 -96
t-181.5 -38q-55 0 -103.5 11t-93.5 24t-87 24t-84 11q8 20 9 52t1 68v462zM656 704v244q0 29 -40 29q-20 0 -35 -3h-3q0 -38 -21 -69q-24 -35 -61 -35q-43 0 -82 63q-38 65 -71 65q-49 0 -49 -66q0 -12 23 -86q24 -73 24 -142h315z" />
    <glyph glyph-name="f_f_b.liga" unicode="ffb" horiz-adv-x="1946" 
d="M1370 190q0 -40 14 -67t34 -44.5t43 -25t38 -7.5q47 0 79 28t52 74t30 107t10 125q0 53 -9 103.5t-28 87.5t-47 60t-66 23q-32 0 -59 -17t-47 -38t-32 -42t-12 -27v-340zM1164 704v244q0 29 -40 29q-20 0 -36 -3h-2q0 -38 -21 -69q-24 -35 -61 -35q-43 0 -82 63
q-39 65 -72 65q-49 0 -49 -66q0 -12 24 -86q23 -73 23 -142h316zM341 634v-526q0 -10 4 -18t20 -13t45 -9t83 -4h12v-64h-462v64q40 2 66 8t26 36v526h-92v70h92v97q0 65 23 117.5t63 89.5t95 57t116 20q31 0 56.5 -5.5t46 -19t32.5 -35t12 -56.5q0 -17 -7 -35t-18 -32.5
t-25.5 -23t-31.5 -8.5q-32 0 -50 19t-32 44t-30 45t-42 20q-22 0 -36 -18t-14 -49q0 -15 8 -36t16 -48t16 -62t8 -81h300v97q0 128 88 208q84 76 212 76q79 0 116 -36h23q68 1 123 8q30 4 55 11q22 4 40 9t26 8h53q-2 -15 -4.5 -41.5t-2.5 -51.5v-313q0 -11 1 -17t9 -6
q6 0 11 5l11 11q36 32 82 51t101 19q76 0 135.5 -30.5t98.5 -81t59 -117.5t20 -143q0 -59 -17 -127.5t-61 -126.5t-117 -96t-181 -38q-56 0 -104 11t-93 24t-87 24t-84 11q8 20 9 52t1 68v462h-316v-526q0 -45 153 -45h11v-63h-461v63q90 3 90 45v526h-300z" />
    <glyph glyph-name="f_f.liga" unicode="ff" horiz-adv-x="1093" 
d="M341 634v-526q0 -10 4 -18t20 -13t45 -9t83 -4h12v-64h-462v64q40 2 66 8t26 36v526h-92v70h92v97q0 65 23 117.5t63 89.5t95 57t116 20q31 0 56.5 -5.5t46 -19t32.5 -35t12 -56.5q0 -17 -7 -35t-18 -32.5t-25.5 -23t-31.5 -8.5q-32 0 -50 19t-32 44t-30 45t-42 20
q-22 0 -36 -18t-14 -49q0 -15 8 -36t16 -48t16 -62t8 -81h301v97q0 65 23 117.5t63 89.5t95.5 57t116.5 20q30 0 56 -5.5t46 -19t32.5 -35t12.5 -56.5q0 -17 -7 -35t-18.5 -32.5t-25.5 -23t-31 -8.5q-33 0 -51 19t-31.5 44t-29.5 45t-43 20q-21 0 -35 -18t-14 -49
q0 -15 7.5 -36t16 -48t16 -62t7.5 -81h216v-70h-216v-526q0 -10 4 -18t20 -13t45.5 -9t83.5 -4h11v-64h-461v64q40 2 65.5 8t25.5 36v526h-301z" />
    <glyph glyph-name="f_h.liga" unicode="fh" horiz-adv-x="1460" 
d="M662 634h-321v-526q0 -45 152 -45h12v-63h-462v63q91 3 91 45v526h-91v70h91v97q0 128 88 208q84 76 211 76q80 0 117 -36h22q93 2 159 13q22 4 40 9q41 11 49 14h56q-4 -15 -6 -41.5t-2 -51.5v-358q0 -16 4 -16q6 0 26 19t65 47t83 43t83 15q104 0 154 -53t50 -149v-442
q0 -11 7.5 -17t20.5 -9.5t31 -5t38 -2.5v-64h-382v64q36 2 58 7t22 27v412q0 63 -32 85q-31 23 -70 23q-26 0 -54 -13t-51 -35t-38 -52.5t-15 -63.5v-356q0 -22 26 -27t66 -7v-64h-404v64q50 2 78 7t28 27v536zM662 704v244q0 29 -40 29q-16 0 -31 -3q-7 -1 -13 -2
q-1 -37 -21 -67q-24 -35 -61 -35q-43 0 -82 63q-38 65 -71 65q-49 0 -49 -66q0 -12 23 -86q24 -73 24 -142h321z" />
    <glyph glyph-name="f_f_h.liga" unicode="ffh" horiz-adv-x="1972" 
d="M1169 704v244q0 29 -40 29q-15 0 -31 -3q-7 -1 -12 -2q-1 -37 -21 -67q-24 -35 -61 -35q-43 0 -82 63q-39 65 -72 65q-49 0 -49 -66q0 -12 24 -86q23 -73 23 -142h321zM341 634v-526q0 -10 4 -18t20 -13t45 -9t83 -4h12v-64h-462v64q40 2 66 8t26 36v526h-92v70h92v97
q0 65 23 117.5t63 89.5t95 57t116 20q31 0 56.5 -5.5t46 -19t32.5 -35t12 -56.5q0 -17 -7 -35t-18 -32.5t-25.5 -23t-31.5 -8.5q-32 0 -50 19t-32 44t-30 45t-42 20q-22 0 -36 -18t-14 -49q0 -15 8 -36t16 -48t16 -62t8 -81h300v97q0 128 88 208q84 76 212 76q79 0 116 -36
h23q92 2 159 13q21 4 40 9q41 11 49 14h55q-4 -15 -6 -41.5t-2 -51.5v-358q0 -16 4 -16q6 0 26 19t65.5 47t83 43t83.5 15q104 0 154 -53t50 -149v-442q0 -11 7.5 -17t20 -9.5t30.5 -5t39 -2.5v-64h-382v64q35 2 57 7t22 27v412q0 63 -31 85q-31 23 -70 23q-27 0 -54.5 -13
t-50.5 -35t-38.5 -52.5t-15.5 -63.5v-356q0 -22 26 -27t66 -7v-64h-403v64q50 2 77.5 7t27.5 27v536h-321v-526q0 -45 153 -45h11v-63h-461v63q90 3 90 45v526h-300z" />
    <glyph glyph-name="f_f_i.liga" unicode="ffi" horiz-adv-x="1511" 
d="M1182 1054q33 31 89 31t90 -31q33 -30 33 -78q0 -49 -33 -80q-34 -31 -90 -31q-55 0 -89 31t-34 80q0 48 34 78zM341 634v-526q0 -10 4 -18t20 -13t45 -9t83 -4h12v-64h-462v64q40 2 66 8t26 36v526h-92v70h92v97q0 65 23 117.5t63 89.5t95 57t116 20q31 0 56.5 -5.5
t46 -19t32.5 -35t12 -56.5q0 -17 -7 -35t-18 -32.5t-25.5 -23t-31.5 -8.5q-32 0 -50 19t-32 44t-30 45t-42 20q-22 0 -36 -18t-14 -49q0 -15 8 -36t16 -48t16 -62t8 -81h300v97q0 128 88 208q84 76 212 76q145 0 145 -115q0 -37 -24 -68q-24 -32 -58 -32q-43 0 -82 63
q-39 65 -72 65q-49 0 -49 -66q0 -12 24 -86q23 -73 23 -142h232q115 2 185 19q42 9 68 19h52q-8 -33 -8 -95v-549q0 -32 103 -35v-63h-422v63q112 3 112 35v507q0 25 -22 29h-300v-526q0 -45 153 -45h11v-63h-461v63q90 3 90 45v526h-300z" />
    <glyph glyph-name="f_j.liga" unicode="fj" horiz-adv-x="1013" 
d="M675 1054q33 31 88 31q56 0 90 -31q33 -30 33 -78q0 -49 -33 -80q-34 -31 -90 -31q-54 0 -88 31q-35 31 -35 80q0 48 35 78zM742 719l16 4h2q21 4 39 9.5t28 9.5h53q-2 -17 -4 -42.5t-2 -51.5v-468q0 -50 5.5 -101t5.5 -101q0 -68 -21.5 -120t-61 -86t-91.5 -52t-110 -18
q-82 0 -126.5 40t-44.5 98q0 42 21.5 71t58.5 29q36 0 50.5 -25t26.5 -54t27.5 -54t48.5 -25q47 0 62.5 22t15.5 54q0 28 -11.5 52t-26 57t-26 80t-11.5 121l-3 437q0 13 -7 21q-10 8 -30 8h-285v-526q0 -45 152 -45h12v-63h-462v63q91 3 91 45v526h-91v70h91v97
q0 128 88 208q84 76 211 76q145 0 145 -115q0 -37 -23 -68q-25 -32 -59 -32q-43 0 -82 63q-38 65 -71 65q-49 0 -49 -66q0 -12 23 -86q24 -73 24 -142h237q99 2 164 15z" />
    <glyph glyph-name="f_f_j.liga" unicode="ffj" horiz-adv-x="1515" 
d="M1182 1054q33 31 89 31t90 -31q33 -30 33 -78q0 -49 -33 -80q-34 -31 -90 -31q-55 0 -89 31t-34 80q0 48 34 78zM341 634v-526q0 -10 4 -18t20 -13t45 -9t83 -4h12v-64h-462v64q40 2 66 8t26 36v526h-92v70h92v97q0 65 23 117.5t63 89.5t95 57t116 20q31 0 56.5 -5.5
t46 -19t32.5 -35t12 -56.5q0 -17 -7 -35t-18 -32.5t-25.5 -23t-31.5 -8.5q-32 0 -50 19t-32 44t-30 45t-42 20q-22 0 -36 -18t-14 -49q0 -15 8 -36t16 -48t16 -62t8 -81h300v97q0 128 88 208q84 76 212 76q145 0 145 -115q0 -37 -24 -68q-24 -32 -58 -32q-43 0 -82 63
q-39 65 -72 65q-49 0 -49 -66q0 -12 24 -86q23 -73 23 -142h238q98 2 164 15q7 2 15 4h2q22 4 40 9.5t27 9.5h53q-2 -17 -4 -42.5t-2 -51.5v-468q0 -50 6 -101t6 -101q0 -68 -22 -120t-61 -86t-91 -52t-110 -18q-82 0 -127 40t-45 98q0 42 22 71t58 29t51 -25t27 -54t27 -54
t48 -25q47 0 63 22t16 54q0 28 -12 52t-26 57t-26 80t-12 121l-3 437q0 13 -6 21q-10 8 -31 8h-285v-526q0 -45 153 -45h11v-63h-461v63q90 3 90 45v526h-300z" />
    <glyph glyph-name="f_k.liga" unicode="fk" horiz-adv-x="1455" 
d="M662 634h-321v-526q0 -45 152 -45h12v-63h-462v63q91 3 91 45v526h-91v70h91v97q0 128 88 208q84 76 211 76q80 0 117 -36h22q83 2 145 10q21 4 40 9q19 4 38 9t27 8h54q-4 -15 -6 -41.5t-2 -51.5v-588q0 -22 18 -22q16 0 34 20l158 157q12 13 21 23t9 21q0 15 -8 21
t-20 9.5t-24 4.5t-20 1v65h336v-65q-40 0 -84 -7.5t-80 -43.5l-130 -128q-4 -6 -9 -10t-5 -10q0 -7 5 -9.5t7 -8.5l266 -324q22 -26 40 -30t40 -4v-64h-262l-246 326l-13 13t-17 7q-16 0 -16 -18v-230q0 -22 28 -27t82 -7v-64h-434v64q58 2 88 7t30 27v536zM662 704v244
q0 29 -40 29q-20 0 -38 -3q-3 0 -6 -1q0 -37 -21 -68q-24 -35 -61 -35q-43 0 -82 63q-38 65 -71 65q-49 0 -49 -66q0 -12 23 -86q24 -73 24 -142h321z" />
    <glyph glyph-name="f_f_k.liga" unicode="ffk" horiz-adv-x="1964" 
d="M1169 704v244q0 29 -40 29q-19 0 -38 -3q-3 0 -5 -1q0 -37 -21 -68q-24 -35 -61 -35q-43 0 -82 63q-39 65 -72 65q-49 0 -49 -66q0 -12 24 -86q23 -73 23 -142h321zM341 634v-526q0 -10 4 -18t20 -13t45 -9t83 -4h12v-64h-462v64q40 2 66 8t26 36v526h-92v70h92v97
q0 65 23 117.5t63 89.5t95 57t116 20q31 0 56.5 -5.5t46 -19t32.5 -35t12 -56.5q0 -17 -7 -35t-18 -32.5t-25.5 -23t-31.5 -8.5q-32 0 -50 19t-32 44t-30 45t-42 20q-22 0 -36 -18t-14 -49q0 -15 8 -36t16 -48t16 -62t8 -81h300v97q0 128 88 208q84 76 212 76q79 0 116 -36
h23q83 2 144 10q22 4 40 9q20 4 39 9t27 8h53q-4 -15 -6 -41.5t-2 -51.5v-588q0 -22 19 -22q16 0 33 20l158 157q13 13 22 23t9 21q0 15 -8 21t-20 9.5t-24.5 4.5t-20.5 1v65h336v-65q-40 0 -84 -7.5t-80 -43.5l-130 -128q-4 -6 -8.5 -10t-4.5 -10q0 -7 4.5 -9.5t6.5 -8.5
l267 -324q21 -26 39 -30t41 -4v-64h-263l-246 326q-6 6 -12.5 13t-16.5 7q-17 0 -17 -18v-230q0 -22 28.5 -27t82.5 -7v-64h-435v64q59 2 88.5 7t29.5 27v536h-321v-526q0 -45 153 -45h11v-63h-461v63q90 3 90 45v526h-300z" />
    <glyph glyph-name="f_f_l.liga" unicode="ffl" horiz-adv-x="1507" 
d="M1170 949q0 30 -39 30q-25 0 -45 -5q0 -38 -21 -69q-24 -35 -61 -35q-43 0 -82 63q-39 65 -72 65q-49 0 -49 -66q0 -12 24 -86q23 -73 23 -142h322v245zM341 634v-526q0 -10 4 -18t20 -13t45 -9t83 -4h12v-64h-462v64q40 2 66 8t26 36v526h-92v70h92v97q0 65 23 117.5
t63 89.5t95 57t116 20q31 0 56.5 -5.5t46 -19t32.5 -35t12 -56.5q0 -17 -7 -35t-18 -32.5t-25.5 -23t-31.5 -8.5q-32 0 -50 19t-32 44t-30 45t-42 20q-22 0 -36 -18t-14 -49q0 -15 8 -36t16 -48t16 -62t8 -81h300v97q0 128 88 208q84 76 212 76q79 0 116 -36h23
q112 2 185 18q42 9 68 18h52q-8 -33 -8 -94v-893q0 -32 103 -35v-63h-422v63q112 3 112 35v536h-322v-526q0 -45 153 -45h11v-63h-461v63q90 3 90 45v526h-300z" />
    <glyph glyph-name="f_t.liga" unicode="ft" horiz-adv-x="1101" 
d="M580 704q18 12 37 25q36 27 66 59t53.5 67.5t39.5 69.5h82q0 -11 -1 -32t-1 -40v-149h212v-70h-212v-456q0 -62 32.5 -85t72.5 -23q36 0 65.5 9t46.5 17v-70q-19 -10 -43.5 -18t-53.5 -13t-59.5 -9t-58.5 -4q-56 0 -95 17t-63.5 48t-38 70t-13.5 83v434h-307v-526
q0 -10 4 -18t20 -13t45 -9t83 -4h12v-64h-462v64q40 2 66 8t26 36v526h-92v70h92v97q0 65 23 117.5t63 89.5t95 57t116 20q31 0 56.5 -5.5t46 -19t32.5 -35t12 -56.5q0 -17 -7 -35t-18 -32.5t-25.5 -23t-31.5 -8.5q-32 0 -50 19t-32 44t-30 45t-42 20q-22 0 -36 -18t-14 -49
q0 -15 8 -36t16 -48t16 -62t8 -81h239z" />
    <glyph glyph-name="f_f_t.liga" unicode="fft" horiz-adv-x="1605" 
d="M341 634v-526q0 -10 4 -18t20 -13t45 -9t83 -4h12v-64h-462v64q40 2 66 8t26 36v526h-92v70h92v97q0 65 23 117.5t63 89.5t95 57t116 20q31 0 56.5 -5.5t46 -19t32.5 -35t12 -56.5q0 -17 -7 -35t-18 -32.5t-25.5 -23t-31.5 -8.5q-32 0 -50 19t-32 44t-30 45t-42 20
q-22 0 -36 -18t-14 -49q0 -15 8 -36t16 -48t16 -62t8 -81h301v97q0 65 23 117.5t63 89.5t95.5 57t116.5 20q30 0 56 -5.5t46 -19t32.5 -35t12.5 -56.5q0 -17 -7 -35t-18.5 -32.5t-25.5 -23t-31 -8.5q-33 0 -51 19t-31.5 44t-29.5 45t-43 20q-21 0 -35 -18t-14 -49
q0 -15 7.5 -36t16 -48t16 -62t7.5 -81h239q19 12 38 25q36 27 65.5 59t53.5 67.5t40 69.5h82q0 -11 -1 -32t-1 -40v-149h212v-70h-212v-456q0 -62 32 -85t72 -23q36 0 66 9t46 17v-70q-18 -10 -43 -18t-53.5 -13t-59 -9t-58.5 -4q-56 0 -95 17t-64 48t-38 70t-13 83v434
h-308v-526q0 -10 4 -18t20 -13t45.5 -9t83.5 -4h11v-64h-461v64q40 2 65.5 8t25.5 36v526h-301z" />
    <glyph glyph-name="uni0647.fina" unicode="&#x647;" horiz-adv-x="1031" arabic-form="final" 
d="M469 235q83 1 149.5 6.5t112.5 18t70.5 34.5t24.5 57q0 17 -4 39.5t-15.5 42.5t-30.5 33.5t-48 13.5q-20 0 -48.5 -9.5t-63.5 -37t-72.5 -75t-74.5 -123.5zM441 6q13 -45 45.5 -86t75 -72t90 -49t89.5 -18q21 0 41 3.5t35.5 11.5t25 20t9.5 30q0 7 -4.5 22t-15 34t-30 39
t-49 36.5t-71.5 27.5t-99 11q-10 0 -28.5 -0.5t-39 -2t-41 -3.5t-33.5 -4zM65 -103q15 69 30 116t29 78t27.5 49.5t23.5 30.5q18 18 36.5 30t41 18.5t50.5 9.5t64 5q20 59 50 118.5t65.5 113.5t75.5 101.5t82.5 82.5t84.5 55t82 20q19 0 42 -14t43 -42t34 -68.5t14 -93.5
q0 -77 -17.5 -151t-51.5 -133l3 -4q25 5 43.5 7.5t35.5 4.5t35.5 2.5t42.5 0.5v-234q-11 0 -20.5 0.5t-18.5 1.5t-19.5 3t-25.5 5q11 -24 15.5 -50.5t4.5 -56.5q0 -56 -17 -115t-50 -107.5t-81.5 -79.5t-112.5 -31q-58 0 -121.5 31t-117.5 87t-90 134.5t-39 174.5
q-43 -2 -79 -9.5t-68 -20t-62 -31t-60 -42.5z" />
    <glyph glyph-name="uni0672.fina" unicode="&#x672;" horiz-adv-x="459" 
d="M460 234v-234h-120q-132 0 -173 74q-13 27 -27 148q-7 61 -18 190.5t-26 332.5l-17 230q53 50 98.5 86t81.5 62q8 -193 14 -334t9 -234.5t5.5 -143.5t2.5 -60q1 -33 5 -55.5t12.5 -36t21 -19.5t32.5 -6h99zM334 1373q-8 -39 -14.5 -71t-12.5 -51q-53 -15 -87 -30
t-56 -29.5t-34.5 -26.5t-23.5 -21t-22.5 -14t-31.5 -5q-15 0 -29 3t-27 3q-9 0 -19 -2t-21.5 -8.5t-26 -20.5t-31.5 -36l-3 1q-1 9 -1 13v8q0 45 9.5 76.5t23.5 51.5t31 29t34 9t39.5 -7.5t47.5 -7.5q15 0 25 6q-44 22 -68 48t-24 65q0 28 17.5 57.5t44.5 53t59 38t62 14.5
q29 0 52.5 -15.5t23.5 -48.5q0 -16 -7.5 -31.5t-29.5 -25.5q-22 18 -36.5 24.5t-37.5 6.5q-26 0 -43 -9.5t-17 -23.5q0 -11 9.5 -23t24.5 -23t32 -17.5t32 -6.5q19 0 52.5 15t83.5 32z" />
    <glyph glyph-name="uni0673.fina" unicode="&#x673;" horiz-adv-x="490" 
d="M490 234v-234h-151q-131 0 -172 74q-14 27 -28 148q-6 61 -17.5 190.5t-26.5 332.5l-16 230q53 50 98 86t81 62q8 -193 14 -334t9.5 -234.5t6 -143.5t2.5 -60q1 -33 4.5 -55.5t12 -36t21 -19.5t32.5 -6h130zM472 -220q-8 -39 -14.5 -71t-12.5 -51q-53 -15 -87 -30.5
t-56 -29.5t-34.5 -26t-23.5 -21t-22.5 -14.5t-31.5 -5.5q-15 0 -29 3.5t-27 3.5q-9 0 -19 -2t-21.5 -8.5t-26 -20.5t-31.5 -36l-3 1q-1 9 -1 13v8q0 45 9.5 76.5t23.5 51.5t31 29t34 9t39.5 -7.5t47.5 -7.5q15 0 25 6q-44 22 -68 48t-24 65q0 28 17.5 57.5t44.5 53t59 38
t62 14.5q29 0 52.5 -15.5t23.5 -48.5q0 -16 -7.5 -31.5t-29.5 -25.5q-22 18 -36.5 24.5t-37.5 6.5q-26 0 -43 -10t-17 -23q0 -11 9.5 -23t24.5 -23t32 -17.5t32 -6.5q19 0 52.5 15t83.5 32z" />
    <glyph glyph-name="uni0675.fina" unicode="&#x675;" horiz-adv-x="695" 
d="M695 234v-234h-355q-132 0 -173 74q-14 27 -27 148q-7 61 -18.5 190.5t-25.5 332.5l-17 230q53 50 98 86t82 62q7 -193 13 -334t9.5 -234.5t6 -143.5t2.5 -60q1 -33 5 -55.5t12 -36t21 -19.5t32 -6h335zM701 1201q-9 -39 -19 -73t-17 -51q-66 -20 -113.5 -34.5t-84.5 -30
t-65 -33.5t-55 -46q-1 13 -1.5 25t-0.5 23q0 31 9.5 56.5t32.5 40.5q-26 19 -40.5 41t-14.5 52q0 31 16.5 62.5t44.5 58t65 43t78 16.5q34 0 60 -16t26 -47q0 -21 -12 -38.5t-35 -28.5q-21 20 -45 32t-42 12q-27 0 -43 -12.5t-16 -25.5q0 -16 10 -30.5t24.5 -25t31 -17.5
t31.5 -7q10 0 28 4.5t41 12t50.5 17t55.5 20.5z" />
    <glyph glyph-name="uni0676.fina" unicode="&#x676;" horiz-adv-x="1104" 
d="M1104 234v-234h-240q-18 -102 -58 -198.5t-98 -171t-131.5 -119.5t-158.5 -45q-56 0 -114.5 27.5t-113 69.5t-102 90.5t-80.5 92.5q-4 5 -6 8.5t-2 8.5q0 9 9 9q7 0 21 -7q32 -16 70.5 -30t76 -24.5t71.5 -16.5t59 -6q68 0 133.5 20.5t123 58.5t103.5 91.5t73 120.5
q-78 2 -145 12t-116 36.5t-76 74t-27 126.5t22.5 150t58 125t80 86t88.5 32q47 0 87 -34t71.5 -89.5t53 -124t31.5 -139.5h236zM752 215q-9 40 -27 76.5t-41 64t-49.5 43.5t-52.5 16q-17 0 -33.5 -9.5t-29.5 -23.5t-21.5 -30.5t-8.5 -31.5q0 -20 17 -39t50.5 -34t82 -23.5
t113.5 -8.5zM1104 984q-9 -39 -19 -72.5t-17 -51.5q-65 -20 -113 -34.5t-84.5 -30t-65 -33.5t-54.5 -45q-1 12 -2 24.5t-1 22.5q0 32 9.5 57t33.5 40q-27 20 -41.5 41.5t-14.5 52.5q0 30 16.5 61.5t44.5 58t65 43t78 16.5q34 0 60 -16t26 -47q0 -21 -11.5 -38.5t-35.5 -28.5
q-20 20 -44.5 32t-42.5 12q-27 0 -42.5 -12.5t-15.5 -25.5q0 -15 9.5 -30t24 -25.5t31.5 -17.5t31 -7q10 0 28 4.5t41 12.5t50.5 17t55.5 20z" />
    <glyph glyph-name="uni0677.fina" unicode="&#x677;" horiz-adv-x="1104" 
d="M1104 234v-234h-240q-18 -102 -58 -198.5t-98 -171t-131.5 -119.5t-158.5 -45q-56 0 -114.5 27.5t-113 69.5t-102 90.5t-80.5 92.5q-4 5 -6 8.5t-2 8.5q0 9 9 9q7 0 21 -7q32 -16 70.5 -30t76 -24.5t71.5 -16.5t59 -6q68 0 133.5 20.5t123 58.5t103.5 91.5t73 120.5
q-78 2 -145 12t-116 36.5t-76 74t-27 126.5t22.5 150t58 125t80 86t88.5 32q47 0 87 -34t71.5 -89.5t53 -124t31.5 -139.5h236zM752 215q-9 40 -27 76.5t-41 64t-49.5 43.5t-52.5 16q-17 0 -33.5 -9.5t-29.5 -23.5t-21.5 -30.5t-8.5 -31.5q0 -20 17 -39t50.5 -34t82 -23.5
t113.5 -8.5zM1104 984q-9 -39 -19 -72.5t-17 -51.5q-65 -20 -113 -34.5t-84.5 -30t-65 -33.5t-54.5 -45q-1 12 -2 24.5t-1 22.5q0 32 9.5 57t33.5 40q-27 20 -41.5 41.5t-14.5 52.5q0 30 16.5 61.5t44.5 58t65 43t78 16.5q34 0 60 -16t26 -47q0 -21 -11.5 -38.5t-35.5 -28.5
q-20 20 -44.5 32t-42.5 12q-27 0 -42.5 -12.5t-15.5 -25.5q0 -15 9.5 -30t24 -25.5t31.5 -17.5t31 -7q10 0 28 4.5t41 12.5t50.5 17t55.5 20zM336 893q-50 13 -80 28.5t-45.5 32.5t-20.5 34t-5 34q0 39 17.5 76t43 66.5t56.5 47.5t57 18q22 0 42 -11t35 -34.5t24.5 -61.5
t9.5 -90q0 -67 -22.5 -115t-57.5 -83q-22 -24 -59 -45t-73.5 -36.5t-66 -24.5t-36.5 -9q-6 0 -22 6.5t-35.5 17t-38 22t-29.5 23.5q48 10 94.5 22.5t87.5 26t73 28t51 27.5zM409 992q0 26 -4.5 51.5t-14 45t-24 31.5t-33.5 12q-14 0 -28 -4.5t-25.5 -11.5t-18 -16t-6.5 -15
q0 -8 6 -18.5t23.5 -22.5t47.5 -26t77 -26z" />
    <glyph glyph-name="uni0678.init" unicode="&#x678;" horiz-adv-x="918" 
d="M450 663q48 -54 79.5 -117.5t49.5 -131t25 -137t7 -134.5q0 -46 -8 -77t-27.5 -48.5t-52 -24.5t-81.5 -7q-59 0 -127 2t-130.5 4.5t-112 5t-72.5 2.5q-25 1 -43.5 3t-26.5 6q-20 9 -26.5 35t-6.5 73t5.5 72t14.5 33q17 12 83 12q13 0 37 -1t53.5 -2t60.5 -3t60 -2.5
t52 -1.5t34 -1q42 0 79 1.5t70 6.5q0 22 -10 49t-26 56.5t-37.5 58.5t-45.5 53q47 96 123 215zM919 962q-9 -40 -19 -73.5t-17 -50.5q-65 -20 -113 -34.5t-84.5 -30t-65 -34t-54.5 -45.5q-1 13 -2 25t-1 23q0 31 9.5 56.5t33.5 40.5q-27 19 -41.5 41t-14.5 52
q0 31 16.5 62.5t44.5 58t65 43t78 16.5q34 0 60 -16t26 -48q0 -20 -11.5 -37.5t-35.5 -28.5q-20 20 -44.5 32t-42.5 12q-27 0 -42.5 -12.5t-15.5 -25.5q0 -16 9.5 -30.5t24 -25t31.5 -17.5t31 -7q10 0 28 4.5t41 12t50.5 17t55.5 20.5z" />
    <glyph glyph-name="uni0678.medi" unicode="&#x678;" horiz-adv-x="918" 
d="M919 234v-234h-282q-51 0 -74 9q-20 -12 -49.5 -17t-71.5 -6q-59 0 -127 2t-130.5 4.5t-112 5t-72.5 2.5q-25 1 -43.5 3t-26.5 6q-20 9 -26.5 35t-6.5 73t5.5 72t14.5 33q17 12 83 12q13 0 37 -1t53.5 -2t60.5 -3t60 -2.5t52 -1.5t34 -1q42 0 79 1.5t70 6.5q0 22 -10 49
t-26 56.5t-37.5 58.5t-45.5 53q47 96 123 215q40 -45 68 -96.5t46.5 -106.5t28.5 -112.5t14 -113.5h312zM919 961q-9 -39 -19 -73t-17 -51q-65 -20 -113 -34.5t-84.5 -30t-65 -34t-54.5 -45.5q-1 13 -2 25t-1 23q0 31 9.5 56.5t33.5 40.5q-27 19 -41.5 41t-14.5 52
q0 31 16.5 62.5t44.5 58t65 43t78 16.5q34 0 60 -16t26 -48q0 -20 -11.5 -37.5t-35.5 -28.5q-20 20 -44.5 32t-42.5 12q-27 0 -42.5 -12.5t-15.5 -25.5q0 -16 9.5 -30.5t24 -25t31.5 -17.5t31 -7q10 0 28 4.5t41 12t50.5 17t55.5 20.5z" />
    <glyph glyph-name="uni0678.fina" unicode="&#x678;" horiz-adv-x="1316" 
d="M1316 234v-234h-171q-23 0 -50 1t-53.5 2.5t-50 3t-39.5 1.5q-38 0 -68 -5t-50.5 -12t-31 -14.5t-10.5 -13.5q0 -5 7.5 -10t21.5 -10t32 -10t38 -10q42 -11 76.5 -21t59 -23.5t38.5 -31.5t14 -44q0 -27 -5 -55.5t-15 -55t-23 -48t-29 -33.5q-52 -42 -121 -78.5
t-144.5 -62.5t-153 -41t-148.5 -15q-69 0 -134 20.5t-114.5 63.5t-80 110.5t-30.5 161.5q0 41 8.5 97t30 116t57 119.5t89.5 109.5q29 25 43 25q6 0 6 -8t-5.5 -23.5t-22.5 -37.5q-30 -42 -50.5 -85.5t-33.5 -83t-18 -73t-5 -55.5q0 -52 19 -95.5t59 -77t101.5 -52
t146.5 -18.5q48 0 107 11t116 26t107 32.5t83 32.5v4q-31 9 -65.5 18.5t-66.5 18t-58.5 17t-41.5 15.5q-31 13 -48 30.5t-17 48.5q0 14 7.5 42t23 62.5t37.5 71.5t51 67q47 49 120.5 79t169.5 30h285zM1316 912q-9 -39 -19 -73t-17 -51q-66 -20 -113.5 -34.5t-84.5 -30
t-65 -33.5t-55 -46q0 13 -1 25t-1 23q0 31 9.5 56.5t33.5 40.5q-27 19 -41.5 41t-14.5 52q0 31 16.5 62.5t44.5 58t65 43t78 16.5q34 0 60 -16t26 -47q0 -21 -12 -38.5t-35 -28.5q-21 20 -45 32t-42 12q-27 0 -43 -12.5t-16 -25.5q0 -16 10 -30.5t24.5 -25t31 -17.5t31.5 -7
q10 0 28 4.5t41 12t50.5 17t55.5 20.5z" />
    <glyph glyph-name="uni067C.init" unicode="&#x67c;" horiz-adv-x="688" 
d="M302 -275q-58 0 -90.5 35t-32.5 90q0 38 12 75.5t34 65.5q-38 1 -72.5 3t-64.5 3t-52.5 2t-35.5 1q-25 1 -43.5 3t-26.5 6q-20 9 -26.5 35t-6.5 73t5.5 72t14.5 33q17 12 83 12q13 0 37 -1t53.5 -2t60.5 -3t60 -2.5t52 -1.5t34 -1q42 0 79 1.5t70 6.5q0 22 -10 49
t-26 56.5t-37.5 58.5t-45.5 53q47 96 123 215q48 -54 79.5 -117.5t49.5 -131t25 -137t7 -134.5q0 -46 -8 -77t-27.5 -48.5t-52 -24.5t-81.5 -7h-18q13 -18 19.5 -39.5t6.5 -43.5q0 -33 -7.5 -64.5t-25 -57t-46 -41t-69.5 -15.5zM211 745l-171 134q25 34 53.5 71t54.5 64
l168 -123l93 120q50 -34 94.5 -66.5t76.5 -59.5l-104 -138q-20 12 -42 29t-44 33.5t-42.5 32.5t-36.5 29zM312 -27q-14 0 -27 -9.5t-24 -23.5t-17 -30t-6 -30q0 -27 20 -41.5t48 -14.5q16 0 31 2.5t26.5 8.5t19 16t7.5 26q0 13 -6 29.5t-16 31t-24.5 25t-31.5 10.5z" />
    <glyph glyph-name="uni067C.medi" unicode="&#x67c;" horiz-adv-x="610" 
d="M302 -275q-58 0 -90.5 35t-32.5 90q0 38 12 75.5t34 65.5q-38 1 -72.5 3t-64.5 3t-52.5 2t-35.5 1q-25 1 -43.5 3t-26.5 6q-20 9 -26.5 35t-6.5 73t5.5 72t14.5 33q17 12 83 12q13 0 37 -1t53.5 -2t60.5 -3t60 -2.5t52 -1.5t34 -1q42 0 79 1.5t70 6.5q0 22 -10 49
t-26 56.5t-37.5 58.5t-45.5 53q47 96 123 215q48 -54 79.5 -117.5t49.5 -131t25 -137t7 -134.5q0 -46 -8 -77t-27.5 -48.5t-52 -24.5t-81.5 -7h-18q13 -18 19.5 -39.5t6.5 -43.5q0 -33 -7.5 -64.5t-25 -57t-46 -41t-69.5 -15.5zM211 745l-171 134q25 34 53.5 71t54.5 64
l168 -123l93 120q50 -34 94.5 -66.5t76.5 -59.5l-104 -138q-20 12 -42 29t-44 33.5t-42.5 32.5t-36.5 29zM312 -27q-14 0 -27 -9.5t-24 -23.5t-17 -30t-6 -30q0 -27 20 -41.5t48 -14.5q16 0 31 2.5t26.5 8.5t19 16t7.5 26q0 13 -6 29.5t-16 31t-24.5 25t-31.5 10.5z" />
    <glyph glyph-name="uni067C.fina" unicode="&#x67c;" horiz-adv-x="1300" 
d="M1160 207q-3 22 -15.5 49.5t-31 56t-43 56t-53.5 51.5q20 47 53.5 103.5t70.5 114.5q77 -77 118 -187t41 -261q0 -67 -7 -110.5t-15 -56.5q-8 -10 -28.5 -17.5t-57.5 -16.5q-31 -8 -75.5 -15.5t-97 -15.5t-109.5 -14.5t-114 -12.5q17 -21 26 -45.5t9 -48.5q0 -33 -8 -65
t-25.5 -57t-46 -41t-69.5 -16q-58 0 -90.5 35.5t-32.5 89.5q0 36 11 71.5t30 63.5q-8 0 -15 -0.5t-14 -0.5q-127 0 -219.5 18.5t-153.5 57t-90.5 98.5t-29.5 143q0 33 7 70.5t18 74t25 69.5t28.5 59t27.5 41t22 15q5 0 6 -4t1 -7q0 -16 -2.5 -33t-6.5 -35q-5 -22 -9 -44
t-4 -45q0 -60 24 -106t77 -76.5t138.5 -46.5t208.5 -16q51 0 118.5 4t138 11.5t140 18t124.5 23.5zM558 573l-171 134q25 34 53.5 71t54.5 64l168 -123l93 121q50 -35 94.5 -67.5t76.5 -58.5l-104 -139q-20 13 -42 29.5t-44.5 33t-43 32.5t-35.5 29zM692 -94q-14 0 -27 -9
t-23.5 -23.5t-17 -30.5t-6.5 -29q0 -28 20 -42t48 -14q16 0 31 2.5t26.5 8.5t19 16t7.5 26q0 12 -6 29t-16 31.5t-24 24.5t-32 10z" />
    <glyph glyph-name="uni067D.init" unicode="&#x67d;" horiz-adv-x="688" 
d="M450 663q48 -54 79.5 -117.5t49.5 -131t25 -137t7 -134.5q0 -46 -8 -77t-27.5 -48.5t-52 -24.5t-81.5 -7q-59 0 -127 2t-130.5 4.5t-112 5t-72.5 2.5q-25 1 -43.5 3t-26.5 6q-20 9 -26.5 35t-6.5 73t5.5 72t14.5 33q17 12 83 12q13 0 37 -1t53.5 -2t60.5 -3t60 -2.5
t52 -1.5t34 -1q42 0 79 1.5t70 6.5q0 22 -10 49t-26 56.5t-37.5 58.5t-45.5 53q47 96 123 215zM346 1266l92 -60t90 -60q-24 -37 -44.5 -69.5t-46.5 -66.5q-43 28 -84.5 54.5t-88.5 57.5q-41 -64 -79 -115q-41 27 -86.5 58.5t-89.5 63.5l25 37.5t26 37.5t24 32.5t19 23.5
q40 -27 80 -54.5t80 -54.5q21 26 41 55.5t42 59.5zM288 1022q45 -31 89 -59t85 -55q-19 -34 -41.5 -68.5t-50.5 -65.5l-174 115q5 9 14.5 24t22 33.5t27 38.5t28.5 37z" />
    <glyph glyph-name="uni067D.medi" unicode="&#x67d;" horiz-adv-x="610" 
d="M450 663q48 -54 79.5 -117.5t49.5 -131t25 -137t7 -134.5q0 -46 -8 -77t-27.5 -48.5t-52 -24.5t-81.5 -7q-59 0 -127 2t-130.5 4.5t-112 5t-72.5 2.5q-25 1 -43.5 3t-26.5 6q-20 9 -26.5 35t-6.5 73t5.5 72t14.5 33q17 12 83 12q13 0 37 -1t53.5 -2t60.5 -3t60 -2.5
t52 -1.5t34 -1q42 0 79 1.5t70 6.5q0 22 -10 49t-26 56.5t-37.5 58.5t-45.5 53q47 96 123 215zM346 1266l92 -60t90 -60q-24 -37 -44.5 -69.5t-46.5 -66.5q-43 28 -84.5 54.5t-88.5 57.5q-41 -64 -79 -115q-41 27 -86.5 58.5t-89.5 63.5l25 37.5t26 37.5t24 32.5t19 23.5
q40 -27 80 -54.5t80 -54.5q21 26 41 55.5t42 59.5zM288 1022q45 -31 89 -59t85 -55q-19 -34 -41.5 -68.5t-50.5 -65.5l-174 115q5 9 14.5 24t22 33.5t27 38.5t28.5 37z" />
    <glyph glyph-name="uni067D.fina" unicode="&#x67d;" horiz-adv-x="1300" 
d="M1160 207q-3 22 -15.5 49.5t-31 56t-43 56t-53.5 51.5q20 47 53.5 103.5t70.5 114.5q77 -77 118 -187t41 -261q0 -67 -7 -110.5t-15 -56.5q-8 -10 -28.5 -17.5t-57.5 -16.5q-32 -8 -78.5 -16t-101 -16t-114 -15t-117.5 -12.5t-112 -9t-98 -3.5q-127 0 -219.5 18.5
t-153.5 57t-90.5 98.5t-29.5 143q0 33 7 70.5t18 74t25 69.5t28.5 59t27.5 41t22 15q5 0 6 -4t1 -7q0 -16 -2.5 -33t-6.5 -35q-5 -22 -9 -44t-4 -45q0 -60 24 -106t77 -76.5t138.5 -46.5t208.5 -16q51 0 118.5 4t138 11.5t140 18t124.5 23.5zM682 1066l92 -60t90 -60
q-24 -37 -44.5 -70t-46.5 -66q-43 28 -84.5 54.5t-88.5 57.5q-41 -64 -79 -115q-41 27 -86.5 58.5t-89.5 63.5q12 18 25.5 37.5t26 37.5t23.5 32.5t19 23.5q40 -27 80 -54.5t80 -54.5q21 26 41 55.5t42 59.5zM625 822q45 -31 88.5 -59t84.5 -55q-19 -34 -41.5 -68.5
t-49.5 -65.5l-175 115q5 9 14.5 24t22.5 33.5t27 38.5t29 37z" />
    <glyph glyph-name="uni0681.init" unicode="&#x681;" horiz-adv-x="1339" 
d="M0 0q-39 0 -60 5t-28 15q-15 21 -15 91q0 80 14 102q6 11 27 16t62 5q47 0 93 -2t97.5 -4t111.5 -3.5t135 -1.5q92 0 192.5 3t213.5 16v9q-54 55 -103.5 99t-96.5 76t-90.5 49t-82.5 17q-40 0 -87.5 -16t-114.5 -55q-13 -8 -20.5 -11.5t-14.5 -3.5t-7 5q0 1 1 4
q7 20 23.5 46.5t38 53t43.5 50t39 36.5q43 34 90 51.5t94 17.5q44 0 81 -11.5t74.5 -34.5t78.5 -57.5t92 -81.5q39 -37 70 -64.5t55 -48t44 -34.5t39 -24q22 -11 49 -17.5t72 -6.5h21q10 0 31 2q-5 -32 -9 -72.5t-12.5 -77t-22 -62t-37.5 -29.5q-79 -13 -162.5 -23.5
t-175.5 -18t-194 -12t-218 -4.5q-20 0 -52.5 0.5t-72 1t-83 1t-85 1.5t-77.5 1.5t-61 1.5zM464 804q-1 20 -1 27v17q0 21 2 36.5t8 28.5q7 13 15.5 22t21.5 19q-31 22 -50 45t-19 60q0 27 18 59.5t47 60.5t67 47t78 19q37 0 63 -18.5t26 -49.5q0 -16 -10 -34.5t-39 -33.5
q-43 38 -84 38q-12 0 -23.5 -2.5t-22 -7.5t-17 -12.5t-6.5 -18.5t10.5 -25t25.5 -27t33 -22.5t35 -9.5q12 0 33.5 6.5t48 15t55.5 19t54 18.5q-20 -78 -37 -120q-69 -22 -119 -39t-87.5 -34.5t-67 -37t-56.5 -47.5z" />
    <glyph glyph-name="uni0681.medi" unicode="&#x681;" horiz-adv-x="1230" 
d="M0 0q-39 0 -60 5t-28 15q-15 21 -15 91q0 80 14 102q6 11 27 16t62 5q13 0 45 -2t77 -4.5t101.5 -5.5t118.5 -5.5t126 -4.5t126 -2q64 0 122.5 2t115.5 8v6q-54 57 -103.5 103t-94.5 77t-87 48t-81 17q-21 0 -47 -5t-53.5 -14t-53.5 -20.5t-48 -24.5q-13 -8 -20.5 -10.5
t-14.5 -2.5t-7 5q0 1 1 4q7 21 24.5 47.5t39 53t43.5 49t38 35.5q82 65 180 65q42 0 79.5 -11.5t75 -34.5t77 -56.5t85.5 -75.5q68 -62 113 -106t83 -73t76.5 -44t93.5 -18v-234q-2 0 -26.5 -1t-67 -3t-99 -3.5t-121.5 -3.5t-136.5 -3t-142.5 -1q-184 0 -338 4.5t-300 10.5z
M460 790q-1 19 -1 26v18q0 20 2 35.5t8 28.5q7 14 15.5 22.5t21.5 18.5q-31 23 -50 45.5t-19 59.5q0 28 18 60t47.5 60t67 47t77.5 19q37 0 63.5 -18.5t26.5 -48.5q0 -17 -10.5 -35.5t-39.5 -33.5q-43 38 -84 38q-12 0 -23.5 -2.5t-22 -7t-17 -12.5t-6.5 -19
q0 -10 10.5 -24.5t25.5 -27.5t33 -22.5t35 -9.5q12 0 34 6.5t48 15.5t55 19t54 18q-20 -78 -37 -120q-69 -22 -119 -39t-87.5 -34.5t-66.5 -37t-57 -46.5z" />
    <glyph glyph-name="uni0681.fina" unicode="&#x681;" horiz-adv-x="1200" 
d="M556 441v3q-53 19 -109.5 37t-107.5 18q-23 0 -47.5 -5t-52.5 -19.5t-60 -41t-71 -68.5q-7 -7 -14.5 -12.5t-14.5 -5.5q-9 0 -12 6t-1 12q11 56 35 105t47 86q29 48 62 81t66 53t65 28.5t62 8.5q69 0 126 -19.5t116 -43.5q31 -14 63.5 -26.5t68.5 -23t75.5 -16.5t85.5 -6
q19 0 47.5 1t57 3t54.5 5t42 7q6 2 6 -3q-6 -22 -16.5 -52t-23.5 -61t-26.5 -61.5t-26.5 -53.5q-18 -2 -35 -3t-33 -3q-2 -5 -3 -11t-1 -12q0 -35 17.5 -57t44 -34.5t56.5 -17.5t56 -5h46v-234h-62q-56 0 -101.5 12.5t-76.5 39.5t-48 69t-17 101q0 28 5.5 64.5t16.5 77.5
q-158 -20 -281.5 -64t-208 -106t-128.5 -139t-44 -165q0 -25 6.5 -59t24.5 -70.5t50 -72.5t83 -65t124 -46.5t171 -17.5q59 0 119.5 5.5t119 16t112 23.5t98.5 28q11 4 21 4q17 0 17 -16q0 -7 -3 -11.5t-10 -14.5q-65 -75 -138.5 -127.5t-150.5 -84.5t-153 -46t-145 -14
q-102 0 -185.5 32t-143.5 91.5t-92.5 143.5t-32.5 187q0 132 37 239t95.5 190t131.5 142t145 94zM465 827q-1 19 -1 26v18q0 20 2 35.5t8 28.5q7 14 15.5 22.5t21.5 18.5q-31 23 -50 45.5t-19 60.5q0 27 18 59t47 60t67 47t78 19q37 0 63 -18.5t26 -48.5q0 -17 -10 -35.5
t-39 -33.5q-43 38 -84 38q-12 0 -23.5 -2t-22 -7t-17 -13t-6.5 -19q0 -10 10.5 -24.5t25.5 -27.5t33 -22.5t35 -9.5q12 0 34 6.5t48 15.5t55 19t54 18q-20 -78 -37 -120q-69 -21 -119 -38.5t-87.5 -35t-67 -37t-56.5 -46.5z" />
    <glyph glyph-name="uni0682.init" unicode="&#x682;" horiz-adv-x="1339" 
d="M0 0q-39 0 -60 5t-28 15q-15 21 -15 91q0 80 14 102q6 11 27 16t62 5q47 0 93 -2t97.5 -4t111.5 -3.5t135 -1.5q92 0 192.5 3t213.5 16v9q-54 55 -103.5 99t-96.5 76t-90.5 49t-82.5 17q-40 0 -87.5 -16t-114.5 -55q-13 -8 -20.5 -11.5t-14.5 -3.5t-7 5q0 1 1 4
q7 20 23.5 46.5t38 53t43.5 50t39 36.5q43 34 90 51.5t94 17.5q44 0 81 -11.5t74.5 -34.5t78.5 -57.5t92 -81.5q39 -37 70 -64.5t55 -48t44 -34.5t39 -24q22 -11 49 -17.5t72 -6.5h21q10 0 31 2q-5 -32 -9 -72.5t-12.5 -77t-22 -62t-37.5 -29.5q-79 -13 -162.5 -23.5
t-175.5 -18t-194 -12t-218 -4.5q-20 0 -52.5 0.5t-72 1t-83 1t-85 1.5t-77.5 1.5t-61 1.5zM649 1092q-47 31 -94 60t-95 57q23 38 45 75.5t45 68.5q44 -26 93 -56.5t95 -57.5q-21 -37 -43.5 -73.5t-45.5 -73.5zM698 819q-48 29 -95.5 59.5t-97.5 64.5q11 19 21 35.5t21 33
t22 33.5t24 37q44 -28 95 -59.5t98 -59.5q-19 -36 -40 -70t-48 -74z" />
    <glyph glyph-name="uni0682.medi" unicode="&#x682;" horiz-adv-x="1230" 
d="M0 0q-39 0 -60 5t-28 15q-15 21 -15 91q0 80 14 102q6 11 27 16t62 5q13 0 45 -2t77 -4.5t101.5 -5.5t118.5 -5.5t126 -4.5t126 -2q64 0 122.5 2t115.5 8v6q-54 57 -103.5 103t-94.5 77t-87 48t-81 17q-21 0 -47 -5t-53.5 -14t-53.5 -20.5t-48 -24.5q-13 -8 -20.5 -10.5
t-14.5 -2.5t-7 5q0 1 1 4q7 21 24.5 47.5t39 53t43.5 49t38 35.5q82 65 180 65q42 0 79.5 -11.5t75 -34.5t77 -56.5t85.5 -75.5q68 -62 113 -106t83 -73t76.5 -44t93.5 -18v-234q-2 0 -26.5 -1t-67 -3t-99 -3.5t-121.5 -3.5t-136.5 -3t-142.5 -1q-184 0 -338 4.5t-300 10.5z
M638 1085q-47 30 -94 59l-94 58q22 37 44 74.5t45 68.5q44 -26 93 -56.5t96 -57.5q-22 -37 -44.5 -73t-45.5 -73zM688 811q-49 29 -96.5 59.5t-97.5 64.5q11 19 21.5 35.5l21 33t22 33.5t23.5 37q44 -28 95.5 -59.5t98.5 -58.5q-20 -36 -41 -70.5t-47 -74.5z" />
    <glyph glyph-name="uni0682.fina" unicode="&#x682;" horiz-adv-x="1200" 
d="M556 441v3q-53 19 -109.5 37t-107.5 18q-23 0 -47.5 -5t-52.5 -19.5t-60 -41t-71 -68.5q-7 -7 -14.5 -12.5t-14.5 -5.5q-9 0 -12 6t-1 12q11 56 35 105t47 86q29 48 62 81t66 53t65 28.5t62 8.5q69 0 126 -19.5t116 -43.5q31 -14 63.5 -26.5t68.5 -23t75.5 -16.5t85.5 -6
q19 0 47.5 1t57 3t54.5 5t42 7q6 2 6 -3q-6 -22 -16.5 -52t-23.5 -61t-26.5 -61.5t-26.5 -53.5q-18 -2 -35 -3t-33 -3q-2 -5 -3 -11t-1 -12q0 -35 17.5 -57t44 -34.5t56.5 -17.5t56 -5h46v-234h-62q-56 0 -101.5 12.5t-76.5 39.5t-48 69t-17 101q0 28 5.5 64.5t16.5 77.5
q-158 -20 -281.5 -64t-208 -106t-128.5 -139t-44 -165q0 -25 6.5 -59t24.5 -70.5t50 -72.5t83 -65t124 -46.5t171 -17.5q59 0 119.5 5.5t119 16t112 23.5t98.5 28q11 4 21 4q17 0 17 -16q0 -7 -3 -11.5t-10 -14.5q-65 -75 -138.5 -127.5t-150.5 -84.5t-153 -46t-145 -14
q-102 0 -185.5 32t-143.5 91.5t-92.5 143.5t-32.5 187q0 132 37 239t95.5 190t131.5 142t145 94zM666 1089q-47 31 -93.5 60t-94.5 58q22 37 44 74.5t46 68.5q44 -26 92.5 -56.5t95.5 -57.5q-21 -37 -43.5 -73.5t-46.5 -73.5zM716 816q-49 29 -96 59.5t-97 64.5
q11 19 21 35.5t21 33t22 33.5t24 37q44 -28 95 -59.5t98 -58.5q-20 -37 -41 -71t-47 -74z" />
    <glyph glyph-name="uni0685.init" unicode="&#x685;" horiz-adv-x="1339" 
d="M0 0q-39 0 -60 5t-28 15q-15 21 -15 91q0 80 14 102q6 11 27 16t62 5q47 0 93 -2t97.5 -4t111.5 -3.5t135 -1.5q92 0 192.5 3t213.5 16v9q-54 55 -103.5 99t-96.5 76t-90.5 49t-82.5 17q-40 0 -87.5 -16t-114.5 -55q-13 -8 -20.5 -11.5t-14.5 -3.5t-7 5q0 1 1 4
q7 20 23.5 46.5t38 53t43.5 50t39 36.5q43 34 90 51.5t94 17.5q44 0 81 -11.5t74.5 -34.5t78.5 -57.5t92 -81.5q39 -37 70 -64.5t55 -48t44 -34.5t39 -24q22 -11 49 -17.5t72 -6.5h21q10 0 31 2q-5 -32 -9 -72.5t-12.5 -77t-22 -62t-37.5 -29.5q-79 -13 -162.5 -23.5
t-175.5 -18t-194 -12t-218 -4.5q-20 0 -52.5 0.5t-72 1t-83 1t-85 1.5t-77.5 1.5t-61 1.5zM569 816l-94 56t-93 56q23 39 42 72.5t44 67.5q44 -25 86.5 -50.5t90.5 -54.5q19 33 37.5 62t36.5 56q42 -26 89.5 -55t91.5 -61q-11 -18 -23.5 -37.5t-24.5 -38t-22.5 -34
t-17.5 -23.5q-41 25 -82.5 51t-82.5 51q-20 -27 -39 -57t-39 -61zM613 1071q-47 28 -91 54t-87 51q18 35 39 69.5t47 65.5l177 -106q-4 -9 -13 -24t-20.5 -34.5t-25 -39t-26.5 -36.5z" />
    <glyph glyph-name="uni0685.medi" unicode="&#x685;" horiz-adv-x="1230" 
d="M0 0q-39 0 -60 5t-28 15q-15 21 -15 91q0 80 14 102q6 11 27 16t62 5q13 0 45 -2t77 -4.5t101.5 -5.5t118.5 -5.5t126 -4.5t126 -2q64 0 122.5 2t115.5 8v6q-54 57 -103.5 103t-94.5 77t-87 48t-81 17q-21 0 -47 -5t-53.5 -14t-53.5 -20.5t-48 -24.5q-13 -8 -20.5 -10.5
t-14.5 -2.5t-7 5q0 1 1 4q7 21 24.5 47.5t39 53t43.5 49t38 35.5q82 65 180 65q42 0 79.5 -11.5t75 -34.5t77 -56.5t85.5 -75.5q68 -62 113 -106t83 -73t76.5 -44t93.5 -18v-234q-2 0 -26.5 -1t-67 -3t-99 -3.5t-121.5 -3.5t-136.5 -3t-142.5 -1q-184 0 -338 4.5t-300 10.5z
M566 811q-47 29 -94 56.5t-93 55.5q23 40 42 73t44 67q44 -25 86.5 -50.5t90.5 -53.5q19 32 37.5 61t36.5 56q42 -26 89.5 -55t91.5 -60q-11 -19 -23.5 -38.5t-24.5 -38t-22.5 -33.5t-17.5 -24q-41 25 -82.5 51t-82.5 51q-20 -27 -39 -57t-39 -61zM610 1066q-47 28 -91 54
t-87 51q18 36 39 70t47 65l178 -106q-5 -9 -14 -24t-20.5 -34t-25 -38.5t-26.5 -37.5z" />
    <glyph glyph-name="uni0685.fina" unicode="&#x685;" horiz-adv-x="1200" 
d="M556 441v3q-53 19 -109.5 37t-107.5 18q-23 0 -47.5 -5t-52.5 -19.5t-60 -41t-71 -68.5q-7 -7 -14.5 -12.5t-14.5 -5.5q-9 0 -12 6t-1 12q11 56 35 105t47 86q29 48 62 81t66 53t65 28.5t62 8.5q69 0 126 -19.5t116 -43.5q31 -14 63.5 -26.5t68.5 -23t75.5 -16.5t85.5 -6
q19 0 47.5 1t57 3t54.5 5t42 7q6 2 6 -3q-6 -22 -16.5 -52t-23.5 -61t-26.5 -61.5t-26.5 -53.5q-18 -2 -35 -3t-33 -3q-2 -5 -3 -11t-1 -12q0 -35 17.5 -57t44 -34.5t56.5 -17.5t56 -5h46v-234h-62q-56 0 -101.5 12.5t-76.5 39.5t-48 69t-17 101q0 28 5.5 64.5t16.5 77.5
q-158 -20 -281.5 -64t-208 -106t-128.5 -139t-44 -165q0 -25 6.5 -59t24.5 -70.5t50 -72.5t83 -65t124 -46.5t171 -17.5q59 0 119.5 5.5t119 16t112 23.5t98.5 28q11 4 21 4q17 0 17 -16q0 -7 -3 -11.5t-10 -14.5q-65 -75 -138.5 -127.5t-150.5 -84.5t-153 -46t-145 -14
q-102 0 -185.5 32t-143.5 91.5t-92.5 143.5t-32.5 187q0 132 37 239t95.5 190t131.5 142t145 94zM589 831q-47 28 -93.5 56t-92.5 56q22 39 41 72t45 68q44 -26 86 -51.5t90 -53.5q20 32 38.5 61.5t36.5 55.5q41 -25 88.5 -54.5t91.5 -60.5q-11 -18 -23 -38t-24 -38.5
t-23 -33.5t-18 -24q-41 26 -82.5 51.5t-82.5 51.5q-19 -27 -38 -57t-40 -61zM633 1085q-47 29 -91 55t-87 51q19 35 40 69t46 66l178 -107q-5 -9 -13.5 -24t-20.5 -34t-25 -38.5t-27 -37.5z" />
    <glyph glyph-name="uni0689.fina" unicode="&#x689;" horiz-adv-x="680" 
d="M429 -316q-58 0 -90.5 35t-32.5 90q0 33 9 65t26 59q-38 -5 -68 -7.5t-49 -2.5q-148 0 -148 179q0 74 16 155q15 85 29 85q8 0 12 -14t6.5 -32t4.5 -37t5 -30q4 -14 13 -27.5t23.5 -23t36 -15t52.5 -5.5q21 0 58 4.5t76.5 11.5t75.5 15.5t56 16.5q-8 165 -145 340
q41 104 111 212q174 -259 174 -615q0 -113 -14 -133q-8 -11 -44 -22.5t-86 -22.5q19 -21 30.5 -48t11.5 -55q0 -33 -8 -64.5t-25.5 -57t-46 -41t-69.5 -15.5zM439 -68q-14 0 -27 -9.5t-23.5 -23.5t-17 -30t-6.5 -30q0 -27 20 -41.5t48 -14.5q16 0 31 2.5t27 8.5t19 16t7 26
q0 13 -5.5 29.5t-16 31t-24.5 25t-32 10.5z" />
    <glyph glyph-name="uni068A.fina" unicode="&#x68a;" horiz-adv-x="680" 
d="M395 546q41 104 111 212q174 -259 174 -615q0 -113 -14 -133q-7 -10 -36.5 -20t-71 -19.5t-90.5 -18.5t-96 -15t-86.5 -10t-61.5 -4q-148 0 -148 179q0 74 16 155q15 85 29 85q8 0 12 -14t6.5 -32t4.5 -37t5 -30q4 -14 13 -27.5t23.5 -23t36 -15t52.5 -5.5q21 0 58 4.5
t76.5 11.5t75.5 15.5t56 16.5q-8 165 -145 340zM471 -537l-210 128q11 20 25 43.5t28.5 46.5t27.5 43t23 34q21 -13 49 -29.5t56.5 -35t55.5 -36t49 -32.5q-9 -16 -21.5 -37.5t-27 -44t-29 -43.5t-26.5 -37z" />
    <glyph glyph-name="uni068B.fina" unicode="&#x68b;" horiz-adv-x="680" 
d="M395 546q41 104 111 212q174 -259 174 -615q0 -113 -14 -133q-7 -10 -36.5 -20t-71 -19.5t-90.5 -18.5t-96 -15t-86.5 -10t-61.5 -4q-148 0 -148 179q0 74 16 155q15 85 29 85q8 0 12 -14t6.5 -32t4.5 -37t5 -30q4 -14 13 -27.5t23.5 -23t36 -15t52.5 -5.5q21 0 58 4.5
t76.5 11.5t75.5 15.5t56 16.5q-8 165 -145 340zM295 1008q9 -1 26.5 -2t35.5 -1.5t34 -0.5h28q26 0 49 1.5t40.5 4t27.5 6t10 7.5q0 3 -6 15t-18.5 26.5t-31.5 25t-45 10.5q-55 0 -151 -91zM327 1366q4 -43 6.5 -80.5t2.5 -71.5q0 -36 -3.5 -63.5t-8.5 -47.5l2 -2
q17 19 36 36t38 30t39 21t40 8q27 0 50 -16t40.5 -41t26.5 -54.5t9 -55.5q0 -41 -12 -71t-35 -38q-7 -3 -17.5 -6.5t-28 -7t-44 -5.5t-64.5 -2q-15 0 -38.5 0.5t-51.5 2.5t-58 5.5t-56 10.5q-23 13 -45.5 46.5t-37.5 64.5q4 0 11.5 -0.5t15.5 -1t15 -1t10 -0.5q43 0 59.5 10
t16.5 42q0 34 -5 84.5t-13 113.5q21 19 47.5 44t52.5 46zM471 -537l-210 128q11 20 25 43.5t28.5 46.5t27.5 43t23 34q21 -13 49 -29.5t56.5 -35t55.5 -36t49 -32.5q-9 -16 -21.5 -37.5t-27 -44t-29 -43.5t-26.5 -37z" />
    <glyph glyph-name="uni068F.fina" unicode="&#x68f;" horiz-adv-x="680" 
d="M395 546q41 104 111 212q174 -259 174 -615q0 -113 -14 -133q-7 -10 -36.5 -20t-71 -19.5t-90.5 -18.5t-96 -15t-86.5 -10t-61.5 -4q-148 0 -148 179q0 74 16 155q15 85 29 85q8 0 12 -14t6.5 -32t4.5 -37t5 -30q4 -14 13 -27.5t23.5 -23t36 -15t52.5 -5.5q21 0 58 4.5
t76.5 11.5t75.5 15.5t56 16.5q-8 165 -145 340zM420 1355q45 -30 91 -60t90 -60q-23 -37 -43.5 -70t-47.5 -66q-43 27 -84.5 54t-87.5 57q-41 -63 -79 -114q-41 27 -86.5 58.5t-89.5 63.5l25 37.5t25.5 37.5t24 32.5t19.5 23.5q40 -27 80 -54.5t80 -54.5q20 26 40 55.5
t43 59.5zM362 1111q45 -31 89 -59t85 -55q-20 -34 -42.5 -68.5t-49.5 -65.5l-175 115q5 9 15 24t22.5 33.5t26.5 38.5t29 37z" />
    <glyph glyph-name="uni0690.fina" unicode="&#x690;" horiz-adv-x="680" 
d="M395 546q41 104 110 212q175 -259 175 -615q0 -113 -14 -133q-7 -10 -36.5 -20t-71 -19.5t-90.5 -18.5t-96 -15t-86.5 -10t-61.5 -4q-148 0 -148 179q0 74 16 155q15 85 29 85q8 0 12 -14t6.5 -32t4.5 -37t5 -30q4 -14 13 -27.5t23.5 -23t36 -15t52.5 -5.5q21 0 58 4.5
t76.5 11.5t75.5 15.5t56 16.5q-8 165 -145 340zM213 1123q-44 28 -89 56t-91 55l42 72t44 66q42 -26 83.5 -52t85.5 -51q10 18 18.5 32l17 28l17 28t19.5 30q16 -9 39 -21.5t48 -27t50.5 -30t47.5 -29.5q-20 -37 -41 -73t-43 -70q-19 10 -41.5 23t-46 28t-45.5 29.5
t-39 26.5zM275 863q-46 28 -91.5 57t-91.5 60q21 36 39.5 65.5t44.5 66.5q41 -26 86.5 -53t89.5 -53q10 18 19.5 32t18 27.5t18 26.5t19.5 30q17 -10 40 -23.5t48 -27.5t49.5 -29t45.5 -28q-21 -37 -39.5 -70t-40.5 -67q-23 11 -48 26t-49.5 29.5t-46 28t-36.5 23.5
q-16 -28 -34 -58.5t-41 -62.5z" />
    <glyph glyph-name="uni0692.fina" unicode="&#x692;" horiz-adv-x="766" 
d="M474 237q20 54 49.5 112t62.5 108q51 -44 86 -84.5t56 -84t29.5 -94t8.5 -113.5q0 -60 -11.5 -129.5t-35 -140t-58 -135.5t-80 -115.5t-102.5 -81t-125 -30.5q-47 0 -92 21t-86 55t-75.5 75.5t-57.5 82.5q-43 75 -43 92q0 8 10 8q7 0 17 -7q145 -90 246 -90q71 0 132 25
t109.5 69t85.5 102.5t61 125.5q-22 55 -69.5 113t-117.5 116zM525 632q-32 60 -80.5 122t-103.5 130q-5 7 -2 20t11.5 29t21.5 34t27 36q45 -57 77.5 -105.5t60.5 -102.5q25 46 59.5 98t77.5 110q5 -9 13.5 -22t16.5 -26.5t13.5 -26t8.5 -21.5q-26 -34 -51 -67t-49 -65.5
t-48.5 -67.5t-48.5 -75h-4z" />
    <glyph glyph-name="uni0693.fina" unicode="&#x693;" horiz-adv-x="766" 
d="M608 -666q-58 0 -90.5 35.5t-32.5 89.5v13t1 13q-30 -17 -63 -26.5t-69 -9.5q-47 0 -92 21t-86 55t-75.5 75.5t-57.5 82.5q-43 75 -43 92q0 8 10 8q7 0 17 -7q145 -90 246 -90q71 0 132 25t109.5 69t85.5 102.5t61 125.5q-22 55 -69.5 113t-117.5 116q20 54 49.5 112
t62.5 108q51 -44 86 -84.5t56 -84t29.5 -94t8.5 -113.5q0 -48 -7.5 -102t-23 -110.5t-37.5 -112t-52 -104.5q25 -3 45.5 -17t35 -33.5t22.5 -43t8 -45.5q0 -33 -8 -65t-25.5 -57.5t-46 -41t-69.5 -15.5zM618 -418q-14 0 -27 -9t-24 -23.5t-17 -30.5t-6 -30q0 -27 20 -41
t48 -14q16 0 31 2.5t26.5 8t19 16t7.5 26.5q0 12 -6 28.5t-16 31.5t-24.5 25t-31.5 10z" />
    <glyph glyph-name="uni0694.fina" unicode="&#x694;" horiz-adv-x="766" 
d="M474 237q20 54 49.5 112t62.5 108q51 -44 86 -84.5t56 -84t29.5 -94t8.5 -113.5q0 -60 -11.5 -129.5t-35 -140t-58 -135.5t-80 -115.5t-102.5 -81t-125 -30.5q-47 0 -92 21t-86 55t-75.5 75.5t-57.5 82.5q-43 75 -43 92q0 8 10 8q7 0 17 -7q145 -90 246 -90q71 0 132 25
t109.5 69t85.5 102.5t61 125.5q-22 55 -69.5 113t-117.5 116zM728 -874l-210 128q11 21 24.5 44.5t28.5 46t28 42.5t23 34q21 -13 49 -29.5t56.5 -35t55.5 -36t49 -32.5q-9 -16 -21.5 -37.5t-27 -44t-29 -43.5t-26.5 -37z" />
    <glyph glyph-name="uni0695.fina" unicode="&#x695;" horiz-adv-x="766" 
d="M474 237q20 54 49.5 112t62.5 108q51 -44 86 -84.5t56 -84t29.5 -94t8.5 -113.5q0 -60 -11.5 -129.5t-35 -140t-58 -135.5t-80 -115.5t-102.5 -81t-125 -30.5q-47 0 -92 21t-86 55t-75.5 75.5t-57.5 82.5q-43 75 -43 92q0 8 10 8q7 0 17 -7q145 -90 246 -90q71 0 132 25
t109.5 69t85.5 102.5t61 125.5q-22 55 -69.5 113t-117.5 116zM484 -1009q-32 60 -80.5 122t-103.5 130q-5 7 -2 20t11.5 29t21.5 34t27 36q45 -57 77.5 -105.5t60.5 -102.5q25 47 59.5 98.5t77.5 109.5q5 -9 13.5 -22t16.5 -26.5t13.5 -26t8.5 -21.5q-26 -34 -51 -67
t-49 -65.5t-48.5 -67.5t-48.5 -75h-4z" />
    <glyph glyph-name="uni0696.fina" unicode="&#x696;" horiz-adv-x="766" 
d="M474 237q20 54 49.5 112t62.5 108q51 -44 86 -84.5t56 -84t29.5 -94t8.5 -113.5q0 -60 -11.5 -129.5t-35 -140t-58 -135.5t-80 -115.5t-102.5 -81t-125 -30.5q-47 0 -92 21t-86 55t-75.5 75.5t-57.5 82.5q-43 75 -43 92q0 8 10 8q7 0 17 -7q145 -90 246 -90q71 0 132 25
t109.5 69t85.5 102.5t61 125.5q-22 55 -69.5 113t-117.5 116zM728 -874l-210 128q11 21 24.5 44.5t28.5 46t28 42.5t23 34q21 -13 49 -29.5t56.5 -35t55.5 -36t49 -32.5q-9 -16 -21.5 -37.5t-27 -44t-29 -43.5t-26.5 -37zM345 -136l-202 123q9 20 23 43t27.5 45t26.5 41.5
t23 31.5q21 -11 47 -28t53.5 -34.5t54 -34.5t46.5 -31q-8 -16 -20 -36.5t-25.5 -42t-28 -42t-25.5 -35.5z" />
    <glyph glyph-name="uni0697.fina" unicode="&#x697;" horiz-adv-x="766" 
d="M474 237q20 54 49.5 112t62.5 108q51 -44 86 -84.5t56 -84t29.5 -94t8.5 -113.5q0 -60 -11.5 -129.5t-35 -140t-58 -135.5t-80 -115.5t-102.5 -81t-125 -30.5q-47 0 -92 21t-86 55t-75.5 75.5t-57.5 82.5q-43 75 -43 92q0 8 10 8q7 0 17 -7q145 -90 246 -90q71 0 132 25
t109.5 69t85.5 102.5t61 125.5q-22 55 -69.5 113t-117.5 116zM341 623l-200 121q9 18 20.5 38.5t22.5 40.5t22.5 39t21.5 33q49 -25 96.5 -54.5t94.5 -60.5l70 120q59 -31 109 -61.5t87 -55.5q-22 -39 -43.5 -76t-46.5 -72q-22 12 -46.5 27t-48.5 30t-46 29t-39 26
q-19 -32 -37.5 -64t-36.5 -60z" />
    <glyph glyph-name="uni0699.fina" unicode="&#x699;" horiz-adv-x="766" 
d="M474 237q20 54 49.5 112t62.5 108q51 -44 86 -84.5t56 -84t29.5 -94t8.5 -113.5q0 -60 -11.5 -129.5t-35 -140t-58 -135.5t-80 -115.5t-102.5 -81t-125 -30.5q-47 0 -92 21t-86 55t-75.5 75.5t-57.5 82.5q-43 75 -43 92q0 8 10 8q7 0 17 -7q145 -90 246 -90q71 0 132 25
t109.5 69t85.5 102.5t61 125.5q-22 55 -69.5 113t-117.5 116zM287 868q-44 28 -89 56t-91 55q22 36 43 72t43 66q42 -26 83.5 -51.5t85.5 -51.5q10 18 18.5 32l17 28t17.5 28t19 30q16 -8 39 -21t48.5 -27.5t50.5 -29.5t48 -30q-21 -37 -42 -72.5t-43 -70.5
q-19 10 -41.5 23.5t-45.5 28t-45 29t-40 26.5zM349 608q-45 28 -90.5 57t-92.5 60q21 36 40 65.5t44 66.5q42 -25 87.5 -52.5t89.5 -52.5q9 17 18.5 31.5t18 27.5t18 26t20.5 30q16 -10 39 -23t48 -27.5t50 -29.5t45 -28q-20 -37 -38.5 -70t-41.5 -67q-22 12 -47.5 26.5
t-50 29t-46 28t-35.5 23.5q-17 -28 -35 -58.5t-41 -62.5z" />
    <glyph glyph-name="uni069A.init" unicode="&#x69a;" horiz-adv-x="1491" 
d="M419 46q-24 -16 -49 -25t-57.5 -13.5t-76 -6t-105.5 -1.5h-131q-45 0 -63 5t-25 15q-15 22 -15 91q0 88 16 105q7 9 29.5 13.5t57.5 4.5h140q30 0 69.5 0.5t77 2t67 5.5t39.5 12q23 16 34.5 60t19.5 126q46 36 92.5 70t93.5 65q-3 -45 -10.5 -91t-19.5 -88t-28.5 -79
t-37.5 -64q37 -10 91 -14.5t110 -4.5q35 0 58 6t36 17.5t18.5 29t5.5 40.5t-4.5 52.5t-9.5 64.5q85 80 168 148q3 -20 5 -43t2 -48q0 -56 -9 -115.5t-27 -110.5q9 -9 31 -18t50 -16.5t59 -11.5t60 -4q39 0 65.5 10.5t26.5 35.5q0 13 -6 34.5t-16 46.5t-23 50.5t-26 47.5
q33 46 68 89t72 87q12 -19 25.5 -64.5t23.5 -105t16.5 -125.5t6.5 -127q0 -62 -8 -110.5t-25 -68.5q-14 -13 -47 -19t-74 -6q-100 0 -193 16.5t-183 57.5q-49 -43 -99 -58.5t-116 -15.5q-36 0 -66 3.5t-59.5 9.5t-59.5 14t-65 19zM932 790l-210 128q11 20 24.5 43.5t28 46.5
t28 43t22.5 34q22 -13 49.5 -29.5t56 -35t56 -36.5t48.5 -32q-9 -17 -21.5 -38.5t-26.5 -44t-29 -43.5t-26 -36zM982 -532l-209 128q10 20 24 43.5t28.5 46.5t27.5 43t23 34q22 -13 49.5 -29.5t56 -35t55.5 -36t49 -32.5q-9 -17 -21.5 -38.5t-27 -43.5t-29 -43t-26.5 -37z
" />
    <glyph glyph-name="uni069A.medi" unicode="&#x69a;" horiz-adv-x="1413" 
d="M419 46q-24 -16 -49 -25t-57.5 -13.5t-76 -6t-105.5 -1.5h-131q-45 0 -63 5t-25 15q-15 22 -15 91q0 88 16 105q7 9 29.5 13.5t57.5 4.5h140q30 0 69.5 0.5t77 2t67 5.5t39.5 12q23 16 34.5 60t19.5 126q46 36 92.5 70t93.5 65q-3 -45 -10.5 -91t-19.5 -88t-28.5 -79
t-37.5 -64q37 -10 91 -14.5t110 -4.5q35 0 58 6t36 17.5t18.5 29t5.5 40.5t-4.5 52.5t-9.5 64.5q85 80 168 148q3 -20 5 -43t2 -48q0 -56 -9 -115.5t-27 -110.5q9 -9 31 -18t50 -16.5t59 -11.5t60 -4q39 0 65.5 10.5t26.5 35.5q0 13 -6 34.5t-16 46.5t-23 50.5t-26 47.5
q33 46 68 89t72 87q12 -19 25.5 -64.5t23.5 -105t16.5 -125.5t6.5 -127q0 -62 -8 -110.5t-25 -68.5q-14 -13 -47 -19t-74 -6q-100 0 -193 16.5t-183 57.5q-49 -43 -99 -58.5t-116 -15.5q-36 0 -66 3.5t-59.5 9.5t-59.5 14t-65 19zM932 790l-210 128q11 20 24.5 43.5t28 46.5
t28 43t22.5 34q22 -13 49.5 -29.5t56 -35t56 -36.5t48.5 -32q-9 -17 -21.5 -38.5t-26.5 -44t-29 -43.5t-26 -36zM982 -532l-209 128q10 20 24 43.5t28.5 46.5t27.5 43t23 34q22 -13 49.5 -29.5t56 -35t55.5 -36t49 -32.5q-9 -17 -21.5 -38.5t-27 -43.5t-29 -43t-26.5 -37z
" />
    <glyph glyph-name="uni069A.fina" unicode="&#x69a;" horiz-adv-x="1805" 
d="M879 539q21 -26 39 -59t33.5 -72.5t27.5 -82.5t21 -87q31 -3 63.5 -3.5t66.5 -0.5t57 6t36 17.5t18.5 29t5.5 40.5t-4.5 52.5t-8.5 64.5q84 80 167 148q3 -20 5 -43t2 -48q0 -56 -8.5 -115.5t-27.5 -110.5q10 -9 32 -18t50 -16.5t59 -11.5t59 -4q39 0 66 10.5t27 35.5
q0 13 -6.5 34.5t-16 46.5t-23 50.5t-25.5 47.5q33 46 67.5 89t71.5 87q13 -19 26 -64.5t23.5 -105t17 -125.5t6.5 -127q0 -62 -8 -110.5t-26 -68.5q-13 -13 -46.5 -19t-74.5 -6q-99 0 -192.5 16.5t-182.5 57.5q-34 -25 -67 -39.5t-66 -22t-67 -9.5t-68 -2q-8 -71 -27 -129
t-43.5 -103.5t-51.5 -77.5t-53 -50q-27 -20 -70 -40.5t-93.5 -37t-106 -26.5t-107.5 -10q-96 0 -169 26.5t-121 75t-72.5 116.5t-24.5 151q0 49 7 96.5t20.5 93.5t35 93t50.5 97q28 47 50.5 68.5t33.5 21.5q10 0 10 -11q0 -17 -17 -50q-19 -39 -34 -73.5t-25.5 -67
t-16 -66.5t-5.5 -70q0 -58 20 -107t58 -83.5t94 -54t127 -19.5q51 0 112 9.5t119 27.5t105.5 44t71.5 59v10q0 31 -6 70.5t-21 89.5t-42.5 110.5t-69.5 133.5q32 56 65 114t68 107zM1349 785l-210 128q11 20 24.5 43.5t28 46.5t28 43t22.5 34q22 -13 49.5 -29.5t56 -35
t56 -36t48.5 -32.5q-9 -17 -21.5 -38.5t-26.5 -44t-29 -43.5t-26 -36zM1431 -532l-210 128q11 20 24.5 43.5t28 46.5t28 43t22.5 34q22 -13 49.5 -29.5t56 -35t56 -36t48.5 -32.5q-9 -17 -21.5 -38.5t-26.5 -43.5t-29 -43t-26 -37z" />
    <glyph glyph-name="uni069B.init" unicode="&#x69b;" horiz-adv-x="1491" 
d="M419 46q-24 -16 -49 -25t-57.5 -13.5t-76 -6t-105.5 -1.5h-131q-45 0 -63 5t-25 15q-15 22 -15 91q0 88 16 105q7 9 29.5 13.5t57.5 4.5h140q30 0 69.5 0.5t77 2t67 5.5t39.5 12q23 16 34.5 60t19.5 126q46 36 92.5 70t93.5 65q-3 -45 -10.5 -91t-19.5 -88t-28.5 -79
t-37.5 -64q37 -10 91 -14.5t110 -4.5q35 0 58 6t36 17.5t18.5 29t5.5 40.5t-4.5 52.5t-9.5 64.5q85 80 168 148q3 -20 5 -43t2 -48q0 -56 -9 -115.5t-27 -110.5q9 -9 31 -18t50 -16.5t59 -11.5t60 -4q39 0 65.5 10.5t26.5 35.5q0 13 -6 34.5t-16 46.5t-23 50.5t-26 47.5
q33 46 68 89t72 87q12 -19 25.5 -64.5t23.5 -105t16.5 -125.5t6.5 -127q0 -62 -8 -110.5t-25 -68.5q-14 -13 -47 -19t-74 -6q-100 0 -193 16.5t-183 57.5q-49 -43 -99 -58.5t-116 -15.5q-36 0 -66 3.5t-59.5 9.5t-59.5 14t-65 19zM1003 -136q46 -30 92 -59.5t90 -60.5
q-24 -37 -44.5 -69.5t-46.5 -65.5q-43 27 -84.5 54t-88.5 57q-41 -64 -79 -114q-41 26 -86.5 57.5t-89.5 64.5q12 17 25 36.5t26 37.5t24 33t19 23q40 -27 80 -54.5t80 -54.5q21 26 41 55.5t42 59.5zM945 -380q45 -31 89 -59t85 -55q-19 -34 -41.5 -68t-50.5 -66l-174 116
q5 8 14.5 23.5t22 34t27 38.5t28.5 36z" />
    <glyph glyph-name="uni069B.medi" unicode="&#x69b;" horiz-adv-x="1413" 
d="M419 46q-24 -16 -49 -25t-57.5 -13.5t-76 -6t-105.5 -1.5h-131q-45 0 -63 5t-25 15q-15 22 -15 91q0 88 16 105q7 9 29.5 13.5t57.5 4.5h140q30 0 69.5 0.5t77 2t67 5.5t39.5 12q23 16 34.5 60t19.5 126q46 36 92.5 70t93.5 65q-3 -45 -10.5 -91t-19.5 -88t-28.5 -79
t-37.5 -64q37 -10 91 -14.5t110 -4.5q35 0 58 6t36 17.5t18.5 29t5.5 40.5t-4.5 52.5t-9.5 64.5q85 80 168 148q3 -20 5 -43t2 -48q0 -56 -9 -115.5t-27 -110.5q9 -9 31 -18t50 -16.5t59 -11.5t60 -4q39 0 65.5 10.5t26.5 35.5q0 13 -6 34.5t-16 46.5t-23 50.5t-26 47.5
q33 46 68 89t72 87q12 -19 25.5 -64.5t23.5 -105t16.5 -125.5t6.5 -127q0 -62 -8 -110.5t-25 -68.5q-14 -13 -47 -19t-74 -6q-100 0 -193 16.5t-183 57.5q-49 -43 -99 -58.5t-116 -15.5q-36 0 -66 3.5t-59.5 9.5t-59.5 14t-65 19zM1003 -136q46 -30 92 -59.5t90 -60.5
q-24 -37 -44.5 -69.5t-46.5 -65.5q-43 27 -84.5 54t-88.5 57q-41 -64 -79 -114q-41 26 -86.5 57.5t-89.5 64.5q12 17 25 36.5t26 37.5t24 33t19 23q40 -27 80 -54.5t80 -54.5q21 26 41 55.5t42 59.5zM945 -380q45 -31 89 -59t85 -55q-19 -34 -41.5 -68t-50.5 -66l-174 116
q5 8 14.5 23.5t22 34t27 38.5t28.5 36z" />
    <glyph glyph-name="uni069B.fina" unicode="&#x69b;" horiz-adv-x="1805" 
d="M879 539q21 -26 39 -59t33.5 -72.5t27.5 -82.5t21 -87q31 -3 63.5 -3.5t66.5 -0.5t57 6t36 17.5t18.5 29t5.5 40.5t-4.5 52.5t-8.5 64.5q84 80 167 148q3 -20 5 -43t2 -48q0 -56 -8.5 -115.5t-27.5 -110.5q10 -9 32 -18t50 -16.5t59 -11.5t59 -4q39 0 66 10.5t27 35.5
q0 13 -6.5 34.5t-16 46.5t-23 50.5t-25.5 47.5q33 46 67.5 89t71.5 87q13 -19 26 -64.5t23.5 -105t17 -125.5t6.5 -127q0 -62 -8 -110.5t-26 -68.5q-13 -13 -46.5 -19t-74.5 -6q-99 0 -192.5 16.5t-182.5 57.5q-34 -25 -67 -39.5t-66 -22t-67 -9.5t-68 -2q-8 -71 -27 -129
t-43.5 -103.5t-51.5 -77.5t-53 -50q-27 -20 -70 -40.5t-93.5 -37t-106 -26.5t-107.5 -10q-96 0 -169 26.5t-121 75t-72.5 116.5t-24.5 151q0 49 7 96.5t20.5 93.5t35 93t50.5 97q28 47 50.5 68.5t33.5 21.5q10 0 10 -11q0 -17 -17 -50q-19 -39 -34 -73.5t-25.5 -67
t-16 -66.5t-5.5 -70q0 -58 20 -107t58 -83.5t94 -54t127 -19.5q51 0 112 9.5t119 27.5t105.5 44t71.5 59v10q0 31 -6 70.5t-21 89.5t-42.5 110.5t-69.5 133.5q32 56 65 114t68 107zM1447 -134l92 -60t90 -60q-24 -37 -44.5 -69.5t-46.5 -65.5q-43 27 -84.5 54t-88.5 57
q-41 -64 -79 -114q-41 26 -86.5 57.5t-88.5 64.5q11 17 24.5 36.5t26 37.5t23.5 33t19 23q40 -27 80 -54.5t80 -54.5q21 26 41 55.5t42 59.5zM1390 -378q45 -31 89 -59t85 -55q-20 -34 -42.5 -68t-49.5 -66l-175 115q5 9 14.5 24.5t22.5 34t27 38.5t29 36z" />
    <glyph glyph-name="uni069C.init" unicode="&#x69c;" horiz-adv-x="1491" 
d="M419 46q-24 -16 -49 -25t-57.5 -13.5t-76 -6t-105.5 -1.5h-131q-45 0 -63 5t-25 15q-15 22 -15 91q0 88 16 105q7 9 29.5 13.5t57.5 4.5h140q30 0 69.5 0.5t77 2t67 5.5t39.5 12q23 16 34.5 60t19.5 126q46 36 92.5 70t93.5 65q-3 -45 -10.5 -91t-19.5 -88t-28.5 -79
t-37.5 -64q37 -10 91 -14.5t110 -4.5q35 0 58 6t36 17.5t18.5 29t5.5 40.5t-4.5 52.5t-9.5 64.5q85 80 168 148q3 -20 5 -43t2 -48q0 -56 -9 -115.5t-27 -110.5q9 -9 31 -18t50 -16.5t59 -11.5t60 -4q39 0 65.5 10.5t26.5 35.5q0 13 -6 34.5t-16 46.5t-23 50.5t-26 47.5
q33 46 68 89t72 87q12 -19 25.5 -64.5t23.5 -105t16.5 -125.5t6.5 -127q0 -62 -8 -110.5t-25 -68.5q-14 -13 -47 -19t-74 -6q-100 0 -193 16.5t-183 57.5q-49 -43 -99 -58.5t-116 -15.5q-36 0 -66 3.5t-59.5 9.5t-59.5 14t-65 19zM810 679q-47 29 -94 56.5t-93 56.5
q23 39 42 72t44 67q44 -25 86.5 -50.5t90.5 -53.5q19 32 37.5 61.5t36.5 55.5q42 -25 89.5 -54.5t91.5 -60.5q-11 -19 -23.5 -38.5t-24.5 -38t-22.5 -33.5t-17.5 -24q-41 25 -82.5 51t-82.5 52q-20 -28 -39 -57.5t-39 -61.5zM854 934q-47 29 -91 54.5t-87 51.5q19 35 40 69
t46 65l178 -106q-5 -9 -14 -24t-20.5 -34t-25 -38.5t-26.5 -37.5zM1003 -136q46 -30 92 -59.5t90 -60.5q-24 -37 -44.5 -69.5t-46.5 -65.5q-43 27 -84.5 54t-88.5 57q-41 -64 -79 -114q-41 26 -86.5 57.5t-89.5 64.5q12 17 25 36.5t26 37.5t24 33t19 23q40 -27 80 -54.5
t80 -54.5q21 26 41 55.5t42 59.5zM945 -380q45 -31 89 -59t85 -55q-19 -34 -41.5 -68t-50.5 -66l-174 116q5 8 14.5 23.5t22 34t27 38.5t28.5 36z" />
    <glyph glyph-name="uni069C.medi" unicode="&#x69c;" horiz-adv-x="1413" 
d="M419 46q-24 -16 -49 -25t-57.5 -13.5t-76 -6t-105.5 -1.5h-131q-45 0 -63 5t-25 15q-15 22 -15 91q0 88 16 105q7 9 29.5 13.5t57.5 4.5h140q30 0 69.5 0.5t77 2t67 5.5t39.5 12q23 16 34.5 60t19.5 126q46 36 92.5 70t93.5 65q-3 -45 -10.5 -91t-19.5 -88t-28.5 -79
t-37.5 -64q37 -10 91 -14.5t110 -4.5q35 0 58 6t36 17.5t18.5 29t5.5 40.5t-4.5 52.5t-9.5 64.5q85 80 168 148q3 -20 5 -43t2 -48q0 -56 -9 -115.5t-27 -110.5q9 -9 31 -18t50 -16.5t59 -11.5t60 -4q39 0 65.5 10.5t26.5 35.5q0 13 -6 34.5t-16 46.5t-23 50.5t-26 47.5
q33 46 68 89t72 87q12 -19 25.5 -64.5t23.5 -105t16.5 -125.5t6.5 -127q0 -62 -8 -110.5t-25 -68.5q-14 -13 -47 -19t-74 -6q-100 0 -193 16.5t-183 57.5q-49 -43 -99 -58.5t-116 -15.5q-36 0 -66 3.5t-59.5 9.5t-59.5 14t-65 19zM810 679q-47 29 -94 56.5t-93 56.5
q23 39 42 72t44 67q44 -25 86.5 -50.5t90.5 -53.5q19 32 37.5 61.5t36.5 55.5q42 -25 89.5 -54.5t91.5 -60.5q-11 -19 -23.5 -38.5t-24.5 -38t-22.5 -33.5t-17.5 -24q-41 25 -82.5 51t-82.5 52q-20 -28 -39 -57.5t-39 -61.5zM854 934q-47 29 -91 54.5t-87 51.5q19 35 40 69
t46 65l178 -106q-5 -9 -14 -24t-20.5 -34t-25 -38.5t-26.5 -37.5zM1003 -136q46 -30 92 -59.5t90 -60.5q-24 -37 -44.5 -69.5t-46.5 -65.5q-43 27 -84.5 54t-88.5 57q-41 -64 -79 -114q-41 26 -86.5 57.5t-89.5 64.5q12 17 25 36.5t26 37.5t24 33t19 23q40 -27 80 -54.5
t80 -54.5q21 26 41 55.5t42 59.5zM945 -380q45 -31 89 -59t85 -55q-19 -34 -41.5 -68t-50.5 -66l-174 116q5 8 14.5 23.5t22 34t27 38.5t28.5 36z" />
    <glyph glyph-name="uni069C.fina" unicode="&#x69c;" horiz-adv-x="1805" 
d="M879 539q21 -26 39 -59t33.5 -72.5t27.5 -82.5t21 -87q31 -3 63.5 -3.5t66.5 -0.5t57 6t36 17.5t18.5 29t5.5 40.5t-4.5 52.5t-8.5 64.5q84 80 167 148q3 -20 5 -43t2 -48q0 -56 -8.5 -115.5t-27.5 -110.5q10 -9 32 -18t50 -16.5t59 -11.5t59 -4q39 0 66 10.5t27 35.5
q0 13 -6.5 34.5t-16 46.5t-23 50.5t-25.5 47.5q33 46 67.5 89t71.5 87q13 -19 26 -64.5t23.5 -105t17 -125.5t6.5 -127q0 -62 -8 -110.5t-26 -68.5q-13 -13 -46.5 -19t-74.5 -6q-99 0 -192.5 16.5t-182.5 57.5q-34 -25 -67 -39.5t-66 -22t-67 -9.5t-68 -2q-8 -71 -27 -129
t-43.5 -103.5t-51.5 -77.5t-53 -50q-27 -20 -70 -40.5t-93.5 -37t-106 -26.5t-107.5 -10q-96 0 -169 26.5t-121 75t-72.5 116.5t-24.5 151q0 49 7 96.5t20.5 93.5t35 93t50.5 97q28 47 50.5 68.5t33.5 21.5q10 0 10 -11q0 -17 -17 -50q-19 -39 -34 -73.5t-25.5 -67
t-16 -66.5t-5.5 -70q0 -58 20 -107t58 -83.5t94 -54t127 -19.5q51 0 112 9.5t119 27.5t105.5 44t71.5 59v10q0 31 -6 70.5t-21 89.5t-42.5 110.5t-69.5 133.5q32 56 65 114t68 107zM1227 696q-50 29 -99.5 59t-96.5 59q23 41 43.5 76t46.5 72q46 -28 91 -54.5t95 -56.5
q20 34 39.5 65t39.5 59q44 -26 93 -58t96 -64q-11 -19 -24 -39.5t-25 -39.5t-23.5 -35.5t-19.5 -25.5l-86 54t-87 53q-21 -28 -41 -60t-42 -64zM1274 964q-50 31 -96.5 57.5t-91.5 54.5q20 37 42 72.5t49 68.5l186 -112q-4 -9 -13 -25t-21 -35.5t-26.5 -40.5t-28.5 -40z
M1447 -134l92 -60t90 -60q-24 -37 -44.5 -69.5t-46.5 -65.5q-43 27 -84.5 54t-88.5 57q-41 -64 -79 -114q-41 26 -86.5 57.5t-88.5 64.5q11 17 24.5 36.5t26 37.5t23.5 33t19 23q40 -27 80 -54.5t80 -54.5q21 26 41 55.5t42 59.5zM1390 -378q45 -31 89 -59t85 -55
q-20 -34 -42.5 -68t-49.5 -66l-175 115q5 9 14.5 24.5t22.5 34t27 38.5t29 36z" />
    <glyph glyph-name="uni069D.init" unicode="&#x69d;" horiz-adv-x="1700" 
d="M792 226q48 -2 97 -3.5t94 -2.5t85.5 -1.5t73.5 -0.5q27 0 62.5 0.5t72.5 2t74 3.5t65 5.5t45.5 7.5t17.5 10q0 10 -6.5 26.5t-20 36t-32.5 40.5t-43 40q-18 14 -35.5 26.5t-38.5 21.5t-46 14.5t-56 5.5q-26 0 -60 -7.5t-81 -31t-112.5 -68t-155.5 -121.5v-4zM488 633
q24 -74 28.5 -124.5t4.5 -70.5t-1 -39t-4.5 -39t-10 -42.5t-15.5 -51.5q28 -16 55 -22.5t55 -6.5q12 0 21.5 3.5t24 15t38 33t62.5 59.5q85 79 156.5 140t134.5 102t120.5 62.5t114.5 21.5q38 0 72.5 -10t64 -27.5t56 -41.5t49.5 -51q60 -75 82 -136t22 -116
q0 -53 -10.5 -101t-23.5 -82q-14 -33 -36.5 -53t-51 -31.5t-64.5 -16.5t-76 -9q-48 -5 -104.5 -7.5t-114 -3.5t-113.5 -1.5t-103 -0.5q-96 0 -178.5 1t-151 8.5t-124.5 22t-98 43.5q-25 -29 -89.5 -45t-170.5 -16h-109q-34 0 -54.5 3.5t-31 15t-14 34t-3.5 60.5q0 39 2 63
t11.5 36.5t30.5 17t59 4.5h119q64 0 110.5 2t76 8t43.5 15.5t14 25.5q0 11 -5.5 36.5t-13 53t-14 53t-9.5 36.5q28 38 71 80t96 89zM981 -499l-201 121q10 19 21.5 39.5t22.5 40.5t22.5 38.5t21.5 33.5q49 -26 96.5 -55t94.5 -61l70 120q58 -31 108.5 -61t87.5 -56
q-22 -39 -43.5 -76t-46.5 -72q-22 13 -46.5 28t-48.5 29.5t-46 28.5t-39 26q-19 -32 -37.5 -64t-36.5 -60z" />
    <glyph glyph-name="uni069D.medi" unicode="&#x69d;" horiz-adv-x="1617" 
d="M792 226q48 -2 97 -3.5t94 -2.5t85.5 -1.5t73.5 -0.5q27 0 62.5 0.5t72.5 2t74 3.5t65 5.5t45.5 7.5t17.5 10q0 10 -6.5 26.5t-20 36t-32.5 40.5t-43 40q-18 14 -35.5 26.5t-38.5 21.5t-46 14.5t-56 5.5q-26 0 -60 -7.5t-81 -31t-112.5 -68t-155.5 -121.5v-4zM488 633
q24 -74 28.5 -124.5t4.5 -70.5t-1 -39t-4.5 -39t-10 -42.5t-15.5 -51.5q28 -16 55 -22.5t55 -6.5q12 0 21.5 3.5t24 15t38 33t62.5 59.5q85 79 156.5 140t134.5 102t120.5 62.5t114.5 21.5q38 0 72.5 -10t64 -27.5t56 -41.5t49.5 -51q60 -75 82 -136t22 -116
q0 -53 -10.5 -101t-23.5 -82q-14 -33 -36.5 -53t-51 -31.5t-64.5 -16.5t-76 -9q-48 -5 -104.5 -7.5t-114 -3.5t-113.5 -1.5t-103 -0.5q-96 0 -178.5 1t-151 8.5t-124.5 22t-98 43.5q-25 -29 -89.5 -45t-170.5 -16h-109q-34 0 -54.5 3.5t-31 15t-14 34t-3.5 60.5q0 39 2 63
t11.5 36.5t30.5 17t59 4.5h119q64 0 110.5 2t76 8t43.5 15.5t14 25.5q0 11 -5.5 36.5t-13 53t-14 53t-9.5 36.5q28 38 71 80t96 89zM981 -499l-201 121q10 19 21.5 39.5t22.5 40.5t22.5 38.5t21.5 33.5q49 -26 96.5 -55t94.5 -61l70 120q58 -31 108.5 -61t87.5 -56
q-22 -39 -43.5 -76t-46.5 -72q-22 13 -46.5 28t-48.5 29.5t-46 28.5t-39 26q-19 -32 -37.5 -64t-36.5 -60z" />
    <glyph glyph-name="uni069D.fina" unicode="&#x69d;" horiz-adv-x="2105" 
d="M879 539q19 -26 38 -60t35 -73.5t29 -83t21 -88.5q39 0 65 3.5t49.5 15.5t50 34t67.5 61q84 79 155.5 140t134.5 102t120.5 62.5t115.5 21.5q38 0 72 -10t64 -27.5t56 -41.5t49 -51q60 -75 82 -136t22 -116q0 -53 -10 -101t-24 -82q-14 -33 -36 -53t-51 -31t-64.5 -16
t-75.5 -9q-49 -5 -105 -7.5t-114 -3.5t-114 -1.5t-103 -0.5q-46 0 -96 1.5t-102 3.5t-103 4t-99 4q-13 -81 -31.5 -139t-41 -100.5t-48 -71t-54.5 -48.5q-27 -20 -70 -40.5t-93.5 -37t-106 -26.5t-107.5 -10q-96 0 -169 26.5t-121 75t-72.5 116.5t-24.5 151q0 49 7 96.5
t20.5 93.5t35 93t50.5 97q28 47 50.5 68.5t33.5 21.5q10 0 10 -11q0 -17 -17 -50q-19 -39 -34 -73.5t-25.5 -67t-16 -66.5t-5.5 -70q0 -58 20 -107t58 -83.5t94 -54t127 -19.5q51 0 112 9.5t119 27.5t105.5 44t71.5 59q1 32 -4.5 72t-20.5 90.5t-42.5 113t-71.5 138.5
q32 56 65 114t68 107zM1279 226q48 -2 97 -3.5t94.5 -2t86 -1t72.5 -0.5q27 0 63 0.5t73 2t73.5 3t65 5t46 7.5t17.5 10q0 10 -7 26.5t-20 36t-32 40.5t-44 40q-17 14 -35 26.5t-39 21.5t-45.5 14.5t-56.5 5.5q-26 0 -59.5 -7.5t-81 -31t-113 -68t-155.5 -121.5v-4z
M1492 -499l-200 121q10 19 21 39.5t22.5 40.5t22.5 38.5t22 33.5q49 -26 96 -55t94 -61l71 120q58 -31 108.5 -61t87.5 -56q-23 -39 -44.5 -76t-45.5 -72q-22 13 -46.5 28t-48.5 29.5t-46 28.5t-40 26q-18 -32 -36.5 -64t-37.5 -60z" />
    <glyph glyph-name="uni069E.init" unicode="&#x69e;" horiz-adv-x="1700" 
d="M792 226q48 -2 97 -3.5t94 -2.5t85.5 -1.5t73.5 -0.5q27 0 62.5 0.5t72.5 2t74 3.5t65 5.5t45.5 7.5t17.5 10q0 10 -6.5 26.5t-20 36t-32.5 40.5t-43 40q-18 14 -35.5 26.5t-38.5 21.5t-46 14.5t-56 5.5q-26 0 -60 -7.5t-81 -31t-112.5 -68t-155.5 -121.5v-4zM488 633
q24 -74 28.5 -124.5t4.5 -70.5t-1 -39t-4.5 -39t-10 -42.5t-15.5 -51.5q28 -16 55 -22.5t55 -6.5q12 0 21.5 3.5t24 15t38 33t62.5 59.5q85 79 156.5 140t134.5 102t120.5 62.5t114.5 21.5q38 0 72.5 -10t64 -27.5t56 -41.5t49.5 -51q60 -75 82 -136t22 -116
q0 -53 -10.5 -101t-23.5 -82q-14 -33 -36.5 -53t-51 -31.5t-64.5 -16.5t-76 -9q-48 -5 -104.5 -7.5t-114 -3.5t-113.5 -1.5t-103 -0.5q-96 0 -178.5 1t-151 8.5t-124.5 22t-98 43.5q-25 -29 -89.5 -45t-170.5 -16h-109q-34 0 -54.5 3.5t-31 15t-14 34t-3.5 60.5q0 39 2 63
t11.5 36.5t30.5 17t59 4.5h119q64 0 110.5 2t76 8t43.5 15.5t14 25.5q0 11 -5.5 36.5t-13 53t-14 53t-9.5 36.5q28 38 71 80t96 89zM1090 821l-94 56t-93 56q23 39 42 72.5t44 67.5q44 -26 86.5 -51t90.5 -54q20 33 38.5 62t35.5 55q42 -25 89.5 -54t91.5 -61
q-11 -18 -23 -37.5t-24.5 -38t-23 -34t-17.5 -23.5q-41 25 -82.5 51t-82.5 51q-20 -27 -39 -57t-39 -61zM1134 1076q-47 28 -91 54t-87 51q19 35 40 69.5t46 65.5l178 -107q-5 -8 -14 -23.5t-20.5 -34.5t-25 -38.5t-26.5 -36.5z" />
    <glyph glyph-name="uni069E.medi" unicode="&#x69e;" horiz-adv-x="1617" 
d="M792 226q48 -2 97 -3.5t94 -2.5t85.5 -1.5t73.5 -0.5q27 0 62.5 0.5t72.5 2t74 3.5t65 5.5t45.5 7.5t17.5 10q0 10 -6.5 26.5t-20 36t-32.5 40.5t-43 40q-18 14 -35.5 26.5t-38.5 21.5t-46 14.5t-56 5.5q-26 0 -60 -7.5t-81 -31t-112.5 -68t-155.5 -121.5v-4zM488 633
q24 -74 28.5 -124.5t4.5 -70.5t-1 -39t-4.5 -39t-10 -42.5t-15.5 -51.5q28 -16 55 -22.5t55 -6.5q12 0 21.5 3.5t24 15t38 33t62.5 59.5q85 79 156.5 140t134.5 102t120.5 62.5t114.5 21.5q38 0 72.5 -10t64 -27.5t56 -41.5t49.5 -51q60 -75 82 -136t22 -116
q0 -53 -10.5 -101t-23.5 -82q-14 -33 -36.5 -53t-51 -31.5t-64.5 -16.5t-76 -9q-48 -5 -104.5 -7.5t-114 -3.5t-113.5 -1.5t-103 -0.5q-96 0 -178.5 1t-151 8.5t-124.5 22t-98 43.5q-25 -29 -89.5 -45t-170.5 -16h-109q-34 0 -54.5 3.5t-31 15t-14 34t-3.5 60.5q0 39 2 63
t11.5 36.5t30.5 17t59 4.5h119q64 0 110.5 2t76 8t43.5 15.5t14 25.5q0 11 -5.5 36.5t-13 53t-14 53t-9.5 36.5q28 38 71 80t96 89zM1090 821l-94 56t-93 56q23 39 42 72.5t44 67.5q44 -26 86.5 -51t90.5 -54q20 33 38.5 62t35.5 55q42 -25 89.5 -54t91.5 -61
q-11 -18 -23 -37.5t-24.5 -38t-23 -34t-17.5 -23.5q-41 25 -82.5 51t-82.5 51q-20 -27 -39 -57t-39 -61zM1134 1076q-47 28 -91 54t-87 51q19 35 40 69.5t46 65.5l178 -107q-5 -8 -14 -23.5t-20.5 -34.5t-25 -38.5t-26.5 -36.5z" />
    <glyph glyph-name="uni069E.fina" unicode="&#x69e;" horiz-adv-x="2105" 
d="M879 539q19 -26 38 -60t35 -73.5t29 -83t21 -88.5q39 0 65 3.5t49.5 15.5t50 34t67.5 61q84 79 155.5 140t134.5 102t120.5 62.5t115.5 21.5q38 0 72 -10t64 -27.5t56 -41.5t49 -51q60 -75 82 -136t22 -116q0 -53 -10 -101t-24 -82q-14 -33 -36 -53t-51 -31t-64.5 -16
t-75.5 -9q-49 -5 -105 -7.5t-114 -3.5t-114 -1.5t-103 -0.5q-46 0 -96 1.5t-102 3.5t-103 4t-99 4q-13 -81 -31.5 -139t-41 -100.5t-48 -71t-54.5 -48.5q-27 -20 -70 -40.5t-93.5 -37t-106 -26.5t-107.5 -10q-96 0 -169 26.5t-121 75t-72.5 116.5t-24.5 151q0 49 7 96.5
t20.5 93.5t35 93t50.5 97q28 47 50.5 68.5t33.5 21.5q10 0 10 -11q0 -17 -17 -50q-19 -39 -34 -73.5t-25.5 -67t-16 -66.5t-5.5 -70q0 -58 20 -107t58 -83.5t94 -54t127 -19.5q51 0 112 9.5t119 27.5t105.5 44t71.5 59q1 32 -4.5 72t-20.5 90.5t-42.5 113t-71.5 138.5
q32 56 65 114t68 107zM1279 226q48 -2 97 -3.5t94.5 -2t86 -1t72.5 -0.5q27 0 63 0.5t73 2t73.5 3t65 5t46 7.5t17.5 10q0 10 -7 26.5t-20 36t-32 40.5t-44 40q-17 14 -35 26.5t-39 21.5t-45.5 14.5t-56.5 5.5q-26 0 -59.5 -7.5t-81 -31t-113 -68t-155.5 -121.5v-4z
M1580 822q-47 28 -93.5 56t-92.5 56q22 39 41 72.5t45 67.5q43 -26 85.5 -51t90.5 -54q20 33 38.5 62t35.5 55q42 -25 89.5 -54t91.5 -61q-11 -18 -23 -37.5t-24.5 -38t-23 -34t-17.5 -23.5q-41 25 -82.5 51t-82.5 51q-19 -27 -38 -57t-40 -61zM1624 1077q-47 28 -91 54
t-87 51q19 35 40 69.5t46 65.5l178 -107q-5 -8 -14 -23.5t-20.5 -34.5t-24.5 -38.5t-27 -36.5z" />
    <glyph glyph-name="uni069F.init" unicode="&#x69f;" horiz-adv-x="1386" 
d="M0 0q-34 0 -54.5 3.5t-31 15t-14 34t-3.5 60.5q0 39 2 63t11.5 36.5t30.5 17t59 4.5h114q74 0 118 5.5t66 22.5t28 49t6 84q0 53 -7.5 127.5t-19 157.5t-23.5 168.5t-20 161.5q9 13 24 30t34 35t40.5 35.5t42.5 31.5l5 -2q9 -29 24.5 -64.5t36 -70.5t45 -66.5t54.5 -54.5
q-3 -5 -12.5 -15.5t-22.5 -22t-28.5 -24.5t-31.5 -24q6 -58 8.5 -109.5t2.5 -98.5q0 -43 -3.5 -77.5t-11 -65t-17.5 -60t-25 -62.5l8 -5q38 34 86 75.5t101 82.5q61 46 109 79t88.5 53.5t75 30t68.5 9.5q54 0 113.5 -32.5t110 -86.5t84 -123.5t33.5 -142.5q0 -20 -4 -44.5
t-10.5 -49.5t-14.5 -47.5t-17 -39.5q-12 -23 -26.5 -37.5t-30.5 -23.5t-34 -14t-35 -8q-35 -5 -80.5 -8.5t-94.5 -5.5t-97.5 -2.5t-92.5 -0.5q-58 0 -140.5 2.5t-182 5.5t-212 5.5t-232.5 2.5zM473 226q36 -2 80 -4t88.5 -3.5t87.5 -2t78 -0.5q80 0 145 1.5t109.5 5t69 9
t24.5 13.5q0 11 -28 47t-79 76q-34 27 -77 46t-92 19q-34 0 -69.5 -9.5t-82 -33t-108 -63t-146.5 -99.5v-2zM878 758q-47 28 -94 55.5t-92 56.5q22 39 41 72t45 67q43 -25 85.5 -50.5t90.5 -53.5q20 32 38.5 61.5t35.5 55.5q42 -25 89.5 -54.5t91.5 -60.5q-11 -19 -23 -38.5
t-24.5 -38t-23 -33.5t-17.5 -24q-41 26 -82.5 51.5t-82.5 51.5q-19 -28 -38 -57.5t-40 -60.5zM922 1012q-47 29 -91 54.5t-87 51.5q19 35 40 69t46 65l178 -106q-5 -9 -14 -24t-20.5 -34t-24.5 -38.5t-27 -37.5z" />
    <glyph glyph-name="uni069F.medi" unicode="&#x69f;" horiz-adv-x="1303" 
d="M0 0q-34 0 -54.5 3.5t-31 15t-14 34t-3.5 60.5q0 39 2 63t11.5 36.5t30.5 17t59 4.5h114q74 0 118 5.5t66 22.5t28 49t6 84q0 53 -7.5 127.5t-19 157.5t-23.5 168.5t-20 161.5q9 13 24 30t34 35t40.5 35.5t42.5 31.5l5 -2q9 -29 24.5 -64.5t36 -70.5t45 -66.5t54.5 -54.5
q-3 -5 -12.5 -15.5t-22.5 -22t-28.5 -24.5t-31.5 -24q6 -58 8.5 -109.5t2.5 -98.5q0 -43 -3.5 -77.5t-11 -65t-17.5 -60t-25 -62.5l8 -5q38 34 86 75.5t101 82.5q61 46 109 79t88.5 53.5t75 30t68.5 9.5q54 0 113.5 -32.5t110 -86.5t84 -123.5t33.5 -142.5q0 -20 -4 -44.5
t-10.5 -49.5t-14.5 -47.5t-17 -39.5q-12 -23 -26.5 -37.5t-30.5 -23.5t-34 -14t-35 -8q-35 -5 -80.5 -8.5t-94.5 -5.5t-97.5 -2.5t-92.5 -0.5q-58 0 -140.5 2.5t-182 5.5t-212 5.5t-232.5 2.5zM473 226q36 -2 80 -4t88.5 -3.5t87.5 -2t78 -0.5q80 0 145 1.5t109.5 5t69 9
t24.5 13.5q0 11 -28 47t-79 76q-34 27 -77 46t-92 19q-34 0 -69.5 -9.5t-82 -33t-108 -63t-146.5 -99.5v-2zM878 758q-47 28 -94 55.5t-92 56.5q22 39 41 72t45 67q43 -25 85.5 -50.5t90.5 -53.5q20 32 38.5 61.5t35.5 55.5q42 -25 89.5 -54.5t91.5 -60.5q-11 -19 -23 -38.5
t-24.5 -38t-23 -33.5t-17.5 -24q-41 26 -82.5 51.5t-82.5 51.5q-19 -28 -38 -57.5t-40 -60.5zM922 1012q-47 29 -91 54.5t-87 51.5q19 35 40 69t46 65l178 -106q-5 -9 -14 -24t-20.5 -34t-24.5 -38.5t-27 -37.5z" />
    <glyph glyph-name="uni069F.fina" unicode="&#x69f;" horiz-adv-x="1391" 
d="M76 234h125q74 0 118 5.5t66 22.5t28.5 49t6.5 84q0 53 -8 127.5t-19 157.5t-23.5 168.5t-20.5 161.5q9 13 24 30t34 35t40.5 35.5t42.5 31.5l5 -2q10 -29 25 -64.5t35.5 -70.5t45.5 -66.5t54 -54.5q-3 -5 -12.5 -15.5t-22.5 -22t-28.5 -24.5t-31.5 -24q6 -58 8.5 -109.5
t2.5 -98.5q0 -43 -3.5 -77.5t-11 -65t-17.5 -60t-25 -62.5l8 -5q38 34 86 75.5t102 82.5q60 46 108.5 79t88.5 53.5t74.5 30t68.5 9.5q54 0 113.5 -32.5t110.5 -86.5t84 -123.5t33 -142.5q0 -20 -4 -44.5t-10.5 -49.5t-14.5 -47.5t-17 -39.5q-12 -23 -26.5 -37.5
t-30.5 -23.5t-33.5 -14t-35.5 -8q-35 -5 -80.5 -8.5t-94 -5.5t-97.5 -2.5t-93 -0.5q-38 0 -89.5 1t-107 2.5t-112.5 3.5t-108.5 3.5t-92 3t-63.5 2.5q-29 1 -49.5 3t-36 7t-28 14t-25.5 25q-23 28 -40 73t-26 112zM560 226q36 -2 80 -4t88.5 -3.5t87.5 -2t78 -0.5
q80 0 145 1.5t110 5t69.5 9t24.5 13.5q0 11 -28.5 47t-79.5 76q-34 27 -77 46t-92 19q-34 0 -69.5 -9.5t-82 -33t-108 -63t-146.5 -99.5v-2zM965 758q-47 28 -93.5 55.5t-92.5 56.5q22 39 41 72t45 67q44 -25 86.5 -50.5t89.5 -53.5q20 32 38.5 61.5t36.5 55.5
q42 -25 89 -54.5t91 -60.5q-11 -19 -23 -38.5t-24 -38t-23 -33.5t-18 -24q-41 26 -82.5 51.5t-82.5 51.5q-19 -28 -38 -57.5t-40 -60.5zM1009 1012q-47 29 -90.5 54.5t-86.5 51.5q18 35 39 69t46 65l178 -106q-5 -9 -13.5 -24t-20.5 -34t-25 -38.5t-27 -37.5z" />
    <glyph glyph-name="uni06A0.init" unicode="&#x6a0;" horiz-adv-x="1103" 
d="M343 234l1 3q-34 40 -56 82.5t-22 82.5q0 57 27.5 118.5t72.5 113t105.5 85.5t124.5 34t116.5 -27.5t89.5 -66.5t57 -82.5t20 -74.5q0 -12 -3 -21.5t-11 -17.5q-23 14 -48 30t-52 29t-56 21.5t-60 8.5q-30 0 -62 -5.5t-60 -16t-46 -24t-18 -29.5q0 -21 14.5 -53t46.5 -67
q15 -17 32 -33t38.5 -28t50 -19.5t65.5 -7.5q25 0 61 4.5t78 11.5t87.5 15t88.5 17q-13 -44 -26.5 -84t-24.5 -70.5t-19.5 -50.5t-12.5 -23q-69 -12 -148 -23t-163 -21t-170 -18t-167.5 -14t-156 -9.5t-137.5 -3.5q-41 0 -61 5t-27 15q-15 21 -15 91q0 80 14 102q6 11 27 16
t62 5h343zM492 892q-46 29 -93 56.5t-93 55.5q22 40 41.5 73t44.5 67q44 -25 86.5 -50.5t90.5 -53.5q19 32 37.5 61t36.5 56q42 -26 89 -55t91 -60q-10 -19 -22.5 -38.5t-24.5 -38t-23 -33.5t-17 -24q-41 25 -82.5 51t-82.5 51q-20 -27 -39 -57t-40 -61zM536 1147
q-46 28 -90 54t-87 51q18 36 39 70t47 65l177 -106q-5 -9 -13.5 -24t-20.5 -34t-25 -38.5t-27 -37.5z" />
    <glyph glyph-name="uni06A0.medi" unicode="&#x6a0;" horiz-adv-x="889" 
d="M890 234v-234q-49 1 -86.5 8t-68.5 21.5t-58 38t-55 58.5q-46 -38 -103.5 -63t-126.5 -38.5t-148.5 -19t-168.5 -5.5h-73q-28 0 -46 2.5t-28.5 13t-15 34t-4.5 66.5t4 67t13.5 35t26.5 13.5t42 2.5q30 0 72 0.5t90.5 1.5t100.5 3.5t104 6.5q56 5 99 16.5t68 29.5
q-20 31 -39.5 55.5t-41 41t-45.5 25.5t-55 9q-30 0 -71 -11q-4 0 -2 6q4 13 11 32.5t15 40t17.5 40.5t18.5 37q18 35 38.5 61.5t47 43.5t59 25.5t75.5 8.5q69 0 122 -17.5t89.5 -46t55.5 -63t19 -69.5q0 -26 -7 -56.5t-19 -61.5t-26.5 -59.5t-29.5 -49.5q13 -18 28 -27.5
t31 -14.5t34 -6t37 -2zM488 856l-94 56t-93 56q23 39 42 72.5t44 67.5q44 -25 86.5 -50.5t90.5 -53.5q20 32 38.5 61t35.5 56q42 -26 89.5 -55t91.5 -61q-11 -18 -23 -37.5t-24.5 -38t-23 -33.5t-17.5 -24q-41 25 -82.5 51t-82.5 51q-20 -27 -39 -57t-39 -61zM532 1111
q-47 28 -91 54t-87 51q19 35 40 69.5t46 65.5l178 -106q-5 -9 -14 -24t-20.5 -34.5t-25 -39t-26.5 -36.5z" />
    <glyph glyph-name="uni06A0.fina" unicode="&#x6a0;" horiz-adv-x="1024" 
d="M1024 234v-234h-69q-72 0 -131 8t-113.5 30.5t-106.5 63.5t-111 109q-79 -35 -139.5 -79t-102 -93.5t-63 -101.5t-21.5 -104q0 -58 22 -113t71 -97.5t127.5 -68t191.5 -25.5q111 0 217 21t190 53q13 4 22.5 2.5t12.5 -7.5t0 -16t-14 -23q-70 -78 -139 -129.5t-135.5 -82
t-128 -43.5t-115.5 -13q-114 0 -196.5 35.5t-135 94.5t-77.5 137t-25 163q0 88 25 174.5t69.5 167.5t107 152.5t137.5 129.5q-32 35 -62 53t-64 18q-25 0 -49 -4.5t-49 -16.5q-3 -3 -6.5 0.5t-1.5 7.5q22 48 41.5 84t44.5 76q37 62 99.5 95t150.5 33q44 0 91 -10t85.5 -32
t63.5 -57t25 -82q0 -23 -8 -50.5t-20.5 -54t-28 -50t-30.5 -39.5q32 -23 70.5 -38.5t79 -25.5t81.5 -14t78 -4h39zM403 871q-46 28 -93 56t-93 56q22 39 41.5 72t44.5 68q44 -26 86.5 -51.5t90.5 -53.5q19 32 37.5 61.5t36.5 55.5q42 -25 89 -54.5t91 -60.5
q-10 -18 -22.5 -37.5t-24.5 -38.5t-23 -34t-17 -24q-41 26 -82.5 51.5t-82.5 51.5q-20 -27 -39 -57t-40 -61zM447 1126q-46 28 -90 54t-87 51q18 35 39 69t47 66l177 -107q-5 -9 -13.5 -24t-20.5 -34t-25 -38.5t-27 -36.5z" />
    <glyph glyph-name="uni06A1.init" unicode="&#x6a1;" horiz-adv-x="904" 
d="M0 0q-30 0 -46 1.5t-24 5.5q-20 9 -26.5 36t-6.5 74q0 91 20 105q8 4 26.5 8t56.5 4q93 0 174 -4.5t150 -9.5t125.5 -9.5t100.5 -4.5q31 0 51.5 1t24.5 2v7q-94 28 -159 55.5t-105 55.5t-58 60t-18 70q0 39 13 81t34.5 83t50 77.5t61 64.5t66.5 44t66 16q34 0 62.5 -15.5
t52 -41t42 -58t30.5 -65.5q12 -34 21 -64.5t15.5 -67.5t10 -84t3.5 -114q0 -101 -14 -169t-42 -94q-24 -24 -63 -36t-81.5 -18t-85.5 -7t-78 -1q-55 0 -108 2t-107 4t-111.5 4t-123.5 2zM711 380q-15 77 -35.5 129.5t-44 85.5t-47.5 47.5t-45 14.5q-19 0 -41.5 -8
t-41.5 -20.5t-31.5 -28t-12.5 -31.5q0 -9 6 -22.5t35 -35.5t89.5 -54t168.5 -77z" />
    <glyph glyph-name="uni06A1.medi" unicode="&#x6a1;" horiz-adv-x="940" 
d="M0 0q-30 1 -46 2t-24 5q-20 9 -26.5 36t-6.5 74q0 91 20 105q8 4 26.5 8t56.5 4h107q33 0 65 -1.5t68 -5t80 -11t101 -20.5l2 7q-24 18 -39.5 42t-24 49t-11.5 49t-3 42q0 53 14 103.5t38 95t55 80.5t64.5 62.5t67.5 41t64 14.5q42 0 83 -31t73 -84t52 -124.5t20 -153.5
q0 -35 -4.5 -71t-14.5 -73q3 -2 12.5 -4t22 -3.5t26 -2.5t23.5 -1v-234q-17 0 -43.5 3.5t-58 10t-67 16.5t-71.5 23q-42 -18 -84 -29t-86 -17t-93.5 -8.5t-105.5 -2.5q-30 0 -70 0.5t-84.5 1t-90.5 1t-87 1.5zM731 277q24 11 31.5 30t7.5 35q0 11 -5 33.5t-14.5 49
t-23.5 54.5t-33 50.5t-43 36.5t-52 14q-20 0 -44 -9.5t-46 -25t-37.5 -36t-15.5 -43.5q0 -19 12.5 -43t43.5 -49.5t84.5 -50t134.5 -46.5z" />
    <glyph glyph-name="uni06A1.fina" unicode="&#x6a1;" horiz-adv-x="1435" 
d="M1248 207v10q-96 26 -161.5 53t-105 56t-56 61.5t-16.5 70.5q0 39 12.5 81t34 83t50.5 77.5t61 64.5t66 44t66 16q39 0 80.5 -27t76.5 -87t57.5 -157t22.5 -239q0 -141 -24.5 -217.5t-72.5 -93.5q-20 -7 -75 -15t-128.5 -15t-157.5 -13.5t-162.5 -11.5t-143.5 -7.5
t-100 -2.5q-102 0 -192 10.5t-158.5 44t-108.5 96t-40 167.5q0 47 7 95t19 99q26 101 51 101q13 0 13 -21v-13q0 -6 -1 -16q-2 -26 -3.5 -43.5t-1.5 -27.5q0 -132 120 -194.5t377 -62.5q54 0 122 2t145 6t160 10.5t167 15.5zM1329 376q-9 75 -28.5 128t-44 87.5t-49.5 50.5
t-46 16q-19 0 -41.5 -8t-41.5 -20.5t-31 -28t-12 -31.5q0 -9 5 -22t33 -35.5t88 -55.5t168 -81z" />
    <glyph glyph-name="uni06A2.init" unicode="&#x6a2;" horiz-adv-x="904" 
d="M0 0q-30 0 -46 1.5t-24 5.5q-20 9 -26.5 36t-6.5 74q0 91 20 105q8 4 26.5 8t56.5 4q93 0 174 -4.5t150 -9.5t125.5 -9.5t100.5 -4.5q31 0 51.5 1t24.5 2v7q-94 28 -159 55.5t-105 55.5t-58 60t-18 70q0 39 13 81t34.5 83t50 77.5t61 64.5t66.5 44t66 16q34 0 62.5 -15.5
t52 -41t42 -58t30.5 -65.5q12 -34 21 -64.5t15.5 -67.5t10 -84t3.5 -114q0 -101 -14 -169t-42 -94q-24 -24 -63 -36t-81.5 -18t-85.5 -7t-78 -1q-55 0 -108 2t-107 4t-111.5 4t-123.5 2zM711 380q-15 77 -35.5 129.5t-44 85.5t-47.5 47.5t-45 14.5q-19 0 -41.5 -8
t-41.5 -20.5t-31.5 -28t-12.5 -31.5q0 -9 6 -22.5t35 -35.5t89.5 -54t168.5 -77zM633 -508l-210 128q11 21 24.5 44.5t28.5 46.5t28 43t23 33q21 -12 49 -29t56 -35.5t55.5 -36t49.5 -32.5q-9 -16 -22 -37.5t-27 -44t-28.5 -43.5t-26.5 -37z" />
    <glyph glyph-name="uni06A2.medi" unicode="&#x6a2;" horiz-adv-x="940" 
d="M0 0q-30 1 -46 2t-24 5q-20 9 -26.5 36t-6.5 74q0 91 20 105q8 4 26.5 8t56.5 4h107q33 0 65 -1.5t68 -5t80 -11t101 -20.5l2 7q-24 18 -39.5 42t-24 49t-11.5 49t-3 42q0 53 14 103.5t38 95t55 80.5t64.5 62.5t67.5 41t64 14.5q42 0 83 -31t73 -84t52 -124.5t20 -153.5
q0 -35 -4.5 -71t-14.5 -73q3 -2 12.5 -4t22 -3.5t26 -2.5t23.5 -1v-234q-17 0 -43.5 3.5t-58 10t-67 16.5t-71.5 23q-42 -18 -84 -29t-86 -17t-93.5 -8.5t-105.5 -2.5q-30 0 -70 0.5t-84.5 1t-90.5 1t-87 1.5zM731 277q24 11 31.5 30t7.5 35q0 11 -5 33.5t-14.5 49
t-23.5 54.5t-33 50.5t-43 36.5t-52 14q-20 0 -44 -9.5t-46 -25t-37.5 -36t-15.5 -43.5q0 -19 12.5 -43t43.5 -49.5t84.5 -50t134.5 -46.5zM701 -508l-210 128q11 21 25 44.5t28.5 46.5t27.5 43t23 33q21 -12 49 -29t56.5 -35.5t55.5 -36t49 -32.5q-9 -16 -21.5 -37.5
t-27 -44t-29 -43.5t-26.5 -37z" />
    <glyph glyph-name="uni06A2.fina" unicode="&#x6a2;" horiz-adv-x="1435" 
d="M1248 207v10q-96 26 -161.5 53t-105 56t-56 61.5t-16.5 70.5q0 39 12.5 81t34 83t50.5 77.5t61 64.5t66 44t66 16q39 0 80.5 -27t76.5 -87t57.5 -157t22.5 -239q0 -141 -24.5 -217.5t-72.5 -93.5q-20 -7 -75 -15t-128.5 -15t-157.5 -13.5t-162.5 -11.5t-143.5 -7.5
t-100 -2.5q-102 0 -192 10.5t-158.5 44t-108.5 96t-40 167.5q0 47 7 95t19 99q26 101 51 101q13 0 13 -21v-13q0 -6 -1 -16q-2 -26 -3.5 -43.5t-1.5 -27.5q0 -132 120 -194.5t377 -62.5q54 0 122 2t145 6t160 10.5t167 15.5zM1329 376q-9 75 -28.5 128t-44 87.5t-49.5 50.5
t-46 16q-19 0 -41.5 -8t-41.5 -20.5t-31 -28t-12 -31.5q0 -9 5 -22t33 -35.5t88 -55.5t168 -81zM1248 -508l-210 128q11 21 25 44.5t28.5 46.5t27.5 43t23 33q21 -12 49 -29t56.5 -35.5t55.5 -36t49 -32.5q-9 -16 -21.5 -37.5t-27 -44t-29 -43.5t-26.5 -37z" />
    <glyph glyph-name="uni06A3.init" unicode="&#x6a3;" horiz-adv-x="904" 
d="M0 0q-30 0 -46 1.5t-24 5.5q-20 9 -26.5 36t-6.5 74q0 91 20 105q8 4 26.5 8t56.5 4q93 0 174 -4.5t150 -9.5t125.5 -9.5t100.5 -4.5q31 0 51.5 1t24.5 2v7q-94 28 -159 55.5t-105 55.5t-58 60t-18 70q0 39 13 81t34.5 83t50 77.5t61 64.5t66.5 44t66 16q34 0 62.5 -15.5
t52 -41t42 -58t30.5 -65.5q12 -34 21 -64.5t15.5 -67.5t10 -84t3.5 -114q0 -101 -14 -169t-42 -94q-24 -24 -63 -36t-81.5 -18t-85.5 -7t-78 -1q-55 0 -108 2t-107 4t-111.5 4t-123.5 2zM711 380q-15 77 -35.5 129.5t-44 85.5t-47.5 47.5t-45 14.5q-19 0 -41.5 -8
t-41.5 -20.5t-31.5 -28t-12.5 -31.5q0 -9 6 -22.5t35 -35.5t89.5 -54t168.5 -77zM549 927l-210 128q11 21 24.5 44.5t28.5 46t28 42.5t23 34q21 -13 49 -29.5t56 -35t55.5 -36t49.5 -32.5q-9 -16 -22 -37.5t-27 -44t-28.5 -43.5t-26.5 -37zM397 -531l-210 128
q11 20 24.5 43.5t28 46.5t28 43t22.5 34q22 -13 50 -29.5t56 -35t55.5 -36t48.5 -32.5q-9 -17 -21.5 -38.5t-26.5 -43.5t-28.5 -43t-26.5 -37z" />
    <glyph glyph-name="uni06A3.medi" unicode="&#x6a3;" horiz-adv-x="940" 
d="M0 0q-30 1 -46 2t-24 5q-20 9 -26.5 36t-6.5 74q0 91 20 105q8 4 26.5 8t56.5 4h107q33 0 65 -1.5t68 -5t80 -11t101 -20.5l2 7q-24 18 -39.5 42t-24 49t-11.5 49t-3 42q0 53 14 103.5t38 95t55 80.5t64.5 62.5t67.5 41t64 14.5q42 0 83 -31t73 -84t52 -124.5t20 -153.5
q0 -35 -4.5 -71t-14.5 -73q3 -2 12.5 -4t22 -3.5t26 -2.5t23.5 -1v-234q-17 0 -43.5 3.5t-58 10t-67 16.5t-71.5 23q-42 -18 -84 -29t-86 -17t-93.5 -8.5t-105.5 -2.5q-30 0 -70 0.5t-84.5 1t-90.5 1t-87 1.5zM731 277q24 11 31.5 30t7.5 35q0 11 -5 33.5t-14.5 49
t-23.5 54.5t-33 50.5t-43 36.5t-52 14q-20 0 -44 -9.5t-46 -25t-37.5 -36t-15.5 -43.5q0 -19 12.5 -43t43.5 -49.5t84.5 -50t134.5 -46.5zM627 892l-210 128q11 21 24.5 44t28.5 46t28 43t23 34q21 -13 49 -29.5t56.5 -35t55.5 -36t49 -32.5q-9 -16 -22 -37.5t-27 -44
t-28.5 -43.5t-26.5 -37zM535 -530l-209 128q10 20 24 43.5t28.5 46.5t27.5 43t23 34q21 -13 49 -29.5t56.5 -35t55.5 -36t49 -32.5q-9 -17 -21.5 -38.5t-27 -43.5t-29 -43t-26.5 -37z" />
    <glyph glyph-name="uni06A3.fina" unicode="&#x6a3;" horiz-adv-x="1435" 
d="M1248 207v10q-96 26 -161.5 53t-105 56t-56 61.5t-16.5 70.5q0 39 12.5 81t34 83t50.5 77.5t61 64.5t66 44t66 16q39 0 80.5 -27t76.5 -87t57.5 -157t22.5 -239q0 -141 -24.5 -217.5t-72.5 -93.5q-20 -7 -75 -15t-128.5 -15t-157.5 -13.5t-162.5 -11.5t-143.5 -7.5
t-100 -2.5q-102 0 -192 10.5t-158.5 44t-108.5 96t-40 167.5q0 47 7 95t19 99q26 101 51 101q13 0 13 -21v-13q0 -6 -1 -16q-2 -26 -3.5 -43.5t-1.5 -27.5q0 -132 120 -194.5t377 -62.5q54 0 122 2t145 6t160 10.5t167 15.5zM1329 376q-9 75 -28.5 128t-44 87.5t-49.5 50.5
t-46 16q-19 0 -41.5 -8t-41.5 -20.5t-31 -28t-12 -31.5q0 -9 5 -22t33 -35.5t88 -55.5t168 -81zM1171 928l-210 128q11 21 24.5 44.5t28.5 46t28 42.5t23 34q21 -13 49 -29.5t56.5 -35t55.5 -36t49 -32.5q-9 -16 -22 -37.5t-27 -44t-28.5 -43.5t-26.5 -37zM835 -560
l-209 128q10 20 24 43.5t28.5 46.5t27.5 43t23 33q21 -12 49 -28.5t56.5 -35t55.5 -36.5t49 -32q-9 -17 -21.5 -38.5t-27 -44t-29 -43.5t-26.5 -36z" />
    <glyph glyph-name="uni06A5.init" unicode="&#x6a5;" horiz-adv-x="904" 
d="M0 0q-30 0 -46 1.5t-24 5.5q-20 9 -26.5 36t-6.5 74q0 91 20 105q8 4 26.5 8t56.5 4q93 0 174 -4.5t150 -9.5t125.5 -9.5t100.5 -4.5q31 0 51.5 1t24.5 2v7q-94 28 -159 55.5t-105 55.5t-58 60t-18 70q0 39 13 81t34.5 83t50 77.5t61 64.5t66.5 44t66 16q34 0 62.5 -15.5
t52 -41t42 -58t30.5 -65.5q12 -34 21 -64.5t15.5 -67.5t10 -84t3.5 -114q0 -101 -14 -169t-42 -94q-24 -24 -63 -36t-81.5 -18t-85.5 -7t-78 -1q-55 0 -108 2t-107 4t-111.5 4t-123.5 2zM711 380q-15 77 -35.5 129.5t-44 85.5t-47.5 47.5t-45 14.5q-19 0 -41.5 -8
t-41.5 -20.5t-31.5 -28t-12.5 -31.5q0 -9 6 -22.5t35 -35.5t89.5 -54t168.5 -77zM627 -146q46 -31 92 -60.5t90 -59.5q-24 -38 -44.5 -70.5t-46.5 -65.5q-43 27 -84.5 54t-88.5 57q-41 -63 -79 -114q-41 26 -86.5 58t-89.5 64q12 17 25 37t26 38t24 32.5t19 23.5
q40 -28 80 -55t80 -55q21 27 41 56t42 60zM570 -390q44 -32 88 -59.5t85 -55.5q-19 -34 -41.5 -68t-49.5 -65l-175 115q5 9 14.5 24t22.5 33.5t27 38.5t29 37z" />
    <glyph glyph-name="uni06A5.medi" unicode="&#x6a5;" horiz-adv-x="940" 
d="M0 0q-30 1 -46 2t-24 5q-20 9 -26.5 36t-6.5 74q0 91 20 105q8 4 26.5 8t56.5 4h107q33 0 65 -1.5t68 -5t80 -11t101 -20.5l2 7q-24 18 -39.5 42t-24 49t-11.5 49t-3 42q0 53 14 103.5t38 95t55 80.5t64.5 62.5t67.5 41t64 14.5q42 0 83 -31t73 -84t52 -124.5t20 -153.5
q0 -35 -4.5 -71t-14.5 -73q3 -2 12.5 -4t22 -3.5t26 -2.5t23.5 -1v-234q-17 0 -43.5 3.5t-58 10t-67 16.5t-71.5 23q-42 -18 -84 -29t-86 -17t-93.5 -8.5t-105.5 -2.5q-30 0 -70 0.5t-84.5 1t-90.5 1t-87 1.5zM731 277q24 11 31.5 30t7.5 35q0 11 -5 33.5t-14.5 49
t-23.5 54.5t-33 50.5t-43 36.5t-52 14q-20 0 -44 -9.5t-46 -25t-37.5 -36t-15.5 -43.5q0 -19 12.5 -43t43.5 -49.5t84.5 -50t134.5 -46.5zM687 -145q46 -31 91.5 -60.5t89.5 -60.5q-23 -37 -43.5 -69.5t-46.5 -65.5q-43 27 -84.5 54t-88.5 57q-41 -63 -79 -114
q-41 26 -86.5 58t-89.5 64q12 17 25 37t25.5 38t24 32.5t19.5 23.5q40 -28 80 -55t80 -55q20 27 40 56t43 60zM629 -389q45 -32 89 -59.5t85 -55.5q-20 -34 -42.5 -68t-49.5 -65l-175 115q5 9 15 24t22.5 33.5t26.5 38.5t29 37z" />
    <glyph glyph-name="uni06A5.fina" unicode="&#x6a5;" horiz-adv-x="1435" 
d="M1248 207v10q-96 26 -161.5 53t-105 56t-56 61.5t-16.5 70.5q0 39 12.5 81t34 83t50.5 77.5t61 64.5t66 44t66 16q39 0 80.5 -27t76.5 -87t57.5 -157t22.5 -239q0 -141 -24.5 -217.5t-72.5 -93.5q-20 -7 -75 -15t-128.5 -15t-157.5 -13.5t-162.5 -11.5t-143.5 -7.5
t-100 -2.5q-102 0 -192 10.5t-158.5 44t-108.5 96t-40 167.5q0 47 7 95t19 99q26 101 51 101q13 0 13 -21v-13q0 -6 -1 -16q-2 -26 -3.5 -43.5t-1.5 -27.5q0 -132 120 -194.5t377 -62.5q54 0 122 2t145 6t160 10.5t167 15.5zM1329 376q-9 75 -28.5 128t-44 87.5t-49.5 50.5
t-46 16q-19 0 -41.5 -8t-41.5 -20.5t-31 -28t-12 -31.5q0 -9 5 -22t33 -35.5t88 -55.5t168 -81zM1252 -146q46 -31 92 -60.5t90 -59.5q-24 -38 -44.5 -70.5t-46.5 -65.5q-43 27 -84.5 54t-88.5 57q-41 -63 -79 -114q-41 26 -86.5 58t-89.5 64q12 17 25.5 37t26 38t23.5 32.5
t19 23.5q40 -28 80 -55t80 -55q21 27 41 56t42 60zM1195 -390q45 -32 88.5 -59.5t84.5 -55.5q-19 -34 -41.5 -68t-49.5 -65l-175 115q5 9 14.5 24t22.5 33.5t27 38.5t29 37z" />
    <glyph glyph-name="uni06A7.init" unicode="&#x6a7;" horiz-adv-x="904" 
d="M0 0q-30 0 -46 1.5t-24 5.5q-20 9 -26.5 36t-6.5 74q0 91 20 105q8 4 26.5 8t56.5 4q93 0 174 -4.5t150 -9.5t125.5 -9.5t100.5 -4.5q31 0 51.5 1t24.5 2v7q-94 28 -159 55.5t-105 55.5t-58 60t-18 70q0 39 13 81t34.5 83t50 77.5t61 64.5t66.5 44t66 16q34 0 62.5 -15.5
t52 -41t42 -58t30.5 -65.5q12 -34 21 -64.5t15.5 -67.5t10 -84t3.5 -114q0 -101 -14 -169t-42 -94q-24 -24 -63 -36t-81.5 -18t-85.5 -7t-78 -1q-55 0 -108 2t-107 4t-111.5 4t-123.5 2zM711 380q-15 77 -35.5 129.5t-44 85.5t-47.5 47.5t-45 14.5q-19 0 -41.5 -8
t-41.5 -20.5t-31.5 -28t-12.5 -31.5q0 -9 6 -22.5t35 -35.5t89.5 -54t168.5 -77zM549 908l-210 128q11 20 24.5 43.5t28.5 46.5t28 43t23 34q21 -13 49 -29.5t56 -35t55.5 -36t49.5 -32.5q-9 -17 -22 -38.5t-27 -44t-28.5 -43.5t-26.5 -36z" />
    <glyph glyph-name="uni06A7.medi" unicode="&#x6a7;" horiz-adv-x="940" 
d="M0 0q-30 1 -46 2t-24 5q-20 9 -26.5 36t-6.5 74q0 91 20 105q8 4 26.5 8t56.5 4h107q33 0 65 -1.5t68 -5t80 -11t101 -20.5l2 7q-24 18 -39.5 42t-24 49t-11.5 49t-3 42q0 53 14 103.5t38 95t55 80.5t64.5 62.5t67.5 41t64 14.5q42 0 83 -31t73 -84t52 -124.5t20 -153.5
q0 -35 -4.5 -71t-14.5 -73q3 -2 12.5 -4t22 -3.5t26 -2.5t23.5 -1v-234q-17 0 -43.5 3.5t-58 10t-67 16.5t-71.5 23q-42 -18 -84 -29t-86 -17t-93.5 -8.5t-105.5 -2.5q-30 0 -70 0.5t-84.5 1t-90.5 1t-87 1.5zM731 277q24 11 31.5 30t7.5 35q0 11 -5 33.5t-14.5 49
t-23.5 54.5t-33 50.5t-43 36.5t-52 14q-20 0 -44 -9.5t-46 -25t-37.5 -36t-15.5 -43.5q0 -19 12.5 -43t43.5 -49.5t84.5 -50t134.5 -46.5zM627 873l-210 128q11 20 24.5 43.5t28.5 46.5t28 43t23 33q21 -12 49 -28.5t56.5 -35t55.5 -36.5t49 -32q-9 -17 -22 -38.5t-27 -44
t-28.5 -43.5t-26.5 -36z" />
    <glyph glyph-name="uni06A7.fina" unicode="&#x6a7;" horiz-adv-x="1093" 
d="M979 -2q-17 -3 -44.5 -5t-50.5 -2q-96 0 -158 21t-99.5 55.5t-52.5 79t-15 92.5q0 47 11 96t30.5 94t45.5 84.5t57.5 69.5t65 47t68.5 17q42 0 87.5 -38t82.5 -111t61.5 -181t24.5 -248q0 -55 -7.5 -108t-18 -97t-22.5 -76.5t-22 -48.5q-41 -58 -105 -109.5t-140.5 -89.5
t-160.5 -60.5t-165 -22.5q-82 0 -151.5 25t-120.5 72t-80 114t-29 152q0 42 7.5 94t21 107t32.5 110t43 104q24 47 41 67t26 20q11 0 11 -15q0 -9 -3 -21.5t-7 -22.5q-31 -86 -48 -167t-17 -138q0 -67 22.5 -115.5t60 -79.5t87.5 -46t106 -15q78 0 148 15.5t129 38.5
t106.5 52.5t80.5 57.5t50.5 51.5t17.5 36.5q0 6 -2 19t-5 25zM970 225q-11 44 -30.5 82.5t-43.5 67t-50.5 45t-53.5 16.5q-25 0 -46 -9t-36.5 -23.5t-24 -31t-8.5 -30.5q0 -33 25.5 -54.5t66.5 -35.5t93.5 -20.5t107.5 -6.5zM808 781l-210 128q11 20 24.5 43.5t28 46.5
t28 43t23.5 34q21 -13 49 -29.5t56 -35t55.5 -36t48.5 -32.5q-8 -17 -21 -38.5t-27 -43.5t-28.5 -43t-26.5 -37z" />
    <glyph glyph-name="uni06A8.init" unicode="&#x6a8;" horiz-adv-x="904" 
d="M0 0q-30 0 -46 1.5t-24 5.5q-20 9 -26.5 36t-6.5 74q0 91 20 105q8 4 26.5 8t56.5 4q93 0 174 -4.5t150 -9.5t125.5 -9.5t100.5 -4.5q31 0 51.5 1t24.5 2v7q-94 28 -159 55.5t-105 55.5t-58 60t-18 70q0 39 13 81t34.5 83t50 77.5t61 64.5t66.5 44t66 16q34 0 62.5 -15.5
t52 -41t42 -58t30.5 -65.5q12 -34 21 -64.5t15.5 -67.5t10 -84t3.5 -114q0 -101 -14 -169t-42 -94q-24 -24 -63 -36t-81.5 -18t-85.5 -7t-78 -1q-55 0 -108 2t-107 4t-111.5 4t-123.5 2zM711 380q-15 77 -35.5 129.5t-44 85.5t-47.5 47.5t-45 14.5q-19 0 -41.5 -8
t-41.5 -20.5t-31.5 -28t-12.5 -31.5q0 -9 6 -22.5t35 -35.5t89.5 -54t168.5 -77zM428 888q-47 29 -94 56.5t-92 56.5q22 39 41 72t44 67q44 -25 86.5 -50.5t90.5 -53.5q20 32 38.5 61t35.5 56q42 -26 89.5 -55t91.5 -60q-11 -19 -23 -38.5t-24.5 -38t-23 -33.5t-17.5 -24
q-41 25 -82.5 51t-82.5 51q-19 -27 -38 -56.5t-40 -61.5zM472 1143q-47 28 -91 54t-87 52q19 35 40 69t46 65l178 -106q-5 -9 -14 -24t-20.5 -34t-24.5 -38.5t-27 -37.5z" />
    <glyph glyph-name="uni06A8.medi" unicode="&#x6a8;" horiz-adv-x="940" 
d="M0 0q-30 1 -46 2t-24 5q-20 9 -26.5 36t-6.5 74q0 91 20 105q8 4 26.5 8t56.5 4h107q33 0 65 -1.5t68 -5t80 -11t101 -20.5l2 7q-24 18 -39.5 42t-24 49t-11.5 49t-3 42q0 53 14 103.5t38 95t55 80.5t64.5 62.5t67.5 41t64 14.5q42 0 83 -31t73 -84t52 -124.5t20 -153.5
q0 -35 -4.5 -71t-14.5 -73q3 -2 12.5 -4t22 -3.5t26 -2.5t23.5 -1v-234q-17 0 -43.5 3.5t-58 10t-67 16.5t-71.5 23q-42 -18 -84 -29t-86 -17t-93.5 -8.5t-105.5 -2.5q-30 0 -70 0.5t-84.5 1t-90.5 1t-87 1.5zM731 277q24 11 31.5 30t7.5 35q0 11 -5 33.5t-14.5 49
t-23.5 54.5t-33 50.5t-43 36.5t-52 14q-20 0 -44 -9.5t-46 -25t-37.5 -36t-15.5 -43.5q0 -19 12.5 -43t43.5 -49.5t84.5 -50t134.5 -46.5zM506 843q-47 29 -93.5 56.5t-92.5 56.5q22 39 41 72t45 67q44 -25 86 -50.5t90 -53.5q20 32 38.5 61.5t35.5 55.5q42 -25 89.5 -54.5
t91.5 -60.5q-11 -19 -23 -38.5t-24 -38t-23 -33.5t-18 -24q-41 25 -82.5 51t-82.5 52q-19 -28 -38 -57.5t-40 -61.5zM550 1098q-47 28 -91 54t-87 52q19 35 40 69t46 65l178 -106q-5 -9 -13.5 -24t-20.5 -34t-25 -38.5t-27 -37.5z" />
    <glyph glyph-name="uni06A8.fina" unicode="&#x6a8;" horiz-adv-x="1093" 
d="M979 -2q-17 -3 -44.5 -5t-50.5 -2q-96 0 -158 21t-99.5 55.5t-52.5 79t-15 92.5q0 47 11 96t30.5 94t45.5 84.5t57.5 69.5t65 47t68.5 17q42 0 87.5 -38t82.5 -111t61.5 -181t24.5 -248q0 -55 -7.5 -108t-18 -97t-22.5 -76.5t-22 -48.5q-41 -58 -105 -109.5t-140.5 -89.5
t-160.5 -60.5t-165 -22.5q-82 0 -151.5 25t-120.5 72t-80 114t-29 152q0 42 7.5 94t21 107t32.5 110t43 104q24 47 41 67t26 20q11 0 11 -15q0 -9 -3 -21.5t-7 -22.5q-31 -86 -48 -167t-17 -138q0 -67 22.5 -115.5t60 -79.5t87.5 -46t106 -15q78 0 148 15.5t129 38.5
t106.5 52.5t80.5 57.5t50.5 51.5t17.5 36.5q0 6 -2 19t-5 25zM970 225q-11 44 -30.5 82.5t-43.5 67t-50.5 45t-53.5 16.5q-25 0 -46 -9t-36.5 -23.5t-24 -31t-8.5 -30.5q0 -33 25.5 -54.5t66.5 -35.5t93.5 -20.5t107.5 -6.5zM689 762q-47 29 -94 56.5t-93 56.5q23 39 42 72
t44 67q44 -25 86.5 -50.5t90.5 -53.5q20 32 38.5 61.5t35.5 55.5q42 -25 89.5 -54.5t91.5 -60.5q-11 -19 -23 -38.5t-24.5 -38t-23 -33.5t-17.5 -24q-41 25 -82.5 51t-82.5 52q-20 -28 -39 -57.5t-39 -61.5zM733 1017q-47 28 -91 54t-87 52q19 35 40 69t46 65l178 -106
q-5 -9 -14 -24t-20.5 -34t-24.5 -38.5t-27 -37.5z" />
    <glyph glyph-name="uni06AA.init" unicode="&#x6aa;" horiz-adv-x="1777" 
d="M1561 237q-17 52 -55.5 82.5t-95 47.5t-128.5 21.5t-155 4.5q-57 0 -131 -2.5t-152 -6t-152.5 -6.5t-130.5 -3q-52 0 -109.5 3t-106.5 15.5t-81 36.5t-32 67q0 36 12 79.5t34 88t54 86.5t71 76q32 27 67.5 54.5t91 60t138 74.5t207.5 98l-92 -291q-47 -14 -95.5 -31.5
t-94.5 -36.5t-87 -38.5t-71.5 -37t-48 -31t-17.5 -22.5q0 -10 23.5 -16.5t60 -11t81 -6t86.5 -1.5q60 0 140.5 2.5t163.5 6t158 6.5t125 3q72 0 124.5 -5.5t91.5 -16t67.5 -26t53.5 -35.5q32 -25 54 -56.5t35.5 -64t19 -65.5t5.5 -62q0 -28 -4.5 -66.5t-11 -77.5t-15.5 -75
t-17 -59q-128 -4 -241.5 -6.5t-218.5 -4t-206 -2.5t-206 -1q-87 0 -177 1t-184 3t-195.5 4.5t-212.5 5.5q-30 1 -46.5 2t-24.5 5q-20 9 -26.5 36t-6.5 74q0 91 20 105q8 4 27 8t57 4q122 -3 233.5 -5.5t214.5 -3.5t199 -2t190 -1t179.5 1t171 3t176.5 5t196 6z" />
    <glyph glyph-name="uni06AA.medi" unicode="&#x6aa;" horiz-adv-x="1689" 
d="M1561 237q-17 52 -55.5 82.5t-95 47.5t-128.5 21.5t-155 4.5q-57 0 -131 -2.5t-152 -6t-152.5 -6.5t-130.5 -3q-52 0 -109.5 3t-106.5 15.5t-81 36.5t-32 67q0 36 12 79.5t34 88t54 86.5t71 76q32 27 67.5 54.5t91 60t138 74.5t207.5 98l-92 -291q-47 -14 -95.5 -31.5
t-94.5 -36.5t-87 -38.5t-71.5 -37t-48 -31t-17.5 -22.5q0 -10 23.5 -16.5t60 -11t81 -6t86.5 -1.5q60 0 140.5 2.5t163.5 6t158 6.5t125 3q72 0 124.5 -5.5t91.5 -16t67.5 -26t53.5 -35.5q32 -25 54 -56.5t35.5 -64t19 -65.5t5.5 -62q0 -28 -4.5 -66.5t-11 -77.5t-15.5 -75
t-17 -59q-128 -4 -241.5 -6.5t-218.5 -4t-206 -2.5t-206 -1q-87 0 -177 1t-184 3t-195.5 4.5t-212.5 5.5q-30 1 -46.5 2t-24.5 5q-20 9 -26.5 36t-6.5 74q0 91 20 105q8 4 27 8t57 4q122 -3 233.5 -5.5t214.5 -3.5t199 -2t190 -1t179.5 1t171 3t176.5 5t196 6z" />
    <glyph glyph-name="uni06AA.fina" unicode="&#x6aa;" horiz-adv-x="1892" 
d="M1845 0q-129 -4 -243 -7t-221 -5t-214.5 -3t-223.5 -1q-184 0 -317 2.5t-226.5 15.5t-152.5 39.5t-94.5 76.5t-52.5 126.5t-27 187.5q0 3 3 5.5t5 -0.5q53 -53 101.5 -90.5t104 -61t123 -37t156.5 -19t205 -6.5t269 -1q94 0 179.5 1t171.5 3t176.5 5t196.5 6
q-18 52 -56.5 82.5t-94.5 47.5t-128.5 21.5t-155.5 4.5q-56 0 -130.5 -2.5t-152.5 -6t-152 -6.5t-131 -3q-52 0 -109.5 3t-106 15.5t-81 36.5t-32.5 67q0 36 12.5 79.5t34.5 88t53.5 86.5t70.5 76q32 27 67.5 54.5t91.5 60t138.5 74.5t207.5 98l-93 -291
q-47 -14 -95.5 -31.5t-94 -36.5t-86.5 -38.5t-72 -37t-48.5 -31t-17.5 -22.5q0 -10 23.5 -16.5t60 -11t81 -6t86.5 -1.5q60 0 141 2.5t163.5 6t158 6.5t125.5 3q72 0 124 -5.5t91 -16t67.5 -26t53.5 -35.5q33 -25 55 -56.5t35 -64t19 -65.5t6 -62q0 -28 -4.5 -66.5
t-11.5 -77.5t-15.5 -75t-16.5 -59z" />
    <glyph glyph-name="uni06AB.init" unicode="&#x6ab;" horiz-adv-x="1016" 
d="M315 482l-31 -57q-56 43 -88.5 70t-49 45.5t-20.5 32t-4 28.5q0 13 3 31.5t9.5 36t15 32t17.5 17.5q52 22 136.5 56.5t186 76t214 87t219.5 89.5q-15 -52 -31.5 -103t-37.5 -106q-58 -20 -123.5 -44t-129 -47.5t-121 -46t-99.5 -41.5v-4q55 -38 123.5 -84.5t138.5 -96.5
t137.5 -98.5t121.5 -89.5l-4 -86q-2 -40 -9 -67.5t-15.5 -45t-17 -27t-14.5 -13.5q-17 -10 -44 -18t-67 -12.5t-94 -6.5t-123 -2q-44 0 -94 0.5t-100 2t-99 2.5t-91 2.5t-75.5 2.5t-53.5 2q-30 2 -46.5 2.5t-24.5 4.5q-20 9 -26.5 36t-6.5 74q0 91 20 105q8 4 27 8t57 4
q37 0 91 -2.5t115 -5l122 -5t112 -2.5q62 0 121 2t115 7v8q-25 21 -71.5 54.5t-99.5 69t-104 69t-87 53.5zM833 1076l-578 -237l19 90l579 244z" />
    <glyph glyph-name="uni06AB.medi" unicode="&#x6ab;" horiz-adv-x="992" 
d="M833 1076l-578 -237l19 90l579 244zM-103 117q0 91 20 105q8 4 27 8t57 4q37 0 91 -2.5t115 -5l122 -5t112 -2.5q62 0 119 2t113 7v8q-16 14 -41.5 34t-58 43t-68.5 47.5t-70.5 47t-66 42t-53.5 32.5l-31 -57q-59 45 -91.5 72.5t-48.5 46t-19 31t-3 26.5q0 13 3.5 31.5
t10 36t15 32t16.5 17.5q45 19 126.5 52t183.5 75t217.5 89t228.5 93q-15 -52 -32.5 -102.5t-36.5 -106.5q-56 -20 -121.5 -43.5t-130 -47.5t-122.5 -46.5t-99 -41.5v-4q47 -30 105.5 -71t122.5 -87.5t129 -94.5t123 -92q36 -26 64.5 -41t67.5 -15v-234q-28 0 -45.5 1t-32 6
t-31 14t-40.5 27q-25 -17 -54 -28t-67 -18t-89 -10.5t-120 -3.5q-44 0 -94 0.5t-100 2t-99 2.5t-91 2.5t-75.5 2.5t-53.5 2q-30 2 -46.5 2.5t-24.5 4.5q-20 9 -26.5 36t-6.5 74v0z" />
    <glyph glyph-name="uni06AB.fina" unicode="&#x6ab;" horiz-adv-x="1433" 
d="M1363 1027q-15 -52 -32.5 -102.5t-36.5 -106.5q-56 -20 -121.5 -43.5t-130 -47.5t-122.5 -46.5t-99 -41.5v-4q47 -30 105.5 -71t122.5 -87.5t129 -94.5t123 -92q35 -26 64 -41t68 -15v-234q-28 0 -45 1.5t-31.5 6t-29.5 13.5t-38 26q-20 -18 -69.5 -30t-116 -21.5
t-143 -15t-150 -8.5t-136 -4.5t-102.5 -1.5q-150 0 -245 20t-148 56t-72.5 85t-19.5 107q0 47 9.5 100.5t24.5 99.5q17 51 32.5 72.5t26.5 21.5q6 0 7.5 -5t1.5 -11q0 -5 -0.5 -14.5t-2.5 -19.5q-4 -24 -5.5 -40t-1.5 -26q0 -66 24.5 -108.5t79 -67t142.5 -34t215 -9.5
q54 0 115.5 1t124.5 4t124.5 7.5t115.5 11.5v9q-16 16 -42 37t-58.5 44.5t-69 48.5t-72 48.5t-68 43.5t-55.5 34l-32 -57q-58 45 -91 72.5t-48.5 46t-19 31t-3.5 26.5q0 13 4 31.5t10.5 36t15 32t16.5 17.5q45 19 126.5 52t183.5 75t217.5 89t228.5 93zM1273 1076l-578 -237
l19 90l579 244z" />
    <glyph glyph-name="uni06AC.init" unicode="&#x6ac;" horiz-adv-x="1016" 
d="M319 514l-35 -57q-59 48 -91 76.5t-48 47.5t-19.5 33.5t-3.5 34.5q0 15 4.5 35.5t11.5 40.5t16 36t20 22q42 22 119.5 59.5t178 82.5t215.5 96t232 101q-13 -53 -31 -108.5t-42 -120.5q-61 -22 -128 -46.5t-132.5 -49.5t-125 -48.5t-103.5 -42.5v-7q57 -43 128.5 -98.5
t145 -114t144.5 -116t127 -104.5l-4 -86q-2 -40 -9 -67.5t-15.5 -45t-17 -27t-14.5 -13.5q-17 -10 -44 -18t-67 -12.5t-94 -6.5t-123 -2q-44 0 -94 0.5t-100 2t-99 2.5t-91 2.5t-75.5 2.5t-53.5 2q-30 2 -46.5 2.5t-24.5 4.5q-20 9 -26.5 36t-6.5 74q0 91 20 105q8 4 27 8
t57 4q37 0 91 -2.5t115 -5l122 -5t112 -2.5q62 0 122.5 2t116.5 7v8q-17 16 -43.5 38.5t-59 48t-68 53t-70 53.5t-66 48t-54.5 37zM509 1096l-210 128q11 21 24.5 44t28.5 46t28 43t23 34q21 -13 49 -29.5t56 -35t55.5 -36t49.5 -32.5q-9 -16 -22 -37.5t-27 -44t-28.5 -43.5
t-26.5 -37z" />
    <glyph glyph-name="uni06AC.medi" unicode="&#x6ac;" horiz-adv-x="992" 
d="M-103 117q0 91 20 105q8 4 27 8t57 4q37 0 91 -2.5t115 -5l122 -5t112 -2.5q62 0 115.5 2t108.5 7v8q-14 16 -39.5 38.5t-56.5 48t-65.5 53t-68 53.5t-64 48t-52.5 37l-35 -57q-59 48 -91 76.5t-48 47.5t-19.5 33.5t-3.5 34.5q0 15 4.5 35.5t11.5 40.5t16 36t20 22
q42 22 123 60t185.5 85t223 99t235.5 101q-12 -52 -30 -108t-43 -120q-60 -22 -131 -47.5t-140.5 -51.5t-132.5 -51t-107 -44v-7q47 -35 109 -85t129 -105.5t136 -112t130 -106.5q35 -27 66.5 -41.5t65.5 -14.5v-234q-28 0 -45.5 1t-32 6t-31 14t-40.5 27q-25 -17 -54 -28
t-67 -18t-89 -10.5t-120 -3.5q-44 0 -94 0.5t-100 2t-99 2.5t-91 2.5t-75.5 2.5t-53.5 2q-30 2 -46.5 2.5t-24.5 4.5q-20 9 -26.5 36t-6.5 74v0zM515 1096l-210 128q11 21 24.5 44t28 46t28 43t23.5 34q21 -13 49 -29.5t56 -35t55.5 -36t48.5 -32.5q-8 -16 -21 -37.5
t-27 -44t-28.5 -43.5t-26.5 -37z" />
    <glyph glyph-name="uni06AC.fina" unicode="&#x6ac;" horiz-adv-x="1003" 
d="M774 969q20 18 44.5 37.5t50 38.5t49.5 36t42 29q3 -65 8 -147t10 -173t9.5 -187t7.5 -188.5t5.5 -176.5t2.5 -151q0 -47 -28 -67q-37 -24 -130.5 -40.5t-258.5 -16.5q-107 0 -199.5 4t-161.5 26.5t-109 72t-40 140.5q0 118 70 237q39 68 59 68q12 0 12 -16
q0 -7 -2 -15.5t-4 -18.5q-23 -92 -23 -136q0 -32 17 -54t45 -36t63 -22t71 -12t69 -4.5t56 -0.5q25 0 59.5 0.5t72.5 2.5t75.5 6t67.5 12t48.5 19t18.5 29q0 29 -5 82t-12.5 119t-17 138.5t-18 141.5t-15 127.5t-9.5 95.5zM351 433v3l201 103v7q-11 -1 -20 -1h-14
q-56 0 -81 11.5t-25 39.5q0 34 24.5 76.5t68.5 85.5q47 46 64 46q11 0 11 -11q0 -5 -9 -18q-24 -34 -39.5 -64.5t-15.5 -46.5q0 -19 36 -19q31 0 50.5 -1t31 -5t16 -10t4.5 -17q0 -15 -8.5 -35.5t-20.5 -41.5t-26 -39t-27 -27q-22 -18 -66 -28t-121 -10q-7 0 -16 0.5
t-18 1.5zM653 1125q-47 28 -91 54t-87 51q19 35 40 69t46 66l178 -107q-5 -9 -14 -24t-20.5 -34t-24.5 -38.5t-27 -36.5z" />
    <glyph glyph-name="uni06AE.init" unicode="&#x6ae;" horiz-adv-x="1016" 
d="M319 514l-35 -57q-59 48 -91 76.5t-48 47.5t-19.5 33.5t-3.5 34.5q0 15 4.5 35.5t11.5 40.5t16 36t20 22q42 22 119.5 59.5t178 82.5t215.5 96t232 101q-13 -53 -31 -108.5t-42 -120.5q-61 -22 -128 -46.5t-132.5 -49.5t-125 -48.5t-103.5 -42.5v-7q57 -43 128.5 -98.5
t145 -114t144.5 -116t127 -104.5l-4 -86q-2 -40 -9 -67.5t-15.5 -45t-17 -27t-14.5 -13.5q-17 -10 -44 -18t-67 -12.5t-94 -6.5t-123 -2q-44 0 -94 0.5t-100 2t-99 2.5t-91 2.5t-75.5 2.5t-53.5 2q-30 2 -46.5 2.5t-24.5 4.5q-20 9 -26.5 36t-6.5 74q0 91 20 105q8 4 27 8
t57 4q37 0 91 -2.5t115 -5l122 -5t112 -2.5q62 0 122.5 2t116.5 7v8q-17 16 -43.5 38.5t-59 48t-68 53t-70 53.5t-66 48t-54.5 37zM573 -127l92 -60t90 -60q-23 -37 -43.5 -69.5t-47.5 -66.5q-43 28 -84.5 54.5t-88.5 57.5q-41 -64 -79 -115q-41 27 -86 58.5t-89 63.5
q11 18 24.5 37.5t26 37.5t24 32.5t18.5 23.5q40 -27 80 -54.5t81 -54.5q20 26 40 55.5t42 59.5zM516 -371q45 -31 89 -59t85 -55q-20 -34 -42.5 -68.5t-49.5 -65.5l-175 115q5 9 15 24t22.5 33.5t26.5 38.5t29 37z" />
    <glyph glyph-name="uni06AE.medi" unicode="&#x6ae;" horiz-adv-x="992" 
d="M-103 117q0 91 20 105q8 4 27 8t57 4q37 0 91 -2.5t115 -5l122 -5t112 -2.5q62 0 115.5 2t108.5 7v8q-14 16 -39.5 38.5t-56.5 48t-65.5 53t-68 53.5t-64 48t-52.5 37l-35 -57q-59 48 -91 76.5t-48 47.5t-19.5 33.5t-3.5 34.5q0 15 4.5 35.5t11.5 40.5t16 36t20 22
q42 22 123 60t185.5 85t223 99t235.5 101q-12 -52 -30 -108t-43 -120q-60 -22 -131 -47.5t-140.5 -51.5t-132.5 -51t-107 -44v-7q47 -35 109 -85t129 -105.5t136 -112t130 -106.5q35 -27 66.5 -41.5t65.5 -14.5v-234q-28 0 -45.5 1t-32 6t-31 14t-40.5 27q-25 -17 -54 -28
t-67 -18t-89 -10.5t-120 -3.5q-44 0 -94 0.5t-100 2t-99 2.5t-91 2.5t-75.5 2.5t-53.5 2q-30 2 -46.5 2.5t-24.5 4.5q-20 9 -26.5 36t-6.5 74v0zM573 -127l92 -60t90 -60q-23 -37 -43.5 -69.5t-47.5 -66.5q-43 28 -84.5 54.5t-88.5 57.5q-41 -64 -79 -115q-41 27 -86 58.5
t-89 63.5q11 18 24.5 37.5t26 37.5t24 32.5t18.5 23.5q40 -27 80 -54.5t81 -54.5q20 26 40 55.5t42 59.5zM516 -371q45 -31 89 -59t85 -55q-20 -34 -42.5 -68.5t-49.5 -65.5l-175 115q5 9 15 24t22.5 33.5t26.5 38.5t29 37z" />
    <glyph glyph-name="uni06AE.fina" unicode="&#x6ae;" horiz-adv-x="1003" 
d="M774 969q20 18 44.5 37.5t50 38.5t49.5 36t42 29q3 -65 8 -147t10 -173t9.5 -187t7.5 -188.5t5.5 -176.5t2.5 -151q0 -47 -28 -67q-37 -24 -130.5 -40.5t-258.5 -16.5q-107 0 -199.5 4t-161.5 26.5t-109 72t-40 140.5q0 118 70 237q39 68 59 68q12 0 12 -16
q0 -7 -2 -15.5t-4 -18.5q-23 -92 -23 -136q0 -32 17 -54t45 -36t63 -22t71 -12t69 -4.5t56 -0.5q25 0 59.5 0.5t72.5 2.5t75.5 6t67.5 12t48.5 19t18.5 29q0 29 -5 82t-12.5 119t-17 138.5t-18 141.5t-15 127.5t-9.5 95.5zM351 433v3l201 103v7q-11 -1 -20 -1h-14
q-56 0 -81 11.5t-25 39.5q0 34 24.5 76.5t68.5 85.5q47 46 64 46q11 0 11 -11q0 -5 -9 -18q-24 -34 -39.5 -64.5t-15.5 -46.5q0 -19 36 -19q31 0 50.5 -1t31 -5t16 -10t4.5 -17q0 -15 -8.5 -35.5t-20.5 -41.5t-26 -39t-27 -27q-22 -18 -66 -28t-121 -10q-7 0 -16 0.5
t-18 1.5zM637 -158l92 -60t90 -60q-24 -37 -44.5 -70t-46.5 -66q-43 27 -84.5 54t-88.5 57q-41 -63 -79 -114q-41 27 -86.5 58.5t-88.5 63.5q11 18 24.5 37.5t26 37.5t23.5 32.5t19 23.5q40 -27 80 -54.5t80 -54.5q21 26 41 55.5t42 59.5zM580 -402q45 -31 88.5 -59
t84.5 -55q-19 -35 -41.5 -69t-49.5 -65l-175 115q5 9 14.5 24t22.5 33.5t27 38.5t29 37z" />
    <glyph glyph-name="uni06B0.init" unicode="&#x6b0;" horiz-adv-x="1016" 
d="M669 537q-47 0 -73.5 29t-26.5 77q0 23 4 46.5t14 44.5q-61 -22 -116.5 -44t-96.5 -40v-11q55 -37 124.5 -84.5t141 -98.5t140 -100t122.5 -90l-4 -86q-2 -40 -9 -67.5t-15.5 -45t-17 -27t-14.5 -13.5q-17 -10 -44 -18t-67 -12.5t-94 -6.5t-123 -2q-44 0 -94 0.5t-100 2
t-99 2.5t-91 2.5t-75.5 2.5t-53.5 2q-30 2 -46.5 2.5t-24.5 4.5q-20 9 -26.5 36t-6.5 74q0 91 20 105q8 4 27 8t57 4q37 0 91 -2.5t115 -5l122 -5t112 -2.5q62 0 121 2t115 7v8q-25 21 -71.5 54.5t-99.5 69t-104 69t-87 53.5l-31 -57q-56 43 -88.5 70t-49 45.5t-20.5 32
t-4 28.5q0 13 3 31.5t9.5 36t15 32t17.5 17.5q52 22 136.5 56.5t186 76t214 87t219.5 89.5q-8 -25 -15 -48.5t-14.5 -47t-16.5 -47.5t-19 -51q-26 -10 -54 -20t-58 -20q22 -19 33.5 -47t11.5 -54q0 -29 -6.5 -57t-21.5 -50t-38.5 -35t-55.5 -13zM833 1076l-578 -237l19 90
l579 244zM677 756q-12 0 -23 -8.5t-20 -21t-14.5 -28t-5.5 -27.5q0 -26 17.5 -38.5t40.5 -12.5q14 0 27 2.5t23.5 7.5t16 14.5t5.5 23.5q0 11 -4.5 26.5t-13.5 29t-21.5 23t-27.5 9.5z" />
    <glyph glyph-name="uni06B0.medi" unicode="&#x6b0;" horiz-adv-x="992" 
d="M673 228v8q-16 14 -41.5 34t-58 43t-68.5 47.5t-70.5 47t-66 42t-53.5 32.5l-31 -57q-59 45 -91.5 72.5t-48.5 46t-19 31t-3 26.5q0 13 3.5 31.5t10 36t15 32t16.5 17.5q45 19 126.5 52t183.5 75t217.5 89t228.5 93q-8 -25 -15 -48.5t-15.5 -47t-17.5 -48t-18 -51.5
q-24 -9 -50 -18t-53 -19q22 -19 33.5 -47t11.5 -54q0 -29 -7 -57t-21.5 -50t-38 -35t-55.5 -13q-47 0 -74 29t-27 77q0 23 4.5 46.5t15.5 45.5q-66 -24 -124.5 -46.5t-98.5 -40.5v-11q47 -29 107 -71t125 -89t131.5 -96t124.5 -93q36 -26 64.5 -41t67.5 -15v-234
q-28 0 -45.5 1t-32 6t-31 14t-40.5 27q-25 -17 -54 -28t-67 -18t-89 -10.5t-120 -3.5q-44 0 -94 0.5t-100 2t-99 2.5t-91 2.5t-75.5 2.5t-53.5 2q-30 2 -46.5 2.5t-24.5 4.5q-20 9 -26.5 36t-6.5 74q0 91 20 105q8 4 27 8t57 4q37 0 91 -2.5t115 -5l122 -5t112 -2.5
q62 0 119 2t113 7zM833 1076l-578 -237l19 90l579 244zM685 758q-12 0 -23 -8.5t-20 -21t-15 -28t-6 -27.5q0 -26 17.5 -38.5t41.5 -12.5q14 0 27 2.5t23 7.5t16 14.5t6 23.5q0 11 -5 26.5t-13.5 29t-21.5 23t-27 9.5z" />
    <glyph glyph-name="uni06B0.fina" unicode="&#x6b0;" horiz-adv-x="1433" 
d="M1118 541q-47 0 -74 29t-27 77q0 23 4.5 46t14.5 45q-66 -24 -124.5 -47t-98.5 -41v-11q47 -29 107 -71t125 -89t131.5 -96t124.5 -93q35 -26 64 -41t68 -15v-234q-28 0 -45 1.5t-31.5 6t-29.5 13.5t-38 26q-22 -17 -70 -29.5t-112.5 -21.5t-139 -14.5t-146.5 -9
t-137.5 -5t-111.5 -1.5q-103 0 -179.5 9.5t-130 27t-87.5 42t-53.5 55t-27 64.5t-7.5 70q0 47 9.5 100.5t24.5 99.5q17 51 32.5 72.5t26.5 21.5q6 0 7.5 -5t1.5 -11q0 -5 -0.5 -14.5t-2.5 -19.5q-4 -24 -5.5 -40t-1.5 -26q0 -66 24.5 -108.5t79 -67t142.5 -34t215 -9.5
q54 0 115.5 1t124.5 4t124.5 7.5t115.5 11.5v9q-16 16 -42 37t-58.5 44.5t-69 48.5t-72 48.5t-68 43.5t-55.5 34l-32 -57q-58 45 -91 72.5t-48.5 46t-19 31t-3.5 26.5q0 13 4 31.5t10.5 36t15 32t16.5 17.5q45 19 126.5 52t183.5 75t217.5 89t228.5 93q-8 -25 -15.5 -48.5
t-15.5 -46.5t-17 -47.5t-19 -51.5q-23 -9 -48.5 -18.5t-51.5 -18.5q20 -19 32 -46.5t12 -53.5q0 -29 -7 -57t-21.5 -50t-38 -35t-55.5 -13zM1273 1076l-578 -237l19 90l579 244zM1126 759q-12 0 -23.5 -8t-20 -21t-14.5 -28t-6 -27q0 -26 17.5 -38.5t41.5 -12.5
q13 0 26.5 2.5t23.5 7.5t16 14.5t6 23.5q0 11 -5 26.5t-13.5 29t-21.5 22.5t-27 9z" />
    <glyph glyph-name="uni06B2.init" unicode="&#x6b2;" horiz-adv-x="1016" 
d="M315 482l-31 -57q-56 43 -88.5 70t-49 45.5t-20.5 32t-4 28.5q0 13 3 31.5t9.5 36t15 32t17.5 17.5q52 22 136.5 56.5t186 76t214 87t219.5 89.5q-15 -52 -31.5 -103t-37.5 -106q-58 -20 -123.5 -44t-129 -47.5t-121 -46t-99.5 -41.5v-4q55 -38 123.5 -84.5t138.5 -96.5
t137.5 -98.5t121.5 -89.5l-4 -86q-2 -40 -9 -67.5t-15.5 -45t-17 -27t-14.5 -13.5q-17 -10 -44 -18t-67 -12.5t-94 -6.5t-123 -2q-44 0 -94 0.5t-100 2t-99 2.5t-91 2.5t-75.5 2.5t-53.5 2q-30 2 -46.5 2.5t-24.5 4.5q-20 9 -26.5 36t-6.5 74q0 91 20 105q8 4 27 8t57 4
q37 0 91 -2.5t115 -5l122 -5t112 -2.5q62 0 121 2t115 7v8q-25 21 -71.5 54.5t-99.5 69t-104 69t-87 53.5zM833 1076l-578 -237l19 90l579 244zM307 -499l-200 121q10 19 21 39.5t22.5 40.5t22.5 38.5t22 33.5q49 -26 96 -55t94 -61l70 120q59 -31 109 -61t88 -56
q-23 -39 -44.5 -76t-45.5 -72q-23 13 -47 28t-48 29.5t-46 28.5t-40 26q-18 -32 -36.5 -64t-37.5 -60z" />
    </font>
</defs>
</svg>
