<?xml version="1.0" standalone="no"?>
<!DOCTYPE svg PUBLIC "-//W3C//DTD SVG 1.1//EN" "http://www.w3.org/Graphics/SVG/1.1/DTD/svg11.dtd" >
<svg xmlns="http://www.w3.org/2000/svg" xmlns:xlink="http://www.w3.org/1999/xlink" version="1.1">
<metadata>
Created by FontForge 20170731 at Sat Oct 15 03:00:02 2016
 By Aleksey,,,
(c)  2015 Bahij Virtual Academy. All rights reserved.
</metadata>
<defs>
<font id="BahijGretaArabic-Regular" horiz-adv-x="0" >
  <font-face 
    font-family="Bahij Greta Arabic"
    font-weight="400"
    font-stretch="normal"
    units-per-em="2048"
    panose-1="2 4 5 3 5 2 1 2 2 3"
    ascent="1638"
    descent="-410"
    x-height="928"
    cap-height="1194"
    bbox="-288 -1828 5716 2592"
    underline-thickness="50"
    underline-position="-150"
    unicode-range="U+0020-FEFC"
  />
<missing-glyph horiz-adv-x="728" 
d="M0 0v1020h728v-1020h-728zM117 947l247 -372l248 372h-495zM655 881l-247 -371l247 -372v743zM612 73l-248 371l-247 -371h495zM73 138l247 372l-247 371v-743z" />
    <glyph glyph-name="uniFB01" unicode="fi" horiz-adv-x="1212" 
d="M59 72l154 45v690h-166v84l166 39v92q0 168 122 295q130 135 324 135q146 0 240 -47l-33 -180h-45l-264 116q-152 -84 -152 -258v-155h379l140 18h81v-825l162 -47v-74h-489v72l135 45v690h-408v-686l148 -47v-74h-494v72z" />
    <glyph glyph-name="uniFB02" unicode="fl" horiz-adv-x="1204" 
d="M665 72l152 47v1128l-256 86q-156 -86 -156 -258v-147h205v-121h-205v-686l148 -47v-74h-494v72l154 45v690h-166v84l166 39v110q0 167 124 283q132 123 337 123q83 0 168 -21l55 15h113v-1317l159 -49v-74h-504v72z" />
    <glyph glyph-name="uniFC31" unicode="&#xfed3;&#xfef0;" horiz-adv-x="2008" arabic-form="isolated" 
d="M1781 524q-75 285 -211 285q-67 0 -127 -81q-55 -74 -76 -173q78 -59 199 -59q112 0 215 28zM1185 0q25 -35 25 -68q0 -45 -34 -137q-33 -92 -56 -110q-216 -156 -590 -156q-223 0 -336 115q-94 95 -94 241q0 205 160 451l59 -33q-82 -168 -82 -274q0 -281 330 -281
q321 0 545 121q-71 131 -279 131h-35l-6 10l62 191l12 6h648q176 0 289 22q6 37 6 82q0 68 -12 142l-59 -101q-84 -35 -189 -35q-153 0 -198 76q-64 83 -64 189q4 135 93 271q102 157 237 157q136 0 228 -205q83 -186 83 -414q0 -70 -12 -123q-11 -50 -72 -136
q-57 -79 -76 -85q-99 -47 -340 -47h-243zM1461 1356q62 78 125 131q90 -76 129 -131q-49 -72 -129 -127q-76 55 -125 127z" />
    <glyph glyph-name="uniFC32" unicode="&#xfed3;&#xfef2;" horiz-adv-x="2008" arabic-form="isolated" 
d="M743 -877q-66 48 -113 111q-51 -63 -118 -111q-76 56 -127 129q63 76 127 132q92 -76 118 -115q55 65 113 115q94 -76 131 -132q-51 -73 -131 -129zM1781 524q-75 285 -211 285q-67 0 -127 -81q-55 -74 -76 -173q78 -59 199 -59q112 0 215 28zM1185 0q25 -35 25 -68
q0 -45 -34 -137q-33 -92 -56 -110q-216 -156 -590 -156q-223 0 -336 115q-94 95 -94 241q0 205 160 451l59 -33q-82 -168 -82 -274q0 -281 330 -281q321 0 545 121q-71 131 -279 131h-35l-6 10l62 191l12 6h648q176 0 289 22q6 37 6 82q0 68 -12 142l-59 -101
q-84 -35 -189 -35q-153 0 -198 76q-64 83 -64 189q4 135 93 271q102 157 237 157q136 0 228 -205q83 -186 83 -414q0 -70 -12 -123q-11 -50 -72 -136q-57 -79 -76 -85q-99 -47 -340 -47h-243zM1461 1356q62 78 125 131q90 -76 129 -131q-49 -72 -129 -127q-76 55 -125 127z
" />
    <glyph glyph-name="uniFC43" unicode="&#xfedf;&#xfef0;" horiz-adv-x="1814" arabic-form="isolated" 
d="M1185 0q25 -35 25 -68q0 -45 -34 -137q-33 -92 -56 -110q-216 -156 -590 -156q-223 0 -336 115q-94 95 -94 241q0 205 160 451l59 -33q-82 -168 -82 -274q0 -281 330 -281q321 0 545 121q-71 131 -279 131h-35l-6 10l62 191l12 6h375q185 0 248 14l-23 912l-53 137
l186 182l41 -25v-96l94 -172l-94 -100v-727q0 -52 -91 -173q-84 -111 -128 -139q-29 -19 -159 -20h-77z" />
    <glyph glyph-name="uniFC44" unicode="&#xfedf;&#xfef2;" horiz-adv-x="1814" arabic-form="isolated" 
d="M743 -877q-66 48 -113 111q-51 -63 -118 -111q-76 56 -127 129q63 76 127 132q92 -76 118 -115q55 65 113 115q94 -76 131 -132q-51 -73 -131 -129zM1185 0q25 -35 25 -68q0 -45 -34 -137q-33 -92 -56 -110q-216 -156 -590 -156q-223 0 -336 115q-94 95 -94 241
q0 205 160 451l59 -33q-82 -168 -82 -274q0 -281 330 -281q321 0 545 121q-71 131 -279 131h-35l-6 10l62 191l12 6h375q185 0 248 14l-23 912l-53 137l186 182l41 -25v-96l94 -172l-94 -100v-727q0 -52 -91 -173q-84 -111 -128 -139q-29 -19 -159 -20h-77z" />
    <glyph glyph-name="uniFC64" unicode="&#xfe8c;&#xfeae;" horiz-adv-x="1480" arabic-form="final" 
d="M1354 854q-119 -59 -246 -59q-26 0 -143 96l6 33q96 0 119 4v2q-39 22 -39 90q0 77 49 140q54 69 131 69q68 0 100 -90q16 -45 19 -90l-33 -9q-35 47 -84 47q-69 0 -123 -49q28 -84 123 -84q78 0 164 33l10 -14zM859 0q-94 0 -190 84q-12 -139 -105 -294
q-110 -185 -244 -185q-35 0 -166 72q-119 66 -151 94l25 57q94 -25 159 -25q271 0 394 363q-11 26 -136 307l131 158h29l47 -195q39 -149 74 -186q39 -42 153 -43q126 1 195 18q20 97 73 332l127 84l29 -8q-21 -302 -47 -381q65 -45 225 -45l33 -6v-195l-33 -6h-14
q-218 0 -320 135q-80 -101 -104 -112q-45 -22 -159 -23h-25z" />
    <glyph glyph-name="uniFC67" unicode="&#xfe8c;&#xfee6;" horiz-adv-x="1890" arabic-form="final" 
d="M481 764q63 78 127 131q90 -76 129 -131q-51 -72 -129 -127q-76 55 -127 127zM1764 854q-119 -59 -246 -59q-26 0 -143 96l6 33q96 0 119 4v2q-39 22 -39 90q0 77 49 140q54 69 131 69q68 0 100 -90q16 -45 19 -90l-33 -9q-35 47 -84 47q-69 0 -123 -49q28 -84 123 -84
q78 0 164 33l10 -14zM1280 0q-133 5 -195 92l2 -78q-54 -207 -129 -276q-133 -133 -434 -133q-424 0 -424 356q0 203 160 442l53 -26q-76 -180 -76 -295q0 -266 330 -266q217 0 389 90l-74 569l148 115h37l8 -154q9 -139 36 -175q39 -53 178 -54q126 1 195 18q20 97 73 332
l127 84l29 -8q-21 -302 -47 -381q65 -45 225 -45l33 -6v-195l-33 -6h-14q-218 0 -320 135q-80 -101 -104 -112q-45 -22 -159 -23h-14z" />
    <glyph glyph-name="uniFC6A" unicode="&#xfe92;&#xfeae;" horiz-adv-x="1480" arabic-form="final" 
d="M859 0q-94 0 -190 84q-12 -139 -105 -294q-110 -185 -244 -185q-35 0 -166 72q-119 66 -151 94l25 57q94 -25 159 -25q271 0 394 363q-11 26 -136 307l131 158h29l47 -195q39 -149 74 -186q39 -42 153 -43q126 1 195 18q20 97 73 332l127 84l29 -8q-21 -302 -47 -381
q65 -45 225 -45l33 -6v-195l-33 -6h-14q-218 0 -320 135q-80 -101 -104 -112q-45 -22 -159 -23h-25zM1055 -264q64 76 127 129q90 -74 129 -129q-51 -74 -129 -129q-76 55 -127 129z" />
    <glyph glyph-name="uniFC70" unicode="&#xfe98;&#xfeae;" horiz-adv-x="1490" arabic-form="final" 
d="M859 0q-94 0 -190 84q-12 -139 -105 -294q-110 -185 -244 -185q-35 0 -166 72q-119 66 -151 94l25 57q94 -25 159 -25q271 0 394 363q-11 26 -136 307l131 158h29l47 -195q39 -149 74 -186q40 -43 157 -43q131 0 201 18q20 97 73 332l127 84l29 -8q-21 -302 -47 -381
q65 -45 225 -45l33 -6v-195l-33 -6h-14q-218 0 -320 135q-80 -101 -104 -112q-47 -23 -169 -23h-25zM1307 838q-53 39 -114 112q-51 -65 -117 -112q-78 55 -127 131q64 75 127 131q92 -76 117 -115q67 74 114 115q93 -76 129 -131q-49 -76 -129 -131z" />
    <glyph glyph-name="uniFC86" unicode="&#xfee0;&#xfef0;" horiz-adv-x="1842" arabic-form="final" 
d="M1185 0q25 -35 25 -68q0 -45 -34 -137q-33 -92 -56 -110q-216 -156 -590 -156q-223 0 -336 115q-94 95 -94 241q0 205 160 451l59 -33q-82 -168 -82 -274q0 -281 330 -281q321 0 545 121q-71 131 -279 131h-35l-6 10l62 191l12 6h365q175 0 250 14l-29 1096l143 135h37
v-1014q0 -130 33 -174q42 -56 178 -57l33 -6v-195l-33 -6q-222 0 -297 197q-94 -154 -127 -174q-36 -20 -156 -23h-78z" />
    <glyph glyph-name="uniFC87" unicode="&#xfee0;&#xfef2;" horiz-adv-x="1842" arabic-form="final" 
d="M743 -877q-66 48 -113 111q-51 -63 -118 -111q-76 56 -127 129q63 76 127 132q92 -76 118 -115q55 65 113 115q94 -76 131 -132q-51 -73 -131 -129zM1185 0q25 -35 25 -68q0 -45 -34 -137q-33 -92 -56 -110q-216 -156 -590 -156q-223 0 -336 115q-94 95 -94 241
q0 205 160 451l59 -33q-82 -168 -82 -274q0 -281 330 -281q321 0 545 121q-71 131 -279 131h-35l-6 10l62 191l12 6h365q175 0 250 14l-29 1096l143 135h37v-1014q0 -130 33 -174q42 -56 178 -57l33 -6v-195l-33 -6q-222 0 -297 197q-94 -154 -127 -174q-36 -20 -156 -23
h-78z" />
    <glyph glyph-name="uniFCCC" unicode="&#xfedf;&#xfee4;" horiz-adv-x="1584" arabic-form="initial" 
d="M283 246q96 -53 406 -53h55q-20 40 -51 112q-63 145 -80 173q-46 77 -102 77q-67 0 -142 -98q-69 -91 -100 -201zM1034 0h-44q-139 0 -211 123l-102 -137q-301 5 -394 69q-9 6 -53 90q-65 -145 -229 -145l-33 6v195l33 6q119 0 184 49q15 169 124 327q119 173 255 173
q81 0 142 -83q42 -57 104 -204q73 -181 87 -203q37 -59 113 -59h1q185 0 248 14l-23 912l-53 137l186 182l41 -25v-96l94 -172l-94 -100v-727q0 -52 -91 -173q-84 -111 -128 -139q-29 -18 -157 -20z" />
    <glyph glyph-name="uniFCFB" unicode="&#xfeb3;&#xfef0;" horiz-adv-x="2662" arabic-form="isolated" 
d="M1261 0h-76q25 -35 25 -68q0 -45 -34 -137q-33 -92 -56 -110q-216 -156 -590 -156q-223 0 -336 115q-94 95 -94 241q0 205 160 451l59 -33q-82 -168 -82 -274q0 -281 330 -281q321 0 545 121q-71 131 -279 131h-35l-6 10l62 191l12 6h395q102 0 174 14l67 203l113 76
l27 -15q-19 -146 -37 -249q72 -29 176 -29q65 0 135 12l84 309l115 76l26 -14q-6 -115 -36 -320q144 -84 331 -108l-57 475l145 119h37q21 -377 21 -539q0 -42 -76 -141q-78 -101 -115 -101q-184 0 -391 162q-75 -137 -260 -137q-168 0 -248 117q-88 -117 -231 -117z" />
    <glyph glyph-name="uniFCFC" unicode="&#xfeb3;&#xfef2;" horiz-adv-x="2662" arabic-form="isolated" 
d="M743 -877q-66 48 -113 111q-51 -63 -118 -111q-76 56 -127 129q63 76 127 132q92 -76 118 -115q55 65 113 115q94 -76 131 -132q-51 -73 -131 -129zM1261 0h-76q25 -35 25 -68q0 -45 -34 -137q-33 -92 -56 -110q-216 -156 -590 -156q-223 0 -336 115q-94 95 -94 241
q0 205 160 451l59 -33q-82 -168 -82 -274q0 -281 330 -281q321 0 545 121q-71 131 -279 131h-35l-6 10l62 191l12 6h395q102 0 174 14l67 203l113 76l27 -15q-19 -146 -37 -249q72 -29 176 -29q65 0 135 12l84 309l115 76l26 -14q-6 -115 -36 -320q144 -84 331 -108l-57 475
l145 119h37q21 -377 21 -539q0 -42 -76 -141q-78 -101 -115 -101q-184 0 -391 162q-75 -137 -260 -137q-168 0 -248 117q-88 -117 -231 -117z" />
    <glyph glyph-name="uniFCFD" unicode="&#xfeb7;&#xfef0;" horiz-adv-x="2662" arabic-form="isolated" 
d="M1933 1169q61 70 118 121q86 -67 121 -121q-45 -69 -121 -122q-65 53 -118 122zM1261 0h-76q25 -35 25 -68q0 -45 -34 -137q-33 -92 -56 -110q-216 -156 -590 -156q-223 0 -336 115q-94 95 -94 241q0 205 160 451l59 -33q-82 -168 -82 -274q0 -281 330 -281
q321 0 545 121q-71 131 -279 131h-35l-6 10l62 191l12 6h395q102 0 174 14l67 203l113 76l27 -15q-19 -146 -37 -249q72 -29 176 -29q65 0 135 12l84 309l115 76l26 -14q-6 -115 -36 -320q144 -84 331 -108l-57 475l145 119h37q21 -377 21 -539q0 -42 -76 -141
q-78 -101 -115 -101q-184 0 -391 162q-75 -137 -260 -137q-168 0 -248 117q-88 -117 -231 -117zM2164 809q-45 34 -113 109q-49 -62 -114 -109q-72 55 -123 127q61 74 123 129q110 -111 114 -117q88 88 113 117q90 -76 127 -129q-49 -72 -127 -127z" />
    <glyph glyph-name="uniFCFE" unicode="&#xfeb7;&#xfef2;" horiz-adv-x="2662" arabic-form="isolated" 
d="M743 -877q-66 48 -113 111q-51 -63 -118 -111q-76 56 -127 129q63 76 127 132q92 -76 118 -115q55 65 113 115q94 -76 131 -132q-51 -73 -131 -129zM1933 1169q61 70 118 121q86 -67 121 -121q-45 -69 -121 -122q-65 53 -118 122zM1261 0h-76q25 -35 25 -68
q0 -45 -34 -137q-33 -92 -56 -110q-216 -156 -590 -156q-223 0 -336 115q-94 95 -94 241q0 205 160 451l59 -33q-82 -168 -82 -274q0 -281 330 -281q321 0 545 121q-71 131 -279 131h-35l-6 10l62 191l12 6h395q102 0 174 14l67 203l113 76l27 -15q-19 -146 -37 -249
q72 -29 176 -29q65 0 135 12l84 309l115 76l26 -14q-6 -115 -36 -320q144 -84 331 -108l-57 475l145 119h37q21 -377 21 -539q0 -42 -76 -141q-78 -101 -115 -101q-184 0 -391 162q-75 -137 -260 -137q-168 0 -248 117q-88 -117 -231 -117zM2164 809q-45 34 -113 109
q-49 -62 -114 -109q-72 55 -123 127q61 74 123 129q110 -111 114 -117q88 88 113 117q90 -76 127 -129q-49 -72 -127 -127z" />
    <glyph glyph-name="uniFD05" unicode="&#xfebb;&#xfef0;" horiz-adv-x="2809" arabic-form="isolated" 
d="M2084 209q369 6 539 102q-49 128 -134 211q-93 90 -192 90q-226 0 -493 -395q92 -10 194 -10zM1185 0q25 -35 25 -68q0 -45 -34 -137q-33 -92 -56 -110q-216 -156 -590 -156q-223 0 -336 115q-94 95 -94 241q0 205 160 451l59 -33q-82 -168 -82 -274q0 -281 330 -281
q321 0 545 121q-71 131 -279 131h-35l-6 10l62 191l12 6h385q102 0 174 14q29 94 67 207l113 76l27 -12q-15 -121 -29 -211q43 -33 109 -48q303 594 643 594q144 0 265 -163q109 -148 109 -275q0 -137 -127 -264q-124 -125 -593 -125h-39q-337 0 -471 139
q-93 -134 -237 -139h-77z" />
    <glyph glyph-name="uniFD06" unicode="&#xfebb;&#xfef2;" horiz-adv-x="2809" arabic-form="isolated" 
d="M743 -877q-66 48 -113 111q-51 -63 -118 -111q-76 56 -127 129q63 76 127 132q92 -76 118 -115q55 65 113 115q94 -76 131 -132q-51 -73 -131 -129zM2084 209q369 6 539 102q-49 128 -134 211q-93 90 -192 90q-226 0 -493 -395q92 -10 194 -10zM1185 0q25 -35 25 -68
q0 -45 -34 -137q-33 -92 -56 -110q-216 -156 -590 -156q-223 0 -336 115q-94 95 -94 241q0 205 160 451l59 -33q-82 -168 -82 -274q0 -281 330 -281q321 0 545 121q-71 131 -279 131h-35l-6 10l62 191l12 6h385q102 0 174 14q29 94 67 207l113 76l27 -12q-15 -121 -29 -211
q43 -33 109 -48q303 594 643 594q144 0 265 -163q109 -148 109 -275q0 -137 -127 -264q-124 -125 -593 -125h-39q-337 0 -471 139q-93 -134 -237 -139h-77z" />
    <glyph glyph-name="uniFD07" unicode="&#xfebf;&#xfef0;" horiz-adv-x="2809" arabic-form="isolated" 
d="M2084 209q369 6 539 102q-49 128 -134 211q-93 90 -192 90q-226 0 -493 -395q92 -10 194 -10zM2144 1137q63 75 127 129q90 -76 129 -129q-52 -74 -129 -129q-76 55 -127 129zM1185 0q25 -35 25 -68q0 -45 -34 -137q-33 -92 -56 -110q-216 -156 -590 -156
q-223 0 -336 115q-94 95 -94 241q0 205 160 451l59 -33q-82 -168 -82 -274q0 -281 330 -281q321 0 545 121q-71 131 -279 131h-35l-6 10l62 191l12 6h385q102 0 174 14q29 94 67 207l113 76l27 -12q-15 -121 -29 -211q43 -33 109 -48q303 594 643 594q144 0 265 -163
q109 -148 109 -275q0 -137 -127 -264q-124 -125 -593 -125h-39q-337 0 -471 139q-93 -134 -237 -139h-77z" />
    <glyph glyph-name="uniFD08" unicode="&#xfebf;&#xfef2;" horiz-adv-x="2809" arabic-form="isolated" 
d="M743 -877q-66 48 -113 111q-51 -63 -118 -111q-76 56 -127 129q63 76 127 132q92 -76 118 -115q55 65 113 115q94 -76 131 -132q-51 -73 -131 -129zM2084 209q369 6 539 102q-49 128 -134 211q-93 90 -192 90q-226 0 -493 -395q92 -10 194 -10zM2144 1137q63 75 127 129
q90 -76 129 -129q-52 -74 -129 -129q-76 55 -127 129zM1185 0q25 -35 25 -68q0 -45 -34 -137q-33 -92 -56 -110q-216 -156 -590 -156q-223 0 -336 115q-94 95 -94 241q0 205 160 451l59 -33q-82 -168 -82 -274q0 -281 330 -281q321 0 545 121q-71 131 -279 131h-35l-6 10
l62 191l12 6h385q102 0 174 14q29 94 67 207l113 76l27 -12q-15 -121 -29 -211q43 -33 109 -48q303 594 643 594q144 0 265 -163q109 -148 109 -275q0 -137 -127 -264q-124 -125 -593 -125h-39q-337 0 -471 139q-93 -134 -237 -139h-77z" />
    <glyph glyph-name="uniFD0D" unicode="&#xfeb7;&#xfeae;" horiz-adv-x="2272" arabic-form="isolated" 
d="M1543 1169q61 70 118 121q86 -67 121 -121q-45 -69 -121 -122q-65 53 -118 122zM859 0q-94 0 -190 84q-12 -139 -105 -294q-110 -185 -244 -185q-35 0 -166 72q-119 66 -151 94l25 57q94 -25 159 -25q271 0 394 363q-11 26 -136 307l131 158h29l47 -195q39 -149 74 -186
q39 -42 153 -43q97 1 166 14l67 203l113 76l27 -15q-19 -146 -37 -249q72 -29 176 -29q65 0 135 12l84 309l115 76l26 -14q-6 -115 -36 -320q144 -84 331 -108l-57 475l145 119h37q21 -377 21 -539q0 -42 -76 -141q-78 -101 -115 -101q-184 0 -391 162q-75 -137 -260 -137
q-168 0 -248 117q-83 -111 -216 -117h-27zM1774 809q-45 34 -113 109q-49 -62 -114 -109q-72 55 -123 127q61 74 123 129q110 -111 114 -117q88 88 113 117q90 -76 127 -129q-49 -72 -127 -127z" />
    <glyph glyph-name="uniFD0E" unicode="&#xfeb3;&#xfeae;" horiz-adv-x="2272" arabic-form="isolated" 
d="M859 0q-94 0 -190 84q-12 -139 -105 -294q-110 -185 -244 -185q-35 0 -166 72q-119 66 -151 94l25 57q94 -25 159 -25q271 0 394 363q-11 26 -136 307l131 158h29l47 -195q39 -149 74 -186q39 -42 153 -43q97 1 166 14l67 203l113 76l27 -15q-19 -146 -37 -249
q72 -29 176 -29q65 0 135 12l84 309l115 76l26 -14q-6 -115 -36 -320q144 -84 331 -108l-57 475l145 119h37q21 -377 21 -539q0 -42 -76 -141q-78 -101 -115 -101q-184 0 -391 162q-75 -137 -260 -137q-168 0 -248 117q-83 -111 -216 -117h-27z" />
    <glyph glyph-name="uniFD0F" unicode="&#xfebb;&#xfeae;" horiz-adv-x="2429" arabic-form="isolated" 
d="M1704 209q369 6 539 102q-49 128 -134 211q-93 90 -192 90q-226 0 -493 -395q92 -10 194 -10zM859 0q-94 0 -190 84q-12 -139 -105 -294q-110 -185 -244 -185q-35 0 -166 72q-119 66 -151 94l25 57q94 -25 159 -25q271 0 394 363q-11 26 -136 307l131 158h29l47 -195
q39 -149 74 -186q39 -42 153 -43q97 1 166 14q29 94 67 207l113 76l27 -12q-15 -121 -29 -211q43 -33 109 -48q303 594 643 594q144 0 265 -163q109 -148 109 -275q0 -137 -127 -264q-124 -125 -593 -125h-39q-337 0 -471 139q-92 -132 -233 -139h-27z" />
    <glyph glyph-name="uniFD10" unicode="&#xfebf;&#xfeae;" horiz-adv-x="2429" arabic-form="isolated" 
d="M1704 209q369 6 539 102q-49 128 -134 211q-93 90 -192 90q-226 0 -493 -395q92 -10 194 -10zM1764 1137q63 75 127 129q90 -76 129 -129q-52 -74 -129 -129q-76 55 -127 129zM859 0q-94 0 -190 84q-12 -139 -105 -294q-110 -185 -244 -185q-35 0 -166 72
q-119 66 -151 94l25 57q94 -25 159 -25q271 0 394 363q-11 26 -136 307l131 158h29l47 -195q39 -149 74 -186q39 -42 153 -43q97 1 166 14q29 94 67 207l113 76l27 -12q-15 -121 -29 -211q43 -33 109 -48q303 594 643 594q144 0 265 -163q109 -148 109 -275
q0 -137 -127 -264q-124 -125 -593 -125h-39q-337 0 -471 139q-92 -132 -233 -139h-27z" />
    <glyph glyph-name="uniFD17" unicode="&#xfeb4;&#xfef0;" horiz-adv-x="2751" arabic-form="final" 
d="M1185 0q25 -35 25 -68q0 -45 -34 -137q-33 -92 -56 -110q-216 -156 -590 -156q-223 0 -336 115q-94 95 -94 241q0 205 160 451l59 -33q-82 -168 -82 -274q0 -281 330 -281q321 0 545 121q-71 131 -279 131h-35l-6 10l62 191l12 6h385q102 0 174 14l67 203l113 76l27 -15
q-19 -146 -37 -249q72 -29 176 -29q65 0 135 12l84 309l115 76l26 -14q-15 -196 -43 -350q70 -33 183 -33q84 0 157 18q-16 113 -36 336l149 113h37v-367q0 -63 14 -78q19 -22 96 -22h64l33 -6v-195l-33 -6h-59q-150 0 -215 135q-73 -135 -248 -135q-172 0 -252 117
q-70 -117 -248 -117q-168 0 -248 117q-85 -112 -220 -117h-77z" />
    <glyph glyph-name="uniFD18" unicode="&#xfeb4;&#xfef2;" horiz-adv-x="2751" arabic-form="final" 
d="M743 -877q-66 48 -113 111q-51 -63 -118 -111q-76 56 -127 129q63 76 127 132q92 -76 118 -115q55 65 113 115q94 -76 131 -132q-51 -73 -131 -129zM1185 0q25 -35 25 -68q0 -45 -34 -137q-33 -92 -56 -110q-216 -156 -590 -156q-223 0 -336 115q-94 95 -94 241
q0 205 160 451l59 -33q-82 -168 -82 -274q0 -281 330 -281q321 0 545 121q-71 131 -279 131h-35l-6 10l62 191l12 6h385q102 0 174 14l67 203l113 76l27 -15q-19 -146 -37 -249q72 -29 176 -29q65 0 135 12l84 309l115 76l26 -14q-15 -196 -43 -350q70 -33 183 -33
q84 0 157 18q-16 113 -36 336l149 113h37v-367q0 -63 14 -78q19 -22 96 -22h64l33 -6v-195l-33 -6h-59q-150 0 -215 135q-73 -135 -248 -135q-172 0 -252 117q-70 -117 -248 -117q-168 0 -248 117q-85 -112 -220 -117h-77z" />
    <glyph glyph-name="uniFD19" unicode="&#xfeb8;&#xfef0;" horiz-adv-x="2751" arabic-form="final" 
d="M1918 1169q64 70 119 121q86 -67 121 -121q-45 -69 -121 -122q-65 53 -119 122zM1185 0q25 -35 25 -68q0 -45 -34 -137q-33 -92 -56 -110q-216 -156 -590 -156q-223 0 -336 115q-94 95 -94 241q0 205 160 451l59 -33q-82 -168 -82 -274q0 -281 330 -281q321 0 545 121
q-71 131 -279 131h-35l-6 10l62 191l12 6h385q102 0 174 14l67 203l113 76l27 -15q-19 -146 -37 -249q72 -29 176 -29q65 0 135 12l84 309l115 76l26 -14q-15 -196 -43 -350q70 -33 183 -33q84 0 157 18q-16 113 -36 336l149 113h37v-367q0 -63 14 -78q19 -22 96 -22h64
l33 -6v-195l-33 -6h-59q-150 0 -215 135q-73 -135 -248 -135q-172 0 -252 117q-70 -117 -248 -117q-168 0 -248 117q-85 -112 -220 -117h-77zM2150 809q-45 34 -113 109q-49 -62 -114 -109q-72 55 -123 127q61 74 123 129l116 -117q112 120 113 120l-2 -3q90 -76 127 -129
q-49 -72 -127 -127z" />
    <glyph glyph-name="uniFD1A" unicode="&#xfeb8;&#xfef2;" horiz-adv-x="2751" arabic-form="final" 
d="M743 -877q-66 48 -113 111q-51 -63 -118 -111q-76 56 -127 129q63 76 127 132q92 -76 118 -115q55 65 113 115q94 -76 131 -132q-51 -73 -131 -129zM1918 1169q64 70 119 121q86 -67 121 -121q-45 -69 -121 -122q-65 53 -119 122zM1185 0q25 -35 25 -68q0 -45 -34 -137
q-33 -92 -56 -110q-216 -156 -590 -156q-223 0 -336 115q-94 95 -94 241q0 205 160 451l59 -33q-82 -168 -82 -274q0 -281 330 -281q321 0 545 121q-71 131 -279 131h-35l-6 10l62 191l12 6h385q102 0 174 14l67 203l113 76l27 -15q-19 -146 -37 -249q72 -29 176 -29
q65 0 135 12l84 309l115 76l26 -14q-15 -196 -43 -350q70 -33 183 -33q84 0 157 18q-16 113 -36 336l149 113h37v-367q0 -63 14 -78q19 -22 96 -22h64l33 -6v-195l-33 -6h-59q-150 0 -215 135q-73 -135 -248 -135q-172 0 -252 117q-70 -117 -248 -117q-168 0 -248 117
q-85 -112 -220 -117h-77zM2150 809q-45 34 -113 109q-49 -62 -114 -109q-72 55 -123 127q61 74 123 129l116 -117q112 120 113 120l-2 -3q90 -76 127 -129q-49 -72 -127 -127z" />
    <glyph glyph-name="uniFD21" unicode="&#xfebc;&#xfef0;" horiz-adv-x="2855" arabic-form="final" 
d="M2084 209q369 6 539 102q-49 128 -134 211q-93 90 -192 90q-226 0 -493 -395q92 -10 194 -10zM1185 0q25 -35 25 -68q0 -45 -34 -137q-33 -92 -56 -110q-216 -156 -590 -156q-223 0 -336 115q-94 95 -94 241q0 205 160 451l59 -33q-82 -168 -82 -274q0 -281 330 -281
q321 0 545 121q-71 131 -279 131h-35l-6 10l62 191l12 6h385q102 0 174 14q29 94 67 207l113 76l27 -12q-15 -121 -29 -211q43 -33 109 -48q303 594 643 594q144 0 265 -163q109 -148 109 -275q0 -67 -67 -182h194l33 -6v-195l-33 -6h-139q-78 0 -158 96q-187 -96 -550 -96
h-39q-337 0 -471 139q-93 -134 -237 -139h-77z" />
    <glyph glyph-name="uniFD22" unicode="&#xfebc;&#xfef2;" horiz-adv-x="2855" arabic-form="final" 
d="M743 -877q-66 48 -113 111q-51 -63 -118 -111q-76 56 -127 129q63 76 127 132q92 -76 118 -115q55 65 113 115q94 -76 131 -132q-51 -73 -131 -129zM2084 209q369 6 539 102q-49 128 -134 211q-93 90 -192 90q-226 0 -493 -395q92 -10 194 -10zM1185 0q25 -35 25 -68
q0 -45 -34 -137q-33 -92 -56 -110q-216 -156 -590 -156q-223 0 -336 115q-94 95 -94 241q0 205 160 451l59 -33q-82 -168 -82 -274q0 -281 330 -281q321 0 545 121q-71 131 -279 131h-35l-6 10l62 191l12 6h385q102 0 174 14q29 94 67 207l113 76l27 -12q-15 -121 -29 -211
q43 -33 109 -48q303 594 643 594q144 0 265 -163q109 -148 109 -275q0 -67 -67 -182h194l33 -6v-195l-33 -6h-139q-78 0 -158 96q-187 -96 -550 -96h-39q-337 0 -471 139q-93 -134 -237 -139h-77z" />
    <glyph glyph-name="uniFD23" unicode="&#xfec0;&#xfef0;" horiz-adv-x="2855" arabic-form="final" 
d="M2084 209q369 6 539 102q-49 128 -134 211q-93 90 -192 90q-226 0 -493 -395q92 -10 194 -10zM2150 1137q63 75 127 129q90 -76 129 -129q-51 -74 -129 -129q-76 55 -127 129zM1185 0q25 -35 25 -68q0 -45 -34 -137q-33 -92 -56 -110q-216 -156 -590 -156
q-223 0 -336 115q-94 95 -94 241q0 205 160 451l59 -33q-82 -168 -82 -274q0 -281 330 -281q321 0 545 121q-71 131 -279 131h-35l-6 10l62 191l12 6h385q102 0 174 14q29 94 67 207l113 76l27 -12q-15 -121 -29 -211q43 -33 109 -48q303 594 643 594q144 0 265 -163
q109 -148 109 -275q0 -67 -67 -182h194l33 -6v-195l-33 -6h-139q-78 0 -158 96q-187 -96 -550 -96h-39q-337 0 -471 139q-93 -134 -237 -139h-77z" />
    <glyph glyph-name="uniFD24" unicode="&#xfec0;&#xfef2;" horiz-adv-x="2855" arabic-form="final" 
d="M743 -877q-66 48 -113 111q-51 -63 -118 -111q-76 56 -127 129q63 76 127 132q92 -76 118 -115q55 65 113 115q94 -76 131 -132q-51 -73 -131 -129zM2084 209q369 6 539 102q-49 128 -134 211q-93 90 -192 90q-226 0 -493 -395q92 -10 194 -10zM2150 1137q63 75 127 129
q90 -76 129 -129q-51 -74 -129 -129q-76 55 -127 129zM1185 0q25 -35 25 -68q0 -45 -34 -137q-33 -92 -56 -110q-216 -156 -590 -156q-223 0 -336 115q-94 95 -94 241q0 205 160 451l59 -33q-82 -168 -82 -274q0 -281 330 -281q321 0 545 121q-71 131 -279 131h-35l-6 10
l62 191l12 6h385q102 0 174 14q29 94 67 207l113 76l27 -12q-15 -121 -29 -211q43 -33 109 -48q303 594 643 594q144 0 265 -163q109 -148 109 -275q0 -67 -67 -182h194l33 -6v-195l-33 -6h-139q-78 0 -158 96q-187 -96 -550 -96h-39q-337 0 -471 139q-93 -134 -237 -139
h-77z" />
    <glyph glyph-name="uniFD29" unicode="&#xfeb8;&#xfeae;" horiz-adv-x="2371" arabic-form="final" 
d="M1538 1169q64 70 119 121q86 -67 121 -121q-45 -69 -121 -122q-65 53 -119 122zM859 0q-94 0 -190 84q-12 -139 -105 -294q-110 -185 -244 -185q-35 0 -166 72q-119 66 -151 94l25 57q94 -25 159 -25q271 0 394 363q-11 26 -136 307l131 158h29l47 -195q39 -149 74 -186
q39 -42 153 -43q97 1 166 14l67 203l113 76l27 -15q-19 -146 -37 -249q72 -29 176 -29q65 0 135 12l84 309l115 76l26 -14q-15 -196 -43 -350q70 -33 183 -33q84 0 157 18q-16 113 -36 336l149 113h37v-367q0 -63 14 -78q19 -22 96 -22h64l33 -6v-195l-33 -6h-59
q-150 0 -215 135q-73 -135 -248 -135q-172 0 -252 117q-70 -117 -248 -117q-168 0 -248 117q-83 -111 -216 -117h-27zM1770 809q-45 34 -113 109q-49 -62 -114 -109q-72 55 -123 127q61 74 123 129l116 -117q112 120 113 120l-2 -3q90 -76 127 -129q-49 -72 -127 -127z" />
    <glyph glyph-name="uniFD2A" unicode="&#xfeb4;&#xfeae;" horiz-adv-x="2371" arabic-form="final" 
d="M859 0q-94 0 -190 84q-12 -139 -105 -294q-110 -185 -244 -185q-35 0 -166 72q-119 66 -151 94l25 57q94 -25 159 -25q271 0 394 363q-11 26 -136 307l131 158h29l47 -195q39 -149 74 -186q39 -42 153 -43q97 1 166 14l67 203l113 76l27 -15q-19 -146 -37 -249
q72 -29 176 -29q65 0 135 12l84 309l115 76l26 -14q-15 -196 -43 -350q70 -33 183 -33q84 0 157 18q-16 113 -36 336l149 113h37v-367q0 -63 14 -78q19 -22 96 -22h64l33 -6v-195l-33 -6h-59q-150 0 -215 135q-73 -135 -248 -135q-172 0 -252 117q-70 -117 -248 -117
q-168 0 -248 117q-83 -111 -216 -117h-27z" />
    <glyph glyph-name="uniFD2B" unicode="&#xfebc;&#xfeae;" horiz-adv-x="2475" arabic-form="final" 
d="M1704 209q369 6 539 102q-49 128 -134 211q-93 90 -192 90q-226 0 -493 -395q92 -10 194 -10zM859 0q-94 0 -190 84q-12 -139 -105 -294q-110 -185 -244 -185q-35 0 -166 72q-119 66 -151 94l25 57q94 -25 159 -25q271 0 394 363q-11 26 -136 307l131 158h29l47 -195
q39 -149 74 -186q39 -42 153 -43q97 1 166 14q29 94 67 207l113 76l27 -12q-15 -121 -29 -211q43 -33 109 -48q303 594 643 594q144 0 265 -163q109 -148 109 -275q0 -67 -67 -182h194l33 -6v-195l-33 -6h-139q-78 0 -158 96q-187 -96 -550 -96h-39q-337 0 -471 139
q-92 -132 -233 -139h-27z" />
    <glyph glyph-name="uniFD2C" unicode="&#xfec0;&#xfeae;" horiz-adv-x="2475" arabic-form="final" 
d="M1704 209q369 6 539 102q-49 128 -134 211q-93 90 -192 90q-226 0 -493 -395q92 -10 194 -10zM1770 1137q63 75 127 129q90 -76 129 -129q-51 -74 -129 -129q-76 55 -127 129zM859 0q-94 0 -190 84q-12 -139 -105 -294q-110 -185 -244 -185q-35 0 -166 72
q-119 66 -151 94l25 57q94 -25 159 -25q271 0 394 363q-11 26 -136 307l131 158h29l47 -195q39 -149 74 -186q39 -42 153 -43q97 1 166 14q29 94 67 207l113 76l27 -12q-15 -121 -29 -211q43 -33 109 -48q303 594 643 594q144 0 265 -163q109 -148 109 -275q0 -67 -67 -182
h194l33 -6v-195l-33 -6h-139q-78 0 -158 96q-187 -96 -550 -96h-39q-337 0 -471 139q-92 -132 -233 -139h-27z" />
    <glyph glyph-name="uniFEF5" unicode="&#xfedf;&#xfe82;" horiz-adv-x="1176" arabic-form="isolated" 
d="M272 16l-8 15l39 205q185 106 375 288q-171 160 -385 332l-84 -25l-119 103l63 272l33 6q443 -398 588 -561q59 112 59 287v180l-59 152l188 182l41 -29v-100l93 -166l-95 -100v-43q-2 -275 -141 -461q148 -189 148 -295q0 -36 -56 -128q-54 -91 -84 -105
q-49 -25 -268 -25q-260 0 -328 16zM645 201q217 0 262 22q-44 104 -147 221q-129 -117 -344 -243h229zM498 1363q-103 -30 -249 -30q-85 0 -163 20l-55 -96l-35 13q15 73 42 130q5 8 47 48q45 42 57 42l67 -3q56 -3 93 -3q115 0 248 19l7 -11z" />
    <glyph glyph-name="uniFEF6" unicode="&#xfee0;&#xfe82;" horiz-adv-x="1215" arabic-form="final" 
d="M1216 0q-290 0 -323 315q-70 -159 -74 -161q-39 -39 -158 -92q-142 -62 -241 -62q-97 0 -330 125l12 59q313 0 525 68q-54 353 -306 604l-84 -20l-118 104l82 268h30q430 -452 484 -739l-41 -201q117 45 184 105l-23 944l142 135h37v-1014q0 -131 27 -172q40 -58 175 -59
l33 -6v-195zM498 1363q-103 -30 -249 -30q-85 0 -163 20l-55 -96l-35 13q15 73 42 130q5 8 47 48q45 42 57 42l67 -3q56 -3 93 -3q115 0 248 19l7 -11z" />
    <glyph glyph-name="uniFEF7" unicode="&#xfedf;&#xfe84;" horiz-adv-x="1176" arabic-form="isolated" 
d="M272 16l-8 15l39 205q185 106 375 288q-171 160 -385 332l-84 -25l-119 103l63 272l33 6q443 -398 588 -561q59 112 59 287v180l-59 152l188 182l41 -29v-100l93 -166l-95 -100v-43q-2 -275 -141 -461q148 -189 148 -295q0 -36 -56 -128q-54 -91 -84 -105
q-49 -25 -268 -25q-260 0 -328 16zM645 201q217 0 262 22q-44 104 -147 221q-129 -117 -344 -243h229zM442 1348q-119 -60 -244 -60q-26 0 -143 96l6 33q96 0 119 4v2q-39 23 -39 90q0 78 49 142q54 69 131 69q68 0 100 -91q16 -45 19 -91l-35 -8q-27 49 -82 49
q-64 0 -123 -49q28 -86 123 -86q78 0 164 33l10 -15z" />
    <glyph glyph-name="uniFEF8" unicode="&#xfee0;&#xfe84;" horiz-adv-x="1215" arabic-form="final" 
d="M1216 0q-290 0 -323 315q-70 -159 -74 -161q-39 -39 -158 -92q-142 -62 -241 -62q-97 0 -330 125l12 59q313 0 525 68q-54 353 -306 604l-84 -20l-118 104l82 268h30q430 -452 484 -739l-41 -201q117 45 184 105l-23 944l142 135h37v-1014q0 -131 27 -172q40 -58 175 -59
l33 -6v-195zM403 1362q-119 -59 -246 -59q-26 0 -143 96l8 33q96 0 119 4v2q-41 23 -41 92q0 77 50 140q55 69 132 69q67 0 99 -91q15 -46 18 -92l-33 -8q-33 49 -82 49q-66 0 -125 -49q29 -86 125 -86q70 0 162 35l10 -14z" />
    <glyph glyph-name="uniFEF9" unicode="&#xfedf;&#xfe88;" horiz-adv-x="1176" arabic-form="isolated" 
d="M272 16l-8 15l39 205q185 106 375 288q-171 160 -385 332l-84 -25l-119 103l63 272l33 6q443 -398 588 -561q59 112 59 287v180l-59 152l188 182l41 -29v-100l93 -166l-95 -100v-43q-2 -275 -141 -461q148 -189 148 -295q0 -36 -56 -128q-54 -91 -84 -105
q-49 -25 -268 -25q-260 0 -328 16zM645 201q217 0 262 22q-44 104 -147 221q-129 -117 -344 -243h229zM563 -516q-119 -59 -244 -59q-26 0 -145 96l8 33q96 0 119 4v2q-41 23 -41 90q0 77 50 140q55 69 132 69q67 0 99 -90q15 -45 18 -91l-33 -8q-33 49 -82 49
q-66 0 -125 -49q32 -86 125 -86q76 0 162 33l10 -14z" />
    <glyph glyph-name="uniFEFA" unicode="&#xfee0;&#xfe88;" horiz-adv-x="1215" arabic-form="final" 
d="M1216 0q-290 0 -323 315q-70 -159 -74 -161q-39 -39 -158 -92q-142 -62 -241 -62q-97 0 -330 125l12 59q313 0 525 68q-54 353 -306 604l-84 -20l-118 104l82 268h30q430 -452 484 -739l-41 -201q117 45 184 105l-23 944l142 135h37v-1014q0 -131 27 -172q40 -58 175 -59
l33 -6v-195zM706 -492q-118 -59 -243 -59q-27 0 -144 96l7 33q96 0 118 4v2q-39 22 -39 92q0 78 50 141q53 68 131 68q67 0 100 -91q16 -45 18 -91l-34 -8q-28 49 -82 49q-64 0 -123 -49q27 -86 123 -86q77 0 164 33l10 -15z" />
    <glyph glyph-name="uniFEFB" unicode="&#xfedf;&#xfe8e;" horiz-adv-x="1176" arabic-form="isolated" 
d="M272 16l-8 15l41 205q189 108 373 288q-171 160 -385 332l-82 -25l-121 103l66 272l30 6q425 -377 590 -561q57 115 57 287v180l-57 152l186 182l43 -29v-100l91 -166l-95 -100v-43q-2 -275 -141 -461q148 -184 148 -295q0 -36 -55 -128q-54 -91 -83 -105
q-52 -25 -270 -25q-260 0 -328 16zM647 201q217 0 262 22q-45 107 -149 221q-122 -113 -344 -243h231z" />
    <glyph glyph-name="uniFEFC" unicode="&#xfee0;&#xfe8e;" horiz-adv-x="1215" arabic-form="final" 
d="M1216 0q-290 0 -323 315q-70 -159 -74 -161q-39 -39 -158 -92q-142 -62 -241 -62q-97 0 -330 125l12 59q313 0 525 68q-54 353 -306 604l-84 -20l-118 104l82 268h30q430 -452 484 -739l-41 -201q117 45 184 105l-23 944l142 135h37v-1014q0 -131 27 -172q40 -58 175 -59
l33 -6v-195z" />
    <glyph glyph-name="uniFE8B_uniFEE4.liga" unicode="&#xfe8b;&#xfee4;" horiz-adv-x="1549" 
d="M283 246q96 -53 406 -53h55q-20 40 -51 112q-63 145 -80 173q-46 77 -102 77q-67 0 -142 -98q-69 -91 -100 -201zM1033 0h-43q-139 0 -211 123l-102 -137q-301 5 -394 69q-9 6 -53 90q-65 -145 -229 -145l-33 6v195l33 6q119 0 184 49q15 169 124 327q119 173 255 173
q81 0 142 -83q42 -57 104 -204q73 -181 87 -203q37 -59 113 -59h11q224 0 286 14q-24 195 -98 465l141 137h37l82 -227l-4 -23l-47 -49q18 -124 18 -201q0 -26 -2 -47q-4 -38 -65 -133q-62 -96 -98 -118q-57 -24 -238 -25zM1457 1059q-119 -60 -244 -60q-26 0 -145 97l8 32
q96 0 119 5v2q-41 23 -41 90q0 77 50 140q55 69 132 69q67 0 98 -91q16 -45 19 -90l-33 -8q-33 49 -82 49q-66 0 -125 -49q32 -86 125 -86q76 0 162 33l10 -14z" />
    <glyph glyph-name="uniFE8B_uniFEF0.liga" unicode="&#xfe8b;&#xfef0;" horiz-adv-x="1779" 
d="M1687 1059q-119 -60 -244 -60q-26 0 -145 97l8 32q96 0 119 5v2q-41 23 -41 90q0 77 50 140q55 69 132 69q67 0 98 -91q16 -45 19 -90l-33 -8q-33 49 -82 49q-66 0 -125 -49q32 -86 125 -86q76 0 162 33l10 -14zM1185 0q25 -35 25 -68q0 -45 -34 -137q-33 -92 -56 -110
q-216 -156 -590 -156q-223 0 -336 115q-94 95 -94 241q0 205 160 451l59 -33q-82 -168 -82 -274q0 -281 330 -281q321 0 545 121q-71 131 -279 131h-35l-6 10l62 191l12 6h385q224 0 286 14q-24 195 -98 465l141 137h37l82 -227l-4 -23l-47 -49q18 -124 18 -201
q0 -26 -2 -47q-4 -38 -65 -133q-62 -96 -98 -118q-57 -24 -240 -25h-76z" />
    <glyph glyph-name="uniFE8B_uniFEF2.liga" unicode="&#xfe8b;&#xfef2;" horiz-adv-x="1779" 
d="M743 -877q-66 48 -113 111q-51 -63 -118 -111q-76 56 -127 129q63 76 127 132q92 -76 118 -115q55 65 113 115q94 -76 131 -132q-51 -73 -131 -129zM1687 1059q-119 -60 -244 -60q-26 0 -145 97l8 32q96 0 119 5v2q-41 23 -41 90q0 77 50 140q55 69 132 69q67 0 98 -91
q16 -45 19 -90l-33 -8q-33 49 -82 49q-66 0 -125 -49q32 -86 125 -86q76 0 162 33l10 -14zM1185 0q25 -35 25 -68q0 -45 -34 -137q-33 -92 -56 -110q-216 -156 -590 -156q-223 0 -336 115q-94 95 -94 241q0 205 160 451l59 -33q-82 -168 -82 -274q0 -281 330 -281
q321 0 545 121q-71 131 -279 131h-35l-6 10l62 191l12 6h385q224 0 286 14q-24 195 -98 465l141 137h37l82 -227l-4 -23l-47 -49q18 -124 18 -201q0 -26 -2 -47q-4 -38 -65 -133q-62 -96 -98 -118q-57 -24 -240 -25h-76z" />
    <glyph glyph-name="uniFE91_uniFEE4.liga" unicode="&#xfe91;&#xfee4;" horiz-adv-x="1547" 
d="M283 246q96 -53 406 -53h55q-20 40 -51 112q-63 145 -80 173q-46 77 -102 77q-67 0 -142 -98q-69 -91 -100 -201zM1033 0h-43q-139 0 -211 123l-102 -137q-301 5 -394 69q-9 6 -53 90q-65 -145 -229 -145l-33 6v195l33 6q119 0 184 49q15 169 124 327q119 173 255 173
q81 0 142 -83q42 -57 104 -204q73 -181 87 -203q37 -59 113 -59h11q224 0 286 14q-24 195 -98 465l141 137h35l82 -227l-2 -23l-47 -49q16 -137 16 -207q0 -25 -2 -41q-3 -38 -64 -133t-97 -118q-57 -24 -238 -25zM1135 -264q64 76 127 129q91 -74 129 -129
q-51 -74 -129 -129q-75 55 -127 129z" />
    <glyph glyph-name="uniFE92_uniFEE6.liga" unicode="&#xfe92;&#xfee6;" horiz-adv-x="1880" 
d="M481 764q63 78 127 131q90 -76 129 -131q-51 -72 -129 -127q-76 55 -127 127zM1266 1q-123 8 -181 91l2 -78q-54 -207 -129 -276q-133 -133 -434 -133q-424 0 -424 356q0 203 160 442l53 -26q-76 -180 -76 -295q0 -266 330 -266q217 0 389 90l-74 569l148 115h37l8 -154
q9 -139 36 -175q39 -52 174 -54q122 1 189 18q20 97 73 332l127 84l29 -8q-21 -302 -47 -381q65 -45 225 -45l33 -6v-195l-33 -6h-14q-218 0 -320 135q-80 -101 -104 -112q-43 -21 -148 -23h-24zM1455 -264q64 76 127 129q90 -74 129 -129q-51 -74 -129 -129
q-76 55 -127 129z" />
    <glyph glyph-name="uniFE91_uniFEF0.liga" unicode="&#xfe91;&#xfef0;" horiz-adv-x="1777" 
d="M1365 -264q64 76 127 129q91 -74 129 -129q-51 -74 -129 -129q-75 55 -127 129zM1185 0q25 -35 25 -68q0 -45 -34 -137q-33 -92 -56 -110q-216 -156 -590 -156q-223 0 -336 115q-94 95 -94 241q0 205 160 451l59 -33q-82 -168 -82 -274q0 -281 330 -281q321 0 545 121
q-71 131 -279 131h-35l-6 10l62 191l12 6h385q224 0 286 14q-24 195 -98 465l141 137h35l82 -227l-2 -23l-47 -49q16 -137 16 -207q0 -25 -2 -41q-3 -38 -64 -133t-97 -118q-57 -24 -240 -25h-76z" />
    <glyph glyph-name="uniFE91_uniFEF2.liga" unicode="&#xfe91;&#xfef2;" horiz-adv-x="1777" 
d="M743 -877q-66 48 -113 111q-51 -63 -118 -111q-76 56 -127 129q63 76 127 132q92 -76 118 -115q55 65 113 115q94 -76 131 -132q-51 -73 -131 -129zM1365 -264q64 76 127 129q91 -74 129 -129q-51 -74 -129 -129q-75 55 -127 129zM1185 0q25 -35 25 -68q0 -45 -34 -137
q-33 -92 -56 -110q-216 -156 -590 -156q-223 0 -336 115q-94 95 -94 241q0 205 160 451l59 -33q-82 -168 -82 -274q0 -281 330 -281q321 0 545 121q-71 131 -279 131h-35l-6 10l62 191l12 6h385q224 0 286 14q-24 195 -98 465l141 137h35l82 -227l-2 -23l-47 -49
q16 -137 16 -207q0 -25 -2 -41q-3 -38 -64 -133t-97 -118q-57 -24 -240 -25h-76z" />
    <glyph glyph-name="uniFE97_uniFEE4.liga" unicode="&#xfe97;&#xfee4;" horiz-adv-x="1557" 
d="M283 246q96 -53 406 -53h55q-20 40 -51 112q-63 145 -80 173q-46 77 -102 77q-67 0 -142 -98q-69 -91 -100 -201zM1033 0h-43q-139 0 -211 123l-102 -137q-301 5 -394 69q-9 6 -53 90q-65 -145 -229 -145l-33 6v195l33 6q119 0 184 49q15 169 124 327q119 173 255 173
q81 0 142 -83q42 -57 104 -204q73 -181 87 -203q37 -59 113 -59h11q224 0 286 14q-24 195 -98 465l141 137h35l82 -227l-2 -23l-47 -49q16 -137 16 -207q0 -25 -2 -41q-3 -38 -64 -133t-97 -118q-57 -24 -238 -25zM1416 1024q-53 39 -114 113q-52 -66 -117 -113
q-76 57 -127 131q63 76 127 131q92 -76 119 -115q42 51 112 115q92 -76 131 -131q-51 -74 -131 -131z" />
    <glyph glyph-name="uniFE98_uniFEE6.liga" unicode="&#xfe98;&#xfee6;" horiz-adv-x="1890" 
d="M481 764q63 78 127 131q90 -76 129 -131q-51 -72 -129 -127q-76 55 -127 127zM1707 838q-53 39 -114 112q-51 -65 -117 -112q-78 55 -127 131q64 75 127 131q92 -76 117 -115q67 74 114 115q93 -76 129 -131q-49 -76 -129 -131zM1280 0q-133 5 -195 92l2 -78
q-54 -207 -129 -276q-133 -133 -434 -133q-424 0 -424 356q0 203 160 442l53 -26q-76 -180 -76 -295q0 -266 330 -266q217 0 389 90l-74 569l148 115h37l8 -154q9 -139 36 -175q39 -53 178 -54q126 1 195 18q20 97 73 332l127 84l29 -8q-21 -302 -47 -381q65 -45 225 -45
l33 -6v-195l-33 -6h-14q-218 0 -320 135q-80 -101 -104 -112q-45 -22 -159 -23h-14z" />
    <glyph glyph-name="uniFE97_uniFEF0.liga" unicode="&#xfe97;&#xfef0;" horiz-adv-x="1787" 
d="M1646 1024q-53 39 -114 113q-52 -66 -117 -113q-76 57 -127 131q63 76 127 131q92 -76 119 -115q42 51 112 115q92 -76 131 -131q-51 -74 -131 -131zM1185 0q25 -35 25 -68q0 -45 -34 -137q-33 -92 -56 -110q-216 -156 -590 -156q-223 0 -336 115q-94 95 -94 241
q0 205 160 451l59 -33q-82 -168 -82 -274q0 -281 330 -281q321 0 545 121q-71 131 -279 131h-35l-6 10l62 191l12 6h385q224 0 286 14q-24 195 -98 465l141 137h35l82 -227l-2 -23l-47 -49q16 -137 16 -207q0 -25 -2 -41q-3 -38 -64 -133t-97 -118q-57 -24 -240 -25h-76z
" />
    <glyph glyph-name="uniFE97_uniFEF2.liga" unicode="&#xfe97;&#xfef2;" horiz-adv-x="1787" 
d="M743 -877q-66 48 -113 111q-51 -63 -118 -111q-76 56 -127 129q63 76 127 132q92 -76 118 -115q55 65 113 115q94 -76 131 -132q-51 -73 -131 -129zM1646 1024q-53 39 -114 113q-52 -66 -117 -113q-76 57 -127 131q63 76 127 131q92 -76 119 -115q42 51 112 115
q92 -76 131 -131q-51 -74 -131 -131zM1185 0q25 -35 25 -68q0 -45 -34 -137q-33 -92 -56 -110q-216 -156 -590 -156q-223 0 -336 115q-94 95 -94 241q0 205 160 451l59 -33q-82 -168 -82 -274q0 -281 330 -281q321 0 545 121q-71 131 -279 131h-35l-6 10l62 191l12 6h385
q224 0 286 14q-24 195 -98 465l141 137h35l82 -227l-2 -23l-47 -49q16 -137 16 -207q0 -25 -2 -41q-3 -38 -64 -133t-97 -118q-57 -24 -240 -25h-76z" />
    <glyph glyph-name="uniFE9C_uniFEAE.liga" unicode="&#xfe9c;&#xfeae;" horiz-adv-x="1480" 
d="M1074 1233q61 70 119 121q86 -68 120 -121q-45 -70 -120 -123q-66 53 -119 123zM859 0q-94 0 -190 84q-12 -139 -105 -294q-110 -185 -244 -185q-35 0 -166 72q-119 66 -151 94l25 57q94 -25 159 -25q271 0 394 363q-11 26 -136 307l131 158h29l47 -195q39 -149 74 -186
q39 -42 153 -43q126 1 195 18q20 97 73 332l127 84l29 -8q-21 -302 -47 -381q65 -45 225 -45l33 -6v-195l-33 -6h-14q-218 0 -320 135q-80 -101 -104 -112q-45 -22 -159 -23h-25zM1305 872q-57 42 -112 109q-50 -63 -115 -109q-74 56 -123 127q61 74 123 129
q110 -110 115 -116q84 84 112 116q90 -75 127 -129q-51 -71 -127 -127z" />
    <glyph glyph-name="uniFE9B_uniFEE4.liga" unicode="&#xfe9b;&#xfee4;" horiz-adv-x="1555" 
d="M283 246q96 -53 406 -53h55q-20 40 -51 112q-63 145 -80 173q-46 77 -102 77q-67 0 -142 -98q-69 -91 -100 -201zM1033 0h-43q-139 0 -211 123l-102 -137q-301 5 -394 69q-9 6 -53 90q-65 -145 -229 -145l-33 6v195l33 6q119 0 184 49q15 169 124 327q119 173 255 173
q81 0 142 -83q42 -57 104 -204q73 -181 87 -203q37 -59 113 -59h11q224 0 286 14q-24 195 -98 465l141 137h35l82 -227l-2 -23l-47 -49q16 -137 16 -207q0 -25 -2 -41q-3 -38 -64 -133t-97 -118q-57 -24 -238 -25zM1408 1024q-41 30 -112 109q-49 -62 -115 -109
q-74 55 -123 127q62 74 123 129l115 -117q57 62 112 117q90 -76 127 -129q-51 -72 -127 -127zM1177 1384q61 70 119 121q84 -67 121 -121q-46 -69 -121 -122q-68 53 -119 122z" />
    <glyph glyph-name="uniFE9C_uniFEE6.liga" unicode="&#xfe9c;&#xfee6;" horiz-adv-x="1890" 
d="M481 764q63 78 127 131q90 -76 129 -131q-51 -72 -129 -127q-76 55 -127 127zM1484 1233q61 70 119 121q86 -68 120 -121q-45 -70 -120 -123q-66 53 -119 123zM1280 0q-133 5 -195 92l2 -78q-54 -207 -129 -276q-133 -133 -434 -133q-424 0 -424 356q0 203 160 442
l53 -26q-76 -180 -76 -295q0 -266 330 -266q217 0 389 90l-74 569l148 115h37l8 -154q9 -139 36 -175q39 -53 178 -54q126 1 195 18q20 97 73 332l127 84l29 -8q-21 -302 -47 -381q65 -45 225 -45l33 -6v-195l-33 -6h-14q-218 0 -320 135q-80 -101 -104 -112
q-45 -22 -159 -23h-14zM1715 872q-57 42 -112 109q-50 -63 -115 -109q-74 56 -123 127q61 74 123 129q110 -110 115 -116q84 84 112 116q90 -75 127 -129q-51 -71 -127 -127z" />
    <glyph glyph-name="uniFE9B_uniFEF0.liga" unicode="&#xfe9b;&#xfef0;" horiz-adv-x="1785" 
d="M1638 1024q-41 30 -112 109q-49 -62 -115 -109q-74 55 -123 127q62 74 123 129l115 -117q57 62 112 117q90 -76 127 -129q-51 -72 -127 -127zM1407 1384q61 70 119 121q84 -67 121 -121q-46 -69 -121 -122q-68 53 -119 122zM1185 0q25 -35 25 -68q0 -45 -34 -137
q-33 -92 -56 -110q-216 -156 -590 -156q-223 0 -336 115q-94 95 -94 241q0 205 160 451l59 -33q-82 -168 -82 -274q0 -281 330 -281q321 0 545 121q-71 131 -279 131h-35l-6 10l62 191l12 6h385q224 0 286 14q-24 195 -98 465l141 137h35l82 -227l-2 -23l-47 -49
q16 -137 16 -207q0 -25 -2 -41q-3 -38 -64 -133t-97 -118q-57 -24 -240 -25h-76z" />
    <glyph glyph-name="uniFE9B_uniFEF2.liga" unicode="&#xfe9b;&#xfef2;" horiz-adv-x="1785" 
d="M743 -877q-66 48 -113 111q-51 -63 -118 -111q-76 56 -127 129q63 76 127 132q92 -76 118 -115q55 65 113 115q94 -76 131 -132q-51 -73 -131 -129zM1638 1024q-41 30 -112 109q-49 -62 -115 -109q-74 55 -123 127q62 74 123 129l115 -117q57 62 112 117q90 -76 127 -129
q-51 -72 -127 -127zM1407 1384q61 70 119 121q84 -67 121 -121q-46 -69 -121 -122q-68 53 -119 122zM1185 0q25 -35 25 -68q0 -45 -34 -137q-33 -92 -56 -110q-216 -156 -590 -156q-223 0 -336 115q-94 95 -94 241q0 205 160 451l59 -33q-82 -168 -82 -274q0 -281 330 -281
q321 0 545 121q-71 131 -279 131h-35l-6 10l62 191l12 6h385q224 0 286 14q-24 195 -98 465l141 137h35l82 -227l-2 -23l-47 -49q16 -137 16 -207q0 -25 -2 -41q-3 -38 -64 -133t-97 -118q-57 -24 -240 -25h-76z" />
    <glyph glyph-name="uniFEDB_uniFEF0.liga" unicode="&#xfedb;&#xfef0;" horiz-adv-x="2158" 
d="M1185 0q25 -35 25 -68q0 -45 -34 -137q-33 -92 -56 -110q-216 -156 -590 -156q-223 0 -336 115q-94 95 -94 241q0 205 160 451l59 -33q-82 -168 -82 -274q0 -281 330 -281q321 0 545 121q-71 131 -279 131h-35l-6 10l62 191l12 6h664q309 0 395 24q-71 165 -432 390
l-37 -35l-159 114q-3 3 -3 13q0 30 28 126q39 129 59 138l706 407l23 -14l-39 -205l-598 -307q277 -151 434 -327q131 -145 131 -240q0 -26 -43 -123q-45 -100 -70 -119q-62 -49 -420 -49h-320z" />
    <glyph glyph-name="uniFEDC_uniFEF0.liga" unicode="&#xfedc;&#xfef0;" horiz-adv-x="2135" 
d="M1185 0q25 -35 25 -68q0 -45 -34 -137q-33 -92 -56 -110q-216 -156 -590 -156q-223 0 -336 115q-94 95 -94 241q0 205 160 451l59 -33q-82 -168 -82 -274q0 -281 330 -281q321 0 545 121q-71 131 -279 131h-35l-6 10l62 191l12 6h468q186 0 247 16v12q0 101 -92 240
l-196 285q-2 3 -2 11q0 27 28 106q36 103 56 110l612 408l22 -17l-38 -202l-514 -324q51 -78 237 -340q125 -178 207 -240q87 -65 205 -65h30l33 -6v-195l-33 -6h-30q-147 0 -237 63q-60 41 -179 187q-111 -204 -147 -217q-66 -33 -256 -33h-102z" />
    <glyph glyph-name="uniFEDB_uniFEF2.liga" unicode="&#xfedb;&#xfef2;" horiz-adv-x="2158" 
d="M743 -877q-66 48 -113 111q-51 -63 -118 -111q-76 56 -127 129q63 76 127 132q92 -76 118 -115q55 65 113 115q94 -76 131 -132q-51 -73 -131 -129zM1185 0q25 -35 25 -68q0 -45 -34 -137q-33 -92 -56 -110q-216 -156 -590 -156q-223 0 -336 115q-94 95 -94 241
q0 205 160 451l59 -33q-82 -168 -82 -274q0 -281 330 -281q321 0 545 121q-71 131 -279 131h-35l-6 10l62 191l12 6h664q309 0 395 24q-71 165 -432 390l-37 -35l-159 114q-3 3 -3 13q0 30 28 126q39 129 59 138l706 407l23 -14l-39 -205l-598 -307q277 -151 434 -327
q131 -145 131 -240q0 -26 -43 -123q-45 -100 -70 -119q-62 -49 -420 -49h-320z" />
    <glyph glyph-name="uniFEDC_uniFEF2.liga" unicode="&#xfedc;&#xfef2;" horiz-adv-x="2135" 
d="M743 -877q-66 48 -113 111q-51 -63 -118 -111q-76 56 -127 129q63 76 127 132q92 -76 118 -115q55 65 113 115q94 -76 131 -132q-51 -73 -131 -129zM1185 0q25 -35 25 -68q0 -45 -34 -137q-33 -92 -56 -110q-216 -156 -590 -156q-223 0 -336 115q-94 95 -94 241
q0 205 160 451l59 -33q-82 -168 -82 -274q0 -281 330 -281q321 0 545 121q-71 131 -279 131h-35l-6 10l62 191l12 6h468q186 0 247 16v12q0 101 -92 240l-196 285q-2 3 -2 11q0 27 28 106q36 103 56 110l612 408l22 -17l-38 -202l-514 -324q51 -78 237 -340
q125 -178 207 -240q87 -65 205 -65h30l33 -6v-195l-33 -6h-30q-147 0 -237 63q-60 41 -179 187q-111 -204 -147 -217q-66 -33 -256 -33h-102z" />
    <glyph glyph-name="uniFEDF_uniFB51.rlig" unicode="&#xfedf;&#xfb51;" horiz-adv-x="1176" 
d="M272 16l-8 15l39 205q185 106 375 288q-171 160 -385 332l-84 -25l-119 103l63 272l33 6q443 -398 588 -561q59 112 59 287v180l-59 152l188 182l41 -29v-100l93 -166l-95 -100v-43q-2 -275 -141 -461q148 -189 148 -295q0 -36 -56 -128q-54 -91 -84 -105
q-49 -25 -268 -25q-260 0 -328 16zM645 201q217 0 262 22q-44 104 -147 221q-129 -117 -344 -243h229zM504 1478q-42 92 -114 92q-64 0 -166 -108q62 -7 108 -7q108 0 172 23zM299 1332q-122 0 -203 33l-57 -82l-29 11q20 88 37 122q45 68 84 68l40 -11q138 221 245 221
q52 0 100 -63q46 -60 46 -120q0 -21 -32 -77q-31 -55 -47 -63q-60 -39 -184 -39z" />
    <glyph glyph-name="uniFEE0_uniFB51.rlig" unicode="&#xfee0;&#xfb51;" horiz-adv-x="1215" 
d="M1216 0q-290 0 -323 315q-70 -159 -74 -161q-39 -39 -158 -92q-142 -62 -241 -62q-97 0 -330 125l12 59q313 0 525 68q-54 353 -306 604l-84 -20l-118 104l82 268h30q430 -452 484 -739l-41 -201q117 45 184 105l-23 944l142 135h37v-1014q0 -131 27 -172q40 -58 175 -59
l33 -6v-195zM504 1478q-42 92 -114 92q-64 0 -166 -108q62 -7 108 -7q108 0 172 23zM299 1332q-122 0 -203 33l-57 -82l-29 11q20 88 37 122q45 68 84 68l40 -11q138 221 245 221q52 0 100 -63q46 -60 46 -120q0 -21 -32 -77q-31 -55 -47 -63q-60 -39 -184 -39z" />
    <glyph glyph-name="uniFEDF_uniFEE2.liga" unicode="&#xfedf;&#xfee2;" horiz-adv-x="1783" 
d="M481 246q98 -53 406 -53h55l-49 112q-62 142 -81 173q-47 77 -102 77q-67 0 -142 -98q-70 -91 -101 -201zM1190 0q-141 0 -213 123l-101 -137q-303 5 -393 69q-12 9 -56 93q-44 83 -44 104v2q9 121 73 240q-161 -75 -204 -123q6 -65 43 -314q36 -241 43 -307
q0 -104 -91 -362h-59l-46 363q-42 339 -42 474q0 74 71 198q72 126 134 157q337 176 459 176q79 0 140 -81q43 -59 103 -206q76 -184 90 -206q36 -56 111 -56h2q185 0 248 14l-23 912l-53 137l186 182l41 -25v-96l94 -172l-94 -100v-727q0 -52 -91 -173q-84 -111 -128 -139
q-29 -19 -159 -20h-41z" />
    <glyph glyph-name="uniFEE4_uniFE8E.liga" unicode="&#xfee4;&#xfe8e;" horiz-adv-x="1562" 
d="M813 246q96 -53 406 -53h55q-20 40 -51 112q-63 145 -80 173q-46 77 -102 77q-67 0 -142 -98q-69 -91 -100 -201zM553 1l-4 -1h-20q-197 7 -278 145q-86 148 -89 527q0 88 -12 643l145 137h35v-1149q0 -63 61 -83q39 -12 146 -13q115 1 178 49q15 169 124 327
q119 173 255 173q81 0 142 -83q42 -57 104 -204q73 -181 87 -203q37 -59 113 -59h23l33 -6v-195l-33 -6h-43q-139 0 -211 123l-102 -137q-301 5 -394 69q-9 6 -53 90q-61 -135 -207 -144z" />
    <glyph glyph-name="uniFEE4_uniFE82.liga" unicode="&#xfee4;&#xfe82;" horiz-adv-x="1622" 
d="M557 1462q-117 -32 -278 -32q-96 0 -181 24l-61 -106l-37 12q17 80 47 143q5 10 50 53q49 48 63 48l74 -3q62 -4 104 -4q115 0 276 23l7 -14zM873 246q96 -53 406 -53h55q-20 40 -51 112q-63 145 -80 173q-46 77 -102 77q-67 0 -142 -98q-69 -91 -100 -201zM608 0h-18
q-199 6 -284 148q-89 153 -91 530q0 88 -6 479l143 137h37v-991q0 -63 60 -83q40 -12 147 -13q115 1 179 49q15 169 124 327q119 173 255 173q81 0 142 -83q42 -57 104 -204q73 -181 87 -203q37 -59 113 -59h23l33 -6v-195l-33 -6h-43q-139 0 -211 123l-102 -137
q-301 5 -394 69q-9 6 -53 90q-62 -137 -212 -145z" />
    <glyph glyph-name="uniFEE4_uniFE84.liga" unicode="&#xfee4;&#xfe84;" horiz-adv-x="1562" 
d="M406 1444q-119 -60 -246 -60q-26 0 -143 97l6 32q96 0 119 5v2q-39 22 -39 90q0 77 50 140q54 69 132 69q67 0 99 -90q15 -46 18 -91l-33 -8q-35 47 -84 47q-69 0 -123 -49q28 -84 125 -84q76 0 162 33l10 -14zM813 246q96 -53 406 -53h55q-20 40 -51 112
q-63 145 -80 173q-46 77 -102 77q-67 0 -142 -98q-69 -91 -100 -201zM529 0q-198 7 -281 148q-90 153 -90 530q0 88 -8 479l146 137h34v-991q0 -63 62 -83q39 -12 145 -13q115 1 178 49q15 169 124 327q119 173 255 173q81 0 142 -83q42 -57 104 -204q73 -181 87 -203
q37 -59 113 -59h23l33 -6v-195l-33 -6h-43q-139 0 -211 123l-102 -137q-301 5 -394 69q-9 6 -53 90q-61 -135 -207 -144l-4 -1h-20z" />
    <glyph glyph-name="uniFEE4_uniFE88.liga" unicode="&#xfee4;&#xfe88;" horiz-adv-x="1562" 
d="M425 -438q-119 -60 -244 -60q-26 0 -145 97l8 32q96 0 119 4v3q-41 23 -41 90q0 77 50 140q55 69 132 69q67 0 99 -91q15 -45 18 -90l-33 -8q-33 49 -82 49q-66 0 -125 -49q28 -86 125 -86q76 0 162 33l10 -14zM813 246q96 -53 406 -53h55q-20 40 -51 112
q-63 145 -80 173q-46 77 -102 77q-67 0 -142 -98q-69 -91 -100 -201zM553 1l-4 -1h-20q-197 7 -278 145q-86 148 -89 527q0 88 -12 643l145 137h35v-1149q0 -63 61 -83q39 -12 146 -13q115 1 178 49q15 169 124 327q119 173 255 173q81 0 142 -83q42 -57 104 -204
q73 -181 87 -203q37 -59 113 -59h23l33 -6v-195l-33 -6h-43q-139 0 -211 123l-102 -137q-301 5 -394 69q-9 6 -53 90q-61 -135 -207 -144z" />
    <glyph glyph-name="uniFEE8_uniFEAE.liga" unicode="&#xfee8;&#xfeae;" horiz-adv-x="1470" 
d="M1078 999q63 76 127 131q90 -75 129 -131q-51 -73 -129 -129q-76 56 -127 129zM859 0q-94 0 -190 84q-12 -139 -105 -294q-110 -185 -244 -185q-35 0 -166 72q-119 66 -151 94l25 57q94 -25 159 -25q271 0 394 363q-11 26 -136 307l131 158h29l47 -195q39 -149 74 -186
q39 -41 150 -43q121 1 188 18q20 97 73 332l127 84l29 -8q-21 -302 -47 -381q65 -45 225 -45l33 -6v-195l-33 -6h-14q-218 0 -320 135q-80 -101 -104 -112q-43 -21 -148 -23h-26z" />
    <glyph glyph-name="uniFEE7_uniFEE4.liga" unicode="&#xfee7;&#xfee4;" horiz-adv-x="1537" 
d="M283 246q96 -53 406 -53h55q-20 40 -51 112q-63 145 -80 173q-46 77 -102 77q-67 0 -142 -98q-69 -91 -100 -201zM1191 1165q61 76 125 131q90 -75 129 -131q-49 -73 -129 -129q-76 56 -125 129zM1033 0h-43q-139 0 -211 123l-102 -137q-301 5 -394 69q-9 6 -53 90
q-65 -145 -229 -145l-33 6v195l33 6q119 0 184 49q15 169 124 327q119 173 255 173q81 0 142 -83q42 -57 104 -204q73 -181 87 -203q37 -59 113 -59h1q224 0 286 14q-24 195 -98 465l141 137h35l82 -227l-2 -23l-47 -49q16 -137 16 -207q0 -25 -2 -41q-3 -38 -64 -133
t-97 -118q-55 -23 -228 -25z" />
    <glyph glyph-name="uniFEE7_uniFEF0.liga" unicode="&#xfee7;&#xfef0;" horiz-adv-x="1747" 
d="M1401 1165q61 76 125 131q90 -75 129 -131q-49 -73 -129 -129q-76 56 -125 129zM1185 0q25 -35 25 -68q0 -45 -34 -137q-33 -92 -56 -110q-216 -156 -590 -156q-223 0 -336 115q-94 95 -94 241q0 205 160 451l59 -33q-82 -168 -82 -274q0 -281 330 -281q321 0 545 121
q-71 131 -279 131h-35l-6 10l62 191l12 6h355q224 0 286 14q-24 195 -98 465l141 137h35l82 -227l-2 -23l-47 -49q16 -137 16 -207q0 -25 -2 -41q-3 -38 -64 -133t-97 -118q-52 -22 -208 -25h-78z" />
    <glyph glyph-name="uniFEE7_uniFEF2.liga" unicode="&#xfee7;&#xfef2;" horiz-adv-x="1747" 
d="M743 -877q-66 48 -113 111q-51 -63 -118 -111q-76 56 -127 129q63 76 127 132q92 -76 118 -115q55 65 113 115q94 -76 131 -132q-51 -73 -131 -129zM1401 1165q61 76 125 131q90 -75 129 -131q-49 -73 -129 -129q-76 56 -125 129zM1185 0q25 -35 25 -68q0 -45 -34 -137
q-33 -92 -56 -110q-216 -156 -590 -156q-223 0 -336 115q-94 95 -94 241q0 205 160 451l59 -33q-82 -168 -82 -274q0 -281 330 -281q321 0 545 121q-71 131 -279 131h-35l-6 10l62 191l12 6h355q224 0 286 14q-24 195 -98 465l141 137h35l82 -227l-2 -23l-47 -49
q16 -137 16 -207q0 -25 -2 -41q-3 -38 -64 -133t-97 -118q-52 -22 -208 -25h-78z" />
    <glyph glyph-name="uniFEF4_uniFEAE.liga" unicode="&#xfef4;&#xfeae;" horiz-adv-x="1470" 
d="M859 0q-94 0 -190 84q-12 -139 -105 -294q-110 -185 -244 -185q-35 0 -166 72q-119 66 -151 94l25 57q94 -25 159 -25q271 0 394 363q-11 26 -136 307l131 158h29l47 -195q39 -149 74 -186q39 -41 150 -43q121 1 188 18q20 97 73 332l127 84l29 -8q-21 -302 -47 -381
q65 -45 225 -45l33 -6v-195l-33 -6h-14q-218 0 -320 135q-80 -101 -104 -112q-43 -21 -148 -23h-26zM1244 -393q-50 37 -106 106q-49 -61 -113 -106q-72 53 -121 125q60 71 121 125q88 -74 113 -111q48 58 106 111q90 -74 125 -125q-47 -72 -125 -125z" />
    <glyph glyph-name="uniFEF3_uniFEE4.liga" unicode="&#xfef3;&#xfee4;" horiz-adv-x="1567" 
d="M283 246q96 -53 406 -53h55q-20 40 -51 112q-63 145 -80 173q-46 77 -102 77q-67 0 -142 -98q-69 -91 -100 -201zM1033 0h-43q-139 0 -211 123l-102 -137q-301 5 -394 69q-9 6 -53 90q-65 -145 -229 -145l-33 6v195l33 6q119 0 184 49q15 169 124 327q119 173 255 173
q81 0 142 -83q42 -57 104 -204q73 -181 87 -203q37 -59 113 -59h1q254 0 316 14q-24 195 -98 465l141 137h35l82 -227l-2 -23l-47 -49q16 -137 16 -207q0 -25 -2 -41q-3 -38 -64 -133t-97 -118q-56 -24 -258 -25zM1355 -393q-37 27 -109 106q-47 -61 -111 -106
q-71 53 -120 125q59 71 120 125q89 -74 113 -111q48 58 107 111q88 -74 125 -125q-50 -72 -125 -125z" />
    <glyph glyph-name="uniFEF4_uniFEE6.liga" unicode="&#xfef4;&#xfee6;" horiz-adv-x="1880" 
d="M481 764q63 78 127 131q90 -76 129 -131q-51 -72 -129 -127q-76 55 -127 127zM1266 1q-123 8 -181 91l2 -78q-54 -207 -129 -276q-133 -133 -434 -133q-424 0 -424 356q0 203 160 442l53 -26q-76 -180 -76 -295q0 -266 330 -266q217 0 389 90l-74 569l148 115h37l8 -154
q9 -139 36 -175q39 -52 174 -54q122 1 189 18q20 97 73 332l127 84l29 -8q-21 -302 -47 -381q65 -45 225 -45l33 -6v-195l-33 -6h-14q-218 0 -320 135q-80 -101 -104 -112q-43 -21 -148 -23h-24zM1654 -393q-50 37 -106 106q-49 -61 -113 -106q-72 53 -121 125
q60 71 121 125q88 -74 113 -111q48 58 106 111q90 -74 125 -125q-47 -72 -125 -125z" />
    <glyph glyph-name="T_h.liga" unicode="Th" horiz-adv-x="2098" 
d="M659 1337v-1212l188 -47v-78h-596v76l189 47v1214h-236l-100 -247h-82v354h1270v-635q169 135 353 135q264 0 264 -336v-487l153 -47v-74h-501v72l157 49v454q0 220 -202 220q-105 0 -224 -60v-612l154 -49v-74h-502v72l156 47v1218h-441z" />
    <glyph glyph-name="f_b.liga" unicode="fb" horiz-adv-x="1714" 
d="M815 1249l-254 84q-156 -86 -156 -258v-147h205v-121h-205v-686l148 -47v-74h-494v72l154 45v690h-166v84l166 39v110q0 167 124 283q132 123 337 123q83 0 168 -21l55 15h111v-584q146 90 274 90q362 0 362 -459q0 -221 -150 -366q-145 -139 -349 -139q-198 0 -330 86
v1181zM1374 217q57 94 57 246q0 160 -67 256q-68 96 -182 96q-93 0 -174 -39v-631q85 -41 157 -41q139 0 209 113z" />
    <glyph glyph-name="f_f_b.liga" unicode="ffb" horiz-adv-x="2334" 
d="M1994 217q57 94 57 246q0 160 -67 256q-68 96 -182 96q-93 0 -174 -39v-631q85 -41 157 -41q139 0 209 113zM1007 1363q119 83 287 83q83 0 168 -21l55 15h111v-584q146 90 274 90q362 0 362 -459q0 -221 -150 -366q-145 -139 -349 -139q-198 0 -330 86v1181l-254 84
q-156 -86 -156 -258v-147h205v-121h-205v-686l148 -47v-74h-494v72l154 45v690h-428v-686l164 -47v-74h-510v72l154 45v690h-166v84l166 39v102q0 163 133 286q144 134 365 134q154 0 286 -82l1 1zM886 1236l-8 4v1q-153 91 -266 107q-90 -26 -147 -97q-60 -76 -60 -176
v-147h428v112q0 109 53 196z" />
    <glyph glyph-name="f_f.liga" unicode="ff" horiz-adv-x="1288" 
d="M835 1073q0 89 43 168q-153 91 -266 107q-90 -26 -147 -97q-60 -76 -60 -176v-147h430v145zM59 72l154 45v690h-166v84l166 39v102q0 163 133 286q144 134 365 134q154 0 286 -82q117 78 262 78q56 0 105 -12l-27 -181h-45l-192 64q-72 -84 -72 -223v-168h201v-121h-201
v-684l162 -49v-74h-508v72l153 47v688h-430v-686l164 -47v-74h-510v72z" />
    <glyph glyph-name="f_h.liga" unicode="fh" horiz-adv-x="1847" 
d="M668 72l155 47v1126l-262 88q-156 -86 -156 -258v-147h205v-121h-205v-686l148 -47v-74h-494v72l154 45v690h-166v84l166 39v110q0 167 124 283q132 123 337 123q87 0 172 -23l55 17h115v-629q169 135 352 135q264 0 264 -338v-487l154 -47v-74h-504v72l158 49v454
q0 222 -201 222q-109 0 -223 -62v-612l153 -49v-74h-501v72z" />
    <glyph glyph-name="f_f_h.liga" unicode="ffh" horiz-adv-x="2467" 
d="M886 1237l-8 4q-153 91 -266 107q-90 -26 -147 -97q-60 -76 -60 -176v-147h428v112q0 109 53 197zM405 807v-686l164 -47v-74h-510v72l154 45v690h-166v84l166 39v102q0 163 133 286q144 134 365 134q154 0 286 -82h1l10 -6q118 82 286 82q87 0 172 -23l55 17h115v-629
q169 135 352 135q264 0 264 -338v-487l154 -47v-74h-504v72l158 49v454q0 222 -201 222q-109 0 -223 -62v-612l153 -49v-74h-501v72l155 47v1126l-262 88q-156 -86 -156 -258v-147h205v-121h-205v-686l148 -47v-74h-494v72l154 45v690h-428z" />
    <glyph glyph-name="f_f_i.liga" unicode="ffi" horiz-adv-x="1837" 
d="M835 1022q0 109 58 211q-154 98 -281 115q-90 -26 -147 -97q-60 -76 -60 -176v-147h430v94zM59 72l154 45v690h-166v84l166 39v102q0 163 133 286q144 134 365 134q159 0 297 -90q116 90 272 90q145 0 240 -47l-33 -180h-45l-265 116q-151 -84 -151 -258v-155h381l139 18
h80v-825l162 -47v-74h-488v72l136 45v690h-410v-686l149 -47v-74h-495v72l155 45v690h-430v-686l164 -47v-74h-510v72z" />
    <glyph glyph-name="f_j.liga" unicode="fj" horiz-adv-x="1138" 
d="M57 72l156 45v690h-166v84l166 39v92q0 168 121 295q129 135 323 135q146 0 240 -47l-33 -180h-45l-264 116q-152 -84 -152 -258v-155h381l137 18h82v-934q0 -278 -241 -465l-80 58q131 141 131 403v799h-410v-686l150 -47v-74h-496v72z" />
    <glyph glyph-name="f_f_j.liga" unicode="ffj" horiz-adv-x="1761" 
d="M835 1022q0 109 58 211q-154 98 -281 115q-90 -26 -147 -97q-60 -76 -60 -176v-147h430v94zM1487 928l57 16h82v-881q0 -324 -236 -505l-71 53q114 165 114 397v799h-407v-686l149 -47v-74h-495v72l155 45v690h-430v-686l164 -47v-74h-510v72l154 45v690h-166v84l166 39
v102q0 163 133 286q144 134 365 134q159 0 297 -90q116 90 272 90q145 0 240 -47l-33 -180h-45l-265 116q-151 -84 -151 -258v-155h461z" />
    <glyph glyph-name="f_k.liga" unicode="fk" horiz-adv-x="1714" 
d="M672 72l155 49v1124l-266 88q-156 -86 -156 -258v-147h205v-121h-205v-686l148 -47v-74h-494v72l154 45v690h-166v84l166 39v110q0 167 124 283q132 123 337 123q89 0 174 -23l59 17h113v-1319l153 -47v-74h-501v72zM1366 0l-297 477v37l270 285l-143 57v72h428v-74
l-115 -57l-264 -248l281 -412l153 -63v-74h-313z" />
    <glyph glyph-name="f_f_k.liga" unicode="ffk" horiz-adv-x="2314" 
d="M405 928h428v112q0 103 58 195q-166 98 -279 113q-90 -26 -147 -97q-60 -76 -60 -176v-147zM680 72l153 45v690h-428v-686l164 -47v-74h-510v72l154 45v690h-166v84l166 39v102q0 163 133 286q144 134 365 134q153 0 299 -90q120 84 284 84q74 0 160 -19l47 13h115v-1317
l160 -49v-74h-504v72l151 47v1134l-241 80q-156 -86 -156 -258v-147h205v-121h-205v-686l147 -47v-74h-493v72zM1966 0l-297 477v37l270 285l-143 57v72h428v-74l-115 -57l-264 -248l281 -412l153 -63v-74h-313z" />
    <glyph glyph-name="f_f_l.liga" unicode="ffl" horiz-adv-x="1812" 
d="M405 928h428v112q0 103 58 195q-166 98 -279 113q-90 -26 -147 -97q-60 -76 -60 -176v-147zM680 72l153 45v690h-428v-686l164 -47v-74h-510v72l154 45v690h-166v84l166 39v102q0 163 133 286q144 134 365 134q153 0 299 -90q120 84 284 84q74 0 160 -19l47 13h115v-1317
l160 -49v-74h-504v72l151 47v1134l-241 80q-156 -86 -156 -258v-147h205v-121h-205v-686l147 -47v-74h-493v72z" />
    <glyph glyph-name="f_t.liga" unicode="ft" horiz-adv-x="1375" 
d="M815 928l68 241h123v-241h307v-125h-307v-531q3 -170 186 -170q62 0 133 21l19 -82q-118 -57 -258 -57q-279 0 -279 278v541h-402v-680l164 -49v-74h-510v72l154 47v684h-166v88l166 37v145q0 163 129 271q123 104 295 104q54 0 106 -12l-26 -181h-45l-195 64
q-72 -84 -72 -223v-168h410z" />
    <glyph glyph-name="f_f_t.liga" unicode="fft" horiz-adv-x="1995" 
d="M996 1370q112 78 261 78q54 0 106 -12l-26 -181h-45l-195 64q-72 -84 -72 -223v-168h410l68 241h123v-241h307v-125h-307v-531q3 -170 186 -170q62 0 133 21l19 -82q-118 -57 -258 -57q-279 0 -279 278v541h-402v-680l164 -49v-74h-510v72l154 47v684h-428v-682l164 -47
v-74h-510v72l154 45v686h-166v88l166 39v102q0 163 133 286q144 134 365 134q154 0 285 -82zM876 1242q-152 90 -264 106q-90 -26 -147 -97q-60 -76 -60 -176v-147h428v145q0 94 43 169z" />
    <glyph glyph-name="uni0647.fina" unicode="&#x647;" horiz-adv-x="1134" arabic-form="final" 
d="M953 -199q-47 236 -352 258q-73 0 -162 -30q92 -246 379 -246q84 0 135 18zM792 -418q-151 0 -268 102q-131 114 -169 320l-24 -4q-53 0 -103 10l-200 185l10 24q160 -8 309 -10q35 243 162 424q118 168 225 168q82 0 144 -141q51 -118 51 -214q0 -86 -99 -210
q-6 -10 -28 -29h334l32 -6v-195l-32 -6h-138q64 -60 64 -109v-5q0 -39 -47 -148q-47 -108 -64 -125q-26 -31 -159 -31zM436 208l46 1q249 12 334 149q-52 222 -141 222q-56 0 -132 -106q-83 -115 -107 -266z" />
    <glyph glyph-name="uni0672.fina" unicode="&#x672;" horiz-adv-x="578" 
d="M612 6l-33 -6q-212 0 -300 148q-89 153 -91 530q0 88 -6 479l143 137h37v-991q0 -63 61 -83q41 -13 156 -13l33 -6v-195zM147 1382q-9 12 -16 27q-8 14 -8 15l-72 -110l-31 10q10 42 45 116q4 8 44 38q44 34 56 34q1 0 26 -23q24 -24 52 -24q29 0 43 6q-36 26 -36 79
q0 66 45 118q48 56 116 56q60 0 87 -76q15 -39 16 -76l-29 -7q-31 45 -78 45q-60 0 -102 -45q27 -74 108 -74q60 0 141 29l9 -12l-47 -100q-209 -64 -290 -64q-47 0 -79 38z" />
    <glyph glyph-name="uni0673.fina" unicode="&#x673;" horiz-adv-x="564" 
d="M565 0q-213 0 -298 145q-86 148 -89 527q0 88 -13 643l146 137h35v-1149q0 -63 60 -83q42 -13 159 -13l33 -6v-195zM147 -406q-9 12 -16 28q-8 13 -8 15l-72 -110l-31 10q10 42 45 115q4 8 44 39q44 33 56 33q1 0 26 -23q24 -24 52 -24q29 0 43 7q-36 26 -36 79
q0 66 45 118q48 56 116 56q60 0 87 -77q15 -38 16 -76l-29 -7q-31 46 -78 46q-60 0 -102 -46q27 -73 108 -73q60 0 141 29l9 -12l-47 -100q-209 -65 -290 -65q-47 0 -79 38z" />
    <glyph glyph-name="uni0675.fina" unicode="&#x675;" horiz-adv-x="918" 
d="M919 0h-401q-189 0 -267 145q-86 148 -89 527q0 88 -12 643l145 137h35v-1149q0 -63 71 -83q141 -13 518 -13l33 -6v-195zM795 1394q-119 -60 -244 -60q-26 0 -143 97l6 32q96 0 119 5v2q-39 22 -39 90q0 77 49 140q54 69 131 69q68 0 99 -90q16 -46 18 -91l-33 -8
q-29 47 -82 47q-69 0 -123 -49q28 -84 123 -84q78 0 164 33l10 -14z" />
    <glyph glyph-name="uni0676.fina" unicode="&#x676;" horiz-adv-x="1060" 
d="M690 213q-26 124 -91 226q-74 116 -151 116t-145 -97q-60 -86 -80 -198q80 -53 266 -53h201v6zM248 -322q-126 69 -156 97l25 57q118 -29 192 -29q279 0 397 197h-217q-217 0 -280 84q-64 103 -64 201q6 156 98 303q106 168 250 168q123 0 215 -175q87 -164 95 -374h258
l33 -6v-195l-33 -6h-277q-29 -154 -122 -268q-106 -127 -242 -127q-37 0 -172 73zM968 991q-119 -59 -244 -59q-26 0 -145 96l8 33q96 0 119 4v2q-41 23 -41 90q0 77 50 141q55 68 132 68q67 0 99 -90q15 -45 18 -90l-33 -8q-35 47 -82 47q-71 0 -125 -49q28 -84 125 -84
q76 0 162 32l10 -14z" />
    <glyph glyph-name="uni0677.fina" unicode="&#x677;" horiz-adv-x="1060" 
d="M690 213q-26 124 -91 226q-74 116 -151 116t-145 -97q-60 -86 -80 -198q80 -53 266 -53h201v6zM248 -322q-126 69 -156 97l25 57q118 -29 192 -29q279 0 397 197h-217q-217 0 -280 84q-64 103 -64 201q6 156 98 303q106 168 250 168q123 0 215 -175q87 -164 95 -374h258
l33 -6v-195l-33 -6h-277q-29 -154 -122 -268q-106 -127 -242 -127q-37 0 -172 73zM968 991q-119 -59 -244 -59q-26 0 -145 96l8 33q96 0 119 4v2q-41 23 -41 90q0 77 50 141q55 68 132 68q67 0 99 -90q15 -45 18 -90l-33 -8q-35 47 -82 47q-71 0 -125 -49q28 -84 125 -84
q76 0 162 32l10 -14zM448 1156l4 31q0 74 -51 74q-26 0 -56 -20q-30 -19 -32 -37q42 -40 127 -62zM502 1021q-34 3 -68 13q-97 -88 -207 -105l-127 68l4 20q168 10 258 45q-75 38 -90 76q-6 31 -6 54q0 30 10 48q51 117 150 117q45 0 73 -47q23 -41 23 -92q0 -46 -20 -90
l57 -10v-19z" />
    <glyph glyph-name="uni0678.init" unicode="&#x678;" horiz-adv-x="780" 
d="M-32 6v195l33 6q224 0 286 14q-24 195 -98 465l141 137h37l82 -227l-4 -23l-47 -49q18 -124 18 -201q0 -26 -2 -47q-4 -38 -65 -133q-62 -96 -98 -118q-59 -25 -250 -25zM687 1059q-119 -60 -244 -60q-26 0 -145 97l8 32q96 0 119 5v2q-41 23 -41 90q0 77 50 140
q55 69 132 69q67 0 98 -91q16 -45 19 -90l-33 -8q-33 49 -82 49q-66 0 -125 -49q32 -86 125 -86q76 0 162 33l10 -14z" />
    <glyph glyph-name="uni0678.medi" unicode="&#x678;" horiz-adv-x="800" 
d="M734 854q-119 -59 -246 -59q-26 0 -143 96l6 33q96 0 119 4v2q-39 22 -39 90q0 77 49 140q54 69 131 69q68 0 100 -90q16 -45 19 -90l-33 -9q-35 47 -84 47q-69 0 -123 -49q28 -84 123 -84q78 0 164 33l10 -14zM801 0h-144q-278 0 -380 135q-80 -101 -104 -112
q-48 -23 -172 -23l-33 6v195l33 6q132 0 203 18q20 97 73 332l127 84l29 -8q-21 -302 -47 -381q65 -45 415 -45l33 -6v-195z" />
    <glyph glyph-name="uni0678.fina" unicode="&#x678;" horiz-adv-x="1490" 
d="M1372 464q-122 -61 -243 -61q-27 0 -144 98l7 33q96 0 118 4v2q-39 22 -39 90q0 77 50 140q53 69 131 69q67 0 100 -91q16 -46 18 -92l-34 -6q-30 47 -82 47q-70 0 -123 -49q28 -86 123 -86q72 0 164 35l10 -14zM194 -356q-94 95 -94 241q0 205 160 451l59 -33
q-82 -168 -82 -274q0 -281 330 -281q321 0 545 121q-71 131 -279 131h-35l-6 10l62 191l12 6h625l33 -6v-195l-33 -6h-306q25 -35 25 -68q0 -45 -34 -137q-33 -92 -56 -110q-216 -156 -590 -156q-223 0 -336 115z" />
    <glyph glyph-name="uni067C.init" unicode="&#x67c;" horiz-adv-x="545" 
d="M90 -182q-46 45 -46 108q0 47 20 76q-22 -2 -63 -2l-33 6v195l33 6q224 0 286 14q-24 195 -98 465l141 137h35l82 -227l-2 -23l-47 -49q16 -137 16 -207q0 -25 -2 -41q-4 -79 -129 -219q70 -43 70 -131q0 -63 -44 -108t-110 -45q-63 0 -109 45zM139 -131q25 -23 60 -23
q86 0 86 80q0 86 -86 86t-86 -86q0 -33 26 -57zM404 1024q-62 46 -112 113q-52 -66 -119 -113q-76 57 -127 131q63 76 127 131q92 -76 119 -115q67 74 112 115q94 -76 131 -131q-51 -74 -131 -131z" />
    <glyph glyph-name="uni067C.medi" unicode="&#x67c;" horiz-adv-x="690" 
d="M507 838q-53 39 -114 112q-51 -65 -117 -112q-78 55 -127 131q64 75 127 131q92 -76 117 -115q67 74 114 115q93 -76 129 -131q-49 -76 -129 -131zM271 -80q0 86 -86 86l-28 -7q-58 -17 -58 -79q0 -34 26 -57q25 -23 60 -23q86 0 86 80zM340 -77q0 -65 -45.5 -110
t-109.5 -45t-109.5 45t-45.5 110q0 64 45.5 109t109.5 45t109.5 -45t45.5 -109zM1 0l-33 6v195l33 6q212 0 283 18q20 97 73 332l127 84l29 -8q-21 -302 -47 -381q65 -45 225 -45l33 -6v-195l-33 -6h-14q-218 0 -320 135q-80 -101 -104 -112q-39 -19 -129 -22
q-20 -1 -123 -1z" />
    <glyph glyph-name="uni067C.fina" unicode="&#x67c;" horiz-adv-x="1620" 
d="M897 678q-54 39 -115 113q-51 -66 -117 -113q-76 57 -127 131q64 76 127 131q92 -76 117 -115q75 83 115 115q92 -76 131 -131q-51 -74 -131 -131zM840 -200q-44 -46 -109 -46q-63 0 -110 46q-46 45 -46 108q0 55 31 92q-506 7 -506 365q0 204 160 442l57 -31
q-82 -182 -82 -291q0 -278 428 -278q283 0 553 37q21 98 70 313l129 88l28 -12q-26 -312 -47 -381q65 -45 226 -45l32 -6v-195l-32 -6q-252 0 -344 145q-72 -82 -99 -96q-106 -32 -329 -43q32 -39 32 -98q0 -64 -42 -108zM731 -172q84 0 84 80q0 84 -84 84q-88 0 -88 -84
q0 -80 88 -80z" />
    <glyph glyph-name="uni067D.init" unicode="&#x67d;" horiz-adv-x="539" 
d="M-32 6v195l33 6q224 0 286 14q-24 195 -98 465l141 137h37l82 -227l-4 -23l-47 -49q18 -124 18 -201q0 -26 -2 -47q-4 -38 -65 -133q-62 -96 -98 -118q-59 -25 -250 -25zM282 1368q-86 -86 -111 -115q-92 74 -129 129q51 72 129 127q65 -48 111 -110q49 63 115 110
q73 -55 122 -127q-61 -75 -122 -129q-109 111 -115 115zM401 1149q-62 -70 -119 -121q-84 68 -121 121q47 68 121 123q67 -55 119 -123z" />
    <glyph glyph-name="uni067D.medi" unicode="&#x67d;" horiz-adv-x="610" 
d="M339 1184q-58 -62 -113 -117q-90 76 -127 129q51 72 127 127q42 -30 113 -109q49 62 114 109q74 -55 123 -127q-61 -74 -123 -129zM457 963q-61 -70 -118 -121q-84 67 -121 121q45 69 121 122q67 -53 118 -122zM611 0h-14q-218 0 -320 135q-80 -101 -104 -112
q-48 -23 -172 -23l-33 6v195l33 6q132 0 203 18q20 97 73 332l127 84l29 -8q-21 -302 -47 -381q65 -45 225 -45l33 -6v-195z" />
    <glyph glyph-name="uni067D.fina" unicode="&#x67d;" horiz-adv-x="1620" 
d="M782 1034q-100 -100 -113 -114q-90 73 -127 129q50 69 127 125q61 -46 113 -109q49 63 115 109q71 -56 123 -125q-62 -76 -123 -129q-111 108 -115 114zM901 815q-62 -72 -119 -123q-86 68 -121 123q45 68 121 121q66 -53 119 -121zM1622 0q-252 0 -344 145
q-72 -82 -99 -96q-155 -49 -555 -49q-524 0 -524 365q0 204 160 442l57 -31q-82 -182 -82 -291q0 -278 428 -278q283 0 553 37q21 98 70 313l129 88l28 -12q-26 -312 -47 -381q65 -45 226 -45l32 -6v-195z" />
    <glyph glyph-name="uni0681.init" unicode="&#x681;" horiz-adv-x="1308" 
d="M787 961q-119 -60 -246 -60q-26 0 -143 96l6 33q96 0 119 4v2q-39 23 -39 90q0 78 50 141q53 68 130 68q68 0 100 -90q17 -45 19 -90l-33 -8q-32 49 -84 49q-64 0 -123 -49q28 -86 123 -86q78 0 164 33l10 -15zM161 0h-160l-33 6v195l33 6h237q224 0 428 90
q116 53 144 61q-111 36 -246 111l-250 141l-186 -127l-43 47q182 258 280 258q23 0 301 -153q226 -129 385 -129h168l9 -27l-66 -155h-162q-31 -5 -375 -201q-205 -123 -464 -123z" />
    <glyph glyph-name="uni0681.medi" unicode="&#x681;" horiz-adv-x="1327" 
d="M787 961q-119 -60 -246 -60q-26 0 -143 96l6 33q96 0 119 4v2q-39 23 -39 90q0 78 50 141q53 68 130 68q68 0 100 -90q17 -45 19 -90l-33 -8q-32 49 -84 49q-64 0 -123 -49q28 -86 123 -86q78 0 164 33l10 -15zM161 0h-160l-33 6v195l33 6h237q230 0 430 92
q107 49 142 59q-115 39 -246 111l-250 141l-186 -127l-43 47q182 258 280 258q23 0 301 -153q226 -129 385 -129h164l8 -27l-67 -155l-101 -7q5 -110 130 -110h143l33 -6v-195l-33 -6h-152q-203 0 -203 217q0 44 9 98q-37 -8 -357 -192q-205 -123 -464 -123z" />
    <glyph glyph-name="uni0681.fina" unicode="&#x681;" horiz-adv-x="1326" 
d="M852 999q-119 -59 -244 -59q-27 0 -146 96l9 33q96 0 118 4v2q-40 24 -40 90q0 78 50 141q54 68 132 68q66 0 98 -90q16 -45 19 -90l-33 -8q-36 47 -82 47q-71 0 -125 -49q28 -84 125 -84q75 0 162 33l10 -15zM1276 -422q-319 -205 -451 -205q-257 0 -439 102
q-153 87 -194 206q-44 108 -44 218q0 13 1 27q46 310 418 518q53 27 188 39l2 11q-110 10 -261 41q-147 31 -193 34l-160 -141l-43 37q158 295 231 295q42 0 276 -47q233 -47 392 -47h213l8 -25l-65 -162l-101 2q-2 -36 -2 -66q0 -91 22 -135q38 -73 159 -73h94l33 -6v-195
l-33 -6h-101q-187 0 -243 141q-22 55 -22 128q0 85 30 194q-283 -88 -549 -307q-169 -142 -203 -306q141 -251 670 -251q117 0 354 22z" />
    <glyph glyph-name="uni0682.init" unicode="&#x682;" horiz-adv-x="1308" 
d="M161 0h-160l-33 6v195l33 6h237q224 0 428 90q116 53 144 61q-111 36 -246 111l-250 141l-186 -127l-43 47q182 258 280 258q23 0 301 -153q226 -129 385 -129h168l9 -27l-66 -155h-162q-31 -5 -375 -201q-205 -123 -464 -123zM498 1065q76 92 115 117q-74 67 -115 114
q76 93 132 129q73 -49 131 -129q-39 -53 -113 -114q66 -51 113 -117q-58 -78 -131 -127q-76 61 -132 127z" />
    <glyph glyph-name="uni0682.medi" unicode="&#x682;" horiz-adv-x="1327" 
d="M161 0h-160l-33 6v195l33 6h237q230 0 430 92q107 49 142 59q-115 39 -246 111l-250 141l-186 -127l-43 47q182 258 280 258q23 0 301 -153q226 -129 385 -129h164l8 -27l-67 -155l-101 -7q5 -110 130 -110h143l33 -6v-195l-33 -6h-152q-203 0 -203 217q0 44 9 98
q-37 -8 -357 -192q-205 -123 -464 -123zM500 1065q76 92 115 117q-74 67 -115 114q76 93 132 129q73 -49 131 -129q-39 -53 -113 -114q66 -51 113 -117q-58 -78 -131 -127q-76 61 -132 127z" />
    <glyph glyph-name="uni0682.fina" unicode="&#x682;" horiz-adv-x="1326" 
d="M1276 -422q-319 -205 -451 -205q-257 0 -439 102q-153 87 -194 206q-44 108 -44 218q0 13 1 27q46 310 418 518q53 27 188 39l2 11q-110 10 -261 41q-147 31 -193 34l-160 -141l-43 37q158 295 231 295q42 0 276 -47q233 -47 392 -47h213l8 -25l-65 -162l-101 2
q-2 -36 -2 -66q0 -91 22 -135q38 -73 159 -73h94l33 -6v-195l-33 -6h-101q-187 0 -243 141q-22 55 -22 128q0 85 30 194q-283 -88 -549 -307q-169 -142 -203 -306q141 -251 670 -251q117 0 354 22zM568 1049q76 92 115 117q-74 67 -115 114q76 93 132 129q73 -49 131 -129
q-39 -53 -113 -114q66 -51 113 -117q-58 -78 -131 -127q-76 61 -132 127z" />
    <glyph glyph-name="uni0685.init" unicode="&#x685;" horiz-adv-x="1308" 
d="M572 1264q62 69 119 120q84 -67 121 -120q-47 -70 -121 -123q-68 53 -119 123zM802 903q-58 44 -111 109q-51 -62 -117 -109q-71 55 -123 127q62 74 123 129l117 -117q111 120 113 120l-2 -3q90 -76 127 -129q-50 -72 -127 -127zM161 0h-160l-33 6v195l33 6h237
q224 0 428 90q116 53 144 61q-111 36 -246 111l-250 141l-186 -127l-43 47q182 258 280 258q23 0 301 -153q226 -129 385 -129h168l9 -27l-66 -155h-162q-31 -5 -375 -201q-205 -123 -464 -123z" />
    <glyph glyph-name="uni0685.medi" unicode="&#x685;" horiz-adv-x="1327" 
d="M572 1264q62 69 119 120q84 -67 121 -120q-47 -70 -121 -123q-68 53 -119 123zM802 903q-58 44 -111 109q-51 -62 -117 -109q-71 55 -123 127q62 74 123 129l117 -117q111 120 113 120l-2 -3q90 -76 127 -129q-50 -72 -127 -127zM161 0h-160l-33 6v195l33 6h237
q230 0 430 92q107 49 142 59q-115 39 -246 111l-250 141l-186 -127l-43 47q182 258 280 258q23 0 301 -153q226 -129 385 -129h164l8 -27l-67 -155l-101 -7q5 -110 130 -110h143l33 -6v-195l-33 -6h-152q-203 0 -203 217q0 44 9 98q-37 -8 -357 -192q-205 -123 -464 -123z
" />
    <glyph glyph-name="uni0685.fina" unicode="&#x685;" horiz-adv-x="1326" 
d="M567 1309q61 69 119 121q86 -68 121 -121q-45 -68 -121 -123q-66 55 -119 123zM798 948q-45 35 -112 109q-49 -62 -115 -109q-72 56 -123 127q62 76 123 129l115 -114q18 17 62 62l50 52q90 -76 127 -129q-51 -71 -127 -127zM1276 -422q-319 -205 -451 -205
q-257 0 -439 102q-153 87 -194 206q-44 108 -44 218q0 13 1 27q46 310 418 518q53 27 188 39l2 11q-110 10 -261 41q-147 31 -193 34l-160 -141l-43 37q158 295 231 295q42 0 276 -47q233 -47 392 -47h213l8 -25l-65 -162l-101 2q-2 -36 -2 -66q0 -91 22 -135
q38 -73 159 -73h94l33 -6v-195l-33 -6h-101q-187 0 -243 141q-22 55 -22 128q0 85 30 194q-283 -88 -549 -307q-169 -142 -203 -306q141 -251 670 -251q117 0 354 22z" />
    <glyph glyph-name="uni0689.fina" unicode="&#x689;" horiz-adv-x="1020" 
d="M421 -151q25 -23 62 -23q84 0 84 78q0 86 -84 86q-88 0 -88 -86q0 -33 26 -55zM723 217q-9 23 -242 596l121 154h37l155 -500q69 -194 91 -221q31 -39 137 -39l32 -6v-195l-32 -6h-27q-159 0 -244 158l-96 -127q-11 -6 -66 -13q46 -45 46 -114q0 -64 -43 -108
q-44 -44 -109 -44q-64 0 -110 44q-48 45 -48 108q0 54 35 96q-260 0 -260 201q0 124 70 254l61 -19q-20 -69 -20 -117q0 -56 30 -79q43 -33 172 -33q146 0 310 10z" />
    <glyph glyph-name="uni068A.fina" unicode="&#x68a;" horiz-adv-x="1020" 
d="M346 -260q61 76 125 129q90 -74 129 -129q-49 -74 -129 -129q-76 55 -125 129zM723 217q-9 23 -242 596l121 154h37l155 -500q69 -194 91 -221q31 -39 137 -39l32 -6v-195l-32 -6h-27q-159 0 -244 158l-96 -127q-84 -31 -293 -31q-262 0 -262 201q0 124 70 254l61 -19
q-20 -69 -20 -117q0 -56 30 -79q43 -33 172 -33q146 0 310 10z" />
    <glyph glyph-name="uni068B.fina" unicode="&#x68b;" horiz-adv-x="1020" 
d="M776 1289q-42 94 -114 94t-180 -116q40 -2 118 -2q114 0 176 24zM484 1356q113 150 202 150q53 0 102 -65q47 -61 47 -122q0 -21 -35 -74q-33 -51 -50 -62q-55 -35 -194 -35q-69 0 -136 13l-123 96l5 18l125 -7l18 28q-18 182 -23 281l-17 47l84 80l18 -11v-35l46 -80
l-34 -35l-2 -86q0 -14 -18 -64q-11 -27 -15 -37zM723 217q-9 23 -242 596l121 154h37l155 -500q69 -194 91 -221q31 -39 137 -39l32 -6v-195l-32 -6h-27q-159 0 -244 158l-96 -127q-84 -31 -293 -31q-262 0 -262 201q0 124 70 254l61 -19q-20 -69 -20 -117q0 -56 30 -79
q43 -33 172 -33q146 0 310 10zM346 -260q61 76 125 129q90 -74 129 -129q-49 -74 -129 -129q-76 55 -125 129z" />
    <glyph glyph-name="uni068F.fina" unicode="&#x68f;" horiz-adv-x="1020" 
d="M557 1481l-113 -115q-90 76 -127 129q51 72 127 127q42 -30 113 -109q49 62 114 109q74 -55 123 -127q-61 -76 -123 -129q-108 111 -114 115zM675 1262q-61 -70 -118 -121q-84 67 -121 121q45 67 121 122q67 -55 118 -122zM723 217q-9 23 -242 596l121 154h37l155 -500
q69 -194 91 -221q31 -39 137 -39l32 -6v-195l-32 -6h-27q-159 0 -244 158l-96 -127q-84 -31 -293 -31q-262 0 -262 201q0 124 70 254l61 -19q-20 -69 -20 -117q0 -56 30 -79q43 -33 172 -33q146 0 310 10z" />
    <glyph glyph-name="uni0690.fina" unicode="&#x690;" horiz-adv-x="1020" 
d="M723 217q-9 23 -242 596l121 154h37l155 -500q69 -194 91 -221q31 -39 137 -39l32 -6v-195l-32 -6h-27q-159 0 -244 158l-96 -127q-84 -31 -293 -31q-262 0 -262 201q0 124 70 254l61 -19q-20 -69 -20 -117q0 -56 30 -79q43 -33 172 -33q146 0 310 10zM549 1283
q-33 -43 -113 -108q-76 61 -123 123q23 32 113 114q-83 71 -113 115q19 25 123 123q83 -63 111 -111q16 19 115 111q77 -59 120 -123q-30 -48 -110 -115q91 -84 110 -114q-37 -59 -120 -123q-88 67 -113 108zM653 1412l-106 105l-102 -105l102 -104z" />
    <glyph glyph-name="uni0692.fina" unicode="&#x692;" horiz-adv-x="882" 
d="M470 840l-8 6q-45 128 -180 233l65 131l12 4q103 -93 168 -268q45 134 154 264l14 -2l49 -104q-128 -135 -170 -264h-104zM581 166q-11 26 -136 307l131 158h29l47 -195q39 -149 74 -186q40 -43 158 -43l32 -6v-195l-32 -6h-25q-94 0 -190 84q-12 -139 -105 -294
q-110 -185 -244 -185q-35 0 -166 72q-119 66 -151 94l25 57q94 -25 159 -25q271 0 394 363z" />
    <glyph glyph-name="uni0693.fina" unicode="&#x693;" horiz-adv-x="882" 
d="M617 -383q86 0 86 80q0 86 -86 86t-86 -86q0 -80 86 -80zM581 166q-11 26 -136 307l131 158h29l47 -195q39 -149 74 -186q40 -43 158 -43l32 -6v-195l-32 -6h-25q-94 0 -190 84q-12 -111 -74 -236l22 2q67 0 109 -43q43 -43 43 -110q0 -64 -43 -108q-43 -46 -109 -46
q-124 0 -153 123q-68 -61 -144 -61q-35 0 -166 72q-119 66 -151 94l25 57q94 -25 159 -25q271 0 394 363z" />
    <glyph glyph-name="uni0694.fina" unicode="&#x694;" horiz-adv-x="882" 
d="M251 -657q63 75 127 131q90 -76 127 -131q-49 -74 -127 -129q-78 55 -127 129zM581 166q-11 26 -136 307l131 158h29l47 -195q39 -149 74 -186q40 -43 158 -43l32 -6v-195l-32 -6h-25q-94 0 -190 84q-12 -139 -105 -294q-110 -185 -244 -185q-35 0 -166 72
q-119 66 -151 94l25 57q94 -25 159 -25q271 0 394 363z" />
    <glyph glyph-name="uni0695.fina" unicode="&#x695;" horiz-adv-x="882" 
d="M380 -897l-8 8q-45 128 -181 234l66 131l12 4q104 -97 168 -268q45 134 154 264l14 -2l47 -105q-125 -136 -168 -266h-104zM581 166q-11 26 -136 307l131 158h29l47 -195q39 -149 74 -186q40 -43 158 -43l32 -6v-195l-32 -6h-25q-94 0 -190 84q-12 -139 -105 -294
q-110 -185 -244 -185q-35 0 -166 72q-119 66 -151 94l25 57q94 -25 159 -25q271 0 394 363z" />
    <glyph glyph-name="uni0696.fina" unicode="&#x696;" horiz-adv-x="879" 
d="M92 231q62 76 125 129q90 -73 129 -129q-49 -73 -129 -129q-76 56 -125 129zM584 -487q61 77 127 131q88 -76 127 -131q-50 -74 -127 -127q-78 53 -127 127zM578 166q-11 26 -136 307l131 158h29l47 -195q39 -149 74 -186q40 -43 158 -43l32 -6v-195l-32 -6h-25
q-94 0 -190 84q-12 -139 -105 -294q-110 -185 -244 -185q-35 0 -166 72q-119 66 -151 94l25 57q94 -25 159 -25q271 0 394 363z" />
    <glyph glyph-name="uni0697.fina" unicode="&#x697;" horiz-adv-x="882" 
d="M630 844q-53 38 -113 110q-49 -63 -115 -110q-73 55 -123 127q62 76 123 129l115 -115q19 17 63 63l50 52q90 -74 127 -129q-52 -72 -127 -127zM581 166q-11 26 -136 307l131 158h29l47 -195q39 -149 74 -186q40 -43 158 -43l32 -6v-195l-32 -6h-25q-94 0 -190 84
q-12 -139 -105 -294q-110 -185 -244 -185q-35 0 -166 72q-119 66 -151 94l25 57q94 -25 159 -25q271 0 394 363z" />
    <glyph glyph-name="uni0699.fina" unicode="&#x699;" horiz-adv-x="882" 
d="M525 942q-37 -52 -112 -108q-77 61 -123 122q15 26 112 115q-80 68 -112 117q36 44 123 121q74 -52 112 -109q44 47 115 109q70 -49 123 -121q-33 -50 -113 -117q81 -70 113 -115q-37 -56 -123 -122q-71 54 -115 108zM632 1071l-107 107l-104 -107l104 -104zM581 166
q-11 26 -136 307l131 158h29l47 -195q39 -149 74 -186q40 -43 158 -43l32 -6v-195l-32 -6h-25q-94 0 -190 84q-12 -139 -105 -294q-110 -185 -244 -185q-35 0 -166 72q-119 66 -151 94l25 57q98 -25 159 -25q271 0 394 363z" />
    <glyph glyph-name="uni069A.init" unicode="&#x69a;" horiz-adv-x="1402" 
d="M679 958q61 78 127 132q90 -76 127 -132q-50 -71 -127 -127q-78 56 -127 127zM1246 76q-78 -101 -115 -101q-184 0 -391 162q-75 -137 -260 -137q-168 0 -248 117q-88 -117 -231 -117l-33 6v195l33 6q102 0 174 14l67 203l113 76l27 -15q-19 -146 -37 -249
q72 -29 176 -29q65 0 135 12l84 309l115 76l26 -14q-6 -115 -36 -320q144 -84 331 -108l-57 475l145 119h37q21 -377 21 -539q0 -42 -76 -141zM636 -297q61 76 127 131q88 -76 127 -131q-50 -74 -127 -129q-78 55 -127 129z" />
    <glyph glyph-name="uni069A.medi" unicode="&#x69a;" horiz-adv-x="1501" 
d="M679 958q61 78 127 132q90 -76 127 -132q-50 -71 -127 -127q-78 56 -127 127zM1443 0q-150 0 -215 135q-73 -135 -248 -135q-172 0 -252 117q-70 -117 -248 -117q-168 0 -248 117q-88 -117 -231 -117l-33 6v195l33 6q102 0 174 14l67 203l113 76l27 -15
q-19 -146 -37 -249q72 -29 176 -29q65 0 135 12l84 309l115 76l26 -14q-15 -196 -43 -350q70 -33 183 -33q84 0 157 18q-16 113 -36 336l149 113h37v-367q0 -63 14 -78q19 -22 96 -22h64l33 -6v-195l-33 -6h-59zM642 -297q61 76 125 131q90 -76 129 -131q-49 -74 -129 -129
q-76 55 -125 129z" />
    <glyph glyph-name="uni069A.fina" unicode="&#x69a;" horiz-adv-x="2198" 
d="M1376 965q63 75 127 131q90 -76 127 -131q-49 -74 -127 -129q-78 55 -127 129zM184 -281q-84 91 -84 242q0 203 160 451l55 -27q-78 -188 -78 -303q0 -266 324 -266q244 0 391 98q-35 225 -80 551l158 127h37l12 -367q52 -18 139 -18q66 0 135 12l84 309l115 76l27 -14
q-16 -196 -43 -350q69 -33 182 -33q84 0 158 18q-17 113 -35 336l147 113h37v-367q0 -63 14 -78q19 -22 97 -22h63l33 -6v-195l-33 -6h-59q-149 0 -215 135q-73 -135 -250 -135q-170 0 -250 117q-69 -117 -248 -117q-61 0 -100 23l-4 -37q-19 -116 -113 -238
q-140 -143 -442 -143q-227 0 -334 114zM1339 -297q61 76 125 131q90 -76 129 -131q-49 -74 -129 -129q-76 55 -125 129z" />
    <glyph glyph-name="uni069B.init" unicode="&#x69b;" horiz-adv-x="1402" 
d="M1246 76q-78 -101 -115 -101q-184 0 -391 162q-75 -137 -260 -137q-168 0 -248 117q-88 -117 -231 -117l-33 6v195l33 6q102 0 174 14l67 203l113 76l27 -15q-19 -146 -37 -249q72 -29 176 -29q65 0 135 12l84 309l115 76l26 -14q-6 -115 -36 -320q144 -84 331 -108
l-57 475l145 119h37q21 -377 21 -539q0 -42 -76 -141zM788 -309q-57 -62 -113 -117q-90 76 -127 129q52 72 127 127q42 -30 113 -109q49 62 115 109q74 -55 123 -127q-62 -74 -123 -129zM907 -530q-62 -70 -119 -121q-84 67 -121 121q45 69 121 122q68 -53 119 -122z" />
    <glyph glyph-name="uni069B.medi" unicode="&#x69b;" horiz-adv-x="1501" 
d="M1443 0q-150 0 -215 135q-73 -135 -248 -135q-172 0 -252 117q-70 -117 -248 -117q-168 0 -248 117q-88 -117 -231 -117l-33 6v195l33 6q102 0 174 14l67 203l113 76l27 -15q-19 -146 -37 -249q72 -29 176 -29q65 0 135 12l84 309l115 76l26 -14q-15 -196 -43 -350
q70 -33 183 -33q84 0 157 18q-16 113 -36 336l149 113h37v-367q0 -63 14 -78q19 -22 96 -22h64l33 -6v-195l-33 -6h-59zM788 -309q-57 -62 -113 -117q-90 76 -127 129q52 72 127 127q42 -30 113 -109q49 62 115 109q74 -55 123 -127q-62 -74 -123 -129zM907 -530
q-62 -70 -119 -121q-84 67 -121 121q45 69 121 122q68 -53 119 -122z" />
    <glyph glyph-name="uni069B.fina" unicode="&#x69b;" horiz-adv-x="2198" 
d="M184 -281q-84 91 -84 242q0 203 160 451l55 -27q-78 -188 -78 -303q0 -266 324 -266q244 0 391 98q-35 225 -80 551l158 127h37l12 -367q52 -18 139 -18q66 0 135 12l84 309l115 76l27 -14q-16 -196 -43 -350q69 -33 182 -33q84 0 158 18q-17 113 -35 336l147 113h37
v-367q0 -63 14 -78q19 -22 97 -22h63l33 -6v-195l-33 -6h-59q-149 0 -215 135q-73 -135 -250 -135q-170 0 -250 117q-69 -117 -248 -117q-61 0 -100 23l-4 -37q-19 -116 -113 -238q-140 -143 -442 -143q-227 0 -334 114zM1508 -309q-57 -62 -113 -117q-90 76 -127 129
q52 72 127 127q42 -30 113 -109q49 62 115 109q74 -55 123 -127q-62 -74 -123 -129zM1627 -530q-62 -70 -119 -121q-84 67 -121 121q45 69 121 122q68 -53 119 -122z" />
    <glyph glyph-name="uni069C.init" unicode="&#x69c;" horiz-adv-x="1402" 
d="M673 1169q61 70 118 121q86 -67 121 -121q-45 -69 -121 -122q-65 53 -118 122zM904 809q-45 34 -113 109q-49 -62 -114 -109q-72 55 -123 127q61 74 123 129q110 -111 114 -117q88 88 113 117q90 -76 127 -129q-49 -72 -127 -127zM1246 76q-78 -101 -115 -101
q-184 0 -391 162q-75 -137 -260 -137q-168 0 -248 117q-88 -117 -231 -117l-33 6v195l33 6q102 0 174 14l67 203l113 76l27 -15q-19 -146 -37 -249q72 -29 176 -29q65 0 135 12l84 309l115 76l26 -14q-6 -115 -36 -320q144 -84 331 -108l-57 475l145 119h37q21 -377 21 -539
q0 -42 -76 -141zM788 -309q-57 -62 -113 -117q-90 76 -127 129q52 72 127 127q42 -30 113 -109q49 62 115 109q74 -55 123 -127q-62 -74 -123 -129zM907 -530q-62 -70 -119 -121q-84 67 -121 121q45 69 121 122q68 -53 119 -122z" />
    <glyph glyph-name="uni069C.medi" unicode="&#x69c;" horiz-adv-x="1501" 
d="M668 1169q64 70 119 121q86 -67 121 -121q-45 -69 -121 -122q-65 53 -119 122zM900 809q-45 34 -113 109q-49 -62 -114 -109q-72 55 -123 127q61 74 123 129l116 -117q112 120 113 120l-2 -3q90 -76 127 -129q-49 -72 -127 -127zM1443 0q-150 0 -215 135
q-73 -135 -248 -135q-172 0 -252 117q-70 -117 -248 -117q-168 0 -248 117q-88 -117 -231 -117l-33 6v195l33 6q102 0 174 14l67 203l113 76l27 -15q-19 -146 -37 -249q72 -29 176 -29q65 0 135 12l84 309l115 76l26 -14q-15 -196 -43 -350q70 -33 183 -33q84 0 157 18
q-16 113 -36 336l149 113h37v-367q0 -63 14 -78q19 -22 96 -22h64l33 -6v-195l-33 -6h-59zM788 -309q-57 -62 -113 -117q-90 76 -127 129q52 72 127 127q42 -30 113 -109q49 62 115 109q74 -55 123 -127q-62 -74 -123 -129zM907 -530q-62 -70 -119 -121q-84 67 -121 121
q45 69 121 122q68 -53 119 -122z" />
    <glyph glyph-name="uni069C.fina" unicode="&#x69c;" horiz-adv-x="2198" 
d="M1394 1169q62 70 119 121q84 -67 121 -121q-47 -69 -121 -122q-67 53 -119 122zM1624 809q-58 44 -111 109q-49 -62 -115 -109q-73 55 -124 127q61 74 124 129l115 -117q112 120 113 120l-2 -3q90 -76 127 -129q-49 -72 -127 -127zM184 -281q-84 91 -84 242
q0 203 160 451l55 -27q-78 -188 -78 -303q0 -266 324 -266q244 0 391 98q-35 225 -80 551l158 127h37l12 -367q52 -18 139 -18q66 0 135 12l84 309l115 76l27 -14q-16 -196 -43 -350q69 -33 182 -33q84 0 158 18q-17 113 -35 336l147 113h37v-367q0 -63 14 -78
q19 -22 97 -22h63l33 -6v-195l-33 -6h-59q-149 0 -215 135q-73 -135 -250 -135q-170 0 -250 117q-69 -117 -248 -117q-61 0 -100 23l-4 -37q-19 -116 -113 -238q-140 -143 -442 -143q-227 0 -334 114zM1508 -309q-57 -62 -113 -117q-90 76 -127 129q52 72 127 127
q42 -30 113 -109q49 62 115 109q74 -55 123 -127q-62 -74 -123 -129zM1627 -530q-62 -70 -119 -121q-84 67 -121 121q45 69 121 122q68 -53 119 -122z" />
    <glyph glyph-name="uni069D.init" unicode="&#x69d;" horiz-adv-x="1559" 
d="M834 209q369 6 539 102q-49 128 -134 211q-93 90 -192 90q-226 0 -493 -395q92 -10 194 -10zM720 0q-337 0 -471 139q-97 -139 -248 -139l-33 6v195l33 6q102 0 174 14q29 94 67 207l113 76l27 -12q-15 -121 -29 -211q43 -33 109 -48q303 594 643 594q144 0 265 -163
q109 -148 109 -275q0 -137 -127 -264q-124 -125 -593 -125h-39zM965 -309q-57 -62 -113 -117q-90 76 -127 129q52 72 127 127q42 -30 113 -109q49 62 115 109q74 -55 123 -127q-62 -74 -123 -129z" />
    <glyph glyph-name="uni069D.medi" unicode="&#x69d;" horiz-adv-x="1605" 
d="M834 209q369 6 539 102q-49 128 -134 211q-93 90 -192 90q-226 0 -493 -395q92 -10 194 -10zM1606 0h-139q-78 0 -158 96q-187 -96 -550 -96h-39q-337 0 -471 139q-97 -139 -248 -139l-33 6v195l33 6q102 0 174 14q29 94 67 207l113 76l27 -12q-15 -121 -29 -211
q43 -33 109 -48q303 594 643 594q144 0 265 -163q109 -148 109 -275q0 -67 -67 -182h194l33 -6v-195zM965 -309q-57 -62 -113 -117q-90 76 -127 129q52 72 127 127q42 -30 113 -109q49 62 115 109q74 -55 123 -127q-62 -74 -123 -129z" />
    <glyph glyph-name="uni069D.fina" unicode="&#x69d;" horiz-adv-x="2251" 
d="M1484 209q369 6 539 102q-48 128 -135 211q-92 90 -193 90q-223 0 -491 -395q116 -10 192 -10zM184 -281q-84 91 -84 242q0 203 160 451l55 -27q-78 -188 -78 -303q0 -266 324 -266q244 0 391 98q-35 225 -80 551l158 127h37l12 -352q10 -4 31 -9q304 596 643 596
q144 0 266 -163q111 -148 111 -275q0 -63 -70 -182h192l33 -6v-195l-33 -6h-137q-78 0 -157 96q-193 -96 -549 -96h-39q-205 0 -291 55q-4 -60 -6 -69q-19 -116 -113 -238q-140 -143 -442 -143q-227 0 -334 114zM1615 -309q-57 -62 -113 -117q-90 76 -127 129q52 72 127 127
q42 -30 113 -109q49 62 115 109q74 -55 123 -127q-62 -74 -123 -129z" />
    <glyph glyph-name="uni069E.init" unicode="&#x69e;" horiz-adv-x="1559" 
d="M834 209q369 6 539 102q-49 128 -134 211q-93 90 -192 90q-226 0 -493 -395q92 -10 194 -10zM720 0q-337 0 -471 139q-97 -139 -248 -139l-33 6v195l33 6q102 0 174 14q29 94 67 207l113 76l27 -12q-15 -121 -29 -211q43 -33 109 -48q303 594 643 594q144 0 265 -163
q109 -148 109 -275q0 -137 -127 -264q-124 -125 -593 -125h-39zM794 1373q62 69 119 120q84 -67 121 -120q-47 -70 -121 -123q-67 53 -119 123zM1024 1012q-58 44 -111 109q-49 -62 -115 -109q-73 55 -124 127q61 74 124 129l115 -117q111 120 113 120l-2 -3
q90 -76 127 -129q-49 -72 -127 -127z" />
    <glyph glyph-name="uni069E.medi" unicode="&#x69e;" horiz-adv-x="1605" 
d="M834 209q369 6 539 102q-49 128 -134 211q-93 90 -192 90q-226 0 -493 -395q92 -10 194 -10zM1606 0h-139q-78 0 -158 96q-187 -96 -550 -96h-39q-337 0 -471 139q-97 -139 -248 -139l-33 6v195l33 6q102 0 174 14q29 94 67 207l113 76l27 -12q-15 -121 -29 -211
q43 -33 109 -48q303 594 643 594q144 0 265 -163q109 -148 109 -275q0 -67 -67 -182h194l33 -6v-195zM797 1370q62 69 119 120q84 -67 121 -120q-47 -70 -121 -123q-67 53 -119 123zM1027 1009q-58 44 -111 109q-49 -62 -115 -109q-73 55 -124 127q61 74 124 129l115 -117
q111 120 113 120l-2 -3q90 -76 127 -129q-49 -72 -127 -127z" />
    <glyph glyph-name="uni069E.fina" unicode="&#x69e;" horiz-adv-x="2251" 
d="M1484 209q369 6 539 102q-48 128 -135 211q-92 90 -193 90q-223 0 -491 -395q116 -10 192 -10zM184 -281q-84 91 -84 242q0 203 160 451l55 -27q-78 -188 -78 -303q0 -266 324 -266q244 0 391 98q-35 225 -80 551l158 127h37l12 -352q10 -4 31 -9q304 596 643 596
q144 0 266 -163q111 -148 111 -275q0 -63 -70 -182h192l33 -6v-195l-33 -6h-137q-78 0 -157 96q-193 -96 -549 -96h-39q-205 0 -291 55q-4 -60 -6 -69q-19 -116 -113 -238q-140 -143 -442 -143q-227 0 -334 114zM1428 1367q62 69 119 120q84 -67 121 -120q-47 -70 -121 -123
q-67 53 -119 123zM1658 1006q-58 44 -111 109q-49 -62 -115 -109q-73 55 -124 127q61 74 124 129l115 -117q111 120 113 120l-2 -3q90 -76 127 -129q-49 -72 -127 -127z" />
    <glyph glyph-name="uni069F.init" unicode="&#x69f;" horiz-adv-x="1215" 
d="M1 0l-33 6v195l33 6h110q51 100 109 192l-9 321q-9 297 -12 423l-49 127l187 182l41 -29v-100l92 -166l-94 -100v-293q0 -70 -64 -213l10 -8q224 284 441 284q144 0 264 -163q108 -147 108 -275q0 -47 -49 -143q-45 -88 -78 -121q-125 -125 -594 -125h-413zM490 209
q364 6 537 102q-47 127 -135 211q-94 90 -197 90q-227 0 -494 -405h242zM613 1309q61 70 118 121q86 -67 121 -121q-45 -69 -121 -122q-65 53 -118 122zM844 949q-45 34 -113 109q-49 -62 -114 -109q-72 55 -123 127q61 74 123 129q110 -111 114 -117q88 88 113 117
q90 -76 127 -129q-49 -72 -127 -127z" />
    <glyph glyph-name="uni069F.medi" unicode="&#x69f;" horiz-adv-x="1265" 
d="M490 209q364 6 537 102q-47 127 -135 211q-94 90 -197 90q-227 0 -494 -405h242zM1266 0h-137q-80 0 -162 98q-186 -98 -553 -98h-413l-33 6v195l33 6h110q51 100 109 192l-9 321q-9 297 -12 423l-49 127l187 182l41 -29v-100l92 -166l-94 -100v-293q0 -70 -64 -213
l10 -8q224 284 441 284q144 0 264 -163q108 -147 108 -275q0 -59 -69 -182h200l33 -6v-195zM608 1310q61 70 118 121q86 -67 121 -121q-45 -69 -121 -122q-65 53 -118 122zM839 950q-45 34 -113 109q-49 -62 -114 -109q-72 55 -123 127q61 74 123 129q110 -111 114 -117
q88 88 113 117q90 -76 127 -129q-49 -72 -127 -127z" />
    <glyph glyph-name="uni069F.fina" unicode="&#x69f;" horiz-adv-x="1458" 
d="M683 209q360 6 537 102q-47 127 -134 211q-95 90 -198 90q-226 0 -489 -399q83 -6 166 -6zM1460 0h-138q-81 0 -159 98q-192 -98 -555 -98h-72q-197 0 -266 35l-244 178l10 31q119 -15 273 -25q55 104 104 180l-9 322q-8 301 -11 422l-50 127l187 182l41 -29v-100
l92 -166l-94 -100v-293q0 -99 -64 -213l10 -8q225 284 441 284q144 0 264 -163q109 -147 109 -275q0 -59 -70 -182h201l32 -6v-195zM829 1304q61 70 118 121q86 -67 121 -121q-45 -69 -121 -122q-65 53 -118 122zM1060 944q-45 34 -113 109q-49 -62 -114 -109
q-72 55 -123 127q61 74 123 129q110 -111 114 -117q88 88 113 117q90 -76 127 -129q-49 -72 -127 -127z" />
    <glyph glyph-name="uni06A0.init" unicode="&#x6a0;" horiz-adv-x="1017" 
d="M855 127q-368 -127 -694 -127h-160l-33 6v195l33 6h235q-123 105 -123 250q0 135 74 231q42 70 140 129q104 64 194 64q139 0 278 -258l-38 -39l-185 116q-197 -16 -352 -176q35 -104 121 -182q101 -92 223 -92q160 0 352 96l17 -14zM382 1368q61 70 118 121
q86 -67 121 -121q-45 -69 -121 -122q-65 53 -118 122zM613 1008q-45 34 -113 109q-49 -62 -114 -109q-72 55 -123 127q61 74 123 129q110 -111 114 -117q88 88 113 117q90 -76 127 -129q-49 -72 -127 -127z" />
    <glyph glyph-name="uni06A0.medi" unicode="&#x6a0;" horiz-adv-x="1165" 
d="M658 293q212 108 316 276q-145 39 -349 39q-148 0 -280 -22q139 -145 172 -176q84 -82 137 -119zM1166 0h-141q-235 0 -404 113q-222 -113 -491 -113h-129l-33 6v195l33 6h297q92 0 182 22l-45 45q-30 32 -118 127l-113 121l-70 -98l-47 29q92 259 162 284q145 58 417 58
q306 0 396 -86q10 -13 10 -57q0 -16 -1 -36q-5 -71 -18 -92q-98 -175 -260 -301q63 -16 131 -16h242l33 -6v-195zM490 1380q61 70 118 121q86 -67 121 -121q-45 -69 -121 -122q-65 53 -118 122zM721 1020q-45 34 -113 109q-49 -62 -114 -109q-72 55 -123 127q61 74 123 129
q110 -111 114 -117q88 88 113 117q90 -76 127 -129q-49 -72 -127 -127z" />
    <glyph glyph-name="uni06A0.fina" unicode="&#x6a0;" horiz-adv-x="1209" 
d="M659 319q256 116 332 261q-137 41 -350 41q-135 0 -275 -21q147 -152 193 -194q66 -63 98 -87h2zM1210 -420q-319 -205 -410 -205q-498 0 -608 297q-28 77 -28 149q0 35 6 68q40 201 336 355l-281 295l-76 -109l-49 27q94 262 166 291q158 57 414 57q305 0 395 -86
q9 -10 9 -47q0 -19 -2 -44q-5 -68 -15 -93q-62 -172 -281 -297q77 -31 178 -31h246l33 -6v-195l-33 -6h-178q-223 0 -402 133q-339 -172 -378 -317q91 -215 618 -215q117 0 326 22zM529 1426q61 70 118 121q86 -67 121 -121q-45 -69 -121 -122q-65 53 -118 122zM760 1066
q-45 34 -113 109q-49 -62 -114 -109q-72 55 -123 127q61 74 123 129q110 -111 114 -117q88 88 113 117q90 -76 127 -129q-49 -72 -127 -127z" />
    <glyph glyph-name="uni06A1.init" unicode="&#x6a1;" horiz-adv-x="818" 
d="M238 0h-237l-33 6v195l33 6h323q176 0 289 22q6 37 6 82q0 68 -12 142l-59 -101q-84 -35 -189 -35q-153 0 -198 76q-64 83 -64 189q4 135 93 271q102 157 237 157q136 0 228 -205q83 -186 83 -414q0 -70 -12 -123q-11 -50 -72 -136q-57 -79 -76 -85q-99 -47 -340 -47z
M591 524q-75 285 -211 285q-67 0 -127 -81q-55 -74 -76 -173q78 -59 199 -59q112 0 215 28z" />
    <glyph glyph-name="uni06A1.medi" unicode="&#x6a1;" horiz-adv-x="897" 
d="M517 256q73 42 121 98q-9 122 -63 225q-60 113 -136 113q-60 0 -132 -71q-69 -69 -103 -158q108 -143 294 -217zM898 0h-96q-172 0 -347 90q-165 -90 -350 -90h-104l-33 6v195l33 6h270q-88 75 -121 143q-25 59 -25 119q0 26 5 53q18 111 122 236q118 141 240 141
q112 0 195 -143q82 -140 82 -320q0 -105 -135 -227l39 -2h225l33 -6v-195z" />
    <glyph glyph-name="uni06A1.fina" unicode="&#x6a1;" horiz-adv-x="1682" 
d="M1302 256q67 38 121 98q-8 122 -63 225q-60 113 -138 113q-59 0 -131 -71q-70 -69 -104 -158q112 -143 295 -217zM1681 0h-94q-168 0 -332 82q-244 -119 -637 -119q-518 0 -518 361q0 202 160 442l59 -33q-82 -182 -82 -291q0 -270 420 -270q237 0 418 21
q-102 78 -139 157q-26 59 -26 120q0 26 5 52q18 111 122 236q119 141 241 141q111 0 194 -143q80 -140 80 -320q0 -108 -135 -227l39 -2h225l35 -6v-195z" />
    <glyph glyph-name="uni06A2.init" unicode="&#x6a2;" horiz-adv-x="818" 
d="M238 0h-237l-33 6v195l33 6h323q176 0 289 22q6 37 6 82q0 68 -12 142l-59 -101q-84 -35 -189 -35q-153 0 -198 76q-64 83 -64 189q4 135 93 271q102 157 237 157q136 0 228 -205q83 -186 83 -414q0 -70 -12 -123q-11 -50 -72 -136q-57 -79 -76 -85q-99 -47 -340 -47z
M591 524q-75 285 -211 285q-67 0 -127 -81q-55 -74 -76 -173q78 -59 199 -59q112 0 215 28zM511 -292q-62 -70 -119 -121q-84 67 -121 121q45 69 121 122q68 -53 119 -122z" />
    <glyph glyph-name="uni06A2.medi" unicode="&#x6a2;" horiz-adv-x="897" 
d="M517 256q73 42 121 98q-9 122 -63 225q-60 113 -136 113q-60 0 -132 -71q-69 -69 -103 -158q108 -143 294 -217zM898 0h-96q-172 0 -347 90q-165 -90 -350 -90h-104l-33 6v195l33 6h270q-88 75 -121 143q-25 59 -25 119q0 26 5 53q18 111 122 236q118 141 240 141
q112 0 195 -143q82 -140 82 -320q0 -105 -135 -227l39 -2h225l33 -6v-195zM564 -292q-62 -70 -119 -121q-84 67 -121 121q45 69 121 122q68 -53 119 -122z" />
    <glyph glyph-name="uni06A2.fina" unicode="&#x6a2;" horiz-adv-x="1682" 
d="M1302 256q67 38 121 98q-8 122 -63 225q-60 113 -138 113q-59 0 -131 -71q-70 -69 -104 -158q112 -143 295 -217zM1681 0h-94q-168 0 -332 82q-244 -119 -637 -119q-518 0 -518 361q0 202 160 442l59 -33q-82 -182 -82 -291q0 -270 420 -270q237 0 418 21
q-102 78 -139 157q-26 59 -26 120q0 26 5 52q18 111 122 236q119 141 241 141q111 0 194 -143q80 -140 80 -320q0 -108 -135 -227l39 -2h225l35 -6v-195zM1400 -292q-62 -70 -119 -121q-84 67 -121 121q45 69 121 122q68 -53 119 -122z" />
    <glyph glyph-name="uni06A3.init" unicode="&#x6a3;" horiz-adv-x="818" 
d="M271 1356q62 78 125 131q90 -76 129 -131q-49 -72 -129 -127q-76 55 -125 127zM238 0h-237l-33 6v195l33 6h323q176 0 289 22q6 37 6 82q0 68 -12 142l-59 -101q-84 -35 -189 -35q-153 0 -198 76q-64 83 -64 189q4 135 93 271q102 157 237 157q136 0 228 -205
q83 -186 83 -414q0 -70 -12 -123q-11 -50 -72 -136q-57 -79 -76 -85q-99 -47 -340 -47zM591 524q-75 285 -211 285q-67 0 -127 -81q-55 -74 -76 -173q78 -59 199 -59q112 0 215 28zM511 -292q-62 -70 -119 -121q-84 67 -121 121q45 69 121 122q68 -53 119 -122z" />
    <glyph glyph-name="uni06A3.medi" unicode="&#x6a3;" horiz-adv-x="897" 
d="M324 1223q64 75 127 129q90 -74 129 -129q-51 -74 -129 -129q-75 55 -127 129zM517 256q73 42 121 98q-9 122 -63 225q-60 113 -136 113q-60 0 -132 -71q-69 -69 -103 -158q108 -143 294 -217zM898 0h-96q-172 0 -347 90q-165 -90 -350 -90h-104l-33 6v195l33 6h270
q-88 75 -121 143q-25 59 -25 119q0 26 5 53q18 111 122 236q118 141 240 141q112 0 195 -143q82 -140 82 -320q0 -105 -135 -227l39 -2h225l33 -6v-195zM564 -292q-62 -70 -119 -121q-84 67 -121 121q45 69 121 122q68 -53 119 -122z" />
    <glyph glyph-name="uni06A3.fina" unicode="&#x6a3;" horiz-adv-x="1682" 
d="M1144 1229q64 76 127 131q91 -76 129 -131q-51 -74 -129 -129q-75 55 -127 129zM1302 256q67 38 121 98q-8 122 -63 225q-60 113 -138 113q-59 0 -131 -71q-70 -69 -104 -158q112 -143 295 -217zM1681 0h-94q-168 0 -332 82q-244 -119 -637 -119q-518 0 -518 361
q0 202 160 442l59 -33q-82 -182 -82 -291q0 -270 420 -270q237 0 418 21q-102 78 -139 157q-26 59 -26 120q0 26 5 52q18 111 122 236q119 141 241 141q111 0 194 -143q80 -140 80 -320q0 -108 -135 -227l39 -2h225l35 -6v-195zM904 -292q-62 -70 -119 -121q-84 67 -121 121
q45 69 121 122q68 -53 119 -122z" />
    <glyph glyph-name="uni06A5.init" unicode="&#x6a5;" horiz-adv-x="818" 
d="M238 0h-237l-33 6v195l33 6h323q176 0 289 22q6 37 6 82q0 68 -12 142l-59 -101q-84 -35 -189 -35q-153 0 -198 76q-64 83 -64 189q4 135 93 271q102 157 237 157q136 0 228 -205q83 -186 83 -414q0 -70 -12 -123q-11 -50 -72 -136q-57 -79 -76 -85q-99 -47 -340 -47z
M591 524q-75 285 -211 285q-67 0 -127 -81q-55 -74 -76 -173q78 -59 199 -59q112 0 215 28zM378 -309q-57 -62 -113 -117q-90 76 -127 129q52 72 127 127q42 -30 113 -109q49 62 115 109q74 -55 123 -127q-62 -74 -123 -129zM497 -530q-62 -70 -119 -121q-84 67 -121 121
q45 69 121 122q68 -53 119 -122z" />
    <glyph glyph-name="uni06A5.medi" unicode="&#x6a5;" horiz-adv-x="897" 
d="M517 256q73 42 121 98q-9 122 -63 225q-60 113 -136 113q-60 0 -132 -71q-69 -69 -103 -158q108 -143 294 -217zM898 0h-96q-172 0 -347 90q-165 -90 -350 -90h-104l-33 6v195l33 6h270q-88 75 -121 143q-25 59 -25 119q0 26 5 53q18 111 122 236q118 141 240 141
q112 0 195 -143q82 -140 82 -320q0 -105 -135 -227l39 -2h225l33 -6v-195zM418 -309q-57 -62 -113 -117q-90 76 -127 129q52 72 127 127q42 -30 113 -109q49 62 115 109q74 -55 123 -127q-62 -74 -123 -129zM537 -530q-62 -70 -119 -121q-84 67 -121 121q45 69 121 122
q68 -53 119 -122z" />
    <glyph glyph-name="uni06A5.fina" unicode="&#x6a5;" horiz-adv-x="1682" 
d="M1302 256q67 38 121 98q-8 122 -63 225q-60 113 -138 113q-59 0 -131 -71q-70 -69 -104 -158q112 -143 295 -217zM1681 0h-94q-168 0 -332 82q-244 -119 -637 -119q-518 0 -518 361q0 202 160 442l59 -33q-82 -182 -82 -291q0 -270 420 -270q237 0 418 21
q-102 78 -139 157q-26 59 -26 120q0 26 5 52q18 111 122 236q119 141 241 141q111 0 194 -143q80 -140 80 -320q0 -108 -135 -227l39 -2h225l35 -6v-195zM1228 -309q-57 -62 -113 -117q-90 76 -127 129q52 72 127 127q42 -30 113 -109q49 62 115 109q74 -55 123 -127
q-62 -74 -123 -129zM1347 -530q-62 -70 -119 -121q-84 67 -121 121q45 69 121 122q68 -53 119 -122z" />
    <glyph glyph-name="uni06A7.init" unicode="&#x6a7;" horiz-adv-x="818" 
d="M238 0h-237l-33 6v195l33 6h323q176 0 289 22q6 37 6 82q0 68 -12 142l-59 -101q-84 -35 -189 -35q-138 0 -198 76q-62 80 -62 173v16q2 134 91 271q102 157 237 157q136 0 228 -205q83 -186 83 -414q0 -70 -12 -123q-11 -50 -72 -136q-57 -79 -76 -85q-99 -47 -340 -47z
M591 524q-75 285 -211 285q-67 0 -127 -81q-55 -74 -76 -173q78 -59 199 -59q112 0 215 28zM269 1329q61 70 118 121q86 -67 121 -121q-45 -69 -121 -122q-65 53 -118 122z" />
    <glyph glyph-name="uni06A7.medi" unicode="&#x6a7;" horiz-adv-x="897" 
d="M517 256q73 42 121 98q-9 122 -63 225q-60 113 -136 113q-60 0 -132 -71q-69 -69 -103 -158q108 -143 294 -217zM898 0h-96q-172 0 -347 90q-165 -90 -350 -90h-104l-33 6v195l33 6h270q-88 75 -121 143q-25 59 -25 119q0 26 5 53q18 111 122 236q118 141 240 141
q112 0 195 -143q82 -140 82 -320q0 -105 -135 -227l39 -2h225l33 -6v-195zM339 1219q61 70 118 121q86 -67 121 -121q-45 -69 -121 -122q-65 53 -118 122z" />
    <glyph glyph-name="uni06A7.fina" unicode="&#x6a7;" horiz-adv-x="1307" 
d="M1075 217q-32 137 -94 232q-68 106 -144 106t-144 -98q-61 -87 -81 -197q70 -53 262 -53h203zM100 -41q0 203 160 449l55 -27q-78 -180 -78 -295q0 -272 330 -272q332 0 518 123l2 63h-227q-176 0 -262 86q-62 90 -62 185v14q6 156 97 303q105 168 249 168
q124 0 213 -170q85 -160 95 -379h118l33 -6v-195l-33 -6h-127l-2 -14q-5 -34 -46 -120q-44 -93 -68 -110q-216 -153 -541 -153q-424 0 -424 356zM710 1085q61 70 118 121q86 -67 121 -121q-45 -69 -121 -122q-65 53 -118 122z" />
    <glyph glyph-name="uni06A8.init" unicode="&#x6a8;" horiz-adv-x="818" 
d="M238 0h-237l-33 6v195l33 6h323q176 0 289 22q6 37 6 82q0 68 -12 142l-59 -101q-84 -35 -189 -35q-138 0 -198 76q-62 80 -62 173v16q2 134 91 271q102 157 237 157q136 0 228 -205q83 -186 83 -414q0 -70 -12 -123q-11 -50 -72 -136q-57 -79 -76 -85q-99 -47 -340 -47z
M591 524q-75 285 -211 285q-67 0 -127 -81q-55 -74 -76 -173q78 -59 199 -59q112 0 215 28zM269 1567q61 70 118 121q86 -67 121 -121q-45 -69 -121 -122q-65 53 -118 122zM500 1207q-45 34 -113 109q-49 -62 -114 -109q-72 55 -123 127q61 74 123 129q110 -111 114 -117
q88 88 113 117q90 -76 127 -129q-49 -72 -127 -127z" />
    <glyph glyph-name="uni06A8.medi" unicode="&#x6a8;" horiz-adv-x="897" 
d="M517 256q73 42 121 98q-9 122 -63 225q-60 113 -136 113q-60 0 -132 -71q-69 -69 -103 -158q108 -143 294 -217zM898 0h-96q-172 0 -347 90q-165 -90 -350 -90h-104l-33 6v195l33 6h270q-88 75 -121 143q-25 59 -25 119q0 26 5 53q18 111 122 236q118 141 240 141
q112 0 195 -143q82 -140 82 -320q0 -105 -135 -227l39 -2h225l33 -6v-195zM339 1457q61 70 118 121q86 -67 121 -121q-45 -69 -121 -122q-65 53 -118 122zM570 1097q-45 34 -113 109q-49 -62 -114 -109q-72 55 -123 127q61 74 123 129q110 -111 114 -117q88 88 113 117
q90 -76 127 -129q-49 -72 -127 -127z" />
    <glyph glyph-name="uni06A8.fina" unicode="&#x6a8;" horiz-adv-x="1307" 
d="M1075 217q-32 137 -94 232q-68 106 -144 106t-144 -98q-61 -87 -81 -197q70 -53 262 -53h203zM100 -41q0 203 160 449l55 -27q-78 -180 -78 -295q0 -272 330 -272q332 0 518 123l2 63h-227q-176 0 -262 86q-62 90 -62 185v14q6 156 97 303q105 168 249 168
q124 0 213 -170q85 -160 95 -379h118l33 -6v-195l-33 -6h-127l-2 -14q-5 -34 -46 -120q-44 -93 -68 -110q-216 -153 -541 -153q-424 0 -424 356zM710 1323q61 70 118 121q86 -67 121 -121q-45 -69 -121 -122q-65 53 -118 122zM941 963q-45 34 -113 109q-49 -62 -114 -109
q-72 55 -123 127q61 74 123 129q110 -111 114 -117q88 88 113 117q90 -76 127 -129q-49 -72 -127 -127z" />
    <glyph glyph-name="uni06AA.init" unicode="&#x6aa;" horiz-adv-x="1437" 
d="M1 0l-33 6v195l33 6h887q285 0 389 8q-40 117 -115 172q-124 90 -387 90q-612 0 -641 47v5q0 26 28 119q31 102 48 120q63 91 370 292q287 189 322 189l18 -18l-86 -225q-326 -120 -569 -340h543q300 0 443 -149q106 -111 106 -269q0 -28 -45 -117q-43 -87 -60 -100
q-34 -31 -418 -31h-833z" />
    <glyph glyph-name="uni06AA.medi" unicode="&#x6aa;" horiz-adv-x="1552" 
d="M834 0h-833l-33 6v195l33 6h887q285 0 389 8q-40 117 -115 172q-124 90 -387 90q-612 0 -641 47v5q0 26 28 119q31 102 48 120q63 91 370 292q287 189 322 189l18 -18l-86 -225q-326 -120 -569 -340h543q276 0 420 -128q109 -97 126 -247q15 -54 46 -68q35 -16 153 -16
l33 -6v-195l-33 -6q-170 0 -237 137q-47 -93 -64 -106q-34 -31 -418 -31z" />
    <glyph glyph-name="uni06AA.fina" unicode="&#x6aa;" horiz-adv-x="1941" 
d="M1224 0h-666q-233 0 -282 37l-242 186l12 23q269 -39 508 -39h723q286 0 387 8q-37 116 -113 172q-123 90 -387 90q-611 0 -641 47v5q0 26 28 119q32 102 48 120q64 91 370 292q288 189 322 189l19 -18l-86 -225q-321 -115 -569 -340h542q278 0 421 -128
q109 -96 126 -247q14 -54 45 -68q34 -16 152 -16l32 -6v-195l-32 -6q-172 0 -236 135q-45 -89 -63 -104q-35 -31 -418 -31z" />
    <glyph glyph-name="uni06AB.init" unicode="&#x6ab;" horiz-adv-x="938" 
d="M115 1214l707 394l6 -11l-10 -84l-703 -393l-6 10zM1 0l-33 6v195l33 6h309q309 0 395 24q-71 165 -432 390l-37 -35l-159 114q-3 3 -3 13q0 30 28 126q39 129 59 138l706 407l23 -14l-39 -205l-598 -307q277 -151 434 -327q131 -145 131 -240q0 -26 -43 -123
q-45 -100 -70 -119q-62 -49 -420 -49h-284z" />
    <glyph glyph-name="uni06AB.medi" unicode="&#x6ab;" horiz-adv-x="925" 
d="M71 1190l686 438l6 -10l-10 -84l-684 -438l-7 10zM77 0h-76l-33 6v195l33 6h123q186 0 248 16v10q0 101 -92 242l-197 285q-2 3 -2 11q0 27 28 106q36 103 56 110l612 408l23 -17l-39 -202l-514 -324q52 -78 237 -340q125 -178 208 -240q86 -65 204 -65h31l32 -6v-195
l-32 -6h-31q-146 0 -237 63q-60 41 -179 187q-110 -204 -147 -217q-66 -33 -256 -33z" />
    <glyph glyph-name="uni06AB.fina" unicode="&#x6ab;" horiz-adv-x="1772" 
d="M917 1190l686 438l6 -10l-10 -84l-684 -438l-6 10zM1773 0h-33q-146 0 -236 62q-60 41 -176 184q-107 -197 -145 -211q-80 -35 -559 -35q-524 0 -524 369q0 192 155 430l56 -33q-80 -182 -80 -291q0 -268 432 -268q374 0 553 14v12q0 103 -92 242l-197 285q-2 3 -2 10
q0 27 28 107q36 103 56 110l614 408l21 -17l-39 -202l-514 -324q52 -78 237 -340q125 -178 208 -240q86 -65 204 -65h33l33 -6v-195z" />
    <glyph glyph-name="uni06AC.init" unicode="&#x6ac;" horiz-adv-x="938" 
d="M1 0l-33 6v195l33 6h309q309 0 395 24q-71 165 -432 390l-37 -35l-159 114q-3 3 -3 13q0 30 28 126q39 129 59 138l706 407l23 -14l-39 -205l-598 -307q277 -151 434 -327q131 -145 131 -240q0 -26 -43 -123q-45 -100 -70 -119q-62 -49 -420 -49h-284zM235 1433
q61 70 118 121q86 -67 121 -121q-45 -69 -121 -122q-65 53 -118 122z" />
    <glyph glyph-name="uni06AC.medi" unicode="&#x6ac;" horiz-adv-x="925" 
d="M77 0h-76l-33 6v195l33 6h123q186 0 247 16v12q0 101 -92 240l-196 285q-2 3 -2 11q0 27 28 106q36 103 56 110l612 408l22 -17l-38 -202l-514 -324q51 -78 237 -340q125 -178 207 -240q87 -65 205 -65h30l33 -6v-195l-33 -6h-30q-147 0 -237 63q-60 41 -179 187
q-111 -204 -147 -217q-66 -33 -256 -33zM235 1433q61 70 118 121q86 -67 121 -121q-45 -69 -121 -122q-65 53 -118 122z" />
    <glyph glyph-name="uni06AC.fina" unicode="&#x6ac;" horiz-adv-x="1563" 
d="M520 616v15q263 12 330 26q-5 3 -140 37q-102 25 -102 82q0 81 81 150q75 64 183 94l10 -12v-136q-135 -28 -204 -69q111 -17 149 -27q92 -23 92 -102q0 -60 -55 -115q-28 -28 -199 -43zM1564 0q-241 0 -309 205l-88 -146q-131 -59 -541 -59q-526 0 -526 365
q0 204 160 442l59 -31q-82 -182 -82 -291q0 -278 428 -278q345 0 553 41l-26 1069l143 135h37v-999q0 -140 22 -181q37 -65 170 -65l33 -6v-195zM1138 1693q61 70 118 121q86 -67 121 -121q-45 -69 -121 -122q-65 53 -118 122z" />
    <glyph glyph-name="uni06AE.init" unicode="&#x6ae;" horiz-adv-x="938" 
d="M1 0l-33 6v195l33 6h309q309 0 395 24q-71 165 -432 390l-37 -35l-159 114q-3 3 -3 13q0 30 28 126q39 129 59 138l706 407l23 -14l-39 -205l-598 -307q277 -151 434 -327q131 -145 131 -240q0 -26 -43 -123q-45 -100 -70 -119q-62 -49 -420 -49h-284zM398 -309
q-57 -62 -113 -117q-90 76 -127 129q52 72 127 127q42 -30 113 -109q49 62 115 109q74 -55 123 -127q-62 -74 -123 -129zM517 -530q-62 -70 -119 -121q-84 67 -121 121q45 69 121 122q68 -53 119 -122z" />
    <glyph glyph-name="uni06AE.medi" unicode="&#x6ae;" horiz-adv-x="925" 
d="M77 0h-76l-33 6v195l33 6h123q186 0 247 16v12q0 101 -92 240l-196 285q-2 3 -2 11q0 27 28 106q36 103 56 110l612 408l22 -17l-38 -202l-514 -324q51 -78 237 -340q125 -178 207 -240q87 -65 205 -65h30l33 -6v-195l-33 -6h-30q-147 0 -237 63q-60 41 -179 187
q-111 -204 -147 -217q-66 -33 -256 -33zM398 -309q-57 -62 -113 -117q-90 76 -127 129q52 72 127 127q42 -30 113 -109q49 62 115 109q74 -55 123 -127q-62 -74 -123 -129zM517 -530q-62 -70 -119 -121q-84 67 -121 121q45 69 121 122q68 -53 119 -122z" />
    <glyph glyph-name="uni06AE.fina" unicode="&#x6ae;" horiz-adv-x="1563" 
d="M520 616v15q263 12 330 26q-5 3 -140 37q-102 25 -102 82q0 81 81 150q75 64 183 94l10 -12v-136q-135 -28 -204 -69q111 -17 149 -27q92 -23 92 -102q0 -60 -55 -115q-28 -28 -199 -43zM1564 0q-241 0 -309 205l-88 -146q-131 -59 -541 -59q-526 0 -526 365
q0 204 160 442l59 -31q-82 -182 -82 -291q0 -278 428 -278q345 0 553 41l-26 1069l143 135h37v-999q0 -140 22 -181q37 -65 170 -65l33 -6v-195zM738 -309q-57 -62 -113 -117q-90 76 -127 129q52 72 127 127q42 -30 113 -109q49 62 115 109q74 -55 123 -127
q-62 -74 -123 -129zM857 -530q-62 -70 -119 -121q-84 67 -121 121q45 69 121 122q68 -53 119 -122z" />
    <glyph glyph-name="uni06B0.init" unicode="&#x6b0;" horiz-adv-x="938" 
d="M115 1214l707 394l6 -11l-10 -84l-703 -393l-6 10zM724 959q0 86 -86 86l-28 -7q-58 -17 -58 -79q0 -34 26 -57q25 -23 60 -23q86 0 86 80zM484 976l-231 -118q277 -151 434 -327q131 -145 131 -240q0 -26 -43 -123q-45 -100 -70 -119q-62 -49 -420 -49h-284l-33 6v195
l33 6h309q309 0 395 24q-71 165 -432 390l-37 -35l-159 114q-3 3 -3 13q0 30 28 126q39 129 59 138l706 407l23 -14l-39 -205l-135 -69q17 -10 32 -25q45 -45 45 -109q0 -65 -45.5 -110t-109.5 -45t-109.5 45t-45.5 110q0 7 1 14z" />
    <glyph glyph-name="uni06B0.medi" unicode="&#x6b0;" horiz-adv-x="925" 
d="M71 1190l686 438l6 -10l-10 -84l-684 -438l-7 10zM664 959q0 86 -86 86l-28 -7q-58 -17 -58 -79q0 -34 26 -57q25 -23 60 -23q86 0 86 80zM423 963l-176 -111q52 -78 237 -340q125 -178 208 -240q86 -65 204 -65h31l32 -6v-195l-32 -6h-31q-146 0 -237 63
q-60 41 -179 187q-110 -204 -147 -217q-66 -33 -256 -33h-76l-33 6v195l33 6h123q186 0 248 16v10q0 101 -92 242l-197 285q-2 3 -2 11q0 27 28 106q36 103 56 110l612 408l23 -17l-39 -202l-117 -74q23 -11 44 -31q45 -45 45 -109q0 -65 -45.5 -110t-109.5 -45t-109.5 45
t-45.5 110v1z" />
    <glyph glyph-name="uni06B0.fina" unicode="&#x6b0;" horiz-adv-x="1772" 
d="M917 1190l686 438l6 -10l-10 -84l-684 -438l-6 10zM1504 959q0 86 -86 86l-28 -7q-58 -17 -58 -79q0 -34 26 -57q25 -23 60 -23q86 0 86 80zM1263 960l-172 -108q52 -78 237 -340q125 -178 208 -240q86 -65 204 -65h33l33 -6v-195l-33 -6h-33q-146 0 -236 62
q-60 41 -176 184q-107 -197 -145 -211q-80 -35 -559 -35q-524 0 -524 369q0 192 155 430l56 -33q-80 -182 -80 -291q0 -268 432 -268q374 0 553 14v12q0 103 -92 242l-197 285q-2 3 -2 10q0 27 28 107q36 103 56 110l614 408l21 -17l-39 -202l-119 -75q22 -11 42 -30
q45 -45 45 -109q0 -65 -45.5 -110t-109.5 -45t-109 45q-45 44 -46 108z" />
    <glyph glyph-name="uni06B2.init" unicode="&#x6b2;" horiz-adv-x="938" 
d="M115 1214l707 394l6 -11l-10 -84l-703 -393l-6 10zM1 0l-33 6v195l33 6h309q309 0 395 24q-71 165 -432 390l-37 -35l-159 114q-3 3 -3 13q0 30 28 126q39 129 59 138l706 407l23 -14l-39 -205l-598 -307q277 -151 434 -327q131 -145 131 -240q0 -26 -43 -123
q-45 -100 -70 -119q-62 -49 -420 -49h-284zM430 -309q-57 -62 -113 -117q-90 76 -127 129q52 72 127 127q42 -30 113 -109q49 62 115 109q74 -55 123 -127q-62 -74 -123 -129z" />
    <glyph glyph-name="uni06B2.medi" unicode="&#x6b2;" horiz-adv-x="925" 
d="M71 1190l686 438l6 -10l-10 -84l-684 -438l-7 10zM77 0h-76l-33 6v195l33 6h123q186 0 248 16v10q0 101 -92 242l-197 285q-2 3 -2 11q0 27 28 106q36 103 56 110l612 408l23 -17l-39 -202l-514 -324q52 -78 237 -340q125 -178 208 -240q86 -65 204 -65h31l32 -6v-195
l-32 -6h-31q-146 0 -237 63q-60 41 -179 187q-110 -204 -147 -217q-66 -33 -256 -33zM430 -309q-57 -62 -113 -117q-90 76 -127 129q52 72 127 127q42 -30 113 -109q49 62 115 109q74 -55 123 -127q-62 -74 -123 -129z" />
    <glyph glyph-name="uni06B2.fina" unicode="&#x6b2;" horiz-adv-x="1772" 
d="M917 1190l686 438l6 -10l-10 -84l-684 -438l-6 10zM1773 0h-33q-146 0 -236 62q-60 41 -176 184q-107 -197 -145 -211q-80 -35 -559 -35q-524 0 -524 369q0 192 155 430l56 -33q-80 -182 -80 -291q0 -268 432 -268q374 0 553 14v12q0 103 -92 242l-197 285q-2 3 -2 10
q0 27 28 107q36 103 56 110l614 408l21 -17l-39 -202l-514 -324q52 -78 237 -340q125 -178 208 -240q86 -65 204 -65h33l33 -6v-195zM758 -309q-57 -62 -113 -117q-90 76 -127 129q52 72 127 127q42 -30 113 -109q49 62 115 109q74 -55 123 -127q-62 -74 -123 -129z" />
    <glyph glyph-name="uni06B4.init" unicode="&#x6b4;" horiz-adv-x="938" 
d="M115 1214l707 394l6 -11l-10 -84l-703 -393l-6 10zM1 0l-33 6v195l33 6h309q309 0 395 24q-71 165 -432 390l-37 -35l-159 114q-3 3 -3 13q0 30 28 126q39 129 59 138l706 407l23 -14l-39 -205l-598 -307q277 -151 434 -327q131 -145 131 -240q0 -26 -43 -123
q-45 -100 -70 -119q-62 -49 -420 -49h-284zM221 1833q61 70 118 121q86 -67 121 -121q-45 -69 -121 -122q-65 53 -118 122zM452 1473q-45 34 -113 109q-49 -62 -114 -109q-72 55 -123 127q61 74 123 129q110 -111 114 -117q88 88 113 117q90 -76 127 -129q-49 -72 -127 -127
z" />
    <glyph glyph-name="uni06B4.medi" unicode="&#x6b4;" horiz-adv-x="925" 
d="M71 1190l686 438l6 -10l-10 -84l-684 -438l-7 10zM77 0h-76l-33 6v195l33 6h123q186 0 248 16v10q0 101 -92 242l-197 285q-2 3 -2 11q0 27 28 106q36 103 56 110l612 408l23 -17l-39 -202l-514 -324q52 -78 237 -340q125 -178 208 -240q86 -65 204 -65h31l32 -6v-195
l-32 -6h-31q-146 0 -237 63q-60 41 -179 187q-110 -204 -147 -217q-66 -33 -256 -33zM151 1833q61 70 118 121q86 -67 121 -121q-45 -69 -121 -122q-65 53 -118 122zM382 1473q-45 34 -113 109q-49 -62 -114 -109q-72 55 -123 127q61 74 123 129q110 -111 114 -117
q88 88 113 117q90 -76 127 -129q-49 -72 -127 -127z" />
    <glyph glyph-name="uni06B4.fina" unicode="&#x6b4;" horiz-adv-x="1772" 
d="M917 1190l686 438l6 -10l-10 -84l-684 -438l-6 10zM1773 0h-33q-146 0 -236 62q-60 41 -176 184q-107 -197 -145 -211q-80 -35 -559 -35q-524 0 -524 369q0 192 155 430l56 -33q-80 -182 -80 -291q0 -268 432 -268q374 0 553 14v12q0 103 -92 242l-197 285q-2 3 -2 10
q0 27 28 107q36 103 56 110l614 408l21 -17l-39 -202l-514 -324q52 -78 237 -340q125 -178 208 -240q86 -65 204 -65h33l33 -6v-195zM1001 1833q61 70 118 121q86 -67 121 -121q-45 -69 -121 -122q-65 53 -118 122zM1232 1473q-45 34 -113 109q-49 -62 -114 -109
q-72 55 -123 127q61 74 123 129q110 -111 114 -117q88 88 113 117q90 -76 127 -129q-49 -72 -127 -127z" />
    <glyph glyph-name="uni06B5.init" unicode="&#x6b5;" horiz-adv-x="574" 
d="M-32 6v195l33 6q185 0 248 14l-23 912l-53 137l186 182l41 -25v-96l94 -172l-94 -100v-727q0 -52 -91 -173q-84 -111 -128 -139q-31 -20 -180 -20zM222 1569l-8 8q-45 128 -181 234l66 131l10 4q106 -96 170 -268q45 134 154 264l14 -2l47 -105q-129 -140 -170 -266h-102
z" />
    <glyph glyph-name="uni06B5.medi" unicode="&#x6b5;" horiz-adv-x="612" 
d="M613 0q-222 0 -297 197q-94 -154 -127 -174q-40 -23 -188 -23l-33 6v195l33 6q175 0 250 14l-29 1096l143 135h37v-1014q0 -130 33 -174q42 -56 178 -57l33 -6v-195zM266 1569l-8 8q-45 128 -181 234l66 131l10 4q106 -96 170 -268q45 134 154 264l14 -2l47 -105
q-129 -140 -170 -266h-102z" />
    <glyph glyph-name="uni06B5.fina" unicode="&#x6b5;" horiz-adv-x="1282" 
d="M100 -39q0 203 160 442l59 -30q-82 -183 -82 -291q0 -266 330 -266q184 0 364 84l-34 1417l145 135h35v-1022q0 -124 31 -166q41 -56 174 -57l32 -6v-195l-32 -6q-132 0 -205 76v-25q-6 -70 -82 -208q-69 -124 -100 -150q-112 -88 -371 -88q-424 0 -424 356zM928 1569
l-8 8q-45 128 -181 234l66 131l10 4q106 -96 170 -268q45 134 154 264l14 -2l47 -105q-129 -140 -170 -266h-102z" />
    <glyph glyph-name="uni06B6.init" unicode="&#x6b6;" horiz-adv-x="574" 
d="M-32 6v195l33 6q185 0 248 14l-23 912l-53 137l186 182l41 -25v-96l94 -172l-94 -100v-727q0 -52 -91 -173q-84 -111 -128 -139q-31 -20 -180 -20zM205 1697q61 70 118 121q86 -67 121 -121q-45 -69 -121 -122q-65 53 -118 122z" />
    <glyph glyph-name="uni06B6.medi" unicode="&#x6b6;" horiz-adv-x="612" 
d="M613 0q-222 0 -297 197q-94 -154 -127 -174q-40 -23 -188 -23l-33 6v195l33 6q175 0 250 14l-29 1096l143 135h37v-1014q0 -130 33 -174q42 -56 178 -57l33 -6v-195zM188 1697q61 70 118 121q86 -67 121 -121q-45 -69 -121 -122q-65 53 -118 122z" />
    <glyph glyph-name="uni06B6.fina" unicode="&#x6b6;" horiz-adv-x="1282" 
d="M100 -39q0 203 160 442l59 -30q-82 -183 -82 -291q0 -266 330 -266q184 0 364 84l-34 1417l145 135h35v-1022q0 -124 31 -166q41 -56 174 -57l32 -6v-195l-32 -6q-132 0 -205 76v-25q-6 -70 -82 -208q-69 -124 -100 -150q-112 -88 -371 -88q-424 0 -424 356zM881 1697
q61 70 118 121q86 -67 121 -121q-45 -69 -121 -122q-65 53 -118 122z" />
    <glyph glyph-name="uni06B7.init" unicode="&#x6b7;" horiz-adv-x="574" 
d="M-32 6v195l33 6q185 0 248 14l-23 912l-53 137l186 182l41 -25v-96l94 -172l-94 -100v-727q0 -52 -91 -173q-84 -111 -128 -139q-31 -20 -180 -20zM161 1923q61 70 118 121q86 -67 121 -121q-45 -69 -121 -122q-65 53 -118 122zM392 1563q-45 34 -113 109
q-49 -62 -114 -109q-72 55 -123 127q61 74 123 129q110 -111 114 -117q88 88 113 117q90 -76 127 -129q-49 -72 -127 -127z" />
    <glyph glyph-name="uni06B7.medi" unicode="&#x6b7;" horiz-adv-x="612" 
d="M613 0q-222 0 -297 197q-94 -154 -127 -174q-40 -23 -188 -23l-33 6v195l33 6q175 0 250 14l-29 1096l143 135h37v-1014q0 -130 33 -174q42 -56 178 -57l33 -6v-195zM171 1953q61 70 118 121q86 -67 121 -121q-45 -69 -121 -122q-65 53 -118 122zM402 1593
q-45 34 -113 109q-49 -62 -114 -109q-72 55 -123 127q61 74 123 129q110 -111 114 -117q88 88 113 117q90 -76 127 -129q-49 -72 -127 -127z" />
    <glyph glyph-name="uni06B7.fina" unicode="&#x6b7;" horiz-adv-x="1282" 
d="M100 -39q0 203 160 442l59 -30q-82 -183 -82 -291q0 -266 330 -266q184 0 364 84l-34 1417l145 135h35v-1022q0 -124 31 -166q41 -56 174 -57l32 -6v-195l-32 -6q-132 0 -205 76v-25q-6 -70 -82 -208q-69 -124 -100 -150q-112 -88 -371 -88q-424 0 -424 356zM841 1923
q61 70 118 121q86 -67 121 -121q-45 -69 -121 -122q-65 53 -118 122zM1072 1563q-45 34 -113 109q-49 -62 -114 -109q-72 55 -123 127q61 74 123 129q110 -111 114 -117q88 88 113 117q90 -76 127 -129q-49 -72 -127 -127z" />
    <glyph glyph-name="uni06B8.init" unicode="&#x6b8;" horiz-adv-x="574" 
d="M-32 6v195l33 6q185 0 248 14l-23 912l-53 137l186 182l41 -25v-96l94 -172l-94 -100v-727q0 -52 -91 -173q-84 -111 -128 -139q-31 -20 -180 -20zM258 -309q-57 -62 -113 -117q-90 76 -127 129q52 72 127 127q42 -30 113 -109q49 62 115 109q74 -55 123 -127
q-62 -74 -123 -129zM377 -530q-62 -70 -119 -121q-84 67 -121 121q45 69 121 122q68 -53 119 -122z" />
    <glyph glyph-name="uni06B8.medi" unicode="&#x6b8;" horiz-adv-x="612" 
d="M613 0q-222 0 -297 197q-94 -154 -127 -174q-40 -23 -188 -23l-33 6v195l33 6q175 0 250 14l-29 1096l143 135h37v-1014q0 -130 33 -174q42 -56 178 -57l33 -6v-195zM258 -309q-57 -62 -113 -117q-90 76 -127 129q52 72 127 127q42 -30 113 -109q49 62 115 109
q74 -55 123 -127q-62 -74 -123 -129zM377 -530q-62 -70 -119 -121q-84 67 -121 121q45 69 121 122q68 -53 119 -122z" />
    <glyph glyph-name="uni06B8.fina" unicode="&#x6b8;" horiz-adv-x="1282" 
d="M100 -39q0 203 160 442l59 -30q-82 -183 -82 -291q0 -266 330 -266q184 0 364 84l-34 1417l145 135h35v-1022q0 -124 31 -166q41 -56 174 -57l32 -6v-195l-32 -6q-132 0 -205 76v-25q-6 -70 -82 -208q-69 -124 -100 -150q-112 -88 -371 -88q-424 0 -424 356zM594 -679
q-57 -62 -113 -117q-90 76 -127 129q52 72 127 127q42 -30 113 -109q49 62 115 109q74 -55 123 -127q-62 -74 -123 -129zM713 -900q-62 -70 -119 -121q-84 67 -121 121q45 69 121 122q68 -53 119 -122z" />
    <glyph glyph-name="uni06B9.init" unicode="&#x6b9;" horiz-adv-x="527" 
d="M151 1165q61 76 125 131q90 -75 129 -131q-49 -73 -129 -129q-76 56 -125 129zM-32 6v195l33 6q224 0 286 14q-24 195 -98 465l141 137h35l82 -227l-2 -23l-47 -49q16 -137 16 -207q0 -25 -2 -41q-3 -38 -64 -133t-97 -118q-59 -25 -250 -25zM391 -292q-62 -70 -119 -121
q-84 67 -121 121q45 69 121 122q68 -53 119 -122z" />
    <glyph glyph-name="uni06B9.medi" unicode="&#x6b9;" horiz-adv-x="610" 
d="M168 999q63 76 127 131q90 -75 129 -131q-51 -73 -129 -129q-76 56 -127 129zM611 0h-14q-218 0 -320 135q-80 -101 -104 -112q-48 -23 -172 -23l-33 6v195l33 6q132 0 203 18q20 97 73 332l127 84l29 -8q-21 -302 -47 -381q65 -45 225 -45l33 -6v-195zM408 -292
q-62 -70 -119 -121q-84 67 -121 121q45 69 121 122q68 -53 119 -122z" />
    <glyph glyph-name="uni06B9.fina" unicode="&#x6b9;" horiz-adv-x="1293" 
d="M481 764q63 78 127 131q90 -76 129 -131q-51 -72 -129 -127q-76 55 -127 127zM100 -39q0 203 160 442l53 -26q-76 -180 -76 -295q0 -266 330 -266q217 0 389 90l-74 569l148 115h37l8 -154q9 -139 36 -175q40 -54 183 -54l33 -6v-195l-33 -6q-144 0 -209 92l2 -78
q-54 -207 -129 -276q-133 -133 -434 -133q-424 0 -424 356zM454 -705q64 76 127 131q90 -76 129 -131q-51 -74 -129 -129q-75 55 -127 129z" />
    <glyph glyph-name="uni06BC.init" unicode="&#x6bc;" horiz-adv-x="545" 
d="M90 -182q-46 45 -46 108q0 47 20 76q-22 -2 -63 -2l-33 6v195l33 6q224 0 286 14q-24 195 -98 465l141 137h35l82 -227l-2 -23l-47 -49q16 -137 16 -207q0 -25 -2 -41q-4 -79 -129 -219q70 -43 70 -131q0 -63 -44 -108t-110 -45q-63 0 -109 45zM139 -131q25 -23 60 -23
q86 0 86 80q0 86 -86 86t-86 -86q0 -33 26 -57zM181 1165q61 76 125 131q90 -75 129 -131q-49 -73 -129 -129q-76 56 -125 129z" />
    <glyph glyph-name="uni06BC.medi" unicode="&#x6bc;" horiz-adv-x="690" 
d="M271 -80q0 86 -86 86l-28 -7q-58 -17 -58 -79q0 -34 26 -57q25 -23 60 -23q86 0 86 80zM218 999q63 76 127 131q90 -75 129 -131q-51 -73 -129 -129q-76 56 -127 129zM280 45q7 -6 15 -13q45 -45 45 -109q0 -65 -45.5 -110t-109.5 -45t-109.5 45t-45.5 110q0 43 20 77
h-49l-33 6v195l33 6q212 0 283 18q20 97 73 332l127 84l29 -8q-21 -302 -47 -381q65 -45 225 -45l33 -6v-195l-33 -6h-14q-218 0 -320 135q-49 -62 -77 -90z" />
    <glyph glyph-name="uni06BC.fina" unicode="&#x6bc;" horiz-adv-x="1293" 
d="M483 772q61 76 127 131q88 -76 127 -131q-49 -74 -127 -129q-78 55 -127 129zM491 -588q-47 46 -47 109q0 47 27 84q-371 26 -371 356q0 203 160 442l53 -26q-76 -180 -76 -295q0 -266 330 -266q217 0 389 90l-74 569l148 115h37l8 -154q9 -139 36 -175q40 -54 183 -54
l33 -6v-195l-33 -6q-144 0 -209 92l2 -78q-54 -207 -129 -276q-76 -73 -244 -111q39 -42 39 -106t-42 -109q-44 -45 -109 -45q-64 0 -111 45zM686 -479q0 84 -84 84q-88 0 -88 -84q0 -80 88 -80q84 0 84 80z" />
    <glyph glyph-name="uni06BD.init" unicode="&#x6bd;" horiz-adv-x="535" 
d="M-32 6v195l33 6q224 0 286 14q-24 195 -98 465l141 137h35l82 -227l-2 -23l-47 -49q16 -137 16 -207q0 -25 -2 -41q-3 -38 -64 -133t-97 -118q-59 -25 -250 -25zM157 1384q61 70 119 121q84 -67 121 -121q-46 -69 -121 -122q-68 53 -119 122zM388 1024q-41 30 -112 109
q-49 -62 -115 -109q-74 55 -123 127q62 74 123 129l115 -117q57 62 112 117q90 -76 127 -129q-51 -72 -127 -127z" />
    <glyph glyph-name="uni06BD.medi" unicode="&#x6bd;" horiz-adv-x="610" 
d="M204 1233q61 70 119 121q86 -68 120 -121q-45 -70 -120 -123q-66 53 -119 123zM435 872q-57 42 -112 109q-50 -63 -115 -109q-74 56 -123 127q61 74 123 129q110 -110 115 -116q84 84 112 116q90 -75 127 -129q-51 -71 -127 -127zM611 0h-14q-218 0 -320 135
q-80 -101 -104 -112q-48 -23 -172 -23l-33 6v195l33 6q132 0 203 18q20 97 73 332l127 84l29 -8q-21 -302 -47 -381q65 -45 225 -45l33 -6v-195z" />
    <glyph glyph-name="uni06BD.fina" unicode="&#x6bd;" horiz-adv-x="1293" 
d="M100 -39q0 203 160 442l53 -26q-76 -180 -76 -295q0 -266 330 -266q217 0 389 90l-74 569l148 115h37l8 -154q9 -139 36 -175q40 -54 183 -54l33 -6v-195l-33 -6q-144 0 -209 92l2 -78q-54 -207 -129 -276q-133 -133 -434 -133q-424 0 -424 356zM482 998q61 70 119 121
q84 -67 121 -121q-46 -69 -121 -122q-68 53 -119 122zM713 638q-41 30 -112 109q-49 -62 -115 -109q-74 55 -123 127q62 74 123 129l115 -117q57 62 112 117q90 -76 127 -129q-51 -72 -127 -127z" />
    <glyph glyph-name="uni06BF.init" unicode="&#x6bf;" horiz-adv-x="1308" 
d="M161 0h-160l-33 6v195l33 6h237q224 0 428 90q116 53 144 61q-111 36 -246 111l-250 141l-186 -127l-43 47q182 258 280 258q23 0 301 -153q226 -129 385 -129h168l9 -27l-66 -155h-162q-31 -5 -375 -201q-205 -123 -464 -123zM799 -109l-112 -116q-90 75 -127 129
q51 71 127 127q41 -31 112 -109q50 62 115 109q74 -56 123 -127q-61 -74 -123 -129q-110 110 -115 116zM918 -330q-61 -69 -119 -121q-86 68 -120 121q45 70 120 123q66 -53 119 -123zM500 1067q62 76 125 131q91 -76 129 -131q-49 -74 -129 -129q-75 55 -125 129z" />
    <glyph glyph-name="uni06BF.medi" unicode="&#x6bf;" horiz-adv-x="1327" 
d="M161 0h-160l-33 6v195l33 6h237q230 0 430 92q107 49 142 59q-115 39 -246 111l-250 141l-186 -127l-43 47q182 258 280 258q23 0 301 -153q226 -129 385 -129h164l8 -27l-67 -155l-101 -7q5 -110 130 -110h143l33 -6v-195l-33 -6h-152q-203 0 -203 217q0 44 9 98
q-37 -8 -357 -192q-205 -123 -464 -123zM709 -139q-109 -117 -110 -117q-92 76 -127 129q49 72 127 127q57 -44 110 -109q50 62 115 109q74 -55 125 -127q-63 -74 -125 -129zM828 -360q-61 -70 -119 -121q-84 67 -120 121q47 69 120 122q68 -53 119 -122zM500 1067
q62 76 125 131q91 -76 129 -131q-49 -74 -129 -129q-75 55 -125 129z" />
    <glyph glyph-name="uni06BF.fina" unicode="&#x6bf;" horiz-adv-x="1326" 
d="M1276 -422q-319 -205 -451 -205q-257 0 -439 102q-153 87 -194 206q-44 108 -44 218q0 13 1 27q46 310 418 518q53 27 188 39l2 11q-110 10 -261 41q-147 31 -193 34l-160 -141l-43 37q158 295 231 295q42 0 276 -47q233 -47 392 -47h213l8 -25l-65 -162l-101 2
q-2 -36 -2 -66q0 -91 22 -135q38 -73 159 -73h94l33 -6v-195l-33 -6h-101q-187 0 -243 141q-22 55 -22 128q0 85 30 194q-283 -88 -549 -307q-169 -142 -203 -306q141 -251 670 -251q117 0 354 22zM723 33l-58 -61q-40 -42 -47 -50q-86 72 -121 123q47 68 121 121
q53 -41 105 -105q47 60 108 105q70 -53 117 -121q-57 -70 -117 -123zM835 -176q-59 -66 -112 -115q-80 66 -115 115q45 65 115 117q63 -52 112 -117zM577 1049q62 77 125 131q90 -76 129 -131q-49 -72 -129 -127q-76 55 -125 127z" />
    <glyph glyph-name="uni06C2.fina" unicode="&#x6c2;" horiz-adv-x="961" 
d="M628 846q-118 -60 -245 -60q-27 0 -144 97l6 32q97 0 119 5v2q-39 22 -39 90q0 78 50 141q54 70 133 70q66 0 98 -91q16 -46 18 -92l-33 -8q-32 49 -83 49q-64 0 -123 -49q27 -86 125 -86q75 0 161 33l11 -14zM962 0q-160 0 -234 116q-54 85 -83 287q-133 -4 -310 -84
q-164 -74 -258 -161l-18 22l104 230q240 176 416 176q141 0 164 -137q23 -126 46 -164q48 -78 173 -78l33 -6v-195z" />
    <glyph glyph-name="uni06C3.fina" unicode="&#x6c3;" horiz-adv-x="961" 
d="M579 748q-53 38 -114 112q-50 -65 -117 -112q-76 55 -127 131q63 75 127 131q92 -78 119 -117q52 62 112 117q92 -78 131 -131q-51 -76 -131 -131zM962 0q-160 0 -234 116q-54 85 -83 287q-133 -4 -310 -84q-164 -74 -258 -161l-18 22l104 230q240 176 416 176
q141 0 164 -137q23 -126 46 -164q48 -78 173 -78l33 -6v-195z" />
    <glyph glyph-name="uni06C4.fina" unicode="&#x6c4;" horiz-adv-x="920" 
d="M690 213q-26 124 -91 226q-74 116 -151 116t-145 -97q-60 -86 -80 -198q80 -53 266 -53h201v6zM537 -102q0 80 -79 80l-26 -7q-53 -16 -53 -73q0 -31 24 -52q23 -22 55 -22q79 0 79 74zM600 -116q63 45 106 116h-106q-10 36 -38 65q-45 44 -109 44q-63 0 -108 -44
q-20 -21 -32 -45q-72 21 -104 64q-64 103 -64 201q6 156 98 303q106 168 250 168q123 0 215 -175q87 -164 95 -374h118l33 -6v-195l-33 -6h-137q-29 -154 -122 -268q-106 -127 -242 -127q-37 0 -172 73q-126 69 -156 97l25 57q118 -29 192 -29q22 0 43 1q-37 40 -37 97
q0 59 42 100.5t101 41.5t101 -41.5t42 -100.5q0 -9 -1 -17z" />
    <glyph glyph-name="uni06CA.fina" unicode="&#x6ca;" horiz-adv-x="920" 
d="M579 973q-58 44 -114 112q-51 -63 -117 -112q-78 57 -127 131q61 76 127 131q92 -76 117 -115q56 67 114 115q93 -76 129 -131q-49 -74 -129 -131zM690 213q-26 124 -91 226q-74 116 -151 116t-145 -97q-60 -86 -80 -198q80 -53 266 -53h201v6zM248 -322q-126 69 -156 97
l25 57q118 -29 192 -29q279 0 397 197h-217q-217 0 -280 84q-64 103 -64 201q6 156 98 303q106 168 250 168q123 0 215 -175q87 -164 95 -374h118l33 -6v-195l-33 -6h-137q-29 -154 -122 -268q-106 -127 -242 -127q-37 0 -172 73z" />
    <glyph glyph-name="uni06CD.fina" unicode="&#x6cd;" horiz-adv-x="1404" 
d="M338 -356q-92 95 -92 241q0 113 61 262l-248 -63l-10 10l55 166l328 88l31 -45q-82 -168 -82 -274q0 -281 330 -281q325 0 544 121q-70 131 -278 131h-35l-4 10l59 191l13 6h395l33 -6v-195l-33 -6h-76q27 -38 27 -68q0 -45 -35 -137q-34 -92 -58 -110
q-207 -156 -589 -156q-223 0 -336 115z" />
    <glyph glyph-name="uni06CE.init" unicode="&#x6ce;" horiz-adv-x="552" 
d="M241 1008l-9 6q-45 131 -180 235l66 129l12 4q101 -91 168 -266q44 131 154 262l14 -2l49 -104q-128 -135 -170 -264h-104zM-32 6v195l33 6q225 0 287 14q-25 195 -99 465l142 137h35l81 -227l-2 -23l-47 -49q17 -142 17 -211q0 -22 -2 -37q-3 -38 -64 -133t-98 -118
q-59 -25 -250 -25zM335 -393q-37 27 -109 106q-47 -61 -110 -106q-72 53 -121 125q59 71 121 125q88 -74 112 -111q49 58 107 111q88 -74 125 -125q-49 -72 -125 -125z" />
    <glyph glyph-name="uni06CE.medi" unicode="&#x6ce;" horiz-adv-x="610" 
d="M281 831l-8 7q-45 128 -182 235l65 129l13 4q106 -96 170 -268q39 128 153 264l13 -2l49 -104q-128 -135 -170 -265h-103zM611 0h-14q-218 0 -320 135q-80 -101 -104 -112q-48 -23 -172 -23l-33 6v195l33 6q132 0 203 18q20 97 73 332l127 84l29 -8q-21 -302 -47 -381
q65 -45 225 -45l33 -6v-195zM408 -397q-50 38 -110 110q-49 -63 -113 -110q-76 55 -125 127q62 73 125 127q88 -74 113 -111q73 80 110 111q90 -74 127 -127q-49 -72 -127 -127z" />
    <glyph glyph-name="uni06CE.fina" unicode="&#x6ce;" horiz-adv-x="1260" 
d="M561 465l-8 8q-45 128 -181 234l66 129l12 4q104 -94 168 -267q44 131 154 263l14 -2l49 -105q-128 -135 -170 -264h-104zM194 -356q-94 95 -94 241q0 205 160 451l59 -33q-82 -168 -82 -274q0 -281 330 -281q321 0 545 121q-71 131 -279 131h-35l-6 10l62 191l12 6h395
l33 -6v-195l-33 -6h-76q25 -35 25 -68q0 -45 -34 -137q-33 -92 -56 -110q-216 -156 -590 -156q-223 0 -336 115z" />
    <glyph glyph-name="uni06CF.fina" unicode="&#x6cf;" horiz-adv-x="920" 
d="M690 213q-26 124 -91 226q-74 116 -151 116t-145 -97q-60 -86 -80 -198q80 -53 266 -53h201v6zM248 -322q-126 69 -156 97l25 57q118 -29 192 -29q279 0 397 197h-217q-217 0 -280 84q-64 103 -64 201q6 156 98 303q106 168 250 168q123 0 215 -175q87 -164 95 -374h118
l33 -6v-195l-33 -6h-137q-29 -154 -122 -268q-106 -127 -242 -127q-37 0 -172 73zM338 1104q61 76 125 131q90 -75 129 -131q-49 -73 -129 -129q-76 56 -125 129z" />
    <glyph glyph-name="uni06D1.init" unicode="&#x6d1;" horiz-adv-x="529" 
d="M-32 6v195l33 6q224 0 286 14q-24 195 -98 465l141 137h37l82 -227l-4 -23l-47 -49q18 -124 18 -201q0 -26 -2 -47q-4 -38 -65 -133q-62 -96 -98 -118q-59 -25 -250 -25zM228 -309q-57 -62 -113 -117q-90 76 -127 129q52 72 127 127q42 -30 113 -109q49 62 115 109
q74 -55 123 -127q-62 -74 -123 -129zM347 -530q-62 -70 -119 -121q-84 67 -121 121q45 69 121 122q68 -53 119 -122z" />
    <glyph glyph-name="uni06D1.medi" unicode="&#x6d1;" horiz-adv-x="610" 
d="M611 0h-14q-218 0 -320 135q-80 -101 -104 -112q-48 -23 -172 -23l-33 6v195l33 6q132 0 203 18q20 97 73 332l127 84l29 -8q-21 -302 -47 -381q65 -45 225 -45l33 -6v-195zM294 -309l-113 -117q-90 76 -127 129q51 72 127 127q45 -34 113 -109q49 62 114 109
q72 -55 123 -127q-61 -74 -123 -129q-110 111 -114 117zM412 -530q-61 -70 -118 -121q-86 67 -121 121q45 69 121 122q65 -53 118 -122z" />
    <glyph glyph-name="uni06D1.fina" unicode="&#x6d1;" horiz-adv-x="1260" 
d="M194 -356q-94 95 -94 241q0 205 160 451l59 -33q-82 -168 -82 -274q0 -281 330 -281q321 0 545 121q-71 131 -279 131h-35l-6 10l62 191l12 6h395l33 -6v-195l-33 -6h-76q25 -35 25 -68q0 -45 -34 -137q-33 -92 -56 -110q-216 -156 -590 -156q-223 0 -336 115zM631 -756
q-57 -62 -113 -117q-90 76 -127 129q52 72 127 127q42 -30 113 -109q49 62 115 109q74 -55 123 -127q-62 -74 -123 -129zM750 -977q-62 -70 -119 -121q-84 67 -121 121q45 69 121 122q68 -53 119 -122z" />
    <glyph glyph-name="uni06D5.fina" unicode="&#x6d5;" horiz-adv-x="955" 
d="M956 0h-86q-208 0 -244 252l-86 -135q-69 -19 -141 -19q-226 0 -293 133q-6 14 -6 42q0 25 5 63q10 79 28 102q107 158 442 340l-6 86l149 109h37v-629q0 -97 19 -117q18 -20 106 -20h76l33 -6v-195zM610 313l-25 308q-266 -121 -379 -244q82 -78 254 -78q67 0 150 14z
" />
    <glyph glyph-name="uni06EE.fina" unicode="&#x6ee;" horiz-adv-x="1018" 
d="M993 0q-159 0 -244 158l-96 -127q-77 -31 -293 -31q-260 0 -260 201q0 107 68 254l61 -19q-20 -69 -20 -117q0 -56 30 -79q44 -33 174 -33q144 0 308 10l-242 596l121 154h37l157 -500q67 -192 90 -221q31 -39 136 -39l32 -6v-195l-32 -6h-27zM645 1530q41 -126 170 -266
l-47 -105l-14 -2q-109 130 -154 264q-64 -172 -170 -268l-10 4l-66 131q136 106 181 234l8 8h102z" />
    <glyph glyph-name="uni06EF.fina" unicode="&#x6ef;" horiz-adv-x="882" 
d="M581 166q-11 26 -136 307l131 158h29l47 -195q39 -149 74 -186q40 -43 158 -43l32 -6v-195l-32 -6h-25q-94 0 -190 84q-12 -139 -105 -294q-110 -185 -244 -185q-35 0 -166 72q-119 66 -151 94l25 57q94 -25 159 -25q271 0 394 363zM587 1221q41 -126 170 -266l-47 -105
l-14 -2q-109 130 -154 264q-64 -172 -170 -268l-10 4l-66 131q136 106 181 234l8 8h102z" />
    <glyph glyph-name="uni06FA.init" unicode="&#x6fa;" horiz-adv-x="1402" 
d="M673 1169q61 70 118 121q86 -67 121 -121q-45 -69 -121 -122q-65 53 -118 122zM904 809q-45 34 -113 109q-49 -62 -114 -109q-72 55 -123 127q61 74 123 129q110 -111 114 -117q88 88 113 117q90 -76 127 -129q-49 -72 -127 -127zM1246 76q-78 -101 -115 -101
q-184 0 -391 162q-75 -137 -260 -137q-168 0 -248 117q-88 -117 -231 -117l-33 6v195l33 6q102 0 174 14l67 203l113 76l27 -15q-19 -146 -37 -249q72 -29 176 -29q65 0 135 12l84 309l115 76l26 -14q-6 -115 -36 -320q144 -84 331 -108l-57 475l145 119h37q21 -377 21 -539
q0 -42 -76 -141zM907 -292q-62 -70 -119 -121q-84 67 -121 121q45 69 121 122q68 -53 119 -122z" />
    <glyph glyph-name="uni06FA.medi" unicode="&#x6fa;" horiz-adv-x="1501" 
d="M668 1169q64 70 119 121q86 -67 121 -121q-45 -69 -121 -122q-65 53 -119 122zM900 809q-45 34 -113 109q-49 -62 -114 -109q-72 55 -123 127q61 74 123 129l116 -117q112 120 113 120l-2 -3q90 -76 127 -129q-49 -72 -127 -127zM1443 0q-150 0 -215 135
q-73 -135 -248 -135q-172 0 -252 117q-70 -117 -248 -117q-168 0 -248 117q-88 -117 -231 -117l-33 6v195l33 6q102 0 174 14l67 203l113 76l27 -15q-19 -146 -37 -249q72 -29 176 -29q65 0 135 12l84 309l115 76l26 -14q-15 -196 -43 -350q70 -33 183 -33q84 0 157 18
q-16 113 -36 336l149 113h37v-367q0 -63 14 -78q19 -22 96 -22h64l33 -6v-195l-33 -6h-59zM907 -292q-62 -70 -119 -121q-84 67 -121 121q45 69 121 122q68 -53 119 -122z" />
    <glyph glyph-name="uni06FA.fina" unicode="&#x6fa;" horiz-adv-x="2198" 
d="M1394 1169q62 70 119 121q84 -67 121 -121q-47 -69 -121 -122q-67 53 -119 122zM1624 809q-58 44 -111 109q-49 -62 -115 -109q-73 55 -124 127q61 74 124 129l115 -117q112 120 113 120l-2 -3q90 -76 127 -129q-49 -72 -127 -127zM184 -281q-84 91 -84 242
q0 203 160 451l55 -27q-78 -188 -78 -303q0 -266 324 -266q244 0 391 98q-35 225 -80 551l158 127h37l12 -367q52 -18 139 -18q66 0 135 12l84 309l115 76l27 -14q-16 -196 -43 -350q69 -33 182 -33q84 0 158 18q-17 113 -35 336l147 113h37v-367q0 -63 14 -78
q19 -22 97 -22h63l33 -6v-195l-33 -6h-59q-149 0 -215 135q-73 -135 -250 -135q-170 0 -250 117q-69 -117 -248 -117q-61 0 -100 23l-4 -37q-19 -116 -113 -238q-140 -143 -442 -143q-227 0 -334 114zM1627 -292q-62 -70 -119 -121q-84 67 -121 121q45 69 121 122
q68 -53 119 -122z" />
    <glyph glyph-name="uni06FB.init" unicode="&#x6fb;" horiz-adv-x="1559" 
d="M894 1137q63 75 127 129q90 -76 129 -129q-52 -74 -129 -129q-76 55 -127 129zM834 209q369 6 539 102q-49 128 -134 211q-93 90 -192 90q-226 0 -493 -395q92 -10 194 -10zM720 0q-337 0 -471 139q-97 -139 -248 -139l-33 6v195l33 6q102 0 174 14q29 94 67 207l113 76
l27 -12q-15 -121 -29 -211q43 -33 109 -48q303 594 643 594q144 0 265 -163q109 -148 109 -275q0 -137 -127 -264q-124 -125 -593 -125h-39zM1134 -292q-62 -70 -119 -121q-84 67 -121 121q45 69 121 122q68 -53 119 -122z" />
    <glyph glyph-name="uni06FB.medi" unicode="&#x6fb;" horiz-adv-x="1605" 
d="M900 1137q63 75 127 129q90 -76 129 -129q-51 -74 -129 -129q-76 55 -127 129zM834 209q369 6 539 102q-49 128 -134 211q-93 90 -192 90q-226 0 -493 -395q92 -10 194 -10zM1606 0h-139q-78 0 -158 96q-187 -96 -550 -96h-39q-337 0 -471 139q-97 -139 -248 -139l-33 6
v195l33 6q102 0 174 14q29 94 67 207l113 76l27 -12q-15 -121 -29 -211q43 -33 109 -48q303 594 643 594q144 0 265 -163q109 -148 109 -275q0 -67 -67 -182h194l33 -6v-195zM1140 -292q-62 -70 -119 -121q-84 67 -121 121q45 69 121 122q68 -53 119 -122z" />
    <glyph glyph-name="uni06FB.fina" unicode="&#x6fb;" horiz-adv-x="2251" 
d="M1538 1137q61 75 127 129q90 -76 127 -129q-50 -74 -127 -129q-78 55 -127 129zM1484 209q369 6 539 102q-48 128 -135 211q-92 90 -193 90q-223 0 -491 -395q116 -10 192 -10zM184 -281q-84 91 -84 242q0 203 160 451l55 -27q-78 -188 -78 -303q0 -266 324 -266
q244 0 391 98q-35 225 -80 551l158 127h37l12 -352q10 -4 31 -9q304 596 643 596q144 0 266 -163q111 -148 111 -275q0 -63 -70 -182h192l33 -6v-195l-33 -6h-137q-78 0 -157 96q-193 -96 -549 -96h-39q-205 0 -291 55q-4 -60 -6 -69q-19 -116 -113 -238
q-140 -143 -442 -143q-227 0 -334 114zM1792 -292q-62 -70 -119 -121q-84 67 -121 121q45 69 121 122q68 -53 119 -122z" />
    <glyph glyph-name="uni06FC.init" unicode="&#x6fc;" horiz-adv-x="1017" 
d="M378 1194q61 76 125 129q90 -76 129 -129q-50 -74 -129 -129q-76 55 -125 129zM855 127q-368 -127 -694 -127h-160l-33 6v195l33 6h235q-123 105 -123 250q0 135 74 231q42 70 140 129q104 64 194 64q139 0 278 -258l-38 -39l-185 116q-197 -16 -352 -176
q35 -104 121 -182q101 -92 223 -92q160 0 352 96l17 -14zM618 -292q-62 -70 -119 -121q-84 67 -121 121q45 69 121 122q68 -53 119 -122z" />
    <glyph glyph-name="uni06FC.medi" unicode="&#x6fc;" horiz-adv-x="1165" 
d="M484 1141q62 76 125 131q90 -76 129 -131q-49 -74 -129 -129q-76 55 -125 129zM658 293q212 108 316 276q-145 39 -349 39q-148 0 -280 -22q139 -145 172 -176q84 -82 137 -119zM1166 0h-141q-235 0 -404 113q-222 -113 -491 -113h-129l-33 6v195l33 6h297q92 0 182 22
l-45 45q-30 32 -118 127l-113 121l-70 -98l-47 29q92 259 162 284q145 58 417 58q306 0 396 -86q10 -13 10 -57q0 -16 -1 -36q-5 -71 -18 -92q-98 -175 -260 -301q63 -16 131 -16h242l33 -6v-195zM724 -292q-62 -70 -119 -121q-84 67 -121 121q45 69 121 122
q68 -53 119 -122z" />
    <glyph glyph-name="uni06FC.fina" unicode="&#x6fc;" horiz-adv-x="1209" 
d="M516 1188q63 78 127 131q90 -76 129 -131q-51 -74 -129 -127q-76 53 -127 127zM659 319q256 116 332 261q-137 41 -350 41q-135 0 -275 -21q147 -152 193 -194q66 -63 98 -87h2zM1210 -420q-319 -205 -410 -205q-498 0 -608 297q-28 77 -28 149q0 35 6 68q40 201 336 355
l-281 295l-76 -109l-49 27q94 262 166 291q158 57 414 57q305 0 395 -86q9 -10 9 -47q0 -19 -2 -44q-5 -68 -15 -93q-62 -172 -281 -297q77 -31 178 -31h246l33 -6v-195l-33 -6h-178q-223 0 -402 133q-339 -172 -378 -317q91 -215 618 -215q117 0 326 22zM516 -166
q61 78 125 131q90 -76 129 -131q-50 -74 -129 -127q-76 53 -125 127z" />
    <glyph glyph-name="uni06FF.init" unicode="&#x6ff;" horiz-adv-x="1031" 
d="M464 250q66 37 96 104q-12 110 -61 193q-50 86 -105 86q-49 0 -115 -72q-61 -65 -94 -143q89 -95 262 -176zM855 125q-45 210 -197 346q9 -25 9 -51v-6q0 -118 -109 -221q160 -63 299 -76zM951 147v-3q0 -43 -55 -128q-58 -88 -88 -88q-157 0 -408 150q-152 -78 -315 -78
h-84l-33 6v195l33 6h207q-35 27 -60 55q-33 67 -33 138q0 33 7 67q38 148 155 246l-77 41l80 182l36 8q368 -236 513 -432q122 -166 122 -365zM390 1469q41 -126 170 -266l-47 -105l-14 -2q-109 130 -154 264q-64 -172 -170 -268l-10 4l-66 131q136 106 181 234l8 8h102z
" />
    <glyph glyph-name="uni06FF.medi" unicode="&#x6ff;" horiz-adv-x="944" 
d="M253 207q278 0 373 151q-22 85 -63 150q-44 72 -85 72q-51 0 -119 -97q-80 -112 -112 -276h6zM765 -199q-47 236 -354 258q-37 0 -164 -28q91 -248 381 -248q82 0 137 18zM603 -418q-153 0 -270 105q-132 116 -168 325q-98 -12 -164 -12l-33 6v195l33 6l156 2
q35 243 162 424q119 168 225 168q82 0 143 -141q51 -118 51 -214q0 -89 -96 -210l-31 -29h334l33 -6v-195l-33 -6h-137q63 -57 63 -109v-6q0 -38 -45 -147q-47 -109 -63 -125q-31 -31 -160 -31zM642 1329q41 -126 170 -266l-47 -105l-14 -2q-109 130 -154 264
q-64 -172 -170 -268l-10 4l-66 131q136 106 181 234l8 8h102z" />
    <glyph glyph-name="uni06FF.fina" unicode="&#x6ff;" horiz-adv-x="1134" 
d="M953 -199q-47 236 -352 258q-73 0 -162 -30q92 -246 379 -246q84 0 135 18zM792 -418q-151 0 -268 102q-131 114 -169 320l-24 -4q-53 0 -103 10l-200 185l10 24q160 -8 309 -10q35 243 162 424q118 168 225 168q82 0 144 -141q51 -118 51 -214q0 -86 -99 -210
q-6 -10 -28 -29h334l32 -6v-195l-32 -6h-138q64 -60 64 -109v-5q0 -39 -47 -148q-47 -108 -64 -125q-26 -31 -159 -31zM436 208l46 1q249 12 334 149q-52 222 -141 222q-56 0 -132 -106q-83 -115 -107 -266zM792 1329q41 -126 170 -266l-47 -105l-14 -2q-109 130 -154 264
q-64 -172 -170 -268l-10 4l-66 131q136 106 181 234l8 8h102z" />
    <glyph glyph-name="uniFB50" unicode="&#x671;" horiz-adv-x="552" arabic-form="isolated" 
d="M361 301q0 -26 -88 -301h-60l-31 1110l142 135h37v-944zM494 1508q-42 92 -114 92q-64 0 -166 -108q62 -7 108 -7q108 0 172 23zM289 1362q-122 0 -203 33l-57 -82l-29 11q20 88 37 122q45 68 84 68l40 -11q138 221 245 221q52 0 100 -63q46 -60 46 -120q0 -21 -32 -77
q-31 -55 -47 -63q-60 -39 -184 -39z" />
    <glyph glyph-name="uniFB51" unicode="&#x671;" horiz-adv-x="581" arabic-form="final" 
d="M582 0q-211 0 -306 156q-97 161 -97 530v494l149 114h35v-991q0 -63 61 -83q42 -13 158 -13l33 -6v-195zM504 1508q-42 92 -114 92q-64 0 -166 -108q62 -7 108 -7q108 0 172 23zM299 1362q-122 0 -203 33l-57 -82l-29 11q20 88 37 122q45 68 84 68l40 -11
q138 221 245 221q52 0 100 -63q46 -60 46 -120q0 -21 -32 -77q-31 -55 -47 -63q-60 -39 -184 -39z" />
    <glyph glyph-name="uniFB52" unicode="&#x67b;" horiz-adv-x="1564" arabic-form="isolated" 
d="M624 0q-524 0 -524 365q0 204 160 442l57 -31q-80 -182 -80 -291q0 -278 426 -278q477 0 664 14q-25 195 -99 465l140 137h37l79 -225l-2 -23l-47 -51q18 -119 18 -195q0 -30 -3 -53q-3 -38 -65 -132t-99 -117q-66 -27 -662 -27zM653 -528q78 92 117 116q-65 55 -117 115
q78 92 133 129q74 -49 129 -129q-39 -53 -113 -115q66 -51 113 -116q-55 -78 -129 -127q-78 61 -133 127z" />
    <glyph glyph-name="uniFB53" unicode="&#x67b;" horiz-adv-x="1620" arabic-form="final" 
d="M1622 0q-252 0 -344 145q-72 -82 -99 -96q-155 -49 -555 -49q-524 0 -524 365q0 204 160 442l57 -31q-82 -182 -82 -291q0 -278 428 -278q283 0 553 37q21 98 70 313l129 88l28 -12q-26 -312 -47 -381q65 -45 226 -45l32 -6v-195zM632 -528q78 92 117 116
q-64 55 -117 115q78 92 134 129q73 -49 129 -129q-39 -53 -113 -115q66 -51 113 -116q-56 -78 -129 -127q-76 61 -134 127z" />
    <glyph glyph-name="uniFB54" unicode="&#x67b;" horiz-adv-x="529" arabic-form="initial" 
d="M-32 6v195l33 6q224 0 286 14q-24 195 -98 465l141 137h37l82 -227l-4 -23l-47 -49q18 -124 18 -201q0 -26 -2 -47q-4 -38 -65 -133q-62 -96 -98 -118q-59 -25 -250 -25zM99 -520q76 92 115 117q-82 75 -115 114q76 92 131 129q74 -49 131 -129q-58 -75 -114 -114
q65 -52 114 -117q-57 -78 -131 -129q-76 63 -131 129z" />
    <glyph glyph-name="uniFB55" unicode="&#x67b;" horiz-adv-x="610" arabic-form="medial" 
d="M611 0h-14q-218 0 -320 135q-80 -101 -104 -112q-48 -23 -172 -23l-33 6v195l33 6q132 0 203 18q20 97 73 332l127 84l29 -8q-21 -302 -47 -381q65 -45 225 -45l33 -6v-195zM137 -524q76 94 115 118q-84 77 -115 113q76 94 131 131q74 -51 131 -131q-45 -62 -113 -113
q66 -51 113 -118q-57 -76 -131 -127q-76 63 -131 127z" />
    <glyph glyph-name="uniFB56" unicode="&#x67e;" horiz-adv-x="1564" arabic-form="isolated" 
d="M624 0q-524 0 -524 365q0 204 160 442l57 -31q-80 -182 -80 -291q0 -278 426 -278q477 0 664 14q-25 195 -99 465l140 137h37l79 -225l-2 -23l-47 -51q18 -119 18 -195q0 -30 -3 -53q-3 -38 -65 -132t-99 -117q-66 -27 -662 -27zM788 -309q-57 -62 -113 -117
q-90 76 -126 129q51 72 126 127q42 -30 113 -109q49 62 115 109q74 -55 123 -127q-62 -74 -123 -129zM907 -530q-62 -70 -119 -121q-84 67 -121 121q45 69 121 122q68 -53 119 -122z" />
    <glyph glyph-name="uniFB57" unicode="&#x67e;" horiz-adv-x="1620" arabic-form="final" 
d="M1622 0q-252 0 -344 145q-72 -82 -99 -96q-155 -49 -555 -49q-524 0 -524 365q0 204 160 442l57 -31q-82 -182 -82 -291q0 -278 428 -278q283 0 553 37q21 98 70 313l129 88l28 -12q-26 -312 -47 -381q65 -45 226 -45l32 -6v-195zM772 -309l-113 -115q-90 74 -127 129
q51 72 127 127q52 -38 113 -111q49 64 114 111q74 -55 123 -127q-61 -76 -123 -129q-108 111 -114 115zM891 -528q-62 -70 -119 -121q-84 67 -121 121q45 67 121 122q67 -55 119 -122z" />
    <glyph glyph-name="uniFB58" unicode="&#x67e;" horiz-adv-x="529" arabic-form="initial" 
d="M-32 6v195l33 6q224 0 286 14q-24 195 -98 465l141 137h37l82 -227l-4 -23l-47 -49q18 -124 18 -201q0 -26 -2 -47q-4 -38 -65 -133q-62 -96 -98 -118q-59 -25 -250 -25zM228 -309q-57 -62 -113 -117q-90 76 -127 129q52 72 127 127q42 -30 113 -109q49 62 115 109
q74 -55 123 -127q-62 -74 -123 -129zM347 -530q-62 -70 -119 -121q-84 67 -121 121q45 69 121 122q68 -53 119 -122z" />
    <glyph glyph-name="uniFB59" unicode="&#x67e;" horiz-adv-x="610" arabic-form="medial" 
d="M611 0h-14q-218 0 -320 135q-80 -101 -104 -112q-48 -23 -172 -23l-33 6v195l33 6q132 0 203 18q20 97 73 332l127 84l29 -8q-21 -302 -47 -381q65 -45 225 -45l33 -6v-195zM294 -309l-113 -117q-90 76 -127 129q51 72 127 127q45 -34 113 -109q49 62 114 109
q72 -55 123 -127q-61 -74 -123 -129q-110 111 -114 117zM412 -530q-61 -70 -118 -121q-86 67 -121 121q45 69 121 122q65 -53 118 -122z" />
    <glyph glyph-name="uniFB5A" unicode="&#x680;" horiz-adv-x="1564" arabic-form="isolated" 
d="M624 0q-524 0 -524 365q0 204 160 442l57 -31q-80 -182 -80 -291q0 -278 426 -278q477 0 664 14q-25 195 -99 465l140 137h37l79 -225l-2 -23l-47 -51q18 -119 18 -195q0 -30 -3 -53q-3 -38 -65 -132t-99 -117q-66 -27 -662 -27zM798 -545q-28 -39 -112 -108
q-84 63 -123 123q15 25 112 114q-86 71 -112 117q25 35 123 121q81 -56 112 -109q44 47 115 109q80 -55 121 -121q-30 -50 -111 -117q92 -85 111 -114q-37 -59 -121 -123q-91 69 -115 108zM905 -416l-107 107l-104 -107l104 -104z" />
    <glyph glyph-name="uniFB5B" unicode="&#x680;" horiz-adv-x="1620" arabic-form="final" 
d="M1622 0q-252 0 -344 145q-72 -82 -99 -96q-155 -49 -555 -49q-524 0 -524 365q0 204 160 442l57 -31q-82 -182 -82 -291q0 -278 428 -278q283 0 553 37q21 98 70 313l129 88l28 -12q-26 -312 -47 -381q65 -45 226 -45l32 -6v-195zM780 -547q-45 -56 -115 -108
q-77 61 -123 123q5 6 113 114q-80 69 -113 117l123 123q81 -62 115 -111q51 55 115 111q85 -71 120 -123q-34 -53 -110 -115q99 -99 110 -116q-30 -48 -120 -123q-92 69 -115 108zM884 -416l-106 105l-103 -105l103 -106z" />
    <glyph glyph-name="uniFB5C" unicode="&#x680;" horiz-adv-x="533" arabic-form="initial" 
d="M-34 6v195l33 6q224 0 286 14q-24 195 -98 465l141 137h37l82 -227l-4 -23l-47 -49q18 -124 18 -201q0 -26 -2 -47q-4 -38 -65 -133q-62 -96 -98 -118q-59 -25 -250 -25zM218 -545q-50 -65 -115 -108q-62 46 -123 121q5 6 113 114q-80 69 -113 117l123 123
q86 -66 113 -111q30 35 117 111q85 -71 120 -123q-7 -11 -110 -115q88 -82 110 -116q-36 -58 -120 -121q-87 62 -115 108zM322 -416l-106 105l-103 -105l103 -106z" />
    <glyph glyph-name="uniFB5D" unicode="&#x680;" horiz-adv-x="610" arabic-form="medial" 
d="M611 0h-14q-218 0 -320 135q-80 -101 -104 -112q-48 -23 -172 -23l-33 6v195l33 6q132 0 203 18q20 97 73 332l127 84l29 -8q-21 -302 -47 -381q65 -45 225 -45l33 -6v-195zM306 -547q-28 -39 -113 -108q-83 63 -123 123q20 29 113 114q-79 64 -113 115q13 19 123 123
q83 -64 113 -109q43 47 115 109q81 -63 122 -123q-32 -48 -112 -115q73 -63 112 -114q-37 -57 -122 -123q-92 69 -115 108zM412 -418l-106 107l-105 -107l105 -106z" />
    <glyph glyph-name="uniFB5E" unicode="&#x67a;" horiz-adv-x="1564" arabic-form="isolated" 
d="M661 942q78 92 117 119q-48 37 -117 113q78 92 133 131q74 -52 129 -131q-45 -63 -112 -113q65 -51 112 -119q-55 -76 -129 -127q-78 64 -133 127zM624 0q-524 0 -524 365q0 204 160 442l57 -31q-80 -182 -80 -291q0 -278 426 -278q477 0 664 14q-25 195 -99 465l140 137
h37l79 -225l-2 -23l-47 -51q18 -119 18 -195q0 -30 -3 -53q-3 -38 -65 -132t-99 -117q-66 -27 -662 -27z" />
    <glyph glyph-name="uniFB5F" unicode="&#x67a;" horiz-adv-x="1620" arabic-form="final" 
d="M653 879q76 92 115 118q-51 43 -115 113q76 92 131 131q74 -51 131 -131q-45 -62 -113 -113q66 -51 113 -118q-57 -76 -131 -127q-76 63 -131 127zM1622 0q-252 0 -344 145q-72 -82 -99 -96q-155 -49 -555 -49q-524 0 -524 365q0 204 160 442l57 -31q-82 -182 -82 -291
q0 -278 428 -278q283 0 553 37q21 98 70 313l129 88l28 -12q-26 -312 -47 -381q65 -45 226 -45l32 -6v-195z" />
    <glyph glyph-name="uniFB60" unicode="&#x67a;" horiz-adv-x="529" arabic-form="initial" 
d="M158 1151q76 92 115 117q-74 67 -115 114q76 93 132 129q73 -49 131 -129q-39 -53 -113 -114q66 -51 113 -117q-58 -78 -131 -127q-76 61 -132 127zM-32 6v195l33 6q224 0 286 14q-24 195 -98 465l141 137h37l82 -227l-4 -23l-47 -49q18 -124 18 -201q0 -26 -2 -47
q-4 -38 -65 -133q-62 -96 -98 -118q-59 -25 -250 -25z" />
    <glyph glyph-name="uniFB61" unicode="&#x67a;" horiz-adv-x="610" arabic-form="medial" 
d="M201 958q78 93 117 119q-62 53 -117 113q78 92 134 131q73 -51 129 -131q-46 -62 -113 -113q66 -51 113 -119q-56 -75 -129 -127q-78 64 -134 127zM611 0h-14q-218 0 -320 135q-80 -101 -104 -112q-48 -23 -172 -23l-33 6v195l33 6q132 0 203 18q20 97 73 332l127 84
l29 -8q-21 -302 -47 -381q65 -45 225 -45l33 -6v-195z" />
    <glyph glyph-name="uniFB62" unicode="&#x67f;" horiz-adv-x="1564" arabic-form="isolated" 
d="M776 860q-40 -52 -115 -108q-77 61 -123 122q7 10 113 115q-84 71 -113 115l123 123q83 -64 113 -109q52 56 117 109q85 -71 120 -123q-7 -11 -110 -115q87 -81 110 -115q-27 -45 -120 -122q-92 69 -115 108zM880 989l-106 107l-103 -107l103 -106zM624 0
q-524 0 -524 365q0 204 160 442l57 -31q-80 -182 -80 -291q0 -278 426 -278q477 0 664 14q-25 195 -99 465l140 137h37l79 -225l-2 -23l-47 -51q18 -119 18 -195q0 -30 -3 -53q-3 -38 -65 -132t-99 -117q-66 -27 -662 -27z" />
    <glyph glyph-name="uniFB63" unicode="&#x67f;" horiz-adv-x="1620" arabic-form="final" 
d="M772 848q-37 -52 -113 -109q-77 62 -123 123q15 26 113 115q-80 68 -113 117q37 44 123 120q81 -56 113 -108q52 56 116 108q78 -58 121 -120q-28 -47 -112 -117q80 -70 112 -115q-27 -45 -121 -123q-76 59 -116 109zM878 977l-106 106l-105 -106l105 -105zM1622 0
q-252 0 -344 145q-72 -82 -99 -96q-155 -49 -555 -49q-524 0 -524 365q0 204 160 442l57 -31q-82 -182 -82 -291q0 -278 428 -278q283 0 553 37q21 98 70 313l129 88l28 -12q-26 -312 -47 -381q65 -45 226 -45l32 -6v-195z" />
    <glyph glyph-name="uniFB64" unicode="&#x67f;" horiz-adv-x="537" arabic-form="initial" 
d="M-34 6v195l33 6q224 0 286 14q-24 195 -98 465l141 137h37l82 -227l-4 -23l-47 -49q18 -124 18 -201q0 -26 -2 -47q-4 -38 -65 -133q-62 -96 -98 -118q-59 -25 -250 -25zM281 1178q-45 -64 -112 -109q-85 64 -123 121q15 25 113 115q-81 68 -113 116q13 20 123 123
q86 -66 112 -110q16 18 115 110q82 -63 123 -123q-33 -48 -113 -114q88 -82 113 -117q-46 -68 -123 -121q-81 58 -115 109zM388 1307l-107 104l-104 -104l104 -107z" />
    <glyph glyph-name="uniFB65" unicode="&#x67f;" horiz-adv-x="610" arabic-form="medial" 
d="M330 963q-37 -52 -112 -109q-77 61 -123 123q15 25 113 115q-81 68 -113 116q36 45 123 121q75 -52 112 -108q44 46 115 108q70 -48 123 -121q-33 -50 -113 -116q81 -70 113 -115q-37 -57 -123 -123q-71 54 -115 109zM437 1092l-107 106l-104 -106l104 -105zM611 0h-14
q-218 0 -320 135q-80 -101 -104 -112q-48 -23 -172 -23l-33 6v195l33 6q132 0 203 18q20 97 73 332l127 84l29 -8q-21 -302 -47 -381q65 -45 225 -45l33 -6v-195z" />
    <glyph glyph-name="uniFB66" unicode="&#x679;" horiz-adv-x="1564" arabic-form="isolated" 
d="M624 0q-524 0 -524 365q0 204 160 442l57 -31q-80 -182 -80 -291q0 -278 426 -278q477 0 664 14q-25 195 -99 465l140 137h37l79 -225l-2 -23l-47 -51q18 -119 18 -195q0 -30 -3 -53q-3 -38 -65 -132t-99 -117q-66 -27 -662 -27zM1011 987q-42 94 -114 94t-180 -116
q40 -2 118 -2q114 0 176 24zM719 1054q113 150 202 150q53 0 102 -65q47 -61 47 -122q0 -21 -35 -74q-33 -51 -50 -62q-55 -35 -194 -35q-69 0 -136 13l-123 96l5 18l125 -7l18 28q-18 182 -23 281l-17 47l84 80l18 -11v-35l46 -80l-34 -35l-2 -86q0 -14 -18 -64
q-11 -27 -15 -37z" />
    <glyph glyph-name="uniFB67" unicode="&#x679;" horiz-adv-x="1610" arabic-form="final" 
d="M1612 0q-252 0 -344 145q-72 -82 -99 -96q-155 -49 -555 -49q-524 0 -524 365q0 204 160 442l57 -31q-82 -182 -82 -291q0 -278 428 -278q283 0 553 37q21 98 70 313l129 88l28 -12q-26 -312 -47 -381q65 -45 226 -45l32 -6v-195zM971 947q-42 94 -114 94t-180 -116
q40 -2 118 -2q114 0 176 24zM679 1014q113 150 202 150q53 0 102 -65q47 -61 47 -122q0 -21 -35 -74q-33 -51 -50 -62q-55 -35 -194 -35q-69 0 -136 13l-123 96l5 18l125 -7l18 28q-18 182 -23 281l-17 47l84 80l18 -11v-35l46 -80l-34 -35l-2 -86q0 -14 -18 -64
q-11 -27 -15 -37z" />
    <glyph glyph-name="uniFB68" unicode="&#x679;" horiz-adv-x="583" arabic-form="initial" 
d="M-32 6v195l33 6q261 0 332 16q-25 195 -97 463l140 137h34l82 -227l-2 -23l-49 -49q19 -126 19 -200q0 -28 -3 -48q-3 -38 -65 -133q-61 -95 -98 -118q-59 -25 -293 -25zM484 1183q-42 94 -114 94t-180 -116q40 -2 118 -2q114 0 176 24zM192 1250q113 150 202 150
q53 0 102 -65q47 -61 47 -122q0 -21 -35 -74q-33 -51 -50 -62q-55 -35 -194 -35q-69 0 -136 13l-123 96l5 18l125 -7l18 28q-18 182 -23 281l-17 47l84 80l18 -11v-35l46 -80l-34 -35l-2 -86q0 -14 -18 -64q-11 -27 -15 -37z" />
    <glyph glyph-name="uniFB69" unicode="&#x679;" horiz-adv-x="610" arabic-form="medial" 
d="M611 0h-14q-218 0 -320 135q-80 -101 -104 -112q-48 -23 -172 -23l-33 6v195l33 6q132 0 203 18q20 97 73 332l127 84l29 -8q-21 -302 -47 -381q65 -45 225 -45l33 -6v-195zM491 987q-42 94 -114 94t-180 -116q40 -2 118 -2q114 0 176 24zM199 1054q113 150 202 150
q53 0 102 -65q47 -61 47 -122q0 -21 -35 -74q-33 -51 -50 -62q-55 -35 -194 -35q-69 0 -136 13l-123 96l5 18l125 -7l18 28q-18 182 -23 281l-17 47l84 80l18 -11v-35l46 -80l-34 -35l-2 -86q0 -14 -18 -64q-11 -27 -15 -37z" />
    <glyph glyph-name="uniFB6A" unicode="&#x6a4;" horiz-adv-x="1548" arabic-form="isolated" 
d="M1018 1528q61 69 118 121q84 -68 121 -121q-47 -70 -121 -123q-67 53 -118 123zM1247 1167q-68 52 -111 109q-49 -64 -114 -109q-74 56 -123 127q61 74 123 129l114 -116q110 117 111 117v-1q92 -75 129 -129q-51 -71 -129 -127zM1321 524q-74 285 -211 285
q-67 0 -127 -81q-55 -74 -76 -173q78 -59 199 -59q112 0 215 28zM100 365q0 204 160 442l59 -31q-82 -182 -82 -291q0 -278 428 -278q453 0 678 22q6 68 6 82q0 73 -14 142l-57 -101q-84 -35 -189 -35q-140 0 -201 76q-61 89 -61 189q4 135 93 271q102 157 237 157
q136 0 228 -205q83 -186 83 -414q0 -65 -10 -123q-9 -43 -75 -130q-64 -83 -89 -93q-135 -45 -668 -45q-526 0 -526 365z" />
    <glyph glyph-name="uniFB6B" unicode="&#x6a4;" horiz-adv-x="1682" arabic-form="final" 
d="M1149 1425q61 70 118 121q86 -67 121 -121q-45 -67 -121 -122q-65 55 -118 122zM1380 1065q-42 30 -113 109q-49 -62 -114 -109q-74 55 -123 127q61 76 123 129l114 -115q19 18 63 63l50 52q90 -76 127 -129q-51 -72 -127 -127zM1302 256q67 38 121 98q-8 122 -62 225
q-60 113 -137 113q-60 0 -131 -71q-70 -69 -104 -158q107 -142 293 -217zM1683 0h-96q-168 0 -332 82q-244 -119 -635 -119q-520 0 -520 361q0 202 160 442l59 -33q-82 -182 -82 -291q0 -270 422 -270q238 0 416 21q-104 82 -139 157q-26 59 -26 120q0 26 5 52
q18 111 122 236q119 141 241 141q111 0 195 -143q81 -140 81 -320q0 -105 -135 -227l37 -2h227l33 -6v-195z" />
    <glyph glyph-name="uniFB6C" unicode="&#x6a4;" horiz-adv-x="818" arabic-form="initial" 
d="M271 1528q64 69 119 121q86 -68 121 -121q-45 -70 -121 -123q-66 53 -119 123zM503 1167q-61 46 -113 109q-49 -64 -115 -109q-71 56 -123 127q62 74 123 129l117 -116q109 117 111 117v-1q90 -75 127 -129q-50 -71 -127 -127zM238 0h-237l-33 6v195l33 6h323
q176 0 289 22q6 37 6 82q0 68 -12 142l-59 -101q-84 -35 -189 -35q-153 0 -198 76q-64 83 -64 189q4 135 93 271q102 157 237 157q136 0 228 -205q83 -186 83 -414q0 -70 -12 -123q-11 -50 -72 -136q-57 -79 -76 -85q-99 -47 -340 -47zM591 524q-75 285 -211 285
q-67 0 -127 -81q-55 -74 -76 -173q78 -59 199 -59q112 0 215 28z" />
    <glyph glyph-name="uniFB6D" unicode="&#x6a4;" horiz-adv-x="897" arabic-form="medial" 
d="M339 1425q61 70 118 121q84 -67 121 -121q-47 -67 -121 -122q-67 55 -118 122zM568 1065q-58 44 -111 109q-49 -62 -114 -109q-74 55 -125 127q63 76 125 129q108 -111 114 -115q86 86 111 115q90 -76 127 -129q-49 -72 -127 -127zM517 256q73 42 121 98q-9 122 -63 225
q-60 113 -136 113q-60 0 -132 -71q-69 -69 -103 -158q108 -143 294 -217zM898 0h-96q-172 0 -347 90q-165 -90 -350 -90h-104l-33 6v195l33 6h270q-88 75 -121 143q-25 59 -25 119q0 26 5 53q18 111 122 236q118 141 240 141q112 0 195 -143q82 -140 82 -320
q0 -105 -135 -227l39 -2h225l33 -6v-195z" />
    <glyph glyph-name="uniFB6E" unicode="&#x6a6;" horiz-adv-x="1548" arabic-form="isolated" 
d="M1130 1276q-40 -53 -115 -109q-69 56 -122 121q4 7 114 117q-83 67 -114 115l122 122q85 -60 115 -110q37 42 115 110q85 -65 121 -122q-31 -48 -111 -115q88 -82 111 -117q-35 -54 -121 -121q-91 70 -115 109zM1237 1405l-107 104l-104 -104l104 -107zM1321 524
q-74 285 -211 285q-67 0 -127 -81q-55 -74 -76 -173q78 -59 199 -59q112 0 215 28zM100 365q0 204 160 442l59 -31q-82 -182 -82 -291q0 -278 428 -278q453 0 678 22q6 68 6 82q0 73 -14 142l-57 -101q-84 -35 -189 -35q-140 0 -201 76q-61 89 -61 189q4 135 93 271
q102 157 237 157q136 0 228 -205q83 -186 83 -414q0 -65 -10 -123q-9 -43 -75 -130q-64 -83 -89 -93q-135 -45 -668 -45q-526 0 -526 365z" />
    <glyph glyph-name="uniFB6F" unicode="&#x6a6;" horiz-adv-x="1682" arabic-form="final" 
d="M1263 1174q-40 -53 -114 -109q-77 61 -123 123q4 7 112 115q-80 68 -112 116q14 19 123 121q75 -52 114 -108q58 62 115 108q78 -58 121 -121q-10 -15 -111 -116q92 -85 111 -115q-30 -47 -121 -123q-91 70 -115 109zM1368 1303l-107 106l-102 -106l102 -105zM1302 256
q67 38 121 98q-8 122 -63 225q-60 113 -138 113q-59 0 -131 -71q-70 -69 -104 -158q112 -143 295 -217zM1681 0h-94q-168 0 -332 82q-244 -119 -637 -119q-518 0 -518 361q0 202 160 442l59 -33q-82 -182 -82 -291q0 -270 420 -270q237 0 418 21q-102 78 -139 157
q-26 59 -26 120q0 26 5 52q18 111 122 236q119 141 241 141q111 0 194 -143q80 -140 80 -320q0 -108 -135 -227l39 -2h225l35 -6v-195z" />
    <glyph glyph-name="uniFB70" unicode="&#x6a6;" horiz-adv-x="818" arabic-form="initial" 
d="M390 1276q-28 -40 -113 -109q-78 60 -123 121q7 10 113 117q-89 72 -113 115q13 19 123 122q86 -66 113 -110q16 18 115 110q84 -65 120 -122q-30 -48 -110 -115q88 -82 110 -117q-34 -54 -120 -121q-92 70 -115 109zM496 1405l-106 104l-105 -104l105 -107zM238 0h-237
l-33 6v195l33 6h323q176 0 289 22q6 37 6 82q0 68 -12 142l-59 -101q-84 -35 -189 -35q-153 0 -198 76q-64 83 -64 189q4 135 93 271q102 157 237 157q136 0 228 -205q83 -186 83 -414q0 -70 -12 -123q-11 -50 -72 -136q-57 -79 -76 -85q-99 -47 -340 -47zM591 524
q-75 285 -211 285q-67 0 -127 -81q-55 -74 -76 -173q78 -59 199 -59q112 0 215 28z" />
    <glyph glyph-name="uniFB71" unicode="&#x6a6;" horiz-adv-x="897" arabic-form="medial" 
d="M453 1174q-37 -52 -112 -109q-77 61 -123 123q15 25 112 115q-80 68 -112 116q27 37 123 121q81 -56 112 -108q52 55 117 108q78 -58 121 -121q-28 -46 -113 -116q81 -70 113 -115q-30 -47 -121 -123q-76 58 -117 109zM560 1303l-107 106l-104 -106l104 -105zM517 256
q73 42 121 98q-9 122 -63 225q-60 113 -136 113q-60 0 -132 -71q-69 -69 -103 -158q108 -143 294 -217zM898 0h-96q-172 0 -347 90q-165 -90 -350 -90h-104l-33 6v195l33 6h270q-88 75 -121 143q-25 59 -25 119q0 26 5 53q18 111 122 236q118 141 240 141q112 0 195 -143
q82 -140 82 -320q0 -105 -135 -227l39 -2h225l33 -6v-195z" />
    <glyph glyph-name="uniFB72" unicode="&#x684;" horiz-adv-x="1300" arabic-form="isolated" 
d="M1276 -422q-319 -205 -451 -205q-257 0 -439 102q-153 87 -194 206q-44 108 -44 218q0 13 1 27q46 310 418 518q53 27 188 39l2 11q-110 10 -261 41q-147 31 -193 34l-160 -141l-43 37q158 295 231 295q42 0 276 -47q233 -47 392 -47h213l8 -25l-65 -162h-105
q-301 -70 -608 -323q-169 -142 -203 -306q141 -251 670 -251q117 0 354 22zM632 -145q46 60 107 106q-61 47 -107 111q54 73 123 121q72 -60 125 -121q-71 -86 -108 -111q68 -62 108 -106q-71 -88 -125 -125q-69 49 -123 125z" />
    <glyph glyph-name="uniFB73" unicode="&#x684;" horiz-adv-x="1326" arabic-form="final" 
d="M1276 -422q-319 -205 -451 -205q-257 0 -439 102q-153 87 -194 206q-44 108 -44 218q0 13 1 27q46 310 418 518q53 27 188 39l2 11q-110 10 -261 41q-147 31 -193 34l-160 -141l-43 37q158 295 231 295q42 0 276 -47q233 -47 392 -47h213l8 -25l-65 -162l-101 2
q-2 -36 -2 -66q0 -91 22 -135q38 -73 159 -73h94l33 -6v-195l-33 -6h-101q-187 0 -243 141q-22 55 -22 128q0 85 30 194q-283 -88 -549 -307q-169 -142 -203 -306q141 -251 670 -251q117 0 354 22zM635 -145q45 60 106 106q-61 47 -106 111q53 73 122 121q72 -60 125 -121
q-71 -86 -108 -111q68 -62 108 -106q-71 -88 -125 -125q-69 49 -122 125z" />
    <glyph glyph-name="uniFB74" unicode="&#x684;" horiz-adv-x="1308" arabic-form="initial" 
d="M161 0h-160l-33 6v195l33 6h237q224 0 428 90q116 53 144 61q-111 36 -246 111l-250 141l-186 -127l-43 47q182 258 280 258q23 0 301 -153q226 -129 385 -129h168l9 -27l-66 -155h-162q-31 -5 -375 -201q-205 -123 -464 -123zM732 -317q55 71 115 112q-66 51 -115 119
q57 76 131 127q76 -64 131 -127q-76 -92 -115 -119q84 -76 115 -112q-76 -95 -131 -132q-74 52 -131 132z" />
    <glyph glyph-name="uniFB75" unicode="&#x684;" horiz-adv-x="1327" arabic-form="medial" 
d="M161 0h-160l-33 6v195l33 6h237q230 0 430 92q107 49 142 59q-115 39 -246 111l-250 141l-186 -127l-43 47q182 258 280 258q23 0 301 -153q226 -129 385 -129h164l8 -27l-67 -155l-101 -7q5 -110 130 -110h143l33 -6v-195l-33 -6h-152q-203 0 -203 217q0 44 9 98
q-37 -8 -357 -192q-205 -123 -464 -123zM599 -336q39 53 112 115q-65 49 -112 117q55 75 129 127q78 -64 133 -127q-78 -93 -117 -117q65 -55 117 -115q-78 -92 -133 -131q-74 51 -129 131z" />
    <glyph glyph-name="uniFB76" unicode="&#x683;" horiz-adv-x="1300" arabic-form="isolated" 
d="M1276 -422q-319 -205 -451 -205q-257 0 -439 102q-153 87 -194 206q-44 108 -44 218q0 13 1 27q46 310 418 518q53 27 188 39l2 11q-110 10 -261 41q-147 31 -193 34l-160 -141l-43 37q158 295 231 295q42 0 276 -47q233 -47 392 -47h213l8 -25l-65 -162h-105
q-301 -70 -608 -323q-169 -142 -203 -306q141 -251 670 -251q117 0 354 22zM864 -125q-53 36 -113 109q-49 -64 -112 -109q-74 55 -125 127q61 74 125 127q90 -74 114 -113q51 61 111 113q90 -74 127 -127q-49 -72 -127 -127z" />
    <glyph glyph-name="uniFB77" unicode="&#x683;" horiz-adv-x="1326" arabic-form="final" 
d="M1276 -422q-319 -205 -451 -205q-257 0 -439 102q-153 87 -194 206q-44 108 -44 218q0 13 1 27q46 310 418 518q53 27 188 39l2 11q-110 10 -261 41q-147 31 -193 34l-160 -141l-43 37q158 295 231 295q42 0 276 -47q233 -47 392 -47h213l8 -25l-65 -162l-101 2
q-2 -36 -2 -66q0 -91 22 -135q38 -73 159 -73h94l33 -6v-195l-33 -6h-101q-187 0 -243 141q-22 55 -22 128q0 85 30 194q-283 -88 -549 -307q-169 -142 -203 -306q141 -251 670 -251q117 0 354 22zM815 -145q-39 29 -111 108q-49 -63 -112 -108q-76 55 -125 127
q61 73 125 127q88 -74 112 -111q57 62 111 111q90 -74 127 -127q-49 -72 -127 -127z" />
    <glyph glyph-name="uniFB78" unicode="&#x683;" horiz-adv-x="1308" arabic-form="initial" 
d="M161 0h-160l-33 6v195l33 6h237q224 0 428 90q116 53 144 61q-111 36 -246 111l-250 141l-186 -127l-43 47q182 258 280 258q23 0 301 -153q226 -129 385 -129h168l9 -27l-66 -155h-162q-31 -5 -375 -201q-205 -123 -464 -123zM906 -260q-58 45 -115 113
q-49 -66 -116 -113q-76 57 -127 131q63 76 127 131q92 -76 118 -115q77 84 113 115q92 -76 131 -131q-51 -74 -131 -131z" />
    <glyph glyph-name="uniFB79" unicode="&#x683;" horiz-adv-x="1327" arabic-form="medial" 
d="M161 0h-160l-33 6v195l33 6h237q230 0 430 92q107 49 142 59q-115 39 -246 111l-250 141l-186 -127l-43 47q182 258 280 258q23 0 301 -153q226 -129 385 -129h164l8 -27l-67 -155l-101 -7q5 -110 130 -110h143l33 -6v-195l-33 -6h-152q-203 0 -203 217q0 44 9 98
q-37 -8 -357 -192q-205 -123 -464 -123zM799 -291q-58 45 -114 113q-51 -66 -117 -113q-76 58 -127 131q64 76 127 131q92 -75 119 -114q52 62 112 114q93 -75 132 -131q-52 -73 -132 -131z" />
    <glyph glyph-name="uniFB7A" unicode="&#x686;" horiz-adv-x="1300" arabic-form="isolated" 
d="M1276 -422q-319 -205 -451 -205q-257 0 -439 102q-153 87 -194 206q-44 108 -44 218q0 13 1 27q46 310 418 518q53 27 188 39l2 11q-110 10 -261 41q-147 31 -193 34l-160 -141l-43 37q158 295 231 295q42 0 276 -47q233 -47 392 -47h213l8 -25l-65 -162h-105
q-301 -70 -608 -323q-169 -142 -203 -306q141 -251 670 -251q117 0 354 22zM766 37q-82 -82 -107 -111q-86 72 -121 123q49 68 121 121q55 -41 107 -104q47 59 108 104q70 -53 117 -121q-60 -72 -117 -123q-104 105 -108 111zM878 -172q-59 -66 -112 -115q-80 64 -115 115
q43 66 115 117q63 -51 112 -117z" />
    <glyph glyph-name="uniFB7B" unicode="&#x686;" horiz-adv-x="1326" arabic-form="final" 
d="M1276 -422q-319 -205 -451 -205q-257 0 -439 102q-153 87 -194 206q-44 108 -44 218q0 13 1 27q46 310 418 518q53 27 188 39l2 11q-110 10 -261 41q-147 31 -193 34l-160 -141l-43 37q158 295 231 295q42 0 276 -47q233 -47 392 -47h213l8 -25l-65 -162l-101 2
q-2 -36 -2 -66q0 -91 22 -135q38 -73 159 -73h94l33 -6v-195l-33 -6h-101q-187 0 -243 141q-22 55 -22 128q0 85 30 194q-283 -88 -549 -307q-169 -142 -203 -306q141 -251 670 -251q117 0 354 22zM723 33l-58 -61q-40 -42 -47 -50q-86 72 -121 123q47 68 121 121
q53 -41 105 -105q47 60 108 105q70 -53 117 -121q-57 -70 -117 -123zM835 -176q-59 -66 -112 -115q-80 66 -115 115q45 65 115 117q63 -52 112 -117z" />
    <glyph glyph-name="uniFB7C" unicode="&#x686;" horiz-adv-x="1308" arabic-form="initial" 
d="M161 0h-160l-33 6v195l33 6h237q224 0 428 90q116 53 144 61q-111 36 -246 111l-250 141l-186 -127l-43 47q182 258 280 258q23 0 301 -153q226 -129 385 -129h168l9 -27l-66 -155h-162q-31 -5 -375 -201q-205 -123 -464 -123zM799 -109l-112 -116q-90 75 -127 129
q51 71 127 127q41 -31 112 -109q50 62 115 109q74 -56 123 -127q-61 -74 -123 -129q-110 110 -115 116zM918 -330q-61 -69 -119 -121q-86 68 -120 121q45 70 120 123q66 -53 119 -123z" />
    <glyph glyph-name="uniFB7D" unicode="&#x686;" horiz-adv-x="1327" arabic-form="medial" 
d="M161 0h-160l-33 6v195l33 6h237q230 0 430 92q107 49 142 59q-115 39 -246 111l-250 141l-186 -127l-43 47q182 258 280 258q23 0 301 -153q226 -129 385 -129h164l8 -27l-67 -155l-101 -7q5 -110 130 -110h143l33 -6v-195l-33 -6h-152q-203 0 -203 217q0 44 9 98
q-37 -8 -357 -192q-205 -123 -464 -123zM709 -139q-109 -117 -110 -117q-92 76 -127 129q49 72 127 127q57 -44 110 -109q50 62 115 109q74 -55 125 -127q-63 -74 -125 -129zM828 -360q-61 -70 -119 -121q-84 67 -120 121q47 69 120 122q68 -53 119 -122z" />
    <glyph glyph-name="uniFB7E" unicode="&#x687;" horiz-adv-x="1300" arabic-form="isolated" 
d="M1276 -422q-319 -205 -451 -205q-257 0 -439 102q-153 87 -194 206q-44 108 -44 218q0 13 1 27q46 310 418 518q53 27 188 39l2 11q-110 10 -261 41q-147 31 -193 34l-160 -141l-43 37q158 295 231 295q42 0 276 -47q233 -47 392 -47h213l8 -25l-65 -162h-105
q-301 -70 -608 -323q-169 -142 -203 -306q141 -251 670 -251q117 0 354 22zM788 -158q-39 -51 -108 -102q-72 53 -119 117q26 33 108 108q-77 70 -108 111l119 119q89 -75 108 -107q42 48 109 107q88 -74 116 -119q-33 -50 -106 -109q84 -78 106 -110q-35 -56 -116 -117
q-86 64 -109 102zM888 -33l-102 101l-98 -101l98 -102z" />
    <glyph glyph-name="uniFB7F" unicode="&#x687;" horiz-adv-x="1326" arabic-form="final" 
d="M1276 -422q-319 -205 -451 -205q-257 0 -439 102q-153 87 -194 206q-44 108 -44 218q0 13 1 27q46 310 418 518q53 27 188 39l2 11q-110 10 -261 41q-147 31 -193 34l-160 -141l-43 37q158 295 231 295q42 0 276 -47q233 -47 392 -47h213l8 -25l-65 -162l-101 2
q-2 -36 -2 -66q0 -91 22 -135q38 -73 159 -73h94l33 -6v-195l-33 -6h-101q-187 0 -243 141q-22 55 -22 128q0 85 30 194q-283 -88 -549 -307q-169 -142 -203 -306q141 -251 670 -251q117 0 354 22zM714 -180q-36 -50 -106 -101q-74 58 -115 115q17 25 107 107
q-78 65 -107 108l115 115q81 -63 106 -105q24 28 107 105q86 -72 115 -115q-9 -12 -105 -108q85 -79 105 -107q-39 -57 -115 -115q-77 61 -107 101zM813 -59l-99 98l-98 -98l98 -99z" />
    <glyph glyph-name="uniFB80" unicode="&#x687;" horiz-adv-x="1308" arabic-form="initial" 
d="M161 0h-160l-33 6v195l33 6h237q224 0 428 90q116 53 144 61q-111 36 -246 111l-250 141l-186 -127l-43 47q182 258 280 258q23 0 301 -153q226 -129 385 -129h168l9 -27l-66 -155h-162q-31 -5 -375 -201q-205 -123 -464 -123zM797 -336q-33 -43 -112 -108
q-77 61 -123 122q31 40 113 115q-84 71 -113 115q18 24 123 123q76 -59 112 -111q18 22 113 111q77 -60 121 -123q-31 -48 -111 -115q92 -85 111 -115q-34 -56 -121 -122q-87 66 -113 108zM902 -207l-107 105l-102 -105l102 -104z" />
    <glyph glyph-name="uniFB81" unicode="&#x687;" horiz-adv-x="1327" arabic-form="medial" 
d="M161 0h-160l-33 6v195l33 6h237q230 0 430 92q107 49 142 59q-115 39 -246 111l-250 141l-186 -127l-43 47q182 258 280 258q23 0 301 -153q226 -129 385 -129h164l8 -27l-67 -155l-101 -7q5 -110 130 -110h143l33 -6v-195l-33 -6h-152q-203 0 -203 217q0 44 9 98
q-37 -8 -357 -192q-205 -123 -464 -123zM693 -367q-33 -43 -113 -108q-76 61 -123 123q23 32 113 114q-83 71 -113 115q19 25 123 123q83 -63 111 -111q16 19 115 111q77 -59 120 -123q-30 -48 -110 -115q91 -84 110 -114q-37 -59 -120 -123q-88 67 -113 108zM797 -238
l-106 105l-102 -105l102 -104z" />
    <glyph glyph-name="uniFB82" unicode="&#x68d;" horiz-adv-x="942" arabic-form="isolated" 
d="M100 201q0 124 70 254l61 -19q-20 -69 -20 -117q0 -56 30 -79q43 -33 172 -33q211 0 340 18q-101 271 -325 568l108 174h37q289 -460 289 -693q0 -34 -57 -132q-58 -100 -87 -113q-68 -29 -356 -29q-262 0 -262 201zM618 -449q-58 45 -115 113q-49 -65 -116 -113
q-76 58 -127 132q63 75 127 131q92 -76 119 -115q51 62 112 115q92 -76 131 -131q-51 -74 -131 -132z" />
    <glyph glyph-name="uniFB83" unicode="&#x68d;" horiz-adv-x="1020" arabic-form="final" 
d="M626 -449q-58 45 -114 113q-50 -65 -117 -113q-76 58 -127 132q63 75 127 131q92 -76 119 -115q51 62 112 115q92 -76 131 -131q-51 -74 -131 -132zM723 217q-9 23 -242 596l121 154h37l155 -500q69 -194 91 -221q31 -39 137 -39l32 -6v-195l-32 -6h-27q-159 0 -244 158
l-96 -127q-84 -31 -293 -31q-262 0 -262 201q0 124 70 254l61 -19q-20 -69 -20 -117q0 -56 30 -79q43 -33 172 -33q146 0 310 10z" />
    <glyph glyph-name="uniFB84" unicode="&#x68c;" horiz-adv-x="942" arabic-form="isolated" 
d="M618 1171q-62 46 -112 113q-52 -65 -119 -113q-76 58 -127 132q63 75 127 131q92 -76 119 -115q76 83 112 115q94 -76 131 -131q-51 -74 -131 -132zM100 201q0 124 70 254l61 -19q-20 -69 -20 -117q0 -56 30 -79q43 -33 172 -33q211 0 340 18q-101 271 -325 568l108 174
h37q289 -460 289 -693q0 -34 -57 -132q-58 -100 -87 -113q-68 -29 -356 -29q-262 0 -262 201z" />
    <glyph glyph-name="uniFB85" unicode="&#x68c;" horiz-adv-x="1020" arabic-form="final" 
d="M657 1171q-53 39 -115 113q-51 -65 -116 -113q-78 58 -127 132q63 75 127 131q92 -76 116 -115q76 82 115 115q92 -76 131 -131q-51 -74 -131 -132zM723 217q-9 23 -242 596l121 154h37l155 -500q69 -194 91 -221q31 -39 137 -39l32 -6v-195l-32 -6h-27q-159 0 -244 158
l-96 -127q-84 -31 -293 -31q-262 0 -262 201q0 124 70 254l61 -19q-20 -69 -20 -117q0 -56 30 -79q43 -33 172 -33q146 0 310 10z" />
    <glyph glyph-name="uniFB86" unicode="&#x68e;" horiz-adv-x="942" arabic-form="isolated" 
d="M405 1513q64 70 119 121q86 -67 121 -121q-45 -69 -121 -122q-66 53 -119 122zM637 1153q-68 52 -111 109q-51 -64 -117 -109q-71 55 -123 127q62 74 123 129l117 -117q109 118 111 118v-1q90 -76 127 -129q-50 -72 -127 -127zM100 201q0 124 70 254l61 -19
q-20 -69 -20 -117q0 -56 30 -79q43 -33 172 -33q211 0 340 18q-101 271 -325 568l108 174h37q289 -460 289 -693q0 -34 -57 -132q-58 -100 -87 -113q-68 -29 -356 -29q-262 0 -262 201z" />
    <glyph glyph-name="uniFB87" unicode="&#x68e;" horiz-adv-x="1018" arabic-form="final" 
d="M458 1503q62 70 119 121q84 -68 119 -121q-45 -69 -119 -123q-67 54 -119 123zM688 1143q-58 44 -111 108q-51 -61 -117 -108q-71 55 -122 127q61 73 122 129l117 -117q112 120 113 120l-2 -3q90 -76 127 -129q-49 -72 -127 -127zM993 0q-159 0 -244 158l-96 -127
q-77 -31 -293 -31q-260 0 -260 201q0 107 68 254l61 -19q-20 -69 -20 -117q0 -56 30 -79q44 -33 174 -33q144 0 308 10l-242 596l121 154h37l157 -500q67 -192 90 -221q31 -39 136 -39l32 -6v-195l-32 -6h-27z" />
    <glyph glyph-name="uniFB88" unicode="&#x688;" horiz-adv-x="942" arabic-form="isolated" 
d="M100 201q0 124 70 254l61 -19q-20 -69 -20 -117q0 -56 30 -79q43 -33 172 -33q211 0 340 18q-101 271 -325 568l108 174h37q289 -460 289 -693q0 -34 -57 -132q-58 -100 -87 -113q-68 -29 -356 -29q-262 0 -262 201zM706 1289q-42 94 -114 94t-180 -116q40 -2 118 -2
q114 0 176 24zM414 1356q113 150 202 150q53 0 102 -65q47 -61 47 -122q0 -21 -35 -74q-33 -51 -50 -62q-55 -35 -194 -35q-69 0 -136 13l-123 96l5 18l125 -7l18 28q-18 182 -23 281l-17 47l84 80l18 -11v-35l46 -80l-34 -35l-2 -86q0 -14 -18 -64q-11 -27 -15 -37z" />
    <glyph glyph-name="uniFB89" unicode="&#x688;" horiz-adv-x="1020" arabic-form="final" 
d="M776 1289q-42 94 -114 94t-180 -116q40 -2 118 -2q114 0 176 24zM484 1356q113 150 202 150q53 0 102 -65q47 -61 47 -122q0 -21 -35 -74q-33 -51 -50 -62q-55 -35 -194 -35q-69 0 -136 13l-123 96l5 18l125 -7l18 28q-18 182 -23 281l-17 47l84 80l18 -11v-35l46 -80
l-34 -35l-2 -86q0 -14 -18 -64q-11 -27 -15 -37zM723 217q-9 23 -242 596l121 154h37l155 -500q69 -194 91 -221q31 -39 137 -39l32 -6v-195l-32 -6h-27q-159 0 -244 158l-96 -127q-84 -31 -293 -31q-262 0 -262 201q0 124 70 254l61 -19q-20 -69 -20 -117q0 -56 30 -79
q43 -33 172 -33q146 0 310 10z" />
    <glyph glyph-name="uniFB8A" unicode="&#x698;" horiz-adv-x="785" arabic-form="isolated" 
d="M343 1298q62 70 119 121q84 -67 119 -121q-45 -67 -119 -122q-68 55 -119 122zM573 938q-58 44 -111 109q-51 -62 -117 -109q-71 55 -123 127q62 76 123 129q111 -111 117 -115q86 86 111 115q90 -76 127 -129q-50 -72 -127 -127zM160 -323q-126 67 -157 94l25 57
q115 -27 174 -27q150 0 273 135q92 102 140 240l-206 408l133 166h34q127 -388 127 -432v-1q2 -13 2 -237q-5 -123 -118 -289q-126 -186 -254 -186q-36 0 -173 72z" />
    <glyph glyph-name="uniFB8B" unicode="&#x698;" horiz-adv-x="882" arabic-form="final" 
d="M398 1204q62 70 119 121q86 -68 121 -121q-45 -67 -121 -123q-68 56 -119 123zM630 844q-53 38 -113 110q-49 -63 -115 -110q-73 55 -123 127q62 76 123 129l115 -115q19 17 63 63l50 52q90 -74 127 -129q-52 -72 -127 -127zM581 166q-11 26 -136 307l131 158h29l47 -195
q39 -149 74 -186q40 -43 158 -43l32 -6v-195l-32 -6h-25q-94 0 -190 84q-12 -139 -105 -294q-110 -185 -244 -185q-35 0 -166 72q-119 66 -151 94l25 57q94 -25 159 -25q271 0 394 363z" />
    <glyph glyph-name="uniFB8C" unicode="&#x691;" horiz-adv-x="785" arabic-form="isolated" 
d="M160 -323q-126 67 -157 94l25 57q115 -27 174 -27q150 0 273 135q92 102 140 240l-206 408l133 166h34q127 -388 127 -432v-1q2 -13 2 -237q-5 -123 -118 -289q-126 -186 -254 -186q-36 0 -173 72zM686 1076q-42 94 -114 94t-180 -116q40 -2 118 -2q114 0 176 24z
M394 1143q113 150 202 150q53 0 102 -65q47 -61 47 -122q0 -21 -35 -74q-33 -51 -50 -62q-55 -35 -194 -35q-69 0 -136 13l-123 96l5 18l125 -7l18 28q-18 182 -23 281l-17 47l84 80l18 -11v-35l46 -80l-34 -35l-2 -86q0 -14 -18 -64q-11 -27 -15 -37z" />
    <glyph glyph-name="uniFB8D" unicode="&#x691;" horiz-adv-x="882" arabic-form="final" 
d="M716 976q-42 94 -114 94t-180 -116q40 -2 118 -2q114 0 176 24zM424 1043q113 150 202 150q53 0 102 -65q47 -61 47 -122q0 -21 -35 -74q-33 -51 -50 -62q-55 -35 -194 -35q-69 0 -136 13l-123 96l5 18l125 -7l18 28q-18 182 -23 281l-17 47l84 80l18 -11v-35l46 -80
l-34 -35l-2 -86q0 -14 -18 -64q-11 -27 -15 -37zM581 166q-11 26 -136 307l131 158h29l47 -195q39 -149 74 -186q40 -43 158 -43l32 -6v-195l-32 -6h-25q-94 0 -190 84q-12 -139 -105 -294q-110 -185 -244 -185q-35 0 -166 72q-119 66 -151 94l25 57q94 -25 159 -25
q271 0 394 363z" />
    <glyph glyph-name="uniFB8E" unicode="&#x6a9;" horiz-adv-x="1573" arabic-form="isolated" 
d="M100 365q0 204 160 442l59 -31q-82 -182 -82 -291q0 -278 428 -278q479 0 680 14q-62 166 -436 400l-35 -35l-162 114q-3 2 -3 12q0 29 29 127q40 129 60 138l707 407l20 -14l-39 -205l-598 -307q278 -151 436 -327q132 -145 132 -240q0 -24 -58 -127q-58 -104 -84 -123
q-70 -41 -688 -41q-526 0 -526 365z" />
    <glyph glyph-name="uniFB8F" unicode="&#x6a9;" horiz-adv-x="1772" arabic-form="final" 
d="M1773 0h-33q-146 0 -236 62q-60 41 -175 184q-107 -197 -146 -211q-79 -35 -559 -35q-524 0 -524 369q0 192 156 430l55 -33q-80 -182 -80 -291q0 -268 432 -268q374 0 553 14v12q0 103 -92 242l-197 285q-2 3 -2 10q0 26 29 107q36 103 55 110l615 408l20 -17l-39 -202
l-514 -324q52 -78 238 -340q125 -178 207 -240q86 -65 204 -65h33l33 -6v-195z" />
    <glyph glyph-name="uniFB90" unicode="&#x6a9;" horiz-adv-x="938" arabic-form="initial" 
d="M1 0l-33 6v195l33 6h309q309 0 395 24q-71 165 -432 390l-37 -35l-159 114q-3 3 -3 13q0 30 28 126q39 129 59 138l706 407l23 -14l-39 -205l-598 -307q277 -151 434 -327q131 -145 131 -240q0 -26 -43 -123q-45 -100 -70 -119q-62 -49 -420 -49h-284z" />
    <glyph glyph-name="uniFB91" unicode="&#x6a9;" horiz-adv-x="925" arabic-form="medial" 
d="M77 0h-76l-33 6v195l33 6h123q186 0 247 16v12q0 101 -92 240l-196 285q-2 3 -2 11q0 27 28 106q36 103 56 110l612 408l22 -17l-38 -202l-514 -324q51 -78 237 -340q125 -178 207 -240q87 -65 205 -65h30l33 -6v-195l-33 -6h-30q-147 0 -237 63q-60 41 -179 187
q-111 -204 -147 -217q-66 -33 -256 -33z" />
    <glyph glyph-name="uniFB92" unicode="&#x6af;" horiz-adv-x="1573" arabic-form="isolated" 
d="M753 1214l704 394l9 -11l-11 -84l-704 -393l-6 10zM100 365q0 204 159 442l60 -31q-82 -182 -82 -291q0 -278 428 -278q479 0 680 14q-62 166 -436 400l-35 -35l-162 114q-3 3 -3 12q0 30 29 127q39 129 60 138l707 407l20 -14l-39 -205l-598 -307q277 -151 436 -327
q131 -145 131 -240q0 -24 -57 -127q-58 -104 -84 -123q-71 -41 -688 -41q-526 0 -526 365z" />
    <glyph glyph-name="uniFB93" unicode="&#x6af;" horiz-adv-x="1772" arabic-form="final" 
d="M917 1190l686 438l6 -10l-10 -84l-684 -438l-6 10zM1773 0h-33q-146 0 -236 62q-60 41 -176 184q-107 -197 -145 -211q-80 -35 -559 -35q-524 0 -524 369q0 192 155 430l56 -33q-80 -182 -80 -291q0 -268 432 -268q374 0 553 14v12q0 103 -92 242l-197 285q-2 3 -2 10
q0 27 28 107q36 103 56 110l614 408l21 -17l-39 -202l-514 -324q52 -78 237 -340q125 -178 208 -240q86 -65 204 -65h33l33 -6v-195z" />
    <glyph glyph-name="uniFB94" unicode="&#x6af;" horiz-adv-x="938" arabic-form="initial" 
d="M115 1214l707 394l6 -11l-10 -84l-703 -393l-6 10zM1 0l-33 6v195l33 6h309q309 0 395 24q-71 165 -432 390l-37 -35l-159 114q-3 3 -3 13q0 30 28 126q39 129 59 138l706 407l23 -14l-39 -205l-598 -307q277 -151 434 -327q131 -145 131 -240q0 -26 -43 -123
q-45 -100 -70 -119q-62 -49 -420 -49h-284z" />
    <glyph glyph-name="uniFB95" unicode="&#x6af;" horiz-adv-x="925" arabic-form="medial" 
d="M71 1190l686 438l6 -10l-10 -84l-684 -438l-7 10zM77 0h-76l-33 6v195l33 6h123q186 0 248 16v10q0 101 -92 242l-197 285q-2 3 -2 11q0 27 28 106q36 103 56 110l612 408l23 -17l-39 -202l-514 -324q52 -78 237 -340q125 -178 208 -240q86 -65 204 -65h31l32 -6v-195
l-32 -6h-31q-146 0 -237 63q-60 41 -179 187q-110 -204 -147 -217q-66 -33 -256 -33z" />
    <glyph glyph-name="uniFB96" unicode="&#x6b3;" horiz-adv-x="1573" arabic-form="isolated" 
d="M753 1214l704 394l9 -11l-11 -84l-704 -393l-6 10zM100 365q0 204 159 442l60 -31q-82 -182 -82 -291q0 -278 428 -278q479 0 680 14q-62 166 -436 400l-35 -35l-162 114q-3 3 -3 12q0 30 29 127q39 129 60 138l707 407l20 -14l-39 -205l-598 -307q277 -151 436 -327
q131 -145 131 -240q0 -24 -57 -127q-58 -104 -84 -123q-71 -41 -688 -41q-526 0 -526 365zM626 -530q76 92 115 117q-74 67 -115 114q76 93 132 129q73 -49 131 -129q-39 -53 -113 -114q66 -51 113 -117q-58 -78 -131 -127q-76 61 -132 127z" />
    <glyph glyph-name="uniFB97" unicode="&#x6b3;" horiz-adv-x="1772" arabic-form="final" 
d="M917 1190l686 438l6 -10l-10 -84l-684 -438l-6 10zM1773 0h-33q-146 0 -236 62q-60 41 -176 184q-107 -197 -145 -211q-80 -35 -559 -35q-524 0 -524 369q0 192 155 430l56 -33q-80 -182 -80 -291q0 -268 432 -268q374 0 553 14v12q0 103 -92 242l-197 285q-2 3 -2 10
q0 27 28 107q36 103 56 110l614 408l21 -17l-39 -202l-514 -324q52 -78 237 -340q125 -178 208 -240q86 -65 204 -65h33l33 -6v-195zM626 -530q76 92 115 117q-74 67 -115 114q76 93 132 129q73 -49 131 -129q-39 -53 -113 -114q66 -51 113 -117q-58 -78 -131 -127
q-76 61 -132 127z" />
    <glyph glyph-name="uniFB98" unicode="&#x6b3;" horiz-adv-x="938" arabic-form="initial" 
d="M115 1214l707 394l6 -11l-10 -84l-703 -393l-6 10zM1 0l-33 6v195l33 6h309q309 0 395 24q-71 165 -432 390l-37 -35l-159 114q-3 3 -3 13q0 30 28 126q39 129 59 138l706 407l23 -14l-39 -205l-598 -307q277 -151 434 -327q131 -145 131 -240q0 -26 -43 -123
q-45 -100 -70 -119q-62 -49 -420 -49h-284zM298 -530q76 92 115 117q-74 67 -115 114q76 93 132 129q73 -49 131 -129q-39 -53 -113 -114q66 -51 113 -117q-58 -78 -131 -127q-76 61 -132 127z" />
    <glyph glyph-name="uniFB99" unicode="&#x6b3;" horiz-adv-x="925" arabic-form="medial" 
d="M71 1190l686 438l6 -10l-10 -84l-684 -438l-7 10zM77 0h-76l-33 6v195l33 6h123q186 0 248 16v10q0 101 -92 242l-197 285q-2 3 -2 11q0 27 28 106q36 103 56 110l612 408l23 -17l-39 -202l-514 -324q52 -78 237 -340q125 -178 208 -240q86 -65 204 -65h31l32 -6v-195
l-32 -6h-31q-146 0 -237 63q-60 41 -179 187q-110 -204 -147 -217q-66 -33 -256 -33zM298 -530q76 92 115 117q-74 67 -115 114q76 93 132 129q73 -49 131 -129q-39 -53 -113 -114q66 -51 113 -117q-58 -78 -131 -127q-76 61 -132 127z" />
    <glyph glyph-name="uniFB9A" unicode="&#x6b1;" horiz-adv-x="1573" arabic-form="isolated" 
d="M753 1214l704 394l9 -11l-11 -84l-704 -393l-6 10zM100 365q0 204 159 442l60 -31q-82 -182 -82 -291q0 -278 428 -278q479 0 680 14q-62 166 -436 400l-35 -35l-162 114q-3 3 -3 12q0 30 29 127q39 129 60 138l707 407l20 -14l-39 -205l-598 -307q277 -151 436 -327
q131 -145 131 -240q0 -24 -57 -127q-58 -104 -84 -123q-71 -41 -688 -41q-526 0 -526 365zM1052 1473q-45 34 -113 109q-49 -62 -114 -109q-72 55 -123 127q61 74 123 129q110 -111 114 -117q88 88 113 117q90 -76 127 -129q-49 -72 -127 -127z" />
    <glyph glyph-name="uniFB9B" unicode="&#x6b1;" horiz-adv-x="1772" arabic-form="final" 
d="M917 1190l686 438l6 -10l-10 -84l-684 -438l-6 10zM1773 0h-33q-146 0 -236 62q-60 41 -176 184q-107 -197 -145 -211q-80 -35 -559 -35q-524 0 -524 369q0 192 155 430l56 -33q-80 -182 -80 -291q0 -268 432 -268q374 0 553 14v12q0 103 -92 242l-197 285q-2 3 -2 10
q0 27 28 107q36 103 56 110l614 408l21 -17l-39 -202l-514 -324q52 -78 237 -340q125 -178 208 -240q86 -65 204 -65h33l33 -6v-195zM1232 1473q-45 34 -113 109q-49 -62 -114 -109q-72 55 -123 127q61 74 123 129q110 -111 114 -117q88 88 113 117q90 -76 127 -129
q-49 -72 -127 -127z" />
    <glyph glyph-name="uniFB9C" unicode="&#x6b1;" horiz-adv-x="938" arabic-form="initial" 
d="M115 1214l707 394l6 -11l-10 -84l-703 -393l-6 10zM1 0l-33 6v195l33 6h309q309 0 395 24q-71 165 -432 390l-37 -35l-159 114q-3 3 -3 13q0 30 28 126q39 129 59 138l706 407l23 -14l-39 -205l-598 -307q277 -151 434 -327q131 -145 131 -240q0 -26 -43 -123
q-45 -100 -70 -119q-62 -49 -420 -49h-284zM452 1473q-45 34 -113 109q-49 -62 -114 -109q-72 55 -123 127q61 74 123 129q110 -111 114 -117q88 88 113 117q90 -76 127 -129q-49 -72 -127 -127z" />
    <glyph glyph-name="uniFB9D" unicode="&#x6b1;" horiz-adv-x="925" arabic-form="medial" 
d="M71 1190l686 438l6 -10l-10 -84l-684 -438l-7 10zM77 0h-76l-33 6v195l33 6h123q186 0 248 16v10q0 101 -92 242l-197 285q-2 3 -2 11q0 27 28 106q36 103 56 110l612 408l23 -17l-39 -202l-514 -324q52 -78 237 -340q125 -178 208 -240q86 -65 204 -65h31l32 -6v-195
l-32 -6h-31q-146 0 -237 63q-60 41 -179 187q-110 -204 -147 -217q-66 -33 -256 -33zM382 1473q-45 34 -113 109q-49 -62 -114 -109q-72 55 -123 127q61 74 123 129q110 -111 114 -117q88 88 113 117q90 -76 127 -129q-49 -72 -127 -127z" />
    <glyph glyph-name="uniFB9E" unicode="&#x6ba;" horiz-adv-x="1163" arabic-form="isolated" 
d="M100 -39q0 203 160 442l53 -26q-76 -180 -76 -295q0 -266 330 -266q221 0 389 90q-20 231 -129 594l147 135h37q72 -304 72 -565q0 -45 -2 -90q-4 -41 -55 -136q-47 -88 -68 -106q-133 -133 -434 -133q-424 0 -424 356z" />
    <glyph glyph-name="uniFB9F" unicode="&#x6ba;" horiz-adv-x="1293" arabic-form="final" 
d="M100 -39q0 203 160 442l53 -26q-76 -180 -76 -295q0 -266 330 -266q217 0 389 90l-74 569l148 115h37l8 -154q9 -139 36 -175q40 -54 183 -54l33 -6v-195l-33 -6q-144 0 -209 92l2 -78q-54 -207 -129 -276q-133 -133 -434 -133q-424 0 -424 356z" />
    <glyph glyph-name="uniFBA0" unicode="&#x6bb;" horiz-adv-x="1163" arabic-form="isolated" 
d="M100 -39q0 203 159 442l54 -26q-76 -180 -76 -295q0 -266 330 -266q220 0 389 90q-21 231 -129 594l147 135h37q72 -304 72 -565q0 -45 -2 -90q-5 -41 -56 -136q-47 -88 -67 -106q-133 -133 -434 -133q-424 0 -424 356zM757 788q-42 94 -114 94t-180 -116q40 -2 118 -2
q114 0 176 24zM465 855q113 150 202 150q53 0 102 -65q47 -61 47 -122q0 -21 -35 -74q-33 -51 -50 -62q-55 -35 -194 -35q-69 0 -136 13l-123 96l5 18l125 -7l18 28q-18 182 -23 281l-17 47l84 80l18 -11v-35l46 -80l-34 -35l-2 -86q0 -14 -18 -64q-11 -27 -15 -37z" />
    <glyph glyph-name="uniFBA1" unicode="&#x6bb;" horiz-adv-x="1293" arabic-form="final" 
d="M100 -39q0 203 160 442l53 -26q-76 -180 -76 -295q0 -266 330 -266q217 0 389 90l-74 569l148 115h37l8 -154q9 -139 36 -175q40 -54 183 -54l33 -6v-195l-33 -6q-144 0 -209 92l2 -78q-54 -207 -129 -276q-133 -133 -434 -133q-424 0 -424 356zM788 788q-42 94 -115 94
q-72 0 -180 -116q41 -2 118 -2q115 0 177 24zM496 855q113 150 201 150q53 0 102 -65q47 -61 47 -122q0 -21 -34 -74q-34 -51 -51 -62q-55 -35 -194 -35q-68 0 -136 13l-123 96l6 18l124 -7l18 28q-18 182 -23 281l-17 47l84 80l18 -11v-35l46 -80l-34 -35l-1 -86
q0 -14 -18 -64q-11 -27 -15 -37z" />
    <glyph glyph-name="uniFBA2" unicode="&#x6bb;" horiz-adv-x="583" arabic-form="initial" 
d="M-32 6v195l33 6q261 0 332 16q-25 195 -97 463l140 137h34l82 -227l-2 -23l-49 -49q19 -126 19 -200q0 -28 -3 -48q-3 -38 -65 -133q-61 -95 -98 -118q-59 -25 -293 -25zM484 1183q-42 94 -114 94t-180 -116q40 -2 118 -2q114 0 176 24zM192 1250q113 150 202 150
q53 0 102 -65q47 -61 47 -122q0 -21 -35 -74q-33 -51 -50 -62q-55 -35 -194 -35q-69 0 -136 13l-123 96l5 18l125 -7l18 28q-18 182 -23 281l-17 47l84 80l18 -11v-35l46 -80l-34 -35l-2 -86q0 -14 -18 -64q-11 -27 -15 -37z" />
    <glyph glyph-name="uniFBA3" unicode="&#x6bb;" horiz-adv-x="610" arabic-form="medial" 
d="M611 0h-14q-218 0 -320 135q-80 -101 -104 -112q-48 -23 -172 -23l-33 6v195l33 6q132 0 203 18q20 97 73 332l127 84l29 -8q-21 -302 -47 -381q65 -45 225 -45l33 -6v-195zM491 987q-42 94 -114 94t-180 -116q40 -2 118 -2q114 0 176 24zM199 1054q113 150 202 150
q53 0 102 -65q47 -61 47 -122q0 -21 -35 -74q-33 -51 -50 -62q-55 -35 -194 -35q-69 0 -136 13l-123 96l5 18l125 -7l18 28q-18 182 -23 281l-17 47l84 80l18 -11v-35l46 -80l-34 -35l-2 -86q0 -14 -18 -64q-11 -27 -15 -37z" />
    <glyph glyph-name="uniFBA4" unicode="&#x6c0;" horiz-adv-x="837" arabic-form="isolated" 
d="M591 1137q-119 -60 -244 -60q-26 0 -143 97l6 32q96 0 119 4v2q-39 23 -39 93q0 77 49 140q54 68 131 68q68 0 100 -91q16 -45 19 -91l-35 -8q-27 49 -82 49q-64 0 -123 -49q29 -86 123 -86q72 0 164 35l10 -15zM161 79q-43 42 -55 91q-6 26 -6 58q0 53 16 124
q51 158 205 359q-7 5 -27 22q-17 15 -29 23l103 190h37q352 -355 352 -670q0 -33 -46 -121q-42 -81 -54 -89q-92 -66 -261 -66q-153 0 -235 79zM657 244q-30 179 -240 379q-174 -175 -227 -336q83 -80 243 -80q131 0 224 37z" />
    <glyph glyph-name="uniFBA5" unicode="&#x6c0;" horiz-adv-x="955" arabic-form="final" 
d="M663 1116q-119 -59 -244 -59q-26 0 -143 96l6 33q96 0 119 4v2q-39 22 -39 90q0 78 49 141q54 68 131 68q68 0 99 -90q16 -45 18 -90l-33 -8q-27 49 -82 49q-64 0 -123 -49q28 -86 123 -86q78 0 164 32l10 -14zM956 0h-86q-208 0 -244 252l-86 -135q-69 -19 -141 -19
q-226 0 -293 133q-6 14 -6 42q0 25 5 63q10 79 28 102q107 158 442 340l-6 86l149 109h37v-629q0 -97 19 -117q18 -20 106 -20h76l33 -6v-195zM610 313l-25 308q-266 -121 -379 -244q82 -78 254 -78q67 0 150 14z" />
    <glyph glyph-name="uniFBA6" unicode="&#x6c1;" horiz-adv-x="837" arabic-form="isolated" 
d="M161 79q-43 42 -55 91q-6 26 -6 58q0 53 16 124q51 158 205 359q-9 7 -27 22q-17 16 -26 23l100 190h37q352 -355 352 -670q0 -33 -45 -121q-42 -81 -55 -89q-92 -66 -260 -66q-154 0 -236 79zM657 244q-30 179 -240 379q-175 -176 -225 -336q80 -80 242 -80
q131 0 223 37z" />
    <glyph glyph-name="uniFBA7" unicode="&#x6c1;" horiz-adv-x="961" arabic-form="final" 
d="M962 0q-160 0 -234 116q-54 85 -83 287q-133 -4 -310 -84q-164 -74 -258 -161l-18 22l104 230q240 176 416 176q141 0 164 -137q23 -126 46 -164q48 -78 173 -78l33 -6v-195z" />
    <glyph glyph-name="uniFBA8" unicode="&#x6c1;" horiz-adv-x="529" arabic-form="initial" 
d="M-32 6v195l33 6q224 0 286 14q-24 195 -98 465l141 137h37l82 -227l-4 -23l-47 -49q18 -124 18 -201q0 -26 -2 -47q-4 -38 -65 -133q-62 -96 -98 -118q-59 -25 -250 -25zM259 -551q-156 66 -164 113q-1 12 -1 24q0 142 155 279l49 -37q-58 -77 -82 -164l121 -72v-18z" />
    <glyph glyph-name="uniFBA9" unicode="&#x6c1;" horiz-adv-x="831" arabic-form="medial" 
d="M515 -598q-318 275 -318 559q0 51 9 113q-54 -54 -62 -60q-24 -14 -143 -14l-33 6v195l33 6q193 0 266 22q30 57 78 127l129 52l8 -15q-154 -239 -154 -370q0 -176 166 -345l4 3q-28 77 -28 176q0 96 28 170q12 27 80 96q65 66 80 70q72 14 174 14l33 -6v-195l-33 -6h-73
q-125 0 -166 -8q-27 -57 -27 -135q0 -136 96 -271q-8 0 -141 -184h-6zM193 -782q-155 69 -164 114q-1 12 -1 23q0 139 155 280l49 -38q-59 -79 -80 -162q121 -71 121 -73h-1l-1 1v-20z" />
    <glyph glyph-name="uniFBAA" unicode="&#x6be;" horiz-adv-x="1283" arabic-form="isolated" 
d="M716 250q70 39 96 104q-11 109 -61 193q-50 86 -105 86q-49 0 -115 -72q-61 -65 -94 -143q89 -95 262 -176zM1107 125q-45 208 -195 346q7 -28 7 -51v-6q0 -117 -107 -221q161 -64 297 -76zM1203 147v-3q0 -43 -55 -128q-58 -88 -88 -88q-156 0 -406 148
q-140 -76 -301 -76q-41 0 -118 14l-207 181l10 24q172 -12 338 -12h84q-35 27 -60 55q-33 67 -33 138q0 33 7 67q44 154 155 246l-77 41l79 182l37 8q369 -236 514 -432q121 -165 121 -365z" />
    <glyph glyph-name="uniFBAB" unicode="&#x6be;" horiz-adv-x="1134" arabic-form="final" 
d="M953 -199q-47 236 -352 258q-73 0 -162 -30q92 -246 379 -246q84 0 135 18zM792 -418q-151 0 -268 102q-131 114 -169 320l-24 -4q-53 0 -103 10l-200 185l10 24q160 -8 309 -10q35 243 162 424q118 168 225 168q82 0 144 -141q51 -118 51 -214q0 -86 -99 -210
q-6 -10 -28 -29h334l32 -6v-195l-32 -6h-138q64 -60 64 -109v-5q0 -39 -47 -148q-47 -108 -64 -125q-26 -31 -159 -31zM436 208l46 1q249 12 334 149q-52 222 -141 222q-56 0 -132 -106q-83 -115 -107 -266z" />
    <glyph glyph-name="uniFBAC" unicode="&#x6be;" horiz-adv-x="1031" arabic-form="initial" 
d="M464 250q66 37 96 104q-12 110 -61 193q-50 86 -105 86q-49 0 -115 -72q-61 -65 -94 -143q89 -95 262 -176zM855 125q-45 210 -197 346q9 -25 9 -51v-6q0 -118 -109 -221q160 -63 299 -76zM951 147v-3q0 -43 -55 -128q-58 -88 -88 -88q-157 0 -408 150q-152 -78 -315 -78
h-84l-33 6v195l33 6h207q-35 27 -60 55q-33 67 -33 138q0 33 7 67q38 148 155 246l-77 41l80 182l36 8q368 -236 513 -432q122 -166 122 -365z" />
    <glyph glyph-name="uniFBAD" unicode="&#x6be;" horiz-adv-x="944" arabic-form="medial" 
d="M253 207q278 0 373 151q-22 85 -63 150q-44 72 -85 72q-51 0 -119 -97q-80 -112 -112 -276h6zM765 -199q-47 236 -354 258q-37 0 -164 -28q91 -248 381 -248q82 0 137 18zM603 -418q-153 0 -270 105q-132 116 -168 325q-98 -12 -164 -12l-33 6v195l33 6l156 2
q35 243 162 424q119 168 225 168q82 0 143 -141q51 -118 51 -214q0 -89 -96 -210l-31 -29h334l33 -6v-195l-33 -6h-137q63 -57 63 -109v-6q0 -38 -45 -147q-47 -109 -63 -125q-31 -31 -160 -31z" />
    <glyph glyph-name="uniFBAE" unicode="&#x6d2;" horiz-adv-x="1492" arabic-form="isolated" 
d="M1169 0h-575q-264 0 -402 87q-92 58 -92 106q0 29 40 122q40 96 62 111q642 428 699 428q31 0 71 -67q36 -58 36 -91q0 -4 -1 -8l-43 -221l-30 -2l-56 190q-172 -111 -647 -374q96 -74 481 -74h731v-33z" />
    <glyph glyph-name="uniFBAF" unicode="&#x6d2;" horiz-adv-x="1292" arabic-form="final" 
d="M615 -528q-400 0 -481 161q-34 76 -34 144q0 33 8 63q29 110 182 223q194 144 444 144h559l33 -6v-195l-33 -6h-592q-354 0 -522 -246q121 -76 555 -76h483v-32l-287 -174h-315z" />
    <glyph glyph-name="uniFBB0" unicode="&#x6d3;" horiz-adv-x="1492" arabic-form="isolated" 
d="M690 965q-123 -62 -246 -62q-27 0 -143 98l8 33q94 0 117 4v2q-39 23 -39 90q0 78 50 141q55 68 132 68q67 0 98 -91q16 -45 19 -91l-33 -6q-35 47 -82 47q-71 0 -125 -49q29 -86 125 -86q70 0 162 35l10 -15zM1169 0h-575q-264 0 -402 87q-92 58 -92 106q0 29 40 122
q40 96 62 111q642 428 699 428q31 0 71 -67q36 -58 36 -91q0 -4 -1 -8l-43 -221l-30 -2l-56 190q-172 -111 -647 -374q96 -74 481 -74h731v-33z" />
    <glyph glyph-name="uniFBB1" unicode="&#x6d3;" horiz-adv-x="1292" arabic-form="final" 
d="M671 442q-119 -59 -244 -59q-27 0 -143 96l6 33q96 0 119 4v2q-39 22 -39 90q0 78 49 141q54 68 131 68q68 0 100 -90q16 -45 19 -90l-35 -8q-27 49 -82 49q-64 0 -123 -49q27 -86 123 -86q77 0 164 32l10 -14zM615 -528q-400 0 -481 161q-34 76 -34 144q0 33 8 63
q29 110 182 223q194 144 444 144h559l33 -6v-195l-33 -6h-592q-354 0 -522 -246q121 -76 555 -76h483v-32l-287 -174h-315z" />
    <glyph glyph-name="uniFBD3" unicode="&#x6ad;" horiz-adv-x="1546" arabic-form="isolated" 
d="M520 616v15q263 11 330 26q-5 3 -139 37q-101 25 -101 82q0 81 81 150q75 64 183 94l10 -12v-136q-135 -28 -204 -69q105 -16 149 -27q92 -24 92 -102q0 -62 -57 -115q-28 -28 -197 -43zM100 365q0 204 160 442l59 -31q-82 -182 -82 -291q0 -278 428 -278q318 0 557 20
l-22 891l-58 148l193 186l39 -25v-102l92 -166l-94 -100v-703q0 -62 -80 -186q-76 -119 -119 -137q-139 -33 -547 -33q-526 0 -526 365zM1138 1931q61 70 118 121q86 -67 121 -121q-45 -69 -121 -122q-65 53 -118 122zM1369 1571q-45 34 -113 109q-49 -62 -114 -109
q-72 55 -123 127q61 74 123 129q110 -111 114 -117q88 88 113 117q90 -76 127 -129q-49 -72 -127 -127z" />
    <glyph glyph-name="uniFBD4" unicode="&#x6ad;" horiz-adv-x="1563" arabic-form="final" 
d="M520 616v15q263 12 330 26q-5 3 -140 37q-102 25 -102 82q0 81 81 150q75 64 183 94l10 -12v-136q-135 -28 -204 -69q111 -17 149 -27q92 -23 92 -102q0 -60 -55 -115q-28 -28 -199 -43zM1564 0q-241 0 -309 205l-88 -146q-131 -59 -541 -59q-526 0 -526 365
q0 204 160 442l59 -31q-82 -182 -82 -291q0 -278 428 -278q345 0 553 41l-26 1069l143 135h37v-999q0 -140 22 -181q37 -65 170 -65l33 -6v-195zM1138 1931q61 70 118 121q86 -67 121 -121q-45 -69 -121 -122q-65 53 -118 122zM1369 1571q-45 34 -113 109q-49 -62 -114 -109
q-72 55 -123 127q61 74 123 129q110 -111 114 -117q88 88 113 117q90 -76 127 -129q-49 -72 -127 -127z" />
    <glyph glyph-name="uniFBD5" unicode="&#x6ad;" horiz-adv-x="938" arabic-form="initial" 
d="M1 0l-33 6v195l33 6h309q309 0 395 24q-71 165 -432 390l-37 -35l-159 114q-3 3 -3 13q0 30 28 126q39 129 59 138l706 407l23 -14l-39 -205l-598 -307q277 -151 434 -327q131 -145 131 -240q0 -26 -43 -123q-45 -100 -70 -119q-62 -49 -420 -49h-284zM235 1671
q61 70 118 121q86 -67 121 -121q-45 -69 -121 -122q-65 53 -118 122zM466 1311q-45 34 -113 109q-49 -62 -114 -109q-72 55 -123 127q61 74 123 129q110 -111 114 -117q88 88 113 117q90 -76 127 -129q-49 -72 -127 -127z" />
    <glyph glyph-name="uniFBD6" unicode="&#x6ad;" horiz-adv-x="925" arabic-form="medial" 
d="M77 0h-76l-33 6v195l33 6h123q186 0 247 16v12q0 101 -92 240l-196 285q-2 3 -2 11q0 27 28 106q36 103 56 110l612 408l22 -17l-38 -202l-514 -324q51 -78 237 -340q125 -178 207 -240q87 -65 205 -65h30l33 -6v-195l-33 -6h-30q-147 0 -237 63q-60 41 -179 187
q-111 -204 -147 -217q-66 -33 -256 -33zM235 1671q61 70 118 121q86 -67 121 -121q-45 -69 -121 -122q-65 53 -118 122zM466 1311q-45 34 -113 109q-49 -62 -114 -109q-72 55 -123 127q61 74 123 129q110 -111 114 -117q88 88 113 117q90 -76 127 -129q-49 -72 -127 -127z
" />
    <glyph glyph-name="uniFBD7" unicode="&#x6c7;" horiz-adv-x="899" arabic-form="isolated" 
d="M674 229q-84 326 -226 326q-76 0 -143 -94q-60 -85 -82 -199q66 -57 223 -57q122 0 228 24zM248 -322q-126 69 -156 97l25 57q118 -29 192 -29q290 0 397 242q-2 48 -16 117l-78 -127q-69 -35 -184 -35q-152 0 -221 86q-62 89 -62 199q6 156 98 303q106 168 250 168
q132 0 225 -184q89 -177 89 -408q0 -78 -17 -168q-33 -154 -130 -266q-107 -125 -240 -125q-37 0 -172 73zM568 1156l4 31q0 74 -51 74q-26 0 -56 -20q-30 -19 -32 -37q42 -40 127 -62zM622 1021q-34 3 -68 13q-97 -88 -207 -105l-127 68l4 20q168 10 258 45q-75 38 -90 76
q-6 31 -6 54q0 30 10 48q51 117 150 117q45 0 73 -47q23 -41 23 -92q0 -46 -20 -90l57 -10v-19z" />
    <glyph glyph-name="uniFBD8" unicode="&#x6c7;" horiz-adv-x="920" arabic-form="final" 
d="M690 213q-26 124 -91 226q-74 116 -151 116t-145 -97q-60 -86 -80 -198q80 -53 266 -53h201v6zM248 -322q-126 69 -156 97l25 57q118 -29 192 -29q279 0 397 197h-217q-217 0 -280 84q-64 103 -64 201q6 156 98 303q106 168 250 168q123 0 215 -175q87 -164 95 -374h118
l33 -6v-195l-33 -6h-137q-29 -154 -122 -268q-106 -127 -242 -127q-37 0 -172 73zM578 1156l4 31q0 74 -51 74q-26 0 -56 -20q-30 -19 -32 -37q42 -40 127 -62zM632 1021q-34 3 -68 13q-97 -88 -207 -105l-127 68l4 20q168 10 258 45q-75 38 -90 76q-6 31 -6 54q0 30 10 48
q51 117 150 117q45 0 73 -47q23 -41 23 -92q0 -46 -20 -90l57 -10v-19z" />
    <glyph glyph-name="uniFBD9" unicode="&#x6c6;" horiz-adv-x="899" arabic-form="isolated" 
d="M420 977l-6 8q-44 126 -183 234l66 131l12 4q107 -100 170 -269q41 132 152 265l14 -2l49 -105q-127 -134 -170 -266h-104zM674 229q-84 326 -226 326q-76 0 -143 -94q-60 -85 -82 -199q66 -57 223 -57q122 0 228 24zM248 -322q-126 69 -156 97l25 57q118 -29 192 -29
q290 0 397 242q-2 48 -16 117l-78 -127q-69 -35 -184 -35q-152 0 -221 86q-62 89 -62 199q6 156 98 303q106 168 250 168q132 0 225 -184q89 -177 89 -408q0 -78 -17 -168q-33 -154 -130 -266q-107 -125 -240 -125q-37 0 -172 73z" />
    <glyph glyph-name="uniFBDA" unicode="&#x6c6;" horiz-adv-x="920" arabic-form="final" 
d="M420 977l-6 8q-44 126 -183 234l66 131l12 4q107 -100 170 -269q41 132 152 265l14 -2l49 -105q-127 -134 -170 -266h-104zM690 213q-26 124 -91 226q-74 116 -151 116t-145 -97q-60 -86 -80 -198q80 -53 266 -53h201v6zM248 -322q-126 69 -156 97l25 57q118 -29 192 -29
q279 0 397 197h-217q-217 0 -280 84q-64 103 -64 201q6 156 98 303q106 168 250 168q123 0 215 -175q87 -164 95 -374h118l33 -6v-195l-33 -6h-137q-29 -154 -122 -268q-106 -127 -242 -127q-37 0 -172 73z" />
    <glyph glyph-name="uniFBDB" unicode="&#x6c8;" horiz-adv-x="899" arabic-form="isolated" 
d="M674 229q-84 326 -226 326q-76 0 -143 -94q-60 -85 -82 -199q66 -57 223 -57q122 0 228 24zM248 -322q-126 69 -156 97l25 57q118 -29 192 -29q290 0 397 242q-2 48 -16 117l-78 -127q-69 -35 -184 -35q-152 0 -221 86q-62 89 -62 199q6 156 98 303q106 168 250 168
q132 0 225 -184q89 -177 89 -408q0 -78 -17 -168q-33 -154 -130 -266q-107 -125 -240 -125q-37 0 -172 73zM504 1276l17 -8l-27 -338l-67 -33h-21v336z" />
    <glyph glyph-name="uniFBDC" unicode="&#x6c8;" horiz-adv-x="920" arabic-form="final" 
d="M690 213q-26 124 -91 226q-74 116 -151 116t-145 -97q-60 -86 -80 -198q80 -53 266 -53h201v6zM248 -322q-126 69 -156 97l25 57q118 -29 192 -29q279 0 397 197h-217q-217 0 -280 84q-64 103 -64 201q6 156 98 303q106 168 250 168q123 0 215 -175q87 -164 95 -374h118
l33 -6v-195l-33 -6h-137q-29 -154 -122 -268q-106 -127 -242 -127q-37 0 -172 73zM504 1276l17 -8l-27 -338l-67 -33h-21v336z" />
    <glyph glyph-name="uniFBDD" unicode="&#x677;" horiz-adv-x="1061" arabic-form="isolated" 
d="M968 991q-119 -59 -244 -59q-26 0 -145 96l8 33q96 0 119 4v2q-41 23 -41 90q0 77 50 141q55 68 132 68q67 0 99 -90q15 -45 18 -90l-33 -8q-35 47 -82 47q-71 0 -125 -49q28 -84 125 -84q76 0 162 32l10 -14zM674 229q-84 326 -226 326q-76 0 -143 -94q-60 -85 -82 -199
q66 -57 223 -57q122 0 228 24zM248 -322q-126 69 -156 97l25 57q118 -29 192 -29q290 0 397 242q-2 48 -16 117l-78 -127q-69 -35 -184 -35q-152 0 -221 86q-62 89 -62 199q6 156 98 303q106 168 250 168q132 0 225 -184q89 -177 89 -408q0 -78 -17 -168q-33 -154 -130 -266
q-107 -125 -240 -125q-37 0 -172 73zM448 1156l4 31q0 74 -51 74q-26 0 -56 -20q-30 -19 -32 -37q42 -40 127 -62zM502 1021q-34 3 -68 13q-97 -88 -207 -105l-127 68l4 20q168 10 258 45q-75 38 -90 76q-6 31 -6 54q0 30 10 48q51 117 150 117q45 0 73 -47q23 -41 23 -92
q0 -46 -20 -90l57 -10v-19z" />
    <glyph glyph-name="uniFBDE" unicode="&#x6cb;" horiz-adv-x="899" arabic-form="isolated" 
d="M674 229q-84 326 -226 326q-76 0 -143 -94q-60 -85 -82 -199q66 -57 223 -57q122 0 228 24zM248 -322q-126 69 -156 97l25 57q118 -29 192 -29q290 0 397 242q-2 48 -16 117l-78 -127q-69 -35 -184 -35q-152 0 -221 86q-62 89 -62 199q6 156 98 303q106 168 250 168
q132 0 225 -184q89 -177 89 -408q0 -78 -17 -168q-33 -154 -130 -266q-107 -125 -240 -125q-37 0 -172 73zM344 1258q61 70 119 121q86 -68 120 -121q-45 -70 -120 -123q-66 53 -119 123zM575 897q-57 42 -112 109q-50 -63 -115 -109q-74 56 -123 127q61 74 123 129
q110 -110 115 -116q84 84 112 116q90 -75 127 -129q-51 -71 -127 -127z" />
    <glyph glyph-name="uniFBDF" unicode="&#x6cb;" horiz-adv-x="920" arabic-form="final" 
d="M690 213q-26 124 -91 226q-74 116 -151 116t-145 -97q-60 -86 -80 -198q80 -53 266 -53h201v6zM248 -322q-126 69 -156 97l25 57q118 -29 192 -29q279 0 397 197h-217q-217 0 -280 84q-64 103 -64 201q6 156 98 303q106 168 250 168q123 0 215 -175q87 -164 95 -374h118
l33 -6v-195l-33 -6h-137q-29 -154 -122 -268q-106 -127 -242 -127q-37 0 -172 73zM344 1258q61 70 119 121q86 -68 120 -121q-45 -70 -120 -123q-66 53 -119 123zM575 897q-57 42 -112 109q-50 -63 -115 -109q-74 56 -123 127q61 74 123 129q110 -110 115 -116
q84 84 112 116q90 -75 127 -129q-51 -71 -127 -127z" />
    <glyph glyph-name="uniFBE0" unicode="&#x6c5;" horiz-adv-x="899" arabic-form="isolated" 
d="M674 229q-84 326 -226 326q-76 0 -143 -94q-60 -85 -82 -199q66 -57 223 -57q122 0 228 24zM673 -17q18 29 33 62q-2 48 -16 117l-55 -88q-69 -35 -184 -35q-152 0 -238 70q-68 66 -68 176q6 156 98 303q106 168 250 168q132 0 225 -184q89 -177 89 -408q0 -78 -17 -168
q-33 -154 -130 -266q-107 -125 -240 -125q-37 0 -172 73q-126 69 -156 97l25 57q118 -29 192 -29q153 0 255 67h-336l49 113h396z" />
    <glyph glyph-name="uniFBE1" unicode="&#x6c5;" horiz-adv-x="920" arabic-form="final" 
d="M806 207h115l33 -6v-195l-33 -6h-130q-1 -2 -1 -4q-33 -154 -130 -266q-107 -125 -240 -125q-37 0 -172 73q-126 69 -156 97l25 57q118 -29 192 -29q153 0 255 67h-336l49 113h396q18 29 33 62q-2 48 -16 117l-55 -88q-69 -35 -184 -35q-152 0 -238 70q-68 66 -68 176
q6 156 98 303q106 168 250 168q132 0 225 -184q81 -160 88 -365zM690 213q-26 124 -91 226q-74 116 -151 116t-145 -97q-60 -86 -80 -198q80 -53 266 -53h201v6z" />
    <glyph glyph-name="uniFBE2" unicode="&#x6c9;" horiz-adv-x="899" arabic-form="isolated" 
d="M524 1354q43 -133 170 -267l-49 -104l-14 -2q-111 132 -152 264q-63 -168 -170 -268l-12 4l-66 131q139 108 183 234l6 8h104zM674 229q-84 326 -226 326q-76 0 -143 -94q-60 -85 -82 -199q66 -57 223 -57q122 0 228 24zM248 -322q-126 69 -156 97l25 57q118 -29 192 -29
q290 0 397 242q-2 48 -16 117l-78 -127q-69 -35 -184 -35q-152 0 -221 86q-62 89 -62 199q6 156 98 303q106 168 250 168q132 0 225 -184q89 -177 89 -408q0 -78 -17 -168q-33 -154 -130 -266q-107 -125 -240 -125q-37 0 -172 73z" />
    <glyph glyph-name="uniFBE3" unicode="&#x6c9;" horiz-adv-x="920" arabic-form="final" 
d="M524 1354q43 -133 170 -267l-49 -104l-14 -2q-111 132 -152 264q-63 -168 -170 -268l-12 4l-66 131q139 108 183 234l6 8h104zM690 213q-26 124 -91 226q-74 116 -151 116t-145 -97q-60 -86 -80 -198q80 -53 266 -53h201v6zM248 -322q-126 69 -156 97l25 57
q118 -29 192 -29q279 0 397 197h-217q-217 0 -280 84q-64 103 -64 201q6 156 98 303q106 168 250 168q123 0 215 -175q87 -164 95 -374h118l33 -6v-195l-33 -6h-137q-29 -154 -122 -268q-106 -127 -242 -127q-37 0 -172 73z" />
    <glyph glyph-name="uniFBE4" unicode="&#x6d0;" horiz-adv-x="1317" arabic-form="isolated" 
d="M191 -298q-91 94 -91 243q0 202 160 448l59 -31q-82 -167 -82 -276q0 -281 330 -281q323 0 575 136q-22 82 -237 137q-259 64 -303 151q-28 58 -28 124q0 53 18 112q32 119 166 232q155 128 327 128q43 0 95 -80q46 -72 46 -110q0 -37 -34 -211h-54l-45 205
q-328 -18 -432 -238q39 -45 277 -108q299 -84 299 -279q0 -148 -72 -225q-48 -48 -211 -110q-217 -83 -424 -83q-228 0 -339 116zM549 -915q76 92 115 117q-82 75 -115 114q76 92 131 129q74 -49 131 -129q-58 -75 -114 -114q65 -52 114 -117q-57 -78 -131 -129
q-76 63 -131 129z" />
    <glyph glyph-name="uniFBE5" unicode="&#x6d0;" horiz-adv-x="1260" arabic-form="final" 
d="M194 -356q-94 95 -94 241q0 205 160 451l59 -33q-82 -168 -82 -274q0 -281 330 -281q321 0 545 121q-71 131 -279 131h-35l-6 10l62 191l12 6h395l33 -6v-195l-33 -6h-76q25 -35 25 -68q0 -45 -34 -137q-33 -92 -56 -110q-216 -156 -590 -156q-223 0 -336 115zM499 -975
q76 92 115 117q-82 75 -115 114q76 92 131 129q74 -49 131 -129q-58 -75 -114 -114q65 -52 114 -117q-57 -78 -131 -129q-76 63 -131 129z" />
    <glyph glyph-name="uniFBE6" unicode="&#x6d0;" horiz-adv-x="529" arabic-form="initial" 
d="M-32 6v195l33 6q224 0 286 14q-24 195 -98 465l141 137h37l82 -227l-4 -23l-47 -49q18 -124 18 -201q0 -26 -2 -47q-4 -38 -65 -133q-62 -96 -98 -118q-59 -25 -250 -25zM99 -520q76 92 115 117q-82 75 -115 114q76 92 131 129q74 -49 131 -129q-58 -75 -114 -114
q65 -52 114 -117q-57 -78 -131 -129q-76 63 -131 129z" />
    <glyph glyph-name="uniFBE7" unicode="&#x6d0;" horiz-adv-x="610" arabic-form="medial" 
d="M611 0h-14q-218 0 -320 135q-80 -101 -104 -112q-48 -23 -172 -23l-33 6v195l33 6q132 0 203 18q20 97 73 332l127 84l29 -8q-21 -302 -47 -381q65 -45 225 -45l33 -6v-195zM137 -524q76 94 115 118q-84 77 -115 113q76 94 131 131q74 -51 131 -131q-45 -62 -113 -113
q66 -51 113 -118q-57 -76 -131 -127q-76 63 -131 127z" />
    <glyph glyph-name="uniFBE8" unicode="&#x649;" horiz-adv-x="527" arabic-form="initial" 
d="M-32 6v195l33 6q224 0 286 14q-24 195 -98 465l141 137h35l82 -227l-2 -23l-47 -49q16 -137 16 -207q0 -25 -2 -41q-3 -38 -64 -133t-97 -118q-59 -25 -250 -25z" />
    </font>
</defs>
</svg>
