<?xml version="1.0" standalone="no"?>
<!DOCTYPE svg PUBLIC "-//W3C//DTD SVG 1.1//EN" "http://www.w3.org/Graphics/SVG/1.1/DTD/svg11.dtd" >
<svg xmlns="http://www.w3.org/2000/svg" xmlns:xlink="http://www.w3.org/1999/xlink" version="1.1">
<metadata>
Created by FontForge 20170731 at Sat Oct 15 04:04:50 2016
 By Aleksey,,,
(c)  2015 Bahij Virtual Academy. All rights reserved.
</metadata>
<defs>
<font id="BahijGretaArabic-Medium" horiz-adv-x="0" >
  <font-face 
    font-family="Bahij Greta Arabic Medium"
    font-weight="500"
    font-stretch="normal"
    units-per-em="2048"
    panose-1="2 4 7 3 6 2 1 2 2 3"
    ascent="1638"
    descent="-410"
    x-height="948"
    cap-height="1214"
    bbox="-290 -1698 5799 2695"
    underline-thickness="50"
    underline-position="-150"
    unicode-range="U+0020-FEFC"
  />
<missing-glyph horiz-adv-x="728" 
d="M0 0v1020h728v-1020h-728zM117 947l247 -372l248 372h-495zM655 881l-247 -371l247 -372v743zM612 73l-248 371l-247 -371h495zM73 138l247 372l-247 371v-743z" />
    <glyph glyph-name="uniFB01" unicode="fi" horiz-adv-x="1212" 
d="M38 86l154 45v655h-166v121l166 39v76q0 176 127 309q138 142 340 142q148 0 262 -56l-39 -213h-65l-259 115q-133 -74 -133 -236v-135h357l139 19h104v-830l162 -47v-110h-530v106l135 45v655h-367v-651l148 -47v-108h-535v106z" />
    <glyph glyph-name="uniFB02" unicode="fl" horiz-adv-x="1204" 
d="M644 86l152 47v1100l-233 78q-138 -77 -138 -236v-127h205v-162h-205v-651l148 -47v-108h-535v106l154 45v655h-166v121l166 39v94q0 175 131 297q138 129 350 129q89 0 168 -20l53 14h136v-1323l159 -49v-108h-545v106z" />
    <glyph glyph-name="uniFC31" unicode="&#xfed3;&#xfef0;" horiz-adv-x="2058" arabic-form="isolated" 
d="M1785 539q-64 249 -186 249q-57 0 -110 -71q-51 -69 -70 -154q63 -47 176 -47q107 0 190 23zM1466 1356q69 90 150 157q107 -92 153 -157q-60 -88 -153 -152q-92 67 -150 152zM1245 -20q6 -10 6 -48q0 -47 -35 -145q-34 -96 -63 -119q-222 -160 -602 -160
q-230 0 -351 121q-100 101 -100 256q0 212 174 477l92 -51q-88 -179 -88 -282q0 -260 309 -260q315 0 517 108q-53 103 -250 103h-47l-17 28l68 207l24 12h662q175 0 270 19q4 28 4 65q0 72 -2 82l-35 -57q-92 -39 -202 -39q-163 0 -215 84q-68 89 -68 201q3 139 96 282
q108 166 254 166q151 0 246 -217q86 -190 86 -422q0 -75 -12 -127q-13 -56 -76 -143q-61 -86 -84 -92q-101 -49 -348 -49h-213z" />
    <glyph glyph-name="uniFC32" unicode="&#xfed3;&#xfef2;" horiz-adv-x="2058" arabic-form="isolated" 
d="M764 -901q-81 59 -113 102q-35 -43 -119 -102q-86 62 -153 156q73 84 153 155q106 -88 121 -108q43 50 111 108q114 -95 155 -158q-62 -90 -155 -153zM1785 539q-64 249 -186 249q-57 0 -110 -71q-51 -69 -70 -154q63 -47 176 -47q107 0 190 23zM1466 1356q69 90 150 157
q107 -92 153 -157q-60 -88 -153 -152q-92 67 -150 152zM1245 -20q6 -10 6 -48q0 -47 -35 -145q-34 -96 -63 -119q-222 -160 -602 -160q-230 0 -351 121q-100 101 -100 256q0 212 174 477l92 -51q-88 -179 -88 -282q0 -260 309 -260q315 0 517 108q-53 103 -250 103h-47
l-17 28l68 207l24 12h662q175 0 270 19q4 28 4 65q0 72 -2 82l-35 -57q-92 -39 -202 -39q-163 0 -215 84q-68 89 -68 201q3 139 96 282q108 166 254 166q151 0 246 -217q86 -190 86 -422q0 -75 -12 -127q-13 -56 -76 -143q-61 -86 -84 -92q-101 -49 -348 -49h-213z" />
    <glyph glyph-name="uniFC43" unicode="&#xfedf;&#xfef0;" horiz-adv-x="1885" arabic-form="isolated" 
d="M1245 -20q6 -10 6 -48q0 -47 -35 -145q-34 -96 -63 -119q-222 -160 -602 -160q-230 0 -351 121q-100 101 -100 256q0 212 174 477l92 -51q-88 -179 -88 -282q0 -260 309 -260q315 0 517 108q-53 103 -250 103h-47l-17 28l68 207l24 12h403q182 0 230 11l-23 890l-57 148
l209 203l63 -39v-103l98 -182l-98 -104v-719q0 -57 -96 -185q-88 -116 -133 -143q-34 -24 -193 -24h-40z" />
    <glyph glyph-name="uniFC44" unicode="&#xfedf;&#xfef2;" horiz-adv-x="1885" arabic-form="isolated" 
d="M764 -901q-81 59 -113 102q-35 -43 -119 -102q-86 62 -153 156q73 84 153 155q106 -88 121 -108q43 50 111 108q114 -95 155 -158q-62 -90 -155 -153zM1245 -20q6 -10 6 -48q0 -47 -35 -145q-34 -96 -63 -119q-222 -160 -602 -160q-230 0 -351 121q-100 101 -100 256
q0 212 174 477l92 -51q-88 -179 -88 -282q0 -260 309 -260q315 0 517 108q-53 103 -250 103h-47l-17 28l68 207l24 12h403q182 0 230 11l-23 890l-57 148l209 203l63 -39v-103l98 -182l-98 -104v-719q0 -57 -96 -185q-88 -116 -133 -143q-34 -24 -193 -24h-40z" />
    <glyph glyph-name="uniFC64" unicode="&#xfe8c;&#xfeae;" horiz-adv-x="1490" arabic-form="final" 
d="M1040 1020q0 81 53 154q58 75 148 75q82 0 118 -104q18 -43 21 -113l-61 -14q-37 49 -76 49q-61 0 -99 -35q19 -57 99 -57q73 0 172 37l24 -37l-59 -135q-134 -66 -262 -66q-33 0 -166 109l12 61h90q-14 27 -14 76zM878 -20q-101 2 -168 63q-10 -108 -103 -264
q-117 -195 -262 -195q-41 0 -176 74q-123 69 -166 106l37 89q111 -29 172 -29q250 0 382 373q-28 8 -149 280l146 174h55l51 -211q36 -141 68 -176t134 -37q120 1 168 15q13 70 71 327l142 95l55 -17q-21 -311 -45 -387q45 -33 203 -33l51 -10v-227l-51 -10h-17
q-227 0 -319 122q-67 -82 -97 -98q-45 -21 -148 -24h-34z" />
    <glyph glyph-name="uniFC67" unicode="&#xfe8c;&#xfee6;" horiz-adv-x="1920" arabic-form="final" 
d="M475 764q79 95 153 158q108 -92 154 -158q-63 -88 -154 -152q-87 64 -153 152zM1308 -20q-151 1 -180 45v-13q-58 -218 -135 -288q-139 -140 -449 -140q-444 0 -444 377q0 209 174 469l86 -43q-82 -191 -82 -305q0 -246 309 -246q212 0 367 82l-74 565l164 127h62
l10 -172q9 -133 33 -166q33 -44 165 -45q132 0 183 15q13 70 71 327l142 95l55 -17q-21 -311 -45 -387q45 -33 203 -33l51 -10v-227l-51 -10h-17q-227 0 -319 122q-67 -82 -97 -98q-50 -23 -173 -24h-9zM1470 1020q0 81 53 154q58 75 148 75q82 0 118 -104q18 -43 21 -113
l-61 -14q-37 49 -76 49q-61 0 -99 -35q19 -57 99 -57q73 0 172 37l24 -37l-59 -135q-134 -66 -262 -66q-33 0 -166 109l12 61h90q-14 27 -14 76z" />
    <glyph glyph-name="uniFC6A" unicode="&#xfe92;&#xfeae;" horiz-adv-x="1500" arabic-form="final" 
d="M884 -20q-105 0 -174 63q-10 -108 -103 -264q-117 -195 -262 -195q-41 0 -176 74q-123 69 -166 106l37 89q111 -29 172 -29q250 0 382 373q-28 8 -149 280l146 174h55l51 -211q36 -141 68 -176q33 -36 137 -37q126 1 175 15q13 70 71 327l142 95l55 -17
q-21 -311 -45 -387q45 -33 203 -33l51 -10v-227l-51 -10h-17q-227 0 -319 122q-67 -82 -97 -98q-47 -22 -159 -24h-27zM1018 -262q77 89 154 153q106 -87 153 -155q-61 -89 -153 -154q-86 62 -154 156z" />
    <glyph glyph-name="uniFC70" unicode="&#xfe98;&#xfeae;" horiz-adv-x="1490" arabic-form="final" 
d="M1307 813q-70 51 -115 105q-37 -47 -116 -105q-93 65 -152 158q68 82 152 155q112 -92 118 -108q62 65 113 108q110 -91 154 -157q-61 -93 -154 -156zM878 -20q-101 2 -168 63q-10 -108 -103 -264q-117 -195 -262 -195q-41 0 -176 74q-123 69 -166 106l37 89
q111 -29 172 -29q250 0 382 373q-28 8 -149 280l146 174h55l51 -211q36 -141 68 -176t134 -37q120 1 168 15q13 70 71 327l142 95l55 -17q-21 -311 -45 -387q45 -33 203 -33l51 -10v-227l-51 -10h-17q-227 0 -319 122q-67 -82 -97 -98q-45 -21 -148 -24h-34z" />
    <glyph glyph-name="uniFC86" unicode="&#xfee0;&#xfef0;" horiz-adv-x="1891" arabic-form="final" 
d="M1245 -20q6 -10 6 -48q0 -47 -35 -145q-34 -96 -63 -119q-222 -160 -602 -160q-230 0 -351 121q-100 101 -100 256q0 212 174 477l92 -51q-88 -179 -88 -282q0 -260 309 -260q315 0 517 108q-53 103 -250 103h-47l-17 28l68 207l24 12h395q170 0 232 11l-29 1087l156 148
h65v-1035q0 -120 29 -162q34 -46 164 -49l51 -10v-227l-51 -10q-239 0 -303 170q-79 -123 -113 -146q-45 -23 -194 -24h-39z" />
    <glyph glyph-name="uniFC87" unicode="&#xfee0;&#xfef2;" horiz-adv-x="1891" arabic-form="final" 
d="M764 -901q-81 59 -113 102q-35 -43 -119 -102q-86 62 -153 156q73 84 153 155q106 -88 121 -108q43 50 111 108q114 -95 155 -158q-62 -90 -155 -153zM1245 -20q6 -10 6 -48q0 -47 -35 -145q-34 -96 -63 -119q-222 -160 -602 -160q-230 0 -351 121q-100 101 -100 256
q0 212 174 477l92 -51q-88 -179 -88 -282q0 -260 309 -260q315 0 517 108q-53 103 -250 103h-47l-17 28l68 207l24 12h395q170 0 232 11l-29 1087l156 148h65v-1035q0 -120 29 -162q34 -46 164 -49l51 -10v-227l-51 -10q-239 0 -303 170q-79 -123 -113 -146
q-45 -23 -194 -24h-39z" />
    <glyph glyph-name="uniFCCC" unicode="&#xfedf;&#xfee4;" horiz-adv-x="1618" arabic-form="initial" 
d="M293 262q93 -49 384 -49h34l-37 84q-68 153 -78 170q-40 68 -86 68q-56 0 -125 -91q-68 -89 -92 -180v-2zM1034 -20h-45q-149 0 -213 106l-90 -121q-317 6 -415 74q-13 9 -39 59q-52 -118 -234 -118l-51 10v227l51 10q115 0 166 39q15 166 127 330q125 180 272 180
q90 0 158 -90q44 -56 107 -209q70 -174 86 -201q30 -49 96 -49h8q182 0 230 11l-23 890l-57 148l209 203l63 -39v-103l98 -182l-98 -104v-719q0 -57 -96 -185q-88 -116 -133 -143q-32 -23 -177 -24z" />
    <glyph glyph-name="uniFCFB" unicode="&#xfeb3;&#xfef0;" horiz-adv-x="2702" arabic-form="isolated" 
d="M1245 -20q6 -10 6 -48q0 -47 -35 -145q-34 -96 -63 -119q-222 -160 -602 -160q-230 0 -351 121q-100 101 -100 256q0 212 174 477l92 -51q-88 -179 -88 -282q0 -260 309 -260q315 0 517 108q-53 103 -250 103h-47l-17 28l68 207l24 12h396q102 0 160 13l68 196l127 88
l51 -26q-21 -154 -37 -250q50 -21 153 -21q58 0 119 11l82 303l131 88l49 -27q-5 -117 -34 -321q126 -73 286 -95l-57 459l160 131h63q23 -415 23 -559q0 -49 -80 -154q-84 -108 -131 -108q-190 0 -385 151q-72 -126 -267 -126q-176 0 -247 102q-76 -100 -228 -102h-39z" />
    <glyph glyph-name="uniFCFC" unicode="&#xfeb3;&#xfef2;" horiz-adv-x="2702" arabic-form="isolated" 
d="M764 -901q-81 59 -113 102q-35 -43 -119 -102q-86 62 -153 156q73 84 153 155q106 -88 121 -108q43 50 111 108q114 -95 155 -158q-62 -90 -155 -153zM1245 -20q6 -10 6 -48q0 -47 -35 -145q-34 -96 -63 -119q-222 -160 -602 -160q-230 0 -351 121q-100 101 -100 256
q0 212 174 477l92 -51q-88 -179 -88 -282q0 -260 309 -260q315 0 517 108q-53 103 -250 103h-47l-17 28l68 207l24 12h396q102 0 160 13l68 196l127 88l51 -26q-21 -154 -37 -250q50 -21 153 -21q58 0 119 11l82 303l131 88l49 -27q-5 -117 -34 -321q126 -73 286 -95
l-57 459l160 131h63q23 -415 23 -559q0 -49 -80 -154q-84 -108 -131 -108q-190 0 -385 151q-72 -126 -267 -126q-176 0 -247 102q-76 -100 -228 -102h-39z" />
    <glyph glyph-name="uniFCFD" unicode="&#xfeb7;&#xfef0;" horiz-adv-x="2702" arabic-form="isolated" 
d="M1925 1169q70 78 146 148q97 -77 145 -148q-57 -85 -145 -149q-79 63 -146 149zM1245 -20q6 -10 6 -48q0 -47 -35 -145q-34 -96 -63 -119q-222 -160 -602 -160q-230 0 -351 121q-100 101 -100 256q0 212 174 477l92 -51q-88 -179 -88 -282q0 -260 309 -260q315 0 517 108
q-53 103 -250 103h-47l-17 28l68 207l24 12h396q102 0 160 13l68 196l127 88l51 -26q-21 -154 -37 -250q50 -21 153 -21q58 0 119 11l82 303l131 88l49 -27q-5 -117 -34 -321q126 -73 286 -95l-57 459l160 131h63q23 -415 23 -559q0 -49 -80 -154q-84 -108 -131 -108
q-190 0 -385 151q-72 -126 -267 -126q-176 0 -247 102q-76 -100 -228 -102h-39zM2183 784q-61 46 -112 103q-30 -40 -115 -103q-82 62 -149 152q69 84 149 158q115 -115 119 -115q1 0 1 1l-1 1q70 70 106 113q106 -88 154 -158q-59 -87 -152 -152z" />
    <glyph glyph-name="uniFCFE" unicode="&#xfeb7;&#xfef2;" horiz-adv-x="2702" arabic-form="isolated" 
d="M764 -901q-81 59 -113 102q-35 -43 -119 -102q-86 62 -153 156q73 84 153 155q106 -88 121 -108q43 50 111 108q114 -95 155 -158q-62 -90 -155 -153zM1925 1169q70 78 146 148q97 -77 145 -148q-57 -85 -145 -149q-79 63 -146 149zM1245 -20q6 -10 6 -48q0 -47 -35 -145
q-34 -96 -63 -119q-222 -160 -602 -160q-230 0 -351 121q-100 101 -100 256q0 212 174 477l92 -51q-88 -179 -88 -282q0 -260 309 -260q315 0 517 108q-53 103 -250 103h-47l-17 28l68 207l24 12h396q102 0 160 13l68 196l127 88l51 -26q-21 -154 -37 -250q50 -21 153 -21
q58 0 119 11l82 303l131 88l49 -27q-5 -117 -34 -321q126 -73 286 -95l-57 459l160 131h63q23 -415 23 -559q0 -49 -80 -154q-84 -108 -131 -108q-190 0 -385 151q-72 -126 -267 -126q-176 0 -247 102q-76 -100 -228 -102h-39zM2183 784q-61 46 -112 103q-30 -40 -115 -103
q-82 62 -149 152q69 84 149 158q115 -115 119 -115q1 0 1 1l-1 1q70 70 106 113q106 -88 154 -158q-59 -87 -152 -152z" />
    <glyph glyph-name="uniFD05" unicode="&#xfebb;&#xfef0;" horiz-adv-x="2859" arabic-form="isolated" 
d="M2114 229q361 7 514 90q-40 107 -125 189q-87 84 -176 84q-215 0 -457 -359q58 -6 158 -6zM1245 -20q6 -10 6 -48q0 -47 -35 -145q-34 -96 -63 -119q-222 -160 -602 -160q-230 0 -351 121q-100 101 -100 256q0 212 174 477l92 -51q-88 -179 -88 -282q0 -260 309 -260
q315 0 517 108q-53 103 -250 103h-47l-17 28l68 207l24 12h396q102 0 160 13q21 71 68 200l127 86l51 -22q-13 -110 -29 -215q31 -24 76 -33q300 592 653 592q154 0 283 -172q112 -152 112 -287q0 -145 -133 -278q-131 -131 -608 -131h-39q-345 0 -469 126
q-88 -124 -246 -126h-39z" />
    <glyph glyph-name="uniFD06" unicode="&#xfebb;&#xfef2;" horiz-adv-x="2859" arabic-form="isolated" 
d="M764 -901q-81 59 -113 102q-35 -43 -119 -102q-86 62 -153 156q73 84 153 155q106 -88 121 -108q43 50 111 108q114 -95 155 -158q-62 -90 -155 -153zM2114 229q361 7 514 90q-40 107 -125 189q-87 84 -176 84q-215 0 -457 -359q58 -6 158 -6zM1245 -20q6 -10 6 -48
q0 -47 -35 -145q-34 -96 -63 -119q-222 -160 -602 -160q-230 0 -351 121q-100 101 -100 256q0 212 174 477l92 -51q-88 -179 -88 -282q0 -260 309 -260q315 0 517 108q-53 103 -250 103h-47l-17 28l68 207l24 12h396q102 0 160 13q21 71 68 200l127 86l51 -22
q-13 -110 -29 -215q31 -24 76 -33q300 592 653 592q154 0 283 -172q112 -152 112 -287q0 -145 -133 -278q-131 -131 -608 -131h-39q-345 0 -469 126q-88 -124 -246 -126h-39z" />
    <glyph glyph-name="uniFD07" unicode="&#xfebf;&#xfef0;" horiz-adv-x="2859" arabic-form="isolated" 
d="M2114 229q361 7 514 90q-40 107 -125 189q-87 84 -176 84q-215 0 -457 -359q58 -6 158 -6zM2147 1139q76 89 153 153q107 -90 154 -155q-62 -89 -154 -154q-86 62 -153 156zM1245 -20q6 -10 6 -48q0 -47 -35 -145q-34 -96 -63 -119q-222 -160 -602 -160q-230 0 -351 121
q-100 101 -100 256q0 212 174 477l92 -51q-88 -179 -88 -282q0 -260 309 -260q315 0 517 108q-53 103 -250 103h-47l-17 28l68 207l24 12h396q102 0 160 13q21 71 68 200l127 86l51 -22q-13 -110 -29 -215q31 -24 76 -33q300 592 653 592q154 0 283 -172q112 -152 112 -287
q0 -145 -133 -278q-131 -131 -608 -131h-39q-345 0 -469 126q-88 -124 -246 -126h-39z" />
    <glyph glyph-name="uniFD08" unicode="&#xfebf;&#xfef2;" horiz-adv-x="2859" arabic-form="isolated" 
d="M764 -901q-81 59 -113 102q-35 -43 -119 -102q-86 62 -153 156q73 84 153 155q106 -88 121 -108q43 50 111 108q114 -95 155 -158q-62 -90 -155 -153zM2114 229q361 7 514 90q-40 107 -125 189q-87 84 -176 84q-215 0 -457 -359q58 -6 158 -6zM2147 1139q76 89 153 153
q107 -90 154 -155q-62 -89 -154 -154q-86 62 -153 156zM1245 -20q6 -10 6 -48q0 -47 -35 -145q-34 -96 -63 -119q-222 -160 -602 -160q-230 0 -351 121q-100 101 -100 256q0 212 174 477l92 -51q-88 -179 -88 -282q0 -260 309 -260q315 0 517 108q-53 103 -250 103h-47
l-17 28l68 207l24 12h396q102 0 160 13q21 71 68 200l127 86l51 -22q-13 -110 -29 -215q31 -24 76 -33q300 592 653 592q154 0 283 -172q112 -152 112 -287q0 -145 -133 -278q-131 -131 -608 -131h-39q-345 0 -469 126q-88 -124 -246 -126h-39z" />
    <glyph glyph-name="uniFD0D" unicode="&#xfeb7;&#xfeae;" horiz-adv-x="2322" arabic-form="isolated" 
d="M1545 1169q70 78 146 148q97 -77 145 -148q-57 -85 -145 -149q-79 63 -146 149zM884 -20q-105 0 -174 63q-10 -108 -103 -264q-117 -195 -262 -195q-41 0 -176 74q-123 69 -166 106l37 89q111 -29 172 -29q250 0 382 373q-28 8 -149 280l146 174h55l51 -211
q36 -141 68 -176q33 -36 140 -37q97 0 153 13l68 196l127 88l51 -26q-21 -154 -37 -250q50 -21 153 -21q58 0 119 11l82 303l131 88l49 -27q-5 -117 -34 -321q126 -73 286 -95l-57 459l160 131h63q23 -415 23 -559q0 -49 -80 -154q-84 -108 -131 -108q-190 0 -385 151
q-72 -126 -267 -126q-176 0 -247 102q-75 -98 -221 -102h-27zM1803 784q-61 46 -112 103q-30 -40 -115 -103q-82 62 -149 152q69 84 149 158q115 -115 119 -115q1 0 1 1l-1 1q70 70 106 113q106 -88 154 -158q-59 -87 -152 -152z" />
    <glyph glyph-name="uniFD0E" unicode="&#xfeb3;&#xfeae;" horiz-adv-x="2322" arabic-form="isolated" 
d="M884 -20q-105 0 -174 63q-10 -108 -103 -264q-117 -195 -262 -195q-41 0 -176 74q-123 69 -166 106l37 89q111 -29 172 -29q250 0 382 373q-28 8 -149 280l146 174h55l51 -211q36 -141 68 -176q33 -36 140 -37q97 0 153 13l68 196l127 88l51 -26q-21 -154 -37 -250
q50 -21 153 -21q58 0 119 11l82 303l131 88l49 -27q-5 -117 -34 -321q126 -73 286 -95l-57 459l160 131h63q23 -415 23 -559q0 -49 -80 -154q-84 -108 -131 -108q-190 0 -385 151q-72 -126 -267 -126q-176 0 -247 102q-75 -98 -221 -102h-27z" />
    <glyph glyph-name="uniFD0F" unicode="&#xfebb;&#xfeae;" horiz-adv-x="2469" arabic-form="isolated" 
d="M1724 229q361 7 514 90q-40 107 -125 189q-87 84 -176 84q-215 0 -457 -359q58 -6 158 -6zM884 -20q-105 0 -174 63q-10 -108 -103 -264q-117 -195 -262 -195q-41 0 -176 74q-123 69 -166 106l37 89q111 -29 172 -29q250 0 382 373q-28 8 -149 280l146 174h55l51 -211
q36 -141 68 -176q33 -36 136 -37q93 1 147 13q21 71 68 200l127 86l51 -22q-13 -110 -29 -215q31 -24 76 -33q300 592 653 592q154 0 283 -172q112 -152 112 -287q0 -145 -133 -278q-131 -131 -608 -131h-39q-345 0 -469 126q-83 -116 -226 -125l-4 -1h-26z" />
    <glyph glyph-name="uniFD10" unicode="&#xfebf;&#xfeae;" horiz-adv-x="2469" arabic-form="isolated" 
d="M1724 229q361 7 514 90q-40 107 -125 189q-87 84 -176 84q-215 0 -457 -359q58 -6 158 -6zM1757 1139q76 89 153 153q107 -90 154 -155q-62 -89 -154 -154q-86 62 -153 156zM884 -20q-105 0 -174 63q-10 -108 -103 -264q-117 -195 -262 -195q-41 0 -176 74
q-123 69 -166 106l37 89q111 -29 172 -29q250 0 382 373q-28 8 -149 280l146 174h55l51 -211q36 -141 68 -176q33 -36 136 -37q93 1 147 13q21 71 68 200l127 86l51 -22q-13 -110 -29 -215q31 -24 76 -33q300 592 653 592q154 0 283 -172q112 -152 112 -287
q0 -145 -133 -278q-131 -131 -608 -131h-39q-345 0 -469 126q-83 -116 -226 -125l-4 -1h-26z" />
    <glyph glyph-name="uniFD17" unicode="&#xfeb4;&#xfef0;" horiz-adv-x="2781" arabic-form="final" 
d="M1245 -20q6 -10 6 -48q0 -47 -35 -145q-34 -96 -63 -119q-222 -160 -602 -160q-230 0 -351 121q-100 101 -100 256q0 212 174 477l92 -51q-88 -179 -88 -282q0 -260 309 -260q315 0 517 108q-53 103 -250 103h-47l-17 28l68 207l24 12h396q102 0 160 13l68 196l127 88
l51 -26q-21 -154 -37 -250q50 -21 153 -21q58 0 119 11l82 303l131 88l49 -27q-14 -202 -41 -350q53 -25 160 -25q87 0 135 15q-11 68 -34 329l163 123h64v-387q0 -57 8 -65q14 -15 82 -15h65l52 -10v-227l-52 -10h-61q-163 0 -215 110q-58 -110 -248 -110q-182 0 -250 98
q-58 -98 -250 -98q-176 0 -247 102q-76 -100 -228 -102h-39z" />
    <glyph glyph-name="uniFD18" unicode="&#xfeb4;&#xfef2;" horiz-adv-x="2781" arabic-form="final" 
d="M764 -901q-81 59 -113 102q-35 -43 -119 -102q-86 62 -153 156q73 84 153 155q106 -88 121 -108q43 50 111 108q114 -95 155 -158q-62 -90 -155 -153zM1245 -20q6 -10 6 -48q0 -47 -35 -145q-34 -96 -63 -119q-222 -160 -602 -160q-230 0 -351 121q-100 101 -100 256
q0 212 174 477l92 -51q-88 -179 -88 -282q0 -260 309 -260q315 0 517 108q-53 103 -250 103h-47l-17 28l68 207l24 12h396q102 0 160 13l68 196l127 88l51 -26q-21 -154 -37 -250q50 -21 153 -21q58 0 119 11l82 303l131 88l49 -27q-14 -202 -41 -350q53 -25 160 -25
q87 0 135 15q-11 68 -34 329l163 123h64v-387q0 -57 8 -65q14 -15 82 -15h65l52 -10v-227l-52 -10h-61q-163 0 -215 110q-58 -110 -248 -110q-182 0 -250 98q-58 -98 -250 -98q-176 0 -247 102q-76 -100 -228 -102h-39z" />
    <glyph glyph-name="uniFD19" unicode="&#xfeb8;&#xfef0;" horiz-adv-x="2781" arabic-form="final" 
d="M1921 1171q69 74 144 146q101 -80 147 -148q-57 -85 -145 -149q-81 65 -146 151zM1245 -20q6 -10 6 -48q0 -47 -35 -145q-34 -96 -63 -119q-222 -160 -602 -160q-230 0 -351 121q-100 101 -100 256q0 212 174 477l92 -51q-88 -179 -88 -282q0 -260 309 -260
q315 0 517 108q-53 103 -250 103h-47l-17 28l68 207l24 12h396q102 0 160 13l68 196l127 88l51 -26q-21 -154 -37 -250q50 -21 153 -21q58 0 119 11l82 303l131 88l49 -27q-14 -202 -41 -350q53 -25 160 -25q87 0 135 15q-11 68 -34 329l163 123h64v-387q0 -57 8 -65
q14 -15 82 -15h65l52 -10v-227l-52 -10h-61q-163 0 -215 110q-58 -110 -248 -110q-182 0 -250 98q-58 -98 -250 -98q-176 0 -247 102q-76 -100 -228 -102h-39zM2179 784q-61 46 -112 103q-30 -40 -115 -103q-82 62 -150 152q70 84 150 158l117 -117l139 90q78 -66 123 -131
q-59 -87 -152 -152z" />
    <glyph glyph-name="uniFD1A" unicode="&#xfeb8;&#xfef2;" horiz-adv-x="2781" arabic-form="final" 
d="M764 -901q-81 59 -113 102q-35 -43 -119 -102q-86 62 -153 156q73 84 153 155q106 -88 121 -108q43 50 111 108q114 -95 155 -158q-62 -90 -155 -153zM1921 1171q69 74 144 146q101 -80 147 -148q-57 -85 -145 -149q-81 65 -146 151zM1245 -20q6 -10 6 -48
q0 -47 -35 -145q-34 -96 -63 -119q-222 -160 -602 -160q-230 0 -351 121q-100 101 -100 256q0 212 174 477l92 -51q-88 -179 -88 -282q0 -260 309 -260q315 0 517 108q-53 103 -250 103h-47l-17 28l68 207l24 12h396q102 0 160 13l68 196l127 88l51 -26q-21 -154 -37 -250
q50 -21 153 -21q58 0 119 11l82 303l131 88l49 -27q-14 -202 -41 -350q53 -25 160 -25q87 0 135 15q-11 68 -34 329l163 123h64v-387q0 -57 8 -65q14 -15 82 -15h65l52 -10v-227l-52 -10h-61q-163 0 -215 110q-58 -110 -248 -110q-182 0 -250 98q-58 -98 -250 -98
q-176 0 -247 102q-76 -100 -228 -102h-39zM2179 784q-61 46 -112 103q-30 -40 -115 -103q-82 62 -150 152q70 84 150 158l117 -117l139 90q78 -66 123 -131q-59 -87 -152 -152z" />
    <glyph glyph-name="uniFD21" unicode="&#xfebc;&#xfef0;" horiz-adv-x="2885" arabic-form="final" 
d="M2114 229q361 7 514 90q-40 107 -125 189q-87 84 -176 84q-215 0 -457 -359q58 -6 158 -6zM1245 -20q6 -10 6 -48q0 -47 -35 -145q-34 -96 -63 -119q-222 -160 -602 -160q-230 0 -351 121q-100 101 -100 256q0 212 174 477l92 -51q-88 -179 -88 -282q0 -260 309 -260
q315 0 517 108q-53 103 -250 103h-47l-17 28l68 207l24 12h396q102 0 160 13q21 71 68 200l127 86l51 -22q-13 -110 -29 -215q31 -24 76 -33q300 592 653 592q154 0 283 -172q112 -152 112 -287q0 -71 -53 -162h162l51 -10v-227l-51 -10h-141q-87 0 -164 90
q-177 -90 -545 -90h-39q-345 0 -469 126q-88 -124 -246 -126h-39z" />
    <glyph glyph-name="uniFD22" unicode="&#xfebc;&#xfef2;" horiz-adv-x="2885" arabic-form="final" 
d="M764 -901q-81 59 -113 102q-35 -43 -119 -102q-86 62 -153 156q73 84 153 155q106 -88 121 -108q43 50 111 108q114 -95 155 -158q-62 -90 -155 -153zM2114 229q361 7 514 90q-40 107 -125 189q-87 84 -176 84q-215 0 -457 -359q58 -6 158 -6zM1245 -20q6 -10 6 -48
q0 -47 -35 -145q-34 -96 -63 -119q-222 -160 -602 -160q-230 0 -351 121q-100 101 -100 256q0 212 174 477l92 -51q-88 -179 -88 -282q0 -260 309 -260q315 0 517 108q-53 103 -250 103h-47l-17 28l68 207l24 12h396q102 0 160 13q21 71 68 200l127 86l51 -22
q-13 -110 -29 -215q31 -24 76 -33q300 592 653 592q154 0 283 -172q112 -152 112 -287q0 -71 -53 -162h162l51 -10v-227l-51 -10h-141q-87 0 -164 90q-177 -90 -545 -90h-39q-345 0 -469 126q-88 -124 -246 -126h-39z" />
    <glyph glyph-name="uniFD23" unicode="&#xfec0;&#xfef0;" horiz-adv-x="2885" arabic-form="final" 
d="M2114 229q361 7 514 90q-40 107 -125 189q-87 84 -176 84q-215 0 -457 -359q58 -6 158 -6zM2153 1139q76 89 153 153q107 -90 154 -155q-62 -89 -154 -154q-86 62 -153 156zM1245 -20q6 -10 6 -48q0 -47 -35 -145q-34 -96 -63 -119q-222 -160 -602 -160q-230 0 -351 121
q-100 101 -100 256q0 212 174 477l92 -51q-88 -179 -88 -282q0 -260 309 -260q315 0 517 108q-53 103 -250 103h-47l-17 28l68 207l24 12h396q102 0 160 13q21 71 68 200l127 86l51 -22q-13 -110 -29 -215q31 -24 76 -33q300 592 653 592q154 0 283 -172q112 -152 112 -287
q0 -71 -53 -162h162l51 -10v-227l-51 -10h-141q-87 0 -164 90q-177 -90 -545 -90h-39q-345 0 -469 126q-88 -124 -246 -126h-39z" />
    <glyph glyph-name="uniFD24" unicode="&#xfec0;&#xfef2;" horiz-adv-x="2885" arabic-form="final" 
d="M764 -901q-81 59 -113 102q-35 -43 -119 -102q-86 62 -153 156q73 84 153 155q106 -88 121 -108q43 50 111 108q114 -95 155 -158q-62 -90 -155 -153zM2114 229q361 7 514 90q-40 107 -125 189q-87 84 -176 84q-215 0 -457 -359q58 -6 158 -6zM2153 1139q76 89 153 153
q107 -90 154 -155q-62 -89 -154 -154q-86 62 -153 156zM1245 -20q6 -10 6 -48q0 -47 -35 -145q-34 -96 -63 -119q-222 -160 -602 -160q-230 0 -351 121q-100 101 -100 256q0 212 174 477l92 -51q-88 -179 -88 -282q0 -260 309 -260q315 0 517 108q-53 103 -250 103h-47
l-17 28l68 207l24 12h396q102 0 160 13q21 71 68 200l127 86l51 -22q-13 -110 -29 -215q31 -24 76 -33q300 592 653 592q154 0 283 -172q112 -152 112 -287q0 -71 -53 -162h162l51 -10v-227l-51 -10h-141q-87 0 -164 90q-177 -90 -545 -90h-39q-345 0 -469 126
q-88 -124 -246 -126h-39z" />
    <glyph glyph-name="uniFD29" unicode="&#xfeb8;&#xfeae;" horiz-adv-x="2391" arabic-form="final" 
d="M1531 1171q69 74 144 146q101 -80 147 -148q-57 -85 -145 -149q-81 65 -146 151zM884 -20q-105 0 -174 63q-10 -108 -103 -264q-117 -195 -262 -195q-41 0 -176 74q-123 69 -166 106l37 89q111 -29 172 -29q250 0 382 373q-28 8 -149 280l146 174h55l51 -211
q36 -141 68 -176q33 -36 136 -37q93 1 147 13l68 196l127 88l51 -26q-21 -154 -37 -250q50 -21 153 -21q58 0 119 11l82 303l131 88l49 -27q-14 -202 -41 -350q53 -25 160 -25q87 0 135 15q-11 68 -34 329l163 123h64v-387q0 -57 8 -65q14 -15 82 -15h65l52 -10v-227
l-52 -10h-61q-163 0 -215 110q-58 -110 -248 -110q-182 0 -250 98q-58 -98 -250 -98q-176 0 -247 102q-71 -93 -208 -101l-4 -1h-26zM1789 784q-61 46 -112 103q-30 -40 -115 -103q-82 62 -150 152q70 84 150 158l117 -117l139 90q78 -66 123 -131q-59 -87 -152 -152z" />
    <glyph glyph-name="uniFD2A" unicode="&#xfeb4;&#xfeae;" horiz-adv-x="2391" arabic-form="final" 
d="M884 -20q-105 0 -174 63q-10 -108 -103 -264q-117 -195 -262 -195q-41 0 -176 74q-123 69 -166 106l37 89q111 -29 172 -29q250 0 382 373q-28 8 -149 280l146 174h55l51 -211q36 -141 68 -176q33 -36 136 -37q93 1 147 13l68 196l127 88l51 -26q-21 -154 -37 -250
q50 -21 153 -21q58 0 119 11l82 303l131 88l49 -27q-14 -202 -41 -350q53 -25 160 -25q87 0 135 15q-11 68 -34 329l163 123h64v-387q0 -57 8 -65q14 -15 82 -15h65l52 -10v-227l-52 -10h-61q-163 0 -215 110q-58 -110 -248 -110q-182 0 -250 98q-58 -98 -250 -98
q-176 0 -247 102q-71 -93 -208 -101l-4 -1h-26z" />
    <glyph glyph-name="uniFD2B" unicode="&#xfebc;&#xfeae;" horiz-adv-x="2505" arabic-form="final" 
d="M1734 229q361 7 514 90q-40 107 -125 189q-87 84 -176 84q-215 0 -457 -359q58 -6 158 -6zM884 -20q-105 0 -174 63q-10 -108 -103 -264q-117 -195 -262 -195q-41 0 -176 74q-123 69 -166 106l37 89q111 -29 172 -29q250 0 382 373q-28 8 -149 280l146 174h55l51 -211
q36 -141 68 -176q33 -36 140 -37q97 0 153 13q21 71 68 200l127 86l51 -22q-13 -110 -29 -215q31 -24 76 -33q300 592 653 592q154 0 283 -172q112 -152 112 -287q0 -71 -53 -162h162l51 -10v-227l-51 -10h-141q-87 0 -164 90q-177 -90 -545 -90h-39q-345 0 -469 126
q-86 -121 -239 -126h-27z" />
    <glyph glyph-name="uniFD2C" unicode="&#xfec0;&#xfeae;" horiz-adv-x="2505" arabic-form="final" 
d="M1734 229q361 7 514 90q-40 107 -125 189q-87 84 -176 84q-215 0 -457 -359q58 -6 158 -6zM1773 1139q76 89 153 153q107 -90 154 -155q-62 -89 -154 -154q-86 62 -153 156zM884 -20q-105 0 -174 63q-10 -108 -103 -264q-117 -195 -262 -195q-41 0 -176 74
q-123 69 -166 106l37 89q111 -29 172 -29q250 0 382 373q-28 8 -149 280l146 174h55l51 -211q36 -141 68 -176q33 -36 140 -37q97 0 153 13q21 71 68 200l127 86l51 -22q-13 -110 -29 -215q31 -24 76 -33q300 592 653 592q154 0 283 -172q112 -152 112 -287q0 -71 -53 -162
h162l51 -10v-227l-51 -10h-141q-87 0 -164 90q-177 -90 -545 -90h-39q-345 0 -469 126q-86 -121 -239 -126h-27z" />
    <glyph glyph-name="uniFEF5" unicode="&#xfedf;&#xfe82;" horiz-adv-x="1212" arabic-form="isolated" 
d="M254 27l43 221q190 110 362 276q-152 143 -358 310l-84 -25l-137 117l69 299l56 10q456 -413 577 -549q43 83 43 252v176l-63 162l211 203l63 -45v-105l96 -176l-98 -104v-35q-3 -283 -135 -461q141 -181 141 -295q0 -46 -57 -139q-59 -97 -94 -113q-51 -26 -277 -26
q-262 0 -342 18zM657 221q214 0 236 12q-32 80 -123 183q-105 -99 -266 -195h153zM602 1358q-126 -37 -291 -37q-96 0 -170 18l-63 -106l-72 27q21 96 53 163q5 12 56 60q59 53 77 53l76 -4q41 -2 103 -2q120 0 284 22l21 -32z" />
    <glyph glyph-name="uniFEF6" unicode="&#xfee0;&#xfe82;" horiz-adv-x="1228" arabic-form="final" 
d="M1231 -20q-310 0 -338 256q-40 -96 -49 -99q-39 -39 -162 -94q-142 -63 -250 -63q-103 0 -352 135l18 90q325 0 519 61q-52 328 -289 568l-84 -21l-135 121l90 295h53q441 -466 496 -760l-35 -168q78 27 137 80l-22 944l153 148h66v-1035q0 -126 24 -159q33 -49 160 -52
l51 -10v-227zM596 1354q-129 -37 -293 -37q-103 0 -170 20l-59 -106l-74 22q21 98 53 166q5 12 56 60q53 53 75 53l76 -4q41 -2 102 -2q114 0 289 24l17 -34z" />
    <glyph glyph-name="uniFEF7" unicode="&#xfedf;&#xfe84;" horiz-adv-x="1225" arabic-form="isolated" 
d="M266 27l43 221q191 110 363 276q-152 143 -359 310l-83 -25l-138 117l70 299l55 10q457 -413 578 -549q43 83 43 252v176l-64 162l211 203l64 -45v-105l96 -176l-98 -104v-35q-3 -283 -136 -461q142 -181 142 -295q0 -46 -58 -139q-59 -97 -94 -113q-50 -26 -276 -26
q-262 0 -342 18zM670 221q214 0 235 12q-32 80 -123 183q-104 -99 -266 -195h154zM168 1513q0 82 53 154q59 78 148 78q82 0 119 -105q17 -45 20 -114l-66 -15q-27 52 -71 52q-57 0 -98 -35q18 -60 98 -60q74 0 172 37l26 -37l-63 -135q-134 -65 -260 -65q-33 0 -166 108
l12 62h90q-14 27 -14 75z" />
    <glyph glyph-name="uniFEF8" unicode="&#xfee0;&#xfe84;" horiz-adv-x="1228" arabic-form="final" 
d="M1231 -20q-310 0 -338 256q-40 -96 -49 -99q-39 -39 -162 -94q-142 -63 -250 -63q-103 0 -352 135l18 90q325 0 519 61q-52 328 -289 568l-84 -21l-135 121l90 295h53q441 -466 496 -760l-35 -168q78 27 137 80l-22 944l153 148h66v-1035q0 -126 24 -159q33 -49 160 -52
l51 -10v-227zM90 1530q0 83 55 153q58 76 148 76q83 0 117 -104q17 -46 20 -115l-61 -14q-34 51 -74 51q-59 0 -100 -35q18 -59 100 -59q68 0 170 39l24 -37l-59 -137q-134 -66 -262 -66q-33 0 -166 109l14 61h90q-16 29 -16 78z" />
    <glyph glyph-name="uniFEF9" unicode="&#xfedf;&#xfe88;" horiz-adv-x="1213" arabic-form="isolated" 
d="M254 27l43 221q191 110 363 276q-153 143 -359 310l-84 -25l-137 117l70 299l55 10q456 -413 577 -549q43 83 43 252v176l-63 162l211 203l63 -45v-105l97 -176l-99 -104v-35q-3 -283 -135 -461q142 -181 142 -295q0 -46 -58 -139q-59 -97 -94 -113q-50 -26 -277 -26
q-262 0 -342 18zM658 221q214 0 235 12q-32 80 -123 183q-104 -99 -266 -195h154zM252 -350q0 83 55 153q58 76 148 76q83 0 117 -104q17 -43 20 -113l-61 -14q-34 51 -74 51q-59 0 -101 -35q22 -59 101 -59q72 0 170 37l24 -37l-59 -135q-134 -66 -260 -66q-35 0 -168 109
l14 61h90q-16 28 -16 76z" />
    <glyph glyph-name="uniFEFA" unicode="&#xfee0;&#xfe88;" horiz-adv-x="1228" arabic-form="final" 
d="M1231 -20q-310 0 -338 256q-40 -96 -49 -99q-39 -39 -162 -94q-142 -63 -250 -63q-103 0 -352 135l18 90q325 0 519 61q-52 328 -289 568l-84 -21l-135 121l90 295h53q441 -466 496 -760l-35 -168q78 27 137 80l-22 944l153 148h66v-1035q0 -126 24 -159q33 -49 160 -52
l51 -10v-227zM317 -324q0 82 54 154q57 76 147 76q82 0 119 -105q17 -46 20 -114l-65 -15q-27 52 -72 52q-57 0 -98 -35q19 -60 98 -60q74 0 172 37l27 -37l-64 -135q-134 -65 -260 -65q-32 0 -166 108l13 62h89q-14 27 -14 77z" />
    <glyph glyph-name="uniFEFB" unicode="&#xfedf;&#xfe8e;" horiz-adv-x="1213" arabic-form="isolated" 
d="M254 27l45 221q194 113 363 276q-162 150 -361 310l-82 -25l-139 117l72 299l53 10q428 -379 580 -547q40 85 40 250v176l-61 162l209 203l65 -45v-105l95 -176l-99 -104v-35q-3 -283 -135 -461q142 -175 142 -295q0 -43 -58 -139q-60 -98 -92 -113q-53 -26 -279 -26
q-262 0 -342 18zM660 221q214 0 235 12q-38 90 -125 183q-112 -106 -266 -195h156z" />
    <glyph glyph-name="uniFEFC" unicode="&#xfee0;&#xfe8e;" horiz-adv-x="1228" arabic-form="final" 
d="M1231 -20q-310 0 -338 256q-40 -96 -49 -99q-39 -39 -162 -94q-142 -63 -250 -63q-103 0 -352 135l18 90q325 0 519 61q-52 328 -289 568l-84 -21l-135 121l90 295h53q441 -466 496 -760l-35 -168q78 27 137 80l-22 944l153 148h66v-1035q0 -126 24 -159q33 -49 160 -52
l51 -10v-227z" />
    <glyph glyph-name="uniFE8B_uniFEE4.liga" unicode="&#xfe8b;&#xfee4;" horiz-adv-x="1572" 
d="M293 262q93 -49 384 -49h34l-37 84q-68 153 -78 170q-40 68 -86 68q-56 0 -125 -91q-68 -89 -92 -180v-2zM1034 -20h-45q-149 0 -213 106l-90 -121q-317 6 -415 74q-13 9 -39 59q-52 -118 -234 -118l-51 10v227l51 10q115 0 166 39q15 166 127 330q125 180 272 180
q90 0 158 -90q44 -56 107 -209q70 -174 86 -201q30 -49 96 -49h6q222 0 266 11q-21 175 -98 454l156 152h59l88 -246l-6 -35l-43 -45q17 -121 17 -194q0 -29 -3 -50q-6 -46 -69 -143q-63 -96 -105 -125q-59 -25 -244 -26zM1131 1225q0 83 55 153q58 76 148 76q83 0 116 -104
q18 -43 21 -113l-62 -14q-33 51 -73 51q-60 0 -101 -35q22 -59 101 -59q71 0 170 37l24 -37l-59 -136q-134 -65 -260 -65q-35 0 -168 108l14 62h90q-16 28 -16 76z" />
    <glyph glyph-name="uniFE8B_uniFEF0.liga" unicode="&#xfe8b;&#xfef0;" horiz-adv-x="1822" 
d="M1245 -20q6 -10 6 -48q0 -47 -35 -145q-34 -96 -63 -119q-222 -160 -602 -160q-230 0 -351 121q-100 101 -100 256q0 212 174 477l92 -51q-88 -179 -88 -282q0 -260 309 -260q315 0 517 108q-53 103 -250 103h-47l-17 28l68 207l24 12h384q222 0 266 11q-21 175 -98 454
l156 152h59l88 -246l-6 -35l-43 -45q17 -121 17 -194q0 -29 -3 -50q-6 -46 -69 -143q-63 -96 -105 -125q-59 -25 -244 -26h-39zM1381 1225q0 83 55 153q58 76 148 76q83 0 116 -104q18 -43 21 -113l-62 -14q-33 51 -73 51q-60 0 -101 -35q22 -59 101 -59q71 0 170 37l24 -37
l-59 -136q-134 -65 -260 -65q-35 0 -168 108l14 62h90q-16 28 -16 76z" />
    <glyph glyph-name="uniFE8B_uniFEF2.liga" unicode="&#xfe8b;&#xfef2;" horiz-adv-x="1822" 
d="M764 -901q-81 59 -113 102q-35 -43 -119 -102q-86 62 -153 156q73 84 153 155q106 -88 121 -108q43 50 111 108q114 -95 155 -158q-62 -90 -155 -153zM1245 -20q6 -10 6 -48q0 -47 -35 -145q-34 -96 -63 -119q-222 -160 -602 -160q-230 0 -351 121q-100 101 -100 256
q0 212 174 477l92 -51q-88 -179 -88 -282q0 -260 309 -260q315 0 517 108q-53 103 -250 103h-47l-17 28l68 207l24 12h384q222 0 266 11q-21 175 -98 454l156 152h59l88 -246l-6 -35l-43 -45q17 -121 17 -194q0 -29 -3 -50q-6 -46 -69 -143q-63 -96 -105 -125
q-59 -25 -244 -26h-39zM1381 1225q0 83 55 153q58 76 148 76q83 0 116 -104q18 -43 21 -113l-62 -14q-33 51 -73 51q-60 0 -101 -35q22 -59 101 -59q71 0 170 37l24 -37l-59 -136q-134 -65 -260 -65q-35 0 -168 108l14 62h90q-16 28 -16 76z" />
    <glyph glyph-name="uniFE91_uniFEE4.liga" unicode="&#xfe91;&#xfee4;" horiz-adv-x="1567" 
d="M293 262q93 -49 384 -49h34l-37 84q-68 153 -78 170q-40 68 -86 68q-56 0 -125 -91q-68 -89 -92 -180v-2zM1034 -20h-45q-149 0 -213 106l-90 -121q-317 6 -415 74q-13 9 -39 59q-52 -118 -234 -118l-51 10v227l51 10q115 0 166 39q15 166 127 330q125 180 272 180
q90 0 158 -90q44 -56 107 -209q70 -174 86 -201q30 -49 96 -49h8q222 0 266 11q-21 175 -98 454l156 152h57l88 -246l-2 -33l-47 -49q16 -138 16 -204q0 -24 -2 -38q-3 -41 -67 -143q-63 -96 -105 -125q-59 -25 -246 -26zM1108 -262q77 89 154 153q106 -87 154 -155
q-62 -89 -154 -154q-86 62 -154 156z" />
    <glyph glyph-name="uniFE92_uniFEE6.liga" unicode="&#xfe92;&#xfee6;" horiz-adv-x="1910" 
d="M475 764q79 95 153 158q108 -92 154 -158q-63 -88 -154 -152q-87 64 -153 152zM1297 -20q-141 3 -169 45v-13q-58 -218 -135 -288q-139 -140 -449 -140q-444 0 -444 377q0 209 174 469l86 -43q-82 -191 -82 -305q0 -246 309 -246q212 0 367 82l-74 565l164 127h62
l10 -172q9 -133 33 -166q32 -44 161 -45q127 1 177 15q13 70 71 327l142 95l55 -17q-21 -311 -45 -387q45 -33 203 -33l51 -10v-227l-51 -10h-17q-227 0 -319 122q-67 -82 -97 -98q-48 -22 -162 -24h-21zM1428 -262q77 89 154 153q106 -87 153 -155q-61 -89 -153 -154
q-86 62 -154 156z" />
    <glyph glyph-name="uniFE91_uniFEF0.liga" unicode="&#xfe91;&#xfef0;" horiz-adv-x="1827" 
d="M1368 -262q77 89 154 153q106 -87 154 -155q-62 -89 -154 -154q-86 62 -154 156zM1245 -20q6 -10 6 -48q0 -47 -35 -145q-34 -96 -63 -119q-222 -160 -602 -160q-230 0 -351 121q-100 101 -100 256q0 212 174 477l92 -51q-88 -179 -88 -282q0 -260 309 -260
q315 0 517 108q-53 103 -250 103h-47l-17 28l68 207l24 12h396q222 0 266 11q-21 175 -98 454l156 152h57l88 -246l-2 -33l-47 -49q16 -138 16 -204q0 -24 -2 -38q-3 -41 -67 -143q-63 -96 -105 -125q-61 -26 -256 -26h-39z" />
    <glyph glyph-name="uniFE91_uniFEF2.liga" unicode="&#xfe91;&#xfef2;" horiz-adv-x="1827" 
d="M764 -901q-81 59 -113 102q-35 -43 -119 -102q-86 62 -153 156q73 84 153 155q106 -88 121 -108q43 50 111 108q114 -95 155 -158q-62 -90 -155 -153zM1368 -262q77 89 154 153q106 -87 154 -155q-62 -89 -154 -154q-86 62 -154 156zM1245 -20q6 -10 6 -48
q0 -47 -35 -145q-34 -96 -63 -119q-222 -160 -602 -160q-230 0 -351 121q-100 101 -100 256q0 212 174 477l92 -51q-88 -179 -88 -282q0 -260 309 -260q315 0 517 108q-53 103 -250 103h-47l-17 28l68 207l24 12h396q222 0 266 11q-21 175 -98 454l156 152h57l88 -246
l-2 -33l-47 -49q16 -138 16 -204q0 -24 -2 -38q-3 -41 -67 -143q-63 -96 -105 -125q-61 -26 -256 -26h-39z" />
    <glyph glyph-name="uniFE97_uniFEE4.liga" unicode="&#xfe97;&#xfee4;" horiz-adv-x="1581" 
d="M293 262q93 -49 384 -49h34l-37 84q-68 153 -78 170q-40 68 -86 68q-56 0 -125 -91q-68 -89 -92 -180v-2zM1034 -20h-45q-149 0 -213 106l-90 -121q-317 6 -415 74q-13 9 -39 59q-52 -118 -234 -118l-51 10v227l51 10q115 0 166 39q15 166 127 330q125 180 272 180
q90 0 158 -90q44 -56 107 -209q70 -174 86 -201q30 -49 96 -49h8q222 0 266 11q-21 175 -98 454l156 152h57l88 -246l-2 -33l-47 -49q16 -138 16 -204q0 -24 -2 -38q-3 -41 -67 -143q-63 -96 -105 -125q-59 -25 -246 -26zM1426 999q-70 51 -115 105q-37 -46 -117 -105
q-87 67 -153 158q73 85 153 156q104 -86 121 -107q22 27 111 107q108 -90 155 -158q-61 -88 -155 -156z" />
    <glyph glyph-name="uniFE98_uniFEE6.liga" unicode="&#xfe98;&#xfee6;" horiz-adv-x="1920" 
d="M475 764q79 95 153 158q108 -92 154 -158q-63 -88 -154 -152q-87 64 -153 152zM1767 813q-70 51 -115 105q-37 -47 -116 -105q-93 65 -152 158q68 82 152 155q112 -92 118 -108q62 65 113 108q110 -91 154 -157q-61 -93 -154 -156zM1308 -20q-151 1 -180 45v-13
q-58 -218 -135 -288q-139 -140 -449 -140q-444 0 -444 377q0 209 174 469l86 -43q-82 -191 -82 -305q0 -246 309 -246q212 0 367 82l-74 565l164 127h62l10 -172q9 -133 33 -166q33 -44 165 -45q132 0 183 15q13 70 71 327l142 95l55 -17q-21 -311 -45 -387q45 -33 203 -33
l51 -10v-227l-51 -10h-17q-227 0 -319 122q-67 -82 -97 -98q-50 -23 -173 -24h-9z" />
    <glyph glyph-name="uniFE97_uniFEF0.liga" unicode="&#xfe97;&#xfef0;" horiz-adv-x="1841" 
d="M1686 999q-70 51 -115 105q-37 -46 -117 -105q-87 67 -153 158q73 85 153 156q104 -86 121 -107q22 27 111 107q108 -90 155 -158q-61 -88 -155 -156zM1245 -20q6 -10 6 -48q0 -47 -35 -145q-34 -96 -63 -119q-222 -160 -602 -160q-230 0 -351 121q-100 101 -100 256
q0 212 174 477l92 -51q-88 -179 -88 -282q0 -260 309 -260q315 0 517 108q-53 103 -250 103h-47l-17 28l68 207l24 12h396q222 0 266 11q-21 175 -98 454l156 152h57l88 -246l-2 -33l-47 -49q16 -138 16 -204q0 -24 -2 -38q-3 -41 -67 -143q-63 -96 -105 -125
q-61 -26 -256 -26h-39z" />
    <glyph glyph-name="uniFE97_uniFEF2.liga" unicode="&#xfe97;&#xfef2;" horiz-adv-x="1841" 
d="M764 -901q-81 59 -113 102q-35 -43 -119 -102q-86 62 -153 156q73 84 153 155q106 -88 121 -108q43 50 111 108q114 -95 155 -158q-62 -90 -155 -153zM1686 999q-70 51 -115 105q-37 -46 -117 -105q-87 67 -153 158q73 85 153 156q104 -86 121 -107q22 27 111 107
q108 -90 155 -158q-61 -88 -155 -156zM1245 -20q6 -10 6 -48q0 -47 -35 -145q-34 -96 -63 -119q-222 -160 -602 -160q-230 0 -351 121q-100 101 -100 256q0 212 174 477l92 -51q-88 -179 -88 -282q0 -260 309 -260q315 0 517 108q-53 103 -250 103h-47l-17 28l68 207l24 12
h396q222 0 266 11q-21 175 -98 454l156 152h57l88 -246l-2 -33l-47 -49q16 -138 16 -204q0 -24 -2 -38q-3 -41 -67 -143q-63 -96 -105 -125q-61 -26 -256 -26h-39z" />
    <glyph glyph-name="uniFE9C_uniFEAE.liga" unicode="&#xfe9c;&#xfeae;" horiz-adv-x="1500" 
d="M1047 1233q69 78 145 147q97 -76 145 -147q-57 -86 -145 -150q-78 64 -145 150zM1305 848q-78 57 -113 100q-31 -42 -115 -100q-87 63 -149 153q73 86 149 156q115 -115 119 -115q1 0 1 1l-1 1q67 67 107 113q106 -88 153 -158q-62 -86 -151 -151zM884 -20
q-105 0 -174 63q-10 -108 -103 -264q-117 -195 -262 -195q-41 0 -176 74q-123 69 -166 106l37 89q111 -29 172 -29q250 0 382 373q-28 8 -149 280l146 174h55l51 -211q36 -141 68 -176q33 -36 137 -37q126 1 175 15q13 70 71 327l142 95l55 -17q-21 -311 -45 -387
q45 -33 203 -33l51 -10v-227l-51 -10h-17q-227 0 -319 122q-67 -82 -97 -98q-47 -22 -159 -24h-27z" />
    <glyph glyph-name="uniFE9B_uniFEE4.liga" unicode="&#xfe9b;&#xfee4;" horiz-adv-x="1579" 
d="M293 262q93 -49 384 -49h34l-37 84q-68 153 -78 170q-40 68 -86 68q-56 0 -125 -91q-68 -89 -92 -180v-2zM1170 1386q59 68 145 146q101 -82 146 -148q-55 -81 -146 -147q-80 62 -145 149zM1034 -20h-45q-149 0 -213 106l-90 -121q-317 6 -415 74q-13 9 -39 59
q-52 -118 -234 -118l-51 10v227l51 10q115 0 166 39q15 166 127 330q125 180 272 180q90 0 158 -90q44 -56 107 -209q70 -174 86 -201q30 -49 96 -49h8q222 0 266 11q-21 175 -98 454l156 152h57l88 -246l-2 -33l-47 -49q16 -138 16 -204q0 -24 -2 -38q-3 -41 -67 -143
q-63 -96 -105 -125q-59 -25 -246 -26zM1428 999q-58 42 -113 103q-29 -40 -115 -103q-87 63 -149 154q73 86 149 156l115 -117q43 46 111 117q106 -88 153 -158q-62 -87 -151 -152z" />
    <glyph glyph-name="uniFE9C_uniFEE6.liga" unicode="&#xfe9c;&#xfee6;" horiz-adv-x="1920" 
d="M475 764q79 95 153 158q108 -92 154 -158q-63 -88 -154 -152q-87 64 -153 152zM1467 1233q69 78 145 147q97 -76 145 -147q-57 -86 -145 -150q-78 64 -145 150zM1725 848q-78 57 -113 100q-31 -42 -115 -100q-87 63 -149 153q73 86 149 156q115 -115 119 -115q1 0 1 1
l-1 1q67 67 107 113q106 -88 153 -158q-62 -86 -151 -151zM1308 -20q-151 1 -180 45v-13q-58 -218 -135 -288q-139 -140 -449 -140q-444 0 -444 377q0 209 174 469l86 -43q-82 -191 -82 -305q0 -246 309 -246q212 0 367 82l-74 565l164 127h62l10 -172q9 -133 33 -166
q33 -44 165 -45q132 0 183 15q13 70 71 327l142 95l55 -17q-21 -311 -45 -387q45 -33 203 -33l51 -10v-227l-51 -10h-17q-227 0 -319 122q-67 -82 -97 -98q-50 -23 -173 -24h-9z" />
    <glyph glyph-name="uniFE9B_uniFEF0.liga" unicode="&#xfe9b;&#xfef0;" horiz-adv-x="1839" 
d="M1245 -20q6 -10 6 -48q0 -47 -35 -145q-34 -96 -63 -119q-222 -160 -602 -160q-230 0 -351 121q-100 101 -100 256q0 212 174 477l92 -51q-88 -179 -88 -282q0 -260 309 -260q315 0 517 108q-53 103 -250 103h-47l-17 28l68 207l24 12h396q222 0 266 11q-21 175 -98 454
l156 152h57l88 -246l-2 -33l-47 -49q16 -138 16 -204q0 -24 -2 -38q-3 -41 -67 -143q-63 -96 -105 -125q-61 -26 -256 -26h-39zM1688 999q-58 42 -113 103q-29 -40 -115 -103q-87 63 -149 154q73 86 149 156l115 -117q43 46 111 117q106 -88 153 -158q-62 -87 -151 -152z
M1430 1386q59 68 145 146q101 -82 146 -148q-55 -81 -146 -147q-80 62 -145 149z" />
    <glyph glyph-name="uniFE9B_uniFEF2.liga" unicode="&#xfe9b;&#xfef2;" horiz-adv-x="1839" 
d="M764 -901q-81 59 -113 102q-35 -43 -119 -102q-86 62 -153 156q73 84 153 155q106 -88 121 -108q43 50 111 108q114 -95 155 -158q-62 -90 -155 -153zM1245 -20q6 -10 6 -48q0 -47 -35 -145q-34 -96 -63 -119q-222 -160 -602 -160q-230 0 -351 121q-100 101 -100 256
q0 212 174 477l92 -51q-88 -179 -88 -282q0 -260 309 -260q315 0 517 108q-53 103 -250 103h-47l-17 28l68 207l24 12h396q222 0 266 11q-21 175 -98 454l156 152h57l88 -246l-2 -33l-47 -49q16 -138 16 -204q0 -24 -2 -38q-3 -41 -67 -143q-63 -96 -105 -125
q-61 -26 -256 -26h-39zM1688 999q-58 42 -113 103q-29 -40 -115 -103q-87 63 -149 154q73 86 149 156l115 -117q43 46 111 117q106 -88 153 -158q-62 -87 -151 -152zM1430 1386q59 68 145 146q101 -82 146 -148q-55 -81 -146 -147q-80 62 -145 149z" />
    <glyph glyph-name="uniFEDB_uniFEF0.liga" unicode="&#xfedb;&#xfef0;" horiz-adv-x="2190" 
d="M1245 -20q6 -10 6 -48q0 -47 -35 -145q-34 -96 -63 -119q-222 -160 -602 -160q-230 0 -351 121q-100 101 -100 256q0 212 174 477l92 -51q-88 -179 -88 -282q0 -260 309 -260q315 0 517 108q-53 103 -250 103h-47l-17 28l68 207l24 12h657q305 0 367 17q-58 136 -401 350
l-37 -35l-174 125q-9 7 -9 30q0 40 27 130q40 139 68 151l717 414l45 -29l-43 -229l-574 -293q244 -134 408 -313q135 -151 135 -254q0 -32 -45 -131q-46 -104 -76 -127q-69 -53 -432 -53h-270z" />
    <glyph glyph-name="uniFEDC_uniFEF0.liga" unicode="&#xfedc;&#xfef0;" horiz-adv-x="2185" 
d="M1245 -20q6 -10 6 -48q0 -47 -35 -145q-34 -96 -63 -119q-222 -160 -602 -160q-230 0 -351 121q-100 101 -100 256q0 212 174 477l92 -51q-88 -179 -88 -282q0 -260 309 -260q315 0 517 108q-53 103 -250 103h-47l-17 28l68 207l24 12h501q181 0 227 13v12q0 81 -88 211
l-196 287q-5 8 -5 23q0 36 27 112q41 111 66 121l622 413l45 -33l-43 -223l-503 -317q53 -78 225 -322q126 -179 203 -235q83 -62 192 -62h33l51 -10v-227l-51 -10h-33q-151 0 -248 65q-61 41 -163 168q-101 -184 -144 -199q-73 -34 -264 -34h-91z" />
    <glyph glyph-name="uniFEDB_uniFEF2.liga" unicode="&#xfedb;&#xfef2;" horiz-adv-x="2190" 
d="M764 -901q-81 59 -113 102q-35 -43 -119 -102q-86 62 -153 156q73 84 153 155q106 -88 121 -108q43 50 111 108q114 -95 155 -158q-62 -90 -155 -153zM1245 -20q6 -10 6 -48q0 -47 -35 -145q-34 -96 -63 -119q-222 -160 -602 -160q-230 0 -351 121q-100 101 -100 256
q0 212 174 477l92 -51q-88 -179 -88 -282q0 -260 309 -260q315 0 517 108q-53 103 -250 103h-47l-17 28l68 207l24 12h657q305 0 367 17q-58 136 -401 350l-37 -35l-174 125q-9 7 -9 30q0 40 27 130q40 139 68 151l717 414l45 -29l-43 -229l-574 -293q244 -134 408 -313
q135 -151 135 -254q0 -32 -45 -131q-46 -104 -76 -127q-69 -53 -432 -53h-270z" />
    <glyph glyph-name="uniFEDC_uniFEF2.liga" unicode="&#xfedc;&#xfef2;" horiz-adv-x="2185" 
d="M764 -901q-81 59 -113 102q-35 -43 -119 -102q-86 62 -153 156q73 84 153 155q106 -88 121 -108q43 50 111 108q114 -95 155 -158q-62 -90 -155 -153zM1245 -20q6 -10 6 -48q0 -47 -35 -145q-34 -96 -63 -119q-222 -160 -602 -160q-230 0 -351 121q-100 101 -100 256
q0 212 174 477l92 -51q-88 -179 -88 -282q0 -260 309 -260q315 0 517 108q-53 103 -250 103h-47l-17 28l68 207l24 12h501q181 0 227 13v12q0 81 -88 211l-196 287q-5 8 -5 23q0 36 27 112q41 111 66 121l622 413l45 -33l-43 -223l-503 -317q53 -78 225 -322
q126 -179 203 -235q83 -62 192 -62h33l51 -10v-227l-51 -10h-33q-151 0 -248 65q-61 41 -163 168q-101 -184 -144 -199q-73 -34 -264 -34h-91z" />
    <glyph glyph-name="uniFEDF_uniFB51.rlig" unicode="&#xfedf;&#xfb51;" horiz-adv-x="1213" 
d="M254 27l43 221q191 110 363 276q-153 143 -359 310l-84 -25l-137 117l70 299l55 10q456 -413 577 -549q43 83 43 252v176l-63 162l211 203l63 -45v-105l97 -176l-99 -104v-35q-3 -283 -135 -461q142 -181 142 -295q0 -46 -58 -139q-59 -97 -94 -113q-50 -26 -277 -26
q-262 0 -342 18zM658 221q214 0 235 12q-32 80 -123 183q-104 -99 -266 -195h154zM510 1509q-53 95 -108 95q-69 0 -150 -102q48 -6 93 -6q112 0 165 13zM309 1329q-124 0 -207 32l-66 -80l-36 18q29 124 36 137q58 88 100 88q37 -8 43 -9q141 225 248 225q62 0 111 -73
q47 -67 47 -130q0 -21 -39 -93q-38 -71 -53 -79q-56 -36 -184 -36z" />
    <glyph glyph-name="uniFEE0_uniFB51.rlig" unicode="&#xfee0;&#xfb51;" horiz-adv-x="1228" 
d="M1231 -20q-310 0 -338 256q-40 -96 -49 -99q-39 -39 -162 -94q-142 -63 -250 -63q-103 0 -352 135l18 90q325 0 519 61q-52 328 -289 568l-84 -21l-135 121l90 295h53q441 -466 496 -760l-35 -168q78 27 137 80l-22 944l153 148h66v-1035q0 -126 24 -159q33 -49 160 -52
l51 -10v-227zM510 1509q-53 95 -108 95q-69 0 -150 -102q48 -6 93 -6q112 0 165 13zM309 1329q-124 0 -207 32l-66 -80l-36 18q29 124 36 137q58 88 100 88q37 -8 43 -9q141 225 248 225q62 0 111 -73q47 -67 47 -130q0 -21 -39 -93q-38 -71 -53 -79q-56 -36 -184 -36z" />
    <glyph glyph-name="uniFEDF_uniFEE2.liga" unicode="&#xfedf;&#xfee2;" horiz-adv-x="1844" 
d="M512 262q95 -49 385 -49h34l-36 84q-64 142 -80 170q-40 68 -84 68q-56 0 -127 -91q-68 -89 -92 -180v-2zM1210 -20q-151 0 -215 106l-88 -121q-321 6 -416 74q-14 8 -61 100q-47 89 -47 114v3q9 123 47 193q-108 -49 -137 -84q5 -52 43 -306q37 -244 43 -309
q0 -106 -97 -383h-92l-47 381q-43 341 -43 477q0 80 74 209q75 129 141 164q341 178 469 178q89 0 158 -90q46 -58 104 -209q80 -188 88 -203q32 -47 94 -47h16q182 0 230 11l-23 890l-57 148l209 203l63 -39v-103l98 -182l-98 -104v-719q0 -57 -96 -185q-88 -116 -133 -143
q-33 -23 -184 -24h-43z" />
    <glyph glyph-name="uniFEE4_uniFE8E.liga" unicode="&#xfee4;&#xfe8e;" horiz-adv-x="1582" 
d="M843 262q93 -49 384 -49h34l-37 84q-68 153 -78 170q-40 68 -86 68q-56 0 -125 -91q-68 -89 -92 -180v-2zM557 -20h-9q-222 3 -309 155q-89 151 -92 537q0 89 -12 651l158 150h63v-1170q0 -48 47 -63q36 -13 148 -13q113 1 163 39q15 166 127 330q125 180 272 180
q90 0 158 -90q44 -56 107 -209q70 -174 86 -201q30 -49 96 -49h24l52 -10v-227l-52 -10h-45q-149 0 -213 106l-90 -121q-317 6 -415 74q-13 9 -39 59q-51 -115 -225 -118z" />
    <glyph glyph-name="uniFEE4_uniFE82.liga" unicode="&#xfee4;&#xfe82;" horiz-adv-x="1662" 
d="M596 1446q-129 -37 -293 -37q-103 0 -170 21l-61 -107l-72 23q21 97 53 165q5 13 56 60q53 53 75 53l76 -4q41 -2 102 -2q114 0 289 24l17 -36zM923 262q93 -49 384 -49h34l-37 84q-68 153 -78 170q-40 68 -86 68q-56 0 -125 -91q-68 -89 -92 -180v-2zM633 -20h-5
q-220 2 -315 157q-91 155 -94 541q0 88 -6 487l156 150h65v-1012q0 -48 45 -63q39 -13 151 -13q113 0 164 39q15 166 127 330q125 180 272 180q90 0 158 -90q44 -56 107 -209q70 -174 86 -201q30 -49 96 -49h24l52 -10v-227l-52 -10h-45q-149 0 -213 106l-90 -121
q-317 6 -415 74q-13 9 -39 59q-51 -116 -229 -118z" />
    <glyph glyph-name="uniFEE4_uniFE84.liga" unicode="&#xfee4;&#xfe84;" horiz-adv-x="1622" 
d="M124 1610q0 81 53 153q61 76 150 76q83 0 117 -104q17 -43 20 -113l-61 -14q-37 49 -76 49q-61 0 -98 -35q18 -57 100 -57q72 0 170 37l24 -37l-59 -135q-134 -66 -262 -66q-33 0 -166 109l12 61h90q-14 27 -14 76zM883 262q93 -49 384 -49h34l-37 84q-68 153 -78 170
q-40 68 -86 68q-56 0 -125 -91q-68 -89 -92 -180v-2zM588 -20q-222 2 -316 157q-93 157 -93 541q0 132 -8 487l158 150h63v-1012q0 -48 47 -63q39 -13 151 -13q113 0 164 39q15 166 127 330q125 180 272 180q90 0 158 -90q44 -56 107 -209q70 -174 86 -201q30 -49 96 -49h24
l52 -10v-227l-52 -10h-45q-149 0 -213 106l-90 -121q-317 6 -415 74q-13 9 -39 59q-51 -116 -229 -118h-5z" />
    <glyph glyph-name="uniFEE4_uniFE88.liga" unicode="&#xfee4;&#xfe88;" horiz-adv-x="1582" 
d="M124 -272q0 83 55 153q58 76 148 76q83 0 117 -104q17 -43 20 -113l-61 -14q-34 51 -74 51q-59 0 -100 -35q18 -59 100 -59q72 0 170 36l24 -36l-59 -136q-134 -65 -260 -65q-35 0 -168 108l14 62h90q-16 28 -16 76zM843 262q93 -49 384 -49h34l-37 84q-68 153 -78 170
q-40 68 -86 68q-56 0 -125 -91q-68 -89 -92 -180v-2zM548 -20q-229 0 -317 155q-90 151 -93 537q0 89 -12 651l158 150h63v-1170q0 -48 47 -63q37 -13 154 -13q115 0 166 39q15 166 127 330q125 180 272 180q90 0 158 -90q44 -56 107 -209q70 -174 86 -201q30 -49 96 -49h24
l52 -10v-227l-52 -10h-45q-149 0 -213 106l-90 -121q-317 6 -415 74q-13 9 -39 59q-52 -118 -234 -118z" />
    <glyph glyph-name="uniFEE8_uniFEAE.liga" unicode="&#xfee8;&#xfeae;" horiz-adv-x="1500" 
d="M1081 1001q73 85 153 156q108 -92 154 -158q-62 -89 -154 -153q-86 62 -153 155zM884 -20q-105 0 -174 63q-10 -108 -103 -264q-117 -195 -262 -195q-41 0 -176 74q-123 69 -166 106l37 89q111 -29 172 -29q250 0 382 373q-28 8 -149 280l146 174h55l51 -211
q36 -141 68 -176q33 -36 137 -37q126 1 175 15q13 70 71 327l142 95l55 -17q-21 -311 -45 -387q45 -33 203 -33l51 -10v-227l-51 -10h-17q-227 0 -319 122q-67 -82 -97 -98q-47 -22 -159 -24h-27z" />
    <glyph glyph-name="uniFEE7_uniFEE4.liga" unicode="&#xfee7;&#xfee4;" horiz-adv-x="1567" 
d="M293 262q93 -49 384 -49h34l-37 84q-68 153 -78 170q-40 68 -86 68q-56 0 -125 -91q-68 -89 -92 -180v-2zM1176 1167q63 80 149 156q108 -92 154 -158q-58 -89 -154 -153q-90 65 -149 155zM1034 -20h-45q-149 0 -213 106l-90 -121q-317 6 -415 74q-13 9 -39 59
q-52 -118 -234 -118l-51 10v227l51 10q115 0 166 39q15 166 127 330q125 180 272 180q90 0 158 -90q44 -56 107 -209q70 -174 86 -201q30 -49 96 -49h8q222 0 266 11q-21 175 -98 454l156 152h57l88 -246l-2 -33l-47 -49q16 -138 16 -204q0 -24 -2 -38q-3 -41 -67 -143
q-63 -96 -105 -125q-59 -25 -246 -26z" />
    <glyph glyph-name="uniFEE7_uniFEF0.liga" unicode="&#xfee7;&#xfef0;" horiz-adv-x="1817" 
d="M1426 1167q63 80 149 156q108 -92 154 -158q-58 -89 -154 -153q-90 65 -149 155zM1245 -20q6 -10 6 -48q0 -47 -35 -145q-34 -96 -63 -119q-222 -160 -602 -160q-230 0 -351 121q-100 101 -100 256q0 212 174 477l92 -51q-88 -179 -88 -282q0 -260 309 -260
q315 0 517 108q-53 103 -250 103h-47l-17 28l68 207l24 12h386q222 0 266 11q-21 175 -98 454l156 152h57l88 -246l-2 -33l-47 -49q16 -138 16 -204q0 -24 -2 -38q-3 -41 -67 -143q-63 -96 -105 -125q-59 -25 -246 -26h-39z" />
    <glyph glyph-name="uniFEE7_uniFEF2.liga" unicode="&#xfee7;&#xfef2;" horiz-adv-x="1817" 
d="M764 -901q-81 59 -113 102q-35 -43 -119 -102q-86 62 -153 156q73 84 153 155q106 -88 121 -108q43 50 111 108q114 -95 155 -158q-62 -90 -155 -153zM1426 1167q63 80 149 156q108 -92 154 -158q-58 -89 -154 -153q-90 65 -149 155zM1245 -20q6 -10 6 -48
q0 -47 -35 -145q-34 -96 -63 -119q-222 -160 -602 -160q-230 0 -351 121q-100 101 -100 256q0 212 174 477l92 -51q-88 -179 -88 -282q0 -260 309 -260q315 0 517 108q-53 103 -250 103h-47l-17 28l68 207l24 12h386q222 0 266 11q-21 175 -98 454l156 152h57l88 -246
l-2 -33l-47 -49q16 -138 16 -204q0 -24 -2 -38q-3 -41 -67 -143q-63 -96 -105 -125q-59 -25 -246 -26h-39z" />
    <glyph glyph-name="uniFEF4_uniFEAE.liga" unicode="&#xfef4;&#xfeae;" horiz-adv-x="1500" 
d="M884 -20q-105 0 -174 63q-10 -108 -103 -264q-117 -195 -262 -195q-41 0 -176 74q-123 69 -166 106l37 89q111 -29 172 -29q250 0 382 373q-28 8 -149 280l146 174h55l51 -211q36 -141 68 -176q33 -36 137 -37q126 1 175 15q13 70 71 327l142 95l55 -17
q-21 -311 -45 -387q45 -33 203 -33l51 -10v-227l-51 -10h-17q-227 0 -319 122q-67 -82 -97 -98q-47 -22 -159 -24h-27zM1294 -418q-62 45 -107 99q-31 -40 -112 -99q-89 67 -148 152q77 90 148 149q105 -86 114 -102q34 41 105 102q100 -82 149 -151q-58 -86 -149 -150z" />
    <glyph glyph-name="uniFEF3_uniFEE4.liga" unicode="&#xfef3;&#xfee4;" horiz-adv-x="1572" 
d="M293 262q93 -49 384 -49h34l-37 84q-68 153 -78 170q-40 68 -86 68q-56 0 -125 -91q-68 -89 -92 -180v-2zM1034 -20h-45q-149 0 -213 106l-90 -121q-317 6 -415 74q-13 9 -39 59q-52 -118 -234 -118l-51 10v227l51 10q115 0 166 39q15 166 127 330q125 180 272 180
q90 0 158 -90q44 -56 107 -209q70 -174 86 -201q30 -49 96 -49h8q222 0 266 11q-21 175 -98 454l156 152h57l88 -246l-2 -33l-47 -49q16 -138 16 -204q0 -24 -2 -38q-3 -41 -67 -143q-63 -96 -105 -125q-59 -25 -246 -26zM1354 -418q-49 35 -106 99q-32 -40 -113 -99
q-89 67 -148 152q77 90 148 149q105 -86 115 -102q33 41 104 102q105 -89 150 -151q-55 -81 -150 -150z" />
    <glyph glyph-name="uniFEF4_uniFEE6.liga" unicode="&#xfef4;&#xfee6;" horiz-adv-x="1920" 
d="M475 764q79 95 153 158q108 -92 154 -158q-63 -88 -154 -152q-87 64 -153 152zM1308 -20q-151 1 -180 45v-13q-58 -218 -135 -288q-139 -140 -449 -140q-444 0 -444 377q0 209 174 469l86 -43q-82 -191 -82 -305q0 -246 309 -246q212 0 367 82l-74 565l164 127h62
l10 -172q9 -133 33 -166q33 -44 165 -45q132 0 183 15q13 70 71 327l142 95l55 -17q-21 -311 -45 -387q45 -33 203 -33l51 -10v-227l-51 -10h-17q-227 0 -319 122q-67 -82 -97 -98q-50 -23 -173 -24h-9zM1714 -418q-62 45 -107 99q-31 -40 -112 -99q-89 67 -148 152
q77 90 148 149q105 -86 114 -102q34 41 105 102q100 -82 149 -151q-58 -86 -149 -150z" />
    <glyph glyph-name="T_h.liga" unicode="Th" horiz-adv-x="2118" 
d="M680 1307v-1166l188 -47v-114h-637v112l189 47v1168h-201l-100 -248h-117v406h1331v-613q140 113 332 113q285 0 285 -357v-473l153 -47v-108h-542v106l157 49v440q0 199 -182 199q-103 0 -203 -51v-586l154 -49v-108h-543v106l156 47v1174h-420z" />
    <glyph glyph-name="f_b.liga" unicode="fb" horiz-adv-x="1714" 
d="M794 1235l-231 76q-138 -77 -138 -236v-127h205v-162h-205v-651l148 -47v-108h-535v106l154 45v655h-166v121l166 39v94q0 175 131 297q138 129 350 129q89 0 168 -20l53 14h133v-567q120 74 254 74q383 0 383 -480q0 -229 -157 -381q-152 -145 -363 -145q-204 0 -350 96
v1178zM1355 227q55 89 55 236q0 156 -63 244q-61 88 -166 88q-89 0 -154 -31v-606q69 -33 138 -33q125 0 190 102z" />
    <glyph glyph-name="f_f_b.liga" unicode="ffb" horiz-adv-x="2334" 
d="M1975 227q55 89 55 236q0 156 -63 244q-61 88 -166 88q-89 0 -154 -31v-606q69 -33 138 -33q125 0 190 102zM425 786v-649l164 -47v-110h-551v106l154 45v655h-166v121l166 39v86q0 171 139 301q152 140 379 140q159 0 294 -85q32 27 85 42q92 36 204 36q89 0 168 -20
l53 14h133v-567q120 74 254 74q383 0 383 -480q0 -229 -157 -381q-152 -145 -363 -145q-204 0 -350 96v1178l-231 76q-138 -77 -138 -236v-127h205v-162h-205v-651l148 -47v-108h-535v106l154 45v655h-387zM851 1233q-129 78 -237 94q-80 -21 -133 -90q-56 -71 -56 -162
v-127h380v-4l7 2v94q0 32 3.5 84.5t35.5 108.5z" />
    <glyph glyph-name="f_f.liga" unicode="ff" horiz-adv-x="1288" 
d="M814 1073q0 95 37 160q-129 78 -237 94q-80 -21 -133 -90q-56 -71 -56 -162v-127h389v125zM38 86l154 45v655h-166v121l166 39v86q0 171 139 301q152 140 379 140q159 0 287 -78q110 73 262 73q52 0 127 -16l-31 -217h-67l-183 59q-57 -66 -57 -198v-148h201v-162h-201
v-649l162 -49v-108h-549v106l153 47v653h-389v-649l164 -47v-110h-551v106z" />
    <glyph glyph-name="f_h.liga" unicode="fh" horiz-adv-x="1847" 
d="M647 86l155 47v1098l-239 80q-138 -77 -138 -236v-127h205v-162h-205v-651l148 -47v-108h-535v106l154 45v655h-166v121l166 39v94q0 175 131 297q138 129 350 129q85 0 172 -22l53 16h138v-606q140 113 331 113q285 0 285 -359v-473l154 -47v-108h-545v106l158 49v440
q0 201 -181 201q-99 0 -202 -53v-586l153 -49v-108h-542v106z" />
    <glyph glyph-name="f_f_h.liga" unicode="ffh" horiz-adv-x="2467" 
d="M1010 1389q119 77 283 77q85 0 172 -22l53 16h138v-606q140 113 331 113q285 0 285 -359v-473l154 -47v-108h-545v106l158 49v440q0 201 -181 201q-99 0 -202 -53v-586l153 -49v-108h-542v106l155 47v1098l-239 80q-138 -77 -138 -236v-127h205v-162h-205v-651l148 -47
v-108h-535v106l154 45v655h-387v-649l164 -47v-110h-551v106l154 45v655h-166v121l166 39v86q0 171 139 301q152 140 379 140q149 0 300 -84zM860 1233q-138 78 -246 94q-80 -21 -133 -90q-56 -71 -56 -162v-127h387v92q0 107 48 193z" />
    <glyph glyph-name="f_f_i.liga" unicode="ffi" horiz-adv-x="1837" 
d="M814 1022q0 117 52 205q-140 85 -252 100q-80 -21 -133 -90q-56 -71 -56 -162v-127h389v74zM38 86l154 45v655h-166v121l166 39v86q0 171 139 301q152 140 379 140q165 0 297 -87q111 87 272 87q149 0 263 -56l-39 -213h-66l-258 115q-133 -74 -133 -236v-135h358l140 19
h102v-830l162 -47v-110h-529v106l136 45v655h-369v-651l149 -47v-108h-536v108l155 45v653h-389v-649l164 -47v-110h-551v106z" />
    <glyph glyph-name="f_j.liga" unicode="fj" horiz-adv-x="1212" 
d="M425 786v-651l148 -47v-108h-535v106l154 45v655h-166v121l166 39v76q0 176 127 309q138 142 340 142q148 0 262 -56l-39 -213h-65l-259 115q-133 -74 -133 -236v-135h357l139 19h104v-904q0 -332 -256 -532l-100 76q123 175 123 401v778h-367z" />
    <glyph glyph-name="f_f_j.liga" unicode="ffj" horiz-adv-x="1837" 
d="M814 1022q0 117 52 205q-140 85 -252 100q-80 -21 -133 -90q-56 -71 -56 -162v-127h389v74zM1046 786v-651l149 -47v-108h-536v108l155 45v653h-389v-649l164 -47v-110h-551v106l154 45v655h-166v121l166 39v86q0 171 139 301q152 140 379 140q165 0 297 -87
q111 87 272 87q149 0 263 -56l-39 -213h-66l-258 115q-133 -74 -133 -236v-135h358l140 19h102v-904q0 -332 -256 -532l-100 76q123 175 123 401v778h-367z" />
    <glyph glyph-name="f_k.liga" unicode="fk" horiz-adv-x="1714" 
d="M651 86l155 49v1096l-243 80q-138 -77 -138 -236v-127h205v-162h-205v-651l148 -47v-108h-535v106l154 45v655h-166v121l166 39v94q0 175 131 297q138 129 350 129q87 0 174 -22l58 16h135v-1325l153 -47v-108h-542v106zM1353 -20l-305 491v51l256 269l-129 51v106h469
v-106l-123 -62l-250 -233l268 -393l160 -66v-108h-346z" />
    <glyph glyph-name="f_f_k.liga" unicode="ffk" horiz-adv-x="2314" 
d="M1953 -20l-305 491v51l256 269l-129 51v106h469v-106l-123 -62l-250 -233l268 -393l160 -66v-108h-346zM425 948h387v92q0 109 50 189q-145 83 -248 98q-80 -21 -133 -90q-56 -71 -56 -162v-127zM659 86l153 45v655h-387v-649l164 -47v-110h-551v106l154 45v655h-166v121
l166 39v86q0 171 139 301q152 140 379 140q161 0 299 -87q114 80 285 80q77 0 159 -18l46 12h137v-1323l159 -49v-108h-544v106l151 47v1106l-219 72q-137 -77 -137 -236v-127h205v-162h-205v-651l147 -47v-108h-534v106z" />
    <glyph glyph-name="f_f_l.liga" unicode="ffl" horiz-adv-x="1812" 
d="M425 948h387v92q0 109 50 189q-145 83 -248 98q-80 -21 -133 -90q-56 -71 -56 -162v-127zM659 86l153 45v655h-387v-649l164 -47v-110h-551v106l154 45v655h-166v121l166 39v86q0 171 139 301q152 140 379 140q161 0 299 -87q114 80 285 80q77 0 159 -18l46 12h137v-1323
l159 -49v-108h-544v106l151 47v1106l-219 72q-137 -77 -137 -236v-127h205v-162h-205v-651l147 -47v-108h-534v106z" />
    <glyph glyph-name="f_t.liga" unicode="ft" horiz-adv-x="1375" 
d="M800 948l67 242h160v-242h307v-166h-307v-510q3 -149 166 -149q61 0 147 27l27 -121q-138 -66 -281 -66q-299 0 -299 299v524h-362v-649l164 -49v-108h-551v106l154 47v653h-166v121l166 37v129q0 174 137 287q130 108 307 108q54 0 129 -16l-30 -217h-68l-184 59
q-58 -66 -58 -198v-148h375z" />
    <glyph glyph-name="f_f_t.liga" unicode="fft" horiz-adv-x="1995" 
d="M814 1073q0 95 37 160q-129 78 -237 94q-80 -21 -133 -90q-56 -71 -56 -162v-127h389v125zM1420 948l67 242h160v-242h307v-166h-307v-510q3 -149 166 -149q61 0 147 27l27 -121q-138 -66 -281 -66q-299 0 -299 299v524h-359v-649l162 -49v-108h-549v106l153 47v653h-389
v-649l164 -47v-110h-551v106l154 45v655h-166v121l166 39v86q0 171 139 301q152 140 379 140q159 0 287 -78q110 73 262 73q52 0 127 -16l-31 -217h-67l-183 59q-57 -66 -57 -198v-148h372z" />
    <glyph glyph-name="uni0647.fina" unicode="&#x647;" horiz-adv-x="1154" arabic-form="final" 
d="M948 -184q-41 202 -328 223q-68 0 -135 -23q80 -213 352 -213q80 0 111 13zM810 -438q-158 0 -280 106q-138 120 -172 314l-6 -2q-57 0 -115 12l-215 196l20 52q107 -6 306 -11q33 230 163 416q127 176 242 176q97 0 162 -153q53 -123 53 -222q0 -92 -102 -223
q-3 -3 -3 -4h1q3 1 12 8h281l51 -10v-227l-51 -10h-88q32 -30 32 -86v-5q0 -43 -49 -159q-45 -112 -67 -131q-31 -37 -175 -37zM499 229q239 13 314 133q-47 197 -119 197q-44 0 -115 -96q-74 -103 -99 -235z" />
    <glyph glyph-name="uni0672.fina" unicode="&#x672;" horiz-adv-x="624" 
d="M678 -10l-51 -10q-224 0 -319 157q-92 155 -95 541q0 88 -6 487l156 150h65v-1012q0 -48 45 -63q40 -13 154 -13l51 -10v-227zM125 1462l-86 -111l-39 17q6 30 56 135q4 8 55 49q53 44 66 44q1 0 29 -25q27 -27 58 -27q32 0 47 7q-36 19 -36 81q0 75 50 140q56 74 138 74
q75 0 112 -101q18 -49 21 -99l-43 -12q-40 44 -90 44q-56 0 -116 -50q34 -59 118 -59q86 0 170 32l10 -14l-68 -157q-196 -79 -326 -79q-92 0 -126 111z" />
    <glyph glyph-name="uni0673.fina" unicode="&#x673;" horiz-adv-x="624" 
d="M678 -10l-51 -10q-224 0 -319 157q-92 155 -95 541q0 88 -6 487l156 150h65v-1012q0 -48 45 -63q40 -13 154 -13l51 -10v-227zM125 -489l-86 -111l-39 17q6 30 56 135q4 8 55 49q53 44 66 44q1 0 29 -25q27 -27 58 -27q32 0 47 7q-36 19 -36 81q0 75 50 140q56 74 138 74
q75 0 112 -101q18 -49 21 -99l-43 -12q-40 44 -90 44q-56 0 -116 -50q34 -59 118 -59q86 0 170 32l10 -14l-68 -157q-196 -79 -326 -79q-92 0 -126 111z" />
    <glyph glyph-name="uni0675.fina" unicode="&#x675;" horiz-adv-x="964" 
d="M1018 -10l-51 -10q-37 -1 -72 -1q-582 0 -659 158q-93 157 -93 541q0 132 -8 487l158 150h63v-1012q0 -48 47 -63q131 -15 368 -15q90 0 196 2l51 -10v-227zM530 1394q0 81 53 153q61 76 150 76q83 0 117 -104q17 -43 20 -113l-61 -14q-37 49 -76 49q-61 0 -98 -35
q18 -57 100 -57q72 0 170 37l24 -37l-59 -135q-134 -66 -262 -66q-33 0 -166 109l12 61h90q-14 27 -14 76z" />
    <glyph glyph-name="uni0676.fina" unicode="&#x676;" horiz-adv-x="1117" 
d="M687 1157q0 83 55 154q58 75 148 75q83 0 117 -104q17 -43 20 -113l-61 -14q-37 49 -74 49q-62 0 -100 -35q18 -57 100 -57q72 0 170 37l24 -37l-59 -135q-134 -66 -260 -66q-35 0 -168 109l14 61h90q-16 28 -16 76zM594 428q-67 107 -133 107q-68 0 -129 -89
q-59 -83 -74 -176q65 -43 244 -43h177q-26 111 -85 201zM250 -340q-134 75 -170 109l37 88q128 -33 205 -33q266 0 360 156h-180q-226 0 -297 92q-68 110 -68 213q7 164 101 313q113 178 268 178q136 0 233 -186q87 -165 97 -363h270l51 -10v-227l-51 -10h-293
q-27 -144 -123 -261q-113 -135 -258 -135q-43 0 -182 76z" />
    <glyph glyph-name="uni0677.fina" unicode="&#x677;" horiz-adv-x="1117" 
d="M687 1157q0 83 55 154q58 75 148 75q83 0 117 -104q17 -43 20 -113l-61 -14q-37 49 -74 49q-62 0 -100 -35q18 -57 100 -57q72 0 170 37l24 -37l-59 -135q-134 -66 -260 -66q-35 0 -168 109l14 61h90q-16 28 -16 76zM594 428q-67 107 -133 107q-68 0 -129 -89
q-59 -83 -74 -176q65 -43 244 -43h177q-26 111 -85 201zM250 -340q-134 75 -170 109l37 88q128 -33 205 -33q266 0 360 156h-180q-226 0 -297 92q-68 110 -68 213q7 164 101 313q113 178 268 178q136 0 233 -186q87 -165 97 -363h270l51 -10v-227l-51 -10h-293
q-27 -144 -123 -261q-113 -135 -258 -135q-43 0 -182 76zM423 1194l3 23q0 51 -31 51q-18 0 -45 -17q-17 -13 -21 -13q37 -30 94 -44zM506 1028q-52 3 -74 12q-89 -86 -215 -104l-145 80l10 49q183 9 223 27q-41 22 -59 67q-6 34 -6 60q0 37 12 59q56 127 168 127
q57 0 90 -57q27 -45 27 -103q0 -46 -13 -74l50 -10v-41z" />
    <glyph glyph-name="uni0678.init" unicode="&#x678;" horiz-adv-x="745" 
d="M-55 -10v227l51 10q222 0 266 11q-21 175 -98 454l156 152h59l88 -246l-6 -35l-43 -45q17 -121 17 -194q0 -29 -3 -50q-6 -46 -69 -143q-63 -96 -105 -125q-62 -26 -262 -26zM301 1225q0 83 55 153q58 76 148 76q83 0 116 -104q18 -43 21 -113l-62 -14q-33 51 -73 51
q-60 0 -101 -35q22 -59 101 -59q71 0 170 37l24 -37l-59 -136q-134 -65 -260 -65q-35 0 -168 108l14 62h90q-16 28 -16 76z" />
    <glyph glyph-name="uni0678.medi" unicode="&#x678;" horiz-adv-x="770" 
d="M773 -20h-17q-387 0 -479 122q-67 -82 -97 -98q-52 -24 -182 -24l-51 10v227l51 10q137 0 189 15q13 70 71 327l142 95l55 -17q-21 -311 -45 -387q45 -33 363 -33l51 -10v-227zM340 1020q0 81 53 154q58 75 148 75q82 0 118 -104q18 -43 21 -113l-61 -14q-37 49 -76 49
q-61 0 -99 -35q19 -57 99 -57q73 0 172 37l24 -37l-59 -135q-134 -66 -262 -66q-33 0 -166 109l12 61h90q-14 27 -14 76z" />
    <glyph glyph-name="uni0678.fina" unicode="&#x678;" horiz-adv-x="1510" 
d="M229 -371q-100 101 -100 256q0 212 174 477l92 -51q-88 -179 -88 -282q0 -260 309 -260q315 0 516 108q-53 103 -250 103h-47l-16 28l67 207l25 12h601l52 -10v-227l-52 -10h-238q6 -10 6 -48q0 -47 -35 -145q-34 -96 -64 -119q-221 -160 -602 -160q-229 0 -350 121z
M1060 649q0 81 53 153q58 76 148 76q82 0 119 -104q17 -46 20 -115l-66 -12q-30 49 -71 49q-61 0 -98 -35q18 -59 98 -59q70 0 172 39l26 -37l-63 -135q-135 -68 -260 -68q-34 0 -166 111l12 61h90q-14 27 -14 76z" />
    <glyph glyph-name="uni067C.init" unicode="&#x67c;" horiz-adv-x="559" 
d="M394 999q-81 59 -113 105q-38 -48 -119 -105q-87 67 -153 158q73 85 153 156q106 -88 121 -109q59 62 111 109q115 -95 155 -158q-61 -88 -155 -156zM76 -197q-53 54 -53 123l3 54h-28l-51 10v227l51 10q222 0 266 11q-21 175 -98 454l156 152h57l88 -246l-2 -33l-47 -49
q16 -138 16 -204q0 -24 -2 -38q-3 -84 -118 -213q59 -34 59 -135q0 -70 -49 -123q-51 -51 -125 -51q-72 0 -123 51zM152 -115q21 -18 47 -18q65 0 65 59q0 66 -65 66q-66 0 -66 -66q0 -25 19 -41z" />
    <glyph glyph-name="uni067C.medi" unicode="&#x67c;" horiz-adv-x="720" 
d="M497 813q-70 51 -115 105q-37 -47 -116 -105q-93 65 -152 158q68 82 152 155q112 -92 118 -108q62 65 113 108q110 -91 154 -157q-61 -93 -154 -156zM158 -120q21 -18 47 -18q65 0 65 59q0 66 -65 66q-66 0 -66 -66q0 -25 19 -41zM42 -20h-44l-51 10v227l51 10
q247 0 299 15q13 70 71 327l142 95l55 -17q-21 -311 -45 -387q45 -33 203 -33l51 -10v-227l-51 -10h-17q-227 0 -319 122q-32 -39 -55 -63q44 -48 44 -115q0 -71 -50.5 -121t-121.5 -50t-121 50t-50 121q0 30 9 56z" />
    <glyph glyph-name="uni067C.fina" unicode="&#x67c;" horiz-adv-x="1641" 
d="M917 653q-70 51 -115 105q-36 -46 -116 -105q-88 67 -154 158q73 85 154 156q112 -93 119 -109q41 46 112 109q109 -90 156 -158q-61 -89 -156 -156zM874 -215q-48 -51 -123 -51q-71 0 -123 51q-53 53 -53 123q0 63 8 72q-483 6 -483 385q0 212 174 469l90 -50
q-88 -191 -88 -299q0 -258 408 -258q274 0 536 35q16 83 68 307l145 99l53 -23q-26 -314 -45 -385q45 -33 203 -33l51 -10v-227l-51 -10q-266 0 -348 131q-59 -66 -88 -80q-111 -34 -295 -43q10 -17 10 -80q0 -71 -49 -123zM751 -152q64 0 64 60q0 63 -64 63q-67 0 -67 -63
q0 -60 67 -60z" />
    <glyph glyph-name="uni067D.init" unicode="&#x67d;" horiz-adv-x="563" 
d="M437 1149q-70 -78 -146 -148q-100 82 -145 148q59 84 145 149q80 -64 146 -149zM-53 -10v227l51 10q222 0 266 11q-21 175 -98 454l156 152h59l88 -246l-6 -35l-43 -45q17 -121 17 -194q0 -29 -3 -50q-6 -46 -69 -143q-63 -96 -105 -125q-62 -26 -262 -26zM183 1225
q-115 95 -156 157q63 88 154 152q78 -57 110 -102q30 40 115 102q89 -65 147 -154q-63 -79 -149 -155q-105 107 -112 115q-72 -72 -109 -115z" />
    <glyph glyph-name="uni067D.medi" unicode="&#x67d;" horiz-adv-x="610" 
d="M328 1155l-110 -117q-106 88 -154 158q62 87 152 152q57 -42 112 -103q30 40 115 103q87 -63 149 -154q-73 -86 -149 -156zM474 961q-60 -68 -146 -146q-100 82 -145 148q54 81 145 147q80 -62 146 -149zM613 -20h-17q-227 0 -319 122q-67 -82 -97 -98q-52 -24 -182 -24
l-51 10v227l51 10q137 0 189 15q13 70 71 327l142 95l55 -17q-21 -311 -45 -387q45 -33 203 -33l51 -10v-227z" />
    <glyph glyph-name="uni067D.fina" unicode="&#x67d;" horiz-adv-x="1641" 
d="M692 891q-111 91 -154 158q60 85 152 149q76 -55 112 -100q32 42 115 100q80 -60 150 -149q-80 -97 -150 -158q-113 113 -120 113v-1l1 -2q-73 -73 -106 -110zM948 815q-66 -77 -146 -149q-104 82 -145 149q54 82 145 148q83 -67 146 -148zM1644 -20q-266 0 -348 131
q-59 -66 -88 -80q-157 -51 -563 -51q-545 0 -545 385q0 212 174 469l90 -50q-88 -191 -88 -299q0 -258 408 -258q274 0 536 35q16 83 68 307l145 99l53 -23q-26 -314 -45 -385q45 -33 203 -33l51 -10v-227z" />
    <glyph glyph-name="uni0681.init" unicode="&#x681;" horiz-adv-x="1330" 
d="M-2 -20l-51 10v227l51 10h240q222 0 420 88q91 41 91 44h-1q-1 0 -6 -1q-48 14 -189 93l-239 135l-191 -129l-65 71q200 281 307 281q30 0 311 -156q223 -127 375 -127h182l17 -49l-74 -174h-174q-21 -2 -367 -199q-210 -124 -475 -124h-162zM463 1126q0 82 53 154
q58 76 148 76q82 0 119 -105q17 -43 20 -112l-61 -15q-34 52 -76 52q-57 0 -98 -35q18 -60 98 -60q74 0 172 37l24 -37l-59 -135q-134 -65 -262 -65q-33 0 -166 108l12 62h90q-14 27 -14 75z" />
    <glyph glyph-name="uni0681.medi" unicode="&#x681;" horiz-adv-x="1327" 
d="M-2 -20l-51 10v227l51 10h240q223 0 422 90l74 36l13 7h-1l-4 -2q-59 23 -189 93l-239 135l-191 -129l-65 71q200 281 307 281q30 0 311 -156q223 -127 375 -127h178l16 -49l-75 -174l-95 -4q4 -72 109 -72h145l52 -10v-227l-52 -10h-153q-227 0 -227 221q0 40 8 88
q-5 0 -322 -185q-210 -124 -475 -124h-162zM463 1126q0 82 53 154q58 76 148 76q82 0 119 -105q17 -43 20 -112l-61 -15q-34 52 -76 52q-57 0 -98 -35q18 -60 98 -60q74 0 172 37l24 -37l-59 -135q-134 -65 -262 -65q-33 0 -166 108l12 62h90q-14 27 -14 75z" />
    <glyph glyph-name="uni0681.fina" unicode="&#x681;" horiz-adv-x="1353" 
d="M518 516q-163 31 -182 33l-166 -148l-70 60q172 319 258 319q37 0 279 -47q235 -47 389 -47h227l16 -45l-73 -182l-97 2q-2 -27 -2 -51q0 -79 23 -121q31 -62 139 -62h96l52 -10v-227l-52 -10h-102q-201 0 -262 153q-25 64 -25 140q0 74 23 159q-249 -78 -508 -293
q-162 -134 -193 -284q132 -236 648 -236q116 0 368 25l23 -74q-337 -217 -475 -217q-262 0 -449 104q-160 89 -203 215q-46 111 -46 228q0 14 1 28q46 319 428 535q33 15 79 25q-66 11 -144 28zM555 1165q0 83 55 154q58 76 147 76q83 0 117 -105q17 -43 21 -112l-62 -15
q-37 49 -74 49q-62 0 -100 -34q18 -58 100 -58q72 0 170 37l25 -37l-59 -135q-135 -65 -260 -65q-35 0 -168 108l14 62h89q-15 28 -15 75z" />
    <glyph glyph-name="uni0682.init" unicode="&#x682;" horiz-adv-x="1330" 
d="M-2 -20l-51 10v227l51 10h240q222 0 420 88q91 41 91 44h-1q-1 0 -6 -1q-48 14 -189 93l-239 135l-191 -129l-65 71q200 281 307 281q30 0 311 -156q223 -127 375 -127h182l17 -49l-74 -174h-174q-21 -2 -367 -199q-210 -124 -475 -124h-162zM468 1060q93 112 109 119
q-65 61 -109 112q92 111 158 154q87 -57 156 -154q-51 -70 -105 -114q46 -37 105 -117q-68 -93 -158 -152q-83 67 -156 152z" />
    <glyph glyph-name="uni0682.medi" unicode="&#x682;" horiz-adv-x="1327" 
d="M-2 -20l-51 10v227l51 10h240q223 0 422 90l74 36l13 7h-1l-4 -2q-59 23 -189 93l-239 135l-191 -129l-65 71q200 281 307 281q30 0 311 -156q223 -127 375 -127h178l16 -49l-75 -174l-95 -4q4 -72 109 -72h145l52 -10v-227l-52 -10h-153q-227 0 -227 221q0 40 8 88
q-5 0 -322 -185q-210 -124 -475 -124h-162zM468 1060q93 112 109 119q-65 61 -109 112q92 111 158 154q87 -57 156 -154q-51 -70 -105 -114q46 -37 105 -117q-68 -93 -158 -152q-83 67 -156 152z" />
    <glyph glyph-name="uni0682.fina" unicode="&#x682;" horiz-adv-x="1353" 
d="M518 516q-163 31 -182 33l-166 -148l-70 60q172 319 258 319q37 0 279 -47q235 -47 389 -47h227l16 -45l-73 -182l-97 2q-2 -27 -2 -51q0 -79 23 -121q31 -62 139 -62h96l52 -10v-227l-52 -10h-102q-201 0 -262 153q-25 64 -25 140q0 74 23 159q-249 -78 -508 -293
q-162 -134 -193 -284q132 -236 648 -236q116 0 368 25l23 -74q-337 -217 -475 -217q-262 0 -449 104q-160 89 -203 215q-46 111 -46 228q0 14 1 28q46 319 428 535q33 15 79 25q-66 11 -144 28zM568 1050q93 112 109 119q-65 61 -109 112q92 111 158 154q87 -57 156 -154
q-51 -70 -105 -114q46 -37 105 -117q-68 -93 -158 -152q-83 67 -156 152z" />
    <glyph glyph-name="uni0685.init" unicode="&#x685;" horiz-adv-x="1330" 
d="M545 1266q60 67 145 145q101 -82 146 -147q-64 -91 -146 -150q-76 59 -145 152zM801 879q-66 48 -111 100q-34 -40 -116 -100q-82 61 -150 151q70 85 150 158l116 -117l140 90q78 -66 123 -131q-59 -86 -152 -151zM-2 -20l-51 10v227l51 10h240q222 0 420 88q91 41 91 44
h-1q-1 0 -6 -1q-48 14 -189 93l-239 135l-191 -129l-65 71q200 281 307 281q30 0 311 -156q223 -127 375 -127h182l17 -49l-74 -174h-174q-21 -2 -367 -199q-210 -124 -475 -124h-162z" />
    <glyph glyph-name="uni0685.medi" unicode="&#x685;" horiz-adv-x="1327" 
d="M545 1266q60 67 145 145q101 -82 146 -147q-64 -91 -146 -150q-76 59 -145 152zM801 879q-66 48 -111 100q-34 -40 -116 -100q-82 61 -150 151q70 85 150 158l116 -117l140 90q78 -66 123 -131q-59 -86 -152 -151zM-2 -20l-51 10v227l51 10h240q223 0 422 90l74 36l13 7
h-1l-4 -2q-59 23 -189 93l-239 135l-191 -129l-65 71q200 281 307 281q30 0 311 -156q223 -127 375 -127h178l16 -49l-75 -174l-95 -4q4 -72 109 -72h145l52 -10v-227l-52 -10h-153q-227 0 -227 221q0 40 8 88q-5 0 -322 -185q-210 -124 -475 -124h-162z" />
    <glyph glyph-name="uni0685.fina" unicode="&#x685;" horiz-adv-x="1353" 
d="M567 1309q69 78 145 147q97 -76 146 -147q-53 -80 -146 -150q-85 72 -145 150zM825 924q-62 45 -113 102q-29 -40 -114 -102q-82 61 -150 151q80 96 150 158l114 -115l111 115q106 -88 154 -158q-62 -86 -152 -151zM518 516q-163 31 -182 33l-166 -148l-70 60
q172 319 258 319q37 0 279 -47q235 -47 389 -47h227l16 -45l-73 -182l-97 2q-2 -27 -2 -51q0 -79 23 -121q31 -62 139 -62h96l52 -10v-227l-52 -10h-102q-201 0 -262 153q-25 64 -25 140q0 74 23 159q-249 -78 -508 -293q-162 -134 -193 -284q132 -236 648 -236
q116 0 368 25l23 -74q-337 -217 -475 -217q-262 0 -449 104q-160 89 -203 215q-46 111 -46 228q0 14 1 28q46 319 428 535q33 15 79 25q-66 11 -144 28z" />
    <glyph glyph-name="uni0689.fina" unicode="&#x689;" horiz-adv-x="1041" 
d="M454 -135q22 -19 49 -19q64 0 64 58q0 65 -64 65q-67 0 -67 -65q0 -24 18 -39zM479 817l133 170h61l160 -514q68 -192 88 -215q25 -31 123 -31l51 -10v-227l-51 -10h-29q-172 0 -245 141l-80 -107q-11 -5 -35 -10q20 -20 20 -100q0 -72 -49 -121q-48 -51 -123 -51
q-72 0 -124 49q-54 53 -54 123q0 60 13 76q-238 0 -238 221q0 128 80 278l96 -28q-24 -86 -24 -132q0 -47 22 -63q38 -29 160 -29q123 0 310 10q-48 46 -265 580z" />
    <glyph glyph-name="uni068A.fina" unicode="&#x68a;" horiz-adv-x="1041" 
d="M342 -258q66 84 149 154q106 -88 154 -156q-59 -89 -154 -154q-90 66 -149 156zM479 817l133 170h61l160 -514q68 -192 88 -215q25 -31 123 -31l51 -10v-227l-51 -10h-29q-172 0 -245 141l-82 -107q-95 -34 -305 -34q-283 0 -283 221q0 128 80 278l96 -28
q-24 -86 -24 -132q0 -47 22 -63q38 -29 160 -29q123 0 310 10q-48 46 -265 580z" />
    <glyph glyph-name="uni068B.fina" unicode="&#x68b;" horiz-adv-x="1041" 
d="M479 817l133 170h61l160 -514q68 -192 88 -215q25 -31 123 -31l51 -10v-227l-51 -10h-29q-172 0 -245 141l-82 -107q-95 -34 -305 -34q-283 0 -283 221q0 128 80 278l96 -28q-24 -86 -24 -132q0 -47 22 -63q38 -29 160 -29q123 0 310 10q-48 46 -265 580zM596 1292
q121 0 163 19q-31 91 -98 91q-69 0 -147 -110h82zM688 1549q65 0 122 -77q55 -71 55 -142q0 -29 -39 -89q-35 -55 -61 -71q-65 -40 -216 -40q-71 0 -152 16l-145 111l13 48q59 -7 137 -9l10 15q-19 164 -25 292l-22 59l111 104l39 -28v-42l53 -90l-40 -46l-2 -82
q0 -6 -4 -21q89 92 166 92zM342 -258q66 84 149 154q106 -88 154 -156q-59 -89 -154 -154q-90 66 -149 156z" />
    <glyph glyph-name="uni068F.fina" unicode="&#x68f;" horiz-adv-x="991" 
d="M672 1262q-70 -78 -146 -148q-100 82 -145 148q53 79 145 149q80 -65 146 -149zM428 817l133 170h61l160 -514q68 -192 88 -215q25 -31 123 -31l51 -10v-227l-51 -10h-29q-172 0 -245 141l-82 -107q-95 -34 -305 -34q-283 0 -283 221q0 128 80 278l96 -28
q-24 -86 -24 -132q0 -47 22 -63q38 -29 160 -29q123 0 310 10q-48 46 -265 580zM416 1337q-106 88 -154 158q62 87 152 152q57 -42 112 -103q30 40 115 103q89 -65 147 -154q-63 -80 -149 -156q-106 108 -112 116z" />
    <glyph glyph-name="uni0690.fina" unicode="&#x690;" horiz-adv-x="1041" 
d="M479 817l133 170h61l160 -514q68 -192 88 -215q25 -31 123 -31l51 -10v-227l-51 -10h-29q-172 0 -245 141l-82 -107q-95 -34 -305 -34q-283 0 -283 221q0 128 80 278l96 -28q-24 -86 -24 -132q0 -47 22 -63q38 -29 160 -29q123 0 310 10q-48 46 -265 580zM562 1244
q-15 -22 -110 -99q-94 75 -148 150q29 43 107 114q-69 60 -107 115q24 34 146 150q100 -76 114 -103q2 0 111 103q92 -69 148 -150q-42 -63 -105 -115q75 -69 105 -114q-48 -73 -146 -150q-103 82 -115 99zM640 1409l-78 76l-73 -76l73 -75z" />
    <glyph glyph-name="uni0692.fina" unicode="&#x692;" horiz-adv-x="907" 
d="M488 819l-18 15q-46 125 -191 239l78 154l31 10q116 -104 162 -229q26 79 147 225l37 -6l60 -127q-134 -139 -181 -281h-125zM445 477l146 174h55l51 -211q36 -141 68 -176q34 -37 145 -37l51 -10v-227l-51 -10h-26q-105 0 -174 63q-10 -108 -103 -264
q-117 -195 -262 -195q-41 0 -176 74q-123 69 -166 106l37 89q111 -29 172 -29q250 0 382 373q-28 8 -149 280z" />
    <glyph glyph-name="uni0693.fina" unicode="&#x693;" horiz-adv-x="907" 
d="M642 -362q66 0 66 59q0 65 -66 65t-66 -65q0 -59 66 -59zM765 -178q49 -49 49 -125q0 -71 -49 -123q-48 -51 -123 -51q-141 0 -166 104q-46 -43 -131 -43q-41 0 -176 74q-123 69 -166 106l37 89q111 -29 172 -29q250 0 382 373q-28 8 -149 280l146 174h55l51 -211
q36 -141 68 -176q34 -37 145 -37l51 -10v-227l-51 -10h-26q-105 0 -174 63q-9 -72 -56 -172q66 -4 111 -49z" />
    <glyph glyph-name="uni0694.fina" unicode="&#x694;" horiz-adv-x="907" 
d="M251 -655q68 82 151 155q106 -88 152 -157q-58 -88 -152 -154q-91 64 -151 156zM445 477l146 174h55l51 -211q36 -141 68 -176q34 -37 145 -37l51 -10v-227l-51 -10h-26q-105 0 -174 63q-10 -108 -103 -264q-117 -195 -262 -195q-41 0 -176 74q-123 69 -166 106l37 89
q111 -29 172 -29q250 0 382 373q-28 8 -149 280z" />
    <glyph glyph-name="uni0695.fina" unicode="&#x695;" horiz-adv-x="907" 
d="M396 -918l-18 19q-42 122 -189 237l78 154l31 10q114 -105 162 -229q26 79 147 225l37 -6l57 -127q-132 -144 -178 -283h-127zM445 477l146 174h55l51 -211q36 -141 68 -176q34 -37 145 -37l51 -10v-227l-51 -10h-26q-105 0 -174 63q-10 -108 -103 -264
q-117 -195 -262 -195q-41 0 -176 74q-123 69 -166 106l37 89q111 -29 172 -29q250 0 382 373q-28 8 -149 280z" />
    <glyph glyph-name="uni0696.fina" unicode="&#x696;" horiz-adv-x="907" 
d="M95 233q67 84 150 154q106 -87 153 -156q-58 -89 -153 -153q-91 65 -150 155zM587 -487q71 92 151 157q108 -94 152 -157q-55 -84 -152 -152q-96 68 -151 152zM445 477l146 174h55l51 -211q36 -141 68 -176q34 -37 145 -37l51 -10v-227l-51 -10h-26q-105 0 -174 63
q-10 -108 -103 -264q-117 -195 -262 -195q-41 0 -176 74q-123 69 -166 106l37 89q111 -29 172 -29q250 0 382 373q-28 8 -149 280z" />
    <glyph glyph-name="uni0697.fina" unicode="&#x697;" horiz-adv-x="907" 
d="M654 819q-67 48 -112 103q-30 -40 -115 -103q-89 65 -148 154q68 85 148 155l115 -114l110 114q111 -91 154 -157q-62 -87 -152 -152zM445 477l146 174h55l51 -211q36 -141 68 -176q34 -37 145 -37l51 -10v-227l-51 -10h-26q-105 0 -174 63q-10 -108 -103 -264
q-117 -195 -262 -195q-41 0 -176 74q-123 69 -166 106l37 89q111 -29 172 -29q250 0 382 373q-28 8 -149 280z" />
    <glyph glyph-name="uni0699.fina" unicode="&#x699;" horiz-adv-x="907" 
d="M550 907q-18 -25 -113 -100q-92 74 -147 147q26 43 106 117q-70 60 -106 119q38 48 145 145q95 -66 117 -102q37 37 110 102q84 -57 150 -147q-38 -61 -107 -117q68 -58 107 -115q-49 -74 -147 -149q-85 63 -115 100zM628 1071l-78 78l-76 -78l76 -76zM445 477l146 174
h55l51 -211q36 -141 68 -176q34 -37 145 -37l51 -10v-227l-51 -10h-26q-105 0 -174 63q-10 -108 -103 -264q-117 -195 -262 -195q-41 0 -176 74q-123 69 -166 106l37 89q118 -29 172 -29q250 0 382 373q-28 8 -149 280z" />
    <glyph glyph-name="uni069A.init" unicode="&#x69a;" horiz-adv-x="1422" 
d="M654 958q71 93 151 158q106 -88 152 -158q-59 -86 -152 -151q-93 65 -151 151zM1262 63q-84 -108 -131 -108q-190 0 -385 151q-72 -126 -267 -126q-176 0 -247 102q-78 -102 -234 -102l-51 10v227l51 10q102 0 160 13l68 196l127 88l51 -26q-21 -154 -37 -250
q50 -21 153 -21q58 0 119 11l82 303l131 88l49 -27q-5 -117 -34 -321q126 -73 286 -95l-57 459l160 131h63q23 -415 23 -559q0 -49 -80 -154zM611 -295q66 83 151 156q108 -95 152 -158q-58 -88 -152 -154q-91 65 -151 156z" />
    <glyph glyph-name="uni069A.medi" unicode="&#x69a;" horiz-adv-x="1501" 
d="M654 958q71 93 151 158q106 -88 152 -158q-59 -86 -152 -151q-93 65 -151 151zM1442 -20q-163 0 -215 110q-58 -110 -248 -110q-182 0 -250 98q-58 -98 -250 -98q-176 0 -247 102q-78 -102 -234 -102l-51 10v227l51 10q102 0 160 13l68 196l127 88l51 -26
q-21 -154 -37 -250q50 -21 153 -21q58 0 119 11l82 303l131 88l49 -27q-14 -202 -41 -350q53 -25 160 -25q87 0 135 15q-11 68 -34 329l163 123h64v-387q0 -57 8 -65q14 -15 82 -15h65l52 -10v-227l-52 -10h-61zM617 -295q63 80 149 156q108 -92 154 -158q-59 -89 -154 -154
q-90 66 -149 156z" />
    <glyph glyph-name="uni069A.fina" unicode="&#x69a;" horiz-adv-x="2219" 
d="M1372 967q68 82 151 155q106 -87 152 -157q-58 -88 -152 -154q-91 64 -151 156zM190 -295q-90 96 -90 256q0 210 172 477l90 -43q-84 -205 -84 -313q0 -246 303 -246q238 0 369 88q-32 199 -80 549l172 139h66l12 -372q34 -13 119 -13q57 0 118 11l82 303l131 88l50 -27
q-15 -202 -41 -350q52 -25 159 -25q87 0 136 15q-14 85 -33 329l162 123h63v-387q0 -57 8 -65q15 -15 82 -15h66l51 -10v-227l-51 -10h-62q-163 0 -215 110q-58 -110 -250 -110q-180 0 -247 98q-59 -98 -250 -98q-67 0 -84 10v-6q-22 -122 -117 -250q-146 -150 -459 -150
q-233 0 -348 121zM1335 -295q63 80 149 156q108 -92 154 -158q-58 -89 -154 -154q-90 66 -149 156z" />
    <glyph glyph-name="uni069B.init" unicode="&#x69b;" horiz-adv-x="1422" 
d="M1262 63q-84 -108 -131 -108q-190 0 -385 151q-72 -126 -267 -126q-176 0 -247 102q-78 -102 -234 -102l-51 10v227l51 10q102 0 160 13l68 196l127 88l51 -26q-21 -154 -37 -250q50 -21 153 -21q58 0 119 11l82 303l131 88l49 -27q-5 -117 -34 -321q126 -73 286 -95
l-57 459l160 131h63q23 -415 23 -559q0 -49 -80 -154zM779 -338l-111 -117q-106 88 -154 158q62 87 152 152q58 -42 113 -103q29 40 114 103q87 -63 150 -154q-74 -86 -150 -156zM924 -532q-60 -68 -145 -146q-101 82 -146 148q55 81 146 147q79 -62 145 -149z" />
    <glyph glyph-name="uni069B.medi" unicode="&#x69b;" horiz-adv-x="1501" 
d="M1442 -20q-163 0 -215 110q-58 -110 -248 -110q-182 0 -250 98q-58 -98 -250 -98q-176 0 -247 102q-78 -102 -234 -102l-51 10v227l51 10q102 0 160 13l68 196l127 88l51 -26q-21 -154 -37 -250q50 -21 153 -21q58 0 119 11l82 303l131 88l49 -27q-14 -202 -41 -350
q53 -25 160 -25q87 0 135 15q-11 68 -34 329l163 123h64v-387q0 -57 8 -65q14 -15 82 -15h65l52 -10v-227l-52 -10h-61zM789 -338l-111 -117q-106 88 -154 158q62 87 152 152q58 -42 113 -103q29 40 114 103q87 -63 150 -154q-74 -86 -150 -156zM934 -532q-60 -68 -145 -146
q-101 82 -146 148q55 81 146 147q79 -62 145 -149z" />
    <glyph glyph-name="uni069B.fina" unicode="&#x69b;" horiz-adv-x="2219" 
d="M190 -295q-90 96 -90 256q0 210 172 477l90 -43q-84 -205 -84 -313q0 -246 303 -246q238 0 369 88q-32 199 -80 549l172 139h66l12 -372q34 -13 119 -13q57 0 118 11l82 303l131 88l50 -27q-15 -202 -41 -350q52 -25 159 -25q87 0 136 15q-14 85 -33 329l162 123h63v-387
q0 -57 8 -65q15 -15 82 -15h66l51 -10v-227l-51 -10h-62q-163 0 -215 110q-58 -110 -250 -110q-180 0 -247 98q-59 -98 -250 -98q-67 0 -84 10v-6q-22 -122 -117 -250q-146 -150 -459 -150q-233 0 -348 121zM1529 -338l-111 -117q-106 88 -154 158q62 87 152 152
q58 -42 113 -103q29 40 114 103q87 -63 150 -154q-74 -86 -150 -156zM1674 -532q-60 -68 -145 -146q-101 82 -146 148q55 81 146 147q79 -62 145 -149z" />
    <glyph glyph-name="uni069C.init" unicode="&#x69c;" horiz-adv-x="1422" 
d="M645 1169q70 78 146 148q97 -77 145 -148q-57 -85 -145 -149q-79 63 -146 149zM903 784q-61 46 -112 103q-30 -40 -115 -103q-82 62 -149 152q69 84 149 158q115 -115 119 -115q1 0 1 1l-1 1q70 70 106 113q106 -88 154 -158q-59 -87 -152 -152zM1262 63
q-84 -108 -131 -108q-190 0 -385 151q-72 -126 -267 -126q-176 0 -247 102q-78 -102 -234 -102l-51 10v227l51 10q102 0 160 13l68 196l127 88l51 -26q-21 -154 -37 -250q50 -21 153 -21q58 0 119 11l82 303l131 88l49 -27q-5 -117 -34 -321q126 -73 286 -95l-57 459
l160 131h63q23 -415 23 -559q0 -49 -80 -154zM779 -338l-111 -117q-106 88 -154 158q62 87 152 152q58 -42 113 -103q29 40 114 103q87 -63 150 -154q-74 -86 -150 -156zM924 -532q-60 -68 -145 -146q-101 82 -146 148q55 81 146 147q79 -62 145 -149z" />
    <glyph glyph-name="uni069C.medi" unicode="&#x69c;" horiz-adv-x="1501" 
d="M641 1171q69 74 144 146q101 -80 147 -148q-57 -85 -145 -149q-81 65 -146 151zM899 784q-61 46 -112 103q-30 -40 -115 -103q-82 62 -150 152q70 84 150 158l117 -117l139 90q78 -66 123 -131q-59 -87 -152 -152zM1442 -20q-163 0 -215 110q-58 -110 -248 -110
q-182 0 -250 98q-58 -98 -250 -98q-176 0 -247 102q-78 -102 -234 -102l-51 10v227l51 10q102 0 160 13l68 196l127 88l51 -26q-21 -154 -37 -250q50 -21 153 -21q58 0 119 11l82 303l131 88l49 -27q-14 -202 -41 -350q53 -25 160 -25q87 0 135 15q-11 68 -34 329l163 123
h64v-387q0 -57 8 -65q14 -15 82 -15h65l52 -10v-227l-52 -10h-61zM789 -338l-111 -117q-106 88 -154 158q62 87 152 152q58 -42 113 -103q29 40 114 103q87 -63 150 -154q-74 -86 -150 -156zM934 -532q-60 -68 -145 -146q-101 82 -146 148q55 81 146 147q79 -62 145 -149z
" />
    <glyph glyph-name="uni069C.fina" unicode="&#x69c;" horiz-adv-x="2219" 
d="M1388 1171q60 68 146 146q100 -82 145 -148q-63 -90 -145 -149q-77 59 -146 151zM1644 784q-66 49 -110 101q-31 -39 -115 -101q-83 60 -152 152q68 81 154 158l113 -117l139 90q78 -66 123 -131q-59 -87 -152 -152zM190 -295q-90 96 -90 256q0 210 172 477l90 -43
q-84 -205 -84 -313q0 -246 303 -246q238 0 369 88q-32 199 -80 549l172 139h66l12 -372q34 -13 119 -13q57 0 118 11l82 303l131 88l50 -27q-15 -202 -41 -350q52 -25 159 -25q87 0 136 15q-14 85 -33 329l162 123h63v-387q0 -57 8 -65q15 -15 82 -15h66l51 -10v-227
l-51 -10h-62q-163 0 -215 110q-58 -110 -250 -110q-180 0 -247 98q-59 -98 -250 -98q-67 0 -84 10v-6q-22 -122 -117 -250q-146 -150 -459 -150q-233 0 -348 121zM1529 -338l-111 -117q-106 88 -154 158q62 87 152 152q58 -42 113 -103q29 40 114 103q87 -63 150 -154
q-74 -86 -150 -156zM1674 -532q-60 -68 -145 -146q-101 82 -146 148q55 81 146 147q79 -62 145 -149z" />
    <glyph glyph-name="uni069D.init" unicode="&#x69d;" horiz-adv-x="1579" 
d="M834 229q361 7 514 90q-40 107 -125 189q-87 84 -176 84q-215 0 -457 -359q58 -6 158 -6zM719 -20q-345 0 -469 126q-90 -126 -252 -126l-51 10v227l51 10q102 0 160 13q21 71 68 200l127 86l51 -22q-13 -110 -29 -215q31 -24 76 -33q300 592 653 592q154 0 283 -172
q112 -152 112 -287q0 -145 -133 -278q-131 -131 -608 -131h-39zM970 -338l-111 -117q-106 88 -154 158q62 87 152 152q58 -42 113 -103q29 40 114 103q87 -63 150 -154q-74 -86 -150 -156z" />
    <glyph glyph-name="uni069D.medi" unicode="&#x69d;" horiz-adv-x="1605" 
d="M834 229q361 7 514 90q-40 107 -125 189q-87 84 -176 84q-215 0 -457 -359q58 -6 158 -6zM1608 -20h-141q-87 0 -164 90q-177 -90 -545 -90h-39q-345 0 -469 126q-90 -126 -252 -126l-51 10v227l51 10q102 0 160 13q21 71 68 200l127 86l51 -22q-13 -110 -29 -215
q31 -24 76 -33q300 592 653 592q154 0 283 -172q112 -152 112 -287q0 -71 -53 -162h162l51 -10v-227zM970 -338l-111 -117q-106 88 -154 158q62 87 152 152q58 -42 113 -103q29 40 114 103q87 -63 150 -154q-74 -86 -150 -156z" />
    <glyph glyph-name="uni069D.fina" unicode="&#x69d;" horiz-adv-x="2273" 
d="M1505 229q362 7 514 90q-39 107 -125 189q-87 84 -178 84q-213 0 -455 -359q80 -6 156 -6zM190 -295q-90 96 -90 256q0 210 172 477l90 -43q-84 -205 -84 -313q0 -246 303 -246q238 0 369 88q-32 199 -80 549l172 139h66l12 -358q301 594 653 594q154 0 283 -172
q115 -155 115 -287q0 -70 -56 -162h160l51 -10v-227l-51 -10h-139q-87 0 -164 92q-181 -92 -543 -92h-39q-212 0 -272 38l-4 -36q-22 -119 -117 -248q-146 -150 -459 -150q-233 0 -348 121zM1641 -338l-111 -117q-106 88 -154 158q62 87 152 152q58 -42 113 -103
q29 40 114 103q87 -63 150 -154q-74 -86 -150 -156z" />
    <glyph glyph-name="uni069E.init" unicode="&#x69e;" horiz-adv-x="1579" 
d="M834 229q361 7 514 90q-40 107 -125 189q-87 84 -176 84q-215 0 -457 -359q58 -6 158 -6zM719 -20q-345 0 -469 126q-90 -126 -252 -126l-51 10v227l51 10q102 0 160 13q21 71 68 200l127 86l51 -22q-13 -110 -29 -215q31 -24 76 -33q300 592 653 592q154 0 283 -172
q112 -152 112 -287q0 -145 -133 -278q-131 -131 -608 -131h-39zM764 1368q69 78 146 148q99 -78 143 -148q-55 -82 -143 -149q-80 65 -146 149zM1020 983q-66 49 -110 101q-35 -41 -117 -101q-82 62 -150 152q80 96 150 158q115 -115 115 -117q73 74 110 117
q106 -88 154 -158q-59 -87 -152 -152z" />
    <glyph glyph-name="uni069E.medi" unicode="&#x69e;" horiz-adv-x="1605" 
d="M834 229q361 7 514 90q-40 107 -125 189q-87 84 -176 84q-215 0 -457 -359q58 -6 158 -6zM1608 -20h-141q-87 0 -164 90q-177 -90 -545 -90h-39q-345 0 -469 126q-90 -126 -252 -126l-51 10v227l51 10q102 0 160 13q21 71 68 200l127 86l51 -22q-13 -110 -29 -215
q31 -24 76 -33q300 592 653 592q154 0 283 -172q112 -152 112 -287q0 -71 -53 -162h162l51 -10v-227zM768 1369q69 78 146 148q99 -78 143 -148q-55 -82 -143 -149q-80 65 -146 149zM1024 984q-66 49 -110 101q-35 -41 -117 -101q-82 62 -150 152q80 96 150 158
q115 -115 115 -117q73 74 110 117q106 -88 154 -158q-59 -87 -152 -152z" />
    <glyph glyph-name="uni069E.fina" unicode="&#x69e;" horiz-adv-x="2272" 
d="M1505 229q362 7 514 90q-39 107 -125 189q-87 84 -178 84q-213 0 -455 -359q80 -6 156 -6zM190 -295q-90 96 -90 256q0 210 172 477l90 -43q-84 -205 -84 -313q0 -246 303 -246q238 0 369 88q-32 199 -80 549l172 139h66l12 -358q301 594 653 594q154 0 283 -172
q115 -155 115 -287q0 -70 -56 -162h160l51 -10v-227l-51 -10h-139q-87 0 -164 92q-181 -92 -543 -92h-39q-212 0 -272 38l-4 -36q-22 -119 -117 -248q-146 -150 -459 -150q-233 0 -348 121zM1432 1368q69 78 146 148q99 -78 143 -148q-55 -82 -143 -149q-80 65 -146 149z
M1688 983q-66 49 -110 101q-35 -41 -117 -101q-82 62 -150 152q80 96 150 158q115 -115 115 -117q73 74 110 117q106 -88 154 -158q-59 -87 -152 -152z" />
    <glyph glyph-name="uni069F.init" unicode="&#x69f;" horiz-adv-x="1235" 
d="M490 229q358 7 512 93q-38 99 -125 186q-90 84 -182 84q-219 0 -455 -365h203zM762 848q155 0 281 -172q112 -149 112 -287q0 -52 -51 -151q-45 -91 -82 -127q-131 -131 -608 -131h-416l-51 10v227l51 10h101q51 99 100 179l-21 733l-53 137l209 203l64 -45v-105l96 -176
l-98 -104v-285q0 -53 -31 -137q195 221 397 221zM657 1331q70 78 146 148q97 -77 145 -148q-57 -85 -145 -149q-79 63 -146 149zM915 946q-61 46 -112 103q-30 -40 -115 -103q-82 62 -149 152q69 84 149 158q115 -115 119 -115q1 0 1 1l-1 1q70 70 106 113q106 -88 154 -158
q-59 -87 -152 -152z" />
    <glyph glyph-name="uni069F.medi" unicode="&#x69f;" horiz-adv-x="1265" 
d="M490 229q358 7 512 93q-38 99 -125 186q-90 84 -182 84q-219 0 -455 -365h203zM762 848q155 0 281 -172q112 -149 112 -287q0 -66 -55 -162h168l51 -10v-227l-51 -10h-139q-91 0 -168 92q-175 -92 -547 -92h-416l-51 10v227l51 10h101q51 99 100 179l-21 733l-53 137
l209 203l64 -45v-105l96 -176l-98 -104v-285q0 -53 -31 -137q195 221 397 221zM657 1331q70 78 146 148q97 -77 145 -148q-57 -85 -145 -149q-79 63 -146 149zM915 946q-61 46 -112 103q-30 -40 -115 -103q-82 62 -149 152q69 84 149 158q115 -115 119 -115q1 0 1 1l-1 1
q70 70 106 113q106 -88 154 -158q-59 -87 -152 -152z" />
    <glyph glyph-name="uni069F.fina" unicode="&#x69f;" horiz-adv-x="1477" 
d="M702 229q355 7 512 93q-38 99 -125 186q-90 84 -182 84q-216 0 -453 -361q62 -4 129 -4zM974 848q155 0 281 -172q113 -149 113 -287q0 -66 -56 -162h168l51 -10v-227l-51 -10h-139q-89 0 -166 92q-181 -92 -549 -92h-71q-200 0 -277 36l-258 189l20 61q178 -20 275 -26
q45 87 96 166l-20 733l-54 137l209 203l64 -45v-105l96 -176l-98 -104v-285q0 -64 -21 -125q191 209 387 209zM887 1331q70 78 146 148q97 -77 145 -148q-57 -85 -145 -149q-79 63 -146 149zM1145 946q-61 46 -112 103q-30 -40 -115 -103q-82 62 -149 152q69 84 149 158
q115 -115 119 -115q1 0 1 1l-1 1q70 70 106 113q106 -88 154 -158q-59 -87 -152 -152z" />
    <glyph glyph-name="uni06A0.init" unicode="&#x6a0;" horiz-adv-x="1041" 
d="M871 111q-378 -131 -711 -131h-162l-51 10v227l51 10h182q-88 76 -88 230q0 141 78 243q43 70 146 136q109 65 204 65q153 0 304 -283l-62 -61l-192 123q-181 -15 -324 -162q31 -86 113 -162q95 -86 209 -86q158 0 356 101l37 -33zM365 1426q69 78 146 148
q99 -78 143 -148q-55 -82 -143 -149q-80 65 -146 149zM621 1041q-66 49 -110 101q-35 -41 -117 -101q-82 62 -150 152q80 96 150 158q115 -115 115 -117q73 74 110 117q106 -88 154 -158q-59 -87 -152 -152z" />
    <glyph glyph-name="uni06A0.medi" unicode="&#x6a0;" horiz-adv-x="1165" 
d="M940 557q-113 31 -315 31q-141 0 -240 -17q130 -133 146 -147q80 -78 124 -109q202 108 285 242zM1168 -20h-144q-241 0 -405 108q-217 -108 -490 -108h-131l-51 10v227l51 10h299q89 0 142 13l-234 249l-65 -92l-78 47q100 284 178 312q153 59 426 59q314 0 409 -92
q16 -19 16 -74q0 -16 -1 -35q-3 -75 -19 -100q-102 -180 -233 -281q21 -6 86 -6h244l51 -10v-227zM465 1376q69 78 146 148q99 -78 143 -148q-55 -82 -143 -149q-80 65 -146 149zM721 991q-66 49 -110 101q-35 -41 -117 -101q-82 62 -150 152q80 96 150 158
q115 -115 115 -117q73 74 110 117q106 -88 154 -158q-59 -87 -152 -152z" />
    <glyph glyph-name="uni06A0.fina" unicode="&#x6a0;" horiz-adv-x="1234" 
d="M987 567q-107 33 -322 33q-139 0 -231 -14q109 -115 164 -166q57 -55 87 -78q241 110 302 225zM1259 -428q-336 -217 -434 -217q-513 0 -627 311q-31 81 -31 157q0 36 7 71q43 211 323 356l-245 256l-72 -103l-80 43q101 289 182 320q166 59 422 59q315 0 410 -92
q15 -16 15 -70q0 -16 -1 -36q-6 -71 -18 -99q-64 -178 -252 -286q31 -15 131 -15h248l51 -10v-227l-51 -10h-181q-228 0 -403 129q-321 -164 -354 -291q83 -197 596 -197q115 0 340 25zM515 1426q69 78 146 148q99 -78 143 -148q-55 -82 -143 -149q-80 65 -146 149z
M771 1041q-66 49 -110 101q-35 -41 -117 -101q-82 62 -150 152q80 96 150 158q115 -115 115 -117q73 74 110 117q106 -88 154 -158q-59 -87 -152 -152z" />
    <glyph glyph-name="uni06A1.init" unicode="&#x6a1;" horiz-adv-x="838" 
d="M-2 -20l-51 10v227l51 10h326q175 0 270 19q4 28 4 65q0 72 -2 82l-35 -57q-92 -39 -202 -39q-163 0 -215 84q-68 89 -68 201q3 139 96 282q108 166 254 166q151 0 246 -217q86 -190 86 -422q0 -75 -12 -127q-13 -56 -76 -143q-61 -86 -84 -92q-101 -49 -348 -49h-240z
M565 539q-64 249 -186 249q-57 0 -110 -71q-51 -69 -70 -154q63 -47 176 -47q107 0 190 23z" />
    <glyph glyph-name="uni06A1.medi" unicode="&#x6a1;" horiz-adv-x="845" 
d="M506 274q71 40 111 86q-10 116 -60 209q-56 103 -118 103q-52 0 -117 -66q-69 -65 -96 -139q97 -131 270 -199zM801 -20q-179 0 -346 88q-158 -88 -350 -88h-107l-51 10v227l51 10h217q-50 44 -84 115q-27 61 -27 127q0 28 5 57q18 117 127 244q125 150 256 150
q124 0 213 -154q84 -146 84 -330q-6 -113 -84 -198q49 -10 128 -11h15l51 -10v-227l-51 -10h-47z" />
    <glyph glyph-name="uni06A1.fina" unicode="&#x6a1;" horiz-adv-x="1656" 
d="M1312 274q67 38 111 88q-10 114 -59 207q-56 103 -119 103q-51 0 -117 -66q-68 -65 -96 -139q97 -128 270 -199zM1279 61l-3 -2q-240 -116 -635 -116q-541 0 -541 381q0 209 174 469l92 -52q-88 -191 -88 -299q0 -249 402 -249q247 0 364 14q-69 54 -106 135
q-28 61 -28 128q0 27 5 56q19 117 127 244q125 150 256 150q124 0 213 -154q84 -146 84 -330q-6 -110 -79 -198q49 -10 128 -11h15l51 -10v-227l-51 -10h-47q-172 0 -333 81z" />
    <glyph glyph-name="uni06A2.init" unicode="&#x6a2;" horiz-adv-x="838" 
d="M-2 -20l-51 10v227l51 10h326q175 0 270 19q4 28 4 65q0 72 -2 82l-35 -57q-92 -39 -202 -39q-163 0 -215 84q-68 89 -68 201q3 139 96 282q108 166 254 166q151 0 246 -217q86 -190 86 -422q0 -75 -12 -127q-13 -56 -76 -143q-61 -86 -84 -92q-101 -49 -348 -49h-240z
M565 539q-64 249 -186 249q-57 0 -110 -71q-51 -69 -70 -154q63 -47 176 -47q107 0 190 23zM246 -315q66 84 149 153q106 -87 154 -155q-58 -90 -154 -154q-90 65 -149 156z" />
    <glyph glyph-name="uni06A2.medi" unicode="&#x6a2;" horiz-adv-x="845" 
d="M506 274q71 40 111 86q-10 116 -60 209q-56 103 -118 103q-52 0 -117 -66q-69 -65 -96 -139q97 -131 270 -199zM801 -20q-179 0 -346 88q-158 -88 -350 -88h-107l-51 10v227l51 10h217q-50 44 -84 115q-27 61 -27 127q0 28 5 57q18 117 127 244q125 150 256 150
q124 0 213 -154q84 -146 84 -330q-6 -113 -84 -198q49 -10 128 -11h15l51 -10v-227l-51 -10h-47zM297 -315q66 84 149 153q106 -87 154 -155q-58 -90 -154 -154q-90 65 -149 156z" />
    <glyph glyph-name="uni06A2.fina" unicode="&#x6a2;" horiz-adv-x="1656" 
d="M1312 274q67 38 111 88q-10 114 -59 207q-56 103 -119 103q-51 0 -117 -66q-68 -65 -96 -139q97 -128 270 -199zM1279 61l-3 -2q-240 -116 -635 -116q-541 0 -541 381q0 209 174 469l92 -52q-88 -191 -88 -299q0 -249 402 -249q247 0 364 14q-69 54 -106 135
q-28 61 -28 128q0 27 5 56q19 117 127 244q125 150 256 150q124 0 213 -154q84 -146 84 -330q-6 -110 -79 -198q49 -10 128 -11h15l51 -10v-227l-51 -10h-47q-172 0 -333 81zM1145 -315q66 84 149 153q106 -87 154 -155q-58 -90 -154 -154q-90 65 -149 156z" />
    <glyph glyph-name="uni06A3.init" unicode="&#x6a3;" horiz-adv-x="838" 
d="M246 1356q69 90 150 157q107 -92 153 -157q-60 -88 -153 -152q-92 67 -150 152zM-2 -20l-51 10v227l51 10h326q175 0 270 19q4 28 4 65q0 72 -2 82l-35 -57q-92 -39 -202 -39q-163 0 -215 84q-68 89 -68 201q3 139 96 282q108 166 254 166q151 0 246 -217
q86 -190 86 -422q0 -75 -12 -127q-13 -56 -76 -143q-61 -86 -84 -92q-101 -49 -348 -49h-240zM565 539q-64 249 -186 249q-57 0 -110 -71q-51 -69 -70 -154q63 -47 176 -47q107 0 190 23zM246 -315q66 84 149 153q106 -87 154 -155q-58 -90 -154 -154q-90 65 -149 156z" />
    <glyph glyph-name="uni06A3.medi" unicode="&#x6a3;" horiz-adv-x="845" 
d="M297 1225q77 89 154 153q106 -87 153 -155q-61 -89 -153 -154q-86 62 -154 156zM506 274q71 40 111 86q-10 116 -60 209q-56 103 -118 103q-52 0 -117 -66q-69 -65 -96 -139q97 -131 270 -199zM801 -20q-179 0 -346 88q-158 -88 -350 -88h-107l-51 10v227l51 10h217
q-50 44 -84 115q-27 61 -27 127q0 28 5 57q18 117 127 244q125 150 256 150q124 0 213 -154q84 -146 84 -330q-6 -113 -84 -198q49 -10 128 -11h15l51 -10v-227l-51 -10h-47zM297 -315q66 84 149 153q106 -87 154 -155q-58 -90 -154 -154q-90 65 -149 156z" />
    <glyph glyph-name="uni06A3.fina" unicode="&#x6a3;" horiz-adv-x="1656" 
d="M1140 1231q73 85 154 155q108 -92 154 -157q-62 -89 -154 -154q-86 62 -154 156zM1312 274q67 38 111 88q-10 114 -59 207q-56 103 -119 103q-51 0 -117 -66q-68 -65 -96 -139q97 -128 270 -199zM1279 61l-3 -2q-240 -116 -635 -116q-541 0 -541 381q0 209 174 469
l92 -52q-88 -191 -88 -299q0 -249 402 -249q247 0 364 14q-69 54 -106 135q-28 61 -28 128q0 27 5 56q19 117 127 244q125 150 256 150q124 0 213 -154q84 -146 84 -330q-6 -110 -79 -198q49 -10 128 -11h15l51 -10v-227l-51 -10h-47q-172 0 -333 81zM611 -315
q66 84 149 153q106 -87 154 -155q-58 -90 -154 -154q-90 65 -149 156z" />
    <glyph glyph-name="uni06A5.init" unicode="&#x6a5;" horiz-adv-x="838" 
d="M-2 -20l-51 10v227l51 10h326q175 0 270 19q4 28 4 65q0 72 -2 82l-35 -57q-92 -39 -202 -39q-163 0 -215 84q-68 89 -68 201q3 139 96 282q108 166 254 166q151 0 246 -217q86 -190 86 -422q0 -75 -12 -127q-13 -56 -76 -143q-61 -86 -84 -92q-101 -49 -348 -49h-240z
M565 539q-64 249 -186 249q-57 0 -110 -71q-51 -69 -70 -154q63 -47 176 -47q107 0 190 23zM389 -338l-111 -117q-106 88 -154 158q62 87 152 152q58 -42 113 -103q29 40 114 103q87 -63 150 -154q-74 -86 -150 -156zM534 -532q-60 -68 -145 -146q-101 82 -146 148
q55 81 146 147q79 -62 145 -149z" />
    <glyph glyph-name="uni06A5.medi" unicode="&#x6a5;" horiz-adv-x="845" 
d="M506 274q71 40 111 86q-10 116 -60 209q-56 103 -118 103q-52 0 -117 -66q-69 -65 -96 -139q97 -131 270 -199zM801 -20q-179 0 -346 88q-158 -88 -350 -88h-107l-51 10v227l51 10h217q-50 44 -84 115q-27 61 -27 127q0 28 5 57q18 117 127 244q125 150 256 150
q124 0 213 -154q84 -146 84 -330q-6 -113 -84 -198q49 -10 128 -11h15l51 -10v-227l-51 -10h-47zM409 -338l-111 -117q-106 88 -154 158q62 87 152 152q58 -42 113 -103q29 40 114 103q87 -63 150 -154q-74 -86 -150 -156zM554 -532q-60 -68 -145 -146q-101 82 -146 148
q55 81 146 147q79 -62 145 -149z" />
    <glyph glyph-name="uni06A5.fina" unicode="&#x6a5;" horiz-adv-x="1656" 
d="M1312 274q67 38 111 88q-10 114 -59 207q-56 103 -119 103q-51 0 -117 -66q-68 -65 -96 -139q97 -128 270 -199zM1279 61l-3 -2q-240 -116 -635 -116q-541 0 -541 381q0 209 174 469l92 -52q-88 -191 -88 -299q0 -249 402 -249q247 0 364 14q-69 54 -106 135
q-28 61 -28 128q0 27 5 56q19 117 127 244q125 150 256 150q124 0 213 -154q84 -146 84 -330q-6 -110 -79 -198q49 -10 128 -11h15l51 -10v-227l-51 -10h-47q-172 0 -333 81zM1259 -338l-111 -117q-106 88 -154 158q62 87 152 152q58 -42 113 -103q29 40 114 103
q87 -63 150 -154q-74 -86 -150 -156zM1404 -532q-60 -68 -145 -146q-101 82 -146 148q55 81 146 147q79 -62 145 -149z" />
    <glyph glyph-name="uni06A7.init" unicode="&#x6a7;" horiz-adv-x="838" 
d="M246 1356q69 90 150 157q107 -92 153 -157q-60 -88 -153 -152q-92 67 -150 152zM-2 -20l-51 10v227l51 10h326q175 0 270 19q4 28 4 65q0 72 -2 82l-35 -57q-92 -39 -202 -39q-163 0 -215 84q-68 89 -68 201q3 139 96 282q108 166 254 166q151 0 246 -217
q86 -190 86 -422q0 -75 -12 -127q-13 -56 -76 -143q-61 -86 -84 -92q-101 -49 -348 -49h-240zM565 539q-64 249 -186 249q-57 0 -110 -71q-51 -69 -70 -154q63 -47 176 -47q107 0 190 23z" />
    <glyph glyph-name="uni06A7.medi" unicode="&#x6a7;" horiz-adv-x="845" 
d="M297 1225q77 89 154 153q106 -87 153 -155q-61 -89 -153 -154q-86 62 -154 156zM506 274q71 40 111 86q-10 116 -60 209q-56 103 -118 103q-52 0 -117 -66q-69 -65 -96 -139q97 -131 270 -199zM801 -20q-179 0 -346 88q-158 -88 -350 -88h-107l-51 10v227l51 10h217
q-50 44 -84 115q-27 61 -27 127q0 28 5 57q18 117 127 244q125 150 256 150q124 0 213 -154q84 -146 84 -330q-6 -113 -84 -198q49 -10 128 -11h15l51 -10v-227l-51 -10h-47z" />
    <glyph glyph-name="uni06A7.fina" unicode="&#x6a7;" horiz-adv-x="1328" 
d="M985 438q-65 97 -127 97q-66 0 -127 -89q-61 -86 -76 -178q54 -41 240 -41h177q-31 122 -87 211zM100 -41q0 208 172 475l90 -43q-84 -196 -84 -305q0 -252 309 -252q328 0 498 113l2 33h-207q-184 0 -278 94q-66 95 -66 194v17q6 164 101 313q110 178 266 178
q137 0 231 -180q87 -165 96 -369h101l51 -10v-227l-51 -10h-111v4q-6 -39 -49 -127q-46 -96 -74 -117q-222 -158 -553 -158q-444 0 -444 377zM706 1088q69 90 150 157q107 -92 153 -157q-60 -88 -153 -152q-92 67 -150 152z" />
    <glyph glyph-name="uni06A8.init" unicode="&#x6a8;" horiz-adv-x="838" 
d="M-2 -20l-51 10v227l51 10h326q175 0 270 19q4 28 4 65q0 72 -2 82l-35 -57q-92 -39 -202 -39q-147 0 -215 84q-66 86 -66 184v17q3 143 94 282q108 166 254 166q151 0 246 -217q86 -190 86 -422q0 -75 -12 -127q-13 -56 -76 -143q-61 -86 -84 -92q-101 -49 -348 -49h-240
zM565 539q-64 249 -186 249q-57 0 -110 -71q-51 -69 -70 -154q63 -47 176 -47q107 0 190 23zM245 1575q69 78 146 148q99 -78 143 -148q-55 -82 -143 -149q-80 65 -146 149zM501 1190q-66 49 -110 101q-35 -41 -117 -101q-82 62 -150 152q80 96 150 158q115 -115 115 -117
q73 74 110 117q106 -88 154 -158q-59 -87 -152 -152z" />
    <glyph glyph-name="uni06A8.medi" unicode="&#x6a8;" horiz-adv-x="845" 
d="M506 274q71 40 111 86q-10 116 -60 209q-56 103 -118 103q-52 0 -117 -66q-69 -65 -96 -139q97 -131 270 -199zM801 -20q-179 0 -346 88q-158 -88 -350 -88h-107l-51 10v227l51 10h217q-50 44 -84 115q-27 61 -27 127q0 28 5 57q18 117 127 244q125 150 256 150
q124 0 213 -154q84 -146 84 -330q-6 -113 -84 -198q49 -10 128 -11h15l51 -10v-227l-51 -10h-47zM313 1453q69 78 146 148q99 -78 143 -148q-55 -82 -143 -149q-80 65 -146 149zM569 1068q-66 49 -110 101q-35 -41 -117 -101q-82 62 -150 152q80 96 150 158
q115 -115 115 -117q73 74 110 117q106 -88 154 -158q-59 -87 -152 -152z" />
    <glyph glyph-name="uni06A8.fina" unicode="&#x6a8;" horiz-adv-x="1328" 
d="M985 438q-65 97 -127 97q-66 0 -127 -89q-61 -86 -76 -178q54 -41 240 -41h177q-31 122 -87 211zM100 -41q0 208 172 475l90 -43q-84 -196 -84 -305q0 -252 309 -252q328 0 498 113l2 33h-207q-184 0 -278 94q-66 95 -66 194v17q6 164 101 313q110 178 266 178
q137 0 231 -180q87 -165 96 -369h101l51 -10v-227l-51 -10h-111v4q-6 -39 -49 -127q-46 -96 -74 -117q-222 -158 -553 -158q-444 0 -444 377zM727 1329q69 78 146 148q99 -78 143 -148q-55 -82 -143 -149q-80 65 -146 149zM983 944q-66 49 -110 101q-35 -41 -117 -101
q-82 62 -150 152q80 96 150 158q115 -115 115 -117q73 74 110 117q106 -88 154 -158q-59 -87 -152 -152z" />
    <glyph glyph-name="uni06AA.init" unicode="&#x6aa;" horiz-adv-x="1457" 
d="M-2 -20l-51 10v227l51 10h889q284 0 360 6q-27 85 -98 138q-120 86 -375 86q-620 0 -661 59v9q0 40 29 128q33 106 51 127q63 94 375 297q290 193 342 193l34 -35l-94 -246q-330 -119 -532 -303h489q309 0 459 -156q111 -116 111 -282q0 -30 -48 -127q-49 -95 -65 -107
q-41 -34 -430 -34h-836z" />
    <glyph glyph-name="uni06AA.medi" unicode="&#x6aa;" horiz-adv-x="1552" 
d="M-2 -20l-51 10v227l51 10h889q283 0 360 6q-27 85 -98 138q-120 86 -375 86q-621 0 -661 59v9q0 40 28 128q34 106 52 127q63 94 374 297q291 193 342 193l35 -35l-94 -246q-330 -119 -533 -303h490q282 0 434 -133q115 -102 133 -258q9 -43 33 -53q32 -15 147 -15
l52 -10v-227l-52 -10q-187 0 -239 110q-33 -63 -51 -76q-42 -34 -430 -34h-836z" />
    <glyph glyph-name="uni06AA.fina" unicode="&#x6aa;" horiz-adv-x="1955" 
d="M573 -20q-238 0 -295 40l-256 197l29 51q286 -41 518 -41h723q283 0 360 6q-28 86 -98 138q-120 86 -375 86q-621 0 -661 59v9q0 40 28 128q34 106 51 127q64 94 375 297q291 193 342 193l35 -35l-94 -246q-329 -118 -533 -303h490q282 0 434 -133q115 -102 133 -258
q9 -43 33 -53q29 -15 145 -15l52 -10v-227l-52 -10q-184 0 -237 108q-26 -52 -51 -74q-42 -34 -430 -34h-666z" />
    <glyph glyph-name="uni06AB.init" unicode="&#x6ab;" horiz-adv-x="960" 
d="M94 1227l736 407l18 -32l-12 -101l-729 -407l-19 32zM-2 -20l-51 10v227l51 10h311q305 0 367 17q-58 136 -401 350l-37 -35l-174 125q-9 7 -9 30q0 40 27 130q40 139 68 151l717 414l45 -29l-43 -229l-574 -293q244 -134 408 -313q135 -151 135 -254q0 -32 -45 -131
q-46 -104 -76 -127q-69 -53 -432 -53h-287z" />
    <glyph glyph-name="uni06AB.medi" unicode="&#x6ab;" horiz-adv-x="925" 
d="M51 1202l711 455l21 -35l-13 -100l-708 -455l-21 35zM-2 -20l-51 10v227l51 10h125q181 0 227 13v12q0 81 -88 211l-196 287q-5 8 -5 23q0 36 27 112q41 111 66 121l622 413l45 -33l-43 -223l-503 -317q53 -78 225 -322q126 -179 203 -235q83 -62 192 -62h33l51 -10v-227
l-51 -10h-33q-151 0 -248 65q-61 41 -163 168q-101 -184 -144 -199q-73 -34 -264 -34h-78z" />
    <glyph glyph-name="uni06AB.fina" unicode="&#x6ab;" horiz-adv-x="1793" 
d="M919 1202l711 455l20 -35l-12 -100l-709 -455l-20 35zM1796 -20h-35q-151 0 -248 65q-59 42 -160 164q-96 -178 -141 -193q-83 -36 -567 -36q-545 0 -545 389q0 197 170 456l88 -51q-86 -193 -86 -299q0 -248 412 -248q372 0 532 13v10q0 81 -88 213l-197 287q-5 8 -5 22
q0 36 28 113q40 111 66 121l626 413l41 -33l-43 -223l-504 -317q54 -78 226 -322q125 -179 202 -235q83 -62 193 -62h35l51 -10v-227z" />
    <glyph glyph-name="uni06AC.init" unicode="&#x6ac;" horiz-adv-x="960" 
d="M-2 -20l-51 10v227l51 10h311q305 0 367 17q-58 136 -401 350l-37 -35l-174 125q-9 7 -9 30q0 40 27 130q40 139 68 151l717 414l45 -29l-43 -229l-574 -293q244 -134 408 -313q135 -151 135 -254q0 -32 -45 -131q-46 -104 -76 -127q-69 -53 -432 -53h-287zM216 1516
q69 78 146 148q99 -78 143 -148q-55 -82 -143 -149q-80 65 -146 149z" />
    <glyph glyph-name="uni06AC.medi" unicode="&#x6ac;" horiz-adv-x="925" 
d="M-2 -20l-51 10v227l51 10h125q181 0 227 13v12q0 81 -88 211l-196 287q-5 8 -5 23q0 36 27 112q41 111 66 121l622 413l45 -33l-43 -223l-503 -317q53 -78 225 -322q126 -179 203 -235q83 -62 192 -62h33l51 -10v-227l-51 -10h-33q-151 0 -248 65q-61 41 -163 168
q-101 -184 -144 -199q-73 -34 -264 -34h-78zM176 1516q69 78 146 148q99 -78 143 -148q-55 -82 -143 -149q-80 65 -146 149z" />
    <glyph glyph-name="uni06AC.fina" unicode="&#x6ac;" horiz-adv-x="1584" 
d="M1587 -20q-259 0 -318 176l-67 -113q-139 -63 -555 -63q-547 0 -547 385q0 212 174 469l92 -48q-88 -194 -88 -301q0 -258 408 -258q342 0 532 37l-26 1061l155 148h66v-1020q0 -138 20 -170q31 -56 154 -56l51 -10v-227zM725 674q-117 27 -117 102q0 90 88 166
q74 65 205 100l22 -26v-160q-144 -30 -166 -41q56 -9 95 -18q108 -28 108 -123q0 -68 -61 -129q-34 -34 -219 -49l-160 110v45q174 8 248 13q-19 4 -43 10zM1140 1748q69 78 146 148q99 -78 143 -148q-55 -82 -143 -149q-80 65 -146 149z" />
    <glyph glyph-name="uni06AE.init" unicode="&#x6ae;" horiz-adv-x="960" 
d="M-2 -20l-51 10v227l51 10h311q305 0 367 17q-58 136 -401 350l-37 -35l-174 125q-9 7 -9 30q0 40 27 130q40 139 68 151l717 414l45 -29l-43 -229l-574 -293q244 -134 408 -313q135 -151 135 -254q0 -32 -45 -131q-46 -104 -76 -127q-69 -53 -432 -53h-287zM419 -338
l-111 -117q-106 88 -154 158q62 87 152 152q58 -42 113 -103q29 40 114 103q87 -63 150 -154q-74 -86 -150 -156zM564 -532q-60 -68 -145 -146q-101 82 -146 148q55 81 146 147q79 -62 145 -149z" />
    <glyph glyph-name="uni06AE.medi" unicode="&#x6ae;" horiz-adv-x="925" 
d="M-2 -20l-51 10v227l51 10h125q181 0 227 13v12q0 81 -88 211l-196 287q-5 8 -5 23q0 36 27 112q41 111 66 121l622 413l45 -33l-43 -223l-503 -317q53 -78 225 -322q126 -179 203 -235q83 -62 192 -62h33l51 -10v-227l-51 -10h-33q-151 0 -248 65q-61 41 -163 168
q-101 -184 -144 -199q-73 -34 -264 -34h-78zM419 -338l-111 -117q-106 88 -154 158q62 87 152 152q58 -42 113 -103q29 40 114 103q87 -63 150 -154q-74 -86 -150 -156zM564 -532q-60 -68 -145 -146q-101 82 -146 148q55 81 146 147q79 -62 145 -149z" />
    <glyph glyph-name="uni06AE.fina" unicode="&#x6ae;" horiz-adv-x="1584" 
d="M1587 -20q-259 0 -318 176l-67 -113q-139 -63 -555 -63q-547 0 -547 385q0 212 174 469l92 -48q-88 -194 -88 -301q0 -258 408 -258q342 0 532 37l-26 1061l155 148h66v-1020q0 -138 20 -170q31 -56 154 -56l51 -10v-227zM725 674q-117 27 -117 102q0 90 88 166
q74 65 205 100l22 -26v-160q-144 -30 -166 -41q56 -9 95 -18q108 -28 108 -123q0 -68 -61 -129q-34 -34 -219 -49l-160 110v45q174 8 248 13q-19 4 -43 10zM769 -338l-111 -117q-106 88 -154 158q62 87 152 152q58 -42 113 -103q29 40 114 103q87 -63 150 -154
q-74 -86 -150 -156zM914 -532q-60 -68 -145 -146q-101 82 -146 148q55 81 146 147q79 -62 145 -149z" />
    <glyph glyph-name="uni06B0.init" unicode="&#x6b0;" horiz-adv-x="960" 
d="M94 1227l736 407l18 -32l-12 -101l-729 -407l-19 32zM613 930q21 -18 47 -18q65 0 65 59q0 66 -65 66q-66 0 -66 -66q0 -25 19 -41zM489 957l-194 -99q244 -134 408 -313q135 -151 135 -254q0 -32 -45 -131q-46 -104 -76 -127q-69 -53 -432 -53h-287l-51 10v227l51 10
h311q305 0 367 17q-58 136 -401 350l-37 -35l-174 125q-9 7 -9 30q0 40 27 130q40 139 68 151l717 414l45 -29l-43 -229l-95 -49q3 -3 7 -6q50 -50 50 -122q0 -71 -50.5 -121t-121.5 -50t-121 50q-44 44 -49 104z" />
    <glyph glyph-name="uni06B0.medi" unicode="&#x6b0;" horiz-adv-x="925" 
d="M51 1202l711 455l21 -35l-13 -100l-708 -455l-21 35zM543 920q21 -18 47 -18q65 0 65 59q0 66 -65 66q-66 0 -66 -66q0 -25 19 -41zM420 937l-145 -91q53 -78 225 -322q126 -179 203 -235q83 -62 192 -62h33l51 -10v-227l-51 -10h-33q-151 0 -248 65q-61 41 -163 168
q-101 -184 -144 -199q-73 -34 -264 -34h-78l-51 10v227l51 10h125q181 0 227 13v12q0 81 -88 211l-196 287q-5 8 -5 23q0 36 27 112q41 111 66 121l622 413l45 -33l-43 -223l-91 -57q12 -9 24 -20q50 -50 50 -122q0 -71 -50.5 -121t-121.5 -50t-121 50q-40 40 -48 94z" />
    <glyph glyph-name="uni06B0.fina" unicode="&#x6b0;" horiz-adv-x="1793" 
d="M919 1202l711 455l20 -35l-12 -100l-709 -455l-20 35zM1413 920q21 -18 47 -18q65 0 65 59q0 66 -65 66q-66 0 -66 -66q0 -25 19 -41zM1290 940l-150 -94q54 -78 226 -322q125 -179 202 -235q83 -62 193 -62h35l51 -10v-227l-51 -10h-35q-151 0 -248 65q-59 42 -160 164
q-96 -178 -141 -193q-83 -36 -567 -36q-545 0 -545 389q0 197 170 456l88 -51q-86 -193 -86 -299q0 -248 412 -248q372 0 532 13v10q0 81 -88 213l-197 287q-5 8 -5 22q0 36 28 113q40 111 66 121l626 413l41 -33l-43 -223l-89 -56q13 -9 26 -21q50 -50 50 -122
q0 -71 -50.5 -121t-121.5 -50t-121 50q-41 41 -48 97z" />
    <glyph glyph-name="uni06B2.init" unicode="&#x6b2;" horiz-adv-x="960" 
d="M94 1227l736 407l18 -32l-12 -101l-729 -407l-19 32zM-2 -20l-51 10v227l51 10h311q305 0 367 17q-58 136 -401 350l-37 -35l-174 125q-9 7 -9 30q0 40 27 130q40 139 68 151l717 414l45 -29l-43 -229l-574 -293q244 -134 408 -313q135 -151 135 -254q0 -32 -45 -131
q-46 -104 -76 -127q-69 -53 -432 -53h-287zM369 -338l-111 -117q-106 88 -154 158q62 87 152 152q58 -42 113 -103q29 40 114 103q87 -63 150 -154q-74 -86 -150 -156z" />
    <glyph glyph-name="uni06B2.medi" unicode="&#x6b2;" horiz-adv-x="925" 
d="M51 1202l711 455l21 -35l-13 -100l-708 -455l-21 35zM-2 -20l-51 10v227l51 10h125q181 0 227 13v12q0 81 -88 211l-196 287q-5 8 -5 23q0 36 27 112q41 111 66 121l622 413l45 -33l-43 -223l-503 -317q53 -78 225 -322q126 -179 203 -235q83 -62 192 -62h33l51 -10v-227
l-51 -10h-33q-151 0 -248 65q-61 41 -163 168q-101 -184 -144 -199q-73 -34 -264 -34h-78zM369 -338l-111 -117q-106 88 -154 158q62 87 152 152q58 -42 113 -103q29 40 114 103q87 -63 150 -154q-74 -86 -150 -156z" />
    <glyph glyph-name="uni06B2.fina" unicode="&#x6b2;" horiz-adv-x="1793" 
d="M919 1202l711 455l20 -35l-12 -100l-709 -455l-20 35zM1796 -20h-35q-151 0 -248 65q-59 42 -160 164q-96 -178 -141 -193q-83 -36 -567 -36q-545 0 -545 389q0 197 170 456l88 -51q-86 -193 -86 -299q0 -248 412 -248q372 0 532 13v10q0 81 -88 213l-197 287q-5 8 -5 22
q0 36 28 113q40 111 66 121l626 413l41 -33l-43 -223l-504 -317q54 -78 226 -322q125 -179 202 -235q83 -62 193 -62h35l51 -10v-227zM769 -338l-111 -117q-106 88 -154 158q62 87 152 152q58 -42 113 -103q29 40 114 103q87 -63 150 -154q-74 -86 -150 -156z" />
    <glyph glyph-name="uni06B4.init" unicode="&#x6b4;" horiz-adv-x="960" 
d="M94 1227l736 407l18 -32l-12 -101l-729 -407l-19 32zM-2 -20l-51 10v227l51 10h311q305 0 367 17q-58 136 -401 350l-37 -35l-174 125q-9 7 -9 30q0 40 27 130q40 139 68 151l717 414l45 -29l-43 -229l-574 -293q244 -134 408 -313q135 -151 135 -254q0 -32 -45 -131
q-46 -104 -76 -127q-69 -53 -432 -53h-287zM161 1860q69 78 146 148q99 -78 143 -148q-55 -82 -143 -149q-80 65 -146 149zM417 1475q-66 49 -110 101q-35 -41 -117 -101q-82 62 -150 152q80 96 150 158q115 -115 115 -117q73 74 110 117q106 -88 154 -158
q-59 -87 -152 -152z" />
    <glyph glyph-name="uni06B4.medi" unicode="&#x6b4;" horiz-adv-x="925" 
d="M51 1202l711 455l21 -35l-13 -100l-708 -455l-21 35zM-2 -20l-51 10v227l51 10h125q181 0 227 13v12q0 81 -88 211l-196 287q-5 8 -5 23q0 36 27 112q41 111 66 121l622 413l45 -33l-43 -223l-503 -317q53 -78 225 -322q126 -179 203 -235q83 -62 192 -62h33l51 -10v-227
l-51 -10h-33q-151 0 -248 65q-61 41 -163 168q-101 -184 -144 -199q-73 -34 -264 -34h-78zM151 1860q69 78 146 148q99 -78 143 -148q-55 -82 -143 -149q-80 65 -146 149zM407 1475q-66 49 -110 101q-35 -41 -117 -101q-82 62 -150 152q80 96 150 158q115 -115 115 -117
q73 74 110 117q106 -88 154 -158q-59 -87 -152 -152z" />
    <glyph glyph-name="uni06B4.fina" unicode="&#x6b4;" horiz-adv-x="1793" 
d="M919 1202l711 455l20 -35l-12 -100l-709 -455l-20 35zM1796 -20h-35q-151 0 -248 65q-59 42 -160 164q-96 -178 -141 -193q-83 -36 -567 -36q-545 0 -545 389q0 197 170 456l88 -51q-86 -193 -86 -299q0 -248 412 -248q372 0 532 13v10q0 81 -88 213l-197 287q-5 8 -5 22
q0 36 28 113q40 111 66 121l626 413l41 -33l-43 -223l-504 -317q54 -78 226 -322q125 -179 202 -235q83 -62 193 -62h35l51 -10v-227zM981 1860q69 78 146 148q99 -78 143 -148q-55 -82 -143 -149q-80 65 -146 149zM1237 1475q-66 49 -110 101q-35 -41 -117 -101
q-82 62 -150 152q80 96 150 158q115 -115 115 -117q73 74 110 117q106 -88 154 -158q-59 -87 -152 -152z" />
    <glyph glyph-name="uni06B5.init" unicode="&#x6b5;" horiz-adv-x="598" 
d="M-53 -10v227l51 10q182 0 230 11l-23 890l-57 148l209 203l63 -39v-103l98 -182l-98 -104v-719q0 -57 -96 -185q-88 -116 -133 -143q-34 -24 -193 -24zM215 1597l-18 14q-46 126 -191 240l78 153l29 12q116 -101 164 -231q26 80 147 225l37 -6l57 -127
q-136 -145 -180 -280h-123z" />
    <glyph glyph-name="uni06B5.medi" unicode="&#x6b5;" horiz-adv-x="612" 
d="M615 -20q-239 0 -303 170q-79 -123 -113 -146q-46 -24 -201 -24l-51 10v227l51 10q170 0 232 11l-29 1087l156 148h65v-1035q0 -120 29 -162q34 -46 164 -49l51 -10v-227zM260 1597l-18 14q-46 126 -191 240l78 153l29 12q116 -101 164 -231q26 80 147 225l37 -6l57 -127
q-136 -145 -180 -280h-123z" />
    <glyph glyph-name="uni06B5.fina" unicode="&#x6b5;" horiz-adv-x="1301" 
d="M1114 26q-15 -71 -80 -194q-71 -127 -107 -156q-116 -92 -383 -92q-444 0 -444 377q0 209 174 469l92 -47q-88 -194 -88 -301q0 -246 309 -246q184 0 344 76l-34 1413l157 148h64v-1043q0 -118 26 -154q34 -46 160 -49l51 -10v-227l-51 -10q-141 0 -190 46zM948 1597
l-18 14q-46 126 -191 240l78 153l29 12q116 -101 164 -231q26 80 147 225l37 -6l57 -127q-136 -145 -180 -280h-123z" />
    <glyph glyph-name="uni06B6.init" unicode="&#x6b6;" horiz-adv-x="598" 
d="M-53 -10v227l51 10q182 0 230 11l-23 890l-57 148l209 203l63 -39v-103l98 -182l-98 -104v-719q0 -57 -96 -185q-88 -116 -133 -143q-34 -24 -193 -24zM118 1740q69 78 146 148q99 -78 143 -148q-55 -82 -143 -149q-80 65 -146 149z" />
    <glyph glyph-name="uni06B6.medi" unicode="&#x6b6;" horiz-adv-x="612" 
d="M615 -20q-239 0 -303 170q-79 -123 -113 -146q-46 -24 -201 -24l-51 10v227l51 10q170 0 232 11l-29 1087l156 148h65v-1035q0 -120 29 -162q34 -46 164 -49l51 -10v-227zM162 1740q69 78 146 148q99 -78 143 -148q-55 -82 -143 -149q-80 65 -146 149z" />
    <glyph glyph-name="uni06B6.fina" unicode="&#x6b6;" horiz-adv-x="1301" 
d="M1114 26q-15 -71 -80 -194q-71 -127 -107 -156q-116 -92 -383 -92q-444 0 -444 377q0 209 174 469l92 -47q-88 -194 -88 -301q0 -246 309 -246q184 0 344 76l-34 1413l157 148h64v-1043q0 -118 26 -154q34 -46 160 -49l51 -10v-227l-51 -10q-141 0 -190 46zM851 1740
q69 78 146 148q99 -78 143 -148q-55 -82 -143 -149q-80 65 -146 149z" />
    <glyph glyph-name="uni06B7.init" unicode="&#x6b7;" horiz-adv-x="598" 
d="M-53 -10v227l51 10q182 0 230 11l-23 890l-57 148l209 203l63 -39v-103l98 -182l-98 -104v-719q0 -57 -96 -185q-88 -116 -133 -143q-34 -24 -193 -24zM131 1980q69 78 146 148q99 -78 143 -148q-55 -82 -143 -149q-80 65 -146 149zM387 1595q-66 49 -110 101
q-35 -41 -117 -101q-82 62 -150 152q80 96 150 158q115 -115 115 -117q73 74 110 117q106 -88 154 -158q-59 -87 -152 -152z" />
    <glyph glyph-name="uni06B7.medi" unicode="&#x6b7;" horiz-adv-x="612" 
d="M615 -20q-239 0 -303 170q-79 -123 -113 -146q-46 -24 -201 -24l-51 10v227l51 10q170 0 232 11l-29 1087l156 148h65v-1035q0 -120 29 -162q34 -46 164 -49l51 -10v-227zM171 1980q69 78 146 148q99 -78 143 -148q-55 -82 -143 -149q-80 65 -146 149zM427 1595
q-66 49 -110 101q-35 -41 -117 -101q-82 62 -150 152q80 96 150 158q115 -115 115 -117q73 74 110 117q106 -88 154 -158q-59 -87 -152 -152z" />
    <glyph glyph-name="uni06B7.fina" unicode="&#x6b7;" horiz-adv-x="1301" 
d="M1114 26q-15 -71 -80 -194q-71 -127 -107 -156q-116 -92 -383 -92q-444 0 -444 377q0 209 174 469l92 -47q-88 -194 -88 -301q0 -246 309 -246q184 0 344 76l-34 1413l157 148h64v-1043q0 -118 26 -154q34 -46 160 -49l51 -10v-227l-51 -10q-141 0 -190 46zM871 1980
q69 78 146 148q99 -78 143 -148q-55 -82 -143 -149q-80 65 -146 149zM1127 1595q-66 49 -110 101q-35 -41 -117 -101q-82 62 -150 152q80 96 150 158q115 -115 115 -117q73 74 110 117q106 -88 154 -158q-59 -87 -152 -152z" />
    <glyph glyph-name="uni06B8.init" unicode="&#x6b8;" horiz-adv-x="598" 
d="M-53 -10v227l51 10q182 0 230 11l-23 890l-57 148l209 203l63 -39v-103l98 -182l-98 -104v-719q0 -57 -96 -185q-88 -116 -133 -143q-34 -24 -193 -24zM254 -331l-111 -117q-106 88 -154 158q62 87 152 152q58 -42 113 -103q29 40 114 103q87 -63 150 -154
q-74 -86 -150 -156zM399 -525q-60 -68 -145 -146q-101 82 -146 148q55 81 146 147q79 -62 145 -149z" />
    <glyph glyph-name="uni06B8.medi" unicode="&#x6b8;" horiz-adv-x="612" 
d="M615 -20q-239 0 -303 170q-79 -123 -113 -146q-46 -24 -201 -24l-51 10v227l51 10q170 0 232 11l-29 1087l156 148h65v-1035q0 -120 29 -162q34 -46 164 -49l51 -10v-227zM254 -331l-111 -117q-106 88 -154 158q62 87 152 152q58 -42 113 -103q29 40 114 103
q87 -63 150 -154q-74 -86 -150 -156zM399 -525q-60 -68 -145 -146q-101 82 -146 148q55 81 146 147q79 -62 145 -149z" />
    <glyph glyph-name="uni06B8.fina" unicode="&#x6b8;" horiz-adv-x="1301" 
d="M1114 26q-15 -71 -80 -194q-71 -127 -107 -156q-116 -92 -383 -92q-444 0 -444 377q0 209 174 469l92 -47q-88 -194 -88 -301q0 -246 309 -246q184 0 344 76l-34 1413l157 148h64v-1043q0 -118 26 -154q34 -46 160 -49l51 -10v-227l-51 -10q-141 0 -190 46zM637 -738
l-111 -117q-106 88 -154 158q62 87 152 152q58 -42 113 -103q29 40 114 103q87 -63 150 -154q-74 -86 -150 -156zM782 -932q-60 -68 -145 -146q-101 82 -146 148q55 81 146 147q79 -62 145 -149z" />
    <glyph glyph-name="uni06B9.init" unicode="&#x6b9;" horiz-adv-x="547" 
d="M156 1167q63 80 149 156q108 -92 154 -158q-58 -89 -154 -153q-90 65 -149 155zM-53 -10v227l51 10q222 0 266 11q-21 175 -98 454l156 152h57l88 -246l-2 -33l-47 -49q16 -138 16 -204q0 -24 -2 -38q-3 -41 -67 -143q-63 -96 -105 -125q-62 -26 -262 -26zM156 -315
q66 84 149 153q106 -87 154 -155q-58 -90 -154 -154q-90 65 -149 156z" />
    <glyph glyph-name="uni06B9.medi" unicode="&#x6b9;" horiz-adv-x="610" 
d="M191 1001q73 85 153 156q108 -92 154 -158q-62 -89 -154 -153q-86 62 -153 155zM613 -20h-17q-227 0 -319 122q-67 -82 -97 -98q-52 -24 -182 -24l-51 10v227l51 10q137 0 189 15q13 70 71 327l142 95l55 -17q-21 -311 -45 -387q45 -33 203 -33l51 -10v-227zM191 -315
q66 84 149 153q106 -87 154 -155q-58 -90 -154 -154q-90 65 -149 156z" />
    <glyph glyph-name="uni06B9.fina" unicode="&#x6b9;" horiz-adv-x="1314" 
d="M475 764q79 95 153 158q108 -92 154 -158q-63 -88 -154 -152q-87 64 -153 152zM100 -39q0 209 174 469l86 -43q-82 -191 -82 -305q0 -246 309 -246q212 0 367 82l-74 565l164 127h62l10 -172q9 -133 33 -166q33 -45 168 -45l51 -10v-227l-51 -10q-159 0 -189 45v-13
q-58 -218 -135 -288q-139 -140 -449 -140q-444 0 -444 377zM475 -725q73 85 154 156q108 -92 153 -158q-61 -89 -153 -154q-86 63 -154 156z" />
    <glyph glyph-name="uni06BC.init" unicode="&#x6bc;" horiz-adv-x="552" 
d="M154 1167q66 84 151 156q106 -88 152 -158q-58 -87 -152 -153q-91 64 -151 155zM76 -197q-46 41 -53 123q-2 13 -2 26q0 15 3 28h-26l-51 10v227l51 10q222 0 266 11q-21 175 -98 454l156 152h57l88 -246l-2 -33l-47 -49q16 -138 16 -204q0 -24 -2 -38q-3 -84 -119 -213
q60 -34 60 -135q0 -70 -49 -123q-52 -51 -125 -51q-72 0 -123 51zM264 -74q0 66 -65 66q-66 0 -66 -66q0 -25 19 -41q21 -18 47 -18q65 0 65 59z" />
    <glyph glyph-name="uni06BC.medi" unicode="&#x6bc;" horiz-adv-x="720" 
d="M158 -120q21 -18 47 -18q65 0 65 59q0 66 -65 66q-66 0 -66 -66q0 -25 19 -41zM229 968q73 85 153 156q108 -92 154 -158q-62 -89 -154 -153q-86 62 -153 155zM42 -20h-44l-51 10v227l51 10q247 0 299 15q13 70 71 327l142 95l55 -17q-21 -311 -45 -387q45 -33 203 -33
l51 -10v-227l-51 -10h-17q-227 0 -319 122q-32 -39 -55 -63q44 -48 44 -115q0 -71 -50.5 -121t-121.5 -50t-121 50t-50 121q0 30 9 56z" />
    <glyph glyph-name="uni06BC.fina" unicode="&#x6bc;" horiz-adv-x="1314" 
d="M479 774q66 83 151 156q108 -95 152 -158q-58 -88 -152 -154q-91 65 -151 156zM497 -602q-53 53 -53 123q0 54 8 65q-352 25 -352 375q0 209 174 469l86 -43q-82 -191 -82 -305q0 -246 309 -246q212 0 367 82l-74 565l164 127h62l10 -172q9 -133 33 -166q33 -45 168 -45
l51 -10v-227l-51 -10q-159 0 -189 45v-13q-58 -218 -135 -288q-81 -78 -219 -109q20 -21 20 -94q0 -71 -49 -123q-48 -51 -123 -51q-73 0 -125 51zM686 -479q0 63 -64 63q-67 0 -67 -63q0 -60 67 -60q64 0 64 60z" />
    <glyph glyph-name="uni06BD.init" unicode="&#x6bd;" horiz-adv-x="559" 
d="M150 1386q59 68 145 146q101 -82 146 -148q-55 -81 -146 -147q-80 62 -145 149zM408 999q-58 42 -113 103q-29 -40 -115 -103q-87 63 -149 154q73 86 149 156l115 -117q43 46 111 117q106 -88 153 -158q-62 -87 -151 -152zM-53 -10v227l51 10q222 0 266 11
q-21 175 -98 454l156 152h57l88 -246l-2 -33l-47 -49q16 -138 16 -204q0 -24 -2 -38q-3 -41 -67 -143q-63 -96 -105 -125q-62 -26 -262 -26z" />
    <glyph glyph-name="uni06BD.medi" unicode="&#x6bd;" horiz-adv-x="610" 
d="M187 1233q69 78 145 147q97 -76 145 -147q-57 -86 -145 -150q-78 64 -145 150zM613 -20h-17q-227 0 -319 122q-67 -82 -97 -98q-52 -24 -182 -24l-51 10v227l51 10q137 0 189 15q13 70 71 327l142 95l55 -17q-21 -311 -45 -387q45 -33 203 -33l51 -10v-227zM445 848
q-78 57 -113 100q-31 -42 -115 -100q-87 63 -149 153q73 86 149 156q115 -115 119 -115q1 0 1 1l-1 1q67 67 107 113q106 -88 153 -158q-62 -86 -151 -151z" />
    <glyph glyph-name="uni06BD.fina" unicode="&#x6bd;" horiz-adv-x="1314" 
d="M100 -39q0 209 174 469l86 -43q-82 -191 -82 -305q0 -246 309 -246q212 0 367 82l-74 565l164 127h62l10 -172q9 -133 33 -166q33 -45 168 -45l51 -10v-227l-51 -10q-159 0 -189 45v-13q-58 -218 -135 -288q-139 -140 -449 -140q-444 0 -444 377zM455 992q59 68 145 146
q101 -82 146 -148q-55 -81 -146 -147q-80 62 -145 149zM713 605q-58 42 -113 103q-29 -40 -115 -103q-87 63 -149 154q73 86 149 156l115 -117q43 46 111 117q106 -88 153 -158q-62 -87 -151 -152z" />
    <glyph glyph-name="uni06BF.init" unicode="&#x6bf;" horiz-adv-x="1330" 
d="M-2 -20l-51 10v227l51 10h240q222 0 420 88q91 41 91 44h-1q-1 0 -6 -1q-48 14 -189 93l-239 135l-191 -129l-65 71q200 281 307 281q30 0 311 -156q223 -127 375 -127h182l17 -49l-74 -174h-174q-21 -2 -367 -199q-210 -124 -475 -124h-162zM598 -384q-106 88 -153 158
q62 86 151 151q58 -41 113 -102q29 40 115 102q87 -63 149 -153q-73 -86 -149 -156q-114 114 -117 114v-1zM854 -460q-69 -78 -145 -147q-97 76 -145 147q57 86 145 150q78 -64 145 -150zM475 1069q64 80 150 156q108 -92 153 -158q-58 -89 -153 -154q-91 66 -150 156z" />
    <glyph glyph-name="uni06BF.medi" unicode="&#x6bf;" horiz-adv-x="1327" 
d="M-2 -20l-51 10v227l51 10h240q223 0 422 90l74 36l13 7h-1l-4 -2q-59 23 -189 93l-239 135l-191 -129l-65 71q200 281 307 281q30 0 311 -156q223 -127 375 -127h178l16 -49l-75 -174l-95 -4q4 -72 109 -72h145l52 -10v-227l-52 -10h-153q-227 0 -227 221q0 40 8 88
q-5 0 -322 -185q-210 -124 -475 -124h-162zM598 -384q-106 88 -153 158q62 86 151 151q58 -41 113 -102q29 40 115 102q87 -63 149 -153q-73 -86 -149 -156q-114 114 -117 114v-1zM854 -460q-69 -78 -145 -147q-97 76 -145 147q57 86 145 150q78 -64 145 -150zM475 1069
q64 80 150 156q108 -92 153 -158q-58 -89 -153 -154q-91 66 -150 156z" />
    <glyph glyph-name="uni06BF.fina" unicode="&#x6bf;" horiz-adv-x="1353" 
d="M749 4l-102 -110q-100 84 -148 151q61 86 146 148q67 -53 104 -99q39 47 109 96q87 -68 143 -147q-70 -83 -143 -149zM888 -178q-71 -78 -139 -139q-90 72 -139 141q53 76 139 143q84 -70 139 -145zM518 516q-163 31 -182 33l-166 -148l-70 60q172 319 258 319
q37 0 279 -47q235 -47 389 -47h227l16 -45l-73 -182l-97 2q-2 -27 -2 -51q0 -79 23 -121q31 -62 139 -62h96l52 -10v-227l-52 -10h-102q-201 0 -262 153q-25 64 -25 140q0 74 23 159q-249 -78 -508 -293q-162 -134 -193 -284q132 -236 648 -236q116 0 368 25l23 -74
q-337 -217 -475 -217q-262 0 -449 104q-160 89 -203 215q-46 111 -46 228q0 14 1 28q46 319 428 535q33 15 79 25q-66 11 -144 28zM579 1049q69 90 150 157q108 -92 153 -157q-59 -88 -153 -152q-92 66 -150 152z" />
    <glyph glyph-name="uni06C2.fina" unicode="&#x6c2;" horiz-adv-x="961" 
d="M964 -20q-175 0 -254 124q-56 91 -84 279q-106 -3 -283 -82q-161 -73 -268 -174l-41 49l113 248q250 182 432 182q156 0 184 -153q21 -122 43 -156q42 -70 158 -70l51 -10v-227zM304 1012q0 81 54 153q62 78 149 78q83 0 117 -104q17 -46 20 -115l-61 -14q-33 51 -76 51
q-57 0 -98 -35q19 -59 100 -59q72 0 170 37l25 -37l-60 -136q-134 -65 -262 -65q-32 0 -166 108l13 62h89q-14 27 -14 76z" />
    <glyph glyph-name="uni06C3.fina" unicode="&#x6c3;" horiz-adv-x="961" 
d="M579 723q-70 51 -115 104q-34 -46 -117 -104q-87 63 -153 158q73 84 153 155q103 -85 121 -110q34 43 111 110q103 -85 155 -157q-65 -95 -155 -156zM964 -20q-175 0 -254 124q-56 91 -84 279q-106 -3 -283 -82q-161 -73 -268 -174l-41 49l113 248q250 182 432 182
q156 0 184 -153q21 -122 43 -156q42 -70 158 -70l51 -10v-227z" />
    <glyph glyph-name="uni06C4.fina" unicode="&#x6c4;" horiz-adv-x="933" 
d="M594 428q-67 107 -133 107q-68 0 -129 -89q-59 -83 -74 -176q65 -43 244 -43h177q-26 111 -85 201zM471 -9q-31 0 -52.5 -21.5t-21.5 -51.5q0 -31 21.5 -52t52.5 -21q30 0 51.5 21t21.5 52q0 30 -21.5 51.5t-51.5 21.5zM610 -100q44 33 72 80h-37q-11 45 -48 79
q-53 48 -128 48t-128 -48q-26 -23 -39 -52q-65 23 -97 65q-68 110 -68 213q7 164 101 313q113 178 268 178q136 0 233 -186q87 -165 97 -363h100l51 -10v-227l-51 -10h-123q-27 -144 -123 -261q-113 -135 -258 -135q-43 0 -182 76q-134 75 -170 109l37 88q128 -33 205 -33
q22 0 42 1q-34 39 -34 93q0 58 41 99t100 41q58 0 99 -41t41 -99q0 -9 -1 -18z" />
    <glyph glyph-name="uni06CA.fina" unicode="&#x6ca;" horiz-adv-x="933" 
d="M592 948q-74 58 -115 105q-37 -46 -116 -105q-93 68 -152 158q66 83 152 156q111 -93 118 -107q40 46 113 107q110 -92 154 -158q-58 -87 -154 -156zM250 -340q-134 75 -170 109l37 88q128 -33 205 -33q266 0 360 156h-180q-226 0 -297 92q-68 110 -68 213q7 164 101 313
q113 178 268 178q136 0 233 -186q87 -165 97 -363h100l51 -10v-227l-51 -10h-123q-27 -144 -123 -261q-113 -135 -258 -135q-43 0 -182 76zM594 428q-67 107 -133 107q-68 0 -129 -89q-59 -83 -74 -176q65 -43 244 -43h177q-26 111 -85 201z" />
    <glyph glyph-name="uni06CD.fina" unicode="&#x6cd;" horiz-adv-x="1476" 
d="M469 362l92 -51q-88 -179 -88 -282q0 -260 309 -260q315 0 517 108q-53 103 -250 103h-47l-17 28l68 207l24 12h402l51 -10v-227l-51 -10h-39q6 -10 6 -48q0 -47 -35 -145q-34 -96 -63 -119q-222 -160 -602 -160q-230 0 -351 121q-100 101 -100 256q0 95 39 215l-120 -46
l-149 -57l-15 17l68 199z" />
    <glyph glyph-name="uni06CE.init" unicode="&#x6ce;" horiz-adv-x="552" 
d="M-53 -10v227l51 10q222 0 266 11q-21 175 -98 454l156 152h57l88 -246l-2 -33l-47 -49q16 -138 16 -204q0 -24 -2 -38q-3 -41 -67 -143q-63 -96 -105 -125q-62 -26 -262 -26zM334 -418q-49 35 -106 99q-32 -40 -113 -99q-89 67 -148 152q77 90 148 149q105 -86 115 -102
q33 41 104 102q105 -89 150 -151q-55 -81 -150 -150zM214 1002l-14 19q-44 124 -191 237l78 154l31 10q121 -112 164 -227q25 78 145 223l37 -6l59 -127q-135 -145 -180 -283h-129z" />
    <glyph glyph-name="uni06CE.medi" unicode="&#x6ce;" horiz-adv-x="610" 
d="M613 -20h-17q-227 0 -319 122q-67 -82 -97 -98q-52 -24 -182 -24l-51 10v227l51 10q137 0 189 15q13 70 71 327l142 95l55 -17q-21 -311 -45 -387q45 -33 203 -33l51 -10v-227zM404 -418q-62 45 -107 99q-31 -40 -112 -99q-89 67 -148 152q77 90 148 149
q105 -86 114 -102q34 41 105 102q100 -82 149 -151q-58 -86 -149 -150zM266 800l-14 19q-44 124 -191 237l78 154l31 10q121 -112 164 -227q25 78 145 223l37 -6l59 -127q-135 -145 -180 -283h-129z" />
    <glyph glyph-name="uni06CE.fina" unicode="&#x6ce;" horiz-adv-x="1281" 
d="M200 -371q-100 101 -100 256q0 212 174 477l92 -51q-88 -179 -88 -282q0 -260 309 -260q315 0 517 108q-53 103 -250 103h-47l-17 28l68 207l24 12h402l51 -10v-227l-51 -10h-39q6 -10 6 -48q0 -47 -35 -145q-34 -96 -63 -119q-222 -160 -602 -160q-230 0 -351 121z
M454 494l-14 19q-44 124 -191 237l78 154l31 10q121 -112 164 -227q25 78 145 223l37 -6l59 -127q-135 -145 -180 -283h-129z" />
    <glyph glyph-name="uni06CF.fina" unicode="&#x6cf;" horiz-adv-x="933" 
d="M250 -340q-134 75 -170 109l37 88q128 -33 205 -33q266 0 360 156h-180q-226 0 -297 92q-68 110 -68 213q7 164 101 313q113 178 268 178q136 0 233 -186q87 -165 97 -363h100l51 -10v-227l-51 -10h-123q-27 -144 -123 -261q-113 -135 -258 -135q-43 0 -182 76zM594 428
q-67 107 -133 107q-68 0 -129 -89q-59 -83 -74 -176q65 -43 244 -43h177q-26 111 -85 201zM331 1102q59 68 145 146q101 -82 146 -148q-55 -81 -146 -147q-80 62 -145 149z" />
    <glyph glyph-name="uni06D1.init" unicode="&#x6d1;" horiz-adv-x="554" 
d="M-53 -10v227l51 10q222 0 266 11q-21 175 -98 454l156 152h59l88 -246l-6 -35l-43 -45q17 -121 17 -194q0 -29 -3 -50q-6 -46 -69 -143q-63 -96 -105 -125q-62 -26 -262 -26zM228 -338l-111 -117q-106 88 -154 158q62 87 152 152q58 -42 113 -103q29 40 114 103
q87 -63 150 -154q-74 -86 -150 -156zM373 -532q-60 -68 -145 -146q-101 82 -146 148q55 81 146 147q79 -62 145 -149z" />
    <glyph glyph-name="uni06D1.medi" unicode="&#x6d1;" horiz-adv-x="610" 
d="M613 -20h-17q-227 0 -319 122q-67 -82 -97 -98q-52 -24 -182 -24l-51 10v227l51 10q137 0 189 15q13 70 71 327l142 95l55 -17q-21 -311 -45 -387q45 -33 203 -33l51 -10v-227zM183 -455q-106 88 -154 158q62 87 151 152q62 -46 113 -103q29 40 115 103q82 -62 149 -152
q-70 -84 -149 -158q-114 114 -117 114v-1zM439 -530q-70 -78 -146 -148q-97 76 -145 148q57 85 145 149q78 -63 146 -149z" />
    <glyph glyph-name="uni06D1.fina" unicode="&#x6d1;" horiz-adv-x="1281" 
d="M200 -371q-100 101 -100 256q0 212 174 477l92 -51q-88 -179 -88 -282q0 -260 309 -260q315 0 517 108q-53 103 -250 103h-47l-17 28l68 207l24 12h402l51 -10v-227l-51 -10h-39q6 -10 6 -48q0 -47 -35 -145q-34 -96 -63 -119q-222 -160 -602 -160q-230 0 -351 121z
M653 -782l-111 -117q-106 88 -154 158q62 87 152 152q58 -42 113 -103q29 40 114 103q87 -63 150 -154q-74 -86 -150 -156zM798 -976q-60 -68 -145 -146q-101 82 -146 148q55 81 146 147q79 -62 145 -149z" />
    <glyph glyph-name="uni06D5.fina" unicode="&#x6d5;" horiz-adv-x="975" 
d="M978 -20h-88q-225 0 -256 215l-61 -97q-74 -20 -154 -20q-240 0 -311 145q-8 16 -8 54q0 26 4 63q12 85 32 111q106 159 439 340l-7 83l164 119h64v-649q0 -88 14 -102q12 -15 90 -15h78l51 -10v-227zM587 590q-240 -109 -332 -213q60 -58 225 -58q59 0 127 11z" />
    <glyph glyph-name="uni06EE.fina" unicode="&#x6ee;" horiz-adv-x="1039" 
d="M1013 -20q-172 0 -245 141l-82 -107q-89 -34 -305 -34q-281 0 -281 221q0 110 78 278l96 -28q-24 -86 -24 -132q0 -47 22 -63q41 -29 162 -29q158 0 278 9l-235 581l133 170h61l162 -514q63 -183 88 -215q25 -31 121 -31l51 -10v-227l-51 -10h-29zM680 1542
q44 -135 180 -280l-57 -127l-37 -6q-121 145 -147 225q-48 -130 -164 -231l-29 12l-78 153q145 114 191 240l18 14h123z" />
    <glyph glyph-name="uni06EF.fina" unicode="&#x6ef;" horiz-adv-x="907" 
d="M613 1237q47 -142 181 -281l-60 -127l-37 -6q-121 146 -147 225q-46 -125 -162 -229l-31 10l-78 154q145 114 191 239l18 15h125zM445 477l146 174h55l51 -211q36 -141 68 -176q34 -37 145 -37l51 -10v-227l-51 -10h-26q-105 0 -174 63q-10 -108 -103 -264
q-117 -195 -262 -195q-41 0 -176 74q-123 69 -166 106l37 89q111 -29 172 -29q250 0 382 373q-28 8 -149 280z" />
    <glyph glyph-name="uni06FA.init" unicode="&#x6fa;" horiz-adv-x="1422" 
d="M645 1169q70 78 146 148q97 -77 145 -148q-57 -85 -145 -149q-79 63 -146 149zM903 784q-61 46 -112 103q-30 -40 -115 -103q-82 62 -149 152q69 84 149 158q115 -115 119 -115q1 0 1 1l-1 1q70 70 106 113q106 -88 154 -158q-59 -87 -152 -152zM1262 63
q-84 -108 -131 -108q-190 0 -385 151q-72 -126 -267 -126q-176 0 -247 102q-78 -102 -234 -102l-51 10v227l51 10q102 0 160 13l68 196l127 88l51 -26q-21 -154 -37 -250q50 -21 153 -21q58 0 119 11l82 303l131 88l49 -27q-5 -117 -34 -321q126 -73 286 -95l-57 459
l160 131h63q23 -415 23 -559q0 -49 -80 -154zM924 -294q-60 -68 -145 -146q-101 82 -146 148q55 81 146 147q79 -62 145 -149z" />
    <glyph glyph-name="uni06FA.medi" unicode="&#x6fa;" horiz-adv-x="1501" 
d="M641 1171q69 74 144 146q101 -80 147 -148q-57 -85 -145 -149q-81 65 -146 151zM899 784q-61 46 -112 103q-30 -40 -115 -103q-82 62 -150 152q70 84 150 158l117 -117l139 90q78 -66 123 -131q-59 -87 -152 -152zM1442 -20q-163 0 -215 110q-58 -110 -248 -110
q-182 0 -250 98q-58 -98 -250 -98q-176 0 -247 102q-78 -102 -234 -102l-51 10v227l51 10q102 0 160 13l68 196l127 88l51 -26q-21 -154 -37 -250q50 -21 153 -21q58 0 119 11l82 303l131 88l49 -27q-14 -202 -41 -350q53 -25 160 -25q87 0 135 15q-11 68 -34 329l163 123
h64v-387q0 -57 8 -65q14 -15 82 -15h65l52 -10v-227l-52 -10h-61zM934 -294q-60 -68 -145 -146q-101 82 -146 148q55 81 146 147q79 -62 145 -149z" />
    <glyph glyph-name="uni06FA.fina" unicode="&#x6fa;" horiz-adv-x="2219" 
d="M1388 1171q60 68 146 146q100 -82 145 -148q-63 -90 -145 -149q-77 59 -146 151zM1644 784q-66 49 -110 101q-31 -39 -115 -101q-83 60 -152 152q68 81 154 158l113 -117l139 90q78 -66 123 -131q-59 -87 -152 -152zM190 -295q-90 96 -90 256q0 210 172 477l90 -43
q-84 -205 -84 -313q0 -246 303 -246q238 0 369 88q-32 199 -80 549l172 139h66l12 -372q34 -13 119 -13q57 0 118 11l82 303l131 88l50 -27q-15 -202 -41 -350q52 -25 159 -25q87 0 136 15q-14 85 -33 329l162 123h63v-387q0 -57 8 -65q15 -15 82 -15h66l51 -10v-227
l-51 -10h-62q-163 0 -215 110q-58 -110 -250 -110q-180 0 -247 98q-59 -98 -250 -98q-67 0 -84 10v-6q-22 -122 -117 -250q-146 -150 -459 -150q-233 0 -348 121zM1674 -294q-60 -68 -145 -146q-101 82 -146 148q55 81 146 147q79 -62 145 -149z" />
    <glyph glyph-name="uni06FB.init" unicode="&#x6fb;" horiz-adv-x="1579" 
d="M867 1139q76 89 153 153q107 -90 154 -155q-62 -89 -154 -154q-86 62 -153 156zM834 229q361 7 514 90q-40 107 -125 189q-87 84 -176 84q-215 0 -457 -359q58 -6 158 -6zM719 -20q-345 0 -469 126q-90 -126 -252 -126l-51 10v227l51 10q102 0 160 13q21 71 68 200
l127 86l51 -22q-13 -110 -29 -215q31 -24 76 -33q300 592 653 592q154 0 283 -172q112 -152 112 -287q0 -145 -133 -278q-131 -131 -608 -131h-39zM871 -315q66 84 149 153q106 -87 154 -155q-58 -90 -154 -154q-90 65 -149 156z" />
    <glyph glyph-name="uni06FB.medi" unicode="&#x6fb;" horiz-adv-x="1605" 
d="M873 1139q76 89 153 153q107 -90 154 -155q-62 -89 -154 -154q-86 62 -153 156zM834 229q361 7 514 90q-40 107 -125 189q-87 84 -176 84q-215 0 -457 -359q58 -6 158 -6zM1608 -20h-141q-87 0 -164 90q-177 -90 -545 -90h-39q-345 0 -469 126q-90 -126 -252 -126l-51 10
v227l51 10q102 0 160 13q21 71 68 200l127 86l51 -22q-13 -110 -29 -215q31 -24 76 -33q300 592 653 592q154 0 283 -172q112 -152 112 -287q0 -71 -53 -162h162l51 -10v-227zM877 -315q66 84 149 153q106 -87 154 -155q-58 -90 -154 -154q-90 65 -149 156z" />
    <glyph glyph-name="uni06FB.fina" unicode="&#x6fb;" horiz-adv-x="2272" 
d="M1534 1139q68 86 151 153q109 -92 152 -155q-58 -88 -152 -154q-91 64 -151 156zM1505 229q362 7 514 90q-39 107 -125 189q-87 84 -178 84q-213 0 -455 -359q80 -6 156 -6zM190 -295q-90 96 -90 256q0 210 172 477l90 -43q-84 -205 -84 -313q0 -246 303 -246
q238 0 369 88q-32 199 -80 549l172 139h66l12 -358q301 594 653 594q154 0 283 -172q115 -155 115 -287q0 -70 -56 -162h160l51 -10v-227l-51 -10h-139q-87 0 -164 92q-181 -92 -543 -92h-39q-212 0 -272 38l-4 -36q-22 -119 -117 -248q-146 -150 -459 -150q-233 0 -348 121
zM1534 -315q66 84 149 153q106 -87 154 -155q-58 -90 -154 -154q-90 65 -149 156z" />
    <glyph glyph-name="uni06FC.init" unicode="&#x6fc;" horiz-adv-x="1041" 
d="M353 1196q66 84 149 154q106 -91 154 -156q-59 -89 -154 -154q-90 66 -149 156zM871 111q-378 -131 -711 -131h-162l-51 10v227l51 10h182q-88 76 -88 230q0 141 78 243q43 70 146 136q109 65 204 65q153 0 304 -283l-62 -61l-192 123q-181 -15 -324 -162
q31 -86 113 -162q95 -86 209 -86q158 0 356 101l37 -33zM353 -327q66 84 149 153q106 -87 154 -155q-58 -90 -154 -154q-90 65 -149 156z" />
    <glyph glyph-name="uni06FC.medi" unicode="&#x6fc;" horiz-adv-x="1165" 
d="M459 1143q63 80 150 155q107 -92 153 -157q-58 -89 -153 -154q-91 66 -150 156zM940 557q-113 31 -315 31q-141 0 -240 -17q130 -133 146 -147q80 -78 124 -109q202 108 285 242zM1168 -20h-144q-241 0 -405 108q-217 -108 -490 -108h-131l-51 10v227l51 10h299
q89 0 142 13l-234 249l-65 -92l-78 47q100 284 178 312q153 59 426 59q314 0 409 -92q16 -19 16 -74q0 -16 -1 -35q-3 -75 -19 -100q-102 -180 -233 -281q21 -6 86 -6h244l51 -10v-227zM459 -327q66 84 149 153q106 -87 154 -155q-58 -90 -154 -154q-90 65 -149 156z" />
    <glyph glyph-name="uni06FC.fina" unicode="&#x6fc;" horiz-adv-x="1234" 
d="M514 1188q79 95 153 158q108 -93 154 -158q-59 -85 -154 -152q-92 67 -153 152zM987 567q-107 33 -322 33q-139 0 -231 -14q109 -115 164 -166q57 -55 87 -78q241 110 302 225zM1259 -428q-336 -217 -434 -217q-513 0 -627 311q-31 81 -31 157q0 36 7 71q43 211 323 356
l-245 256l-72 -103l-80 43q101 289 182 320q166 59 422 59q315 0 410 -92q15 -16 15 -70q0 -16 -1 -36q-6 -71 -18 -99q-64 -178 -252 -286q31 -15 131 -15h248l51 -10v-227l-51 -10h-181q-228 0 -403 129q-321 -164 -354 -291q83 -197 596 -197q115 0 340 25zM493 -140
q66 84 149 153q106 -87 154 -155q-58 -90 -154 -154q-90 65 -149 156z" />
    <glyph glyph-name="uni06FF.init" unicode="&#x6ff;" horiz-adv-x="1051" 
d="M453 268q62 35 86 90q-12 96 -60 179q-42 75 -86 75q-41 0 -100 -65q-55 -61 -84 -125q75 -81 238 -158zM749 349.5q-57 80.5 -61 80.5q-2 0 -2 -10v-8q0 -125 -92 -211q129 -53 236 -62q-24 130 -81 210.5zM807 -92q-165 0 -407 147q-146 -75 -316 -75h-86l-51 10v227
l51 10h150q2 -2 3 -2q0 1 -2 4l-18 21q-38 74 -38 150q0 35 8 71q39 153 139 238l-68 34l92 211l56 13q381 -245 524 -443q127 -173 127 -377v-5q0 -46 -59 -136q-65 -98 -105 -98zM375 1439q44 -135 180 -280l-57 -127l-37 -6q-121 145 -147 225q-48 -130 -164 -231l-29 12
l-78 153q145 114 191 240l18 14h123z" />
    <glyph glyph-name="uni06FF.medi" unicode="&#x6ff;" horiz-adv-x="944" 
d="M740 -184q-41 202 -330 223q-31 0 -137 -23q80 -213 354 -213q79 0 113 13zM602 -438q-158 0 -284 110q-136 118 -170 318q-89 -10 -150 -10l-51 10v227l51 10l139 2q34 232 164 416q127 176 242 176q97 0 162 -153q53 -123 53 -222q0 -94 -102 -225l6 6h284l52 -10v-227
l-52 -10h-86q31 -28 31 -86v-7q0 -47 -47 -157q-48 -112 -68 -131q-36 -37 -174 -37zM602 362q-19 74 -57 136q-40 61 -68 61q-41 0 -102 -88q-76 -107 -104 -244q251 5 331 135zM565 1319q44 -135 180 -280l-57 -127l-37 -6q-121 145 -147 225q-48 -130 -164 -231l-29 12
l-78 153q145 114 191 240l18 14h123z" />
    <glyph glyph-name="uni06FF.fina" unicode="&#x6ff;" horiz-adv-x="1154" 
d="M948 -184q-41 202 -328 223q-68 0 -135 -23q80 -213 352 -213q80 0 111 13zM810 -438q-158 0 -280 106q-138 120 -172 314l-6 -2q-57 0 -115 12l-215 196l20 52q107 -6 306 -11q33 230 163 416q127 176 242 176q97 0 162 -153q53 -123 53 -222q0 -92 -102 -223
q-3 -3 -3 -4h1q3 1 12 8h281l51 -10v-227l-51 -10h-88q32 -30 32 -86v-5q0 -43 -49 -159q-45 -112 -67 -131q-31 -37 -175 -37zM499 229q239 13 314 133q-47 197 -119 197q-44 0 -115 -96q-74 -103 -99 -235zM765 1319q44 -135 180 -280l-57 -127l-37 -6q-121 145 -147 225
q-48 -130 -164 -231l-29 12l-78 153q145 114 191 240l18 14h123z" />
    <glyph glyph-name="uniFB50" unicode="&#x671;" horiz-adv-x="585" arabic-form="isolated" 
d="M403 301q0 -33 -94 -321h-95l-30 1138l153 148h66v-965zM510 1529q-53 95 -108 95q-69 0 -150 -102q48 -6 93 -6q112 0 165 13zM309 1349q-124 0 -207 32l-66 -80l-36 18q29 124 36 137q58 88 100 88q37 -8 43 -9q141 225 248 225q62 0 111 -73q47 -67 47 -130
q0 -21 -39 -93q-38 -71 -53 -79q-56 -36 -184 -36z" />
    <glyph glyph-name="uniFB51" unicode="&#x671;" horiz-adv-x="581" arabic-form="final" 
d="M584 -20q-224 0 -326 165q-100 165 -100 541v504l164 125h61v-1012q0 -48 47 -63q40 -13 154 -13l51 -10v-227zM510 1559q-53 95 -108 95q-69 0 -150 -102q48 -6 93 -6q112 0 165 13zM309 1379q-124 0 -207 32l-66 -80l-36 18q29 124 36 137q58 88 100 88q37 -8 43 -9
q141 225 248 225q62 0 111 -73q47 -67 47 -130q0 -21 -39 -93q-38 -71 -53 -79q-56 -36 -184 -36z" />
    <glyph glyph-name="uniFB52" unicode="&#x67b;" horiz-adv-x="1605" arabic-form="isolated" 
d="M645 -20q-545 0 -545 385q0 212 174 469l90 -50q-86 -193 -86 -299q0 -258 406 -258q478 0 641 13q-22 174 -99 452l154 152h59l86 -244l-2 -33l-45 -49q16 -115 16 -190q0 -30 -3 -54q-3 -43 -68 -141q-62 -94 -106 -125q-74 -28 -672 -28zM647 -528q91 110 108 118
q-49 43 -108 113q89 108 160 154q89 -59 153 -154q-51 -70 -104 -115q46 -37 104 -116q-66 -94 -153 -152q-90 69 -160 152z" />
    <glyph glyph-name="uniFB53" unicode="&#x67b;" horiz-adv-x="1641" arabic-form="final" 
d="M1644 -20q-266 0 -348 131q-59 -66 -88 -80q-157 -51 -563 -51q-545 0 -545 385q0 212 174 469l90 -50q-88 -191 -88 -299q0 -258 408 -258q274 0 536 35q16 83 68 307l145 99l53 -23q-26 -314 -45 -385q45 -33 203 -33l51 -10v-227zM626 -528q92 110 109 118
q-50 43 -109 113q89 108 160 154q89 -59 154 -154q-51 -70 -105 -115q46 -37 105 -116q-64 -92 -156 -152q-79 63 -158 152z" />
    <glyph glyph-name="uniFB54" unicode="&#x67b;" horiz-adv-x="553" arabic-form="initial" 
d="M-54 -10v227l51 10q222 0 266 11q-21 175 -98 454l156 152h59l88 -246l-6 -35l-43 -45q17 -121 17 -194q0 -29 -3 -50q-6 -46 -69 -143q-63 -96 -105 -125q-62 -26 -262 -26zM71 -520q93 112 108 119q-45 41 -108 112q91 111 158 154q87 -57 155 -154q-69 -91 -104 -114
q46 -37 104 -117q-65 -89 -157 -156q-89 76 -156 156z" />
    <glyph glyph-name="uniFB55" unicode="&#x67b;" horiz-adv-x="610" arabic-form="medial" 
d="M613 -20h-17q-227 0 -319 122q-67 -82 -97 -98q-52 -24 -182 -24l-51 10v227l51 10q137 0 189 15q13 70 71 327l142 95l55 -17q-21 -311 -45 -387q45 -33 203 -33l51 -10v-227zM150 -524q91 113 108 121q-68 62 -108 110q95 115 157 156q89 -61 156 -156
q-58 -81 -104 -113q47 -38 104 -118q-66 -88 -158 -154q-84 73 -155 154z" />
    <glyph glyph-name="uniFB56" unicode="&#x67e;" horiz-adv-x="1605" arabic-form="isolated" 
d="M645 -20q-545 0 -545 385q0 212 174 469l90 -50q-86 -193 -86 -299q0 -258 406 -258q478 0 641 13q-22 174 -99 452l154 152h59l86 -244l-2 -33l-45 -49q16 -115 16 -190q0 -30 -3 -54q-3 -43 -68 -141q-62 -94 -106 -125q-74 -28 -672 -28zM809 -338l-111 -117
q-106 88 -154 158q62 87 152 152q58 -42 113 -103q29 40 114 103q87 -63 150 -154q-74 -86 -150 -156zM954 -532q-60 -68 -145 -146q-101 82 -146 148q55 81 146 147q79 -62 145 -149z" />
    <glyph glyph-name="uniFB57" unicode="&#x67e;" horiz-adv-x="1641" arabic-form="final" 
d="M1644 -20q-266 0 -348 131q-59 -66 -88 -80q-157 -51 -563 -51q-545 0 -545 385q0 212 174 469l90 -50q-88 -191 -88 -299q0 -258 408 -258q274 0 536 35q16 83 68 307l145 99l53 -23q-26 -314 -45 -385q45 -33 203 -33l51 -10v-227zM938 -528q-70 -78 -146 -148
q-100 82 -145 148q53 79 145 149q80 -65 146 -149zM682 -453q-111 92 -154 158q62 87 152 152q67 -49 112 -103q30 40 115 103q89 -65 147 -154q-63 -80 -149 -156q-106 108 -112 116z" />
    <glyph glyph-name="uniFB58" unicode="&#x67e;" horiz-adv-x="554" arabic-form="initial" 
d="M-53 -10v227l51 10q222 0 266 11q-21 175 -98 454l156 152h59l88 -246l-6 -35l-43 -45q17 -121 17 -194q0 -29 -3 -50q-6 -46 -69 -143q-63 -96 -105 -125q-62 -26 -262 -26zM228 -338l-111 -117q-106 88 -154 158q62 87 152 152q58 -42 113 -103q29 40 114 103
q87 -63 150 -154q-74 -86 -150 -156zM373 -532q-60 -68 -145 -146q-101 82 -146 148q55 81 146 147q79 -62 145 -149z" />
    <glyph glyph-name="uniFB59" unicode="&#x67e;" horiz-adv-x="610" arabic-form="medial" 
d="M613 -20h-17q-227 0 -319 122q-67 -82 -97 -98q-52 -24 -182 -24l-51 10v227l51 10q137 0 189 15q13 70 71 327l142 95l55 -17q-21 -311 -45 -387q45 -33 203 -33l51 -10v-227zM183 -455q-106 88 -154 158q62 87 151 152q62 -46 113 -103q29 40 115 103q82 -62 149 -152
q-70 -84 -149 -158q-114 114 -117 114v-1zM439 -530q-70 -78 -146 -148q-97 76 -145 148q57 85 145 149q78 -63 146 -149z" />
    <glyph glyph-name="uniFB5A" unicode="&#x680;" horiz-adv-x="1605" arabic-form="isolated" 
d="M645 -20q-545 0 -545 385q0 212 174 469l90 -50q-86 -193 -86 -299q0 -258 406 -258q478 0 641 13q-22 174 -99 452l154 152h59l86 -244l-2 -33l-45 -49q16 -115 16 -190q0 -30 -3 -54q-3 -43 -68 -141q-62 -94 -106 -125q-74 -28 -672 -28zM817 -582q-9 -15 -111 -98
q-100 78 -147 150q23 37 106 114q-75 63 -106 119q34 46 145 145q98 -67 119 -100q16 19 108 100q96 -67 148 -147q-40 -65 -105 -117q76 -69 105 -114q-48 -74 -145 -150q-108 83 -117 98zM897 -416l-78 78l-76 -78l76 -76z" />
    <glyph glyph-name="uniFB5B" unicode="&#x680;" horiz-adv-x="1641" arabic-form="final" 
d="M1644 -20q-266 0 -348 131q-59 -66 -88 -80q-157 -51 -563 -51q-545 0 -545 385q0 212 174 469l90 -50q-88 -191 -88 -299q0 -258 408 -258q274 0 536 35q16 83 68 307l145 99l53 -23q-26 -314 -45 -385q45 -33 203 -33l51 -10v-227zM798 -582q-23 -30 -112 -100
q-94 75 -148 150q16 21 107 112q-71 64 -109 121l148 147q96 -72 118 -104q26 28 113 104q93 -76 146 -149q-43 -68 -105 -117q81 -80 105 -114q-41 -63 -146 -150q-108 84 -117 100zM876 -416l-78 76l-73 -76l73 -78z" />
    <glyph glyph-name="uniFB5C" unicode="&#x680;" horiz-adv-x="554" arabic-form="initial" 
d="M-53 -10v227l51 10q222 0 266 11q-21 175 -98 454l156 152h59l88 -246l-6 -35l-43 -45q17 -121 17 -194q0 -29 -3 -50q-6 -46 -69 -143q-63 -96 -105 -125q-62 -26 -262 -26zM217 -582q-36 -46 -112 -96q-72 52 -150 146q10 14 109 112q-71 64 -109 121l148 147
q103 -79 116 -102q14 13 115 102q93 -76 145 -149q-13 -22 -106 -115q74 -68 106 -116q-49 -76 -145 -146q-100 70 -117 96zM295 -416l-78 76l-73 -76l73 -78z" />
    <glyph glyph-name="uniFB5D" unicode="&#x680;" horiz-adv-x="610" arabic-form="medial" 
d="M613 -20h-17q-227 0 -319 122q-67 -82 -97 -98q-52 -24 -182 -24l-51 10v227l51 10q137 0 189 15q13 70 71 327l142 95l55 -17q-21 -311 -45 -387q45 -33 203 -33l51 -10v-227zM303 -584q-9 -15 -110 -98q-100 78 -148 150q27 40 107 114q-61 47 -107 115q19 29 146 149
q103 -78 116 -102q41 41 113 102q97 -78 148 -149q-46 -66 -107 -115q53 -45 107 -114q-49 -75 -148 -150q-107 83 -117 98zM383 -418l-78 78l-75 -78l75 -78z" />
    <glyph glyph-name="uniFB5E" unicode="&#x67a;" horiz-adv-x="1605" arabic-form="isolated" 
d="M655 942q86 104 109 119q-14 10 -109 113q87 105 160 155q90 -62 153 -155q-58 -81 -104 -113q48 -38 104 -119q-64 -89 -153 -154q-92 77 -160 154zM645 -20q-545 0 -545 385q0 212 174 469l90 -50q-86 -193 -86 -299q0 -258 406 -258q478 0 641 13q-22 174 -99 452
l154 152h59l86 -244l-2 -33l-45 -49q16 -115 16 -190q0 -30 -3 -54q-3 -43 -68 -141q-62 -94 -106 -125q-74 -28 -672 -28z" />
    <glyph glyph-name="uniFB5F" unicode="&#x67a;" horiz-adv-x="1641" arabic-form="final" 
d="M647 879q86 103 106 120q-27 22 -106 111q90 108 158 156q88 -61 155 -156q-58 -81 -104 -113q47 -38 104 -118q-66 -88 -158 -154q-84 73 -155 154zM1644 -20q-266 0 -348 131q-59 -66 -88 -80q-157 -51 -563 -51q-545 0 -545 385q0 212 174 469l90 -50
q-88 -191 -88 -299q0 -258 408 -258q274 0 536 35q16 83 68 307l145 99l53 -23q-26 -314 -45 -385q45 -33 203 -33l51 -10v-227z" />
    <glyph glyph-name="uniFB60" unicode="&#x67a;" horiz-adv-x="554" arabic-form="initial" 
d="M131 1151q93 112 109 119q-65 61 -109 112q92 111 158 154q87 -57 156 -154q-51 -70 -105 -114q46 -37 105 -117q-68 -93 -158 -152q-83 67 -156 152zM-53 -10v227l51 10q222 0 266 11q-21 175 -98 454l156 152h59l88 -246l-6 -35l-43 -45q17 -121 17 -194q0 -29 -3 -50
q-6 -46 -69 -143q-63 -96 -105 -125q-62 -26 -262 -26z" />
    <glyph glyph-name="uniFB61" unicode="&#x67a;" horiz-adv-x="610" arabic-form="medial" 
d="M174 958q85 103 111 121q-43 34 -111 111q87 105 160 156q90 -63 154 -156q-59 -81 -105 -113q48 -38 105 -119q-65 -89 -154 -153q-92 77 -160 153zM613 -20h-17q-227 0 -319 122q-67 -82 -97 -98q-52 -24 -182 -24l-51 10v227l51 10q137 0 189 15q13 70 71 327l142 95
l55 -17q-21 -311 -45 -387q45 -33 203 -33l51 -10v-227z" />
    <glyph glyph-name="uniFB62" unicode="&#x67f;" horiz-adv-x="1605" arabic-form="isolated" 
d="M794 823q-19 -27 -112 -98q-92 73 -150 149q25 29 109 113q-67 58 -109 119l148 147q103 -78 116 -102q26 31 115 102q93 -76 145 -149q-13 -22 -106 -115q68 -62 106 -115q-38 -60 -145 -149q-108 83 -117 98zM872 989l-78 78l-73 -78l73 -78zM645 -20q-545 0 -545 385
q0 212 174 469l90 -50q-86 -193 -86 -299q0 -258 406 -258q478 0 641 13q-22 174 -99 452l154 152h59l86 -244l-2 -33l-45 -49q16 -115 16 -190q0 -30 -3 -54q-3 -43 -68 -141q-62 -94 -106 -125q-74 -28 -672 -28z" />
    <glyph glyph-name="uniFB63" unicode="&#x67f;" horiz-adv-x="1641" arabic-form="final" 
d="M792 813q-17 -25 -112 -100q-93 73 -148 147q26 42 107 117q-71 60 -107 119q38 48 146 145q97 -67 118 -100q33 36 113 100q94 -72 145 -147q-38 -61 -106 -117q68 -58 106 -115q-38 -61 -145 -149q-92 73 -117 100zM870 977l-78 78l-76 -78l76 -76zM1644 -20
q-266 0 -348 131q-59 -66 -88 -80q-157 -51 -563 -51q-545 0 -545 385q0 212 174 469l90 -50q-88 -191 -88 -299q0 -258 408 -258q274 0 536 35q16 83 68 307l145 99l53 -23q-26 -314 -45 -385q45 -33 203 -33l51 -10v-227z" />
    <glyph glyph-name="uniFB64" unicode="&#x67f;" horiz-adv-x="554" arabic-form="initial" 
d="M283 1141q-34 -44 -113 -97q-100 73 -147 146q23 37 106 115q-69 59 -106 116q18 29 145 150q104 -79 117 -103q2 0 111 103q97 -76 149 -150q-46 -65 -106 -114q76 -74 106 -117q-53 -79 -147 -146q-96 69 -115 97zM361 1307l-78 75l-76 -75l76 -78zM-53 -10v227l51 10
q222 0 266 11q-21 175 -98 454l156 152h59l88 -246l-6 -35l-43 -45q17 -121 17 -194q0 -29 -3 -50q-6 -46 -69 -143q-63 -96 -105 -125q-62 -26 -262 -26z" />
    <glyph glyph-name="uniFB65" unicode="&#x67f;" horiz-adv-x="610" arabic-form="medial" 
d="M310 928q-17 -25 -113 -101q-92 74 -147 148q26 42 106 117q-70 60 -106 118q38 48 145 146q95 -66 117 -103q37 37 111 103q84 -57 149 -148q-38 -61 -106 -116q67 -59 106 -115q-49 -75 -147 -150q-85 64 -115 101zM388 1092l-78 77l-76 -77l76 -76zM613 -20h-17
q-227 0 -319 122q-67 -82 -97 -98q-52 -24 -182 -24l-51 10v227l51 10q137 0 189 15q13 70 71 327l142 95l55 -17q-21 -311 -45 -387q45 -33 203 -33l51 -10v-227z" />
    <glyph glyph-name="uniFB66" unicode="&#x679;" horiz-adv-x="1605" arabic-form="isolated" 
d="M645 -20q-545 0 -545 385q0 212 174 469l90 -50q-86 -193 -86 -299q0 -258 406 -258q478 0 641 13q-22 174 -99 452l154 152h59l86 -244l-2 -33l-45 -49q16 -115 16 -190q0 -30 -3 -54q-3 -43 -68 -141q-62 -94 -106 -125q-74 -28 -672 -28zM885 989q121 0 163 19
q-31 91 -98 91q-69 0 -147 -110h82zM977 1246q65 0 122 -77q55 -71 55 -142q0 -29 -39 -89q-35 -55 -61 -71q-65 -40 -216 -40q-71 0 -152 16l-145 111l13 48q59 -7 137 -9l10 15q-19 164 -25 292l-22 59l111 104l39 -28v-42l53 -90l-40 -46l-2 -82q0 -6 -4 -21
q89 92 166 92z" />
    <glyph glyph-name="uniFB67" unicode="&#x679;" horiz-adv-x="1641" arabic-form="final" 
d="M1644 -20q-266 0 -348 131q-59 -66 -88 -80q-157 -51 -563 -51q-545 0 -545 385q0 212 174 469l90 -50q-88 -191 -88 -299q0 -258 408 -258q274 0 536 35q16 83 68 307l145 99l53 -23q-26 -314 -45 -385q45 -33 203 -33l51 -10v-227zM825 944q121 0 163 19q-31 91 -98 91
q-69 0 -147 -110h82zM917 1201q65 0 122 -77q55 -71 55 -142q0 -29 -39 -89q-35 -55 -61 -71q-65 -40 -216 -40q-71 0 -152 16l-145 111l13 48q59 -7 137 -9l10 15q-19 164 -25 292l-22 59l111 104l39 -28v-42l53 -90l-40 -46l-2 -82q0 -6 -4 -21q89 92 166 92z" />
    <glyph glyph-name="uniFB68" unicode="&#x679;" horiz-adv-x="623" arabic-form="initial" 
d="M-53 -10v227l51 10q262 0 311 13q-20 164 -96 452l154 152h57l88 -246l-2 -35l-47 -47q17 -114 17 -188q0 -30 -3 -54q-3 -41 -67 -143q-62 -94 -107 -125q-62 -26 -305 -26zM354 1184q121 0 163 19q-31 91 -98 91q-69 0 -147 -110h82zM446 1441q65 0 122 -77
q55 -71 55 -142q0 -29 -39 -89q-35 -55 -61 -71q-65 -40 -216 -40q-71 0 -152 16l-145 111l13 48q59 -7 137 -9l10 15q-19 164 -25 292l-22 59l111 104l39 -28v-42l53 -90l-40 -46l-2 -82q0 -6 -4 -21q89 92 166 92z" />
    <glyph glyph-name="uniFB69" unicode="&#x679;" horiz-adv-x="610" arabic-form="medial" 
d="M613 -20h-17q-227 0 -319 122q-67 -82 -97 -98q-52 -24 -182 -24l-51 10v227l51 10q137 0 189 15q13 70 71 327l142 95l55 -17q-21 -311 -45 -387q45 -33 203 -33l51 -10v-227zM354 994q121 0 163 19q-31 91 -98 91q-69 0 -147 -110h82zM446 1251q65 0 122 -77
q55 -71 55 -142q0 -29 -39 -89q-35 -55 -61 -71q-65 -40 -216 -40q-71 0 -152 16l-145 111l13 48q59 -7 137 -9l10 15q-19 164 -25 292l-22 59l111 104l39 -28v-42l53 -90l-40 -46l-2 -82q0 -6 -4 -21q89 92 166 92z" />
    <glyph glyph-name="uniFB6A" unicode="&#x6a4;" horiz-adv-x="1589" arabic-form="isolated" 
d="M1317 539q-65 249 -187 249q-57 0 -110 -71q-51 -69 -70 -154q63 -47 176 -47q107 0 191 23zM100 365q0 212 174 469l92 -48q-88 -194 -88 -301q0 -258 408 -258q463 0 659 21l4 63q0 74 -2 84l-35 -59q-92 -39 -202 -39q-149 0 -217 84q-66 97 -66 201q3 139 96 282
q108 166 254 166q151 0 246 -217q86 -190 86 -422q0 -62 -10 -127q-10 -47 -80 -139q-65 -86 -98 -98q-142 -47 -674 -47q-547 0 -547 385zM1009 1527q69 78 146 148q99 -78 143 -148q-55 -82 -143 -149q-80 65 -146 149zM1265 1142q-66 49 -110 101q-35 -41 -117 -101
q-82 62 -150 152q80 96 150 158q115 -115 115 -117q73 74 110 117q106 -88 154 -158q-59 -87 -152 -152z" />
    <glyph glyph-name="uniFB6B" unicode="&#x6a4;" horiz-adv-x="1656" arabic-form="final" 
d="M1142 1425q70 78 146 148q97 -77 145 -148q-53 -79 -145 -149q-85 72 -146 149zM1400 1040q-57 42 -112 103q-30 -40 -115 -103q-89 65 -147 154q68 86 147 156l115 -115l110 115q106 -88 154 -158q-62 -87 -152 -152zM1312 274q67 38 111 88q-10 114 -59 207
q-56 103 -119 103q-51 0 -117 -66q-68 -65 -96 -139q97 -128 270 -199zM1279 61l-3 -2q-240 -116 -635 -116q-541 0 -541 381q0 209 174 469l92 -52q-88 -191 -88 -299q0 -249 402 -249q247 0 364 14q-69 54 -106 135q-28 61 -28 128q0 27 5 56q19 117 127 244
q125 150 256 150q124 0 213 -154q84 -146 84 -330q-6 -110 -79 -198q49 -10 128 -11h15l51 -10v-227l-51 -10h-47q-172 0 -333 81z" />
    <glyph glyph-name="uniFB6C" unicode="&#x6a4;" horiz-adv-x="838" arabic-form="initial" 
d="M-2 -20l-51 10v227l51 10h326q175 0 270 19q4 28 4 65q0 72 -2 82l-35 -57q-92 -39 -202 -39q-147 0 -215 84q-66 86 -66 184v17q3 143 94 282q108 166 254 166q151 0 246 -217q86 -190 86 -422q0 -75 -12 -127q-13 -56 -76 -143q-61 -86 -84 -92q-101 -49 -348 -49h-240
zM565 539q-64 249 -186 249q-57 0 -110 -71q-51 -69 -70 -154q63 -47 176 -47q107 0 190 23zM245 1575q69 78 146 148q99 -78 143 -148q-55 -82 -143 -149q-80 65 -146 149zM501 1190q-66 49 -110 101q-35 -41 -117 -101q-82 62 -150 152q80 96 150 158q115 -115 115 -117
q73 74 110 117q106 -88 154 -158q-59 -87 -152 -152z" />
    <glyph glyph-name="uniFB6D" unicode="&#x6a4;" horiz-adv-x="845" arabic-form="medial" 
d="M506 274q71 40 111 86q-10 116 -60 209q-56 103 -118 103q-52 0 -117 -66q-69 -65 -96 -139q97 -131 270 -199zM801 -20q-179 0 -346 88q-158 -88 -350 -88h-107l-51 10v227l51 10h217q-50 44 -84 115q-27 61 -27 127q0 28 5 57q18 117 127 244q125 150 256 150
q124 0 213 -154q84 -146 84 -330q-6 -113 -84 -198q49 -10 128 -11h15l51 -10v-227l-51 -10h-47zM313 1453q69 78 146 148q99 -78 143 -148q-55 -82 -143 -149q-80 65 -146 149zM569 1068q-66 49 -110 101q-35 -41 -117 -101q-82 62 -150 152q80 96 150 158
q115 -115 115 -117q73 74 110 117q106 -88 154 -158q-59 -87 -152 -152z" />
    <glyph glyph-name="uniFB6E" unicode="&#x6a6;" horiz-adv-x="1589" arabic-form="isolated" 
d="M1149 1239q-20 -27 -113 -98q-89 72 -150 147q11 15 111 115q-69 56 -111 119l148 147q104 -75 119 -102q36 36 112 102q95 -72 146 -149q-42 -64 -105 -115q74 -71 105 -117q-42 -69 -146 -147q-107 83 -116 98zM1228 1405l-77 76l-76 -76l76 -78zM1317 539
q-65 249 -187 249q-57 0 -110 -71q-51 -69 -70 -154q63 -47 176 -47q107 0 191 23zM100 365q0 212 174 469l92 -48q-88 -194 -88 -301q0 -258 408 -258q463 0 659 21l4 63q0 74 -2 84l-35 -59q-92 -39 -202 -39q-149 0 -217 84q-66 97 -66 201q3 139 96 282q108 166 254 166
q151 0 246 -217q86 -190 86 -422q0 -62 -10 -127q-10 -47 -80 -139q-65 -86 -98 -98q-142 -47 -674 -47q-547 0 -547 385z" />
    <glyph glyph-name="uniFB6F" unicode="&#x6a6;" horiz-adv-x="1656" arabic-form="final" 
d="M1312 274q67 38 111 88q-10 114 -59 207q-56 103 -119 103q-51 0 -117 -66q-68 -65 -96 -139q97 -128 270 -199zM1279 61l-3 -2q-240 -116 -635 -116q-541 0 -541 381q0 209 174 469l92 -52q-88 -191 -88 -299q0 -249 402 -249q247 0 364 14q-69 54 -106 135
q-28 61 -28 128q0 27 5 56q19 117 127 244q125 150 256 150q124 0 213 -154q84 -146 84 -330q-6 -110 -79 -198q49 -10 128 -11h15l51 -10v-227l-51 -10h-47q-172 0 -333 81zM1287 1141q-9 -15 -110 -98q-94 69 -148 145q17 27 107 117q-72 60 -107 117q19 28 146 149
q103 -79 116 -102q2 0 111 102q99 -75 147 -149q-41 -64 -104 -115q74 -71 104 -117q-42 -69 -145 -147q-107 83 -117 98zM1367 1307l-78 76l-75 -76l75 -78z" />
    <glyph glyph-name="uniFB70" unicode="&#x6a6;" horiz-adv-x="838" arabic-form="initial" 
d="M387 1239q-9 -15 -110 -98q-94 69 -148 145q17 27 107 117q-72 60 -107 117q19 28 146 149q103 -79 116 -102q2 0 111 102q99 -75 147 -149q-41 -64 -104 -115q74 -71 104 -117q-42 -69 -145 -147q-107 83 -117 98zM467 1405l-78 76l-75 -76l75 -78zM-2 -20l-51 10v227
l51 10h326q175 0 270 19q4 28 4 65q0 72 -2 82l-35 -57q-92 -39 -202 -39q-163 0 -215 84q-68 89 -68 201q3 139 96 282q108 166 254 166q151 0 246 -217q86 -190 86 -422q0 -75 -12 -127q-13 -56 -76 -143q-61 -86 -84 -92q-101 -49 -348 -49h-240zM565 539
q-64 249 -186 249q-57 0 -110 -71q-51 -69 -70 -154q63 -47 176 -47q107 0 190 23z" />
    <glyph glyph-name="uniFB71" unicode="&#x6a6;" horiz-adv-x="845" arabic-form="medial" 
d="M506 274q71 40 111 86q-10 116 -60 209q-56 103 -118 103q-52 0 -117 -66q-69 -65 -96 -139q97 -131 270 -199zM801 -20q-179 0 -346 88q-158 -88 -350 -88h-107l-51 10v227l51 10h217q-50 44 -84 115q-27 61 -27 127q0 28 5 57q18 117 127 244q125 150 256 150
q124 0 213 -154q84 -146 84 -330q-6 -113 -84 -198q49 -10 128 -11h15l51 -10v-227l-51 -10h-47zM452 1167q-9 -15 -110 -98q-94 69 -148 145q17 27 107 117q-72 60 -107 117q19 28 146 149q103 -79 116 -102q2 0 111 102q99 -75 147 -149q-41 -64 -104 -115
q74 -71 104 -117q-42 -69 -145 -147q-107 83 -117 98zM532 1333l-78 76l-75 -76l75 -78z" />
    <glyph glyph-name="uniFB72" unicode="&#x684;" horiz-adv-x="1349" arabic-form="isolated" 
d="M635 -145q52 72 96 106q-43 36 -96 111q62 86 149 145q96 -82 150 -145q-86 -104 -103 -113q43 -37 103 -104q-86 -105 -152 -150q-80 56 -147 150zM518 516q-163 31 -182 33l-166 -148l-70 60q172 319 258 319q37 0 279 -47q235 -47 389 -47h227l16 -45l-73 -182h-117
q-294 -71 -598 -320q-162 -134 -193 -284q132 -236 648 -236q116 0 368 25l23 -74q-337 -217 -475 -217q-262 0 -449 104q-160 89 -203 215q-46 111 -46 228q0 14 1 28q46 319 428 535q33 15 79 25q-66 11 -144 28z" />
    <glyph glyph-name="uniFB73" unicode="&#x684;" horiz-adv-x="1349" arabic-form="final" 
d="M635 -145q52 72 96 106q-43 36 -96 111q62 86 149 145q96 -82 150 -145q-86 -104 -103 -113q43 -37 103 -104q-86 -105 -152 -150q-80 56 -147 150zM518 516q-163 31 -182 33l-166 -148l-70 60q172 319 258 319q37 0 279 -47q235 -47 389 -47h227l16 -45l-73 -182h-117
q-294 -71 -598 -320q-162 -134 -193 -284q132 -236 648 -236q116 0 368 25l23 -74q-337 -217 -475 -217q-262 0 -449 104q-160 89 -203 215q-46 111 -46 228q0 14 1 28q46 319 428 535q33 15 79 25q-66 11 -144 28z" />
    <glyph glyph-name="uniFB74" unicode="&#x684;" horiz-adv-x="1330" arabic-form="initial" 
d="M-2 -20l-51 10v227l51 10h240q222 0 420 88q91 41 91 44h-1q-1 0 -6 -1q-48 14 -189 93l-239 135l-191 -129l-65 71q200 281 307 281q30 0 311 -156q223 -127 375 -127h182l17 -49l-74 -174h-174q-21 -2 -367 -199q-210 -124 -475 -124h-162zM707 -317q63 83 104 112
q-47 38 -104 119q66 87 158 154q84 -74 155 -154q-88 -106 -108 -121q68 -62 108 -110q-95 -115 -158 -156q-88 61 -155 156z" />
    <glyph glyph-name="uniFB75" unicode="&#x684;" horiz-adv-x="1327" arabic-form="medial" 
d="M-2 -20l-51 10v227l51 10h240q223 0 422 90l74 36l13 7h-1l-4 -2q-59 23 -189 93l-239 135l-191 -129l-65 71q200 281 307 281q30 0 311 -156q223 -127 375 -127h178l16 -49l-75 -174l-95 -4q4 -72 109 -72h145l52 -10v-227l-52 -10h-153q-227 0 -227 221q0 40 8 88
q-5 0 -322 -185q-210 -124 -475 -124h-162zM574 -336q51 70 104 115q-46 34 -104 117q64 89 153 153q92 -77 160 -153q-91 -111 -109 -119q50 -43 109 -113q-87 -105 -160 -156q-90 63 -153 156z" />
    <glyph glyph-name="uniFB76" unicode="&#x683;" horiz-adv-x="1349" arabic-form="isolated" 
d="M891 -150q-72 52 -113 101q-30 -41 -113 -101q-83 61 -151 152q71 86 151 154q108 -86 117 -105q31 37 109 105q106 -88 151 -154q-59 -87 -151 -152zM518 516q-163 31 -182 33l-166 -148l-70 60q172 319 258 319q37 0 279 -47q235 -47 389 -47h227l16 -45l-73 -182h-117
q-294 -71 -598 -320q-162 -134 -193 -284q132 -236 648 -236q116 0 368 25l23 -74q-337 -217 -475 -217q-262 0 -449 104q-160 89 -203 215q-46 111 -46 228q0 14 1 28q46 319 428 535q33 15 79 25q-66 11 -144 28z" />
    <glyph glyph-name="uniFB77" unicode="&#x683;" horiz-adv-x="1353" arabic-form="final" 
d="M841 -170q-58 45 -108 100q-34 -42 -115 -100q-91 66 -151 154q74 86 151 151q106 -87 115 -104q34 37 108 104q107 -88 152 -153q-59 -87 -152 -152zM518 516q-163 31 -182 33l-166 -148l-70 60q172 319 258 319q37 0 279 -47q235 -47 389 -47h227l16 -45l-73 -182
l-97 2q-2 -27 -2 -51q0 -79 23 -121q31 -62 139 -62h96l52 -10v-227l-52 -10h-102q-201 0 -262 153q-25 64 -25 140q0 74 23 159q-249 -78 -508 -293q-162 -134 -193 -284q132 -236 648 -236q116 0 368 25l23 -74q-337 -217 -475 -217q-262 0 -449 104q-160 89 -203 215
q-46 111 -46 228q0 14 1 28q46 319 428 535q33 15 79 25q-66 11 -144 28z" />
    <glyph glyph-name="uniFB78" unicode="&#x683;" horiz-adv-x="1330" arabic-form="initial" 
d="M-2 -20l-51 10v227l51 10h240q222 0 420 88q91 41 91 44h-1q-1 0 -6 -1q-48 14 -189 93l-239 135l-191 -129l-65 71q200 281 307 281q30 0 311 -156q223 -127 375 -127h182l17 -49l-74 -174h-174q-21 -2 -367 -199q-210 -124 -475 -124h-162zM905 -285q-73 58 -114 105
q-34 -46 -117 -105q-87 67 -154 158q74 85 154 156q106 -88 121 -109q62 69 110 109q109 -90 156 -158q-61 -89 -156 -156z" />
    <glyph glyph-name="uniFB79" unicode="&#x683;" horiz-adv-x="1327" arabic-form="medial" 
d="M-2 -20l-51 10v227l51 10h240q223 0 422 90l74 36l13 7h-1l-4 -2q-59 23 -189 93l-239 135l-191 -129l-65 71q200 281 307 281q30 0 311 -156q223 -127 375 -127h178l16 -49l-75 -174l-95 -4q4 -72 109 -72h145l52 -10v-227l-52 -10h-153q-227 0 -227 221q0 40 8 88
q-5 0 -322 -185q-210 -124 -475 -124h-162zM799 -315q-74 57 -115 104q-37 -46 -116 -104q-88 66 -154 157q73 85 154 156q103 -86 120 -107q40 47 111 107q108 -90 156 -158q-61 -88 -156 -155z" />
    <glyph glyph-name="uniFB7A" unicode="&#x686;" horiz-adv-x="1349" arabic-form="isolated" 
d="M688 -102q-100 84 -148 151q54 77 146 146q72 -54 106 -97q39 47 109 97q87 -68 143 -148q-71 -84 -143 -149q-109 108 -113 108q-1 0 -1 -1l1 -1q-63 -63 -100 -106zM931 -174q-71 -77 -139 -139q-90 73 -139 141q50 76 139 143q84 -70 139 -145zM518 516
q-163 31 -182 33l-166 -148l-70 60q172 319 258 319q37 0 279 -47q235 -47 389 -47h227l16 -45l-73 -182h-117q-294 -71 -598 -320q-162 -134 -193 -284q132 -236 648 -236q116 0 368 25l23 -74q-337 -217 -475 -217q-262 0 -449 104q-160 89 -203 215q-46 111 -46 228
q0 14 1 28q46 319 428 535q33 15 79 25q-66 11 -144 28z" />
    <glyph glyph-name="uniFB7B" unicode="&#x686;" horiz-adv-x="1353" arabic-form="final" 
d="M749 4l-102 -110q-100 84 -148 151q61 86 146 148q67 -53 104 -99q39 47 109 96q87 -68 143 -147q-70 -83 -143 -149zM888 -178q-71 -78 -139 -139q-90 72 -139 141q53 76 139 143q84 -70 139 -145zM518 516q-163 31 -182 33l-166 -148l-70 60q172 319 258 319
q37 0 279 -47q235 -47 389 -47h227l16 -45l-73 -182l-97 2q-2 -27 -2 -51q0 -79 23 -121q31 -62 139 -62h96l52 -10v-227l-52 -10h-102q-201 0 -262 153q-25 64 -25 140q0 74 23 159q-249 -78 -508 -293q-162 -134 -193 -284q132 -236 648 -236q116 0 368 25l23 -74
q-337 -217 -475 -217q-262 0 -449 104q-160 89 -203 215q-46 111 -46 228q0 14 1 28q46 319 428 535q33 15 79 25q-66 11 -144 28z" />
    <glyph glyph-name="uniFB7C" unicode="&#x686;" horiz-adv-x="1330" arabic-form="initial" 
d="M-2 -20l-51 10v227l51 10h240q222 0 420 88q91 41 91 44h-1q-1 0 -6 -1q-48 14 -189 93l-239 135l-191 -129l-65 71q200 281 307 281q30 0 311 -156q223 -127 375 -127h182l17 -49l-74 -174h-174q-21 -2 -367 -199q-210 -124 -475 -124h-162zM598 -384q-106 88 -153 158
q62 86 151 151q58 -41 113 -102q29 40 115 102q87 -63 149 -153q-73 -86 -149 -156q-114 114 -117 114v-1zM854 -460q-69 -78 -145 -147q-97 76 -145 147q57 86 145 150q78 -64 145 -150z" />
    <glyph glyph-name="uniFB7D" unicode="&#x686;" horiz-adv-x="1327" arabic-form="medial" 
d="M-2 -20l-51 10v227l51 10h240q223 0 422 90l74 36l13 7h-1l-4 -2q-59 23 -189 93l-239 135l-191 -129l-65 71q200 281 307 281q30 0 311 -156q223 -127 375 -127h178l16 -49l-75 -174l-95 -4q4 -72 109 -72h145l52 -10v-227l-52 -10h-153q-227 0 -227 221q0 40 8 88
q-5 0 -322 -185q-210 -124 -475 -124h-162zM598 -384q-106 88 -153 158q62 86 151 151q58 -41 113 -102q29 40 115 102q87 -63 149 -153q-73 -86 -149 -156q-114 114 -117 114v-1zM854 -460q-69 -78 -145 -147q-97 76 -145 147q57 86 145 150q78 -64 145 -150z" />
    <glyph glyph-name="uniFB7E" unicode="&#x687;" horiz-adv-x="1349" arabic-form="isolated" 
d="M813 -195q-21 -26 -107 -90q-88 67 -145 142q40 49 104 108q-63 57 -104 113l143 145q102 -84 113 -100q28 31 106 98q103 -85 142 -145q-45 -66 -101 -111q67 -58 101 -108q-46 -71 -142 -142q-103 79 -110 90zM886 -33l-73 72l-70 -72l70 -73zM518 516q-163 31 -182 33
l-166 -148l-70 60q172 319 258 319q37 0 279 -47q235 -47 389 -47h227l16 -45l-73 -182h-117q-294 -71 -598 -320q-162 -134 -193 -284q132 -236 648 -236q116 0 368 25l23 -74q-337 -217 -475 -217q-262 0 -449 104q-160 89 -203 215q-46 111 -46 228q0 14 1 28
q46 319 428 535q33 15 79 25q-66 11 -144 28z" />
    <glyph glyph-name="uniFB7F" unicode="&#x687;" horiz-adv-x="1353" arabic-form="final" 
d="M741 -215q-18 -24 -106 -92q-85 67 -140 141q25 40 101 107q-60 48 -103 110l139 139q101 -78 111 -96q17 17 105 96q103 -84 139 -141q-14 -22 -101 -108q73 -66 101 -107q-45 -69 -139 -141q-90 69 -107 92zM811 -59l-70 69l-70 -69l70 -70zM518 516q-163 31 -182 33
l-166 -148l-70 60q172 319 258 319q37 0 279 -47q235 -47 389 -47h227l16 -45l-73 -182l-97 2q-2 -27 -2 -51q0 -79 23 -121q31 -62 139 -62h96l52 -10v-227l-52 -10h-102q-201 0 -262 153q-25 64 -25 140q0 74 23 159q-249 -78 -508 -293q-162 -134 -193 -284
q132 -236 648 -236q116 0 368 25l23 -74q-337 -217 -475 -217q-262 0 -449 104q-160 89 -203 215q-46 111 -46 228q0 14 1 28q46 319 428 535q33 15 79 25q-66 11 -144 28z" />
    <glyph glyph-name="uniFB80" unicode="&#x687;" horiz-adv-x="1330" arabic-form="initial" 
d="M795 -373q-15 -21 -111 -98q-91 73 -149 149q43 53 108 115q-68 59 -106 115q23 34 145 149q94 -69 117 -102l109 102q92 -68 147 -149q-41 -64 -104 -115q75 -69 104 -115q-41 -67 -145 -149q-104 82 -115 98zM873 -207l-78 76l-74 -76l74 -76zM-2 -20l-51 10v227l51 10
h240q222 0 420 88q91 41 91 44h-1q-1 0 -6 -1q-48 14 -189 93l-239 135l-191 -129l-65 71q200 281 307 281q30 0 311 -156q223 -127 375 -127h182l17 -49l-74 -174h-174q-21 -2 -367 -199q-210 -124 -475 -124h-162z" />
    <glyph glyph-name="uniFB81" unicode="&#x687;" horiz-adv-x="1327" arabic-form="medial" 
d="M-2 -20l-51 10v227l51 10h240q223 0 422 90l74 36l13 7h-1l-4 -2q-59 23 -189 93l-239 135l-191 -129l-65 71q200 281 307 281q30 0 311 -156q223 -127 375 -127h178l16 -49l-75 -174l-95 -4q4 -72 109 -72h145l52 -10v-227l-52 -10h-153q-227 0 -227 221q0 40 8 88
q-5 0 -322 -185q-210 -124 -475 -124h-162zM690 -403q-15 -22 -110 -99q-94 75 -148 150q29 43 107 114q-69 60 -107 115q24 34 146 150q100 -76 114 -103q2 0 111 103q92 -69 148 -150q-42 -63 -105 -115q75 -69 105 -114q-48 -73 -146 -150q-103 82 -115 99zM768 -238
l-78 76l-73 -76l73 -75z" />
    <glyph glyph-name="uniFB82" unicode="&#x68d;" horiz-adv-x="983" arabic-form="isolated" 
d="M100 201q0 128 80 278l96 -28q-24 -86 -24 -132q0 -47 22 -63q38 -29 160 -29q217 0 311 15q-89 241 -321 549l120 196h62q297 -471 297 -713q0 -37 -60 -143q-61 -105 -96 -121q-74 -30 -364 -30q-283 0 -283 221zM639 -473q-74 58 -115 104q-34 -46 -117 -104
q-87 66 -153 158q73 84 153 155q104 -86 121 -106q40 47 111 106q108 -90 155 -157q-61 -89 -155 -156z" />
    <glyph glyph-name="uniFB83" unicode="&#x68d;" horiz-adv-x="1041" arabic-form="final" 
d="M647 -473q-74 58 -115 104q-34 -46 -117 -104q-87 66 -153 158q73 84 153 155q104 -86 121 -106q40 47 111 106q108 -90 155 -157q-61 -89 -155 -156zM479 817l133 170h61l160 -514q68 -192 88 -215q25 -31 123 -31l51 -10v-227l-51 -10h-29q-172 0 -245 141l-82 -107
q-95 -34 -305 -34q-283 0 -283 221q0 128 80 278l96 -28q-24 -86 -24 -132q0 -47 22 -63q38 -29 160 -29q123 0 310 10q-48 46 -265 580z" />
    <glyph glyph-name="uniFB84" unicode="&#x68c;" horiz-adv-x="983" arabic-form="isolated" 
d="M639 1147q-81 58 -113 104q-38 -47 -119 -104q-87 66 -153 158q73 84 153 155q106 -88 121 -108q62 68 111 108q115 -95 155 -157q-61 -89 -155 -156zM100 201q0 128 80 278l96 -28q-24 -86 -24 -132q0 -47 22 -63q38 -29 160 -29q217 0 311 15q-89 241 -321 549l120 196
h62q297 -471 297 -713q0 -37 -60 -143q-61 -105 -96 -121q-74 -30 -364 -30q-283 0 -283 221z" />
    <glyph glyph-name="uniFB85" unicode="&#x68c;" horiz-adv-x="1041" arabic-form="final" 
d="M678 1147q-71 51 -115 104q-37 -46 -117 -104q-93 68 -151 158q67 82 151 155q112 -93 119 -108q41 45 113 108q108 -90 155 -157q-61 -89 -155 -156zM479 817l133 170h61l160 -514q68 -192 88 -215q25 -31 123 -31l51 -10v-227l-51 -10h-29q-172 0 -245 141l-82 -107
q-95 -34 -305 -34q-283 0 -283 221q0 128 80 278l96 -28q-24 -86 -24 -132q0 -47 22 -63q38 -29 160 -29q123 0 310 10q-48 46 -265 580z" />
    <glyph glyph-name="uniFB86" unicode="&#x68e;" horiz-adv-x="983" arabic-form="isolated" 
d="M100 201q0 128 80 278l96 -28q-24 -86 -24 -132q0 -47 22 -63q38 -29 160 -29q217 0 311 15q-89 241 -321 549l120 196h62q297 -471 297 -713q0 -37 -60 -143q-61 -105 -96 -121q-74 -30 -364 -30q-283 0 -283 221zM399 1513q69 78 145 147q97 -76 146 -147
q-53 -80 -146 -150q-85 72 -145 150zM657 1128q-62 45 -113 102q-29 -40 -114 -102q-82 61 -150 151q80 96 150 158l114 -115l111 115q106 -88 154 -158q-62 -86 -152 -151z" />
    <glyph glyph-name="uniFB87" unicode="&#x68e;" horiz-adv-x="1039" arabic-form="final" 
d="M1013 -20q-172 0 -245 141l-82 -107q-89 -34 -305 -34q-281 0 -281 221q0 110 78 278l96 -28q-24 -86 -24 -132q0 -47 22 -63q41 -29 162 -29q158 0 278 9l-235 581l133 170h61l162 -514q63 -183 88 -215q25 -31 121 -31l51 -10v-227l-51 -10h-29zM449 1503
q69 78 145 147q97 -76 146 -147q-53 -80 -146 -150q-85 72 -145 150zM707 1118q-62 45 -113 102q-29 -40 -114 -102q-82 61 -150 151q80 96 150 158l114 -115l111 115q106 -88 154 -158q-62 -86 -152 -151z" />
    <glyph glyph-name="uniFB88" unicode="&#x688;" horiz-adv-x="983" arabic-form="isolated" 
d="M100 201q0 128 80 278l96 -28q-24 -86 -24 -132q0 -47 22 -63q38 -29 160 -29q217 0 311 15q-89 241 -321 549l120 196h62q297 -471 297 -713q0 -37 -60 -143q-61 -105 -96 -121q-74 -30 -364 -30q-283 0 -283 221zM526 1292q121 0 163 19q-31 91 -98 91q-69 0 -147 -110
h82zM618 1549q65 0 122 -77q55 -71 55 -142q0 -29 -39 -89q-35 -55 -61 -71q-65 -40 -216 -40q-71 0 -152 16l-145 111l13 48q59 -7 137 -9l10 15q-19 164 -25 292l-22 59l111 104l39 -28v-42l53 -90l-40 -46l-2 -82q0 -6 -4 -21q89 92 166 92z" />
    <glyph glyph-name="uniFB89" unicode="&#x688;" horiz-adv-x="1041" arabic-form="final" 
d="M479 817l133 170h61l160 -514q68 -192 88 -215q25 -31 123 -31l51 -10v-227l-51 -10h-29q-172 0 -245 141l-82 -107q-95 -34 -305 -34q-283 0 -283 221q0 128 80 278l96 -28q-24 -86 -24 -132q0 -47 22 -63q38 -29 160 -29q123 0 310 10q-48 46 -265 580zM596 1292
q121 0 163 19q-31 91 -98 91q-69 0 -147 -110h82zM688 1549q65 0 122 -77q55 -71 55 -142q0 -29 -39 -89q-35 -55 -61 -71q-65 -40 -216 -40q-71 0 -152 16l-145 111l13 48q59 -7 137 -9l10 15q-19 164 -25 292l-22 59l111 104l39 -28v-42l53 -90l-40 -46l-2 -82
q0 -6 -4 -21q89 92 166 92z" />
    <glyph glyph-name="uniFB8A" unicode="&#x698;" horiz-adv-x="831" arabic-form="isolated" 
d="M175 -342q-132 72 -172 106l37 89q129 -31 186 -31q141 0 258 127q92 104 133 225l-208 412l147 184h59q133 -405 133 -451v-2q3 -8 3 -237q-7 -127 -121 -301q-133 -195 -273 -195q-41 0 -182 74zM351 1298q69 78 146 148q99 -78 143 -148q-55 -82 -143 -149
q-80 65 -146 149zM607 913q-66 49 -110 101q-35 -41 -117 -101q-82 62 -150 152q80 96 150 158q115 -115 115 -117q73 74 110 117q106 -88 154 -158q-59 -87 -152 -152z" />
    <glyph glyph-name="uniFB8B" unicode="&#x698;" horiz-adv-x="907" arabic-form="final" 
d="M396 1204q70 78 146 148q97 -77 145 -148q-53 -79 -145 -149q-80 65 -146 149zM654 819q-67 48 -112 103q-30 -40 -115 -103q-89 65 -148 154q68 85 148 155l115 -114l110 114q111 -91 154 -157q-62 -87 -152 -152zM445 477l146 174h55l51 -211q36 -141 68 -176
q34 -37 145 -37l51 -10v-227l-51 -10h-26q-105 0 -174 63q-10 -108 -103 -264q-117 -195 -262 -195q-41 0 -176 74q-123 69 -166 106l37 89q111 -29 172 -29q250 0 382 373q-28 8 -149 280z" />
    <glyph glyph-name="uniFB8C" unicode="&#x691;" horiz-adv-x="831" arabic-form="isolated" 
d="M526 1072q121 0 163 19q-31 91 -98 91q-69 0 -147 -110h82zM618 1329q65 0 122 -77q55 -71 55 -142q0 -29 -39 -89q-35 -55 -61 -71q-65 -40 -216 -40q-71 0 -152 16l-145 111l13 48q59 -7 137 -9l10 15q-19 164 -25 292l-22 59l111 104l39 -28v-42l53 -90l-40 -46
l-2 -82q0 -6 -4 -21q89 92 166 92zM175 -342q-132 72 -172 106l37 89q129 -31 186 -31q141 0 258 127q92 104 133 225l-208 412l147 184h59q133 -405 133 -451v-2q3 -8 3 -237q-7 -127 -121 -301q-133 -195 -273 -195q-41 0 -182 74z" />
    <glyph glyph-name="uniFB8D" unicode="&#x691;" horiz-adv-x="907" arabic-form="final" 
d="M445 477l146 174h55l51 -211q36 -141 68 -176q34 -37 145 -37l51 -10v-227l-51 -10h-26q-105 0 -174 63q-10 -108 -103 -264q-117 -195 -262 -195q-41 0 -176 74q-123 69 -166 106l37 89q111 -29 172 -29q250 0 382 373q-28 8 -149 280zM566 972q121 0 163 19
q-31 91 -98 91q-69 0 -147 -110h82zM658 1229q65 0 122 -77q55 -71 55 -142q0 -29 -39 -89q-35 -55 -61 -71q-65 -40 -216 -40q-71 0 -152 16l-145 111l13 48q59 -7 137 -9l10 15q-19 164 -25 292l-22 59l111 104l39 -28v-42l53 -90l-40 -46l-2 -82q0 -6 -4 -21
q89 92 166 92z" />
    <glyph glyph-name="uniFB8E" unicode="&#x6a9;" horiz-adv-x="1617" arabic-form="isolated" 
d="M100 365q0 212 174 469l92 -48q-88 -194 -88 -301q0 -258 408 -258q479 0 651 13q-50 133 -406 354l-34 -35l-176 125q-9 7 -9 30q0 40 27 130q43 139 72 151l716 414l41 -31l-43 -227l-573 -293q247 -134 408 -313q137 -150 137 -254q0 -28 -60 -137q-60 -106 -90 -129
q-75 -45 -700 -45q-547 0 -547 385z" />
    <glyph glyph-name="uniFB8F" unicode="&#x6a9;" horiz-adv-x="1793" arabic-form="final" 
d="M1796 -20h-35q-151 0 -248 65q-59 42 -160 164q-96 -178 -141 -193q-83 -36 -567 -36q-545 0 -545 389q0 197 170 456l88 -51q-86 -193 -86 -299q0 -248 412 -248q372 0 532 13v10q0 81 -88 213l-197 287q-5 8 -5 22q0 36 28 113q40 111 66 121l626 413l41 -33l-43 -223
l-504 -317q54 -78 226 -322q125 -179 202 -235q83 -62 193 -62h35l51 -10v-227z" />
    <glyph glyph-name="uniFB90" unicode="&#x6a9;" horiz-adv-x="960" arabic-form="initial" 
d="M-2 -20l-51 10v227l51 10h311q305 0 367 17q-58 136 -401 350l-37 -35l-174 125q-9 7 -9 30q0 40 27 130q40 139 68 151l717 414l45 -29l-43 -229l-574 -293q244 -134 408 -313q135 -151 135 -254q0 -32 -45 -131q-46 -104 -76 -127q-69 -53 -432 -53h-287z" />
    <glyph glyph-name="uniFB91" unicode="&#x6a9;" horiz-adv-x="925" arabic-form="medial" 
d="M-2 -20l-51 10v227l51 10h125q181 0 227 13v12q0 81 -88 211l-196 287q-5 8 -5 23q0 36 27 112q41 111 66 121l622 413l45 -33l-43 -223l-503 -317q53 -78 225 -322q126 -179 203 -235q83 -62 192 -62h33l51 -10v-227l-51 -10h-33q-151 0 -248 65q-61 41 -163 168
q-101 -184 -144 -199q-73 -34 -264 -34h-78z" />
    <glyph glyph-name="uniFB92" unicode="&#x6af;" horiz-adv-x="1617" arabic-form="isolated" 
d="M755 1227l729 407l23 -30l-12 -103l-731 -407l-19 32zM100 365q0 212 174 469l92 -48q-88 -194 -88 -301q0 -258 408 -258q479 0 651 13q-50 133 -406 354l-34 -35l-176 125q-9 7 -9 30q0 40 27 130q43 139 72 151l716 414l41 -31l-43 -227l-573 -293q247 -134 408 -313
q137 -150 137 -254q0 -28 -60 -137q-60 -106 -90 -129q-75 -45 -700 -45q-547 0 -547 385z" />
    <glyph glyph-name="uniFB93" unicode="&#x6af;" horiz-adv-x="1793" arabic-form="final" 
d="M919 1202l711 455l20 -35l-12 -100l-709 -455l-20 35zM1796 -20h-35q-151 0 -248 65q-59 42 -160 164q-96 -178 -141 -193q-83 -36 -567 -36q-545 0 -545 389q0 197 170 456l88 -51q-86 -193 -86 -299q0 -248 412 -248q372 0 532 13v10q0 81 -88 213l-197 287q-5 8 -5 22
q0 36 28 113q40 111 66 121l626 413l41 -33l-43 -223l-504 -317q54 -78 226 -322q125 -179 202 -235q83 -62 193 -62h35l51 -10v-227z" />
    <glyph glyph-name="uniFB94" unicode="&#x6af;" horiz-adv-x="960" arabic-form="initial" 
d="M94 1227l736 407l18 -32l-12 -101l-729 -407l-19 32zM-2 -20l-51 10v227l51 10h311q305 0 367 17q-58 136 -401 350l-37 -35l-174 125q-9 7 -9 30q0 40 27 130q40 139 68 151l717 414l45 -29l-43 -229l-574 -293q244 -134 408 -313q135 -151 135 -254q0 -32 -45 -131
q-46 -104 -76 -127q-69 -53 -432 -53h-287z" />
    <glyph glyph-name="uniFB95" unicode="&#x6af;" horiz-adv-x="925" arabic-form="medial" 
d="M51 1202l711 455l21 -35l-13 -100l-708 -455l-21 35zM-2 -20l-51 10v227l51 10h125q181 0 227 13v12q0 81 -88 211l-196 287q-5 8 -5 23q0 36 27 112q41 111 66 121l622 413l45 -33l-43 -223l-503 -317q53 -78 225 -322q126 -179 203 -235q83 -62 192 -62h33l51 -10v-227
l-51 -10h-33q-151 0 -248 65q-61 41 -163 168q-101 -184 -144 -199q-73 -34 -264 -34h-78z" />
    <glyph glyph-name="uniFB96" unicode="&#x6b3;" horiz-adv-x="1617" arabic-form="isolated" 
d="M755 1227l729 407l23 -30l-12 -103l-731 -407l-19 32zM100 365q0 212 174 469l92 -48q-88 -194 -88 -301q0 -258 408 -258q479 0 651 13q-50 133 -406 354l-34 -35l-176 125q-9 7 -9 30q0 40 27 130q43 139 72 151l716 414l41 -31l-43 -227l-573 -293q247 -134 408 -313
q137 -150 137 -254q0 -28 -60 -137q-60 -106 -90 -129q-75 -45 -700 -45q-547 0 -547 385zM647 -528q91 110 108 118q-49 43 -108 113q89 108 160 154q89 -59 153 -154q-51 -70 -104 -115q46 -37 104 -116q-66 -94 -153 -152q-90 69 -160 152z" />
    <glyph glyph-name="uniFB97" unicode="&#x6b3;" horiz-adv-x="1793" arabic-form="final" 
d="M919 1202l711 455l20 -35l-12 -100l-709 -455l-20 35zM1796 -20h-35q-151 0 -248 65q-59 42 -160 164q-96 -178 -141 -193q-83 -36 -567 -36q-545 0 -545 389q0 197 170 456l88 -51q-86 -193 -86 -299q0 -248 412 -248q372 0 532 13v10q0 81 -88 213l-197 287q-5 8 -5 22
q0 36 28 113q40 111 66 121l626 413l41 -33l-43 -223l-504 -317q54 -78 226 -322q125 -179 202 -235q83 -62 193 -62h35l51 -10v-227zM647 -528q91 110 108 118q-49 43 -108 113q89 108 160 154q89 -59 153 -154q-51 -70 -104 -115q46 -37 104 -116q-66 -94 -153 -152
q-90 69 -160 152z" />
    <glyph glyph-name="uniFB98" unicode="&#x6b3;" horiz-adv-x="960" arabic-form="initial" 
d="M94 1227l736 407l18 -32l-12 -101l-729 -407l-19 32zM-2 -20l-51 10v227l51 10h311q305 0 367 17q-58 136 -401 350l-37 -35l-174 125q-9 7 -9 30q0 40 27 130q40 139 68 151l717 414l45 -29l-43 -229l-574 -293q244 -134 408 -313q135 -151 135 -254q0 -32 -45 -131
q-46 -104 -76 -127q-69 -53 -432 -53h-287zM202 -528q91 110 108 118q-49 43 -108 113q89 108 160 154q89 -59 153 -154q-51 -70 -104 -115q46 -37 104 -116q-66 -94 -153 -152q-90 69 -160 152z" />
    <glyph glyph-name="uniFB99" unicode="&#x6b3;" horiz-adv-x="925" arabic-form="medial" 
d="M51 1202l711 455l21 -35l-13 -100l-708 -455l-21 35zM-2 -20l-51 10v227l51 10h125q181 0 227 13v12q0 81 -88 211l-196 287q-5 8 -5 23q0 36 27 112q41 111 66 121l622 413l45 -33l-43 -223l-503 -317q53 -78 225 -322q126 -179 203 -235q83 -62 192 -62h33l51 -10v-227
l-51 -10h-33q-151 0 -248 65q-61 41 -163 168q-101 -184 -144 -199q-73 -34 -264 -34h-78zM202 -528q91 110 108 118q-49 43 -108 113q89 108 160 154q89 -59 153 -154q-51 -70 -104 -115q46 -37 104 -116q-66 -94 -153 -152q-90 69 -160 152z" />
    <glyph glyph-name="uniFB9A" unicode="&#x6b1;" horiz-adv-x="1617" arabic-form="isolated" 
d="M755 1227l729 407l23 -30l-12 -103l-731 -407l-19 32zM100 365q0 212 174 469l92 -48q-88 -194 -88 -301q0 -258 408 -258q479 0 651 13q-50 133 -406 354l-34 -35l-176 125q-9 7 -9 30q0 40 27 130q43 139 72 151l716 414l41 -31l-43 -227l-573 -293q247 -134 408 -313
q137 -150 137 -254q0 -28 -60 -137q-60 -106 -90 -129q-75 -45 -700 -45q-547 0 -547 385zM1097 1475q-66 49 -110 101q-35 -41 -117 -101q-82 62 -150 152q80 96 150 158q115 -115 115 -117q73 74 110 117q106 -88 154 -158q-59 -87 -152 -152z" />
    <glyph glyph-name="uniFB9B" unicode="&#x6b1;" horiz-adv-x="1793" arabic-form="final" 
d="M919 1202l711 455l20 -35l-12 -100l-709 -455l-20 35zM1796 -20h-35q-151 0 -248 65q-59 42 -160 164q-96 -178 -141 -193q-83 -36 -567 -36q-545 0 -545 389q0 197 170 456l88 -51q-86 -193 -86 -299q0 -248 412 -248q372 0 532 13v10q0 81 -88 213l-197 287q-5 8 -5 22
q0 36 28 113q40 111 66 121l626 413l41 -33l-43 -223l-504 -317q54 -78 226 -322q125 -179 202 -235q83 -62 193 -62h35l51 -10v-227zM1237 1475q-66 49 -110 101q-35 -41 -117 -101q-82 62 -150 152q80 96 150 158q115 -115 115 -117q73 74 110 117q106 -88 154 -158
q-59 -87 -152 -152z" />
    <glyph glyph-name="uniFB9C" unicode="&#x6b1;" horiz-adv-x="960" arabic-form="initial" 
d="M94 1227l736 407l18 -32l-12 -101l-729 -407l-19 32zM-2 -20l-51 10v227l51 10h311q305 0 367 17q-58 136 -401 350l-37 -35l-174 125q-9 7 -9 30q0 40 27 130q40 139 68 151l717 414l45 -29l-43 -229l-574 -293q244 -134 408 -313q135 -151 135 -254q0 -32 -45 -131
q-46 -104 -76 -127q-69 -53 -432 -53h-287zM417 1475q-66 49 -110 101q-35 -41 -117 -101q-82 62 -150 152q80 96 150 158q115 -115 115 -117q73 74 110 117q106 -88 154 -158q-59 -87 -152 -152z" />
    <glyph glyph-name="uniFB9D" unicode="&#x6b1;" horiz-adv-x="925" arabic-form="medial" 
d="M51 1202l711 455l21 -35l-13 -100l-708 -455l-21 35zM-2 -20l-51 10v227l51 10h125q181 0 227 13v12q0 81 -88 211l-196 287q-5 8 -5 23q0 36 27 112q41 111 66 121l622 413l45 -33l-43 -223l-503 -317q53 -78 225 -322q126 -179 203 -235q83 -62 192 -62h33l51 -10v-227
l-51 -10h-33q-151 0 -248 65q-61 41 -163 168q-101 -184 -144 -199q-73 -34 -264 -34h-78zM407 1475q-66 49 -110 101q-35 -41 -117 -101q-82 62 -150 152q80 96 150 158q115 -115 115 -117q73 74 110 117q106 -88 154 -158q-59 -87 -152 -152z" />
    <glyph glyph-name="uniFB9E" unicode="&#x6ba;" horiz-adv-x="1204" arabic-form="isolated" 
d="M100 -39q0 209 174 469l86 -43q-82 -191 -82 -305q0 -246 309 -246q218 0 367 82q-19 217 -129 588l162 149h61q76 -323 76 -590q0 -45 -2 -88q-3 -40 -57 -143q-48 -87 -72 -110q-139 -140 -449 -140q-444 0 -444 377z" />
    <glyph glyph-name="uniFB9F" unicode="&#x6ba;" horiz-adv-x="1314" arabic-form="final" 
d="M100 -39q0 209 174 469l86 -43q-82 -191 -82 -305q0 -246 309 -246q212 0 367 82l-74 565l164 127h62l10 -172q9 -133 33 -166q33 -45 168 -45l51 -10v-227l-51 -10q-159 0 -189 45v-13q-58 -218 -135 -288q-139 -140 -449 -140q-444 0 -444 377z" />
    <glyph glyph-name="uniFBA0" unicode="&#x6bb;" horiz-adv-x="1204" arabic-form="isolated" 
d="M100 -39q0 209 174 469l86 -43q-82 -191 -82 -305q0 -246 310 -246q217 0 366 82q-18 217 -129 588l162 149h61q76 -323 76 -590q0 -45 -2 -88q-3 -40 -57 -143q-48 -87 -72 -110q-139 -140 -448 -140q-445 0 -445 377zM599 786q121 0 163 19q-31 91 -98 91
q-69 0 -147 -110h82zM691 1043q65 0 122 -77q55 -71 55 -142q0 -29 -39 -89q-35 -55 -61 -71q-65 -40 -216 -40q-71 0 -152 16l-145 111l13 48q59 -7 137 -9l10 15q-19 164 -25 292l-22 59l111 104l39 -28v-42l53 -90l-40 -46l-2 -82q0 -6 -4 -21q89 92 166 92z" />
    <glyph glyph-name="uniFBA1" unicode="&#x6bb;" horiz-adv-x="1314" arabic-form="final" 
d="M100 -39q0 209 174 469l86 -43q-82 -191 -82 -305q0 -246 309 -246q212 0 367 82l-74 565l164 127h62l10 -172q9 -133 33 -166q33 -45 168 -45l51 -10v-227l-51 -10q-159 0 -189 45v-13q-58 -218 -135 -288q-139 -140 -449 -140q-444 0 -444 377zM599 786q121 0 163 19
q-31 91 -98 91q-69 0 -147 -110h82zM691 1043q65 0 122 -77q55 -71 55 -142q0 -29 -39 -89q-35 -55 -61 -71q-65 -40 -216 -40q-71 0 -152 16l-145 111l13 48q59 -7 137 -9l10 15q-19 164 -25 292l-22 59l111 104l39 -28v-42l53 -90l-40 -46l-2 -82q0 -6 -4 -21
q89 92 166 92z" />
    <glyph glyph-name="uniFBA2" unicode="&#x6bb;" horiz-adv-x="623" arabic-form="initial" 
d="M-53 -10v227l51 10q262 0 311 13q-20 164 -96 452l154 152h57l88 -246l-2 -35l-47 -47q17 -114 17 -188q0 -30 -3 -54q-3 -41 -67 -143q-62 -94 -107 -125q-62 -26 -305 -26zM354 1184q121 0 163 19q-31 91 -98 91q-69 0 -147 -110h82zM446 1441q65 0 122 -77
q55 -71 55 -142q0 -29 -39 -89q-35 -55 -61 -71q-65 -40 -216 -40q-71 0 -152 16l-145 111l13 48q59 -7 137 -9l10 15q-19 164 -25 292l-22 59l111 104l39 -28v-42l53 -90l-40 -46l-2 -82q0 -6 -4 -21q89 92 166 92z" />
    <glyph glyph-name="uniFBA3" unicode="&#x6bb;" horiz-adv-x="610" arabic-form="medial" 
d="M613 -20h-17q-227 0 -319 122q-67 -82 -97 -98q-52 -24 -182 -24l-51 10v227l51 10q137 0 189 15q13 70 71 327l142 95l55 -17q-21 -311 -45 -387q45 -33 203 -33l51 -10v-227zM354 994q121 0 163 19q-31 91 -98 91q-69 0 -147 -110h82zM446 1251q65 0 122 -77
q55 -71 55 -142q0 -29 -39 -89q-35 -55 -61 -71q-65 -40 -216 -40q-71 0 -152 16l-145 111l13 48q59 -7 137 -9l10 15q-19 164 -25 292l-22 59l111 104l39 -28v-42l53 -90l-40 -46l-2 -82q0 -6 -4 -21q89 92 166 92z" />
    <glyph glyph-name="uniFBA4" unicode="&#x6c0;" horiz-adv-x="878" arabic-form="isolated" 
d="M655 256q-28 158 -217 338q-156 -155 -205 -301q71 -66 221 -66q124 0 201 29zM290 1305q0 81 53 153q58 76 148 76q82 0 119 -104q17 -46 20 -115l-66 -15q-27 52 -71 52q-57 0 -98 -35q18 -60 98 -60q70 0 172 39l26 -36l-63 -138q-134 -65 -260 -65q-33 0 -166 108
l12 62h90q-14 28 -14 78zM300 717q-16 16 -41 33l117 217h57q365 -368 365 -691q0 -36 -47 -131q-47 -87 -62 -96q-96 -69 -272 -69q-160 0 -250 83q-46 46 -61 103q-6 27 -6 60q0 56 16 132q51 160 197 349q-3 3 -13 10z" />
    <glyph glyph-name="uniFBA5" unicode="&#x6c0;" horiz-adv-x="975" arabic-form="final" 
d="M978 -20h-88q-225 0 -256 215l-61 -97q-74 -20 -154 -20q-240 0 -311 145q-8 16 -8 54q0 26 4 63q12 85 32 111q106 159 439 340l-7 83l164 119h64v-649q0 -88 14 -102q12 -15 90 -15h78l51 -10v-227zM587 590q-240 -109 -332 -213q60 -58 225 -58q59 0 127 11zM362 1282
q0 82 53 154q57 75 147 75q82 0 119 -104q15 -46 19 -113l-64 -16q-28 53 -72 53q-57 0 -98 -35q19 -59 98 -59q74 0 172 37l27 -37l-63 -135q-135 -66 -261 -66q-32 0 -165 109l12 61h90q-14 27 -14 76z" />
    <glyph glyph-name="uniFBA6" unicode="&#x6c1;" horiz-adv-x="878" arabic-form="isolated" 
d="M167 63q-46 46 -61 103q-6 27 -6 60q0 56 16 132q51 160 197 349l1 -1q0 1 -14 13q-10 10 -39 31l115 217h57q365 -368 365 -691q0 -36 -47 -131q-47 -87 -62 -96q-96 -69 -272 -69q-160 0 -250 83zM655 256q-28 158 -217 338q-157 -157 -203 -301q65 -66 219 -66
q124 0 201 29z" />
    <glyph glyph-name="uniFBA7" unicode="&#x6c1;" horiz-adv-x="961" arabic-form="final" 
d="M964 -20q-175 0 -254 124q-56 91 -84 279q-106 -3 -283 -82q-161 -73 -268 -174l-41 49l113 248q250 182 432 182q156 0 184 -153q21 -122 43 -156q42 -70 158 -70l51 -10v-227z" />
    <glyph glyph-name="uniFBA8" unicode="&#x6c1;" horiz-adv-x="554" arabic-form="initial" 
d="M-53 -10v227l51 10q222 0 266 11q-21 175 -98 454l156 152h59l88 -246l-6 -35l-43 -45q17 -121 17 -194q0 -29 -3 -50q-6 -46 -69 -143q-63 -96 -105 -125q-62 -26 -262 -26zM266 -578q-183 78 -192 138q-1 12 -1 25q0 153 173 306l80 -59q-67 -88 -86 -158l117 -69v-37z
" />
    <glyph glyph-name="uniFBA9" unicode="&#x6c1;" horiz-adv-x="831" arabic-form="medial" 
d="M449 -143q0 101 30 178q13 31 84 102q70 70 91 76q68 14 180 14l51 -10v-227l-51 -10h-76q-124 0 -152 -7q-20 -41 -20 -116q0 -130 45 -193q2 -15 2 -31q0 -112 -102 -251h-25q-330 286 -330 579v55q-7 -9 -20 -18q-31 -18 -158 -18l-51 10v227l51 10q193 0 254 19
q30 56 78 127l152 59l24 -39q-158 -247 -158 -370q0 -143 110 -275q-9 47 -9 109zM201 -809q-184 84 -193 139q-1 12 -1 23q0 148 176 309l77 -61q-68 -89 -84 -156q95 -100 112 -113z" />
    <glyph glyph-name="uniFBAA" unicode="&#x6be;" horiz-adv-x="1323" arabic-form="isolated" 
d="M725 268q63 34 86 88q-9 96 -58 181q-45 75 -88 75q-41 0 -100 -65q-55 -61 -84 -125q75 -81 237 -158zM1079 -92q-161 0 -406 145q-135 -73 -301 -73q-37 0 -129 16l-221 192l23 52q184 -13 350 -13h24q2 -2 3 -2q0 1 -2 4l-17 21q-38 74 -38 152q0 34 7 69
q45 159 140 238l-68 34l92 211l55 13q380 -244 527 -443q125 -167 125 -377v-4q0 -47 -60 -137q-64 -98 -104 -98zM958 412q0 -127 -90 -211q127 -52 233 -62q-41 179 -143 281v-8z" />
    <glyph glyph-name="uniFBAB" unicode="&#x6be;" horiz-adv-x="1154" arabic-form="final" 
d="M948 -184q-41 202 -328 223q-68 0 -135 -23q80 -213 352 -213q80 0 111 13zM810 -438q-158 0 -280 106q-138 120 -172 314l-6 -2q-57 0 -115 12l-215 196l20 52q107 -6 306 -11q33 230 163 416q127 176 242 176q97 0 162 -153q53 -123 53 -222q0 -92 -102 -223
q-3 -3 -3 -4h1q3 1 12 8h281l51 -10v-227l-51 -10h-88q32 -30 32 -86v-5q0 -43 -49 -159q-45 -112 -67 -131q-31 -37 -175 -37zM499 229q239 13 314 133q-47 197 -119 197q-44 0 -115 -96q-74 -103 -99 -235z" />
    <glyph glyph-name="uniFBAC" unicode="&#x6be;" horiz-adv-x="1051" arabic-form="initial" 
d="M453 268q62 35 86 90q-12 96 -60 179q-42 75 -86 75q-41 0 -100 -65q-55 -61 -84 -125q75 -81 238 -158zM749 349.5q-57 80.5 -61 80.5q-2 0 -2 -10v-8q0 -125 -92 -211q129 -53 236 -62q-24 130 -81 210.5zM807 -92q-165 0 -407 147q-146 -75 -316 -75h-86l-51 10v227
l51 10h150q2 -2 3 -2q0 1 -2 4l-18 21q-38 74 -38 150q0 35 8 71q39 153 139 238l-68 34l92 211l56 13q381 -245 524 -443q127 -173 127 -377v-5q0 -46 -59 -136q-65 -98 -105 -98z" />
    <glyph glyph-name="uniFBAD" unicode="&#x6be;" horiz-adv-x="944" arabic-form="medial" 
d="M740 -184q-41 202 -330 223q-31 0 -137 -23q80 -213 354 -213q79 0 113 13zM602 -438q-158 0 -284 110q-136 118 -170 318q-89 -10 -150 -10l-51 10v227l51 10l139 2q34 232 164 416q127 176 242 176q97 0 162 -153q53 -123 53 -222q0 -94 -102 -225l6 6h284l52 -10v-227
l-52 -10h-86q31 -28 31 -86v-7q0 -47 -47 -157q-48 -112 -68 -131q-36 -37 -174 -37zM602 362q-19 74 -57 136q-40 61 -68 61q-41 0 -102 -88q-76 -107 -104 -244q251 5 331 135z" />
    <glyph glyph-name="uniFBAE" unicode="&#x6d2;" horiz-adv-x="1535" arabic-form="isolated" 
d="M1196 -20h-582q-267 0 -413 90q-101 63 -101 123q0 30 41 131q45 104 70 118q646 432 710 432q45 0 91 -75q37 -61 37 -102q0 -7 -1 -13l-47 -235l-61 -7l-53 181q-158 -100 -598 -344q63 -52 444 -52h752v-63z" />
    <glyph glyph-name="uniFBAF" unicode="&#x6d2;" horiz-adv-x="1313" arabic-form="final" 
d="M635 -549q-414 0 -499 174q-36 84 -36 157q0 33 7 64q34 117 191 234q199 147 456 147h561l52 -10v-227l-52 -10h-594q-342 0 -493 -220q98 -61 526 -61h463v-66l-301 -182h-281z" />
    <glyph glyph-name="uniFBB0" unicode="&#x6d3;" horiz-adv-x="1535" arabic-form="isolated" 
d="M1196 -20h-582q-267 0 -413 90q-101 63 -101 123q0 30 41 131q45 104 70 118q646 432 710 432q45 0 91 -75q37 -61 37 -102q0 -7 -1 -13l-47 -235l-61 -7l-53 181q-158 -100 -598 -344q63 -52 444 -52h752v-63zM387 1130q0 83 55 154q58 76 148 76q83 0 116 -105
q18 -45 21 -114l-62 -13q-36 50 -73 50q-63 0 -101 -35q19 -60 101 -60q68 0 170 39l24 -37l-59 -135q-135 -67 -262 -67q-34 0 -166 110l14 62h88q-14 27 -14 75z" />
    <glyph glyph-name="uniFBB1" unicode="&#x6d3;" horiz-adv-x="1313" arabic-form="final" 
d="M635 -549q-414 0 -499 174q-36 84 -36 157q0 33 7 64q34 117 191 234q199 147 456 147h561l52 -10v-227l-52 -10h-594q-342 0 -493 -220q98 -61 526 -61h463v-66l-301 -182h-281zM369 608q0 82 53 154q58 76 148 76q82 0 119 -105q17 -43 20 -112l-65 -15q-27 51 -72 51
q-57 0 -98 -34q18 -60 98 -60q74 0 172 37l27 -37l-64 -135q-134 -66 -260 -66q-33 0 -166 109l12 61h90q-14 27 -14 76z" />
    <glyph glyph-name="uniFBD3" unicode="&#x6ad;" horiz-adv-x="1591" arabic-form="isolated" 
d="M100 365q0 212 174 469l92 -48q-88 -194 -88 -301q0 -258 408 -258q318 0 536 19l-22 868l-62 158l215 207l62 -39v-109l96 -176l-98 -104v-695q0 -69 -82 -196q-80 -127 -131 -148q-140 -32 -553 -32q-547 0 -547 385zM727 674q-117 27 -117 102q0 90 88 166
q74 65 205 100l22 -26v-160q-144 -30 -166 -41l95 -18q108 -28 108 -123q0 -72 -63 -129q-34 -34 -217 -49l-162 110v45q175 8 249 13q-18 4 -42 10zM1140 1984q69 78 146 148q99 -78 143 -148q-55 -82 -143 -149q-80 65 -146 149zM1396 1599q-66 49 -110 101
q-35 -41 -117 -101q-82 62 -150 152q80 96 150 158q115 -115 115 -117q73 74 110 117q106 -88 154 -158q-59 -87 -152 -152z" />
    <glyph glyph-name="uniFBD4" unicode="&#x6ad;" horiz-adv-x="1584" arabic-form="final" 
d="M1587 -20q-259 0 -318 176l-67 -113q-139 -63 -555 -63q-547 0 -547 385q0 212 174 469l92 -48q-88 -194 -88 -301q0 -258 408 -258q342 0 532 37l-26 1061l155 148h66v-1020q0 -138 20 -170q31 -56 154 -56l51 -10v-227zM725 674q-117 27 -117 102q0 90 88 166
q74 65 205 100l22 -26v-160q-144 -30 -166 -41q56 -9 95 -18q108 -28 108 -123q0 -68 -61 -129q-34 -34 -219 -49l-160 110v45q174 8 248 13q-19 4 -43 10zM1140 1984q69 78 146 148q99 -78 143 -148q-55 -82 -143 -149q-80 65 -146 149zM1396 1599q-66 49 -110 101
q-35 -41 -117 -101q-82 62 -150 152q80 96 150 158q115 -115 115 -117q73 74 110 117q106 -88 154 -158q-59 -87 -152 -152z" />
    <glyph glyph-name="uniFBD5" unicode="&#x6ad;" horiz-adv-x="960" arabic-form="initial" 
d="M-2 -20l-51 10v227l51 10h311q305 0 367 17q-58 136 -401 350l-37 -35l-174 125q-9 7 -9 30q0 40 27 130q40 139 68 151l717 414l45 -29l-43 -229l-574 -293q244 -134 408 -313q135 -151 135 -254q0 -32 -45 -131q-46 -104 -76 -127q-69 -53 -432 -53h-287zM216 1752
q69 78 146 148q99 -78 143 -148q-55 -82 -143 -149q-80 65 -146 149zM472 1367q-66 49 -110 101q-35 -41 -117 -101q-82 62 -150 152q80 96 150 158q115 -115 115 -117q73 74 110 117q106 -88 154 -158q-59 -87 -152 -152z" />
    <glyph glyph-name="uniFBD6" unicode="&#x6ad;" horiz-adv-x="925" arabic-form="medial" 
d="M-2 -20l-51 10v227l51 10h125q181 0 227 13v12q0 81 -88 211l-196 287q-5 8 -5 23q0 36 27 112q41 111 66 121l622 413l45 -33l-43 -223l-503 -317q53 -78 225 -322q126 -179 203 -235q83 -62 192 -62h33l51 -10v-227l-51 -10h-33q-151 0 -248 65q-61 41 -163 168
q-101 -184 -144 -199q-73 -34 -264 -34h-78zM176 1752q69 78 146 148q99 -78 143 -148q-55 -82 -143 -149q-80 65 -146 149zM432 1367q-66 49 -110 101q-35 -41 -117 -101q-82 62 -150 152q80 96 150 158q115 -115 115 -117q73 74 110 117q106 -88 154 -158
q-59 -87 -152 -152z" />
    <glyph glyph-name="uniFBD7" unicode="&#x6c7;" horiz-adv-x="920" arabic-form="isolated" 
d="M662 244q-74 291 -201 291q-66 0 -127 -86q-57 -81 -76 -179q51 -45 201 -45q120 0 203 19zM250 -340q-134 75 -170 109l37 88q128 -33 205 -33q275 0 376 225l-6 57l-53 -88q-78 -38 -199 -38q-161 0 -237 94q-66 96 -66 211q7 164 101 313q113 178 268 178
q143 0 242 -194q92 -182 92 -418q0 -74 -17 -172q-33 -160 -135 -277q-113 -131 -256 -131q-43 0 -182 76zM583 1194l3 23q0 51 -31 51q-18 0 -45 -17q-17 -13 -21 -13q37 -30 94 -44zM666 1028q-52 3 -74 12q-89 -86 -215 -104l-145 80l10 49q183 9 223 27q-41 22 -59 67
q-6 34 -6 60q0 37 12 59q56 127 168 127q57 0 90 -57q27 -45 27 -103q0 -46 -13 -74l50 -10v-41z" />
    <glyph glyph-name="uniFBD8" unicode="&#x6c7;" horiz-adv-x="933" arabic-form="final" 
d="M250 -340q-134 75 -170 109l37 88q128 -33 205 -33q266 0 360 156h-180q-226 0 -297 92q-68 110 -68 213q7 164 101 313q113 178 268 178q136 0 233 -186q87 -165 97 -363h100l51 -10v-227l-51 -10h-123q-27 -144 -123 -261q-113 -135 -258 -135q-43 0 -182 76zM594 428
q-67 107 -133 107q-68 0 -129 -89q-59 -83 -74 -176q65 -43 244 -43h177q-26 111 -85 201zM583 1194l3 23q0 51 -31 51q-18 0 -45 -17q-17 -13 -21 -13q37 -30 94 -44zM666 1028q-52 3 -74 12q-89 -86 -215 -104l-145 80l10 49q183 9 223 27q-41 22 -59 67q-6 34 -6 60
q0 37 12 59q56 127 168 127q57 0 90 -57q27 -45 27 -103q0 -46 -13 -74l50 -10v-41z" />
    <glyph glyph-name="uniFBD9" unicode="&#x6c6;" horiz-adv-x="920" arabic-form="isolated" 
d="M422 956l-14 19q-44 124 -191 237l78 154l31 10q121 -112 164 -227q25 78 145 223l37 -6l59 -127q-135 -145 -180 -283h-129zM662 244q-74 291 -201 291q-66 0 -127 -86q-57 -81 -76 -179q51 -45 201 -45q120 0 203 19zM250 -340q-134 75 -170 109l37 88q128 -33 205 -33
q275 0 376 225l-6 57l-53 -88q-78 -38 -199 -38q-161 0 -237 94q-66 96 -66 211q7 164 101 313q113 178 268 178q143 0 242 -194q92 -182 92 -418q0 -74 -17 -172q-33 -160 -135 -277q-113 -131 -256 -131q-43 0 -182 76z" />
    <glyph glyph-name="uniFBDA" unicode="&#x6c6;" horiz-adv-x="933" arabic-form="final" 
d="M422 956l-14 19q-44 124 -191 237l78 154l31 10q121 -112 164 -227q25 78 145 223l37 -6l59 -127q-135 -145 -180 -283h-129zM250 -340q-134 75 -170 109l37 88q128 -33 205 -33q266 0 360 156h-180q-226 0 -297 92q-68 110 -68 213q7 164 101 313q113 178 268 178
q136 0 233 -186q87 -165 97 -363h100l51 -10v-227l-51 -10h-123q-27 -144 -123 -261q-113 -135 -258 -135q-43 0 -182 76zM594 428q-67 107 -133 107q-68 0 -129 -89q-59 -83 -74 -176q65 -43 244 -43h177q-26 111 -85 201z" />
    <glyph glyph-name="uniFBDB" unicode="&#x6c8;" horiz-adv-x="920" arabic-form="isolated" 
d="M662 244q-74 291 -201 291q-66 0 -127 -86q-57 -81 -76 -179q51 -45 201 -45q120 0 203 19zM250 -340q-134 75 -170 109l37 88q128 -33 205 -33q275 0 376 225l-6 57l-53 -88q-78 -38 -199 -38q-161 0 -237 94q-66 96 -66 211q7 164 101 313q113 178 268 178
q143 0 242 -194q92 -182 92 -418q0 -74 -17 -172q-33 -160 -135 -277q-113 -131 -256 -131q-43 0 -182 76zM536 1358l37 -19l-27 -362l-84 -41h-45v371z" />
    <glyph glyph-name="uniFBDC" unicode="&#x6c8;" horiz-adv-x="933" arabic-form="final" 
d="M250 -340q-134 75 -170 109l37 88q128 -33 205 -33q266 0 360 156h-180q-226 0 -297 92q-68 110 -68 213q7 164 101 313q113 178 268 178q136 0 233 -186q87 -165 97 -363h100l51 -10v-227l-51 -10h-123q-27 -144 -123 -261q-113 -135 -258 -135q-43 0 -182 76zM594 428
q-67 107 -133 107q-68 0 -129 -89q-59 -83 -74 -176q65 -43 244 -43h177q-26 111 -85 201zM536 1358l37 -19l-27 -362l-84 -41h-45v371z" />
    <glyph glyph-name="uniFBDD" unicode="&#x677;" horiz-adv-x="1126" arabic-form="isolated" 
d="M662 244q-74 291 -201 291q-66 0 -127 -86q-57 -81 -76 -179q51 -45 201 -45q120 0 203 19zM250 -340q-134 75 -170 109l37 88q128 -33 205 -33q275 0 376 225l-6 57l-53 -88q-78 -38 -199 -38q-161 0 -237 94q-66 96 -66 211q7 164 101 313q113 178 268 178
q143 0 242 -194q92 -182 92 -418q0 -74 -17 -172q-33 -160 -135 -277q-113 -131 -256 -131q-43 0 -182 76zM687 1157q0 83 55 154q58 75 148 75q83 0 117 -104q17 -43 20 -113l-61 -14q-37 49 -74 49q-62 0 -100 -35q18 -57 100 -57q72 0 170 37l24 -37l-59 -135
q-134 -66 -260 -66q-35 0 -168 109l14 61h90q-16 28 -16 76zM423 1194l3 23q0 51 -31 51q-18 0 -45 -17q-17 -13 -21 -13q37 -30 94 -44zM506 1028q-52 3 -74 12q-89 -86 -215 -104l-145 80l10 49q183 9 223 27q-41 22 -59 67q-6 34 -6 60q0 37 12 59q56 127 168 127
q57 0 90 -57q27 -45 27 -103q0 -46 -13 -74l50 -10v-41z" />
    <glyph glyph-name="uniFBDE" unicode="&#x6cb;" horiz-adv-x="920" arabic-form="isolated" 
d="M662 244q-74 291 -201 291q-66 0 -127 -86q-57 -81 -76 -179q51 -45 201 -45q120 0 203 19zM250 -340q-134 75 -170 109l37 88q128 -33 205 -33q275 0 376 225l-6 57l-53 -88q-78 -38 -199 -38q-161 0 -237 94q-66 96 -66 211q7 164 101 313q113 178 268 178
q143 0 242 -194q92 -182 92 -418q0 -74 -17 -172q-33 -160 -135 -277q-113 -131 -256 -131q-43 0 -182 76zM331 1340q59 68 145 146q101 -82 146 -148q-55 -81 -146 -147q-80 62 -145 149zM589 953q-58 42 -113 103q-29 -40 -115 -103q-87 63 -149 154q73 86 149 156
l115 -117q43 46 111 117q106 -88 153 -158q-62 -87 -151 -152z" />
    <glyph glyph-name="uniFBDF" unicode="&#x6cb;" horiz-adv-x="933" arabic-form="final" 
d="M250 -340q-134 75 -170 109l37 88q128 -33 205 -33q266 0 360 156h-180q-226 0 -297 92q-68 110 -68 213q7 164 101 313q113 178 268 178q136 0 233 -186q87 -165 97 -363h100l51 -10v-227l-51 -10h-123q-27 -144 -123 -261q-113 -135 -258 -135q-43 0 -182 76zM594 428
q-67 107 -133 107q-68 0 -129 -89q-59 -83 -74 -176q65 -43 244 -43h177q-26 111 -85 201zM331 1340q59 68 145 146q101 -82 146 -148q-55 -81 -146 -147q-80 62 -145 149zM589 953q-58 42 -113 103q-29 -40 -115 -103q-87 63 -149 154q73 86 149 156l115 -117
q43 46 111 117q106 -88 153 -158q-62 -87 -151 -152z" />
    <glyph glyph-name="uniFBE0" unicode="&#x6c5;" horiz-adv-x="920" arabic-form="isolated" 
d="M662 274q-74 261 -201 261q-66 0 -127 -77q-57 -73 -76 -161q51 -40 201 -40q120 0 203 17zM671 -2q15 24 27 51v91q-91 -78 -241 -80h-10q-143 0 -225 54q-85 56 -85 171q7 164 101 313q113 178 268 178q143 0 242 -194q92 -182 92 -418q0 -74 -17 -172
q-33 -160 -135 -277q-113 -131 -256 -131q-43 0 -182 76q-134 75 -170 109l37 88q128 -33 205 -33q169 0 272 86h-356l53 88h380z" />
    <glyph glyph-name="uniFBE1" unicode="&#x6c5;" horiz-adv-x="933" arabic-form="final" 
d="M662 274q-74 261 -201 261q-66 0 -127 -77q-57 -73 -76 -161q51 -40 201 -40q120 0 203 17zM838 227h98l51 -10v-227l-51 -10h-116q-34 -152 -132 -265q-113 -131 -256 -131q-43 0 -182 76q-134 75 -170 109l37 88q128 -33 205 -33q169 0 272 86h-356l53 88h380
q29 59 29 115q0 13 -2 27q-91 -78 -241 -80h-10q-143 0 -225 54q-85 56 -85 171q7 164 101 313q113 178 268 178q143 0 242 -194q80 -157 90 -355z" />
    <glyph glyph-name="uniFBE2" unicode="&#x6c9;" horiz-adv-x="920" arabic-form="isolated" 
d="M551 1376q45 -138 180 -282l-59 -127l-37 -6q-120 145 -145 223q-43 -116 -164 -228l-31 11l-78 153q147 114 191 238l14 18h129zM662 244q-74 291 -201 291q-66 0 -127 -86q-57 -81 -76 -179q51 -45 201 -45q120 0 203 19zM250 -340q-134 75 -170 109l37 88
q128 -33 205 -33q275 0 376 225l-6 57l-53 -88q-78 -38 -199 -38q-161 0 -237 94q-66 96 -66 211q7 164 101 313q113 178 268 178q143 0 242 -194q92 -182 92 -418q0 -74 -17 -172q-33 -160 -135 -277q-113 -131 -256 -131q-43 0 -182 76z" />
    <glyph glyph-name="uniFBE3" unicode="&#x6c9;" horiz-adv-x="933" arabic-form="final" 
d="M551 1376q45 -138 180 -282l-59 -127l-37 -6q-120 145 -145 223q-43 -116 -164 -228l-31 11l-78 153q147 114 191 238l14 18h129zM250 -340q-134 75 -170 109l37 88q128 -33 205 -33q266 0 360 156h-180q-226 0 -297 92q-68 110 -68 213q7 164 101 313q113 178 268 178
q136 0 233 -186q87 -165 97 -363h100l51 -10v-227l-51 -10h-123q-27 -144 -123 -261q-113 -135 -258 -135q-43 0 -182 76zM594 428q-67 107 -133 107q-68 0 -129 -89q-59 -83 -74 -176q65 -43 244 -43h177q-26 111 -85 201z" />
    <glyph glyph-name="uniFBE4" unicode="&#x6d0;" horiz-adv-x="1358" arabic-form="isolated" 
d="M196 -313q-96 102 -96 258q0 209 174 475l92 -49q-88 -179 -88 -285q0 -260 309 -260q320 0 551 125q-15 54 -217 106q-268 68 -317 164q-30 63 -30 134q0 55 18 116q32 122 174 242q161 133 340 133q53 0 112 -90q49 -77 49 -121q0 -43 -39 -232h-86l-45 205
q-298 -15 -391 -213q25 -30 258 -92q314 -89 314 -299q0 -155 -78 -240q-50 -50 -219 -114q-221 -84 -430 -84q-237 0 -355 121zM546 -909q93 112 108 119q-45 41 -108 112q91 111 158 154q87 -57 155 -154q-69 -91 -104 -114q46 -37 104 -117q-65 -89 -157 -156
q-89 76 -156 156z" />
    <glyph glyph-name="uniFBE5" unicode="&#x6d0;" horiz-adv-x="1281" arabic-form="final" 
d="M200 -371q-100 101 -100 256q0 212 174 477l92 -51q-88 -179 -88 -282q0 -260 309 -260q315 0 517 108q-53 103 -250 103h-47l-17 28l68 207l24 12h402l51 -10v-227l-51 -10h-39q6 -10 6 -48q0 -47 -35 -145q-34 -96 -63 -119q-222 -160 -602 -160q-230 0 -351 121z
M493 -999q93 112 108 119q-45 41 -108 112q91 111 158 154q87 -57 155 -154q-69 -91 -104 -114q46 -37 104 -117q-65 -89 -157 -156q-89 76 -156 156z" />
    </font>
</defs>
</svg>
