<?xml version="1.0" standalone="no"?>
<!DOCTYPE svg PUBLIC "-//W3C//DTD SVG 1.1//EN" "http://www.w3.org/Graphics/SVG/1.1/DTD/svg11.dtd" >
<svg xmlns="http://www.w3.org/2000/svg" xmlns:xlink="http://www.w3.org/1999/xlink" version="1.1">
<metadata>
Created by FontForge 20170731 at Sat Oct 15 00:16:06 2016
 By Aleksey,,,
(c)  2013 Bahij Virtual Academy. All rights reserved.
</metadata>
<defs>
<font id="BahijFedraArabic-Bold" horiz-adv-x="0" >
  <font-face 
    font-family="Bahij Fedra Arabic"
    font-weight="700"
    font-stretch="normal"
    units-per-em="2048"
    panose-1="2 4 7 3 6 2 1 2 2 3"
    ascent="1638"
    descent="-410"
    x-height="1019"
    cap-height="1319"
    bbox="-429 -1188 6193 2675"
    underline-thickness="50"
    underline-position="-150"
    unicode-range="U+0020-FEFC"
  />
<missing-glyph horiz-adv-x="728" 
d="M0 0v1020h728v-1020h-728zM117 947l247 -372l248 372h-495zM655 881l-247 -371l247 -372v743zM612 73l-248 371l-247 -371h495zM73 138l247 372l-247 371v-743z" />
    <glyph glyph-name="uniFB01" unicode="fi" horiz-adv-x="1453" 
d="M47 0q-11 52 -7 114q21 7 89 24q48 14 53 112l3 280v339h-149v116l149 34v28q0 150 176 287q169 131 332 131q401 0 401 -160q0 -118 -140 -184q-43 62 -123 123q-76 59 -108 59q-103 0 -166 -60q-58 -56 -58 -134v-90h333q186 30 329 30q97 0 97 -90v-448l4 -274
q0 -76 29 -84l123 -35q0 -73 -11 -118h-591q-9 40 -9 118l93 31q43 14 45 73l5 289v358h-447v-339l7 -288q0 -76 66 -89l135 -35q0 -79 -16 -118h-644z" />
    <glyph glyph-name="uniFB02" unicode="fl" horiz-adv-x="1438" 
d="M1407 118q0 -73 -11 -118h-610q-11 46 -8 110l111 30q44 12 44 72l6 299v676q-130 99 -241 97q-199 -6 -199 -164v-101h222v-150h-222v-339l7 -288q0 -83 88 -100l93 -24q0 -79 -17 -118h-623q-9 84 -7 114q21 7 89 24q48 14 53 112l3 280v339h-149v116l149 34v28
q0 152 170 274q163 118 347 118q118 0 220 -31q126 18 232 18q98 0 98 -90l2 -1099q5 -77 30 -84z" />
    <glyph glyph-name="uniFC31" unicode="&#xfed3;&#xfef0;" horiz-adv-x="2749" arabic-form="isolated" 
d="M2126 683q18 -32 55.5 -55t87 -41t104.5 -29t109 -19l9 -1q-7 65 -61 136.5t-161 142.5q-50 -21 -86.5 -56t-56.5 -78zM2185 1342l140 152l187 -155l-136 -158zM1706 0q-50 0 -100 16q-18 -93 -82 -171t-166.5 -135t-238.5 -89t-299 -32q-166 0 -306 35.5t-241.5 110.5
t-158.5 189.5t-57 273.5q0 140 46 308h198q-11 -68 -11 -125q0 -133 53.5 -222.5t140 -143.5t197.5 -77.5t227 -23.5q103 0 176.5 6.5t127.5 20t95 32t78 42.5q-14 51 -32 87t-37.5 66t-41 58t-44.5 59q-3 4 -6 9t-6 8l-6 6l202 187q37 -51 85 -91q43 -32 102.5 -59.5
t136.5 -27.5l115 -4h278q95 0 166 17q-101 23 -168 60t-107 84.5t-58 103.5t-18 120q0 52 27 106t71.5 104.5t99.5 92.5t112 70h224q50 -39 88.5 -88.5t65.5 -100t41 -97t14 -80.5q0 -67 -26 -146.5t-74.5 -157.5t-115 -150.5t-146.5 -128t-172.5 -89t-188.5 -33.5h-260z
" />
    <glyph glyph-name="uniFC32" unicode="&#xfed3;&#xfef2;" horiz-adv-x="2749" arabic-form="isolated" 
d="M461 -629l141 153l179 -147l131 142l186 -155l-136 -158l-183 154l-127 -149zM2126 683q18 -32 55.5 -55t87 -41t104.5 -29t109 -19l9 -1q-7 65 -61 136.5t-161 142.5q-50 -21 -86.5 -56t-56.5 -78zM2185 1342l140 152l187 -155l-136 -158zM1706 0q-50 0 -100 16
q-18 -93 -82 -171t-166.5 -135t-238.5 -89t-299 -32q-166 0 -306 35.5t-241.5 110.5t-158.5 189.5t-57 273.5q0 140 46 308h198q-11 -68 -11 -125q0 -133 53.5 -222.5t140 -143.5t197.5 -77.5t227 -23.5q103 0 176.5 6.5t127.5 20t95 32t78 42.5q-14 51 -32 87t-37.5 66
t-41 58t-44.5 59q-3 4 -6 9t-6 8l-6 6l202 187q37 -51 85 -91q43 -32 102.5 -59.5t136.5 -27.5l115 -4h278q95 0 166 17q-101 23 -168 60t-107 84.5t-58 103.5t-18 120q0 52 27 106t71.5 104.5t99.5 92.5t112 70h224q50 -39 88.5 -88.5t65.5 -100t41 -97t14 -80.5
q0 -67 -26 -146.5t-74.5 -157.5t-115 -150.5t-146.5 -128t-172.5 -89t-188.5 -33.5h-260z" />
    <glyph glyph-name="uniFC43" unicode="&#xfedf;&#xfef0;" horiz-adv-x="2440" arabic-form="isolated" 
d="M1702 0q-48 1 -96 16q-18 -93 -82 -171t-166.5 -135t-238.5 -89t-299 -32q-166 0 -306 35.5t-241.5 110.5t-158.5 189.5t-57 273.5q0 140 46 308h198q-11 -68 -11 -125q0 -133 53.5 -222.5t140 -143.5t197.5 -77.5t227 -23.5q103 0 176.5 6.5t127.5 20t95 32t78 42.5
q-14 51 -32 87t-37.5 66t-41 58t-44.5 59q-3 4 -6 9t-6 8l-6 6l202 187q37 -51 85 -91q43 -32 102.5 -59.5t136.5 -27.5h87q45 0 88.5 10.5t76.5 34.5t52.5 63.5t19.5 96.5l-32 933l301 44l-18 -1033q-2 -115 -40.5 -201.5t-103 -145.5t-152 -89t-190.5 -30h-125z" />
    <glyph glyph-name="uniFC44" unicode="&#xfedf;&#xfef2;" horiz-adv-x="2440" arabic-form="isolated" 
d="M461 -629l141 153l179 -147l131 142l186 -155l-136 -158l-183 154l-127 -149zM1702 0q-48 1 -96 16q-18 -93 -82 -171t-166.5 -135t-238.5 -89t-299 -32q-166 0 -306 35.5t-241.5 110.5t-158.5 189.5t-57 273.5q0 140 46 308h198q-11 -68 -11 -125q0 -133 53.5 -222.5
t140 -143.5t197.5 -77.5t227 -23.5q103 0 176.5 6.5t127.5 20t95 32t78 42.5q-14 51 -32 87t-37.5 66t-41 58t-44.5 59q-3 4 -6 9t-6 8l-6 6l202 187q37 -51 85 -91q43 -32 102.5 -59.5t136.5 -27.5h87q45 0 88.5 10.5t76.5 34.5t52.5 63.5t19.5 96.5l-32 933l301 44
l-18 -1033q-2 -115 -40.5 -201.5t-103 -145.5t-152 -89t-190.5 -30h-125z" />
    <glyph glyph-name="uniFC64" unicode="&#xfe8c;&#xfeae;" horiz-adv-x="2024" arabic-form="final" 
d="M1802 1090q-28 -2 -71 -8.5t-93.5 -16t-104.5 -21.5t-105 -25q4 9 10.5 27.5t14.5 37.5q7 20 15 43l132 11q-54 10 -91.5 35t-37.5 51q0 47 26 87t67.5 69.5t91.5 49t100 27.5l48 -132q-80 -2 -130.5 -21.5t-71.5 -51.5q17 -24 56 -34.5t78 -14.5q47 -5 102 -1zM1155 0
q-90 0 -164.5 59t-139.5 183q-25 -93 -66 -186t-95 -179t-118.5 -159.5t-135.5 -128.5h-436v68q118 63 234.5 160t213.5 205t160 219.5t75 206.5q0 2 -6 9.5t-23.5 44.5t-55 114.5t-100.5 221.5h280q16 -44 29.5 -80t22.5 -67l56 -141q26 -67 61.5 -112.5t73 -71.5
t76.5 -37.5t75 -11.5h107q123 0 190.5 71t71.5 205v245h225v-229q0 -91 10.5 -147t36 -88t66.5 -44.5t102 -12.5h123l-56 -317h-82q-244 0 -349 196q-69 -97 -160.5 -146.5t-186.5 -49.5h-115z" />
    <glyph glyph-name="uniFC67" unicode="&#xfe8c;&#xfee6;" horiz-adv-x="2344" arabic-form="final" 
d="M2120 1090q-28 -2 -71 -8.5t-93.5 -16t-104.5 -21.5t-104 -25q3 9 9.5 27.5t14.5 37.5q8 20 15 43l132 11q-54 10 -91 35t-37 51q0 47 26 87t67 69.5t91.5 49t100.5 27.5l47 -132q-80 -2 -130.5 -21.5t-71.5 -51.5q17 -24 56.5 -34.5t78.5 -14.5q46 -5 101 -1zM399 774
l140 153l186 -154l-136 -159zM1474 0q-52 1 -126 36q-76 37 -147 106q-15 -110 -57.5 -210.5t-117.5 -176.5t-186 -121t-262 -45q-116 0 -211 33t-162 95.5t-103.5 152t-36.5 203.5q0 155 69 340h214q-44 -135 -44 -228q0 -135 80 -197.5t228 -62.5q91 0 169 20.5t136 65.5
t91 115t33 169q0 20 -1 39.5t-1 39.5l-162 313l242 96l99 -233q49 -114 114 -173.5t138 -59.5h127q123 0 190.5 71t71.5 205v245h226v-229q0 -91 10 -147t35.5 -88t66.5 -44.5t102 -12.5h123l-56 -317h-82q-244 0 -349 196q-69 -97 -160.5 -146.5t-186.5 -49.5h-114z" />
    <glyph glyph-name="uniFC6A" unicode="&#xfe92;&#xfeae;" horiz-adv-x="2042" arabic-form="final" 
d="M1475 -237l139 153l187 -155l-136 -158zM1155 0q-90 0 -164.5 59t-139.5 183q-25 -93 -66 -186t-95 -179t-118.5 -159.5t-135.5 -128.5h-436v68q118 63 234.5 160t213.5 205t160 219.5t75 206.5q0 2 -6 9.5t-23.5 44.5t-55 114.5t-100.5 221.5h280q16 -44 29.5 -80
t22.5 -67l56 -141q26 -67 61.5 -112.5t73 -71.5t76.5 -37.5t75 -11.5h125q123 0 190.5 71t71.5 205v245h226v-229q0 -91 10 -147t35.5 -88t66.5 -44.5t102 -12.5h123l-56 -317h-82q-244 0 -349 196q-69 -97 -160.5 -146.5t-186.5 -49.5h-133z" />
    <glyph glyph-name="uniFC70" unicode="&#xfe98;&#xfeae;" horiz-adv-x="2045" arabic-form="final" 
d="M1338 1161l141 153l178 -150l131 144l187 -155l-137 -158l-183 153l-126 -148zM1155 0q-90 0 -164.5 59t-139.5 183q-25 -93 -66 -186t-95 -179t-118.5 -159.5t-135.5 -128.5h-436v68q118 63 234.5 160t213.5 205t160 219.5t75 206.5q0 2 -6 9.5t-23.5 44.5t-55 114.5
t-100.5 221.5h280q16 -44 29.5 -80t22.5 -67l56 -141q26 -67 61.5 -112.5t73 -71.5t76.5 -37.5t75 -11.5h125q123 0 190.5 71t71.5 205v245h226v-229q0 -91 10 -147t35.5 -88t66.5 -44.5t102 -12.5h123l-56 -317h-82q-244 0 -349 196q-69 -97 -160.5 -146.5t-186.5 -49.5
h-133z" />
    <glyph glyph-name="uniFC86" unicode="&#xfee0;&#xfef0;" horiz-adv-x="2580" arabic-form="final" 
d="M1706 0q-50 0 -100 16q-18 -93 -82 -171t-166.5 -135t-238.5 -89t-299 -32q-166 0 -306 35.5t-241.5 110.5t-158.5 189.5t-57 273.5q0 140 46 308h198q-11 -68 -11 -125q0 -133 53.5 -222.5t140 -143.5t197.5 -77.5t227 -23.5q103 0 176.5 6.5t127.5 20t95 32t78 42.5
q-14 51 -32 87t-37.5 66t-41 58t-44.5 59q-3 4 -6 9t-6 8l-6 6l202 187q37 -51 85 -91q43 -32 102.5 -59.5t136.5 -27.5h96q184 0 241 155l-36 983l301 44l-16 -958q3 -67 16.5 -111t38.5 -69t63 -34.5t94 -9.5h123l-56 -317h-82q-244 0 -349 196q-69 -97 -160.5 -146.5
t-186.5 -49.5h-119z" />
    <glyph glyph-name="uniFC87" unicode="&#xfee0;&#xfef2;" horiz-adv-x="2580" arabic-form="final" 
d="M461 -629l141 153l179 -147l131 142l186 -155l-136 -158l-183 154l-127 -149zM1706 0q-50 0 -100 16q-18 -93 -82 -171t-166.5 -135t-238.5 -89t-299 -32q-166 0 -306 35.5t-241.5 110.5t-158.5 189.5t-57 273.5q0 140 46 308h198q-11 -68 -11 -125q0 -133 53.5 -222.5
t140 -143.5t197.5 -77.5t227 -23.5q103 0 176.5 6.5t127.5 20t95 32t78 42.5q-14 51 -32 87t-37.5 66t-41 58t-44.5 59q-3 4 -6 9t-6 8l-6 6l202 187q37 -51 85 -91q43 -32 102.5 -59.5t136.5 -27.5h96q184 0 241 155l-36 983l301 44l-16 -958q3 -67 16.5 -111t38.5 -69
t63 -34.5t94 -9.5h123l-56 -317h-82q-244 0 -349 196q-69 -97 -160.5 -146.5t-186.5 -49.5h-119z" />
    <glyph glyph-name="uniFCCC" unicode="&#xfedf;&#xfee4;" horiz-adv-x="2058" arabic-form="initial" 
d="M705 595q-46 0 -91 -40t-92 -99q76 -52 176 -89t190 -70q24 54 24 109q0 79 -51 134t-156 55zM1339 0q-197 2 -259 201q-37 -63 -87.5 -124.5t-116.5 -119.5q-68 18 -135.5 50t-130.5 71.5t-122 85t-109 92.5q-37 -51 -76.5 -97.5t-80.5 -81t-86 -56t-91 -21.5h-118
l56 317h82q67 0 125 40t113 100t110 129t114.5 128.5t129 100t153.5 40.5q91 0 159.5 -26t114 -72t67.5 -108.5t22 -135.5q0 -13 -1 -24.5t-2 -23.5q12 -41 37.5 -69.5t55.5 -45.5t61 -25t56 -8h82q45 0 88 10.5t76.5 34.5t53 63.5t19.5 96.5l-32 933l301 44l-19 -1033
q-1 -115 -39.5 -201.5t-103 -145.5t-152 -89t-190.5 -30h-125z" />
    <glyph glyph-name="uniFCFB" unicode="&#xfeb3;&#xfef0;" horiz-adv-x="3726" arabic-form="isolated" 
d="M1706 0q-50 0 -100 16q-18 -93 -82 -171t-166.5 -135t-238.5 -89t-299 -32q-166 0 -306 35.5t-241.5 110.5t-158.5 189.5t-57 273.5q0 140 46 308h198q-11 -68 -11 -125q0 -133 53.5 -222.5t140 -143.5t197.5 -77.5t227 -23.5q103 0 176.5 6.5t127.5 20t95 32t78 42.5
q-14 51 -32 87t-37.5 66t-41 58t-44.5 59q-3 4 -6 9t-6 8l-6 6l202 187q37 -51 85 -91q43 -32 102.5 -59.5t136.5 -27.5h104q123 0 191 73t70 207v241h225v-211q0 -146 48 -228t153 -82t156.5 75.5t51.5 196.5v249h226v-211q0 -61 13 -117t41 -99.5t71 -68.5t101 -25
q39 0 76 14t67 48t49 86.5t19 131.5q0 71 -18 161.5t-59 208.5h267q24 -79 34.5 -153.5t10.5 -145.5q0 -150 -41 -274.5t-107.5 -215.5t-148.5 -142t-166 -51q-127 0 -209 62.5t-131 153.5q-52 -94 -129.5 -155t-183.5 -61q-118 0 -198 62.5t-130 159.5q-62 -95 -153.5 -151
t-204.5 -56h-127z" />
    <glyph glyph-name="uniFCFC" unicode="&#xfeb3;&#xfef2;" horiz-adv-x="3726" arabic-form="isolated" 
d="M461 -629l141 153l179 -147l131 142l186 -155l-136 -158l-183 154l-127 -149zM1706 0q-50 0 -100 16q-18 -93 -82 -171t-166.5 -135t-238.5 -89t-299 -32q-166 0 -306 35.5t-241.5 110.5t-158.5 189.5t-57 273.5q0 140 46 308h198q-11 -68 -11 -125q0 -133 53.5 -222.5
t140 -143.5t197.5 -77.5t227 -23.5q103 0 176.5 6.5t127.5 20t95 32t78 42.5q-14 51 -32 87t-37.5 66t-41 58t-44.5 59q-3 4 -6 9t-6 8l-6 6l202 187q37 -51 85 -91q43 -32 102.5 -59.5t136.5 -27.5h104q123 0 191 73t70 207v241h225v-211q0 -146 48 -228t153 -82
t156.5 75.5t51.5 196.5v249h226v-211q0 -61 13 -117t41 -99.5t71 -68.5t101 -25q39 0 76 14t67 48t49 86.5t19 131.5q0 71 -18 161.5t-59 208.5h267q24 -79 34.5 -153.5t10.5 -145.5q0 -150 -41 -274.5t-107.5 -215.5t-148.5 -142t-166 -51q-127 0 -209 62.5t-131 153.5
q-52 -94 -129.5 -155t-183.5 -61q-118 0 -198 62.5t-130 159.5q-62 -95 -153.5 -151t-204.5 -56h-127z" />
    <glyph glyph-name="uniFCFD" unicode="&#xfeb7;&#xfef0;" horiz-adv-x="3726" arabic-form="isolated" 
d="M2689 1390l127 138l153 -127l-122 -144zM2534 1153l139 153l180 -149l130 143l187 -155l-136 -158l-183 153l-126 -147zM1706 0q-50 0 -100 16q-18 -93 -82 -171t-166.5 -135t-238.5 -89t-299 -32q-166 0 -306 35.5t-241.5 110.5t-158.5 189.5t-57 273.5q0 140 46 308
h198q-11 -68 -11 -125q0 -133 53.5 -222.5t140 -143.5t197.5 -77.5t227 -23.5q103 0 176.5 6.5t127.5 20t95 32t78 42.5q-14 51 -32 87t-37.5 66t-41 58t-44.5 59q-3 4 -6 9t-6 8l-6 6l202 187q37 -51 85 -91q43 -32 102.5 -59.5t136.5 -27.5h104q123 0 191 73t70 207v241
h225v-211q0 -146 48 -228t153 -82t156.5 75.5t51.5 196.5v249h226v-211q0 -61 13 -117t41 -99.5t71 -68.5t101 -25q39 0 76 14t67 48t49 86.5t19 131.5q0 71 -18 161.5t-59 208.5h267q24 -79 34.5 -153.5t10.5 -145.5q0 -150 -41 -274.5t-107.5 -215.5t-148.5 -142t-166 -51
q-127 0 -209 62.5t-131 153.5q-52 -94 -129.5 -155t-183.5 -61q-118 0 -198 62.5t-130 159.5q-62 -95 -153.5 -151t-204.5 -56h-127z" />
    <glyph glyph-name="uniFCFE" unicode="&#xfeb7;&#xfef2;" horiz-adv-x="3726" arabic-form="isolated" 
d="M461 -629l141 153l179 -147l131 142l186 -155l-136 -158l-183 154l-127 -149zM2689 1390l127 138l153 -127l-122 -144zM2534 1153l139 153l180 -149l130 143l187 -155l-136 -158l-183 153l-126 -147zM1706 0q-50 0 -100 16q-18 -93 -82 -171t-166.5 -135t-238.5 -89
t-299 -32q-166 0 -306 35.5t-241.5 110.5t-158.5 189.5t-57 273.5q0 140 46 308h198q-11 -68 -11 -125q0 -133 53.5 -222.5t140 -143.5t197.5 -77.5t227 -23.5q103 0 176.5 6.5t127.5 20t95 32t78 42.5q-14 51 -32 87t-37.5 66t-41 58t-44.5 59q-3 4 -6 9t-6 8l-6 6l202 187
q37 -51 85 -91q43 -32 102.5 -59.5t136.5 -27.5h104q123 0 191 73t70 207v241h225v-211q0 -146 48 -228t153 -82t156.5 75.5t51.5 196.5v249h226v-211q0 -61 13 -117t41 -99.5t71 -68.5t101 -25q39 0 76 14t67 48t49 86.5t19 131.5q0 71 -18 161.5t-59 208.5h267
q24 -79 34.5 -153.5t10.5 -145.5q0 -150 -41 -274.5t-107.5 -215.5t-148.5 -142t-166 -51q-127 0 -209 62.5t-131 153.5q-52 -94 -129.5 -155t-183.5 -61q-118 0 -198 62.5t-130 159.5q-62 -95 -153.5 -151t-204.5 -56h-127z" />
    <glyph glyph-name="uniFD05" unicode="&#xfebb;&#xfef0;" horiz-adv-x="3573" arabic-form="isolated" 
d="M2764 317q94 0 181 8.5t161.5 24t130.5 38.5t90 50q-32 82 -110.5 140t-205.5 58q-91 0 -177 -18.5t-165 -51t-155 -77t-145 -92.5q23 -46 67.5 -63t117.5 -17h210zM1706 0q-50 0 -100 16q-18 -93 -82 -171t-166.5 -135t-238.5 -89t-299 -32q-166 0 -306 35.5
t-241.5 110.5t-158.5 189.5t-57 273.5q0 140 46 308h198q-11 -68 -11 -125q0 -133 53.5 -222.5t140 -143.5t197.5 -77.5t227 -23.5q103 0 176.5 6.5t127.5 20t95 32t78 42.5q-14 51 -32 87t-37.5 66t-41 58t-44.5 59q-3 4 -6 9t-6 8l-6 6l202 187q37 -51 85 -91
q43 -32 102.5 -59.5t136.5 -27.5h115q123 0 190 69.5t71 199.5v252h226v-229q73 68 153 127.5t167.5 104.5t183 70.5t196.5 25.5q114 0 201.5 -39.5t147 -106.5t90.5 -155t31 -182q0 -45 -39.5 -120.5t-115 -150.5t-187.5 -129t-258 -54h-370q-245 0 -349 196
q-70 -97 -161.5 -146.5t-185.5 -49.5h-138z" />
    <glyph glyph-name="uniFD06" unicode="&#xfebb;&#xfef2;" horiz-adv-x="3573" arabic-form="isolated" 
d="M461 -629l141 153l179 -147l131 142l186 -155l-136 -158l-183 154l-127 -149zM2764 317q94 0 181 8.5t161.5 24t130.5 38.5t90 50q-32 82 -110.5 140t-205.5 58q-91 0 -177 -18.5t-165 -51t-155 -77t-145 -92.5q23 -46 67.5 -63t117.5 -17h210zM1706 0q-50 0 -100 16
q-18 -93 -82 -171t-166.5 -135t-238.5 -89t-299 -32q-166 0 -306 35.5t-241.5 110.5t-158.5 189.5t-57 273.5q0 140 46 308h198q-11 -68 -11 -125q0 -133 53.5 -222.5t140 -143.5t197.5 -77.5t227 -23.5q103 0 176.5 6.5t127.5 20t95 32t78 42.5q-14 51 -32 87t-37.5 66
t-41 58t-44.5 59q-3 4 -6 9t-6 8l-6 6l202 187q37 -51 85 -91q43 -32 102.5 -59.5t136.5 -27.5h115q123 0 190 69.5t71 199.5v252h226v-229q73 68 153 127.5t167.5 104.5t183 70.5t196.5 25.5q114 0 201.5 -39.5t147 -106.5t90.5 -155t31 -182q0 -45 -39.5 -120.5
t-115 -150.5t-187.5 -129t-258 -54h-370q-245 0 -349 196q-70 -97 -161.5 -146.5t-185.5 -49.5h-138z" />
    <glyph glyph-name="uniFD07" unicode="&#xfebf;&#xfef0;" horiz-adv-x="3573" arabic-form="isolated" 
d="M2764 317q94 0 181 8.5t161.5 24t130.5 38.5t90 50q-32 82 -110.5 140t-205.5 58q-91 0 -177 -18.5t-165 -51t-155 -77t-145 -92.5q23 -46 67.5 -63t117.5 -17h210zM2485 1112l140 153l187 -154l-137 -160zM1706 0q-50 0 -100 16q-18 -93 -82 -171t-166.5 -135
t-238.5 -89t-299 -32q-166 0 -306 35.5t-241.5 110.5t-158.5 189.5t-57 273.5q0 140 46 308h198q-11 -68 -11 -125q0 -133 53.5 -222.5t140 -143.5t197.5 -77.5t227 -23.5q103 0 176.5 6.5t127.5 20t95 32t78 42.5q-14 51 -32 87t-37.5 66t-41 58t-44.5 59q-3 4 -6 9t-6 8
l-6 6l202 187q37 -51 85 -91q43 -32 102.5 -59.5t136.5 -27.5h115q123 0 190 69.5t71 199.5v252h226v-229q73 68 153 127.5t167.5 104.5t183 70.5t196.5 25.5q114 0 201.5 -39.5t147 -106.5t90.5 -155t31 -182q0 -45 -39.5 -120.5t-115 -150.5t-187.5 -129t-258 -54h-370
q-245 0 -349 196q-70 -97 -161.5 -146.5t-185.5 -49.5h-138z" />
    <glyph glyph-name="uniFD08" unicode="&#xfebf;&#xfef2;" horiz-adv-x="3573" arabic-form="isolated" 
d="M461 -629l141 153l179 -147l131 142l186 -155l-136 -158l-183 154l-127 -149zM2764 317q94 0 181 8.5t161.5 24t130.5 38.5t90 50q-32 82 -110.5 140t-205.5 58q-91 0 -177 -18.5t-165 -51t-155 -77t-145 -92.5q23 -46 67.5 -63t117.5 -17h210zM2485 1112l140 153
l187 -154l-137 -160zM1706 0q-50 0 -100 16q-18 -93 -82 -171t-166.5 -135t-238.5 -89t-299 -32q-166 0 -306 35.5t-241.5 110.5t-158.5 189.5t-57 273.5q0 140 46 308h198q-11 -68 -11 -125q0 -133 53.5 -222.5t140 -143.5t197.5 -77.5t227 -23.5q103 0 176.5 6.5t127.5 20
t95 32t78 42.5q-14 51 -32 87t-37.5 66t-41 58t-44.5 59q-3 4 -6 9t-6 8l-6 6l202 187q37 -51 85 -91q43 -32 102.5 -59.5t136.5 -27.5h115q123 0 190 69.5t71 199.5v252h226v-229q73 68 153 127.5t167.5 104.5t183 70.5t196.5 25.5q114 0 201.5 -39.5t147 -106.5t90.5 -155
t31 -182q0 -45 -39.5 -120.5t-115 -150.5t-187.5 -129t-258 -54h-370q-245 0 -349 196q-70 -97 -161.5 -146.5t-185.5 -49.5h-138z" />
    <glyph glyph-name="uniFD0D" unicode="&#xfeb7;&#xfeae;" horiz-adv-x="3164" arabic-form="isolated" 
d="M2125 1390l126 138l153 -127l-121 -144zM1970 1153l139 153l180 -149l130 143l187 -155l-136 -158l-183 153l-127 -147zM1155 0q-90 0 -164.5 59t-139.5 183q-25 -93 -66 -186t-95 -179t-118.5 -159.5t-135.5 -128.5h-436v68q118 63 234.5 160t213.5 205t160 219.5
t75 206.5q0 2 -6 9.5t-23.5 44.5t-55 114.5t-100.5 221.5h280q16 -44 29.5 -80t22.5 -67l56 -141q26 -67 61.5 -112.5t73 -71.5t76.5 -37.5t75 -11.5h105q123 0 191.5 73t70.5 207v241h225v-211q0 -146 47.5 -228t152.5 -82q106 0 157.5 75.5t51.5 196.5v249h226v-211
q0 -61 12.5 -117t41 -99.5t71 -68.5t101.5 -25q39 0 76 14t67 48t48.5 86.5t18.5 131.5q0 71 -17.5 161.5t-58.5 208.5h267q23 -79 33.5 -153.5t10.5 -145.5q0 -150 -41 -274.5t-107.5 -215.5t-148.5 -142t-166 -51q-126 0 -208 62.5t-131 153.5q-52 -94 -129.5 -155
t-184.5 -61q-117 0 -197.5 62.5t-130.5 159.5q-62 -95 -153 -151t-205 -56h-113z" />
    <glyph glyph-name="uniFD0E" unicode="&#xfeb3;&#xfeae;" horiz-adv-x="3164" arabic-form="isolated" 
d="M1155 0q-90 0 -164.5 59t-139.5 183q-25 -93 -66 -186t-95 -179t-118.5 -159.5t-135.5 -128.5h-436v68q118 63 234.5 160t213.5 205t160 219.5t75 206.5q0 2 -6 9.5t-23.5 44.5t-55 114.5t-100.5 221.5h280q16 -44 29.5 -80t22.5 -67l56 -141q26 -67 61.5 -112.5
t73 -71.5t76.5 -37.5t75 -11.5h105q123 0 191.5 73t70.5 207v241h225v-211q0 -146 47.5 -228t152.5 -82q106 0 157.5 75.5t51.5 196.5v249h226v-211q0 -61 12.5 -117t41 -99.5t71 -68.5t101.5 -25q39 0 76 14t67 48t48.5 86.5t18.5 131.5q0 71 -17.5 161.5t-58.5 208.5h267
q23 -79 33.5 -153.5t10.5 -145.5q0 -150 -41 -274.5t-107.5 -215.5t-148.5 -142t-166 -51q-126 0 -208 62.5t-131 153.5q-52 -94 -129.5 -155t-184.5 -61q-117 0 -197.5 62.5t-130.5 159.5q-62 -95 -153 -151t-205 -56h-113z" />
    <glyph glyph-name="uniFD0F" unicode="&#xfebb;&#xfeae;" horiz-adv-x="3020" arabic-form="isolated" 
d="M2208 317q95 0 182 8.5t161.5 24t130.5 38.5t89 50q-32 82 -110 140t-205 58q-91 0 -177 -18.5t-165.5 -51t-155 -77t-144.5 -92.5q23 -46 67.5 -63t117.5 -17h209zM1155 0q-90 0 -164.5 59t-139.5 183q-25 -93 -66 -186t-95 -179t-118.5 -159.5t-135.5 -128.5h-436v68
q118 63 234.5 160t213.5 205t160 219.5t75 206.5q0 2 -6 9.5t-23.5 44.5t-55 114.5t-100.5 221.5h280q16 -44 29.5 -80t22.5 -67l56 -141q26 -67 61.5 -112.5t73 -71.5t76.5 -37.5t75 -11.5h125q123 0 190.5 69.5t71.5 199.5v252h226v-229q73 68 153 127.5t167.5 104.5
t182.5 70.5t196 25.5q114 0 201.5 -39.5t147.5 -106.5t90.5 -155t30.5 -182q0 -45 -39 -120.5t-114.5 -150.5t-187.5 -129t-258 -54h-371q-244 0 -349 196q-69 -97 -160.5 -146.5t-186.5 -49.5h-133z" />
    <glyph glyph-name="uniFD10" unicode="&#xfebf;&#xfeae;" horiz-adv-x="3020" arabic-form="isolated" 
d="M2208 317q95 0 182 8.5t161.5 24t130.5 38.5t89 50q-32 82 -110 140t-205 58q-91 0 -177 -18.5t-165.5 -51t-155 -77t-144.5 -92.5q23 -46 67.5 -63t117.5 -17h209zM1930 1112l140 153l187 -154l-137 -160zM1155 0q-90 0 -164.5 59t-139.5 183q-25 -93 -66 -186t-95 -179
t-118.5 -159.5t-135.5 -128.5h-436v68q118 63 234.5 160t213.5 205t160 219.5t75 206.5q0 2 -6 9.5t-23.5 44.5t-55 114.5t-100.5 221.5h280q16 -44 29.5 -80t22.5 -67l56 -141q26 -67 61.5 -112.5t73 -71.5t76.5 -37.5t75 -11.5h125q123 0 190.5 69.5t71.5 199.5v252h226
v-229q73 68 153 127.5t167.5 104.5t182.5 70.5t196 25.5q114 0 201.5 -39.5t147.5 -106.5t90.5 -155t30.5 -182q0 -45 -39 -120.5t-114.5 -150.5t-187.5 -129t-258 -54h-371q-244 0 -349 196q-69 -97 -160.5 -146.5t-186.5 -49.5h-133z" />
    <glyph glyph-name="uniFD17" unicode="&#xfeb4;&#xfef0;" horiz-adv-x="3862" arabic-form="final" 
d="M1706 0q-50 0 -100 16q-18 -93 -82 -171t-166.5 -135t-238.5 -89t-299 -32q-166 0 -306 35.5t-241.5 110.5t-158.5 189.5t-57 273.5q0 140 46 308h198q-11 -68 -11 -125q0 -133 53.5 -222.5t140 -143.5t197.5 -77.5t227 -23.5q103 0 176.5 6.5t127.5 20t95 32t78 42.5
q-14 51 -32 87t-37.5 66t-41 58t-44.5 59q-3 4 -6 9t-6 8l-6 6l202 187q37 -51 85 -91q43 -32 102.5 -59.5t136.5 -27.5h40l55 2q124 0 192.5 73.5t68.5 212.5v233h223v-209q0 -146 48 -228t152 -82q106 0 157.5 75.5t51.5 196.5v247h226v-209q0 -146 47.5 -228t152.5 -82
q106 0 157 75.5t51 196.5v247h226v-226q0 -90 13.5 -146.5t42 -89.5t72.5 -46t106 -13h121l-56 -317h-80q-267 0 -374 210q-50 -111 -124.5 -168t-163.5 -57q-111 0 -198 60t-140 174q-50 -118 -127.5 -176t-169.5 -58q-109 0 -194.5 58t-139.5 169q-69 -102 -162.5 -157
t-188.5 -55h-117z" />
    <glyph glyph-name="uniFD18" unicode="&#xfeb4;&#xfef2;" horiz-adv-x="3862" arabic-form="final" 
d="M461 -629l141 153l179 -147l131 142l186 -155l-136 -158l-183 154l-127 -149zM1706 0q-50 0 -100 16q-18 -93 -82 -171t-166.5 -135t-238.5 -89t-299 -32q-166 0 -306 35.5t-241.5 110.5t-158.5 189.5t-57 273.5q0 140 46 308h198q-11 -68 -11 -125q0 -133 53.5 -222.5
t140 -143.5t197.5 -77.5t227 -23.5q103 0 176.5 6.5t127.5 20t95 32t78 42.5q-14 51 -32 87t-37.5 66t-41 58t-44.5 59q-3 4 -6 9t-6 8l-6 6l202 187q37 -51 85 -91q43 -32 102.5 -59.5t136.5 -27.5h40l55 2q124 0 192.5 73.5t68.5 212.5v233h223v-209q0 -146 48 -228
t152 -82q106 0 157.5 75.5t51.5 196.5v247h226v-209q0 -146 47.5 -228t152.5 -82q106 0 157 75.5t51 196.5v247h226v-226q0 -90 13.5 -146.5t42 -89.5t72.5 -46t106 -13h121l-56 -317h-80q-267 0 -374 210q-50 -111 -124.5 -168t-163.5 -57q-111 0 -198 60t-140 174
q-50 -118 -127.5 -176t-169.5 -58q-109 0 -194.5 58t-139.5 169q-69 -102 -162.5 -157t-188.5 -55h-117z" />
    <glyph glyph-name="uniFD19" unicode="&#xfeb8;&#xfef0;" horiz-adv-x="3862" arabic-form="final" 
d="M2678 1390l127 138l153 -127l-121 -144zM2523 1153l140 153l179 -149l130 143l187 -155l-136 -158l-183 153l-126 -147zM1706 0q-50 0 -100 16q-18 -93 -82 -171t-166.5 -135t-238.5 -89t-299 -32q-166 0 -306 35.5t-241.5 110.5t-158.5 189.5t-57 273.5q0 140 46 308
h198q-11 -68 -11 -125q0 -133 53.5 -222.5t140 -143.5t197.5 -77.5t227 -23.5q103 0 176.5 6.5t127.5 20t95 32t78 42.5q-14 51 -32 87t-37.5 66t-41 58t-44.5 59q-3 4 -6 9t-6 8l-6 6l202 187q37 -51 85 -91q43 -32 102.5 -59.5t136.5 -27.5h40l55 2q124 0 192.5 73.5
t68.5 212.5v233h223v-209q0 -146 48 -228t152 -82q106 0 157.5 75.5t51.5 196.5v247h226v-209q0 -146 47.5 -228t152.5 -82q106 0 157 75.5t51 196.5v247h226v-226q0 -90 13.5 -146.5t42 -89.5t72.5 -46t106 -13h121l-56 -317h-80q-267 0 -374 210q-50 -111 -124.5 -168
t-163.5 -57q-111 0 -198 60t-140 174q-50 -118 -127.5 -176t-169.5 -58q-109 0 -194.5 58t-139.5 169q-69 -102 -162.5 -157t-188.5 -55h-117z" />
    <glyph glyph-name="uniFD1A" unicode="&#xfeb8;&#xfef2;" horiz-adv-x="3862" arabic-form="final" 
d="M461 -629l141 153l179 -147l131 142l186 -155l-136 -158l-183 154l-127 -149zM2678 1390l127 138l153 -127l-121 -144zM2523 1153l140 153l179 -149l130 143l187 -155l-136 -158l-183 153l-126 -147zM1706 0q-50 0 -100 16q-18 -93 -82 -171t-166.5 -135t-238.5 -89
t-299 -32q-166 0 -306 35.5t-241.5 110.5t-158.5 189.5t-57 273.5q0 140 46 308h198q-11 -68 -11 -125q0 -133 53.5 -222.5t140 -143.5t197.5 -77.5t227 -23.5q103 0 176.5 6.5t127.5 20t95 32t78 42.5q-14 51 -32 87t-37.5 66t-41 58t-44.5 59q-3 4 -6 9t-6 8l-6 6l202 187
q37 -51 85 -91q43 -32 102.5 -59.5t136.5 -27.5h40l55 2q124 0 192.5 73.5t68.5 212.5v233h223v-209q0 -146 48 -228t152 -82q106 0 157.5 75.5t51.5 196.5v247h226v-209q0 -146 47.5 -228t152.5 -82q106 0 157 75.5t51 196.5v247h226v-226q0 -90 13.5 -146.5t42 -89.5
t72.5 -46t106 -13h121l-56 -317h-80q-267 0 -374 210q-50 -111 -124.5 -168t-163.5 -57q-111 0 -198 60t-140 174q-50 -118 -127.5 -176t-169.5 -58q-109 0 -194.5 58t-139.5 169q-69 -102 -162.5 -157t-188.5 -55h-117z" />
    <glyph glyph-name="uniFD21" unicode="&#xfebc;&#xfef0;" horiz-adv-x="3715" arabic-form="final" 
d="M2773 317q95 0 182 8.5t161 24t130 38.5t90 50q-32 82 -110.5 140t-204.5 58q-92 0 -178 -18.5t-165 -51t-154.5 -77t-145.5 -92.5q23 -46 67.5 -63t117.5 -17h210zM1706 0q-50 0 -100 16q-18 -93 -82 -171t-166.5 -135t-238.5 -89t-299 -32q-166 0 -306 35.5
t-241.5 110.5t-158.5 189.5t-57 273.5q0 140 46 308h198q-11 -68 -11 -125q0 -133 53.5 -222.5t140 -143.5t197.5 -77.5t227 -23.5q103 0 176.5 6.5t127.5 20t95 32t78 42.5q-14 51 -32 87t-37.5 66t-41 58t-44.5 59q-3 4 -6 9t-6 8l-6 6l202 187q37 -51 85 -91
q43 -32 102.5 -59.5t136.5 -27.5h124q123 0 190.5 69.5t70.5 199.5v252h226v-229q73 68 153 127.5t167.5 104.5t183 70.5t196.5 25.5q114 0 201.5 -39.5t147 -106.5t90.5 -155t31 -182q0 -10 -2 -20t-5 -21q35 -53 89 -74.5t96 -21.5h96l-56 -317h-77q-106 0 -170.5 53.5
t-95.5 158.5q-37 -41 -87 -79t-108.5 -67.5t-128.5 -47.5t-151 -18h-370q-244 0 -349 196q-69 -97 -161 -146.5t-186 -49.5h-147z" />
    <glyph glyph-name="uniFD22" unicode="&#xfebc;&#xfef2;" horiz-adv-x="3715" arabic-form="final" 
d="M461 -629l141 153l179 -147l131 142l186 -155l-136 -158l-183 154l-127 -149zM2773 317q95 0 182 8.5t161 24t130 38.5t90 50q-32 82 -110.5 140t-204.5 58q-92 0 -178 -18.5t-165 -51t-154.5 -77t-145.5 -92.5q23 -46 67.5 -63t117.5 -17h210zM1706 0q-50 0 -100 16
q-18 -93 -82 -171t-166.5 -135t-238.5 -89t-299 -32q-166 0 -306 35.5t-241.5 110.5t-158.5 189.5t-57 273.5q0 140 46 308h198q-11 -68 -11 -125q0 -133 53.5 -222.5t140 -143.5t197.5 -77.5t227 -23.5q103 0 176.5 6.5t127.5 20t95 32t78 42.5q-14 51 -32 87t-37.5 66
t-41 58t-44.5 59q-3 4 -6 9t-6 8l-6 6l202 187q37 -51 85 -91q43 -32 102.5 -59.5t136.5 -27.5h124q123 0 190.5 69.5t70.5 199.5v252h226v-229q73 68 153 127.5t167.5 104.5t183 70.5t196.5 25.5q114 0 201.5 -39.5t147 -106.5t90.5 -155t31 -182q0 -10 -2 -20t-5 -21
q35 -53 89 -74.5t96 -21.5h96l-56 -317h-77q-106 0 -170.5 53.5t-95.5 158.5q-37 -41 -87 -79t-108.5 -67.5t-128.5 -47.5t-151 -18h-370q-244 0 -349 196q-69 -97 -161 -146.5t-186 -49.5h-147z" />
    <glyph glyph-name="uniFD23" unicode="&#xfec0;&#xfef0;" horiz-adv-x="3715" arabic-form="final" 
d="M2773 317q95 0 182 8.5t161 24t130 38.5t90 50q-32 82 -110.5 140t-204.5 58q-92 0 -178 -18.5t-165 -51t-154.5 -77t-145.5 -92.5q23 -46 67.5 -63t117.5 -17h210zM2494 1112l140 153l187 -154l-137 -160zM1706 0q-50 0 -100 16q-18 -93 -82 -171t-166.5 -135
t-238.5 -89t-299 -32q-166 0 -306 35.5t-241.5 110.5t-158.5 189.5t-57 273.5q0 140 46 308h198q-11 -68 -11 -125q0 -133 53.5 -222.5t140 -143.5t197.5 -77.5t227 -23.5q103 0 176.5 6.5t127.5 20t95 32t78 42.5q-14 51 -32 87t-37.5 66t-41 58t-44.5 59q-3 4 -6 9t-6 8
l-6 6l202 187q37 -51 85 -91q43 -32 102.5 -59.5t136.5 -27.5h124q123 0 190.5 69.5t70.5 199.5v252h226v-229q73 68 153 127.5t167.5 104.5t183 70.5t196.5 25.5q114 0 201.5 -39.5t147 -106.5t90.5 -155t31 -182q0 -10 -2 -20t-5 -21q35 -53 89 -74.5t96 -21.5h96
l-56 -317h-77q-106 0 -170.5 53.5t-95.5 158.5q-37 -41 -87 -79t-108.5 -67.5t-128.5 -47.5t-151 -18h-370q-244 0 -349 196q-69 -97 -161 -146.5t-186 -49.5h-147z" />
    <glyph glyph-name="uniFD24" unicode="&#xfec0;&#xfef2;" horiz-adv-x="3715" arabic-form="final" 
d="M461 -629l141 153l179 -147l131 142l186 -155l-136 -158l-183 154l-127 -149zM2773 317q95 0 182 8.5t161 24t130 38.5t90 50q-32 82 -110.5 140t-204.5 58q-92 0 -178 -18.5t-165 -51t-154.5 -77t-145.5 -92.5q23 -46 67.5 -63t117.5 -17h210zM2494 1112l140 153
l187 -154l-137 -160zM1706 0q-50 0 -100 16q-18 -93 -82 -171t-166.5 -135t-238.5 -89t-299 -32q-166 0 -306 35.5t-241.5 110.5t-158.5 189.5t-57 273.5q0 140 46 308h198q-11 -68 -11 -125q0 -133 53.5 -222.5t140 -143.5t197.5 -77.5t227 -23.5q103 0 176.5 6.5t127.5 20
t95 32t78 42.5q-14 51 -32 87t-37.5 66t-41 58t-44.5 59q-3 4 -6 9t-6 8l-6 6l202 187q37 -51 85 -91q43 -32 102.5 -59.5t136.5 -27.5h124q123 0 190.5 69.5t70.5 199.5v252h226v-229q73 68 153 127.5t167.5 104.5t183 70.5t196.5 25.5q114 0 201.5 -39.5t147 -106.5
t90.5 -155t31 -182q0 -10 -2 -20t-5 -21q35 -53 89 -74.5t96 -21.5h96l-56 -317h-77q-106 0 -170.5 53.5t-95.5 158.5q-37 -41 -87 -79t-108.5 -67.5t-128.5 -47.5t-151 -18h-370q-244 0 -349 196q-69 -97 -161 -146.5t-186 -49.5h-147z" />
    <glyph glyph-name="uniFD29" unicode="&#xfeb8;&#xfeae;" horiz-adv-x="3315" arabic-form="final" 
d="M2132 1390l126 138l154 -127l-122 -144zM1977 1153l139 153l180 -149l130 143l187 -155l-136 -158l-183 153l-127 -147zM1155 0q-90 0 -164.5 59t-139.5 183q-25 -93 -66 -186t-95 -179t-118.5 -159.5t-135.5 -128.5h-436v68q118 63 234.5 160t213.5 205t160 219.5
t75 206.5q0 2 -6 9.5t-23.5 44.5t-55 114.5t-100.5 221.5h280q16 -44 29.5 -80t22.5 -67l56 -141q26 -67 61.5 -112.5t73 -71.5t76.5 -37.5t75 -11.5h58v2h56q125 0 193.5 73.5t68.5 212.5v233h223v-209q0 -146 48 -228t152 -82q106 0 157.5 75.5t51.5 196.5v247h226v-209
q0 -146 47.5 -228t152.5 -82q106 0 157 75.5t51 196.5v247h226v-226q0 -90 13.5 -146.5t42 -89.5t72 -46t105.5 -13h122l-56 -317h-80q-267 0 -374 210q-50 -111 -124.5 -168t-164.5 -57q-110 0 -197 60t-141 174q-50 -118 -127.5 -176t-169.5 -58q-108 0 -193.5 58
t-139.5 169q-69 -102 -162.5 -157t-188.5 -55h-122z" />
    <glyph glyph-name="uniFD2A" unicode="&#xfeb4;&#xfeae;" horiz-adv-x="3315" arabic-form="final" 
d="M1155 0q-90 0 -164.5 59t-139.5 183q-25 -93 -66 -186t-95 -179t-118.5 -159.5t-135.5 -128.5h-436v68q118 63 234.5 160t213.5 205t160 219.5t75 206.5q0 2 -6 9.5t-23.5 44.5t-55 114.5t-100.5 221.5h280q16 -44 29.5 -80t22.5 -67l56 -141q26 -67 61.5 -112.5
t73 -71.5t76.5 -37.5t75 -11.5h58v2h56q125 0 193.5 73.5t68.5 212.5v233h223v-209q0 -146 48 -228t152 -82q106 0 157.5 75.5t51.5 196.5v247h226v-209q0 -146 47.5 -228t152.5 -82q106 0 157 75.5t51 196.5v247h226v-226q0 -90 13.5 -146.5t42 -89.5t72 -46t105.5 -13h122
l-56 -317h-80q-267 0 -374 210q-50 -111 -124.5 -168t-164.5 -57q-110 0 -197 60t-141 174q-50 -118 -127.5 -176t-169.5 -58q-108 0 -193.5 58t-139.5 169q-69 -102 -162.5 -157t-188.5 -55h-122z" />
    <glyph glyph-name="uniFD2B" unicode="&#xfebc;&#xfeae;" horiz-adv-x="3152" arabic-form="final" 
d="M2208 317q95 0 182 8.5t161.5 24t130.5 38.5t89 50q-32 82 -110 140t-205 58q-91 0 -177 -18.5t-165.5 -51t-155 -77t-144.5 -92.5q23 -46 67.5 -63t117.5 -17h209zM1155 0q-90 0 -164.5 59t-139.5 183q-25 -93 -66 -186t-95 -179t-118.5 -159.5t-135.5 -128.5h-436v68
q118 63 234.5 160t213.5 205t160 219.5t75 206.5q0 2 -6 9.5t-23.5 44.5t-55 114.5t-100.5 221.5h280q16 -44 29.5 -80t22.5 -67l56 -141q26 -67 61.5 -112.5t73 -71.5t76.5 -37.5t75 -11.5h125q123 0 190.5 69.5t71.5 199.5v252h226v-229q73 68 153 127.5t167.5 104.5
t182.5 70.5t196 25.5q114 0 201.5 -39.5t147.5 -106.5t90.5 -155t30.5 -182q0 -10 -1.5 -20t-5.5 -21q36 -53 89.5 -74.5t96.5 -21.5h96l-57 -317h-76q-106 0 -170.5 53.5t-95.5 158.5q-38 -41 -87.5 -79t-108.5 -67.5t-129 -47.5t-150 -18h-371q-244 0 -349 196
q-69 -97 -160.5 -146.5t-186.5 -49.5h-133z" />
    <glyph glyph-name="uniFD2C" unicode="&#xfec0;&#xfeae;" horiz-adv-x="3152" arabic-form="final" 
d="M2208 317q95 0 182 8.5t161.5 24t130.5 38.5t89 50q-32 82 -110 140t-205 58q-91 0 -177 -18.5t-165.5 -51t-155 -77t-144.5 -92.5q23 -46 67.5 -63t117.5 -17h209zM1930 1112l140 153l187 -154l-137 -160zM1155 0q-90 0 -164.5 59t-139.5 183q-25 -93 -66 -186t-95 -179
t-118.5 -159.5t-135.5 -128.5h-436v68q118 63 234.5 160t213.5 205t160 219.5t75 206.5q0 2 -6 9.5t-23.5 44.5t-55 114.5t-100.5 221.5h280q16 -44 29.5 -80t22.5 -67l56 -141q26 -67 61.5 -112.5t73 -71.5t76.5 -37.5t75 -11.5h125q123 0 190.5 69.5t71.5 199.5v252h226
v-229q73 68 153 127.5t167.5 104.5t182.5 70.5t196 25.5q114 0 201.5 -39.5t147.5 -106.5t90.5 -155t30.5 -182q0 -10 -1.5 -20t-5.5 -21q36 -53 89.5 -74.5t96.5 -21.5h96l-57 -317h-76q-106 0 -170.5 53.5t-95.5 158.5q-38 -41 -87.5 -79t-108.5 -67.5t-129 -47.5
t-150 -18h-371q-244 0 -349 196q-69 -97 -160.5 -146.5t-186.5 -49.5h-133z" />
    <glyph glyph-name="uniFEF5" unicode="&#xfedf;&#xfe82;" horiz-adv-x="1259" arabic-form="isolated" 
d="M151 267q109 0 201 6.5t170 21.5q-112 285 -247 536t-292 488h355q117 -203 215 -443t167 -511q86 51 127 133t36 209l-36 746l300 43l-17 -714q-1 -99 -28 -197t-73 -186.5t-108.5 -164t-136.5 -131t-156 -87t-167 -31.5q-109 0 -186 23.5t-124 43.5v215zM470 1494
q-32 -31 -72 -48t-90 -17q-27 0 -64 7.5t-73.5 16t-68 16t-47.5 7.5q-42 -19 -91 -99l-78 131q26 54 73.5 86.5t86.5 32.5q29 0 67 -9.5t77 -21.5t77.5 -21.5t66.5 -9.5q33 0 75.5 13.5t73.5 27.5z" />
    <glyph glyph-name="uniFEF6" unicode="&#xfee0;&#xfe82;" horiz-adv-x="1322" arabic-form="final" 
d="M150 267q220 0 371 28q-114 285 -247.5 535t-291.5 489h354q120 -207 218.5 -448.5t168.5 -516.5q151 75 154 212l-31 887l300 43l-17 -1113q71 -66 174 -66h95l-56 -317h-127q-120 0 -207.5 63.5t-113.5 173.5q-43 -52 -93.5 -98t-106 -80t-114.5 -54t-121 -20
q-108 0 -185.5 23.5t-123.5 43.5v215zM463 1504q-32 -32 -72 -48.5t-90 -16.5q-27 0 -64 7t-73.5 15.5t-68 16t-47.5 7.5q-42 -18 -91 -98l-78 130q26 54 73.5 86.5t86.5 32.5q29 0 67 -9t77 -21.5t77.5 -21.5t66.5 -9q33 0 75.5 13t73.5 28z" />
    <glyph glyph-name="uniFEF7" unicode="&#xfedf;&#xfe84;" horiz-adv-x="1262" arabic-form="isolated" 
d="M151 267q108 0 200 6.5t171 21.5q-112 285 -247.5 536t-292.5 488h356q117 -203 215 -443t166 -511q87 51 128 133t35 209l-35 746l300 43l-17 -714q-2 -99 -28.5 -197t-72.5 -186.5t-108.5 -164t-136.5 -131t-156 -87t-167 -31.5q-109 0 -186.5 23.5t-123.5 43.5v215z
M340 1453q-29 -2 -71.5 -8t-93 -15.5t-105 -21.5t-104.5 -25q4 9 10 27.5t15 37.5l14 42l132 12q-53 9 -90.5 34.5t-37.5 51.5q0 46 26 86.5t67.5 70.5t91.5 49.5t100 26.5l47 -133q-80 -2 -130.5 -21.5t-71.5 -50.5q17 -24 56.5 -34.5t78.5 -14.5q46 -5 101 -2z" />
    <glyph glyph-name="uniFEF8" unicode="&#xfee0;&#xfe84;" horiz-adv-x="1322" arabic-form="final" 
d="M151 267q220 0 371 28q-114 285 -247.5 535t-291.5 489h355q119 -207 218 -448.5t167 -516.5q151 75 155 212l-31 887l300 43l-17 -1113q72 -66 174 -66h95l-56 -317h-127q-119 0 -206.5 63.5t-114.5 173.5q-42 -52 -93 -98t-107 -80t-114.5 -54t-119.5 -20
q-109 0 -186 23.5t-124 43.5v215zM342 1453q-29 -2 -71.5 -8t-93 -15.5t-105 -21.5t-104.5 -25q4 9 10 27.5t15 37.5l14 42l132 12q-53 9 -90.5 34.5t-37.5 51.5q0 46 26 86.5t67.5 70.5t91.5 49.5t100 26.5l47 -133q-80 -2 -130.5 -21.5t-71.5 -50.5q17 -24 56.5 -34.5
t78.5 -14.5q46 -5 101 -2z" />
    <glyph glyph-name="uniFEF9" unicode="&#xfedf;&#xfe88;" horiz-adv-x="1250" arabic-form="isolated" 
d="M150 267q108 0 200.5 6.5t170.5 21.5q-112 285 -247 536t-292 488h354q118 -203 216 -443t167 -511q86 51 127 133t35 209l-35 746l300 43l-16 -714q-3 -99 -30 -197t-72.5 -186.5t-107.5 -164t-136 -131t-156.5 -87t-168.5 -31.5q-107 0 -184.5 23.5t-124.5 43.5v215z
M598 -435q-28 -1 -71 -8t-93.5 -16t-104.5 -21.5t-105 -25.5q4 9 11 28l14 38q7 20 15 43l133 11q-55 9 -92.5 34.5t-37.5 50.5q0 47 26.5 87.5t67.5 70t91 49t101 27.5l47 -133q-80 -1 -131 -21t-71 -51q17 -25 56 -35t78 -14q47 -5 101 -2z" />
    <glyph glyph-name="uniFEFA" unicode="&#xfee0;&#xfe88;" horiz-adv-x="1322" arabic-form="final" 
d="M150 267q220 0 371 28q-114 285 -247 535t-292 489h354q120 -207 218.5 -448.5t168.5 -516.5q151 75 155 212l-32 887l300 43l-16 -1113q70 -66 173 -66h95l-56 -317h-126q-120 0 -208 63.5t-114 173.5q-43 -52 -93 -98t-106 -80t-115 -54t-121 -20q-107 0 -184.5 23.5
t-124.5 43.5v215zM564 -422q-28 -2 -71 -8t-93.5 -16t-104 -21.5t-104.5 -25.5q3 10 10 29t14 37q8 21 15 43l133 10q-55 10 -92.5 35.5t-37.5 51.5q0 46 26.5 86.5t67.5 70t91.5 49t101.5 27.5l46 -133q-80 -2 -130.5 -21.5t-70.5 -51.5q16 -23 55 -33.5t79 -14.5
q46 -5 101 -2z" />
    <glyph glyph-name="uniFEFB" unicode="&#xfedf;&#xfe8e;" horiz-adv-x="1256" arabic-form="isolated" 
d="M150 267q108 0 200.5 6.5t170.5 21.5q-112 285 -247 536t-292 488h354q118 -203 216 -443t167 -511q86 51 127 133t35 209l-35 746l300 43l-16 -714q-3 -99 -30 -197t-72.5 -186.5t-107.5 -164t-136 -131t-156.5 -87t-168.5 -31.5q-107 0 -184.5 23.5t-124.5 43.5v215z
" />
    <glyph glyph-name="uniFEFC" unicode="&#xfee0;&#xfe8e;" horiz-adv-x="1322" arabic-form="final" 
d="M150 267q220 0 371 28q-114 285 -247 535t-292 489h354q120 -207 218.5 -448.5t168.5 -516.5q151 75 155 212l-32 887l300 43l-16 -1113q70 -66 173 -66h95l-56 -317h-126q-120 0 -208 63.5t-114 173.5q-43 -52 -93 -98t-106 -80t-115 -54t-121 -20q-107 0 -184.5 23.5
t-124.5 43.5v215z" />
    <glyph glyph-name="uniFE8B_uniFEE4.liga" unicode="&#xfe8b;&#xfee4;" horiz-adv-x="2024" 
d="M1880 1090q-28 -2 -71 -8.5t-93.5 -16t-104 -21.5t-104.5 -25q3 9 10 27.5t14 37.5q8 20 15 43l133 11q-55 10 -92 35t-37 51q0 47 26 87t67 69.5t91.5 49t101.5 27.5l46 -132q-80 -2 -130.5 -21.5t-70.5 -51.5q16 -24 55 -34.5t79 -14.5q46 -5 101 -1zM705 595
q-46 0 -91 -40t-92 -99q76 -52 176 -89t190 -70q24 54 24 109q0 79 -51 134t-156 55zM1339 0q-197 2 -259 201q-37 -63 -87.5 -124.5t-116.5 -119.5q-68 18 -135.5 50t-130.5 71.5t-122 85t-109 92.5q-37 -51 -76.5 -97.5t-80.5 -81t-86 -56t-91 -21.5h-118l56 317h82
q67 0 125 40t113 100t110 129t114.5 128.5t129 100t153.5 40.5q91 0 159.5 -26t114 -72t67.5 -108.5t22 -135.5q0 -13 -1 -24.5t-2 -23.5q12 -41 37.5 -69.5t55.5 -45.5t61 -25t56 -8h239q30 57 46 121t16 135q0 63 -15 130.5t-47 134.5h270q36 -94 36 -208
q0 -145 -52.5 -304.5t-139.5 -325.5h-394z" />
    <glyph glyph-name="uniFE8B_uniFEF0.liga" unicode="&#xfe8b;&#xfef0;" horiz-adv-x="2424" 
d="M2262 1090q-29 -2 -71.5 -8.5t-93 -16t-104.5 -21.5t-105 -25q4 9 10.5 27.5t14.5 37.5q7 20 14 43l133 11q-54 10 -91.5 35t-37.5 51q0 47 26.5 87t67.5 69.5t91 49t101 27.5l47 -132q-81 -2 -131.5 -21.5t-70.5 -51.5q17 -24 56 -34.5t78 -14.5q47 -5 101 -1zM1706 0
q-50 0 -100 16q-18 -93 -82 -171t-166.5 -135t-238.5 -89t-299 -32q-166 0 -306 35.5t-241.5 110.5t-158.5 189.5t-57 273.5q0 140 46 308h198q-11 -68 -11 -125q0 -133 53.5 -222.5t140 -143.5t197.5 -77.5t227 -23.5q103 0 176.5 6.5t127.5 20t95 32t78 42.5
q-14 51 -32 87t-37.5 66t-41 58t-44.5 59q-3 4 -6 9t-6 8l-6 6l202 187q37 -51 85 -91q43 -32 102.5 -59.5t136.5 -27.5h262q30 57 46 121t16 135q0 63 -15 130.5t-47 134.5h271q35 -94 35 -208q0 -145 -52 -304.5t-140 -325.5h-408z" />
    <glyph glyph-name="uniFE8B_uniFEF2.liga" unicode="&#xfe8b;&#xfef2;" horiz-adv-x="2424" 
d="M461 -629l141 153l179 -147l131 142l186 -155l-136 -158l-183 154l-127 -149zM2262 1090q-29 -2 -71.5 -8.5t-93 -16t-104.5 -21.5t-105 -25q4 9 10.5 27.5t14.5 37.5q7 20 14 43l133 11q-54 10 -91.5 35t-37.5 51q0 47 26.5 87t67.5 69.5t91 49t101 27.5l47 -132
q-81 -2 -131.5 -21.5t-70.5 -51.5q17 -24 56 -34.5t78 -14.5q47 -5 101 -1zM1706 0q-50 0 -100 16q-18 -93 -82 -171t-166.5 -135t-238.5 -89t-299 -32q-166 0 -306 35.5t-241.5 110.5t-158.5 189.5t-57 273.5q0 140 46 308h198q-11 -68 -11 -125q0 -133 53.5 -222.5
t140 -143.5t197.5 -77.5t227 -23.5q103 0 176.5 6.5t127.5 20t95 32t78 42.5q-14 51 -32 87t-37.5 66t-41 58t-44.5 59q-3 4 -6 9t-6 8l-6 6l202 187q37 -51 85 -91q43 -32 102.5 -59.5t136.5 -27.5h262q30 57 46 121t16 135q0 63 -15 130.5t-47 134.5h271q35 -94 35 -208
q0 -145 -52 -304.5t-140 -325.5h-408z" />
    <glyph glyph-name="uniFE91_uniFEE4.liga" unicode="&#xfe91;&#xfee4;" horiz-adv-x="2018" 
d="M1499 -237l141 153l187 -155l-137 -158zM705 595q-46 0 -91 -40t-92 -99q76 -52 176 -89t190 -70q24 54 24 109q0 79 -51 134t-156 55zM1339 0q-197 2 -259 201q-37 -63 -87.5 -124.5t-116.5 -119.5q-68 18 -135.5 50t-130.5 71.5t-122 85t-109 92.5q-37 -51 -76.5 -97.5
t-80.5 -81t-86 -56t-91 -21.5h-118l56 317h82q67 0 125 40t113 100t110 129t114.5 128.5t129 100t153.5 40.5q91 0 159.5 -26t114 -72t67.5 -108.5t22 -135.5q0 -13 -1 -24.5t-2 -23.5q12 -41 37.5 -69.5t55.5 -45.5t61 -25t56 -8h239q30 57 46 121t16 135q0 63 -15 130.5
t-47 134.5h270q36 -94 36 -208q0 -145 -52.5 -304.5t-139.5 -325.5h-394z" />
    <glyph glyph-name="uniFE92_uniFEE6.liga" unicode="&#xfe92;&#xfee6;" horiz-adv-x="2308" 
d="M399 774l140 153l186 -154l-136 -159zM1739 -237l139 153l187 -155l-136 -158zM1439 4q-41 8 -91 32q-76 37 -147 106q-15 -110 -57.5 -210.5t-117.5 -176.5t-186 -121t-262 -45q-116 0 -211 33t-162 95.5t-103.5 152t-36.5 203.5q0 155 69 340h214q-44 -135 -44 -228
q0 -135 80 -197.5t228 -62.5q91 0 169 20.5t136 65.5t91 115t33 169q0 20 -1 39.5t-1 39.5l-162 313l242 96l99 -233q49 -114 114 -173.5t138 -59.5h91q123 0 190.5 71t70.5 205v245h226v-229q0 -91 10 -147t35.5 -88t66.5 -44.5t102 -12.5h123l-55 -317h-82
q-244 0 -349 196q-69 -97 -160.5 -146.5t-186.5 -49.5h-114z" />
    <glyph glyph-name="uniFE91_uniFEF0.liga" unicode="&#xfe91;&#xfef0;" horiz-adv-x="2415" 
d="M1706 0q-50 0 -100 16q-18 -93 -82 -171t-166.5 -135t-238.5 -89t-299 -32q-166 0 -306 35.5t-241.5 110.5t-158.5 189.5t-57 273.5q0 140 46 308h198q-11 -68 -11 -125q0 -133 53.5 -222.5t140 -143.5t197.5 -77.5t227 -23.5q103 0 176.5 6.5t127.5 20t95 32t78 42.5
q-14 51 -32 87t-37.5 66t-41 58t-44.5 59q-3 4 -6 9t-6 8l-6 6l202 187q37 -51 85 -91q43 -32 102.5 -59.5t136.5 -27.5h262q30 57 46 121t16 135q0 63 -15 130.5t-47 134.5h271q35 -94 35 -208q0 -145 -52 -304.5t-140 -325.5h-408zM1881 -237l140 153l187 -155l-137 -158z
" />
    <glyph glyph-name="uniFE91_uniFEF2.liga" unicode="&#xfe91;&#xfef2;" horiz-adv-x="2415" 
d="M461 -629l141 153l179 -147l131 142l186 -155l-136 -158l-183 154l-127 -149zM1706 0q-50 0 -100 16q-18 -93 -82 -171t-166.5 -135t-238.5 -89t-299 -32q-166 0 -306 35.5t-241.5 110.5t-158.5 189.5t-57 273.5q0 140 46 308h198q-11 -68 -11 -125q0 -133 53.5 -222.5
t140 -143.5t197.5 -77.5t227 -23.5q103 0 176.5 6.5t127.5 20t95 32t78 42.5q-14 51 -32 87t-37.5 66t-41 58t-44.5 59q-3 4 -6 9t-6 8l-6 6l202 187q37 -51 85 -91q43 -32 102.5 -59.5t136.5 -27.5h262q30 57 46 121t16 135q0 63 -15 130.5t-47 134.5h271q35 -94 35 -208
q0 -145 -52 -304.5t-140 -325.5h-408zM1881 -237l140 153l187 -155l-137 -158z" />
    <glyph glyph-name="uniFE97_uniFEE4.liga" unicode="&#xfe97;&#xfee4;" horiz-adv-x="2050" 
d="M1380 1161l140 153l179 -150l131 144l186 -155l-136 -158l-183 153l-126 -148zM705 595q-46 0 -91 -40t-92 -99q76 -52 176 -89t190 -70q24 54 24 109q0 79 -51 134t-156 55zM1339 0q-197 2 -259 201q-37 -63 -87.5 -124.5t-116.5 -119.5q-68 18 -135.5 50t-130.5 71.5
t-122 85t-109 92.5q-37 -51 -76.5 -97.5t-80.5 -81t-86 -56t-91 -21.5h-118l56 317h82q67 0 125 40t113 100t110 129t114.5 128.5t129 100t153.5 40.5q91 0 159.5 -26t114 -72t67.5 -108.5t22 -135.5q0 -13 -1 -24.5t-2 -23.5q12 -41 37.5 -69.5t55.5 -45.5t61 -25t56 -8
h239q30 57 46 121t16 135q0 63 -15 130.5t-47 134.5h270q36 -94 36 -208q0 -145 -52.5 -304.5t-139.5 -325.5h-394z" />
    <glyph glyph-name="uniFE98_uniFEE6.liga" unicode="&#xfe98;&#xfee6;" horiz-adv-x="2342" 
d="M1638 1161l141 153l178 -150l131 144l187 -155l-136 -158l-184 153l-126 -148zM399 774l140 153l186 -154l-136 -159zM1474 0q-52 1 -126 36q-76 37 -147 106q-15 -110 -57.5 -210.5t-117.5 -176.5t-186 -121t-262 -45q-116 0 -211 33t-162 95.5t-103.5 152t-36.5 203.5
q0 155 69 340h214q-44 -135 -44 -228q0 -135 80 -197.5t228 -62.5q91 0 169 20.5t136 65.5t91 115t33 169q0 20 -1 39.5t-1 39.5l-162 313l242 96l99 -233q49 -114 114 -173.5t138 -59.5h127q123 0 190.5 71t71.5 205v245h226v-229q0 -91 10 -147t35.5 -88t66.5 -44.5
t102 -12.5h123l-56 -317h-82q-244 0 -349 196q-69 -97 -160.5 -146.5t-186.5 -49.5h-114z" />
    <glyph glyph-name="uniFE97_uniFEF0.liga" unicode="&#xfe97;&#xfef0;" horiz-adv-x="2432" 
d="M1762 1161l140 153l178 -150l132 144l185 -155l-135 -158l-183 153l-127 -148zM1706 0q-50 0 -100 16q-18 -93 -82 -171t-166.5 -135t-238.5 -89t-299 -32q-166 0 -306 35.5t-241.5 110.5t-158.5 189.5t-57 273.5q0 140 46 308h198q-11 -68 -11 -125q0 -133 53.5 -222.5
t140 -143.5t197.5 -77.5t227 -23.5q103 0 176.5 6.5t127.5 20t95 32t78 42.5q-14 51 -32 87t-37.5 66t-41 58t-44.5 59q-3 4 -6 9t-6 8l-6 6l202 187q37 -51 85 -91q43 -32 102.5 -59.5t136.5 -27.5h262q30 57 46 121t16 135q0 63 -15 130.5t-47 134.5h271q35 -94 35 -208
q0 -145 -52 -304.5t-140 -325.5h-408z" />
    <glyph glyph-name="uniFE97_uniFEF2.liga" unicode="&#xfe97;&#xfef2;" horiz-adv-x="2432" 
d="M461 -629l141 153l179 -147l131 142l186 -155l-136 -158l-183 154l-127 -149zM1762 1161l140 153l178 -150l132 144l185 -155l-135 -158l-183 153l-127 -148zM1706 0q-50 0 -100 16q-18 -93 -82 -171t-166.5 -135t-238.5 -89t-299 -32q-166 0 -306 35.5t-241.5 110.5
t-158.5 189.5t-57 273.5q0 140 46 308h198q-11 -68 -11 -125q0 -133 53.5 -222.5t140 -143.5t197.5 -77.5t227 -23.5q103 0 176.5 6.5t127.5 20t95 32t78 42.5q-14 51 -32 87t-37.5 66t-41 58t-44.5 59q-3 4 -6 9t-6 8l-6 6l202 187q37 -51 85 -91q43 -32 102.5 -59.5
t136.5 -27.5h262q30 57 46 121t16 135q0 63 -15 130.5t-47 134.5h271q35 -94 35 -208q0 -145 -52 -304.5t-140 -325.5h-408z" />
    <glyph glyph-name="uniFE9C_uniFEAE.liga" unicode="&#xfe9c;&#xfeae;" horiz-adv-x="2045" 
d="M1338 1161l141 153l178 -150l131 144l187 -155l-137 -158l-183 153l-126 -148zM1493 1398l127 138l153 -128l-121 -143zM1155 0q-90 0 -164.5 59t-139.5 183q-25 -93 -66 -186t-95 -179t-118.5 -159.5t-135.5 -128.5h-436v68q118 63 234.5 160t213.5 205t160 219.5
t75 206.5q0 2 -6 9.5t-23.5 44.5t-55 114.5t-100.5 221.5h280q16 -44 29.5 -80t22.5 -67l56 -141q26 -67 61.5 -112.5t73 -71.5t76.5 -37.5t75 -11.5h125q123 0 190.5 71t71.5 205v245h226v-229q0 -91 10 -147t35.5 -88t66.5 -44.5t102 -12.5h123l-56 -317h-82
q-244 0 -349 196q-69 -97 -160.5 -146.5t-186.5 -49.5h-133z" />
    <glyph glyph-name="uniFE9B_uniFEE4.liga" unicode="&#xfe9b;&#xfee4;" horiz-adv-x="2050" 
d="M1380 1161l140 153l179 -150l131 144l186 -155l-136 -158l-183 153l-126 -148zM1535 1398l127 138l153 -128l-122 -143zM705 595q-46 0 -91 -40t-92 -99q76 -52 176 -89t190 -70q24 54 24 109q0 79 -51 134t-156 55zM1339 0q-197 2 -259 201q-37 -63 -87.5 -124.5
t-116.5 -119.5q-68 18 -135.5 50t-130.5 71.5t-122 85t-109 92.5q-37 -51 -76.5 -97.5t-80.5 -81t-86 -56t-91 -21.5h-118l56 317h82q67 0 125 40t113 100t110 129t114.5 128.5t129 100t153.5 40.5q91 0 159.5 -26t114 -72t67.5 -108.5t22 -135.5q0 -13 -1 -24.5t-2 -23.5
q12 -41 37.5 -69.5t55.5 -45.5t61 -25t56 -8h239q30 57 46 121t16 135q0 63 -15 130.5t-47 134.5h270q36 -94 36 -208q0 -145 -52.5 -304.5t-139.5 -325.5h-394z" />
    <glyph glyph-name="uniFE9C_uniFEE6.liga" unicode="&#xfe9c;&#xfee6;" horiz-adv-x="2342" 
d="M1638 1161l141 153l178 -150l131 144l187 -155l-136 -158l-184 153l-126 -148zM1793 1398l127 138l153 -128l-121 -143zM399 774l140 153l186 -154l-136 -159zM1474 0q-52 1 -126 36q-76 37 -147 106q-15 -110 -57.5 -210.5t-117.5 -176.5t-186 -121t-262 -45
q-116 0 -211 33t-162 95.5t-103.5 152t-36.5 203.5q0 155 69 340h214q-44 -135 -44 -228q0 -135 80 -197.5t228 -62.5q91 0 169 20.5t136 65.5t91 115t33 169q0 20 -1 39.5t-1 39.5l-162 313l242 96l99 -233q49 -114 114 -173.5t138 -59.5h127q123 0 190.5 71t71.5 205v245
h226v-229q0 -91 10 -147t35.5 -88t66.5 -44.5t102 -12.5h123l-56 -317h-82q-244 0 -349 196q-69 -97 -160.5 -146.5t-186.5 -49.5h-114z" />
    <glyph glyph-name="uniFE9B_uniFEF0.liga" unicode="&#xfe9b;&#xfef0;" horiz-adv-x="2432" 
d="M1916 1398l127 138l153 -128l-121 -143zM1762 1161l140 153l178 -150l132 144l185 -155l-135 -158l-183 153l-127 -148zM1706 0q-50 0 -100 16q-18 -93 -82 -171t-166.5 -135t-238.5 -89t-299 -32q-166 0 -306 35.5t-241.5 110.5t-158.5 189.5t-57 273.5q0 140 46 308
h198q-11 -68 -11 -125q0 -133 53.5 -222.5t140 -143.5t197.5 -77.5t227 -23.5q103 0 176.5 6.5t127.5 20t95 32t78 42.5q-14 51 -32 87t-37.5 66t-41 58t-44.5 59q-3 4 -6 9t-6 8l-6 6l202 187q37 -51 85 -91q43 -32 102.5 -59.5t136.5 -27.5h262q30 57 46 121t16 135
q0 63 -15 130.5t-47 134.5h271q35 -94 35 -208q0 -145 -52 -304.5t-140 -325.5h-408z" />
    <glyph glyph-name="uniFE9B_uniFEF2.liga" unicode="&#xfe9b;&#xfef2;" horiz-adv-x="2432" 
d="M461 -629l141 153l179 -147l131 142l186 -155l-136 -158l-183 154l-127 -149zM1916 1398l127 138l153 -128l-121 -143zM1762 1161l140 153l178 -150l132 144l185 -155l-135 -158l-183 153l-127 -148zM1706 0q-50 0 -100 16q-18 -93 -82 -171t-166.5 -135t-238.5 -89
t-299 -32q-166 0 -306 35.5t-241.5 110.5t-158.5 189.5t-57 273.5q0 140 46 308h198q-11 -68 -11 -125q0 -133 53.5 -222.5t140 -143.5t197.5 -77.5t227 -23.5q103 0 176.5 6.5t127.5 20t95 32t78 42.5q-14 51 -32 87t-37.5 66t-41 58t-44.5 59q-3 4 -6 9t-6 8l-6 6l202 187
q37 -51 85 -91q43 -32 102.5 -59.5t136.5 -27.5h262q30 57 46 121t16 135q0 63 -15 130.5t-47 134.5h271q35 -94 35 -208q0 -145 -52 -304.5t-140 -325.5h-408z" />
    <glyph glyph-name="uniFEDB_uniFEF0.liga" unicode="&#xfedb;&#xfef0;" horiz-adv-x="2721" 
d="M1706 0q-50 0 -100 16q-18 -93 -82 -171t-166.5 -135t-238.5 -89t-299 -32q-166 0 -306 35.5t-241.5 110.5t-158.5 189.5t-57 273.5q0 140 46 308h198q-11 -68 -11 -125q0 -133 53.5 -222.5t140 -143.5t197.5 -77.5t227 -23.5q103 0 176.5 6.5t127.5 20t95 32t78 42.5
q-14 51 -32 87t-37.5 66t-41 58t-44.5 59q-3 4 -6 9t-6 8l-6 6l202 187q37 -51 85 -91q43 -32 102.5 -59.5t136.5 -27.5h122q155 0 276.5 38.5t177.5 86.5l-399 377q-34 32 -60 79.5t-26 101.5q0 52 18 95q30 73 101.5 135.5t163 114t194 91.5t196.5 68l244 -245
q-114 -20 -207 -44t-173.5 -53.5t-153.5 -65t-148 -79.5l390 -358q20 -19 37.5 -43.5t32 -51t21.5 -53t7 -48.5q0 -77 -41.5 -158t-121 -149.5t-194.5 -112t-262 -43.5h-227z" />
    <glyph glyph-name="uniFEDC_uniFEF0.liga" unicode="&#xfedc;&#xfef0;" horiz-adv-x="2938" 
d="M1706 0q-50 0 -100 16q-18 -93 -82 -171t-166.5 -135t-238.5 -89t-299 -32q-166 0 -306 35.5t-241.5 110.5t-158.5 189.5t-57 273.5q0 140 46 308h198q-11 -68 -11 -125q0 -133 53.5 -222.5t140 -143.5t197.5 -77.5t227 -23.5q103 0 176.5 6.5t127.5 20t95 32t78 42.5
q-14 51 -32 87t-37.5 66t-41 58t-44.5 59q-3 4 -6 9t-6 8l-6 6l202 187q37 -51 85 -91q43 -32 102.5 -59.5t136.5 -27.5h122q153 0 246.5 37.5t149.5 85.5l-341 379q-34 32 -60 79.5t-26 101.5q0 32 9 60t24 54q41 69 124 129t184 109t208 86.5t197 65.5l244 -245
q-229 -43 -417 -98t-338 -144l333 -358q36 -36 88.5 -94t112 -113t124 -95t124.5 -40h169l-55 -317h-113q-52 0 -105 20.5t-105.5 56t-104 79.5t-97.5 92q-32 -50 -77.5 -95.5t-108 -79.5t-141 -53.5t-175.5 -19.5h-227z" />
    <glyph glyph-name="uniFEDB_uniFEF2.liga" unicode="&#xfedb;&#xfef2;" horiz-adv-x="2721" 
d="M461 -629l141 153l179 -147l131 142l186 -155l-136 -158l-183 154l-127 -149zM1706 0q-50 0 -100 16q-18 -93 -82 -171t-166.5 -135t-238.5 -89t-299 -32q-166 0 -306 35.5t-241.5 110.5t-158.5 189.5t-57 273.5q0 140 46 308h198q-11 -68 -11 -125q0 -133 53.5 -222.5
t140 -143.5t197.5 -77.5t227 -23.5q103 0 176.5 6.5t127.5 20t95 32t78 42.5q-14 51 -32 87t-37.5 66t-41 58t-44.5 59q-3 4 -6 9t-6 8l-6 6l202 187q37 -51 85 -91q43 -32 102.5 -59.5t136.5 -27.5h122q155 0 276.5 38.5t177.5 86.5l-399 377q-34 32 -60 79.5t-26 101.5
q0 52 18 95q30 73 101.5 135.5t163 114t194 91.5t196.5 68l244 -245q-114 -20 -207 -44t-173.5 -53.5t-153.5 -65t-148 -79.5l390 -358q20 -19 37.5 -43.5t32 -51t21.5 -53t7 -48.5q0 -77 -41.5 -158t-121 -149.5t-194.5 -112t-262 -43.5h-227z" />
    <glyph glyph-name="uniFEDC_uniFEF2.liga" unicode="&#xfedc;&#xfef2;" horiz-adv-x="2938" 
d="M461 -629l141 153l179 -147l131 142l186 -155l-136 -158l-183 154l-127 -149zM1706 0q-50 0 -100 16q-18 -93 -82 -171t-166.5 -135t-238.5 -89t-299 -32q-166 0 -306 35.5t-241.5 110.5t-158.5 189.5t-57 273.5q0 140 46 308h198q-11 -68 -11 -125q0 -133 53.5 -222.5
t140 -143.5t197.5 -77.5t227 -23.5q103 0 176.5 6.5t127.5 20t95 32t78 42.5q-14 51 -32 87t-37.5 66t-41 58t-44.5 59q-3 4 -6 9t-6 8l-6 6l202 187q37 -51 85 -91q43 -32 102.5 -59.5t136.5 -27.5h122q153 0 246.5 37.5t149.5 85.5l-341 379q-34 32 -60 79.5t-26 101.5
q0 32 9 60t24 54q41 69 124 129t184 109t208 86.5t197 65.5l244 -245q-229 -43 -417 -98t-338 -144l333 -358q36 -36 88.5 -94t112 -113t124 -95t124.5 -40h169l-55 -317h-113q-52 0 -105 20.5t-105.5 56t-104 79.5t-97.5 92q-32 -50 -77.5 -95.5t-108 -79.5t-141 -53.5
t-175.5 -19.5h-227z" />
    <glyph glyph-name="uniFEDF_uniFB51.rlig" unicode="&#xfedf;&#xfb51;" horiz-adv-x="1259" 
d="M151 267q108 0 200 6.5t171 21.5q-112 285 -247 536t-293 488h356q117 -203 215 -443t166 -511q87 51 128 133t35 209l-35 746l300 43l-17 -714q-2 -99 -28.5 -197t-72.5 -186.5t-108.5 -164t-136.5 -131t-156 -87t-167 -31.5q-109 0 -186.5 23.5t-123.5 43.5v215z
M-96 1507q12 24 31 45.5t40.5 37.5t41.5 25t34 9q19 0 33.5 -5.5t33.5 -15.5q74 103 144.5 165t148.5 62q41 0 73.5 -17t53.5 -46.5t31.5 -67.5t10.5 -77q0 -97 -64.5 -151.5t-162.5 -54.5q-50 0 -98.5 9.5t-89 22.5t-71 27t-45.5 25q-25 -10 -45 -28t-44 -62zM172 1574
q38 -19 84.5 -30.5t98.5 -11.5q26 0 53.5 5.5t51 15.5t38.5 24.5t15 31.5q-12 44 -45.5 73.5t-76.5 29.5q-55 0 -109.5 -36t-109.5 -102z" />
    <glyph glyph-name="uniFEE0_uniFB51.rlig" unicode="&#xfee0;&#xfb51;" horiz-adv-x="1322" 
d="M150 267q220 0 372 28q-114 285 -247.5 535t-292.5 489h355q119 -207 218 -448.5t168 -516.5q151 75 155 212l-32 887l301 43l-18 -1113q71 -66 174 -66h95l-55 -317h-128q-119 0 -206.5 63.5t-114.5 173.5q-43 -52 -93.5 -98t-106 -80t-114 -54t-120.5 -20
q-109 0 -186.5 23.5t-123.5 43.5v215zM-96 1507q12 24 31 45.5t40.5 37.5t41.5 25t34 9q19 0 33.5 -5.5t33.5 -15.5q74 103 144.5 165t148.5 62q41 0 73.5 -17t53.5 -46.5t31.5 -67.5t10.5 -77q0 -97 -64.5 -151.5t-162.5 -54.5q-50 0 -98.5 9.5t-89 22.5t-71 27t-45.5 25
q-25 -10 -45 -28t-44 -62zM172 1574q38 -19 84.5 -30.5t98.5 -11.5q26 0 53.5 5.5t51 15.5t38.5 24.5t15 31.5q-12 44 -45.5 73.5t-76.5 29.5q-55 0 -109.5 -36t-109.5 -102z" />
    <glyph glyph-name="uniFEDF_uniFEE2.liga" unicode="&#xfedf;&#xfee2;" horiz-adv-x="2003" 
d="M602 595q-41 0 -89.5 -44t-92.5 -106q75 -59 171 -112t186 -87q49 75 49 149q0 86 -61.5 143t-162.5 57zM1244 0q-103 0 -167.5 51.5t-95.5 153.5q-75 -132 -208 -248q-129 36 -250 110.5t-220 162.5q-24 -64 -24 -96q0 -47 13 -112t33.5 -138.5t44 -149.5t43.5 -145
h-335q-8 77 -12 142.5t-6.5 127t-3.5 124.5t-1 140q0 67 25 147.5t70 161.5t105.5 157.5t133 135t153.5 94.5t164 36q91 0 159.5 -26t114 -72t68 -108.5t22.5 -135.5q0 -9 -1 -19.5t-1 -19.5q11 -45 36.5 -74.5t56 -47.5t62.5 -26.5t58 -8.5h98q44 0 87.5 10.5t76.5 34.5
t53 63.5t20 96.5l-32 933l300 44l-18 -1033q-2 -115 -40 -201.5t-103 -145.5t-152.5 -89t-189.5 -30h-137z" />
    <glyph glyph-name="uniFEE4_uniFE8E.liga" unicode="&#xfee4;&#xfe8e;" horiz-adv-x="1979" 
d="M1286 595q-46 0 -90.5 -40t-92.5 -99q77 -52 176.5 -89t189.5 -70q24 54 24 109q0 79 -51 134t-156 55zM462 0q-68 0 -126.5 21.5t-102.5 61.5t-71 96t-29 125l-41 1149l301 43l-18 -1113q71 -66 174 -66h98q66 0 124 40t113 100t110 129t115 128.5t129 100t153 40.5
q91 0 159.5 -26t114 -72t68 -108.5t22.5 -135.5q0 -13 -1 -24.5t-3 -23.5q13 -41 38.5 -69.5t55 -45.5t60.5 -25t56 -8h96l-56 -317h-77q-199 0 -262 201q-38 -63 -88.5 -124.5t-115.5 -119.5q-69 18 -136.5 50t-130.5 71.5t-122 85t-109 92.5q-37 -51 -76 -97.5t-80 -81
t-86.5 -56t-91.5 -21.5h-164z" />
    <glyph glyph-name="uniFEE4_uniFE82.liga" unicode="&#xfee4;&#xfe82;" horiz-adv-x="1995" 
d="M527 1684q-32 -30 -72 -47t-90 -17q-27 0 -64 7t-73.5 15.5t-68 16t-47.5 7.5q-42 -19 -91 -99l-78 131q26 54 73.5 87t86.5 33q29 0 67 -10t77 -21.5t77.5 -21t66.5 -9.5q33 0 75.5 13t73.5 28zM1306 595q-47 0 -91.5 -40t-91.5 -99q76 -52 176 -89t190 -70
q24 54 24 109q0 79 -51 134t-156 55zM481 0q-68 0 -126.5 21.5t-102.5 61.5t-71.5 96t-28.5 125l-41 1149l300 43l-16 -1113q70 -66 173 -66h98q67 0 125 40t113 100t110 129t114.5 128.5t129 100t153.5 40.5q91 0 159 -26t114 -72t68 -108.5t22 -135.5q0 -13 -1 -24.5
t-2 -23.5q12 -41 37.5 -69.5t55.5 -45.5t60.5 -25t56.5 -8h96l-57 -317h-76q-200 0 -263 201q-37 -63 -87.5 -124.5t-116.5 -119.5q-68 18 -135.5 50t-131 71.5t-122 85t-108.5 92.5q-38 -51 -77 -97.5t-80 -81t-86 -56t-92 -21.5h-164z" />
    <glyph glyph-name="uniFEE4_uniFE84.liga" unicode="&#xfee4;&#xfe84;" horiz-adv-x="2011" 
d="M443 1695q-29 -2 -71.5 -9t-93 -16t-105 -21.5t-104.5 -25.5q4 10 10 28.5t15 36.5q7 21 14 44l132 11q-53 9 -90.5 34t-37.5 51q0 47 26 87t67.5 70t91.5 49.5t100 27.5l47 -132q-80 -2 -130.5 -21.5t-71.5 -51.5q17 -25 56.5 -35t78.5 -14q46 -6 101 -2zM1323 595
q-46 0 -90.5 -40t-92.5 -99q77 -52 176.5 -89t190.5 -70q23 54 23 109q0 79 -51 134t-156 55zM496 0q-67 0 -126 21.5t-102.5 61.5t-70.5 96t-29 125l-42 1149l301 43l-16 -1113q71 -66 173 -66h100q66 0 124 40t113 100t110.5 129t115 128.5t128.5 100t153 40.5
q91 0 159.5 -26t114 -72t68 -108.5t22.5 -135.5q0 -13 -1 -24.5t-3 -23.5q13 -41 38.5 -69.5t55 -45.5t60.5 -25t57 -8h95l-56 -317h-77q-199 0 -262 201q-38 -63 -88.5 -124.5t-115.5 -119.5q-69 18 -136 50t-130.5 71.5t-122.5 85t-109 92.5q-37 -51 -76 -97.5t-80 -81
t-86.5 -56t-91.5 -21.5h-167z" />
    <glyph glyph-name="uniFEE4_uniFE88.liga" unicode="&#xfee4;&#xfe88;" horiz-adv-x="2009" 
d="M496 -422q-28 -2 -71 -8t-93.5 -16t-104.5 -21.5t-105 -25.5q4 10 11 29t14 37q7 21 15 43l133 10q-55 10 -92.5 35.5t-37.5 51.5q0 46 26.5 86.5t67.5 70t91 49t101 27.5l47 -133q-80 -2 -130.5 -21.5t-71.5 -51.5q17 -23 56 -33.5t78 -14.5q47 -5 102 -2zM1314 595
q-46 0 -91 -40t-92 -99q77 -52 176.5 -89t189.5 -70q24 54 24 109q0 79 -51 134t-156 55zM487 0q-68 0 -126.5 21.5t-102.5 61.5t-71 96t-29 125l-41 1149l301 43l-18 -1113q71 -66 174 -66h101q66 0 124 40t113 100t110 129t115 128.5t129 100t153 40.5q91 0 159.5 -26
t114 -72t67.5 -108.5t22 -135.5q0 -13 -0.5 -24.5t-2.5 -23.5q12 -41 37.5 -69.5t55.5 -45.5t61 -25t56 -8h96l-57 -317h-76q-200 0 -263 201q-37 -63 -87.5 -124.5t-116.5 -119.5q-68 18 -135.5 50t-130.5 71.5t-122 85t-109 92.5q-37 -51 -76.5 -97.5t-80.5 -81t-86 -56
t-91 -21.5h-167z" />
    <glyph glyph-name="uniFEE8_uniFEAE.liga" unicode="&#xfee8;&#xfeae;" horiz-adv-x="2024" 
d="M1477 1136l140 153l187 -155l-137 -158zM1155 0q-90 0 -164.5 59t-139.5 183q-25 -93 -66 -186t-95 -179t-118.5 -159.5t-135.5 -128.5h-436v68q118 63 234.5 160t213.5 205t160 219.5t75 206.5q0 2 -6 9.5t-23.5 44.5t-55 114.5t-100.5 221.5h280q16 -44 29.5 -80
t22.5 -67l56 -141q26 -67 61.5 -112.5t73 -71.5t76.5 -37.5t75 -11.5h107q123 0 190.5 71t71.5 205v245h225v-229q0 -91 10.5 -147t36 -88t66.5 -44.5t102 -12.5h123l-56 -317h-82q-244 0 -349 196q-69 -97 -160.5 -146.5t-186.5 -49.5h-115z" />
    <glyph glyph-name="uniFEE7_uniFEE4.liga" unicode="&#xfee7;&#xfee4;" horiz-adv-x="2016" 
d="M705 595q-46 0 -91 -40t-92 -99q76 -52 176 -89t190 -70q24 54 24 109q0 79 -51 134t-156 55zM1339 0q-197 2 -259 201q-37 -63 -87.5 -124.5t-116.5 -119.5q-68 18 -135.5 50t-130.5 71.5t-122 85t-109 92.5q-37 -51 -76.5 -97.5t-80.5 -81t-86 -56t-91 -21.5h-118
l56 317h82q67 0 125 40t113 100t110 129t114.5 128.5t129 100t153.5 40.5q91 0 159.5 -26t114 -72t67.5 -108.5t22 -135.5q0 -13 -1 -24.5t-2 -23.5q12 -41 37.5 -69.5t55.5 -45.5t61 -25t56 -8h239q30 57 46 121t16 135q0 63 -15 130.5t-47 134.5h270q36 -94 36 -208
q0 -145 -52.5 -304.5t-139.5 -325.5h-394zM1509 1132l140 153l187 -154l-137 -159z" />
    <glyph glyph-name="uniFEE7_uniFEF0.liga" unicode="&#xfee7;&#xfef0;" horiz-adv-x="2426" 
d="M1706 0q-50 0 -100 16q-18 -93 -82 -171t-166.5 -135t-238.5 -89t-299 -32q-166 0 -306 35.5t-241.5 110.5t-158.5 189.5t-57 273.5q0 140 46 308h198q-11 -68 -11 -125q0 -133 53.5 -222.5t140 -143.5t197.5 -77.5t227 -23.5q103 0 176.5 6.5t127.5 20t95 32t78 42.5
q-14 51 -32 87t-37.5 66t-41 58t-44.5 59q-3 4 -6 9t-6 8l-6 6l202 187q37 -51 85 -91q43 -32 102.5 -59.5t136.5 -27.5h262q30 57 46 121t16 135q0 63 -15 130.5t-47 134.5h271q35 -94 35 -208q0 -145 -52 -304.5t-140 -325.5h-408zM1890 1132l140 153l187 -154l-137 -159z
" />
    <glyph glyph-name="uniFEE7_uniFEF2.liga" unicode="&#xfee7;&#xfef2;" horiz-adv-x="2426" 
d="M461 -629l141 153l179 -147l131 142l186 -155l-136 -158l-183 154l-127 -149zM1706 0q-50 0 -100 16q-18 -93 -82 -171t-166.5 -135t-238.5 -89t-299 -32q-166 0 -306 35.5t-241.5 110.5t-158.5 189.5t-57 273.5q0 140 46 308h198q-11 -68 -11 -125q0 -133 53.5 -222.5
t140 -143.5t197.5 -77.5t227 -23.5q103 0 176.5 6.5t127.5 20t95 32t78 42.5q-14 51 -32 87t-37.5 66t-41 58t-44.5 59q-3 4 -6 9t-6 8l-6 6l202 187q37 -51 85 -91q43 -32 102.5 -59.5t136.5 -27.5h262q30 57 46 121t16 135q0 63 -15 130.5t-47 134.5h271q35 -94 35 -208
q0 -145 -52 -304.5t-140 -325.5h-408zM1890 1132l140 153l187 -154l-137 -159z" />
    <glyph glyph-name="uniFEF4_uniFEAE.liga" unicode="&#xfef4;&#xfeae;" horiz-adv-x="2021" 
d="M1238 -231l139 153l180 -148l130 142l187 -155l-137 -158l-182 155l-127 -150zM1155 0q-90 0 -164.5 59t-139.5 183q-25 -93 -66 -186t-95 -179t-118.5 -159.5t-135.5 -128.5h-436v68q118 63 234.5 160t213.5 205t160 219.5t75 206.5q0 2 -6 9.5t-23.5 44.5t-55 114.5
t-100.5 221.5h280q16 -44 29.5 -80t22.5 -67l56 -141q26 -67 61.5 -112.5t73 -71.5t76.5 -37.5t75 -11.5h107q123 0 190.5 71t71.5 205v245h225v-229q0 -91 10.5 -147t36 -88t66.5 -44.5t102 -12.5h123l-56 -317h-82q-244 0 -349 196q-69 -97 -160.5 -146.5t-186.5 -49.5
h-115z" />
    <glyph glyph-name="uniFEF3_uniFEE4.liga" unicode="&#xfef3;&#xfee4;" horiz-adv-x="2048" 
d="M705 595q-46 0 -91 -40t-92 -99q76 -52 176 -89t190 -70q24 54 24 109q0 79 -51 134t-156 55zM1304 -231l141 153l178 -148l132 142l185 -155l-135 -158l-183 155l-127 -150zM1338 0q-196 3 -258 201q-37 -63 -87.5 -124.5t-116.5 -119.5q-68 18 -135.5 50t-130.5 71.5
t-122 85t-109 92.5q-37 -51 -76.5 -97.5t-80.5 -81t-86 -56t-91 -21.5h-118l56 317h82q67 0 125 40t113 100t110 129t114.5 128.5t129 100t153.5 40.5q91 0 159.5 -26t114 -72t67.5 -108.5t22 -135.5q0 -13 -1 -24.5t-2 -23.5q12 -41 37.5 -69.5t55.5 -45.5t61 -25t56 -8
h265q30 57 46 121t16 135q0 63 -15 130.5t-47 134.5h271q35 -94 35 -208q0 -145 -52 -304.5t-140 -325.5h-421z" />
    <glyph glyph-name="uniFEF4_uniFEE6.liga" unicode="&#xfef4;&#xfee6;" horiz-adv-x="2313" 
d="M399 774l140 153l186 -154l-136 -159zM1529 -231l139 153l180 -148l130 142l187 -155l-137 -158l-182 155l-127 -150zM1447 3q-44 6 -99 33q-76 37 -147 106q-15 -110 -57.5 -210.5t-117.5 -176.5t-186 -121t-262 -45q-116 0 -211 33t-162 95.5t-103.5 152t-36.5 203.5
q0 155 69 340h214q-44 -135 -44 -228q0 -135 80 -197.5t228 -62.5q91 0 169 20.5t136 65.5t91 115t33 169q0 20 -1 39.5t-1 39.5l-162 313l242 96l99 -233q49 -114 114 -173.5t138 -59.5h100q123 0 190.5 71t70.5 205v245h226v-229q0 -91 10 -147t35.5 -88t66.5 -44.5
t103 -12.5h123l-56 -317h-82q-244 0 -349 196q-69 -97 -160.5 -146.5t-186.5 -49.5h-114v3z" />
    <glyph glyph-name="T_h.liga" unicode="Th" horiz-adv-x="2499" 
d="M2462 114q0 -67 -14 -114h-532q-12 61 -8 114l66 30q32 15 35 66l4 400q0 109 -19 152q-28 66 -118 66q-145 0 -229 -32v-285l4 -274q0 -69 30 -84l67 -35q0 -73 -12 -118h-535q-10 37 -10 110l94 30q42 14 45 72l5 299v614l-513 25v-641l9 -283q0 -59 40 -67l158 -34
q0 -98 -7 -125h-713q-12 62 -7 125l120 35q71 22 76 129l6 220v641l-219 -14q-119 -7 -155 -192q-47 -17 -123 5v370h1184q256 50 374 50q75 0 75 -64v-385q164 125 336 125q232 0 302 -95q47 -62 47 -239v-200l5 -308q0 -53 26 -59z" />
    <glyph glyph-name="f_b.liga" unicode="fb" horiz-adv-x="2001" 
d="M1780 146q-164 -159 -414 -159q-247 0 -436 54l11 489v654q-133 102 -243 100q-199 -6 -199 -164v-101h222v-150h-222v-339l7 -288q0 -73 84 -89q84 -32 97 -35q0 -79 -17 -118h-623q-7 41 -7 114q21 7 89 24q48 14 53 112l3 280v339h-149v116l149 34v28q0 152 170 274
q163 118 347 118q135 0 235 -34q111 21 208 21q63 0 84 -22t21 -88v-788l8 -334q65 -9 114 -9q115 0 181 102q60 96 60 249q0 313 -206 313q-43 0 -82 -5l-26 153q96 41 172 41q245 0 352 -99q122 -112 122 -391q0 -243 -165 -402z" />
    <glyph glyph-name="f_f_b.liga" unicode="ffb" horiz-adv-x="2715" 
d="M1649 41l11 489v668q-130 107 -230 105q-201 -6 -201 -165v-119h212v-150h-212v-339l9 -288q0 -73 83 -89l131 -35q0 -79 -17 -118h-657q-13 56 -7 114q20 7 89 24q49 14 52 112l4 280v339h-412v-339l8 -288q0 -58 83 -89l96 -34q-13 -92 -25 -119h-614q-16 87 -7 114
q20 7 89 24q49 14 53 112l4 280v339h-150v116l150 34v28q0 152 169 274q163 118 347 118q276 0 364 -111q166 129 363 129q139 0 253 -47q95 16 177 16q65 0 85 -22q21 -22 21 -88v-788l8 -334q65 -9 114 -9q116 0 181 102q60 96 60 249q0 313 -206 313q-43 0 -82 -5
l-26 153q96 41 172 41q246 0 352 -99q121 -112 121 -391q0 -243 -164 -402q-165 -159 -414 -159q-247 0 -437 54zM916 1019v46q0 37 12 71q-129 139 -256 135q-71 -4 -119 -46q-49 -45 -49 -116v-90h412z" />
    <glyph glyph-name="f_f.liga" unicode="ff" horiz-adv-x="1531" 
d="M48 0q-12 82 -7 114l90 24q47 14 52 112l3 280v339h-149v116l149 34v28q0 152 170 274q163 118 347 118q249 0 347 -93q147 124 315 124q338 0 338 -149q0 -118 -140 -183q-118 170 -168 170q-70 0 -118 -44q-49 -46 -49 -119v-126h222v-150h-222v-339l7 -288
q0 -73 84 -89q174 -32 186 -35q0 -79 -16 -118h-713q-8 45 -8 114l90 24q48 13 53 112l3 280v339h-414v-339l7 -288q0 -74 86 -98l95 -26q0 -79 -17 -118h-623zM914 1019v65q0 28 6 56q-125 135 -253 131q-71 -4 -117 -46q-50 -45 -50 -116v-90h414z" />
    <glyph glyph-name="f_h.liga" unicode="fh" horiz-adv-x="2160" 
d="M47 0q-7 32 -7 114q21 7 76 18q66 19 66 118l3 280v339h-149v116l149 34v28q0 152 170 274q163 118 347 118q120 0 219 -29q133 19 249 19q73 0 73 -65v-444q164 125 336 125q234 0 304 -95q45 -61 45 -239v-200l6 -308q2 -53 25 -59l107 -30q0 -74 -15 -114h-532
q-12 61 -7 114l65 30q36 16 36 66l4 400q0 110 -19 152q-28 66 -118 66q-143 0 -230 -32v-285l4 -274q0 -73 55 -91l80 -28q0 -73 -11 -118h-553q-10 61 -7 110l67 22q48 16 48 80l6 299v676q-130 99 -241 97q-199 -6 -199 -164v-101h214v-150h-214v-339l7 -288
q0 -81 84 -96l97 -28q0 -79 -17 -118h-623z" />
    <glyph glyph-name="f_f_h.liga" unicode="ffh" horiz-adv-x="2841" 
d="M47 0q-10 53 -7 114q21 7 89 24q48 14 53 112l3 280v339h-149v116l149 34v28q0 152 170 274q163 118 347 118q276 0 363 -111q166 129 363 129q152 0 262 -43q131 15 217 15q73 0 73 -65v-444q164 125 336 125q234 0 304 -95q45 -61 45 -239v-200l6 -308q2 -53 25 -59
l107 -30q-8 -85 -15 -114h-532q-12 61 -7 114l65 30q36 16 36 66l4 400q0 110 -19 152q-28 66 -118 66q-143 0 -230 -32v-285l4 -274q0 -68 30 -84l68 -35q0 -73 -11 -118h-536q-12 37 -7 110l91 30q44 14 44 72l6 299v687q-140 107 -252 105q-199 -6 -199 -165v-119h225
v-150h-225v-339l7 -288q0 -88 91 -105q77 -16 90 -19q0 -79 -17 -118h-623q-7 52 -7 114q20 7 89 24q48 14 52 112l5 280v339h-413v-339l7 -288q0 -82 86 -98l95 -26q0 -79 -17 -118h-623zM912 1019v46q0 37 10 71q-128 139 -256 135q-71 -4 -118 -46q-49 -45 -49 -116v-90
h413z" />
    <glyph glyph-name="f_f_i.liga" unicode="ffi" horiz-adv-x="2152" 
d="M47 0q-10 53 -7 114q21 7 89 24q48 14 53 112l3 280v339h-149v116l149 34v28q0 152 170 274q163 118 347 118q287 0 368 -118q175 144 349 144q401 0 401 -160q0 -118 -140 -184q-43 62 -123 123q-76 59 -109 59q-102 0 -166 -60q-57 -56 -57 -134v-90h307q186 30 329 30
q96 0 96 -90v-448l5 -274q0 -76 29 -84l123 -35q0 -73 -11 -118h-591q-9 40 -9 118l93 31q43 14 44 73l6 289v358h-421v-339l7 -288q0 -76 65 -89l120 -35q0 -79 -17 -118h-614q-13 56 -8 114q21 7 77 24q48 14 52 112l5 280v339h-413v-339l7 -288q0 -82 86 -98l95 -26
q0 -79 -17 -118h-623zM912 1019v28q0 39 14 84q-130 144 -260 140q-71 -4 -118 -46q-49 -45 -49 -116v-90h413z" />
    <glyph glyph-name="f_j.liga" unicode="fj" horiz-adv-x="1410" 
d="M609 -377l89 249q85 -45 157 -45q105 0 105 155v887h-461v-339l7 -288q0 -63 84 -89l112 -35q0 -79 -16 -118h-639q-7 48 -7 114q21 7 89 24q48 14 53 112l3 280v339h-149v116l149 34v28q0 197 214 320q176 102 369 102q423 0 423 -150q0 -53 -28 -110q-30 -62 -73 -82
q-221 181 -255 181q-180 0 -258 -46q-78 -47 -78 -156v-87h352q183 30 323 30q97 0 97 -90l-1 -821q-2 -197 -166 -382q-156 -176 -294 -176q-121 0 -201 43z" />
    <glyph glyph-name="f_f_j.liga" unicode="ffj" horiz-adv-x="2068" 
d="M1268 -377l89 249q85 -45 157 -45q104 0 104 155v887h-393v-339l7 -288q0 -76 65 -89l137 -35q0 -79 -17 -118h-631q-10 47 -8 114q21 7 77 24q48 14 52 112l5 280v339h-413v-339l7 -288q0 -82 86 -98l95 -26q0 -79 -17 -118h-623q-10 53 -7 114q21 7 89 24q48 14 53 112
l3 280v339h-149v116l149 34v28q0 152 170 274q163 118 347 118q287 0 368 -118q175 144 349 144q401 0 401 -160q0 -118 -140 -184q-43 62 -123 123q-76 59 -109 59q-102 0 -166 -60q-57 -56 -57 -134v-90h285q182 30 323 30q97 0 97 -90l-2 -821q-2 -197 -166 -382
q-155 -176 -293 -176q-121 0 -201 43zM912 1019v28q0 39 14 84q-130 144 -260 140q-71 -4 -118 -46q-49 -45 -49 -116v-90h413z" />
    <glyph glyph-name="f_k.liga" unicode="fk" horiz-adv-x="1975" 
d="M1932 -39q-335 26 -515 281l-163 232l2 -237q4 -59 30 -84l46 -43q0 -65 -11 -110h-514q-8 36 -8 110l92 30q44 11 44 72l6 299v673q-133 102 -243 100q-199 -6 -199 -164v-101h222v-150h-222v-339l7 -288q3 -83 86 -98l95 -26q0 -79 -17 -118h-623q-10 54 -7 114
q21 7 89 24q48 14 53 112l3 280v339h-149v116l149 34v28q0 152 170 274q163 118 347 118q128 0 222 -31q129 18 232 18q98 0 98 -90v-768l271 231q26 20 26 48q0 31 -30 45l-61 32q0 63 9 95h431v-101l-390 -309l183 -226q189 -229 280 -264z" />
    <glyph glyph-name="f_f_k.liga" unicode="ffk" horiz-adv-x="2690" 
d="M2646 -39q-337 26 -515 281l-162 232l2 -237q3 -59 30 -84l47 -43q-3 -54 -12 -110h-515q-13 43 -7 110l91 30q45 11 45 72l6 299v687q-131 107 -232 105q-199 -6 -199 -165v-119h221v-150h-221v-339l7 -288q0 -83 86 -100l95 -24q0 -79 -17 -118h-623q-9 69 -7 114
q20 7 89 24q48 14 52 112l5 280v339h-413v-339l7 -288q0 -82 86 -98l95 -26q0 -79 -17 -118h-623q-10 53 -7 114q21 7 89 24q48 14 53 112l3 280v339h-149v116l149 34v28q0 152 170 274q163 118 347 118q276 0 363 -111q166 129 363 129q139 0 246 -45q105 14 196 14
q99 0 99 -90v-767l271 230q25 20 25 48q0 31 -29 45l-62 32q0 63 9 95h431v-101l-390 -309l183 -226q189 -229 280 -264zM912 1019v46q0 37 10 71q-128 139 -256 135q-71 -4 -118 -46q-49 -45 -49 -116v-90h413z" />
    <glyph glyph-name="f_f_l.liga" unicode="ffl" horiz-adv-x="2170" 
d="M47 0q-10 53 -7 114q21 7 89 24q48 14 53 112l3 280v339h-149v116l149 34v28q0 152 170 274q163 118 347 118q276 0 363 -111q166 129 363 129q154 0 263 -43q109 12 196 12q99 0 99 -90l1 -1099q4 -77 30 -84l123 -35q0 -73 -10 -118h-611q-7 30 -7 110l110 30
q45 12 45 72l5 299v689q-133 105 -248 103q-199 -6 -199 -165v-119h221v-150h-221v-339l7 -288q0 -83 84 -98l97 -26q0 -79 -17 -118h-623l-7 114q20 7 89 24q48 14 52 112l5 280v339h-413v-339l7 -288q0 -82 86 -98l95 -26q0 -79 -17 -118h-623zM912 1019v46q0 37 10 71
q-128 139 -256 135q-71 -4 -118 -46q-49 -45 -49 -116v-90h413z" />
    <glyph glyph-name="f_t.liga" unicode="ft" horiz-adv-x="1690" 
d="M848 982l347 246h73v-209h341v-187h-341v-314l7 -199q3 -86 129 -86q85 0 205 28l38 -138q-176 -144 -429 -144q-145 0 -208 74q-67 77 -65 260l6 519h-150v1h-302v-303l7 -288q0 -73 84 -89l187 -35q0 -53 -17 -118h-713q-7 35 -7 114q21 7 89 24q48 14 53 112l3 280
v303h-149v115l149 34v65q0 151 148 271q142 115 303 115q338 0 338 -149q0 -118 -139 -183q-118 170 -169 170q-70 0 -118 -45q-49 -45 -49 -117v-127h349z" />
    <glyph glyph-name="f_f_t.liga" unicode="fft" horiz-adv-x="2386" 
d="M911 982v64q0 45 12 87q-128 142 -257 138q-71 -4 -118 -46q-49 -45 -49 -116v-127h412zM1549 982l347 246h73v-209h342v-187h-342v-314l7 -199q3 -86 130 -86q85 0 205 28l37 -138q-176 -144 -429 -144q-145 0 -208 74q-66 77 -64 260l5 519h-149v1h-57v-1h-221v-302
l7 -288q0 -76 65 -89l120 -35q0 -79 -17 -118h-614q-13 56 -8 114q21 7 77 24q48 14 52 112v3l4 276v303h-150v1h-262v-303l7 -288q0 -82 86 -98l95 -26q0 -79 -17 -118h-623q-10 53 -7 114q21 7 89 24q48 14 53 112l3 280v303h-149v115l149 34v65q0 152 170 274
q163 118 347 118q282 0 365 -114q139 107 295 107q338 0 338 -149q0 -118 -140 -183q-118 170 -168 170q-71 0 -119 -45q-44 -41 -49 -104q1 -7 1 -12v-127h324z" />
    <glyph glyph-name="uni0647.fina" unicode="&#x647;" horiz-adv-x="1391" arabic-form="final" 
d="M103 317h274q15 148 86 311t205 339h217q69 -34 127 -75t98 -88t62 -97t22 -100q0 -77 -38 -151.5t-103.5 -142t-152 -124.5t-182.5 -98q49 -95 124.5 -161.5t168.5 -100.5v37q0 72 13.5 131t38.5 111t64 102.5t89 106.5h251l-57 -317h-98q-41 -28 -71 -94t-30 -152
q0 -36 5 -71l-317 -123q-185 63 -308.5 177t-177.5 268q-49 -5 -90 -5h-148zM767 769q-56 -116 -81 -220t-25 -195v-9q83 20 151.5 56.5t113.5 93.5q-6 76 -37 142t-122 132z" />
    <glyph glyph-name="uni0672.fina" unicode="&#x672;" horiz-adv-x="618" 
d="M639 0h-128q-66 0 -125 21.5t-103 61.5t-71 96t-29 125l-41 1149l301 43l-17 -1113q71 -66 174 -66h95zM556 2031q6 -10 43 -111q-3 -1 -5 -1q-119 0 -208 -55q-34 -27 -35 -42q21 -21 80 -39q134 -27 204 -27v-1q-26 -100 -31 -100h-2q-90 0 -288 -76q-36 -11 -52 -11
h-14q-46 3 -133 68q-72 -21 -195 -106q-8 8 -8 11q15 79 19 79q137 125 196 125q29 0 112 -57q27 -12 41 -12h11q29 0 85 20q0 3 -46 13q-94 39 -94 84v1q0 115 180 197q105 40 140 40z" />
    <glyph glyph-name="uni0673.fina" unicode="&#x673;" horiz-adv-x="618" 
d="M639 0h-128q-66 0 -125 21.5t-103 61.5t-71 96t-29 125l-41 1149l301 43l-17 -1113q71 -66 174 -66h95zM556 -92q6 -10 43 -110q-3 -2 -5 -2q-119 0 -208 -55q-34 -27 -35 -42q21 -21 80 -39q134 -27 204 -27v-1q-26 -99 -31 -99h-2q-90 0 -288 -77q-36 -11 -52 -11h-14
q-46 3 -133 69q-72 -21 -195 -107q-8 8 -8 12q15 78 19 78q137 125 196 125q29 0 112 -57q27 -11 41 -11h11q29 0 85 20q0 2 -46 12q-94 40 -94 84v1q0 115 180 197q105 40 140 40z" />
    <glyph glyph-name="uni0675.fina" unicode="&#x675;" horiz-adv-x="995" 
d="M1023 0h-527q-68 0 -126.5 21.5t-102.5 61.5t-71 96t-29 125l-41 1149l301 43l-18 -1113q71 -66 174 -66h496zM870 1464q-28 -2 -71 -8.5t-93 -16t-104 -21.5t-104 -25q3 9 9.5 27.5t13.5 37.5q8 21 16 43l132 11q-54 9 -91 34.5t-37 51.5q0 46 25.5 86.5t66.5 70.5
t92 49.5t101 26.5l46 -132q-80 -2 -130 -21.5t-71 -51.5q16 -24 55.5 -34t78.5 -14q47 -6 101 -3z" />
    <glyph glyph-name="uni0676.fina" unicode="&#x676;" horiz-adv-x="1177" 
d="M36 -160q187 7 334 50t245 110h-45q-105 0 -179.5 26t-122 70t-70 103t-22.5 125q0 70 23.5 143.5t66 142.5t105 127.5t139.5 100.5h160q151 -97 234 -213t83 -222q0 -22 -2 -43.5t-5 -42.5h277l-56 -317h-346q-59 -91 -137.5 -169.5t-164.5 -135.5t-173.5 -89.5
t-165.5 -32.5l-178 237v30zM357 416q0 -42 39 -70.5t129 -28.5h225q-29 73 -99 146t-149 123q-69 -32 -107 -79.5t-38 -90.5zM1100 1111q-28 -2 -71 -9t-93.5 -16t-104 -21.5t-104.5 -25.5q3 10 10 28.5t14 36.5q7 21 15 44l133 11q-55 9 -92 34t-37 51q0 47 26 87t67 70
t91.5 49.5t100.5 27.5l47 -132q-80 -2 -130.5 -21.5t-70.5 -51.5q16 -25 55 -35t78 -14q48 -6 102 -2z" />
    <glyph glyph-name="uni0677.fina" unicode="&#x677;" horiz-adv-x="1177" 
d="M36 -160q187 7 334 50t245 110h-45q-105 0 -179.5 26t-122 70t-70 103t-22.5 125q0 70 23.5 143.5t66 142.5t105 127.5t139.5 100.5h160q151 -97 234 -213t83 -222q0 -22 -2 -43.5t-5 -42.5h277l-56 -317h-346q-59 -91 -137.5 -169.5t-164.5 -135.5t-173.5 -89.5
t-165.5 -32.5l-178 237v30zM357 416q0 -42 39 -70.5t129 -28.5h225q-29 73 -99 146t-149 123q-69 -32 -107 -79.5t-38 -90.5zM1100 1111q-28 -2 -71 -9t-93.5 -16t-104 -21.5t-104.5 -25.5q3 10 10 28.5t14 36.5q7 21 15 44l133 11q-55 9 -92 34t-37 51q0 47 26 87t67 70
t91.5 49.5t100.5 27.5l47 -132q-80 -2 -130.5 -21.5t-70.5 -51.5q16 -25 55 -35t78 -14q48 -6 102 -2zM181 1132q87 0 156.5 12.5t115.5 37.5q-73 27 -103 65.5t-30 79.5q0 30 13.5 59t36.5 51t52 36t57 14q25 0 50 -13.5t45 -35t32.5 -53.5t12.5 -69q0 -41 -15 -80
q15 -3 33 -5t38 -6l-60 -75q-16 2 -32 3t-30 4q-27 -28 -61.5 -50t-72.5 -37t-78 -22t-75 -7l-85 76v15zM400 1352q0 -23 26.5 -50t95.5 -48q4 13 4 29q0 46 -21 80t-54 34q-21 0 -36 -12.5t-15 -32.5z" />
    <glyph glyph-name="uni0678.init" unicode="&#x678;" horiz-adv-x="919" 
d="M-17 317h224q30 57 46 121t16 135q0 63 -15 130.5t-47 134.5h270q36 -94 36 -208q0 -145 -52.5 -304.5t-139.5 -325.5h-394zM833 1090q-29 -2 -71.5 -8.5t-93 -16t-104.5 -21.5t-105 -25q4 9 10.5 27.5t14.5 37.5q7 20 14 43l133 11q-54 10 -91.5 35t-37.5 51
q0 47 26.5 87t67.5 69.5t91 49t101 27.5l46 -132q-80 -2 -130.5 -21.5t-70.5 -51.5q16 -24 55.5 -34.5t78.5 -14.5q46 -5 101 -1z" />
    <glyph glyph-name="uni0678.medi" unicode="&#x678;" horiz-adv-x="1011" 
d="M737 0q-244 0 -349 196q-69 -97 -160.5 -146.5t-186.5 -49.5h-114l56 317h67q123 0 190.5 71t70.5 205v245h226v-229q0 -91 10 -147t35.5 -88t66.5 -44.5t102 -12.5h342l-55 -317h-301zM910 1090q-28 -2 -71 -8.5t-93.5 -16t-104.5 -21.5t-105 -25q4 9 10.5 27.5
t14.5 37.5q7 20 15 43l132 11q-54 10 -91.5 35t-37.5 51q0 47 26 87t67.5 69.5t91.5 49t100 27.5l48 -132q-80 -2 -130.5 -21.5t-71.5 -51.5q17 -24 56 -34.5t78 -14.5q47 -5 102 -1z" />
    <glyph glyph-name="uni0678.fina" unicode="&#x678;" horiz-adv-x="2003" 
d="M908 -86q103 0 176.5 6.5t127.5 20t95 32t78 42.5q-14 51 -32 87t-37.5 66t-41 58t-44.5 59q-3 4 -6 9t-6 8l-6 6l202 187q37 -51 85 -91q43 -32 102.5 -59.5t136.5 -27.5h343l-55 -317h-320q-50 0 -100 16q-18 -93 -82 -171t-166.5 -135t-238.5 -89t-299 -32
q-166 0 -306 35.5t-241.5 110.5t-158.5 189.5t-57 273.5q0 140 46 308h198q-11 -68 -11 -125q0 -133 53.5 -222.5t140 -143.5t197.5 -77.5t227 -23.5zM1936 681q-28 -2 -71 -8.5t-93.5 -16t-104.5 -21.5t-104 -26q4 11 10 29.5t14 36.5q8 21 15 43l132 11q-54 10 -91 35
t-37 51q0 47 26 87t67 69.5t91.5 49t100.5 28.5l46 -133q-80 -2 -130 -21.5t-71 -51.5q17 -24 56.5 -34.5t78.5 -14.5q46 -5 100 -1z" />
    <glyph glyph-name="uni067C.init" unicode="&#x67c;" horiz-adv-x="778" 
d="M41 1161l139 153l179 -150l131 144l187 -155l-137 -158l-182 153l-128 -148zM232 0h-2q-41 -41 -68 -82t-27 -69q0 -38 30.5 -65.5t89.5 -27.5q48 0 95 23t67 63q-22 44 -68 78q-45 34 -117 80zM79 0h-155l56 317h388q30 57 46 121t16 135q0 63 -15 130.5t-47 134.5h270
q36 -94 36 -208q0 -145 -53 -305q-51 -158 -138 -322q18 -26 28 -59q12 -37 12 -89q0 -55 -25.5 -102.5t-65.5 -82.5t-88 -55t-96 -20q-111 0 -175.5 51.5t-64.5 148.5q0 45 13.5 88t37.5 85q9 16 20 32z" />
    <glyph glyph-name="uni067C.medi" unicode="&#x67c;" horiz-adv-x="983" 
d="M234 0h-3q-42 -41 -68 -82q-27 -41 -27 -69q0 -38 30.5 -65.5t88.5 -27.5q48 0 95 23t68 63q-22 44 -67 78t-117 80zM109 1161l141 153l178 -150l131 144l187 -155l-137 -158l-183 153l-126 -148zM79 0h-152l56 317h258q123 0 190.5 71t71.5 205v245h226v-229
q0 -91 10 -147t35.5 -88t66.5 -44.5t102 -12.5h123l-56 -317h-82q-244 0 -349 196q-63 -88 -144 -137q26 -23 44 -49q21 -29 32.5 -66t11.5 -89q0 -55 -25 -102.5t-65 -82.5t-88.5 -55t-95.5 -20q-111 0 -176 51.5t-65 148.5q0 45 13.5 88t37.5 85q9 16 20 32z" />
    <glyph glyph-name="uni067C.fina" unicode="&#x67c;" horiz-adv-x="1811" 
d="M482 1052l140 153l179 -149l131 144l186 -155l-136 -159l-183 153l-127 -147zM639 -5q-98 10 -176 31q-150 40 -240.5 108.5t-128 163t-37.5 202.5q0 80 17 165t45 173h194q-32 -117 -32 -204q0 -89 33.5 -151.5t101.5 -101t171.5 -55t243.5 -16.5h9q123 0 222 13
t169 43.5t110.5 81t43.5 127.5v263h189v-229q0 -91 10.5 -147t35.5 -88t66 -44.5t103 -12.5h96l-55 -317h-57q-128 0 -209 53.5t-124 165.5q-37 -53 -97 -95t-137.5 -71.5t-168.5 -47.5q-4 -1 -9 -2q3 -3 6 -7q21 -29 32 -66t11 -89q0 -54 -25 -102t-65 -83t-88 -55t-96 -20
q-110 0 -175 51.5t-65 148.5q0 45 13.5 88.5t37.5 84.5q11 21 25 41zM789 -14h-4q-41 -41 -68 -82t-27 -69q0 -38 30.5 -65.5t89.5 -27.5q48 0 95 23.5t68 63.5q-22 43 -68 78q-45 33 -116 79z" />
    <glyph glyph-name="uni067D.init" unicode="&#x67d;" horiz-adv-x="638" 
d="M-17 317h224q30 57 46 121t16 135q0 63 -15 130.5t-47 134.5h270q36 -94 36 -208q0 -145 -52.5 -304.5t-139.5 -325.5h-394zM604 1369l-139 -153l-180 150l-130 -144l-187 155l137 159l182 -153l127 147zM449 1132l-127 -137l-153 126l122 144z" />
    <glyph glyph-name="uni067D.medi" unicode="&#x67d;" horiz-adv-x="798" 
d="M737 0q-244 0 -349 196q-69 -97 -160.5 -146.5t-186.5 -49.5h-114l56 317h67q123 0 190.5 71t70.5 205v245h226v-229q0 -91 10 -147t35.5 -88t66.5 -44.5t102 -12.5h123l-55 -317h-82zM728 1369l-141 -153l-179 150l-130 -144l-187 155l137 159l182 -153l127 147z
M573 1132l-128 -137l-153 126l122 144z" />
    <glyph glyph-name="uni067D.fina" unicode="&#x67d;" horiz-adv-x="1791" 
d="M819 310q123 0 222 13t169 43.5t110.5 81t43.5 127.5v263h189v-229q0 -91 10.5 -147t35.5 -88t66 -44.5t103 -12.5h96l-55 -317h-57q-128 0 -209 53.5t-124 165.5q-37 -53 -97 -95t-137.5 -71.5t-169 -47.5t-190.5 -20h-9q-224 0 -374 40.5t-240.5 109t-128 163
t-37.5 202.5q0 80 17 165t45 173h194q-32 -117 -32 -204q0 -89 33.5 -151.5t101.5 -101t171.5 -55t243.5 -16.5h9zM1118 1261l-140 -152l-179 148l-131 -143l-187 155l137 159l183 -153l127 147zM963 1024l-126 -138l-153 127l121 144z" />
    <glyph glyph-name="uni0681.init" unicode="&#x681;" horiz-adv-x="1251" 
d="M1114 448q-23 4 -49 10.5t-54 15.5q-48 -61 -136 -143.5t-207.5 -156t-267 -124t-314.5 -50.5h-159l56 317h142q130 0 239.5 17t202 44.5t171.5 62.5t154 70q-64 19 -132 38.5t-135.5 35t-130.5 26t-115 10.5q-60 0 -124.5 -9t-135.5 -32l49 299q60 20 114 29.5t108 9.5
q100 0 201 -33.5t199 -82.5t191.5 -103.5t177.5 -98.5zM734 1067q-28 -2 -71 -8.5t-93.5 -16t-104 -21.5t-104.5 -25q3 9 10 27.5t14 37.5q8 20 15 43l133 11q-55 10 -92.5 35t-37.5 51q0 47 26.5 87t67.5 70t91.5 49.5t101.5 26.5l46 -132q-80 -2 -130.5 -21.5t-70.5 -51.5
q16 -24 55 -34.5t79 -13.5q46 -6 101 -2z" />
    <glyph glyph-name="uni0681.medi" unicode="&#x681;" horiz-adv-x="1262" 
d="M1114 448q-19 4 -39.5 8.5t-41.5 11.5q12 -43 37 -70.5t55 -46t61.5 -26.5t57.5 -8h95l-55 -317h-77q-138 0 -208 91.5t-85 275.5q-63 -61 -149 -126t-192.5 -118.5t-228.5 -88t-258 -34.5h-159l56 317h142q130 0 239.5 17t202 44.5t171.5 62.5t154 70q-64 19 -132 38.5
t-135.5 35t-130.5 26t-115 10.5q-60 0 -124.5 -9t-135.5 -32l49 299q60 20 114 29.5t108 9.5q100 0 201 -33.5t199 -82.5t191.5 -103.5t177.5 -98.5zM734 1067q-28 -2 -71 -8.5t-93.5 -16t-104 -21.5t-104.5 -25q3 9 10 27.5t14 37.5q8 20 15 43l133 11q-55 10 -92.5 35
t-37.5 51q0 47 26.5 87t67.5 70t91.5 49.5t101.5 26.5l46 -132q-80 -2 -130.5 -21.5t-70.5 -51.5q16 -24 55 -34.5t79 -13.5q46 -6 101 -2z" />
    <glyph glyph-name="uni0681.fina" unicode="&#x681;" horiz-adv-x="1350" 
d="M1114 614q-8 0 -10 2q-43 -9 -83 -19.5t-77 -21.5q78 -139 165 -198.5t205 -59.5h112l-57 -317h-93q-75 0 -145 38.5t-128.5 109.5t-101.5 171.5t-61 223.5q-139 -48 -245 -105t-177 -115t-107.5 -110.5t-36.5 -89.5q0 -116 155 -166t433 -50q54 0 114 2t124 5l-176 -330
q-68 -9 -129.5 -14.5t-119.5 -5.5q-293 0 -444 120t-151 325q0 107 45.5 205.5t125 184.5t186 156t229.5 118q-84 10 -161.5 14.5t-141.5 4.5q-59 0 -123.5 -9.5t-134.5 -31.5l48 298q59 21 113.5 30t108.5 9q100 0 197 -21t192.5 -53.5t189 -73.5t186.5 -80zM697 1158
q-28 -2 -71 -8.5t-93.5 -16t-104.5 -21t-105 -25.5q4 9 11 27.5t14 37.5q7 20 14 43l133 11q-54 10 -91.5 35t-37.5 51q0 47 26.5 87t67.5 70t91 49.5t101 26.5l47 -132q-81 -2 -131.5 -21.5t-70.5 -51.5q17 -24 56 -34.5t78 -13.5q47 -6 101 -2z" />
    <glyph glyph-name="uni0682.init" unicode="&#x682;" horiz-adv-x="1251" 
d="M1114 448q-23 4 -49 10.5t-54 15.5q-48 -61 -136 -143.5t-207.5 -156t-267 -124t-314.5 -50.5h-159l56 317h142q130 0 239.5 17t202 44.5t171.5 62.5t154 70q-64 19 -132 38.5t-135.5 35t-130.5 26t-115 10.5q-60 0 -124.5 -9t-135.5 -32l49 299q60 20 114 29.5t108 9.5
q100 0 201 -33.5t199 -82.5t191.5 -103.5t177.5 -98.5zM273 1148l147 120l-152 173l158 129l155 -177l-144 -124l150 -169l-153 -132z" />
    <glyph glyph-name="uni0682.medi" unicode="&#x682;" horiz-adv-x="1262" 
d="M1114 448q-19 4 -39.5 8.5t-41.5 11.5q12 -43 37 -70.5t55 -46t61.5 -26.5t57.5 -8h95l-55 -317h-77q-138 0 -208 91.5t-85 275.5q-63 -61 -149 -126t-192.5 -118.5t-228.5 -88t-258 -34.5h-159l56 317h142q130 0 239.5 17t202 44.5t171.5 62.5t154 70q-64 19 -132 38.5
t-135.5 35t-130.5 26t-115 10.5q-60 0 -124.5 -9t-135.5 -32l49 299q60 20 114 29.5t108 9.5q100 0 201 -33.5t199 -82.5t191.5 -103.5t177.5 -98.5zM328 1148l147 120l-153 173l159 129l155 -177l-144 -124l149 -169l-153 -132z" />
    <glyph glyph-name="uni0682.fina" unicode="&#x682;" horiz-adv-x="1350" 
d="M1114 614q-8 0 -10 2q-43 -9 -83 -19.5t-77 -21.5q78 -139 165 -198.5t205 -59.5h112l-57 -317h-93q-75 0 -145 38.5t-128.5 109.5t-101.5 171.5t-61 223.5q-139 -48 -245 -105t-177 -115t-107.5 -110.5t-36.5 -89.5q0 -116 155 -166t433 -50q54 0 114 2t124 5l-176 -330
q-68 -9 -129.5 -14.5t-119.5 -5.5q-293 0 -444 120t-151 325q0 107 45.5 205.5t125 184.5t186 156t229.5 118q-84 10 -161.5 14.5t-141.5 4.5q-59 0 -123.5 -9.5t-134.5 -31.5l48 298q59 21 113.5 30t108.5 9q100 0 197 -21t192.5 -53.5t189 -73.5t186.5 -80zM280 1269
l146 120l-152 173l159 129l154 -177l-143 -124l149 -169l-153 -132z" />
    <glyph glyph-name="uni0685.init" unicode="&#x685;" horiz-adv-x="1251" 
d="M1114 448q-23 4 -49 10.5t-54 15.5q-48 -61 -136 -143.5t-207.5 -156t-267 -124t-314.5 -50.5h-159l56 317h142q130 0 239.5 17t202 44.5t171.5 62.5t154 70q-64 19 -132 38.5t-135.5 35t-130.5 26t-115 10.5q-60 0 -124.5 -9t-135.5 -32l49 299q60 20 114 29.5t108 9.5
q100 0 201 -33.5t199 -82.5t191.5 -103.5t177.5 -98.5zM244 1132l140 153l180 -150l130 144l187 -155l-137 -158l-182 153l-128 -148zM399 1368l127 139l154 -128l-122 -143z" />
    <glyph glyph-name="uni0685.medi" unicode="&#x685;" horiz-adv-x="1262" 
d="M1114 448q-19 4 -39.5 8.5t-41.5 11.5q12 -43 37 -70.5t55 -46t61.5 -26.5t57.5 -8h95l-55 -317h-77q-138 0 -208 91.5t-85 275.5q-63 -61 -149 -126t-192.5 -118.5t-228.5 -88t-258 -34.5h-159l56 317h142q130 0 239.5 17t202 44.5t171.5 62.5t154 70q-64 19 -132 38.5
t-135.5 35t-130.5 26t-115 10.5q-60 0 -124.5 -9t-135.5 -32l49 299q60 20 114 29.5t108 9.5q100 0 201 -33.5t199 -82.5t191.5 -103.5t177.5 -98.5zM299 1122l140 153l179 -149l131 144l187 -155l-137 -158l-182 153l-128 -148zM454 1359l127 139l153 -128l-121 -143z" />
    <glyph glyph-name="uni0685.fina" unicode="&#x685;" horiz-adv-x="1350" 
d="M1114 614q-8 0 -10 2q-43 -9 -83 -19.5t-77 -21.5q78 -139 165 -198.5t205 -59.5h112l-57 -317h-93q-75 0 -145 38.5t-128.5 109.5t-101.5 171.5t-61 223.5q-139 -48 -245 -105t-177 -115t-107.5 -110.5t-36.5 -89.5q0 -116 155 -166t433 -50q54 0 114 2t124 5l-176 -330
q-68 -9 -129.5 -14.5t-119.5 -5.5q-293 0 -444 120t-151 325q0 107 45.5 205.5t125 184.5t186 156t229.5 118q-84 10 -161.5 14.5t-141.5 4.5q-59 0 -123.5 -9.5t-134.5 -31.5l48 298q59 21 113.5 30t108.5 9q100 0 197 -21t192.5 -53.5t189 -73.5t186.5 -80zM261 1232
l141 153l179 -150l130 144l187 -155l-137 -158l-182 153l-127 -148zM416 1469l128 138l153 -127l-121 -144z" />
    <glyph glyph-name="uni0689.fina" unicode="&#x689;" horiz-adv-x="1232" 
d="M504 1q-42 -42 -69 -83t-27 -69q0 -38 30.5 -65.5t88.5 -27.5q49 0 95.5 23t67.5 63q-22 44 -68 79q-45 33 -118 80zM342 -14q-61 3 -113 16q-68 16 -118 60l105 296q46 -20 107.5 -28.5t132.5 -8.5q90 0 182.5 12t172.5 34q-9 21 -19.5 43.5t-20.5 48.5l-244 558h289
l187 -519q37 -104 83.5 -143.5t112.5 -39.5h108l-56 -315h-108q-47 0 -83.5 15t-69 44.5t-62.5 76.5t-62 112q-33 -45 -83 -91q-45 -42 -100 -77q9 -7 17 -14q31 -27 51.5 -56t32 -66t11.5 -89q0 -55 -25.5 -102.5t-65 -82.5t-88 -55t-95.5 -20q-111 0 -176 51.5t-65 148.5
q0 45 14 88t37 85q6 9 11 18z" />
    <glyph glyph-name="uni068A.fina" unicode="&#x68a;" horiz-adv-x="1232" 
d="M1251 0h-108q-47 0 -83.5 15t-69 44.5t-62.5 76.5t-62 112q-33 -45 -83.5 -91.5t-112.5 -84.5t-136 -62.5t-152 -24.5q-84 0 -152.5 16.5t-118.5 60.5l105 296q46 -20 107.5 -28.5t132.5 -8.5q90 0 182.5 12t172.5 34q-9 21 -19.5 43.5t-20.5 48.5l-244 558h289l187 -519
q37 -104 83.5 -143.5t112.5 -39.5h108zM414 -237l141 153l186 -155l-136 -158z" />
    <glyph glyph-name="uni068B.fina" unicode="&#x68b;" horiz-adv-x="1232" 
d="M1251 0h-108q-47 0 -83.5 15t-69 44.5t-62.5 76.5t-62 112q-33 -45 -83.5 -91.5t-112.5 -84.5t-136 -62.5t-152 -24.5q-84 0 -152.5 16.5t-118.5 60.5l105 296q46 -20 107.5 -28.5t132.5 -8.5q90 0 182.5 12t172.5 34q-9 21 -19.5 43.5t-20.5 48.5l-244 558h289l187 -519
q37 -104 83.5 -143.5t112.5 -39.5h108zM346 1324h109l-14 410l107 15l-5 -312q25 22 53.5 42.5t59 36t63 23.5t67.5 8q41 0 73 -14t53.5 -38.5t32.5 -55.5t11 -66q0 -16 -14.5 -43t-41.5 -54t-67.5 -46.5t-92.5 -19.5h-364zM776 1439q-34 0 -65 -7t-60 -19.5t-56.5 -28
t-52.5 -33.5v-27h158q32 1 61.5 4t54 9t43.5 13.5t31 16.5q-12 31 -40 51.5t-74 20.5zM414 -237l141 153l186 -155l-136 -158z" />
    <glyph glyph-name="uni068F.fina" unicode="&#x68f;" horiz-adv-x="1232" 
d="M1251 0h-108q-47 0 -83.5 15t-69 44.5t-62.5 76.5t-62 112q-33 -45 -83.5 -91.5t-112.5 -84.5t-136 -62.5t-152 -24.5q-84 0 -152.5 16.5t-118.5 60.5l105 296q46 -20 107.5 -28.5t132.5 -8.5q90 0 182.5 12t172.5 34q-9 21 -19.5 43.5t-20.5 48.5l-244 558h289l187 -519
q37 -104 83.5 -143.5t112.5 -39.5h108zM958 1577l-140 -153l-180 149l-130 -144l-187 155l137 159l182 -153l128 147zM803 1340l-127 -138l-153 127l121 143z" />
    <glyph glyph-name="uni0690.fina" unicode="&#x690;" horiz-adv-x="1232" 
d="M1251 0h-108q-47 0 -83.5 15t-69 44.5t-62.5 76.5t-62 112q-33 -45 -83.5 -91.5t-112.5 -84.5t-136 -62.5t-152 -24.5q-84 0 -152.5 16.5t-118.5 60.5l105 296q46 -20 107.5 -28.5t132.5 -8.5q90 0 182.5 12t172.5 34q-9 21 -19.5 43.5t-20.5 48.5l-244 558h289l187 -519
q37 -104 83.5 -143.5t112.5 -39.5h108zM462 1518l-176 147l140 153l180 -149l130 144l187 -155l-135 -156l172 -143l-137 -158l-182 153l-127 -148l-191 161zM771 1512l-167 141l-126 -145l165 -138z" />
    <glyph glyph-name="uni0692.fina" unicode="&#x692;" horiz-adv-x="1283" 
d="M824 707h2l62 -157q30 -76 70 -122.5t85 -70.5t92.5 -32t94.5 -8h128l-55 -317h-90q-45 0 -91.5 10.5t-93.5 37.5t-91.5 75t-85.5 125q-23 -95 -64 -189.5t-96 -180t-119.5 -160t-135.5 -129.5h-436v68q118 63 234.5 160t213.5 205t160 219.5t75 206.5q0 2 -6 9.5
t-23.5 44.5t-55 114.5t-100.5 221.5h280zM513 1019q-8 0 -18 42q-29 94 -171 255v7q66 93 74 103q31 -35 62 -75q68 -97 132 -202h2q43 111 221 262q5 -3 51 -146v-1q-36 -24 -114 -106q-88 -109 -92 -179q-6 0 -147 40z" />
    <glyph glyph-name="uni0693.fina" unicode="&#x693;" horiz-adv-x="1283" 
d="M781 -416q-22 43 -67.5 77.5t-118.5 80.5q-42 -42 -69 -83t-27 -69q0 -38 30.5 -65.5t89.5 -27.5q48 0 95 23.5t67 63.5zM696 -114q69 -56 96 -79q30 -27 51 -56t32 -66t11 -89q0 -54 -25.5 -102t-65 -83t-87.5 -55t-96 -20q-111 0 -175.5 51.5t-64.5 148.5q0 27 4 53
h-376v68q118 63 234.5 160t213.5 205t160 219.5t75 206.5q0 2 -6 9.5t-23.5 44.5t-55 114.5t-100.5 221.5h280l46 -131h2l62 -157q30 -76 70 -122.5t85 -70.5t92.5 -32t94.5 -8h128l-55 -317h-90q-45 0 -91.5 10.5t-93.5 37.5t-91.5 75t-85.5 125q-23 -95 -64 -189
q-39 -91 -91 -173z" />
    <glyph glyph-name="uni0694.fina" unicode="&#x694;" horiz-adv-x="1283" 
d="M824 707h2l62 -157q30 -76 70 -122.5t85 -70.5t92.5 -32t94.5 -8h128l-55 -317h-90q-45 0 -91.5 10.5t-93.5 37.5t-91.5 75t-85.5 125q-23 -95 -64 -189.5t-96 -180t-119.5 -160t-135.5 -129.5h-436v68q118 63 234.5 160t213.5 205t160 219.5t75 206.5q0 2 -6 9.5
t-23.5 44.5t-55 114.5t-100.5 221.5h280zM554 -603l140 153l187 -155l-137 -158z" />
    <glyph glyph-name="uni0695.fina" unicode="&#x695;" horiz-adv-x="1283" 
d="M824 707h2l62 -157q30 -76 70 -122.5t85 -70.5t92.5 -32t94.5 -8h128l-55 -317h-90q-45 0 -91.5 10.5t-93.5 37.5t-91.5 75t-85.5 125q-23 -95 -64 -189.5t-96 -180t-119.5 -160t-135.5 -129.5h-436v68q118 63 234.5 160t213.5 205t160 219.5t75 206.5q0 2 -6 9.5
t-23.5 44.5t-55 114.5t-100.5 221.5h280zM367 -913q-8 0 -18 43q-29 94 -170 255v6q65 93 73 103q31 -34 62 -74q69 -97 132 -203h2q43 112 222 263q4 -4 51 -146v-2q-37 -23 -115 -105q-88 -110 -92 -179q-6 0 -147 39z" />
    <glyph glyph-name="uni0696.fina" unicode="&#x696;" horiz-adv-x="1283" 
d="M824 707h2l62 -157q30 -76 70 -122.5t85 -70.5t92.5 -32t94.5 -8h128l-55 -317h-90q-45 0 -91.5 10.5t-93.5 37.5t-91.5 75t-85.5 125q-23 -95 -64 -189.5t-96 -180t-119.5 -160t-135.5 -129.5h-436v68q118 63 234.5 160t213.5 205t160 219.5t75 206.5q0 2 -6 9.5
t-23.5 44.5t-55 114.5t-100.5 221.5h280zM554 -603l140 153l187 -155l-137 -158zM175 435l140 154l187 -155l-137 -159z" />
    <glyph glyph-name="uni0697.fina" unicode="&#x697;" horiz-adv-x="1283" 
d="M824 707h2l62 -157q30 -76 70 -122.5t85 -70.5t92.5 -32t94.5 -8h128l-55 -317h-90q-45 0 -91.5 10.5t-93.5 37.5t-91.5 75t-85.5 125q-23 -95 -64 -189.5t-96 -180t-119.5 -160t-135.5 -129.5h-436v68q118 63 234.5 160t213.5 205t160 219.5t75 206.5q0 2 -6 9.5
t-23.5 44.5t-55 114.5t-100.5 221.5h280zM250 1145l140 153l179 -148l131 143l186 -155l-136 -159l-182 153l-128 -147z" />
    <glyph glyph-name="uni0699.fina" unicode="&#x699;" horiz-adv-x="1283" 
d="M824 707h2l62 -157q30 -76 70 -122.5t85 -70.5t92.5 -32t94.5 -8h128l-55 -317h-90q-45 0 -91.5 10.5t-93.5 37.5t-91.5 75t-85.5 125q-23 -95 -64 -189.5t-96 -180t-119.5 -160t-135.5 -129.5h-436v68q118 63 234.5 160t213.5 205t160 219.5t75 206.5q0 2 -6 9.5
t-23.5 44.5t-55 114.5t-100.5 221.5h280zM384 1297l-175 148l140 153l179 -149l131 143l186 -154l-134 -156l172 -143l-137 -159l-182 153l-128 -147l-190 160zM694 1292l-167 140l-126 -145l165 -137z" />
    <glyph glyph-name="uni069A.init" unicode="&#x69a;" horiz-adv-x="1914" 
d="M-17 317h56q123 0 191.5 73t70.5 207v6v235h225v-211q0 -146 47.5 -228t152.5 -82q106 0 157.5 75.5t51.5 196.5v249h226v-211q0 -61 12.5 -117t41 -99.5t71 -68.5t100.5 -25q40 0 76.5 14t67 48t49 86.5t18.5 131.5q0 71 -18 161.5t-59 208.5h267q24 -79 34.5 -153.5
t10.5 -145.5q0 -150 -41 -274.5t-107.5 -215.5t-148.5 -142t-166 -51q-126 0 -208 62.5t-132 153.5q-52 -94 -129 -155t-184 -61q-118 0 -198 62.5t-130 159.5q-62 -95 -153 -151t-205 -56h-103zM851 1236l140 153l187 -155l-137 -158zM893 -237l139 153l187 -155l-136 -158
z" />
    <glyph glyph-name="uni069A.medi" unicode="&#x69a;" horiz-adv-x="2070" 
d="M714 -15q-108 0 -194 58t-139 169q-70 -102 -163 -157t-188 -55h-103l56 319h56q125 0 193.5 73.5t68.5 212.5v233h223v-209q0 -146 47.5 -228t151.5 -82q107 0 158.5 75.5t51.5 196.5v30v217h226v-209q0 -146 47 -228t152 -82q107 0 158 75.5t51 196.5v247h226v-226
q0 -90 13 -146.5t42 -89.5t72.5 -46t105.5 -13h121l-55 -317h-81q-266 0 -373 210q-50 -111 -125 -168t-164 -57q-110 0 -197 60t-141 174q-50 -118 -127.5 -176t-169.5 -58zM851 1236l140 153l187 -155l-137 -158zM893 -237l139 153l187 -155l-136 -158z" />
    <glyph glyph-name="uni069A.fina" unicode="&#x69a;" horiz-adv-x="2841" 
d="M2779 0q-251 0 -359 185q-48 -96 -121 -148t-179 -52q-64 0 -114.5 18t-90.5 49.5t-70.5 72.5t-55.5 90q-59 -101 -147 -165.5t-194 -64.5q-77 0 -137.5 30t-108.5 84q-20 -104 -64.5 -196.5t-119 -162.5t-181.5 -110.5t-251 -40.5q-116 0 -211 33t-162 95.5t-103.5 152
t-36.5 203.5q0 155 69 340h214q-44 -135 -44 -228q0 -135 80 -197.5t228 -62.5q91 0 169 20.5t136 65.5t91 115t33 169q0 59 -4 103t-7 78l-4 22q-4 22 -8 46t-7 49l-34 245h226l34 -208q11 -72 26.5 -130t39 -97t59 -60.5t88.5 -21.5q111 0 172 61.5t61 171.5l-6 69
l-31 215h225l32 -208q7 -61 22 -117t41.5 -98.5t65.5 -68t96 -25.5q47 0 82.5 16.5t58.5 54t36.5 96.5t17.5 144q1 30 2 62t1 68v76h226v-226q0 -90 13.5 -146.5t42 -89.5t72 -46t105.5 -13h122l-56 -317h-80zM1587 1236l140 153l187 -155l-136 -158zM1629 -237l139 153
l187 -155l-136 -158z" />
    <glyph glyph-name="uni069B.init" unicode="&#x69b;" horiz-adv-x="1914" 
d="M-17 317h56q123 0 191.5 73t70.5 207v6v235h225v-211q0 -146 47.5 -228t152.5 -82q106 0 157.5 75.5t51.5 196.5v249h226v-211q0 -61 12.5 -117t41 -99.5t71 -68.5t100.5 -25q40 0 76.5 14t67 48t49 86.5t18.5 131.5q0 71 -18 161.5t-59 208.5h267q24 -79 34.5 -153.5
t10.5 -145.5q0 -150 -41 -274.5t-107.5 -215.5t-148.5 -142t-166 -51q-126 0 -208 62.5t-132 153.5q-52 -94 -129 -155t-184 -61q-118 0 -198 62.5t-130 159.5q-62 -95 -153 -151t-205 -56h-103zM1412 -260l-140 -153l-180 150l-130 -143l-187 155l137 158l183 -153l127 147
zM1257 -497l-127 -137l-153 127l122 143z" />
    <glyph glyph-name="uni069B.medi" unicode="&#x69b;" horiz-adv-x="2070" 
d="M714 -15q-108 0 -194 58t-139 169q-70 -102 -163 -157t-188 -55h-103l56 319h56q125 0 193.5 73.5t68.5 212.5v233h223v-209q0 -146 47.5 -228t151.5 -82q107 0 158.5 75.5t51.5 196.5v30v217h226v-209q0 -146 47 -228t152 -82q107 0 158 75.5t51 196.5v247h226v-226
q0 -90 13 -146.5t42 -89.5t72.5 -46t105.5 -13h121l-55 -317h-81q-266 0 -373 210q-50 -111 -125 -168t-164 -57q-110 0 -197 60t-141 174q-50 -118 -127.5 -176t-169.5 -58zM1412 -260l-140 -153l-180 150l-130 -143l-187 155l137 158l183 -153l127 147zM1257 -497
l-127 -137l-153 127l122 143z" />
    <glyph glyph-name="uni069B.fina" unicode="&#x69b;" horiz-adv-x="2841" 
d="M2779 0q-251 0 -359 185q-48 -96 -121 -148t-179 -52q-64 0 -114.5 18t-90.5 49.5t-70.5 72.5t-55.5 90q-59 -101 -147 -165.5t-194 -64.5q-77 0 -137.5 30t-108.5 84q-20 -104 -64.5 -196.5t-119 -162.5t-181.5 -110.5t-251 -40.5q-116 0 -211 33t-162 95.5t-103.5 152
t-36.5 203.5q0 155 69 340h214q-44 -135 -44 -228q0 -135 80 -197.5t228 -62.5q91 0 169 20.5t136 65.5t91 115t33 169q0 59 -4 103t-7 78l-4 22q-4 22 -8 46t-7 49l-34 245h226l34 -208q11 -72 26.5 -130t39 -97t59 -60.5t88.5 -21.5q111 0 172 61.5t61 171.5l-6 69
l-31 215h225l32 -208q7 -61 22 -117t41.5 -98.5t65.5 -68t96 -25.5q47 0 82.5 16.5t58.5 54t36.5 96.5t17.5 144q1 30 2 62t1 68v76h226v-226q0 -90 13.5 -146.5t42 -89.5t72 -46t105.5 -13h122l-56 -317h-80zM2121 -260l-140 -153l-180 150l-130 -143l-187 155l137 158
l183 -153l127 147zM1966 -497l-127 -137l-153 127l122 143z" />
    <glyph glyph-name="uni069C.init" unicode="&#x69c;" horiz-adv-x="1914" 
d="M-17 317h56q123 0 191.5 73t70.5 207v6v235h225v-211q0 -146 47.5 -228t152.5 -82q106 0 157.5 75.5t51.5 196.5v249h226v-211q0 -61 12.5 -117t41 -99.5t71 -68.5t100.5 -25q40 0 76.5 14t67 48t49 86.5t18.5 131.5q0 71 -18 161.5t-59 208.5h267q24 -79 34.5 -153.5
t10.5 -145.5q0 -150 -41 -274.5t-107.5 -215.5t-148.5 -142t-166 -51q-126 0 -208 62.5t-132 153.5q-52 -94 -129 -155t-184 -61q-118 0 -198 62.5t-130 159.5q-62 -95 -153 -151t-205 -56h-103zM729 1153l140 153l179 -149l131 143l187 -155l-137 -158l-183 153l-127 -147z
M884 1390l126 138l153 -127l-121 -144zM1412 -260l-140 -153l-180 150l-130 -143l-187 155l137 158l183 -153l127 147zM1257 -497l-127 -137l-153 127l122 143z" />
    <glyph glyph-name="uni069C.medi" unicode="&#x69c;" horiz-adv-x="2070" 
d="M714 -15q-108 0 -194 58t-139 169q-70 -102 -163 -157t-188 -55h-103l56 319h56q125 0 193.5 73.5t68.5 212.5v233h223v-209q0 -146 47.5 -228t151.5 -82q107 0 158.5 75.5t51.5 196.5v30v217h226v-209q0 -146 47 -228t152 -82q107 0 158 75.5t51 196.5v247h226v-226
q0 -90 13 -146.5t42 -89.5t72.5 -46t105.5 -13h121l-55 -317h-81q-266 0 -373 210q-50 -111 -125 -168t-164 -57q-110 0 -197 60t-141 174q-50 -118 -127.5 -176t-169.5 -58zM729 1153l140 153l179 -149l131 143l187 -155l-137 -158l-183 153l-127 -147zM884 1390l126 138
l153 -127l-121 -144zM1412 -260l-140 -153l-180 150l-130 -143l-187 155l137 158l183 -153l127 147zM1257 -497l-127 -137l-153 127l122 143z" />
    <glyph glyph-name="uni069C.fina" unicode="&#x69c;" horiz-adv-x="2841" 
d="M2779 0q-251 0 -359 185q-48 -96 -121 -148t-179 -52q-64 0 -114.5 18t-90.5 49.5t-70.5 72.5t-55.5 90q-59 -101 -147 -165.5t-194 -64.5q-77 0 -137.5 30t-108.5 84q-20 -104 -64.5 -196.5t-119 -162.5t-181.5 -110.5t-251 -40.5q-116 0 -211 33t-162 95.5t-103.5 152
t-36.5 203.5q0 155 69 340h214q-44 -135 -44 -228q0 -135 80 -197.5t228 -62.5q91 0 169 20.5t136 65.5t91 115t33 169q0 59 -4 103t-7 78l-4 22q-4 22 -8 46t-7 49l-34 245h226l34 -208q11 -72 26.5 -130t39 -97t59 -60.5t88.5 -21.5q111 0 172 61.5t61 171.5l-6 69
l-31 215h225l32 -208q7 -61 22 -117t41.5 -98.5t65.5 -68t96 -25.5q47 0 82.5 16.5t58.5 54t36.5 96.5t17.5 144q1 30 2 62t1 68v76h226v-226q0 -90 13.5 -146.5t42 -89.5t72 -46t105.5 -13h122l-56 -317h-80zM1438 1153l140 153l179 -149l131 143l187 -155l-137 -158
l-183 153l-127 -147zM1593 1390l126 138l153 -127l-121 -144zM2121 -260l-140 -153l-180 150l-130 -143l-187 155l137 158l183 -153l127 147zM1966 -497l-127 -137l-153 127l122 143z" />
    <glyph glyph-name="uni069D.init" unicode="&#x69d;" horiz-adv-x="1761" 
d="M-17 317h67q123 0 190.5 69.5t70.5 199.5v7v245h226v-229q73 68 153.5 127.5t168 104.5t182.5 70.5t196 25.5q114 0 201.5 -39.5t147 -106.5t90.5 -155t31 -182q0 -45 -39 -120.5t-114.5 -150.5t-188 -129t-257.5 -54h-371h-21h-20v2q-210 13 -308 194
q-69 -97 -160.5 -146.5t-186.5 -49.5h-114zM961 317q95 0 182 8.5t161 24t130 38.5t90 50q-32 82 -110.5 140t-204.5 58q-91 0 -177 -18.5t-165.5 -51t-155 -77t-144.5 -92.5q20 -43 59.5 -60.5t101.5 -19.5h233zM676 -231l140 153l179 -148l131 142l186 -155l-136 -158
l-183 155l-127 -150z" />
    <glyph glyph-name="uni069D.medi" unicode="&#x69d;" horiz-adv-x="1898" 
d="M1919 0h-76q-104 0 -168.5 51.5t-96.5 157.5q-37 -41 -85.5 -79.5t-107.5 -67t-129 -45.5t-148 -17h-371h-21h-20v2q-210 13 -308 194q-69 -97 -160.5 -146.5t-186.5 -49.5h-114l56 317h67q123 0 190.5 69.5t70.5 199.5v7v245h226v-229q73 68 153.5 127.5t168 104.5
t182.5 70.5t196 25.5q114 0 201.5 -39.5t147 -106.5t90.5 -155t31 -182q0 -16 -9 -48q37 -48 89 -68.5t93 -20.5h96zM1209 636q-91 0 -177 -18.5t-165.5 -51t-155 -77t-144.5 -92.5q20 -43 59.5 -60.5t101.5 -19.5h233q95 0 182 8.5t161 24t130 38.5t90 50
q-32 82 -110.5 140t-204.5 58zM676 -231l140 153l179 -148l131 142l186 -155l-136 -158l-183 155l-127 -150z" />
    <glyph glyph-name="uni069D.fina" unicode="&#x69d;" horiz-adv-x="2667" 
d="M1143 783l95 -227q76 76 162 145.5t181.5 122t198 83t214.5 30.5q114 0 201 -39.5t147 -106.5t91 -155t31 -182q0 -16 -6 -38q34 -54 90 -76.5t99 -22.5h95l-56 -317h-76q-206 0 -267 217q-38 -44 -87.5 -82t-109 -68.5t-130.5 -48.5t-151 -18h-265q-116 0 -219.5 28.5
t-189.5 119.5q-15 -112 -56.5 -213t-116.5 -178.5t-186 -122.5t-264 -45q-116 0 -211 33t-162 95.5t-103.5 152t-36.5 203.5q0 155 69 340h214q-44 -135 -44 -228q0 -135 80 -197.5t228 -62.5q91 0 167.5 28.5t135 76t97 109t53.5 128.5l-46 98l-131 342zM1718 317
q94 0 181 8.5t162 24t130.5 38.5t89.5 50q-32 82 -110.5 140t-205.5 58q-178 0 -335 -68t-295 -164q52 -48 112.5 -67.5t129.5 -19.5h141zM1431 -231l140 153l179 -148l131 142l186 -155l-136 -158l-183 155l-127 -150z" />
    <glyph glyph-name="uni069E.init" unicode="&#x69e;" horiz-adv-x="1761" 
d="M-17 317h67q123 0 190.5 69.5t70.5 199.5v7v245h226v-229q73 68 153.5 127.5t168 104.5t182.5 70.5t196 25.5q114 0 201.5 -39.5t147 -106.5t90.5 -155t31 -182q0 -45 -39 -120.5t-114.5 -150.5t-188 -129t-257.5 -54h-371q-244 0 -349 196q-69 -97 -160.5 -146.5
t-186.5 -49.5h-114zM961 317q95 0 182 8.5t161 24t130 38.5t90 50q-32 82 -110.5 140t-204.5 58q-91 0 -177 -18.5t-165.5 -51t-155 -77t-144.5 -92.5q22 -46 67 -63t117 -17h210zM727 1164l140 153l179 -149l131 143l187 -155l-137 -158l-183 153l-127 -147zM882 1401
l126 138l153 -127l-121 -144z" />
    <glyph glyph-name="uni069E.medi" unicode="&#x69e;" horiz-adv-x="1904" 
d="M1925 0h-77q-105 0 -170 53.5t-96 158.5q-37 -41 -86.5 -79t-108.5 -67.5t-129 -47.5t-150 -18h-371q-244 0 -349 196q-69 -97 -160.5 -146.5t-186.5 -49.5h-114l56 317h67q123 0 190.5 69.5t70.5 199.5v7v245h226v-229q73 68 153.5 127.5t168 104.5t182.5 70.5t196 25.5
q114 0 201.5 -39.5t147 -106.5t90.5 -155t31 -182q0 -10 -1.5 -20t-5.5 -21q35 -53 89 -74.5t97 -21.5h95zM961 317q95 0 182 8.5t161 24t130 38.5t90 50q-32 82 -110.5 140t-204.5 58q-91 0 -177 -18.5t-165.5 -51t-155 -77t-144.5 -92.5q22 -46 67 -63t117 -17h210z
M736 1164l140 153l179 -149l131 143l187 -155l-137 -158l-183 153l-127 -147zM891 1401l127 138l153 -127l-122 -144z" />
    <glyph glyph-name="uni069E.fina" unicode="&#x69e;" horiz-adv-x="2674" 
d="M2693 0h-76q-103 0 -167.5 51.5t-95.5 153.5q-38 -41 -86 -78.5t-107 -65t-128 -44.5t-148 -17h-285q-116 0 -219.5 28.5t-189.5 119.5q-15 -112 -56.5 -213t-116.5 -178.5t-186 -122.5t-264 -45q-116 0 -211 33t-162 95.5t-103.5 152t-36.5 203.5q0 155 69 340h214
q-44 -135 -44 -228q0 -135 80 -197.5t228 -62.5q91 0 169 20.5t136 65.5t91 115t33 169q0 80 -6 136l-125 256l243 96l99 -233q0 -2 4 -9q76 80 162.5 152t183.5 126t202.5 86t219.5 32t201.5 -39.5t147.5 -106.5t90.5 -155t30.5 -182q0 -19 -9 -51q35 -47 86.5 -66.5
t92.5 -19.5h95zM1738 317q95 0 181.5 8.5t161.5 24t131 38.5t90 50q-32 82 -110.5 140t-205.5 58q-92 0 -177.5 -18.5t-164.5 -51t-155 -77t-145 -92.5q48 -44 108 -62t125 -18h161zM1363 1164l141 153l178 -149l131 143l187 -155l-137 -158l-183 153l-126 -147zM1518 1401
l127 138l153 -127l-121 -144z" />
    <glyph glyph-name="uni069F.init" unicode="&#x69f;" horiz-adv-x="1675" 
d="M-17 317h248l-3 108l-38 1030l300 44l-15 -869q72 64 149 120t162 98t176.5 65.5t188.5 23.5q113 0 201 -39.5t148 -106.5t91 -155t31 -182q0 -45 -39.5 -120.5t-115 -150.5t-187.5 -129t-258 -54h-1095zM1123 636q-94 0 -180.5 -19.5t-167.5 -53t-157.5 -78.5
t-147.5 -95v-73h404q96 0 182.5 8.5t161.5 24t131 38.5t89 50q-31 82 -109.5 140t-205.5 58zM690 1164l141 153l178 -149l131 143l187 -155l-136 -158l-184 153l-126 -147zM845 1401l127 138l153 -127l-121 -144z" />
    <glyph glyph-name="uni069F.medi" unicode="&#x69f;" horiz-adv-x="1820" 
d="M1841 0h-76q-106 0 -170.5 54t-96.5 161q-38 -44 -87 -82t-108.5 -67.5t-130 -47.5t-150.5 -18h-1095l56 317h248l-3 108l-38 1030l300 44l-15 -869q72 64 149 120t162 98t176.5 65.5t188.5 23.5q113 0 201 -39.5t148 -106.5t91 -155t31 -182q0 -18 -7 -39
q36 -55 90 -76.5t97 -21.5h96zM874 317q96 0 182.5 8.5t161.5 24t131 38.5t89 50q-31 82 -109.5 140t-205.5 58q-94 0 -180.5 -19.5t-167.5 -53t-156.5 -77.5t-146.5 -94v-75h402zM690 1164l141 153l178 -149l131 143l187 -155l-136 -158l-184 153l-126 -147zM845 1401
l127 138l153 -127l-121 -144z" />
    <glyph glyph-name="uni069F.fina" unicode="&#x69f;" horiz-adv-x="1908" 
d="M1927 0h-77q-203 0 -265 210q-37 -41 -86.5 -79t-108 -66.5t-129 -46.5t-148.5 -18h-1011l-84 317h304l-3 108l-38 1030l300 44l-15 -869q72 64 149 120t162 98t176.5 65.5t188.5 23.5q113 0 201 -39.5t148 -106.5t91 -155t31 -182q0 -10 -2.5 -21t-6.5 -24
q36 -51 89 -71.5t94 -20.5h96zM1214 636q-94 0 -180.5 -19.5t-167.5 -53t-156.5 -77.5t-146.5 -94v-75h402q96 0 182.5 8.5t161.5 24t131 38.5t89 50q-31 82 -109.5 140t-205.5 58zM790 1164l140 153l179 -149l131 143l186 -155l-136 -158l-183 153l-127 -147zM945 1401
l126 138l153 -127l-121 -144z" />
    <glyph glyph-name="uni06A0.init" unicode="&#x6a0;" horiz-adv-x="1033" 
d="M-17 317h298q-52 67 -69.5 140t-17.5 138q0 84 39 156.5t103.5 127t149.5 85.5t178 31q91 0 181 -34l110 -291l-43 -28q-84 39 -172.5 61.5t-172.5 22.5q-65 0 -123 -16t-101 -51q9 -50 45.5 -96t94.5 -79.5t135.5 -53t170.5 -19.5q65 0 142 11l-4 -4l4 2l56 -172
q-45 -24 -139.5 -66t-210 -82t-238.5 -70t-226 -30h-246zM257 1219l139 153l180 -149l130 143l187 -155l-136 -159l-183 153l-127 -146zM412 1456l126 137l153 -126l-121 -144z" />
    <glyph glyph-name="uni06A0.medi" unicode="&#x6a0;" horiz-adv-x="1415" 
d="M1282 0q-73 0 -149.5 15t-153 42t-152.5 62.5t-147 76.5q-150 -88 -307 -142t-295 -54h-151l56 317h95q93 0 183.5 10.5t178.5 26.5q-80 61 -140.5 117t-96.5 98v276q118 70 247.5 100.5t258.5 30.5q97 0 189 -17t169.5 -45.5t136.5 -69.5t92 -91q-35 -82 -131 -184.5
t-229 -203.5q84 -22 171 -35t175 -13h210l-55 -317h-155zM403 662q51 -59 134.5 -116t190.5 -106q95 39 161 83.5t98 88.5q-63 39 -165 62.5t-206 23.5q-60 0 -114.5 -8.5t-98.5 -27.5zM421 1219l139 153l180 -149l130 143l187 -155l-136 -159l-183 153l-127 -146zM576 1456
l126 137l153 -126l-121 -144z" />
    <glyph glyph-name="uni06A0.fina" unicode="&#x6a0;" horiz-adv-x="1309" 
d="M894 -445q-34 -5 -68.5 -7t-67.5 -2q-138 0 -268 32t-230.5 93.5t-162 153t-61.5 211.5q0 41 27 87t74 97t108.5 104t128.5 103q-56 64 -117.5 136.5t-129.5 162.5v271q88 63 221 93t279 30q90 0 177.5 -11.5t164 -32t139 -52t100.5 -70.5v-171q-101 -62 -228 -137
t-257 -161q139 -95 265.5 -131.5t249.5 -36.5h145l-56 -317h-155q-91 0 -175 14t-166.5 49.5t-167 95.5t-179.5 153q-65 -54 -120.5 -108.5t-96.5 -110.5q45 -39 120.5 -79t168 -71.5t197 -53t209.5 -21.5h3zM360 812q62 -70 120 -126.5t114 -103.5q95 62 172.5 109.5
t116.5 73.5q-67 41 -150 63.5t-167 22.5q-110 0 -206 -39zM356 1347l139 153l180 -150l130 143l187 -155l-136 -158l-183 153l-127 -147zM511 1583l126 138l153 -127l-121 -144z" />
    <glyph glyph-name="uni06A1.init" unicode="&#x6a1;" horiz-adv-x="956" 
d="M347 313q95 0 166 17q-101 23 -168 60t-107 84.5t-58 103.5t-18 120q0 52 27 106t71 104.5t99 92.5t113 70h224q50 -39 88.5 -88.5t65 -100t41 -97t14.5 -80.5q0 -67 -26 -146.5t-75 -157.5t-115 -150.5t-146 -128t-172.5 -89t-189.5 -33.5h-254l56 313h364zM342 683
q18 -32 55 -55t87 -41t104.5 -29t109.5 -19l9 -1q-7 65 -61.5 136.5t-160.5 142.5q-51 -21 -87 -56t-56 -78z" />
    <glyph glyph-name="uni06A1.medi" unicode="&#x6a1;" horiz-adv-x="1075" 
d="M1097 0h-144q-111 0 -219.5 42t-206.5 109q-109 -69 -231.5 -110t-241.5 -41h-127l56 317h115q62 0 117 3t106 13q-75 82 -118 162t-43 139q0 53 26 109t69.5 107t97 94.5t112.5 72.5h233q50 -39 88 -90t64 -102.5t39.5 -100.5t13.5 -82q0 -69 -35.5 -143t-96.5 -145
q62 -16 129.5 -26.5t138.5 -10.5h114zM340 620q9 -40 75 -94t169 -102q82 55 123 142q-41 61 -97 110.5t-110 80.5q-26 -9 -49.5 -19t-44 -26t-38 -37.5t-28.5 -54.5z" />
    <glyph glyph-name="uni06A1.fina" unicode="&#x6a1;" horiz-adv-x="1964" 
d="M1992 0h-125q-112 0 -220.5 42t-205.5 109q-110 -69 -266.5 -117.5t-356.5 -48.5q-207 0 -352.5 41t-237 112t-133.5 168.5t-42 210.5q0 76 18 156t49 165h232q-36 -106 -36 -196q0 -172 135.5 -254t405.5 -82q90 0 150.5 3t102.5 6.5t70 8t54 9.5q-75 82 -118 162
t-43 139q0 53 26.5 109t69.5 107t97 94.5t112 72.5h233q50 -39 88 -90t64.5 -102.5t39.5 -100.5t13 -82q0 -69 -35 -143t-97 -145q64 -16 130.5 -26.5t138.5 -10.5h102zM1253 620q9 -40 75.5 -94t168.5 -102q82 55 123 142q-41 61 -97 110.5t-110 80.5q-26 -9 -49.5 -19
t-44 -26t-38 -37.5t-28.5 -54.5z" />
    <glyph glyph-name="uni06A2.init" unicode="&#x6a2;" horiz-adv-x="956" 
d="M347 313q95 0 166 17q-101 23 -168 60t-107 84.5t-58 103.5t-18 120q0 52 27 106t71 104.5t99 92.5t113 70h224q50 -39 88.5 -88.5t65 -100t41 -97t14.5 -80.5q0 -67 -26 -146.5t-75 -157.5t-115 -150.5t-146 -128t-172.5 -89t-189.5 -33.5h-254l56 313h364zM342 683
q18 -32 55 -55t87 -41t104.5 -29t109.5 -19l9 -1q-7 65 -61.5 136.5t-160.5 142.5q-51 -21 -87 -56t-56 -78zM401 -237l139 153l187 -155l-136 -158z" />
    <glyph glyph-name="uni06A2.medi" unicode="&#x6a2;" horiz-adv-x="1075" 
d="M1097 0h-144q-111 0 -219.5 42t-206.5 109q-109 -69 -231.5 -110t-241.5 -41h-127l56 317h115q62 0 117 3t106 13q-75 82 -118 162t-43 139q0 53 26 109t69.5 107t97 94.5t112.5 72.5h233q50 -39 88 -90t64 -102.5t39.5 -100.5t13.5 -82q0 -69 -35.5 -143t-96.5 -145
q62 -16 129.5 -26.5t138.5 -10.5h114zM340 620q9 -40 75 -94t169 -102q82 55 123 142q-41 61 -97 110.5t-110 80.5q-26 -9 -49.5 -19t-44 -26t-38 -37.5t-28.5 -54.5zM401 -237l139 153l187 -155l-136 -158z" />
    <glyph glyph-name="uni06A2.fina" unicode="&#x6a2;" horiz-adv-x="1964" 
d="M1992 0h-125q-112 0 -220.5 42t-205.5 109q-110 -69 -266.5 -117.5t-356.5 -48.5q-207 0 -352.5 41t-237 112t-133.5 168.5t-42 210.5q0 76 18 156t49 165h232q-36 -106 -36 -196q0 -172 135.5 -254t405.5 -82q90 0 150.5 3t102.5 6.5t70 8t54 9.5q-75 82 -118 162
t-43 139q0 53 26.5 109t69.5 107t97 94.5t112 72.5h233q50 -39 88 -90t64.5 -102.5t39.5 -100.5t13 -82q0 -69 -35 -143t-97 -145q64 -16 130.5 -26.5t138.5 -10.5h102zM1253 620q9 -40 75.5 -94t168.5 -102q82 55 123 142q-41 61 -97 110.5t-110 80.5q-26 -9 -49.5 -19
t-44 -26t-38 -37.5t-28.5 -54.5zM1301 -237l140 153l186 -155l-135 -158z" />
    <glyph glyph-name="uni06A3.init" unicode="&#x6a3;" horiz-adv-x="956" 
d="M347 313q95 0 166 17q-101 23 -168 60t-107 84.5t-58 103.5t-18 120q0 52 27 106t71 104.5t99 92.5t113 70h224q50 -39 88.5 -88.5t65 -100t41 -97t14.5 -80.5q0 -67 -26 -146.5t-75 -157.5t-115 -150.5t-146 -128t-172.5 -89t-189.5 -33.5h-254l56 313h364zM342 683
q18 -32 55 -55t87 -41t104.5 -29t109.5 -19l9 -1q-7 65 -61.5 136.5t-160.5 142.5q-51 -21 -87 -56t-56 -78zM401 1342l140 152l187 -155l-137 -158zM401 -237l139 153l187 -155l-136 -158z" />
    <glyph glyph-name="uni06A3.medi" unicode="&#x6a3;" horiz-adv-x="1075" 
d="M1097 0h-144q-111 0 -219.5 42t-206.5 109q-109 -69 -231.5 -110t-241.5 -41h-127l56 317h115q62 0 117 3t106 13q-75 82 -118 162t-43 139q0 53 26 109t69.5 107t97 94.5t112.5 72.5h233q50 -39 88 -90t64 -102.5t39.5 -100.5t13.5 -82q0 -69 -35.5 -143t-96.5 -145
q62 -16 129.5 -26.5t138.5 -10.5h114zM340 620q9 -40 75 -94t169 -102q82 55 123 142q-41 61 -97 110.5t-110 80.5q-26 -9 -49.5 -19t-44 -26t-38 -37.5t-28.5 -54.5zM406 1293l141 153l186 -155l-136 -159zM401 -237l139 153l187 -155l-136 -158z" />
    <glyph glyph-name="uni06A3.fina" unicode="&#x6a3;" horiz-adv-x="1964" 
d="M1301 1269l140 153l187 -155l-136 -158zM1992 0h-125q-112 0 -220.5 42t-205.5 109q-110 -69 -266.5 -117.5t-356.5 -48.5q-207 0 -352.5 41t-237 112t-133.5 168.5t-42 210.5q0 76 18 156t49 165h232q-36 -106 -36 -196q0 -172 135.5 -254t405.5 -82q90 0 150.5 3
t102.5 6.5t70 8t54 9.5q-75 82 -118 162t-43 139q0 53 26.5 109t69.5 107t97 94.5t112 72.5h233q50 -39 88 -90t64.5 -102.5t39.5 -100.5t13 -82q0 -69 -35 -143t-97 -145q64 -16 130.5 -26.5t138.5 -10.5h102zM1253 620q9 -40 75.5 -94t168.5 -102q82 55 123 142
q-41 61 -97 110.5t-110 80.5q-26 -9 -49.5 -19t-44 -26t-38 -37.5t-28.5 -54.5zM745 -237l140 153l187 -155l-136 -158z" />
    <glyph glyph-name="uni06A5.init" unicode="&#x6a5;" horiz-adv-x="975" 
d="M347 313q95 0 166 17q-101 23 -168 60t-107 84.5t-58 103.5t-18 120q0 52 27 106t71 104.5t99 92.5t113 70h224q50 -39 88.5 -88.5t65 -100t41 -97t14.5 -80.5q0 -67 -26 -146.5t-75 -157.5t-115 -150.5t-146 -128t-172.5 -89t-189.5 -33.5h-254l56 313h364zM342 683
q18 -32 55 -55t87 -41t104.5 -29t109.5 -19l9 -1q-7 65 -61.5 136.5t-160.5 142.5q-51 -21 -87 -56t-56 -78zM874 -260l-140 -153l-179 150l-131 -143l-186 155l136 158l183 -153l127 147zM720 -497l-128 -137l-153 127l122 143z" />
    <glyph glyph-name="uni06A5.medi" unicode="&#x6a5;" horiz-adv-x="1075" 
d="M1097 0h-144q-111 0 -219.5 42t-206.5 109q-109 -69 -231.5 -110t-241.5 -41h-127l56 317h115q62 0 117 3t106 13q-75 82 -118 162t-43 139q0 53 26 109t69.5 107t97 94.5t112.5 72.5h233q50 -39 88 -90t64 -102.5t39.5 -100.5t13.5 -82q0 -69 -35.5 -143t-96.5 -145
q62 -16 129.5 -26.5t138.5 -10.5h114zM340 620q9 -40 75 -94t169 -102q82 55 123 142q-41 61 -97 110.5t-110 80.5q-26 -9 -49.5 -19t-44 -26t-38 -37.5t-28.5 -54.5zM838 -260l-140 -153l-180 150l-130 -143l-187 155l137 158l183 -153l127 147zM683 -497l-127 -137
l-153 127l122 143z" />
    <glyph glyph-name="uni06A5.fina" unicode="&#x6a5;" horiz-adv-x="1964" 
d="M1992 0h-125q-112 0 -220.5 42t-205.5 109q-110 -69 -266.5 -117.5t-356.5 -48.5q-207 0 -352.5 41t-237 112t-133.5 168.5t-42 210.5q0 76 18 156t49 165h232q-36 -106 -36 -196q0 -172 135.5 -254t405.5 -82q90 0 150.5 3t102.5 6.5t70 8t54 9.5q-75 82 -118 162
t-43 139q0 53 26.5 109t69.5 107t97 94.5t112 72.5h233q50 -39 88 -90t64.5 -102.5t39.5 -100.5t13 -82q0 -69 -35 -143t-97 -145q64 -16 130.5 -26.5t138.5 -10.5h102zM1253 620q9 -40 75.5 -94t168.5 -102q82 55 123 142q-41 61 -97 110.5t-110 80.5q-26 -9 -49.5 -19
t-44 -26t-38 -37.5t-28.5 -54.5zM1802 -260l-140 -153l-180 150l-130 -143l-187 155l137 158l183 -153l127 147zM1647 -497l-127 -137l-153 127l122 143z" />
    <glyph glyph-name="uni06A7.init" unicode="&#x6a7;" horiz-adv-x="979" 
d="M347 313q95 0 166 17q-101 23 -168 60t-107 84.5t-58 103.5t-18 120q0 52 27 106t71 104.5t99 92.5t113 70h224q50 -39 88.5 -88.5t65 -100t41 -97t14.5 -80.5q0 -67 -26 -146.5t-75 -157.5t-115 -150.5t-146 -128t-172.5 -89t-189.5 -33.5h-254l56 313h364zM342 683
q18 -32 55 -55t87 -41t104.5 -29t109.5 -19l9 -1q-7 65 -61.5 136.5t-160.5 142.5q-51 -21 -87 -56t-56 -78zM401 1342l140 152l187 -155l-137 -158z" />
    <glyph glyph-name="uni06A7.medi" unicode="&#x6a7;" horiz-adv-x="1075" 
d="M1097 0h-144q-111 0 -219.5 42t-206.5 109q-109 -69 -231.5 -110t-241.5 -41h-127l56 317h115q62 0 117 3t106 13q-75 82 -118 162t-43 139q0 53 26 109t69.5 107t97 94.5t112.5 72.5h233q50 -39 88 -90t64 -102.5t39.5 -100.5t13.5 -82q0 -69 -35.5 -143t-96.5 -145
q62 -16 129.5 -26.5t138.5 -10.5h114zM340 620q9 -40 75 -94t169 -102q82 55 123 142q-41 61 -97 110.5t-110 80.5q-26 -9 -49.5 -19t-44 -26t-38 -37.5t-28.5 -54.5zM406 1293l141 153l186 -155l-136 -159z" />
    <glyph glyph-name="uni06A7.fina" unicode="&#x6a7;" horiz-adv-x="1876" 
d="M1711 0q-72 0 -139 5q-56 -91 -134 -167.5t-178.5 -131.5t-220.5 -86t-258 -31q-161 0 -293 54.5t-228 154t-149.5 240t-53.5 311.5q0 89 15 183.5t47 195.5h218q-30 -114 -30 -219q0 -142 51.5 -248t138.5 -178t200 -107.5t239 -35.5q119 0 220 30t177 78
q-89 27 -168 68t-136 98t-90 133.5t-33 170.5q0 53 30.5 118t78.5 129.5t106.5 118t116.5 81.5h233q51 -39 92 -109.5t71.5 -144t47.5 -140.5t17 -101q0 -39 -4 -77.5t-9 -75.5h265l-56 -317h-184zM1085 504q56 -52 106 -86t100 -55t100.5 -30.5t104.5 -13.5
q-8 39 -27.5 91.5t-50.5 106.5t-71 102.5t-90 81.5q-27 -9 -52 -33t-48 -53t-42 -58.5t-30 -52.5zM1137 1315l141 152l187 -155l-137 -159z" />
    <glyph glyph-name="uni06A8.init" unicode="&#x6a8;" horiz-adv-x="985" 
d="M347 313q95 0 166 17q-101 23 -168 60t-107 84.5t-58 103.5t-18 120q0 52 27 106t71 104.5t99 92.5t113 70h224q50 -39 88.5 -88.5t65 -100t41 -97t14.5 -80.5q0 -67 -26 -146.5t-75 -157.5t-115 -150.5t-146 -128t-172.5 -89t-189.5 -33.5h-254l56 313h364zM201 1321
l141 153l178 -149l131 144l186 -155l-136 -159l-183 153l-126 -147zM342 683q18 -32 55 -55t87 -41t104.5 -29t109.5 -19l9 -1q-7 65 -61.5 136.5t-160.5 142.5q-51 -21 -87 -56t-56 -78zM356 1558l127 138l153 -127l-121 -143z" />
    <glyph glyph-name="uni06A8.medi" unicode="&#x6a8;" horiz-adv-x="1075" 
d="M1097 0h-144q-111 0 -219.5 42t-206.5 109q-109 -69 -231.5 -110t-241.5 -41h-127l56 317h115q62 0 117 3t106 13q-75 82 -118 162t-43 139q0 53 26 109t69.5 107t97 94.5t112.5 72.5h233q50 -39 88 -90t64 -102.5t39.5 -100.5t13.5 -82q0 -69 -35.5 -143t-96.5 -145
q62 -16 129.5 -26.5t138.5 -10.5h114zM222 1271l140 153l179 -149l130 143l187 -155l-137 -159l-182 153l-127 -146zM340 620q9 -40 75 -94t169 -102q82 55 123 142q-41 61 -97 110.5t-110 80.5q-26 -9 -49.5 -19t-44 -26t-38 -37.5t-28.5 -54.5zM377 1508l127 137l153 -126
l-121 -144z" />
    <glyph glyph-name="uni06A8.fina" unicode="&#x6a8;" horiz-adv-x="1876" 
d="M1711 0q-72 0 -139 5q-56 -91 -134 -167.5t-178.5 -131.5t-220.5 -86t-258 -31q-161 0 -293 54.5t-228 154t-149.5 240t-53.5 311.5q0 89 15 183.5t47 195.5h218q-30 -114 -30 -219q0 -142 51.5 -248t138.5 -178t200 -107.5t239 -35.5q119 0 220 30t177 78
q-89 27 -168 68t-136 98t-90 133.5t-33 170.5q0 53 30.5 118t78.5 129.5t106.5 118t116.5 81.5h233q51 -39 92 -109.5t71.5 -144t47.5 -140.5t17 -101q0 -39 -4 -77.5t-9 -75.5h265l-56 -317h-184zM1085 504q56 -52 106 -86t100 -55t100.5 -30.5t104.5 -13.5
q-8 39 -27.5 91.5t-50.5 106.5t-71 102.5t-90 81.5q-27 -9 -52 -33t-48 -53t-42 -58.5t-30 -52.5zM1004 1213l141 154l178 -150l132 144l185 -155l-135 -158l-183 153l-127 -148zM1159 1450l127 139l153 -128l-121 -143z" />
    <glyph glyph-name="uni06AA.init" unicode="&#x6aa;" horiz-adv-x="921" 
d="M944 1259q-114 -20 -207.5 -44t-173.5 -53.5t-153.5 -65t-148.5 -79.5l390 -358q20 -19 38 -43.5t32 -51t21.5 -53t7.5 -48.5q0 -77 -42 -158t-121.5 -149.5t-194 -112t-262.5 -43.5h-203l56 317h74q155 0 276.5 38.5t177.5 86.5l-399 377q-34 32 -60 79.5t-26 101.5
q0 52 19 95q30 73 101.5 135.5t163 114t194 91.5t196.5 68z" />
    <glyph glyph-name="uni06AA.medi" unicode="&#x6aa;" horiz-adv-x="1136" 
d="M1157 0h-112q-53 0 -106 20.5t-105 56t-103.5 79.5t-98.5 92q-32 -50 -77.5 -95.5t-108 -79.5t-140.5 -53.5t-176 -19.5h-203l56 317h74q153 0 246.5 37.5t150.5 85.5l-342 379q-34 32 -60 79.5t-26 101.5q0 32 9.5 60t23.5 54q41 69 124.5 129t184 109t207.5 86.5
t197 65.5l245 -245q-230 -43 -417.5 -98t-338.5 -144l334 -358q35 -36 87.5 -94t112 -113t124 -95t124.5 -40h169z" />
    <glyph glyph-name="uni06AA.fina" unicode="&#x6aa;" horiz-adv-x="1814" 
d="M1833 0h-113q-103 0 -204.5 68.5t-206.5 179.5q-23 -72 -103 -122.5t-184.5 -81.5t-213 -45t-186.5 -14q-301 0 -440 149t-146 432l209 27q17 -71 43 -124.5t67 -90t100.5 -54.5t146.5 -18t170 7.5t153 24t123 41.5t81 61l-341 379q-34 32 -60 79.5t-26 101.5
q0 47 19.5 89.5t56.5 82.5q54 58 135.5 108t173.5 92t186.5 75t174.5 57l245 -245q-229 -43 -417 -98t-339 -144l366 -394q58 -62 113 -117.5t108 -98t101.5 -66.5t93.5 -24h170z" />
    <glyph glyph-name="uni06AB.init" unicode="&#x6ab;" horiz-adv-x="921" 
d="M54 1412q124 94 239 158t239 109l78 -91q-67 -25 -144.5 -57t-155 -74.5t-149.5 -91.5t-129 -106zM944 1259q-114 -20 -207.5 -44t-173.5 -53.5t-153.5 -65t-148.5 -79.5l390 -358q20 -19 38 -43.5t32 -51t21.5 -53t7.5 -48.5q0 -77 -42 -158t-121.5 -149.5t-194 -112
t-262.5 -43.5h-203l56 317h74q155 0 276.5 38.5t177.5 86.5l-399 377q-34 32 -60 79.5t-26 101.5q0 52 19 95q30 73 101.5 135.5t163 114t194 91.5t196.5 68z" />
    <glyph glyph-name="uni06AB.medi" unicode="&#x6ab;" horiz-adv-x="1136" 
d="M114 1420q125 93 240.5 153.5t238.5 105.5l78 -91q-67 -25 -144.5 -56.5t-155 -71.5t-150 -88.5t-130.5 -104.5zM1157 0h-112q-53 0 -106 20.5t-105 56t-103.5 79.5t-98.5 92q-32 -50 -77.5 -95.5t-108 -79.5t-140.5 -53.5t-176 -19.5h-203l56 317h74q153 0 246.5 37.5
t150.5 85.5l-342 379q-34 32 -60 79.5t-26 101.5q0 32 9.5 60t23.5 54q41 69 124.5 129t184 109t207.5 86.5t197 65.5l245 -245q-230 -43 -417.5 -98t-338.5 -144l334 -358q35 -36 87.5 -94t112 -113t124 -95t124.5 -40h169z" />
    <glyph glyph-name="uni06AB.fina" unicode="&#x6ab;" horiz-adv-x="1814" 
d="M789 1420q126 93 242 153.5t239 105.5l78 -91q-68 -25 -145 -56.5t-154.5 -71.5t-150.5 -88.5t-130 -104.5zM1833 0h-113q-103 0 -204.5 68.5t-206.5 179.5q-23 -72 -103 -122.5t-184.5 -81.5t-213 -45t-186.5 -14q-301 0 -440 149t-146 432l209 27q17 -71 43 -124.5
t67 -90t100.5 -54.5t146.5 -18t170 7.5t153 24t123 41.5t81 61l-341 379q-34 32 -60 79.5t-26 101.5q0 47 19.5 89.5t56.5 82.5q54 58 135.5 108t173.5 92t186.5 75t174.5 57l245 -245q-229 -43 -417 -98t-339 -144l366 -394q58 -62 113 -117.5t108 -98t101.5 -66.5
t93.5 -24h170z" />
    <glyph glyph-name="uni06AC.init" unicode="&#x6ac;" horiz-adv-x="921" 
d="M944 1259q-114 -20 -207.5 -44t-173.5 -53.5t-153.5 -65t-148.5 -79.5l390 -358q20 -19 38 -43.5t32 -51t21.5 -53t7.5 -48.5q0 -77 -42 -158t-121.5 -149.5t-194 -112t-262.5 -43.5h-203l56 317h74q155 0 276.5 38.5t177.5 86.5l-399 377q-34 32 -60 79.5t-26 101.5
q0 52 19 95q30 73 101.5 135.5t163 114t194 91.5t196.5 68zM167 1710l140 152l187 -155l-137 -158z" />
    <glyph glyph-name="uni06AC.medi" unicode="&#x6ac;" horiz-adv-x="1136" 
d="M1157 0h-112q-53 0 -106 20.5t-105 56t-103.5 79.5t-98.5 92q-32 -50 -77.5 -95.5t-108 -79.5t-140.5 -53.5t-176 -19.5h-203l56 317h74q153 0 246.5 37.5t150.5 85.5l-342 379q-34 32 -60 79.5t-26 101.5q0 32 9.5 60t23.5 54q41 69 124.5 129t184 109t207.5 86.5
t197 65.5l245 -245q-230 -43 -417.5 -98t-338.5 -144l334 -358q35 -36 87.5 -94t112 -113t124 -95t124.5 -40h169zM167 1710l140 152l187 -155l-137 -158z" />
    <glyph glyph-name="uni06AC.fina" unicode="&#x6ac;" horiz-adv-x="1720" 
d="M1645 0q-185 0 -278 68.5t-117 218.5q-189 -134 -383.5 -218t-381.5 -84q-107 0 -185.5 46.5t-131 124t-82 177.5t-34.5 208l212 45q14 -71 35.5 -121t56 -83t83 -49t119.5 -16q69 0 150 11.5t166.5 33t172.5 54t169 75.5l-33 964l300 44l-17 -969q2 -64 13.5 -105
t33.5 -65t57.5 -33.5t89.5 -9.5h135l-57 -317h-93zM899 789q-28 -2 -71 -8.5t-93.5 -16t-104.5 -21t-104 -25.5q3 10 10 28.5t14 36.5q8 21 15 43l133 12q-55 9 -92 34t-37 52q0 46 26 86t67 70.5t91.5 50t101.5 26.5l46 -133q-80 -2 -130.5 -21.5t-70.5 -51.5
q16 -24 55 -34.5t79 -13.5q46 -6 101 -2zM1175 1721l141 152l186 -155l-136 -158z" />
    <glyph glyph-name="uni06AE.init" unicode="&#x6ae;" horiz-adv-x="921" 
d="M944 1259q-114 -20 -207.5 -44t-173.5 -53.5t-153.5 -65t-148.5 -79.5l390 -358q20 -19 38 -43.5t32 -51t21.5 -53t7.5 -48.5q0 -77 -42 -158t-121.5 -149.5t-194 -112t-262.5 -43.5h-203l56 317h74q155 0 276.5 38.5t177.5 86.5l-399 377q-34 32 -60 79.5t-26 101.5
q0 52 19 95q30 73 101.5 135.5t163 114t194 91.5t196.5 68zM683 -260l-140 -153l-180 150l-130 -143l-187 155l137 158l183 -153l127 147zM528 -497l-127 -137l-153 127l122 143z" />
    <glyph glyph-name="uni06AE.medi" unicode="&#x6ae;" horiz-adv-x="1136" 
d="M1157 0h-112q-53 0 -106 20.5t-105 56t-103.5 79.5t-98.5 92q-32 -50 -77.5 -95.5t-108 -79.5t-140.5 -53.5t-176 -19.5h-203l56 317h74q153 0 246.5 37.5t150.5 85.5l-342 379q-34 32 -60 79.5t-26 101.5q0 32 9.5 60t23.5 54q41 69 124.5 129t184 109t207.5 86.5
t197 65.5l245 -245q-230 -43 -417.5 -98t-338.5 -144l334 -358q35 -36 87.5 -94t112 -113t124 -95t124.5 -40h169zM729 -260l-141 -153l-179 150l-130 -143l-187 155l137 158l183 -153l126 147zM574 -497l-128 -137l-153 127l122 143z" />
    <glyph glyph-name="uni06AE.fina" unicode="&#x6ae;" horiz-adv-x="1720" 
d="M1645 0q-185 0 -278 68.5t-117 218.5q-189 -134 -383.5 -218t-381.5 -84q-107 0 -185.5 46.5t-131 124t-82 177.5t-34.5 208l212 45q14 -71 35.5 -121t56 -83t83 -49t119.5 -16q69 0 150 11.5t166.5 33t172.5 54t169 75.5l-33 964l300 44l-17 -969q2 -64 13.5 -105
t33.5 -65t57.5 -33.5t89.5 -9.5h135l-57 -317h-93zM899 789q-28 -2 -71 -8.5t-93.5 -16t-104.5 -21t-104 -25.5q3 10 10 28.5t14 36.5q8 21 15 43l133 12q-55 9 -92 34t-37 52q0 46 26 86t67 70.5t91.5 50t101.5 26.5l46 -133q-80 -2 -130.5 -21.5t-70.5 -51.5
q16 -24 55 -34.5t79 -13.5q46 -6 101 -2zM1091 -260l-140 -153l-179 150l-131 -143l-186 155l136 158l183 -153l127 147zM937 -497l-128 -137l-153 127l122 143z" />
    <glyph glyph-name="uni06B0.init" unicode="&#x6b0;" horiz-adv-x="921" 
d="M54 1412q124 94 239 158t239 109l78 -91q-67 -25 -144.5 -57t-155 -74.5t-149.5 -91.5t-129 -106zM506 1140q-50 -20 -96 -43q-74 -36 -149 -80l390 -358q20 -19 38 -43.5t32 -51t21.5 -53t7.5 -48.5q0 -77 -42 -158t-121.5 -149.5t-194 -112t-262.5 -43.5h-203l56 317
h74q155 0 276.5 38.5t177.5 86.5l-399 377q-34 32 -60 79.5t-26 101.5q0 52 19 95q30 73 101.5 135.5t163 114t194 91.5t196.5 68l244 -245q-100 -17 -183 -38q15 -15 27 -30q13 -19 20 -42.5t7 -57.5t-16 -64.5t-41.5 -53t-56.5 -35.5t-61 -13q-71 0 -112.5 33t-41.5 95
q0 28 9 57q5 15 11 30zM630 1184q-1 0 -2 -1q-27 -26 -42 -51q-18 -26 -18 -44q0 -25 19.5 -42t56.5 -17q31 0 61 14.5t44 39.5q-15 28 -44 50t-75 51z" />
    <glyph glyph-name="uni06B0.medi" unicode="&#x6b0;" horiz-adv-x="1136" 
d="M785 1074q-14 28 -43.5 50t-75.5 52q-27 -27 -44 -53t-17 -44q0 -25 19 -42.5t56 -17.5q31 0 61.5 15t43.5 40zM114 1420q125 93 240.5 153.5t238.5 105.5l78 -91q-67 -25 -144.5 -56.5t-155 -71.5t-150 -88.5t-130.5 -104.5zM551 1146q-159 -52 -290 -129l334 -358
q35 -36 87.5 -94t112 -113t124 -95t124.5 -40h169l-55 -317h-112q-53 0 -106 20.5t-105 56t-103.5 79.5t-98.5 92q-32 -50 -77.5 -95.5t-108 -79.5t-140.5 -53.5t-176 -19.5h-203l56 317h74q153 0 246.5 37.5t150.5 85.5l-342 379q-34 32 -60 79.5t-26 101.5q0 32 9.5 60
t23.5 54q41 69 124.5 129t184 109t207.5 86.5t197 65.5l245 -245q-116 -22 -221 -46q17 -15 28 -31q13 -19 20.5 -42.5t7.5 -57.5t-16 -64.5t-41.5 -53t-56.5 -35.5t-61 -13q-71 0 -112.5 33t-41.5 95q0 28 9 57q7 22 19 45z" />
    <glyph glyph-name="uni06B0.fina" unicode="&#x6b0;" horiz-adv-x="1814" 
d="M789 1420q126 93 242 153.5t239 105.5l78 -91q-68 -25 -145 -56.5t-154.5 -71.5t-150.5 -88.5t-130 -104.5zM1359 1184q-2 -1 -4 -1q-26 -26 -42 -51q-17 -26 -17 -44q0 -25 19 -42t57 -17q31 0 61 14.5t43 39.5q-14 28 -43 50t-74 51zM1239 1150q-165 -53 -302 -133
l366 -394q58 -62 113 -117.5t108 -98t101.5 -66.5t93.5 -24h170l-56 -317h-113q-103 0 -204.5 68.5t-206.5 179.5q-23 -72 -103 -122.5t-184.5 -81.5t-213 -45t-186.5 -14q-301 0 -440 149t-146 432l209 27q17 -71 43 -124.5t67 -90t100.5 -54.5t146.5 -18t170 7.5t153 24
t123 41.5t81 61l-341 379q-34 32 -60 79.5t-26 101.5q0 47 19.5 89.5t56.5 82.5q54 58 135.5 108t173.5 92t186.5 75t174.5 57l245 -245q-105 -19 -201 -42q13 -13 24 -26q12 -19 19.5 -42.5t7.5 -57.5t-16 -64.5t-41.5 -53t-56.5 -35.5t-61 -13q-71 0 -112.5 33t-41.5 95
q0 28 9 57q6 20 16 40z" />
    <glyph glyph-name="uni06B2.init" unicode="&#x6b2;" horiz-adv-x="921" 
d="M54 1412q124 94 239 158t239 109l78 -91q-67 -25 -144.5 -57t-155 -74.5t-149.5 -91.5t-129 -106zM944 1259q-114 -20 -207.5 -44t-173.5 -53.5t-153.5 -65t-148.5 -79.5l390 -358q20 -19 38 -43.5t32 -51t21.5 -53t7.5 -48.5q0 -77 -42 -158t-121.5 -149.5t-194 -112
t-262.5 -43.5h-203l56 317h74q155 0 276.5 38.5t177.5 86.5l-399 377q-34 32 -60 79.5t-26 101.5q0 52 19 95q30 73 101.5 135.5t163 114t194 91.5t196.5 68zM683 -260l-140 -153l-180 150l-130 -143l-187 155l137 158l183 -153l127 147z" />
    <glyph glyph-name="uni06B2.medi" unicode="&#x6b2;" horiz-adv-x="1136" 
d="M114 1420q125 93 240.5 153.5t238.5 105.5l78 -91q-67 -25 -144.5 -56.5t-155 -71.5t-150 -88.5t-130.5 -104.5zM1157 0h-112q-53 0 -106 20.5t-105 56t-103.5 79.5t-98.5 92q-32 -50 -77.5 -95.5t-108 -79.5t-140.5 -53.5t-176 -19.5h-203l56 317h74q153 0 246.5 37.5
t150.5 85.5l-342 379q-34 32 -60 79.5t-26 101.5q0 32 9.5 60t23.5 54q41 69 124.5 129t184 109t207.5 86.5t197 65.5l245 -245q-230 -43 -417.5 -98t-338.5 -144l334 -358q35 -36 87.5 -94t112 -113t124 -95t124.5 -40h169zM683 -260l-140 -153l-180 150l-130 -143
l-187 155l137 158l183 -153l127 147z" />
    <glyph glyph-name="uni06B2.fina" unicode="&#x6b2;" horiz-adv-x="1814" 
d="M789 1420q126 93 242 153.5t239 105.5l78 -91q-68 -25 -145 -56.5t-154.5 -71.5t-150.5 -88.5t-130 -104.5zM1833 0h-113q-103 0 -204.5 68.5t-206.5 179.5q-23 -72 -103 -122.5t-184.5 -81.5t-213 -45t-186.5 -14q-301 0 -440 149t-146 432l209 27q17 -71 43 -124.5
t67 -90t100.5 -54.5t146.5 -18t170 7.5t153 24t123 41.5t81 61l-341 379q-34 32 -60 79.5t-26 101.5q0 47 19.5 89.5t56.5 82.5q54 58 135.5 108t173.5 92t186.5 75t174.5 57l245 -245q-229 -43 -417 -98t-339 -144l366 -394q58 -62 113 -117.5t108 -98t101.5 -66.5
t93.5 -24h170zM1092 -260l-140 -153l-180 150l-130 -143l-187 155l137 158l183 -153l126 147z" />
    <glyph glyph-name="uni06B4.init" unicode="&#x6b4;" horiz-adv-x="921" 
d="M54 1412q124 94 239 158t239 109l78 -91q-67 -25 -144.5 -57t-155 -74.5t-149.5 -91.5t-129 -106zM944 1259q-114 -20 -207.5 -44t-173.5 -53.5t-153.5 -65t-148.5 -79.5l390 -358q20 -19 38 -43.5t32 -51t21.5 -53t7.5 -48.5q0 -77 -42 -158t-121.5 -149.5t-194 -112
t-262.5 -43.5h-203l56 317h74q155 0 276.5 38.5t177.5 86.5l-399 377q-34 32 -60 79.5t-26 101.5q0 52 19 95q30 73 101.5 135.5t163 114t194 91.5t196.5 68zM44 1869l129 143l166 -139l121 133l172 -143l-126 -147l-169 142l-118 -137zM187 2089l117 128l142 -118
l-113 -132z" />
    <glyph glyph-name="uni06B4.medi" unicode="&#x6b4;" horiz-adv-x="1136" 
d="M114 1420q125 93 240.5 153.5t238.5 105.5l78 -91q-67 -25 -144.5 -56.5t-155 -71.5t-150 -88.5t-130.5 -104.5zM1157 0h-112q-53 0 -106 20.5t-105 56t-103.5 79.5t-98.5 92q-32 -50 -77.5 -95.5t-108 -79.5t-140.5 -53.5t-176 -19.5h-203l56 317h74q153 0 246.5 37.5
t150.5 85.5l-342 379q-34 32 -60 79.5t-26 101.5q0 32 9.5 60t23.5 54q41 69 124.5 129t184 109t207.5 86.5t197 65.5l245 -245q-230 -43 -417.5 -98t-338.5 -144l334 -358q35 -36 87.5 -94t112 -113t124 -95t124.5 -40h169zM53 1869l129 143l166 -139l121 133l172 -143
l-125 -147l-170 142l-117 -137zM196 2089l117 128l142 -118l-113 -132z" />
    <glyph glyph-name="uni06B4.fina" unicode="&#x6b4;" horiz-adv-x="1814" 
d="M789 1420q126 93 242 153.5t239 105.5l78 -91q-68 -25 -145 -56.5t-154.5 -71.5t-150.5 -88.5t-130 -104.5zM1833 0h-113q-103 0 -204.5 68.5t-206.5 179.5q-23 -72 -103 -122.5t-184.5 -81.5t-213 -45t-186.5 -14q-301 0 -440 149t-146 432l209 27q17 -71 43 -124.5
t67 -90t100.5 -54.5t146.5 -18t170 7.5t153 24t123 41.5t81 61l-341 379q-34 32 -60 79.5t-26 101.5q0 47 19.5 89.5t56.5 82.5q54 58 135.5 108t173.5 92t186.5 75t174.5 57l245 -245q-229 -43 -417 -98t-339 -144l366 -394q58 -62 113 -117.5t108 -98t101.5 -66.5
t93.5 -24h170zM635 1869l129 143l166 -139l121 133l172 -143l-126 -147l-169 142l-118 -137zM778 2089l117 128l142 -118l-113 -132z" />
    <glyph glyph-name="uni06B5.init" unicode="&#x6b5;" horiz-adv-x="665" 
d="M537 466q-1 -115 -39.5 -201.5t-103 -145.5t-152 -89t-190.5 -30h-125l56 317h67q45 0 88 10.5t76.5 34.5t53 63.5t19.5 96.5l-32 933l301 44zM317 1622q-8 0 -18 42q-29 94 -171 256v6q66 93 74 103q31 -35 62 -75q68 -96 132 -202h2q43 111 221 262q5 -3 51 -145v-2
q-36 -24 -114 -106q-88 -109 -92 -179q-6 0 -147 40z" />
    <glyph glyph-name="uni06B5.medi" unicode="&#x6b5;" horiz-adv-x="798" 
d="M737 0q-244 0 -349 196q-69 -97 -160.5 -146.5t-186.5 -49.5h-114l56 317h67q183 0 241 155l-36 983l301 44l-17 -958q4 -67 17 -111t38 -69t63.5 -34.5t93.5 -9.5h123l-55 -317h-82zM317 1622q-8 0 -18 42q-29 94 -171 256v6q66 93 74 103q31 -35 62 -75
q68 -96 132 -202h2q43 111 221 262q5 -3 51 -145v-2q-36 -24 -114 -106q-88 -109 -92 -179q-6 0 -147 40z" />
    <glyph glyph-name="uni06B5.fina" unicode="&#x6b5;" horiz-adv-x="1570" 
d="M1495 0q-101 0 -168 18.5t-111 58.5q-34 -105 -87.5 -193.5t-129 -154t-176 -103t-229.5 -37.5q-138 0 -238 39t-164 109.5t-96 166.5t-32 212q0 196 86 427h213q-75 -210 -75 -343q0 -150 86.5 -212.5t252.5 -62.5q146 0 232 50.5t130.5 135.5t58 197t13.5 235v140
l-29 772l301 44l-17 -971q2 -63 13 -104t33.5 -64.5t58 -33t89.5 -9.5h135l-57 -317h-93zM1099 1622q-8 0 -18 42q-29 94 -171 256v6q66 93 74 103q31 -35 62 -75q68 -96 132 -202h2q43 111 221 262q5 -3 51 -145v-2q-36 -24 -114 -106q-88 -109 -92 -179q-6 0 -147 40z" />
    <glyph glyph-name="uni06B6.init" unicode="&#x6b6;" horiz-adv-x="665" 
d="M537 466q-1 -115 -39.5 -201.5t-103 -145.5t-152 -89t-190.5 -30h-125l56 317h67q45 0 88 10.5t76.5 34.5t53 63.5t19.5 96.5l-32 933l301 44zM239 1728l141 152l187 -155l-137 -158z" />
    <glyph glyph-name="uni06B6.medi" unicode="&#x6b6;" horiz-adv-x="798" 
d="M737 0q-244 0 -349 196q-69 -97 -160.5 -146.5t-186.5 -49.5h-114l56 317h67q183 0 241 155l-36 983l301 44l-17 -958q4 -67 17 -111t38 -69t63.5 -34.5t93.5 -9.5h123l-55 -317h-82zM239 1728l141 152l187 -155l-137 -158z" />
    <glyph glyph-name="uni06B6.fina" unicode="&#x6b6;" horiz-adv-x="1570" 
d="M1495 0q-101 0 -168 18.5t-111 58.5q-34 -105 -87.5 -193.5t-129 -154t-176 -103t-229.5 -37.5q-138 0 -238 39t-164 109.5t-96 166.5t-32 212q0 196 86 427h213q-75 -210 -75 -343q0 -150 86.5 -212.5t252.5 -62.5q146 0 232 50.5t130.5 135.5t58 197t13.5 235v140
l-29 772l301 44l-17 -971q2 -63 13 -104t33.5 -64.5t58 -33t89.5 -9.5h135l-57 -317h-93zM1021 1728l141 152l187 -155l-137 -158z" />
    <glyph glyph-name="uni06B7.init" unicode="&#x6b7;" horiz-adv-x="671" 
d="M537 466q-1 -115 -39.5 -201.5t-103 -145.5t-152 -89t-190.5 -30h-125l56 317h67q45 0 88 10.5t76.5 34.5t53 63.5t19.5 96.5l-32 933l301 44zM98 1733l130 142l165 -139l122 133l172 -143l-126 -146l-169 141l-118 -137zM241 1952l118 128l142 -118l-113 -132z" />
    <glyph glyph-name="uni06B7.medi" unicode="&#x6b7;" horiz-adv-x="798" 
d="M737 0q-244 0 -349 196q-69 -97 -160.5 -146.5t-186.5 -49.5h-114l56 317h67q183 0 241 155l-36 983l301 44l-17 -958q4 -67 17 -111t38 -69t63.5 -34.5t93.5 -9.5h123l-55 -317h-82zM89 1733l130 142l165 -139l122 133l172 -143l-126 -146l-169 141l-118 -137zM232 1952
l118 128l142 -118l-113 -132z" />
    <glyph glyph-name="uni06B7.fina" unicode="&#x6b7;" horiz-adv-x="1570" 
d="M1495 0q-101 0 -168 18.5t-111 58.5q-34 -105 -87.5 -193.5t-129 -154t-176 -103t-229.5 -37.5q-138 0 -238 39t-164 109.5t-96 166.5t-32 212q0 196 86 427h213q-75 -210 -75 -343q0 -150 86.5 -212.5t252.5 -62.5q146 0 232 50.5t130.5 135.5t58 197t13.5 235v140
l-29 772l301 44l-17 -971q2 -63 13 -104t33.5 -64.5t58 -33t89.5 -9.5h135l-57 -317h-93zM862 1733l129 142l166 -139l121 133l173 -143l-126 -146l-170 141l-117 -137zM1005 1952l118 128l142 -118l-113 -132z" />
    <glyph glyph-name="uni06B8.init" unicode="&#x6b8;" horiz-adv-x="729" 
d="M610 466q-2 -115 -40 -201.5t-102.5 -145.5t-152 -89t-190.5 -30h-198l56 317h140q45 0 88 10.5t76.5 34.5t53 63.5t19.5 96.5l-32 933l300 44zM583 -260l-140 -153l-180 150l-130 -143l-187 155l137 158l183 -153l127 147zM428 -497l-127 -137l-154 127l123 143z" />
    <glyph glyph-name="uni06B8.medi" unicode="&#x6b8;" horiz-adv-x="798" 
d="M737 0q-244 0 -349 196q-69 -97 -160.5 -146.5t-186.5 -49.5h-114l56 317h67q183 0 241 155l-36 983l301 44l-17 -958q4 -67 17 -111t38 -69t63.5 -34.5t93.5 -9.5h123l-55 -317h-82zM683 -260l-140 -153l-180 150l-130 -143l-187 155l137 158l183 -153l127 147z
M528 -497l-127 -137l-153 127l122 143z" />
    <glyph glyph-name="uni06B8.fina" unicode="&#x6b8;" horiz-adv-x="1570" 
d="M1495 0q-101 0 -168 18.5t-111 58.5q-34 -105 -87.5 -193.5t-129 -154t-176 -103t-229.5 -37.5q-138 0 -238 39t-164 109.5t-96 166.5t-32 212q0 196 86 427h213q-75 -210 -75 -343q0 -150 86.5 -212.5t252.5 -62.5q146 0 232 50.5t130.5 135.5t58 197t13.5 235v140
l-29 772l301 44l-17 -971q2 -63 13 -104t33.5 -64.5t58 -33t89.5 -9.5h135l-57 -317h-93zM1000 -671l-141 -153l-179 149l-130 -143l-187 155l136 158l184 -153l126 147zM845 -908l-128 -138l-153 127l122 144z" />
    <glyph glyph-name="uni06B9.init" unicode="&#x6b9;" horiz-adv-x="612" 
d="M96 1132l141 153l187 -154l-137 -159zM-17 317h224q30 57 46 121t16 135q0 63 -15 130.5t-47 134.5h270q36 -94 36 -208q0 -145 -52.5 -304.5t-139.5 -325.5h-394zM87 -237l141 153l186 -155l-136 -158z" />
    <glyph glyph-name="uni06B9.medi" unicode="&#x6b9;" horiz-adv-x="798" 
d="M737 0q-244 0 -349 196q-69 -97 -160.5 -146.5t-186.5 -49.5h-114l56 317h67q123 0 190.5 71t70.5 205v245h226v-229q0 -91 10 -147t35.5 -88t66.5 -44.5t102 -12.5h123l-55 -317h-82zM248 1136l140 153l187 -155l-137 -158zM228 -237l139 153l187 -155l-136 -158z" />
    <glyph glyph-name="uni06B9.fina" unicode="&#x6b9;" horiz-adv-x="1495" 
d="M399 774l140 153l186 -154l-136 -159zM1477 0q-54 0 -129.5 36.5t-146.5 105.5q-15 -110 -57.5 -210.5t-117.5 -176.5t-186 -121t-262 -45q-116 0 -211 33t-162 95.5t-103.5 152t-36.5 203.5q0 155 69 340h214q-44 -135 -44 -228q0 -135 80 -197.5t228 -62.5
q91 0 169 20.5t136 65.5t91 115t33 169q0 20 -1 39.5t-1 39.5l-162 313l242 96l99 -233q49 -114 114 -173.5t138 -59.5h99l-56 -317h-36zM450 -668l140 153l187 -155l-136 -158z" />
    <glyph glyph-name="uni06BC.init" unicode="&#x6bc;" horiz-adv-x="778" 
d="M233 0h-3q-41 -41 -67 -82q-28 -41 -28 -69q0 -38 30.5 -65.5t89.5 -27.5q48 0 95 23t67 63q-22 44 -68 79q-45 33 -116 79zM315 1132l140 153l187 -154l-137 -159zM79 0h-155l56 317h388q30 57 46 121t16 135q0 63 -15 130.5t-47 134.5h270q36 -94 36 -208
q0 -145 -52 -305q-52 -157 -139 -321q18 -28 29 -60q11 -37 11 -89q0 -55 -25.5 -102.5t-65.5 -82.5t-88 -55t-96 -20q-111 0 -175.5 51.5t-64.5 148.5q0 45 13.5 88t37.5 85q9 16 20 32z" />
    <glyph glyph-name="uni06BC.medi" unicode="&#x6bc;" horiz-adv-x="983" 
d="M421 1136l140 153l187 -155l-137 -158zM234 0h-3q-42 -41 -68 -82q-27 -41 -27 -69q0 -38 30.5 -65.5t88.5 -27.5q48 0 95 23t68 63q-22 44 -67 79q-45 33 -117 79zM79 0h-152l56 317h258q123 0 190.5 71t71.5 205v245h226v-229q0 -91 10 -147t35.5 -88t66.5 -44.5
t102 -12.5h123l-56 -317h-82q-244 0 -349 196q-63 -88 -144 -137q26 -23 44 -49q21 -29 32.5 -66t11.5 -89q0 -55 -25 -102.5t-65 -82.5t-88.5 -55t-95.5 -20q-111 0 -176 51.5t-65 148.5q0 45 13.5 88t37.5 85q9 16 20 32z" />
    <glyph glyph-name="uni06BC.fina" unicode="&#x6bc;" horiz-adv-x="1495" 
d="M399 774l140 153l186 -154l-136 -159zM455 -401q-46 8 -88 23q-95 33 -162 95.5t-103.5 152t-36.5 203.5q0 155 69 340h214q-44 -135 -44 -228q0 -135 80 -197.5t228 -62.5q91 0 169 20.5t136 65.5t91 115t33 169q0 20 -1 39.5t-1 39.5l-162 313l242 96l99 -233
q49 -114 114 -173.5t138 -59.5h99l-56 -317h-36q-54 0 -129.5 36.5t-146.5 105.5q-15 -110 -57.5 -210.5t-117.5 -176.5t-186 -120q-7 -4 -15 -7q13 -14 23 -29q21 -29 32.5 -66t11.5 -89q0 -54 -25.5 -102t-65 -83t-88 -55t-95.5 -20q-111 0 -176 51.5t-65 148.5
q0 45 14 88t38 85q12 21 26 42zM602 -411h-2q-41 -41 -68 -82t-27 -69q0 -38 30.5 -65.5t88.5 -27.5q49 0 95.5 23t67.5 64q-22 43 -68 78q-45 34 -117 79z" />
    <glyph glyph-name="uni06BD.init" unicode="&#x6bd;" horiz-adv-x="638" 
d="M-17 317h224q30 57 46 121t16 135q0 63 -15 130.5t-47 134.5h270q36 -94 36 -208q0 -145 -52.5 -304.5t-139.5 -325.5h-394zM-32 1161l140 153l179 -150l131 144l186 -155l-136 -158l-183 153l-127 -148zM123 1398l127 138l153 -128l-122 -143z" />
    <glyph glyph-name="uni06BD.medi" unicode="&#x6bd;" horiz-adv-x="798" 
d="M737 0q-244 0 -349 196q-69 -97 -160.5 -146.5t-186.5 -49.5h-114l56 317h67q123 0 190.5 71t70.5 205v245h226v-229q0 -91 10 -147t35.5 -88t66.5 -44.5t102 -12.5h123l-55 -317h-82zM91 1161l140 153l179 -150l131 144l187 -155l-137 -158l-183 153l-127 -148z
M246 1398l126 138l154 -128l-122 -143z" />
    <glyph glyph-name="uni06BD.fina" unicode="&#x6bd;" horiz-adv-x="1495" 
d="M1477 0q-54 0 -129.5 36.5t-146.5 105.5q-15 -110 -57.5 -210.5t-117.5 -176.5t-186 -121t-262 -45q-116 0 -211 33t-162 95.5t-103.5 152t-36.5 203.5q0 155 69 340h214q-44 -135 -44 -228q0 -135 80 -197.5t228 -62.5q91 0 169 20.5t136 65.5t91 115t33 169
q0 20 -1 39.5t-1 39.5l-162 313l242 96l99 -233q49 -114 114 -173.5t138 -59.5h99l-56 -317h-36zM255 892l141 153l178 -149l131 143l186 -154l-135 -159l-184 153l-126 -147zM410 1129l127 138l153 -127l-121 -143z" />
    <glyph glyph-name="uni06BF.init" unicode="&#x6bf;" horiz-adv-x="1251" 
d="M1114 448q-23 4 -49 10.5t-54 15.5q-48 -61 -136 -143.5t-207.5 -156t-267 -124t-314.5 -50.5h-159l56 317h142q130 0 239.5 17t202 44.5t171.5 62.5t154 70q-64 19 -132 38.5t-135.5 35t-130.5 26t-115 10.5q-60 0 -124.5 -9t-135.5 -32l49 299q60 20 114 29.5t108 9.5
q100 0 201 -33.5t199 -82.5t191.5 -103.5t177.5 -98.5zM244 1129l140 153l187 -155l-137 -159zM924 -207l-141 -153l-179 150l-130 -144l-187 154l137 159l182 -153l127 148zM769 -444l-128 -138l-153 126l122 144z" />
    <glyph glyph-name="uni06BF.medi" unicode="&#x6bf;" horiz-adv-x="1262" 
d="M1114 448q-19 4 -39.5 8.5t-41.5 11.5q12 -43 37 -70.5t55 -46t61.5 -26.5t57.5 -8h95l-55 -317h-77q-138 0 -208 91.5t-85 275.5q-63 -61 -149 -126t-192.5 -118.5t-228.5 -88t-258 -34.5h-159l56 317h142q130 0 239.5 17t202 44.5t171.5 62.5t154 70q-64 19 -132 38.5
t-135.5 35t-130.5 26t-115 10.5q-60 0 -124.5 -9t-135.5 -32l49 299q60 20 114 29.5t108 9.5q100 0 201 -33.5t199 -82.5t191.5 -103.5t177.5 -98.5zM301 1120l139 153l187 -155l-137 -159zM1036 -207l-141 -153l-179 150l-130 -144l-187 154l137 159l182 -153l127 148z
M881 -444l-128 -138l-153 126l121 144z" />
    <glyph glyph-name="uni06BF.fina" unicode="&#x6bf;" horiz-adv-x="1350" 
d="M1114 614q-8 0 -10 2q-43 -9 -83 -19.5t-77 -21.5q78 -139 165 -198.5t205 -59.5h112l-57 -317h-93q-75 0 -145 38.5t-128.5 109.5t-101.5 171.5t-61 223.5q-139 -48 -245 -105t-177 -115t-107.5 -110.5t-36.5 -89.5q0 -116 155 -166t433 -50q54 0 114 2t124 5l-176 -330
q-68 -9 -129.5 -14.5t-119.5 -5.5q-293 0 -444 120t-151 325q0 107 45.5 205.5t125 184.5t186 156t229.5 118q-84 10 -161.5 14.5t-141.5 4.5q-59 0 -123.5 -9.5t-134.5 -31.5l48 298q59 21 113.5 30t108.5 9q100 0 197 -21t192.5 -53.5t189 -73.5t186.5 -80zM259 1234
l140 153l187 -155l-136 -159zM929 237l-112 -121l-144 117l-104 -114l-149 123l108 128l147 -124l101 119zM804 48l-101 -112l-123 103l97 114z" />
    <glyph glyph-name="uni06C2.fina" unicode="&#x6c2;" horiz-adv-x="925" 
d="M101 445q24 14 94 56q81 48 166 87q140 64 208 64h7q49 0 63 -43q9 -20 21 -89q5 -21 17 -47q25 -51 58 -84q30 -30 62 -46q52 -26 93 -26h106l-52 -317h-63q-68 5 -133 30q-35 15 -71 38q-20 15 -73 68q-35 43 -53 74q-16 30 -32 78q-15 35 -29 35q-36 -5 -154 -59
q-108 -54 -195 -112q-30 -21 -67 -53l-9 9zM614 857q-28 -2 -71 -8t-93.5 -15.5t-104 -21.5t-104.5 -26q3 9 10 28l14 38q8 20 15 43l133 11q-55 10 -92 35t-37 50q0 48 26 88t67 69.5t91.5 49t101.5 26.5l46 -132q-80 -1 -130.5 -21t-70.5 -52q16 -23 55.5 -33.5
t78.5 -14.5q46 -5 101 -2z" />
    <glyph glyph-name="uni06C3.fina" unicode="&#x6c3;" horiz-adv-x="925" 
d="M101 445q24 14 94 56q81 48 166 87q140 64 208 64h7q49 0 63 -43q9 -20 21 -89q5 -21 17 -47q25 -51 58 -84q30 -30 62 -46q52 -26 93 -26h106l-52 -317h-63q-68 5 -133 30q-35 15 -71 38q-20 15 -73 68q-35 43 -53 74q-16 30 -32 78q-15 35 -29 35q-36 -5 -154 -59
q-108 -54 -195 -112q-30 -21 -67 -53l-9 9zM137 957l140 154l179 -150l131 144l186 -155l-136 -158l-183 153l-127 -148z" />
    <glyph glyph-name="uni06C4.fina" unicode="&#x6c4;" horiz-adv-x="1068" 
d="M357 416q0 -42 39 -70.5t129 -28.5h225q-29 73 -99 146t-149 123q-69 -32 -107 -79.5t-38 -90.5zM335 -70q0 -24 22 -40t73 -16h127q-16 41 -56 82.5t-84 69.5q-39 -18 -60.5 -45t-21.5 -51zM610 -81q9 35 9 70q0 49 -38 102.5t-108 97.5h-73q-35 -19 -64 -45.5
t-49 -58.5q0 -2 -1 -4q-9 7 -18 16q-47 43 -69.5 102t-22.5 125q0 70 23.5 143.5t66 142.5t105 127.5t139.5 100.5h160q151 -97 234 -213t83 -222q0 -22 -2 -43.5t-5 -42.5h162l-56 -317h-231q-59 -91 -137.5 -169.5t-164.5 -135.5t-173.5 -89.5t-165.5 -32.5l-178 237v30
q127 4 235 26q-5 17 -5 37q0 30 10 61t28 61t44.5 54.5t59.5 42.5h68q64 -41 99.5 -90t35.5 -95q0 -9 -1 -18z" />
    <glyph glyph-name="uni06CA.fina" unicode="&#x6ca;" horiz-adv-x="1068" 
d="M36 -160q187 7 334 50t245 110h-45q-105 0 -179.5 26t-122 70t-70 103t-22.5 125q0 70 23.5 143.5t66 142.5t105 127.5t139.5 100.5h160q151 -97 234 -213t83 -222q0 -22 -2 -43.5t-5 -42.5h162l-56 -317h-231q-59 -91 -137.5 -169.5t-164.5 -135.5t-173.5 -89.5
t-165.5 -32.5l-178 237v30zM357 416q0 -42 39 -70.5t129 -28.5h225q-29 73 -99 146t-149 123q-69 -32 -107 -79.5t-38 -90.5zM249 1106l140 153l179 -149l131 144l186 -155l-136 -159l-183 153l-126 -147z" />
    <glyph glyph-name="uni06CD.fina" unicode="&#x6cd;" horiz-adv-x="2123" 
d="M645 506q-11 -68 -11 -125q0 -133 53.5 -222.5t140 -143.5t197.5 -77.5t227 -23.5q103 0 176 6.5t127.5 20t95.5 32t78 42.5q-14 51 -32 87t-37.5 66t-41 58t-44.5 59q-3 4 -6 9t-6 8l-6 6l201 187q38 -51 86 -91q43 -32 102.5 -59.5t136.5 -27.5h115l-55 -317h-92
q-50 0 -100 16q-18 -93 -82 -171t-166.5 -135t-238.5 -89t-299 -32q-166 0 -306 35.5t-241.5 110.5t-158.5 189.5t-57 273.5v22q-32 -31 -68 -58q-69 -48 -143 -67q-10 -3 -20 -5t-21 -3l-97 261q26 -1 66.5 5t84.5 18q40 10 81 24.5t76 34.5t61 45q16 14 26 31h198z" />
    <glyph glyph-name="uni06CE.init" unicode="&#x6ce;" horiz-adv-x="638" 
d="M-18 317h251q30 57 46 121t16 135q0 63 -15 130.5t-47 134.5h270q36 -94 36 -208q0 -145 -52.5 -304.5t-139.5 -325.5h-421zM-108 -231l140 153l179 -148l131 142l186 -155l-136 -158l-183 155l-127 -150zM252 1006q-8 0 -18 43q-30 93 -171 255v6q66 93 74 103
q31 -35 62 -75q68 -96 132 -202h2q43 111 221 262q5 -3 51 -145v-2q-36 -24 -114 -106q-88 -109 -92 -178q-6 0 -147 39z" />
    <glyph glyph-name="uni06CE.medi" unicode="&#x6ce;" horiz-adv-x="798" 
d="M737 0q-244 0 -349 196q-69 -97 -160.5 -146.5t-186.5 -49.5h-114l56 317h67q123 0 190.5 71t70.5 205v245h226v-229q0 -91 10 -147t35.5 -88t66.5 -44.5t102 -12.5h123l-55 -317h-82zM9 -231l139 153l180 -148l130 142l187 -155l-137 -158l-182 155l-128 -150zM352 1006
q-8 0 -18 43q-29 93 -170 255v6q65 93 74 103q31 -35 62 -75q68 -96 132 -202h2q42 111 221 262q4 -3 51 -145v-2q-37 -24 -115 -106q-87 -109 -92 -178q-5 0 -147 39z" />
    <glyph glyph-name="uni06CE.fina" unicode="&#x6ce;" horiz-adv-x="1779" 
d="M908 -86q103 0 176.5 6.5t127.5 20t95 32t78 42.5q-14 51 -32 87t-37.5 66t-41 58t-44.5 59q-3 4 -6 9t-6 8l-6 6l202 187q37 -51 85 -91q43 -32 102.5 -59.5t136.5 -27.5h116l-56 -317h-92q-50 0 -100 16q-18 -93 -82 -171t-166.5 -135t-238.5 -89t-299 -32
q-166 0 -306 35.5t-241.5 110.5t-158.5 189.5t-57 273.5q0 140 46 308h198q-11 -68 -11 -125q0 -133 53.5 -222.5t140 -143.5t197.5 -77.5t227 -23.5zM351 763q-8 0 -18 42q-29 94 -170 255v7q65 93 73 103q31 -35 62 -75q69 -97 133 -202h1q43 111 222 262q4 -3 51 -146v-1
q-37 -24 -115 -106q-88 -109 -92 -179q-6 0 -147 40z" />
    <glyph glyph-name="uni06CF.fina" unicode="&#x6cf;" horiz-adv-x="1068" 
d="M36 -160q187 7 334 50t245 110h-45q-105 0 -179.5 26t-122 70t-70 103t-22.5 125q0 70 23.5 143.5t66 142.5t105 127.5t139.5 100.5h160q151 -97 234 -213t83 -222q0 -22 -2 -43.5t-5 -42.5h162l-56 -317h-231q-59 -91 -137.5 -169.5t-164.5 -135.5t-173.5 -89.5
t-165.5 -32.5l-178 237v30zM357 416q0 -42 39 -70.5t129 -28.5h225q-29 73 -99 146t-149 123q-69 -32 -107 -79.5t-38 -90.5zM405 1105l140 153l187 -155l-137 -158z" />
    <glyph glyph-name="uni06D1.init" unicode="&#x6d1;" horiz-adv-x="638" 
d="M-19 317h260q29 57 45 121t16 135q0 63 -15 130.5t-46 134.5h271q35 -94 35 -208q0 -145 -52.5 -304.5t-139.5 -325.5h-431zM551 -260l-139 -153l-180 150l-130 -143l-187 155l137 158l182 -153l126 147zM396 -497l-127 -137l-153 127l122 143z" />
    <glyph glyph-name="uni06D1.medi" unicode="&#x6d1;" horiz-adv-x="798" 
d="M737 0q-244 0 -349 196q-69 -97 -160.5 -146.5t-186.5 -49.5h-114l56 317h67q123 0 190.5 71t70.5 205v245h226v-229q0 -91 10 -147t35.5 -88t66.5 -44.5t102 -12.5h123l-55 -317h-82zM656 -260l-140 -153l-180 150l-130 -143l-187 155l137 158l183 -153l126 147z
M501 -497l-128 -137l-153 127l122 143z" />
    <glyph glyph-name="uni06D1.fina" unicode="&#x6d1;" horiz-adv-x="1779" 
d="M908 -86q103 0 176.5 6.5t127.5 20t95 32t78 42.5q-14 51 -32 87t-37.5 66t-41 58t-44.5 59q-3 4 -6 9t-6 8l-6 6l202 187q37 -51 85 -91q43 -32 102.5 -59.5t136.5 -27.5h116l-56 -317h-92q-50 0 -100 16q-18 -93 -82 -171t-166.5 -135t-238.5 -89t-299 -32
q-166 0 -306 35.5t-241.5 110.5t-158.5 189.5t-57 273.5q0 140 46 308h198q-11 -68 -11 -125q0 -133 53.5 -222.5t140 -143.5t197.5 -77.5t227 -23.5zM1099 -636l-139 -153l-180 149l-130 -143l-187 155l137 159l182 -153l127 146zM944 -873l-126 -137l-153 126l121 144z
" />
    <glyph glyph-name="uni06D5.fina" unicode="&#x6d5;" horiz-adv-x="1104" 
d="M1008 0q-127 0 -204 56t-109 177q-50 -11 -99 -16t-94 -5q-104 0 -190 25.5t-147.5 69.5t-95 101t-33.5 120q0 101 56 183.5t145.5 148.5t203 112.5t231.5 74.5v108l226 48v-699q0 -109 47 -148t130 -39h103l-56 -317h-114zM305 648q39 -51 132.5 -84.5t234.5 -36.5v264
q-123 -20 -217.5 -54t-149.5 -89z" />
    <glyph glyph-name="uni06EE.fina" unicode="&#x6ee;" horiz-adv-x="1232" 
d="M1251 0h-108q-47 0 -83.5 15t-69 44.5t-62.5 76.5t-62 112q-33 -45 -83.5 -91.5t-112.5 -84.5t-136 -62.5t-152 -24.5q-84 0 -152.5 16.5t-118.5 60.5l105 296q46 -20 107.5 -28.5t132.5 -8.5q90 0 182.5 12t172.5 34q-9 21 -19.5 43.5t-20.5 48.5l-244 558h289l187 -519
q37 -104 83.5 -143.5t112.5 -39.5h108zM714 1644q5 -69 92 -178q78 -82 115 -106v-2q-47 -142 -51 -145q-179 151 -221 262h-2q-64 -106 -132 -202q-31 -40 -62 -75q-9 10 -74 103v6q141 162 170 255q10 43 18 43q142 39 147 39z" />
    <glyph glyph-name="uni06EF.fina" unicode="&#x6ef;" horiz-adv-x="1283" 
d="M824 707h2l62 -157q30 -76 70 -122.5t85 -70.5t92.5 -32t94.5 -8h128l-55 -317h-90q-45 0 -91.5 10.5t-93.5 37.5t-91.5 75t-85.5 125q-23 -95 -64 -189.5t-96 -180t-119.5 -160t-135.5 -129.5h-436v68q118 63 234.5 160t213.5 205t160 219.5t75 206.5q0 2 -6 9.5
t-23.5 44.5t-55 114.5t-100.5 221.5h280zM660 1426q4 -69 92 -179q78 -82 114 -105v-2q-46 -142 -51 -146q-178 151 -221 262h-2q-64 -105 -132 -202q-31 -40 -62 -75q-8 10 -74 103v7q142 161 171 255q10 43 18 43q141 39 147 39z" />
    <glyph glyph-name="uni06FA.init" unicode="&#x6fa;" horiz-adv-x="1914" 
d="M-17 317h56q123 0 191.5 73t70.5 207v6v235h225v-211q0 -146 47.5 -228t152.5 -82q106 0 157.5 75.5t51.5 196.5v249h226v-211q0 -61 12.5 -117t41 -99.5t71 -68.5t100.5 -25q40 0 76.5 14t67 48t49 86.5t18.5 131.5q0 71 -18 161.5t-59 208.5h267q24 -79 34.5 -153.5
t10.5 -145.5q0 -150 -41 -274.5t-107.5 -215.5t-148.5 -142t-166 -51q-126 0 -208 62.5t-132 153.5q-52 -94 -129 -155t-184 -61q-118 0 -198 62.5t-130 159.5q-62 -95 -153 -151t-205 -56h-103zM731 1153l140 153l179 -149l131 143l186 -155l-135 -158l-184 153l-126 -147z
M886 1390l127 138l153 -127l-121 -144zM893 -237l139 153l187 -155l-136 -158z" />
    <glyph glyph-name="uni06FA.medi" unicode="&#x6fa;" horiz-adv-x="2070" 
d="M714 -15q-108 0 -194 58t-139 169q-70 -102 -163 -157t-188 -55h-103l56 319h56q125 0 193.5 73.5t68.5 212.5v233h223v-209q0 -146 47.5 -228t151.5 -82q107 0 158.5 75.5t51.5 196.5v30v217h226v-209q0 -146 47 -228t152 -82q107 0 158 75.5t51 196.5v247h226v-226
q0 -90 13 -146.5t42 -89.5t72.5 -46t105.5 -13h121l-55 -317h-81q-266 0 -373 210q-50 -111 -125 -168t-164 -57q-110 0 -197 60t-141 174q-50 -118 -127.5 -176t-169.5 -58zM730 1153l139 153l179 -149l131 143l187 -155l-136 -158l-183 153l-127 -147zM884 1390l127 138
l153 -127l-121 -144zM893 -237l139 153l187 -155l-136 -158z" />
    <glyph glyph-name="uni06FA.fina" unicode="&#x6fa;" horiz-adv-x="2841" 
d="M2779 0q-251 0 -359 185q-48 -96 -121 -148t-179 -52q-64 0 -114.5 18t-90.5 49.5t-70.5 72.5t-55.5 90q-59 -101 -147 -165.5t-194 -64.5q-77 0 -137.5 30t-108.5 84q-20 -104 -64.5 -196.5t-119 -162.5t-181.5 -110.5t-251 -40.5q-116 0 -211 33t-162 95.5t-103.5 152
t-36.5 203.5q0 155 69 340h214q-44 -135 -44 -228q0 -135 80 -197.5t228 -62.5q91 0 169 20.5t136 65.5t91 115t33 169q0 59 -4 103t-7 78l-4 22q-4 22 -8 46t-7 49l-34 245h226l34 -208q11 -72 26.5 -130t39 -97t59 -60.5t88.5 -21.5q111 0 172 61.5t61 171.5l-6 69
l-31 215h225l32 -208q7 -61 22 -117t41.5 -98.5t65.5 -68t96 -25.5q47 0 82.5 16.5t58.5 54t36.5 96.5t17.5 144q1 30 2 62t1 68v76h226v-226q0 -90 13.5 -146.5t42 -89.5t72 -46t105.5 -13h122l-56 -317h-80zM1409 1153l140 153l179 -149l131 143l186 -155l-136 -158
l-182 153l-128 -147zM1563 1390l128 138l153 -127l-122 -144zM1629 -237l139 153l187 -155l-136 -158z" />
    <glyph glyph-name="uni06FB.init" unicode="&#x6fb;" horiz-adv-x="1761" 
d="M-17 317h67q123 0 190.5 69.5t70.5 199.5v7v245h226v-229q73 68 153.5 127.5t168 104.5t182.5 70.5t196 25.5q114 0 201.5 -39.5t147 -106.5t90.5 -155t31 -182q0 -45 -39 -120.5t-114.5 -150.5t-188 -129t-257.5 -54h-371q-244 0 -349 196q-69 -97 -160.5 -146.5
t-186.5 -49.5h-114zM961 317q95 0 182 8.5t161 24t130 38.5t90 50q-32 82 -110.5 140t-204.5 58q-91 0 -177 -18.5t-165.5 -51t-155 -77t-144.5 -92.5q22 -46 67 -63t117 -17h210zM682 1112l141 153l186 -154l-136 -160zM683 -237l140 153l186 -155l-135 -158z" />
    <glyph glyph-name="uni06FB.medi" unicode="&#x6fb;" horiz-adv-x="1904" 
d="M1925 0h-77q-105 0 -170 53.5t-96 158.5q-37 -41 -86.5 -79t-108.5 -67.5t-129 -47.5t-150 -18h-371q-244 0 -349 196q-69 -97 -160.5 -146.5t-186.5 -49.5h-114l56 317h67q123 0 190.5 69.5t70.5 199.5v7v245h226v-229q73 68 153.5 127.5t168 104.5t182.5 70.5t196 25.5
q114 0 201.5 -39.5t147 -106.5t90.5 -155t31 -182q0 -10 -1.5 -20t-5.5 -21q35 -53 89 -74.5t97 -21.5h95zM961 317q95 0 182 8.5t161 24t130 38.5t90 50q-32 82 -110.5 140t-204.5 58q-91 0 -177 -18.5t-165.5 -51t-155 -77t-144.5 -92.5q22 -46 67 -63t117 -17h210z
M682 1112l141 153l186 -154l-136 -160zM683 -237l140 153l186 -155l-135 -158z" />
    <glyph glyph-name="uni06FB.fina" unicode="&#x6fb;" horiz-adv-x="2674" 
d="M2693 0h-76q-103 0 -167.5 51.5t-95.5 153.5q-38 -41 -86 -78.5t-107 -65t-128 -44.5t-148 -17h-285q-116 0 -219.5 28.5t-189.5 119.5q-15 -112 -56.5 -213t-116.5 -178.5t-186 -122.5t-264 -45q-116 0 -211 33t-162 95.5t-103.5 152t-36.5 203.5q0 155 69 340h214
q-44 -135 -44 -228q0 -135 80 -197.5t228 -62.5q91 0 169 20.5t136 65.5t91 115t33 169q0 80 -6 136l-125 256l243 96l99 -233q0 -2 4 -9q76 80 162.5 152t183.5 126t202.5 86t219.5 32t201.5 -39.5t147.5 -106.5t90.5 -155t30.5 -182q0 -19 -9 -51q35 -47 86.5 -66.5
t92.5 -19.5h95zM1738 317q95 0 181.5 8.5t161.5 24t131 38.5t90 50q-32 82 -110.5 140t-205.5 58q-92 0 -177.5 -18.5t-164.5 -51t-155 -77t-145 -92.5q48 -44 108 -62t125 -18h161zM1361 1112l141 153l186 -154l-136 -160zM1429 -237l139 153l187 -155l-136 -158z" />
    <glyph glyph-name="uni06FC.init" unicode="&#x6fc;" horiz-adv-x="1033" 
d="M-17 317h298q-52 67 -69.5 140t-17.5 138q0 84 39 156.5t103.5 127t149.5 85.5t178 31q91 0 181 -34l110 -291l-43 -28q-84 39 -172.5 61.5t-172.5 22.5q-65 0 -123 -16t-101 -51q9 -50 45.5 -96t94.5 -79.5t135.5 -53t170.5 -19.5q65 0 142 11l-4 -4l4 2l56 -172
q-45 -24 -139.5 -66t-210 -82t-238.5 -70t-226 -30h-246zM414 1216l140 153l187 -155l-137 -158zM410 -237l139 153l187 -155l-136 -158z" />
    <glyph glyph-name="uni06FC.medi" unicode="&#x6fc;" horiz-adv-x="1415" 
d="M1282 0q-73 0 -149.5 15t-153 42t-152.5 62.5t-147 76.5q-150 -88 -307 -142t-295 -54h-151l56 317h95q93 0 183.5 10.5t178.5 26.5q-80 61 -140.5 117t-96.5 98v276q118 70 247.5 100.5t258.5 30.5q97 0 189 -17t169.5 -45.5t136.5 -69.5t92 -91q-35 -82 -131 -184.5
t-229 -203.5q84 -22 171 -35t175 -13h210l-55 -317h-155zM403 662q51 -59 134.5 -116t190.5 -106q95 39 161 83.5t98 88.5q-63 39 -165 62.5t-206 23.5q-60 0 -114.5 -8.5t-98.5 -27.5zM547 1216l140 153l186 -155l-136 -158zM547 -237l139 153l187 -155l-136 -158z" />
    <glyph glyph-name="uni06FC.fina" unicode="&#x6fc;" horiz-adv-x="1309" 
d="M486 1346l139 153l187 -155l-136 -160zM360 812q62 -70 120 -126.5t114 -103.5q95 62 172.5 109.5t116.5 73.5q-67 41 -150 63.5t-167 22.5q-110 0 -206 -39zM782 -117q89 -15 180 -15h3l-71 -313q-34 -5 -68.5 -7t-67.5 -2q-138 0 -268 32t-230.5 93.5t-162 153
t-61.5 211.5q0 41 27 87t74 97t108.5 104t128.5 103q-56 64 -117.5 136.5t-129.5 162.5v271q88 63 221 93t279 30q90 0 177.5 -11.5t164 -32t139 -52t100.5 -70.5v-171q-101 -62 -228 -137t-257 -161q139 -95 265.5 -131.5t249.5 -36.5h145l-56 -317h-155q-91 0 -175 14
t-166.5 49.5t-167 95.5t-179.5 153q-65 -54 -120.5 -108.5t-96.5 -110.5q45 -39 121 -79q22 -12 44 -22l-37 -41l257 -219zM467 -26l139 153l187 -155l-137 -160z" />
    <glyph glyph-name="uni06FF.init" unicode="&#x6ff;" horiz-adv-x="1456" 
d="M251 317q-41 60 -59.5 120t-18.5 113q0 47 19.5 104.5t57 115.5t90 109.5t119.5 87.5h157q53 -16 106.5 -50t96.5 -77l190 153q63 -53 124 -135t107.5 -183.5t75.5 -217t29 -233.5q0 -117 -32.5 -232t-110.5 -220q-236 68 -410 147t-297 163q-87 -37 -182 -59.5
t-194 -22.5h-192l56 317h268zM938 605q0 -94 -54 -188t-145 -176q78 -32 165.5 -57t183.5 -40q16 25 24 53.5t8 60.5q0 84 -51.5 183.5t-135.5 206.5q5 -23 5 -43zM534 707q-38 -7 -70.5 -27.5t-57.5 -45.5t-39.5 -52.5t-14.5 -45.5q0 -41 43 -88t118 -95q78 26 126 66
t77 85q-9 43 -30.5 78.5t-46.5 61.5t-53.5 41.5t-51.5 21.5zM610 1537q5 -69 92 -179q79 -82 115 -105v-2q-46 -142 -51 -146q-179 151 -221 262h-2q-64 -105 -132 -202q-31 -40 -62 -74q-8 10 -74 102v7q141 161 170 255q10 43 19 43q141 39 146 39z" />
    <glyph glyph-name="uni06FF.medi" unicode="&#x6ff;" horiz-adv-x="1178" 
d="M-17 317h183q15 148 85.5 311t205.5 339h216q69 -34 127 -75t98 -88t62.5 -97t22.5 -100q0 -77 -38.5 -151.5t-103.5 -142t-152 -124.5t-182 -98q49 -95 124.5 -161.5t168.5 -100.5v37q0 72 13 131t38 111t64.5 102.5t90.5 106.5h249l-55 -317h-100q-41 -28 -70.5 -94
t-29.5 -152q0 -36 6 -71l-317 -123q-185 63 -309.5 177t-178.5 268q-48 -5 -89 -5h-185zM556 769q-56 -116 -81.5 -220t-25.5 -195v-9q85 20 152.5 56.5t112.5 93.5q-5 76 -35.5 142t-122.5 132zM610 1537q5 -69 92 -179q79 -82 115 -105v-2q-46 -142 -51 -146
q-179 151 -221 262h-2q-64 -105 -132 -202q-31 -40 -62 -74q-8 10 -74 102v7q141 161 170 255q10 43 19 43q141 39 146 39z" />
    <glyph glyph-name="uni06FF.fina" unicode="&#x6ff;" horiz-adv-x="1391" 
d="M103 317h274q15 148 86 311t205 339h217q69 -34 127 -75t98 -88t62 -97t22 -100q0 -77 -38 -151.5t-103.5 -142t-152 -124.5t-182.5 -98q49 -95 124.5 -161.5t168.5 -100.5v37q0 72 13.5 131t38.5 111t64 102.5t89 106.5h251l-57 -317h-98q-41 -28 -71 -94t-30 -152
q0 -36 5 -71l-317 -123q-185 63 -308.5 177t-177.5 268q-49 -5 -90 -5h-148zM767 769q-56 -116 -81 -220t-25 -195v-9q83 20 151.5 56.5t113.5 93.5q-6 76 -37 142t-122 132zM836 1537q5 -69 92 -179q79 -82 115 -105v-2q-46 -142 -51 -146q-178 151 -221 262h-2
q-64 -105 -132 -202q-31 -40 -62 -74q-8 10 -74 102v7q141 161 170 255q11 43 19 43q141 39 146 39z" />
    <glyph glyph-name="uniFB50" unicode="&#x671;" horiz-adv-x="593" arabic-form="isolated" 
d="M456 1499l-17 -1499h-245l-37 1455zM-130 1663q13 25 33.5 49t43 40.5t44 26.5t36.5 10q21 0 36.5 -6t36.5 -17q78 111 153.5 177.5t159.5 66.5q45 0 79.5 -19t56.5 -50t33.5 -72t11.5 -83q0 -103 -69 -162t-174 -59q-54 0 -105.5 10.5t-95 24.5t-76.5 29t-49 26
q-27 -10 -48 -29.5t-47 -65.5zM157 1736q41 -21 90.5 -33.5t105.5 -12.5q28 0 57 6t54.5 17t42 26t16.5 34q-13 46 -49 77.5t-82 31.5q-59 0 -118 -38t-117 -108z" />
    <glyph glyph-name="uniFB51" unicode="&#x671;" horiz-adv-x="618" arabic-form="final" 
d="M639 0h-128q-66 0 -125 21.5t-103 61.5t-71 96t-29 125l-41 1149l301 43l-17 -1113q71 -66 174 -66h94zM-89 1663q13 25 33.5 49t43 40.5t44 26.5t36.5 10q21 0 36.5 -6t36.5 -17q78 111 153.5 177.5t159.5 66.5q45 0 79.5 -19t56.5 -50t33.5 -72t11.5 -83
q0 -103 -69 -162t-174 -59q-54 0 -105.5 10.5t-95 24.5t-76.5 29t-49 26q-27 -10 -48 -29.5t-47 -65.5zM198 1736q41 -21 90.5 -33.5t105.5 -12.5q28 0 57 6t54.5 17t42 26t16.5 34q-13 46 -49 77.5t-82 31.5q-59 0 -118 -38t-117 -108z" />
    <glyph glyph-name="uniFB52" unicode="&#x67b;" horiz-adv-x="1638" arabic-form="isolated" 
d="M283 630q0 -87 26 -146.5t75.5 -97t120 -53.5t160.5 -16h647q30 57 46 121t16 135q0 63 -15 130.5t-47 134.5h233q36 -94 36 -208q0 -145 -52 -304.5t-140 -325.5h-789q-267 0 -406 133.5t-139 364.5q0 153 62 338h194q-28 -118 -28 -206zM638 -521l147 120l-152 173
l158 129l155 -177l-144 -124l149 -169l-153 -132z" />
    <glyph glyph-name="uniFB53" unicode="&#x67b;" horiz-adv-x="1811" arabic-form="final" 
d="M840 310q123 0 222 13t169 43.5t110.5 81t43.5 127.5v263h189v-229q0 -91 10.5 -147t35.5 -88t66 -44.5t103 -12.5h96l-55 -317h-57q-128 0 -209 53.5t-124 165.5q-37 -53 -97 -95t-137.5 -71.5t-169 -47.5t-190.5 -20h-9q-224 0 -374 40.5t-240.5 109t-128 163
t-37.5 202.5q0 80 17 165t45 173h194q-32 -117 -32 -204q0 -89 33.5 -151.5t101.5 -101t171.5 -55t243.5 -16.5h9zM666 -521l146 120l-152 173l159 129l154 -177l-143 -124l149 -169l-153 -132z" />
    <glyph glyph-name="uniFB54" unicode="&#x67b;" horiz-adv-x="638" arabic-form="initial" 
d="M-20 317h260q30 57 46 121t16 135q0 63 -15 130.5t-47 134.5h271q35 -94 35 -208q0 -145 -52.5 -304.5t-139.5 -325.5h-430zM73 -521l148 120l-153 173l158 129l155 -177l-144 -124l150 -169l-153 -132z" />
    <glyph glyph-name="uniFB55" unicode="&#x67b;" horiz-adv-x="798" arabic-form="medial" 
d="M737 0q-244 0 -349 196q-69 -97 -160.5 -146.5t-186.5 -49.5h-114l56 317h67q123 0 190.5 71t70.5 205v245h226v-229q0 -91 10 -147t35.5 -88t66.5 -44.5t102 -12.5h123l-55 -317h-82zM220 -521l147 120l-152 173l158 129l155 -177l-144 -124l150 -169l-153 -132z" />
    <glyph glyph-name="uniFB56" unicode="&#x67e;" horiz-adv-x="1638" arabic-form="isolated" 
d="M283 630q0 -87 26 -146.5t75.5 -97t120 -53.5t160.5 -16h647q30 57 46 121t16 135q0 63 -15 130.5t-47 134.5h233q36 -94 36 -208q0 -145 -52 -304.5t-140 -325.5h-789q-267 0 -406 133.5t-139 364.5q0 153 62 338h194q-28 -118 -28 -206zM1070 -260l-139 -153l-180 150
l-130 -143l-187 155l136 158l183 -153l126 147zM915 -497l-127 -137l-153 127l121 143z" />
    <glyph glyph-name="uniFB57" unicode="&#x67e;" horiz-adv-x="1811" arabic-form="final" 
d="M840 310q123 0 222 13t169 43.5t110.5 81t43.5 127.5v263h189v-229q0 -91 10.5 -147t35.5 -88t66 -44.5t103 -12.5h96l-55 -317h-57q-128 0 -209 53.5t-124 165.5q-37 -53 -97 -95t-137.5 -71.5t-169 -47.5t-190.5 -20h-9q-224 0 -374 40.5t-240.5 109t-128 163
t-37.5 202.5q0 80 17 165t45 173h194q-32 -117 -32 -204q0 -89 33.5 -151.5t101.5 -101t171.5 -55t243.5 -16.5h9zM1072 -260l-139 -153l-180 150l-130 -143l-187 155l136 158l183 -153l126 147zM917 -497l-127 -137l-153 127l121 143z" />
    <glyph glyph-name="uniFB58" unicode="&#x67e;" horiz-adv-x="638" arabic-form="initial" 
d="M-19 317h260q29 57 45 121t16 135q0 63 -15 130.5t-46 134.5h271q35 -94 35 -208q0 -145 -52.5 -304.5t-139.5 -325.5h-431zM551 -260l-139 -153l-180 150l-130 -143l-187 155l137 158l182 -153l126 147zM396 -497l-127 -137l-153 127l122 143z" />
    <glyph glyph-name="uniFB59" unicode="&#x67e;" horiz-adv-x="798" arabic-form="medial" 
d="M737 0q-244 0 -349 196q-69 -97 -160.5 -146.5t-186.5 -49.5h-114l56 317h67q123 0 190.5 71t70.5 205v245h226v-229q0 -91 10 -147t35.5 -88t66.5 -44.5t102 -12.5h123l-55 -317h-82zM656 -260l-140 -153l-180 150l-130 -143l-187 155l137 158l183 -153l126 147z
M501 -497l-128 -137l-153 127l122 143z" />
    <glyph glyph-name="uniFB5A" unicode="&#x680;" horiz-adv-x="1638" arabic-form="isolated" 
d="M283 630q0 -87 26 -146.5t75.5 -97t120 -53.5t160.5 -16h647q30 57 46 121t16 135q0 63 -15 130.5t-47 134.5h233q36 -94 36 -208q0 -145 -52 -304.5t-140 -325.5h-789q-267 0 -406 133.5t-139 364.5q0 153 62 338h194q-28 -118 -28 -206zM607 -398l-176 147l141 154
l179 -150l130 144l187 -155l-135 -156l172 -143l-136 -158l-182 153l-128 -148l-190 161zM917 -404l-168 141l-126 -145l165 -138z" />
    <glyph glyph-name="uniFB5B" unicode="&#x680;" horiz-adv-x="1811" arabic-form="final" 
d="M840 310q123 0 222 13t169 43.5t110.5 81t43.5 127.5v263h189v-229q0 -91 10.5 -147t35.5 -88t66 -44.5t103 -12.5h96l-55 -317h-57q-128 0 -209 53.5t-124 165.5q-37 -53 -97 -95t-137.5 -71.5t-169 -47.5t-190.5 -20h-9q-224 0 -374 40.5t-240.5 109t-128 163
t-37.5 202.5q0 80 17 165t45 173h194q-32 -117 -32 -204q0 -89 33.5 -151.5t101.5 -101t171.5 -55t243.5 -16.5h9zM607 -398l-176 147l141 154l179 -150l130 144l187 -155l-135 -156l173 -143l-137 -158l-182 153l-128 -148l-190 161zM917 -404l-168 141l-125 -145l165 -138
z" />
    <glyph glyph-name="uniFB5C" unicode="&#x680;" horiz-adv-x="638" arabic-form="initial" 
d="M-20 317h261q29 57 45 121t16 135q0 63 -15 130.5t-46 134.5h270q36 -94 36 -208q0 -145 -52.5 -304.5t-140.5 -325.5h-430zM85 -398l-176 147l140 154l180 -150l130 144l187 -155l-135 -156l172 -143l-136 -158l-183 153l-127 -148l-191 161zM395 -404l-168 141
l-126 -145l165 -138z" />
    <glyph glyph-name="uniFB5D" unicode="&#x680;" horiz-adv-x="798" arabic-form="medial" 
d="M737 0q-244 0 -349 196q-69 -97 -160.5 -146.5t-186.5 -49.5h-114l56 317h67q123 0 190.5 71t70.5 205v245h226v-229q0 -91 10 -147t35.5 -88t66.5 -44.5t102 -12.5h123l-55 -317h-82zM195 -398l-176 147l140 154l180 -150l130 144l187 -155l-135 -156l172 -143
l-136 -158l-183 153l-127 -148l-191 161zM505 -404l-168 141l-126 -145l165 -138z" />
    <glyph glyph-name="uniFB5E" unicode="&#x67a;" horiz-adv-x="1638" arabic-form="isolated" 
d="M600 0q-267 0 -406 133.5t-139 364.5q0 153 62 338h194q-28 -118 -28 -206q0 -87 26 -146.5t75.5 -97t120 -53.5t160.5 -16h647q30 57 46 121t16 135q0 63 -15 130.5t-47 134.5h233q36 -94 36 -208q0 -145 -52 -304.5t-140 -325.5h-789zM654 1067l146 120l-152 173
l159 129l154 -177l-143 -124l149 -169l-153 -133z" />
    <glyph glyph-name="uniFB5F" unicode="&#x67a;" horiz-adv-x="1791" arabic-form="final" 
d="M819 310q123 0 222 13t169 43.5t110.5 81t43.5 127.5v263h189v-229q0 -91 10.5 -147t35.5 -88t66 -44.5t103 -12.5h96l-55 -317h-57q-128 0 -209 53.5t-124 165.5q-37 -53 -97 -95t-137.5 -71.5t-169 -47.5t-190.5 -20h-9q-224 0 -374 40.5t-240.5 109t-128 163
t-37.5 202.5q0 80 17 165t45 173h194q-32 -117 -32 -204q0 -89 33.5 -151.5t101.5 -101t171.5 -55t243.5 -16.5h9zM654 1067l146 120l-152 173l159 129l155 -177l-144 -124l149 -169l-153 -133z" />
    <glyph glyph-name="uniFB60" unicode="&#x67a;" horiz-adv-x="638" arabic-form="initial" 
d="M-17 317h224q30 57 46 121t16 135q0 63 -15 130.5t-47 134.5h270q36 -94 36 -208q0 -145 -52.5 -304.5t-139.5 -325.5h-394zM170 1161l147 120l-152 173l158 128l155 -176l-144 -124l150 -170l-153 -132z" />
    <glyph glyph-name="uniFB61" unicode="&#x67a;" horiz-adv-x="798" arabic-form="medial" 
d="M737 0q-244 0 -349 196q-69 -97 -160.5 -146.5t-186.5 -49.5h-114l56 317h67q123 0 190.5 71t70.5 205v245h226v-229q0 -91 10 -147t35.5 -88t66.5 -44.5t102 -12.5h123l-55 -317h-82zM270 1161l147 120l-152 173l159 128l154 -176l-144 -124l150 -170l-153 -132z" />
    <glyph glyph-name="uniFB62" unicode="&#x67f;" horiz-adv-x="1638" arabic-form="isolated" 
d="M600 0q-267 0 -406 133.5t-139 364.5q0 153 62 338h194q-28 -118 -28 -206q0 -87 26 -146.5t75.5 -97t120 -53.5t160.5 -16h647q30 57 46 121t16 135q0 63 -15 130.5t-47 134.5h233q36 -94 36 -208q0 -145 -52 -304.5t-140 -325.5h-789zM620 1203l-176 148l140 153
l180 -149l130 144l187 -155l-135 -156l172 -143l-136 -159l-183 153l-127 -147l-191 160zM930 1198l-168 140l-126 -145l165 -137z" />
    <glyph glyph-name="uniFB63" unicode="&#x67f;" horiz-adv-x="1791" arabic-form="final" 
d="M819 310q123 0 222 13t169 43.5t110.5 81t43.5 127.5v263h189v-229q0 -91 10.5 -147t35.5 -88t66 -44.5t103 -12.5h96l-55 -317h-57q-128 0 -209 53.5t-124 165.5q-37 -53 -97 -95t-137.5 -71.5t-169 -47.5t-190.5 -20h-9q-224 0 -374 40.5t-240.5 109t-128 163
t-37.5 202.5q0 80 17 165t45 173h194q-32 -117 -32 -204q0 -89 33.5 -151.5t101.5 -101t171.5 -55t243.5 -16.5h9zM620 1203l-176 148l140 153l180 -149l130 144l187 -155l-135 -156l172 -143l-136 -159l-183 153l-127 -147l-191 160zM930 1198l-168 140l-126 -145l165 -137
z" />
    <glyph glyph-name="uniFB64" unicode="&#x67f;" horiz-adv-x="638" arabic-form="initial" 
d="M-17 317h224q30 57 46 121t16 135q0 63 -15 130.5t-47 134.5h270q36 -94 36 -208q0 -145 -52.5 -304.5t-139.5 -325.5h-394zM106 1313l-175 147l140 153l179 -149l131 144l186 -155l-134 -156l172 -143l-137 -158l-182 153l-128 -148l-190 161zM416 1307l-167 141
l-126 -145l165 -138z" />
    <glyph glyph-name="uniFB65" unicode="&#x67f;" horiz-adv-x="798" arabic-form="medial" 
d="M737 0q-244 0 -349 196q-69 -97 -160.5 -146.5t-186.5 -49.5h-114l56 317h67q123 0 190.5 71t70.5 205v245h226v-229q0 -91 10 -147t35.5 -88t66.5 -44.5t102 -12.5h123l-55 -317h-82zM234 1313l-176 147l140 153l180 -149l130 144l187 -155l-135 -156l172 -143
l-136 -158l-183 153l-127 -148l-190 161zM544 1307l-168 141l-126 -145l165 -138z" />
    <glyph glyph-name="uniFB66" unicode="&#x679;" horiz-adv-x="1638" arabic-form="isolated" 
d="M600 0q-267 0 -406 133.5t-139 364.5q0 153 62 338h194q-28 -118 -28 -206q0 -87 26 -146.5t75.5 -97t120 -53.5t160.5 -16h647q30 57 46 121t16 135q0 63 -15 130.5t-47 134.5h233q36 -94 36 -208q0 -145 -52 -304.5t-140 -325.5h-789zM510 1006h109l-15 410l108 15
l-6 -312q26 23 54 43.5t58.5 35.5t63.5 23t68 8q41 0 72.5 -14t53 -38.5t32.5 -55.5t11 -66q0 -16 -14 -43t-41.5 -54t-67.5 -46.5t-93 -19.5h-363zM940 1121q-34 0 -65 -7t-60 -19.5t-56.5 -28t-53.5 -33.5v-27h159q32 1 61 4t53.5 9t44 13.5t30.5 17.5q-11 30 -39.5 50.5
t-73.5 20.5z" />
    <glyph glyph-name="uniFB67" unicode="&#x679;" horiz-adv-x="1791" arabic-form="final" 
d="M819 310q123 0 222 13t169 43.5t110.5 81t43.5 127.5v263h189v-229q0 -91 10.5 -147t35.5 -88t66 -44.5t103 -12.5h96l-55 -317h-57q-128 0 -209 53.5t-124 165.5q-37 -53 -97 -95t-137.5 -71.5t-169 -47.5t-190.5 -20h-9q-224 0 -374 40.5t-240.5 109t-128 163
t-37.5 202.5q0 80 17 165t45 173h194q-32 -117 -32 -204q0 -89 33.5 -151.5t101.5 -101t171.5 -55t243.5 -16.5h9zM510 1006h109l-15 410l108 15l-5 -312q25 23 53.5 43.5t59 35.5t63 23t67.5 8q41 0 73 -14t53 -38.5t32 -55.5t11 -66q0 -16 -14 -43t-41.5 -54t-67.5 -46.5
t-93 -19.5h-363zM940 1121q-34 0 -65 -7t-60 -19.5t-56.5 -28t-52.5 -33.5v-27h158q32 1 61 4t54 9t44 13.5t31 17.5q-12 30 -40.5 50.5t-73.5 20.5z" />
    <glyph glyph-name="uniFB68" unicode="&#x679;" horiz-adv-x="638" arabic-form="initial" 
d="M-17 317h224q30 57 46 121t16 135q0 63 -15 130.5t-47 134.5h270q36 -94 36 -208q0 -145 -52.5 -304.5t-139.5 -325.5h-394zM-2 1119h109l-14 408l107 15l-5 -311q25 23 53 43t58.5 35.5t63.5 23.5t67 8q41 0 72.5 -14t53 -38t32.5 -55.5t11 -65.5q0 -16 -14.5 -43.5
t-41 -54t-66.5 -46t-93 -19.5h-363zM427 1234q-34 0 -65 -7.5t-60 -19.5t-56 -28t-53 -34v-26h159q31 1 60.5 4t54 8.5t43.5 13t30 17.5q-11 30 -39 51t-74 21z" />
    <glyph glyph-name="uniFB69" unicode="&#x679;" horiz-adv-x="798" arabic-form="medial" 
d="M737 0q-244 0 -349 196q-69 -97 -160.5 -146.5t-186.5 -49.5h-114l56 317h67q123 0 190.5 71t70.5 205v245h226v-229q0 -91 10 -147t35.5 -88t66.5 -44.5t102 -12.5h123l-55 -317h-82zM116 1120h109l-15 410l109 15l-6 -312q26 22 53.5 42t58 35.5t64 24t68.5 8.5
q41 0 72 -14t53 -38.5t33 -56t11 -66.5q0 -16 -14 -43t-41.5 -54t-67.5 -46.5t-93 -19.5h-364zM547 1234q-34 0 -65.5 -7t-60.5 -19t-56.5 -28t-53.5 -34v-26h159q32 0 61.5 3.5t54 9t44 13t30.5 17.5q-11 30 -39.5 50.5t-73.5 20.5z" />
    <glyph glyph-name="uniFB6A" unicode="&#x6a4;" horiz-adv-x="1884" arabic-form="isolated" 
d="M1441 151q-110 -69 -266.5 -117.5t-356.5 -48.5q-207 0 -352.5 41t-237 112t-133.5 168.5t-42 210.5q0 76 18 156t49 165h232q-36 -106 -36 -196q0 -172 135.5 -254t405.5 -82q90 0 150.5 3t102.5 6.5t70 8t54 9.5q-75 82 -118 162t-43 139q0 53 26.5 109t69.5 107
t97 94.5t112 72.5h233q50 -39 88 -90t64.5 -102.5t39.5 -100.5t13 -82q0 -69 -35 -143t-97 -145q-114 -137 -243 -203zM1253 620q9 -40 75.5 -94t168.5 -102q82 55 123 142q-41 61 -97 110.5t-110 80.5q-26 -9 -49.5 -19t-44 -26t-38 -37.5t-28.5 -54.5zM1102 1271l140 153
l179 -149l131 143l186 -155l-136 -159l-182 153l-128 -146zM1256 1508l128 137l153 -126l-122 -144z" />
    <glyph glyph-name="uniFB6B" unicode="&#x6a4;" horiz-adv-x="1985" arabic-form="final" 
d="M1117 1271l140 153l179 -149l131 143l186 -155l-136 -159l-182 153l-128 -146zM1271 1508l128 137l153 -126l-122 -144zM2007 0h-125q-112 0 -220.5 42t-205.5 109q-110 -69 -266.5 -117.5t-356.5 -48.5q-207 0 -352.5 41t-237 112t-133.5 168.5t-42 210.5q0 76 18 156
t49 165h232q-36 -106 -36 -196q0 -172 135.5 -254t405.5 -82q90 0 150.5 3t102.5 6.5t70 8t54 9.5q-75 82 -118 162t-43 139q0 53 26.5 109t69.5 107t97 94.5t112 72.5h233q50 -39 88 -90t64.5 -102.5t39.5 -100.5t13 -82q0 -69 -35 -143t-97 -145q64 -16 130.5 -26.5
t138.5 -10.5h102zM1268 620q9 -40 75.5 -94t168.5 -102q82 55 123 142q-41 61 -97 110.5t-110 80.5q-26 -9 -49.5 -19t-44 -26t-38 -37.5t-28.5 -54.5z" />
    <glyph glyph-name="uniFB6C" unicode="&#x6a4;" horiz-adv-x="985" arabic-form="initial" 
d="M347 313q95 0 166 17q-101 23 -168 60t-107 84.5t-58 103.5t-18 120q0 52 27 106t71 104.5t99 92.5t113 70h224q50 -39 88.5 -88.5t65 -100t41 -97t14.5 -80.5q0 -67 -26 -146.5t-75 -157.5t-115 -150.5t-146 -128t-172.5 -89t-189.5 -33.5h-254l56 313h364zM201 1321
l141 153l178 -149l131 144l186 -155l-136 -159l-183 153l-126 -147zM342 683q18 -32 55 -55t87 -41t104.5 -29t109.5 -19l9 -1q-7 65 -61.5 136.5t-160.5 142.5q-51 -21 -87 -56t-56 -78zM356 1558l127 138l153 -127l-121 -143z" />
    <glyph glyph-name="uniFB6D" unicode="&#x6a4;" horiz-adv-x="1075" arabic-form="medial" 
d="M1097 0h-144q-111 0 -219.5 42t-206.5 109q-109 -69 -231.5 -110t-241.5 -41h-127l56 317h115q62 0 117 3t106 13q-75 82 -118 162t-43 139q0 53 26 109t69.5 107t97 94.5t112.5 72.5h233q50 -39 88 -90t64 -102.5t39.5 -100.5t13.5 -82q0 -69 -35.5 -143t-96.5 -145
q62 -16 129.5 -26.5t138.5 -10.5h114zM222 1271l140 153l179 -149l130 143l187 -155l-137 -159l-182 153l-127 -146zM340 620q9 -40 75 -94t169 -102q82 55 123 142q-41 61 -97 110.5t-110 80.5q-26 -9 -49.5 -19t-44 -26t-38 -37.5t-28.5 -54.5zM377 1508l127 137l153 -126
l-121 -144z" />
    <glyph glyph-name="uniFB6E" unicode="&#x6a6;" horiz-adv-x="1884" arabic-form="isolated" 
d="M1441 151q-110 -69 -266.5 -117.5t-356.5 -48.5q-207 0 -352.5 41t-237 112t-133.5 168.5t-42 210.5q0 76 18 156t49 165h232q-36 -106 -36 -196q0 -172 135.5 -254t405.5 -82q90 0 150.5 3t102.5 6.5t70 8t54 9.5q-75 82 -118 162t-43 139q0 53 26.5 109t69.5 107
t97 94.5t112 72.5h233q50 -39 88 -90t64.5 -102.5t39.5 -100.5t13 -82q0 -69 -35 -143t-97 -145q-114 -137 -243 -203zM1253 620q9 -40 75.5 -94t168.5 -102q82 55 123 142q-41 61 -97 110.5t-110 80.5q-26 -9 -49.5 -19t-44 -26t-38 -37.5t-28.5 -54.5zM1240 1419l-176 148
l141 153l179 -149l130 144l187 -155l-135 -156l172 -143l-136 -159l-182 153l-128 -147l-190 160zM1550 1414l-168 140l-126 -145l165 -137z" />
    <glyph glyph-name="uniFB6F" unicode="&#x6a6;" horiz-adv-x="1985" arabic-form="final" 
d="M2007 0h-125q-112 0 -220.5 42t-205.5 109q-110 -69 -266.5 -117.5t-356.5 -48.5q-207 0 -352.5 41t-237 112t-133.5 168.5t-42 210.5q0 76 18 156t49 165h232q-36 -106 -36 -196q0 -172 135.5 -254t405.5 -82q90 0 150.5 3t102.5 6.5t70 8t54 9.5q-75 82 -118 162
t-43 139q0 53 26.5 109t69.5 107t97 94.5t112 72.5h233q50 -39 88 -90t64.5 -102.5t39.5 -100.5t13 -82q0 -69 -35 -143t-97 -145q64 -16 130.5 -26.5t138.5 -10.5h102zM1268 620q9 -40 75.5 -94t168.5 -102q82 55 123 142q-41 61 -97 110.5t-110 80.5q-26 -9 -49.5 -19
t-44 -26t-38 -37.5t-28.5 -54.5zM1250 1419l-176 148l140 153l180 -149l130 144l187 -155l-135 -156l172 -143l-137 -159l-182 153l-127 -147l-191 160zM1559 1414l-167 140l-126 -145l165 -137z" />
    <glyph glyph-name="uniFB70" unicode="&#x6a6;" horiz-adv-x="985" arabic-form="initial" 
d="M347 313q95 0 166 17q-101 23 -168 60t-107 84.5t-58 103.5t-18 120q0 52 27 106t71 104.5t99 92.5t113 70h224q50 -39 88.5 -88.5t65 -100t41 -97t14.5 -80.5q0 -67 -26 -146.5t-75 -157.5t-115 -150.5t-146 -128t-172.5 -89t-189.5 -33.5h-254l56 313h364zM342 683
q18 -32 55 -55t87 -41t104.5 -29t109.5 -19l9 -1q-7 65 -61.5 136.5t-160.5 142.5q-51 -21 -87 -56t-56 -78zM339 1474l-176 148l140 153l180 -150l130 144l187 -155l-135 -155l172 -143l-137 -159l-182 153l-127 -148l-191 161zM649 1469l-168 140l-126 -145l165 -138z" />
    <glyph glyph-name="uniFB71" unicode="&#x6a6;" horiz-adv-x="1075" arabic-form="medial" 
d="M1097 0h-144q-111 0 -219.5 42t-206.5 109q-109 -69 -231.5 -110t-241.5 -41h-127l56 317h115q62 0 117 3t106 13q-75 82 -118 162t-43 139q0 53 26 109t69.5 107t97 94.5t112.5 72.5h233q50 -39 88 -90t64 -102.5t39.5 -100.5t13.5 -82q0 -69 -35.5 -143t-96.5 -145
q62 -16 129.5 -26.5t138.5 -10.5h114zM340 620q9 -40 75 -94t169 -102q82 55 123 142q-41 61 -97 110.5t-110 80.5q-26 -9 -49.5 -19t-44 -26t-38 -37.5t-28.5 -54.5zM360 1421l-176 148l140 153l180 -150l130 144l187 -154l-135 -156l172 -143l-137 -159l-182 153
l-127 -147l-191 160zM669 1416l-167 140l-126 -145l165 -137z" />
    <glyph glyph-name="uniFB72" unicode="&#x684;" horiz-adv-x="1230" arabic-form="isolated" 
d="M1114 614q-8 0 -10 2q-203 -43 -358 -108.5t-260 -135.5t-158.5 -136.5t-53.5 -112.5q0 -116 155 -166t433 -50q54 0 114 2t124 5l-176 -330q-68 -9 -129.5 -14.5t-119.5 -5.5q-293 0 -444 120t-151 325q0 107 45.5 205.5t125 184.5t186 156t229.5 118
q-84 10 -161.5 14.5t-141.5 4.5q-59 0 -123.5 -9.5t-134.5 -31.5l48 298q59 21 113.5 30t108.5 9q100 0 197 -21t192.5 -53.5t189 -73.5t186.5 -80zM656 103l123 101l-128 145l132 107l131 -147l-121 -104l125 -141l-128 -111z" />
    <glyph glyph-name="uniFB73" unicode="&#x684;" horiz-adv-x="1350" arabic-form="final" 
d="M1114 614q-8 0 -10 2q-43 -9 -83 -19.5t-77 -21.5q78 -139 165 -198.5t205 -59.5h112l-57 -317h-93q-75 0 -145 38.5t-128.5 109.5t-101.5 171.5t-61 223.5q-139 -48 -245 -105t-177 -115t-107.5 -110.5t-36.5 -89.5q0 -116 155 -166t433 -50q54 0 114 2t124 5l-176 -330
q-68 -9 -129.5 -14.5t-119.5 -5.5q-293 0 -444 120t-151 325q0 107 45.5 205.5t125 184.5t186 156t229.5 118q-84 10 -161.5 14.5t-141.5 4.5q-59 0 -123.5 -9.5t-134.5 -31.5l48 298q59 21 113.5 30t108.5 9q100 0 197 -21t192.5 -53.5t189 -73.5t186.5 -80zM609 93l116 94
l-119 135l123 101l121 -139l-112 -95l116 -133l-119 -103z" />
    <glyph glyph-name="uniFB74" unicode="&#x684;" horiz-adv-x="1246" arabic-form="initial" 
d="M1114 448q-23 4 -49 10.5t-54 15.5q-48 -61 -136 -143.5t-207.5 -156t-267 -124t-314.5 -50.5h-159l56 317h142q130 0 239.5 17t202 44.5t171.5 62.5t154 70q-64 19 -132 38.5t-135.5 35t-130.5 26t-115 10.5q-60 0 -124.5 -9t-135.5 -32l49 299q60 20 114 29.5t108 9.5
q100 0 201 -33.5t199 -82.5t191.5 -103.5t177.5 -98.5zM222 -496l147 121l-152 173l158 128l155 -177l-144 -123l150 -170l-153 -132z" />
    <glyph glyph-name="uniFB75" unicode="&#x684;" horiz-adv-x="1283" arabic-form="medial" 
d="M1114 448q-15 4 -29.5 6.5t-28.5 6.5q13 -39 37.5 -67.5t54 -44.5t60.5 -24t56 -8h96l-56 -317h-77q-139 0 -209.5 97t-84.5 289q-62 -63 -149.5 -131t-196 -125t-235 -93.5t-266.5 -36.5h-159l56 317h142q130 0 239.5 17t202 44.5t171.5 62.5t154 70q-64 19 -132 38.5
t-135.5 35t-130.5 26t-115 10.5q-60 0 -124.5 -9t-135.5 -32l49 299q60 20 114 29.5t108 9.5q100 0 201 -33.5t199 -82.5t191.5 -103.5t177.5 -98.5zM222 -496l147 121l-152 173l158 128l155 -177l-144 -123l150 -170l-153 -132z" />
    <glyph glyph-name="uniFB76" unicode="&#x683;" horiz-adv-x="1187" arabic-form="isolated" 
d="M1114 614q-8 0 -10 2q-203 -43 -358 -108.5t-260 -135.5t-158.5 -136.5t-53.5 -112.5q0 -116 155 -166t433 -50q54 0 114 2t124 5l-176 -330q-68 -9 -129.5 -14.5t-119.5 -5.5q-293 0 -444 120t-151 325q0 107 45.5 205.5t125 184.5t186 156t229.5 118
q-84 10 -161.5 14.5t-141.5 4.5q-59 0 -123.5 -9.5t-134.5 -31.5l48 298q59 21 113.5 30t108.5 9q100 0 197 -21t192.5 -53.5t189 -73.5t186.5 -80zM1081 150l-140 -153l-180 150l-130 -144l-187 155l137 158l182 -153l128 148z" />
    <glyph glyph-name="uniFB77" unicode="&#x683;" horiz-adv-x="1350" arabic-form="final" 
d="M1114 614q-8 0 -10 2q-43 -9 -83 -19.5t-77 -21.5q78 -139 165 -198.5t205 -59.5h112l-57 -317h-93q-75 0 -145 38.5t-128.5 109.5t-101.5 171.5t-61 223.5q-139 -48 -245 -105t-177 -115t-107.5 -110.5t-36.5 -89.5q0 -116 155 -166t433 -50q54 0 114 2t124 5l-176 -330
q-68 -9 -129.5 -14.5t-119.5 -5.5q-293 0 -444 120t-151 325q0 107 45.5 205.5t125 184.5t186 156t229.5 118q-84 10 -161.5 14.5t-141.5 4.5q-59 0 -123.5 -9.5t-134.5 -31.5l48 298q59 21 113.5 30t108.5 9q100 0 197 -21t192.5 -53.5t189 -73.5t186.5 -80zM924 155
l-119 -129l-150 126l-110 -121l-158 130l115 134l154 -129l107 125z" />
    <glyph glyph-name="uniFB78" unicode="&#x683;" horiz-adv-x="1251" arabic-form="initial" 
d="M1114 448q-23 4 -49 10.5t-54 15.5q-48 -61 -136 -143.5t-207.5 -156t-267 -124t-314.5 -50.5h-159l56 317h142q130 0 239.5 17t202 44.5t171.5 62.5t154 70q-64 19 -132 38.5t-135.5 35t-130.5 26t-115 10.5q-60 0 -124.5 -9t-135.5 -32l49 299q60 20 114 29.5t108 9.5
q100 0 201 -33.5t199 -82.5t191.5 -103.5t177.5 -98.5zM924 -207l-141 -153l-179 150l-130 -144l-187 154l137 159l182 -153l127 148z" />
    <glyph glyph-name="uniFB79" unicode="&#x683;" horiz-adv-x="1262" arabic-form="medial" 
d="M1114 448q-19 4 -39.5 8.5t-41.5 11.5q12 -43 37 -70.5t55 -46t61.5 -26.5t57.5 -8h95l-55 -317h-77q-138 0 -208 91.5t-85 275.5q-63 -61 -149 -126t-192.5 -118.5t-228.5 -88t-258 -34.5h-159l56 317h142q130 0 239.5 17t202 44.5t171.5 62.5t154 70q-64 19 -132 38.5
t-135.5 35t-130.5 26t-115 10.5q-60 0 -124.5 -9t-135.5 -32l49 299q60 20 114 29.5t108 9.5q100 0 201 -33.5t199 -82.5t191.5 -103.5t177.5 -98.5zM1036 -207l-141 -153l-179 150l-130 -144l-187 154l137 159l182 -153l127 148z" />
    <glyph glyph-name="uniFB7A" unicode="&#x686;" horiz-adv-x="1187" arabic-form="isolated" 
d="M1114 614q-8 0 -10 2q-203 -43 -358 -108.5t-260 -135.5t-158.5 -136.5t-53.5 -112.5q0 -116 155 -166t433 -50q54 0 114 2t124 5l-176 -330q-68 -9 -129.5 -14.5t-119.5 -5.5q-293 0 -444 120t-151 325q0 107 45.5 205.5t125 184.5t186 156t229.5 118
q-84 10 -161.5 14.5t-141.5 4.5q-59 0 -123.5 -9.5t-134.5 -31.5l48 298q59 21 113.5 30t108.5 9q100 0 197 -21t192.5 -53.5t189 -73.5t186.5 -80zM1048 272l-112 -121l-144 118l-103 -114l-150 123l109 126l146 -122l101 119zM924 84l-102 -112l-122 103l96 114z" />
    <glyph glyph-name="uniFB7B" unicode="&#x686;" horiz-adv-x="1350" arabic-form="final" 
d="M1114 614q-8 0 -10 2q-43 -9 -83 -19.5t-77 -21.5q78 -139 165 -198.5t205 -59.5h112l-57 -317h-93q-75 0 -145 38.5t-128.5 109.5t-101.5 171.5t-61 223.5q-139 -48 -245 -105t-177 -115t-107.5 -110.5t-36.5 -89.5q0 -116 155 -166t433 -50q54 0 114 2t124 5l-176 -330
q-68 -9 -129.5 -14.5t-119.5 -5.5q-293 0 -444 120t-151 325q0 107 45.5 205.5t125 184.5t186 156t229.5 118q-84 10 -161.5 14.5t-141.5 4.5q-59 0 -123.5 -9.5t-134.5 -31.5l48 298q59 21 113.5 30t108.5 9q100 0 197 -21t192.5 -53.5t189 -73.5t186.5 -80zM929 237
l-112 -121l-144 117l-104 -114l-149 123l108 128l147 -124l101 119zM804 48l-101 -112l-123 103l97 114z" />
    <glyph glyph-name="uniFB7C" unicode="&#x686;" horiz-adv-x="1251" arabic-form="initial" 
d="M1114 448q-23 4 -49 10.5t-54 15.5q-48 -61 -136 -143.5t-207.5 -156t-267 -124t-314.5 -50.5h-159l56 317h142q130 0 239.5 17t202 44.5t171.5 62.5t154 70q-64 19 -132 38.5t-135.5 35t-130.5 26t-115 10.5q-60 0 -124.5 -9t-135.5 -32l49 299q60 20 114 29.5t108 9.5
q100 0 201 -33.5t199 -82.5t191.5 -103.5t177.5 -98.5zM924 -207l-141 -153l-179 150l-130 -144l-187 154l137 159l182 -153l127 148zM769 -444l-128 -138l-153 126l122 144z" />
    <glyph glyph-name="uniFB7D" unicode="&#x686;" horiz-adv-x="1262" arabic-form="medial" 
d="M1114 448q-19 4 -39.5 8.5t-41.5 11.5q12 -43 37 -70.5t55 -46t61.5 -26.5t57.5 -8h95l-55 -317h-77q-138 0 -208 91.5t-85 275.5q-63 -61 -149 -126t-192.5 -118.5t-228.5 -88t-258 -34.5h-159l56 317h142q130 0 239.5 17t202 44.5t171.5 62.5t154 70q-64 19 -132 38.5
t-135.5 35t-130.5 26t-115 10.5q-60 0 -124.5 -9t-135.5 -32l49 299q60 20 114 29.5t108 9.5q100 0 201 -33.5t199 -82.5t191.5 -103.5t177.5 -98.5zM1036 -207l-141 -153l-179 150l-130 -144l-187 154l137 159l182 -153l127 148zM881 -444l-128 -138l-153 126l121 144z" />
    <glyph glyph-name="uniFB7E" unicode="&#x687;" horiz-adv-x="1187" arabic-form="isolated" 
d="M1114 614q-8 0 -10 2q-203 -43 -358 -108.5t-260 -135.5t-158.5 -136.5t-53.5 -112.5q0 -116 155 -166t433 -50q54 0 114 2t124 5l-176 -330q-68 -9 -129.5 -14.5t-119.5 -5.5q-293 0 -444 120t-151 325q0 107 45.5 205.5t125 184.5t186 156t229.5 118
q-84 10 -161.5 14.5t-141.5 4.5q-59 0 -123.5 -9.5t-134.5 -31.5l48 298q59 21 113.5 30t108.5 9q100 0 197 -21t192.5 -53.5t189 -73.5t186.5 -80zM668 183l-124 104l99 108l127 -105l92 102l132 -110l-95 -111l121 -100l-96 -112l-129 108l-90 -104l-135 113zM887 179
l-118 99l-90 -102l117 -98z" />
    <glyph glyph-name="uniFB7F" unicode="&#x687;" horiz-adv-x="1350" arabic-form="final" 
d="M1114 614q-8 0 -10 2q-43 -9 -83 -19.5t-77 -21.5q78 -139 165 -198.5t205 -59.5h112l-57 -317h-93q-75 0 -145 38.5t-128.5 109.5t-101.5 171.5t-61 223.5q-139 -48 -245 -105t-177 -115t-107.5 -110.5t-36.5 -89.5q0 -116 155 -166t433 -50q54 0 114 2t124 5l-176 -330
q-68 -9 -129.5 -14.5t-119.5 -5.5q-293 0 -444 120t-151 325q0 107 45.5 205.5t125 184.5t186 156t229.5 118q-84 10 -161.5 14.5t-141.5 4.5q-59 0 -123.5 -9.5t-134.5 -31.5l48 298q59 21 113.5 30t108.5 9q100 0 197 -21t192.5 -53.5t189 -73.5t186.5 -80zM586 162
l-116 98l92 100l117 -99l86 95l123 -101l-88 -103l113 -94l-91 -104l-119 101l-84 -97l-124 106zM789 159l-110 92l-82 -95l107 -90z" />
    <glyph glyph-name="uniFB80" unicode="&#x687;" horiz-adv-x="1251" arabic-form="initial" 
d="M1114 448q-23 4 -49 10.5t-54 15.5q-48 -61 -136 -143.5t-207.5 -156t-267 -124t-314.5 -50.5h-159l56 317h142q130 0 239.5 17t202 44.5t171.5 62.5t154 70q-64 19 -132 38.5t-135.5 35t-130.5 26t-115 10.5q-60 0 -124.5 -9t-135.5 -32l49 299q60 20 114 29.5t108 9.5
q100 0 201 -33.5t199 -82.5t191.5 -103.5t177.5 -98.5zM459 -345l-176 147l141 153l179 -149l130 144l187 -155l-135 -156l172 -143l-136 -158l-182 153l-128 -148l-190 160zM769 -351l-168 141l-126 -145l165 -138z" />
    <glyph glyph-name="uniFB81" unicode="&#x687;" horiz-adv-x="1262" arabic-form="medial" 
d="M1114 448q-19 4 -39.5 8.5t-41.5 11.5q12 -43 37 -70.5t55 -46t61.5 -26.5t57.5 -8h95l-55 -317h-77q-138 0 -208 91.5t-85 275.5q-63 -61 -149 -126t-192.5 -118.5t-228.5 -88t-258 -34.5h-159l56 317h142q130 0 239.5 17t202 44.5t171.5 62.5t154 70q-64 19 -132 38.5
t-135.5 35t-130.5 26t-115 10.5q-60 0 -124.5 -9t-135.5 -32l49 299q60 20 114 29.5t108 9.5q100 0 201 -33.5t199 -82.5t191.5 -103.5t177.5 -98.5zM568 -345l-175 147l140 153l179 -149l131 144l186 -155l-134 -156l172 -143l-137 -158l-182 153l-128 -148l-190 160z
M878 -351l-168 141l-125 -145l165 -138z" />
    <glyph glyph-name="uniFB82" unicode="&#x68d;" horiz-adv-x="1200" arabic-form="isolated" 
d="M1092 301q0 -64 -68.5 -121t-171.5 -100.5t-220 -69t-211 -25.5q-84 0 -167 14t-143 57l105 280q57 -15 131 -22.5t154 -7.5q112 0 222 13.5t192 34.5q-51 90 -110.5 163.5t-132 140t-159.5 129t-190 129.5l329 157q118 -76 201.5 -160.5t137 -179.5t77.5 -202t24 -230z
M292 -231l141 153l178 -148l131 142l186 -155l-136 -158l-183 155l-126 -150z" />
    <glyph glyph-name="uniFB83" unicode="&#x68d;" horiz-adv-x="1232" arabic-form="final" 
d="M1251 0h-108q-47 0 -83.5 15t-69 44.5t-62.5 76.5t-62 112q-33 -45 -83.5 -91.5t-112.5 -84.5t-136 -62.5t-152 -24.5q-84 0 -152.5 16.5t-118.5 60.5l105 296q46 -20 107.5 -28.5t132.5 -8.5q90 0 182.5 12t172.5 34q-9 21 -19.5 43.5t-20.5 48.5l-244 558h289l187 -519
q37 -104 83.5 -143.5t112.5 -39.5h108zM247 -231l140 153l179 -148l131 142l186 -155l-136 -158l-183 155l-127 -150z" />
    <glyph glyph-name="uniFB84" unicode="&#x68c;" horiz-adv-x="1200" arabic-form="isolated" 
d="M1092 301q0 -64 -68.5 -121t-171.5 -100.5t-220 -69t-211 -25.5q-84 0 -167 14t-143 57l105 280q57 -15 131 -22.5t154 -7.5q112 0 222 13.5t192 34.5q-51 90 -110.5 163.5t-132 140t-159.5 129t-190 129.5l329 157q118 -76 201.5 -160.5t137 -179.5t77.5 -202t24 -230z
M276 1367l140 154l180 -150l130 144l187 -155l-137 -158l-182 153l-128 -148z" />
    <glyph glyph-name="uniFB85" unicode="&#x68c;" horiz-adv-x="1232" arabic-form="final" 
d="M1251 0h-108q-47 0 -83.5 15t-69 44.5t-62.5 76.5t-62 112q-33 -45 -83.5 -91.5t-112.5 -84.5t-136 -62.5t-152 -24.5q-84 0 -152.5 16.5t-118.5 60.5l105 296q46 -20 107.5 -28.5t132.5 -8.5q90 0 182.5 12t172.5 34q-9 21 -19.5 43.5t-20.5 48.5l-244 558h289l187 -519
q37 -104 83.5 -143.5t112.5 -39.5h108zM321 1367l141 154l179 -150l130 144l187 -155l-136 -158l-183 153l-127 -148z" />
    <glyph glyph-name="uniFB86" unicode="&#x68e;" horiz-adv-x="1200" arabic-form="isolated" 
d="M1092 301q0 -64 -68.5 -121t-171.5 -100.5t-220 -69t-211 -25.5q-84 0 -167 14t-143 57l105 280q57 -15 131 -22.5t154 -7.5q112 0 222 13.5t192 34.5q-51 90 -110.5 163.5t-132 140t-159.5 129t-190 129.5l329 157q118 -76 201.5 -160.5t137 -179.5t77.5 -202t24 -230z
M276 1367l140 154l180 -150l130 144l187 -155l-137 -158l-182 153l-128 -148zM431 1604l127 139l153 -128l-121 -143z" />
    <glyph glyph-name="uniFB87" unicode="&#x68e;" horiz-adv-x="1232" arabic-form="final" 
d="M1251 0h-108q-47 0 -83.5 15t-69 44.5t-62.5 76.5t-62 112q-33 -45 -83.5 -91.5t-112.5 -84.5t-136 -62.5t-152 -24.5q-84 0 -152.5 16.5t-118.5 60.5l105 296q46 -20 107.5 -28.5t132.5 -8.5q90 0 182.5 12t172.5 34q-9 21 -19.5 43.5t-20.5 48.5l-244 558h289l187 -519
q37 -104 83.5 -143.5t112.5 -39.5h108zM321 1367l141 154l179 -150l130 144l187 -155l-136 -158l-183 153l-127 -148zM476 1604l128 139l153 -128l-121 -143z" />
    <glyph glyph-name="uniFB88" unicode="&#x688;" horiz-adv-x="1200" arabic-form="isolated" 
d="M1092 301q0 -64 -68.5 -121t-171.5 -100.5t-220 -69t-211 -25.5q-84 0 -167 14t-143 57l105 280q57 -15 131 -22.5t154 -7.5q112 0 222 13.5t192 34.5q-51 90 -110.5 163.5t-132 140t-159.5 129t-190 129.5l329 157q118 -76 201.5 -160.5t137 -179.5t77.5 -202t24 -230z
M173 1324h109l-14 410l107 15l-5 -312q25 22 53.5 42.5t59 36t63 23.5t67.5 8q41 0 73 -14t53.5 -38.5t32 -55.5t10.5 -66q0 -16 -14 -43t-41 -54t-67.5 -46.5t-92.5 -19.5h-364zM603 1439q-34 0 -65 -7t-60 -19.5t-56.5 -28t-52.5 -33.5v-27h158q32 1 61.5 4t54 9
t43.5 13.5t31 16.5q-12 31 -40 51.5t-74 20.5z" />
    <glyph glyph-name="uniFB89" unicode="&#x688;" horiz-adv-x="1232" arabic-form="final" 
d="M1251 0h-108q-47 0 -83.5 15t-69 44.5t-62.5 76.5t-62 112q-33 -45 -83.5 -91.5t-112.5 -84.5t-136 -62.5t-152 -24.5q-84 0 -152.5 16.5t-118.5 60.5l105 296q46 -20 107.5 -28.5t132.5 -8.5q90 0 182.5 12t172.5 34q-9 21 -19.5 43.5t-20.5 48.5l-244 558h289l187 -519
q37 -104 83.5 -143.5t112.5 -39.5h108zM346 1324h109l-14 410l107 15l-5 -312q25 22 53.5 42.5t59 36t63 23.5t67.5 8q41 0 73 -14t53.5 -38.5t32.5 -55.5t11 -66q0 -16 -14.5 -43t-41.5 -54t-67.5 -46.5t-92.5 -19.5h-364zM776 1439q-34 0 -65 -7t-60 -19.5t-56.5 -28
t-52.5 -33.5v-27h158q32 1 61.5 4t54 9t43.5 13.5t31 16.5q-12 31 -40 51.5t-74 20.5z" />
    <glyph glyph-name="uniFB8A" unicode="&#x698;" horiz-adv-x="949" arabic-form="isolated" 
d="M778 838q34 -90 53.5 -149.5t30.5 -101.5t14 -72t3 -58q0 -115 -35.5 -239.5t-95 -240t-140 -217.5t-172.5 -171h-436v68q118 63 234.5 160t213.5 205t160 219.5t75 206.5q0 2 -6 9.5t-23.5 44.5t-55 114.5t-100.5 221.5h280zM272 1145l141 153l178 -148l131 143
l186 -155l-135 -159l-184 153l-126 -147zM427 1383l127 138l153 -127l-121 -144z" />
    <glyph glyph-name="uniFB8B" unicode="&#x698;" horiz-adv-x="1283" arabic-form="final" 
d="M824 707h2l62 -157q30 -76 70 -122.5t85 -70.5t92.5 -32t94.5 -8h128l-55 -317h-90q-45 0 -91.5 10.5t-93.5 37.5t-91.5 75t-85.5 125q-23 -95 -64 -189.5t-96 -180t-119.5 -160t-135.5 -129.5h-436v68q118 63 234.5 160t213.5 205t160 219.5t75 206.5q0 2 -6 9.5
t-23.5 44.5t-55 114.5t-100.5 221.5h280zM250 1145l140 153l179 -148l131 143l186 -155l-136 -159l-182 153l-128 -147zM404 1383l128 138l153 -127l-122 -144z" />
    <glyph glyph-name="uniFB8C" unicode="&#x691;" horiz-adv-x="949" arabic-form="isolated" 
d="M778 838q34 -90 53.5 -149.5t30.5 -101.5t14 -72t3 -58q0 -115 -35.5 -239.5t-95 -240t-140 -217.5t-172.5 -171h-436v68q118 63 234.5 160t213.5 205t160 219.5t75 206.5q0 2 -6 9.5t-23.5 44.5t-55 114.5t-100.5 221.5h280zM297 1106h109l-14 410l107 15l-5 -312
q25 23 53.5 43.5t59 35.5t63 23t67.5 8q41 0 73 -14t53.5 -38t32 -55.5t10.5 -66.5q0 -16 -14 -43t-41 -54t-67.5 -46.5t-92.5 -19.5h-364zM727 1221q-34 0 -65 -7t-60 -19t-56.5 -27.5t-52.5 -34.5v-27h158q32 1 61.5 4t54 9t43.5 14t31 17q-12 30 -40 50.5t-74 20.5z" />
    <glyph glyph-name="uniFB8D" unicode="&#x691;" horiz-adv-x="1283" arabic-form="final" 
d="M824 707h2l62 -157q30 -76 70 -122.5t85 -70.5t92.5 -32t94.5 -8h128l-55 -317h-90q-45 0 -91.5 10.5t-93.5 37.5t-91.5 75t-85.5 125q-23 -95 -64 -189.5t-96 -180t-119.5 -160t-135.5 -129.5h-436v68q118 63 234.5 160t213.5 205t160 219.5t75 206.5q0 2 -6 9.5
t-23.5 44.5t-55 114.5t-100.5 221.5h280zM279 1106h109l-14 410l107 15l-5 -312q25 23 53.5 43.5t59 35.5t63 23t67.5 8q41 0 73 -14t53 -38t32 -55.5t11 -66.5q0 -16 -14 -43t-41.5 -54t-67.5 -46.5t-93 -19.5h-363zM709 1221q-34 0 -65 -7t-60 -19t-56.5 -27.5
t-52.5 -34.5v-27h158q32 1 61 4t54 9t44 14t31 17q-12 30 -40.5 50.5t-73.5 20.5z" />
    <glyph glyph-name="uniFB8E" unicode="&#x6a9;" horiz-adv-x="1565" arabic-form="isolated" 
d="M621 306q145 0 282 32t249 104l-399 377q-34 32 -60 79.5t-26 101.5q0 38 10 71t29 65q43 73 121.5 131t169 103.5t181.5 78t162 55.5l245 -245q-114 -20 -207 -44t-173 -53.5t-154 -65t-149 -79.5l390 -358q20 -19 38 -43.5t32 -51t21.5 -53t7.5 -48.5
q0 -120 -72.5 -209.5t-188.5 -149t-260 -89.5t-283 -30q-272 0 -398.5 149t-133.5 432l209 27q17 -71 43 -124.5t67 -90t100.5 -54.5t146.5 -18z" />
    <glyph glyph-name="uniFB8F" unicode="&#x6a9;" horiz-adv-x="1814" arabic-form="final" 
d="M1833 0h-113q-103 0 -204.5 68.5t-206.5 179.5q-23 -72 -103 -122.5t-184.5 -81.5t-213 -45t-186.5 -14q-301 0 -440 149t-146 432l209 27q17 -71 43 -124.5t67 -90t100.5 -54.5t146.5 -18t170 7.5t153 24t123 41.5t81 61l-341 379q-34 32 -60 79.5t-26 101.5
q0 47 19.5 89.5t56.5 82.5q54 58 135.5 108t173.5 92t186.5 75t174.5 57l245 -245q-229 -43 -417 -98t-339 -144l366 -394q58 -62 113 -117.5t108 -98t101.5 -66.5t93.5 -24h170z" />
    <glyph glyph-name="uniFB90" unicode="&#x6a9;" horiz-adv-x="921" arabic-form="initial" 
d="M944 1259q-114 -20 -207.5 -44t-173.5 -53.5t-153.5 -65t-148.5 -79.5l390 -358q20 -19 38 -43.5t32 -51t21.5 -53t7.5 -48.5q0 -77 -42 -158t-121.5 -149.5t-194 -112t-262.5 -43.5h-203l56 317h74q155 0 276.5 38.5t177.5 86.5l-399 377q-34 32 -60 79.5t-26 101.5
q0 52 19 95q30 73 101.5 135.5t163 114t194 91.5t196.5 68z" />
    <glyph glyph-name="uniFB91" unicode="&#x6a9;" horiz-adv-x="1136" arabic-form="medial" 
d="M1157 0h-112q-53 0 -106 20.5t-105 56t-103.5 79.5t-98.5 92q-32 -50 -77.5 -95.5t-108 -79.5t-140.5 -53.5t-176 -19.5h-203l56 317h74q153 0 246.5 37.5t150.5 85.5l-342 379q-34 32 -60 79.5t-26 101.5q0 32 9.5 60t23.5 54q41 69 124.5 129t184 109t207.5 86.5
t197 65.5l245 -245q-230 -43 -417.5 -98t-338.5 -144l334 -358q35 -36 87.5 -94t112 -113t124 -95t124.5 -40h169z" />
    <glyph glyph-name="uniFB92" unicode="&#x6af;" horiz-adv-x="1565" arabic-form="isolated" 
d="M715 1412q125 94 240 158t238 109l78 -91q-66 -25 -143.5 -57t-155 -74.5t-149.5 -91.5t-130 -106zM621 306q145 0 282 32t249 104l-399 377q-34 32 -60 79.5t-26 101.5q0 38 10 71t29 65q43 73 121.5 131t169 103.5t181.5 78t162 55.5l245 -245q-114 -20 -207 -44
t-173 -53.5t-154 -65t-149 -79.5l390 -358q20 -19 38 -43.5t32 -51t21.5 -53t7.5 -48.5q0 -120 -72.5 -209.5t-188.5 -149t-260 -89.5t-283 -30q-272 0 -398.5 149t-133.5 432l209 27q17 -71 43 -124.5t67 -90t100.5 -54.5t146.5 -18z" />
    <glyph glyph-name="uniFB93" unicode="&#x6af;" horiz-adv-x="1814" arabic-form="final" 
d="M789 1420q126 93 242 153.5t239 105.5l78 -91q-68 -25 -145 -56.5t-154.5 -71.5t-150.5 -88.5t-130 -104.5zM1833 0h-113q-103 0 -204.5 68.5t-206.5 179.5q-23 -72 -103 -122.5t-184.5 -81.5t-213 -45t-186.5 -14q-301 0 -440 149t-146 432l209 27q17 -71 43 -124.5
t67 -90t100.5 -54.5t146.5 -18t170 7.5t153 24t123 41.5t81 61l-341 379q-34 32 -60 79.5t-26 101.5q0 47 19.5 89.5t56.5 82.5q54 58 135.5 108t173.5 92t186.5 75t174.5 57l245 -245q-229 -43 -417 -98t-339 -144l366 -394q58 -62 113 -117.5t108 -98t101.5 -66.5
t93.5 -24h170z" />
    <glyph glyph-name="uniFB94" unicode="&#x6af;" horiz-adv-x="921" arabic-form="initial" 
d="M54 1412q124 94 239 158t239 109l78 -91q-67 -25 -144.5 -57t-155 -74.5t-149.5 -91.5t-129 -106zM944 1259q-114 -20 -207.5 -44t-173.5 -53.5t-153.5 -65t-148.5 -79.5l390 -358q20 -19 38 -43.5t32 -51t21.5 -53t7.5 -48.5q0 -77 -42 -158t-121.5 -149.5t-194 -112
t-262.5 -43.5h-203l56 317h74q155 0 276.5 38.5t177.5 86.5l-399 377q-34 32 -60 79.5t-26 101.5q0 52 19 95q30 73 101.5 135.5t163 114t194 91.5t196.5 68z" />
    <glyph glyph-name="uniFB95" unicode="&#x6af;" horiz-adv-x="1136" arabic-form="medial" 
d="M114 1420q125 93 240.5 153.5t238.5 105.5l78 -91q-67 -25 -144.5 -56.5t-155 -71.5t-150 -88.5t-130.5 -104.5zM1157 0h-112q-53 0 -106 20.5t-105 56t-103.5 79.5t-98.5 92q-32 -50 -77.5 -95.5t-108 -79.5t-140.5 -53.5t-176 -19.5h-203l56 317h74q153 0 246.5 37.5
t150.5 85.5l-342 379q-34 32 -60 79.5t-26 101.5q0 32 9.5 60t23.5 54q41 69 124.5 129t184 109t207.5 86.5t197 65.5l245 -245q-230 -43 -417.5 -98t-338.5 -144l334 -358q35 -36 87.5 -94t112 -113t124 -95t124.5 -40h169z" />
    <glyph glyph-name="uniFB96" unicode="&#x6b3;" horiz-adv-x="1565" arabic-form="isolated" 
d="M715 1412q125 94 240 158t238 109l78 -91q-66 -25 -143.5 -57t-155 -74.5t-149.5 -91.5t-130 -106zM621 306q145 0 282 32t249 104l-399 377q-34 32 -60 79.5t-26 101.5q0 38 10 71t29 65q43 73 121.5 131t169 103.5t181.5 78t162 55.5l245 -245q-114 -20 -207 -44
t-173 -53.5t-154 -65t-149 -79.5l390 -358q20 -19 38 -43.5t32 -51t21.5 -53t7.5 -48.5q0 -120 -72.5 -209.5t-188.5 -149t-260 -89.5t-283 -30q-272 0 -398.5 149t-133.5 432l209 27q17 -71 43 -124.5t67 -90t100.5 -54.5t146.5 -18zM597 -521l147 120l-152 173l158 129
l155 -177l-144 -124l149 -169l-153 -132z" />
    <glyph glyph-name="uniFB97" unicode="&#x6b3;" horiz-adv-x="1814" arabic-form="final" 
d="M789 1420q126 93 242 153.5t239 105.5l78 -91q-68 -25 -145 -56.5t-154.5 -71.5t-150.5 -88.5t-130 -104.5zM1833 0h-113q-103 0 -204.5 68.5t-206.5 179.5q-23 -72 -103 -122.5t-184.5 -81.5t-213 -45t-186.5 -14q-301 0 -440 149t-146 432l209 27q17 -71 43 -124.5
t67 -90t100.5 -54.5t146.5 -18t170 7.5t153 24t123 41.5t81 61l-341 379q-34 32 -60 79.5t-26 101.5q0 47 19.5 89.5t56.5 82.5q54 58 135.5 108t173.5 92t186.5 75t174.5 57l245 -245q-229 -43 -417 -98t-339 -144l366 -394q58 -62 113 -117.5t108 -98t101.5 -66.5
t93.5 -24h170zM597 -521l147 120l-152 173l158 129l155 -177l-144 -124l150 -169l-153 -132z" />
    <glyph glyph-name="uniFB98" unicode="&#x6b3;" horiz-adv-x="921" arabic-form="initial" 
d="M54 1412q124 94 239 158t239 109l78 -91q-67 -25 -144.5 -57t-155 -74.5t-149.5 -91.5t-129 -106zM944 1259q-114 -20 -207.5 -44t-173.5 -53.5t-153.5 -65t-148.5 -79.5l390 -358q20 -19 38 -43.5t32 -51t21.5 -53t7.5 -48.5q0 -77 -42 -158t-121.5 -149.5t-194 -112
t-262.5 -43.5h-203l56 317h74q155 0 276.5 38.5t177.5 86.5l-399 377q-34 32 -60 79.5t-26 101.5q0 52 19 95q30 73 101.5 135.5t163 114t194 91.5t196.5 68zM143 -521l147 120l-153 173l159 129l155 -177l-144 -124l149 -169l-153 -132z" />
    <glyph glyph-name="uniFB99" unicode="&#x6b3;" horiz-adv-x="1136" arabic-form="medial" 
d="M114 1420q125 93 240.5 153.5t238.5 105.5l78 -91q-67 -25 -144.5 -56.5t-155 -71.5t-150 -88.5t-130.5 -104.5zM1157 0h-112q-53 0 -106 20.5t-105 56t-103.5 79.5t-98.5 92q-32 -50 -77.5 -95.5t-108 -79.5t-140.5 -53.5t-176 -19.5h-203l56 317h74q153 0 246.5 37.5
t150.5 85.5l-342 379q-34 32 -60 79.5t-26 101.5q0 32 9.5 60t23.5 54q41 69 124.5 129t184 109t207.5 86.5t197 65.5l245 -245q-230 -43 -417.5 -98t-338.5 -144l334 -358q35 -36 87.5 -94t112 -113t124 -95t124.5 -40h169zM170 -521l147 120l-152 173l158 129l155 -177
l-144 -124l150 -169l-153 -132z" />
    <glyph glyph-name="uniFB9A" unicode="&#x6b1;" horiz-adv-x="1565" arabic-form="isolated" 
d="M715 1412q125 94 240 158t238 109l78 -91q-66 -25 -143.5 -57t-155 -74.5t-149.5 -91.5t-130 -106zM621 306q145 0 282 32t249 104l-399 377q-34 32 -60 79.5t-26 101.5q0 38 10 71t29 65q43 73 121.5 131t169 103.5t181.5 78t162 55.5l245 -245q-114 -20 -207 -44
t-173 -53.5t-154 -65t-149 -79.5l390 -358q20 -19 38 -43.5t32 -51t21.5 -53t7.5 -48.5q0 -120 -72.5 -209.5t-188.5 -149t-260 -89.5t-283 -30q-272 0 -398.5 149t-133.5 432l209 27q17 -71 43 -124.5t67 -90t100.5 -54.5t146.5 -18zM634 1869l130 143l166 -139l121 133
l172 -143l-126 -147l-169 142l-118 -137z" />
    <glyph glyph-name="uniFB9B" unicode="&#x6b1;" horiz-adv-x="1814" arabic-form="final" 
d="M789 1420q126 93 242 153.5t239 105.5l78 -91q-68 -25 -145 -56.5t-154.5 -71.5t-150.5 -88.5t-130 -104.5zM1833 0h-113q-103 0 -204.5 68.5t-206.5 179.5q-23 -72 -103 -122.5t-184.5 -81.5t-213 -45t-186.5 -14q-301 0 -440 149t-146 432l209 27q17 -71 43 -124.5
t67 -90t100.5 -54.5t146.5 -18t170 7.5t153 24t123 41.5t81 61l-341 379q-34 32 -60 79.5t-26 101.5q0 47 19.5 89.5t56.5 82.5q54 58 135.5 108t173.5 92t186.5 75t174.5 57l245 -245q-229 -43 -417 -98t-339 -144l366 -394q58 -62 113 -117.5t108 -98t101.5 -66.5
t93.5 -24h170zM635 1869l129 143l166 -139l121 133l172 -143l-126 -147l-169 142l-118 -137z" />
    <glyph glyph-name="uniFB9C" unicode="&#x6b1;" horiz-adv-x="921" arabic-form="initial" 
d="M54 1412q124 94 239 158t239 109l78 -91q-67 -25 -144.5 -57t-155 -74.5t-149.5 -91.5t-129 -106zM944 1259q-114 -20 -207.5 -44t-173.5 -53.5t-153.5 -65t-148.5 -79.5l390 -358q20 -19 38 -43.5t32 -51t21.5 -53t7.5 -48.5q0 -77 -42 -158t-121.5 -149.5t-194 -112
t-262.5 -43.5h-203l56 317h74q155 0 276.5 38.5t177.5 86.5l-399 377q-34 32 -60 79.5t-26 101.5q0 52 19 95q30 73 101.5 135.5t163 114t194 91.5t196.5 68zM44 1869l129 143l166 -139l121 133l172 -143l-126 -147l-169 142l-118 -137z" />
    <glyph glyph-name="uniFB9D" unicode="&#x6b1;" horiz-adv-x="1136" arabic-form="medial" 
d="M114 1420q125 93 240.5 153.5t238.5 105.5l78 -91q-67 -25 -144.5 -56.5t-155 -71.5t-150 -88.5t-130.5 -104.5zM1157 0h-112q-53 0 -106 20.5t-105 56t-103.5 79.5t-98.5 92q-32 -50 -77.5 -95.5t-108 -79.5t-140.5 -53.5t-176 -19.5h-203l56 317h74q153 0 246.5 37.5
t150.5 85.5l-342 379q-34 32 -60 79.5t-26 101.5q0 32 9.5 60t23.5 54q41 69 124.5 129t184 109t207.5 86.5t197 65.5l245 -245q-230 -43 -417.5 -98t-338.5 -144l334 -358q35 -36 87.5 -94t112 -113t124 -95t124.5 -40h169zM53 1869l129 143l166 -139l121 133l172 -143
l-125 -147l-170 142l-117 -137z" />
    <glyph glyph-name="uniFB9E" unicode="&#x6ba;" horiz-adv-x="1285" arabic-form="isolated" 
d="M1144 707q25 -112 38.5 -182.5t20.5 -120.5q5 -37 6 -64t1 -53q0 -132 -32.5 -257t-107 -223t-195.5 -158t-297 -60q-116 0 -211 33t-162 95.5t-103.5 152t-36.5 203.5q0 155 69 340h214q-44 -135 -44 -228q0 -135 80 -197.5t228 -62.5q185 0 291 76.5t138 210.5
l-153 495h256z" />
    <glyph glyph-name="uniFB9F" unicode="&#x6ba;" horiz-adv-x="1495" arabic-form="final" 
d="M1477 0q-54 0 -129.5 36.5t-146.5 105.5q-15 -110 -57.5 -210.5t-117.5 -176.5t-186 -121t-262 -45q-116 0 -211 33t-162 95.5t-103.5 152t-36.5 203.5q0 155 69 340h214q-44 -135 -44 -228q0 -135 80 -197.5t228 -62.5q91 0 169 20.5t136 65.5t91 115t33 169
q0 20 -1 39.5t-1 39.5l-162 313l242 96l99 -233q49 -114 114 -173.5t138 -59.5h99l-56 -317h-36z" />
    <glyph glyph-name="uniFBA0" unicode="&#x6bb;" horiz-adv-x="1285" arabic-form="isolated" 
d="M1144 707q25 -112 38.5 -182.5t20.5 -120.5q5 -37 6 -64t1 -53q0 -132 -32.5 -257t-107 -223t-195.5 -158t-297 -60q-116 0 -211 33t-162 95.5t-103.5 152t-36.5 203.5q0 155 69 340h214q-44 -135 -44 -228q0 -135 80 -197.5t228 -62.5q185 0 291 76.5t138 210.5
l-153 495h256zM276 870h110l-15 408l108 16l-6 -312q26 23 53.5 43t58 35.5t63.5 23.5t67 8q41 0 72.5 -14t53 -38t32.5 -55.5t11 -65.5q0 -16 -14 -43.5t-41 -54t-67 -46t-93 -19.5h-363zM705 985q-33 0 -64 -7.5t-60.5 -19t-56.5 -27.5t-53 -35v-26h159q31 1 60.5 4
t54 8.5t43.5 13.5t30 18q-11 29 -39 50t-74 21z" />
    <glyph glyph-name="uniFBA1" unicode="&#x6bb;" horiz-adv-x="1495" arabic-form="final" 
d="M1477 0q-54 0 -129.5 36.5t-146.5 105.5q-15 -110 -57.5 -210.5t-117.5 -176.5t-186 -121t-262 -45q-116 0 -211 33t-162 95.5t-103.5 152t-36.5 203.5q0 155 69 340h214q-44 -135 -44 -228q0 -135 80 -197.5t228 -62.5q91 0 169 20.5t136 65.5t91 115t33 169
q0 20 -1 39.5t-1 39.5l-162 313l242 96l99 -233q49 -114 114 -173.5t138 -59.5h99l-56 -317h-36zM276 870h110l-15 408l108 16l-6 -312q26 23 53.5 43t58 35.5t63.5 23.5t67 8q41 0 72.5 -14t53 -38t32.5 -55.5t11 -65.5q0 -16 -14 -43.5t-41 -54t-67 -46t-93 -19.5h-363z
M705 985q-33 0 -64 -7.5t-60.5 -19t-56.5 -27.5t-53 -35v-26h159q31 1 60.5 4t54 8.5t43.5 13.5t30 18q-11 29 -39 50t-74 21z" />
    <glyph glyph-name="uniFBA2" unicode="&#x6bb;" horiz-adv-x="638" arabic-form="initial" 
d="M-17 317h224q30 57 46 121t16 135q0 63 -15 130.5t-47 134.5h270q36 -94 36 -208q0 -145 -52.5 -304.5t-139.5 -325.5h-394zM-2 1119h109l-14 408l107 15l-5 -311q25 23 53 43t58.5 35.5t63.5 23.5t67 8q41 0 72.5 -14t53 -38t32.5 -55.5t11 -65.5q0 -16 -14.5 -43.5
t-41 -54t-66.5 -46t-93 -19.5h-363zM427 1234q-34 0 -65 -7.5t-60 -19.5t-56 -28t-53 -34v-26h159q31 1 60.5 4t54 8.5t43.5 13t30 17.5q-11 30 -39 51t-74 21z" />
    <glyph glyph-name="uniFBA3" unicode="&#x6bb;" horiz-adv-x="798" arabic-form="medial" 
d="M737 0q-244 0 -349 196q-69 -97 -160.5 -146.5t-186.5 -49.5h-114l56 317h67q123 0 190.5 71t70.5 205v245h226v-229q0 -91 10 -147t35.5 -88t66.5 -44.5t102 -12.5h123l-55 -317h-82zM116 1120h109l-15 410l109 15l-6 -312q26 22 53.5 42t58 35.5t64 24t68.5 8.5
q41 0 72 -14t53 -38.5t33 -56t11 -66.5q0 -16 -14 -43t-41.5 -54t-67.5 -46.5t-93 -19.5h-364zM547 1234q-34 0 -65.5 -7t-60.5 -19t-56.5 -28t-53.5 -34v-26h159q32 0 61.5 3.5t54 9t44 13t30.5 17.5q-11 30 -39.5 50.5t-73.5 20.5z" />
    <glyph glyph-name="uniFBA4" unicode="&#x6c0;" horiz-adv-x="945" arabic-form="isolated" 
d="M630 838q57 -49 106 -91t82 -89.5t52 -107t19 -144.5q0 -87 -41 -164.5t-105.5 -134.5t-143 -89.5t-154.5 -32.5q-180 0 -285 83t-105 242q0 73 22.5 142.5t60.5 137t88.5 130t106.5 118.5h297zM695 427q-33 60 -103.5 106.5t-182.5 110.5q-65 -58 -106 -114t-41 -94
q0 -52 47 -89t136 -37q75 0 147 32t103 85zM651 1039q-28 -1 -71 -7.5t-93.5 -16t-104.5 -21.5t-105 -26q4 10 11 28.5t14 37.5q7 20 14 43l133 11q-54 10 -91.5 35t-37.5 50q0 48 26.5 88t67.5 69.5t91 49t101 27.5l47 -132q-81 -2 -131.5 -21.5t-70.5 -51.5
q17 -24 56 -34.5t78 -14.5q47 -5 101 -1z" />
    </font>
</defs>
</svg>
