<?xml version="1.0" standalone="no"?>
<!DOCTYPE svg PUBLIC "-//W3C//DTD SVG 1.1//EN" "http://www.w3.org/Graphics/SVG/1.1/DTD/svg11.dtd" >
<svg xmlns="http://www.w3.org/2000/svg" xmlns:xlink="http://www.w3.org/1999/xlink" version="1.1">
<metadata>
Created by FontForge 20170731 at Thu Aug  4 06:06:48 2016
 By Aleksey,,,
(c)  2012 Bahij Virtual Academy. All rights reserved.
</metadata>
<defs>
<font id="BahijBadr-Regular" horiz-adv-x="1063" >
  <font-face 
    font-family="Bahij Badr"
    font-weight="300"
    font-stretch="normal"
    units-per-em="1980"
    panose-1="2 4 5 3 5 2 1 2 2 3"
    ascent="1584"
    descent="-396"
    x-height="633"
    cap-height="1112"
    bbox="-284 -1525 4577 1970"
    underline-thickness="50"
    underline-position="-150"
    unicode-range="U+0020-FEFC"
  />
<missing-glyph horiz-adv-x="728" 
d="M0 0v1020h728v-1020h-728zM117 947l247 -372l248 372h-495zM655 881l-247 -371l247 -372v743zM612 73l-248 371l-247 -371h495zM73 138l247 372l-247 371v-743z" />
    <glyph glyph-name="uniFB01" unicode="fi" horiz-adv-x="946" 
d="M905 -6q-59 3 -119.5 4.5t-120.5 1.5q-39 0 -76 -1.5t-77 -4.5v19q33 2 57.5 6.5t39.5 18t22 39.5t7 66v280q0 35 -2.5 66t-15.5 52.5t-38.5 35.5t-69.5 15v20l259 34v-503q0 -40 6.5 -66t23 -39.5t41.5 -18t63 -6.5v-19zM606 946q0 46 -7 87t-24 71.5t-46 48.5t-71 18
q-50 0 -87.5 -26.5t-61 -71t-36 -100.5t-12.5 -118v-238h215v-51h-215v-382q0 -39 5 -70t23.5 -53t58 -34t108.5 -14v-19q-60 3 -117.5 4.5t-117.5 1.5q-56 0 -109.5 -1.5t-108.5 -4.5v19q45 2 69.5 14t37 34t16.5 53t4 70v382h-88l10 51h78v176q0 57 21 130.5t64 137
t109 107t153 43.5q124 0 191.5 -52.5t73.5 -155.5z" />
    <glyph glyph-name="uniFB02" unicode="fl" horiz-adv-x="976" 
d="M796 1199v-1012q0 -49 4 -81.5t18 -51t40.5 -28.5t71.5 -13v-19q-49 3 -100.5 4.5t-103.5 1.5q-49 0 -96 -1.5t-94 -4.5v19q42 3 68 13t39.5 28.5t16.5 51t3 81.5v827l-72 -35q-3 32 -13 65.5t-29 62t-47 46.5t-65 18q-43 0 -72.5 -21.5t-48.5 -55.5t-30 -77.5t-16 -86.5
t-5.5 -83t-0.5 -68v-162h252v-51h-252v-382q0 -39 4 -70t23 -53t58 -34t109 -14v-19q-61 3 -118.5 4.5t-117.5 1.5q-54 0 -106.5 -1.5t-106.5 -4.5v19q42 2 66.5 14t36.5 34t16 53t4 70v382h-90l13 51h77v131q0 81 19.5 164t61 149.5t106 108t154.5 41.5q59 0 108.5 -24
t90.5 -51z" />
    <glyph glyph-name="uniFC31" unicode="&#xfed3;&#xfef0;" horiz-adv-x="1617" arabic-form="isolated" 
d="M1349 436q-32 72 -92 72q-67 0 -67 -68q0 -23 27.5 -48t56.5 -25q67 0 75 69zM1049 0q-133 0 -227 -27q-80 -23 -80 -45q0 -16 160 -43q104 -17 104 -90q0 -78 -66 -131q-242 -194 -516 -194q-171 0 -265.5 78.5t-94.5 224.5q0 174 149 323q17 17 31 17t14 -21
q0 4 -59 -85t-59 -175q0 -89 83 -160q87 -73 205 -73q164 0 329 62q145 54 145 85q0 16 -76 25q-105 13 -141 25q-76 25 -76 81q0 101 138.5 188t301.5 87h75q259 0 326 71q0 22 -17 70t-34 72q-42 -129 -123 -129q-57 0 -97.5 43t-40.5 106q0 97 52 183q49 79 94 79
q59 0 132 -108q81 -120 81 -256q0 -171 -70 -211q-125 -72 -325 -72h-53zM1351 946l-108 -108l-109 108l109 109z" />
    <glyph glyph-name="uniFC32" unicode="&#xfed3;&#xfef2;" horiz-adv-x="1617" arabic-form="isolated" 
d="M1349 436q-32 72 -92 72q-67 0 -67 -68q0 -23 27.5 -48t56.5 -25q67 0 75 69zM623 -745l-90 -91l-90 91l90 90zM1049 0q-133 0 -227 -27q-80 -23 -80 -45q0 -16 160 -43q104 -17 104 -90q0 -78 -66 -131q-242 -194 -516 -194q-171 0 -265.5 78.5t-94.5 224.5
q0 174 149 323q17 17 31 17t14 -21q0 4 -59 -85t-59 -175q0 -89 83 -160q87 -73 205 -73q164 0 329 62q145 54 145 85q0 16 -76 25q-105 13 -141 25q-76 25 -76 81q0 101 138.5 188t301.5 87h75q259 0 326 71q0 22 -17 70t-34 72q-42 -129 -123 -129q-57 0 -97.5 43
t-40.5 106q0 97 52 183q49 79 94 79q59 0 132 -108q81 -120 81 -256q0 -171 -70 -211q-125 -72 -325 -72h-53zM1351 946l-108 -108l-109 108l109 109zM414 -745l-90 -91l-90 91l90 90z" />
    <glyph glyph-name="uniFC43" unicode="&#xfedf;&#xfef0;" horiz-adv-x="1462" arabic-form="isolated" 
d="M1049 0q-133 0 -227 -27q-80 -23 -80 -45q0 -16 160 -43q104 -17 104 -90q0 -78 -66 -131q-242 -194 -516 -194q-171 0 -265.5 78.5t-94.5 224.5q0 174 149 323q17 17 31 17t14 -21q0 4 -59 -85t-59 -175q0 -89 83 -160q87 -73 205 -73q164 0 329 62q145 54 145 85
q0 16 -76 25q-105 13 -141 25q-76 25 -76 81q0 101 138.5 188t301.5 87h85q65 0 103 14q-19 128 -39 440q-17 270 -17 344q-28 34 -28 58q0 17 33 95q36 85 55 85q20 0 20 -68q0 -51 33 -65q43 -19 43 -33q0 -37 -33 -113q-9 -20 -20 -20q-12 0 -23 10q0 -11 21.5 -287
t21.5 -362q0 -161 -67 -213q-48 -37 -137 -37h-51z" />
    <glyph glyph-name="uniFC44" unicode="&#xfedf;&#xfef2;" horiz-adv-x="1462" arabic-form="isolated" 
d="M623 -745l-90 -91l-90 91l90 90zM414 -745l-90 -91l-90 91l90 90zM1049 0q-133 0 -227 -27q-80 -23 -80 -45q0 -16 160 -43q104 -17 104 -90q0 -78 -66 -131q-242 -194 -516 -194q-171 0 -265.5 78.5t-94.5 224.5q0 174 149 323q17 17 31 17t14 -21q0 4 -59 -85t-59 -175
q0 -89 83 -160q87 -73 205 -73q164 0 329 62q145 54 145 85q0 16 -76 25q-105 13 -141 25q-76 25 -76 81q0 101 138.5 188t301.5 87h85q65 0 103 14q-19 128 -39 440q-17 270 -17 344q-28 34 -28 58q0 17 33 95q36 85 55 85q20 0 20 -68q0 -51 33 -65q43 -19 43 -33
q0 -37 -33 -113q-9 -20 -20 -20q-12 0 -23 10q0 -11 21.5 -287t21.5 -362q0 -161 -67 -213q-48 -37 -137 -37h-51z" />
    <glyph glyph-name="uniFC64" unicode="&#xfe8c;&#xfeae;" horiz-adv-x="1165" arabic-form="final" 
d="M660 0q-73 -236 -196 -357q-110 -108 -240 -108q-52 0 -105 25q-135 63 -135 94q0 18 18 18q6 0 50 -9t92 -9q132 0 271 113q134 109 190 251q-105 53 -105 86l23 113q2 14 10 14q-1 0 58.5 -39.5t107.5 -39.5h66q127 0 185 133q18 41 41 41q16 0 16 -15q0 -2 -5 -21.5
t-5 -39.5q0 -98 168 -98v-152h-49q-50 0 -108 35q-68 40 -81 96q-62 -124 -206 -131h-61zM1072 641q0 -6 -1.5 -15.5t-5 -19t-11 -16.5t-19.5 -8t-34 -2.5t-48 -6.5t-54.5 -14.5t-55.5 -27.5q-8 -5 -21.5 -16.5t-24.5 -11.5q-9 0 -9 15q0 11 10.5 30t40.5 50q-59 33 -59 76
q0 16 9 34t32 38q85 73 141 73q30 0 45 -16t15 -32q0 -10 -5 -19t-12.5 -15.5t-16 -10t-14.5 -3.5q-5 0 -11.5 4t-14 8.5t-16.5 8.5t-19 4q-23 0 -38 -10t-15 -28q0 -9 6.5 -20t18 -20.5t27 -15.5t33.5 -6q9 0 25.5 1t34 2.5t32 3t18.5 1.5q17 0 17 -15z" />
    <glyph glyph-name="uniFC67" unicode="&#xfe8c;&#xfee6;" horiz-adv-x="1495" arabic-form="final" 
d="M627 530l-108 -108l-109 108l109 109zM1402 641q0 -6 -1.5 -15.5t-5 -19t-11 -16.5t-19.5 -8t-34 -2.5t-48 -6.5t-54.5 -14.5t-55.5 -27.5q-8 -5 -21.5 -16.5t-24.5 -11.5q-9 0 -9 15q0 11 10.5 30t40.5 50q-59 33 -59 76q0 16 9 34t32 38q85 73 141 73q30 0 45 -16
t15 -32q0 -10 -5 -19t-12.5 -15.5t-16 -10t-14.5 -3.5q-5 0 -11.5 4t-14 8.5t-16.5 8.5t-19 4q-23 0 -38 -10t-15 -28q0 -9 6.5 -20t18 -20.5t27 -15.5t33.5 -6q9 0 25.5 1t34 2.5t32 3t18.5 1.5q17 0 17 -15zM1055 0h-57q-46 0 -78 18q0 -151 -62 -251q-40 -66 -138 -127
q-139 -84 -306 -84q-196 0 -286 101q-64 71 -64 173q0 108 50 215q43 92 67 92q20 0 20 -20q0 -1 -30.5 -73t-30.5 -126q0 -217 313 -217q277 0 401 141q0 173 -79 314l53 127q9 0 76 -99q22 -32 73 -32h118q127 0 185 133q18 41 41 41q16 0 16 -15q0 -2 -5 -21.5t-5 -39.5
q0 -98 168 -98v-152h-49q-50 0 -108 35q-68 40 -81 96q-61 -122 -202 -131z" />
    <glyph glyph-name="uniFC6A" unicode="&#xfe92;&#xfeae;" horiz-adv-x="1165" arabic-form="final" 
d="M660 0q-73 -236 -196 -357q-110 -108 -240 -108q-52 0 -105 25q-135 63 -135 94q0 18 18 18q6 0 50 -9t92 -9q132 0 271 113q134 109 190 251q-105 53 -105 86l23 113q2 14 10 14q-1 0 58.5 -39.5t107.5 -39.5h66q126 0 185 133q18 41 41 41q16 0 16 -15q0 -2 -5 -21.5
t-5 -39.5q0 -98 168 -98v-152h-49q-51 0 -108 35q-67 40 -81 96q-62 -124 -206 -131h-61zM1048 -263l-108 -109l-109 109l109 109z" />
    <glyph glyph-name="uniFC70" unicode="&#xfe98;&#xfeae;" horiz-adv-x="1165" arabic-form="final" 
d="M1105 629l-79 -80l-80 80l80 80zM901 629l-80 -80l-80 80l80 80zM660 0q-73 -236 -196 -357q-110 -108 -240 -108q-52 0 -105 25q-135 63 -135 94q0 18 18 18q6 0 50 -9t92 -9q132 0 271 113q134 109 190 251q-105 53 -105 86l23 113q2 14 10 14q-1 0 58.5 -39.5
t107.5 -39.5h66q126 0 185 133q18 41 41 41q16 0 16 -15q0 -2 -5 -21.5t-5 -39.5q0 -98 168 -98v-152h-49q-51 0 -108 35q-67 40 -81 96q-62 -124 -206 -131h-61z" />
    <glyph glyph-name="uniFC86" unicode="&#xfee0;&#xfef0;" horiz-adv-x="1505" arabic-form="final" 
d="M1049 0q-133 0 -227 -27q-80 -23 -80 -45q0 -16 160 -43q104 -17 104 -90q0 -78 -66 -131q-242 -194 -516 -194q-171 0 -265.5 78.5t-94.5 224.5q0 174 149 323q17 17 31 17t14 -21q0 4 -59 -85t-59 -175q0 -89 83 -160q87 -73 205 -73q164 0 329 62q145 54 145 85
q0 16 -76 25q-105 13 -141 25q-76 25 -76 81q0 101 138.5 188t301.5 87h1q118 3 164 65q3 29 3 83q0 122 -16 415q-19 324 -20 360q55 113 64 113q7 0 25 -249q25 -332 49 -523q32 -264 159 -264h27v-152h-45q-144 0 -188 250q-57 -238 -222 -250h-1z" />
    <glyph glyph-name="uniFC87" unicode="&#xfee0;&#xfef2;" horiz-adv-x="1505" arabic-form="final" 
d="M623 -745l-90 -91l-90 91l90 90zM414 -745l-90 -91l-90 91l90 90zM1049 0q-133 0 -227 -27q-80 -23 -80 -45q0 -16 160 -43q104 -17 104 -90q0 -78 -66 -131q-242 -194 -516 -194q-171 0 -265.5 78.5t-94.5 224.5q0 174 149 323q17 17 31 17t14 -21q0 4 -59 -85t-59 -175
q0 -89 83 -160q87 -73 205 -73q164 0 329 62q145 54 145 85q0 16 -76 25q-105 13 -141 25q-76 25 -76 81q0 101 138.5 188t301.5 87h1q118 3 164 65q3 29 3 83q0 122 -16 415q-19 324 -20 360q55 113 64 113q7 0 25 -249q25 -332 49 -523q32 -264 159 -264h27v-152h-45
q-144 0 -188 250q-57 -238 -222 -250h-1z" />
    <glyph glyph-name="uniFCCC" unicode="&#xfedf;&#xfee4;" horiz-adv-x="604" arabic-form="initial" 
d="M504 98q0 -8 -27 -71q-27 -66 -34 -66q2 0 -61 54.5t-115 54.5q-26 0 -109.5 -33.5t-157.5 -36.5q-70 0 -70 76t70 76h45q122 0 199 55q-16 64 -43 377q-24 288 -24 348q-37 40 -37 61q0 34 28 111q32 84 49 84q12 0 14 -20q3 -36 9 -56q19 -59 57 -70q31 -8 31 -24
q0 -23 -31 -111q-11 -33 -24 -33q-4 0 -17 7q0 -65 37 -418q22 -206 113 -279q98 -78 98 -86z" />
    <glyph glyph-name="uniFCFB" unicode="&#xfeb3;&#xfef0;" horiz-adv-x="2077" arabic-form="isolated" 
d="M1049 0q-133 0 -227 -27q-80 -23 -80 -45q0 -16 160 -43q104 -17 104 -90q0 -78 -66 -131q-242 -194 -516 -194q-171 0 -265.5 78.5t-94.5 224.5q0 174 149 323q17 17 31 17t14 -21q0 4 -59 -85t-59 -175q0 -89 83 -160q87 -73 205 -73q164 0 329 62q145 54 145 85
q0 16 -76 25q-105 13 -141 25q-76 25 -76 81q0 101 138.5 188t301.5 87h28q83 0 137 46q33 29 62 87q24 47 34 47q18 0 17 -15l-4 -47q-11 -125 119 -125q74 0 124 52q29 30 60 96q24 51 37 51q14 0 14 -16l-8 -90q18 -25 81 -51q73 -31 134 -29q19 64 0 127l29 49
q25 43 39 43q18 0 18 -92q0 -76 -40 -161q-49 -104 -120 -104q-100 0 -209 95q-90 -107 -207 -107q-113 0 -141 115q-44 -117 -203 -123h-1z" />
    <glyph glyph-name="uniFCFC" unicode="&#xfeb3;&#xfef2;" horiz-adv-x="2077" arabic-form="isolated" 
d="M623 -745l-90 -91l-90 91l90 90zM414 -745l-90 -91l-90 91l90 90zM1049 0q-133 0 -227 -27q-80 -23 -80 -45q0 -16 160 -43q104 -17 104 -90q0 -78 -66 -131q-242 -194 -516 -194q-171 0 -265.5 78.5t-94.5 224.5q0 174 149 323q17 17 31 17t14 -21q0 4 -59 -85t-59 -175
q0 -89 83 -160q87 -73 205 -73q164 0 329 62q145 54 145 85q0 16 -76 25q-105 13 -141 25q-76 25 -76 81q0 101 138.5 188t301.5 87h28q83 0 137 46q33 29 62 87q24 47 34 47q18 0 17 -15l-4 -47q-11 -125 119 -125q74 0 124 52q29 30 60 96q24 51 37 51q14 0 14 -16l-8 -90
q18 -25 81 -51q73 -31 134 -29q19 64 0 127l29 49q25 43 39 43q18 0 18 -92q0 -76 -40 -161q-49 -104 -120 -104q-100 0 -209 95q-90 -107 -207 -107q-113 0 -141 115q-44 -117 -203 -123h-1z" />
    <glyph glyph-name="uniFCFD" unicode="&#xfeb7;&#xfef0;" horiz-adv-x="2077" arabic-form="isolated" 
d="M1718 791l-80 -80l-80 80l80 79zM1049 0q-133 0 -227 -27q-80 -23 -80 -45q0 -16 160 -43q104 -17 104 -90q0 -78 -66 -131q-242 -194 -516 -194q-171 0 -265.5 78.5t-94.5 224.5q0 174 149 323q17 17 31 17t14 -21q0 4 -59 -85t-59 -175q0 -89 83 -160q87 -73 205 -73
q164 0 329 62q145 54 145 85q0 16 -76 25q-105 13 -141 25q-76 25 -76 81q0 101 138.5 188t301.5 87h28q83 0 137 46q33 29 62 87q24 47 34 47q18 0 17 -15l-4 -47q-11 -125 119 -125q74 0 124 52q29 30 60 96q24 51 37 51q14 0 14 -16l-8 -90q18 -25 81 -51q73 -31 134 -29
q19 64 0 127l29 49q25 43 39 43q18 0 18 -92q0 -76 -40 -161q-49 -104 -120 -104q-100 0 -209 95q-90 -107 -207 -107q-113 0 -141 115q-44 -117 -203 -123h-1zM1616 629l-80 -80l-80 80l80 80zM1820 629l-79 -80l-80 80l80 80z" />
    <glyph glyph-name="uniFCFE" unicode="&#xfeb7;&#xfef2;" horiz-adv-x="2077" arabic-form="isolated" 
d="M623 -745l-90 -91l-90 91l90 90zM414 -745l-90 -91l-90 91l90 90zM1718 791l-80 -80l-80 80l80 79zM1049 0q-133 0 -227 -27q-80 -23 -80 -45q0 -16 160 -43q104 -17 104 -90q0 -78 -66 -131q-242 -194 -516 -194q-171 0 -265.5 78.5t-94.5 224.5q0 174 149 323
q17 17 31 17t14 -21q0 4 -59 -85t-59 -175q0 -89 83 -160q87 -73 205 -73q164 0 329 62q145 54 145 85q0 16 -76 25q-105 13 -141 25q-76 25 -76 81q0 101 138.5 188t301.5 87h28q83 0 137 46q33 29 62 87q24 47 34 47q18 0 17 -15l-4 -47q-11 -125 119 -125q74 0 124 52
q29 30 60 96q24 51 37 51q14 0 14 -16l-8 -90q18 -25 81 -51q73 -31 134 -29q19 64 0 127l29 49q25 43 39 43q18 0 18 -92q0 -76 -40 -161q-49 -104 -120 -104q-100 0 -209 95q-90 -107 -207 -107q-113 0 -141 115q-44 -117 -203 -123h-1zM1616 629l-80 -80l-80 80l80 80z
M1820 629l-79 -80l-80 80l80 80z" />
    <glyph glyph-name="uniFD05" unicode="&#xfebb;&#xfef0;" horiz-adv-x="2265" arabic-form="isolated" 
d="M2056 330q0 29 -57.5 52.5t-118.5 23.5q-146 0 -420 -275h51q146 0 345.5 72.5t199.5 126.5zM1049 0q-133 0 -227 -27q-80 -23 -80 -45q0 -16 160 -43q104 -17 104 -90q0 -78 -66 -131q-242 -194 -516 -194q-171 0 -265.5 78.5t-94.5 224.5q0 174 149 323q17 17 31 17
t14 -21q0 4 -59 -85t-59 -175q0 -89 83 -160q87 -73 205 -73q164 0 329 62q145 54 145 85q0 16 -76 25q-105 13 -141 25q-76 25 -76 81q0 101 138.5 188t301.5 87h18q74 0 129.5 58t52.5 58q12 0 21 -20q40 -103 114 -103q393 394 580 394q70 0 133 -41.5t63 -91.5
q0 -91 -118 -218q-88 -93 -268 -154q-160 -54 -291 -54q-115 0 -172 43q-46 35 -78 122q-66 -136 -183 -145h-1z" />
    <glyph glyph-name="uniFD06" unicode="&#xfebb;&#xfef2;" horiz-adv-x="2265" arabic-form="isolated" 
d="M623 -745l-90 -91l-90 91l90 90zM414 -745l-90 -91l-90 91l90 90zM2056 330q0 29 -57.5 52.5t-118.5 23.5q-146 0 -420 -275h51q146 0 345.5 72.5t199.5 126.5zM1049 0q-133 0 -227 -27q-80 -23 -80 -45q0 -16 160 -43q104 -17 104 -90q0 -78 -66 -131
q-242 -194 -516 -194q-171 0 -265.5 78.5t-94.5 224.5q0 174 149 323q17 17 31 17t14 -21q0 4 -59 -85t-59 -175q0 -89 83 -160q87 -73 205 -73q164 0 329 62q145 54 145 85q0 16 -76 25q-105 13 -141 25q-76 25 -76 81q0 101 138.5 188t301.5 87h18q74 0 129.5 58t52.5 58
q12 0 21 -20q40 -103 114 -103q393 394 580 394q70 0 133 -41.5t63 -91.5q0 -91 -118 -218q-88 -93 -268 -154q-160 -54 -291 -54q-115 0 -172 43q-46 35 -78 122q-66 -136 -183 -145h-1z" />
    <glyph glyph-name="uniFD07" unicode="&#xfebf;&#xfef0;" horiz-adv-x="2265" arabic-form="isolated" 
d="M2056 330q0 29 -57.5 52.5t-118.5 23.5q-146 0 -420 -275h51q146 0 345.5 72.5t199.5 126.5zM1691 788l-108 -108l-109 108l109 109zM1049 0q-133 0 -227 -27q-80 -23 -80 -45q0 -16 160 -43q104 -17 104 -90q0 -78 -66 -131q-242 -194 -516 -194q-171 0 -265.5 78.5
t-94.5 224.5q0 174 149 323q17 17 31 17t14 -21q0 4 -59 -85t-59 -175q0 -89 83 -160q87 -73 205 -73q164 0 329 62q145 54 145 85q0 16 -76 25q-105 13 -141 25q-76 25 -76 81q0 101 138.5 188t301.5 87h18q74 0 129.5 58t52.5 58q12 0 21 -20q40 -103 114 -103
q393 394 580 394q70 0 133 -41.5t63 -91.5q0 -91 -118 -218q-88 -93 -268 -154q-160 -54 -291 -54q-115 0 -172 43q-46 35 -78 122q-66 -136 -183 -145h-1z" />
    <glyph glyph-name="uniFD08" unicode="&#xfebf;&#xfef2;" horiz-adv-x="2265" arabic-form="isolated" 
d="M623 -745l-90 -91l-90 91l90 90zM414 -745l-90 -91l-90 91l90 90zM2056 330q0 29 -57.5 52.5t-118.5 23.5q-146 0 -420 -275h51q146 0 345.5 72.5t199.5 126.5zM1691 788l-108 -108l-109 108l109 109zM1049 0q-133 0 -227 -27q-80 -23 -80 -45q0 -16 160 -43
q104 -17 104 -90q0 -78 -66 -131q-242 -194 -516 -194q-171 0 -265.5 78.5t-94.5 224.5q0 174 149 323q17 17 31 17t14 -21q0 4 -59 -85t-59 -175q0 -89 83 -160q87 -73 205 -73q164 0 329 62q145 54 145 85q0 16 -76 25q-105 13 -141 25q-76 25 -76 81q0 101 138.5 188
t301.5 87h18q74 0 129.5 58t52.5 58q12 0 21 -20q40 -103 114 -103q393 394 580 394q70 0 133 -41.5t63 -91.5q0 -91 -118 -218q-88 -93 -268 -154q-160 -54 -291 -54q-115 0 -172 43q-46 35 -78 122q-66 -136 -183 -145h-1z" />
    <glyph glyph-name="uniFD0D" unicode="&#xfeb7;&#xfeae;" horiz-adv-x="1756" arabic-form="isolated" 
d="M1388 791l-80 -80l-80 80l80 79zM660 0q-73 -236 -196 -357q-110 -108 -240 -108q-52 0 -105 25q-135 63 -135 94q0 18 18 18q6 0 50 -9t92 -9q132 0 271 113q134 109 190 251q-105 53 -105 86l23 113q2 14 10 14q-1 0 58.5 -39.5t107.5 -39.5h48q83 0 137 46
q33 29 62 87q24 47 34 47q18 0 17 -15l-4 -47q-11 -125 119 -125q74 0 124 52q29 30 60 96q24 51 37 51q14 0 14 -16l-8 -90q18 -25 81 -51q73 -31 134 -29q19 64 0 127l29 49q25 43 39 43q18 0 18 -92q0 -76 -40 -161q-49 -104 -120 -104q-100 0 -209 95
q-90 -107 -207 -107q-113 0 -141 115q-44 -117 -202 -123h-61zM1286 629l-80 -80l-80 80l80 80zM1490 629l-79 -80l-80 80l80 80z" />
    <glyph glyph-name="uniFD0E" unicode="&#xfeb3;&#xfeae;" horiz-adv-x="1756" arabic-form="isolated" 
d="M660 0q-73 -236 -196 -357q-110 -108 -240 -108q-52 0 -105 25q-135 63 -135 94q0 18 18 18q6 0 50 -9t92 -9q132 0 271 113q134 109 190 251q-105 53 -105 86l23 113q2 14 10 14q-1 0 58.5 -39.5t107.5 -39.5h48q83 0 137 46q33 29 62 87q24 47 34 47q18 0 17 -15
l-4 -47q-11 -125 119 -125q74 0 124 52q29 30 60 96q24 51 37 51q14 0 14 -16l-8 -90q18 -25 81 -51q73 -31 134 -29q19 64 0 127l29 49q25 43 39 43q18 0 18 -92q0 -76 -40 -161q-49 -104 -120 -104q-100 0 -209 95q-90 -107 -207 -107q-113 0 -141 115q-44 -117 -202 -123
h-61z" />
    <glyph glyph-name="uniFD0F" unicode="&#xfebb;&#xfeae;" horiz-adv-x="1935" arabic-form="isolated" 
d="M1726 330q0 29 -57.5 52.5t-118.5 23.5q-146 0 -420 -275h51q146 0 345.5 72.5t199.5 126.5zM660 0q-73 -236 -196 -357q-110 -108 -240 -108q-52 0 -105 25q-135 63 -135 94q0 18 18 18q6 0 50 -9t92 -9q132 0 271 113q134 109 190 251q-105 53 -105 86l23 113
q2 14 10 14q-1 0 58.5 -39.5t107.5 -39.5h38q74 0 129.5 58t52.5 58q12 0 21 -20q40 -103 114 -103q393 394 580 394q70 0 133 -41.5t63 -91.5q0 -91 -118 -218q-88 -93 -268 -154q-160 -54 -291 -54q-115 0 -172 43q-46 35 -78 122q-66 -135 -182 -145h-61z" />
    <glyph glyph-name="uniFD10" unicode="&#xfebf;&#xfeae;" horiz-adv-x="1935" arabic-form="isolated" 
d="M1726 330q0 29 -57.5 52.5t-118.5 23.5q-146 0 -420 -275h51q146 0 345.5 72.5t199.5 126.5zM1361 788l-108 -108l-109 108l109 109zM660 0q-73 -236 -196 -357q-110 -108 -240 -108q-52 0 -105 25q-135 63 -135 94q0 18 18 18q6 0 50 -9t92 -9q132 0 271 113
q134 109 190 251q-105 53 -105 86l23 113q2 14 10 14q-1 0 58.5 -39.5t107.5 -39.5h38q74 0 129.5 58t52.5 58q12 0 21 -20q40 -103 114 -103q393 394 580 394q70 0 133 -41.5t63 -91.5q0 -91 -118 -218q-88 -93 -268 -154q-160 -54 -291 -54q-115 0 -172 43q-46 35 -78 122
q-66 -135 -182 -145h-61z" />
    <glyph glyph-name="uniFD17" unicode="&#xfeb4;&#xfef0;" horiz-adv-x="2113" arabic-form="final" 
d="M1049 0q-133 0 -227 -27q-80 -23 -80 -45q0 -16 160 -43q104 -17 104 -90q0 -78 -66 -131q-242 -194 -516 -194q-171 0 -265.5 78.5t-94.5 224.5q0 174 149 323q17 17 31 17t14 -21q0 4 -59 -85t-59 -175q0 -89 83 -160q87 -73 205 -73q164 0 329 62q145 54 145 85
q0 16 -76 25q-105 13 -141 25q-76 25 -76 81q0 101 138.5 188t301.5 87h26q139 0 205 115q19 32 30 32q21 0 21 -16q0 -6 -3 -24t-3 -28q0 -84 115 -84q77 0 128 45q31 27 60 81q23 44 33 44q23 0 20 -22l-10 -74q0 -23 42.5 -46t92.5 -23q43 0 88.5 77.5t57.5 77.5
q22 0 22 -18q0 -2 -7 -22.5t-7 -39.5q0 -75 94 -75h59v-152h-43q-55 0 -106.5 26t-73.5 64q-59 -90 -129 -90q-85 0 -166 86q-69 -86 -190 -86t-156 113q-61 -107 -199 -113h-1z" />
    <glyph glyph-name="uniFD18" unicode="&#xfeb4;&#xfef2;" horiz-adv-x="2113" arabic-form="final" 
d="M623 -745l-90 -91l-90 91l90 90zM414 -745l-90 -91l-90 91l90 90zM1049 0q-133 0 -227 -27q-80 -23 -80 -45q0 -16 160 -43q104 -17 104 -90q0 -78 -66 -131q-242 -194 -516 -194q-171 0 -265.5 78.5t-94.5 224.5q0 174 149 323q17 17 31 17t14 -21q0 4 -59 -85t-59 -175
q0 -89 83 -160q87 -73 205 -73q164 0 329 62q145 54 145 85q0 16 -76 25q-105 13 -141 25q-76 25 -76 81q0 101 138.5 188t301.5 87h26q139 0 205 115q19 32 30 32q21 0 21 -16q0 -6 -3 -24t-3 -28q0 -84 115 -84q77 0 128 45q31 27 60 81q23 44 33 44q23 0 20 -22l-10 -74
q0 -23 42.5 -46t92.5 -23q43 0 88.5 77.5t57.5 77.5q22 0 22 -18q0 -2 -7 -22.5t-7 -39.5q0 -75 94 -75h59v-152h-43q-55 0 -106.5 26t-73.5 64q-59 -90 -129 -90q-85 0 -166 86q-69 -86 -190 -86t-156 113q-61 -107 -199 -113h-1z" />
    <glyph glyph-name="uniFD19" unicode="&#xfeb8;&#xfef0;" horiz-adv-x="2113" arabic-form="final" 
d="M1730 791l-80 -80l-79 80l79 79zM1049 0q-133 0 -227 -27q-80 -23 -80 -45q0 -16 160 -43q104 -17 104 -90q0 -78 -66 -131q-242 -194 -516 -194q-171 0 -265.5 78.5t-94.5 224.5q0 174 149 323q17 17 31 17t14 -21q0 4 -59 -85t-59 -175q0 -89 83 -160q87 -73 205 -73
q164 0 329 62q145 54 145 85q0 16 -76 25q-105 13 -141 25q-76 25 -76 81q0 101 138.5 188t301.5 87h26q139 0 205 115q19 32 30 32q21 0 21 -16q0 -6 -3 -24t-3 -28q0 -84 115 -84q77 0 128 45q31 27 60 81q23 44 33 44q23 0 20 -22l-10 -74q0 -23 42.5 -46t92.5 -23
q43 0 88.5 77.5t57.5 77.5q22 0 22 -18q0 -2 -7 -22.5t-7 -39.5q0 -75 94 -75h59v-152h-43q-55 0 -106.5 26t-73.5 64q-59 -90 -129 -90q-85 0 -166 86q-69 -86 -190 -86t-156 113q-61 -107 -199 -113h-1zM1628 629l-80 -80l-80 80l80 80zM1833 629l-80 -80l-80 80l80 80z
" />
    <glyph glyph-name="uniFD1A" unicode="&#xfeb8;&#xfef2;" horiz-adv-x="2113" arabic-form="final" 
d="M623 -745l-90 -91l-90 91l90 90zM414 -745l-90 -91l-90 91l90 90zM1730 791l-80 -80l-79 80l79 79zM1049 0q-133 0 -227 -27q-80 -23 -80 -45q0 -16 160 -43q104 -17 104 -90q0 -78 -66 -131q-242 -194 -516 -194q-171 0 -265.5 78.5t-94.5 224.5q0 174 149 323
q17 17 31 17t14 -21q0 4 -59 -85t-59 -175q0 -89 83 -160q87 -73 205 -73q164 0 329 62q145 54 145 85q0 16 -76 25q-105 13 -141 25q-76 25 -76 81q0 101 138.5 188t301.5 87h26q139 0 205 115q19 32 30 32q21 0 21 -16q0 -6 -3 -24t-3 -28q0 -84 115 -84q77 0 128 45
q31 27 60 81q23 44 33 44q23 0 20 -22l-10 -74q0 -23 42.5 -46t92.5 -23q43 0 88.5 77.5t57.5 77.5q22 0 22 -18q0 -2 -7 -22.5t-7 -39.5q0 -75 94 -75h59v-152h-43q-55 0 -106.5 26t-73.5 64q-59 -90 -129 -90q-85 0 -166 86q-69 -86 -190 -86t-156 113q-61 -107 -199 -113
h-1zM1628 629l-80 -80l-80 80l80 80zM1833 629l-80 -80l-80 80l80 80z" />
    <glyph glyph-name="uniFD21" unicode="&#xfebc;&#xfef0;" horiz-adv-x="2261" arabic-form="final" 
d="M2056 330q0 29 -57.5 52.5t-118.5 23.5q-146 0 -420 -275h51q146 0 345.5 72.5t199.5 126.5zM1049 0q-133 0 -227 -27q-80 -23 -80 -45q0 -16 160 -43q104 -17 104 -90q0 -78 -66 -131q-242 -194 -516 -194q-171 0 -265.5 78.5t-94.5 224.5q0 174 149 323q17 17 31 17
t14 -21q0 4 -59 -85t-59 -175q0 -89 83 -160q87 -73 205 -73q164 0 329 62q145 54 145 85q0 16 -76 25q-105 13 -141 25q-76 25 -76 81q0 101 138.5 188t301.5 87h18q74 0 129.5 58t52.5 58q12 0 21 -20q40 -103 114 -103q393 394 580 394q70 0 133 -41.5t63 -91.5
q0 -53 -47 -128q-53 -81 -139 -147q35 0 123 10.5t164 10.5v-152q-84 0 -202.5 -3t-156.5 -3q-183 0 -229 10q-111 -24 -190 -24q-115 0 -172 43q-46 35 -78 122q-66 -136 -183 -145h-1z" />
    <glyph glyph-name="uniFD22" unicode="&#xfebc;&#xfef2;" horiz-adv-x="2261" arabic-form="final" 
d="M623 -745l-90 -91l-90 91l90 90zM414 -745l-90 -91l-90 91l90 90zM2056 330q0 29 -57.5 52.5t-118.5 23.5q-146 0 -420 -275h51q146 0 345.5 72.5t199.5 126.5zM1049 0q-133 0 -227 -27q-80 -23 -80 -45q0 -16 160 -43q104 -17 104 -90q0 -78 -66 -131
q-242 -194 -516 -194q-171 0 -265.5 78.5t-94.5 224.5q0 174 149 323q17 17 31 17t14 -21q0 4 -59 -85t-59 -175q0 -89 83 -160q87 -73 205 -73q164 0 329 62q145 54 145 85q0 16 -76 25q-105 13 -141 25q-76 25 -76 81q0 101 138.5 188t301.5 87h18q74 0 129.5 58t52.5 58
q12 0 21 -20q40 -103 114 -103q393 394 580 394q70 0 133 -41.5t63 -91.5q0 -53 -47 -128q-53 -81 -139 -147q35 0 123 10.5t164 10.5v-152q-84 0 -202.5 -3t-156.5 -3q-183 0 -229 10q-111 -24 -190 -24q-115 0 -172 43q-46 35 -78 122q-66 -136 -183 -145h-1z" />
    <glyph glyph-name="uniFD23" unicode="&#xfec0;&#xfef0;" horiz-adv-x="2261" arabic-form="final" 
d="M2056 330q0 29 -57.5 52.5t-118.5 23.5q-146 0 -420 -275h51q146 0 345.5 72.5t199.5 126.5zM1691 788l-108 -108l-109 108l109 109zM1049 0q-133 0 -227 -27q-80 -23 -80 -45q0 -16 160 -43q104 -17 104 -90q0 -78 -66 -131q-242 -194 -516 -194q-171 0 -265.5 78.5
t-94.5 224.5q0 174 149 323q17 17 31 17t14 -21q0 4 -59 -85t-59 -175q0 -89 83 -160q87 -73 205 -73q164 0 329 62q145 54 145 85q0 16 -76 25q-105 13 -141 25q-76 25 -76 81q0 101 138.5 188t301.5 87h18q74 0 129.5 58t52.5 58q12 0 21 -20q40 -103 114 -103
q393 394 580 394q70 0 133 -41.5t63 -91.5q0 -53 -47 -128q-53 -81 -139 -147q35 0 123 10.5t164 10.5v-152q-84 0 -202.5 -3t-156.5 -3q-183 0 -229 10q-111 -24 -190 -24q-115 0 -172 43q-46 35 -78 122q-66 -136 -183 -145h-1z" />
    <glyph glyph-name="uniFD24" unicode="&#xfec0;&#xfef2;" horiz-adv-x="2261" arabic-form="final" 
d="M623 -745l-90 -91l-90 91l90 90zM414 -745l-90 -91l-90 91l90 90zM2056 330q0 29 -57.5 52.5t-118.5 23.5q-146 0 -420 -275h51q146 0 345.5 72.5t199.5 126.5zM1691 788l-108 -108l-109 108l109 109zM1049 0q-133 0 -227 -27q-80 -23 -80 -45q0 -16 160 -43
q104 -17 104 -90q0 -78 -66 -131q-242 -194 -516 -194q-171 0 -265.5 78.5t-94.5 224.5q0 174 149 323q17 17 31 17t14 -21q0 4 -59 -85t-59 -175q0 -89 83 -160q87 -73 205 -73q164 0 329 62q145 54 145 85q0 16 -76 25q-105 13 -141 25q-76 25 -76 81q0 101 138.5 188
t301.5 87h18q74 0 129.5 58t52.5 58q12 0 21 -20q40 -103 114 -103q393 394 580 394q70 0 133 -41.5t63 -91.5q0 -53 -47 -128q-53 -81 -139 -147q35 0 123 10.5t164 10.5v-152q-84 0 -202.5 -3t-156.5 -3q-183 0 -229 10q-111 -24 -190 -24q-115 0 -172 43q-46 35 -78 122
q-66 -136 -183 -145h-1z" />
    <glyph glyph-name="uniFD29" unicode="&#xfeb8;&#xfeae;" horiz-adv-x="1783" arabic-form="final" 
d="M1400 791l-80 -80l-79 80l79 79zM660 0q-73 -236 -196 -357q-110 -108 -240 -108q-52 0 -105 25q-135 63 -135 94q0 18 18 18q6 0 50 -9t92 -9q132 0 271 113q134 109 190 251q-105 53 -105 86l23 113q2 14 10 14q-1 0 58.5 -39.5t107.5 -39.5h46q139 0 205 115
q19 32 30 32q21 0 21 -16q0 -6 -3 -24t-3 -28q0 -84 115 -84q77 0 128 45q31 27 60 81q23 44 33 44q23 0 20 -22l-10 -74q0 -23 42.5 -46t92.5 -23q43 0 88.5 77.5t57.5 77.5q22 0 22 -18q0 -2 -7 -22.5t-7 -39.5q0 -75 94 -75h59v-152h-43q-55 0 -106.5 26t-73.5 64
q-59 -90 -129 -90q-85 0 -166 86q-69 -86 -190 -86t-156 113q-61 -107 -198 -113h-61zM1298 629l-80 -80l-80 80l80 80zM1503 629l-80 -80l-80 80l80 80z" />
    <glyph glyph-name="uniFD2A" unicode="&#xfeb4;&#xfeae;" horiz-adv-x="1783" arabic-form="final" 
d="M660 0q-73 -236 -196 -357q-110 -108 -240 -108q-52 0 -105 25q-135 63 -135 94q0 18 18 18q6 0 50 -9t92 -9q132 0 271 113q134 109 190 251q-105 53 -105 86l23 113q2 14 10 14q-1 0 58.5 -39.5t107.5 -39.5h46q139 0 205 115q19 32 30 32q21 0 21 -16q0 -6 -3 -24
t-3 -28q0 -84 115 -84q77 0 128 45q31 27 60 81q23 44 33 44q23 0 20 -22l-10 -74q0 -23 42.5 -46t92.5 -23q43 0 88.5 77.5t57.5 77.5q22 0 22 -18q0 -2 -7 -22.5t-7 -39.5q0 -75 94 -75h59v-152h-43q-55 0 -106.5 26t-73.5 64q-59 -90 -129 -90q-85 0 -166 86
q-69 -86 -190 -86t-156 113q-61 -107 -198 -113h-61z" />
    <glyph glyph-name="uniFD2B" unicode="&#xfebc;&#xfeae;" horiz-adv-x="1931" arabic-form="final" 
d="M1726 330q0 29 -57.5 52.5t-118.5 23.5q-146 0 -420 -275h51q146 0 345.5 72.5t199.5 126.5zM660 0q-73 -236 -196 -357q-110 -108 -240 -108q-52 0 -105 25q-135 63 -135 94q0 18 18 18q6 0 50 -9t92 -9q132 0 271 113q134 109 190 251q-105 53 -105 86l23 113
q2 14 10 14q-1 0 58.5 -39.5t107.5 -39.5h38q74 0 129.5 58t52.5 58q12 0 21 -20q40 -103 114 -103q393 394 580 394q70 0 133 -41.5t63 -91.5q0 -53 -47 -128q-53 -81 -139 -147q35 0 123 10.5t164 10.5v-152q-84 0 -202.5 -3t-156.5 -3q-183 0 -229 10q-111 -24 -190 -24
q-115 0 -172 43q-46 35 -78 122q-66 -135 -182 -145h-61z" />
    <glyph glyph-name="uniFD2C" unicode="&#xfec0;&#xfeae;" horiz-adv-x="1931" arabic-form="final" 
d="M1726 330q0 29 -57.5 52.5t-118.5 23.5q-146 0 -420 -275h51q146 0 345.5 72.5t199.5 126.5zM1361 788l-108 -108l-109 108l109 109zM660 0q-73 -236 -196 -357q-110 -108 -240 -108q-52 0 -105 25q-135 63 -135 94q0 18 18 18q6 0 50 -9t92 -9q132 0 271 113
q134 109 190 251q-105 53 -105 86l23 113q2 14 10 14q-1 0 58.5 -39.5t107.5 -39.5h38q74 0 129.5 58t52.5 58q12 0 21 -20q40 -103 114 -103q393 394 580 394q70 0 133 -41.5t63 -91.5q0 -53 -47 -128q-53 -81 -139 -147q35 0 123 10.5t164 10.5v-152q-84 0 -202.5 -3
t-156.5 -3q-183 0 -229 10q-111 -24 -190 -24q-115 0 -172 43q-46 35 -78 122q-66 -135 -182 -145h-61z" />
    <glyph glyph-name="uniFEF5" unicode="&#xfedf;&#xfe82;" arabic-form="isolated" 
d="M957 981q0 -10 -62 -133l-22 10q0 -94 -27 -231q-32 -162 -84 -277q88 -144 88 -235q0 -70 -20.5 -98.5t-71.5 -34.5q-138 -19 -258 -19q-92 0 -92 51v62q0 43 22 43q2 0 14 -5t27 -5q77 0 211 217q-69 102 -201 247t-208 203q-29 -28 -53 -28q-31 0 -142 69
q-43 27 -43 105q0 114 39 114q89 0 273 -175q196 -186 374 -458q27 57 50 214q26 170 26 325q-25 25 -25 43q0 16 40 100t53 84q18 0 18 -28q0 -7 -3 -24.5t-3 -26.5q0 -50 55 -84q25 -13 25 -25zM533 1354q0 -34 -68 -89q-82 -65 -180 -65q-113 0 -172 49q-52 -94 -78 -94
q-16 0 -16 19q0 17 100 180q95 -68 189 -68q70 0 141 43q66 40 65 43q19 -1 19 -18zM799 143q0 35 -78 133q-51 -87 -125 -167q203 11 203 34z" />
    <glyph glyph-name="uniFEF6" unicode="&#xfee0;&#xfe82;" arabic-form="final" 
d="M1063 0q-175 0 -219 180q-24 99 -61 441q-53 -345 -162 -498q-85 -118 -250 -170q-137 -43 -235 -43q-29 0 -29 18q0 17 43 29q115 33 251 122q152 100 208 195q0 242 -351 521q-49 -37 -75 -37q-27 0 -94.5 58.5t-67.5 88.5q0 33 16 80q19 57 43 57q44 0 151 -76
q115 -80 222 -194q188 -199 188 -440q91 180 91 512q0 50 -5.5 95t-5.5 46q74 170 84 170q9 0 26 -194q26 -303 71 -601q18 -124 55 -169q33 -39 106 -39v-152zM533 1354q0 -34 -68 -89q-82 -65 -180 -65q-113 0 -172 49q-52 -94 -78 -94q-16 0 -16 19q0 17 100 180
q95 -68 189 -68q70 0 141 43q66 40 65 43q19 -1 19 -18z" />
    <glyph glyph-name="uniFEF7" unicode="&#xfedf;&#xfe84;" arabic-form="isolated" 
d="M957 981q0 -9 -62 -133l-22 10q0 -95 -27 -231q-31 -161 -84 -277q88 -143 88 -235q0 -35 -5 -59t-15.5 -39.5t-28.5 -23.5t-43 -11q-69 -10 -133.5 -14.5t-124.5 -4.5q-92 0 -92 51v62q0 43 22 43q2 0 14 -5t27 -5q78 0 211 217q-68 100 -201 247q-66 73 -118 123.5
t-90 79.5q-28 -28 -53 -28q-31 0 -142 69q-43 27 -43 105q0 114 39 114q89 0 273 -175q99 -94 191.5 -207.5t182.5 -250.5q28 59 50 214q13 85 19.5 166t6.5 159q-25 25 -25 43q0 17 40 100q40 84 53 84q18 0 18 -28q0 -7 -3 -24.5t-3 -26.5q0 -50 55 -84q25 -13 25 -25z
M799 143q0 35 -78 133q-51 -87 -125 -167q203 11 203 34zM324 1302q0 -6 -1.5 -15.5t-5 -19t-11 -16.5t-19.5 -8t-34 -2.5t-48 -6.5t-54.5 -14.5t-55.5 -27.5q-8 -5 -21.5 -16.5t-24.5 -11.5q-9 0 -9 15q0 11 10.5 30t40.5 50q-59 33 -59 76q0 16 9 34t32 38q85 73 141 73
q30 0 45 -16t15 -32q0 -10 -5 -19t-12.5 -15.5t-16 -10t-14.5 -3.5q-5 0 -11.5 4t-14 8.5t-16.5 8.5t-19 4q-23 0 -38 -10t-15 -28q0 -9 6.5 -20t18 -20.5t27 -15.5t33.5 -6q9 0 25.5 1t34 2.5t32 3t18.5 1.5q17 0 17 -15z" />
    <glyph glyph-name="uniFEF8" unicode="&#xfee0;&#xfe84;" arabic-form="final" 
d="M1063 0q-176 0 -219 180q-12 50 -27 159.5t-34 281.5q-53 -345 -162 -498q-85 -117 -250 -170q-135 -43 -235 -43q-29 0 -29 18q0 17 43 29q58 17 120 47t131 75q153 102 208 195q0 242 -351 521q-49 -37 -75 -37q-28 0 -95 58t-67 89q0 35 16 80q19 57 43 57
q45 0 151 -76q114 -79 222 -194q188 -200 188 -440q91 179 91 512q0 50 -6 95q-2 23 -3.5 34t-1.5 12q74 170 84 170q9 0 26 -194q13 -152 30.5 -301.5t40.5 -299.5q18 -125 55 -169q33 -39 106 -39v-152zM324 1302q0 -6 -1.5 -15.5t-5 -19t-11 -16.5t-19.5 -8t-34 -2.5
t-48 -6.5t-54.5 -14.5t-55.5 -27.5q-8 -5 -21.5 -16.5t-24.5 -11.5q-9 0 -9 15q0 11 10.5 30t40.5 50q-59 33 -59 76q0 16 9 34t32 38q85 73 141 73q30 0 45 -16t15 -32q0 -10 -5 -19t-12.5 -15.5t-16 -10t-14.5 -3.5q-5 0 -11.5 4t-14 8.5t-16.5 8.5t-19 4q-23 0 -38 -10
t-15 -28q0 -9 6.5 -20t18 -20.5t27 -15.5t33.5 -6q9 0 25.5 1t34 2.5t32 3t18.5 1.5q17 0 17 -15z" />
    <glyph glyph-name="uniFEF9" unicode="&#xfedf;&#xfe88;" arabic-form="isolated" 
d="M957 981q0 -9 -62 -133l-22 10q0 -95 -27 -231q-31 -161 -84 -277q88 -143 88 -235q0 -35 -5 -59t-15.5 -39.5t-28.5 -23.5t-43 -11q-69 -10 -133.5 -14.5t-124.5 -4.5q-92 0 -92 51v62q0 43 22 43q2 0 14 -5t27 -5q78 0 211 217q-68 100 -201 247q-66 73 -118 123.5
t-90 79.5q-28 -28 -53 -28q-31 0 -142 69q-43 27 -43 105q0 114 39 114q89 0 273 -175q99 -94 191.5 -207.5t182.5 -250.5q28 59 50 214q13 85 19.5 166t6.5 159q-25 25 -25 43q0 17 40 100q40 84 53 84q18 0 18 -28q0 -7 -3 -24.5t-3 -26.5q0 -50 55 -84q25 -13 25 -25z
M799 143q0 35 -78 133q-51 -87 -125 -167q203 11 203 34zM466 -315q0 -6 -1.5 -15.5t-5 -19t-11 -16.5t-19.5 -8t-34 -2.5t-48 -6.5t-54.5 -14.5t-55.5 -27.5q-8 -5 -21.5 -16.5t-24.5 -11.5q-9 0 -9 15q0 11 10.5 30t40.5 50q-59 33 -59 76q0 16 9 34t32 38q85 73 141 73
q30 0 45 -16t15 -32q0 -10 -5 -19t-12.5 -15.5t-16 -10t-14.5 -3.5q-5 0 -11.5 4t-14 8.5t-16.5 8.5t-19 4q-23 0 -38 -10t-15 -28q0 -9 6.5 -20t18 -20.5t27 -15.5t33.5 -6q9 0 25.5 1t34 2.5t32 3t18.5 1.5q17 0 17 -15z" />
    <glyph glyph-name="uniFEFA" unicode="&#xfee0;&#xfe88;" arabic-form="final" 
d="M1063 0q-176 0 -219 180q-12 50 -27 159.5t-34 281.5q-53 -345 -162 -498q-85 -117 -250 -170q-135 -43 -235 -43q-29 0 -29 18q0 17 43 29q58 17 120 47t131 75q153 102 208 195q0 242 -351 521q-49 -37 -75 -37q-28 0 -95 58t-67 89q0 35 16 80q19 57 43 57
q45 0 151 -76q114 -79 222 -194q188 -200 188 -440q91 179 91 512q0 50 -6 95q-2 23 -3.5 34t-1.5 12q74 170 84 170q9 0 26 -194q13 -152 30.5 -301.5t40.5 -299.5q18 -125 55 -169q33 -39 106 -39v-152zM397 -370q0 -6 -1.5 -15.5t-5 -19t-11 -16.5t-19.5 -8t-34 -2.5
t-48 -6.5t-54.5 -14.5t-55.5 -27.5q-8 -5 -21.5 -16.5t-24.5 -11.5q-9 0 -9 15q0 11 10.5 30t40.5 50q-59 33 -59 76q0 16 9 34t32 38q85 73 141 73q30 0 45 -16t15 -32q0 -10 -5 -19t-12.5 -15.5t-16 -10t-14.5 -3.5q-5 0 -11.5 4t-14 8.5t-16.5 8.5t-19 4q-23 0 -38 -10
t-15 -28q0 -9 6.5 -20t18 -20.5t27 -15.5t33.5 -6q9 0 25.5 1t34 2.5t32 3t18.5 1.5q17 0 17 -15z" />
    <glyph glyph-name="uniFEFB" unicode="&#xfedf;&#xfe8e;" arabic-form="isolated" 
d="M957 981q0 -10 -62 -133l-22 10q0 -94 -27 -231q-32 -162 -84 -277q88 -144 88 -235q0 -70 -20.5 -98.5t-71.5 -34.5q-138 -19 -258 -19q-92 0 -92 51v62q0 43 22 43q2 0 14 -5t27 -5q77 0 211 217q-69 102 -201 247t-208 203q-29 -28 -53 -28q-31 0 -142 69
q-43 27 -43 105q0 114 39 114q89 0 273 -175q196 -186 374 -458q27 57 50 214q26 170 26 325q-25 25 -25 43q0 16 40 100t53 84q18 0 18 -28q0 -7 -3 -24.5t-3 -26.5q0 -50 55 -84q25 -13 25 -25zM799 143q0 35 -78 133q-51 -87 -125 -167q203 11 203 34z" />
    <glyph glyph-name="uniFEFC" unicode="&#xfee0;&#xfe8e;" arabic-form="final" 
d="M1063 0q-175 0 -219 180q-24 99 -61 441q-53 -345 -162 -498q-85 -118 -250 -170q-137 -43 -235 -43q-29 0 -29 18q0 17 43 29q115 33 251 122q152 100 208 195q0 242 -351 521q-49 -37 -75 -37q-27 0 -94.5 58.5t-67.5 88.5q0 33 16 80q19 57 43 57q44 0 151 -76
q115 -80 222 -194q188 -199 188 -440q91 180 91 512q0 50 -5.5 95t-5.5 46q74 170 84 170q9 0 26 -194q26 -303 71 -601q18 -124 55 -169q33 -39 106 -39v-152z" />
    <glyph glyph-name="uniFE8B_uniFEE4.liga" unicode="&#xfe8b;&#xfee4;" horiz-adv-x="1194" 
d="M467 154q0 16 -10 30q-37 54 -57 98t-47 44q-25 0 -55 -32q-27 -28 -38 -56q0 -15 27 -35q29 -23 86 -47q52 -23 68 -23q26 0 26 21zM758 0q-126 0 -194 63q-20 -88 -60 -88q-99 0 -231 78q-56 33 -82 90q-73 -143 -162 -143h-29q-70 0 -70 76t70 76h35q88 0 211 165
q66 89 135 89q49 0 115 -94t110 -124q55 -36 152 -36h39q127 0 174 32q0 65 -65 142l45 104q4 10 10 10t16 -16q60 -92 60 -164q0 -143 -62 -205q-20 -21 -81 -41q-57 -13 -88 -13.5t-48 -0.5zM1112 761q0 -6 -1.5 -15.5t-5 -19t-11 -16.5t-19.5 -8t-34 -2.5t-48 -6.5
t-54.5 -14.5t-55.5 -27.5q-8 -5 -21.5 -16.5t-24.5 -11.5q-9 0 -9 15q0 11 10.5 30t40.5 50q-59 33 -59 76q0 16 9 34t32 38q85 73 141 73q30 0 45 -16t15 -32q0 -10 -5 -19t-12.5 -15.5t-16 -10t-14.5 -3.5q-5 0 -11.5 4t-14 8.5t-16.5 8.5t-19 4q-23 0 -38 -10t-15 -28
q0 -9 6.5 -20t18 -20.5t27 -15.5t33.5 -6q9 0 25.5 1t34 2.5t32 3t18.5 1.5q17 0 17 -15z" />
    <glyph glyph-name="uniFE8B_uniFEF0.liga" unicode="&#xfe8b;&#xfef0;" horiz-adv-x="1491" 
d="M991 0q-75 0 -169 -27q-80 -23 -80 -45q0 -16 160 -43q104 -17 104 -90q0 -78 -66 -131q-242 -194 -516 -194q-171 0 -265.5 78.5t-94.5 224.5q0 174 149 323q17 17 31 17t14 -21q0 4 -59 -85t-59 -175q0 -89 83 -160q87 -73 205 -73q164 0 329 62q145 54 145 85
q0 16 -76 25q-105 13 -141 25q-76 25 -76 81q0 101 138.5 188t301.5 87h38q127 0 174 32q0 65 -65 142l45 104q4 10 10 10t16 -16q60 -92 60 -164q0 -143 -62 -205q-36 -30 -84.5 -40.5t-81.5 -12.5q-14 -1 -34 -1q-30 -1 -74 -1zM1402 761q0 -6 -1.5 -15.5t-5 -19
t-11 -16.5t-19.5 -8t-34 -2.5t-48 -6.5t-54.5 -14.5t-55.5 -27.5q-8 -5 -21.5 -16.5t-24.5 -11.5q-9 0 -9 15q0 11 10.5 30t40.5 50q-59 33 -59 76q0 16 9 34t32 38q85 73 141 73q30 0 45 -16t15 -32q0 -10 -5 -19t-12.5 -15.5t-16 -10t-14.5 -3.5q-5 0 -11.5 4t-14 8.5
t-16.5 8.5t-19 4q-23 0 -38 -10t-15 -28q0 -9 6.5 -20t18 -20.5t27 -15.5t33.5 -6q9 0 25.5 1t34 2.5t32 3t18.5 1.5q17 0 17 -15z" />
    <glyph glyph-name="uniFE8B_uniFEF2.liga" unicode="&#xfe8b;&#xfef2;" horiz-adv-x="1491" 
d="M623 -745l-90 -91l-90 91l90 90zM414 -745l-90 -91l-90 91l90 90zM991 0q-75 0 -169 -27q-80 -23 -80 -45q0 -16 160 -43q104 -17 104 -90q0 -78 -66 -131q-242 -194 -516 -194q-171 0 -265.5 78.5t-94.5 224.5q0 174 149 323q17 17 31 17t14 -21q0 4 -59 -85t-59 -175
q0 -89 83 -160q87 -73 205 -73q164 0 329 62q145 54 145 85q0 16 -76 25q-105 13 -141 25q-76 25 -76 81q0 101 138.5 188t301.5 87h38q127 0 174 32q0 65 -65 142l45 104q4 10 10 10t16 -16q60 -92 60 -164q0 -143 -62 -205q-36 -30 -84.5 -40.5t-81.5 -12.5q-14 -1 -34 -1
q-30 -1 -74 -1zM1402 761q0 -6 -1.5 -15.5t-5 -19t-11 -16.5t-19.5 -8t-34 -2.5t-48 -6.5t-54.5 -14.5t-55.5 -27.5q-8 -5 -21.5 -16.5t-24.5 -11.5q-9 0 -9 15q0 11 10.5 30t40.5 50q-59 33 -59 76q0 16 9 34t32 38q85 73 141 73q30 0 45 -16t15 -32q0 -10 -5 -19
t-12.5 -15.5t-16 -10t-14.5 -3.5q-5 0 -11.5 4t-14 8.5t-16.5 8.5t-19 4q-23 0 -38 -10t-15 -28q0 -9 6.5 -20t18 -20.5t27 -15.5t33.5 -6q9 0 25.5 1t34 2.5t32 3t18.5 1.5q17 0 17 -15z" />
    <glyph glyph-name="uniFE91_uniFEE4.liga" unicode="&#xfe91;&#xfee4;" horiz-adv-x="1149" 
d="M1037 -253l-108 -109l-109 109l109 109zM467 154q0 16 -10 30q-37 54 -57 98t-47 44q-25 0 -55 -32q-27 -28 -38 -56q0 -15 27 -35q29 -23 86 -47q52 -23 68 -23q26 0 26 21zM758 0q-126 0 -194 63q-20 -88 -60 -88q-99 0 -231 78q-56 33 -82 90q-73 -143 -162 -143h-29
q-70 0 -70 76t70 76h35q88 0 211 165q66 89 135 89q49 0 115 -94t110 -124q55 -36 152 -36h39q128 0 174 32q0 65 -65 142l45 104q4 10 10 10t16 -16q60 -91 60 -164q0 -143 -62 -205q-44 -35 -118 -46q-52 -9 -99 -9z" />
    <glyph glyph-name="uniFE92_uniFEE6.liga" unicode="&#xfe92;&#xfee6;" horiz-adv-x="1505" 
d="M627 530l-108 -108l-109 108l109 109zM1388 -263l-108 -109l-109 109l109 109zM998 0q-46 0 -78 18q0 -151 -62 -251q-40 -66 -138 -127q-139 -84 -306 -84q-196 0 -286 101q-64 71 -64 173q0 108 50 215q43 92 67 92q20 0 20 -20q0 -1 -30.5 -73t-30.5 -126
q0 -217 313 -217q277 0 401 141q0 173 -79 314l53 127q9 0 76 -99q22 -32 73 -32h128q126 0 185 133q18 41 41 41q16 0 16 -15q0 -2 -5 -21.5t-5 -39.5q0 -98 168 -98v-152h-49q-51 0 -108 35q-67 40 -81 96q-62 -124 -207 -131h-62z" />
    <glyph glyph-name="uniFE91_uniFEF0.liga" unicode="&#xfe91;&#xfef0;" horiz-adv-x="1438" 
d="M1006 0q-90 0 -184 -27q-80 -23 -80 -45q0 -16 160 -43q104 -17 104 -90q0 -78 -66 -131q-242 -194 -516 -194q-171 0 -265.5 78.5t-94.5 224.5q0 174 149 323q17 17 31 17t14 -21q0 4 -59 -85t-59 -175q0 -89 83 -160q87 -73 205 -73q164 0 329 62q145 54 145 85
q0 16 -76 25q-105 13 -141 25q-76 25 -76 81q0 101 138.5 188t301.5 87h38q128 0 174 32q0 65 -65 142l45 104q4 10 10 10t16 -16q60 -91 60 -164q0 -143 -62 -205q-42 -34 -106 -44q-29 -5 -64 -8q-41 -3 -89 -3zM1327 -253l-108 -109l-109 109l109 109z" />
    <glyph glyph-name="uniFE91_uniFEF2.liga" unicode="&#xfe91;&#xfef2;" horiz-adv-x="1438" 
d="M623 -745l-90 -91l-90 91l90 90zM414 -745l-90 -91l-90 91l90 90zM1006 0q-90 0 -184 -27q-80 -23 -80 -45q0 -16 160 -43q104 -17 104 -90q0 -78 -66 -131q-242 -194 -516 -194q-171 0 -265.5 78.5t-94.5 224.5q0 174 149 323q17 17 31 17t14 -21q0 4 -59 -85t-59 -175
q0 -89 83 -160q87 -73 205 -73q164 0 329 62q145 54 145 85q0 16 -76 25q-105 13 -141 25q-76 25 -76 81q0 101 138.5 188t301.5 87h38q128 0 174 32q0 65 -65 142l45 104q4 10 10 10t16 -16q60 -91 60 -164q0 -143 -62 -205q-42 -34 -106 -44q-29 -5 -64 -8q-41 -3 -89 -3z
M1327 -253l-108 -109l-109 109l109 109z" />
    <glyph glyph-name="uniFE97_uniFEE4.liga" unicode="&#xfe97;&#xfee4;" horiz-adv-x="1153" 
d="M467 154q0 16 -10 30q-37 54 -57 98t-47 44q-25 0 -55 -32q-27 -28 -38 -56q0 -15 27 -35q29 -23 86 -47q52 -23 68 -23q26 0 26 21zM758 0q-126 0 -194 63q-20 -88 -60 -88q-99 0 -231 78q-56 33 -82 90q-73 -143 -162 -143h-29q-70 0 -70 76t70 76h35q88 0 211 165
q66 89 135 89q49 0 115 -94t110 -124q55 -36 152 -36h39q128 0 174 32q0 65 -65 142l45 104q4 10 10 10t16 -16q60 -91 60 -164q0 -143 -62 -205q-45 -37 -100 -46q-28 -5 -56 -7q-14 -1 -29 -2h-32zM861 750l-80 -80l-80 80l80 79zM1065 750l-79 -80l-80 80l80 79z" />
    <glyph glyph-name="uniFE98_uniFEE6.liga" unicode="&#xfe98;&#xfee6;" horiz-adv-x="1495" 
d="M627 530l-108 -108l-109 108l109 109zM1055 0h-57q-46 0 -78 18q0 -151 -62 -251q-40 -66 -138 -127q-139 -84 -306 -84q-196 0 -286 101q-64 71 -64 173q0 108 50 215q43 92 67 92q20 0 20 -20q0 -1 -30.5 -73t-30.5 -126q0 -217 313 -217q277 0 401 141q0 173 -79 314
l53 127q9 0 76 -99q22 -32 73 -32h118q126 0 185 133q18 41 41 41q16 0 16 -15q0 -2 -5 -21.5t-5 -39.5q0 -98 168 -98v-152h-49q-51 0 -108 35q-67 40 -81 96q-61 -122 -202 -131zM1231 629l-80 -80l-80 80l80 80zM1435 629l-79 -80l-80 80l80 80z" />
    <glyph glyph-name="uniFE97_uniFEF0.liga" unicode="&#xfe97;&#xfef0;" horiz-adv-x="1495" 
d="M1049 0q-133 0 -227 -27q-80 -23 -80 -45q0 -16 160 -43q104 -17 104 -90q0 -78 -66 -131q-242 -194 -516 -194q-171 0 -265.5 78.5t-94.5 224.5q0 174 149 323q17 17 31 17t14 -21q0 4 -59 -85t-59 -175q0 -89 83 -160q87 -73 205 -73q164 0 329 62q145 54 145 85
q0 16 -76 25q-105 13 -141 25q-76 25 -76 81q0 101 138.5 188t301.5 87h38q128 0 174 32q0 65 -65 142l45 104q4 10 10 10t16 -16q60 -91 60 -164q0 -143 -62 -205q-49 -39 -109.5 -47t-106.5 -8zM1231 750l-80 -80l-80 80l80 79zM1435 750l-79 -80l-80 80l80 79z" />
    <glyph glyph-name="uniFE97_uniFEF2.liga" unicode="&#xfe97;&#xfef2;" horiz-adv-x="1495" 
d="M623 -745l-90 -91l-90 91l90 90zM414 -745l-90 -91l-90 91l90 90zM1049 0q-133 0 -227 -27q-80 -23 -80 -45q0 -16 160 -43q104 -17 104 -90q0 -78 -66 -131q-242 -194 -516 -194q-171 0 -265.5 78.5t-94.5 224.5q0 174 149 323q17 17 31 17t14 -21q0 4 -59 -85t-59 -175
q0 -89 83 -160q87 -73 205 -73q164 0 329 62q145 54 145 85q0 16 -76 25q-105 13 -141 25q-76 25 -76 81q0 101 138.5 188t301.5 87h38q128 0 174 32q0 65 -65 142l45 104q4 10 10 10t16 -16q60 -91 60 -164q0 -143 -62 -205q-49 -39 -109.5 -47t-106.5 -8zM1231 750
l-80 -80l-80 80l80 79zM1435 750l-79 -80l-80 80l80 79z" />
    <glyph glyph-name="uniFE9C_uniFEAE.liga" unicode="&#xfe9c;&#xfeae;" horiz-adv-x="1165" 
d="M1003 791l-80 -80l-80 80l80 79zM1105 629l-79 -80l-80 80l80 80zM901 629l-80 -80l-80 80l80 80zM660 0q-73 -236 -196 -357q-110 -108 -240 -108q-52 0 -105 25q-135 63 -135 94q0 18 18 18q6 0 50 -9t92 -9q132 0 271 113q134 109 190 251q-105 53 -105 86l23 113
q2 14 10 14q-1 0 58.5 -39.5t107.5 -39.5h66q126 0 185 133q18 41 41 41q16 0 16 -15q0 -2 -5 -21.5t-5 -39.5q0 -98 168 -98v-152h-49q-51 0 -108 35q-67 40 -81 96q-62 -124 -206 -131h-61z" />
    <glyph glyph-name="uniFE9B_uniFEE4.liga" unicode="&#xfe9b;&#xfee4;" horiz-adv-x="1153" 
d="M467 154q0 16 -10 30q-37 54 -57 98t-47 44q-25 0 -55 -32q-27 -28 -38 -56q0 -15 27 -35q29 -23 86 -47q52 -23 68 -23q26 0 26 21zM963 911l-80 -80l-80 80l80 80zM758 0q-126 0 -194 63q-20 -88 -60 -88q-99 0 -231 78q-56 33 -82 90q-73 -143 -162 -143h-29
q-70 0 -70 76t70 76h35q88 0 211 165q66 89 135 89q49 0 115 -94t110 -124q55 -36 152 -36h39q128 0 174 32q0 65 -65 142l45 104q4 10 10 10t16 -16q60 -91 60 -164q0 -143 -62 -205q-45 -37 -100 -46q-28 -5 -56 -7q-14 -1 -29 -2h-32zM861 750l-80 -80l-80 80l80 79z
M1065 750l-79 -80l-80 80l80 79z" />
    <glyph glyph-name="uniFE9C_uniFEE6.liga" unicode="&#xfe9c;&#xfee6;" horiz-adv-x="1495" 
d="M627 530l-108 -108l-109 108l109 109zM1055 0h-57q-46 0 -78 18q0 -151 -62 -251q-40 -66 -138 -127q-139 -84 -306 -84q-196 0 -286 101q-64 71 -64 173q0 108 50 215q43 92 67 92q20 0 20 -20q0 -1 -30.5 -73t-30.5 -126q0 -217 313 -217q277 0 401 141q0 173 -79 314
l53 127q9 0 76 -99q22 -32 73 -32h118q126 0 185 133q18 41 41 41q16 0 16 -15q0 -2 -5 -21.5t-5 -39.5q0 -98 168 -98v-152h-49q-51 0 -108 35q-67 40 -81 96q-61 -122 -202 -131zM1231 629l-80 -80l-80 80l80 80zM1435 629l-79 -80l-80 80l80 80zM1333 791l-80 -80l-80 80
l80 79z" />
    <glyph glyph-name="uniFE9B_uniFEF0.liga" unicode="&#xfe9b;&#xfef0;" horiz-adv-x="1495" 
d="M1333 911l-80 -80l-80 80l80 80zM1049 0q-133 0 -227 -27q-80 -23 -80 -45q0 -16 160 -43q104 -17 104 -90q0 -78 -66 -131q-242 -194 -516 -194q-171 0 -265.5 78.5t-94.5 224.5q0 174 149 323q17 17 31 17t14 -21q0 4 -59 -85t-59 -175q0 -89 83 -160q87 -73 205 -73
q164 0 329 62q145 54 145 85q0 16 -76 25q-105 13 -141 25q-76 25 -76 81q0 101 138.5 188t301.5 87h38q128 0 174 32q0 65 -65 142l45 104q4 10 10 10t16 -16q60 -91 60 -164q0 -143 -62 -205q-49 -39 -109.5 -47t-106.5 -8zM1231 750l-80 -80l-80 80l80 79zM1435 750
l-79 -80l-80 80l80 79z" />
    <glyph glyph-name="uniFE9B_uniFEF2.liga" unicode="&#xfe9b;&#xfef2;" horiz-adv-x="1495" 
d="M623 -745l-90 -91l-90 91l90 90zM414 -745l-90 -91l-90 91l90 90zM1333 911l-80 -80l-80 80l80 80zM1049 0q-133 0 -227 -27q-80 -23 -80 -45q0 -16 160 -43q104 -17 104 -90q0 -78 -66 -131q-242 -194 -516 -194q-171 0 -265.5 78.5t-94.5 224.5q0 174 149 323
q17 17 31 17t14 -21q0 4 -59 -85t-59 -175q0 -89 83 -160q87 -73 205 -73q164 0 329 62q145 54 145 85q0 16 -76 25q-105 13 -141 25q-76 25 -76 81q0 101 138.5 188t301.5 87h38q128 0 174 32q0 65 -65 142l45 104q4 10 10 10t16 -16q60 -91 60 -164q0 -143 -62 -205
q-49 -39 -109.5 -47t-106.5 -8zM1231 750l-80 -80l-80 80l80 79zM1435 750l-79 -80l-80 80l80 79z" />
    <glyph glyph-name="uniFEDB_uniFEF0.liga" unicode="&#xfedb;&#xfef0;" horiz-adv-x="1813" 
d="M1049 0q-133 0 -227 -27q-80 -23 -80 -45q0 -16 160 -43q104 -17 104 -90q0 -78 -66 -131q-242 -194 -516 -194q-171 0 -265.5 78.5t-94.5 224.5q0 174 149 323q17 17 31 17t14 -21q0 4 -59 -85t-59 -175q0 -89 83 -160q87 -73 205 -73q164 0 329 62q145 54 145 85
q0 16 -76 25q-105 13 -141 25q-76 25 -76 81q0 101 138.5 188t301.5 87h91q139 0 226 30q84 30 84 74q0 57 -79 136.5t-204 150.5q-62 35 -75 46q-29 24 -29 58v72q0 111 164 213q129 80 491 256l-25 -131q-243 -115 -405 -201q-182 -96 -182 -129q0 -25 46 -48
q82 -42 130 -79q215 -164 215 -328q0 -272 -418 -272h-30z" />
    <glyph glyph-name="uniFEDC_uniFEF0.liga" unicode="&#xfedc;&#xfef0;" horiz-adv-x="1960" 
d="M1049 0q-133 0 -227 -27q-80 -23 -80 -45q0 -16 160 -43q104 -17 104 -90q0 -78 -66 -131q-242 -194 -516 -194q-171 0 -265.5 78.5t-94.5 224.5q0 174 149 323q17 17 31 17t14 -21q0 4 -59 -85t-59 -175q0 -89 83 -160q87 -73 205 -73q164 0 329 62q145 54 145 85
q0 16 -76 25q-105 13 -141 25q-76 25 -76 81q0 101 138.5 188t301.5 87h83q318 0 318 122q0 108 -283 269q-62 35 -75 46q-29 24 -29 58v72q0 119 198 231q169 96 592 289l-28 -127q-459 -209 -614 -297q-105 -59 -105 -88q0 -25 75 -61q198 -96 283 -149q99 -62 195 -155
q217 -210 276 -210h25v-152q-62 0 -110 29q-54 32 -138 127q-135 151 -232 219q17 -38 17 -103q0 -272 -424 -272h-24z" />
    <glyph glyph-name="uniFEDB_uniFEF2.liga" unicode="&#xfedb;&#xfef2;" horiz-adv-x="1813" 
d="M623 -745l-90 -91l-90 91l90 90zM414 -745l-90 -91l-90 91l90 90zM1049 0q-133 0 -227 -27q-80 -23 -80 -45q0 -16 160 -43q104 -17 104 -90q0 -78 -66 -131q-242 -194 -516 -194q-171 0 -265.5 78.5t-94.5 224.5q0 174 149 323q17 17 31 17t14 -21q0 4 -59 -85t-59 -175
q0 -89 83 -160q87 -73 205 -73q164 0 329 62q145 54 145 85q0 16 -76 25q-105 13 -141 25q-76 25 -76 81q0 101 138.5 188t301.5 87h91q139 0 226 30q84 30 84 74q0 57 -79 136.5t-204 150.5q-62 35 -75 46q-29 24 -29 58v72q0 111 164 213q129 80 491 256l-25 -131
q-243 -115 -405 -201q-182 -96 -182 -129q0 -25 46 -48q82 -42 130 -79q215 -164 215 -328q0 -272 -418 -272h-30z" />
    <glyph glyph-name="uniFEDC_uniFEF2.liga" unicode="&#xfedc;&#xfef2;" horiz-adv-x="1960" 
d="M623 -745l-90 -91l-90 91l90 90zM414 -745l-90 -91l-90 91l90 90zM1049 0q-133 0 -227 -27q-80 -23 -80 -45q0 -16 160 -43q104 -17 104 -90q0 -78 -66 -131q-242 -194 -516 -194q-171 0 -265.5 78.5t-94.5 224.5q0 174 149 323q17 17 31 17t14 -21q0 4 -59 -85t-59 -175
q0 -89 83 -160q87 -73 205 -73q164 0 329 62q145 54 145 85q0 16 -76 25q-105 13 -141 25q-76 25 -76 81q0 101 138.5 188t301.5 87h83q318 0 318 122q0 108 -283 269q-62 35 -75 46q-29 24 -29 58v72q0 119 198 231q169 96 592 289l-28 -127q-459 -209 -614 -297
q-105 -59 -105 -88q0 -25 75 -61q198 -96 283 -149q99 -62 195 -155q217 -210 276 -210h25v-152q-62 0 -110 29q-54 32 -138 127q-135 151 -232 219q17 -38 17 -103q0 -272 -424 -272h-24z" />
    <glyph glyph-name="uniFEDF_uniFB51.rlig" unicode="&#xfedf;&#xfb51;" 
d="M957 981q0 -9 -62 -133l-22 10q0 -95 -27 -231q-31 -161 -84 -277q88 -143 88 -235q0 -35 -5 -59t-15.5 -39.5t-28.5 -23.5t-43 -11q-69 -10 -133.5 -14.5t-124.5 -4.5q-92 0 -92 51v62q0 43 22 43q2 0 14 -5t27 -5q78 0 211 217q-68 100 -201 247q-66 73 -118 123.5
t-90 79.5q-28 -28 -53 -28q-31 0 -142 69q-43 27 -43 105q0 114 39 114q89 0 273 -175q99 -94 191.5 -207.5t182.5 -250.5q28 59 50 214q13 85 19.5 166t6.5 159q-25 25 -25 43q0 17 40 100q40 84 53 84q18 0 18 -28q0 -7 -3 -24.5t-3 -26.5q0 -50 55 -84q25 -13 25 -25z
M799 143q0 35 -78 133q-51 -87 -125 -167q203 11 203 34zM412 1306q0 -53 -39 -98q-30 -35 -63.5 -49t-68.5 -14q-29 0 -51.5 5.5t-40.5 12.5t-33 12.5t-27 5.5t-20.5 -6t-15 -12.5t-12.5 -12t-13 -5.5q-12 0 -12 19q0 14 6.5 32t18 33.5t27.5 26t36 10.5q21 0 39 -7
q16 21 35.5 45t42 43.5t49.5 32.5t59 13q38 0 60.5 -23.5t22.5 -63.5zM181 1244q20 -11 46 -16t50 -5q37 0 60 15t23 38q0 21 -14 34t-39 13q-32 0 -63.5 -21.5t-62.5 -57.5z" />
    <glyph glyph-name="uniFEE0_uniFB51.rlig" unicode="&#xfee0;&#xfb51;" 
d="M1063 0q-176 0 -219 180q-12 50 -27 159.5t-34 281.5q-53 -345 -162 -498q-85 -117 -250 -170q-135 -43 -235 -43q-29 0 -29 18q0 17 43 29q58 17 120 47t131 75q153 102 208 195q0 242 -351 521q-49 -37 -75 -37q-28 0 -95 58t-67 89q0 35 16 80q19 57 43 57
q45 0 151 -76q114 -79 222 -194q188 -200 188 -440q91 179 91 512q0 50 -6 95q-2 23 -3.5 34t-1.5 12q74 170 84 170q9 0 26 -194q13 -152 30.5 -301.5t40.5 -299.5q18 -125 55 -169q33 -39 106 -39v-152zM412 1336q0 -53 -39 -98q-30 -35 -63.5 -49t-68.5 -14
q-29 0 -51.5 5.5t-40.5 12.5t-33 12.5t-27 5.5t-20.5 -6t-15 -12.5t-12.5 -12t-13 -5.5q-12 0 -12 19q0 14 6.5 32t18 33.5t27.5 26t36 10.5q21 0 39 -7q16 21 35.5 45t42 43.5t49.5 32.5t59 13q38 0 60.5 -23.5t22.5 -63.5zM181 1274q20 -11 46 -16t50 -5q37 0 60 15t23 38
q0 21 -14 34t-39 13q-32 0 -63.5 -21.5t-62.5 -57.5z" />
    <glyph glyph-name="uniFEDF_uniFEE2.liga" unicode="&#xfedf;&#xfee2;" horiz-adv-x="719" 
d="M609 160l-65 -131q-90 22 -176 22q-74 0 -147 -21.5t-81 -47.5l21 -480q1 -33 1 -64q0 -111 -17 -178q-14 -55 -29 -55q-17 0 -17 78q0 195 -17.5 375t-17.5 215q0 99 59 174q68 87 193 105q-25 32 -86 32q-10 0 -22 -5t-15 -5q-8 0 -8 10q0 8 27.5 50t46 60.5t84.5 37.5
q104 30 131 41q-41 355 -41 563q-33 72 -33 68q0 24 38 101q41 83 65 83q16 0 16 -14q0 -10 -7 -35.5t-7 -34.5q0 -35 47 -57q43 -21 43 -43t-12 -71q-13 -56 -25 -56q-18 0 -39 8l33 -418q1 -15 1 -28q0 -67 -33 -109q-22 -27 -87 -70q176 -69 176 -100z" />
    <glyph glyph-name="uniFEE4_uniFE8E.liga" unicode="&#xfee4;&#xfe8e;" horiz-adv-x="725" 
d="M725 0h-247q-88 0 -88 -43q0 -36 118 -113q82 -52 82 -67q0 -8 -27 -72.5t-30 -64.5q-221 98 -290 231q-63 119 -83 451q-36 594 -72 690q50 157 66 157q52 0 76 -616q11 -303 37 -432q24 -117 75 -160q8 86 90.5 138.5t213.5 52.5h79v-152z" />
    <glyph glyph-name="uniFEE4_uniFE82.liga" unicode="&#xfee4;&#xfe82;" horiz-adv-x="725" 
d="M725 0h-247q-88 0 -88 -43q0 -37 118 -113q82 -52 82 -67q0 -8 -27 -72q-27 -65 -30 -65q-221 98 -290 231q-63 119 -83 451q-36 594 -72 690q49 157 66 157q52 0 76 -616q5 -152 14.5 -259.5t22.5 -172.5q24 -116 75 -160q7 85 90 138t214 53h79v-152zM412 1438
q0 -33 -68 -89q-83 -65 -180 -65q-114 0 -172 49q-52 -94 -78 -94q-16 0 -16 18t100 181q95 -68 189 -68q71 0 141 43q67 41 66 43q18 -1 18 -18z" />
    <glyph glyph-name="uniFEE4_uniFE84.liga" unicode="&#xfee4;&#xfe84;" horiz-adv-x="725" 
d="M725 0h-247q-88 0 -88 -43q0 -37 118 -113q82 -52 82 -67q0 -8 -27 -72q-27 -65 -30 -65q-221 98 -290 231q-63 119 -83 451q-36 594 -72 690q49 157 66 157q52 0 76 -616q5 -152 14.5 -259.5t22.5 -172.5q24 -116 75 -160q7 85 90 138t214 53h79v-152zM291 1394
q0 -6 -1.5 -15.5t-5 -19t-11 -16.5t-19.5 -8t-34 -2.5t-48 -6.5t-54.5 -14.5t-55.5 -27.5q-8 -5 -21.5 -16.5t-24.5 -11.5q-9 0 -9 15q0 11 10.5 30t40.5 50q-59 33 -59 76q0 16 9 34t32 38q85 73 141 73q30 0 45 -16t15 -32q0 -10 -5 -19t-12.5 -15.5t-16 -10t-14.5 -3.5
q-5 0 -11.5 4t-14 8.5t-16.5 8.5t-19 4q-23 0 -38 -10t-15 -28q0 -9 6.5 -20t18 -20.5t27 -15.5t33.5 -6q9 0 25.5 1t34 2.5t32 3t18.5 1.5q17 0 17 -15z" />
    <glyph glyph-name="uniFEE4_uniFE88.liga" unicode="&#xfee4;&#xfe88;" horiz-adv-x="725" 
d="M725 0h-247q-88 0 -88 -43q0 -37 118 -113q82 -52 82 -67q0 -8 -27 -72q-27 -65 -30 -65q-221 98 -290 231q-63 119 -83 451q-36 594 -72 690q49 157 66 157q52 0 76 -616q5 -152 14.5 -259.5t22.5 -172.5q24 -116 75 -160q7 85 90 138t214 53h79v-152zM342 -525
q0 -6 -1.5 -15.5t-5 -19t-11 -16.5t-19.5 -8t-34 -2.5t-48 -6.5t-54.5 -14.5t-55.5 -27.5q-8 -5 -21.5 -16.5t-24.5 -11.5q-9 0 -9 15q0 11 10.5 30t40.5 50q-59 33 -59 76q0 16 9 34t32 38q85 73 141 73q30 0 45 -16t15 -32q0 -10 -5 -19t-12.5 -15.5t-16 -10t-14.5 -3.5
q-5 0 -11.5 4t-14 8.5t-16.5 8.5t-19 4q-23 0 -38 -10t-15 -28q0 -9 6.5 -20t18 -20.5t27 -15.5t33.5 -6q9 0 25.5 1t34 2.5t32 3t18.5 1.5q17 0 17 -15z" />
    <glyph glyph-name="uniFEE8_uniFEAE.liga" unicode="&#xfee8;&#xfeae;" horiz-adv-x="1165" 
d="M1032 657l-109 -108l-108 108l108 109zM660 0q-73 -236 -196 -357q-110 -108 -240 -108q-52 0 -105 25q-135 63 -135 94q0 18 18 18q6 0 50 -9t92 -9q132 0 271 113q134 109 190 251q-105 53 -105 86l23 113q2 14 10 14q-1 0 58.5 -39.5t107.5 -39.5h66q126 0 185 133
q18 41 41 41q16 0 16 -15q0 -2 -5 -21.5t-5 -39.5q0 -98 168 -98v-152h-49q-51 0 -108 35q-67 40 -81 96q-62 -124 -206 -131h-61z" />
    <glyph glyph-name="uniFEE7_uniFEE4.liga" unicode="&#xfee7;&#xfee4;" horiz-adv-x="1169" 
d="M467 154q0 16 -10 30q-37 54 -57 98t-47 44q-25 0 -55 -32q-27 -28 -38 -56q0 -15 27 -35q29 -23 86 -47q52 -23 68 -23q26 0 26 21zM1052 778l-109 -108l-108 108l108 109zM760 0h-2q-126 0 -194 63q-20 -88 -60 -88q-99 0 -231 78q-56 33 -82 90q-73 -143 -162 -143
h-29q-70 0 -70 76t70 76h35q88 0 211 165q66 89 135 89q49 0 115 -94t110 -124q55 -36 152 -36h39q128 0 174 32q0 65 -65 142l45 104q4 10 10 10t16 -16q60 -91 60 -164q0 -143 -62 -205q-46 -37 -96 -46q-23 -5 -50 -7q-15 -1 -32 -2h-37z" />
    <glyph glyph-name="uniFEE7_uniFEF0.liga" unicode="&#xfee7;&#xfef0;" horiz-adv-x="1458" 
d="M1342 778l-109 -108l-108 108l108 109zM1049 0q-133 0 -227 -27q-80 -23 -80 -45q0 -16 160 -43q104 -17 104 -90q0 -78 -66 -131q-242 -194 -516 -194q-171 0 -265.5 78.5t-94.5 224.5q0 174 149 323q17 17 31 17t14 -21q0 4 -59 -85t-59 -175q0 -89 83 -160
q87 -73 205 -73q164 0 329 62q145 54 145 85q0 16 -76 25q-105 13 -141 25q-76 25 -76 81q0 101 138.5 188t301.5 87h38q128 0 174 32q0 65 -65 142l45 104q4 10 10 10t16 -16q60 -91 60 -164q0 -143 -62 -205q-43 -44 -106.5 -49.5t-108.5 -5.5h-1z" />
    <glyph glyph-name="uniFEE7_uniFEF2.liga" unicode="&#xfee7;&#xfef2;" horiz-adv-x="1458" 
d="M623 -745l-90 -91l-90 91l90 90zM414 -745l-90 -91l-90 91l90 90zM1342 778l-109 -108l-108 108l108 109zM1049 0q-133 0 -227 -27q-80 -23 -80 -45q0 -16 160 -43q104 -17 104 -90q0 -78 -66 -131q-242 -194 -516 -194q-171 0 -265.5 78.5t-94.5 224.5q0 174 149 323
q17 17 31 17t14 -21q0 4 -59 -85t-59 -175q0 -89 83 -160q87 -73 205 -73q164 0 329 62q145 54 145 85q0 16 -76 25q-105 13 -141 25q-76 25 -76 81q0 101 138.5 188t301.5 87h38q128 0 174 32q0 65 -65 142l45 104q4 10 10 10t16 -16q60 -91 60 -164q0 -143 -62 -205
q-43 -44 -106.5 -49.5t-108.5 -5.5h-1z" />
    <glyph glyph-name="uniFEF4_uniFEAE.liga" unicode="&#xfef4;&#xfeae;" horiz-adv-x="1165" 
d="M1095 -231l-90 -91l-86 86h-14l-86 -86l-90 91l90 90l86 -86h14l86 86zM660 0q-73 -236 -196 -357q-110 -108 -240 -108q-52 0 -105 25q-135 63 -135 94q0 18 18 18q6 0 50 -9t92 -9q132 0 271 113q134 109 190 251q-105 53 -105 86l23 113q2 14 10 14q-1 0 58.5 -39.5
t107.5 -39.5h66q126 0 185 133q18 41 41 41q16 0 16 -15q0 -2 -5 -21.5t-5 -39.5q0 -98 168 -98v-152h-49q-51 0 -108 35q-67 40 -81 96q-62 -124 -206 -131h-61z" />
    <glyph glyph-name="uniFEF3_uniFEE4.liga" unicode="&#xfef3;&#xfee4;" horiz-adv-x="1202" 
d="M1135 -231l-90 -91l-86 86h-14l-86 -86l-90 91l90 90l86 -86h14l86 86zM467 154q0 16 -10 30q-37 54 -57 98t-47 44q-25 0 -55 -32q-27 -28 -38 -56q0 -15 27 -35q29 -23 86 -47q52 -23 68 -23q26 0 26 21zM760 0h-2q-126 0 -194 63q-20 -88 -60 -88q-99 0 -231 78
q-56 33 -82 90q-73 -143 -162 -143h-29q-70 0 -70 76t70 76h35q88 0 211 165q66 89 135 89q49 0 115 -94t110 -124q55 -36 152 -36h39q128 0 174 32q0 65 -65 142l45 104q4 10 10 10t16 -16q60 -91 60 -164q0 -143 -62 -205q-45 -41 -101 -48q-29 -4 -57 -6z" />
    <glyph glyph-name="uniFEF4_uniFEE6.liga" unicode="&#xfef4;&#xfee6;" horiz-adv-x="1495" 
d="M627 530l-108 -108l-109 108l109 109zM1425 -231l-90 -91l-86 86h-14l-86 -86l-90 91l90 90l86 -86h14l86 86zM1055 0h-57q-46 0 -78 18q0 -151 -62 -251q-40 -66 -138 -127q-139 -84 -306 -84q-196 0 -286 101q-64 71 -64 173q0 108 50 215q43 92 67 92q20 0 20 -20
q0 -1 -30.5 -73t-30.5 -126q0 -217 313 -217q277 0 401 141q0 173 -79 314l53 127q9 0 76 -99q22 -32 73 -32h118q126 0 185 133q18 41 41 41q16 0 16 -15q0 -2 -5 -21.5t-5 -39.5q0 -98 168 -98v-152h-49q-51 0 -108 35q-67 40 -81 96q-61 -122 -202 -131z" />
    <glyph glyph-name="T_h.liga" unicode="Th" horiz-adv-x="1800" 
d="M1019 802q-1 90 -50 145q-42 51 -84.5 74t-105.5 30t-153 7v-789q0 -71 4.5 -118t22.5 -76.5t53.5 -42.5t98.5 -19v-19q-65 3 -130 4.5t-130 1.5q-61 0 -122.5 -1.5t-123.5 -4.5v19q62 6 96 19t51.5 42.5t22 76.5t4.5 118v789q-88 0 -150 -7t-106.5 -35t-77 -85.5
t-64.5 -158.5l-23 7l25 333q71 -3 140.5 -4.5t141.5 -1.5h399q68 0 135 2q55 1 111 3l148 10v-568q47 36 106 67.5t113 31.5q48 0 91.5 -11t77.5 -38.5t55 -73t21 -113.5v-300q0 -57 30 -74.5t88 -28.5v-19q-49 3 -105.5 4.5t-113.5 1.5q-40 0 -76 -1.5t-71 -4.5v19
q54 11 84.5 28.5t30.5 74.5v274q0 86 -38 133.5t-117 47.5q-29 0 -59.5 -8t-56 -22.5t-43 -32t-17.5 -32.5v-360q0 -57 32.5 -74.5t96.5 -28.5v-19q-58 3 -115 4.5t-114 1.5q-39 0 -76 -1.5t-75 -4.5v19q57 11 87.5 28.5t30.5 74.5v686z" />
    <glyph glyph-name="f_b.liga" unicode="fb" horiz-adv-x="1450" 
d="M1217 313q0 63 -15.5 116t-43 91t-68 60.5t-89.5 22.5q-55 -2 -95 -17t-66 -48t-40 -87.5t-15 -137.5q1 -84 15 -139t40 -88.5t66 -46.5t95 -15q49 0 89.5 22t68 60.5t43 90.5t15.5 116zM667 685l-4 329l-72 -35q-3 32 -13 65.5t-29 62t-47 46.5t-65 18
q-43 0 -72.5 -21.5t-48.5 -55.5t-30 -77.5t-16 -86.5t-5.5 -83t-0.5 -68v-162h252v-51h-252v-382q0 -39 4 -70t23 -53t58 -34t109 -14v-19q-61 3 -118.5 4.5t-117.5 1.5q-54 0 -106.5 -1.5t-106.5 -4.5v19q42 2 66.5 14t36.5 34t16 53t4 70v382h-90l13 51h77v131
q0 81 19.5 164t61 149.5t106 108t154.5 41.5q59 0 108.5 -24t90.5 -51l124 63l5 -116q-1 -94 -2 -187q-1 -157 -4 -318q45 34 101 54t121 20q76 0 139.5 -23t110.5 -64.5t73 -100.5t26 -129q0 -89 -28.5 -157t-77.5 -113.5t-117.5 -68.5t-144.5 -23q-57 0 -111 12.5t-100 31
t-77.5 36t-42.5 27.5v605z" />
    <glyph glyph-name="f_f_b.liga" unicode="ffb" horiz-adv-x="1943" 
d="M12 13q44 2 69 14t38 34t15 53t2 70v382h-84l11 51h73v183q0 58 16 129t52 134.5t93.5 105.5t141.5 42q82 0 139 -42t57 -114q0 -41 -14 -56t-53 -15q-26 0 -35.5 15t-9.5 69q0 12 -6.5 31t-19 37t-33 29.5t-50.5 11.5q-46 0 -73 -25t-43.5 -62t-22.5 -78t-6 -69v-326
h216v-51h-216v-382q0 -39 4.5 -70t22.5 -53t56.5 -34t108.5 -14v-19q-60 3 -117.5 4.5t-117.5 1.5q-54 0 -106.5 -1.5t-107.5 -4.5v19zM1707 313q0 63 -15.5 116t-43 91t-68 60.5t-89.5 22.5q-55 -2 -95 -17t-66 -48t-40 -87.5t-15 -137.5q1 -84 15 -139t40 -88.5t66 -46.5
t95 -15q49 0 89.5 22t68 60.5t43 90.5t15.5 116zM1157 685l-4 329l-72 -35q-3 32 -13 65.5t-29 62t-47 46.5t-65 18q-43 0 -72.5 -21.5t-48.5 -55.5t-30 -77.5t-16 -86.5t-5.5 -83t-0.5 -68v-162h252v-51h-252v-382q0 -39 4 -70t23 -53t58 -34t109 -14v-19q-61 3 -118.5 4.5
t-117.5 1.5q-54 0 -106.5 -1.5t-106.5 -4.5v19q42 2 66.5 14t36.5 34t16 53t4 70v382h-90l13 51h77v131q0 81 19.5 164t61 149.5t106 108t154.5 41.5q59 0 108.5 -24t90.5 -51l124 63l5 -116q-1 -94 -2 -187q-1 -157 -4 -318q45 34 101 54t121 20q76 0 139.5 -23
t110.5 -64.5t73 -100.5t26 -129q0 -89 -28.5 -157t-77.5 -113.5t-117.5 -68.5t-144.5 -23q-57 0 -111 12.5t-100 31t-77.5 36t-42.5 27.5v605z" />
    <glyph glyph-name="f_f.liga" unicode="ff" horiz-adv-x="1051" 
d="M12 13q44 2 69 14t38 34t15 53t2 70v382h-84l11 51h73v183q0 58 16 129t52 134.5t93.5 105.5t141.5 42q82 0 139 -42t57 -114q0 -41 -14 -56t-53 -15q-26 0 -35.5 15t-9.5 69q0 12 -6.5 31t-19 37t-33 29.5t-50.5 11.5q-46 0 -73 -25t-43.5 -62t-22.5 -78t-6 -69v-326
h216v-51h-216v-382q0 -39 4.5 -70t22.5 -53t56.5 -34t108.5 -14v-19q-60 3 -117.5 4.5t-117.5 1.5q-54 0 -106.5 -1.5t-107.5 -4.5v19zM522 13q44 2 69 14t38 34t15 53t2 70v382h-84l11 51h73v183q0 58 16 129t52 134.5t93.5 105.5t141.5 42q82 0 139 -42t57 -114
q0 -41 -14 -56t-53 -15q-26 0 -35.5 15t-9.5 69q0 12 -6.5 31t-19 37t-33 29.5t-50.5 11.5q-46 0 -73 -25t-43.5 -62t-22.5 -78t-6 -69v-326h216v-51h-216v-382q0 -39 4.5 -70t22.5 -53t56.5 -34t108.5 -14v-19q-60 3 -117.5 4.5t-117.5 1.5q-54 0 -106.5 -1.5t-107.5 -4.5
v19z" />
    <glyph glyph-name="f_h.liga" unicode="fh" horiz-adv-x="1434" 
d="M796 491v-304q0 -49 4 -81.5t18 -51t40.5 -28.5t71.5 -13v-19q-49 3 -100.5 4.5t-103.5 1.5q-49 0 -96 -1.5t-94 -4.5v19q42 3 68 13t39.5 28.5t16.5 51t3 81.5v827l-72 -35q-3 32 -13 65.5t-29 62t-47 46.5t-65 18q-43 0 -72.5 -21.5t-48.5 -55.5t-30 -77.5t-16 -86.5
t-5.5 -83t-0.5 -68v-162h252v-51h-252v-382q0 -39 4 -70t23 -53t58 -34t109 -14v-19q-61 3 -118.5 4.5t-117.5 1.5q-54 0 -106.5 -1.5t-106.5 -4.5v19q42 2 66.5 14t36.5 34t16 53t4 70v382h-90l13 51h77v131q0 81 19.5 164t61 149.5t106 108t154.5 41.5q59 0 108.5 -24
t90.5 -51l124 63v-643q45 34 102 65q59 31 113 31q48 0 91.5 -11t77.5 -38.5t55 -73t21 -113.5v-300q0 -57 30 -74.5t88 -28.5v-19q-49 3 -105.5 4.5t-113.5 1.5q-40 0 -76 -1.5t-71 -4.5v19q54 11 84.5 28.5t30.5 74.5v274q0 86 -38 133.5t-117 47.5q-29 0 -59.5 -8
t-56 -22.5t-42.5 -31.5q-10 -10 -14 -18z" />
    <glyph glyph-name="f_f_h.liga" unicode="ffh" horiz-adv-x="1939" 
d="M12 13q44 2 69 14t38 34t15 53t2 70v382h-84l11 51h73v183q0 58 16 129t52 134.5t93.5 105.5t141.5 42q82 0 139 -42t57 -114q0 -41 -14 -56t-53 -15q-26 0 -35.5 15t-9.5 69q0 12 -6.5 31t-19 37t-33 29.5t-50.5 11.5q-46 0 -73 -25t-43.5 -62t-22.5 -78t-6 -69v-326
h216v-51h-216v-382q0 -39 4.5 -70t22.5 -53t56.5 -34t108.5 -14v-19q-60 3 -117.5 4.5t-117.5 1.5q-54 0 -106.5 -1.5t-107.5 -4.5v19zM1296 491v-304q0 -49 4 -81.5t18 -51t40.5 -28.5t71.5 -13v-19q-49 3 -100.5 4.5t-103.5 1.5q-49 0 -96 -1.5t-94 -4.5v19q42 3 68 13
t39.5 28.5t16.5 51t3 81.5v827l-72 -35q-3 32 -13 65.5t-29 62t-47 46.5t-65 18q-43 0 -72.5 -21.5t-48.5 -55.5t-30 -77.5t-16 -86.5t-5.5 -83t-0.5 -68v-162h252v-51h-252v-382q0 -39 4 -70t23 -53t58 -34t109 -14v-19q-61 3 -118.5 4.5t-117.5 1.5q-54 0 -106.5 -1.5
t-106.5 -4.5v19q42 2 66.5 14t36.5 34t16 53t4 70v382h-90l13 51h77v131q0 81 19.5 164t61 149.5t106 108t154.5 41.5q59 0 108.5 -24t90.5 -51l124 63v-643q45 34 102 65q59 31 113 31q48 0 91.5 -11t77.5 -38.5t55 -73t21 -113.5v-300q0 -57 30 -74.5t88 -28.5v-19
q-49 3 -105.5 4.5t-113.5 1.5q-40 0 -76 -1.5t-71 -4.5v19q54 11 84.5 28.5t30.5 74.5v274q0 86 -38 133.5t-117 47.5q-29 0 -59.5 -8t-56 -22.5t-42.5 -31.5q-10 -10 -14 -18z" />
    <glyph glyph-name="f_f_i.liga" unicode="ffi" horiz-adv-x="1462" 
d="M12 13q44 2 69 14t38 34t15 53t2 70v382h-84l11 51h73v183q0 58 16 129t52 134.5t93.5 105.5t141.5 42q82 0 139 -42t57 -114q0 -41 -14 -56t-53 -15q-26 0 -35.5 15t-9.5 69q0 12 -6.5 31t-19 37t-33 29.5t-50.5 11.5q-46 0 -73 -25t-43.5 -62t-22.5 -78t-6 -69v-326
h216v-51h-216v-382q0 -39 4.5 -70t22.5 -53t56.5 -34t108.5 -14v-19q-60 3 -117.5 4.5t-117.5 1.5q-54 0 -106.5 -1.5t-107.5 -4.5v19zM1415 -6q-59 3 -119.5 4.5t-120.5 1.5q-39 0 -76 -1.5t-77 -4.5v19q33 2 57.5 6.5t39.5 18t22 39.5t7 66v280q0 35 -2.5 66t-15.5 52.5
t-38.5 35.5t-69.5 15v20l259 34v-503q0 -40 6.5 -66t23 -39.5t41.5 -18t63 -6.5v-19zM1116 946q0 46 -7 87t-24 71.5t-46 48.5t-71 18q-50 0 -87.5 -26.5t-61 -71t-36 -100.5t-12.5 -118v-238h215v-51h-215v-382q0 -39 5 -70t23.5 -53t58 -34t108.5 -14v-19
q-60 3 -117.5 4.5t-117.5 1.5q-56 0 -109.5 -1.5t-108.5 -4.5v19q45 2 69.5 14t37 34t16.5 53t4 70v382h-88l10 51h78v176q0 57 21 130.5t64 137t109 107t153 43.5q124 0 191.5 -52.5t73.5 -155.5z" />
    <glyph glyph-name="f_j.liga" unicode="fj" horiz-adv-x="946" 
d="M606 946q0 46 -7 87t-24 71.5t-46 48.5t-71 18q-50 0 -87.5 -26.5t-61 -71t-36 -100.5t-12.5 -118v-238h215v-51h-215v-382q0 -39 5 -70t23.5 -53t58 -34t108.5 -14v-19q-60 3 -117.5 4.5t-117.5 1.5q-56 0 -109.5 -1.5t-108.5 -4.5v19q45 2 69.5 14t37 34t16.5 53t4 70
v382h-88l10 51h78v176q0 57 21 130.5t64 137t109 107t153 43.5q124 0 191.5 -52.5t73.5 -155.5zM514 606l258 17v-585q0 -82 -28.5 -150t-76 -127t-109.5 -109.5t-124 -97.5l-21 25q68 59 112.5 112.5t70.5 110.5t34.5 125t8.5 159v333q0 81 -27 122.5t-98 41.5v23z" />
    <glyph glyph-name="f_f_j.liga" unicode="ffj" horiz-adv-x="1462" 
d="M12 13q44 2 69 14t38 34t15 53t2 70v382h-84l11 51h73v183q0 58 16 129t52 134.5t93.5 105.5t141.5 42q82 0 139 -42t57 -114q0 -41 -14 -56t-53 -15q-26 0 -35.5 15t-9.5 69q0 12 -6.5 31t-19 37t-33 29.5t-50.5 11.5q-46 0 -73 -25t-43.5 -62t-22.5 -78t-6 -69v-326
h216v-51h-216v-382q0 -39 4.5 -70t22.5 -53t56.5 -34t108.5 -14v-19q-60 3 -117.5 4.5t-117.5 1.5q-54 0 -106.5 -1.5t-107.5 -4.5v19zM1116 946q0 46 -7 87t-24 71.5t-46 48.5t-71 18q-50 0 -87.5 -26.5t-61 -71t-36 -100.5t-12.5 -118v-238h215v-51h-215v-382q0 -39 5 -70
t23.5 -53t58 -34t108.5 -14v-19q-60 3 -117.5 4.5t-117.5 1.5q-56 0 -109.5 -1.5t-108.5 -4.5v19q45 2 69.5 14t37 34t16.5 53t4 70v382h-88l10 51h78v176q0 57 21 130.5t64 137t109 107t153 43.5q124 0 191.5 -52.5t73.5 -155.5zM1024 616l258 17v-585q0 -82 -28.5 -150
t-76 -127t-109.5 -109.5t-124 -97.5l-21 25q68 59 112.5 112.5t70.5 110.5t34.5 125t8.5 159v333q0 81 -27 122.5t-98 41.5v23z" />
    <glyph glyph-name="f_k.liga" unicode="fk" horiz-adv-x="1450" 
d="M796 249v-62q0 -49 4 -81.5t18 -51t40.5 -28.5t71.5 -13v-19q-49 3 -100.5 4.5t-103.5 1.5q-49 0 -96 -1.5t-94 -4.5v19q42 3 68 13t39.5 28.5t16.5 51t3 81.5v827l-72 -35q-3 32 -13 65.5t-29 62t-47 46.5t-65 18q-43 0 -72.5 -21.5t-48.5 -55.5t-30 -77.5t-16 -86.5
t-5.5 -83t-0.5 -68v-162h252v-51h-252v-382q0 -39 4 -70t23 -53t58 -34t109 -14v-19q-61 3 -118.5 4.5t-117.5 1.5q-54 0 -106.5 -1.5t-106.5 -4.5v19q42 2 66.5 14t36.5 34t16 53t4 70v382h-90l13 51h77v131q0 81 19.5 164t61 149.5t106 108t154.5 41.5q59 0 108.5 -24
t90.5 -51l124 63v-900q18 17 58 47q41 32 84 68.5t75.5 74t32.5 64.5t-13 38.5t-39 14.5v20h332v-20q-51 -9 -95 -30t-85 -49.5t-79.5 -61t-75.5 -62.5q39 -45 83.5 -108t95 -123t109.5 -104.5t126 -54.5v-19q-52 3 -104 4.5t-104 1.5q-55 0 -107.5 -1.5t-106.5 -4.5v19
q29 -1 59 12.5t30 49.5q0 22 -21 57t-49 72.5t-56.5 71.5t-42.5 53z" />
    <glyph glyph-name="f_f_k.liga" unicode="ffk" horiz-adv-x="1959" 
d="M12 13q44 2 69 14t38 34t15 53t2 70v382h-84l11 51h73v183q0 58 16 129t52 134.5t93.5 105.5t141.5 42q82 0 139 -42t57 -114q0 -41 -14 -56t-53 -15q-26 0 -35.5 15t-9.5 69q0 12 -6.5 31t-19 37t-33 29.5t-50.5 11.5q-46 0 -73 -25t-43.5 -62t-22.5 -78t-6 -69v-326
h216v-51h-216v-382q0 -39 4.5 -70t22.5 -53t56.5 -34t108.5 -14v-19q-60 3 -117.5 4.5t-117.5 1.5q-54 0 -106.5 -1.5t-107.5 -4.5v19zM1306 249v-62q0 -49 4 -81.5t18 -51t40.5 -28.5t71.5 -13v-19q-49 3 -100.5 4.5t-103.5 1.5q-49 0 -96 -1.5t-94 -4.5v19q42 3 68 13
t39.5 28.5t16.5 51t3 81.5v827l-72 -35q-3 32 -13 65.5t-29 62t-47 46.5t-65 18q-43 0 -72.5 -21.5t-48.5 -55.5t-30 -77.5t-16 -86.5t-5.5 -83t-0.5 -68v-162h252v-51h-252v-382q0 -39 4 -70t23 -53t58 -34t109 -14v-19q-61 3 -118.5 4.5t-117.5 1.5q-54 0 -106.5 -1.5
t-106.5 -4.5v19q42 2 66.5 14t36.5 34t16 53t4 70v382h-90l13 51h77v131q0 81 19.5 164t61 149.5t106 108t154.5 41.5q59 0 108.5 -24t90.5 -51l124 63v-900q18 17 58 47q41 32 84 68.5t75.5 74t32.5 64.5t-13 38.5t-39 14.5v20h332v-20q-51 -9 -95 -30t-85 -49.5t-79.5 -61
t-75.5 -62.5q39 -45 83.5 -108t95 -123t109.5 -104.5t126 -54.5v-19q-52 3 -104 4.5t-104 1.5q-55 0 -107.5 -1.5t-106.5 -4.5v19q29 -1 59 12.5t30 49.5q0 22 -21 57t-49 72.5t-56.5 71.5t-42.5 53z" />
    <glyph glyph-name="f_f_l.liga" unicode="ffl" horiz-adv-x="1483" 
d="M12 13q44 2 69 14t38 34t15 53t2 70v382h-84l11 51h73v183q0 58 16 129t52 134.5t93.5 105.5t141.5 42q82 0 139 -42t57 -114q0 -41 -14 -56t-53 -15q-26 0 -35.5 15t-9.5 69q0 12 -6.5 31t-19 37t-33 29.5t-50.5 11.5q-46 0 -73 -25t-43.5 -62t-22.5 -78t-6 -69v-326
h216v-51h-216v-382q0 -39 4.5 -70t22.5 -53t56.5 -34t108.5 -14v-19q-60 3 -117.5 4.5t-117.5 1.5q-54 0 -106.5 -1.5t-107.5 -4.5v19zM1296 1199v-1012q0 -49 4 -81.5t18 -51t40.5 -28.5t71.5 -13v-19q-49 3 -100.5 4.5t-103.5 1.5q-49 0 -96 -1.5t-94 -4.5v19q42 3 68 13
t39.5 28.5t16.5 51t3 81.5v827l-72 -35q-3 32 -13 65.5t-29 62t-47 46.5t-65 18q-43 0 -72.5 -21.5t-48.5 -55.5t-30 -77.5t-16 -86.5t-5.5 -83t-0.5 -68v-162h252v-51h-252v-382q0 -39 4 -70t23 -53t58 -34t109 -14v-19q-61 3 -118.5 4.5t-117.5 1.5q-54 0 -106.5 -1.5
t-106.5 -4.5v19q42 2 66.5 14t36.5 34t16 53t4 70v382h-90l13 51h77v131q0 81 19.5 164t61 149.5t106 108t154.5 41.5q59 0 108.5 -24t90.5 -51z" />
    <glyph glyph-name="f_t.liga" unicode="ft" horiz-adv-x="1075" 
d="M12 13q44 2 69 14t38 34t15 53t2 70v382h-84l11 51h73v183q0 58 16 129t52 134.5t93.5 105.5t141.5 42q82 0 139 -42t57 -114q0 -41 -14 -56t-53 -15q-26 0 -35.5 15t-9.5 69q0 12 -6.5 31t-19 37t-33 29.5t-50.5 11.5q-46 0 -73 -25t-43.5 -62t-22.5 -78t-6 -69v-326
h216v-51h-216v-382q0 -39 4.5 -70t22.5 -53t56.5 -34t108.5 -14v-19q-60 3 -117.5 4.5t-117.5 1.5q-54 0 -106.5 -1.5t-107.5 -4.5v19zM521 574v27q54 2 93.5 26.5t68 64.5t48.5 87t36 93h23v-248h234v-50h-234v-397q0 -23 2 -44t9.5 -38t23 -27t40.5 -10q52 0 86 22.5
t67 55.5l15 -17q-29 -25 -56 -51.5t-56.5 -48t-64.5 -34t-77 -12.5q-71 0 -96.5 43t-25.5 103v455h-136z" />
    <glyph glyph-name="f_f_t.liga" unicode="fft" horiz-adv-x="1572" 
d="M12 13q44 2 69 14t38 34t15 53t2 70v382h-84l11 51h73v183q0 58 16 129t52 134.5t93.5 105.5t141.5 42q82 0 139 -42t57 -114q0 -41 -14 -56t-53 -15q-26 0 -35.5 15t-9.5 69q0 12 -6.5 31t-19 37t-33 29.5t-50.5 11.5q-46 0 -73 -25t-43.5 -62t-22.5 -78t-6 -69v-326
h216v-51h-216v-382q0 -39 4.5 -70t22.5 -53t56.5 -34t108.5 -14v-19q-60 3 -117.5 4.5t-117.5 1.5q-54 0 -106.5 -1.5t-107.5 -4.5v19zM512 13q44 2 69 14t38 34t15 53t2 70v382h-84l11 51h73v183q0 58 16 129t52 134.5t93.5 105.5t141.5 42q82 0 139 -42t57 -114
q0 -41 -14 -56t-53 -15q-26 0 -35.5 15t-9.5 69q0 12 -6.5 31t-19 37t-33 29.5t-50.5 11.5q-46 0 -73 -25t-43.5 -62t-22.5 -78t-6 -69v-326h216v-51h-216v-382q0 -39 4.5 -70t22.5 -53t56.5 -34t108.5 -14v-19q-60 3 -117.5 4.5t-117.5 1.5q-54 0 -106.5 -1.5t-107.5 -4.5
v19zM1021 574v27q54 2 93.5 26.5t68 64.5t48.5 87t36 93h23v-248h234v-50h-234v-397q0 -23 2 -44t9.5 -38t23 -27t40.5 -10q52 0 86 22.5t67 55.5l15 -17q-29 -25 -56 -51.5t-56.5 -48t-64.5 -34t-77 -12.5q-71 0 -96.5 43t-25.5 103v455h-136z" />
    <glyph glyph-name="uni0647.fina" unicode="&#x647;" horiz-adv-x="807" arabic-form="final" 
d="M807 0h-264q78 -78 78 -188q0 -85 -42 -149q-45 -71 -114 -71q-103 0 -169 93q-35 50 -52.5 115.5t-17.5 138.5q0 14 0.5 27t2.5 24q-53 -17 -104 -43t-80 -57q-14 0 -14 12q10 32 24.5 71.5t34.5 71.5q17 34 61.5 63.5t104.5 51.5q77 196 165 323q72 103 99 103t55 -52
q31 -58 31 -126q0 -146 -127 -267q42 11 328 11v-152zM543 313q0 30 -21 75q-21 46 -34 46q-29 0 -90 -96q-31 -48 -51.5 -90t-30.5 -78q87 28 159 75q68 44 68 68zM563 -195q-65 130 -264 152q0 -52 42 -121q55 -90 141 -90q78 0 81 59z" />
    <glyph glyph-name="uni0672.fina" unicode="&#x672;" horiz-adv-x="455" 
d="M455 0h-59q-108 0 -168 78q-57 73 -68 244q-32 516 -72 714q50 152 66 152q18 0 32 -127q13 -113 44 -535q18 -246 53 -316q30 -58 115 -58h57v-152zM154 1346q-31 -24 -55 -24q-20 0 -50 20q-8 5 -14 8v-1q-5 1 -10 1q-11 0 -19 -6t-14.5 -12.5l-12 -12t-12.5 -5.5
q-11 0 -11 19q0 14 6 32t17 33.5t26 26.5q7 4 14 7q12 5 23 5q18 0 49 -18q29 -19 40 -19q20 0 37 15q-75 34 -75 90q0 37 44 84q56 57 112 57q61 0 61 -53q0 -21 -27 -60q-22 45 -59 45q-25 0 -49 -11q-23 -12 -23 -25q0 -27 32 -45q28 -17 62 -17q38 0 122 26l-53 -90
q-102 -25 -161 -70z" />
    <glyph glyph-name="uni0673.fina" unicode="&#x673;" horiz-adv-x="455" 
d="M455 0h-59q-108 0 -168 78q-57 73 -68 244q-32 516 -72 714q50 152 66 152q18 0 32 -127q13 -113 44 -535q18 -246 53 -316q30 -58 115 -58h57v-152zM195 -436q-31 -24 -55 -24q-20 0 -50 20q-8 5 -14 8v-1q-5 1 -10 1q-11 0 -19 -6t-14.5 -12.5l-12 -12t-12.5 -5.5
q-11 0 -11 19q0 14 6 32t17 33.5t26 26.5q7 4 14 7q12 5 23 5q18 0 49 -18q29 -19 40 -19q20 0 37 15q-75 34 -75 90q0 37 44 84q56 57 112 57q61 0 61 -53q0 -21 -27 -60q-22 45 -59 45q-25 0 -49 -11q-23 -12 -23 -25q0 -27 32 -45q28 -17 62 -17q38 0 122 26l-53 -90
q-102 -25 -161 -70z" />
    <glyph glyph-name="uni0675.fina" unicode="&#x675;" horiz-adv-x="565" 
d="M565 0h-169q-108 0 -168 78q-58 74 -68 244q-32 516 -72 714q50 152 66 152q19 0 32 -127q7 -57 17.5 -190t26.5 -345q18 -244 53 -316q30 -58 115 -58h167v-152zM471 1394q0 -6 -1.5 -15.5t-5 -19t-11 -16.5t-19.5 -8t-34 -2.5t-48 -6.5t-54.5 -14.5t-55.5 -27.5
q-8 -5 -21.5 -16.5t-24.5 -11.5q-9 0 -9 15q0 11 10.5 30t40.5 50q-59 33 -59 76q0 16 9 34t32 38q85 73 141 73q30 0 45 -16t15 -32q0 -10 -5 -19t-12.5 -15.5t-16 -10t-14.5 -3.5q-5 0 -11.5 4t-14 8.5t-16.5 8.5t-19 4q-23 0 -38 -10t-15 -28q0 -9 6.5 -20t18 -20.5
t27 -15.5t33.5 -6q9 0 25.5 1t34 2.5t32 3t18.5 1.5q17 0 17 -15z" />
    <glyph glyph-name="uni0676.fina" unicode="&#x676;" horiz-adv-x="911" 
d="M911 0h-235q-15 -97 -122 -234q-137 -174 -291 -174q-88 0 -187 49q-92 45 -92 70q0 15 18 15q-4 0 52 -14q54 -15 108 -15q197 0 344 162q43 48 69 83t34 60q-14 -2 -35 -3t-49 -1q-87 0 -139 47q-44 39 -44 92q0 78 60 167q63 93 125 93q95 0 151 -252q21 7 233 7v-152
zM600 131q-49 148 -112 148q-25 0 -50 -31q-24 -30 -24 -62q0 -12 8 -23.5t22.5 -21t34 -15t42.5 -5.5q46 0 79 10zM864 684q0 -6 -1.5 -15.5t-5 -19t-11 -16.5t-19.5 -8t-34 -2.5t-48 -6.5t-54.5 -14.5t-55.5 -27.5q-8 -5 -21.5 -16.5t-24.5 -11.5q-9 0 -9 15q0 11 10.5 30
t40.5 50q-59 33 -59 76q0 16 9 34t32 38q85 73 141 73q30 0 45 -16t15 -32q0 -10 -5 -19t-12.5 -15.5t-16 -10t-14.5 -3.5q-5 0 -11.5 4t-14 8.5t-16.5 8.5t-19 4q-23 0 -38 -10t-15 -28q0 -9 6.5 -20t18 -20.5t27 -15.5t33.5 -6q9 0 25.5 1t34 2.5t32 3t18.5 1.5
q17 0 17 -15z" />
    <glyph glyph-name="uni0677.fina" unicode="&#x677;" horiz-adv-x="911" 
d="M911 0h-235q-15 -97 -122 -234q-137 -174 -291 -174q-88 0 -187 49q-92 45 -92 70q0 15 18 15q-4 0 52 -14q54 -15 108 -15q197 0 344 162q43 48 69 83t34 60q-14 -2 -35 -3t-49 -1q-87 0 -139 47q-44 39 -44 92q0 78 60 167q63 93 125 93q95 0 151 -252q21 7 233 7v-152
zM600 131q-49 148 -112 148q-25 0 -50 -31q-24 -30 -24 -62q0 -12 8 -23.5t22.5 -21t34 -15t42.5 -5.5q46 0 79 10zM864 684q0 -6 -1.5 -15.5t-5 -19t-11 -16.5t-19.5 -8t-34 -2.5t-48 -6.5t-54.5 -14.5t-55.5 -27.5q-8 -5 -21.5 -16.5t-24.5 -11.5q-9 0 -9 15q0 11 10.5 30
t40.5 50q-59 33 -59 76q0 16 9 34t32 38q85 73 141 73q30 0 45 -16t15 -32q0 -10 -5 -19t-12.5 -15.5t-16 -10t-14.5 -3.5q-5 0 -11.5 4t-14 8.5t-16.5 8.5t-19 4q-23 0 -38 -10t-15 -28q0 -9 6.5 -20t18 -20.5t27 -15.5t33.5 -6q9 0 25.5 1t34 2.5t32 3t18.5 1.5
q17 0 17 -15zM527 775q0 -26 -13 -59.5t-39 -68.5q14 -11 25.5 -21t11.5 -15q0 -4 -6.5 -13t-15.5 -18t-17.5 -16t-12.5 -7q-6 0 -12 4t-12.5 9t-12.5 10t-12 8q-38 -32 -85 -50t-99 -18q-58 0 -86.5 10t-28.5 23q0 10 15 10q21 0 52 3.5t65 10.5t66.5 18t56.5 25
q-17 12 -33 24t-28.5 25t-20 28t-7.5 32q0 23 17.5 50.5t59.5 50.5q28 14 53 19.5t48 5.5q35 0 53 -22t18 -58zM462 746q0 23 -11.5 37t-34.5 14t-41.5 -13t-18.5 -27q0 -44 77 -90q12 17 20.5 36.5t8.5 42.5z" />
    <glyph glyph-name="uni0678.init" unicode="&#x678;" horiz-adv-x="583" 
d="M277 260q0 -143 -62 -205q-20 -21 -97 -38q-37 -8 -70 -12.5t-48 -4.5q-70 0 -70 76t70 76h37q127 0 174 32q0 65 -65 142l45 104q4 10 10 10t16 -16q60 -92 60 -164zM512 761q0 -6 -1.5 -15.5t-5 -19t-11 -16.5t-19.5 -8t-34 -2.5t-48 -6.5t-54.5 -14.5t-55.5 -27.5
q-8 -5 -21.5 -16.5t-24.5 -11.5q-9 0 -9 15q0 11 10.5 30t40.5 50q-59 33 -59 76q0 16 9 34t32 38q85 73 141 73q30 0 45 -16t15 -32q0 -10 -5 -19t-12.5 -15.5t-16 -10t-14.5 -3.5q-5 0 -11.5 4t-14 8.5t-16.5 8.5t-19 4q-23 0 -38 -10t-15 -28q0 -9 6.5 -20t18 -20.5
t27 -15.5t33.5 -6q9 0 25.5 1t34 2.5t32 3t18.5 1.5q17 0 17 -15z" />
    <glyph glyph-name="uni0678.medi" unicode="&#x678;" horiz-adv-x="625" 
d="M0 0q-70 0 -70 76t70 76h45q127 0 185 133q18 41 41 41q16 0 16 -15q0 -2 -5 -21.5t-5 -39.5q0 -98 348 -98v-152h-229q-50 0 -108 35q-68 40 -81 96q-62 -124 -207 -131zM552 641q0 -6 -1.5 -15.5t-5 -19t-11 -16.5t-19.5 -8t-34 -2.5t-48 -6.5t-54.5 -14.5t-55.5 -27.5
q-8 -5 -21.5 -16.5t-24.5 -11.5q-9 0 -9 15q0 11 10.5 30t40.5 50q-59 33 -59 76q0 16 9 34t32 38q85 73 141 73q30 0 45 -16t15 -32q0 -10 -5 -19t-12.5 -15.5t-16 -10t-14.5 -3.5q-5 0 -11.5 4t-14 8.5t-16.5 8.5t-19 4q-23 0 -38 -10t-15 -28q0 -9 6.5 -20t18 -20.5
t27 -15.5t33.5 -6q9 0 25.5 1t34 2.5t32 3t18.5 1.5q17 0 17 -15z" />
    <glyph glyph-name="uni0678.fina" unicode="&#x678;" horiz-adv-x="1249" 
d="M1249 0q-333 0 -427 -27q-80 -23 -80 -45q0 -16 160 -43q104 -17 104 -90q0 -79 -66 -131q-242 -194 -516 -194q-172 0 -266 78t-94 225q0 174 149 323q17 17 31 17t14 -21q0 4 -59 -85t-59 -175q0 -89 83 -160q86 -73 205 -73q163 0 329 62q145 54 145 85q0 16 -76 25
q-107 14 -141 25q-76 25 -76 81q0 101 138 188q139 87 502 87v-152zM1209 396q0 -6 -1.5 -15.5t-5 -19t-11 -16.5t-19.5 -8t-34 -2.5t-48 -6.5t-54.5 -14.5t-55.5 -27.5q-8 -5 -21.5 -16.5t-24.5 -11.5q-9 0 -9 15q0 11 10.5 30t40.5 50q-59 33 -59 76q0 16 9 34t32 38
q85 73 141 73q30 0 45 -16t15 -32q0 -10 -5 -19t-12.5 -15.5t-16 -10t-14.5 -3.5q-5 0 -11.5 4t-14 8.5t-16.5 8.5t-19 4q-23 0 -38 -10t-15 -28q0 -9 6.5 -20t18 -20.5t27 -15.5t33.5 -6q9 0 25.5 1t34 2.5t32 3t18.5 1.5q17 0 17 -15z" />
    <glyph glyph-name="uni067C.init" unicode="&#x67c;" horiz-adv-x="444" 
d="M398 760l-90 -90l-91 90l91 90zM189 760l-90 -90l-90 90l90 90zM84 10q-37 -53 -37 -96q0 -51 55 -51q32 0 56 12q26 14 26 36t-33 53q-30 28 -67 46zM45 3q-25 -3 -45 -3q-70 0 -70 76t70 76h37q128 0 174 32q0 65 -65 142l45 104q4 10 10 10t16 -16q60 -91 60 -164
q0 -143 -62 -205q-10 -10 -33 -19q42 -45 42 -109q0 -78 -28 -113q-30 -38 -103 -38q-92 0 -92 84q0 60 44 143z" />
    <glyph glyph-name="uni067C.medi" unicode="&#x67c;" horiz-adv-x="445" 
d="M398 639l-90 -90l-91 90l91 90zM189 639l-90 -90l-90 90l90 90zM184 -89q0 22 -33 53q-30 28 -67 46q-37 -53 -37 -96q0 -51 55 -51q32 0 56 12q26 14 26 36zM46 6q-22 -5 -46 -6q-70 0 -70 76t70 76h45q126 0 185 133q18 41 41 41q16 0 16 -15q0 -2 -5 -21.5t-5 -39.5
q0 -98 168 -98v-152h-49q-51 0 -108 35q-67 40 -81 96q-21 -41 -50 -69q10 -10 21 -22q46 -46 46 -113q0 -78 -28 -113q-30 -38 -103 -38q-92 0 -92 84q0 61 45 146z" />
    <glyph glyph-name="uni067C.fina" unicode="&#x67c;" horiz-adv-x="1366" 
d="M902 690l-91 -90l-90 90l90 90zM693 690l-91 -90l-90 90l90 90zM711 -159q0 22 -33 53q-30 28 -67 46q-37 -53 -37 -96q0 -51 55 -51q32 0 56 12q26 14 26 36zM575 -60q-19 -1 -38 -1q-252 0 -376 92q-97 72 -97 176q0 72 49 159q45 78 68 78q16 0 16 -14
q0 2 -23.5 -52.5t-23.5 -98.5q0 -73 92 -125q114 -64 332 -64q185 0 369 57q171 53 229 117q35 39 47 39q18 0 18 -16q0 -6 -5 -26.5t-5 -29.5q0 -22 29 -49q33 -30 78 -30h32v-152q-191 0 -208 137q-91 -75 -233 -128q-101 -38 -206 -55q32 -41 32 -97q0 -78 -28 -113
q-30 -38 -103 -38q-92 0 -92 84q0 62 47 150z" />
    <glyph glyph-name="uni067D.init" unicode="&#x67d;" horiz-adv-x="444" 
d="M203 670l-80 80l80 80l80 -80zM306 832l-80 79l80 80l79 -80zM101 832l-80 79l80 80l80 -80zM277 260q0 -143 -62 -205q-20 -21 -97 -38q-73 -17 -118 -17q-70 0 -70 76t70 76h37q128 0 174 32q0 65 -65 142l45 104q4 10 10 10t16 -16q60 -91 60 -164z" />
    <glyph glyph-name="uni067D.medi" unicode="&#x67d;" horiz-adv-x="445" 
d="M203 549l-80 79l80 80l80 -80zM306 710l-80 80l80 80l79 -80zM101 710l-80 80l80 80l80 -80zM445 0h-49q-51 0 -108 35q-67 40 -81 96q-62 -124 -207 -131q-70 0 -70 76t70 76h45q126 0 185 133q18 41 41 41q16 0 16 -15q0 -2 -5 -21.5t-5 -39.5q0 -98 168 -98v-152z" />
    <glyph glyph-name="uni067D.fina" unicode="&#x67d;" horiz-adv-x="1366" 
d="M695 567l-80 80l80 80l80 -80zM797 729l-80 80l80 80l80 -80zM592 729l-80 80l80 80l80 -80zM1366 0q-191 0 -208 137q-91 -75 -233 -128q-186 -70 -388 -70q-252 0 -376 92q-97 72 -97 176q0 72 49 159q45 78 68 78q16 0 16 -14q0 2 -23.5 -52.5t-23.5 -98.5
q0 -73 92 -125q114 -64 332 -64q185 0 369 57q171 53 229 117q35 39 47 39q18 0 18 -16q0 -6 -5 -26.5t-5 -29.5q0 -22 29 -49q33 -30 78 -30h32v-152z" />
    <glyph glyph-name="uni0681.init" unicode="&#x681;" 
d="M953 283l-76 -142q-6 0 -40 2t-58 2q-207 0 -412 -71q-211 -74 -367 -74q-70 0 -70 76t70 76q279 0 490 69q-183 105 -246 105q-57 0 -94 -30t-45 -30q-12 0 -12 21q0 37 40 93q57 79 152 79q57 0 241 -88t337 -88h90zM495 746q0 -6 -1.5 -15.5t-5 -19t-11 -16.5
t-19.5 -8t-34 -2.5t-48 -6.5t-54.5 -14.5t-55.5 -27.5q-8 -5 -21.5 -16.5t-24.5 -11.5q-9 0 -9 15q0 11 10.5 30t40.5 50q-59 33 -59 76q0 16 9 34t32 38q85 73 141 73q30 0 45 -16t15 -32q0 -10 -5 -19t-12.5 -15.5t-16 -10t-14.5 -3.5q-5 0 -11.5 4t-14 8.5t-16.5 8.5
t-19 4q-23 0 -38 -10t-15 -28q0 -9 6.5 -20t18 -20.5t27 -15.5t33.5 -6q9 0 25.5 1t34 2.5t32 3t18.5 1.5q17 0 17 -15z" />
    <glyph glyph-name="uni0681.medi" unicode="&#x681;" 
d="M1063 0q-8 0 -70.5 -2t-131.5 -2q-154 0 -154 164q0 23 6 57q-180 -29 -412 -143q-150 -74 -301 -74q-70 0 -70 76t70 76q285 0 480 127q-198 75 -254 75q-33 0 -66 -25.5t-43 -25.5q-16 0 -16 21q0 32 43 91q60 81 149 81q57 0 187 -56q172 -73 348 -73h88l-53 -131
l-113 -13v-16q0 -66 113 -66q42 0 109.5 5.5t90.5 5.5v-152zM495 783q0 -6 -1.5 -15.5t-5 -19t-11 -16.5t-19.5 -8t-34 -2.5t-48 -6.5t-54.5 -14.5t-55.5 -27.5q-8 -5 -21.5 -16.5t-24.5 -11.5q-9 0 -9 15q0 11 10.5 30t40.5 50q-59 33 -59 76q0 16 9 34t32 38q85 73 141 73
q30 0 45 -16t15 -32q0 -10 -5 -19t-12.5 -15.5t-16 -10t-14.5 -3.5q-5 0 -11.5 4t-14 8.5t-16.5 8.5t-19 4q-23 0 -38 -10t-15 -28q0 -9 6.5 -20t18 -20.5t27 -15.5t33.5 -6q9 0 25.5 1t34 2.5t32 3t18.5 1.5q17 0 17 -15z" />
    <glyph glyph-name="uni0681.fina" unicode="&#x681;" 
d="M1153 -666q0 -19 -61 -32q-30 -7 -213 -68q-106 -35 -244 -35q-262 0 -400 85q-175 108 -175 366q0 196 94 352q80 131 248 262q-40 15 -117 15q-70 0 -115 -35q-12 -10 -34 -43q-18 -27 -29 -27q-14 0 -14 25q0 68 65 141q72 80 195 80q31 0 144.5 -11.5t172.5 -11.5
q160 0 262 21l-53 -133l-107 -13q-10 -15 -10 -69q0 -62 101 -62q42 0 109.5 5.5t90.5 5.5v-152q-8 0 -70.5 -2t-131.5 -2q-154 0 -154 164q0 51 20 108q-268 -34 -427 -190q-150 -148 -150 -350q0 -223 171 -313q154 -82 490 -74l291 6q51 1 51 -13zM640 777
q0 -6 -1.5 -15.5t-5 -19t-11 -16.5t-19.5 -8t-34 -2.5t-48 -6.5t-54.5 -14.5t-55.5 -27.5q-8 -5 -21.5 -16.5t-24.5 -11.5q-9 0 -9 15q0 11 10.5 30t40.5 50q-59 33 -59 76q0 16 9 34t32 38q85 73 141 73q30 0 45 -16t15 -32q0 -10 -5 -19t-12.5 -15.5t-16 -10t-14.5 -3.5
q-5 0 -11.5 4t-14 8.5t-16.5 8.5t-19 4q-23 0 -38 -10t-15 -28q0 -9 6.5 -20t18 -20.5t27 -15.5t33.5 -6q9 0 25.5 1t34 2.5t32 3t18.5 1.5q17 0 17 -15z" />
    <glyph glyph-name="uni0682.init" unicode="&#x682;" 
d="M447 1016l-109 -108l-108 108l108 109zM953 283l-76 -142q-6 0 -40 2t-58 2q-207 0 -412 -71q-211 -74 -367 -74q-70 0 -70 76t70 76q279 0 490 69q-183 105 -246 105q-57 0 -94 -30t-45 -30q-12 0 -12 21q0 37 40 93q57 79 152 79q57 0 241 -88t337 -88h90zM451 780
l-109 -108l-108 108l108 109z" />
    <glyph glyph-name="uni0682.medi" unicode="&#x682;" 
d="M451 1054l-109 -108l-108 108l108 109zM1063 0q-8 0 -70.5 -2t-131.5 -2q-154 0 -154 164q0 23 6 57q-180 -29 -412 -143q-150 -74 -301 -74q-70 0 -70 76t70 76q285 0 480 127q-198 75 -254 75q-33 0 -66 -25.5t-43 -25.5q-16 0 -16 21q0 32 43 91q60 81 149 81
q57 0 187 -56q172 -73 348 -73h88l-53 -131l-113 -13v-16q0 -66 113 -66q42 0 109.5 5.5t90.5 5.5v-152zM451 817l-109 -108l-108 108l108 109z" />
    <glyph glyph-name="uni0682.fina" unicode="&#x682;" 
d="M592 1041l-108 -109l-109 109l109 109zM1153 -666q0 -19 -61 -32q-30 -7 -213 -68q-106 -35 -244 -35q-262 0 -400 85q-175 108 -175 366q0 196 94 352q80 131 248 262q-40 15 -117 15q-70 0 -115 -35q-12 -10 -34 -43q-18 -27 -29 -27q-14 0 -14 25q0 68 65 141
q72 80 195 80q31 0 144.5 -11.5t172.5 -11.5q160 0 262 21l-53 -133l-107 -13q-10 -15 -10 -69q0 -62 101 -62q42 0 109.5 5.5t90.5 5.5v-152q-8 0 -70.5 -2t-131.5 -2q-154 0 -154 164q0 51 20 108q-268 -34 -427 -190q-150 -148 -150 -350q0 -223 171 -313
q154 -82 490 -74l291 6q51 1 51 -13zM592 809l-108 -109l-109 109l109 109z" />
    <glyph glyph-name="uni0685.init" unicode="&#x685;" 
d="M953 283l-76 -142q-6 0 -40 2t-58 2q-207 0 -412 -71q-211 -74 -367 -74q-70 0 -70 76t70 76q279 0 490 69q-183 105 -246 105q-57 0 -94 -30t-45 -30q-12 0 -12 21q0 37 40 93q57 79 152 79q57 0 241 -88t337 -88h90zM236 831l80 -80l-80 -80l-80 80zM441 831l80 -80
l-80 -80l-80 80zM338 992l80 -79l-80 -80l-79 80z" />
    <glyph glyph-name="uni0685.medi" unicode="&#x685;" 
d="M1063 0q-8 0 -70.5 -2t-131.5 -2q-154 0 -154 164q0 23 6 57q-180 -29 -412 -143q-150 -74 -301 -74q-70 0 -70 76t70 76q285 0 480 127q-198 75 -254 75q-33 0 -66 -25.5t-43 -25.5q-16 0 -16 21q0 32 43 91q60 81 149 81q57 0 187 -56q172 -73 348 -73h88l-53 -131
l-113 -13v-16q0 -66 113 -66q42 0 109.5 5.5t90.5 5.5v-152zM240 872l80 -80l-80 -80l-80 80zM445 872l80 -80l-80 -80l-80 80zM342 1033l80 -79l-80 -80l-79 80z" />
    <glyph glyph-name="uni0685.fina" unicode="&#x685;" 
d="M1153 -666q0 -19 -61 -32q-30 -7 -213 -68q-106 -35 -244 -35q-262 0 -400 85q-175 108 -175 366q0 196 94 352q80 131 248 262q-40 15 -117 15q-70 0 -115 -35q-12 -10 -34 -43q-18 -27 -29 -27q-14 0 -14 25q0 68 65 141q72 80 195 80q31 0 144.5 -11.5t172.5 -11.5
q160 0 262 21l-53 -133l-107 -13q-10 -15 -10 -69q0 -62 101 -62q42 0 109.5 5.5t90.5 5.5v-152q-8 0 -70.5 -2t-131.5 -2q-154 0 -154 164q0 51 20 108q-268 -34 -427 -190q-150 -148 -150 -350q0 -223 171 -313q154 -82 490 -74l291 6q51 1 51 -13zM382 864l80 -80
l-80 -80l-80 80zM587 864l80 -80l-80 -80l-80 80zM484 1025l80 -79l-80 -80l-79 80z" />
    <glyph glyph-name="uni0689.fina" unicode="&#x689;" horiz-adv-x="797" 
d="M407 -100q0 22 -33 53q-30 28 -67 46q-37 -53 -37 -96q0 -51 55 -51q32 0 56 12q26 14 26 36zM268 -7q-23 -3 -46 -3q-148 0 -148 102q0 131 35 131q20 0 20 -30q0 -52 109 -52q202 0 313 133q-79 330 -79 379q33 127 43 127q6 0 12 -24l67 -283q49 -204 87 -267
q32 -54 94 -54h22v-152q-87 0 -128 32q-55 43 -95 177q-53 -101 -149 -160l-28 -16l4 -4q46 -46 46 -113q0 -78 -28 -113q-30 -38 -103 -38q-92 0 -92 84q0 60 44 144z" />
    <glyph glyph-name="uni068A.fina" unicode="&#x68a;" horiz-adv-x="797" 
d="M797 0q-87 0 -128 32q-55 43 -95 177q-53 -101 -149.5 -160t-202.5 -59q-148 0 -148 102q0 131 35 131q20 0 20 -30q0 -52 109 -52q202 0 313 133q-79 330 -79 379q33 127 43 127q6 0 12 -24l67 -283q49 -204 87 -267q32 -54 94 -54h22v-152zM455 -290l-109 -108
l-108 108l108 109z" />
    <glyph glyph-name="uni068B.fina" unicode="&#x68b;" horiz-adv-x="797" 
d="M797 0q-87 0 -128 32q-54 42 -95 177q-53 -102 -150 -160q-97 -59 -202 -59q-148 0 -148 102q0 131 35 131q20 0 20 -30q0 -52 109 -52q202 0 313 133q-79 328 -79 379q33 127 43 127q6 0 12 -24l67 -283q49 -204 87 -267q31 -54 94 -54h22v-152zM418 1078q7 10 20 24
t30.5 26.5t37.5 21.5t41 9q41 0 62 -24t21 -54q0 -47 -25 -81t-63 -56t-83 -33t-85 -11q-39 0 -67.5 17.5t-62.5 55.5q30 0 53 1.5t41 3.5l38 52q7 9 9.5 18t2.5 33q0 21 -1.5 45t-4 47.5t-6 45.5t-6.5 39q-18 21 -18 42q0 13 7.5 31.5t19.5 42.5q8 10 13.5 9.5t5.5 -10.5
q0 -42 67 -72q-5 -15 -15.5 -33t-24.5 -39q4 -25 5 -44.5t1 -41.5q0 -16 -3 -31.5t-12 -31.5zM379 977q44 5 80.5 12t63 15.5t41 19.5t14.5 23q0 13 -18.5 25.5t-41.5 12.5q-36 0 -71.5 -30.5t-67.5 -75.5v-2zM455 -290l-109 -108l-108 108l108 109z" />
    <glyph glyph-name="uni068F.fina" unicode="&#x68f;" horiz-adv-x="797" 
d="M797 0q-87 0 -128 32q-55 43 -95 177q-53 -101 -149.5 -160t-202.5 -59q-148 0 -148 102q0 131 35 131q20 0 20 -30q0 -52 109 -52q202 0 313 133q-79 330 -79 379q33 127 43 127q6 0 12 -24l67 -283q49 -204 87 -267q32 -54 94 -54h22v-152zM302 1229l80 80l80 -80
l-80 -80zM507 1229l80 80l80 -80l-80 -80zM404 1067l80 80l80 -80l-80 -79z" />
    <glyph glyph-name="uni0690.fina" unicode="&#x690;" horiz-adv-x="797" 
d="M797 0q-87 0 -128 32q-55 43 -95 177q-53 -101 -149.5 -160t-202.5 -59q-148 0 -148 102q0 131 35 131q20 0 20 -30q0 -52 109 -52q202 0 313 133q-79 330 -79 379q33 127 43 127q6 0 12 -24l67 -283q49 -204 87 -267q32 -54 94 -54h22v-152zM387 1346l80 -80l-80 -80
l-80 80zM592 1346l80 -80l-80 -80l-80 80zM387 1162l80 -80l-80 -80l-80 80zM592 1162l80 -80l-80 -80l-80 80z" />
    <glyph glyph-name="uni0692.fina" unicode="&#x692;" horiz-adv-x="721" 
d="M721 0h-61q-73 -236 -196 -357q-110 -108 -240 -108q-52 0 -105 25q-135 63 -135 94q0 18 18 18q6 0 50 -9t92 -9q132 0 271 113q134 109 190 251q-105 53 -105 86l23 113q2 14 10 14q-1 0 58.5 -39.5t107.5 -39.5h22v-152zM279 727q1 9 4 25q8 30 15 30q16 0 71 -76
q9 -14 27 -50q15 -30 24 -73q15 48 34 80q15 27 33 49q49 70 62 70q7 0 16 -31q8 -24 8 -35q0 -1 -1 -4q-4 -7 -21 -20q-29 -21 -54 -54q-10 -19 -21 -38q-25 -57 -33 -88q-4 -14 -4 -23t-4 -11q-2 -3 -10 -3q-13 0 -14 17q-3 40 -44 118q-11 21 -23 40q-17 22 -39 42
q-26 22 -26 28v7z" />
    <glyph glyph-name="uni0693.fina" unicode="&#x693;" horiz-adv-x="721" 
d="M339 -442q-1 -1 -2 -1q-36 -52 -36 -95q0 -51 55 -51q32 0 56 12q26 14 26 36t-33 53q-30 28 -66 46zM295 -457q-35 -8 -71 -8q-52 0 -105 25q-135 63 -135 94q0 18 18 18q6 0 50 -9t92 -9q132 0 271 113q134 109 190 251q-105 53 -105 86l23 113q2 14 10 14
q-1 0 58.5 -39.5t107.5 -39.5h22v-152h-61q-73 -236 -196 -357q-23 -22 -47 -40l15 -15q46 -46 46 -113q0 -78 -28 -113q-30 -38 -103 -38q-92 0 -92 84q0 57 40 135z" />
    <glyph glyph-name="uni0694.fina" unicode="&#x694;" horiz-adv-x="656" 
d="M413 344q47 -113 90 -159q54 -57 135 -57h18v-128h-21q-66 0 -101 32h-4q2 -24 2 -35q0 -84 -40 -155q-113 -199 -239 -199q-103 0 -250 78l15 34q46 -22 115 -22q102 0 208 95q108 95 124 205q-9 21 -27 45q-48 68 -87 149q26 59 55 116zM446 -409q60 -44 120 -107
q-35 -57 -83 -98q-27 26 -118 103q49 65 81 102z" />
    <glyph glyph-name="uni0695.fina" unicode="&#x695;" horiz-adv-x="656" 
d="M413 344q47 -113 90 -159q54 -57 135 -57h18v-128h-21q-66 0 -101 32h-4q2 -24 2 -35q0 -84 -40 -155q-113 -199 -239 -199q-103 0 -250 78l15 34q46 -22 115 -22q102 0 208 95q108 95 124 205q-9 21 -27 45q-48 68 -87 149q26 59 55 116zM539 -517q-134 -153 -150 -212
l-19 -10q-10 60 -175 195l23 97h8q121 -119 154 -176h3q29 61 133 181q15 -34 23 -75z" />
    <glyph glyph-name="uni0696.fina" unicode="&#x696;" horiz-adv-x="721" 
d="M721 0h-61q-73 -236 -196 -357q-110 -108 -240 -108q-52 0 -105 25q-135 63 -135 94q0 18 18 18q6 0 50 -9t92 -9q132 0 271 113q134 109 190 251q-105 53 -105 86l23 113q2 14 10 14q-1 0 58.5 -39.5t107.5 -39.5h22v-152zM560 -639l-109 -108l-108 108l108 109z
M361 -48l-109 -108l-108 108l108 109z" />
    <glyph glyph-name="uni0697.fina" unicode="&#x697;" horiz-adv-x="721" 
d="M346 625l80 -80l-80 -80l-80 80zM551 625l80 -80l-80 -80l-80 80zM721 0h-61q-39 -125 -89 -213t-107 -144t-118.5 -82t-121.5 -26q-26 0 -54 7t-51 18q-43 20 -69.5 35t-41 26t-19.5 19t-5 14q0 18 18 18q9 0 21 -3t28.5 -6t39 -6t53.5 -3q67 0 137.5 31t133.5 82
t113 116.5t77 134.5q-56 28 -80.5 48t-24.5 38l23 113q3 14 10 14q5 0 20.5 -12.5t38 -27t50 -27t57.5 -12.5h22v-152z" />
    <glyph glyph-name="uni0699.fina" unicode="&#x699;" horiz-adv-x="721" 
d="M342 812l80 -80l-80 -80l-80 80zM547 812l80 -80l-80 -80l-80 80zM721 0h-61q-39 -125 -89 -213t-107 -144t-118.5 -82t-121.5 -26q-26 0 -54 7t-51 18q-43 20 -69.5 35t-41 26t-19.5 19t-5 14q0 18 18 18q9 0 21 -3t28.5 -6t39 -6t53.5 -3q67 0 137.5 31t133.5 82
t113 116.5t77 134.5q-56 28 -80.5 48t-24.5 38l23 113q3 14 10 14q5 0 20.5 -12.5t38 -27t50 -27t57.5 -12.5h22v-152zM346 625l80 -80l-80 -80l-80 80zM551 625l80 -80l-80 -80l-80 80z" />
    <glyph glyph-name="uni069A.init" unicode="&#x69a;" horiz-adv-x="1030" 
d="M668 631l-80 -80l-80 80l80 79zM920 285q0 -76 -40 -161q-49 -104 -120 -104q-100 0 -209 95q-90 -107 -207 -107q-113 0 -141 115q-44 -117 -203 -123q-70 0 -70 76t70 76h27q83 0 137 46q33 29 62 87q24 47 34 47q18 0 17 -15l-4 -47q-11 -125 119 -125q74 0 124 52
q29 30 60 96q24 51 37 51q14 0 14 -16l-8 -90q18 -25 81 -51q73 -31 134 -29q19 64 0 127l29 49q25 43 39 43q18 0 18 -92zM642 -206l-79 -80l-80 80l80 79z" />
    <glyph glyph-name="uni069A.medi" unicode="&#x69a;" 
d="M680 631l-80 -80l-79 80l79 79zM1063 0h-43q-55 0 -106.5 26t-73.5 64q-59 -90 -129 -90q-85 0 -166 86q-69 -86 -190 -86t-156 113q-61 -107 -199 -113q-70 0 -70 76t70 76h25q139 0 205 115q19 32 30 32q21 0 21 -16q0 -6 -3 -24t-3 -28q0 -84 115 -84q77 0 128 45
q31 27 60 81q23 44 33 44q23 0 20 -22l-10 -74q0 -23 42.5 -46t92.5 -23q43 0 88.5 77.5t57.5 77.5q22 0 22 -18q0 -2 -7 -22.5t-7 -39.5q0 -75 94 -75h59v-152zM642 -206l-79 -80l-80 80l80 79z" />
    <glyph glyph-name="uni069A.fina" unicode="&#x69a;" horiz-adv-x="1702" 
d="M1319 631l-80 -80l-79 80l79 79zM1702 0h-43q-56 0 -107 26t-73 64q-62 -90 -129 -90q-107 0 -170 84q-65 -84 -184 -84q-48 0 -76 18q0 -151 -62 -251q-40 -66 -138 -127q-139 -84 -306 -84q-196 0 -286 101q-64 71 -64 173q0 108 50 215q43 92 67 92q20 0 20 -20
q0 -1 -30.5 -73t-30.5 -126q0 -217 313 -217q277 0 401 141q0 173 -79 314l53 127q8 0 76 -99q32 -47 120 -47q78 0 132 47q35 29 66 87q26 46 34 46q18 0 18 -18l-8 -78q0 -21 47.5 -45t91.5 -24q38 0 82 77.5t53 77.5q23 0 23 -18q0 -3 -7 -22.5t-7 -39.5q0 -75 94 -75h59
v-152zM1282 -206l-79 -80l-80 80l80 79z" />
    <glyph glyph-name="uni069B.init" unicode="&#x69b;" horiz-adv-x="1030" 
d="M920 285q0 -76 -40 -161q-49 -104 -120 -104q-100 0 -209 95q-90 -107 -207 -107q-113 0 -141 115q-44 -117 -203 -123q-70 0 -70 76t70 76h27q83 0 137 46q33 29 62 87q24 47 34 47q18 0 17 -15l-4 -47q-11 -125 119 -125q74 0 124 52q29 30 60 96q24 51 37 51
q14 0 14 -16l-8 -90q18 -25 81 -51q73 -31 134 -29q19 64 0 127l29 49q25 43 39 43q18 0 18 -92zM388 -197l79 80l80 -80l-80 -80zM592 -197l80 80l80 -80l-80 -80zM490 -359l80 80l80 -80l-80 -80z" />
    <glyph glyph-name="uni069B.medi" unicode="&#x69b;" 
d="M1063 0h-43q-55 0 -106.5 26t-73.5 64q-59 -90 -129 -90q-85 0 -166 86q-69 -86 -190 -86t-156 113q-61 -107 -199 -113q-70 0 -70 76t70 76h25q139 0 205 115q19 32 30 32q21 0 21 -16q0 -6 -3 -24t-3 -28q0 -84 115 -84q77 0 128 45q31 27 60 81q23 44 33 44
q23 0 20 -22l-10 -74q0 -23 42.5 -46t92.5 -23q43 0 88.5 77.5t57.5 77.5q22 0 22 -18q0 -2 -7 -22.5t-7 -39.5q0 -75 94 -75h59v-152zM411 -197l79 80l80 -80l-80 -80zM615 -197l80 80l80 -80l-80 -80zM513 -359l80 80l80 -80l-80 -80z" />
    <glyph glyph-name="uni069B.fina" unicode="&#x69b;" horiz-adv-x="1702" 
d="M1702 0h-43q-56 0 -107 26t-73 64q-62 -90 -129 -90q-107 0 -170 84q-65 -84 -184 -84q-48 0 -76 18q0 -151 -62 -251q-40 -66 -138 -127q-139 -84 -306 -84q-196 0 -286 101q-64 71 -64 173q0 108 50 215q43 92 67 92q20 0 20 -20q0 -1 -30.5 -73t-30.5 -126
q0 -217 313 -217q277 0 401 141q0 173 -79 314l53 127q8 0 76 -99q32 -47 120 -47q78 0 132 47q35 29 66 87q26 46 34 46q18 0 18 -18l-8 -78q0 -21 47.5 -45t91.5 -24q38 0 82 77.5t53 77.5q23 0 23 -18q0 -3 -7 -22.5t-7 -39.5q0 -75 94 -75h59v-152zM1051 -197l79 80
l80 -80l-80 -80zM1255 -197l80 80l80 -80l-80 -80zM1153 -359l80 80l80 -80l-80 -80z" />
    <glyph glyph-name="uni069C.init" unicode="&#x69c;" horiz-adv-x="1030" 
d="M668 791l-80 -80l-80 80l80 79zM770 629l-79 -80l-80 80l80 80zM566 629l-80 -80l-80 80l80 80zM920 285q0 -76 -40 -161q-49 -104 -120 -104q-100 0 -209 95q-90 -107 -207 -107q-113 0 -141 115q-44 -117 -203 -123q-70 0 -70 76t70 76h27q83 0 137 46q33 29 62 87
q24 47 34 47q18 0 17 -15l-4 -47q-11 -125 119 -125q74 0 124 52q29 30 60 96q24 51 37 51q14 0 14 -16l-8 -90q18 -25 81 -51q73 -31 134 -29q19 64 0 127l29 49q25 43 39 43q18 0 18 -92zM388 -197l79 80l80 -80l-80 -80zM592 -197l80 80l80 -80l-80 -80zM490 -359l80 80
l80 -80l-80 -80z" />
    <glyph glyph-name="uni069C.medi" unicode="&#x69c;" 
d="M680 791l-80 -80l-79 80l79 79zM783 629l-80 -80l-80 80l80 80zM578 629l-80 -80l-80 80l80 80zM1063 0h-43q-55 0 -106.5 26t-73.5 64q-59 -90 -129 -90q-85 0 -166 86q-69 -86 -190 -86t-156 113q-61 -107 -199 -113q-70 0 -70 76t70 76h25q139 0 205 115q19 32 30 32
q21 0 21 -16q0 -6 -3 -24t-3 -28q0 -84 115 -84q77 0 128 45q31 27 60 81q23 44 33 44q23 0 20 -22l-10 -74q0 -23 42.5 -46t92.5 -23q43 0 88.5 77.5t57.5 77.5q22 0 22 -18q0 -2 -7 -22.5t-7 -39.5q0 -75 94 -75h59v-152zM411 -197l79 80l80 -80l-80 -80zM615 -197l80 80
l80 -80l-80 -80zM513 -359l80 80l80 -80l-80 -80z" />
    <glyph glyph-name="uni069C.fina" unicode="&#x69c;" horiz-adv-x="1702" 
d="M1319 791l-80 -80l-79 80l79 79zM1422 629l-80 -80l-80 80l80 80zM1217 629l-80 -80l-80 80l80 80zM1702 0h-43q-56 0 -107 26t-73 64q-62 -90 -129 -90q-107 0 -170 84q-65 -84 -184 -84q-48 0 -76 18q0 -151 -62 -251q-40 -66 -138 -127q-139 -84 -306 -84
q-196 0 -286 101q-64 71 -64 173q0 108 50 215q43 92 67 92q20 0 20 -20q0 -1 -30.5 -73t-30.5 -126q0 -217 313 -217q277 0 401 141q0 173 -79 314l53 127q8 0 76 -99q32 -47 120 -47q78 0 132 47q35 29 66 87q26 46 34 46q18 0 18 -18l-8 -78q0 -21 47.5 -45t91.5 -24
q38 0 82 77.5t53 77.5q23 0 23 -18q0 -3 -7 -22.5t-7 -39.5q0 -75 94 -75h59v-152zM1051 -197l79 80l80 -80l-80 -80zM1255 -197l80 80l80 -80l-80 -80zM1153 -359l80 80l80 -80l-80 -80z" />
    <glyph glyph-name="uni069D.init" unicode="&#x69d;" horiz-adv-x="1210" 
d="M1006 330q0 29 -57.5 52.5t-118.5 23.5q-146 0 -420 -275h51q146 0 345.5 72.5t199.5 126.5zM1110 406q0 -91 -118 -218q-88 -93 -268 -154q-160 -54 -291 -54q-115 0 -172 43q-46 35 -78 122q-66 -136 -183 -145q-70 0 -70 76t70 76h17q74 0 129.5 58t52.5 58
q12 0 21 -20q40 -103 114 -103q393 394 580 394q70 0 133 -41.5t63 -91.5zM441 -227l79 80l80 -80l-80 -80zM645 -227l80 80l80 -80l-80 -80z" />
    <glyph glyph-name="uni069D.medi" unicode="&#x69d;" horiz-adv-x="1211" 
d="M1211 0q-84 0 -202.5 -3t-156.5 -3q-183 0 -229 10q-111 -24 -190 -24q-115 0 -172 43q-46 35 -78 122q-66 -136 -183 -145q-70 0 -70 76t70 76h17q74 0 129.5 58t52.5 58q12 0 21 -20q40 -103 114 -103q393 394 580 394q70 0 133 -41.5t63 -91.5q0 -53 -47 -128
q-53 -81 -139 -147q35 0 123 10.5t164 10.5v-152zM1006 330q0 29 -57.5 52.5t-118.5 23.5q-146 0 -420 -275h51q146 0 345.5 72.5t199.5 126.5zM431 -227l79 80l80 -80l-80 -80zM635 -227l80 80l80 -80l-80 -80z" />
    <glyph glyph-name="uni069D.fina" unicode="&#x69d;" horiz-adv-x="1897" 
d="M1897 0q-84 0 -202.5 -3t-156.5 -3q-183 0 -229 10q-111 -24 -190 -24q-124 0 -199 38q0 -151 -62 -251q-40 -66 -138 -127q-139 -84 -306 -84q-196 0 -286 101q-64 71 -64 173q0 108 50 215q43 92 67 92q20 0 20 -20q0 -1 -30.5 -73t-30.5 -126q0 -217 313 -217
q277 0 401 141q0 173 -79 314l53 127q8 0 76 -99q26 -39 116 -39q394 394 580 394q70 0 133 -41.5t63 -91.5q0 -53 -47 -128q-53 -81 -139 -147q35 0 123.5 10.5t163.5 10.5v-152zM1692 330q0 29 -57.5 52.5t-118.5 23.5q-146 0 -420 -275h51q146 0 345.5 72.5t199.5 126.5z
M1111 -227l79 80l80 -80l-80 -80zM1315 -227l80 80l80 -80l-80 -80z" />
    <glyph glyph-name="uni069E.init" unicode="&#x69e;" horiz-adv-x="1210" 
d="M1006 330q0 29 -57.5 52.5t-118.5 23.5q-146 0 -420 -275h51q146 0 345.5 72.5t199.5 126.5zM1110 406q0 -91 -118 -218q-88 -93 -268 -154q-160 -54 -291 -54q-115 0 -172 43q-46 35 -78 122q-66 -136 -183 -145q-70 0 -70 76t70 76h17q74 0 129.5 58t52.5 58
q12 0 21 -20q40 -103 114 -103q393 394 580 394q70 0 133 -41.5t63 -91.5zM610 921l-79 -80l-80 80l80 79zM713 759l-80 -80l-80 80l80 80zM508 759l-80 -80l-80 80l80 80z" />
    <glyph glyph-name="uni069E.medi" unicode="&#x69e;" horiz-adv-x="1211" 
d="M1006 330q0 29 -57.5 52.5t-118.5 23.5q-146 0 -420 -275h51q146 0 345.5 72.5t199.5 126.5zM1211 0q-84 0 -202.5 -3t-156.5 -3q-183 0 -229 10q-111 -24 -190 -24q-115 0 -172 43q-46 35 -78 122q-66 -136 -183 -145q-70 0 -70 76t70 76h17q74 0 129.5 58t52.5 58
q12 0 21 -20q40 -103 114 -103q393 394 580 394q70 0 133 -41.5t63 -91.5q0 -53 -47 -128q-53 -81 -139 -147q35 0 123 10.5t164 10.5v-152zM620 921l-79 -80l-80 80l80 79zM723 759l-80 -80l-80 80l80 80zM518 759l-80 -80l-80 80l80 80z" />
    <glyph glyph-name="uni069E.fina" unicode="&#x69e;" horiz-adv-x="1897" 
d="M1897 0q-84 0 -202.5 -3t-156.5 -3q-183 0 -229 10q-111 -24 -190 -24q-124 0 -199 38q0 -151 -62 -251q-40 -66 -138 -127q-139 -84 -306 -84q-196 0 -286 101q-64 71 -64 173q0 108 50 215q43 92 67 92q20 0 20 -20q0 -1 -30.5 -73t-30.5 -126q0 -217 313 -217
q277 0 401 141q0 173 -79 314l53 127q8 0 76 -99q26 -39 116 -39q394 394 580 394q70 0 133 -41.5t63 -91.5q0 -53 -47 -128q-53 -81 -139 -147q35 0 123.5 10.5t163.5 10.5v-152zM1692 330q0 29 -57.5 52.5t-118.5 23.5q-146 0 -420 -275h51q146 0 345.5 72.5t199.5 126.5z
M1300 921l-79 -80l-80 80l80 79zM1403 759l-80 -80l-80 80l80 80zM1198 759l-80 -80l-80 80l80 80z" />
    <glyph glyph-name="uni069F.init" unicode="&#x69f;" horiz-adv-x="942" 
d="M842 393q0 -106 -133 -227q-182 -166 -561 -166h-148q-70 0 -70 76t70 76h7q38 0 75 26q81 58 103 84q28 33 28 78q0 265 -61 629q-33 43 -33 100q0 43 58 143q15 27 26 27q21 0 21 -76q0 -65 55 -80q43 -11 43 -28q0 -56 -12 -103q-9 -34 -21 -34t-37 8q37 -246 37 -404
q0 -129 -20 -194q136 125 215.5 173t150.5 48q67 0 137 -53t70 -103zM738 313q0 31 -62 57.5t-123 26.5q-138 0 -391 -245h43q204 0 377 60q156 54 156 101zM621 954l-79 -80l-80 80l80 79zM724 792l-80 -80l-80 80l80 80zM519 792l-80 -80l-80 80l80 80z" />
    <glyph glyph-name="uni069F.medi" unicode="&#x69f;" horiz-adv-x="942" 
d="M942 0q-163 0 -307.5 9t-146.5 9t-158.5 -9t-279.5 -9h-50q-70 0 -70 76t70 76h7q38 0 75 26q81 58 103 84q28 33 28 78q0 265 -61 629q-33 43 -33 100q0 43 58 143q15 27 26 27q21 0 21 -76q0 -65 55 -80q43 -11 43 -28q0 -56 -12 -103q-9 -34 -21 -34t-37 8
q37 -246 37 -404q0 -129 -20 -194q136 125 215.5 173t150.5 48q67 0 137 -53t70 -103q0 -61 -55 -139q-48 -68 -111 -117q153 15 266 15v-152zM738 313q0 31 -62 57.5t-123 26.5q-138 0 -391 -245h43q204 0 377 60q156 54 156 101zM621 954l-79 -80l-80 80l80 79zM724 792
l-80 -80l-80 80l80 80zM519 792l-80 -80l-80 80l80 80z" />
    <glyph glyph-name="uni069F.fina" unicode="&#x69f;" horiz-adv-x="1223" 
d="M1223 0q-40 0 -204 -10t-240 -10q-159 0 -205 14q-46 -14 -184 -14q-130 0 -251 65q-104 57 -104 92q0 15 43 15h209q39 0 76 26q81 58 103 84q28 33 28 78q0 265 -61 629q-33 43 -33 100q0 43 57 143q15 27 27 27q20 0 20 -76q0 -65 55 -80q43 -11 43 -28
q0 -56 -12 -103q-9 -34 -20 -34q-13 0 -37 8q37 -246 37 -404q0 -129 -21 -194q227 221 361 221q61 0 132 -41q81 -46 81 -100q0 -61 -55 -148t-113 -123q93 15 268 15v-152zM1018 313q0 20 -58 51q-64 33 -126 33q-60 0 -173 -69q-121 -73 -218 -176h65q162 0 336 55
t174 106zM901 954l-79 -80l-80 80l80 79zM1004 792l-80 -80l-80 80l80 80zM799 792l-80 -80l-80 80l80 80z" />
    <glyph glyph-name="uni06A0.init" unicode="&#x6a0;" horiz-adv-x="854" 
d="M758 328l-45 -129q-99 -52 -377 -127q-245 -65 -336 -72q-70 0 -70 76t70 76q97 0 162 18q-72 89 -72 162q0 76 83 181q96 122 206 122q77 0 157 -52q71 -46 71 -73q0 -12 -15 -12q-2 0 -47 16t-94 16q-51 0 -128 -25q-92 -30 -161 -79q68 -163 246 -217q100 25 217 69
q67 25 133 50zM394 1017l-79 -80l-80 80l80 79zM497 855l-80 -80l-80 80l80 80zM292 855l-80 -80l-80 80l80 80z" />
    <glyph glyph-name="uni06A0.medi" unicode="&#x6a0;" horiz-adv-x="648" 
d="M648 0q-102 0 -166 25q-74 30 -150 110q-178 -128 -332 -135q-70 0 -70 76t70 76q156 0 271 61q-37 70 -174 76q0 68 62 120q72 60 192 60q99 0 159 -36t60 -97q0 -34 -35.5 -76t-83.5 -65q51 -43 164 -43h33v-152zM400 912l-79 -80l-80 80l80 79zM503 750l-80 -80
l-80 80l80 80zM298 750l-80 -80l-80 80l80 80z" />
    <glyph glyph-name="uni06A0.fina" unicode="&#x6a0;" horiz-adv-x="848" 
d="M998 -672q0 -19 -60 -35q-2 0 -165 -57q-103 -37 -187 -37q-536 0 -536 414q0 200 99 373q83 147 208 231q-47 47 -170 47q9 84 85 140q80 59 199 59q85 0 140 -39.5t55 -97.5q0 -67 -115 -138q30 -36 117 -36h180v-152h-123q-161 0 -282 145q-135 -75 -222 -197
q-96 -134 -96 -276q0 -204 183 -284q125 -56 491 -56q51 0 105 4.5t69 4.5q25 0 25 -13zM502 911l-79 -80l-80 80l80 79zM605 749l-80 -80l-80 80l80 80zM400 749l-80 -80l-80 80l80 80z" />
    <glyph glyph-name="uni06A1.init" unicode="&#x6a1;" horiz-adv-x="575" 
d="M447 283q0 -171 -70 -211q-125 -72 -325 -72h-52q-70 0 -70 76t70 76h74q259 0 326 71q0 22 -17 70t-34 72q-42 -129 -123 -129q-57 0 -97.5 43t-40.5 106q0 97 52 183q49 79 94 79q59 0 132 -108q81 -120 81 -256zM299 436q-32 72 -92 72q-67 0 -67 -68q0 -23 27.5 -48
t56.5 -25q67 0 75 69z" />
    <glyph glyph-name="uni06A1.medi" unicode="&#x6a1;" horiz-adv-x="607" 
d="M607 0q-236 0 -334 76q-111 -76 -273 -76q-70 0 -70 76t70 76h19q109 0 131 12q-9 41 -8 84q2 105 93 230q87 118 142 118q35 0 72 -75.5t37 -147.5q0 -58 -27 -124q-23 -56 -49 -83q39 -14 197 -14v-152zM420 299q0 28 -22 76q-26 55 -54 55q-40 0 -88.5 -49t-48.5 -82
t88 -96q125 53 125 96z" />
    <glyph glyph-name="uni06A1.fina" unicode="&#x6a1;" horiz-adv-x="1364" 
d="M1364 0q-205 0 -306 77q-42 -30 -108.5 -55t-140 -43t-146 -28t-126.5 -10q-127 0 -220 22t-156 68q-97 72 -97 176q0 73 49 159q45 78 68 78q16 0 16 -14q0 2 -24 -53q-23 -55 -23 -98q0 -72 92 -125q113 -64 332 -64q216 0 383 72q-19 42 -19 90q0 82 87 213
q89 131 137 131q35 0 71 -76q37 -74 37 -147q0 -58 -27 -124q-22 -55 -49 -83q45 -14 152 -14h18v-152zM1205 307q0 23 -28 72q-27 51 -46 51q-27 0 -75 -45q-52 -49 -52 -92q11 -29 78 -80q123 61 123 94z" />
    <glyph glyph-name="uni06A2.init" unicode="&#x6a2;" horiz-adv-x="575" 
d="M447 283q0 -171 -70 -211q-125 -72 -325 -72h-52q-70 0 -70 76t70 76h74q259 0 326 71q0 22 -17 70t-34 72q-42 -129 -123 -129q-57 0 -97.5 43t-40.5 106q0 97 52 183q49 79 94 79q59 0 132 -108q81 -120 81 -256zM299 436q-32 72 -92 72q-67 0 -67 -68q0 -23 27.5 -48
t56.5 -25q67 0 75 69zM345 -216l-109 -108l-109 108l109 109z" />
    <glyph glyph-name="uni06A2.medi" unicode="&#x6a2;" horiz-adv-x="607" 
d="M607 0q-236 0 -334 76q-111 -76 -273 -76q-70 0 -70 76t70 76h19q109 0 131 12q-9 41 -8 84q2 105 93 230q87 118 142 118q35 0 72 -75.5t37 -147.5q0 -58 -27 -124q-23 -56 -49 -83q39 -14 197 -14v-152zM420 299q0 28 -22 76q-26 55 -54 55q-40 0 -88.5 -49t-48.5 -82
t88 -96q125 53 125 96zM405 -216l-109 -108l-109 108l109 109z" />
    <glyph glyph-name="uni06A2.fina" unicode="&#x6a2;" horiz-adv-x="1364" 
d="M1364 0q-205 0 -306 77q-42 -30 -108.5 -55t-140 -43t-146 -28t-126.5 -10q-127 0 -220 22t-156 68q-97 72 -97 176q0 73 49 159q45 78 68 78q16 0 16 -14q0 2 -24 -53q-23 -55 -23 -98q0 -72 92 -125q113 -64 332 -64q216 0 383 72q-19 42 -19 90q0 82 87 213
q89 131 137 131q35 0 71 -76q37 -74 37 -147q0 -58 -27 -124q-22 -55 -49 -83q45 -14 152 -14h18v-152zM1205 307q0 23 -28 72q-27 51 -46 51q-27 0 -75 -45q-52 -49 -52 -92q11 -29 78 -80q123 61 123 94zM1195 -216l-109 -108l-109 108l109 109z" />
    <glyph glyph-name="uni06A3.init" unicode="&#x6a3;" horiz-adv-x="575" 
d="M301 946l-108 -108l-109 108l109 109zM447 283q0 -171 -70 -211q-125 -72 -325 -72h-52q-70 0 -70 76t70 76h74q259 0 326 71q0 22 -17 70t-34 72q-42 -129 -123 -129q-57 0 -97.5 43t-40.5 106q0 97 52 183q49 79 94 79q59 0 132 -108q81 -120 81 -256zM299 436
q-32 72 -92 72q-67 0 -67 -68q0 -23 27.5 -48t56.5 -25q67 0 75 69zM325 -216l-109 -108l-109 108l109 109z" />
    <glyph glyph-name="uni06A3.medi" unicode="&#x6a3;" horiz-adv-x="607" 
d="M410 895l-109 -109l-108 109l108 109zM607 0q-236 0 -334 76q-111 -76 -273 -76q-70 0 -70 76t70 76h19q109 0 131 12q-9 41 -8 84q2 105 93 230q87 118 142 118q35 0 72 -75.5t37 -147.5q0 -58 -27 -124q-23 -56 -49 -83q39 -14 197 -14v-152zM420 299q0 28 -22 76
q-26 55 -54 55q-40 0 -88.5 -49t-48.5 -82t88 -96q125 53 125 96zM395 -216l-109 -108l-109 108l109 109z" />
    <glyph glyph-name="uni06A3.fina" unicode="&#x6a3;" horiz-adv-x="1364" 
d="M1194 928l-108 -109l-109 109l109 108zM1364 0q-205 0 -306 77q-42 -30 -108.5 -55t-140 -43t-146 -28t-126.5 -10q-127 0 -220 22t-156 68q-97 72 -97 176q0 73 49 159q45 78 68 78q16 0 16 -14q0 2 -24 -53q-23 -55 -23 -98q0 -72 92 -125q113 -64 332 -64
q216 0 383 72q-19 42 -19 90q0 82 87 213q89 131 137 131q35 0 71 -76q37 -74 37 -147q0 -58 -27 -124q-22 -55 -49 -83q45 -14 152 -14h18v-152zM1205 307q0 23 -28 72q-27 51 -46 51q-27 0 -75 -45q-52 -49 -52 -92q11 -29 78 -80q123 61 123 94zM784 -304l-106 -111
l-111 109l109 108z" />
    <glyph glyph-name="uni06A5.init" unicode="&#x6a5;" horiz-adv-x="575" 
d="M447 283q0 -171 -70 -211q-125 -72 -325 -72h-52q-70 0 -70 76t70 76h74q259 0 326 71q0 22 -17 70t-34 72q-42 -129 -123 -129q-57 0 -97.5 43t-40.5 106q0 97 52 183q49 79 94 79q59 0 132 -108q81 -120 81 -256zM299 436q-32 72 -92 72q-67 0 -67 -68q0 -23 27.5 -48
t56.5 -25q67 0 75 69zM227 -434l-80 79l80 80l79 -80zM329 -273l-80 80l80 80l80 -80zM124 -273l-80 80l80 80l80 -80z" />
    <glyph glyph-name="uni06A5.medi" unicode="&#x6a5;" horiz-adv-x="607" 
d="M607 0q-236 0 -334 76q-111 -76 -273 -76q-70 0 -70 76t70 76h19q109 0 131 12q-9 41 -8 84q2 105 93 230q87 118 142 118q35 0 72 -75.5t37 -147.5q0 -58 -27 -124q-23 -56 -49 -83q39 -14 197 -14v-152zM420 299q0 28 -22 76q-26 55 -54 55q-40 0 -88.5 -49t-48.5 -82
t88 -96q125 53 125 96zM297 -434l-80 79l80 80l79 -80zM399 -273l-80 80l80 80l80 -80zM194 -273l-80 80l80 80l80 -80z" />
    <glyph glyph-name="uni06A5.fina" unicode="&#x6a5;" horiz-adv-x="1364" 
d="M1364 0q-205 0 -306 77q-42 -30 -108.5 -55t-140 -43t-146 -28t-126.5 -10q-127 0 -220 22t-156 68q-97 72 -97 176q0 73 49 159q45 78 68 78q16 0 16 -14q0 2 -24 -53q-23 -55 -23 -98q0 -72 92 -125q113 -64 332 -64q216 0 383 72q-19 42 -19 90q0 82 87 213
q89 131 137 131q35 0 71 -76q37 -74 37 -147q0 -58 -27 -124q-22 -55 -49 -83q45 -14 152 -14h18v-152zM1205 307q0 23 -28 72q-27 51 -46 51q-27 0 -75 -45q-52 -49 -52 -92q11 -29 78 -80q123 61 123 94zM1057 -434l-80 79l80 80l79 -80zM1159 -273l-80 80l80 80l80 -80z
M954 -273l-80 80l80 80l80 -80z" />
    <glyph glyph-name="uni06A7.init" unicode="&#x6a7;" horiz-adv-x="575" 
d="M301 946l-108 -108l-109 108l109 109zM447 283q0 -171 -70 -211q-125 -72 -325 -72h-52q-70 0 -70 76t70 76h74q259 0 326 71q0 22 -17 70t-34 72q-42 -129 -123 -129q-57 0 -97.5 43t-40.5 106q0 97 52 183q49 79 94 79q59 0 132 -108q81 -120 81 -256zM299 436
q-32 72 -92 72q-67 0 -67 -68q0 -23 27.5 -48t56.5 -25q67 0 75 69z" />
    <glyph glyph-name="uni06A7.medi" unicode="&#x6a7;" horiz-adv-x="607" 
d="M410 895l-109 -109l-108 109l108 109zM607 0q-236 0 -334 76q-111 -76 -273 -76q-70 0 -70 76t70 76h19q109 0 131 12q-9 41 -8 84q2 105 93 230q87 118 142 118q35 0 72 -75.5t37 -147.5q0 -58 -27 -124q-23 -56 -49 -83q39 -14 197 -14v-152zM420 299q0 28 -22 76
q-26 55 -54 55q-40 0 -88.5 -49t-48.5 -82t88 -96q125 53 125 96z" />
    <glyph glyph-name="uni06A7.fina" unicode="&#x6a7;" horiz-adv-x="1067" 
d="M837 649l-91 -90l-90 90l90 90zM1067 0h-77q0 -118 -58 -209q-55 -87 -202.5 -148t-303.5 -61q-188 0 -283 111q-71 82 -71 188q0 131 59 230q56 92 76 92q17 0 17 -19q0 -5 -38 -85t-38 -142q0 -105 93 -171.5t232 -66.5q133 0 287 64q133 55 164 98q3 22 3 46
q0 42 -9 69q-53 -16 -109 -16q-174 0 -174 137q0 93 55 173.5t117 80.5q106 0 162 -226q23 7 98 7v-152zM867 129q-37 125 -97 125q-28 0 -53.5 -30t-25.5 -54q0 -51 96 -53q46 -1 80 12z" />
    <glyph glyph-name="uni06A8.init" unicode="&#x6a8;" horiz-adv-x="575" 
d="M447 283q0 -171 -70 -211q-125 -72 -325 -72h-53q-70 0 -70 76t70 76h75q258 0 326 71q0 21 -17 70q-8 24 -17 42t-17 30q-42 -129 -123 -129q-58 0 -98 43t-40 106q0 98 52 183q49 79 94 79q58 0 132 -108q81 -120 81 -256zM299 436q-32 72 -92 72q-67 0 -67 -68
q0 -23 27 -48q28 -25 57 -25q67 0 75 69zM283 1021l-80 -80l-80 80l80 80zM385 860l-79 -80l-80 80l80 79zM181 860l-80 -80l-80 80l80 79z" />
    <glyph glyph-name="uni06A8.medi" unicode="&#x6a8;" horiz-adv-x="607" 
d="M607 0q-237 0 -334 76q-111 -76 -273 -76q-70 0 -70 76t70 76h19q108 0 131 12q-9 42 -8 84q2 106 93 230q87 118 142 118q35 0 72 -76q37 -74 37 -147q0 -58 -27 -124q-22 -55 -49 -83q40 -14 197 -14v-152zM420 299q0 29 -22 76q-25 55 -54 55q-40 0 -89 -49
q-48 -50 -48 -82q0 -33 88 -96q125 53 125 96zM393 991l-80 -80l-80 80l80 79zM495 829l-79 -80l-80 80l80 80zM291 829l-80 -80l-80 80l80 80z" />
    <glyph glyph-name="uni06A8.fina" unicode="&#x6a8;" horiz-adv-x="1067" 
d="M1067 0h-77q0 -118 -58 -209q-55 -87 -202.5 -148t-303.5 -61q-188 0 -283 111q-71 82 -71 188q0 131 59 230q56 92 76 92q17 0 17 -19q0 -5 -38 -85t-38 -142q0 -105 93 -171.5t232 -66.5q133 0 287 64q133 55 164 98q3 22 3 46q0 42 -9 69q-53 -16 -109 -16
q-174 0 -174 137q0 93 55 173.5t117 80.5q106 0 162 -226q23 7 98 7v-152zM867 129q-37 125 -97 125q-28 0 -53.5 -30t-25.5 -54q0 -51 96 -53q46 -1 80 12zM833 805l-80 -80l-80 80l80 80zM935 644l-79 -80l-80 80l80 79zM731 644l-80 -80l-80 80l80 79z" />
    <glyph glyph-name="uni06AA.init" unicode="&#x6aa;" horiz-adv-x="758" 
d="M668 1188l-25 -131q-243 -115 -405 -201q-182 -96 -182 -129q0 -25 46 -48q82 -42 130 -79q215 -164 215 -328q0 -272 -418 -272h-29q-70 0 -70 76t70 76h90q139 0 226 30q84 30 84 74q0 57 -79 136.5t-204 150.5q-62 35 -75 46q-29 24 -29 58v72q0 111 164 213
q129 80 491 256z" />
    <glyph glyph-name="uni06AA.medi" unicode="&#x6aa;" horiz-adv-x="910" 
d="M910 0q-62 0 -110 29q-54 32 -138 127q-135 151 -232 219q17 -38 17 -103q0 -272 -424 -272h-23q-70 0 -70 76t70 76h82q318 0 318 122q0 108 -283 269q-62 35 -75 46q-29 24 -29 58v72q0 119 198 231q169 96 592 289l-28 -127q-459 -209 -614 -297q-105 -59 -105 -88
q0 -25 75 -61q198 -96 283 -149q99 -62 195 -155q217 -210 276 -210h25v-152z" />
    <glyph glyph-name="uni06AA.fina" unicode="&#x6aa;" horiz-adv-x="1698" 
d="M1563 1112q-169 -77 -288.5 -133.5t-199.5 -96.5t-126 -66.5t-69.5 -43.5t-29.5 -27t-6 -18q0 -17 17 -29t59 -32q94 -45 161.5 -80t121 -68.5t99 -70t95.5 -85.5q60 -58 103.5 -98t76 -65t55.5 -36t42 -11h24v-152q-29 0 -55 6t-54.5 23t-61.5 47.5t-77 79.5
q-27 30 -58.5 62.5t-63 62.5t-60.5 54q-28 23 -49 38q5 -11 10 -36q6 -27 6 -65q0 -52 -31 -97.5t-84.5 -82.5t-125 -65.5t-152 -48t-165.5 -29.5t-165 -10q-93 0 -162.5 12.5t-119 33.5t-82 48.5t-51 56.5t-26 58t-7.5 53q0 40 15 82t34.5 76.5t39 56.5t28.5 22
q16 0 16 -14q0 -5 -7.5 -18.5t-16 -34.5t-16 -47.5t-7.5 -55.5q0 -33 24 -67t74.5 -62t127.5 -45.5t183 -17.5q74 0 150 10t145.5 26t130.5 37t106 43t71 43.5t26 38.5q0 27 -12.5 54.5t-44.5 59.5t-86.5 69.5t-138.5 85.5q-23 13 -42.5 24t-33.5 22t-21.5 25t-7.5 33v72
q0 25 9 52t32 55.5t61 59.5t97 64q103 59 249.5 129t342.5 160z" />
    <glyph glyph-name="uni06AB.init" unicode="&#x6ab;" horiz-adv-x="758" 
d="M0 0q-70 0 -70 76t70 76h90q71 0 128 8t97.5 22.5t62.5 33.5t22 40q0 28 -21 63.5t-58.5 73.5t-89.5 76.5t-114 73.5q-23 13 -42 24t-33 22t-21.5 25t-7.5 33v72q0 25 7 49.5t25 50.5t50 53.5t82 59.5q25 15 62 35.5t80.5 43.5t91 47.5t94 48t88.5 44.5t75 37l-25 -131
q-143 -68 -241.5 -117.5t-163.5 -83.5q-51 -27 -85.5 -46.5t-56 -34.5t-31 -26.5t-9.5 -21.5q0 -17 11.5 -27t34 -21.5t55.5 -29t75 -49.5q62 -48 103.5 -91.5t66 -84t35 -78.5t10.5 -74q0 -77 -31.5 -129.5t-87.5 -84t-132.5 -45t-166.5 -13.5h-29zM699 1401l-23 -103
l-592 -299l23 103z" />
    <glyph glyph-name="uni06AB.medi" unicode="&#x6ab;" horiz-adv-x="910" 
d="M0 0q-70 0 -70 76t70 76h82q67 0 125 7t101 22t67.5 38t24.5 55q0 27 -13 54.5t-45 59.5t-86.5 69.5t-138.5 85.5q-23 13 -42 24t-33 22t-21.5 25t-7.5 33v72q0 25 9 52t31.5 55.5t61 59.5t96.5 64q104 59 250 129t342 160l-28 -127q-169 -77 -288.5 -133.5t-199.5 -96.5
t-126 -66.5t-69.5 -43.5t-29.5 -27t-6 -18q0 -17 16.5 -29t58.5 -32q94 -45 161.5 -80t121.5 -68.5t99.5 -70t95.5 -85.5q60 -58 103.5 -98t75.5 -65t55.5 -36t41.5 -11h25v-152q-29 0 -55 6t-54.5 23t-61.5 47.5t-77 79.5q-27 30 -59 62.5t-63.5 62.5t-60.5 54
q-28 22 -49 37q5 -11 11 -35q6 -27 6 -65q0 -82 -34.5 -135t-92.5 -83.5t-135 -42t-162 -11.5h-23zM832 1460l-23 -102l-733 -359l23 103z" />
    <glyph glyph-name="uni06AB.fina" unicode="&#x6ab;" horiz-adv-x="1698" 
d="M1563 1112q-169 -77 -288.5 -133.5t-199.5 -96.5t-126 -66.5t-69.5 -43.5t-29.5 -27t-6 -18q0 -17 17 -29t59 -32q94 -45 161.5 -80t121 -68.5t99 -70t95.5 -85.5q60 -58 103.5 -98t76 -65t55.5 -36t42 -11h24v-152q-29 0 -55 6t-54.5 23t-61.5 47.5t-77 79.5
q-27 30 -58.5 62.5t-63 62.5t-60.5 54q-28 23 -49 38q5 -11 10 -36q6 -27 6 -65q0 -52 -31 -97.5t-84.5 -82.5t-125 -65.5t-152 -48t-165.5 -29.5t-165 -10q-93 0 -162.5 12.5t-119 33.5t-82 48.5t-51 56.5t-26 58t-7.5 53q0 40 15 82t34.5 76.5t39 56.5t28.5 22
q16 0 16 -14q0 -5 -7.5 -18.5t-16 -34.5t-16 -47.5t-7.5 -55.5q0 -33 24 -67t74.5 -62t127.5 -45.5t183 -17.5q74 0 150 10t145.5 26t130.5 37t106 43t71 43.5t26 38.5q0 27 -12.5 54.5t-44.5 59.5t-86.5 69.5t-138.5 85.5q-23 13 -42.5 24t-33.5 22t-21.5 25t-7.5 33v72
q0 25 9 52t32 55.5t61 59.5t97 64q103 59 249.5 129t342.5 160zM1620 1460l-22 -102l-733 -359l22 103z" />
    <glyph glyph-name="uni06AC.init" unicode="&#x6ac;" horiz-adv-x="758" 
d="M668 1188l-25 -131q-243 -115 -405 -201q-182 -96 -182 -129q0 -25 46 -48q82 -42 130 -79q215 -164 215 -328q0 -272 -418 -272h-29q-70 0 -70 76t70 76h90q139 0 226 30q84 30 84 74q0 57 -79 136.5t-204 150.5q-62 35 -75 46q-29 24 -29 58v72q0 111 164 213
q129 80 491 256zM275 1208l-80 -80l-80 80l80 80z" />
    <glyph glyph-name="uni06AC.medi" unicode="&#x6ac;" horiz-adv-x="910" 
d="M910 0q-62 0 -110 29q-54 32 -138 127q-135 151 -232 219q17 -38 17 -103q0 -272 -424 -272h-23q-70 0 -70 76t70 76h82q318 0 318 122q0 108 -283 269q-62 35 -75 46q-29 24 -29 58v72q0 119 198 231q169 96 592 289l-28 -127q-459 -209 -614 -297q-105 -59 -105 -88
q0 -25 75 -61q198 -96 283 -149q99 -62 195 -155q217 -210 276 -210h25v-152zM275 1208l-80 -80l-80 80l80 80z" />
    <glyph glyph-name="uni06AC.fina" unicode="&#x6ac;" horiz-adv-x="1229" 
d="M1229 0q-100 0 -150 52q-57 59 -77 208q-22 -48 -36 -69q-23 -35 -58 -60q-77 -55 -221 -101q-160 -50 -291 -50q-155 0 -246 75q-86 72 -86 185q0 89 51 185q46 85 72 85q20 0 20 -23q0 -3 -33.5 -69t-33.5 -111q0 -84 76 -134q85 -56 245 -56q131 0 287 56
q149 54 235 126l-53 778l45 133q10 29 17 29q9 0 14 -109q4 -83 32 -377q30 -317 50 -452q14 -94 40 -121.5t101 -27.5v-152zM692 591q0 -73 -58 -138q-33 -37 -100 -37q-60 0 -99 28q-31 21 -31 40q0 14 13 14q1 0 34.5 -14t65.5 -14q40 0 80 23q37 21 37 35q0 22 -85 34
q-80 11 -80 70q0 62 65 149q70 89 100 89q15 0 36.5 -22t21.5 -30q0 -30 -11 -46l-37 -50q-34 31 -58 31q-18 0 -36.5 -18t-18.5 -34q0 -32 80.5 -51.5t80.5 -58.5zM1073 1449l-80 -80l-80 80l80 80z" />
    <glyph glyph-name="uni06AE.init" unicode="&#x6ae;" horiz-adv-x="758" 
d="M668 1188l-25 -131q-243 -115 -405 -201q-182 -96 -182 -129q0 -25 46 -48q82 -42 130 -79q215 -164 215 -328q0 -272 -418 -272h-29q-70 0 -70 76t70 76h90q139 0 226 30q84 30 84 74q0 57 -79 136.5t-204 150.5q-62 35 -75 46q-29 24 -29 58v72q0 111 164 213
q129 80 491 256zM217 -434l-80 79l80 80l79 -80zM319 -273l-80 80l80 80l80 -80zM114 -273l-80 80l80 80l80 -80z" />
    <glyph glyph-name="uni06AE.medi" unicode="&#x6ae;" horiz-adv-x="910" 
d="M910 0q-62 0 -110 29q-54 32 -138 127q-135 151 -232 219q17 -38 17 -103q0 -272 -424 -272h-23q-70 0 -70 76t70 76h82q318 0 318 122q0 108 -283 269q-62 35 -75 46q-29 24 -29 58v72q0 119 198 231q169 96 592 289l-28 -127q-459 -209 -614 -297q-105 -59 -105 -88
q0 -25 75 -61q198 -96 283 -149q99 -62 195 -155q217 -210 276 -210h25v-152zM217 -434l-80 79l80 80l79 -80zM319 -273l-80 80l80 80l80 -80zM114 -273l-80 80l80 80l80 -80z" />
    <glyph glyph-name="uni06AE.fina" unicode="&#x6ae;" horiz-adv-x="1229" 
d="M1229 0q-100 0 -150 52q-57 59 -77 208q-22 -48 -36 -69q-23 -35 -58 -60q-77 -55 -221 -101q-160 -50 -291 -50q-155 0 -246 75q-86 72 -86 185q0 89 51 185q46 85 72 85q20 0 20 -23q0 -3 -33.5 -69t-33.5 -111q0 -84 76 -134q85 -56 245 -56q131 0 287 56
q149 54 235 126l-53 778l45 133q10 29 17 29q9 0 14 -109q4 -83 32 -377q30 -317 50 -452q14 -94 40 -121.5t101 -27.5v-152zM692 591q0 -73 -58 -138q-33 -37 -100 -37q-60 0 -99 28q-31 21 -31 40q0 14 13 14q1 0 34.5 -14t65.5 -14q40 0 80 23q37 21 37 35q0 22 -85 34
q-80 11 -80 70q0 62 65 149q70 89 100 89q15 0 36.5 -22t21.5 -30q0 -30 -11 -46l-37 -50q-34 31 -58 31q-18 0 -36.5 -18t-18.5 -34q0 -32 80.5 -51.5t80.5 -58.5zM478 -478l-80 79l80 80l79 -80zM580 -317l-80 80l80 80l80 -80zM375 -317l-80 80l80 80l80 -80z" />
    <glyph glyph-name="uni06B0.init" unicode="&#x6b0;" horiz-adv-x="758" 
d="M699 1401l-23 -103l-592 -299l23 103zM323 900q-48 -25 -85 -44q-51 -27 -85.5 -46.5t-56 -34.5t-31 -26.5t-9.5 -21.5q0 -17 11.5 -27t34 -21.5t55.5 -29t75 -49.5q62 -48 103.5 -91.5t66 -84t35 -78.5t10.5 -74q0 -77 -31.5 -129.5t-87.5 -84t-132.5 -45t-166.5 -13.5
h-29q-70 0 -70 76t70 76h90q71 0 128 8t97.5 22.5t62.5 33.5t22 40q0 28 -21 63.5t-58.5 73.5t-89.5 76.5t-114 73.5q-23 13 -42 24t-33 22t-21.5 25t-7.5 33v72q0 25 7 49.5t25 50.5t50 53.5t82 59.5q25 15 62 35.5t80.5 43.5t91 47.5t94 48t88.5 44.5t75 37l-25 -131
q-103 -49 -183 -89l8 -8q46 -46 46 -113q0 -78 -28 -113q-30 -38 -103 -38q-92 0 -92 84q0 51 32 120zM378 928q-4 -2 -9 -5q-32 -49 -32 -89q0 -51 55 -51q32 0 56 12q26 14 26 36t-33 53q-28 26 -63 44z" />
    <glyph glyph-name="uni06B0.medi" unicode="&#x6b0;" horiz-adv-x="910" 
d="M832 1460l-23 -102l-733 -359l23 103zM396 935q-62 -29 -109 -53q-80 -40 -126 -66.5t-69.5 -43.5t-29.5 -27t-6 -18q0 -17 16.5 -29t58.5 -32q94 -45 161.5 -80t121.5 -68.5t99.5 -70t95.5 -85.5q60 -58 103.5 -98t75.5 -65t55.5 -36t41.5 -11h25v-152q-29 0 -55 6
t-54.5 23t-61.5 47.5t-77 79.5q-27 30 -59 62.5t-63.5 62.5t-60.5 54q-28 22 -49 37q5 -11 11 -35q6 -27 6 -65q0 -82 -34.5 -135t-92.5 -83.5t-135 -42t-162 -11.5h-23q-70 0 -70 76t70 76h82q67 0 125 7t101 22t67.5 38t24.5 55q0 27 -13 54.5t-45 59.5t-86.5 69.5
t-138.5 85.5q-23 13 -42 24t-33 22t-21.5 25t-7.5 33v72q0 25 9 52t31.5 55.5t61 59.5t96.5 64q104 59 250 129t342 160l-28 -127q-140 -64 -246 -113q5 -4 9 -9q46 -46 46 -113q0 -78 -28 -113q-30 -38 -103 -38q-92 0 -92 84q0 53 35 125zM446 959l-4 -2q-35 -51 -35 -93
q0 -51 55 -51q32 0 56 12q26 14 26 36t-33 53q-29 27 -65 45z" />
    <glyph glyph-name="uni06B0.fina" unicode="&#x6b0;" horiz-adv-x="1698" 
d="M1344 861q0 22 -33 53q-30 28 -67 46q-37 -53 -37 -96q0 -51 55 -51q32 0 56 12q26 14 26 36zM1620 1460l-22 -102l-733 -359l22 103zM1199 943q-71 -34 -124 -61q-80 -40 -126 -66.5t-69.5 -43.5t-29.5 -27t-6 -18q0 -17 17 -29t59 -32q94 -45 161.5 -80t121 -68.5
t99 -70t95.5 -85.5q60 -58 103.5 -98t76 -65t55.5 -36t42 -11h24v-152q-29 0 -55 6t-54.5 23t-61.5 47.5t-77 79.5q-27 30 -58.5 62.5t-63 62.5t-60.5 54q-28 23 -49 38q5 -11 10 -36q6 -27 6 -65q0 -52 -31 -97.5t-84.5 -82.5t-125 -65.5t-152 -48t-165.5 -29.5t-165 -10
q-93 0 -162.5 12.5t-119 33.5t-82 48.5t-51 56.5t-26 58t-7.5 53q0 40 15 82t34.5 76.5t39 56.5t28.5 22q16 0 16 -14q0 -5 -7.5 -18.5t-16 -34.5t-16 -47.5t-7.5 -55.5q0 -33 24 -67t74.5 -62t127.5 -45.5t183 -17.5q74 0 150 10t145.5 26t130.5 37t106 43t71 43.5t26 38.5
q0 27 -12.5 54.5t-44.5 59.5t-86.5 69.5t-138.5 85.5q-23 13 -42.5 24t-33.5 22t-21.5 25t-7.5 33v72q0 25 9 52t32 55.5t61 59.5t97 64q103 59 249.5 129t342.5 160l-29 -127q-134 -61 -237 -109q6 -6 12 -13q46 -46 46 -113q0 -78 -28 -113q-30 -38 -103 -38q-92 0 -92 84
q0 56 38 133z" />
    <glyph glyph-name="uni06B2.init" unicode="&#x6b2;" horiz-adv-x="758" 
d="M0 0q-70 0 -70 76t70 76h90q71 0 128 8t97.5 22.5t62.5 33.5t22 40q0 28 -21 63.5t-58.5 73.5t-89.5 76.5t-114 73.5q-23 13 -42 24t-33 22t-21.5 25t-7.5 33v72q0 25 7 49.5t25 50.5t50 53.5t82 59.5q25 15 62 35.5t80.5 43.5t91 47.5t94 48t88.5 44.5t75 37l-25 -131
q-143 -68 -241.5 -117.5t-163.5 -83.5q-51 -27 -85.5 -46.5t-56 -34.5t-31 -26.5t-9.5 -21.5q0 -17 11.5 -27t34 -21.5t55.5 -29t75 -49.5q62 -48 103.5 -91.5t66 -84t35 -78.5t10.5 -74q0 -77 -31.5 -129.5t-87.5 -84t-132.5 -45t-166.5 -13.5h-29zM699 1401l-23 -103
l-592 -299l23 103zM319 -273l-80 80l80 80l80 -80zM114 -273l-80 80l80 80l80 -80z" />
    <glyph glyph-name="uni06B2.medi" unicode="&#x6b2;" horiz-adv-x="910" 
d="M0 0q-70 0 -70 76t70 76h82q67 0 125 7t101 22t67.5 38t24.5 55q0 27 -13 54.5t-45 59.5t-86.5 69.5t-138.5 85.5q-23 13 -42 24t-33 22t-21.5 25t-7.5 33v72q0 25 9 52t31.5 55.5t61 59.5t96.5 64q104 59 250 129t342 160l-28 -127q-169 -77 -288.5 -133.5t-199.5 -96.5
t-126 -66.5t-69.5 -43.5t-29.5 -27t-6 -18q0 -17 16.5 -29t58.5 -32q94 -45 161.5 -80t121.5 -68.5t99.5 -70t95.5 -85.5q60 -58 103.5 -98t75.5 -65t55.5 -36t41.5 -11h25v-152q-29 0 -55 6t-54.5 23t-61.5 47.5t-77 79.5q-27 30 -59 62.5t-63.5 62.5t-60.5 54
q-28 22 -49 37q5 -11 11 -35q6 -27 6 -65q0 -82 -34.5 -135t-92.5 -83.5t-135 -42t-162 -11.5h-23zM832 1460l-23 -102l-733 -359l23 103zM319 -273l-80 80l80 80l80 -80zM114 -273l-80 80l80 80l80 -80z" />
    <glyph glyph-name="uni06B2.fina" unicode="&#x6b2;" horiz-adv-x="1698" 
d="M1563 1112q-169 -77 -288.5 -133.5t-199.5 -96.5t-126 -66.5t-69.5 -43.5t-29.5 -27t-6 -18q0 -17 17 -29t59 -32q94 -45 161.5 -80t121 -68.5t99 -70t95.5 -85.5q60 -58 103.5 -98t76 -65t55.5 -36t42 -11h24v-152q-29 0 -55 6t-54.5 23t-61.5 47.5t-77 79.5
q-27 30 -58.5 62.5t-63 62.5t-60.5 54q-28 23 -49 38q5 -11 10 -36q6 -27 6 -65q0 -52 -31 -97.5t-84.5 -82.5t-125 -65.5t-152 -48t-165.5 -29.5t-165 -10q-93 0 -162.5 12.5t-119 33.5t-82 48.5t-51 56.5t-26 58t-7.5 53q0 40 15 82t34.5 76.5t39 56.5t28.5 22
q16 0 16 -14q0 -5 -7.5 -18.5t-16 -34.5t-16 -47.5t-7.5 -55.5q0 -33 24 -67t74.5 -62t127.5 -45.5t183 -17.5q74 0 150 10t145.5 26t130.5 37t106 43t71 43.5t26 38.5q0 27 -12.5 54.5t-44.5 59.5t-86.5 69.5t-138.5 85.5q-23 13 -42.5 24t-33.5 22t-21.5 25t-7.5 33v72
q0 25 9 52t32 55.5t61 59.5t97 64q103 59 249.5 129t342.5 160zM1620 1460l-22 -102l-733 -359l22 103zM740 -317l-80 80l80 80l80 -80zM535 -317l-80 80l80 80l80 -80z" />
    <glyph glyph-name="uni06B4.init" unicode="&#x6b4;" horiz-adv-x="758" 
d="M0 0q-70 0 -70 76t70 76h90q71 0 128 8t97.5 22.5t62.5 33.5t22 40q0 28 -21 63.5t-58.5 73.5t-89.5 76.5t-114 73.5q-23 13 -42 24t-33 22t-21.5 25t-7.5 33v72q0 25 7 49.5t25 50.5t50 53.5t82 59.5q25 15 62 35.5t80.5 43.5t91 47.5t94 48t88.5 44.5t75 37l-25 -131
q-143 -68 -241.5 -117.5t-163.5 -83.5q-51 -27 -85.5 -46.5t-56 -34.5t-31 -26.5t-9.5 -21.5q0 -17 11.5 -27t34 -21.5t55.5 -29t75 -49.5q62 -48 103.5 -91.5t66 -84t35 -78.5t10.5 -74q0 -77 -31.5 -129.5t-87.5 -84t-132.5 -45t-166.5 -13.5h-29zM699 1401l-23 -103
l-592 -299l23 103zM275 1558l-80 -80l-80 80l80 80zM377 1397l-79 -80l-80 80l80 79zM173 1397l-80 -80l-80 80l80 79z" />
    <glyph glyph-name="uni06B4.medi" unicode="&#x6b4;" horiz-adv-x="910" 
d="M0 0q-70 0 -70 76t70 76h82q67 0 125 7t101 22t67.5 38t24.5 55q0 27 -13 54.5t-45 59.5t-86.5 69.5t-138.5 85.5q-23 13 -42 24t-33 22t-21.5 25t-7.5 33v72q0 25 9 52t31.5 55.5t61 59.5t96.5 64q104 59 250 129t342 160l-28 -127q-169 -77 -288.5 -133.5t-199.5 -96.5
t-126 -66.5t-69.5 -43.5t-29.5 -27t-6 -18q0 -17 16.5 -29t58.5 -32q94 -45 161.5 -80t121.5 -68.5t99.5 -70t95.5 -85.5q60 -58 103.5 -98t75.5 -65t55.5 -36t41.5 -11h25v-152q-29 0 -55 6t-54.5 23t-61.5 47.5t-77 79.5q-27 30 -59 62.5t-63.5 62.5t-60.5 54
q-28 22 -49 37q5 -11 11 -35q6 -27 6 -65q0 -82 -34.5 -135t-92.5 -83.5t-135 -42t-162 -11.5h-23zM832 1460l-23 -102l-733 -359l23 103zM275 1558l-80 -80l-80 80l80 80zM377 1397l-79 -80l-80 80l80 79zM173 1397l-80 -80l-80 80l80 79z" />
    <glyph glyph-name="uni06B4.fina" unicode="&#x6b4;" horiz-adv-x="1698" 
d="M1563 1112q-169 -77 -288.5 -133.5t-199.5 -96.5t-126 -66.5t-69.5 -43.5t-29.5 -27t-6 -18q0 -17 17 -29t59 -32q94 -45 161.5 -80t121 -68.5t99 -70t95.5 -85.5q60 -58 103.5 -98t76 -65t55.5 -36t42 -11h24v-152q-29 0 -55 6t-54.5 23t-61.5 47.5t-77 79.5
q-27 30 -58.5 62.5t-63 62.5t-60.5 54q-28 23 -49 38q5 -11 10 -36q6 -27 6 -65q0 -52 -31 -97.5t-84.5 -82.5t-125 -65.5t-152 -48t-165.5 -29.5t-165 -10q-93 0 -162.5 12.5t-119 33.5t-82 48.5t-51 56.5t-26 58t-7.5 53q0 40 15 82t34.5 76.5t39 56.5t28.5 22
q16 0 16 -14q0 -5 -7.5 -18.5t-16 -34.5t-16 -47.5t-7.5 -55.5q0 -33 24 -67t74.5 -62t127.5 -45.5t183 -17.5q74 0 150 10t145.5 26t130.5 37t106 43t71 43.5t26 38.5q0 27 -12.5 54.5t-44.5 59.5t-86.5 69.5t-138.5 85.5q-23 13 -42.5 24t-33.5 22t-21.5 25t-7.5 33v72
q0 25 9 52t32 55.5t61 59.5t97 64q103 59 249.5 129t342.5 160zM1620 1460l-22 -102l-733 -359l22 103zM1105 1558l-80 -80l-80 80l80 80zM1207 1397l-79 -80l-80 80l80 79zM1003 1397l-80 -80l-80 80l80 79z" />
    <glyph glyph-name="uni06B5.init" unicode="&#x6b5;" horiz-adv-x="424" 
d="M287 1022q0 -37 -33 -113q-9 -20 -20 -20q-12 0 -23 10q0 -11 21.5 -287t21.5 -362q0 -161 -67 -213q-48 -37 -137 -37h-50q-70 0 -70 76t70 76h84q65 0 103 14q-19 128 -39 440q-17 270 -17 344q-28 34 -28 58q0 17 33 95q36 85 55 85q20 0 20 -68q0 -51 33 -65
q43 -19 43 -33zM31 1554q1 9 4 25q8 30 15 30q16 0 71 -76q9 -14 27 -50q15 -30 24 -73q15 48 34 80q15 27 33 49q49 70 62 70q7 0 16 -31q8 -24 8 -35q0 -1 -1 -4q-4 -7 -21 -20q-29 -21 -54 -54q-10 -19 -21 -38q-25 -57 -33 -88q-4 -14 -4 -23t-4 -11q-2 -3 -10 -3
q-13 0 -14 17q-3 40 -44 118q-11 21 -23 40q-17 22 -39 42q-26 22 -26 28v7z" />
    <glyph glyph-name="uni06B5.medi" unicode="&#x6b5;" horiz-adv-x="455" 
d="M455 0h-45q-144 0 -188 250q-57 -238 -222 -250q-70 0 -70 76t70 76q118 3 164 65q3 29 3 83q0 122 -16 415q-19 324 -20 360q55 113 64 113q7 0 25 -249q25 -332 49 -523q32 -264 159 -264h27v-152zM41 1554q1 9 4 25q8 30 15 30q16 0 71 -76q9 -14 27 -50
q15 -30 24 -73q15 48 34 80q15 27 33 49q49 70 62 70q7 0 16 -31q8 -24 8 -35q0 -1 -1 -4q-4 -7 -21 -20q-29 -21 -54 -54q-10 -19 -21 -38q-25 -57 -33 -88q-4 -14 -4 -23t-4 -11q-2 -3 -10 -3q-13 0 -14 17q-3 40 -44 118q-11 21 -23 40q-17 22 -39 42q-26 22 -26 28v7z
" />
    <glyph glyph-name="uni06B5.fina" unicode="&#x6b5;" 
d="M1063 0h-24q-105 0 -189 117q0 -191 -17 -282q-14 -68 -50 -126q-53 -83 -170 -131q-106 -43 -228 -43q-149 0 -238 80q-83 75 -83 190q0 117 57 234q50 102 78 102q16 0 16 -16q0 -2 -37.5 -78.5t-37.5 -150.5q0 -91 71 -153q81 -71 226 -71q91 0 197 40q113 42 136 93
q-1 124 -32 641q-31 509 -31 562q65 161 74 161q5 0 13 -120q17 -254 56 -637q14 -135 39 -183q41 -77 150 -77h24v-152zM611 1554q1 9 4 25q8 30 15 30q16 0 71 -76q9 -14 27 -50q15 -30 24 -73q15 48 34 80q15 27 33 49q49 70 62 70q7 0 16 -31q8 -24 8 -35q0 -1 -1 -4
q-4 -7 -21 -20q-29 -21 -54 -54q-10 -19 -21 -38q-25 -57 -33 -88q-4 -14 -4 -23t-4 -11q-2 -3 -10 -3q-13 0 -14 17q-3 40 -44 118q-11 21 -23 40q-17 22 -39 42q-26 22 -26 28v7z" />
    <glyph glyph-name="uni06B6.init" unicode="&#x6b6;" horiz-adv-x="424" 
d="M287 1022q0 -37 -33 -113q-9 -20 -20 -20q-12 0 -23 10q0 -11 21.5 -287t21.5 -362q0 -161 -67 -213q-48 -37 -137 -37h-50q-70 0 -70 76t70 76h84q65 0 103 14q-19 128 -39 440q-17 270 -17 344q-28 34 -28 58q0 17 33 95q36 85 55 85q20 0 20 -68q0 -51 33 -65
q43 -19 43 -33zM261 1373l-80 -80l-80 80l80 80z" />
    <glyph glyph-name="uni06B6.medi" unicode="&#x6b6;" horiz-adv-x="455" 
d="M455 0h-45q-144 0 -188 250q-57 -238 -222 -250q-70 0 -70 76t70 76q118 3 164 65q3 29 3 83q0 122 -16 415q-19 324 -20 360q55 113 64 113q7 0 25 -249q25 -332 49 -523q32 -264 159 -264h27v-152zM271 1373l-80 -80l-80 80l80 80z" />
    <glyph glyph-name="uni06B6.fina" unicode="&#x6b6;" 
d="M1063 0h-24q-105 0 -189 117q0 -191 -17 -282q-14 -68 -50 -126q-53 -83 -170 -131q-106 -43 -228 -43q-149 0 -238 80q-83 75 -83 190q0 117 57 234q50 102 78 102q16 0 16 -16q0 -2 -37.5 -78.5t-37.5 -150.5q0 -91 71 -153q81 -71 226 -71q91 0 197 40q113 42 136 93
q-1 124 -32 641q-31 509 -31 562q65 161 74 161q5 0 13 -120q17 -254 56 -637q14 -135 39 -183q41 -77 150 -77h24v-152zM831 1373l-80 -80l-80 80l80 80z" />
    <glyph glyph-name="uni06B7.init" unicode="&#x6b7;" horiz-adv-x="424" 
d="M287 1022q0 -37 -33 -113q-9 -20 -20 -20q-12 0 -23 10q0 -11 21.5 -287t21.5 -362q0 -161 -67 -213q-48 -37 -137 -37h-50q-70 0 -70 76t70 76h84q65 0 103 14q-19 128 -39 440q-17 270 -17 344q-28 34 -28 58q0 17 33 95q36 85 55 85q20 0 20 -68q0 -51 33 -65
q43 -19 43 -33zM261 1533l-80 -80l-80 80l80 80zM363 1372l-79 -80l-80 80l80 79zM159 1372l-80 -80l-80 80l80 79z" />
    <glyph glyph-name="uni06B7.medi" unicode="&#x6b7;" horiz-adv-x="455" 
d="M455 0h-45q-144 0 -188 250q-57 -238 -222 -250q-70 0 -70 76t70 76q118 3 164 65q3 29 3 83q0 122 -16 415q-19 324 -20 360q55 113 64 113q7 0 25 -249q25 -332 49 -523q32 -264 159 -264h27v-152zM271 1533l-80 -80l-80 80l80 80zM373 1372l-79 -80l-80 80l80 79z
M169 1372l-80 -80l-80 80l80 79z" />
    <glyph glyph-name="uni06B7.fina" unicode="&#x6b7;" 
d="M1063 0h-24q-105 0 -189 117q0 -191 -17 -282q-14 -68 -50 -126q-53 -83 -170 -131q-106 -43 -228 -43q-149 0 -238 80q-83 75 -83 190q0 117 57 234q50 102 78 102q16 0 16 -16q0 -2 -37.5 -78.5t-37.5 -150.5q0 -91 71 -153q81 -71 226 -71q91 0 197 40q113 42 136 93
q-1 124 -32 641q-31 509 -31 562q65 161 74 161q5 0 13 -120q17 -254 56 -637q14 -135 39 -183q41 -77 150 -77h24v-152zM831 1533l-80 -80l-80 80l80 80zM933 1372l-79 -80l-80 80l80 79zM729 1372l-80 -80l-80 80l80 79z" />
    <glyph glyph-name="uni06B8.init" unicode="&#x6b8;" horiz-adv-x="424" 
d="M287 1022q0 -37 -33 -113q-9 -20 -20 -20q-12 0 -23 10q0 -11 21.5 -287t21.5 -362q0 -161 -67 -213q-48 -37 -137 -37h-50q-70 0 -70 76t70 76h84q65 0 103 14q-19 128 -39 440q-17 270 -17 344q-28 34 -28 58q0 17 33 95q36 85 55 85q20 0 20 -68q0 -51 33 -65
q43 -19 43 -33zM192 -421l-80 79l80 80l79 -80zM294 -260l-80 80l80 80l80 -80zM89 -260l-80 80l80 80l80 -80z" />
    <glyph glyph-name="uni06B8.medi" unicode="&#x6b8;" horiz-adv-x="455" 
d="M455 0h-45q-144 0 -188 250q-57 -238 -222 -250q-70 0 -70 76t70 76q118 3 164 65q3 29 3 83q0 122 -16 415q-19 324 -20 360q55 113 64 113q7 0 25 -249q25 -332 49 -523q32 -264 159 -264h27v-152zM200 -422l-80 79l80 80l79 -80zM302 -261l-80 80l80 80l80 -80z
M97 -261l-80 80l80 80l80 -80z" />
    <glyph glyph-name="uni06B8.fina" unicode="&#x6b8;" 
d="M1063 0h-24q-105 0 -189 117q0 -191 -17 -282q-14 -68 -50 -126q-53 -83 -170 -131q-106 -43 -228 -43q-149 0 -238 80q-83 75 -83 190q0 117 57 234q50 102 78 102q16 0 16 -16q0 -2 -37.5 -78.5t-37.5 -150.5q0 -91 71 -153q81 -71 226 -71q91 0 197 40q113 42 136 93
q-1 124 -32 641q-31 509 -31 562q65 161 74 161q5 0 13 -120q17 -254 56 -637q14 -135 39 -183q41 -77 150 -77h24v-152zM453 -870l-80 79l80 80l79 -80zM555 -709l-80 80l80 80l80 -80zM350 -709l-80 80l80 80l80 -80z" />
    <glyph glyph-name="uni06B9.init" unicode="&#x6b9;" horiz-adv-x="444" 
d="M292 778l-109 -108l-108 108l108 109zM277 260q0 -143 -62 -205q-20 -21 -97 -38q-73 -17 -118 -17q-70 0 -70 76t70 76h37q128 0 174 32q0 65 -65 142l45 104q4 10 10 10t16 -16q60 -91 60 -164zM277 -253l-108 -109l-109 109l109 109z" />
    <glyph glyph-name="uni06B9.medi" unicode="&#x6b9;" horiz-adv-x="445" 
d="M312 657l-109 -108l-108 108l108 109zM445 0h-49q-51 0 -108 35q-67 40 -81 96q-62 -124 -207 -131q-70 0 -70 76t70 76h45q126 0 185 133q18 41 41 41q16 0 16 -15q0 -2 -5 -21.5t-5 -39.5q0 -98 168 -98v-152zM328 -263l-108 -109l-109 109l109 109z" />
    <glyph glyph-name="uni06B9.fina" unicode="&#x6b9;" horiz-adv-x="1055" 
d="M627 530l-108 -108l-109 108l109 109zM1055 0h-57q-46 0 -78 18q0 -151 -62 -251q-40 -66 -138 -127q-139 -84 -306 -84q-196 0 -286 101q-64 71 -64 173q0 108 50 215q43 92 67 92q20 0 20 -20q0 -1 -30.5 -73t-30.5 -126q0 -217 313 -217q277 0 401 141q0 173 -79 314
l53 127q9 0 76 -99q22 -32 73 -32h78v-152zM609 -693l-109 -109l-108 109l108 108z" />
    <glyph glyph-name="uni06BC.init" unicode="&#x6bc;" horiz-adv-x="399" 
d="M84 10q-37 -53 -37 -96q0 -51 55 -51q32 0 56 12q26 14 26 36t-33 53q-30 28 -67 46zM45 3q-25 -3 -45 -3q-70 0 -70 76t70 76h37q128 0 174 32q0 65 -65 142l45 104q4 10 10 10t16 -16q60 -91 60 -164q0 -143 -62 -205q-10 -10 -33 -19q42 -45 42 -109q0 -78 -28 -113
q-30 -38 -103 -38q-92 0 -92 84q0 60 44 143zM242 778l-109 -108l-108 108l108 109z" />
    <glyph glyph-name="uni06BC.medi" unicode="&#x6bc;" horiz-adv-x="445" 
d="M184 -89q0 22 -33 53q-30 28 -67 46q-37 -53 -37 -96q0 -51 55 -51q32 0 56 12q26 14 26 36zM46 6q-22 -5 -46 -6q-70 0 -70 76t70 76h45q126 0 185 133q18 41 41 41q16 0 16 -15q0 -2 -5 -21.5t-5 -39.5q0 -98 168 -98v-152h-49q-51 0 -108 35q-67 40 -81 96
q-21 -41 -50 -69q10 -10 21 -22q46 -46 46 -113q0 -78 -28 -113q-30 -38 -103 -38q-92 0 -92 84q0 61 45 146zM282 648l-109 -108l-108 108l108 109z" />
    <glyph glyph-name="uni06BC.fina" unicode="&#x6bc;" horiz-adv-x="1055" 
d="M627 530l-108 -108l-109 108l109 109zM553 -543q0 22 -33 53q-30 28 -67 46q-37 -53 -37 -96q0 -51 55 -51q32 0 56 12q26 14 26 36zM417 -444h-3q-196 0 -286 101q-64 71 -64 173q0 108 50 215q43 92 67 92q20 0 20 -20q0 -1 -30.5 -73t-30.5 -126q0 -217 313 -217
q277 0 401 141q0 173 -79 314l53 127q9 0 76 -99q22 -32 73 -32h78v-152h-57q-46 0 -78 18q0 -151 -62 -251q-40 -66 -138 -127q-76 -46 -161 -67q34 -42 34 -100q0 -78 -28 -113q-30 -38 -103 -38q-92 0 -92 84q0 62 47 150z" />
    <glyph glyph-name="uni06BD.init" unicode="&#x6bd;" horiz-adv-x="444" 
d="M283 911l-80 -80l-80 80l80 80zM385 750l-79 -80l-80 80l80 79zM181 750l-80 -80l-80 80l80 79zM277 260q0 -143 -62 -205q-20 -21 -97 -38q-73 -17 -118 -17q-70 0 -70 76t70 76h37q128 0 174 32q0 65 -65 142l45 104q4 10 10 10t16 -16q60 -91 60 -164z" />
    <glyph glyph-name="uni06BD.medi" unicode="&#x6bd;" horiz-adv-x="445" 
d="M283 791l-80 -80l-80 80l80 79zM385 629l-79 -80l-80 80l80 80zM181 629l-80 -80l-80 80l80 80zM445 0h-49q-51 0 -108 35q-67 40 -81 96q-62 -124 -207 -131q-70 0 -70 76t70 76h45q126 0 185 133q18 41 41 41q16 0 16 -15q0 -2 -5 -21.5t-5 -39.5q0 -98 168 -98v-152z
" />
    <glyph glyph-name="uni06BD.fina" unicode="&#x6bd;" horiz-adv-x="1055" 
d="M1055 0h-57q-46 0 -78 18q0 -151 -62 -251q-40 -66 -138 -127q-139 -84 -306 -84q-196 0 -286 101q-64 71 -64 173q0 108 50 215q43 92 67 92q20 0 20 -20q0 -1 -30.5 -73t-30.5 -126q0 -217 313 -217q277 0 401 141q0 173 -79 314l53 127q9 0 76 -99q22 -32 73 -32h78
v-152zM596 666l-80 -80l-80 80l80 80zM698 505l-79 -80l-80 80l80 79zM494 505l-80 -80l-80 80l80 79z" />
    <glyph glyph-name="uni06BF.init" unicode="&#x6bf;" 
d="M451 780l-109 -108l-108 108l108 109zM953 283l-76 -142q-6 0 -40 2t-58 2q-207 0 -412 -71q-211 -74 -367 -74q-70 0 -70 76t70 76q279 0 490 69q-183 105 -246 105q-57 0 -94 -30t-45 -30q-12 0 -12 21q0 37 40 93q57 79 152 79q57 0 241 -88t337 -88h90zM285 -246
l80 80l80 -80l-80 -80zM490 -246l80 80l80 -80l-80 -80zM387 -408l80 80l80 -80l-80 -79z" />
    <glyph glyph-name="uni06BF.medi" unicode="&#x6bf;" 
d="M451 817l-109 -108l-108 108l108 109zM1063 0q-8 0 -70.5 -2t-131.5 -2q-154 0 -154 164q0 23 6 57q-180 -29 -412 -143q-150 -74 -301 -74q-70 0 -70 76t70 76q285 0 480 127q-198 75 -254 75q-33 0 -66 -25.5t-43 -25.5q-16 0 -16 21q0 32 43 91q60 81 149 81
q57 0 187 -56q172 -73 348 -73h88l-53 -131l-113 -13v-16q0 -66 113 -66q42 0 109.5 5.5t90.5 5.5v-152zM285 -246l80 80l80 -80l-80 -80zM490 -246l80 80l80 -80l-80 -80zM387 -408l80 80l80 -80l-80 -79z" />
    <glyph glyph-name="uni06BF.fina" unicode="&#x6bf;" 
d="M592 809l-108 -109l-109 109l109 109zM1153 -666q0 -19 -61 -32q-30 -7 -213 -68q-106 -35 -244 -35q-262 0 -400 85q-175 108 -175 366q0 196 94 352q80 131 248 262q-40 15 -117 15q-70 0 -115 -35q-12 -10 -34 -43q-18 -27 -29 -27q-14 0 -14 25q0 68 65 141
q72 80 195 80q31 0 144.5 -11.5t172.5 -11.5q160 0 262 21l-53 -133l-107 -13q-10 -15 -10 -69q0 -62 101 -62q42 0 109.5 5.5t90.5 5.5v-152q-8 0 -70.5 -2t-131.5 -2q-154 0 -154 164q0 51 20 108q-268 -34 -427 -190q-150 -148 -150 -350q0 -223 171 -313
q154 -82 490 -74l291 6q51 1 51 -13zM368 -204l80 80l80 -80l-80 -80zM573 -204l80 80l80 -80l-80 -80zM471 -366l80 80l79 -80l-79 -80z" />
    <glyph glyph-name="uni06C2.fina" unicode="&#x6c2;" horiz-adv-x="489" 
d="M392 701q0 -6 -1.5 -15.5t-5 -19t-11 -16.5t-19.5 -8t-34 -2.5t-48 -6.5t-54.5 -14.5t-55.5 -27.5q-8 -5 -21.5 -16.5t-24.5 -11.5q-9 0 -9 15q0 11 10.5 30t40.5 50q-59 33 -59 76q0 16 9 34t32 38q85 73 141 73q30 0 45 -16t15 -32q0 -10 -5 -19t-12.5 -15.5t-16 -10
t-14.5 -3.5q-5 0 -11.5 4t-14 8.5t-16.5 8.5t-19 4q-23 0 -38 -10t-15 -28q0 -9 6.5 -20t18 -20.5t27 -15.5t33.5 -6q9 0 25.5 1t34 2.5t32 3t18.5 1.5q17 0 17 -15zM489 0q-75 0 -117.5 15.5t-76 33.5t-58 33.5t-37.5 15.5q-9 0 -21.5 -12.5t-26.5 -32t-28 -41.5
t-25.5 -41.5t-20 -32t-11.5 -12.5q-5 0 -10 11.5t-5 35.5q0 6 9.5 30t25.5 56.5t36.5 69t42 67t42.5 50.5t38 20q8 0 18.5 -5.5t23.5 -13.5q26 -18 52 -35t54.5 -30.5t54.5 -21.5t40 -8v-152z" />
    <glyph glyph-name="uni06C3.fina" unicode="&#x6c3;" horiz-adv-x="489" 
d="M428 669l-90 -90l-91 90l91 90zM219 669l-90 -90l-90 90l90 90zM489 0q-75 0 -117.5 15.5t-76 33.5t-58 33.5t-37.5 15.5q-9 0 -21.5 -12.5t-26.5 -32t-28 -41.5t-25.5 -41.5t-20 -32t-11.5 -12.5q-5 0 -10 11.5t-5 35.5q0 6 9.5 30t25.5 56.5t36.5 69t42 67t42.5 50.5
t38 20q8 0 18.5 -5.5t23.5 -13.5q26 -18 52 -35t54.5 -30.5t54.5 -21.5t40 -8v-152z" />
    <glyph glyph-name="uni06C4.fina" unicode="&#x6c4;" horiz-adv-x="721" 
d="M600 131q-49 148 -112 148q-25 0 -49.5 -30.5t-24.5 -62.5q0 -24 30.5 -44.5t76.5 -20.5q45 0 79 10zM309 -259q20 -8 61 11q37 17 68 45q-35 54 -75 70q-47 19 -68 -32q-12 -30 -10 -56q3 -30 24 -38zM474 -174q16 16 32 33q86 94 103 143q-29 -4 -84 -4q-88 0 -139 47
q-44 39 -44 92q0 78 60 167q63 93 125 93q96 0 151 -252q22 7 43 7v-152h-45q-15 -97 -122 -234q-137 -174 -291 -174q-87 0 -187 49q-92 45 -92 70q0 15 18 15q-2 0 52 -14.5t108 -14.5q60 0 116 15q-47 24 -64 54q-24 42 4 110q34 85 112 54q62 -25 131 -113q7 9 13 9z
" />
    <glyph glyph-name="uni06CA.fina" unicode="&#x6ca;" horiz-adv-x="721" 
d="M721 0h-45q-15 -97 -122 -234q-137 -174 -291 -174q-87 0 -187 49q-92 45 -92 70q0 15 18 15q-2 0 52 -14.5t108 -14.5q197 0 344 162q86 94 103 143q-29 -4 -84 -4q-88 0 -139 47q-44 39 -44 92q0 78 60 167q63 93 125 93q96 0 151 -252q22 7 43 7v-152zM600 131
q-49 148 -112 148q-25 0 -49.5 -30.5t-24.5 -62.5q0 -24 30.5 -44.5t76.5 -20.5q45 0 79 10zM683 579l-79 -80l-80 80l80 79zM479 579l-80 -80l-80 80l80 79z" />
    <glyph glyph-name="uni06CD.fina" unicode="&#x6cd;" horiz-adv-x="1264" 
d="M75 -229q-5 4 -5 16l1 8q3 19 16 51q22 57 34 76q7 11 75 36q100 38 232 138q17 17 31 17t14 -21q0 4 -59 -85t-59 -175q0 -89 83 -160q87 -73 205 -73q164 0 329 62q145 54 145 85q0 16 -76 25q-105 13 -141 25q-76 25 -76 81q0 101 138.5 188t301.5 87v-152
q-133 0 -227 -27q-80 -23 -80 -45q0 -16 160 -43q104 -17 104 -90q0 -78 -66 -131q-242 -194 -516 -194q-171 0 -265.5 78.5t-94.5 224.5q0 56 18 125l-22 -14q-131 -95 -178 -111q-10 -4 -16 -4q-4 0 -6 2z" />
    <glyph glyph-name="uni06CE.init" unicode="&#x6ce;" horiz-adv-x="444" 
d="M277 260q0 -143 -62 -205q-20 -21 -97 -38q-73 -17 -118 -17q-70 0 -70 76t70 76h37q128 0 174 32q0 65 -65 142l45 104q4 10 10 10t16 -16q60 -91 60 -164zM375 -231l-90 -91l-86 86h-14l-86 -86l-90 91l90 90l86 -86h14l86 86zM49 848q1 9 4 25q8 30 15 30q16 0 71 -76
q9 -14 27 -50q15 -30 24 -73q15 48 34 80q15 27 33 49q49 70 62 70q7 0 16 -31q8 -24 8 -35q0 -1 -1 -4q-4 -7 -21 -20q-29 -21 -54 -54q-10 -19 -21 -38q-25 -57 -33 -88q-4 -14 -4 -23t-4 -11q-2 -3 -10 -3q-13 0 -14 17q-3 40 -44 118q-11 21 -23 40q-17 22 -39 42
q-26 22 -26 28v7z" />
    <glyph glyph-name="uni06CE.medi" unicode="&#x6ce;" horiz-adv-x="445" 
d="M375 -231l-90 -91l-86 86h-14l-86 -86l-90 91l90 90l86 -86h14l86 86zM445 0h-49q-51 0 -108 35q-67 40 -81 96q-62 -124 -207 -131q-70 0 -70 76t70 76h45q126 0 185 133q18 41 41 41q16 0 16 -15q0 -2 -5 -21.5t-5 -39.5q0 -98 168 -98v-152zM93 750q1 9 4 25
q8 30 15 30q16 0 71 -76q9 -14 27 -50q15 -30 24 -73q15 48 34 80q15 27 33 49q49 70 62 70q7 0 16 -31q8 -24 8 -35q0 -1 -1 -4q-4 -7 -21 -20q-29 -21 -54 -54q-10 -19 -21 -38q-25 -57 -33 -88q-4 -14 -4 -23t-4 -11q-2 -3 -10 -3q-13 0 -14 17q-3 40 -44 118
q-11 21 -23 40q-17 22 -39 42q-26 22 -26 28v7z" />
    <glyph glyph-name="uni06CE.fina" unicode="&#x6ce;" horiz-adv-x="1049" 
d="M1049 0q-133 0 -227 -27q-80 -23 -80 -45q0 -16 160 -43q104 -17 104 -90q0 -78 -66 -131q-242 -194 -516 -194q-171 0 -265.5 78.5t-94.5 224.5q0 174 149 323q17 17 31 17t14 -21q0 4 -59 -85t-59 -175q0 -89 83 -160q87 -73 205 -73q164 0 329 62q145 54 145 85
q0 16 -76 25q-105 13 -141 25q-76 25 -76 81q0 101 138.5 188t301.5 87v-152zM279 442q1 9 4 25q8 30 15 30q16 0 71 -76q9 -14 27 -50q15 -30 24 -73q15 48 34 80q15 27 33 49q49 70 62 70q7 0 16 -31q8 -24 8 -35q0 -1 -1 -4q-4 -7 -21 -20q-29 -21 -54 -54
q-10 -19 -21 -38q-25 -57 -33 -88q-4 -14 -4 -23t-4 -11q-2 -3 -10 -3q-13 0 -14 17q-3 40 -44 118q-11 21 -23 40q-17 22 -39 42q-26 22 -26 28v7z" />
    <glyph glyph-name="uni06CF.fina" unicode="&#x6cf;" horiz-adv-x="721" 
d="M721 0h-45q-15 -97 -122 -234q-137 -174 -291 -174q-87 0 -187 49q-92 45 -92 70q0 15 18 15q-2 0 52 -14.5t108 -14.5q197 0 344 162q86 94 103 143q-29 -4 -84 -4q-88 0 -139 47q-44 39 -44 92q0 78 60 167q63 93 125 93q96 0 151 -252q22 7 43 7v-152zM600 131
q-49 148 -112 148q-25 0 -49.5 -30.5t-24.5 -62.5q0 -24 30.5 -44.5t76.5 -20.5q45 0 79 10zM612 603l-109 -108l-108 108l108 109z" />
    <glyph glyph-name="uni06D1.init" unicode="&#x6d1;" horiz-adv-x="444" 
d="M168 -221l-80 -80l-79 80l79 80zM373 -221l-80 -80l-80 80l80 80zM191 -303l80 -80l-80 -80l-80 80zM277 260q0 -143 -62 -205q-20 -21 -97 -38q-37 -8 -70 -12.5t-48 -4.5q-70 0 -70 76t70 76h37q127 0 174 32q0 65 -65 142l45 104q4 10 10 10t16 -16q60 -92 60 -164z
" />
    <glyph glyph-name="uni06D1.medi" unicode="&#x6d1;" horiz-adv-x="445" 
d="M9 -221l79 80l80 -80l-80 -80zM213 -221l80 80l80 -80l-80 -80zM111 -383l80 80l80 -80l-80 -80zM445 0h-49q-51 0 -108 35q-67 40 -81 96q-62 -124 -207 -131q-70 0 -70 76t70 76h45q126 0 185 133q18 41 41 41q16 0 16 -15q0 -2 -5 -21.5t-5 -39.5q0 -98 168 -98v-152z
" />
    <glyph glyph-name="uni06D1.fina" unicode="&#x6d1;" horiz-adv-x="1049" 
d="M1049 0q-133 0 -227 -27q-80 -23 -80 -45q0 -16 160 -43q104 -17 104 -90q0 -78 -66 -131q-242 -194 -516 -194q-171 0 -265.5 78.5t-94.5 224.5q0 174 149 323q17 17 31 17t14 -21q0 4 -59 -85t-59 -175q0 -89 83 -160q87 -73 205 -73q164 0 329 62q145 54 145 85
q0 16 -76 25q-105 13 -141 25q-76 25 -76 81q0 101 138.5 188t301.5 87v-152zM405 -739l-80 -80l-79 80l79 80zM610 -739l-80 -80l-80 80l80 80zM428 -821l80 -80l-80 -80l-80 80z" />
    <glyph glyph-name="uni06D5.fina" unicode="&#x6d5;" horiz-adv-x="660" 
d="M660 0h-6q-105 0 -149 67q-29 44 -52 173l-70 -82q-34 -41 -98 -41q-211 0 -211 61q0 39 64 127q31 44 74 74q50 36 202 117l-10 82q0 19 16 73t23 54q9 0 18 -68q45 -310 79 -403q31 -82 91 -82h29v-152zM445 295l-19 121l-202 -109q-25 -13 -25 -33q0 -35 141 -28
q68 3 105 49z" />
    <glyph glyph-name="uni06EE.fina" unicode="&#x6ee;" horiz-adv-x="797" 
d="M797 0q-87 0 -128 32q-55 43 -95 177q-53 -101 -149.5 -160t-202.5 -59q-148 0 -148 102q0 131 35 131q20 0 20 -30q0 -52 109 -52q202 0 313 133q-79 330 -79 379q33 127 43 127q6 0 12 -24l67 -283q49 -204 87 -267q32 -54 94 -54h22v-152zM336 1027q0 6 26 28
q22 20 39 42q12 19 23 40q41 78 44 118q1 17 14 17q8 0 10 -3q4 -2 4 -11t4 -23q8 -31 33 -88q11 -19 21 -38q25 -33 54 -54q17 -13 21 -20q1 -3 1 -4q0 -11 -8 -35q-9 -31 -16 -31q-13 0 -62 70q-18 22 -33 49q-19 32 -34 80q-9 -43 -24 -73q-18 -36 -27 -50
q-55 -76 -71 -76q-7 0 -15 30q-3 16 -4 25v7z" />
    <glyph glyph-name="uni06EF.fina" unicode="&#x6ef;" horiz-adv-x="721" 
d="M721 0h-61q-73 -236 -196 -357q-110 -108 -240 -108q-52 0 -105 25q-135 63 -135 94q0 18 18 18q6 0 50 -9t92 -9q132 0 271 113q134 109 190 251q-105 53 -105 86l23 113q2 14 10 14q-1 0 58.5 -39.5t107.5 -39.5h22v-152zM283 530q0 6 26 28q22 20 39 42q12 19 23 40
q41 78 44 118q1 17 14 17q8 0 10 -3q4 -2 4 -11t4 -23q8 -31 33 -88q11 -19 21 -38q25 -33 54 -54q17 -13 21 -20q1 -3 1 -4q0 -11 -8 -35q-9 -31 -16 -31q-13 0 -62 70q-18 22 -33 49q-19 32 -34 80q-9 -43 -24 -73q-18 -36 -27 -50q-55 -76 -71 -76q-7 0 -15 30
q-3 16 -4 25v7z" />
    <glyph glyph-name="uni06FA.init" unicode="&#x6fa;" horiz-adv-x="1030" 
d="M668 791l-80 -80l-80 80l80 79zM770 629l-79 -80l-80 80l80 80zM566 629l-80 -80l-80 80l80 80zM920 285q0 -76 -40 -161q-49 -104 -120 -104q-100 0 -209 95q-90 -107 -207 -107q-113 0 -141 115q-44 -117 -203 -123q-70 0 -70 76t70 76h27q83 0 137 46q33 29 62 87
q24 47 34 47q18 0 17 -15l-4 -47q-11 -125 119 -125q74 0 124 52q29 30 60 96q24 51 37 51q14 0 14 -16l-8 -90q18 -25 81 -51q73 -31 134 -29q19 64 0 127l29 49q25 43 39 43q18 0 18 -92zM642 -206l-79 -80l-80 80l80 79z" />
    <glyph glyph-name="uni06FA.medi" unicode="&#x6fa;" 
d="M680 791l-80 -80l-79 80l79 79zM783 629l-80 -80l-80 80l80 80zM578 629l-80 -80l-80 80l80 80zM1063 0h-43q-55 0 -106.5 26t-73.5 64q-59 -90 -129 -90q-85 0 -166 86q-69 -86 -190 -86t-156 113q-61 -107 -199 -113q-70 0 -70 76t70 76h25q139 0 205 115q19 32 30 32
q21 0 21 -16q0 -6 -3 -24t-3 -28q0 -84 115 -84q77 0 128 45q31 27 60 81q23 44 33 44q23 0 20 -22l-10 -74q0 -23 42.5 -46t92.5 -23q43 0 88.5 77.5t57.5 77.5q22 0 22 -18q0 -2 -7 -22.5t-7 -39.5q0 -75 94 -75h59v-152zM642 -206l-79 -80l-80 80l80 79z" />
    <glyph glyph-name="uni06FA.fina" unicode="&#x6fa;" horiz-adv-x="1702" 
d="M1319 791l-80 -80l-79 80l79 79zM1422 629l-80 -80l-80 80l80 80zM1217 629l-80 -80l-80 80l80 80zM1702 0h-43q-56 0 -107 26t-73 64q-62 -90 -129 -90q-107 0 -170 84q-65 -84 -184 -84q-48 0 -76 18q0 -151 -62 -251q-40 -66 -138 -127q-139 -84 -306 -84
q-196 0 -286 101q-64 71 -64 173q0 108 50 215q43 92 67 92q20 0 20 -20q0 -1 -30.5 -73t-30.5 -126q0 -217 313 -217q277 0 401 141q0 173 -79 314l53 127q8 0 76 -99q32 -47 120 -47q78 0 132 47q35 29 66 87q26 46 34 46q18 0 18 -18l-8 -78q0 -21 47.5 -45t91.5 -24
q38 0 82 77.5t53 77.5q23 0 23 -18q0 -3 -7 -22.5t-7 -39.5q0 -75 94 -75h59v-152zM1282 -206l-79 -80l-80 80l80 79z" />
    <glyph glyph-name="uni06FB.init" unicode="&#x6fb;" horiz-adv-x="1210" 
d="M641 788l-108 -108l-109 108l109 109zM1006 330q0 29 -57.5 52.5t-118.5 23.5q-146 0 -420 -275h51q146 0 345.5 72.5t199.5 126.5zM1110 406q0 -91 -118 -218q-88 -93 -268 -154q-160 -54 -291 -54q-115 0 -172 43q-46 35 -78 122q-66 -136 -183 -145q-70 0 -70 76
t70 76h17q74 0 129.5 58t52.5 58q12 0 21 -20q40 -103 114 -103q393 394 580 394q70 0 133 -41.5t63 -91.5zM634 -263l-108 -108l-109 108l109 109z" />
    <glyph glyph-name="uni06FB.medi" unicode="&#x6fb;" horiz-adv-x="1211" 
d="M641 788l-108 -108l-109 108l109 109zM1006 330q0 29 -57.5 52.5t-118.5 23.5q-146 0 -420 -275h51q146 0 345.5 72.5t199.5 126.5zM1211 0q-84 0 -202.5 -3t-156.5 -3q-183 0 -229 10q-111 -24 -190 -24q-115 0 -172 43q-46 35 -78 122q-66 -136 -183 -145q-70 0 -70 76
t70 76h17q74 0 129.5 58t52.5 58q12 0 21 -20q40 -103 114 -103q393 394 580 394q70 0 133 -41.5t63 -91.5q0 -53 -47 -128q-53 -81 -139 -147q35 0 123 10.5t164 10.5v-152zM624 -263l-108 -108l-109 108l109 109z" />
    <glyph glyph-name="uni06FB.fina" unicode="&#x6fb;" horiz-adv-x="1897" 
d="M1327 788l-108 -108l-109 108l109 109zM1897 0q-84 0 -202.5 -3t-156.5 -3q-183 0 -229 10q-111 -24 -190 -24q-124 0 -199 38q0 -151 -62 -251q-40 -66 -138 -127q-139 -84 -306 -84q-196 0 -286 101q-64 71 -64 173q0 108 50 215q43 92 67 92q20 0 20 -20
q0 -1 -30.5 -73t-30.5 -126q0 -217 313 -217q277 0 401 141q0 173 -79 314l53 127q8 0 76 -99q26 -39 116 -39q394 394 580 394q70 0 133 -41.5t63 -91.5q0 -53 -47 -128q-53 -81 -139 -147q35 0 123.5 10.5t163.5 10.5v-152zM1692 330q0 29 -57.5 52.5t-118.5 23.5
q-146 0 -420 -275h51q146 0 345.5 72.5t199.5 126.5zM1404 -263l-108 -108l-109 108l109 109z" />
    <glyph glyph-name="uni06FC.init" unicode="&#x6fc;" horiz-adv-x="854" 
d="M418 889l-108 -109l-109 109l109 108zM758 328l-45 -129q-99 -52 -377 -127q-245 -65 -336 -72q-70 0 -70 76t70 76q97 0 162 18q-72 89 -72 162q0 76 83 181q96 122 206 122q77 0 157 -52q71 -46 71 -73q0 -12 -15 -12q-2 0 -47 16t-94 16q-51 0 -128 -25
q-92 -30 -161 -79q68 -163 246 -217q100 25 217 69q67 25 133 50zM415 -216l-109 -108l-109 108l109 109z" />
    <glyph glyph-name="uni06FC.medi" unicode="&#x6fc;" horiz-adv-x="648" 
d="M430 779l-108 -107l-109 108l109 109zM648 0q-102 0 -166 25q-74 30 -150 110q-178 -128 -332 -135q-70 0 -70 76t70 76q156 0 271 61q-37 70 -174 76q0 68 62 120q72 60 192 60q99 0 159 -36t60 -97q0 -34 -35.5 -76t-83.5 -65q51 -43 164 -43h33v-152zM415 -216
l-109 -108l-109 108l109 109z" />
    <glyph glyph-name="uni06FC.fina" unicode="&#x6fc;" horiz-adv-x="848" 
d="M527 780l-109 -108l-108 108l108 109zM998 -672q0 -19 -60 -35q-2 0 -165 -57q-103 -37 -187 -37q-536 0 -536 414q0 200 99 373q83 147 208 231q-47 47 -170 47q9 84 85 140q80 59 199 59q85 0 140 -39.5t55 -97.5q0 -67 -115 -138q30 -36 117 -36h180v-152h-123
q-161 0 -282 145q-135 -75 -222 -197q-96 -134 -96 -276q0 -204 183 -284q125 -56 491 -56q51 0 105 4.5t69 4.5q25 0 25 -13zM602 -294l-109 -108l-109 108l109 109z" />
    <glyph glyph-name="uni06FF.init" unicode="&#x6ff;" horiz-adv-x="789" 
d="M693 231q0 -47 -30 -120.5t-89 -73.5q-121 0 -283 55q-139 -88 -291 -92q-70 0 -70 76t70 76h84q21 0 62 4q-19 33 -19 86q0 112 99 231q-33 14 -33 31q0 51 14 109q16 63 33 63q29 0 258 -174q113 -86 154 -144.5t41 -126.5zM643 195q0 26 -46 77q-59 66 -162 127
q22 -45 22 -90q0 -63 -33 -100q129 -43 191 -43q28 0 28 29zM400 311q0 36 -34.5 81.5t-59.5 45.5q-37 0 -78 -47t-41 -82q0 -34 43 -60q38 -23 88 -28q82 27 82 90zM89 851q0 6 26 28q22 20 39 42q12 19 23 40q41 78 44 118q1 17 14 17q8 0 10 -3q4 -2 4 -11t4 -23
q8 -31 33 -88q11 -19 21 -38q25 -33 54 -54q17 -13 21 -20q1 -3 1 -4q0 -11 -8 -35q-9 -31 -16 -31q-13 0 -62 70q-18 22 -33 49q-19 32 -34 80q-9 -43 -24 -73q-18 -36 -27 -50q-55 -76 -71 -76q-7 0 -15 30q-3 16 -4 25v7z" />
    <glyph glyph-name="uni06FF.medi" unicode="&#x6ff;" horiz-adv-x="758" 
d="M758 0h-264q78 -78 78 -188q0 -85 -42 -149q-45 -71 -114 -71q-103 0 -169 93q-72 100 -70 276q-56 -22 -68 -22t-12 16q0 23 16 55q-31 -2 -73 -6l-40 -4q-70 0 -70 76t70 76h93q100 0 114 8q77 196 165 323q72 103 99 103t55 -52q31 -58 31 -126q0 -73 -31.5 -145
t-95.5 -133q20 5 102 13.5t226 8.5v-152zM514 -195q-65 130 -264 152q0 -52 42 -121q55 -90 141 -90q78 0 81 59zM494 313q0 30 -21 75q-21 46 -34 46q-29 0 -90 -96q-31 -48 -51.5 -90t-30.5 -78q87 28 159 75q68 44 68 68zM309 761q0 6 26 28q22 20 39 42q12 19 23 40
q41 78 44 118q1 17 14 17q8 0 10 -3q4 -2 4 -11t4 -23q8 -31 33 -88q11 -19 21 -38q25 -33 54 -54q17 -13 21 -20q1 -3 1 -4q0 -11 -8 -35q-9 -31 -16 -31q-13 0 -62 70q-18 22 -33 49q-19 32 -34 80q-9 -43 -24 -73q-18 -36 -27 -50q-55 -76 -71 -76q-7 0 -15 30
q-3 16 -4 25v7z" />
    <glyph glyph-name="uni06FF.fina" unicode="&#x6ff;" horiz-adv-x="807" 
d="M807 0h-264q78 -78 78 -188q0 -85 -42 -149q-45 -71 -114 -71q-103 0 -169 93q-35 50 -52.5 115.5t-17.5 138.5q0 14 0.5 27t2.5 24q-53 -17 -104 -43t-80 -57q-14 0 -14 12q10 32 24.5 71.5t34.5 71.5q17 34 61.5 63.5t104.5 51.5q77 196 165 323q72 103 99 103t55 -52
q31 -58 31 -126q0 -146 -127 -267q42 11 328 11v-152zM543 313q0 30 -21 75q-21 46 -34 46q-29 0 -90 -96q-31 -48 -51.5 -90t-30.5 -78q87 28 159 75q68 44 68 68zM563 -195q-65 130 -264 152q0 -52 42 -121q55 -90 141 -90q78 0 81 59zM359 761q0 6 26 28q22 20 39 42
q12 19 23 40q41 78 44 118q1 17 14 17q8 0 10 -3q4 -2 4 -11t4 -23q8 -31 33 -88q11 -19 21 -38q25 -33 54 -54q17 -13 21 -20q1 -3 1 -4q0 -11 -8 -35q-9 -31 -16 -31q-13 0 -62 70q-18 22 -33 49q-19 32 -34 80q-9 -43 -24 -73q-18 -36 -27 -50q-55 -76 -71 -76
q-7 0 -15 30q-3 16 -4 25v7z" />
    <glyph glyph-name="uniFB50" unicode="&#x671;" horiz-adv-x="455" arabic-form="isolated" 
d="M254 240q0 -99 -23 -183q-22 -82 -46 -82q-11 0 -11 97q0 186 -27 528q-13 173 -19.5 276.5t-6.5 141.5q58 151 76 151q14 0 14 -143q0 -79 21 -403q11 -162 16.5 -257.5t5.5 -125.5zM372 1466q0 -53 -39 -98q-30 -35 -63.5 -49t-68.5 -14q-29 0 -51.5 5.5t-40.5 12.5
t-33 12.5t-27 5.5t-20.5 -6t-15 -12.5t-12.5 -12t-13 -5.5q-12 0 -12 19q0 14 6.5 32t18 33.5t27.5 26t36 10.5q21 0 39 -7q16 21 35.5 45t42 43.5t49.5 32.5t59 13q38 0 60.5 -23.5t22.5 -63.5zM141 1404q20 -11 46 -16t50 -5q37 0 60 15t23 38q0 21 -14 34t-39 13
q-32 0 -63.5 -21.5t-62.5 -57.5z" />
    <glyph glyph-name="uniFB51" unicode="&#x671;" horiz-adv-x="455" arabic-form="final" 
d="M455 0h-59q-108 0 -168 78q-57 73 -68 244q-32 516 -72 714q50 152 66 152q18 0 32 -127q13 -113 44 -535q18 -246 53 -316q30 -58 115 -58h57v-152zM352 1476q0 -53 -39 -98q-30 -35 -63.5 -49t-68.5 -14q-29 0 -51.5 5.5t-40.5 12.5t-33 12.5t-27 5.5t-20.5 -6
t-15 -12.5t-12.5 -12t-13 -5.5q-12 0 -12 19q0 14 6.5 32t18 33.5t27.5 26t36 10.5q21 0 39 -7q16 21 35.5 45t42 43.5t49.5 32.5t59 13q38 0 60.5 -23.5t22.5 -63.5zM121 1414q20 -11 46 -16t50 -5q37 0 60 15t23 38q0 21 -14 34t-39 13q-32 0 -63.5 -21.5t-62.5 -57.5z
" />
    <glyph glyph-name="uniFB52" unicode="&#x67b;" horiz-adv-x="1356" arabic-form="isolated" 
d="M605 -292l79 80l80 -80l-80 -79zM562 90q114 0 216.5 12.5t184 30.5t138.5 38.5t79 35.5q0 13 -12.5 34.5t-29 44t-33 41.5t-23.5 27q0 4 5 20.5t12.5 36.5t15 39t12.5 29q6 13 10 13q5 0 11.5 -6.5t13.5 -14.5q45 -57 69.5 -106t24.5 -91q0 -24 -5.5 -50t-14.5 -49.5
t-21 -42.5t-25 -28q-45 -32 -116.5 -61.5t-162 -52.5t-194.5 -37t-213 -14q-137 0 -222.5 24t-134 62t-66 84t-17.5 90q0 36 15 77.5t35 77t40 59t31 23.5q9 0 12.5 -5t3.5 -13q0 -5 -8 -21t-17.5 -38t-17.5 -47.5t-8 -47.5q0 -31 19 -62t66 -56t126.5 -40.5t200.5 -15.5z
M605 -471l79 80l80 -80l-80 -79z" />
    <glyph glyph-name="uniFB53" unicode="&#x67b;" horiz-adv-x="1366" arabic-form="final" 
d="M1366 0q-32 0 -66 3.5t-63.5 17t-51 41t-27.5 75.5q-36 -29 -95 -63.5t-138.5 -64.5t-177 -50t-210.5 -20q-140 0 -231.5 26.5t-145 66t-75 86.5t-21.5 89q0 40 15 82t34.5 76.5t39 56.5t28.5 22q16 0 16 -14q0 -5 -7.5 -18.5t-16 -34t-16 -46t-7.5 -52.5q0 -30 21 -63.5
t70.5 -61t131 -46t201.5 -18.5q97 0 192.5 16t176.5 41t141.5 56t87.5 61q20 22 30.5 30.5t16.5 8.5t12 -5.5t6 -10.5q0 -10 -5 -26.5t-5 -29.5q0 -9 7.5 -22.5t21.5 -26t33.5 -21.5t44.5 -9h32v-152zM565 -292l79 80l80 -80l-80 -79zM565 -471l79 80l80 -80l-80 -79z" />
    <glyph glyph-name="uniFB54" unicode="&#x67b;" horiz-adv-x="444" arabic-form="initial" 
d="M277 260q0 -143 -62 -205q-20 -21 -97 -38q-37 -8 -70 -12.5t-48 -4.5q-70 0 -70 76t70 76h37q127 0 174 32q0 65 -65 142l45 104q4 10 10 10t16 -16q60 -92 60 -164zM47 -223l79 80l80 -80l-80 -79zM47 -402l79 80l80 -80l-80 -79z" />
    <glyph glyph-name="uniFB55" unicode="&#x67b;" horiz-adv-x="445" arabic-form="medial" 
d="M445 0h-49q-51 0 -108 35q-67 40 -81 96q-62 -124 -207 -131q-70 0 -70 76t70 76h45q126 0 185 133q18 41 41 41q16 0 16 -15q0 -2 -5 -21.5t-5 -39.5q0 -98 168 -98v-152zM55 -223l79 80l80 -80l-80 -79zM55 -402l79 80l80 -80l-80 -79z" />
    <glyph glyph-name="uniFB56" unicode="&#x67e;" horiz-adv-x="1356" arabic-form="isolated" 
d="M502 -289l80 80l80 -80l-80 -80zM707 -289l80 80l80 -80l-80 -80zM605 -451l79 80l80 -80l-80 -79zM562 90q114 0 216.5 12.5t184 30.5t138.5 38.5t79 35.5q0 13 -12.5 34.5t-29 44t-33 41.5t-23.5 27q0 4 5 20.5t12.5 36.5t15 39t12.5 29q6 13 10 13q5 0 11.5 -6.5
t13.5 -14.5q45 -57 69.5 -106t24.5 -91q0 -24 -5.5 -50t-14.5 -49.5t-21 -42.5t-25 -28q-45 -32 -116.5 -61.5t-162 -52.5t-194.5 -37t-213 -14q-137 0 -222.5 24t-134 62t-66 84t-17.5 90q0 36 15 77.5t35 77t40 59t31 23.5q9 0 12.5 -5t3.5 -13q0 -5 -8 -21t-17.5 -38
t-17.5 -47.5t-8 -47.5q0 -31 19 -62t66 -56t126.5 -40.5t200.5 -15.5z" />
    <glyph glyph-name="uniFB57" unicode="&#x67e;" horiz-adv-x="1366" arabic-form="final" 
d="M463 -299l80 80l80 -80l-80 -80zM668 -299l80 80l80 -80l-80 -80zM566 -461l80 80l79 -80l-79 -79zM1366 0q-32 0 -66 3.5t-63.5 17t-51 41t-27.5 75.5q-36 -29 -95 -63.5t-138.5 -64.5t-177 -50t-210.5 -20q-140 0 -231.5 26.5t-145 66t-75 86.5t-21.5 89q0 40 15 82
t34.5 76.5t39 56.5t28.5 22q16 0 16 -14q0 -5 -7.5 -18.5t-16 -34t-16 -46t-7.5 -52.5q0 -30 21 -63.5t70.5 -61t131 -46t201.5 -18.5q97 0 192.5 16t176.5 41t141.5 56t87.5 61q20 22 30.5 30.5t16.5 8.5t12 -5.5t6 -10.5q0 -10 -5 -26.5t-5 -29.5q0 -9 7.5 -22.5t21.5 -26
t33.5 -21.5t44.5 -9h32v-152z" />
    <glyph glyph-name="uniFB58" unicode="&#x67e;" horiz-adv-x="444" arabic-form="initial" 
d="M168 -221l-80 -80l-79 80l79 80zM373 -221l-80 -80l-80 80l80 80zM191 -303l80 -80l-80 -80l-80 80zM277 260q0 -143 -62 -205q-20 -21 -97 -38q-37 -8 -70 -12.5t-48 -4.5q-70 0 -70 76t70 76h37q127 0 174 32q0 65 -65 142l45 104q4 10 10 10t16 -16q60 -92 60 -164z
" />
    <glyph glyph-name="uniFB59" unicode="&#x67e;" horiz-adv-x="445" arabic-form="medial" 
d="M9 -221l79 80l80 -80l-80 -80zM213 -221l80 80l80 -80l-80 -80zM111 -383l80 80l80 -80l-80 -80zM445 0h-49q-51 0 -108 35q-67 40 -81 96q-62 -124 -207 -131q-70 0 -70 76t70 76h45q126 0 185 133q18 41 41 41q16 0 16 -15q0 -2 -5 -21.5t-5 -39.5q0 -98 168 -98v-152z
" />
    <glyph glyph-name="uniFB5A" unicode="&#x680;" horiz-adv-x="1356" arabic-form="isolated" 
d="M498 -476l80 80l80 -80l-80 -80zM703 -476l80 80l80 -80l-80 -80zM562 90q114 0 216.5 12.5t184 30.5t138.5 38.5t79 35.5q0 13 -12.5 34.5t-29 44t-33 41.5t-23.5 27q0 4 5 20.5t12.5 36.5t15 39t12.5 29q6 13 10 13q5 0 11.5 -6.5t13.5 -14.5q45 -57 69.5 -106
t24.5 -91q0 -24 -5.5 -50t-14.5 -49.5t-21 -42.5t-25 -28q-45 -32 -116.5 -61.5t-162 -52.5t-194.5 -37t-213 -14q-137 0 -222.5 24t-134 62t-66 84t-17.5 90q0 36 15 77.5t35 77t40 59t31 23.5q9 0 12.5 -5t3.5 -13q0 -5 -8 -21t-17.5 -38t-17.5 -47.5t-8 -47.5
q0 -31 19 -62t66 -56t126.5 -40.5t200.5 -15.5zM502 -289l80 80l80 -80l-80 -80zM707 -289l80 80l80 -80l-80 -80z" />
    <glyph glyph-name="uniFB5B" unicode="&#x680;" horiz-adv-x="1366" arabic-form="final" 
d="M463 -483l80 80l80 -80l-80 -80zM668 -483l80 80l80 -80l-80 -80zM1366 0q-32 0 -66 3.5t-63.5 17t-51 41t-27.5 75.5q-36 -29 -95 -63.5t-138.5 -64.5t-177 -50t-210.5 -20q-140 0 -231.5 26.5t-145 66t-75 86.5t-21.5 89q0 40 15 82t34.5 76.5t39 56.5t28.5 22
q16 0 16 -14q0 -5 -7.5 -18.5t-16 -34t-16 -46t-7.5 -52.5q0 -30 21 -63.5t70.5 -61t131 -46t201.5 -18.5q97 0 192.5 16t176.5 41t141.5 56t87.5 61q20 22 30.5 30.5t16.5 8.5t12 -5.5t6 -10.5q0 -10 -5 -26.5t-5 -29.5q0 -9 7.5 -22.5t21.5 -26t33.5 -21.5t44.5 -9h32
v-152zM463 -299l80 80l80 -80l-80 -80zM668 -299l80 80l80 -80l-80 -80z" />
    <glyph glyph-name="uniFB5C" unicode="&#x680;" horiz-adv-x="444" arabic-form="initial" 
d="M168 -401l-80 -80l-79 80l79 80zM373 -401l-80 -80l-80 80l80 80zM277 260q0 -143 -62 -205q-20 -21 -97 -38q-37 -8 -70 -12.5t-48 -4.5q-70 0 -70 76t70 76h37q127 0 174 32q0 65 -65 142l45 104q4 10 10 10t16 -16q60 -92 60 -164zM168 -221l-80 -80l-79 80l79 80z
M373 -221l-80 -80l-80 80l80 80z" />
    <glyph glyph-name="uniFB5D" unicode="&#x680;" horiz-adv-x="445" arabic-form="medial" 
d="M9 -405l79 80l80 -80l-80 -80zM213 -405l80 80l80 -80l-80 -80zM445 0h-49q-51 0 -108 35q-67 40 -81 96q-62 -124 -207 -131q-70 0 -70 76t70 76h45q126 0 185 133q18 41 41 41q16 0 16 -15q0 -2 -5 -21.5t-5 -39.5q0 -98 168 -98v-152zM9 -221l79 80l80 -80l-80 -80z
M213 -221l80 80l80 -80l-80 -80z" />
    <glyph glyph-name="uniFB5E" unicode="&#x67a;" horiz-adv-x="1356" arabic-form="isolated" 
d="M1256 274q0 -48 -20 -99.5t-46 -70.5q-95 -67 -278 -114q-200 -51 -408 -51q-440 0 -440 260q0 66 50 155q46 82 71 82q16 0 16 -18l-26 -59q-25 -59 -25 -95q0 -72 85 -118q106 -56 327 -56q205 0 400 43q163 36 218 74q0 39 -98 147q0 29 45 125q6 13 10 13q9 0 25 -21
q94 -120 94 -197zM723 687l-80 -80l-79 80l79 80zM723 862l-80 -80l-79 80l79 80z" />
    <glyph glyph-name="uniFB5F" unicode="&#x67a;" horiz-adv-x="1366" arabic-form="final" 
d="M779 630l-80 -80l-80 80l80 80zM1366 0q-191 0 -208 137q-91 -75 -233 -128q-186 -70 -388 -70q-252 0 -376 92q-97 72 -97 176q0 72 49 159q45 78 68 78q16 0 16 -14q0 2 -23.5 -52.5t-23.5 -98.5q0 -73 92 -125q114 -64 332 -64q185 0 369 57q171 53 229 117
q35 39 47 39q18 0 18 -16q0 -6 -5 -26.5t-5 -29.5q0 -22 29 -49q33 -30 78 -30h32v-152zM775 809l-80 -80l-80 80l80 80z" />
    <glyph glyph-name="uniFB60" unicode="&#x67a;" horiz-adv-x="444" arabic-form="initial" 
d="M279 728l-80 -80l-80 80l80 80zM277 260q0 -143 -62 -205q-20 -21 -97 -38q-73 -17 -118 -17q-70 0 -70 76t70 76h37q128 0 174 32q0 65 -65 142l45 104q4 10 10 10t16 -16q60 -91 60 -164zM283 911l-80 -80l-80 80l80 80z" />
    <glyph glyph-name="uniFB61" unicode="&#x67a;" horiz-adv-x="445" arabic-form="medial" 
d="M279 614l-80 -80l-80 80l80 79zM445 0h-49q-51 0 -108 35q-67 40 -81 96q-62 -124 -207 -131q-70 0 -70 76t70 76h45q126 0 185 133q18 41 41 41q16 0 16 -15q0 -2 -5 -21.5t-5 -39.5q0 -98 168 -98v-152zM283 791l-80 -80l-80 80l80 79z" />
    <glyph glyph-name="uniFB62" unicode="&#x67f;" horiz-adv-x="1356" arabic-form="isolated" 
d="M1256 274q0 -48 -20 -99.5t-46 -70.5q-95 -67 -278 -114q-200 -51 -408 -51q-440 0 -440 260q0 66 50 155q46 82 71 82q16 0 16 -18l-26 -59q-25 -59 -25 -95q0 -72 85 -118q106 -56 327 -56q205 0 400 43q163 36 218 74q0 39 -98 147q0 29 45 125q6 13 10 13q9 0 25 -21
q94 -120 94 -197zM850 968l-90 -90l-90 90l90 90zM641 968l-90 -90l-90 90l90 90zM850 760l-90 -90l-90 90l90 90zM641 760l-90 -90l-90 90l90 90z" />
    <glyph glyph-name="uniFB63" unicode="&#x67f;" horiz-adv-x="1366" arabic-form="final" 
d="M898 890l-91 -90l-90 90l90 90zM689 890l-91 -90l-90 90l90 90zM1366 0q-191 0 -208 137q-91 -75 -233 -128q-186 -70 -388 -70q-252 0 -376 92q-97 72 -97 176q0 72 49 159q45 78 68 78q16 0 16 -14q0 2 -23.5 -52.5t-23.5 -98.5q0 -73 92 -125q114 -64 332 -64
q185 0 369 57q171 53 229 117q35 39 47 39q18 0 18 -16q0 -6 -5 -26.5t-5 -29.5q0 -22 29 -49q33 -30 78 -30h32v-152zM902 690l-91 -90l-90 90l90 90zM693 690l-91 -90l-90 90l90 90z" />
    <glyph glyph-name="uniFB64" unicode="&#x67f;" horiz-adv-x="444" arabic-form="initial" 
d="M398 964l-90 -90l-91 90l91 90zM189 964l-90 -90l-90 90l90 90zM277 260q0 -143 -62 -205q-20 -21 -97 -38q-73 -17 -118 -17q-70 0 -70 76t70 76h37q128 0 174 32q0 65 -65 142l45 104q4 10 10 10t16 -16q60 -91 60 -164zM398 760l-90 -90l-91 90l91 90zM189 760
l-90 -90l-90 90l90 90z" />
    <glyph glyph-name="uniFB65" unicode="&#x67f;" horiz-adv-x="445" arabic-form="medial" 
d="M398 835l-90 -90l-91 90l91 90zM189 835l-90 -90l-90 90l90 90zM445 0h-49q-51 0 -108 35q-67 40 -81 96q-62 -124 -207 -131q-70 0 -70 76t70 76h45q126 0 185 133q18 41 41 41q16 0 16 -15q0 -2 -5 -21.5t-5 -39.5q0 -98 168 -98v-152zM398 639l-90 -90l-91 90l91 90z
M189 639l-90 -90l-90 90l90 90z" />
    <glyph glyph-name="uniFB66" unicode="&#x679;" horiz-adv-x="1356" arabic-form="isolated" 
d="M1256 274q0 -46 -20 -100q-19 -49 -46 -70q-94 -67 -278 -114q-200 -51 -408 -51q-440 0 -440 260q0 66 50 155q46 82 71 82q16 0 16 -18q-3 -6 -7 -15q-3 -8 -8 -19t-11 -25q-25 -57 -25 -95q0 -72 85 -118q107 -56 327 -56q207 0 400 43q161 35 218 74q0 38 -98 147
q0 29 45 125q6 13 10 13q8 0 25 -21q94 -119 94 -197zM624 794q7 10 21 24.5t32 28t39 22.5t42 9q42 0 63.5 -24.5t21.5 -56.5q0 -48 -26 -83t-65 -58.5t-85.5 -34.5t-87.5 -11q-20 0 -37 4.5t-33 13.5t-31.5 23.5t-33.5 34.5q31 0 54.5 1.5t42.5 3.5l40 54q7 9 9.5 18
t2.5 34q0 22 -1.5 46.5t-4 49.5t-6 47.5t-7.5 40.5q-18 21 -18 43q0 14 7.5 32.5t20.5 44.5q8 10 13.5 9.5t5.5 -10.5q0 -43 70 -75q-5 -16 -16 -34.5t-26 -40.5q4 -26 5.5 -45.5t1.5 -42.5q0 -17 -3.5 -33t-12.5 -33zM584 690q45 5 83 12t65.5 16t42.5 20t15 24
q0 7 -5.5 14t-14 12.5t-19.5 9t-23 3.5q-38 0 -75 -31t-69 -78v-2z" />
    <glyph glyph-name="uniFB67" unicode="&#x679;" horiz-adv-x="1366" arabic-form="final" 
d="M1366 0q-191 0 -208 137q-46 -38 -103.5 -70t-129.5 -58q-185 -70 -388 -70q-251 0 -376 92q-97 72 -97 176q0 73 49 159q45 78 68 78q16 0 16 -14q0 2 -24 -53q-23 -55 -23 -98q0 -72 92 -125q113 -64 332 -64q184 0 369 57q170 52 229 117q34 39 47 39q18 0 18 -16
q0 -4 -5 -27q-5 -22 -5 -29q0 -22 29 -49q33 -30 78 -30h32v-152zM669 754q7 10 21 24.5t32 28t39 22.5t42 9q42 0 63.5 -24.5t21.5 -56.5q0 -48 -26 -83t-65 -58.5t-85.5 -34.5t-87.5 -11q-20 0 -37 4.5t-33 13.5t-31.5 23.5t-33.5 34.5q31 0 54.5 1.5t42.5 3.5l40 54
q7 9 9.5 18t2.5 34q0 22 -1.5 46.5t-4 49.5t-6 47.5t-7.5 40.5q-18 21 -18 43q0 14 7.5 32.5t20.5 44.5q8 10 13.5 9.5t5.5 -10.5q0 -43 70 -75q-5 -16 -16 -34.5t-26 -40.5q4 -26 5.5 -45.5t1.5 -42.5q0 -17 -3.5 -33t-12.5 -33zM629 650q45 5 83 12t65.5 16t42.5 20t15 24
q0 7 -5.5 14t-14 12.5t-19.5 9t-23 3.5q-38 0 -75 -31t-69 -78v-2z" />
    <glyph glyph-name="uniFB68" unicode="&#x679;" horiz-adv-x="444" arabic-form="initial" 
d="M277 260q0 -143 -62 -205q-20 -21 -97 -38q-37 -8 -70 -12.5t-48 -4.5q-70 0 -70 76t70 76h37q127 0 174 32q0 65 -65 142l45 104q4 10 10 10t16 -16q60 -92 60 -164zM143 778q7 10 20 24t30.5 26.5t37.5 21.5t41 9q41 0 62 -24t21 -54q0 -47 -25 -81t-63 -56t-83 -33
t-85 -11q-39 0 -67.5 17.5t-62.5 55.5q30 0 53 1.5t41 3.5l38 52q7 9 9.5 18t2.5 33q0 21 -1.5 45t-4 47.5t-6 45.5t-6.5 39q-18 21 -18 42q0 13 7.5 31.5t19.5 42.5q8 10 13.5 9.5t5.5 -10.5q0 -42 67 -72q-5 -15 -15.5 -33t-24.5 -39q4 -25 5 -44.5t1 -41.5
q0 -16 -3 -31.5t-12 -31.5zM104 677q44 5 80.5 12t63 15.5t41 19.5t14.5 23q0 13 -18.5 25.5t-41.5 12.5q-36 0 -71.5 -30.5t-67.5 -75.5v-2z" />
    <glyph glyph-name="uniFB69" unicode="&#x679;" horiz-adv-x="446" arabic-form="medial" 
d="M162 738q7 10 20 24t30.5 26.5t37.5 21.5t41 9q41 0 62 -24t21 -54q0 -47 -25 -81t-63 -56t-83 -33t-85 -11q-39 0 -67.5 17.5t-62.5 55.5q30 0 53 1.5t41 3.5l38 52q7 9 9.5 18t2.5 33q0 21 -1.5 45t-4 47.5t-6 45.5t-6.5 39q-18 21 -18 42q0 13 7.5 31.5t19.5 42.5
q8 10 13.5 9.5t5.5 -10.5q0 -42 67 -72q-5 -15 -15.5 -33t-24.5 -39q4 -25 5 -44.5t1 -41.5q0 -16 -3 -31.5t-12 -31.5zM123 637q44 5 80.5 12t63 15.5t41 19.5t14.5 23q0 13 -18.5 25.5t-41.5 12.5q-36 0 -71.5 -30.5t-67.5 -75.5v-2zM445 0h-49q-51 0 -108 35
q-67 40 -81 96q-62 -124 -207 -131q-70 0 -70 76t70 76h45q126 0 185 133q18 41 41 41q16 0 16 -15q0 -2 -5 -21.5t-5 -39.5q0 -98 168 -98v-152z" />
    <glyph glyph-name="uniFB6A" unicode="&#x6a4;" horiz-adv-x="1364" arabic-form="isolated" 
d="M1235 311q0 -172 -80 -225q-95 -62 -291 -105q-191 -42 -358 -42q-442 0 -442 260q0 66 50 155q46 82 71 82q16 0 16 -18q-3 -6 -7 -15q-3 -8 -8 -19t-11 -25q-25 -57 -25 -95q0 -77 81 -126q104 -62 326 -62q215 0 407 51q156 42 206 86q7 70 -25 115q-41 -92 -119 -92
q-62 0 -103 37q-42 37 -42 98q0 79 62 168q64 94 131 94q62 0 111 -100q50 -102 50 -222zM1119 420q-44 84 -105 84q-25 0 -46 -25q-21 -24 -21 -51q0 -31 25.5 -50.5t62.5 -19.5q51 1 84 62zM1103 1012l-80 -80l-79 80l79 80zM1206 850l-80 -79l-80 79l80 80zM1001 850
l-80 -79l-80 79l80 80z" />
    <glyph glyph-name="uniFB6B" unicode="&#x6a4;" horiz-adv-x="1364" arabic-form="final" 
d="M1193 991l-80 -80l-80 80l80 79zM1295 829l-79 -80l-80 80l80 80zM1091 829l-80 -80l-80 80l80 80zM1364 0q-205 0 -306 77q-42 -30 -108.5 -55t-140 -43t-146 -28t-126.5 -10q-127 0 -220 22t-156 68q-97 72 -97 176q0 73 49 159q45 78 68 78q16 0 16 -14q0 2 -24 -53
q-23 -55 -23 -98q0 -72 92 -125q113 -64 332 -64q216 0 383 72q-19 42 -19 90q0 82 87 213q89 131 137 131q35 0 71 -76q37 -74 37 -147q0 -58 -27 -124q-22 -55 -49 -83q45 -14 152 -14h18v-152zM1205 307q0 23 -28 72q-27 51 -46 51q-27 0 -75 -45q-52 -49 -52 -92
q11 -29 78 -80q123 61 123 94z" />
    <glyph glyph-name="uniFB6C" unicode="&#x6a4;" horiz-adv-x="575" arabic-form="initial" 
d="M447 283q0 -171 -70 -211q-125 -72 -325 -72h-53q-70 0 -70 76t70 76h75q258 0 326 71q0 21 -17 70q-8 24 -17 42t-17 30q-42 -129 -123 -129q-58 0 -98 43t-40 106q0 98 52 183q49 79 94 79q58 0 132 -108q81 -120 81 -256zM299 436q-32 72 -92 72q-67 0 -67 -68
q0 -23 27 -48q28 -25 57 -25q67 0 75 69zM283 1021l-80 -80l-80 80l80 80zM385 860l-79 -80l-80 80l80 79zM181 860l-80 -80l-80 80l80 79z" />
    <glyph glyph-name="uniFB6D" unicode="&#x6a4;" horiz-adv-x="607" arabic-form="medial" 
d="M607 0q-237 0 -334 76q-111 -76 -273 -76q-70 0 -70 76t70 76h19q108 0 131 12q-9 42 -8 84q2 106 93 230q87 118 142 118q35 0 72 -76q37 -74 37 -147q0 -58 -27 -124q-22 -55 -49 -83q40 -14 197 -14v-152zM420 299q0 29 -22 76q-25 55 -54 55q-40 0 -89 -49
q-48 -50 -48 -82q0 -33 88 -96q125 53 125 96zM393 991l-80 -80l-80 80l80 79zM495 829l-79 -80l-80 80l80 80zM291 829l-80 -80l-80 80l80 80z" />
    <glyph glyph-name="uniFB6E" unicode="&#x6a6;" horiz-adv-x="1364" arabic-form="isolated" 
d="M1235 311q0 -172 -80 -225q-95 -62 -291 -105q-191 -42 -358 -42q-442 0 -442 260q0 66 50 155q46 82 71 82q16 0 16 -18q-3 -6 -7 -15q-3 -8 -8 -19t-11 -25q-25 -57 -25 -95q0 -77 81 -126q104 -62 326 -62q215 0 407 51q156 42 206 86q7 70 -25 115q-41 -92 -119 -92
q-62 0 -103 37q-42 37 -42 98q0 79 62 168q64 94 131 94q62 0 111 -100q50 -102 50 -222zM1119 420q-44 84 -105 84q-25 0 -46 -25q-21 -24 -21 -51q0 -31 25.5 -50.5t62.5 -19.5q51 1 84 62zM1202 1029l-80 -79l-80 79l80 80zM997 1029l-80 -79l-80 79l80 80zM1206 850
l-80 -79l-80 79l80 80zM1001 850l-80 -79l-80 79l80 80z" />
    <glyph glyph-name="uniFB6F" unicode="&#x6a6;" horiz-adv-x="1364" arabic-form="final" 
d="M1295 1017l-79 -80l-80 80l80 80zM1091 1017l-80 -80l-80 80l80 80zM1364 0q-205 0 -306 77q-42 -30 -108.5 -55t-140 -43t-146 -28t-126.5 -10q-127 0 -220 22t-156 68q-97 72 -97 176q0 73 49 159q45 78 68 78q16 0 16 -14q0 2 -24 -53q-23 -55 -23 -98q0 -72 92 -125
q113 -64 332 -64q216 0 383 72q-19 42 -19 90q0 82 87 213q89 131 137 131q35 0 71 -76q37 -74 37 -147q0 -58 -27 -124q-22 -55 -49 -83q45 -14 152 -14h18v-152zM1205 307q0 23 -28 72q-27 51 -46 51q-27 0 -75 -45q-52 -49 -52 -92q11 -29 78 -80q123 61 123 94z
M1295 829l-79 -80l-80 80l80 80zM1091 829l-80 -80l-80 80l80 80z" />
    <glyph glyph-name="uniFB70" unicode="&#x6a6;" horiz-adv-x="575" arabic-form="initial" 
d="M447 283q0 -171 -70 -211q-125 -72 -325 -72h-53q-70 0 -70 76t70 76h75q258 0 326 71q0 21 -17 70q-8 24 -17 42t-17 30q-42 -129 -123 -129q-58 0 -98 43t-40 106q0 98 52 183q49 79 94 79q58 0 132 -108q81 -120 81 -256zM299 436q-32 72 -92 72q-67 0 -67 -68
q0 -23 27 -48q28 -25 57 -25q67 0 75 69zM381 1047l-79 -80l-80 80l80 79zM177 1047l-80 -80l-80 80l80 79zM385 860l-79 -80l-80 80l80 79zM181 860l-80 -80l-80 80l80 79z" />
    <glyph glyph-name="uniFB71" unicode="&#x6a6;" horiz-adv-x="607" arabic-form="medial" 
d="M607 0q-237 0 -334 76q-111 -76 -273 -76q-70 0 -70 76t70 76h19q108 0 131 12q-9 42 -8 84q2 106 93 230q87 118 142 118q35 0 72 -76q37 -74 37 -147q0 -58 -27 -124q-22 -55 -49 -83q40 -14 197 -14v-152zM420 299q0 29 -22 76q-25 55 -54 55q-40 0 -89 -49
q-48 -50 -48 -82q0 -33 88 -96q125 53 125 96zM495 1020l-79 -80l-80 80l80 80zM291 1020l-80 -80l-80 80l80 80zM495 829l-79 -80l-80 80l80 80zM291 829l-80 -80l-80 80l80 80z" />
    <glyph glyph-name="uniFB72" unicode="&#x684;" arabic-form="isolated" 
d="M506 -86l80 80l80 -80l-80 -80zM1153 -563q0 -19 -61 -33q-20 -4 -199 -75q-128 -50 -266 -50q-567 0 -567 451q0 146 94 312q91 161 229 269q-28 15 -102 15q-58 0 -95 -26q-21 -15 -43 -49q-17 -26 -28 -26q-14 0 -14 25q0 68 65 141q72 80 195 80q56 0 137 -12
q94 -14 180 -14q148 0 254 26l-78 -155q-366 0 -544 -179q-71 -70 -116.5 -175t-43.5 -191q3 -128 86 -223q101 -117 530 -117q75 0 195 9t141 9q51 0 51 -12zM510 -271l80 80l80 -80l-80 -80z" />
    <glyph glyph-name="uniFB73" unicode="&#x684;" arabic-form="final" 
d="M467 -187l80 80l79 -80l-79 -80zM1153 -666q0 -19 -61 -32q-30 -7 -213 -68q-106 -35 -244 -35q-262 0 -400 85q-175 108 -175 366q0 196 94 352q80 131 248 262q-40 15 -117 15q-70 0 -115 -35q-12 -10 -34 -43q-18 -27 -29 -27q-14 0 -14 25q0 68 65 141q72 80 195 80
q31 0 144.5 -11.5t172.5 -11.5q160 0 262 21l-53 -133l-107 -13q-10 -15 -10 -69q0 -62 101 -62q42 0 109.5 5.5t90.5 5.5v-152q-8 0 -70.5 -2t-131.5 -2q-154 0 -154 164q0 51 20 108q-268 -34 -427 -190q-150 -148 -150 -350q0 -223 171 -313q154 -82 490 -74l291 6
q51 1 51 -13zM471 -366l80 80l79 -80l-79 -80z" />
    <glyph glyph-name="uniFB74" unicode="&#x684;" arabic-form="initial" 
d="M383 -229l80 80l80 -80l-80 -79zM953 283l-76 -142q-6 0 -40 2t-58 2q-207 0 -412 -71q-211 -74 -367 -74q-70 0 -70 76t70 76q279 0 490 69q-183 105 -246 105q-57 0 -94 -30t-45 -30q-12 0 -12 21q0 37 40 93q57 79 152 79q57 0 241 -88t337 -88h90zM387 -408l80 80
l80 -80l-80 -79z" />
    <glyph glyph-name="uniFB75" unicode="&#x684;" arabic-form="medial" 
d="M387 -233l80 80l80 -80l-80 -79zM1063 0q-8 0 -70.5 -2t-131.5 -2q-154 0 -154 164q0 23 6 57q-180 -29 -412 -143q-150 -74 -301 -74q-70 0 -70 76t70 76q285 0 480 127q-198 75 -254 75q-33 0 -66 -25.5t-43 -25.5q-16 0 -16 21q0 32 43 91q60 81 149 81q57 0 187 -56
q172 -73 348 -73h88l-53 -131l-113 -13v-16q0 -66 113 -66q42 0 109.5 5.5t90.5 5.5v-152zM387 -408l80 80l80 -80l-80 -79z" />
    <glyph glyph-name="uniFB76" unicode="&#x683;" arabic-form="isolated" 
d="M404 -104l80 80l80 -80l-80 -80zM609 -104l80 80l79 -80l-79 -80zM1153 -563q0 -19 -61 -33q-20 -4 -199 -75q-128 -50 -266 -50q-567 0 -567 451q0 146 94 312q91 161 229 269q-28 15 -102 15q-58 0 -95 -26q-21 -15 -43 -49q-17 -26 -28 -26q-14 0 -14 25q0 68 65 141
q72 80 195 80q56 0 137 -12q94 -14 180 -14q148 0 254 26l-78 -155q-366 0 -544 -179q-71 -70 -116.5 -175t-43.5 -191q3 -128 86 -223q101 -117 530 -117q75 0 195 9t141 9q51 0 51 -12z" />
    <glyph glyph-name="uniFB77" unicode="&#x683;" arabic-form="final" 
d="M368 -204l80 80l80 -80l-80 -80zM573 -204l80 80l80 -80l-80 -80zM1153 -666q0 -19 -61 -32q-30 -7 -213 -68q-106 -35 -244 -35q-262 0 -400 85q-175 108 -175 366q0 196 94 352q80 131 248 262q-40 15 -117 15q-70 0 -115 -35q-12 -10 -34 -43q-18 -27 -29 -27
q-14 0 -14 25q0 68 65 141q72 80 195 80q31 0 144.5 -11.5t172.5 -11.5q160 0 262 21l-53 -133l-107 -13q-10 -15 -10 -69q0 -62 101 -62q42 0 109.5 5.5t90.5 5.5v-152q-8 0 -70.5 -2t-131.5 -2q-154 0 -154 164q0 51 20 108q-268 -34 -427 -190q-150 -148 -150 -350
q0 -223 171 -313q154 -82 490 -74l291 6q51 1 51 -13z" />
    <glyph glyph-name="uniFB78" unicode="&#x683;" arabic-form="initial" 
d="M285 -246l80 80l80 -80l-80 -80zM490 -246l80 80l80 -80l-80 -80zM953 283l-76 -142q-6 0 -40 2t-58 2q-207 0 -412 -71q-211 -74 -367 -74q-70 0 -70 76t70 76q279 0 490 69q-183 105 -246 105q-57 0 -94 -30t-45 -30q-12 0 -12 21q0 37 40 93q57 79 152 79
q57 0 241 -88t337 -88h90z" />
    <glyph glyph-name="uniFB79" unicode="&#x683;" arabic-form="medial" 
d="M285 -246l80 80l80 -80l-80 -80zM490 -246l80 80l80 -80l-80 -80zM1063 0q-8 0 -70.5 -2t-131.5 -2q-154 0 -154 164q0 23 6 57q-180 -29 -412 -143q-150 -74 -301 -74q-70 0 -70 76t70 76q285 0 480 127q-198 75 -254 75q-33 0 -66 -25.5t-43 -25.5q-16 0 -16 21
q0 32 43 91q60 81 149 81q57 0 187 -56q172 -73 348 -73h88l-53 -131l-113 -13v-16q0 -66 113 -66q42 0 109.5 5.5t90.5 5.5v-152z" />
    <glyph glyph-name="uniFB7A" unicode="&#x686;" arabic-form="isolated" 
d="M404 -104l80 80l80 -80l-80 -80zM609 -104l80 80l79 -80l-79 -80zM506 -266l80 80l80 -80l-80 -80zM1153 -563q0 -19 -61 -33q-20 -4 -199 -75q-128 -50 -266 -50q-567 0 -567 451q0 146 94 312q91 161 229 269q-28 15 -102 15q-58 0 -95 -26q-21 -15 -43 -49
q-17 -26 -28 -26q-14 0 -14 25q0 68 65 141q72 80 195 80q56 0 137 -12q94 -14 180 -14q148 0 254 26l-78 -155q-366 0 -544 -179q-71 -70 -116.5 -175t-43.5 -191q3 -128 86 -223q101 -117 530 -117q75 0 195 9t141 9q51 0 51 -12z" />
    <glyph glyph-name="uniFB7B" unicode="&#x686;" arabic-form="final" 
d="M368 -204l80 80l80 -80l-80 -80zM573 -204l80 80l80 -80l-80 -80zM471 -366l80 80l79 -80l-79 -80zM1153 -666q0 -19 -61 -32q-30 -7 -213 -68q-106 -35 -244 -35q-262 0 -400 85q-175 108 -175 366q0 196 94 352q80 131 248 262q-40 15 -117 15q-70 0 -115 -35
q-12 -10 -34 -43q-18 -27 -29 -27q-14 0 -14 25q0 68 65 141q72 80 195 80q31 0 144.5 -11.5t172.5 -11.5q160 0 262 21l-53 -133l-107 -13q-10 -15 -10 -69q0 -62 101 -62q42 0 109.5 5.5t90.5 5.5v-152q-8 0 -70.5 -2t-131.5 -2q-154 0 -154 164q0 51 20 108
q-268 -34 -427 -190q-150 -148 -150 -350q0 -223 171 -313q154 -82 490 -74l291 6q51 1 51 -13z" />
    <glyph glyph-name="uniFB7C" unicode="&#x686;" arabic-form="initial" 
d="M285 -246l80 80l80 -80l-80 -80zM490 -246l80 80l80 -80l-80 -80zM387 -408l80 80l80 -80l-80 -79zM953 283l-76 -142q-6 0 -40 2t-58 2q-207 0 -412 -71q-211 -74 -367 -74q-70 0 -70 76t70 76q279 0 490 69q-183 105 -246 105q-57 0 -94 -30t-45 -30q-12 0 -12 21
q0 37 40 93q57 79 152 79q57 0 241 -88t337 -88h90z" />
    <glyph glyph-name="uniFB7D" unicode="&#x686;" arabic-form="medial" 
d="M285 -246l80 80l80 -80l-80 -80zM490 -246l80 80l80 -80l-80 -80zM387 -408l80 80l80 -80l-80 -79zM1063 0q-8 0 -70.5 -2t-131.5 -2q-154 0 -154 164q0 23 6 57q-180 -29 -412 -143q-150 -74 -301 -74q-70 0 -70 76t70 76q285 0 480 127q-198 75 -254 75
q-33 0 -66 -25.5t-43 -25.5q-16 0 -16 21q0 32 43 91q60 81 149 81q57 0 187 -56q172 -73 348 -73h88l-53 -131l-113 -13v-16q0 -66 113 -66q42 0 109.5 5.5t90.5 5.5v-152z" />
    <glyph glyph-name="uniFB7E" unicode="&#x687;" arabic-form="isolated" 
d="M404 -292l80 80l80 -80l-80 -80zM609 -292l80 80l79 -80l-79 -80zM1153 -563q0 -19 -61 -33q-20 -4 -199 -75q-128 -50 -266 -50q-567 0 -567 451q0 146 94 312q91 161 229 269q-28 15 -102 15q-58 0 -95 -26q-21 -15 -43 -49q-17 -26 -28 -26q-14 0 -14 25q0 68 65 141
q72 80 195 80q56 0 137 -12q94 -14 180 -14q148 0 254 26l-78 -155q-366 0 -544 -179q-71 -70 -116.5 -175t-43.5 -191q3 -128 86 -223q101 -117 530 -117q75 0 195 9t141 9q51 0 51 -12zM404 -104l80 80l80 -80l-80 -80zM609 -104l80 80l79 -80l-79 -80z" />
    <glyph glyph-name="uniFB7F" unicode="&#x687;" arabic-form="final" 
d="M364 -395l80 80l80 -80l-80 -80zM569 -395l80 80l80 -80l-80 -80zM1153 -666q0 -19 -61 -32q-30 -7 -213 -68q-106 -35 -244 -35q-262 0 -400 85q-175 108 -175 366q0 196 94 352q80 131 248 262q-40 15 -117 15q-70 0 -115 -35q-12 -10 -34 -43q-18 -27 -29 -27
q-14 0 -14 25q0 68 65 141q72 80 195 80q31 0 144.5 -11.5t172.5 -11.5q160 0 262 21l-53 -133l-107 -13q-10 -15 -10 -69q0 -62 101 -62q42 0 109.5 5.5t90.5 5.5v-152q-8 0 -70.5 -2t-131.5 -2q-154 0 -154 164q0 51 20 108q-268 -34 -427 -190q-150 -148 -150 -350
q0 -223 171 -313q154 -82 490 -74l291 6q51 1 51 -13zM368 -204l80 80l80 -80l-80 -80zM573 -204l80 80l80 -80l-80 -80z" />
    <glyph glyph-name="uniFB80" unicode="&#x687;" arabic-form="initial" 
d="M281 -434l80 80l80 -80l-80 -80zM486 -434l80 80l80 -80l-80 -80zM953 283l-76 -142q-6 0 -40 2t-58 2q-207 0 -412 -71q-211 -74 -367 -74q-70 0 -70 76t70 76q279 0 490 69q-183 105 -246 105q-57 0 -94 -30t-45 -30q-12 0 -12 21q0 37 40 93q57 79 152 79
q57 0 241 -88t337 -88h90zM285 -246l80 80l80 -80l-80 -80zM490 -246l80 80l80 -80l-80 -80z" />
    <glyph glyph-name="uniFB81" unicode="&#x687;" arabic-form="medial" 
d="M281 -434l80 80l80 -80l-80 -80zM486 -434l80 80l80 -80l-80 -80zM1063 0q-8 0 -70.5 -2t-131.5 -2q-154 0 -154 164q0 23 6 57q-180 -29 -412 -143q-150 -74 -301 -74q-70 0 -70 76t70 76q285 0 480 127q-198 75 -254 75q-33 0 -66 -25.5t-43 -25.5q-16 0 -16 21
q0 32 43 91q60 81 149 81q57 0 187 -56q172 -73 348 -73h88l-53 -131l-113 -13v-16q0 -66 113 -66q42 0 109.5 5.5t90.5 5.5v-152zM285 -246l80 80l80 -80l-80 -80zM490 -246l80 80l80 -80l-80 -80z" />
    <glyph glyph-name="uniFB82" unicode="&#x68d;" horiz-adv-x="682" arabic-form="isolated" 
d="M572 231q0 -149 -57 -190q-37 -26 -143.5 -50t-188.5 -24q-109 0 -109 72q0 32 11 76q12 51 26 51q16 0 21 -14q7 -43 104 -43q80 0 170 24q82 22 104 43q-43 186 -241 279q0 36 10.5 91.5t17.5 55.5q18 0 80 -45q78 -56 128 -127q67 -95 67 -199zM232 -186l80 -80
l-80 -80l-80 80zM437 -186l80 -80l-80 -80l-80 80z" />
    <glyph glyph-name="uniFB83" unicode="&#x68d;" horiz-adv-x="797" arabic-form="final" 
d="M797 0q-87 0 -128 32q-55 43 -95 177q-53 -101 -149.5 -160t-202.5 -59q-148 0 -148 102q0 131 35 131q20 0 20 -30q0 -52 109 -52q202 0 313 133q-79 330 -79 379q33 127 43 127q6 0 12 -24l67 -283q49 -204 87 -267q32 -54 94 -54h22v-152zM236 -199l80 -80l-80 -80
l-80 80zM441 -199l80 -80l-80 -80l-80 80z" />
    <glyph glyph-name="uniFB84" unicode="&#x68c;" horiz-adv-x="682" arabic-form="isolated" 
d="M572 231q0 -149 -57 -190q-37 -26 -143.5 -50t-188.5 -24q-109 0 -109 72q0 32 11 76q12 51 26 51q16 0 21 -14q7 -43 104 -43q80 0 170 24q82 22 104 43q-43 186 -241 279q0 36 10.5 91.5t17.5 55.5q18 0 80 -45q78 -56 128 -127q67 -95 67 -199zM163 1007l80 -80
l-80 -80l-80 80zM368 1007l80 -80l-80 -80l-80 80z" />
    <glyph glyph-name="uniFB85" unicode="&#x68c;" horiz-adv-x="797" arabic-form="final" 
d="M797 0q-87 0 -128 32q-55 43 -95 177q-53 -101 -149.5 -160t-202.5 -59q-148 0 -148 102q0 131 35 131q20 0 20 -30q0 -52 109 -52q202 0 313 133q-79 330 -79 379q33 127 43 127q6 0 12 -24l67 -283q49 -204 87 -267q32 -54 94 -54h22v-152zM387 1162l80 -80l-80 -80
l-80 80zM592 1162l80 -80l-80 -80l-80 80z" />
    <glyph glyph-name="uniFB86" unicode="&#x68e;" horiz-adv-x="682" arabic-form="isolated" 
d="M572 231q0 -149 -57 -190q-37 -26 -143.5 -50t-188.5 -24q-109 0 -109 72q0 32 11 76q12 51 26 51q16 0 21 -14q7 -43 104 -43q80 0 170 24q82 22 104 43q-43 186 -241 279q0 36 10.5 91.5t17.5 55.5q18 0 80 -45q78 -56 128 -127q67 -95 67 -199zM153 1009l80 -80
l-80 -80l-80 80zM358 1009l80 -80l-80 -80l-80 80zM255 1170l80 -79l-80 -80l-80 80z" />
    <glyph glyph-name="uniFB87" unicode="&#x68e;" horiz-adv-x="797" arabic-form="final" 
d="M797 0q-87 0 -128 32q-55 43 -95 177q-53 -101 -149.5 -160t-202.5 -59q-148 0 -148 102q0 131 35 131q20 0 20 -30q0 -52 109 -52q202 0 313 133q-79 330 -79 379q33 127 43 127q6 0 12 -24l67 -283q49 -204 87 -267q32 -54 94 -54h22v-152zM382 1148l80 -80l-80 -80
l-80 80zM587 1148l80 -80l-80 -80l-80 80zM484 1309l80 -79l-80 -80l-80 80z" />
    <glyph glyph-name="uniFB88" unicode="&#x688;" horiz-adv-x="682" arabic-form="isolated" 
d="M253 938q7 10 20 24t30.5 26.5t37.5 21.5t41 9q41 0 62 -24t21 -54q0 -47 -25 -81t-63 -56t-83 -33t-85 -11q-39 0 -67.5 17.5t-62.5 55.5q30 0 53 1.5t41 3.5l38 52q7 9 9.5 18t2.5 33q0 21 -1.5 45t-4 47.5t-6 45.5t-6.5 39q-18 21 -18 42q0 13 7.5 31.5t19.5 42.5
q8 10 13.5 9.5t5.5 -10.5q0 -42 67 -72q-5 -15 -15.5 -33t-24.5 -39q4 -25 5 -44.5t1 -41.5q0 -16 -3 -31.5t-12 -31.5zM214 837q44 5 80.5 12t63 15.5t41 19.5t14.5 23q0 13 -18.5 25.5t-41.5 12.5q-36 0 -71.5 -30.5t-67.5 -75.5v-2zM572 231q0 -149 -57 -190
q-37 -26 -143.5 -50t-188.5 -24q-109 0 -109 72q0 32 11 76q12 51 26 51q16 0 21 -14q7 -43 104 -43q80 0 170 24q82 22 104 43q-43 186 -241 279q0 36 10.5 91.5t17.5 55.5q18 0 80 -45q78 -56 128 -127q67 -95 67 -199z" />
    <glyph glyph-name="uniFB89" unicode="&#x688;" horiz-adv-x="797" arabic-form="final" 
d="M797 0q-87 0 -128 32q-54 42 -95 177q-53 -102 -150 -160q-97 -59 -202 -59q-148 0 -148 102q0 131 35 131q20 0 20 -30q0 -52 109 -52q202 0 313 133q-79 328 -79 379q33 127 43 127q6 0 12 -24l67 -283q49 -204 87 -267q31 -54 94 -54h22v-152zM418 1078q7 10 20 24
t30.5 26.5t37.5 21.5t41 9q41 0 62 -24t21 -54q0 -47 -25 -81t-63 -56t-83 -33t-85 -11q-39 0 -67.5 17.5t-62.5 55.5q30 0 53 1.5t41 3.5l38 52q7 9 9.5 18t2.5 33q0 21 -1.5 45t-4 47.5t-6 45.5t-6.5 39q-18 21 -18 42q0 13 7.5 31.5t19.5 42.5q8 10 13.5 9.5t5.5 -10.5
q0 -42 67 -72q-5 -15 -15.5 -33t-24.5 -39q4 -25 5 -44.5t1 -41.5q0 -16 -3 -31.5t-12 -31.5zM379 977q44 5 80.5 12t63 15.5t41 19.5t14.5 23q0 13 -18.5 25.5t-41.5 12.5q-36 0 -71.5 -30.5t-67.5 -75.5v-2z" />
    <glyph glyph-name="uniFB8A" unicode="&#x698;" horiz-adv-x="737" arabic-form="isolated" 
d="M315 752l80 -80l-80 -80l-80 80zM520 752l79 -80l-79 -80l-80 80zM417 914l80 -80l-80 -80l-80 80zM461 395q0 5 1.5 11t6.5 6q3 0 15.5 -10t30 -28t37.5 -43t36.5 -55t27.5 -64.5t11 -70.5q0 -49 -10 -95t-32 -93.5t-58 -99t-88 -111.5q-12 -15 -33 -31t-48 -29.5
t-58.5 -22.5t-65.5 -9q-41 0 -85 7.5t-81 18.5t-60.5 24t-23.5 24q0 9 5 12.5t13 3.5q13 0 37 -2t72 -2q65 0 124 22.5t110 58t92.5 79t71 84.5t46 74.5t17.5 49.5q0 12 -13 32.5t-33 43.5t-43 46t-44 38z" />
    <glyph glyph-name="uniFB8B" unicode="&#x698;" horiz-adv-x="721" arabic-form="final" 
d="M346 625l80 -80l-80 -80l-80 80zM551 625l80 -80l-80 -80l-80 80zM448 787l80 -80l-80 -80l-79 80zM721 0h-61q-39 -125 -89 -213t-107 -144t-118.5 -82t-121.5 -26q-26 0 -54 7t-51 18q-43 20 -69.5 35t-41 26t-19.5 19t-5 14q0 18 18 18q9 0 21 -3t28.5 -6t39 -6
t53.5 -3q67 0 137.5 31t133.5 82t113 116.5t77 134.5q-56 28 -80.5 48t-24.5 38l23 113q3 14 10 14q5 0 20.5 -12.5t38 -27t50 -27t57.5 -12.5h22v-152z" />
    <glyph glyph-name="uniFB8C" unicode="&#x691;" horiz-adv-x="737" arabic-form="isolated" 
d="M627 141q0 -181 -188 -399q-80 -92 -205 -92q-78 0 -165 26q-85 25 -85 48q0 16 18 16q2 0 11 -0.5t26 -1.5t35 -1.5t37 -0.5q170 0 327 160q131 134 134 208q1 21 -46 76q-44 52 -87 84l22 131q0 17 8 17q21 0 83 -81q75 -98 75 -190zM383 768q7 10 20 24t30.5 26.5
t37.5 21.5t41 9q41 0 62 -24t21 -54q0 -47 -25 -81t-63 -56t-83 -33t-85 -11q-39 0 -67.5 17.5t-62.5 55.5q30 0 53 1.5t41 3.5l38 52q7 9 9.5 18t2.5 33q0 21 -1.5 45t-4 47.5t-6 45.5t-6.5 39q-18 21 -18 42q0 13 7.5 31.5t19.5 42.5q8 10 13.5 9.5t5.5 -10.5
q0 -42 67 -72q-5 -15 -15.5 -33t-24.5 -39q4 -25 5 -44.5t1 -41.5q0 -16 -3 -31.5t-12 -31.5zM344 667q44 5 80.5 12t63 15.5t41 19.5t14.5 23q0 13 -18.5 25.5t-41.5 12.5q-36 0 -71.5 -30.5t-67.5 -75.5v-2z" />
    <glyph glyph-name="uniFB8D" unicode="&#x691;" horiz-adv-x="721" arabic-form="final" 
d="M721 0h-61q-74 -236 -196 -357q-110 -108 -240 -108q-54 0 -105 25q-135 63 -135 94q0 18 18 18q6 0 50 -9q43 -9 92 -9q131 0 271 113q67 55 114.5 117t75.5 134q-105 52 -105 86l23 113q2 14 10 14l58 -40q60 -39 108 -39h22v-152zM423 628q7 10 20 24t30.5 26.5
t37.5 21.5t41 9q41 0 62 -24t21 -54q0 -47 -25 -81t-63 -56t-83 -33t-85 -11q-39 0 -67.5 17.5t-62.5 55.5q30 0 53 1.5t41 3.5l38 52q7 9 9.5 18t2.5 33q0 21 -1.5 45t-4 47.5t-6 45.5t-6.5 39q-18 21 -18 42q0 13 7.5 31.5t19.5 42.5q8 10 13.5 9.5t5.5 -10.5
q0 -42 67 -72q-5 -15 -15.5 -33t-24.5 -39q4 -25 5 -44.5t1 -41.5q0 -16 -3 -31.5t-12 -31.5zM384 527q44 5 80.5 12t63 15.5t41 19.5t14.5 23q0 13 -18.5 25.5t-41.5 12.5q-36 0 -71.5 -30.5t-67.5 -75.5v-2z" />
    <glyph glyph-name="uniFB8E" unicode="&#x6a9;" horiz-adv-x="1577" arabic-form="isolated" 
d="M1463 1057q-144 -68 -242.5 -117.5t-163.5 -83.5q-51 -27 -85.5 -46.5t-56 -34.5t-31 -26.5t-9.5 -21.5q0 -17 11.5 -27t34 -21.5t55.5 -29t75 -49.5q62 -48 103.5 -91.5t66 -84t35 -78.5t10.5 -74q0 -60 -27 -109t-73 -77q-55 -33 -119 -60t-143 -46.5t-175.5 -30
t-216.5 -10.5q-93 0 -162.5 12.5t-119 33.5t-82 48.5t-51 56.5t-26 58t-7.5 53q0 40 15 82t34.5 76.5t39 56.5t28.5 22q16 0 16 -14q0 -5 -7.5 -18.5t-16 -34.5t-16 -47.5t-7.5 -55.5q0 -33 24 -67t74.5 -62t127.5 -45.5t183 -17.5q153 0 275 20t207.5 48t131.5 59t46 53
q0 28 -21 63.5t-58.5 73.5t-89.5 76.5t-114 73.5q-23 13 -42 24t-33 22t-21.5 25t-7.5 33v72q0 25 7 49.5t25 50.5t50 53.5t82 59.5q25 15 62 35.5t80.5 43.5t91 47.5t94 48t88.5 44.5t75 37z" />
    <glyph glyph-name="uniFB8F" unicode="&#x6a9;" horiz-adv-x="1698" arabic-form="final" 
d="M1563 1112q-169 -77 -288.5 -133.5t-199.5 -96.5t-126 -66.5t-69.5 -43.5t-29.5 -27t-6 -18q0 -17 17 -29t59 -32q94 -45 161.5 -80t121 -68.5t99 -70t95.5 -85.5q60 -58 103.5 -98t76 -65t55.5 -36t42 -11h24v-152q-29 0 -55 6t-54.5 23t-61.5 47.5t-77 79.5
q-27 30 -58.5 62.5t-63 62.5t-60.5 54q-28 23 -49 38q5 -11 10 -36q6 -27 6 -65q0 -52 -31 -97.5t-84.5 -82.5t-125 -65.5t-152 -48t-165.5 -29.5t-165 -10q-93 0 -162.5 12.5t-119 33.5t-82 48.5t-51 56.5t-26 58t-7.5 53q0 40 15 82t34.5 76.5t39 56.5t28.5 22
q16 0 16 -14q0 -5 -7.5 -18.5t-16 -34.5t-16 -47.5t-7.5 -55.5q0 -33 24 -67t74.5 -62t127.5 -45.5t183 -17.5q74 0 150 10t145.5 26t130.5 37t106 43t71 43.5t26 38.5q0 27 -12.5 54.5t-44.5 59.5t-86.5 69.5t-138.5 85.5q-23 13 -42.5 24t-33.5 22t-21.5 25t-7.5 33v72
q0 25 9 52t32 55.5t61 59.5t97 64q103 59 249.5 129t342.5 160z" />
    <glyph glyph-name="uniFB90" unicode="&#x6a9;" horiz-adv-x="758" arabic-form="initial" 
d="M668 1188l-25 -131q-243 -115 -405 -201q-182 -96 -182 -129q0 -25 46 -48q82 -42 130 -79q215 -164 215 -328q0 -272 -418 -272h-29q-70 0 -70 76t70 76h90q139 0 226 30q84 30 84 74q0 57 -79 136.5t-204 150.5q-62 35 -75 46q-29 24 -29 58v72q0 111 164 213
q129 80 491 256z" />
    <glyph glyph-name="uniFB91" unicode="&#x6a9;" horiz-adv-x="910" arabic-form="medial" 
d="M910 0q-62 0 -110 29q-54 32 -138 127q-135 151 -232 219q17 -38 17 -103q0 -272 -424 -272h-23q-70 0 -70 76t70 76h82q318 0 318 122q0 108 -283 269q-62 35 -75 46q-29 24 -29 58v72q0 119 198 231q169 96 592 289l-28 -127q-459 -209 -614 -297q-105 -59 -105 -88
q0 -25 75 -61q198 -96 283 -149q99 -62 195 -155q217 -210 276 -210h25v-152z" />
    <glyph glyph-name="uniFB92" unicode="&#x6af;" horiz-adv-x="1577" arabic-form="isolated" 
d="M1518 1401l-23 -103l-591 -299l22 103zM1463 1057q-144 -68 -242.5 -117.5t-163.5 -83.5q-51 -27 -85.5 -46.5t-56 -34.5t-31 -26.5t-9.5 -21.5q0 -17 11.5 -27t34 -21.5t55.5 -29t75 -49.5q62 -48 103.5 -91.5t66 -84t35 -78.5t10.5 -74q0 -60 -27 -109t-73 -77
q-55 -33 -119 -60t-143 -46.5t-175.5 -30t-216.5 -10.5q-93 0 -162.5 12.5t-119 33.5t-82 48.5t-51 56.5t-26 58t-7.5 53q0 40 15 82t34.5 76.5t39 56.5t28.5 22q16 0 16 -14q0 -5 -7.5 -18.5t-16 -34.5t-16 -47.5t-7.5 -55.5q0 -33 24 -67t74.5 -62t127.5 -45.5t183 -17.5
q153 0 275 20t207.5 48t131.5 59t46 53q0 28 -21 63.5t-58.5 73.5t-89.5 76.5t-114 73.5q-23 13 -42 24t-33 22t-21.5 25t-7.5 33v72q0 25 7 49.5t25 50.5t50 53.5t82 59.5q25 15 62 35.5t80.5 43.5t91 47.5t94 48t88.5 44.5t75 37z" />
    <glyph glyph-name="uniFB93" unicode="&#x6af;" horiz-adv-x="1698" arabic-form="final" 
d="M1563 1112q-169 -77 -288.5 -133.5t-199.5 -96.5t-126 -66.5t-69.5 -43.5t-29.5 -27t-6 -18q0 -17 17 -29t59 -32q94 -45 161.5 -80t121 -68.5t99 -70t95.5 -85.5q60 -58 103.5 -98t76 -65t55.5 -36t42 -11h24v-152q-29 0 -55 6t-54.5 23t-61.5 47.5t-77 79.5
q-27 30 -58.5 62.5t-63 62.5t-60.5 54q-28 23 -49 38q5 -11 10 -36q6 -27 6 -65q0 -52 -31 -97.5t-84.5 -82.5t-125 -65.5t-152 -48t-165.5 -29.5t-165 -10q-93 0 -162.5 12.5t-119 33.5t-82 48.5t-51 56.5t-26 58t-7.5 53q0 40 15 82t34.5 76.5t39 56.5t28.5 22
q16 0 16 -14q0 -5 -7.5 -18.5t-16 -34.5t-16 -47.5t-7.5 -55.5q0 -33 24 -67t74.5 -62t127.5 -45.5t183 -17.5q74 0 150 10t145.5 26t130.5 37t106 43t71 43.5t26 38.5q0 27 -12.5 54.5t-44.5 59.5t-86.5 69.5t-138.5 85.5q-23 13 -42.5 24t-33.5 22t-21.5 25t-7.5 33v72
q0 25 9 52t32 55.5t61 59.5t97 64q103 59 249.5 129t342.5 160zM1620 1460l-22 -102l-733 -359l22 103z" />
    <glyph glyph-name="uniFB94" unicode="&#x6af;" horiz-adv-x="758" arabic-form="initial" 
d="M0 0q-70 0 -70 76t70 76h90q71 0 128 8t97.5 22.5t62.5 33.5t22 40q0 28 -21 63.5t-58.5 73.5t-89.5 76.5t-114 73.5q-23 13 -42 24t-33 22t-21.5 25t-7.5 33v72q0 25 7 49.5t25 50.5t50 53.5t82 59.5q25 15 62 35.5t80.5 43.5t91 47.5t94 48t88.5 44.5t75 37l-25 -131
q-143 -68 -241.5 -117.5t-163.5 -83.5q-51 -27 -85.5 -46.5t-56 -34.5t-31 -26.5t-9.5 -21.5q0 -17 11.5 -27t34 -21.5t55.5 -29t75 -49.5q62 -48 103.5 -91.5t66 -84t35 -78.5t10.5 -74q0 -77 -31.5 -129.5t-87.5 -84t-132.5 -45t-166.5 -13.5h-29zM699 1401l-23 -103
l-592 -299l23 103z" />
    <glyph glyph-name="uniFB95" unicode="&#x6af;" horiz-adv-x="910" arabic-form="medial" 
d="M0 0q-70 0 -70 76t70 76h82q67 0 125 7t101 22t67.5 38t24.5 55q0 27 -13 54.5t-45 59.5t-86.5 69.5t-138.5 85.5q-23 13 -42 24t-33 22t-21.5 25t-7.5 33v72q0 25 9 52t31.5 55.5t61 59.5t96.5 64q104 59 250 129t342 160l-28 -127q-169 -77 -288.5 -133.5t-199.5 -96.5
t-126 -66.5t-69.5 -43.5t-29.5 -27t-6 -18q0 -17 16.5 -29t58.5 -32q94 -45 161.5 -80t121.5 -68.5t99.5 -70t95.5 -85.5q60 -58 103.5 -98t75.5 -65t55.5 -36t41.5 -11h25v-152q-29 0 -55 6t-54.5 23t-61.5 47.5t-77 79.5q-27 30 -59 62.5t-63.5 62.5t-60.5 54
q-28 22 -49 37q5 -11 11 -35q6 -27 6 -65q0 -82 -34.5 -135t-92.5 -83.5t-135 -42t-162 -11.5h-23zM832 1460l-23 -102l-733 -359l23 103z" />
    <glyph glyph-name="uniFB96" unicode="&#x6b3;" horiz-adv-x="1577" arabic-form="isolated" 
d="M1518 1401l-23 -103l-591 -299l22 103zM1463 1057q-144 -68 -242.5 -117.5t-163.5 -83.5q-51 -27 -85.5 -46.5t-56 -34.5t-31 -26.5t-9.5 -21.5q0 -17 11.5 -27t34 -21.5t55.5 -29t75 -49.5q62 -48 103.5 -91.5t66 -84t35 -78.5t10.5 -74q0 -60 -27 -109t-73 -77
q-55 -33 -119 -60t-143 -46.5t-175.5 -30t-216.5 -10.5q-93 0 -162.5 12.5t-119 33.5t-82 48.5t-51 56.5t-26 58t-7.5 53q0 40 15 82t34.5 76.5t39 56.5t28.5 22q16 0 16 -14q0 -5 -7.5 -18.5t-16 -34.5t-16 -47.5t-7.5 -55.5q0 -33 24 -67t74.5 -62t127.5 -45.5t183 -17.5
q153 0 275 20t207.5 48t131.5 59t46 53q0 28 -21 63.5t-58.5 73.5t-89.5 76.5t-114 73.5q-23 13 -42 24t-33 22t-21.5 25t-7.5 33v72q0 25 7 49.5t25 50.5t50 53.5t82 59.5q25 15 62 35.5t80.5 43.5t91 47.5t94 48t88.5 44.5t75 37zM693 -432l-79 -80l-80 80l80 79z
M697 -236l-79 -80l-80 80l80 79z" />
    <glyph glyph-name="uniFB97" unicode="&#x6b3;" horiz-adv-x="1698" arabic-form="final" 
d="M1563 1112q-169 -77 -288.5 -133.5t-199.5 -96.5t-126 -66.5t-69.5 -43.5t-29.5 -27t-6 -18q0 -17 17 -29t59 -32q94 -45 161.5 -80t121 -68.5t99 -70t95.5 -85.5q60 -58 103.5 -98t76 -65t55.5 -36t42 -11h24v-152q-29 0 -55 6t-54.5 23t-61.5 47.5t-77 79.5
q-27 30 -58.5 62.5t-63 62.5t-60.5 54q-28 23 -49 38q5 -11 10 -36q6 -27 6 -65q0 -52 -31 -97.5t-84.5 -82.5t-125 -65.5t-152 -48t-165.5 -29.5t-165 -10q-93 0 -162.5 12.5t-119 33.5t-82 48.5t-51 56.5t-26 58t-7.5 53q0 40 15 82t34.5 76.5t39 56.5t28.5 22
q16 0 16 -14q0 -5 -7.5 -18.5t-16 -34.5t-16 -47.5t-7.5 -55.5q0 -33 24 -67t74.5 -62t127.5 -45.5t183 -17.5q74 0 150 10t145.5 26t130.5 37t106 43t71 43.5t26 38.5q0 27 -12.5 54.5t-44.5 59.5t-86.5 69.5t-138.5 85.5q-23 13 -42.5 24t-33.5 22t-21.5 25t-7.5 33v72
q0 25 9 52t32 55.5t61 59.5t97 64q103 59 249.5 129t342.5 160zM1620 1460l-22 -102l-733 -359l22 103zM693 -432l-79 -80l-80 80l80 79zM697 -236l-79 -80l-80 80l80 79z" />
    <glyph glyph-name="uniFB98" unicode="&#x6b3;" horiz-adv-x="758" arabic-form="initial" 
d="M0 0q-70 0 -70 76t70 76h90q71 0 128 8t97.5 22.5t62.5 33.5t22 40q0 28 -21 63.5t-58.5 73.5t-89.5 76.5t-114 73.5q-23 13 -42 24t-33 22t-21.5 25t-7.5 33v72q0 25 7 49.5t25 50.5t50 53.5t82 59.5q25 15 62 35.5t80.5 43.5t91 47.5t94 48t88.5 44.5t75 37l-25 -131
q-143 -68 -241.5 -117.5t-163.5 -83.5q-51 -27 -85.5 -46.5t-56 -34.5t-31 -26.5t-9.5 -21.5q0 -17 11.5 -27t34 -21.5t55.5 -29t75 -49.5q62 -48 103.5 -91.5t66 -84t35 -78.5t10.5 -74q0 -77 -31.5 -129.5t-87.5 -84t-132.5 -45t-166.5 -13.5h-29zM699 1401l-23 -103
l-592 -299l23 103zM263 -432l-79 -80l-80 80l80 79zM267 -236l-79 -80l-80 80l80 79z" />
    <glyph glyph-name="uniFB99" unicode="&#x6b3;" horiz-adv-x="910" arabic-form="medial" 
d="M0 0q-70 0 -70 76t70 76h82q67 0 125 7t101 22t67.5 38t24.5 55q0 27 -13 54.5t-45 59.5t-86.5 69.5t-138.5 85.5q-23 13 -42 24t-33 22t-21.5 25t-7.5 33v72q0 25 9 52t31.5 55.5t61 59.5t96.5 64q104 59 250 129t342 160l-28 -127q-169 -77 -288.5 -133.5t-199.5 -96.5
t-126 -66.5t-69.5 -43.5t-29.5 -27t-6 -18q0 -17 16.5 -29t58.5 -32q94 -45 161.5 -80t121.5 -68.5t99.5 -70t95.5 -85.5q60 -58 103.5 -98t75.5 -65t55.5 -36t41.5 -11h25v-152q-29 0 -55 6t-54.5 23t-61.5 47.5t-77 79.5q-27 30 -59 62.5t-63.5 62.5t-60.5 54
q-28 22 -49 37q5 -11 11 -35q6 -27 6 -65q0 -82 -34.5 -135t-92.5 -83.5t-135 -42t-162 -11.5h-23zM832 1460l-23 -102l-733 -359l23 103zM273 -432l-79 -80l-80 80l80 79zM277 -236l-79 -80l-80 80l80 79z" />
    <glyph glyph-name="uniFB9A" unicode="&#x6b1;" horiz-adv-x="1577" arabic-form="isolated" 
d="M1518 1401l-23 -103l-591 -299l22 103zM1463 1057q-144 -68 -242.5 -117.5t-163.5 -83.5q-51 -27 -85.5 -46.5t-56 -34.5t-31 -26.5t-9.5 -21.5q0 -17 11.5 -27t34 -21.5t55.5 -29t75 -49.5q62 -48 103.5 -91.5t66 -84t35 -78.5t10.5 -74q0 -60 -27 -109t-73 -77
q-55 -33 -119 -60t-143 -46.5t-175.5 -30t-216.5 -10.5q-93 0 -162.5 12.5t-119 33.5t-82 48.5t-51 56.5t-26 58t-7.5 53q0 40 15 82t34.5 76.5t39 56.5t28.5 22q16 0 16 -14q0 -5 -7.5 -18.5t-16 -34.5t-16 -47.5t-7.5 -55.5q0 -33 24 -67t74.5 -62t127.5 -45.5t183 -17.5
q153 0 275 20t207.5 48t131.5 59t46 53q0 28 -21 63.5t-58.5 73.5t-89.5 76.5t-114 73.5q-23 13 -42 24t-33 22t-21.5 25t-7.5 33v72q0 25 7 49.5t25 50.5t50 53.5t82 59.5q25 15 62 35.5t80.5 43.5t91 47.5t94 48t88.5 44.5t75 37zM1207 1397l-79 -80l-80 80l80 79z
M1003 1397l-80 -80l-80 80l80 79z" />
    <glyph glyph-name="uniFB9B" unicode="&#x6b1;" horiz-adv-x="1698" arabic-form="final" 
d="M1563 1112q-169 -77 -288.5 -133.5t-199.5 -96.5t-126 -66.5t-69.5 -43.5t-29.5 -27t-6 -18q0 -17 17 -29t59 -32q94 -45 161.5 -80t121 -68.5t99 -70t95.5 -85.5q60 -58 103.5 -98t76 -65t55.5 -36t42 -11h24v-152q-29 0 -55 6t-54.5 23t-61.5 47.5t-77 79.5
q-27 30 -58.5 62.5t-63 62.5t-60.5 54q-28 23 -49 38q5 -11 10 -36q6 -27 6 -65q0 -52 -31 -97.5t-84.5 -82.5t-125 -65.5t-152 -48t-165.5 -29.5t-165 -10q-93 0 -162.5 12.5t-119 33.5t-82 48.5t-51 56.5t-26 58t-7.5 53q0 40 15 82t34.5 76.5t39 56.5t28.5 22
q16 0 16 -14q0 -5 -7.5 -18.5t-16 -34.5t-16 -47.5t-7.5 -55.5q0 -33 24 -67t74.5 -62t127.5 -45.5t183 -17.5q74 0 150 10t145.5 26t130.5 37t106 43t71 43.5t26 38.5q0 27 -12.5 54.5t-44.5 59.5t-86.5 69.5t-138.5 85.5q-23 13 -42.5 24t-33.5 22t-21.5 25t-7.5 33v72
q0 25 9 52t32 55.5t61 59.5t97 64q103 59 249.5 129t342.5 160zM1620 1460l-22 -102l-733 -359l22 103zM1207 1397l-79 -80l-80 80l80 79zM1003 1397l-80 -80l-80 80l80 79z" />
    <glyph glyph-name="uniFB9C" unicode="&#x6b1;" horiz-adv-x="758" arabic-form="initial" 
d="M0 0q-70 0 -70 76t70 76h90q71 0 128 8t97.5 22.5t62.5 33.5t22 40q0 28 -21 63.5t-58.5 73.5t-89.5 76.5t-114 73.5q-23 13 -42 24t-33 22t-21.5 25t-7.5 33v72q0 25 7 49.5t25 50.5t50 53.5t82 59.5q25 15 62 35.5t80.5 43.5t91 47.5t94 48t88.5 44.5t75 37l-25 -131
q-143 -68 -241.5 -117.5t-163.5 -83.5q-51 -27 -85.5 -46.5t-56 -34.5t-31 -26.5t-9.5 -21.5q0 -17 11.5 -27t34 -21.5t55.5 -29t75 -49.5q62 -48 103.5 -91.5t66 -84t35 -78.5t10.5 -74q0 -77 -31.5 -129.5t-87.5 -84t-132.5 -45t-166.5 -13.5h-29zM699 1401l-23 -103
l-592 -299l23 103zM377 1397l-79 -80l-80 80l80 79zM173 1397l-80 -80l-80 80l80 79z" />
    <glyph glyph-name="uniFB9D" unicode="&#x6b1;" horiz-adv-x="910" arabic-form="medial" 
d="M0 0q-70 0 -70 76t70 76h82q67 0 125 7t101 22t67.5 38t24.5 55q0 27 -13 54.5t-45 59.5t-86.5 69.5t-138.5 85.5q-23 13 -42 24t-33 22t-21.5 25t-7.5 33v72q0 25 9 52t31.5 55.5t61 59.5t96.5 64q104 59 250 129t342 160l-28 -127q-169 -77 -288.5 -133.5t-199.5 -96.5
t-126 -66.5t-69.5 -43.5t-29.5 -27t-6 -18q0 -17 16.5 -29t58.5 -32q94 -45 161.5 -80t121.5 -68.5t99.5 -70t95.5 -85.5q60 -58 103.5 -98t75.5 -65t55.5 -36t41.5 -11h25v-152q-29 0 -55 6t-54.5 23t-61.5 47.5t-77 79.5q-27 30 -59 62.5t-63.5 62.5t-60.5 54
q-28 22 -49 37q5 -11 11 -35q6 -27 6 -65q0 -82 -34.5 -135t-92.5 -83.5t-135 -42t-162 -11.5h-23zM832 1460l-23 -102l-733 -359l23 103zM377 1397l-79 -80l-80 80l80 79zM173 1397l-80 -80l-80 80l80 79z" />
    <glyph glyph-name="uniFB9E" unicode="&#x6ba;" horiz-adv-x="901" arabic-form="isolated" 
d="M801 75q0 -135 -76 -205q-157 -146 -387 -146q-136 0 -211 83q-63 69 -63 161q0 91 51 197q47 98 74 98q17 0 22 -18q0 -3 -35.5 -73.5t-35.5 -123.5q0 -191 262 -191q210 0 334 132q2 95 -113 307l49 137q22 0 72 -114q57 -130 57 -244z" />
    <glyph glyph-name="uniFB9F" unicode="&#x6ba;" horiz-adv-x="1055" arabic-form="final" 
d="M1055 0h-57q-46 0 -78 18q0 -151 -62 -251q-40 -66 -138 -127q-139 -84 -306 -84q-196 0 -286 101q-64 71 -64 173q0 108 50 215q43 92 67 92q20 0 20 -20q0 -1 -30.5 -73t-30.5 -126q0 -217 313 -217q277 0 401 141q0 173 -79 314l53 127q9 0 76 -99q22 -32 73 -32h78
v-152z" />
    <glyph glyph-name="uniFBA0" unicode="&#x6bb;" horiz-adv-x="901" arabic-form="isolated" 
d="M801 75q0 -135 -76 -205q-157 -146 -387 -146q-136 0 -211 83q-63 69 -63 161q0 91 51 197q47 98 74 98q17 0 22 -18q0 -3 -35.5 -73.5t-35.5 -123.5q0 -191 262 -191q210 0 334 132q2 95 -113 307l49 137q22 0 72 -114q57 -130 57 -244zM355 701q7 10 20 24t30.5 26.5
t37.5 21.5t41 9q41 0 62 -24t21 -54q0 -47 -25 -81t-63 -56t-83 -33t-85 -11q-39 0 -67.5 17.5t-62.5 55.5q30 0 53 1.5t41 3.5l38 52q7 9 9.5 18t2.5 33q0 21 -1.5 45t-4 47.5t-6 45.5t-6.5 39q-18 21 -18 42q0 13 7.5 31.5t19.5 42.5q8 10 13.5 9.5t5.5 -10.5
q0 -42 67 -72q-5 -15 -15.5 -33t-24.5 -39q4 -25 5 -44.5t1 -41.5q0 -16 -3 -31.5t-12 -31.5zM316 600q44 5 80.5 12t63 15.5t41 19.5t14.5 23q0 13 -18.5 25.5t-41.5 12.5q-36 0 -71.5 -30.5t-67.5 -75.5v-2z" />
    <glyph glyph-name="uniFBA1" unicode="&#x6bb;" horiz-adv-x="1055" arabic-form="final" 
d="M1055 0h-57q-46 0 -78 18q0 -151 -62 -251q-40 -66 -138 -127q-139 -84 -306 -84q-196 0 -286 101q-64 71 -64 173q0 108 50 215q43 92 67 92q20 0 20 -20q0 -1 -30.5 -73t-30.5 -126q0 -217 313 -217q277 0 401 141q0 173 -79 314l53 127q9 0 76 -99q22 -32 73 -32h78
v-152zM457 579q7 10 20 24t30.5 26.5t37.5 21.5t41 9q41 0 62 -24t21 -54q0 -47 -25 -81t-63 -56t-83 -33t-85 -11q-39 0 -67.5 17.5t-62.5 55.5q30 0 53 1.5t41 3.5l38 52q7 9 9.5 18t2.5 33q0 21 -1.5 45t-4 47.5t-6 45.5t-6.5 39q-18 21 -18 42q0 13 7.5 31.5t19.5 42.5
q8 10 13.5 9.5t5.5 -10.5q0 -42 67 -72q-5 -15 -15.5 -33t-24.5 -39q4 -25 5 -44.5t1 -41.5q0 -16 -3 -31.5t-12 -31.5zM418 478q44 5 80.5 12t63 15.5t41 19.5t14.5 23q0 13 -18.5 25.5t-41.5 12.5q-36 0 -71.5 -30.5t-67.5 -75.5v-2z" />
    <glyph glyph-name="uniFBA2" unicode="&#x6bb;" horiz-adv-x="444" arabic-form="initial" 
d="M277 260q0 -143 -62 -205q-20 -21 -97 -38q-37 -8 -70 -12.5t-48 -4.5q-70 0 -70 76t70 76h37q127 0 174 32q0 65 -65 142l45 104q4 10 10 10t16 -16q60 -92 60 -164zM143 778q7 10 20 24t30.5 26.5t37.5 21.5t41 9q41 0 62 -24t21 -54q0 -47 -25 -81t-63 -56t-83 -33
t-85 -11q-39 0 -67.5 17.5t-62.5 55.5q30 0 53 1.5t41 3.5l38 52q7 9 9.5 18t2.5 33q0 21 -1.5 45t-4 47.5t-6 45.5t-6.5 39q-18 21 -18 42q0 13 7.5 31.5t19.5 42.5q8 10 13.5 9.5t5.5 -10.5q0 -42 67 -72q-5 -15 -15.5 -33t-24.5 -39q4 -25 5 -44.5t1 -41.5
q0 -16 -3 -31.5t-12 -31.5zM104 677q44 5 80.5 12t63 15.5t41 19.5t14.5 23q0 13 -18.5 25.5t-41.5 12.5q-36 0 -71.5 -30.5t-67.5 -75.5v-2z" />
    <glyph glyph-name="uniFBA3" unicode="&#x6bb;" horiz-adv-x="446" arabic-form="medial" 
d="M162 738q7 10 20 24t30.5 26.5t37.5 21.5t41 9q41 0 62 -24t21 -54q0 -47 -25 -81t-63 -56t-83 -33t-85 -11q-39 0 -67.5 17.5t-62.5 55.5q30 0 53 1.5t41 3.5l38 52q7 9 9.5 18t2.5 33q0 21 -1.5 45t-4 47.5t-6 45.5t-6.5 39q-18 21 -18 42q0 13 7.5 31.5t19.5 42.5
q8 10 13.5 9.5t5.5 -10.5q0 -42 67 -72q-5 -15 -15.5 -33t-24.5 -39q4 -25 5 -44.5t1 -41.5q0 -16 -3 -31.5t-12 -31.5zM123 637q44 5 80.5 12t63 15.5t41 19.5t14.5 23q0 13 -18.5 25.5t-41.5 12.5q-36 0 -71.5 -30.5t-67.5 -75.5v-2zM445 0h-49q-51 0 -108 35
q-67 40 -81 96q-62 -124 -207 -131q-70 0 -70 76t70 76h45q126 0 185 133q18 41 41 41q16 0 16 -15q0 -2 -5 -21.5t-5 -39.5q0 -98 168 -98v-152z" />
    <glyph glyph-name="uniFBA4" unicode="&#x6c0;" horiz-adv-x="589" arabic-form="isolated" 
d="M471 225q0 -124 -46 -179q-49 -61 -169 -61q-152 0 -152 134q0 107 90 262q-22 7 -22 20q0 8 27 67q27 58 36 58q41 0 160 -119q76 -75 76 -182zM405 200q0 35 -54 85q-25 22 -52 40.5t-58 32.5q-61 -85 -61 -153q0 -82 90 -82q52 0 92 20q43 22 43 57zM402 831
q0 -6 -1.5 -15.5t-5 -19t-11 -16.5t-19.5 -8t-34 -2.5t-48 -6.5t-54.5 -14.5t-55.5 -27.5q-8 -5 -21.5 -16.5t-24.5 -11.5q-9 0 -9 15q0 11 10.5 30t40.5 50q-59 33 -59 76q0 16 9 34t32 38q85 73 141 73q30 0 45 -16t15 -32q0 -10 -5 -19t-12.5 -15.5t-16 -10t-14.5 -3.5
q-5 0 -11.5 4t-14 8.5t-16.5 8.5t-19 4q-23 0 -38 -10t-15 -28q0 -9 6.5 -20t18 -20.5t27 -15.5t33.5 -6q9 0 25.5 1t34 2.5t32 3t18.5 1.5q17 0 17 -15z" />
    </font>
</defs>
</svg>
