<?xml version="1.0" standalone="no"?>
<!DOCTYPE svg PUBLIC "-//W3C//DTD SVG 1.1//EN" "http://www.w3.org/Graphics/SVG/1.1/DTD/svg11.dtd" >
<svg xmlns="http://www.w3.org/2000/svg" xmlns:xlink="http://www.w3.org/1999/xlink" version="1.1">
<metadata>
Created by FontForge 20170731 at Sun Jul 17 20:15:01 2016
 By Aleksey,,,
(c)  2014 Bahij Virtual Academy. All rights reserved.
</metadata>
<defs>
<font id="BahijBadiya-Bold" horiz-adv-x="932" >
  <font-face 
    font-family="Bahij Badiya"
    font-weight="700"
    font-stretch="normal"
    units-per-em="2048"
    panose-1="2 4 7 3 6 2 1 2 2 3"
    ascent="1638"
    descent="-410"
    x-height="940"
    cap-height="1291"
    bbox="-341 -1127 4636 2221"
    underline-thickness="50"
    underline-position="-175"
    unicode-range="U+0020-FEFC"
  />
<missing-glyph horiz-adv-x="728" 
d="M0 0v1020h728v-1020h-728zM117 947l247 -372l248 372h-495zM655 881l-247 -371l247 -372v743zM612 73l-248 371l-247 -371h495zM73 138l247 372l-247 371v-743z" />
    <glyph glyph-name="uniFB01" unicode="fi" horiz-adv-x="1139" 
d="M772 1291h227l-2 -220h-227zM189 769h-149v171h149v121q0 77 22.5 141.5t67 112t111 73.5t154.5 26h73v-182h-53q-63 0 -103 -36.5t-40 -125.5v-130h576l-10 -940h-226l9 769h-355v-769h-229z" />
    <glyph glyph-name="uniFB02" unicode="fl" horiz-adv-x="1139" 
d="M189 769h-149v171h149v121q0 77 22.5 141.5t67 112t111 73.5t154.5 26h73v-182h-53q-63 0 -103 -36.5t-40 -125.5v-130h194v-171h-200v-769h-229zM772 1399h227l-12 -1399h-226z" />
    <glyph glyph-name="uniFC31" unicode="&#xfed3;&#xfef0;" horiz-adv-x="2155" arabic-form="isolated" 
d="M1562 550q0 -41 44 -57.5t128 -16.5q16 0 38.5 2.5t44 7.5t37 10.5t21.5 10.5q-4 34 -18.5 68.5t-37 62.5t-50.5 45.5t-58 17.5q-37 0 -65 -17.5t-46.5 -41.5t-28 -50t-9.5 -42zM1547 1168l148 146l144 -146l-144 -148zM1302 0q-47 -244 -231.5 -353.5t-481.5 -109.5
q-160 0 -272 34.5t-181.5 94.5t-102.5 139t-33 167q0 103 29.5 201.5t75.5 177.5l177 -68q-26 -57 -44.5 -121.5t-18.5 -135.5q0 -72 28.5 -122t79 -80.5t119.5 -44.5t149 -14q146 0 245.5 11.5t159.5 28.5t86 41t26 47q0 50 -68 76.5t-225 35.5l54 225h823q43 0 98 0.5
t81 8.5q8 22 11 62.5t3 62.5q-18 -10 -44.5 -20t-57.5 -18.5t-62.5 -13t-60.5 -4.5q-78 0 -126 18.5t-73.5 47.5t-35 65.5t-9.5 71.5q0 57 26 125.5t71.5 128t110.5 100t141 40.5q63 0 112.5 -44t81 -114t48.5 -156.5t17 -172.5q0 -123 -26 -232t-62 -177
q-67 -4 -186.5 -6.5t-299.5 -2.5h-152z" />
    <glyph glyph-name="uniFC32" unicode="&#xfed3;&#xfef2;" horiz-adv-x="2155" arabic-form="isolated" 
d="M365 -722l148 145l117 -117l120 117l146 -145l-146 -147l-120 119l-117 -119zM1562 550q0 -41 44 -57.5t128 -16.5q16 0 38.5 2.5t44 7.5t37 10.5t21.5 10.5q-4 34 -18.5 68.5t-37 62.5t-50.5 45.5t-58 17.5q-37 0 -65 -17.5t-46.5 -41.5t-28 -50t-9.5 -42zM1547 1168
l148 146l144 -146l-144 -148zM1302 0q-47 -244 -231.5 -353.5t-481.5 -109.5q-160 0 -272 34.5t-181.5 94.5t-102.5 139t-33 167q0 103 29.5 201.5t75.5 177.5l177 -68q-26 -57 -44.5 -121.5t-18.5 -135.5q0 -72 28.5 -122t79 -80.5t119.5 -44.5t149 -14q146 0 245.5 11.5
t159.5 28.5t86 41t26 47q0 50 -68 76.5t-225 35.5l54 225h823q43 0 98 0.5t81 8.5q8 22 11 62.5t3 62.5q-18 -10 -44.5 -20t-57.5 -18.5t-62.5 -13t-60.5 -4.5q-78 0 -126 18.5t-73.5 47.5t-35 65.5t-9.5 71.5q0 57 26 125.5t71.5 128t110.5 100t141 40.5q63 0 112.5 -44
t81 -114t48.5 -156.5t17 -172.5q0 -123 -26 -232t-62 -177q-67 -4 -186.5 -6.5t-299.5 -2.5h-152z" />
    <glyph glyph-name="uniFC43" unicode="&#xfedf;&#xfef0;" horiz-adv-x="1804" arabic-form="isolated" 
d="M1303 0q-48 -244 -232.5 -353.5t-481.5 -109.5q-160 0 -272 34.5t-181.5 94.5t-102.5 139t-33 167q0 103 30 201.5t75 177.5l177 -68q-26 -57 -44.5 -121.5t-18.5 -135.5q0 -72 28.5 -122t79 -80.5t119.5 -44.5t149 -14q146 0 245.5 11.5t159.5 28.5t86 41t26 47
q0 50 -68 76.5t-225 35.5l54 225h464q36 0 71.5 1.5t60.5 5.5v997h215v-1216q-99 -18 -348 -18h-33z" />
    <glyph glyph-name="uniFC44" unicode="&#xfedf;&#xfef2;" horiz-adv-x="1804" arabic-form="isolated" 
d="M365 -722l148 145l117 -117l120 117l146 -145l-146 -147l-120 119l-117 -119zM1303 0q-48 -244 -232.5 -353.5t-481.5 -109.5q-160 0 -272 34.5t-181.5 94.5t-102.5 139t-33 167q0 103 30 201.5t75 177.5l177 -68q-26 -57 -44.5 -121.5t-18.5 -135.5q0 -72 28.5 -122
t79 -80.5t119.5 -44.5t149 -14q146 0 245.5 11.5t159.5 28.5t86 41t26 47q0 50 -68 76.5t-225 35.5l54 225h464q36 0 71.5 1.5t60.5 5.5v997h215v-1216q-99 -18 -348 -18h-33z" />
    <glyph glyph-name="uniFC64" unicode="&#xfe8c;&#xfeae;" horiz-adv-x="1453" arabic-form="final" 
d="M996 810q20 11 60 32.5t70 28.5v8q-39 15 -60.5 38t-21.5 61q0 39 19.5 80t50.5 74.5t69 55t77 21.5q21 0 41.5 -3t33.5 -10v-126q-18 7 -38.5 12.5t-45.5 5.5q-52 0 -86.5 -25t-34.5 -57q0 -28 34.5 -55t88.5 -27q28 0 72.5 11t89.5 24l-11 -127q-54 -9 -99 -19t-87 -26
t-84.5 -39.5t-92.5 -58.5zM807 0q-47 0 -97 27t-84 89q-13 -62 -51 -147t-96 -178t-133.5 -187.5t-164.5 -174.5l-178 167q153 122 247.5 218.5t145.5 172t67.5 133.5t16.5 104q0 34 -10.5 66.5t-34.5 69.5t-62 81t-92 100l220 136q15 -29 33.5 -73.5t38 -92.5t37.5 -94.5
t29 -80.5q14 -35 25.5 -55.5t30.5 -32t48 -15t77 -3.5h93q62 0 98.5 3.5t55 12t24 22.5t7.5 34l17 250l239 45l-32 -216q-2 -9 -2.5 -20.5t-0.5 -20.5q0 -64 20.5 -87t89.5 -23h48q20 0 28 -10t8 -20v-166q0 -34 -36 -34h-56q-106 0 -170 33t-82 127q-26 -50 -48.5 -82
t-47.5 -48.5t-55 -23t-71 -6.5h-140z" />
    <glyph glyph-name="uniFC67" unicode="&#xfe8c;&#xfee6;" horiz-adv-x="1819" arabic-form="final" 
d="M365 735l148 146l146 -146l-146 -147zM1362 810q20 11 60 32.5t70 28.5v8q-39 15 -60.5 38t-21.5 61q0 39 19.5 80t50 74.5t69 55t77.5 21.5q21 0 41.5 -3t33.5 -10v-126q-18 7 -38.5 12.5t-45.5 5.5q-52 0 -86.5 -25t-34.5 -57q0 -28 34.5 -55t88.5 -27q28 0 72.5 11
t89.5 24l-11 -127q-54 -9 -99 -19t-87 -26t-84.5 -39.5t-92.5 -58.5zM1183 0q-41 0 -78.5 26t-52.5 79q-13 -139 -64 -237.5t-127 -162t-171 -92.5t-197 -29q-112 0 -203.5 31t-156 87t-99 135t-34.5 178q0 78 22.5 164t66.5 161l185 -80q-54 -112 -54 -221q0 -54 23.5 -96
t64.5 -70t95 -42t115 -14q100 0 167 20.5t108 55t58.5 80t17.5 94.5q0 43 -9 86t-25 84t-35.5 78.5t-37.5 67.5l217 100q34 -88 56.5 -138t42 -76.5t42 -32.5t57.5 -6h102q62 0 98.5 3.5t55 12t24 22.5t7.5 34l17 250l239 45l-32 -216q-2 -9 -3 -20.5t-1 -20.5
q0 -64 20.5 -87t90.5 -23h48q20 0 28 -10t8 -20v-166q0 -34 -36 -34h-56q-106 0 -170 33t-82 127q-26 -50 -48.5 -82t-47.5 -48.5t-55 -23t-71 -6.5h-130z" />
    <glyph glyph-name="uniFC6A" unicode="&#xfe92;&#xfeae;" horiz-adv-x="1443" arabic-form="final" 
d="M807 0q-47 0 -97 27t-84 89q-13 -62 -51 -147t-96 -178t-133.5 -187.5t-164.5 -174.5l-178 167q153 122 247.5 218.5t145.5 172t67.5 133.5t16.5 104q0 34 -10.5 66.5t-34.5 69.5t-62 81t-92 100l220 136q15 -29 33.5 -73.5t38 -92.5t37.5 -94.5t29 -80.5
q14 -35 25.5 -55.5t30.5 -32t48 -15t77 -3.5h84q62 0 98.5 3.5t55 12t24 22.5t7.5 34l17 250l239 45l-32 -216q-2 -9 -3 -20.5t-1 -20.5q0 -64 20.5 -87t90.5 -23h48q20 0 27.5 -10t7.5 -20v-166q0 -34 -35 -34h-57q-105 0 -169 33t-82 127q-26 -50 -48.5 -82t-47.5 -48.5
t-55 -23t-71 -6.5h-131zM1020 -312l147 146l146 -146l-146 -147z" />
    <glyph glyph-name="uniFC70" unicode="&#xfe98;&#xfeae;" horiz-adv-x="1443" arabic-form="final" 
d="M807 0q-47 0 -97 27t-84 89q-13 -62 -51 -147t-96 -178t-133.5 -187.5t-164.5 -174.5l-178 167q153 122 247.5 218.5t145.5 172t67.5 133.5t16.5 104q0 34 -10.5 66.5t-34 69.5t-61.5 81t-93 100l220 136q15 -29 33.5 -73.5t38 -92.5t37.5 -94.5t29 -80.5
q14 -35 25.5 -55.5t30.5 -32t48 -15t77 -3.5h84q62 0 98.5 3.5t55 12t24 22.5t7.5 34l17 250l239 45l-32 -216q-2 -9 -3 -20.5t-1 -20.5q0 -64 20.5 -87t90.5 -23h48q20 0 27.5 -10t7.5 -20v-166q0 -34 -35 -34h-57q-105 0 -169 33t-82 127q-26 -50 -48.5 -82t-47.5 -48.5
t-55 -23t-71 -6.5h-131zM912 883l148 145l125 -118l126 118l146 -145l-146 -148l-126 120l-125 -120z" />
    <glyph glyph-name="uniFC86" unicode="&#xfee0;&#xfef0;" horiz-adv-x="1993" arabic-form="final" 
d="M1303 0q-48 -244 -232.5 -353.5t-481.5 -109.5q-160 0 -272 34.5t-181.5 94.5t-102.5 139t-33 167q0 103 30 201.5t75 177.5l177 -68q-26 -57 -44.5 -121.5t-18.5 -135.5q0 -72 28.5 -122t79 -80.5t119.5 -44.5t149 -14q146 0 245.5 11.5t159.5 28.5t86 41t26 47
q0 50 -68 76.5t-225 35.5l54 225h494q56 0 89.5 3.5t51.5 16.5t24.5 39t6.5 71v874h215v-859q0 -51 7 -80.5t24 -43.5t44.5 -17.5t66.5 -3.5h121q20 0 28 -10t8 -20v-166q0 -34 -36 -34h-110q-52 0 -92.5 19.5t-68.5 51.5t-45 71t-22 78q-35 -69 -72.5 -111.5t-75 -67.5
t-75 -33t-70.5 -8h-83z" />
    <glyph glyph-name="uniFC87" unicode="&#xfee0;&#xfef2;" horiz-adv-x="1993" arabic-form="final" 
d="M365 -722l148 145l117 -117l120 117l146 -145l-146 -147l-120 119l-117 -119zM1303 0q-48 -244 -232.5 -353.5t-481.5 -109.5q-160 0 -272 34.5t-181.5 94.5t-102.5 139t-33 167q0 103 30 201.5t75 177.5l177 -68q-26 -57 -44.5 -121.5t-18.5 -135.5q0 -72 28.5 -122
t79 -80.5t119.5 -44.5t149 -14q146 0 245.5 11.5t159.5 28.5t86 41t26 47q0 50 -68 76.5t-225 35.5l54 225h494q56 0 89.5 3.5t51.5 16.5t24.5 39t6.5 71v874h215v-859q0 -51 7 -80.5t24 -43.5t44.5 -17.5t66.5 -3.5h121q20 0 28 -10t8 -20v-166q0 -34 -36 -34h-110
q-52 0 -92.5 19.5t-68.5 51.5t-45 71t-22 78q-35 -69 -72.5 -111.5t-75 -67.5t-75 -33t-70.5 -8h-83z" />
    <glyph glyph-name="uniFCCC" unicode="&#xfedf;&#xfee4;" horiz-adv-x="1632" arabic-form="initial" 
d="M744 289q0 26 -10.5 60.5t-31 64.5t-49.5 50.5t-66 20.5q-43 0 -99 -47.5t-114 -174.5q41 -15 85 -25t84 -15.5t74.5 -9t57.5 -3.5q22 0 36 9t20.5 20.5t9.5 26t3 23.5zM1072 0q-52 0 -107 37.5t-78 104.5q-32 -67 -78.5 -112t-94.5 -45q-103 0 -194.5 36t-202.5 121
q-25 -49 -51 -77t-52.5 -43t-52.5 -18.5t-50 -3.5h-130q-21 0 -28.5 9t-7.5 21v166q0 34 36 34h119q45 0 77.5 26t68.5 93q63 125 120.5 198t107.5 109t88 45.5t62 9.5q69 0 123 -35.5t90.5 -89.5t55.5 -119.5t19 -124.5q0 -34 5.5 -56.5t22 -34.5t49.5 -16.5t88 -4.5h84
q36 0 71.5 1.5t60.5 5.5v997h215v-1216q-99 -18 -349 -18h-87z" />
    <glyph glyph-name="uniFCFB" unicode="&#xfeb3;&#xfef0;" horiz-adv-x="2972" arabic-form="isolated" 
d="M1302 0q-47 -244 -231.5 -353.5t-481.5 -109.5q-160 0 -272 34.5t-181.5 94.5t-102.5 139t-33 167q0 103 29.5 201.5t75.5 177.5l177 -68q-26 -57 -44.5 -121.5t-18.5 -135.5q0 -72 28.5 -122t79 -80.5t119.5 -44.5t149 -14q146 0 245.5 11.5t159.5 28.5t86 41t26 47
q0 50 -68 76.5t-225 35.5l54 225h494q125 0 172.5 15.5t52.5 56.5l16 195l226 44l-19 -160q-2 -9 -3 -20.5t-1 -20.5q0 -64 20.5 -87t89.5 -23h47q62 0 98.5 3.5t55 12t24 22.5t7.5 34l16 225l240 44l-32 -190q-2 -9 -3 -20.5t-1 -20.5q0 -64 20.5 -87t89.5 -23h71h24
t23.5 0.5t29 2.5t42.5 6q4 11 4.5 19.5t0.5 21.5q0 30 -25 104.5t-89 203.5l206 63q38 -106 60 -199.5t22 -177.5q0 -80 -25.5 -137t-63.5 -119q-64 -11 -105 -14.5t-99 -3.5h-84q-105 0 -169 33t-82 127q-27 -50 -49 -82t-47 -48.5t-55 -23t-71 -6.5h-88q-107 0 -170 33
t-82 127q-50 -100 -115.5 -130t-145.5 -30h-99z" />
    <glyph glyph-name="uniFCFC" unicode="&#xfeb3;&#xfef2;" horiz-adv-x="2972" arabic-form="isolated" 
d="M365 -722l148 145l117 -117l120 117l146 -145l-146 -147l-120 119l-117 -119zM1302 0q-47 -244 -231.5 -353.5t-481.5 -109.5q-160 0 -272 34.5t-181.5 94.5t-102.5 139t-33 167q0 103 29.5 201.5t75.5 177.5l177 -68q-26 -57 -44.5 -121.5t-18.5 -135.5q0 -72 28.5 -122
t79 -80.5t119.5 -44.5t149 -14q146 0 245.5 11.5t159.5 28.5t86 41t26 47q0 50 -68 76.5t-225 35.5l54 225h494q125 0 172.5 15.5t52.5 56.5l16 195l226 44l-19 -160q-2 -9 -3 -20.5t-1 -20.5q0 -64 20.5 -87t89.5 -23h47q62 0 98.5 3.5t55 12t24 22.5t7.5 34l16 225l240 44
l-32 -190q-2 -9 -3 -20.5t-1 -20.5q0 -64 20.5 -87t89.5 -23h71h24t23.5 0.5t29 2.5t42.5 6q4 11 4.5 19.5t0.5 21.5q0 30 -25 104.5t-89 203.5l206 63q38 -106 60 -199.5t22 -177.5q0 -80 -25.5 -137t-63.5 -119q-64 -11 -105 -14.5t-99 -3.5h-84q-105 0 -169 33t-82 127
q-27 -50 -49 -82t-47 -48.5t-55 -23t-71 -6.5h-88q-107 0 -170 33t-82 127q-50 -100 -115.5 -130t-145.5 -30h-99z" />
    <glyph glyph-name="uniFCFD" unicode="&#xfeb7;&#xfef0;" horiz-adv-x="2972" arabic-form="isolated" 
d="M1302 0q-47 -244 -231.5 -353.5t-481.5 -109.5q-160 0 -272 34.5t-181.5 94.5t-102.5 139t-33 167q0 103 29.5 201.5t75.5 177.5l177 -68q-26 -57 -44.5 -121.5t-18.5 -135.5q0 -72 28.5 -122t79 -80.5t119.5 -44.5t149 -14q146 0 245.5 11.5t159.5 28.5t86 41t26 47
q0 50 -68 76.5t-225 35.5l54 225h494q125 0 172.5 15.5t52.5 56.5l16 195l226 44l-19 -160q-2 -9 -3 -20.5t-1 -20.5q0 -64 20.5 -87t89.5 -23h47q62 0 98.5 3.5t55 12t24 22.5t7.5 34l16 225l240 44l-32 -190q-2 -9 -3 -20.5t-1 -20.5q0 -64 20.5 -87t89.5 -23h71h24
t23.5 0.5t29 2.5t42.5 6q4 11 4.5 19.5t0.5 21.5q0 30 -25 104.5t-89 203.5l206 63q38 -106 60 -199.5t22 -177.5q0 -80 -25.5 -137t-63.5 -119q-64 -11 -105 -14.5t-99 -3.5h-84q-105 0 -169 33t-82 127q-27 -50 -49 -82t-47 -48.5t-55 -23t-71 -6.5h-88q-107 0 -170 33
t-82 127q-50 -100 -115.5 -130t-145.5 -30h-99zM2205 1244l147 146l146 -146l-146 -147zM2078 1004l148 146l124 -118l127 118l146 -146l-146 -148l-127 120l-124 -120z" />
    <glyph glyph-name="uniFCFE" unicode="&#xfeb7;&#xfef2;" horiz-adv-x="2972" arabic-form="isolated" 
d="M365 -722l148 145l117 -117l120 117l146 -145l-146 -147l-120 119l-117 -119zM1302 0q-47 -244 -231.5 -353.5t-481.5 -109.5q-160 0 -272 34.5t-181.5 94.5t-102.5 139t-33 167q0 103 29.5 201.5t75.5 177.5l177 -68q-26 -57 -44.5 -121.5t-18.5 -135.5q0 -72 28.5 -122
t79 -80.5t119.5 -44.5t149 -14q146 0 245.5 11.5t159.5 28.5t86 41t26 47q0 50 -68 76.5t-225 35.5l54 225h494q125 0 172.5 15.5t52.5 56.5l16 195l226 44l-19 -160q-2 -9 -3 -20.5t-1 -20.5q0 -64 20.5 -87t89.5 -23h47q62 0 98.5 3.5t55 12t24 22.5t7.5 34l16 225l240 44
l-32 -190q-2 -9 -3 -20.5t-1 -20.5q0 -64 20.5 -87t89.5 -23h71h24t23.5 0.5t29 2.5t42.5 6q4 11 4.5 19.5t0.5 21.5q0 30 -25 104.5t-89 203.5l206 63q38 -106 60 -199.5t22 -177.5q0 -80 -25.5 -137t-63.5 -119q-64 -11 -105 -14.5t-99 -3.5h-84q-105 0 -169 33t-82 127
q-27 -50 -49 -82t-47 -48.5t-55 -23t-71 -6.5h-88q-107 0 -170 33t-82 127q-50 -100 -115.5 -130t-145.5 -30h-99zM2205 1244l147 146l146 -146l-146 -147zM2078 1004l148 146l124 -118l127 118l146 -146l-146 -148l-127 120l-124 -120z" />
    <glyph glyph-name="uniFD05" unicode="&#xfebb;&#xfef0;" horiz-adv-x="3064" arabic-form="isolated" 
d="M2753 242q6 16 9.5 32.5t3.5 38.5q0 25 -22.5 61.5t-60.5 69.5t-86.5 58t-99.5 25q-37 0 -67.5 -9t-61.5 -26.5t-64.5 -45.5t-74.5 -67q-21 -19 -45 -41.5t-48 -44t-46 -39t-37 -24.5h98q72 0 161 0.5t174.5 1.5t157.5 4t109 6zM1339 0h-37q-47 -244 -231.5 -353.5
t-481.5 -109.5q-160 0 -272 34.5t-181.5 94.5t-102.5 139t-33 167q0 103 29.5 201.5t75.5 177.5l177 -68q-26 -57 -44.5 -121.5t-18.5 -135.5q0 -72 28.5 -122t79 -80.5t119.5 -44.5t149 -14q146 0 245.5 11.5t159.5 28.5t86 41t26 47q0 50 -68 76.5t-225 35.5l54 225h440
q54 0 86.5 3.5t49.5 12t23.5 22.5t7.5 34l18 205l238 45l-31 -171q-2 -9 -3 -20.5t-1 -20.5q0 -64 20.5 -87t89.5 -23h15q58 33 130.5 99t141.5 137q69 73 129 125.5t116 86.5t112 50t115 16q64 0 130 -36.5t120 -91.5t89 -119t35 -122q0 -21 -6.5 -61t-17 -89t-25.5 -104
t-32 -108q-63 -4 -119 -6.5t-117 -3.5t-131.5 -2t-165.5 -1h-526q-107 0 -170 33t-83 127q-26 -50 -48.5 -82t-47.5 -48.5t-55 -23.5q-26 -5 -61 -6z" />
    <glyph glyph-name="uniFD06" unicode="&#xfebb;&#xfef2;" horiz-adv-x="3064" arabic-form="isolated" 
d="M365 -722l148 145l117 -117l120 117l146 -145l-146 -147l-120 119l-117 -119zM2753 242q6 16 9.5 32.5t3.5 38.5q0 25 -22.5 61.5t-60.5 69.5t-86.5 58t-99.5 25q-37 0 -67.5 -9t-61.5 -26.5t-64.5 -45.5t-74.5 -67q-21 -19 -45 -41.5t-48 -44t-46 -39t-37 -24.5h98
q72 0 161 0.5t174.5 1.5t157.5 4t109 6zM1339 0h-37q-47 -244 -231.5 -353.5t-481.5 -109.5q-160 0 -272 34.5t-181.5 94.5t-102.5 139t-33 167q0 103 29.5 201.5t75.5 177.5l177 -68q-26 -57 -44.5 -121.5t-18.5 -135.5q0 -72 28.5 -122t79 -80.5t119.5 -44.5t149 -14
q146 0 245.5 11.5t159.5 28.5t86 41t26 47q0 50 -68 76.5t-225 35.5l54 225h440q54 0 86.5 3.5t49.5 12t23.5 22.5t7.5 34l18 205l238 45l-31 -171q-2 -9 -3 -20.5t-1 -20.5q0 -64 20.5 -87t89.5 -23h15q58 33 130.5 99t141.5 137q69 73 129 125.5t116 86.5t112 50t115 16
q64 0 130 -36.5t120 -91.5t89 -119t35 -122q0 -21 -6.5 -61t-17 -89t-25.5 -104t-32 -108q-63 -4 -119 -6.5t-117 -3.5t-131.5 -2t-165.5 -1h-526q-107 0 -170 33t-83 127q-26 -50 -48.5 -82t-47.5 -48.5t-55 -23.5q-26 -5 -61 -6z" />
    <glyph glyph-name="uniFD07" unicode="&#xfebf;&#xfef0;" horiz-adv-x="3064" arabic-form="isolated" 
d="M2753 242q6 16 9.5 32.5t3.5 38.5q0 25 -22.5 61.5t-60.5 69.5t-86.5 58t-99.5 25q-37 0 -67.5 -9t-61.5 -26.5t-64.5 -45.5t-74.5 -67q-21 -19 -45 -41.5t-48 -44t-46 -39t-37 -24.5h98q72 0 161 0.5t174.5 1.5t157.5 4t109 6zM1339 0h-37q-47 -244 -231.5 -353.5
t-481.5 -109.5q-160 0 -272 34.5t-181.5 94.5t-102.5 139t-33 167q0 103 29.5 201.5t75.5 177.5l177 -68q-26 -57 -44.5 -121.5t-18.5 -135.5q0 -72 28.5 -122t79 -80.5t119.5 -44.5t149 -14q146 0 245.5 11.5t159.5 28.5t86 41t26 47q0 50 -68 76.5t-225 35.5l54 225h440
q54 0 86.5 3.5t49.5 12t23.5 22.5t7.5 34l18 205l238 45l-31 -171q-2 -9 -3 -20.5t-1 -20.5q0 -64 20.5 -87t89.5 -23h15q58 33 130.5 99t141.5 137q69 73 129 125.5t116 86.5t112 50t115 16q64 0 130 -36.5t120 -91.5t89 -119t35 -122q0 -21 -6.5 -61t-17 -89t-25.5 -104
t-32 -108q-63 -4 -119 -6.5t-117 -3.5t-131.5 -2t-165.5 -1h-526q-107 0 -170 33t-83 127q-26 -50 -48.5 -82t-47.5 -48.5t-55 -23.5q-26 -5 -61 -6zM2315 1101l148 145l144 -145l-144 -147z" />
    <glyph glyph-name="uniFD08" unicode="&#xfebf;&#xfef2;" horiz-adv-x="3064" arabic-form="isolated" 
d="M365 -722l148 145l117 -117l120 117l146 -145l-146 -147l-120 119l-117 -119zM2753 242q6 16 9.5 32.5t3.5 38.5q0 25 -22.5 61.5t-60.5 69.5t-86.5 58t-99.5 25q-37 0 -67.5 -9t-61.5 -26.5t-64.5 -45.5t-74.5 -67q-21 -19 -45 -41.5t-48 -44t-46 -39t-37 -24.5h98
q72 0 161 0.5t174.5 1.5t157.5 4t109 6zM1339 0h-37q-47 -244 -231.5 -353.5t-481.5 -109.5q-160 0 -272 34.5t-181.5 94.5t-102.5 139t-33 167q0 103 29.5 201.5t75.5 177.5l177 -68q-26 -57 -44.5 -121.5t-18.5 -135.5q0 -72 28.5 -122t79 -80.5t119.5 -44.5t149 -14
q146 0 245.5 11.5t159.5 28.5t86 41t26 47q0 50 -68 76.5t-225 35.5l54 225h440q54 0 86.5 3.5t49.5 12t23.5 22.5t7.5 34l18 205l238 45l-31 -171q-2 -9 -3 -20.5t-1 -20.5q0 -64 20.5 -87t89.5 -23h15q58 33 130.5 99t141.5 137q69 73 129 125.5t116 86.5t112 50t115 16
q64 0 130 -36.5t120 -91.5t89 -119t35 -122q0 -21 -6.5 -61t-17 -89t-25.5 -104t-32 -108q-63 -4 -119 -6.5t-117 -3.5t-131.5 -2t-165.5 -1h-526q-107 0 -170 33t-83 127q-26 -50 -48.5 -82t-47.5 -48.5t-55 -23.5q-26 -5 -61 -6zM2315 1101l148 145l144 -145l-144 -147z
" />
    <glyph glyph-name="uniFD0D" unicode="&#xfeb7;&#xfeae;" horiz-adv-x="2523" arabic-form="isolated" 
d="M1628 1004l148 146l125 -118l126 118l146 -146l-146 -148l-126 120l-125 -120zM1755 1244l148 146l145 -146l-145 -147zM807 0q-47 0 -97 27t-84 89q-13 -62 -51 -147t-96 -178t-133.5 -187.5t-164.5 -174.5l-178 167q153 122 247.5 218.5t145.5 172t67.5 133.5t16.5 104
q0 34 -10.5 66.5t-34 69.5t-61.5 81t-93 100l220 136q15 -29 33.5 -73.5t38 -92.5t37.5 -94.5t29 -80.5q14 -35 25.5 -55.5t30.5 -32t48 -15t77 -3.5h98q124 0 171.5 15.5t52.5 56.5l16 195l226 44l-19 -160q-2 -9 -3 -20.5t-1 -20.5q0 -64 20.5 -87t90.5 -23h46
q62 0 98.5 3.5t55 12t24 22.5t7.5 34l16 225l240 44l-32 -190q-2 -9 -3 -20.5t-1 -20.5q0 -64 20.5 -87t89.5 -23h71h24.5t23 0.5t29.5 2.5t42 6q4 11 5 19.5t1 21.5q0 30 -25 104.5t-90 203.5l207 63q37 -106 59.5 -199.5t22.5 -177.5q0 -80 -26 -137t-64 -119
q-63 -11 -104 -14.5t-100 -3.5h-84q-105 0 -169 33t-82 127q-26 -50 -48.5 -82t-47.5 -48.5t-55 -23t-71 -6.5h-88q-106 0 -169.5 33t-82.5 127q-50 -100 -115 -130t-146 -30h-144z" />
    <glyph glyph-name="uniFD0E" unicode="&#xfeb3;&#xfeae;" horiz-adv-x="2523" arabic-form="isolated" 
d="M807 0q-47 0 -97 27t-84 89q-13 -62 -51 -147t-96 -178t-133.5 -187.5t-164.5 -174.5l-178 167q153 122 247.5 218.5t145.5 172t67.5 133.5t16.5 104q0 34 -10.5 66.5t-34 69.5t-61.5 81t-93 100l220 136q15 -29 33.5 -73.5t38 -92.5t37.5 -94.5t29 -80.5
q14 -35 25.5 -55.5t30.5 -32t48 -15t77 -3.5h98q124 0 171.5 15.5t52.5 56.5l16 195l226 44l-19 -160q-2 -9 -3 -20.5t-1 -20.5q0 -64 20.5 -87t90.5 -23h46q62 0 98.5 3.5t55 12t24 22.5t7.5 34l16 225l240 44l-32 -190q-2 -9 -3 -20.5t-1 -20.5q0 -64 20.5 -87t89.5 -23
h71h24.5t23 0.5t29.5 2.5t42 6q4 11 5 19.5t1 21.5q0 30 -25 104.5t-90 203.5l207 63q37 -106 59.5 -199.5t22.5 -177.5q0 -80 -26 -137t-64 -119q-63 -11 -104 -14.5t-100 -3.5h-84q-105 0 -169 33t-82 127q-26 -50 -48.5 -82t-47.5 -48.5t-55 -23t-71 -6.5h-88
q-106 0 -169.5 33t-82.5 127q-50 -100 -115 -130t-146 -30h-144z" />
    <glyph glyph-name="uniFD0F" unicode="&#xfebb;&#xfeae;" horiz-adv-x="2605" arabic-form="isolated" 
d="M2294 242q6 16 9.5 32.5t3.5 38.5q0 25 -22.5 61.5t-60.5 69.5t-86.5 58t-99.5 25q-37 0 -67.5 -9t-61.5 -26.5t-64.5 -45.5t-74.5 -67q-21 -19 -45 -41.5t-48 -44t-46 -39t-36 -24.5h97q72 0 161 0.5t174.5 1.5t157.5 4t109 6zM807 0q-47 0 -97 27t-84 89
q-13 -62 -51 -147t-96 -178t-133.5 -187.5t-164.5 -174.5l-178 167q153 122 247.5 218.5t145.5 172t67.5 133.5t16.5 104q0 34 -10.5 66.5t-34.5 69.5t-62 81t-92 100l220 136q15 -29 33.5 -73.5t38 -92.5t37.5 -94.5t29 -80.5q14 -35 25.5 -55.5t30.5 -32t48 -15t77 -3.5
h34q54 0 86.5 3.5t49.5 12t23.5 22.5t8.5 34l17 205l239 45l-32 -171q-2 -9 -3 -20.5t-1 -20.5q0 -64 20.5 -87t89.5 -23h15q58 33 130.5 99t141.5 137q69 73 129 125.5t116 86.5t112 50t115 16q64 0 130 -36.5t120 -91.5t89 -119t35 -122q0 -21 -6.5 -61t-17 -89
t-25.5 -104t-32 -108q-63 -4 -119 -6.5t-117 -3.5t-131.5 -2t-165.5 -1h-526q-107 0 -170 33t-82 127q-27 -50 -49 -82t-47.5 -48.5t-55.5 -23t-71 -6.5h-63z" />
    <glyph glyph-name="uniFD10" unicode="&#xfebf;&#xfeae;" horiz-adv-x="2605" arabic-form="isolated" 
d="M1856 1101l148 145l144 -145l-144 -147zM2294 242q6 16 9.5 32.5t3.5 38.5q0 25 -22.5 61.5t-60.5 69.5t-86.5 58t-99.5 25q-37 0 -67.5 -9t-61.5 -26.5t-64.5 -45.5t-74.5 -67q-21 -19 -45 -41.5t-48 -44t-46 -39t-36 -24.5h97q72 0 161 0.5t174.5 1.5t157.5 4t109 6z
M807 0q-47 0 -97 27t-84 89q-13 -62 -51 -147t-96 -178t-133.5 -187.5t-164.5 -174.5l-178 167q153 122 247.5 218.5t145.5 172t67.5 133.5t16.5 104q0 34 -10.5 66.5t-34.5 69.5t-62 81t-92 100l220 136q15 -29 33.5 -73.5t38 -92.5t37.5 -94.5t29 -80.5q14 -35 25.5 -55.5
t30.5 -32t48 -15t77 -3.5h34q54 0 86.5 3.5t49.5 12t23.5 22.5t8.5 34l17 205l239 45l-32 -171q-2 -9 -3 -20.5t-1 -20.5q0 -64 20.5 -87t89.5 -23h15q58 33 130.5 99t141.5 137q69 73 129 125.5t116 86.5t112 50t115 16q64 0 130 -36.5t120 -91.5t89 -119t35 -122
q0 -21 -6.5 -61t-17 -89t-25.5 -104t-32 -108q-63 -4 -119 -6.5t-117 -3.5t-131.5 -2t-165.5 -1h-526q-107 0 -170 33t-82 127q-27 -50 -49 -82t-47.5 -48.5t-55.5 -23t-71 -6.5h-63z" />
    <glyph glyph-name="uniFD17" unicode="&#xfeb4;&#xfef0;" horiz-adv-x="2979" arabic-form="final" 
d="M1302 0q-47 -244 -231.5 -353.5t-481.5 -109.5q-160 0 -272 34.5t-181.5 94.5t-102.5 139t-33 167q0 103 29.5 201.5t75.5 177.5l177 -68q-26 -57 -44.5 -121.5t-18.5 -135.5q0 -72 28.5 -122t79 -80.5t119.5 -44.5t149 -14q146 0 245.5 11.5t159.5 28.5t86 41t26 47
q0 50 -68 76.5t-225 35.5l54 225h493q124 0 171.5 15.5t52.5 56.5l16 195l226 44l-19 -160q-2 -9 -3 -20.5t-1 -20.5q0 -64 20.5 -87t90.5 -23h46q62 0 98.5 3.5t55 12t24 22.5t7.5 34l16 225l240 44l-32 -190q-2 -9 -3 -20.5t-1 -20.5q0 -64 20.5 -87t89.5 -23q56 0 89 3.5
t49.5 12t22 22.5t7.5 34l17 250l238 45l-31 -216q-2 -9 -3 -20.5t-1 -20.5q0 -32 3 -53.5t12 -33.5t29.5 -17.5t54.5 -5.5h36q20 0 27.5 -10t7.5 -20v-166q0 -34 -35 -34h-43q-107 0 -164.5 33t-76.5 127q-26 -50 -48.5 -82t-48 -48.5t-55 -23t-70.5 -6.5h-25
q-105 0 -169 33t-82 127q-26 -50 -48.5 -82t-47.5 -48.5t-55 -23t-71 -6.5h-88q-106 0 -169.5 33t-82.5 127q-50 -100 -115 -130t-146 -30h-97z" />
    <glyph glyph-name="uniFD18" unicode="&#xfeb4;&#xfef2;" horiz-adv-x="2979" arabic-form="final" 
d="M365 -722l148 145l117 -117l120 117l146 -145l-146 -147l-120 119l-117 -119zM1302 0q-47 -244 -231.5 -353.5t-481.5 -109.5q-160 0 -272 34.5t-181.5 94.5t-102.5 139t-33 167q0 103 29.5 201.5t75.5 177.5l177 -68q-26 -57 -44.5 -121.5t-18.5 -135.5q0 -72 28.5 -122
t79 -80.5t119.5 -44.5t149 -14q146 0 245.5 11.5t159.5 28.5t86 41t26 47q0 50 -68 76.5t-225 35.5l54 225h493q124 0 171.5 15.5t52.5 56.5l16 195l226 44l-19 -160q-2 -9 -3 -20.5t-1 -20.5q0 -64 20.5 -87t90.5 -23h46q62 0 98.5 3.5t55 12t24 22.5t7.5 34l16 225l240 44
l-32 -190q-2 -9 -3 -20.5t-1 -20.5q0 -64 20.5 -87t89.5 -23q56 0 89 3.5t49.5 12t22 22.5t7.5 34l17 250l238 45l-31 -216q-2 -9 -3 -20.5t-1 -20.5q0 -32 3 -53.5t12 -33.5t29.5 -17.5t54.5 -5.5h36q20 0 27.5 -10t7.5 -20v-166q0 -34 -35 -34h-43q-107 0 -164.5 33
t-76.5 127q-26 -50 -48.5 -82t-48 -48.5t-55 -23t-70.5 -6.5h-25q-105 0 -169 33t-82 127q-26 -50 -48.5 -82t-47.5 -48.5t-55 -23t-71 -6.5h-88q-106 0 -169.5 33t-82.5 127q-50 -100 -115 -130t-146 -30h-97z" />
    <glyph glyph-name="uniFD19" unicode="&#xfeb8;&#xfef0;" horiz-adv-x="2979" arabic-form="final" 
d="M2199 1244l148 146l146 -146l-146 -147zM1302 0q-47 -244 -231.5 -353.5t-481.5 -109.5q-160 0 -272 34.5t-181.5 94.5t-102.5 139t-33 167q0 103 29.5 201.5t75.5 177.5l177 -68q-26 -57 -44.5 -121.5t-18.5 -135.5q0 -72 28.5 -122t79 -80.5t119.5 -44.5t149 -14
q146 0 245.5 11.5t159.5 28.5t86 41t26 47q0 50 -68 76.5t-225 35.5l54 225h493q124 0 171.5 15.5t52.5 56.5l16 195l226 44l-19 -160q-2 -9 -3 -20.5t-1 -20.5q0 -64 20.5 -87t90.5 -23h46q62 0 98.5 3.5t55 12t24 22.5t7.5 34l16 225l240 44l-32 -190q-2 -9 -3 -20.5
t-1 -20.5q0 -64 20.5 -87t89.5 -23q56 0 89 3.5t49.5 12t22 22.5t7.5 34l17 250l238 45l-31 -216q-2 -9 -3 -20.5t-1 -20.5q0 -32 3 -53.5t12 -33.5t29.5 -17.5t54.5 -5.5h36q20 0 27.5 -10t7.5 -20v-166q0 -34 -35 -34h-43q-107 0 -164.5 33t-76.5 127q-26 -50 -48.5 -82
t-48 -48.5t-55 -23t-70.5 -6.5h-25q-105 0 -169 33t-82 127q-26 -50 -48.5 -82t-47.5 -48.5t-55 -23t-71 -6.5h-88q-106 0 -169.5 33t-82.5 127q-50 -100 -115 -130t-146 -30h-97zM2073 1004l147 146l125 -118l127 118l145 -146l-145 -148l-127 120l-125 -120z" />
    <glyph glyph-name="uniFD1A" unicode="&#xfeb8;&#xfef2;" horiz-adv-x="2979" arabic-form="final" 
d="M365 -722l148 145l117 -117l120 117l146 -145l-146 -147l-120 119l-117 -119zM2199 1244l148 146l146 -146l-146 -147zM1302 0q-47 -244 -231.5 -353.5t-481.5 -109.5q-160 0 -272 34.5t-181.5 94.5t-102.5 139t-33 167q0 103 29.5 201.5t75.5 177.5l177 -68
q-26 -57 -44.5 -121.5t-18.5 -135.5q0 -72 28.5 -122t79 -80.5t119.5 -44.5t149 -14q146 0 245.5 11.5t159.5 28.5t86 41t26 47q0 50 -68 76.5t-225 35.5l54 225h493q124 0 171.5 15.5t52.5 56.5l16 195l226 44l-19 -160q-2 -9 -3 -20.5t-1 -20.5q0 -64 20.5 -87t90.5 -23
h46q62 0 98.5 3.5t55 12t24 22.5t7.5 34l16 225l240 44l-32 -190q-2 -9 -3 -20.5t-1 -20.5q0 -64 20.5 -87t89.5 -23q56 0 89 3.5t49.5 12t22 22.5t7.5 34l17 250l238 45l-31 -216q-2 -9 -3 -20.5t-1 -20.5q0 -32 3 -53.5t12 -33.5t29.5 -17.5t54.5 -5.5h36q20 0 27.5 -10
t7.5 -20v-166q0 -34 -35 -34h-43q-107 0 -164.5 33t-76.5 127q-26 -50 -48.5 -82t-48 -48.5t-55 -23t-70.5 -6.5h-25q-105 0 -169 33t-82 127q-26 -50 -48.5 -82t-47.5 -48.5t-55 -23t-71 -6.5h-88q-106 0 -169.5 33t-82.5 127q-50 -100 -115 -130t-146 -30h-97zM2073 1004
l147 146l125 -118l127 118l145 -146l-145 -148l-127 120l-125 -120z" />
    <glyph glyph-name="uniFD21" unicode="&#xfebc;&#xfef0;" horiz-adv-x="3163" arabic-form="final" 
d="M2744 242q5 16 9 32.5t4 38.5q0 25 -22.5 61.5t-60.5 69.5t-86.5 58t-99.5 25q-37 0 -67.5 -9t-61.5 -26.5t-64.5 -45.5t-74.5 -67q-21 -19 -45 -41.5t-48 -44t-46 -39t-37 -24.5h98q72 0 160.5 0.5t174.5 1.5t158 4t109 6zM1345 1q-5 -1 -9 -1h-34
q-47 -244 -231.5 -353.5t-481.5 -109.5q-160 0 -272 34.5t-181.5 94.5t-102.5 139t-33 167q0 103 29.5 201.5t75.5 177.5l177 -68q-26 -57 -44.5 -121.5t-18.5 -135.5q0 -72 28.5 -122t79 -80.5t119.5 -44.5t149 -14q146 0 245.5 11.5t159.5 28.5t86 41t26 47q0 50 -68 76.5
t-225 35.5l54 225h431q53 0 86 3.5t50 12t23 22.5t8 34l18 205l238 45l-32 -171q-1 -9 -2 -20.5t-1 -20.5q0 -64 20.5 -87t89.5 -23h15q58 33 131.5 99t140.5 137q69 73 129 126.5t116 86.5t111 49t116 16q64 0 129 -34.5t118.5 -88t88 -119.5t37.5 -127q2 -39 8.5 -66
t25 -45t51.5 -26t87 -8h82q21 0 28 -10t7 -20v-166q0 -34 -35 -34h-47q-39 0 -78 11.5t-71.5 34.5t-54.5 57.5t-27 79.5q-13 -43 -27 -85t-29 -85q-64 -4 -120 -6.5t-116.5 -3.5t-131 -2t-166.5 -1h-525q-107 0 -170 33t-83 127q-26 -50 -48.5 -82t-47.5 -48.5t-55 -23.5
q-21 -4 -46 -5z" />
    <glyph glyph-name="uniFD22" unicode="&#xfebc;&#xfef2;" horiz-adv-x="3163" arabic-form="final" 
d="M365 -722l148 145l117 -117l120 117l146 -145l-146 -147l-120 119l-117 -119zM2744 242q5 16 9 32.5t4 38.5q0 25 -22.5 61.5t-60.5 69.5t-86.5 58t-99.5 25q-37 0 -67.5 -9t-61.5 -26.5t-64.5 -45.5t-74.5 -67q-21 -19 -45 -41.5t-48 -44t-46 -39t-37 -24.5h98
q72 0 160.5 0.5t174.5 1.5t158 4t109 6zM1345 1q-5 -1 -9 -1h-34q-47 -244 -231.5 -353.5t-481.5 -109.5q-160 0 -272 34.5t-181.5 94.5t-102.5 139t-33 167q0 103 29.5 201.5t75.5 177.5l177 -68q-26 -57 -44.5 -121.5t-18.5 -135.5q0 -72 28.5 -122t79 -80.5t119.5 -44.5
t149 -14q146 0 245.5 11.5t159.5 28.5t86 41t26 47q0 50 -68 76.5t-225 35.5l54 225h431q53 0 86 3.5t50 12t23 22.5t8 34l18 205l238 45l-32 -171q-1 -9 -2 -20.5t-1 -20.5q0 -64 20.5 -87t89.5 -23h15q58 33 131.5 99t140.5 137q69 73 129 126.5t116 86.5t111 49t116 16
q64 0 129 -34.5t118.5 -88t88 -119.5t37.5 -127q2 -39 8.5 -66t25 -45t51.5 -26t87 -8h82q21 0 28 -10t7 -20v-166q0 -34 -35 -34h-47q-39 0 -78 11.5t-71.5 34.5t-54.5 57.5t-27 79.5q-13 -43 -27 -85t-29 -85q-64 -4 -120 -6.5t-116.5 -3.5t-131 -2t-166.5 -1h-525
q-107 0 -170 33t-83 127q-26 -50 -48.5 -82t-47.5 -48.5t-55 -23.5q-21 -4 -46 -5z" />
    <glyph glyph-name="uniFD23" unicode="&#xfec0;&#xfef0;" horiz-adv-x="3163" arabic-form="final" 
d="M2744 242q5 16 9 32.5t4 38.5q0 25 -22.5 61.5t-60.5 69.5t-86.5 58t-99.5 25q-37 0 -67.5 -9t-61.5 -26.5t-64.5 -45.5t-74.5 -67q-21 -19 -45 -41.5t-48 -44t-46 -39t-37 -24.5h98q72 0 160.5 0.5t174.5 1.5t158 4t109 6zM1345 1q-5 -1 -9 -1h-34
q-47 -244 -231.5 -353.5t-481.5 -109.5q-160 0 -272 34.5t-181.5 94.5t-102.5 139t-33 167q0 103 29.5 201.5t75.5 177.5l177 -68q-26 -57 -44.5 -121.5t-18.5 -135.5q0 -72 28.5 -122t79 -80.5t119.5 -44.5t149 -14q146 0 245.5 11.5t159.5 28.5t86 41t26 47q0 50 -68 76.5
t-225 35.5l54 225h431q53 0 86 3.5t50 12t23 22.5t8 34l18 205l238 45l-32 -171q-1 -9 -2 -20.5t-1 -20.5q0 -64 20.5 -87t89.5 -23h15q58 33 131.5 99t140.5 137q69 73 129 126.5t116 86.5t111 49t116 16q64 0 129 -34.5t118.5 -88t88 -119.5t37.5 -127q2 -39 8.5 -66
t25 -45t51.5 -26t87 -8h82q21 0 28 -10t7 -20v-166q0 -34 -35 -34h-47q-39 0 -78 11.5t-71.5 34.5t-54.5 57.5t-27 79.5q-13 -43 -27 -85t-29 -85q-64 -4 -120 -6.5t-116.5 -3.5t-131 -2t-166.5 -1h-525q-107 0 -170 33t-83 127q-26 -50 -48.5 -82t-47.5 -48.5t-55 -23.5
q-21 -4 -46 -5zM2304 1101l147 145l145 -145l-145 -147z" />
    <glyph glyph-name="uniFD24" unicode="&#xfec0;&#xfef2;" horiz-adv-x="3163" arabic-form="final" 
d="M365 -722l148 145l117 -117l120 117l146 -145l-146 -147l-120 119l-117 -119zM2744 242q5 16 9 32.5t4 38.5q0 25 -22.5 61.5t-60.5 69.5t-86.5 58t-99.5 25q-37 0 -67.5 -9t-61.5 -26.5t-64.5 -45.5t-74.5 -67q-21 -19 -45 -41.5t-48 -44t-46 -39t-37 -24.5h98
q72 0 160.5 0.5t174.5 1.5t158 4t109 6zM1345 1q-5 -1 -9 -1h-34q-47 -244 -231.5 -353.5t-481.5 -109.5q-160 0 -272 34.5t-181.5 94.5t-102.5 139t-33 167q0 103 29.5 201.5t75.5 177.5l177 -68q-26 -57 -44.5 -121.5t-18.5 -135.5q0 -72 28.5 -122t79 -80.5t119.5 -44.5
t149 -14q146 0 245.5 11.5t159.5 28.5t86 41t26 47q0 50 -68 76.5t-225 35.5l54 225h431q53 0 86 3.5t50 12t23 22.5t8 34l18 205l238 45l-32 -171q-1 -9 -2 -20.5t-1 -20.5q0 -64 20.5 -87t89.5 -23h15q58 33 131.5 99t140.5 137q69 73 129 126.5t116 86.5t111 49t116 16
q64 0 129 -34.5t118.5 -88t88 -119.5t37.5 -127q2 -39 8.5 -66t25 -45t51.5 -26t87 -8h82q21 0 28 -10t7 -20v-166q0 -34 -35 -34h-47q-39 0 -78 11.5t-71.5 34.5t-54.5 57.5t-27 79.5q-13 -43 -27 -85t-29 -85q-64 -4 -120 -6.5t-116.5 -3.5t-131 -2t-166.5 -1h-525
q-107 0 -170 33t-83 127q-26 -50 -48.5 -82t-47.5 -48.5t-55 -23.5q-21 -4 -46 -5zM2304 1101l147 145l145 -145l-145 -147z" />
    <glyph glyph-name="uniFD29" unicode="&#xfeb8;&#xfeae;" horiz-adv-x="2529" arabic-form="final" 
d="M801 0q-45 2 -91 27q-50 27 -84 89q-13 -62 -51 -147t-96 -178t-133.5 -187.5t-164.5 -174.5l-178 167q153 122 247.5 218.5t145.5 172t67.5 133.5t16.5 104q0 34 -10.5 66.5t-34.5 69.5t-62 81t-92 100l220 136q15 -29 33.5 -73.5t38 -92.5t37.5 -94.5t29 -80.5
q14 -35 25.5 -55.5t30.5 -32t48 -15t77 -3.5h96q125 0 172 15.5t52 56.5l16 195l226 44l-19 -160q-2 -9 -2.5 -20.5t-0.5 -20.5q0 -64 20.5 -87t89.5 -23h46q62 0 98.5 3.5t55 12t24 22.5t7.5 34l17 225l239 44l-32 -190q-2 -9 -2.5 -20.5t-0.5 -20.5q0 -64 20.5 -87
t88.5 -23q56 0 89 3.5t49.5 12t22.5 22.5t7 34l17 250l239 45l-31 -216q-3 -9 -4 -20.5t-1 -20.5q0 -32 3 -53.5t12.5 -33.5t30 -17.5t53.5 -5.5h36q20 0 27.5 -10t7.5 -20v-166q0 -34 -35 -34h-43q-107 0 -164.5 33t-75.5 127q-27 -50 -49.5 -82t-48 -48.5t-55 -23
t-70.5 -6.5h-24q-106 0 -170 33t-82 127q-26 -50 -48.5 -82t-47.5 -48.5t-55 -23t-71 -6.5h-88q-106 0 -169.5 33t-82.5 127q-50 -100 -115 -130t-145 -30h-149zM1749 1244l148 146l146 -146l-146 -147zM1623 1004l147 146l125 -118l127 118l146 -146l-146 -148l-127 120
l-125 -120z" />
    <glyph glyph-name="uniFD2A" unicode="&#xfeb4;&#xfeae;" horiz-adv-x="2529" arabic-form="final" 
d="M801 0q-45 2 -91 27q-50 27 -84 89q-13 -62 -51 -147t-96 -178t-133.5 -187.5t-164.5 -174.5l-178 167q153 122 247.5 218.5t145.5 172t67.5 133.5t16.5 104q0 34 -10.5 66.5t-34.5 69.5t-62 81t-92 100l220 136q15 -29 33.5 -73.5t38 -92.5t37.5 -94.5t29 -80.5
q14 -35 25.5 -55.5t30.5 -32t48 -15t77 -3.5h96q125 0 172 15.5t52 56.5l16 195l226 44l-19 -160q-2 -9 -2.5 -20.5t-0.5 -20.5q0 -64 20.5 -87t89.5 -23h46q62 0 98.5 3.5t55 12t24 22.5t7.5 34l17 225l239 44l-32 -190q-2 -9 -2.5 -20.5t-0.5 -20.5q0 -64 20.5 -87
t88.5 -23q56 0 89 3.5t49.5 12t22.5 22.5t7 34l17 250l239 45l-31 -216q-3 -9 -4 -20.5t-1 -20.5q0 -32 3 -53.5t12.5 -33.5t30 -17.5t53.5 -5.5h36q20 0 27.5 -10t7.5 -20v-166q0 -34 -35 -34h-43q-107 0 -164.5 33t-75.5 127q-27 -50 -49.5 -82t-48 -48.5t-55 -23
t-70.5 -6.5h-24q-106 0 -170 33t-82 127q-26 -50 -48.5 -82t-47.5 -48.5t-55 -23t-71 -6.5h-88q-106 0 -169.5 33t-82.5 127q-50 -100 -115 -130t-145 -30h-149z" />
    <glyph glyph-name="uniFD2B" unicode="&#xfebc;&#xfeae;" horiz-adv-x="2713" arabic-form="final" 
d="M2294 242q6 16 9.5 32.5t3.5 38.5q0 25 -22.5 61.5t-60.5 69.5t-86.5 58t-99.5 25q-37 0 -67.5 -9t-61.5 -26.5t-64.5 -45.5t-74.5 -67q-21 -19 -45 -41.5t-48 -44t-46 -39t-36 -24.5h97q72 0 161 0.5t174.5 1.5t157.5 4t109 6zM807 0q-47 0 -97 27t-84 89
q-13 -62 -51 -147t-96 -178t-133.5 -187.5t-164.5 -174.5l-178 167q153 122 247.5 218.5t145.5 172t67.5 133.5t16.5 104q0 34 -10.5 66.5t-34.5 69.5t-62 81t-92 100l220 136q15 -29 33.5 -73.5t38 -92.5t37.5 -94.5t29 -80.5q14 -35 25.5 -55.5t30.5 -32t48 -15t77 -3.5
h34q54 0 86.5 3.5t49.5 12t23.5 22.5t8.5 34l17 205l239 45l-32 -171q-2 -9 -3 -20.5t-1 -20.5q0 -64 20.5 -87t89.5 -23h15q58 33 131.5 99t140.5 137q69 73 129 126.5t116 86.5t111 49t116 16q64 0 129 -34.5t118.5 -88t88 -119.5t38.5 -127q1 -39 7.5 -66t25.5 -45
t51.5 -26t86.5 -8h82q21 0 28 -10t7 -20v-166q0 -34 -35 -34h-47q-39 0 -78 11.5t-71.5 34.5t-54 57.5t-27.5 79.5q-13 -43 -27 -85t-29 -85q-63 -4 -119 -6.5t-117 -3.5t-131.5 -2t-165.5 -1h-526q-107 0 -170 33t-82 127q-27 -50 -49 -82t-47.5 -48.5t-55.5 -23t-71 -6.5
h-63z" />
    <glyph glyph-name="uniFD2C" unicode="&#xfec0;&#xfeae;" horiz-adv-x="2713" arabic-form="final" 
d="M2294 242q6 16 9.5 32.5t3.5 38.5q0 25 -22.5 61.5t-60.5 69.5t-86.5 58t-99.5 25q-37 0 -67.5 -9t-61.5 -26.5t-64.5 -45.5t-74.5 -67q-21 -19 -45 -41.5t-48 -44t-46 -39t-36 -24.5h97q72 0 161 0.5t174.5 1.5t157.5 4t109 6zM807 0q-47 0 -97 27t-84 89
q-13 -62 -51 -147t-96 -178t-133.5 -187.5t-164.5 -174.5l-178 167q153 122 247.5 218.5t145.5 172t67.5 133.5t16.5 104q0 34 -10.5 66.5t-34.5 69.5t-62 81t-92 100l220 136q15 -29 33.5 -73.5t38 -92.5t37.5 -94.5t29 -80.5q14 -35 25.5 -55.5t30.5 -32t48 -15t77 -3.5
h34q54 0 86.5 3.5t49.5 12t23.5 22.5t8.5 34l17 205l239 45l-32 -171q-2 -9 -3 -20.5t-1 -20.5q0 -64 20.5 -87t89.5 -23h15q58 33 131.5 99t140.5 137q69 73 129 126.5t116 86.5t111 49t116 16q64 0 129 -34.5t118.5 -88t88 -119.5t38.5 -127q1 -39 7.5 -66t25.5 -45
t51.5 -26t86.5 -8h82q21 0 28 -10t7 -20v-166q0 -34 -35 -34h-47q-39 0 -78 11.5t-71.5 34.5t-54 57.5t-27.5 79.5q-13 -43 -27 -85t-29 -85q-63 -4 -119 -6.5t-117 -3.5t-131.5 -2t-165.5 -1h-526q-107 0 -170 33t-82 127q-27 -50 -49 -82t-47.5 -48.5t-55.5 -23t-71 -6.5
h-63zM1854 1101l147 145l146 -145l-146 -147z" />
    <glyph glyph-name="uniFEF5" unicode="&#xfedf;&#xfe82;" horiz-adv-x="1212" arabic-form="isolated" 
d="M205 230q151 0 266.5 15.5t199.5 53.5l-320 561l199 86l266 -526q30 48 45 108.5t15 139.5v566h214v-543q0 -163 -46.5 -291.5t-143.5 -217.5t-246.5 -135.5t-353.5 -46.5h-95l-43 230h43zM100 1189q52 54 94.5 66t78.5 12t85.5 -16.5t92.5 -37.5q44 -20 85 -34.5
t73 -14.5q49 0 73.5 26t33.5 54l93 -50q-58 -181 -200 -181q-50 0 -96 16t-89 36q-42 21 -85 36t-80 15q-32 0 -52.5 -7t-44.5 -25z" />
    <glyph glyph-name="uniFEF6" unicode="&#xfee0;&#xfe82;" horiz-adv-x="1251" arabic-form="final" 
d="M910 267q-28 -55 -74.5 -102t-117 -84.5t-165.5 -59t-220 -21.5h-95l-43 230h43q140 0 246.5 12t186.5 43l-323 570l197 85l281 -552q84 97 84 280v567h214v-899q0 -67 20.5 -86.5t84.5 -19.5h46q21 0 28.5 -10t7.5 -20v-166q0 -34 -36 -34h-108q-70 0 -119 23
t-79.5 60.5t-44.5 85.5t-14 98zM100 1189q52 54 94.5 66t78.5 12t85.5 -16.5t92.5 -37.5q44 -20 85 -34.5t73 -14.5q49 0 73.5 26t33.5 54l93 -50q-58 -181 -200 -181q-50 0 -96 16t-89 36q-42 21 -85 36t-80 15q-32 0 -52.5 -7t-44.5 -25z" />
    <glyph glyph-name="uniFEF7" unicode="&#xfedf;&#xfe84;" horiz-adv-x="1151" arabic-form="isolated" 
d="M143 230q151 0 266.5 15.5t199.5 53.5l-319 561l198 86l267 -526q30 48 44.5 108.5t14.5 139.5v566h215v-543q0 -163 -46.5 -291.5t-143.5 -217.5t-246.5 -135.5t-354.5 -46.5h-95l-43 230h43zM186 1080q15 10 47.5 27.5t55.5 21.5q-32 16 -48 35t-16 49q0 31 15 64
t39 59t54 43t62 17q17 0 33.5 -3t25.5 -8v-100q-14 6 -30 10.5t-37 4.5q-41 0 -68 -20.5t-27 -44.5q0 -22 27 -43.5t70 -21.5q23 0 58.5 8.5t70.5 19.5l-9 -99q-44 -8 -79 -16t-68.5 -20.5t-67.5 -31t-73 -46.5z" />
    <glyph glyph-name="uniFEF8" unicode="&#xfee0;&#xfe84;" horiz-adv-x="1156" arabic-form="final" 
d="M814 267q-27 -55 -74 -102t-116.5 -84.5t-165 -59t-220.5 -21.5h-95l-43 230h43q140 0 246 12t187 43l-323 570l198 85l279 -552q84 97 84 280v567h215v-899q0 -67 20.5 -86.5t84.5 -19.5h46q21 0 28.5 -10t7.5 -20v-166q0 -34 -36 -34h-108q-71 0 -119.5 23t-79.5 60.5
t-45 85.5t-14 98zM152 1080q15 10 47.5 27.5t55.5 21.5q-32 16 -48 35t-16 49q0 31 15 64t39 59t54.5 43t61.5 17q17 0 34 -3t26 -8v-100q-15 6 -31 10.5t-36 4.5q-42 0 -68.5 -20.5t-26.5 -44.5q0 -22 26.5 -43.5t70.5 -21.5q22 0 57.5 8.5t70.5 19.5l-9 -99
q-42 -8 -78 -16t-69.5 -20.5t-67 -31t-73.5 -46.5z" />
    <glyph glyph-name="uniFEF9" unicode="&#xfedf;&#xfe88;" horiz-adv-x="1151" arabic-form="isolated" 
d="M143 230q151 0 266.5 15.5t199.5 53.5l-319 561l198 86l267 -526q30 48 44.5 108.5t14.5 139.5v566h215v-543q0 -163 -46.5 -291.5t-143.5 -217.5t-246.5 -135.5t-354.5 -46.5h-95l-43 230h43zM298 -452q14 10 47 28t56 21q-32 17 -48 35.5t-16 48.5q0 32 15 64.5t39 59
t54 42.5t61 16q18 0 34.5 -2.5t25.5 -8.5v-98q-14 5 -30 10t-37 5q-41 0 -68 -20.5t-27 -45.5q0 -22 27 -43.5t70 -21.5q23 0 58.5 8.5t70.5 19.5l-10 -99q-43 -7 -78.5 -15.5t-68.5 -20.5t-67 -30.5t-73 -47.5z" />
    <glyph glyph-name="uniFEFA" unicode="&#xfee0;&#xfe88;" horiz-adv-x="1156" arabic-form="final" 
d="M814 267q-27 -55 -74 -102t-116.5 -84.5t-165 -59t-220.5 -21.5h-95l-43 230h43q140 0 246 12t187 43l-323 570l198 85l279 -552q84 97 84 280v567h215v-899q0 -67 20.5 -86.5t84.5 -19.5h46q21 0 28.5 -10t7.5 -20v-166q0 -34 -36 -34h-108q-71 0 -119.5 23t-79.5 60.5
t-45 85.5t-14 98zM264 -452q15 10 47.5 28t55.5 21q-32 17 -48 35.5t-16 48.5q0 32 15 64.5t39.5 59t54.5 42.5t62 16q16 0 33 -2.5t26 -8.5v-98q-15 5 -31 10t-37 5q-41 0 -67.5 -20.5t-26.5 -45.5q0 -22 26.5 -43.5t69.5 -21.5q23 0 58.5 8.5t71.5 19.5l-10 -99
q-43 -7 -78 -15.5t-69 -20.5t-67.5 -30.5t-72.5 -47.5z" />
    <glyph glyph-name="uniFEFB" unicode="&#xfedf;&#xfe8e;" horiz-adv-x="1151" arabic-form="isolated" 
d="M143 230q151 0 266.5 15.5t199.5 53.5l-319 561l198 86l267 -526q30 48 44.5 108.5t14.5 139.5v566h215v-543q0 -163 -46.5 -291.5t-143.5 -217.5t-246.5 -135.5t-354.5 -46.5h-95l-43 230h43z" />
    <glyph glyph-name="uniFEFC" unicode="&#xfee0;&#xfe8e;" horiz-adv-x="1156" arabic-form="final" 
d="M814 267q-27 -55 -74 -102t-116.5 -84.5t-165 -59t-220.5 -21.5h-95l-43 230h43q140 0 246 12t187 43l-323 570l198 85l279 -552q84 97 84 280v567h215v-899q0 -67 20.5 -86.5t84.5 -19.5h46q21 0 28.5 -10t7.5 -20v-166q0 -34 -36 -34h-108q-71 0 -119.5 23t-79.5 60.5
t-45 85.5t-14 98z" />
    <glyph glyph-name="uniFE8B_uniFEE4.liga" unicode="&#xfe8b;&#xfee4;" horiz-adv-x="1680" 
d="M1188 894q21 11 61 32t70 30v7q-39 15 -60.5 38t-21.5 60q0 40 19.5 81t50 74.5t69 55t77.5 21.5q21 0 41.5 -3t32.5 -10v-127q-18 8 -38.5 13.5t-44.5 5.5q-52 0 -87 -25.5t-35 -56.5q0 -29 35 -55.5t88 -26.5q29 0 73.5 10.5t89.5 24.5l-11 -127q-54 -10 -99 -20
t-87 -25.5t-85 -39t-93 -58.5zM744 289q0 26 -10.5 60.5t-31 64.5t-49 50.5t-66.5 20.5q-43 0 -99 -47.5t-114 -174.5q41 -15 85 -25t84.5 -15.5t75 -9t56.5 -3.5q23 0 36.5 9t20.5 20.5t9.5 26t2.5 23.5zM1072 0q-52 0 -107 37.5t-77 104.5q-32 -67 -79 -112t-95 -45
q-102 0 -193.5 36t-203.5 121q-25 -49 -51 -77t-52 -43t-52.5 -18.5t-49.5 -3.5h-131q-21 0 -28.5 9t-7.5 21v166q0 34 36 34h119q45 0 77.5 26t68.5 93q63 125 121 198t107.5 109t87.5 45.5t63 9.5q69 0 122.5 -35.5t90 -89.5t55.5 -119.5t19 -124.5q0 -34 5.5 -56.5
t22 -34.5t49.5 -16.5t89 -4.5h134h43.5t48.5 0.5t45.5 2.5t35.5 6q7 17 7 41q0 30 -30 104.5t-96 203.5l208 63q37 -106 59.5 -199.5t22.5 -177.5q0 -80 -26 -137t-64 -119q-37 -9 -100.5 -13.5t-121.5 -4.5h-172z" />
    <glyph glyph-name="uniFE8B_uniFEF0.liga" unicode="&#xfe8b;&#xfef0;" horiz-adv-x="1849" 
d="M1363 894q21 11 61 32t70 30v7q-39 15 -60.5 38t-21.5 60q0 40 19.5 81t50 74.5t69 55t77.5 21.5q21 0 41.5 -3t33.5 -10v-127q-19 8 -39 13.5t-45 5.5q-52 0 -86.5 -25.5t-34.5 -56.5q0 -29 34.5 -55.5t88.5 -26.5q28 0 72.5 10.5t89.5 24.5l-11 -127q-54 -10 -99 -20
t-87 -25.5t-84.5 -39t-93.5 -58.5zM1302 0q-47 -244 -231.5 -353.5t-481.5 -109.5q-160 0 -272 34.5t-181.5 94.5t-102.5 139t-33 167q0 103 29.5 201.5t75.5 177.5l177 -68q-26 -57 -44.5 -121.5t-18.5 -135.5q0 -72 28.5 -122t79 -80.5t119.5 -44.5t149 -14
q146 0 245.5 11.5t159.5 28.5t86 41t26 47q0 50 -68 76.5t-225 35.5l54 225h515h43t48 0.5t45.5 2.5t36.5 6q6 17 6 41q0 30 -30 104.5t-96 203.5l208 63q37 -106 59.5 -199.5t22.5 -177.5q0 -80 -26 -137t-63 -119q-38 -9 -101.5 -13.5t-121.5 -4.5h-117z" />
    <glyph glyph-name="uniFE8B_uniFEF2.liga" unicode="&#xfe8b;&#xfef2;" horiz-adv-x="1849" 
d="M365 -722l148 145l117 -117l120 117l146 -145l-146 -147l-120 119l-117 -119zM1363 894q21 11 61 32t70 30v7q-39 15 -60.5 38t-21.5 60q0 40 19.5 81t50 74.5t69 55t77.5 21.5q21 0 41.5 -3t33.5 -10v-127q-19 8 -39 13.5t-45 5.5q-52 0 -86.5 -25.5t-34.5 -56.5
q0 -29 34.5 -55.5t88.5 -26.5q28 0 72.5 10.5t89.5 24.5l-11 -127q-54 -10 -99 -20t-87 -25.5t-84.5 -39t-93.5 -58.5zM1302 0q-47 -244 -231.5 -353.5t-481.5 -109.5q-160 0 -272 34.5t-181.5 94.5t-102.5 139t-33 167q0 103 29.5 201.5t75.5 177.5l177 -68
q-26 -57 -44.5 -121.5t-18.5 -135.5q0 -72 28.5 -122t79 -80.5t119.5 -44.5t149 -14q146 0 245.5 11.5t159.5 28.5t86 41t26 47q0 50 -68 76.5t-225 35.5l54 225h515h43t48 0.5t45.5 2.5t36.5 6q6 17 6 41q0 30 -30 104.5t-96 203.5l208 63q37 -106 59.5 -199.5t22.5 -177.5
q0 -80 -26 -137t-63 -119q-38 -9 -101.5 -13.5t-121.5 -4.5h-117z" />
    <glyph glyph-name="uniFE91_uniFEE4.liga" unicode="&#xfe91;&#xfee4;" horiz-adv-x="1645" 
d="M1147 -312l147 146l146 -146l-146 -147zM744 289q0 26 -10.5 60.5t-31 64.5t-49 50.5t-66.5 20.5q-43 0 -99 -47.5t-114 -174.5q41 -15 85 -25t84.5 -15.5t75 -9t56.5 -3.5q23 0 36.5 9t20.5 20.5t9.5 26t2.5 23.5zM1072 0q-52 0 -107 37.5t-77 104.5q-32 -67 -79 -112
t-95 -45q-102 0 -193.5 36t-203.5 121q-25 -49 -51 -77t-52 -43t-52.5 -18.5t-49.5 -3.5h-131q-21 0 -28.5 9t-7.5 21v166q0 34 36 34h119q45 0 77.5 26t68.5 93q63 125 121 198t107.5 109t87.5 45.5t63 9.5q69 0 122.5 -35.5t90 -89.5t55.5 -119.5t19 -124.5
q0 -34 5.5 -56.5t22 -34.5t49.5 -16.5t89 -4.5h116h43t48.5 0.5t46 2.5t35.5 6q6 17 6 41q0 30 -30 104.5t-95 203.5l207 63q38 -106 60 -199.5t22 -177.5q0 -80 -25.5 -137t-63.5 -119q-37 -9 -101 -13.5t-121 -4.5h-154z" />
    <glyph glyph-name="uniFE92_uniFEE6.liga" unicode="&#xfe92;&#xfee6;" horiz-adv-x="1819" 
d="M365 735l148 146l146 -146l-146 -147zM1395 -312l147 146l146 -146l-146 -147zM1183 0q-41 0 -78.5 26t-52.5 79q-13 -139 -64 -237.5t-127 -162t-171 -92.5t-197 -29q-112 0 -203.5 31t-156 87t-99 135t-34.5 178q0 78 22.5 164t66.5 161l185 -80q-54 -112 -54 -221
q0 -54 23.5 -96t64.5 -70t95 -42t115 -14q100 0 167 20.5t108 55t58.5 80t17.5 94.5q0 43 -9 86t-25 84t-35.5 78.5t-37.5 67.5l217 100q34 -88 56.5 -138t42 -76.5t42 -32.5t57.5 -6h102q62 0 98.5 3.5t55 12t24 22.5t7.5 34l17 250l239 45l-32 -216q-2 -9 -3 -20.5
t-1 -20.5q0 -64 20.5 -87t90.5 -23h48q20 0 28 -10t8 -20v-166q0 -34 -36 -34h-56q-106 0 -170 33t-82 127q-26 -50 -48.5 -82t-47.5 -48.5t-55 -23t-71 -6.5h-130z" />
    <glyph glyph-name="uniFE91_uniFEF0.liga" unicode="&#xfe91;&#xfef0;" horiz-adv-x="1849" 
d="M1302 0q-47 -244 -231.5 -353.5t-481.5 -109.5q-160 0 -272 34.5t-181.5 94.5t-102.5 139t-33 167q0 103 29.5 201.5t75.5 177.5l177 -68q-26 -57 -44.5 -121.5t-18.5 -135.5q0 -72 28.5 -122t79 -80.5t119.5 -44.5t149 -14q146 0 245.5 11.5t159.5 28.5t86 41t26 47
q0 50 -68 76.5t-225 35.5l54 225h533h43t48 0.5t45.5 2.5t36.5 6q6 17 6 41q0 30 -30 104.5t-96 203.5l208 63q38 -106 60 -199.5t22 -177.5q0 -80 -26 -137t-63 -119q-37 -9 -101 -13.5t-121 -4.5h-136zM1449 -312l147 146l146 -146l-146 -147z" />
    <glyph glyph-name="uniFE91_uniFEF2.liga" unicode="&#xfe91;&#xfef2;" horiz-adv-x="1849" 
d="M365 -722l148 145l117 -117l120 117l146 -145l-146 -147l-120 119l-117 -119zM1302 0q-47 -244 -231.5 -353.5t-481.5 -109.5q-160 0 -272 34.5t-181.5 94.5t-102.5 139t-33 167q0 103 29.5 201.5t75.5 177.5l177 -68q-26 -57 -44.5 -121.5t-18.5 -135.5q0 -72 28.5 -122
t79 -80.5t119.5 -44.5t149 -14q146 0 245.5 11.5t159.5 28.5t86 41t26 47q0 50 -68 76.5t-225 35.5l54 225h533h43t48 0.5t45.5 2.5t36.5 6q6 17 6 41q0 30 -30 104.5t-96 203.5l208 63q38 -106 60 -199.5t22 -177.5q0 -80 -26 -137t-63 -119q-37 -9 -101 -13.5t-121 -4.5
h-136zM1449 -312l147 146l146 -146l-146 -147z" />
    <glyph glyph-name="uniFE97_uniFEE4.liga" unicode="&#xfe97;&#xfee4;" horiz-adv-x="1667" 
d="M744 289q0 26 -10.5 60.5t-31 64.5t-49 50.5t-66.5 20.5q-43 0 -99 -47.5t-114 -174.5q41 -15 85 -25t84.5 -15.5t75 -9t56.5 -3.5q23 0 36.5 9t20.5 20.5t9.5 26t2.5 23.5zM1072 0q-52 0 -107 37.5t-77 104.5q-32 -67 -79 -112t-95 -45q-102 0 -193.5 36t-203.5 121
q-25 -49 -51 -77t-52 -43t-52.5 -18.5t-49.5 -3.5h-131q-21 0 -28.5 9t-7.5 21v166q0 34 36 34h119q45 0 77.5 26t68.5 93q63 125 121 198t107.5 109t87.5 45.5t63 9.5q69 0 122.5 -35.5t90 -89.5t55.5 -119.5t19 -124.5q0 -34 5.5 -56.5t22 -34.5t49.5 -16.5t89 -4.5h116
h43t48.5 0.5t46 2.5t35.5 6q6 17 6 41q0 30 -30 104.5t-95 203.5l207 63q38 -106 60 -199.5t22 -177.5q0 -80 -25.5 -137t-63.5 -119q-37 -9 -101 -13.5t-121 -4.5h-154zM1057 1004l147 146l126 -118l126 118l146 -146l-146 -148l-126 120l-126 -120z" />
    <glyph glyph-name="uniFE98_uniFEE6.liga" unicode="&#xfe98;&#xfee6;" horiz-adv-x="1819" 
d="M365 735l148 146l146 -146l-146 -147zM1307 883l148 145l125 -118l126 118l146 -145l-146 -148l-126 120l-125 -120zM1183 0q-41 0 -78.5 26t-52.5 79q-13 -139 -64 -237.5t-127 -162t-171 -92.5t-197 -29q-112 0 -203.5 31t-156 87t-99 135t-34.5 178q0 78 22.5 164
t66.5 161l185 -80q-54 -112 -54 -221q0 -54 23.5 -96t64.5 -70t95 -42t115 -14q100 0 167 20.5t108 55t58.5 80t17.5 94.5q0 43 -9 86t-25 84t-35.5 78.5t-37.5 67.5l217 100q34 -88 56.5 -138t42 -76.5t42 -32.5t57.5 -6h102q62 0 98.5 3.5t55 12t24 22.5t7.5 34l17 250
l239 45l-32 -216q-2 -9 -3 -20.5t-1 -20.5q0 -64 20.5 -87t90.5 -23h48q20 0 28 -10t8 -20v-166q0 -34 -36 -34h-56q-106 0 -170 33t-82 127q-26 -50 -48.5 -82t-47.5 -48.5t-55 -23t-71 -6.5h-130z" />
    <glyph glyph-name="uniFE97_uniFEF0.liga" unicode="&#xfe97;&#xfef0;" horiz-adv-x="1854" 
d="M1302 0q-47 -244 -231.5 -353.5t-481.5 -109.5q-160 0 -272 34.5t-181.5 94.5t-102.5 139t-33 167q0 103 29.5 201.5t75.5 177.5l177 -68q-26 -57 -44.5 -121.5t-18.5 -135.5q0 -72 28.5 -122t79 -80.5t119.5 -44.5t149 -14q146 0 245.5 11.5t159.5 28.5t86 41t26 47
q0 50 -68 76.5t-225 35.5l54 225h505h44t48 0.5t45.5 2.5t35.5 6q7 17 7 41q0 30 -30 104.5t-96 203.5l208 63q37 -106 59.5 -199.5t22.5 -177.5q0 -80 -26 -137t-63 -119q-38 -9 -101.5 -13.5t-121.5 -4.5h-108zM1242 1004l146 146l126 -118l127 118l146 -146l-146 -148
l-127 120l-126 -120z" />
    <glyph glyph-name="uniFE97_uniFEF2.liga" unicode="&#xfe97;&#xfef2;" horiz-adv-x="1854" 
d="M365 -722l148 145l117 -117l120 117l146 -145l-146 -147l-120 119l-117 -119zM1302 0q-47 -244 -231.5 -353.5t-481.5 -109.5q-160 0 -272 34.5t-181.5 94.5t-102.5 139t-33 167q0 103 29.5 201.5t75.5 177.5l177 -68q-26 -57 -44.5 -121.5t-18.5 -135.5q0 -72 28.5 -122
t79 -80.5t119.5 -44.5t149 -14q146 0 245.5 11.5t159.5 28.5t86 41t26 47q0 50 -68 76.5t-225 35.5l54 225h505h44t48 0.5t45.5 2.5t35.5 6q7 17 7 41q0 30 -30 104.5t-96 203.5l208 63q37 -106 59.5 -199.5t22.5 -177.5q0 -80 -26 -137t-63 -119q-38 -9 -101.5 -13.5
t-121.5 -4.5h-108zM1252 1004l146 146l126 -118l127 118l146 -146l-146 -148l-127 120l-126 -120z" />
    <glyph glyph-name="uniFE9C_uniFEAE.liga" unicode="&#xfe9c;&#xfeae;" horiz-adv-x="1440" 
d="M804 0q-47 0 -97 27t-84 89q-13 -62 -51 -147t-96 -178t-133.5 -187.5t-164.5 -174.5l-178 167q153 122 247.5 218.5t145.5 172t67.5 133.5t16.5 104q0 34 -10.5 66.5t-34 69.5t-61.5 81t-93 100l220 136q15 -29 33.5 -73.5t38 -92.5t37.5 -94.5t29 -80.5
q14 -35 25.5 -55.5t30.5 -32t48 -15t77 -3.5h84q62 0 98.5 3.5t55 12t24 22.5t7.5 34l17 250l239 45l-32 -216q-2 -9 -3 -20.5t-1 -20.5q0 -64 20.5 -87t90.5 -23h48q20 0 27.5 -10t7.5 -20v-166q0 -34 -35 -34h-57q-105 0 -169 33t-82 127q-26 -50 -48.5 -82t-47.5 -48.5
t-55 -23t-71 -6.5h-131zM1036 1123l147 146l146 -146l-146 -147zM909 883l148 145l125 -118l126 118l146 -145l-146 -148l-126 120l-125 -120z" />
    <glyph glyph-name="uniFE9B_uniFEE4.liga" unicode="&#xfe9b;&#xfee4;" horiz-adv-x="1667" 
d="M744 289q0 26 -10.5 60.5t-31 64.5t-49 50.5t-66.5 20.5q-43 0 -99 -47.5t-114 -174.5q41 -15 85 -25t84.5 -15.5t75 -9t56.5 -3.5q23 0 36.5 9t20.5 20.5t9.5 26t2.5 23.5zM1072 0q-52 0 -107 37.5t-77 104.5q-32 -67 -79 -112t-95 -45q-102 0 -193.5 36t-203.5 121
q-25 -49 -51 -77t-52 -43t-52.5 -18.5t-49.5 -3.5h-131q-21 0 -28.5 9t-7.5 21v166q0 34 36 34h119q45 0 77.5 26t68.5 93q63 125 121 198t107.5 109t87.5 45.5t63 9.5q69 0 122.5 -35.5t90 -89.5t55.5 -119.5t19 -124.5q0 -34 5.5 -56.5t22 -34.5t49.5 -16.5t89 -4.5h116
h43t48.5 0.5t46 2.5t35.5 6q6 17 6 41q0 30 -30 104.5t-95 203.5l207 63q38 -106 60 -199.5t22 -177.5q0 -80 -25.5 -137t-63.5 -119q-37 -9 -101 -13.5t-121 -4.5h-154zM1194 1244l148 146l145 -146l-145 -147zM1067 1004l147 146l126 -118l126 118l146 -146l-146 -148
l-126 120l-126 -120z" />
    <glyph glyph-name="uniFE9C_uniFEE6.liga" unicode="&#xfe9c;&#xfee6;" horiz-adv-x="1819" 
d="M365 735l148 146l146 -146l-146 -147zM1424 1123l148 146l145 -146l-145 -147zM1297 883l148 145l125 -118l126 118l146 -145l-146 -148l-126 120l-125 -120zM1183 0q-41 0 -78.5 26t-52.5 79q-13 -139 -64 -237.5t-127 -162t-171 -92.5t-197 -29q-112 0 -203.5 31
t-156 87t-99 135t-34.5 178q0 78 22.5 164t66.5 161l185 -80q-54 -112 -54 -221q0 -54 23.5 -96t64.5 -70t95 -42t115 -14q100 0 167 20.5t108 55t58.5 80t17.5 94.5q0 43 -9 86t-25 84t-35.5 78.5t-37.5 67.5l217 100q34 -88 56.5 -138t42 -76.5t42 -32.5t57.5 -6h102
q62 0 98.5 3.5t55 12t24 22.5t7.5 34l17 250l239 45l-32 -216q-2 -9 -3 -20.5t-1 -20.5q0 -64 20.5 -87t90.5 -23h48q20 0 28 -10t8 -20v-166q0 -34 -36 -34h-56q-106 0 -170 33t-82 127q-26 -50 -48.5 -82t-47.5 -48.5t-55 -23t-71 -6.5h-130z" />
    <glyph glyph-name="uniFE9B_uniFEF0.liga" unicode="&#xfe9b;&#xfef0;" horiz-adv-x="1854" 
d="M1302 0q-47 -244 -231.5 -353.5t-481.5 -109.5q-160 0 -272 34.5t-181.5 94.5t-102.5 139t-33 167q0 103 29.5 201.5t75.5 177.5l177 -68q-26 -57 -44.5 -121.5t-18.5 -135.5q0 -72 28.5 -122t79 -80.5t119.5 -44.5t149 -14q146 0 245.5 11.5t159.5 28.5t86 41t26 47
q0 50 -68 76.5t-225 35.5l54 225h505h44t48 0.5t45.5 2.5t35.5 6q7 17 7 41q0 30 -30 104.5t-96 203.5l208 63q37 -106 59.5 -199.5t22.5 -177.5q0 -80 -26 -137t-63 -119q-38 -9 -101.5 -13.5t-121.5 -4.5h-108zM1378 1244l148 146l145 -146l-145 -147zM1252 1004l146 146
l126 -118l127 118l146 -146l-146 -148l-127 120l-126 -120z" />
    <glyph glyph-name="uniFE9B_uniFEF2.liga" unicode="&#xfe9b;&#xfef2;" horiz-adv-x="1854" 
d="M365 -722l148 145l117 -117l120 117l146 -145l-146 -147l-120 119l-117 -119zM1302 0q-47 -244 -231.5 -353.5t-481.5 -109.5q-160 0 -272 34.5t-181.5 94.5t-102.5 139t-33 167q0 103 29.5 201.5t75.5 177.5l177 -68q-26 -57 -44.5 -121.5t-18.5 -135.5q0 -72 28.5 -122
t79 -80.5t119.5 -44.5t149 -14q146 0 245.5 11.5t159.5 28.5t86 41t26 47q0 50 -68 76.5t-225 35.5l54 225h505h44t48 0.5t45.5 2.5t35.5 6q7 17 7 41q0 30 -30 104.5t-96 203.5l208 63q37 -106 59.5 -199.5t22.5 -177.5q0 -80 -26 -137t-63 -119q-38 -9 -101.5 -13.5
t-121.5 -4.5h-108zM1378 1244l148 146l145 -146l-145 -147zM1252 1004l146 146l126 -118l127 118l146 -146l-146 -148l-127 120l-126 -120z" />
    <glyph glyph-name="uniFEDB_uniFEF0.liga" unicode="&#xfedb;&#xfef0;" horiz-adv-x="2194" 
d="M1302 0q-47 -244 -231.5 -353.5t-481.5 -109.5q-160 0 -272 34.5t-181.5 94.5t-102.5 139t-33 167q0 103 29.5 201.5t75.5 177.5l177 -68q-26 -57 -44.5 -121.5t-18.5 -135.5q0 -72 28.5 -122t79 -80.5t119.5 -44.5t149 -14q146 0 245.5 11.5t159.5 28.5t86 41t26 47
q0 50 -68 76.5t-225 35.5l54 225h980q4 7 5 18.5t1 20.5q0 20 -20 46.5t-77.5 72t-164 119t-280.5 187.5q10 52 19.5 86t19 54.5t17.5 31.5t17 17l684 300v-183l-474 -209q145 -106 226.5 -192t122.5 -154t50 -122t9 -97q0 -55 -21.5 -107.5t-60.5 -118.5h-624z" />
    <glyph glyph-name="uniFEDC_uniFEF0.liga" unicode="&#xfedc;&#xfef0;" horiz-adv-x="2195" 
d="M1302 0q-47 -244 -231.5 -353.5t-481.5 -109.5q-160 0 -272 34.5t-181.5 94.5t-102.5 139t-33 167q0 103 29.5 201.5t75.5 177.5l177 -68q-26 -57 -44.5 -121.5t-18.5 -135.5q0 -72 28.5 -122t79 -80.5t119.5 -44.5t149 -14q146 0 245.5 11.5t159.5 28.5t86 41t26 47
q0 50 -68 76.5t-225 35.5l54 225h941q19 0 27 14t8 32q0 78 -541 418q2 22 9 51t16 57t23 51t32 30l676 300v-183l-474 -209q97 -77 163 -134t109.5 -104t71 -92t50.5 -96q20 -50 44.5 -77t49 -40t46 -15.5t35.5 -2.5h64q20 0 26 -10t6 -20v-166q0 -34 -36 -34h-58
q-59 0 -110.5 31t-98.5 109q-46 -78 -104 -109t-120 -31h-426z" />
    <glyph glyph-name="uniFEDB_uniFEF2.liga" unicode="&#xfedb;&#xfef2;" horiz-adv-x="2194" 
d="M365 -722l148 145l117 -117l120 117l146 -145l-146 -147l-120 119l-117 -119zM1302 0q-47 -244 -231.5 -353.5t-481.5 -109.5q-160 0 -272 34.5t-181.5 94.5t-102.5 139t-33 167q0 103 29.5 201.5t75.5 177.5l177 -68q-26 -57 -44.5 -121.5t-18.5 -135.5q0 -72 28.5 -122
t79 -80.5t119.5 -44.5t149 -14q146 0 245.5 11.5t159.5 28.5t86 41t26 47q0 50 -68 76.5t-225 35.5l54 225h980q4 7 5 18.5t1 20.5q0 20 -20 46.5t-77.5 72t-164 119t-280.5 187.5q10 52 19.5 86t19 54.5t17.5 31.5t17 17l684 300v-183l-474 -209q145 -106 226.5 -192
t122.5 -154t50 -122t9 -97q0 -55 -21.5 -107.5t-60.5 -118.5h-624z" />
    <glyph glyph-name="uniFEDC_uniFEF2.liga" unicode="&#xfedc;&#xfef2;" horiz-adv-x="2195" 
d="M365 -722l148 145l117 -117l120 117l146 -145l-146 -147l-120 119l-117 -119zM1302 0q-47 -244 -231.5 -353.5t-481.5 -109.5q-160 0 -272 34.5t-181.5 94.5t-102.5 139t-33 167q0 103 29.5 201.5t75.5 177.5l177 -68q-26 -57 -44.5 -121.5t-18.5 -135.5q0 -72 28.5 -122
t79 -80.5t119.5 -44.5t149 -14q146 0 245.5 11.5t159.5 28.5t86 41t26 47q0 50 -68 76.5t-225 35.5l54 225h941q19 0 27 14t8 32q0 78 -541 418q2 22 9 51t16 57t23 51t32 30l676 300v-183l-474 -209q97 -77 163 -134t109.5 -104t71 -92t50.5 -96q20 -50 44.5 -77t49 -40
t46 -15.5t35.5 -2.5h64q20 0 26 -10t6 -20v-166q0 -34 -36 -34h-58q-59 0 -110.5 31t-98.5 109q-46 -78 -104 -109t-120 -31h-426z" />
    <glyph glyph-name="uniFEDF_uniFB51.rlig" unicode="&#xfedf;&#xfb51;" horiz-adv-x="1151" 
d="M499 1145q0 14 -17 31t-37 17q-24 0 -44.5 -14.5t-46.5 -47.5q9 -4 29.5 -9.5t35.5 -5.5q48 0 64 7.5t16 21.5zM559 1142q0 -33 -30 -67t-99 -34q-26 0 -55 11t-49 27q-21 14 -30 18.5t-17 4.5q-26 0 -58 -55l-61 57q29 41 56.5 57t45.5 16q11 0 24.5 -2t32.5 -16
q31 55 65.5 81.5t68.5 26.5q28 0 48.5 -13t32 -32.5t18.5 -41t7 -38.5zM143 230q151 0 266.5 15.5t199.5 53.5l-319 561l198 86l267 -526q30 48 44.5 108.5t14.5 139.5v566h215v-543q0 -163 -46.5 -291.5t-143.5 -217.5t-246.5 -135.5t-354.5 -46.5h-95l-43 230h43z" />
    <glyph glyph-name="uniFEE0_uniFB51.rlig" unicode="&#xfee0;&#xfb51;" horiz-adv-x="1156" 
d="M814 267q-27 -55 -74 -102t-116.5 -84.5t-165 -59t-220.5 -21.5h-95l-43 230h43q140 0 246 12t187 43l-323 570l198 85l279 -552q84 97 84 280v567h215v-899q0 -67 20.5 -86.5t84.5 -19.5h46q21 0 28.5 -10t7.5 -20v-166q0 -34 -36 -34h-108q-71 0 -119.5 23t-79.5 60.5
t-45 85.5t-14 98zM559 1142q0 -33 -30 -67t-99 -34q-26 0 -55 11t-49 27q-21 14 -30 18.5t-17 4.5q-26 0 -58 -55l-61 57q29 41 56.5 57t45.5 16q11 0 24.5 -2t32.5 -16q31 55 65.5 81.5t68.5 26.5q28 0 48.5 -13t32 -32.5t18.5 -41t7 -38.5zM499 1145q0 14 -17 31t-37 17
q-24 0 -44.5 -14.5t-46.5 -47.5q9 -4 29.5 -9.5t35.5 -5.5q48 0 64 7.5t16 21.5z" />
    <glyph glyph-name="uniFEDF_uniFEE2.liga" unicode="&#xfedf;&#xfee2;" horiz-adv-x="2016" 
d="M1134 289q0 26 -10 60.5t-30.5 64.5t-49.5 50.5t-66 20.5q-43 0 -99 -47.5t-114 -174.5q41 -15 85 -25t84 -15.5t74.5 -9t56.5 -3.5q23 0 37 9t20.5 20.5t9 26t2.5 23.5zM1461 0q-53 0 -108 37.5t-77 104.5q-30 -71 -76.5 -114t-95.5 -43q-102 0 -191 36t-195 123
q-63 -90 -141.5 -149t-168 -95.5t-190 -52.5t-209.5 -23l-9 253q148 5 255 27.5t182.5 58t123.5 83t75 101.5q64 125 121.5 198t106 109.5t86.5 46.5t63 10q69 0 123.5 -35.5t90.5 -90.5t54.5 -120.5t18.5 -124.5q0 -64 35.5 -87t131.5 -23h78q36 0 71.5 1.5t60.5 5.5v997
h215v-1216q-99 -18 -349 -18h-82z" />
    <glyph glyph-name="uniFEE4_uniFE8E.liga" unicode="&#xfee4;&#xfe8e;" horiz-adv-x="1563" 
d="M1213 289q0 26 -10.5 60.5t-31 64.5t-49.5 50.5t-66 20.5q-43 0 -99 -47.5t-114 -174.5q41 -15 85 -25t84 -15.5t74.5 -9t57.5 -3.5q22 0 36 9t20.5 20.5t9.5 26t3 23.5zM385 0q-71 0 -120 23t-79.5 60.5t-44.5 85.5t-14 98v968h215v-899q0 -67 20.5 -86.5t83.5 -19.5
h123q44 0 77 26t69 93q62 125 120 198t107.5 109t88 45.5t62.5 9.5q69 0 123 -35.5t90.5 -89.5t55.5 -119.5t19 -124.5q0 -34 5.5 -56.5t22 -34.5t49.5 -16.5t88 -4.5h41q21 0 28.5 -10t7.5 -20v-166q0 -34 -36 -34h-46q-52 0 -107 37.5t-78 104.5q-32 -67 -78.5 -112
t-94.5 -45q-103 0 -194.5 36t-202.5 121q-25 -49 -51 -77t-52.5 -43t-52.5 -18.5t-50 -3.5h-195z" />
    <glyph glyph-name="uniFEE4_uniFE82.liga" unicode="&#xfee4;&#xfe82;" horiz-adv-x="1683" 
d="M1333 289q0 26 -10.5 60.5t-31 64.5t-49.5 50.5t-66 20.5q-44 0 -99.5 -47.5t-113.5 -174.5q41 -15 84.5 -25t84 -15.5t75 -9t57.5 -3.5q21 0 35.5 9t20.5 20.5t9.5 26t3.5 23.5zM0 1480q52 53 94.5 65.5t78.5 12.5t85.5 -17t92.5 -37q44 -21 85 -35t73 -14
q49 0 73.5 26.5t33.5 54.5l93 -51q-58 -180 -200 -180q-50 0 -96 15.5t-89 36.5q-42 20 -85 35t-80 15q-32 0 -52.5 -6.5t-44.5 -25.5zM506 0q-71 0 -119.5 23t-79.5 60.5t-45 85.5t-14 98v968h215v-899q0 -67 20.5 -86.5t84.5 -19.5h121q44 0 77 26t69 93q62 125 120 198
t107.5 109t88 45.5t62.5 9.5q69 0 123 -35.5t90.5 -89.5t55 -119.5t18.5 -124.5q0 -34 5.5 -56.5t22.5 -34.5t50 -16.5t88 -4.5h41q21 0 28.5 -10t7.5 -20v-166q0 -34 -36 -34h-46q-52 0 -107 37.5t-78 104.5q-32 -67 -78.5 -112t-94.5 -45q-103 0 -194.5 36t-202.5 121
q-25 -49 -51 -77t-52.5 -43t-52.5 -18.5t-50 -3.5h-194z" />
    <glyph glyph-name="uniFEE4_uniFE84.liga" unicode="&#xfee4;&#xfe84;" horiz-adv-x="1547" 
d="M1198 289q0 26 -10.5 60.5t-31 64.5t-50 50.5t-65.5 20.5q-44 0 -99.5 -47.5t-113.5 -174.5q41 -15 84.5 -25t83.5 -15.5t75 -9t57 -3.5t36 9t20.5 20.5t10 26t3.5 23.5zM384 0q-70 0 -119 23t-79.5 60.5t-44.5 85.5t-14 98v968h214v-899q0 -67 20.5 -86.5t84.5 -19.5
h107q45 0 78 26t68 93q63 125 121 198t107.5 109t88 45.5t61.5 9.5q70 0 124 -35.5t90.5 -89.5t55 -119.5t18.5 -124.5q0 -34 5.5 -56.5t22.5 -34.5t49.5 -16.5t88.5 -4.5h41q21 0 28 -10t7 -20v-166q0 -34 -35 -34h-47q-51 0 -106.5 37.5t-77.5 104.5q-32 -67 -78.5 -112
t-95.5 -45q-102 0 -194 36t-203 121q-24 -49 -50 -77t-52.5 -43t-52.5 -18.5t-51 -3.5h-180zM40 1364q15 9 47.5 26.5t55.5 21.5q-32 17 -48 36t-16 48q0 32 15 64.5t39.5 58.5t54.5 43t61 17q17 0 34 -2.5t26 -8.5v-99q-15 6 -31 10.5t-37 4.5q-41 0 -67.5 -20.5
t-26.5 -44.5q0 -23 26.5 -44.5t69.5 -21.5q23 0 58.5 8.5t71.5 19.5l-10 -98q-43 -8 -78.5 -16.5t-69 -20.5t-67 -31t-72.5 -46z" />
    <glyph glyph-name="uniFEE4_uniFE88.liga" unicode="&#xfee4;&#xfe88;" horiz-adv-x="1538" 
d="M1188 289q0 26 -10.5 60.5t-31 64.5t-50 50.5t-65.5 20.5q-44 0 -99.5 -47.5t-113.5 -174.5q41 -15 84.5 -25t83.5 -15.5t75 -9t57 -3.5t36.5 9t20.5 20.5t9.5 26t3.5 23.5zM378 0q-71 0 -119.5 23t-79.5 60.5t-45 85.5t-14 98v968h215v-899q0 -67 20.5 -86.5t84.5 -19.5
h104q44 0 77 26t68 93q63 125 121 198t107.5 109t88 45.5t61.5 9.5q70 0 124 -35.5t90.5 -89.5t55 -119.5t18.5 -124.5q0 -34 5.5 -56.5t22.5 -34.5t50 -16.5t88 -4.5h41q21 0 28.5 -10t7.5 -20v-166q0 -34 -36 -34h-46q-52 0 -107.5 37.5t-77.5 104.5q-32 -67 -78.5 -112
t-94.5 -45q-103 0 -194.5 36t-203.5 121q-24 -49 -50 -77t-52.5 -43t-52.5 -18.5t-51 -3.5h-176zM53 -452q15 10 47.5 28t55.5 21q-32 17 -48 35.5t-16 48.5q0 32 15 64.5t39.5 59t54.5 42.5t61 16q17 0 34 -2.5t26 -8.5v-98q-15 5 -31 10t-37 5q-41 0 -67.5 -20.5
t-26.5 -45.5q0 -22 26.5 -43.5t69.5 -21.5q23 0 58.5 8.5t71.5 19.5l-10 -99q-43 -7 -78.5 -15.5t-69 -20.5t-67 -30.5t-72.5 -47.5z" />
    <glyph glyph-name="uniFEE8_uniFEAE.liga" unicode="&#xfee8;&#xfeae;" horiz-adv-x="1443" 
d="M807 0q-47 0 -97 27t-84 89q-13 -62 -51 -147t-96 -178t-133.5 -187.5t-164.5 -174.5l-178 167q153 122 247.5 218.5t145.5 172t67.5 133.5t16.5 104q0 34 -10.5 66.5t-34 69.5t-61.5 81t-93 100l220 136q15 -29 33.5 -73.5t38 -92.5t37.5 -94.5t29 -80.5
q14 -35 25.5 -55.5t30.5 -32t48 -15t77 -3.5h84q62 0 98.5 3.5t55 12t24 22.5t7.5 34l17 250l239 45l-32 -216q-2 -9 -3 -20.5t-1 -20.5q0 -64 20.5 -87t90.5 -23h48q20 0 27.5 -10t7.5 -20v-166q0 -34 -35 -34h-57q-105 0 -169 33t-82 127q-26 -50 -48.5 -82t-47.5 -48.5
t-55 -23t-71 -6.5h-131zM1071 997l146 145l146 -145l-146 -148z" />
    <glyph glyph-name="uniFEE7_uniFEE4.liga" unicode="&#xfee7;&#xfee4;" horiz-adv-x="1645" 
d="M1210 1101l147 145l146 -145l-146 -147zM744 289q0 26 -10.5 60.5t-31 64.5t-49.5 50.5t-66 20.5q-43 0 -99 -47.5t-114 -174.5q41 -15 85 -25t84 -15.5t74.5 -9t57.5 -3.5q22 0 36 9t20.5 20.5t9.5 26t3 23.5zM1058 1q-45 4 -93 36q-55 38 -78 105q-32 -67 -78.5 -112
t-94.5 -45q-103 0 -194.5 36t-202.5 121q-25 -49 -51 -77t-52.5 -43t-52.5 -18.5t-50 -3.5h-130q-21 0 -28.5 9t-7.5 21v166q0 34 36 34h119q45 0 77.5 26t68.5 93q63 125 120.5 198t107.5 109t88 45.5t62 9.5q69 0 123 -35.5t90.5 -89.5t55.5 -119.5t19 -124.5
q0 -34 5.5 -56.5t22 -34.5t49.5 -16.5t88 -4.5h112h44t48 0.5t45.5 2.5t36.5 6q6 17 6 41q0 30 -30 104.5t-96 203.5l208 63q37 -106 59.5 -199.5t22.5 -177.5q0 -80 -26 -137t-63 -119q-38 -9 -101.5 -13.5t-121.5 -4.5h-153q-5 0 -10 1z" />
    <glyph glyph-name="uniFEE7_uniFEF0.liga" unicode="&#xfee7;&#xfef0;" horiz-adv-x="1823" 
d="M1396 1101l146 145l146 -145l-146 -147zM1303 0q-48 -244 -232.5 -353.5t-481.5 -109.5q-160 0 -272 34.5t-181.5 94.5t-102.5 139t-33 167q0 103 30 201.5t75 177.5l177 -68q-26 -57 -44.5 -121.5t-18.5 -135.5q0 -72 28.5 -122t79 -80.5t119.5 -44.5t149 -14
q146 0 245.5 11.5t159.5 28.5t86 41t26 47q0 50 -68 76.5t-225 35.5l54 225h502h43t48 0.5t45.5 2.5t36.5 6q6 17 6 41q0 30 -30 104.5t-96 203.5l208 63q38 -106 60 -199.5t22 -177.5q0 -80 -26 -137t-63 -119q-37 -9 -101 -13.5t-121 -4.5h-104z" />
    <glyph glyph-name="uniFEE7_uniFEF2.liga" unicode="&#xfee7;&#xfef2;" horiz-adv-x="1823" 
d="M365 -722l148 145l117 -117l120 117l146 -145l-146 -147l-120 119l-117 -119zM1396 1101l146 145l146 -145l-146 -147zM1303 0q-48 -244 -232.5 -353.5t-481.5 -109.5q-160 0 -272 34.5t-181.5 94.5t-102.5 139t-33 167q0 103 30 201.5t75 177.5l177 -68
q-26 -57 -44.5 -121.5t-18.5 -135.5q0 -72 28.5 -122t79 -80.5t119.5 -44.5t149 -14q146 0 245.5 11.5t159.5 28.5t86 41t26 47q0 50 -68 76.5t-225 35.5l54 225h502h43t48 0.5t45.5 2.5t36.5 6q6 17 6 41q0 30 -30 104.5t-96 203.5l208 63q38 -106 60 -199.5t22 -177.5
q0 -80 -26 -137t-63 -119q-37 -9 -101 -13.5t-121 -4.5h-104z" />
    <glyph glyph-name="uniFEF4_uniFEAE.liga" unicode="&#xfef4;&#xfeae;" horiz-adv-x="1443" 
d="M807 0q-47 0 -97 27t-84 89q-13 -62 -51 -147t-96 -178t-133.5 -187.5t-164.5 -174.5l-178 167q153 122 247.5 218.5t145.5 172t67.5 133.5t16.5 104q0 34 -10.5 66.5t-34.5 69.5t-62 81t-92 100l220 136q15 -29 33.5 -73.5t38 -92.5t37.5 -94.5t29 -80.5
q14 -35 25.5 -55.5t30.5 -32t48 -15t77 -3.5h84q62 0 98.5 3.5t55 12t24 22.5t7.5 34l17 250l239 45l-32 -216q-2 -9 -3 -20.5t-1 -20.5q0 -64 20.5 -87t90.5 -23h48q20 0 27.5 -10t7.5 -20v-166q0 -34 -35 -34h-57q-105 0 -169 33t-82 127q-26 -50 -48.5 -82t-47.5 -48.5
t-55 -23t-71 -6.5h-131zM902 -326l148 145l117 -118l120 118l145 -145l-145 -148l-120 120l-117 -120z" />
    <glyph glyph-name="uniFEF3_uniFEE4.liga" unicode="&#xfef3;&#xfee4;" horiz-adv-x="1667" 
d="M1060 -326l147 145l118 -118l119 118l145 -145l-145 -148l-119 120l-118 -120zM739 289q0 26 -10.5 60.5t-31 64.5t-49 50.5t-66.5 20.5q-43 0 -99 -47.5t-114 -174.5q41 -15 85 -25t84.5 -15.5t75 -9t56.5 -3.5q23 0 36.5 9t20.5 20.5t9.5 26t2.5 23.5zM1067 0
q-52 0 -107 37.5t-77 104.5q-32 -67 -79 -112t-95 -45q-102 0 -193.5 36t-203.5 121q-25 -49 -51 -77t-52 -43t-52.5 -18.5t-49.5 -3.5h-131q-21 0 -28.5 9t-7.5 21v166q0 34 36 34h119q45 0 77.5 26t68.5 93q63 125 121 198t107.5 109t87.5 45.5t63 9.5q69 0 122.5 -35.5
t90 -89.5t55.5 -119.5t19 -124.5q0 -34 5.5 -56.5t22 -34.5t49.5 -16.5t89 -4.5h116h43t48.5 0.5t46 2.5t35.5 6q6 17 6 41q0 30 -30 104.5t-95 203.5l207 63q38 -106 60 -199.5t22 -177.5q0 -80 -25.5 -137t-63.5 -119q-37 -9 -101 -13.5t-121 -4.5h-154z" />
    <glyph glyph-name="uniFEF4_uniFEE6.liga" unicode="&#xfef4;&#xfee6;" horiz-adv-x="1819" 
d="M365 735l148 146l146 -146l-146 -147zM1277 -326l148 145l117 -118l120 118l145 -145l-145 -148l-120 120l-117 -120zM1183 0q-41 0 -78.5 26t-52.5 79q-13 -139 -64 -237.5t-127 -162t-171 -92.5t-197 -29q-112 0 -203.5 31t-156 87t-99 135t-34.5 178q0 78 22.5 164
t66.5 161l185 -80q-54 -112 -54 -221q0 -54 23.5 -96t64.5 -70t95 -42t115 -14q100 0 167 20.5t108 55t58.5 80t17.5 94.5q0 43 -9 86t-25 84t-35.5 78.5t-37.5 67.5l217 100q34 -88 56.5 -138t42 -76.5t42 -32.5t57.5 -6h102q62 0 98.5 3.5t55 12t24 22.5t7.5 34l17 250
l239 45l-32 -216q-2 -9 -3 -20.5t-1 -20.5q0 -64 20.5 -87t90.5 -23h48q20 0 28 -10t8 -20v-166q0 -34 -36 -34h-56q-106 0 -170 33t-82 127q-26 -50 -48.5 -82t-47.5 -48.5t-55 -23t-71 -6.5h-130z" />
    <glyph glyph-name="T_h.liga" unicode="Th" horiz-adv-x="1895" 
d="M986 1086h-347l-9 -1086h-238l9 1086h-362l2 205l1175 -1l-4 -464h4q54 62 131.5 101.5t172.5 39.5q75 0 123.5 -24.5t76.5 -63.5t39 -90.5t11 -105.5q0 -71 -1 -118.5t-1 -92.5l-5 -472h-228l2 235q0 54 1 112.5t1 113t0.5 100.5t0.5 73q0 55 -26 91.5t-97 36.5
q-27 0 -54.5 -11.5t-53.5 -29.5t-51 -40t-47 -43l-4 -638h-228z" />
    <glyph glyph-name="f_b.liga" unicode="fb" horiz-adv-x="1707" 
d="M189 769h-149v171h149v121q0 77 22.5 141.5t67 112t111 73.5t154.5 26h73v-182h-53q-63 0 -103 -36.5t-40 -125.5v-130h194v-171h-200v-769h-229zM994 241q18 -26 60 -49.5t91 -23.5q63 0 110 27t77.5 71t46.5 99t16 111q0 54 -12 107t-38.5 95.5t-65.5 68.5t-95 26
q-65 0 -108 -34t-80 -89zM775 1399h228l-7 -573l3 -3q32 69 93.5 106.5t150.5 37.5q86 0 157 -37.5t120 -102t75.5 -150.5t26.5 -180q0 -91 -27.5 -184t-81 -168.5t-131 -123t-176.5 -47.5q-66 0 -125 24.5t-91 83.5h-3v-82h-219z" />
    <glyph glyph-name="f_f_b.liga" unicode="ffb" horiz-adv-x="2277" 
d="M1568 241q18 -26 60 -49.5t91 -23.5q63 0 110 27t77.5 71t46.5 99t16 111q0 54 -12 107t-38.5 95.5t-65.5 68.5t-95 26q-65 0 -108 -34t-80 -89zM415 769v-769h-229l3 769h-149v171h149v121q0 77 22.5 141.5t67 112t111 73.5t154.5 26h73v-182h-53q-63 0 -103 -36.5
t-40 -125.5v-130h342v121q0 77 22.5 141.5t67 112t111 73.5t154.5 26h73v-182h-53q-63 0 -103 -36.5t-40 -125.5v-130h194v-171h-200v-769h-229l3 769h-348zM1349 1399h228l-7 -573l3 -3q32 69 93.5 106.5t150.5 37.5q86 0 157 -37.5t120 -102t75.5 -150.5t26.5 -180
q0 -91 -27.5 -184t-81 -168.5t-131 -123t-176.5 -47.5q-66 0 -125 24.5t-91 83.5h-3v-82h-219z" />
    <glyph glyph-name="f_f.liga" unicode="ff" horiz-adv-x="1200" 
d="M415 769v-769h-229l3 769h-149v171h149v121q0 77 22.5 141.5t67 112t111 73.5t154.5 26h73v-182h-53q-63 0 -103 -36.5t-40 -125.5v-130h342v121q0 77 22.5 141.5t67 112t111 73.5t154.5 26h73v-182h-53q-63 0 -103 -36.5t-40 -125.5v-130h194v-171h-200v-769h-229l3 769
h-348z" />
    <glyph glyph-name="f_h.liga" unicode="fh" horiz-adv-x="1672" 
d="M189 769h-149v171h149v121q0 77 22.5 141.5t67 112t111 73.5t154.5 26h73v-182h-53q-63 0 -103 -36.5t-40 -125.5v-130h194v-171h-200v-769h-229zM769 1399h228l-4 -573h4q53 62 130.5 101.5t173.5 39.5q75 0 123 -24.5t76.5 -63.5t39 -90.5t10.5 -105.5
q0 -71 -0.5 -118.5t-0.5 -92.5l-6 -472h-228l2 235q0 54 1 112.5t1 113t1 100.5t1 73q0 55 -26 91.5t-97 36.5q-27 0 -54.5 -11.5t-53.5 -29.5t-51 -40t-48 -43l-4 -638h-227z" />
    <glyph glyph-name="f_f_h.liga" unicode="ffh" horiz-adv-x="2238" 
d="M415 769v-769h-229l3 769h-149v171h149v121q0 77 22.5 141.5t67 112t111 73.5t154.5 26h73v-182h-53q-63 0 -103 -36.5t-40 -125.5v-130h342v121q0 77 22.5 141.5t67 112t111 73.5t154.5 26h73v-182h-53q-63 0 -103 -36.5t-40 -125.5v-130h194v-171h-200v-769h-229l3 769
h-348zM1343 1399h228l-4 -573h4q53 62 130.5 101.5t173.5 39.5q75 0 123 -24.5t76.5 -63.5t39 -90.5t10.5 -105.5q0 -71 -0.5 -118.5t-0.5 -92.5l-6 -472h-228l2 235q0 54 1 112.5t1 113t1 100.5t1 73q0 55 -26 91.5t-97 36.5q-27 0 -54.5 -11.5t-53.5 -29.5t-51 -40
t-48 -43l-4 -638h-227z" />
    <glyph glyph-name="f_f_i.liga" unicode="ffi" horiz-adv-x="1693" 
d="M1346 1291h227l-2 -220h-227zM415 769v-769h-229l3 769h-149v171h149v121q0 77 22.5 141.5t67 112t111 73.5t154.5 26h73v-182h-53q-63 0 -103 -36.5t-40 -125.5v-130h342v121q0 77 22.5 141.5t67 112t111 73.5t154.5 26h73v-182h-53q-63 0 -103 -36.5t-40 -125.5v-130
h576l-10 -940h-226l9 769h-355v-769h-229l3 769h-348z" />
    <glyph glyph-name="f_j.liga" unicode="fj" horiz-adv-x="1139" 
d="M772 1291h227l-2 -220h-227zM997 940l-3 -301l-6 -695q0 -112 -16 -188.5t-56.5 -122.5t-114.5 -65.5t-188 -19.5v172q47 4 76 13t45 35.5t21.5 73t5.5 122.5l6 805h-352v-769h-229l3 769h-149v171h149v121q0 77 22.5 141.5t67 112t111 73.5t154.5 26h73v-182h-53
q-63 0 -103 -36.5t-40 -125.5v-130h576z" />
    <glyph glyph-name="f_f_j.liga" unicode="ffj" horiz-adv-x="1689" 
d="M1346 1291h227l-2 -220h-227zM415 769v-769h-229l3 769h-149v171h149v121q0 77 22.5 141.5t67 112t111 73.5t154.5 26h73v-182h-53q-63 0 -103 -36.5t-40 -125.5v-130h342v121q0 77 22.5 141.5t67 112t111 73.5t154.5 26h73v-182h-53q-63 0 -103 -36.5t-40 -125.5v-130
h576l-3 -301l-6 -695q0 -112 -16 -188.5t-57 -122.5t-114.5 -65.5t-187.5 -19.5v172q46 4 75.5 13t45.5 35.5t21.5 73t5.5 122.5l6 805h-352v-769h-229l3 769h-348z" />
    <glyph glyph-name="f_k.liga" unicode="fk" horiz-adv-x="1582" 
d="M189 769h-149v171h149v121q0 77 22.5 141.5t67 112t111 73.5t154.5 26h73v-182h-53q-63 0 -103 -36.5t-40 -125.5v-130h194v-171h-200v-769h-229zM771 1399h227l-11 -897h4l399 495l162 -137l-328 -369l328 -420l-186 -128l-375 518h-4v-461h-227z" />
    <glyph glyph-name="f_f_k.liga" unicode="ffk" horiz-adv-x="2148" 
d="M415 769v-769h-229l3 769h-149v171h149v121q0 77 22.5 141.5t67 112t111 73.5t154.5 26h73v-182h-53q-63 0 -103 -36.5t-40 -125.5v-130h342v121q0 77 22.5 141.5t67 112t111 73.5t154.5 26h73v-182h-53q-63 0 -103 -36.5t-40 -125.5v-130h194v-171h-200v-769h-229l3 769
h-348zM1345 1399h227l-11 -897h4l399 495l162 -137l-328 -369l328 -420l-186 -128l-375 518h-4v-461h-227z" />
    <glyph glyph-name="f_f_l.liga" unicode="ffl" horiz-adv-x="1707" 
d="M415 769v-769h-229l3 769h-149v171h149v121q0 77 22.5 141.5t67 112t111 73.5t154.5 26h73v-182h-53q-63 0 -103 -36.5t-40 -125.5v-130h342v121q0 77 22.5 141.5t67 112t111 73.5t154.5 26h73v-182h-53q-63 0 -103 -36.5t-40 -125.5v-130h194v-171h-200v-769h-229l3 769
h-348zM1346 1399h227l-12 -1399h-226z" />
    <glyph glyph-name="f_t.liga" unicode="ft" horiz-adv-x="1200" 
d="M415 769v-769h-229l3 769h-149v171h149v121q0 77 22.5 141.5t67 112t111 73.5t154.5 26h73v-182h-53q-63 0 -103 -36.5t-40 -125.5v-130l320 -3l7 336h228l-8 -336l209 3v-171h-209l-5 -276q-2 -71 -2 -133.5v-115.5q0 -46 17 -72t60 -26q30 0 55 13.5t49 30.5l65 -138
l-76 -41q-45 -26 -83.5 -31.5t-58.5 -5.5q-117 0 -186.5 65.5t-69.5 216.5v41.5t1 56t1 63.5v64l6 288h-326z" />
    <glyph glyph-name="f_f_t.liga" unicode="fft" horiz-adv-x="1775" 
d="M415 769v-769h-229l3 769h-149v171h149v121q0 77 22.5 141.5t67 112t111 73.5t154.5 26h73v-182h-53q-63 0 -103 -36.5t-40 -125.5v-130h342v121q0 77 22.5 141.5t67 112t111 73.5t154.5 26h73v-182h-53q-63 0 -103 -36.5t-40 -125.5v-130l320 -3l7 336h228l-8 -336
l209 3v-171h-209l-5 -276q-2 -71 -2 -133.5v-115.5q0 -46 17 -72t60 -26q30 0 55 13.5t49 30.5l65 -138l-77 -41q-44 -26 -82.5 -31.5t-58.5 -5.5q-117 0 -186.5 65.5t-69.5 216.5v41.5t1 56t1 63.5v64l6 288h-326v-769h-229l3 769h-348z" />
    <glyph glyph-name="uni0647.fina" unicode="&#x647;" horiz-adv-x="1101" arabic-form="final" 
d="M527 226q70 0 119.5 16t80 42t43.5 62.5t13 75.5q0 78 -21 112t-50 34q-25 0 -62.5 -22t-73 -65t-62.5 -106t-33 -149h46zM712 -271q59 0 59 77q0 39 -19 75.5t-51.5 65t-78 46.5t-98.5 18h-43q6 -84 26 -138t50.5 -86.5t70.5 -45t84 -12.5zM203 0q-65 0 -88.5 -34.5
t-23.5 -118.5h-14q-36 48 -56.5 108t-20.5 114q0 65 36.5 113t123.5 48h157q11 124 59 226.5t119 175.5t155.5 112t172.5 39q33 0 58 -23t42 -58.5t25.5 -77.5t8.5 -79q0 -89 -30 -166t-72 -149h270q20 0 28 -10t8 -20v-166q0 -34 -36 -34h-265v-9q17 -41 26.5 -100.5
t9.5 -114.5q0 -54 -12.5 -100t-37.5 -80t-64.5 -53.5t-92.5 -19.5q-57 0 -123 20.5t-123 74.5t-95 146t-38 236h-107z" />
    <glyph glyph-name="uni0672.fina" unicode="&#x672;" horiz-adv-x="468" 
d="M385 0q-71 0 -120 23t-79.5 60.5t-44.5 85.5t-14 98v968h215v-899q0 -67 20.5 -86.5t83.5 -19.5h47q20 0 27.5 -10t7.5 -20v-166q0 -34 -35 -34h-108zM377 1538q-7 2 -13 3q-13 4 -28 4q-33 0 -55 -16t-22 -36q0 -17 22 -34.5t56 -17.5q18 0 46 8l32 8l-4 -77
q-10 -2 -21 -3q0 -1 -1 -2q-18 -4 -34 -8l-18 -4q-11 -4 -22 -7q-80 -45 -141 13q0 1 -2 3q-13 10 -20 14q-10 4 -18 4q-26 0 -57 -56l-62 58q30 41 57 57t41 18t28 -2t33 -19q44 -32 65 -38h3q3 -1 7 -1q4 1 7 1v5q-24 10 -37.5 24.5t-13.5 38.5t12.5 50t31.5 47t43.5 35
t48.5 14q14 0 27 -2q4 -1 9 -2v-80z" />
    <glyph glyph-name="uni0673.fina" unicode="&#x673;" horiz-adv-x="468" 
d="M385 0q-71 0 -120 23t-79.5 60.5t-44.5 85.5t-14 98v968h215v-899q0 -67 20.5 -86.5t83.5 -19.5h47q20 0 27.5 -10t7.5 -20v-166q0 -34 -35 -34h-108zM377 -175q-7 2 -13 4q-13 3 -28 3q-33 0 -55 -16t-22 -36q0 -17 22 -34t56 -17q18 0 46 7l32 8l-4 -77q-10 -1 -21 -3
q0 -1 -1 -2q-18 -4 -34 -7q-9 -3 -18 -5q-11 -3 -22 -7q-80 -45 -141 14l-2 2q-13 10 -20 14q-10 4 -18 4q-26 0 -57 -56l-62 58q30 41 57 57t41 18.5t28 -1.5t33 -20q44 -32 65 -37q2 -1 3 -1q3 -1 7 -1q4 1 7 2v4q-24 10 -37.5 24.5t-13.5 38.5q0 25 12.5 51t31.5 47
t43.5 34.5t48.5 13.5q14 0 27 -2q4 -1 9 -2v-80z" />
    <glyph glyph-name="uni0675.fina" unicode="&#x675;" horiz-adv-x="677" 
d="M385 0q-71 0 -120 23t-79.5 60.5t-44.5 85.5t-14 98v968h215v-899q0 -67 20.5 -86.5t292.5 -19.5h47q21 0 28 -10t7 -20v-166q0 -34 -35 -34h-317zM338 1364q16 9 48.5 26.5t54.5 21.5q-32 17 -47.5 36t-15.5 48q0 32 15 64.5t39 58.5t54 43t62 17q16 0 33 -2.5t26 -8.5
v-99q-14 6 -30 10.5t-37 4.5q-41 0 -68 -20.5t-27 -44.5q0 -23 27 -44.5t70 -21.5q22 0 57.5 8.5t71.5 19.5l-10 -98q-43 -8 -78 -16.5t-69 -20.5t-67.5 -31t-72.5 -46z" />
    <glyph glyph-name="uni0676.fina" unicode="&#x676;" horiz-adv-x="1067" 
d="M612 230q0 35 -10.5 77t-30 78.5t-47.5 60.5t-63 24q-28 0 -54 -14t-46 -35.5t-32 -48.5t-12 -55q0 -37 30 -62t114 -25h151zM778 0q-11 -45 -40 -116t-90 -153t-160.5 -168.5t-250.5 -161.5l-127 205q209 90 334 180.5t159 213.5h-157q-90 0 -144.5 25t-84 60.5t-40 75
t-10.5 67.5q0 59 27.5 136.5t76.5 147.5t116.5 117.5t147.5 47.5q58 0 104 -39t76.5 -103.5t48 -144.5t21.5 -160h306q20 0 28 -10t8 -20v-166q0 -34 -36 -34h-313zM605 836q21 11 61 32.5t70 28.5v8q-39 15 -60.5 38.5t-21.5 60.5q0 39 19.5 80t50 75t69 55t77.5 21
q21 0 41.5 -2.5t33.5 -10.5v-127q-19 7 -39.5 13t-44.5 6q-52 0 -86.5 -25.5t-34.5 -56.5q0 -28 34.5 -55.5t88.5 -27.5q28 0 72.5 11.5t89.5 24.5l-11 -127q-55 -9 -99.5 -19.5t-86.5 -26.5t-85 -39t-93 -59z" />
    <glyph glyph-name="uni0677.fina" unicode="&#x677;" horiz-adv-x="1067" 
d="M612 230q0 35 -10.5 77t-30 78.5t-47.5 60.5t-63 24q-28 0 -54 -14t-46 -35.5t-32 -48.5t-12 -55q0 -37 30 -62t114 -25h151zM778 0q-11 -45 -40 -116t-90 -153t-160.5 -168.5t-250.5 -161.5l-127 205q209 90 334 180.5t159 213.5h-157q-90 0 -144.5 25t-84 60.5t-40 75
t-10.5 67.5q0 59 27.5 136.5t76.5 147.5t116.5 117.5t147.5 47.5q58 0 104 -39t76.5 -103.5t48 -144.5t21.5 -160h306q20 0 28 -10t8 -20v-166q0 -34 -36 -34h-313zM605 836q21 11 61 32.5t70 28.5v8q-39 15 -60.5 38.5t-21.5 60.5q0 39 19.5 80t50 75t69 55t77.5 21
q21 0 41.5 -2.5t33.5 -10.5v-127q-19 7 -39.5 13t-44.5 6q-52 0 -86.5 -25.5t-34.5 -56.5q0 -28 34.5 -55.5t88.5 -27.5q28 0 72.5 11.5t89.5 24.5l-11 -127q-55 -9 -99.5 -19.5t-86.5 -26.5t-85 -39t-93 -59zM190 898q52 6 86 12t56 12.5t38 16t32 20.5q-59 18 -88 50
t-29 66q0 26 15 49.5t37.5 41t51.5 28t57 10.5q48 0 79.5 -26t31.5 -78q0 -38 -14.5 -83.5t-52.5 -88.5t-104 -78.5t-164 -52.5zM455 1023q26 37 26 71q0 32 -15.5 43t-36.5 11q-24 0 -42.5 -13.5t-18.5 -38.5q0 -26 27 -45t60 -28z" />
    <glyph glyph-name="uni0678.init" unicode="&#x678;" horiz-adv-x="837" 
d="M-19 0q-21 0 -28.5 9t-7.5 21v166q0 34 36 34h121h43t48 0.5t45.5 2.5t36.5 6q6 17 6 41q0 30 -30 104.5t-96 203.5l208 63q38 -106 60 -199.5t22 -177.5q0 -80 -26 -137t-63 -119q-37 -9 -101 -13.5t-121 -4.5h-153zM369 894q21 11 61 32t70 30v7q-39 15 -60.5 38
t-21.5 60q0 40 19.5 81t50 74.5t69 55t77.5 21.5q21 0 41.5 -3t32.5 -10v-127q-18 8 -38.5 13.5t-44.5 5.5q-52 0 -87 -25.5t-35 -56.5q0 -29 35 -55.5t88 -26.5q29 0 73.5 10.5t89.5 24.5l-11 -127q-54 -10 -99 -20t-87 -25.5t-85 -39t-93 -58.5z" />
    <glyph glyph-name="uni0678.medi" unicode="&#x678;" horiz-adv-x="935" 
d="M-19 0q-21 0 -28.5 9t-7.5 21v166q0 34 36 34h96q62 0 98.5 3.5t55 12t24 22.5t7.5 34l17 250l239 45l-32 -216q-2 -9 -2.5 -20.5t-0.5 -20.5q0 -64 20.5 -87t89.5 -23h367q20 0 27.5 -10t7.5 -20v-166q0 -34 -35 -34h-375q-106 0 -170 33t-82 127q-26 -50 -48.5 -82
t-47.5 -48.5t-55 -23t-71 -6.5h-130zM495 810q20 11 60.5 32.5t70.5 28.5v8q-40 15 -61 38t-21 61q0 39 19.5 80t50 74.5t68.5 55t78 21.5q20 0 40.5 -3t33.5 -10v-126q-18 7 -38.5 12.5t-45.5 5.5q-52 0 -86.5 -25t-34.5 -57q0 -28 34.5 -55t88.5 -27q28 0 73 11t89 24
l-11 -127q-53 -9 -98 -19t-87 -26t-85 -39.5t-93 -58.5z" />
    <glyph glyph-name="uni0678.fina" unicode="&#x678;" horiz-adv-x="1631" 
d="M1304 0q-48 -244 -232.5 -353.5t-481.5 -109.5q-160 0 -272 34.5t-181.5 94.5t-102.5 139t-33 167q0 103 30 201.5t75 177.5l177 -68q-26 -57 -44.5 -121.5t-18.5 -135.5q0 -72 28.5 -122t79 -80.5t119.5 -44.5t149 -14q146 0 245.5 11.5t159.5 28.5t86 41t26 47
q0 50 -68 76.5t-225 35.5l54 225h781q21 0 28.5 -10t7.5 -20v-166q0 -34 -36 -34h-351zM1194 498q20 11 60.5 32.5t70.5 28.5v9q-39 14 -60.5 37.5t-21.5 60.5q0 39 19.5 80t50 75t68.5 55t78 21q21 0 41.5 -2.5t32.5 -9.5v-128q-18 8 -39 13.5t-44 5.5q-52 0 -87 -25
t-35 -57q0 -28 35 -55t88 -27q29 0 73.5 11t89.5 25l-11 -128q-55 -9 -99.5 -19t-86.5 -26t-85 -39t-94 -59z" />
    <glyph glyph-name="uni067C.init" unicode="&#x67c;" horiz-adv-x="637" 
d="M57 1106l148 146l117 -118l120 118l145 -146l-145 -147l-120 120l-117 -120zM193 -7q-17 0 -32 -14.5t-26 -35t-17.5 -41.5t-6.5 -34q0 -27 17 -34t48 -7q21 0 41 2t35.5 7t25.5 14.5t10 23.5q0 12 -8 32.5t-20.5 39t-30 33t-36.5 14.5zM87 0h-106q-21 0 -28.5 9t-7.5 21
v166q0 34 36 34h194h43t48 0.5t45.5 2.5t36.5 6q6 17 6 41q0 30 -30 104.5t-96 203.5l208 63q37 -106 59.5 -199.5t22.5 -177.5q0 -80 -26 -137t-63 -119q-30 -7 -78 -12q16 -33 24 -72q9 -43 9 -79q0 -29 -19.5 -58t-51 -51.5t-72.5 -36.5t-84 -14q-27 0 -50.5 7t-42.5 21
t-29.5 36t-10.5 52q0 20 7 50.5t19.5 63.5t31.5 66q2 4 5 9z" />
    <glyph glyph-name="uni067C.medi" unicode="&#x67c;" horiz-adv-x="689" 
d="M116 1000l148 145l118 -117l119 117l146 -145l-146 -147l-119 119l-118 -119zM184 -7q-17 0 -32 -14.5t-26 -35t-17.5 -41.5t-6.5 -34q0 -27 16.5 -34t48.5 -7q21 0 40.5 2t35.5 7t25.5 14.5t9.5 23.5q0 12 -7.5 32.5t-20 39t-30 33t-36.5 14.5zM78 0h-97q-21 0 -28.5 9
t-7.5 21v166q0 34 36 34h169q62 0 98.5 3.5t55 12t24 22.5t7.5 34l17 250l239 45l-32 -216q-2 -9 -3 -20.5t-1 -20.5q0 -64 20.5 -87t90.5 -23h48q20 0 27.5 -10t7.5 -20v-166q0 -34 -35 -34h-57q-105 0 -169 33t-82 127q-26 -50 -48 -82q-17 -23 -35 -38q7 -12 15 -24
q19 -38 28 -81.5t9 -79.5q0 -29 -19.5 -58t-51 -51.5t-72.5 -36.5t-84 -14q-27 0 -51 7t-42.5 21t-29 36t-10.5 52q0 20 7 50.5t19.5 63.5t31.5 66q2 4 5 9z" />
    <glyph glyph-name="uni067C.fina" unicode="&#x67c;" horiz-adv-x="1674" 
d="M541 998l148 145l117 -117l120 117l145 -145l-145 -147l-120 119l-117 -119zM758 -27q-16 0 -31 -14.5t-26 -35t-18 -41.5t-7 -34q0 -27 17 -34t49 -7q21 0 40.5 2t35.5 7t25.5 14.5t9.5 23.5q0 12 -8 32.5t-20 39t-30 33t-37 14.5zM652 -21q-327 5 -483 75
q-169 74 -169 250q0 50 19.5 122t47.5 142l163 29q-52 -99 -52 -193q0 -55 28.5 -92.5t93.5 -59.5t172 -32t261 -10q138 0 234 2.5t161 7t102 15.5t56.5 29t27 45t12.5 66q2 13 4 37t3 50.5t2 51.5t1 38l239 45l-28 -191q-2 -9 -4.5 -34t-2.5 -34q0 -58 19.5 -83t89.5 -25
h49q20 0 28 -10t8 -20v-166q0 -34 -36 -34h-56q-106 0 -171.5 33t-80.5 127q-30 -65 -79.5 -101t-129.5 -54t-198 -21q-31 -2 -65 -3q15 -31 22 -67q9 -43 9 -79q0 -29 -19.5 -58t-51 -51.5t-72.5 -36.5t-84 -14q-27 0 -50.5 7t-42.5 21t-29.5 36t-10.5 51q0 21 7 51.5
t20 63.5t31 66q3 4 5 8z" />
    <glyph glyph-name="uni067D.init" unicode="&#x67d;" horiz-adv-x="564" 
d="M-19 0q-21 0 -28.5 9t-7.5 21v166q0 34 36 34h121h43t48 0.5t45.5 2.5t36.5 6q6 17 6 41q0 30 -30 104.5t-96 203.5l208 63q38 -106 60 -199.5t22 -177.5q0 -80 -26 -137t-63 -119q-37 -9 -101 -13.5t-121 -4.5h-153zM152 1390l126 -119l126 119l146 -147l-146 -146
l-126 117l-126 -117l-147 146zM279 1150l145 -148l-145 -146l-147 146z" />
    <glyph glyph-name="uni067D.medi" unicode="&#x67d;" horiz-adv-x="617" 
d="M-19 0q-21 0 -28.5 9t-7.5 21v166q0 34 36 34h96q62 0 98.5 3.5t55 12t24 22.5t7.5 34l17 250l239 45l-32 -216q-2 -9 -2.5 -20.5t-0.5 -20.5q0 -64 20.5 -87t89.5 -23h48q20 0 28 -10t8 -20v-166q0 -34 -36 -34h-56q-106 0 -170 33t-82 127q-26 -50 -48.5 -82
t-47.5 -48.5t-55 -23t-71 -6.5h-130zM223 1269l125 -119l126 119l146 -148l-146 -145l-126 117l-125 -117l-148 145zM350 1028l145 -147l-145 -146l-148 146z" />
    <glyph glyph-name="uni067D.fina" unicode="&#x67d;" horiz-adv-x="1674" 
d="M1642 0q-106 0 -171.5 33t-80.5 127q-30 -65 -79.5 -101t-129.5 -54t-198 -22t-283 -4q-364 0 -532 74.5t-168 250.5q0 50 19.5 122t47.5 142l163 29q-52 -99 -52 -193q0 -55 28.5 -92.5t93.5 -59.5t172 -32t261 -10q138 0 234 2.5t161 7t102 15.5t56.5 29t27 45t12.5 66
q2 13 4 37t3 50.5t2 51.5t1 38l239 45l-28 -191q-2 -9 -4.5 -34t-2.5 -34q0 -58 19.5 -83t89.5 -25h49q20 0 28 -10t8 -20v-166q0 -34 -36 -34h-56zM662 1237l125 -119l128 119l145 -147l-145 -146l-128 117l-125 -117l-147 146zM789 997l146 -148l-146 -146l-147 146z" />
    <glyph glyph-name="uni0681.init" unicode="&#x681;" horiz-adv-x="1149" 
d="M-19 0q-21 0 -28.5 9t-7.5 21v166q0 34 36 34h104q79 0 166.5 13t182.5 31q95 19 193 33t165 14q-56 30 -108 90q-23 25 -47 47.5t-55.5 39.5t-75.5 27.5t-105 10.5q-40 0 -97.5 -9.5t-97.5 -22.5v212q38 12 96.5 25.5t137.5 13.5q78 0 138.5 -24t106 -62.5t79.5 -84
t60 -89.5q27 -50 51 -80.5t47 -50t49 -30t58 -15.5v-220q-43 4 -85 5t-81 1q-106 0 -202 -16t-192 -37q-95 -20 -184.5 -36t-190.5 -16h-113zM227 1064q21 11 61.5 32.5t70.5 29.5v7q-40 15 -61 38t-21 61q0 39 19.5 80t50 74.5t68.5 55t78 21.5q20 0 40.5 -2.5t33.5 -10.5
v-126q-18 7 -38.5 12.5t-45.5 5.5q-52 0 -86.5 -25t-34.5 -57q0 -28 34.5 -55t88.5 -27q28 0 73 11t89 24l-11 -126q-53 -10 -98 -20t-87 -26t-85 -39.5t-93 -58.5z" />
    <glyph glyph-name="uni0681.medi" unicode="&#x681;" horiz-adv-x="1204" 
d="M-19 0q-21 0 -28.5 9t-7.5 21v166q0 34 36 34h406q55 0 114.5 15.5t117.5 40t110 54.5t92 57q-46 9 -83.5 28t-66.5 40q-51 33 -113.5 52t-156.5 19q-40 0 -97.5 -9.5t-97.5 -22.5v212q38 12 97.5 25.5t134.5 13.5q82 0 144.5 -14.5t109.5 -39t84.5 -55t71.5 -62.5
q37 -36 64.5 -55.5t52.5 -30.5t50 -16t57 -10v-148q-25 0 -69.5 -8t-76.5 -23q14 -15 48 -39t94 -24h161q21 0 28 -10t7 -20v-166q0 -34 -35 -34h-155q-91 0 -155 61.5t-101 175.5q-140 -123 -261 -180t-250 -57h-326zM237 1064q20 11 60.5 32.5t70.5 29.5v7
q-39 15 -60.5 38t-21.5 61q0 39 19.5 80t50 74.5t68.5 55t78 21.5q21 0 41.5 -2.5t32.5 -10.5v-126q-18 7 -38.5 12.5t-44.5 5.5q-52 0 -87 -25t-35 -57q0 -28 35 -55t88 -27q29 0 73.5 11t89.5 24l-11 -126q-54 -10 -99 -20t-87 -26t-85 -39.5t-93 -58.5z" />
    <glyph glyph-name="uni0681.fina" unicode="&#x681;" horiz-adv-x="1162" 
d="M1222 34q0 -34 -35 -34h-86q-170 0 -251 70t-108 212q-139 -21 -244.5 -70.5t-176 -116.5t-104.5 -145t-34 -157q0 -65 23.5 -122t70 -101t113.5 -69t157 -25q97 0 172 19.5t136 50.5l96 -173q-111 -65 -222 -92t-207 -27q-104 0 -199 30.5t-167 91.5t-114 152t-42 214
q0 142 57 259t157.5 204.5t237.5 145.5t298 84q-9 5 -30.5 25.5t-38.5 36.5q-65 59 -153 77.5t-177 18.5q-21 0 -46 -3.5t-52 -9t-52 -12.5t-44 -12v213q44 14 101 29.5t130 15.5q82 0 143.5 -13.5t109.5 -36.5t86 -55t74 -67q35 -37 63 -63.5t54 -44t51.5 -27.5t56.5 -16
v-163q-9 0 -29.5 -2t-45 -4.5t-46.5 -6t-34 -7.5q10 -48 64.5 -63t135.5 -15h116q20 0 27.5 -10t7.5 -20v-166zM245 1064q21 11 61 32.5t70 29.5v7q-39 15 -60.5 38t-21.5 61q0 39 19.5 80t50 74.5t69 55t77.5 21.5q21 0 41.5 -2.5t33.5 -10.5v-126q-18 7 -38.5 12.5
t-45.5 5.5q-52 0 -86.5 -25t-34.5 -57q0 -28 34.5 -55t88.5 -27q28 0 72.5 11t89.5 24l-11 -126q-54 -10 -99 -20t-87 -26t-84.5 -39.5t-92.5 -58.5z" />
    <glyph glyph-name="uni0682.init" unicode="&#x682;" horiz-adv-x="1149" 
d="M-19 0q-21 0 -28.5 9t-7.5 21v166q0 34 36 34h104q79 0 166.5 13t182.5 31q95 19 193 33t165 14q-56 30 -108 90q-23 25 -47 47.5t-55.5 39.5t-75.5 27.5t-105 10.5q-40 0 -97.5 -9.5t-97.5 -22.5v212q38 12 96.5 25.5t137.5 13.5q78 0 138.5 -24t106 -62.5t79.5 -84
t60 -89.5q27 -50 51 -80.5t47 -50t49 -30t58 -15.5v-220q-43 4 -85 5t-81 1q-106 0 -202 -16t-192 -37q-95 -20 -184.5 -36t-190.5 -16h-113zM430 1234l-134 133l146 146l146 -146l-133 -133l133 -133l-146 -147l-146 147z" />
    <glyph glyph-name="uni0682.medi" unicode="&#x682;" horiz-adv-x="1204" 
d="M-19 0q-21 0 -28.5 9t-7.5 21v166q0 34 36 34h406q55 0 114.5 15.5t117.5 40t110 54.5t92 57q-46 9 -83.5 28t-66.5 40q-51 33 -113.5 52t-156.5 19q-40 0 -97.5 -9.5t-97.5 -22.5v212q38 12 97.5 25.5t134.5 13.5q82 0 144.5 -14.5t109.5 -39t84.5 -55t71.5 -62.5
q37 -36 64.5 -55.5t52.5 -30.5t50 -16t57 -10v-148q-25 0 -69.5 -8t-76.5 -23q14 -15 48 -39t94 -24h161q21 0 28 -10t7 -20v-166q0 -34 -35 -34h-155q-91 0 -155 61.5t-101 175.5q-140 -123 -261 -180t-250 -57h-326zM430 1234l-134 133l146 146l146 -146l-133 -133
l133 -133l-146 -147l-146 147z" />
    <glyph glyph-name="uni0682.fina" unicode="&#x682;" horiz-adv-x="1162" 
d="M1222 34q0 -34 -35 -34h-86q-170 0 -251 70t-108 212q-139 -21 -244.5 -70.5t-176 -116.5t-104.5 -145t-34 -157q0 -65 23.5 -122t70 -101t113.5 -69t157 -25q97 0 172 19.5t136 50.5l96 -173q-111 -65 -222 -92t-207 -27q-104 0 -199 30.5t-167 91.5t-114 152t-42 214
q0 142 57 259t157.5 204.5t237.5 145.5t298 84q-9 5 -30.5 25.5t-38.5 36.5q-65 59 -153 77.5t-177 18.5q-21 0 -46 -3.5t-52 -9t-52 -12.5t-44 -12v213q44 14 101 29.5t130 15.5q82 0 143.5 -13.5t109.5 -36.5t86 -55t74 -67q35 -37 63 -63.5t54 -44t51.5 -27.5t56.5 -16
v-163q-9 0 -29.5 -2t-45 -4.5t-46.5 -6t-34 -7.5q10 -48 64.5 -63t135.5 -15h116q20 0 27.5 -10t7.5 -20v-166zM429 1234l-134 133l147 146l146 -146l-133 -133l133 -133l-146 -147l-147 147z" />
    <glyph glyph-name="uni0685.init" unicode="&#x685;" horiz-adv-x="1149" 
d="M-19 0q-21 0 -28.5 9t-7.5 21v166q0 34 36 34h104q79 0 166.5 13t182.5 31q95 19 193 33t165 14q-56 30 -108 90q-23 25 -47 47.5t-55.5 39.5t-75.5 27.5t-105 10.5q-40 0 -97.5 -9.5t-97.5 -22.5v212q38 12 96.5 25.5t137.5 13.5q78 0 138.5 -24t106 -62.5t79.5 -84
t60 -89.5q27 -50 51 -80.5t47 -50t49 -30t58 -15.5v-220q-43 4 -85 5t-81 1q-106 0 -202 -16t-192 -37q-95 -20 -184.5 -36t-190.5 -16h-113zM174 1095l146 146l126 -118l127 118l145 -146l-145 -148l-127 121l-126 -121zM300 1336l148 145l145 -145l-145 -147z" />
    <glyph glyph-name="uni0685.medi" unicode="&#x685;" horiz-adv-x="1204" 
d="M-19 0q-21 0 -28.5 9t-7.5 21v166q0 34 36 34h406q55 0 114.5 15.5t117.5 40t110 54.5t92 57q-46 9 -83.5 28t-66.5 40q-51 33 -113.5 52t-156.5 19q-40 0 -97.5 -9.5t-97.5 -22.5v212q38 12 97.5 25.5t134.5 13.5q82 0 144.5 -14.5t109.5 -39t84.5 -55t71.5 -62.5
q37 -36 64.5 -55.5t52.5 -30.5t50 -16t57 -10v-148q-25 0 -69.5 -8t-76.5 -23q14 -15 48 -39t94 -24h161q21 0 28 -10t7 -20v-166q0 -34 -35 -34h-155q-91 0 -155 61.5t-101 175.5q-140 -123 -261 -180t-250 -57h-326zM174 1095l146 146l126 -118l127 118l145 -146
l-145 -148l-127 121l-126 -121zM300 1336l148 145l145 -145l-145 -147z" />
    <glyph glyph-name="uni0685.fina" unicode="&#x685;" horiz-adv-x="1162" 
d="M1222 34q0 -34 -35 -34h-86q-170 0 -251 70t-108 212q-139 -21 -244.5 -70.5t-176 -116.5t-104.5 -145t-34 -157q0 -65 23.5 -122t70 -101t113.5 -69t157 -25q97 0 172 19.5t136 50.5l96 -173q-111 -65 -222 -92t-207 -27q-104 0 -199 30.5t-167 91.5t-114 152t-42 214
q0 142 57 259t157.5 204.5t237.5 145.5t298 84q-9 5 -30.5 25.5t-38.5 36.5q-65 59 -153 77.5t-177 18.5q-21 0 -46 -3.5t-52 -9t-52 -12.5t-44 -12v213q44 14 101 29.5t130 15.5q82 0 143.5 -13.5t109.5 -36.5t86 -55t74 -67q35 -37 63 -63.5t54 -44t51.5 -27.5t56.5 -16
v-163q-9 0 -29.5 -2t-45 -4.5t-46.5 -6t-34 -7.5q10 -48 64.5 -63t135.5 -15h116q20 0 27.5 -10t7.5 -20v-166zM173 1095l147 146l125 -118l127 118l146 -146l-146 -148l-127 121l-125 -121zM300 1336l147 145l145 -145l-145 -147z" />
    <glyph glyph-name="uni0689.fina" unicode="&#x689;" horiz-adv-x="882" 
d="M322 -7q-16 0 -31.5 -14.5t-26 -35t-17.5 -41.5t-7 -34q0 -27 17 -34t49 -7q20 0 40 2t36 7t25.5 14.5t9.5 23.5q0 12 -8 32.5t-20 39t-30 33t-37 14.5zM216 0h-151v230h210q137 0 191.5 10t54.5 57q0 22 -8 52t-25 75.5t-46.5 110t-74.5 156.5l200 123l148 -461
q21 -73 54 -98t100 -25h38q20 0 27.5 -10t7.5 -20v-166q0 -34 -35 -34h-32q-34 0 -66 4.5t-59.5 19.5t-52.5 44t-48 78h-7q-49 -89 -126 -117q-19 -7 -41 -13h1q19 -38 28 -81.5t9 -79.5q0 -29 -19.5 -58t-51 -51.5t-72.5 -36.5t-84 -14q-27 0 -50.5 7t-42.5 21t-29.5 36
t-10.5 52q0 20 7 50.5t20 63.5t31 66q2 4 5 9z" />
    <glyph glyph-name="uni068A.fina" unicode="&#x68a;" horiz-adv-x="882" 
d="M907 230q20 0 27.5 -10t7.5 -20v-166q0 -34 -35 -34h-32q-34 0 -66 4.5t-59.5 19.5t-52.5 44t-48 78h-7q-49 -89 -126 -117.5t-200 -28.5h-251v230h210q137 0 191.5 10t54.5 57q0 22 -8 52t-25 75.5t-46.5 110t-74.5 156.5l200 123l148 -461q21 -73 54 -98t100 -25h38z
M219 -312l148 146l145 -146l-145 -147z" />
    <glyph glyph-name="uni068B.fina" unicode="&#x68b;" horiz-adv-x="882" 
d="M907 230q20 0 27.5 -10t7.5 -20v-166q0 -34 -35 -34h-32q-34 0 -66 4.5t-59.5 19.5t-52.5 44t-48 78h-7q-49 -89 -126 -117.5t-200 -28.5h-251v230h210q137 0 191.5 10t54.5 57q0 22 -8 52t-25 75.5t-46.5 110t-74.5 156.5l200 123l148 -461q21 -73 54 -98t100 -25h38z
M642 1063q0 28 -28.5 53.5t-53.5 25.5q-29 0 -62.5 -23.5t-87.5 -82.5h226q6 13 6 27zM270 959v77h73v335h67v-276q49 67 90 97t83 30q32 0 57 -15.5t42 -39.5t25.5 -50.5t8.5 -46.5q0 -7 -2.5 -20.5t-6.5 -30.5t-8.5 -33t-10.5 -27h-418zM219 -312l148 146l145 -146
l-145 -147z" />
    <glyph glyph-name="uni068F.fina" unicode="&#x68f;" horiz-adv-x="882" 
d="M907 230q20 0 27.5 -10t7.5 -20v-166q0 -34 -35 -34h-32q-34 0 -66 4.5t-59.5 19.5t-52.5 44t-48 78h-7q-49 -89 -126 -117.5t-200 -28.5h-251v230h210q137 0 191.5 10t54.5 57q0 22 -8 52t-25 75.5t-46.5 110t-74.5 156.5l200 123l148 -461q21 -73 54 -98t100 -25h38z
M357 1481l125 -119l127 119l146 -147l-146 -145l-127 117l-125 -117l-147 145zM484 1241l145 -148l-145 -146l-148 146z" />
    <glyph glyph-name="uni0690.fina" unicode="&#x690;" horiz-adv-x="882" 
d="M907 230q20 0 27.5 -10t7.5 -20v-166q0 -34 -35 -34h-32q-34 0 -66 4.5t-59.5 19.5t-52.5 44t-48 78h-7q-49 -89 -126 -117.5t-200 -28.5h-251v230h210q137 0 191.5 10t54.5 57q0 22 -8 52t-25 75.5t-46.5 110t-74.5 156.5l200 123l148 -461q21 -73 54 -98t100 -25h38z
M352 1236l-142 143l147 146l125 -117l127 117l146 -146l-142 -143l142 -141l-146 -148l-127 121l-125 -121l-147 148zM604 1236l-122 116l-121 -116l121 -113z" />
    <glyph glyph-name="uni0692.fina" unicode="&#x692;" horiz-adv-x="819" 
d="M843 230q20 0 28 -10t8 -20v-166q0 -34 -36 -34h-36q-47 0 -97 27t-84 89q-13 -62 -51 -147t-96 -178t-133.5 -187.5t-164.5 -174.5l-178 167q153 122 247.5 218.5t145.5 172t67.5 133.5t16.5 104q0 34 -10.5 66.5t-34 69.5t-61.5 81t-93 100l220 136q15 -29 33.5 -73.5
t38 -92.5t37.5 -94.5t29 -80.5q14 -35 25.5 -55.5t30.5 -32t48 -15t77 -3.5h23zM520 1206l122 -64q-38 -68 -68 -134q-42 -92 -70 -174h-112q-28 83 -71 176q-30 64 -66 130l118 66q32 -96 75 -192q37 81 63 166q4 13 9 26z" />
    <glyph glyph-name="uni0693.fina" unicode="&#x693;" horiz-adv-x="819" 
d="M488 -248q-17 0 -32 -14.5t-26 -35t-17.5 -41.5t-6.5 -34q0 -26 16.5 -33.5t48.5 -7.5q21 0 40.5 2t35.5 7t25.5 14.5t9.5 24.5q0 12 -7.5 32.5t-20 39t-30 32.5t-36.5 14zM319 -429q-65 -76 -138 -142l-178 167q153 122 247.5 218.5t145.5 172t67.5 133.5t16.5 104
q0 34 -10.5 66.5t-34 69.5t-61.5 81t-93 100l220 136q15 -29 33.5 -73.5t38 -92.5t37.5 -94.5t29 -80.5q14 -35 25.5 -55.5t30.5 -32t48 -15t77 -3.5h23q20 0 28 -10t8 -20v-166q0 -34 -36 -34h-36q-47 0 -97 27t-84 89q-13 -62 -51 -147q-23 -50 -53 -104q41 0 70 -25
q30 -27 49.5 -64.5t28.5 -81.5t9 -79q0 -30 -19.5 -59t-51 -51t-72.5 -36.5t-84 -14.5q-27 0 -51 7.5t-42.5 21t-29 36t-10.5 51.5v1z" />
    <glyph glyph-name="uni0694.fina" unicode="&#x694;" horiz-adv-x="819" 
d="M843 230q20 0 28 -10t8 -20v-166q0 -34 -36 -34h-36q-47 0 -97 27t-84 89q-13 -62 -51 -147t-96 -178t-133.5 -187.5t-164.5 -174.5l-178 167q153 122 247.5 218.5t145.5 172t67.5 133.5t16.5 104q0 34 -10.5 66.5t-34 69.5t-61.5 81t-93 100l220 136q15 -29 33.5 -73.5
t38 -92.5t37.5 -94.5t29 -80.5q14 -35 25.5 -55.5t30.5 -32t48 -15t77 -3.5h23zM419 -618l148 146l145 -146l-145 -148z" />
    <glyph glyph-name="uni0695.fina" unicode="&#x695;" horiz-adv-x="819" 
d="M843 230q20 0 28 -10t8 -20v-166q0 -34 -36 -34h-36q-47 0 -97 27t-84 89q-13 -62 -51 -147t-96 -178t-133.5 -187.5t-164.5 -174.5l-178 167q153 122 247.5 218.5t145.5 172t67.5 133.5t16.5 104q0 34 -10.5 66.5t-34 69.5t-61.5 81t-93 100l220 136q15 -29 33.5 -73.5
t38 -92.5t37.5 -94.5t29 -80.5q14 -35 25.5 -55.5t30.5 -32t48 -15t77 -3.5h23zM512 -588l122 -63q-37 -69 -67 -135q-42 -91 -70 -174h-112q-29 84 -71 177q-30 63 -66 129l118 66q31 -96 75 -192q37 81 63 166z" />
    <glyph glyph-name="uni0696.fina" unicode="&#x696;" horiz-adv-x="832" 
d="M856 230q20 0 28 -10t8 -20v-166q0 -34 -36 -34h-36q-47 0 -97 27t-84 89q-13 -62 -51 -147t-96 -178t-133.5 -187.5t-164.5 -174.5l-178 167q153 122 247.5 218.5t145.5 172t67.5 133.5t16.5 104q0 34 -10.5 66.5t-34 69.5t-61.5 81t-93 100l220 136q15 -29 33.5 -73.5
t38 -92.5t37.5 -94.5t29 -80.5q14 -35 25.5 -55.5t30.5 -32t48 -15t77 -3.5h23zM432 -618l148 146l145 -146l-145 -148zM10 175l148 146l145 -146l-145 -147z" />
    <glyph glyph-name="uni0697.fina" unicode="&#x697;" horiz-adv-x="819" 
d="M843 230q20 0 28 -10t8 -20v-166q0 -34 -36 -34h-36q-47 0 -97 27t-84 89q-13 -62 -51 -147t-96 -178t-133.5 -187.5t-164.5 -174.5l-178 167q153 122 247.5 218.5t145.5 172t67.5 133.5t16.5 104q0 34 -10.5 66.5t-34 69.5t-61.5 81t-93 100l220 136q15 -29 33.5 -73.5
t38 -92.5t37.5 -94.5t29 -80.5q14 -35 25.5 -55.5t30.5 -32t48 -15t77 -3.5h23zM145 918l147 145l125 -117l127 117l146 -145l-146 -148l-127 119l-125 -119z" />
    <glyph glyph-name="uni0699.fina" unicode="&#x699;" horiz-adv-x="819" 
d="M843 230q20 0 28 -10t8 -20v-166q0 -34 -36 -34h-36q-47 0 -97 27t-84 89q-13 -62 -51 -147t-96 -178t-133.5 -187.5t-164.5 -174.5l-178 167q153 122 247.5 218.5t145.5 172t67.5 133.5t16.5 104q0 34 -10.5 66.5t-34 69.5t-61.5 81t-93 100l220 136q15 -29 33.5 -73.5
t38 -92.5t37.5 -94.5t29 -80.5q14 -35 25.5 -55.5t30.5 -32t48 -15t77 -3.5h23zM316 1028l-141 141l148 145l125 -118l126 118l146 -145l-137 -138l141 -139l-146 -148l-127 120l-125 -120l-147 148zM568 1028l-120 113l-115 -111l118 -111z" />
    <glyph glyph-name="uni069A.init" unicode="&#x69a;" horiz-adv-x="1696" 
d="M1486 18q-63 -11 -104 -14.5t-100 -3.5h-83q-106 0 -170 33t-82 127q-26 -50 -48.5 -82t-47.5 -48.5t-55 -23t-71 -6.5h-88q-106 0 -169.5 33t-82.5 127q-50 -100 -115 -130t-146 -30h-143q-21 0 -28.5 9t-7.5 21v166q0 34 36 34h110q125 0 172 15.5t52 56.5l16 195
l226 44l-19 -160q-2 -9 -3 -20.5t-1 -20.5q0 -64 20.5 -87t90.5 -23h46q62 0 98.5 3.5t55 12t24 22.5t7.5 34l16 225l240 44l-32 -190q-2 -9 -2.5 -20.5t-0.5 -20.5q0 -64 20.5 -87t88.5 -23h71h24.5t23 0.5t29.5 2.5t42 6q4 11 5 19.5t1 21.5q0 30 -25 104.5t-90 203.5
l207 63q37 -106 59.5 -199.5t22.5 -177.5q0 -80 -26 -137t-64 -119zM873 1008l148 145l146 -145l-146 -148zM810 -312l147 146l146 -146l-146 -147z" />
    <glyph glyph-name="uni069A.medi" unicode="&#x69a;" horiz-adv-x="1704" 
d="M1686 0q-107 0 -164.5 33t-76.5 127q-26 -50 -48.5 -82t-48 -48.5t-55 -23t-70.5 -6.5h-24q-106 0 -170 33t-82 127q-26 -50 -48.5 -82t-47.5 -48.5t-55 -23t-71 -6.5h-88q-106 0 -169.5 33t-82.5 127q-50 -100 -115 -130t-146 -30h-143q-21 0 -28.5 9t-7.5 21v166
q0 34 36 34h110q125 0 172 15.5t52 56.5l16 195l226 44l-19 -160q-2 -9 -3 -20.5t-1 -20.5q0 -64 20.5 -87t90.5 -23h46q62 0 98.5 3.5t55 12t24 22.5t7.5 34l16 225l240 44l-32 -190q-2 -9 -2.5 -20.5t-0.5 -20.5q0 -64 20.5 -87t88.5 -23q56 0 89 3.5t49.5 12t22.5 22.5
t7 34l17 250l238 45l-30 -216q-3 -9 -4 -20.5t-1 -20.5q0 -32 3 -53.5t12.5 -33.5t30 -17.5t53.5 -5.5h36q20 0 27.5 -10t7.5 -20v-166q0 -34 -35 -34h-43zM851 998l148 146l146 -146l-146 -147zM830 -312l147 146l146 -146l-146 -147z" />
    <glyph glyph-name="uni069A.fina" unicode="&#x69a;" horiz-adv-x="2251" 
d="M2231 0q-106 0 -163.5 33t-76.5 127q-26 -50 -48.5 -82t-48 -48.5t-55 -23t-70.5 -6.5h-56q-107 0 -170 33t-82 127q-26 -50 -48.5 -82t-48 -48.5t-55 -23t-70.5 -6.5h-56q-41 0 -79.5 26t-54.5 79q-11 -139 -61.5 -237.5t-126.5 -161t-171 -92.5t-197 -30
q-112 0 -203.5 31t-156 87t-99 135t-34.5 178q0 78 22.5 164t66.5 161l185 -80q-54 -112 -54 -221q0 -54 23.5 -96t64.5 -70t95 -42t115 -14q100 0 167 20.5t108 55t58.5 80t17.5 94.5q0 43 -9 86t-25 84t-35.5 78.5t-37.5 67.5l217 100q34 -88 56.5 -138t42 -76.5t42 -32.5
t57.5 -6h28q62 0 98 3.5t55 12t24.5 22.5t7.5 34l17 250l238 45l-31 -216q-2 -9 -3 -20.5t-1 -20.5q0 -64 20.5 -87t89.5 -23h16q61 0 97 3.5t55 12t24.5 22.5t7.5 34l17 250l239 45l-32 -216q-2 -9 -3 -20.5t-1 -20.5q0 -32 2.5 -53.5t12.5 -33.5t30.5 -17.5t53.5 -5.5h38
q20 0 27 -10t7 -20v-166q0 -34 -34 -34h-46zM1367 1008l147 145l146 -145l-146 -148zM1339 -312l148 146l146 -146l-146 -147z" />
    <glyph glyph-name="uni069B.init" unicode="&#x69b;" horiz-adv-x="1696" 
d="M1486 18q-63 -11 -104 -14.5t-100 -3.5h-83q-106 0 -170 33t-82 127q-26 -50 -48.5 -82t-47.5 -48.5t-55 -23t-71 -6.5h-88q-106 0 -169.5 33t-82.5 127q-50 -100 -115 -130t-146 -30h-143q-21 0 -28.5 9t-7.5 21v166q0 34 36 34h110q125 0 172 15.5t52 56.5l16 195
l226 44l-19 -160q-2 -9 -3 -20.5t-1 -20.5q0 -64 20.5 -87t90.5 -23h46q62 0 98.5 3.5t55 12t24 22.5t7.5 34l16 225l240 44l-32 -190q-2 -9 -2.5 -20.5t-0.5 -20.5q0 -64 20.5 -87t88.5 -23h71h24.5t23 0.5t29.5 2.5t42 6q4 11 5 19.5t1 21.5q0 30 -25 104.5t-90 203.5
l207 63q37 -106 59.5 -199.5t22.5 -177.5q0 -80 -26 -137t-64 -119zM1251 -347l-148 -146l-125 118l-127 -118l-145 146l145 147l127 -119l125 119zM1124 -580l-148 -146l-145 146l145 147z" />
    <glyph glyph-name="uni069B.medi" unicode="&#x69b;" horiz-adv-x="1704" 
d="M1686 0q-107 0 -164.5 33t-76.5 127q-26 -50 -48.5 -82t-48 -48.5t-55 -23t-70.5 -6.5h-24q-106 0 -170 33t-82 127q-26 -50 -48.5 -82t-47.5 -48.5t-55 -23t-71 -6.5h-88q-106 0 -169.5 33t-82.5 127q-50 -100 -115 -130t-146 -30h-143q-21 0 -28.5 9t-7.5 21v166
q0 34 36 34h110q125 0 172 15.5t52 56.5l16 195l226 44l-19 -160q-2 -9 -3 -20.5t-1 -20.5q0 -64 20.5 -87t90.5 -23h46q62 0 98.5 3.5t55 12t24 22.5t7.5 34l16 225l240 44l-32 -190q-2 -9 -2.5 -20.5t-0.5 -20.5q0 -64 20.5 -87t88.5 -23q56 0 89 3.5t49.5 12t22.5 22.5
t7 34l17 250l238 45l-30 -216q-3 -9 -4 -20.5t-1 -20.5q0 -32 3 -53.5t12.5 -33.5t30 -17.5t53.5 -5.5h36q20 0 27.5 -10t7.5 -20v-166q0 -34 -35 -34h-43zM1243 -347l-147 -146l-125 118l-127 -118l-146 146l146 147l127 -119l125 119zM1117 -580l-148 -146l-146 146
l146 147z" />
    <glyph glyph-name="uni069B.fina" unicode="&#x69b;" horiz-adv-x="2252" 
d="M2232 0q-106 0 -163.5 33t-76.5 127q-26 -50 -48.5 -82t-48 -48.5t-55 -23t-70.5 -6.5h-56q-107 0 -170 33t-82 127q-26 -50 -48.5 -82t-48 -48.5t-55 -23t-70.5 -6.5h-56q-41 0 -79.5 26t-54.5 79q-11 -139 -61.5 -237.5t-126.5 -161t-171 -92.5t-197 -30
q-112 0 -203.5 31t-156 87t-99 135t-34.5 178q0 78 22.5 164t66.5 161l185 -80q-54 -112 -54 -221q0 -54 23.5 -96t64.5 -70t95 -42t115 -14q100 0 167 20.5t108 55t58.5 80t17.5 94.5q0 43 -9 86t-25 84t-35.5 78.5t-37.5 67.5l217 100q34 -88 56.5 -138t42 -76.5t42 -32.5
t57.5 -6h28q62 0 98 3.5t55 12t24.5 22.5t7.5 34l17 250l238 45l-31 -216q-2 -9 -3 -20.5t-1 -20.5q0 -64 20.5 -87t89.5 -23h16q61 0 97 3.5t55 12t24.5 22.5t7.5 34l17 250l239 45l-32 -216q-2 -9 -3 -20.5t-1 -20.5q0 -32 2.5 -53.5t12.5 -33.5t30.5 -17.5t53.5 -5.5h38
q20 0 27 -10t7 -20v-166q0 -34 -34 -34h-46zM1863 -347l-147 -146l-125 118l-127 -118l-146 146l146 147l127 -119l125 119zM1737 -580l-148 -146l-146 146l146 147z" />
    <glyph glyph-name="uni069C.init" unicode="&#x69c;" horiz-adv-x="1696" 
d="M1486 18q-63 -11 -104 -14.5t-100 -3.5h-83q-106 0 -170 33t-82 127q-26 -50 -48.5 -82t-47.5 -48.5t-55 -23t-71 -6.5h-88q-106 0 -169.5 33t-82.5 127q-50 -100 -115 -130t-146 -30h-143q-21 0 -28.5 9t-7.5 21v166q0 34 36 34h110q125 0 172 15.5t52 56.5l16 195
l226 44l-19 -160q-2 -9 -3 -20.5t-1 -20.5q0 -64 20.5 -87t90.5 -23h46q62 0 98.5 3.5t55 12t24 22.5t7.5 34l16 225l240 44l-32 -190q-2 -9 -2.5 -20.5t-0.5 -20.5q0 -64 20.5 -87t88.5 -23h71h24.5t23 0.5t29.5 2.5t42 6q4 11 5 19.5t1 21.5q0 30 -25 104.5t-90 203.5
l207 63q37 -106 59.5 -199.5t22.5 -177.5q0 -80 -26 -137t-64 -119zM728 1004l148 146l125 -118l127 118l145 -146l-145 -148l-127 120l-125 -120zM855 1244l148 146l145 -146l-145 -147zM1251 -347l-148 -146l-125 118l-127 -118l-145 146l145 147l127 -119l125 119z
M1124 -580l-148 -146l-145 146l145 147z" />
    <glyph glyph-name="uni069C.medi" unicode="&#x69c;" horiz-adv-x="1704" 
d="M1686 0q-107 0 -164.5 33t-76.5 127q-26 -50 -48.5 -82t-48 -48.5t-55 -23t-70.5 -6.5h-24q-106 0 -170 33t-82 127q-26 -50 -48.5 -82t-47.5 -48.5t-55 -23t-71 -6.5h-88q-106 0 -169.5 33t-82.5 127q-50 -100 -115 -130t-146 -30h-143q-21 0 -28.5 9t-7.5 21v166
q0 34 36 34h110q125 0 172 15.5t52 56.5l16 195l226 44l-19 -160q-2 -9 -3 -20.5t-1 -20.5q0 -64 20.5 -87t90.5 -23h46q62 0 98.5 3.5t55 12t24 22.5t7.5 34l16 225l240 44l-32 -190q-2 -9 -2.5 -20.5t-0.5 -20.5q0 -64 20.5 -87t88.5 -23q56 0 89 3.5t49.5 12t22.5 22.5
t7 34l17 250l238 45l-30 -216q-3 -9 -4 -20.5t-1 -20.5q0 -32 3 -53.5t12.5 -33.5t30 -17.5t53.5 -5.5h36q20 0 27.5 -10t7.5 -20v-166q0 -34 -35 -34h-43zM752 1004l148 146l125 -118l126 118l146 -146l-146 -148l-126 120l-125 -120zM879 1244l147 146l146 -146l-146 -147
zM1243 -347l-147 -146l-125 118l-127 -118l-146 146l146 147l127 -119l125 119zM1117 -580l-148 -146l-146 146l146 147z" />
    <glyph glyph-name="uni069C.fina" unicode="&#x69c;" horiz-adv-x="2252" 
d="M2232 0q-106 0 -163.5 33t-76.5 127q-26 -50 -48.5 -82t-48 -48.5t-55 -23t-70.5 -6.5h-56q-107 0 -170 33t-82 127q-26 -50 -48.5 -82t-48 -48.5t-55 -23t-70.5 -6.5h-56q-41 0 -79.5 26t-54.5 79q-11 -139 -61.5 -237.5t-126.5 -161t-171 -92.5t-197 -30
q-112 0 -203.5 31t-156 87t-99 135t-34.5 178q0 78 22.5 164t66.5 161l185 -80q-54 -112 -54 -221q0 -54 23.5 -96t64.5 -70t95 -42t115 -14q100 0 167 20.5t108 55t58.5 80t17.5 94.5q0 43 -9 86t-25 84t-35.5 78.5t-37.5 67.5l217 100q34 -88 56.5 -138t42 -76.5t42 -32.5
t57.5 -6h28q62 0 98 3.5t55 12t24.5 22.5t7.5 34l17 250l238 45l-31 -216q-2 -9 -3 -20.5t-1 -20.5q0 -64 20.5 -87t89.5 -23h16q61 0 97 3.5t55 12t24.5 22.5t7.5 34l17 250l239 45l-32 -216q-2 -9 -3 -20.5t-1 -20.5q0 -32 2.5 -53.5t12.5 -33.5t30.5 -17.5t53.5 -5.5h38
q20 0 27 -10t7 -20v-166q0 -34 -34 -34h-46zM1278 1004l148 146l125 -118l126 118l146 -146l-146 -148l-126 120l-125 -120zM1405 1244l148 146l145 -146l-145 -147zM1773 -347l-147 -146l-125 118l-127 -118l-146 146l146 147l127 -119l125 119zM1647 -580l-148 -146
l-146 146l146 147z" />
    <glyph glyph-name="uni069D.init" unicode="&#x69d;" horiz-adv-x="1772" 
d="M1462 242q5 16 9 32.5t4 38.5q0 25 -22.5 61.5t-61 69.5t-86.5 58t-99 25q-37 0 -68 -9t-61.5 -26.5t-64 -45.5t-74.5 -67q-21 -19 -45 -41.5t-48 -44t-46 -39t-37 -24.5h98q72 0 160.5 0.5t174.5 1.5t158 4t109 6zM513 0q-107 0 -170.5 33t-82.5 127q-26 -50 -48.5 -82
t-47.5 -48.5t-55 -23t-71 -6.5h-57q-21 0 -28.5 9t-7.5 21v166q0 34 36 34h41q53 0 86 3.5t50 12t23 22.5t8 34l17 205l239 45l-32 -171q-2 -9 -2.5 -20.5t-0.5 -20.5q0 -64 20.5 -87t89.5 -23h14q59 33 131.5 99t141.5 137q69 73 128.5 125.5t115.5 86.5t112.5 50t115.5 16
q64 0 130 -36.5t120 -91.5t88.5 -119t34.5 -122q0 -21 -6 -61t-16.5 -89t-25.5 -104t-32 -108q-64 -4 -120 -6.5t-116.5 -3.5t-131 -2t-166.5 -1h-525zM1281 -347l-147 -146l-125 118l-127 -118l-145 146l145 147l127 -119l125 119z" />
    <glyph glyph-name="uni069D.medi" unicode="&#x69d;" horiz-adv-x="1881" 
d="M1462 242q5 16 9 32.5t4 38.5q0 25 -22.5 61.5t-61 69.5t-86.5 58t-99 25q-37 0 -68 -9t-61.5 -26.5t-64 -45.5t-74.5 -67q-21 -19 -45 -41.5t-48 -44t-46 -39t-37 -24.5h98q72 0 160.5 0.5t174.5 1.5t158 4t109 6zM513 0q-107 0 -170.5 33t-82.5 127q-26 -50 -48.5 -82
t-47.5 -48.5t-55 -23t-71 -6.5h-57q-21 0 -28.5 9t-7.5 21v166q0 34 36 34h41q53 0 86 3.5t50 12t23 22.5t8 34l17 205l239 45l-32 -171q-2 -9 -2.5 -20.5t-0.5 -20.5q0 -64 20.5 -87t89.5 -23h14q59 33 132 99t141 137q69 73 128.5 126.5t115.5 86.5t111.5 49t116.5 16
q64 0 129 -34.5t118 -88t88 -119.5t38 -127q2 -39 8.5 -66t25 -45t51.5 -26t87 -8h82q20 0 27.5 -10t7.5 -20v-166q0 -34 -35 -34h-47q-39 0 -78 11.5t-71.5 34.5t-54.5 57.5t-27 79.5q-13 -43 -27 -85t-29 -85q-64 -4 -120 -6.5t-116.5 -3.5t-131 -2t-166.5 -1h-525z
M1281 -347l-147 -146l-125 118l-127 -118l-145 146l145 147l127 -119l125 119z" />
    <glyph glyph-name="uni069D.fina" unicode="&#x69d;" horiz-adv-x="2644" 
d="M2222 242q5 16 9.5 32.5t4.5 38.5q0 25 -23 61.5t-61 69.5t-86.5 58t-98.5 25q-37 0 -68 -9t-62 -26.5t-64.5 -45.5t-74.5 -67q-21 -19 -45 -41.5t-48 -44t-45.5 -39t-37.5 -24.5h342q101 0 192 3.5t166 8.5zM2412 375q2 -39 8.5 -66t25 -45t51.5 -26t87 -8h84
q20 0 28 -10t8 -20v-166q0 -34 -36 -34h-49q-39 0 -78 11.5t-71.5 34.5t-54 57.5t-27.5 79.5q-13 -43 -27 -85t-29 -85q-64 -4 -129 -6.5t-126.5 -3.5t-116.5 -2t-96 -1h-616q-75 0 -116 25t-80 80q-13 -139 -64 -237.5t-127 -162t-171 -92.5t-197 -29q-112 0 -203.5 31
t-156 87t-99 135t-34.5 178q0 78 22.5 164t66.5 161l185 -80q-54 -112 -54 -221q0 -54 23.5 -96t64.5 -70t95 -42t115 -14q100 0 167 20.5t108 55t58.5 80t17.5 94.5q0 43 -9 86t-25 84t-35.5 78.5t-37.5 67.5l217 100q34 -88 59 -138t49 -76.5t49.5 -32.5t61.5 -6h97
q28 16 62.5 42.5t70 57t70.5 66t69 70.5q69 73 129 126.5t116 86.5t111 49t116 16q64 0 129 -34.5t118.5 -88t88 -119.5t37.5 -127zM2097 -347l-147 -146l-125 118l-127 -118l-146 146l146 147l127 -119l125 119z" />
    <glyph glyph-name="uni069E.init" unicode="&#x69e;" horiz-adv-x="1772" 
d="M1462 242q5 16 9 32.5t4 38.5q0 25 -22.5 61.5t-61 69.5t-86.5 58t-99 25q-37 0 -68 -9t-61.5 -26.5t-64 -45.5t-74.5 -67q-21 -19 -45 -41.5t-48 -44t-46 -39t-37 -24.5h98q72 0 160.5 0.5t174.5 1.5t158 4t109 6zM513 0q-107 0 -170.5 33t-82.5 127q-26 -50 -48.5 -82
t-47.5 -48.5t-55 -23t-71 -6.5h-57q-21 0 -28.5 9t-7.5 21v166q0 34 36 34h41q53 0 86 3.5t50 12t23 22.5t8 34l17 205l239 45l-32 -171q-2 -9 -2.5 -20.5t-0.5 -20.5q0 -64 20.5 -87t89.5 -23h14q59 33 131.5 99t141.5 137q69 73 128.5 125.5t115.5 86.5t112.5 50t115.5 16
q64 0 130 -36.5t120 -91.5t88.5 -119t34.5 -122q0 -21 -6 -61t-16.5 -89t-25.5 -104t-32 -108q-64 -4 -120 -6.5t-116.5 -3.5t-131 -2t-166.5 -1h-525zM896 1113l147 146l126 -117l126 117l146 -146l-146 -147l-126 119l-126 -119zM1023 1354l147 146l145 -146l-145 -148z
" />
    <glyph glyph-name="uni069E.medi" unicode="&#x69e;" horiz-adv-x="1881" 
d="M1462 242q5 16 9 32.5t4 38.5q0 25 -22.5 61.5t-61 69.5t-86.5 58t-99 25q-37 0 -68 -9t-61.5 -26.5t-64 -45.5t-74.5 -67q-21 -19 -45 -41.5t-48 -44t-46 -39t-37 -24.5h98q72 0 160.5 0.5t174.5 1.5t158 4t109 6zM513 0q-107 0 -170.5 33t-82.5 127q-26 -50 -48.5 -82
t-47.5 -48.5t-55 -23t-71 -6.5h-57q-21 0 -28.5 9t-7.5 21v166q0 34 36 34h41q53 0 86 3.5t50 12t23 22.5t8 34l17 205l239 45l-32 -171q-2 -9 -2.5 -20.5t-0.5 -20.5q0 -64 20.5 -87t89.5 -23h14q59 33 132 99t141 137q69 73 128.5 126.5t115.5 86.5t111.5 49t116.5 16
q64 0 129 -34.5t118 -88t88 -119.5t38 -127q2 -39 8.5 -66t25 -45t51.5 -26t87 -8h82q20 0 27.5 -10t7.5 -20v-166q0 -34 -35 -34h-47q-39 0 -78 11.5t-71.5 34.5t-54.5 57.5t-27 79.5q-13 -43 -27 -85t-29 -85q-64 -4 -120 -6.5t-116.5 -3.5t-131 -2t-166.5 -1h-525z
M893 1104l147 146l126 -118l126 118l146 -146l-146 -147l-126 119l-126 -119zM1020 1345l148 145l144 -145l-144 -148z" />
    <glyph glyph-name="uni069E.fina" unicode="&#x69e;" horiz-adv-x="2644" 
d="M2222 242q5 16 9.5 32.5t4.5 38.5q0 25 -23 61.5t-61 69.5t-86.5 58t-98.5 25q-37 0 -68 -9t-62 -26.5t-64.5 -45.5t-74.5 -67q-21 -19 -45 -41.5t-48 -44t-45.5 -39t-37.5 -24.5h342q101 0 192 3.5t166 8.5zM2412 375q2 -39 8.5 -66t25 -45t51.5 -26t87 -8h84
q20 0 28 -10t8 -20v-166q0 -34 -36 -34h-49q-39 0 -78 11.5t-71.5 34.5t-54 57.5t-27.5 79.5q-13 -43 -27 -85t-29 -85q-64 -4 -129 -6.5t-126.5 -3.5t-116.5 -2t-96 -1h-616q-75 0 -116 25t-80 80q-13 -139 -64 -237.5t-127 -162t-171 -92.5t-197 -29q-112 0 -203.5 31
t-156 87t-99 135t-34.5 178q0 78 22.5 164t66.5 161l185 -80q-54 -112 -54 -221q0 -54 23.5 -96t64.5 -70t95 -42t115 -14q100 0 167 20.5t108 55t58.5 80t17.5 94.5q0 43 -9 86t-25 84t-35.5 78.5t-37.5 67.5l217 100q34 -88 59 -138t49 -76.5t49.5 -32.5t61.5 -6h97
q28 16 62.5 42.5t70 57t70.5 66t69 70.5q69 73 129 126.5t116 86.5t111 49t116 16q64 0 129 -34.5t118.5 -88t88 -119.5t37.5 -127zM1654 1113l147 146l126 -117l126 117l146 -146l-146 -147l-126 119l-126 -119zM1781 1354l148 146l145 -146l-145 -148z" />
    <glyph glyph-name="uni069F.init" unicode="&#x69f;" horiz-adv-x="1448" 
d="M-19 0q-21 0 -28.5 9t-7.5 21v166q0 34 36 34h205v1005h215v-841q76 78 145 142t134.5 111t130.5 72t134 25q67 0 136 -36.5t123.5 -91.5t89 -119t34.5 -122q0 -37 -8 -85t-19.5 -96t-25.5 -96t-27 -85q-60 -4 -111.5 -6.5t-102.5 -3.5t-103.5 -2t-112.5 -1h-837z
M816 230q92 0 169.5 3.5t152.5 8.5q12 29 12 71q0 23 -22 59.5t-58.5 70.5t-86.5 59t-101 25q-56 0 -106.5 -17t-106.5 -53.5t-121 -92.5t-151 -134h419zM593 1099l146 145l126 -117l127 117l146 -145l-146 -148l-127 119l-126 -119zM719 1339l148 146l145 -146l-145 -147z
" />
    <glyph glyph-name="uni069F.medi" unicode="&#x69f;" horiz-adv-x="1553" 
d="M835 230q91 0 159.5 3.5t143.5 8.5q12 29 12 71q0 23 -22 59.5t-58.5 70.5t-86.5 59t-101 25q-56 0 -106.5 -17t-106.5 -53.5t-121 -92.5t-151 -134h438zM1248 13q-60 -4 -110 -6.5t-97 -3.5t-97 -2t-109 -1h-854q-21 0 -28.5 9t-7.5 21v166q0 34 36 34h205v1005h215
v-841q76 78 145 142t134.5 111t130.5 72t134 25q67 0 136 -36.5t123.5 -91.5t89 -119t34.5 -122v-41q0 -47 41 -75.5t125 -28.5h84q21 0 28 -10t7 -20v-166q0 -34 -35 -34h-49q-39 0 -77 12.5t-71 34.5t-55.5 56.5t-29.5 79.5zM595 1106l146 146l126 -118l127 118l145 -146
l-145 -148l-127 120l-126 -120zM721 1347l148 145l145 -145l-145 -148z" />
    <glyph glyph-name="uni069F.fina" unicode="&#x69f;" horiz-adv-x="1667" 
d="M1377 13q-60 -4 -111.5 -6.5t-102.5 -3.5t-103 -2t-113 -1h-680q-58 0 -132.5 4.5t-134.5 16.5v225q56 -9 123 -12.5t133 -3.5h59v1005h215v-841q77 78 145.5 142t134.5 111t131 72t134 25q67 0 136 -36.5t123 -91.5t88.5 -119t34.5 -122v-41q0 -47 41.5 -75.5
t124.5 -28.5h70q20 0 27 -10t7 -20v-166q0 -34 -34 -34h-34q-39 0 -77.5 12.5t-70 34.5t-53 56.5t-27.5 79.5zM949 230q92 0 168 3.5t150 8.5q13 29 13 71q0 23 -22.5 59.5t-59 70.5t-86 59t-101.5 25q-55 0 -105.5 -17t-107 -53.5t-121.5 -92.5t-150 -134h422zM684 1110
l147 145l126 -117l126 117l146 -145l-146 -148l-126 119l-126 -119zM811 1350l147 146l145 -146l-145 -147z" />
    <glyph glyph-name="uni06A0.init" unicode="&#x6a0;" horiz-adv-x="942" 
d="M-19 0q-21 0 -28.5 9t-7.5 21v166q0 34 36 34h277q-24 16 -39.5 52.5t-15.5 73.5q0 79 36 155.5t93.5 137t129.5 97.5t143 37q38 0 77 -7t59 -16v-232q-31 13 -71 22t-85 9q-43 0 -83 -10.5t-70.5 -30.5t-49.5 -47t-19 -58q0 -34 17 -67t44.5 -59t66 -41.5t83.5 -15.5
h248v-230h-841zM259 1091l147 146l126 -117l126 117l146 -146l-146 -147l-126 119l-126 -119zM386 1332l148 146l144 -146l-144 -148z" />
    <glyph glyph-name="uni06A0.medi" unicode="&#x6a0;" horiz-adv-x="987" 
d="M705 509q0 11 -9.5 27t-29.5 30t-48.5 24t-69.5 10q-75 0 -127 -26t-90 -67q66 -30 119.5 -71t89.5 -82q165 90 165 155zM-19 0q-21 0 -28.5 9t-7.5 21v166q0 34 36 34h143q81 0 142.5 8t120.5 42q-31 39 -90 82.5t-130 79.5q4 21 12 56.5t18.5 72t21.5 67t23 41.5
q59 60 143 95.5t185 35.5q76 0 131.5 -21.5t92 -56t53 -78.5t16.5 -91q0 -15 -6 -45.5t-27 -72.5t-63 -92.5t-115 -106.5q15 -7 35.5 -11.5t44.5 -4.5h280q21 0 28 -10t7 -20v-166q0 -34 -35 -34h-358q-38 0 -89 19.5t-90 75.5q-39 -22 -76.5 -40t-79 -30t-92.5 -18.5
t-116 -6.5h-130zM219 1091l147 146l126 -117l126 117l146 -146l-146 -147l-126 119l-126 -119zM346 1332l147 146l145 -146l-145 -148z" />
    <glyph glyph-name="uni06A0.fina" unicode="&#x6a0;" horiz-adv-x="948" 
d="M664 563q0 14 -10 30t-29.5 29.5t-48.5 23t-69 9.5q-78 0 -135 -28t-81 -66q54 -25 107.5 -68t101.5 -84q89 48 126.5 85.5t37.5 68.5zM0 -287q0 118 36.5 209t89.5 164t115.5 128t112.5 98q-11 18 -36 43.5t-56.5 52.5t-67 50t-67.5 39q1 16 10 51.5t19 73t22 69
t23 42.5q50 54 140 92.5t189 38.5q79 0 133.5 -21.5t90 -57t52.5 -79.5t17 -88q0 -18 -7.5 -50t-30 -74t-64.5 -91.5t-109 -101.5q18 -27 40.5 -42t47 -21.5t49.5 -7t47 -0.5h176q21 0 28.5 -10t7.5 -20v-166q0 -34 -36 -34h-278q-78 0 -136 32t-110 121
q-56 -35 -104.5 -75.5t-84 -87t-56 -101.5t-20.5 -119q0 -59 23.5 -112t70 -93.5t113.5 -64.5t157 -24q97 0 172 19.5t136 50.5l96 -173q-111 -65 -222 -92t-207 -27q-104 0 -199 29.5t-167 88.5t-114 144t-42 197zM251 1091l147 146l126 -117l126 117l146 -146l-146 -147
l-126 119l-126 -119zM378 1332l148 146l145 -146l-145 -148z" />
    <glyph glyph-name="uni06A1.init" unicode="&#x6a1;" horiz-adv-x="939" 
d="M-19 0q-21 0 -28.5 9t-7.5 21v166q0 34 36 34h500q43 0 98 0.5t80 8.5q8 22 11 62.5t3 62.5q-17 -10 -44 -20t-58 -18.5t-62.5 -13t-59.5 -4.5q-79 0 -126.5 18.5t-73.5 47.5t-35 65.5t-9 71.5q0 57 26 125.5t71.5 128t110 100t141.5 40.5q62 0 112 -44t81.5 -114
t48 -156.5t16.5 -172.5q0 -123 -26 -232t-61 -177q-68 -4 -187 -6.5t-300 -2.5h-257zM346 550q0 -41 44 -57.5t128 -16.5q16 0 38.5 2.5t44 7.5t37.5 10.5t21 10.5q-3 34 -18 68.5t-37.5 62.5t-50.5 45.5t-58 17.5q-37 0 -65 -17.5t-46.5 -41.5t-28 -50t-9.5 -42z" />
    <glyph glyph-name="uni06A1.medi" unicode="&#x6a1;" horiz-adv-x="955" 
d="M342 330q0 -100 212 -100h21q20 5 33.5 21t24 34.5t15 37.5t4.5 30q0 62 -31.5 106.5t-68.5 44.5q-44 0 -82 -17t-66 -43t-45 -57t-17 -57zM-19 0q-21 0 -28.5 9t-7.5 21v166q0 34 36 34h244q-15 18 -22.5 44.5t-7.5 46.5q0 71 35.5 143t94 129.5t134 94t154.5 36.5
q53 0 90.5 -32.5t63 -79t37.5 -99t12 -93.5q0 -46 -19.5 -97t-52.5 -93h235q20 0 28 -10t8 -20v-166q0 -34 -36 -34h-56q-118 0 -202.5 8t-163.5 24q-108 -19 -246 -24.5t-273 -7.5h-57z" />
    <glyph glyph-name="uni06A1.fina" unicode="&#x6a1;" horiz-adv-x="1836" 
d="M1097 228q-15 18 -22.5 44.5t-7.5 46.5q0 71 35.5 143t94 130t134.5 94t154 36q53 0 91 -32.5t63 -79.5t37 -99t12 -93q0 -46 -19.5 -96t-52.5 -92h244q20 0 28 -10t8 -20v-166q0 -34 -36 -34h-56q-118 0 -209 12.5t-169 26.5q-77 -16 -169.5 -28.5t-188.5 -19
t-191 -10.5t-176 -4q-358 0 -529.5 75t-171.5 250q0 51 19.5 125.5t47.5 143.5l163 29q-25 -61 -38.5 -117t-13.5 -82q0 -56 28.5 -93t93.5 -59.5t172 -32t263 -9.5q71 0 166.5 5t195.5 16zM1214 328q0 -100 212 -100h22q19 5 32.5 21t24 34.5t15 37.5t4.5 30
q0 62 -31.5 106.5t-68.5 44.5q-43 0 -81 -17t-66.5 -43t-45.5 -57t-17 -57z" />
    <glyph glyph-name="uni06A2.init" unicode="&#x6a2;" horiz-adv-x="939" 
d="M-19 0q-21 0 -28.5 9t-7.5 21v166q0 34 36 34h500q43 0 98 0.5t80 8.5q8 22 11 62.5t3 62.5q-17 -10 -44 -20t-58 -18.5t-62.5 -13t-59.5 -4.5q-79 0 -126.5 18.5t-73.5 47.5t-35 65.5t-9 71.5q0 57 26 125.5t71.5 128t110 100t141.5 40.5q62 0 112 -44t81.5 -114
t48 -156.5t16.5 -172.5q0 -123 -26 -232t-61 -177q-68 -4 -187 -6.5t-300 -2.5h-257zM346 550q0 -41 44 -57.5t128 -16.5q16 0 38.5 2.5t44 7.5t37.5 10.5t21 10.5q-3 34 -18 68.5t-37.5 62.5t-50.5 45.5t-58 17.5q-37 0 -65 -17.5t-46.5 -41.5t-28 -50t-9.5 -42zM327 -312
l147 146l146 -146l-146 -147z" />
    <glyph glyph-name="uni06A2.medi" unicode="&#x6a2;" horiz-adv-x="955" 
d="M342 330q0 -100 212 -100h21q20 5 33.5 21t24 34.5t15 37.5t4.5 30q0 62 -31.5 106.5t-68.5 44.5q-44 0 -82 -17t-66 -43t-45 -57t-17 -57zM-19 0q-21 0 -28.5 9t-7.5 21v166q0 34 36 34h244q-15 18 -22.5 44.5t-7.5 46.5q0 71 35.5 143t94 129.5t134 94t154.5 36.5
q53 0 90.5 -32.5t63 -79t37.5 -99t12 -93.5q0 -46 -19.5 -97t-52.5 -93h235q20 0 28 -10t8 -20v-166q0 -34 -36 -34h-56q-118 0 -202.5 8t-163.5 24q-108 -19 -246 -24.5t-273 -7.5h-57zM339 -312l147 146l146 -146l-146 -147z" />
    <glyph glyph-name="uni06A2.fina" unicode="&#x6a2;" horiz-adv-x="1836" 
d="M1097 228q-15 18 -22.5 44.5t-7.5 46.5q0 71 35.5 143t94 130t134.5 94t154 36q53 0 91 -32.5t63 -79.5t37 -99t12 -93q0 -46 -19.5 -96t-52.5 -92h244q20 0 28 -10t8 -20v-166q0 -34 -36 -34h-56q-118 0 -209 12.5t-169 26.5q-77 -16 -169.5 -28.5t-188.5 -19
t-191 -10.5t-176 -4q-358 0 -529.5 75t-171.5 250q0 51 19.5 125.5t47.5 143.5l163 29q-25 -61 -38.5 -117t-13.5 -82q0 -56 28.5 -93t93.5 -59.5t172 -32t263 -9.5q71 0 166.5 5t195.5 16zM1214 328q0 -100 212 -100h22q19 5 32.5 21t24 34.5t15 37.5t4.5 30
q0 62 -31.5 106.5t-68.5 44.5q-43 0 -81 -17t-66.5 -43t-45.5 -57t-17 -57zM1222 -312l147 146l146 -146l-146 -147z" />
    <glyph glyph-name="uni06A3.init" unicode="&#x6a3;" horiz-adv-x="939" 
d="M331 1168l148 146l145 -146l-145 -148zM-19 0q-21 0 -28.5 9t-7.5 21v166q0 34 36 34h500q43 0 98 0.5t80 8.5q8 22 11 62.5t3 62.5q-17 -10 -44 -20t-58 -18.5t-62.5 -13t-59.5 -4.5q-79 0 -126.5 18.5t-73.5 47.5t-35 65.5t-9 71.5q0 57 26 125.5t71.5 128t110 100
t141.5 40.5q62 0 112 -44t81.5 -114t48 -156.5t16.5 -172.5q0 -123 -26 -232t-61 -177q-68 -4 -187 -6.5t-300 -2.5h-257zM346 550q0 -41 44 -57.5t128 -16.5q16 0 38.5 2.5t44 7.5t37.5 10.5t21 10.5q-3 34 -18 68.5t-37.5 62.5t-50.5 45.5t-58 17.5q-37 0 -65 -17.5
t-46.5 -41.5t-28 -50t-9.5 -42zM309 -312l147 146l146 -146l-146 -147z" />
    <glyph glyph-name="uni06A3.medi" unicode="&#x6a3;" horiz-adv-x="955" 
d="M372 1000l148 145l146 -145l-146 -147zM342 330q0 -100 212 -100h21q20 5 33.5 21t24 34.5t15 37.5t4.5 30q0 62 -31.5 106.5t-68.5 44.5q-44 0 -82 -17t-66 -43t-45 -57t-17 -57zM-19 0q-21 0 -28.5 9t-7.5 21v166q0 34 36 34h244q-15 18 -22.5 44.5t-7.5 46.5
q0 71 35.5 143t94 129.5t134 94t154.5 36.5q53 0 90.5 -32.5t63 -79t37.5 -99t12 -93.5q0 -46 -19.5 -97t-52.5 -93h235q20 0 28 -10t8 -20v-166q0 -34 -36 -34h-56q-118 0 -202.5 8t-163.5 24q-108 -19 -246 -24.5t-273 -7.5h-57zM372 -312l148 146l146 -146l-146 -147z
" />
    <glyph glyph-name="uni06A3.fina" unicode="&#x6a3;" horiz-adv-x="1836" 
d="M1097 228q-15 18 -22.5 44.5t-7.5 46.5q0 71 35.5 143t94 130t134.5 94t154 36q53 0 91 -32.5t63 -79.5t37 -99t12 -93q0 -46 -19.5 -96t-52.5 -92h244q20 0 28 -10t8 -20v-166q0 -34 -36 -34h-56q-118 0 -209 12.5t-169 26.5q-77 -16 -169.5 -28.5t-188.5 -19
t-191 -10.5t-176 -4q-358 0 -529.5 75t-171.5 250q0 51 19.5 125.5t47.5 143.5l163 29q-25 -61 -38.5 -117t-13.5 -82q0 -56 28.5 -93t93.5 -59.5t172 -32t263 -9.5q71 0 166.5 5t195.5 16zM1214 328q0 -100 212 -100h22q19 5 32.5 21t24 34.5t15 37.5t4.5 30
q0 62 -31.5 106.5t-68.5 44.5q-43 0 -81 -17t-66.5 -43t-45.5 -57t-17 -57zM1230 998l147 145l145 -145l-145 -147zM639 -312l147 146l146 -146l-146 -147z" />
    <glyph glyph-name="uni06A5.init" unicode="&#x6a5;" horiz-adv-x="939" 
d="M-19 0q-21 0 -28.5 9t-7.5 21v166q0 34 36 34h500q43 0 98 0.5t80 8.5q8 22 11 62.5t3 62.5q-17 -10 -44 -20t-58 -18.5t-62.5 -13t-59.5 -4.5q-79 0 -126.5 18.5t-73.5 47.5t-35 65.5t-9 71.5q0 57 26 125.5t71.5 128t110 100t141.5 40.5q62 0 112 -44t81.5 -114
t48 -156.5t16.5 -172.5q0 -123 -26 -232t-61 -177q-68 -4 -187 -6.5t-300 -2.5h-257zM346 550q0 -41 44 -57.5t128 -16.5q16 0 38.5 2.5t44 7.5t37.5 10.5t21 10.5q-3 34 -18 68.5t-37.5 62.5t-50.5 45.5t-58 17.5q-37 0 -65 -17.5t-46.5 -41.5t-28 -50t-9.5 -42zM710 -347
l-147 -146l-125 118l-127 -118l-146 146l146 147l127 -119l125 119zM584 -580l-148 -146l-146 146l146 147z" />
    <glyph glyph-name="uni06A5.medi" unicode="&#x6a5;" horiz-adv-x="955" 
d="M342 330q0 -100 212 -100h21q20 5 33.5 21t24 34.5t15 37.5t4.5 30q0 62 -31.5 106.5t-68.5 44.5q-44 0 -82 -17t-66 -43t-45 -57t-17 -57zM-19 0q-21 0 -28.5 9t-7.5 21v166q0 34 36 34h244q-15 18 -22.5 44.5t-7.5 46.5q0 71 35.5 143t94 129.5t134 94t154.5 36.5
q53 0 90.5 -32.5t63 -79t37.5 -99t12 -93.5q0 -46 -19.5 -97t-52.5 -93h235q20 0 28 -10t8 -20v-166q0 -34 -36 -34h-56q-118 0 -202.5 8t-163.5 24q-108 -19 -246 -24.5t-273 -7.5h-57zM759 -347l-148 -146l-125 118l-126 -118l-146 146l146 147l126 -119l125 119z
M632 -580l-148 -146l-145 146l145 147z" />
    <glyph glyph-name="uni06A5.fina" unicode="&#x6a5;" horiz-adv-x="1836" 
d="M1097 228q-15 18 -22.5 44.5t-7.5 46.5q0 71 35.5 143t94 130t134.5 94t154 36q53 0 91 -32.5t63 -79.5t37 -99t12 -93q0 -46 -19.5 -96t-52.5 -92h244q20 0 28 -10t8 -20v-166q0 -34 -36 -34h-56q-118 0 -209 12.5t-169 26.5q-77 -16 -169.5 -28.5t-188.5 -19
t-191 -10.5t-176 -4q-358 0 -529.5 75t-171.5 250q0 51 19.5 125.5t47.5 143.5l163 29q-25 -61 -38.5 -117t-13.5 -82q0 -56 28.5 -93t93.5 -59.5t172 -32t263 -9.5q71 0 166.5 5t195.5 16zM1214 328q0 -100 212 -100h22q19 5 32.5 21t24 34.5t15 37.5t4.5 30
q0 62 -31.5 106.5t-68.5 44.5q-43 0 -81 -17t-66.5 -43t-45.5 -57t-17 -57zM1651 -347l-148 -146l-125 118l-126 -118l-146 146l146 147l126 -119l125 119zM1524 -580l-147 -146l-146 146l146 147z" />
    <glyph glyph-name="uni06A7.init" unicode="&#x6a7;" horiz-adv-x="939" 
d="M331 1168l148 146l145 -146l-145 -148zM-19 0q-21 0 -28.5 9t-7.5 21v166q0 34 36 34h500q43 0 98 0.5t80 8.5q8 22 11 62.5t3 62.5q-17 -10 -44 -20t-58 -18.5t-62.5 -13t-59.5 -4.5q-79 0 -126.5 18.5t-73.5 47.5t-35 65.5t-9 71.5q0 57 26 125.5t71.5 128t110 100
t141.5 40.5q62 0 112 -44t81.5 -114t48 -156.5t16.5 -172.5q0 -123 -26 -232t-61 -177q-68 -4 -187 -6.5t-300 -2.5h-257zM346 550q0 -41 44 -57.5t128 -16.5q16 0 38.5 2.5t44 7.5t37.5 10.5t21 10.5q-3 34 -18 68.5t-37.5 62.5t-50.5 45.5t-58 17.5q-37 0 -65 -17.5
t-46.5 -41.5t-28 -50t-9.5 -42z" />
    <glyph glyph-name="uni06A7.medi" unicode="&#x6a7;" horiz-adv-x="955" 
d="M372 1000l148 145l146 -145l-146 -147zM342 330q0 -100 212 -100h21q20 5 33.5 21t24 34.5t15 37.5t4.5 30q0 62 -31.5 106.5t-68.5 44.5q-44 0 -82 -17t-66 -43t-45 -57t-17 -57zM-19 0q-21 0 -28.5 9t-7.5 21v166q0 34 36 34h244q-15 18 -22.5 44.5t-7.5 46.5
q0 71 35.5 143t94 129.5t134 94t154.5 36.5q53 0 90.5 -32.5t63 -79t37.5 -99t12 -93.5q0 -46 -19.5 -97t-52.5 -93h235q20 0 28 -10t8 -20v-166q0 -34 -36 -34h-56q-118 0 -202.5 8t-163.5 24q-108 -19 -246 -24.5t-273 -7.5h-57z" />
    <glyph glyph-name="uni06A7.fina" unicode="&#x6a7;" horiz-adv-x="1429" 
d="M916 0q-90 0 -145 25t-83.5 60.5t-39 75t-10.5 67.5q0 59 27 136.5t76.5 147.5t117 117.5t147.5 47.5q57 0 103 -39t76.5 -103.5t48.5 -144.5t21 -160h198q21 0 28.5 -10t7.5 -20v-166q0 -34 -36 -34h-203q-6 -107 -50.5 -208.5t-130.5 -179.5t-213.5 -125.5
t-299.5 -47.5q-147 0 -252.5 35t-172.5 97t-99 144t-32 175q0 95 27 190.5t78 186.5l162 -67q-32 -72 -50.5 -135t-18.5 -129q0 -70 30 -122.5t82 -86t122 -49.5t148 -16q138 0 234 19.5t155.5 61.5t86 106t26.5 151h-166zM1082 230q0 35 -10.5 77t-30 78.5t-47 60.5
t-63.5 24q-28 0 -54 -14t-45.5 -35.5t-32 -48.5t-12.5 -55q0 -37 30 -62t114 -25h151zM794 991l147 145l146 -145l-146 -147z" />
    <glyph glyph-name="uni06A8.init" unicode="&#x6a8;" horiz-adv-x="939" 
d="M244 1102l146 146l126 -117l127 117l146 -146l-146 -146l-127 119l-126 -119zM370 1344l148 145l145 -145l-145 -148zM-19 0q-21 0 -28.5 9t-7.5 21v166q0 34 36 34h500q43 0 98 0.5t80 8.5q8 22 11 62.5t3 62.5q-17 -10 -44 -20t-58 -18.5t-62.5 -13t-59.5 -4.5
q-79 0 -126.5 18.5t-73.5 47.5t-35 65.5t-9 71.5q0 57 26 125.5t71.5 128t110 100t141.5 40.5q62 0 112 -44t81.5 -114t48 -156.5t16.5 -172.5q0 -123 -26 -232t-61 -177q-68 -4 -187 -6.5t-300 -2.5h-257zM346 550q0 -41 44 -57.5t128 -16.5q16 0 38.5 2.5t44 7.5
t37.5 10.5t21 10.5q-3 34 -18 68.5t-37.5 62.5t-50.5 45.5t-58 17.5q-37 0 -65 -17.5t-46.5 -41.5t-28 -50t-9.5 -42z" />
    <glyph glyph-name="uni06A8.medi" unicode="&#x6a8;" horiz-adv-x="955" 
d="M244 1006l146 146l126 -118l127 118l146 -146l-146 -148l-127 120l-126 -120zM370 1246l148 146l145 -146l-145 -147zM342 330q0 -100 212 -100h21q20 5 33.5 21t24 34.5t15 37.5t4.5 30q0 62 -31.5 106.5t-68.5 44.5q-44 0 -82 -17t-66 -43t-45 -57t-17 -57zM-19 0
q-21 0 -28.5 9t-7.5 21v166q0 34 36 34h244q-15 18 -22.5 44.5t-7.5 46.5q0 71 35.5 143t94 129.5t134 94t154.5 36.5q53 0 90.5 -32.5t63 -79t37.5 -99t12 -93.5q0 -46 -19.5 -97t-52.5 -93h235q20 0 28 -10t8 -20v-166q0 -34 -36 -34h-56q-118 0 -202.5 8t-163.5 24
q-108 -19 -246 -24.5t-273 -7.5h-57z" />
    <glyph glyph-name="uni06A8.fina" unicode="&#x6a8;" horiz-adv-x="1429" 
d="M916 0q-90 0 -145 25t-83.5 60.5t-39 75t-10.5 67.5q0 59 27 136.5t76.5 147.5t117 117.5t147.5 47.5q57 0 103 -39t76.5 -103.5t48.5 -144.5t21 -160h198q21 0 28.5 -10t7.5 -20v-166q0 -34 -36 -34h-203q-6 -107 -50.5 -208.5t-130.5 -179.5t-213.5 -125.5
t-299.5 -47.5q-147 0 -252.5 35t-172.5 97t-99 144t-32 175q0 95 27 190.5t78 186.5l162 -67q-32 -72 -50.5 -135t-18.5 -129q0 -70 30 -122.5t82 -86t122 -49.5t148 -16q138 0 234 19.5t155.5 61.5t86 106t26.5 151h-166zM1082 230q0 35 -10.5 77t-30 78.5t-47 60.5
t-63.5 24q-28 0 -54 -14t-45.5 -35.5t-32 -48.5t-12.5 -55q0 -37 30 -62t114 -25h151zM665 993l147 146l125 -118l127 118l146 -146l-146 -147l-127 120l-125 -120zM792 1234l147 145l145 -145l-145 -147z" />
    <glyph glyph-name="uni06AA.init" unicode="&#x6aa;" horiz-adv-x="951" 
d="M-19 0q-21 0 -28.5 9t-7.5 21v166q0 34 36 34h630q4 7 4.5 18.5t0.5 20.5q0 20 -19.5 46.5t-77 72t-164 119t-280.5 187.5q10 52 19.5 86t19 54.5t17.5 31.5t17 17l683 300v-183l-473 -209q145 -106 226.5 -192t122.5 -154t50 -122t9 -97q0 -55 -21.5 -107.5
t-60.5 -118.5h-703z" />
    <glyph glyph-name="uni06AA.medi" unicode="&#x6aa;" horiz-adv-x="926" 
d="M-19 0q-21 0 -28.5 9t-7.5 21v166q0 34 36 34h594q20 0 28 14t8 32q0 78 -541 418q2 22 8.5 51t16 57t23.5 51t32 30l676 300v-183l-475 -209q98 -77 164 -134t109 -104t71 -92t51 -96q20 -50 44 -77t48.5 -40t46 -15.5t36.5 -2.5h33q20 0 26 -10t6 -20v-166
q0 -34 -35 -34h-28q-60 0 -111.5 31t-97.5 109q-47 -78 -104.5 -109t-119.5 -31h-509z" />
    <glyph glyph-name="uni06AA.fina" unicode="&#x6aa;" horiz-adv-x="1804" 
d="M1766 0q-29 0 -60.5 11.5t-60.5 31t-52.5 44.5t-34.5 53q-25 -51 -70.5 -84t-139.5 -52.5t-250 -27.5t-400 -8q-353 0 -525.5 80t-172.5 256q0 26 6.5 66.5t14.5 64.5l160 30q-3 -21 -8 -55.5t-5 -53.5q0 -48 30 -77t97 -44t175.5 -20.5t264.5 -5.5q175 0 297.5 0.5
t203.5 3t126.5 6t68 10t27.5 17t5 23.5q0 52 -137 153.5t-404 271.5q15 86 35.5 134t37.5 55l682 300v-183l-474 -209q92 -73 157.5 -129.5t111 -106t74.5 -96t47 -99.5q17 -45 37.5 -71t44 -39t51.5 -16.5t61 -3.5h41q21 0 28.5 -10t7.5 -20v-166q0 -34 -36 -34h-62z" />
    <glyph glyph-name="uni06AB.init" unicode="&#x6ab;" horiz-adv-x="961" 
d="M-19 0q-21 0 -28.5 9t-7.5 21v166q0 34 36 34h630q4 7 4.5 18.5t0.5 20.5q0 20 -19.5 46.5t-77 72t-164 119t-280.5 187.5q10 52 19.5 86t19 54.5t17.5 31.5t17 17l683 300v-183l-473 -209q145 -106 226.5 -192t122.5 -154t50 -122t9 -97q0 -55 -21.5 -107.5
t-60.5 -118.5h-703zM100 979q2 53 18.5 98.5t40.5 56.5l682 301v-140z" />
    <glyph glyph-name="uni06AB.medi" unicode="&#x6ab;" horiz-adv-x="946" 
d="M-19 0q-21 0 -28.5 9t-7.5 21v166q0 34 36 34h594q20 0 28 14t8 32q0 78 -541 418q2 22 8.5 51t16 57t23.5 51t32 30l676 300v-183l-475 -209q98 -77 164 -134t109 -104t71 -92t51 -96q20 -50 44 -77t48.5 -40t46 -15.5t36.5 -2.5h53q20 0 26 -10t6 -20v-166
q0 -34 -35 -34h-48q-60 0 -111.5 31t-97.5 109q-47 -78 -104.5 -109t-119.5 -31h-509zM94 979q2 53 19 98.5t41 56.5l681 301v-140z" />
    <glyph glyph-name="uni06AB.fina" unicode="&#x6ab;" horiz-adv-x="1804" 
d="M1766 0q-29 0 -60.5 11.5t-60.5 31t-52.5 44.5t-34.5 53q-25 -51 -70.5 -84t-139.5 -52.5t-250 -27.5t-400 -8q-353 0 -525.5 80t-172.5 256q0 26 6.5 66.5t14.5 64.5l160 30q-3 -21 -8 -55.5t-5 -53.5q0 -48 30 -77t97 -44t175.5 -20.5t264.5 -5.5q175 0 297.5 0.5
t203.5 3t126.5 6t68 10t27.5 17t5 23.5q0 52 -137 153.5t-404 271.5q15 86 35.5 134t37.5 55l682 300v-183l-474 -209q92 -73 157.5 -129.5t111 -106t74.5 -96t47 -99.5q17 -45 37.5 -71t44 -39t51.5 -16.5t61 -3.5h41q21 0 28.5 -10t7.5 -20v-166q0 -34 -36 -34h-62z
M935 979q2 53 18.5 98.5t41.5 56.5l680 301v-140z" />
    <glyph glyph-name="uni06AC.init" unicode="&#x6ac;" horiz-adv-x="950" 
d="M-19 0q-21 0 -28.5 9t-7.5 21v166q0 34 36 34h630q4 7 4.5 18.5t0.5 20.5q0 20 -19.5 46.5t-77 72t-164 119t-280.5 187.5q10 52 19.5 86t19 54.5t17.5 31.5t17 17l683 300v-183l-473 -209q145 -106 226.5 -192t122.5 -154t50 -122t9 -97q0 -55 -21.5 -107.5
t-60.5 -118.5h-703zM207 1280l148 145l145 -145l-145 -148z" />
    <glyph glyph-name="uni06AC.medi" unicode="&#x6ac;" horiz-adv-x="956" 
d="M-19 0q-21 0 -28.5 9t-7.5 21v166q0 34 36 34h594q20 0 28 14t8 32q0 78 -541 418q2 22 8.5 51t16 57t23.5 51t32 30l676 300v-183l-475 -209q98 -77 164 -134t109 -104t71 -92t51 -96q20 -50 44 -77t48.5 -40t46 -15.5t36.5 -2.5h63q20 0 26 -10t6 -20v-166
q0 -34 -35 -34h-58q-60 0 -111.5 31t-97.5 109q-47 -78 -104.5 -109t-119.5 -31h-509zM220 1289l148 145l145 -145l-145 -147z" />
    <glyph glyph-name="uni06AC.fina" unicode="&#x6ac;" horiz-adv-x="1724" 
d="M1715 0q-51 0 -91 18.5t-69 47.5t-47 65.5t-23 69.5q-45 -82 -111 -126.5t-161 -65t-222 -25.5t-291 -5q-349 0 -524.5 75.5t-175.5 249.5q0 50 18 124t49 143l163 29q-23 -62 -37.5 -112t-14.5 -87q0 -58 28.5 -95t93.5 -59.5t172 -31t261 -8.5q183 0 296.5 6t177.5 22
t86.5 46.5t22.5 78.5v874h215v-859q0 -45 8 -73t28.5 -44.5t55 -22t90.5 -5.5h35q21 0 28.5 -10t7.5 -20v-166q0 -34 -36 -34h-33zM600 543q21 11 61 32.5t71 29.5v7q-40 15 -61 38t-21 61q0 39 19.5 80t50 74.5t68.5 55t77 21.5q21 0 41.5 -2.5t33.5 -10.5v-126
q-18 7 -38.5 12.5t-45.5 5.5q-52 0 -86.5 -25t-34.5 -57q0 -28 34.5 -55t88.5 -27q28 0 73 11t89 24l-11 -126q-53 -10 -98.5 -20t-87 -26t-84.5 -39.5t-93 -58.5zM1270 1507l148 145l144 -145l-144 -148z" />
    <glyph glyph-name="uni06AE.init" unicode="&#x6ae;" horiz-adv-x="950" 
d="M-19 0q-21 0 -28.5 9t-7.5 21v166q0 34 36 34h630q4 7 4.5 18.5t0.5 20.5q0 20 -19.5 46.5t-77 72t-164 119t-280.5 187.5q10 52 19.5 86t19 54.5t17.5 31.5t17 17l683 300v-183l-473 -209q145 -106 226.5 -192t122.5 -154t50 -122t9 -97q0 -55 -21.5 -107.5
t-60.5 -118.5h-703zM629 -347l-147 -146l-125 118l-127 -118l-146 146l146 147l127 -119l125 119zM503 -580l-148 -146l-146 146l146 147z" />
    <glyph glyph-name="uni06AE.medi" unicode="&#x6ae;" horiz-adv-x="956" 
d="M-19 0q-21 0 -28.5 9t-7.5 21v166q0 34 36 34h594q20 0 28 14t8 32q0 78 -541 418q2 22 8.5 51t16 57t23.5 51t32 30l676 300v-183l-475 -209q98 -77 164 -134t109 -104t71 -92t51 -96q20 -50 44 -77t48.5 -40t46 -15.5t36.5 -2.5h63q20 0 26 -10t6 -20v-166
q0 -34 -35 -34h-58q-60 0 -111.5 31t-97.5 109q-47 -78 -104.5 -109t-119.5 -31h-509zM733 -347l-148 -146l-124 118l-127 -118l-146 146l146 147l127 -119l124 119zM606 -580l-147 -146l-146 146l146 147z" />
    <glyph glyph-name="uni06AE.fina" unicode="&#x6ae;" horiz-adv-x="1724" 
d="M1715 0q-51 0 -91 18.5t-69 47.5t-47 65.5t-23 69.5q-45 -82 -111 -126.5t-161 -65t-222 -25.5t-291 -5q-349 0 -524.5 75.5t-175.5 249.5q0 50 18 124t49 143l163 29q-23 -62 -37.5 -112t-14.5 -87q0 -58 28.5 -95t93.5 -59.5t172 -31t261 -8.5q183 0 296.5 6t177.5 22
t86.5 46.5t22.5 78.5v874h215v-859q0 -45 8 -73t28.5 -44.5t55 -22t90.5 -5.5h35q21 0 28.5 -10t7.5 -20v-166q0 -34 -36 -34h-33zM600 543q21 11 61 32.5t71 29.5v7q-40 15 -61 38t-21 61q0 39 19.5 80t50 74.5t68.5 55t77 21.5q21 0 41.5 -2.5t33.5 -10.5v-126
q-18 7 -38.5 12.5t-45.5 5.5q-52 0 -86.5 -25t-34.5 -57q0 -28 34.5 -55t88.5 -27q28 0 73 11t89 24l-11 -126q-53 -10 -98.5 -20t-87 -26t-84.5 -39.5t-93 -58.5zM1031 -347l-147 -146l-125 118l-127 -118l-146 146l146 147l127 -119l125 119zM905 -580l-148 -146l-146 146
l146 147z" />
    <glyph glyph-name="uni06B0.init" unicode="&#x6b0;" horiz-adv-x="961" 
d="M667 923q-14 0 -27 -12.5t-22 -29t-14.5 -34t-5.5 -28.5q0 -22 14 -28t41 -6q17 0 33 1.5t29.5 5.5t21.5 12.5t8 19.5t-6.5 27.5t-17 32t-25 27.5t-29.5 12zM100 979q2 53 18.5 98.5t40.5 56.5l682 301v-140zM553 877l-195 -86q145 -106 226.5 -192t122.5 -154t50 -122
t9 -97q0 -55 -21.5 -107.5t-60.5 -118.5h-703q-21 0 -28.5 9t-7.5 21v166q0 34 36 34h630q4 7 4.5 18.5t0.5 20.5q0 20 -19.5 46.5t-77 72t-164 119t-280.5 187.5q10 52 19.5 86t19 54.5t17.5 31.5t17 17l683 300v-183l-58 -25q12 -15 21 -32q16 -32 23.5 -68.5t7.5 -65.5
q0 -25 -16.5 -49t-42.5 -42.5t-60 -30.5t-70 -12q-22 0 -41.5 6.5t-35 18t-24.5 29.5t-9 43q0 17 5.5 42t16.5 52q2 6 5 11z" />
    <glyph glyph-name="uni06B0.medi" unicode="&#x6b0;" horiz-adv-x="956" 
d="M661 923q-14 0 -26.5 -12.5t-21.5 -29t-14.5 -34t-5.5 -28.5q0 -22 14 -28t40 -6q18 0 34 1.5t29.5 5.5t21 12.5t7.5 19.5t-6 27.5t-16.5 32t-25 27.5t-30.5 12zM94 979q2 53 19 98.5t41 56.5l681 301v-140zM547 877l-196 -86q98 -77 164 -134t109 -104t71 -92t51 -96
q20 -50 44 -77t48.5 -40t46 -15.5t36.5 -2.5h63q20 0 26 -10t6 -20v-166q0 -34 -35 -34h-58q-60 0 -111.5 31t-97.5 109q-47 -78 -104.5 -109t-119.5 -31h-509q-21 0 -28.5 9t-7.5 21v166q0 34 36 34h594q20 0 28 14t8 32q0 78 -541 418q2 22 8.5 51t16 57t23.5 51t32 30
l676 300v-183l-58 -25q12 -15 21 -32q15 -32 23 -68.5t8 -65.5q0 -25 -16.5 -49t-42.5 -42.5t-60 -30.5t-70 -12q-23 0 -42.5 6.5t-35 18t-24 29.5t-8.5 43q0 17 5.5 42t16.5 52q1 6 4 11z" />
    <glyph glyph-name="uni06B0.fina" unicode="&#x6b0;" horiz-adv-x="1804" 
d="M1515 923q-14 0 -26.5 -12.5t-21.5 -29t-14.5 -34t-5.5 -28.5q0 -22 14 -28t40 -6q18 0 34 1.5t29.5 5.5t21 12.5t7.5 19.5t-6 27.5t-16.5 32t-25 27.5t-30.5 12zM935 979q2 53 18.5 98.5t41.5 56.5l680 301v-140zM1402 878l-199 -87q92 -73 157.5 -129.5t111 -106
t74.5 -96t47 -99.5q17 -45 37.5 -71t44 -39t51.5 -16.5t61 -3.5h41q21 0 28.5 -10t7.5 -20v-166q0 -34 -36 -34h-62q-29 0 -60.5 11.5t-60.5 31t-52.5 44.5t-34.5 53q-25 -51 -70.5 -84t-139.5 -52.5t-250 -27.5t-400 -8q-353 0 -525.5 80t-172.5 256q0 26 6.5 66.5
t14.5 64.5l160 30q-3 -21 -8 -55.5t-5 -53.5q0 -48 30 -77t97 -44t175.5 -20.5t264.5 -5.5q175 0 297.5 0.5t203.5 3t126.5 6t68 10t27.5 17t5 23.5q0 52 -137 153.5t-404 271.5q15 86 35.5 134t37.5 55l682 300v-183l-56 -24q12 -16 22 -33q15 -32 23 -68.5t8 -65.5
q0 -25 -16.5 -49t-42.5 -42.5t-60 -30.5t-70 -12q-23 0 -42.5 6.5t-35 18t-24 29.5t-8.5 43q0 17 5.5 42t16.5 52q2 7 5 12z" />
    <glyph glyph-name="uni06B2.init" unicode="&#x6b2;" horiz-adv-x="961" 
d="M-19 0q-21 0 -28.5 9t-7.5 21v166q0 34 36 34h630q4 7 4.5 18.5t0.5 20.5q0 20 -19.5 46.5t-77 72t-164 119t-280.5 187.5q10 52 19.5 86t19 54.5t17.5 31.5t17 17l683 300v-183l-473 -209q145 -106 226.5 -192t122.5 -154t50 -122t9 -97q0 -55 -21.5 -107.5
t-60.5 -118.5h-703zM100 979q2 53 18.5 98.5t40.5 56.5l682 301v-140zM638 -347l-147 -146l-125 118l-127 -118l-146 146l146 147l127 -119l125 119z" />
    <glyph glyph-name="uni06B2.medi" unicode="&#x6b2;" horiz-adv-x="956" 
d="M-19 0q-21 0 -28.5 9t-7.5 21v166q0 34 36 34h594q20 0 28 14t8 32q0 78 -541 418q2 22 8.5 51t16 57t23.5 51t32 30l676 300v-183l-475 -209q98 -77 164 -134t109 -104t71 -92t51 -96q20 -50 44 -77t48.5 -40t46 -15.5t36.5 -2.5h63q20 0 26 -10t6 -20v-166
q0 -34 -35 -34h-58q-60 0 -111.5 31t-97.5 109q-47 -78 -104.5 -109t-119.5 -31h-509zM94 979q2 53 19 98.5t41 56.5l681 301v-140zM733 -347l-148 -146l-124 118l-127 -118l-146 146l146 147l127 -119l124 119z" />
    <glyph glyph-name="uni06B2.fina" unicode="&#x6b2;" horiz-adv-x="1804" 
d="M1766 0q-29 0 -60.5 11.5t-60.5 31t-52.5 44.5t-34.5 53q-25 -51 -70.5 -84t-139.5 -52.5t-250 -27.5t-400 -8q-353 0 -525.5 80t-172.5 256q0 26 6.5 66.5t14.5 64.5l160 30q-3 -21 -8 -55.5t-5 -53.5q0 -48 30 -77t97 -44t175.5 -20.5t264.5 -5.5q175 0 297.5 0.5
t203.5 3t126.5 6t68 10t27.5 17t5 23.5q0 52 -137 153.5t-404 271.5q15 86 35.5 134t37.5 55l682 300v-183l-474 -209q92 -73 157.5 -129.5t111 -106t74.5 -96t47 -99.5q17 -45 37.5 -71t44 -39t51.5 -16.5t61 -3.5h41q21 0 28.5 -10t7.5 -20v-166q0 -34 -36 -34h-62z
M935 979q2 53 18.5 98.5t41.5 56.5l680 301v-140zM1095 -347l-148 -146l-124 118l-127 -118l-146 146l146 147l127 -119l124 119z" />
    <glyph glyph-name="uni06B4.init" unicode="&#x6b4;" horiz-adv-x="961" 
d="M-19 0q-21 0 -28.5 9t-7.5 21v166q0 34 36 34h630q4 7 4.5 18.5t0.5 20.5q0 20 -19.5 46.5t-77 72t-164 119t-280.5 187.5q10 52 19.5 86t19 54.5t17.5 31.5t17 17l683 300v-183l-473 -209q145 -106 226.5 -192t122.5 -154t50 -122t9 -97q0 -55 -21.5 -107.5
t-60.5 -118.5h-703zM100 979q2 53 18.5 98.5t40.5 56.5l682 301v-140zM95 1539l147 145l126 -117l126 117l146 -145l-146 -147l-126 119l-126 -119zM222 1780l148 145l144 -145l-144 -147z" />
    <glyph glyph-name="uni06B4.medi" unicode="&#x6b4;" horiz-adv-x="956" 
d="M-19 0q-21 0 -28.5 9t-7.5 21v166q0 34 36 34h594q20 0 28 14t8 32q0 78 -541 418q2 22 8.5 51t16 57t23.5 51t32 30l676 300v-183l-475 -209q98 -77 164 -134t109 -104t71 -92t51 -96q20 -50 44 -77t48.5 -40t46 -15.5t36.5 -2.5h63q20 0 26 -10t6 -20v-166
q0 -34 -35 -34h-58q-60 0 -111.5 31t-97.5 109q-47 -78 -104.5 -109t-119.5 -31h-509zM94 979q2 53 19 98.5t41 56.5l681 301v-140zM90 1539l147 145l125 -117l127 117l146 -145l-146 -147l-127 119l-125 -119zM216 1780l148 145l145 -145l-145 -147z" />
    <glyph glyph-name="uni06B4.fina" unicode="&#x6b4;" horiz-adv-x="1804" 
d="M1766 0q-29 0 -60.5 11.5t-60.5 31t-52.5 44.5t-34.5 53q-25 -51 -70.5 -84t-139.5 -52.5t-250 -27.5t-400 -8q-353 0 -525.5 80t-172.5 256q0 26 6.5 66.5t14.5 64.5l160 30q-3 -21 -8 -55.5t-5 -53.5q0 -48 30 -77t97 -44t175.5 -20.5t264.5 -5.5q175 0 297.5 0.5
t203.5 3t126.5 6t68 10t27.5 17t5 23.5q0 52 -137 153.5t-404 271.5q15 86 35.5 134t37.5 55l682 300v-183l-474 -209q92 -73 157.5 -129.5t111 -106t74.5 -96t47 -99.5q17 -45 37.5 -71t44 -39t51.5 -16.5t61 -3.5h41q21 0 28.5 -10t7.5 -20v-166q0 -34 -36 -34h-62z
M935 979q2 53 18.5 98.5t41.5 56.5l680 301v-140zM907 1539l147 145l126 -117l126 117l146 -145l-146 -147l-126 119l-126 -119zM1034 1780l148 145l144 -145l-144 -147z" />
    <glyph glyph-name="uni06B5.init" unicode="&#x6b5;" horiz-adv-x="531" 
d="M411 18q-99 -18 -348 -18h-82q-21 0 -28.5 9t-7.5 21v166q0 34 36 34h83q36 0 71.5 1.5t60.5 5.5v997h215v-1216zM378 1740l122 -64q-38 -68 -68 -135q-42 -91 -70 -174h-112q-28 84 -71 177q-30 64 -65 130l117 66q32 -96 76 -192q36 81 63 166q3 12 8 26z" />
    <glyph glyph-name="uni06B5.medi" unicode="&#x6b5;" horiz-adv-x="725" 
d="M-19 0q-21 0 -28.5 9t-7.5 21v166q0 34 36 34h119q55 0 89 3.5t51.5 16.5t24 39t6.5 71v874h215v-859q0 -51 7.5 -80.5t24 -43.5t44 -17.5t66.5 -3.5h121q20 0 28 -10t8 -20v-166q0 -34 -36 -34h-110q-52 0 -92.5 19.5t-68 51.5t-44.5 71t-23 78q-35 -69 -72.5 -111.5
t-74.5 -67.5t-74.5 -33t-71.5 -8h-137zM447 1740l122 -64q-37 -68 -67 -135q-42 -91 -71 -174h-112q-28 84 -71 177q-30 64 -65 130l117 66q32 -96 76 -192q36 81 63 166q3 12 8 26z" />
    <glyph glyph-name="uni06B5.fina" unicode="&#x6b5;" horiz-adv-x="1254" 
d="M1058 144q0 -96 -32.5 -195.5t-101 -180.5t-175.5 -132.5t-256 -51.5q-118 0 -209.5 33.5t-154.5 92.5t-96 137t-33 168q0 78 23 166t66 159l185 -80q-26 -55 -40 -105t-14 -107q0 -117 85 -174t213 -57q98 0 161 19.5t100.5 53t52.5 79.5t15 98v1165h214v-816
q0 -58 6 -94.5t25 -57t54 -27.5t97 -7h35q20 0 28 -10t8 -20v-166q0 -34 -36 -34h-32q-32 0 -60.5 12.5t-52.5 33t-43.5 45.5t-31.5 53zM1024 1740l122 -64q-37 -68 -67 -135q-42 -91 -70 -174h-113q-28 84 -71 177q-30 64 -65 130l117 66q32 -96 76 -192q36 81 63 166
q3 12 8 26z" />
    <glyph glyph-name="uni06B6.init" unicode="&#x6b6;" horiz-adv-x="531" 
d="M411 18q-99 -18 -348 -18h-82q-21 0 -28.5 9t-7.5 21v166q0 34 36 34h83q36 0 71.5 1.5t60.5 5.5v997h215v-1216zM155 1507l147 145l145 -145l-145 -148z" />
    <glyph glyph-name="uni06B6.medi" unicode="&#x6b6;" horiz-adv-x="725" 
d="M-19 0q-21 0 -28.5 9t-7.5 21v166q0 34 36 34h119q55 0 89 3.5t51.5 16.5t24 39t6.5 71v874h215v-859q0 -51 7.5 -80.5t24 -43.5t44 -17.5t66.5 -3.5h121q20 0 28 -10t8 -20v-166q0 -34 -36 -34h-110q-52 0 -92.5 19.5t-68 51.5t-44.5 71t-23 78q-35 -69 -72.5 -111.5
t-74.5 -67.5t-74.5 -33t-71.5 -8h-137zM233 1507l147 145l145 -145l-145 -148z" />
    <glyph glyph-name="uni06B6.fina" unicode="&#x6b6;" horiz-adv-x="1254" 
d="M1058 144q0 -96 -32.5 -195.5t-101 -180.5t-175.5 -132.5t-256 -51.5q-118 0 -209.5 33.5t-154.5 92.5t-96 137t-33 168q0 78 23 166t66 159l185 -80q-26 -55 -40 -105t-14 -107q0 -117 85 -174t213 -57q98 0 161 19.5t100.5 53t52.5 79.5t15 98v1165h214v-816
q0 -58 6 -94.5t25 -57t54 -27.5t97 -7h35q20 0 28 -10t8 -20v-166q0 -34 -36 -34h-32q-32 0 -60.5 12.5t-52.5 33t-43.5 45.5t-31.5 53zM801 1507l147 145l145 -145l-145 -148z" />
    <glyph glyph-name="uni06B7.init" unicode="&#x6b7;" horiz-adv-x="573" 
d="M411 18q-99 -18 -348 -18h-82q-21 0 -28.5 9t-7.5 21v166q0 34 36 34h83q36 0 71.5 1.5t60.5 5.5v997h215v-1216zM28 1511l147 146l125 -117l127 117l146 -146l-146 -146l-127 119l-125 -119zM155 1753l147 145l145 -145l-145 -148z" />
    <glyph glyph-name="uni06B7.medi" unicode="&#x6b7;" horiz-adv-x="725" 
d="M-19 0q-21 0 -28.5 9t-7.5 21v166q0 34 36 34h119q55 0 89 3.5t51.5 16.5t24 39t6.5 71v874h215v-859q0 -51 7.5 -80.5t24 -43.5t44 -17.5t66.5 -3.5h121q20 0 28 -10t8 -20v-166q0 -34 -36 -34h-110q-52 0 -92.5 19.5t-68 51.5t-44.5 71t-23 78q-35 -69 -72.5 -111.5
t-74.5 -67.5t-74.5 -33t-71.5 -8h-137zM106 1511l147 146l126 -117l126 117l146 -146l-146 -146l-126 119l-126 -119zM233 1753l147 145l145 -145l-145 -148z" />
    <glyph glyph-name="uni06B7.fina" unicode="&#x6b7;" horiz-adv-x="1254" 
d="M1058 144q0 -96 -32.5 -195.5t-101 -180.5t-175.5 -132.5t-256 -51.5q-118 0 -209.5 33.5t-154.5 92.5t-96 137t-33 168q0 78 23 166t66 159l185 -80q-26 -55 -40 -105t-14 -107q0 -117 85 -174t213 -57q98 0 161 19.5t100.5 53t52.5 79.5t15 98v1165h214v-816
q0 -58 6 -94.5t25 -57t54 -27.5t97 -7h35q20 0 28 -10t8 -20v-166q0 -34 -36 -34h-32q-32 0 -60.5 12.5t-52.5 33t-43.5 45.5t-31.5 53zM674 1511l147 146l126 -117l126 117l146 -146l-146 -146l-126 119l-126 -119zM801 1753l147 145l145 -145l-145 -148z" />
    <glyph glyph-name="uni06B8.init" unicode="&#x6b8;" horiz-adv-x="531" 
d="M411 18q-99 -18 -348 -18h-82q-21 0 -28.5 9t-7.5 21v166q0 34 36 34h83q36 0 71.5 1.5t60.5 5.5v997h215v-1216zM507 -347l-147 -146l-125 118l-127 -118l-146 146l146 147l127 -119l125 119zM380 -580l-147 -146l-146 146l146 147z" />
    <glyph glyph-name="uni06B8.medi" unicode="&#x6b8;" horiz-adv-x="725" 
d="M-19 0q-21 0 -28.5 9t-7.5 21v166q0 34 36 34h119q55 0 89 3.5t51.5 16.5t24 39t6.5 71v874h215v-859q0 -51 7.5 -80.5t24 -43.5t44 -17.5t66.5 -3.5h121q20 0 28 -10t8 -20v-166q0 -34 -36 -34h-110q-52 0 -92.5 19.5t-68 51.5t-44.5 71t-23 78q-35 -69 -72.5 -111.5
t-74.5 -67.5t-74.5 -33t-71.5 -8h-137zM631 -347l-148 -146l-124 118l-127 -118l-146 146l146 147l127 -119l124 119zM504 -580l-147 -146l-146 146l146 147z" />
    <glyph glyph-name="uni06B8.fina" unicode="&#x6b8;" horiz-adv-x="1254" 
d="M1058 144q0 -96 -32.5 -195.5t-101 -180.5t-175.5 -132.5t-256 -51.5q-118 0 -209.5 33.5t-154.5 92.5t-96 137t-33 168q0 78 23 166t66 159l185 -80q-26 -55 -40 -105t-14 -107q0 -117 85 -174t213 -57q98 0 161 19.5t100.5 53t52.5 79.5t15 98v1165h214v-816
q0 -58 6 -94.5t25 -57t54 -27.5t97 -7h35q20 0 28 -10t8 -20v-166q0 -34 -36 -34h-32q-32 0 -60.5 12.5t-52.5 33t-43.5 45.5t-31.5 53zM819 -697l-148 -146l-124 118l-127 -118l-146 146l146 148l127 -120l124 120zM692 -930l-147 -146l-146 146l146 147z" />
    <glyph glyph-name="uni06B9.init" unicode="&#x6b9;" horiz-adv-x="565" 
d="M114 1101l146 145l146 -145l-146 -147zM-19 0q-21 0 -28.5 9t-7.5 21v166q0 34 36 34h121h43t48 0.5t45.5 2.5t36.5 6q6 17 6 41q0 30 -30 104.5t-96 203.5l208 63q38 -106 60 -199.5t22 -177.5q0 -80 -26 -137t-63 -119q-37 -9 -101 -13.5t-121 -4.5h-153zM114 -312
l148 146l146 -146l-146 -147z" />
    <glyph glyph-name="uni06B9.medi" unicode="&#x6b9;" horiz-adv-x="617" 
d="M-19 0q-21 0 -28.5 9t-7.5 21v166q0 34 36 34h96q62 0 98.5 3.5t55 12t24 22.5t7.5 34l17 250l239 45l-32 -216q-2 -9 -2.5 -20.5t-0.5 -20.5q0 -64 20.5 -87t89.5 -23h48q20 0 28 -10t8 -20v-166q0 -34 -36 -34h-56q-106 0 -170 33t-82 127q-26 -50 -48.5 -82
t-47.5 -48.5t-55 -23t-71 -6.5h-130zM193 997l146 145l146 -145l-146 -148zM193 -312l147 146l146 -146l-146 -147z" />
    <glyph glyph-name="uni06B9.fina" unicode="&#x6b9;" horiz-adv-x="1205" 
d="M1183 0q-41 0 -78.5 26t-52.5 79q-13 -139 -64 -237.5t-127 -162t-171 -92.5t-197 -29q-112 0 -203.5 31t-156 87t-99 135t-34.5 178q0 78 22.5 164t66.5 161l185 -80q-54 -112 -54 -221q0 -54 23.5 -96t64.5 -70t95 -42t115 -14q100 0 167 20.5t108 55t58.5 80
t17.5 94.5q0 43 -9 86t-25 84t-35.5 78.5t-37.5 67.5l217 100q34 -88 56.5 -138t42 -76.5t42 -32.5t57.5 -6h53q20 0 27.5 -10t7.5 -20v-166q0 -34 -35 -34h-47zM365 735l148 146l146 -146l-146 -147zM659 -702l-148 -146l-146 146l146 147z" />
    <glyph glyph-name="uni06BC.init" unicode="&#x6bc;" horiz-adv-x="637" 
d="M163 1101l146 145l146 -145l-146 -147zM193 -7q-17 0 -32 -14.5t-26 -35t-17.5 -41.5t-6.5 -34q0 -27 17 -34t48 -7q21 0 41 2t35.5 7t25.5 14.5t10 23.5q0 12 -8 32.5t-20.5 39t-30 33t-36.5 14.5zM87 0h-106q-21 0 -28.5 9t-7.5 21v166q0 34 36 34h194h43t48 0.5
t45.5 2.5t36.5 6q6 17 6 41q0 30 -30 104.5t-96 203.5l208 63q37 -106 59.5 -199.5t22.5 -177.5q0 -80 -26 -137t-63 -119q-30 -7 -78 -12q16 -33 24 -72q9 -43 9 -79q0 -29 -19.5 -58t-51 -51.5t-72.5 -36.5t-84 -14q-27 0 -50.5 7t-42.5 21t-29.5 36t-10.5 52q0 20 7 50.5
t19.5 63.5t31.5 66q2 4 5 9z" />
    <glyph glyph-name="uni06BC.medi" unicode="&#x6bc;" horiz-adv-x="689" 
d="M296 1009l146 146l146 -146l-146 -146zM184 -7q-17 0 -32 -14.5t-26 -35t-17.5 -41.5t-6.5 -34q0 -27 16.5 -34t48.5 -7q21 0 40.5 2t35.5 7t25.5 14.5t9.5 23.5q0 12 -7.5 32.5t-20 39t-30 33t-36.5 14.5zM78 0h-97q-21 0 -28.5 9t-7.5 21v166q0 34 36 34h169
q62 0 98.5 3.5t55 12t24 22.5t7.5 34l17 250l239 45l-32 -216q-2 -9 -3 -20.5t-1 -20.5q0 -64 20.5 -87t90.5 -23h48q20 0 27.5 -10t7.5 -20v-166q0 -34 -35 -34h-57q-105 0 -169 33t-82 127q-26 -50 -48 -82q-17 -23 -35 -38q7 -12 15 -24q19 -38 28 -81.5t9 -79.5
q0 -29 -19.5 -58t-51 -51.5t-72.5 -36.5t-84 -14q-27 0 -51 7t-42.5 21t-29 36t-10.5 52q0 20 7 50.5t19.5 63.5t31.5 66q2 4 5 9z" />
    <glyph glyph-name="uni06BC.fina" unicode="&#x6bc;" horiz-adv-x="1205" 
d="M365 735l148 146l146 -146l-146 -147zM527 -420q-16 0 -31 -14.5t-26 -35t-18 -41.5t-7 -34q0 -26 17 -33.5t49 -7.5q21 0 40.5 2t35.5 7t25.5 14.5t9.5 24.5q0 11 -7.5 31.5t-20 39.5t-30 33t-37.5 14zM422 -413q-71 7 -132 28q-92 31 -156.5 87t-99 135t-34.5 178
q0 78 22.5 164t66.5 161l185 -80q-54 -112 -54 -221q0 -54 23.5 -96t64.5 -70t95 -42t115 -14q100 0 167 20.5t108 55t58.5 80t17.5 94.5q0 43 -9 86t-25 84t-35.5 78.5t-37.5 67.5l217 100q34 -88 56.5 -138t42 -76.5t42 -32.5t57.5 -6h53q20 0 27.5 -10t7.5 -20v-166
q0 -34 -35 -34h-47q-41 0 -78.5 26t-52.5 79q-13 -139 -64 -237.5t-127 -162t-170 -92.5q-7 -2 -13 -4q2 -3 3 -5q20 -39 29 -82.5t9 -79.5q0 -29 -19.5 -58t-51 -51.5t-72.5 -36.5t-84 -14q-27 0 -51 7.5t-42.5 21t-29 36t-10.5 51.5q0 21 7 51t19.5 63t30.5 66q3 5 6 9z
" />
    <glyph glyph-name="uni06BD.init" unicode="&#x6bd;" horiz-adv-x="564" 
d="M-19 0q-21 0 -28.5 9t-7.5 21v166q0 34 36 34h121h43t48 0.5t45.5 2.5t36.5 6q6 17 6 41q0 30 -30 104.5t-96 203.5l208 63q38 -106 60 -199.5t22 -177.5q0 -80 -26 -137t-63 -119q-37 -9 -101 -13.5t-121 -4.5h-153zM5 1004l147 146l126 -118l126 118l146 -146
l-146 -148l-126 120l-126 -120zM132 1244l147 146l145 -146l-145 -147z" />
    <glyph glyph-name="uni06BD.medi" unicode="&#x6bd;" horiz-adv-x="617" 
d="M-19 0q-21 0 -28.5 9t-7.5 21v166q0 34 36 34h96q62 0 98.5 3.5t55 12t24 22.5t7.5 34l17 250l239 45l-32 -216q-2 -9 -2.5 -20.5t-0.5 -20.5q0 -64 20.5 -87t89.5 -23h48q20 0 28 -10t8 -20v-166q0 -34 -36 -34h-56q-106 0 -170 33t-82 127q-26 -50 -48.5 -82
t-47.5 -48.5t-55 -23t-71 -6.5h-130zM85 883l148 145l125 -118l126 118l146 -145l-146 -148l-126 120l-125 -120zM212 1123l148 146l145 -146l-145 -147z" />
    <glyph glyph-name="uni06BD.fina" unicode="&#x6bd;" horiz-adv-x="1205" 
d="M1183 0q-41 0 -78.5 26t-52.5 79q-13 -139 -64 -237.5t-127 -162t-171 -92.5t-197 -29q-112 0 -203.5 31t-156 87t-99 135t-34.5 178q0 78 22.5 164t66.5 161l185 -80q-54 -112 -54 -221q0 -54 23.5 -96t64.5 -70t95 -42t115 -14q100 0 167 20.5t108 55t58.5 80
t17.5 94.5q0 43 -9 86t-25 84t-35.5 78.5t-37.5 67.5l217 100q34 -88 56.5 -138t42 -76.5t42 -32.5t57.5 -6h53q20 0 27.5 -10t7.5 -20v-166q0 -34 -35 -34h-47zM241 729l147 146l126 -118l126 118l146 -146l-146 -148l-126 120l-126 -120zM368 969l148 146l144 -146
l-144 -147z" />
    <glyph glyph-name="uni06BF.init" unicode="&#x6bf;" horiz-adv-x="1149" 
d="M-19 0q-21 0 -28.5 9t-7.5 21v166q0 34 36 34h104q79 0 166.5 13t182.5 31q95 19 193 33t165 14q-56 30 -108 90q-23 25 -47 47.5t-55.5 39.5t-75.5 27.5t-105 10.5q-40 0 -97.5 -9.5t-97.5 -22.5v212q38 12 96.5 25.5t137.5 13.5q78 0 138.5 -24t106 -62.5t79.5 -84
t60 -89.5q27 -50 51 -80.5t47 -50t49 -30t58 -15.5v-220q-43 4 -85 5t-81 1q-106 0 -202 -16t-192 -37q-95 -20 -184.5 -36t-190.5 -16h-113zM292 1099l148 145l145 -145l-145 -148zM801 -272l-147 -146l-125 117l-127 -117l-145 146l145 147l127 -119l125 119zM675 -506
l-148 -145l-146 145l146 148z" />
    <glyph glyph-name="uni06BF.medi" unicode="&#x6bf;" horiz-adv-x="1204" 
d="M-19 0q-21 0 -28.5 9t-7.5 21v166q0 34 36 34h406q55 0 114.5 15.5t117.5 40t110 54.5t92 57q-46 9 -83.5 28t-66.5 40q-51 33 -113.5 52t-156.5 19q-40 0 -97.5 -9.5t-97.5 -22.5v212q38 12 97.5 25.5t134.5 13.5q82 0 144.5 -14.5t109.5 -39t84.5 -55t71.5 -62.5
q37 -36 64.5 -55.5t52.5 -30.5t50 -16t57 -10v-148q-25 0 -69.5 -8t-76.5 -23q14 -15 48 -39t94 -24h161q21 0 28 -10t7 -20v-166q0 -34 -35 -34h-155q-91 0 -155 61.5t-101 175.5q-140 -123 -261 -180t-250 -57h-326zM298 1099l147 145l146 -145l-146 -148zM787 -280
l-148 -145l-125 117l-127 -117l-145 145l145 148l127 -119l125 119zM659 -513l-146 -146l-146 146l146 148z" />
    <glyph glyph-name="uni06BF.fina" unicode="&#x6bf;" horiz-adv-x="1162" 
d="M1222 34q0 -34 -35 -34h-86q-170 0 -251 70t-108 212q-139 -21 -244.5 -70.5t-176 -116.5t-104.5 -145t-34 -157q0 -65 23.5 -122t70 -101t113.5 -69t157 -25q97 0 172 19.5t136 50.5l96 -173q-111 -65 -222 -92t-207 -27q-104 0 -199 30.5t-167 91.5t-114 152t-42 214
q0 142 57 259t157.5 204.5t237.5 145.5t298 84q-9 5 -30.5 25.5t-38.5 36.5q-65 59 -153 77.5t-177 18.5q-21 0 -46 -3.5t-52 -9t-52 -12.5t-44 -12v213q44 14 101 29.5t130 15.5q82 0 143.5 -13.5t109.5 -36.5t86 -55t74 -67q35 -37 63 -63.5t54 -44t51.5 -27.5t56.5 -16
v-163q-9 0 -29.5 -2t-45 -4.5t-46.5 -6t-34 -7.5q10 -48 64.5 -63t135.5 -15h116q20 0 27.5 -10t7.5 -20v-166zM304 1101l148 145l145 -145l-145 -147zM866 -82l-147 -146l-125 118l-128 -118l-144 146l144 148l128 -120l125 120zM739 -315l-147 -146l-146 146l146 147z" />
    <glyph glyph-name="uni06C2.fina" unicode="&#x6c2;" horiz-adv-x="540" 
d="M399 0q-41 0 -63.5 30t-33.5 65q-12 35 -25.5 64.5t-40.5 29.5q-31 0 -62.5 -18t-60 -49t-51.5 -74t-36 -93h-12q-9 47 -9 81q0 83 19.5 159t53.5 132.5t79.5 90.5t98.5 34q38 0 56.5 -33t30.5 -74q11 -43 29.5 -79t50.5 -36h141q21 0 28.5 -10t7.5 -20v-166
q0 -34 -36 -34h-165zM5 599q15 10 47.5 27.5t55.5 21.5q-32 16 -48 34.5t-16 49.5t15 63.5t39.5 59t54.5 43.5t61 17q17 0 34 -3.5t26 -8.5v-99q-15 6 -31 10.5t-37 4.5q-41 0 -67.5 -20.5t-26.5 -45.5q0 -21 26.5 -42.5t69.5 -21.5q23 0 58.5 8t71.5 19l-10 -98
q-43 -8 -78.5 -16.5t-69 -20.5t-67 -30.5t-72.5 -46.5z" />
    <glyph glyph-name="uni06C3.fina" unicode="&#x6c3;" horiz-adv-x="550" 
d="M408 0q-41 0 -63.5 30t-33.5 65t-25 64.5t-40 29.5q-32 0 -63.5 -18t-60 -49t-51.5 -74t-36 -93h-12q-9 47 -9 81q0 83 19.5 159t53.5 132.5t79.5 90.5t99.5 34q38 0 56.5 -33t29.5 -74q11 -43 29.5 -79t50.5 -36h142q20 0 28 -10t8 -20v-166q0 -34 -36 -34h-166zM5 821
l148 146l117 -118l119 118l146 -146l-146 -148l-119 120l-117 -120z" />
    <glyph glyph-name="uni06C4.fina" unicode="&#x6c4;" horiz-adv-x="966" 
d="M612 230q0 35 -10.5 77t-30 78.5t-47.5 60.5t-63 24q-28 0 -54 -14t-46 -35.5t-32 -48.5t-12 -55q0 -37 30 -62t114 -25h151zM371 -261q15 8 29 17q11 9 20 21q11 14 11 29v3q0 13 -13 26t-30.5 22t-35.5 15q-16 4 -26 4h-4q-22 0 -27.5 -14.5t-5.5 -41.5q0 -19 2 -35
t6.5 -30t13.5 -22q7 -7 17 -7h3q10 0 28 7q6 2 12 6zM506 -161q72 72 97 161h-157q-90 0 -144.5 25t-84 60.5t-40 75t-10.5 67.5q0 59 27.5 136.5t76.5 147.5t116.5 117.5t147.5 47.5q58 0 104 -39t76.5 -103.5t48 -144.5t21.5 -160h206q20 0 27.5 -10t7.5 -20v-166
q0 -34 -35 -34h-213q-11 -45 -40 -116t-90 -153t-160.5 -168.5t-250.5 -161.5l-127 205q76 32 139 65q-14 13 -27 30q-20 27 -32.5 61.5t-13.5 70.5v7q0 20 5 37q6 20 17 36.5t30 26t44 9.5h5q16 0 38 -4q26 -6 55 -16t56.5 -25t50.5 -34q17 -15 29 -31z" />
    <glyph glyph-name="uni06CA.fina" unicode="&#x6ca;" horiz-adv-x="966" 
d="M612 230q0 35 -10.5 77t-30 78.5t-47.5 60.5t-63 24q-28 0 -54 -14t-46 -35.5t-32 -48.5t-12 -55q0 -37 30 -62t114 -25h151zM778 0q-11 -45 -40 -116t-90 -153t-160.5 -168.5t-250.5 -161.5l-127 205q209 90 334 180.5t159 213.5h-157q-90 0 -144.5 25t-84 60.5t-40 75
t-10.5 67.5q0 59 27.5 136.5t76.5 147.5t116.5 117.5t147.5 47.5q58 0 104 -39t76.5 -103.5t48 -144.5t21.5 -160h206q20 0 27.5 -10t7.5 -20v-166q0 -34 -35 -34h-213zM236 1016l146 146l126 -118l127 118l146 -146l-146 -148l-127 120l-126 -120z" />
    <glyph glyph-name="uni06CD.fina" unicode="&#x6cd;" horiz-adv-x="1618" 
d="M579 283q-26 -57 -44.5 -121.5t-18.5 -135.5q0 -72 28.5 -122t79 -80.5t119.5 -44.5t149 -14q146 0 245.5 11.5t159.5 28.5t86 41t26 47q0 50 -68 76.5t-225 35.5l54 225h473q21 0 28 -10t7 -20v-166q0 -34 -35 -34h-43q-48 -244 -232.5 -353.5t-481.5 -109.5
q-160 0 -272 34.5t-181.5 94.5t-102.5 139t-36 167q-2 58 3 117l-198 -173l-99 177q107 46 188 90.5t138 89.5q45 37 76 78l156 -59z" />
    <glyph glyph-name="uni06CE.init" unicode="&#x6ce;" horiz-adv-x="564" 
d="M-19 0q-21 0 -28.5 9t-7.5 21v166q0 34 36 34h121h43t48 0.5t45.5 2.5t36.5 6q6 17 6 41q0 30 -30 104.5t-96 203.5l208 63q38 -106 60 -199.5t22 -177.5q0 -80 -26 -137t-63 -119q-37 -9 -101 -13.5t-121 -4.5h-153zM12 -326l148 145l118 -118l119 118l145 -145
l-145 -148l-119 120l-118 -120zM357 1236l122 -64q-37 -68 -68 -134q-41 -91 -70 -174h-112q-28 83 -71 176q-30 64 -65 130l117 66q32 -96 76 -192q36 81 63 166q3 13 8 26z" />
    <glyph glyph-name="uni06CE.medi" unicode="&#x6ce;" horiz-adv-x="617" 
d="M-19 0q-21 0 -28.5 9t-7.5 21v166q0 34 36 34h96q62 0 98.5 3.5t55 12t24 22.5t7.5 34l17 250l239 45l-32 -216q-2 -9 -2.5 -20.5t-0.5 -20.5q0 -64 20.5 -87t89.5 -23h48q20 0 28 -10t8 -20v-166q0 -34 -36 -34h-56q-106 0 -170 33t-82 127q-26 -50 -48.5 -82
t-47.5 -48.5t-55 -23t-71 -6.5h-130zM75 -326l148 145l117 -118l120 118l145 -145l-145 -148l-120 120l-117 -120zM466 1236l122 -64q-37 -68 -67 -134q-42 -91 -70 -174h-112q-29 83 -71 176q-31 64 -66 130l117 66q32 -96 76 -192q36 81 63 166z" />
    <glyph glyph-name="uni06CE.fina" unicode="&#x6ce;" horiz-adv-x="1321" 
d="M1303 0q-48 -244 -232.5 -353.5t-481.5 -109.5q-160 0 -272 34.5t-181.5 94.5t-102.5 139t-33 167q0 103 30 201.5t75 177.5l177 -68q-26 -57 -44.5 -121.5t-18.5 -135.5q0 -72 28.5 -122t79 -80.5t119.5 -44.5t149 -14q146 0 245.5 11.5t159.5 28.5t86 41t26 47
q0 50 -68 76.5t-225 35.5l54 225h473q21 0 28 -10t7 -20v-166q0 -34 -35 -34h-43zM540 872l122 -64q-37 -68 -67 -135q-42 -91 -70 -174h-112q-29 84 -71 177q-30 64 -66 129l118 67q31 -97 75 -192q37 81 63 165q4 13 8 27z" />
    <glyph glyph-name="uni06CF.fina" unicode="&#x6cf;" horiz-adv-x="966" 
d="M612 230q0 35 -10.5 77t-30 78.5t-47.5 60.5t-63 24q-28 0 -54 -14t-46 -35.5t-32 -48.5t-12 -55q0 -37 30 -62t114 -25h151zM778 0q-11 -45 -40 -116t-90 -153t-160.5 -168.5t-250.5 -161.5l-127 205q209 90 334 180.5t159 213.5h-157q-90 0 -144.5 25t-84 60.5t-40 75
t-10.5 67.5q0 59 27.5 136.5t76.5 147.5t116.5 117.5t147.5 47.5q58 0 104 -39t76.5 -103.5t48 -144.5t21.5 -160h206q20 0 27.5 -10t7.5 -20v-166q0 -34 -35 -34h-213zM362 1010l148 146l145 -146l-145 -147z" />
    <glyph glyph-name="uni06D1.init" unicode="&#x6d1;" horiz-adv-x="564" 
d="M-19 0q-21 0 -28.5 9t-7.5 21v166q0 34 36 34h121h43t48 0.5t45.5 2.5t36.5 6q6 17 6 41q0 30 -30 104.5t-96 203.5l208 63q38 -106 60 -199.5t22 -177.5q0 -80 -26 -137t-63 -119q-37 -9 -101 -13.5t-121 -4.5h-153zM501 -353l-147 -145l-126 117l-126 -117l-146 145
l146 148l126 -119l126 119zM374 -586l-147 -146l-145 146l145 148z" />
    <glyph glyph-name="uni06D1.medi" unicode="&#x6d1;" horiz-adv-x="617" 
d="M-19 0q-21 0 -28.5 9t-7.5 21v166q0 34 36 34h96q62 0 98.5 3.5t55 12t24 22.5t7.5 34l17 250l239 45l-32 -216q-2 -9 -2.5 -20.5t-0.5 -20.5q0 -64 20.5 -87t89.5 -23h48q20 0 28 -10t8 -20v-166q0 -34 -36 -34h-56q-106 0 -170 33t-82 127q-26 -50 -48.5 -82
t-47.5 -48.5t-55 -23t-71 -6.5h-130zM604 -347l-148 -146l-125 118l-126 -118l-146 146l146 147l126 -119l125 119zM477 -580l-148 -146l-145 146l145 147z" />
    <glyph glyph-name="uni06D1.fina" unicode="&#x6d1;" horiz-adv-x="1321" 
d="M1303 0q-48 -244 -232.5 -353.5t-481.5 -109.5q-160 0 -272 34.5t-181.5 94.5t-102.5 139t-33 167q0 103 30 201.5t75 177.5l177 -68q-26 -57 -44.5 -121.5t-18.5 -135.5q0 -72 28.5 -122t79 -80.5t119.5 -44.5t149 -14q146 0 245.5 11.5t159.5 28.5t86 41t26 47
q0 50 -68 76.5t-225 35.5l54 225h473q21 0 28 -10t7 -20v-166q0 -34 -35 -34h-43zM897 -728l-146 -146l-126 118l-127 -118l-145 146l145 148l127 -120l126 120zM771 -961l-148 -146l-145 146l145 147z" />
    <glyph glyph-name="uni06D5.fina" unicode="&#x6d5;" horiz-adv-x="853" 
d="M501 334q-15 75 -22.5 135.5t-13.5 144.5q-20 -26 -54.5 -46t-66.5 -34q-89 -37 -126.5 -79t-37.5 -76q0 -14 9 -23t34 -15.5t72 -9.5t124 -3q20 0 38.5 1t43.5 5zM704 0q-54 0 -92 33.5t-65 93.5q-39 -4 -79 -6.5t-81 -2.5q-68 0 -131 9.5t-113 31.5t-78.5 57t-28.5 90
q0 48 14 101.5t44.5 106t80.5 98t119 79.5q70 33 117 73t60 89l151 23q11 -197 20.5 -323t24.5 -198t37.5 -98.5t59.5 -26.5h114q20 0 27.5 -10t7.5 -20v-166q0 -34 -35 -34h-174z" />
    <glyph glyph-name="uni06EE.fina" unicode="&#x6ee;" horiz-adv-x="882" 
d="M907 230q20 0 27.5 -10t7.5 -20v-166q0 -34 -35 -34h-32q-34 0 -66 4.5t-59.5 19.5t-52.5 44t-48 78h-7q-49 -89 -126 -117.5t-200 -28.5h-251v230h210q137 0 191.5 10t54.5 57q0 22 -8 52t-25 75.5t-46.5 110t-74.5 156.5l200 123l148 -461q21 -73 54 -98t100 -25h38z
M543 982q-26 85 -63 166q-43 -96 -75 -192l-118 66q36 66 66 130q43 92 71 176h112q28 -83 70 -174q30 -66 68 -135l-123 -63z" />
    <glyph glyph-name="uni06EF.fina" unicode="&#x6ef;" horiz-adv-x="819" 
d="M843 230q20 0 28 -10t8 -20v-166q0 -34 -36 -34h-36q-47 0 -97 27t-84 89q-13 -62 -51 -147t-96 -178t-133.5 -187.5t-164.5 -174.5l-178 167q153 122 247.5 218.5t145.5 172t67.5 133.5t16.5 104q0 34 -10.5 66.5t-34 69.5t-61.5 81t-93 100l220 136q15 -29 33.5 -73.5
t38 -92.5t37.5 -94.5t29 -80.5q14 -35 25.5 -55.5t30.5 -32t48 -15t77 -3.5h23zM511 860q-26 85 -63 166q-43 -96 -75 -192l-118 66q36 66 66 129q43 93 71 177h112q28 -83 70 -174q30 -66 68 -135l-122 -63q-5 13 -9 26z" />
    <glyph glyph-name="uni06FA.init" unicode="&#x6fa;" horiz-adv-x="1696" 
d="M1486 18q-63 -11 -104 -14.5t-100 -3.5h-83q-106 0 -170 33t-82 127q-26 -50 -48.5 -82t-47.5 -48.5t-55 -23t-71 -6.5h-88q-106 0 -169.5 33t-82.5 127q-50 -100 -115 -130t-146 -30h-143q-21 0 -28.5 9t-7.5 21v166q0 34 36 34h110q125 0 172 15.5t52 56.5l16 195
l226 44l-19 -160q-2 -9 -3 -20.5t-1 -20.5q0 -64 20.5 -87t90.5 -23h46q62 0 98.5 3.5t55 12t24 22.5t7.5 34l16 225l240 44l-32 -190q-2 -9 -2.5 -20.5t-0.5 -20.5q0 -64 20.5 -87t88.5 -23h71h24.5t23 0.5t29.5 2.5t42 6q4 11 5 19.5t1 21.5q0 30 -25 104.5t-90 203.5
l207 63q37 -106 59.5 -199.5t22.5 -177.5q0 -80 -26 -137t-64 -119zM810 -312l147 146l146 -146l-146 -147zM706 1004l146 146l126 -118l127 118l146 -146l-146 -148l-127 120l-126 -120zM832 1244l148 146l145 -146l-145 -147z" />
    <glyph glyph-name="uni06FA.medi" unicode="&#x6fa;" horiz-adv-x="1704" 
d="M1686 0q-107 0 -164.5 33t-76.5 127q-26 -50 -48.5 -82t-48 -48.5t-55 -23t-70.5 -6.5h-24q-106 0 -170 33t-82 127q-26 -50 -48.5 -82t-47.5 -48.5t-55 -23t-71 -6.5h-88q-106 0 -169.5 33t-82.5 127q-50 -100 -115 -130t-146 -30h-143q-21 0 -28.5 9t-7.5 21v166
q0 34 36 34h110q125 0 172 15.5t52 56.5l16 195l226 44l-19 -160q-2 -9 -3 -20.5t-1 -20.5q0 -64 20.5 -87t90.5 -23h46q62 0 98.5 3.5t55 12t24 22.5t7.5 34l16 225l240 44l-32 -190q-2 -9 -2.5 -20.5t-0.5 -20.5q0 -64 20.5 -87t88.5 -23q56 0 89 3.5t49.5 12t22.5 22.5
t7 34l17 250l238 45l-30 -216q-3 -9 -4 -20.5t-1 -20.5q0 -32 3 -53.5t12.5 -33.5t30 -17.5t53.5 -5.5h36q20 0 27.5 -10t7.5 -20v-166q0 -34 -35 -34h-43zM830 -312l147 146l146 -146l-146 -147zM726 1004l146 146l126 -118l127 118l146 -146l-146 -148l-127 120l-126 -120
zM852 1244l148 146l145 -146l-145 -147z" />
    <glyph glyph-name="uni06FA.fina" unicode="&#x6fa;" horiz-adv-x="2251" 
d="M2231 0q-106 0 -163.5 33t-76.5 127q-26 -50 -48.5 -82t-48 -48.5t-55 -23t-70.5 -6.5h-56q-107 0 -170 33t-82 127q-26 -50 -48.5 -82t-48 -48.5t-55 -23t-70.5 -6.5h-56q-41 0 -79.5 26t-54.5 79q-11 -139 -61.5 -237.5t-126.5 -161t-171 -92.5t-197 -30
q-112 0 -203.5 31t-156 87t-99 135t-34.5 178q0 78 22.5 164t66.5 161l185 -80q-54 -112 -54 -221q0 -54 23.5 -96t64.5 -70t95 -42t115 -14q100 0 167 20.5t108 55t58.5 80t17.5 94.5q0 43 -9 86t-25 84t-35.5 78.5t-37.5 67.5l217 100q34 -88 56.5 -138t42 -76.5t42 -32.5
t57.5 -6h28q62 0 98 3.5t55 12t24.5 22.5t7.5 34l17 250l238 45l-31 -216q-2 -9 -3 -20.5t-1 -20.5q0 -64 20.5 -87t89.5 -23h16q61 0 97 3.5t55 12t24.5 22.5t7.5 34l17 250l239 45l-32 -216q-2 -9 -3 -20.5t-1 -20.5q0 -32 2.5 -53.5t12.5 -33.5t30.5 -17.5t53.5 -5.5h38
q20 0 27 -10t7 -20v-166q0 -34 -34 -34h-46zM1339 -312l148 146l146 -146l-146 -147zM1235 1004l147 146l126 -118l126 118l146 -146l-146 -148l-126 120l-126 -120zM1362 1244l148 146l144 -146l-144 -147z" />
    <glyph glyph-name="uni06FB.init" unicode="&#x6fb;" horiz-adv-x="1772" 
d="M1462 242q5 16 9 32.5t4 38.5q0 25 -22.5 61.5t-61 69.5t-86.5 58t-99 25q-37 0 -68 -9t-61.5 -26.5t-64 -45.5t-74.5 -67q-21 -19 -45 -41.5t-48 -44t-46 -39t-37 -24.5h98q72 0 160.5 0.5t174.5 1.5t158 4t109 6zM513 0q-107 0 -170.5 33t-82.5 127q-26 -50 -48.5 -82
t-47.5 -48.5t-55 -23t-71 -6.5h-57q-21 0 -28.5 9t-7.5 21v166q0 34 36 34h41q53 0 86 3.5t50 12t23 22.5t8 34l17 205l239 45l-32 -171q-2 -9 -2.5 -20.5t-0.5 -20.5q0 -64 20.5 -87t89.5 -23h14q59 33 131.5 99t141.5 137q69 73 128.5 125.5t115.5 86.5t112.5 50t115.5 16
q64 0 130 -36.5t120 -91.5t88.5 -119t34.5 -122q0 -21 -6 -61t-16.5 -89t-25.5 -104t-32 -108q-64 -4 -120 -6.5t-116.5 -3.5t-131 -2t-166.5 -1h-525zM1024 1101l147 145l145 -145l-145 -147zM1023 -312l147 146l146 -146l-146 -147z" />
    <glyph glyph-name="uni06FB.medi" unicode="&#x6fb;" horiz-adv-x="1881" 
d="M1462 242q5 16 9 32.5t4 38.5q0 25 -22.5 61.5t-61 69.5t-86.5 58t-99 25q-37 0 -68 -9t-61.5 -26.5t-64 -45.5t-74.5 -67q-21 -19 -45 -41.5t-48 -44t-46 -39t-37 -24.5h98q72 0 160.5 0.5t174.5 1.5t158 4t109 6zM513 0q-107 0 -170.5 33t-82.5 127q-26 -50 -48.5 -82
t-47.5 -48.5t-55 -23t-71 -6.5h-57q-21 0 -28.5 9t-7.5 21v166q0 34 36 34h41q53 0 86 3.5t50 12t23 22.5t8 34l17 205l239 45l-32 -171q-2 -9 -2.5 -20.5t-0.5 -20.5q0 -64 20.5 -87t89.5 -23h14q59 33 132 99t141 137q69 73 128.5 126.5t115.5 86.5t111.5 49t116.5 16
q64 0 129 -34.5t118 -88t88 -119.5t38 -127q2 -39 8.5 -66t25 -45t51.5 -26t87 -8h82q20 0 27.5 -10t7.5 -20v-166q0 -34 -35 -34h-47q-39 0 -78 11.5t-71.5 34.5t-54.5 57.5t-27 79.5q-13 -43 -27 -85t-29 -85q-64 -4 -120 -6.5t-116.5 -3.5t-131 -2t-166.5 -1h-525z
M1022 1101l147 145l145 -145l-145 -147zM1014 -312l147 146l146 -146l-146 -147z" />
    <glyph glyph-name="uni06FB.fina" unicode="&#x6fb;" horiz-adv-x="2644" 
d="M2222 242q5 16 9.5 32.5t4.5 38.5q0 25 -23 61.5t-61 69.5t-86.5 58t-98.5 25q-37 0 -68 -9t-62 -26.5t-64.5 -45.5t-74.5 -67q-21 -19 -45 -41.5t-48 -44t-45.5 -39t-37.5 -24.5h342q101 0 192 3.5t166 8.5zM2412 375q2 -39 8.5 -66t25 -45t51.5 -26t87 -8h84
q20 0 28 -10t8 -20v-166q0 -34 -36 -34h-49q-39 0 -78 11.5t-71.5 34.5t-54 57.5t-27.5 79.5q-13 -43 -27 -85t-29 -85q-64 -4 -129 -6.5t-126.5 -3.5t-116.5 -2t-96 -1h-616q-75 0 -116 25t-80 80q-13 -139 -64 -237.5t-127 -162t-171 -92.5t-197 -29q-112 0 -203.5 31
t-156 87t-99 135t-34.5 178q0 78 22.5 164t66.5 161l185 -80q-54 -112 -54 -221q0 -54 23.5 -96t64.5 -70t95 -42t115 -14q100 0 167 20.5t108 55t58.5 80t17.5 94.5q0 43 -9 86t-25 84t-35.5 78.5t-37.5 67.5l217 100q34 -88 59 -138t49 -76.5t49.5 -32.5t61.5 -6h97
q28 16 62.5 42.5t70 57t70.5 66t69 70.5q69 73 129 126.5t116 86.5t111 49t116 16q64 0 129 -34.5t118.5 -88t88 -119.5t37.5 -127zM1784 1101l147 145l145 -145l-145 -147zM1784 -312l147 146l146 -146l-146 -147z" />
    <glyph glyph-name="uni06FC.init" unicode="&#x6fc;" horiz-adv-x="942" 
d="M-19 0q-21 0 -28.5 9t-7.5 21v166q0 34 36 34h277q-24 16 -39.5 52.5t-15.5 73.5q0 79 36 155.5t93.5 137t129.5 97.5t143 37q38 0 77 -7t59 -16v-232q-31 13 -71 22t-85 9q-43 0 -83 -10.5t-70.5 -30.5t-49.5 -47t-19 -58q0 -34 17 -67t44.5 -59t66 -41.5t83.5 -15.5
h248v-230h-841zM380 1101l147 145l146 -145l-146 -147zM335 -317l148 146l144 -146l-144 -148z" />
    <glyph glyph-name="uni06FC.medi" unicode="&#x6fc;" horiz-adv-x="987" 
d="M705 509q0 11 -9.5 27t-29.5 30t-48.5 24t-69.5 10q-75 0 -127 -26t-90 -67q66 -30 119.5 -71t89.5 -82q165 90 165 155zM-19 0q-21 0 -28.5 9t-7.5 21v166q0 34 36 34h143q81 0 142.5 8t120.5 42q-31 39 -90 82.5t-130 79.5q4 21 12 56.5t18.5 72t21.5 67t23 41.5
q59 60 143 95.5t185 35.5q76 0 131.5 -21.5t92 -56t53 -78.5t16.5 -91q0 -15 -6 -45.5t-27 -72.5t-63 -92.5t-115 -106.5q15 -7 35.5 -11.5t44.5 -4.5h280q21 0 28 -10t7 -20v-166q0 -34 -35 -34h-358q-38 0 -89 19.5t-90 75.5q-39 -22 -76.5 -40t-79 -30t-92.5 -18.5
t-116 -6.5h-130zM344 1101l148 145l145 -145l-145 -147zM349 -317l148 146l145 -146l-145 -148z" />
    <glyph glyph-name="uni06FC.fina" unicode="&#x6fc;" horiz-adv-x="948" 
d="M664 563q0 14 -10 30t-29.5 29.5t-48.5 23t-69 9.5q-78 0 -135 -28t-81 -66q54 -25 107.5 -68t101.5 -84q89 48 126.5 85.5t37.5 68.5zM0 -287q0 118 36.5 209t89.5 164t115.5 128t112.5 98q-11 18 -36 43.5t-56.5 52.5t-67 50t-67.5 39q1 16 10 51.5t19 73t22 69
t23 42.5q50 54 140 92.5t189 38.5q79 0 133.5 -21.5t90 -57t52.5 -79.5t17 -88q0 -18 -7.5 -50t-30 -74t-64.5 -91.5t-109 -101.5q18 -27 40.5 -42t47 -21.5t49.5 -7t47 -0.5h176q21 0 28.5 -10t7.5 -20v-166q0 -34 -36 -34h-278q-78 0 -136 32t-110 121
q-56 -35 -104.5 -75.5t-84 -87t-56 -101.5t-20.5 -119q0 -59 23.5 -112t70 -93.5t113.5 -64.5t157 -24q97 0 172 19.5t136 50.5l96 -173q-111 -65 -222 -92t-207 -27q-104 0 -199 29.5t-167 88.5t-114 144t-42 197zM367 1101l148 145l145 -145l-145 -147zM364 -244l147 146
l145 -146l-145 -148z" />
    <glyph glyph-name="uni06FF.init" unicode="&#x6ff;" horiz-adv-x="1326" 
d="M-19 0q-21 0 -28.5 9t-7.5 21v166q0 34 36 34h281q-9 24 -12.5 51t-3.5 52q0 46 18.5 95t47 95t63.5 85.5t65 64.5q23 21 43 41.5t20 35.5q0 37 21 76t53 60q171 -78 284 -160t180.5 -161.5t95.5 -152t28 -132.5q0 -11 -1 -28t-5 -30l-44 -222h-1134zM598 230
q36 39 50.5 73.5t14.5 66.5q0 24 -12 56.5t-30.5 62t-42.5 50t-49 20.5q-21 0 -45 -22t-46.5 -57t-37.5 -74t-15 -72q0 -104 160 -104h53zM995 230q10 28 10 67q0 15 -13 44t-45 65t-88 76t-141 79q39 -54 54 -103t15 -83q0 -21 -5 -62.5t-20 -82.5h233zM640 1034
q-26 85 -63 166q-43 -96 -75 -192l-118 66q36 66 66 129q43 93 71 177h112q28 -83 70 -174q30 -66 67 -135l-122 -63z" />
    <glyph glyph-name="uni06FF.medi" unicode="&#x6ff;" horiz-adv-x="973" 
d="M399 226q70 0 119.5 16t80.5 42t44 62.5t13 75.5q0 78 -21.5 112t-49.5 34q-26 0 -63.5 -22t-73 -65t-62 -106t-32.5 -149h45zM585 -271q58 0 58 77q0 39 -19 75.5t-51.5 65t-78 46.5t-97.5 18h-43q6 -84 25.5 -138t50 -86.5t70.5 -45t85 -12.5zM-19 0q-21 0 -28.5 9
t-7.5 21v166q0 34 36 34h208q12 124 59.5 226.5t118.5 175.5t155.5 112t172.5 39q33 0 58.5 -23t42 -58.5t25.5 -77.5t9 -79q0 -89 -30.5 -166t-72.5 -149h270q21 0 28.5 -10t7.5 -20v-166q0 -34 -36 -34h-265v-9q17 -41 26.5 -100.5t9.5 -114.5q0 -54 -12 -100t-37.5 -80
t-64.5 -53.5t-93 -19.5q-57 0 -123 20.5t-123 74.5t-95 146t-38 236h-201zM649 970q-26 85 -63 166q-43 -96 -75 -192l-118 66q36 66 66 130q43 93 71 176h112q28 -82 70 -174q30 -66 68 -134l-123 -64z" />
    <glyph glyph-name="uni06FF.fina" unicode="&#x6ff;" horiz-adv-x="1101" 
d="M527 226q70 0 119.5 16t80 42t43.5 62.5t13 75.5q0 78 -21 112t-50 34q-25 0 -62.5 -22t-73 -65t-62.5 -106t-33 -149h46zM712 -271q59 0 59 77q0 39 -19 75.5t-51.5 65t-78 46.5t-98.5 18h-43q6 -84 26 -138t50.5 -86.5t70.5 -45t84 -12.5zM203 0q-65 0 -88.5 -34.5
t-23.5 -118.5h-14q-36 48 -56.5 108t-20.5 114q0 65 36.5 113t123.5 48h157q11 124 59 226.5t119 175.5t155.5 112t172.5 39q33 0 58 -23t42 -58.5t25.5 -77.5t8.5 -79q0 -89 -30 -166t-72 -149h270q20 0 28 -10t8 -20v-166q0 -34 -36 -34h-265v-9q17 -41 26.5 -100.5
t9.5 -114.5q0 -54 -12.5 -100t-37.5 -80t-64.5 -53.5t-92.5 -19.5q-57 0 -123 20.5t-123 74.5t-95 146t-38 236h-107zM749 970q-27 85 -63 166q-44 -96 -76 -192l-117 66q35 66 65 130q43 93 72 176h112q28 -82 70 -174q30 -66 67 -134l-122 -64z" />
    <glyph glyph-name="uniFB50" unicode="&#x671;" horiz-adv-x="469" arabic-form="isolated" 
d="M342 1232v-1232h-215v1232h215zM356 1433q0 13 -17 30t-38 17q-24 0 -44.5 -14.5t-46.5 -47.5q9 -4 29.5 -9.5t36.5 -5.5q48 0 64 7.5t16 22.5zM415 1429q0 -33 -29.5 -67t-98.5 -34q-27 0 -55.5 11.5t-49.5 26.5q-20 15 -29.5 19.5t-17.5 4.5q-26 0 -57 -56l-62 58
q30 41 57 57t46 16q11 0 24 -2t32 -17q31 56 66 82t68 26q28 0 48.5 -13t32.5 -32.5t18.5 -41t6.5 -38.5z" />
    <glyph glyph-name="uniFB51" unicode="&#x671;" horiz-adv-x="468" arabic-form="final" 
d="M385 0q-71 0 -120 23t-79.5 60.5t-44.5 85.5t-14 98v968h215v-899q0 -67 20.5 -86.5t83.5 -19.5h47q20 0 27.5 -10t7.5 -20v-166q0 -34 -35 -34h-108zM356 1433q0 13 -17 30t-38 17q-24 0 -44.5 -14.5t-46.5 -47.5q9 -4 29.5 -9.5t36.5 -5.5q48 0 64 7.5t16 22.5z
M415 1429q0 -33 -29.5 -67t-98.5 -34q-27 0 -55.5 11.5t-49.5 26.5q-20 15 -29.5 19.5t-17.5 4.5q-26 0 -57 -56l-62 58q30 41 57 57t46 16q11 0 24 -2t32 -17q31 56 66 82t68 26q28 0 48.5 -13t32.5 -32.5t18.5 -41t6.5 -38.5z" />
    <glyph glyph-name="uniFB52" unicode="&#x67b;" horiz-adv-x="1743" arabic-form="isolated" 
d="M1623 278q0 -80 -26 -139t-66 -121q-68 -5 -170 -11.5t-217 -13t-231.5 -10.5t-212.5 -4q-364 0 -532 74.5t-168 250.5q0 50 19.5 124t47.5 143l163 29q-23 -62 -37.5 -117.5t-14.5 -81.5q0 -56 28.5 -93t93.5 -59.5t172 -32t263 -9.5q34 0 92.5 1t129.5 4t146.5 5.5
t144.5 6.5t123.5 7.5t81.5 7.5q4 11 5 18.5t1 22.5q0 35 -35.5 118t-89.5 190l207 63q19 -51 34 -103.5t26 -103t16.5 -93.5t5.5 -73zM823 -495l-129 129l146 146l147 -146l-130 -129l130 -129l-147 -146l-146 146z" />
    <glyph glyph-name="uniFB53" unicode="&#x67b;" horiz-adv-x="1674" arabic-form="final" 
d="M1642 0q-106 0 -171.5 33t-80.5 127q-30 -65 -79.5 -101t-129.5 -54t-198 -22t-283 -4q-364 0 -532 74.5t-168 250.5q0 50 19.5 122t47.5 142l163 29q-52 -99 -52 -193q0 -55 28.5 -92.5t93.5 -59.5t172 -32t261 -10q138 0 234 2.5t161 7t102 15.5t56.5 29t27 45t12.5 66
q2 13 4 37t3 50.5t2 51.5t1 38l239 45l-28 -191q-2 -9 -4.5 -34t-2.5 -34q0 -58 19.5 -83t89.5 -25h49q20 0 28 -10t8 -20v-166q0 -34 -36 -34h-56zM741 -486l-129 129l146 147l147 -147l-130 -129l130 -129l-147 -146l-146 146z" />
    <glyph glyph-name="uniFB54" unicode="&#x67b;" horiz-adv-x="565" arabic-form="initial" 
d="M-19 0q-21 0 -28.5 9t-7.5 21v166q0 34 36 34h121h43t48 0.5t45.5 2.5t36.5 6q6 17 6 41q0 30 -30 104.5t-96 203.5l208 63q38 -106 60 -199.5t22 -177.5q0 -80 -26 -137t-63 -119q-37 -9 -101 -13.5t-121 -4.5h-153zM213 -476l-129 128l146 147l147 -147l-130 -128
l130 -130l-147 -146l-146 146z" />
    <glyph glyph-name="uniFB55" unicode="&#x67b;" horiz-adv-x="617" arabic-form="medial" 
d="M-19 0q-21 0 -28.5 9t-7.5 21v166q0 34 36 34h96q62 0 98.5 3.5t55 12t24 22.5t7.5 34l17 250l239 45l-32 -216q-2 -9 -2.5 -20.5t-0.5 -20.5q0 -64 20.5 -87t89.5 -23h48q20 0 28 -10t8 -20v-166q0 -34 -36 -34h-56q-106 0 -170 33t-82 127q-26 -50 -48.5 -82
t-47.5 -48.5t-55 -23t-71 -6.5h-130zM313 -476l-128 128l145 147l147 -147l-129 -128l129 -130l-147 -146l-145 146z" />
    <glyph glyph-name="uniFB56" unicode="&#x67e;" horiz-adv-x="1743" arabic-form="isolated" 
d="M1623 278q0 -80 -26 -139t-66 -121q-68 -5 -170 -11.5t-217 -13t-231.5 -10.5t-212.5 -4q-364 0 -532 74.5t-168 250.5q0 50 19.5 124t47.5 143l163 29q-23 -62 -37.5 -117.5t-14.5 -81.5q0 -56 28.5 -93t93.5 -59.5t172 -32t263 -9.5q34 0 92.5 1t129.5 4t146.5 5.5
t144.5 6.5t123.5 7.5t81.5 7.5q4 11 5 18.5t1 22.5q0 35 -35.5 118t-89.5 190l207 63q19 -51 34 -103.5t26 -103t16.5 -93.5t5.5 -73zM1114 -364l-147 -145l-125 117l-128 -117l-145 145l145 147l128 -119l125 119zM987 -597l-147 -145l-146 145l146 147z" />
    <glyph glyph-name="uniFB57" unicode="&#x67e;" horiz-adv-x="1674" arabic-form="final" 
d="M1642 0q-106 0 -171.5 33t-80.5 127q-30 -65 -79.5 -101t-129.5 -54t-198 -22t-283 -4q-364 0 -532 74.5t-168 250.5q0 50 19.5 122t47.5 142l163 29q-52 -99 -52 -193q0 -55 28.5 -92.5t93.5 -59.5t172 -32t261 -10q138 0 234 2.5t161 7t102 15.5t56.5 29t27 45t12.5 66
q2 13 4 37t3 50.5t2 51.5t1 38l239 45l-28 -191q-2 -9 -4.5 -34t-2.5 -34q0 -58 19.5 -83t89.5 -25h49q20 0 28 -10t8 -20v-166q0 -34 -36 -34h-56zM1029 -356l-146 -146l-126 118l-127 -118l-145 146l145 147l127 -119l126 119zM903 -589l-148 -146l-145 146l145 147z" />
    <glyph glyph-name="uniFB58" unicode="&#x67e;" horiz-adv-x="564" arabic-form="initial" 
d="M-19 0q-21 0 -28.5 9t-7.5 21v166q0 34 36 34h121h43t48 0.5t45.5 2.5t36.5 6q6 17 6 41q0 30 -30 104.5t-96 203.5l208 63q38 -106 60 -199.5t22 -177.5q0 -80 -26 -137t-63 -119q-37 -9 -101 -13.5t-121 -4.5h-153zM501 -353l-147 -145l-126 117l-126 -117l-146 145
l146 148l126 -119l126 119zM374 -586l-147 -146l-145 146l145 148z" />
    <glyph glyph-name="uniFB59" unicode="&#x67e;" horiz-adv-x="617" arabic-form="medial" 
d="M-19 0q-21 0 -28.5 9t-7.5 21v166q0 34 36 34h96q62 0 98.5 3.5t55 12t24 22.5t7.5 34l17 250l239 45l-32 -216q-2 -9 -2.5 -20.5t-0.5 -20.5q0 -64 20.5 -87t89.5 -23h48q20 0 28 -10t8 -20v-166q0 -34 -36 -34h-56q-106 0 -170 33t-82 127q-26 -50 -48.5 -82
t-47.5 -48.5t-55 -23t-71 -6.5h-130zM594 -347l-148 -146l-125 118l-126 -118l-146 146l146 147l126 -119l125 119zM467 -580l-148 -146l-145 146l145 147z" />
    <glyph glyph-name="uniFB5A" unicode="&#x680;" horiz-adv-x="1743" arabic-form="isolated" 
d="M1623 278q0 -80 -26 -139t-66 -121q-68 -5 -170 -11.5t-217 -13t-231.5 -10.5t-212.5 -4q-364 0 -532 74.5t-168 250.5q0 50 19.5 124t47.5 143l163 29q-23 -62 -37.5 -117.5t-14.5 -81.5q0 -56 28.5 -93t93.5 -59.5t172 -32t263 -9.5q34 0 92.5 1t129.5 4t146.5 5.5
t144.5 6.5t123.5 7.5t81.5 7.5q4 11 5 18.5t1 22.5q0 35 -35.5 118t-89.5 190l207 63q19 -51 34 -103.5t26 -103t16.5 -93.5t5.5 -73zM975 -502l139 -138l-147 -146l-125 117l-128 -117l-145 146l138 138l-138 138l145 147l128 -119l125 119l147 -147zM722 -502l120 -111
l116 111l-116 110z" />
    <glyph glyph-name="uniFB5B" unicode="&#x680;" horiz-adv-x="1674" arabic-form="final" 
d="M1642 0q-106 0 -171.5 33t-80.5 127q-30 -65 -79.5 -101t-129.5 -54t-198 -22t-283 -4q-364 0 -532 74.5t-168 250.5q0 50 19.5 122t47.5 142l163 29q-52 -99 -52 -193q0 -55 28.5 -92.5t93.5 -59.5t172 -32t261 -10q138 0 234 2.5t161 7t102 15.5t56.5 29t27 45t12.5 66
q2 13 4 37t3 50.5t2 51.5t1 38l239 45l-28 -191q-2 -9 -4.5 -34t-2.5 -34q0 -58 19.5 -83t89.5 -25h49q20 0 28 -10t8 -20v-166q0 -34 -36 -34h-56zM887 -497l140 -140l-147 -146l-126 118l-126 -118l-146 146l141 142l-138 139l145 147l127 -119l126 119l146 -147z
M636 -497l118 -112l121 114l-118 111z" />
    <glyph glyph-name="uniFB5C" unicode="&#x680;" horiz-adv-x="564" arabic-form="initial" 
d="M-19 0q-21 0 -28.5 9t-7.5 21v166q0 34 36 34h121h43t48 0.5t45.5 2.5t36.5 6q6 17 6 41q0 30 -30 104.5t-96 203.5l208 63q38 -106 60 -199.5t22 -177.5q0 -80 -26 -137t-63 -119q-37 -9 -101 -13.5t-121 -4.5h-153zM358 -496l143 -144l-147 -145l-126 117l-126 -117
l-146 145l143 144l-143 143l146 148l126 -119l126 119l147 -148zM105 -496l123 -115l122 115l-122 115z" />
    <glyph glyph-name="uniFB5D" unicode="&#x680;" horiz-adv-x="617" arabic-form="medial" 
d="M-19 0q-21 0 -28.5 9t-7.5 21v166q0 34 36 34h96q62 0 98.5 3.5t55 12t24 22.5t7.5 34l17 250l239 45l-32 -216q-2 -9 -2.5 -20.5t-0.5 -20.5q0 -64 20.5 -87t89.5 -23h48q20 0 28 -10t8 -20v-166q0 -34 -36 -34h-56q-106 0 -170 33t-82 127q-26 -50 -48.5 -82
t-47.5 -48.5t-55 -23t-71 -6.5h-130zM462 -486l142 -142l-148 -145l-125 117l-126 -117l-146 145l139 142l-139 139l146 147l126 -119l125 119l148 -147zM211 -486l120 -113l119 113l-119 111z" />
    <glyph glyph-name="uniFB5E" unicode="&#x67a;" horiz-adv-x="1743" arabic-form="isolated" 
d="M1623 278q0 -80 -26 -139t-66 -121q-68 -5 -170 -11.5t-217 -13t-231.5 -10.5t-212.5 -4q-364 0 -532 74.5t-168 250.5q0 50 19.5 124t47.5 143l163 29q-23 -62 -37.5 -117.5t-14.5 -81.5q0 -56 28.5 -93t93.5 -59.5t172 -32t263 -9.5q34 0 92.5 1t129.5 4t146.5 5.5
t144.5 6.5t123.5 7.5t81.5 7.5q4 11 5 18.5t1 22.5q0 35 -35.5 118t-89.5 190l207 63q19 -51 34 -103.5t26 -103t16.5 -93.5t5.5 -73zM853 995l135 -137l-144 -146l-148 146l138 137l-138 137l148 145l144 -145z" />
    <glyph glyph-name="uniFB5F" unicode="&#x67a;" horiz-adv-x="1674" arabic-form="final" 
d="M1642 0q-106 0 -171.5 33t-80.5 127q-30 -65 -79.5 -101t-129.5 -54t-198 -22t-283 -4q-364 0 -532 74.5t-168 250.5q0 50 19.5 122t47.5 142l163 29q-52 -99 -52 -193q0 -55 28.5 -92.5t93.5 -59.5t172 -32t261 -10q138 0 234 2.5t161 7t102 15.5t56.5 29t27 45t12.5 66
q2 13 4 37t3 50.5t2 51.5t1 38l239 45l-28 -191q-2 -9 -4.5 -34t-2.5 -34q0 -58 19.5 -83t89.5 -25h49q20 0 28 -10t8 -20v-166q0 -34 -36 -34h-56zM798 986l136 -137l-145 -147l-148 147l138 137l-138 136l148 146l145 -146z" />
    <glyph glyph-name="uniFB60" unicode="&#x67a;" horiz-adv-x="565" arabic-form="initial" 
d="M-19 0q-21 0 -28.5 9t-7.5 21v166q0 34 36 34h121h43t48 0.5t45.5 2.5t36.5 6q6 17 6 41q0 30 -30 104.5t-96 203.5l208 63q38 -106 60 -199.5t22 -177.5q0 -80 -26 -137t-63 -119q-37 -9 -101 -13.5t-121 -4.5h-153zM293 1135l136 -137l-145 -146l-148 146l138 137
l-138 137l148 146l145 -146z" />
    <glyph glyph-name="uniFB61" unicode="&#x67a;" horiz-adv-x="617" arabic-form="medial" 
d="M-19 0q-21 0 -28.5 9t-7.5 21v166q0 34 36 34h96q62 0 98.5 3.5t55 12t24 22.5t7.5 34l17 250l239 45l-32 -216q-2 -9 -2.5 -20.5t-0.5 -20.5q0 -64 20.5 -87t89.5 -23h48q20 0 28 -10t8 -20v-166q0 -34 -36 -34h-56q-106 0 -170 33t-82 127q-26 -50 -48.5 -82
t-47.5 -48.5t-55 -23t-71 -6.5h-130zM389 1013l135 -137l-144 -146l-148 146l138 137l-138 137l148 145l144 -145z" />
    <glyph glyph-name="uniFB62" unicode="&#x67f;" horiz-adv-x="1743" arabic-form="isolated" 
d="M1623 278q0 -80 -26 -139t-66 -121q-68 -5 -170 -11.5t-217 -13t-231.5 -10.5t-212.5 -4q-364 0 -532 74.5t-168 250.5q0 50 19.5 124t47.5 143l163 29q-23 -62 -37.5 -117.5t-14.5 -81.5q0 -56 28.5 -93t93.5 -59.5t172 -32t263 -9.5q34 0 92.5 1t129.5 4t146.5 5.5
t144.5 6.5t123.5 7.5t81.5 7.5q4 11 5 18.5t1 22.5q0 35 -35.5 118t-89.5 190l207 63q19 -51 34 -103.5t26 -103t16.5 -93.5t5.5 -73zM680 1120l-139 137l148 146l117 -118l120 118l145 -146l-136 -137l136 -137l-145 -147l-120 120l-117 -120l-148 147zM916 1120l-110 110
l-108 -110l108 -109z" />
    <glyph glyph-name="uniFB63" unicode="&#x67f;" horiz-adv-x="1674" arabic-form="final" 
d="M1642 0q-106 0 -171.5 33t-80.5 127q-30 -65 -79.5 -101t-129.5 -54t-198 -22t-283 -4q-364 0 -532 74.5t-168 250.5q0 50 19.5 122t47.5 142l163 29q-52 -99 -52 -193q0 -55 28.5 -92.5t93.5 -59.5t172 -32t261 -10q138 0 234 2.5t161 7t102 15.5t56.5 29t27 45t12.5 66
q2 13 4 37t3 50.5t2 51.5t1 38l239 45l-28 -191q-2 -9 -4.5 -34t-2.5 -34q0 -58 19.5 -83t89.5 -25h49q20 0 28 -10t8 -20v-166q0 -34 -36 -34h-56zM679 1134l-138 138l148 145l117 -118l120 118l145 -145l-136 -138l136 -136l-145 -147l-120 119l-117 -119l-148 147z
M916 1134l-110 110l-108 -110l108 -108z" />
    <glyph glyph-name="uniFB64" unicode="&#x67f;" horiz-adv-x="637" arabic-form="initial" 
d="M-19 0q-21 0 -28.5 9t-7.5 21v166q0 34 36 34h194h43t48 0.5t45.5 2.5t36.5 6q6 17 6 41q0 30 -30 104.5t-96 203.5l208 63q37 -106 59.5 -199.5t22.5 -177.5q0 -80 -26 -137t-63 -119q-38 -9 -101.5 -13.5t-121.5 -4.5h-225zM199 1246l-145 144l148 146l118 -118
l119 118l146 -146l-141 -141l143 -143l-145 -147l-120 120l-117 -120l-148 147zM436 1246l-116 117l-113 -114l115 -115z" />
    <glyph glyph-name="uniFB65" unicode="&#x67f;" horiz-adv-x="689" arabic-form="medial" 
d="M-19 0q-21 0 -28.5 9t-7.5 21v166q0 34 36 34h169q62 0 98.5 3.5t55 12t24 22.5t7.5 34l17 250l239 45l-32 -216q-2 -9 -3 -20.5t-1 -20.5q0 -64 20.5 -87t90.5 -23h48q20 0 27.5 -10t7.5 -20v-166q0 -34 -35 -34h-57q-105 0 -169 33t-82 127q-26 -50 -48.5 -82
t-47.5 -48.5t-55 -23t-71 -6.5h-203zM294 1136l-138 138l148 144l118 -117l119 117l146 -144l-137 -138l137 -136l-146 -147l-119 119l-118 -119l-148 147zM531 1136l-109 109l-109 -109l109 -108z" />
    <glyph glyph-name="uniFB66" unicode="&#x679;" horiz-adv-x="1743" arabic-form="isolated" 
d="M1623 278q0 -80 -26 -139t-66 -121q-68 -5 -170 -11.5t-217 -13t-231.5 -10.5t-212.5 -4q-364 0 -532 74.5t-168 250.5q0 50 19.5 124t47.5 143l163 29q-23 -62 -37.5 -117.5t-14.5 -81.5q0 -56 28.5 -93t93.5 -59.5t172 -32t263 -9.5q34 0 92.5 1t129.5 4t146.5 5.5
t144.5 6.5t123.5 7.5t81.5 7.5q4 11 5 18.5t1 22.5q0 35 -35.5 118t-89.5 190l207 63q19 -51 34 -103.5t26 -103t16.5 -93.5t5.5 -73zM957 819q0 28 -28 53t-53 25q-29 0 -62.5 -23t-87.5 -83h225q6 13 6 28zM586 714v77h73v336h67v-276q48 67 89 97t84 30q32 0 57 -16
t42 -39.5t25.5 -50.5t8.5 -48q0 -5 -3 -19t-6.5 -31t-8.5 -32.5t-10 -27.5h-418z" />
    <glyph glyph-name="uniFB67" unicode="&#x679;" horiz-adv-x="1674" arabic-form="final" 
d="M1642 0q-106 0 -171.5 33t-80.5 127q-30 -65 -79.5 -101t-129.5 -54t-198 -22t-283 -4q-364 0 -532 74.5t-168 250.5q0 50 19.5 122t47.5 142l163 29q-52 -99 -52 -193q0 -55 28.5 -92.5t93.5 -59.5t172 -32t261 -10q138 0 234 2.5t161 7t102 15.5t56.5 29t27 45t12.5 66
q2 13 4 37t3 50.5t2 51.5t1 38l239 45l-28 -191q-2 -9 -4.5 -34t-2.5 -34q0 -58 19.5 -83t89.5 -25h49q20 0 28 -10t8 -20v-166q0 -34 -36 -34h-56zM944 819q0 28 -28 53t-54 25q-28 0 -61.5 -23t-88.5 -83h226q6 13 6 28zM573 714v77h73v336h66v-276q50 67 91 97t83 30
q32 0 57 -16t42 -39.5t25.5 -50.5t8.5 -48q0 -5 -3 -19t-6.5 -31t-8 -32.5t-11.5 -27.5h-417z" />
    <glyph glyph-name="uniFB68" unicode="&#x679;" horiz-adv-x="564" arabic-form="initial" 
d="M-19 0q-21 0 -28.5 9t-7.5 21v166q0 34 36 34h121h43t48 0.5t45.5 2.5t36.5 6q6 17 6 41q0 30 -30 104.5t-96 203.5l208 63q38 -106 60 -199.5t22 -177.5q0 -80 -26 -137t-63 -119q-37 -9 -101 -13.5t-121 -4.5h-153zM426 845q0 28 -28 53.5t-54 25.5q-27 0 -61 -23.5
t-88 -83.5h226q5 13 5 28zM55 741v76h73v336h67v-276q49 67 90 97t84 30q32 0 57 -16t41.5 -39t25 -50.5t8.5 -47.5q0 -6 -3 -20t-6.5 -31t-8 -32.5t-10.5 -26.5h-418z" />
    <glyph glyph-name="uniFB69" unicode="&#x679;" horiz-adv-x="617" arabic-form="medial" 
d="M-19 0q-21 0 -28.5 9t-7.5 21v166q0 34 36 34h96q62 0 98.5 3.5t55 12t24 22.5t7.5 34l17 250l239 45l-32 -216q-2 -9 -2.5 -20.5t-0.5 -20.5q0 -64 20.5 -87t89.5 -23h48q20 0 28 -10t8 -20v-166q0 -34 -36 -34h-56q-106 0 -170 33t-82 127q-26 -50 -48.5 -82
t-47.5 -48.5t-55 -23t-71 -6.5h-130zM532 819q0 28 -28 53t-54 25q-28 0 -61.5 -23t-88.5 -83h226q6 13 6 28zM161 714v77h73v336h66v-276q50 67 91 97t83 30q32 0 57 -16t42 -39.5t25 -50.5t8 -48q0 -5 -2.5 -19t-6 -31t-8 -32.5t-10.5 -27.5h-418z" />
    <glyph glyph-name="uniFB6A" unicode="&#x6a4;" horiz-adv-x="1931" arabic-form="isolated" 
d="M1716 9q-46 -4 -121.5 -7.5t-167 -6t-192.5 -6.5t-198 -5.5t-184.5 -3t-152.5 -1.5q-364 0 -532 74.5t-168 250.5q0 50 19.5 124t47.5 143l163 29q-23 -62 -37.5 -117.5t-14.5 -81.5q0 -56 28.5 -93t93.5 -59.5t172 -32t263 -9.5q34 0 107.5 1t166 4t194.5 5.5t192 6.5
t159 7.5t97 7.5q3 9 5.5 26t4.5 35.5t2.5 35.5t0.5 28q-17 -10 -44 -20t-58 -18.5t-62 -13t-60 -4.5q-78 0 -125.5 18.5t-74 47.5t-35.5 65.5t-9 71.5q0 57 26 125.5t71.5 128t110.5 100t141 40.5q63 0 112.5 -44t81.5 -114t48.5 -156.5t16.5 -172.5q0 -123 -26 -232
t-62 -177zM1337 550q0 -41 44.5 -57.5t128.5 -16.5q16 0 38.5 2.5t44 7.5t37 10.5t21.5 10.5q-4 34 -18.5 68.5t-37.5 62.5t-50.5 45.5t-57.5 17.5q-38 0 -65.5 -17.5t-46 -41.5t-28.5 -50t-10 -42zM1234 1112l147 145l125 -117l127 117l145 -145l-145 -147l-127 119
l-125 -119zM1360 1353l148 146l146 -146l-146 -148z" />
    <glyph glyph-name="uniFB6B" unicode="&#x6a4;" horiz-adv-x="1836" arabic-form="final" 
d="M1097 228q-15 18 -22.5 44.5t-7.5 46.5q0 71 35.5 143t94 130t134.5 94t154 36q53 0 91 -32.5t63 -79.5t37 -99t12 -93q0 -46 -19.5 -96t-52.5 -92h244q20 0 28 -10t8 -20v-166q0 -34 -36 -34h-56q-118 0 -209 12.5t-169 26.5q-77 -16 -169.5 -28.5t-188.5 -19
t-191 -10.5t-176 -4q-358 0 -529.5 75t-171.5 250q0 51 19.5 125.5t47.5 143.5l163 29q-25 -61 -38.5 -117t-13.5 -82q0 -56 28.5 -93t93.5 -59.5t172 -32t263 -9.5q71 0 166.5 5t195.5 16zM1214 328q0 -100 212 -100h22q19 5 32.5 21t24 34.5t15 37.5t4.5 30
q0 62 -31.5 106.5t-68.5 44.5q-43 0 -81 -17t-66.5 -43t-45.5 -57t-17 -57zM1150 1004l146 146l126 -118l127 118l146 -146l-146 -148l-127 120l-126 -120zM1276 1244l148 146l145 -146l-145 -147z" />
    <glyph glyph-name="uniFB6C" unicode="&#x6a4;" horiz-adv-x="939" arabic-form="initial" 
d="M244 1102l146 146l126 -117l127 117l146 -146l-146 -146l-127 119l-126 -119zM370 1344l148 145l145 -145l-145 -148zM-19 0q-21 0 -28.5 9t-7.5 21v166q0 34 36 34h500q43 0 98 0.5t80 8.5q8 22 11 62.5t3 62.5q-17 -10 -44 -20t-58 -18.5t-62.5 -13t-59.5 -4.5
q-79 0 -126.5 18.5t-73.5 47.5t-35 65.5t-9 71.5q0 57 26 125.5t71.5 128t110 100t141.5 40.5q62 0 112 -44t81.5 -114t48 -156.5t16.5 -172.5q0 -123 -26 -232t-61 -177q-68 -4 -187 -6.5t-300 -2.5h-257zM346 550q0 -41 44 -57.5t128 -16.5q16 0 38.5 2.5t44 7.5
t37.5 10.5t21 10.5q-3 34 -18 68.5t-37.5 62.5t-50.5 45.5t-58 17.5q-37 0 -65 -17.5t-46.5 -41.5t-28 -50t-9.5 -42z" />
    <glyph glyph-name="uniFB6D" unicode="&#x6a4;" horiz-adv-x="955" arabic-form="medial" 
d="M244 1006l146 146l126 -118l127 118l146 -146l-146 -148l-127 120l-126 -120zM370 1246l148 146l145 -146l-145 -147zM342 330q0 -100 212 -100h21q20 5 33.5 21t24 34.5t15 37.5t4.5 30q0 62 -31.5 106.5t-68.5 44.5q-44 0 -82 -17t-66 -43t-45 -57t-17 -57zM-19 0
q-21 0 -28.5 9t-7.5 21v166q0 34 36 34h244q-15 18 -22.5 44.5t-7.5 46.5q0 71 35.5 143t94 129.5t134 94t154.5 36.5q53 0 90.5 -32.5t63 -79t37.5 -99t12 -93.5q0 -46 -19.5 -97t-52.5 -93h235q20 0 28 -10t8 -20v-166q0 -34 -36 -34h-56q-118 0 -202.5 8t-163.5 24
q-108 -19 -246 -24.5t-273 -7.5h-57z" />
    <glyph glyph-name="uniFB6E" unicode="&#x6a6;" horiz-adv-x="1931" arabic-form="isolated" 
d="M1716 9q-46 -4 -121.5 -7.5t-167 -6t-192.5 -6.5t-198 -5.5t-184.5 -3t-152.5 -1.5q-364 0 -532 74.5t-168 250.5q0 50 19.5 124t47.5 143l163 29q-23 -62 -37.5 -117.5t-14.5 -81.5q0 -56 28.5 -93t93.5 -59.5t172 -32t263 -9.5q34 0 107.5 1t166 4t194.5 5.5t192 6.5
t159 7.5t97 7.5q3 9 5.5 26t4.5 35.5t2.5 35.5t0.5 28q-17 -10 -44 -20t-58 -18.5t-62 -13t-60 -4.5q-78 0 -125.5 18.5t-74 47.5t-35.5 65.5t-9 71.5q0 57 26 125.5t71.5 128t110.5 100t141 40.5q63 0 112.5 -44t81.5 -114t48.5 -156.5t16.5 -172.5q0 -123 -26 -232
t-62 -177zM1337 550q0 -41 44.5 -57.5t128.5 -16.5q16 0 38.5 2.5t44 7.5t37 10.5t21.5 10.5q-4 34 -18.5 68.5t-37.5 62.5t-50.5 45.5t-57.5 17.5q-38 0 -65.5 -17.5t-46 -41.5t-28.5 -50t-10 -42zM1376 1253l-146 145l147 145l125 -117l127 117l146 -145l-142 -142
l145 -144l-145 -147l-127 119l-125 -119l-147 147zM1627 1253l-125 117l-119 -115l123 -115z" />
    <glyph glyph-name="uniFB6F" unicode="&#x6a6;" horiz-adv-x="1836" arabic-form="final" 
d="M1097 228q-15 18 -22.5 44.5t-7.5 46.5q0 71 35.5 143t94 130t134.5 94t154 36q53 0 91 -32.5t63 -79.5t37 -99t12 -93q0 -46 -19.5 -96t-52.5 -92h244q20 0 28 -10t8 -20v-166q0 -34 -36 -34h-56q-118 0 -209 12.5t-169 26.5q-77 -16 -169.5 -28.5t-188.5 -19
t-191 -10.5t-176 -4q-358 0 -529.5 75t-171.5 250q0 51 19.5 125.5t47.5 143.5l163 29q-25 -61 -38.5 -117t-13.5 -82q0 -56 28.5 -93t93.5 -59.5t172 -32t263 -9.5q71 0 166.5 5t195.5 16zM1214 328q0 -100 212 -100h22q19 5 32.5 21t24 34.5t15 37.5t4.5 30
q0 62 -31.5 106.5t-68.5 44.5q-43 0 -81 -17t-66.5 -43t-45.5 -57t-17 -57zM1291 1145l-145 146l147 146l125 -118l127 118l146 -146l-141 -142l145 -145l-146 -148l-127 120l-126 -120l-146 148zM1543 1145l-125 118l-120 -115l124 -116z" />
    <glyph glyph-name="uniFB70" unicode="&#x6a6;" horiz-adv-x="939" arabic-form="initial" 
d="M-19 0q-21 0 -28.5 9t-7.5 21v166q0 34 36 34h500q43 0 98 0.5t80 8.5q8 22 11 62.5t3 62.5q-17 -10 -44 -20t-58 -18.5t-62.5 -13t-59.5 -4.5q-79 0 -126.5 18.5t-73.5 47.5t-35 65.5t-9 71.5q0 57 26 125.5t71.5 128t110 100t141.5 40.5q62 0 112 -44t81.5 -114
t48 -156.5t16.5 -172.5q0 -123 -26 -232t-61 -177q-68 -4 -187 -6.5t-300 -2.5h-257zM346 550q0 -41 44 -57.5t128 -16.5q16 0 38.5 2.5t44 7.5t37.5 10.5t21 10.5q-3 34 -18 68.5t-37.5 62.5t-50.5 45.5t-58 17.5q-37 0 -65 -17.5t-46.5 -41.5t-28 -50t-9.5 -42zM386 1244
l-139 138l147 146l126 -118l126 118l146 -146l-141 -142l138 -138l-146 -146l-127 119l-126 -119l-146 146zM638 1244l-118 111l-121 -115l117 -109z" />
    <glyph glyph-name="uniFB71" unicode="&#x6a6;" horiz-adv-x="955" arabic-form="medial" 
d="M342 330q0 -100 212 -100h21q20 5 33.5 21t24 34.5t15 37.5t4.5 30q0 62 -31.5 106.5t-68.5 44.5q-44 0 -82 -17t-66 -43t-45 -57t-17 -57zM-19 0q-21 0 -28.5 9t-7.5 21v166q0 34 36 34h244q-15 18 -22.5 44.5t-7.5 46.5q0 71 35.5 143t94 129.5t134 94t154.5 36.5
q53 0 90.5 -32.5t63 -79t37.5 -99t12 -93.5q0 -46 -19.5 -97t-52.5 -93h235q20 0 28 -10t8 -20v-166q0 -34 -36 -34h-56q-118 0 -202.5 8t-163.5 24q-108 -19 -246 -24.5t-273 -7.5h-57zM388 1149l-144 144l146 146l126 -118l127 118l146 -146l-143 -144l143 -143l-146 -148
l-127 120l-126 -120l-146 148zM639 1149l-123 116l-122 -116l122 -115z" />
    <glyph glyph-name="uniFB72" unicode="&#x684;" horiz-adv-x="1146" arabic-form="isolated" 
d="M0 -282q0 125 44.5 242t138 212t239.5 161t347 91q-9 5 -31 23.5t-35 29.5q-26 23 -54 43.5t-68 36.5t-95 26t-135 10q-18 0 -44.5 -3.5t-52.5 -9t-52 -12.5t-45 -12v213q44 14 102 29.5t129 15.5q84 0 146.5 -14.5t111 -38.5t86 -55t69.5 -64q48 -53 103 -94t122 -53
v-204q-190 0 -346 -33.5t-267 -98t-170.5 -156.5t-59.5 -210q0 -64 23.5 -120.5t70 -100.5t113.5 -70t157 -26q97 0 172 19.5t136 50.5l96 -173q-111 -65 -222 -92t-207 -27q-104 0 -199 30.5t-167 90t-114 145.5t-42 198zM555 -159l-135 135l148 146l144 -146l-132 -135
l132 -133l-144 -147l-148 147z" />
    <glyph glyph-name="uniFB73" unicode="&#x684;" horiz-adv-x="1162" arabic-form="final" 
d="M1222 34q0 -34 -35 -34h-86q-170 0 -251 70t-108 212q-139 -21 -244.5 -70.5t-176 -116.5t-104.5 -145t-34 -157q0 -65 23.5 -122t70 -101t113.5 -69t157 -25q97 0 172 19.5t136 50.5l96 -173q-111 -65 -222 -92t-207 -27q-104 0 -199 30.5t-167 91.5t-114 152t-42 214
q0 142 57 259t157.5 204.5t237.5 145.5t298 84q-9 5 -30.5 25.5t-38.5 36.5q-65 59 -153 77.5t-177 18.5q-21 0 -46 -3.5t-52 -9t-52 -12.5t-44 -12v213q44 14 101 29.5t130 15.5q82 0 143.5 -13.5t109.5 -36.5t86 -55t74 -67q35 -37 63 -63.5t54 -44t51.5 -27.5t56.5 -16
v-163q-9 0 -29.5 -2t-45 -4.5t-46.5 -6t-34 -7.5q10 -48 64.5 -63t135.5 -15h116q20 0 27.5 -10t7.5 -20v-166zM555 -159l-135 135l148 146l144 -146l-132 -135l132 -133l-144 -147l-148 147z" />
    <glyph glyph-name="uniFB74" unicode="&#x684;" horiz-adv-x="1149" arabic-form="initial" 
d="M-19 0q-21 0 -28.5 9t-7.5 21v166q0 34 36 34h104q79 0 166.5 13t182.5 31q95 19 193 33t165 14q-56 30 -108 90q-23 25 -47 47.5t-55.5 39.5t-75.5 27.5t-105 10.5q-40 0 -97.5 -9.5t-97.5 -22.5v212q38 12 96.5 25.5t137.5 13.5q78 0 138.5 -24t106 -62.5t79.5 -84
t60 -89.5q27 -50 51 -80.5t47 -50t49 -30t58 -15.5v-220q-43 4 -85 5t-81 1q-106 0 -202 -16t-192 -37q-95 -20 -184.5 -36t-190.5 -16h-113zM480 -448l-135 135l148 145l144 -145l-132 -135l132 -133l-144 -148l-148 148z" />
    <glyph glyph-name="uniFB75" unicode="&#x684;" horiz-adv-x="1204" arabic-form="medial" 
d="M-19 0q-21 0 -28.5 9t-7.5 21v166q0 34 36 34h406q55 0 114.5 15.5t117.5 40t110 54.5t92 57q-46 9 -83.5 28t-66.5 40q-51 33 -113.5 52t-156.5 19q-40 0 -97.5 -9.5t-97.5 -22.5v212q38 12 97.5 25.5t134.5 13.5q82 0 144.5 -14.5t109.5 -39t84.5 -55t71.5 -62.5
q37 -36 64.5 -55.5t52.5 -30.5t50 -16t57 -10v-148q-25 0 -69.5 -8t-76.5 -23q14 -15 48 -39t94 -24h161q21 0 28 -10t7 -20v-166q0 -34 -35 -34h-155q-91 0 -155 61.5t-101 175.5q-140 -123 -261 -180t-250 -57h-326zM536 -452l-135 135l148 146l145 -146l-132 -135
l132 -133l-145 -147l-148 147z" />
    <glyph glyph-name="uniFB76" unicode="&#x683;" horiz-adv-x="1146" arabic-form="isolated" 
d="M0 -282q0 125 44.5 242t138 212t239.5 161t347 91q-9 5 -31 23.5t-35 29.5q-26 23 -54 43.5t-68 36.5t-95 26t-135 10q-18 0 -44.5 -3.5t-52.5 -9t-52 -12.5t-45 -12v213q44 14 102 29.5t129 15.5q84 0 146.5 -14.5t111 -38.5t86 -55t69.5 -64q48 -53 103 -94t122 -53
v-204q-190 0 -346 -33.5t-267 -98t-170.5 -156.5t-59.5 -210q0 -64 23.5 -120.5t70 -100.5t113.5 -70t157 -26q97 0 172 19.5t136 50.5l96 -173q-111 -65 -222 -92t-207 -27q-104 0 -199 30.5t-167 90t-114 145.5t-42 198zM873 -127l-147 -144l-126 117l-126 -117l-146 144
l146 148l126 -119l126 119z" />
    <glyph glyph-name="uniFB77" unicode="&#x683;" horiz-adv-x="1162" arabic-form="final" 
d="M1222 34q0 -34 -35 -34h-86q-170 0 -251 70t-108 212q-139 -21 -244.5 -70.5t-176 -116.5t-104.5 -145t-34 -157q0 -65 23.5 -122t70 -101t113.5 -69t157 -25q97 0 172 19.5t136 50.5l96 -173q-111 -65 -222 -92t-207 -27q-104 0 -199 30.5t-167 91.5t-114 152t-42 214
q0 142 57 259t157.5 204.5t237.5 145.5t298 84q-9 5 -30.5 25.5t-38.5 36.5q-65 59 -153 77.5t-177 18.5q-21 0 -46 -3.5t-52 -9t-52 -12.5t-44 -12v213q44 14 101 29.5t130 15.5q82 0 143.5 -13.5t109.5 -36.5t86 -55t74 -67q35 -37 63 -63.5t54 -44t51.5 -27.5t56.5 -16
v-163q-9 0 -29.5 -2t-45 -4.5t-46.5 -6t-34 -7.5q10 -48 64.5 -63t135.5 -15h116q20 0 27.5 -10t7.5 -20v-166zM885 -173l-148 -146l-125 118l-127 -118l-145 146l145 147l127 -119l125 119z" />
    <glyph glyph-name="uniFB78" unicode="&#x683;" horiz-adv-x="1149" arabic-form="initial" 
d="M-19 0q-21 0 -28.5 9t-7.5 21v166q0 34 36 34h104q79 0 166.5 13t182.5 31q95 19 193 33t165 14q-56 30 -108 90q-23 25 -47 47.5t-55.5 39.5t-75.5 27.5t-105 10.5q-40 0 -97.5 -9.5t-97.5 -22.5v212q38 12 96.5 25.5t137.5 13.5q78 0 138.5 -24t106 -62.5t79.5 -84
t60 -89.5q27 -50 51 -80.5t47 -50t49 -30t58 -15.5v-220q-43 4 -85 5t-81 1q-106 0 -202 -16t-192 -37q-95 -20 -184.5 -36t-190.5 -16h-113zM801 -272l-147 -146l-125 117l-127 -117l-145 146l145 147l127 -119l125 119z" />
    <glyph glyph-name="uniFB79" unicode="&#x683;" horiz-adv-x="1204" arabic-form="medial" 
d="M-19 0q-21 0 -28.5 9t-7.5 21v166q0 34 36 34h406q55 0 114.5 15.5t117.5 40t110 54.5t92 57q-46 9 -83.5 28t-66.5 40q-51 33 -113.5 52t-156.5 19q-40 0 -97.5 -9.5t-97.5 -22.5v212q38 12 97.5 25.5t134.5 13.5q82 0 144.5 -14.5t109.5 -39t84.5 -55t71.5 -62.5
q37 -36 64.5 -55.5t52.5 -30.5t50 -16t57 -10v-148q-25 0 -69.5 -8t-76.5 -23q14 -15 48 -39t94 -24h161q21 0 28 -10t7 -20v-166q0 -34 -35 -34h-155q-91 0 -155 61.5t-101 175.5q-140 -123 -261 -180t-250 -57h-326zM787 -280l-148 -145l-125 117l-127 -117l-145 145
l145 148l127 -119l125 119z" />
    <glyph glyph-name="uniFB7A" unicode="&#x686;" horiz-adv-x="1146" arabic-form="isolated" 
d="M0 -282q0 125 44.5 242t138 212t239.5 161t347 91q-9 5 -31 23.5t-35 29.5q-26 23 -54 43.5t-68 36.5t-95 26t-135 10q-18 0 -44.5 -3.5t-52.5 -9t-52 -12.5t-45 -12v213q44 14 102 29.5t129 15.5q84 0 146.5 -14.5t111 -38.5t86 -55t69.5 -64q48 -53 103 -94t122 -53
v-204q-190 0 -346 -33.5t-267 -98t-170.5 -156.5t-59.5 -210q0 -64 23.5 -120.5t70 -100.5t113.5 -70t157 -26q97 0 172 19.5t136 50.5l96 -173q-111 -65 -222 -92t-207 -27q-104 0 -199 30.5t-167 90t-114 145.5t-42 198zM882 -54l-147 -145l-126 118l-126 -118l-146 145
l146 148l126 -120l126 120zM755 -287l-147 -145l-145 145l145 148z" />
    <glyph glyph-name="uniFB7B" unicode="&#x686;" horiz-adv-x="1162" arabic-form="final" 
d="M1222 34q0 -34 -35 -34h-86q-170 0 -251 70t-108 212q-139 -21 -244.5 -70.5t-176 -116.5t-104.5 -145t-34 -157q0 -65 23.5 -122t70 -101t113.5 -69t157 -25q97 0 172 19.5t136 50.5l96 -173q-111 -65 -222 -92t-207 -27q-104 0 -199 30.5t-167 91.5t-114 152t-42 214
q0 142 57 259t157.5 204.5t237.5 145.5t298 84q-9 5 -30.5 25.5t-38.5 36.5q-65 59 -153 77.5t-177 18.5q-21 0 -46 -3.5t-52 -9t-52 -12.5t-44 -12v213q44 14 101 29.5t130 15.5q82 0 143.5 -13.5t109.5 -36.5t86 -55t74 -67q35 -37 63 -63.5t54 -44t51.5 -27.5t56.5 -16
v-163q-9 0 -29.5 -2t-45 -4.5t-46.5 -6t-34 -7.5q10 -48 64.5 -63t135.5 -15h116q20 0 27.5 -10t7.5 -20v-166zM866 -82l-147 -146l-125 118l-128 -118l-144 146l144 148l128 -120l125 120zM739 -315l-147 -146l-146 146l146 147z" />
    <glyph glyph-name="uniFB7C" unicode="&#x686;" horiz-adv-x="1149" arabic-form="initial" 
d="M-19 0q-21 0 -28.5 9t-7.5 21v166q0 34 36 34h104q79 0 166.5 13t182.5 31q95 19 193 33t165 14q-56 30 -108 90q-23 25 -47 47.5t-55.5 39.5t-75.5 27.5t-105 10.5q-40 0 -97.5 -9.5t-97.5 -22.5v212q38 12 96.5 25.5t137.5 13.5q78 0 138.5 -24t106 -62.5t79.5 -84
t60 -89.5q27 -50 51 -80.5t47 -50t49 -30t58 -15.5v-220q-43 4 -85 5t-81 1q-106 0 -202 -16t-192 -37q-95 -20 -184.5 -36t-190.5 -16h-113zM801 -272l-147 -146l-125 117l-127 -117l-145 146l145 147l127 -119l125 119zM675 -506l-148 -145l-146 145l146 148z" />
    <glyph glyph-name="uniFB7D" unicode="&#x686;" horiz-adv-x="1204" arabic-form="medial" 
d="M-19 0q-21 0 -28.5 9t-7.5 21v166q0 34 36 34h406q55 0 114.5 15.5t117.5 40t110 54.5t92 57q-46 9 -83.5 28t-66.5 40q-51 33 -113.5 52t-156.5 19q-40 0 -97.5 -9.5t-97.5 -22.5v212q38 12 97.5 25.5t134.5 13.5q82 0 144.5 -14.5t109.5 -39t84.5 -55t71.5 -62.5
q37 -36 64.5 -55.5t52.5 -30.5t50 -16t57 -10v-148q-25 0 -69.5 -8t-76.5 -23q14 -15 48 -39t94 -24h161q21 0 28 -10t7 -20v-166q0 -34 -35 -34h-155q-91 0 -155 61.5t-101 175.5q-140 -123 -261 -180t-250 -57h-326zM787 -280l-148 -145l-125 117l-127 -117l-145 145
l145 148l127 -119l125 119zM659 -513l-146 -146l-146 146l146 148z" />
    <glyph glyph-name="uniFB7E" unicode="&#x687;" horiz-adv-x="1146" arabic-form="isolated" 
d="M0 -282q0 125 44.5 242t138 212t239.5 161t347 91q-9 5 -31 23.5t-35 29.5q-26 23 -54 43.5t-68 36.5t-95 26t-135 10q-18 0 -44.5 -3.5t-52.5 -9t-52 -12.5t-45 -12v213q44 14 102 29.5t129 15.5q84 0 146.5 -14.5t111 -38.5t86 -55t69.5 -64q48 -53 103 -94t122 -53
v-204q-190 0 -346 -33.5t-267 -98t-170.5 -156.5t-59.5 -210q0 -64 23.5 -120.5t70 -100.5t113.5 -70t157 -26q97 0 172 19.5t136 50.5l96 -173q-111 -65 -222 -92t-207 -27q-104 0 -199 30.5t-167 90t-114 145.5t-42 198zM721 -159l115 -116l-125 -125l-109 101l-109 -101
l-126 125l120 122l-114 114l125 127l110 -103l108 103l126 -127zM504 -159l98 -92l102 98l-96 91z" />
    <glyph glyph-name="uniFB7F" unicode="&#x687;" horiz-adv-x="1162" arabic-form="final" 
d="M1222 34q0 -34 -35 -34h-86q-170 0 -251 70t-108 212q-139 -21 -244.5 -70.5t-176 -116.5t-104.5 -145t-34 -157q0 -65 23.5 -122t70 -101t113.5 -69t157 -25q97 0 172 19.5t136 50.5l96 -173q-111 -65 -222 -92t-207 -27q-104 0 -199 30.5t-167 91.5t-114 152t-42 214
q0 142 57 259t157.5 204.5t237.5 145.5t298 84q-9 5 -30.5 25.5t-38.5 36.5q-65 59 -153 77.5t-177 18.5q-21 0 -46 -3.5t-52 -9t-52 -12.5t-44 -12v213q44 14 101 29.5t130 15.5q82 0 143.5 -13.5t109.5 -36.5t86 -55t74 -67q35 -37 63 -63.5t54 -44t51.5 -27.5t56.5 -16
v-163q-9 0 -29.5 -2t-45 -4.5t-46.5 -6t-34 -7.5q10 -48 64.5 -63t135.5 -15h116q20 0 27.5 -10t7.5 -20v-166zM684 -177l116 -116l-126 -125l-108 101l-110 -101l-125 125l120 122l-115 114l126 127l109 -103l109 103l125 -127zM467 -177l99 -92l102 98l-97 91z" />
    <glyph glyph-name="uniFB80" unicode="&#x687;" horiz-adv-x="1149" arabic-form="initial" 
d="M-19 0q-21 0 -28.5 9t-7.5 21v166q0 34 36 34h104q79 0 166.5 13t182.5 31q95 19 193 33t165 14q-56 30 -108 90q-23 25 -47 47.5t-55.5 39.5t-75.5 27.5t-105 10.5q-40 0 -97.5 -9.5t-97.5 -22.5v212q38 12 96.5 25.5t137.5 13.5q78 0 138.5 -24t106 -62.5t79.5 -84
t60 -89.5q27 -50 51 -80.5t47 -50t49 -30t58 -15.5v-220q-43 4 -85 5t-81 1q-106 0 -202 -16t-192 -37q-95 -20 -184.5 -36t-190.5 -16h-113zM663 -413l135 -135l-147 -144l-126 117l-126 -117l-146 144l139 142l-133 133l146 147l127 -119l125 119l147 -147zM411 -412
l114 -107l120 113l-113 105z" />
    <glyph glyph-name="uniFB81" unicode="&#x687;" horiz-adv-x="1204" arabic-form="medial" 
d="M-19 0q-21 0 -28.5 9t-7.5 21v166q0 34 36 34h406q55 0 114.5 15.5t117.5 40t110 54.5t92 57q-46 9 -83.5 28t-66.5 40q-51 33 -113.5 52t-156.5 19q-40 0 -97.5 -9.5t-97.5 -22.5v212q38 12 97.5 25.5t134.5 13.5q82 0 144.5 -14.5t109.5 -39t84.5 -55t71.5 -62.5
q37 -36 64.5 -55.5t52.5 -30.5t50 -16t57 -10v-148q-25 0 -69.5 -8t-76.5 -23q14 -15 48 -39t94 -24h161q21 0 28 -10t7 -20v-166q0 -34 -35 -34h-155q-91 0 -155 61.5t-101 175.5q-140 -123 -261 -180t-250 -57h-326zM643 -420l135 -135l-147 -145l-126 118l-126 -118
l-146 145l139 141l-133 133l146 148l127 -119l125 119l147 -148zM391 -419l114 -108l120 113l-113 106z" />
    <glyph glyph-name="uniFB82" unicode="&#x68d;" horiz-adv-x="834" arabic-form="isolated" 
d="M65 0v230h383q16 0 49.5 2.5t54.5 17.5q0 71 -53 174.5t-174 267.5l197 122q50 -77 86.5 -152.5t59 -142.5t34 -124t11.5 -96q0 -55 -13.5 -98.5t-34 -80t-44.5 -66t-49 -54.5h-507zM117 -319l146 146l126 -118l127 118l146 -146l-146 -147l-127 120l-126 -120z" />
    <glyph glyph-name="uniFB83" unicode="&#x68d;" horiz-adv-x="882" arabic-form="final" 
d="M907 230q20 0 27.5 -10t7.5 -20v-166q0 -34 -35 -34h-32q-34 0 -66 4.5t-59.5 19.5t-52.5 44t-48 78h-7q-49 -89 -126 -117.5t-200 -28.5h-251v230h210q137 0 191.5 10t54.5 57q0 22 -8 52t-25 75.5t-46.5 110t-74.5 156.5l200 123l148 -461q21 -73 54 -98t100 -25h38z
M88 -319l146 146l126 -118l127 118l146 -146l-146 -147l-127 120l-126 -120z" />
    <glyph glyph-name="uniFB84" unicode="&#x68c;" horiz-adv-x="834" arabic-form="isolated" 
d="M65 0v230h383q16 0 49.5 2.5t54.5 17.5q0 71 -53 174.5t-174 267.5l197 122q50 -77 86.5 -152.5t59 -142.5t34 -124t11.5 -96q0 -55 -13.5 -98.5t-34 -80t-44.5 -66t-49 -54.5h-507zM163 1095l146 146l126 -118l127 118l145 -146l-145 -148l-127 121l-126 -121z" />
    <glyph glyph-name="uniFB85" unicode="&#x68c;" horiz-adv-x="882" arabic-form="final" 
d="M907 230q20 0 27.5 -10t7.5 -20v-166q0 -34 -35 -34h-32q-34 0 -66 4.5t-59.5 19.5t-52.5 44t-48 78h-7q-49 -89 -126 -117.5t-200 -28.5h-251v230h210q137 0 191.5 10t54.5 57q0 22 -8 52t-25 75.5t-46.5 110t-74.5 156.5l200 123l148 -461q21 -73 54 -98t100 -25h38z
M210 1095l147 146l125 -118l127 118l146 -146l-146 -148l-127 121l-125 -121z" />
    <glyph glyph-name="uniFB86" unicode="&#x68e;" horiz-adv-x="834" arabic-form="isolated" 
d="M65 0v230h383q16 0 49.5 2.5t54.5 17.5q0 71 -53 174.5t-174 267.5l197 122q50 -77 86.5 -152.5t59 -142.5t34 -124t11.5 -96q0 -55 -13.5 -98.5t-34 -80t-44.5 -66t-49 -54.5h-507zM183 1095l146 146l126 -118l127 118l145 -146l-145 -148l-127 121l-126 -121zM309 1336
l148 145l145 -145l-145 -147z" />
    <glyph glyph-name="uniFB87" unicode="&#x68e;" horiz-adv-x="882" arabic-form="final" 
d="M907 230q20 0 27.5 -10t7.5 -20v-166q0 -34 -35 -34h-32q-34 0 -66 4.5t-59.5 19.5t-52.5 44t-48 78h-7q-49 -89 -126 -117.5t-200 -28.5h-251v230h210q137 0 191.5 10t54.5 57q0 22 -8 52t-25 75.5t-46.5 110t-74.5 156.5l200 123l148 -461q21 -73 54 -98t100 -25h38z
M210 1095l147 146l125 -118l127 118l146 -146l-146 -148l-127 121l-125 -121zM336 1336l148 145l145 -145l-145 -147z" />
    <glyph glyph-name="uniFB88" unicode="&#x688;" horiz-adv-x="834" arabic-form="isolated" 
d="M65 0v230h383q16 0 49.5 2.5t54.5 17.5q0 71 -53 174.5t-174 267.5l197 122q50 -77 86.5 -152.5t59 -142.5t34 -124t11.5 -96q0 -55 -13.5 -98.5t-34 -80t-44.5 -66t-49 -54.5h-507zM597 1063q0 28 -28 53.5t-54 25.5q-28 0 -62 -23.5t-87 -82.5h226q5 13 5 27zM225 959
v77h73v335h68v-276q48 67 89 97t84 30q32 0 57 -15.5t41.5 -39.5t25.5 -50.5t9 -46.5q0 -7 -3.5 -20.5t-7 -30.5t-8 -33t-9.5 -27h-419z" />
    <glyph glyph-name="uniFB89" unicode="&#x688;" horiz-adv-x="882" arabic-form="final" 
d="M907 230q20 0 27.5 -10t7.5 -20v-166q0 -34 -35 -34h-32q-34 0 -66 4.5t-59.5 19.5t-52.5 44t-48 78h-7q-49 -89 -126 -117.5t-200 -28.5h-251v230h210q137 0 191.5 10t54.5 57q0 22 -8 52t-25 75.5t-46.5 110t-74.5 156.5l200 123l148 -461q21 -73 54 -98t100 -25h38z
M642 1063q0 28 -28.5 53.5t-53.5 25.5q-29 0 -62.5 -23.5t-87.5 -82.5h226q6 13 6 27zM270 959v77h73v335h67v-276q49 67 90 97t83 30q32 0 57 -15.5t42 -39.5t25.5 -50.5t8.5 -46.5q0 -7 -2.5 -20.5t-6.5 -30.5t-8.5 -33t-10.5 -27h-418z" />
    <glyph glyph-name="uniFB8A" unicode="&#x698;" horiz-adv-x="760" arabic-form="isolated" 
d="M641 222q0 -99 -48.5 -214t-120.5 -224.5t-151 -204t-140 -150.5l-178 167q134 107 226.5 196.5t148.5 165.5t81 141t25 125q0 65 -58.5 148.5t-140.5 168.5l220 136q28 -54 53 -116.5t43 -124t29 -117.5t11 -97zM153 905l148 145l124 -118l127 118l146 -145l-146 -148
l-127 120l-124 -120zM280 1145l147 146l146 -146l-146 -147z" />
    <glyph glyph-name="uniFB8B" unicode="&#x698;" horiz-adv-x="819" arabic-form="final" 
d="M843 230q20 0 28 -10t8 -20v-166q0 -34 -36 -34h-36q-47 0 -97 27t-84 89q-13 -62 -51 -147t-96 -178t-133.5 -187.5t-164.5 -174.5l-178 167q153 122 247.5 218.5t145.5 172t67.5 133.5t16.5 104q0 34 -10.5 66.5t-34 69.5t-61.5 81t-93 100l220 136q15 -29 33.5 -73.5
t38 -92.5t37.5 -94.5t29 -80.5q14 -35 25.5 -55.5t30.5 -32t48 -15t77 -3.5h23zM179 896l147 145l125 -117l127 117l146 -145l-146 -148l-127 119l-125 -119zM305 1136l148 146l145 -146l-145 -148z" />
    <glyph glyph-name="uniFB8C" unicode="&#x691;" horiz-adv-x="763" arabic-form="isolated" 
d="M641 222q0 -99 -48.5 -214t-120.5 -224.5t-151 -204t-140 -150.5l-178 167q134 107 226.5 196.5t148.5 165.5t81 141t25 125q0 65 -58.5 148.5t-140.5 168.5l220 136q28 -54 53 -116.5t43 -124t29 -117.5t11 -97zM568 896q0 28 -28.5 53t-53.5 25q-28 0 -62 -23.5
t-88 -83.5h226q6 14 6 29zM196 791v76h73v336h67v-276q49 68 90 97.5t84 29.5q31 0 56.5 -16t42 -39t25.5 -50t9 -48q0 -5 -3 -19.5t-7 -31t-8.5 -32t-10.5 -27.5h-418z" />
    <glyph glyph-name="uniFB8D" unicode="&#x691;" horiz-adv-x="819" arabic-form="final" 
d="M843 230q20 0 28 -10t8 -20v-166q0 -34 -36 -34h-36q-47 0 -97 27t-84 89q-13 -62 -51 -147t-96 -178t-133.5 -187.5t-164.5 -174.5l-178 167q153 122 247.5 218.5t145.5 172t67.5 133.5t16.5 104q0 34 -10.5 66.5t-34 69.5t-61.5 81t-93 100l220 136q15 -29 33.5 -73.5
t38 -92.5t37.5 -94.5t29 -80.5q14 -35 25.5 -55.5t30.5 -32t48 -15t77 -3.5h23zM584 892q0 28 -27.5 53t-54.5 25q-28 0 -61 -23t-88 -83h226q5 13 5 28zM213 787v77h73v336h67v-276q49 66 90 96t84 30q32 0 57 -15.5t42 -39t25 -50.5t8 -48q0 -5 -3 -19t-6.5 -31t-8 -32.5
t-10.5 -27.5h-418z" />
    </font>
</defs>
</svg>
