<?xml version="1.0" standalone="no"?>
<!DOCTYPE svg PUBLIC "-//W3C//DTD SVG 1.1//EN" "http://www.w3.org/Graphics/SVG/1.1/DTD/svg11.dtd" >
<svg xmlns="http://www.w3.org/2000/svg" xmlns:xlink="http://www.w3.org/1999/xlink" version="1.1">
<metadata>
Created by FontForge 20170731 at Sun Jul 17 20:15:06 2016
 By Aleksey,,,
(c)  2014 Bahij Virtual Academy. All rights reserved.
</metadata>
<defs>
<font id="BahijBadiya-Regular" horiz-adv-x="932" >
  <font-face 
    font-family="Bahij Badiya"
    font-weight="400"
    font-stretch="normal"
    units-per-em="2048"
    panose-1="2 4 5 3 5 2 1 2 2 3"
    ascent="1638"
    descent="-410"
    x-height="929"
    cap-height="1291"
    bbox="-310 -1071 4459 2119"
    underline-thickness="50"
    underline-position="-175"
    unicode-range="U+0020-FEFC"
  />
<missing-glyph horiz-adv-x="728" 
d="M0 0v1020h728v-1020h-728zM117 947l247 -372l248 372h-495zM655 881l-247 -371l247 -372v743zM612 73l-248 371l-247 -371h495zM73 138l247 372l-247 371v-743z" />
    <glyph glyph-name="uniFB01" unicode="fi" horiz-adv-x="1036" 
d="M749 1291h160v-168h-160v168zM40 929h181q0 41 2 86.5t6 93.5q7 85 39 143t83 94.5t119 52t149 15.5v-123h-66q-47 0 -80.5 -18t-56 -46.5t-33 -67.5t-13.5 -80l-6 -150h541l-7 -929h-149l7 817h-386l-7 -817h-150l8 817h-181v112z" />
    <glyph glyph-name="uniFB02" unicode="fl" horiz-adv-x="1036" 
d="M761 1399h148l-11 -1399h-149zM40 929h181q0 41 2 86.5t6 93.5q7 85 39 143t83 94.5t119 52t149 15.5v-123h-66q-47 0 -80.5 -18t-56 -46.5t-33 -67.5t-13.5 -80l-6 -150h255v-112h-249l-7 -817h-150l8 817h-181v112z" />
    <glyph glyph-name="uniFC31" unicode="&#xfed3;&#xfef0;" horiz-adv-x="2211" arabic-form="isolated" 
d="M1597 515q0 -61 54.5 -86.5t137.5 -25.5q97 0 153 33q-15 130 -65 197.5t-110 67.5q-38 0 -69.5 -18.5t-54 -46t-34.5 -60.5t-12 -61zM1303 0q-47 -244 -231.5 -353.5t-481.5 -109.5q-160 0 -272 34.5t-181.5 94.5t-102.5 139t-33 167q0 103 29.5 201.5t75.5 177.5
l114 -68q-27 -57 -48.5 -131.5t-21.5 -146.5q0 -145 108 -230t338 -85q105 0 203.5 14t176 38.5t124 58t46.5 74.5q0 54 -83.5 87.5t-242.5 42.5l54 150h873q39 0 91 2.5t99 6.5q18 56 18 131q0 11 -1 24.5t-2 23.5q-66 -42 -127.5 -53.5t-115.5 -11.5q-62 0 -105.5 15
t-72 40t-42 58t-13.5 68q0 56 26 121.5t73.5 121t115.5 92t150 36.5q62 0 107.5 -43t75.5 -111.5t45 -154.5t15 -172q0 -41 -7.5 -86.5t-20 -90.5t-28 -87t-32.5 -76q-67 -4 -133 -6.5t-120 -2.5h-440zM1634 1067l116 114l114 -114l-114 -116z" />
    <glyph glyph-name="uniFC32" unicode="&#xfed3;&#xfef2;" horiz-adv-x="2211" arabic-form="isolated" 
d="M1597 515q0 -61 54.5 -86.5t137.5 -25.5q97 0 153 33q-15 130 -65 197.5t-110 67.5q-38 0 -69.5 -18.5t-54 -46t-34.5 -60.5t-12 -61zM426 -726l116 114l91 -93l96 93l114 -114l-114 -116l-96 94l-91 -94zM1303 0q-47 -244 -231.5 -353.5t-481.5 -109.5q-160 0 -272 34.5
t-181.5 94.5t-102.5 139t-33 167q0 103 29.5 201.5t75.5 177.5l114 -68q-27 -57 -48.5 -131.5t-21.5 -146.5q0 -145 108 -230t338 -85q105 0 203.5 14t176 38.5t124 58t46.5 74.5q0 54 -83.5 87.5t-242.5 42.5l54 150h873q39 0 91 2.5t99 6.5q18 56 18 131q0 11 -1 24.5
t-2 23.5q-66 -42 -127.5 -53.5t-115.5 -11.5q-62 0 -105.5 15t-72 40t-42 58t-13.5 68q0 56 26 121.5t73.5 121t115.5 92t150 36.5q62 0 107.5 -43t75.5 -111.5t45 -154.5t15 -172q0 -41 -7.5 -86.5t-20 -90.5t-28 -87t-32.5 -76q-67 -4 -133 -6.5t-120 -2.5h-440z
M1634 1067l116 114l114 -114l-114 -116z" />
    <glyph glyph-name="uniFC43" unicode="&#xfedf;&#xfef0;" horiz-adv-x="1854" arabic-form="isolated" 
d="M1389 0h-86q-47 -244 -231.5 -353.5t-481.5 -109.5q-160 0 -272 34.5t-181.5 94.5t-102.5 139t-33 167q0 103 29.5 201.5t75.5 177.5l114 -68q-27 -57 -48.5 -131.5t-21.5 -146.5q0 -145 108 -230t338 -85q105 0 203.5 14t176 38.5t124 58t46.5 74.5q0 54 -83.5 87.5
t-242.5 42.5l54 150h555q35 0 81 2t72 5v1072h149v-1216q-97 -18 -342 -18z" />
    <glyph glyph-name="uniFC44" unicode="&#xfedf;&#xfef2;" horiz-adv-x="1854" arabic-form="isolated" 
d="M426 -726l116 114l91 -93l96 93l114 -114l-114 -116l-96 94l-91 -94zM1389 0h-86q-47 -244 -231.5 -353.5t-481.5 -109.5q-160 0 -272 34.5t-181.5 94.5t-102.5 139t-33 167q0 103 29.5 201.5t75.5 177.5l114 -68q-27 -57 -48.5 -131.5t-21.5 -146.5q0 -145 108 -230
t338 -85q105 0 203.5 14t176 38.5t124 58t46.5 74.5q0 54 -83.5 87.5t-242.5 42.5l54 150h555q35 0 81 2t72 5v1072h149v-1216q-97 -18 -342 -18z" />
    <glyph glyph-name="uniFC64" unicode="&#xfe8c;&#xfeae;" horiz-adv-x="1433" arabic-form="final" 
d="M766 3q-33 5 -67 24q-51 27 -85 89h-9q-9 -62 -47.5 -145t-102 -174.5t-152 -182t-196.5 -168.5l-107 129q146 91 244 186t158.5 183t87 161.5t26.5 118.5q0 13 -5 36t-20 57t-44 77.5t-77 102.5l144 91q31 -60 59 -123.5t55 -128.5q36 -95 78.5 -138t101.5 -43h81
q61 0 103 3.5t67.5 12t37.5 22.5t14 35l17 249l164 45l-32 -216q-2 -9 -3 -20.5t-1 -20.5q0 -64 39.5 -87t108.5 -23h65q21 0 28.5 -9t7.5 -21v-91q0 -34 -36 -34h-72q-107 0 -170.5 33t-82.5 127q-25 -50 -48 -82t-48 -48.5t-54.5 -23t-71.5 -6.5h-138q-11 0 -18 3z
M975 782q20 11 60 32.5t70 29.5v7q-87 48 -87 127q0 39 19.5 79t50.5 72t68.5 51.5t77.5 19.5q20 0 40.5 -3t33.5 -10v-97q-18 7 -38.5 13t-45.5 6t-49.5 -9t-42.5 -22t-29 -28.5t-11 -32.5q0 -49 35 -87t88 -38q29 0 81.5 12t98.5 27l-18 -99q-53 -9 -98 -19t-87 -26
t-85 -39.5t-93 -58.5z" />
    <glyph glyph-name="uniFC67" unicode="&#xfe8c;&#xfee6;" horiz-adv-x="1823" arabic-form="final" 
d="M397 703l116 114l114 -114l-114 -115zM1375 782q20 11 60 32.5t70 29.5v7q-87 48 -87 127q0 39 19.5 79t50.5 72t68.5 51.5t76.5 19.5q21 0 41.5 -3t33.5 -10v-97q-18 7 -38.5 13t-45.5 6t-49.5 -9t-42.5 -22t-29 -28.5t-11 -32.5q0 -49 35 -87t88 -38q29 0 81.5 12
t98.5 27l-18 -99q-53 -9 -98.5 -19t-87 -26t-84.5 -39.5t-93 -58.5zM1183 0q-41 0 -79.5 26t-54.5 79q-11 -139 -62.5 -237.5t-128 -161t-173 -92.5t-198.5 -30q-117 0 -208.5 34.5t-153 93t-93.5 137t-32 166.5q0 78 21.5 154.5t62.5 154.5l119 -66q-30 -68 -41 -115.5
t-11 -105.5q0 -73 27 -129.5t74 -97t109.5 -61t135.5 -20.5q126 0 205.5 35t124 86t60.5 109.5t16 107.5q0 45 -12 88t-29.5 84t-39 77.5t-40.5 66.5l162 69q34 -88 61 -145t54 -90.5t55 -47.5t63 -14h112q61 0 103 3.5t67.5 12t37.5 22.5t13 35l18 249l164 45l-32 -216
q-2 -9 -3 -20.5t-1 -20.5q0 -64 39.5 -87t108.5 -23h55q21 0 28.5 -9t7.5 -21v-91q0 -34 -36 -34h-62q-107 0 -170.5 33t-82.5 127q-25 -50 -48 -82t-48 -48.5t-54.5 -23t-71.5 -6.5h-139z" />
    <glyph glyph-name="uniFC6A" unicode="&#xfe92;&#xfeae;" horiz-adv-x="1441" arabic-form="final" 
d="M795 0q-46 0 -96.5 27t-84.5 89h-9q-9 -62 -47.5 -145t-102 -174.5t-152 -182t-196.5 -168.5l-107 129q146 91 244 186t158.5 183t87 161.5t26.5 118.5q0 13 -5 36t-20 57t-44 77.5t-77 102.5l144 91q31 -60 59 -123.5t55 -128.5q36 -95 78.5 -138t101.5 -43h99
q61 0 103 3.5t67.5 12t37.5 22.5t14 35l17 249l164 45l-32 -216q-2 -9 -2.5 -20.5t-0.5 -20.5q0 -64 39 -87t108 -23h56q21 0 28 -9t7 -21v-91q0 -34 -35 -34h-63q-107 0 -170 33t-83 127q-25 -50 -48 -82t-48 -48.5t-54.5 -23t-71.5 -6.5h-145zM1054 -276l116 114l114 -114
l-114 -116z" />
    <glyph glyph-name="uniFC70" unicode="&#xfe98;&#xfeae;" horiz-adv-x="1451" arabic-form="final" 
d="M795 0q-46 0 -96.5 27t-84.5 89h-9q-9 -62 -47.5 -145t-102 -174.5t-152 -182t-196.5 -168.5l-107 129q146 91 244 186t158.5 183t87 161.5t26.5 118.5q0 13 -5 36t-20 57t-44 77.5t-77 102.5l144 91q31 -60 59 -123.5t55 -128.5q36 -95 78.5 -138t101.5 -43h99
q61 0 103 3.5t67.5 12t37.5 22.5t14 35l17 249l164 45l-32 -216q-2 -9 -2.5 -20.5t-0.5 -20.5q0 -64 39 -87t108 -23h66q21 0 28 -9t7 -21v-91q0 -34 -35 -34h-73q-107 0 -170 33t-83 127q-25 -50 -48 -82t-48 -48.5t-54.5 -23t-71.5 -6.5h-145zM998 851l116 114l91 -94
l96 94l114 -114l-114 -116l-96 93l-91 -93z" />
    <glyph glyph-name="uniFC86" unicode="&#xfee0;&#xfef0;" horiz-adv-x="2007" arabic-form="final" 
d="M1303 0q-47 -244 -231.5 -353.5t-481.5 -109.5q-160 0 -272 34.5t-181.5 94.5t-102.5 139t-33 167q0 103 29.5 201.5t75.5 177.5l114 -68q-27 -57 -48.5 -131.5t-21.5 -146.5q0 -145 108 -230t338 -85q105 0 203.5 14t176 38.5t124 58t46.5 74.5q0 54 -83.5 87.5
t-242.5 42.5l54 150h504q69 0 111 10.5t63 34.5t27.5 63t6.5 97v874h150v-859q0 -60 7 -101t26.5 -68t55 -39t90.5 -12h129q20 0 27.5 -9t7.5 -21v-91q0 -34 -35 -34h-118q-52 0 -92 19.5t-68.5 51.5t-45 71t-22.5 78q-35 -69 -72.5 -111.5t-75 -67.5t-74.5 -33t-70 -8h-103
z" />
    <glyph glyph-name="uniFC87" unicode="&#xfee0;&#xfef2;" horiz-adv-x="2007" arabic-form="final" 
d="M426 -726l116 114l91 -93l96 93l114 -114l-114 -116l-96 94l-91 -94zM1303 0q-47 -244 -231.5 -353.5t-481.5 -109.5q-160 0 -272 34.5t-181.5 94.5t-102.5 139t-33 167q0 103 29.5 201.5t75.5 177.5l114 -68q-27 -57 -48.5 -131.5t-21.5 -146.5q0 -145 108 -230t338 -85
q105 0 203.5 14t176 38.5t124 58t46.5 74.5q0 54 -83.5 87.5t-242.5 42.5l54 150h504q69 0 111 10.5t63 34.5t27.5 63t6.5 97v874h150v-859q0 -60 7 -101t26.5 -68t55 -39t90.5 -12h129q20 0 27.5 -9t7.5 -21v-91q0 -34 -35 -34h-118q-52 0 -92 19.5t-68.5 51.5t-45 71
t-22.5 78q-35 -69 -72.5 -111.5t-75 -67.5t-74.5 -33t-70 -8h-103z" />
    <glyph glyph-name="uniFCCC" unicode="&#xfedf;&#xfee4;" horiz-adv-x="1626" arabic-form="initial" 
d="M763 248q0 35 -14.5 78.5t-39.5 80.5t-58.5 62.5t-70.5 25.5q-23 0 -51 -12.5t-59 -40t-63 -72t-61 -107.5q101 -71 189.5 -103.5t135.5 -32.5q28 0 45.5 11t27.5 29t14.5 39.5t4.5 41.5zM1060 0q-50 2 -102 37q-56 38 -78 105q-32 -67 -79 -112t-95 -45q-102 0 -205 42
t-203 117l-12 -2q-27 -53 -50 -80.5t-44 -42t-42.5 -17t-45.5 -2.5h-138q-21 0 -28.5 9t-7.5 21v91q0 34 36 34h126q46 0 78 25t68 92q64 125 120 198t103.5 109.5t86.5 46.5t69 10q69 0 123 -35t90.5 -90t55 -121t18.5 -125q0 -34 3.5 -55t19.5 -33.5t49.5 -17t94.5 -4.5
h128q36 0 82 2t71 5v1072h150v-1216q-99 -18 -349 -18h-93z" />
    <glyph glyph-name="uniFCFB" unicode="&#xfeb3;&#xfef0;" horiz-adv-x="3010" arabic-form="isolated" 
d="M1303 0q-47 -244 -231.5 -353.5t-481.5 -109.5q-160 0 -272 34.5t-181.5 94.5t-102.5 139t-33 167q0 103 29.5 201.5t75.5 177.5l114 -68q-27 -57 -48.5 -131.5t-21.5 -146.5q0 -145 108 -230t338 -85q105 0 203.5 14t176 38.5t124 58t46.5 74.5q0 54 -83.5 87.5
t-242.5 42.5l54 150h583q64 0 101 7t57.5 20.5t27 30.5t8.5 35l19 190l162 45q-9 -48 -14 -78.5t-7.5 -50.5t-3.5 -31t-1 -19q0 -32 6 -58.5t22 -46.5t46.5 -32t78.5 -12h75q108 0 151 17.5t46 55.5l25 235l162 44l-36 -206l-2 -24t-1 -21q0 -55 38 -78t109 -23h20
q50 0 101 2t103 7q6 23 6 51q0 63 -27.5 145t-70.5 178l157 46q39 -101 56 -175.5t17 -134.5q0 -82 -26 -138t-63 -118q-21 -3 -50 -6t-62.5 -5.5t-69 -4.5t-65.5 -2h-33q-69 0 -115 12.5t-75 33t-43 50t-19 64.5q-27 -50 -50 -82t-48 -48.5t-55 -23t-70 -6.5h-66
q-28 0 -56 6.5t-54.5 23t-48.5 47.5t-39 82q-37 -51 -83 -82.5t-92.5 -48.5t-92 -22.5t-84.5 -5.5h-125z" />
    <glyph glyph-name="uniFCFC" unicode="&#xfeb3;&#xfef2;" horiz-adv-x="3010" arabic-form="isolated" 
d="M426 -726l116 114l91 -93l96 93l114 -114l-114 -116l-96 94l-91 -94zM1303 0q-47 -244 -231.5 -353.5t-481.5 -109.5q-160 0 -272 34.5t-181.5 94.5t-102.5 139t-33 167q0 103 29.5 201.5t75.5 177.5l114 -68q-27 -57 -48.5 -131.5t-21.5 -146.5q0 -145 108 -230t338 -85
q105 0 203.5 14t176 38.5t124 58t46.5 74.5q0 54 -83.5 87.5t-242.5 42.5l54 150h583q64 0 101 7t57.5 20.5t27 30.5t8.5 35l19 190l162 45q-9 -48 -14 -78.5t-7.5 -50.5t-3.5 -31t-1 -19q0 -32 6 -58.5t22 -46.5t46.5 -32t78.5 -12h75q108 0 151 17.5t46 55.5l25 235
l162 44l-36 -206l-2 -24t-1 -21q0 -55 38 -78t109 -23h20q50 0 101 2t103 7q6 23 6 51q0 63 -27.5 145t-70.5 178l157 46q39 -101 56 -175.5t17 -134.5q0 -82 -26 -138t-63 -118q-21 -3 -50 -6t-62.5 -5.5t-69 -4.5t-65.5 -2h-33q-69 0 -115 12.5t-75 33t-43 50t-19 64.5
q-27 -50 -50 -82t-48 -48.5t-55 -23t-70 -6.5h-66q-28 0 -56 6.5t-54.5 23t-48.5 47.5t-39 82q-37 -51 -83 -82.5t-92.5 -48.5t-92 -22.5t-84.5 -5.5h-125z" />
    <glyph glyph-name="uniFCFD" unicode="&#xfeb7;&#xfef0;" horiz-adv-x="3010" arabic-form="isolated" 
d="M1303 0q-47 -244 -231.5 -353.5t-481.5 -109.5q-160 0 -272 34.5t-181.5 94.5t-102.5 139t-33 167q0 103 29.5 201.5t75.5 177.5l114 -68q-27 -57 -48.5 -131.5t-21.5 -146.5q0 -145 108 -230t338 -85q105 0 203.5 14t176 38.5t124 58t46.5 74.5q0 54 -83.5 87.5
t-242.5 42.5l54 150h583q64 0 101 7t57.5 20.5t27 30.5t8.5 35l19 190l162 45q-9 -48 -14 -78.5t-7.5 -50.5t-3.5 -31t-1 -19q0 -32 6 -58.5t22 -46.5t46.5 -32t78.5 -12h75q108 0 151 17.5t46 55.5l25 235l162 44l-36 -206l-2 -24t-1 -21q0 -55 38 -78t109 -23h20
q50 0 101 2t103 7q6 23 6 51q0 63 -27.5 145t-70.5 178l157 46q39 -101 56 -175.5t17 -134.5q0 -82 -26 -138t-63 -118q-21 -3 -50 -6t-62.5 -5.5t-69 -4.5t-65.5 -2h-33q-69 0 -115 12.5t-75 33t-43 50t-19 64.5q-27 -50 -50 -82t-48 -48.5t-55 -23t-70 -6.5h-66
q-28 0 -56 6.5t-54.5 23t-48.5 47.5t-39 82q-37 -51 -83 -82.5t-92.5 -48.5t-92 -22.5t-84.5 -5.5h-125zM2179 972l116 114l91 -93l96 93l114 -114l-114 -116l-96 93l-91 -93zM2274 1170l116 114l114 -114l-114 -116z" />
    <glyph glyph-name="uniFCFE" unicode="&#xfeb7;&#xfef2;" horiz-adv-x="3010" arabic-form="isolated" 
d="M426 -726l116 114l91 -93l96 93l114 -114l-114 -116l-96 94l-91 -94zM1303 0q-47 -244 -231.5 -353.5t-481.5 -109.5q-160 0 -272 34.5t-181.5 94.5t-102.5 139t-33 167q0 103 29.5 201.5t75.5 177.5l114 -68q-27 -57 -48.5 -131.5t-21.5 -146.5q0 -145 108 -230t338 -85
q105 0 203.5 14t176 38.5t124 58t46.5 74.5q0 54 -83.5 87.5t-242.5 42.5l54 150h583q64 0 101 7t57.5 20.5t27 30.5t8.5 35l19 190l162 45q-9 -48 -14 -78.5t-7.5 -50.5t-3.5 -31t-1 -19q0 -32 6 -58.5t22 -46.5t46.5 -32t78.5 -12h75q108 0 151 17.5t46 55.5l25 235
l162 44l-36 -206l-2 -24t-1 -21q0 -55 38 -78t109 -23h20q50 0 101 2t103 7q6 23 6 51q0 63 -27.5 145t-70.5 178l157 46q39 -101 56 -175.5t17 -134.5q0 -82 -26 -138t-63 -118q-21 -3 -50 -6t-62.5 -5.5t-69 -4.5t-65.5 -2h-33q-69 0 -115 12.5t-75 33t-43 50t-19 64.5
q-27 -50 -50 -82t-48 -48.5t-55 -23t-70 -6.5h-66q-28 0 -56 6.5t-54.5 23t-48.5 47.5t-39 82q-37 -51 -83 -82.5t-92.5 -48.5t-92 -22.5t-84.5 -5.5h-125zM2179 972l116 114l91 -93l96 93l114 -114l-114 -116l-96 93l-91 -93zM2274 1170l116 114l114 -114l-114 -116z" />
    <glyph glyph-name="uniFD05" unicode="&#xfebb;&#xfef0;" horiz-adv-x="3079" arabic-form="isolated" 
d="M2520 532q-37 0 -77.5 -18.5t-79.5 -46t-74 -59t-60 -55.5q-21 -20 -49.5 -48.5t-59.5 -58t-60.5 -55t-48.5 -36.5h432q31 0 74.5 1t92 2t97 3.5t87.5 6.5q10 21 16.5 40.5t6.5 45.5q0 58 -28.5 108.5t-73 87.5t-96.5 59.5t-99 22.5zM1303 0q-47 -244 -231.5 -353.5
t-481.5 -109.5q-160 0 -272 34.5t-181.5 94.5t-102.5 139t-33 167q0 103 29.5 201.5t75.5 177.5l114 -68q-27 -57 -48.5 -131.5t-21.5 -146.5q0 -145 108 -230t338 -85q105 0 203.5 14t176 38.5t124 58t46.5 74.5q0 54 -83.5 87.5t-242.5 42.5l54 150h519q60 0 95.5 16
t41.5 55l32 207l143 44l-41 -180q-2 -10 -3 -17.5t-1 -10.5q0 -66 39 -90t98 -24h42q58 34 131 101.5t142 135.5q73 69 133.5 121.5t118.5 86.5t115.5 52t123.5 18q63 0 126 -36.5t114 -91.5t82.5 -119.5t31.5 -121.5q0 -10 -1 -19.5t-2 -18.5q-16 -65 -34.5 -126.5
t-42.5 -123.5q-117 -4 -224.5 -8.5t-236.5 -4.5h-644q-34 0 -69.5 7.5t-65 25t-50 49.5t-25.5 80q-38 -91 -76 -126.5t-87 -35.5h-96z" />
    <glyph glyph-name="uniFD06" unicode="&#xfebb;&#xfef2;" horiz-adv-x="3079" arabic-form="isolated" 
d="M2520 532q-37 0 -77.5 -18.5t-79.5 -46t-74 -59t-60 -55.5q-21 -20 -49.5 -48.5t-59.5 -58t-60.5 -55t-48.5 -36.5h432q31 0 74.5 1t92 2t97 3.5t87.5 6.5q10 21 16.5 40.5t6.5 45.5q0 58 -28.5 108.5t-73 87.5t-96.5 59.5t-99 22.5zM426 -726l116 114l91 -93l96 93
l114 -114l-114 -116l-96 94l-91 -94zM1303 0q-47 -244 -231.5 -353.5t-481.5 -109.5q-160 0 -272 34.5t-181.5 94.5t-102.5 139t-33 167q0 103 29.5 201.5t75.5 177.5l114 -68q-27 -57 -48.5 -131.5t-21.5 -146.5q0 -145 108 -230t338 -85q105 0 203.5 14t176 38.5t124 58
t46.5 74.5q0 54 -83.5 87.5t-242.5 42.5l54 150h519q60 0 95.5 16t41.5 55l32 207l143 44l-41 -180q-2 -10 -3 -17.5t-1 -10.5q0 -66 39 -90t98 -24h42q58 34 131 101.5t142 135.5q73 69 133.5 121.5t118.5 86.5t115.5 52t123.5 18q63 0 126 -36.5t114 -91.5t82.5 -119.5
t31.5 -121.5q0 -10 -1 -19.5t-2 -18.5q-16 -65 -34.5 -126.5t-42.5 -123.5q-117 -4 -224.5 -8.5t-236.5 -4.5h-644q-34 0 -69.5 7.5t-65 25t-50 49.5t-25.5 80q-38 -91 -76 -126.5t-87 -35.5h-96z" />
    <glyph glyph-name="uniFD07" unicode="&#xfebf;&#xfef0;" horiz-adv-x="3079" arabic-form="isolated" 
d="M2520 532q-37 0 -77.5 -18.5t-79.5 -46t-74 -59t-60 -55.5q-21 -20 -49.5 -48.5t-59.5 -58t-60.5 -55t-48.5 -36.5h432q31 0 74.5 1t92 2t97 3.5t87.5 6.5q10 21 16.5 40.5t6.5 45.5q0 58 -28.5 108.5t-73 87.5t-96.5 59.5t-99 22.5zM2375 1070l116 113l114 -113
l-114 -116zM1303 0q-47 -244 -231.5 -353.5t-481.5 -109.5q-160 0 -272 34.5t-181.5 94.5t-102.5 139t-33 167q0 103 29.5 201.5t75.5 177.5l114 -68q-27 -57 -48.5 -131.5t-21.5 -146.5q0 -145 108 -230t338 -85q105 0 203.5 14t176 38.5t124 58t46.5 74.5q0 54 -83.5 87.5
t-242.5 42.5l54 150h519q60 0 95.5 16t41.5 55l32 207l143 44l-41 -180q-2 -10 -3 -17.5t-1 -10.5q0 -66 39 -90t98 -24h42q58 34 131 101.5t142 135.5q73 69 133.5 121.5t118.5 86.5t115.5 52t123.5 18q63 0 126 -36.5t114 -91.5t82.5 -119.5t31.5 -121.5q0 -10 -1 -19.5
t-2 -18.5q-16 -65 -34.5 -126.5t-42.5 -123.5q-117 -4 -224.5 -8.5t-236.5 -4.5h-644q-34 0 -69.5 7.5t-65 25t-50 49.5t-25.5 80q-38 -91 -76 -126.5t-87 -35.5h-96z" />
    <glyph glyph-name="uniFD08" unicode="&#xfebf;&#xfef2;" horiz-adv-x="3079" arabic-form="isolated" 
d="M2520 532q-37 0 -77.5 -18.5t-79.5 -46t-74 -59t-60 -55.5q-21 -20 -49.5 -48.5t-59.5 -58t-60.5 -55t-48.5 -36.5h432q31 0 74.5 1t92 2t97 3.5t87.5 6.5q10 21 16.5 40.5t6.5 45.5q0 58 -28.5 108.5t-73 87.5t-96.5 59.5t-99 22.5zM426 -726l116 114l91 -93l96 93
l114 -114l-114 -116l-96 94l-91 -94zM2375 1070l116 113l114 -113l-114 -116zM1303 0q-47 -244 -231.5 -353.5t-481.5 -109.5q-160 0 -272 34.5t-181.5 94.5t-102.5 139t-33 167q0 103 29.5 201.5t75.5 177.5l114 -68q-27 -57 -48.5 -131.5t-21.5 -146.5q0 -145 108 -230
t338 -85q105 0 203.5 14t176 38.5t124 58t46.5 74.5q0 54 -83.5 87.5t-242.5 42.5l54 150h519q60 0 95.5 16t41.5 55l32 207l143 44l-41 -180q-2 -10 -3 -17.5t-1 -10.5q0 -66 39 -90t98 -24h42q58 34 131 101.5t142 135.5q73 69 133.5 121.5t118.5 86.5t115.5 52t123.5 18
q63 0 126 -36.5t114 -91.5t82.5 -119.5t31.5 -121.5q0 -10 -1 -19.5t-2 -18.5q-16 -65 -34.5 -126.5t-42.5 -123.5q-117 -4 -224.5 -8.5t-236.5 -4.5h-644q-34 0 -69.5 7.5t-65 25t-50 49.5t-25.5 80q-38 -91 -76 -126.5t-87 -35.5h-96z" />
    <glyph glyph-name="uniFD0D" unicode="&#xfeb7;&#xfeae;" horiz-adv-x="2525" arabic-form="isolated" 
d="M795 0q-46 0 -96.5 27t-84.5 89h-9q-9 -62 -47.5 -145t-102 -174.5t-152 -182t-196.5 -168.5l-107 129q146 91 244 186t158.5 183t87 161.5t26.5 118.5q0 13 -5 36t-20 57t-44 77.5t-77 102.5l144 91q31 -60 59 -123.5t55 -128.5q36 -95 78.5 -138t101.5 -43h164
q64 0 101.5 7t58 20.5t26.5 30.5t8 35l19 190l162 45q-9 -48 -14 -78.5t-7.5 -50.5t-3.5 -31t-1 -19q0 -32 6 -58.5t22.5 -46.5t46.5 -32t78 -12h75q108 0 151 17.5t46 55.5l25 235l162 44l-35 -206q-2 -12 -3 -24t-1 -21q0 -55 38.5 -78t109.5 -23h20q49 0 100 2t104 7
q5 23 5 51q0 63 -27 145t-70 178l156 46q40 -101 56.5 -175.5t16.5 -134.5q0 -82 -26 -138t-63 -118q-21 -3 -49.5 -6t-62.5 -5.5t-69.5 -4.5t-65.5 -2h-33q-69 0 -115 12.5t-74.5 33t-43 50t-19.5 64.5q-26 -50 -49.5 -82t-48.5 -48.5t-55 -23t-69 -6.5h-67q-28 0 -56 6.5
t-54 23t-48.5 47.5t-39.5 82q-37 -51 -83 -82.5t-92.5 -48.5t-92 -22.5t-84.5 -5.5h-148zM1695 972l115 114l91 -93l96 93l114 -114l-114 -116l-96 93l-91 -93zM1789 1170l116 114l114 -114l-114 -116z" />
    <glyph glyph-name="uniFD0E" unicode="&#xfeb3;&#xfeae;" horiz-adv-x="2525" arabic-form="isolated" 
d="M795 0q-46 0 -96.5 27t-84.5 89h-9q-9 -62 -47.5 -145t-102 -174.5t-152 -182t-196.5 -168.5l-107 129q146 91 244 186t158.5 183t87 161.5t26.5 118.5q0 13 -5 36t-20 57t-44 77.5t-77 102.5l144 91q31 -60 59 -123.5t55 -128.5q36 -95 78.5 -138t101.5 -43h164
q64 0 101.5 7t58 20.5t26.5 30.5t8 35l19 190l162 45q-9 -48 -14 -78.5t-7.5 -50.5t-3.5 -31t-1 -19q0 -32 6 -58.5t22.5 -46.5t46.5 -32t78 -12h75q108 0 151 17.5t46 55.5l25 235l162 44l-35 -206q-2 -12 -3 -24t-1 -21q0 -55 38.5 -78t109.5 -23h20q49 0 100 2t104 7
q5 23 5 51q0 63 -27 145t-70 178l156 46q40 -101 56.5 -175.5t16.5 -134.5q0 -82 -26 -138t-63 -118q-21 -3 -49.5 -6t-62.5 -5.5t-69.5 -4.5t-65.5 -2h-33q-69 0 -115 12.5t-74.5 33t-43 50t-19.5 64.5q-26 -50 -49.5 -82t-48.5 -48.5t-55 -23t-69 -6.5h-67q-28 0 -56 6.5
t-54 23t-48.5 47.5t-39.5 82q-37 -51 -83 -82.5t-92.5 -48.5t-92 -22.5t-84.5 -5.5h-148z" />
    <glyph glyph-name="uniFD0F" unicode="&#xfebb;&#xfeae;" horiz-adv-x="2585" arabic-form="isolated" 
d="M2026 532q-37 0 -77 -18.5t-79.5 -46t-74.5 -59t-59 -55.5q-21 -20 -50 -48.5t-60 -58t-60.5 -55t-48.5 -36.5h433q30 0 73.5 1t92.5 2t97 3.5t87 6.5q10 21 16.5 40.5t6.5 45.5q0 58 -28.5 108.5t-73 87.5t-96 59.5t-99.5 22.5zM795 0q-46 0 -96.5 27t-84.5 89h-9
q-9 -62 -47.5 -145t-102 -174.5t-152 -182t-196.5 -168.5l-107 129q146 91 244 186t158.5 183t87 161.5t26.5 118.5q0 13 -5 36t-20 57t-44 77.5t-77 102.5l144 91q31 -60 59 -123.5t55 -128.5q36 -95 78.5 -138t101.5 -43h91q60 0 95.5 16t41.5 55l32 207l143 44l-41 -180
q-2 -10 -3 -17.5t-1 -10.5q0 -66 39 -90t98 -24h43q57 34 130 101.5t142 135.5q73 69 133.5 121.5t118.5 86.5t115.5 52t123.5 18q63 0 126.5 -36.5t114 -91.5t82 -119.5t31.5 -121.5q0 -10 -0.5 -19.5t-2.5 -18.5q-16 -65 -34.5 -126.5t-42.5 -123.5q-117 -4 -224.5 -8.5
t-236.5 -4.5h-644q-34 0 -69.5 7.5t-65 25t-50 49.5t-25.5 80q-38 -91 -76 -126.5t-86 -35.5h-111z" />
    <glyph glyph-name="uniFD10" unicode="&#xfebf;&#xfeae;" horiz-adv-x="2586" arabic-form="isolated" 
d="M2027 532q-37 0 -77 -18.5t-79.5 -46t-74.5 -59t-59 -55.5q-21 -20 -50 -48.5t-60 -58t-60.5 -55t-48.5 -36.5h433q30 0 73.5 1t92.5 2t97 3.5t87 6.5q10 21 16.5 40.5t6.5 45.5q0 58 -28.5 108.5t-73 87.5t-96 59.5t-99.5 22.5zM796 0q-46 0 -96.5 27t-84.5 89h-9
q-9 -62 -47.5 -145t-102 -174.5t-152 -182t-196.5 -168.5l-107 129q146 91 244 186t158.5 183t87 161.5t26.5 118.5q0 13 -5 36t-20 57t-44 77.5t-77 102.5l144 91q31 -60 59 -123.5t55 -128.5q36 -95 78.5 -138t101.5 -43h91q60 0 95.5 16t41.5 55l32 207l143 44l-41 -180
q-2 -10 -3 -17.5t-1 -10.5q0 -66 39 -90t98 -24h43q57 34 130 101.5t142 135.5q73 69 133.5 121.5t118.5 86.5t115.5 52t123.5 18q63 0 126.5 -36.5t114 -91.5t82 -119.5t31.5 -121.5q0 -10 -0.5 -19.5t-2.5 -18.5q-16 -65 -34.5 -126.5t-42.5 -123.5q-117 -4 -224.5 -8.5
t-236.5 -4.5h-644q-34 0 -69.5 7.5t-65 25t-50 49.5t-25.5 80q-38 -91 -76 -126.5t-86 -35.5h-111zM1882 1070l116 113l114 -113l-114 -116z" />
    <glyph glyph-name="uniFD17" unicode="&#xfeb4;&#xfef0;" horiz-adv-x="3021" arabic-form="final" 
d="M1303 0q-47 -244 -231.5 -353.5t-481.5 -109.5q-160 0 -272 34.5t-181.5 94.5t-102.5 139t-33 167q0 103 29.5 201.5t75.5 177.5l114 -68q-27 -57 -48.5 -131.5t-21.5 -146.5q0 -145 108 -230t338 -85q105 0 203.5 14t176 38.5t124 58t46.5 74.5q0 54 -83.5 87.5
t-242.5 42.5l54 150h602q63 0 99.5 10.5t54 24t23 29.5t7.5 29l19 190l162 45l-26 -182q-2 -10 -3 -18.5t-1 -15.5q0 -37 13.5 -59.5t33 -34t41.5 -15t41 -3.5h74q122 0 169.5 17.5t51.5 55.5l23 235l162 44l-34 -206q-2 -10 -3 -17.5t-1 -14.5q0 -64 38.5 -89t81.5 -25h18
q64 0 100.5 3.5t56 12t25 22.5t7.5 35l17 249q43 14 82 23t82 22l-30 -210q-2 -8 -3 -23t-1 -20q0 -62 40 -88t80 -26h82q20 0 27.5 -9t7.5 -21v-91q0 -34 -35 -34h-118q-57 0 -114 35.5t-84 124.5q-26 -50 -49.5 -82t-45.5 -48.5t-45.5 -23t-47.5 -6.5h-90q-28 0 -55.5 5.5
t-52.5 23t-48 49.5t-39 82q-25 -50 -48.5 -82t-46.5 -48.5t-46 -23t-46 -6.5h-95q-28 0 -57 6.5t-55 23t-48.5 47.5t-37.5 80q-65 -90 -156.5 -123.5t-198.5 -33.5h-131z" />
    <glyph glyph-name="uniFD18" unicode="&#xfeb4;&#xfef2;" horiz-adv-x="3021" arabic-form="final" 
d="M426 -726l116 114l91 -93l96 93l114 -114l-114 -116l-96 94l-91 -94zM1303 0q-47 -244 -231.5 -353.5t-481.5 -109.5q-160 0 -272 34.5t-181.5 94.5t-102.5 139t-33 167q0 103 29.5 201.5t75.5 177.5l114 -68q-27 -57 -48.5 -131.5t-21.5 -146.5q0 -145 108 -230t338 -85
q105 0 203.5 14t176 38.5t124 58t46.5 74.5q0 54 -83.5 87.5t-242.5 42.5l54 150h602q63 0 99.5 10.5t54 24t23 29.5t7.5 29l19 190l162 45l-26 -182q-2 -10 -3 -18.5t-1 -15.5q0 -37 13.5 -59.5t33 -34t41.5 -15t41 -3.5h74q122 0 169.5 17.5t51.5 55.5l23 235l162 44
l-34 -206q-2 -10 -3 -17.5t-1 -14.5q0 -64 38.5 -89t81.5 -25h18q64 0 100.5 3.5t56 12t25 22.5t7.5 35l17 249q43 14 82 23t82 22l-30 -210q-2 -8 -3 -23t-1 -20q0 -62 40 -88t80 -26h82q20 0 27.5 -9t7.5 -21v-91q0 -34 -35 -34h-118q-57 0 -114 35.5t-84 124.5
q-26 -50 -49.5 -82t-45.5 -48.5t-45.5 -23t-47.5 -6.5h-90q-28 0 -55.5 5.5t-52.5 23t-48 49.5t-39 82q-25 -50 -48.5 -82t-46.5 -48.5t-46 -23t-46 -6.5h-95q-28 0 -57 6.5t-55 23t-48.5 47.5t-37.5 80q-65 -90 -156.5 -123.5t-198.5 -33.5h-131z" />
    <glyph glyph-name="uniFD19" unicode="&#xfeb8;&#xfef0;" horiz-adv-x="3021" arabic-form="final" 
d="M1303 0q-47 -244 -231.5 -353.5t-481.5 -109.5q-160 0 -272 34.5t-181.5 94.5t-102.5 139t-33 167q0 103 29.5 201.5t75.5 177.5l114 -68q-27 -57 -48.5 -131.5t-21.5 -146.5q0 -145 108 -230t338 -85q105 0 203.5 14t176 38.5t124 58t46.5 74.5q0 54 -83.5 87.5
t-242.5 42.5l54 150h602q63 0 99.5 10.5t54 24t23 29.5t7.5 29l19 190l162 45l-26 -182q-2 -10 -3 -18.5t-1 -15.5q0 -37 13.5 -59.5t33 -34t41.5 -15t41 -3.5h74q122 0 169.5 17.5t51.5 55.5l23 235l162 44l-34 -206q-2 -10 -3 -17.5t-1 -14.5q0 -64 38.5 -89t81.5 -25h18
q64 0 100.5 3.5t56 12t25 22.5t7.5 35l17 249q43 14 82 23t82 22l-30 -210q-2 -8 -3 -23t-1 -20q0 -62 40 -88t80 -26h82q20 0 27.5 -9t7.5 -21v-91q0 -34 -35 -34h-118q-57 0 -114 35.5t-84 124.5q-26 -50 -49.5 -82t-45.5 -48.5t-45.5 -23t-47.5 -6.5h-90q-28 0 -55.5 5.5
t-52.5 23t-48 49.5t-39 82q-25 -50 -48.5 -82t-46.5 -48.5t-46 -23t-46 -6.5h-95q-28 0 -57 6.5t-55 23t-48.5 47.5t-37.5 80q-65 -90 -156.5 -123.5t-198.5 -33.5h-131zM2183 972l116 114l91 -93l94 93l114 -114l-114 -116l-94 93l-91 -93zM2278 1170l115 114l114 -114
l-114 -116z" />
    <glyph glyph-name="uniFD1A" unicode="&#xfeb8;&#xfef2;" horiz-adv-x="3021" arabic-form="final" 
d="M426 -726l116 114l91 -93l96 93l114 -114l-114 -116l-96 94l-91 -94zM1303 0q-47 -244 -231.5 -353.5t-481.5 -109.5q-160 0 -272 34.5t-181.5 94.5t-102.5 139t-33 167q0 103 29.5 201.5t75.5 177.5l114 -68q-27 -57 -48.5 -131.5t-21.5 -146.5q0 -145 108 -230t338 -85
q105 0 203.5 14t176 38.5t124 58t46.5 74.5q0 54 -83.5 87.5t-242.5 42.5l54 150h602q63 0 99.5 10.5t54 24t23 29.5t7.5 29l19 190l162 45l-26 -182q-2 -10 -3 -18.5t-1 -15.5q0 -37 13.5 -59.5t33 -34t41.5 -15t41 -3.5h74q122 0 169.5 17.5t51.5 55.5l23 235l162 44
l-34 -206q-2 -10 -3 -17.5t-1 -14.5q0 -64 38.5 -89t81.5 -25h18q64 0 100.5 3.5t56 12t25 22.5t7.5 35l17 249q43 14 82 23t82 22l-30 -210q-2 -8 -3 -23t-1 -20q0 -62 40 -88t80 -26h82q20 0 27.5 -9t7.5 -21v-91q0 -34 -35 -34h-118q-57 0 -114 35.5t-84 124.5
q-26 -50 -49.5 -82t-45.5 -48.5t-45.5 -23t-47.5 -6.5h-90q-28 0 -55.5 5.5t-52.5 23t-48 49.5t-39 82q-25 -50 -48.5 -82t-46.5 -48.5t-46 -23t-46 -6.5h-95q-28 0 -57 6.5t-55 23t-48.5 47.5t-37.5 80q-65 -90 -156.5 -123.5t-198.5 -33.5h-131zM2183 972l116 114l91 -93
l94 93l114 -114l-114 -116l-94 93l-91 -93zM2278 1170l115 114l114 -114l-114 -116z" />
    <glyph glyph-name="uniFD21" unicode="&#xfebc;&#xfef0;" horiz-adv-x="3174" arabic-form="final" 
d="M2513 532q-38 0 -78 -18.5t-79 -46t-74 -59t-60 -55.5q-21 -20 -49.5 -49.5t-59.5 -58t-59 -54t-47 -36.5h424q37 0 84 1t95 2t94 3.5t84 6.5q9 19 15.5 42t6.5 44q0 50 -26 99.5t-69 89.5t-96 64.5t-106 24.5zM1303 0q-47 -244 -231.5 -353.5t-481.5 -109.5
q-160 0 -272 34.5t-181.5 94.5t-102.5 139t-33 167q0 103 29.5 201.5t75.5 177.5l114 -68q-27 -57 -48.5 -131.5t-21.5 -146.5q0 -145 108 -230t338 -85q105 0 203.5 14t176 38.5t124 58t46.5 74.5q0 54 -83.5 87.5t-242.5 42.5l54 150h512q60 0 94.5 16t40.5 55l31 207
l144 44l-41 -180q-2 -10 -3 -17.5t-1 -10.5q0 -64 38 -89t99 -25h44q28 16 60.5 42.5t69 58t73 67t70.5 69.5q72 69 133 121.5t118.5 86.5t115.5 52t124 18q62 0 124.5 -35.5t113 -91.5t81.5 -123t31 -129v-35q0 -34 45.5 -67.5t127.5 -33.5h92q21 0 28 -9t7 -21v-91
q0 -34 -35 -34h-54q-39 0 -78.5 11.5t-71 34.5t-53 57.5t-27.5 79.5q-14 -45 -29 -88t-30 -82q-112 -8 -214 -10.5t-229 -2.5h-662q-36 0 -71.5 7.5t-65 25t-49 49.5t-23.5 80q-39 -91 -76.5 -126.5t-85.5 -35.5h-89z" />
    <glyph glyph-name="uniFD22" unicode="&#xfebc;&#xfef2;" horiz-adv-x="3174" arabic-form="final" 
d="M2513 532q-38 0 -78 -18.5t-79 -46t-74 -59t-60 -55.5q-21 -20 -49.5 -49.5t-59.5 -58t-59 -54t-47 -36.5h424q37 0 84 1t95 2t94 3.5t84 6.5q9 19 15.5 42t6.5 44q0 50 -26 99.5t-69 89.5t-96 64.5t-106 24.5zM426 -726l116 114l91 -93l96 93l114 -114l-114 -116l-96 94
l-91 -94zM1303 0q-47 -244 -231.5 -353.5t-481.5 -109.5q-160 0 -272 34.5t-181.5 94.5t-102.5 139t-33 167q0 103 29.5 201.5t75.5 177.5l114 -68q-27 -57 -48.5 -131.5t-21.5 -146.5q0 -145 108 -230t338 -85q105 0 203.5 14t176 38.5t124 58t46.5 74.5q0 54 -83.5 87.5
t-242.5 42.5l54 150h512q60 0 94.5 16t40.5 55l31 207l144 44l-41 -180q-2 -10 -3 -17.5t-1 -10.5q0 -64 38 -89t99 -25h44q28 16 60.5 42.5t69 58t73 67t70.5 69.5q72 69 133 121.5t118.5 86.5t115.5 52t124 18q62 0 124.5 -35.5t113 -91.5t81.5 -123t31 -129v-35
q0 -34 45.5 -67.5t127.5 -33.5h92q21 0 28 -9t7 -21v-91q0 -34 -35 -34h-54q-39 0 -78.5 11.5t-71 34.5t-53 57.5t-27.5 79.5q-14 -45 -29 -88t-30 -82q-112 -8 -214 -10.5t-229 -2.5h-662q-36 0 -71.5 7.5t-65 25t-49 49.5t-23.5 80q-39 -91 -76.5 -126.5t-85.5 -35.5h-89z
" />
    <glyph glyph-name="uniFD23" unicode="&#xfec0;&#xfef0;" horiz-adv-x="3174" arabic-form="final" 
d="M2364 1070l116 113l114 -113l-114 -116zM2513 532q-38 0 -78 -18.5t-79 -46t-74 -59t-60 -55.5q-21 -20 -49.5 -49.5t-59.5 -58t-59 -54t-47 -36.5h424q37 0 84 1t95 2t94 3.5t84 6.5q9 19 15.5 42t6.5 44q0 50 -26 99.5t-69 89.5t-96 64.5t-106 24.5zM1303 0
q-47 -244 -231.5 -353.5t-481.5 -109.5q-160 0 -272 34.5t-181.5 94.5t-102.5 139t-33 167q0 103 29.5 201.5t75.5 177.5l114 -68q-27 -57 -48.5 -131.5t-21.5 -146.5q0 -145 108 -230t338 -85q105 0 203.5 14t176 38.5t124 58t46.5 74.5q0 54 -83.5 87.5t-242.5 42.5
l54 150h512q60 0 94.5 16t40.5 55l31 207l144 44l-41 -180q-2 -10 -3 -17.5t-1 -10.5q0 -64 38 -89t99 -25h44q28 16 60.5 42.5t69 58t73 67t70.5 69.5q72 69 133 121.5t118.5 86.5t115.5 52t124 18q62 0 124.5 -35.5t113 -91.5t81.5 -123t31 -129v-35q0 -34 45.5 -67.5
t127.5 -33.5h92q21 0 28 -9t7 -21v-91q0 -34 -35 -34h-54q-39 0 -78.5 11.5t-71 34.5t-53 57.5t-27.5 79.5q-14 -45 -29 -88t-30 -82q-112 -8 -214 -10.5t-229 -2.5h-662q-36 0 -71.5 7.5t-65 25t-49 49.5t-23.5 80q-39 -91 -76.5 -126.5t-85.5 -35.5h-89z" />
    <glyph glyph-name="uniFD24" unicode="&#xfec0;&#xfef2;" horiz-adv-x="3174" arabic-form="final" 
d="M2364 1070l116 113l114 -113l-114 -116zM2513 532q-38 0 -78 -18.5t-79 -46t-74 -59t-60 -55.5q-21 -20 -49.5 -49.5t-59.5 -58t-59 -54t-47 -36.5h424q37 0 84 1t95 2t94 3.5t84 6.5q9 19 15.5 42t6.5 44q0 50 -26 99.5t-69 89.5t-96 64.5t-106 24.5zM426 -726l116 114
l91 -93l96 93l114 -114l-114 -116l-96 94l-91 -94zM1303 0q-47 -244 -231.5 -353.5t-481.5 -109.5q-160 0 -272 34.5t-181.5 94.5t-102.5 139t-33 167q0 103 29.5 201.5t75.5 177.5l114 -68q-27 -57 -48.5 -131.5t-21.5 -146.5q0 -145 108 -230t338 -85q105 0 203.5 14
t176 38.5t124 58t46.5 74.5q0 54 -83.5 87.5t-242.5 42.5l54 150h512q60 0 94.5 16t40.5 55l31 207l144 44l-41 -180q-2 -10 -3 -17.5t-1 -10.5q0 -64 38 -89t99 -25h44q28 16 60.5 42.5t69 58t73 67t70.5 69.5q72 69 133 121.5t118.5 86.5t115.5 52t124 18
q62 0 124.5 -35.5t113 -91.5t81.5 -123t31 -129v-35q0 -34 45.5 -67.5t127.5 -33.5h92q21 0 28 -9t7 -21v-91q0 -34 -35 -34h-54q-39 0 -78.5 11.5t-71 34.5t-53 57.5t-27.5 79.5q-14 -45 -29 -88t-30 -82q-112 -8 -214 -10.5t-229 -2.5h-662q-36 0 -71.5 7.5t-65 25
t-49 49.5t-23.5 80q-39 -91 -76.5 -126.5t-85.5 -35.5h-89z" />
    <glyph glyph-name="uniFD29" unicode="&#xfeb8;&#xfeae;" horiz-adv-x="2528" arabic-form="final" 
d="M1785 1170l116 114l113 -114l-113 -116zM796 0q-46 0 -96.5 27t-84.5 89h-9q-9 -62 -47.5 -145t-102 -174.5t-152 -182t-196.5 -168.5l-107 129q146 91 244 186t158.5 183t87 161.5t26.5 118.5q0 13 -5 36t-20 57t-44 77.5t-77 102.5l144 91q31 -60 59 -123.5t55 -128.5
q36 -95 78.5 -138t101.5 -43h174q63 0 99.5 10.5t54 24t23 29.5t7.5 29l19 190l162 45l-26 -182q-2 -10 -3 -18.5t-1 -15.5q0 -37 13.5 -59.5t33 -34t42 -15t40.5 -3.5h75q122 0 169 17.5t51 55.5l23 235l162 44l-34 -206q-2 -10 -2.5 -17.5t-0.5 -14.5q0 -64 38 -89t81 -25
h18q64 0 100.5 3.5t56 12t25 22.5t7.5 35l17 249q43 14 82 23t82 22l-30 -210q-2 -8 -3 -23t-1 -20q0 -62 40 -88t80 -26h82q21 0 28 -9t7 -21v-91q0 -34 -35 -34h-118q-57 0 -114 35.5t-84 124.5q-26 -50 -49 -82t-45.5 -48.5t-46 -23t-47.5 -6.5h-89q-29 0 -56.5 5.5
t-52.5 23t-48 49.5t-39 82q-25 -50 -48 -82t-46.5 -48.5t-46.5 -23t-46 -6.5h-95q-28 0 -57 6.5t-55 23t-48.5 47.5t-37.5 80q-65 -90 -156.5 -123.5t-198.5 -33.5h-145zM1690 972l116 114l91 -93l95 93l113 -114l-113 -116l-95 93l-91 -93z" />
    <glyph glyph-name="uniFD2A" unicode="&#xfeb4;&#xfeae;" horiz-adv-x="2527" arabic-form="final" 
d="M795 0q-46 0 -96.5 27t-84.5 89h-9q-9 -62 -47.5 -145t-102 -174.5t-152 -182t-196.5 -168.5l-107 129q146 91 244 186t158.5 183t87 161.5t26.5 118.5q0 13 -5 36t-20 57t-44 77.5t-77 102.5l144 91q31 -60 59 -123.5t55 -128.5q36 -95 78.5 -138t101.5 -43h174
q63 0 99.5 10.5t54 24t23 29.5t7.5 29l19 190l162 45l-26 -182q-2 -10 -3 -18.5t-1 -15.5q0 -37 13.5 -59.5t33 -34t42 -15t40.5 -3.5h75q122 0 169 17.5t51 55.5l23 235l162 44l-34 -206q-2 -10 -2.5 -17.5t-0.5 -14.5q0 -64 38 -89t81 -25h18q64 0 100.5 3.5t56 12
t25 22.5t7.5 35l17 249q43 14 82 23t82 22l-30 -210q-2 -8 -3 -23t-1 -20q0 -62 40 -88t80 -26h82q21 0 28 -9t7 -21v-91q0 -34 -35 -34h-118q-57 0 -114 35.5t-84 124.5q-26 -50 -49 -82t-45.5 -48.5t-46 -23t-47.5 -6.5h-89q-29 0 -56.5 5.5t-52.5 23t-48 49.5t-39 82
q-25 -50 -48 -82t-46.5 -48.5t-46.5 -23t-46 -6.5h-95q-28 0 -57 6.5t-55 23t-48.5 47.5t-37.5 80q-65 -90 -156.5 -123.5t-198.5 -33.5h-145z" />
    <glyph glyph-name="uniFD2B" unicode="&#xfebc;&#xfeae;" horiz-adv-x="2689" arabic-form="final" 
d="M2028 532q-37 0 -77.5 -18.5t-79.5 -46t-74 -59t-60 -55.5q-21 -20 -49.5 -49.5t-59.5 -58t-59 -54t-47 -36.5h424q37 0 84 1t95.5 2t94.5 3.5t83 6.5q9 19 15.5 42t6.5 44q0 50 -26 99.5t-69 89.5t-96 64.5t-106 24.5zM795 0q-46 0 -96.5 27t-84.5 89h-9
q-9 -62 -47.5 -145t-102 -174.5t-152 -182t-196.5 -168.5l-107 129q146 91 244 186t158.5 183t87 161.5t26.5 118.5q0 13 -5 36t-20 57t-44 77.5t-77 102.5l144 91q31 -60 59 -123.5t55 -128.5q36 -95 78.5 -138t101.5 -43h93q60 0 94.5 16t40.5 55l32 207l143 44l-41 -180
q-2 -10 -3 -17.5t-1 -10.5q0 -64 38.5 -89t98.5 -25h44q29 16 61 42.5t68.5 58t73 67t70.5 69.5q73 69 133.5 121.5t118.5 86.5t115.5 52t123.5 18q63 0 125.5 -35.5t113 -91.5t81.5 -123t31 -129v-35q0 -34 45.5 -67.5t127.5 -33.5h91q21 0 28 -9t7 -21v-91q0 -34 -35 -34
h-54q-39 0 -78 11.5t-71 34.5t-53.5 57.5t-27.5 79.5q-14 -45 -29 -88t-30 -82q-112 -8 -214 -10.5t-229 -2.5h-662q-35 0 -70.5 7.5t-65.5 25t-49.5 49.5t-22.5 80q-40 -91 -77 -126.5t-86 -35.5h-112z" />
    <glyph glyph-name="uniFD2C" unicode="&#xfec0;&#xfeae;" horiz-adv-x="2690" arabic-form="final" 
d="M2029 532q-37 0 -77.5 -18.5t-79.5 -46t-74 -59t-60 -55.5q-21 -20 -49.5 -49.5t-59.5 -58t-59 -54t-47 -36.5h424q37 0 84 1t95.5 2t94.5 3.5t83 6.5q9 19 15.5 42t6.5 44q0 50 -26 99.5t-69 89.5t-96 64.5t-106 24.5zM796 0q-46 0 -96.5 27t-84.5 89h-9
q-9 -62 -47.5 -145t-102 -174.5t-152 -182t-196.5 -168.5l-107 129q146 91 244 186t158.5 183t87 161.5t26.5 118.5q0 13 -5 36t-20 57t-44 77.5t-77 102.5l144 91q31 -60 59 -123.5t55 -128.5q36 -95 78.5 -138t101.5 -43h93q60 0 94.5 16t40.5 55l32 207l143 44l-41 -180
q-2 -10 -3 -17.5t-1 -10.5q0 -64 38.5 -89t98.5 -25h44q29 16 61 42.5t68.5 58t73 67t70.5 69.5q73 69 133.5 121.5t118.5 86.5t115.5 52t123.5 18q63 0 125.5 -35.5t113 -91.5t81.5 -123t31 -129v-35q0 -34 45.5 -67.5t127.5 -33.5h91q21 0 28 -9t7 -21v-91q0 -34 -35 -34
h-54q-39 0 -78 11.5t-71 34.5t-53.5 57.5t-27.5 79.5q-14 -45 -29 -88t-30 -82q-112 -8 -214 -10.5t-229 -2.5h-662q-35 0 -70.5 7.5t-65.5 25t-49.5 49.5t-22.5 80q-40 -91 -77 -126.5t-86 -35.5h-112zM1880 1070l116 113l114 -113l-114 -116z" />
    <glyph glyph-name="uniFEF5" unicode="&#xfedf;&#xfe82;" horiz-adv-x="1080" arabic-form="isolated" 
d="M137 155q317 0 485 112l-338 593l144 58l286 -565q94 119 94 315v566h150v-543q0 -163 -53.5 -291.5t-149 -217.5t-229 -135.5t-294.5 -46.5h-95l-43 155h43zM92 1109q40 43 75.5 55.5t70.5 12.5q32 0 78 -17t86 -37q42 -21 80 -34.5t68 -13.5q44 0 66.5 26t31.5 54
l56 -26q-25 -73 -58 -110.5t-96 -37.5q-48 0 -90 16t-82 37q-40 20 -80 35t-74 15q-30 0 -50 -7t-46 -28z" />
    <glyph glyph-name="uniFEF6" unicode="&#xfee0;&#xfe82;" horiz-adv-x="1152" arabic-form="final" 
d="M105 1111q39 42 73.5 55t69.5 13q32 0 77 -17t84 -37q41 -21 78.5 -34.5t66.5 -13.5q44 0 65.5 26t30.5 54l55 -26q-25 -73 -57 -110.5t-94 -37.5q-47 0 -88 16t-81 37q-39 20 -78 35t-73 15q-29 0 -48.5 -7.5t-44.5 -28.5zM133 155q317 0 485 112l-338 593l144 58
l286 -565q94 119 94 315v566h150v-859q0 -58 7.5 -99t28 -68t54.5 -40t91 -13h54q21 0 28 -9t7 -21v-91q0 -34 -35 -34h-86q-54 0 -104.5 14t-91.5 48.5t-68 95.5t-35 155q-55 -101 -132.5 -162.5t-158.5 -94.5t-157 -44.5t-128 -11.5h-95l-43 155h43z" />
    <glyph glyph-name="uniFEF7" unicode="&#xfedf;&#xfe84;" horiz-adv-x="1076" arabic-form="isolated" 
d="M92 1015q15 9 46 27.5t53 22.5q-67 36 -67 99q0 30 14.5 60.5t38.5 55.5t53.5 39.5t59.5 14.5q32 0 56 -9v-81q-15 6 -30 10.5t-33 4.5q-40 0 -70.5 -21.5t-30.5 -43.5q0 -37 29 -66t63 -29q21 0 62 10.5t75 19.5l-13 -80q-83 -15 -146 -35.5t-131 -69.5zM133 155
q317 0 485 112l-338 593l144 58l286 -565q94 119 94 315v566h150v-543q0 -163 -53.5 -291.5t-149 -217.5t-229 -135.5t-294.5 -46.5h-95l-43 155h43z" />
    <glyph glyph-name="uniFEF8" unicode="&#xfee0;&#xfe84;" horiz-adv-x="1152" arabic-form="final" 
d="M162 1019q15 9 46 27.5t53 23.5q-67 34 -67 98q0 30 15 60.5t38 55t53 39t60 14.5q32 0 56 -9v-80q-15 6 -30 10.5t-34 4.5q-39 0 -70 -21.5t-31 -43.5q0 -37 29.5 -66.5t64.5 -29.5q20 0 61 10.5t75 19.5l-13 -80q-82 -14 -145.5 -34.5t-130.5 -70.5zM133 155
q317 0 485 112l-338 593l144 58l286 -565q94 119 94 315v566h150v-859q0 -58 7.5 -99t28 -68t54.5 -40t91 -13h54q21 0 28 -9t7 -21v-91q0 -34 -35 -34h-86q-54 0 -104.5 14t-91.5 48.5t-68 95.5t-35 155q-55 -101 -132.5 -162.5t-158.5 -94.5t-157 -44.5t-128 -11.5h-95
l-43 155h43z" />
    <glyph glyph-name="uniFEF9" unicode="&#xfedf;&#xfe88;" horiz-adv-x="1076" arabic-form="isolated" 
d="M410 -445q15 9 45.5 27.5t53.5 22.5q-67 35 -67 98q0 30 15 61t38 55t53 39t60 15q31 0 56 -10v-80q-15 7 -30 11.5t-34 4.5q-39 0 -69.5 -21.5t-30.5 -44.5q0 -37 28.5 -66t64.5 -29q21 0 62 10t75 19l-14 -80q-82 -14 -145.5 -34.5t-130.5 -69.5zM133 155
q317 0 485 112l-338 593l144 58l286 -565q94 119 94 315v566h150v-543q0 -163 -53.5 -291.5t-149 -217.5t-229 -135.5t-294.5 -46.5h-95l-43 155h43z" />
    <glyph glyph-name="uniFEFA" unicode="&#xfee0;&#xfe88;" horiz-adv-x="1152" arabic-form="final" 
d="M222 -445q15 9 46 27.5t53 22.5q-68 35 -68 98q0 30 15 61t38.5 55t53.5 39t60 15q32 0 55 -10v-80q-14 7 -29 11.5t-33 4.5q-40 0 -71 -21.5t-31 -44.5q0 -37 29 -66t64 -29q21 0 62 10t75 19l-13 -80q-83 -14 -146 -34.5t-131 -69.5zM133 155q317 0 485 112l-338 593
l144 58l286 -565q94 119 94 315v566h150v-859q0 -58 7.5 -99t28 -68t54.5 -40t91 -13h54q21 0 28 -9t7 -21v-91q0 -34 -35 -34h-86q-54 0 -104.5 14t-91.5 48.5t-68 95.5t-35 155q-55 -101 -132.5 -162.5t-158.5 -94.5t-157 -44.5t-128 -11.5h-95l-43 155h43z" />
    <glyph glyph-name="uniFEFB" unicode="&#xfedf;&#xfe8e;" horiz-adv-x="1076" arabic-form="isolated" 
d="M133 155q317 0 485 112l-338 593l144 58l286 -565q94 119 94 315v566h150v-543q0 -163 -53.5 -291.5t-149 -217.5t-229 -135.5t-294.5 -46.5h-95l-43 155h43z" />
    <glyph glyph-name="uniFEFC" unicode="&#xfee0;&#xfe8e;" horiz-adv-x="1152" arabic-form="final" 
d="M133 155q317 0 485 112l-338 593l144 58l286 -565q94 119 94 315v566h150v-859q0 -58 7.5 -99t28 -68t54.5 -40t91 -13h54q21 0 28 -9t7 -21v-91q0 -34 -35 -34h-86q-54 0 -104.5 14t-91.5 48.5t-68 95.5t-35 155q-55 -101 -132.5 -162.5t-158.5 -94.5t-157 -44.5
t-128 -11.5h-95l-43 155h43z" />
    <glyph glyph-name="uniFE8B_uniFEE4.liga" unicode="&#xfe8b;&#xfee4;" horiz-adv-x="1676" 
d="M1189 860l60 33t70 29v7q-87 49 -87 127q0 39 19.5 79t50.5 72t69 51.5t77 19.5q21 0 41.5 -2.5t32.5 -10.5v-97q-18 7 -38.5 13t-45.5 6t-49.5 -8.5t-42.5 -22t-29 -29t-11 -32.5q0 -48 35 -86.5t88 -38.5q29 0 81.5 12.5t98.5 26.5l-17 -99q-54 -9 -99 -19t-87 -26
t-85 -39t-93 -59zM771 248q0 35 -14.5 78.5t-39.5 80.5t-58.5 62.5t-70.5 25.5q-23 0 -51 -12.5t-59 -40t-63 -72t-61 -107.5q101 -71 189.5 -103.5t135.5 -32.5q28 0 45.5 11t27.5 29t14.5 39.5t4.5 41.5zM1072 0q-52 0 -107 37.5t-77 104.5q-32 -67 -79 -112t-95 -45
q-102 0 -205 42t-203 117l-12 -2q-27 -53 -50 -80.5t-44 -42t-42.5 -17t-45.5 -2.5h-138q-21 0 -28.5 9t-7.5 21v91q0 34 36 34h126q46 0 78 25t68 92q64 125 120 198t103.5 109.5t86.5 46.5t69 10q69 0 123 -35t90.5 -90t55 -121t18.5 -125q0 -34 3.5 -55t19.5 -33.5
t49.5 -17t94.5 -4.5h89h40.5t60.5 1t71 2.5t71 5.5q6 23 6 48q0 62 -27.5 144t-70.5 180l153 48q39 -101 57 -175.5t18 -134.5q0 -80 -26 -137t-63 -119q-64 -11 -145 -14.5t-140 -3.5h-101z" />
    <glyph glyph-name="uniFE8B_uniFEF0.liga" unicode="&#xfe8b;&#xfef0;" horiz-adv-x="1890" 
d="M1303 0q-47 -244 -231.5 -353.5t-481.5 -109.5q-160 0 -272 34.5t-181.5 94.5t-102.5 139t-33 167q0 103 29.5 201.5t75.5 177.5l114 -68q-27 -57 -48.5 -131.5t-21.5 -146.5q0 -145 108 -230t338 -85q105 0 203.5 14t176 38.5t124 58t46.5 74.5q0 54 -83.5 87.5
t-242.5 42.5l54 150h515h41t60.5 1t71 2.5t71.5 5.5q5 23 5 48q0 62 -27.5 144t-69.5 180l153 48q39 -101 56.5 -175.5t17.5 -134.5q0 -80 -26 -137t-63 -119q-64 -11 -145 -14.5t-139 -3.5h-92zM1410 860q20 11 60.5 33t70.5 29v7q-88 49 -88 127q0 39 19.5 79t50.5 72
t69.5 51.5t77.5 19.5q20 0 40.5 -2.5t33.5 -10.5v-97q-18 7 -38.5 13t-45.5 6q-26 0 -50.5 -8.5t-42 -22t-28.5 -29t-11 -32.5q0 -48 34.5 -86.5t88.5 -38.5q28 0 81 12.5t98 26.5l-17 -99q-54 -9 -98.5 -19t-87 -26t-85 -39t-92.5 -59z" />
    <glyph glyph-name="uniFE8B_uniFEF2.liga" unicode="&#xfe8b;&#xfef2;" horiz-adv-x="1890" 
d="M426 -726l116 114l91 -93l96 93l114 -114l-114 -116l-96 94l-91 -94zM1303 0q-47 -244 -231.5 -353.5t-481.5 -109.5q-160 0 -272 34.5t-181.5 94.5t-102.5 139t-33 167q0 103 29.5 201.5t75.5 177.5l114 -68q-27 -57 -48.5 -131.5t-21.5 -146.5q0 -145 108 -230t338 -85
q105 0 203.5 14t176 38.5t124 58t46.5 74.5q0 54 -83.5 87.5t-242.5 42.5l54 150h515h41t60.5 1t71 2.5t71.5 5.5q5 23 5 48q0 62 -27.5 144t-69.5 180l153 48q39 -101 56.5 -175.5t17.5 -134.5q0 -80 -26 -137t-63 -119q-64 -11 -145 -14.5t-139 -3.5h-92zM1410 860
q20 11 60.5 33t70.5 29v7q-88 49 -88 127q0 39 19.5 79t50.5 72t69.5 51.5t77.5 19.5q20 0 40.5 -2.5t33.5 -10.5v-97q-18 7 -38.5 13t-45.5 6q-26 0 -50.5 -8.5t-42 -22t-28.5 -29t-11 -32.5q0 -48 34.5 -86.5t88.5 -38.5q28 0 81 12.5t98 26.5l-17 -99q-54 -9 -98.5 -19
t-87 -26t-85 -39t-92.5 -59z" />
    <glyph glyph-name="uniFE91_uniFEE4.liga" unicode="&#xfe91;&#xfee4;" horiz-adv-x="1658" 
d="M771 248q0 35 -14.5 78.5t-39.5 80.5t-58.5 62.5t-70.5 25.5q-23 0 -51 -12.5t-59 -40t-63 -72t-61 -107.5q101 -71 189.5 -103.5t135.5 -32.5q28 0 45.5 11t27.5 29t14.5 39.5t4.5 41.5zM1072 0q-52 0 -107 37.5t-77 104.5q-32 -67 -79 -112t-95 -45q-102 0 -205 42
t-203 117l-12 -2q-27 -53 -50 -80.5t-44 -42t-42.5 -17t-45.5 -2.5h-138q-21 0 -28.5 9t-7.5 21v91q0 34 36 34h126q46 0 78 25t68 92q64 125 120 198t103.5 109.5t86.5 46.5t69 10q69 0 123 -35t90.5 -90t55 -121t18.5 -125q0 -34 3.5 -55t19.5 -33.5t49.5 -17t94.5 -4.5
h89h40.5t60.5 1t71 2.5t71 5.5q6 23 6 48q0 62 -27.5 144t-70.5 180l153 48q39 -101 57 -175.5t18 -134.5q0 -80 -26 -137t-63 -119q-64 -11 -145 -14.5t-140 -3.5h-101zM1278 -276l116 114l114 -114l-114 -116z" />
    <glyph glyph-name="uniFE92_uniFEE6.liga" unicode="&#xfe92;&#xfee6;" horiz-adv-x="1823" 
d="M397 703l116 114l114 -114l-114 -115zM1436 -276l115 114l114 -114l-114 -116zM1183 0q-41 0 -79.5 26t-54.5 79q-11 -139 -62.5 -237.5t-128 -161t-173 -92.5t-198.5 -30q-117 0 -208.5 34.5t-153 93t-93.5 137t-32 166.5q0 78 21.5 154.5t62.5 154.5l119 -66
q-30 -68 -41 -115.5t-11 -105.5q0 -73 27 -129.5t74 -97t109.5 -61t135.5 -20.5q126 0 205.5 35t124 86t60.5 109.5t16 107.5q0 45 -12 88t-29.5 84t-39 77.5t-40.5 66.5l162 69q34 -88 61 -145t54 -90.5t55 -47.5t63 -14h112q61 0 103 3.5t67.5 12t37.5 22.5t13 35l18 249
l164 45l-32 -216q-2 -9 -3 -20.5t-1 -20.5q0 -64 39.5 -87t108.5 -23h55q21 0 28.5 -9t7.5 -21v-91q0 -34 -36 -34h-62q-107 0 -170.5 33t-82.5 127q-25 -50 -48 -82t-48 -48.5t-54.5 -23t-71.5 -6.5h-139z" />
    <glyph glyph-name="uniFE91_uniFEF0.liga" unicode="&#xfe91;&#xfef0;" horiz-adv-x="1874" 
d="M1303 0q-47 -244 -231.5 -353.5t-481.5 -109.5q-160 0 -272 34.5t-181.5 94.5t-102.5 139t-33 167q0 103 29.5 201.5t75.5 177.5l114 -68q-27 -57 -48.5 -131.5t-21.5 -146.5q0 -145 108 -230t338 -85q105 0 203.5 14t176 38.5t124 58t46.5 74.5q0 54 -83.5 87.5
t-242.5 42.5l54 150h515h41t60.5 1t71 2.5t71.5 5.5q5 23 5 48q0 62 -27.5 144t-69.5 180l153 48q39 -101 56.5 -175.5t17.5 -134.5q0 -80 -26 -137t-63 -119q-64 -11 -145 -14.5t-139 -3.5h-92zM1500 -276l115 114l114 -114l-114 -116z" />
    <glyph glyph-name="uniFE91_uniFEF2.liga" unicode="&#xfe91;&#xfef2;" horiz-adv-x="1874" 
d="M426 -726l116 114l91 -93l96 93l114 -114l-114 -116l-96 94l-91 -94zM1303 0q-47 -244 -231.5 -353.5t-481.5 -109.5q-160 0 -272 34.5t-181.5 94.5t-102.5 139t-33 167q0 103 29.5 201.5t75.5 177.5l114 -68q-27 -57 -48.5 -131.5t-21.5 -146.5q0 -145 108 -230t338 -85
q105 0 203.5 14t176 38.5t124 58t46.5 74.5q0 54 -83.5 87.5t-242.5 42.5l54 150h515h41t60.5 1t71 2.5t71.5 5.5q5 23 5 48q0 62 -27.5 144t-69.5 180l153 48q39 -101 56.5 -175.5t17.5 -134.5q0 -80 -26 -137t-63 -119q-64 -11 -145 -14.5t-139 -3.5h-92zM1500 -276
l115 114l114 -114l-114 -116z" />
    <glyph glyph-name="uniFE97_uniFEE4.liga" unicode="&#xfe97;&#xfee4;" horiz-adv-x="1696" 
d="M771 248q0 35 -14.5 78.5t-39.5 80.5t-58.5 62.5t-70.5 25.5q-23 0 -51 -12.5t-59 -40t-63 -72t-61 -107.5q101 -71 189.5 -103.5t135.5 -32.5q28 0 45.5 11t27.5 29t14.5 39.5t4.5 41.5zM1072 0q-52 0 -107 37.5t-77 104.5q-32 -67 -79 -112t-95 -45q-102 0 -205 42
t-203 117l-12 -2q-27 -53 -50 -80.5t-44 -42t-42.5 -17t-45.5 -2.5h-138q-21 0 -28.5 9t-7.5 21v91q0 34 36 34h126q46 0 78 25t68 92q64 125 120 198t103.5 109.5t86.5 46.5t69 10q69 0 123 -35t90.5 -90t55 -121t18.5 -125q0 -34 3.5 -55t19.5 -33.5t49.5 -17t94.5 -4.5
h89h40.5t60.5 1t71 2.5t71 5.5q6 23 6 48q0 62 -27.5 144t-70.5 180l153 48q39 -101 57 -175.5t18 -134.5q0 -80 -26 -137t-63 -119q-64 -11 -145 -14.5t-140 -3.5h-101zM1170 972l115 114l92 -93l95 93l114 -114l-114 -116l-95 93l-92 -93z" />
    <glyph glyph-name="uniFE98_uniFEE6.liga" unicode="&#xfe98;&#xfee6;" horiz-adv-x="1833" 
d="M397 703l116 114l114 -114l-114 -115zM1380 851l116 114l91 -94l96 94l114 -114l-114 -116l-96 93l-91 -93zM1183 0q-41 0 -79.5 26t-54.5 79q-11 -139 -62.5 -237.5t-128 -161t-173 -92.5t-198.5 -30q-117 0 -208.5 34.5t-153 93t-93.5 137t-32 166.5q0 78 21.5 154.5
t62.5 154.5l119 -66q-30 -68 -41 -115.5t-11 -105.5q0 -73 27 -129.5t74 -97t109.5 -61t135.5 -20.5q126 0 205.5 35t124 86t60.5 109.5t16 107.5q0 45 -12 88t-29.5 84t-39 77.5t-40.5 66.5l162 69q34 -88 61 -145t54 -90.5t55 -47.5t63 -14h112q61 0 103 3.5t67.5 12
t37.5 22.5t13 35l18 249l164 45l-32 -216q-2 -9 -3 -20.5t-1 -20.5q0 -64 39.5 -87t108.5 -23h65q21 0 28.5 -9t7.5 -21v-91q0 -34 -36 -34h-72q-107 0 -170.5 33t-82.5 127q-25 -50 -48 -82t-48 -48.5t-54.5 -23t-71.5 -6.5h-139z" />
    <glyph glyph-name="uniFE97_uniFEF0.liga" unicode="&#xfe97;&#xfef0;" horiz-adv-x="1927" 
d="M1303 0q-47 -244 -231.5 -353.5t-481.5 -109.5q-160 0 -272 34.5t-181.5 94.5t-102.5 139t-33 167q0 103 29.5 201.5t75.5 177.5l114 -68q-27 -57 -48.5 -131.5t-21.5 -146.5q0 -145 108 -230t338 -85q105 0 203.5 14t176 38.5t124 58t46.5 74.5q0 54 -83.5 87.5
t-242.5 42.5l54 150h515h41t60.5 1t71 2.5t71.5 5.5q5 23 5 48q0 62 -27.5 144t-69.5 180l153 48q39 -101 56.5 -175.5t17.5 -134.5q0 -80 -26 -137t-63 -119q-64 -11 -145 -14.5t-139 -3.5h-92zM1391 972l116 114l92 -93l95 93l114 -114l-114 -116l-95 93l-92 -93z" />
    <glyph glyph-name="uniFE97_uniFEF2.liga" unicode="&#xfe97;&#xfef2;" horiz-adv-x="1927" 
d="M426 -726l116 114l91 -93l96 93l114 -114l-114 -116l-96 94l-91 -94zM1303 0q-47 -244 -231.5 -353.5t-481.5 -109.5q-160 0 -272 34.5t-181.5 94.5t-102.5 139t-33 167q0 103 29.5 201.5t75.5 177.5l114 -68q-27 -57 -48.5 -131.5t-21.5 -146.5q0 -145 108 -230t338 -85
q105 0 203.5 14t176 38.5t124 58t46.5 74.5q0 54 -83.5 87.5t-242.5 42.5l54 150h515h41t60.5 1t71 2.5t71.5 5.5q5 23 5 48q0 62 -27.5 144t-69.5 180l153 48q39 -101 56.5 -175.5t17.5 -134.5q0 -80 -26 -137t-63 -119q-64 -11 -145 -14.5t-139 -3.5h-92zM1391 972
l116 114l92 -93l95 93l114 -114l-114 -116l-95 93l-92 -93z" />
    <glyph glyph-name="uniFE9C_uniFEAE.liga" unicode="&#xfe9c;&#xfeae;" horiz-adv-x="1451" 
d="M795 0q-46 0 -96.5 27t-84.5 89h-9q-9 -62 -47.5 -145t-102 -174.5t-152 -182t-196.5 -168.5l-107 129q146 91 244 186t158.5 183t87 161.5t26.5 118.5q0 13 -5 36t-20 57t-44 77.5t-77 102.5l144 91q31 -60 59 -123.5t55 -128.5q36 -95 78.5 -138t101.5 -43h99
q61 0 103 3.5t67.5 12t37.5 22.5t14 35l17 249l164 45l-32 -216q-2 -9 -2.5 -20.5t-0.5 -20.5q0 -64 39 -87t108 -23h66q21 0 28 -9t7 -21v-91q0 -34 -35 -34h-73q-107 0 -170 33t-83 127q-25 -50 -48 -82t-48 -48.5t-54.5 -23t-71.5 -6.5h-145zM998 851l116 114l91 -94
l96 94l114 -114l-114 -116l-96 93l-91 -93zM1093 1049l116 113l114 -113l-114 -116z" />
    <glyph glyph-name="uniFE9B_uniFEE4.liga" unicode="&#xfe9b;&#xfee4;" horiz-adv-x="1696" 
d="M771 248q0 35 -14.5 78.5t-39.5 80.5t-58.5 62.5t-70.5 25.5q-23 0 -51 -12.5t-59 -40t-63 -72t-61 -107.5q101 -71 189.5 -103.5t135.5 -32.5q28 0 45.5 11t27.5 29t14.5 39.5t4.5 41.5zM1072 0q-52 0 -107 37.5t-77 104.5q-32 -67 -79 -112t-95 -45q-102 0 -205 42
t-203 117l-12 -2q-27 -53 -50 -80.5t-44 -42t-42.5 -17t-45.5 -2.5h-138q-21 0 -28.5 9t-7.5 21v91q0 34 36 34h126q46 0 78 25t68 92q64 125 120 198t103.5 109.5t86.5 46.5t69 10q69 0 123 -35t90.5 -90t55 -121t18.5 -125q0 -34 3.5 -55t19.5 -33.5t49.5 -17t94.5 -4.5
h89h40.5t60.5 1t71 2.5t71 5.5q6 23 6 48q0 62 -27.5 144t-70.5 180l153 48q39 -101 57 -175.5t18 -134.5q0 -80 -26 -137t-63 -119q-64 -11 -145 -14.5t-140 -3.5h-101zM1170 972l115 114l92 -93l95 93l114 -114l-114 -116l-95 93l-92 -93zM1265 1170l116 114l114 -114
l-114 -116z" />
    <glyph glyph-name="uniFE9C_uniFEE6.liga" unicode="&#xfe9c;&#xfee6;" horiz-adv-x="1833" 
d="M397 703l116 114l114 -114l-114 -115zM1380 851l116 114l91 -94l96 94l114 -114l-114 -116l-96 93l-91 -93zM1475 1049l116 113l114 -113l-114 -116zM1183 0q-41 0 -79.5 26t-54.5 79q-11 -139 -62.5 -237.5t-128 -161t-173 -92.5t-198.5 -30q-117 0 -208.5 34.5t-153 93
t-93.5 137t-32 166.5q0 78 21.5 154.5t62.5 154.5l119 -66q-30 -68 -41 -115.5t-11 -105.5q0 -73 27 -129.5t74 -97t109.5 -61t135.5 -20.5q126 0 205.5 35t124 86t60.5 109.5t16 107.5q0 45 -12 88t-29.5 84t-39 77.5t-40.5 66.5l162 69q34 -88 61 -145t54 -90.5t55 -47.5
t63 -14h112q61 0 103 3.5t67.5 12t37.5 22.5t13 35l18 249l164 45l-32 -216q-2 -9 -3 -20.5t-1 -20.5q0 -64 39.5 -87t108.5 -23h65q21 0 28.5 -9t7.5 -21v-91q0 -34 -36 -34h-72q-107 0 -170.5 33t-82.5 127q-25 -50 -48 -82t-48 -48.5t-54.5 -23t-71.5 -6.5h-139z" />
    <glyph glyph-name="uniFE9B_uniFEF0.liga" unicode="&#xfe9b;&#xfef0;" horiz-adv-x="1927" 
d="M1303 0q-47 -244 -231.5 -353.5t-481.5 -109.5q-160 0 -272 34.5t-181.5 94.5t-102.5 139t-33 167q0 103 29.5 201.5t75.5 177.5l114 -68q-27 -57 -48.5 -131.5t-21.5 -146.5q0 -145 108 -230t338 -85q105 0 203.5 14t176 38.5t124 58t46.5 74.5q0 54 -83.5 87.5
t-242.5 42.5l54 150h515h41t60.5 1t71 2.5t71.5 5.5q5 23 5 48q0 62 -27.5 144t-69.5 180l153 48q39 -101 56.5 -175.5t17.5 -134.5q0 -80 -26 -137t-63 -119q-64 -11 -145 -14.5t-139 -3.5h-92zM1391 972l116 114l92 -93l95 93l114 -114l-114 -116l-95 93l-92 -93z
M1487 1170l116 114l113 -114l-113 -116z" />
    <glyph glyph-name="uniFE9B_uniFEF2.liga" unicode="&#xfe9b;&#xfef2;" horiz-adv-x="1927" 
d="M426 -726l116 114l91 -93l96 93l114 -114l-114 -116l-96 94l-91 -94zM1303 0q-47 -244 -231.5 -353.5t-481.5 -109.5q-160 0 -272 34.5t-181.5 94.5t-102.5 139t-33 167q0 103 29.5 201.5t75.5 177.5l114 -68q-27 -57 -48.5 -131.5t-21.5 -146.5q0 -145 108 -230t338 -85
q105 0 203.5 14t176 38.5t124 58t46.5 74.5q0 54 -83.5 87.5t-242.5 42.5l54 150h515h41t60.5 1t71 2.5t71.5 5.5q5 23 5 48q0 62 -27.5 144t-69.5 180l153 48q39 -101 56.5 -175.5t17.5 -134.5q0 -80 -26 -137t-63 -119q-64 -11 -145 -14.5t-139 -3.5h-92zM1391 972
l116 114l92 -93l95 93l114 -114l-114 -116l-95 93l-92 -93zM1487 1170l116 114l113 -114l-113 -116z" />
    <glyph glyph-name="uniFEDB_uniFEF0.liga" unicode="&#xfedb;&#xfef0;" horiz-adv-x="2207" 
d="M1303 0q-47 -244 -231.5 -353.5t-481.5 -109.5q-160 0 -272 34.5t-181.5 94.5t-102.5 139t-33 167q0 103 29.5 201.5t75.5 177.5l114 -68q-27 -57 -48.5 -131.5t-21.5 -146.5q0 -145 108 -230t338 -85q105 0 203.5 14t176 38.5t124 58t46.5 74.5q0 54 -83.5 87.5
t-242.5 42.5l54 150h1028q6 13 6 30q0 41 -31.5 93t-100 119.5t-175.5 152t-256 189.5q5 44 23 88t32 56l684 300v-140l-549 -242q127 -105 218.5 -186t150 -148.5t86.5 -125.5t28 -115q0 -55 -21.5 -107.5t-60.5 -118.5h-633z" />
    <glyph glyph-name="uniFEDC_uniFEF0.liga" unicode="&#xfedc;&#xfef0;" horiz-adv-x="2200" 
d="M1303 0q-47 -244 -231.5 -353.5t-481.5 -109.5q-160 0 -272 34.5t-181.5 94.5t-102.5 139t-33 167q0 103 29.5 201.5t75.5 177.5l114 -68q-27 -57 -48.5 -131.5t-21.5 -146.5q0 -145 108 -230t338 -85q105 0 203.5 14t176 38.5t124 58t46.5 74.5q0 54 -83.5 87.5
t-242.5 42.5l54 150h996q18 0 26.5 13t8.5 32q0 72 -136 204t-428 335q2 23 8.5 47t15 44.5t17.5 34.5t17 18l681 300v-140l-548 -242q91 -75 162 -136.5t124 -114t93.5 -99.5t69.5 -91q58 -91 107.5 -148t80.5 -57h71q21 0 26.5 -9t5.5 -21v-91q0 -34 -35 -34h-66
q-59 0 -110.5 31t-98.5 109q-46 -78 -104 -109t-120 -31h-435z" />
    <glyph glyph-name="uniFEDB_uniFEF2.liga" unicode="&#xfedb;&#xfef2;" horiz-adv-x="2207" 
d="M426 -726l116 114l91 -93l96 93l114 -114l-114 -116l-96 94l-91 -94zM1303 0q-47 -244 -231.5 -353.5t-481.5 -109.5q-160 0 -272 34.5t-181.5 94.5t-102.5 139t-33 167q0 103 29.5 201.5t75.5 177.5l114 -68q-27 -57 -48.5 -131.5t-21.5 -146.5q0 -145 108 -230t338 -85
q105 0 203.5 14t176 38.5t124 58t46.5 74.5q0 54 -83.5 87.5t-242.5 42.5l54 150h1028q6 13 6 30q0 41 -31.5 93t-100 119.5t-175.5 152t-256 189.5q5 44 23 88t32 56l684 300v-140l-549 -242q127 -105 218.5 -186t150 -148.5t86.5 -125.5t28 -115q0 -55 -21.5 -107.5
t-60.5 -118.5h-633z" />
    <glyph glyph-name="uniFEDC_uniFEF2.liga" unicode="&#xfedc;&#xfef2;" horiz-adv-x="2200" 
d="M426 -726l116 114l91 -93l96 93l114 -114l-114 -116l-96 94l-91 -94zM1303 0q-47 -244 -231.5 -353.5t-481.5 -109.5q-160 0 -272 34.5t-181.5 94.5t-102.5 139t-33 167q0 103 29.5 201.5t75.5 177.5l114 -68q-27 -57 -48.5 -131.5t-21.5 -146.5q0 -145 108 -230t338 -85
q105 0 203.5 14t176 38.5t124 58t46.5 74.5q0 54 -83.5 87.5t-242.5 42.5l54 150h996q18 0 26.5 13t8.5 32q0 72 -136 204t-428 335q2 23 8.5 47t15 44.5t17.5 34.5t17 18l681 300v-140l-548 -242q91 -75 162 -136.5t124 -114t93.5 -99.5t69.5 -91q58 -91 107.5 -148
t80.5 -57h71q21 0 26.5 -9t5.5 -21v-91q0 -34 -35 -34h-66q-59 0 -110.5 31t-98.5 109q-46 -78 -104 -109t-120 -31h-435z" />
    <glyph glyph-name="uniFEDF_uniFB51.rlig" unicode="&#xfedf;&#xfb51;" horiz-adv-x="1076" 
d="M440 1080q0 13 -15 29t-39 16t-45.5 -13t-50.5 -51q10 -3 32.5 -7t37.5 -4q48 0 64 7.5t16 22.5zM486 1082q0 -32 -28.5 -60.5t-86.5 -28.5q-31 0 -53.5 6.5t-41.5 15.5q-37 21 -56 21q-15 0 -26 -8.5t-32 -29.5l-45 43q45 52 86 52q26 0 45 -13q42 58 75 81t67 23
q23 0 40 -11.5t29.5 -27.5t19.5 -34t7 -29zM133 155q317 0 485 112l-338 593l144 58l286 -565q94 119 94 315v566h150v-543q0 -163 -53.5 -291.5t-149 -217.5t-229 -135.5t-294.5 -46.5h-95l-43 155h43z" />
    <glyph glyph-name="uniFEE0_uniFB51.rlig" unicode="&#xfee0;&#xfb51;" horiz-adv-x="1152" 
d="M472 1080q0 13 -15 29t-39 16q-25 0 -46 -13t-50 -51q9 -3 32 -7t38 -4q48 0 64 7.5t16 22.5zM518 1082q0 -32 -28.5 -60.5t-86.5 -28.5q-32 0 -54.5 6.5t-40.5 15.5q-38 21 -57 21q-14 0 -25.5 -8.5t-31.5 -29.5l-45 43q45 52 86 52q26 0 45 -13q42 58 75 81t67 23
q22 0 39.5 -11.5t30 -27.5t19.5 -34t7 -29zM133 155q317 0 485 112l-338 593l144 58l286 -565q94 119 94 315v566h150v-859q0 -58 7.5 -99t28 -68t54.5 -40t91 -13h54q21 0 28 -9t7 -21v-91q0 -34 -35 -34h-86q-54 0 -104.5 14t-91.5 48.5t-68 95.5t-35 155
q-55 -101 -132.5 -162.5t-158.5 -94.5t-157 -44.5t-128 -11.5h-95l-43 155h43z" />
    <glyph glyph-name="uniFEDF_uniFEE2.liga" unicode="&#xfedf;&#xfee2;" horiz-adv-x="2032" 
d="M1159 250q0 35 -14 78.5t-39.5 79.5t-58 61.5t-69.5 25.5q-45 0 -110 -53.5t-126 -178.5q102 -71 190 -103.5t133 -32.5q28 0 46 11t29.5 30t15 40.5t3.5 41.5zM1461 0q-53 0 -108 37.5t-77 104.5q-30 -71 -76.5 -114t-95.5 -43q-102 0 -203.5 42t-204.5 117l-9 -2
q-60 -90 -133 -149t-158.5 -94.5t-182.5 -51.5t-206 -23l-7 161q151 10 255.5 29.5t177.5 54t120 83.5t83 120q64 125 121.5 198t106 109.5t86.5 46.5t63 10q69 0 123.5 -35t90.5 -90t54.5 -121t18.5 -125q0 -32 3 -53.5t18.5 -33.5t49.5 -17.5t96 -5.5h141q36 0 82 2t71 5
v1072h149v-1216q-98 -18 -348 -18h-101z" />
    <glyph glyph-name="uniFEE4_uniFE8E.liga" unicode="&#xfee4;&#xfe8e;" horiz-adv-x="1493" 
d="M1171 248q0 35 -14 78.5t-39.5 80.5t-58.5 62.5t-71 25.5q-22 0 -50 -12.5t-59 -40t-63.5 -72t-60.5 -107.5q100 -71 189 -103.5t136 -32.5q28 0 45.5 11t27.5 29t14 39.5t4 41.5zM332 0q-91 0 -145 65t-54 202v968h149v-899q0 -54 4 -89t16 -55.5t33.5 -28.5t55.5 -8
h110q45 0 77.5 25t68.5 92q64 125 119.5 198t103 109.5t87 46.5t69.5 10q68 0 122.5 -35t90.5 -90t55 -121t19 -125q0 -34 3.5 -55t19.5 -33.5t49.5 -17t93.5 -4.5h51q20 0 27.5 -9t7.5 -21v-91q0 -34 -35 -34h-57q-52 0 -107 37.5t-78 104.5q-31 -67 -78 -112t-95 -45
q-103 0 -205.5 42t-203.5 117l-11 -2q-28 -53 -50.5 -80.5t-44 -42t-42.5 -17t-46 -2.5h-180z" />
    <glyph glyph-name="uniFEE4_uniFE82.liga" unicode="&#xfee4;&#xfe82;" horiz-adv-x="1593" 
d="M1271 248q0 35 -13.5 78.5t-39 80.5t-59 62.5t-70.5 25.5q-23 0 -51 -12.5t-59 -40t-63.5 -72t-60.5 -107.5q101 -71 189.5 -103.5t135.5 -32.5q28 0 46 11t28 29t13.5 39.5t3.5 41.5zM0 1437q43 43 81 56t76 13q35 0 84.5 -17t92.5 -38q45 -20 86 -34t73 -14q48 0 72 26
t34 54l60 -26q-27 -72 -62.5 -109.5t-103.5 -37.5q-51 0 -96.5 16t-88.5 36q-43 21 -86 35.5t-80 14.5q-32 0 -53.5 -7t-49.5 -28zM450 0q-90 0 -144.5 65t-54.5 202v968h150v-899q0 -54 3.5 -89t16 -55.5t34 -28.5t54.5 -8h92q45 0 78 25t68 92q64 125 119.5 198
t103.5 109.5t87 46.5t69 10q68 0 122.5 -35t91 -90t55 -121t18.5 -125q0 -34 3.5 -55t19.5 -33.5t50 -17t93 -4.5h51q20 0 27.5 -9t7.5 -21v-91q0 -34 -35 -34h-57q-52 0 -107 37.5t-78 104.5q-31 -67 -77.5 -112t-95.5 -45q-103 0 -205.5 42t-203.5 117l-11 -2
q-28 -53 -50.5 -80.5t-43.5 -42t-42.5 -17t-46.5 -2.5h-162z" />
    <glyph glyph-name="uniFEE4_uniFE84.liga" unicode="&#xfee4;&#xfe84;" horiz-adv-x="1499" 
d="M1176 248q0 35 -13.5 78.5t-39 80.5t-58.5 62.5t-71 25.5q-23 0 -50.5 -12.5t-58.5 -40t-64 -72t-60 -107.5q100 -71 189 -103.5t135 -32.5q29 0 46.5 11t27.5 29t13.5 39.5t3.5 41.5zM55 1364q15 9 46 27.5t53 22.5q-67 35 -67 99q0 30 15 60.5t38 55.5t53.5 39.5
t59.5 14.5q32 0 56 -9v-81q-15 6 -29.5 10.5t-34.5 4.5q-39 0 -69.5 -21.5t-30.5 -43.5q0 -37 29 -66t64 -29q21 0 62 10.5t75 19.5l-14 -80q-82 -15 -145.5 -35.5t-130.5 -69.5zM343 0q-90 0 -144 65t-54 202v968h149v-899q0 -54 4 -89t16 -55.5t33 -28.5t55 -8h105
q45 0 77.5 25t68.5 92q63 125 119 198t103.5 109.5t87 46.5t69.5 10q68 0 122 -35t90.5 -90t55.5 -121t19 -125q0 -34 3.5 -55t19.5 -33.5t49.5 -17t92.5 -4.5h51q20 0 28 -9t8 -21v-91q0 -34 -36 -34h-56q-52 0 -107 37.5t-78 104.5q-31 -67 -78 -112t-95 -45
q-103 0 -205.5 42t-203.5 117l-11 -2q-28 -53 -50.5 -80.5t-44 -42t-43 -17t-45.5 -2.5h-175z" />
    <glyph glyph-name="uniFEE4_uniFE88.liga" unicode="&#xfee4;&#xfe88;" horiz-adv-x="1503" 
d="M55 -445q15 9 46 27.5t53 22.5q-67 35 -67 98q0 30 15 61t38 55t53 39t60 15q32 0 56 -10v-80q-15 7 -30 11.5t-34 4.5q-39 0 -70 -21.5t-31 -44.5q0 -37 29.5 -66t64.5 -29q20 0 61 10t75 19l-13 -80q-82 -14 -145.5 -34.5t-130.5 -69.5zM1180 248q0 35 -13.5 78.5
t-39 80.5t-59 62.5t-70.5 25.5q-23 0 -50.5 -12.5t-58.5 -40t-64 -72t-60 -107.5q100 -71 189 -103.5t135 -32.5q28 0 46 11t28 29t13.5 39.5t3.5 41.5zM332 0q-90 0 -144.5 65t-54.5 202v968h150v-899q0 -54 3.5 -89t16 -55.5t33.5 -28.5t55 -8h120q44 0 77 25t68 92
q64 125 119.5 198t103.5 109.5t87 46.5t69 10q69 0 123 -35t90.5 -90t55 -121t18.5 -125q0 -34 4 -55t19.5 -33.5t49.5 -17t93 -4.5h51q20 0 28 -9t8 -21v-91q0 -34 -36 -34h-56q-52 0 -107.5 37.5t-77.5 104.5q-31 -67 -78 -112t-95 -45q-103 0 -205.5 42t-204.5 117
l-10 -2q-29 -53 -51 -80.5t-43.5 -42t-43 -17t-46.5 -2.5h-189z" />
    <glyph glyph-name="uniFEE8_uniFEAE.liga" unicode="&#xfee8;&#xfeae;" horiz-adv-x="1438" 
d="M795 0q-46 0 -96.5 27t-84.5 89h-9q-9 -62 -47.5 -145t-102 -174.5t-152 -182t-196.5 -168.5l-107 129q146 91 244 186t158.5 183t87 161.5t26.5 118.5q0 13 -5 36t-20 57t-44 77.5t-77 102.5l144 91q31 -60 59 -123.5t55 -128.5q36 -95 78.5 -138t101.5 -43h96
q61 0 103 3.5t67.5 12t37 22.5t13.5 35l17 249l164 45l-31 -216q-2 -9 -3 -20.5t-1 -20.5q0 -64 39 -87t108 -23h56q21 0 28.5 -9t7.5 -21v-91q0 -34 -36 -34h-63q-106 0 -169.5 33t-82.5 127q-26 -50 -48.5 -82t-47.5 -48.5t-55 -23t-71 -6.5h-142zM1100 965l115 114
l114 -114l-114 -116z" />
    <glyph glyph-name="uniFEE7_uniFEE4.liga" unicode="&#xfee7;&#xfee4;" horiz-adv-x="1662" 
d="M770 248q0 35 -14 78.5t-39.5 80.5t-58.5 62.5t-70 25.5q-23 0 -51 -12.5t-59 -40t-63.5 -72t-60.5 -107.5q101 -71 189.5 -103.5t135.5 -32.5q28 0 45.5 11t27.5 29t14 39.5t4 41.5zM1261 1070l116 113l112 -113l-112 -116zM1072 0q-52 0 -107 37.5t-78 104.5
q-31 -67 -78 -112t-95 -45q-103 0 -205.5 42t-203.5 117l-11 -2q-28 -53 -50.5 -80.5t-43.5 -42t-42.5 -17t-46.5 -2.5h-137q-21 0 -28.5 9t-7.5 21v91q0 34 36 34h126q45 0 77.5 25t68.5 92q64 125 119.5 198t103.5 109.5t87 46.5t69 10q68 0 122.5 -35t91 -90t55 -121
t18.5 -125q0 -34 3.5 -55t19.5 -33.5t49.5 -17t93.5 -4.5h94h41t60.5 1t71 2.5t71.5 5.5q5 23 5 48q0 62 -27.5 144t-69.5 180l153 48q39 -101 56.5 -175.5t17.5 -134.5q0 -80 -25.5 -137t-63.5 -119q-64 -11 -145 -14.5t-139 -3.5h-106z" />
    <glyph glyph-name="uniFEE7_uniFEF0.liga" unicode="&#xfee7;&#xfef0;" horiz-adv-x="1886" 
d="M1483 1070l116 113l113 -113l-113 -116zM1303 0q-47 -244 -231.5 -353.5t-481.5 -109.5q-160 0 -272 34.5t-181.5 94.5t-102.5 139t-33 167q0 103 29.5 201.5t75.5 177.5l114 -68q-27 -57 -48.5 -131.5t-21.5 -146.5q0 -145 108 -230t338 -85q105 0 203.5 14t176 38.5
t124 58t46.5 74.5q0 54 -83.5 87.5t-242.5 42.5l54 150h521h40.5t60.5 1t71 2.5t71 5.5q6 23 6 48q0 62 -27.5 144t-70.5 180l153 48q39 -101 57 -175.5t18 -134.5q0 -80 -26 -137t-63 -119q-64 -11 -145 -14.5t-140 -3.5h-97z" />
    <glyph glyph-name="uniFEE7_uniFEF2.liga" unicode="&#xfee7;&#xfef2;" horiz-adv-x="1886" 
d="M426 -726l116 114l91 -93l96 93l114 -114l-114 -116l-96 94l-91 -94zM1483 1070l116 113l113 -113l-113 -116zM1303 0q-47 -244 -231.5 -353.5t-481.5 -109.5q-160 0 -272 34.5t-181.5 94.5t-102.5 139t-33 167q0 103 29.5 201.5t75.5 177.5l114 -68
q-27 -57 -48.5 -131.5t-21.5 -146.5q0 -145 108 -230t338 -85q105 0 203.5 14t176 38.5t124 58t46.5 74.5q0 54 -83.5 87.5t-242.5 42.5l54 150h521h40.5t60.5 1t71 2.5t71 5.5q6 23 6 48q0 62 -27.5 144t-70.5 180l153 48q39 -101 57 -175.5t18 -134.5q0 -80 -26 -137
t-63 -119q-64 -11 -145 -14.5t-140 -3.5h-97z" />
    <glyph glyph-name="uniFEF4_uniFEAE.liga" unicode="&#xfef4;&#xfeae;" horiz-adv-x="1438" 
d="M795 0q-46 0 -96.5 27t-84.5 89h-9q-9 -62 -47.5 -145t-102 -174.5t-152 -182t-196.5 -168.5l-107 129q146 91 244 186t158.5 183t87 161.5t26.5 118.5q0 13 -5 36t-20 57t-44 77.5t-77 102.5l144 91q31 -60 59 -123.5t55 -128.5q36 -95 78.5 -138t101.5 -43h96
q61 0 103 3.5t67.5 12t37 22.5t13.5 35l17 249l164 45l-31 -216q-2 -9 -3 -20.5t-1 -20.5q0 -64 39 -87t108 -23h56q21 0 28.5 -9t7.5 -21v-91q0 -34 -36 -34h-63q-106 0 -169.5 33t-82.5 127q-26 -50 -48.5 -82t-47.5 -48.5t-55 -23t-71 -6.5h-142zM935 -282l115 114
l92 -93l95 93l114 -114l-114 -115l-95 93l-92 -93z" />
    <glyph glyph-name="uniFEF3_uniFEE4.liga" unicode="&#xfef3;&#xfee4;" horiz-adv-x="1658" 
d="M771 248q0 35 -14.5 78.5t-39.5 80.5t-58.5 62.5t-70.5 25.5q-23 0 -51 -12.5t-59 -40t-63 -72t-61 -107.5q101 -71 189.5 -103.5t135.5 -32.5q28 0 45.5 11t27.5 29t14.5 39.5t4.5 41.5zM1072 0q-52 0 -107 37.5t-77 104.5q-32 -67 -79 -112t-95 -45q-102 0 -205 42
t-203 117l-12 -2q-27 -53 -50 -80.5t-44 -42t-42.5 -17t-45.5 -2.5h-138q-21 0 -28.5 9t-7.5 21v91q0 34 36 34h126q46 0 78 25t68 92q64 125 120 198t103.5 109.5t86.5 46.5t69 10q69 0 123 -35t90.5 -90t55 -121t18.5 -125q0 -34 3.5 -55t19.5 -33.5t49.5 -17t94.5 -4.5
h89h40.5t60.5 1t71 2.5t71 5.5q6 23 6 48q0 62 -27.5 144t-70.5 180l153 48q39 -101 57 -175.5t18 -134.5q0 -80 -26 -137t-63 -119q-64 -11 -145 -14.5t-140 -3.5h-101zM1129 -282l115 114l92 -93l95 93l114 -114l-114 -115l-95 93l-92 -93z" />
    <glyph glyph-name="uniFEF4_uniFEE6.liga" unicode="&#xfef4;&#xfee6;" horiz-adv-x="1828" 
d="M397 703l116 114l114 -114l-114 -115zM1326 -282l115 114l92 -93l95 93l114 -114l-114 -115l-95 93l-92 -93zM1183 0q-41 0 -79.5 26t-54.5 79q-11 -139 -62.5 -237.5t-128 -161t-173 -92.5t-198.5 -30q-117 0 -208.5 34.5t-153 93t-93.5 137t-32 166.5q0 78 21.5 154.5
t62.5 154.5l119 -66q-30 -68 -41 -115.5t-11 -105.5q0 -73 27 -129.5t74 -97t109.5 -61t135.5 -20.5q126 0 205.5 35t124 86t60.5 109.5t16 107.5q0 45 -12 88t-29.5 84t-39 77.5t-40.5 66.5l162 69q34 -88 61 -145t54 -90.5t55 -47.5t63 -14h118q61 0 102.5 3.5t67 12
t37.5 22.5t14 35l17 249l164 45l-32 -216q-1 -9 -2 -20.5t-1 -20.5q0 -64 39 -87t108 -23h56q21 0 28 -9t7 -21v-91q0 -34 -35 -34h-63q-107 0 -170 33t-82 127q-26 -50 -48.5 -82t-48 -48.5t-55 -23t-71.5 -6.5h-144z" />
    <glyph glyph-name="T_h.liga" unicode="Th" horiz-adv-x="1863" 
d="M1140 1291l-6 -508h4q56 84 141.5 128.5t169.5 44.5q80 0 134.5 -20t88 -57t47.5 -89.5t14 -116.5q0 -53 -1 -105.5t-1 -106.5l-4 -461h-149l4 418q0 61 1 124t1 131q0 79 -46 113.5t-124 34.5q-73 0 -140 -41t-138 -130l-7 -650h-150l7 1157h-388l-11 -1157h-161
l12 1157h-409v134h1111z" />
    <glyph glyph-name="f_b.liga" unicode="fb" horiz-adv-x="1662" 
d="M40 929h181q0 41 2 86.5t6 93.5q7 85 39 143t83 94.5t119 52t149 15.5v-123h-66q-47 0 -80.5 -18t-56 -46.5t-33 -67.5t-13.5 -80l-6 -150h255v-112h-249l-7 -817h-150l8 817h-181v112zM760 1399h149l-4 -595h4q37 60 114 106t176 46q57 0 123 -25t121.5 -81.5
t91.5 -149.5t36 -230q0 -93 -29.5 -182.5t-83.5 -160t-129 -112t-164 -41.5q-96 0 -162 36t-103 85h-4l-5 -95h-142zM900 246q98 -149 233 -149q61 0 112.5 31.5t88 83t57 117.5t20.5 136q0 94 -20.5 163.5t-54 114t-78.5 67t-93 22.5q-45 0 -85.5 -15.5t-73.5 -41
t-59.5 -55t-42.5 -60.5z" />
    <glyph glyph-name="f_f_b.liga" unicode="ffb" horiz-adv-x="2222" 
d="M370 817l-7 -817h-150l8 817h-181v112h181q0 41 2 86.5t6 93.5q7 85 39 143t83 94.5t119 52t149 15.5v-123h-66q-47 0 -80.5 -18t-56 -46.5t-33 -67.5t-13.5 -80l-6 -150h413q0 41 2 86.5t5 93.5q8 85 39.5 143t82.5 94.5t119.5 52t148.5 15.5v-123h-65q-47 0 -80.5 -18
t-56 -46.5t-33.5 -67.5t-13 -80l-6 -150h254v-112h-248l-8 -817h-149l8 817h-407zM1315 1399h150l-4 -595h4q37 60 113.5 106t176.5 46q57 0 123 -25t121 -81.5t91.5 -149.5t36.5 -230q0 -93 -29.5 -182.5t-83.5 -160t-129 -112t-164 -41.5q-96 0 -162 36t-103 85h-4l-5 -95
h-142zM1456 246q98 -149 233 -149q61 0 112.5 31.5t88 83t57 117.5t20.5 136q0 94 -20.5 163.5t-54.5 114t-78.5 67t-92.5 22.5q-45 0 -85.5 -15.5t-73.5 -41t-59.5 -55t-43.5 -60.5z" />
    <glyph glyph-name="f_f.liga" unicode="ff" horiz-adv-x="1177" 
d="M370 817l-7 -817h-150l8 817h-181v112h181q0 41 2 86.5t6 93.5q7 85 39 143t83 94.5t119 52t149 15.5v-123h-66q-47 0 -80.5 -18t-56 -46.5t-33 -67.5t-13.5 -80l-6 -150h413q0 41 2 86.5t5 93.5q8 85 39.5 143t82.5 94.5t119.5 52t148.5 15.5v-123h-65q-47 0 -80.5 -18
t-56 -46.5t-33.5 -67.5t-13 -80l-6 -150h254v-112h-248l-8 -817h-149l8 817h-407z" />
    <glyph glyph-name="f_h.liga" unicode="fh" horiz-adv-x="1638" 
d="M40 929h181q0 41 2 86.5t6 93.5q7 85 39 143t83 94.5t119 52t149 15.5v-123h-66q-47 0 -80.5 -18t-56 -46.5t-33 -67.5t-13.5 -80l-6 -150h255v-112h-249l-7 -817h-150l8 817h-181v112zM758 1399h155l-8 -616h4q57 84 142.5 128.5t169.5 44.5q80 0 134 -20t88 -57
t47.5 -89.5t13.5 -116.5q0 -53 -1 -105.5t-1 -106.5l-3 -461h-150l5 418q0 61 1 124t1 131q0 79 -46 113.5t-125 34.5q-73 0 -140 -41t-138 -130l-7 -650h-149z" />
    <glyph glyph-name="f_f_h.liga" unicode="ffh" horiz-adv-x="2185" 
d="M370 817l-7 -817h-150l8 817h-181v112h181q0 41 2 86.5t6 93.5q7 85 39 143t83 94.5t119 52t149 15.5v-123h-66q-47 0 -80.5 -18t-56 -46.5t-33 -67.5t-13.5 -80l-6 -150h413q0 41 2 86.5t5 93.5q8 85 39.5 143t82.5 94.5t119.5 52t148.5 15.5v-123h-65q-47 0 -80.5 -18
t-56 -46.5t-33.5 -67.5t-13 -80l-6 -150h254v-112h-248l-8 -817h-149l8 817h-407zM1314 1399h154l-7 -616h4q56 84 142 128.5t169 44.5q81 0 135 -20t87.5 -57t47.5 -89.5t14 -116.5q0 -53 -1 -105.5t-1 -106.5l-4 -461h-149l4 418q0 61 1 124t1 131q0 79 -46 113.5
t-124 34.5q-73 0 -140 -41t-138 -130l-7 -650h-150z" />
    <glyph glyph-name="f_f_i.liga" unicode="ffi" horiz-adv-x="1592" 
d="M1305 1291h160v-168h-160v168zM370 817l-7 -817h-150l8 817h-181v112h181q0 41 2 86.5t6 93.5q7 85 39 143t83 94.5t119 52t149 15.5v-123h-66q-47 0 -80.5 -18t-56 -46.5t-33 -67.5t-13.5 -80l-6 -150h413q0 41 2 86.5t5 93.5q8 85 39.5 143t82.5 94.5t119.5 52
t148.5 15.5v-123h-65q-47 0 -80.5 -18t-56 -46.5t-33.5 -67.5t-13 -80l-6 -150h541l-7 -929h-149l7 817h-386l-8 -817h-149l8 817h-407z" />
    <glyph glyph-name="f_j.liga" unicode="fj" horiz-adv-x="1036" 
d="M749 1291h160v-168h-160v168zM905 929l-1 -114l-9 -888q0 -86 -15.5 -154t-51 -115.5t-97.5 -72.5t-153 -25v112q96 0 131.5 54.5t35.5 187.5l11 903h-386l-7 -817h-150l8 817h-181v112h181q0 41 2 86.5t6 93.5q7 85 39 143t83 94.5t119 52t149 15.5v-123h-66
q-47 0 -80.5 -18t-56 -46.5t-33 -67.5t-13.5 -80l-6 -150h541z" />
    <glyph glyph-name="f_f_j.liga" unicode="ffj" horiz-adv-x="1592" 
d="M1305 1291h160v-168h-160v168zM1311 817h-385l-8 -817h-149l8 817h-407l-7 -817h-150l8 817h-181v112h181q0 41 2 86.5t6 93.5q7 85 39 143t83 94.5t119 52t149 15.5v-123h-66q-47 0 -80.5 -18t-56 -46.5t-33 -67.5t-13.5 -80l-6 -150h413q0 41 2 86.5t5 93.5
q8 85 39.5 143t82.5 94.5t119.5 52t148.5 15.5v-123h-65q-47 0 -80.5 -18t-56 -46.5t-33.5 -67.5t-13 -80l-6 -150h541l-1 -112l-10 -890q0 -86 -15 -154t-51 -115.5t-98 -72.5t-153 -25v112q97 0 132.5 54.5t35.5 187.5z" />
    <glyph glyph-name="f_k.liga" unicode="fk" horiz-adv-x="1556" 
d="M40 929h181q0 41 2 86.5t6 93.5q7 85 39 143t83 94.5t119 52t149 15.5v-123h-66q-47 0 -80.5 -18t-56 -46.5t-33 -67.5t-13.5 -80l-6 -150h255v-112h-249l-7 -817h-150l8 817h-181v112zM760 1399h147l-7 -918l477 495l100 -97l-392 -377l403 -448l-118 -95l-470 518
l-5 -477h-146z" />
    <glyph glyph-name="f_f_k.liga" unicode="ffk" horiz-adv-x="2102" 
d="M370 817l-7 -817h-150l8 817h-181v112h181q0 41 2 86.5t6 93.5q7 85 39 143t83 94.5t119 52t149 15.5v-123h-66q-47 0 -80.5 -18t-56 -46.5t-33 -67.5t-13.5 -80l-6 -150h413q0 41 2 86.5t5 93.5q8 85 39.5 143t82.5 94.5t119.5 52t148.5 15.5v-123h-65q-47 0 -80.5 -18
t-56 -46.5t-33.5 -67.5t-13 -80l-6 -150h254v-112h-248l-8 -817h-149l8 817h-407zM1315 1399h148l-7 -918l477 495l99 -97l-391 -377l402 -448l-117 -95l-470 518l-6 -477h-145z" />
    <glyph glyph-name="f_f_l.liga" unicode="ffl" horiz-adv-x="1597" 
d="M1316 1399h149l-11 -1399h-149zM370 817l-7 -817h-150l8 817h-181v112h181q0 41 2 86.5t6 93.5q7 85 39 143t83 94.5t119 52t149 15.5v-123h-66q-47 0 -80.5 -18t-56 -46.5t-33 -67.5t-13.5 -80l-6 -150h413q0 41 2 86.5t5 93.5q8 85 39.5 143t82.5 94.5t119.5 52
t148.5 15.5v-123h-65q-47 0 -80.5 -18t-56 -46.5t-33.5 -67.5t-13 -80l-6 -150h254v-112h-248l-8 -817h-149l8 817h-407z" />
    <glyph glyph-name="f_t.liga" unicode="ft" horiz-adv-x="1185" 
d="M370 817l-7 -817h-150l8 817h-181v112h181q0 41 2 86.5t6 93.5q7 85 39 143t83 94.5t119 52t149 15.5v-123h-66q-47 0 -80.5 -18t-56 -46.5t-33 -67.5t-13.5 -80l-6 -150h392l4 344h149l-4 -344h254v-112h-255l-4 -381q-2 -78 -2 -131.5v-87.5q0 -58 19 -89t67 -31
q37 0 80 18.5t69 35.5l49 -97q-47 -31 -109.5 -55.5t-124.5 -24.5q-108 0 -153.5 62.5t-45.5 173.5v109.5t2 157.5l3 340h-384z" />
    <glyph glyph-name="f_f_t.liga" unicode="fft" horiz-adv-x="1740" 
d="M370 817l-7 -817h-150l8 817h-181v112h181q0 41 2 86.5t6 93.5q7 85 39 143t83 94.5t119 52t149 15.5v-123h-66q-47 0 -80.5 -18t-56 -46.5t-33 -67.5t-13.5 -80l-6 -150h413q0 41 2 86.5t5 93.5q8 85 39.5 143t82.5 94.5t119.5 52t148.5 15.5v-123h-65q-47 0 -80.5 -18
t-56 -46.5t-33.5 -67.5t-13 -80l-6 -150h392l3 344h150l-4 -344h253v-112h-255l-3 -381q-2 -78 -2 -131.5v-87.5q0 -58 18.5 -89t67.5 -31q37 0 80 18.5t69 35.5l48 -97q-46 -31 -108.5 -55.5t-124.5 -24.5q-108 0 -153.5 62.5t-45.5 173.5v109.5t1 157.5l4 340h-384
l-8 -817h-149l8 817h-407z" />
    <glyph glyph-name="uni0647.fina" unicode="&#x647;" horiz-adv-x="982" arabic-form="final" 
d="M413 151q72 0 126 19t91.5 52.5t56 78t18.5 94.5q0 102 -20.5 137.5t-48.5 35.5q-54 0 -104.5 -26.5t-89.5 -78.5t-62.5 -130.5t-23.5 -181.5h57zM610 -345q69 0 69 76q0 39 -15.5 88t-49.5 92t-84.5 72.5t-118.5 29.5q-30 0 -51.5 -2t-49.5 -6q5 -83 37 -148.5
t76.5 -110.5t94.5 -68t92 -23zM162 0q-48 0 -76.5 -28.5t-29.5 -113.5h-15q-18 30 -29.5 73.5t-11.5 68.5q0 43 13 73t34.5 47.5t49.5 26t56 8.5h91q4 134 45 238t105.5 173.5t146.5 106t168 36.5q65 0 92 -44.5t27 -119.5q0 -45 -8 -97.5t-22.5 -104.5t-33 -101.5
t-38.5 -86.5h293q20 0 27.5 -9t7.5 -21v-91q0 -34 -35 -34h-287q16 -48 25.5 -108.5t9.5 -115.5q0 -54 -10.5 -100t-33 -80t-59.5 -53.5t-89 -19.5q-57 0 -122 20.5t-119 74.5t-90.5 146t-36.5 236h-45z" />
    <glyph glyph-name="uni0672.fina" unicode="&#x672;" horiz-adv-x="456" 
d="M331 0q-90 0 -144 65t-54 202v968h149v-899q0 -54 4 -89t16 -55.5t33.5 -28.5t55.5 -8h102q20 0 27.5 -9t7.5 -21v-91q0 -34 -35 -34h-162zM331 1485q-6 2 -11 3q-10 2 -24 2q-26 0 -44.5 -11.5t-18.5 -26.5q0 -13 18.5 -25.5t45.5 -12.5q15 0 39 5q13 3 27 6l-4 -57
q-8 -1 -17 -2q-16 -5 -30 -8q-7 -1 -15 -2l-18 -6q-66 -34 -117 10q-13 9 -18 12q-9 4 -15 4q-22 0 -48 -42l-51 43q25 31 47 42.5t34 13.5t24 -1.5t27 -14.5q37 -24 54 -28q2 -1 3 -1h5q4 0 6 1v4q-20 7 -30.5 18t-10.5 28q0 19 10 38t25.5 35t36 26t40.5 10q11 0 21 -2
q5 0 9 -1v-60z" />
    <glyph glyph-name="uni0673.fina" unicode="&#x673;" horiz-adv-x="447" 
d="M331 0q-89 0 -143 65t-54 202v968h149v-899q0 -54 3.5 -89t16 -55.5t34 -28.5t55.5 -8h92q20 0 27.5 -9t7.5 -21v-91q0 -34 -35 -34h-153zM350 -155q-6 2 -11 3q-10 3 -24 3q-26 0 -44.5 -12t-18.5 -27q0 -12 18.5 -25t45.5 -13q15 0 39 6q13 2 27 5l-4 -56q-8 -2 -17 -3
q-16 -5 -30 -8q-7 -1 -15 -2l-18 -6q-66 -33 -117 10q-13 9 -18 12q-9 4 -15 4q-22 0 -48 -42l-51 43q25 31 47 42.5t34 13.5t24 -1t27 -15q37 -24 54 -28h3q2 -1 5 -1q4 1 6 1v4q-20 7 -30.5 18t-10.5 29t10 37t25.5 35t36 26t40.5 10q11 0 21 -2q5 0 9 -1v-60z" />
    <glyph glyph-name="uni0675.fina" unicode="&#x675;" horiz-adv-x="662" 
d="M337 0q-90 0 -144 65t-54 202v968h149v-899q0 -54 4 -89t16 -55.5t33.5 -28.5t55.5 -8h301q20 0 28 -9t8 -21v-91q0 -34 -36 -34h-361zM323 1364q15 9 46 27.5t52 22.5q-66 35 -66 99q0 30 14.5 60.5t38 55.5t53.5 39.5t60 14.5q32 0 55 -9v-81q-14 6 -29 10.5t-34 4.5
q-39 0 -70 -21.5t-31 -43.5q0 -37 29 -66t64 -29q21 0 62 10.5t75 19.5l-13 -80q-83 -15 -146 -35.5t-131 -69.5z" />
    <glyph glyph-name="uni0676.fina" unicode="&#x676;" horiz-adv-x="925" 
d="M604 155q0 73 -14.5 130.5t-39.5 98.5t-57 63.5t-68 22.5q-37 0 -68 -18.5t-53.5 -46.5t-35.5 -60t-13 -58q0 -61 40.5 -96.5t124.5 -35.5h184zM742 0q-11 -45 -45.5 -111.5t-97 -141.5t-156.5 -155.5t-225 -154.5l-97 134q138 65 229.5 126t147.5 115t80 101.5t28 86.5
h-196q-89 0 -144.5 25t-84 60.5t-39 75t-10.5 67.5q0 59 27.5 125.5t76.5 121.5t116.5 91.5t147.5 36.5q57 0 103 -39.5t76.5 -104t48.5 -144.5t22 -160h211q20 0 28 -9t8 -21v-91q0 -34 -36 -34h-219zM517 804q19 10 54.5 29.5t61.5 25.5v6q-77 44 -77 113q0 35 17 70.5
t44.5 64t61 45.5t68.5 17q18 0 36.5 -2.5t29.5 -9.5v-85q-16 6 -34 11t-40 5q-23 0 -45 -7.5t-37.5 -19t-25.5 -25.5t-10 -29q0 -43 30.5 -77t78.5 -34q25 0 72.5 11t86.5 24l-15 -88q-48 -8 -87.5 -17t-77 -23.5t-75 -35t-82.5 -51.5z" />
    <glyph glyph-name="uni0677.fina" unicode="&#x677;" horiz-adv-x="925" 
d="M604 155q0 73 -14.5 130.5t-39.5 98.5t-57 63.5t-68 22.5q-37 0 -68 -18.5t-53.5 -46.5t-35.5 -60t-13 -58q0 -61 40.5 -96.5t124.5 -35.5h184zM742 0q-11 -45 -45.5 -111.5t-97 -141.5t-156.5 -155.5t-225 -154.5l-97 134q138 65 229.5 126t147.5 115t80 101.5t28 86.5
h-196q-89 0 -144.5 25t-84 60.5t-39 75t-10.5 67.5q0 59 27.5 125.5t76.5 121.5t116.5 91.5t147.5 36.5q57 0 103 -39.5t76.5 -104t48.5 -144.5t22 -160h211q20 0 28 -9t8 -21v-91q0 -34 -36 -34h-219zM517 804q19 10 54.5 29.5t61.5 25.5v6q-77 44 -77 113q0 35 17 70.5
t44.5 64t61 45.5t68.5 17q18 0 36.5 -2.5t29.5 -9.5v-85q-16 6 -34 11t-40 5q-23 0 -45 -7.5t-37.5 -19t-25.5 -25.5t-10 -29q0 -43 30.5 -77t78.5 -34q25 0 72.5 11t86.5 24l-15 -88q-48 -8 -87.5 -17t-77 -23.5t-75 -35t-82.5 -51.5zM130 837q50 6 84.5 12t59 15t41 18
t34.5 20q-64 21 -90 49.5t-26 62.5q0 26 13 49.5t35 41t49.5 28t55.5 10.5q100 0 100 -104q0 -38 -15 -80t-52 -81t-101.5 -72t-162.5 -49zM393 958q28 40 28 75q0 63 -52 63q-28 0 -48 -17.5t-20 -43.5q0 -53 92 -77z" />
    <glyph glyph-name="uni0678.init" unicode="&#x678;" horiz-adv-x="791" 
d="M-26 0q-21 0 -28.5 9t-7.5 21v91q0 34 36 34h92h41t60.5 1t71 2.5t71.5 5.5q5 23 5 48q0 62 -27 144t-70 180l153 48q39 -101 56.5 -175.5t17.5 -134.5q0 -80 -25.5 -137t-63.5 -119q-64 -11 -145 -14.5t-139 -3.5h-98zM315 860l60 33t70 29v7q-87 49 -87 127
q0 39 19.5 79t50.5 72t69.5 51.5t77.5 19.5q20 0 40.5 -2.5t33.5 -10.5v-97q-19 7 -39.5 13t-44.5 6q-26 0 -50.5 -8.5t-42 -22t-28.5 -29t-11 -32.5q0 -48 34.5 -86.5t88.5 -38.5q28 0 81 12.5t98 26.5l-17 -99q-54 -9 -98.5 -19t-87 -26t-85.5 -39t-93 -59z" />
    <glyph glyph-name="uni0678.medi" unicode="&#x678;" horiz-adv-x="822" 
d="M-26 0q-21 0 -28.5 9t-7.5 21v91q0 34 36 34h104q61 0 103 3.5t67.5 12t37.5 22.5t14 35l17 249l164 45l-32 -216q-2 -9 -3 -20.5t-1 -20.5q0 -64 39.5 -87t108.5 -23h265q21 0 28.5 -9t7.5 -21v-91q0 -34 -36 -34h-272q-107 0 -170 33t-83 127q-25 -50 -48 -82
t-48 -48.5t-54.5 -23t-71.5 -6.5h-137zM410 782q20 11 60 32.5t70 29.5v7q-87 48 -87 127q0 39 19.5 79t50.5 72t68.5 51.5t77.5 19.5q21 0 41.5 -3t32.5 -10v-97q-18 7 -38.5 13t-44.5 6q-26 0 -50.5 -9t-42.5 -22t-29 -28.5t-11 -32.5q0 -49 35 -87t88 -38q29 0 81.5 12
t98.5 27l-17 -99q-54 -9 -99 -19t-87 -26t-85 -39.5t-93 -58.5z" />
    <glyph glyph-name="uni0678.fina" unicode="&#x678;" horiz-adv-x="1569" 
d="M1303 0q-47 -244 -231.5 -353.5t-481.5 -109.5q-160 0 -272 34.5t-182 94.5t-102.5 139t-32.5 167q0 103 29.5 201.5t74.5 177.5l114 -68q-26 -57 -48 -131.5t-22 -146.5q0 -145 108.5 -230t338.5 -85q105 0 203.5 14t176 38.5t124 58t46.5 74.5q0 54 -83.5 87.5
t-242.5 42.5l54 150h731q21 0 28.5 -9t7.5 -21v-91q0 -34 -36 -34h-302zM1125 365q21 12 61 33.5t69 28.5v8q-87 48 -87 126q0 39 19.5 79.5t50.5 72t69.5 51t77.5 19.5q20 0 40.5 -2.5t34.5 -9.5v-98q-20 8 -40.5 13.5t-44.5 5.5q-26 0 -50 -8.5t-41.5 -21t-29 -28.5
t-11.5 -34q0 -48 34.5 -86t88.5 -38q28 0 81.5 12t97.5 27l-17 -99q-54 -10 -98.5 -20t-86.5 -26t-85.5 -39t-93.5 -59z" />
    <glyph glyph-name="uni067C.init" unicode="&#x67c;" horiz-adv-x="564" 
d="M95 1075l115 114l92 -94l95 94l114 -114l-114 -116l-95 93l-92 -93zM161 1q-15 0 -31.5 -14.5t-29.5 -36.5t-20.5 -47.5t-7.5 -48.5t22 -34t52 -11q19 0 39.5 2.5t37.5 9.5t28 16.5t11 22.5q0 22 -7 46.5t-21 45.5t-32.5 35t-40.5 14zM79 0h-105q-21 0 -28.5 9t-7.5 21
v91q0 34 36 34h92h41t60.5 1t71 2.5t71.5 5.5q5 23 5 48q0 62 -27 144t-70 180l153 48q39 -101 56.5 -175.5t17.5 -134.5q0 -80 -25.5 -137t-63.5 -119q-31 -5 -66 -9h1q18 -27 28.5 -61t10.5 -67q0 -28 -19 -54.5t-48.5 -47t-65 -33.5t-70.5 -13q-24 0 -46.5 6t-39.5 19
t-27 33t-10 49q0 19 8 44.5t21.5 50.5t32.5 50q7 8 13 15z" />
    <glyph glyph-name="uni067C.medi" unicode="&#x67c;" horiz-adv-x="612" 
d="M164 968l116 114l91 -94l95 94l114 -114l-114 -115l-95 93l-91 -93zM150 1q-15 0 -31.5 -14.5t-29.5 -36.5t-20.5 -47.5t-7.5 -48.5t22 -34t52 -11q19 0 39.5 2.5t37.5 9.5t28 16.5t11 22.5q0 22 -7 46.5t-21 45.5t-32.5 35t-40.5 14zM68 0h-94q-21 0 -28.5 9t-7.5 21v91
q0 34 36 34h104q61 0 103 3.5t67.5 12t37.5 22.5t14 35l17 249l164 45l-32 -216q-2 -9 -3 -20.5t-1 -20.5q0 -64 39.5 -87t108.5 -23h56q21 0 28 -9t7 -21v-91q0 -34 -35 -34h-63q-107 0 -170 33t-83 127q-25 -50 -48 -82q-16 -22 -34 -37q16 -14 29 -32q18 -27 28.5 -61
t10.5 -67q0 -28 -19 -54.5t-48.5 -47t-65 -33.5t-69.5 -13q-25 0 -47.5 6t-39.5 19t-27 33t-10 49q0 19 8 44.5t21.5 50.5t33.5 50q6 8 12 15z" />
    <glyph glyph-name="uni067C.fina" unicode="&#x67c;" horiz-adv-x="1667" 
d="M600 967l116 113l92 -93l95 93l114 -113l-114 -116l-95 93l-92 -93zM763 -22q-15 0 -31.5 -14.5t-29 -36.5t-20.5 -47.5t-8 -48.5t22 -34t52 -11q19 0 39.5 2.5t37.5 9.5t28.5 16.5t11.5 22.5q0 22 -7.5 46.5t-21 45.5t-32.5 35t-41 14zM683 -21q-350 2 -514 75
q-169 74 -169 250q0 50 16 110t44 129l134 30q-23 -64 -34 -114t-11 -94q0 -66 33 -111t103.5 -71t182 -36t265.5 -10q232 0 356.5 3.5t182.5 23t71.5 59.5t20.5 111q2 13 3.5 31.5t2.5 39t2 40.5t1 32l165 45l-28 -189q-2 -10 -5 -35.5t-3 -34.5q0 -58 38.5 -83t108.5 -25
h55q20 0 27.5 -9t7.5 -21v-91q0 -34 -35 -34h-62q-106 0 -171.5 33t-80.5 127q-30 -65 -79.5 -101t-129.5 -54t-198 -21q-41 -2 -87 -3q16 -25 26 -56q10 -33 10 -67q0 -27 -18.5 -53.5t-48.5 -47.5t-65.5 -34t-69.5 -13q-25 0 -47.5 6t-39.5 19.5t-27 33.5t-10 48
q0 19 8 44.5t22 50.5t33 50q6 9 14 17z" />
    <glyph glyph-name="uni067D.init" unicode="&#x67d;" horiz-adv-x="596" 
d="M-26 0q-21 0 -28.5 9t-7.5 21v91q0 34 36 34h92h41t60.5 1t71 2.5t71.5 5.5q5 23 5 48q0 62 -27 144t-70 180l153 48q39 -101 56.5 -175.5t17.5 -134.5q0 -80 -25.5 -137t-63.5 -119q-64 -11 -145 -14.5t-139 -3.5h-98zM280 1086l114 -116l-114 -114l-116 114zM184 1284
l92 -93l95 93l114 -116l-114 -114l-95 94l-92 -94l-116 114z" />
    <glyph glyph-name="uni067D.medi" unicode="&#x67d;" horiz-adv-x="612" 
d="M-26 0q-21 0 -28.5 9t-7.5 21v91q0 34 36 34h104q61 0 103 3.5t67.5 12t37.5 22.5t14 35l17 249l164 45l-32 -216q-2 -9 -3 -20.5t-1 -20.5q0 -64 39.5 -87t108.5 -23h56q21 0 28 -9t7 -21v-91q0 -34 -35 -34h-63q-107 0 -170 33t-83 127q-25 -50 -48 -82t-48 -48.5
t-54.5 -23t-71.5 -6.5h-137zM380 965l114 -116l-114 -114l-116 114zM285 1162l91 -92l96 92l114 -115l-114 -114l-96 93l-91 -93l-116 114z" />
    <glyph glyph-name="uni067D.fina" unicode="&#x67d;" horiz-adv-x="1667" 
d="M1642 0q-106 0 -171.5 33t-80.5 127q-30 -65 -79.5 -101t-129.5 -54t-198 -22t-283 -4q-364 0 -532 74.5t-168 250.5q0 50 16 110t44 129l134 30q-23 -64 -34 -114t-11 -94q0 -66 33 -111t103.5 -71t182 -36t265.5 -10q232 0 356.5 3.5t182.5 23t71.5 59.5t20.5 111
q2 13 3.5 31.5t2.5 39t2 40.5t1 32l165 45l-28 -189q-2 -10 -5 -35.5t-3 -34.5q0 -58 38.5 -83t108.5 -25h55q20 0 27.5 -9t7.5 -21v-91q0 -34 -35 -34h-62zM789 933l114 -116l-114 -114l-116 114zM694 1131l91 -93l96 93l114 -116l-114 -114l-96 94l-91 -94l-115 114z" />
    <glyph glyph-name="uni0681.init" unicode="&#x681;" horiz-adv-x="1159" 
d="M-26 0q-21 0 -28.5 9t-7.5 21v91q0 34 36 34h112q106 0 198 14t182 32q90 19 177.5 32t184.5 13q-48 26 -84.5 64.5t-57.5 73.5q-16 31 -36.5 57.5t-52.5 46t-78.5 31t-117.5 11.5q-39 0 -97 -9.5t-97 -22.5v144q37 11 98.5 25t134.5 14q78 0 138.5 -23.5t106.5 -61
t79.5 -84t59.5 -92.5q29 -48 52 -79t46.5 -50.5t49.5 -30t57 -16.5v-147q-42 4 -84 6t-81 2q-112 0 -200 -15t-174 -38q-89 -24 -182.5 -38t-212.5 -14h-121zM240 963q21 11 61.5 32.5t69.5 29.5v7q-88 48 -88 127q0 39 19.5 79t50.5 72t69.5 51.5t77.5 19.5q20 0 40.5 -2.5
t34.5 -11.5v-96q-19 7 -39.5 12.5t-45.5 5.5t-50 -8t-42 -21.5t-28.5 -29.5t-11.5 -32q0 -48 34.5 -86.5t88.5 -38.5q28 0 81.5 12t97.5 27l-17 -99q-54 -9 -98.5 -19t-87 -26t-85 -39.5t-92.5 -58.5z" />
    <glyph glyph-name="uni0681.medi" unicode="&#x681;" horiz-adv-x="1210" 
d="M-26 0q-21 0 -28.5 9t-7.5 21v91q0 34 36 34h377q68 0 127 8t117.5 30t120.5 56t137 87q-44 15 -81.5 41.5t-62.5 51.5q-27 23 -54.5 41.5t-62 31.5t-81 20.5t-110.5 7.5q-39 0 -97 -9.5t-97 -22.5v144q37 11 98.5 25t132.5 14q82 0 144.5 -15t110.5 -39t85 -55t70 -63
q37 -35 64.5 -54.5t52.5 -30.5t50 -16t57 -11v-128q-54 0 -89.5 -11.5t-72.5 -31.5q32 -37 78.5 -54t117.5 -17h140q21 0 28.5 -9t7.5 -21v-91q0 -34 -36 -34h-90q-66 0 -117 10.5t-91 31t-72.5 52t-60.5 75.5q-73 -55 -134.5 -89t-118 -51.5t-115.5 -23t-128 -5.5h-345z
M240 963q21 11 61.5 32.5t69.5 29.5v7q-88 48 -88 127q0 39 19.5 79t50.5 72t69.5 51.5t77.5 19.5q20 0 40.5 -2.5t34.5 -11.5v-96q-19 7 -39.5 12.5t-45.5 5.5t-50 -8t-42 -21.5t-28.5 -29.5t-11.5 -32q0 -48 34.5 -86.5t88.5 -38.5q28 0 81.5 12t97.5 27l-17 -99
q-54 -9 -98.5 -19t-87 -26t-85 -39.5t-92.5 -58.5z" />
    <glyph glyph-name="uni0681.fina" unicode="&#x681;" horiz-adv-x="1166" 
d="M522 -744q-111 0 -207 31.5t-166.5 90.5t-109.5 143.5t-39 191.5q0 127 51.5 241.5t154 203t257.5 146.5t361 73q-5 4 -17.5 13t-25 19.5t-26 20.5t-20.5 18q-32 29 -66.5 54.5t-78 44.5t-102.5 30t-137 11q-21 0 -46 -4t-52 -9.5t-52 -12t-44 -12.5v144q44 15 102 30
t129 15q82 0 144.5 -15t111 -39.5t86 -55t71.5 -61.5q35 -34 62 -61.5t52 -47t51.5 -32t59.5 -18.5v-144q-15 0 -41 -1t-55 -2t-55 -2.5t-39 -3.5q11 -55 90.5 -78t200.5 -23h76q20 0 27.5 -9t7.5 -21v-91q0 -34 -35 -34h-142q-61 0 -117 13t-100.5 41t-76.5 72.5t-43 106.5
q-149 -16 -257.5 -61t-179 -109.5t-105 -144.5t-34.5 -168q0 -84 30.5 -148.5t82 -106.5t118 -63t138.5 -21q76 0 156 11.5t189 62.5l62 -114q-53 -37 -111 -60t-112.5 -35.5t-101.5 -16t-77 -3.5zM248 963q20 11 60.5 32.5t69.5 29.5v7q-87 48 -87 127q0 39 19.5 79
t50.5 72t69 51.5t77 19.5q20 0 40.5 -2.5t34.5 -11.5v-96q-19 7 -39.5 12.5t-45.5 5.5t-49.5 -8t-42 -21.5t-29 -29.5t-11.5 -32q0 -48 35 -86.5t88 -38.5q29 0 82 12t98 27l-18 -99q-53 -9 -98 -19t-87 -26t-85 -39.5t-93 -58.5z" />
    <glyph glyph-name="uni0682.init" unicode="&#x682;" horiz-adv-x="1159" 
d="M-26 0q-21 0 -28.5 9t-7.5 21v91q0 34 36 34h112q106 0 198 14t182 32q90 19 177.5 32t184.5 13q-48 26 -84.5 64.5t-57.5 73.5q-16 31 -36.5 57.5t-52.5 46t-78.5 31t-117.5 11.5q-39 0 -97 -9.5t-97 -22.5v144q37 11 98.5 25t134.5 14q78 0 138.5 -23.5t106.5 -61
t79.5 -84t59.5 -92.5q29 -48 52 -79t46.5 -50.5t49.5 -30t57 -16.5v-147q-42 4 -84 6t-81 2q-112 0 -200 -15t-174 -38q-89 -24 -182.5 -38t-212.5 -14h-121zM432 1172l-108 108l116 114l114 -114l-106 -108l106 -105l-114 -116l-116 116z" />
    <glyph glyph-name="uni0682.medi" unicode="&#x682;" horiz-adv-x="1210" 
d="M-26 0q-21 0 -28.5 9t-7.5 21v91q0 34 36 34h377q68 0 127 8t117.5 30t120.5 56t137 87q-44 15 -81.5 41.5t-62.5 51.5q-27 23 -54.5 41.5t-62 31.5t-81 20.5t-110.5 7.5q-39 0 -97 -9.5t-97 -22.5v144q37 11 98.5 25t132.5 14q82 0 144.5 -15t110.5 -39t85 -55t70 -63
q37 -35 64.5 -54.5t52.5 -30.5t50 -16t57 -11v-128q-54 0 -89.5 -11.5t-72.5 -31.5q32 -37 78.5 -54t117.5 -17h140q21 0 28.5 -9t7.5 -21v-91q0 -34 -36 -34h-90q-66 0 -117 10.5t-91 31t-72.5 52t-60.5 75.5q-73 -55 -134.5 -89t-118 -51.5t-115.5 -23t-128 -5.5h-345z
M435 1172l-105 105l115 114l114 -114l-104 -105l104 -105l-114 -116l-115 116z" />
    <glyph glyph-name="uni0682.fina" unicode="&#x682;" horiz-adv-x="1166" 
d="M522 -744q-111 0 -207 31.5t-166.5 90.5t-109.5 143.5t-39 191.5q0 127 51.5 241.5t154 203t257.5 146.5t361 73q-5 4 -17.5 13t-25 19.5t-26 20.5t-20.5 18q-32 29 -66.5 54.5t-78 44.5t-102.5 30t-137 11q-21 0 -46 -4t-52 -9.5t-52 -12t-44 -12.5v144q44 15 102 30
t129 15q82 0 144.5 -15t111 -39.5t86 -55t71.5 -61.5q35 -34 62 -61.5t52 -47t51.5 -32t59.5 -18.5v-144q-15 0 -41 -1t-55 -2t-55 -2.5t-39 -3.5q11 -55 90.5 -78t200.5 -23h76q20 0 27.5 -9t7.5 -21v-91q0 -34 -35 -34h-142q-61 0 -117 13t-100.5 41t-76.5 72.5t-43 106.5
q-149 -16 -257.5 -61t-179 -109.5t-105 -144.5t-34.5 -168q0 -84 30.5 -148.5t82 -106.5t118 -63t138.5 -21q76 0 156 11.5t189 62.5l62 -114q-53 -37 -111 -60t-112.5 -35.5t-101.5 -16t-77 -3.5zM441 1172l-105 104l116 113l114 -113l-103 -104l103 -102l-114 -116
l-116 116z" />
    <glyph glyph-name="uni0685.init" unicode="&#x685;" horiz-adv-x="1159" 
d="M-26 0q-21 0 -28.5 9t-7.5 21v91q0 34 36 34h112q106 0 198 14t182 32q90 19 177.5 32t184.5 13q-48 26 -84.5 64.5t-57.5 73.5q-16 31 -36.5 57.5t-52.5 46t-78.5 31t-117.5 11.5q-39 0 -97 -9.5t-97 -22.5v144q37 11 98.5 25t134.5 14q78 0 138.5 -23.5t106.5 -61
t79.5 -84t59.5 -92.5q29 -48 52 -79t46.5 -50.5t49.5 -30t57 -16.5v-147q-42 4 -84 6t-81 2q-112 0 -200 -15t-174 -38q-89 -24 -182.5 -38t-212.5 -14h-121zM324 1265l116 113l114 -113l-114 -116zM230 1067l115 114l91 -93l96 93l114 -114l-114 -116l-96 94l-91 -94z" />
    <glyph glyph-name="uni0685.medi" unicode="&#x685;" horiz-adv-x="1210" 
d="M-26 0q-21 0 -28.5 9t-7.5 21v91q0 34 36 34h377q68 0 127 8t117.5 30t120.5 56t137 87q-44 15 -81.5 41.5t-62.5 51.5q-27 23 -54.5 41.5t-62 31.5t-81 20.5t-110.5 7.5q-39 0 -97 -9.5t-97 -22.5v144q37 11 98.5 25t132.5 14q82 0 144.5 -15t110.5 -39t85 -55t70 -63
q37 -35 64.5 -54.5t52.5 -30.5t50 -16t57 -11v-128q-54 0 -89.5 -11.5t-72.5 -31.5q32 -37 78.5 -54t117.5 -17h140q21 0 28.5 -9t7.5 -21v-91q0 -34 -36 -34h-90q-66 0 -117 10.5t-91 31t-72.5 52t-60.5 75.5q-73 -55 -134.5 -89t-118 -51.5t-115.5 -23t-128 -5.5h-345z
M333 1265l116 113l114 -113l-114 -116zM239 1067l115 114l91 -93l96 93l114 -114l-114 -116l-96 94l-91 -94z" />
    <glyph glyph-name="uni0685.fina" unicode="&#x685;" horiz-adv-x="1166" 
d="M522 -744q-111 0 -207 31.5t-166.5 90.5t-109.5 143.5t-39 191.5q0 127 51.5 241.5t154 203t257.5 146.5t361 73q-5 4 -17.5 13t-25 19.5t-26 20.5t-20.5 18q-32 29 -66.5 54.5t-78 44.5t-102.5 30t-137 11q-21 0 -46 -4t-52 -9.5t-52 -12t-44 -12.5v144q44 15 102 30
t129 15q82 0 144.5 -15t111 -39.5t86 -55t71.5 -61.5q35 -34 62 -61.5t52 -47t51.5 -32t59.5 -18.5v-144q-15 0 -41 -1t-55 -2t-55 -2.5t-39 -3.5q11 -55 90.5 -78t200.5 -23h76q20 0 27.5 -9t7.5 -21v-91q0 -34 -35 -34h-142q-61 0 -117 13t-100.5 41t-76.5 72.5t-43 106.5
q-149 -16 -257.5 -61t-179 -109.5t-105 -144.5t-34.5 -168q0 -84 30.5 -148.5t82 -106.5t118 -63t138.5 -21q76 0 156 11.5t189 62.5l62 -114q-53 -37 -111 -60t-112.5 -35.5t-101.5 -16t-77 -3.5zM342 1265l115 113l114 -113l-114 -116zM246 1067l116 114l92 -93l94 93
l114 -114l-114 -116l-94 94l-92 -94z" />
    <glyph glyph-name="uni0689.fina" unicode="&#x689;" horiz-adv-x="883" 
d="M329 0q-16 0 -32 -14.5t-29 -36.5t-20.5 -47.5t-7.5 -48.5t21.5 -34t51.5 -11q20 0 40.5 2.5t37 9.5t28 16.5t11.5 22.5q0 22 -7.5 46.5t-21 45.5t-32 35t-40.5 14zM248 0h-186v155h211q68 0 126.5 2t101.5 8t67 20.5t24 36.5q0 45 -36.5 154t-129.5 283l138 87l148 -393
q21 -54 37.5 -92.5t34 -61.5t40 -33.5t53.5 -10.5h42q21 0 28.5 -9t7.5 -21v-91q0 -34 -36 -34h-47q-34 0 -65.5 4.5t-59.5 19.5t-53 44t-48 78h-7q-49 -89 -126 -117q-26 -10 -58 -16q1 -3 3 -5q19 -27 29 -61t10 -67q0 -28 -18.5 -54t-48 -47t-65 -34t-70.5 -13
q-24 0 -46.5 6t-40 19t-27.5 33.5t-10 48.5q0 19 8.5 44.5t22 50.5t32.5 50z" />
    <glyph glyph-name="uni068A.fina" unicode="&#x68a;" horiz-adv-x="883" 
d="M919 155q20 0 28 -9t8 -21v-91q0 -34 -36 -34h-47q-34 0 -66 4.5t-59.5 19.5t-52.5 44t-48 78h-7q-49 -89 -126 -117.5t-200 -28.5h-251v155h210q68 0 126.5 2t101.5 8t67.5 20.5t24.5 36.5q0 45 -36.5 154t-129.5 283l138 87l148 -393q20 -54 36.5 -92.5t34.5 -61.5
t40 -33.5t54 -10.5h42zM228 -276l116 114l113 -114l-113 -116z" />
    <glyph glyph-name="uni068B.fina" unicode="&#x68b;" horiz-adv-x="883" 
d="M919 155q20 0 28 -9t8 -21v-91q0 -34 -36 -34h-47q-34 0 -66 4.5t-59.5 19.5t-52.5 44t-48 78h-7q-49 -89 -126 -117.5t-200 -28.5h-251v155h210q68 0 126.5 2t101.5 8t67.5 20.5t24.5 36.5q0 45 -36.5 154t-129.5 283l138 87l148 -393q20 -54 36.5 -92.5t34.5 -61.5
t40 -33.5t54 -10.5h42zM635 1004q0 28 -28 53t-54 25q-28 0 -62 -23t-87 -83h226q5 12 5 28zM271 901v75h67v336h66v-278q52 59 91 87.5t82 28.5q24 0 47.5 -14.5t42 -35.5t29 -46t10.5 -45q0 -5 -2 -19t-7 -30t-9.5 -32t-9.5 -27h-407zM228 -276l116 114l113 -114
l-113 -116z" />
    <glyph glyph-name="uni068F.fina" unicode="&#x68f;" horiz-adv-x="883" 
d="M919 155q20 0 28 -9t8 -21v-91q0 -34 -36 -34h-47q-34 0 -66 4.5t-59.5 19.5t-52.5 44t-48 78h-7q-49 -89 -126 -117.5t-200 -28.5h-251v155h210q68 0 126.5 2t101.5 8t67.5 20.5t24.5 36.5q0 45 -36.5 154t-129.5 283l138 87l148 -393q20 -54 36.5 -92.5t34.5 -61.5
t40 -33.5t54 -10.5h42zM498 1181l114 -116l-114 -114l-115 114zM404 1378l91 -93l95 93l114 -115l-114 -114l-95 93l-91 -93l-116 114z" />
    <glyph glyph-name="uni0690.fina" unicode="&#x690;" horiz-adv-x="883" 
d="M919 155q20 0 28 -9t8 -21v-91q0 -34 -36 -34h-47q-34 0 -66 4.5t-59.5 19.5t-52.5 44t-48 78h-7q-49 -89 -126 -117.5t-200 -28.5h-251v155h210q68 0 126.5 2t101.5 8t67.5 20.5t24.5 36.5q0 45 -36.5 154t-129.5 283l138 87l148 -393q20 -54 36.5 -92.5t34.5 -61.5
t40 -33.5t54 -10.5h42zM288 1303l116 114l91 -93l95 93l114 -114l-114 -116l-95 94l-91 -94zM288 1067l116 114l91 -93l95 93l114 -114l-114 -116l-95 94l-91 -94z" />
    <glyph glyph-name="uni0692.fina" unicode="&#x692;" horiz-adv-x="814" 
d="M850 155q20 0 28 -9t8 -21v-91q0 -34 -36 -34h-56q-46 0 -96 27t-84 89h-9q-10 -62 -48.5 -145t-101.5 -174.5t-151.5 -182t-196.5 -168.5l-107 129q146 91 244 186t158.5 183t86.5 161.5t26 118.5q0 13 -4.5 36t-19.5 57t-44 77.5t-77 102.5l143 91q32 -60 59.5 -123.5
t54.5 -128.5q37 -95 79 -138t102 -43h42zM544 1193l82 -69q-45 -40 -86.5 -117t-60.5 -166h-51q-19 91 -63 165.5t-89 119.5l83 70q60 -116 94 -224q34 113 91 221z" />
    <glyph glyph-name="uni0693.fina" unicode="&#x693;" horiz-adv-x="814" 
d="M444 -254q-16 0 -32.5 -14.5t-29 -36.5t-20.5 -47.5t-8 -48.5q0 -24 22 -34.5t52 -10.5q19 0 39.5 2.5t37.5 9.5t28.5 16.5t11.5 22.5q0 21 -7.5 46t-21 46t-32 35t-40.5 14zM287 -402q-82 -81 -180 -152l-107 129q146 91 244 186t158.5 183t87 161.5t26.5 118.5
q0 13 -5 36t-20 57t-44 77.5t-77 102.5l144 91q31 -60 59 -123.5t55 -128.5q36 -95 78.5 -138t101.5 -43h42q21 0 28.5 -9t7.5 -21v-91q0 -34 -36 -34h-55q-46 0 -96.5 27t-84.5 89h-9q-9 -62 -47 -145q-35 -75 -91 -157h9q29 0 54 -17t43 -43.5t28.5 -60.5t10.5 -67
q0 -28 -18.5 -54.5t-48 -47.5t-65 -33.5t-70.5 -12.5q-25 0 -47 6t-39.5 19t-27.5 33t-10 49q0 6 1 13z" />
    <glyph glyph-name="uni0694.fina" unicode="&#x694;" horiz-adv-x="814" 
d="M850 155q20 0 28 -9t8 -21v-91q0 -34 -36 -34h-56q-46 0 -96 27t-84 89h-9q-10 -62 -48.5 -145t-101.5 -174.5t-151.5 -182t-196.5 -168.5l-107 129q146 91 244 186t158.5 183t86.5 161.5t26 118.5q0 13 -4.5 36t-19.5 57t-44 77.5t-77 102.5l143 91q32 -60 59.5 -123.5
t54.5 -128.5q37 -95 79 -138t102 -43h42zM397 -519l116 114l114 -114l-114 -116z" />
    <glyph glyph-name="uni0695.fina" unicode="&#x695;" horiz-adv-x="814" 
d="M850 155q20 0 28 -9t8 -21v-91q0 -34 -36 -34h-56q-46 0 -96 27t-84 89h-9q-10 -62 -48.5 -145t-101.5 -174.5t-151.5 -182t-196.5 -168.5l-107 129q146 91 244 186t158.5 183t86.5 161.5t26 118.5q0 13 -4.5 36t-19.5 57t-44 77.5t-77 102.5l143 91q32 -60 59.5 -123.5
t54.5 -128.5q37 -95 79 -138t102 -43h42zM562 -520l82 -69q-45 -40 -86 -117t-61 -166h-51q-19 91 -63 166t-89 119l83 70q60 -116 94 -224q34 113 91 221z" />
    <glyph glyph-name="uni0696.fina" unicode="&#x696;" horiz-adv-x="814" 
d="M850 155q20 0 28 -9t8 -21v-91q0 -34 -36 -34h-56q-46 0 -96 27t-84 89h-9q-10 -62 -48.5 -145t-101.5 -174.5t-151.5 -182t-196.5 -168.5l-107 129q146 91 244 186t158.5 183t86.5 161.5t26 118.5q0 13 -4.5 36t-19.5 57t-44 77.5t-77 102.5l143 91q32 -60 59.5 -123.5
t54.5 -128.5q37 -95 79 -138t102 -43h42zM107 181l115 114l114 -114l-114 -115zM397 -519l116 114l114 -114l-114 -116z" />
    <glyph glyph-name="uni0697.fina" unicode="&#x697;" horiz-adv-x="814" 
d="M850 155q20 0 28 -9t8 -21v-91q0 -34 -36 -34h-56q-46 0 -96 27t-84 89h-9q-10 -62 -48.5 -145t-101.5 -174.5t-151.5 -182t-196.5 -168.5l-107 129q146 91 244 186t158.5 183t86.5 161.5t26 118.5q0 13 -4.5 36t-19.5 57t-44 77.5t-77 102.5l143 91q32 -60 59.5 -123.5
t54.5 -128.5q37 -95 79 -138t102 -43h42zM231 864l116 114l91 -93l96 93l114 -114l-114 -116l-96 94l-91 -94z" />
    <glyph glyph-name="uni0699.fina" unicode="&#x699;" horiz-adv-x="814" 
d="M850 155q20 0 28 -9t8 -21v-91q0 -34 -36 -34h-56q-46 0 -96 27t-84 89h-9q-10 -62 -48.5 -145t-101.5 -174.5t-151.5 -182t-196.5 -168.5l-107 129q146 91 244 186t158.5 183t86.5 161.5t26 118.5q0 13 -4.5 36t-19.5 57t-44 77.5t-77 102.5l143 91q32 -60 59.5 -123.5
t54.5 -128.5q37 -95 79 -138t102 -43h42zM344 975l-115 116l115 113l91 -93l96 93l114 -113l-112 -114l1 1l114 -114l-114 -116l-96 94l-91 -94l-116 116zM531 975l-96 94l-90 -93l2 2l91 -93z" />
    <glyph glyph-name="uni069A.init" unicode="&#x69a;" horiz-adv-x="1696" 
d="M-26 0q-21 0 -28.5 9t-7.5 21v91q0 34 36 34h169q64 0 101 7t57.5 20.5t27 30.5t8.5 35l19 190l162 45q-9 -48 -14 -78.5t-7.5 -50.5t-3.5 -31t-1 -19q0 -32 6 -58.5t22.5 -46.5t46.5 -32t78 -12h75q108 0 151 17.5t46 55.5l25 235l162 44l-35 -206q-2 -12 -3 -24t-1 -21
q0 -55 38 -78t110 -23h20q49 0 100 2t104 7q5 23 5 51q0 63 -27.5 145t-69.5 178l156 46q40 -101 56.5 -175.5t16.5 -134.5q0 -82 -26 -138t-63 -118q-21 -3 -49.5 -6t-62.5 -5.5t-69.5 -4.5t-65.5 -2h-33q-69 0 -115 12.5t-74.5 33t-43 50t-19.5 64.5q-27 -50 -50 -82
t-48 -48.5t-55 -23t-69 -6.5h-67q-28 0 -56 6.5t-54.5 23t-48.5 47.5t-39 82q-37 -51 -83 -82.5t-92.5 -48.5t-92 -22.5t-84.5 -5.5h-140zM915 969l115 114l114 -114l-114 -115zM915 -276l115 114l114 -114l-114 -116z" />
    <glyph glyph-name="uni069A.medi" unicode="&#x69a;" horiz-adv-x="1698" 
d="M-26 0q-21 0 -28.5 9t-7.5 21v91q0 34 36 34h179q63 0 99.5 10.5t54 24t23 29.5t7.5 29l19 190l162 45l-26 -182q-2 -10 -3 -18.5t-1 -15.5q0 -37 13.5 -59.5t33 -34t41.5 -15t41 -3.5h74q123 0 170 17.5t51 55.5l23 235l162 44l-34 -206q-2 -10 -3 -17.5t-1 -14.5
q0 -64 38.5 -89t81.5 -25h18q64 0 100.5 3.5t56 12t25 22.5t7.5 35l17 249q43 14 82 23t82 22l-30 -210q-2 -8 -3 -23t-1 -20q0 -62 40 -88t80 -26h82q21 0 28 -9t7 -21v-91q0 -34 -35 -34h-118q-57 0 -114 35.5t-84 124.5q-26 -50 -49.5 -82t-45.5 -48.5t-45.5 -23
t-47.5 -6.5h-90q-28 0 -55.5 5.5t-52.5 23t-48 49.5t-39 82q-25 -50 -48 -82t-46.5 -48.5t-46.5 -23t-46 -6.5h-95q-28 0 -57 6.5t-55 23t-48.5 47.5t-37.5 80q-65 -90 -156.5 -123.5t-198.5 -33.5h-137zM891 969l116 114l114 -114l-114 -115zM887 -276l116 114l114 -114
l-114 -116z" />
    <glyph glyph-name="uni069A.fina" unicode="&#x69a;" horiz-adv-x="2246" 
d="M2163 0q-28 0 -58.5 6.5t-57 24t-48 49.5t-32.5 80q-23 -48 -45 -79t-46.5 -49.5t-52.5 -25t-64 -6.5h-61q-106 0 -172.5 34.5t-79.5 125.5q-24 -50 -47.5 -82t-48.5 -48.5t-56 -23t-70 -6.5h-17q-67 0 -102 28.5t-58 78.5q-11 -139 -61.5 -238t-128 -162t-173.5 -93
t-197 -30q-117 0 -208.5 34.5t-153 93t-93.5 137t-32 166.5q0 78 21.5 154.5t62.5 154.5l119 -66q-30 -68 -41 -115.5t-11 -105.5q0 -73 27 -129.5t74 -97t109.5 -61t135.5 -20.5q126 0 205.5 35t124 86t60.5 109.5t16 107.5q0 45 -12 88t-29.5 84t-39 77.5t-40.5 66.5
l162 69q28 -69 51.5 -124.5t49.5 -93.5t56.5 -58.5t73.5 -20.5h38q90 0 142.5 16t56.5 57l17 249l164 45l-31 -221q-2 -10 -3 -20t-1 -18q0 -54 34.5 -81t112.5 -27h40q63 0 99 3.5t56 12t25.5 22.5t7.5 35l17 249l164 45l-30 -210q-1 -8 -3.5 -24.5t-2.5 -22.5
q0 -32 12.5 -52.5t30 -33.5t39 -18.5t40.5 -5.5h82q20 0 28 -9t8 -21v-91q0 -34 -36 -34h-119zM1380 969l116 114l114 -114l-114 -115zM1398 -276l116 114l114 -114l-114 -116z" />
    <glyph glyph-name="uni069B.init" unicode="&#x69b;" horiz-adv-x="1696" 
d="M-26 0q-21 0 -28.5 9t-7.5 21v91q0 34 36 34h169q64 0 101 7t57.5 20.5t27 30.5t8.5 35l19 190l162 45q-9 -48 -14 -78.5t-7.5 -50.5t-3.5 -31t-1 -19q0 -32 6 -58.5t22.5 -46.5t46.5 -32t78 -12h75q108 0 151 17.5t46 55.5l25 235l162 44l-35 -206q-2 -12 -3 -24t-1 -21
q0 -55 38 -78t110 -23h20q49 0 100 2t104 7q5 23 5 51q0 63 -27.5 145t-69.5 178l156 46q40 -101 56.5 -175.5t16.5 -134.5q0 -82 -26 -138t-63 -118q-21 -3 -49.5 -6t-62.5 -5.5t-69.5 -4.5t-65.5 -2h-33q-69 0 -115 12.5t-74.5 33t-43 50t-19.5 64.5q-27 -50 -50 -82
t-48 -48.5t-55 -23t-69 -6.5h-67q-28 0 -56 6.5t-54.5 23t-48.5 47.5t-39 82q-37 -51 -83 -82.5t-92.5 -48.5t-92 -22.5t-84.5 -5.5h-140zM1090 -518l-116 -114l-114 114l114 115zM1184 -321l-115 -114l-92 93l-94 -93l-114 114l114 116l94 -94l92 94z" />
    <glyph glyph-name="uni069B.medi" unicode="&#x69b;" horiz-adv-x="1698" 
d="M-26 0q-21 0 -28.5 9t-7.5 21v91q0 34 36 34h179q63 0 99.5 10.5t54 24t23 29.5t7.5 29l19 190l162 45l-26 -182q-2 -10 -3 -18.5t-1 -15.5q0 -37 13.5 -59.5t33 -34t41.5 -15t41 -3.5h74q123 0 170 17.5t51 55.5l23 235l162 44l-34 -206q-2 -10 -3 -17.5t-1 -14.5
q0 -64 38.5 -89t81.5 -25h18q64 0 100.5 3.5t56 12t25 22.5t7.5 35l17 249q43 14 82 23t82 22l-30 -210q-2 -8 -3 -23t-1 -20q0 -62 40 -88t80 -26h82q21 0 28 -9t7 -21v-91q0 -34 -35 -34h-118q-57 0 -114 35.5t-84 124.5q-26 -50 -49.5 -82t-45.5 -48.5t-45.5 -23
t-47.5 -6.5h-90q-28 0 -55.5 5.5t-52.5 23t-48 49.5t-39 82q-25 -50 -48 -82t-46.5 -48.5t-46.5 -23t-46 -6.5h-95q-28 0 -57 6.5t-55 23t-48.5 47.5t-37.5 80q-65 -90 -156.5 -123.5t-198.5 -33.5h-137zM1071 -518l-115 -114l-114 114l114 115zM1166 -321l-116 -114l-91 93
l-94 -93l-114 114l114 116l94 -94l91 94z" />
    <glyph glyph-name="uni069B.fina" unicode="&#x69b;" horiz-adv-x="2246" 
d="M2163 0q-28 0 -58.5 6.5t-57 24t-48 49.5t-32.5 80q-23 -48 -45 -79t-46.5 -49.5t-52.5 -25t-64 -6.5h-61q-106 0 -172.5 34.5t-79.5 125.5q-24 -50 -47.5 -82t-48.5 -48.5t-56 -23t-70 -6.5h-17q-67 0 -102 28.5t-58 78.5q-11 -139 -61.5 -238t-128 -162t-173.5 -93
t-197 -30q-117 0 -208.5 34.5t-153 93t-93.5 137t-32 166.5q0 78 21.5 154.5t62.5 154.5l119 -66q-30 -68 -41 -115.5t-11 -105.5q0 -73 27 -129.5t74 -97t109.5 -61t135.5 -20.5q126 0 205.5 35t124 86t60.5 109.5t16 107.5q0 45 -12 88t-29.5 84t-39 77.5t-40.5 66.5
l162 69q28 -69 51.5 -124.5t49.5 -93.5t56.5 -58.5t73.5 -20.5h38q90 0 142.5 16t56.5 57l17 249l164 45l-31 -221q-2 -10 -3 -20t-1 -18q0 -54 34.5 -81t112.5 -27h40q63 0 99 3.5t56 12t25.5 22.5t7.5 35l17 249l164 45l-30 -210q-1 -8 -3.5 -24.5t-2.5 -22.5
q0 -32 12.5 -52.5t30 -33.5t39 -18.5t40.5 -5.5h82q20 0 28 -9t8 -21v-91q0 -34 -36 -34h-119zM1636 -518l-115 -114l-114 114l114 115zM1731 -321l-116 -114l-91 93l-95 -93l-113 114l113 116l95 -94l91 94z" />
    <glyph glyph-name="uni069C.init" unicode="&#x69c;" horiz-adv-x="1696" 
d="M-26 0q-21 0 -28.5 9t-7.5 21v91q0 34 36 34h169q64 0 101 7t57.5 20.5t27 30.5t8.5 35l19 190l162 45q-9 -48 -14 -78.5t-7.5 -50.5t-3.5 -31t-1 -19q0 -32 6 -58.5t22.5 -46.5t46.5 -32t78 -12h75q108 0 151 17.5t46 55.5l25 235l162 44l-35 -206q-2 -12 -3 -24t-1 -21
q0 -55 38 -78t110 -23h20q49 0 100 2t104 7q5 23 5 51q0 63 -27.5 145t-69.5 178l156 46q40 -101 56.5 -175.5t16.5 -134.5q0 -82 -26 -138t-63 -118q-21 -3 -49.5 -6t-62.5 -5.5t-69.5 -4.5t-65.5 -2h-33q-69 0 -115 12.5t-74.5 33t-43 50t-19.5 64.5q-27 -50 -50 -82
t-48 -48.5t-55 -23t-69 -6.5h-67q-28 0 -56 6.5t-54.5 23t-48.5 47.5t-39 82q-37 -51 -83 -82.5t-92.5 -48.5t-92 -22.5t-84.5 -5.5h-140zM960 1170l116 114l114 -114l-114 -116zM865 972l116 114l91 -93l96 93l114 -114l-114 -116l-96 93l-91 -93zM1090 -518l-116 -114
l-114 114l114 115zM1184 -321l-115 -114l-92 93l-94 -93l-114 114l114 116l94 -94l92 94z" />
    <glyph glyph-name="uni069C.medi" unicode="&#x69c;" horiz-adv-x="1698" 
d="M-26 0q-21 0 -28.5 9t-7.5 21v91q0 34 36 34h179q63 0 99.5 10.5t54 24t23 29.5t7.5 29l19 190l162 45l-26 -182q-2 -10 -3 -18.5t-1 -15.5q0 -37 13.5 -59.5t33 -34t41.5 -15t41 -3.5h74q123 0 170 17.5t51 55.5l23 235l162 44l-34 -206q-2 -10 -3 -17.5t-1 -14.5
q0 -64 38.5 -89t81.5 -25h18q64 0 100.5 3.5t56 12t25 22.5t7.5 35l17 249q43 14 82 23t82 22l-30 -210q-2 -8 -3 -23t-1 -20q0 -62 40 -88t80 -26h82q21 0 28 -9t7 -21v-91q0 -34 -35 -34h-118q-57 0 -114 35.5t-84 124.5q-26 -50 -49.5 -82t-45.5 -48.5t-45.5 -23
t-47.5 -6.5h-90q-28 0 -55.5 5.5t-52.5 23t-48 49.5t-39 82q-25 -50 -48 -82t-46.5 -48.5t-46.5 -23t-46 -6.5h-95q-28 0 -57 6.5t-55 23t-48.5 47.5t-37.5 80q-65 -90 -156.5 -123.5t-198.5 -33.5h-137zM955 1170l115 114l114 -114l-114 -116zM860 972l116 114l91 -93
l95 93l113 -114l-113 -116l-95 93l-91 -93zM1071 -518l-115 -114l-114 114l114 115zM1166 -321l-116 -114l-91 93l-94 -93l-114 114l114 116l94 -94l91 94z" />
    <glyph glyph-name="uni069C.fina" unicode="&#x69c;" horiz-adv-x="2246" 
d="M2163 0q-28 0 -58.5 6.5t-57 24t-48 49.5t-32.5 80q-23 -48 -45 -79t-46.5 -49.5t-52.5 -25t-64 -6.5h-61q-106 0 -172.5 34.5t-79.5 125.5q-24 -50 -47.5 -82t-48.5 -48.5t-56 -23t-70 -6.5h-17q-67 0 -102 28.5t-58 78.5q-11 -139 -61.5 -238t-128 -162t-173.5 -93
t-197 -30q-117 0 -208.5 34.5t-153 93t-93.5 137t-32 166.5q0 78 21.5 154.5t62.5 154.5l119 -66q-30 -68 -41 -115.5t-11 -105.5q0 -73 27 -129.5t74 -97t109.5 -61t135.5 -20.5q126 0 205.5 35t124 86t60.5 109.5t16 107.5q0 45 -12 88t-29.5 84t-39 77.5t-40.5 66.5
l162 69q28 -69 51.5 -124.5t49.5 -93.5t56.5 -58.5t73.5 -20.5h38q90 0 142.5 16t56.5 57l17 249l164 45l-31 -221q-2 -10 -3 -20t-1 -18q0 -54 34.5 -81t112.5 -27h40q63 0 99 3.5t56 12t25.5 22.5t7.5 35l17 249l164 45l-30 -210q-1 -8 -3.5 -24.5t-2.5 -22.5
q0 -32 12.5 -52.5t30 -33.5t39 -18.5t40.5 -5.5h82q20 0 28 -9t8 -21v-91q0 -34 -36 -34h-119zM1526 1170l116 114l114 -114l-114 -116zM1431 972l116 114l91 -93l96 93l114 -114l-114 -116l-96 93l-91 -93zM1636 -518l-115 -114l-114 114l114 115zM1731 -321l-116 -114
l-91 93l-95 -93l-113 114l113 116l95 -94l91 94z" />
    <glyph glyph-name="uni069D.init" unicode="&#x69d;" horiz-adv-x="1756" 
d="M1197 532q-37 0 -77 -18.5t-79.5 -46t-74.5 -59t-60 -55.5q-21 -20 -49.5 -48.5t-59.5 -58t-60.5 -55t-48.5 -36.5h433q30 0 73.5 1t92.5 2t97 3.5t87 6.5q10 21 16.5 40.5t6.5 45.5q0 58 -28.5 108.5t-73 87.5t-96.5 59.5t-99 22.5zM517 155q57 34 130 101.5t142 135.5
q73 69 133.5 121.5t118.5 86.5t115.5 52t123.5 18q63 0 126 -36.5t114 -91.5t82.5 -119.5t31.5 -121.5q0 -10 -0.5 -19.5t-2.5 -18.5q-16 -65 -34.5 -126.5t-42.5 -123.5q-117 -4 -224.5 -8.5t-236.5 -4.5h-644q-34 0 -69.5 7.5t-65 25t-50 49.5t-25.5 80
q-38 -91 -76 -126.5t-87 -35.5h-102q-21 0 -28.5 9t-7.5 21v91q0 34 36 34h96q60 0 95.5 16t41.5 55l32 207l143 44l-41 -180q-2 -10 -3 -17.5t-1 -10.5q0 -66 39 -90t98 -24h43zM1166 -321l-116 -114l-91 93l-94 -93l-114 114l114 116l94 -94l91 94z" />
    <glyph glyph-name="uni069D.medi" unicode="&#x69d;" horiz-adv-x="1860" 
d="M1199 532q-37 0 -77.5 -18.5t-79.5 -46t-74 -59t-60 -55.5q-21 -20 -49.5 -49.5t-59.5 -58t-59 -54t-47 -36.5h424q37 0 84 1t95.5 2t94.5 3.5t83 6.5q9 19 15.5 42t6.5 44q0 50 -26 99.5t-69 89.5t-96 64.5t-106 24.5zM518 155q29 16 61 42.5t68.5 58t73 67t70.5 69.5
q73 69 133.5 121.5t118 86.5t115.5 52t124 18q63 0 125 -35.5t113 -91.5t82 -123t31 -129v-35q0 -34 45.5 -67.5t127.5 -33.5h91q21 0 28 -9t7 -21v-91q0 -34 -35 -34h-54q-39 0 -78.5 11.5t-71 34.5t-53 57.5t-27.5 79.5q-14 -45 -29 -88t-30 -82q-112 -8 -214 -10.5
t-229 -2.5h-662q-35 0 -71 7.5t-65.5 25t-49 49.5t-23.5 80q-39 -91 -76 -126.5t-86 -35.5h-104q-21 0 -28.5 9t-7.5 21v91q0 34 36 34h98q60 0 94.5 16t40.5 55l32 207l143 44l-41 -180q-2 -10 -3 -17.5t-1 -10.5q0 -64 38.5 -89t98.5 -25h44zM1166 -321l-116 -114l-91 93
l-94 -93l-114 114l114 116l94 -94l91 94z" />
    <glyph glyph-name="uni069D.fina" unicode="&#x69d;" horiz-adv-x="2637" 
d="M1976 532q-37 0 -77 -18.5t-79.5 -46t-75 -59t-60.5 -55.5q-20 -20 -49 -49.5t-59.5 -58t-59.5 -54t-47 -36.5h427q39 0 84.5 1t93.5 2t93.5 3.5t82.5 6.5q9 19 15.5 42t6.5 44q0 50 -27.5 99.5t-71.5 88.5t-96.5 64.5t-100.5 25.5zM1293 155q30 16 63.5 42.5t69 59
t71.5 67t70 68.5q73 69 133.5 121.5t118.5 86.5t115.5 52t123.5 18q64 0 127 -35.5t113.5 -90.5t82 -122.5t31.5 -128.5v-33q0 -16 11.5 -33.5t34 -33t54 -27t72.5 -11.5h90q20 0 27.5 -9t7.5 -21v-91q0 -34 -35 -34h-55q-39 0 -78 11.5t-71.5 34.5t-56 57.5t-29.5 79.5
q-9 -43 -23 -87t-29 -83q-115 -8 -224.5 -10.5t-238.5 -2.5h-619q-54 0 -107 18.5t-98 89.5q-11 -138 -61.5 -237t-127 -163t-172 -94t-197.5 -30q-117 0 -208.5 34.5t-153 93t-93.5 137t-32 166.5q0 78 21.5 154.5t62.5 154.5l119 -66q-30 -68 -41 -115.5t-11 -105.5
q0 -73 27 -129.5t74 -97t109.5 -61t135.5 -20.5q126 0 205.5 35t124 86t60.5 109.5t16 107.5q0 45 -12 88t-29.5 84t-39 77.5t-40.5 66.5l162 69q28 -69 51.5 -124.5t49.5 -93.5t56.5 -58.5t73.5 -20.5h118zM2003 -321l-115 -114l-91 93l-95 -93l-114 114l114 116l95 -94
l91 94z" />
    <glyph glyph-name="uni069E.init" unicode="&#x69e;" horiz-adv-x="1756" 
d="M1197 532q-37 0 -77 -18.5t-79.5 -46t-74.5 -59t-60 -55.5q-21 -20 -49.5 -48.5t-59.5 -58t-60.5 -55t-48.5 -36.5h433q30 0 73.5 1t92.5 2t97 3.5t87 6.5q10 21 16.5 40.5t6.5 45.5q0 58 -28.5 108.5t-73 87.5t-96.5 59.5t-99 22.5zM517 155q57 34 130 101.5t142 135.5
q73 69 133.5 121.5t118.5 86.5t115.5 52t123.5 18q63 0 126 -36.5t114 -91.5t82.5 -119.5t31.5 -121.5q0 -10 -0.5 -19.5t-2.5 -18.5q-16 -65 -34.5 -126.5t-42.5 -123.5q-117 -4 -224.5 -8.5t-236.5 -4.5h-644q-34 0 -69.5 7.5t-65 25t-50 49.5t-25.5 80
q-38 -91 -76 -126.5t-87 -35.5h-102q-21 0 -28.5 9t-7.5 21v91q0 34 36 34h96q60 0 95.5 16t41.5 55l32 207l143 44l-41 -180q-2 -10 -3 -17.5t-1 -10.5q0 -66 39 -90t98 -24h43zM1052 1177l116 114l114 -114l-114 -116zM957 979l116 114l91 -93l96 93l114 -114l-114 -115
l-96 93l-91 -93z" />
    <glyph glyph-name="uni069E.medi" unicode="&#x69e;" horiz-adv-x="1860" 
d="M1199 532q-37 0 -77.5 -18.5t-79.5 -46t-74 -59t-60 -55.5q-21 -20 -49.5 -49.5t-59.5 -58t-59 -54t-47 -36.5h424q37 0 84 1t95.5 2t94.5 3.5t83 6.5q9 19 15.5 42t6.5 44q0 50 -26 99.5t-69 89.5t-96 64.5t-106 24.5zM518 155q29 16 61 42.5t68.5 58t73 67t70.5 69.5
q73 69 133.5 121.5t118 86.5t115.5 52t124 18q63 0 125 -35.5t113 -91.5t82 -123t31 -129v-35q0 -34 45.5 -67.5t127.5 -33.5h91q21 0 28 -9t7 -21v-91q0 -34 -35 -34h-54q-39 0 -78.5 11.5t-71 34.5t-53 57.5t-27.5 79.5q-14 -45 -29 -88t-30 -82q-112 -8 -214 -10.5
t-229 -2.5h-662q-35 0 -71 7.5t-65.5 25t-49 49.5t-23.5 80q-39 -91 -76 -126.5t-86 -35.5h-104q-21 0 -28.5 9t-7.5 21v91q0 34 36 34h98q60 0 94.5 16t40.5 55l32 207l143 44l-41 -180q-2 -10 -3 -17.5t-1 -10.5q0 -64 38.5 -89t98.5 -25h44zM1052 1177l116 114l114 -114
l-114 -116zM957 979l116 114l91 -93l96 93l114 -114l-114 -115l-96 93l-91 -93z" />
    <glyph glyph-name="uni069E.fina" unicode="&#x69e;" horiz-adv-x="2637" 
d="M1976 532q-37 0 -77 -18.5t-79.5 -46t-75 -59t-60.5 -55.5q-20 -20 -49 -49.5t-59.5 -58t-59.5 -54t-47 -36.5h427q39 0 84.5 1t93.5 2t93.5 3.5t82.5 6.5q9 19 15.5 42t6.5 44q0 50 -27.5 99.5t-71.5 88.5t-96.5 64.5t-100.5 25.5zM1293 155q30 16 63.5 42.5t69 59
t71.5 67t70 68.5q73 69 133.5 121.5t118.5 86.5t115.5 52t123.5 18q64 0 127 -35.5t113.5 -90.5t82 -122.5t31.5 -128.5v-33q0 -16 11.5 -33.5t34 -33t54 -27t72.5 -11.5h90q20 0 27.5 -9t7.5 -21v-91q0 -34 -35 -34h-55q-39 0 -78 11.5t-71.5 34.5t-56 57.5t-29.5 79.5
q-9 -43 -23 -87t-29 -83q-115 -8 -224.5 -10.5t-238.5 -2.5h-619q-54 0 -107 18.5t-98 89.5q-11 -138 -61.5 -237t-127 -163t-172 -94t-197.5 -30q-117 0 -208.5 34.5t-153 93t-93.5 137t-32 166.5q0 78 21.5 154.5t62.5 154.5l119 -66q-30 -68 -41 -115.5t-11 -105.5
q0 -73 27 -129.5t74 -97t109.5 -61t135.5 -20.5q126 0 205.5 35t124 86t60.5 109.5t16 107.5q0 45 -12 88t-29.5 84t-39 77.5t-40.5 66.5l162 69q28 -69 51.5 -124.5t49.5 -93.5t56.5 -58.5t73.5 -20.5h118zM1817 1177l115 114l114 -114l-114 -116zM1721 979l116 114l92 -93
l94 93l114 -114l-114 -115l-94 93l-92 -93z" />
    <glyph glyph-name="uni069F.init" unicode="&#x69f;" horiz-adv-x="1438" 
d="M1151 162q7 11 15.5 40t8.5 52q0 50 -27 100t-69 89.5t-95 64t-106 24.5q-46 0 -116.5 -41t-145.5 -99.5t-147 -124.5t-122 -112h341q146 0 265 1t198 6zM-26 0q-21 0 -28.5 9t-7.5 21v91q0 34 36 34h227v1077h150v-937q72 69 149.5 136t155.5 120.5t154.5 86t149.5 32.5
q62 0 125.5 -35.5t115 -89.5t83.5 -118.5t32 -122.5q0 -22 -5 -41q-16 -62 -35 -125t-40 -125q-117 -8 -225 -10.5t-237 -2.5h-800zM745 1177l116 114l114 -114l-114 -116zM650 979l115 114l92 -93l95 93l114 -114l-114 -115l-95 93l-92 -93z" />
    <glyph glyph-name="uni069F.medi" unicode="&#x69f;" horiz-adv-x="1543" 
d="M1151 162q5 9 14.5 38.5t9.5 53.5q0 50 -27 100t-69 89.5t-95 64t-106 24.5q-48 0 -119 -42t-146.5 -101t-147 -124t-118.5 -110h394q144 0 240.5 1t169.5 6zM-26 0q-21 0 -28.5 9t-7.5 21v91q0 34 36 34h227v1077h150v-937q68 63 144.5 129.5t156 121t157.5 89.5t151 35
q64 0 126.5 -35.5t113 -90.5t82 -120.5t31.5 -124.5v-41q0 -16 11.5 -33.5t33.5 -33t54 -26t75 -10.5h93q21 0 28 -9t7 -21v-91q0 -34 -35 -34h-58q-39 0 -77 12.5t-71 34.5t-55.5 56.5t-29.5 79.5l-53 -170q-117 -6 -255 -9.5t-278 -3.5h-729zM736 1177l116 114l114 -114
l-114 -116zM640 979l116 114l92 -93l95 93l114 -114l-114 -115l-95 93l-92 -93z" />
    <glyph glyph-name="uni069F.fina" unicode="&#x69f;" horiz-adv-x="1665" 
d="M1273 162q5 9 14 39t9 53q0 52 -27.5 102t-71.5 89.5t-96 63t-101 23.5q-46 0 -115.5 -38t-144 -96t-146.5 -123.5t-126 -119.5h447q91 0 188 2t170 5zM1644 0q-40 0 -78 11.5t-68.5 34.5t-53 57t-30.5 78q-15 -41 -28 -83t-28 -85q-117 -6 -255 -9.5t-279 -3.5h-550
q-28 0 -64.5 1t-74.5 3.5t-74 6.5t-61 10v150q43 -5 103.5 -10.5t157.5 -5.5h62v1077h149v-937q69 70 146.5 138.5t157 121t157.5 84t149 31.5q63 0 126 -35.5t113 -90.5t82 -120.5t32 -124.5v-41q0 -16 11 -33.5t33.5 -33t54 -26t74.5 -10.5h94q20 0 27.5 -9t7.5 -21v-91
q0 -34 -35 -34h-58zM851 1177l116 114l113 -114l-113 -116zM756 979l116 114l91 -93l96 93l113 -114l-113 -115l-96 93l-91 -93z" />
    <glyph glyph-name="uni06A0.init" unicode="&#x6a0;" horiz-adv-x="943" 
d="M-26 0q-21 0 -28.5 9t-7.5 21v91q0 34 36 34h285q-56 73 -56 149q0 79 36.5 152.5t94.5 129.5t129.5 90.5t142.5 34.5q37 0 76 -7.5t60 -16.5v-159q-31 13 -71.5 22t-84.5 9q-43 0 -90 -12.5t-85 -37t-62.5 -57t-24.5 -71.5q0 -34 16 -73t45.5 -73t71.5 -57t93 -23h273
v-155h-849zM410 1263l116 114l113 -114l-113 -116zM315 1065l116 114l91 -93l96 93l114 -114l-114 -116l-96 93l-91 -93z" />
    <glyph glyph-name="uni06A0.medi" unicode="&#x6a0;" horiz-adv-x="994" 
d="M727 457q0 24 -10 48.5t-32.5 43.5t-56 30.5t-80.5 11.5q-74 0 -136.5 -29.5t-99.5 -70.5q51 -35 113.5 -87.5t115.5 -132.5q84 46 135 100t51 86zM-26 0q-21 0 -28.5 9t-7.5 21v91q0 34 36 34h151q80 0 154 15t133 49q-18 57 -84 116t-160 107q5 21 13 43t18.5 43.5
t21 39.5t21.5 29q60 60 144 95.5t184 35.5q77 0 132 -19.5t91.5 -53.5t53.5 -76.5t17 -89.5q0 -15 -11.5 -45.5t-39.5 -73t-77.5 -91.5t-124.5 -101q28 -14 58.5 -18.5t62.5 -4.5h298q20 0 28 -9t8 -21v-91q0 -34 -36 -34h-376q-37 0 -88 19.5t-90 75.5q-40 -22 -77 -40
t-79 -30t-92.5 -18.5t-116.5 -6.5h-137zM377 1263l116 114l114 -114l-114 -116zM282 1065l116 114l91 -93l96 93l114 -114l-114 -116l-96 93l-91 -93z" />
    <glyph glyph-name="uni06A0.fina" unicode="&#x6a0;" horiz-adv-x="945" 
d="M687 513q0 25 -10.5 49t-33 42.5t-56 31t-80.5 12.5q-78 0 -137.5 -29.5t-98.5 -71.5q59 -40 119 -99.5t105 -124.5q89 56 140.5 107t51.5 83zM522 -746q-111 0 -207 28.5t-166.5 83.5t-109.5 136.5t-39 185.5q0 92 26 171t75.5 148.5t119.5 131.5t160 122
q-55 86 -113.5 138.5t-140.5 98.5q3 17 12 39t19 45t21 41.5t22 29.5q50 54 140 92t189 38q79 0 133.5 -20.5t90 -54t52.5 -76.5t17 -87q0 -17 -11 -48t-39.5 -71t-77.5 -89.5t-126 -103.5q31 -48 92 -63t179 -15h141q21 0 28.5 -9t7.5 -21v-91q0 -34 -36 -34h-210
q-71 0 -121.5 7.5t-86.5 26t-63.5 47.5t-51.5 74q-165 -84 -247 -189.5t-82 -216.5q0 -89 36.5 -153t93.5 -106t128 -61.5t140 -19.5q76 0 156 11.5t189 62.5l62 -113q-53 -38 -111 -61t-112.5 -35.5t-101.5 -16t-77 -3.5zM400 1263l116 114l114 -114l-114 -116zM304 1065
l116 114l92 -93l95 93l114 -114l-114 -116l-95 93l-92 -93z" />
    <glyph glyph-name="uni06A1.init" unicode="&#x6a1;" 
d="M-26 0q-21 0 -28.5 9t-7.5 21v91q0 34 36 34h494q39 0 91 2.5t100 6.5q18 56 18 131q0 11 -1 24.5t-3 23.5q-65 -42 -126.5 -53.5t-115.5 -11.5q-62 0 -106 15t-72 40t-41.5 58t-13.5 68q0 56 26 121.5t73 121t115.5 92t150.5 36.5q62 0 107.5 -43t75.5 -111.5
t44.5 -154.5t14.5 -172q0 -41 -7 -86.5t-19.5 -90.5t-28.5 -87t-32 -76q-68 -4 -134 -6.5t-119 -2.5h-491zM319 515q0 -61 54 -86.5t138 -25.5q97 0 153 33q-15 130 -65.5 197.5t-110.5 67.5q-37 0 -68.5 -18.5t-54.5 -46t-34.5 -60.5t-11.5 -61z" />
    <glyph glyph-name="uni06A1.medi" unicode="&#x6a1;" horiz-adv-x="946" 
d="M303 293q0 -30 19 -55.5t51.5 -43.5t76.5 -28.5t97 -10.5h21q38 13 69 49.5t31 88.5q0 47 -12.5 86t-31 67t-40 43t-39.5 15q-44 0 -87 -19t-77 -49t-56 -68t-22 -75zM-26 0q-21 0 -28.5 9t-7.5 21v91q0 34 36 34h244q-30 35 -30 76q0 70 35.5 144.5t94 135t134 100
t154.5 39.5q44 0 81.5 -30.5t65 -74t42 -93t14.5 -90.5q0 -22 -9 -51t-23.5 -58t-30 -55.5t-26.5 -42.5h263q20 0 27.5 -9t7.5 -21v-91q0 -34 -35 -34h-58q-118 0 -207 8t-168 24q-108 -19 -241.5 -25.5t-267.5 -6.5h-67z" />
    <glyph glyph-name="uni06A1.fina" unicode="&#x6a1;" horiz-adv-x="1831" 
d="M1181 293q0 -30 18.5 -55.5t51.5 -43.5t76.5 -28.5t96.5 -10.5h22q37 13 68 48.5t31 89.5q0 47 -12 86t-31 67t-40.5 43t-39.5 15q-44 0 -86.5 -19t-77 -49t-56 -68t-21.5 -75zM1802 0q-118 0 -206 7.5t-167 22.5q-76 -17 -169.5 -27t-189.5 -15.5t-191.5 -8t-177.5 -2.5
q-358 0 -529.5 75t-171.5 250q0 51 17 110.5t45 128.5l132 28q-46 -117 -46 -204q0 -68 33.5 -113t104 -71t182 -36.5t267.5 -10.5q71 0 164.5 3t193.5 14q-28 45 -28 80q0 71 35.5 146t94.5 135.5t134.5 99t153.5 38.5q45 0 82.5 -30.5t64.5 -73t41.5 -93t14.5 -91.5
q0 -22 -9 -51t-23 -58t-30 -55.5t-27 -42.5h271q21 0 28 -9t7 -21v-91q0 -34 -35 -34h-66z" />
    <glyph glyph-name="uni06A2.init" unicode="&#x6a2;" 
d="M-26 0q-21 0 -28.5 9t-7.5 21v91q0 34 36 34h494q39 0 91 2.5t100 6.5q18 56 18 131q0 11 -1 24.5t-3 23.5q-65 -42 -126.5 -53.5t-115.5 -11.5q-62 0 -106 15t-72 40t-41.5 58t-13.5 68q0 56 26 121.5t73 121t115.5 92t150.5 36.5q62 0 107.5 -43t75.5 -111.5
t44.5 -154.5t14.5 -172q0 -41 -7 -86.5t-19.5 -90.5t-28.5 -87t-32 -76q-68 -4 -134 -6.5t-119 -2.5h-491zM319 515q0 -61 54 -86.5t138 -25.5q97 0 153 33q-15 130 -65.5 197.5t-110.5 67.5q-37 0 -68.5 -18.5t-54.5 -46t-34.5 -60.5t-11.5 -61zM367 -276l116 114l114 -114
l-114 -116z" />
    <glyph glyph-name="uni06A2.medi" unicode="&#x6a2;" horiz-adv-x="946" 
d="M303 293q0 -30 19 -55.5t51.5 -43.5t76.5 -28.5t97 -10.5h21q38 13 69 49.5t31 88.5q0 47 -12.5 86t-31 67t-40 43t-39.5 15q-44 0 -87 -19t-77 -49t-56 -68t-22 -75zM-26 0q-21 0 -28.5 9t-7.5 21v91q0 34 36 34h244q-30 35 -30 76q0 70 35.5 144.5t94 135t134 100
t154.5 39.5q44 0 81.5 -30.5t65 -74t42 -93t14.5 -90.5q0 -22 -9 -51t-23.5 -58t-30 -55.5t-26.5 -42.5h263q20 0 27.5 -9t7.5 -21v-91q0 -34 -35 -34h-58q-118 0 -207 8t-168 24q-108 -19 -241.5 -25.5t-267.5 -6.5h-67zM370 -276l116 114l113 -114l-113 -116z" />
    <glyph glyph-name="uni06A2.fina" unicode="&#x6a2;" horiz-adv-x="1831" 
d="M1181 293q0 -30 18.5 -55.5t51.5 -43.5t76.5 -28.5t96.5 -10.5h22q37 13 68 48.5t31 89.5q0 47 -12 86t-31 67t-40.5 43t-39.5 15q-44 0 -86.5 -19t-77 -49t-56 -68t-21.5 -75zM1802 0q-118 0 -206 7.5t-167 22.5q-76 -17 -169.5 -27t-189.5 -15.5t-191.5 -8t-177.5 -2.5
q-358 0 -529.5 75t-171.5 250q0 51 17 110.5t45 128.5l132 28q-46 -117 -46 -204q0 -68 33.5 -113t104 -71t182 -36.5t267.5 -10.5q71 0 164.5 3t193.5 14q-28 45 -28 80q0 71 35.5 146t94.5 135.5t134.5 99t153.5 38.5q45 0 82.5 -30.5t64.5 -73t41.5 -93t14.5 -91.5
q0 -22 -9 -51t-23 -58t-30 -55.5t-27 -42.5h271q21 0 28 -9t7 -21v-91q0 -34 -35 -34h-66zM1260 -276l116 114l114 -114l-114 -116z" />
    <glyph glyph-name="uni06A3.init" unicode="&#x6a3;" 
d="M356 1067l116 114l114 -114l-114 -116zM-26 0q-21 0 -28.5 9t-7.5 21v91q0 34 36 34h494q39 0 91 2.5t100 6.5q18 56 18 131q0 11 -1 24.5t-3 23.5q-65 -42 -126.5 -53.5t-115.5 -11.5q-62 0 -106 15t-72 40t-41.5 58t-13.5 68q0 56 26 121.5t73 121t115.5 92t150.5 36.5
q62 0 107.5 -43t75.5 -111.5t44.5 -154.5t14.5 -172q0 -41 -7 -86.5t-19.5 -90.5t-28.5 -87t-32 -76q-68 -4 -134 -6.5t-119 -2.5h-491zM319 515q0 -61 54 -86.5t138 -25.5q97 0 153 33q-15 130 -65.5 197.5t-110.5 67.5q-37 0 -68.5 -18.5t-54.5 -46t-34.5 -60.5t-11.5 -61
zM367 -276l116 114l114 -114l-114 -116z" />
    <glyph glyph-name="uni06A3.medi" unicode="&#x6a3;" horiz-adv-x="946" 
d="M406 968l116 114l114 -114l-114 -115zM303 293q0 -30 19 -55.5t51.5 -43.5t76.5 -28.5t97 -10.5h21q38 13 69 49.5t31 88.5q0 47 -12.5 86t-31 67t-40 43t-39.5 15q-44 0 -87 -19t-77 -49t-56 -68t-22 -75zM-26 0q-21 0 -28.5 9t-7.5 21v91q0 34 36 34h244q-30 35 -30 76
q0 70 35.5 144.5t94 135t134 100t154.5 39.5q44 0 81.5 -30.5t65 -74t42 -93t14.5 -90.5q0 -22 -9 -51t-23.5 -58t-30 -55.5t-26.5 -42.5h263q20 0 27.5 -9t7.5 -21v-91q0 -34 -35 -34h-58q-118 0 -207 8t-168 24q-108 -19 -241.5 -25.5t-267.5 -6.5h-67zM394 -276l116 114
l114 -114l-114 -116z" />
    <glyph glyph-name="uni06A3.fina" unicode="&#x6a3;" horiz-adv-x="1831" 
d="M1181 293q0 -30 18.5 -55.5t51.5 -43.5t76.5 -28.5t96.5 -10.5h22q37 13 68 48.5t31 89.5q0 47 -12 86t-31 67t-40.5 43t-39.5 15q-44 0 -86.5 -19t-77 -49t-56 -68t-21.5 -75zM1802 0q-118 0 -206 7.5t-167 22.5q-76 -17 -169.5 -27t-189.5 -15.5t-191.5 -8t-177.5 -2.5
q-358 0 -529.5 75t-171.5 250q0 51 17 110.5t45 128.5l132 28q-46 -117 -46 -204q0 -68 33.5 -113t104 -71t182 -36.5t267.5 -10.5q71 0 164.5 3t193.5 14q-28 45 -28 80q0 71 35.5 146t94.5 135.5t134.5 99t153.5 38.5q45 0 82.5 -30.5t64.5 -73t41.5 -93t14.5 -91.5
q0 -22 -9 -51t-23 -58t-30 -55.5t-27 -42.5h271q21 0 28 -9t7 -21v-91q0 -34 -35 -34h-66zM1261 967l116 113l113 -113l-113 -116zM640 -276l116 114l114 -114l-114 -116z" />
    <glyph glyph-name="uni06A5.init" unicode="&#x6a5;" 
d="M-26 0q-21 0 -28.5 9t-7.5 21v91q0 34 36 34h494q39 0 91 2.5t100 6.5q18 56 18 131q0 11 -1 24.5t-3 23.5q-65 -42 -126.5 -53.5t-115.5 -11.5q-62 0 -106 15t-72 40t-41.5 58t-13.5 68q0 56 26 121.5t73 121t115.5 92t150.5 36.5q62 0 107.5 -43t75.5 -111.5
t44.5 -154.5t14.5 -172q0 -41 -7 -86.5t-19.5 -90.5t-28.5 -87t-32 -76q-68 -4 -134 -6.5t-119 -2.5h-491zM319 515q0 -61 54 -86.5t138 -25.5q97 0 153 33q-15 130 -65.5 197.5t-110.5 67.5q-37 0 -68.5 -18.5t-54.5 -46t-34.5 -60.5t-11.5 -61zM595 -528l-116 -114
l-114 114l114 115zM691 -330l-116 -114l-92 93l-95 -93l-114 114l114 115l95 -93l92 93z" />
    <glyph glyph-name="uni06A5.medi" unicode="&#x6a5;" horiz-adv-x="946" 
d="M303 293q0 -30 19 -55.5t51.5 -43.5t76.5 -28.5t97 -10.5h21q38 13 69 49.5t31 88.5q0 47 -12.5 86t-31 67t-40 43t-39.5 15q-44 0 -87 -19t-77 -49t-56 -68t-22 -75zM-26 0q-21 0 -28.5 9t-7.5 21v91q0 34 36 34h244q-30 35 -30 76q0 70 35.5 144.5t94 135t134 100
t154.5 39.5q44 0 81.5 -30.5t65 -74t42 -93t14.5 -90.5q0 -22 -9 -51t-23.5 -58t-30 -55.5t-26.5 -42.5h263q20 0 27.5 -9t7.5 -21v-91q0 -34 -35 -34h-58q-118 0 -207 8t-168 24q-108 -19 -241.5 -25.5t-267.5 -6.5h-67zM598 -528l-116 -114l-114 114l114 115zM693 -330
l-115 -114l-92 93l-95 -93l-114 114l114 115l95 -93l92 93z" />
    <glyph glyph-name="uni06A5.fina" unicode="&#x6a5;" horiz-adv-x="1831" 
d="M1181 293q0 -30 18.5 -55.5t51.5 -43.5t76.5 -28.5t96.5 -10.5h22q37 13 68 48.5t31 89.5q0 47 -12 86t-31 67t-40.5 43t-39.5 15q-44 0 -86.5 -19t-77 -49t-56 -68t-21.5 -75zM1802 0q-118 0 -206 7.5t-167 22.5q-76 -17 -169.5 -27t-189.5 -15.5t-191.5 -8t-177.5 -2.5
q-358 0 -529.5 75t-171.5 250q0 51 17 110.5t45 128.5l132 28q-46 -117 -46 -204q0 -68 33.5 -113t104 -71t182 -36.5t267.5 -10.5q71 0 164.5 3t193.5 14q-28 45 -28 80q0 71 35.5 146t94.5 135.5t134.5 99t153.5 38.5q45 0 82.5 -30.5t64.5 -73t41.5 -93t14.5 -91.5
q0 -22 -9 -51t-23 -58t-30 -55.5t-27 -42.5h271q21 0 28 -9t7 -21v-91q0 -34 -35 -34h-66zM1488 -528l-116 -114l-114 114l114 115zM1583 -330l-115 -114l-92 93l-95 -93l-114 114l114 115l95 -93l92 93z" />
    <glyph glyph-name="uni06A7.init" unicode="&#x6a7;" 
d="M356 1067l116 114l114 -114l-114 -116zM-26 0q-21 0 -28.5 9t-7.5 21v91q0 34 36 34h494q39 0 91 2.5t100 6.5q18 56 18 131q0 11 -1 24.5t-3 23.5q-65 -42 -126.5 -53.5t-115.5 -11.5q-62 0 -106 15t-72 40t-41.5 58t-13.5 68q0 56 26 121.5t73 121t115.5 92t150.5 36.5
q62 0 107.5 -43t75.5 -111.5t44.5 -154.5t14.5 -172q0 -41 -7 -86.5t-19.5 -90.5t-28.5 -87t-32 -76q-68 -4 -134 -6.5t-119 -2.5h-491zM319 515q0 -61 54 -86.5t138 -25.5q97 0 153 33q-15 130 -65.5 197.5t-110.5 67.5q-37 0 -68.5 -18.5t-54.5 -46t-34.5 -60.5t-11.5 -61
z" />
    <glyph glyph-name="uni06A7.medi" unicode="&#x6a7;" horiz-adv-x="946" 
d="M406 968l116 114l114 -114l-114 -115zM303 293q0 -30 19 -55.5t51.5 -43.5t76.5 -28.5t97 -10.5h21q38 13 69 49.5t31 88.5q0 47 -12.5 86t-31 67t-40 43t-39.5 15q-44 0 -87 -19t-77 -49t-56 -68t-22 -75zM-26 0q-21 0 -28.5 9t-7.5 21v91q0 34 36 34h244q-30 35 -30 76
q0 70 35.5 144.5t94 135t134 100t154.5 39.5q44 0 81.5 -30.5t65 -74t42 -93t14.5 -90.5q0 -22 -9 -51t-23.5 -58t-30 -55.5t-26.5 -42.5h263q20 0 27.5 -9t7.5 -21v-91q0 -34 -35 -34h-58q-118 0 -207 8t-168 24q-108 -19 -241.5 -25.5t-267.5 -6.5h-67z" />
    <glyph glyph-name="uni06A7.fina" unicode="&#x6a7;" horiz-adv-x="1411" 
d="M760 287q0 -70 47.5 -101t116.5 -31h185q-3 146 -54 230.5t-126 84.5q-37 0 -68 -18.5t-53.5 -46.5t-35 -60t-12.5 -58zM1250 0q-6 -107 -50.5 -208.5t-130.5 -179.5t-213.5 -125.5t-299.5 -47.5q-147 0 -252.5 35t-172.5 97t-99 144t-32 175q0 95 27 190.5t78 186.5
l114 -67q-32 -72 -51 -143.5t-19 -136.5q0 -71 23.5 -131.5t75 -105.5t133.5 -70.5t199 -25.5q141 0 240.5 28.5t164 81.5t95.5 129.5t31 173.5h-195q-92 0 -147 25t-84.5 60.5t-39 75t-9.5 67.5q0 57 27.5 122.5t76.5 121.5t117.5 93.5t151.5 37.5q58 0 102 -40.5
t74.5 -104.5t47.5 -143.5t21 -159.5h194q21 0 28 -9t7 -21v-91q0 -34 -35 -34h-198zM830 952l116 114l114 -114l-114 -116z" />
    <glyph glyph-name="uni06A8.init" unicode="&#x6a8;" 
d="M395 1269l116 114l114 -114l-114 -116zM300 1071l115 113l92 -93l95 93l114 -113l-114 -115l-95 93l-92 -93zM-26 0q-21 0 -28.5 9t-7.5 21v91q0 34 36 34h494q39 0 91 2.5t100 6.5q18 56 18 131q0 11 -1 24.5t-3 23.5q-65 -42 -126.5 -53.5t-115.5 -11.5q-62 0 -106 15
t-72 40t-41.5 58t-13.5 68q0 56 26 121.5t73 121t115.5 92t150.5 36.5q62 0 107.5 -43t75.5 -111.5t44.5 -154.5t14.5 -172q0 -41 -7 -86.5t-19.5 -90.5t-28.5 -87t-32 -76q-68 -4 -134 -6.5t-119 -2.5h-491zM319 515q0 -61 54 -86.5t138 -25.5q97 0 153 33
q-15 130 -65.5 197.5t-110.5 67.5q-37 0 -68.5 -18.5t-54.5 -46t-34.5 -60.5t-11.5 -61z" />
    <glyph glyph-name="uni06A8.medi" unicode="&#x6a8;" horiz-adv-x="946" 
d="M404 1172l116 113l114 -113l-114 -116zM310 974l115 114l92 -93l94 93l114 -114l-114 -116l-94 93l-92 -93zM303 293q0 -30 19 -55.5t51.5 -43.5t76.5 -28.5t97 -10.5h21q38 13 69 49.5t31 88.5q0 47 -12.5 86t-31 67t-40 43t-39.5 15q-44 0 -87 -19t-77 -49t-56 -68
t-22 -75zM-26 0q-21 0 -28.5 9t-7.5 21v91q0 34 36 34h244q-30 35 -30 76q0 70 35.5 144.5t94 135t134 100t154.5 39.5q44 0 81.5 -30.5t65 -74t42 -93t14.5 -90.5q0 -22 -9 -51t-23.5 -58t-30 -55.5t-26.5 -42.5h263q20 0 27.5 -9t7.5 -21v-91q0 -34 -35 -34h-58
q-118 0 -207 8t-168 24q-108 -19 -241.5 -25.5t-267.5 -6.5h-67z" />
    <glyph glyph-name="uni06A8.fina" unicode="&#x6a8;" horiz-adv-x="1411" 
d="M760 287q0 -70 47.5 -101t116.5 -31h185q-3 146 -54 230.5t-126 84.5q-37 0 -68 -18.5t-53.5 -46.5t-35 -60t-12.5 -58zM1250 0q-6 -107 -50.5 -208.5t-130.5 -179.5t-213.5 -125.5t-299.5 -47.5q-147 0 -252.5 35t-172.5 97t-99 144t-32 175q0 95 27 190.5t78 186.5
l114 -67q-32 -72 -51 -143.5t-19 -136.5q0 -71 23.5 -131.5t75 -105.5t133.5 -70.5t199 -25.5q141 0 240.5 28.5t164 81.5t95.5 129.5t31 173.5h-195q-92 0 -147 25t-84.5 60.5t-39 75t-9.5 67.5q0 57 27.5 122.5t76.5 121.5t117.5 93.5t151.5 37.5q58 0 102 -40.5
t74.5 -104.5t47.5 -143.5t21 -159.5h194q21 0 28 -9t7 -21v-91q0 -34 -35 -34h-198zM735 963l116 114l91 -94l96 94l114 -114l-114 -116l-96 93l-91 -93zM830 1160l116 114l114 -114l-114 -116z" />
    <glyph glyph-name="uni06AA.init" unicode="&#x6aa;" horiz-adv-x="954" 
d="M-26 0q-21 0 -28.5 9t-7.5 21v91q0 34 36 34h676q6 13 6 30q0 41 -31.5 93t-100 119.5t-175.5 152t-256 189.5q5 44 23 88t32 56l684 300v-140l-549 -242q127 -105 218.5 -186t150.5 -148.5t86.5 -125.5t27.5 -115q0 -55 -21.5 -107.5t-60.5 -118.5h-710z" />
    <glyph glyph-name="uni06AA.medi" unicode="&#x6aa;" horiz-adv-x="954" 
d="M-26 0q-21 0 -28.5 9t-7.5 21v91q0 34 36 34h649q18 0 27 13t9 32q0 72 -136.5 204t-427.5 335q2 23 8 47t15 44.5t18 34.5t17 18l681 300v-140l-549 -242q91 -75 162 -136.5t124.5 -114t93.5 -99.5t69 -91q59 -91 108.5 -148t80.5 -57h71q21 0 26.5 -9t5.5 -21v-91
q0 -34 -36 -34h-65q-60 0 -111.5 31t-97.5 109q-46 -78 -104 -109t-120 -31h-518z" />
    <glyph glyph-name="uni06AA.fina" unicode="&#x6aa;" horiz-adv-x="1803" 
d="M1771 0q-30 0 -55.5 6.5t-48.5 22.5t-48.5 43t-56.5 68q-24 -51 -70 -84t-140.5 -52.5t-250 -27.5t-400.5 -8q-348 0 -524.5 75.5t-176.5 249.5q0 26 6.5 58t14.5 55l136 30q-4 -23 -6.5 -42.5t-2.5 -37.5q0 -69 33.5 -113.5t104 -70.5t182 -36.5t267.5 -10.5
q181 0 308 1.5t213 6t135 10t74 13.5t32 19.5t7 24.5q0 72 -136 204t-428 335q2 23 9 47t15 44.5t17 34.5t17 18l681 300v-140l-548 -242q91 -75 162 -136.5t124 -114t93.5 -99.5t70.5 -91q57 -91 109.5 -148t100.5 -57h48q21 0 28.5 -9t7.5 -21v-91q0 -34 -36 -34h-68z" />
    <glyph glyph-name="uni06AB.init" unicode="&#x6ab;" horiz-adv-x="961" 
d="M-26 0q-21 0 -28.5 9t-7.5 21v91q0 34 36 34h676q6 13 6 30q0 41 -31.5 93t-100 119.5t-175.5 152t-256 189.5q5 44 23 88t32 56l684 300v-140l-549 -242q127 -105 218.5 -186t150.5 -148.5t86.5 -125.5t27.5 -115q0 -55 -21.5 -107.5t-60.5 -118.5h-710zM98 951
q2 53 19 98.5t41 56.5l681 301v-140z" />
    <glyph glyph-name="uni06AB.medi" unicode="&#x6ab;" horiz-adv-x="954" 
d="M-26 0q-21 0 -28.5 9t-7.5 21v91q0 34 36 34h649q18 0 27 13t9 32q0 72 -136.5 204t-427.5 335q2 23 8 47t15 44.5t18 34.5t17 18l681 300v-140l-549 -242q91 -75 162 -136.5t124.5 -114t93.5 -99.5t69 -91q59 -91 108.5 -148t80.5 -57h71q21 0 26.5 -9t5.5 -21v-91
q0 -34 -36 -34h-65q-60 0 -111.5 31t-97.5 109q-46 -78 -104 -109t-120 -31h-518zM100 951q2 53 19 98.5t41 56.5l681 301v-140z" />
    <glyph glyph-name="uni06AB.fina" unicode="&#x6ab;" horiz-adv-x="1803" 
d="M1771 0q-30 0 -55.5 6.5t-48.5 22.5t-48.5 43t-56.5 68q-24 -51 -70 -84t-140.5 -52.5t-250 -27.5t-400.5 -8q-348 0 -524.5 75.5t-176.5 249.5q0 26 6.5 58t14.5 55l136 30q-4 -23 -6.5 -42.5t-2.5 -37.5q0 -69 33.5 -113.5t104 -70.5t182 -36.5t267.5 -10.5
q181 0 308 1.5t213 6t135 10t74 13.5t32 19.5t7 24.5q0 72 -136 204t-428 335q2 23 9 47t15 44.5t17 34.5t17 18l681 300v-140l-548 -242q91 -75 162 -136.5t124 -114t93.5 -99.5t70.5 -91q57 -91 109.5 -148t100.5 -57h48q21 0 28.5 -9t7.5 -21v-91q0 -34 -36 -34h-68z
M938 951q2 53 19 98.5t41 56.5l681 301v-140z" />
    <glyph glyph-name="uni06AC.init" unicode="&#x6ac;" horiz-adv-x="954" 
d="M-26 0q-21 0 -28.5 9t-7.5 21v91q0 34 36 34h676q6 13 6 30q0 41 -31.5 93t-100 119.5t-175.5 152t-256 189.5q5 44 23 88t32 56l684 300v-140l-549 -242q127 -105 218.5 -186t150.5 -148.5t86.5 -125.5t27.5 -115q0 -55 -21.5 -107.5t-60.5 -118.5h-710zM88 1212
l116 114l113 -114l-113 -116z" />
    <glyph glyph-name="uni06AC.medi" unicode="&#x6ac;" horiz-adv-x="934" 
d="M-26 0q-21 0 -28.5 9t-7.5 21v91q0 34 36 34h649q18 0 27 13t9 32q0 72 -136.5 204t-427.5 335q2 23 8 47t15 44.5t18 34.5t17 18l681 300v-140l-549 -242q91 -75 162 -136.5t124.5 -114t93.5 -99.5t69 -91q59 -91 108.5 -148t80.5 -57h51q21 0 26.5 -9t5.5 -21v-91
q0 -34 -36 -34h-45q-60 0 -111.5 31t-97.5 109q-46 -78 -104 -109t-120 -31h-518zM94 1214l115 114l114 -114l-114 -115z" />
    <glyph glyph-name="uni06AC.fina" unicode="&#x6ac;" horiz-adv-x="1719" 
d="M629 515q21 12 61 33t70 29v7q-89 48 -89 127q0 39 20 79t51 72t69 51.5t77 19.5q20 0 40.5 -3t34.5 -10v-97q-19 7 -39.5 13t-44.5 6q-26 0 -50.5 -9t-42 -21.5t-29 -28.5t-11.5 -33q0 -49 34.5 -87t88.5 -38q28 0 81.5 13t98.5 26l-17 -98q-54 -10 -99 -20t-87 -26
t-85 -39.5t-93 -58.5zM1711 0q-48 0 -87.5 18.5t-69.5 47.5t-48.5 65.5t-25.5 69.5q-43 -82 -108.5 -126.5t-159.5 -66t-221 -25.5t-291 -4q-349 0 -524.5 75.5t-175.5 249.5q0 50 16 109t44 130l132 30q-23 -64 -33.5 -113t-10.5 -93q0 -68 33.5 -113t104 -71t182 -36
t265.5 -10q183 0 307 8t200.5 32t109.5 68t33 115v874h148v-859q0 -58 8 -100t28.5 -68t55 -39t90.5 -13h43q21 0 28 -9t7 -21v-91q0 -34 -35 -34h-45zM1336 1487l115 114l114 -114l-114 -116z" />
    <glyph glyph-name="uni06AE.init" unicode="&#x6ae;" horiz-adv-x="954" 
d="M-26 0q-21 0 -28.5 9t-7.5 21v91q0 34 36 34h676q6 13 6 30q0 41 -31.5 93t-100 119.5t-175.5 152t-256 189.5q5 44 23 88t32 56l684 300v-140l-549 -242q127 -105 218.5 -186t150.5 -148.5t86.5 -125.5t27.5 -115q0 -55 -21.5 -107.5t-60.5 -118.5h-710zM467 -528
l-115 -114l-114 114l114 115zM563 -330l-116 -114l-92 93l-94 -93l-114 114l114 115l94 -93l92 93z" />
    <glyph glyph-name="uni06AE.medi" unicode="&#x6ae;" horiz-adv-x="934" 
d="M-26 0q-21 0 -28.5 9t-7.5 21v91q0 34 36 34h649q18 0 27 13t9 32q0 72 -136.5 204t-427.5 335q2 23 8 47t15 44.5t18 34.5t17 18l681 300v-140l-549 -242q91 -75 162 -136.5t124.5 -114t93.5 -99.5t69 -91q59 -91 108.5 -148t80.5 -57h51q21 0 26.5 -9t5.5 -21v-91
q0 -34 -36 -34h-45q-60 0 -111.5 31t-97.5 109q-46 -78 -104 -109t-120 -31h-518zM464 -528l-116 -114l-114 114l114 115zM559 -330l-115 -114l-92 93l-95 -93l-114 114l114 115l95 -93l92 93z" />
    <glyph glyph-name="uni06AE.fina" unicode="&#x6ae;" horiz-adv-x="1719" 
d="M629 515q21 12 61 33t70 29v7q-89 48 -89 127q0 39 20 79t51 72t69 51.5t77 19.5q20 0 40.5 -3t34.5 -10v-97q-19 7 -39.5 13t-44.5 6q-26 0 -50.5 -9t-42 -21.5t-29 -28.5t-11.5 -33q0 -49 34.5 -87t88.5 -38q28 0 81.5 13t98.5 26l-17 -98q-54 -10 -99 -20t-87 -26
t-85 -39.5t-93 -58.5zM1711 0q-48 0 -87.5 18.5t-69.5 47.5t-48.5 65.5t-25.5 69.5q-43 -82 -108.5 -126.5t-159.5 -66t-221 -25.5t-291 -4q-349 0 -524.5 75.5t-175.5 249.5q0 50 16 109t44 130l132 30q-23 -64 -33.5 -113t-10.5 -93q0 -68 33.5 -113t104 -71t182 -36
t265.5 -10q183 0 307 8t200.5 32t109.5 68t33 115v874h148v-859q0 -58 8 -100t28.5 -68t55 -39t90.5 -13h43q21 0 28 -9t7 -21v-91q0 -34 -35 -34h-45zM959 -528l-115 -114l-114 114l114 115zM1055 -330l-116 -114l-92 93l-94 -93l-114 114l114 115l94 -93l92 93z" />
    <glyph glyph-name="uni06B0.init" unicode="&#x6b0;" horiz-adv-x="961" 
d="M98 951q2 53 19 98.5t41 56.5l681 301v-140zM501 896l-218 -95q127 -105 218.5 -186t150.5 -148.5t86.5 -125.5t27.5 -115q0 -55 -21.5 -107.5t-60.5 -118.5h-710q-21 0 -28.5 9t-7.5 21v91q0 34 36 34h676q6 13 6 30q0 41 -31.5 93t-100 119.5t-175.5 152t-256 189.5
q5 44 23 88t32 56l684 300v-140l-114 -50q18 -15 32 -36q18 -27 28.5 -60.5t10.5 -67.5q0 -27 -18.5 -53.5t-48.5 -47.5t-65.5 -34t-69.5 -13q-25 0 -47.5 6t-39.5 19.5t-27 33.5t-10 48q0 19 8 44.5t22 51.5q3 6 8 12zM619 949l-29 -12l-2 -2q-16 -15 -28.5 -37
t-20.5 -47.5t-8 -47.5q0 -24 22 -35t52 -11q19 0 39.5 3t37.5 9.5t28 16t11 22.5q0 22 -7 46.5t-20.5 45.5t-32.5 35t-41 14h-1z" />
    <glyph glyph-name="uni06B0.medi" unicode="&#x6b0;" horiz-adv-x="954" 
d="M100 951q2 53 19 98.5t41 56.5l681 301v-140zM503 897l-218 -96q91 -75 162 -136.5t124.5 -114t93.5 -99.5t69 -91q59 -91 108.5 -148t80.5 -57h71q21 0 26.5 -9t5.5 -21v-91q0 -34 -36 -34h-65q-60 0 -111.5 31t-97.5 109q-46 -78 -104 -109t-120 -31h-518
q-21 0 -28.5 9t-7.5 21v91q0 34 36 34h649q18 0 27 13t9 32q0 72 -136.5 204t-427.5 335q2 23 8 47t15 44.5t18 34.5t17 18l681 300v-140l-119 -52q20 -15 35 -37q18 -27 28.5 -61t10.5 -68q0 -27 -18.5 -53.5t-48.5 -47.5t-65.5 -33.5t-69.5 -12.5q-25 0 -47.5 6t-39.5 19
t-27 33t-10 48q0 20 8 45.5t22 50.5q4 8 10 17zM607 943l-3 -1q-7 -4 -16 -11q-16 -15 -28.5 -36.5t-20.5 -47t-8 -48.5q0 -24 22 -35t52 -11q19 0 39.5 3t37.5 10t28 16.5t11 21.5q0 22 -7 47t-20.5 45.5t-32.5 35t-41 14.5q-7 0 -13 -3z" />
    <glyph glyph-name="uni06B0.fina" unicode="&#x6b0;" horiz-adv-x="1803" 
d="M938 951q2 53 19 98.5t41 56.5l681 301v-140zM1354 899l-223 -98q91 -75 162 -136.5t124 -114t93.5 -99.5t70.5 -91q57 -91 109.5 -148t100.5 -57h48q21 0 28.5 -9t7.5 -21v-91q0 -34 -36 -34h-68q-30 0 -55.5 6.5t-48.5 22.5t-48.5 43t-56.5 68q-24 -51 -70 -84
t-140.5 -52.5t-250 -27.5t-400.5 -8q-348 0 -524.5 75.5t-176.5 249.5q0 26 6.5 58t14.5 55l136 30q-4 -23 -6.5 -42.5t-2.5 -37.5q0 -69 33.5 -113.5t104 -70.5t182 -36.5t267.5 -10.5q181 0 308 1.5t213 6t135 10t74 13.5t32 19.5t7 24.5q0 72 -136 204t-428 335
q2 23 9 47t15 44.5t17 34.5t17 18l681 300v-140l-111 -49q19 -16 34 -37q18 -27 28.5 -60.5t10.5 -67.5q0 -27 -19 -53.5t-48.5 -47.5t-65 -34t-69.5 -13q-25 0 -47.5 6t-39.5 19.5t-27 33.5t-10 48q0 19 8 44.5t22 51.5q4 8 9 15zM1465 948l-16 -6q-4 -4 -9 -7
q-16 -15 -29 -37t-20.5 -47.5t-7.5 -47.5q0 -24 22 -35t52 -11q19 0 39.5 3t37.5 9.5t28 16t11 22.5q0 22 -7 46.5t-21 45.5t-32.5 35t-40.5 14q-3 0 -7 -1z" />
    <glyph glyph-name="uni06B2.init" unicode="&#x6b2;" horiz-adv-x="961" 
d="M-26 0q-21 0 -28.5 9t-7.5 21v91q0 34 36 34h676q6 13 6 30q0 41 -31.5 93t-100 119.5t-175.5 152t-256 189.5q5 44 23 88t32 56l684 300v-140l-549 -242q127 -105 218.5 -186t150.5 -148.5t86.5 -125.5t27.5 -115q0 -55 -21.5 -107.5t-60.5 -118.5h-710zM98 951
q2 53 19 98.5t41 56.5l681 301v-140zM563 -330l-116 -114l-92 93l-94 -93l-114 114l114 115l94 -93l92 93z" />
    <glyph glyph-name="uni06B2.medi" unicode="&#x6b2;" horiz-adv-x="954" 
d="M-26 0q-21 0 -28.5 9t-7.5 21v91q0 34 36 34h649q18 0 27 13t9 32q0 72 -136.5 204t-427.5 335q2 23 8 47t15 44.5t18 34.5t17 18l681 300v-140l-549 -242q91 -75 162 -136.5t124.5 -114t93.5 -99.5t69 -91q59 -91 108.5 -148t80.5 -57h71q21 0 26.5 -9t5.5 -21v-91
q0 -34 -36 -34h-65q-60 0 -111.5 31t-97.5 109q-46 -78 -104 -109t-120 -31h-518zM100 951q2 53 19 98.5t41 56.5l681 301v-140zM559 -330l-115 -114l-92 93l-95 -93l-114 114l114 115l95 -93l92 93z" />
    <glyph glyph-name="uni06B2.fina" unicode="&#x6b2;" horiz-adv-x="1803" 
d="M1771 0q-30 0 -55.5 6.5t-48.5 22.5t-48.5 43t-56.5 68q-24 -51 -70 -84t-140.5 -52.5t-250 -27.5t-400.5 -8q-348 0 -524.5 75.5t-176.5 249.5q0 26 6.5 58t14.5 55l136 30q-4 -23 -6.5 -42.5t-2.5 -37.5q0 -69 33.5 -113.5t104 -70.5t182 -36.5t267.5 -10.5
q181 0 308 1.5t213 6t135 10t74 13.5t32 19.5t7 24.5q0 72 -136 204t-428 335q2 23 9 47t15 44.5t17 34.5t17 18l681 300v-140l-548 -242q91 -75 162 -136.5t124 -114t93.5 -99.5t70.5 -91q57 -91 109.5 -148t100.5 -57h48q21 0 28.5 -9t7.5 -21v-91q0 -34 -36 -34h-68z
M938 951q2 53 19 98.5t41 56.5l681 301v-140zM1059 -330l-116 -114l-92 93l-95 -93l-114 114l114 115l95 -93l92 93z" />
    <glyph glyph-name="uni06B4.init" unicode="&#x6b4;" horiz-adv-x="961" 
d="M-26 0q-21 0 -28.5 9t-7.5 21v91q0 34 36 34h676q6 13 6 30q0 41 -31.5 93t-100 119.5t-175.5 152t-256 189.5q5 44 23 88t32 56l684 300v-140l-549 -242q127 -105 218.5 -186t150.5 -148.5t86.5 -125.5t27.5 -115q0 -55 -21.5 -107.5t-60.5 -118.5h-710zM98 951
q2 53 19 98.5t41 56.5l681 301v-140zM158 1607l116 114l114 -114l-114 -116zM63 1409l116 113l92 -93l94 93l114 -113l-114 -115l-94 93l-92 -93z" />
    <glyph glyph-name="uni06B4.medi" unicode="&#x6b4;" horiz-adv-x="954" 
d="M-26 0q-21 0 -28.5 9t-7.5 21v91q0 34 36 34h649q18 0 27 13t9 32q0 72 -136.5 204t-427.5 335q2 23 8 47t15 44.5t18 34.5t17 18l681 300v-140l-549 -242q91 -75 162 -136.5t124.5 -114t93.5 -99.5t69 -91q59 -91 108.5 -148t80.5 -57h71q21 0 26.5 -9t5.5 -21v-91
q0 -34 -36 -34h-65q-60 0 -111.5 31t-97.5 109q-46 -78 -104 -109t-120 -31h-518zM100 951q2 53 19 98.5t41 56.5l681 301v-140zM155 1607l116 114l113 -114l-113 -116zM59 1409l116 113l92 -93l95 93l114 -113l-114 -115l-95 93l-92 -93z" />
    <glyph glyph-name="uni06B4.fina" unicode="&#x6b4;" horiz-adv-x="1803" 
d="M1771 0q-30 0 -55.5 6.5t-48.5 22.5t-48.5 43t-56.5 68q-24 -51 -70 -84t-140.5 -52.5t-250 -27.5t-400.5 -8q-348 0 -524.5 75.5t-176.5 249.5q0 26 6.5 58t14.5 55l136 30q-4 -23 -6.5 -42.5t-2.5 -37.5q0 -69 33.5 -113.5t104 -70.5t182 -36.5t267.5 -10.5
q181 0 308 1.5t213 6t135 10t74 13.5t32 19.5t7 24.5q0 72 -136 204t-428 335q2 23 9 47t15 44.5t17 34.5t17 18l681 300v-140l-548 -242q91 -75 162 -136.5t124 -114t93.5 -99.5t70.5 -91q57 -91 109.5 -148t100.5 -57h48q21 0 28.5 -9t7.5 -21v-91q0 -34 -36 -34h-68z
M938 951q2 53 19 98.5t41 56.5l681 301v-140zM983 1607l116 114l114 -114l-114 -116zM887 1409l116 113l92 -93l95 93l114 -113l-114 -115l-95 93l-92 -93z" />
    <glyph glyph-name="uni06B5.init" unicode="&#x6b5;" horiz-adv-x="534" 
d="M412 18q-99 -18 -349 -18h-89q-21 0 -28.5 9t-7.5 21v91q0 34 36 34h135q36 0 82 2t71 5v1072h150v-1216zM428 1718l82 -68q-45 -40 -86 -117t-61 -166h-51q-19 91 -63 165.5t-89 119.5l83 70q60 -117 94 -224q34 113 91 220z" />
    <glyph glyph-name="uni06B5.medi" unicode="&#x6b5;" horiz-adv-x="719" 
d="M-26 0q-21 0 -28.5 9t-7.5 21v91q0 34 36 34h115q69 0 111 10.5t63.5 34.5t28 63t6.5 97v874h149v-859q0 -60 7.5 -101t27 -68t55 -39t90.5 -12h128q21 0 28.5 -9t7.5 -21v-91q0 -34 -36 -34h-117q-52 0 -92 19.5t-68.5 51.5t-45.5 71t-22 78q-36 -69 -73 -111.5
t-74.5 -67.5t-75 -33t-70.5 -8h-143zM468 1718l82 -68q-44 -40 -85.5 -117t-60.5 -166h-51q-20 91 -64 165.5t-89 119.5l83 70q60 -117 94 -224q34 113 91 220z" />
    <glyph glyph-name="uni06B5.fina" unicode="&#x6b5;" horiz-adv-x="1246" 
d="M1244 0q-32 0 -61 12.5t-53.5 33t-44 45.5t-30.5 53q-25 -276 -175.5 -418t-391.5 -142q-117 0 -208.5 34.5t-153 93t-93.5 137t-32 166.5q0 78 21.5 154.5t62.5 154.5l119 -66q-30 -68 -41 -115.5t-11 -105.5q0 -73 27 -129.5t74 -97t109.5 -61t135.5 -20.5
q126 0 206 35t126.5 86t62.5 109.5t16 107.5v1167h150v-818q0 -67 6 -116.5t24 -81t53.5 -47.5t97.5 -16h43q21 0 28 -9t7 -21v-91q0 -34 -35 -34h-39zM1078 1718l82 -68q-45 -40 -86.5 -117t-60.5 -166h-51q-19 91 -63 165.5t-89 119.5l83 70q60 -117 94 -224
q33 113 91 220z" />
    <glyph glyph-name="uni06B6.init" unicode="&#x6b6;" horiz-adv-x="534" 
d="M412 18q-99 -18 -349 -18h-89q-21 0 -28.5 9t-7.5 21v91q0 34 36 34h135q36 0 82 2t71 5v1072h150v-1216zM209 1480l116 113l114 -113l-114 -116z" />
    <glyph glyph-name="uni06B6.medi" unicode="&#x6b6;" horiz-adv-x="719" 
d="M-26 0q-21 0 -28.5 9t-7.5 21v91q0 34 36 34h115q69 0 111 10.5t63.5 34.5t28 63t6.5 97v874h149v-859q0 -60 7.5 -101t27 -68t55 -39t90.5 -12h128q21 0 28.5 -9t7.5 -21v-91q0 -34 -36 -34h-117q-52 0 -92 19.5t-68.5 51.5t-45.5 71t-22 78q-36 -69 -73 -111.5
t-74.5 -67.5t-75 -33t-70.5 -8h-143zM259 1480l115 113l114 -113l-114 -116z" />
    <glyph glyph-name="uni06B6.fina" unicode="&#x6b6;" horiz-adv-x="1246" 
d="M1244 0q-32 0 -61 12.5t-53.5 33t-44 45.5t-30.5 53q-25 -276 -175.5 -418t-391.5 -142q-117 0 -208.5 34.5t-153 93t-93.5 137t-32 166.5q0 78 21.5 154.5t62.5 154.5l119 -66q-30 -68 -41 -115.5t-11 -105.5q0 -73 27 -129.5t74 -97t109.5 -61t135.5 -20.5
q126 0 206 35t126.5 86t62.5 109.5t16 107.5v1167h150v-818q0 -67 6 -116.5t24 -81t53.5 -47.5t97.5 -16h43q21 0 28 -9t7 -21v-91q0 -34 -35 -34h-39zM860 1480l116 113l114 -113l-114 -116z" />
    <glyph glyph-name="uni06B7.init" unicode="&#x6b7;" horiz-adv-x="534" 
d="M412 18q-99 -18 -349 -18h-89q-21 0 -28.5 9t-7.5 21v91q0 34 36 34h135q36 0 82 2t71 5v1072h150v-1216zM209 1680l116 114l114 -114l-114 -116zM114 1482l116 113l92 -93l94 93l114 -113l-114 -115l-94 92l-92 -92z" />
    <glyph glyph-name="uni06B7.medi" unicode="&#x6b7;" horiz-adv-x="719" 
d="M-26 0q-21 0 -28.5 9t-7.5 21v91q0 34 36 34h115q69 0 111 10.5t63.5 34.5t28 63t6.5 97v874h149v-859q0 -60 7.5 -101t27 -68t55 -39t90.5 -12h128q21 0 28.5 -9t7.5 -21v-91q0 -34 -36 -34h-117q-52 0 -92 19.5t-68.5 51.5t-45.5 71t-22 78q-36 -69 -73 -111.5
t-74.5 -67.5t-75 -33t-70.5 -8h-143zM259 1680l115 114l114 -114l-114 -116zM163 1482l116 113l92 -93l94 93l114 -113l-114 -115l-94 92l-92 -92z" />
    <glyph glyph-name="uni06B7.fina" unicode="&#x6b7;" horiz-adv-x="1246" 
d="M1244 0q-32 0 -61 12.5t-53.5 33t-44 45.5t-30.5 53q-25 -276 -175.5 -418t-391.5 -142q-117 0 -208.5 34.5t-153 93t-93.5 137t-32 166.5q0 78 21.5 154.5t62.5 154.5l119 -66q-30 -68 -41 -115.5t-11 -105.5q0 -73 27 -129.5t74 -97t109.5 -61t135.5 -20.5
q126 0 206 35t126.5 86t62.5 109.5t16 107.5v1167h150v-818q0 -67 6 -116.5t24 -81t53.5 -47.5t97.5 -16h43q21 0 28 -9t7 -21v-91q0 -34 -35 -34h-39zM860 1680l116 114l114 -114l-114 -116zM764 1482l116 113l92 -93l95 93l114 -113l-114 -115l-95 92l-92 -92z" />
    <glyph glyph-name="uni06B8.init" unicode="&#x6b8;" horiz-adv-x="534" 
d="M412 18q-99 -18 -349 -18h-89q-21 0 -28.5 9t-7.5 21v91q0 34 36 34h135q36 0 82 2t71 5v1072h150v-1216zM326 -528l-116 -114l-113 114l113 115zM422 -330l-116 -114l-92 93l-95 -93l-114 114l114 115l95 -93l92 93z" />
    <glyph glyph-name="uni06B8.medi" unicode="&#x6b8;" horiz-adv-x="719" 
d="M-26 0q-21 0 -28.5 9t-7.5 21v91q0 34 36 34h115q69 0 111 10.5t63.5 34.5t28 63t6.5 97v874h149v-859q0 -60 7.5 -101t27 -68t55 -39t90.5 -12h128q21 0 28.5 -9t7.5 -21v-91q0 -34 -36 -34h-117q-52 0 -92 19.5t-68.5 51.5t-45.5 71t-22 78q-36 -69 -73 -111.5
t-74.5 -67.5t-75 -33t-70.5 -8h-143zM457 -528l-115 -114l-114 114l114 115zM553 -330l-116 -114l-92 93l-95 -93l-113 114l113 115l95 -93l92 93z" />
    <glyph glyph-name="uni06B8.fina" unicode="&#x6b8;" horiz-adv-x="1246" 
d="M1244 0q-32 0 -61 12.5t-53.5 33t-44 45.5t-30.5 53q-25 -276 -175.5 -418t-391.5 -142q-117 0 -208.5 34.5t-153 93t-93.5 137t-32 166.5q0 78 21.5 154.5t62.5 154.5l119 -66q-30 -68 -41 -115.5t-11 -105.5q0 -73 27 -129.5t74 -97t109.5 -61t135.5 -20.5
q126 0 206 35t126.5 86t62.5 109.5t16 107.5v1167h150v-818q0 -67 6 -116.5t24 -81t53.5 -47.5t97.5 -16h43q21 0 28 -9t7 -21v-91q0 -34 -35 -34h-39zM621 -865l-115 -114l-114 114l114 115zM717 -667l-116 -114l-92 93l-94 -93l-114 114l114 115l94 -93l92 93z" />
    <glyph glyph-name="uni06B9.init" unicode="&#x6b9;" horiz-adv-x="563" 
d="M155 1070l116 113l112 -113l-112 -116zM-26 0q-21 0 -28.5 9t-7.5 21v91q0 34 36 34h92h41t60.5 1t71 2.5t71.5 5.5q5 23 5 48q0 62 -27 144t-70 180l153 48q39 -101 56.5 -175.5t17.5 -134.5q0 -80 -25.5 -137t-63.5 -119q-64 -11 -145 -14.5t-139 -3.5h-98zM181 -276
l116 114l114 -114l-114 -116z" />
    <glyph glyph-name="uni06B9.medi" unicode="&#x6b9;" horiz-adv-x="612" 
d="M-26 0q-21 0 -28.5 9t-7.5 21v91q0 34 36 34h104q61 0 103 3.5t67.5 12t37.5 22.5t14 35l17 249l164 45l-32 -216q-2 -9 -3 -20.5t-1 -20.5q0 -64 39.5 -87t108.5 -23h56q21 0 28 -9t7 -21v-91q0 -34 -35 -34h-63q-107 0 -170 33t-83 127q-25 -50 -48 -82t-48 -48.5
t-54.5 -23t-71.5 -6.5h-137zM274 965l116 114l114 -114l-114 -116zM230 -276l115 114l114 -114l-114 -116z" />
    <glyph glyph-name="uni06B9.fina" unicode="&#x6b9;" horiz-adv-x="1201" 
d="M1183 0q-41 0 -79.5 26t-54.5 79q-11 -139 -62.5 -237.5t-128 -161t-173 -92.5t-198.5 -30q-117 0 -208.5 34.5t-153 93t-93.5 137t-32 166.5q0 78 21.5 154.5t62.5 154.5l119 -66q-30 -68 -41 -115.5t-11 -105.5q0 -73 27 -129.5t74 -97t109.5 -61t135.5 -20.5
q126 0 205.5 35t124 86t60.5 109.5t16 107.5q0 45 -12 88t-29.5 84t-39 77.5t-40.5 66.5l162 69q34 -88 61 -145t54 -90.5t55 -47.5t63 -14h60q20 0 28 -9t8 -21v-91q0 -34 -36 -34h-54zM397 703l116 114l114 -114l-114 -115zM425 -701l116 114l114 -114l-114 -115z" />
    <glyph glyph-name="uni06BC.init" unicode="&#x6bc;" horiz-adv-x="564" 
d="M151 1070l116 113l113 -113l-113 -116zM161 1q-15 0 -31.5 -14.5t-29.5 -36.5t-20.5 -47.5t-7.5 -48.5t22 -34t52 -11q19 0 39.5 2.5t37.5 9.5t28 16.5t11 22.5q0 22 -7 46.5t-21 45.5t-32.5 35t-40.5 14zM79 0h-105q-21 0 -28.5 9t-7.5 21v91q0 34 36 34h92h41t60.5 1
t71 2.5t71.5 5.5q5 23 5 48q0 62 -27 144t-70 180l153 48q39 -101 56.5 -175.5t17.5 -134.5q0 -80 -25.5 -137t-63.5 -119q-31 -5 -66 -9h1q18 -27 28.5 -61t10.5 -67q0 -28 -19 -54.5t-48.5 -47t-65 -33.5t-70.5 -13q-24 0 -46.5 6t-39.5 19t-27 33t-10 49q0 19 8 44.5
t21.5 50.5t32.5 50q7 8 13 15z" />
    <glyph glyph-name="uni06BC.medi" unicode="&#x6bc;" horiz-adv-x="612" 
d="M271 965l115 114l114 -114l-114 -116zM150 1q-15 0 -31.5 -14.5t-29.5 -36.5t-20.5 -47.5t-7.5 -48.5t22 -34t52 -11q19 0 39.5 2.5t37.5 9.5t28 16.5t11 22.5q0 22 -7 46.5t-21 45.5t-32.5 35t-40.5 14zM68 0h-94q-21 0 -28.5 9t-7.5 21v91q0 34 36 34h104q61 0 103 3.5
t67.5 12t37.5 22.5t14 35l17 249l164 45l-32 -216q-2 -9 -3 -20.5t-1 -20.5q0 -64 39.5 -87t108.5 -23h56q21 0 28 -9t7 -21v-91q0 -34 -35 -34h-63q-107 0 -170 33t-83 127q-25 -50 -48 -82q-16 -22 -34 -37q16 -14 29 -32q18 -27 28.5 -61t10.5 -67q0 -28 -19 -54.5
t-48.5 -47t-65 -33.5t-69.5 -13q-25 0 -47.5 6t-39.5 19t-27 33t-10 49q0 19 8 44.5t21.5 50.5t33.5 50q6 8 12 15z" />
    <glyph glyph-name="uni06BC.fina" unicode="&#x6bc;" horiz-adv-x="1201" 
d="M397 703l116 114l114 -114l-114 -115zM529 -415q-15 0 -31.5 -15t-29 -36.5t-20.5 -47t-8 -48.5q0 -24 22 -35t52 -11q19 0 39.5 3t37.5 9.5t28 16.5t11 22q0 22 -7 46.5t-20.5 45.5t-32.5 35.5t-41 14.5zM448 -415q-94 4 -169 33q-92 35 -153.5 93.5t-93.5 137
t-32 166.5q0 78 21.5 154.5t62.5 154.5l119 -66q-30 -68 -41 -115.5t-11 -105.5q0 -73 27 -129.5t74 -97t109.5 -61t135.5 -20.5q126 0 205.5 35t124 86t60.5 109.5t16 107.5q0 45 -12 88t-29.5 84t-39 77.5t-40.5 66.5l162 69q34 -88 61 -145t54 -90.5t55 -47.5t63 -14h60
q20 0 28 -9t8 -21v-91q0 -34 -36 -34h-54q-41 0 -79.5 26t-54.5 79q-11 -139 -62.5 -237.5t-128 -161t-172.5 -92.5q-18 -6 -36 -10q5 -6 9 -11q18 -28 28.5 -61.5t10.5 -67.5q0 -27 -19 -53.5t-48.5 -47.5t-65 -33.5t-69.5 -12.5q-25 0 -47.5 6t-39.5 19t-27 33t-10 48
q0 19 8 44.5t21.5 51t33.5 49.5q6 8 13 17z" />
    <glyph glyph-name="uni06BD.init" unicode="&#x6bd;" horiz-adv-x="596" 
d="M-26 0q-21 0 -28.5 9t-7.5 21v91q0 34 36 34h92h41t60.5 1t71 2.5t71.5 5.5q5 23 5 48q0 62 -27 144t-70 180l153 48q39 -101 56.5 -175.5t17.5 -134.5q0 -80 -25.5 -137t-63.5 -119q-64 -11 -145 -14.5t-139 -3.5h-98zM164 1170l116 114l114 -114l-114 -116zM68 972
l116 114l92 -93l95 93l114 -114l-114 -116l-95 93l-92 -93z" />
    <glyph glyph-name="uni06BD.medi" unicode="&#x6bd;" horiz-adv-x="612" 
d="M-26 0q-21 0 -28.5 9t-7.5 21v91q0 34 36 34h104q61 0 103 3.5t67.5 12t37.5 22.5t14 35l17 249l164 45l-32 -216q-2 -9 -3 -20.5t-1 -20.5q0 -64 39.5 -87t108.5 -23h56q21 0 28 -9t7 -21v-91q0 -34 -35 -34h-63q-107 0 -170 33t-83 127q-25 -50 -48 -82t-48 -48.5
t-54.5 -23t-71.5 -6.5h-137zM264 1049l116 113l114 -113l-114 -116zM169 851l116 114l91 -94l96 94l114 -114l-114 -116l-96 93l-91 -93z" />
    <glyph glyph-name="uni06BD.fina" unicode="&#x6bd;" horiz-adv-x="1201" 
d="M1183 0q-41 0 -79.5 26t-54.5 79q-11 -139 -62.5 -237.5t-128 -161t-173 -92.5t-198.5 -30q-117 0 -208.5 34.5t-153 93t-93.5 137t-32 166.5q0 78 21.5 154.5t62.5 154.5l119 -66q-30 -68 -41 -115.5t-11 -105.5q0 -73 27 -129.5t74 -97t109.5 -61t135.5 -20.5
q126 0 205.5 35t124 86t60.5 109.5t16 107.5q0 45 -12 88t-29.5 84t-39 77.5t-40.5 66.5l162 69q34 -88 61 -145t54 -90.5t55 -47.5t63 -14h60q20 0 28 -9t8 -21v-91q0 -34 -36 -34h-54zM401 895l116 114l113 -114l-113 -116zM306 697l116 114l91 -93l96 93l113 -114
l-113 -116l-96 93l-91 -93z" />
    <glyph glyph-name="uni06BF.init" unicode="&#x6bf;" horiz-adv-x="1159" 
d="M-26 0q-21 0 -28.5 9t-7.5 21v91q0 34 36 34h112q106 0 198 14t182 32q90 19 177.5 32t184.5 13q-48 26 -84.5 64.5t-57.5 73.5q-16 31 -36.5 57.5t-52.5 46t-78.5 31t-117.5 11.5q-39 0 -97 -9.5t-97 -22.5v144q37 11 98.5 25t134.5 14q78 0 138.5 -23.5t106.5 -61
t79.5 -84t59.5 -92.5q29 -48 52 -79t46.5 -50.5t49.5 -30t57 -16.5v-147q-42 4 -84 6t-81 2q-112 0 -200 -15t-174 -38q-89 -24 -182.5 -38t-212.5 -14h-121zM324 1067l116 114l114 -114l-114 -116zM640 -442l-115 -114l-114 114l114 116zM735 -244l-115 -114l-92 93
l-94 -93l-114 114l114 116l94 -94l92 94z" />
    <glyph glyph-name="uni06BF.medi" unicode="&#x6bf;" horiz-adv-x="1210" 
d="M-26 0q-21 0 -28.5 9t-7.5 21v91q0 34 36 34h377q68 0 127 8t117.5 30t120.5 56t137 87q-44 15 -81.5 41.5t-62.5 51.5q-27 23 -54.5 41.5t-62 31.5t-81 20.5t-110.5 7.5q-39 0 -97 -9.5t-97 -22.5v144q37 11 98.5 25t132.5 14q82 0 144.5 -15t110.5 -39t85 -55t70 -63
q37 -35 64.5 -54.5t52.5 -30.5t50 -16t57 -11v-128q-54 0 -89.5 -11.5t-72.5 -31.5q32 -37 78.5 -54t117.5 -17h140q21 0 28.5 -9t7.5 -21v-91q0 -34 -36 -34h-90q-66 0 -117 10.5t-91 31t-72.5 52t-60.5 75.5q-73 -55 -134.5 -89t-118 -51.5t-115.5 -23t-128 -5.5h-345z
M330 1067l115 114l114 -114l-114 -116zM628 -452l-116 -114l-114 114l114 116zM722 -254l-115 -113l-91 93l-96 -93l-114 113l114 116l96 -93l91 93z" />
    <glyph glyph-name="uni06BF.fina" unicode="&#x6bf;" horiz-adv-x="1166" 
d="M522 -744q-111 0 -207 31.5t-166.5 90.5t-109.5 143.5t-39 191.5q0 127 51.5 241.5t154 203t257.5 146.5t361 73q-5 4 -17.5 13t-25 19.5t-26 20.5t-20.5 18q-32 29 -66.5 54.5t-78 44.5t-102.5 30t-137 11q-21 0 -46 -4t-52 -9.5t-52 -12t-44 -12.5v144q44 15 102 30
t129 15q82 0 144.5 -15t111 -39.5t86 -55t71.5 -61.5q35 -34 62 -61.5t52 -47t51.5 -32t59.5 -18.5v-144q-15 0 -41 -1t-55 -2t-55 -2.5t-39 -3.5q11 -55 90.5 -78t200.5 -23h76q20 0 27.5 -9t7.5 -21v-91q0 -34 -35 -34h-142q-61 0 -117 13t-100.5 41t-76.5 72.5t-43 106.5
q-149 -16 -257.5 -61t-179 -109.5t-105 -144.5t-34.5 -168q0 -84 30.5 -148.5t82 -106.5t118 -63t138.5 -21q76 0 156 11.5t189 62.5l62 -114q-53 -37 -111 -60t-112.5 -35.5t-101.5 -16t-77 -3.5zM336 1070l116 113l114 -113l-114 -116zM653 -323l-115 -113l-114 113
l114 116zM748 -125l-116 -114l-91 93l-96 -93l-112 114l112 116l96 -94l91 94z" />
    <glyph glyph-name="uni06C2.fina" unicode="&#x6c2;" horiz-adv-x="556" 
d="M420 0q-41 0 -64 30t-34 65t-25 64.5t-41 29.5q-31 0 -62.5 -18t-60.5 -49t-52.5 -74t-36.5 -93h-11q-7 38 -7 81q0 67 19.5 128.5t53 109t79.5 75.5t99 28q38 0 56.5 -32.5t29.5 -73.5q12 -43 30 -79.5t50 -36.5h150q21 0 28 -9t7 -21v-91q0 -34 -35 -34h-173zM5 474
q15 9 46 27.5t53 22.5q-67 35 -67 99q0 30 15 60.5t38 55t53 39.5t60 15q32 0 56 -10v-80q-15 6 -30 10.5t-34 4.5q-39 0 -70 -21.5t-31 -43.5q0 -37 29.5 -66t64.5 -29q20 0 61 10.5t75 19.5l-13 -81q-82 -14 -145.5 -34.5t-130.5 -69.5z" />
    <glyph glyph-name="uni06C3.fina" unicode="&#x6c3;" horiz-adv-x="536" 
d="M399 0q-41 0 -63.5 30t-33.5 65q-12 35 -25.5 64.5t-40.5 29.5q-31 0 -62.5 -18t-61 -49t-52.5 -74t-37 -93h-11q-7 38 -7 81q0 67 19.5 128.5t53.5 109t79.5 75.5t98.5 28q38 0 56.5 -32.5t30.5 -73.5q11 -43 29.5 -79.5t50.5 -36.5h150q20 0 27.5 -9t7.5 -21v-91
q0 -34 -35 -34h-174zM33 698l116 114l91 -94l95 94l114 -114l-114 -116l-95 93l-91 -93z" />
    <glyph glyph-name="uni06C4.fina" unicode="&#x6c4;" horiz-adv-x="924" 
d="M604 155q0 73 -15 130.5t-39.5 98.5t-57 63.5t-68.5 22.5q-37 0 -67.5 -18.5t-53 -46.5t-35.5 -60t-13 -58q0 -61 40 -96.5t124 -35.5h185zM368 -291q15 10 29 20q5 7 5 14q0 20 -6.5 42t-19 41t-29 32t-36.5 13q-14 0 -28.5 -13.5t-26 -33t-19 -42.5t-7.5 -43
q0 -22 20 -31.5t47 -9.5q17 0 35.5 2t34.5 8zM462 -220q19 16 36 32q56 54 80 101.5t28 86.5h-196q-89 0 -144.5 25t-84.5 60.5t-39 75t-10 67.5q0 59 27 125.5t76.5 121.5t116.5 91.5t147 36.5q58 0 103.5 -39.5t76.5 -104t49 -144.5t22 -160h210q21 0 28.5 -9t7.5 -21v-91
q0 -34 -36 -34h-218q-12 -45 -46.5 -111.5t-97 -141.5t-156.5 -155.5t-224 -154.5l-97 134q67 32 123 63q-3 0 -5 1q-21 5 -36 17t-24.5 29.5t-9.5 43.5q0 17 7.5 40.5t19.5 45.5t29 44t36 39.5t39.5 27.5t39.5 10q26 0 48.5 -15t39 -39.5t26.5 -54.5q6 -22 8 -43z" />
    <glyph glyph-name="uni06CA.fina" unicode="&#x6ca;" horiz-adv-x="925" 
d="M604 155q0 73 -14.5 130.5t-39.5 98.5t-57 63.5t-68 22.5q-37 0 -68 -18.5t-53.5 -46.5t-35.5 -60t-13 -58q0 -61 40.5 -96.5t124.5 -35.5h184zM742 0q-11 -45 -45.5 -111.5t-97 -141.5t-156.5 -155.5t-225 -154.5l-97 134q138 65 229.5 126t147.5 115t80 101.5t28 86.5
h-196q-89 0 -144.5 25t-84 60.5t-39 75t-10.5 67.5q0 59 27.5 125.5t76.5 121.5t116.5 91.5t147.5 36.5q57 0 103 -39.5t76.5 -104t48.5 -144.5t22 -160h211q20 0 28 -9t8 -21v-91q0 -34 -36 -34h-219zM249 865l116 113l92 -93l95 93l114 -113l-114 -116l-95 93l-92 -93z
" />
    <glyph glyph-name="uni06CD.fina" unicode="&#x6cd;" horiz-adv-x="1612" 
d="M366 351l114 -68q-26 -57 -47.5 -131.5t-21.5 -146.5q0 -145 108 -230t337 -85q105 0 204 14t176.5 38.5t124 58t46.5 74.5q0 54 -84 87.5t-242 42.5l53 150h514q20 0 28 -9t8 -21v-91q0 -34 -36 -34h-84q-47 -244 -231.5 -353.5t-481.5 -109.5q-160 0 -272 34.5
t-182 94.5t-102.5 139t-32.5 167q0 81 18 159l-5 -5l-178 -131l-96 141q96 37 168.5 73.5t123.5 72.5q42 31 72 66z" />
    <glyph glyph-name="uni06CE.init" unicode="&#x6ce;" horiz-adv-x="577" 
d="M-26 0q-21 0 -28.5 9t-7.5 21v91q0 34 36 34h92h41t60.5 1t71 2.5t71.5 5.5q5 23 5 48q0 62 -27 144t-70 180l153 48q39 -101 56.5 -175.5t17.5 -134.5q0 -80 -25.5 -137t-63.5 -119q-64 -11 -145 -14.5t-139 -3.5h-98zM82 -282l116 114l91 -93l94 93l114 -114l-114 -115
l-94 93l-91 -93zM349 1107l82 -68q-45 -41 -86.5 -117.5t-60.5 -166.5h-51q-19 91 -63 166t-89 119l83 71q60 -117 94 -225q33 113 91 221z" />
    <glyph glyph-name="uni06CE.medi" unicode="&#x6ce;" horiz-adv-x="612" 
d="M-26 0q-21 0 -28.5 9t-7.5 21v91q0 34 36 34h104q61 0 103 3.5t67.5 12t37.5 22.5t14 35l17 249l164 45l-32 -216q-2 -9 -3 -20.5t-1 -20.5q0 -64 39.5 -87t108.5 -23h56q21 0 28 -9t7 -21v-91q0 -34 -35 -34h-63q-107 0 -170 33t-83 127q-25 -50 -48 -82t-48 -48.5
t-54.5 -23t-71.5 -6.5h-137zM136 -282l115 114l91 -93l96 93l114 -114l-114 -115l-96 93l-91 -93zM471 1080l82 -69q-45 -40 -86.5 -117t-60.5 -166h-51q-19 91 -63 165.5t-89 119.5l83 70q60 -116 94 -224q34 113 91 221z" />
    <glyph glyph-name="uni06CE.fina" unicode="&#x6ce;" horiz-adv-x="1351" 
d="M1304 0q-48 -244 -232.5 -353.5t-481.5 -109.5q-160 0 -272 34.5t-181.5 94.5t-102.5 139t-33 167q0 103 30 201.5t75 177.5l114 -68q-27 -57 -48.5 -131.5t-21.5 -146.5q0 -145 108 -230t338 -85q105 0 203.5 14t176 38.5t124 58t46.5 74.5q0 54 -83.5 87.5t-242.5 42.5
l54 150h514q20 0 27.5 -9t7.5 -21v-91q0 -34 -35 -34h-84zM538 893l82 -69q-45 -40 -86.5 -117t-60.5 -166h-51q-19 91 -63.5 166t-88.5 119l83 70q60 -116 93 -224q34 113 92 221z" />
    <glyph glyph-name="uni06CF.fina" unicode="&#x6cf;" horiz-adv-x="925" 
d="M604 155q0 73 -14.5 130.5t-39.5 98.5t-57 63.5t-68 22.5q-37 0 -68 -18.5t-53.5 -46.5t-35.5 -60t-13 -58q0 -61 40.5 -96.5t124.5 -35.5h184zM742 0q-11 -45 -45.5 -111.5t-97 -141.5t-156.5 -155.5t-225 -154.5l-97 134q138 65 229.5 126t147.5 115t80 101.5t28 86.5
h-196q-89 0 -144.5 25t-84 60.5t-39 75t-10.5 67.5q0 59 27.5 125.5t76.5 121.5t116.5 91.5t147.5 36.5q57 0 103 -39.5t76.5 -104t48.5 -144.5t22 -160h211q20 0 28 -9t8 -21v-91q0 -34 -36 -34h-219zM345 871l116 114l114 -114l-114 -116z" />
    <glyph glyph-name="uni06D1.init" unicode="&#x6d1;" horiz-adv-x="564" 
d="M-26 0q-21 0 -28.5 9t-7.5 21v91q0 34 36 34h92h41t60.5 1t71 2.5t71.5 5.5q5 23 5 48q0 62 -27 144t-70 180l153 48q39 -101 56.5 -175.5t17.5 -134.5q0 -80 -25.5 -137t-63.5 -119q-64 -11 -145 -14.5t-139 -3.5h-98zM341 -528l-116 -114l-114 114l114 115zM436 -330
l-115 -114l-92 93l-95 -93l-114 114l114 115l95 -93l92 93z" />
    <glyph glyph-name="uni06D1.medi" unicode="&#x6d1;" horiz-adv-x="612" 
d="M-26 0q-21 0 -28.5 9t-7.5 21v91q0 34 36 34h104q61 0 103 3.5t67.5 12t37.5 22.5t14 35l17 249l164 45l-32 -216q-2 -9 -3 -20.5t-1 -20.5q0 -64 39.5 -87t108.5 -23h56q21 0 28 -9t7 -21v-91q0 -34 -35 -34h-63q-107 0 -170 33t-83 127q-25 -50 -48 -82t-48 -48.5
t-54.5 -23t-71.5 -6.5h-137zM442 -518l-116 -114l-114 114l114 115zM537 -321l-116 -114l-91 93l-95 -93l-114 114l114 116l95 -94l91 94z" />
    <glyph glyph-name="uni06D1.fina" unicode="&#x6d1;" horiz-adv-x="1351" 
d="M1304 0q-48 -244 -232.5 -353.5t-481.5 -109.5q-160 0 -272 34.5t-181.5 94.5t-102.5 139t-33 167q0 103 30 201.5t75 177.5l114 -68q-27 -57 -48.5 -131.5t-21.5 -146.5q0 -145 108 -230t338 -85q105 0 203.5 14t176 38.5t124 58t46.5 74.5q0 54 -83.5 87.5t-242.5 42.5
l54 150h514q20 0 27.5 -9t7.5 -21v-91q0 -34 -35 -34h-84zM746 -928l-115 -114l-114 114l114 115zM842 -730l-116 -114l-92 93l-95 -93l-113 114l113 115l95 -93l92 93z" />
    <glyph glyph-name="uni06D5.fina" unicode="&#x6d5;" horiz-adv-x="849" 
d="M513 260q-16 89 -29 171t-24 172q-23 -19 -53.5 -37t-62.5 -32q-41 -21 -78.5 -40.5t-66.5 -41t-46.5 -45t-17.5 -51.5q0 -43 66 -72.5t218 -29.5q46 0 94 6zM704 0q-54 0 -92 33.5t-65 93.5q-39 -4 -79 -6.5t-81 -2.5q-68 0 -131 8t-113 29t-78.5 55t-28.5 85
q0 97 48.5 177t138.5 127q37 21 79 44t88 55q29 20 45 35t16 41l135 22q23 -207 40 -332.5t34.5 -194.5t42 -91.5t61.5 -22.5h121q20 0 28 -9t8 -21v-91q0 -34 -36 -34h-181z" />
    <glyph glyph-name="uni06EE.fina" unicode="&#x6ee;" horiz-adv-x="883" 
d="M919 155q20 0 28 -9t8 -21v-91q0 -34 -36 -34h-47q-34 0 -66 4.5t-59.5 19.5t-52.5 44t-48 78h-7q-49 -89 -126 -117.5t-200 -28.5h-251v155h210q68 0 126.5 2t101.5 8t67.5 20.5t24.5 36.5q0 45 -36.5 154t-129.5 283l138 87l148 -393q20 -54 36.5 -92.5t34.5 -61.5
t40 -33.5t54 -10.5h42zM488 1165q-33 -107 -93 -224l-83 70q44 45 88.5 119.5t63.5 165.5h51q19 -89 60.5 -166t86.5 -117l-82 -68q-58 107 -92 220z" />
    <glyph glyph-name="uni06EF.fina" unicode="&#x6ef;" horiz-adv-x="814" 
d="M850 155q20 0 28 -9t8 -21v-91q0 -34 -36 -34h-56q-46 0 -96 27t-84 89h-9q-10 -62 -48.5 -145t-101.5 -174.5t-151.5 -182t-196.5 -168.5l-107 129q146 91 244 186t158.5 183t86.5 161.5t26 118.5q0 13 -4.5 36t-19.5 57t-44 77.5t-77 102.5l143 91q32 -60 59.5 -123.5
t54.5 -128.5q37 -95 79 -138t102 -43h42zM473 1065q-34 -108 -94 -224l-83 70q45 45 89 119.5t63 165.5h51q19 -89 60.5 -166t86.5 -117l-82 -68q-57 107 -91 220z" />
    <glyph glyph-name="uni06FA.init" unicode="&#x6fa;" horiz-adv-x="1696" 
d="M-26 0q-21 0 -28.5 9t-7.5 21v91q0 34 36 34h169q64 0 101 7t57.5 20.5t27 30.5t8.5 35l19 190l162 45q-9 -48 -14 -78.5t-7.5 -50.5t-3.5 -31t-1 -19q0 -32 6 -58.5t22.5 -46.5t46.5 -32t78 -12h75q108 0 151 17.5t46 55.5l25 235l162 44l-35 -206q-2 -12 -3 -24t-1 -21
q0 -55 38 -78t110 -23h20q49 0 100 2t104 7q5 23 5 51q0 63 -27.5 145t-69.5 178l156 46q40 -101 56.5 -175.5t16.5 -134.5q0 -82 -26 -138t-63 -118q-21 -3 -49.5 -6t-62.5 -5.5t-69.5 -4.5t-65.5 -2h-33q-69 0 -115 12.5t-74.5 33t-43 50t-19.5 64.5q-27 -50 -50 -82
t-48 -48.5t-55 -23t-69 -6.5h-67q-28 0 -56 6.5t-54.5 23t-48.5 47.5t-39 82q-37 -51 -83 -82.5t-92.5 -48.5t-92 -22.5t-84.5 -5.5h-140zM960 1170l116 114l114 -114l-114 -116zM865 972l116 114l91 -93l96 93l114 -114l-114 -116l-96 93l-91 -93zM915 -276l115 114
l114 -114l-114 -116z" />
    <glyph glyph-name="uni06FA.medi" unicode="&#x6fa;" horiz-adv-x="1698" 
d="M-26 0q-21 0 -28.5 9t-7.5 21v91q0 34 36 34h179q63 0 99.5 10.5t54 24t23 29.5t7.5 29l19 190l162 45l-26 -182q-2 -10 -3 -18.5t-1 -15.5q0 -37 13.5 -59.5t33 -34t41.5 -15t41 -3.5h74q123 0 170 17.5t51 55.5l23 235l162 44l-34 -206q-2 -10 -3 -17.5t-1 -14.5
q0 -64 38.5 -89t81.5 -25h18q64 0 100.5 3.5t56 12t25 22.5t7.5 35l17 249q43 14 82 23t82 22l-30 -210q-2 -8 -3 -23t-1 -20q0 -62 40 -88t80 -26h82q21 0 28 -9t7 -21v-91q0 -34 -35 -34h-118q-57 0 -114 35.5t-84 124.5q-26 -50 -49.5 -82t-45.5 -48.5t-45.5 -23
t-47.5 -6.5h-90q-28 0 -55.5 5.5t-52.5 23t-48 49.5t-39 82q-25 -50 -48 -82t-46.5 -48.5t-46.5 -23t-46 -6.5h-95q-28 0 -57 6.5t-55 23t-48.5 47.5t-37.5 80q-65 -90 -156.5 -123.5t-198.5 -33.5h-137zM955 1170l115 114l114 -114l-114 -116zM860 972l116 114l91 -93
l95 93l113 -114l-113 -116l-95 93l-91 -93zM887 -276l116 114l114 -114l-114 -116z" />
    <glyph glyph-name="uni06FA.fina" unicode="&#x6fa;" horiz-adv-x="2246" 
d="M2163 0q-28 0 -58.5 6.5t-57 24t-48 49.5t-32.5 80q-23 -48 -45 -79t-46.5 -49.5t-52.5 -25t-64 -6.5h-61q-106 0 -172.5 34.5t-79.5 125.5q-24 -50 -47.5 -82t-48.5 -48.5t-56 -23t-70 -6.5h-17q-67 0 -102 28.5t-58 78.5q-11 -139 -61.5 -238t-128 -162t-173.5 -93
t-197 -30q-117 0 -208.5 34.5t-153 93t-93.5 137t-32 166.5q0 78 21.5 154.5t62.5 154.5l119 -66q-30 -68 -41 -115.5t-11 -105.5q0 -73 27 -129.5t74 -97t109.5 -61t135.5 -20.5q126 0 205.5 35t124 86t60.5 109.5t16 107.5q0 45 -12 88t-29.5 84t-39 77.5t-40.5 66.5
l162 69q28 -69 51.5 -124.5t49.5 -93.5t56.5 -58.5t73.5 -20.5h38q90 0 142.5 16t56.5 57l17 249l164 45l-31 -221q-2 -10 -3 -20t-1 -18q0 -54 34.5 -81t112.5 -27h40q63 0 99 3.5t56 12t25.5 22.5t7.5 35l17 249l164 45l-30 -210q-1 -8 -3.5 -24.5t-2.5 -22.5
q0 -32 12.5 -52.5t30 -33.5t39 -18.5t40.5 -5.5h82q20 0 28 -9t8 -21v-91q0 -34 -36 -34h-119zM1526 1170l116 114l114 -114l-114 -116zM1431 972l116 114l91 -93l96 93l114 -114l-114 -116l-96 93l-91 -93zM1398 -276l116 114l114 -114l-114 -116z" />
    <glyph glyph-name="uni06FB.init" unicode="&#x6fb;" horiz-adv-x="1756" 
d="M1197 532q-37 0 -77 -18.5t-79.5 -46t-74.5 -59t-60 -55.5q-21 -20 -49.5 -48.5t-59.5 -58t-60.5 -55t-48.5 -36.5h433q30 0 73.5 1t92.5 2t97 3.5t87 6.5q10 21 16.5 40.5t6.5 45.5q0 58 -28.5 108.5t-73 87.5t-96.5 59.5t-99 22.5zM517 155q57 34 130 101.5t142 135.5
q73 69 133.5 121.5t118.5 86.5t115.5 52t123.5 18q63 0 126 -36.5t114 -91.5t82.5 -119.5t31.5 -121.5q0 -10 -0.5 -19.5t-2.5 -18.5q-16 -65 -34.5 -126.5t-42.5 -123.5q-117 -4 -224.5 -8.5t-236.5 -4.5h-644q-34 0 -69.5 7.5t-65 25t-50 49.5t-25.5 80
q-38 -91 -76 -126.5t-87 -35.5h-102q-21 0 -28.5 9t-7.5 21v91q0 34 36 34h96q60 0 95.5 16t41.5 55l32 207l143 44l-41 -180q-2 -10 -3 -17.5t-1 -10.5q0 -66 39 -90t98 -24h43zM1052 1070l116 113l114 -113l-114 -116zM1042 -276l116 114l114 -114l-114 -116z" />
    <glyph glyph-name="uni06FB.medi" unicode="&#x6fb;" horiz-adv-x="1860" 
d="M1199 532q-37 0 -77.5 -18.5t-79.5 -46t-74 -59t-60 -55.5q-21 -20 -49.5 -49.5t-59.5 -58t-59 -54t-47 -36.5h424q37 0 84 1t95.5 2t94.5 3.5t83 6.5q9 19 15.5 42t6.5 44q0 50 -26 99.5t-69 89.5t-96 64.5t-106 24.5zM518 155q29 16 61 42.5t68.5 58t73 67t70.5 69.5
q73 69 133.5 121.5t118 86.5t115.5 52t124 18q63 0 125 -35.5t113 -91.5t82 -123t31 -129v-35q0 -34 45.5 -67.5t127.5 -33.5h91q21 0 28 -9t7 -21v-91q0 -34 -35 -34h-54q-39 0 -78.5 11.5t-71 34.5t-53 57.5t-27.5 79.5q-14 -45 -29 -88t-30 -82q-112 -8 -214 -10.5
t-229 -2.5h-662q-35 0 -71 7.5t-65.5 25t-49 49.5t-23.5 80q-39 -91 -76 -126.5t-86 -35.5h-104q-21 0 -28.5 9t-7.5 21v91q0 34 36 34h98q60 0 94.5 16t40.5 55l32 207l143 44l-41 -180q-2 -10 -3 -17.5t-1 -10.5q0 -64 38.5 -89t98.5 -25h44zM1050 1070l116 113l114 -113
l-114 -116zM1042 -276l116 114l114 -114l-114 -116z" />
    <glyph glyph-name="uni06FB.fina" unicode="&#x6fb;" horiz-adv-x="2637" 
d="M1976 532q-37 0 -77 -18.5t-79.5 -46t-75 -59t-60.5 -55.5q-20 -20 -49 -49.5t-59.5 -58t-59.5 -54t-47 -36.5h427q39 0 84.5 1t93.5 2t93.5 3.5t82.5 6.5q9 19 15.5 42t6.5 44q0 50 -27.5 99.5t-71.5 88.5t-96.5 64.5t-100.5 25.5zM1293 155q30 16 63.5 42.5t69 59
t71.5 67t70 68.5q73 69 133.5 121.5t118.5 86.5t115.5 52t123.5 18q64 0 127 -35.5t113.5 -90.5t82 -122.5t31.5 -128.5v-33q0 -16 11.5 -33.5t34 -33t54 -27t72.5 -11.5h90q20 0 27.5 -9t7.5 -21v-91q0 -34 -35 -34h-55q-39 0 -78 11.5t-71.5 34.5t-56 57.5t-29.5 79.5
q-9 -43 -23 -87t-29 -83q-115 -8 -224.5 -10.5t-238.5 -2.5h-619q-54 0 -107 18.5t-98 89.5q-11 -138 -61.5 -237t-127 -163t-172 -94t-197.5 -30q-117 0 -208.5 34.5t-153 93t-93.5 137t-32 166.5q0 78 21.5 154.5t62.5 154.5l119 -66q-30 -68 -41 -115.5t-11 -105.5
q0 -73 27 -129.5t74 -97t109.5 -61t135.5 -20.5q126 0 205.5 35t124 86t60.5 109.5t16 107.5q0 45 -12 88t-29.5 84t-39 77.5t-40.5 66.5l162 69q28 -69 51.5 -124.5t49.5 -93.5t56.5 -58.5t73.5 -20.5h118zM1816 1070l115 113l114 -113l-114 -116zM1734 -276l115 114
l114 -114l-114 -116z" />
    <glyph glyph-name="uni06FC.init" unicode="&#x6fc;" horiz-adv-x="943" 
d="M-26 0q-21 0 -28.5 9t-7.5 21v91q0 34 36 34h285q-56 73 -56 149q0 79 36.5 152.5t94.5 129.5t129.5 90.5t142.5 34.5q37 0 76 -7.5t60 -16.5v-159q-31 13 -71.5 22t-84.5 9q-43 0 -90 -12.5t-85 -37t-62.5 -57t-24.5 -71.5q0 -34 16 -73t45.5 -73t71.5 -57t93 -23h273
v-155h-849zM412 1070l115 113l114 -113l-114 -116zM375 -278l116 114l114 -114l-114 -116z" />
    <glyph glyph-name="uni06FC.medi" unicode="&#x6fc;" horiz-adv-x="994" 
d="M727 457q0 24 -10 48.5t-32.5 43.5t-56 30.5t-80.5 11.5q-74 0 -136.5 -29.5t-99.5 -70.5q51 -35 113.5 -87.5t115.5 -132.5q84 46 135 100t51 86zM-26 0q-21 0 -28.5 9t-7.5 21v91q0 34 36 34h151q80 0 154 15t133 49q-18 57 -84 116t-160 107q5 21 13 43t18.5 43.5
t21 39.5t21.5 29q60 60 144 95.5t184 35.5q77 0 132 -19.5t91.5 -53.5t53.5 -76.5t17 -89.5q0 -15 -11.5 -45.5t-39.5 -73t-77.5 -91.5t-124.5 -101q28 -14 58.5 -18.5t62.5 -4.5h298q20 0 28 -9t8 -21v-91q0 -34 -36 -34h-376q-37 0 -88 19.5t-90 75.5q-40 -22 -77 -40
t-79 -30t-92.5 -18.5t-116.5 -6.5h-137zM376 1070l116 113l114 -113l-114 -116zM379 -278l116 114l114 -114l-114 -116z" />
    <glyph glyph-name="uni06FC.fina" unicode="&#x6fc;" horiz-adv-x="945" 
d="M687 513q0 25 -10.5 49t-33 42.5t-56 31t-80.5 12.5q-78 0 -137.5 -29.5t-98.5 -71.5q59 -40 119 -99.5t105 -124.5q89 56 140.5 107t51.5 83zM522 -746q-111 0 -207 28.5t-166.5 83.5t-109.5 136.5t-39 185.5q0 92 26 171t75.5 148.5t119.5 131.5t160 122
q-55 86 -113.5 138.5t-140.5 98.5q3 17 12 39t19 45t21 41.5t22 29.5q50 54 140 92t189 38q79 0 133.5 -20.5t90 -54t52.5 -76.5t17 -87q0 -17 -11 -48t-39.5 -71t-77.5 -89.5t-126 -103.5q31 -48 92 -63t179 -15h141q21 0 28.5 -9t7.5 -21v-91q0 -34 -36 -34h-210
q-71 0 -121.5 7.5t-86.5 26t-63.5 47.5t-51.5 74q-165 -84 -247 -189.5t-82 -216.5q0 -89 36.5 -153t93.5 -106t128 -61.5t140 -19.5q76 0 156 11.5t189 62.5l62 -113q-53 -38 -111 -61t-112.5 -35.5t-101.5 -16t-77 -3.5zM399 1070l116 113l114 -113l-114 -116zM397 -241
l116 113l114 -113l-114 -116z" />
    <glyph glyph-name="uni06FF.init" unicode="&#x6ff;" horiz-adv-x="1326" 
d="M-26 0q-21 0 -28.5 9t-7.5 21v91q0 34 36 34h304q-10 30 -14.5 61.5t-4.5 57.5q0 59 18.5 108t46 89t59 72t57.5 56q25 21 44.5 41t19.5 35q0 23 26 50.5t52 43.5q168 -57 280 -118.5t180 -123.5t96 -125.5t28 -121.5q0 -11 -1 -28t-5 -30l-45 -222h-1141zM611 155
q18 18 30.5 44.5t21 52.5t13 50t4.5 40q0 37 -14 73.5t-36 64t-48 45.5t-51 18q-18 0 -45.5 -20.5t-52.5 -54t-42.5 -77.5t-17.5 -90q0 -57 46 -101.5t128 -44.5h64zM1011 155q2 14 3 33t1 34q0 52 -15 102t-50.5 92.5t-91.5 80t-140 64.5q39 -54 54 -105.5t15 -102.5
q0 -97 -32 -198h256zM570 1133q-33 -107 -94 -224l-82 70q44 45 88.5 119.5t63.5 166.5h51q19 -90 60.5 -167t85.5 -117l-82 -68q-57 107 -91 220z" />
    <glyph glyph-name="uni06FF.medi" unicode="&#x6ff;" horiz-adv-x="970" 
d="M399 151q73 0 127 19t91 52.5t55.5 78t18.5 94.5q0 102 -20.5 137.5t-47.5 35.5q-55 0 -106.5 -27.5t-94 -81t-72 -131t-38.5 -177.5h87zM597 -345q69 0 69 76q0 39 -15 88t-48 92t-82 72.5t-118 29.5q-30 0 -48 -2t-45 -6q5 -92 34.5 -159.5t71.5 -109.5t90 -61.5
t91 -19.5zM-26 0q-21 0 -28.5 9t-7.5 21v91q0 34 36 34h229q11 127 58 229.5t115 174t150.5 111t168.5 39.5q66 0 93 -44.5t27 -119.5q0 -45 -8.5 -97.5t-22.5 -104.5t-33 -101.5t-39 -86.5h296q20 0 27 -9t7 -21v-91q0 -34 -34 -34h-290q16 -48 25.5 -108.5t9.5 -115.5
q0 -54 -10.5 -100t-32.5 -80t-59.5 -53.5t-89.5 -19.5q-55 0 -121 23t-120 78t-90 146.5t-36 229.5h-220zM616 1133q-34 -107 -94 -224l-83 70q45 45 89 119.5t63 166.5h51q19 -90 60.5 -167t86.5 -117l-82 -68q-57 107 -91 220z" />
    <glyph glyph-name="uni06FF.fina" unicode="&#x6ff;" horiz-adv-x="982" 
d="M413 151q72 0 126 19t91.5 52.5t56 78t18.5 94.5q0 102 -20.5 137.5t-48.5 35.5q-54 0 -104.5 -26.5t-89.5 -78.5t-62.5 -130.5t-23.5 -181.5h57zM610 -345q69 0 69 76q0 39 -15.5 88t-49.5 92t-84.5 72.5t-118.5 29.5q-30 0 -51.5 -2t-49.5 -6q5 -83 37 -148.5
t76.5 -110.5t94.5 -68t92 -23zM162 0q-48 0 -76.5 -28.5t-29.5 -113.5h-15q-18 30 -29.5 73.5t-11.5 68.5q0 43 13 73t34.5 47.5t49.5 26t56 8.5h91q4 134 45 238t105.5 173.5t146.5 106t168 36.5q65 0 92 -44.5t27 -119.5q0 -45 -8 -97.5t-22.5 -104.5t-33 -101.5
t-38.5 -86.5h293q20 0 27.5 -9t7.5 -21v-91q0 -34 -35 -34h-287q16 -48 25.5 -108.5t9.5 -115.5q0 -54 -10.5 -100t-33 -80t-59.5 -53.5t-89 -19.5q-57 0 -122 20.5t-119 74.5t-90.5 146t-36.5 236h-45zM615 1133q-34 -107 -94 -224l-83 70q45 45 89 119.5t63 166.5h51
q19 -90 60.5 -167t86.5 -117l-82 -68q-57 107 -91 220z" />
    <glyph glyph-name="uniFB50" unicode="&#x671;" horiz-adv-x="416" arabic-form="isolated" 
d="M283 1234v-1234h-150v1234h150zM326 1416q0 13 -15 29t-39 16q-25 0 -46.5 -13t-49.5 -50q10 -4 32.5 -7.5t36.5 -3.5q49 0 65 7t16 22zM373 1418q0 -31 -29 -60.5t-87 -29.5q-32 0 -54 7t-41 16q-38 20 -56 20q-16 0 -26.5 -8t-31.5 -29l-45 43q45 52 86 52q26 0 44 -13
q43 58 76 81.5t66 23.5q23 0 40.5 -12.5t29.5 -28t20 -33.5t8 -29z" />
    <glyph glyph-name="uniFB51" unicode="&#x671;" horiz-adv-x="447" arabic-form="final" 
d="M331 0q-89 0 -143.5 65t-54.5 202v968h150v-899q0 -54 3.5 -89t16 -55.5t33.5 -28.5t55 -8h92q21 0 28.5 -9t7.5 -21v-91q0 -34 -36 -34h-152zM326 1416q0 13 -15 29t-39 16q-25 0 -46.5 -13t-49.5 -50q10 -4 32.5 -7.5t36.5 -3.5q49 0 65 7t16 22zM373 1418
q0 -31 -29 -60.5t-87 -29.5q-32 0 -54 7t-41 16q-38 20 -56 20q-16 0 -26.5 -8t-31.5 -29l-45 43q45 52 86 52q26 0 44 -13q43 58 76 81.5t66 23.5q23 0 40.5 -12.5t29.5 -28t20 -33.5t8 -29z" />
    <glyph glyph-name="uniFB52" unicode="&#x67b;" horiz-adv-x="1743" arabic-form="isolated" 
d="M1623 278q0 -80 -26 -139t-66 -121q-68 -5 -170 -11.5t-217 -13t-231.5 -10.5t-212.5 -4q-364 0 -532 74.5t-168 250.5q0 50 16 110t44 129l134 30q-23 -64 -34 -114t-11 -94q0 -66 33 -111t103.5 -71t182 -36t267.5 -10q34 0 95.5 0.5t135 3.5t154 5.5t152.5 6.5
t128.5 7.5t84.5 7.5q5 22 5 49q0 61 -25.5 144t-68.5 178l153 49q39 -101 56.5 -175.5t17.5 -134.5zM821 -447l-105 104l114 116l115 -116l-99 -98l105 -106l-115 -113l-114 113z" />
    <glyph glyph-name="uniFB53" unicode="&#x67b;" horiz-adv-x="1667" arabic-form="final" 
d="M1642 0q-106 0 -171.5 33t-80.5 127q-30 -65 -79.5 -101t-129.5 -54t-198 -22t-283 -4q-364 0 -532 74.5t-168 250.5q0 50 16 110t44 129l134 30q-23 -64 -34 -114t-11 -94q0 -66 33 -111t103.5 -71t182 -36t265.5 -10q232 0 356.5 3.5t182.5 23t71.5 59.5t20.5 111
q2 13 3.5 31.5t2.5 39t2 40.5t1 32l165 45l-28 -189q-2 -10 -5 -35.5t-3 -34.5q0 -58 38.5 -83t108.5 -25h55q20 0 27.5 -9t7.5 -21v-91q0 -34 -35 -34h-62zM731 -434l-99 99l114 115l116 -115l-97 -95l100 -100l-115 -114l-114 114z" />
    <glyph glyph-name="uniFB54" unicode="&#x67b;" horiz-adv-x="564" arabic-form="initial" 
d="M-26 0q-21 0 -28.5 9t-7.5 21v91q0 34 36 34h92h41t60.5 1t71 2.5t71.5 5.5q5 23 5 48q0 62 -27 144t-70 180l153 48q39 -101 56.5 -175.5t17.5 -134.5q0 -80 -25.5 -137t-63.5 -119q-64 -11 -145 -14.5t-139 -3.5h-98zM213 -435l-105 105l114 116l116 -116l-103 -102
l106 -106l-116 -113l-114 113z" />
    <glyph glyph-name="uniFB55" unicode="&#x67b;" horiz-adv-x="612" arabic-form="medial" 
d="M-26 0q-21 0 -28.5 9t-7.5 21v91q0 34 36 34h104q61 0 103 3.5t67.5 12t37.5 22.5t14 35l17 249l164 45l-32 -216q-2 -9 -3 -20.5t-1 -20.5q0 -64 39.5 -87t108.5 -23h56q21 0 28 -9t7 -21v-91q0 -34 -35 -34h-63q-107 0 -170 33t-83 127q-25 -50 -48 -82t-48 -48.5
t-54.5 -23t-71.5 -6.5h-137zM311 -419l-105 105l114 115l115 -115l-99 -99l106 -105l-116 -114l-114 114z" />
    <glyph glyph-name="uniFB56" unicode="&#x67e;" horiz-adv-x="1743" arabic-form="isolated" 
d="M1623 278q0 -80 -26 -139t-66 -121q-68 -5 -170 -11.5t-217 -13t-231.5 -10.5t-212.5 -4q-364 0 -532 74.5t-168 250.5q0 50 16 110t44 129l134 30q-23 -64 -34 -114t-11 -94q0 -66 33 -111t103.5 -71t182 -36t267.5 -10q34 0 95.5 0.5t135 3.5t154 5.5t152.5 6.5
t128.5 7.5t84.5 7.5q5 22 5 49q0 61 -25.5 144t-68.5 178l153 49q39 -101 56.5 -175.5t17.5 -134.5zM951 -538l-115 -113l-114 113l114 116zM1047 -340l-116 -114l-91 94l-96 -94l-114 114l114 116l96 -93l91 93z" />
    <glyph glyph-name="uniFB57" unicode="&#x67e;" horiz-adv-x="1667" arabic-form="final" 
d="M1642 0q-106 0 -171.5 33t-80.5 127q-30 -65 -79.5 -101t-129.5 -54t-198 -22t-283 -4q-364 0 -532 74.5t-168 250.5q0 50 16 110t44 129l134 30q-23 -64 -34 -114t-11 -94q0 -66 33 -111t103.5 -71t182 -36t265.5 -10q232 0 356.5 3.5t182.5 23t71.5 59.5t20.5 111
q2 13 3.5 31.5t2.5 39t2 40.5t1 32l165 45l-28 -189q-2 -10 -5 -35.5t-3 -34.5q0 -58 38.5 -83t108.5 -25h55q20 0 27.5 -9t7.5 -21v-91q0 -34 -35 -34h-62zM865 -530l-115 -114l-114 114l114 115zM961 -333l-116 -112l-92 92l-94 -92l-114 112l114 116l94 -93l92 93z" />
    <glyph glyph-name="uniFB58" unicode="&#x67e;" horiz-adv-x="564" arabic-form="initial" 
d="M-26 0q-21 0 -28.5 9t-7.5 21v91q0 34 36 34h92h41t60.5 1t71 2.5t71.5 5.5q5 23 5 48q0 62 -27 144t-70 180l153 48q39 -101 56.5 -175.5t17.5 -134.5q0 -80 -25.5 -137t-63.5 -119q-64 -11 -145 -14.5t-139 -3.5h-98zM341 -528l-116 -114l-114 114l114 115zM436 -330
l-115 -114l-92 93l-95 -93l-114 114l114 115l95 -93l92 93z" />
    <glyph glyph-name="uniFB59" unicode="&#x67e;" horiz-adv-x="612" arabic-form="medial" 
d="M-26 0q-21 0 -28.5 9t-7.5 21v91q0 34 36 34h104q61 0 103 3.5t67.5 12t37.5 22.5t14 35l17 249l164 45l-32 -216q-2 -9 -3 -20.5t-1 -20.5q0 -64 39.5 -87t108.5 -23h56q21 0 28 -9t7 -21v-91q0 -34 -35 -34h-63q-107 0 -170 33t-83 127q-25 -50 -48 -82t-48 -48.5
t-54.5 -23t-71.5 -6.5h-137zM442 -518l-116 -114l-114 114l114 115zM537 -321l-116 -114l-91 93l-95 -93l-114 114l114 116l95 -94l91 94z" />
    <glyph glyph-name="uniFB5A" unicode="&#x680;" horiz-adv-x="1743" arabic-form="isolated" 
d="M1623 278q0 -80 -26 -139t-66 -121q-68 -5 -170 -11.5t-217 -13t-231.5 -10.5t-212.5 -4q-364 0 -532 74.5t-168 250.5q0 50 16 110t44 129l134 30q-23 -64 -34 -114t-11 -94q0 -66 33 -111t103.5 -71t182 -36t267.5 -10q34 0 95.5 0.5t135 3.5t154 5.5t152.5 6.5
t128.5 7.5t84.5 7.5q5 22 5 49q0 61 -25.5 144t-68.5 178l153 49q39 -101 56.5 -175.5t17.5 -134.5zM933 -452l114 -114l-116 -114l-91 94l-96 -94l-114 114l112 114l-112 112l114 116l96 -93l91 93l116 -116zM746 -452l94 -91l89 91l-89 92z" />
    <glyph glyph-name="uniFB5B" unicode="&#x680;" horiz-adv-x="1667" arabic-form="final" 
d="M1642 0q-106 0 -171.5 33t-80.5 127q-30 -65 -79.5 -101t-129.5 -54t-198 -22t-283 -4q-364 0 -532 74.5t-168 250.5q0 50 16 110t44 129l134 30q-23 -64 -34 -114t-11 -94q0 -66 33 -111t103.5 -71t182 -36t265.5 -10q232 0 356.5 3.5t182.5 23t71.5 59.5t20.5 111
q2 13 3.5 31.5t2.5 39t2 40.5t1 32l165 45l-28 -189q-2 -10 -5 -35.5t-3 -34.5q0 -58 38.5 -83t108.5 -25h55q20 0 27.5 -9t7.5 -21v-91q0 -34 -35 -34h-62zM970 -565l-115 -113l-92 93l-95 -93l-114 113l114 116l95 -93l92 93zM961 -333l-116 -112l-92 92l-94 -92l-114 112
l114 116l94 -93l92 93z" />
    <glyph glyph-name="uniFB5C" unicode="&#x680;" horiz-adv-x="564" arabic-form="initial" 
d="M-26 0q-21 0 -28.5 9t-7.5 21v91q0 34 36 34h92h41t60.5 1t71 2.5t71.5 5.5q5 23 5 48q0 62 -27 144t-70 180l153 48q39 -101 56.5 -175.5t17.5 -134.5q0 -80 -25.5 -137t-63.5 -119q-64 -11 -145 -14.5t-139 -3.5h-98zM445 -562l-115 -114l-92 93l-95 -93l-114 114
l114 115l95 -93l92 93zM436 -330l-115 -114l-92 93l-95 -93l-114 114l114 115l95 -93l92 93z" />
    <glyph glyph-name="uniFB5D" unicode="&#x680;" horiz-adv-x="612" arabic-form="medial" 
d="M-26 0q-21 0 -28.5 9t-7.5 21v91q0 34 36 34h104q61 0 103 3.5t67.5 12t37.5 22.5t14 35l17 249l164 45l-32 -216q-2 -9 -3 -20.5t-1 -20.5q0 -64 39.5 -87t108.5 -23h56q21 0 28 -9t7 -21v-91q0 -34 -35 -34h-63q-107 0 -170 33t-83 127q-25 -50 -48 -82t-48 -48.5
t-54.5 -23t-71.5 -6.5h-137zM542 -550l-116 -114l-91 93l-95 -93l-113 114l113 115l95 -93l91 93zM537 -321l-116 -114l-91 93l-95 -93l-114 114l114 116l95 -94l91 94z" />
    <glyph glyph-name="uniFB5E" unicode="&#x67a;" horiz-adv-x="1743" arabic-form="isolated" 
d="M1623 278q0 -80 -26 -139t-66 -121q-68 -5 -170 -11.5t-217 -13t-231.5 -10.5t-212.5 -4q-364 0 -532 74.5t-168 250.5q0 50 16 110t44 129l134 30q-23 -64 -34 -114t-11 -94q0 -66 33 -111t103.5 -71t182 -36t267.5 -10q34 0 95.5 0.5t135 3.5t154 5.5t152.5 6.5
t128.5 7.5t84.5 7.5q5 22 5 49q0 61 -25.5 144t-68.5 178l153 49q39 -101 56.5 -175.5t17.5 -134.5zM858 925l99 -100l-113 -115l-116 115l101 100l-101 101l116 114l113 -114z" />
    <glyph glyph-name="uniFB5F" unicode="&#x67a;" horiz-adv-x="1667" arabic-form="final" 
d="M1642 0q-106 0 -171.5 33t-80.5 127q-30 -65 -79.5 -101t-129.5 -54t-198 -22t-283 -4q-364 0 -532 74.5t-168 250.5q0 50 16 110t44 129l134 30q-23 -64 -34 -114t-11 -94q0 -66 33 -111t103.5 -71t182 -36t265.5 -10q232 0 356.5 3.5t182.5 23t71.5 59.5t20.5 111
q2 13 3.5 31.5t2.5 39t2 40.5t1 32l165 45l-28 -189q-2 -10 -5 -35.5t-3 -34.5q0 -58 38.5 -83t108.5 -25h55q20 0 27.5 -9t7.5 -21v-91q0 -34 -35 -34h-62zM806 919l103 -103l-114 -115l-115 115l97 97l-104 104l116 114l114 -114z" />
    <glyph glyph-name="uniFB60" unicode="&#x67a;" horiz-adv-x="596" arabic-form="initial" 
d="M-26 0q-21 0 -28.5 9t-7.5 21v91q0 34 36 34h92h41t60.5 1t71 2.5t71.5 5.5q5 23 5 48q0 62 -27 144t-70 180l153 48q39 -101 56.5 -175.5t17.5 -134.5q0 -80 -25.5 -137t-63.5 -119q-64 -11 -145 -14.5t-139 -3.5h-98zM294 1069l100 -100l-114 -115l-116 115l101 100
l-101 101l116 114l114 -114z" />
    <glyph glyph-name="uniFB61" unicode="&#x67a;" horiz-adv-x="612" arabic-form="medial" 
d="M-26 0q-21 0 -28.5 9t-7.5 21v91q0 34 36 34h104q61 0 103 3.5t67.5 12t37.5 22.5t14 35l17 249l164 45l-32 -216q-2 -9 -3 -20.5t-1 -20.5q0 -64 39.5 -87t108.5 -23h56q21 0 28 -9t7 -21v-91q0 -34 -35 -34h-63q-107 0 -170 33t-83 127q-25 -50 -48 -82t-48 -48.5
t-54.5 -23t-71.5 -6.5h-137zM394 946l98 -99l-114 -115l-116 115l103 101l-100 101l116 113l114 -113z" />
    <glyph glyph-name="uniFB62" unicode="&#x67f;" horiz-adv-x="1743" arabic-form="isolated" 
d="M1623 278q0 -80 -26 -139t-66 -121q-68 -5 -170 -11.5t-217 -13t-231.5 -10.5t-212.5 -4q-364 0 -532 74.5t-168 250.5q0 50 16 110t44 129l134 30q-23 -64 -34 -114t-11 -94q0 -66 33 -111t103.5 -71t182 -36t267.5 -10q34 0 95.5 0.5t135 3.5t154 5.5t152.5 6.5
t128.5 7.5t84.5 7.5q5 22 5 49q0 61 -25.5 144t-68.5 178l153 49q39 -101 56.5 -175.5t17.5 -134.5zM745 939l-115 116l115 114l92 -93l95 93l114 -114l-112 -114l1 1l114 -114l-114 -116l-95 94l-92 -94l-116 116zM932 939l-95 94l-91 -93l2 2l92 -93z" />
    <glyph glyph-name="uniFB63" unicode="&#x67f;" horiz-adv-x="1667" arabic-form="final" 
d="M1642 0q-106 0 -171.5 33t-80.5 127q-30 -65 -79.5 -101t-129.5 -54t-198 -22t-283 -4q-364 0 -532 74.5t-168 250.5q0 50 16 110t44 129l134 30q-23 -64 -34 -114t-11 -94q0 -66 33 -111t103.5 -71t182 -36t265.5 -10q232 0 356.5 3.5t182.5 23t71.5 59.5t20.5 111
q2 13 3.5 31.5t2.5 39t2 40.5t1 32l165 45l-28 -189q-2 -10 -5 -35.5t-3 -34.5q0 -58 38.5 -83t108.5 -25h55q20 0 27.5 -9t7.5 -21v-91q0 -34 -35 -34h-62zM576 1049l115 113l92 -92l95 92l114 -113l-114 -116l-95 93l-92 -93zM579 819l115 114l91 -93l96 93l114 -114
l-114 -116l-96 93l-91 -93z" />
    <glyph glyph-name="uniFB64" unicode="&#x67f;" horiz-adv-x="596" arabic-form="initial" 
d="M-26 0q-21 0 -28.5 9t-7.5 21v91q0 34 36 34h92h41t60.5 1t71 2.5t71.5 5.5q5 23 5 48q0 62 -27 144t-70 180l153 48q39 -101 56.5 -175.5t17.5 -134.5q0 -80 -25.5 -137t-63.5 -119q-64 -11 -145 -14.5t-139 -3.5h-98zM180 1081l-114 114l116 114l91 -93l96 93l113 -114
l-109 -111l112 -112l-113 -116l-96 93l-91 -93l-116 116zM367 1081l-94 91l-86 -88l89 -91z" />
    <glyph glyph-name="uniFB65" unicode="&#x67f;" horiz-adv-x="612" arabic-form="medial" 
d="M-26 0q-21 0 -28.5 9t-7.5 21v91q0 34 36 34h104q61 0 103 3.5t67.5 12t37.5 22.5t14 35l17 249l164 45l-32 -216q-2 -9 -3 -20.5t-1 -20.5q0 -64 39.5 -87t108.5 -23h56q21 0 28 -9t7 -21v-91q0 -34 -35 -34h-63q-107 0 -170 33t-83 127q-25 -50 -48 -82t-48 -48.5
t-54.5 -23t-71.5 -6.5h-137zM282 962l-115 116l115 114l92 -94l95 94l114 -114l-113 -115l2 2l114 -114l-114 -116l-95 93l-92 -93l-116 116zM469 962l-95 93l-91 -91l2 1l92 -94z" />
    <glyph glyph-name="uniFB66" unicode="&#x679;" horiz-adv-x="1743" arabic-form="isolated" 
d="M1623 278q0 -80 -26 -139t-66 -121q-68 -5 -170 -11.5t-217 -13t-231.5 -10.5t-212.5 -4q-364 0 -532 74.5t-168 250.5q0 50 16 110t44 129l134 30q-23 -64 -34 -114t-11 -94q0 -66 33 -111t103.5 -71t182 -36t267.5 -10q34 0 95.5 0.5t135 3.5t154 5.5t152.5 6.5
t128.5 7.5t84.5 7.5q5 22 5 49q0 61 -25.5 144t-68.5 178l153 49q39 -101 56.5 -175.5t17.5 -134.5zM974 894q0 28 -28 53t-54 25q-28 0 -62 -23t-88 -84h226q6 14 6 29zM610 791v74h67v337h65v-278q52 59 91.5 87t82.5 28q24 0 47.5 -14t42 -35.5t29 -45.5t10.5 -45
q0 -5 -2 -19.5t-6.5 -30t-9.5 -31t-10 -27.5h-407z" />
    <glyph glyph-name="uniFB67" unicode="&#x679;" horiz-adv-x="1667" arabic-form="final" 
d="M1642 0q-106 0 -171.5 33t-80.5 127q-30 -65 -79.5 -101t-129.5 -54t-198 -22t-283 -4q-364 0 -532 74.5t-168 250.5q0 50 16 110t44 129l134 30q-23 -64 -34 -114t-11 -94q0 -66 33 -111t103.5 -71t182 -36t265.5 -10q232 0 356.5 3.5t182.5 23t71.5 59.5t20.5 111
q2 13 3.5 31.5t2.5 39t2 40.5t1 32l165 45l-28 -189q-2 -10 -5 -35.5t-3 -34.5q0 -58 38.5 -83t108.5 -25h55q20 0 27.5 -9t7.5 -21v-91q0 -34 -35 -34h-62zM929 894q0 28 -28 53t-54 25q-28 0 -61.5 -23t-87.5 -84h226q5 14 5 29zM566 791v74h66v337h66v-278q52 59 91 87
t82 28q25 0 48 -14t41.5 -35.5t29 -45.5t10.5 -45q0 -5 -1.5 -19.5t-6.5 -30t-9.5 -31t-10.5 -27.5h-406z" />
    <glyph glyph-name="uniFB68" unicode="&#x679;" horiz-adv-x="624" arabic-form="initial" 
d="M-26 0q-21 0 -28.5 9t-7.5 21v91q0 34 36 34h92h41t60.5 1t71 2.5t71.5 5.5q5 23 5 48q0 62 -27 144t-70 180l153 48q39 -101 56.5 -175.5t17.5 -134.5q0 -80 -25.5 -137t-63.5 -119q-64 -11 -145 -14.5t-139 -3.5h-98zM438 1004q0 28 -28 53t-54 25q-28 0 -61.5 -23
t-87.5 -83h226q5 12 5 28zM75 901v75h66v336h66v-278q52 59 91 87.5t82 28.5q24 0 47.5 -14.5t42 -35.5t29 -46t10.5 -45q0 -5 -1.5 -19t-6.5 -30l-10 -32t-10 -27h-406z" />
    <glyph glyph-name="uniFB69" unicode="&#x679;" horiz-adv-x="612" arabic-form="medial" 
d="M-26 0q-21 0 -28.5 9t-7.5 21v91q0 34 36 34h104q61 0 103 3.5t67.5 12t37.5 22.5t14 35l17 249l164 45l-32 -216q-2 -9 -3 -20.5t-1 -20.5q0 -64 39.5 -87t108.5 -23h56q21 0 28 -9t7 -21v-91q0 -34 -35 -34h-63q-107 0 -170 33t-83 127q-25 -50 -48 -82t-48 -48.5
t-54.5 -23t-71.5 -6.5h-137zM531 897q0 29 -28 54t-55 25t-61 -23.5t-87 -83.5h225q6 14 6 28zM167 794v75h67v336h66v-278q52 60 91 88t82 28q24 0 47.5 -14t42 -35.5t28.5 -45.5t10 -45q0 -6 -1.5 -20t-6.5 -29.5t-9.5 -31.5t-9.5 -28h-407z" />
    <glyph glyph-name="uniFB6A" unicode="&#x6a4;" horiz-adv-x="1931" arabic-form="isolated" 
d="M1716 9q-59 -4 -141.5 -7.5t-176 -6t-193 -6.5t-192.5 -5.5t-174.5 -3t-138.5 -1.5q-183 0 -316 18t-218.5 57t-125.5 101t-40 149q0 50 16 109t44 130l132 30q-23 -64 -34.5 -114t-11.5 -94q0 -68 33 -113t104 -70t182.5 -35t267.5 -10q41 0 120.5 1.5t174.5 3.5
t197.5 5.5t191.5 6.5t153 5.5t87 4.5q18 62 18 131q0 11 -0.5 25t-2.5 23q-66 -42 -127.5 -53.5t-115.5 -11.5q-62 0 -105.5 15t-71.5 40t-42 58t-14 68q0 56 26 121.5t74 121t116 92t150 36.5q61 0 107 -43t76 -111.5t44.5 -154.5t14.5 -172q0 -39 -7.5 -85.5t-19.5 -92.5
t-27.5 -88t-33.5 -74zM1663 436q-16 130 -67 197.5t-109 67.5q-38 0 -69 -18.5t-53.5 -46t-35 -60.5t-12.5 -61q0 -61 54.5 -86.5t138.5 -25.5q96 0 153 33zM1392 1278l116 114l114 -114l-114 -116zM1296 1080l116 114l92 -93l95 93l114 -114l-114 -115l-95 93l-92 -93z" />
    <glyph glyph-name="uniFB6B" unicode="&#x6a4;" horiz-adv-x="1831" arabic-form="final" 
d="M1181 293q0 -30 18.5 -55.5t51.5 -43.5t76.5 -28.5t96.5 -10.5h22q37 13 68 48.5t31 89.5q0 47 -12 86t-31 67t-40.5 43t-39.5 15q-44 0 -86.5 -19t-77 -49t-56 -68t-21.5 -75zM1802 0q-118 0 -206 7.5t-167 22.5q-76 -17 -169.5 -27t-189.5 -15.5t-191.5 -8t-177.5 -2.5
q-358 0 -529.5 75t-171.5 250q0 51 17 110.5t45 128.5l132 28q-46 -117 -46 -204q0 -68 33.5 -113t104 -71t182 -36.5t267.5 -10.5q71 0 164.5 3t193.5 14q-28 45 -28 80q0 71 35.5 146t94.5 135.5t134.5 99t153.5 38.5q45 0 82.5 -30.5t64.5 -73t41.5 -93t14.5 -91.5
q0 -22 -9 -51t-23 -58t-30 -55.5t-27 -42.5h271q21 0 28 -9t7 -21v-91q0 -34 -35 -34h-66zM1308 1170l116 114l114 -114l-114 -116zM1213 972l115 114l92 -93l95 93l114 -114l-114 -116l-95 93l-92 -93z" />
    <glyph glyph-name="uniFB6C" unicode="&#x6a4;" arabic-form="initial" 
d="M395 1269l116 114l114 -114l-114 -116zM300 1071l115 113l92 -93l95 93l114 -113l-114 -115l-95 93l-92 -93zM-26 0q-21 0 -28.5 9t-7.5 21v91q0 34 36 34h494q39 0 91 2.5t100 6.5q18 56 18 131q0 11 -1 24.5t-3 23.5q-65 -42 -126.5 -53.5t-115.5 -11.5q-62 0 -106 15
t-72 40t-41.5 58t-13.5 68q0 56 26 121.5t73 121t115.5 92t150.5 36.5q62 0 107.5 -43t75.5 -111.5t44.5 -154.5t14.5 -172q0 -41 -7 -86.5t-19.5 -90.5t-28.5 -87t-32 -76q-68 -4 -134 -6.5t-119 -2.5h-491zM319 515q0 -61 54 -86.5t138 -25.5q97 0 153 33
q-15 130 -65.5 197.5t-110.5 67.5q-37 0 -68.5 -18.5t-54.5 -46t-34.5 -60.5t-11.5 -61z" />
    <glyph glyph-name="uniFB6D" unicode="&#x6a4;" horiz-adv-x="946" arabic-form="medial" 
d="M404 1172l116 113l114 -113l-114 -116zM310 974l115 114l92 -93l94 93l114 -114l-114 -116l-94 93l-92 -93zM303 293q0 -30 19 -55.5t51.5 -43.5t76.5 -28.5t97 -10.5h21q38 13 69 49.5t31 88.5q0 47 -12.5 86t-31 67t-40 43t-39.5 15q-44 0 -87 -19t-77 -49t-56 -68
t-22 -75zM-26 0q-21 0 -28.5 9t-7.5 21v91q0 34 36 34h244q-30 35 -30 76q0 70 35.5 144.5t94 135t134 100t154.5 39.5q44 0 81.5 -30.5t65 -74t42 -93t14.5 -90.5q0 -22 -9 -51t-23.5 -58t-30 -55.5t-26.5 -42.5h263q20 0 27.5 -9t7.5 -21v-91q0 -34 -35 -34h-58
q-118 0 -207 8t-168 24q-108 -19 -241.5 -25.5t-267.5 -6.5h-67z" />
    <glyph glyph-name="uniFB6E" unicode="&#x6a6;" horiz-adv-x="1931" arabic-form="isolated" 
d="M1716 9q-59 -4 -141.5 -7.5t-176 -6t-193 -6.5t-192.5 -5.5t-174.5 -3t-138.5 -1.5q-183 0 -316 18t-218.5 57t-125.5 101t-40 149q0 50 16 109t44 130l132 30q-23 -64 -34.5 -114t-11.5 -94q0 -68 33 -113t104 -70t182.5 -35t267.5 -10q41 0 120.5 1.5t174.5 3.5
t197.5 5.5t191.5 6.5t153 5.5t87 4.5q18 62 18 131q0 11 -0.5 25t-2.5 23q-66 -42 -127.5 -53.5t-115.5 -11.5q-62 0 -105.5 15t-71.5 40t-42 58t-14 68q0 56 26 121.5t74 121t116 92t150 36.5q61 0 107 -43t76 -111.5t44.5 -154.5t14.5 -172q0 -39 -7.5 -85.5t-19.5 -92.5
t-27.5 -88t-33.5 -74zM1663 436q-16 130 -67 197.5t-109 67.5q-38 0 -69 -18.5t-53.5 -46t-35 -60.5t-12.5 -61q0 -61 54.5 -86.5t138.5 -25.5q96 0 153 33zM1296 1312l116 114l92 -94l95 94l114 -114l-114 -116l-95 93l-92 -93zM1296 1080l116 114l92 -93l95 93l114 -114
l-114 -115l-95 93l-92 -93z" />
    <glyph glyph-name="uniFB6F" unicode="&#x6a6;" horiz-adv-x="1831" arabic-form="final" 
d="M1181 293q0 -30 18.5 -55.5t51.5 -43.5t76.5 -28.5t96.5 -10.5h22q37 13 68 48.5t31 89.5q0 47 -12 86t-31 67t-40.5 43t-39.5 15q-44 0 -86.5 -19t-77 -49t-56 -68t-21.5 -75zM1802 0q-118 0 -206 7.5t-167 22.5q-76 -17 -169.5 -27t-189.5 -15.5t-191.5 -8t-177.5 -2.5
q-358 0 -529.5 75t-171.5 250q0 51 17 110.5t45 128.5l132 28q-46 -117 -46 -204q0 -68 33.5 -113t104 -71t182 -36.5t267.5 -10.5q71 0 164.5 3t193.5 14q-28 45 -28 80q0 71 35.5 146t94.5 135.5t134.5 99t153.5 38.5q45 0 82.5 -30.5t64.5 -73t41.5 -93t14.5 -91.5
q0 -22 -9 -51t-23 -58t-30 -55.5t-27 -42.5h271q21 0 28 -9t7 -21v-91q0 -34 -35 -34h-66zM1213 1207l115 114l92 -93l95 93l114 -114l-114 -116l-95 93l-92 -93zM1213 972l115 114l92 -93l95 93l114 -114l-114 -116l-95 93l-92 -93z" />
    <glyph glyph-name="uniFB70" unicode="&#x6a6;" arabic-form="initial" 
d="M303 1299l116 113l92 -93l95 93l114 -113l-114 -116l-95 93l-92 -93zM-26 0q-21 0 -28.5 9t-7.5 21v91q0 34 36 34h494q39 0 91 2.5t100 6.5q18 56 18 131q0 11 -1 24.5t-3 23.5q-65 -42 -126.5 -53.5t-115.5 -11.5q-62 0 -106 15t-72 40t-41.5 58t-13.5 68
q0 56 26 121.5t73 121t115.5 92t150.5 36.5q62 0 107.5 -43t75.5 -111.5t44.5 -154.5t14.5 -172q0 -41 -7 -86.5t-19.5 -90.5t-28.5 -87t-32 -76q-68 -4 -134 -6.5t-119 -2.5h-491zM319 515q0 -61 54 -86.5t138 -25.5q97 0 153 33q-15 130 -65.5 197.5t-110.5 67.5
q-37 0 -68.5 -18.5t-54.5 -46t-34.5 -60.5t-11.5 -61zM300 1071l115 113l92 -93l95 93l114 -113l-114 -115l-95 93l-92 -93z" />
    <glyph glyph-name="uniFB71" unicode="&#x6a6;" horiz-adv-x="946" arabic-form="medial" 
d="M306 1205l116 114l91 -93l95 93l113 -114l-113 -115l-95 93l-91 -93zM303 293q0 -30 19 -55.5t51.5 -43.5t76.5 -28.5t97 -10.5h21q38 13 69 49.5t31 88.5q0 47 -12.5 86t-31 67t-40 43t-39.5 15q-44 0 -87 -19t-77 -49t-56 -68t-22 -75zM-26 0q-21 0 -28.5 9t-7.5 21v91
q0 34 36 34h244q-30 35 -30 76q0 70 35.5 144.5t94 135t134 100t154.5 39.5q44 0 81.5 -30.5t65 -74t42 -93t14.5 -90.5q0 -22 -9 -51t-23.5 -58t-30 -55.5t-26.5 -42.5h263q20 0 27.5 -9t7.5 -21v-91q0 -34 -35 -34h-58q-118 0 -207 8t-168 24q-108 -19 -241.5 -25.5
t-267.5 -6.5h-67zM310 974l115 114l92 -93l94 93l114 -114l-114 -116l-94 93l-92 -93z" />
    <glyph glyph-name="uniFB72" unicode="&#x684;" horiz-adv-x="1126" arabic-form="isolated" 
d="M1026 246q-190 0 -351.5 -32.5t-278 -96t-182 -156.5t-65.5 -212q0 -82 30.5 -145t83 -106t117.5 -66t137 -23q76 0 156 11.5t189 62.5l62 -113q-53 -38 -111 -61t-112.5 -35.5t-101.5 -16t-77 -3.5q-111 0 -207 29.5t-166.5 87.5t-109.5 143t-39 197q0 130 57 242.5
t163 196t259 138t347 70.5q-3 2 -16.5 14t-28 26.5t-27.5 28t-19 18.5q-34 31 -67.5 56.5t-77 43.5t-101.5 29.5t-138 11.5q-18 0 -44.5 -3.5t-52.5 -9t-52 -12.5t-45 -13v144q44 15 103 30t128 15q84 0 145.5 -15t110 -39t86 -55t71.5 -62q23 -23 47.5 -53t51.5 -57
t57 -47.5t69 -25.5v-137zM585 -230l103 -103l-114 -116l-116 116l108 105l-105 105l116 114l114 -114z" />
    <glyph glyph-name="uniFB73" unicode="&#x684;" horiz-adv-x="1166" arabic-form="final" 
d="M522 -744q-111 0 -207 31.5t-166.5 90.5t-109.5 143.5t-39 191.5q0 127 51.5 241.5t154 203t257.5 146.5t361 73q-5 4 -17.5 13t-25 19.5t-26 20.5t-20.5 18q-32 29 -66.5 54.5t-78 44.5t-102.5 30t-137 11q-21 0 -46 -4t-52 -9.5t-52 -12t-44 -12.5v144q44 15 102 30
t129 15q82 0 144.5 -15t111 -39.5t86 -55t71.5 -61.5q35 -34 62 -61.5t52 -47t51.5 -32t59.5 -18.5v-144q-15 0 -41 -1t-55 -2t-55 -2.5t-39 -3.5q11 -55 90.5 -78t200.5 -23h76q20 0 27.5 -9t7.5 -21v-91q0 -34 -35 -34h-142q-61 0 -117 13t-100.5 41t-76.5 72.5t-43 106.5
q-149 -16 -257.5 -61t-179 -109.5t-105 -144.5t-34.5 -168q0 -84 30.5 -148.5t82 -106.5t118 -63t138.5 -21q76 0 156 11.5t189 62.5l62 -114q-53 -37 -111 -60t-112.5 -35.5t-101.5 -16t-77 -3.5zM572 -221l104 -105l-113 -116l-116 116l110 107l-107 107l116 114l113 -114
z" />
    <glyph glyph-name="uniFB74" unicode="&#x684;" horiz-adv-x="1159" arabic-form="initial" 
d="M-26 0q-21 0 -28.5 9t-7.5 21v91q0 34 36 34h112q106 0 198 14t182 32q90 19 177.5 32t184.5 13q-48 26 -84.5 64.5t-57.5 73.5q-16 31 -36.5 57.5t-52.5 46t-78.5 31t-117.5 11.5q-39 0 -97 -9.5t-97 -22.5v144q37 11 98.5 25t134.5 14q78 0 138.5 -23.5t106.5 -61
t79.5 -84t59.5 -92.5q29 -48 52 -79t46.5 -50.5t49.5 -30t57 -16.5v-147q-42 4 -84 6t-81 2q-112 0 -200 -15t-174 -38q-89 -24 -182.5 -38t-212.5 -14h-121zM499 -385l106 -106l-114 -116l-116 116l108 106l-108 107l116 114l114 -114z" />
    <glyph glyph-name="uniFB75" unicode="&#x684;" horiz-adv-x="1210" arabic-form="medial" 
d="M-26 0q-21 0 -28.5 9t-7.5 21v91q0 34 36 34h377q68 0 127 8t117.5 30t120.5 56t137 87q-44 15 -81.5 41.5t-62.5 51.5q-27 23 -54.5 41.5t-62 31.5t-81 20.5t-110.5 7.5q-39 0 -97 -9.5t-97 -22.5v144q37 11 98.5 25t132.5 14q82 0 144.5 -15t110.5 -39t85 -55t70 -63
q37 -35 64.5 -54.5t52.5 -30.5t50 -16t57 -11v-128q-54 0 -89.5 -11.5t-72.5 -31.5q32 -37 78.5 -54t117.5 -17h140q21 0 28.5 -9t7.5 -21v-91q0 -34 -36 -34h-90q-66 0 -117 10.5t-91 31t-72.5 52t-60.5 75.5q-73 -55 -134.5 -89t-118 -51.5t-115.5 -23t-128 -5.5h-345z
M557 -385l99 -100l-114 -115l-116 115l108 106l-101 101l115 114l114 -114z" />
    <glyph glyph-name="uniFB76" unicode="&#x683;" horiz-adv-x="1126" arabic-form="isolated" 
d="M808 -167l-116 -114l-92 93l-94 -93l-114 114l114 116l94 -94l92 94zM1026 246q-190 0 -351.5 -32.5t-278 -96t-182 -156.5t-65.5 -212q0 -82 30.5 -145t83 -106t117.5 -66t137 -23q76 0 156 11.5t189 62.5l62 -113q-53 -38 -111 -61t-112.5 -35.5t-101.5 -16t-77 -3.5
q-111 0 -207 29.5t-166.5 87.5t-109.5 143t-39 197q0 130 57 242.5t163 196t259 138t347 70.5q-3 2 -16.5 14t-28 26.5t-27.5 28t-19 18.5q-34 31 -67.5 56.5t-77 43.5t-101.5 29.5t-138 11.5q-18 0 -44.5 -3.5t-52.5 -9t-52 -12.5t-45 -13v144q44 15 103 30t128 15
q84 0 145.5 -15t110 -39t86 -55t71.5 -62q23 -23 47.5 -53t51.5 -57t57 -47.5t69 -25.5v-137z" />
    <glyph glyph-name="uniFB77" unicode="&#x683;" horiz-adv-x="1156" arabic-form="final" 
d="M522 -744q-111 0 -207 31.5t-166.5 90.5t-109.5 143.5t-39 191.5q0 127 51.5 241.5t154 203t257.5 146.5t361 73q-5 4 -17.5 13t-25 19.5t-26 20.5t-20.5 18q-32 29 -66.5 54.5t-78 44.5t-102.5 30t-137 11q-21 0 -46 -4t-52 -9.5t-52 -12t-44 -12.5v144q44 15 102 30
t129 15q82 0 144.5 -15t111 -39.5t86 -55t71.5 -61.5q35 -34 62 -61.5t52 -47t51.5 -32t59.5 -18.5v-144q-15 0 -41 -1t-55 -2t-55 -2.5t-39 -3.5q11 -55 90.5 -78t200.5 -23h66q20 0 27.5 -9t7.5 -21v-91q0 -34 -35 -34h-132q-61 0 -117 13t-100.5 41t-76.5 72.5t-43 106.5
q-149 -16 -257.5 -61t-179 -109.5t-105 -144.5t-34.5 -168q0 -84 30.5 -148.5t82 -106.5t118 -63t138.5 -21q76 0 156 11.5t189 62.5l62 -114q-53 -37 -111 -60t-112.5 -35.5t-101.5 -16t-77 -3.5zM748 -161l-116 -114l-91 93l-96 -93l-112 114l112 115l96 -93l91 93z" />
    <glyph glyph-name="uniFB78" unicode="&#x683;" horiz-adv-x="1159" arabic-form="initial" 
d="M-26 0q-21 0 -28.5 9t-7.5 21v91q0 34 36 34h112q106 0 198 14t182 32q90 19 177.5 32t184.5 13q-48 26 -84.5 64.5t-57.5 73.5q-16 31 -36.5 57.5t-52.5 46t-78.5 31t-117.5 11.5q-39 0 -97 -9.5t-97 -22.5v144q37 11 98.5 25t134.5 14q78 0 138.5 -23.5t106.5 -61
t79.5 -84t59.5 -92.5q29 -48 52 -79t46.5 -50.5t49.5 -30t57 -16.5v-147q-42 4 -84 6t-81 2q-112 0 -200 -15t-174 -38q-89 -24 -182.5 -38t-212.5 -14h-121zM734 -244l-115 -114l-92 93l-94 -93l-114 114l114 116l94 -94l92 94z" />
    <glyph glyph-name="uniFB79" unicode="&#x683;" horiz-adv-x="1200" arabic-form="medial" 
d="M-26 0q-21 0 -28.5 9t-7.5 21v91q0 34 36 34h377q68 0 127 8t117.5 30t120.5 56t137 87q-44 15 -81.5 41.5t-62.5 51.5q-27 23 -54.5 41.5t-62 31.5t-81 20.5t-110.5 7.5q-39 0 -97 -9.5t-97 -22.5v144q37 11 98.5 25t132.5 14q82 0 144.5 -15t110.5 -39t85 -55t70 -63
q37 -35 64.5 -54.5t52.5 -30.5t50 -16t57 -11v-128q-54 0 -89.5 -11.5t-72.5 -31.5q32 -37 78.5 -54t117.5 -17h130q21 0 28.5 -9t7.5 -21v-91q0 -34 -36 -34h-80q-66 0 -117 10.5t-91 31t-72.5 52t-60.5 75.5q-73 -55 -134.5 -89t-118 -51.5t-115.5 -23t-128 -5.5h-345z
M721 -254l-115 -113l-91 93l-96 -93l-114 113l114 116l96 -93l91 93z" />
    <glyph glyph-name="uniFB7A" unicode="&#x686;" horiz-adv-x="1126" arabic-form="isolated" 
d="M712 -319l-115 -114l-114 114l114 116zM808 -121l-116 -114l-92 93l-94 -93l-114 114l114 116l94 -94l92 94zM1026 246q-190 0 -351.5 -32.5t-278 -96t-182 -156.5t-65.5 -212q0 -82 30.5 -145t83 -106t117.5 -66t137 -23q76 0 156 11.5t189 62.5l62 -113
q-53 -38 -111 -61t-112.5 -35.5t-101.5 -16t-77 -3.5q-111 0 -207 29.5t-166.5 87.5t-109.5 143t-39 197q0 130 57 242.5t163 196t259 138t347 70.5q-3 2 -16.5 14t-28 26.5t-27.5 28t-19 18.5q-34 31 -67.5 56.5t-77 43.5t-101.5 29.5t-138 11.5q-18 0 -44.5 -3.5t-52.5 -9
t-52 -12.5t-45 -13v144q44 15 103 30t128 15q84 0 145.5 -15t110 -39t86 -55t71.5 -62q23 -23 47.5 -53t51.5 -57t57 -47.5t69 -25.5v-137z" />
    <glyph glyph-name="uniFB7B" unicode="&#x686;" horiz-adv-x="1156" arabic-form="final" 
d="M522 -744q-111 0 -207 31.5t-166.5 90.5t-109.5 143.5t-39 191.5q0 127 51.5 241.5t154 203t257.5 146.5t361 73q-5 4 -17.5 13t-25 19.5t-26 20.5t-20.5 18q-32 29 -66.5 54.5t-78 44.5t-102.5 30t-137 11q-21 0 -46 -4t-52 -9.5t-52 -12t-44 -12.5v144q44 15 102 30
t129 15q82 0 144.5 -15t111 -39.5t86 -55t71.5 -61.5q35 -34 62 -61.5t52 -47t51.5 -32t59.5 -18.5v-144q-15 0 -41 -1t-55 -2t-55 -2.5t-39 -3.5q11 -55 90.5 -78t200.5 -23h66q20 0 27.5 -9t7.5 -21v-91q0 -34 -35 -34h-132q-61 0 -117 13t-100.5 41t-76.5 72.5t-43 106.5
q-149 -16 -257.5 -61t-179 -109.5t-105 -144.5t-34.5 -168q0 -84 30.5 -148.5t82 -106.5t118 -63t138.5 -21q76 0 156 11.5t189 62.5l62 -114q-53 -37 -111 -60t-112.5 -35.5t-101.5 -16t-77 -3.5zM653 -323l-115 -113l-114 113l114 116zM748 -125l-116 -114l-91 93l-96 -93
l-112 114l112 116l96 -94l91 94z" />
    <glyph glyph-name="uniFB7C" unicode="&#x686;" horiz-adv-x="1159" arabic-form="initial" 
d="M-26 0q-21 0 -28.5 9t-7.5 21v91q0 34 36 34h112q106 0 198 14t182 32q90 19 177.5 32t184.5 13q-48 26 -84.5 64.5t-57.5 73.5q-16 31 -36.5 57.5t-52.5 46t-78.5 31t-117.5 11.5q-39 0 -97 -9.5t-97 -22.5v144q37 11 98.5 25t134.5 14q78 0 138.5 -23.5t106.5 -61
t79.5 -84t59.5 -92.5q29 -48 52 -79t46.5 -50.5t49.5 -30t57 -16.5v-147q-42 4 -84 6t-81 2q-112 0 -200 -15t-174 -38q-89 -24 -182.5 -38t-212.5 -14h-121zM639 -442l-115 -114l-114 114l114 116zM734 -244l-115 -114l-92 93l-94 -93l-114 114l114 116l94 -94l92 94z" />
    <glyph glyph-name="uniFB7D" unicode="&#x686;" horiz-adv-x="1200" arabic-form="medial" 
d="M-26 0q-21 0 -28.5 9t-7.5 21v91q0 34 36 34h377q68 0 127 8t117.5 30t120.5 56t137 87q-44 15 -81.5 41.5t-62.5 51.5q-27 23 -54.5 41.5t-62 31.5t-81 20.5t-110.5 7.5q-39 0 -97 -9.5t-97 -22.5v144q37 11 98.5 25t132.5 14q82 0 144.5 -15t110.5 -39t85 -55t70 -63
q37 -35 64.5 -54.5t52.5 -30.5t50 -16t57 -11v-128q-54 0 -89.5 -11.5t-72.5 -31.5q32 -37 78.5 -54t117.5 -17h130q21 0 28.5 -9t7.5 -21v-91q0 -34 -36 -34h-80q-66 0 -117 10.5t-91 31t-72.5 52t-60.5 75.5q-73 -55 -134.5 -89t-118 -51.5t-115.5 -23t-128 -5.5h-345z
M627 -452l-116 -114l-114 114l114 116zM721 -254l-115 -113l-91 93l-96 -93l-114 113l114 116l96 -93l91 93z" />
    <glyph glyph-name="uniFB7E" unicode="&#x687;" horiz-adv-x="1126" arabic-form="isolated" 
d="M1026 246q-190 0 -351.5 -32.5t-278 -96t-182 -156.5t-65.5 -212q0 -82 30.5 -145t83 -106t117.5 -66t137 -23q76 0 156 11.5t189 62.5l62 -113q-53 -38 -111 -61t-112.5 -35.5t-101.5 -16t-77 -3.5q-111 0 -207 29.5t-166.5 87.5t-109.5 143t-39 197q0 130 57 242.5
t163 196t259 138t347 70.5q-3 2 -16.5 14t-28 26.5t-27.5 28t-19 18.5q-34 31 -67.5 56.5t-77 43.5t-101.5 29.5t-138 11.5q-18 0 -44.5 -3.5t-52.5 -9t-52 -12.5t-45 -13v144q44 15 103 30t128 15q84 0 145.5 -15t110 -39t86 -55t71.5 -62q23 -23 47.5 -53t51.5 -57
t57 -47.5t69 -25.5v-137zM693 -235l115 -115l-116 -114l-92 93l-94 -93l-114 114l114 115l-114 114l114 116l94 -94l92 94l116 -116zM507 -235l93 -93l92 93l-92 93z" />
    <glyph glyph-name="uniFB7F" unicode="&#x687;" horiz-adv-x="1156" arabic-form="final" 
d="M522 -744q-111 0 -207 31.5t-166.5 90.5t-109.5 143.5t-39 191.5q0 127 51.5 241.5t154 203t257.5 146.5t361 73q-5 4 -17.5 13t-25 19.5t-26 20.5t-20.5 18q-32 29 -66.5 54.5t-78 44.5t-102.5 30t-137 11q-21 0 -46 -4t-52 -9.5t-52 -12t-44 -12.5v144q44 15 102 30
t129 15q82 0 144.5 -15t111 -39.5t86 -55t71.5 -61.5q35 -34 62 -61.5t52 -47t51.5 -32t59.5 -18.5v-144q-15 0 -41 -1t-55 -2t-55 -2.5t-39 -3.5q11 -55 90.5 -78t200.5 -23h66q20 0 27.5 -9t7.5 -21v-91q0 -34 -35 -34h-132q-61 0 -117 13t-100.5 41t-76.5 72.5t-43 106.5
q-149 -16 -257.5 -61t-179 -109.5t-105 -144.5t-34.5 -168q0 -84 30.5 -148.5t82 -106.5t118 -63t138.5 -21q76 0 156 11.5t189 62.5l62 -114q-53 -37 -111 -60t-112.5 -35.5t-101.5 -16t-77 -3.5zM637 -225l111 -111l-116 -114l-91 93l-96 -93l-112 114l108 111l-108 109
l112 116l96 -94l91 94l116 -116zM450 -225l91 -89l87 89l-87 88z" />
    <glyph glyph-name="uniFB80" unicode="&#x687;" horiz-adv-x="1159" arabic-form="initial" 
d="M-26 0q-21 0 -28.5 9t-7.5 21v91q0 34 36 34h112q106 0 198 14t182 32q90 19 177.5 32t184.5 13q-48 26 -84.5 64.5t-57.5 73.5q-16 31 -36.5 57.5t-52.5 46t-78.5 31t-117.5 11.5q-39 0 -97 -9.5t-97 -22.5v144q37 11 98.5 25t134.5 14q78 0 138.5 -23.5t106.5 -61
t79.5 -84t59.5 -92.5q29 -48 52 -79t46.5 -50.5t49.5 -30t57 -16.5v-147q-42 4 -84 6t-81 2q-112 0 -200 -15t-174 -38q-89 -24 -182.5 -38t-212.5 -14h-121zM621 -356l113 -114l-115 -114l-92 93l-94 -93l-114 114l112 114l-112 112l114 116l94 -94l92 94l115 -116z
M435 -356l92 -92l91 92l-91 91z" />
    <glyph glyph-name="uniFB81" unicode="&#x687;" horiz-adv-x="1200" arabic-form="medial" 
d="M-26 0q-21 0 -28.5 9t-7.5 21v91q0 34 36 34h377q68 0 127 8t117.5 30t120.5 56t137 87q-44 15 -81.5 41.5t-62.5 51.5q-27 23 -54.5 41.5t-62 31.5t-81 20.5t-110.5 7.5q-39 0 -97 -9.5t-97 -22.5v144q37 11 98.5 25t132.5 14q82 0 144.5 -15t110.5 -39t85 -55t70 -63
q37 -35 64.5 -54.5t52.5 -30.5t50 -16t57 -11v-128q-54 0 -89.5 -11.5t-72.5 -31.5q32 -37 78.5 -54t117.5 -17h130q21 0 28.5 -9t7.5 -21v-91q0 -34 -36 -34h-80q-66 0 -117 10.5t-91 31t-72.5 52t-60.5 75.5q-73 -55 -134.5 -89t-118 -51.5t-115.5 -23t-128 -5.5h-345z
M724 -484l-115 -113l-92 93l-95 -93l-114 113l114 116l95 -93l92 93zM721 -254l-115 -113l-91 93l-96 -93l-114 113l114 116l96 -93l91 93z" />
    <glyph glyph-name="uniFB82" unicode="&#x68d;" horiz-adv-x="832" arabic-form="isolated" 
d="M62 0v155h397q32 0 71 2.5t60 18.5q0 95 -36 221.5t-128 261.5l138 87q82 -155 114 -262t32 -185q0 -55 -13.5 -98.5t-34 -80t-44.5 -66t-49 -54.5h-507zM178 -279l116 114l91 -93l95 93l114 -114l-114 -115l-95 93l-91 -93z" />
    <glyph glyph-name="uniFB83" unicode="&#x68d;" horiz-adv-x="883" arabic-form="final" 
d="M919 155q20 0 28 -9t8 -21v-91q0 -34 -36 -34h-47q-34 0 -66 4.5t-59.5 19.5t-52.5 44t-48 78h-7q-49 -89 -126 -117.5t-200 -28.5h-251v155h210q68 0 126.5 2t101.5 8t67.5 20.5t24.5 36.5q0 45 -36.5 154t-129.5 283l138 87l148 -393q20 -54 36.5 -92.5t34.5 -61.5
t40 -33.5t54 -10.5h42zM155 -279l116 114l91 -93l95 93l114 -114l-114 -115l-95 93l-91 -93z" />
    <glyph glyph-name="uniFB84" unicode="&#x68c;" horiz-adv-x="832" arabic-form="isolated" 
d="M62 0v155h397q32 0 71 2.5t60 18.5q0 95 -36 221.5t-128 261.5l138 87q82 -155 114 -262t32 -185q0 -55 -13.5 -98.5t-34 -80t-44.5 -66t-49 -54.5h-507zM278 1067l116 114l91 -93l95 93l114 -114l-114 -116l-95 94l-91 -94z" />
    <glyph glyph-name="uniFB85" unicode="&#x68c;" horiz-adv-x="883" arabic-form="final" 
d="M919 155q20 0 28 -9t8 -21v-91q0 -34 -36 -34h-47q-34 0 -66 4.5t-59.5 19.5t-52.5 44t-48 78h-7q-49 -89 -126 -117.5t-200 -28.5h-251v155h210q68 0 126.5 2t101.5 8t67.5 20.5t24.5 36.5q0 45 -36.5 154t-129.5 283l138 87l148 -393q20 -54 36.5 -92.5t34.5 -61.5
t40 -33.5t54 -10.5h42zM278 1067l116 114l91 -93l95 93l114 -114l-114 -116l-95 94l-91 -94z" />
    <glyph glyph-name="uniFB86" unicode="&#x68e;" horiz-adv-x="832" arabic-form="isolated" 
d="M62 0v155h397q32 0 71 2.5t60 18.5q0 95 -36 221.5t-128 261.5l138 87q82 -155 114 -262t32 -185q0 -55 -13.5 -98.5t-34 -80t-44.5 -66t-49 -54.5h-507zM383 1265l115 113l114 -113l-114 -116zM288 1067l116 114l91 -93l95 93l114 -114l-114 -116l-95 94l-91 -94z" />
    <glyph glyph-name="uniFB87" unicode="&#x68e;" horiz-adv-x="883" arabic-form="final" 
d="M919 155q20 0 28 -9t8 -21v-91q0 -34 -36 -34h-47q-34 0 -66 4.5t-59.5 19.5t-52.5 44t-48 78h-7q-49 -89 -126 -117.5t-200 -28.5h-251v155h210q68 0 126.5 2t101.5 8t67.5 20.5t24.5 36.5q0 45 -36.5 154t-129.5 283l138 87l148 -393q20 -54 36.5 -92.5t34.5 -61.5
t40 -33.5t54 -10.5h42zM383 1265l115 113l114 -113l-114 -116zM288 1067l116 114l91 -93l95 93l114 -114l-114 -116l-95 94l-91 -94z" />
    <glyph glyph-name="uniFB88" unicode="&#x688;" horiz-adv-x="832" arabic-form="isolated" 
d="M62 0v155h397q32 0 71 2.5t60 18.5q0 95 -36 221.5t-128 261.5l138 87q82 -155 114 -262t32 -185q0 -55 -13.5 -98.5t-34 -80t-44.5 -66t-49 -54.5h-507zM602 1004q0 28 -27.5 53t-54.5 25q-28 0 -61 -23t-88 -83h226q5 12 5 28zM239 901v75h67v336h65v-278
q53 59 92 87.5t82 28.5q24 0 47 -14.5t41.5 -35.5t29 -46t10.5 -45q0 -5 -1.5 -19t-6 -30t-9.5 -32t-11 -27h-406z" />
    <glyph glyph-name="uniFB89" unicode="&#x688;" horiz-adv-x="883" arabic-form="final" 
d="M919 155q20 0 28 -9t8 -21v-91q0 -34 -36 -34h-47q-34 0 -66 4.5t-59.5 19.5t-52.5 44t-48 78h-7q-49 -89 -126 -117.5t-200 -28.5h-251v155h210q68 0 126.5 2t101.5 8t67.5 20.5t24.5 36.5q0 45 -36.5 154t-129.5 283l138 87l148 -393q20 -54 36.5 -92.5t34.5 -61.5
t40 -33.5t54 -10.5h42zM635 1004q0 28 -28 53t-54 25q-28 0 -62 -23t-87 -83h226q5 12 5 28zM271 901v75h67v336h66v-278q52 59 91 87.5t82 28.5q24 0 47.5 -14.5t42 -35.5t29 -46t10.5 -45q0 -5 -2 -19t-7 -30t-9.5 -32t-9.5 -27h-407z" />
    <glyph glyph-name="uniFB8A" unicode="&#x698;" horiz-adv-x="747" arabic-form="isolated" 
d="M625 222q0 -101 -46.5 -211t-121 -215.5t-168 -197t-184.5 -152.5l-105 129q123 78 219 167t161 175.5t99 165.5t34 141q0 65 -44 134t-102 140l144 90q62 -107 88 -194.5t26 -171.5zM330 1049l115 113l114 -113l-114 -116zM235 851l116 114l91 -94l96 94l113 -114
l-113 -116l-96 93l-91 -93z" />
    <glyph glyph-name="uniFB8B" unicode="&#x698;" horiz-adv-x="814" arabic-form="final" 
d="M850 155q20 0 28 -9t8 -21v-91q0 -34 -36 -34h-56q-46 0 -96 27t-84 89h-9q-10 -62 -48.5 -145t-101.5 -174.5t-151.5 -182t-196.5 -168.5l-107 129q146 91 244 186t158.5 183t86.5 161.5t26 118.5q0 13 -4.5 36t-19.5 57t-44 77.5t-77 102.5l143 91q32 -60 59.5 -123.5
t54.5 -128.5q37 -95 79 -138t102 -43h42zM326 1061l116 114l114 -114l-114 -115zM231 864l116 114l91 -93l96 93l114 -114l-114 -116l-96 94l-91 -94z" />
    <glyph glyph-name="uniFB8C" unicode="&#x691;" horiz-adv-x="747" arabic-form="isolated" 
d="M625 222q0 -101 -46.5 -211t-121 -215.5t-168 -197t-184.5 -152.5l-105 129q123 78 219 167t161 175.5t99 165.5t34 141q0 65 -44 134t-102 140l144 90q62 -107 88 -194.5t26 -171.5zM605 885q0 27 -28.5 52.5t-54.5 25.5q-27 0 -61 -23.5t-87 -83.5h225q6 13 6 29z
M241 782v74h67v337h66v-278q51 59 90.5 86.5t82.5 27.5q24 0 47.5 -13.5t42 -35t28.5 -46t10 -44.5q0 -5 -2 -19.5t-6.5 -30.5t-9 -31.5t-9.5 -26.5h-407z" />
    <glyph glyph-name="uniFB8D" unicode="&#x691;" horiz-adv-x="814" arabic-form="final" 
d="M850 155q20 0 28 -9t8 -21v-91q0 -34 -36 -34h-56q-46 0 -96 27t-84 89h-9q-10 -62 -48.5 -145t-101.5 -174.5t-151.5 -182t-196.5 -168.5l-107 129q146 91 244 186t158.5 183t86.5 161.5t26 118.5q0 13 -4.5 36t-19.5 57t-44 77.5t-77 102.5l143 91q32 -60 59.5 -123.5
t54.5 -128.5q37 -95 79 -138t102 -43h42zM592 897q0 29 -28 54t-54 25q-28 0 -61.5 -23.5t-87.5 -83.5h226q5 14 5 28zM228 794v75h67v336h66v-278q52 60 91 88t82 28q25 0 48 -14t41.5 -35.5t29 -45.5t10.5 -45q0 -6 -2 -20t-6.5 -29.5t-9.5 -31.5t-10 -28h-407z" />
    </font>
</defs>
</svg>
