<?xml version="1.0" standalone="no"?>
<!DOCTYPE svg PUBLIC "-//W3C//DTD SVG 1.1//EN" "http://www.w3.org/Graphics/SVG/1.1/DTD/svg11.dtd" >
<svg xmlns="http://www.w3.org/2000/svg" xmlns:xlink="http://www.w3.org/1999/xlink" version="1.1">
<metadata>
Created by FontForge 20170731 at Wed Oct 19 22:11:18 2016
 By Aleksey,,,
(c)  2014 Bahij Virtual Academy. All rights reserved.
</metadata>
<defs>
<font id="BahijMaged-Regular" horiz-adv-x="0" >
  <font-face 
    font-family="Bahij Maged"
    font-weight="400"
    font-stretch="normal"
    units-per-em="2048"
    panose-1="2 4 5 3 5 2 1 2 2 3"
    ascent="1638"
    descent="-410"
    x-height="752"
    cap-height="1133"
    bbox="-272 -1579 4194 2091"
    underline-thickness="50"
    underline-position="-150"
    unicode-range="U+0020-FEFC"
  />
<missing-glyph horiz-adv-x="728" 
d="M0 0v1020h728v-1020h-728zM117 947l247 -372l248 372h-495zM655 881l-247 -371l247 -372v743zM612 73l-248 371l-247 -371h495zM73 138l247 372l-247 371v-743z" />
    <glyph glyph-name="uniFB01" unicode="fi" horiz-adv-x="991" 
d="M763 1125q36 0 64 -28t28 -64t-28 -62.5t-64 -26.5t-63 26.5t-27 62.5t27 64t63 28zM825 167q0 -33 2 -57.5t6 -37.5q11 -19 53 -23l75 -5v-49q-44 2 -94 3.5t-110 1.5q-61 0 -111 -1.5t-94 -3.5v49l75 5q43 4 53 23q5 13 6.5 37.5t1.5 57.5v366q0 39 -2.5 65t-8.5 36
q-14 18 -61 18h-61v45q74 9 142 28.5t114 43.5l14 -12v-590zM558 1049l-19 -11q-23 22 -50 34.5t-58 12.5q-37 0 -61 -11t-37.5 -37t-17.5 -71t-4 -116v-139l198 6l-11 -87h-187v-463q0 -33 1.5 -57.5t6.5 -37.5q11 -19 53 -23l85 -5v-49q-52 2 -103 3.5t-112 1.5
q-60 0 -110 -1.5t-94 -3.5v49l75 5q43 4 53 23q4 13 6 37.5t2 57.5v463l-113 -6v36l113 51v69q0 81 16 138t52 98l96 108q32 37 72 53t75 16q18 0 37 -5t36 -14v-125z" />
    <glyph glyph-name="uniFB02" unicode="fl" horiz-adv-x="996" 
d="M693 993q0 12 -2 28t-6 30t-12 23t-21 9h-69v-34l-36 -11q-28 22 -56.5 34.5t-59.5 12.5q-37 0 -61 -11t-37.5 -37t-17.5 -71t-4 -116v-139l214 6l-11 -87h-203v-463q0 -33 1.5 -57.5t6.5 -37.5q11 -19 53 -23l85 -5v-49q-52 2 -103 3.5t-112 1.5q-60 0 -110 -1.5
t-94 -3.5v49l75 5q43 4 53 23q4 13 6 37.5t2 57.5v463l-113 -6v36l113 51v69q0 81 16 138t52 98l96 108q32 37 72 53t75 16q18 0 40 -5t58 -14v-45q47 9 108.5 23t124.5 37l14 -16v-1006q0 -33 1.5 -57.5t7.5 -37.5q10 -19 52 -23l75 -5v-49q-44 2 -94 3.5t-111 1.5
q-60 0 -110 -1.5t-94 -3.5v49l76 5q42 4 52 23q4 13 6 37.5t2 57.5v826z" />
    <glyph glyph-name="uniFC31" unicode="&#xfed3;&#xfef0;" horiz-adv-x="1744" arabic-form="isolated" 
d="M1448 584q0 16 -35 47q-38 33 -70 33q-61 0 -61 -58q0 -26 28 -44q24 -17 52 -17q24 0 55 14t31 25zM1448 1110q0 -18 -61.5 -90t-75.5 -72q-86 82 -166 142q0 12 62 88.5t79 76.5q20 0 91 -67t71 -78zM1034 0q109 -64 109 -109q0 -40 -48 -112q-61 -92 -161 -158
q-254 -166 -494 -166q-174 0 -260 109q-76 95 -76 256q0 144 66 299q64 151 86 151q14 0 14 -18q-3 1 -36 -94q-35 -102 -35 -191q0 -280 256 -280q140 0 288 43q159 46 234 118q-20 30 -99 78q-86 52 -167 78l104 223h713q24 0 24 29q0 28 -22 119q-23 98 -35 98
q-7 0 -29 -55q-29 -76 -133 -76q-47 0 -88 36q-53 47 -53 130q0 104 68 235q75 144 155 144q79 0 153 -154q68 -144 68 -268q0 -134 -52 -284q-42 -119 -71 -148q-32 -33 -86 -33h-393z" />
    <glyph glyph-name="uniFC32" unicode="&#xfed3;&#xfef2;" horiz-adv-x="1744" arabic-form="isolated" 
d="M562 -789q0 -17 -59 -84t-70 -67q-45 42 -160 131q0 13 60 85.5t77 72.5q20 0 86 -62.5t66 -75.5zM879 -760q0 -18 -59.5 -85.5t-73.5 -67.5q-65 68 -156 133q0 11 59 84t72 73q20 0 89 -63t69 -74zM1448 584q0 16 -35 47q-38 33 -70 33q-61 0 -61 -58q0 -26 28 -44
q24 -17 52 -17q24 0 55 14t31 25zM1448 1110q0 -18 -61.5 -90t-75.5 -72q-86 82 -166 142q0 12 62 88.5t79 76.5q20 0 91 -67t71 -78zM1034 0q109 -64 109 -109q0 -40 -48 -112q-61 -92 -161 -158q-254 -166 -494 -166q-174 0 -260 109q-76 95 -76 256q0 144 66 299
q64 151 86 151q14 0 14 -18q-3 1 -36 -94q-35 -102 -35 -191q0 -280 256 -280q140 0 288 43q159 46 234 118q-20 30 -99 78q-86 52 -167 78l104 223h713q24 0 24 29q0 28 -22 119q-23 98 -35 98q-7 0 -29 -55q-29 -76 -133 -76q-47 0 -88 36q-53 47 -53 130q0 104 68 235
q75 144 155 144q79 0 153 -154q68 -144 68 -268q0 -134 -52 -284q-42 -119 -71 -148q-32 -33 -86 -33h-393z" />
    <glyph glyph-name="uniFC43" unicode="&#xfedf;&#xfef0;" horiz-adv-x="1694" arabic-form="isolated" 
d="M1034 0q109 -64 109 -109q0 -40 -48 -112q-61 -92 -161 -158q-254 -166 -494 -166q-174 0 -260 109q-76 95 -76 256q0 144 66 299q64 151 86 151q14 0 14 -18q-3 1 -36 -94q-35 -102 -35 -191q0 -280 256 -280q140 0 288 43q159 46 234 118q-20 30 -99 78q-86 52 -167 78
l104 223h631q35 0 35 52q0 5 -43 389q-1 7 -33 250q-25 188 -25 225q0 57 51 151q11 29 21 29q8 0 8 -39q0 -81 62 -123q53 -36 53 -57q0 -54 -72 -148q68 -432 68 -538q0 -100 -30 -222q-25 -104 -46 -139q-36 -57 -143 -57h-318z" />
    <glyph glyph-name="uniFC44" unicode="&#xfedf;&#xfef2;" horiz-adv-x="1694" arabic-form="isolated" 
d="M562 -789q0 -17 -59 -84t-70 -67q-45 42 -160 131q0 13 60 85.5t77 72.5q20 0 86 -62.5t66 -75.5zM879 -760q0 -18 -59.5 -85.5t-73.5 -67.5q-65 68 -156 133q0 11 59 84t72 73q20 0 89 -63t69 -74zM1034 0q109 -64 109 -109q0 -40 -48 -112q-61 -92 -161 -158
q-254 -166 -494 -166q-174 0 -260 109q-76 95 -76 256q0 144 66 299q64 151 86 151q14 0 14 -18q-3 1 -36 -94q-35 -102 -35 -191q0 -280 256 -280q140 0 288 43q159 46 234 118q-20 30 -99 78q-86 52 -167 78l104 223h631q35 0 35 52q0 5 -43 389q-1 7 -33 250
q-25 188 -25 225q0 57 51 151q11 29 21 29q8 0 8 -39q0 -81 62 -123q53 -36 53 -57q0 -54 -72 -148q68 -432 68 -538q0 -100 -30 -222q-25 -104 -46 -139q-36 -57 -143 -57h-318z" />
    <glyph glyph-name="uniFC64" unicode="&#xfe8c;&#xfeae;" horiz-adv-x="1465" arabic-form="final" 
d="M710 0q-38 0 -58 14v-57q0 -72 -32.5 -167t-79.5 -155q-92 -114 -205 -114q-90 0 -228 61q-104 47 -104 62q0 10 14 10q3 0 41 -9.5t68 -9.5q59 0 151 45q87 42 158 101q66 54 118 134q48 74 48 108q0 30 -50 96.5t-50 75.5q0 36 21 119t32 83q2 0 55 -69
q77 -101 172 -101h248q54 0 65 43q44 156 68 156q4 0 4 -29q0 -73 19 -104q38 -66 100 -66h194v-227h-194q-155 0 -191 137q-77 -137 -198 -137h-186zM1278 739q0 -21 -57 -65q-68 0 -162 -35q-94 -47 -105 -47q-4 0 -4 6l76 76q-13 3 -66 37q-43 27 -43 53q0 40 67 88.5
t118 48.5q61 0 61 -35q0 -23 -28 -47q-19 -22 -33 -22q-9 0 -15.5 18.5t-35.5 18.5q-50 0 -50 -19q0 -22 52.5 -49t101.5 -27h27q20 0 50.5 2t35.5 2q10 0 10 -4z" />
    <glyph glyph-name="uniFC67" unicode="&#xfe8c;&#xfee6;" horiz-adv-x="1775" arabic-form="final" 
d="M668 782q0 -18 -61 -89.5t-77 -71.5q-67 70 -165 143q0 13 63 89.5t80 76.5q20 0 90 -67.5t70 -80.5zM1104 0q-58 0 -105 51q-33 45 -41 63q15 -55 15 -100q0 -60 -29 -170q-32 -124 -72 -176q-53 -70 -203 -116q-134 -41 -257 -41q-148 0 -228 86.5t-80 240.5
q0 136 63 275q52 114 71 114q8 0 8 -14q0 -4 -31 -91t-31 -140q0 -100 67 -166q76 -76 218 -76q168 0 308 56q132 53 132 110q0 64 -27 171q-32 127 -81 208q-19 30 -19 47q0 25 24 117q24 96 34 96q7 0 42 -64q38 -68 62 -131q20 -52 79 -90q52 -33 95 -33h221q54 0 65 43
q44 156 68 156q4 0 4 -29q0 -73 19 -104q38 -66 100 -66h194v-227h-194q-155 0 -191 137q-77 -137 -198 -137h-102zM1588 739q0 -21 -57 -65q-68 0 -162 -35q-94 -47 -105 -47q-4 0 -4 6l76 76q-13 3 -66 37q-43 27 -43 53q0 40 67 88.5t118 48.5q61 0 61 -35q0 -23 -28 -47
q-19 -22 -33 -22q-9 0 -15.5 18.5t-35.5 18.5q-50 0 -50 -19q0 -22 52.5 -49t101.5 -27h27q20 0 50.5 2t35.5 2q10 0 10 -4z" />
    <glyph glyph-name="uniFC6A" unicode="&#xfe92;&#xfeae;" horiz-adv-x="1475" arabic-form="final" 
d="M710 0q-38 0 -58 14v-57q0 -72 -32.5 -167t-79.5 -155q-92 -114 -205 -114q-90 0 -228 61q-104 47 -104 62q0 10 14 10q3 0 41 -9.5t68 -9.5q59 0 151 45q87 42 158 101q66 54 118 134q48 74 48 108q0 30 -50 96.5t-50 75.5q0 36 21 119t32 83q2 0 55 -69
q77 -101 172 -101h295q55 0 67 43q46 156 66 156q6 0 6 -29q0 -73 18 -104q39 -66 99 -66h157v-227h-157q-157 0 -189 137q-78 -137 -198 -137h-235zM1240 -260q0 -18 -61.5 -90t-75.5 -72q-80 80 -166 141q0 13 63.5 89.5t80.5 76.5q18 0 90 -67q69 -66 69 -78z" />
    <glyph glyph-name="uniFC70" unicode="&#xfe98;&#xfeae;" horiz-adv-x="1575" arabic-form="final" 
d="M1407 744q0 -18 -59.5 -86t-73.5 -68q-67 70 -158 133q0 12 60 85t73 73q20 0 89 -62.5t69 -74.5zM710 0q-38 0 -58 14v-57q0 -72 -32.5 -167t-79.5 -155q-92 -114 -205 -114q-90 0 -228 61q-104 47 -104 62q0 10 14 10q3 0 41 -9.5t68 -9.5q59 0 151 45q87 42 158 101
q66 54 118 134q48 74 48 108q0 30 -50 96.5t-50 75.5q0 36 21 119t32 83q2 0 55 -69q77 -101 172 -101h358q52 0 65 47q42 152 68 152q4 0 4 -23q0 -73 19 -104q43 -72 100 -72h194v-227h-194q-155 0 -191 137q-77 -137 -198 -137h-296zM1103 711q0 -17 -58 -84.5t-69 -67.5
q-45 43 -162 133q0 13 61 84.5t77 71.5q19 0 85 -62.5t66 -74.5z" />
    <glyph glyph-name="uniFC86" unicode="&#xfee0;&#xfef0;" horiz-adv-x="1771" arabic-form="final" 
d="M1034 0q109 -64 109 -109q0 -40 -48 -112q-61 -92 -161 -158q-254 -166 -494 -166q-174 0 -260 109q-76 95 -76 256q0 144 66 299q64 151 86 151q14 0 14 -18q-3 1 -36 -94q-35 -102 -35 -191q0 -280 256 -280q140 0 288 43q159 46 234 118q-20 30 -99 78q-86 52 -167 78
l104 223h554q63 0 98 29q0 207 -18 469q-1 17 -43 385q10 26 55 116q48 97 53 97q19 0 39 -555q5 -157 15 -375q14 -166 123 -166h94v-227h-152q-89 0 -119 72q-18 35 -28 116q-7 -18 -33 -79q-47 -109 -147 -109h-272z" />
    <glyph glyph-name="uniFC87" unicode="&#xfee0;&#xfef2;" horiz-adv-x="1771" arabic-form="final" 
d="M562 -789q0 -17 -59 -84t-70 -67q-45 42 -160 131q0 13 60 85.5t77 72.5q20 0 86 -62.5t66 -75.5zM879 -760q0 -18 -59.5 -85.5t-73.5 -67.5q-65 68 -156 133q0 11 59 84t72 73q20 0 89 -63t69 -74zM1034 0q109 -64 109 -109q0 -40 -48 -112q-61 -92 -161 -158
q-254 -166 -494 -166q-174 0 -260 109q-76 95 -76 256q0 144 66 299q64 151 86 151q14 0 14 -18q-3 1 -36 -94q-35 -102 -35 -191q0 -280 256 -280q140 0 288 43q159 46 234 118q-20 30 -99 78q-86 52 -167 78l104 223h554q63 0 98 29q0 207 -18 469q-1 17 -43 385
q10 26 55 116q48 97 53 97q19 0 39 -555q5 -157 15 -375q14 -166 123 -166h94v-227h-152q-89 0 -119 72q-18 35 -28 116q-7 -18 -33 -79q-47 -109 -147 -109h-272z" />
    <glyph glyph-name="uniFCCC" unicode="&#xfedf;&#xfee4;" horiz-adv-x="682" arabic-form="initial" 
d="M584 176q0 -28 -31 -128.5t-41 -100.5q-44 0 -127 86q-52 53 -111 53q-35 0 -141 -57q-53 -29 -104 -29h-29q-70 0 -70 113q0 114 70 114h129q91 0 127 80q-21 126 -61 428q-29 269 -29 412q0 19 35.5 83t40.5 64q10 0 10 -32q0 -103 76 -152q32 -30 32 -53
q0 -18 -37.5 -78.5t-37.5 -69.5q0 -126 22 -307q32 -257 90.5 -324t186.5 -102z" />
    <glyph glyph-name="uniFCFB" unicode="&#xfeb3;&#xfef0;" horiz-adv-x="2451" arabic-form="isolated" 
d="M1034 0q109 -64 109 -109q0 -40 -48 -112q-61 -92 -161 -158q-254 -166 -494 -166q-174 0 -260 109q-76 95 -76 256q0 144 66 299q64 151 86 151q14 0 14 -18q-3 1 -36 -94q-35 -102 -35 -191q0 -280 256 -280q140 0 288 43q159 46 234 118q-20 30 -99 78q-86 52 -167 78
l104 223h617q102 0 147 47q30 31 51 68q25 33 35 33q8 0 8 -25q-6 -53 -47 -127q8 -20 162 -20q74 0 101 9q50 18 50 77q2 2 49 75q40 62 46 62q18 0 18 -104q0 -65 -18 -91q17 -10 81 -23q61 -13 85 -13q38 0 38 32q0 57 -38 109q39 71 65 137q15 39 25 39q16 0 32 -57
q21 -73 21 -138q0 -78 -54 -199.5t-89 -121.5q-127 0 -172 9q-70 14 -70 108h-4q-39 -64 -105 -103q-48 -28 -137 -28h-162q-61 0 -61 18q0 20 18 72q-86 -72 -194 -72h-279z" />
    <glyph glyph-name="uniFCFC" unicode="&#xfeb3;&#xfef2;" horiz-adv-x="2451" arabic-form="isolated" 
d="M562 -789q0 -17 -59 -84t-70 -67q-45 42 -160 131q0 13 60 85.5t77 72.5q20 0 86 -62.5t66 -75.5zM879 -760q0 -18 -59.5 -85.5t-73.5 -67.5q-65 68 -156 133q0 11 59 84t72 73q20 0 89 -63t69 -74zM1034 0q109 -64 109 -109q0 -40 -48 -112q-61 -92 -161 -158
q-254 -166 -494 -166q-174 0 -260 109q-76 95 -76 256q0 144 66 299q64 151 86 151q14 0 14 -18q-3 1 -36 -94q-35 -102 -35 -191q0 -280 256 -280q140 0 288 43q159 46 234 118q-20 30 -99 78q-86 52 -167 78l104 223h617q102 0 147 47q30 31 51 68q25 33 35 33q8 0 8 -25
q-6 -53 -47 -127q8 -20 162 -20q74 0 101 9q50 18 50 77q2 2 49 75q40 62 46 62q18 0 18 -104q0 -65 -18 -91q17 -10 81 -23q61 -13 85 -13q38 0 38 32q0 57 -38 109q39 71 65 137q15 39 25 39q16 0 32 -57q21 -73 21 -138q0 -78 -54 -199.5t-89 -121.5q-127 0 -172 9
q-70 14 -70 108h-4q-39 -64 -105 -103q-48 -28 -137 -28h-162q-61 0 -61 18q0 20 18 72q-86 -72 -194 -72h-279z" />
    <glyph glyph-name="uniFCFD" unicode="&#xfeb7;&#xfef0;" horiz-adv-x="2451" arabic-form="isolated" 
d="M1948 1047q0 -17 -58.5 -84.5t-72.5 -67.5q-77 77 -158 133q0 12 60 85t73 73q20 0 88 -63.5t68 -75.5zM1034 0q109 -64 109 -109q0 -40 -48 -112q-61 -92 -161 -158q-254 -166 -494 -166q-174 0 -260 109q-76 95 -76 256q0 144 66 299q64 151 86 151q14 0 14 -18
q-3 1 -36 -94q-35 -102 -35 -191q0 -280 256 -280q140 0 288 43q159 46 234 118q-20 30 -99 78q-86 52 -167 78l104 223h617q102 0 147 47q30 31 51 68q25 33 35 33q8 0 8 -25q-6 -53 -47 -127q8 -20 162 -20q74 0 101 9q50 18 50 77q2 2 49 75q40 62 46 62q18 0 18 -104
q0 -65 -18 -91q17 -10 81 -23q61 -13 85 -13q38 0 38 32q0 57 -38 109q39 71 65 137q15 39 25 39q16 0 32 -57q21 -73 21 -138q0 -78 -54 -199.5t-89 -121.5q-127 0 -172 9q-70 14 -70 108h-4q-39 -64 -105 -103q-48 -28 -137 -28h-162q-61 0 -61 18q0 20 18 72
q-86 -72 -194 -72h-279zM1831 750q0 -18 -59.5 -85t-73.5 -67q-70 70 -158 131q0 12 60 85t73 73q20 0 89 -62.5t69 -74.5zM2152 778q0 -18 -59 -85.5t-74 -67.5q-65 68 -155 133q0 12 59.5 84.5t73.5 72.5q18 0 88 -64q67 -62 67 -73z" />
    <glyph glyph-name="uniFCFE" unicode="&#xfeb7;&#xfef2;" horiz-adv-x="2451" arabic-form="isolated" 
d="M562 -789q0 -17 -59 -84t-70 -67q-45 42 -160 131q0 13 60 85.5t77 72.5q20 0 86 -62.5t66 -75.5zM879 -760q0 -18 -59.5 -85.5t-73.5 -67.5q-65 68 -156 133q0 11 59 84t72 73q20 0 89 -63t69 -74zM1948 1047q0 -17 -58.5 -84.5t-72.5 -67.5q-77 77 -158 133q0 12 60 85
t73 73q20 0 88 -63.5t68 -75.5zM1034 0q109 -64 109 -109q0 -40 -48 -112q-61 -92 -161 -158q-254 -166 -494 -166q-174 0 -260 109q-76 95 -76 256q0 144 66 299q64 151 86 151q14 0 14 -18q-3 1 -36 -94q-35 -102 -35 -191q0 -280 256 -280q140 0 288 43q159 46 234 118
q-20 30 -99 78q-86 52 -167 78l104 223h617q102 0 147 47q30 31 51 68q25 33 35 33q8 0 8 -25q-6 -53 -47 -127q8 -20 162 -20q74 0 101 9q50 18 50 77q2 2 49 75q40 62 46 62q18 0 18 -104q0 -65 -18 -91q17 -10 81 -23q61 -13 85 -13q38 0 38 32q0 57 -38 109
q39 71 65 137q15 39 25 39q16 0 32 -57q21 -73 21 -138q0 -78 -54 -199.5t-89 -121.5q-127 0 -172 9q-70 14 -70 108h-4q-39 -64 -105 -103q-48 -28 -137 -28h-162q-61 0 -61 18q0 20 18 72q-86 -72 -194 -72h-279zM1831 750q0 -18 -59.5 -85t-73.5 -67q-70 70 -158 131
q0 12 60 85t73 73q20 0 89 -62.5t69 -74.5zM2152 778q0 -18 -59 -85.5t-74 -67.5q-65 68 -155 133q0 12 59.5 84.5t73.5 72.5q18 0 88 -64q67 -62 67 -73z" />
    <glyph glyph-name="uniFD05" unicode="&#xfebb;&#xfef0;" horiz-adv-x="2744" arabic-form="isolated" 
d="M2494 260q0 48 -75 106q-79 60 -154 60q-76 0 -235 -103q-148 -96 -148 -114q0 -14 90 -14q206 0 356 16q166 19 166 49zM1034 0q109 -64 109 -109q0 -40 -48 -112q-61 -92 -161 -158q-254 -166 -494 -166q-174 0 -260 109q-76 95 -76 256q0 144 66 299q64 151 86 151
q14 0 14 -18q-3 1 -36 -94q-35 -102 -35 -191q0 -280 256 -280q140 0 288 43q159 46 234 118q-20 30 -99 78q-86 52 -167 78l104 223h598q63 0 84 47q17 38 46 75q27 34 36 34q4 0 4 -37q0 -74 33 -100q40 -33 104 -33h43q40 31 266.5 208t354.5 177q93 0 181 -66
q85 -64 85 -120q0 -46 -81.5 -173.5t-131.5 -162.5q-113 -80 -508 -80q-231 0 -260 4q-46 -76 -57 -76q-8 0 -8 13q0 24 26 77q-57 19 -90 62q-15 19 -33 76q-44 -80 -86.5 -116t-107.5 -36h-279z" />
    <glyph glyph-name="uniFD06" unicode="&#xfebb;&#xfef2;" horiz-adv-x="2744" arabic-form="isolated" 
d="M562 -789q0 -17 -59 -84t-70 -67q-45 42 -160 131q0 13 60 85.5t77 72.5q20 0 86 -62.5t66 -75.5zM879 -760q0 -18 -59.5 -85.5t-73.5 -67.5q-65 68 -156 133q0 11 59 84t72 73q20 0 89 -63t69 -74zM2494 260q0 48 -75 106q-79 60 -154 60q-76 0 -235 -103
q-148 -96 -148 -114q0 -14 90 -14q206 0 356 16q166 19 166 49zM1034 0q109 -64 109 -109q0 -40 -48 -112q-61 -92 -161 -158q-254 -166 -494 -166q-174 0 -260 109q-76 95 -76 256q0 144 66 299q64 151 86 151q14 0 14 -18q-3 1 -36 -94q-35 -102 -35 -191q0 -280 256 -280
q140 0 288 43q159 46 234 118q-20 30 -99 78q-86 52 -167 78l104 223h598q63 0 84 47q17 38 46 75q27 34 36 34q4 0 4 -37q0 -74 33 -100q40 -33 104 -33h43q40 31 266.5 208t354.5 177q93 0 181 -66q85 -64 85 -120q0 -46 -81.5 -173.5t-131.5 -162.5q-113 -80 -508 -80
q-231 0 -260 4q-46 -76 -57 -76q-8 0 -8 13q0 24 26 77q-57 19 -90 62q-15 19 -33 76q-44 -80 -86.5 -116t-107.5 -36h-279z" />
    <glyph glyph-name="uniFD07" unicode="&#xfebf;&#xfef0;" horiz-adv-x="2744" arabic-form="isolated" 
d="M2494 260q0 48 -75 106q-79 60 -154 60q-76 0 -235 -103q-148 -96 -148 -114q0 -14 90 -14q206 0 356 16q166 19 166 49zM1997 905q0 -18 -62 -90t-77 -72q-68 71 -166 144q0 12 63 89t80 77q20 0 91 -67.5t71 -80.5zM1034 0q109 -64 109 -109q0 -40 -48 -112
q-61 -92 -161 -158q-254 -166 -494 -166q-174 0 -260 109q-76 95 -76 256q0 144 66 299q64 151 86 151q14 0 14 -18q-3 1 -36 -94q-35 -102 -35 -191q0 -280 256 -280q140 0 288 43q159 46 234 118q-20 30 -99 78q-86 52 -167 78l104 223h598q63 0 84 47q17 38 46 75
q27 34 36 34q4 0 4 -37q0 -74 33 -100q40 -33 104 -33h43q40 31 266.5 208t354.5 177q93 0 181 -66q85 -64 85 -120q0 -46 -81.5 -173.5t-131.5 -162.5q-113 -80 -508 -80q-231 0 -260 4q-46 -76 -57 -76q-8 0 -8 13q0 24 26 77q-57 19 -90 62q-15 19 -33 76
q-44 -80 -86.5 -116t-107.5 -36h-279z" />
    <glyph glyph-name="uniFD08" unicode="&#xfebf;&#xfef2;" horiz-adv-x="2744" arabic-form="isolated" 
d="M562 -789q0 -17 -59 -84t-70 -67q-45 42 -160 131q0 13 60 85.5t77 72.5q20 0 86 -62.5t66 -75.5zM879 -760q0 -18 -59.5 -85.5t-73.5 -67.5q-65 68 -156 133q0 11 59 84t72 73q20 0 89 -63t69 -74zM2494 260q0 48 -75 106q-79 60 -154 60q-76 0 -235 -103
q-148 -96 -148 -114q0 -14 90 -14q206 0 356 16q166 19 166 49zM1997 905q0 -18 -62 -90t-77 -72q-68 71 -166 144q0 12 63 89t80 77q20 0 91 -67.5t71 -80.5zM1034 0q109 -64 109 -109q0 -40 -48 -112q-61 -92 -161 -158q-254 -166 -494 -166q-174 0 -260 109
q-76 95 -76 256q0 144 66 299q64 151 86 151q14 0 14 -18q-3 1 -36 -94q-35 -102 -35 -191q0 -280 256 -280q140 0 288 43q159 46 234 118q-20 30 -99 78q-86 52 -167 78l104 223h598q63 0 84 47q17 38 46 75q27 34 36 34q4 0 4 -37q0 -74 33 -100q40 -33 104 -33h43
q40 31 266.5 208t354.5 177q93 0 181 -66q85 -64 85 -120q0 -46 -81.5 -173.5t-131.5 -162.5q-113 -80 -508 -80q-231 0 -260 4q-46 -76 -57 -76q-8 0 -8 13q0 24 26 77q-57 19 -90 62q-15 19 -33 76q-44 -80 -86.5 -116t-107.5 -36h-279z" />
    <glyph glyph-name="uniFD0D" unicode="&#xfeb7;&#xfeae;" horiz-adv-x="1981" arabic-form="isolated" 
d="M1478 1047q0 -17 -58.5 -84.5t-72.5 -67.5q-77 77 -158 133q0 12 60 85t73 73q20 0 88 -63.5t68 -75.5zM710 0q-38 0 -58 14v-57q0 -72 -32.5 -167t-79.5 -155q-92 -114 -205 -114q-90 0 -228 61q-104 47 -104 62q0 10 14 10q3 0 41 -9.5t68 -9.5q59 0 151 45
q87 42 158 101q66 54 118 134q48 74 48 108q0 30 -50 96.5t-50 75.5q0 36 21 119t32 83q2 0 55 -69q77 -101 172 -101h181q102 0 147 47q30 31 51 68q25 33 35 33q8 0 8 -25q-6 -53 -47 -127q8 -20 162 -20q74 0 101 9q50 18 50 77q2 2 49 75q40 62 46 62q18 0 18 -104
q0 -65 -18 -91q17 -10 81 -23q61 -13 85 -13q38 0 38 32q0 57 -38 109q39 71 65 137q15 39 25 39q16 0 32 -57q21 -73 21 -138q0 -78 -54 -199.5t-89 -121.5q-127 0 -172 9q-70 14 -70 108h-4q-39 -64 -105 -103q-48 -28 -137 -28h-162q-61 0 -61 18q0 20 18 72
q-86 -72 -194 -72h-133zM1361 750q0 -18 -59.5 -85t-73.5 -67q-70 70 -158 131q0 12 60 85t73 73q20 0 89 -62.5t69 -74.5zM1682 778q0 -18 -59 -85.5t-74 -67.5q-65 68 -155 133q0 12 59.5 84.5t73.5 72.5q18 0 88 -64q67 -62 67 -73z" />
    <glyph glyph-name="uniFD0E" unicode="&#xfeb3;&#xfeae;" horiz-adv-x="1981" arabic-form="isolated" 
d="M710 0q-38 0 -58 14v-57q0 -72 -32.5 -167t-79.5 -155q-92 -114 -205 -114q-90 0 -228 61q-104 47 -104 62q0 10 14 10q3 0 41 -9.5t68 -9.5q59 0 151 45q87 42 158 101q66 54 118 134q48 74 48 108q0 30 -50 96.5t-50 75.5q0 36 21 119t32 83q2 0 55 -69
q77 -101 172 -101h181q102 0 147 47q30 31 51 68q25 33 35 33q8 0 8 -25q-6 -53 -47 -127q8 -20 162 -20q74 0 101 9q50 18 50 77q2 2 49 75q40 62 46 62q18 0 18 -104q0 -65 -18 -91q17 -10 81 -23q61 -13 85 -13q38 0 38 32q0 57 -38 109q39 71 65 137q15 39 25 39
q16 0 32 -57q21 -73 21 -138q0 -78 -54 -199.5t-89 -121.5q-127 0 -172 9q-70 14 -70 108h-4q-39 -64 -105 -103q-48 -28 -137 -28h-162q-61 0 -61 18q0 20 18 72q-86 -72 -194 -72h-133z" />
    <glyph glyph-name="uniFD0F" unicode="&#xfebb;&#xfeae;" horiz-adv-x="2274" arabic-form="isolated" 
d="M2024 260q0 48 -75 106q-79 60 -154 60q-76 0 -235 -103q-148 -96 -148 -114q0 -14 90 -14q206 0 356 16q166 19 166 49zM710 0q-38 0 -58 14v-57q0 -72 -32.5 -167t-79.5 -155q-92 -114 -205 -114q-90 0 -228 61q-104 47 -104 62q0 10 14 10q3 0 41 -9.5t68 -9.5
q59 0 151 45q87 42 158 101q66 54 118 134q48 74 48 108q0 30 -50 96.5t-50 75.5q0 36 21 119t32 83q2 0 55 -69q77 -101 172 -101h162q63 0 84 47q17 38 46 75q27 34 36 34q4 0 4 -37q0 -74 33 -100q40 -33 104 -33h43q40 31 266.5 208t354.5 177q93 0 181 -66
q85 -64 85 -120q0 -46 -81.5 -173.5t-131.5 -162.5q-113 -80 -508 -80q-231 0 -260 4q-46 -76 -57 -76q-8 0 -8 13q0 24 26 77q-57 19 -90 62q-15 19 -33 76q-44 -80 -86.5 -116t-107.5 -36h-133z" />
    <glyph glyph-name="uniFD10" unicode="&#xfebf;&#xfeae;" horiz-adv-x="2274" arabic-form="isolated" 
d="M2024 260q0 48 -75 106q-79 60 -154 60q-76 0 -235 -103q-148 -96 -148 -114q0 -14 90 -14q206 0 356 16q166 19 166 49zM1527 905q0 -18 -62 -90t-77 -72q-68 71 -166 144q0 12 63 89t80 77q20 0 91 -67.5t71 -80.5zM710 0q-38 0 -58 14v-57q0 -72 -32.5 -167
t-79.5 -155q-92 -114 -205 -114q-90 0 -228 61q-104 47 -104 62q0 10 14 10q3 0 41 -9.5t68 -9.5q59 0 151 45q87 42 158 101q66 54 118 134q48 74 48 108q0 30 -50 96.5t-50 75.5q0 36 21 119t32 83q2 0 55 -69q77 -101 172 -101h162q63 0 84 47q17 38 46 75q27 34 36 34
q4 0 4 -37q0 -74 33 -100q40 -33 104 -33h43q40 31 266.5 208t354.5 177q93 0 181 -66q85 -64 85 -120q0 -46 -81.5 -173.5t-131.5 -162.5q-113 -80 -508 -80q-231 0 -260 4q-46 -76 -57 -76q-8 0 -8 13q0 24 26 77q-57 19 -90 62q-15 19 -33 76q-44 -80 -86.5 -116
t-107.5 -36h-133z" />
    <glyph glyph-name="uniFD17" unicode="&#xfeb4;&#xfef0;" horiz-adv-x="2445" arabic-form="final" 
d="M1034 0q109 -64 109 -109q0 -40 -48 -112q-61 -92 -161 -158q-254 -166 -494 -166q-174 0 -260 109q-76 95 -76 256q0 144 66 299q64 151 86 151q14 0 14 -18q-3 1 -36 -94q-35 -102 -35 -191q0 -280 256 -280q140 0 288 43q159 46 234 118q-20 30 -99 78q-86 52 -167 78
l104 223h610q54 0 94 25q15 9 61 84q27 43 43 43q15 0 15 -33q0 -55 -37 -133h123q67 0 141 18q0 38 53 105q71 90 84 90q10 0 10 -33q0 -46 -21 -91q-21 -42 -22 -42q0 -8 35 -19q40 -14 84 -14q39 0 43 19q0 7 14 39q9 20 23 47q53 104 68 104q8 0 8 -24q0 -34 -4 -57
t-4 -27q0 -33 34 -65q37 -36 84 -36h105v-227h-180q-110 0 -134 127h-10q-35 -131 -104 -131q-66 0 -110 23t-50 57q-12 -25 -53 -66q-29 -28 -246 -28q-96 0 -96 14q0 35 4 49q-60 -45 -121 -45h-325z" />
    <glyph glyph-name="uniFD18" unicode="&#xfeb4;&#xfef2;" horiz-adv-x="2445" arabic-form="final" 
d="M562 -789q0 -17 -59 -84t-70 -67q-45 42 -160 131q0 13 60 85.5t77 72.5q20 0 86 -62.5t66 -75.5zM879 -760q0 -18 -59.5 -85.5t-73.5 -67.5q-65 68 -156 133q0 11 59 84t72 73q20 0 89 -63t69 -74zM1034 0q109 -64 109 -109q0 -40 -48 -112q-61 -92 -161 -158
q-254 -166 -494 -166q-174 0 -260 109q-76 95 -76 256q0 144 66 299q64 151 86 151q14 0 14 -18q-3 1 -36 -94q-35 -102 -35 -191q0 -280 256 -280q140 0 288 43q159 46 234 118q-20 30 -99 78q-86 52 -167 78l104 223h610q54 0 94 25q15 9 61 84q27 43 43 43q15 0 15 -33
q0 -55 -37 -133h123q67 0 141 18q0 38 53 105q71 90 84 90q10 0 10 -33q0 -46 -21 -91q-21 -42 -22 -42q0 -8 35 -19q40 -14 84 -14q39 0 43 19q0 7 14 39q9 20 23 47q53 104 68 104q8 0 8 -24q0 -34 -4 -57t-4 -27q0 -33 34 -65q37 -36 84 -36h105v-227h-180
q-110 0 -134 127h-10q-35 -131 -104 -131q-66 0 -110 23t-50 57q-12 -25 -53 -66q-29 -28 -246 -28q-96 0 -96 14q0 35 4 49q-60 -45 -121 -45h-325z" />
    <glyph glyph-name="uniFD19" unicode="&#xfeb8;&#xfef0;" horiz-adv-x="2445" arabic-form="final" 
d="M1034 0q109 -64 109 -109q0 -40 -48 -112q-61 -92 -161 -158q-254 -166 -494 -166q-174 0 -260 109q-76 95 -76 256q0 144 66 299q64 151 86 151q14 0 14 -18q-3 1 -36 -94q-35 -102 -35 -191q0 -280 256 -280q140 0 288 43q159 46 234 118q-20 30 -99 78q-86 52 -167 78
l104 223h610q54 0 94 25q15 9 61 84q27 43 43 43q15 0 15 -33q0 -55 -37 -133h123q67 0 141 18q0 38 53 105q71 90 84 90q10 0 10 -33q0 -46 -21 -91q-21 -42 -22 -42q0 -8 35 -19q40 -14 84 -14q39 0 43 19q0 7 14 39q9 20 23 47q53 104 68 104q8 0 8 -24q0 -34 -4 -57
t-4 -27q0 -33 34 -65q37 -36 84 -36h105v-227h-180q-110 0 -134 127h-10q-35 -131 -104 -131q-66 0 -110 23t-50 57q-12 -25 -53 -66q-29 -28 -246 -28q-96 0 -96 14q0 35 4 49q-60 -45 -121 -45h-325zM2182 778q0 -18 -58.5 -85.5t-74.5 -67.5q-65 68 -155 133
q0 12 60 84.5t73 72.5q19 0 87 -63t68 -74zM1861 750q0 -18 -59.5 -85t-73.5 -67q-69 68 -156 131q0 12 59 85t72 73q20 0 89 -62.5t69 -74.5zM1980 1047q0 -17 -60 -84.5t-74 -67.5q-65 68 -155 133q0 12 59 85t72 73q20 0 89 -63.5t69 -75.5z" />
    <glyph glyph-name="uniFD1A" unicode="&#xfeb8;&#xfef2;" horiz-adv-x="2445" arabic-form="final" 
d="M562 -789q0 -17 -59 -84t-70 -67q-45 42 -160 131q0 13 60 85.5t77 72.5q20 0 86 -62.5t66 -75.5zM879 -760q0 -18 -59.5 -85.5t-73.5 -67.5q-65 68 -156 133q0 11 59 84t72 73q20 0 89 -63t69 -74zM1034 0q109 -64 109 -109q0 -40 -48 -112q-61 -92 -161 -158
q-254 -166 -494 -166q-174 0 -260 109q-76 95 -76 256q0 144 66 299q64 151 86 151q14 0 14 -18q-3 1 -36 -94q-35 -102 -35 -191q0 -280 256 -280q140 0 288 43q159 46 234 118q-20 30 -99 78q-86 52 -167 78l104 223h610q54 0 94 25q15 9 61 84q27 43 43 43q15 0 15 -33
q0 -55 -37 -133h123q67 0 141 18q0 38 53 105q71 90 84 90q10 0 10 -33q0 -46 -21 -91q-21 -42 -22 -42q0 -8 35 -19q40 -14 84 -14q39 0 43 19q0 7 14 39q9 20 23 47q53 104 68 104q8 0 8 -24q0 -34 -4 -57t-4 -27q0 -33 34 -65q37 -36 84 -36h105v-227h-180
q-110 0 -134 127h-10q-35 -131 -104 -131q-66 0 -110 23t-50 57q-12 -25 -53 -66q-29 -28 -246 -28q-96 0 -96 14q0 35 4 49q-60 -45 -121 -45h-325zM2182 778q0 -18 -58.5 -85.5t-74.5 -67.5q-65 68 -155 133q0 12 60 84.5t73 72.5q19 0 87 -63t68 -74zM1861 750
q0 -18 -59.5 -85t-73.5 -67q-69 68 -156 131q0 12 59 85t72 73q20 0 89 -62.5t69 -74.5zM1980 1047q0 -17 -60 -84.5t-74 -67.5q-65 68 -155 133q0 12 59 85t72 73q20 0 89 -63.5t69 -75.5z" />
    <glyph glyph-name="uniFD21" unicode="&#xfebc;&#xfef0;" horiz-adv-x="2749" arabic-form="final" 
d="M2484 293q0 43 -70 99q-75 59 -149 59q-134 0 -383 -224q25 -2 99 -2q40 0 122.5 1t114.5 1q84 0 171 19q95 21 95 47zM1034 0q109 -64 109 -109q0 -40 -48 -112q-61 -92 -161 -158q-254 -166 -494 -166q-174 0 -260 109q-76 95 -76 256q0 144 66 299q64 151 86 151
q14 0 14 -18q-3 1 -36 -94q-35 -102 -35 -191q0 -280 256 -280q140 0 288 43q159 46 234 118q-20 30 -99 78q-86 52 -167 78l104 223h559q87 0 113 52q57 114 86 114q10 0 10 -14q0 -4 -3 -14t-3 -23q0 -54 35 -82q40 -33 156 -33q45 40 227 195q241 203 385 203
q96 0 182 -67q78 -61 78 -114q0 -32 -43 -117q-40 -78 -61 -100h227v-227h-393q-115 0 -152 37q-19 -12 -130 -24q-116 -13 -220 -13q-180 0 -201 10q-42 -82 -55 -82q-8 0 -8 17q0 25 22 84q-96 26 -118 133q-50 -96 -91 -125q-51 -37 -108 -37h-275z" />
    <glyph glyph-name="uniFD22" unicode="&#xfebc;&#xfef2;" horiz-adv-x="2749" arabic-form="final" 
d="M562 -789q0 -17 -59 -84t-70 -67q-45 42 -160 131q0 13 60 85.5t77 72.5q20 0 86 -62.5t66 -75.5zM879 -760q0 -18 -59.5 -85.5t-73.5 -67.5q-65 68 -156 133q0 11 59 84t72 73q20 0 89 -63t69 -74zM2484 293q0 43 -70 99q-75 59 -149 59q-134 0 -383 -224q25 -2 99 -2
q40 0 122.5 1t114.5 1q84 0 171 19q95 21 95 47zM1034 0q109 -64 109 -109q0 -40 -48 -112q-61 -92 -161 -158q-254 -166 -494 -166q-174 0 -260 109q-76 95 -76 256q0 144 66 299q64 151 86 151q14 0 14 -18q-3 1 -36 -94q-35 -102 -35 -191q0 -280 256 -280q140 0 288 43
q159 46 234 118q-20 30 -99 78q-86 52 -167 78l104 223h559q87 0 113 52q57 114 86 114q10 0 10 -14q0 -4 -3 -14t-3 -23q0 -54 35 -82q40 -33 156 -33q45 40 227 195q241 203 385 203q96 0 182 -67q78 -61 78 -114q0 -32 -43 -117q-40 -78 -61 -100h227v-227h-393
q-115 0 -152 37q-19 -12 -130 -24q-116 -13 -220 -13q-180 0 -201 10q-42 -82 -55 -82q-8 0 -8 17q0 25 22 84q-96 26 -118 133q-50 -96 -91 -125q-51 -37 -108 -37h-275z" />
    <glyph glyph-name="uniFD23" unicode="&#xfec0;&#xfef0;" horiz-adv-x="2749" arabic-form="final" 
d="M2484 293q0 43 -70 99q-75 59 -149 59q-134 0 -383 -224q25 -2 99 -2q40 0 122.5 1t114.5 1q84 0 171 19q95 21 95 47zM2028 905q0 -18 -61 -90t-76 -72q-68 71 -166 144q0 12 63 89t80 77q20 0 90 -67.5t70 -80.5zM1034 0q109 -64 109 -109q0 -40 -48 -112
q-61 -92 -161 -158q-254 -166 -494 -166q-174 0 -260 109q-76 95 -76 256q0 144 66 299q64 151 86 151q14 0 14 -18q-3 1 -36 -94q-35 -102 -35 -191q0 -280 256 -280q140 0 288 43q159 46 234 118q-20 30 -99 78q-86 52 -167 78l104 223h559q87 0 113 52q57 114 86 114
q10 0 10 -14q0 -4 -3 -14t-3 -23q0 -54 35 -82q40 -33 156 -33q45 40 227 195q241 203 385 203q96 0 182 -67q78 -61 78 -114q0 -32 -43 -117q-40 -78 -61 -100h227v-227h-393q-115 0 -152 37q-19 -12 -130 -24q-116 -13 -220 -13q-180 0 -201 10q-42 -82 -55 -82
q-8 0 -8 17q0 25 22 84q-96 26 -118 133q-50 -96 -91 -125q-51 -37 -108 -37h-275z" />
    <glyph glyph-name="uniFD24" unicode="&#xfec0;&#xfef2;" horiz-adv-x="2749" arabic-form="final" 
d="M562 -789q0 -17 -59 -84t-70 -67q-45 42 -160 131q0 13 60 85.5t77 72.5q20 0 86 -62.5t66 -75.5zM879 -760q0 -18 -59.5 -85.5t-73.5 -67.5q-65 68 -156 133q0 11 59 84t72 73q20 0 89 -63t69 -74zM2484 293q0 43 -70 99q-75 59 -149 59q-134 0 -383 -224q25 -2 99 -2
q40 0 122.5 1t114.5 1q84 0 171 19q95 21 95 47zM2028 905q0 -18 -61 -90t-76 -72q-68 71 -166 144q0 12 63 89t80 77q20 0 90 -67.5t70 -80.5zM1034 0q109 -64 109 -109q0 -40 -48 -112q-61 -92 -161 -158q-254 -166 -494 -166q-174 0 -260 109q-76 95 -76 256
q0 144 66 299q64 151 86 151q14 0 14 -18q-3 1 -36 -94q-35 -102 -35 -191q0 -280 256 -280q140 0 288 43q159 46 234 118q-20 30 -99 78q-86 52 -167 78l104 223h559q87 0 113 52q57 114 86 114q10 0 10 -14q0 -4 -3 -14t-3 -23q0 -54 35 -82q40 -33 156 -33q45 40 227 195
q241 203 385 203q96 0 182 -67q78 -61 78 -114q0 -32 -43 -117q-40 -78 -61 -100h227v-227h-393q-115 0 -152 37q-19 -12 -130 -24q-116 -13 -220 -13q-180 0 -201 10q-42 -82 -55 -82q-8 0 -8 17q0 25 22 84q-96 26 -118 133q-50 -96 -91 -125q-51 -37 -108 -37h-275z" />
    <glyph glyph-name="uniFD29" unicode="&#xfeb8;&#xfeae;" horiz-adv-x="2025" arabic-form="final" 
d="M710 0q-38 0 -58 14v-57q0 -72 -32.5 -167t-79.5 -155q-92 -114 -205 -114q-90 0 -228 61q-104 47 -104 62q0 10 14 10q3 0 41 -9.5t68 -9.5q59 0 151 45q87 42 158 101q66 54 118 134q48 74 48 108q0 30 -50 96.5t-50 75.5q0 36 21 119t32 83q2 0 55 -69
q77 -101 172 -101h224q54 0 94 25q15 9 61 84q27 43 43 43q15 0 15 -33q0 -55 -37 -133h123q67 0 141 18q0 38 53 105q71 90 84 90q10 0 10 -33q0 -46 -21 -91q-21 -42 -22 -42q0 -8 35 -19q40 -14 84 -14q39 0 43 19q0 7 14 39q9 20 23 47q53 104 68 104q8 0 8 -24
q0 -34 -4 -57t-4 -27q0 -33 34 -65q37 -36 84 -36h105v-227h-180q-110 0 -134 127h-10q-35 -131 -104 -131q-66 0 -110 23t-50 57q-12 -25 -53 -66q-29 -28 -246 -28q-96 0 -96 14q0 35 4 49q-60 -45 -121 -45h-229zM1762 778q0 -18 -58.5 -85.5t-74.5 -67.5
q-65 68 -155 133q0 12 60 84.5t73 72.5q19 0 87 -63t68 -74zM1441 750q0 -18 -59.5 -85t-73.5 -67q-69 68 -156 131q0 12 59 85t72 73q20 0 89 -62.5t69 -74.5zM1560 1047q0 -17 -60 -84.5t-74 -67.5q-65 68 -155 133q0 12 59 85t72 73q20 0 89 -63.5t69 -75.5z" />
    <glyph glyph-name="uniFD2A" unicode="&#xfeb4;&#xfeae;" horiz-adv-x="2025" arabic-form="final" 
d="M710 0q-38 0 -58 14v-57q0 -72 -32.5 -167t-79.5 -155q-92 -114 -205 -114q-90 0 -228 61q-104 47 -104 62q0 10 14 10q3 0 41 -9.5t68 -9.5q59 0 151 45q87 42 158 101q66 54 118 134q48 74 48 108q0 30 -50 96.5t-50 75.5q0 36 21 119t32 83q2 0 55 -69
q77 -101 172 -101h224q54 0 94 25q15 9 61 84q27 43 43 43q15 0 15 -33q0 -55 -37 -133h123q67 0 141 18q0 38 53 105q71 90 84 90q10 0 10 -33q0 -46 -21 -91q-21 -42 -22 -42q0 -8 35 -19q40 -14 84 -14q39 0 43 19q0 7 14 39q9 20 23 47q53 104 68 104q8 0 8 -24
q0 -34 -4 -57t-4 -27q0 -33 34 -65q37 -36 84 -36h105v-227h-180q-110 0 -134 127h-10q-35 -131 -104 -131q-66 0 -110 23t-50 57q-12 -25 -53 -66q-29 -28 -246 -28q-96 0 -96 14q0 35 4 49q-60 -45 -121 -45h-229z" />
    <glyph glyph-name="uniFD2B" unicode="&#xfebc;&#xfeae;" horiz-adv-x="2289" arabic-form="final" 
d="M2024 293q0 43 -70 99q-75 59 -149 59q-134 0 -383 -224q25 -2 99 -2q40 0 122.5 1t114.5 1q84 0 171 19q95 21 95 47zM710 0q-38 0 -58 14v-57q0 -72 -32.5 -167t-79.5 -155q-92 -114 -205 -114q-90 0 -228 61q-104 47 -104 62q0 10 14 10q3 0 41 -9.5t68 -9.5
q59 0 151 45q87 42 158 101q66 54 118 134q48 74 48 108q0 30 -50 96.5t-50 75.5q0 36 21 119t32 83q2 0 55 -69q77 -101 172 -101h133q87 0 113 52q57 114 86 114q10 0 10 -14q0 -4 -3 -14t-3 -23q0 -54 35 -82q40 -33 156 -33q45 40 227 195q241 203 385 203q96 0 182 -67
q78 -61 78 -114q0 -32 -43 -117q-40 -78 -61 -100h227v-227h-393q-115 0 -152 37q-19 -12 -130 -24q-116 -13 -220 -13q-180 0 -201 10q-42 -82 -55 -82q-8 0 -8 17q0 25 22 84q-96 26 -118 133q-50 -96 -91 -125q-51 -37 -108 -37h-139z" />
    <glyph glyph-name="uniFD2C" unicode="&#xfec0;&#xfeae;" horiz-adv-x="2289" arabic-form="final" 
d="M2024 293q0 43 -70 99q-75 59 -149 59q-134 0 -383 -224q25 -2 99 -2q40 0 122.5 1t114.5 1q84 0 171 19q95 21 95 47zM1568 905q0 -18 -61 -90t-76 -72q-68 71 -166 144q0 12 63 89t80 77q20 0 90 -67.5t70 -80.5zM710 0q-38 0 -58 14v-57q0 -72 -32.5 -167t-79.5 -155
q-92 -114 -205 -114q-90 0 -228 61q-104 47 -104 62q0 10 14 10q3 0 41 -9.5t68 -9.5q59 0 151 45q87 42 158 101q66 54 118 134q48 74 48 108q0 30 -50 96.5t-50 75.5q0 36 21 119t32 83q2 0 55 -69q77 -101 172 -101h133q87 0 113 52q57 114 86 114q10 0 10 -14
q0 -4 -3 -14t-3 -23q0 -54 35 -82q40 -33 156 -33q45 40 227 195q241 203 385 203q96 0 182 -67q78 -61 78 -114q0 -32 -43 -117q-40 -78 -61 -100h227v-227h-393q-115 0 -152 37q-19 -12 -130 -24q-116 -13 -220 -13q-180 0 -201 10q-42 -82 -55 -82q-8 0 -8 17q0 25 22 84
q-96 26 -118 133q-50 -96 -91 -125q-51 -37 -108 -37h-139z" />
    <glyph glyph-name="uniFEF5" unicode="&#xfedf;&#xfe82;" horiz-adv-x="1179" arabic-form="isolated" 
d="M487 1559q0 -34 -80 -95q-61 -47 -141 -47q-32 0 -89.5 16.5t-68.5 16.5q-48 0 -69 -23q-33 -34 -39 -34q0 16 10 28q56 97 131 97q9 0 56.5 -17.5t91.5 -17.5q100 0 151 53q32 33 43 33q4 0 4 -10zM1068 1110q0 -29 -17.5 -65t-39.5 -50q-4 -45 -18 -190
q-13 -120 -48 -247q-31 -112 -53 -140q53 -91 53 -223q0 -195 -61 -195h-371q-118 0 -118 98q0 84 5 107q4 18 19 18h37q52 0 133 43q123 65 191 137q-10 58 -172 246q-122 140 -209 214q-42 35 -84 71q18 -42 18 -57t-22 -15q-9 0 -75 45q-69 47 -91 70q-54 55 -54 209v26
q0 64 19 64q57 0 162 -86q165 -136 356 -365q143 -170 221 -327q18 21 32 116q17 108 17 240q0 75 -12 172t-12 117q0 31 51 119l15 25q21 36 28 36q6 0 6 -47q0 -65 61 -119q33 -31 33 -47zM874 223q-9 70 -51 131q-50 -63 -154 -131h205z" />
    <glyph glyph-name="uniFEF6" unicode="&#xfee0;&#xfe82;" horiz-adv-x="1300" arabic-form="final" 
d="M487 1475q0 -38 -79 -97q-64 -47 -142 -47q-32 0 -89.5 17.5t-67.5 17.5q-47 0 -70 -25q-30 -32 -39 -32q0 13 10 28q63 95 131 95q9 0 56.5 -16.5t91.5 -16.5q100 0 151 51q33 33 43 33q4 0 4 -8zM1315 0h-119q-98 0 -142 59q-38 51 -49 172q-12 152 -32 353
q-5 -60 -25 -205q-51 -283 -217 -393q-57 -38 -228 -74q-147 -31 -204 -31q-19 0 -19 4q0 9 43 35q71 42 256 174q147 116 228 213q-37 104 -219 314q-49 55 -132 134q-79 74 -85 74q-5 -2 -5 -10q0 -7 2.5 -24.5t2.5 -24.5q0 -12 -5 -12q-20 0 -102 61q-91 67 -117 115
q-37 69 -37 213q0 47 13 47q28 0 172 -104q185 -136 321 -304q211 -260 219 -436q41 45 62 144q12 59 12 135q0 69 -12 207.5t-12 207.5q0 36 6 52q22 42 67 145q15 35 19 35q14 0 24 -100q12 -91 37 -488q14 -302 62 -381.5t125 -79.5h90v-227z" />
    <glyph glyph-name="uniFEF7" unicode="&#xfedf;&#xfe84;" horiz-adv-x="1177" arabic-form="isolated" 
d="M1066 1110q0 -29 -17.5 -65t-39.5 -50q-4 -45 -18 -190q-13 -120 -48 -247q-31 -112 -53 -140q53 -91 53 -223q0 -195 -61 -195h-371q-118 0 -118 98q0 84 5 107q4 18 19 18h37q52 0 133 43q123 65 191 137q-10 58 -172 246q-122 140 -209 214q-42 35 -84 71
q18 -42 18 -57t-22 -15q-9 0 -75 45q-69 47 -91 70q-54 55 -54 209v26q0 64 19 64q57 0 162 -86q165 -136 356 -365q143 -170 221 -327q18 21 32 116q17 108 17 240q0 75 -12 172t-12 117q0 31 51 119l15 25q21 36 28 36q6 0 6 -47q0 -65 61 -119q33 -31 33 -47zM338 1497
q0 -17 -52 -57q-66 0 -143 -33q-95 -41 -95 -43q-3 0 -3 4q0 2 69 72q-16 5 -61 29q-33 25 -33 53q0 35 59 79t103 44q51 0 51 -33q0 -18 -22 -39q-26 -24 -29 -24q-8 0 -14 14q-9 20 -33 20q-43 0 -43 -20q0 -18 46.5 -42t90.5 -24h25q15 0 43.5 2t31.5 2q9 0 9 -4z
M872 223q-9 70 -51 131q-50 -63 -154 -131h205z" />
    <glyph glyph-name="uniFEF8" unicode="&#xfee0;&#xfe84;" horiz-adv-x="1280" arabic-form="final" 
d="M1295 0h-119q-98 0 -142 59q-38 51 -49 172q-12 152 -32 353q-5 -60 -25 -205q-51 -283 -217 -393q-57 -38 -228 -74q-147 -31 -204 -31q-19 0 -19 4q0 9 43 35q71 42 256 174q147 116 228 213q-37 104 -219 314q-49 55 -132 134q-79 74 -85 74q-5 -2 -5 -10
q0 -7 2.5 -24.5t2.5 -24.5q0 -12 -5 -12q-20 0 -102 61q-91 67 -117 115q-37 69 -37 213q0 47 13 47q28 0 172 -104q185 -136 321 -304q211 -260 219 -436q41 45 62 144q12 59 12 135q0 69 -12 207.5t-12 207.5q0 36 6 52q22 42 67 145q15 35 19 35q14 0 24 -100
q12 -91 37 -488q14 -302 62 -381.5t125 -79.5h90v-227zM358 1432q0 -21 -54 -58q-65 0 -141 -33q-95 -41 -95 -43q-5 0 -5 5q0 14 71 71q-25 6 -59.5 30t-34.5 52q0 35 58.5 79t101.5 44q53 0 53 -33q0 -15 -25 -39t-28 -24q-4 0 -14 14q-9 21 -33 21q-43 0 -43 -21
q0 -18 47 -41.5t92 -23.5h23q16 0 44.5 2t30.5 2q11 0 11 -4z" />
    <glyph glyph-name="uniFEF9" unicode="&#xfedf;&#xfe88;" horiz-adv-x="1158" arabic-form="isolated" 
d="M1047 1110q0 -29 -17.5 -65t-39.5 -50q-4 -45 -18 -190q-13 -120 -48 -247q-31 -112 -53 -140q53 -91 53 -223q0 -195 -61 -195h-371q-118 0 -118 98q0 84 5 107q4 18 19 18h37q52 0 133 43q123 65 191 137q-10 58 -172 246q-122 140 -209 214q-42 35 -84 71
q18 -42 18 -57t-22 -15q-9 0 -75 45q-69 47 -91 70q-54 55 -54 209v26q0 64 19 64q57 0 162 -86q165 -136 356 -365q143 -170 221 -327q18 21 32 116q17 108 17 240q0 75 -12 172t-12 117q0 31 51 119l15 25q21 36 28 36q6 0 6 -47q0 -65 61 -119q33 -31 33 -47zM853 223
q-9 70 -51 131q-50 -63 -154 -131h205zM532 -224q0 -17 -52 -57q-66 0 -143 -33q-95 -41 -95 -43q-3 0 -3 4q0 2 69 72q-16 5 -61 29q-33 25 -33 53q0 35 59 79t103 44q51 0 51 -33q0 -18 -22 -39q-26 -24 -29 -24q-8 0 -14 14q-9 20 -33 20q-43 0 -43 -20q0 -18 46.5 -42
t90.5 -24h25q15 0 43.5 2t31.5 2q9 0 9 -4z" />
    <glyph glyph-name="uniFEFA" unicode="&#xfee0;&#xfe88;" horiz-adv-x="1260" arabic-form="final" 
d="M1275 0h-119q-98 0 -142 59q-38 51 -49 172q-12 152 -32 353q-5 -60 -25 -205q-51 -283 -217 -393q-57 -38 -228 -74q-147 -31 -204 -31q-19 0 -19 4q0 9 43 35q71 42 256 174q147 116 228 213q-37 104 -219 314q-49 55 -132 134q-79 74 -85 74q-5 -2 -5 -10
q0 -7 2.5 -24.5t2.5 -24.5q0 -12 -5 -12q-20 0 -102 61q-91 67 -117 115q-37 69 -37 213q0 47 13 47q28 0 172 -104q185 -136 321 -304q211 -260 219 -436q41 45 62 144q12 59 12 135q0 69 -12 207.5t-12 207.5q0 36 6 52q22 42 67 145q15 35 19 35q14 0 24 -100
q12 -91 37 -488q14 -302 62 -381.5t125 -79.5h90v-227zM471 -360q0 -17 -52 -57q-66 0 -143 -33q-95 -41 -95 -43q-3 0 -3 4q0 2 69 72q-16 5 -61 29q-33 25 -33 53q0 35 59 79t103 44q51 0 51 -33q0 -18 -22 -39q-26 -24 -29 -24q-8 0 -14 14q-9 20 -33 20q-43 0 -43 -20
q0 -18 46.5 -42t90.5 -24h25q15 0 43.5 2t31.5 2q9 0 9 -4z" />
    <glyph glyph-name="uniFEFB" unicode="&#xfedf;&#xfe8e;" horiz-adv-x="1158" arabic-form="isolated" 
d="M1047 1110q0 -29 -17.5 -65t-39.5 -50q-4 -45 -18 -190q-13 -120 -48 -247q-31 -112 -53 -140q53 -91 53 -223q0 -195 -61 -195h-371q-118 0 -118 98q0 84 5 107q4 18 19 18h37q52 0 133 43q123 65 191 137q-10 58 -172 246q-122 140 -209 214q-42 35 -84 71
q18 -42 18 -57t-22 -15q-9 0 -75 45q-69 47 -91 70q-54 55 -54 209v26q0 64 19 64q57 0 162 -86q165 -136 356 -365q143 -170 221 -327q18 21 32 116q17 108 17 240q0 75 -12 172t-12 117q0 31 51 119l15 25q21 36 28 36q6 0 6 -47q0 -65 61 -119q33 -31 33 -47zM834 223
q-15 82 -53 131q-45 -57 -151 -131h204z" />
    <glyph glyph-name="uniFEFC" unicode="&#xfee0;&#xfe8e;" horiz-adv-x="1261" arabic-form="final" 
d="M1275 0h-119q-98 0 -142 59q-38 51 -49 172q-12 152 -32 353q-5 -60 -25 -205q-51 -283 -217 -393q-57 -38 -228 -74q-147 -31 -204 -31q-19 0 -19 4q0 9 43 35q71 42 256 174q147 116 228 213q-37 104 -219 314q-49 55 -132 134q-79 74 -85 74q-5 -2 -5 -10
q0 -7 2.5 -24.5t2.5 -24.5q0 -12 -5 -12q-20 0 -102 61q-91 67 -117 115q-37 69 -37 213q0 47 13 47q28 0 172 -104q185 -136 321 -304q211 -260 219 -436q41 45 62 144q12 59 12 135q0 69 -12 207.5t-12 207.5q0 36 6 52q22 42 67 145q15 35 19 35q14 0 24 -100
q12 -91 37 -488q14 -302 62 -381.5t125 -79.5h90v-227z" />
    <glyph glyph-name="uniFE8B_uniFEE4.liga" unicode="&#xfe8b;&#xfee4;" horiz-adv-x="1565" 
d="M645 147q-13 62 -14 62q0 9 -2 28t-2 29q0 43 -29 56q-20 14 -68 14q-28 0 -85 -17q-60 -18 -60 -30q0 -10 120 -74t140 -68zM1442 977q0 -23 -57 -68q-73 0 -162 -32q-94 -48 -104 -48q-4 0 -4 5q0 15 75 75q-20 5 -65 39q-43 26 -43 51q0 42 66.5 90t117.5 48
q62 0 62 -33q0 -13 -33 -43q-21 -27 -29 -27q-9 0 -14 19q-9 18 -37 18q-49 0 -49 -18q0 -22 51.5 -49t99.5 -27h29q20 0 50.5 2t35.5 2q10 0 10 -4zM801 0q-49 0 -76 25q-24 22 -24 26q-4 -4 -39 -75q-37 -76 -50 -76q-2 0 -43 24q-43 29 -133 80q-109 54 -155 123
q-15 29 -21 29q-11 0 -18 -33q-47 -123 -138 -123h-104q-70 0 -70 113q0 114 70 114h80q101 0 133 19q1 2 72 90q63 79 170 131q95 45 166 45q60 0 67 -72q11 -110 76 -166q55 -47 104 -47h455q43 0 43 19q0 44 -57 133q-12 19 -82 108q0 25 24 114q26 95 40 95
q24 0 91 -126q75 -140 75 -242q0 -81 -21 -173q-18 -85 -37 -112q-19 -17 -90 -31q-63 -12 -104 -12h-404z" />
    <glyph glyph-name="uniFE8B_uniFEF0.liga" unicode="&#xfe8b;&#xfef0;" horiz-adv-x="1735" 
d="M1612 977q0 -23 -57 -68q-73 0 -162 -32q-94 -48 -104 -48q-4 0 -4 5q0 15 75 75q-20 5 -65 39q-43 26 -43 51q0 42 66.5 90t117.5 48q62 0 62 -33q0 -13 -33 -43q-21 -27 -29 -27q-9 0 -14 19q-9 18 -37 18q-49 0 -49 -18q0 -22 51.5 -49t99.5 -27h29q20 0 50.5 2
t35.5 2q10 0 10 -4zM1034 0q109 -64 109 -109q0 -40 -48 -112q-61 -92 -161 -158q-254 -166 -494 -166q-174 0 -260 109q-76 95 -76 256q0 144 66 299q64 151 86 151q14 0 14 -18q-3 1 -36 -94q-35 -102 -35 -191q0 -280 256 -280q140 0 288 43q159 46 234 118
q-20 30 -99 78q-86 52 -167 78l104 223h678q43 0 43 19q0 44 -57 133q-12 19 -82 108q0 25 24 114q26 95 40 95q24 0 91 -126q75 -140 75 -242q0 -81 -21 -173q-18 -85 -37 -112q-19 -17 -90 -31q-63 -12 -104 -12h-341z" />
    <glyph glyph-name="uniFE8B_uniFEF2.liga" unicode="&#xfe8b;&#xfef2;" horiz-adv-x="1735" 
d="M562 -789q0 -17 -59 -84t-70 -67q-45 42 -160 131q0 13 60 85.5t77 72.5q20 0 86 -62.5t66 -75.5zM879 -760q0 -18 -59.5 -85.5t-73.5 -67.5q-65 68 -156 133q0 11 59 84t72 73q20 0 89 -63t69 -74zM1612 977q0 -23 -57 -68q-73 0 -162 -32q-94 -48 -104 -48q-4 0 -4 5
q0 15 75 75q-20 5 -65 39q-43 26 -43 51q0 42 66.5 90t117.5 48q62 0 62 -33q0 -13 -33 -43q-21 -27 -29 -27q-9 0 -14 19q-9 18 -37 18q-49 0 -49 -18q0 -22 51.5 -49t99.5 -27h29q20 0 50.5 2t35.5 2q10 0 10 -4zM1034 0q109 -64 109 -109q0 -40 -48 -112
q-61 -92 -161 -158q-254 -166 -494 -166q-174 0 -260 109q-76 95 -76 256q0 144 66 299q64 151 86 151q14 0 14 -18q-3 1 -36 -94q-35 -102 -35 -191q0 -280 256 -280q140 0 288 43q159 46 234 118q-20 30 -99 78q-86 52 -167 78l104 223h678q43 0 43 19q0 44 -57 133
q-12 19 -82 108q0 25 24 114q26 95 40 95q24 0 91 -126q75 -140 75 -242q0 -81 -21 -173q-18 -85 -37 -112q-19 -17 -90 -31q-63 -12 -104 -12h-341z" />
    <glyph glyph-name="uniFE91_uniFEE4.liga" unicode="&#xfe91;&#xfee4;" horiz-adv-x="1529" 
d="M645 147q-13 62 -14 62q0 9 -2 28t-2 29q0 43 -29 56q-20 14 -68 14q-28 0 -85 -17q-60 -18 -60 -30q0 -10 120 -74t140 -68zM1386 -260q0 -18 -61.5 -90t-75.5 -72q-80 80 -166 141q0 13 63 89.5t80 76.5q20 0 90 -66.5t70 -78.5zM801 0q-49 0 -76 25q-24 22 -24 26
q-4 -4 -39 -75q-37 -76 -50 -76q-2 0 -43 24q-43 29 -133 80q-109 54 -155 123q-15 29 -21 29q-11 0 -18 -33q-47 -123 -138 -123h-104q-70 0 -70 113q0 114 70 114h80q101 0 133 19q1 2 72 90q63 79 170 131q95 45 166 45q60 0 67 -72q11 -110 76 -166q55 -47 104 -47h420
q43 0 43 19q0 44 -58 133q-12 19 -82 108q0 25 24 114q26 95 40 95q24 0 91 -126q75 -140 75 -242q0 -81 -20 -173q-19 -85 -38 -112q-19 -17 -90 -31q-63 -12 -104 -12h-368z" />
    <glyph glyph-name="uniFE92_uniFEE6.liga" unicode="&#xfe92;&#xfee6;" horiz-adv-x="1795" 
d="M668 782q0 -18 -61 -89.5t-77 -71.5q-67 70 -165 143q0 13 63 89.5t80 76.5q20 0 90 -67.5t70 -80.5zM1104 0q-58 0 -105 51q-33 45 -41 63q15 -55 15 -100q0 -60 -29 -170q-32 -124 -72 -176q-53 -70 -203 -116q-134 -41 -257 -41q-148 0 -228 86.5t-80 240.5
q0 136 63 275q52 114 71 114q8 0 8 -14q0 -4 -31 -91t-31 -140q0 -100 67 -166q76 -76 218 -76q168 0 308 56q132 53 132 110q0 64 -27 171q-32 127 -81 208q-19 30 -19 47q0 25 24 117q24 96 34 96q7 0 42 -64q38 -68 62 -131q20 -52 79 -90q52 -33 95 -33h278q55 0 67 43
q46 156 66 156q6 0 6 -29q0 -73 18 -104q39 -66 99 -66h157v-227h-157q-157 0 -189 137q-78 -137 -198 -137h-161zM1560 -260q0 -18 -61.5 -90t-75.5 -72q-80 80 -166 141q0 13 63.5 89.5t80.5 76.5q18 0 90 -67q69 -66 69 -78z" />
    <glyph glyph-name="uniFE91_uniFEF0.liga" unicode="&#xfe91;&#xfef0;" horiz-adv-x="1809" 
d="M1034 0q109 -64 109 -109q0 -40 -48 -112q-61 -92 -161 -158q-254 -166 -494 -166q-174 0 -260 109q-76 95 -76 256q0 144 66 299q64 151 86 151q14 0 14 -18q-3 1 -36 -94q-35 -102 -35 -191q0 -280 256 -280q140 0 288 43q159 46 234 118q-20 30 -99 78q-86 52 -167 78
l104 223h753q43 0 43 19q0 44 -58 133q-12 19 -82 108q0 25 24 114q26 95 40 95q24 0 91 -126q75 -140 75 -242q0 -81 -20 -173q-19 -85 -38 -112q-19 -17 -90 -31q-63 -12 -104 -12h-415zM1666 -260q0 -18 -61.5 -90t-75.5 -72q-80 80 -166 141q0 13 63 89.5t80 76.5
q20 0 90 -66.5t70 -78.5z" />
    <glyph glyph-name="uniFE91_uniFEF2.liga" unicode="&#xfe91;&#xfef2;" horiz-adv-x="1809" 
d="M562 -789q0 -17 -59 -84t-70 -67q-45 42 -160 131q0 13 60 85.5t77 72.5q20 0 86 -62.5t66 -75.5zM879 -760q0 -18 -59.5 -85.5t-73.5 -67.5q-65 68 -156 133q0 11 59 84t72 73q20 0 89 -63t69 -74zM1034 0q109 -64 109 -109q0 -40 -48 -112q-61 -92 -161 -158
q-254 -166 -494 -166q-174 0 -260 109q-76 95 -76 256q0 144 66 299q64 151 86 151q14 0 14 -18q-3 1 -36 -94q-35 -102 -35 -191q0 -280 256 -280q140 0 288 43q159 46 234 118q-20 30 -99 78q-86 52 -167 78l104 223h753q43 0 43 19q0 44 -58 133q-12 19 -82 108
q0 25 24 114q26 95 40 95q24 0 91 -126q75 -140 75 -242q0 -81 -20 -173q-19 -85 -38 -112q-19 -17 -90 -31q-63 -12 -104 -12h-415zM1666 -260q0 -18 -61.5 -90t-75.5 -72q-80 80 -166 141q0 13 63 89.5t80 76.5q20 0 90 -66.5t70 -78.5z" />
    <glyph glyph-name="uniFE97_uniFEE4.liga" unicode="&#xfe97;&#xfee4;" horiz-adv-x="1605" 
d="M645 147q-13 62 -14 62q0 9 -2 28t-2 29q0 43 -29 56q-20 14 -68 14q-28 0 -85 -17q-60 -18 -60 -30q0 -10 120 -74t140 -68zM801 0q-49 0 -76 25q-24 22 -24 26q-4 -4 -39 -75q-37 -76 -50 -76q-2 0 -43 24q-43 29 -133 80q-109 54 -155 123q-15 29 -21 29
q-11 0 -18 -33q-47 -123 -138 -123h-104q-70 0 -70 113q0 114 70 114h80q101 0 133 19q1 2 72 90q63 79 170 131q95 45 166 45q60 0 67 -72q11 -110 76 -166q55 -47 104 -47h495q43 0 43 19q0 44 -57 133q-12 19 -82 108q0 25 24 114q26 95 40 95q24 0 91 -126
q75 -140 75 -242q0 -81 -21 -173q-18 -85 -37 -112q-19 -17 -90 -31q-63 -12 -104 -12h-444zM1246 909q0 -16 -58.5 -83.5t-70.5 -67.5q-45 43 -161 133q0 12 61 84t78 72q18 0 86 -64q65 -62 65 -74zM1558 943q0 -18 -59.5 -85t-73.5 -67q-66 66 -156 133q0 11 59.5 83.5
t73.5 72.5q20 0 88 -62.5t68 -74.5z" />
    <glyph glyph-name="uniFE98_uniFEE6.liga" unicode="&#xfe98;&#xfee6;" horiz-adv-x="1925" 
d="M668 782q0 -18 -61 -89.5t-77 -71.5q-67 70 -165 143q0 13 63 89.5t80 76.5q20 0 90 -67.5t70 -80.5zM1757 744q0 -18 -59.5 -86t-73.5 -68q-67 70 -158 133q0 12 60 85t73 73q20 0 89 -62.5t69 -74.5zM1104 0q-58 0 -105 51q-33 45 -41 63q15 -55 15 -100
q0 -60 -29 -170q-32 -124 -72 -176q-53 -70 -203 -116q-134 -41 -257 -41q-148 0 -228 86.5t-80 240.5q0 136 63 275q52 114 71 114q8 0 8 -14q0 -4 -31 -91t-31 -140q0 -100 67 -166q76 -76 218 -76q168 0 308 56q132 53 132 110q0 64 -27 171q-32 127 -81 208
q-19 30 -19 47q0 25 24 117q24 96 34 96q7 0 42 -64q38 -68 62 -131q20 -52 79 -90q52 -33 95 -33h371q52 0 65 47q42 152 68 152q4 0 4 -23q0 -73 19 -104q43 -72 100 -72h194v-227h-194q-155 0 -191 137q-77 -137 -198 -137h-252zM1453 711q0 -17 -58 -84.5t-69 -67.5
q-45 43 -162 133q0 13 61 84.5t77 71.5q19 0 85 -62.5t66 -74.5z" />
    <glyph glyph-name="uniFE97_uniFEF0.liga" unicode="&#xfe97;&#xfef0;" horiz-adv-x="1815" 
d="M1034 0q109 -64 109 -109q0 -40 -48 -112q-61 -92 -161 -158q-254 -166 -494 -166q-174 0 -260 109q-76 95 -76 256q0 144 66 299q64 151 86 151q14 0 14 -18q-3 1 -36 -94q-35 -102 -35 -191q0 -280 256 -280q140 0 288 43q159 46 234 118q-20 30 -99 78q-86 52 -167 78
l104 223h758q43 0 43 19q0 44 -57 133q-12 19 -82 108q0 25 24 114q26 95 40 95q24 0 91 -126q75 -140 75 -242q0 -81 -21 -173q-18 -85 -37 -112q-19 -17 -90 -31q-63 -12 -104 -12h-421zM1456 909q0 -16 -58.5 -83.5t-70.5 -67.5q-45 43 -161 133q0 12 61 84t78 72
q18 0 86 -64q65 -62 65 -74zM1768 943q0 -18 -59.5 -85t-73.5 -67q-66 66 -156 133q0 11 59.5 83.5t73.5 72.5q20 0 88 -62.5t68 -74.5z" />
    <glyph glyph-name="uniFE97_uniFEF2.liga" unicode="&#xfe97;&#xfef2;" horiz-adv-x="1815" 
d="M562 -789q0 -17 -59 -84t-70 -67q-45 42 -160 131q0 13 60 85.5t77 72.5q20 0 86 -62.5t66 -75.5zM879 -760q0 -18 -59.5 -85.5t-73.5 -67.5q-65 68 -156 133q0 11 59 84t72 73q20 0 89 -63t69 -74zM1034 0q109 -64 109 -109q0 -40 -48 -112q-61 -92 -161 -158
q-254 -166 -494 -166q-174 0 -260 109q-76 95 -76 256q0 144 66 299q64 151 86 151q14 0 14 -18q-3 1 -36 -94q-35 -102 -35 -191q0 -280 256 -280q140 0 288 43q159 46 234 118q-20 30 -99 78q-86 52 -167 78l104 223h758q43 0 43 19q0 44 -57 133q-12 19 -82 108
q0 25 24 114q26 95 40 95q24 0 91 -126q75 -140 75 -242q0 -81 -21 -173q-18 -85 -37 -112q-19 -17 -90 -31q-63 -12 -104 -12h-421zM1456 909q0 -16 -58.5 -83.5t-70.5 -67.5q-45 43 -161 133q0 12 61 84t78 72q18 0 86 -64q65 -62 65 -74zM1768 943q0 -18 -59.5 -85
t-73.5 -67q-66 66 -156 133q0 11 59.5 83.5t73.5 72.5q20 0 88 -62.5t68 -74.5z" />
    <glyph glyph-name="uniFE9C_uniFEAE.liga" unicode="&#xfe9c;&#xfeae;" horiz-adv-x="1645" 
d="M1262 1034q0 -18 -59.5 -85.5t-73.5 -67.5q-66 68 -156 133q0 12 59.5 84.5t73.5 72.5q20 0 88 -63t68 -74zM710 0q-38 0 -58 14v-57q0 -72 -32.5 -167t-79.5 -155q-92 -114 -205 -114q-90 0 -228 61q-104 47 -104 62q0 10 14 10q3 0 41 -9.5t68 -9.5q59 0 151 45
q87 42 158 101q66 54 118 134q48 74 48 108q0 30 -50 96.5t-50 75.5q0 36 21 119t32 83q2 0 55 -69q77 -101 172 -101h428q52 0 65 47q42 152 68 152q4 0 4 -23q0 -73 19 -104q43 -72 100 -72h194v-227h-194q-155 0 -191 137q-77 -137 -198 -137h-366zM1143 735
q0 -18 -59 -84.5t-74 -66.5q-68 68 -156 131q0 12 60 84.5t73 72.5q20 0 88 -62.5t68 -74.5zM1467 764q0 -18 -59.5 -86t-73.5 -68q-67 70 -158 133q0 12 60 85t73 73q20 0 89 -62.5t69 -74.5z" />
    <glyph glyph-name="uniFE9B_uniFEE4.liga" unicode="&#xfe9b;&#xfee4;" horiz-adv-x="1585" 
d="M645 147q-13 62 -14 62q0 9 -2 28t-2 29q0 43 -29 56q-20 14 -68 14q-28 0 -85 -17q-60 -18 -60 -30q0 -10 120 -74t140 -68zM801 0q-49 0 -76 25q-24 22 -24 26q-4 -4 -39 -75q-37 -76 -50 -76q-2 0 -43 24q-43 29 -133 80q-109 54 -155 123q-15 29 -21 29
q-11 0 -18 -33q-47 -123 -138 -123h-104q-70 0 -70 113q0 114 70 114h80q101 0 133 19q1 2 72 90q63 79 170 131q95 45 166 45q60 0 67 -72q11 -110 76 -166q55 -47 104 -47h475q43 0 43 19q0 44 -57 133q-12 19 -82 108q0 25 24 114q26 95 40 95q24 0 91 -126
q75 -140 75 -242q0 -81 -21 -173q-18 -85 -37 -112q-19 -17 -90 -31q-63 -12 -104 -12h-424zM1237 909q0 -16 -59.5 -83.5t-73.5 -67.5q-76 75 -156 133q0 12 59.5 84t73.5 72q19 0 87.5 -63t68.5 -75zM1548 928q0 -17 -58.5 -84.5t-72.5 -67.5q-88 86 -157 134q0 11 60 83
t73 72q20 0 87.5 -62.5t67.5 -74.5zM1356 1198q0 -16 -59.5 -83.5t-73.5 -67.5q-76 75 -156 133q0 12 59 84t72 72q20 0 89 -62.5t69 -75.5z" />
    <glyph glyph-name="uniFE9C_uniFEE6.liga" unicode="&#xfe9c;&#xfee6;" horiz-adv-x="1965" 
d="M668 782q0 -18 -61 -89.5t-77 -71.5q-67 70 -165 143q0 13 63 89.5t80 76.5q20 0 90 -67.5t70 -80.5zM1582 1034q0 -18 -59.5 -85.5t-73.5 -67.5q-66 68 -156 133q0 12 59.5 84.5t73.5 72.5q20 0 88 -63t68 -74zM1104 0q-58 0 -105 51q-33 45 -41 63q15 -55 15 -100
q0 -60 -29 -170q-32 -124 -72 -176q-53 -70 -203 -116q-134 -41 -257 -41q-148 0 -228 86.5t-80 240.5q0 136 63 275q52 114 71 114q8 0 8 -14q0 -4 -31 -91t-31 -140q0 -100 67 -166q76 -76 218 -76q168 0 308 56q132 53 132 110q0 64 -27 171q-32 127 -81 208
q-19 30 -19 47q0 25 24 117q24 96 34 96q7 0 42 -64q38 -68 62 -131q20 -52 79 -90q52 -33 95 -33h411q52 0 65 47q42 152 68 152q4 0 4 -23q0 -73 19 -104q43 -72 100 -72h194v-227h-194q-155 0 -191 137q-77 -137 -198 -137h-292zM1463 735q0 -18 -59 -84.5t-74 -66.5
q-68 68 -156 131q0 12 60 84.5t73 72.5q20 0 88 -62.5t68 -74.5zM1787 764q0 -18 -59.5 -86t-73.5 -68q-67 70 -158 133q0 12 60 85t73 73q20 0 89 -62.5t69 -74.5z" />
    <glyph glyph-name="uniFE9B_uniFEF0.liga" unicode="&#xfe9b;&#xfef0;" horiz-adv-x="1795" 
d="M1566 1198q0 -16 -59.5 -83.5t-73.5 -67.5q-76 75 -156 133q0 12 59 84t72 72q20 0 89 -62.5t69 -75.5zM1758 928q0 -17 -58.5 -84.5t-72.5 -67.5q-88 86 -157 134q0 11 60 83t73 72q20 0 87.5 -62.5t67.5 -74.5zM1447 909q0 -16 -59.5 -83.5t-73.5 -67.5
q-76 75 -156 133q0 12 59.5 84t73.5 72q19 0 87.5 -63t68.5 -75zM1034 0q109 -64 109 -109q0 -40 -48 -112q-61 -92 -161 -158q-254 -166 -494 -166q-174 0 -260 109q-76 95 -76 256q0 144 66 299q64 151 86 151q14 0 14 -18q-3 1 -36 -94q-35 -102 -35 -191
q0 -280 256 -280q140 0 288 43q159 46 234 118q-20 30 -99 78q-86 52 -167 78l104 223h738q43 0 43 19q0 44 -57 133q-12 19 -82 108q0 25 24 114q26 95 40 95q24 0 91 -126q75 -140 75 -242q0 -81 -21 -173q-18 -85 -37 -112q-19 -17 -90 -31q-63 -12 -104 -12h-401z" />
    <glyph glyph-name="uniFE9B_uniFEF2.liga" unicode="&#xfe9b;&#xfef2;" horiz-adv-x="1795" 
d="M562 -789q0 -17 -59 -84t-70 -67q-45 42 -160 131q0 13 60 85.5t77 72.5q20 0 86 -62.5t66 -75.5zM879 -760q0 -18 -59.5 -85.5t-73.5 -67.5q-65 68 -156 133q0 11 59 84t72 73q20 0 89 -63t69 -74zM1566 1198q0 -16 -59.5 -83.5t-73.5 -67.5q-76 75 -156 133q0 12 59 84
t72 72q20 0 89 -62.5t69 -75.5zM1758 928q0 -17 -58.5 -84.5t-72.5 -67.5q-88 86 -157 134q0 11 60 83t73 72q20 0 87.5 -62.5t67.5 -74.5zM1447 909q0 -16 -59.5 -83.5t-73.5 -67.5q-76 75 -156 133q0 12 59.5 84t73.5 72q19 0 87.5 -63t68.5 -75zM1034 0q109 -64 109 -109
q0 -40 -48 -112q-61 -92 -161 -158q-254 -166 -494 -166q-174 0 -260 109q-76 95 -76 256q0 144 66 299q64 151 86 151q14 0 14 -18q-3 1 -36 -94q-35 -102 -35 -191q0 -280 256 -280q140 0 288 43q159 46 234 118q-20 30 -99 78q-86 52 -167 78l104 223h738q43 0 43 19
q0 44 -57 133q-12 19 -82 108q0 25 24 114q26 95 40 95q24 0 91 -126q75 -140 75 -242q0 -81 -21 -173q-18 -85 -37 -112q-19 -17 -90 -31q-63 -12 -104 -12h-401z" />
    <glyph glyph-name="uniFEDB_uniFEF0.liga" unicode="&#xfedb;&#xfef0;" horiz-adv-x="2042" 
d="M1034 0q109 -64 109 -109q0 -40 -48 -112q-61 -92 -161 -158q-254 -166 -494 -166q-174 0 -260 109q-76 95 -76 256q0 144 66 299q64 151 86 151q14 0 14 -18q-3 1 -36 -94q-35 -102 -35 -191q0 -280 256 -280q140 0 288 43q159 46 234 118q-20 30 -99 78q-86 52 -167 78
l104 223h635q219 0 219 33q0 24 -36 97q-39 79 -82 137q-135 177 -199 221q-51 12 -72 35q-47 49 -47 116q0 37 29.5 110.5t50.5 90.5q69 54 338 133q321 94 354 94q10 0 10 -10q0 -3 -47 -87t-57 -97q-118 -21 -327.5 -86.5t-209.5 -79.5q0 -19 76 -94q108 -108 195 -271
q73 -137 76 -303v-13q0 -158 -46 -204q-49 -49 -319 -49h-322z" />
    <glyph glyph-name="uniFEDC_uniFEF0.liga" unicode="&#xfedc;&#xfef0;" horiz-adv-x="2069" 
d="M1034 0q109 -64 109 -109q0 -40 -48 -112q-61 -92 -161 -158q-254 -166 -494 -166q-174 0 -260 109q-76 95 -76 256q0 144 66 299q64 151 86 151q14 0 14 -18q-3 1 -36 -94q-35 -102 -35 -191q0 -280 256 -280q140 0 288 43q159 46 234 118q-20 30 -99 78q-86 52 -167 78
l104 223h532q205 0 205 43q0 92 -115 256q-62 90 -137 181q-65 79 -65 112q0 212 61 262q20 20 115 63q108 50 217 83q389 119 393 119q8 0 8 -9q0 -6 -46 -96l-52 -104q-129 -22 -295 -80q-285 -100 -285 -127t125 -166q127 -142 217 -252q147 -179 195 -227
q57 -58 129 -58h66v-227h-123q-87 0 -138 86q-122 209 -219 322v-129q0 -169 -75 -236q-49 -43 -134 -43h-360z" />
    <glyph glyph-name="uniFEDB_uniFEF2.liga" unicode="&#xfedb;&#xfef2;" horiz-adv-x="2042" 
d="M562 -789q0 -17 -59 -84t-70 -67q-45 42 -160 131q0 13 60 85.5t77 72.5q20 0 86 -62.5t66 -75.5zM879 -760q0 -18 -59.5 -85.5t-73.5 -67.5q-65 68 -156 133q0 11 59 84t72 73q20 0 89 -63t69 -74zM1034 0q109 -64 109 -109q0 -40 -48 -112q-61 -92 -161 -158
q-254 -166 -494 -166q-174 0 -260 109q-76 95 -76 256q0 144 66 299q64 151 86 151q14 0 14 -18q-3 1 -36 -94q-35 -102 -35 -191q0 -280 256 -280q140 0 288 43q159 46 234 118q-20 30 -99 78q-86 52 -167 78l104 223h635q219 0 219 33q0 24 -36 97q-39 79 -82 137
q-135 177 -199 221q-51 12 -72 35q-47 49 -47 116q0 37 29.5 110.5t50.5 90.5q69 54 338 133q321 94 354 94q10 0 10 -10q0 -3 -47 -87t-57 -97q-118 -21 -327.5 -86.5t-209.5 -79.5q0 -19 76 -94q108 -108 195 -271q73 -137 76 -303v-13q0 -158 -46 -204q-49 -49 -319 -49
h-322z" />
    <glyph glyph-name="uniFEDC_uniFEF2.liga" unicode="&#xfedc;&#xfef2;" horiz-adv-x="2069" 
d="M562 -789q0 -17 -59 -84t-70 -67q-45 42 -160 131q0 13 60 85.5t77 72.5q20 0 86 -62.5t66 -75.5zM879 -760q0 -18 -59.5 -85.5t-73.5 -67.5q-65 68 -156 133q0 11 59 84t72 73q20 0 89 -63t69 -74zM1034 0q109 -64 109 -109q0 -40 -48 -112q-61 -92 -161 -158
q-254 -166 -494 -166q-174 0 -260 109q-76 95 -76 256q0 144 66 299q64 151 86 151q14 0 14 -18q-3 1 -36 -94q-35 -102 -35 -191q0 -280 256 -280q140 0 288 43q159 46 234 118q-20 30 -99 78q-86 52 -167 78l104 223h532q205 0 205 43q0 92 -115 256q-62 90 -137 181
q-65 79 -65 112q0 212 61 262q20 20 115 63q108 50 217 83q389 119 393 119q8 0 8 -9q0 -6 -46 -96l-52 -104q-129 -22 -295 -80q-285 -100 -285 -127t125 -166q127 -142 217 -252q147 -179 195 -227q57 -58 129 -58h66v-227h-123q-87 0 -138 86q-122 209 -219 322v-129
q0 -169 -75 -236q-49 -43 -134 -43h-360z" />
    <glyph glyph-name="uniFEDF_uniFB51.rlig" unicode="&#xfedf;&#xfb51;" horiz-adv-x="1182" 
d="M1071 1110q0 -29 -17.5 -65t-39.5 -50q-4 -45 -18 -190q-13 -120 -48 -247q-31 -112 -53 -140q53 -91 53 -223q0 -195 -61 -195h-371q-118 0 -118 98q0 84 5 107q4 18 19 18h37q52 0 133 43q123 65 191 137q-10 58 -172 246q-122 140 -209 214q-42 35 -84 71
q18 -42 18 -57t-22 -15q-9 0 -75 45q-69 47 -91 70q-54 55 -54 209v26q0 64 19 64q57 0 162 -86q165 -136 356 -365q143 -170 221 -327q18 21 32 116q17 108 17 240q0 75 -12 172t-12 117q0 31 51 119l15 25q21 36 28 36q6 0 6 -47q0 -65 61 -119q33 -31 33 -47zM858 223
q-15 82 -53 131q-45 -57 -151 -131h204zM506 1532q0 -22 -11.5 -46t-33.5 -45q-35 -34 -70 -46.5t-70 -12.5q-26 0 -47 5t-40.5 11t-38 11t-40.5 5q-19 0 -42.5 -11.5t-57.5 -34.5q-5 -3 -8 -3q-2 0 -3 1q-4 2 -4 9q0 4 13.5 24t34.5 42.5t45.5 40.5t46.5 18q12 0 26 -3
q63 58 118 93.5t98 35.5q18 0 33.5 -8.5t26.5 -22t17.5 -30.5t6.5 -33zM441 1498q0 17 -18.5 32.5t-43.5 15.5q-49 0 -125 -58l1 -3q26 -5 57 -16t69 -11q25 1 42.5 14t17.5 26z" />
    <glyph glyph-name="uniFEE0_uniFB51.rlig" unicode="&#xfee0;&#xfb51;" horiz-adv-x="1284" 
d="M1299 0h-119q-98 0 -142 59q-38 51 -49 172q-12 152 -32 353q-5 -60 -25 -205q-51 -283 -217 -393q-57 -38 -228 -74q-147 -31 -204 -31q-19 0 -19 4q0 9 43 35q71 42 256 174q147 116 228 213q-37 104 -219 314q-49 55 -132 134q-79 74 -85 74q-5 -2 -5 -10
q0 -7 2.5 -24.5t2.5 -24.5q0 -12 -5 -12q-20 0 -102 61q-91 67 -117 115q-37 69 -37 213q0 47 13 47q28 0 172 -104q185 -136 321 -304q211 -260 219 -436q41 45 62 144q12 59 12 135q0 69 -12 207.5t-12 207.5q0 36 6 52q22 42 67 145q15 35 19 35q14 0 24 -100
q12 -91 37 -488q14 -302 62 -381.5t125 -79.5h90v-227zM506 1462q0 -22 -11.5 -46t-33.5 -45q-35 -34 -70 -46.5t-70 -12.5q-26 0 -47 5t-40.5 11t-38 11t-40.5 5q-19 0 -42.5 -11.5t-57.5 -34.5q-5 -3 -8 -3q-2 0 -3 1q-4 2 -4 9q0 4 13.5 24t34.5 42.5t45.5 40.5t46.5 18
q12 0 26 -3q63 58 118 93.5t98 35.5q18 0 33.5 -8.5t26.5 -22t17.5 -30.5t6.5 -33zM441 1428q0 17 -18.5 32.5t-43.5 15.5q-49 0 -125 -58l1 -3q26 -5 57 -16t69 -11q25 1 42.5 14t17.5 26z" />
    <glyph glyph-name="uniFEDF_uniFEE2.liga" unicode="&#xfedf;&#xfee2;" horiz-adv-x="1304" 
d="M807 0q-49 0 -98 33q-42 29 -58 61q-37 -137 -147 -137q-66 0 -104.5 61t-47.5 144q-113 -29 -156 -105q-34 -61 -34 -137q0 -9 41 -250.5t41 -310.5q0 -62 -12 -132.5t-21 -70.5h-1q-14 1 -14 29l6 -12q-6 26 -12 96q0 6 -47 293q-43 265 -43 334q0 47 15 146t28 138
q27 76 94 119q59 38 119 51q16 62 47 62q42 0 201 -119q88 -66 188 -66h264q35 0 35 52q0 5 -43 389q-1 7 -33 250q-25 188 -25 225q0 57 51 151q11 29 21 29q8 0 8 -39q0 -81 62 -123q53 -36 53 -57q0 -54 -72 -148q68 -432 68 -538q0 -100 -30 -222q-25 -104 -46 -139
q-36 -57 -143 -57h-155z" />
    <glyph glyph-name="uniFEE4_uniFE8E.liga" unicode="&#xfee4;&#xfe8e;" horiz-adv-x="1479" 
d="M1175 147q-13 62 -14 62q0 9 -2 28t-2 29q0 43 -29 56q-20 14 -68 14q-28 0 -85 -17q-60 -18 -60 -30q0 -10 120 -74t140 -68zM411 0q-118 0 -158.5 81t-50.5 441q-5 173 -19 303q-9 90 -28 189q-23 110 -25 110q0 13 4 23q11 14 39 61q9 22 33 72q7 14 14 14
q14 0 25 -71q18 -126 22 -199q15 -261 15 -432q0 -153 42 -259t134 -106h152q101 0 133 19q1 2 72 90q63 79 170 131q95 45 166 45q60 0 67 -72q11 -110 76 -166q55 -47 104 -47h95v-227h-162q-49 0 -76 25q-24 22 -24 26q-4 -4 -39 -75q-37 -76 -50 -76q-2 0 -43 24
q-43 29 -133 80q-109 54 -155 123q-15 29 -21 29q-11 0 -18 -33q-47 -123 -138 -123h-223z" />
    <glyph glyph-name="uniFEE4_uniFE82.liga" unicode="&#xfee4;&#xfe82;" horiz-adv-x="1499" 
d="M505 1546q0 -35 -79 -96q-62 -47 -142 -47q-29 0 -83 16.5t-74 16.5q-49 0 -70 -23q-30 -33 -39 -33q0 15 10 27q56 96 131 96q13 0 64 -16.5t84 -16.5q100 0 151 52q33 32 43 32q4 -1 4 -8zM1195 147q-13 62 -14 62q0 9 -2 28t-2 29q0 43 -29 56q-20 14 -68 14
q-28 0 -85 -17q-60 -18 -60 -30q0 -10 120 -74t140 -68zM439 0q-111 0 -162 99q-39 74 -46 214q0 105 -1 209q-8 287 -47 492q-22 110 -25 110q3 19 43 84q10 28 33 72q7 14 14 14q14 0 25 -71q18 -128 22 -199q15 -260 15 -432q0 -365 176 -365h144q101 0 133 19q1 2 72 90
q63 79 170 131q95 45 166 45q60 0 67 -72q11 -110 76 -166q55 -47 104 -47h95v-227h-162q-49 0 -76 25q-24 22 -24 26q-4 -4 -39 -75q-37 -76 -50 -76q-2 0 -43 24q-43 29 -133 80q-109 54 -155 123q-15 29 -21 29q-11 0 -18 -33q-47 -123 -138 -123h-215z" />
    <glyph glyph-name="uniFEE4_uniFE84.liga" unicode="&#xfee4;&#xfe84;" horiz-adv-x="1479" 
d="M357 1460q0 -17 -51 -57q-67 0 -143 -33q-95 -41 -95 -43q-3 0 -3 4q0 6 31 36q37 35 38 36q-26 6 -60 30t-34 50q0 36 59 80.5t103 44.5q51 0 51 -35q0 -14 -23.5 -38t-27.5 -24q-8 0 -15 15q-9 20 -32 20q-43 0 -43 -20q0 -18 46.5 -42t90.5 -24h24q16 0 44.5 2t31.5 2
q8 0 8 -4zM1175 147q-13 62 -14 62q0 9 -2 28t-2 29q0 43 -29 56q-20 14 -68 14q-28 0 -85 -17q-60 -18 -60 -30q0 -10 120 -74t140 -68zM411 0q-118 0 -158.5 81t-50.5 441q-5 173 -19 303q-9 90 -28 189q-23 110 -25 110q0 13 4 23q11 14 39 61q9 22 33 72q7 14 14 14
q14 0 25 -71q18 -126 22 -199q15 -261 15 -432q0 -153 42 -259t134 -106h152q101 0 133 19q1 2 72 90q63 79 170 131q95 45 166 45q60 0 67 -72q11 -110 76 -166q55 -47 104 -47h95v-227h-162q-49 0 -76 25q-24 22 -24 26q-4 -4 -39 -75q-37 -76 -50 -76q-2 0 -43 24
q-43 29 -133 80q-109 54 -155 123q-15 29 -21 29q-11 0 -18 -33q-47 -123 -138 -123h-223z" />
    <glyph glyph-name="uniFEE4_uniFE88.liga" unicode="&#xfee4;&#xfe88;" horiz-adv-x="1479" 
d="M489 -260q0 -16 -53 -57q-65 0 -141 -33q-96 -41 -96 -43q-4 0 -4 4l71 72q-30 6 -62 28.5t-32 50.5q0 35 58 79t102 44q53 0 53 -32q0 -11 -24 -36.5t-29 -25.5q-6 0 -15 14q-7 19 -32 19q-43 0 -43 -19t46 -42t91 -23h24q17 0 45 2t31 2q10 0 10 -4zM1175 147
q-13 62 -14 62q0 9 -2 28t-2 29q0 43 -29 56q-20 14 -68 14q-28 0 -85 -17q-60 -18 -60 -30q0 -10 120 -74t140 -68zM411 0q-118 0 -158.5 81t-50.5 441q-5 173 -19 303q-9 90 -28 189q-23 110 -25 110q0 13 4 23q11 14 39 61q9 22 33 72q7 14 14 14q14 0 25 -71
q18 -126 22 -199q15 -261 15 -432q0 -153 42 -259t134 -106h152q101 0 133 19q1 2 72 90q63 79 170 131q95 45 166 45q60 0 67 -72q11 -110 76 -166q55 -47 104 -47h95v-227h-162q-49 0 -76 25q-24 22 -24 26q-4 -4 -39 -75q-37 -76 -50 -76q-2 0 -43 24q-43 29 -133 80
q-109 54 -155 123q-15 29 -21 29q-11 0 -18 -33q-47 -123 -138 -123h-223z" />
    <glyph glyph-name="uniFEE8_uniFEAE.liga" unicode="&#xfee8;&#xfeae;" horiz-adv-x="1455" 
d="M1249 862q0 -17 -61.5 -89.5t-75.5 -72.5q-70 71 -166 144q0 12 63 89t78 77q20 0 91 -67.5t71 -80.5zM710 0q-38 0 -58 14v-57q0 -72 -32.5 -167t-79.5 -155q-92 -114 -205 -114q-90 0 -228 61q-104 47 -104 62q0 10 14 10q3 0 41 -9.5t68 -9.5q59 0 151 45
q87 42 158 101q66 54 118 134q48 74 48 108q0 30 -50 96.5t-50 75.5q0 36 21 119t32 83q2 0 55 -69q77 -101 172 -101h275q55 0 67 43q46 156 66 156q6 0 6 -29q0 -73 18 -104q39 -66 99 -66h157v-227h-157q-157 0 -189 137q-78 -137 -198 -137h-215z" />
    <glyph glyph-name="uniFEE7_uniFEE4.liga" unicode="&#xfee7;&#xfee4;" horiz-adv-x="1510" 
d="M645 147q-13 62 -14 62q0 9 -2 28t-2 29q0 43 -29 56q-20 14 -68 14q-28 0 -85 -17q-60 -18 -60 -30q0 -10 120 -74t140 -68zM1366 952q0 -16 -61.5 -88.5t-75.5 -72.5q-68 70 -166 143q0 13 63 89.5t80 76.5q20 0 90 -67.5t70 -80.5zM801 0q-49 0 -76 25q-24 22 -24 26
q-4 -4 -39 -75q-37 -76 -50 -76q-2 0 -43 24q-43 29 -133 80q-109 54 -155 123q-15 29 -21 29q-11 0 -18 -33q-47 -123 -138 -123h-104q-70 0 -70 113q0 114 70 114h80q101 0 133 19q1 2 72 90q63 79 170 131q95 45 166 45q60 0 67 -72q11 -110 76 -166q55 -47 104 -47h400
q43 0 43 19q0 44 -58 133q-12 19 -82 108q0 25 24 114q26 95 40 95q24 0 91 -126q75 -140 75 -242q0 -81 -20 -173q-19 -85 -38 -112q-19 -17 -90 -31q-63 -12 -104 -12h-348z" />
    <glyph glyph-name="uniFEE7_uniFEF0.liga" unicode="&#xfee7;&#xfef0;" horiz-adv-x="1690" 
d="M1546 952q0 -16 -61.5 -88.5t-75.5 -72.5q-68 70 -166 143q0 13 63 89.5t80 76.5q20 0 90 -67.5t70 -80.5zM1034 0q109 -64 109 -109q0 -40 -48 -112q-61 -92 -161 -158q-254 -166 -494 -166q-174 0 -260 109q-76 95 -76 256q0 144 66 299q64 151 86 151q14 0 14 -18
q-3 1 -36 -94q-35 -102 -35 -191q0 -280 256 -280q140 0 288 43q159 46 234 118q-20 30 -99 78q-86 52 -167 78l104 223h633q43 0 43 19q0 44 -58 133q-12 19 -82 108q0 25 24 114q26 95 40 95q24 0 91 -126q75 -140 75 -242q0 -81 -20 -173q-19 -85 -38 -112
q-19 -17 -90 -31q-63 -12 -104 -12h-295z" />
    <glyph glyph-name="uniFEE7_uniFEF2.liga" unicode="&#xfee7;&#xfef2;" horiz-adv-x="1690" 
d="M562 -789q0 -17 -59 -84t-70 -67q-45 42 -160 131q0 13 60 85.5t77 72.5q20 0 86 -62.5t66 -75.5zM879 -760q0 -18 -59.5 -85.5t-73.5 -67.5q-65 68 -156 133q0 11 59 84t72 73q20 0 89 -63t69 -74zM1546 952q0 -16 -61.5 -88.5t-75.5 -72.5q-68 70 -166 143
q0 13 63 89.5t80 76.5q20 0 90 -67.5t70 -80.5zM1034 0q109 -64 109 -109q0 -40 -48 -112q-61 -92 -161 -158q-254 -166 -494 -166q-174 0 -260 109q-76 95 -76 256q0 144 66 299q64 151 86 151q14 0 14 -18q-3 1 -36 -94q-35 -102 -35 -191q0 -280 256 -280q140 0 288 43
q159 46 234 118q-20 30 -99 78q-86 52 -167 78l104 223h633q43 0 43 19q0 44 -58 133q-12 19 -82 108q0 25 24 114q26 95 40 95q24 0 91 -126q75 -140 75 -242q0 -81 -20 -173q-19 -85 -38 -112q-19 -17 -90 -31q-63 -12 -104 -12h-295z" />
    <glyph glyph-name="uniFEF4_uniFEAE.liga" unicode="&#xfef4;&#xfeae;" horiz-adv-x="1675" 
d="M710 0q-38 0 -58 14v-57q0 -72 -32.5 -167t-79.5 -155q-92 -114 -205 -114q-90 0 -228 61q-104 47 -104 62q0 10 14 10q3 0 41 -9.5t68 -9.5q59 0 151 45q87 42 158 101q66 54 118 134q48 74 48 108q0 30 -50 96.5t-50 75.5q0 36 21 119t32 83q2 0 55 -69
q77 -101 172 -101h458q54 0 65 43q44 156 68 156q4 0 4 -29q0 -73 19 -104q38 -66 100 -66h194v-227h-194q-155 0 -191 137q-77 -137 -198 -137h-396zM1109 -270q0 -18 -58 -85t-69 -67q-45 43 -162 133q0 13 61 84.5t76 71.5q20 0 86 -62.5t66 -74.5zM1426 -242
q0 -18 -58.5 -84.5t-74.5 -66.5q-73 73 -156 133q0 12 60.5 84t73.5 72q19 0 87 -62.5t68 -75.5z" />
    <glyph glyph-name="uniFEF3_uniFEE4.liga" unicode="&#xfef3;&#xfee4;" horiz-adv-x="1595" 
d="M645 147q-13 62 -14 62q0 9 -2 28t-2 29q0 43 -29 56q-20 14 -68 14q-28 0 -85 -17q-60 -18 -60 -30q0 -10 120 -74t140 -68zM801 0q-49 0 -76 25q-24 22 -24 26q-4 -4 -39 -75q-37 -76 -50 -76q-2 0 -43 24q-43 29 -133 80q-109 54 -155 123q-15 29 -21 29
q-11 0 -18 -33q-47 -123 -138 -123h-104q-70 0 -70 113q0 114 70 114h80q101 0 133 19q1 2 72 90q63 79 170 131q95 45 166 45q60 0 67 -72q11 -110 76 -166q55 -47 104 -47h485q43 0 43 19q0 44 -57 133q-12 19 -82 108q0 25 24 114q26 95 40 95q24 0 91 -126
q75 -140 75 -242q0 -81 -21 -173q-18 -85 -37 -112q-19 -17 -90 -31q-63 -12 -104 -12h-434zM1184 -270q0 -18 -57.5 -85t-69.5 -67q-45 43 -161 133q0 13 60.5 84.5t76.5 71.5q20 0 85.5 -62.5t65.5 -74.5zM1508 -260q0 -18 -59.5 -86t-73.5 -68q-67 70 -158 133
q0 12 60 85t73 73q20 0 89 -62.5t69 -74.5z" />
    <glyph glyph-name="uniFEF4_uniFEE6.liga" unicode="&#xfef4;&#xfee6;" horiz-adv-x="2015" 
d="M668 782q0 -18 -61 -89.5t-77 -71.5q-67 70 -165 143q0 13 63 89.5t80 76.5q20 0 90 -67.5t70 -80.5zM1104 0q-58 0 -105 51q-33 45 -41 63q15 -55 15 -100q0 -60 -29 -170q-32 -124 -72 -176q-53 -70 -203 -116q-134 -41 -257 -41q-148 0 -228 86.5t-80 240.5
q0 136 63 275q52 114 71 114q8 0 8 -14q0 -4 -31 -91t-31 -140q0 -100 67 -166q76 -76 218 -76q168 0 308 56q132 53 132 110q0 64 -27 171q-32 127 -81 208q-19 30 -19 47q0 25 24 117q24 96 34 96q7 0 42 -64q38 -68 62 -131q20 -52 79 -90q52 -33 95 -33h461q54 0 65 43
q44 156 68 156q4 0 4 -29q0 -73 19 -104q38 -66 100 -66h194v-227h-194q-155 0 -191 137q-77 -137 -198 -137h-342zM1449 -270q0 -18 -58 -85t-69 -67q-45 43 -162 133q0 13 61 84.5t76 71.5q20 0 86 -62.5t66 -74.5zM1766 -242q0 -18 -58.5 -84.5t-74.5 -66.5
q-73 73 -156 133q0 12 60.5 84t73.5 72q19 0 87 -62.5t68 -75.5z" />
    <glyph glyph-name="T_h.liga" unicode="Th" horiz-adv-x="1723" 
d="M914 869h-1l-7 130q-4 30 -16 42t-49 12h-255q-3 -37 -4.5 -76.5t-1.5 -87.5v-692q0 -48 3 -79t11 -44q14 -24 69 -25l79 -5v-49q-128 5 -237 5q-61 0 -120 -1t-123 -4v49l79 5q56 1 68 25q8 13 11.5 44t3.5 79v692q0 48 -1.5 87.5t-5.5 76.5h-253q-38 0 -50 -12t-16 -42
l-6 -130h-51q0 68 -2.5 134t-8.5 130q88 0 176.5 -2t176.5 -2h238q44 0 88 0.5t88 2.5h5q55 8 109 20q64 13 126 37l15 -13v-554h3l121 105q28 23 55.5 32.5t77.5 9.5q144 0 207 -76t63 -210v-316q0 -33 2 -57.5t6 -37.5q10 -19 52 -23l68 -5v-49q-31 2 -65.5 3.5t-68.5 1.5
t-69 -1.5t-62 -3.5v465q0 104 -52.5 156.5t-136.5 52.5q-38 0 -73.5 -15t-64.5 -37.5t-46 -50t-17 -52.5v-347q0 -33 1.5 -57.5t6.5 -37.5q10 -19 52 -23l74 -5v-49q-42 2 -92 3.5t-111 1.5t-110.5 -1.5t-92.5 -3.5v49l73 5q43 4 53 23q5 13 6.5 37.5t1.5 57.5v702z" />
    <glyph glyph-name="f_b.liga" unicode="fb" horiz-adv-x="1496" 
d="M836 152q0 -13 19.5 -28.5t50 -28.5t65.5 -22t64 -9q49 0 94.5 19.5t78 59t52 99.5t19.5 140q0 54 -13 104t-40.5 89t-70.5 62.5t-103 23.5q-48 0 -87 -17t-68 -41.5t-45 -51.5t-16 -46v-353zM583 1083v-34l-36 -11q-28 22 -56.5 34.5t-59.5 12.5q-37 0 -61 -11
t-37.5 -37t-17.5 -71t-4 -116v-139l214 6l-11 -87h-203v-463q0 -33 1.5 -57.5t6.5 -37.5q11 -19 53 -23l85 -5v-49q-52 2 -103 3.5t-112 1.5q-60 0 -110 -1.5t-94 -3.5v49l75 5q43 4 53 23q4 13 6 37.5t2 57.5v463l-113 -6v36l113 51v69q0 81 16 138t52 98l96 108
q32 37 72 53t75 16q18 0 40 -5t58 -14v-42q57 8 112 20q64 13 126 37l15 -13v-568h3l87 88q16 17 39 30t49 22.5t55 15t55 5.5q72 0 127.5 -26.5t93.5 -72.5t57.5 -106.5t19.5 -129.5q0 -40 -9.5 -84.5t-27.5 -85.5t-42 -75.5t-50 -54.5l-164 -118q-38 -27 -77.5 -31.5
t-71.5 -4.5q-54 0 -107 14t-97 45l-64 -59l-27 10q2 18 3.5 35t3.5 36l6 189v766q0 28 -6.5 47.5t-34.5 19.5h-74z" />
    <glyph glyph-name="f_f_b.liga" unicode="ffb" horiz-adv-x="2006" 
d="M1346 152q0 -13 19.5 -28.5t50 -28.5t65.5 -22t64 -9q49 0 94.5 19.5t78 59t52 99.5t19.5 140q0 54 -13 104t-40.5 89t-70.5 62.5t-103 23.5q-48 0 -87 -17t-68 -41.5t-45 -51.5t-16 -46v-353zM311 630v-463q0 -33 1.5 -57.5t6.5 -37.5q11 -19 53 -23l85 -5v-49
q-52 2 -103 3.5t-112 1.5q-60 0 -110 -1.5t-94 -3.5v49l75 5q43 4 53 23q4 13 6 37.5t2 57.5v463l-113 -6v36l113 51v69q0 81 16 138t52 98l96 108q32 37 72 53t75 16q18 0 37 -5t36 -14v-125l-19 -11q-23 22 -50 34.5t-58 12.5q-37 0 -61 -11t-37.5 -37t-17.5 -71t-4 -116
v-139h373v69q0 81 16 138t52 98l96 108q32 37 72 53t75 16q18 0 40 -5t58 -14v-42q57 8 112 20q64 13 126 37l15 -13v-568h3l87 88q16 17 39 30t49 22.5t55 15t55 5.5q72 0 127.5 -26.5t93.5 -72.5t57.5 -106.5t19.5 -129.5q0 -40 -9.5 -84.5t-27.5 -85.5t-42 -75.5
t-50 -54.5l-164 -118q-38 -27 -77.5 -31.5t-71.5 -4.5q-54 0 -107 14t-97 45l-64 -59l-27 10q2 18 3.5 35t3.5 36l6 189v766q0 28 -6.5 47.5t-34.5 19.5h-74v-34l-36 -11q-28 22 -56.5 34.5t-59.5 12.5q-37 0 -61 -11t-37.5 -37t-17.5 -71t-4 -116v-139l214 6l-11 -87h-203
v-463q0 -33 1.5 -57.5t6.5 -37.5q11 -19 53 -23l85 -5v-49q-52 2 -103 3.5t-112 1.5q-60 0 -110 -1.5t-94 -3.5v49l75 5q43 4 53 23q4 13 6 37.5t2 57.5v463h-373z" />
    <glyph glyph-name="f_f.liga" unicode="ff" horiz-adv-x="1058" 
d="M687 630h-376v-463q0 -33 1.5 -57.5t6.5 -37.5q11 -19 53 -23l85 -5v-49q-52 2 -103 3.5t-112 1.5q-60 0 -110 -1.5t-94 -3.5v49l75 5q43 4 53 23q4 13 6 37.5t2 57.5v463l-113 -6v36l113 51v69q0 81 16 138t52 98l96 108q32 37 72 53t75 16q18 0 37 -5t36 -14v-125
l-19 -11q-23 22 -50 34.5t-58 12.5q-37 0 -61 -11t-37.5 -37t-17.5 -71t-4 -116v-139l376 6v63q0 81 16 138t52 98l96 108q32 37 72 53t75 16q18 0 37 -5t36 -14v-125l-19 -11q-23 22 -50 34.5t-58 12.5q-37 0 -61 -11t-37.5 -37t-17.5 -71t-4 -116v-139l214 6l-11 -87h-203
v-463q0 -33 1.5 -57.5t6.5 -37.5q11 -19 53 -23l75 -5v-49q-44 2 -94 3.5t-111 1.5q-60 0 -110 -1.5t-94 -3.5v49l75 5q43 4 53 23q4 13 6 37.5t2 57.5v463z" />
    <glyph glyph-name="f_h.liga" unicode="fh" horiz-adv-x="1503" 
d="M583 1083v-34l-36 -11q-28 22 -56.5 34.5t-59.5 12.5q-37 0 -61 -11t-37.5 -37t-17.5 -71t-4 -116v-139l214 6l-11 -87h-203v-463q0 -33 1.5 -57.5t6.5 -37.5q11 -19 53 -23l85 -5v-49q-52 2 -103 3.5t-112 1.5q-60 0 -110 -1.5t-94 -3.5v49l75 5q43 4 53 23q4 13 6 37.5
t2 57.5v463l-113 -6v36l113 51v69q0 81 16 138t52 98l96 108q32 37 72 53t75 16q18 0 40 -5t58 -14v-42q55 8 108 20q64 13 126 37l15 -13v-554h3l121 105q28 23 55.5 32.5t77.5 9.5q144 0 207 -76t63 -210v-316q0 -33 2 -57.5t6 -37.5q10 -19 52 -23l68 -5v-49
q-31 2 -65.5 3.5t-68.5 1.5t-69 -1.5t-62 -3.5v465q0 104 -52.5 156.5t-136.5 52.5q-38 0 -73.5 -15t-64.5 -37.5t-46 -50t-17 -52.5v-347q0 -33 1.5 -57.5t6.5 -37.5q10 -19 52 -23l74 -5v-49q-42 2 -92 3.5t-111 1.5t-110.5 -1.5t-92.5 -3.5v49l73 5q43 4 53 23
q5 13 6.5 37.5t1.5 57.5v849q0 28 -6.5 47.5t-34.5 19.5h-70z" />
    <glyph glyph-name="f_f_h.liga" unicode="ffh" horiz-adv-x="2013" 
d="M311 630v-463q0 -33 1.5 -57.5t6.5 -37.5q11 -19 53 -23l85 -5v-49q-52 2 -103 3.5t-112 1.5q-60 0 -110 -1.5t-94 -3.5v49l75 5q43 4 53 23q4 13 6 37.5t2 57.5v463l-113 -6v36l113 51v69q0 81 16 138t52 98l96 108q32 37 72 53t75 16q18 0 37 -5t36 -14v-125l-19 -11
q-23 22 -50 34.5t-58 12.5q-37 0 -61 -11t-37.5 -37t-17.5 -71t-4 -116v-139h373v69q0 81 16 138t52 98l96 108q32 37 72 53t75 16q18 0 40 -5t58 -14v-42q55 8 108 20q64 13 126 37l15 -13v-554h3l121 105q28 23 55.5 32.5t77.5 9.5q144 0 207 -76t63 -210v-316
q0 -33 2 -57.5t6 -37.5q10 -19 52 -23l68 -5v-49q-31 2 -65.5 3.5t-68.5 1.5t-69 -1.5t-62 -3.5v465q0 104 -52.5 156.5t-136.5 52.5q-38 0 -73.5 -15t-64.5 -37.5t-46 -50t-17 -52.5v-347q0 -33 1.5 -57.5t6.5 -37.5q10 -19 52 -23l74 -5v-49q-42 2 -92 3.5t-111 1.5
t-110.5 -1.5t-92.5 -3.5v49l73 5q43 4 53 23q5 13 6.5 37.5t1.5 57.5v849q0 28 -6.5 47.5t-34.5 19.5h-70v-34l-36 -11q-28 22 -56.5 34.5t-59.5 12.5q-37 0 -61 -11t-37.5 -37t-17.5 -71t-4 -116v-139l214 6l-11 -87h-203v-463q0 -33 1.5 -57.5t6.5 -37.5q11 -19 53 -23
l85 -5v-49q-52 2 -103 3.5t-112 1.5q-60 0 -110 -1.5t-94 -3.5v49l75 5q43 4 53 23q4 13 6 37.5t2 57.5v463h-373z" />
    <glyph glyph-name="f_f_i.liga" unicode="ffi" horiz-adv-x="1501" 
d="M1273 1125q36 0 64 -28t28 -64t-28 -62.5t-64 -26.5t-63 26.5t-27 62.5t27 64t63 28zM311 630v-463q0 -33 1.5 -57.5t6.5 -37.5q11 -19 53 -23l85 -5v-49q-52 2 -103 3.5t-112 1.5q-60 0 -110 -1.5t-94 -3.5v49l75 5q43 4 53 23q4 13 6 37.5t2 57.5v463l-113 -6v36
l113 51v69q0 81 16 138t52 98l96 108q32 37 72 53t75 16q18 0 37 -5t36 -14v-125l-19 -11q-23 22 -50 34.5t-58 12.5q-37 0 -61 -11t-37.5 -37t-17.5 -71t-4 -116v-139h373v69q0 81 16 138t52 98l96 108q32 37 72 53t75 16q18 0 37 -5t36 -14v-125l-19 -11q-23 22 -50 34.5
t-58 12.5q-37 0 -61 -11t-37.5 -37t-17.5 -71t-4 -116v-139l198 6l-11 -87h-187v-463q0 -33 1.5 -57.5t6.5 -37.5q11 -19 53 -23l85 -5v-49q-52 2 -103 3.5t-112 1.5q-60 0 -110 -1.5t-94 -3.5v49l75 5q43 4 53 23q4 13 6 37.5t2 57.5v463h-373zM1335 167q0 -33 2 -57.5
t6 -37.5q11 -19 53 -23l75 -5v-49q-44 2 -94 3.5t-110 1.5q-61 0 -111 -1.5t-94 -3.5v49l75 5q43 4 53 23q5 13 6.5 37.5t1.5 57.5v366q0 39 -2.5 65t-8.5 36q-14 18 -61 18h-61v45q74 9 142 28.5t114 43.5l14 -12v-590z" />
    <glyph glyph-name="f_j.liga" unicode="fj" horiz-adv-x="991" 
d="M763 1125q36 0 64 -28t28 -64t-28 -62.5t-64 -26.5t-63 26.5t-27 62.5t27 64t63 28zM558 1049l-19 -11q-23 22 -50 34.5t-58 12.5q-37 0 -61 -11t-37.5 -37t-17.5 -71t-4 -116v-139l198 6l-11 -87h-187v-463q0 -33 1.5 -57.5t6.5 -37.5q11 -19 53 -23l85 -5v-49
q-52 2 -103 3.5t-112 1.5q-60 0 -110 -1.5t-94 -3.5v49l75 5q43 4 53 23q4 13 6 37.5t2 57.5v463l-113 -6v36l113 51v69q0 81 16 138t52 98l96 108q32 37 72 53t75 16q18 0 37 -5t36 -14v-125zM825 -31q0 -100 -23.5 -178.5t-63.5 -131.5q-40 -49 -92 -86t-128 -37l-20 62
q25 -4 56 -4q20 0 46 17t44 53q18 34 30.5 118t12.5 207v547q0 39 -2.5 65t-9.5 36q-13 18 -61 18h-60v46q74 8 142 28t114 40l15 -8v-792z" />
    <glyph glyph-name="f_f_j.liga" unicode="ffj" horiz-adv-x="1501" 
d="M1273 1125q36 0 64 -28t28 -64t-28 -62.5t-64 -26.5t-63 26.5t-27 62.5t27 64t63 28zM311 630v-463q0 -33 1.5 -57.5t6.5 -37.5q11 -19 53 -23l85 -5v-49q-52 2 -103 3.5t-112 1.5q-60 0 -110 -1.5t-94 -3.5v49l75 5q43 4 53 23q4 13 6 37.5t2 57.5v463l-113 -6v36
l113 51v69q0 81 16 138t52 98l96 108q32 37 72 53t75 16q18 0 37 -5t36 -14v-125l-19 -11q-23 22 -50 34.5t-58 12.5q-37 0 -61 -11t-37.5 -37t-17.5 -71t-4 -116v-139h373v69q0 81 16 138t52 98l96 108q32 37 72 53t75 16q18 0 37 -5t36 -14v-125l-19 -11q-23 22 -50 34.5
t-58 12.5q-37 0 -61 -11t-37.5 -37t-17.5 -71t-4 -116v-139l198 6l-11 -87h-187v-463q0 -33 1.5 -57.5t6.5 -37.5q11 -19 53 -23l85 -5v-49q-52 2 -103 3.5t-112 1.5q-60 0 -110 -1.5t-94 -3.5v49l75 5q43 4 53 23q4 13 6 37.5t2 57.5v463h-373zM1335 -31
q0 -100 -23.5 -178.5t-63.5 -131.5q-40 -49 -92 -86t-128 -37l-20 62q25 -4 56 -4q20 0 46 17t44 53q18 34 30.5 118t12.5 207v547q0 39 -2.5 65t-9.5 36q-13 18 -61 18h-60v46q74 8 142 28t114 40l15 -8v-792z" />
    <glyph glyph-name="f_k.liga" unicode="fk" horiz-adv-x="1431" 
d="M583 1083v-34l-36 -11q-28 22 -56.5 34.5t-59.5 12.5q-37 0 -61 -11t-37.5 -37t-17.5 -71t-4 -116v-139l214 6l-11 -87h-203v-463q0 -33 1.5 -57.5t6.5 -37.5q11 -19 53 -23l85 -5v-49q-52 2 -103 3.5t-112 1.5q-60 0 -110 -1.5t-94 -3.5v49l75 5q43 4 53 23q4 13 6 37.5
t2 57.5v463l-113 -6v36l113 51v69q0 81 16 138t52 98l96 108q32 37 72 53t75 16q18 0 40 -5t58 -14v-41q52 8 104 19q64 13 127 37l14 -13v-748l120 96q65 53 129.5 115t115.5 113h164v-49h-8q-48 0 -90 -25t-79 -53l-211 -165q24 -29 50 -56t54 -55l207 -205
q26 -26 63.5 -52t75.5 -26v-38l-157 -48l-434 414v-227q0 -33 1.5 -57.5t6.5 -37.5q10 -19 53 -23l72 -5v-49q-43 2 -92 3.5t-110 1.5t-111 -1.5t-94 -3.5v49l76 5q42 4 52 23q5 13 6.5 37.5t1.5 57.5v849q0 28 -6 47.5t-34 19.5h-67z" />
    <glyph glyph-name="f_f_k.liga" unicode="ffk" horiz-adv-x="1941" 
d="M311 630v-463q0 -33 1.5 -57.5t6.5 -37.5q11 -19 53 -23l85 -5v-49q-52 2 -103 3.5t-112 1.5q-60 0 -110 -1.5t-94 -3.5v49l75 5q43 4 53 23q4 13 6 37.5t2 57.5v463l-113 -6v36l113 51v69q0 81 16 138t52 98l96 108q32 37 72 53t75 16q18 0 37 -5t36 -14v-125l-19 -11
q-23 22 -50 34.5t-58 12.5q-37 0 -61 -11t-37.5 -37t-17.5 -71t-4 -116v-139h373v69q0 81 16 138t52 98l96 108q32 37 72 53t75 16q18 0 40 -5t58 -14v-41q52 8 104 19q64 13 127 37l14 -13v-748l120 96q65 53 129.5 115t115.5 113h164v-49h-8q-48 0 -90 -25t-79 -53
l-211 -165q24 -29 50 -56t54 -55l207 -205q26 -26 63.5 -52t75.5 -26v-38l-157 -48l-434 414v-227q0 -33 1.5 -57.5t6.5 -37.5q10 -19 53 -23l72 -5v-49q-43 2 -92 3.5t-110 1.5t-111 -1.5t-94 -3.5v49l76 5q42 4 52 23q5 13 6.5 37.5t1.5 57.5v849q0 28 -6 47.5t-34 19.5
h-67v-34l-36 -11q-28 22 -56.5 34.5t-59.5 12.5q-37 0 -61 -11t-37.5 -37t-17.5 -71t-4 -116v-139l214 6l-11 -87h-203v-463q0 -33 1.5 -57.5t6.5 -37.5q11 -19 53 -23l85 -5v-49q-52 2 -103 3.5t-112 1.5q-60 0 -110 -1.5t-94 -3.5v49l75 5q43 4 53 23q4 13 6 37.5t2 57.5
v463h-373z" />
    <glyph glyph-name="f_f_l.liga" unicode="ffl" horiz-adv-x="1506" 
d="M311 630v-463q0 -33 1.5 -57.5t6.5 -37.5q11 -19 53 -23l85 -5v-49q-52 2 -103 3.5t-112 1.5q-60 0 -110 -1.5t-94 -3.5v49l75 5q43 4 53 23q4 13 6 37.5t2 57.5v463l-113 -6v36l113 51v69q0 81 16 138t52 98l96 108q32 37 72 53t75 16q18 0 37 -5t36 -14v-125l-19 -11
q-23 22 -50 34.5t-58 12.5q-37 0 -61 -11t-37.5 -37t-17.5 -71t-4 -116v-139h373v69q0 81 16 138t52 98l96 108q32 37 72 53t75 16q18 0 40 -5t58 -14v-45q47 9 108.5 23t124.5 37l14 -16v-1006q0 -33 1.5 -57.5t7.5 -37.5q10 -19 52 -23l75 -5v-49q-44 2 -94 3.5t-111 1.5
q-60 0 -110 -1.5t-94 -3.5v49l76 5q42 4 52 23q4 13 6 37.5t2 57.5v826q0 12 -2 28t-6 30t-12 23t-21 9h-69v-34l-36 -11q-28 22 -56.5 34.5t-59.5 12.5q-37 0 -61 -11t-37.5 -37t-17.5 -71t-4 -116v-139l214 6l-11 -87h-203v-463q0 -33 1.5 -57.5t6.5 -37.5q11 -19 53 -23
l85 -5v-49q-52 2 -103 3.5t-112 1.5q-60 0 -110 -1.5t-94 -3.5v49l75 5q43 4 53 23q4 13 6 37.5t2 57.5v463h-373z" />
    <glyph glyph-name="f_t.liga" unicode="ft" horiz-adv-x="1063" 
d="M693 630h-382v-463q0 -33 1.5 -57.5t6.5 -37.5q11 -19 53 -23l85 -5v-49q-52 2 -103 3.5t-112 1.5q-60 0 -110 -1.5t-94 -3.5v49l75 5q43 4 53 23q4 13 6 37.5t2 57.5v463l-113 -6v36l113 51v69q0 81 16 138t52 98l96 108q32 37 72 53t75 16q18 0 37 -5t36 -14v-125
l-19 -11q-23 22 -50 34.5t-58 12.5q-37 0 -61 -11t-37.5 -37t-17.5 -71t-4 -116v-139l382 6v108q0 33 -1.5 65t-4.5 65q44 13 80.5 31t58.5 31l19 -18q-8 -54 -13 -117t-5 -116v-61l224 9l-14 -89h-210v-428q0 -58 19 -86t71 -28q33 0 56 11t41 20l21 -27l-78 -87
q-12 -13 -46.5 -16.5t-60.5 -3.5q-33 0 -61.5 8.5t-51 29t-35 54t-12.5 82.5l3 471v5z" />
    <glyph glyph-name="f_f_t.liga" unicode="fft" horiz-adv-x="1573" 
d="M1203 630h-382v-463q0 -33 1.5 -57.5t6.5 -37.5q11 -19 53 -23l85 -5v-49q-52 2 -103 3.5t-112 1.5q-60 0 -110 -1.5t-94 -3.5v49l75 5q43 4 53 23q4 13 6 37.5t2 57.5v463h-373v-463q0 -33 1.5 -57.5t6.5 -37.5q11 -19 53 -23l85 -5v-49q-52 2 -103 3.5t-112 1.5
q-60 0 -110 -1.5t-94 -3.5v49l75 5q43 4 53 23q4 13 6 37.5t2 57.5v463l-113 -6v36l113 51v69q0 81 16 138t52 98l96 108q32 37 72 53t75 16q18 0 37 -5t36 -14v-125l-19 -11q-23 22 -50 34.5t-58 12.5q-37 0 -61 -11t-37.5 -37t-17.5 -71t-4 -116v-139h373v69q0 81 16 138
t52 98l96 108q32 37 72 53t75 16q18 0 37 -5t36 -14v-125l-19 -11q-23 22 -50 34.5t-58 12.5q-37 0 -61 -11t-37.5 -37t-17.5 -71t-4 -116v-139l382 6v108q0 33 -1.5 65t-4.5 65q44 13 80.5 31t58.5 31l19 -18q-8 -54 -13 -117t-5 -116v-61l224 9l-14 -89h-210v-428
q0 -58 19 -86t71 -28q33 0 56 11t41 20l21 -27l-78 -87q-12 -13 -46.5 -16.5t-60.5 -3.5q-33 0 -61.5 8.5t-51 29t-35 54t-12.5 82.5l3 471v5z" />
    <glyph glyph-name="uni0647.fina" unicode="&#x647;" horiz-adv-x="949" arabic-form="final" 
d="M963 0h-194q28 -52 28 -176q0 -217 -137 -217q-149 0 -238 137q-51 79 -51 256q-66 -12 -113.5 -27t-80.5 -36t-53 -50.5t-30 -69.5q-7 -22 -14 -22q-1 0 -3 1q-9 6 -9 48q0 18 4 53.5t14.5 76t28.5 79.5t45 65q42 39 105 64.5t153 44.5q53 97 119.5 199t161.5 219
q78 109 84 109q14 0 14 -54q0 -13 2.5 -36t7.5 -57t8 -64t3 -56q0 -66 -33 -150q-26 -68 -57 -110h235v-227zM713 342q0 14 -3.5 40.5t-10.5 68.5q-12 65 -29 65q-9 0 -93 -124q-42 -63 -63.5 -100.5t-21.5 -48.5q13 3 46 10t75 13q71 11 76 19q24 10 24 57zM721 -170
q0 48 -94 117q-67 49 -137 49q-43 0 -43 -21q0 -13 29 -54q32 -45 65 -64q80 -47 144 -47q36 0 36 20z" />
    <glyph glyph-name="uni0672.fina" unicode="&#x672;" horiz-adv-x="560" 
d="M574 0h-141q-118 0 -158.5 81t-50.5 441q-5 173 -19 303q-9 90 -28 189q-23 110 -25 110q0 13 4 23q11 14 39 61q9 22 33 72q7 14 14 14q14 0 25 -71q18 -126 22 -199q15 -261 15 -432q0 -153 42 -259t134 -106h94v-227zM272 1403q-22 -2 -38 -2q-11 0 -19 1
q-23 2 -41.5 7t-40.5 5q-19 0 -42.5 -11.5t-57.5 -34.5q-5 -3 -8 -3q-2 0 -3 1q-4 2 -4 9q0 4 13.5 24t34.5 42.5t45.5 40.5t46.5 18q12 0 26 -3l33 -7q-35 23 -35 51q0 36 59 80.5t103 44.5q53 0 53 -35q0 -12 -24.5 -37t-28.5 -25t-14 15q-9 20 -33 20q-43 0 -43 -20
q0 -18 46.5 -42t90.5 -24h25q16 0 44.5 2t30.5 2q11 0 11 -4q0 -16 -54 -57q-72 -15 -106.5 -34.5t-69.5 -23.5z" />
    <glyph glyph-name="uni0673.fina" unicode="&#x673;" horiz-adv-x="560" 
d="M574 0h-141q-118 0 -158.5 81t-50.5 441q-5 173 -19 303q-9 90 -28 189q-23 110 -25 110q0 13 4 23q11 14 39 61q9 22 33 72q7 14 14 14q14 0 25 -71q18 -126 22 -199q15 -261 15 -432q0 -153 42 -259t134 -106h94v-227zM272 -378q-22 -2 -38 -2q-11 0 -19 1
q-23 2 -41.5 7t-40.5 5q-19 0 -42.5 -11.5t-57.5 -34.5q-5 -3 -8 -3q-2 0 -3 1q-4 2 -4 9q0 4 13.5 24t34.5 42.5t45.5 40.5t46.5 18q12 0 26 -3l33 -7q-35 23 -35 51q0 36 59 80.5t103 44.5q53 0 53 -35q0 -12 -24.5 -37t-28.5 -25t-14 15q-9 20 -33 20q-43 0 -43 -20
q0 -18 46.5 -42t90.5 -24h25q16 0 44.5 2t30.5 2q11 0 11 -4q0 -16 -54 -57q-72 -15 -106.5 -34.5t-69.5 -23.5z" />
    <glyph glyph-name="uni0675.fina" unicode="&#x675;" horiz-adv-x="668" 
d="M682 0h-271q-118 0 -158.5 81t-50.5 441q-5 173 -19 303q-9 90 -28 189q-23 110 -25 110q0 13 4 23q11 14 39 61q9 22 33 72q7 14 14 14q14 0 25 -71q18 -126 22 -199q15 -261 15 -432q0 -153 42 -259t134 -106h224v-227zM620 1416q0 -17 -51 -57q-67 0 -143 -33
q-95 -41 -95 -43q-3 0 -3 4q0 6 31 36q37 35 38 36q-26 6 -60 30t-34 50q0 36 59 80.5t103 44.5q51 0 51 -35q0 -14 -23.5 -38t-27.5 -24q-8 0 -15 15q-9 20 -32 20q-43 0 -43 -20q0 -18 46.5 -42t90.5 -24h24q16 0 44.5 2t31.5 2q8 0 8 -4z" />
    <glyph glyph-name="uni0676.fina" unicode="&#x676;" horiz-adv-x="966" 
d="M980 0h-313q-25 -118 -86 -246q-112 -233 -246 -233q-83 0 -203 47q-129 50 -129 76q0 10 10 10q3 0 39.5 -7t65.5 -7q65 0 162 42q87 37 131 76q47 43 110.5 124.5t79.5 117.5h-256q-82 0 -82 123q0 91 62 242q60 147 147 147q61 0 131.5 -95.5t81.5 -189.5h295v-227z
M540 223q-64 105 -129 105q-58 0 -58 -62q0 -43 39 -43h148zM915 807q0 -8 -21.5 -32t-35.5 -34q-94 0 -162 -35q-91 -47 -104 -47q-4 0 -4 6l75 76q-19 4 -65 33q-43 39 -43 57q0 41 67 89t117 48q62 0 62 -34q0 -18 -25 -48q-19 -22 -37 -22q-9 0 -15 18.5t-36 18.5
q-49 0 -49 -19q0 -22 52 -48.5t99 -26.5h29q20 0 51 2t35 2q10 0 10 -4z" />
    <glyph glyph-name="uni0677.fina" unicode="&#x677;" horiz-adv-x="966" 
d="M980 0h-313q-25 -118 -86 -246q-112 -233 -246 -233q-83 0 -203 47q-129 50 -129 76q0 10 10 10q3 0 39.5 -7t65.5 -7q65 0 162 42q87 37 131 76q47 43 110.5 124.5t79.5 117.5h-256q-82 0 -82 123q0 91 62 242q60 147 147 147q61 0 131.5 -95.5t81.5 -189.5h295v-227z
M540 223q-64 105 -129 105q-58 0 -58 -62q0 -43 39 -43h148zM912 808q0 -8 -21.5 -32t-35.5 -34q-94 0 -162 -35q-91 -47 -104 -47q-4 0 -4 6l75 76q-19 4 -65 33q-43 39 -43 57q0 41 67 89t117 48q62 0 62 -34q0 -18 -25 -48q-19 -22 -37 -22q-9 0 -15 18.5t-36 18.5
q-49 0 -49 -19q0 -22 52 -48.5t99 -26.5h29q20 0 51 2t35 2q10 0 10 -4zM492 906q0 -45 -22 -75q-15 -20 -43 -50q2 -1 4 -4l-33 -32h-18q-29 -22 -76 -54q-53 -26 -129 -26q-80 0 -80 8q0 10 8 10q35 0 126 33t122 57q-43 44 -43 90q0 48 44 76.5t85 28.5q55 0 55 -62z
M441 882q0 28 -33 28q-39 0 -39 -24q0 -23 43 -66q29 21 29 62z" />
    <glyph glyph-name="uni0678.init" unicode="&#x678;" horiz-adv-x="742" 
d="M722 977q0 -23 -57 -68q-73 0 -162 -32q-94 -48 -104 -48q-4 0 -4 5q0 15 75 75q-20 5 -65 39q-43 26 -43 51q0 42 66.5 90t117.5 48q62 0 62 -33q0 -13 -33 -43q-21 -27 -29 -27q-9 0 -14 19q-9 18 -37 18q-49 0 -49 -18q0 -22 51.5 -49t99.5 -27h29q20 0 50.5 2t35.5 2
q10 0 10 -4zM537 328q0 -81 -21 -173q-18 -85 -37 -112q-19 -17 -90 -31q-63 -12 -104 -12h-285q-70 0 -70 113q0 114 70 114h403q43 0 43 19q0 44 -57 133q-12 19 -82 108q0 25 24 114q26 95 40 95q24 0 91 -126q75 -140 75 -242z" />
    <glyph glyph-name="uni0678.medi" unicode="&#x678;" horiz-adv-x="735" 
d="M749 0h-284q-155 0 -191 137q-77 -137 -198 -137h-76q-70 0 -70 113q0 114 70 114h209q54 0 65 43q44 156 68 156q4 0 4 -29q0 -73 19 -104q38 -66 100 -66h284v-227zM658 739q0 -21 -57 -65q-68 0 -162 -35q-94 -47 -105 -47q-4 0 -4 6l76 76q-13 3 -66 37
q-43 27 -43 53q0 40 67 88.5t118 48.5q61 0 61 -35q0 -23 -28 -47q-19 -22 -33 -22q-9 0 -15.5 18.5t-35.5 18.5q-50 0 -50 -19q0 -22 52.5 -49t101.5 -27h27q20 0 50.5 2t35.5 2q10 0 10 -4z" />
    <glyph glyph-name="uni0678.fina" unicode="&#x678;" horiz-adv-x="1291" 
d="M1305 0h-271q109 -63 109 -109q0 -41 -47 -112q-61 -92 -162 -158q-254 -166 -494 -166q-167 0 -254 101q-82 95 -82 264q0 79 53 257q57 193 99 193q4 0 6 -2q-8 -16 -28 -99q-35 -152 -35 -202q0 -280 256 -280q142 0 288 43q157 46 234 118q-21 32 -98 78
q-85 51 -168 78l104 223h490v-227zM1248 499q0 -21 -53 -58q-65 0 -142 -32q-95 -41 -95 -43q-5 0 -5 4l72 71q-30 7 -59 29q-35 25 -35 51q0 38 61 82q58 41 98 41q54 0 54 -33q0 -10 -23.5 -35.5t-30.5 -25.5q-1 0 -12.5 16.5t-34.5 16.5q-43 0 -43 -19q0 -25 59 -47
q50 -18 80 -18h23q16 0 45 2l31 2q9 0 10 -4z" />
    <glyph glyph-name="uni067C.init" unicode="&#x67c;" horiz-adv-x="645" 
d="M598 943q0 -18 -59.5 -85t-73.5 -67q-66 66 -156 133q0 11 59.5 83.5t73.5 72.5q20 0 88 -62.5t68 -74.5zM286 909q0 -16 -58.5 -83.5t-70.5 -67.5q-45 43 -161 133q0 12 61 84t78 72q18 0 86 -64q65 -62 65 -74zM326 -110q0 28 -58 62q-85 49 -105 49q-7 0 -17 -35
q-9 -33 -9 -47q0 -67 75 -67q37 0 76 14q38 13 38 24zM127 0h-127q-70 0 -70 113q0 114 70 114h403q43 0 43 19q0 44 -57 133q-12 19 -82 108q0 25 24 114q26 95 40 95q24 0 91 -126q75 -140 75 -242q0 -81 -21 -173q-18 -85 -37 -112q-18 -16 -84 -30q7 -16 7 -32
q0 -33 -29 -109q-28 -73 -45 -95q-50 -64 -144 -64q-44 0 -71 30q-25 27 -25 63q0 50 25 148q5 20 14 46z" />
    <glyph glyph-name="uni067C.medi" unicode="&#x67c;" horiz-adv-x="835" 
d="M647 744q0 -18 -59.5 -86t-73.5 -68q-67 70 -158 133q0 12 60 85t73 73q20 0 89 -62.5t69 -74.5zM343 711q0 -17 -58 -84.5t-69 -67.5q-45 43 -162 133q0 13 61 84.5t77 71.5q19 0 85 -62.5t66 -74.5zM306 -110q0 28 -58 62q-85 49 -105 49q-7 0 -17 -35q-9 -33 -9 -47
q0 -67 75 -67q37 0 76 14q38 13 38 24zM107 0h-107q-70 0 -70 113q0 114 70 114h399q52 0 65 47q42 152 68 152q4 0 4 -23q0 -73 19 -104q43 -72 100 -72h194v-227h-194q-155 0 -191 137q-42 -75 -98 -109q16 -23 16 -47q0 -33 -29 -109q-28 -73 -45 -95q-50 -64 -144 -64
q-44 0 -71 30q-25 27 -25 63q0 50 25 148q5 20 14 46z" />
    <glyph glyph-name="uni067C.fina" unicode="&#x67c;" horiz-adv-x="2009" 
d="M1237 791q0 -17 -59 -84.5t-74 -67.5q-66 68 -156 133q0 12 60 85t73 73q20 0 88 -63.5t68 -75.5zM915 782q0 -17 -58.5 -84t-70.5 -67q-45 42 -159 133q0 13 60 84.5t77 71.5q20 0 85.5 -62.5t65.5 -75.5zM1036 -120q0 28 -58 62q-85 49 -105 49q-7 0 -17 -35
q-9 -33 -9 -47q0 -67 75 -67q37 0 76 14q38 13 38 24zM836 -14h-64q-386 0 -520 86q-158 100 -158 311q0 84 43 189q40 96 58 96q10 0 10 -11q0 -2 -14.5 -62t-14.5 -116q0 -128 146 -209q135 -75 546 -75q303 0 568 33q219 28 247 51q0 60 -104 243q19 57 33 123
q19 94 24 94q18 0 76 -129q5 -10 66 -198q16 -52 47 -95q64 -90 172 -90h26v-227h-41q-86 0 -133.5 47.5t-60.5 128.5q-13 47 -14 47q-11 0 -25 -57q-10 -43 -33 -72q-53 -47 -321 -80q-122 -15 -286 -22q3 -10 3 -21q0 -33 -29 -109q-28 -73 -45 -95q-50 -64 -144 -64
q-44 0 -71 30q-25 27 -25 63q0 50 25 148q5 19 13 42z" />
    <glyph glyph-name="uni067D.init" unicode="&#x67d;" horiz-adv-x="645" 
d="M537 328q0 -81 -21 -173q-18 -85 -37 -112q-19 -17 -90 -31q-63 -12 -104 -12h-285q-70 0 -70 113q0 114 70 114h403q43 0 43 19q0 44 -57 133q-12 19 -82 108q0 25 24 114q26 95 40 95q24 0 91 -126q75 -140 75 -242zM477 924q0 -18 -58 -82.5t-71 -64.5
q-74 73 -152 129q0 12 58 82t71 70q19 0 85.5 -61t66.5 -73zM609 1216q0 -18 -56.5 -83t-71.5 -65q-86 83 -153 130q0 11 58.5 81t71.5 70q19 0 85 -61t66 -72zM296 1197q0 -15 -58 -80.5t-71 -65.5q-74 73 -152 129q0 12 58 82t71 70q20 0 86 -61t66 -74z" />
    <glyph glyph-name="uni067D.medi" unicode="&#x67d;" horiz-adv-x="815" 
d="M829 0h-194q-155 0 -191 137q-77 -137 -198 -137h-246q-70 0 -70 113q0 114 70 114h379q52 0 65 47q42 152 68 152q4 0 4 -23q0 -73 19 -104q43 -72 100 -72h194v-227zM501 748q0 -18 -58 -82.5t-71 -64.5q-74 73 -152 129q0 12 58 82t71 70q19 0 85.5 -61t66.5 -73z
M633 1040q0 -18 -56.5 -83t-71.5 -65q-86 83 -153 130q0 11 58.5 81t71.5 70q19 0 85 -61t66 -72zM320 1021q0 -15 -58 -80.5t-71 -65.5q-74 73 -152 129q0 12 58 82t71 70q20 0 86 -61t66 -74z" />
    <glyph glyph-name="uni067D.fina" unicode="&#x67d;" horiz-adv-x="2009" 
d="M2023 0h-41q-86 0 -133.5 47.5t-60.5 128.5q-13 47 -14 47q-11 0 -25 -57q-10 -43 -33 -72q-53 -47 -321 -80q-233 -28 -623 -28q-386 0 -520 86q-158 100 -158 311q0 84 43 189q40 96 58 96q10 0 10 -11q0 -2 -14.5 -62t-14.5 -116q0 -128 146 -209q135 -75 546 -75
q303 0 568 33q219 28 247 51q0 60 -104 243q19 57 33 123q19 94 24 94q18 0 76 -129q5 -10 66 -198q16 -52 47 -95q64 -90 172 -90h26v-227zM1086 702q0 -18 -58 -82.5t-71 -64.5q-74 73 -152 129q0 12 58 82t71 70q19 0 85.5 -61t66.5 -73zM1218 994q0 -18 -56.5 -83
t-71.5 -65q-86 83 -153 130q0 11 58.5 81t71.5 70q19 0 85 -61t66 -72zM905 975q0 -15 -58 -80.5t-71 -65.5q-74 73 -152 129q0 12 58 82t71 70q20 0 86 -61t66 -74z" />
    <glyph glyph-name="uni0681.init" unicode="&#x681;" horiz-adv-x="1218" 
d="M1128 274q0 -14 -62 -106q-60 -89 -74 -92q2 1 -80 21q-89 22 -183 22q-69 0 -234.5 -59.5t-285.5 -59.5h-209q-70 0 -70 113q0 114 70 114h371q36 0 101 9q72 10 87 20q-104 69 -151 94q-102 53 -162 53q-29 0 -74.5 -21.5t-52.5 -21.5q-15 0 -15 19q0 21 41 68
q46 52 101 83q68 39 139 39q58 0 119 -28t188 -115q207 -141 393 -141q43 0 43 -11zM712 918q0 -8 -21.5 -32t-35.5 -34q-94 0 -162 -35q-91 -47 -104 -47q-4 0 -4 6l75 76q-19 4 -65 33q-43 39 -43 57q0 41 67 89t117 48q62 0 62 -34q0 -18 -25 -48q-19 -22 -37 -22
q-9 0 -15 18.5t-36 18.5q-49 0 -49 -19q0 -22 52 -48.5t99 -26.5h29q20 0 51 2t35 2q10 0 10 -4z" />
    <glyph glyph-name="uni0681.medi" unicode="&#x681;" horiz-adv-x="1139" 
d="M1153 0h-395q-164 0 -170 156q-69 -61 -194 -107q-135 -49 -257 -49h-137q-70 0 -70 113q0 114 70 114h256q89 0 224 47t161 86q-64 22 -158 58q-133 51 -194 51q-49 0 -95.5 -25.5t-56.5 -25.5q-12 0 -12 14q0 25 37 76q67 93 117 126.5t118 33.5q70 0 272.5 -73
t340.5 -73h86q16 0 16 -20q0 -18 -16 -51q-24 -49 -68 -134q-49 9 -80 9q-50 0 -86 -13q-104 -35 -170 -86h461v-227zM752 939q0 -8 -21.5 -32t-35.5 -34q-94 0 -162 -35q-91 -47 -104 -47q-4 0 -4 6l75 76q-19 4 -65 33q-43 39 -43 57q0 41 67 89t117 48q62 0 62 -34
q0 -18 -25 -48q-19 -22 -37 -22q-9 0 -15 18.5t-36 18.5q-49 0 -49 -19q0 -22 52 -48.5t99 -26.5h29q20 0 51 2t35 2q10 0 10 -4z" />
    <glyph glyph-name="uni0681.fina" unicode="&#x681;" horiz-adv-x="1421" 
d="M980 -837q-51 -7 -116 -7q-345 0 -507 123q-181 136 -181 479q0 421 314 707q-43 4 -148 4q-75 0 -135 -27q-39 -18 -78 -50q-31 -27 -37 -27q-14 0 -14 24q4 29 29 84q31 66 65 100q94 95 260 95q63 0 185 -11.5t229 -11.5q73 0 115 4q33 3 34 4q7 -1 7 -8
q0 -12 -43 -100q-21 -46 -52 -105q-150 -10 -223 -37q0 -176 133 -176h618v-227h-589q-213 0 -213 238q0 58 18 155q-159 -45 -280 -198q-137 -174 -137 -353q0 -228 194 -354q161 -104 461 -104q44 0 91 2q106 4 230 16q122 12 157 16l-5 2q6 0 9 -1q9 1 10 1q10 0 10 -4
q0 -14 -129.5 -110t-177.5 -117q-42 -18 -104 -26zM752 970q0 -8 -21.5 -32t-35.5 -34q-94 0 -162 -35q-91 -47 -104 -47q-4 0 -4 6l75 76q-19 4 -65 33q-43 39 -43 57q0 41 67 89t117 48q62 0 62 -34q0 -18 -25 -48q-19 -22 -37 -22q-9 0 -15 18.5t-36 18.5q-49 0 -49 -19
q0 -22 52 -48.5t99 -26.5h29q20 0 51 2t35 2q10 0 10 -4z" />
    <glyph glyph-name="uni0682.init" unicode="&#x682;" horiz-adv-x="1218" 
d="M1128 274q0 -14 -62 -106q-60 -89 -74 -92q2 1 -80 21q-89 22 -183 22q-69 0 -234.5 -59.5t-285.5 -59.5h-209q-70 0 -70 113q0 114 70 114h371q36 0 101 9q72 10 87 20q-104 69 -151 94q-102 53 -162 53q-29 0 -74.5 -21.5t-52.5 -21.5q-15 0 -15 19q0 21 41 68
q46 52 101 83q68 39 139 39q58 0 119 -28t188 -115q207 -141 393 -141q43 0 43 -11zM500 1222q0 -18 -59.5 -84.5t-73.5 -66.5q-76 75 -156 133q0 12 59.5 84t73.5 72q19 0 87.5 -63t68.5 -75zM531 923q0 -16 -59.5 -83.5t-73.5 -67.5q-76 75 -156 133q0 12 59.5 84t73.5 72
q20 0 88 -62.5t68 -75.5z" />
    <glyph glyph-name="uni0682.medi" unicode="&#x682;" horiz-adv-x="1139" 
d="M1153 0h-395q-164 0 -170 156q-69 -61 -194 -107q-135 -49 -257 -49h-137q-70 0 -70 113q0 114 70 114h256q89 0 224 47t161 86q-64 22 -158 58q-133 51 -194 51q-49 0 -95.5 -25.5t-56.5 -25.5q-12 0 -12 14q0 25 37 76q67 93 117 126.5t118 33.5q70 0 272.5 -73
t340.5 -73h86q16 0 16 -20q0 -18 -16 -51q-24 -49 -68 -134q-49 9 -80 9q-50 0 -86 -13q-104 -35 -170 -86h461v-227zM549 1240q0 -18 -59.5 -84.5t-73.5 -66.5q-76 75 -156 133q0 12 59.5 84t73.5 72q19 0 87.5 -63t68.5 -75zM580 941q0 -16 -59.5 -83.5t-73.5 -67.5
q-76 75 -156 133q0 12 59.5 84t73.5 72q20 0 88 -62.5t68 -75.5z" />
    <glyph glyph-name="uni0682.fina" unicode="&#x682;" horiz-adv-x="1421" 
d="M980 -837q-51 -7 -116 -7q-345 0 -507 123q-181 136 -181 479q0 421 314 707q-43 4 -148 4q-75 0 -135 -27q-39 -18 -78 -50q-31 -27 -37 -27q-14 0 -14 24q4 29 29 84q31 66 65 100q94 95 260 95q63 0 185 -11.5t229 -11.5q73 0 115 4q33 3 34 4q7 -1 7 -8
q0 -12 -43 -100q-21 -46 -52 -105q-150 -10 -223 -37q0 -176 133 -176h618v-227h-589q-213 0 -213 238q0 58 18 155q-159 -45 -280 -198q-137 -174 -137 -353q0 -228 194 -354q161 -104 461 -104q44 0 91 2q106 4 230 16q122 12 157 16l-5 2q6 0 9 -1q9 1 10 1q10 0 10 -4
q0 -14 -129.5 -110t-177.5 -117q-42 -18 -104 -26zM681 1276q0 -18 -59.5 -84.5t-73.5 -66.5q-76 75 -156 133q0 12 59.5 84t73.5 72q19 0 87.5 -63t68.5 -75zM712 977q0 -16 -59.5 -83.5t-73.5 -67.5q-76 75 -156 133q0 12 59.5 84t73.5 72q20 0 88 -62.5t68 -75.5z" />
    <glyph glyph-name="uni0685.init" unicode="&#x685;" horiz-adv-x="1218" 
d="M1128 274q0 -14 -62 -106q-60 -89 -74 -92q2 1 -80 21q-89 22 -183 22q-69 0 -234.5 -59.5t-285.5 -59.5h-209q-70 0 -70 113q0 114 70 114h371q36 0 101 9q72 10 87 20q-104 69 -151 94q-102 53 -162 53q-29 0 -74.5 -21.5t-52.5 -21.5q-15 0 -15 19q0 21 41 68
q46 52 101 83q68 39 139 39q58 0 119 -28t188 -115q207 -141 393 -141q43 0 43 -11zM653 1216q0 -16 -59.5 -83.5t-73.5 -67.5q-76 75 -156 133q0 12 59 84t72 72q20 0 89 -62.5t69 -75.5zM845 946q0 -17 -58.5 -84.5t-72.5 -67.5q-88 86 -157 134q0 11 60 83t73 72
q20 0 87.5 -62.5t67.5 -74.5zM534 927q0 -16 -59.5 -83.5t-73.5 -67.5q-76 75 -156 133q0 12 59.5 84t73.5 72q19 0 87.5 -63t68.5 -75z" />
    <glyph glyph-name="uni0685.medi" unicode="&#x685;" horiz-adv-x="1139" 
d="M1153 0h-395q-164 0 -170 156q-69 -61 -194 -107q-135 -49 -257 -49h-137q-70 0 -70 113q0 114 70 114h256q89 0 224 47t161 86q-64 22 -158 58q-133 51 -194 51q-49 0 -95.5 -25.5t-56.5 -25.5q-12 0 -12 14q0 25 37 76q67 93 117 126.5t118 33.5q70 0 272.5 -73
t340.5 -73h86q16 0 16 -20q0 -18 -16 -51q-24 -49 -68 -134q-49 9 -80 9q-50 0 -86 -13q-104 -35 -170 -86h461v-227zM696 1235q0 -16 -59.5 -83.5t-73.5 -67.5q-76 75 -156 133q0 12 59 84t72 72q20 0 89 -62.5t69 -75.5zM888 965q0 -17 -58.5 -84.5t-72.5 -67.5
q-88 86 -157 134q0 11 60 83t73 72q20 0 87.5 -62.5t67.5 -74.5zM577 946q0 -16 -59.5 -83.5t-73.5 -67.5q-76 75 -156 133q0 12 59.5 84t73.5 72q19 0 87.5 -63t68.5 -75z" />
    <glyph glyph-name="uni0685.fina" unicode="&#x685;" horiz-adv-x="1421" 
d="M980 -837q-51 -7 -116 -7q-345 0 -507 123q-181 136 -181 479q0 421 314 707q-43 4 -148 4q-75 0 -135 -27q-39 -18 -78 -50q-31 -27 -37 -27q-14 0 -14 24q4 29 29 84q31 66 65 100q94 95 260 95q63 0 185 -11.5t229 -11.5q73 0 115 4q33 3 34 4q7 -1 7 -8
q0 -12 -43 -100q-21 -46 -52 -105q-150 -10 -223 -37q0 -176 133 -176h618v-227h-589q-213 0 -213 238q0 58 18 155q-159 -45 -280 -198q-137 -174 -137 -353q0 -228 194 -354q161 -104 461 -104q44 0 91 2q106 4 230 16q122 12 157 16l-5 2q6 0 9 -1q9 1 10 1q10 0 10 -4
q0 -14 -129.5 -110t-177.5 -117q-42 -18 -104 -26zM730 1259q0 -16 -59.5 -83.5t-73.5 -67.5q-76 75 -156 133q0 12 59 84t72 72q20 0 89 -62.5t69 -75.5zM922 989q0 -17 -58.5 -84.5t-72.5 -67.5q-88 86 -157 134q0 11 60 83t73 72q20 0 87.5 -62.5t67.5 -74.5zM611 970
q0 -16 -59.5 -83.5t-73.5 -67.5q-76 75 -156 133q0 12 59.5 84t73.5 72q19 0 87.5 -63t68.5 -75z" />
    <glyph glyph-name="uni0689.fina" unicode="&#x689;" horiz-adv-x="949" 
d="M441 -131q0 24 -50 53q-72 41 -89 41q-6 0 -15 -29q-7 -29 -7 -40q0 -58 64 -58q31 0 64 12q33 11 33 21zM267 -52q-158 11 -158 189q0 94 10 199q4 39 14 39q4 0 4 -21q0 -30 15 -80q28 -98 147 -98q130 0 227 47q123 60 123 99q0 14 -47 149q-67 193 -70.5 207t-3.5 45
q0 38 2 59q11 105 15 105q18 0 90 -238q95 -314 123 -356q43 -66 114 -66h91v-227h-123q-86 0 -123 37q-31 31 -58 151q-40 -104 -108 -155q-28 -21 -65 -38q20 -23 20 -49q0 -28 -25 -93q-24 -62 -39 -80q-42 -55 -122 -55q-38 0 -61 26q-21 23 -21 53q0 43 21 126
q3 11 8 25z" />
    <glyph glyph-name="uni068A.fina" unicode="&#x68a;" horiz-adv-x="949" 
d="M963 0h-123q-86 0 -123 37q-31 31 -58 151q-40 -104 -108 -155q-49 -37 -130 -62q-75 -24 -132 -24q-180 0 -180 190q0 94 10 199q4 39 14 39q4 0 4 -21q0 -30 15 -80q28 -98 147 -98q130 0 227 47q123 60 123 99q0 14 -47 149q-67 193 -70.5 207t-3.5 45q0 38 2 59
q11 105 15 105q18 0 90 -238q95 -314 123 -356q43 -66 114 -66h91v-227zM522 -312q0 -18 -61.5 -90t-75.5 -72q-80 80 -166 141q0 13 63 89.5t80 76.5q20 0 90 -66.5t70 -78.5z" />
    <glyph glyph-name="uni068B.fina" unicode="&#x68b;" horiz-adv-x="949" 
d="M963 0h-123q-86 0 -123 37q-31 31 -58 151q-40 -104 -108 -155q-49 -37 -130 -62q-75 -24 -132 -24q-180 0 -180 190q0 94 10 199q4 39 14 39q4 0 4 -21q0 -30 15 -80q28 -98 147 -98q130 0 227 47q123 60 123 99q0 14 -47 149q-67 193 -70.5 207t-3.5 45q0 38 2 59
q11 105 15 105q18 0 90 -238q95 -314 123 -356q43 -66 114 -66h91v-227zM670 1170q0 -12 -4 -30.5t-15 -40t-29.5 -43t-46.5 -38.5t-67.5 -28t-92.5 -11q-38 0 -65 2.5t-49.5 14.5t-44 37.5t-46.5 72.5q-4 9 -4 14q0 3 1 5q2 2 5 2t8 -2q4 -2 13.5 -7.5t22 -12t26.5 -12
t28 -8.5q41 36 44 53v49q0 47 -7 86t-24 68q6 13 15.5 29.5t19.5 30t18.5 23t12.5 9.5q7 0 13.5 -13t11.5 -32.5t7.5 -42.5t2.5 -44q0 -25 -4.5 -53.5t-6.5 -66.5l2 -1q45 40 83.5 61t72.5 21q25 0 44 -11t31 -26t18 -30.5t6 -24.5zM599 1111q0 6 -5.5 16t-15 20.5t-24 18
t-32.5 7.5q-29 0 -70.5 -25.5t-95.5 -72.5l1 -2h71q32 0 63 3t55 8t38.5 12t14.5 15zM522 -312q0 -18 -61.5 -90t-75.5 -72q-80 80 -166 141q0 13 63 89.5t80 76.5q20 0 90 -66.5t70 -78.5z" />
    <glyph glyph-name="uni068F.fina" unicode="&#x68f;" horiz-adv-x="949" 
d="M963 0h-123q-86 0 -123 37q-31 31 -58 151q-40 -104 -108 -155q-49 -37 -130 -62q-75 -24 -132 -24q-180 0 -180 190q0 94 10 199q4 39 14 39q4 0 4 -21q0 -30 15 -80q28 -98 147 -98q130 0 227 47q123 60 123 99q0 14 -47 149q-67 193 -70.5 207t-3.5 45q0 38 2 59
q11 105 15 105q18 0 90 -238q95 -314 123 -356q43 -66 114 -66h91v-227zM601 1120q0 -18 -58 -82.5t-71 -64.5q-74 73 -152 129q0 12 58 82t71 70q19 0 85.5 -61t66.5 -73zM733 1412q0 -18 -56.5 -83t-71.5 -65q-86 83 -153 130q0 11 58.5 81t71.5 70q19 0 85 -61t66 -72z
M420 1393q0 -15 -58 -80.5t-71 -65.5q-74 73 -152 129q0 12 58 82t71 70q20 0 86 -61t66 -74z" />
    <glyph glyph-name="uni0690.fina" unicode="&#x690;" horiz-adv-x="949" 
d="M963 0h-123q-86 0 -123 37q-31 31 -58 151q-40 -104 -108 -155q-49 -37 -130 -62q-75 -24 -132 -24q-180 0 -180 190q0 94 10 199q4 39 14 39q4 0 4 -21q0 -30 15 -80q28 -98 147 -98q130 0 227 47q123 60 123 99q0 14 -47 149q-67 193 -70.5 207t-3.5 45q0 38 2 59
q11 105 15 105q18 0 90 -238q95 -314 123 -356q43 -66 114 -66h91v-227zM703 1415q0 -18 -58 -85t-73 -67q-88 86 -157 134q0 11 60 83t73 72q20 0 87.5 -62.5t67.5 -74.5zM382 1386q0 -16 -59.5 -83.5t-73.5 -67.5q-76 75 -156 133q0 12 59.5 84t73.5 72q20 0 88 -62.5
t68 -75.5zM755 1127q0 -18 -58 -85t-73 -67q-88 86 -157 134q0 11 60 83t73 72q20 0 87.5 -62.5t67.5 -74.5zM434 1098q0 -16 -59.5 -83.5t-73.5 -67.5q-76 75 -156 133q0 12 59.5 84t73.5 72q20 0 88 -62.5t68 -75.5z" />
    <glyph glyph-name="uni0692.fina" unicode="&#x692;" horiz-adv-x="823" 
d="M837 0h-127q-38 0 -58 14v-57q0 -72 -32.5 -167t-79.5 -155q-92 -114 -205 -114q-90 0 -228 61q-104 47 -104 62q0 10 14 10q3 0 41 -9.5t68 -9.5q59 0 151 45q87 42 158 101q66 54 118 134q48 74 48 108q0 30 -50 96.5t-50 75.5q0 36 21 119t32 83q2 0 55 -69
q77 -101 172 -101h56v-227zM730 869h56l-205 -273h-102l-204 273h56l199 -168z" />
    <glyph glyph-name="uni0693.fina" unicode="&#x693;" horiz-adv-x="823" 
d="M559 -507q0 24 -50 53q-72 41 -89 41q-6 0 -15 -29q-7 -29 -7 -40q0 -58 64 -58q31 0 64 12q33 11 33 21zM371 -476q-18 -3 -36 -3q-90 0 -228 61q-104 47 -104 62q0 10 14 10q3 0 41 -9.5t68 -9.5q59 0 151 45q87 42 158 101q66 54 118 134q48 74 48 108q0 30 -50 96.5
t-50 75.5q0 36 21 119t32 83q2 0 55 -69q77 -101 172 -101h56v-227h-127q-38 0 -58 14v-57q0 -72 -32 -167q-27 -79 -64 -133q68 -40 68 -87q0 -28 -25 -93q-24 -62 -39 -80q-42 -55 -122 -55q-38 0 -61 26q-21 23 -21 53q0 37 15 103z" />
    <glyph glyph-name="uni0694.fina" unicode="&#x694;" horiz-adv-x="823" 
d="M837 0h-127q-38 0 -58 14v-57q0 -72 -32.5 -167t-79.5 -155q-92 -114 -205 -114q-90 0 -228 61q-104 47 -104 62q0 10 14 10q3 0 41 -9.5t68 -9.5q59 0 151 45q87 42 158 101q66 54 118 134q48 74 48 108q0 30 -50 96.5t-50 75.5q0 36 21 119t32 83q2 0 55 -69
q77 -101 172 -101h56v-227zM691 -668q0 -15 -50.5 -73t-63.5 -58q-76 74 -135 116q0 9 52 71.5t63 62.5q17 0 75.5 -54t58.5 -65z" />
    <glyph glyph-name="uni0695.fina" unicode="&#x695;" horiz-adv-x="823" 
d="M837 0h-127q-38 0 -58 14v-57q0 -72 -32.5 -167t-79.5 -155q-92 -114 -205 -114q-90 0 -228 61q-104 47 -104 62q0 10 14 10q3 0 41 -9.5t68 -9.5q59 0 151 45q87 42 158 101q66 54 118 134q48 74 48 108q0 30 -50 96.5t-50 75.5q0 36 21 119t32 83q2 0 55 -69
q77 -101 172 -101h56v-227zM621 -596h56l-205 -273h-102l-204 273h56l199 -168z" />
    <glyph glyph-name="uni0696.fina" unicode="&#x696;" horiz-adv-x="823" 
d="M837 0h-127q-38 0 -58 14v-57q0 -72 -32.5 -167t-79.5 -155q-92 -114 -205 -114q-90 0 -228 61q-104 47 -104 62q0 10 14 10q3 0 41 -9.5t68 -9.5q59 0 151 45q87 42 158 101q66 54 118 134q48 74 48 108q0 30 -50 96.5t-50 75.5q0 36 21 119t32 83q2 0 55 -69
q77 -101 172 -101h56v-227zM691 -668q0 -15 -50.5 -73t-63.5 -58q-76 74 -135 116q0 9 52 71.5t63 62.5q17 0 75.5 -54t58.5 -65zM411 9q0 -14 -52 -72.5t-63 -58.5q-67 65 -136 115q0 10 51.5 73t63.5 63q17 0 76.5 -55t59.5 -65z" />
    <glyph glyph-name="uni0697.fina" unicode="&#x697;" horiz-adv-x="823" 
d="M837 0h-127q-38 0 -58 14v-57q0 -72 -32.5 -167t-79.5 -155q-92 -114 -205 -114q-90 0 -228 61q-104 47 -104 62q0 10 14 10q3 0 41 -9.5t68 -9.5q59 0 151 45q87 42 158 101q66 54 118 134q48 74 48 108q0 30 -50 96.5t-50 75.5q0 36 21 119t32 83q2 0 55 -69
q77 -101 172 -101h56v-227zM740 684q0 -15 -50.5 -73t-63.5 -58q-76 74 -135 116q0 9 52 71.5t63 62.5q17 0 75.5 -54t58.5 -65zM462 659q0 -14 -52 -72.5t-63 -58.5q-67 65 -136 115q0 10 51.5 73t63.5 63q17 0 76.5 -55t59.5 -65z" />
    <glyph glyph-name="uni0699.fina" unicode="&#x699;" horiz-adv-x="823" 
d="M837 0h-127q-38 0 -58 14v-57q0 -72 -32.5 -167t-79.5 -155q-92 -114 -205 -114q-90 0 -228 61q-104 47 -104 62q0 10 14 10q3 0 41 -9.5t68 -9.5q59 0 151 45q87 42 158 101q66 54 118 134q48 74 48 108q0 30 -50 96.5t-50 75.5q0 36 21 119t32 83q2 0 55 -69
q77 -101 172 -101h56v-227zM694 934q0 -16 -50.5 -74t-63.5 -58q-77 75 -137 116q0 10 52.5 72.5t63.5 62.5q17 0 76 -54.5t59 -64.5zM415 909q0 -14 -52 -73t-64 -59q-66 66 -135 116q0 10 51.5 73t63.5 63q18 0 77 -54.5t59 -65.5zM739 684q0 -16 -50.5 -74.5t-63.5 -58.5
q-76 75 -136 117q0 9 52 72t63 63q18 0 76.5 -54.5t58.5 -64.5zM460 658q0 -14 -52 -72.5t-64 -58.5q-66 65 -135 116q0 10 51.5 72.5t63.5 62.5q18 0 77 -54t59 -66z" />
    <glyph glyph-name="uni069A.init" unicode="&#x69a;" horiz-adv-x="1171" 
d="M738 750q0 -17 -58.5 -84.5t-72.5 -67.5q-77 77 -158 133q0 12 60 85t73 73q20 0 88 -63.5t68 -75.5zM1063 317q0 -78 -54 -199.5t-89 -121.5q-127 0 -172 9q-70 14 -70 108h-4q-39 -64 -105 -103q-48 -28 -137 -28h-162q-61 0 -61 18q0 20 18 72q-86 -72 -194 -72h-33
q-70 0 -70 113q0 114 70 114h152q102 0 147 47q30 31 51 68q25 33 35 33q8 0 8 -25q-6 -53 -47 -127q8 -20 162 -20q74 0 101 9q50 18 50 77q2 2 49 75q40 62 46 62q18 0 18 -104q0 -65 -18 -91q17 -10 81 -23q61 -13 85 -13q38 0 38 32q0 57 -38 109q39 71 65 137
q15 39 25 39q16 0 32 -57q21 -73 21 -138zM724 -254q0 -17 -59 -84.5t-74 -67.5q-66 68 -156 133q0 12 60 85t73 73q20 0 88 -63.5t68 -75.5z" />
    <glyph glyph-name="uni069A.medi" unicode="&#x69a;" horiz-adv-x="1215" 
d="M1229 0h-180q-110 0 -134 127h-10q-35 -131 -104 -131q-66 0 -110 23t-50 57q-12 -25 -53 -66q-29 -28 -246 -28q-96 0 -96 14q0 35 4 49q-60 -45 -121 -45h-129q-70 0 -70 113q0 114 70 114h195q54 0 94 25q15 9 61 84q27 43 43 43q15 0 15 -33q0 -55 -37 -133h123
q67 0 141 18q0 38 53 105q71 90 84 90q10 0 10 -33q0 -46 -21 -91q-21 -42 -22 -42q0 -8 35 -19q40 -14 84 -14q39 0 43 19q0 7 14 39q9 20 23 47q53 104 68 104q8 0 8 -24q0 -34 -4 -57t-4 -27q0 -33 34 -65q37 -36 84 -36h105v-227zM802 778q0 -18 -58.5 -85.5
t-74.5 -67.5q-65 68 -155 133q0 12 60 84.5t73 72.5q19 0 87 -63t68 -74zM787 -274q0 -17 -59 -84.5t-74 -67.5q-66 68 -156 133q0 12 60 85t73 73q20 0 88 -63.5t68 -75.5z" />
    <glyph glyph-name="uni069A.fina" unicode="&#x69a;" horiz-adv-x="1706" 
d="M1720 0h-194q-58 0 -94 43q-23 27 -37 66q-22 -74 -49 -100.5t-80 -26.5q-74 0 -119 41q-36 -52 -156 -52q0 -142 -18 -295q-17 -135 -64 -202q-36 -52 -143 -112q-147 -83 -301 -83q-188 0 -285 129q-76 101 -76 264q0 85 41 215q37 123 54 123q10 0 10 -20
q0 -7 -16.5 -76t-16.5 -119q0 -126 90 -213q75 -71 221 -71q122 0 252 57q176 78 176 119q0 68 -32 170q-42 130 -86 190q-47 64 -47 80q0 6 8 35q28 66 39 137q4 29 14 29q5 0 29 -35q46 -68 69 -80q47 -25 133 -25q54 0 86 15q11 10 11 40q0 29 41 70t53 41q8 0 8 -37
q0 -38 -18 -100q37 -18 86 -18q43 0 71 14v43q0 16 33 86l2 4h-2q17 34 33 57q13 0 14 -45v-12q0 -44 23 -79q25 -40 67 -40h170v-227zM1367 -258q0 -17 -59 -84.5t-74 -67.5q-66 68 -156 133q0 12 60 85t73 73q20 0 88 -63.5t68 -75.5zM1367 750q0 -17 -59 -84.5t-74 -67.5
q-66 68 -156 133q0 12 60 85t73 73q20 0 88 -63.5t68 -75.5z" />
    <glyph glyph-name="uni069B.init" unicode="&#x69b;" horiz-adv-x="1171" 
d="M1063 317q0 -78 -54 -199.5t-89 -121.5q-127 0 -172 9q-70 14 -70 108h-4q-39 -64 -105 -103q-48 -28 -137 -28h-162q-61 0 -61 18q0 20 18 72q-86 -72 -194 -72h-33q-70 0 -70 113q0 114 70 114h152q102 0 147 47q30 31 51 68q25 33 35 33q8 0 8 -25q-6 -53 -47 -127
q8 -20 162 -20q74 0 101 9q50 18 50 77q2 2 49 75q40 62 46 62q18 0 18 -104q0 -65 -18 -91q17 -10 81 -23q61 -13 85 -13q38 0 38 32q0 57 -38 109q39 71 65 137q15 39 25 39q16 0 32 -57q21 -73 21 -138zM739 -468q0 -15 -48.5 -69t-58.5 -54q-62 61 -127 108
q0 10 48.5 68.5t58.5 58.5q16 0 71.5 -51t55.5 -61zM849 -225q0 -15 -47 -69t-60 -54q-71 69 -127 108q0 9 48.5 67.5t59.5 58.5q16 0 71 -51t55 -60zM588 -241q0 -12 -48 -66.5t-59 -54.5q-62 61 -127 107q0 10 48.5 68.5t59.5 58.5q16 0 71 -51t55 -62z" />
    <glyph glyph-name="uni069B.medi" unicode="&#x69b;" horiz-adv-x="1215" 
d="M1229 0h-180q-110 0 -134 127h-10q-35 -131 -104 -131q-66 0 -110 23t-50 57q-12 -25 -53 -66q-29 -28 -246 -28q-96 0 -96 14q0 35 4 49q-60 -45 -121 -45h-129q-70 0 -70 113q0 114 70 114h195q54 0 94 25q15 9 61 84q27 43 43 43q15 0 15 -33q0 -55 -37 -133h123
q67 0 141 18q0 38 53 105q71 90 84 90q10 0 10 -33q0 -46 -21 -91q-21 -42 -22 -42q0 -8 35 -19q40 -14 84 -14q39 0 43 19q0 7 14 39q9 20 23 47q53 104 68 104q8 0 8 -24q0 -34 -4 -57t-4 -27q0 -33 34 -65q37 -36 84 -36h105v-227zM779 -468q0 -15 -48.5 -69t-58.5 -54
q-62 61 -127 108q0 10 48.5 68.5t58.5 58.5q16 0 71.5 -51t55.5 -61zM889 -225q0 -15 -47 -69t-60 -54q-71 69 -127 108q0 9 48.5 67.5t59.5 58.5q16 0 71 -51t55 -60zM628 -241q0 -12 -48 -66.5t-59 -54.5q-62 61 -127 107q0 10 48.5 68.5t59.5 58.5q16 0 71 -51t55 -62z
" />
    <glyph glyph-name="uni069B.fina" unicode="&#x69b;" horiz-adv-x="1706" 
d="M1720 0h-194q-58 0 -94 43q-23 27 -37 66q-22 -74 -49 -100.5t-80 -26.5q-74 0 -119 41q-36 -52 -156 -52q0 -142 -18 -295q-17 -135 -64 -202q-36 -52 -143 -112q-147 -83 -301 -83q-188 0 -285 129q-76 101 -76 264q0 85 41 215q37 123 54 123q10 0 10 -20
q0 -7 -16.5 -76t-16.5 -119q0 -126 90 -213q75 -71 221 -71q122 0 252 57q176 78 176 119q0 68 -32 170q-42 130 -86 190q-47 64 -47 80q0 6 8 35q28 66 39 137q4 29 14 29q5 0 29 -35q46 -68 69 -80q47 -25 133 -25q54 0 86 15q11 10 11 40q0 29 41 70t53 41q8 0 8 -37
q0 -38 -18 -100q37 -18 86 -18q43 0 71 14v43q0 16 33 86l2 4h-2q17 34 33 57q13 0 14 -45v-12q0 -44 23 -79q25 -40 67 -40h170v-227zM1479 -468q0 -15 -48.5 -69t-58.5 -54q-62 61 -127 108q0 10 48.5 68.5t58.5 58.5q16 0 71.5 -51t55.5 -61zM1589 -225q0 -15 -47 -69
t-60 -54q-71 69 -127 108q0 9 48.5 67.5t59.5 58.5q16 0 71 -51t55 -60zM1328 -241q0 -12 -48 -66.5t-59 -54.5q-62 61 -127 107q0 10 48.5 68.5t59.5 58.5q16 0 71 -51t55 -62z" />
    <glyph glyph-name="uni069C.init" unicode="&#x69c;" horiz-adv-x="1171" 
d="M1063 317q0 -78 -54 -199.5t-89 -121.5q-127 0 -172 9q-70 14 -70 108h-4q-39 -64 -105 -103q-48 -28 -137 -28h-162q-61 0 -61 18q0 20 18 72q-86 -72 -194 -72h-33q-70 0 -70 113q0 114 70 114h152q102 0 147 47q30 31 51 68q25 33 35 33q8 0 8 -25q-6 -53 -47 -127
q8 -20 162 -20q74 0 101 9q50 18 50 77q2 2 49 75q40 62 46 62q18 0 18 -104q0 -65 -18 -91q17 -10 81 -23q61 -13 85 -13q38 0 38 32q0 57 -38 109q39 71 65 137q15 39 25 39q16 0 32 -57q21 -73 21 -138zM644 994q0 -15 -52 -74.5t-66 -59.5q-57 60 -136 117
q0 10 52.5 74.5t64.5 64.5q17 0 77 -56t60 -66zM539 732q0 -17 -51.5 -75.5t-65.5 -58.5q-66 66 -137 115q0 11 53 75.5t64 64.5q18 0 77.5 -55.5t59.5 -65.5zM824 757q0 -16 -52.5 -75.5t-64.5 -59.5q-57 60 -137 117q0 11 52 74.5t64 63.5q16 0 77 -55.5t61 -64.5z
M739 -468q0 -15 -48.5 -69t-58.5 -54q-62 61 -127 108q0 10 48.5 68.5t58.5 58.5q16 0 71.5 -51t55.5 -61zM849 -225q0 -15 -47 -69t-60 -54q-71 69 -127 108q0 9 48.5 67.5t59.5 58.5q16 0 71 -51t55 -60zM588 -241q0 -12 -48 -66.5t-59 -54.5q-62 61 -127 107
q0 10 48.5 68.5t59.5 58.5q16 0 71 -51t55 -62z" />
    <glyph glyph-name="uni069C.medi" unicode="&#x69c;" horiz-adv-x="1215" 
d="M1229 0h-180q-110 0 -134 127h-10q-35 -131 -104 -131q-66 0 -110 23t-50 57q-12 -25 -53 -66q-29 -28 -246 -28q-96 0 -96 14q0 35 4 49q-60 -45 -121 -45h-129q-70 0 -70 113q0 114 70 114h195q54 0 94 25q15 9 61 84q27 43 43 43q15 0 15 -33q0 -55 -37 -133h123
q67 0 141 18q0 38 53 105q71 90 84 90q10 0 10 -33q0 -46 -21 -91q-21 -42 -22 -42q0 -8 35 -19q40 -14 84 -14q39 0 43 19q0 7 14 39q9 20 23 47q53 104 68 104q8 0 8 -24q0 -34 -4 -57t-4 -27q0 -33 34 -65q37 -36 84 -36h105v-227zM684 994q0 -15 -52 -74.5t-66 -59.5
q-57 60 -136 117q0 10 52.5 74.5t64.5 64.5q17 0 77 -56t60 -66zM579 732q0 -17 -51.5 -75.5t-65.5 -58.5q-66 66 -137 115q0 11 53 75.5t64 64.5q18 0 77.5 -55.5t59.5 -65.5zM864 757q0 -16 -52.5 -75.5t-64.5 -59.5q-57 60 -137 117q0 11 52 74.5t64 63.5q16 0 77 -55.5
t61 -64.5zM779 -468q0 -15 -48.5 -69t-58.5 -54q-62 61 -127 108q0 10 48.5 68.5t58.5 58.5q16 0 71.5 -51t55.5 -61zM889 -225q0 -15 -47 -69t-60 -54q-71 69 -127 108q0 9 48.5 67.5t59.5 58.5q16 0 71 -51t55 -60zM628 -241q0 -12 -48 -66.5t-59 -54.5q-62 61 -127 107
q0 10 48.5 68.5t59.5 58.5q16 0 71 -51t55 -62z" />
    <glyph glyph-name="uni069C.fina" unicode="&#x69c;" horiz-adv-x="1706" 
d="M1720 0h-194q-58 0 -94 43q-23 27 -37 66q-22 -74 -49 -100.5t-80 -26.5q-74 0 -119 41q-36 -52 -156 -52q0 -142 -18 -295q-17 -135 -64 -202q-36 -52 -143 -112q-147 -83 -301 -83q-188 0 -285 129q-76 101 -76 264q0 85 41 215q37 123 54 123q10 0 10 -20
q0 -7 -16.5 -76t-16.5 -119q0 -126 90 -213q75 -71 221 -71q122 0 252 57q176 78 176 119q0 68 -32 170q-42 130 -86 190q-47 64 -47 80q0 6 8 35q28 66 39 137q4 29 14 29q5 0 29 -35q46 -68 69 -80q47 -25 133 -25q54 0 86 15q11 10 11 40q0 29 41 70t53 41q8 0 8 -37
q0 -38 -18 -100q37 -18 86 -18q43 0 71 14v43q0 16 33 86l2 4h-2q17 34 33 57q13 0 14 -45v-12q0 -44 23 -79q25 -40 67 -40h170v-227zM1384 894q0 -15 -52 -74.5t-66 -59.5q-57 60 -136 117q0 10 52.5 74.5t64.5 64.5q17 0 77 -56t60 -66zM1279 632q0 -17 -51.5 -75.5
t-65.5 -58.5q-66 66 -137 115q0 11 53 75.5t64 64.5q18 0 77.5 -55.5t59.5 -65.5zM1564 657q0 -16 -52.5 -75.5t-64.5 -59.5q-57 60 -137 117q0 11 52 74.5t64 63.5q16 0 77 -55.5t61 -64.5zM1479 -468q0 -15 -48.5 -69t-58.5 -54q-62 61 -127 108q0 10 48.5 68.5t58.5 58.5
q16 0 71.5 -51t55.5 -61zM1589 -225q0 -15 -47 -69t-60 -54q-71 69 -127 108q0 9 48.5 67.5t59.5 58.5q16 0 71 -51t55 -60zM1328 -241q0 -12 -48 -66.5t-59 -54.5q-62 61 -127 107q0 10 48.5 68.5t59.5 58.5q16 0 71 -51t55 -62z" />
    <glyph glyph-name="uni069D.init" unicode="&#x69d;" horiz-adv-x="1464" 
d="M1370 412q0 -46 -81.5 -173.5t-131.5 -162.5q-107 -76 -508 -76h-260q-46 -76 -57 -76q-8 0 -8 13q0 24 26 77q-57 19 -90 62q-15 19 -33 76q-44 -80 -86.5 -116t-107.5 -36h-33q-70 0 -70 113q0 114 70 114h133q63 0 84 47q17 38 46 75q27 34 36 34q4 0 4 -37
q0 -74 33 -100q40 -33 104 -33h43q40 31 266.5 208t354.5 177q93 0 181 -66q85 -64 85 -120zM1214 260q0 48 -75 106q-79 60 -154 60q-76 0 -235 -103q-148 -96 -148 -114q0 -14 90 -14q206 0 356 16q166 19 166 49zM1059 -225q0 -15 -47 -69t-60 -54q-71 69 -127 108
q0 9 48.5 67.5t59.5 58.5q16 0 71 -51t55 -60zM798 -241q0 -12 -48 -66.5t-59 -54.5q-62 61 -127 107q0 10 48.5 68.5t59.5 58.5q16 0 71 -51t55 -62z" />
    <glyph glyph-name="uni069D.medi" unicode="&#x69d;" horiz-adv-x="1479" 
d="M1493 0h-393q-115 0 -152 37q-19 -12 -130 -24q-116 -13 -220 -13q-180 0 -201 10q-42 -82 -55 -82q-8 0 -8 17q0 25 22 84q-96 26 -118 133q-50 -96 -91 -125q-51 -37 -108 -37h-39q-70 0 -70 113q0 114 70 114h104q87 0 113 52q57 114 86 114q10 0 10 -14q0 -4 -3 -14
t-3 -23q0 -54 35 -82q40 -33 156 -33q45 40 227 195q241 203 385 203q96 0 182 -67q78 -61 78 -114q0 -32 -43 -117q-40 -78 -61 -100h227v-227zM1214 293q0 43 -70 99q-75 59 -149 59q-134 0 -383 -224q25 -2 99 -2q40 0 122.5 1t114.5 1q84 0 171 19q95 21 95 47z
M999 -225q0 -15 -47 -69t-60 -54q-71 69 -127 108q0 9 48.5 67.5t59.5 58.5q16 0 71 -51t55 -60zM738 -241q0 -12 -48 -66.5t-59 -54.5q-62 61 -127 107q0 10 48.5 68.5t59.5 58.5q16 0 71 -51t55 -62z" />
    <glyph glyph-name="uni069D.fina" unicode="&#x69d;" horiz-adv-x="2163" 
d="M2177 0h-432q-70 0 -137 29q1 -1 -122 -6q-129 -5 -231 -5q-196 0 -241 29q10 -29 10 -100q0 -79 -32 -195t-68 -166q-46 -62 -169 -113q-136 -57 -276 -57q-174 0 -278 110q-97 101 -97 255q0 115 63 253q54 118 71 118q8 0 8 -15q0 -1 -23.5 -85t-23.5 -132
q0 -90 61 -164q87 -106 266 -106q147 0 284 47q128 44 128 80q0 129 -51 280q-16 46 -90 189q1 0 37 108q28 86 38 86q11 0 58 -86q28 -52 85 -84q50 -28 95 -28q31 0 270 184q165 127 258 175t172 48q99 0 182 -79q74 -72 74 -134q0 -34 -57 -114q-38 -54 -70 -95h238v-227
zM1896 299q0 54 -61 112q-67 62 -147 62q-77 0 -258 -119q-168 -111 -168 -127q0 -10 198 -10q137 0 279 23q157 26 157 59zM1699 -225q0 -15 -47 -69t-60 -54q-71 69 -127 108q0 9 48.5 67.5t59.5 58.5q16 0 71 -51t55 -60zM1438 -241q0 -12 -48 -66.5t-59 -54.5
q-62 61 -127 107q0 10 48.5 68.5t59.5 58.5q16 0 71 -51t55 -62z" />
    <glyph glyph-name="uni069E.init" unicode="&#x69e;" horiz-adv-x="1464" 
d="M1370 412q0 -46 -81.5 -173.5t-131.5 -162.5q-113 -80 -508 -80q-231 0 -260 4q-46 -76 -57 -76q-8 0 -8 13q0 24 26 77q-57 19 -90 62q-15 19 -33 76q-44 -80 -86.5 -116t-107.5 -36h-33q-70 0 -70 113q0 114 70 114h133q63 0 84 47q17 38 46 75q27 34 36 34q4 0 4 -37
q0 -74 33 -100q40 -33 104 -33h43q40 31 266.5 208t354.5 177q93 0 181 -66q85 -64 85 -120zM1214 260q0 48 -75 106q-79 60 -154 60q-76 0 -235 -103q-148 -96 -148 -114q0 -14 90 -14q206 0 356 16q166 19 166 49zM802 1144q0 -15 -52 -74.5t-66 -59.5q-57 60 -136 117
q0 10 52.5 74.5t64.5 64.5q17 0 77 -56t60 -66zM697 882q0 -17 -51.5 -75.5t-65.5 -58.5q-66 66 -137 115q0 11 53 75.5t64 64.5q18 0 77.5 -55.5t59.5 -65.5zM982 907q0 -16 -52.5 -75.5t-64.5 -59.5q-57 60 -137 117q0 11 52 74.5t64 63.5q16 0 77 -55.5t61 -64.5z" />
    <glyph glyph-name="uni069E.medi" unicode="&#x69e;" horiz-adv-x="1479" 
d="M1493 0h-393q-115 0 -152 37q-19 -12 -130 -24q-116 -13 -220 -13q-180 0 -201 10q-42 -82 -55 -82q-8 0 -8 17q0 25 22 84q-96 26 -118 133q-50 -96 -91 -125q-51 -37 -108 -37h-39q-70 0 -70 113q0 114 70 114h104q87 0 113 52q57 114 86 114q10 0 10 -14q0 -4 -3 -14
t-3 -23q0 -54 35 -82q40 -33 156 -33q45 40 227 195q241 203 385 203q96 0 182 -67q78 -61 78 -114q0 -32 -43 -117q-40 -78 -61 -100h227v-227zM1214 293q0 43 -70 99q-75 59 -149 59q-134 0 -383 -224q25 -2 99 -2q40 0 122.5 1t114.5 1q84 0 171 19q95 21 95 47z
M843 1141q0 -15 -52 -74.5t-66 -59.5q-57 60 -136 117q0 10 52.5 74.5t64.5 64.5q17 0 77 -56t60 -66zM738 879q0 -17 -51.5 -75.5t-65.5 -58.5q-66 66 -137 115q0 11 53 75.5t64 64.5q18 0 77.5 -55.5t59.5 -65.5zM1023 904q0 -16 -52.5 -75.5t-64.5 -59.5q-57 60 -137 117
q0 11 52 74.5t64 63.5q16 0 77 -55.5t61 -64.5z" />
    <glyph glyph-name="uni069E.fina" unicode="&#x69e;" horiz-adv-x="2163" 
d="M2177 0h-432q-70 0 -137 29q1 -1 -122 -6q-129 -5 -231 -5q-196 0 -241 29q10 -29 10 -100q0 -79 -32 -195t-68 -166q-46 -62 -169 -113q-136 -57 -276 -57q-174 0 -278 110q-97 101 -97 255q0 115 63 253q54 118 71 118q8 0 8 -15q0 -1 -23.5 -85t-23.5 -132
q0 -90 61 -164q87 -106 266 -106q147 0 284 47q128 44 128 80q0 129 -51 280q-16 46 -90 189q1 0 37 108q28 86 38 86q11 0 58 -86q28 -52 85 -84q50 -28 95 -28q31 0 270 184q165 127 258 175t172 48q99 0 182 -79q74 -72 74 -134q0 -34 -57 -114q-38 -54 -70 -95h238v-227
zM1896 299q0 54 -61 112q-67 62 -147 62q-77 0 -258 -119q-168 -111 -168 -127q0 -10 198 -10q137 0 279 23q157 26 157 59zM1579 1170q0 -15 -52 -74.5t-66 -59.5q-57 60 -136 117q0 10 52.5 74.5t64.5 64.5q17 0 77 -56t60 -66zM1474 908q0 -17 -51.5 -75.5t-65.5 -58.5
q-66 66 -137 115q0 11 53 75.5t64 64.5q18 0 77.5 -55.5t59.5 -65.5zM1759 933q0 -16 -52.5 -75.5t-64.5 -59.5q-57 60 -137 117q0 11 52 74.5t64 63.5q16 0 77 -55.5t61 -64.5z" />
    <glyph glyph-name="uni069F.init" unicode="&#x69f;" horiz-adv-x="1185" 
d="M1090 403q0 -52 -78 -171t-144 -160q-57 -36 -268 -57q-157 -15 -283 -15h-317q-70 0 -70 113q0 114 70 114h152q33 14 125 74q89 59 112 82q2 8 2 51q0 107 -12 367q-10 109 -23 327v2q0 41 32 119q30 74 38 74q14 0 20 -43q9 -61 76 -104q37 -24 37 -39q0 -71 -76 -138
q-2 -12 -2 -45q0 -34 6.5 -119t6.5 -120q0 -177 -39 -289q38 26 152.5 105t221.5 79q105 0 187 -75q74 -67 74 -132zM920 270q0 37 -71 99q-76 67 -138 67q-61 0 -240 -107q-172 -102 -172 -120q29 -4 111 -4q69 0 127 4q383 27 383 61zM929 1170q0 -15 -52 -74.5t-66 -59.5
q-57 60 -136 117q0 10 52.5 74.5t64.5 64.5q17 0 77 -56t60 -66zM824 908q0 -17 -51.5 -75.5t-65.5 -58.5q-66 66 -137 115q0 11 53 75.5t64 64.5q18 0 77.5 -55.5t59.5 -65.5zM1109 933q0 -16 -52.5 -75.5t-64.5 -59.5q-57 60 -137 117q0 11 52 74.5t64 63.5q16 0 77 -55.5
t61 -64.5z" />
    <glyph glyph-name="uni069F.medi" unicode="&#x69f;" horiz-adv-x="1284" 
d="M1298 0h-401q-74 0 -147 29q-106 -29 -277 -29h-473q-70 0 -70 113q0 114 70 114h137q127 79 252 181q10 46 10 114t-10 189q-11 132 -43 469q3 41 24 94q20 49 27 49q15 0 21 -39q4 -27 34 -62t60 -46q39 -16 39 -39q0 -30 -23 -72.5t-49 -65.5q15 -179 15 -270
q0 -157 -39 -264q122 84 209 137q130 80 256 80q93 0 178 -64q82 -62 82 -124q0 -45 -10 -69q-11 -27 -56 -89q-59 -82 -86 -109h270v-227zM1034 317q0 52 -71 112q-79 65 -170 65q-89 0 -242 -97q-104 -65 -234 -170q54 -4 138 -4q172 0 375.5 33t203.5 61zM939 1170
q0 -15 -52 -74.5t-66 -59.5q-57 60 -136 117q0 10 52.5 74.5t64.5 64.5q17 0 77 -56t60 -66zM834 908q0 -17 -51.5 -75.5t-65.5 -58.5q-66 66 -137 115q0 11 53 75.5t64 64.5q18 0 77.5 -55.5t59.5 -65.5zM1119 933q0 -16 -52.5 -75.5t-64.5 -59.5q-57 60 -137 117
q0 11 52 74.5t64 63.5q16 0 77 -55.5t61 -64.5z" />
    <glyph glyph-name="uni069F.fina" unicode="&#x69f;" horiz-adv-x="1631" 
d="M1645 0h-416q-74 0 -148 29q-105 -29 -274 -29h-547q-209 0 -209 217q0 148 21 148q9 0 14 -33.5t43 -66.5q50 -42 123 -42h217q147 100 252 185q10 46 10 114t-10 189q-11 132 -43 469q3 41 24 94q19 49 27 49q15 0 21 -39q4 -27 35 -62t59 -46q39 -16 39 -39
q0 -30 -23 -72.5t-49 -65.5q14 -179 14 -270q0 -157 -39 -264q123 84 209 137q130 80 246 80q95 0 184 -64q86 -63 86 -124q0 -45 -9 -69q-11 -27 -56 -89q-59 -82 -86 -109h285v-227zM1366 317q0 52 -72 112q-78 65 -170 65q-88 0 -241 -97q-105 -65 -234 -170
q53 -4 137 -4q173 0 376.5 33t203.5 61zM1279 1170q0 -15 -52 -74.5t-66 -59.5q-57 60 -136 117q0 10 52.5 74.5t64.5 64.5q17 0 77 -56t60 -66zM1174 908q0 -17 -51.5 -75.5t-65.5 -58.5q-66 66 -137 115q0 11 53 75.5t64 64.5q18 0 77.5 -55.5t59.5 -65.5zM1459 933
q0 -16 -52.5 -75.5t-64.5 -59.5q-57 60 -137 117q0 11 52 74.5t64 63.5q16 0 77 -55.5t61 -64.5z" />
    <glyph glyph-name="uni06A0.init" unicode="&#x6a0;" horiz-adv-x="1066" 
d="M981 397q0 -5 -74 -92.5t-78 -87.5q-61 0 -193 -36q-135 -38 -247 -87q-214 -94 -371 -94h-18q-70 0 -70 113q0 114 70 114h94q103 0 172 25q-31 20 -63 67q-41 61 -41 117q0 95 104 223q116 142 260 142q86 0 176 -73q76 -61 76 -83q0 -14 -20 -14q-7 0 -80.5 11
t-126.5 11q-84 0 -164 -23q-92 -27 -92 -67q0 -57 104.5 -139t178.5 -82q36 0 207.5 33t181.5 33q14 0 14 -11zM601 1379q0 -15 -52 -74.5t-66 -59.5q-57 60 -136 117q0 10 52.5 74.5t64.5 64.5q17 0 77 -56t60 -66zM496 1117q0 -17 -51.5 -75.5t-65.5 -58.5
q-66 66 -137 115q0 11 53 75.5t64 64.5q18 0 77.5 -55.5t59.5 -65.5zM781 1142q0 -16 -52.5 -75.5t-64.5 -59.5q-57 60 -137 117q0 11 52 74.5t64 63.5q16 0 77 -55.5t61 -64.5z" />
    <glyph glyph-name="uni06A0.medi" unicode="&#x6a0;" horiz-adv-x="682" 
d="M696 0h-166q-131 0 -151 152q-52 -83 -98 -115q-53 -37 -134 -37h-147q-70 0 -70 113q0 114 70 114h184q44 0 92 12q52 13 52 27q0 39 -58 70q-53 29 -114 29q-23 0 -38.5 -5.5t-23.5 -5.5q-18 0 -18 15q0 11 34 76q40 73 74 110q52 55 148 55q85 0 155 -47
q91 -60 91 -127q0 -65 -41 -129q-30 -45 -64 -80h223v-227zM434 1218q0 -15 -52 -74.5t-66 -59.5q-57 60 -136 117q0 10 52.5 74.5t64.5 64.5q17 0 77 -56t60 -66zM329 956q0 -17 -51.5 -75.5t-65.5 -58.5q-66 66 -137 115q0 11 53 75.5t64 64.5q18 0 77.5 -55.5t59.5 -65.5
zM614 981q0 -16 -52.5 -75.5t-64.5 -59.5q-57 60 -137 117q0 11 52 74.5t64 63.5q16 0 77 -55.5t61 -64.5z" />
    <glyph glyph-name="uni06A0.fina" unicode="&#x6a0;" horiz-adv-x="1094" 
d="M682 -842q-47 -2 -104 -2q-254 0 -373 152q-105 132 -105 364q0 259 84 422q59 114 129 176q-28 29 -104 29q-32 0 -61 -13l-29 -12q-15 0 -15 19q0 20 35 97q37 86 66 108q60 47 170 47q87 0 159 -41.5t72 -100.5q0 -36 -36 -98q-32 -56 -58 -78h596v-227h-629
q-53 0 -86 33q-26 26 -43 104q-78 -45 -131 -140q-57 -103 -57 -216q0 -95 38 -179.5t99 -127.5q107 -76 375 -76h8q127 1 301 24q174 22 174 23q29 0 29 -10q0 -26 -38 -48q-60 -34 -63 -36q-150 -132 -198 -158q-53 -28 -205 -35zM553 1078q0 -15 -52 -74.5t-66 -59.5
q-57 60 -136 117q0 10 52.5 74.5t64.5 64.5q17 0 77 -56t60 -66zM448 816q0 -17 -51.5 -75.5t-65.5 -58.5q-66 66 -137 115q0 11 53 75.5t64 64.5q18 0 77.5 -55.5t59.5 -65.5zM733 841q0 -16 -52.5 -75.5t-64.5 -59.5q-57 60 -137 117q0 11 52 74.5t64 63.5q16 0 77 -55.5
t61 -64.5z" />
    <glyph glyph-name="uni06A1.init" unicode="&#x6a1;" horiz-adv-x="715" 
d="M606 465q0 -134 -52 -284q-42 -119 -71 -148q-32 -33 -86 -33h-397q-70 0 -70 113q0 114 70 114h498q24 0 24 29q0 28 -22 119q-23 98 -35 98q-7 0 -29 -55q-29 -76 -133 -76q-47 0 -88 36q-53 47 -53 130q0 104 68 235q75 144 155 144q79 0 153 -154q68 -144 68 -268z
M418 584q0 16 -35 47q-38 33 -70 33q-61 0 -61 -58q0 -26 28 -44q24 -17 52 -17q24 0 55 14t31 25z" />
    <glyph glyph-name="uni06A1.medi" unicode="&#x6a1;" horiz-adv-x="744" 
d="M758 0h-297q-59 0 -119 66q-102 -66 -176 -66h-166q-70 0 -70 113q0 114 70 114h199q8 158 96 285q118 170 221 170q111 0 111 -199q0 -107 -58 -217q-13 -26 -39 -39h228v-227zM522 313q0 99 -26 131q-24 29 -74 29q-42 0 -84.5 -35.5t-42.5 -68.5q0 -37 33 -68t75 -31
q89 0 119 43z" />
    <glyph glyph-name="uni06A1.fina" unicode="&#x6a1;" horiz-adv-x="1849" 
d="M1864 0h-238q-113 0 -176 72q-44 -39 -306 -76q-278 -39 -560 -39q-490 0 -490 317q0 82 44 197q41 107 61 107q10 0 10 -15q0 1 -16.5 -53t-16.5 -102q0 -111 100 -166q121 -66 406 -66q207 0 412 19q186 18 233 36q0 96 47 201q112 250 266 250q58 0 92 -60
q31 -54 31 -135q0 -104 -90 -260h191v-227zM1665 342q0 43 -33 90t-67 47q-38 0 -93 -34t-55 -62q0 -37 49 -75q43 -34 70 -34q28 0 78.5 24t50.5 44z" />
    <glyph glyph-name="uni06A2.init" unicode="&#x6a2;" horiz-adv-x="715" 
d="M606 465q0 -134 -52 -284q-42 -119 -71 -148q-32 -33 -86 -33h-397q-70 0 -70 113q0 114 70 114h498q24 0 24 29q0 28 -22 119q-23 98 -35 98q-7 0 -29 -55q-29 -76 -133 -76q-47 0 -88 36q-53 47 -53 130q0 104 68 235q75 144 155 144q79 0 153 -154q68 -144 68 -268z
M418 584q0 16 -35 47q-38 33 -70 33q-61 0 -61 -58q0 -26 28 -44q24 -17 52 -17q24 0 55 14t31 25zM465 -260q0 -18 -61.5 -90t-75.5 -72q-80 80 -166 141q0 13 63 89.5t80 76.5q20 0 90 -66.5t70 -78.5z" />
    <glyph glyph-name="uni06A2.medi" unicode="&#x6a2;" horiz-adv-x="744" 
d="M758 0h-297q-59 0 -119 66q-102 -66 -176 -66h-166q-70 0 -70 113q0 114 70 114h199q8 158 96 285q118 170 221 170q111 0 111 -199q0 -107 -58 -217q-13 -26 -39 -39h228v-227zM522 313q0 99 -26 131q-24 29 -74 29q-42 0 -84.5 -35.5t-42.5 -68.5q0 -37 33 -68t75 -31
q89 0 119 43zM458 -260q0 -18 -61.5 -90t-75.5 -72q-80 80 -166 141q0 13 63 89.5t80 76.5q20 0 90 -66.5t70 -78.5z" />
    <glyph glyph-name="uni06A2.fina" unicode="&#x6a2;" horiz-adv-x="1849" 
d="M1864 0h-238q-113 0 -176 72q-44 -39 -306 -76q-278 -39 -560 -39q-490 0 -490 317q0 82 44 197q41 107 61 107q10 0 10 -15q0 1 -16.5 -53t-16.5 -102q0 -111 100 -166q121 -66 406 -66q207 0 412 19q186 18 233 36q0 96 47 201q112 250 266 250q58 0 92 -60
q31 -54 31 -135q0 -104 -90 -260h191v-227zM1665 342q0 43 -33 90t-67 47q-38 0 -93 -34t-55 -62q0 -37 49 -75q43 -34 70 -34q28 0 78.5 24t50.5 44zM1611 -260q0 -18 -61.5 -90t-75.5 -72q-80 80 -166 141q0 13 63 89.5t80 76.5q20 0 90 -66.5t70 -78.5z" />
    <glyph glyph-name="uni06A3.init" unicode="&#x6a3;" horiz-adv-x="715" 
d="M418 1110q0 -18 -61.5 -90t-75.5 -72q-86 82 -166 142q0 12 62 88.5t79 76.5q20 0 91 -67t71 -78zM606 465q0 -134 -52 -284q-42 -119 -71 -148q-32 -33 -86 -33h-397q-70 0 -70 113q0 114 70 114h498q24 0 24 29q0 28 -22 119q-23 98 -35 98q-7 0 -29 -55
q-29 -76 -133 -76q-47 0 -88 36q-53 47 -53 130q0 104 68 235q75 144 155 144q79 0 153 -154q68 -144 68 -268zM418 584q0 16 -35 47q-38 33 -70 33q-61 0 -61 -58q0 -26 28 -44q24 -17 52 -17q24 0 55 14t31 25zM418 -260q0 -18 -61.5 -90t-75.5 -72q-80 80 -166 141
q0 13 63 89.5t80 76.5q20 0 90 -66.5t70 -78.5z" />
    <glyph glyph-name="uni06A3.medi" unicode="&#x6a3;" horiz-adv-x="744" 
d="M522 934q0 -18 -61.5 -90t-75.5 -72q-72 72 -168 143q0 13 63.5 89.5t79.5 76.5q20 0 91 -67.5t71 -79.5zM758 0h-297q-59 0 -119 66q-102 -66 -176 -66h-166q-70 0 -70 113q0 114 70 114h199q8 158 96 285q118 170 221 170q111 0 111 -199q0 -107 -58 -217
q-13 -26 -39 -39h228v-227zM522 313q0 99 -26 131q-24 29 -74 29q-42 0 -84.5 -35.5t-42.5 -68.5q0 -37 33 -68t75 -31q89 0 119 43zM520 -260q0 -18 -61.5 -90t-75.5 -72q-80 80 -166 141q0 13 63 89.5t80 76.5q20 0 90 -66.5t70 -78.5z" />
    <glyph glyph-name="uni06A3.fina" unicode="&#x6a3;" horiz-adv-x="1849" 
d="M1622 934q0 -18 -61.5 -90t-75.5 -72q-70 70 -166 143q0 13 62 89.5t79 76.5q20 0 91 -67.5t71 -79.5zM1864 0h-238q-113 0 -176 72q-44 -39 -306 -76q-278 -39 -560 -39q-490 0 -490 317q0 82 44 197q41 107 61 107q10 0 10 -15q0 1 -16.5 -53t-16.5 -102
q0 -111 100 -166q121 -66 406 -66q207 0 412 19q186 18 233 36q0 96 47 201q112 250 266 250q58 0 92 -60q31 -54 31 -135q0 -104 -90 -260h191v-227zM1665 342q0 43 -33 90t-67 47q-38 0 -93 -34t-55 -62q0 -37 49 -75q43 -34 70 -34q28 0 78.5 24t50.5 44zM993 -306
q0 -18 -61.5 -90t-75.5 -72q-80 80 -166 141q0 13 63 89.5t80 76.5q20 0 90 -66.5t70 -78.5z" />
    <glyph glyph-name="uni06A5.init" unicode="&#x6a5;" horiz-adv-x="715" 
d="M606 465q0 -134 -52 -284q-42 -119 -71 -148q-32 -33 -86 -33h-397q-70 0 -70 113q0 114 70 114h498q24 0 24 29q0 28 -22 119q-23 98 -35 98q-7 0 -29 -55q-29 -76 -133 -76q-47 0 -88 36q-53 47 -53 130q0 104 68 235q75 144 155 144q79 0 153 -154q68 -144 68 -268z
M418 584q0 16 -35 47q-38 33 -70 33q-61 0 -61 -58q0 -26 28 -44q24 -17 52 -17q24 0 55 14t31 25zM439 -468q0 -15 -48.5 -69t-58.5 -54q-62 61 -127 108q0 10 48.5 68.5t58.5 58.5q16 0 71.5 -51t55.5 -61zM549 -225q0 -15 -47 -69t-60 -54q-71 69 -127 108q0 9 48.5 67.5
t59.5 58.5q16 0 71 -51t55 -60zM288 -241q0 -12 -48 -66.5t-59 -54.5q-62 61 -127 107q0 10 48.5 68.5t59.5 58.5q16 0 71 -51t55 -62z" />
    <glyph glyph-name="uni06A5.medi" unicode="&#x6a5;" horiz-adv-x="744" 
d="M758 0h-297q-59 0 -119 66q-102 -66 -176 -66h-166q-70 0 -70 113q0 114 70 114h199q8 158 96 285q118 170 221 170q111 0 111 -199q0 -107 -58 -217q-13 -26 -39 -39h228v-227zM522 313q0 99 -26 131q-24 29 -74 29q-42 0 -84.5 -35.5t-42.5 -68.5q0 -37 33 -68t75 -31
q89 0 119 43zM459 -468q0 -15 -48.5 -69t-58.5 -54q-62 61 -127 108q0 10 48.5 68.5t58.5 58.5q16 0 71.5 -51t55.5 -61zM569 -225q0 -15 -47 -69t-60 -54q-71 69 -127 108q0 9 48.5 67.5t59.5 58.5q16 0 71 -51t55 -60zM308 -241q0 -12 -48 -66.5t-59 -54.5
q-62 61 -127 107q0 10 48.5 68.5t59.5 58.5q16 0 71 -51t55 -62z" />
    <glyph glyph-name="uni06A5.fina" unicode="&#x6a5;" horiz-adv-x="1849" 
d="M1864 0h-238q-113 0 -176 72q-44 -39 -306 -76q-278 -39 -560 -39q-490 0 -490 317q0 82 44 197q41 107 61 107q10 0 10 -15q0 1 -16.5 -53t-16.5 -102q0 -111 100 -166q121 -66 406 -66q207 0 412 19q186 18 233 36q0 96 47 201q112 250 266 250q58 0 92 -60
q31 -54 31 -135q0 -104 -90 -260h191v-227zM1665 342q0 43 -33 90t-67 47q-38 0 -93 -34t-55 -62q0 -37 49 -75q43 -34 70 -34q28 0 78.5 24t50.5 44zM1539 -468q0 -15 -48.5 -69t-58.5 -54q-62 61 -127 108q0 10 48.5 68.5t58.5 58.5q16 0 71.5 -51t55.5 -61zM1649 -225
q0 -15 -47 -69t-60 -54q-71 69 -127 108q0 9 48.5 67.5t59.5 58.5q16 0 71 -51t55 -60zM1388 -241q0 -12 -48 -66.5t-59 -54.5q-62 61 -127 107q0 10 48.5 68.5t59.5 58.5q16 0 71 -51t55 -62z" />
    <glyph glyph-name="uni06A7.init" unicode="&#x6a7;" horiz-adv-x="715" 
d="M418 1110q0 -18 -61.5 -90t-75.5 -72q-86 82 -166 142q0 12 62 88.5t79 76.5q20 0 91 -67t71 -78zM606 465q0 -134 -52 -284q-42 -119 -71 -148q-32 -33 -86 -33h-397q-70 0 -70 113q0 114 70 114h498q24 0 24 29q0 28 -22 119q-23 98 -35 98q-7 0 -29 -55
q-29 -76 -133 -76q-47 0 -88 36q-53 47 -53 130q0 104 68 235q75 144 155 144q79 0 153 -154q68 -144 68 -268zM418 584q0 16 -35 47q-38 33 -70 33q-61 0 -61 -58q0 -26 28 -44q24 -17 52 -17q24 0 55 14t31 25z" />
    <glyph glyph-name="uni06A7.medi" unicode="&#x6a7;" horiz-adv-x="744" 
d="M522 934q0 -18 -61.5 -90t-75.5 -72q-72 72 -168 143q0 13 63.5 89.5t79.5 76.5q20 0 91 -67.5t71 -79.5zM758 0h-297q-59 0 -119 66q-102 -66 -176 -66h-166q-70 0 -70 113q0 114 70 114h199q8 158 96 285q118 170 221 170q111 0 111 -199q0 -107 -58 -217
q-13 -26 -39 -39h228v-227zM522 313q0 99 -26 131q-24 29 -74 29q-42 0 -84.5 -35.5t-42.5 -68.5q0 -37 33 -68t75 -31q89 0 119 43z" />
    <glyph glyph-name="uni06A7.fina" unicode="&#x6a7;" horiz-adv-x="1129" 
d="M1143 0h-115q0 -59 -43 -205q-50 -168 -94 -213q-60 -59 -162 -106q-132 -60 -268 -60q-178 0 -275 97q-92 91 -92 245q0 150 59 302q50 128 70 128q14 0 15 -17q-2 1 -27 -87q-27 -94 -27 -164q0 -118 85 -196q82 -74 196 -74q150 0 278 51q54 21 118 57.5t69 46.5
q0 146 -25 195h-198q-64 0 -114 32q-56 36 -56 95q0 118 61 256q76 172 160 172q88 0 166 -137q69 -122 82 -191h137v-227zM840 223q-6 32 -44 74q-44 49 -85 49q-27 0 -51.5 -26.5t-24.5 -49.5q0 -47 53 -47h152zM906 908q0 -18 -61.5 -90t-75.5 -72q-86 82 -166 142
q0 12 62 88.5t79 76.5q20 0 91 -67t71 -78z" />
    <glyph glyph-name="uni06A8.init" unicode="&#x6a8;" horiz-adv-x="791" 
d="M0 0q-70 0 -70 113q0 114 70 114h573q25 0 25 29q0 28 -22 119q-23 98 -35 98q-8 0 -29 -55q-29 -76 -133 -76q-47 0 -88 36q-53 47 -53 130q0 104 68 235q75 144 155 144q79 0 153 -154q68 -144 68 -268q0 -134 -52 -284q-42 -119 -71 -148q-33 -33 -86 -33h-473z
M522 1318q0 -14 -51.5 -72.5t-63.5 -58.5q-66 65 -136 115q0 11 51.5 73.5t62.5 62.5q17 0 77 -54.5t60 -65.5zM419 1059q0 -14 -52 -72.5t-63 -58.5q-67 65 -136 115q0 10 51.5 73t63.5 63q17 0 76.5 -55t59.5 -65zM697 1084q0 -15 -50.5 -73t-63.5 -58q-76 74 -135 116
q0 9 52 71.5t63 62.5q17 0 75.5 -54t58.5 -65zM494 584q0 16 -35 47q-38 33 -70 33q-61 0 -61 -58q0 -26 26 -43.5t54 -17.5q24 0 55 14t31 25z" />
    <glyph glyph-name="uni06A8.medi" unicode="&#x6a8;" horiz-adv-x="744" 
d="M0 0q-70 0 -70 113q0 114 70 114h199q8 158 96 285q118 170 221 170q111 0 111 -199q0 -107 -58 -217q-13 -26 -39 -39h228v-227h-297q-59 0 -119 66q-102 -66 -176 -66h-166zM522 313q0 99 -26 131q-24 29 -74 29q-42 0 -84.5 -35.5t-42.5 -68.5q0 -37 33 -68t75 -31
q89 0 119 43zM502 1158q0 -14 -51.5 -72.5t-63.5 -58.5q-66 65 -136 115q0 11 51.5 73.5t62.5 62.5q17 0 77 -54.5t60 -65.5zM399 899q0 -14 -52 -72.5t-63 -58.5q-67 65 -136 115q0 10 51.5 73t63.5 63q17 0 76.5 -55t59.5 -65zM677 924q0 -15 -50.5 -73t-63.5 -58
q-76 74 -135 116q0 9 52 71.5t63 62.5q17 0 75.5 -54t58.5 -65z" />
    <glyph glyph-name="uni06A8.fina" unicode="&#x6a8;" horiz-adv-x="1129" 
d="M1143 0h-115q0 -59 -43 -205q-50 -168 -94 -213q-60 -59 -162 -106q-132 -60 -268 -60q-178 0 -275 97q-92 91 -92 245q0 150 59 302q50 128 70 128q14 0 15 -17q-2 1 -27 -87q-27 -94 -27 -164q0 -118 85 -196q82 -74 196 -74q150 0 278 51q54 21 118 57.5t69 46.5
q0 146 -25 195h-198q-64 0 -114 32q-56 36 -56 95q0 118 61 256q76 172 160 172q88 0 166 -137q69 -122 82 -191h137v-227zM840 223q-6 32 -44 74q-44 49 -85 49q-27 0 -51.5 -26.5t-24.5 -49.5q0 -47 53 -47h152zM811 1113q0 -14 -51.5 -72.5t-63.5 -58.5q-66 65 -136 115
q0 11 51.5 73.5t62.5 62.5q17 0 77 -54.5t60 -65.5zM708 854q0 -14 -52 -72.5t-63 -58.5q-67 65 -136 115q0 10 51.5 73t63.5 63q17 0 76.5 -55t59.5 -65zM986 879q0 -15 -50.5 -73t-63.5 -58q-76 74 -135 116q0 9 52 71.5t63 62.5q17 0 75.5 -54t58.5 -65z" />
    <glyph glyph-name="uni06AA.init" unicode="&#x6aa;" horiz-adv-x="942" 
d="M915 1284q0 -3 -47 -87t-57 -97q-118 -21 -327.5 -86.5t-209.5 -79.5q0 -19 76 -94q108 -108 195 -271q73 -137 76 -303v-13q0 -158 -46 -204q-49 -49 -319 -49h-256q-70 0 -70 113q0 114 70 114h350q219 0 219 33q0 24 -36 97q-39 79 -82 137q-135 177 -199 221
q-51 12 -72 35q-47 49 -47 116q0 37 29.5 110.5t50.5 90.5q69 54 338 133q321 94 354 94q10 0 10 -10z" />
    <glyph glyph-name="uni06AA.medi" unicode="&#x6aa;" horiz-adv-x="949" 
d="M963 0h-123q-87 0 -138 86q-122 209 -219 322v-129q0 -169 -75 -236q-49 -43 -134 -43h-274q-70 0 -70 113q0 114 70 114h227q205 0 205 43q0 92 -115 256q-62 90 -137 181q-65 79 -65 112q0 212 61 262q20 20 115 63q108 50 217 83q389 119 393 119q8 0 8 -9
q0 -6 -46 -96l-52 -104q-129 -22 -295 -80q-285 -100 -285 -127t125 -166q127 -142 217 -252q147 -179 195 -227q57 -58 129 -58h66v-227z" />
    <glyph glyph-name="uni06AA.fina" unicode="&#x6aa;" horiz-adv-x="1764" 
d="M1778 0h-110q-87 0 -138 86q-61 105 -115.5 185t-103.5 137q4 -43 5.5 -74t1.5 -50q0 -86 -20 -147t-58 -94q-17 -15 -54.5 -24.5t-88.5 -15.5t-111.5 -8.5t-124 -3.5t-127 -0.5t-118.5 0.5q-155 0 -260.5 23t-162.5 71q-48 42 -73.5 97.5t-25.5 129.5q0 22 5.5 54.5
t16 70t26.5 78.5t37 79q16 24 24 24q7 0 7 -15q0 -9 -5 -25.5t-11.5 -37t-11.5 -43.5t-5 -45q0 -51 21.5 -91.5t67.5 -71.5q31 -20 72 -34.5t99 -23.5t137.5 -13.5t188.5 -4.5q101 0 191.5 4t158.5 12.5t107.5 21t39.5 29.5q0 26 -12.5 61t-32.5 73.5t-46.5 79t-54.5 80
t-56 74.5t-51 63q-64 79 -64 111q0 100 18.5 159.5t48.5 84.5q26 21 70 43.5t98.5 45.5t115.5 45.5t121 43t114.5 37.5t96.5 30t67 20t26 7q8 0 8 -9q0 -3 -12.5 -26.5t-35.5 -68.5q-25 -48 -37.5 -76.5t-14.5 -31.5q-27 -4 -79 -18.5t-115.5 -34.5t-130 -43.5t-120.5 -44.5
t-89 -38t-35 -24q0 -14 30.5 -52.5t92.5 -107.5q63 -71 119 -133.5t101 -117.5q74 -90 122.5 -146.5t72.5 -80.5q57 -58 129 -58h53v-227z" />
    <glyph glyph-name="uni06AB.init" unicode="&#x6ab;" horiz-adv-x="1034" 
d="M915 1284q0 -3 -47 -87t-57 -97q-118 -21 -327.5 -86.5t-209.5 -79.5q0 -19 76 -94q108 -108 195 -271q73 -137 76 -303v-13q0 -158 -46 -204q-49 -49 -319 -49h-256q-70 0 -70 113q0 114 70 114h350q219 0 219 33q0 24 -36 97q-39 79 -82 137q-135 177 -199 221
q-51 12 -72 35q-47 49 -47 116q0 37 29.5 110.5t50.5 90.5q69 54 338 133q321 94 354 94q10 0 10 -10zM999 1525q-7 -12 -18 -28.5t-22.5 -36t-20.5 -36.5q-13 -27 -38 -31q-166 -41 -290 -81t-209 -71.5t-130.5 -51t-54.5 -19.5q-4 0 -6 4.5t-2 10.5q0 12 10 28t26 41
q66 35 145.5 70t160.5 67.5t158 60.5t138.5 48.5t102 32.5t47.5 12q9 0 11 -7q-1 -3 -8 -13z" />
    <glyph glyph-name="uni06AB.medi" unicode="&#x6ab;" horiz-adv-x="1025" 
d="M0 0q-70 0 -70 113q0 114 70 114q89 0 169 1t135.5 5.5t85 14t29.5 26.5q0 46 -23 109.5t-81 145.5q-62 91 -138 182q-64 79 -64 111q0 100 18.5 159.5t48.5 84.5q26 21 70 43.5t98.5 45.5t115.5 45.5t121 43t114.5 37.5t96.5 30t67 20t26 7q8 0 8 -9q0 -3 -12.5 -26.5
t-35.5 -68.5q-25 -48 -37.5 -76.5t-14.5 -31.5q-27 -4 -79 -18.5t-115.5 -34.5t-130 -43.5t-120.5 -44.5t-89 -38t-35 -24q0 -14 30.5 -52.5t92.5 -107.5q63 -71 119 -133.5t101 -117.5q74 -90 122.5 -146.5t72.5 -80.5q57 -58 129 -58h144v-227h-201q-87 0 -138 86
q-61 105 -115.5 185t-103.5 137q2 -34 2.5 -63.5t0.5 -55.5q0 -86 -15 -142t-46 -88.5t-78.5 -45.5t-111.5 -13h-233zM966 1584q0 -2 -7.5 -15.5t-18.5 -32t-22.5 -39.5t-20.5 -38q-13 -27 -38 -31q-166 -47 -288.5 -93.5t-205.5 -83.5t-127 -59.5t-53 -22.5q-4 0 -6 4.5
t-2 10.5q0 12 10 31.5t26 44.5q55 36 129.5 75t154.5 76t159 70.5t143 58.5t106.5 39.5t49.5 14.5q11 0 11 -10z" />
    <glyph glyph-name="uni06AB.fina" unicode="&#x6ab;" horiz-adv-x="1857" 
d="M1871 0h-203q-87 0 -138 86q-61 105 -115.5 185t-103.5 137q4 -43 5.5 -74t1.5 -50q0 -86 -20 -147t-58 -94q-17 -15 -54.5 -24.5t-88.5 -15.5t-111.5 -8.5t-124 -3.5t-127 -0.5t-118.5 0.5q-155 0 -260.5 23t-162.5 71q-48 42 -73.5 97.5t-25.5 129.5q0 22 5.5 54.5
t16 70t26.5 78.5t37 79q16 24 24 24q7 0 7 -15q0 -9 -5 -25.5t-11.5 -37t-11.5 -43.5t-5 -45q0 -51 21.5 -91.5t67.5 -71.5q31 -20 72 -34.5t99 -23.5t137.5 -13.5t188.5 -4.5q101 0 191.5 4t158.5 12.5t107.5 21t39.5 29.5q0 26 -12.5 61t-32.5 73.5t-46.5 79t-54.5 80
t-56 74.5t-51 63q-64 79 -64 111q0 100 18.5 159.5t48.5 84.5q26 21 70 43.5t98.5 45.5t115.5 45.5t121 43t114.5 37.5t96.5 30t67 20t26 7q8 0 8 -9q0 -3 -12.5 -26.5t-35.5 -68.5q-25 -48 -37.5 -76.5t-14.5 -31.5q-27 -4 -79 -18.5t-115.5 -34.5t-130 -43.5t-120.5 -44.5
t-89 -38t-35 -24q0 -14 30.5 -52.5t92.5 -107.5q63 -71 119 -133.5t101 -117.5q74 -90 122.5 -146.5t72.5 -80.5q57 -58 129 -58h146v-227zM1796 1584q0 -2 -7.5 -15.5t-18.5 -32t-22.5 -39.5t-20.5 -38q-13 -27 -38 -31q-166 -47 -288.5 -93.5t-205.5 -83.5t-127 -59.5
t-53 -22.5q-4 0 -6 4.5t-2 10.5q0 12 10 31.5t26 44.5q55 36 129.5 75t154.5 76t159 70.5t143 58.5t106.5 39.5t49.5 14.5q11 0 11 -10z" />
    <glyph glyph-name="uni06AC.init" unicode="&#x6ac;" horiz-adv-x="942" 
d="M915 1284q0 -3 -47 -87t-57 -97q-118 -21 -327.5 -86.5t-209.5 -79.5q0 -19 76 -94q108 -108 195 -271q73 -137 76 -303v-13q0 -158 -46 -204q-49 -49 -319 -49h-256q-70 0 -70 113q0 114 70 114h350q219 0 219 33q0 24 -36 97q-39 79 -82 137q-135 177 -199 221
q-51 12 -72 35q-47 49 -47 116q0 37 29.5 110.5t50.5 90.5q69 54 338 133q321 94 354 94q10 0 10 -10zM482 1399q0 -14 -51.5 -72.5t-63.5 -58.5q-66 65 -136 115q0 11 51.5 73.5t62.5 62.5q17 0 77 -54.5t60 -65.5z" />
    <glyph glyph-name="uni06AC.medi" unicode="&#x6ac;" horiz-adv-x="949" 
d="M963 0h-123q-87 0 -138 86q-122 209 -219 322v-129q0 -169 -75 -236q-49 -43 -134 -43h-274q-70 0 -70 113q0 114 70 114h227q205 0 205 43q0 92 -115 256q-62 90 -137 181q-65 79 -65 112q0 212 61 262q20 20 115 63q108 50 217 83q389 119 393 119q8 0 8 -9
q0 -6 -46 -96l-52 -104q-129 -22 -295 -80q-285 -100 -285 -127t125 -166q127 -142 217 -252q147 -179 195 -227q57 -58 129 -58h66v-227zM482 1429q0 -14 -51.5 -72.5t-63.5 -58.5q-66 65 -136 115q0 11 51.5 73.5t62.5 62.5q17 0 77 -54.5t60 -65.5z" />
    <glyph glyph-name="uni06AC.fina" unicode="&#x6ac;" horiz-adv-x="1551" 
d="M1565 0h-138q-80 0 -122 71t-58 380q-24 -182 -86 -267q-114 -101 -321 -166q-196 -61 -379 -61q-200 0 -281 90q-86 97 -86 219q0 70 41 181q40 108 60 108q10 0 10 -29l-15 -50q-14 -50 -14 -93q0 -90 109 -152q90 -51 241 -51q192 0 383 66q216 74 295 162
q-14 115 -47 364q-52 375 -53 375q0 25 39 104q46 95 51 95q15 0 86 -535q13 -114 39 -332q18 -148 47 -190q42 -62 119 -62h80v-227zM768 768q0 -87 -47 -133q-53 -51 -115 -51q-127 0 -127 22q0 13 29 19q160 53 160 67q0 8 -56 8q-67 0 -67 64q0 53 57 131q34 46 80 84
q38 31 47 31q10 0 10 -11q0 -23 -43 -98l-16 -11q-59 -41 -59 -50q0 -21 61 -21q86 0 86 -51zM1269 1596q0 -14 -51.5 -72.5t-63.5 -58.5q-66 65 -136 115q0 11 51.5 73.5t62.5 62.5q17 0 77 -54.5t60 -65.5z" />
    <glyph glyph-name="uni06AE.init" unicode="&#x6ae;" horiz-adv-x="942" 
d="M915 1284q0 -3 -47 -87t-57 -97q-118 -21 -327.5 -86.5t-209.5 -79.5q0 -19 76 -94q108 -108 195 -271q73 -137 76 -303v-13q0 -158 -46 -204q-49 -49 -319 -49h-256q-70 0 -70 113q0 114 70 114h350q219 0 219 33q0 24 -36 97q-39 79 -82 137q-135 177 -199 221
q-51 12 -72 35q-47 49 -47 116q0 37 29.5 110.5t50.5 90.5q69 54 338 133q321 94 354 94q10 0 10 -10zM489 -468q0 -15 -48.5 -69t-58.5 -54q-62 61 -127 108q0 10 48.5 68.5t58.5 58.5q16 0 71.5 -51t55.5 -61zM599 -225q0 -15 -47 -69t-60 -54q-71 69 -127 108
q0 9 48.5 67.5t59.5 58.5q16 0 71 -51t55 -60zM338 -241q0 -12 -48 -66.5t-59 -54.5q-62 61 -127 107q0 10 48.5 68.5t59.5 58.5q16 0 71 -51t55 -62z" />
    <glyph glyph-name="uni06AE.medi" unicode="&#x6ae;" horiz-adv-x="949" 
d="M963 0h-123q-87 0 -138 86q-122 209 -219 322v-129q0 -169 -75 -236q-49 -43 -134 -43h-274q-70 0 -70 113q0 114 70 114h227q205 0 205 43q0 92 -115 256q-62 90 -137 181q-65 79 -65 112q0 212 61 262q20 20 115 63q108 50 217 83q389 119 393 119q8 0 8 -9
q0 -6 -46 -96l-52 -104q-129 -22 -295 -80q-285 -100 -285 -127t125 -166q127 -142 217 -252q147 -179 195 -227q57 -58 129 -58h66v-227zM509 -468q0 -15 -48.5 -69t-58.5 -54q-62 61 -127 108q0 10 48.5 68.5t58.5 58.5q16 0 71.5 -51t55.5 -61zM619 -225q0 -15 -47 -69
t-60 -54q-71 69 -127 108q0 9 48.5 67.5t59.5 58.5q16 0 71 -51t55 -60zM358 -241q0 -12 -48 -66.5t-59 -54.5q-62 61 -127 107q0 10 48.5 68.5t59.5 58.5q16 0 71 -51t55 -62z" />
    <glyph glyph-name="uni06AE.fina" unicode="&#x6ae;" horiz-adv-x="1551" 
d="M1565 0h-138q-80 0 -122 71t-58 380q-24 -182 -86 -267q-114 -101 -321 -166q-196 -61 -379 -61q-200 0 -281 90q-86 97 -86 219q0 70 41 181q40 108 60 108q10 0 10 -29l-15 -50q-14 -50 -14 -93q0 -90 109 -152q90 -51 241 -51q192 0 383 66q216 74 295 162
q-14 115 -47 364q-52 375 -53 375q0 25 39 104q46 95 51 95q15 0 86 -535q13 -114 39 -332q18 -148 47 -190q42 -62 119 -62h80v-227zM768 768q0 -87 -47 -133q-53 -51 -115 -51q-127 0 -127 22q0 13 29 19q160 53 160 67q0 8 -56 8q-67 0 -67 64q0 53 57 131q34 46 80 84
q38 31 47 31q10 0 10 -11q0 -23 -43 -98l-16 -11q-59 -41 -59 -50q0 -21 61 -21q86 0 86 -51zM779 -468q0 -15 -48.5 -69t-58.5 -54q-62 61 -127 108q0 10 48.5 68.5t58.5 58.5q16 0 71.5 -51t55.5 -61zM889 -225q0 -15 -47 -69t-60 -54q-71 69 -127 108q0 9 48.5 67.5
t59.5 58.5q16 0 71 -51t55 -60zM628 -241q0 -12 -48 -66.5t-59 -54.5q-62 61 -127 107q0 10 48.5 68.5t59.5 58.5q16 0 71 -51t55 -62z" />
    <glyph glyph-name="uni06B0.init" unicode="&#x6b0;" horiz-adv-x="1034" 
d="M999 1525q-7 -12 -18 -28.5t-22.5 -36t-20.5 -36.5q-13 -27 -38 -31q-166 -41 -290 -81t-209 -71.5t-130.5 -51t-54.5 -19.5q-4 0 -6 4.5t-2 10.5q0 12 10 28t26 41q66 35 145.5 70t160.5 67.5t158 60.5t138.5 48.5t102 32.5t47.5 12q9 0 11 -7q-1 -3 -8 -13zM672 948
q0 23 -47 50q-68 39 -85 39q-5 0 -13 -28q-8 -26 -8 -38q0 -54 61 -54q30 0 61 12q31 10 31 19zM506 1021q-11 -4 -22 -7q-210 -66 -210 -80q0 -19 76 -94q108 -108 195 -271q73 -137 76 -303v-13q0 -158 -46 -204q-49 -49 -319 -49h-256q-70 0 -70 113q0 114 70 114h350
q219 0 219 33q0 24 -36 97q-39 79 -82 137q-135 177 -199 221q-51 12 -72 35q-47 49 -47 116q0 37 29.5 110.5t50.5 90.5q69 54 338 133q321 94 354 94q10 0 10 -10q0 -3 -47 -87t-57 -97q-46 -8 -105 -23q27 -27 27 -56q0 -26 -23 -87q-23 -59 -37 -77q-40 -52 -116 -52
q-35 0 -57 25q-20 21 -20 50q0 41 20 120q3 9 6 21z" />
    <glyph glyph-name="uni06B0.medi" unicode="&#x6b0;" horiz-adv-x="1025" 
d="M966 1584q0 -2 -7.5 -15.5t-18.5 -32t-22.5 -39.5t-20.5 -38q-13 -27 -38 -31q-166 -47 -288.5 -93.5t-205.5 -83.5t-127 -59.5t-53 -22.5q-4 0 -6 4.5t-2 10.5q0 12 10 31.5t26 44.5q55 36 129.5 75t154.5 76t159 70.5t143 58.5t106.5 39.5t49.5 14.5q11 0 11 -10z
M654 966q0 23 -47 50q-68 39 -85 39q-5 0 -13 -28q-8 -26 -8 -38q0 -54 61 -54q30 0 61 12q31 10 31 19zM487 1035q-7 -3 -14 -5q-67 -24 -121 -45t-89 -38t-35 -24q0 -14 30.5 -52.5t92.5 -107.5q63 -71 119 -133.5t101 -117.5q74 -90 122.5 -146.5t72.5 -80.5
q57 -58 129 -58h144v-227h-201q-87 0 -138 86q-61 105 -115.5 185t-103.5 137q2 -34 2.5 -63.5t0.5 -55.5q0 -86 -15 -142t-46 -88.5t-78.5 -45.5t-111.5 -13h-233q-70 0 -70 113q0 114 70 114q89 0 169 1t135.5 5.5t85 14t29.5 26.5q0 46 -23 109.5t-81 145.5
q-62 91 -138 182q-64 79 -64 111q0 100 18.5 159.5t48.5 84.5q26 21 70 43.5t98.5 45.5t115.5 45.5t121 43t114.5 37.5t96.5 30t67 20t26 7q8 0 8 -9q0 -3 -12.5 -26.5t-35.5 -68.5q-25 -48 -37.5 -76.5t-14.5 -31.5q-27 -4 -79 -18q-16 -5 -34 -10q31 -28 31 -59
q0 -26 -23 -87q-23 -59 -37 -77q-40 -52 -116 -52q-35 0 -57 25q-20 21 -20 50q0 41 20 120q2 8 5 17z" />
    <glyph glyph-name="uni06B0.fina" unicode="&#x6b0;" horiz-adv-x="1857" 
d="M1796 1584q0 -2 -7.5 -15.5t-18.5 -32t-22.5 -39.5t-20.5 -38q-13 -27 -38 -31q-166 -47 -288.5 -93.5t-205.5 -83.5t-127 -59.5t-53 -22.5q-4 0 -6 4.5t-2 10.5q0 12 10 31.5t26 44.5q55 36 129.5 75t154.5 76t159 70.5t143 58.5t106.5 39.5t49.5 14.5q11 0 11 -10z
M1469 954q0 23 -47 50q-68 39 -85 39q-5 0 -13 -28q-8 -26 -8 -38q0 -54 61 -54q30 0 61 12q31 10 31 19zM1304 1030h-1q-67 -24 -121 -45t-89 -38t-35 -24q0 -14 30.5 -52.5t92.5 -107.5q63 -71 119 -133.5t101 -117.5q74 -90 122.5 -146.5t72.5 -80.5q57 -58 129 -58h146
v-227h-203q-87 0 -138 86q-61 105 -115.5 185t-103.5 137q4 -43 5.5 -74t1.5 -50q0 -86 -20 -147t-58 -94q-17 -15 -54.5 -24.5t-88.5 -15.5t-111.5 -8.5t-124 -3.5t-127 -0.5t-118.5 0.5q-155 0 -260.5 23t-162.5 71q-48 42 -73.5 97.5t-25.5 129.5q0 22 5.5 54.5t16 70
t26.5 78.5t37 79q16 24 24 24q7 0 7 -15q0 -9 -5 -25.5t-11.5 -37t-11.5 -43.5t-5 -45q0 -51 21.5 -91.5t67.5 -71.5q31 -20 72 -34.5t99 -23.5t137.5 -13.5t188.5 -4.5q101 0 191.5 4t158.5 12.5t107.5 21t39.5 29.5q0 26 -12.5 61t-32.5 73.5t-46.5 79t-54.5 80t-56 74.5
t-51 63q-64 79 -64 111q0 100 18.5 159.5t48.5 84.5q26 21 70 43.5t98.5 45.5t115.5 45.5t121 43t114.5 37.5t96.5 30t67 20t26 7q8 0 8 -9q0 -3 -12.5 -26.5t-35.5 -68.5q-25 -48 -37.5 -76.5t-14.5 -31.5q-27 -4 -79 -18q-26 -8 -55 -16q37 -31 37 -65q0 -26 -23 -87
q-23 -59 -37 -77q-40 -52 -116 -52q-35 0 -57 25q-20 21 -20 50q0 41 20 120q3 11 7 24z" />
    <glyph glyph-name="uni06B2.init" unicode="&#x6b2;" horiz-adv-x="1034" 
d="M915 1284q0 -3 -47 -87t-57 -97q-118 -21 -327.5 -86.5t-209.5 -79.5q0 -19 76 -94q108 -108 195 -271q73 -137 76 -303v-13q0 -158 -46 -204q-49 -49 -319 -49h-256q-70 0 -70 113q0 114 70 114h350q219 0 219 33q0 24 -36 97q-39 79 -82 137q-135 177 -199 221
q-51 12 -72 35q-47 49 -47 116q0 37 29.5 110.5t50.5 90.5q69 54 338 133q321 94 354 94q10 0 10 -10zM999 1525q-7 -12 -18 -28.5t-22.5 -36t-20.5 -36.5q-13 -27 -38 -31q-166 -41 -290 -81t-209 -71.5t-130.5 -51t-54.5 -19.5q-4 0 -6 4.5t-2 10.5q0 12 10 28t26 41
q66 35 145.5 70t160.5 67.5t158 60.5t138.5 48.5t102 32.5t47.5 12q9 0 11 -7q-1 -3 -8 -13zM648 -247q0 -18 -56.5 -83t-71.5 -65q-86 83 -153 130q0 11 58.5 81t71.5 70q19 0 85 -61t66 -72zM335 -266q0 -15 -58 -80.5t-71 -65.5q-74 73 -152 129q0 12 58 82t71 70
q20 0 86 -61t66 -74z" />
    <glyph glyph-name="uni06B2.medi" unicode="&#x6b2;" horiz-adv-x="1025" 
d="M0 0q-70 0 -70 113q0 114 70 114q89 0 169 1t135.5 5.5t85 14t29.5 26.5q0 46 -23 109.5t-81 145.5q-62 91 -138 182q-64 79 -64 111q0 100 18.5 159.5t48.5 84.5q26 21 70 43.5t98.5 45.5t115.5 45.5t121 43t114.5 37.5t96.5 30t67 20t26 7q8 0 8 -9q0 -3 -12.5 -26.5
t-35.5 -68.5q-25 -48 -37.5 -76.5t-14.5 -31.5q-27 -4 -79 -18.5t-115.5 -34.5t-130 -43.5t-120.5 -44.5t-89 -38t-35 -24q0 -14 30.5 -52.5t92.5 -107.5q63 -71 119 -133.5t101 -117.5q74 -90 122.5 -146.5t72.5 -80.5q57 -58 129 -58h144v-227h-201q-87 0 -138 86
q-61 105 -115.5 185t-103.5 137q2 -34 2.5 -63.5t0.5 -55.5q0 -86 -15 -142t-46 -88.5t-78.5 -45.5t-111.5 -13h-233zM966 1584q0 -2 -7.5 -15.5t-18.5 -32t-22.5 -39.5t-20.5 -38q-13 -27 -38 -31q-166 -47 -288.5 -93.5t-205.5 -83.5t-127 -59.5t-53 -22.5q-4 0 -6 4.5
t-2 10.5q0 12 10 31.5t26 44.5q55 36 129.5 75t154.5 76t159 70.5t143 58.5t106.5 39.5t49.5 14.5q11 0 11 -10zM648 -247q0 -18 -56.5 -83t-71.5 -65q-86 83 -153 130q0 11 58.5 81t71.5 70q19 0 85 -61t66 -72zM335 -266q0 -15 -58 -80.5t-71 -65.5q-74 73 -152 129
q0 12 58 82t71 70q20 0 86 -61t66 -74z" />
    <glyph glyph-name="uni06B2.fina" unicode="&#x6b2;" horiz-adv-x="1857" 
d="M1871 0h-203q-87 0 -138 86q-61 105 -115.5 185t-103.5 137q4 -43 5.5 -74t1.5 -50q0 -86 -20 -147t-58 -94q-17 -15 -54.5 -24.5t-88.5 -15.5t-111.5 -8.5t-124 -3.5t-127 -0.5t-118.5 0.5q-155 0 -260.5 23t-162.5 71q-48 42 -73.5 97.5t-25.5 129.5q0 22 5.5 54.5
t16 70t26.5 78.5t37 79q16 24 24 24q7 0 7 -15q0 -9 -5 -25.5t-11.5 -37t-11.5 -43.5t-5 -45q0 -51 21.5 -91.5t67.5 -71.5q31 -20 72 -34.5t99 -23.5t137.5 -13.5t188.5 -4.5q101 0 191.5 4t158.5 12.5t107.5 21t39.5 29.5q0 26 -12.5 61t-32.5 73.5t-46.5 79t-54.5 80
t-56 74.5t-51 63q-64 79 -64 111q0 100 18.5 159.5t48.5 84.5q26 21 70 43.5t98.5 45.5t115.5 45.5t121 43t114.5 37.5t96.5 30t67 20t26 7q8 0 8 -9q0 -3 -12.5 -26.5t-35.5 -68.5q-25 -48 -37.5 -76.5t-14.5 -31.5q-27 -4 -79 -18.5t-115.5 -34.5t-130 -43.5t-120.5 -44.5
t-89 -38t-35 -24q0 -14 30.5 -52.5t92.5 -107.5q63 -71 119 -133.5t101 -117.5q74 -90 122.5 -146.5t72.5 -80.5q57 -58 129 -58h146v-227zM1796 1584q0 -2 -7.5 -15.5t-18.5 -32t-22.5 -39.5t-20.5 -38q-13 -27 -38 -31q-166 -47 -288.5 -93.5t-205.5 -83.5t-127 -59.5
t-53 -22.5q-4 0 -6 4.5t-2 10.5q0 12 10 31.5t26 44.5q55 36 129.5 75t154.5 76t159 70.5t143 58.5t106.5 39.5t49.5 14.5q11 0 11 -10zM1028 -247q0 -18 -56.5 -83t-71.5 -65q-86 83 -153 130q0 11 58.5 81t71.5 70q19 0 85 -61t66 -72zM715 -266q0 -15 -58 -80.5
t-71 -65.5q-74 73 -152 129q0 12 58 82t71 70q20 0 86 -61t66 -74z" />
    <glyph glyph-name="uni06B4.init" unicode="&#x6b4;" horiz-adv-x="1034" 
d="M915 1284q0 -3 -47 -87t-57 -97q-118 -21 -327.5 -86.5t-209.5 -79.5q0 -19 76 -94q108 -108 195 -271q73 -137 76 -303v-13q0 -158 -46 -204q-49 -49 -319 -49h-256q-70 0 -70 113q0 114 70 114h350q219 0 219 33q0 24 -36 97q-39 79 -82 137q-135 177 -199 221
q-51 12 -72 35q-47 49 -47 116q0 37 29.5 110.5t50.5 90.5q69 54 338 133q321 94 354 94q10 0 10 -10zM999 1525q-7 -12 -18 -28.5t-22.5 -36t-20.5 -36.5q-13 -27 -38 -31q-166 -41 -290 -81t-209 -71.5t-130.5 -51t-54.5 -19.5q-4 0 -6 4.5t-2 10.5q0 12 10 28t26 41
q66 35 145.5 70t160.5 67.5t158 60.5t138.5 48.5t102 32.5t47.5 12q9 0 11 -7q-1 -3 -8 -13zM491 1821q0 -14 -51.5 -72.5t-63.5 -58.5q-66 65 -136 115q0 11 51.5 73.5t62.5 62.5q17 0 77 -54.5t60 -65.5zM388 1562q0 -14 -52 -72.5t-63 -58.5q-67 65 -136 115
q0 10 51.5 73t63.5 63q17 0 76.5 -55t59.5 -65zM666 1587q0 -15 -50.5 -73t-63.5 -58q-76 74 -135 116q0 9 52 71.5t63 62.5q17 0 75.5 -54t58.5 -65z" />
    <glyph glyph-name="uni06B4.medi" unicode="&#x6b4;" horiz-adv-x="1025" 
d="M0 0q-70 0 -70 113q0 114 70 114q89 0 169 1t135.5 5.5t85 14t29.5 26.5q0 46 -23 109.5t-81 145.5q-62 91 -138 182q-64 79 -64 111q0 100 18.5 159.5t48.5 84.5q26 21 70 43.5t98.5 45.5t115.5 45.5t121 43t114.5 37.5t96.5 30t67 20t26 7q8 0 8 -9q0 -3 -12.5 -26.5
t-35.5 -68.5q-25 -48 -37.5 -76.5t-14.5 -31.5q-27 -4 -79 -18.5t-115.5 -34.5t-130 -43.5t-120.5 -44.5t-89 -38t-35 -24q0 -14 30.5 -52.5t92.5 -107.5q63 -71 119 -133.5t101 -117.5q74 -90 122.5 -146.5t72.5 -80.5q57 -58 129 -58h144v-227h-201q-87 0 -138 86
q-61 105 -115.5 185t-103.5 137q2 -34 2.5 -63.5t0.5 -55.5q0 -86 -15 -142t-46 -88.5t-78.5 -45.5t-111.5 -13h-233zM966 1584q0 -2 -7.5 -15.5t-18.5 -32t-22.5 -39.5t-20.5 -38q-13 -27 -38 -31q-166 -47 -288.5 -93.5t-205.5 -83.5t-127 -59.5t-53 -22.5q-4 0 -6 4.5
t-2 10.5q0 12 10 31.5t26 44.5q55 36 129.5 75t154.5 76t159 70.5t143 58.5t106.5 39.5t49.5 14.5q11 0 11 -10zM451 1861q0 -14 -51.5 -72.5t-63.5 -58.5q-66 65 -136 115q0 11 51.5 73.5t62.5 62.5q17 0 77 -54.5t60 -65.5zM348 1602q0 -14 -52 -72.5t-63 -58.5
q-67 65 -136 115q0 10 51.5 73t63.5 63q17 0 76.5 -55t59.5 -65zM626 1627q0 -15 -50.5 -73t-63.5 -58q-76 74 -135 116q0 9 52 71.5t63 62.5q17 0 75.5 -54t58.5 -65z" />
    <glyph glyph-name="uni06B4.fina" unicode="&#x6b4;" horiz-adv-x="1857" 
d="M1871 0h-203q-87 0 -138 86q-61 105 -115.5 185t-103.5 137q4 -43 5.5 -74t1.5 -50q0 -86 -20 -147t-58 -94q-17 -15 -54.5 -24.5t-88.5 -15.5t-111.5 -8.5t-124 -3.5t-127 -0.5t-118.5 0.5q-155 0 -260.5 23t-162.5 71q-48 42 -73.5 97.5t-25.5 129.5q0 22 5.5 54.5
t16 70t26.5 78.5t37 79q16 24 24 24q7 0 7 -15q0 -9 -5 -25.5t-11.5 -37t-11.5 -43.5t-5 -45q0 -51 21.5 -91.5t67.5 -71.5q31 -20 72 -34.5t99 -23.5t137.5 -13.5t188.5 -4.5q101 0 191.5 4t158.5 12.5t107.5 21t39.5 29.5q0 26 -12.5 61t-32.5 73.5t-46.5 79t-54.5 80
t-56 74.5t-51 63q-64 79 -64 111q0 100 18.5 159.5t48.5 84.5q26 21 70 43.5t98.5 45.5t115.5 45.5t121 43t114.5 37.5t96.5 30t67 20t26 7q8 0 8 -9q0 -3 -12.5 -26.5t-35.5 -68.5q-25 -48 -37.5 -76.5t-14.5 -31.5q-27 -4 -79 -18.5t-115.5 -34.5t-130 -43.5t-120.5 -44.5
t-89 -38t-35 -24q0 -14 30.5 -52.5t92.5 -107.5q63 -71 119 -133.5t101 -117.5q74 -90 122.5 -146.5t72.5 -80.5q57 -58 129 -58h146v-227zM1796 1584q0 -2 -7.5 -15.5t-18.5 -32t-22.5 -39.5t-20.5 -38q-13 -27 -38 -31q-166 -47 -288.5 -93.5t-205.5 -83.5t-127 -59.5
t-53 -22.5q-4 0 -6 4.5t-2 10.5q0 12 10 31.5t26 44.5q55 36 129.5 75t154.5 76t159 70.5t143 58.5t106.5 39.5t49.5 14.5q11 0 11 -10zM1257 1850q0 -14 -51.5 -72.5t-63.5 -58.5q-66 65 -136 115q0 11 51.5 73.5t62.5 62.5q17 0 77 -54.5t60 -65.5zM1154 1591
q0 -14 -52 -72.5t-63 -58.5q-67 65 -136 115q0 10 51.5 73t63.5 63q17 0 76.5 -55t59.5 -65zM1432 1616q0 -15 -50.5 -73t-63.5 -58q-76 74 -135 116q0 9 52 71.5t63 62.5q17 0 75.5 -54t58.5 -65z" />
    <glyph glyph-name="uni06B5.init" unicode="&#x6b5;" horiz-adv-x="614" 
d="M495 1104q0 -54 -72 -148q68 -432 68 -538q0 -100 -30 -222q-25 -104 -46 -139q-36 -57 -143 -57h-272q-70 0 -70 113q0 114 70 114h366q35 0 35 52q0 5 -43 389q-1 7 -33 250q-25 188 -25 225q0 57 51 151q11 29 21 29q8 0 8 -39q0 -81 62 -123q53 -36 53 -57zM537 1703
h56l-205 -273h-102l-204 273h56l199 -168z" />
    <glyph glyph-name="uni06B5.medi" unicode="&#x6b5;" horiz-adv-x="631" 
d="M645 0h-152q-89 0 -119 72q-18 35 -28 116q-7 -18 -33 -79q-47 -109 -147 -109h-166q-70 0 -70 113q0 114 70 114h229q63 0 98 29q0 207 -18 469q-1 17 -43 385q10 26 55 116q48 97 53 97q19 0 39 -555q5 -157 15 -375q14 -166 123 -166h94v-227zM545 1703h56l-205 -273
h-102l-204 273h56l199 -168z" />
    <glyph glyph-name="uni06B5.fina" unicode="&#x6b5;" horiz-adv-x="1100" 
d="M1114 0h-90q-58 0 -94 43q-26 31 -53 127q6 -51 6 -137q0 -58 -24 -174q-27 -132 -58 -176q-45 -64 -165 -106q-110 -38 -218 -38q-148 0 -232 85q-82 82 -82 218q0 121 54 256q47 115 65 115q15 0 15 -18q-1 0 -19 -67q-20 -72 -20 -132q0 -90 51 -147q64 -72 196 -72
q142 0 258 45q111 44 111 92q0 116 -57 612q-62 532 -62 559q0 25 35.5 97.5t46.5 72.5q16 0 23 -174q8 -223 33 -413q30 -240 71 -336q45 -105 144 -105h65v-227zM937 1703h56l-205 -273h-102l-204 273h56l199 -168z" />
    <glyph glyph-name="uni06B6.init" unicode="&#x6b6;" horiz-adv-x="494" 
d="M375 1104q0 -54 -72 -148q68 -432 68 -538q0 -100 -30 -222q-25 -104 -46 -139q-36 -57 -143 -57h-152q-70 0 -70 113q0 114 70 114h246q35 0 35 52q0 5 -43 389q-1 7 -33 250q-25 188 -25 225q0 57 51 151q11 29 21 29q8 0 8 -39q0 -81 62 -123q53 -36 53 -57zM352 1558
q0 -14 -51.5 -72.5t-63.5 -58.5q-66 65 -136 115q0 11 51.5 73.5t62.5 62.5q17 0 77 -54.5t60 -65.5z" />
    <glyph glyph-name="uni06B6.medi" unicode="&#x6b6;" horiz-adv-x="531" 
d="M545 0h-152q-89 0 -119 72q-18 35 -28 116q-7 -18 -33 -79q-47 -109 -147 -109h-66q-70 0 -70 113q0 114 70 114h129q63 0 98 29q0 207 -18 469q-1 17 -43 385q10 26 55 116q48 97 53 97q19 0 39 -555q5 -157 15 -375q14 -166 123 -166h94v-227zM359 1555
q0 -14 -51.5 -72.5t-63.5 -58.5q-66 65 -136 115q0 11 51.5 73.5t62.5 62.5q17 0 77 -54.5t60 -65.5z" />
    <glyph glyph-name="uni06B6.fina" unicode="&#x6b6;" horiz-adv-x="1100" 
d="M1114 0h-90q-58 0 -94 43q-26 31 -53 127q6 -51 6 -137q0 -58 -24 -174q-27 -132 -58 -176q-45 -64 -165 -106q-110 -38 -218 -38q-148 0 -232 85q-82 82 -82 218q0 121 54 256q47 115 65 115q15 0 15 -18q-1 0 -19 -67q-20 -72 -20 -132q0 -90 51 -147q64 -72 196 -72
q142 0 258 45q111 44 111 92q0 116 -57 612q-62 532 -62 559q0 25 35.5 97.5t46.5 72.5q16 0 23 -174q8 -223 33 -413q30 -240 71 -336q45 -105 144 -105h65v-227zM861 1512q0 -14 -51.5 -72.5t-63.5 -58.5q-66 65 -136 115q0 11 51.5 73.5t62.5 62.5q17 0 77 -54.5
t60 -65.5z" />
    <glyph glyph-name="uni06B7.init" unicode="&#x6b7;" horiz-adv-x="614" 
d="M495 1104q0 -54 -72 -148q68 -432 68 -538q0 -100 -30 -222q-25 -104 -46 -139q-36 -57 -143 -57h-272q-70 0 -70 113q0 114 70 114h366q35 0 35 52q0 5 -43 389q-1 7 -33 250q-25 188 -25 225q0 57 51 151q11 29 21 29q8 0 8 -39q0 -81 62 -123q53 -36 53 -57zM398 1767
q0 -14 -51.5 -72.5t-63.5 -58.5q-66 65 -136 115q0 11 51.5 73.5t62.5 62.5q17 0 77 -54.5t60 -65.5zM295 1508q0 -14 -52 -72.5t-63 -58.5q-67 65 -136 115q0 10 51.5 73t63.5 63q17 0 76.5 -55t59.5 -65zM573 1533q0 -15 -50.5 -73t-63.5 -58q-76 74 -135 116q0 9 52 71.5
t63 62.5q17 0 75.5 -54t58.5 -65z" />
    <glyph glyph-name="uni06B7.medi" unicode="&#x6b7;" horiz-adv-x="631" 
d="M645 0h-152q-89 0 -119 72q-18 35 -28 116q-7 -18 -33 -79q-47 -109 -147 -109h-166q-70 0 -70 113q0 114 70 114h229q63 0 98 29q0 207 -18 469q-1 17 -43 385q10 26 55 116q48 97 53 97q19 0 39 -555q5 -157 15 -375q14 -166 123 -166h94v-227zM419 1783
q0 -14 -51.5 -72.5t-63.5 -58.5q-66 65 -136 115q0 11 51.5 73.5t62.5 62.5q17 0 77 -54.5t60 -65.5zM316 1524q0 -14 -52 -72.5t-63 -58.5q-67 65 -136 115q0 10 51.5 73t63.5 63q17 0 76.5 -55t59.5 -65zM594 1549q0 -15 -50.5 -73t-63.5 -58q-76 74 -135 116q0 9 52 71.5
t63 62.5q17 0 75.5 -54t58.5 -65z" />
    <glyph glyph-name="uni06B7.fina" unicode="&#x6b7;" horiz-adv-x="1100" 
d="M1114 0h-90q-58 0 -94 43q-26 31 -53 127q6 -51 6 -137q0 -58 -24 -174q-27 -132 -58 -176q-45 -64 -165 -106q-110 -38 -218 -38q-148 0 -232 85q-82 82 -82 218q0 121 54 256q47 115 65 115q15 0 15 -18q-1 0 -19 -67q-20 -72 -20 -132q0 -90 51 -147q64 -72 196 -72
q142 0 258 45q111 44 111 92q0 116 -57 612q-62 532 -62 559q0 25 35.5 97.5t46.5 72.5q16 0 23 -174q8 -223 33 -413q30 -240 71 -336q45 -105 144 -105h65v-227zM759 1774q0 -14 -51.5 -72.5t-63.5 -58.5q-66 65 -136 115q0 11 51.5 73.5t62.5 62.5q17 0 77 -54.5
t60 -65.5zM656 1515q0 -14 -52 -72.5t-63 -58.5q-67 65 -136 115q0 10 51.5 73t63.5 63q17 0 76.5 -55t59.5 -65zM934 1540q0 -15 -50.5 -73t-63.5 -58q-76 74 -135 116q0 9 52 71.5t63 62.5q17 0 75.5 -54t58.5 -65z" />
    <glyph glyph-name="uni06B8.init" unicode="&#x6b8;" horiz-adv-x="684" 
d="M565 1104q0 -54 -72 -148q68 -432 68 -538q0 -100 -30 -222q-25 -104 -46 -139q-36 -57 -143 -57h-342q-70 0 -70 113q0 114 70 114h436q35 0 35 52q0 5 -43 389q-1 7 -33 250q-25 188 -25 225q0 57 51 151q11 29 21 29q8 0 8 -39q0 -81 62 -123q53 -36 53 -57zM446 -465
q0 -15 -48.5 -69t-58.5 -54q-62 61 -127 108q0 10 48.5 68.5t58.5 58.5q16 0 71.5 -51t55.5 -61zM556 -222q0 -15 -47 -69t-60 -54q-71 69 -127 108q0 9 48.5 67.5t59.5 58.5q16 0 71 -51t55 -60zM295 -238q0 -12 -48 -66.5t-59 -54.5q-62 61 -127 107q0 10 48.5 68.5
t59.5 58.5q16 0 71 -51t55 -62z" />
    <glyph glyph-name="uni06B8.medi" unicode="&#x6b8;" horiz-adv-x="711" 
d="M725 0h-152q-89 0 -119 72q-18 35 -28 116q-7 -18 -33 -79q-47 -109 -147 -109h-246q-70 0 -70 113q0 114 70 114h309q63 0 98 29q0 207 -18 469q-1 17 -43 385q10 26 55 116q48 97 53 97q19 0 39 -555q5 -157 15 -375q14 -166 123 -166h94v-227zM426 -465
q0 -15 -48.5 -69t-58.5 -54q-62 61 -127 108q0 10 48.5 68.5t58.5 58.5q16 0 71.5 -51t55.5 -61zM536 -222q0 -15 -47 -69t-60 -54q-71 69 -127 108q0 9 48.5 67.5t59.5 58.5q16 0 71 -51t55 -60zM275 -238q0 -12 -48 -66.5t-59 -54.5q-62 61 -127 107q0 10 48.5 68.5
t59.5 58.5q16 0 71 -51t55 -62z" />
    <glyph glyph-name="uni06B8.fina" unicode="&#x6b8;" horiz-adv-x="1100" 
d="M1114 0h-90q-58 0 -94 43q-26 31 -53 127q6 -51 6 -137q0 -58 -24 -174q-27 -132 -58 -176q-45 -64 -165 -106q-110 -38 -218 -38q-148 0 -232 85q-82 82 -82 218q0 121 54 256q47 115 65 115q15 0 15 -18q-1 0 -19 -67q-20 -72 -20 -132q0 -90 51 -147q64 -72 196 -72
q142 0 258 45q111 44 111 92q0 116 -57 612q-62 532 -62 559q0 25 35.5 97.5t46.5 72.5q16 0 23 -174q8 -223 33 -413q30 -240 71 -336q45 -105 144 -105h65v-227zM618 -905q0 -15 -48.5 -69t-58.5 -54q-62 61 -127 108q0 10 48.5 68.5t58.5 58.5q16 0 71.5 -51t55.5 -61z
M728 -662q0 -15 -47 -69t-60 -54q-71 69 -127 108q0 9 48.5 67.5t59.5 58.5q16 0 71 -51t55 -60zM467 -678q0 -12 -48 -66.5t-59 -54.5q-62 61 -127 107q0 10 48.5 68.5t59.5 58.5q16 0 71 -51t55 -62z" />
    <glyph glyph-name="uni06B9.init" unicode="&#x6b9;" horiz-adv-x="569" 
d="M426 952q0 -16 -61.5 -88.5t-75.5 -72.5q-68 70 -166 143q0 13 63 89.5t80 76.5q20 0 90 -67.5t70 -80.5zM461 328q0 -81 -20 -173q-19 -85 -38 -112q-19 -17 -90 -31q-63 -12 -104 -12h-209q-70 0 -70 113q0 114 70 114h328q43 0 43 19q0 44 -58 133q-12 19 -82 108
q0 25 24 114q26 95 40 95q24 0 91 -126q75 -140 75 -242zM426 -260q0 -18 -61.5 -90t-75.5 -72q-80 80 -166 141q0 13 63 89.5t80 76.5q20 0 90 -66.5t70 -78.5z" />
    <glyph glyph-name="uni06B9.medi" unicode="&#x6b9;" horiz-adv-x="645" 
d="M439 862q0 -17 -61.5 -89.5t-75.5 -72.5q-70 71 -166 144q0 12 63 89t78 77q20 0 91 -67.5t71 -80.5zM659 0h-157q-157 0 -189 137q-78 -137 -198 -137h-115q-70 0 -70 113q0 114 70 114h246q55 0 67 43q46 156 66 156q6 0 6 -29q0 -73 18 -104q39 -66 99 -66h157v-227z
M439 -260q0 -18 -61.5 -90t-75.5 -72q-80 80 -166 141q0 13 63 89.5t80 76.5q20 0 90 -66.5t70 -78.5z" />
    <glyph glyph-name="uni06B9.fina" unicode="&#x6b9;" horiz-adv-x="1139" 
d="M1153 0h-49q-58 0 -105 51q-33 45 -41 63q15 -55 15 -100q0 -60 -29 -170q-32 -124 -72 -176q-53 -70 -203 -116q-134 -41 -257 -41q-148 0 -228 86.5t-80 240.5q0 136 63 275q52 114 71 114q8 0 8 -14q0 -4 -31 -91t-31 -140q0 -100 67 -166q76 -76 218 -76
q168 0 308 56q132 53 132 110q0 64 -27 171q-32 127 -81 208q-19 30 -19 47q0 25 24 117q24 96 34 96q7 0 42 -64q38 -68 62 -131q20 -52 79 -90q52 -33 95 -33h35v-227zM668 782q0 -18 -61 -89.5t-77 -71.5q-67 70 -165 143q0 13 63 89.5t80 76.5q20 0 90 -67.5t70 -80.5z
M668 -782q0 -18 -61 -89.5t-77 -71.5q-67 70 -165 143q0 13 63 89.5t80 76.5q20 0 90 -67.5t70 -80.5z" />
    <glyph glyph-name="uni06BC.init" unicode="&#x6bc;" horiz-adv-x="645" 
d="M478 943q0 -18 -59.5 -85t-73.5 -67q-66 66 -156 133q0 11 59.5 83.5t73.5 72.5q20 0 88 -62.5t68 -74.5zM326 -110q0 28 -58 62q-85 49 -105 49q-7 0 -17 -35q-9 -33 -9 -47q0 -67 75 -67q37 0 76 14q38 13 38 24zM127 0h-127q-70 0 -70 113q0 114 70 114h403
q43 0 43 19q0 44 -57 133q-12 19 -82 108q0 25 24 114q26 95 40 95q24 0 91 -126q75 -140 75 -242q0 -81 -21 -173q-18 -85 -37 -112q-18 -16 -84 -30q7 -16 7 -32q0 -33 -29 -109q-28 -73 -45 -95q-50 -64 -144 -64q-44 0 -71 30q-25 27 -25 63q0 50 25 148q5 20 14 46z
" />
    <glyph glyph-name="uni06BC.medi" unicode="&#x6bc;" horiz-adv-x="835" 
d="M537 744q0 -18 -59.5 -86t-73.5 -68q-67 70 -158 133q0 12 60 85t73 73q20 0 89 -62.5t69 -74.5zM306 -110q0 28 -58 62q-85 49 -105 49q-7 0 -17 -35q-9 -33 -9 -47q0 -67 75 -67q37 0 76 14q38 13 38 24zM107 0h-107q-70 0 -70 113q0 114 70 114h399q52 0 65 47
q42 152 68 152q4 0 4 -23q0 -73 19 -104q43 -72 100 -72h194v-227h-194q-155 0 -191 137q-42 -75 -98 -109q16 -23 16 -47q0 -33 -29 -109q-28 -73 -45 -95q-50 -64 -144 -64q-44 0 -71 30q-25 27 -25 63q0 50 25 148q5 20 14 46z" />
    <glyph glyph-name="uni06BC.fina" unicode="&#x6bc;" horiz-adv-x="1139" 
d="M668 782q0 -18 -61 -89.5t-77 -71.5q-67 70 -165 143q0 13 63 89.5t80 76.5q20 0 90 -67.5t70 -80.5zM596 -592q0 28 -58 62q-85 49 -105 49q-7 0 -17 -35q-9 -33 -9 -47q0 -67 75 -67q37 0 76 14q38 13 38 24zM395 -489q-136 5 -211 87q-80 86 -80 240q0 136 63 275
q52 114 71 114q8 0 8 -14q0 -4 -31 -91t-31 -140q0 -100 67 -166q76 -76 218 -76q168 0 308 56q132 53 132 110q0 64 -27 171q-32 127 -81 208q-19 30 -19 47q0 25 24 117q24 96 34 96q7 0 42 -64q38 -68 62 -131q20 -52 79 -90q52 -33 95 -33h35v-227h-49q-58 0 -105 51
q-33 45 -41 63q15 -55 15 -100q0 -60 -29 -170q-32 -124 -72 -176q-53 -70 -203 -116l-14 -4q17 -24 17 -49q0 -33 -29 -109q-28 -73 -45 -95q-50 -64 -144 -64q-44 0 -71 30q-25 27 -25 63q0 50 25 148q5 18 12 39z" />
    <glyph glyph-name="uni06BD.init" unicode="&#x6bd;" horiz-adv-x="645" 
d="M537 328q0 -81 -21 -173q-18 -85 -37 -112q-19 -17 -90 -31q-63 -12 -104 -12h-285q-70 0 -70 113q0 114 70 114h403q43 0 43 19q0 44 -57 133q-12 19 -82 108q0 25 24 114q26 95 40 95q24 0 91 -126q75 -140 75 -242zM416 1198q0 -16 -59.5 -83.5t-73.5 -67.5
q-76 75 -156 133q0 12 59 84t72 72q20 0 89 -62.5t69 -75.5zM608 928q0 -17 -58.5 -84.5t-72.5 -67.5q-88 86 -157 134q0 11 60 83t73 72q20 0 87.5 -62.5t67.5 -74.5zM297 909q0 -16 -59.5 -83.5t-73.5 -67.5q-76 75 -156 133q0 12 59.5 84t73.5 72q19 0 87.5 -63t68.5 -75
z" />
    <glyph glyph-name="uni06BD.medi" unicode="&#x6bd;" horiz-adv-x="815" 
d="M432 1034q0 -18 -59.5 -85.5t-73.5 -67.5q-66 68 -156 133q0 12 59.5 84.5t73.5 72.5q20 0 88 -63t68 -74zM637 764q0 -18 -59.5 -86t-73.5 -68q-67 70 -158 133q0 12 60 85t73 73q20 0 89 -62.5t69 -74.5zM313 735q0 -18 -59 -84.5t-74 -66.5q-68 68 -156 131
q0 12 60 84.5t73 72.5q20 0 88 -62.5t68 -74.5zM829 0h-194q-155 0 -191 137q-77 -137 -198 -137h-246q-70 0 -70 113q0 114 70 114h379q52 0 65 47q42 152 68 152q4 0 4 -23q0 -73 19 -104q43 -72 100 -72h194v-227z" />
    <glyph glyph-name="uni06BD.fina" unicode="&#x6bd;" horiz-adv-x="1139" 
d="M1153 0h-49q-58 0 -105 51q-33 45 -41 63q15 -55 15 -100q0 -60 -29 -170q-32 -124 -72 -176q-53 -70 -203 -116q-134 -41 -257 -41q-148 0 -228 86.5t-80 240.5q0 136 63 275q52 114 71 114q8 0 8 -14q0 -4 -31 -91t-31 -140q0 -100 67 -166q76 -76 218 -76
q168 0 308 56q132 53 132 110q0 64 -27 171q-32 127 -81 208q-19 30 -19 47q0 25 24 117q24 96 34 96q7 0 42 -64q38 -68 62 -131q20 -52 79 -90q52 -33 95 -33h35v-227zM628 1021q0 -16 -59.5 -83.5t-73.5 -67.5q-76 75 -156 133q0 12 59 84t72 72q20 0 89 -62.5t69 -75.5z
M820 751q0 -17 -58.5 -84.5t-72.5 -67.5q-88 86 -157 134q0 11 60 83t73 72q20 0 87.5 -62.5t67.5 -74.5zM509 732q0 -16 -59.5 -83.5t-73.5 -67.5q-76 75 -156 133q0 12 59.5 84t73.5 72q19 0 87.5 -63t68.5 -75z" />
    <glyph glyph-name="uni06BF.init" unicode="&#x6bf;" horiz-adv-x="1218" 
d="M1128 274q0 -14 -62 -106q-60 -89 -74 -92q2 1 -80 21q-89 22 -183 22q-69 0 -234.5 -59.5t-285.5 -59.5h-209q-70 0 -70 113q0 114 70 114h371q36 0 101 9q72 10 87 20q-104 69 -151 94q-102 53 -162 53q-29 0 -74.5 -21.5t-52.5 -21.5q-15 0 -15 19q0 21 41 68
q46 52 101 83q68 39 139 39q58 0 119 -28t188 -115q207 -141 393 -141q43 0 43 -11zM682 -496q0 -18 -58 -82.5t-71 -64.5q-74 73 -152 129q0 12 58 82t71 70q19 0 85.5 -61t66.5 -73zM814 -204q0 -18 -56.5 -83t-71.5 -65q-86 83 -153 130q0 11 58.5 81t71.5 70
q19 0 85 -61t66 -72zM501 -223q0 -15 -58 -80.5t-71 -65.5q-74 73 -152 129q0 12 58 82t71 70q20 0 86 -61t66 -74zM698 985q0 -17 -62 -88.5t-76 -71.5q-80 80 -166 142q0 12 63 89t79 77q20 0 91 -68t71 -80z" />
    <glyph glyph-name="uni06BF.medi" unicode="&#x6bf;" horiz-adv-x="1139" 
d="M1153 0h-395q-164 0 -170 156q-69 -61 -194 -107q-135 -49 -257 -49h-137q-70 0 -70 113q0 114 70 114h256q89 0 224 47t161 86q-64 22 -158 58q-133 51 -194 51q-49 0 -95.5 -25.5t-56.5 -25.5q-12 0 -12 14q0 25 37 76q67 93 117 126.5t118 33.5q70 0 272.5 -73
t340.5 -73h86q16 0 16 -20q0 -18 -16 -51q-24 -49 -68 -134q-49 9 -80 9q-50 0 -86 -13q-104 -35 -170 -86h461v-227zM803 -524q0 -18 -58 -82.5t-71 -64.5q-74 73 -152 129q0 12 58 82t71 70q19 0 85.5 -61t66.5 -73zM935 -232q0 -18 -56.5 -83t-71.5 -65q-86 83 -153 130
q0 11 58.5 81t71.5 70q19 0 85 -61t66 -72zM622 -251q0 -15 -58 -80.5t-71 -65.5q-74 73 -152 129q0 12 58 82t71 70q20 0 86 -61t66 -74zM698 985q0 -17 -62 -88.5t-76 -71.5q-80 80 -166 142q0 12 63 89t79 77q20 0 91 -68t71 -80z" />
    <glyph glyph-name="uni06BF.fina" unicode="&#x6bf;" horiz-adv-x="1411" 
d="M647 -153q0 -2 -8.5 -11t-21.5 -22t-28.5 -28t-29.5 -27.5t-25.5 -20.5t-15.5 -8q-11 10 -32 27.5t-42 35.5t-36.5 32t-15.5 16t8.5 12.5t21.5 24.5t28.5 29.5t29.5 29t25 22t14 8.5q1 0 11 -8t24 -20t30.5 -26.5t30.5 -28t23 -23.5t9 -14zM927 -153q0 -2 -8.5 -11
t-21.5 -22t-28.5 -28t-29.5 -27.5t-25.5 -20.5t-15.5 -8q-11 10 -32 27.5t-42 35.5t-36.5 32t-15.5 16t8.5 12.5t21.5 24.5t28.5 29.5t29.5 29t25 22t14 8.5q1 0 11 -8t24 -20t30.5 -26.5t30.5 -28t23 -23.5t9 -14zM787 -403q0 -2 -8.5 -11t-21.5 -22t-28.5 -28t-29.5 -27.5
t-25.5 -20.5t-15.5 -8q-11 10 -32 27.5t-42 35.5t-36.5 32t-15.5 16t8.5 12.5t21.5 24.5t28.5 29.5t29.5 29t25 22t14 8.5q1 0 11 -8t24 -20t30.5 -26.5t30.5 -28t23 -23.5t9 -14zM1367 -582q13 2 14 2q10 0 10 -4q0 -14 -130 -110q-129 -96 -177 -117q-77 -33 -220 -33
q-345 0 -507 123q-181 136 -181 479q0 420 314 707q-22 2 -58.5 3t-89.5 1q-75 0 -135 -27q-38 -17 -78 -50q-32 -27 -37 -27q-14 0 -14 24q2 14 9 35t20 49q32 67 65 100q95 95 260 95q63 0 185 -12q61 -5 118 -8t111 -3q36 0 66 1t49.5 2.5t28.5 2.5q5 1 5 2q7 -1 7 -8
q0 -13 -43 -100q-11 -23 -23.5 -49.5t-28.5 -55.5q-44 -6 -79 -11.5t-58 -13.5q0 -96 40 -142t107 -46h508v-227h-479q-107 0 -170 59.5t-63 178.5q0 29 5.5 75.5t14.5 95.5q-91 -11 -184 -60.5t-178 -153.5q-137 -175 -137 -353q0 -228 194 -354q161 -104 461 -104
q141 0 321 18q122 12 157 16zM698 985q0 -17 -62 -88.5t-76 -71.5q-80 80 -166 142q0 12 63 89t79 77q20 0 91 -68t71 -80z" />
    <glyph glyph-name="uni06C2.fina" unicode="&#x6c2;" horiz-adv-x="1001" 
d="M1015 0h-19q-74 0 -124 12t-85.5 36.5t-63 61t-56.5 85.5q-11 19 -21.5 35.5t-24.5 29t-33.5 19.5t-49.5 7q-32 0 -75 -16t-91.5 -42t-99 -58t-96.5 -63q-36 -24 -55.5 -37.5t-24.5 -13.5q-8 0 -8 10q0 3 3.5 10.5t6.5 12.5q13 18 25 41.5t23.5 48.5t22 50.5t20.5 46.5
q7 16 18.5 28.5t33.5 27.5q43 29 91 60.5t93 57.5t84.5 42.5t65.5 16.5q20 0 36 -7.5t29.5 -21t26 -32.5t24.5 -41q32 -51 66 -84.5t70 -54.5q35 -20 80.5 -30.5t93.5 -10.5h14v-227zM662 837q0 -23 -57 -68q-73 0 -162 -32q-94 -48 -104 -48q-4 0 -4 5q0 15 75 75
q-20 5 -65 39q-43 26 -43 51q0 42 66.5 90t117.5 48q62 0 62 -33q0 -13 -33 -43q-21 -27 -29 -27q-9 0 -14 19q-9 18 -37 18q-49 0 -49 -18q0 -22 51.5 -49t99.5 -27h29q20 0 50.5 2t35.5 2q10 0 10 -4z" />
    <glyph glyph-name="uni06C3.fina" unicode="&#x6c3;" horiz-adv-x="1001" 
d="M1015 0h-19q-74 0 -124 12t-85.5 36.5t-63 61t-56.5 85.5q-11 19 -21.5 35.5t-24.5 29t-33.5 19.5t-49.5 7q-32 0 -75 -16t-91.5 -42t-99 -58t-96.5 -63q-36 -24 -55.5 -37.5t-24.5 -13.5q-8 0 -8 10q0 3 3.5 10.5t6.5 12.5q13 18 25 41.5t23.5 48.5t22 50.5t20.5 46.5
q7 16 18.5 28.5t33.5 27.5q43 29 91 60.5t93 57.5t84.5 42.5t65.5 16.5q20 0 36 -7.5t29.5 -21t26 -32.5t24.5 -41q32 -51 66 -84.5t70 -54.5q35 -20 80.5 -30.5t93.5 -10.5h14v-227zM816 872q0 -16 -61.5 -88.5t-75.5 -72.5q-68 70 -166 143q0 13 63.5 89.5t79.5 76.5
q19 0 89.5 -68t70.5 -80zM484 864q0 -18 -61.5 -90t-75.5 -72q-80 80 -166 142q0 12 63.5 89t80.5 77q18 0 90 -69q69 -66 69 -77z" />
    <glyph glyph-name="uni06C4.fina" unicode="&#x6c4;" horiz-adv-x="796" 
d="M540 223q-64 105 -129 105q-58 0 -58 -62q0 -43 39 -43h148zM355 -148q-25 0 -43 -17.5t-18 -42.5q0 -26 18 -43.5t43 -17.5t43 17.5t18 43.5q0 25 -18 42.5t-43 17.5zM477 -172q21 25 45 55q63 81 79 117h-256q-82 0 -82 123q0 91 62 242q60 147 147 147
q61 0 131.5 -95.5t81.5 -189.5h125v-227h-143q-25 -118 -86 -246q-112 -233 -246 -233q-83 0 -203 47q-129 50 -129 76q0 10 10 10q3 0 39.5 -7t65.5 -7q65 0 162 42q3 1 6 3q-11 7 -21 17q-37 37 -37 90q0 52 37 89t90 37t90 -37q24 -24 32 -53z" />
    <glyph glyph-name="uni06CA.fina" unicode="&#x6ca;" horiz-adv-x="796" 
d="M810 0h-143q-25 -118 -86 -246q-112 -233 -246 -233q-83 0 -203 47q-129 50 -129 76q0 10 10 10q3 0 39.5 -7t65.5 -7q65 0 162 42q87 37 131 76q47 43 110.5 124.5t79.5 117.5h-256q-82 0 -82 123q0 91 62 242q60 147 147 147q61 0 131.5 -95.5t81.5 -189.5h125v-227z
M540 223q-64 105 -129 105q-58 0 -58 -62q0 -43 39 -43h148zM718 768q0 -17 -58.5 -84.5t-72.5 -67.5q-88 86 -157 134q0 11 60 83t73 72q20 0 87.5 -62.5t67.5 -74.5zM407 749q0 -16 -59.5 -83.5t-73.5 -67.5q-76 75 -156 133q0 12 59.5 84t73.5 72q19 0 87.5 -63t68.5 -75
z" />
    <glyph glyph-name="uni06CD.fina" unicode="&#x6cd;" horiz-adv-x="1510" 
d="M475 270q14 0 14 -18q-3 1 -36 -94q-35 -102 -35 -191q0 -280 256 -280q140 0 288 43q159 46 234 118q-20 30 -99 78q-86 52 -167 78l104 223h490v-227h-271q109 -64 109 -109q0 -40 -48 -112q-61 -92 -161 -158q-254 -166 -494 -166q-174 0 -260 109q-76 95 -76 256
q0 75 18 152q-33 -20 -65 -20q-39 0 -131 34q-87 32 -87 39q0 5 6 5h1q3 -1 24 -3q26 -2 61 -2q78 0 191 91q48 39 88 96q7 9 12 18q4 7 8 13q1 1 1 2l2 3q15 22 23 22z" />
    <glyph glyph-name="uni06CE.init" unicode="&#x6ce;" horiz-adv-x="705" 
d="M597 328q0 -81 -21 -173q-18 -85 -37 -112q-19 -17 -90 -31q-63 -12 -104 -12h-345q-70 0 -70 113q0 114 70 114h463q43 0 43 19q0 44 -57 133q-12 19 -82 108q0 25 24 114q26 95 40 95q24 0 91 -126q75 -140 75 -242zM618 -260q0 -18 -59.5 -86t-73.5 -68
q-67 70 -158 133q0 12 60 85t73 73q20 0 89 -62.5t69 -74.5zM294 -270q0 -18 -57.5 -85t-69.5 -67q-45 43 -161 133q0 13 60.5 84.5t76.5 71.5q20 0 85.5 -62.5t65.5 -74.5zM565 1105h56l-205 -273h-102l-204 273h56l199 -168z" />
    <glyph glyph-name="uni06CE.medi" unicode="&#x6ce;" horiz-adv-x="895" 
d="M909 0h-194q-155 0 -191 137q-77 -137 -198 -137h-326q-70 0 -70 113q0 114 70 114h459q54 0 65 43q44 156 68 156q4 0 4 -29q0 -73 19 -104q38 -66 100 -66h194v-227zM646 -242q0 -18 -58.5 -84.5t-74.5 -66.5q-73 73 -156 133q0 12 60.5 84t73.5 72q19 0 87 -62.5
t68 -75.5zM329 -270q0 -18 -58 -85t-69 -67q-45 43 -162 133q0 13 61 84.5t76 71.5q20 0 86 -62.5t66 -74.5zM583 874h56l-205 -273h-102l-204 273h56l199 -168z" />
    <glyph glyph-name="uni06CE.fina" unicode="&#x6ce;" horiz-adv-x="1291" 
d="M1305 0h-271q109 -64 109 -109q0 -40 -48 -112q-61 -92 -161 -158q-254 -166 -494 -166q-174 0 -260 109q-76 95 -76 256q0 144 66 299q64 151 86 151q14 0 14 -18q-3 1 -36 -94q-35 -102 -35 -191q0 -280 256 -280q140 0 288 43q159 46 234 118q-20 30 -99 78
q-86 52 -167 78l104 223h490v-227zM657 724h56l-205 -273h-102l-204 273h56l199 -168z" />
    <glyph glyph-name="uni06CF.fina" unicode="&#x6cf;" horiz-adv-x="796" 
d="M810 0h-143q-25 -118 -86 -246q-112 -233 -246 -233q-83 0 -203 47q-129 50 -129 76q0 10 10 10q3 0 39.5 -7t65.5 -7q65 0 162 42q87 37 131 76q47 43 110.5 124.5t79.5 117.5h-256q-82 0 -82 123q0 91 62 242q60 147 147 147q61 0 131.5 -95.5t81.5 -189.5h125v-227z
M540 223q-64 105 -129 105q-58 0 -58 -62q0 -43 39 -43h148zM598 768q0 -17 -58.5 -84.5t-72.5 -67.5q-88 86 -157 134q0 11 60 83t73 72q20 0 87.5 -62.5t67.5 -74.5z" />
    <glyph glyph-name="uni06D1.init" unicode="&#x6d1;" horiz-adv-x="715" 
d="M607 328q0 -81 -21 -173q-18 -85 -37 -112q-19 -17 -90 -31q-63 -12 -104 -12h-355q-70 0 -70 113q0 114 70 114h473q43 0 43 19q0 44 -57 133q-12 19 -82 108q0 25 24 114q26 95 40 95q24 0 91 -126q75 -140 75 -242zM486 -539q0 -18 -58 -82.5t-71 -64.5
q-74 73 -152 129q0 12 58 82t71 70q19 0 85.5 -61t66.5 -73zM618 -247q0 -18 -56.5 -83t-71.5 -65q-86 83 -153 130q0 11 58.5 81t71.5 70q19 0 85 -61t66 -72zM305 -266q0 -15 -58 -80.5t-71 -65.5q-74 73 -152 129q0 12 58 82t71 70q20 0 86 -61t66 -74z" />
    <glyph glyph-name="uni06D1.medi" unicode="&#x6d1;" horiz-adv-x="815" 
d="M829 0h-194q-155 0 -191 137q-77 -137 -198 -137h-246q-70 0 -70 113q0 114 70 114h379q54 0 65 43q44 156 68 156q4 0 4 -29q0 -73 19 -104q38 -66 100 -66h194v-227zM496 -539q0 -18 -58 -82.5t-71 -64.5q-74 73 -152 129q0 12 58 82t71 70q19 0 85.5 -61t66.5 -73z
M628 -247q0 -18 -56.5 -83t-71.5 -65q-86 83 -153 130q0 11 58.5 81t71.5 70q19 0 85 -61t66 -72zM315 -266q0 -15 -58 -80.5t-71 -65.5q-74 73 -152 129q0 12 58 82t71 70q20 0 86 -61t66 -74z" />
    <glyph glyph-name="uni06D1.fina" unicode="&#x6d1;" horiz-adv-x="1291" 
d="M1305 0h-271q109 -64 109 -109q0 -40 -48 -112q-61 -92 -161 -158q-254 -166 -494 -166q-174 0 -260 109q-76 95 -76 256q0 144 66 299q64 151 86 151q14 0 14 -18q-3 1 -36 -94q-35 -102 -35 -191q0 -280 256 -280q140 0 288 43q159 46 234 118q-20 30 -99 78
q-86 52 -167 78l104 223h490v-227zM751 -1059q0 -18 -58 -82.5t-71 -64.5q-74 73 -152 129q0 12 58 82t71 70q19 0 85.5 -61t66.5 -73zM883 -767q0 -18 -56.5 -83t-71.5 -65q-86 83 -153 130q0 11 58.5 81t71.5 70q19 0 85 -61t66 -72zM570 -786q0 -15 -58 -80.5t-71 -65.5
q-74 73 -152 129q0 12 58 82t71 70q20 0 86 -61t66 -74z" />
    <glyph glyph-name="uni06D5.fina" unicode="&#x6d5;" horiz-adv-x="910" 
d="M924 0h-160q-122 0 -148 94q-22 81 -43 191q-22 -23 -47 -54.5t-57 -64.5q-41 -43 -174 -43q-78 0 -139 25q-56 23 -56 47q0 20 66 155q35 73 107.5 137t162.5 105q29 12 80 39q0 10 -2 33.5t-2 27.5q0 24 23.5 102t33.5 78t43 -256q32 -243 66 -303q49 -86 129 -86h117
v-227zM559 354q0 18 -12 109.5t-17 109.5q-19 -44 -37 -61.5t-104 -60.5q-104 -53 -104 -72q0 -14 53.5 -28.5t112.5 -14.5q67 0 108 18z" />
    <glyph glyph-name="uni06EE.fina" unicode="&#x6ee;" horiz-adv-x="949" 
d="M963 0h-123q-86 0 -123 37q-31 31 -58 151q-40 -104 -108 -155q-49 -37 -130 -62q-75 -24 -132 -24q-180 0 -180 190q0 94 10 199q4 39 14 39q4 0 4 -21q0 -30 15 -80q28 -98 147 -98q130 0 227 47q123 60 123 99q0 14 -47 149q-67 193 -70.5 207t-3.5 45q0 38 2 59
q11 105 15 105q18 0 90 -238q95 -314 123 -356q43 -66 114 -66h91v-227zM470 1140l-199 -168h-56l204 273h102l205 -273h-56z" />
    <glyph glyph-name="uni06EF.fina" unicode="&#x6ef;" horiz-adv-x="823" 
d="M837 0h-127q-38 0 -58 14v-57q0 -72 -32.5 -167t-79.5 -155q-92 -114 -205 -114q-90 0 -228 61q-104 47 -104 62q0 10 14 10q3 0 41 -9.5t68 -9.5q59 0 151 45q87 42 158 101q66 54 118 134q48 74 48 108q0 30 -50 96.5t-50 75.5q0 36 21 119t32 83q2 0 55 -69
q77 -101 172 -101h56v-227zM536 723l-199 -168h-56l204 273h102l205 -273h-56z" />
    <glyph glyph-name="uni06FA.init" unicode="&#x6fa;" horiz-adv-x="1171" 
d="M1063 317q0 -78 -54 -199.5t-89 -121.5q-127 0 -172 9q-70 14 -70 108h-4q-39 -64 -105 -103q-48 -28 -137 -28h-162q-61 0 -61 18q0 20 18 72q-86 -72 -194 -72h-33q-70 0 -70 113q0 114 70 114h152q102 0 147 47q30 31 51 68q25 33 35 33q8 0 8 -25q-6 -53 -47 -127
q8 -20 162 -20q74 0 101 9q50 18 50 77q2 2 49 75q40 62 46 62q18 0 18 -104q0 -65 -18 -91q17 -10 81 -23q61 -13 85 -13q38 0 38 32q0 57 -38 109q39 71 65 137q15 39 25 39q16 0 32 -57q21 -73 21 -138zM644 994q0 -15 -52 -74.5t-66 -59.5q-57 60 -136 117
q0 10 52.5 74.5t64.5 64.5q17 0 77 -56t60 -66zM539 732q0 -17 -51.5 -75.5t-65.5 -58.5q-66 66 -137 115q0 11 53 75.5t64 64.5q18 0 77.5 -55.5t59.5 -65.5zM824 757q0 -16 -52.5 -75.5t-64.5 -59.5q-57 60 -137 117q0 11 52 74.5t64 63.5q16 0 77 -55.5t61 -64.5z
M644 -241q0 -12 -48 -66.5t-59 -54.5q-62 61 -127 107q0 10 48.5 68.5t59.5 58.5q16 0 71 -51t55 -62z" />
    <glyph glyph-name="uni06FA.medi" unicode="&#x6fa;" horiz-adv-x="1215" 
d="M1229 0h-180q-110 0 -134 127h-10q-35 -131 -104 -131q-66 0 -110 23t-50 57q-12 -25 -53 -66q-29 -28 -246 -28q-96 0 -96 14q0 35 4 49q-60 -45 -121 -45h-129q-70 0 -70 113q0 114 70 114h195q54 0 94 25q15 9 61 84q27 43 43 43q15 0 15 -33q0 -55 -37 -133h123
q67 0 141 18q0 38 53 105q71 90 84 90q10 0 10 -33q0 -46 -21 -91q-21 -42 -22 -42q0 -8 35 -19q40 -14 84 -14q39 0 43 19q0 7 14 39q9 20 23 47q53 104 68 104q8 0 8 -24q0 -34 -4 -57t-4 -27q0 -33 34 -65q37 -36 84 -36h105v-227zM684 994q0 -15 -52 -74.5t-66 -59.5
q-57 60 -136 117q0 10 52.5 74.5t64.5 64.5q17 0 77 -56t60 -66zM579 732q0 -17 -51.5 -75.5t-65.5 -58.5q-66 66 -137 115q0 11 53 75.5t64 64.5q18 0 77.5 -55.5t59.5 -65.5zM864 757q0 -16 -52.5 -75.5t-64.5 -59.5q-57 60 -137 117q0 11 52 74.5t64 63.5q16 0 77 -55.5
t61 -64.5zM684 -241q0 -12 -48 -66.5t-59 -54.5q-62 61 -127 107q0 10 48.5 68.5t59.5 58.5q16 0 71 -51t55 -62z" />
    <glyph glyph-name="uni06FA.fina" unicode="&#x6fa;" horiz-adv-x="1706" 
d="M1720 0h-194q-58 0 -94 43q-23 27 -37 66q-22 -74 -49 -100.5t-80 -26.5q-74 0 -119 41q-36 -52 -156 -52q0 -142 -18 -295q-17 -135 -64 -202q-36 -52 -143 -112q-147 -83 -301 -83q-188 0 -285 129q-76 101 -76 264q0 85 41 215q37 123 54 123q10 0 10 -20
q0 -7 -16.5 -76t-16.5 -119q0 -126 90 -213q75 -71 221 -71q122 0 252 57q176 78 176 119q0 68 -32 170q-42 130 -86 190q-47 64 -47 80q0 6 8 35q28 66 39 137q4 29 14 29q5 0 29 -35q46 -68 69 -80q47 -25 133 -25q54 0 86 15q11 10 11 40q0 29 41 70t53 41q8 0 8 -37
q0 -38 -18 -100q37 -18 86 -18q43 0 71 14v43q0 16 33 86l2 4h-2q17 34 33 57q13 0 14 -45v-12q0 -44 23 -79q25 -40 67 -40h170v-227zM1384 894q0 -15 -52 -74.5t-66 -59.5q-57 60 -136 117q0 10 52.5 74.5t64.5 64.5q17 0 77 -56t60 -66zM1279 632q0 -17 -51.5 -75.5
t-65.5 -58.5q-66 66 -137 115q0 11 53 75.5t64 64.5q18 0 77.5 -55.5t59.5 -65.5zM1564 657q0 -16 -52.5 -75.5t-64.5 -59.5q-57 60 -137 117q0 11 52 74.5t64 63.5q16 0 77 -55.5t61 -64.5zM1384 -241q0 -12 -48 -66.5t-59 -54.5q-62 61 -127 107q0 10 48.5 68.5t59.5 58.5
q16 0 71 -51t55 -62z" />
    <glyph glyph-name="uni06FB.init" unicode="&#x6fb;" horiz-adv-x="1464" 
d="M1370 412q0 -46 -81.5 -173.5t-131.5 -162.5q-113 -80 -508 -80q-231 0 -260 4q-46 -76 -57 -76q-8 0 -8 13q0 24 26 77q-57 19 -90 62q-15 19 -33 76q-44 -80 -86.5 -116t-107.5 -36h-33q-70 0 -70 113q0 114 70 114h133q63 0 84 47q17 38 46 75q27 34 36 34q4 0 4 -37
q0 -74 33 -100q40 -33 104 -33h43q40 31 266.5 208t354.5 177q93 0 181 -66q85 -64 85 -120zM1214 260q0 48 -75 106q-79 60 -154 60q-76 0 -235 -103q-148 -96 -148 -114q0 -14 90 -14q206 0 356 16q166 19 166 49zM909 -316q0 -18 -61.5 -90t-75.5 -72q-70 71 -166 144
q0 12 63 89t78 77q20 0 91 -67.5t71 -80.5zM909 905q0 -18 -61.5 -90t-75.5 -72q-70 71 -166 144q0 12 63 89t78 77q20 0 91 -67.5t71 -80.5z" />
    <glyph glyph-name="uni06FB.medi" unicode="&#x6fb;" horiz-adv-x="1479" 
d="M1493 0h-393q-115 0 -152 37q-19 -12 -130 -24q-116 -13 -220 -13q-180 0 -201 10q-42 -82 -55 -82q-8 0 -8 17q0 25 22 84q-96 26 -118 133q-50 -96 -91 -125q-51 -37 -108 -37h-39q-70 0 -70 113q0 114 70 114h104q87 0 113 52q57 114 86 114q10 0 10 -14q0 -4 -3 -14
t-3 -23q0 -54 35 -82q40 -33 156 -33q45 40 227 195q241 203 385 203q96 0 182 -67q78 -61 78 -114q0 -32 -43 -117q-40 -78 -61 -100h227v-227zM1214 293q0 43 -70 99q-75 59 -149 59q-134 0 -383 -224q25 -2 99 -2q40 0 122.5 1t114.5 1q84 0 171 19q95 21 95 47z
M909 -316q0 -18 -61.5 -90t-75.5 -72q-70 71 -166 144q0 12 63 89t78 77q20 0 91 -67.5t71 -80.5zM909 905q0 -18 -61.5 -90t-75.5 -72q-70 71 -166 144q0 12 63 89t78 77q20 0 91 -67.5t71 -80.5z" />
    <glyph glyph-name="uni06FB.fina" unicode="&#x6fb;" horiz-adv-x="2163" 
d="M2177 0h-432q-70 0 -137 29q1 -1 -122 -6q-129 -5 -231 -5q-196 0 -241 29q10 -29 10 -100q0 -79 -32 -195t-68 -166q-46 -62 -169 -113q-136 -57 -276 -57q-174 0 -278 110q-97 101 -97 255q0 115 63 253q54 118 71 118q8 0 8 -15q0 -1 -23.5 -85t-23.5 -132
q0 -90 61 -164q87 -106 266 -106q147 0 284 47q128 44 128 80q0 129 -51 280q-16 46 -90 189q1 0 37 108q28 86 38 86q11 0 58 -86q28 -52 85 -84q50 -28 95 -28q31 0 270 184q165 127 258 175t172 48q99 0 182 -79q74 -72 74 -134q0 -34 -57 -114q-38 -54 -70 -95h238v-227
zM1896 299q0 54 -61 112q-67 62 -147 62q-77 0 -258 -119q-168 -111 -168 -127q0 -10 198 -10q137 0 279 23q157 26 157 59zM1569 -316q0 -18 -61.5 -90t-75.5 -72q-70 71 -166 144q0 12 63 89t78 77q20 0 91 -67.5t71 -80.5zM1569 905q0 -18 -61.5 -90t-75.5 -72
q-70 71 -166 144q0 12 63 89t78 77q20 0 91 -67.5t71 -80.5z" />
    <glyph glyph-name="uni06FC.init" unicode="&#x6fc;" horiz-adv-x="1066" 
d="M516 1147q0 -18 -61.5 -90t-75.5 -72q-68 71 -166 143q0 13 63.5 89.5t79.5 76.5q20 0 90 -67.5t70 -79.5zM981 397q0 -5 -74 -92.5t-78 -87.5q-61 0 -193 -36q-135 -38 -247 -87q-214 -94 -371 -94h-18q-70 0 -70 113q0 114 70 114h94q103 0 172 25q-31 20 -63 67
q-41 61 -41 117q0 95 104 223q116 142 260 142q86 0 176 -73q76 -61 76 -83q0 -14 -20 -14q-7 0 -80.5 11t-126.5 11q-84 0 -164 -23q-92 -27 -92 -67q0 -57 104.5 -139t178.5 -82q36 0 207.5 33t181.5 33q14 0 14 -11zM516 -291q0 -18 -61.5 -89.5t-75.5 -71.5
q-70 70 -166 143q0 13 62 89.5t79 76.5q20 0 91 -67.5t71 -80.5z" />
    <glyph glyph-name="uni06FC.medi" unicode="&#x6fc;" horiz-adv-x="682" 
d="M448 985q0 -17 -61.5 -88.5t-75.5 -71.5q-86 83 -166 142q0 12 62 89t79 77q20 0 91 -68t71 -80zM696 0h-166q-131 0 -151 152q-52 -83 -98 -115q-53 -37 -134 -37h-147q-70 0 -70 113q0 114 70 114h184q44 0 92 12q52 13 52 27q0 39 -58 70q-53 29 -114 29
q-23 0 -38.5 -5.5t-23.5 -5.5q-18 0 -18 15q0 11 34 76q40 73 74 110q52 55 148 55q85 0 155 -47q91 -60 91 -127q0 -65 -41 -129q-30 -45 -64 -80h223v-227zM448 -291q0 -18 -61.5 -89.5t-75.5 -71.5q-70 70 -166 143q0 13 62 89.5t79 76.5q20 0 91 -67.5t71 -80.5z" />
    <glyph glyph-name="uni06FC.fina" unicode="&#x6fc;" horiz-adv-x="1094" 
d="M469 844q0 -18 -61.5 -90t-75.5 -72q-68 70 -166 143q0 13 63 89.5t78 76.5q20 0 91 -67.5t71 -79.5zM682 -842q-47 -2 -104 -2q-254 0 -373 152q-105 132 -105 364q0 259 84 422q59 114 129 176q-28 29 -104 29q-32 0 -61 -13l-29 -12q-15 0 -15 19q0 20 35 97
q37 86 66 108q60 47 170 47q87 0 159 -41.5t72 -100.5q0 -36 -36 -98q-32 -56 -58 -78h596v-227h-629q-53 0 -86 33q-26 26 -43 104q-78 -45 -131 -140q-57 -103 -57 -216q0 -95 38 -179.5t99 -127.5q107 -76 375 -76h8q127 1 301 24q174 22 174 23q29 0 29 -10
q0 -26 -38 -48q-60 -34 -63 -36q-150 -132 -198 -158q-53 -28 -205 -35zM647 -311q0 -18 -61.5 -89.5t-75.5 -71.5q-70 70 -166 143q0 13 62 89.5t79 76.5q20 0 91 -67.5t71 -80.5z" />
    <glyph glyph-name="uni06FF.init" unicode="&#x6ff;" horiz-adv-x="976" 
d="M868 152q0 -91 -32 -146q-29 -49 -68 -49q-51 0 -190 47q-79 26 -156 57q-101 -61 -285 -61h-137q-70 0 -70 113q0 114 70 114h205q19 96 65 181q58 104 86 133q4 3 4 8q0 6 -14 6q-39 0 -39 98q0 43 20.5 79t51.5 36q36 0 110 -47q92 -58 185 -158
q107 -114 150.5 -206.5t43.5 -204.5zM786 156q0 47 -64 123q-52 62 -91 86q0 -24 -25 -91q-7 -20 -37 -71q181 -66 195 -66q22 0 22 19zM530 299q0 160 -79 160q-40 0 -98 -56q-54 -52 -54 -75q0 -27 43 -58q39 -28 61 -28q29 0 72 14q55 18 55 43zM385 1023l-199 -168h-56
l204 273h102l205 -273h-56z" />
    <glyph glyph-name="uni06FF.medi" unicode="&#x6ff;" horiz-adv-x="758" 
d="M772 0h-194q28 -52 28 -176q0 -217 -137 -217q-149 0 -238 137q-51 79 -51 256h-180q-70 0 -70 113q0 114 70 114h227q40 74 133 224q42 53 148 194q78 109 84 109q14 0 14 -54q0 -26 10.5 -93t10.5 -120q0 -66 -33 -150q-27 -70 -57 -110h235v-227zM522 342
q0 27 -14 109q-12 65 -29 65q-9 0 -92.5 -124t-83.5 -146q25 6 119 20q71 11 76 19q24 10 24 57zM530 -170q0 48 -94 117q-67 49 -137 49q-43 0 -43 -21q0 -13 29 -54q33 -46 65 -64q80 -47 144 -47q36 0 36 20zM465 1023l-199 -168h-56l204 273h102l205 -273h-56z" />
    <glyph glyph-name="uni06FF.fina" unicode="&#x6ff;" horiz-adv-x="949" 
d="M963 0h-194q28 -52 28 -176q0 -217 -137 -217q-149 0 -238 137q-51 79 -51 256q-66 -12 -113.5 -27t-80.5 -36t-53 -50.5t-30 -69.5q-7 -22 -14 -22q-1 0 -3 1q-9 6 -9 48q0 18 4 53.5t14.5 76t28.5 79.5t45 65q42 39 105 64.5t153 44.5q53 97 119.5 199t161.5 219
q78 109 84 109q14 0 14 -54q0 -13 2.5 -36t7.5 -57t8 -64t3 -56q0 -66 -33 -150q-26 -68 -57 -110h235v-227zM713 342q0 14 -3.5 40.5t-10.5 68.5q-12 65 -29 65q-9 0 -93 -124q-42 -63 -63.5 -100.5t-21.5 -48.5q13 3 46 10t75 13q71 11 76 19q24 10 24 57zM721 -170
q0 48 -94 117q-67 49 -137 49q-43 0 -43 -21q0 -13 29 -54q32 -45 65 -64q80 -47 144 -47q36 0 36 20zM605 1023l-199 -168h-56l204 273h102l205 -273h-56z" />
    <glyph glyph-name="uniFB50" unicode="&#x671;" horiz-adv-x="516" arabic-form="isolated" 
d="M484 1532q0 -22 -11.5 -46t-33.5 -45q-35 -34 -70 -46.5t-70 -12.5q-26 0 -47 5t-40.5 11t-38 11t-40.5 5q-19 0 -42.5 -11.5t-57.5 -34.5q-5 -3 -8 -3q-2 0 -3 1q-4 2 -4 9q0 4 13.5 24t34.5 42.5t45.5 40.5t46.5 18q12 0 26 -3q63 58 118 93.5t98 35.5q18 0 33.5 -8.5
t26.5 -22t17.5 -30.5t6.5 -33zM419 1498q0 17 -18.5 32.5t-43.5 15.5q-49 0 -125 -58l1 -3q26 -5 57 -16t69 -11q25 1 42.5 14t17.5 26zM358 393q0 -14 -4 -71q-9 -123 -43 -213q-41 -109 -58 -109q1 0 1 13q0 47 -9 266q-3 90 -43 413q-39 320 -39 328q0 37 49 166
q42 108 52 108q11 0 18.5 -71t24.5 -238q21 -184 47 -473q4 -104 4 -119z" />
    <glyph glyph-name="uniFB51" unicode="&#x671;" horiz-adv-x="560" arabic-form="final" 
d="M574 0h-141q-118 0 -158.5 81t-50.5 441q-5 173 -19 303q-9 90 -28 189q-23 110 -25 110q0 13 4 23q11 14 39 61q9 22 33 72q7 14 14 14q14 0 25 -71q18 -126 22 -199q15 -261 15 -432q0 -153 42 -259t134 -106h94v-227zM484 1532q0 -22 -11.5 -46t-33.5 -45
q-35 -34 -70 -46.5t-70 -12.5q-26 0 -47 5t-40.5 11t-38 11t-40.5 5q-19 0 -42.5 -11.5t-57.5 -34.5q-5 -3 -8 -3q-2 0 -3 1q-4 2 -4 9q0 4 13.5 24t34.5 42.5t45.5 40.5t46.5 18q12 0 26 -3q63 58 118 93.5t98 35.5q18 0 33.5 -8.5t26.5 -22t17.5 -30.5t6.5 -33zM419 1498
q0 17 -18.5 32.5t-43.5 15.5q-49 0 -125 -58l1 -3q26 -5 57 -16t69 -11q25 1 42.5 14t17.5 26z" />
    <glyph glyph-name="uniFB52" unicode="&#x67b;" horiz-adv-x="1896" arabic-form="isolated" 
d="M1788 317q0 -78 -25 -147q-22 -59 -47 -80q-36 -30 -233 -63q-252 -41 -578 -41q-513 0 -649 86q-162 102 -162 303q0 98 48 202q42 91 63 91q8 0 8 -15q-2 0 -19 -49q-18 -55 -18 -110q0 -299 625 -299q382 0 642 32q189 23 249 52q-13 96 -109 237q35 95 53 223
q34 0 91 -150q61 -157 61 -272zM1102 -272q0 -18 -59.5 -84.5t-73.5 -66.5q-76 75 -156 133q0 12 59.5 84t73.5 72q19 0 87.5 -63t68.5 -75zM1133 -571q0 -16 -59.5 -83.5t-73.5 -67.5q-76 75 -156 133q0 12 59.5 84t73.5 72q20 0 88 -62.5t68 -75.5z" />
    <glyph glyph-name="uniFB53" unicode="&#x67b;" horiz-adv-x="2003" arabic-form="final" 
d="M2017 0h-37q-86 0 -131.5 46t-62.5 130q-10 47 -14 47q-11 0 -25 -57q-11 -43 -33 -72q-53 -47 -321 -80q-233 -28 -621 -28t-522 86q-156 99 -156 311q0 84 42 189q39 96 57 96q10 0 10 -11q0 -2 -14.5 -62t-14.5 -116q0 -129 148 -209q140 -75 544 -75q303 0 568 33
q219 28 247 51q0 60 -104 243q19 57 33 123q19 94 24 94q20 0 76 -129q5 -12 66 -198q16 -50 49 -95q67 -90 170 -90h22v-227zM1174 -258q0 -18 -59.5 -84.5t-73.5 -66.5q-76 75 -156 133q0 12 59.5 84t73.5 72q19 0 87.5 -63t68.5 -75zM1205 -557q0 -16 -59.5 -83.5
t-73.5 -67.5q-76 75 -156 133q0 12 59.5 84t73.5 72q20 0 88 -62.5t68 -75.5z" />
    <glyph glyph-name="uniFB54" unicode="&#x67b;" horiz-adv-x="569" arabic-form="initial" 
d="M461 328q0 -81 -20 -173q-19 -85 -38 -112q-19 -17 -90 -31q-63 -12 -104 -12h-209q-70 0 -70 113q0 114 70 114h328q43 0 43 19q0 44 -58 133q-12 19 -82 108q0 25 24 114q26 95 40 95q24 0 91 -126q75 -140 75 -242zM392 -255q0 -18 -59.5 -84.5t-73.5 -66.5
q-76 75 -156 133q0 12 59.5 84t73.5 72q19 0 87.5 -63t68.5 -75zM423 -554q0 -16 -59.5 -83.5t-73.5 -67.5q-76 75 -156 133q0 12 59.5 84t73.5 72q20 0 88 -62.5t68 -75.5z" />
    <glyph glyph-name="uniFB55" unicode="&#x67b;" horiz-adv-x="645" arabic-form="medial" 
d="M659 0h-157q-157 0 -189 137q-78 -137 -198 -137h-115q-70 0 -70 113q0 114 70 114h246q55 0 67 43q46 156 66 156q6 0 6 -29q0 -73 18 -104q39 -66 99 -66h157v-227zM363 -255q0 -18 -59.5 -84.5t-73.5 -66.5q-76 75 -156 133q0 12 59.5 84t73.5 72q19 0 87.5 -63
t68.5 -75zM394 -554q0 -16 -59.5 -83.5t-73.5 -67.5q-76 75 -156 133q0 12 59.5 84t73.5 72q20 0 88 -62.5t68 -75.5z" />
    <glyph glyph-name="uniFB56" unicode="&#x67e;" horiz-adv-x="1896" arabic-form="isolated" 
d="M1788 317q0 -78 -25 -147q-22 -59 -47 -80q-36 -30 -233 -63q-252 -41 -578 -41q-513 0 -649 86q-162 102 -162 303q0 98 48 202q42 91 63 91q8 0 8 -15q-2 0 -19 -49q-18 -55 -18 -110q0 -299 625 -299q382 0 642 32q189 23 249 52q-13 96 -109 237q35 95 53 223
q34 0 91 -150q61 -157 61 -272zM1308 -267q0 -18 -56.5 -83t-71.5 -65q-86 83 -153 130q0 11 58.5 81t71.5 70q19 0 85 -61t66 -72zM1176 -559q0 -18 -58 -82.5t-71 -64.5q-74 73 -152 129q0 12 58 82t71 70q19 0 85.5 -61t66.5 -73zM995 -286q0 -15 -58 -80.5t-71 -65.5
q-74 73 -152 129q0 12 58 82t71 70q20 0 86 -61t66 -74z" />
    <glyph glyph-name="uniFB57" unicode="&#x67e;" horiz-adv-x="2003" arabic-form="final" 
d="M2017 0h-37q-86 0 -131.5 46t-62.5 130q-10 47 -14 47q-11 0 -25 -57q-11 -43 -33 -72q-53 -47 -321 -80q-233 -28 -621 -28t-522 86q-156 99 -156 311q0 84 42 189q39 96 57 96q10 0 10 -11q0 -2 -14.5 -62t-14.5 -116q0 -129 148 -209q140 -75 544 -75q303 0 568 33
q219 28 247 51q0 60 -104 243q19 57 33 123q19 94 24 94q20 0 76 -129q5 -12 66 -198q16 -50 49 -95q67 -90 170 -90h22v-227zM1166 -569q0 -18 -58 -82.5t-71 -64.5q-74 73 -152 129q0 12 58 82t71 70q19 0 85.5 -61t66.5 -73zM1298 -277q0 -18 -56.5 -83t-71.5 -65
q-86 83 -153 130q0 11 58.5 81t71.5 70q19 0 85 -61t66 -72zM985 -296q0 -15 -58 -80.5t-71 -65.5q-74 73 -152 129q0 12 58 82t71 70q20 0 86 -61t66 -74z" />
    <glyph glyph-name="uniFB58" unicode="&#x67e;" horiz-adv-x="715" arabic-form="initial" 
d="M607 328q0 -81 -21 -173q-18 -85 -37 -112q-19 -17 -90 -31q-63 -12 -104 -12h-355q-70 0 -70 113q0 114 70 114h473q43 0 43 19q0 44 -57 133q-12 19 -82 108q0 25 24 114q26 95 40 95q24 0 91 -126q75 -140 75 -242zM486 -539q0 -18 -58 -82.5t-71 -64.5
q-74 73 -152 129q0 12 58 82t71 70q19 0 85.5 -61t66.5 -73zM618 -247q0 -18 -56.5 -83t-71.5 -65q-86 83 -153 130q0 11 58.5 81t71.5 70q19 0 85 -61t66 -72zM305 -266q0 -15 -58 -80.5t-71 -65.5q-74 73 -152 129q0 12 58 82t71 70q20 0 86 -61t66 -74z" />
    <glyph glyph-name="uniFB59" unicode="&#x67e;" horiz-adv-x="815" arabic-form="medial" 
d="M829 0h-194q-155 0 -191 137q-77 -137 -198 -137h-246q-70 0 -70 113q0 114 70 114h379q54 0 65 43q44 156 68 156q4 0 4 -29q0 -73 19 -104q38 -66 100 -66h194v-227zM496 -539q0 -18 -58 -82.5t-71 -64.5q-74 73 -152 129q0 12 58 82t71 70q19 0 85.5 -61t66.5 -73z
M628 -247q0 -18 -56.5 -83t-71.5 -65q-86 83 -153 130q0 11 58.5 81t71.5 70q19 0 85 -61t66 -72zM315 -266q0 -15 -58 -80.5t-71 -65.5q-74 73 -152 129q0 12 58 82t71 70q20 0 86 -61t66 -74z" />
    <glyph glyph-name="uniFB5A" unicode="&#x680;" horiz-adv-x="1896" arabic-form="isolated" 
d="M1788 317q0 -78 -25 -147q-22 -59 -47 -80q-36 -30 -233 -63q-252 -41 -578 -41q-513 0 -649 86q-162 102 -162 303q0 98 48 202q42 91 63 91q8 0 8 -15q-2 0 -19 -49q-18 -55 -18 -110q0 -299 625 -299q382 0 642 32q189 23 249 52q-13 96 -109 237q35 95 53 223
q34 0 91 -150q61 -157 61 -272zM1310 -272q0 -18 -58 -85t-73 -67q-88 86 -157 134q0 11 60 83t73 72q20 0 87.5 -62.5t67.5 -74.5zM989 -301q0 -16 -59.5 -83.5t-73.5 -67.5q-76 75 -156 133q0 12 59.5 84t73.5 72q20 0 88 -62.5t68 -75.5zM1362 -560q0 -18 -58 -85
t-73 -67q-88 86 -157 134q0 11 60 83t73 72q20 0 87.5 -62.5t67.5 -74.5zM1041 -589q0 -16 -59.5 -83.5t-73.5 -67.5q-76 75 -156 133q0 12 59.5 84t73.5 72q20 0 88 -62.5t68 -75.5z" />
    <glyph glyph-name="uniFB5B" unicode="&#x680;" horiz-adv-x="2003" arabic-form="final" 
d="M2017 0h-37q-86 0 -131.5 46t-62.5 130q-10 47 -14 47q-11 0 -25 -57q-11 -43 -33 -72q-53 -47 -321 -80q-233 -28 -621 -28t-522 86q-156 99 -156 311q0 84 42 189q39 96 57 96q10 0 10 -11q0 -2 -14.5 -62t-14.5 -116q0 -129 148 -209q140 -75 544 -75q303 0 568 33
q219 28 247 51q0 60 -104 243q19 57 33 123q19 94 24 94q20 0 76 -129q5 -12 66 -198q16 -50 49 -95q67 -90 170 -90h22v-227zM1310 -272q0 -18 -58 -85t-73 -67q-88 86 -157 134q0 11 60 83t73 72q20 0 87.5 -62.5t67.5 -74.5zM989 -301q0 -16 -59.5 -83.5t-73.5 -67.5
q-76 75 -156 133q0 12 59.5 84t73.5 72q20 0 88 -62.5t68 -75.5zM1362 -560q0 -18 -58 -85t-73 -67q-88 86 -157 134q0 11 60 83t73 72q20 0 87.5 -62.5t67.5 -74.5zM1041 -589q0 -16 -59.5 -83.5t-73.5 -67.5q-76 75 -156 133q0 12 59.5 84t73.5 72q20 0 88 -62.5t68 -75.5
z" />
    <glyph glyph-name="uniFB5C" unicode="&#x680;" horiz-adv-x="715" arabic-form="initial" 
d="M607 328q0 -81 -21 -173q-18 -85 -37 -112q-19 -17 -90 -31q-63 -12 -104 -12h-355q-70 0 -70 113q0 114 70 114h473q43 0 43 19q0 44 -57 133q-12 19 -82 108q0 25 24 114q26 95 40 95q24 0 91 -126q75 -140 75 -242zM622 -249q0 -18 -58 -85t-73 -67q-88 86 -157 134
q0 11 60 83t73 72q20 0 87.5 -62.5t67.5 -74.5zM301 -278q0 -16 -59.5 -83.5t-73.5 -67.5q-76 75 -156 133q0 12 59.5 84t73.5 72q20 0 88 -62.5t68 -75.5zM674 -537q0 -18 -58 -85t-73 -67q-88 86 -157 134q0 11 60 83t73 72q20 0 87.5 -62.5t67.5 -74.5zM353 -566
q0 -16 -59.5 -83.5t-73.5 -67.5q-76 75 -156 133q0 12 59.5 84t73.5 72q20 0 88 -62.5t68 -75.5z" />
    <glyph glyph-name="uniFB5D" unicode="&#x680;" horiz-adv-x="815" arabic-form="medial" 
d="M829 0h-194q-155 0 -191 137q-77 -137 -198 -137h-246q-70 0 -70 113q0 114 70 114h379q54 0 65 43q44 156 68 156q4 0 4 -29q0 -73 19 -104q38 -66 100 -66h194v-227zM622 -249q0 -18 -58 -85t-73 -67q-88 86 -157 134q0 11 60 83t73 72q20 0 87.5 -62.5t67.5 -74.5z
M301 -278q0 -16 -59.5 -83.5t-73.5 -67.5q-76 75 -156 133q0 12 59.5 84t73.5 72q20 0 88 -62.5t68 -75.5zM674 -537q0 -18 -58 -85t-73 -67q-88 86 -157 134q0 11 60 83t73 72q20 0 87.5 -62.5t67.5 -74.5zM353 -566q0 -16 -59.5 -83.5t-73.5 -67.5q-76 75 -156 133
q0 12 59.5 84t73.5 72q20 0 88 -62.5t68 -75.5z" />
    <glyph glyph-name="uniFB5E" unicode="&#x67a;" horiz-adv-x="1896" arabic-form="isolated" 
d="M1053 995q0 -18 -59.5 -84.5t-73.5 -66.5q-76 75 -156 133q0 12 59.5 84t73.5 72q19 0 87.5 -63t68.5 -75zM1084 696q0 -16 -59.5 -83.5t-73.5 -67.5q-76 75 -156 133q0 12 59.5 84t73.5 72q20 0 88 -62.5t68 -75.5zM213 654q-3 -4 -18 -50q-19 -55 -19 -110
q0 -299 625 -299q382 0 642 32q189 23 249 52q-13 96 -109 237q35 95 53 223q34 0 91 -150q61 -157 61 -272q0 -78 -25 -147q-22 -59 -47 -80q-36 -30 -233 -63q-252 -41 -578 -41q-513 0 -649 86q-162 102 -162 303q0 98 48 202q42 91 63 91q7 0 8 -13v-1z" />
    <glyph glyph-name="uniFB5F" unicode="&#x67a;" horiz-adv-x="2009" arabic-form="final" 
d="M2023 0h-41q-86 0 -133.5 47.5t-60.5 128.5q-13 47 -14 47q-11 0 -25 -57q-10 -43 -33 -72q-53 -47 -321 -80q-233 -28 -623 -28q-386 0 -520 86q-158 100 -158 311q0 84 43 189q40 96 58 96q10 0 10 -11q0 -2 -14.5 -62t-14.5 -116q0 -128 146 -209q135 -75 546 -75
q303 0 568 33q219 28 247 51q0 60 -104 243q19 57 33 123q19 94 24 94q18 0 76 -129q5 -10 66 -198q16 -52 47 -95q64 -90 172 -90h26v-227zM1059 993q0 -18 -59.5 -84.5t-73.5 -66.5q-76 75 -156 133q0 12 59.5 84t73.5 72q19 0 87.5 -63t68.5 -75zM1090 694
q0 -16 -59.5 -83.5t-73.5 -67.5q-76 75 -156 133q0 12 59.5 84t73.5 72q20 0 88 -62.5t68 -75.5z" />
    <glyph glyph-name="uniFB60" unicode="&#x67a;" horiz-adv-x="645" arabic-form="initial" 
d="M537 328q0 -81 -21 -173q-18 -85 -37 -112q-19 -17 -90 -31q-63 -12 -104 -12h-285q-70 0 -70 113q0 114 70 114h403q43 0 43 19q0 44 -57 133q-12 19 -82 108q0 25 24 114q26 95 40 95q24 0 91 -126q75 -140 75 -242zM361 1200q0 -18 -59.5 -84.5t-73.5 -66.5
q-76 75 -156 133q0 12 59.5 84t73.5 72q19 0 87.5 -63t68.5 -75zM392 901q0 -16 -59.5 -83.5t-73.5 -67.5q-76 75 -156 133q0 12 59.5 84t73.5 72q20 0 88 -62.5t68 -75.5z" />
    <glyph glyph-name="uniFB61" unicode="&#x67a;" horiz-adv-x="785" arabic-form="medial" 
d="M799 0h-194q-155 0 -191 137q-77 -137 -198 -137h-216q-70 0 -70 113q0 114 70 114h349q52 0 65 47q42 152 68 152q4 0 4 -23q0 -73 19 -104q43 -72 100 -72h194v-227zM433 1030q0 -18 -59.5 -84.5t-73.5 -66.5q-76 75 -156 133q0 12 59.5 84t73.5 72q19 0 87.5 -63
t68.5 -75zM464 731q0 -16 -59.5 -83.5t-73.5 -67.5q-76 75 -156 133q0 12 59.5 84t73.5 72q20 0 88 -62.5t68 -75.5z" />
    <glyph glyph-name="uniFB62" unicode="&#x67f;" horiz-adv-x="1896" arabic-form="isolated" 
d="M1203 1013q0 -18 -58 -85t-73 -67q-88 86 -157 134q0 11 60 83t73 72q20 0 87.5 -62.5t67.5 -74.5zM882 984q0 -16 -59.5 -83.5t-73.5 -67.5q-76 75 -156 133q0 12 59.5 84t73.5 72q20 0 88 -62.5t68 -75.5zM213 654q-3 -4 -18 -50q-19 -55 -19 -110q0 -299 625 -299
q382 0 642 32q189 23 249 52q-13 96 -109 237q35 95 53 223q34 0 91 -150q61 -157 61 -272q0 -78 -25 -147q-22 -59 -47 -80q-36 -30 -233 -63q-252 -41 -578 -41q-513 0 -649 86q-162 102 -162 303q0 98 48 202q42 91 63 91q7 0 8 -13v-1zM1255 725q0 -18 -58 -85t-73 -67
q-88 86 -157 134q0 11 60 83t73 72q20 0 87.5 -62.5t67.5 -74.5zM934 696q0 -16 -59.5 -83.5t-73.5 -67.5q-76 75 -156 133q0 12 59.5 84t73.5 72q20 0 88 -62.5t68 -75.5z" />
    <glyph glyph-name="uniFB63" unicode="&#x67f;" horiz-adv-x="2009" arabic-form="final" 
d="M2023 0h-41q-86 0 -133.5 47.5t-60.5 128.5q-13 47 -14 47q-11 0 -25 -57q-10 -43 -33 -72q-53 -47 -321 -80q-233 -28 -623 -28q-386 0 -520 86q-158 100 -158 311q0 84 43 189q40 96 58 96q10 0 10 -11q0 -2 -14.5 -62t-14.5 -116q0 -128 146 -209q135 -75 546 -75
q303 0 568 33q219 28 247 51q0 60 -104 243q19 57 33 123q19 94 24 94q18 0 76 -129q5 -10 66 -198q16 -52 47 -95q64 -90 172 -90h26v-227zM1203 1013q0 -18 -58 -85t-73 -67q-88 86 -157 134q0 11 60 83t73 72q20 0 87.5 -62.5t67.5 -74.5zM882 984q0 -16 -59.5 -83.5
t-73.5 -67.5q-76 75 -156 133q0 12 59.5 84t73.5 72q20 0 88 -62.5t68 -75.5zM1255 725q0 -18 -58 -85t-73 -67q-88 86 -157 134q0 11 60 83t73 72q20 0 87.5 -62.5t67.5 -74.5zM934 696q0 -16 -59.5 -83.5t-73.5 -67.5q-76 75 -156 133q0 12 59.5 84t73.5 72q20 0 88 -62.5
t68 -75.5z" />
    <glyph glyph-name="uniFB64" unicode="&#x67f;" horiz-adv-x="735" arabic-form="initial" 
d="M627 328q0 -81 -21 -173q-18 -85 -37 -112q-19 -17 -90 -31q-63 -12 -104 -12h-375q-70 0 -70 113q0 114 70 114h493q43 0 43 19q0 44 -57 133q-12 19 -82 108q0 25 24 114q26 95 40 95q24 0 91 -126q75 -140 75 -242zM647 1215q0 -18 -58 -85t-73 -67q-88 86 -157 134
q0 11 60 83t73 72q20 0 87.5 -62.5t67.5 -74.5zM326 1186q0 -16 -59.5 -83.5t-73.5 -67.5q-76 75 -156 133q0 12 59.5 84t73.5 72q20 0 88 -62.5t68 -75.5zM699 927q0 -18 -58 -85t-73 -67q-88 86 -157 134q0 11 60 83t73 72q20 0 87.5 -62.5t67.5 -74.5zM378 898
q0 -16 -59.5 -83.5t-73.5 -67.5q-76 75 -156 133q0 12 59.5 84t73.5 72q20 0 88 -62.5t68 -75.5z" />
    <glyph glyph-name="uniFB65" unicode="&#x67f;" horiz-adv-x="815" arabic-form="medial" 
d="M829 0h-194q-155 0 -191 137q-77 -137 -198 -137h-246q-70 0 -70 113q0 114 70 114h379q52 0 65 47q42 152 68 152q4 0 4 -23q0 -73 19 -104q43 -72 100 -72h194v-227zM585 1053q0 -18 -58 -85t-73 -67q-88 86 -157 134q0 11 60 83t73 72q20 0 87.5 -62.5t67.5 -74.5z
M264 1024q0 -16 -59.5 -83.5t-73.5 -67.5q-76 75 -156 133q0 12 59.5 84t73.5 72q20 0 88 -62.5t68 -75.5zM637 765q0 -18 -58 -85t-73 -67q-88 86 -157 134q0 11 60 83t73 72q20 0 87.5 -62.5t67.5 -74.5zM316 736q0 -16 -59.5 -83.5t-73.5 -67.5q-76 75 -156 133
q0 12 59.5 84t73.5 72q20 0 88 -62.5t68 -75.5z" />
    <glyph glyph-name="uniFB66" unicode="&#x679;" horiz-adv-x="1896" arabic-form="isolated" 
d="M1788 317q0 -78 -25 -147q-22 -59 -47 -80q-36 -30 -233 -63q-252 -41 -578 -41q-513 0 -649 86q-162 102 -162 303q0 98 48 202q42 91 63 91q8 0 8 -15q-2 0 -19 -49q-18 -55 -18 -110q0 -299 625 -299q382 0 642 32q189 23 249 52q-13 96 -109 237q35 95 53 223
q34 0 91 -150q61 -157 61 -272zM1180 815q0 -12 -4 -30.5t-15 -40t-29.5 -43t-46.5 -38.5t-67.5 -28t-92.5 -11q-38 0 -65 2.5t-49.5 14.5t-44 37.5t-46.5 72.5q-4 9 -4 14q0 3 1 5q2 2 5 2t8 -2q4 -2 13.5 -7.5t22 -12t26.5 -12t28 -8.5q41 36 44 53v49q0 47 -7 86t-24 68
q6 13 15.5 29.5t19.5 30t18.5 23t12.5 9.5q7 0 13.5 -13t11.5 -32.5t7.5 -42.5t2.5 -44q0 -25 -4.5 -53.5t-6.5 -66.5l2 -1q45 40 83.5 61t72.5 21q25 0 44 -11t31 -26t18 -30.5t6 -24.5zM1109 756q0 6 -5.5 16t-15 20.5t-24 18t-32.5 7.5q-29 0 -70.5 -25.5t-95.5 -72.5
l1 -2h71q32 0 63 3t55 8t38.5 12t14.5 15z" />
    </font>
</defs>
</svg>
