<?xml version="1.0" standalone="no"?>
<!DOCTYPE svg PUBLIC "-//W3C//DTD SVG 1.1//EN" "http://www.w3.org/Graphics/SVG/1.1/DTD/svg11.dtd" >
<svg xmlns="http://www.w3.org/2000/svg" xmlns:xlink="http://www.w3.org/1999/xlink" version="1.1">
<metadata>
Created by FontForge 20170731 at Sat Oct 15 16:53:49 2016
 By Aleksey,,,
(c)  2014 Bahij Virtual Academy. All rights reserved.
</metadata>
<defs>
<font id="BahijHelveticaNeue-Bold" horiz-adv-x="0" >
  <font-face 
    font-family="Bahij Helvetica Neue 75 Bold"
    font-weight="700"
    font-stretch="normal"
    units-per-em="2048"
    panose-1="2 4 7 3 6 2 1 2 2 3"
    ascent="1638"
    descent="-410"
    x-height="986"
    cap-height="1361"
    bbox="-315 -1175 4895 2425"
    underline-thickness="50"
    underline-position="-150"
    unicode-range="U+0020-FEFC"
  />
<missing-glyph horiz-adv-x="677" 
d="M0 0v950h678v-950h-678zM109 882l230 -347l231 347h-461zM610 820l-230 -345l230 -347v692zM570 68l-231 345l-230 -345h461zM68 128l230 347l-230 345v-692z" />
    <glyph glyph-name="uniFB01" unicode="fi" horiz-adv-x="1164" 
d="M1055 1139h-271v222h271v-222zM784 986h271v-986h-271v986zM162 804h-162v182h162v76q0 64 20 119.5t62 95.5t103 62t145 22q36 0 72 -3t71 -4v-202q-49 5 -100 5q-55 0 -78.5 -25.5t-23.5 -87.5v-58h187v-182h-187v-804h-271v804z" />
    <glyph glyph-name="uniFB02" unicode="fl" horiz-adv-x="1164" 
d="M784 1361h271v-1361h-271v1361zM162 804h-162v182h162v76q0 64 20 119.5t62 95.5t103 62t145 22q36 0 72 -3t71 -4v-202q-49 5 -100 5q-55 0 -78.5 -25.5t-23.5 -87.5v-58h187v-182h-187v-804h-271v804z" />
    <glyph glyph-name="uniFC31" unicode="&#xfed3;&#xfef0;" horiz-adv-x="2392" arabic-form="isolated" 
d="M1750 395q0 -100 46 -137.5t111 -37.5h107v144q0 38 -5 73.5t-19.5 62t-39 43t-62.5 16.5q-40 0 -65.5 -14.5t-42 -37.5t-23.5 -52.5t-7 -59.5zM1732 1088q0 56 40 96t95 40q56 0 96 -40t40 -96q0 -55 -40 -95t-96 -40q-55 0 -95 40t-40 95zM1272 0q3 -17 6 -38t3 -50
q0 -78 -29.5 -142.5t-104 -112.5t-200 -74.5t-318.5 -26.5q-187 0 -308 35.5t-192.5 97.5t-100 144.5t-28.5 179.5v317h248v-309q0 -124 89.5 -180t295.5 -56q133 0 214 15t126 37.5t59 48t14 43.5q0 25 -25.5 45t-73 39.5t-114.5 37.5t-149 38v228q126 -41 241.5 -69
t204.5 -28h409q-15 29 -22 76.5t-7 87.5q0 74 26 146t74.5 128.5t121 91t165.5 34.5q109 0 179.5 -39t110.5 -99t56 -134t16 -142v-370h-987z" />
    <glyph glyph-name="uniFC32" unicode="&#xfed3;&#xfef2;" horiz-adv-x="2392" arabic-form="isolated" 
d="M337 -719q0 55 40.5 95t95.5 40t95 -40t40 -95t-40 -95.5t-95 -40.5t-95.5 40.5t-40.5 95.5zM648 -719q0 55 40 95t96 40q55 0 95 -40t40 -95t-40 -95.5t-95 -40.5q-56 0 -96 40.5t-40 95.5zM1750 395q0 -100 46 -137.5t111 -37.5h107v144q0 38 -5 73.5t-19.5 62t-39 43
t-62.5 16.5q-40 0 -65.5 -14.5t-42 -37.5t-23.5 -52.5t-7 -59.5zM1732 1088q0 56 40 96t95 40q56 0 96 -40t40 -96q0 -55 -40 -95t-96 -40q-55 0 -95 40t-40 95zM1272 0q3 -17 6 -38t3 -50q0 -78 -29.5 -142.5t-104 -112.5t-200 -74.5t-318.5 -26.5q-187 0 -308 35.5
t-192.5 97.5t-100 144.5t-28.5 179.5v317h248v-309q0 -124 89.5 -180t295.5 -56q133 0 214 15t126 37.5t59 48t14 43.5q0 25 -25.5 45t-73 39.5t-114.5 37.5t-149 38v228q126 -41 241.5 -69t204.5 -28h409q-15 29 -22 76.5t-7 87.5q0 74 26 146t74.5 128.5t121 91
t165.5 34.5q109 0 179.5 -39t110.5 -99t56 -134t16 -142v-370h-987z" />
    <glyph glyph-name="uniFC43" unicode="&#xfedf;&#xfef0;" horiz-adv-x="1972" arabic-form="isolated" 
d="M1272 0q3 -17 6 -38t3 -50q0 -78 -29.5 -142.5t-104 -112.5t-200 -74.5t-318.5 -26.5q-187 0 -308 35.5t-192.5 97.5t-100 144.5t-28.5 179.5v317h248v-309q0 -124 89.5 -180t295.5 -56q133 0 214 15t126 37.5t59 48t14 43.5q0 25 -25.5 45t-73 39.5t-114.5 37.5t-149 38
v228q126 -41 241.5 -69t204.5 -28h458v1141h251v-1361h-567z" />
    <glyph glyph-name="uniFC44" unicode="&#xfedf;&#xfef2;" horiz-adv-x="1972" arabic-form="isolated" 
d="M337 -719q0 55 40.5 95t95.5 40t95 -40t40 -95t-40 -95.5t-95 -40.5t-95.5 40.5t-40.5 95.5zM648 -719q0 55 40 95t96 40q55 0 95 -40t40 -95t-40 -95.5t-95 -40.5q-56 0 -96 40.5t-40 95.5zM1272 0q3 -17 6 -38t3 -50q0 -78 -29.5 -142.5t-104 -112.5t-200 -74.5
t-318.5 -26.5q-187 0 -308 35.5t-192.5 97.5t-100 144.5t-28.5 179.5v317h248v-309q0 -124 89.5 -180t295.5 -56q133 0 214 15t126 37.5t59 48t14 43.5q0 25 -25.5 45t-73 39.5t-114.5 37.5t-149 38v228q126 -41 241.5 -69t204.5 -28h458v1141h251v-1361h-567z" />
    <glyph glyph-name="uniFC64" unicode="&#xfe8c;&#xfeae;" horiz-adv-x="1329" arabic-form="final" 
d="M696 0q-25 0 -68.5 11.5t-76.5 49.5q-2 -130 -31 -216.5t-86 -140t-144.5 -76.5t-209.5 -25v233q78 2 123.5 17.5t68.5 48.5t30 83.5t7 121.5v568h246v-324q0 -38 12.5 -63t32.5 -40t45.5 -21.5t50.5 -6.5h125q64 0 90 20t26 90v429h248v-408q0 -71 26.5 -101t118.5 -30
q15 0 28.5 -3.5t24 -13.5t16 -31t5.5 -57q0 -66 -18 -90.5t-56 -24.5q-56 0 -107 18t-85 79q-24 -32 -56 -52t-68.5 -29.5t-75.5 -12.5t-77 -3h-165zM1286 950h-434v156h87q-9 15 -14 43t-5 46q0 51 17 89.5t46 64.5t65 39t76 13q34 0 64 -7.5t50 -14.5v-147q-28 7 -50.5 10
t-31.5 3q-44 0 -62 -20t-18 -48q0 -29 18 -50t74 -21h118v-156z" />
    <glyph glyph-name="uniFC67" unicode="&#xfe8c;&#xfee6;" horiz-adv-x="1817" arabic-form="final" 
d="M404 717q0 55 40 95t96 40q55 0 95 -40t40 -95t-40 -95t-95 -40q-56 0 -96 40t-40 95zM1190 0q-27 0 -73 13.5t-73 49.5q-3 -147 -40.5 -245t-104 -157t-163 -84t-217.5 -25q-257 0 -388 124t-131 370v261h248v-252q0 -133 68.5 -204t205.5 -71q144 0 211.5 60.5
t67.5 201.5v477h245v-166q0 -38 12.5 -64t33 -41t46 -21.5t52.5 -6.5h119q64 0 90 20t26 90v429h248v-408q0 -71 26.5 -101t118.5 -30q15 0 28.5 -3.5t23.5 -13.5t16 -31t6 -57q0 -66 -18 -90.5t-56 -24.5q-56 0 -107 18t-86 79q-23 -32 -55 -52t-68.5 -29.5t-75.5 -12.5
t-77 -3h-159zM1774 950h-434v156h87q-9 15 -14 43t-5 46q0 51 17 89.5t46 64.5t64.5 39t75.5 13q35 0 64.5 -7.5t50.5 -14.5v-147q-28 7 -50.5 10t-31.5 3q-44 0 -62 -20t-18 -48q0 -29 18 -50t74 -21h118v-156z" />
    <glyph glyph-name="uniFC6A" unicode="&#xfe92;&#xfeae;" horiz-adv-x="1329" arabic-form="final" 
d="M696 0q-25 0 -68.5 11.5t-76.5 49.5q-2 -130 -31 -216.5t-86 -140t-144.5 -76.5t-209.5 -25v233q78 2 123.5 17.5t68.5 48.5t30 83.5t7 121.5v568h246v-324q0 -38 12.5 -63t32.5 -40t45.5 -21.5t50.5 -6.5h125q64 0 90 20t26 90v429h248v-408q0 -71 26.5 -101t118.5 -30
q15 0 28.5 -3.5t24 -13.5t16 -31t5.5 -57q0 -66 -18 -90.5t-56 -24.5q-56 0 -107 18t-85 79q-24 -32 -56 -52t-68.5 -29.5t-75.5 -12.5t-77 -3h-165zM925 -315q0 55 40 95t96 40q55 0 95 -40t40 -95t-40 -95t-95 -40q-56 0 -96 40t-40 95z" />
    <glyph glyph-name="uniFC70" unicode="&#xfe98;&#xfeae;" horiz-adv-x="1329" arabic-form="final" 
d="M696 0q-25 0 -68.5 11.5t-76.5 49.5q-2 -130 -31 -216.5t-86 -140t-144.5 -76.5t-209.5 -25v233q78 2 123.5 17.5t68.5 48.5t30 83.5t7 121.5v568h246v-324q0 -38 12.5 -63t32.5 -40t45.5 -21.5t50.5 -6.5h125q64 0 90 20t26 90v429h248v-408q0 -71 26.5 -101t118.5 -30
q15 0 28.5 -3.5t24 -13.5t16 -31t5.5 -57q0 -66 -18 -90.5t-56 -24.5q-56 0 -107 18t-85 79q-24 -32 -56 -52t-68.5 -29.5t-75.5 -12.5t-77 -3h-165zM1065 1088q0 56 40 96t95 40q56 0 96 -40t40 -96q0 -55 -40 -95t-96 -40q-55 0 -95 40t-40 95zM754 1088q0 56 40 96t96 40
q55 0 95 -40t40 -96q0 -55 -40 -95t-95 -40q-56 0 -96 40t-40 95z" />
    <glyph glyph-name="uniFC86" unicode="&#xfee0;&#xfef0;" horiz-adv-x="1986" arabic-form="final" 
d="M1272 0q3 -17 6 -38t3 -50q0 -78 -29.5 -142.5t-104 -112.5t-200 -74.5t-318.5 -26.5q-187 0 -308 35.5t-192.5 97.5t-100 144.5t-28.5 179.5v317h248v-309q0 -124 89.5 -180t295.5 -56q133 0 214 15t126 37.5t59 48t14 43.5q0 25 -25.5 45t-73 39.5t-114.5 37.5t-149 38
v228q126 -41 241.5 -69t204.5 -28h356q64 0 90 20t26 90v1031h248v-1010q0 -34 3.5 -60t18 -41t42 -22.5t73.5 -7.5q15 0 28 -3.5t24 -13.5t16.5 -31t5.5 -57q0 -66 -18 -90.5t-56 -24.5q-55 0 -102.5 18t-82.5 79q-23 -32 -55 -52t-68.5 -29.5t-75.5 -12.5t-77 -3h-254z
" />
    <glyph glyph-name="uniFC87" unicode="&#xfee0;&#xfef2;" horiz-adv-x="1986" arabic-form="final" 
d="M337 -719q0 55 40.5 95t95.5 40t95 -40t40 -95t-40 -95.5t-95 -40.5t-95.5 40.5t-40.5 95.5zM648 -719q0 55 40 95t96 40q55 0 95 -40t40 -95t-40 -95.5t-95 -40.5q-56 0 -96 40.5t-40 95.5zM1272 0q3 -17 6 -38t3 -50q0 -78 -29.5 -142.5t-104 -112.5t-200 -74.5
t-318.5 -26.5q-187 0 -308 35.5t-192.5 97.5t-100 144.5t-28.5 179.5v317h248v-309q0 -124 89.5 -180t295.5 -56q133 0 214 15t126 37.5t59 48t14 43.5q0 25 -25.5 45t-73 39.5t-114.5 37.5t-149 38v228q126 -41 241.5 -69t204.5 -28h356q64 0 90 20t26 90v1031h248v-1010
q0 -34 3.5 -60t18 -41t42 -22.5t73.5 -7.5q15 0 28 -3.5t24 -13.5t16.5 -31t5.5 -57q0 -66 -18 -90.5t-56 -24.5q-55 0 -102.5 18t-82.5 79q-23 -32 -55 -52t-68.5 -29.5t-75.5 -12.5t-77 -3h-254z" />
    <glyph glyph-name="uniFCCC" unicode="&#xfedf;&#xfee4;" horiz-adv-x="1749" arabic-form="initial" 
d="M596 513q-59 -4 -106.5 -61t-82.5 -177q48 -29 97 -49t98 -20q61 0 94 41t33 108q0 29 -7 57t-23.5 51t-42 36.5t-60.5 13.5zM1144 0q-73 0 -134 29.5t-103 90.5q-40 -67 -106 -105t-168 -38q-77 0 -154 23t-163 78q-49 -55 -101 -66.5t-113 -11.5h-101q-15 0 -28 3
t-24 13.5t-16.5 31.5t-5.5 57q0 64 18 89.5t56 25.5h84q51 0 78 37.5t54 110.5q40 116 87.5 188.5t101.5 113.5t108.5 55.5t106.5 14.5q74 0 139 -29t111.5 -80t73 -123.5t26.5 -158.5q0 -14 -0.5 -25t-0.5 -22q25 -47 76 -64.5t98 -17.5h221v1141h251v-1361h-472z" />
    <glyph glyph-name="uniFCFB" unicode="&#xfeb3;&#xfef0;" horiz-adv-x="2959" arabic-form="isolated" 
d="M1272 0q3 -17 6 -38t3 -50q0 -78 -29.5 -142.5t-104 -112.5t-200 -74.5t-318.5 -26.5q-187 0 -308 35.5t-192.5 97.5t-100 144.5t-28.5 179.5v317h248v-309q0 -124 89.5 -180t295.5 -56q133 0 214 15t126 37.5t59 48t14 43.5q0 25 -25.5 45t-73 39.5t-114.5 37.5t-149 38
v228q126 -41 241.5 -69t204.5 -28h318q41 0 68.5 1.5t45 11t25.5 27.5t8 51v364h244v-324q0 -61 33 -96t103 -35q56 0 95 16.5t39 74.5v364h248v-324q0 -131 113 -131h118v539h248v-759h-293q-100 0 -152 23.5t-88 75.5q-28 -36 -60.5 -56t-67 -29.5t-67.5 -11.5t-64 -2
q-97 0 -163 31.5t-95 67.5q-51 -66 -133 -82.5t-209 -16.5h-172z" />
    <glyph glyph-name="uniFCFC" unicode="&#xfeb3;&#xfef2;" horiz-adv-x="2959" arabic-form="isolated" 
d="M337 -719q0 55 40.5 95t95.5 40t95 -40t40 -95t-40 -95.5t-95 -40.5t-95.5 40.5t-40.5 95.5zM648 -719q0 55 40 95t96 40q55 0 95 -40t40 -95t-40 -95.5t-95 -40.5q-56 0 -96 40.5t-40 95.5zM1272 0q3 -17 6 -38t3 -50q0 -78 -29.5 -142.5t-104 -112.5t-200 -74.5
t-318.5 -26.5q-187 0 -308 35.5t-192.5 97.5t-100 144.5t-28.5 179.5v317h248v-309q0 -124 89.5 -180t295.5 -56q133 0 214 15t126 37.5t59 48t14 43.5q0 25 -25.5 45t-73 39.5t-114.5 37.5t-149 38v228q126 -41 241.5 -69t204.5 -28h318q41 0 68.5 1.5t45 11t25.5 27.5
t8 51v364h244v-324q0 -61 33 -96t103 -35q56 0 95 16.5t39 74.5v364h248v-324q0 -131 113 -131h118v539h248v-759h-293q-100 0 -152 23.5t-88 75.5q-28 -36 -60.5 -56t-67 -29.5t-67.5 -11.5t-64 -2q-97 0 -163 31.5t-95 67.5q-51 -66 -133 -82.5t-209 -16.5h-172z" />
    <glyph glyph-name="uniFCFD" unicode="&#xfeb7;&#xfef0;" horiz-adv-x="2959" arabic-form="isolated" 
d="M1272 0q3 -17 6 -38t3 -50q0 -78 -29.5 -142.5t-104 -112.5t-200 -74.5t-318.5 -26.5q-187 0 -308 35.5t-192.5 97.5t-100 144.5t-28.5 179.5v317h248v-309q0 -124 89.5 -180t295.5 -56q133 0 214 15t126 37.5t59 48t14 43.5q0 25 -25.5 45t-73 39.5t-114.5 37.5t-149 38
v228q126 -41 241.5 -69t204.5 -28h318q41 0 68.5 1.5t45 11t25.5 27.5t8 51v364h244v-324q0 -61 33 -96t103 -35q56 0 95 16.5t39 74.5v364h248v-324q0 -131 113 -131h118v539h248v-759h-293q-100 0 -152 23.5t-88 75.5q-28 -36 -60.5 -56t-67 -29.5t-67.5 -11.5t-64 -2
q-97 0 -163 31.5t-95 67.5q-51 -66 -133 -82.5t-209 -16.5h-172zM2094 1365q0 56 40 96t96 40q54 0 94.5 -40t40.5 -96q0 -55 -40.5 -95t-94.5 -40q-56 0 -96 40t-40 95zM2244 1088q0 56 40 96t95 40q56 0 96 -40t40 -96q0 -55 -40 -95t-96 -40q-55 0 -95 40t-40 95z
M1933 1088q0 56 40.5 96t94.5 40q56 0 96 -40t40 -96q0 -55 -40 -95t-96 -40q-54 0 -94.5 40t-40.5 95z" />
    <glyph glyph-name="uniFCFE" unicode="&#xfeb7;&#xfef2;" horiz-adv-x="2959" arabic-form="isolated" 
d="M337 -719q0 55 40.5 95t95.5 40t95 -40t40 -95t-40 -95.5t-95 -40.5t-95.5 40.5t-40.5 95.5zM648 -719q0 55 40 95t96 40q55 0 95 -40t40 -95t-40 -95.5t-95 -40.5q-56 0 -96 40.5t-40 95.5zM1272 0q3 -17 6 -38t3 -50q0 -78 -29.5 -142.5t-104 -112.5t-200 -74.5
t-318.5 -26.5q-187 0 -308 35.5t-192.5 97.5t-100 144.5t-28.5 179.5v317h248v-309q0 -124 89.5 -180t295.5 -56q133 0 214 15t126 37.5t59 48t14 43.5q0 25 -25.5 45t-73 39.5t-114.5 37.5t-149 38v228q126 -41 241.5 -69t204.5 -28h318q41 0 68.5 1.5t45 11t25.5 27.5
t8 51v364h244v-324q0 -61 33 -96t103 -35q56 0 95 16.5t39 74.5v364h248v-324q0 -131 113 -131h118v539h248v-759h-293q-100 0 -152 23.5t-88 75.5q-28 -36 -60.5 -56t-67 -29.5t-67.5 -11.5t-64 -2q-97 0 -163 31.5t-95 67.5q-51 -66 -133 -82.5t-209 -16.5h-172z
M2094 1365q0 56 40 96t96 40q54 0 94.5 -40t40.5 -96q0 -55 -40.5 -95t-94.5 -40q-56 0 -96 40t-40 95zM2244 1088q0 56 40 96t95 40q56 0 96 -40t40 -96q0 -55 -40 -95t-96 -40q-55 0 -95 40t-40 95zM1933 1088q0 56 40.5 96t94.5 40q56 0 96 -40t40 -96q0 -55 -40 -95
t-96 -40q-54 0 -94.5 40t-40.5 95z" />
    <glyph glyph-name="uniFD05" unicode="&#xfebb;&#xfef0;" horiz-adv-x="3172" arabic-form="isolated" 
d="M2803 220v89q0 97 -43 160t-152 63q-65 0 -121.5 -26t-105.5 -68.5t-86.5 -99t-59.5 -118.5h568zM1272 0q3 -17 6 -38t3 -50q0 -78 -29.5 -142.5t-104 -112.5t-200 -74.5t-318.5 -26.5q-187 0 -308 35.5t-192.5 97.5t-100 144.5t-28.5 179.5v317h248v-309
q0 -124 89.5 -180t295.5 -56q133 0 214 15t126 37.5t59 48t14 43.5q0 25 -25.5 45t-73 39.5t-114.5 37.5t-149 38v228q126 -41 241.5 -69t204.5 -28h318q41 0 68.5 1.5t45 11t25.5 27.5t8 51v364h244v-324q0 -61 33 -95t115 -34q38 109 99 210t143 179.5t185 125.5t223 47
q191 0 301.5 -115.5t110.5 -326.5v-342h-999q-97 0 -165 31.5t-99 67.5q-51 -66 -133 -82.5t-209 -16.5h-172z" />
    <glyph glyph-name="uniFD06" unicode="&#xfebb;&#xfef2;" horiz-adv-x="3172" arabic-form="isolated" 
d="M337 -719q0 55 40.5 95t95.5 40t95 -40t40 -95t-40 -95.5t-95 -40.5t-95.5 40.5t-40.5 95.5zM648 -719q0 55 40 95t96 40q55 0 95 -40t40 -95t-40 -95.5t-95 -40.5q-56 0 -96 40.5t-40 95.5zM2803 220v89q0 97 -43 160t-152 63q-65 0 -121.5 -26t-105.5 -68.5t-86.5 -99
t-59.5 -118.5h568zM1272 0q3 -17 6 -38t3 -50q0 -78 -29.5 -142.5t-104 -112.5t-200 -74.5t-318.5 -26.5q-187 0 -308 35.5t-192.5 97.5t-100 144.5t-28.5 179.5v317h248v-309q0 -124 89.5 -180t295.5 -56q133 0 214 15t126 37.5t59 48t14 43.5q0 25 -25.5 45t-73 39.5
t-114.5 37.5t-149 38v228q126 -41 241.5 -69t204.5 -28h318q41 0 68.5 1.5t45 11t25.5 27.5t8 51v364h244v-324q0 -61 33 -95t115 -34q38 109 99 210t143 179.5t185 125.5t223 47q191 0 301.5 -115.5t110.5 -326.5v-342h-999q-97 0 -165 31.5t-99 67.5q-51 -66 -133 -82.5
t-209 -16.5h-172z" />
    <glyph glyph-name="uniFD07" unicode="&#xfebf;&#xfef0;" horiz-adv-x="3172" arabic-form="isolated" 
d="M2803 220v89q0 97 -43 160t-152 63q-65 0 -121.5 -26t-105.5 -68.5t-86.5 -99t-59.5 -118.5h568zM1272 0q3 -17 6 -38t3 -50q0 -78 -29.5 -142.5t-104 -112.5t-200 -74.5t-318.5 -26.5q-187 0 -308 35.5t-192.5 97.5t-100 144.5t-28.5 179.5v317h248v-309
q0 -124 89.5 -180t295.5 -56q133 0 214 15t126 37.5t59 48t14 43.5q0 25 -25.5 45t-73 39.5t-114.5 37.5t-149 38v228q126 -41 241.5 -69t204.5 -28h318q41 0 68.5 1.5t45 11t25.5 27.5t8 51v364h244v-324q0 -61 33 -95t115 -34q38 109 99 210t143 179.5t185 125.5t223 47
q191 0 301.5 -115.5t110.5 -326.5v-342h-999q-97 0 -165 31.5t-99 67.5q-51 -66 -133 -82.5t-209 -16.5h-172zM2473 1088q0 56 40 96t95 40t95 -40t40 -96q0 -55 -40 -95t-95 -40t-95 40t-40 95z" />
    <glyph glyph-name="uniFD08" unicode="&#xfebf;&#xfef2;" horiz-adv-x="3172" arabic-form="isolated" 
d="M337 -719q0 55 40.5 95t95.5 40t95 -40t40 -95t-40 -95.5t-95 -40.5t-95.5 40.5t-40.5 95.5zM648 -719q0 55 40 95t96 40q55 0 95 -40t40 -95t-40 -95.5t-95 -40.5q-56 0 -96 40.5t-40 95.5zM2803 220v89q0 97 -43 160t-152 63q-65 0 -121.5 -26t-105.5 -68.5t-86.5 -99
t-59.5 -118.5h568zM1272 0q3 -17 6 -38t3 -50q0 -78 -29.5 -142.5t-104 -112.5t-200 -74.5t-318.5 -26.5q-187 0 -308 35.5t-192.5 97.5t-100 144.5t-28.5 179.5v317h248v-309q0 -124 89.5 -180t295.5 -56q133 0 214 15t126 37.5t59 48t14 43.5q0 25 -25.5 45t-73 39.5
t-114.5 37.5t-149 38v228q126 -41 241.5 -69t204.5 -28h318q41 0 68.5 1.5t45 11t25.5 27.5t8 51v364h244v-324q0 -61 33 -95t115 -34q38 109 99 210t143 179.5t185 125.5t223 47q191 0 301.5 -115.5t110.5 -326.5v-342h-999q-97 0 -165 31.5t-99 67.5q-51 -66 -133 -82.5
t-209 -16.5h-172zM2473 1088q0 56 40 96t95 40t95 -40t40 -96q0 -55 -40 -95t-95 -40t-95 40t-40 95z" />
    <glyph glyph-name="uniFD0D" unicode="&#xfeb7;&#xfeae;" horiz-adv-x="2294" arabic-form="isolated" 
d="M696 0q-25 0 -68.5 11.5t-76.5 49.5q-2 -130 -31 -216.5t-86 -140t-144.5 -76.5t-209.5 -25v233q78 2 123.5 17.5t68.5 48.5t30 83.5t7 121.5v568h246v-324q0 -38 12.5 -63t32.5 -40t45.5 -21.5t50.5 -6.5h87q42 0 69.5 1.5t44.5 11t25 27.5t8 51v364h244v-324
q0 -61 33 -96t104 -35q56 0 94.5 16.5t38.5 74.5v364h248v-324q0 -131 113 -131h118v539h248v-759h-292q-101 0 -152.5 23.5t-88.5 75.5q-28 -36 -60.5 -56t-67 -29.5t-67.5 -11.5t-63 -2q-98 0 -163.5 31.5t-94.5 67.5q-52 -66 -133.5 -82.5t-209.5 -16.5h-83zM1429 1365
q0 56 40 96t96 40q55 0 95 -40t40 -96q0 -55 -40 -95t-95 -40q-56 0 -96 40t-40 95zM1580 1088q0 56 40 96t95 40q56 0 96 -40t40 -96q0 -55 -40 -95t-96 -40q-55 0 -95 40t-40 95zM1269 1088q0 56 40 96t95 40q56 0 96 -40t40 -96q0 -55 -40 -95t-96 -40q-55 0 -95 40
t-40 95z" />
    <glyph glyph-name="uniFD0E" unicode="&#xfeb3;&#xfeae;" horiz-adv-x="2294" arabic-form="isolated" 
d="M696 0q-25 0 -68.5 11.5t-76.5 49.5q-2 -130 -31 -216.5t-86 -140t-144.5 -76.5t-209.5 -25v233q78 2 123.5 17.5t68.5 48.5t30 83.5t7 121.5v568h246v-324q0 -38 12.5 -63t32.5 -40t45.5 -21.5t50.5 -6.5h87q42 0 69.5 1.5t44.5 11t25 27.5t8 51v364h244v-324
q0 -61 33 -96t104 -35q56 0 94.5 16.5t38.5 74.5v364h248v-324q0 -131 113 -131h118v539h248v-759h-292q-101 0 -152.5 23.5t-88.5 75.5q-28 -36 -60.5 -56t-67 -29.5t-67.5 -11.5t-63 -2q-98 0 -163.5 31.5t-94.5 67.5q-52 -66 -133.5 -82.5t-209.5 -16.5h-83z" />
    <glyph glyph-name="uniFD0F" unicode="&#xfebb;&#xfeae;" horiz-adv-x="2507" arabic-form="isolated" 
d="M2138 220v89q0 97 -42.5 160t-151.5 63q-65 0 -122 -26t-106 -68.5t-86 -99t-60 -118.5h568zM696 0q-25 0 -68.5 11.5t-76.5 49.5q-2 -130 -31 -216.5t-86 -140t-144.5 -76.5t-209.5 -25v233q78 2 123.5 17.5t68.5 48.5t30 83.5t7 121.5v568h246v-324q0 -38 12.5 -63
t32.5 -40t45.5 -21.5t50.5 -6.5h87q42 0 69.5 1.5t44.5 11t25 27.5t8 51v364h244v-324q0 -61 33 -95t115 -34q38 109 99 210t143.5 179.5t185 125.5t223.5 47q190 0 300.5 -115.5t110.5 -326.5v-342h-999q-97 0 -165 31.5t-98 67.5q-52 -66 -133.5 -82.5t-209.5 -16.5h-83z
" />
    <glyph glyph-name="uniFD10" unicode="&#xfebf;&#xfeae;" horiz-adv-x="2507" arabic-form="isolated" 
d="M2138 220v89q0 97 -42.5 160t-151.5 63q-65 0 -122 -26t-106 -68.5t-86 -99t-60 -118.5h568zM696 0q-25 0 -68.5 11.5t-76.5 49.5q-2 -130 -31 -216.5t-86 -140t-144.5 -76.5t-209.5 -25v233q78 2 123.5 17.5t68.5 48.5t30 83.5t7 121.5v568h246v-324q0 -38 12.5 -63
t32.5 -40t45.5 -21.5t50.5 -6.5h87q42 0 69.5 1.5t44.5 11t25 27.5t8 51v364h244v-324q0 -61 33 -95t115 -34q38 109 99 210t143.5 179.5t185 125.5t223.5 47q190 0 300.5 -115.5t110.5 -326.5v-342h-999q-97 0 -165 31.5t-98 67.5q-52 -66 -133.5 -82.5t-209.5 -16.5h-83z
M1809 1088q0 56 40 96t95 40t95 -40t40 -96q0 -55 -40 -95t-95 -40t-95 40t-40 95z" />
    <glyph glyph-name="uniFD17" unicode="&#xfeb4;&#xfef0;" horiz-adv-x="2987" arabic-form="final" 
d="M1272 0q3 -17 6 -38t3 -50q0 -78 -29.5 -142.5t-104 -112.5t-200 -74.5t-318.5 -26.5q-187 0 -308 35.5t-192.5 97.5t-100 144.5t-28.5 179.5v317h248v-309q0 -124 89.5 -180t295.5 -56q133 0 214 15t126 37.5t59 48t14 43.5q0 25 -25.5 45t-73 39.5t-114.5 37.5t-149 38
v228q126 -41 241.5 -69t204.5 -28h306q42 0 69.5 1.5t45 11t25 27.5t7.5 51v364h245v-324q0 -61 33.5 -96t102.5 -35q57 0 96 16.5t39 74.5v364h246v-324q0 -67 30 -99t98 -32q53 0 86 17.5t33 79.5v442h245v-408q0 -71 28.5 -101t122.5 -30q15 0 28.5 -3.5t24 -13.5t16 -31
t5.5 -57q0 -66 -18 -90.5t-56 -24.5q-56 0 -109 20t-87 81q-56 -67 -120.5 -84t-135.5 -17q-53 0 -123 22t-119 77q-59 -65 -119 -82t-131 -17q-187 0 -269 99q-51 -66 -133 -82.5t-210 -16.5h-160z" />
    <glyph glyph-name="uniFD18" unicode="&#xfeb4;&#xfef2;" horiz-adv-x="2987" arabic-form="final" 
d="M337 -719q0 55 40.5 95t95.5 40t95 -40t40 -95t-40 -95.5t-95 -40.5t-95.5 40.5t-40.5 95.5zM648 -719q0 55 40 95t96 40q55 0 95 -40t40 -95t-40 -95.5t-95 -40.5q-56 0 -96 40.5t-40 95.5zM1272 0q3 -17 6 -38t3 -50q0 -78 -29.5 -142.5t-104 -112.5t-200 -74.5
t-318.5 -26.5q-187 0 -308 35.5t-192.5 97.5t-100 144.5t-28.5 179.5v317h248v-309q0 -124 89.5 -180t295.5 -56q133 0 214 15t126 37.5t59 48t14 43.5q0 25 -25.5 45t-73 39.5t-114.5 37.5t-149 38v228q126 -41 241.5 -69t204.5 -28h306q42 0 69.5 1.5t45 11t25 27.5
t7.5 51v364h245v-324q0 -61 33.5 -96t102.5 -35q57 0 96 16.5t39 74.5v364h246v-324q0 -67 30 -99t98 -32q53 0 86 17.5t33 79.5v442h245v-408q0 -71 28.5 -101t122.5 -30q15 0 28.5 -3.5t24 -13.5t16 -31t5.5 -57q0 -66 -18 -90.5t-56 -24.5q-56 0 -109 20t-87 81
q-56 -67 -120.5 -84t-135.5 -17q-53 0 -123 22t-119 77q-59 -65 -119 -82t-131 -17q-187 0 -269 99q-51 -66 -133 -82.5t-210 -16.5h-160z" />
    <glyph glyph-name="uniFD19" unicode="&#xfeb8;&#xfef0;" horiz-adv-x="2987" arabic-form="final" 
d="M1272 0q3 -17 6 -38t3 -50q0 -78 -29.5 -142.5t-104 -112.5t-200 -74.5t-318.5 -26.5q-187 0 -308 35.5t-192.5 97.5t-100 144.5t-28.5 179.5v317h248v-309q0 -124 89.5 -180t295.5 -56q133 0 214 15t126 37.5t59 48t14 43.5q0 25 -25.5 45t-73 39.5t-114.5 37.5t-149 38
v228q126 -41 241.5 -69t204.5 -28h306q42 0 69.5 1.5t45 11t25 27.5t7.5 51v364h245v-324q0 -61 33.5 -96t102.5 -35q57 0 96 16.5t39 74.5v364h246v-324q0 -67 30 -99t98 -32q53 0 86 17.5t33 79.5v442h245v-408q0 -71 28.5 -101t122.5 -30q15 0 28.5 -3.5t24 -13.5t16 -31
t5.5 -57q0 -66 -18 -90.5t-56 -24.5q-56 0 -109 20t-87 81q-56 -67 -120.5 -84t-135.5 -17q-53 0 -123 22t-119 77q-59 -65 -119 -82t-131 -17q-187 0 -269 99q-51 -66 -133 -82.5t-210 -16.5h-160zM2094 1365q0 56 40 96t96 40q54 0 94.5 -40t40.5 -96q0 -55 -40.5 -95
t-94.5 -40q-56 0 -96 40t-40 95zM2244 1088q0 56 40 96t95 40q56 0 96 -40t40 -96q0 -55 -40 -95t-96 -40q-55 0 -95 40t-40 95zM1933 1088q0 56 40.5 96t94.5 40q56 0 96 -40t40 -96q0 -55 -40 -95t-96 -40q-54 0 -94.5 40t-40.5 95z" />
    <glyph glyph-name="uniFD1A" unicode="&#xfeb8;&#xfef2;" horiz-adv-x="2987" arabic-form="final" 
d="M337 -719q0 55 40.5 95t95.5 40t95 -40t40 -95t-40 -95.5t-95 -40.5t-95.5 40.5t-40.5 95.5zM648 -719q0 55 40 95t96 40q55 0 95 -40t40 -95t-40 -95.5t-95 -40.5q-56 0 -96 40.5t-40 95.5zM1272 0q3 -17 6 -38t3 -50q0 -78 -29.5 -142.5t-104 -112.5t-200 -74.5
t-318.5 -26.5q-187 0 -308 35.5t-192.5 97.5t-100 144.5t-28.5 179.5v317h248v-309q0 -124 89.5 -180t295.5 -56q133 0 214 15t126 37.5t59 48t14 43.5q0 25 -25.5 45t-73 39.5t-114.5 37.5t-149 38v228q126 -41 241.5 -69t204.5 -28h306q42 0 69.5 1.5t45 11t25 27.5
t7.5 51v364h245v-324q0 -61 33.5 -96t102.5 -35q57 0 96 16.5t39 74.5v364h246v-324q0 -67 30 -99t98 -32q53 0 86 17.5t33 79.5v442h245v-408q0 -71 28.5 -101t122.5 -30q15 0 28.5 -3.5t24 -13.5t16 -31t5.5 -57q0 -66 -18 -90.5t-56 -24.5q-56 0 -109 20t-87 81
q-56 -67 -120.5 -84t-135.5 -17q-53 0 -123 22t-119 77q-59 -65 -119 -82t-131 -17q-187 0 -269 99q-51 -66 -133 -82.5t-210 -16.5h-160zM2094 1365q0 56 40 96t96 40q54 0 94.5 -40t40.5 -96q0 -55 -40.5 -95t-94.5 -40q-56 0 -96 40t-40 95zM2244 1088q0 56 40 96t95 40
q56 0 96 -40t40 -96q0 -55 -40 -95t-96 -40q-55 0 -95 40t-40 95zM1933 1088q0 56 40.5 96t94.5 40q56 0 96 -40t40 -96q0 -55 -40 -95t-96 -40q-54 0 -94.5 40t-40.5 95z" />
    <glyph glyph-name="uniFD21" unicode="&#xfebc;&#xfef0;" horiz-adv-x="3199" arabic-form="final" 
d="M2803 220v89q0 97 -43 160t-152 63q-65 0 -121.5 -26t-105.5 -68.5t-86.5 -99t-59.5 -118.5h568zM1272 0q3 -17 6 -38t3 -50q0 -78 -29.5 -142.5t-104 -112.5t-200 -74.5t-318.5 -26.5q-187 0 -308 35.5t-192.5 97.5t-100 144.5t-28.5 179.5v317h248v-309
q0 -124 89.5 -180t295.5 -56q133 0 214 15t126 37.5t59 48t14 43.5q0 25 -25.5 45t-73 39.5t-114.5 37.5t-149 38v228q126 -41 241.5 -69t204.5 -28h318q41 0 68.5 1.5t45 11t25.5 27.5t8 51v364h245v-324q0 -61 30.5 -95t116.5 -34q38 109 99 210t143 179.5t185 125.5
t223 47q191 0 301.5 -115.5t110.5 -326.5v-122h151q14 0 27.5 -3.5t24.5 -13.5t16.5 -31t5.5 -57q0 -66 -18 -90.5t-56 -24.5h-1150q-97 0 -165 31.5t-99 67.5q-49 -66 -131 -82.5t-211 -16.5h-172z" />
    <glyph glyph-name="uniFD22" unicode="&#xfebc;&#xfef2;" horiz-adv-x="3199" arabic-form="final" 
d="M337 -719q0 55 40.5 95t95.5 40t95 -40t40 -95t-40 -95.5t-95 -40.5t-95.5 40.5t-40.5 95.5zM648 -719q0 55 40 95t96 40q55 0 95 -40t40 -95t-40 -95.5t-95 -40.5q-56 0 -96 40.5t-40 95.5zM2803 220v89q0 97 -43 160t-152 63q-65 0 -121.5 -26t-105.5 -68.5t-86.5 -99
t-59.5 -118.5h568zM1272 0q3 -17 6 -38t3 -50q0 -78 -29.5 -142.5t-104 -112.5t-200 -74.5t-318.5 -26.5q-187 0 -308 35.5t-192.5 97.5t-100 144.5t-28.5 179.5v317h248v-309q0 -124 89.5 -180t295.5 -56q133 0 214 15t126 37.5t59 48t14 43.5q0 25 -25.5 45t-73 39.5
t-114.5 37.5t-149 38v228q126 -41 241.5 -69t204.5 -28h318q41 0 68.5 1.5t45 11t25.5 27.5t8 51v364h245v-324q0 -61 30.5 -95t116.5 -34q38 109 99 210t143 179.5t185 125.5t223 47q191 0 301.5 -115.5t110.5 -326.5v-122h151q14 0 27.5 -3.5t24.5 -13.5t16.5 -31t5.5 -57
q0 -66 -18 -90.5t-56 -24.5h-1150q-97 0 -165 31.5t-99 67.5q-49 -66 -131 -82.5t-211 -16.5h-172z" />
    <glyph glyph-name="uniFD23" unicode="&#xfec0;&#xfef0;" horiz-adv-x="3199" arabic-form="final" 
d="M2803 220v89q0 97 -43 160t-152 63q-65 0 -121.5 -26t-105.5 -68.5t-86.5 -99t-59.5 -118.5h568zM1272 0q3 -17 6 -38t3 -50q0 -78 -29.5 -142.5t-104 -112.5t-200 -74.5t-318.5 -26.5q-187 0 -308 35.5t-192.5 97.5t-100 144.5t-28.5 179.5v317h248v-309
q0 -124 89.5 -180t295.5 -56q133 0 214 15t126 37.5t59 48t14 43.5q0 25 -25.5 45t-73 39.5t-114.5 37.5t-149 38v228q126 -41 241.5 -69t204.5 -28h318q41 0 68.5 1.5t45 11t25.5 27.5t8 51v364h245v-324q0 -61 30.5 -95t116.5 -34q38 109 99 210t143 179.5t185 125.5
t223 47q191 0 301.5 -115.5t110.5 -326.5v-122h151q14 0 27.5 -3.5t24.5 -13.5t16.5 -31t5.5 -57q0 -66 -18 -90.5t-56 -24.5h-1150q-97 0 -165 31.5t-99 67.5q-49 -66 -131 -82.5t-211 -16.5h-172zM2499 1088q0 56 40.5 96t95.5 40t95 -40t40 -96q0 -55 -40 -95t-95 -40
t-95.5 40t-40.5 95z" />
    <glyph glyph-name="uniFD24" unicode="&#xfec0;&#xfef2;" horiz-adv-x="3199" arabic-form="final" 
d="M337 -719q0 55 40.5 95t95.5 40t95 -40t40 -95t-40 -95.5t-95 -40.5t-95.5 40.5t-40.5 95.5zM648 -719q0 55 40 95t96 40q55 0 95 -40t40 -95t-40 -95.5t-95 -40.5q-56 0 -96 40.5t-40 95.5zM2803 220v89q0 97 -43 160t-152 63q-65 0 -121.5 -26t-105.5 -68.5t-86.5 -99
t-59.5 -118.5h568zM1272 0q3 -17 6 -38t3 -50q0 -78 -29.5 -142.5t-104 -112.5t-200 -74.5t-318.5 -26.5q-187 0 -308 35.5t-192.5 97.5t-100 144.5t-28.5 179.5v317h248v-309q0 -124 89.5 -180t295.5 -56q133 0 214 15t126 37.5t59 48t14 43.5q0 25 -25.5 45t-73 39.5
t-114.5 37.5t-149 38v228q126 -41 241.5 -69t204.5 -28h318q41 0 68.5 1.5t45 11t25.5 27.5t8 51v364h245v-324q0 -61 30.5 -95t116.5 -34q38 109 99 210t143 179.5t185 125.5t223 47q191 0 301.5 -115.5t110.5 -326.5v-122h151q14 0 27.5 -3.5t24.5 -13.5t16.5 -31t5.5 -57
q0 -66 -18 -90.5t-56 -24.5h-1150q-97 0 -165 31.5t-99 67.5q-49 -66 -131 -82.5t-211 -16.5h-172zM2499 1088q0 56 40.5 96t95.5 40t95 -40t40 -96q0 -55 -40 -95t-95 -40t-95.5 40t-40.5 95z" />
    <glyph glyph-name="uniFD29" unicode="&#xfeb8;&#xfeae;" horiz-adv-x="2322" arabic-form="final" 
d="M696 0q-25 0 -68.5 11.5t-76.5 49.5q-2 -130 -31 -216.5t-86 -140t-144.5 -76.5t-209.5 -25v233q78 2 123.5 17.5t68.5 48.5t30 83.5t7 121.5v568h246v-324q0 -38 12.5 -63t32.5 -40t45.5 -21.5t50.5 -6.5h76q42 0 69 1.5t44.5 11t25 27.5t7.5 51v364h246v-324
q0 -61 33.5 -96t101.5 -35q57 0 96 16.5t39 74.5v364h246v-324q0 -67 30 -99t99 -32q53 0 85.5 17.5t32.5 79.5v442h246v-408q0 -71 28 -101t122 -30q15 0 28.5 -3.5t24 -13.5t16 -31t5.5 -57q0 -66 -17.5 -90.5t-56.5 -24.5q-55 0 -108 20t-88 81q-56 -67 -120.5 -84
t-135.5 -17q-53 0 -123 22t-119 77q-59 -65 -119 -82t-130 -17q-188 0 -269 99q-52 -66 -134 -82.5t-210 -16.5h-71zM1429 1365q0 56 40 96t96 40q55 0 95 -40t40 -96q0 -55 -40 -95t-95 -40q-56 0 -96 40t-40 95zM1580 1088q0 56 40 96t95 40q56 0 96 -40t40 -96
q0 -55 -40 -95t-96 -40q-55 0 -95 40t-40 95zM1269 1088q0 56 40 96t95 40q56 0 96 -40t40 -96q0 -55 -40 -95t-96 -40q-55 0 -95 40t-40 95z" />
    <glyph glyph-name="uniFD2A" unicode="&#xfeb4;&#xfeae;" horiz-adv-x="2322" arabic-form="final" 
d="M696 0q-25 0 -68.5 11.5t-76.5 49.5q-2 -130 -31 -216.5t-86 -140t-144.5 -76.5t-209.5 -25v233q78 2 123.5 17.5t68.5 48.5t30 83.5t7 121.5v568h246v-324q0 -38 12.5 -63t32.5 -40t45.5 -21.5t50.5 -6.5h76q42 0 69 1.5t44.5 11t25 27.5t7.5 51v364h246v-324
q0 -61 33.5 -96t101.5 -35q57 0 96 16.5t39 74.5v364h246v-324q0 -67 30 -99t99 -32q53 0 85.5 17.5t32.5 79.5v442h246v-408q0 -71 28 -101t122 -30q15 0 28.5 -3.5t24 -13.5t16 -31t5.5 -57q0 -66 -17.5 -90.5t-56.5 -24.5q-55 0 -108 20t-88 81q-56 -67 -120.5 -84
t-135.5 -17q-53 0 -123 22t-119 77q-59 -65 -119 -82t-130 -17q-188 0 -269 99q-52 -66 -134 -82.5t-210 -16.5h-71z" />
    <glyph glyph-name="uniFD2B" unicode="&#xfebc;&#xfeae;" horiz-adv-x="2534" arabic-form="final" 
d="M2138 220v89q0 97 -42.5 160t-151.5 63q-65 0 -122 -26t-106 -68.5t-86 -99t-60 -118.5h568zM696 0q-25 0 -68.5 11.5t-76.5 49.5q-2 -130 -31 -216.5t-86 -140t-144.5 -76.5t-209.5 -25v233q78 2 123.5 17.5t68.5 48.5t30 83.5t7 121.5v568h246v-324q0 -38 12.5 -63
t32.5 -40t45.5 -21.5t50.5 -6.5h87q42 0 69.5 1.5t44.5 11t25 27.5t8 51v364h246v-324q0 -61 30 -95t116 -34q38 109 99 210t143.5 179.5t185 125.5t223.5 47q190 0 300.5 -115.5t110.5 -326.5v-122h151q15 0 28.5 -3.5t24 -13.5t16 -31t5.5 -57q0 -66 -18 -90.5t-56 -24.5
h-1150q-97 0 -165 31.5t-98 67.5q-50 -66 -131.5 -82.5t-211.5 -16.5h-83z" />
    <glyph glyph-name="uniFD2C" unicode="&#xfec0;&#xfeae;" horiz-adv-x="2534" arabic-form="final" 
d="M2138 220v89q0 97 -42.5 160t-151.5 63q-65 0 -122 -26t-106 -68.5t-86 -99t-60 -118.5h568zM696 0q-25 0 -68.5 11.5t-76.5 49.5q-2 -130 -31 -216.5t-86 -140t-144.5 -76.5t-209.5 -25v233q78 2 123.5 17.5t68.5 48.5t30 83.5t7 121.5v568h246v-324q0 -38 12.5 -63
t32.5 -40t45.5 -21.5t50.5 -6.5h87q42 0 69.5 1.5t44.5 11t25 27.5t8 51v364h246v-324q0 -61 30 -95t116 -34q38 109 99 210t143.5 179.5t185 125.5t223.5 47q190 0 300.5 -115.5t110.5 -326.5v-122h151q15 0 28.5 -3.5t24 -13.5t16 -31t5.5 -57q0 -66 -18 -90.5t-56 -24.5
h-1150q-97 0 -165 31.5t-98 67.5q-50 -66 -131.5 -82.5t-211.5 -16.5h-83zM1835 1088q0 56 40 96t96 40q55 0 95 -40t40 -96q0 -55 -40 -95t-95 -40q-56 0 -96 40t-40 95z" />
    <glyph glyph-name="uniFEF5" unicode="&#xfedf;&#xfe82;" horiz-adv-x="1226" arabic-form="isolated" 
d="M1093 1361v-1361h-986v220h243v863h249v-863h244v1141h250zM75 1350q55 53 99 70t83 17q38 0 88 -18t92 -38q42 -22 80 -33t65 -11q37 0 59.5 27.5t32.5 57.5l99 -43q-32 -84 -74 -130t-117 -46q-54 0 -99.5 14.5t-89.5 35.5q-42 19 -80 33t-70 14q-27 0 -50 -8.5
t-57 -32.5z" />
    <glyph glyph-name="uniFEF6" unicode="&#xfee0;&#xfe82;" horiz-adv-x="1210" arabic-form="final" 
d="M1212 0q-56 0 -109 18t-88 79q-23 -32 -54 -52t-67.5 -29.5t-75.5 -12.5t-79 -3h-632v220h219v863h249v-863h124q64 0 90 20t26 90v1031h248v-1010q0 -71 28 -101t121 -30q15 0 28.5 -3.5t23.5 -13.5t15.5 -31t5.5 -57q0 -66 -17.5 -90.5t-55.5 -24.5zM75 1350
q55 53 99 70t83 17q38 0 88 -18t92 -38q42 -22 80 -33t65 -11q37 0 59.5 27.5t32.5 57.5l99 -43q-32 -84 -74 -130t-117 -46q-54 0 -99.5 14.5t-89.5 35.5q-42 19 -80 33t-70 14q-27 0 -50 -8.5t-57 -32.5z" />
    <glyph glyph-name="uniFEF7" unicode="&#xfedf;&#xfe84;" horiz-adv-x="1225" arabic-form="isolated" 
d="M1092 1361v-1361h-987v220h243v863h250v-863h244v1141h250zM648 1192h-373v133h76q-9 14 -12.5 38.5t-3.5 39.5q0 44 14.5 77.5t39 55t55.5 33.5t64 12q31 0 55.5 -5.5t43.5 -14.5v-126q-50 12 -70 12q-37 0 -53 -17t-16 -42q0 -27 16 -45t62 -18h102v-133z" />
    <glyph glyph-name="uniFEF8" unicode="&#xfee0;&#xfe84;" horiz-adv-x="1209" arabic-form="final" 
d="M1210 0q-55 0 -108.5 18t-88.5 79q-23 -32 -54 -52t-67.5 -29.5t-75.5 -12.5t-79 -3h-632v220h220v863h248v-863h124q65 0 90.5 20t25.5 90v1031h248v-1010q0 -71 29 -101t120 -30q15 0 28.5 -3.5t23.5 -13.5t16 -31t6 -57q0 -66 -18 -90.5t-56 -24.5zM648 1192h-373v133
h76q-9 14 -12.5 38.5t-3.5 39.5q0 44 14.5 77.5t39 55t55.5 33.5t64 12q31 0 55.5 -5.5t43.5 -14.5v-126q-50 12 -70 12q-37 0 -53 -17t-16 -42q0 -27 16 -45t62 -18h102v-133z" />
    <glyph glyph-name="uniFEF9" unicode="&#xfedf;&#xfe88;" horiz-adv-x="1225" arabic-form="isolated" 
d="M1092 1361v-1361h-987v220h243v863h250v-863h244v1141h250zM651 -495h-372v133h76q-9 13 -13 36.5t-4 39.5q0 44 14.5 77.5t39.5 56.5t56.5 34t63.5 11q30 0 55 -5.5t44 -13.5v-127q-49 11 -71 11q-36 0 -52 -17t-16 -43q0 -24 16 -42t62 -18h101v-133z" />
    <glyph glyph-name="uniFEFA" unicode="&#xfee0;&#xfe88;" horiz-adv-x="1209" arabic-form="final" 
d="M1210 0q-55 0 -108.5 18t-88.5 79q-23 -32 -54 -52t-67.5 -29.5t-75.5 -12.5t-79 -3h-632v220h220v863h248v-863h124q65 0 90.5 20t25.5 90v1031h248v-1010q0 -71 29 -101t120 -30q15 0 28.5 -3.5t23.5 -13.5t16 -31t6 -57q0 -66 -18 -90.5t-56 -24.5zM638 -495h-372v133
h76q-9 13 -13 36.5t-4 39.5q0 44 14 77.5t39.5 56.5t56.5 34t64 11q30 0 55 -5.5t44 -13.5v-127q-50 11 -71 11q-36 0 -52 -17t-16 -43q0 -24 16 -42t62 -18h101v-133z" />
    <glyph glyph-name="uniFEFB" unicode="&#xfedf;&#xfe8e;" horiz-adv-x="1225" arabic-form="isolated" 
d="M1092 1361v-1361h-987v220h243v863h250v-863h244v1141h250z" />
    <glyph glyph-name="uniFEFC" unicode="&#xfee0;&#xfe8e;" horiz-adv-x="1209" arabic-form="final" 
d="M1210 0q-55 0 -108.5 18t-88.5 79q-23 -32 -54 -52t-67.5 -29.5t-75.5 -12.5t-79 -3h-632v220h220v863h248v-863h124q65 0 90.5 20t25.5 90v1031h248v-1010q0 -71 29 -101t120 -30q15 0 28.5 -3.5t23.5 -13.5t16 -31t6 -57q0 -66 -18 -90.5t-56 -24.5z" />
    <glyph glyph-name="uniFE8B_uniFEE4.liga" unicode="&#xfe8b;&#xfee4;" horiz-adv-x="1739" 
d="M596 513q-59 -4 -106.5 -61t-82.5 -177q48 -29 97 -49t98 -20q61 0 94 41t33 108q0 29 -7 57t-23.5 51t-42 36.5t-60.5 13.5zM1144 0q-73 0 -134 29.5t-103 90.5q-40 -67 -106 -105t-168 -38q-77 0 -154 23t-163 78q-49 -55 -101 -66.5t-113 -11.5h-101q-15 0 -28 3
t-24 13.5t-16.5 31.5t-5.5 57q0 64 18 89.5t56 25.5h84q51 0 78 37.5t54 110.5q40 116 87.5 188.5t101.5 113.5t108.5 55.5t106.5 14.5q74 0 139 -29t111.5 -80t73 -123.5t26.5 -158.5q0 -14 -0.5 -25t-0.5 -22q25 -47 76 -64.5t98 -17.5h221v539h251v-759h-472zM1698 950
h-435v156h87q-9 15 -13.5 43t-4.5 46q0 51 16.5 89.5t45.5 64.5t65.5 39t76.5 13q34 0 63.5 -7.5t50.5 -14.5v-147q-29 7 -50.5 10t-32.5 3q-43 0 -61.5 -20t-18.5 -48q0 -29 18.5 -50t73.5 -21h119v-156z" />
    <glyph glyph-name="uniFE8B_uniFEF0.liga" unicode="&#xfe8b;&#xfef0;" horiz-adv-x="1962" 
d="M1272 0q3 -17 6 -38t3 -50q0 -78 -29.5 -142.5t-104 -112.5t-200 -74.5t-318.5 -26.5q-187 0 -308 35.5t-192.5 97.5t-100 144.5t-28.5 179.5v317h248v-309q0 -124 89.5 -180t295.5 -56q133 0 214 15t126 37.5t59 48t14 43.5q0 25 -25.5 45t-73 39.5t-114.5 37.5t-149 38
v228q126 -41 241.5 -69t204.5 -28h458v539h251v-759h-567zM1920 950h-434v156h87q-9 15 -13.5 43t-4.5 46q0 51 16.5 89.5t45.5 64.5t65 39t76 13q35 0 64.5 -7.5t50.5 -14.5v-147q-29 7 -51 10t-32 3q-44 0 -62 -20t-18 -48q0 -29 18 -50t74 -21h118v-156z" />
    <glyph glyph-name="uniFE8B_uniFEF2.liga" unicode="&#xfe8b;&#xfef2;" horiz-adv-x="1962" 
d="M337 -719q0 55 40.5 95t95.5 40t95 -40t40 -95t-40 -95.5t-95 -40.5t-95.5 40.5t-40.5 95.5zM648 -719q0 55 40 95t96 40q55 0 95 -40t40 -95t-40 -95.5t-95 -40.5q-56 0 -96 40.5t-40 95.5zM1272 0q3 -17 6 -38t3 -50q0 -78 -29.5 -142.5t-104 -112.5t-200 -74.5
t-318.5 -26.5q-187 0 -308 35.5t-192.5 97.5t-100 144.5t-28.5 179.5v317h248v-309q0 -124 89.5 -180t295.5 -56q133 0 214 15t126 37.5t59 48t14 43.5q0 25 -25.5 45t-73 39.5t-114.5 37.5t-149 38v228q126 -41 241.5 -69t204.5 -28h458v539h251v-759h-567zM1920 950h-434
v156h87q-9 15 -13.5 43t-4.5 46q0 51 16.5 89.5t45.5 64.5t65 39t76 13q35 0 64.5 -7.5t50.5 -14.5v-147q-29 7 -51 10t-32 3q-44 0 -62 -20t-18 -48q0 -29 18 -50t74 -21h118v-156z" />
    <glyph glyph-name="uniFE91_uniFEE4.liga" unicode="&#xfe91;&#xfee4;" horiz-adv-x="1739" 
d="M596 513q-59 -4 -106.5 -61t-82.5 -177q48 -29 97 -49t98 -20q61 0 94 41t33 108q0 29 -7 57t-23.5 51t-42 36.5t-60.5 13.5zM1144 0q-73 0 -134 29.5t-103 90.5q-40 -67 -106 -105t-168 -38q-77 0 -154 23t-163 78q-49 -55 -101 -66.5t-113 -11.5h-101q-15 0 -28 3
t-24 13.5t-16.5 31.5t-5.5 57q0 64 18 89.5t56 25.5h84q51 0 78 37.5t54 110.5q40 116 87.5 188.5t101.5 113.5t108.5 55.5t106.5 14.5q74 0 139 -29t111.5 -80t73 -123.5t26.5 -158.5q0 -14 -0.5 -25t-0.5 -22q25 -47 76 -64.5t98 -17.5h221v539h251v-759h-472zM1335 -315
q0 55 40.5 95t94.5 40q55 0 95 -40t40 -95t-40 -95t-95 -40q-54 0 -94.5 40t-40.5 95z" />
    <glyph glyph-name="uniFE92_uniFEE6.liga" unicode="&#xfe92;&#xfee6;" horiz-adv-x="1817" 
d="M404 717q0 55 40 95t96 40q55 0 95 -40t40 -95t-40 -95t-95 -40q-56 0 -96 40t-40 95zM1190 0q-27 0 -73 13.5t-73 49.5q-3 -147 -40.5 -245t-104 -157t-163 -84t-217.5 -25q-257 0 -388 124t-131 370v261h248v-252q0 -133 68.5 -204t205.5 -71q144 0 211.5 60.5
t67.5 201.5v477h245v-166q0 -38 12.5 -64t33 -41t46 -21.5t52.5 -6.5h119q64 0 90 20t26 90v429h248v-408q0 -71 26.5 -101t118.5 -30q15 0 28.5 -3.5t23.5 -13.5t16 -31t6 -57q0 -66 -18 -90.5t-56 -24.5q-56 0 -107 18t-86 79q-23 -32 -55 -52t-68.5 -29.5t-75.5 -12.5
t-77 -3h-159zM1413 -315q0 55 40 95t96 40q55 0 95 -40t40 -95t-40 -95t-95 -40q-56 0 -96 40t-40 95z" />
    <glyph glyph-name="uniFE91_uniFEF0.liga" unicode="&#xfe91;&#xfef0;" horiz-adv-x="1962" 
d="M1558 -315q0 55 40 95t95 40t95 -40t40 -95t-40 -95t-95 -40t-95 40t-40 95zM1272 0q3 -17 6 -38t3 -50q0 -78 -29.5 -142.5t-104 -112.5t-200 -74.5t-318.5 -26.5q-187 0 -308 35.5t-192.5 97.5t-100 144.5t-28.5 179.5v317h248v-309q0 -124 89.5 -180t295.5 -56
q133 0 214 15t126 37.5t59 48t14 43.5q0 25 -25.5 45t-73 39.5t-114.5 37.5t-149 38v228q126 -41 241.5 -69t204.5 -28h458v539h251v-759h-567z" />
    <glyph glyph-name="uniFE91_uniFEF2.liga" unicode="&#xfe91;&#xfef2;" horiz-adv-x="1962" 
d="M337 -719q0 55 40.5 95t95.5 40t95 -40t40 -95t-40 -95.5t-95 -40.5t-95.5 40.5t-40.5 95.5zM1558 -315q0 55 40 95t95 40t95 -40t40 -95t-40 -95t-95 -40t-95 40t-40 95zM1272 0q3 -17 6 -38t3 -50q0 -78 -29.5 -142.5t-104 -112.5t-200 -74.5t-318.5 -26.5
q-187 0 -308 35.5t-192.5 97.5t-100 144.5t-28.5 179.5v317h248v-309q0 -124 89.5 -180t295.5 -56q133 0 214 15t126 37.5t59 48t14 43.5q0 25 -25.5 45t-73 39.5t-114.5 37.5t-149 38v228q126 -41 241.5 -69t204.5 -28h458v539h251v-759h-567zM648 -719q0 55 40 95t96 40
q55 0 95 -40t40 -95t-40 -95.5t-95 -40.5q-56 0 -96 40.5t-40 95.5z" />
    <glyph glyph-name="uniFE97_uniFEE4.liga" unicode="&#xfe97;&#xfee4;" horiz-adv-x="1760" 
d="M596 513q-59 -4 -106.5 -61t-82.5 -177q48 -29 97 -49t98 -20q61 0 94 41t33 108q0 29 -7 57t-23.5 51t-42 36.5t-60.5 13.5zM1144 0q-73 0 -134 29.5t-103 90.5q-40 -67 -106 -105t-168 -38q-77 0 -154 23t-163 78q-49 -55 -101 -66.5t-113 -11.5h-101q-15 0 -28 3
t-24 13.5t-16.5 31.5t-5.5 57q0 64 18 89.5t56 25.5h84q51 0 78 37.5t54 110.5q40 116 87.5 188.5t101.5 113.5t108.5 55.5t106.5 14.5q74 0 139 -29t111.5 -80t73 -123.5t26.5 -158.5q0 -14 -0.5 -25t-0.5 -22q25 -47 76 -64.5t98 -17.5h221v539h251v-759h-472zM1179 1088
q0 56 40 96t95 40t95.5 -40t40.5 -96q0 -55 -40.5 -95t-95.5 -40t-95 40t-40 95zM1490 1088q0 56 40 96t95 40t95 -40t40 -96q0 -55 -40 -95t-95 -40t-95 40t-40 95z" />
    <glyph glyph-name="uniFE98_uniFEE6.liga" unicode="&#xfe98;&#xfee6;" horiz-adv-x="1817" 
d="M404 717q0 55 40 95t96 40q55 0 95 -40t40 -95t-40 -95t-95 -40q-56 0 -96 40t-40 95zM1190 0q-27 0 -73 13.5t-73 49.5q-3 -147 -40.5 -245t-104 -157t-163 -84t-217.5 -25q-257 0 -388 124t-131 370v261h248v-252q0 -133 68.5 -204t205.5 -71q144 0 211.5 60.5
t67.5 201.5v477h245v-166q0 -38 12.5 -64t33 -41t46 -21.5t52.5 -6.5h119q64 0 90 20t26 90v429h248v-408q0 -71 26.5 -101t118.5 -30q15 0 28.5 -3.5t23.5 -13.5t16 -31t6 -57q0 -66 -18 -90.5t-56 -24.5q-56 0 -107 18t-86 79q-23 -32 -55 -52t-68.5 -29.5t-75.5 -12.5
t-77 -3h-159zM1553 1088q0 56 40 96t95 40q56 0 96 -40t40 -96q0 -55 -40 -95t-96 -40q-55 0 -95 40t-40 95zM1242 1088q0 56 40 96t96 40q55 0 95 -40t40 -96q0 -55 -40 -95t-95 -40q-56 0 -96 40t-40 95z" />
    <glyph glyph-name="uniFE97_uniFEF0.liga" unicode="&#xfe97;&#xfef0;" horiz-adv-x="1983" 
d="M1272 0q3 -17 6 -38t3 -50q0 -78 -29.5 -142.5t-104 -112.5t-200 -74.5t-318.5 -26.5q-187 0 -308 35.5t-192.5 97.5t-100 144.5t-28.5 179.5v317h248v-309q0 -124 89.5 -180t295.5 -56q133 0 214 15t126 37.5t59 48t14 43.5q0 25 -25.5 45t-73 39.5t-114.5 37.5t-149 38
v228q126 -41 241.5 -69t204.5 -28h458v539h251v-759h-567zM1713 1088q0 56 40 96t95 40t95 -40t40 -96q0 -55 -40 -95t-95 -40t-95 40t-40 95zM1402 1088q0 56 40 96t95 40t95.5 -40t40.5 -96q0 -55 -40.5 -95t-95.5 -40t-95 40t-40 95z" />
    <glyph glyph-name="uniFE97_uniFEF2.liga" unicode="&#xfe97;&#xfef2;" horiz-adv-x="1983" 
d="M337 -719q0 55 40.5 95t95.5 40t95 -40t40 -95t-40 -95.5t-95 -40.5t-95.5 40.5t-40.5 95.5zM648 -719q0 55 40 95t96 40q55 0 95 -40t40 -95t-40 -95.5t-95 -40.5q-56 0 -96 40.5t-40 95.5zM1272 0q3 -17 6 -38t3 -50q0 -78 -29.5 -142.5t-104 -112.5t-200 -74.5
t-318.5 -26.5q-187 0 -308 35.5t-192.5 97.5t-100 144.5t-28.5 179.5v317h248v-309q0 -124 89.5 -180t295.5 -56q133 0 214 15t126 37.5t59 48t14 43.5q0 25 -25.5 45t-73 39.5t-114.5 37.5t-149 38v228q126 -41 241.5 -69t204.5 -28h458v539h251v-759h-567zM1713 1088
q0 56 40 96t95 40t95 -40t40 -96q0 -55 -40 -95t-95 -40t-95 40t-40 95zM1402 1088q0 56 40 96t95 40t95.5 -40t40.5 -96q0 -55 -40.5 -95t-95.5 -40t-95 40t-40 95z" />
    <glyph glyph-name="uniFE9C_uniFEAE.liga" unicode="&#xfe9c;&#xfeae;" horiz-adv-x="1329" 
d="M696 0q-25 0 -68.5 11.5t-76.5 49.5q-2 -130 -31 -216.5t-86 -140t-144.5 -76.5t-209.5 -25v233q78 2 123.5 17.5t68.5 48.5t30 83.5t7 121.5v568h246v-324q0 -38 12.5 -63t32.5 -40t45.5 -21.5t50.5 -6.5h125q64 0 90 20t26 90v429h248v-408q0 -71 26.5 -101t118.5 -30
q15 0 28.5 -3.5t24 -13.5t16 -31t5.5 -57q0 -66 -18 -90.5t-56 -24.5q-56 0 -107 18t-85 79q-24 -32 -56 -52t-68.5 -29.5t-75.5 -12.5t-77 -3h-165zM914 1365q0 56 40 96t96 40q55 0 95 -40t40 -96q0 -55 -40 -95t-95 -40q-56 0 -96 40t-40 95zM1065 1088q0 56 40 96t95 40
q56 0 96 -40t40 -96q0 -55 -40 -95t-96 -40q-55 0 -95 40t-40 95zM754 1088q0 56 40 96t96 40q55 0 95 -40t40 -96q0 -55 -40 -95t-95 -40q-56 0 -96 40t-40 95z" />
    <glyph glyph-name="uniFE9B_uniFEE4.liga" unicode="&#xfe9b;&#xfee4;" horiz-adv-x="1760" 
d="M596 513q-59 -4 -106.5 -61t-82.5 -177q48 -29 97 -49t98 -20q61 0 94 41t33 108q0 29 -7 57t-23.5 51t-42 36.5t-60.5 13.5zM1144 0q-73 0 -134 29.5t-103 90.5q-40 -67 -106 -105t-168 -38q-77 0 -154 23t-163 78q-49 -55 -101 -66.5t-113 -11.5h-101q-15 0 -28 3
t-24 13.5t-16.5 31.5t-5.5 57q0 64 18 89.5t56 25.5h84q51 0 78 37.5t54 110.5q40 116 87.5 188.5t101.5 113.5t108.5 55.5t106.5 14.5q74 0 139 -29t111.5 -80t73 -123.5t26.5 -158.5q0 -14 -0.5 -25t-0.5 -22q25 -47 76 -64.5t98 -17.5h221v539h251v-759h-472zM1179 1088
q0 56 40 96t95 40t95.5 -40t40.5 -96q0 -55 -40.5 -95t-95.5 -40t-95 40t-40 95zM1490 1088q0 56 40 96t95 40t95 -40t40 -96q0 -55 -40 -95t-95 -40t-95 40t-40 95zM1339 1365q0 56 40 96t95 40q56 0 96 -40t40 -96q0 -55 -40 -95t-96 -40q-55 0 -95 40t-40 95z" />
    <glyph glyph-name="uniFE9C_uniFEE6.liga" unicode="&#xfe9c;&#xfee6;" horiz-adv-x="1817" 
d="M404 717q0 55 40 95t96 40q55 0 95 -40t40 -95t-40 -95t-95 -40q-56 0 -96 40t-40 95zM1190 0q-27 0 -73 13.5t-73 49.5q-3 -147 -40.5 -245t-104 -157t-163 -84t-217.5 -25q-257 0 -388 124t-131 370v261h248v-252q0 -133 68.5 -204t205.5 -71q144 0 211.5 60.5
t67.5 201.5v477h245v-166q0 -38 12.5 -64t33 -41t46 -21.5t52.5 -6.5h119q64 0 90 20t26 90v429h248v-408q0 -71 26.5 -101t118.5 -30q15 0 28.5 -3.5t23.5 -13.5t16 -31t6 -57q0 -66 -18 -90.5t-56 -24.5q-56 0 -107 18t-86 79q-23 -32 -55 -52t-68.5 -29.5t-75.5 -12.5
t-77 -3h-159zM1402 1365q0 56 40 96t96 40q55 0 95 -40t40 -96q0 -55 -40 -95t-95 -40q-56 0 -96 40t-40 95zM1553 1088q0 56 40 96t95 40q56 0 96 -40t40 -96q0 -55 -40 -95t-96 -40q-55 0 -95 40t-40 95zM1242 1088q0 56 40 96t96 40q55 0 95 -40t40 -96q0 -55 -40 -95
t-95 -40q-56 0 -96 40t-40 95z" />
    <glyph glyph-name="uniFE9B_uniFEF0.liga" unicode="&#xfe9b;&#xfef0;" horiz-adv-x="1983" 
d="M1272 0q3 -17 6 -38t3 -50q0 -78 -29.5 -142.5t-104 -112.5t-200 -74.5t-318.5 -26.5q-187 0 -308 35.5t-192.5 97.5t-100 144.5t-28.5 179.5v317h248v-309q0 -124 89.5 -180t295.5 -56q133 0 214 15t126 37.5t59 48t14 43.5q0 25 -25.5 45t-73 39.5t-114.5 37.5t-149 38
v228q126 -41 241.5 -69t204.5 -28h458v539h251v-759h-567zM1562 1365q0 56 40 96t95 40q56 0 96 -40t40 -96q0 -55 -40 -95t-96 -40q-55 0 -95 40t-40 95zM1713 1088q0 56 40 96t95 40t95 -40t40 -96q0 -55 -40 -95t-95 -40t-95 40t-40 95zM1402 1088q0 56 40 96t95 40
t95.5 -40t40.5 -96q0 -55 -40.5 -95t-95.5 -40t-95 40t-40 95z" />
    <glyph glyph-name="uniFE9B_uniFEF2.liga" unicode="&#xfe9b;&#xfef2;" horiz-adv-x="1983" 
d="M337 -719q0 55 40.5 95t95.5 40t95 -40t40 -95t-40 -95.5t-95 -40.5t-95.5 40.5t-40.5 95.5zM648 -719q0 55 40 95t96 40q55 0 95 -40t40 -95t-40 -95.5t-95 -40.5q-56 0 -96 40.5t-40 95.5zM1272 0q3 -17 6 -38t3 -50q0 -78 -29.5 -142.5t-104 -112.5t-200 -74.5
t-318.5 -26.5q-187 0 -308 35.5t-192.5 97.5t-100 144.5t-28.5 179.5v317h248v-309q0 -124 89.5 -180t295.5 -56q133 0 214 15t126 37.5t59 48t14 43.5q0 25 -25.5 45t-73 39.5t-114.5 37.5t-149 38v228q126 -41 241.5 -69t204.5 -28h458v539h251v-759h-567zM1562 1365
q0 56 40 96t95 40q56 0 96 -40t40 -96q0 -55 -40 -95t-96 -40q-55 0 -95 40t-40 95zM1713 1088q0 56 40 96t95 40t95 -40t40 -96q0 -55 -40 -95t-95 -40t-95 40t-40 95zM1402 1088q0 56 40 96t95 40t95.5 -40t40.5 -96q0 -55 -40.5 -95t-95.5 -40t-95 40t-40 95z" />
    <glyph glyph-name="uniFEDB_uniFEF0.liga" unicode="&#xfedb;&#xfef0;" horiz-adv-x="2363" 
d="M1272 0q3 -17 6 -38t3 -50q0 -78 -29.5 -142.5t-104 -112.5t-200 -74.5t-318.5 -26.5q-187 0 -308 35.5t-192.5 97.5t-100 144.5t-28.5 179.5v317h248v-309q0 -124 89.5 -180t295.5 -56q133 0 214 15t126 37.5t59 48t14 43.5q0 25 -25.5 45t-73 39.5t-114.5 37.5t-149 38
v228q126 -41 241.5 -69t204.5 -28h683q40 0 76.5 15.5t36.5 66.5q0 33 -43 91t-113.5 123.5t-160 129t-181.5 111.5q14 63 32 104t37 65.5t37 37.5t30 18l666 293v-255l-451 -187v-5q114 -75 188.5 -147.5t119.5 -141t62 -130.5t17 -116q0 -45 -12.5 -96.5t-49 -95.5
t-102 -72.5t-172.5 -28.5h-558z" />
    <glyph glyph-name="uniFEDC_uniFEF0.liga" unicode="&#xfedc;&#xfef0;" horiz-adv-x="2339" 
d="M1272 0q3 -17 6 -38t3 -50q0 -78 -29.5 -142.5t-104 -112.5t-200 -74.5t-318.5 -26.5q-187 0 -308 35.5t-192.5 97.5t-100 144.5t-28.5 179.5v317h248v-309q0 -124 89.5 -180t295.5 -56q133 0 214 15t126 37.5t59 48t14 43.5q0 25 -25.5 45t-73 39.5t-114.5 37.5t-149 38
v228q126 -41 241.5 -69t204.5 -28h658q65 0 92.5 20t27.5 63q0 37 -27.5 87t-85.5 109.5t-151.5 123t-224.5 128.5q7 61 17 99t21 61.5t23.5 34.5t25.5 18l708 308v-260l-428 -183v-7q146 -92 229.5 -201.5t127.5 -229.5q31 -84 75.5 -127.5t120.5 -43.5q16 0 29 -3.5
t24 -13.5t16.5 -31t5.5 -57q0 -66 -18 -90.5t-57 -24.5q-32 0 -66 3t-67.5 15.5t-65 36t-59.5 65.5q-33 -42 -67.5 -65.5t-74.5 -36t-84.5 -15.5t-96.5 -3h-486z" />
    <glyph glyph-name="uniFEDB_uniFEF2.liga" unicode="&#xfedb;&#xfef2;" horiz-adv-x="2363" 
d="M337 -719q0 55 40.5 95t95.5 40t95 -40t40 -95t-40 -95.5t-95 -40.5t-95.5 40.5t-40.5 95.5zM648 -719q0 55 40 95t96 40q55 0 95 -40t40 -95t-40 -95.5t-95 -40.5q-56 0 -96 40.5t-40 95.5zM1272 0q3 -17 6 -38t3 -50q0 -78 -29.5 -142.5t-104 -112.5t-200 -74.5
t-318.5 -26.5q-187 0 -308 35.5t-192.5 97.5t-100 144.5t-28.5 179.5v317h248v-309q0 -124 89.5 -180t295.5 -56q133 0 214 15t126 37.5t59 48t14 43.5q0 25 -25.5 45t-73 39.5t-114.5 37.5t-149 38v228q126 -41 241.5 -69t204.5 -28h683q40 0 76.5 15.5t36.5 66.5
q0 33 -43 91t-113.5 123.5t-160 129t-181.5 111.5q14 63 32 104t37 65.5t37 37.5t30 18l666 293v-255l-451 -187v-5q114 -75 188.5 -147.5t119.5 -141t62 -130.5t17 -116q0 -45 -12.5 -96.5t-49 -95.5t-102 -72.5t-172.5 -28.5h-558z" />
    <glyph glyph-name="uniFEDC_uniFEF2.liga" unicode="&#xfedc;&#xfef2;" horiz-adv-x="2339" 
d="M337 -719q0 55 40.5 95t95.5 40t95 -40t40 -95t-40 -95.5t-95 -40.5t-95.5 40.5t-40.5 95.5zM648 -719q0 55 40 95t96 40q55 0 95 -40t40 -95t-40 -95.5t-95 -40.5q-56 0 -96 40.5t-40 95.5zM1272 0q3 -17 6 -38t3 -50q0 -78 -29.5 -142.5t-104 -112.5t-200 -74.5
t-318.5 -26.5q-187 0 -308 35.5t-192.5 97.5t-100 144.5t-28.5 179.5v317h248v-309q0 -124 89.5 -180t295.5 -56q133 0 214 15t126 37.5t59 48t14 43.5q0 25 -25.5 45t-73 39.5t-114.5 37.5t-149 38v228q126 -41 241.5 -69t204.5 -28h658q65 0 92.5 20t27.5 63
q0 37 -27.5 87t-85.5 109.5t-151.5 123t-224.5 128.5q7 61 17 99t21 61.5t23.5 34.5t25.5 18l708 308v-260l-428 -183v-7q146 -92 229.5 -201.5t127.5 -229.5q31 -84 75.5 -127.5t120.5 -43.5q16 0 29 -3.5t24 -13.5t16.5 -31t5.5 -57q0 -66 -18 -90.5t-57 -24.5
q-32 0 -66 3t-67.5 15.5t-65 36t-59.5 65.5q-33 -42 -67.5 -65.5t-74.5 -36t-84.5 -15.5t-96.5 -3h-486z" />
    <glyph glyph-name="uniFEDF_uniFB51.rlig" unicode="&#xfedf;&#xfb51;" horiz-adv-x="1225" 
d="M1092 1361v-1361h-987v220h243v863h250v-863h244v1141h250zM573 1283v27q0 31 -15.5 46t-45.5 15q-28 0 -55 -17t-42 -42v-29h158zM415 1403q47 48 118 48q65 0 97 -36t32 -111v-112h-405v91h67v149h91v-29z" />
    <glyph glyph-name="uniFEE0_uniFB51.rlig" unicode="&#xfee0;&#xfb51;" horiz-adv-x="1209" 
d="M1210 0q-55 0 -108.5 18t-88.5 79q-23 -32 -54 -52t-67.5 -29.5t-75.5 -12.5t-79 -3h-632v220h220v863h248v-863h124q65 0 90.5 20t25.5 90v1031h248v-1010q0 -71 29 -101t120 -30q15 0 28.5 -3.5t23.5 -13.5t16 -31t6 -57q0 -66 -18 -90.5t-56 -24.5zM573 1283v27
q0 31 -15.5 46t-45.5 15q-28 0 -55 -17t-42 -42v-29h158zM415 1403q47 48 118 48q65 0 97 -36t32 -111v-112h-405v91h67v149h91v-29z" />
    <glyph glyph-name="uniFEDF_uniFEE2.liga" unicode="&#xfedf;&#xfee2;" horiz-adv-x="1778" 
d="M764 355q0 70 -34 112t-95 46q-73 -2 -122 -64t-65 -178q50 -27 103 -46t91 -19q56 0 89 41t33 108zM1175 0q-73 0 -131 29.5t-100 90.5q-40 -69 -111 -106t-173 -37q-165 0 -338 114q-38 -18 -54.5 -65t-16.5 -133v-650h-251v654q0 90 9.5 154t37 111t75 80.5
t124.5 64.5q17 122 63 205t103 133.5t120 72.5t116 22q80 0 145 -29t111 -80t70.5 -123.5t24.5 -158.5q0 -12 -1 -22t-1 -20q11 -25 31 -41.5t45 -26.5t52 -14.5t50 -4.5h220v1141h250v-1361h-470z" />
    <glyph glyph-name="uniFEE4_uniFE8E.liga" unicode="&#xfee4;&#xfe8e;" horiz-adv-x="1644" 
d="M1098 513q-59 -4 -106.5 -61t-82.5 -177q48 -29 97 -49t98 -20q61 0 94 41t33 108q0 29 -7 57t-23.5 51t-42 36.5t-60.5 13.5zM428 0q-64 0 -118.5 14.5t-93.5 47.5t-61 88.5t-22 137.5v1073h248v-1039q0 -67 23.5 -84.5t68.5 -17.5h114q51 0 78 37.5t54 110.5
q40 116 87.5 188.5t101.5 113.5t108.5 55.5t106.5 14.5q74 0 139 -29t111.5 -80t73.5 -123.5t27 -158.5q0 -14 -1 -25t-1 -22q25 -47 76 -64.5t98 -17.5q15 0 28.5 -3.5t23.5 -13.5t15.5 -31t5.5 -57q0 -66 -17.5 -90.5t-55.5 -24.5q-73 0 -134 29.5t-103 90.5
q-40 -67 -106 -105t-168 -38q-77 0 -154 23t-163 78q-49 -55 -101 -66.5t-113 -11.5h-176z" />
    <glyph glyph-name="uniFEE4_uniFE82.liga" unicode="&#xfee4;&#xfe82;" horiz-adv-x="1752" 
d="M1206 513q-59 -4 -106.5 -61t-82.5 -177q48 -29 97 -49t98 -20q61 0 94.5 41t33.5 108q0 29 -7.5 57t-24 51t-42 36.5t-60.5 13.5zM534 0q-64 0 -118.5 14.5t-93.5 47.5t-61 88.5t-22 137.5v1073h248v-1039q0 -67 23.5 -84.5t68.5 -17.5h116q52 0 79 37.5t53 110.5
q40 116 88 188.5t102 113.5t108 55.5t106 14.5q74 0 139 -29t112 -80t73.5 -123.5t26.5 -158.5q0 -14 -1 -25t-1 -22q25 -47 76 -64.5t98 -17.5q15 0 28.5 -3.5t23.5 -13.5t15.5 -31t5.5 -57q0 -66 -17.5 -90.5t-55.5 -24.5q-73 0 -134 29.5t-103 90.5q-40 -67 -106 -105
t-168 -38q-77 0 -154 23t-163 78q-49 -55 -100.5 -66.5t-113.5 -11.5h-178zM0 1605q55 54 99 71t83 17q38 0 88 -18t92 -39t80 -32.5t65 -11.5q37 0 59.5 27.5t32.5 57.5l99 -43q-32 -84 -74 -129.5t-117 -45.5q-54 0 -99.5 14t-89.5 35q-42 19 -80 33.5t-70 14.5
q-27 0 -50 -8.5t-57 -33.5z" />
    <glyph glyph-name="uniFEE4_uniFE84.liga" unicode="&#xfee4;&#xfe84;" horiz-adv-x="1644" 
d="M1098 513q-59 -4 -106.5 -61t-82.5 -177q48 -29 97 -49t98 -20q61 0 94 41t33 108q0 29 -7 57t-23.5 51t-42 36.5t-60.5 13.5zM428 0q-64 0 -118.5 14.5t-93.5 47.5t-61 88.5t-22 137.5v1073h248v-1039q0 -67 23.5 -84.5t67.5 -17.5h115q51 0 78 37.5t54 110.5
q40 116 87.5 188.5t101.5 113.5t108.5 55.5t106.5 14.5q74 0 139 -29t111.5 -80t73.5 -123.5t27 -158.5q0 -14 -1 -25t-1 -22q25 -47 76 -64.5t98 -17.5q15 0 28.5 -3.5t23.5 -13.5t15.5 -31t5.5 -57q0 -66 -17.5 -90.5t-55.5 -24.5q-73 0 -134 29.5t-103 90.5
q-40 -67 -106 -105t-168 -38q-77 0 -154 23t-163 78q-49 -55 -101 -66.5t-113 -11.5h-176zM416 1475h-371v135h76q-9 13 -13 37.5t-4 39.5q0 44 14.5 77.5t39 55t56 33.5t64.5 12q30 0 55 -6t43 -14v-126q-49 12 -69 12q-37 0 -53 -17t-16 -42q0 -27 16 -44.5t62 -17.5h100
v-135z" />
    <glyph glyph-name="uniFEE4_uniFE88.liga" unicode="&#xfee4;&#xfe88;" horiz-adv-x="1644" 
d="M1098 513q-59 -4 -106.5 -61t-82.5 -177q48 -29 97 -49t98 -20q61 0 94 41t33 108q0 29 -7 57t-23.5 51t-42 36.5t-60.5 13.5zM428 0q-65 0 -119 14.5t-93 47.5t-61 88.5t-22 137.5v1073h248v-1039q0 -67 23.5 -84.5t67.5 -17.5h115q51 0 78 37.5t54 110.5
q40 116 87.5 188.5t101.5 113.5t108.5 55.5t106.5 14.5q74 0 139 -29t111.5 -80t73.5 -123.5t27 -158.5q0 -14 -1 -25t-1 -22q25 -47 76 -64.5t98 -17.5q15 0 28.5 -3.5t23.5 -13.5t15.5 -31t5.5 -57q0 -66 -17.5 -90.5t-55.5 -24.5q-73 0 -134 29.5t-103 90.5
q-40 -67 -106 -105t-168 -38q-77 0 -154 23t-163 78q-49 -55 -101 -66.5t-113 -11.5h-176zM440 -495h-371v133h76q-9 13 -13 36.5t-4 39.5q0 44 14.5 77.5t39 56.5t56 34t64.5 11q30 0 55 -5.5t43 -13.5v-127q-49 11 -69 11q-37 0 -53 -17t-16 -43q0 -24 16 -42t62 -18h100
v-133z" />
    <glyph glyph-name="uniFEE8_uniFEAE.liga" unicode="&#xfee8;&#xfeae;" horiz-adv-x="1329" 
d="M696 0q-25 0 -68.5 11.5t-76.5 49.5q-2 -130 -31 -216.5t-86 -140t-144.5 -76.5t-209.5 -25v233q78 2 123.5 17.5t68.5 48.5t30 83.5t7 121.5v568h246v-324q0 -38 12.5 -63t32.5 -40t45.5 -21.5t50.5 -6.5h125q64 0 90 20t26 90v429h248v-408q0 -71 26.5 -101t118.5 -30
q15 0 28.5 -3.5t24 -13.5t16 -31t5.5 -57q0 -66 -18 -90.5t-56 -24.5q-56 0 -107 18t-85 79q-24 -32 -56 -52t-68.5 -29.5t-75.5 -12.5t-77 -3h-165zM923 1088q0 56 40 96t96 40q55 0 95 -40t40 -96q0 -55 -40 -95t-95 -40q-56 0 -96 40t-40 95z" />
    <glyph glyph-name="uniFEE7_uniFEE4.liga" unicode="&#xfee7;&#xfee4;" horiz-adv-x="1742" 
d="M596 513q-59 -4 -106.5 -61t-82.5 -177q48 -29 97 -49t98 -20q61 0 94 41t33 108q0 29 -7 57t-23.5 51t-42 36.5t-60.5 13.5zM1144 0q-73 0 -134 29.5t-103 90.5q-40 -67 -106 -105t-168 -38q-77 0 -154 23t-163 78q-49 -55 -101 -66.5t-113 -11.5h-101q-15 0 -28 3
t-24 13.5t-16.5 31.5t-5.5 57q0 64 18 89.5t56 25.5h84q51 0 78 37.5t54 110.5q40 116 87.5 188.5t101.5 113.5t108.5 55.5t106.5 14.5q74 0 139 -29t111.5 -80t73 -123.5t26.5 -158.5q0 -14 -0.5 -25t-0.5 -22q25 -47 76 -64.5t98 -17.5h219v539h251v-759h-470zM1348 1088
q0 56 40.5 96t94.5 40q56 0 96 -40t40 -96q0 -55 -40 -95t-96 -40q-54 0 -94.5 40t-40.5 95z" />
    <glyph glyph-name="uniFEE7_uniFEF0.liga" unicode="&#xfee7;&#xfef0;" horiz-adv-x="1965" 
d="M1272 0q3 -17 6 -38t3 -50q0 -78 -29.5 -142.5t-104 -112.5t-200 -74.5t-318.5 -26.5q-187 0 -308 35.5t-192.5 97.5t-100 144.5t-28.5 179.5v317h248v-309q0 -124 89.5 -180t295.5 -56q133 0 214 15t126 37.5t59 48t14 43.5q0 25 -25.5 45t-73 39.5t-114.5 37.5t-149 38
v228q126 -41 241.5 -69t204.5 -28h456v539h251v-759h-565zM1571 1088q0 56 40 96t95 40q56 0 96 -40t40 -96q0 -55 -40 -95t-96 -40q-55 0 -95 40t-40 95z" />
    <glyph glyph-name="uniFEE7_uniFEF2.liga" unicode="&#xfee7;&#xfef2;" horiz-adv-x="1965" 
d="M337 -719q0 55 40.5 95t95.5 40t95 -40t40 -95t-40 -95.5t-95 -40.5t-95.5 40.5t-40.5 95.5zM648 -719q0 55 40 95t96 40q55 0 95 -40t40 -95t-40 -95.5t-95 -40.5q-56 0 -96 40.5t-40 95.5zM1272 0q3 -17 6 -38t3 -50q0 -78 -29.5 -142.5t-104 -112.5t-200 -74.5
t-318.5 -26.5q-187 0 -308 35.5t-192.5 97.5t-100 144.5t-28.5 179.5v317h248v-309q0 -124 89.5 -180t295.5 -56q133 0 214 15t126 37.5t59 48t14 43.5q0 25 -25.5 45t-73 39.5t-114.5 37.5t-149 38v228q126 -41 241.5 -69t204.5 -28h456v539h251v-759h-565zM1571 1088
q0 56 40 96t95 40q56 0 96 -40t40 -96q0 -55 -40 -95t-96 -40q-55 0 -95 40t-40 95z" />
    <glyph glyph-name="uniFEF4_uniFEAE.liga" unicode="&#xfef4;&#xfeae;" horiz-adv-x="1386" 
d="M696 0q-25 0 -68.5 11.5t-76.5 49.5q-2 -130 -31 -216.5t-86 -140t-144.5 -76.5t-209.5 -25v233q78 2 123.5 17.5t68.5 48.5t30 83.5t7 121.5v568h246v-324q0 -38 12.5 -63t32.5 -40t45.5 -21.5t50.5 -6.5h161q65 0 91 20t26 90v429h247v-408q0 -71 37.5 -101t128.5 -30
q15 0 28.5 -3.5t24 -13.5t16 -31t5.5 -57q0 -66 -18 -90.5t-56 -24.5q-27 0 -57.5 3.5t-59 14.5t-54 30t-42.5 49q-23 -32 -56 -52t-68.5 -29.5t-74.5 -12.5t-78 -3h-201zM1065 -320q0 55 40 95t95 40q56 0 96 -40t40 -95t-40 -95t-96 -40q-55 0 -95 40t-40 95zM754 -320
q0 55 40 95t96 40q55 0 95 -40t40 -95t-40 -95t-95 -40q-56 0 -96 40t-40 95z" />
    <glyph glyph-name="uniFEF3_uniFEE4.liga" unicode="&#xfef3;&#xfee4;" horiz-adv-x="1876" 
d="M596 513q-59 -4 -106.5 -61t-82.5 -177q48 -29 97 -49t98 -20q61 0 94 41t33 108q0 29 -7 57t-23.5 51t-42 36.5t-60.5 13.5zM1144 0q-73 0 -134 29.5t-103 90.5q-40 -67 -106 -105t-168 -38q-77 0 -154 23t-163 78q-49 -55 -101 -66.5t-113 -11.5h-101q-15 0 -28 3
t-24 13.5t-16.5 31.5t-5.5 57q0 64 18 89.5t56 25.5h84q51 0 78 37.5t54 110.5q40 116 87.5 188.5t101.5 113.5t108.5 55.5t106.5 14.5q74 0 139 -29t111.5 -80t73 -123.5t26.5 -158.5q0 -14 -0.5 -25t-0.5 -22q25 -47 76 -65q44 -15 84 -17q7 2 16 2h357v537h250v-759h-609
zM1478 -320q0 55 40 95t96 40q55 0 95 -40t40 -95t-40 -95t-95 -40q-56 0 -96 40t-40 95zM1167 -320q0 55 40 95t96 40q55 0 95 -40t40 -95t-40 -95t-95 -40q-56 0 -96 40t-40 95z" />
    <glyph glyph-name="uniFEF4_uniFEE6.liga" unicode="&#xfef4;&#xfee6;" horiz-adv-x="1874" 
d="M404 717q0 55 40 95t96 40q55 0 95 -40t40 -95t-40 -95t-95 -40q-56 0 -96 40t-40 95zM1190 0q-27 0 -73 13.5t-73 49.5q-3 -147 -40.5 -245t-104 -157t-163 -84t-217.5 -25q-257 0 -388 124t-131 370v261h248v-252q0 -133 68.5 -204t205.5 -71q144 0 211.5 60.5
t67.5 201.5v477h245v-166q0 -38 12.5 -64t33 -41t46 -21.5t52.5 -6.5h155q64 0 90.5 20t26.5 90v429h247v-408q0 -71 37.5 -101t128.5 -30q15 0 28.5 -3.5t24 -13.5t16 -31t5.5 -57q0 -66 -18 -90.5t-56 -24.5q-27 0 -57.5 3.5t-59 14.5t-54.5 30t-42 49q-24 -32 -56.5 -52
t-68 -29.5t-75 -12.5t-77.5 -3h-195zM1553 -320q0 55 40 95t95 40q56 0 96 -40t40 -95t-40 -95t-96 -40q-55 0 -95 40t-40 95zM1242 -320q0 55 40 95t96 40q55 0 95 -40t40 -95t-40 -95t-95 -40q-56 0 -96 40t-40 95z" />
    <glyph glyph-name="T_h.liga" unicode="Th" horiz-adv-x="2117" 
d="M1090 1110h-359v-1110h-299v1110h-408v251h1337v-513h5q52 84 132 124t156 40q109 0 178.5 -29.5t109.5 -82t56 -127.5t16 -167v-606h-271v557q0 122 -39 182t-134 60q-111 0 -160 -66t-49 -216v-517h-271v1110z" />
    <glyph glyph-name="f_b.liga" unicode="fb" horiz-adv-x="1845" 
d="M162 804h-162v182h162v76q0 64 20 119.5t62 95.5t103 62t145 22q36 0 72 -3t71 -4v-202q-49 5 -100 5q-55 0 -78.5 -25.5t-23.5 -87.5v-58h187v-182h-187v-804h-271v804zM784 1361h271v-495h3q50 76 134.5 111t176.5 35q75 0 147 -30.5t130 -93t94.5 -161t36.5 -234.5
q0 -135 -36.5 -233t-94.5 -162t-130 -94.5t-147 -30.5q-109 0 -194.5 35.5t-129.5 117.5h-4v-126h-257v1361zM1506 492q0 63 -13 120t-42 101t-72.5 69.5t-103.5 25.5t-103 -25.5t-72 -69.5t-42 -101t-13 -120q0 -61 13 -118t42 -101t72 -70t103 -26t103.5 26t72.5 70
t42 101t13 118z" />
    <glyph glyph-name="f_f_b.liga" unicode="ffb" horiz-adv-x="2384" 
d="M740 804h-307v-804h-271v804h-162v182h162v76q0 136 82 215q87 84 248 84q27 0 72 -3l71 -4v-202q-49 5 -100 5q-102 0 -102 -113v-58h307v76q0 136 82 215q87 84 248 84q27 0 71 -3l72 -4v-202q-49 5 -100 5q-103 0 -103 -113v-58h187v-182h-187v-804h-270v804z
M1323 1361h271v-495h3q50 76 134.5 111t176.5 35q75 0 147 -30.5t130 -93t94.5 -161t36.5 -234.5q0 -135 -36.5 -233t-94.5 -162t-130 -94.5t-147 -30.5q-109 0 -194.5 35.5t-129.5 117.5h-4v-126h-257v1361zM2045 492q0 63 -13 120t-42 101t-72.5 69.5t-103.5 25.5
t-103 -25.5t-72 -69.5t-42 -101t-13 -120q0 -61 13 -118t42 -101t72 -70t103 -26t103.5 26t72.5 70t42 101t13 118z" />
    <glyph glyph-name="f_f.liga" unicode="ff" horiz-adv-x="1212" 
d="M740 804h-307v-804h-271v804h-162v182h162v76q0 136 82 215q87 84 248 84q27 0 72 -3l71 -4v-202q-49 5 -100 5q-102 0 -102 -113v-58h307v76q0 136 82 215q87 84 248 84q27 0 71 -3l72 -4v-202q-49 5 -100 5q-103 0 -103 -113v-58h187v-182h-187v-804h-270v804z" />
    <glyph glyph-name="f_h.liga" unicode="fh" horiz-adv-x="1811" 
d="M162 804h-162v182h162v76q0 64 20 119.5t62 95.5t103 62t145 22q36 0 72 -3t71 -4v-202q-49 5 -100 5q-55 0 -78.5 -25.5t-23.5 -87.5v-58h187v-182h-187v-804h-271v804zM784 1361h271v-513h5q52 84 132 124t156 40q109 0 178.5 -29.5t109.5 -82t56 -127.5t16 -167v-606
h-271v557q0 122 -39 182t-134 60q-111 0 -160 -66t-49 -216v-517h-271v1361z" />
    <glyph glyph-name="f_f_h.liga" unicode="ffh" horiz-adv-x="2350" 
d="M740 804h-307v-804h-271v804h-162v182h162v76q0 136 82 215q87 84 248 84q27 0 72 -3l71 -4v-202q-49 5 -100 5q-102 0 -102 -113v-58h307v76q0 136 82 215q87 84 248 84q27 0 71 -3l72 -4v-202q-49 5 -100 5q-103 0 -103 -113v-58h187v-182h-187v-804h-270v804z
M1323 1361h271v-513h5q52 84 132 124t156 40q109 0 178.5 -29.5t109.5 -82t56 -127.5t16 -167v-606h-271v557q0 122 -39 182t-134 60q-111 0 -160 -66t-49 -216v-517h-271v1361z" />
    <glyph glyph-name="f_f_i.liga" unicode="ffi" horiz-adv-x="1703" 
d="M740 804h-307v-804h-271v804h-162v182h162v76q0 136 82 215q87 84 248 84q27 0 72 -3l71 -4v-202q-49 5 -100 5q-102 0 -102 -113v-58h307v76q0 136 82 215q87 84 248 84q27 0 71 -3l72 -4v-202q-49 5 -100 5q-103 0 -103 -113v-58h187v-182h-187v-804h-270v804z
M1594 1139h-271v222h271v-222zM1323 986h271v-986h-271v986z" />
    <glyph glyph-name="f_j.liga" unicode="fj" horiz-adv-x="1146" 
d="M1017 1139h-271v222h271v-222zM162 804h-162v182h162v76q0 136 82 215q87 84 248 84q27 0 72 -3l71 -4v-202q-49 5 -100 5q-102 0 -102 -113v-58h187v-182h-187v-804h-271v804zM582 -116q22 -8 58 -8q42 0 74 16.5t32 71.5v1022h271v-1035q0 -77 -16.5 -132t-55.5 -92.5
t-106 -55.5t-170 -18q-21 0 -44 1.5t-43 5.5v224z" />
    <glyph glyph-name="f_f_j.liga" unicode="ffj" horiz-adv-x="1721" 
d="M740 804h-307v-804h-271v804h-162v182h162v76q0 136 82 215q87 84 248 84q27 0 72 -3l71 -4v-202q-49 5 -100 5q-102 0 -102 -113v-58h307v76q0 136 82 215q87 84 248 84q27 0 71 -3l72 -4v-202q-49 5 -100 5q-103 0 -103 -113v-58h187v-182h-187v-804h-270v804z
M1156 -116q23 -8 59 -8q43 0 74 16.5t31 71.5v1022h271v-1035q0 -77 -16.5 -132t-55.5 -92.5t-105.5 -55.5t-169.5 -18q-21 0 -43.5 1.5t-44.5 5.5v224zM1591 1139h-271v222h271v-222z" />
    <glyph glyph-name="f_k.liga" unicode="fk" horiz-adv-x="1750" 
d="M162 804h-162v182h162v76q0 64 20 119.5t62 95.5t103 62t145 22q36 0 72 -3t71 -4v-202q-49 5 -100 5q-55 0 -78.5 -25.5t-23.5 -87.5v-58h187v-182h-187v-804h-271v804zM784 1361h271v-730l340 355h321l-372 -362l414 -624h-328l-271 440l-104 -100v-340h-271v1361z" />
    <glyph glyph-name="f_f_k.liga" unicode="ffk" horiz-adv-x="2289" 
d="M740 804h-307v-804h-271v804h-162v182h162v76q0 136 82 215q87 84 248 84q27 0 72 -3l71 -4v-202q-49 5 -100 5q-102 0 -102 -113v-58h307v76q0 136 82 215q87 84 248 84q27 0 71 -3l72 -4v-202q-49 5 -100 5q-103 0 -103 -113v-58h187v-182h-187v-804h-270v804z
M1323 1361h271v-730l340 355h321l-372 -362l414 -624h-328l-271 440l-104 -100v-340h-271v1361z" />
    <glyph glyph-name="f_f_l.liga" unicode="ffl" horiz-adv-x="1703" 
d="M740 804h-307v-804h-271v804h-162v182h162v76q0 136 82 215q87 84 248 84q27 0 72 -3l71 -4v-202q-49 5 -100 5q-102 0 -102 -113v-58h307v76q0 136 82 215q87 84 248 84q27 0 71 -3l72 -4v-202q-49 5 -100 5q-103 0 -103 -113v-58h187v-182h-187v-804h-270v804z
M1323 1361h271v-1361h-271v1361z" />
    <glyph glyph-name="f_t.liga" unicode="ft" horiz-adv-x="1275" 
d="M433 804v-804h-271v804h-162v182h162v76q0 64 20 119.5t62 95.5t103 62t145 22q36 0 72 -3t71 -4v-202q-49 5 -100 5q-55 0 -78.5 -25.5t-23.5 -87.5v-58h347v295h271v-295h198v-182h-198v-487q0 -69 23 -92t91 -23q46 0 84 7v-211q-34 -5 -76 -7t-82 -2q-63 0 -119 8.5
t-99.5 34t-68 71.5t-24.5 120v581h-347z" />
    <glyph glyph-name="f_f_t.liga" unicode="fft" horiz-adv-x="1815" 
d="M1010 804v-804h-270v804h-307v-804h-271v804h-162v182h162v76q0 136 82 215q87 84 248 84q27 0 72 -3l71 -4v-202q-49 5 -100 5q-102 0 -102 -113v-58h307v76q0 136 82 215q87 84 248 84q27 0 71 -3l72 -4v-202q-49 5 -100 5q-103 0 -103 -113v-58h310v295h271v-295h198
v-182h-198v-487q0 -69 23 -92t91 -23q46 0 84 7v-211q-34 -5 -76 -7t-82 -2q-63 0 -119 8.5t-99.5 34t-68 71.5t-24.5 120v581h-310z" />
    <glyph glyph-name="uni0647.fina" unicode="&#x647;" horiz-adv-x="1155" arabic-form="final" 
d="M950 0v-6q18 -17 29.5 -40t18 -45t8.5 -41t2 -30q0 -61 -20 -116t-60 -96t-102 -66t-147 -25q-99 0 -168 31.5t-111.5 89.5t-62.5 142t-20 189v13h-102q-33 0 -42 -29.5t-11 -73.5h-120q-21 52 -31.5 102t-10.5 75q0 48 15.5 77t41 43.5t57 20t66.5 5.5h137v73
q0 231 96 360t269 129q90 0 153 -32.5t102.5 -81t57 -106t17.5 -107.5q0 -60 -15 -118.5t-53 -109.5v-7h211q15 0 28.5 -3.5t24.5 -13.5t16.5 -31t5.5 -57q0 -66 -18.5 -90.5t-56.5 -24.5h-205zM535 220h49q49 0 85.5 17.5t59 47.5t33 69t10.5 79q0 53 -25 87.5t-72 34.5
q-69 0 -104.5 -67.5t-35.5 -165.5v-102zM535 0q0 -109 33.5 -176.5t110.5 -67.5q51 0 73 30.5t22 78.5q0 11 -6 34t-21 45t-42.5 39t-71.5 17h-98z" />
    <glyph glyph-name="uni0672.fina" unicode="&#x672;" horiz-adv-x="508" 
d="M583 115q0 -66 -18.5 -90.5t-56.5 -24.5h-80q-64 0 -118.5 14.5t-93.5 47.5t-61 88.5t-22 137.5v1073h248v-1039q0 -67 23.5 -84.5t68.5 -17.5h35q16 0 29.5 -3.5t23.5 -13.5t16 -31t6 -57zM369 1624q-4 13 -12 22q-16 15 -47 15q-28 0 -55 -17.5t-42 -42.5v-28h248v-92
h-406v92h67v148h91v-28q48 48 118 48q66 0 98 -37q25 -28 30 -80h-90z" />
    <glyph glyph-name="uni0673.fina" unicode="&#x673;" horiz-adv-x="508" 
d="M583 115q0 -66 -18.5 -90.5t-56.5 -24.5h-80q-64 0 -118.5 14.5t-93.5 47.5t-61 88.5t-22 137.5v1073h248v-1039q0 -67 23.5 -84.5t68.5 -17.5h35q16 0 29.5 -3.5t23.5 -13.5t16 -31t6 -57zM369 -224q-4 13 -12 22q-16 15 -47 15q-28 0 -55 -17.5t-42 -42.5v-28h248v-92
h-406v92h67v148h91v-28q48 48 118 48q66 0 98 -36q25 -29 30 -81h-90z" />
    <glyph glyph-name="uni0675.fina" unicode="&#x675;" horiz-adv-x="945" 
d="M1020 115q0 -66 -18 -90.5t-56 -24.5h-518q-64 0 -118.5 14.5t-93.5 47.5t-61 88.5t-22 137.5v1073h248v-1039q0 -67 23.5 -84.5t67.5 -17.5h474q16 0 29 -3.5t23.5 -13.5t16 -31t5.5 -57zM836 1228h-372v134h77q-10 13 -14 37.5t-4 39.5q0 45 14.5 78t39 55t56.5 33.5
t64 11.5q31 0 55.5 -5.5t43.5 -14.5v-125q-50 12 -70 12q-36 0 -52.5 -17.5t-16.5 -42.5q0 -27 16.5 -44.5t61.5 -17.5h101v-134z" />
    <glyph glyph-name="uni0676.fina" unicode="&#x676;" horiz-adv-x="1108" 
d="M880 0q-27 -208 -172 -302.5t-432 -94.5h-60v233h44q99 0 166 11.5t109.5 33.5t64 51.5t27.5 67.5h-119q-83 0 -154 19t-122.5 62t-80 111t-28.5 163q0 76 25.5 150.5t75.5 133.5t122 94t166 35q104 0 176 -36t115.5 -102t62.5 -156t19 -199v-55h224q15 0 28.5 -3.5
t23.5 -13.5t16 -31t6 -57q0 -66 -18 -90.5t-56 -24.5h-229zM367 378q0 -92 39 -125t104 -33h126v113q0 92 -29 152.5t-106 60.5q-71 0 -102.5 -48t-31.5 -120zM990 950h-435v156h87q-9 15 -14 43t-5 46q0 51 17 89.5t46 64.5t65 39t76 13q34 0 64 -7.5t50 -14.5v-147
q-28 7 -49.5 10t-32.5 3q-43 0 -61.5 -20t-18.5 -48q0 -29 18.5 -50t73.5 -21h119v-156z" />
    <glyph glyph-name="uni0677.fina" unicode="&#x677;" horiz-adv-x="1108" 
d="M880 0q-27 -208 -172 -302.5t-432 -94.5h-60v233h44q99 0 166 11.5t109.5 33.5t64 51.5t27.5 67.5h-119q-83 0 -154 19t-122.5 62t-80 111t-28.5 163q0 76 25.5 150.5t75.5 133.5t122 94t166 35q104 0 176 -36t115.5 -102t62.5 -156t19 -199v-55h224q15 0 28.5 -3.5
t23.5 -13.5t16 -31t6 -57q0 -66 -18 -90.5t-56 -24.5h-229zM367 378q0 -92 39 -125t104 -33h126v113q0 92 -29 152.5t-106 60.5q-71 0 -102.5 -48t-31.5 -120zM990 950h-435v156h87q-9 15 -14 43t-5 46q0 51 17 89.5t46 64.5t65 39t76 13q34 0 64 -7.5t50 -14.5v-147
q-28 7 -49.5 10t-32.5 3q-43 0 -61.5 -20t-18.5 -48q0 -29 18.5 -50t73.5 -21h119v-156zM340 1171q19 0 34.5 4t24.5 7v14q0 48 -19 73.5t-48 25.5q-32 0 -48 -23t-16 -46q0 -34 26.5 -44.5t45.5 -10.5zM241 1032q63 0 97 20t48 48q-27 -9 -63 -9q-61 0 -99.5 35.5
t-38.5 95.5q0 67 42.5 111t104.5 44t105.5 -43t43.5 -138q0 -71 -18 -117.5t-49.5 -75t-76.5 -41t-96 -12.5q-23 0 -47.5 2t-43.5 8v82q24 -6 52 -8t39 -2z" />
    <glyph glyph-name="uni0678.init" unicode="&#x678;" horiz-adv-x="944" 
d="M220 220v539h251v-759h-470q-15 0 -28 3t-24 13.5t-16.5 31.5t-5.5 57q0 64 18 89.5t56 25.5h219zM888 950h-435v156h87q-9 15 -13.5 43t-4.5 46q0 51 16.5 89.5t45.5 64.5t65.5 39t76.5 13q34 0 63.5 -7.5t50.5 -14.5v-147q-29 7 -50.5 10t-32.5 3q-43 0 -61.5 -20
t-18.5 -48q0 -29 18.5 -50t73.5 -21h119v-156z" />
    <glyph glyph-name="uni0678.medi" unicode="&#x678;" horiz-adv-x="998" 
d="M691 4q-69 3 -111 12q-111 20 -146 81q-23 -32 -55 -52t-68.5 -29.5t-75.5 -12.5t-77 -3h-157q-15 0 -28 3t-24 13.5t-16.5 31.5t-5.5 57q0 64 18 89.5t56 25.5h117q64 0 90 20t26 90v429h248v-408q0 -71 90 -105q31 -12 92 -19q49 -5 116 -7h219q15 0 28.5 -3.5
t24 -13.5t16 -31t5.5 -57q0 -66 -17.5 -90.5t-56.5 -24.5l-195 -1q-63 2 -113 5zM909 950h-435v156h88q-9 15 -14.5 43t-5.5 46q0 51 17.5 89.5t46 64.5t64.5 39t76 13q35 0 64.5 -7.5t50.5 -14.5v-147q-28 7 -50.5 10t-31.5 3q-44 0 -62 -20t-18 -48q0 -29 18 -50t74 -21
h118v-156z" />
    <glyph glyph-name="uni0678.fina" unicode="&#x678;" horiz-adv-x="1647" 
d="M1272 0q3 -17 6 -38t3 -50q0 -78 -29.5 -142.5t-104 -112.5t-200 -74.5t-318.5 -26.5q-187 0 -308 35.5t-192.5 97.5t-100 144.5t-28.5 179.5v317h248v-309q0 -124 89.5 -180t295.5 -56q133 0 214 15t126 37.5t59 48t14 43.5q0 25 -25.5 45t-73 39.5t-114.5 37.5t-149 38
v228q126 -41 241.5 -69t204.5 -28h518q16 0 29.5 -3.5t23.5 -13.5t15.5 -31t5.5 -57q0 -66 -18 -90.5t-56 -24.5h-376zM1549 465h-435v156h88q-10 15 -14.5 43t-4.5 46q0 51 17.5 89.5t45.5 64.5t64.5 39t76.5 13q34 0 63.5 -7.5t51.5 -14.5v-147q-29 7 -51 10t-31 3
q-44 0 -62 -20t-18 -48q0 -29 18 -50t73 -21h118v-156z" />
    <glyph glyph-name="uni067C.init" unicode="&#x67c;" horiz-adv-x="741" 
d="M484 0q4 -9 8 -19q18 -51 18 -115q0 -41 -13 -80.5t-42 -70t-73 -49.5t-108 -19q-51 0 -93 13.5t-72.5 40t-47 68t-16.5 97.5q0 47 16 97q6 19 15 37h-75q-15 0 -28 3.5t-24 14.5t-16.5 32t-5.5 57q0 64 18 89.5t56 25.5h366v537h251v-759h-134zM278 0q-24 0 -40 -11
t-26 -29t-15 -40.5t-5 -44.5q0 -42 19.5 -67t69.5 -25q40 0 61.5 23t21.5 65q0 54 -23 91q-22 38 -63 38zM135 1088q0 56 40 96t95 40t95.5 -40t40.5 -96q0 -55 -40.5 -95t-95.5 -40t-95 40t-40 95zM446 1088q0 56 40 96t95 40t95 -40t40 -96q0 -55 -40 -95t-95 -40t-95 40
t-40 95z" />
    <glyph glyph-name="uni067C.medi" unicode="&#x67c;" horiz-adv-x="821" 
d="M217 1088q0 56 40 96t96 40q55 0 95 -40t40 -96q0 -55 -40 -95t-95 -40q-56 0 -96 40t-40 95zM528 1088q0 56 40 96t95 40q56 0 96 -40t40 -96q0 -55 -40 -95t-96 -40q-55 0 -95 40t-40 95zM287 0q-24 0 -40 -11t-26 -29t-14.5 -40.5t-4.5 -44.5q0 -42 19.5 -67t68.5 -25
q40 0 61.5 23t21.5 65q0 54 -22 91q-23 38 -64 38zM85 0h-84q-15 0 -28 3t-24 13.5t-16.5 31.5t-5.5 57q0 64 18 89.5t56 25.5h312q65 0 91 20t26 90v429h247v-408q0 -71 26.5 -101t119.5 -30q14 0 27.5 -3.5t24 -13.5t16 -31t5.5 -57q0 -66 -17.5 -90.5t-55.5 -24.5
q-56 0 -107.5 18t-85.5 79q-23 -32 -55.5 -52t-68.5 -30q-9 -2 -17 -4q6 -14 12 -30q18 -51 18 -115q0 -41 -13 -80.5t-42 -70t-73 -49.5t-107 -19q-52 0 -93.5 13.5t-72.5 40t-47 68t-16 97.5q0 47 15 97q7 19 15 37z" />
    <glyph glyph-name="uni067C.fina" unicode="&#x67c;" horiz-adv-x="1706" 
d="M480 978q0 55 40 95t96 40q55 0 95 -40t40 -95t-40 -95.5t-95 -40.5q-56 0 -96 40.5t-40 95.5zM791 978q0 55 40 95t95 40q56 0 96 -40t40 -95t-40 -95.5t-96 -40.5q-55 0 -95 40.5t-40 95.5zM781 0h-2q-23 0 -39 -11t-26 -29t-15 -40.5t-5 -44.5q0 -42 20 -67t69 -25
q40 0 61.5 23t21.5 65q0 54 -23 91q-22 38 -62 38zM578 0h-183q-113 0 -189.5 16.5t-122 52.5t-64.5 93.5t-19 139.5v314h248v-281q0 -38 9.5 -60t34.5 -35t66.5 -16.5t106.5 -3.5h727q65 0 90.5 20t25.5 90v429h246v-408q0 -71 29.5 -101t122.5 -30q15 0 28.5 -3.5
t24.5 -13.5t16.5 -31t5.5 -57q0 -66 -18 -90.5t-57 -24.5q-55 0 -110 18t-90 79q-23 -32 -54 -52t-67.5 -29.5t-75.5 -12.5t-77 -3h-245q3 -9 7 -19q18 -51 18 -115q0 -41 -13 -80.5t-42 -70t-73 -49.5t-108 -19q-51 0 -93 13.5t-72.5 40t-47 68t-16.5 97.5q0 47 16 97
q6 19 15 37z" />
    <glyph glyph-name="uni067D.init" unicode="&#x67d;" horiz-adv-x="615" 
d="M220 220v539h251v-759h-470q-15 0 -28 3t-24 13.5t-16.5 31.5t-5.5 57q0 64 18 89.5t56 25.5h219zM74 1461q40 40 95 40t95.5 -40t40.5 -95q0 -56 -40.5 -96t-95.5 -40t-95 40t-40 96q0 55 40 95zM385 1461q40 40 95 40t95 -40t40 -95q0 -56 -40 -96t-95 -40t-95 40
t-40 96q0 55 40 95zM234 1184q40 40 95 40q56 0 96 -40t40 -95q0 -56 -40 -96t-96 -40q-55 0 -95 40t-40 96q0 55 40 95z" />
    <glyph glyph-name="uni067D.medi" unicode="&#x67d;" horiz-adv-x="626" 
d="M118 220q64 0 90 20t26 90v429h248v-408q0 -71 26.5 -101t118.5 -30q15 0 28.5 -3.5t23.5 -13.5t16 -31t6 -57q0 -66 -18 -90.5t-56 -24.5q-56 0 -107 18t-86 79q-23 -32 -55 -52t-68.5 -29.5t-75.5 -12.5t-77 -3h-157q-15 0 -28 3t-24 13.5t-16.5 31.5t-5.5 57
q0 64 18 89.5t56 25.5h117zM91 1461q40 40 96 40q55 0 95 -40t40 -95q0 -56 -40 -96t-95 -40q-56 0 -96 40t-40 96q0 55 40 95zM402 1461q40 40 95 40q56 0 96 -40t40 -95q0 -56 -40 -96t-96 -40q-55 0 -95 40t-40 96q0 55 40 95zM251 1184q40 40 96 40q55 0 95 -40t40 -95
q0 -56 -40 -96t-95 -40q-56 0 -96 40t-40 96q0 55 40 95z" />
    <glyph glyph-name="uni067D.fina" unicode="&#x67d;" horiz-adv-x="1706" 
d="M1706 0q-55 0 -110 18t-90 79q-23 -32 -54 -52t-67.5 -29.5t-75.5 -12.5t-77 -3h-837q-113 0 -189.5 16.5t-122 52.5t-64.5 93.5t-19 139.5v314h248v-281q0 -38 9.5 -60t34.5 -35t66.5 -16.5t106.5 -3.5h727q65 0 90.5 20t25.5 90v429h246v-408q0 -71 29.5 -101
t122.5 -30q15 0 28.5 -3.5t24.5 -13.5t16.5 -31t5.5 -57q0 -66 -18 -90.5t-57 -24.5zM522 1350q40 40 96 40q55 0 95 -40t40 -96q0 -55 -40 -95t-95 -40q-56 0 -96 40t-40 95q0 56 40 96zM833 1350q40 40 95 40q56 0 96 -40t40 -96q0 -55 -40 -95t-96 -40q-55 0 -95 40
t-40 95q0 56 40 96zM682 1073q40 40 96 40q55 0 95 -40t40 -96q0 -54 -40 -94.5t-95 -40.5q-56 0 -96 40.5t-40 94.5q0 56 40 96z" />
    <glyph glyph-name="uni0681.init" unicode="&#x681;" horiz-adv-x="1051" 
d="M684 220q-6 75 -25 139.5t-58 110t-100 71t-152 25.5q-31 0 -96.5 -8.5t-132.5 -27.5v221q43 15 118.5 32.5t155.5 17.5q149 0 251 -51.5t165 -137.5t90.5 -199t27.5 -236v-177h-927q-15 0 -28 3t-24 13.5t-16.5 31.5t-5.5 57q0 64 18 89.5t56 25.5h683zM646 950h-435
v156h87q-9 15 -13.5 43t-4.5 46q0 51 16.5 89.5t45.5 64.5t65.5 39t76.5 13q34 0 63.5 -7.5t50.5 -14.5v-147q-29 7 -50.5 10t-32.5 3q-43 0 -61.5 -20t-18.5 -48q0 -29 18.5 -50t73.5 -21h119v-156z" />
    <glyph glyph-name="uni0681.medi" unicode="&#x681;" horiz-adv-x="1049" 
d="M684 220q-6 75 -25 139.5t-57 110t-100 71t-153 25.5q-16 0 -40.5 -2t-55.5 -6.5t-65 -11t-68 -16.5v221q43 15 119.5 32.5t154.5 17.5q143 0 243 -47t163 -127t92.5 -186t33.5 -221h124q16 0 29 -3.5t23.5 -13.5t16 -31t5.5 -57q0 -66 -18 -90.5t-56 -24.5h-1049
q-15 0 -28 3t-24 13.5t-16.5 31.5t-5.5 57q0 64 18 89.5t56 25.5h683zM646 950h-435v156h87q-9 15 -13.5 43t-4.5 46q0 51 16.5 89.5t45.5 64.5t65.5 39t76.5 13q34 0 63.5 -7.5t50.5 -14.5v-147q-29 7 -50.5 10t-32.5 3q-43 0 -61.5 -20t-18.5 -48q0 -29 18.5 -50t73.5 -21
h119v-156z" />
    <glyph glyph-name="uni0681.fina" unicode="&#x681;" horiz-adv-x="1215" 
d="M532 0q-135 0 -207 -72.5t-72 -187.5q0 -125 82.5 -194.5t211.5 -69.5q63 0 147 17t198 70l96 -176q-65 -45 -130 -73.5t-123 -44t-105.5 -21t-76.5 -5.5q-120 0 -221 29.5t-174.5 89.5t-115.5 152.5t-42 218.5q0 118 39 209t110 152.5t168.5 93.5t215.5 32h317
q-11 167 -88.5 256.5t-246.5 89.5q-31 0 -96.5 -7.5t-134.5 -28.5v221q44 15 120 32.5t156 17.5q144 0 243 -47t162 -127t93 -186t35 -221h124q15 0 28.5 -3.5t23.5 -13.5t15.5 -31t5.5 -57q0 -66 -17.5 -90.5t-55.5 -24.5h-685zM803 950h-434v156h87q-9 15 -13.5 43
t-4.5 46q0 51 16.5 89.5t45.5 64.5t65 39t76 13q35 0 64 -7.5t51 -14.5v-147q-29 7 -51 10t-32 3q-44 0 -62 -20t-18 -48q0 -29 18 -50t74 -21h118v-156z" />
    <glyph glyph-name="uni0682.init" unicode="&#x682;" horiz-adv-x="1051" 
d="M684 220q-6 75 -25 139.5t-58 110t-100 71t-152 25.5q-31 0 -96.5 -8.5t-132.5 -27.5v221q43 15 118.5 32.5t155.5 17.5q149 0 251 -51.5t165 -137.5t90.5 -199t27.5 -236v-177h-927q-15 0 -28 3t-24 13.5t-16.5 31.5t-5.5 57q0 64 18 89.5t56 25.5h683zM275 993
q-40 40 -40 96q0 55 40 95t96 40q55 0 95 -40t40 -95q0 -56 -40 -96t-95 -40q-56 0 -96 40zM275 1304q-40 40 -40 95q0 56 40 96t96 40q55 0 95 -40t40 -96q0 -55 -40 -95t-95 -40q-56 0 -96 40z" />
    <glyph glyph-name="uni0682.medi" unicode="&#x682;" horiz-adv-x="1049" 
d="M684 220q-6 75 -25 139.5t-57 110t-100 71t-153 25.5q-16 0 -40.5 -2t-55.5 -6.5t-65 -11t-68 -16.5v221q43 15 119.5 32.5t154.5 17.5q143 0 243 -47t163 -127t92.5 -186t33.5 -221h124q16 0 29 -3.5t23.5 -13.5t16 -31t5.5 -57q0 -66 -18 -90.5t-56 -24.5h-1049
q-15 0 -28 3t-24 13.5t-16.5 31.5t-5.5 57q0 64 18 89.5t56 25.5h683zM275 993q-40 40 -40 96q0 55 40 95t96 40q55 0 95 -40t40 -95q0 -56 -40 -96t-95 -40q-56 0 -96 40zM275 1304q-40 40 -40 95q0 56 40 96t96 40q55 0 95 -40t40 -96q0 -55 -40 -95t-95 -40q-56 0 -96 40
z" />
    <glyph glyph-name="uni0682.fina" unicode="&#x682;" horiz-adv-x="1215" 
d="M532 0q-135 0 -207 -72.5t-72 -187.5q0 -125 82.5 -194.5t211.5 -69.5q63 0 147 17t198 70l96 -176q-65 -45 -130 -73.5t-123 -44t-105.5 -21t-76.5 -5.5q-120 0 -221 29.5t-174.5 89.5t-115.5 152.5t-42 218.5q0 118 39 209t110 152.5t168.5 93.5t215.5 32h317
q-11 167 -88.5 256.5t-246.5 89.5q-31 0 -96.5 -7.5t-134.5 -28.5v221q44 15 120 32.5t156 17.5q144 0 243 -47t162 -127t93 -186t35 -221h124q15 0 28.5 -3.5t23.5 -13.5t15.5 -31t5.5 -57q0 -66 -17.5 -90.5t-55.5 -24.5h-685zM442 993q-40 40 -40 96q0 55 40 95t96 40
q55 0 95 -40t40 -95q0 -56 -40 -96t-95 -40q-56 0 -96 40zM442 1304q-40 40 -40 95q0 56 40 96t96 40q55 0 95 -40t40 -96q0 -55 -40 -95t-95 -40q-56 0 -96 40z" />
    <glyph glyph-name="uni0685.init" unicode="&#x685;" horiz-adv-x="1051" 
d="M684 220q-6 75 -25 139.5t-58 110t-100 71t-152 25.5q-31 0 -96.5 -8.5t-132.5 -27.5v221q43 15 118.5 32.5t155.5 17.5q149 0 251 -51.5t165 -137.5t90.5 -199t27.5 -236v-177h-927q-15 0 -28 3t-24 13.5t-16.5 31.5t-5.5 57q0 64 18 89.5t56 25.5h683zM388 1460
q40 40 96 40q55 0 95 -40t40 -95t-40 -95t-95 -40q-56 0 -96 40t-40 95t40 95zM231 1183q40 40 96 40q55 0 95 -40t40 -95t-40 -95t-95 -40q-56 0 -96 40t-40 95t40 95zM542 1183q40 40 96 40q55 0 95 -40t40 -95t-40 -95t-95 -40q-56 0 -96 40t-40 95t40 95z" />
    <glyph glyph-name="uni0685.medi" unicode="&#x685;" horiz-adv-x="1049" 
d="M684 220q-6 75 -25 139.5t-57 110t-100 71t-153 25.5q-16 0 -40.5 -2t-55.5 -6.5t-65 -11t-68 -16.5v221q43 15 119.5 32.5t154.5 17.5q143 0 243 -47t163 -127t92.5 -186t33.5 -221h124q16 0 29 -3.5t23.5 -13.5t16 -31t5.5 -57q0 -66 -18 -90.5t-56 -24.5h-1049
q-15 0 -28 3t-24 13.5t-16.5 31.5t-5.5 57q0 64 18 89.5t56 25.5h683zM388 1460q40 40 96 40q55 0 95 -40t40 -95t-40 -95t-95 -40q-56 0 -96 40t-40 95t40 95zM231 1183q40 40 96 40q55 0 95 -40t40 -95t-40 -95t-95 -40q-56 0 -96 40t-40 95t40 95zM542 1183q40 40 96 40
q55 0 95 -40t40 -95t-40 -95t-95 -40q-56 0 -96 40t-40 95t40 95z" />
    <glyph glyph-name="uni0685.fina" unicode="&#x685;" horiz-adv-x="1215" 
d="M532 0q-135 0 -207 -72.5t-72 -187.5q0 -125 82.5 -194.5t211.5 -69.5q63 0 147 17t198 70l96 -176q-65 -45 -130 -73.5t-123 -44t-105.5 -21t-76.5 -5.5q-120 0 -221 29.5t-174.5 89.5t-115.5 152.5t-42 218.5q0 118 39 209t110 152.5t168.5 93.5t215.5 32h317
q-11 167 -88.5 256.5t-246.5 89.5q-31 0 -96.5 -7.5t-134.5 -28.5v221q44 15 120 32.5t156 17.5q144 0 243 -47t162 -127t93 -186t35 -221h124q15 0 28.5 -3.5t23.5 -13.5t15.5 -31t5.5 -57q0 -66 -17.5 -90.5t-55.5 -24.5h-685zM573 1460q40 40 96 40q55 0 95 -40t40 -95
t-40 -95t-95 -40q-56 0 -96 40t-40 95t40 95zM417 1183q40 40 96 40q55 0 95 -40t40 -95t-40 -95t-95 -40q-56 0 -96 40t-40 95t40 95zM728 1183q40 40 96 40q55 0 95 -40t40 -95t-40 -95t-95 -40q-56 0 -96 40t-40 95t40 95z" />
    <glyph glyph-name="uni0689.fina" unicode="&#x689;" horiz-adv-x="930" 
d="M190 0h-115v220h378q46 0 67.5 14t21.5 33q0 21 -18 51.5t-67 101.5l-174 257l227 145l229 -387q36 -62 62.5 -103.5t48.5 -66.5t41 -35t40 -10q15 0 28.5 -3.5t24 -13.5t16 -31t5.5 -57q0 -66 -17.5 -90.5t-56.5 -24.5q-55 0 -94.5 5.5t-67.5 17t-53 30t-52 42.5
q-39 -44 -82 -64q13 -23 24 -50q17 -51 17 -115q0 -41 -13 -80.5t-41.5 -70t-73 -49.5t-107.5 -19q-51 0 -93 13.5t-73 40t-47 68t-16 97.5q0 47 16 97q6 19 15 37zM392 0q-25 0 -41 -11q-15 -11 -25.5 -29t-15 -40.5t-4.5 -44.5q0 -42 19.5 -67t68.5 -25q40 0 61.5 23
t21.5 65q0 54 -22 92q-23 37 -63 37z" />
    <glyph glyph-name="uni068A.fina" unicode="&#x68a;" horiz-adv-x="930" 
d="M931 0q-55 0 -94.5 5.5t-67.5 17t-53 30t-52 42.5q-56 -62 -119.5 -78.5t-138.5 -16.5h-331v220h378q46 0 67.5 14t21.5 33q0 21 -18 51.5t-67 101.5l-174 257l227 145l229 -387q36 -62 62.5 -103.5t48.5 -66.5t41 -35t40 -10q15 0 28.5 -3.5t24 -13.5t16 -31t5.5 -57
q0 -66 -17.5 -90.5t-56.5 -24.5zM289 -315q0 55 40 95t96 40q55 0 95 -40t40 -95t-40 -95t-95 -40q-56 0 -96 40t-40 95z" />
    <glyph glyph-name="uni068B.fina" unicode="&#x68b;" horiz-adv-x="930" 
d="M635 1090v16q0 33 -12.5 57.5t-55.5 24.5q-42 0 -76 -26.5t-56 -71.5h200zM422 1232q38 38 74.5 54t82.5 16q76 0 119.5 -48.5t43.5 -134.5v-141h-512v112h85v380h107v-238zM931 0q-55 0 -94.5 5.5t-67.5 17t-53 30t-52 42.5q-56 -62 -119.5 -78.5t-138.5 -16.5h-331v220
h378q46 0 67.5 14t21.5 33q0 21 -18 51.5t-67 101.5l-174 257l227 145l229 -387q36 -62 62.5 -103.5t48.5 -66.5t41 -35t40 -10q15 0 28.5 -3.5t24 -13.5t16 -31t5.5 -57q0 -66 -17.5 -90.5t-56.5 -24.5zM289 -315q0 55 40 95t96 40q55 0 95 -40t40 -95t-40 -95t-95 -40
q-56 0 -96 40t-40 95z" />
    <glyph glyph-name="uni068F.fina" unicode="&#x68f;" horiz-adv-x="930" 
d="M931 0q-55 0 -94.5 5.5t-67.5 17t-53 30t-52 42.5q-56 -62 -119.5 -78.5t-138.5 -16.5h-331v220h378q46 0 67.5 14t21.5 33q0 21 -18 51.5t-67 101.5l-174 257l227 145l229 -387q36 -62 62.5 -103.5t48.5 -66.5t41 -35t40 -10q15 0 28.5 -3.5t24 -13.5t16 -31t5.5 -57
q0 -66 -17.5 -90.5t-56.5 -24.5zM269 1090q0 55 40 95t96 40q54 0 94.5 -40t40.5 -95t-40.5 -95t-94.5 -40q-56 0 -96 40t-40 95zM112 1367q0 54 40 94.5t96 40.5q55 0 95 -40.5t40 -94.5q0 -55 -40 -95t-95 -40q-56 0 -96 40t-40 95zM423 1367q0 54 40 94.5t95 40.5
q56 0 96 -40.5t40 -94.5q0 -55 -40 -95t-96 -40q-55 0 -95 40t-40 95z" />
    <glyph glyph-name="uni0690.fina" unicode="&#x690;" horiz-adv-x="930" 
d="M931 0q-55 0 -94.5 5.5t-67.5 17t-53 30t-52 42.5q-56 -62 -119.5 -78.5t-138.5 -16.5h-331v220h378q46 0 67.5 14t21.5 33q0 21 -18 51.5t-67 101.5l-174 257l227 145l229 -387q36 -62 62.5 -103.5t48.5 -66.5t41 -35t40 -10q15 0 28.5 -3.5t24 -13.5t16 -31t5.5 -57
q0 -66 -17.5 -90.5t-56.5 -24.5zM112 1399q0 55 40 95t96 40q55 0 95 -40t40 -95q0 -56 -40 -96t-95 -40q-56 0 -96 40t-40 96zM423 1399q0 55 40 95t95 40q56 0 96 -40t40 -95q0 -56 -40 -96t-96 -40q-55 0 -95 40t-40 96zM112 1088q0 55 40 95t96 40q55 0 95 -40t40 -95
q0 -56 -40 -96t-95 -40q-56 0 -96 40t-40 96zM423 1088q0 55 40 95t95 40q56 0 96 -40t40 -95q0 -56 -40 -96t-96 -40q-55 0 -95 40t-40 96z" />
    <glyph glyph-name="uni0692.fina" unicode="&#x692;" horiz-adv-x="704" 
d="M706 0q-35 0 -78.5 11.5t-76.5 49.5q-2 -130 -31 -216.5t-86 -140t-144.5 -76.5t-209.5 -25v233q78 2 123.5 17.5t68.5 48.5t30 83.5t7 121.5v568h246v-324q0 -38 12.5 -63t32.5 -40t45.5 -21.5t60.5 -6.5q14 0 27.5 -3.5t24 -13.5t16 -31t5.5 -57q0 -66 -18 -90.5
t-55 -24.5zM100 1219h188l122 -214l118 214h205l-202 -376h-229z" />
    <glyph glyph-name="uni0693.fina" unicode="&#x693;" horiz-adv-x="769" 
d="M389 -371q-24 0 -40 -11t-26 -28.5t-15 -40.5t-5 -44q0 -42 20 -67t69 -25q40 0 61.5 22.5t21.5 64.5q0 54 -22.5 91.5t-63.5 37.5zM177 -394q-45 -2 -97 -3v233q153 2 198.5 17.5t68.5 48.5t29.5 83.5t6.5 121.5v568h246v-324q0 -38 12.5 -63t32.5 -40t46 -21.5t51 -6.5
q15 0 28.5 -3.5t23.5 -13.5t15.5 -31t5.5 -57q0 -66 -18 -90.5t-55 -24.5q-25 0 -69 11.5t-76 49.5q-2 -130 -31 -216q-24 -73 -68 -122q14 -12 27 -26q31 -35 49 -86t18 -116q0 -41 -13 -80.5t-42 -69.5t-73 -49t-108 -19q-51 0 -93 13.5t-72.5 40t-47 68t-16.5 96.5
q0 48 16 97q2 7 5 14z" />
    <glyph glyph-name="uni0694.fina" unicode="&#x694;" horiz-adv-x="695" 
d="M696 0q-25 0 -68.5 11.5t-76.5 49.5q-2 -130 -31 -216.5t-86 -140t-144.5 -76.5t-209.5 -25v233q78 2 123.5 17.5t68.5 48.5t30 83.5t7 121.5v568h246v-324q0 -38 12.5 -63t32.5 -40t45.5 -21.5t50.5 -6.5q15 0 28.5 -3.5t24 -13.5t16 -31t5.5 -57q0 -66 -18.5 -90.5
t-55.5 -24.5zM284 -630q0 55 40 95t95 40q56 0 96 -40t40 -95q0 -56 -40 -96t-96 -40q-55 0 -95 40t-40 96z" />
    <glyph glyph-name="uni0695.fina" unicode="&#x695;" horiz-adv-x="704" 
d="M706 0q-35 0 -78.5 11.5t-76.5 49.5q-2 -130 -31 -216.5t-86 -140t-144.5 -76.5t-209.5 -25v233q78 2 123.5 17.5t68.5 48.5t30 83.5t7 121.5v568h246v-324q0 -38 12.5 -63t32.5 -40t45.5 -21.5t60.5 -6.5q14 0 27.5 -3.5t24 -13.5t16 -31t5.5 -57q0 -66 -18 -90.5
t-55 -24.5zM82 -551h187l122 -214l118 214h205l-201 -376h-229z" />
    <glyph glyph-name="uni0696.fina" unicode="&#x696;" horiz-adv-x="867" 
d="M868 0q-25 0 -68.5 11.5t-76.5 49.5q-2 -130 -30.5 -216.5t-86 -140t-145 -76.5t-348.5 -25v233q217 2 263 17.5t68.5 48.5t29.5 83.5t7 121.5v568h246v-324q0 -38 12.5 -63t32.5 -40t45.5 -21.5t50.5 -6.5q15 0 28.5 -3.5t24 -13.5t16 -31t5.5 -57q0 -66 -18 -90.5
t-56 -24.5zM456 -630q0 55 40 95t95 40q56 0 96 -40t40 -95q0 -56 -40 -96t-96 -40q-55 0 -95 40t-40 96zM80 136q0 55 40 95t95 40q56 0 96 -40t40 -95q0 -56 -40 -96t-96 -40q-55 0 -95 40t-40 96z" />
    <glyph glyph-name="uni0697.fina" unicode="&#x697;" horiz-adv-x="695" 
d="M696 0q-25 0 -68.5 11.5t-76.5 49.5q-2 -130 -31 -216.5t-86 -140t-144.5 -76.5t-209.5 -25v233q78 2 123.5 17.5t68.5 48.5t30 83.5t7 121.5v568h246v-324q0 -38 12.5 -63t32.5 -40t45.5 -21.5t50.5 -6.5q15 0 28.5 -3.5t24 -13.5t16 -31t5.5 -57q0 -66 -18.5 -90.5
t-55.5 -24.5zM139 978q0 55 40.5 95t95.5 40q54 0 94.5 -40t40.5 -95t-40.5 -95.5t-94.5 -40.5q-55 0 -95.5 40.5t-40.5 95.5zM450 978q0 55 40 95t95 40t95 -40t40 -95t-40 -95.5t-95 -40.5t-95 40.5t-40 95.5z" />
    <glyph glyph-name="uni0699.fina" unicode="&#x699;" horiz-adv-x="695" 
d="M696 0q-25 0 -68.5 11.5t-76.5 49.5q-2 -130 -31 -216.5t-86 -140t-144.5 -76.5t-209.5 -25v233q78 2 123.5 17.5t68.5 48.5t30 83.5t7 121.5v568h246v-324q0 -38 12.5 -63t32.5 -40t45.5 -21.5t50.5 -6.5q15 0 28.5 -3.5t24 -13.5t16 -31t5.5 -57q0 -66 -18.5 -90.5
t-55.5 -24.5zM132 1289q0 55 40 95t96 40q55 0 95 -40t40 -95q0 -56 -40 -96t-95 -40q-56 0 -96 40t-40 96zM443 1289q0 55 40 95t95 40q56 0 96 -40t40 -95q0 -56 -40 -96t-96 -40q-55 0 -95 40t-40 96zM132 978q0 55 40 95t96 40q55 0 95 -40t40 -95t-40 -95.5t-95 -40.5
q-56 0 -96 40.5t-40 95.5zM443 978q0 55 40 95t95 40q56 0 96 -40t40 -95t-40 -95.5t-96 -40.5q-55 0 -95 40.5t-40 95.5z" />
    <glyph glyph-name="uni069A.init" unicode="&#x69a;" horiz-adv-x="1591" 
d="M80 220q42 0 69 1.5t44.5 11t25.5 27.5t8 51v364h244v-324q0 -61 33 -96t103 -35q56 0 95 16.5t39 74.5v364h248v-324q0 -131 113 -131h118v539h248v-759h-293q-100 0 -152 23.5t-88 75.5q-28 -36 -60.5 -56t-67 -29.5t-67.5 -11.5t-64 -2q-97 0 -163 31.5t-94 67.5
q-52 -66 -134 -82.5t-209 -16.5h-75q-15 0 -28 3t-24 13.5t-16.5 31.5t-5.5 57q0 64 18 89.5t56 25.5h79zM721 1088q0 56 40 96t95 40q56 0 96 -40t40 -96q0 -55 -40 -95t-96 -40q-55 0 -95 40t-40 95zM721 -315q0 55 40 95t96 40q55 0 95 -40t40 -95t-40 -95t-95 -40
q-56 0 -96 40t-40 95z" />
    <glyph glyph-name="uni069A.medi" unicode="&#x69a;" horiz-adv-x="1619" 
d="M68 220q42 0 69.5 1.5t45 11t25 27.5t7.5 51v364h245v-324q0 -61 33.5 -96t102.5 -35q57 0 96 16.5t39 74.5v364h246v-324q0 -67 30 -99t99 -32q53 0 85.5 17.5t32.5 79.5v442h246v-408q0 -71 28 -101t122 -30q15 0 28.5 -3.5t24 -13.5t16 -31t5.5 -57q0 -66 -18 -90.5
t-56 -24.5q-56 0 -109 20t-87 81q-56 -67 -120.5 -84t-135.5 -17q-53 0 -123 22t-119 77q-59 -65 -119 -82t-131 -17q-187 0 -269 99q-51 -66 -133 -82.5t-210 -16.5h-63q-15 0 -28 3t-24 13.5t-16.5 31.5t-5.5 57q0 64 18 89.5t56 25.5h67zM721 1088q0 56 40 96t95 40
q56 0 96 -40t40 -96q0 -55 -40 -95t-96 -40q-55 0 -95 40t-40 95zM721 -315q0 55 40 95t96 40q55 0 95 -40t40 -95t-40 -95t-95 -40q-56 0 -96 40t-40 95z" />
    <glyph glyph-name="uni069A.fina" unicode="&#x69a;" horiz-adv-x="2211" 
d="M2008 101q-56 -67 -120.5 -84t-135.5 -17q-27 0 -60 4.5t-67.5 16.5t-65 31t-49.5 47q-46 -55 -110.5 -77t-133.5 -22q-80 0 -140 23t-85 44q-2 -149 -38.5 -247t-104 -158t-163.5 -85t-218 -25q-517 0 -517 494v261h244v-263q0 -264 276 -264q144 0 211.5 54.5
t67.5 196.5v644h245v-324q0 -61 34 -96t102 -35q55 0 95 16.5t40 74.5v364h248v-324q0 -42 11.5 -68t29 -40t40 -18.5t46.5 -4.5q55 0 86.5 17.5t31.5 79.5v442h247v-408q0 -71 32.5 -101t124.5 -30q15 0 28.5 -3.5t23.5 -13.5t16 -31t6 -57q0 -66 -18 -90.5t-56 -24.5
q-56 0 -113.5 20t-90.5 81zM1292 1088q0 56 40 96t96 40q55 0 95 -40t40 -96q0 -55 -40 -95t-95 -40q-56 0 -96 40t-40 95zM1292 -315q0 55 40 95t96 40q55 0 95 -40t40 -95t-40 -95t-95 -40q-56 0 -96 40t-40 95z" />
    <glyph glyph-name="uni069B.init" unicode="&#x69b;" horiz-adv-x="1591" 
d="M80 220q42 0 69 1.5t44.5 11t25.5 27.5t8 51v364h244v-324q0 -61 33 -96t103 -35q56 0 95 16.5t39 74.5v364h248v-324q0 -131 113 -131h118v539h248v-759h-293q-100 0 -152 23.5t-88 75.5q-28 -36 -60.5 -56t-67 -29.5t-67.5 -11.5t-64 -2q-97 0 -163 31.5t-94 67.5
q-52 -66 -134 -82.5t-209 -16.5h-75q-15 0 -28 3t-24 13.5t-16.5 31.5t-5.5 57q0 64 18 89.5t56 25.5h79zM726 -597q0 55 40 95t96 40q55 0 95 -40t40 -95t-40 -95t-95 -40q-56 0 -96 40t-40 95zM566 -320q0 55 40 95t96 40q54 0 94 -40t40 -95t-40 -95t-94 -40
q-56 0 -96 40t-40 95zM877 -320q0 55 40 95t95 40t95 -40t40 -95t-40 -95t-95 -40t-95 40t-40 95z" />
    <glyph glyph-name="uni069B.medi" unicode="&#x69b;" horiz-adv-x="1619" 
d="M68 220q42 0 69.5 1.5t45 11t25 27.5t7.5 51v364h245v-324q0 -61 33.5 -96t102.5 -35q57 0 96 16.5t39 74.5v364h246v-324q0 -67 30 -99t99 -32q53 0 85.5 17.5t32.5 79.5v442h246v-408q0 -71 28 -101t122 -30q15 0 28.5 -3.5t24 -13.5t16 -31t5.5 -57q0 -66 -18 -90.5
t-56 -24.5q-56 0 -109 20t-87 81q-56 -67 -120.5 -84t-135.5 -17q-53 0 -123 22t-119 77q-59 -65 -119 -82t-131 -17q-187 0 -269 99q-51 -66 -133 -82.5t-210 -16.5h-63q-15 0 -28 3t-24 13.5t-16.5 31.5t-5.5 57q0 64 18 89.5t56 25.5h67zM726 -597q0 55 40 95t96 40
q55 0 95 -40t40 -95t-40 -95t-95 -40q-56 0 -96 40t-40 95zM566 -320q0 55 40 95t96 40q54 0 94 -40t40 -95t-40 -95t-94 -40q-56 0 -96 40t-40 95zM877 -320q0 55 40 95t95 40t95 -40t40 -95t-40 -95t-95 -40t-95 40t-40 95z" />
    <glyph glyph-name="uni069B.fina" unicode="&#x69b;" horiz-adv-x="2211" 
d="M2008 101q-56 -67 -120.5 -84t-135.5 -17q-27 0 -60 4.5t-67.5 16.5t-65 31t-49.5 47q-46 -55 -110.5 -77t-133.5 -22q-80 0 -140 23t-85 44q-2 -149 -38.5 -247t-104 -158t-163.5 -85t-218 -25q-517 0 -517 494v261h244v-263q0 -264 276 -264q144 0 211.5 54.5
t67.5 196.5v644h245v-324q0 -61 34 -96t102 -35q55 0 95 16.5t40 74.5v364h248v-324q0 -42 11.5 -68t29 -40t40 -18.5t46.5 -4.5q55 0 86.5 17.5t31.5 79.5v442h247v-408q0 -71 32.5 -101t124.5 -30q15 0 28.5 -3.5t23.5 -13.5t16 -31t6 -57q0 -66 -18 -90.5t-56 -24.5
q-56 0 -113.5 20t-90.5 81zM1296 -597q0 55 40 95t96 40q55 0 95 -40t40 -95t-40 -95t-95 -40q-56 0 -96 40t-40 95zM1136 -320q0 55 40 95t96 40q55 0 95 -40t40 -95t-40 -95t-95 -40q-56 0 -96 40t-40 95zM1447 -320q0 55 40 95t95 40t95.5 -40t40.5 -95t-40.5 -95
t-95.5 -40t-95 40t-40 95z" />
    <glyph glyph-name="uni069C.init" unicode="&#x69c;" horiz-adv-x="1591" 
d="M80 220q42 0 69 1.5t44.5 11t25.5 27.5t8 51v364h244v-324q0 -61 33 -96t103 -35q56 0 95 16.5t39 74.5v364h248v-324q0 -131 113 -131h118v539h248v-759h-293q-100 0 -152 23.5t-88 75.5q-28 -36 -60.5 -56t-67 -29.5t-67.5 -11.5t-64 -2q-97 0 -163 31.5t-94 67.5
q-52 -66 -134 -82.5t-209 -16.5h-75q-15 0 -28 3t-24 13.5t-16.5 31.5t-5.5 57q0 64 18 89.5t56 25.5h79zM566 1088q0 56 40 96t95 40t95 -40t40 -96q0 -55 -40 -95t-95 -40t-95 40t-40 95zM877 1088q0 56 40 96t95 40t95 -40t40 -96q0 -55 -40 -95t-95 -40t-95 40t-40 95z
M726 1365q0 56 40 96t96 40q55 0 95 -40t40 -96q0 -55 -40 -95t-95 -40q-56 0 -96 40t-40 95zM726 -597q0 55 40 95t96 40q55 0 95 -40t40 -95t-40 -95t-95 -40q-56 0 -96 40t-40 95zM566 -320q0 55 40 95t96 40q54 0 94 -40t40 -95t-40 -95t-94 -40q-56 0 -96 40t-40 95z
M877 -320q0 55 40 95t95 40t95 -40t40 -95t-40 -95t-95 -40t-95 40t-40 95z" />
    <glyph glyph-name="uni069C.medi" unicode="&#x69c;" horiz-adv-x="1619" 
d="M68 220q42 0 69.5 1.5t45 11t25 27.5t7.5 51v364h245v-324q0 -61 33.5 -96t102.5 -35q57 0 96 16.5t39 74.5v364h246v-324q0 -67 30 -99t99 -32q53 0 85.5 17.5t32.5 79.5v442h246v-408q0 -71 28 -101t122 -30q15 0 28.5 -3.5t24 -13.5t16 -31t5.5 -57q0 -66 -18 -90.5
t-56 -24.5q-56 0 -109 20t-87 81q-56 -67 -120.5 -84t-135.5 -17q-53 0 -123 22t-119 77q-59 -65 -119 -82t-131 -17q-187 0 -269 99q-51 -66 -133 -82.5t-210 -16.5h-63q-15 0 -28 3t-24 13.5t-16.5 31.5t-5.5 57q0 64 18 89.5t56 25.5h67zM566 1088q0 56 40 96t95 40
t95 -40t40 -96q0 -55 -40 -95t-95 -40t-95 40t-40 95zM877 1088q0 56 40 96t95 40t95 -40t40 -96q0 -55 -40 -95t-95 -40t-95 40t-40 95zM726 1365q0 56 40 96t96 40q55 0 95 -40t40 -96q0 -55 -40 -95t-95 -40q-56 0 -96 40t-40 95zM726 -597q0 55 40 95t96 40q55 0 95 -40
t40 -95t-40 -95t-95 -40q-56 0 -96 40t-40 95zM566 -320q0 55 40 95t96 40q54 0 94 -40t40 -95t-40 -95t-94 -40q-56 0 -96 40t-40 95zM877 -320q0 55 40 95t95 40t95 -40t40 -95t-40 -95t-95 -40t-95 40t-40 95z" />
    <glyph glyph-name="uni069C.fina" unicode="&#x69c;" horiz-adv-x="2211" 
d="M2008 101q-56 -67 -120.5 -84t-135.5 -17q-27 0 -60 4.5t-67.5 16.5t-65 31t-49.5 47q-46 -55 -110.5 -77t-133.5 -22q-80 0 -140 23t-85 44q-2 -149 -38.5 -247t-104 -158t-163.5 -85t-218 -25q-517 0 -517 494v261h244v-263q0 -264 276 -264q144 0 211.5 54.5
t67.5 196.5v644h245v-324q0 -61 34 -96t102 -35q55 0 95 16.5t40 74.5v364h248v-324q0 -42 11.5 -68t29 -40t40 -18.5t46.5 -4.5q55 0 86.5 17.5t31.5 79.5v442h247v-408q0 -71 32.5 -101t124.5 -30q15 0 28.5 -3.5t23.5 -13.5t16 -31t6 -57q0 -66 -18 -90.5t-56 -24.5
q-56 0 -113.5 20t-90.5 81zM1137 1088q0 56 40 96t95 40t95 -40t40 -96q0 -55 -40 -95t-95 -40t-95 40t-40 95zM1447 1088q0 56 40 96t96 40q54 0 94.5 -40t40.5 -96q0 -55 -40.5 -95t-94.5 -40q-56 0 -96 40t-40 95zM1297 1365q0 56 40 96t95 40t95 -40t40 -96
q0 -55 -40 -95t-95 -40t-95 40t-40 95zM1296 -597q0 55 40 95t96 40q55 0 95 -40t40 -95t-40 -95t-95 -40q-56 0 -96 40t-40 95zM1136 -320q0 55 40 95t96 40q55 0 95 -40t40 -95t-40 -95t-95 -40q-56 0 -96 40t-40 95zM1447 -320q0 55 40 95t95 40t95.5 -40t40.5 -95
t-40.5 -95t-95.5 -40t-95 40t-40 95z" />
    <glyph glyph-name="uni069D.init" unicode="&#x69d;" horiz-adv-x="1804" 
d="M619 222q38 109 99 210t143.5 179.5t185 125.5t222.5 47q191 0 301.5 -115.5t110.5 -326.5v-342h-999q-97 0 -165 31.5t-98 67.5q-52 -66 -134 -82.5t-209 -16.5h-75q-15 0 -28 3t-24 13.5t-16.5 31.5t-5.5 57q0 64 18 89.5t56 25.5h79q42 0 69 1.5t44.5 11t25.5 27.5
t8 51v364h244v-324q0 -61 33 -95t115 -34zM1435 220v89q0 97 -43 160t-151 63q-66 0 -122.5 -26t-105.5 -68.5t-86 -99t-60 -118.5h568zM720 -320q0 55 40 95t96 40q55 0 95 -40t40 -95t-40 -95t-95 -40q-56 0 -96 40t-40 95zM1031 -320q0 55 40 95t96 40q55 0 95 -40
t40 -95t-40 -95t-95 -40q-56 0 -96 40t-40 95z" />
    <glyph glyph-name="uni069D.medi" unicode="&#x69d;" horiz-adv-x="1831" 
d="M619 222q38 109 99 210t143.5 179.5t185 125.5t222.5 47q191 0 301.5 -115.5t110.5 -326.5v-122h151q15 0 28.5 -3.5t24 -13.5t16 -31t5.5 -57q0 -66 -18 -90.5t-56 -24.5h-1150q-97 0 -165 31.5t-98 67.5q-50 -66 -132 -82.5t-211 -16.5h-75q-15 0 -28 3t-24 13.5
t-16.5 31.5t-5.5 57q0 64 18 89.5t56 25.5h79q42 0 69 1.5t44.5 11t25.5 27.5t8 51v364h246v-324q0 -61 30 -95t116 -34zM1435 220v89q0 97 -43 160t-151 63q-66 0 -122.5 -26t-105.5 -68.5t-86 -99t-60 -118.5h568zM720 -320q0 55 40 95t96 40q55 0 95 -40t40 -95t-40 -95
t-95 -40q-56 0 -96 40t-40 95zM1031 -320q0 55 40 95t96 40q55 0 95 -40t40 -95t-40 -95t-95 -40q-56 0 -96 40t-40 95z" />
    <glyph glyph-name="uni069D.fina" unicode="&#x69d;" horiz-adv-x="2499" 
d="M1287 222q38 109 99 210t143 179.5t185 125.5t223 47q191 0 301.5 -115.5t110.5 -326.5v-122h150q15 0 28.5 -3.5t24.5 -13.5t16.5 -31t5.5 -57q0 -66 -18 -90.5t-57 -24.5h-1149q-69 0 -118.5 4.5t-84 13.5t-59 22t-45.5 31q-2 -151 -38.5 -250t-103 -159t-164 -85
t-218.5 -25q-519 0 -519 494v261h246v-263q0 -264 276 -264q144 0 210.5 54.5t66.5 196.5v644h247v-324q0 -31 10 -54.5t35.5 -41t73.5 -25.5t122 -8zM2103 220v89q0 97 -43 160t-152 63q-65 0 -121.5 -26t-105.5 -68.5t-86.5 -99t-59.5 -118.5h568zM1464 -320q0 55 40 95
t96 40q55 0 95 -40t40 -95t-40 -95t-95 -40q-56 0 -96 40t-40 95zM1775 -320q0 55 40 95t96 40q55 0 95 -40t40 -95t-40 -95t-95 -40q-56 0 -96 40t-40 95z" />
    <glyph glyph-name="uni069E.init" unicode="&#x69e;" horiz-adv-x="1804" 
d="M619 222q38 109 99 210t143.5 179.5t185 125.5t222.5 47q191 0 301.5 -115.5t110.5 -326.5v-342h-999q-97 0 -165 31.5t-98 67.5q-52 -66 -134 -82.5t-209 -16.5h-75q-15 0 -28 3t-24 13.5t-16.5 31.5t-5.5 57q0 64 18 89.5t56 25.5h79q42 0 69 1.5t44.5 11t25.5 27.5
t8 51v364h244v-324q0 -61 33 -95t115 -34zM1435 220v89q0 97 -43 160t-151 63q-66 0 -122.5 -26t-105.5 -68.5t-86 -99t-60 -118.5h568zM992 1460q40 40 96 40q55 0 95 -40t40 -95t-40 -95t-95 -40q-56 0 -96 40t-40 95t40 95zM836 1183q40 40 95 40t95 -40t40 -95t-40 -95
t-95 -40t-95 40t-40 95t40 95zM1146.5 1183q40.5 40 95.5 40t95 -40t40 -95t-40 -95t-95 -40t-95.5 40t-40.5 95t40.5 95z" />
    <glyph glyph-name="uni069E.medi" unicode="&#x69e;" horiz-adv-x="1831" 
d="M619 222q38 109 99 210t143.5 179.5t185 125.5t222.5 47q191 0 301.5 -115.5t110.5 -326.5v-122h151q15 0 28.5 -3.5t24 -13.5t16 -31t5.5 -57q0 -66 -18 -90.5t-56 -24.5h-1150q-97 0 -165 31.5t-98 67.5q-50 -66 -132 -82.5t-211 -16.5h-75q-15 0 -28 3t-24 13.5
t-16.5 31.5t-5.5 57q0 64 18 89.5t56 25.5h79q42 0 69 1.5t44.5 11t25.5 27.5t8 51v364h246v-324q0 -61 30 -95t116 -34zM1435 220v89q0 97 -43 160t-151 63q-66 0 -122.5 -26t-105.5 -68.5t-86 -99t-60 -118.5h568zM1020 1460q40 40 96 40q55 0 95 -40t40 -95t-40 -95
t-95 -40q-56 0 -96 40t-40 95t40 95zM863.5 1183q40.5 40 95.5 40t95 -40t40 -95t-40 -95t-95 -40t-95.5 40t-40.5 95t40.5 95zM1174 1183q40 40 96 40q55 0 95 -40t40 -95t-40 -95t-95 -40q-56 0 -96 40t-40 95t40 95z" />
    <glyph glyph-name="uni069E.fina" unicode="&#x69e;" horiz-adv-x="2499" 
d="M1287 222q38 109 99 210t143 179.5t185 125.5t223 47q191 0 301.5 -115.5t110.5 -326.5v-122h150q15 0 28.5 -3.5t24.5 -13.5t16.5 -31t5.5 -57q0 -66 -18 -90.5t-57 -24.5h-1149q-69 0 -118.5 4.5t-84 13.5t-59 22t-45.5 31q-2 -151 -38.5 -250t-103 -159t-164 -85
t-218.5 -25q-519 0 -519 494v261h246v-263q0 -264 276 -264q144 0 210.5 54.5t66.5 196.5v644h247v-324q0 -31 10 -54.5t35.5 -41t73.5 -25.5t122 -8zM2103 220v89q0 97 -43 160t-152 63q-65 0 -121.5 -26t-105.5 -68.5t-86.5 -99t-59.5 -118.5h568zM1681 1460q40 40 96 40
q55 0 95 -40t40 -95t-40 -95t-95 -40q-56 0 -96 40t-40 95t40 95zM1525 1183q40 40 96 40q55 0 95 -40t40 -95t-40 -95t-95 -40q-56 0 -96 40t-40 95t40 95zM1836 1183q40 40 96 40q55 0 95 -40t40 -95t-40 -95t-95 -40q-56 0 -96 40t-40 95t40 95z" />
    <glyph glyph-name="uni069F.init" unicode="&#x69f;" horiz-adv-x="1417" 
d="M1046 220v122q0 45 -9.5 83.5t-31 66t-57 43.5t-89.5 16q-57 0 -114 -25.5t-106.5 -71.5t-88.5 -106t-64 -128h560zM474 526q28 58 73.5 104.5t100.5 81t117 53.5t125 19q203 0 303.5 -117.5t100.5 -324.5v-342h-1293q-15 0 -28 3t-24 13.5t-16.5 31.5t-5.5 57
q0 64 18 89.5t56 25.5h226v1141h247v-835zM593 1085q0 56 40 96t95 40t95 -40t40 -96q0 -54 -40 -94.5t-95 -40.5t-95 40.5t-40 94.5zM903 1085q0 56 40 96t96 40q54 0 94 -40t40 -96q0 -54 -40 -94.5t-94 -40.5q-56 0 -96 40.5t-40 94.5zM753 1362q0 56 40 96t95 40t95 -40
t40 -96q0 -55 -40 -95t-95 -40t-95 40t-40 95z" />
    <glyph glyph-name="uni069F.medi" unicode="&#x69f;" horiz-adv-x="1442" 
d="M229 220v1141h245v-835q31 58 76.5 105.5t101 82t116.5 52.5t123 18q201 0 302 -117.5t101 -324.5v-122h149q15 0 28 -3.5t24 -13.5t16.5 -31t5.5 -57q0 -66 -18 -90.5t-56 -24.5h-1442q-15 0 -28 3t-24 13.5t-16.5 31.5t-5.5 57q0 64 18 89.5t56 25.5h228zM1046 220v122
q0 45 -9.5 83.5t-31 66t-57 43.5t-89.5 16q-57 0 -114 -25.5t-106.5 -71.5t-88.5 -106t-64 -128h560zM574 1085q0 56 40 96t95 40t95 -40t40 -96q0 -54 -40 -94.5t-95 -40.5t-95 40.5t-40 94.5zM884 1085q0 56 40 96t96 40q55 0 95 -40t40 -96q0 -54 -40 -94.5t-95 -40.5
q-56 0 -96 40.5t-40 94.5zM734 1362q0 56 40 96t95 40t95 -40t40 -96q0 -55 -40 -95t-95 -40t-95 40t-40 95z" />
    <glyph glyph-name="uni069F.fina" unicode="&#x69f;" horiz-adv-x="1504" 
d="M537 526q30 58 76 105.5t101 82t116 52.5t124 18q200 0 301 -117.5t101 -324.5v-122h149q15 0 28.5 -3.5t24 -13.5t16 -31t5.5 -57q0 -66 -18 -90.5t-56 -24.5h-1470v220h255v1141h247v-835zM1108 220v122q0 45 -9 83.5t-31.5 66t-57.5 43.5t-89 16q-57 0 -114 -25.5
t-106.5 -71.5t-88.5 -106t-64 -128h560zM653 1085q0 56 40 96t95 40t95 -40t40 -96q0 -54 -40 -94.5t-95 -40.5t-95 40.5t-40 94.5zM963 1085q0 56 40 96t96 40q55 0 95 -40t40 -96q0 -54 -40 -94.5t-95 -40.5q-56 0 -96 40.5t-40 94.5zM813 1362q0 56 40 96t95 40t95 -40
t40 -96q0 -55 -40 -95t-95 -40t-95 40t-40 95z" />
    <glyph glyph-name="uni06A0.init" unicode="&#x6a0;" horiz-adv-x="961" 
d="M142 220q-19 35 -28.5 86t-9.5 87q0 100 38 174.5t99 123.5t136.5 73t151.5 24q62 0 124 -13.5t94 -26.5v-226q-59 10 -122 19.5t-88 9.5q-112 0 -160 -48t-48 -116q0 -76 46.5 -121.5t161.5 -45.5h301v-220h-837q-15 0 -28 3t-24 13.5t-16.5 31.5t-5.5 57q0 64 18 89.5
t56 25.5h141zM195 1091q0 56 40 96t95 40t95 -40t40 -96q0 -55 -40 -95t-95 -40t-95 40t-40 95zM505 1091q0 56 40 96t96 40q55 0 95 -40t40 -96q0 -55 -40 -95t-95 -40q-56 0 -96 40t-40 95zM355 1368q0 55 40 95t95 40t95 -40t40 -95t-40 -95t-95 -40t-95 40t-40 95z" />
    <glyph glyph-name="uni06A0.medi" unicode="&#x6a0;" horiz-adv-x="1009" 
d="M526 568q-67 0 -113 -16.5t-73 -34.5q18 -25 41 -53.5t47.5 -57t48 -55.5t45.5 -46q51 32 81.5 84.5t30.5 90.5q0 13 -3.5 29.5t-15 29t-33.5 21t-56 8.5zM133 220q38 0 83.5 1.5t83.5 9.5l-190 229q6 24 16 52t22 53.5t25.5 46.5t24.5 34q60 63 147 100.5t188 37.5
q88 0 153 -23t107.5 -60t63.5 -85t21 -97q0 -66 -44.5 -149.5t-130.5 -149.5h307q15 0 28.5 -3.5t24 -13.5t16 -31t5.5 -57q0 -66 -18 -90.5t-56 -24.5h-307q-50 0 -112 16.5t-113 54.5q-86 -33 -168.5 -52t-169.5 -19h-139q-15 0 -28 3t-24 13.5t-16.5 31.5t-5.5 57
q0 64 18 89.5t56 25.5h132zM223 1091q0 56 40 96t95 40t95 -40t40 -96q0 -55 -40 -95t-95 -40t-95 40t-40 95zM533 1091q0 56 40 96t96 40q55 0 95 -40t40 -96q0 -55 -40 -95t-95 -40q-56 0 -96 40t-40 95zM383 1368q0 55 40 95t95 40t95 -40t40 -95t-40 -95t-95 -40t-95 40
t-40 95z" />
    <glyph glyph-name="uni06A0.fina" unicode="&#x6a0;" horiz-adv-x="1053" 
d="M564 568q-60 0 -106.5 -16.5t-72.5 -34.5q17 -25 40 -53.5t48 -57t49 -55.5t44 -46q52 32 82.5 84.5t30.5 90.5q0 13 -4 29.5t-16.5 29t-35.5 21t-59 8.5zM748 0q-50 0 -112.5 19t-113.5 57q-114 -57 -186.5 -133t-72.5 -168q0 -108 80.5 -162.5t200.5 -54.5
q62 0 138.5 19t194.5 68l95 -178q-68 -45 -133 -72.5t-122 -43t-105 -21t-84 -5.5q-113 0 -209 28.5t-167.5 83t-111.5 134.5t-40 183q0 164 93.5 278.5t263.5 184.5l-202 243q5 24 16 52t22 53.5t24.5 46.5t24.5 34q61 63 148 100.5t188 37.5q88 0 152.5 -23t107.5 -60
t64 -85t21 -97q0 -66 -45 -149.5t-130 -149.5h307q15 0 28.5 -3.5t23.5 -13.5t15.5 -31t5.5 -57q0 -66 -17.5 -90.5t-55.5 -24.5h-307zM278 1091q0 56 40 96t95 40t95 -40t40 -96q0 -55 -40 -95t-95 -40t-95 40t-40 95zM588 1091q0 56 40 96t96 40q55 0 95 -40t40 -96
q0 -55 -40 -95t-95 -40q-56 0 -96 40t-40 95zM438 1368q0 55 40.5 95t94.5 40q55 0 95 -40t40 -95t-40 -95t-95 -40q-54 0 -94.5 40t-40.5 95z" />
    <glyph glyph-name="uni06A1.init" unicode="&#x6a1;" horiz-adv-x="1021" 
d="M378 395q0 -100 46.5 -137.5t110.5 -37.5h107v144q0 38 -4.5 73.5t-19 62t-39.5 43t-63 16.5q-40 0 -65.5 -14.5t-42 -37.5t-23.5 -52.5t-7 -59.5zM167 220q-15 29 -22 76.5t-7 87.5q0 74 26 146t74.5 128.5t121 91t166.5 34.5q108 0 178.5 -39t110.5 -99t56.5 -134
t16.5 -142v-370h-887q-15 0 -28 3t-24 13.5t-16.5 31.5t-5.5 57q0 64 18 89.5t56 25.5h166z" />
    <glyph glyph-name="uni06A1.medi" unicode="&#x6a1;" horiz-adv-x="1034" 
d="M169 220q-15 29 -22 76.5t-7 87.5q0 74 26 146t74.5 128.5t120 91t165.5 34.5q108 0 178.5 -39t110.5 -99t56.5 -134t16.5 -142v-150h147q15 0 28.5 -3.5t23.5 -13.5t16 -31t6 -57q0 -66 -18 -90.5t-56 -24.5h-1034q-15 0 -28 3t-24 13.5t-16.5 31.5t-5.5 57
q0 64 18 89.5t56 25.5h168zM378 395q0 -100 46.5 -137.5t110.5 -37.5h109v144q0 38 -5 73.5t-19 62t-39 43t-65 16.5t-65.5 -14.5t-42 -37.5t-23.5 -52.5t-7 -59.5z" />
    <glyph glyph-name="uni06A1.fina" unicode="&#x6a1;" horiz-adv-x="1940" 
d="M397 0q-113 0 -189.5 16.5t-122 52.5t-65.5 93.5t-20 139.5v314h248v-281q0 -38 9.5 -60t34.5 -35t66.5 -16.5t106.5 -3.5h605q-15 29 -22 76.5t-7 87.5q0 74 26 146t74.5 128.5t120 91t164.5 34.5q109 0 179.5 -39t111.5 -99t57 -134t16 -142v-150h151q15 0 28.5 -3.5
t23.5 -13.5t16 -31t6 -57q0 -66 -18 -90.5t-56 -24.5h-1544zM1281 395q0 -100 46 -137.5t108 -37.5h109v144q0 38 -4.5 73.5t-19 62t-39 43t-64.5 16.5q-38 0 -65 -14.5t-42 -37.5t-22 -52.5t-7 -59.5z" />
    <glyph glyph-name="uni06A2.init" unicode="&#x6a2;" horiz-adv-x="1021" 
d="M378 395q0 -100 46.5 -137.5t110.5 -37.5h107v144q0 38 -4.5 73.5t-19 62t-39.5 43t-63 16.5q-40 0 -65.5 -14.5t-42 -37.5t-23.5 -52.5t-7 -59.5zM167 220q-15 29 -22 76.5t-7 87.5q0 74 26 146t74.5 128.5t121 91t166.5 34.5q108 0 178.5 -39t110.5 -99t56.5 -134
t16.5 -142v-370h-887q-15 0 -28 3t-24 13.5t-16.5 31.5t-5.5 57q0 64 18 89.5t56 25.5h166zM373 -315q0 55 40 95t96 40q55 0 95 -40t40 -95t-40 -95t-95 -40q-56 0 -96 40t-40 95z" />
    <glyph glyph-name="uni06A2.medi" unicode="&#x6a2;" horiz-adv-x="1034" 
d="M169 220q-15 29 -22 76.5t-7 87.5q0 74 26 146t74.5 128.5t120 91t165.5 34.5q108 0 178.5 -39t110.5 -99t56.5 -134t16.5 -142v-150h147q15 0 28.5 -3.5t23.5 -13.5t16 -31t6 -57q0 -66 -18 -90.5t-56 -24.5h-1034q-15 0 -28 3t-24 13.5t-16.5 31.5t-5.5 57
q0 64 18 89.5t56 25.5h168zM378 395q0 -100 46.5 -137.5t110.5 -37.5h109v144q0 38 -5 73.5t-19 62t-39 43t-65 16.5t-65.5 -14.5t-42 -37.5t-23.5 -52.5t-7 -59.5zM394 -315q0 55 40 95t96 40q55 0 95 -40t40 -95t-40 -95t-95 -40q-56 0 -96 40t-40 95z" />
    <glyph glyph-name="uni06A2.fina" unicode="&#x6a2;" horiz-adv-x="1940" 
d="M397 0q-113 0 -189.5 16.5t-122 52.5t-65.5 93.5t-20 139.5v314h248v-281q0 -38 9.5 -60t34.5 -35t66.5 -16.5t106.5 -3.5h605q-15 29 -22 76.5t-7 87.5q0 74 26 146t74.5 128.5t120 91t164.5 34.5q109 0 179.5 -39t111.5 -99t57 -134t16 -142v-150h151q15 0 28.5 -3.5
t23.5 -13.5t16 -31t6 -57q0 -66 -18 -90.5t-56 -24.5h-1544zM1281 395q0 -100 46 -137.5t108 -37.5h109v144q0 38 -4.5 73.5t-19 62t-39 43t-64.5 16.5q-38 0 -65 -14.5t-42 -37.5t-22 -52.5t-7 -59.5zM1285 -315q0 55 40 95t96 40q54 0 94.5 -40t40.5 -95t-40.5 -95
t-94.5 -40q-56 0 -96 40t-40 95z" />
    <glyph glyph-name="uni06A3.init" unicode="&#x6a3;" horiz-adv-x="1021" 
d="M378 395q0 -100 46.5 -137.5t110.5 -37.5h107v144q0 38 -4.5 73.5t-19 62t-39.5 43t-63 16.5q-40 0 -65.5 -14.5t-42 -37.5t-23.5 -52.5t-7 -59.5zM167 220q-15 29 -22 76.5t-7 87.5q0 74 26 146t74.5 128.5t121 91t166.5 34.5q108 0 178.5 -39t110.5 -99t56.5 -134
t16.5 -142v-370h-887q-15 0 -28 3t-24 13.5t-16.5 31.5t-5.5 57q0 64 18 89.5t56 25.5h166zM382 1088q0 56 40 96t96 40q55 0 95 -40t40 -96q0 -55 -40 -95t-95 -40q-56 0 -96 40t-40 95zM382 -315q0 55 40 95t96 40q55 0 95 -40t40 -95t-40 -95t-95 -40q-56 0 -96 40
t-40 95z" />
    <glyph glyph-name="uni06A3.medi" unicode="&#x6a3;" horiz-adv-x="1034" 
d="M169 220q-15 29 -22 76.5t-7 87.5q0 74 26 146t74.5 128.5t120 91t165.5 34.5q108 0 178.5 -39t110.5 -99t56.5 -134t16.5 -142v-150h147q15 0 28.5 -3.5t23.5 -13.5t16 -31t6 -57q0 -66 -18 -90.5t-56 -24.5h-1034q-15 0 -28 3t-24 13.5t-16.5 31.5t-5.5 57
q0 64 18 89.5t56 25.5h168zM378 395q0 -100 46.5 -137.5t110.5 -37.5h109v144q0 38 -5 73.5t-19 62t-39 43t-65 16.5t-65.5 -14.5t-42 -37.5t-23.5 -52.5t-7 -59.5zM385 1088q0 56 40 96t95 40t95 -40t40 -96q0 -55 -40 -95t-95 -40t-95 40t-40 95zM385 -315q0 55 40 95
t96 40q55 0 95 -40t40 -95t-40 -95t-95 -40q-56 0 -96 40t-40 95z" />
    <glyph glyph-name="uni06A3.fina" unicode="&#x6a3;" horiz-adv-x="1940" 
d="M397 0q-113 0 -189.5 16.5t-122 52.5t-65.5 93.5t-20 139.5v314h248v-281q0 -38 9.5 -60t34.5 -35t66.5 -16.5t106.5 -3.5h605q-15 29 -22 76.5t-7 87.5q0 74 26 146t74.5 128.5t120 91t164.5 34.5q109 0 179.5 -39t111.5 -99t57 -134t16 -142v-150h151q15 0 28.5 -3.5
t23.5 -13.5t16 -31t6 -57q0 -66 -18 -90.5t-56 -24.5h-1544zM1281 395q0 -100 46 -137.5t108 -37.5h109v144q0 38 -4.5 73.5t-19 62t-39 43t-64.5 16.5q-38 0 -65 -14.5t-42 -37.5t-22 -52.5t-7 -59.5zM1277 1088q0 56 40 96t96 40q55 0 95 -40t40 -96q0 -55 -40 -95
t-95 -40q-56 0 -96 40t-40 95zM760 -315q0 55 40 95t96 40q54 0 94.5 -40t40.5 -95t-40.5 -95t-94.5 -40q-56 0 -96 40t-40 95z" />
    <glyph glyph-name="uni06A5.init" unicode="&#x6a5;" horiz-adv-x="1021" 
d="M378 395q0 -100 46.5 -137.5t110.5 -37.5h107v144q0 38 -4.5 73.5t-19 62t-39.5 43t-63 16.5q-40 0 -65.5 -14.5t-42 -37.5t-23.5 -52.5t-7 -59.5zM167 220q-15 29 -22 76.5t-7 87.5q0 74 26 146t74.5 128.5t121 91t166.5 34.5q108 0 178.5 -39t110.5 -99t56.5 -134
t16.5 -142v-370h-887q-15 0 -28 3t-24 13.5t-16.5 31.5t-5.5 57q0 64 18 89.5t56 25.5h166zM373 -597q0 55 40 95t96 40q55 0 95 -40t40 -95t-40 -95t-95 -40q-56 0 -96 40t-40 95zM213 -320q0 55 40 95t96 40q55 0 95 -40t40 -95t-40 -95t-95 -40q-56 0 -96 40t-40 95z
M524 -320q0 55 40 95t95 40q56 0 96 -40t40 -95t-40 -95t-96 -40q-55 0 -95 40t-40 95z" />
    <glyph glyph-name="uni06A5.medi" unicode="&#x6a5;" horiz-adv-x="1034" 
d="M169 220q-15 29 -22 76.5t-7 87.5q0 74 26 146t74.5 128.5t120 91t165.5 34.5q108 0 178.5 -39t110.5 -99t56.5 -134t16.5 -142v-150h147q15 0 28.5 -3.5t23.5 -13.5t16 -31t6 -57q0 -66 -18 -90.5t-56 -24.5h-1034q-15 0 -28 3t-24 13.5t-16.5 31.5t-5.5 57
q0 64 18 89.5t56 25.5h168zM378 395q0 -100 46.5 -137.5t110.5 -37.5h109v144q0 38 -5 73.5t-19 62t-39 43t-65 16.5t-65.5 -14.5t-42 -37.5t-23.5 -52.5t-7 -59.5zM394 -597q0 55 40 95t96 40q55 0 95 -40t40 -95t-40 -95t-95 -40q-56 0 -96 40t-40 95zM234 -320
q0 55 40 95t96 40q55 0 95 -40t40 -95t-40 -95t-95 -40q-56 0 -96 40t-40 95zM545 -320q0 55 40 95t95 40q56 0 96 -40t40 -95t-40 -95t-96 -40q-55 0 -95 40t-40 95z" />
    <glyph glyph-name="uni06A5.fina" unicode="&#x6a5;" horiz-adv-x="1940" 
d="M397 0q-113 0 -189.5 16.5t-122 52.5t-65.5 93.5t-20 139.5v314h248v-281q0 -38 9.5 -60t34.5 -35t66.5 -16.5t106.5 -3.5h605q-15 29 -22 76.5t-7 87.5q0 74 26 146t74.5 128.5t120 91t164.5 34.5q109 0 179.5 -39t111.5 -99t57 -134t16 -142v-150h151q15 0 28.5 -3.5
t23.5 -13.5t16 -31t6 -57q0 -66 -18 -90.5t-56 -24.5h-1544zM1281 395q0 -100 46 -137.5t108 -37.5h109v144q0 38 -4.5 73.5t-19 62t-39 43t-64.5 16.5q-38 0 -65 -14.5t-42 -37.5t-22 -52.5t-7 -59.5zM1283 -597q0 55 40 95t96 40q55 0 95 -40t40 -95t-40 -95t-95 -40
q-56 0 -96 40t-40 95zM1123 -320q0 55 40 95t96 40q55 0 95 -40t40 -95t-40 -95t-95 -40q-56 0 -96 40t-40 95zM1434 -320q0 55 40 95t95 40t95 -40t40 -95t-40 -95t-95 -40t-95 40t-40 95z" />
    <glyph glyph-name="uni06A7.init" unicode="&#x6a7;" horiz-adv-x="1021" 
d="M378 395q0 -100 46.5 -137.5t110.5 -37.5h107v144q0 38 -4.5 73.5t-19 62t-39.5 43t-63 16.5q-40 0 -65.5 -14.5t-42 -37.5t-23.5 -52.5t-7 -59.5zM167 220q-15 29 -22 76.5t-7 87.5q0 74 26 146t74.5 128.5t121 91t166.5 34.5q108 0 178.5 -39t110.5 -99t56.5 -134
t16.5 -142v-370h-887q-15 0 -28 3t-24 13.5t-16.5 31.5t-5.5 57q0 64 18 89.5t56 25.5h166zM382 1088q0 56 40 96t96 40q55 0 95 -40t40 -96q0 -55 -40 -95t-95 -40q-56 0 -96 40t-40 95z" />
    <glyph glyph-name="uni06A7.medi" unicode="&#x6a7;" horiz-adv-x="1034" 
d="M169 220q-15 29 -22 76.5t-7 87.5q0 74 26 146t74.5 128.5t120 91t165.5 34.5q108 0 178.5 -39t110.5 -99t56.5 -134t16.5 -142v-150h147q15 0 28.5 -3.5t23.5 -13.5t16 -31t6 -57q0 -66 -18 -90.5t-56 -24.5h-1034q-15 0 -28 3t-24 13.5t-16.5 31.5t-5.5 57
q0 64 18 89.5t56 25.5h168zM378 395q0 -100 46.5 -137.5t110.5 -37.5h109v144q0 38 -5 73.5t-19 62t-39 43t-65 16.5t-65.5 -14.5t-42 -37.5t-23.5 -52.5t-7 -59.5zM376 1088q0 56 40 96t96 40q55 0 95 -40t40 -96q0 -55 -40 -95t-95 -40q-56 0 -96 40t-40 95z" />
    <glyph glyph-name="uni06A7.fina" unicode="&#x6a7;" horiz-adv-x="1418" 
d="M1257 0q-37 -213 -196 -328.5t-449 -115.5q-299 0 -455.5 112t-156.5 355v307h248v-254q0 -154 88 -222.5t290 -68.5q93 0 161 16t113.5 45.5t71 68.5t34.5 85h-114q-84 0 -155 19t-123 62t-80.5 111t-28.5 163q0 76 26 150.5t75.5 133.5t122 94t167.5 35
q105 0 176.5 -36t114.5 -102t62 -156t19 -199v-55h151q15 0 28.5 -3.5t23.5 -13.5t16 -31t6 -57q0 -66 -18 -90.5t-56 -24.5h-162zM751 378q0 -92 38.5 -125t105.5 -33h123v113q0 92 -28.5 152.5t-105.5 60.5q-72 0 -102.5 -48t-30.5 -120zM787 1088q0 56 40 96t95 40
t95.5 -40t40.5 -96q0 -55 -40.5 -95t-95.5 -40t-95 40t-40 95z" />
    <glyph glyph-name="uni06A8.init" unicode="&#x6a8;" horiz-adv-x="1021" 
d="M378 395q0 -100 46.5 -137.5t110.5 -37.5h107v144q0 38 -4.5 73.5t-19 62t-39.5 43t-63 16.5q-40 0 -65.5 -14.5t-42 -37.5t-23.5 -52.5t-7 -59.5zM167 220q-15 29 -22 76.5t-7 87.5q0 74 26 146t74.5 128.5t121 91t166.5 34.5q108 0 178.5 -39t110.5 -99t56.5 -134
t16.5 -142v-370h-887q-15 0 -28 3t-24 13.5t-16.5 31.5t-5.5 57q0 64 18 89.5t56 25.5h166zM213 1088q0 56 40 96t96 40q55 0 95 -40t40 -96q0 -55 -40 -95t-95 -40q-56 0 -96 40t-40 95zM524 1088q0 56 40 96t95 40q56 0 96 -40t40 -96q0 -55 -40 -95t-96 -40q-55 0 -95 40
t-40 95zM373 1365q0 56 40 96t96 40q55 0 95 -40t40 -96q0 -55 -40 -95t-95 -40q-56 0 -96 40t-40 95z" />
    <glyph glyph-name="uni06A8.medi" unicode="&#x6a8;" horiz-adv-x="1034" 
d="M169 220q-15 29 -22 76.5t-7 87.5q0 74 26 146t74.5 128.5t120 91t165.5 34.5q108 0 178.5 -39t110.5 -99t56.5 -134t16.5 -142v-150h147q15 0 28.5 -3.5t23.5 -13.5t16 -31t6 -57q0 -66 -18 -90.5t-56 -24.5h-1034q-15 0 -28 3t-24 13.5t-16.5 31.5t-5.5 57
q0 64 18 89.5t56 25.5h168zM378 395q0 -100 46.5 -137.5t110.5 -37.5h109v144q0 38 -5 73.5t-19 62t-39 43t-65 16.5t-65.5 -14.5t-42 -37.5t-23.5 -52.5t-7 -59.5zM234 1088q0 56 40 96t95 40q56 0 96 -40t40 -96q0 -55 -40 -95t-96 -40q-55 0 -95 40t-40 95zM545 1088
q0 56 40 96t95 40t95 -40t40 -96q0 -55 -40 -95t-95 -40t-95 40t-40 95zM394 1365q0 56 40 96t95 40q56 0 96 -40t40 -96q0 -55 -40 -95t-96 -40q-55 0 -95 40t-40 95z" />
    <glyph glyph-name="uni06A8.fina" unicode="&#x6a8;" horiz-adv-x="1418" 
d="M1257 0q-37 -213 -196 -328.5t-449 -115.5q-299 0 -455.5 112t-156.5 355v307h248v-254q0 -154 88 -222.5t290 -68.5q93 0 161 16t113.5 45.5t71 68.5t34.5 85h-114q-84 0 -155 19t-123 62t-80.5 111t-28.5 163q0 76 26 150.5t75.5 133.5t122 94t167.5 35
q105 0 176.5 -36t114.5 -102t62 -156t19 -199v-55h151q15 0 28.5 -3.5t23.5 -13.5t16 -31t6 -57q0 -66 -18 -90.5t-56 -24.5h-162zM751 378q0 -92 38.5 -125t105.5 -33h123v113q0 92 -28.5 152.5t-105.5 60.5q-72 0 -102.5 -48t-30.5 -120zM632 1088q0 56 40 96t96 40
q55 0 95 -40t40 -96q0 -55 -40 -95t-95 -40q-56 0 -96 40t-40 95zM943 1088q0 56 40 96t95 40q56 0 96 -40t40 -96q0 -55 -40 -95t-96 -40q-55 0 -95 40t-40 95zM792 1365q0 56 40 96t96 40q55 0 95 -40t40 -96q0 -55 -40 -95t-95 -40q-56 0 -96 40t-40 95z" />
    <glyph glyph-name="uni06AA.init" unicode="&#x6aa;" horiz-adv-x="995" 
d="M446 220q40 0 76 15.5t36 66.5q0 33 -42.5 91t-113.5 123.5t-160.5 129t-181.5 111.5q14 63 32 104t37.5 65.5t37 37.5t29.5 18l666 293v-255l-451 -187v-5q115 -75 189.5 -147.5t119 -141t61.5 -130.5t17 -116q0 -45 -12.5 -96.5t-48.5 -95.5t-102 -72.5t-173 -28.5
h-461q-15 0 -28 3t-24 13.5t-16.5 31.5t-5.5 57q0 64 18 89.5t56 25.5h445z" />
    <glyph glyph-name="uni06AA.medi" unicode="&#x6aa;" horiz-adv-x="971" 
d="M420 220q66 0 93 20t27 63q0 37 -27 87t-85.5 109.5t-152 123t-224.5 128.5q7 61 17 99t21 61.5t23.5 34.5t25.5 18l708 308v-260l-427 -183v-7q145 -92 228.5 -201.5t127.5 -229.5q31 -84 75.5 -127.5t120.5 -43.5q16 0 29 -3.5t24 -13.5t16.5 -31t5.5 -57
q0 -66 -18 -90.5t-57 -24.5q-32 0 -66 3t-67.5 15.5t-65 36t-59.5 65.5q-33 -42 -67.5 -65.5t-74.5 -36t-84.5 -15.5t-95.5 -3h-390q-15 0 -28 3t-24 13.5t-16.5 31.5t-5.5 57q0 64 18 89.5t56 25.5h419z" />
    <glyph glyph-name="uni06AA.fina" unicode="&#x6aa;" horiz-adv-x="1730" 
d="M1182 220q63 0 90.5 20t27.5 63q0 37 -27.5 87t-86 109.5t-151.5 123t-225 128.5q8 61 17.5 99t21 61.5t23.5 34.5t26 18l707 308v-260l-426 -183v-7q144 -92 228 -201.5t128 -229.5q30 -84 75 -127.5t121 -43.5q15 0 28.5 -3.5t24 -13.5t16 -31t5.5 -57
q0 -66 -17.5 -90.5t-56.5 -24.5q-32 0 -66.5 3t-68 15.5t-64.5 36t-60 65.5q-33 -42 -67 -65.5t-74.5 -36t-85 -15.5t-95.5 -3h-755q-113 0 -189.5 16.5t-122 52.5t-64.5 93.5t-19 139.5v314h248v-281q0 -38 10.5 -60t35 -35t66.5 -16.5t107 -3.5h715z" />
    <glyph glyph-name="uni06AB.init" unicode="&#x6ab;" horiz-adv-x="995" 
d="M446 220q40 0 76 15.5t36 66.5q0 33 -42.5 91t-113.5 123.5t-160.5 129t-181.5 111.5q14 63 32 104t37.5 65.5t37 37.5t29.5 18l666 293v-255l-451 -187v-5q115 -75 189.5 -147.5t119 -141t61.5 -130.5t17 -116q0 -45 -12.5 -96.5t-48.5 -95.5t-102 -72.5t-173 -28.5
h-461q-15 0 -28 3t-24 13.5t-16.5 31.5t-5.5 57q0 64 18 89.5t56 25.5h445zM70 1057q12 230 166 310l602 272v-244z" />
    <glyph glyph-name="uni06AB.medi" unicode="&#x6ab;" horiz-adv-x="971" 
d="M420 220q66 0 93 20t27 63q0 37 -27 87t-85.5 109.5t-152 123t-224.5 128.5q7 61 17 99t21 61.5t23.5 34.5t25.5 18l708 308v-260l-427 -183v-7q145 -92 228.5 -201.5t127.5 -229.5q31 -84 75.5 -127.5t120.5 -43.5q16 0 29 -3.5t24 -13.5t16.5 -31t5.5 -57
q0 -66 -18 -90.5t-57 -24.5q-32 0 -66 3t-67.5 15.5t-65 36t-59.5 65.5q-33 -42 -67.5 -65.5t-74.5 -36t-84.5 -15.5t-95.5 -3h-390q-15 0 -28 3t-24 13.5t-16.5 31.5t-5.5 57q0 64 18 89.5t56 25.5h419zM74 1057q11 230 166 310l602 272v-244z" />
    <glyph glyph-name="uni06AB.fina" unicode="&#x6ab;" horiz-adv-x="1730" 
d="M1182 220q63 0 90.5 20t27.5 63q0 37 -27.5 87t-86 109.5t-151.5 123t-225 128.5q8 61 17.5 99t21 61.5t23.5 34.5t26 18l707 308v-260l-426 -183v-7q144 -92 228 -201.5t128 -229.5q30 -84 75 -127.5t121 -43.5q15 0 28.5 -3.5t24 -13.5t16 -31t5.5 -57
q0 -66 -17.5 -90.5t-56.5 -24.5q-32 0 -66.5 3t-68 15.5t-64.5 36t-60 65.5q-33 -42 -67 -65.5t-74.5 -36t-85 -15.5t-95.5 -3h-755q-113 0 -189.5 16.5t-122 52.5t-64.5 93.5t-19 139.5v314h248v-281q0 -38 10.5 -60t35 -35t66.5 -16.5t107 -3.5h715zM837 1057
q11 230 166 310l602 272v-244z" />
    <glyph glyph-name="uni06AC.init" unicode="&#x6ac;" horiz-adv-x="995" 
d="M446 220q40 0 76 15.5t36 66.5q0 33 -42.5 91t-113.5 123.5t-160.5 129t-181.5 111.5q14 63 32 104t37.5 65.5t37 37.5t29.5 18l666 293v-255l-451 -187v-5q115 -75 189.5 -147.5t119 -141t61.5 -130.5t17 -116q0 -45 -12.5 -96.5t-48.5 -95.5t-102 -72.5t-173 -28.5
h-461q-15 0 -28 3t-24 13.5t-16.5 31.5t-5.5 57q0 64 18 89.5t56 25.5h445zM214 1429q0 56 40 96t95 40q56 0 96 -40t40 -96q0 -55 -40 -95t-96 -40q-55 0 -95 40t-40 95z" />
    <glyph glyph-name="uni06AC.medi" unicode="&#x6ac;" horiz-adv-x="971" 
d="M420 220q66 0 93 20t27 63q0 37 -27 87t-85.5 109.5t-152 123t-224.5 128.5q7 61 17 99t21 61.5t23.5 34.5t25.5 18l708 308v-260l-427 -183v-7q145 -92 228.5 -201.5t127.5 -229.5q31 -84 75.5 -127.5t120.5 -43.5q16 0 29 -3.5t24 -13.5t16.5 -31t5.5 -57
q0 -66 -18 -90.5t-57 -24.5q-32 0 -66 3t-67.5 15.5t-65 36t-59.5 65.5q-33 -42 -67.5 -65.5t-74.5 -36t-84.5 -15.5t-95.5 -3h-390q-15 0 -28 3t-24 13.5t-16.5 31.5t-5.5 57q0 64 18 89.5t56 25.5h419zM214 1429q0 56 40 96t95 40q56 0 96 -40t40 -96q0 -55 -40 -95
t-96 -40q-55 0 -95 40t-40 95z" />
    <glyph glyph-name="uni06AC.fina" unicode="&#x6ac;" horiz-adv-x="1706" 
d="M980 553h-374v133h76q-9 14 -12.5 38.5t-3.5 39.5q0 44 15 77.5t40 55.5t56 33.5t64 11.5q30 0 55 -6t44 -13v-126q-50 11 -71 11q-36 0 -52 -17t-16 -42t16 -44t62 -19h101v-133zM1706 0q-55 0 -110 18t-90 79q-23 -32 -54 -52t-67.5 -29.5t-75.5 -12.5t-77 -3h-837
q-113 0 -189.5 16.5t-122 52.5t-64.5 93.5t-19 139.5v314h248v-281q0 -38 9.5 -60t34.5 -35t66.5 -16.5t106.5 -3.5h727q65 0 90.5 20t25.5 90v1031h246v-1010q0 -71 29.5 -101t122.5 -30q15 0 28.5 -3.5t24.5 -13.5t16.5 -31t5.5 -57q0 -66 -18 -90.5t-57 -24.5zM1299 1649
q0 55 40 95.5t95 40.5t95.5 -40.5t40.5 -95.5t-40.5 -95t-95.5 -40t-95 40t-40 95z" />
    <glyph glyph-name="uni06AE.init" unicode="&#x6ae;" horiz-adv-x="995" 
d="M446 220q40 0 76 15.5t36 66.5q0 33 -42.5 91t-113.5 123.5t-160.5 129t-181.5 111.5q14 63 32 104t37.5 65.5t37 37.5t29.5 18l666 293v-255l-451 -187v-5q115 -75 189.5 -147.5t119 -141t61.5 -130.5t17 -116q0 -45 -12.5 -96.5t-48.5 -95.5t-102 -72.5t-173 -28.5
h-461q-15 0 -28 3t-24 13.5t-16.5 31.5t-5.5 57q0 64 18 89.5t56 25.5h445zM255 -597q0 55 40 95t96 40q55 0 95 -40t40 -95t-40 -95t-95 -40q-56 0 -96 40t-40 95zM95 -320q0 55 40 95t95 40t95 -40t40 -95t-40 -95t-95 -40t-95 40t-40 95zM405 -320q0 55 40.5 95t94.5 40
q56 0 96 -40t40 -95t-40 -95t-96 -40q-54 0 -94.5 40t-40.5 95z" />
    <glyph glyph-name="uni06AE.medi" unicode="&#x6ae;" horiz-adv-x="971" 
d="M420 220q66 0 93 20t27 63q0 37 -27 87t-85.5 109.5t-152 123t-224.5 128.5q7 61 17 99t21 61.5t23.5 34.5t25.5 18l708 308v-260l-427 -183v-7q145 -92 228.5 -201.5t127.5 -229.5q31 -84 75.5 -127.5t120.5 -43.5q16 0 29 -3.5t24 -13.5t16.5 -31t5.5 -57
q0 -66 -18 -90.5t-57 -24.5q-32 0 -66 3t-67.5 15.5t-65 36t-59.5 65.5q-33 -42 -67.5 -65.5t-74.5 -36t-84.5 -15.5t-95.5 -3h-390q-15 0 -28 3t-24 13.5t-16.5 31.5t-5.5 57q0 64 18 89.5t56 25.5h419zM255 -597q0 55 40 95t96 40q55 0 95 -40t40 -95t-40 -95t-95 -40
q-56 0 -96 40t-40 95zM95 -320q0 55 40 95t95 40t95 -40t40 -95t-40 -95t-95 -40t-95 40t-40 95zM405 -320q0 55 40.5 95t94.5 40q56 0 96 -40t40 -95t-40 -95t-96 -40q-54 0 -94.5 40t-40.5 95z" />
    <glyph glyph-name="uni06AE.fina" unicode="&#x6ae;" horiz-adv-x="1706" 
d="M980 553h-374v133h76q-9 14 -12.5 38.5t-3.5 39.5q0 44 15 77.5t40 55.5t56 33.5t64 11.5q30 0 55 -6t44 -13v-126q-50 11 -71 11q-36 0 -52 -17t-16 -42t16 -44t62 -19h101v-133zM1706 0q-55 0 -110 18t-90 79q-23 -32 -54 -52t-67.5 -29.5t-75.5 -12.5t-77 -3h-837
q-113 0 -189.5 16.5t-122 52.5t-64.5 93.5t-19 139.5v314h248v-281q0 -38 9.5 -60t34.5 -35t66.5 -16.5t106.5 -3.5h727q65 0 90.5 20t25.5 90v1031h246v-1010q0 -71 29.5 -101t122.5 -30q15 0 28.5 -3.5t24.5 -13.5t16.5 -31t5.5 -57q0 -66 -18 -90.5t-57 -24.5zM673 -597
q0 55 40 95t96 40q55 0 95 -40t40 -95t-40 -95t-95 -40q-56 0 -96 40t-40 95zM513 -320q0 55 40 95t96 40q55 0 95 -40t40 -95t-40 -95t-95 -40q-56 0 -96 40t-40 95zM824 -320q0 55 40 95t95 40q56 0 96 -40t40 -95t-40 -95t-96 -40q-55 0 -95 40t-40 95z" />
    <glyph glyph-name="uni06B0.init" unicode="&#x6b0;" horiz-adv-x="995" 
d="M70 1057q12 230 166 310l602 272v-244zM632 946q-22 0 -36.5 -10t-23 -25.5t-13 -36t-4.5 -39.5q0 -37 18 -60t61 -23q36 0 55 20.5t19 57.5q0 48 -19.5 82t-56.5 34zM466 974q-4 -5 -7 -10q-30 -39 -46 -88t-16 -97q0 -56 16.5 -97.5t47 -68t72.5 -40t93 -13.5
q40 0 74 8q10 -14 19 -28q45 -69 62 -131t17 -116q0 -45 -12.5 -96.5t-48.5 -95.5t-102 -72.5t-173 -28.5h-461q-15 0 -28 3t-24 13.5t-16.5 31.5t-5.5 57q0 64 18 89.5t56 25.5h445q40 0 76 15.5t36 66.5q0 33 -42.5 91t-113.5 123.5t-160.5 129t-181.5 111.5q14 63 32 104
t37.5 65.5t37 37.5t29.5 18l666 293v-255l-71 -29q19 -27 32 -62q16 -46 16 -102q0 -38 -12 -72.5t-37.5 -62t-65 -44.5t-95.5 -17q-46 0 -83.5 11.5t-65 35.5t-42 61t-14.5 88q0 42 14 86q10 33 28 61z" />
    <glyph glyph-name="uni06B0.medi" unicode="&#x6b0;" horiz-adv-x="971" 
d="M74 1057q11 230 166 310l602 272v-244zM622 946q-21 0 -35.5 -10t-23.5 -25.5t-13 -36t-4 -39.5q0 -37 17.5 -60t61.5 -23q36 0 55 20.5t19 57.5q0 48 -19.5 82t-57.5 34zM786 986q17 -25 28 -57q16 -46 16 -102q0 -38 -12 -72.5t-37.5 -62t-65.5 -44.5t-95 -17
q-46 0 -83.5 11.5t-65 35.5t-42 61t-14.5 88q0 42 14 86q1 4 3 9q-12 -22 -19 -46q-16 -49 -16 -97q0 -56 16.5 -97.5t47 -68t72.5 -40t93 -13.5q33 0 61 6q55 -85 88 -175q31 -84 75.5 -127.5t120.5 -43.5q16 0 29 -3.5t24 -13.5t16.5 -31t5.5 -57q0 -66 -18 -90.5
t-57 -24.5q-32 0 -66 3t-67.5 15.5t-65 36t-59.5 65.5q-33 -42 -67.5 -65.5t-74.5 -36t-84.5 -15.5t-95.5 -3h-390q-15 0 -28 3t-24 13.5t-16.5 31.5t-5.5 57q0 64 18 89.5t56 25.5h419q66 0 93 20t27 63q0 37 -27 87t-85.5 109.5t-152 123t-224.5 128.5q7 61 17 99t21 61.5
t23.5 34.5t25.5 18l708 308v-260z" />
    <glyph glyph-name="uni06B0.fina" unicode="&#x6b0;" horiz-adv-x="1730" 
d="M837 1057q11 230 166 310l602 272v-244zM1376 946q-22 0 -36 -10t-23 -25.5t-13 -36t-4 -39.5q0 -37 17.5 -60t61.5 -23q35 0 54 20.5t19 57.5q0 48 -19.5 82t-56.5 34zM1204 964q-31 -39 -47 -88t-16 -97q0 -56 16.5 -97.5t47 -68t72.5 -40t93 -13.5q41 0 75 9
q57 -86 90 -178q30 -84 75 -127.5t121 -43.5q15 0 28.5 -3.5t24 -13.5t16 -31t5.5 -57q0 -66 -17.5 -90.5t-56.5 -24.5q-32 0 -66.5 3t-68 15.5t-64.5 36t-60 65.5q-33 -42 -67 -65.5t-74.5 -36t-85 -15.5t-95.5 -3h-755q-113 0 -189.5 16.5t-122 52.5t-64.5 93.5t-19 139.5
v314h248v-281q0 -38 10.5 -60t35 -35t66.5 -16.5t107 -3.5h715q63 0 90.5 20t27.5 63q0 37 -27.5 87t-86 109.5t-151.5 123t-225 128.5q8 61 17.5 99t21 61.5t23.5 34.5t26 18l707 308v-260l-65 -28q16 -24 28 -55q15 -46 15 -102q0 -38 -12 -72.5t-37.5 -62t-65 -44.5
t-95.5 -17q-46 0 -83.5 11.5t-65 35.5t-42 61t-14.5 88q0 42 14 86q8 27 22 51z" />
    <glyph glyph-name="uni06B2.init" unicode="&#x6b2;" horiz-adv-x="995" 
d="M446 220q40 0 76 15.5t36 66.5q0 33 -42.5 91t-113.5 123.5t-160.5 129t-181.5 111.5q14 63 32 104t37.5 65.5t37 37.5t29.5 18l666 293v-255l-451 -187v-5q115 -75 189.5 -147.5t119 -141t61.5 -130.5t17 -116q0 -45 -12.5 -96.5t-48.5 -95.5t-102 -72.5t-173 -28.5
h-461q-15 0 -28 3t-24 13.5t-16.5 31.5t-5.5 57q0 64 18 89.5t56 25.5h445zM70 1057q12 230 166 310l602 272v-244zM95 -320q0 55 40 95t95 40t95 -40t40 -95t-40 -95t-95 -40t-95 40t-40 95zM405 -320q0 55 40.5 95t94.5 40q56 0 96 -40t40 -95t-40 -95t-96 -40
q-54 0 -94.5 40t-40.5 95z" />
    <glyph glyph-name="uni06B2.medi" unicode="&#x6b2;" horiz-adv-x="971" 
d="M420 220q66 0 93 20t27 63q0 37 -27 87t-85.5 109.5t-152 123t-224.5 128.5q7 61 17 99t21 61.5t23.5 34.5t25.5 18l708 308v-260l-427 -183v-7q145 -92 228.5 -201.5t127.5 -229.5q31 -84 75.5 -127.5t120.5 -43.5q16 0 29 -3.5t24 -13.5t16.5 -31t5.5 -57
q0 -66 -18 -90.5t-57 -24.5q-32 0 -66 3t-67.5 15.5t-65 36t-59.5 65.5q-33 -42 -67.5 -65.5t-74.5 -36t-84.5 -15.5t-95.5 -3h-390q-15 0 -28 3t-24 13.5t-16.5 31.5t-5.5 57q0 64 18 89.5t56 25.5h419zM74 1057q11 230 166 310l602 272v-244zM95 -320q0 55 40 95t95 40
t95 -40t40 -95t-40 -95t-95 -40t-95 40t-40 95zM405 -320q0 55 40.5 95t94.5 40q56 0 96 -40t40 -95t-40 -95t-96 -40q-54 0 -94.5 40t-40.5 95z" />
    <glyph glyph-name="uni06B2.fina" unicode="&#x6b2;" horiz-adv-x="1730" 
d="M1182 220q63 0 90.5 20t27.5 63q0 37 -27.5 87t-86 109.5t-151.5 123t-225 128.5q8 61 17.5 99t21 61.5t23.5 34.5t26 18l707 308v-260l-426 -183v-7q144 -92 228 -201.5t128 -229.5q30 -84 75 -127.5t121 -43.5q15 0 28.5 -3.5t24 -13.5t16 -31t5.5 -57
q0 -66 -17.5 -90.5t-56.5 -24.5q-32 0 -66.5 3t-68 15.5t-64.5 36t-60 65.5q-33 -42 -67 -65.5t-74.5 -36t-85 -15.5t-95.5 -3h-755q-113 0 -189.5 16.5t-122 52.5t-64.5 93.5t-19 139.5v314h248v-281q0 -38 10.5 -60t35 -35t66.5 -16.5t107 -3.5h715zM837 1057
q11 230 166 310l602 272v-244zM513 -320q0 55 40 95t96 40q55 0 95 -40t40 -95t-40 -95t-95 -40q-56 0 -96 40t-40 95zM824 -320q0 55 40 95t95 40q56 0 96 -40t40 -95t-40 -95t-96 -40q-55 0 -95 40t-40 95z" />
    <glyph glyph-name="uni06B4.init" unicode="&#x6b4;" horiz-adv-x="995" 
d="M446 220q40 0 76 15.5t36 66.5q0 33 -42.5 91t-113.5 123.5t-160.5 129t-181.5 111.5q14 63 32 104t37.5 65.5t37 37.5t29.5 18l666 293v-255l-451 -187v-5q115 -75 189.5 -147.5t119 -141t61.5 -130.5t17 -116q0 -45 -12.5 -96.5t-48.5 -95.5t-102 -72.5t-173 -28.5
h-461q-15 0 -28 3t-24 13.5t-16.5 31.5t-5.5 57q0 64 18 89.5t56 25.5h445zM70 1057q12 230 166 310l602 272v-244zM58 1718q0 55 40 95t96 40q55 0 95 -40t40 -95t-40 -95t-95 -40q-56 0 -96 40t-40 95zM369 1718q0 55 40 95t95 40q56 0 96 -40t40 -95t-40 -95t-96 -40
q-55 0 -95 40t-40 95zM218 1994q0 56 40 96t96 40q55 0 95 -40t40 -96q0 -55 -40 -95t-95 -40q-56 0 -96 40t-40 95z" />
    <glyph glyph-name="uni06B4.medi" unicode="&#x6b4;" horiz-adv-x="971" 
d="M420 220q66 0 93 20t27 63q0 37 -27 87t-85.5 109.5t-152 123t-224.5 128.5q7 61 17 99t21 61.5t23.5 34.5t25.5 18l708 308v-260l-427 -183v-7q145 -92 228.5 -201.5t127.5 -229.5q31 -84 75.5 -127.5t120.5 -43.5q16 0 29 -3.5t24 -13.5t16.5 -31t5.5 -57
q0 -66 -18 -90.5t-57 -24.5q-32 0 -66 3t-67.5 15.5t-65 36t-59.5 65.5q-33 -42 -67.5 -65.5t-74.5 -36t-84.5 -15.5t-95.5 -3h-390q-15 0 -28 3t-24 13.5t-16.5 31.5t-5.5 57q0 64 18 89.5t56 25.5h419zM74 1057q11 230 166 310l602 272v-244zM58 1718q0 55 40 95t96 40
q55 0 95 -40t40 -95t-40 -95t-95 -40q-56 0 -96 40t-40 95zM369 1718q0 55 40 95t95 40q56 0 96 -40t40 -95t-40 -95t-96 -40q-55 0 -95 40t-40 95zM218 1994q0 56 40 96t96 40q55 0 95 -40t40 -96q0 -55 -40 -95t-95 -40q-56 0 -96 40t-40 95z" />
    <glyph glyph-name="uni06B4.fina" unicode="&#x6b4;" horiz-adv-x="1730" 
d="M1182 220q63 0 90.5 20t27.5 63q0 37 -27.5 87t-86 109.5t-151.5 123t-225 128.5q8 61 17.5 99t21 61.5t23.5 34.5t26 18l707 308v-260l-426 -183v-7q144 -92 228 -201.5t128 -229.5q30 -84 75 -127.5t121 -43.5q15 0 28.5 -3.5t24 -13.5t16 -31t5.5 -57
q0 -66 -17.5 -90.5t-56.5 -24.5q-32 0 -66.5 3t-68 15.5t-64.5 36t-60 65.5q-33 -42 -67 -65.5t-74.5 -36t-85 -15.5t-95.5 -3h-755q-113 0 -189.5 16.5t-122 52.5t-64.5 93.5t-19 139.5v314h248v-281q0 -38 10.5 -60t35 -35t66.5 -16.5t107 -3.5h715zM837 1057
q11 230 166 310l602 272v-244zM802 1718q0 55 40.5 95t95.5 40t95 -40t40 -95t-40 -95t-95 -40t-95.5 40t-40.5 95zM1113 1718q0 55 40 95t95 40q56 0 96 -40t40 -95t-40 -95t-96 -40q-55 0 -95 40t-40 95zM963 1994q0 56 40 96t95 40t95 -40t40 -96q0 -55 -40 -95t-95 -40
t-95 40t-40 95z" />
    <glyph glyph-name="uni06B5.init" unicode="&#x6b5;" horiz-adv-x="652" 
d="M220 220v1141h251v-1361h-470q-15 0 -28 3t-24 13.5t-16.5 31.5t-5.5 57q0 64 18 89.5t56 25.5h219zM20 1881h187l122 -214l118 214h205l-201 -376h-229z" />
    <glyph glyph-name="uni06B5.medi" unicode="&#x6b5;" horiz-adv-x="637" 
d="M118 220q64 0 90 20t26 90v1031h248v-1010q0 -34 3.5 -60t18 -41t42 -22.5t91.5 -7.5q16 0 29 -3.5t24 -13.5t16.5 -31t5.5 -57q0 -66 -18.5 -90.5t-56.5 -24.5q-73 0 -120.5 18t-82.5 79q-23 -32 -55 -52t-68.5 -29.5t-75.5 -12.5t-77 -3h-157q-15 0 -28 3t-24 13.5
t-16.5 31.5t-5.5 57q0 64 18 89.5t56 25.5h117zM20 1881h187l122 -214l118 214h205l-201 -376h-229z" />
    <glyph glyph-name="uni06B5.fina" unicode="&#x6b5;" horiz-adv-x="1215" 
d="M1044 0q-5 -140 -43 -232t-105 -148.5t-162 -80t-215 -23.5q-257 0 -388 124t-131 369v300h248v-290q0 -134 65 -204t213 -70q141 0 208 60t67 201v1355h245v-1141h170q16 0 29 -3.5t23.5 -13.5t16 -31t5.5 -57q0 -66 -18 -90.5t-56 -24.5h-172zM597 1881h187l122 -214
l118 214h205l-201 -376h-229z" />
    <glyph glyph-name="uni06B6.init" unicode="&#x6b6;" horiz-adv-x="613" 
d="M220 220v1141h251v-1361h-470q-15 0 -28 3t-24 13.5t-16.5 31.5t-5.5 57q0 64 18 89.5t56 25.5h219zM209 1639q0 56 40 96t95 40q56 0 96 -40t40 -96q0 -55 -40 -95t-96 -40q-55 0 -95 40t-40 95z" />
    <glyph glyph-name="uni06B6.medi" unicode="&#x6b6;" horiz-adv-x="618" 
d="M118 220q64 0 90 20t26 90v1031h248v-1010q0 -34 3.5 -60t18 -41t42 -22.5t73.5 -7.5q15 0 28.5 -3.5t24 -13.5t16 -31t5.5 -57q0 -66 -18 -90.5t-56 -24.5q-55 0 -102.5 18t-82.5 79q-23 -32 -55 -52t-68.5 -29.5t-75.5 -12.5t-77 -3h-157q-15 0 -28 3t-24 13.5
t-16.5 31.5t-5.5 57q0 64 18 89.5t56 25.5h117zM228 1639q0 56 40 96t95 40q56 0 96 -40t40 -96q0 -55 -40 -95t-96 -40q-55 0 -95 40t-40 95z" />
    <glyph glyph-name="uni06B6.fina" unicode="&#x6b6;" horiz-adv-x="1197" 
d="M1044 0q-5 -140 -43 -232t-105 -148.5t-162 -80t-215 -23.5q-257 0 -388 124t-131 369v300h248v-290q0 -134 65 -204t213 -70q141 0 208 60t67 201v1355h245v-1141h151q16 0 29 -3.5t23.5 -13.5t16.5 -31t6 -57q0 -66 -18.5 -90.5t-56.5 -24.5h-153zM786 1639q0 56 40 96
t96 40q55 0 95 -40t40 -96q0 -55 -40 -95t-95 -40q-56 0 -96 40t-40 95z" />
    <glyph glyph-name="uni06B7.init" unicode="&#x6b7;" horiz-adv-x="598" 
d="M220 220v1141h251v-1361h-470q-15 0 -28 3t-24 13.5t-16.5 31.5t-5.5 57q0 64 18 89.5t56 25.5h219zM16 1639q0 56 40 96t96 40q55 0 95 -40t40 -96q0 -55 -40 -95t-95 -40q-56 0 -96 40t-40 95zM327 1639q0 56 40 96t95 40q56 0 96 -40t40 -96q0 -55 -40 -95t-96 -40
q-55 0 -95 40t-40 95zM176 1916q0 56 40.5 96t95.5 40t95 -40t40 -96q0 -55 -40 -95t-95 -40t-95.5 40t-40.5 95z" />
    <glyph glyph-name="uni06B7.medi" unicode="&#x6b7;" horiz-adv-x="618" 
d="M118 220q64 0 90 20t26 90v1031h248v-1010q0 -34 3.5 -60t18 -41t42 -22.5t73.5 -7.5q15 0 28.5 -3.5t24 -13.5t16 -31t5.5 -57q0 -66 -18 -90.5t-56 -24.5q-55 0 -102.5 18t-82.5 79q-23 -32 -55 -52t-68.5 -29.5t-75.5 -12.5t-77 -3h-157q-15 0 -28 3t-24 13.5
t-16.5 31.5t-5.5 57q0 64 18 89.5t56 25.5h117zM35 1639q0 56 40 96t96 40q55 0 95 -40t40 -96q0 -55 -40 -95t-95 -40q-56 0 -96 40t-40 95zM346 1639q0 56 40 96t95 40q56 0 96 -40t40 -96q0 -55 -40 -95t-96 -40q-55 0 -95 40t-40 95zM195 1916q0 56 40 96t96 40
q55 0 95 -40t40 -96q0 -55 -40 -95t-95 -40q-56 0 -96 40t-40 95z" />
    <glyph glyph-name="uni06B7.fina" unicode="&#x6b7;" horiz-adv-x="1197" 
d="M1044 0q-5 -140 -43 -232t-105 -148.5t-162 -80t-215 -23.5q-257 0 -388 124t-131 369v300h248v-290q0 -134 65 -204t213 -70q141 0 208 60t67 201v1355h245v-1141h151q16 0 29 -3.5t23.5 -13.5t16.5 -31t6 -57q0 -66 -18.5 -90.5t-56.5 -24.5h-153zM602 1639q0 56 40 96
t96 40q55 0 95 -40t40 -96q0 -55 -40 -95t-95 -40q-56 0 -96 40t-40 95zM913 1639q0 56 40 96t95 40q56 0 96 -40t40 -96q0 -55 -40 -95t-96 -40q-55 0 -95 40t-40 95zM762 1916q0 56 40 96t96 40q55 0 95 -40t40 -96q0 -55 -40 -95t-95 -40q-56 0 -96 40t-40 95z" />
    <glyph glyph-name="uni06B8.init" unicode="&#x6b8;" horiz-adv-x="743" 
d="M360 220v1141h250v-1361h-609q-15 0 -28 3t-24 13.5t-16.5 31.5t-5.5 57q0 64 18 89.5t56 25.5h359zM180 -597q0 55 40 95t96 40q55 0 95 -40t40 -95t-40 -95t-95 -40q-56 0 -96 40t-40 95zM20 -320q0 55 40 95t96 40q55 0 95 -40t40 -95t-40 -95t-95 -40q-56 0 -96 40
t-40 95zM331 -320q0 55 40 95t95 40q56 0 96 -40t40 -95t-40 -95t-96 -40q-55 0 -95 40t-40 95z" />
    <glyph glyph-name="uni06B8.medi" unicode="&#x6b8;" horiz-adv-x="618" 
d="M118 220q64 0 90 20t26 90v1031h248v-1010q0 -34 3.5 -60t18 -41t42 -22.5t73.5 -7.5q15 0 28.5 -3.5t24 -13.5t16 -31t5.5 -57q0 -66 -18 -90.5t-56 -24.5q-55 0 -102.5 18t-82.5 79q-23 -32 -55 -52t-68.5 -29.5t-75.5 -12.5t-77 -3h-157q-15 0 -28 3t-24 13.5
t-16.5 31.5t-5.5 57q0 64 18 89.5t56 25.5h117zM180 -597q0 55 40 95t96 40q55 0 95 -40t40 -95t-40 -95t-95 -40q-56 0 -96 40t-40 95zM20 -320q0 55 40 95t96 40q55 0 95 -40t40 -95t-40 -95t-95 -40q-56 0 -96 40t-40 95zM331 -320q0 55 40 95t95 40q56 0 96 -40t40 -95
t-40 -95t-96 -40q-55 0 -95 40t-40 95z" />
    <glyph glyph-name="uni06B8.fina" unicode="&#x6b8;" horiz-adv-x="1197" 
d="M1044 0q-5 -140 -43 -232t-105 -148.5t-162 -80t-215 -23.5q-257 0 -388 124t-131 369v300h248v-290q0 -134 65 -204t213 -70q141 0 208 60t67 201v1355h245v-1141h151q16 0 29 -3.5t23.5 -13.5t16.5 -31t6 -57q0 -66 -18.5 -90.5t-56.5 -24.5h-153zM399 -1040
q0 55 40 95t96 40q55 0 95 -40t40 -95t-40 -95t-95 -40q-56 0 -96 40t-40 95zM239 -763q0 55 40 95t96 40q55 0 95 -40t40 -95t-40 -95t-95 -40q-56 0 -96 40t-40 95zM550 -763q0 55 40 95t95 40q56 0 96 -40t40 -95t-40 -95t-96 -40q-55 0 -95 40t-40 95z" />
    <glyph glyph-name="uni06B9.init" unicode="&#x6b9;" horiz-adv-x="604" 
d="M220 220v539h251v-759h-470q-15 0 -28 3t-24 13.5t-16.5 31.5t-5.5 57q0 64 18 89.5t56 25.5h219zM200 1088q0 56 40 96t95 40q56 0 96 -40t40 -96q0 -55 -40 -95t-96 -40q-55 0 -95 40t-40 95zM201 -315q0 55 40 95t95 40t95 -40t40 -95t-40 -95t-95 -40t-95 40t-40 95z
" />
    <glyph glyph-name="uni06B9.medi" unicode="&#x6b9;" horiz-adv-x="626" 
d="M118 220q64 0 90 20t26 90v429h248v-408q0 -71 26.5 -101t118.5 -30q15 0 28.5 -3.5t23.5 -13.5t16 -31t6 -57q0 -66 -18 -90.5t-56 -24.5q-56 0 -107 18t-86 79q-23 -32 -55 -52t-68.5 -29.5t-75.5 -12.5t-77 -3h-157q-15 0 -28 3t-24 13.5t-16.5 31.5t-5.5 57
q0 64 18 89.5t56 25.5h117zM220 1088q0 56 40 96t96 40q55 0 95 -40t40 -96q0 -55 -40 -95t-95 -40q-56 0 -96 40t-40 95zM222 -315q0 55 40 95t96 40q55 0 95 -40t40 -95t-40 -95t-95 -40q-56 0 -96 40t-40 95z" />
    <glyph glyph-name="uni06B9.fina" unicode="&#x6b9;" horiz-adv-x="1189" 
d="M1190 0q-27 0 -73 13.5t-73 49.5q-3 -147 -40.5 -245t-104 -157t-163 -84t-217.5 -25q-257 0 -388 124t-131 370v261h248v-252q0 -133 68.5 -204t205.5 -71q144 0 211.5 60.5t67.5 201.5v477h245v-166q0 -38 12.5 -64t33 -41t46 -21.5t52.5 -6.5q15 0 28.5 -3.5t24 -13.5
t16 -31t5.5 -57q0 -66 -18 -90.5t-56 -24.5zM404 717q0 55 40 95t96 40q55 0 95 -40t40 -95t-40 -95t-95 -40q-56 0 -96 40t-40 95zM404 -754q0 56 40 96t95 40q56 0 96 -40t40 -96q0 -55 -40 -95t-96 -40q-55 0 -95 40t-40 95z" />
    <glyph glyph-name="uni06BC.init" unicode="&#x6bc;" horiz-adv-x="741" 
d="M347 1088q0 56 40 96t95 40q56 0 96 -40t40 -96q0 -55 -40 -95t-96 -40q-55 0 -95 40t-40 95zM485 0q3 -9 7 -19q18 -51 18 -115q0 -41 -13 -80.5t-42 -70t-73 -49.5t-108 -19q-51 0 -93 13.5t-72.5 40t-47 68t-16.5 97.5q0 47 16 97q7 19 15 37h-75q-15 0 -28 3.5
t-24 14.5t-16.5 32t-5.5 57q0 64 18 89.5t56 25.5h366v537h251v-759h-133zM278 0q-24 0 -40 -11t-26 -29t-15 -40.5t-5 -44.5q0 -42 19.5 -67t69.5 -25q40 0 61.5 23t21.5 65q0 54 -23 92q-22 37 -63 37z" />
    <glyph glyph-name="uni06BC.medi" unicode="&#x6bc;" horiz-adv-x="821" 
d="M430 1088q0 56 40 96t95 40q56 0 96 -40t40 -96q0 -55 -40 -95t-96 -40q-55 0 -95 40t-40 95zM287 0q-24 0 -40 -11t-26 -29t-14.5 -40.5t-4.5 -44.5q0 -42 19.5 -67t68.5 -25q40 0 61.5 23t21.5 65q0 54 -22 92q-23 37 -64 37zM85 0h-84q-15 0 -28 3t-24 13.5
t-16.5 31.5t-5.5 57q0 64 18 89.5t56 25.5h312q65 0 91 20t26 90v429h247v-408q0 -71 26.5 -101t119.5 -30q14 0 27.5 -3.5t24 -13.5t16 -31t5.5 -57q0 -66 -17.5 -90.5t-55.5 -24.5q-56 0 -107.5 18t-85.5 79q-23 -32 -55.5 -52t-68.5 -29q-8 -3 -18 -5q8 -14 13 -30
q18 -51 18 -115q0 -41 -13 -80.5t-42 -70t-73 -49.5t-107 -19q-52 0 -93.5 13.5t-72.5 40t-47 68t-16 97.5q0 47 15 97q7 19 15 37z" />
    <glyph glyph-name="uni06BC.fina" unicode="&#x6bc;" horiz-adv-x="1189" 
d="M404 717q0 55 40 95t96 40q55 0 95 -40t40 -95t-40 -95t-95 -40q-56 0 -96 40t-40 95zM532 -448h-25q-15 -2 -27 -10q-15 -11 -25.5 -29t-15 -40.5t-4.5 -44.5q0 -41 19.5 -66.5t68.5 -25.5q40 0 61.5 23t21.5 65q0 54 -22 92q-19 32 -52 36zM329 -427q-121 30 -198 103
q-131 124 -131 370v261h248v-252q0 -133 68.5 -204t205.5 -71q144 0 211.5 60.5t67.5 201.5v477h245v-166q0 -38 12.5 -64t33 -41t46 -21.5t52.5 -6.5q15 0 28.5 -3.5t24 -13.5t16 -31t5.5 -57q0 -66 -18 -90.5t-56 -24.5q-27 0 -73 13.5t-73 49.5q-3 -147 -40.5 -245
t-104 -157t-162.5 -84q-10 -2 -19 -4q9 -18 16 -38q18 -52 18 -116q0 -41 -13 -80.5t-42 -69.5t-73 -49.5t-107 -19.5q-52 0 -93.5 13.5t-72.5 40t-47 68t-16 97.5q0 48 15 97q11 31 26 57z" />
    <glyph glyph-name="uni06BD.init" unicode="&#x6bd;" horiz-adv-x="615" 
d="M220 220v539h251v-759h-470q-15 0 -28 3t-24 13.5t-16.5 31.5t-5.5 57q0 64 18 89.5t56 25.5h219zM34 1088q0 56 40 96t95 40t95.5 -40t40.5 -96q0 -55 -40.5 -95t-95.5 -40t-95 40t-40 95zM345 1088q0 56 40 96t95 40t95 -40t40 -96q0 -55 -40 -95t-95 -40t-95 40
t-40 95zM194 1365q0 56 40 96t95 40q56 0 96 -40t40 -96q0 -55 -40 -95t-96 -40q-55 0 -95 40t-40 95z" />
    <glyph glyph-name="uni06BD.medi" unicode="&#x6bd;" horiz-adv-x="626" 
d="M118 220q64 0 90 20t26 90v429h248v-408q0 -71 26.5 -101t118.5 -30q15 0 28.5 -3.5t23.5 -13.5t16 -31t6 -57q0 -66 -18 -90.5t-56 -24.5q-56 0 -107 18t-86 79q-23 -32 -55 -52t-68.5 -29.5t-75.5 -12.5t-77 -3h-157q-15 0 -28 3t-24 13.5t-16.5 31.5t-5.5 57
q0 64 18 89.5t56 25.5h117zM51 1088q0 56 40 96t96 40q55 0 95 -40t40 -96q0 -55 -40 -95t-95 -40q-56 0 -96 40t-40 95zM362 1088q0 56 40 96t95 40q56 0 96 -40t40 -96q0 -55 -40 -95t-96 -40q-55 0 -95 40t-40 95zM211 1365q0 56 40 96t96 40q55 0 95 -40t40 -96
q0 -55 -40 -95t-95 -40q-56 0 -96 40t-40 95z" />
    <glyph glyph-name="uni06BD.fina" unicode="&#x6bd;" horiz-adv-x="1189" 
d="M1190 0q-27 0 -73 13.5t-73 49.5q-3 -147 -40.5 -245t-104 -157t-163 -84t-217.5 -25q-257 0 -388 124t-131 370v261h248v-252q0 -133 68.5 -204t205.5 -71q144 0 211.5 60.5t67.5 201.5v477h245v-166q0 -38 12.5 -64t33 -41t46 -21.5t52.5 -6.5q15 0 28.5 -3.5t24 -13.5
t16 -31t5.5 -57q0 -66 -18 -90.5t-56 -24.5zM240 843q0 56 40 96t95 40t95.5 -40t40.5 -96q0 -55 -40.5 -95t-95.5 -40t-95 40t-40 95zM551 843q0 56 40 96t95 40t95 -40t40 -96q0 -55 -40 -95t-95 -40t-95 40t-40 95zM400 1120q0 56 40 96t95 40q56 0 96 -40t40 -96
q0 -55 -40 -95t-96 -40q-55 0 -95 40t-40 95z" />
    <glyph glyph-name="uni06BF.init" unicode="&#x6bf;" horiz-adv-x="1051" 
d="M684 220q-6 75 -25 139.5t-58 110t-100 71t-152 25.5q-31 0 -96.5 -8.5t-132.5 -27.5v221q43 15 118.5 32.5t155.5 17.5q149 0 251 -51.5t165 -137.5t90.5 -199t27.5 -236v-177h-927q-15 0 -28 3t-24 13.5t-16.5 31.5t-5.5 57q0 64 18 89.5t56 25.5h683zM289 1088
q0 56 40 96t95 40q56 0 96 -40t40 -96q0 -55 -40 -95t-96 -40q-55 0 -95 40t-40 95zM289 -597q0 55 40 95t96 40q55 0 95 -40t40 -95t-40 -95t-95 -40q-56 0 -96 40t-40 95zM133 -320q0 55 40 95t96 40q55 0 95 -40t40 -95t-40 -95t-95 -40q-56 0 -96 40t-40 95zM444 -320
q0 55 40 95t95 40t95.5 -40t40.5 -95t-40.5 -95t-95.5 -40t-95 40t-40 95z" />
    <glyph glyph-name="uni06BF.medi" unicode="&#x6bf;" horiz-adv-x="1049" 
d="M684 220q-6 75 -25 139.5t-57 110t-100 71t-153 25.5q-16 0 -40.5 -2t-55.5 -6.5t-65 -11t-68 -16.5v221q43 15 119.5 32.5t154.5 17.5q143 0 243 -47t163 -127t92.5 -186t33.5 -221h124q16 0 29 -3.5t23.5 -13.5t16 -31t5.5 -57q0 -66 -18 -90.5t-56 -24.5h-1049
q-15 0 -28 3t-24 13.5t-16.5 31.5t-5.5 57q0 64 18 89.5t56 25.5h683zM289 1088q0 56 40 96t95 40q56 0 96 -40t40 -96q0 -55 -40 -95t-96 -40q-55 0 -95 40t-40 95zM289 -597q0 55 40 95t96 40q55 0 95 -40t40 -95t-40 -95t-95 -40q-56 0 -96 40t-40 95zM133 -320
q0 55 40 95t96 40q55 0 95 -40t40 -95t-40 -95t-95 -40q-56 0 -96 40t-40 95zM444 -320q0 55 40 95t95 40t95.5 -40t40.5 -95t-40.5 -95t-95.5 -40t-95 40t-40 95z" />
    <glyph glyph-name="uni06BF.fina" unicode="&#x6bf;" horiz-adv-x="1215" 
d="M532 0q-135 0 -207 -72.5t-72 -187.5q0 -125 82.5 -194.5t211.5 -69.5q63 0 147 17t198 70l96 -176q-65 -45 -130 -73.5t-123 -44t-105.5 -21t-76.5 -5.5q-120 0 -221 29.5t-174.5 89.5t-115.5 152.5t-42 218.5q0 118 39 209t110 152.5t168.5 93.5t215.5 32h317
q-11 167 -88.5 256.5t-246.5 89.5q-31 0 -96.5 -7.5t-134.5 -28.5v221q44 15 120 32.5t156 17.5q144 0 243 -47t162 -127t93 -186t35 -221h124q15 0 28.5 -3.5t23.5 -13.5t15.5 -31t5.5 -57q0 -66 -17.5 -90.5t-55.5 -24.5h-685zM404 1088q0 56 40 96t96 40q55 0 95 -40
t40 -96q0 -55 -40 -95t-95 -40q-56 0 -96 40t-40 95zM511 -373q0 41 29.5 70t68.5 29q41 0 70 -29t29 -70q0 -39 -29 -68.5t-70 -29.5q-39 0 -68.5 29.5t-29.5 68.5zM397 -171q0 39 29.5 68t69.5 29t69.5 -29t29.5 -68q0 -41 -29.5 -70.5t-69.5 -29.5t-69.5 29.5t-29.5 70.5
zM624 -171q0 39 28.5 68t68.5 29t69 -29t29 -68q0 -41 -29 -70.5t-69 -29.5t-68.5 29.5t-28.5 70.5z" />
    <glyph glyph-name="uni06C2.fina" unicode="&#x6c2;" horiz-adv-x="569" 
d="M511 0q-40 0 -70.5 12.5t-54.5 32.5t-42 44t-33 46q-27 38 -46 57t-42 19q-15 0 -29 -20t-14 -82q0 -29 2.5 -64.5t10.5 -84.5h-184q-3 38 -6 71.5t-3 57.5q0 73 15.5 137t44 111t71 74t98.5 27q68 0 106 -31.5t76 -89.5q20 -29 51 -63t78 -34h30q16 0 29 -3.5
t23.5 -13.5t16 -31t5.5 -57q0 -66 -18 -90.5t-56 -24.5h-59zM395 624h-372v133h76q-10 13 -13.5 38t-3.5 40q0 44 14.5 77.5t39 55.5t56 33t63.5 11q31 0 55.5 -5.5t44.5 -13.5v-125q-50 11 -71 11q-36 0 -52.5 -17.5t-16.5 -41.5q0 -27 16.5 -45t61.5 -18h102v-133z" />
    <glyph glyph-name="uni06C3.fina" unicode="&#x6c3;" horiz-adv-x="569" 
d="M511 0q-40 0 -70.5 12.5t-54.5 32.5t-42 44t-33 46q-27 38 -46 57t-42 19q-15 0 -29 -20t-14 -82q0 -29 2.5 -64.5t10.5 -84.5h-184q-3 38 -6 71.5t-3 57.5q0 73 15.5 137t44 111t71 74t98.5 27q68 0 106 -31.5t76 -89.5q20 -29 51 -63t78 -34h30q16 0 29 -3.5
t23.5 -13.5t16 -31t5.5 -57q0 -66 -18 -90.5t-56 -24.5h-59zM6 761q0 55 40 95t95 40t95 -40t40 -95t-40 -95t-95 -40t-95 40t-40 95zM317 761q0 55 40 95t95 40t95 -40t40 -95t-40 -95t-95 -40t-95 40t-40 95z" />
    <glyph glyph-name="uni06C4.fina" unicode="&#x6c4;" horiz-adv-x="1025" 
d="M367 378q0 -92 39 -125t104 -33h126v113q0 92 -29 152.5t-106 60.5q-71 0 -102.5 -48t-31.5 -120zM442 -65q0 -36 14 -48t38 -12q28 0 46 10v34q0 35 -10.5 55.5t-36.5 20.5q-27 0 -39 -17.5t-12 -42.5zM628 -61h26q-2 22 -7 42q-8 39 -26.5 67.5t-49.5 44t-76 15.5
q-42 0 -72.5 -15t-51.5 -40q-13 -16 -22 -33q-68 19 -117 61q-52 43 -80.5 111t-28.5 163q0 76 25.5 150.5t75.5 133.5t122 94t166 35q104 0 176 -36t115.5 -102t62.5 -156t19 -199v-55h140q15 0 28.5 -3.5t23.5 -13.5t16.5 -31t6.5 -57q0 -66 -18.5 -90.5t-56.5 -24.5h-145
q-27 -208 -172 -302.5t-432 -94.5h-60v233h44q67 0 119 5q-8 12 -15 27q-10 24 -10 58q0 28 9 55t27 48.5t44 34t60 12.5q39 0 65 -13t41 -36.5t23 -56.5q3 -16 5 -31z" />
    <glyph glyph-name="uni06CA.fina" unicode="&#x6ca;" horiz-adv-x="1025" 
d="M880 0q-27 -208 -172 -302.5t-432 -94.5h-60v233h44q99 0 166 11.5t109.5 33.5t64 51.5t27.5 67.5h-119q-83 0 -154 19t-122.5 62t-80 111t-28.5 163q0 76 25.5 150.5t75.5 133.5t122 94t166 35q104 0 176 -36t115.5 -102t62.5 -156t19 -199v-55h140q15 0 28.5 -3.5
t23.5 -13.5t16.5 -31t6.5 -57q0 -66 -18.5 -90.5t-56.5 -24.5h-145zM367 378q0 -92 39 -125t104 -33h126v113q0 92 -29 152.5t-106 60.5q-71 0 -102.5 -48t-31.5 -120zM231 1088q0 56 40 96t96 40q55 0 95 -40t40 -96q0 -55 -40 -95t-95 -40q-56 0 -96 40t-40 95zM542 1088
q0 56 40 96t95 40q56 0 96 -40t40 -96q0 -55 -40 -95t-96 -40q-55 0 -95 40t-40 95z" />
    <glyph glyph-name="uni06CD.fina" unicode="&#x6cd;" horiz-adv-x="1636" 
d="M516 330v-309q0 -124 89.5 -180t295.5 -56q133 0 214 15t126.5 37.5t59 48t13.5 43.5q0 25 -25.5 45t-73 39.5t-114.5 37.5t-149 38v228q126 -41 241.5 -69t204.5 -28h239q15 0 28.5 -3.5t24 -13.5t16 -31t5.5 -57q0 -66 -18 -90.5t-56 -24.5h-97q3 -17 6 -38t3 -50
q0 -78 -29.5 -142.5t-104 -112.5t-200 -74.5t-318.5 -26.5q-187 0 -308 35.5t-192.5 97.5t-100 144.5t-28.5 179.5v54q-60 -25 -140 -25q-85 0 -128 19v171q32 -6 58 -8q38 -3 59 -3q39 0 67.5 10t47 27.5t28.5 38.5q6 16 8 33h248z" />
    <glyph glyph-name="uni06CE.init" unicode="&#x6ce;" horiz-adv-x="787" 
d="M1 0q-15 0 -28 3.5t-24 14.5t-16.5 32t-5.5 57q0 64 18 89.5t56 25.5h357v537h250v-759h-607zM22 -320q0 55 40 95t96 40q55 0 95 -40t40 -95t-40 -95t-95 -40q-56 0 -96 40t-40 95zM333 -320q0 55 40 95t96 40q55 0 95 -40t40 -95t-40 -95t-95 -40q-56 0 -96 40t-40 95z
M155 1306h187l122 -214l118 214h205l-201 -376h-229z" />
    <glyph glyph-name="uni06CE.medi" unicode="&#x6ce;" horiz-adv-x="702" 
d="M702 0q-45 0 -75.5 3.5t-59 14.5t-54.5 30t-42 49q-24 -32 -56.5 -52t-68 -29.5t-75 -12.5t-77.5 -3h-193q-15 0 -28 3t-24 13.5t-16.5 31.5t-5.5 57q0 64 18 89.5t56 25.5h153q64 0 90.5 20t26.5 90v429h247v-408q0 -71 37.5 -101t146.5 -30q15 0 28.5 -3.5t24.5 -13.5
t16.5 -31t5.5 -57q0 -66 -18 -90.5t-57 -24.5zM51 -320q0 55 40 95t96 40q55 0 95 -40t40 -95t-40 -95t-95 -40q-56 0 -96 40t-40 95zM362 -320q0 55 40 95t95 40q56 0 96 -40t40 -95t-40 -95t-96 -40q-55 0 -95 40t-40 95zM71 1306h187l122 -214l119 214h204l-201 -376
h-229z" />
    <glyph glyph-name="uni06CE.fina" unicode="&#x6ce;" horiz-adv-x="1371" 
d="M1274 0q4 -17 7 -38t3 -50q0 -78 -29.5 -142.5t-104 -112.5t-200 -74.5t-318.5 -26.5q-187 0 -308 35.5t-192.5 97.5t-100 144.5t-28.5 179.5v317h247v-309q0 -124 90 -180t296 -56q133 0 214 15t126 37.5t59 48t14 43.5q0 25 -25.5 45t-73 39.5t-114.5 37.5t-149 38v228
q126 -41 241.5 -69t204.5 -28h238q16 0 29.5 -3.5t24 -13.5t16 -31t5.5 -57q0 -66 -18.5 -90.5t-56.5 -24.5h-97zM0 896h187l122 -214l118 214h205l-201 -376h-229z" />
    <glyph glyph-name="uni06CF.fina" unicode="&#x6cf;" horiz-adv-x="1025" 
d="M880 0q-27 -208 -172 -302.5t-432 -94.5h-60v233h44q99 0 166 11.5t109.5 33.5t64 51.5t27.5 67.5h-119q-83 0 -154 19t-122.5 62t-80 111t-28.5 163q0 76 25.5 150.5t75.5 133.5t122 94t166 35q104 0 176 -36t115.5 -102t62.5 -156t19 -199v-55h140q15 0 28.5 -3.5
t23.5 -13.5t16.5 -31t6.5 -57q0 -66 -18.5 -90.5t-56.5 -24.5h-145zM367 378q0 -92 39 -125t104 -33h126v113q0 92 -29 152.5t-106 60.5q-71 0 -102.5 -48t-31.5 -120zM386 1088q0 56 40.5 96t94.5 40q56 0 96 -40t40 -96q0 -55 -40 -95t-96 -40q-54 0 -94.5 40t-40.5 95z
" />
    <glyph glyph-name="uni06D1.init" unicode="&#x6d1;" horiz-adv-x="741" 
d="M1 0q-15 0 -28 3.5t-24 14.5t-16.5 32t-5.5 57q0 64 18 89.5t56 25.5h366v537h251v-759h-617zM190 -597q0 55 40.5 95t94.5 40q55 0 95 -40t40 -95t-40 -95t-95 -40q-54 0 -94.5 40t-40.5 95zM34 -320q0 55 40 95t95 40t95.5 -40t40.5 -95t-40.5 -95t-95.5 -40t-95 40
t-40 95zM345 -320q0 55 40 95t95 40t95 -40t40 -95t-40 -95t-95 -40t-95 40t-40 95z" />
    <glyph glyph-name="uni06D1.medi" unicode="&#x6d1;" horiz-adv-x="683" 
d="M684 0q-27 0 -57.5 3.5t-59 14.5t-54.5 30t-42 49q-24 -32 -56.5 -52t-68 -29.5t-75 -12.5t-77.5 -3h-193q-15 0 -28 3t-24 13.5t-16.5 31.5t-5.5 57q0 64 18 89.5t56 25.5h153q64 0 90.5 20t26.5 90v429h247v-408q0 -71 37.5 -101t128.5 -30q15 0 28.5 -3.5t24 -13.5
t16 -31t5.5 -57q0 -66 -18 -90.5t-56 -24.5zM218 -597q0 55 40 95t96 40q55 0 95 -40t40 -95t-40 -95t-95 -40q-56 0 -96 40t-40 95zM62 -320q0 55 40 95t96 40q55 0 95 -40t40 -95t-40 -95t-95 -40q-56 0 -96 40t-40 95zM373 -320q0 55 40 95t96 40q55 0 95 -40t40 -95
t-40 -95t-95 -40q-56 0 -96 40t-40 95z" />
    <glyph glyph-name="uni06D1.fina" unicode="&#x6d1;" horiz-adv-x="1368" 
d="M1272 0q3 -17 6 -38t3 -50q0 -78 -29.5 -142.5t-104 -112.5t-200 -74.5t-318.5 -26.5q-187 0 -308 35.5t-192.5 97.5t-100 144.5t-28.5 179.5v317h248v-309q0 -124 89.5 -180t295.5 -56q133 0 214 15t126 37.5t59 48t14 43.5q0 25 -25.5 45t-73 39.5t-114.5 37.5t-149 38
v228q126 -41 241.5 -69t204.5 -28h238q16 0 29.5 -3.5t24 -13.5t16 -31t5.5 -57q0 -66 -18 -90.5t-57 -24.5h-96zM498 -997q0 55 40 95t95 40t95 -40t40 -95t-40 -95t-95 -40t-95 40t-40 95zM342 -721q0 55 40 95t95 40t95.5 -40t40.5 -95q0 -54 -40.5 -94.5t-95.5 -40.5
t-95 40.5t-40 94.5zM653 -721q0 55 40 95t95 40q54 0 94.5 -40t40.5 -95q0 -54 -40.5 -94.5t-94.5 -40.5q-55 0 -95 40.5t-40 94.5z" />
    <glyph glyph-name="uni06D5.fina" unicode="&#x6d5;" horiz-adv-x="836" 
d="M242 495q0 -22 5.5 -47.5t21 -45.5t41 -33.5t65.5 -13.5q25 0 50.5 1.5t52.5 11.5v263h-94q-71 0 -106.5 -37t-35.5 -99zM774 0q-46 0 -89 6.5t-79 23.5t-63.5 47t-42.5 78q-33 -8 -67.5 -13t-68.5 -5q-47 0 -110 14.5t-119.5 52.5t-95.5 106t-39 174q0 105 37 177.5
t95.5 118.5t129.5 66t140 20h324v-571q0 -44 11.5 -59.5t53.5 -15.5h46q15 0 28.5 -3.5t24 -13.5t16 -31t5.5 -57q0 -66 -18 -90.5t-56 -24.5h-63z" />
    <glyph glyph-name="uni06EE.fina" unicode="&#x6ee;" horiz-adv-x="930" 
d="M931 0q-55 0 -94.5 5.5t-67.5 17t-53 30t-52 42.5q-56 -62 -119.5 -78.5t-138.5 -16.5h-331v220h378q46 0 67.5 14t21.5 33q0 21 -18 51.5t-67 101.5l-174 257l227 145l229 -387q36 -62 62.5 -103.5t48.5 -66.5t41 -35t40 -10q15 0 28.5 -3.5t24 -13.5t16 -31t5.5 -57
q0 -66 -17.5 -90.5t-56.5 -24.5zM312 1334h229l201 -376h-204l-119 214l-122 -214h-187z" />
    <glyph glyph-name="uni06EF.fina" unicode="&#x6ef;" horiz-adv-x="709" 
d="M711 0q-35 0 -78.5 11.5t-76.5 49.5q-2 -130 -31 -216.5t-86 -140t-144.5 -76.5t-209.5 -25v233q78 2 123.5 17.5t68.5 48.5t30 83.5t7 121.5v568h246v-324q0 -38 12.5 -63t32.5 -40t45.5 -21.5t60.5 -6.5q14 0 27.5 -3.5t24 -13.5t16 -31t5.5 -57q0 -66 -18 -90.5
t-55 -24.5zM307 1219h229l202 -376h-205l-118 215l-122 -215h-188z" />
    <glyph glyph-name="uni06FA.init" unicode="&#x6fa;" horiz-adv-x="1591" 
d="M80 220q42 0 69 1.5t44.5 11t25.5 27.5t8 51v364h244v-324q0 -61 33 -96t103 -35q56 0 95 16.5t39 74.5v364h248v-324q0 -131 113 -131h118v539h248v-759h-293q-100 0 -152 23.5t-88 75.5q-28 -36 -60.5 -56t-67 -29.5t-67.5 -11.5t-64 -2q-97 0 -163 31.5t-94 67.5
q-52 -66 -134 -82.5t-209 -16.5h-75q-15 0 -28 3t-24 13.5t-16.5 31.5t-5.5 57q0 64 18 89.5t56 25.5h79zM566 1088q0 56 40 96t95 40t95 -40t40 -96q0 -55 -40 -95t-95 -40t-95 40t-40 95zM877 1088q0 56 40 96t95 40t95 -40t40 -96q0 -55 -40 -95t-95 -40t-95 40t-40 95z
M726 1365q0 56 40 96t96 40q55 0 95 -40t40 -96q0 -55 -40 -95t-95 -40q-56 0 -96 40t-40 95zM726 -315q0 55 40 95t96 40q55 0 95 -40t40 -95t-40 -95t-95 -40q-56 0 -96 40t-40 95z" />
    <glyph glyph-name="uni06FA.medi" unicode="&#x6fa;" horiz-adv-x="1619" 
d="M68 220q42 0 69.5 1.5t45 11t25 27.5t7.5 51v364h245v-324q0 -61 33.5 -96t102.5 -35q57 0 96 16.5t39 74.5v364h246v-324q0 -67 30 -99t99 -32q53 0 85.5 17.5t32.5 79.5v442h246v-408q0 -71 28 -101t122 -30q15 0 28.5 -3.5t24 -13.5t16 -31t5.5 -57q0 -66 -18 -90.5
t-56 -24.5q-56 0 -109 20t-87 81q-56 -67 -120.5 -84t-135.5 -17q-53 0 -123 22t-119 77q-59 -65 -119 -82t-131 -17q-187 0 -269 99q-51 -66 -133 -82.5t-210 -16.5h-63q-15 0 -28 3t-24 13.5t-16.5 31.5t-5.5 57q0 64 18 89.5t56 25.5h67zM566 1088q0 56 40 96t95 40
t95 -40t40 -96q0 -55 -40 -95t-95 -40t-95 40t-40 95zM877 1088q0 56 40 96t95 40t95 -40t40 -96q0 -55 -40 -95t-95 -40t-95 40t-40 95zM726 1365q0 56 40 96t96 40q55 0 95 -40t40 -96q0 -55 -40 -95t-95 -40q-56 0 -96 40t-40 95zM726 -315q0 55 40 95t96 40q55 0 95 -40
t40 -95t-40 -95t-95 -40q-56 0 -96 40t-40 95z" />
    <glyph glyph-name="uni06FA.fina" unicode="&#x6fa;" horiz-adv-x="2211" 
d="M2008 101q-56 -67 -120.5 -84t-135.5 -17q-27 0 -60 4.5t-67.5 16.5t-65 31t-49.5 47q-46 -55 -110.5 -77t-133.5 -22q-80 0 -140 23t-85 44q-2 -149 -38.5 -247t-104 -158t-163.5 -85t-218 -25q-517 0 -517 494v261h244v-263q0 -264 276 -264q144 0 211.5 54.5
t67.5 196.5v644h245v-324q0 -61 34 -96t102 -35q55 0 95 16.5t40 74.5v364h248v-324q0 -42 11.5 -68t29 -40t40 -18.5t46.5 -4.5q55 0 86.5 17.5t31.5 79.5v442h247v-408q0 -71 32.5 -101t124.5 -30q15 0 28.5 -3.5t23.5 -13.5t16 -31t6 -57q0 -66 -18 -90.5t-56 -24.5
q-56 0 -113.5 20t-90.5 81zM1137 1088q0 56 40 96t95 40t95 -40t40 -96q0 -55 -40 -95t-95 -40t-95 40t-40 95zM1447 1088q0 56 40 96t96 40q54 0 94.5 -40t40.5 -96q0 -55 -40.5 -95t-94.5 -40q-56 0 -96 40t-40 95zM1297 1365q0 56 40 96t95 40t95 -40t40 -96
q0 -55 -40 -95t-95 -40t-95 40t-40 95zM1296 -315q0 55 40 95t96 40q55 0 95 -40t40 -95t-40 -95t-95 -40q-56 0 -96 40t-40 95z" />
    <glyph glyph-name="uni06FB.init" unicode="&#x6fb;" horiz-adv-x="1804" 
d="M619 222q38 109 99 210t143.5 179.5t185 125.5t222.5 47q191 0 301.5 -115.5t110.5 -326.5v-342h-999q-97 0 -165 31.5t-98 67.5q-52 -66 -134 -82.5t-209 -16.5h-75q-15 0 -28 3t-24 13.5t-16.5 31.5t-5.5 57q0 64 18 89.5t56 25.5h79q42 0 69 1.5t44.5 11t25.5 27.5
t8 51v364h244v-324q0 -61 33 -95t115 -34zM1435 220v89q0 97 -43 160t-151 63q-66 0 -122.5 -26t-105.5 -68.5t-86 -99t-60 -118.5h568zM1066 1088q0 56 40 96t96 40q55 0 95 -40t40 -96q0 -55 -40 -95t-95 -40q-56 0 -96 40t-40 95zM1066 -315q0 55 40 95t96 40
q55 0 95 -40t40 -95t-40 -95t-95 -40q-56 0 -96 40t-40 95z" />
    <glyph glyph-name="uni06FB.medi" unicode="&#x6fb;" horiz-adv-x="1831" 
d="M619 222q38 109 99 210t143.5 179.5t185 125.5t222.5 47q191 0 301.5 -115.5t110.5 -326.5v-122h151q15 0 28.5 -3.5t24 -13.5t16 -31t5.5 -57q0 -66 -18 -90.5t-56 -24.5h-1150q-97 0 -165 31.5t-98 67.5q-50 -66 -132 -82.5t-211 -16.5h-75q-15 0 -28 3t-24 13.5
t-16.5 31.5t-5.5 57q0 64 18 89.5t56 25.5h79q42 0 69 1.5t44.5 11t25.5 27.5t8 51v364h246v-324q0 -61 30 -95t116 -34zM1435 220v89q0 97 -43 160t-151 63q-66 0 -122.5 -26t-105.5 -68.5t-86 -99t-60 -118.5h568zM1066 1088q0 56 40 96t96 40q55 0 95 -40t40 -96
q0 -55 -40 -95t-95 -40q-56 0 -96 40t-40 95zM1066 -315q0 55 40 95t96 40q55 0 95 -40t40 -95t-40 -95t-95 -40q-56 0 -96 40t-40 95z" />
    <glyph glyph-name="uni06FB.fina" unicode="&#x6fb;" horiz-adv-x="2499" 
d="M1287 222q38 109 99 210t143 179.5t185 125.5t223 47q191 0 301.5 -115.5t110.5 -326.5v-122h150q15 0 28.5 -3.5t24.5 -13.5t16.5 -31t5.5 -57q0 -66 -18 -90.5t-57 -24.5h-1149q-69 0 -118.5 4.5t-84 13.5t-59 22t-45.5 31q-2 -151 -38.5 -250t-103 -159t-164 -85
t-218.5 -25q-519 0 -519 494v261h246v-263q0 -264 276 -264q144 0 210.5 54.5t66.5 196.5v644h247v-324q0 -31 10 -54.5t35.5 -41t73.5 -25.5t122 -8zM2103 220v89q0 97 -43 160t-152 63q-65 0 -121.5 -26t-105.5 -68.5t-86.5 -99t-59.5 -118.5h568zM1721 1088q0 56 40 96
t96 40q55 0 95 -40t40 -96q0 -55 -40 -95t-95 -40q-56 0 -96 40t-40 95zM1721 -315q0 55 40 95t96 40q55 0 95 -40t40 -95t-40 -95t-95 -40q-56 0 -96 40t-40 95z" />
    <glyph glyph-name="uni06FC.init" unicode="&#x6fc;" horiz-adv-x="961" 
d="M142 220q-19 35 -28.5 86t-9.5 87q0 100 38 174.5t99 123.5t136.5 73t151.5 24q62 0 124 -13.5t94 -26.5v-226q-59 10 -122 19.5t-88 9.5q-112 0 -160 -48t-48 -116q0 -76 46.5 -121.5t161.5 -45.5h301v-220h-837q-15 0 -28 3t-24 13.5t-16.5 31.5t-5.5 57q0 64 18 89.5
t56 25.5h141zM404 1088q0 56 40 96t95 40t95.5 -40t40.5 -96q0 -55 -40.5 -95t-95.5 -40t-95 40t-40 95z" />
    <glyph glyph-name="uni06FC.medi" unicode="&#x6fc;" horiz-adv-x="1009" 
d="M526 568q-67 0 -113 -16.5t-73 -34.5q18 -25 41 -53.5t47.5 -57t48 -55.5t45.5 -46q51 32 81.5 84.5t30.5 90.5q0 13 -3.5 29.5t-15 29t-33.5 21t-56 8.5zM133 220q38 0 83.5 1.5t83.5 9.5l-190 229q6 24 16 52t22 53.5t25.5 46.5t24.5 34q60 63 147 100.5t188 37.5
q88 0 153 -23t107.5 -60t63.5 -85t21 -97q0 -66 -44.5 -149.5t-130.5 -149.5h307q15 0 28.5 -3.5t24 -13.5t16 -31t5.5 -57q0 -66 -18 -90.5t-56 -24.5h-307q-50 0 -112 16.5t-113 54.5q-86 -33 -168.5 -52t-169.5 -19h-139q-15 0 -28 3t-24 13.5t-16.5 31.5t-5.5 57
q0 64 18 89.5t56 25.5h132zM396 1088q0 56 40 96t95 40q56 0 96 -40t40 -96q0 -55 -40 -95t-96 -40q-55 0 -95 40t-40 95z" />
    <glyph glyph-name="uni06FC.fina" unicode="&#x6fc;" horiz-adv-x="1053" 
d="M564 568q-60 0 -106.5 -16.5t-72.5 -34.5q17 -25 40 -53.5t48 -57t49 -55.5t44 -46q52 32 82.5 84.5t30.5 90.5q0 13 -4 29.5t-16.5 29t-35.5 21t-59 8.5zM748 0q-50 0 -112.5 19t-113.5 57q-114 -57 -186.5 -133t-72.5 -168q0 -108 80.5 -162.5t200.5 -54.5
q62 0 138.5 19t194.5 68l95 -178q-68 -45 -133 -72.5t-122 -43t-105 -21t-84 -5.5q-113 0 -209 28.5t-167.5 83t-111.5 134.5t-40 183q0 164 93.5 278.5t263.5 184.5l-202 243q5 24 16 52t22 53.5t24.5 46.5t24.5 34q61 63 148 100.5t188 37.5q88 0 152.5 -23t107.5 -60
t64 -85t21 -97q0 -66 -45 -149.5t-130 -149.5h307q15 0 28.5 -3.5t23.5 -13.5t15.5 -31t5.5 -57q0 -66 -17.5 -90.5t-55.5 -24.5h-307zM437 1088q0 56 40 96t95 40t95 -40t40 -96q0 -55 -40 -95t-95 -40t-95 40t-40 95zM437 -200q0 56 40 96t96 40q54 0 94 -40t40 -96
q0 -55 -40 -95t-94 -40q-56 0 -96 40t-40 95z" />
    <glyph glyph-name="uni06FF.init" unicode="&#x6ff;" horiz-adv-x="1288" 
d="M230 220q-27 70 -27 146q0 89 33 170.5t91 130.5q-30 -1 -62.5 -2t-64.5 -5v173q55 8 109.5 11.5t107.5 3.5q354 0 546 -172t192 -499v-177h-1154q-15 0 -28 3t-24 13.5t-16.5 31.5t-5.5 57q0 64 18 89.5t56 25.5h229zM743 395q0 -58 -8.5 -101t-21.5 -74h204
q0 173 -65 269.5t-191 137.5q44 -55 63 -121t19 -111zM476 229q21 0 35.5 18t21.5 44t10.5 54t3.5 50q0 29 -4 59t-13.5 55.5t-24 43t-36.5 17.5q-20 0 -34.5 -16t-23.5 -42t-14 -57t-5 -64q0 -23 4 -51.5t13.5 -53t25.5 -41t41 -16.5zM366 1394h229l201 -377h-204l-119 215
l-122 -215h-187z" />
    <glyph glyph-name="uni06FF.medi" unicode="&#x6ff;" horiz-adv-x="1042" 
d="M203 220v73q0 231 96.5 360t269.5 129q90 0 153 -32.5t102 -81t57 -106t18 -107.5q0 -60 -15 -118.5t-53 -109.5v-7h211q15 0 28.5 -3.5t24.5 -13.5t16.5 -31t5.5 -57q0 -66 -18.5 -90.5t-56.5 -24.5h-206v-6q19 -17 30.5 -40t18 -45t8.5 -41t2 -30q0 -61 -20 -116
t-60 -96t-102 -66t-147 -25q-99 0 -168 31.5t-111.5 89.5t-63 142t-20.5 189v13h-202q-15 0 -28 3t-24 13.5t-16.5 31.5t-5.5 57q0 64 18 89.5t56 25.5h202zM422 220h49q49 0 85.5 17.5t59 47.5t33 69t10.5 79q0 53 -25 87.5t-72 34.5q-69 0 -104.5 -67.5t-35.5 -165.5v-102
zM422 0q0 -109 33.5 -176.5t110.5 -67.5q51 0 73 30.5t22 78.5q0 11 -6 34t-21 45t-42.5 39t-71.5 17h-98zM459 1310h229l202 -376h-205l-118 214l-122 -214h-188z" />
    <glyph glyph-name="uni06FF.fina" unicode="&#x6ff;" horiz-adv-x="1155" 
d="M950 0v-6q18 -17 29.5 -40t18 -45t8.5 -41t2 -30q0 -61 -20 -116t-60 -96t-102 -66t-147 -25q-99 0 -168 31.5t-111.5 89.5t-62.5 142t-20 189v13h-102q-33 0 -42 -29.5t-11 -73.5h-120q-21 52 -31.5 102t-10.5 75q0 48 15.5 77t41 43.5t57 20t66.5 5.5h137v73
q0 231 96 360t269 129q90 0 153 -32.5t102.5 -81t57 -106t17.5 -107.5q0 -60 -15 -118.5t-53 -109.5v-7h211q15 0 28.5 -3.5t24.5 -13.5t16.5 -31t5.5 -57q0 -66 -18.5 -90.5t-56.5 -24.5h-205zM535 220h49q49 0 85.5 17.5t59 47.5t33 69t10.5 79q0 53 -25 87.5t-72 34.5
q-69 0 -104.5 -67.5t-35.5 -165.5v-102zM535 0q0 -109 33.5 -176.5t110.5 -67.5q51 0 73 30.5t22 78.5q0 11 -6 34t-21 45t-42.5 39t-71.5 17h-98zM580 1310h229l201 -376h-205l-118 214l-122 -214h-187z" />
    <glyph glyph-name="uniFB50" unicode="&#x671;" horiz-adv-x="512" arabic-form="isolated" 
d="M379 1361v-1361h-246v1361h246zM354 1573v26q0 31 -15.5 46.5t-46.5 15.5q-28 0 -55 -17.5t-42 -42.5v-28h159zM195 1693q48 48 118 48q66 0 98 -36.5t32 -110.5v-113h-406v92h67v148h91v-28z" />
    <glyph glyph-name="uniFB51" unicode="&#x671;" horiz-adv-x="508" arabic-form="final" 
d="M583 115q0 -66 -18.5 -90.5t-56.5 -24.5h-80q-64 0 -118.5 14.5t-93.5 47.5t-61 88.5t-22 137.5v1073h248v-1039q0 -67 23.5 -84.5t68.5 -17.5h35q16 0 29.5 -3.5t23.5 -13.5t16 -31t6 -57zM371 1573v26q0 31 -15.5 46.5t-46.5 15.5q-28 0 -55 -17.5t-42 -42.5v-28h159z
M212 1693q48 48 118 48q66 0 98 -36.5t32 -110.5v-113h-406v92h67v148h91v-28z" />
    <glyph glyph-name="uniFB52" unicode="&#x67b;" horiz-adv-x="1660" arabic-form="isolated" 
d="M1537 0h-1140q-113 0 -189.5 16.5t-122 52.5t-65.5 93.5t-20 139.5v314h249v-279q0 -35 10 -58.5t34.5 -36.5t66.5 -17.5t107 -4.5h821v539h249v-759zM693.5 -726q-40.5 40 -40.5 95t40.5 95t94.5 40q55 0 95 -40t40 -95t-40 -95t-95 -40q-54 0 -94.5 40zM693.5 -416
q-40.5 40 -40.5 96q0 55 40.5 95t94.5 40q55 0 95 -40t40 -95q0 -56 -40 -96t-95 -40q-54 0 -94.5 40z" />
    <glyph glyph-name="uniFB53" unicode="&#x67b;" horiz-adv-x="1706" arabic-form="final" 
d="M1706 0q-55 0 -110 18t-90 79q-23 -32 -54 -52t-67.5 -29.5t-75.5 -12.5t-77 -3h-837q-113 0 -189.5 16.5t-122 52.5t-64.5 93.5t-19 139.5v314h248v-281q0 -38 9.5 -60t34.5 -35t66.5 -16.5t106.5 -3.5h727q65 0 90.5 20t25.5 90v429h246v-408q0 -71 29.5 -101
t122.5 -30q15 0 28.5 -3.5t24.5 -13.5t16.5 -31t5.5 -57q0 -66 -18 -90.5t-57 -24.5zM693.5 -726q-40.5 40 -40.5 95t40.5 95t94.5 40q55 0 95 -40t40 -95t-40 -95t-95 -40q-54 0 -94.5 40zM693.5 -416q-40.5 40 -40.5 96q0 55 40.5 95t94.5 40q55 0 95 -40t40 -95
q0 -56 -40 -96t-95 -40q-54 0 -94.5 40z" />
    <glyph glyph-name="uniFB54" unicode="&#x67b;" horiz-adv-x="594" arabic-form="initial" 
d="M220 220v539h251v-759h-470q-15 0 -28 3t-24 13.5t-16.5 31.5t-5.5 57q0 64 18 89.5t56 25.5h219zM230.5 -726q-40.5 40 -40.5 95t40.5 95t94.5 40q55 0 95 -40t40 -95t-40 -95t-95 -40q-54 0 -94.5 40zM230.5 -416q-40.5 40 -40.5 96q0 55 40.5 95t94.5 40q55 0 95 -40
t40 -95q0 -56 -40 -96t-95 -40q-54 0 -94.5 40z" />
    <glyph glyph-name="uniFB55" unicode="&#x67b;" horiz-adv-x="683" arabic-form="medial" 
d="M684 0q-27 0 -57.5 3.5t-59 14.5t-54.5 30t-42 49q-24 -32 -56.5 -52t-68 -29.5t-75 -12.5t-77.5 -3h-193q-15 0 -28 3t-24 13.5t-16.5 31.5t-5.5 57q0 64 18 89.5t56 25.5h153q64 0 90.5 20t26.5 90v429h247v-408q0 -71 37.5 -101t128.5 -30q15 0 28.5 -3.5t24 -13.5
t16 -31t5.5 -57q0 -66 -18 -90.5t-56 -24.5zM258 -726q-40 40 -40 95t40 95t95 40t95 -40t40 -95t-40 -95t-95 -40t-95 40zM258 -416q-40 40 -40 96q0 55 40 95t95 40t95 -40t40 -95q0 -56 -40 -96t-95 -40t-95 40z" />
    <glyph glyph-name="uniFB56" unicode="&#x67e;" horiz-adv-x="1660" arabic-form="isolated" 
d="M1537 0h-1140q-113 0 -189.5 16.5t-122 52.5t-65.5 93.5t-20 139.5v314h249v-279q0 -35 10 -58.5t34.5 -36.5t66.5 -17.5t107 -4.5h821v539h249v-759zM653 -597q0 55 40.5 95t95.5 40t95 -40t40 -95t-40 -95t-95 -40t-95.5 40t-40.5 95zM498 -320q0 55 40 95t95 40
t95 -40t40 -95t-40 -95t-95 -40t-95 40t-40 95zM808 -320q0 55 40 95t96 40q55 0 95 -40t40 -95t-40 -95t-95 -40q-56 0 -96 40t-40 95z" />
    <glyph glyph-name="uniFB57" unicode="&#x67e;" horiz-adv-x="1706" arabic-form="final" 
d="M1706 0q-55 0 -110 18t-90 79q-23 -32 -54 -52t-67.5 -29.5t-75.5 -12.5t-77 -3h-837q-113 0 -189.5 16.5t-122 52.5t-64.5 93.5t-19 139.5v314h248v-281q0 -38 9.5 -60t34.5 -35t66.5 -16.5t106.5 -3.5h727q65 0 90.5 20t25.5 90v429h246v-408q0 -71 29.5 -101
t122.5 -30q15 0 28.5 -3.5t24.5 -13.5t16.5 -31t5.5 -57q0 -66 -18 -90.5t-57 -24.5zM652 -597q0 55 40 95t96 40q54 0 94.5 -40t40.5 -95t-40.5 -95t-94.5 -40q-56 0 -96 40t-40 95zM495 -320q0 55 40 95t96 40q55 0 95 -40t40 -95t-40 -95t-95 -40q-56 0 -96 40t-40 95z
M806 -320q0 55 40 95t96 40q55 0 95 -40t40 -95t-40 -95t-95 -40q-56 0 -96 40t-40 95z" />
    <glyph glyph-name="uniFB58" unicode="&#x67e;" horiz-adv-x="741" arabic-form="initial" 
d="M1 0q-15 0 -28 3.5t-24 14.5t-16.5 32t-5.5 57q0 64 18 89.5t56 25.5h366v537h251v-759h-617zM190 -597q0 55 40.5 95t94.5 40q55 0 95 -40t40 -95t-40 -95t-95 -40q-54 0 -94.5 40t-40.5 95zM34 -320q0 55 40 95t95 40t95.5 -40t40.5 -95t-40.5 -95t-95.5 -40t-95 40
t-40 95zM345 -320q0 55 40 95t95 40t95 -40t40 -95t-40 -95t-95 -40t-95 40t-40 95z" />
    <glyph glyph-name="uniFB59" unicode="&#x67e;" horiz-adv-x="683" arabic-form="medial" 
d="M684 0q-27 0 -57.5 3.5t-59 14.5t-54.5 30t-42 49q-24 -32 -56.5 -52t-68 -29.5t-75 -12.5t-77.5 -3h-193q-15 0 -28 3t-24 13.5t-16.5 31.5t-5.5 57q0 64 18 89.5t56 25.5h153q64 0 90.5 20t26.5 90v429h247v-408q0 -71 37.5 -101t128.5 -30q15 0 28.5 -3.5t24 -13.5
t16 -31t5.5 -57q0 -66 -18 -90.5t-56 -24.5zM208 -597q0 55 40 95t96 40q55 0 95 -40t40 -95t-40 -95t-95 -40q-56 0 -96 40t-40 95zM52 -320q0 55 40 95t96 40q55 0 95 -40t40 -95t-40 -95t-95 -40q-56 0 -96 40t-40 95zM363 -320q0 55 40 95t96 40q55 0 95 -40t40 -95
t-40 -95t-95 -40q-56 0 -96 40t-40 95z" />
    <glyph glyph-name="uniFB5A" unicode="&#x680;" horiz-adv-x="1660" arabic-form="isolated" 
d="M1537 0h-1140q-113 0 -189.5 16.5t-122 52.5t-65.5 93.5t-20 139.5v314h249v-279q0 -35 10 -58.5t34.5 -36.5t66.5 -17.5t107 -4.5h821v539h249v-759zM496 -320q0 55 40 95t96 40q55 0 95 -40t40 -95q0 -56 -40 -96t-95 -40q-56 0 -96 40t-40 96zM807 -320q0 55 40 95
t95 40q56 0 96 -40t40 -95q0 -56 -40 -96t-96 -40q-55 0 -95 40t-40 96zM496 -631q0 55 40 95t96 40q55 0 95 -40t40 -95q0 -56 -40 -96t-95 -40q-56 0 -96 40t-40 96zM807 -631q0 55 40 95t95 40q56 0 96 -40t40 -95q0 -56 -40 -96t-96 -40q-55 0 -95 40t-40 96z" />
    <glyph glyph-name="uniFB5B" unicode="&#x680;" horiz-adv-x="1706" arabic-form="final" 
d="M1706 0q-55 0 -110 18t-90 79q-23 -32 -54 -52t-67.5 -29.5t-75.5 -12.5t-77 -3h-837q-113 0 -189.5 16.5t-122 52.5t-64.5 93.5t-19 139.5v314h248v-281q0 -38 9.5 -60t34.5 -35t66.5 -16.5t106.5 -3.5h727q65 0 90.5 20t25.5 90v429h246v-408q0 -71 29.5 -101
t122.5 -30q15 0 28.5 -3.5t24.5 -13.5t16.5 -31t5.5 -57q0 -66 -18 -90.5t-57 -24.5zM495 -320q0 55 40 95t96 40q55 0 95 -40t40 -95q0 -56 -40 -96t-95 -40q-56 0 -96 40t-40 96zM806 -320q0 55 40 95t95 40q56 0 96 -40t40 -95q0 -56 -40 -96t-96 -40q-55 0 -95 40
t-40 96zM495 -631q0 55 40 95t96 40q55 0 95 -40t40 -95q0 -56 -40 -96t-95 -40q-56 0 -96 40t-40 96zM806 -631q0 55 40 95t95 40q56 0 96 -40t40 -95q0 -56 -40 -96t-96 -40q-55 0 -95 40t-40 96z" />
    <glyph glyph-name="uniFB5C" unicode="&#x680;" horiz-adv-x="741" arabic-form="initial" 
d="M1 0q-15 0 -28 3.5t-24 14.5t-16.5 32t-5.5 57q0 64 18 89.5t56 25.5h366v537h251v-759h-617zM33 -320q0 55 40 95t96 40q55 0 95 -40t40 -95q0 -56 -40 -96t-95 -40q-56 0 -96 40t-40 96zM344 -320q0 55 40 95t95 40q56 0 96 -40t40 -95q0 -56 -40 -96t-96 -40
q-55 0 -95 40t-40 96zM33 -631q0 55 40 95t96 40q55 0 95 -40t40 -95q0 -56 -40 -96t-95 -40q-56 0 -96 40t-40 96zM344 -631q0 55 40 95t95 40q56 0 96 -40t40 -95q0 -56 -40 -96t-96 -40q-55 0 -95 40t-40 96z" />
    <glyph glyph-name="uniFB5D" unicode="&#x680;" horiz-adv-x="683" arabic-form="medial" 
d="M684 0q-27 0 -57.5 3.5t-59 14.5t-54.5 30t-42 49q-24 -32 -56.5 -52t-68 -29.5t-75 -12.5t-77.5 -3h-193q-15 0 -28 3t-24 13.5t-16.5 31.5t-5.5 57q0 64 18 89.5t56 25.5h153q64 0 90.5 20t26.5 90v429h247v-408q0 -71 37.5 -101t128.5 -30q15 0 28.5 -3.5t24 -13.5
t16 -31t5.5 -57q0 -66 -18 -90.5t-56 -24.5zM64 -320q0 55 40 95t96 40q55 0 95 -40t40 -95q0 -56 -40 -96t-95 -40q-56 0 -96 40t-40 96zM375 -320q0 55 40 95t95 40q56 0 96 -40t40 -95q0 -56 -40 -96t-96 -40q-55 0 -95 40t-40 96zM64 -631q0 55 40 95t96 40q55 0 95 -40
t40 -95q0 -56 -40 -96t-95 -40q-56 0 -96 40t-40 96zM375 -631q0 55 40 95t95 40q56 0 96 -40t40 -95q0 -56 -40 -96t-96 -40q-55 0 -95 40t-40 96z" />
    <glyph glyph-name="uniFB5E" unicode="&#x67a;" horiz-adv-x="1660" arabic-form="isolated" 
d="M1537 0h-1140q-113 0 -189.5 16.5t-122 52.5t-65.5 93.5t-20 139.5v314h249v-279q0 -35 10 -58.5t34.5 -36.5t66.5 -17.5t107 -4.5h821v539h249v-759zM682 882.5q-40 40.5 -40 95.5t40 95t96 40q55 0 95 -40t40 -95t-40 -95.5t-95 -40.5q-56 0 -96 40.5zM682 1193
q-40 40 -40 95q0 56 40 96t96 40q55 0 95 -40t40 -96q0 -55 -40 -95t-95 -40q-56 0 -96 40z" />
    <glyph glyph-name="uniFB5F" unicode="&#x67a;" horiz-adv-x="1706" arabic-form="final" 
d="M1706 0q-55 0 -110 18t-90 79q-23 -32 -54 -52t-67.5 -29.5t-75.5 -12.5t-77 -3h-837q-113 0 -189.5 16.5t-122 52.5t-64.5 93.5t-19 139.5v314h248v-281q0 -38 9.5 -60t34.5 -35t66.5 -16.5t106.5 -3.5h727q65 0 90.5 20t25.5 90v429h246v-408q0 -71 29.5 -101
t122.5 -30q15 0 28.5 -3.5t24.5 -13.5t16.5 -31t5.5 -57q0 -66 -18 -90.5t-57 -24.5zM682 882.5q-40 40.5 -40 95.5t40 95t96 40q55 0 95 -40t40 -95t-40 -95.5t-95 -40.5q-56 0 -96 40.5zM682 1193q-40 40 -40 95q0 56 40 96t96 40q55 0 95 -40t40 -96q0 -55 -40 -95
t-95 -40q-56 0 -96 40z" />
    <glyph glyph-name="uniFB60" unicode="&#x67a;" horiz-adv-x="594" arabic-form="initial" 
d="M220 220v539h251v-759h-470q-15 0 -28 3t-24 13.5t-16.5 31.5t-5.5 57q0 64 18 89.5t56 25.5h219zM234 993q-40 40 -40 96q0 55 40 95t96 40q55 0 95 -40t40 -95q0 -56 -40 -96t-95 -40q-56 0 -96 40zM234 1304q-40 40 -40 95q0 56 40 96t96 40q55 0 95 -40t40 -96
q0 -55 -40 -95t-95 -40q-56 0 -96 40z" />
    <glyph glyph-name="uniFB61" unicode="&#x67a;" horiz-adv-x="626" arabic-form="medial" 
d="M118 220q64 0 90 20t26 90v429h248v-408q0 -71 26.5 -101t118.5 -30q15 0 28.5 -3.5t23.5 -13.5t16 -31t6 -57q0 -66 -18 -90.5t-56 -24.5q-56 0 -107 18t-86 79q-23 -32 -55 -52t-68.5 -29.5t-75.5 -12.5t-77 -3h-157q-15 0 -28 3t-24 13.5t-16.5 31.5t-5.5 57
q0 64 18 89.5t56 25.5h117zM251 993q-40 40 -40 96q0 55 40 95t96 40q55 0 95 -40t40 -95q0 -56 -40 -96t-95 -40q-56 0 -96 40zM251 1304q-40 40 -40 95q0 56 40 96t96 40q55 0 95 -40t40 -96q0 -55 -40 -95t-95 -40q-56 0 -96 40z" />
    <glyph glyph-name="uniFB62" unicode="&#x67f;" horiz-adv-x="1660" arabic-form="isolated" 
d="M1537 0h-1140q-113 0 -189.5 16.5t-122 52.5t-65.5 93.5t-20 139.5v314h249v-279q0 -35 10 -58.5t34.5 -36.5t66.5 -17.5t107 -4.5h821v539h249v-759zM482 1289q0 55 40 95t96 40q55 0 95 -40t40 -95q0 -56 -40 -96t-95 -40q-56 0 -96 40t-40 96zM793 1289q0 55 40 95
t95 40q56 0 96 -40t40 -95q0 -56 -40 -96t-96 -40q-55 0 -95 40t-40 96zM482 978q0 55 40 95t96 40q55 0 95 -40t40 -95t-40 -95.5t-95 -40.5q-56 0 -96 40.5t-40 95.5zM793 978q0 55 40 95t95 40q56 0 96 -40t40 -95t-40 -95.5t-96 -40.5q-55 0 -95 40.5t-40 95.5z" />
    <glyph glyph-name="uniFB63" unicode="&#x67f;" horiz-adv-x="1706" arabic-form="final" 
d="M1706 0q-55 0 -110 18t-90 79q-23 -32 -54 -52t-67.5 -29.5t-75.5 -12.5t-77 -3h-837q-113 0 -189.5 16.5t-122 52.5t-64.5 93.5t-19 139.5v314h248v-281q0 -38 9.5 -60t34.5 -35t66.5 -16.5t106.5 -3.5h727q65 0 90.5 20t25.5 90v429h246v-408q0 -71 29.5 -101
t122.5 -30q15 0 28.5 -3.5t24.5 -13.5t16.5 -31t5.5 -57q0 -66 -18 -90.5t-57 -24.5zM482 1289q0 55 40 95t96 40q55 0 95 -40t40 -95q0 -56 -40 -96t-95 -40q-56 0 -96 40t-40 96zM793 1289q0 55 40 95t95 40q56 0 96 -40t40 -95q0 -56 -40 -96t-96 -40q-55 0 -95 40
t-40 96zM482 978q0 55 40 95t96 40q55 0 95 -40t40 -95t-40 -95.5t-95 -40.5q-56 0 -96 40.5t-40 95.5zM793 978q0 55 40 95t95 40q56 0 96 -40t40 -95t-40 -95.5t-96 -40.5q-55 0 -95 40.5t-40 95.5z" />
    <glyph glyph-name="uniFB64" unicode="&#x67f;" horiz-adv-x="607" arabic-form="initial" 
d="M220 220v539h251v-759h-470q-15 0 -28 3t-24 13.5t-16.5 31.5t-5.5 57q0 64 18 89.5t56 25.5h219zM25 1398q0 55 40 95t96 40q55 0 95 -40t40 -95q0 -56 -40 -96t-95 -40q-56 0 -96 40t-40 96zM336 1398q0 55 40 95t95 40q56 0 96 -40t40 -95q0 -56 -40 -96t-96 -40
q-55 0 -95 40t-40 96zM25 1087q0 55 40 95t96 40q55 0 95 -40t40 -95q0 -56 -40 -96t-95 -40q-56 0 -96 40t-40 96zM336 1087q0 55 40 95t95 40q56 0 96 -40t40 -95q0 -56 -40 -96t-96 -40q-55 0 -95 40t-40 96z" />
    <glyph glyph-name="uniFB65" unicode="&#x67f;" horiz-adv-x="626" arabic-form="medial" 
d="M118 220q64 0 90 20t26 90v429h248v-408q0 -71 26.5 -101t118.5 -30q15 0 28.5 -3.5t23.5 -13.5t16 -31t6 -57q0 -66 -18 -90.5t-56 -24.5q-56 0 -107 18t-86 79q-23 -32 -55 -52t-68.5 -29.5t-75.5 -12.5t-77 -3h-157q-15 0 -28 3t-24 13.5t-16.5 31.5t-5.5 57
q0 64 18 89.5t56 25.5h117zM54 1398q0 55 40 95t96 40q54 0 94 -40t40 -95q0 -56 -40 -96t-94 -40q-56 0 -96 40t-40 96zM365 1398q0 55 40 95t95 40t95 -40t40 -95q0 -56 -40 -96t-95 -40t-95 40t-40 96zM54 1087q0 55 40 95t96 40q54 0 94 -40t40 -95q0 -56 -40 -96
t-94 -40q-56 0 -96 40t-40 96zM365 1087q0 55 40 95t95 40t95 -40t40 -95q0 -56 -40 -96t-95 -40t-95 40t-40 96z" />
    <glyph glyph-name="uniFB66" unicode="&#x679;" horiz-adv-x="1660" arabic-form="isolated" 
d="M935 915v15q0 33 -13 57.5t-56 24.5q-42 0 -76.5 -26.5t-55.5 -70.5h201zM721 1057q38 38 74 53.5t82 15.5q76 0 120 -48t44 -134v-142h-513v113h85v380h108v-238zM1537 0h-1140q-113 0 -189.5 16.5t-122 52.5t-65.5 93.5t-20 139.5v314h249v-279q0 -35 10 -58.5
t34.5 -36.5t66.5 -17.5t107 -4.5h821v539h249v-759z" />
    <glyph glyph-name="uniFB67" unicode="&#x679;" horiz-adv-x="1706" arabic-form="final" 
d="M935 915v15q0 33 -13 57.5t-56 24.5q-42 0 -76.5 -26.5t-55.5 -70.5h201zM721 1057q38 38 74 53.5t82 15.5q76 0 120 -48t44 -134v-142h-513v113h85v380h108v-238zM1706 0q-55 0 -110 18t-90 79q-23 -32 -54 -52t-67.5 -29.5t-75.5 -12.5t-77 -3h-837q-113 0 -189.5 16.5
t-122 52.5t-64.5 93.5t-19 139.5v314h248v-281q0 -38 9.5 -60t34.5 -35t66.5 -16.5t106.5 -3.5h727q65 0 90.5 20t25.5 90v429h246v-408q0 -71 29.5 -101t122.5 -30q15 0 28.5 -3.5t24.5 -13.5t16.5 -31t5.5 -57q0 -66 -18 -90.5t-57 -24.5z" />
    <glyph glyph-name="uniFB68" unicode="&#x679;" horiz-adv-x="594" arabic-form="initial" 
d="M220 220v539h251v-759h-470q-15 0 -28 3t-24 13.5t-16.5 31.5t-5.5 57q0 64 18 89.5t56 25.5h219zM449 1028v15q0 32 -12 57t-57 25q-42 0 -75.5 -27t-55.5 -70h200zM236 1168q38 38 74.5 54.5t81.5 16.5q77 0 120.5 -48.5t43.5 -133.5v-142h-513v113h86v379h107v-239z
" />
    <glyph glyph-name="uniFB69" unicode="&#x679;" horiz-adv-x="626" arabic-form="medial" 
d="M471 1028v15q0 32 -12.5 57t-56.5 25q-42 0 -76.5 -27t-54.5 -70h200zM257 1168q38 38 74 54.5t82 16.5q76 0 120 -48.5t44 -133.5v-142h-513v113h86v379h107v-239zM118 220q64 0 90 20t26 90v429h248v-408q0 -71 26.5 -101t118.5 -30q15 0 28.5 -3.5t23.5 -13.5t16 -31
t6 -57q0 -66 -18 -90.5t-56 -24.5q-56 0 -107 18t-86 79q-23 -32 -55 -52t-68.5 -29.5t-75.5 -12.5t-77 -3h-157q-15 0 -28 3t-24 13.5t-16.5 31.5t-5.5 57q0 64 18 89.5t56 25.5h117z" />
    <glyph glyph-name="uniFB6A" unicode="&#x6a4;" horiz-adv-x="1923" arabic-form="isolated" 
d="M1281 395q0 -100 45 -137.5t109 -37.5h108v144q0 38 -5 73.5t-19.5 62t-39 43t-62.5 16.5t-65 -14.5t-42 -37.5t-22 -52.5t-7 -59.5zM395 0q-113 0 -189.5 16.5t-122 52.5t-64.5 93.5t-19 139.5v314h248v-281q0 -38 9.5 -60t34.5 -35t66.5 -16.5t106.5 -3.5h603
q-16 29 -22.5 76.5t-6.5 87.5q0 74 25.5 146t75.5 128.5t121.5 91t164.5 34.5q109 0 179.5 -39t111.5 -99t57 -134t16 -142v-370h-1395zM1123 1088q0 56 40 96t96 40q55 0 95 -40t40 -96q0 -55 -40 -95t-95 -40q-56 0 -96 40t-40 95zM1434 1088q0 56 40 96t96 40
q54 0 94 -40t40 -96q0 -55 -40 -95t-94 -40q-56 0 -96 40t-40 95zM1283 1365q0 56 40 96t96 40q55 0 95 -40t40 -96q0 -55 -40 -95t-95 -40q-56 0 -96 40t-40 95z" />
    <glyph glyph-name="uniFB6B" unicode="&#x6a4;" horiz-adv-x="1940" arabic-form="final" 
d="M397 0q-113 0 -189.5 16.5t-122 52.5t-65.5 93.5t-20 139.5v314h248v-281q0 -38 9.5 -60t34.5 -35t66.5 -16.5t106.5 -3.5h605q-15 29 -22 76.5t-7 87.5q0 74 26 146t74.5 128.5t120 91t164.5 34.5q109 0 179.5 -39t111.5 -99t57 -134t16 -142v-150h151q15 0 28.5 -3.5
t23.5 -13.5t16 -31t6 -57q0 -66 -18 -90.5t-56 -24.5h-1544zM1281 395q0 -100 46 -137.5t108 -37.5h109v144q0 38 -4.5 73.5t-19 62t-39 43t-64.5 16.5q-38 0 -65 -14.5t-42 -37.5t-22 -52.5t-7 -59.5zM1125 1088q0 56 40 96t95 40t95 -40t40 -96q0 -55 -40 -95t-95 -40
t-95 40t-40 95zM1435 1088q0 56 40.5 96t95.5 40t95 -40t40 -96q0 -55 -40 -95t-95 -40t-95.5 40t-40.5 95zM1285 1365q0 56 40 96t96 40q54 0 94.5 -40t40.5 -96q0 -55 -40.5 -95t-94.5 -40q-56 0 -96 40t-40 95z" />
    <glyph glyph-name="uniFB6C" unicode="&#x6a4;" horiz-adv-x="1021" arabic-form="initial" 
d="M378 395q0 -100 46.5 -137.5t110.5 -37.5h107v144q0 38 -4.5 73.5t-19 62t-39.5 43t-63 16.5q-40 0 -65.5 -14.5t-42 -37.5t-23.5 -52.5t-7 -59.5zM167 220q-15 29 -22 76.5t-7 87.5q0 74 26 146t74.5 128.5t121 91t166.5 34.5q108 0 178.5 -39t110.5 -99t56.5 -134
t16.5 -142v-370h-887q-15 0 -28 3t-24 13.5t-16.5 31.5t-5.5 57q0 64 18 89.5t56 25.5h166zM213 1088q0 56 40 96t96 40q55 0 95 -40t40 -96q0 -55 -40 -95t-95 -40q-56 0 -96 40t-40 95zM524 1088q0 56 40 96t95 40q56 0 96 -40t40 -96q0 -55 -40 -95t-96 -40q-55 0 -95 40
t-40 95zM373 1365q0 56 40 96t96 40q55 0 95 -40t40 -96q0 -55 -40 -95t-95 -40q-56 0 -96 40t-40 95z" />
    <glyph glyph-name="uniFB6D" unicode="&#x6a4;" horiz-adv-x="1034" arabic-form="medial" 
d="M169 220q-15 29 -22 76.5t-7 87.5q0 74 26 146t74.5 128.5t120 91t165.5 34.5q108 0 178.5 -39t110.5 -99t56.5 -134t16.5 -142v-150h147q15 0 28.5 -3.5t23.5 -13.5t16 -31t6 -57q0 -66 -18 -90.5t-56 -24.5h-1034q-15 0 -28 3t-24 13.5t-16.5 31.5t-5.5 57
q0 64 18 89.5t56 25.5h168zM378 395q0 -100 46.5 -137.5t110.5 -37.5h109v144q0 38 -5 73.5t-19 62t-39 43t-65 16.5t-65.5 -14.5t-42 -37.5t-23.5 -52.5t-7 -59.5zM234 1088q0 56 40 96t95 40q56 0 96 -40t40 -96q0 -55 -40 -95t-96 -40q-55 0 -95 40t-40 95zM545 1088
q0 56 40 96t95 40t95 -40t40 -96q0 -55 -40 -95t-95 -40t-95 40t-40 95zM394 1365q0 56 40 96t95 40q56 0 96 -40t40 -96q0 -55 -40 -95t-96 -40q-55 0 -95 40t-40 95z" />
    <glyph glyph-name="uniFB6E" unicode="&#x6a6;" horiz-adv-x="1923" arabic-form="isolated" 
d="M1281 395q0 -100 45 -137.5t109 -37.5h108v144q0 38 -5 73.5t-19.5 62t-39 43t-62.5 16.5t-65 -14.5t-42 -37.5t-22 -52.5t-7 -59.5zM395 0q-113 0 -189.5 16.5t-122 52.5t-64.5 93.5t-19 139.5v314h248v-281q0 -38 9.5 -60t34.5 -35t66.5 -16.5t106.5 -3.5h603
q-16 29 -22.5 76.5t-6.5 87.5q0 74 25.5 146t75.5 128.5t121.5 91t164.5 34.5q109 0 179.5 -39t111.5 -99t57 -134t16 -142v-370h-1395zM1120 1398q0 55 40 95t96 40q55 0 95 -40t40 -95q0 -56 -40 -96t-95 -40q-56 0 -96 40t-40 96zM1431 1398q0 55 40 95t95 40
q56 0 96 -40t40 -95q0 -56 -40 -96t-96 -40q-55 0 -95 40t-40 96zM1120 1087q0 55 40 95t96 40q55 0 95 -40t40 -95q0 -56 -40 -96t-95 -40q-56 0 -96 40t-40 96zM1431 1087q0 55 40 95t95 40q56 0 96 -40t40 -95q0 -56 -40 -96t-96 -40q-55 0 -95 40t-40 96z" />
    <glyph glyph-name="uniFB6F" unicode="&#x6a6;" horiz-adv-x="1940" arabic-form="final" 
d="M397 0q-113 0 -189.5 16.5t-122 52.5t-65.5 93.5t-20 139.5v314h248v-281q0 -38 9.5 -60t34.5 -35t66.5 -16.5t106.5 -3.5h605q-15 29 -22 76.5t-7 87.5q0 74 26 146t74.5 128.5t120 91t164.5 34.5q109 0 179.5 -39t111.5 -99t57 -134t16 -142v-150h151q15 0 28.5 -3.5
t23.5 -13.5t16 -31t6 -57q0 -66 -18 -90.5t-56 -24.5h-1544zM1281 395q0 -100 46 -137.5t108 -37.5h109v144q0 38 -4.5 73.5t-19 62t-39 43t-64.5 16.5q-38 0 -65 -14.5t-42 -37.5t-22 -52.5t-7 -59.5zM1120 1398q0 55 40 95t96 40q55 0 95 -40t40 -95q0 -56 -40 -96
t-95 -40q-56 0 -96 40t-40 96zM1431 1398q0 55 40 95t95 40q56 0 96 -40t40 -95q0 -56 -40 -96t-96 -40q-55 0 -95 40t-40 96zM1120 1087q0 55 40 95t96 40q55 0 95 -40t40 -95q0 -56 -40 -96t-95 -40q-56 0 -96 40t-40 96zM1431 1087q0 55 40 95t95 40q56 0 96 -40t40 -95
q0 -56 -40 -96t-96 -40q-55 0 -95 40t-40 96z" />
    <glyph glyph-name="uniFB70" unicode="&#x6a6;" horiz-adv-x="1021" arabic-form="initial" 
d="M378 395q0 -100 46.5 -137.5t110.5 -37.5h107v144q0 38 -4.5 73.5t-19 62t-39.5 43t-63 16.5q-40 0 -65.5 -14.5t-42 -37.5t-23.5 -52.5t-7 -59.5zM167 220q-15 29 -22 76.5t-7 87.5q0 74 26 146t74.5 128.5t121 91t166.5 34.5q108 0 178.5 -39t110.5 -99t56.5 -134
t16.5 -142v-370h-887q-15 0 -28 3t-24 13.5t-16.5 31.5t-5.5 57q0 64 18 89.5t56 25.5h166zM208 1398q0 55 40 95t96 40q55 0 95 -40t40 -95q0 -56 -40 -96t-95 -40q-56 0 -96 40t-40 96zM519 1398q0 55 40 95t95 40q56 0 96 -40t40 -95q0 -56 -40 -96t-96 -40q-55 0 -95 40
t-40 96zM208 1087q0 55 40 95t96 40q55 0 95 -40t40 -95q0 -56 -40 -96t-95 -40q-56 0 -96 40t-40 96zM519 1087q0 55 40 95t95 40q56 0 96 -40t40 -95q0 -56 -40 -96t-96 -40q-55 0 -95 40t-40 96z" />
    <glyph glyph-name="uniFB71" unicode="&#x6a6;" horiz-adv-x="1034" arabic-form="medial" 
d="M169 220q-15 29 -22 76.5t-7 87.5q0 74 26 146t74.5 128.5t120 91t165.5 34.5q108 0 178.5 -39t110.5 -99t56.5 -134t16.5 -142v-150h147q15 0 28.5 -3.5t23.5 -13.5t16 -31t6 -57q0 -66 -18 -90.5t-56 -24.5h-1034q-15 0 -28 3t-24 13.5t-16.5 31.5t-5.5 57
q0 64 18 89.5t56 25.5h168zM378 395q0 -100 46.5 -137.5t110.5 -37.5h109v144q0 38 -5 73.5t-19 62t-39 43t-65 16.5t-65.5 -14.5t-42 -37.5t-23.5 -52.5t-7 -59.5zM233 1398q0 55 40 95t96 40q55 0 95 -40t40 -95q0 -56 -40 -96t-95 -40q-56 0 -96 40t-40 96zM544 1398
q0 55 40 95t95 40q56 0 96 -40t40 -95q0 -56 -40 -96t-96 -40q-55 0 -95 40t-40 96zM233 1087q0 55 40 95t96 40q55 0 95 -40t40 -95q0 -56 -40 -96t-95 -40q-56 0 -96 40t-40 96zM544 1087q0 55 40 95t95 40q56 0 96 -40t40 -95q0 -56 -40 -96t-96 -40q-55 0 -95 40t-40 96
z" />
    <glyph glyph-name="uniFB72" unicode="&#x684;" horiz-adv-x="1218" arabic-form="isolated" 
d="M848 220q-9 167 -86.5 256.5t-246.5 89.5q-15 0 -40 -2t-56.5 -6.5t-66 -11t-68.5 -16.5v221q44 15 120 32.5t156 17.5q149 0 251 -51.5t165 -137.5t91 -199t28 -236v-177h-563q-135 0 -207 -72.5t-72 -187.5q0 -125 81 -194.5t213 -69.5q63 0 144 16t201 71l96 -176
q-65 -45 -130 -73.5t-123 -44t-105.5 -21t-76.5 -5.5q-120 0 -221 29.5t-175.5 89.5t-115.5 152.5t-41 218.5q0 118 39 209t108.5 152.5t167.5 93.5t218 32h315zM531 -437.5q-28 27.5 -28 66.5q0 38 28 66t66 28t66 -28t28 -66q0 -39 -28 -66.5t-66 -27.5t-66 27.5z
M531 -221.5q-28 27.5 -28 66.5q0 38 28 66t66 28t66 -28t28 -66q0 -39 -28 -66.5t-66 -27.5t-66 27.5z" />
    <glyph glyph-name="uniFB73" unicode="&#x684;" horiz-adv-x="1215" arabic-form="final" 
d="M532 0q-135 0 -207 -72.5t-72 -187.5q0 -125 82.5 -194.5t211.5 -69.5q63 0 147 17t198 70l96 -176q-65 -45 -130 -73.5t-123 -44t-105.5 -21t-76.5 -5.5q-120 0 -221 29.5t-174.5 89.5t-115.5 152.5t-42 218.5q0 118 39 209t110 152.5t168.5 93.5t215.5 32h317
q-11 167 -88.5 256.5t-246.5 89.5q-31 0 -96.5 -7.5t-134.5 -28.5v221q44 15 120 32.5t156 17.5q144 0 243 -47t162 -127t93 -186t35 -221h124q15 0 28.5 -3.5t23.5 -13.5t15.5 -31t5.5 -57q0 -66 -17.5 -90.5t-55.5 -24.5h-685zM531 -437.5q-28 27.5 -28 66.5q0 38 28 66
t66 28t66 -28t28 -66q0 -39 -28 -66.5t-66 -27.5t-66 27.5zM531 -221.5q-28 27.5 -28 66.5q0 38 28 66t66 28t66 -28t28 -66q0 -39 -28 -66.5t-66 -27.5t-66 27.5z" />
    <glyph glyph-name="uniFB74" unicode="&#x684;" horiz-adv-x="1051" arabic-form="initial" 
d="M684 220q-6 75 -25 139.5t-58 110t-100 71t-152 25.5q-31 0 -96.5 -8.5t-132.5 -27.5v221q43 15 118.5 32.5t155.5 17.5q149 0 251 -51.5t165 -137.5t90.5 -199t27.5 -236v-177h-927q-15 0 -28 3t-24 13.5t-16.5 31.5t-5.5 57q0 64 18 89.5t56 25.5h683zM340 -725
q-40 40 -40 96q0 55 40 95t96 40q55 0 95 -40t40 -95q0 -56 -40 -96t-95 -40q-56 0 -96 40zM340 -414q-40 40 -40 95q0 56 40 96t96 40q55 0 95 -40t40 -96q0 -55 -40 -95t-95 -40q-56 0 -96 40z" />
    <glyph glyph-name="uniFB75" unicode="&#x684;" horiz-adv-x="1049" arabic-form="medial" 
d="M684 220q-6 75 -25 139.5t-57 110t-100 71t-153 25.5q-16 0 -40.5 -2t-55.5 -6.5t-65 -11t-68 -16.5v221q43 15 119.5 32.5t154.5 17.5q143 0 243 -47t163 -127t92.5 -186t33.5 -221h124q16 0 29 -3.5t23.5 -13.5t16 -31t5.5 -57q0 -66 -18 -90.5t-56 -24.5h-1049
q-15 0 -28 3t-24 13.5t-16.5 31.5t-5.5 57q0 64 18 89.5t56 25.5h683zM340 -725q-40 40 -40 96q0 55 40 95t96 40q55 0 95 -40t40 -95q0 -56 -40 -96t-95 -40q-56 0 -96 40zM340 -414q-40 40 -40 95q0 56 40 96t96 40q55 0 95 -40t40 -96q0 -55 -40 -95t-95 -40
q-56 0 -96 40z" />
    <glyph glyph-name="uniFB76" unicode="&#x683;" horiz-adv-x="1218" arabic-form="isolated" 
d="M858 -686q-65 -29 -123 -44.5t-105.5 -21t-76.5 -5.5q-120 0 -221 29.5t-175.5 89.5t-115.5 152.5t-41 218.5q0 118 39 209t108.5 152.5t167.5 93.5t218 32h315q-9 167 -86.5 256.5t-246.5 89.5q-15 0 -40 -2t-56.5 -6.5t-66 -11t-68.5 -16.5v221q44 15 120 32.5
t156 17.5q149 0 251 -51.5t165 -137.5t91 -199t28 -236v-177h-563q-135 0 -207 -72.5t-72 -187.5q0 -125 81 -194.5t213 -69.5q63 0 144 17q52 10 120 36l101 -189q-27 -15 -54 -26zM384 -238q0 55 40 95t95 40t95 -40t40 -95t-40 -95t-95 -40t-95 40t-40 95zM694 -238
q0 55 40.5 95t94.5 40q56 0 96 -40t40 -95t-40 -95t-96 -40q-54 0 -94.5 40t-40.5 95z" />
    <glyph glyph-name="uniFB77" unicode="&#x683;" horiz-adv-x="1215" arabic-form="final" 
d="M858 -686q-65 -29 -123 -44.5t-105.5 -21t-76.5 -5.5q-120 0 -221 29.5t-174.5 89.5t-115.5 152.5t-42 218.5q0 118 39 209t110 152.5t168.5 93.5t215.5 32h317q-11 167 -88.5 256.5t-246.5 89.5q-31 0 -96.5 -7.5t-134.5 -28.5v221q44 15 120 32.5t156 17.5
q144 0 243 -47t162 -127t93 -186t35 -221h124q15 0 28.5 -3.5t23.5 -13.5t15.5 -31t5.5 -57q0 -66 -17.5 -90.5t-55.5 -24.5h-685q-135 0 -207 -72.5t-72 -187.5q0 -125 82.5 -194.5t211.5 -69.5q63 0 147 18q57 11 127 39l101 -187q-32 -18 -64 -32zM372 -238q0 55 40 95
t96 40q55 0 95 -40t40 -95t-40 -95t-95 -40q-56 0 -96 40t-40 95zM683 -238q0 55 40 95t95 40q56 0 96 -40t40 -95t-40 -95t-96 -40q-55 0 -95 40t-40 95z" />
    <glyph glyph-name="uniFB78" unicode="&#x683;" horiz-adv-x="1051" arabic-form="initial" 
d="M684 220q-6 75 -25 139.5t-58 110t-100 71t-152 25.5q-31 0 -96.5 -8.5t-132.5 -27.5v221q43 15 118.5 32.5t155.5 17.5q149 0 251 -51.5t165 -137.5t90.5 -199t27.5 -236v-177h-927q-15 0 -28 3t-24 13.5t-16.5 31.5t-5.5 57q0 64 18 89.5t56 25.5h683zM133 -320
q0 55 40 95t96 40q55 0 95 -40t40 -95t-40 -95t-95 -40q-56 0 -96 40t-40 95zM444 -320q0 55 40 95t95 40t95.5 -40t40.5 -95t-40.5 -95t-95.5 -40t-95 40t-40 95z" />
    <glyph glyph-name="uniFB79" unicode="&#x683;" horiz-adv-x="1049" arabic-form="medial" 
d="M684 220q-6 75 -25 139.5t-57 110t-100 71t-153 25.5q-16 0 -40.5 -2t-55.5 -6.5t-65 -11t-68 -16.5v221q43 15 119.5 32.5t154.5 17.5q143 0 243 -47t163 -127t92.5 -186t33.5 -221h124q16 0 29 -3.5t23.5 -13.5t16 -31t5.5 -57q0 -66 -18 -90.5t-56 -24.5h-1049
q-15 0 -28 3t-24 13.5t-16.5 31.5t-5.5 57q0 64 18 89.5t56 25.5h683zM133 -320q0 55 40 95t96 40q55 0 95 -40t40 -95t-40 -95t-95 -40q-56 0 -96 40t-40 95zM444 -320q0 55 40 95t95 40t95.5 -40t40.5 -95t-40.5 -95t-95.5 -40t-95 40t-40 95z" />
    <glyph glyph-name="uniFB7A" unicode="&#x686;" horiz-adv-x="1218" arabic-form="isolated" 
d="M511 -373q0 41 29.5 70t68.5 29q41 0 70 -29t29 -70q0 -39 -29 -68.5t-70 -29.5q-39 0 -68.5 29.5t-29.5 68.5zM397 -171q0 39 29.5 68t69.5 29t69.5 -29t29.5 -68q0 -41 -29.5 -70.5t-69.5 -29.5t-69.5 29.5t-29.5 70.5zM624 -171q0 39 28.5 68t68.5 29t69 -29t29 -68
q0 -41 -29 -70.5t-69 -29.5t-68.5 29.5t-28.5 70.5zM848 220q-9 167 -86.5 256.5t-246.5 89.5q-15 0 -40 -2t-56.5 -6.5t-66 -11t-68.5 -16.5v221q44 15 120 32.5t156 17.5q149 0 251 -51.5t165 -137.5t91 -199t28 -236v-177h-563q-135 0 -207 -72.5t-72 -187.5
q0 -125 81 -194.5t213 -69.5q63 0 144 16t201 71l96 -176q-65 -45 -130 -73.5t-123 -44t-105.5 -21t-76.5 -5.5q-120 0 -221 29.5t-175.5 89.5t-115.5 152.5t-41 218.5q0 118 39 209t108.5 152.5t167.5 93.5t218 32h315z" />
    <glyph glyph-name="uniFB7B" unicode="&#x686;" horiz-adv-x="1215" arabic-form="final" 
d="M532 0q-135 0 -207 -72.5t-72 -187.5q0 -125 82.5 -194.5t211.5 -69.5q63 0 147 17t198 70l96 -176q-65 -45 -130 -73.5t-123 -44t-105.5 -21t-76.5 -5.5q-120 0 -221 29.5t-174.5 89.5t-115.5 152.5t-42 218.5q0 118 39 209t110 152.5t168.5 93.5t215.5 32h317
q-11 167 -88.5 256.5t-246.5 89.5q-31 0 -96.5 -7.5t-134.5 -28.5v221q44 15 120 32.5t156 17.5q144 0 243 -47t162 -127t93 -186t35 -221h124q15 0 28.5 -3.5t23.5 -13.5t15.5 -31t5.5 -57q0 -66 -17.5 -90.5t-55.5 -24.5h-685zM500 -373q0 41 29.5 70t68.5 29q41 0 70 -29
t29 -70q0 -39 -29 -68.5t-70 -29.5q-39 0 -68.5 29.5t-29.5 68.5zM386 -171q0 39 29.5 68t69.5 29t69.5 -29t29.5 -68q0 -41 -29.5 -70.5t-69.5 -29.5t-69.5 29.5t-29.5 70.5zM613 -171q0 39 28.5 68t68.5 29q39 0 68.5 -29t29.5 -68q0 -41 -29.5 -70.5t-68.5 -29.5
q-40 0 -68.5 29.5t-28.5 70.5z" />
    <glyph glyph-name="uniFB7C" unicode="&#x686;" horiz-adv-x="1051" arabic-form="initial" 
d="M684 220q-6 75 -25 139.5t-58 110t-100 71t-152 25.5q-31 0 -96.5 -8.5t-132.5 -27.5v221q43 15 118.5 32.5t155.5 17.5q149 0 251 -51.5t165 -137.5t90.5 -199t27.5 -236v-177h-927q-15 0 -28 3t-24 13.5t-16.5 31.5t-5.5 57q0 64 18 89.5t56 25.5h683zM289 -597
q0 55 40 95t96 40q55 0 95 -40t40 -95t-40 -95t-95 -40q-56 0 -96 40t-40 95zM133 -320q0 55 40 95t96 40q55 0 95 -40t40 -95t-40 -95t-95 -40q-56 0 -96 40t-40 95zM444 -320q0 55 40 95t95 40t95.5 -40t40.5 -95t-40.5 -95t-95.5 -40t-95 40t-40 95z" />
    <glyph glyph-name="uniFB7D" unicode="&#x686;" horiz-adv-x="1049" arabic-form="medial" 
d="M684 220q-6 75 -25 139.5t-57 110t-100 71t-153 25.5q-16 0 -40.5 -2t-55.5 -6.5t-65 -11t-68 -16.5v221q43 15 119.5 32.5t154.5 17.5q143 0 243 -47t163 -127t92.5 -186t33.5 -221h124q16 0 29 -3.5t23.5 -13.5t16 -31t5.5 -57q0 -66 -18 -90.5t-56 -24.5h-1049
q-15 0 -28 3t-24 13.5t-16.5 31.5t-5.5 57q0 64 18 89.5t56 25.5h683zM289 -597q0 55 40 95t96 40q55 0 95 -40t40 -95t-40 -95t-95 -40q-56 0 -96 40t-40 95zM133 -320q0 55 40 95t96 40q55 0 95 -40t40 -95t-40 -95t-95 -40q-56 0 -96 40t-40 95zM444 -320q0 55 40 95
t95 40t95.5 -40t40.5 -95t-40.5 -95t-95.5 -40t-95 40t-40 95z" />
    <glyph glyph-name="uniFB7E" unicode="&#x687;" horiz-adv-x="1218" arabic-form="isolated" 
d="M332 -727q-101 29 -175.5 89t-115.5 152.5t-41 218.5q0 118 39 209t108.5 152.5t167.5 93.5t218 32h315q-9 167 -86.5 256.5t-246.5 89.5q-15 0 -40 -2t-56.5 -6.5t-66 -11t-68.5 -16.5v221q44 15 120 32.5t156 17.5q149 0 251 -51.5t165 -137.5t91 -199t28 -236v-177
h-563q-135 0 -207 -72.5t-72 -187.5q0 -125 81 -194q22 -19 47 -32l43 -262q-47 8 -92 21zM449 -236q0 55 40 95t96 40q55 0 95 -40t40 -95t-40 -95t-95 -40q-56 0 -96 40t-40 95zM760 -236q0 55 40 95t95 40t95.5 -40t40.5 -95t-40.5 -95t-95.5 -40t-95 40t-40 95z
M449 -546q0 54 40 94.5t96 40.5q55 0 95 -40.5t40 -94.5q0 -56 -40 -96t-95 -40q-56 0 -96 40t-40 96zM760 -546q0 54 40 94.5t95 40.5t95.5 -40.5t40.5 -94.5q0 -56 -40.5 -96t-95.5 -40t-95 40t-40 96z" />
    <glyph glyph-name="uniFB7F" unicode="&#x687;" horiz-adv-x="1215" arabic-form="final" 
d="M332 -727q-101 29 -174.5 89t-115.5 152.5t-42 218.5q0 118 39 209t110 152.5t168.5 93.5t215.5 32h317q-11 167 -88.5 256.5t-246.5 89.5q-31 0 -96.5 -7.5t-134.5 -28.5v221q44 15 120 32.5t156 17.5q144 0 243 -47t162 -127t93 -186t35 -221h124q15 0 28.5 -3.5
t23.5 -13.5t15.5 -31t5.5 -57q0 -66 -17.5 -90.5t-55.5 -24.5h-685q-135 0 -207 -72.5t-72 -187.5q0 -125 83 -194q47 -41 110 -57l43 -244q-84 7 -157 28zM505 -236q0 55 40 95t95 40t95 -40t40 -95t-40 -95t-95 -40t-95 40t-40 95zM815 -236q0 55 40.5 95t94.5 40
q56 0 96 -40t40 -95t-40 -95t-96 -40q-54 0 -94.5 40t-40.5 95zM505 -546q0 54 40 94.5t95 40.5t95 -40.5t40 -94.5q0 -56 -40 -96t-95 -40t-95 40t-40 96zM815 -546q0 54 40.5 94.5t94.5 40.5q56 0 96 -40.5t40 -94.5q0 -56 -40 -96t-96 -40q-54 0 -94.5 40t-40.5 96z" />
    <glyph glyph-name="uniFB80" unicode="&#x687;" horiz-adv-x="1051" arabic-form="initial" 
d="M684 220q-6 75 -25 139.5t-58 110t-100 71t-152 25.5q-31 0 -96.5 -8.5t-132.5 -27.5v221q43 15 118.5 32.5t155.5 17.5q149 0 251 -51.5t165 -137.5t90.5 -199t27.5 -236v-177h-927q-15 0 -28 3t-24 13.5t-16.5 31.5t-5.5 57q0 64 18 89.5t56 25.5h683zM136 -320
q0 55 40 95t95 40t95 -40t40 -95q0 -56 -40 -96t-95 -40t-95 40t-40 96zM446 -320q0 55 40.5 95t94.5 40q56 0 96 -40t40 -95q0 -56 -40 -96t-96 -40q-54 0 -94.5 40t-40.5 96zM136 -631q0 55 40 95t95 40t95 -40t40 -95q0 -56 -40 -96t-95 -40t-95 40t-40 96zM446 -631
q0 55 40.5 95t94.5 40q56 0 96 -40t40 -95q0 -56 -40 -96t-96 -40q-54 0 -94.5 40t-40.5 96z" />
    <glyph glyph-name="uniFB81" unicode="&#x687;" horiz-adv-x="1049" arabic-form="medial" 
d="M684 220q-6 75 -25 139.5t-57 110t-100 71t-153 25.5q-16 0 -40.5 -2t-55.5 -6.5t-65 -11t-68 -16.5v221q43 15 119.5 32.5t154.5 17.5q143 0 243 -47t163 -127t92.5 -186t33.5 -221h124q16 0 29 -3.5t23.5 -13.5t16 -31t5.5 -57q0 -66 -18 -90.5t-56 -24.5h-1049
q-15 0 -28 3t-24 13.5t-16.5 31.5t-5.5 57q0 64 18 89.5t56 25.5h683zM136 -320q0 55 40 95t95 40t95 -40t40 -95q0 -56 -40 -96t-95 -40t-95 40t-40 96zM446 -320q0 55 40.5 95t94.5 40q56 0 96 -40t40 -95q0 -56 -40 -96t-96 -40q-54 0 -94.5 40t-40.5 96zM136 -631
q0 55 40 95t95 40t95 -40t40 -95q0 -56 -40 -96t-95 -40t-95 40t-40 96zM446 -631q0 55 40.5 95t94.5 40q56 0 96 -40t40 -95q0 -56 -40 -96t-96 -40q-54 0 -94.5 40t-40.5 96z" />
    <glyph glyph-name="uniFB82" unicode="&#x68d;" horiz-adv-x="930" arabic-form="isolated" 
d="M807 240q0 -49 -16 -93t-48.5 -76.5t-84 -51.5t-121.5 -19h-462v220h373q45 0 69.5 8t24.5 32q0 11 -2.5 22t-14.5 31t-33.5 52.5t-58.5 85.5l-150 226q57 38 111 73.5t114 71.5l166 -269q67 -109 100 -181t33 -132zM143 -320q0 55 40 95t96 40q55 0 95 -40t40 -95
t-40 -95t-95 -40q-56 0 -96 40t-40 95zM454 -320q0 55 40 95t96 40q55 0 95 -40t40 -95t-40 -95t-95 -40q-56 0 -96 40t-40 95z" />
    <glyph glyph-name="uniFB83" unicode="&#x68d;" horiz-adv-x="930" arabic-form="final" 
d="M931 0q-55 0 -94.5 5.5t-67.5 17t-53 30t-52 42.5q-56 -62 -119.5 -78.5t-138.5 -16.5h-331v220h378q46 0 67.5 14t21.5 33q0 21 -18 51.5t-67 101.5l-174 257l227 145l229 -387q36 -62 62.5 -103.5t48.5 -66.5t41 -35t40 -10q15 0 28.5 -3.5t24 -13.5t16 -31t5.5 -57
q0 -66 -17.5 -90.5t-56.5 -24.5zM126 -320q0 55 40 95t96 40q55 0 95 -40t40 -95t-40 -95t-95 -40q-56 0 -96 40t-40 95zM437 -320q0 55 40 95t96 40q55 0 95 -40t40 -95t-40 -95t-95 -40q-56 0 -96 40t-40 95z" />
    <glyph glyph-name="uniFB84" unicode="&#x68c;" horiz-adv-x="930" arabic-form="isolated" 
d="M807 240q0 -49 -16 -93t-48.5 -76.5t-84 -51.5t-121.5 -19h-462v220h373q45 0 69.5 8t24.5 32q0 11 -2.5 22t-14.5 31t-33.5 52.5t-58.5 85.5l-150 226q57 38 111 73.5t114 71.5l166 -269q67 -109 100 -181t33 -132zM150 1185q40 40 96 40q55 0 95 -40t40 -95t-40 -95
t-95 -40q-56 0 -96 40t-40 95t40 95zM461 1185q40 40 95 40q56 0 96 -40t40 -95t-40 -95t-96 -40q-55 0 -95 40t-40 95t40 95z" />
    <glyph glyph-name="uniFB85" unicode="&#x68c;" horiz-adv-x="930" arabic-form="final" 
d="M931 0q-55 0 -94.5 5.5t-67.5 17t-53 30t-52 42.5q-56 -62 -119.5 -78.5t-138.5 -16.5h-331v220h378q46 0 67.5 14t21.5 33q0 21 -18 51.5t-67 101.5l-174 257l227 145l229 -387q36 -62 62.5 -103.5t48.5 -66.5t41 -35t40 -10q15 0 28.5 -3.5t24 -13.5t16 -31t5.5 -57
q0 -66 -17.5 -90.5t-56.5 -24.5zM152 1185q40 40 96 40q55 0 95 -40t40 -95t-40 -95t-95 -40q-56 0 -96 40t-40 95t40 95zM463 1185q40 40 95 40q56 0 96 -40t40 -95t-40 -95t-96 -40q-55 0 -95 40t-40 95t40 95z" />
    <glyph glyph-name="uniFB86" unicode="&#x68e;" horiz-adv-x="930" arabic-form="isolated" 
d="M807 240q0 -49 -16 -93t-48.5 -76.5t-84 -51.5t-121.5 -19h-462v220h373q45 0 69.5 8t24.5 32q0 11 -2.5 22t-14.5 31t-33.5 52.5t-58.5 85.5l-150 226q57 38 111 73.5t114 71.5l166 -269q67 -109 100 -181t33 -132zM307 1461.5q40 40.5 96 40.5q55 0 95 -40.5t40 -94.5
q0 -55 -40 -95t-95 -40q-56 0 -96 40t-40 95q0 54 40 94.5zM150 1185q40 40 96 40q55 0 95 -40t40 -95t-40 -95t-95 -40q-56 0 -96 40t-40 95t40 95zM461 1185q40 40 95 40q56 0 96 -40t40 -95t-40 -95t-96 -40q-55 0 -95 40t-40 95t40 95z" />
    <glyph glyph-name="uniFB87" unicode="&#x68e;" horiz-adv-x="930" arabic-form="final" 
d="M931 0q-55 0 -94.5 5.5t-67.5 17t-53 30t-52 42.5q-56 -62 -119.5 -78.5t-138.5 -16.5h-331v220h378q46 0 67.5 14t21.5 33q0 21 -18 51.5t-67 101.5l-174 257l227 145l229 -387q36 -62 62.5 -103.5t48.5 -66.5t41 -35t40 -10q15 0 28.5 -3.5t24 -13.5t16 -31t5.5 -57
q0 -66 -17.5 -90.5t-56.5 -24.5zM309 1461.5q40 40.5 96 40.5q54 0 94.5 -40.5t40.5 -94.5q0 -55 -40.5 -95t-94.5 -40q-56 0 -96 40t-40 95q0 54 40 94.5zM152 1185q40 40 96 40q55 0 95 -40t40 -95t-40 -95t-95 -40q-56 0 -96 40t-40 95t40 95zM463 1185q40 40 95 40
q56 0 96 -40t40 -95t-40 -95t-96 -40q-55 0 -95 40t-40 95t40 95z" />
    <glyph glyph-name="uniFB88" unicode="&#x688;" horiz-adv-x="930" arabic-form="isolated" 
d="M635 1090v16q0 33 -12.5 57.5t-55.5 24.5q-42 0 -76 -26.5t-56 -71.5h200zM422 1232q38 38 74.5 54t82.5 16q76 0 119.5 -48.5t43.5 -134.5v-141h-512v112h85v380h107v-238zM807 240q0 -49 -16 -93t-48.5 -76.5t-84 -51.5t-121.5 -19h-462v220h373q45 0 69.5 8t24.5 32
q0 11 -2.5 22t-14.5 31t-33.5 52.5t-58.5 85.5l-150 226q57 38 111 73.5t114 71.5l166 -269q67 -109 100 -181t33 -132z" />
    <glyph glyph-name="uniFB89" unicode="&#x688;" horiz-adv-x="930" arabic-form="final" 
d="M635 1090v16q0 33 -12.5 57.5t-55.5 24.5q-42 0 -76 -26.5t-56 -71.5h200zM422 1232q38 38 74.5 54t82.5 16q76 0 119.5 -48.5t43.5 -134.5v-141h-512v112h85v380h107v-238zM931 0q-55 0 -94.5 5.5t-67.5 17t-53 30t-52 42.5q-56 -62 -119.5 -78.5t-138.5 -16.5h-331v220
h378q46 0 67.5 14t21.5 33q0 21 -18 51.5t-67 101.5l-174 257l227 145l229 -387q36 -62 62.5 -103.5t48.5 -66.5t41 -35t40 -10q15 0 28.5 -3.5t24 -13.5t16 -31t5.5 -57q0 -66 -17.5 -90.5t-56.5 -24.5z" />
    <glyph glyph-name="uniFB8A" unicode="&#x698;" horiz-adv-x="707" arabic-form="isolated" 
d="M307 675h248v-568q0 -138 -21 -233.5t-73.5 -155.5t-145 -86.5t-235.5 -28.5v233q78 2 123 17.5t67.5 48.5t29.5 83.5t7 121.5v568zM126 978q0 55 40 95t96 40q54 0 94.5 -40t40.5 -95t-40.5 -95.5t-94.5 -40.5q-56 0 -96 40.5t-40 95.5zM437 978q0 55 40 95t95 40
t95 -40t40 -95t-40 -95.5t-95 -40.5t-95 40.5t-40 95.5zM286 1255q0 55 40 95t96 40q55 0 95 -40t40 -95q0 -56 -40 -96t-95 -40q-56 0 -96 40t-40 96z" />
    <glyph glyph-name="uniFB8B" unicode="&#x698;" horiz-adv-x="695" arabic-form="final" 
d="M696 0q-25 0 -68.5 11.5t-76.5 49.5q-2 -130 -31 -216.5t-86 -140t-144.5 -76.5t-209.5 -25v233q78 2 123.5 17.5t68.5 48.5t30 83.5t7 121.5v568h246v-324q0 -38 12.5 -63t32.5 -40t45.5 -21.5t50.5 -6.5q15 0 28.5 -3.5t24 -13.5t16 -31t5.5 -57q0 -66 -18.5 -90.5
t-55.5 -24.5zM139 978q0 55 40.5 95t95.5 40q54 0 94.5 -40t40.5 -95t-40.5 -95.5t-94.5 -40.5q-55 0 -95.5 40.5t-40.5 95.5zM450 978q0 55 40 95t95 40t95 -40t40 -95t-40 -95.5t-95 -40.5t-95 40.5t-40 95.5zM300 1255q0 55 40 95t95 40t95 -40t40 -95q0 -56 -40 -96
t-95 -40t-95 40t-40 96z" />
    <glyph glyph-name="uniFB8C" unicode="&#x691;" horiz-adv-x="678" arabic-form="isolated" 
d="M307 675h248v-568q0 -138 -21 -233.5t-73.5 -155.5t-145 -86.5t-235.5 -28.5v233q78 2 123 17.5t67.5 48.5t29.5 83.5t7 121.5v568zM549 1028v15q0 32 -12.5 57t-56.5 25q-42 0 -76 -27t-55 -70h200zM335 1168q38 38 74.5 54.5t81.5 16.5q77 0 120.5 -48.5t43.5 -133.5
v-142h-512v113h86v379h106v-239z" />
    <glyph glyph-name="uniFB8D" unicode="&#x691;" horiz-adv-x="695" arabic-form="final" 
d="M540 1028v15q0 32 -12.5 57t-56.5 25q-42 0 -76.5 -27t-54.5 -70h200zM326 1168q38 38 74.5 54.5t81.5 16.5q76 0 120 -48.5t44 -133.5v-142h-513v113h87v379h106v-239zM696 0q-25 0 -68.5 11.5t-76.5 49.5q-2 -130 -31 -216.5t-86 -140t-144.5 -76.5t-209.5 -25v233
q78 2 123.5 17.5t68.5 48.5t30 83.5t7 121.5v568h246v-324q0 -38 12.5 -63t32.5 -40t45.5 -21.5t50.5 -6.5q15 0 28.5 -3.5t24 -13.5t16 -31t5.5 -57q0 -66 -18.5 -90.5t-55.5 -24.5z" />
    <glyph glyph-name="uniFB8E" unicode="&#x6a9;" horiz-adv-x="1734" arabic-form="isolated" 
d="M1186 220q40 0 76.5 15.5t36.5 66.5q0 33 -43 91t-114 123.5t-160.5 129t-180.5 111.5q13 63 31 104t37 65.5t37 37.5t30 18l665 293v-255l-449 -187v-5q114 -75 188.5 -147.5t119 -141t62 -130.5t17.5 -116q0 -45 -12.5 -96.5t-49 -95.5t-102 -72.5t-172.5 -28.5h-808
q-113 0 -189.5 16.5t-122 52.5t-64.5 93.5t-19 139.5v314h248v-281q0 -38 9.5 -60t34.5 -35t66.5 -16.5t106.5 -3.5h721z" />
    <glyph glyph-name="uniFB8F" unicode="&#x6a9;" horiz-adv-x="1730" arabic-form="final" 
d="M1182 220q63 0 90.5 20t27.5 63q0 37 -27.5 87t-86 109.5t-151.5 123t-225 128.5q8 61 17.5 99t21 61.5t23.5 34.5t26 18l707 308v-260l-426 -183v-7q144 -92 228 -201.5t128 -229.5q30 -84 75 -127.5t121 -43.5q15 0 28.5 -3.5t24 -13.5t16 -31t5.5 -57
q0 -66 -17.5 -90.5t-56.5 -24.5q-32 0 -66.5 3t-68 15.5t-64.5 36t-60 65.5q-33 -42 -67 -65.5t-74.5 -36t-85 -15.5t-95.5 -3h-755q-113 0 -189.5 16.5t-122 52.5t-64.5 93.5t-19 139.5v314h248v-281q0 -38 10.5 -60t35 -35t66.5 -16.5t107 -3.5h715z" />
    <glyph glyph-name="uniFB90" unicode="&#x6a9;" horiz-adv-x="995" arabic-form="initial" 
d="M446 220q40 0 76 15.5t36 66.5q0 33 -42.5 91t-113.5 123.5t-160.5 129t-181.5 111.5q14 63 32 104t37.5 65.5t37 37.5t29.5 18l666 293v-255l-451 -187v-5q115 -75 189.5 -147.5t119 -141t61.5 -130.5t17 -116q0 -45 -12.5 -96.5t-48.5 -95.5t-102 -72.5t-173 -28.5
h-461q-15 0 -28 3t-24 13.5t-16.5 31.5t-5.5 57q0 64 18 89.5t56 25.5h445z" />
    <glyph glyph-name="uniFB91" unicode="&#x6a9;" horiz-adv-x="971" arabic-form="medial" 
d="M420 220q66 0 93 20t27 63q0 37 -27 87t-85.5 109.5t-152 123t-224.5 128.5q7 61 17 99t21 61.5t23.5 34.5t25.5 18l708 308v-260l-427 -183v-7q145 -92 228.5 -201.5t127.5 -229.5q31 -84 75.5 -127.5t120.5 -43.5q16 0 29 -3.5t24 -13.5t16.5 -31t5.5 -57
q0 -66 -18 -90.5t-57 -24.5q-32 0 -66 3t-67.5 15.5t-65 36t-59.5 65.5q-33 -42 -67.5 -65.5t-74.5 -36t-84.5 -15.5t-95.5 -3h-390q-15 0 -28 3t-24 13.5t-16.5 31.5t-5.5 57q0 64 18 89.5t56 25.5h419z" />
    <glyph glyph-name="uniFB92" unicode="&#x6af;" horiz-adv-x="1736" arabic-form="isolated" 
d="M1186 220q40 0 76.5 15.5t36.5 66.5q0 33 -43 91t-114 123.5t-160.5 129t-180.5 111.5q13 63 31 104t37 65.5t37 37.5t30 18l665 293v-255l-449 -187v-5q114 -75 188.5 -147.5t119 -141t62 -130.5t17.5 -116q0 -45 -12.5 -96.5t-49 -95.5t-102 -72.5t-172.5 -28.5h-808
q-113 0 -189.5 16.5t-122 52.5t-64.5 93.5t-19 139.5v314h248v-281q0 -38 9.5 -60t34.5 -35t66.5 -16.5t106.5 -3.5h721zM835 1057q11 230 166 310l602 272v-244z" />
    <glyph glyph-name="uniFB93" unicode="&#x6af;" horiz-adv-x="1730" arabic-form="final" 
d="M1182 220q63 0 90.5 20t27.5 63q0 37 -27.5 87t-86 109.5t-151.5 123t-225 128.5q8 61 17.5 99t21 61.5t23.5 34.5t26 18l707 308v-260l-426 -183v-7q144 -92 228 -201.5t128 -229.5q30 -84 75 -127.5t121 -43.5q15 0 28.5 -3.5t24 -13.5t16 -31t5.5 -57
q0 -66 -17.5 -90.5t-56.5 -24.5q-32 0 -66.5 3t-68 15.5t-64.5 36t-60 65.5q-33 -42 -67 -65.5t-74.5 -36t-85 -15.5t-95.5 -3h-755q-113 0 -189.5 16.5t-122 52.5t-64.5 93.5t-19 139.5v314h248v-281q0 -38 10.5 -60t35 -35t66.5 -16.5t107 -3.5h715zM837 1057
q11 230 166 310l602 272v-244z" />
    <glyph glyph-name="uniFB94" unicode="&#x6af;" horiz-adv-x="995" arabic-form="initial" 
d="M446 220q40 0 76 15.5t36 66.5q0 33 -42.5 91t-113.5 123.5t-160.5 129t-181.5 111.5q14 63 32 104t37.5 65.5t37 37.5t29.5 18l666 293v-255l-451 -187v-5q115 -75 189.5 -147.5t119 -141t61.5 -130.5t17 -116q0 -45 -12.5 -96.5t-48.5 -95.5t-102 -72.5t-173 -28.5
h-461q-15 0 -28 3t-24 13.5t-16.5 31.5t-5.5 57q0 64 18 89.5t56 25.5h445zM70 1057q12 230 166 310l602 272v-244z" />
    <glyph glyph-name="uniFB95" unicode="&#x6af;" horiz-adv-x="971" arabic-form="medial" 
d="M420 220q66 0 93 20t27 63q0 37 -27 87t-85.5 109.5t-152 123t-224.5 128.5q7 61 17 99t21 61.5t23.5 34.5t25.5 18l708 308v-260l-427 -183v-7q145 -92 228.5 -201.5t127.5 -229.5q31 -84 75.5 -127.5t120.5 -43.5q16 0 29 -3.5t24 -13.5t16.5 -31t5.5 -57
q0 -66 -18 -90.5t-57 -24.5q-32 0 -66 3t-67.5 15.5t-65 36t-59.5 65.5q-33 -42 -67.5 -65.5t-74.5 -36t-84.5 -15.5t-95.5 -3h-390q-15 0 -28 3t-24 13.5t-16.5 31.5t-5.5 57q0 64 18 89.5t56 25.5h419zM74 1057q11 230 166 310l602 272v-244z" />
    <glyph glyph-name="uniFB96" unicode="&#x6b3;" horiz-adv-x="1736" arabic-form="isolated" 
d="M1186 220q40 0 76.5 15.5t36.5 66.5q0 33 -43 91t-114 123.5t-160.5 129t-180.5 111.5q13 63 31 104t37 65.5t37 37.5t30 18l665 293v-255l-449 -187v-5q114 -75 188.5 -147.5t119 -141t62 -130.5t17.5 -116q0 -45 -12.5 -96.5t-49 -95.5t-102 -72.5t-172.5 -28.5h-808
q-113 0 -189.5 16.5t-122 52.5t-64.5 93.5t-19 139.5v314h248v-281q0 -38 9.5 -60t34.5 -35t66.5 -16.5t106.5 -3.5h721zM835 1057q11 230 166 310l602 272v-244zM804 -769q-55 0 -95 40t-40 96q0 55 40 95t95 40t95 -40t40 -95q0 -56 -40 -96t-95 -40zM804 -458
q-55 0 -95 40t-40 95q0 56 40 96t95 40t95 -40t40 -96q0 -55 -40 -95t-95 -40z" />
    <glyph glyph-name="uniFB97" unicode="&#x6b3;" horiz-adv-x="1730" arabic-form="final" 
d="M1182 220q63 0 90.5 20t27.5 63q0 37 -27.5 87t-86 109.5t-151.5 123t-225 128.5q8 61 17.5 99t21 61.5t23.5 34.5t26 18l707 308v-260l-426 -183v-7q144 -92 228 -201.5t128 -229.5q30 -84 75 -127.5t121 -43.5q15 0 28.5 -3.5t24 -13.5t16 -31t5.5 -57
q0 -66 -17.5 -90.5t-56.5 -24.5q-32 0 -66.5 3t-68 15.5t-64.5 36t-60 65.5q-33 -42 -67 -65.5t-74.5 -36t-85 -15.5t-95.5 -3h-755q-113 0 -189.5 16.5t-122 52.5t-64.5 93.5t-19 139.5v314h248v-281q0 -38 10.5 -60t35 -35t66.5 -16.5t107 -3.5h715zM837 1057
q11 230 166 310l602 272v-244zM804 -769q-55 0 -95 40t-40 96q0 55 40 95t95 40t95 -40t40 -95q0 -56 -40 -96t-95 -40zM804 -458q-55 0 -95 40t-40 95q0 56 40 96t95 40t95 -40t40 -96q0 -55 -40 -95t-95 -40z" />
    <glyph glyph-name="uniFB98" unicode="&#x6b3;" horiz-adv-x="995" arabic-form="initial" 
d="M446 220q40 0 76 15.5t36 66.5q0 33 -42.5 91t-113.5 123.5t-160.5 129t-181.5 111.5q14 63 32 104t37.5 65.5t37 37.5t29.5 18l666 293v-255l-451 -187v-5q115 -75 189.5 -147.5t119 -141t61.5 -130.5t17 -116q0 -45 -12.5 -96.5t-48.5 -95.5t-102 -72.5t-173 -28.5
h-461q-15 0 -28 3t-24 13.5t-16.5 31.5t-5.5 57q0 64 18 89.5t56 25.5h445zM70 1057q12 230 166 310l602 272v-244zM386 -769q-55 0 -95 40t-40 96q0 55 40 95t95 40t95 -40t40 -95q0 -56 -40 -96t-95 -40zM386 -458q-55 0 -95 40t-40 95q0 56 40 96t95 40t95 -40t40 -96
q0 -55 -40 -95t-95 -40z" />
    <glyph glyph-name="uniFB99" unicode="&#x6b3;" horiz-adv-x="971" arabic-form="medial" 
d="M420 220q66 0 93 20t27 63q0 37 -27 87t-85.5 109.5t-152 123t-224.5 128.5q7 61 17 99t21 61.5t23.5 34.5t25.5 18l708 308v-260l-427 -183v-7q145 -92 228.5 -201.5t127.5 -229.5q31 -84 75.5 -127.5t120.5 -43.5q16 0 29 -3.5t24 -13.5t16.5 -31t5.5 -57
q0 -66 -18 -90.5t-57 -24.5q-32 0 -66 3t-67.5 15.5t-65 36t-59.5 65.5q-33 -42 -67.5 -65.5t-74.5 -36t-84.5 -15.5t-95.5 -3h-390q-15 0 -28 3t-24 13.5t-16.5 31.5t-5.5 57q0 64 18 89.5t56 25.5h419zM74 1057q11 230 166 310l602 272v-244zM386 -769q-55 0 -95 40
t-40 96q0 55 40 95t95 40t95 -40t40 -95q0 -56 -40 -96t-95 -40zM386 -458q-55 0 -95 40t-40 95q0 56 40 96t95 40t95 -40t40 -96q0 -55 -40 -95t-95 -40z" />
    <glyph glyph-name="uniFB9A" unicode="&#x6b1;" horiz-adv-x="1736" arabic-form="isolated" 
d="M1186 220q40 0 76.5 15.5t36.5 66.5q0 33 -43 91t-114 123.5t-160.5 129t-180.5 111.5q13 63 31 104t37 65.5t37 37.5t30 18l665 293v-255l-449 -187v-5q114 -75 188.5 -147.5t119 -141t62 -130.5t17.5 -116q0 -45 -12.5 -96.5t-49 -95.5t-102 -72.5t-172.5 -28.5h-808
q-113 0 -189.5 16.5t-122 52.5t-64.5 93.5t-19 139.5v314h248v-281q0 -38 9.5 -60t34.5 -35t66.5 -16.5t106.5 -3.5h721zM835 1057q11 230 166 310l602 272v-244zM802 1718q0 55 40.5 95t95.5 40t95 -40t40 -95t-40 -95t-95 -40t-95.5 40t-40.5 95zM1113 1718q0 55 40 95
t95 40q56 0 96 -40t40 -95t-40 -95t-96 -40q-55 0 -95 40t-40 95z" />
    </font>
</defs>
</svg>
