<?xml version="1.0" standalone="no"?>
<!DOCTYPE svg PUBLIC "-//W3C//DTD SVG 1.1//EN" "http://www.w3.org/Graphics/SVG/1.1/DTD/svg11.dtd" >
<svg xmlns="http://www.w3.org/2000/svg" xmlns:xlink="http://www.w3.org/1999/xlink" version="1.1">
<metadata>
Created by FontForge 20170731 at Sun Oct 16 03:49:39 2016
 By Aleksey,,,
(c)  2013 Bahij Virtual Academy. All rights reserved.
</metadata>
<defs>
<font id="BahijJanna-Bold" horiz-adv-x="0" >
  <font-face 
    font-family="Bahij Janna"
    font-weight="700"
    font-stretch="normal"
    units-per-em="2048"
    panose-1="2 4 7 3 6 2 1 2 2 3"
    ascent="1638"
    descent="-410"
    x-height="896"
    cap-height="1321"
    bbox="-308 -1028 4729 2319"
    underline-thickness="50"
    underline-position="-150"
    unicode-range="U+0020-FEFC"
  />
<missing-glyph horiz-adv-x="663" 
d="M0 0v929h663v-929h-663zM107 863l225 -339l226 339h-451zM597 803l-225 -338l225 -339v677zM558 67l-226 337l-225 -337h451zM67 126l225 339l-225 338v-677z" />
    <glyph glyph-name="uniFB01" unicode="fi" horiz-adv-x="1105" 
d="M206 705h-185v191h185v126q0 94 12.5 169.5t49 129.5t102.5 83t169 29q38 0 74.5 -2.5t67.5 -10.5l-14 -190q-25 5 -47 9t-47 4q-46 0 -74 -15t-44 -40.5t-20.5 -59t-4.5 -70.5v-162h207v-191h-207v-705h-224v705zM783 896h223v-896h-223v896zM753 1200q0 54 40 94
t101 40q62 0 104 -38.5t42 -95.5q0 -58 -42 -96.5t-104 -38.5q-61 0 -101 40t-40 95z" />
    <glyph glyph-name="uniFB02" unicode="fl" horiz-adv-x="1105" 
d="M206 705h-185v191h185v126q0 94 12.5 169.5t49 129.5t102.5 83t169 29q38 0 74.5 -2.5t67.5 -10.5l-14 -190q-25 5 -47 9t-47 4q-46 0 -74 -15t-44 -40.5t-20.5 -59t-4.5 -70.5v-162h207v-191h-207v-705h-224v705zM783 1410h223v-1410h-223v1410z" />
    <glyph glyph-name="uniFC31" unicode="&#xfed3;&#xfef0;" horiz-adv-x="2787" arabic-form="isolated" 
d="M2438 217v239q0 25 -8 51.5t-26.5 48t-48 34.5t-68.5 13q-34 0 -67 -14t-58 -39.5t-41 -60.5t-16 -80q0 -67 27 -105.5t59 -59.5q35 -22 85 -27h162zM1434 0v340q0 63 -12 101t-37 58.5t-63.5 27.5t-88.5 7h-17v-394q0 -112 -37.5 -210t-116 -170.5t-199.5 -115.5
t-287 -43q-151 0 -259.5 44.5t-177 115t-101.5 157.5t-33 175q0 101 34.5 186.5t88.5 164.5l176 -102q-43 -64 -62.5 -124.5t-19.5 -110.5q0 -62 24 -113t71.5 -88.5t117.5 -59.5t159 -22q91 0 165 18t129 52.5t85 86t30 116.5v645h259q199 0 292 -95t93 -287v-143h296
q-16 20 -32.5 68t-16.5 121q0 77 30 150t84 129t130.5 90.5t169.5 34.5q80 0 143.5 -26.5t108.5 -74t69 -114.5t24 -150v-445h-1219zM2192 1034q0 45 33 76.5t79 31.5q49 0 81.5 -31.5t32.5 -76.5q0 -46 -32.5 -77t-81.5 -31q-46 0 -79 31t-33 77z" />
    <glyph glyph-name="uniFC32" unicode="&#xfed3;&#xfef2;" horiz-adv-x="2787" arabic-form="isolated" 
d="M336 -589q0 44 31.5 75t80.5 31q48 0 79.5 -31t31.5 -75q0 -47 -31.5 -78t-79.5 -31q-49 0 -80.5 31t-31.5 78zM625 -589q0 44 31.5 75t80.5 31q48 0 80 -31t32 -75q0 -47 -32 -78t-80 -31q-49 0 -80.5 31t-31.5 78zM2438 217v239q0 25 -8 51.5t-26.5 48t-48 34.5
t-68.5 13q-34 0 -67 -14t-58 -39.5t-41 -60.5t-16 -80q0 -67 27 -105.5t59 -59.5q35 -22 85 -27h162zM1434 0v340q0 63 -12 101t-37 58.5t-63.5 27.5t-88.5 7h-17v-394q0 -112 -37.5 -210t-116 -170.5t-199.5 -115.5t-287 -43q-151 0 -259.5 44.5t-177 115t-101.5 157.5
t-33 175q0 101 34.5 186.5t88.5 164.5l176 -102q-43 -64 -62.5 -124.5t-19.5 -110.5q0 -62 24 -113t71.5 -88.5t117.5 -59.5t159 -22q91 0 165 18t129 52.5t85 86t30 116.5v645h259q199 0 292 -95t93 -287v-143h296q-16 20 -32.5 68t-16.5 121q0 77 30 150t84 129
t130.5 90.5t169.5 34.5q80 0 143.5 -26.5t108.5 -74t69 -114.5t24 -150v-445h-1219zM2192 1034q0 45 33 76.5t79 31.5q49 0 81.5 -31.5t32.5 -76.5q0 -46 -32.5 -77t-81.5 -31q-46 0 -79 31t-33 77z" />
    <glyph glyph-name="uniFC43" unicode="&#xfedf;&#xfef0;" horiz-adv-x="2275" arabic-form="isolated" 
d="M1434 0v340q0 63 -12 101t-37 58.5t-63.5 27.5t-88.5 7h-17v-394q0 -112 -37.5 -210t-116 -170.5t-199.5 -115.5t-287 -43q-151 0 -259.5 44.5t-177 115t-101.5 157.5t-33 175q0 101 34.5 186.5t88.5 164.5l176 -102q-43 -64 -62.5 -124.5t-19.5 -110.5q0 -62 24 -113
t71.5 -88.5t117.5 -59.5t159 -22q91 0 165 18t129 52.5t85 86t30 116.5v645h259q199 0 292 -95t93 -287v-143h269v1119h211v-1336h-693z" />
    <glyph glyph-name="uniFC44" unicode="&#xfedf;&#xfef2;" horiz-adv-x="2275" arabic-form="isolated" 
d="M336 -589q0 44 31.5 75t80.5 31q48 0 79.5 -31t31.5 -75q0 -47 -31.5 -78t-79.5 -31q-49 0 -80.5 31t-31.5 78zM625 -589q0 44 31.5 75t80.5 31q48 0 80 -31t32 -75q0 -47 -32 -78t-80 -31q-49 0 -80.5 31t-31.5 78zM1434 0v340q0 63 -12 101t-37 58.5t-63.5 27.5
t-88.5 7h-17v-394q0 -112 -37.5 -210t-116 -170.5t-199.5 -115.5t-287 -43q-151 0 -259.5 44.5t-177 115t-101.5 157.5t-33 175q0 101 34.5 186.5t88.5 164.5l176 -102q-43 -64 -62.5 -124.5t-19.5 -110.5q0 -62 24 -113t71.5 -88.5t117.5 -59.5t159 -22q91 0 165 18
t129 52.5t85 86t30 116.5v645h259q199 0 292 -95t93 -287v-143h269v1119h211v-1336h-693z" />
    <glyph glyph-name="uniFC64" unicode="&#xfe8c;&#xfeae;" horiz-adv-x="1416" arabic-form="final" 
d="M1260 1224q-21 6 -44 10.5t-49 4.5q-37 0 -63.5 -22.5t-26.5 -66.5q0 -38 35.5 -71.5t108.5 -33.5h80v-139h-436v139h116q-21 26 -39 61.5t-18 77.5q0 75 57 132t175 57q30 0 64.5 -4.5t62.5 -13.5zM726 0q-54 0 -99 24t-73 56v-50q0 -84 -22 -157t-67.5 -127t-110.5 -85
t-150 -31q-34 0 -65 3t-53 7q-15 2 -27 4t-24 5l23 213l52 -11q22 -4 47.5 -7t46.5 -3q82 0 109.5 52.5t27.5 152.5v696h213v-354q0 -75 34.5 -123t131.5 -48h190q41 0 55 26t14 70v429h212v-354q0 -75 35.5 -123t128.5 -48h66q32 0 41 -15t9 -36v-114q0 -15 -12 -33.5
t-38 -18.5h-71q-82 0 -131.5 39t-75.5 86q-32 -54 -89 -89.5t-135 -35.5h-193z" />
    <glyph glyph-name="uniFC67" unicode="&#xfe8c;&#xfee6;" horiz-adv-x="1897" arabic-form="final" 
d="M452 847q0 45 32.5 77t78.5 32q49 0 81.5 -32t32.5 -77q0 -44 -32.5 -76t-81.5 -32q-46 0 -78.5 32t-32.5 76zM1746 1224q-21 6 -44.5 10.5t-48.5 4.5q-38 0 -64.5 -22.5t-26.5 -66.5q0 -38 35.5 -71.5t108.5 -33.5h81v-139h-437v139h116q-21 26 -39 61.5t-18 77.5
q0 75 57 132t175 57q30 0 64.5 -4.5t62.5 -13.5zM1202 0q-49 0 -82.5 15t-56.5 35q-14 -117 -65 -201t-124 -138t-163.5 -79.5t-183.5 -25.5q-153 0 -254.5 44t-162 114t-85.5 156.5t-25 170.5q0 90 32 185.5t87 167.5l180 -102q-43 -64 -61.5 -127.5t-18.5 -123.5
q0 -45 14.5 -92t51 -86.5t97 -65t154.5 -25.5q78 0 137.5 25t100 64t60 91t19.5 108q0 79 -31 176t-81 177l199 114q38 -73 63 -140t38 -116q17 -60 49.5 -82t111.5 -22h193q41 0 55 26t14 70v429h212v-354q0 -75 35.5 -123t128.5 -48h66q32 0 41 -15t9 -36v-114
q0 -15 -12 -33.5t-38 -18.5h-71q-82 0 -131.5 39t-75.5 86q-32 -54 -89 -89.5t-135 -35.5h-202z" />
    <glyph glyph-name="uniFC6A" unicode="&#xfe92;&#xfeae;" horiz-adv-x="1416" arabic-form="final" 
d="M726 0q-54 0 -99 24t-73 56v-50q0 -84 -22 -157t-67.5 -127t-110.5 -85t-150 -31q-34 0 -65 3t-53 7q-15 2 -27 4t-24 5l23 213l52 -11q22 -4 47.5 -7t46.5 -3q82 0 109.5 52.5t27.5 152.5v696h213v-354q0 -75 34.5 -123t131.5 -48h190q41 0 55 26t14 70v429h212v-354
q0 -75 35.5 -123t128.5 -48h66q32 0 41 -15t9 -36v-114q0 -15 -12 -33.5t-38 -18.5h-71q-82 0 -131.5 39t-75.5 86q-32 -54 -89 -89.5t-135 -35.5h-193zM944 -235q0 45 33 76t81 31q47 0 79.5 -31t32.5 -76q0 -47 -32.5 -77.5t-79.5 -30.5q-48 0 -81 30.5t-33 77.5z" />
    <glyph glyph-name="uniFC70" unicode="&#xfe98;&#xfeae;" horiz-adv-x="1416" arabic-form="final" 
d="M726 0q-54 0 -99 24t-73 56v-50q0 -84 -22 -157t-67.5 -127t-110.5 -85t-150 -31q-34 0 -65 3t-53 7q-15 2 -27 4t-24 5l23 213l52 -11q22 -4 47.5 -7t46.5 -3q82 0 109.5 52.5t27.5 152.5v696h213v-354q0 -75 34.5 -123t131.5 -48h190q41 0 55 26t14 70v429h212v-354
q0 -75 35.5 -123t128.5 -48h66q32 0 41 -15t9 -36v-114q0 -15 -12 -33.5t-38 -18.5h-71q-82 0 -131.5 39t-75.5 86q-32 -54 -89 -89.5t-135 -35.5h-193zM823 1034q0 45 32 76.5t80 31.5q49 0 80.5 -31.5t31.5 -76.5q0 -46 -31.5 -77t-80.5 -31q-48 0 -80 31t-32 77z
M1115 1034q0 45 31.5 76.5t80.5 31.5q48 0 80 -31.5t32 -76.5q0 -46 -32 -77t-80 -31q-49 0 -80.5 31t-31.5 77z" />
    <glyph glyph-name="uniFC86" unicode="&#xfee0;&#xfef0;" horiz-adv-x="2369" arabic-form="final" 
d="M1434 0v340q0 63 -12 101t-37 58.5t-63.5 27.5t-88.5 7h-17v-394q0 -112 -37.5 -210t-116 -170.5t-199.5 -115.5t-287 -43q-151 0 -259.5 44.5t-177 115t-101.5 157.5t-33 175q0 101 34.5 186.5t88.5 164.5l176 -102q-43 -64 -62.5 -124.5t-19.5 -110.5q0 -62 24 -113
t71.5 -88.5t117.5 -59.5t159 -22q91 0 165 18t129 52.5t85 86t30 116.5v645h259q199 0 292 -95t93 -287v-143h221q41 0 55 26t14 70v1023h214v-948q0 -75 35 -123t129 -48h66q32 0 41 -15t9 -36v-114q0 -15 -12 -33.5t-38 -18.5h-73q-80 0 -129 38.5t-76 84.5
q-32 -61 -89.5 -92t-136.5 -31h-443z" />
    <glyph glyph-name="uniFC87" unicode="&#xfee0;&#xfef2;" horiz-adv-x="2369" arabic-form="final" 
d="M336 -589q0 44 31.5 75t80.5 31q48 0 79.5 -31t31.5 -75q0 -47 -31.5 -78t-79.5 -31q-49 0 -80.5 31t-31.5 78zM625 -589q0 44 31.5 75t80.5 31q48 0 80 -31t32 -75q0 -47 -32 -78t-80 -31q-49 0 -80.5 31t-31.5 78zM1434 0v340q0 63 -12 101t-37 58.5t-63.5 27.5
t-88.5 7h-17v-394q0 -112 -37.5 -210t-116 -170.5t-199.5 -115.5t-287 -43q-151 0 -259.5 44.5t-177 115t-101.5 157.5t-33 175q0 101 34.5 186.5t88.5 164.5l176 -102q-43 -64 -62.5 -124.5t-19.5 -110.5q0 -62 24 -113t71.5 -88.5t117.5 -59.5t159 -22q91 0 165 18
t129 52.5t85 86t30 116.5v645h259q199 0 292 -95t93 -287v-143h221q41 0 55 26t14 70v1023h214v-948q0 -75 35 -123t129 -48h66q32 0 41 -15t9 -36v-114q0 -15 -12 -33.5t-38 -18.5h-73q-80 0 -129 38.5t-76 84.5q-32 -61 -89.5 -92t-136.5 -31h-443z" />
    <glyph glyph-name="uniFCCC" unicode="&#xfedf;&#xfee4;" horiz-adv-x="1675" arabic-form="initial" 
d="M562 205q90 0 132 53.5t42 131.5q0 48 -15 87.5t-38.5 67.5t-55.5 43t-65 15q-35 0 -67 -15t-55 -43t-37 -67.5t-14 -87.5q0 -78 41.5 -131.5t131.5 -53.5zM1096 0q-79 0 -137.5 39t-86.5 99q-33 -52 -70.5 -82t-76.5 -44t-82.5 -17.5t-88.5 -3.5q-105 0 -175 37.5
t-115 96.5q-27 -54 -75 -89.5t-110 -35.5h-84q-28 0 -39 15t-11 33v111q0 20 12 39t38 19h73q20 0 40.5 6.5t36.5 26t25.5 54t9.5 88.5q0 89 28.5 164.5t80 130.5t122.5 87t153 32q181 0 277 -115.5t96 -325.5q0 -16 4.5 -42t21.5 -49.5t50 -40t88 -16.5h215v1119h211v-1336
h-431z" />
    <glyph glyph-name="uniFCFB" unicode="&#xfeb3;&#xfef0;" horiz-adv-x="3355" arabic-form="isolated" 
d="M1434 0v340q0 63 -12 101t-37 58.5t-63.5 27.5t-88.5 7h-17v-394q0 -112 -37.5 -210t-116 -170.5t-199.5 -115.5t-287 -43q-151 0 -259.5 44.5t-177 115t-101.5 157.5t-33 175q0 101 34.5 186.5t88.5 164.5l176 -102q-43 -64 -62.5 -124.5t-19.5 -110.5q0 -62 24 -113
t71.5 -88.5t117.5 -59.5t159 -22q91 0 165 18t129 52.5t85 86t30 116.5v645h259q199 0 292 -95t93 -287v-143h309q42 0 55 26t13 70v256h213v-181q0 -75 35.5 -123t128.5 -48h46q43 0 56.5 24t13.5 72v329h212v-254q0 -75 35.5 -123t129.5 -48h110v525h211v-742h-327
q-78 0 -126.5 38.5t-75.5 84.5q-31 -61 -91 -92t-138 -31h-60q-83 0 -132 36.5t-74 82.5q-32 -57 -92.5 -88t-144.5 -31h-520z" />
    <glyph glyph-name="uniFCFC" unicode="&#xfeb3;&#xfef2;" horiz-adv-x="3355" arabic-form="isolated" 
d="M336 -589q0 44 31.5 75t80.5 31q48 0 79.5 -31t31.5 -75q0 -47 -31.5 -78t-79.5 -31q-49 0 -80.5 31t-31.5 78zM1434 0v340q0 63 -12 101t-37 58.5t-63.5 27.5t-88.5 7h-17v-394q0 -112 -37.5 -210t-116 -170.5t-199.5 -115.5t-287 -43q-151 0 -259.5 44.5t-177 115
t-101.5 157.5t-33 175q0 101 34.5 186.5t88.5 164.5l176 -102q-43 -64 -62.5 -124.5t-19.5 -110.5q0 -62 24 -113t71.5 -88.5t117.5 -59.5t159 -22q91 0 165 18t129 52.5t85 86t30 116.5v645h259q199 0 292 -95t93 -287v-143h309q42 0 55 26t13 70v256h213v-181
q0 -75 35.5 -123t128.5 -48h46q43 0 56.5 24t13.5 72v329h212v-254q0 -75 35.5 -123t129.5 -48h110v525h211v-742h-327q-78 0 -126.5 38.5t-75.5 84.5q-31 -61 -91 -92t-138 -31h-60q-83 0 -132 36.5t-74 82.5q-32 -57 -92.5 -88t-144.5 -31h-520zM625 -589q0 44 31.5 75
t80.5 31q48 0 80 -31t32 -75q0 -47 -32 -78t-80 -31q-49 0 -80.5 31t-31.5 78z" />
    <glyph glyph-name="uniFCFD" unicode="&#xfeb7;&#xfef0;" horiz-adv-x="3355" arabic-form="isolated" 
d="M2517 1275q0 44 32.5 75t81.5 31q46 0 79.5 -31t33.5 -75q0 -47 -33.5 -78t-79.5 -31q-49 0 -81.5 31t-32.5 78zM2373 1034q0 45 32 76.5t80 31.5t80 -31.5t32 -76.5q0 -46 -32 -77t-80 -31t-80 31t-32 77zM2664 1034q0 45 31.5 76.5t80.5 31.5t80.5 -31.5t31.5 -76.5
q0 -46 -31.5 -77t-80.5 -31t-80.5 31t-31.5 77zM1434 0v340q0 63 -12 101t-37 58.5t-63.5 27.5t-88.5 7h-17v-394q0 -112 -37.5 -210t-116 -170.5t-199.5 -115.5t-287 -43q-151 0 -259.5 44.5t-177 115t-101.5 157.5t-33 175q0 101 34.5 186.5t88.5 164.5l176 -102
q-43 -64 -62.5 -124.5t-19.5 -110.5q0 -62 24 -113t71.5 -88.5t117.5 -59.5t159 -22q91 0 165 18t129 52.5t85 86t30 116.5v645h259q199 0 292 -95t93 -287v-143h309q42 0 55 26t13 70v256h213v-181q0 -75 35.5 -123t128.5 -48h46q43 0 56.5 24t13.5 72v329h212v-254
q0 -75 35.5 -123t129.5 -48h110v525h211v-742h-327q-78 0 -126.5 38.5t-75.5 84.5q-31 -61 -91 -92t-138 -31h-60q-83 0 -132 36.5t-74 82.5q-32 -57 -92.5 -88t-144.5 -31h-520z" />
    <glyph glyph-name="uniFCFE" unicode="&#xfeb7;&#xfef2;" horiz-adv-x="3355" arabic-form="isolated" 
d="M2517 1275q0 44 32.5 75t81.5 31q46 0 79.5 -31t33.5 -75q0 -47 -33.5 -78t-79.5 -31q-49 0 -81.5 31t-32.5 78zM2373 1034q0 45 32 76.5t80 31.5t80 -31.5t32 -76.5q0 -46 -32 -77t-80 -31t-80 31t-32 77zM2664 1034q0 45 31.5 76.5t80.5 31.5t80.5 -31.5t31.5 -76.5
q0 -46 -31.5 -77t-80.5 -31t-80.5 31t-31.5 77zM336 -589q0 44 31.5 75t80.5 31q48 0 79.5 -31t31.5 -75q0 -47 -31.5 -78t-79.5 -31q-49 0 -80.5 31t-31.5 78zM1434 0v340q0 63 -12 101t-37 58.5t-63.5 27.5t-88.5 7h-17v-394q0 -112 -37.5 -210t-116 -170.5t-199.5 -115.5
t-287 -43q-151 0 -259.5 44.5t-177 115t-101.5 157.5t-33 175q0 101 34.5 186.5t88.5 164.5l176 -102q-43 -64 -62.5 -124.5t-19.5 -110.5q0 -62 24 -113t71.5 -88.5t117.5 -59.5t159 -22q91 0 165 18t129 52.5t85 86t30 116.5v645h259q199 0 292 -95t93 -287v-143h309
q42 0 55 26t13 70v256h213v-181q0 -75 35.5 -123t128.5 -48h46q43 0 56.5 24t13.5 72v329h212v-254q0 -75 35.5 -123t129.5 -48h110v525h211v-742h-327q-78 0 -126.5 38.5t-75.5 84.5q-31 -61 -91 -92t-138 -31h-60q-83 0 -132 36.5t-74 82.5q-32 -57 -92.5 -88t-144.5 -31
h-520zM625 -589q0 44 31.5 75t80.5 31q48 0 80 -31t32 -75q0 -47 -32 -78t-80 -31q-49 0 -80.5 31t-31.5 78z" />
    <glyph glyph-name="uniFD05" unicode="&#xfebb;&#xfef0;" horiz-adv-x="3144" arabic-form="isolated" 
d="M2795 323q0 78 -16.5 131t-47.5 85t-75 46t-96 14q-62 0 -125 -27t-117.5 -77t-92.5 -120.5t-49 -157.5h619v106zM1434 0v340q0 63 -12 101t-37 58.5t-63.5 27.5t-88.5 7h-17v-394q0 -112 -37.5 -210t-116 -170.5t-199.5 -115.5t-287 -43q-151 0 -259.5 44.5t-177 115
t-101.5 157.5t-33 175q0 101 34.5 186.5t88.5 164.5l176 -102q-43 -64 -62.5 -124.5t-19.5 -110.5q0 -62 24 -113t71.5 -88.5t117.5 -59.5t159 -22q91 0 165 18t129 52.5t85 86t30 116.5v645h259q199 0 292 -95t93 -287v-143h310v527h214v-156q80 103 189.5 160.5
t223.5 57.5q105 0 184 -35.5t133.5 -98t81.5 -148.5t27 -186v-338h-1576z" />
    <glyph glyph-name="uniFD06" unicode="&#xfebb;&#xfef2;" horiz-adv-x="3144" arabic-form="isolated" 
d="M336 -589q0 44 31.5 75t80.5 31q48 0 79.5 -31t31.5 -75q0 -47 -31.5 -78t-79.5 -31q-49 0 -80.5 31t-31.5 78zM625 -589q0 44 31.5 75t80.5 31q48 0 80 -31t32 -75q0 -47 -32 -78t-80 -31q-49 0 -80.5 31t-31.5 78zM2795 323q0 78 -16.5 131t-47.5 85t-75 46t-96 14
q-62 0 -125 -27t-117.5 -77t-92.5 -120.5t-49 -157.5h619v106zM1434 0v340q0 63 -12 101t-37 58.5t-63.5 27.5t-88.5 7h-17v-394q0 -112 -37.5 -210t-116 -170.5t-199.5 -115.5t-287 -43q-151 0 -259.5 44.5t-177 115t-101.5 157.5t-33 175q0 101 34.5 186.5t88.5 164.5
l176 -102q-43 -64 -62.5 -124.5t-19.5 -110.5q0 -62 24 -113t71.5 -88.5t117.5 -59.5t159 -22q91 0 165 18t129 52.5t85 86t30 116.5v645h259q199 0 292 -95t93 -287v-143h310v527h214v-156q80 103 189.5 160.5t223.5 57.5q105 0 184 -35.5t133.5 -98t81.5 -148.5t27 -186
v-338h-1576z" />
    <glyph glyph-name="uniFD07" unicode="&#xfebf;&#xfef0;" horiz-adv-x="3144" arabic-form="isolated" 
d="M2795 323q0 78 -16.5 131t-47.5 85t-75 46t-96 14q-62 0 -125 -27t-117.5 -77t-92.5 -120.5t-49 -157.5h619v106zM1434 0v340q0 63 -12 101t-37 58.5t-63.5 27.5t-88.5 7h-17v-394q0 -112 -37.5 -210t-116 -170.5t-199.5 -115.5t-287 -43q-151 0 -259.5 44.5t-177 115
t-101.5 157.5t-33 175q0 101 34.5 186.5t88.5 164.5l176 -102q-43 -64 -62.5 -124.5t-19.5 -110.5q0 -62 24 -113t71.5 -88.5t117.5 -59.5t159 -22q91 0 165 18t129 52.5t85 86t30 116.5v645h259q199 0 292 -95t93 -287v-143h310v527h214v-156q80 103 189.5 160.5
t223.5 57.5q105 0 184 -35.5t133.5 -98t81.5 -148.5t27 -186v-338h-1576zM2447 1034q0 45 32 76.5t79 31.5q49 0 81.5 -31.5t32.5 -76.5q0 -46 -32.5 -77t-81.5 -31q-47 0 -79 31t-32 77z" />
    <glyph glyph-name="uniFD08" unicode="&#xfebf;&#xfef2;" horiz-adv-x="3144" arabic-form="isolated" 
d="M336 -589q0 44 31.5 75t80.5 31q48 0 79.5 -31t31.5 -75q0 -47 -31.5 -78t-79.5 -31q-49 0 -80.5 31t-31.5 78zM625 -589q0 44 31.5 75t80.5 31q48 0 80 -31t32 -75q0 -47 -32 -78t-80 -31q-49 0 -80.5 31t-31.5 78zM2795 323q0 78 -16.5 131t-47.5 85t-75 46t-96 14
q-62 0 -125 -27t-117.5 -77t-92.5 -120.5t-49 -157.5h619v106zM1434 0v340q0 63 -12 101t-37 58.5t-63.5 27.5t-88.5 7h-17v-394q0 -112 -37.5 -210t-116 -170.5t-199.5 -115.5t-287 -43q-151 0 -259.5 44.5t-177 115t-101.5 157.5t-33 175q0 101 34.5 186.5t88.5 164.5
l176 -102q-43 -64 -62.5 -124.5t-19.5 -110.5q0 -62 24 -113t71.5 -88.5t117.5 -59.5t159 -22q91 0 165 18t129 52.5t85 86t30 116.5v645h259q199 0 292 -95t93 -287v-143h310v527h214v-156q80 103 189.5 160.5t223.5 57.5q105 0 184 -35.5t133.5 -98t81.5 -148.5t27 -186
v-338h-1576zM2447 1034q0 45 32 76.5t79 31.5q49 0 81.5 -31.5t32.5 -76.5q0 -46 -32.5 -77t-81.5 -31q-47 0 -79 31t-32 77z" />
    <glyph glyph-name="uniFD0D" unicode="&#xfeb7;&#xfeae;" horiz-adv-x="2460" arabic-form="isolated" 
d="M1622 1275q0 44 33 75t81 31q46 0 80 -31t34 -75q0 -47 -34 -78t-80 -31q-48 0 -81 31t-33 78zM1478 1034q0 45 32 76.5t80 31.5t80 -31.5t32 -76.5q0 -46 -32 -77t-80 -31t-80 31t-32 77zM1770 1034q0 45 31 76.5t81 31.5q48 0 80 -31.5t32 -76.5q0 -46 -32 -77t-80 -31
q-50 0 -81 31t-31 77zM726 0q-54 0 -99 24t-73 56v-50q0 -84 -22 -157t-67.5 -127t-110.5 -85t-150 -31q-34 0 -65 3t-53 7q-15 2 -27 4t-24 5l23 213l52 -11q22 -4 47.5 -7t46.5 -3q82 0 109.5 52.5t27.5 152.5v696h213v-354q0 -75 34.5 -123t131.5 -48h341q43 0 55.5 26
t12.5 70v256h213v-181q0 -75 35.5 -123t128.5 -48h47q43 0 56 24t13 72v329h212v-254q0 -75 35.5 -123t129.5 -48h110v525h211v-742h-326q-79 0 -127.5 38.5t-75.5 84.5q-31 -61 -91 -92t-138 -31h-59q-84 0 -133 36.5t-74 82.5q-32 -57 -92.5 -88t-144.5 -31h-333z" />
    <glyph glyph-name="uniFD0E" unicode="&#xfeb3;&#xfeae;" horiz-adv-x="2460" arabic-form="isolated" 
d="M726 0q-54 0 -99 24t-73 56v-50q0 -84 -22 -157t-67.5 -127t-110.5 -85t-150 -31q-34 0 -65 3t-53 7q-15 2 -27 4t-24 5l23 213l52 -11q22 -4 47.5 -7t46.5 -3q82 0 109.5 52.5t27.5 152.5v696h213v-354q0 -75 34.5 -123t131.5 -48h341q43 0 55.5 26t12.5 70v256h213
v-181q0 -75 35.5 -123t128.5 -48h47q43 0 56 24t13 72v329h212v-254q0 -75 35.5 -123t129.5 -48h110v525h211v-742h-326q-79 0 -127.5 38.5t-75.5 84.5q-31 -61 -91 -92t-138 -31h-59q-84 0 -133 36.5t-74 82.5q-32 -57 -92.5 -88t-144.5 -31h-333z" />
    <glyph glyph-name="uniFD0F" unicode="&#xfebb;&#xfeae;" horiz-adv-x="2176" arabic-form="isolated" 
d="M1828 323q0 78 -17 131t-48 85t-74.5 46t-96.5 14q-61 0 -124.5 -27t-117.5 -77t-92.5 -120.5t-49.5 -157.5h620v106zM726 0q-54 0 -99 24t-73 56v-50q0 -84 -22 -157t-67.5 -127t-110.5 -85t-150 -31q-34 0 -65 3t-53 7q-15 2 -27 4t-24 5l23 213l52 -11q22 -4 47.5 -7
t46.5 -3q82 0 109.5 52.5t27.5 152.5v696h213v-354q0 -75 34.5 -123t131.5 -48h270v527h214v-156q79 103 189 160.5t224 57.5q104 0 183.5 -35.5t133.5 -98t81 -148.5t27 -186v-338h-1316z" />
    <glyph glyph-name="uniFD10" unicode="&#xfebf;&#xfeae;" horiz-adv-x="2176" arabic-form="isolated" 
d="M1828 323q0 78 -17 131t-48 85t-74.5 46t-96.5 14q-61 0 -124.5 -27t-117.5 -77t-92.5 -120.5t-49.5 -157.5h620v106zM726 0q-54 0 -99 24t-73 56v-50q0 -84 -22 -157t-67.5 -127t-110.5 -85t-150 -31q-34 0 -65 3t-53 7q-15 2 -27 4t-24 5l23 213l52 -11q22 -4 47.5 -7
t46.5 -3q82 0 109.5 52.5t27.5 152.5v696h213v-354q0 -75 34.5 -123t131.5 -48h270v527h214v-156q79 103 189 160.5t224 57.5q104 0 183.5 -35.5t133.5 -98t81 -148.5t27 -186v-338h-1316zM1479 1034q0 45 32.5 76.5t78.5 31.5q49 0 81.5 -31.5t32.5 -76.5q0 -46 -32.5 -77
t-81.5 -31q-46 0 -78.5 31t-32.5 77z" />
    <glyph glyph-name="uniFD17" unicode="&#xfeb4;&#xfef0;" horiz-adv-x="3469" arabic-form="final" 
d="M1434 0v340q0 63 -12 101t-37 58.5t-63.5 27.5t-88.5 7h-17v-394q0 -112 -37.5 -210t-116 -170.5t-199.5 -115.5t-287 -43q-151 0 -259.5 44.5t-177 115t-101.5 157.5t-33 175q0 101 34.5 186.5t88.5 164.5l176 -102q-43 -64 -62.5 -124.5t-19.5 -110.5q0 -62 24 -113
t71.5 -88.5t117.5 -59.5t159 -22q91 0 165 18t129 52.5t85 86t30 116.5v645h259q199 0 292 -95t93 -287v-143h334q43 0 58 22t15 69v261h209v-181q0 -71 35.5 -121t129.5 -50h34q43 0 56 26t13 70v329h214v-254q0 -75 35.5 -123t129.5 -48h45q45 0 59 26t14 70v429h210v-354
q0 -75 34.5 -123t127.5 -48h77q30 0 41.5 -15t11.5 -36v-114q0 -15 -12.5 -33.5t-38.5 -18.5h-79q-83 0 -132.5 37.5t-75.5 85.5q-32 -59 -95.5 -91t-141.5 -32h-50q-85 0 -132.5 37.5t-71.5 83.5q-36 -61 -97.5 -91t-130.5 -30h-48q-80 0 -129.5 37.5t-73.5 83.5
q-36 -61 -100 -91t-143 -30h-545z" />
    <glyph glyph-name="uniFD18" unicode="&#xfeb4;&#xfef2;" horiz-adv-x="3469" arabic-form="final" 
d="M336 -589q0 44 31.5 75t80.5 31q48 0 79.5 -31t31.5 -75q0 -47 -31.5 -78t-79.5 -31q-49 0 -80.5 31t-31.5 78zM625 -589q0 44 31.5 75t80.5 31q48 0 80 -31t32 -75q0 -47 -32 -78t-80 -31q-49 0 -80.5 31t-31.5 78zM1434 0v340q0 63 -12 101t-37 58.5t-63.5 27.5
t-88.5 7h-17v-394q0 -112 -37.5 -210t-116 -170.5t-199.5 -115.5t-287 -43q-151 0 -259.5 44.5t-177 115t-101.5 157.5t-33 175q0 101 34.5 186.5t88.5 164.5l176 -102q-43 -64 -62.5 -124.5t-19.5 -110.5q0 -62 24 -113t71.5 -88.5t117.5 -59.5t159 -22q91 0 165 18
t129 52.5t85 86t30 116.5v645h259q199 0 292 -95t93 -287v-143h334q43 0 58 22t15 69v261h209v-181q0 -71 35.5 -121t129.5 -50h34q43 0 56 26t13 70v329h214v-254q0 -75 35.5 -123t129.5 -48h45q45 0 59 26t14 70v429h210v-354q0 -75 34.5 -123t127.5 -48h77q30 0 41.5 -15
t11.5 -36v-114q0 -15 -12.5 -33.5t-38.5 -18.5h-79q-83 0 -132.5 37.5t-75.5 85.5q-32 -59 -95.5 -91t-141.5 -32h-50q-85 0 -132.5 37.5t-71.5 83.5q-36 -61 -97.5 -91t-130.5 -30h-48q-80 0 -129.5 37.5t-73.5 83.5q-36 -61 -100 -91t-143 -30h-545z" />
    <glyph glyph-name="uniFD19" unicode="&#xfeb8;&#xfef0;" horiz-adv-x="3469" arabic-form="final" 
d="M2542 1275q0 44 33 75t81 31q47 0 80.5 -31t33.5 -75q0 -47 -33.5 -78t-80.5 -31q-48 0 -81 31t-33 78zM1434 0v340q0 63 -12 101t-37 58.5t-63.5 27.5t-88.5 7h-17v-394q0 -112 -37.5 -210t-116 -170.5t-199.5 -115.5t-287 -43q-151 0 -259.5 44.5t-177 115
t-101.5 157.5t-33 175q0 101 34.5 186.5t88.5 164.5l176 -102q-43 -64 -62.5 -124.5t-19.5 -110.5q0 -62 24 -113t71.5 -88.5t117.5 -59.5t159 -22q91 0 165 18t129 52.5t85 86t30 116.5v645h259q199 0 292 -95t93 -287v-143h334q43 0 58 22t15 69v261h209v-181
q0 -71 35.5 -121t129.5 -50h34q43 0 56 26t13 70v329h214v-254q0 -75 35.5 -123t129.5 -48h45q45 0 59 26t14 70v429h210v-354q0 -75 34.5 -123t127.5 -48h77q30 0 41.5 -15t11.5 -36v-114q0 -15 -12.5 -33.5t-38.5 -18.5h-79q-83 0 -132.5 37.5t-75.5 85.5
q-32 -59 -95.5 -91t-141.5 -32h-50q-85 0 -132.5 37.5t-71.5 83.5q-36 -61 -97.5 -91t-130.5 -30h-48q-80 0 -129.5 37.5t-73.5 83.5q-36 -61 -100 -91t-143 -30h-545zM2690 1034q0 45 32 76.5t80 31.5t80 -31.5t32 -76.5q0 -46 -32 -77t-80 -31t-80 31t-32 77zM2398 1034
q0 45 32 76.5t80 31.5q50 0 81 -31.5t31 -76.5q0 -46 -31 -77t-81 -31q-48 0 -80 31t-32 77z" />
    <glyph glyph-name="uniFD1A" unicode="&#xfeb8;&#xfef2;" horiz-adv-x="3469" arabic-form="final" 
d="M336 -589q0 44 31.5 75t80.5 31q48 0 79.5 -31t31.5 -75q0 -47 -31.5 -78t-79.5 -31q-49 0 -80.5 31t-31.5 78zM625 -589q0 44 31.5 75t80.5 31q48 0 80 -31t32 -75q0 -47 -32 -78t-80 -31q-49 0 -80.5 31t-31.5 78zM2542 1275q0 44 33 75t81 31q47 0 80.5 -31t33.5 -75
q0 -47 -33.5 -78t-80.5 -31q-48 0 -81 31t-33 78zM1434 0v340q0 63 -12 101t-37 58.5t-63.5 27.5t-88.5 7h-17v-394q0 -112 -37.5 -210t-116 -170.5t-199.5 -115.5t-287 -43q-151 0 -259.5 44.5t-177 115t-101.5 157.5t-33 175q0 101 34.5 186.5t88.5 164.5l176 -102
q-43 -64 -62.5 -124.5t-19.5 -110.5q0 -62 24 -113t71.5 -88.5t117.5 -59.5t159 -22q91 0 165 18t129 52.5t85 86t30 116.5v645h259q199 0 292 -95t93 -287v-143h334q43 0 58 22t15 69v261h209v-181q0 -71 35.5 -121t129.5 -50h34q43 0 56 26t13 70v329h214v-254
q0 -75 35.5 -123t129.5 -48h45q45 0 59 26t14 70v429h210v-354q0 -75 34.5 -123t127.5 -48h77q30 0 41.5 -15t11.5 -36v-114q0 -15 -12.5 -33.5t-38.5 -18.5h-79q-83 0 -132.5 37.5t-75.5 85.5q-32 -59 -95.5 -91t-141.5 -32h-50q-85 0 -132.5 37.5t-71.5 83.5
q-36 -61 -97.5 -91t-130.5 -30h-48q-80 0 -129.5 37.5t-73.5 83.5q-36 -61 -100 -91t-143 -30h-545zM2690 1034q0 45 32 76.5t80 31.5t80 -31.5t32 -76.5q0 -46 -32 -77t-80 -31t-80 31t-32 77zM2398 1034q0 45 32 76.5t80 31.5q50 0 81 -31.5t31 -76.5q0 -46 -31 -77
t-81 -31q-48 0 -80 31t-32 77z" />
    <glyph glyph-name="uniFD21" unicode="&#xfebc;&#xfef0;" horiz-adv-x="3269" arabic-form="final" 
d="M2784 217q39 0 50 25t11 79q0 135 -65.5 206.5t-194.5 71.5q-72 0 -138.5 -30.5t-117.5 -84t-84.5 -122.5t-41.5 -145h581zM1434 0v340q0 63 -12 101t-37 58.5t-63.5 27.5t-88.5 7h-17v-394q0 -112 -37.5 -210t-116 -170.5t-199.5 -115.5t-287 -43q-151 0 -259.5 44.5
t-177 115t-101.5 157.5t-33 175q0 101 34.5 186.5t88.5 164.5l176 -102q-43 -64 -62.5 -124.5t-19.5 -110.5q0 -62 24 -113t71.5 -88.5t117.5 -59.5t159 -22q91 0 165 18t129 52.5t85 86t30 116.5v645h259q199 0 292 -95t93 -287v-143h339v527h213v-156q67 91 173.5 154.5
t237.5 63.5q103 0 185.5 -35.5t141.5 -98t91 -149.5t32 -187q0 -65 42 -92t127 -27h48q32 0 41.5 -15t9.5 -36v-114q0 -15 -11 -33.5t-40 -18.5h-52q-80 0 -130.5 37.5t-75.5 83.5q-30 -61 -91.5 -91t-146.5 -30h-1347z" />
    <glyph glyph-name="uniFD22" unicode="&#xfebc;&#xfef2;" horiz-adv-x="3269" arabic-form="final" 
d="M336 -589q0 44 31.5 75t80.5 31q48 0 79.5 -31t31.5 -75q0 -47 -31.5 -78t-79.5 -31q-49 0 -80.5 31t-31.5 78zM625 -589q0 44 31.5 75t80.5 31q48 0 80 -31t32 -75q0 -47 -32 -78t-80 -31q-49 0 -80.5 31t-31.5 78zM2784 217q39 0 50 25t11 79q0 135 -65.5 206.5
t-194.5 71.5q-72 0 -138.5 -30.5t-117.5 -84t-84.5 -122.5t-41.5 -145h581zM1434 0v340q0 63 -12 101t-37 58.5t-63.5 27.5t-88.5 7h-17v-394q0 -112 -37.5 -210t-116 -170.5t-199.5 -115.5t-287 -43q-151 0 -259.5 44.5t-177 115t-101.5 157.5t-33 175q0 101 34.5 186.5
t88.5 164.5l176 -102q-43 -64 -62.5 -124.5t-19.5 -110.5q0 -62 24 -113t71.5 -88.5t117.5 -59.5t159 -22q91 0 165 18t129 52.5t85 86t30 116.5v645h259q199 0 292 -95t93 -287v-143h339v527h213v-156q67 91 173.5 154.5t237.5 63.5q103 0 185.5 -35.5t141.5 -98t91 -149.5
t32 -187q0 -65 42 -92t127 -27h48q32 0 41.5 -15t9.5 -36v-114q0 -15 -11 -33.5t-40 -18.5h-52q-80 0 -130.5 37.5t-75.5 83.5q-30 -61 -91.5 -91t-146.5 -30h-1347z" />
    <glyph glyph-name="uniFD23" unicode="&#xfec0;&#xfef0;" horiz-adv-x="3269" arabic-form="final" 
d="M2784 217q39 0 50 25t11 79q0 135 -65.5 206.5t-194.5 71.5q-72 0 -138.5 -30.5t-117.5 -84t-84.5 -122.5t-41.5 -145h581zM1434 0v340q0 63 -12 101t-37 58.5t-63.5 27.5t-88.5 7h-17v-394q0 -112 -37.5 -210t-116 -170.5t-199.5 -115.5t-287 -43q-151 0 -259.5 44.5
t-177 115t-101.5 157.5t-33 175q0 101 34.5 186.5t88.5 164.5l176 -102q-43 -64 -62.5 -124.5t-19.5 -110.5q0 -62 24 -113t71.5 -88.5t117.5 -59.5t159 -22q91 0 165 18t129 52.5t85 86t30 116.5v645h259q199 0 292 -95t93 -287v-143h339v527h213v-156q67 91 173.5 154.5
t237.5 63.5q103 0 185.5 -35.5t141.5 -98t91 -149.5t32 -187q0 -65 42 -92t127 -27h48q32 0 41.5 -15t9.5 -36v-114q0 -15 -11 -33.5t-40 -18.5h-52q-80 0 -130.5 37.5t-75.5 83.5q-30 -61 -91.5 -91t-146.5 -30h-1347zM2519 1034q0 45 32 76.5t80 31.5t80.5 -31.5
t32.5 -76.5q0 -46 -32.5 -77t-80.5 -31t-80 31t-32 77z" />
    <glyph glyph-name="uniFD24" unicode="&#xfec0;&#xfef2;" horiz-adv-x="3269" arabic-form="final" 
d="M336 -589q0 44 31.5 75t80.5 31q48 0 79.5 -31t31.5 -75q0 -47 -31.5 -78t-79.5 -31q-49 0 -80.5 31t-31.5 78zM625 -589q0 44 31.5 75t80.5 31q48 0 80 -31t32 -75q0 -47 -32 -78t-80 -31q-49 0 -80.5 31t-31.5 78zM2784 217q39 0 50 25t11 79q0 135 -65.5 206.5
t-194.5 71.5q-72 0 -138.5 -30.5t-117.5 -84t-84.5 -122.5t-41.5 -145h581zM1434 0v340q0 63 -12 101t-37 58.5t-63.5 27.5t-88.5 7h-17v-394q0 -112 -37.5 -210t-116 -170.5t-199.5 -115.5t-287 -43q-151 0 -259.5 44.5t-177 115t-101.5 157.5t-33 175q0 101 34.5 186.5
t88.5 164.5l176 -102q-43 -64 -62.5 -124.5t-19.5 -110.5q0 -62 24 -113t71.5 -88.5t117.5 -59.5t159 -22q91 0 165 18t129 52.5t85 86t30 116.5v645h259q199 0 292 -95t93 -287v-143h339v527h213v-156q67 91 173.5 154.5t237.5 63.5q103 0 185.5 -35.5t141.5 -98t91 -149.5
t32 -187q0 -65 42 -92t127 -27h48q32 0 41.5 -15t9.5 -36v-114q0 -15 -11 -33.5t-40 -18.5h-52q-80 0 -130.5 37.5t-75.5 83.5q-30 -61 -91.5 -91t-146.5 -30h-1347zM2519 1034q0 45 32 76.5t80 31.5t80.5 -31.5t32.5 -76.5q0 -46 -32.5 -77t-80.5 -31t-80 31t-32 77z" />
    <glyph glyph-name="uniFD29" unicode="&#xfeb8;&#xfeae;" horiz-adv-x="2544" arabic-form="final" 
d="M1620 1275q0 44 33 75t81 31q47 0 80.5 -31t33.5 -75q0 -47 -33.5 -78t-80.5 -31q-48 0 -81 31t-33 78zM1476 1034q0 45 32 76.5t80 31.5q50 0 81 -31.5t31 -76.5q0 -46 -31 -77t-81 -31q-48 0 -80 31t-32 77zM1768 1034q0 45 32 76.5t80 31.5t80 -31.5t32 -76.5
q0 -46 -32 -77t-80 -31t-80 31t-32 77zM726 0q-54 0 -99 24t-73 56v-50q0 -84 -22 -157t-67.5 -127t-110.5 -85t-150 -31q-34 0 -65 3t-53 7q-15 2 -27 4t-24 5l23 213l52 -11q22 -4 47.5 -7t46.5 -3q82 0 109.5 52.5t27.5 152.5v696h213v-354q0 -75 34.5 -123t131.5 -48
h339q43 0 58 22t15 69v261h209v-181q0 -71 35.5 -121t129.5 -50h34q43 0 56 26t13 70v329h214v-254q0 -75 35.5 -123t129.5 -48h45q45 0 59 26t14 70v429h210v-354q0 -75 34.5 -123t127.5 -48h77q30 0 41.5 -15t11.5 -36v-114q0 -15 -12.5 -33.5t-38.5 -18.5h-79
q-83 0 -132.5 37.5t-75.5 85.5q-32 -59 -95.5 -91t-141.5 -32h-50q-85 0 -132.5 37.5t-71.5 83.5q-36 -61 -97.5 -91t-130.5 -30h-48q-80 0 -129.5 37.5t-73.5 83.5q-36 -61 -100 -91t-143 -30h-331z" />
    <glyph glyph-name="uniFD2A" unicode="&#xfeb4;&#xfeae;" horiz-adv-x="2544" arabic-form="final" 
d="M726 0q-54 0 -99 24t-73 56v-50q0 -84 -22 -157t-67.5 -127t-110.5 -85t-150 -31q-34 0 -65 3t-53 7q-15 2 -27 4t-24 5l23 213l52 -11q22 -4 47.5 -7t46.5 -3q82 0 109.5 52.5t27.5 152.5v696h213v-354q0 -75 34.5 -123t131.5 -48h339q43 0 58 22t15 69v261h209v-181
q0 -71 35.5 -121t129.5 -50h34q43 0 56 26t13 70v329h214v-254q0 -75 35.5 -123t129.5 -48h45q45 0 59 26t14 70v429h210v-354q0 -75 34.5 -123t127.5 -48h77q30 0 41.5 -15t11.5 -36v-114q0 -15 -12.5 -33.5t-38.5 -18.5h-79q-83 0 -132.5 37.5t-75.5 85.5
q-32 -59 -95.5 -91t-141.5 -32h-50q-85 0 -132.5 37.5t-71.5 83.5q-36 -61 -97.5 -91t-130.5 -30h-48q-80 0 -129.5 37.5t-73.5 83.5q-36 -61 -100 -91t-143 -30h-331z" />
    <glyph glyph-name="uniFD2B" unicode="&#xfebc;&#xfeae;" horiz-adv-x="2272" arabic-form="final" 
d="M1789 217q39 0 50 25t11 79q0 135 -65.5 206.5t-194.5 71.5q-72 0 -138.5 -30.5t-117.5 -84t-84.5 -122.5t-41.5 -145h581zM726 0q-54 0 -99 24t-73 56v-50q0 -84 -22 -157t-67.5 -127t-110.5 -85t-150 -31q-34 0 -65 3t-53 7q-15 2 -27 4t-24 5l23 213l52 -11
q22 -4 47.5 -7t46.5 -3q82 0 109.5 52.5t27.5 152.5v696h213v-354q0 -75 34.5 -123t131.5 -48h272v527h212v-156q67 91 173.5 154.5t237.5 63.5q103 0 185.5 -35.5t141.5 -98t91 -149.5t32 -187q0 -65 42 -92t127 -27h49q31 0 41 -15t10 -36v-114q0 -15 -11.5 -33.5
t-39.5 -18.5h-52q-81 0 -131.5 37.5t-75.5 83.5q-30 -61 -91.5 -91t-146.5 -30h-1060z" />
    <glyph glyph-name="uniFD2C" unicode="&#xfec0;&#xfeae;" horiz-adv-x="2272" arabic-form="final" 
d="M1789 217q39 0 50 25t11 79q0 135 -65.5 206.5t-194.5 71.5q-72 0 -138.5 -30.5t-117.5 -84t-84.5 -122.5t-41.5 -145h581zM726 0q-54 0 -99 24t-73 56v-50q0 -84 -22 -157t-67.5 -127t-110.5 -85t-150 -31q-34 0 -65 3t-53 7q-15 2 -27 4t-24 5l23 213l52 -11
q22 -4 47.5 -7t46.5 -3q82 0 109.5 52.5t27.5 152.5v696h213v-354q0 -75 34.5 -123t131.5 -48h272v527h212v-156q67 91 173.5 154.5t237.5 63.5q103 0 185.5 -35.5t141.5 -98t91 -149.5t32 -187q0 -65 42 -92t127 -27h49q31 0 41 -15t10 -36v-114q0 -15 -11.5 -33.5
t-39.5 -18.5h-52q-81 0 -131.5 37.5t-75.5 83.5q-30 -61 -91.5 -91t-146.5 -30h-1060zM1524 1034q0 45 32 76.5t80 31.5t81 -31.5t33 -76.5q0 -46 -33 -77t-81 -31t-80 31t-32 77z" />
    <glyph glyph-name="uniFEF5" unicode="&#xfedf;&#xfe82;" horiz-adv-x="1248" arabic-form="isolated" 
d="M1100 1336v-1336h-1001v217h337v770h212v-770h239v1119h213zM109 1255q49 57 94.5 76.5t90.5 19.5q28 0 71 -16t89 -37q49 -20 95 -37.5t83 -17.5q41 0 65 27.5t38 61.5l89 -41q-35 -86 -78 -120.5t-121 -34.5q-43 0 -85.5 16t-85.5 37q-43 20 -84 36t-85 16
q-27 0 -54.5 -14t-54.5 -36z" />
    <glyph glyph-name="uniFEF6" unicode="&#xfee0;&#xfe82;" horiz-adv-x="1328" arabic-form="final" 
d="M1263 0q-75 0 -126.5 39t-80.5 86q-32 -63 -93.5 -94t-132.5 -31h-729v217h339v770h212v-770h169q43 0 55.5 26t12.5 70v1023h215v-948q0 -75 34.5 -123t127.5 -48h66q30 0 41 -15t11 -36v-114q0 -15 -12 -33.5t-40 -18.5h-69zM130 1255q48 57 94 76.5t91 19.5
q27 0 70.5 -16t89.5 -37q49 -20 94.5 -37.5t82.5 -17.5q41 0 65.5 27.5t37.5 61.5l89 -41q-35 -86 -78 -120.5t-121 -34.5q-43 0 -85 16t-85 37q-42 20 -83 36t-87 16q-25 0 -53.5 -14t-53.5 -36z" />
    <glyph glyph-name="uniFEF7" unicode="&#xfedf;&#xfe84;" horiz-adv-x="1188" arabic-form="isolated" 
d="M1040 1336v-1336h-941v217h277v770h212v-770h239v1119h213zM606 1467q-34 9 -68 9q-28 0 -46.5 -16t-18.5 -48q0 -27 25.5 -51.5t78.5 -24.5h59v-99h-316v99h84q-15 21 -28 45t-13 56q0 53 41 94t125 41q22 0 47.5 -3.5t45.5 -8.5z" />
    <glyph glyph-name="uniFEF8" unicode="&#xfee0;&#xfe84;" horiz-adv-x="1268" arabic-form="final" 
d="M1203 0q-75 0 -126.5 39t-80.5 86q-32 -63 -93.5 -94t-132.5 -31h-669v217h279v770h212v-770h169q43 0 55.5 26t12.5 70v1023h215v-948q0 -75 34.5 -123t127.5 -48h66q30 0 41 -15t11 -36v-114q0 -15 -12 -33.5t-40 -18.5h-69zM599 1467q-34 9 -68 9q-28 0 -46.5 -16
t-18.5 -48q0 -27 25 -51.5t79 -24.5h58v-99h-316v99h84q-14 21 -27.5 45t-13.5 56q0 53 41 94t126 41q22 0 47 -3.5t46 -8.5z" />
    <glyph glyph-name="uniFEF9" unicode="&#xfedf;&#xfe88;" horiz-adv-x="1188" arabic-form="isolated" 
d="M1040 1336v-1336h-941v217h277v770h212v-770h239v1119h213zM598 -263q-33 9 -67 9q-28 0 -47 -15.5t-19 -47.5q0 -28 25 -52.5t80 -24.5h58v-99h-316v99h84q-14 20 -27.5 45t-13.5 56q0 54 41 95t126 41q22 0 47 -3.5t46 -8.5z" />
    <glyph glyph-name="uniFEFA" unicode="&#xfee0;&#xfe88;" horiz-adv-x="1268" arabic-form="final" 
d="M1203 0q-75 0 -126.5 39t-80.5 86q-32 -63 -93.5 -94t-132.5 -31h-669v217h279v770h212v-770h169q43 0 55.5 26t12.5 70v1023h215v-948q0 -75 34.5 -123t127.5 -48h66q30 0 41 -15t11 -36v-114q0 -15 -12 -33.5t-40 -18.5h-69zM611 -263q-33 9 -67 9q-28 0 -47 -15.5
t-19 -47.5q0 -28 25.5 -52.5t79.5 -24.5h58v-99h-316v99h85q-16 20 -28.5 45t-12.5 56q0 54 41 95t125 41q22 0 47.5 -3.5t45.5 -8.5z" />
    <glyph glyph-name="uniFEFB" unicode="&#xfedf;&#xfe8e;" horiz-adv-x="1188" arabic-form="isolated" 
d="M1040 1336v-1336h-941v217h277v770h212v-770h239v1119h213z" />
    <glyph glyph-name="uniFEFC" unicode="&#xfee0;&#xfe8e;" horiz-adv-x="1268" arabic-form="final" 
d="M1203 0q-75 0 -126.5 39t-80.5 86q-32 -63 -93.5 -94t-132.5 -31h-669v217h279v770h212v-770h169q43 0 55.5 26t12.5 70v1023h215v-948q0 -75 34.5 -123t127.5 -48h66q30 0 41 -15t11 -36v-114q0 -15 -12 -33.5t-40 -18.5h-69z" />
    <glyph glyph-name="uniFE8B_uniFEE4.liga" unicode="&#xfe8b;&#xfee4;" horiz-adv-x="1721" 
d="M562 205q90 0 132 53.5t42 131.5q0 48 -15 87.5t-38.5 67.5t-55.5 43t-65 15q-35 0 -67 -15t-55 -43t-37 -67.5t-14 -87.5q0 -78 41.5 -131.5t131.5 -53.5zM1096 0q-79 0 -137.5 39t-86.5 99q-33 -52 -70.5 -82t-76.5 -44t-82.5 -17.5t-88.5 -3.5q-105 0 -175 37.5
t-115 96.5q-27 -54 -75 -89.5t-110 -35.5h-84q-28 0 -39 15t-11 33v111q0 20 12 39t38 19h73q20 0 40.5 6.5t36.5 26t25.5 54t9.5 88.5q0 89 28.5 164.5t80 130.5t122.5 87t153 32q181 0 277 -115.5t96 -325.5q0 -16 4.5 -42t21.5 -49.5t50 -40t88 -16.5h260v525h212v-742
h-477zM1619 1224q-20 6 -43 10.5t-49 4.5q-38 0 -64 -22.5t-26 -66.5q0 -38 35.5 -71.5t107.5 -33.5h81v-139h-437v139h116q-20 26 -38 61.5t-18 77.5q0 75 57 132t175 57q30 0 64 -4.5t62 -13.5z" />
    <glyph glyph-name="uniFE8B_uniFEF0.liga" unicode="&#xfe8b;&#xfef0;" horiz-adv-x="2321" 
d="M1434 0v340q0 63 -12 101t-37 58.5t-63.5 27.5t-88.5 7h-17v-394q0 -112 -37.5 -210t-116 -170.5t-199.5 -115.5t-287 -43q-151 0 -259.5 44.5t-177 115t-101.5 157.5t-33 175q0 101 34.5 186.5t88.5 164.5l176 -102q-43 -64 -62.5 -124.5t-19.5 -110.5q0 -62 24 -113
t71.5 -88.5t117.5 -59.5t159 -22q91 0 165 18t129 52.5t85 86t30 116.5v645h259q199 0 292 -95t93 -287v-143h314v525h212v-742h-739zM2220 1224q-20 6 -43.5 10.5t-49.5 4.5q-38 0 -63.5 -22.5t-25.5 -66.5q0 -38 35.5 -71.5t107.5 -33.5h81v-139h-438v139h116
q-20 26 -38 61.5t-18 77.5q0 75 57 132t175 57q30 0 64 -4.5t62 -13.5z" />
    <glyph glyph-name="uniFE8B_uniFEF2.liga" unicode="&#xfe8b;&#xfef2;" horiz-adv-x="2321" 
d="M336 -589q0 44 31.5 75t80.5 31q48 0 79.5 -31t31.5 -75q0 -47 -31.5 -78t-79.5 -31q-49 0 -80.5 31t-31.5 78zM625 -589q0 44 31.5 75t80.5 31q48 0 80 -31t32 -75q0 -47 -32 -78t-80 -31q-49 0 -80.5 31t-31.5 78zM1434 0v340q0 63 -12 101t-37 58.5t-63.5 27.5
t-88.5 7h-17v-394q0 -112 -37.5 -210t-116 -170.5t-199.5 -115.5t-287 -43q-151 0 -259.5 44.5t-177 115t-101.5 157.5t-33 175q0 101 34.5 186.5t88.5 164.5l176 -102q-43 -64 -62.5 -124.5t-19.5 -110.5q0 -62 24 -113t71.5 -88.5t117.5 -59.5t159 -22q91 0 165 18
t129 52.5t85 86t30 116.5v645h259q199 0 292 -95t93 -287v-143h314v525h212v-742h-739zM2220 1224q-20 6 -43.5 10.5t-49.5 4.5q-38 0 -63.5 -22.5t-25.5 -66.5q0 -38 35.5 -71.5t107.5 -33.5h81v-139h-438v139h116q-20 26 -38 61.5t-18 77.5q0 75 57 132t175 57
q30 0 64 -4.5t62 -13.5z" />
    <glyph glyph-name="uniFE91_uniFEE4.liga" unicode="&#xfe91;&#xfee4;" horiz-adv-x="1721" 
d="M562 205q90 0 132 53.5t42 131.5q0 48 -15 87.5t-38.5 67.5t-55.5 43t-65 15q-35 0 -67 -15t-55 -43t-37 -67.5t-14 -87.5q0 -78 41.5 -131.5t131.5 -53.5zM1096 0q-79 0 -137.5 39t-86.5 99q-33 -52 -70.5 -82t-76.5 -44t-82.5 -17.5t-88.5 -3.5q-105 0 -175 37.5
t-115 96.5q-27 -54 -75 -89.5t-110 -35.5h-84q-28 0 -39 15t-11 33v111q0 20 12 39t38 19h73q20 0 40.5 6.5t36.5 26t25.5 54t9.5 88.5q0 89 28.5 164.5t80 130.5t122.5 87t153 32q181 0 277 -115.5t96 -325.5q0 -16 4.5 -42t21.5 -49.5t50 -40t88 -16.5h260v525h212v-742
h-477zM1325 -235q0 45 33 76t81 31q47 0 79.5 -31t32.5 -76q0 -47 -32.5 -77.5t-79.5 -30.5q-48 0 -81 30.5t-33 77.5z" />
    <glyph glyph-name="uniFE92_uniFEE6.liga" unicode="&#xfe92;&#xfee6;" horiz-adv-x="1897" 
d="M452 847q0 45 32.5 77t78.5 32q49 0 81.5 -32t32.5 -77q0 -44 -32.5 -76t-81.5 -32q-46 0 -78.5 32t-32.5 76zM1202 0q-49 0 -82.5 15t-56.5 35q-14 -117 -65 -201t-124 -138t-163.5 -79.5t-183.5 -25.5q-153 0 -254.5 44t-162 114t-85.5 156.5t-25 170.5q0 90 32 185.5
t87 167.5l180 -102q-43 -64 -61.5 -127.5t-18.5 -123.5q0 -45 14.5 -92t51 -86.5t97 -65t154.5 -25.5q78 0 137.5 25t100 64t60 91t19.5 108q0 79 -31 176t-81 177l199 114q38 -73 63 -140t38 -116q17 -60 49.5 -82t111.5 -22h193q41 0 55 26t14 70v429h212v-354
q0 -75 35.5 -123t128.5 -48h66q32 0 41 -15t9 -36v-114q0 -15 -12 -33.5t-38 -18.5h-71q-82 0 -131.5 39t-75.5 86q-32 -54 -89 -89.5t-135 -35.5h-202zM1430 -235q0 45 33 76t81 31q47 0 79.5 -31t32.5 -76q0 -47 -32.5 -77.5t-79.5 -30.5q-48 0 -81 30.5t-33 77.5z" />
    <glyph glyph-name="uniFE91_uniFEF0.liga" unicode="&#xfe91;&#xfef0;" horiz-adv-x="2321" 
d="M1434 0v340q0 63 -12 101t-37 58.5t-63.5 27.5t-88.5 7h-17v-394q0 -112 -37.5 -210t-116 -170.5t-199.5 -115.5t-287 -43q-151 0 -259.5 44.5t-177 115t-101.5 157.5t-33 175q0 101 34.5 186.5t88.5 164.5l176 -102q-43 -64 -62.5 -124.5t-19.5 -110.5q0 -62 24 -113
t71.5 -88.5t117.5 -59.5t159 -22q91 0 165 18t129 52.5t85 86t30 116.5v645h259q199 0 292 -95t93 -287v-143h314v525h212v-742h-739zM1935 -235q0 45 32.5 76t80.5 31q47 0 80 -31t33 -76q0 -47 -33 -77.5t-80 -30.5q-48 0 -80.5 30.5t-32.5 77.5z" />
    <glyph glyph-name="uniFE91_uniFEF2.liga" unicode="&#xfe91;&#xfef2;" horiz-adv-x="2321" 
d="M336 -589q0 44 31.5 75t80.5 31q48 0 79.5 -31t31.5 -75q0 -47 -31.5 -78t-79.5 -31q-49 0 -80.5 31t-31.5 78zM625 -589q0 44 31.5 75t80.5 31q48 0 80 -31t32 -75q0 -47 -32 -78t-80 -31q-49 0 -80.5 31t-31.5 78zM1434 0v340q0 63 -12 101t-37 58.5t-63.5 27.5
t-88.5 7h-17v-394q0 -112 -37.5 -210t-116 -170.5t-199.5 -115.5t-287 -43q-151 0 -259.5 44.5t-177 115t-101.5 157.5t-33 175q0 101 34.5 186.5t88.5 164.5l176 -102q-43 -64 -62.5 -124.5t-19.5 -110.5q0 -62 24 -113t71.5 -88.5t117.5 -59.5t159 -22q91 0 165 18
t129 52.5t85 86t30 116.5v645h259q199 0 292 -95t93 -287v-143h314v525h212v-742h-739zM1935 -235q0 45 32.5 76t80.5 31q47 0 80 -31t33 -76q0 -47 -33 -77.5t-80 -30.5q-48 0 -80.5 30.5t-32.5 77.5z" />
    <glyph glyph-name="uniFE97_uniFEE4.liga" unicode="&#xfe97;&#xfee4;" horiz-adv-x="1721" 
d="M562 205q90 0 132 53.5t42 131.5q0 48 -15 87.5t-38.5 67.5t-55.5 43t-65 15q-35 0 -67 -15t-55 -43t-37 -67.5t-14 -87.5q0 -78 41.5 -131.5t131.5 -53.5zM1096 0q-79 0 -137.5 39t-86.5 99q-33 -52 -70.5 -82t-76.5 -44t-82.5 -17.5t-88.5 -3.5q-105 0 -175 37.5
t-115 96.5q-27 -54 -75 -89.5t-110 -35.5h-84q-28 0 -39 15t-11 33v111q0 20 12 39t38 19h73q20 0 40.5 6.5t36.5 26t25.5 54t9.5 88.5q0 89 28.5 164.5t80 130.5t122.5 87t153 32q181 0 277 -115.5t96 -325.5q0 -16 4.5 -42t21.5 -49.5t50 -40t88 -16.5h260v525h212v-742
h-477zM1165 1034q0 45 32 76.5t80 31.5t80 -31.5t32 -76.5q0 -46 -32 -77t-80 -31t-80 31t-32 77zM1456 1034q0 45 31.5 76.5t80.5 31.5t81 -31.5t32 -76.5q0 -46 -32 -77t-81 -31t-80.5 31t-31.5 77z" />
    <glyph glyph-name="uniFE98_uniFEE6.liga" unicode="&#xfe98;&#xfee6;" horiz-adv-x="1897" 
d="M452 847q0 45 32.5 77t78.5 32q49 0 81.5 -32t32.5 -77q0 -44 -32.5 -76t-81.5 -32q-46 0 -78.5 32t-32.5 76zM1202 0q-49 0 -82.5 15t-56.5 35q-14 -117 -65 -201t-124 -138t-163.5 -79.5t-183.5 -25.5q-153 0 -254.5 44t-162 114t-85.5 156.5t-25 170.5q0 90 32 185.5
t87 167.5l180 -102q-43 -64 -61.5 -127.5t-18.5 -123.5q0 -45 14.5 -92t51 -86.5t97 -65t154.5 -25.5q78 0 137.5 25t100 64t60 91t19.5 108q0 79 -31 176t-81 177l199 114q38 -73 63 -140t38 -116q17 -60 49.5 -82t111.5 -22h193q41 0 55 26t14 70v429h212v-354
q0 -75 35.5 -123t128.5 -48h66q32 0 41 -15t9 -36v-114q0 -15 -12 -33.5t-38 -18.5h-71q-82 0 -131.5 39t-75.5 86q-32 -54 -89 -89.5t-135 -35.5h-202zM1318 1034q0 45 32 76.5t80 31.5q50 0 81 -31.5t31 -76.5q0 -46 -31 -77t-81 -31q-48 0 -80 31t-32 77zM1610 1034
q0 45 32 76.5t80 31.5t80 -31.5t32 -76.5q0 -46 -32 -77t-80 -31t-80 31t-32 77z" />
    <glyph glyph-name="uniFE97_uniFEF0.liga" unicode="&#xfe97;&#xfef0;" horiz-adv-x="2321" 
d="M1434 0v340q0 63 -12 101t-37 58.5t-63.5 27.5t-88.5 7h-17v-394q0 -112 -37.5 -210t-116 -170.5t-199.5 -115.5t-287 -43q-151 0 -259.5 44.5t-177 115t-101.5 157.5t-33 175q0 101 34.5 186.5t88.5 164.5l176 -102q-43 -64 -62.5 -124.5t-19.5 -110.5q0 -62 24 -113
t71.5 -88.5t117.5 -59.5t159 -22q91 0 165 18t129 52.5t85 86t30 116.5v645h259q199 0 292 -95t93 -287v-143h314v525h212v-742h-739zM1765 1034q0 45 32 76.5t80 31.5t80 -31.5t32 -76.5q0 -46 -32 -77t-80 -31t-80 31t-32 77zM2057 1034q0 45 31.5 76.5t80.5 31.5
q48 0 80 -31.5t32 -76.5q0 -46 -32 -77t-80 -31q-49 0 -80.5 31t-31.5 77z" />
    <glyph glyph-name="uniFE97_uniFEF2.liga" unicode="&#xfe97;&#xfef2;" horiz-adv-x="2321" 
d="M336 -589q0 44 31.5 75t80.5 31q48 0 79.5 -31t31.5 -75q0 -47 -31.5 -78t-79.5 -31q-49 0 -80.5 31t-31.5 78zM625 -589q0 44 31.5 75t80.5 31q48 0 80 -31t32 -75q0 -47 -32 -78t-80 -31q-49 0 -80.5 31t-31.5 78zM1434 0v340q0 63 -12 101t-37 58.5t-63.5 27.5
t-88.5 7h-17v-394q0 -112 -37.5 -210t-116 -170.5t-199.5 -115.5t-287 -43q-151 0 -259.5 44.5t-177 115t-101.5 157.5t-33 175q0 101 34.5 186.5t88.5 164.5l176 -102q-43 -64 -62.5 -124.5t-19.5 -110.5q0 -62 24 -113t71.5 -88.5t117.5 -59.5t159 -22q91 0 165 18
t129 52.5t85 86t30 116.5v645h259q199 0 292 -95t93 -287v-143h314v525h212v-742h-739zM1765 1034q0 45 32 76.5t80 31.5t80 -31.5t32 -76.5q0 -46 -32 -77t-80 -31t-80 31t-32 77zM2057 1034q0 45 31.5 76.5t80.5 31.5q48 0 80 -31.5t32 -76.5q0 -46 -32 -77t-80 -31
q-49 0 -80.5 31t-31.5 77z" />
    <glyph glyph-name="uniFE9C_uniFEAE.liga" unicode="&#xfe9c;&#xfeae;" horiz-adv-x="1416" 
d="M726 0q-54 0 -99 24t-73 56v-50q0 -84 -22 -157t-67.5 -127t-110.5 -85t-150 -31q-34 0 -65 3t-53 7q-15 2 -27 4t-24 5l23 213l52 -11q22 -4 47.5 -7t46.5 -3q82 0 109.5 52.5t27.5 152.5v696h213v-354q0 -75 34.5 -123t131.5 -48h190q41 0 55 26t14 70v429h212v-354
q0 -75 35.5 -123t128.5 -48h66q32 0 41 -15t9 -36v-114q0 -15 -12 -33.5t-38 -18.5h-71q-82 0 -131.5 39t-75.5 86q-32 -54 -89 -89.5t-135 -35.5h-193zM967 1275q0 44 33 75t81 31q46 0 80 -31t34 -75q0 -47 -34 -78t-80 -31q-48 0 -81 31t-33 78zM823 1034q0 45 32 76.5
t80 31.5q49 0 80.5 -31.5t31.5 -76.5q0 -46 -31.5 -77t-80.5 -31q-48 0 -80 31t-32 77zM1115 1034q0 45 31.5 76.5t80.5 31.5q48 0 80 -31.5t32 -76.5q0 -46 -32 -77t-80 -31q-49 0 -80.5 31t-31.5 77z" />
    <glyph glyph-name="uniFE9B_uniFEE4.liga" unicode="&#xfe9b;&#xfee4;" horiz-adv-x="1721" 
d="M562 205q90 0 132 53.5t42 131.5q0 48 -15 87.5t-38.5 67.5t-55.5 43t-65 15q-35 0 -67 -15t-55 -43t-37 -67.5t-14 -87.5q0 -78 41.5 -131.5t131.5 -53.5zM1096 0q-79 0 -137.5 39t-86.5 99q-33 -52 -70.5 -82t-76.5 -44t-82.5 -17.5t-88.5 -3.5q-105 0 -175 37.5
t-115 96.5q-27 -54 -75 -89.5t-110 -35.5h-84q-28 0 -39 15t-11 33v111q0 20 12 39t38 19h73q20 0 40.5 6.5t36.5 26t25.5 54t9.5 88.5q0 89 28.5 164.5t80 130.5t122.5 87t153 32q181 0 277 -115.5t96 -325.5q0 -16 4.5 -42t21.5 -49.5t50 -40t88 -16.5h260v525h212v-742
h-477zM1309 1275q0 44 32.5 75t81.5 31q46 0 80 -31t34 -75q0 -47 -34 -78t-80 -31q-49 0 -81.5 31t-32.5 78zM1165 1034q0 45 32 76.5t80 31.5t80 -31.5t32 -76.5q0 -46 -32 -77t-80 -31t-80 31t-32 77zM1456 1034q0 45 31.5 76.5t80.5 31.5t81 -31.5t32 -76.5
q0 -46 -32 -77t-81 -31t-80.5 31t-31.5 77z" />
    <glyph glyph-name="uniFE9C_uniFEE6.liga" unicode="&#xfe9c;&#xfee6;" horiz-adv-x="1897" 
d="M452 847q0 45 32.5 77t78.5 32q49 0 81.5 -32t32.5 -77q0 -44 -32.5 -76t-81.5 -32q-46 0 -78.5 32t-32.5 76zM1202 0q-49 0 -82.5 15t-56.5 35q-14 -117 -65 -201t-124 -138t-163.5 -79.5t-183.5 -25.5q-153 0 -254.5 44t-162 114t-85.5 156.5t-25 170.5q0 90 32 185.5
t87 167.5l180 -102q-43 -64 -61.5 -127.5t-18.5 -123.5q0 -45 14.5 -92t51 -86.5t97 -65t154.5 -25.5q78 0 137.5 25t100 64t60 91t19.5 108q0 79 -31 176t-81 177l199 114q38 -73 63 -140t38 -116q17 -60 49.5 -82t111.5 -22h193q41 0 55 26t14 70v429h212v-354
q0 -75 35.5 -123t128.5 -48h66q32 0 41 -15t9 -36v-114q0 -15 -12 -33.5t-38 -18.5h-71q-82 0 -131.5 39t-75.5 86q-32 -54 -89 -89.5t-135 -35.5h-202zM1462 1275q0 44 33 75t81 31q47 0 80.5 -31t33.5 -75q0 -47 -33.5 -78t-80.5 -31q-48 0 -81 31t-33 78zM1318 1034
q0 45 32 76.5t80 31.5q50 0 81 -31.5t31 -76.5q0 -46 -31 -77t-81 -31q-48 0 -80 31t-32 77zM1610 1034q0 45 32 76.5t80 31.5t80 -31.5t32 -76.5q0 -46 -32 -77t-80 -31t-80 31t-32 77z" />
    <glyph glyph-name="uniFE9B_uniFEF0.liga" unicode="&#xfe9b;&#xfef0;" horiz-adv-x="2321" 
d="M1434 0v340q0 63 -12 101t-37 58.5t-63.5 27.5t-88.5 7h-17v-394q0 -112 -37.5 -210t-116 -170.5t-199.5 -115.5t-287 -43q-151 0 -259.5 44.5t-177 115t-101.5 157.5t-33 175q0 101 34.5 186.5t88.5 164.5l176 -102q-43 -64 -62.5 -124.5t-19.5 -110.5q0 -62 24 -113
t71.5 -88.5t117.5 -59.5t159 -22q91 0 165 18t129 52.5t85 86t30 116.5v645h259q199 0 292 -95t93 -287v-143h314v525h212v-742h-739zM1909 1275q0 44 33 75t81 31q46 0 80 -31t34 -75q0 -47 -34 -78t-80 -31q-48 0 -81 31t-33 78zM1765 1034q0 45 32 76.5t80 31.5t80 -31.5
t32 -76.5q0 -46 -32 -77t-80 -31t-80 31t-32 77zM2057 1034q0 45 31.5 76.5t80.5 31.5q48 0 80 -31.5t32 -76.5q0 -46 -32 -77t-80 -31q-49 0 -80.5 31t-31.5 77z" />
    <glyph glyph-name="uniFE9B_uniFEF2.liga" unicode="&#xfe9b;&#xfef2;" horiz-adv-x="2321" 
d="M336 -589q0 44 31.5 75t80.5 31q48 0 79.5 -31t31.5 -75q0 -47 -31.5 -78t-79.5 -31q-49 0 -80.5 31t-31.5 78zM625 -589q0 44 31.5 75t80.5 31q48 0 80 -31t32 -75q0 -47 -32 -78t-80 -31q-49 0 -80.5 31t-31.5 78zM1434 0v340q0 63 -12 101t-37 58.5t-63.5 27.5
t-88.5 7h-17v-394q0 -112 -37.5 -210t-116 -170.5t-199.5 -115.5t-287 -43q-151 0 -259.5 44.5t-177 115t-101.5 157.5t-33 175q0 101 34.5 186.5t88.5 164.5l176 -102q-43 -64 -62.5 -124.5t-19.5 -110.5q0 -62 24 -113t71.5 -88.5t117.5 -59.5t159 -22q91 0 165 18
t129 52.5t85 86t30 116.5v645h259q199 0 292 -95t93 -287v-143h314v525h212v-742h-739zM1909 1275q0 44 33 75t81 31q46 0 80 -31t34 -75q0 -47 -34 -78t-80 -31q-48 0 -81 31t-33 78zM1765 1034q0 45 32 76.5t80 31.5t80 -31.5t32 -76.5q0 -46 -32 -77t-80 -31t-80 31
t-32 77zM2057 1034q0 45 31.5 76.5t80.5 31.5q48 0 80 -31.5t32 -76.5q0 -46 -32 -77t-80 -31q-49 0 -80.5 31t-31.5 77z" />
    <glyph glyph-name="uniFEDB_uniFEF0.liga" unicode="&#xfedb;&#xfef0;" horiz-adv-x="2625" 
d="M1434 0v340q0 63 -12 101t-37 58.5t-63.5 27.5t-88.5 7h-17v-394q0 -112 -37.5 -210t-116 -170.5t-199.5 -115.5t-287 -43q-151 0 -259.5 44.5t-177 115t-101.5 157.5t-33 175q0 101 34.5 186.5t88.5 164.5l176 -102q-43 -64 -62.5 -124.5t-19.5 -110.5q0 -62 24 -113
t71.5 -88.5t117.5 -59.5t159 -22q91 0 165 18t129 52.5t85 86t30 116.5v645h259q199 0 292 -95t93 -287v-143h616v177q0 67 -17.5 105.5t-47 58t-69.5 24t-86 4.5h-225v188l362 575l175 -117l-286 -439h20q73 0 144 -16.5t124.5 -60t86.5 -118t33 -187.5v-411h-1043z" />
    <glyph glyph-name="uniFEDC_uniFEF0.liga" unicode="&#xfedc;&#xfef0;" horiz-adv-x="2696" 
d="M1434 0v340q0 63 -12 101t-37 58.5t-63.5 27.5t-88.5 7h-17v-394q0 -112 -37.5 -210t-116 -170.5t-199.5 -115.5t-287 -43q-151 0 -259.5 44.5t-177 115t-101.5 157.5t-33 175q0 101 34.5 186.5t88.5 164.5l176 -102q-43 -64 -62.5 -124.5t-19.5 -110.5q0 -62 24 -113
t71.5 -88.5t117.5 -59.5t159 -22q91 0 165 18t129 52.5t85 86t30 116.5v645h259q199 0 292 -95t93 -287v-143h540q45 0 59 24t14 69q0 80 -5.5 133.5t-28 84.5t-65.5 44.5t-118 13.5h-235v188l363 575l174 -117l-285 -439h24q87 0 157.5 -20t122 -64.5t79 -117.5t27.5 -180
q2 -107 43.5 -150.5t125.5 -43.5h69q26 0 37 -15t11 -36v-114q0 -15 -12 -33.5t-36 -18.5h-75q-83 0 -130 37.5t-74 83.5q-31 -55 -93 -88t-135 -33h-767z" />
    <glyph glyph-name="uniFEDB_uniFEF2.liga" unicode="&#xfedb;&#xfef2;" horiz-adv-x="2625" 
d="M336 -589q0 44 31.5 75t80.5 31q48 0 79.5 -31t31.5 -75q0 -47 -31.5 -78t-79.5 -31q-49 0 -80.5 31t-31.5 78zM625 -589q0 44 31.5 75t80.5 31q48 0 80 -31t32 -75q0 -47 -32 -78t-80 -31q-49 0 -80.5 31t-31.5 78zM1434 0v340q0 63 -12 101t-37 58.5t-63.5 27.5
t-88.5 7h-17v-394q0 -112 -37.5 -210t-116 -170.5t-199.5 -115.5t-287 -43q-151 0 -259.5 44.5t-177 115t-101.5 157.5t-33 175q0 101 34.5 186.5t88.5 164.5l176 -102q-43 -64 -62.5 -124.5t-19.5 -110.5q0 -62 24 -113t71.5 -88.5t117.5 -59.5t159 -22q91 0 165 18
t129 52.5t85 86t30 116.5v645h259q199 0 292 -95t93 -287v-143h616v177q0 67 -17.5 105.5t-47 58t-69.5 24t-86 4.5h-225v188l362 575l175 -117l-286 -439h20q73 0 144 -16.5t124.5 -60t86.5 -118t33 -187.5v-411h-1043z" />
    <glyph glyph-name="uniFEDC_uniFEF2.liga" unicode="&#xfedc;&#xfef2;" horiz-adv-x="2696" 
d="M336 -589q0 44 31.5 75t80.5 31q48 0 79.5 -31t31.5 -75q0 -47 -31.5 -78t-79.5 -31q-49 0 -80.5 31t-31.5 78zM625 -589q0 44 31.5 75t80.5 31q48 0 80 -31t32 -75q0 -47 -32 -78t-80 -31q-49 0 -80.5 31t-31.5 78zM1434 0v340q0 63 -12 101t-37 58.5t-63.5 27.5
t-88.5 7h-17v-394q0 -112 -37.5 -210t-116 -170.5t-199.5 -115.5t-287 -43q-151 0 -259.5 44.5t-177 115t-101.5 157.5t-33 175q0 101 34.5 186.5t88.5 164.5l176 -102q-43 -64 -62.5 -124.5t-19.5 -110.5q0 -62 24 -113t71.5 -88.5t117.5 -59.5t159 -22q91 0 165 18
t129 52.5t85 86t30 116.5v645h259q199 0 292 -95t93 -287v-143h540q45 0 59 24t14 69q0 80 -5.5 133.5t-28 84.5t-65.5 44.5t-118 13.5h-235v188l363 575l174 -117l-285 -439h24q87 0 157.5 -20t122 -64.5t79 -117.5t27.5 -180q2 -107 43.5 -150.5t125.5 -43.5h69
q26 0 37 -15t11 -36v-114q0 -15 -12 -33.5t-36 -18.5h-75q-83 0 -130 37.5t-74 83.5q-31 -55 -93 -88t-135 -33h-767z" />
    <glyph glyph-name="uniFEDF_uniFB51.rlig" unicode="&#xfedf;&#xfb51;" horiz-adv-x="1188" 
d="M262 1244h97v111h80q23 26 53 41.5t61 15.5q62 0 100 -40t38 -99v-112h-429v83zM607 1257q0 36 -16.5 53.5t-43.5 17.5q-30 0 -56 -23t-38 -61h154v13zM1040 1336v-1336h-941v217h277v770h212v-770h239v1119h213z" />
    <glyph glyph-name="uniFEE0_uniFB51.rlig" unicode="&#xfee0;&#xfb51;" horiz-adv-x="1268" 
d="M262 1243h97v110h80q23 25 53 41t61 16q62 0 100 -40t38 -99v-112h-429v84zM608 1255q0 36 -17 53.5t-43 17.5q-31 0 -56.5 -23t-38.5 -60h155v12zM1203 0q-75 0 -126.5 39t-80.5 86q-32 -63 -93.5 -94t-132.5 -31h-669v217h279v770h212v-770h169q43 0 55.5 26t12.5 70
v1023h215v-948q0 -75 34.5 -123t127.5 -48h66q30 0 41 -15t11 -36v-114q0 -15 -12 -33.5t-40 -18.5h-69z" />
    <glyph glyph-name="uniFEDF_uniFEE2.liga" unicode="&#xfedf;&#xfee2;" horiz-adv-x="1911" 
d="M783 620q-39 0 -72.5 -12.5t-58.5 -40.5t-40 -72.5t-15 -110.5v-164h176q108 0 146 48.5t38 144.5t-45 151.5t-129 55.5zM1332 0q-78 0 -140.5 43.5t-96.5 104.5q-56 -79 -146.5 -113.5t-207.5 -34.5h-411q-59 0 -88.5 -34.5t-29.5 -129.5v-459h-212v511q0 164 88 248
t227 84h68v183q0 80 26.5 157.5t77.5 137t124.5 96t166.5 36.5q91 0 164 -30.5t124.5 -85t78.5 -131t27 -165.5v-53q0 -14 3.5 -39t20.5 -50t49.5 -42t88.5 -17h218v1119h211v-1336h-431z" />
    <glyph glyph-name="uniFEE4_uniFE8E.liga" unicode="&#xfee4;&#xfe8e;" horiz-adv-x="1596" 
d="M998 205q89 0 131 53.5t42 131.5q0 48 -14.5 87.5t-38 67.5t-55 43t-65.5 15q-35 0 -67 -15t-55.5 -43t-37.5 -67.5t-14 -87.5q0 -78 42.5 -131.5t131.5 -53.5zM139 0v1336h212v-1119h152q21 0 41.5 6.5t36.5 26t25 54t9 88.5q0 89 29.5 164.5t80.5 130.5t122 87t153 32
q181 0 277 -115.5t96 -325.5q0 -16 5 -42t21.5 -49.5t49 -40t88.5 -16.5h67q28 0 40.5 -15t12.5 -36v-114q0 -15 -13.5 -33.5t-39.5 -18.5h-72q-78 0 -137 39t-87 99q-34 -52 -71.5 -82t-76.5 -44t-82 -17.5t-87 -3.5q-107 0 -177 37.5t-115 96.5q-25 -54 -74 -89.5
t-111 -35.5h-375z" />
    <glyph glyph-name="uniFEE4_uniFE82.liga" unicode="&#xfee4;&#xfe82;" horiz-adv-x="1604" 
d="M1007 205q90 0 132 53.5t42 131.5q0 48 -15 87.5t-38.5 67.5t-55 43t-65.5 15q-35 0 -67 -15t-55 -43t-37.5 -67.5t-14.5 -87.5q0 -78 42.5 -131.5t131.5 -53.5zM148 0v1336h213v-1119h152q21 0 41.5 6.5t36.5 26t25 54t9 88.5q0 89 29 164.5t80 130.5t122 87t153 32
q182 0 278 -115.5t96 -325.5q0 -16 4.5 -42t21.5 -49.5t49 -40t89 -16.5h66q29 0 41 -15t12 -36v-114q0 -15 -13 -33.5t-40 -18.5h-72q-78 0 -137 39t-87 99q-33 -52 -70.5 -82t-77 -44t-82 -17.5t-87.5 -3.5q-106 0 -176.5 37.5t-114.5 96.5q-26 -54 -74.5 -89.5
t-110.5 -35.5h-376zM-91 1584q48 56 94 75.5t91 19.5q27 0 70.5 -16t89.5 -36q49 -21 94.5 -38.5t82.5 -17.5q41 0 65.5 28t37.5 62l89 -41q-35 -87 -78 -121t-121 -34q-43 0 -85 15.5t-85 36.5t-84 36.5t-85 15.5q-27 0 -55 -14t-54 -36z" />
    <glyph glyph-name="uniFEE4_uniFE84.liga" unicode="&#xfee4;&#xfe84;" horiz-adv-x="1605" 
d="M1008 205q90 0 131.5 53.5t41.5 131.5q0 48 -14.5 87.5t-38 67.5t-55 43t-65.5 15q-35 0 -67 -15t-55 -43t-37.5 -67.5t-14.5 -87.5q0 -78 42.5 -131.5t131.5 -53.5zM365 1722q-33 10 -66 10q-29 0 -47.5 -16t-18.5 -48q0 -28 25 -52t80 -24h57v-100h-315v100h84
q-15 20 -28 44.5t-13 56.5q0 53 41 94t125 41q22 0 47.5 -3.5t45.5 -8.5zM140 0v1336h212v-1119h162q21 0 41.5 6.5t36 26t25 54t9.5 88.5q0 89 29 164.5t80 130.5t122 87t153 32q181 0 277.5 -115.5t96.5 -325.5q0 -16 4.5 -42t21.5 -49.5t49 -40t89 -16.5h66
q28 0 40.5 -15t12.5 -36v-114q0 -15 -13 -33.5t-40 -18.5h-72q-78 0 -137 39t-87 99q-34 -52 -71 -82t-76.5 -44t-82 -17.5t-87.5 -3.5q-107 0 -177 37.5t-114 96.5q-26 -54 -74.5 -89.5t-110.5 -35.5h-385z" />
    <glyph glyph-name="uniFEE4_uniFE88.liga" unicode="&#xfee4;&#xfe88;" horiz-adv-x="1599" 
d="M360 -263q-34 9 -66 9q-29 0 -47.5 -15.5t-18.5 -47.5q0 -28 25 -52.5t80 -24.5h57v-99h-315v99h84q-15 20 -28 45t-13 56q0 54 41 95t125 41q22 0 47.5 -3.5t45.5 -8.5zM1007 205q89 0 131 53.5t42 131.5q0 48 -14.5 87.5t-38 67.5t-55 43t-65.5 15q-36 0 -67.5 -15
t-55 -43t-37.5 -67.5t-14 -87.5q0 -78 42.5 -131.5t131.5 -53.5zM139 0v1336h212v-1119h161q21 0 41.5 6.5t36.5 26t25 54t9 88.5q0 89 29.5 164.5t80.5 130.5t122 87t153 32q181 0 277 -115.5t96 -325.5q0 -16 4.5 -42t21.5 -49.5t49.5 -40t88.5 -16.5h67q28 0 40.5 -15
t12.5 -36v-114q0 -15 -13.5 -33.5t-39.5 -18.5h-72q-78 0 -137 39t-87 99q-34 -52 -71.5 -82t-76.5 -44t-82 -17.5t-87 -3.5q-107 0 -177 37.5t-115 96.5q-25 -54 -74 -89.5t-111 -35.5h-384z" />
    <glyph glyph-name="uniFEE8_uniFEAE.liga" unicode="&#xfee8;&#xfeae;" horiz-adv-x="1416" 
d="M726 0q-54 0 -99 24t-73 56v-50q0 -84 -22 -157t-67.5 -127t-110.5 -85t-150 -31q-34 0 -65 3t-53 7q-15 2 -27 4t-24 5l23 213l52 -11q22 -4 47.5 -7t46.5 -3q82 0 109.5 52.5t27.5 152.5v696h213v-354q0 -75 34.5 -123t131.5 -48h190q41 0 55 26t14 70v429h212v-354
q0 -75 35.5 -123t128.5 -48h66q32 0 41 -15t9 -36v-114q0 -15 -12 -33.5t-38 -18.5h-71q-82 0 -131.5 39t-75.5 86q-32 -54 -89 -89.5t-135 -35.5h-193zM969 1034q0 45 32 76.5t80 31.5t80 -31.5t32 -76.5q0 -46 -32 -77t-80 -31t-80 31t-32 77z" />
    <glyph glyph-name="uniFEE7_uniFEE4.liga" unicode="&#xfee7;&#xfee4;" horiz-adv-x="1721" 
d="M562 205q90 0 132 53.5t42 131.5q0 48 -15 87.5t-38.5 67.5t-55.5 43t-65 15q-35 0 -67 -15t-55 -43t-37 -67.5t-14 -87.5q0 -78 41.5 -131.5t131.5 -53.5zM1096 0q-79 0 -137.5 39t-86.5 99q-33 -52 -70.5 -82t-76.5 -44t-82.5 -17.5t-88.5 -3.5q-105 0 -175 37.5
t-115 96.5q-27 -54 -75 -89.5t-110 -35.5h-84q-28 0 -39 15t-11 33v111q0 20 12 39t38 19h73q20 0 40.5 6.5t36.5 26t25.5 54t9.5 88.5q0 89 28.5 164.5t80 130.5t122.5 87t153 32q181 0 277 -115.5t96 -325.5q0 -16 4.5 -42t21.5 -49.5t50 -40t88 -16.5h260v525h212v-742
h-477zM1356 1034q0 45 31.5 76.5t80.5 31.5t80.5 -31.5t31.5 -76.5q0 -46 -31.5 -77t-80.5 -31t-80.5 31t-31.5 77z" />
    <glyph glyph-name="uniFEE7_uniFEF0.liga" unicode="&#xfee7;&#xfef0;" horiz-adv-x="2321" 
d="M1434 0v340q0 63 -12 101t-37 58.5t-63.5 27.5t-88.5 7h-17v-394q0 -112 -37.5 -210t-116 -170.5t-199.5 -115.5t-287 -43q-151 0 -259.5 44.5t-177 115t-101.5 157.5t-33 175q0 101 34.5 186.5t88.5 164.5l176 -102q-43 -64 -62.5 -124.5t-19.5 -110.5q0 -62 24 -113
t71.5 -88.5t117.5 -59.5t159 -22q91 0 165 18t129 52.5t85 86t30 116.5v645h259q199 0 292 -95t93 -287v-143h314v525h212v-742h-739zM1947 1034q0 45 31.5 76.5t80.5 31.5t80.5 -31.5t31.5 -76.5q0 -46 -31.5 -77t-80.5 -31t-80.5 31t-31.5 77z" />
    <glyph glyph-name="uniFEE7_uniFEF2.liga" unicode="&#xfee7;&#xfef2;" horiz-adv-x="2321" 
d="M336 -589q0 44 31.5 75t80.5 31q48 0 79.5 -31t31.5 -75q0 -47 -31.5 -78t-79.5 -31q-49 0 -80.5 31t-31.5 78zM625 -589q0 44 31.5 75t80.5 31q48 0 80 -31t32 -75q0 -47 -32 -78t-80 -31q-49 0 -80.5 31t-31.5 78zM1434 0v340q0 63 -12 101t-37 58.5t-63.5 27.5
t-88.5 7h-17v-394q0 -112 -37.5 -210t-116 -170.5t-199.5 -115.5t-287 -43q-151 0 -259.5 44.5t-177 115t-101.5 157.5t-33 175q0 101 34.5 186.5t88.5 164.5l176 -102q-43 -64 -62.5 -124.5t-19.5 -110.5q0 -62 24 -113t71.5 -88.5t117.5 -59.5t159 -22q91 0 165 18
t129 52.5t85 86t30 116.5v645h259q199 0 292 -95t93 -287v-143h314v525h212v-742h-739zM1947 1034q0 45 31.5 76.5t80.5 31.5t80.5 -31.5t31.5 -76.5q0 -46 -31.5 -77t-80.5 -31t-80.5 31t-31.5 77z" />
    <glyph glyph-name="uniFEF4_uniFEAE.liga" unicode="&#xfef4;&#xfeae;" horiz-adv-x="1416" 
d="M726 0q-54 0 -99 24t-73 56v-50q0 -84 -22 -157t-67.5 -127t-110.5 -85t-150 -31q-34 0 -65 3t-53 7q-15 2 -27 4t-24 5l23 213l52 -11q22 -4 47.5 -7t46.5 -3q82 0 109.5 52.5t27.5 152.5v696h213v-354q0 -75 34.5 -123t131.5 -48h190q41 0 55 26t14 70v429h212v-354
q0 -75 35.5 -123t128.5 -48h66q32 0 41 -15t9 -36v-114q0 -15 -12 -33.5t-38 -18.5h-71q-82 0 -131.5 39t-75.5 86q-32 -54 -89 -89.5t-135 -35.5h-193zM810 -235q0 45 31.5 76t80.5 31t80.5 -31t31.5 -76q0 -47 -31.5 -77.5t-80.5 -30.5t-80.5 30.5t-31.5 77.5zM1099 -235
q0 45 32 76t80 31t80 -31t32 -76q0 -47 -32 -77.5t-80 -30.5t-80 30.5t-32 77.5z" />
    <glyph glyph-name="uniFEF3_uniFEE4.liga" unicode="&#xfef3;&#xfee4;" horiz-adv-x="1771" 
d="M562 205q90 0 132 53.5t42 131.5q0 48 -15 87.5t-38.5 67.5t-55.5 43t-65 15q-35 0 -67 -15t-55 -43t-37 -67.5t-14 -87.5q0 -78 41.5 -131.5t131.5 -53.5zM1096 0q-79 0 -137.5 39t-86.5 99q-33 -52 -70.5 -82t-76.5 -44t-82.5 -17.5t-88.5 -3.5q-105 0 -175 37.5
t-115 96.5q-27 -54 -75 -89.5t-110 -35.5h-84q-28 0 -39 15t-11 33v111q0 20 12 39t38 19h73q20 0 40.5 6.5t36.5 26t25.5 54t9.5 88.5q0 89 28.5 164.5t80 130.5t122.5 87t153 32q181 0 277 -115.5t96 -325.5q0 -16 4.5 -42t21.5 -49.5t50 -40t88 -16.5h310v525h212v-742
h-527zM1102 -235q0 45 31.5 76t80.5 31q48 0 79.5 -31t31.5 -76q0 -47 -31.5 -77.5t-79.5 -30.5q-49 0 -80.5 30.5t-31.5 77.5zM1391 -235q0 45 32 76t80 31t80 -31t32 -76q0 -47 -32 -77.5t-80 -30.5t-80 30.5t-32 77.5z" />
    <glyph glyph-name="uniFEF4_uniFEE6.liga" unicode="&#xfef4;&#xfee6;" horiz-adv-x="1897" 
d="M452 847q0 45 32.5 77t78.5 32q49 0 81.5 -32t32.5 -77q0 -44 -32.5 -76t-81.5 -32q-46 0 -78.5 32t-32.5 76zM1202 0q-49 0 -82.5 15t-56.5 35q-14 -117 -65 -201t-124 -138t-163.5 -79.5t-183.5 -25.5q-153 0 -254.5 44t-162 114t-85.5 156.5t-25 170.5q0 90 32 185.5
t87 167.5l180 -102q-43 -64 -61.5 -127.5t-18.5 -123.5q0 -45 14.5 -92t51 -86.5t97 -65t154.5 -25.5q78 0 137.5 25t100 64t60 91t19.5 108q0 79 -31 176t-81 177l199 114q38 -73 63 -140t38 -116q17 -60 49.5 -82t111.5 -22h193q41 0 55 26t14 70v429h212v-354
q0 -75 35.5 -123t128.5 -48h66q32 0 41 -15t9 -36v-114q0 -15 -12 -33.5t-38 -18.5h-71q-82 0 -131.5 39t-75.5 86q-32 -54 -89 -89.5t-135 -35.5h-202zM1285 -235q0 45 31.5 76t81.5 31q48 0 80 -31t32 -76q0 -47 -32 -77.5t-80 -30.5q-50 0 -81.5 30.5t-31.5 77.5z
M1574 -235q0 45 32 76t80 31q49 0 80.5 -31t31.5 -76q0 -47 -31.5 -77.5t-80.5 -30.5q-48 0 -80 30.5t-32 77.5z" />
    <glyph glyph-name="T_h.liga" unicode="Th" horiz-adv-x="1957" 
d="M1243 1321v-550h3q27 55 92 101t172 46q89 0 151.5 -30t101.5 -78t56 -112t17 -132v-566h-224v454q0 37 -4 82.5t-19.5 85.5t-49 67t-91.5 27q-56 0 -94 -18.5t-63.5 -50t-36.5 -72.5t-11 -86v-489h-224v1109h-367v-1109h-236v1109h-404v212h1231z" />
    <glyph glyph-name="f_b.liga" unicode="fb" horiz-adv-x="1847" 
d="M206 705h-185v191h185v126q0 94 12.5 169.5t49 129.5t102.5 83t169 29q38 0 74.5 -2.5t67.5 -10.5l-14 -190q-25 5 -47 9t-47 4q-46 0 -74 -15t-44 -40.5t-20.5 -59t-4.5 -70.5v-162h207v-191h-207v-705h-224v705zM791 1410h224v-628h5q17 22 43.5 45.5t63.5 44
t86.5 33.5t111.5 13q94 0 174.5 -36.5t137.5 -100t88.5 -149t31.5 -184.5t-30 -184.5t-87.5 -149.5t-139.5 -100.5t-185 -36.5q-95 0 -177 36.5t-130 120.5h-5v-134h-212v1410zM1533 448q0 52 -17.5 100.5t-52 85.5t-83 59.5t-110.5 22.5q-61 0 -109.5 -22.5t-83.5 -59.5
t-52 -85.5t-17 -100.5q0 -53 17 -101t52 -85.5t83.5 -60t109.5 -22.5q62 0 110.5 22.5t83 60t52 85.5t17.5 101z" />
    <glyph glyph-name="f_f_b.liga" unicode="ffb" horiz-adv-x="2446" 
d="M2135 448q0 52 -18 100.5t-52.5 85.5t-83 59.5t-110.5 22.5q-61 0 -109.5 -22.5t-83 -59.5t-52 -85.5t-17.5 -100.5q0 -53 17.5 -101t52 -85.5t83 -60t109.5 -22.5q62 0 110.5 22.5t83 60t52.5 85.5t18 101zM430 705v-705h-224v705h-185v191h185v126q0 94 12.5 169.5
t49 129.5t102.5 83t169 29q38 0 74.5 -2.5t67.5 -10.5l-14 -190q-25 5 -47 9t-47 4q-46 0 -74 -15t-44 -40.5t-20.5 -59t-4.5 -70.5v-162h377v126q0 94 13 169.5t49.5 129.5t102 83t169.5 29q37 0 73.5 -2.5t68.5 -10.5l-15 -190q-24 5 -46.5 9t-47.5 4q-46 0 -74 -15
t-44 -40.5t-20.5 -59t-4.5 -70.5v-162h207v-191h-207v-705h-224v705h-377zM1392 1410h224v-628h6q16 22 42.5 45.5t64 44t86.5 33.5t111 13q95 0 175 -36.5t137 -100t89 -149t32 -184.5t-30 -184.5t-88 -149.5t-140 -100.5t-185 -36.5q-95 0 -177 36.5t-130 120.5h-5v-134
h-212v1410z" />
    <glyph glyph-name="f_f.liga" unicode="ff" horiz-adv-x="1252" 
d="M430 705v-705h-224v705h-185v191h185v126q0 94 12.5 169.5t49 129.5t102.5 83t169 29q38 0 74.5 -2.5t67.5 -10.5l-14 -190q-25 5 -47 9t-47 4q-46 0 -74 -15t-44 -40.5t-20.5 -59t-4.5 -70.5v-162h377v126q0 94 13 169.5t49.5 129.5t102 83t169.5 29q37 0 73.5 -2.5
t68.5 -10.5l-15 -190q-24 5 -46.5 9t-47.5 4q-46 0 -74 -15t-44 -40.5t-20.5 -59t-4.5 -70.5v-162h207v-191h-207v-705h-224v705h-377z" />
    <glyph glyph-name="f_h.liga" unicode="fh" horiz-adv-x="1723" 
d="M206 705h-185v191h185v126q0 94 12.5 169.5t49 129.5t102.5 83t169 29q38 0 74.5 -2.5t67.5 -10.5l-14 -190q-25 5 -47 9t-47 4q-46 0 -74 -15t-44 -40.5t-20.5 -59t-4.5 -70.5v-162h207v-191h-207v-705h-224v705zM1006 771h3q27 55 92 101t172 46q89 0 151.5 -30
t101.5 -78t56 -112t17 -132v-566h-224v454q0 37 -3.5 82.5t-19.5 85.5t-49.5 67t-91.5 27q-56 0 -94 -18.5t-63.5 -50t-36.5 -72.5t-11 -86v-489h-224v1410h224v-639z" />
    <glyph glyph-name="f_f_h.liga" unicode="ffh" horiz-adv-x="2335" 
d="M430 705v-705h-224v705h-185v191h185v126q0 94 12.5 169.5t49 129.5t102.5 83t169 29q38 0 74.5 -2.5t67.5 -10.5l-14 -190q-25 5 -47 9t-47 4q-46 0 -74 -15t-44 -40.5t-20.5 -59t-4.5 -70.5v-162h377v126q0 94 13 169.5t49.5 129.5t102 83t169.5 29q37 0 73.5 -2.5
t68.5 -10.5l-15 -190q-24 5 -46.5 9t-47.5 4q-46 0 -74 -15t-44 -40.5t-20.5 -59t-4.5 -70.5v-162h207v-191h-207v-705h-224v705h-377zM1607 771h4q26 55 91 101t172 46q89 0 151.5 -30t101.5 -78t56 -112t17 -132v-566h-224v454q0 37 -3.5 82.5t-19.5 85.5t-49.5 67
t-91.5 27q-55 0 -93.5 -18.5t-64 -50t-36.5 -72.5t-11 -86v-489h-224v1410h224v-639z" />
    <glyph glyph-name="f_f_i.liga" unicode="ffi" horiz-adv-x="1710" 
d="M430 705v-705h-224v705h-185v191h185v126q0 94 12.5 169.5t49 129.5t102.5 83t169 29q38 0 74.5 -2.5t67.5 -10.5l-14 -190q-25 5 -47 9t-47 4q-46 0 -74 -15t-44 -40.5t-20.5 -59t-4.5 -70.5v-162h377v126q0 94 13 169.5t49.5 129.5t102 83t169.5 29q37 0 73.5 -2.5
t68.5 -10.5l-15 -190q-24 5 -46.5 9t-47.5 4q-46 0 -74 -15t-44 -40.5t-20.5 -59t-4.5 -70.5v-162h207v-191h-207v-705h-224v705h-377zM1384 896h223v-896h-223v896zM1354 1200q0 54 40 94t101 40q62 0 104 -38.5t42 -95.5q0 -58 -42 -96.5t-104 -38.5q-61 0 -101 40t-40 95
z" />
    <glyph glyph-name="f_j.liga" unicode="fj" horiz-adv-x="1105" 
d="M206 705h-185v191h185v126q0 94 12.5 169.5t49 129.5t102.5 83t169 29q38 0 74.5 -2.5t67.5 -10.5l-14 -190q-25 5 -47 9t-47 4q-46 0 -74 -15t-44 -40.5t-20.5 -59t-4.5 -70.5v-162h207v-191h-207v-705h-224v705zM753 1200q0 54 40 94t101 40q62 0 104 -38.5t42 -95.5
q0 -58 -42 -96.5t-104 -38.5q-61 0 -101 40t-40 95zM1010 896v-950q0 -84 -11 -156t-43.5 -125t-92 -83t-155.5 -30q-32 0 -61.5 4t-59.5 13l16 194q19 -4 36 -6.5t35 -2.5q41 0 65 18t34 45.5t11.5 61.5t1.5 65v952h224z" />
    <glyph glyph-name="f_f_j.liga" unicode="ffj" horiz-adv-x="1710" 
d="M430 705v-705h-224v705h-185v191h185v126q0 94 12.5 169.5t49 129.5t102.5 83t169 29q38 0 74.5 -2.5t67.5 -10.5l-14 -190q-25 5 -47 9t-47 4q-46 0 -74 -15t-44 -40.5t-20.5 -59t-4.5 -70.5v-162h377v126q0 94 13 169.5t49.5 129.5t102 83t169.5 29q37 0 73.5 -2.5
t68.5 -10.5l-15 -190q-24 5 -46.5 9t-47.5 4q-46 0 -74 -15t-44 -40.5t-20.5 -59t-4.5 -70.5v-162h207v-191h-207v-705h-224v705h-377zM1354 1200q0 54 40 94t101 40q62 0 104 -38.5t42 -95.5q0 -58 -42 -96.5t-104 -38.5q-61 0 -101 40t-40 95zM1612 896v-950
q0 -84 -11.5 -156t-44 -125t-92 -83t-155.5 -30q-32 0 -61.5 4t-59.5 13l16 194q20 -4 36.5 -6.5t34.5 -2.5q41 0 65 18t34 45.5t12 61.5t2 65v952h224z" />
    <glyph glyph-name="f_k.liga" unicode="fk" horiz-adv-x="1669" 
d="M206 705h-185v191h185v126q0 94 12.5 169.5t49 129.5t102.5 83t169 29q38 0 74.5 -2.5t67.5 -10.5l-14 -190q-25 5 -47 9t-47 4q-46 0 -74 -15t-44 -40.5t-20.5 -59t-4.5 -70.5v-162h207v-191h-207v-705h-224v705zM782 1410h224v-886l345 372h287l-384 -407l409 -489
h-297l-357 457h-3v-457h-224v1410z" />
    <glyph glyph-name="f_f_k.liga" unicode="ffk" horiz-adv-x="2272" 
d="M430 705v-705h-224v705h-185v191h185v126q0 94 12.5 169.5t49 129.5t102.5 83t169 29q38 0 74.5 -2.5t67.5 -10.5l-14 -190q-25 5 -47 9t-47 4q-46 0 -74 -15t-44 -40.5t-20.5 -59t-4.5 -70.5v-162h377v126q0 94 13 169.5t49.5 129.5t102 83t169.5 29q37 0 73.5 -2.5
t68.5 -10.5l-15 -190q-24 5 -46.5 9t-47.5 4q-46 0 -74 -15t-44 -40.5t-20.5 -59t-4.5 -70.5v-162h207v-191h-207v-705h-224v705h-377zM1383 1410h224v-886l345 372h287l-384 -407l409 -489h-297l-356 457h-4v-457h-224v1410z" />
    <glyph glyph-name="f_f_l.liga" unicode="ffl" horiz-adv-x="1707" 
d="M430 705v-705h-224v705h-185v191h185v126q0 94 12.5 169.5t49 129.5t102.5 83t169 29q38 0 74.5 -2.5t67.5 -10.5l-14 -190q-25 5 -47 9t-47 4q-46 0 -74 -15t-44 -40.5t-20.5 -59t-4.5 -70.5v-162h377v126q0 94 13 169.5t49.5 129.5t102 83t169.5 29q37 0 73.5 -2.5
t68.5 -10.5l-15 -190q-24 5 -46.5 9t-47.5 4q-46 0 -74 -15t-44 -40.5t-20.5 -59t-4.5 -70.5v-162h207v-191h-207v-705h-224v705h-377zM1384 1410h223v-1410h-223v1410z" />
    <glyph glyph-name="f_t.liga" unicode="ft" horiz-adv-x="1320" 
d="M430 705v-705h-224v705h-185v191h185v126q0 94 12.5 169.5t49 129.5t102.5 83t169 29q38 0 74.5 -2.5t67.5 -10.5l-14 -190q-25 5 -47 9t-47 4q-46 0 -74 -15t-44 -40.5t-20.5 -59t-4.5 -70.5v-162h359v259h224v-259h246v-191h-246v-392q0 -67 25 -106t100 -39
q29 0 64.5 6.5t56.5 21.5v-189q-35 -16 -86.5 -23t-91.5 -7q-89 0 -146 19.5t-89.5 60t-44.5 100.5t-12 138v410h-359z" />
    <glyph glyph-name="f_f_t.liga" unicode="fft" horiz-adv-x="1906" 
d="M430 705v-705h-224v705h-185v191h185v126q0 94 12.5 169.5t49 129.5t102.5 83t169 29q38 0 74.5 -2.5t67.5 -10.5l-14 -190q-25 5 -47 9t-47 4q-46 0 -74 -15t-44 -40.5t-20.5 -59t-4.5 -70.5v-162h368v126q0 94 13 169.5t49.5 129.5t102 83t169.5 29q37 0 73.5 -2.5
t68.5 -10.5l-15 -190q-25 5 -47 9t-47 4q-46 0 -74 -15t-44 -40.5t-20.5 -59t-4.5 -70.5v-162h359v259h224v-259h246v-191h-246v-392q0 -67 25 -106t100 -39q29 0 64.5 6.5t56.5 21.5v-189q-35 -16 -86.5 -23t-90.5 -7q-90 0 -147 19.5t-89.5 60t-44.5 100.5t-12 138v410
h-359v-705h-224v705h-368z" />
    <glyph glyph-name="uni0647.fina" unicode="&#x647;" horiz-adv-x="1173" arabic-form="final" 
d="M518 217h141q41 0 72 17t51.5 45.5t29.5 64t9 71.5q0 94 -41 143t-107 49q-27 0 -55.5 -11.5t-50.5 -37.5t-35.5 -70t-13.5 -107v-164zM700 -395q63 0 109 40t46 118q0 20 -9.5 51t-25.5 65t-39.5 66t-50.5 55h-203v-222q0 -49 13.5 -82.5t38 -54t56 -28.5t65.5 -8z
M326 217v203q0 95 30 168.5t80.5 123.5t115 75t135.5 25q70 0 130 -24.5t104 -69.5t68 -106.5t24 -134.5q0 -76 -25 -146t-51 -114h242q30 0 40.5 -15t10.5 -36v-114q0 -15 -11.5 -33.5t-39.5 -18.5h-220q43 -54 67 -121.5t24 -145.5q0 -66 -22 -125.5t-67 -105t-112 -72.5
t-155 -27q-95 0 -164 29.5t-112.5 79.5t-64 111.5t-20.5 122.5v254h-61q-62 0 -80.5 -40t-18.5 -108h-125q-20 32 -34 75t-14 84q0 62 18 102t47.5 62.5t67.5 32t82 9.5h111z" />
    <glyph glyph-name="uni0672.fina" unicode="&#x672;" horiz-adv-x="475" 
d="M139 1336h214v-1119h126q30 0 41 -15t11 -36v-114q0 -15 -13 -33.5t-39 -18.5h-340v1336zM199 1551h34q-18 15 -31 41q-2 3 -3 7v-48zM106 1551v148h93q8 24 27 42q19 19 47.5 30.5t69.5 11.5q17 0 36.5 -2t43.5 -5l-9 -81q-19 3 -33.5 4.5t-27.5 1.5q-40 0 -60.5 -18
t-20.5 -48q0 -21 9.5 -37t25.5 -26t36 -15.5t44 -5.5h62v-83h-429v83h86z" />
    <glyph glyph-name="uni0673.fina" unicode="&#x673;" horiz-adv-x="475" 
d="M139 1336h214v-1119h126q30 0 41 -15t11 -36v-114q0 -15 -13 -33.5t-39 -18.5h-340v1336zM199 -335h34q-18 15 -31 41q-2 3 -3 7v-48zM106 -335v148h93q8 24 27 42q19 19 47.5 30.5t69.5 11.5q17 0 36.5 -2t43.5 -5l-9 -81q-19 3 -33.5 4.5t-27.5 1.5q-40 0 -60.5 -17.5
t-20.5 -48.5q0 -20 9.5 -36t25.5 -26.5t36 -16t44 -5.5h62v-83h-429v83h86z" />
    <glyph glyph-name="uni0675.fina" unicode="&#x675;" horiz-adv-x="829" 
d="M140 1336h212v-1119h480q30 0 41.5 -15t11.5 -36v-114q0 -15 -13 -33.5t-40 -18.5h-692v1336zM712 1472q-34 10 -67 10q-28 0 -46.5 -16t-18.5 -48q0 -28 25 -52t79 -24h58v-100h-315v100h83q-14 20 -27.5 44.5t-13.5 56.5q0 53 41 94t125 41q23 0 48 -3.5t46 -8.5z" />
    <glyph glyph-name="uni0676.fina" unicode="&#x676;" horiz-adv-x="1152" 
d="M667 217v166q0 106 -42 163t-116 57q-34 0 -65 -14t-55 -39.5t-39 -60.5t-15 -80q0 -53 16.5 -89.5t45 -59.5t65 -33t75.5 -10h130zM878 0q-6 -108 -43.5 -185.5t-100.5 -126t-148.5 -71.5t-188.5 -23q-43 0 -90 2.5t-103 11.5l15 209q55 -7 103 -11t84 -4q53 0 99 7.5
t82.5 29t58 59.5t23.5 102h-125q-116 0 -195 33t-128.5 85.5t-72 120t-22.5 136.5q0 88 28.5 167t81 139t124.5 94.5t160 34.5q83 0 149.5 -27.5t113 -76.5t71 -117.5t24.5 -150.5v-221h274q30 0 41 -15t11 -36v-114q0 -15 -12 -33.5t-40 -18.5h-274zM1032 1224
q-20 6 -44 10.5t-49 4.5q-38 0 -64 -22.5t-26 -66.5q0 -38 35.5 -71.5t107.5 -33.5h81v-139h-437v139h116q-21 26 -38.5 61.5t-17.5 77.5q0 75 56.5 132t175.5 57q29 0 63.5 -4.5t62.5 -13.5z" />
    <glyph glyph-name="uni0677.fina" unicode="&#x677;" horiz-adv-x="1152" 
d="M667 217v166q0 106 -42 163t-116 57q-34 0 -65 -14t-55 -39.5t-39 -60.5t-15 -80q0 -53 16.5 -89.5t45 -59.5t65 -33t75.5 -10h130zM878 0q-6 -108 -43.5 -185.5t-100.5 -126t-148.5 -71.5t-188.5 -23q-43 0 -90 2.5t-103 11.5l15 209q55 -7 103 -11t84 -4q53 0 99 7.5
t82.5 29t58 59.5t23.5 102h-125q-116 0 -195 33t-128.5 85.5t-72 120t-22.5 136.5q0 88 28.5 167t81 139t124.5 94.5t160 34.5q83 0 149.5 -27.5t113 -76.5t71 -117.5t24.5 -150.5v-221h274q30 0 41 -15t11 -36v-114q0 -15 -12 -33.5t-40 -18.5h-274zM1032 1224
q-20 6 -44 10.5t-49 4.5q-38 0 -64 -22.5t-26 -66.5q0 -38 35.5 -71.5t107.5 -33.5h81v-139h-437v139h116q-21 26 -38.5 61.5t-17.5 77.5q0 75 56.5 132t175.5 57q29 0 63.5 -4.5t62.5 -13.5zM248 978q44 0 106 20q-47 37 -73 85.5t-26 91.5q0 78 53 129.5t122 51.5
q73 0 118.5 -41t45.5 -132q0 -69 -34.5 -124t-87 -93.5t-114 -58t-114.5 -19.5q-61 0 -116 8l23 88q44 -6 97 -6zM341 1178q0 -36 16.5 -71t64.5 -72q39 25 65 61t26 82q0 44 -24.5 67t-58.5 23q-35 0 -62 -24.5t-27 -65.5z" />
    <glyph glyph-name="uni0678.init" unicode="&#x678;" horiz-adv-x="886" 
d="M-7 0q-25 0 -36.5 15t-11.5 33v111q0 20 12.5 39t35.5 19h256v525h213v-742h-469zM790 1224q-20 6 -43 10.5t-49 4.5q-38 0 -64 -22.5t-26 -66.5q0 -38 35.5 -71.5t107.5 -33.5h81v-139h-437v139h116q-20 26 -38 61.5t-18 77.5q0 75 57 132t175 57q30 0 64 -4.5t62 -13.5
z" />
    <glyph glyph-name="uni0678.medi" unicode="&#x678;" horiz-adv-x="919" 
d="M-5 0q-32 0 -41 15t-9 33v111q0 20 12.5 39t37.5 19h180q41 0 55 26t14 70v429h212v-354q0 -75 35.5 -123t128.5 -48h303q31 0 40.5 -15t9.5 -36v-114q0 -15 -12 -33.5t-38 -18.5h-308q-82 0 -131.5 39t-75.5 86q-32 -54 -89 -89.5t-135 -35.5h-189zM799 1224
q-21 6 -44.5 10.5t-48.5 4.5q-38 0 -64 -22.5t-26 -66.5q0 -38 35.5 -71.5t107.5 -33.5h81v-139h-437v139h116q-21 26 -39 61.5t-18 77.5q0 75 57 132t175 57q30 0 64.5 -4.5t62.5 -13.5z" />
    <glyph glyph-name="uni0678.fina" unicode="&#x678;" horiz-adv-x="1761" 
d="M1434 0v340q0 63 -11.5 101t-36.5 58.5t-63.5 27.5t-89.5 7h-16v-394q0 -112 -37.5 -210t-116 -170.5t-199.5 -115.5t-288 -43q-150 0 -258.5 44.5t-177.5 115t-101.5 157.5t-32.5 175q0 101 34 186.5t89 164.5l175 -102q-43 -64 -62.5 -124.5t-19.5 -110.5
q0 -62 24.5 -113t72 -88.5t117.5 -59.5t159 -22q90 0 164.5 18t129.5 52.5t85 86t30 116.5v645h259q198 0 291.5 -95t93.5 -287v-143h119q26 0 38 -15t12 -36v-114q0 -15 -12 -33.5t-38 -18.5h-333zM1598 1213q-20 6 -43.5 10.5t-48.5 4.5q-38 0 -64.5 -22.5t-26.5 -66.5
q0 -38 35.5 -71.5t108.5 -33.5h80v-138h-436v138h116q-21 26 -38.5 62t-17.5 78q0 75 56.5 132t174.5 57q30 0 64.5 -5t62.5 -14z" />
    <glyph glyph-name="uni067C.init" unicode="&#x67c;" horiz-adv-x="610" 
d="M298 -212v90q0 58 -22.5 89t-65.5 31q-17 0 -34 -7.5t-30 -21.5t-21.5 -33t-8.5 -44q0 -28 9 -48t24.5 -32t35.5 -18t42 -6h71zM33 0h-40q-25 0 -36.5 15t-11.5 33v111q0 20 12.5 39t35.5 19h256v525h213v-742h-66q2 -5 4 -9q13 -37 13 -82v-239h-184q-62 0 -105 18
t-70.5 47t-40 65.5t-12.5 73.5q0 48 17 91q6 19 15 35zM91 1034q0 45 31.5 76.5t80.5 31.5q48 0 80 -31.5t32 -76.5q0 -46 -32 -77t-80 -31q-49 0 -80.5 31t-31.5 77zM381 1034q0 45 32 76.5t80 31.5q49 0 80.5 -31.5t31.5 -76.5q0 -46 -31.5 -77t-80.5 -31q-48 0 -80 31
t-32 77z" />
    <glyph glyph-name="uni067C.medi" unicode="&#x67c;" horiz-adv-x="678" 
d="M298 -212v90q0 58 -22.5 89t-65.5 31q-17 0 -34 -7.5t-30 -21.5t-21.5 -33t-8.5 -44q0 -28 9 -48t24.5 -32t35.5 -18t42 -6h71zM118 1034q0 45 32 76.5t80 31.5q49 0 80.5 -31.5t31.5 -76.5q0 -46 -31.5 -77t-80.5 -31q-48 0 -80 31t-32 77zM33 0h-38q-32 0 -41 15t-9 33
v111q0 20 12.5 39t37.5 19h180q41 0 55 26t14 70v429h212v-354q0 -75 35.5 -123t128.5 -48h66q32 0 41 -15t9 -36v-114q0 -15 -12 -33.5t-38 -18.5h-71q-82 0 -131.5 39t-75.5 86q-22 -37 -55 -64q4 -4 7 -6q26 -28 39.5 -64.5t13.5 -81.5v-239h-184q-62 0 -105 18t-70.5 47
t-40 65.5t-12.5 73.5q0 48 17 91q6 19 15 35zM410 1034q0 45 31.5 76.5t80.5 31.5q48 0 80 -31.5t32 -76.5q0 -46 -32 -77t-80 -31q-49 0 -80.5 31t-31.5 77z" />
    <glyph glyph-name="uni067C.fina" unicode="&#x67c;" horiz-adv-x="1624" 
d="M473 1034q0 45 32 76.5t80 31.5t80 -31.5t32 -76.5q0 -46 -32 -77t-80 -31t-80 31t-32 77zM765 1034q0 45 31 76.5t80 31.5t80.5 -31.5t31.5 -76.5q0 -46 -31.5 -77t-80.5 -31t-80 31t-31 77zM815 -212v90q0 58 -22.5 89t-65.5 31q-17 0 -33.5 -7.5t-29.5 -21.5
t-21.5 -33t-8.5 -44q0 -28 9.5 -48t24.5 -32t35 -18t41 -6h71zM551 0h-285q-73 0 -123.5 22.5t-81 59.5t-44.5 87.5t-14 104.5v315h212v-277q0 -52 15 -73.5t49 -21.5h838q43 0 56 26t13 70v429h213v-354q0 -75 34.5 -123t127.5 -48h69q28 0 39 -15t11 -36v-114
q0 -15 -11.5 -33.5t-38.5 -18.5h-75q-80 0 -127.5 36.5t-73.5 84.5q-32 -59 -91.5 -90t-138.5 -31h-211q2 -5 4 -9q13 -37 13 -82v-239h-183q-62 0 -105 18t-70.5 47t-39.5 65.5t-12 73.5q0 48 15 91q6 19 16 35z" />
    <glyph glyph-name="uni067D.init" unicode="&#x67d;" horiz-adv-x="610" 
d="M-7 0q-25 0 -36.5 15t-11.5 33v111q0 20 12.5 39t35.5 19h256v525h213v-742h-469zM248.5 1109.5q32.5 30.5 80.5 30.5q47 0 80.5 -30.5t33.5 -77.5q0 -45 -33.5 -75.5t-80.5 -30.5q-48 0 -80.5 30.5t-32.5 75.5q0 47 32.5 77.5zM103.5 1349q31.5 32 80.5 32q48 0 80 -32
t32 -76q0 -45 -32 -77t-80 -32q-49 0 -80.5 32t-31.5 77q0 44 31.5 76zM394.5 1349q31.5 32 80.5 32t80.5 -32t31.5 -76q0 -45 -31.5 -77t-80.5 -32t-80.5 32t-31.5 77q0 44 31.5 76z" />
    <glyph glyph-name="uni067D.medi" unicode="&#x67d;" horiz-adv-x="678" 
d="M-5 0q-32 0 -41 15t-9 33v111q0 20 12.5 39t37.5 19h180q41 0 55 26t14 70v429h212v-354q0 -75 35.5 -123t128.5 -48h66q32 0 41 -15t9 -36v-114q0 -15 -12 -33.5t-38 -18.5h-71q-82 0 -131.5 39t-75.5 86q-32 -54 -89 -89.5t-135 -35.5h-189zM293 1109.5
q33 30.5 81 30.5q47 0 80.5 -30.5t33.5 -77.5q0 -45 -33.5 -75.5t-80.5 -30.5q-48 0 -81 30.5t-33 75.5q0 47 33 77.5zM148 1349q32 32 80 32q50 0 81 -32t31 -76q0 -45 -31 -77t-81 -32q-48 0 -80 32t-32 77q0 44 32 76zM440 1349q32 32 80 32t80 -32t32 -76q0 -45 -32 -77
t-80 -32t-80 32t-32 77q0 44 32 76z" />
    <glyph glyph-name="uni067D.fina" unicode="&#x67d;" horiz-adv-x="1624" 
d="M1555 0q-80 0 -127.5 36.5t-73.5 84.5q-32 -59 -91.5 -90t-138.5 -31h-858q-73 0 -123.5 22.5t-81 59.5t-44.5 87.5t-14 104.5v315h212v-277q0 -52 15 -73.5t49 -21.5h838q43 0 56 26t13 70v429h213v-354q0 -75 34.5 -123t127.5 -48h69q28 0 39 -15t11 -36v-114
q0 -15 -11.5 -33.5t-38.5 -18.5h-75zM647.5 1109.5q32.5 30.5 81.5 30.5q47 0 80.5 -30.5t33.5 -77.5q0 -45 -33.5 -75.5t-80.5 -30.5q-49 0 -81.5 30.5t-32.5 75.5q0 47 32.5 77.5zM503 1349q32 32 80 32q49 0 80.5 -32t31.5 -76q0 -45 -31.5 -77t-80.5 -32q-48 0 -80 32
t-32 77q0 44 32 76zM794.5 1349q31.5 32 79.5 32q49 0 80.5 -32t31.5 -76q0 -45 -31.5 -77t-80.5 -32q-48 0 -79.5 32t-31.5 77q0 44 31.5 76z" />
    <glyph glyph-name="uni0681.init" unicode="&#x681;" horiz-adv-x="971" 
d="M493 425q-9 95 -46 133.5t-108 38.5q-40 0 -98.5 -13t-112.5 -39l-55 205q23 10 58.5 21t75.5 20.5t84 16t87 6.5q80 0 138.5 -25.5t99 -71.5t62.5 -109t32 -138q4 -37 9.5 -73.5t19.5 -72t37.5 -65t60.5 -52.5v-207h-842q-27 0 -38.5 15t-11.5 33v111q0 20 12.5 39
t37.5 19h582q-16 20 -45 71.5t-39 136.5zM544 1242q-20 6 -43.5 10.5t-49.5 4.5q-38 0 -64 -22t-26 -67q0 -37 35 -71t108 -34h81v-138h-437v138h116q-20 27 -38 62t-18 78q0 74 57 131t175 57q29 0 63.5 -4.5t62.5 -13.5z" />
    <glyph glyph-name="uni0681.medi" unicode="&#x681;" horiz-adv-x="883" 
d="M942 52q0 -15 -12.5 -33.5t-40.5 -18.5h-36q-59 0 -117.5 24t-96.5 58q-34 -52 -74 -67t-81 -15h-489q-27 0 -38.5 15t-11.5 33v111q0 20 12.5 39t37.5 19h550q-16 29 -30 76t-22 132q-9 95 -49 133.5t-105 38.5q-38 0 -95.5 -12t-115.5 -40l-53 203q23 7 59.5 18.5
t77.5 22t84.5 18t83.5 7.5q89 0 150 -32t99 -82t57 -111t24 -119q4 -37 12 -81t23 -82t39.5 -64t61.5 -26h43q30 0 41.5 -15t11.5 -36v-114zM534 1242q-20 6 -43 10.5t-49 4.5q-38 0 -64 -22t-26 -67q0 -37 35 -71t108 -34h80v-138h-436v138h116q-20 27 -38 62t-18 78
q0 74 57 131t175 57q29 0 63.5 -4.5t62.5 -13.5z" />
    <glyph glyph-name="uni0681.fina" unicode="&#x681;" horiz-adv-x="992" 
d="M655 217q-17 29 -31 74t-21 134q-10 95 -50 133.5t-105 38.5q-39 0 -100 -11t-113 -38l-52 202q22 7 56.5 17.5t76.5 21t87 18t84 7.5q86 0 145 -34t98 -84t59.5 -111t29.5 -115q7 -54 16.5 -100.5t26.5 -80t44 -53t70 -19.5h22q30 0 40.5 -15t10.5 -36v-114
q0 -15 -11.5 -33.5t-39.5 -18.5h-39q-58 0 -117 23t-98 59q-33 -52 -73.5 -67t-84.5 -15h-125q-60 0 -104.5 -17t-73.5 -45.5t-44 -65t-15 -75.5q0 -96 64.5 -154t192.5 -58q25 0 53.5 4.5t57 10t52.5 11.5t39 12l29 -194q-14 -8 -43 -16t-66 -15.5t-79.5 -12.5t-81.5 -5
q-80 0 -159.5 23.5t-142 73t-101.5 126t-39 185.5q0 100 34.5 179t98 135.5t154 85.5t200.5 29h168zM661 1242q-21 6 -44 10.5t-49 4.5q-37 0 -63.5 -22t-26.5 -67q0 -37 35.5 -71t108.5 -34h80v-138h-436v138h116q-21 27 -39 62t-18 78q0 74 57 131t175 57q30 0 64.5 -4.5
t62.5 -13.5z" />
    <glyph glyph-name="uni0682.init" unicode="&#x682;" horiz-adv-x="971" 
d="M493 425q-9 95 -46 133.5t-108 38.5q-40 0 -98.5 -13t-112.5 -39l-55 205q23 10 58.5 21t75.5 20.5t84 16t87 6.5q80 0 138.5 -25.5t99 -71.5t62.5 -109t32 -138q4 -37 9.5 -73.5t19.5 -72t37.5 -65t60.5 -52.5v-207h-842q-27 0 -38.5 15t-11.5 33v111q0 20 12.5 39
t37.5 19h582q-16 20 -45 71.5t-39 136.5zM259 1295q0 45 32.5 76.5t79.5 31.5q49 0 81.5 -31.5t32.5 -76.5t-32.5 -76.5t-81.5 -31.5q-47 0 -79.5 31.5t-32.5 76.5zM256 1034q0 45 32 76.5t80 31.5t81 -31.5t33 -76.5q0 -46 -33 -77t-81 -31t-80 31t-32 77z" />
    <glyph glyph-name="uni0682.medi" unicode="&#x682;" horiz-adv-x="883" 
d="M942 52q0 -15 -12.5 -33.5t-40.5 -18.5h-36q-59 0 -117.5 24t-96.5 58q-34 -52 -74 -67t-81 -15h-489q-27 0 -38.5 15t-11.5 33v111q0 20 12.5 39t37.5 19h550q-16 29 -30 76t-22 132q-9 95 -49 133.5t-105 38.5q-38 0 -95.5 -12t-115.5 -40l-53 203q23 7 59.5 18.5
t77.5 22t84.5 18t83.5 7.5q89 0 150 -32t99 -82t57 -111t24 -119q4 -37 12 -81t23 -82t39.5 -64t61.5 -26h43q30 0 41.5 -15t11.5 -36v-114zM248 1299q0 45 32.5 76.5t79.5 31.5q49 0 81.5 -31.5t32.5 -76.5t-32.5 -76.5t-81.5 -31.5q-47 0 -79.5 31.5t-32.5 76.5zM245 1038
q0 44 32 75.5t80 31.5t81 -31.5t33 -75.5q0 -46 -33 -77.5t-81 -31.5t-80 31.5t-32 77.5z" />
    <glyph glyph-name="uni0682.fina" unicode="&#x682;" horiz-adv-x="992" 
d="M655 217q-17 29 -31 74t-21 134q-10 95 -50 133.5t-105 38.5q-39 0 -100 -11t-113 -38l-52 202q22 7 56.5 17.5t76.5 21t87 18t84 7.5q86 0 145 -34t98 -84t59.5 -111t29.5 -115q7 -54 16.5 -100.5t26.5 -80t44 -53t70 -19.5h22q30 0 40.5 -15t10.5 -36v-114
q0 -15 -11.5 -33.5t-39.5 -18.5h-39q-58 0 -117 23t-98 59q-33 -52 -73.5 -67t-84.5 -15h-125q-60 0 -104.5 -17t-73.5 -45.5t-44 -65t-15 -75.5q0 -96 64.5 -154t192.5 -58q25 0 53.5 4.5t57 10t52.5 11.5t39 12l29 -194q-14 -8 -43 -16t-66 -15.5t-79.5 -12.5t-81.5 -5
q-80 0 -159.5 23.5t-142 73t-101.5 126t-39 185.5q0 100 34.5 179t98 135.5t154 85.5t200.5 29h168zM376 1295q0 45 33 76.5t79 31.5q49 0 81.5 -31.5t32.5 -76.5t-32.5 -76.5t-81.5 -31.5q-46 0 -79 31.5t-33 76.5zM373 1034q0 45 32.5 76.5t79.5 31.5q48 0 81 -31.5
t33 -76.5q0 -46 -33 -77t-81 -31q-47 0 -79.5 31t-32.5 77z" />
    <glyph glyph-name="uni0685.init" unicode="&#x685;" horiz-adv-x="971" 
d="M493 425q-9 95 -46 133.5t-108 38.5q-40 0 -98.5 -13t-112.5 -39l-55 205q23 10 58.5 21t75.5 20.5t84 16t87 6.5q80 0 138.5 -25.5t99 -71.5t62.5 -109t32 -138q4 -37 9.5 -73.5t19.5 -72t37.5 -65t60.5 -52.5v-207h-842q-27 0 -38.5 15t-11.5 33v111q0 20 12.5 39
t37.5 19h582q-16 20 -45 71.5t-39 136.5zM249 1275q0 44 32.5 75t81.5 31q47 0 80 -31t33 -75q0 -47 -33 -78t-80 -31q-49 0 -81.5 31t-32.5 78zM105 1034q0 45 32 76.5t80 31.5q49 0 80.5 -31.5t31.5 -76.5q0 -46 -31.5 -77t-80.5 -31q-48 0 -80 31t-32 77zM396 1034
q0 45 32 76.5t80 31.5q49 0 80.5 -31.5t31.5 -76.5q0 -46 -31.5 -77t-80.5 -31q-48 0 -80 31t-32 77z" />
    <glyph glyph-name="uni0685.medi" unicode="&#x685;" horiz-adv-x="883" 
d="M942 52q0 -15 -12.5 -33.5t-40.5 -18.5h-36q-59 0 -117.5 24t-96.5 58q-34 -52 -74 -67t-81 -15h-489q-27 0 -38.5 15t-11.5 33v111q0 20 12.5 39t37.5 19h550q-16 29 -30 76t-22 132q-9 95 -49 133.5t-105 38.5q-38 0 -95.5 -12t-115.5 -40l-53 203q23 7 59.5 18.5
t77.5 22t84.5 18t83.5 7.5q89 0 150 -32t99 -82t57 -111t24 -119q4 -37 12 -81t23 -82t39.5 -64t61.5 -26h43q30 0 41.5 -15t11.5 -36v-114zM240 1275q0 44 32.5 75t81.5 31q47 0 80 -31t33 -75q0 -47 -33 -78t-80 -31q-49 0 -81.5 31t-32.5 78zM96 1034q0 45 32 76.5
t80 31.5q49 0 80.5 -31.5t31.5 -76.5q0 -46 -31.5 -77t-80.5 -31q-48 0 -80 31t-32 77zM387 1034q0 45 32 76.5t80 31.5q49 0 80.5 -31.5t31.5 -76.5q0 -46 -31.5 -77t-80.5 -31q-48 0 -80 31t-32 77z" />
    <glyph glyph-name="uni0685.fina" unicode="&#x685;" horiz-adv-x="992" 
d="M655 217q-17 29 -31 74t-21 134q-10 95 -50 133.5t-105 38.5q-39 0 -100 -11t-113 -38l-52 202q22 7 56.5 17.5t76.5 21t87 18t84 7.5q86 0 145 -34t98 -84t59.5 -111t29.5 -115q7 -54 16.5 -100.5t26.5 -80t44 -53t70 -19.5h22q30 0 40.5 -15t10.5 -36v-114
q0 -15 -11.5 -33.5t-39.5 -18.5h-39q-58 0 -117 23t-98 59q-33 -52 -73.5 -67t-84.5 -15h-125q-60 0 -104.5 -17t-73.5 -45.5t-44 -65t-15 -75.5q0 -96 64.5 -154t192.5 -58q25 0 53.5 4.5t57 10t52.5 11.5t39 12l29 -194q-14 -8 -43 -16t-66 -15.5t-79.5 -12.5t-81.5 -5
q-80 0 -159.5 23.5t-142 73t-101.5 126t-39 185.5q0 100 34.5 179t98 135.5t154 85.5t200.5 29h168zM366 1275q0 44 33 75t81 31q47 0 80.5 -31t33.5 -75q0 -47 -33.5 -78t-80.5 -31q-48 0 -81 31t-33 78zM222 1034q0 45 32 76.5t80 31.5q50 0 81 -31.5t31 -76.5
q0 -46 -31 -77t-81 -31q-48 0 -80 31t-32 77zM514 1034q0 45 32 76.5t80 31.5t80 -31.5t32 -76.5q0 -46 -32 -77t-80 -31t-80 31t-32 77z" />
    <glyph glyph-name="uni0689.fina" unicode="&#x689;" horiz-adv-x="1006" 
d="M524 -212v90q0 58 -22.5 89t-65.5 31q-17 0 -34 -7.5t-30 -21.5t-21.5 -33t-8.5 -44q0 -28 9.5 -48t25 -32t35 -18t41.5 -6h71zM259 0h-189v217h425q43 0 58 22t15 71q0 74 -6 131t-28 93.5t-66 55.5t-120 19h-178v205h221q108 0 183 -31t119.5 -85t64 -127.5
t19.5 -159.5q0 -96 39 -145t129 -49h67q28 0 39 -15t11 -36v-114q0 -15 -12 -33.5t-38 -18.5h-71q-78 0 -128.5 36.5t-78.5 84.5q-32 -57 -90 -89q-16 -8 -31 -14q7 -13 13 -27q13 -37 13 -82v-239h-184q-62 0 -105 18t-70.5 47t-39.5 65.5t-12 73.5q0 48 16 91q6 19 15 35z
" />
    <glyph glyph-name="uni068A.fina" unicode="&#x68a;" horiz-adv-x="1006" 
d="M941 0q-78 0 -128.5 36.5t-78.5 84.5q-32 -57 -90.5 -89t-133.5 -32h-440v217h425q43 0 58 22t15 71q0 74 -5.5 131t-28 93.5t-66.5 55.5t-120 19h-177v205h220q108 0 183 -31t119.5 -85t64 -127.5t19.5 -159.5q0 -96 39 -145t130 -49h66q28 0 39.5 -15t11.5 -36v-114
q0 -15 -12.5 -33.5t-38.5 -18.5h-71zM321 -235q0 45 33 76t81 31q47 0 79.5 -31t32.5 -76q0 -47 -32.5 -77.5t-79.5 -30.5q-48 0 -81 30.5t-33 77.5z" />
    <glyph glyph-name="uni068B.fina" unicode="&#x68b;" horiz-adv-x="1006" 
d="M941 0q-78 0 -128.5 36.5t-78.5 84.5q-32 -57 -90.5 -89t-133.5 -32h-440v217h425q43 0 58 22t15 71q0 74 -5.5 131t-28 93.5t-66.5 55.5t-120 19h-177v205h220q108 0 183 -31t119.5 -85t64 -127.5t19.5 -159.5q0 -96 39 -145t130 -49h66q28 0 39.5 -15t11.5 -36v-114
q0 -15 -12.5 -33.5t-38.5 -18.5h-71zM143 1029h71v395h91v-241q28 43 68 61.5t87 18.5q80 0 125.5 -48.5t45.5 -126.5v-148h-488v89zM542 1073q0 59 -25 80.5t-66 21.5q-48 0 -92.5 -38t-53.5 -108h237v44zM321 -235q0 45 33 76t81 31q47 0 79.5 -31t32.5 -76
q0 -47 -32.5 -77.5t-79.5 -30.5q-48 0 -81 30.5t-33 77.5z" />
    <glyph glyph-name="uni068F.fina" unicode="&#x68f;" horiz-adv-x="1006" 
d="M941 0q-78 0 -128.5 36.5t-78.5 84.5q-32 -57 -90.5 -89t-133.5 -32h-440v217h425q43 0 58 22t15 71q0 74 -5.5 131t-28 93.5t-66.5 55.5t-120 19h-177v205h220q108 0 183 -31t119.5 -85t64 -127.5t19.5 -159.5q0 -96 39 -145t130 -49h66q28 0 39.5 -15t11.5 -36v-114
q0 -15 -12.5 -33.5t-38.5 -18.5h-71zM371 1110q32 31 82 31q46 0 80 -31t34 -78q0 -44 -34 -75t-80 -31q-50 0 -82 31t-32 75q0 47 32 78zM227 1349.5q32 31.5 80 31.5t80 -31.5t32 -76.5t-32 -76.5t-80 -31.5t-80 31.5t-32 76.5t32 76.5zM517.5 1349.5q31.5 31.5 79.5 31.5
q50 0 81.5 -31.5t31.5 -76.5t-31.5 -76.5t-81.5 -31.5q-48 0 -79.5 31.5t-31.5 76.5t31.5 76.5z" />
    <glyph glyph-name="uni0690.fina" unicode="&#x690;" horiz-adv-x="1006" 
d="M941 0q-78 0 -128.5 36.5t-78.5 84.5q-32 -57 -90.5 -89t-133.5 -32h-440v217h425q43 0 58 22t15 71q0 74 -5.5 131t-28 93.5t-66.5 55.5t-120 19h-177v205h220q108 0 183 -31t119.5 -85t64 -127.5t19.5 -159.5q0 -96 39 -145t130 -49h66q28 0 39.5 -15t11.5 -36v-114
q0 -15 -12.5 -33.5t-38.5 -18.5h-71zM194 1034q0 45 32 76.5t80 31.5q49 0 80.5 -31.5t31.5 -76.5q0 -46 -31.5 -77t-80.5 -31q-48 0 -80 31t-32 77zM485 1034q0 45 32 76.5t80 31.5q49 0 81 -31.5t32 -76.5q0 -46 -32 -77t-81 -31q-48 0 -80 31t-32 77zM198 1299
q0 45 31.5 76.5t80.5 31.5t80.5 -31.5t31.5 -76.5t-31.5 -76.5t-80.5 -31.5t-80.5 31.5t-31.5 76.5zM489 1299q0 45 32 76.5t80 31.5t80 -31.5t32 -76.5t-32 -76.5t-80 -31.5t-80 31.5t-32 76.5z" />
    <glyph glyph-name="uni0692.fina" unicode="&#x692;" horiz-adv-x="777" 
d="M726 0q-55 0 -99.5 24t-73.5 56v-50q0 -84 -22 -157t-67 -127t-110 -85t-151 -31q-34 0 -64.5 3t-53.5 7q-14 2 -26.5 4t-23.5 5l23 213l52 -11q22 -4 47.5 -7t45.5 -3q82 0 110 52.5t28 152.5v696h212v-354q0 -75 35 -123t132 -48h65q32 0 41.5 -15t9.5 -36v-114
q0 -15 -11.5 -33.5t-39.5 -18.5h-59zM464 929l-134 142q-24 27 -37 57q-11 27 -11 67h103q1 -71 79 -149q78 78 79 149h103q0 -40 -11 -67q-12 -30 -38 -57z" />
    <glyph glyph-name="uni0693.fina" unicode="&#x693;" horiz-adv-x="791" 
d="M402 -571v90q0 58 -22 89t-64 31q-18 0 -34.5 -7.5t-30 -21.5t-21.5 -33t-8 -43q0 -29 9 -49t24 -32t35 -18t41 -6h71zM135 -365q-21 2 -37 5q-15 2 -63 13l23 212l64 -14q22 -4 47.5 -7t45.5 -3q82 0 110.5 52.5t28.5 152.5v696h212v-354q0 -75 34.5 -123t132.5 -48h65
q31 0 41 -15t10 -36v-114q0 -15 -11.5 -33.5t-39.5 -18.5h-60q-54 0 -99 24t-73 56v-50q0 -84 -22.5 -157t-66.5 -126q-15 -18 -32 -34q11 -8 20 -17q26 -28 39.5 -64.5t13.5 -81.5v-239h-183q-62 0 -105.5 18t-70.5 47t-39.5 65.5t-12.5 73.5q0 48 16 91q6 15 12 29z" />
    <glyph glyph-name="uni0694.fina" unicode="&#x694;" horiz-adv-x="789" 
d="M736 0q-54 0 -98.5 24t-73.5 56v-50q0 -84 -22 -157t-67 -127t-110 -85t-151 -31q-34 0 -64.5 3t-53.5 7q-27 4 -61 12l23 212l63 -13q22 -4 47.5 -7t45.5 -3q82 0 110 52.5t28 152.5v696h212v-354q0 -75 35 -123t132 -48h65q32 0 41.5 -15t9.5 -36v-114
q0 -15 -11.5 -33.5t-39.5 -18.5h-60zM316 -606q0 45 31.5 76.5t80.5 31.5q48 0 80 -31.5t32 -76.5t-32 -76.5t-80 -31.5q-49 0 -80.5 31.5t-31.5 76.5z" />
    <glyph glyph-name="uni0695.fina" unicode="&#x695;" horiz-adv-x="777" 
d="M726 0q-55 0 -99.5 24t-73.5 56v-50q0 -84 -22 -157t-67 -127t-110 -85t-151 -31q-34 0 -64.5 3t-53.5 7q-14 2 -26.5 4t-23.5 5l23 213l52 -11q22 -4 47.5 -7t45.5 -3q82 0 110 52.5t28 152.5v696h212v-354q0 -75 35 -123t132 -48h65q32 0 41.5 -15t9.5 -36v-114
q0 -15 -11.5 -33.5t-39.5 -18.5h-59zM365 -770l-134 142q-25 27 -37 57q-11 27 -11 67h103q0 -71 79 -149q78 78 79 149h103q0 -40 -11 -67q-13 -30 -38 -57z" />
    <glyph glyph-name="uni0696.fina" unicode="&#x696;" horiz-adv-x="820" 
d="M767 0q-55 0 -99.5 24t-72.5 56v-50q0 -84 -22.5 -157t-67 -127t-109.5 -85t-152 -31q-33 0 -64 3t-53 7q-28 4 -61 12l22 212l63 -13q22 -4 47.5 -7t45.5 -3q82 0 110.5 52.5t28.5 152.5v696h212v-354q0 -75 34.5 -123t132.5 -48h64q32 0 41.5 -15t9.5 -36v-114
q0 -15 -11 -33.5t-40 -18.5h-59zM52 196q0 45 33 75.5t81 30.5q46 0 80 -30.5t34 -75.5q0 -47 -34 -78t-80 -31q-48 0 -81 31t-33 78zM346 -606q0 45 32 76.5t80 31.5q49 0 80.5 -31.5t31.5 -76.5t-31.5 -76.5t-80.5 -31.5q-48 0 -80 31.5t-32 76.5z" />
    <glyph glyph-name="uni0697.fina" unicode="&#x697;" horiz-adv-x="778" 
d="M726 0q-55 0 -99.5 24t-73.5 56v-50q0 -84 -22 -157t-67 -127t-110 -85t-151 -31q-34 0 -64.5 3t-53.5 7q-14 2 -26.5 4t-23.5 5l23 213l52 -11q22 -4 47.5 -7t45.5 -3q82 0 110 52.5t28 152.5v696h212v-354q0 -75 35 -123t132 -48h65q32 0 41.5 -15t9.5 -36v-114
q0 -15 -11.5 -33.5t-39.5 -18.5h-59zM186 1034q0 45 32 76.5t80 31.5q49 0 80.5 -31.5t31.5 -76.5q0 -46 -31.5 -77t-80.5 -31q-48 0 -80 31t-32 77zM477 1034q0 45 32 76.5t80 31.5q49 0 80.5 -31.5t31.5 -76.5q0 -46 -31.5 -77t-80.5 -31q-48 0 -80 31t-32 77z" />
    <glyph glyph-name="uni0699.fina" unicode="&#x699;" horiz-adv-x="778" 
d="M726 0q-55 0 -99.5 24t-73.5 56v-50q0 -84 -22 -157t-67 -127t-110 -85t-151 -31q-34 0 -64.5 3t-53.5 7q-14 2 -26.5 4t-23.5 5l23 213l52 -11q22 -4 47.5 -7t45.5 -3q82 0 110 52.5t28 152.5v696h212v-354q0 -75 35 -123t132 -48h65q32 0 41.5 -15t9.5 -36v-114
q0 -15 -11.5 -33.5t-39.5 -18.5h-59zM181 1303q0 44 32 75.5t80 31.5t80 -31.5t32 -75.5q0 -46 -32 -77.5t-80 -31.5t-80 31.5t-32 77.5zM472 1303q0 44 31.5 75.5t80.5 31.5t80 -31.5t31 -75.5q0 -46 -31 -77.5t-80 -31.5t-80.5 31.5t-31.5 77.5zM188 1034q0 45 32 76.5
t80 31.5t80 -31.5t32 -76.5q0 -46 -32 -77t-80 -31t-80 31t-32 77zM480 1034q0 45 31 76.5t81 31.5q48 0 79.5 -31.5t31.5 -76.5q0 -46 -31.5 -77t-79.5 -31q-50 0 -81 31t-31 77z" />
    <glyph glyph-name="uni069A.init" unicode="&#x69a;" horiz-adv-x="1716" 
d="M-5 0q-27 0 -38.5 15t-11.5 33v111q0 20 12.5 39t37.5 19h322q43 0 55.5 26t12.5 70v256h213v-181q0 -75 35.5 -123t128.5 -48h47q42 0 55.5 24t13.5 72v329h212v-254q0 -75 35.5 -123t129.5 -48h110v525h211v-742h-326q-79 0 -127.5 38.5t-75.5 84.5q-31 -61 -91 -92
t-138 -31h-59q-84 0 -133 36.5t-74 82.5q-32 -57 -92.5 -88t-144.5 -31h-320zM878 1029q0 44 32.5 75t81.5 31q46 0 80 -31t34 -75q0 -47 -34 -78t-80 -31q-49 0 -81.5 31t-32.5 78zM866 -235q0 45 33 76t81 31q46 0 79 -31t33 -76q0 -47 -33 -77.5t-79 -30.5
q-48 0 -81 30.5t-33 77.5z" />
    <glyph glyph-name="uni069A.medi" unicode="&#x69a;" horiz-adv-x="1814" 
d="M-3 0q-29 0 -40.5 15t-11.5 33v111q0 20 13 39t39 19h327q43 0 58 22t15 69v261h208v-181q0 -71 36 -121t130 -50h34q43 0 56 26t13 70v329h214v-254q0 -75 35.5 -123t129.5 -48h45q45 0 59 26t14 70v429h210v-354q0 -75 34.5 -123t127.5 -48h77q30 0 41.5 -15t11.5 -36
v-114q0 -15 -12.5 -33.5t-38.5 -18.5h-79q-83 0 -132.5 37.5t-75.5 85.5q-32 -59 -95.5 -91t-141.5 -32h-50q-85 0 -132.5 37.5t-71.5 83.5q-36 -61 -97.5 -91t-130.5 -30h-48q-81 0 -130 37.5t-73 83.5q-36 -61 -100 -91t-143 -30h-325zM885 1029q0 44 33 75t81 31
q47 0 80.5 -31t33.5 -75q0 -47 -33.5 -78t-80.5 -31q-48 0 -81 31t-33 78zM866 -235q0 45 33 76t81 31q46 0 79 -31t33 -76q0 -47 -33 -77.5t-79 -30.5q-48 0 -81 30.5t-33 77.5z" />
    <glyph glyph-name="uni069A.fina" unicode="&#x69a;" horiz-adv-x="2268" 
d="M2202 0q-64 0 -118 37.5t-86 85.5q-31 -59 -93 -91t-136 -32h-49q-78 0 -128.5 37.5t-76.5 83.5q-30 -55 -91.5 -88t-136.5 -33h-61q-105 0 -166 67q-8 -103 -49 -187.5t-109 -145t-162 -94.5t-210 -34q-153 0 -255 44t-163.5 114t-86.5 156.5t-25 170.5q0 90 31 182
t88 171l180 -102q-43 -64 -61.5 -126.5t-18.5 -124.5q0 -41 13.5 -87.5t49 -86.5t98 -67.5t158.5 -27.5q59 0 116 17t101 53.5t71 93.5t27 135v448h212v-181q0 -78 37.5 -124.5t127.5 -46.5h48q43 0 56 26t13 70v329h213v-254q0 -75 35.5 -123t129.5 -48h38q35 0 52 21.5
t17 74.5v429h213v-350q0 -95 40 -135t119 -40h71q31 0 40.5 -15t9.5 -36v-114q0 -15 -11.5 -33.5t-38.5 -18.5h-73zM1336 1029q0 44 32.5 75t80.5 31q47 0 80.5 -31t33.5 -75q0 -47 -33.5 -78t-80.5 -31q-48 0 -80.5 31t-32.5 78zM1330 -235q0 45 33 76t81 31q46 0 79 -31
t33 -76q0 -47 -33 -77.5t-79 -30.5q-48 0 -81 30.5t-33 77.5z" />
    <glyph glyph-name="uni069B.init" unicode="&#x69b;" horiz-adv-x="1716" 
d="M-5 0q-27 0 -38.5 15t-11.5 33v111q0 20 12.5 39t37.5 19h322q43 0 55.5 26t12.5 70v256h213v-181q0 -75 35.5 -123t128.5 -48h47q42 0 55.5 24t13.5 72v329h212v-254q0 -75 35.5 -123t129.5 -48h110v525h211v-742h-326q-79 0 -127.5 38.5t-75.5 84.5q-31 -61 -91 -92
t-138 -31h-59q-84 0 -133 36.5t-74 82.5q-32 -57 -92.5 -88t-144.5 -31h-320zM1104 -477q0 -45 -33 -76t-81 -31q-47 0 -80.5 31t-33.5 76q0 46 33.5 76.5t80.5 30.5q48 0 81 -30.5t33 -76.5zM1248 -237q0 -45 -32 -76.5t-80 -31.5q-49 0 -80.5 31.5t-31.5 76.5t31.5 77
t80.5 32q48 0 80 -32t32 -77zM956 -237q0 -45 -32 -76.5t-80 -31.5t-80 31.5t-32 76.5t32 77t80 32t80 -32t32 -77z" />
    <glyph glyph-name="uni069B.medi" unicode="&#x69b;" horiz-adv-x="1814" 
d="M-3 0q-29 0 -40.5 15t-11.5 33v111q0 20 13 39t39 19h327q43 0 58 22t15 69v261h208v-181q0 -71 36 -121t130 -50h34q43 0 56 26t13 70v329h214v-254q0 -75 35.5 -123t129.5 -48h45q45 0 59 26t14 70v429h210v-354q0 -75 34.5 -123t127.5 -48h77q30 0 41.5 -15t11.5 -36
v-114q0 -15 -12.5 -33.5t-38.5 -18.5h-79q-83 0 -132.5 37.5t-75.5 85.5q-32 -59 -95.5 -91t-141.5 -32h-50q-85 0 -132.5 37.5t-71.5 83.5q-36 -61 -97.5 -91t-130.5 -30h-48q-81 0 -130 37.5t-73 83.5q-36 -61 -100 -91t-143 -30h-325zM1104 -477q0 -45 -33 -76t-81 -31
q-47 0 -80.5 31t-33.5 76q0 46 33.5 76.5t80.5 30.5q48 0 81 -30.5t33 -76.5zM1248 -237q0 -45 -32 -76.5t-80 -31.5q-49 0 -80.5 31.5t-31.5 76.5t31.5 77t80.5 32q48 0 80 -32t32 -77zM956 -237q0 -45 -32 -76.5t-80 -31.5t-80 31.5t-32 76.5t32 77t80 32t80 -32t32 -77z
" />
    <glyph glyph-name="uni069B.fina" unicode="&#x69b;" horiz-adv-x="2268" 
d="M2202 0q-64 0 -118 37.5t-86 85.5q-31 -59 -93 -91t-136 -32h-49q-78 0 -128.5 37.5t-76.5 83.5q-30 -55 -91.5 -88t-136.5 -33h-61q-105 0 -166 67q-8 -103 -49 -187.5t-109 -145t-162 -94.5t-210 -34q-153 0 -255 44t-163.5 114t-86.5 156.5t-25 170.5q0 90 31 182
t88 171l180 -102q-43 -64 -61.5 -126.5t-18.5 -124.5q0 -41 13.5 -87.5t49 -86.5t98 -67.5t158.5 -27.5q59 0 116 17t101 53.5t71 93.5t27 135v448h212v-181q0 -78 37.5 -124.5t127.5 -46.5h48q43 0 56 26t13 70v329h213v-254q0 -75 35.5 -123t129.5 -48h38q35 0 52 21.5
t17 74.5v429h213v-350q0 -95 40 -135t119 -40h71q31 0 40.5 -15t9.5 -36v-114q0 -15 -11.5 -33.5t-38.5 -18.5h-73zM1559 -477q0 -45 -33 -76t-81 -31q-47 0 -80.5 31t-33.5 76q0 46 33.5 76.5t80.5 30.5q48 0 81 -30.5t33 -76.5zM1703 -237q0 -45 -32 -76.5t-80 -31.5
q-50 0 -81 31.5t-31 76.5t31 77t81 32q48 0 80 -32t32 -77zM1411 -237q0 -45 -32 -76.5t-80 -31.5t-80 31.5t-32 76.5t32 77t80 32t80 -32t32 -77z" />
    <glyph glyph-name="uni069C.init" unicode="&#x69c;" horiz-adv-x="1716" 
d="M-5 0q-27 0 -38.5 15t-11.5 33v111q0 20 12.5 39t37.5 19h322q43 0 55.5 26t12.5 70v256h213v-181q0 -75 35.5 -123t128.5 -48h47q42 0 55.5 24t13.5 72v329h212v-254q0 -75 35.5 -123t129.5 -48h110v525h211v-742h-326q-79 0 -127.5 38.5t-75.5 84.5q-31 -61 -91 -92
t-138 -31h-59q-84 0 -133 36.5t-74 82.5q-32 -57 -92.5 -88t-144.5 -31h-320zM878 1275q0 44 32.5 75t81.5 31q46 0 80 -31t34 -75q0 -47 -34 -78t-80 -31q-49 0 -81.5 31t-32.5 78zM734 1034q0 45 32 76.5t80 31.5t80 -31.5t32 -76.5q0 -46 -32 -77t-80 -31t-80 31t-32 77z
M1025 1034q0 45 31.5 76.5t81.5 31.5q48 0 80 -31.5t32 -76.5q0 -46 -32 -77t-80 -31q-50 0 -81.5 31t-31.5 77zM1104 -477q0 -45 -33 -76t-81 -31q-47 0 -80.5 31t-33.5 76q0 46 33.5 76.5t80.5 30.5q48 0 81 -30.5t33 -76.5zM1248 -237q0 -45 -32 -76.5t-80 -31.5
q-49 0 -80.5 31.5t-31.5 76.5t31.5 77t80.5 32q48 0 80 -32t32 -77zM956 -237q0 -45 -32 -76.5t-80 -31.5t-80 31.5t-32 76.5t32 77t80 32t80 -32t32 -77z" />
    <glyph glyph-name="uni069C.medi" unicode="&#x69c;" horiz-adv-x="1814" 
d="M-3 0q-29 0 -40.5 15t-11.5 33v111q0 20 13 39t39 19h327q43 0 58 22t15 69v261h208v-181q0 -71 36 -121t130 -50h34q43 0 56 26t13 70v329h214v-254q0 -75 35.5 -123t129.5 -48h45q45 0 59 26t14 70v429h210v-354q0 -75 34.5 -123t127.5 -48h77q30 0 41.5 -15t11.5 -36
v-114q0 -15 -12.5 -33.5t-38.5 -18.5h-79q-83 0 -132.5 37.5t-75.5 85.5q-32 -59 -95.5 -91t-141.5 -32h-50q-85 0 -132.5 37.5t-71.5 83.5q-36 -61 -97.5 -91t-130.5 -30h-48q-81 0 -130 37.5t-73 83.5q-36 -61 -100 -91t-143 -30h-325zM885 1275q0 44 33 75t81 31
q47 0 80.5 -31t33.5 -75q0 -47 -33.5 -78t-80.5 -31q-48 0 -81 31t-33 78zM741 1034q0 45 32 76.5t80 31.5q49 0 80.5 -31.5t31.5 -76.5q0 -46 -31.5 -77t-80.5 -31q-48 0 -80 31t-32 77zM1033 1034q0 45 32 76.5t80 31.5t80 -31.5t32 -76.5q0 -46 -32 -77t-80 -31t-80 31
t-32 77zM1104 -477q0 -45 -33 -76t-81 -31q-47 0 -80.5 31t-33.5 76q0 46 33.5 76.5t80.5 30.5q48 0 81 -30.5t33 -76.5zM1248 -237q0 -45 -32 -76.5t-80 -31.5q-49 0 -80.5 31.5t-31.5 76.5t31.5 77t80.5 32q48 0 80 -32t32 -77zM956 -237q0 -45 -32 -76.5t-80 -31.5
t-80 31.5t-32 76.5t32 77t80 32t80 -32t32 -77z" />
    <glyph glyph-name="uni069C.fina" unicode="&#x69c;" horiz-adv-x="2268" 
d="M2202 0q-64 0 -118 37.5t-86 85.5q-31 -59 -93 -91t-136 -32h-49q-78 0 -128.5 37.5t-76.5 83.5q-30 -55 -91.5 -88t-136.5 -33h-61q-105 0 -166 67q-8 -103 -49 -187.5t-109 -145t-162 -94.5t-210 -34q-153 0 -255 44t-163.5 114t-86.5 156.5t-25 170.5q0 90 31 182
t88 171l180 -102q-43 -64 -61.5 -126.5t-18.5 -124.5q0 -41 13.5 -87.5t49 -86.5t98 -67.5t158.5 -27.5q59 0 116 17t101 53.5t71 93.5t27 135v448h212v-181q0 -78 37.5 -124.5t127.5 -46.5h48q43 0 56 26t13 70v329h213v-254q0 -75 35.5 -123t129.5 -48h38q35 0 52 21.5
t17 74.5v429h213v-350q0 -95 40 -135t119 -40h71q31 0 40.5 -15t9.5 -36v-114q0 -15 -11.5 -33.5t-38.5 -18.5h-73zM1317 1275q0 44 33 75t81 31q47 0 80.5 -31t33.5 -75q0 -47 -33.5 -78t-80.5 -31q-48 0 -81 31t-33 78zM1173 1034q0 45 32 76.5t80 31.5q49 0 81 -31.5
t32 -76.5q0 -46 -32 -77t-81 -31q-48 0 -80 31t-32 77zM1465 1034q0 45 31.5 76.5t80.5 31.5q48 0 79.5 -31.5t31.5 -76.5q0 -46 -31.5 -77t-79.5 -31q-49 0 -80.5 31t-31.5 77zM1559 -477q0 -45 -33 -76t-81 -31q-47 0 -80.5 31t-33.5 76q0 46 33.5 76.5t80.5 30.5
q48 0 81 -30.5t33 -76.5zM1703 -237q0 -45 -32 -76.5t-80 -31.5q-50 0 -81 31.5t-31 76.5t31 77t81 32q48 0 80 -32t32 -77zM1411 -237q0 -45 -32 -76.5t-80 -31.5t-80 31.5t-32 76.5t32 77t80 32t80 -32t32 -77z" />
    <glyph glyph-name="uni069D.init" unicode="&#x69d;" horiz-adv-x="1441" 
d="M1093 323q0 78 -17 131t-48 85t-74.5 46t-96.5 14q-61 0 -124.5 -27t-117.5 -77t-92.5 -120.5t-49.5 -157.5h620v106zM-5 0q-27 0 -38.5 15t-11.5 33v111q0 20 12.5 39t37.5 19h260v527h214v-156q79 103 189 160.5t224 57.5q104 0 183.5 -35.5t133.5 -98t81 -148.5
t27 -186v-338h-1312zM1021 -237q0 -45 -32 -76.5t-80 -31.5q-49 0 -80.5 31.5t-31.5 76.5t31.5 77t80.5 32q48 0 80 -32t32 -77zM729 -237q0 -45 -31.5 -76.5t-80.5 -31.5q-48 0 -80 31.5t-32 76.5t32 77t80 32q49 0 80.5 -32t31.5 -77z" />
    <glyph glyph-name="uni069D.medi" unicode="&#x69d;" horiz-adv-x="1540" 
d="M1054 217q39 0 50 25t11 79q0 135 -65.5 206.5t-194.5 71.5q-72 0 -138.5 -30.5t-117.5 -84t-84.5 -122.5t-41.5 -145h581zM-7 0q-30 0 -39 15t-9 33v111q0 20 11.5 39t36.5 19h264v527h212v-156q67 91 173.5 154.5t237.5 63.5q103 0 185.5 -35.5t141.5 -98t91 -149.5
t32 -187q0 -65 42 -92t127 -27h49q31 0 41 -15t10 -36v-114q0 -15 -11.5 -33.5t-39.5 -18.5h-52q-81 0 -131.5 37.5t-75.5 83.5q-30 -61 -91.5 -91t-146.5 -30h-1058zM1021 -237q0 -45 -32 -76.5t-80 -31.5q-49 0 -80.5 31.5t-31.5 76.5t31.5 77t80.5 32q48 0 80 -32t32 -77
zM729 -237q0 -45 -31.5 -76.5t-80.5 -31.5q-48 0 -80 31.5t-32 76.5t32 77t80 32q49 0 80.5 -32t31.5 -77z" />
    <glyph glyph-name="uni069D.fina" unicode="&#x69d;" horiz-adv-x="2135" 
d="M1050 0q-18 -87 -63 -160t-112 -124.5t-155 -80.5t-192 -29q-153 0 -255 44t-162.5 114t-85.5 156.5t-25 170.5q0 90 30 182t88 171l181 -102q-43 -64 -62.5 -126.5t-19.5 -124.5q0 -41 13.5 -87.5t50 -86.5t98 -67.5t157.5 -27.5q59 0 116 17t102 53.5t72 93.5t27 135
v623h212v-156q67 91 174.5 154.5t236.5 63.5q103 0 186.5 -35.5t142.5 -98t92 -148.5t33 -186q0 -66 41 -93.5t130 -27.5h43q26 0 37 -15t11 -36v-114q0 -15 -13.5 -33.5t-34.5 -18.5h-50q-79 0 -127.5 38.5t-74.5 84.5q-32 -61 -94 -92t-147 -31h-601zM1651 217
q42 0 53.5 25t11.5 81q0 131 -65 203.5t-194 72.5q-72 0 -140.5 -30.5t-121.5 -84t-87.5 -122.5t-40.5 -145h584zM1703 -237q0 -45 -32 -76.5t-80 -31.5q-50 0 -81 31.5t-31 76.5t31 77t81 32q48 0 80 -32t32 -77zM1411 -237q0 -45 -32 -76.5t-80 -31.5t-80 31.5t-32 76.5
t32 77t80 32t80 -32t32 -77z" />
    <glyph glyph-name="uni069E.init" unicode="&#x69e;" horiz-adv-x="1441" 
d="M1093 323q0 78 -17 131t-48 85t-74.5 46t-96.5 14q-61 0 -124.5 -27t-117.5 -77t-92.5 -120.5t-49.5 -157.5h620v106zM-5 0q-27 0 -38.5 15t-11.5 33v111q0 20 12.5 39t37.5 19h260v527h214v-156q79 103 189 160.5t224 57.5q104 0 183.5 -35.5t133.5 -98t81 -148.5
t27 -186v-338h-1312zM738 1275q0 44 32 75t81 31q47 0 80 -31t33 -75q0 -47 -33 -78t-80 -31q-49 0 -81 31t-32 78zM594 1034q0 45 31.5 76.5t80.5 31.5q48 0 80 -31.5t32 -76.5q0 -46 -32 -77t-80 -31q-49 0 -80.5 31t-31.5 77zM884 1034q0 45 32 76.5t80 31.5
q50 0 81 -31.5t31 -76.5q0 -46 -31 -77t-81 -31q-48 0 -80 31t-32 77z" />
    <glyph glyph-name="uni069E.medi" unicode="&#x69e;" horiz-adv-x="1540" 
d="M1054 217q39 0 50 25t11 79q0 135 -65.5 206.5t-194.5 71.5q-72 0 -138.5 -30.5t-117.5 -84t-84.5 -122.5t-41.5 -145h581zM-7 0q-30 0 -39 15t-9 33v111q0 20 11.5 39t36.5 19h264v527h212v-156q67 91 173.5 154.5t237.5 63.5q103 0 185.5 -35.5t141.5 -98t91 -149.5
t32 -187q0 -65 42 -92t127 -27h49q31 0 41 -15t10 -36v-114q0 -15 -11.5 -33.5t-39.5 -18.5h-52q-81 0 -131.5 37.5t-75.5 83.5q-30 -61 -91.5 -91t-146.5 -30h-1058zM783 1275q0 44 32.5 75t81.5 31q46 0 79.5 -31t33.5 -75q0 -47 -33.5 -78t-79.5 -31q-49 0 -81.5 31
t-32.5 78zM639 1034q0 45 32 76.5t80 31.5q49 0 80.5 -31.5t31.5 -76.5q0 -46 -31.5 -77t-80.5 -31q-48 0 -80 31t-32 77zM930 1034q0 45 32 76.5t80 31.5q49 0 80.5 -31.5t31.5 -76.5q0 -46 -31.5 -77t-80.5 -31q-48 0 -80 31t-32 77z" />
    <glyph glyph-name="uni069E.fina" unicode="&#x69e;" horiz-adv-x="2135" 
d="M1050 0q-18 -87 -63 -160t-112 -124.5t-155 -80.5t-192 -29q-153 0 -255 44t-162.5 114t-85.5 156.5t-25 170.5q0 90 30 182t88 171l181 -102q-43 -64 -62.5 -126.5t-19.5 -124.5q0 -41 13.5 -87.5t50 -86.5t98 -67.5t157.5 -27.5q59 0 116 17t102 53.5t72 93.5t27 135
v623h212v-156q67 91 174.5 154.5t236.5 63.5q103 0 186.5 -35.5t142.5 -98t92 -148.5t33 -186q0 -66 41 -93.5t130 -27.5h43q26 0 37 -15t11 -36v-114q0 -15 -13.5 -33.5t-34.5 -18.5h-50q-79 0 -127.5 38.5t-74.5 84.5q-32 -61 -94 -92t-147 -31h-601zM1651 217
q42 0 53.5 25t11.5 81q0 131 -65 203.5t-194 72.5q-72 0 -140.5 -30.5t-121.5 -84t-87.5 -122.5t-40.5 -145h584zM1356 1275q0 44 32.5 75t80.5 31q47 0 80.5 -31t33.5 -75q0 -47 -33.5 -78t-80.5 -31q-48 0 -80.5 31t-32.5 78zM1212 1034q0 45 31.5 76.5t80.5 31.5
t80.5 -31.5t31.5 -76.5q0 -46 -31.5 -77t-80.5 -31t-80.5 31t-31.5 77zM1503 1034q0 45 32 76.5t80 31.5q49 0 80.5 -31.5t31.5 -76.5q0 -46 -31.5 -77t-80.5 -31q-48 0 -80 31t-32 77z" />
    <glyph glyph-name="uni069F.init" unicode="&#x69f;" horiz-adv-x="1439" 
d="M1090 323q0 78 -16.5 131t-47.5 85t-74.5 46t-96.5 14q-61 0 -124.5 -27t-117.5 -77t-92 -120.5t-49 -157.5h618v106zM-5 0q-27 0 -38.5 15t-11.5 33v111q0 20 12.5 39t37.5 19h258v1119h214v-748q78 106 188.5 162t224.5 56q104 0 183.5 -35.5t133.5 -98t81 -148.5
t27 -186v-338h-1310zM769 1271q0 45 32 75.5t81 30.5q47 0 80 -30.5t33 -75.5q0 -47 -33 -78t-80 -31q-49 0 -81 31t-32 78zM625 1030q0 45 31.5 76.5t80.5 31.5q48 0 80 -31.5t32 -76.5t-32 -76.5t-80 -31.5q-49 0 -80.5 31.5t-31.5 76.5zM915 1030q0 45 32 76.5t80 31.5
q50 0 81 -31.5t31 -76.5t-31 -76.5t-81 -31.5q-48 0 -80 31.5t-32 76.5z" />
    <glyph glyph-name="uni069F.medi" unicode="&#x69f;" horiz-adv-x="1525" 
d="M1020 217q39 0 52 25t13 81q0 131 -56 203.5t-181 72.5q-73 0 -140 -30.5t-119.5 -84t-86 -122.5t-40.5 -145h558zM1462 0q-84 0 -131 37.5t-72 85.5q-32 -57 -94.5 -90t-146.5 -33h-1025q-30 0 -39 15t-9 33v111q0 20 11.5 39t36.5 19h256v1119h209v-748
q67 91 175 154.5t239 63.5q102 0 182 -35.5t133 -98t81 -148.5t28 -186q0 -66 43 -93.5t127 -27.5h67q32 0 41 -15t9 -36v-114q0 -15 -11 -33.5t-39 -18.5h-71zM732 1271q0 45 32.5 75.5t81.5 30.5q46 0 79.5 -30.5t33.5 -75.5q0 -47 -33.5 -78t-79.5 -31q-49 0 -81.5 31
t-32.5 78zM588 1030q0 45 32 76.5t80 31.5q49 0 80.5 -31.5t31.5 -76.5t-31.5 -76.5t-80.5 -31.5q-48 0 -80 31.5t-32 76.5zM879 1030q0 45 32 76.5t80 31.5q49 0 80.5 -31.5t31.5 -76.5t-31.5 -76.5t-80.5 -31.5q-48 0 -80 31.5t-32 76.5z" />
    <glyph glyph-name="uni069F.fina" unicode="&#x69f;" horiz-adv-x="1453" 
d="M944 217q39 0 51.5 25t12.5 81q0 131 -54.5 203.5t-179.5 72.5q-73 0 -139.5 -30.5t-120 -84t-88 -122.5t-40.5 -145h558zM1387 0q-84 0 -133 37.5t-75 85.5q-29 -61 -91 -92t-146 -31h-942v217h173v1119h211v-747q68 92 173 154.5t239 62.5q101 0 180.5 -35.5t133.5 -98
t82 -148.5t28 -186q0 -66 43 -93.5t129 -27.5h67q26 0 38.5 -15t12.5 -36v-114q0 -15 -14.5 -33.5t-36.5 -18.5h-72zM685 1271q0 45 33 75.5t81 30.5q46 0 80 -30.5t34 -75.5q0 -47 -34 -78t-80 -31q-48 0 -81 31t-33 78zM541 1030q0 45 32 76.5t80 31.5q49 0 80.5 -31.5
t31.5 -76.5t-31.5 -76.5t-80.5 -31.5q-48 0 -80 31.5t-32 76.5zM833 1030q0 45 31.5 76.5t80.5 31.5q48 0 80 -31.5t32 -76.5t-32 -76.5t-80 -31.5q-49 0 -80.5 31.5t-31.5 76.5z" />
    <glyph glyph-name="uni06A0.init" unicode="&#x6a0;" horiz-adv-x="939" 
d="M242 217q-49 43 -82.5 108t-33.5 149q0 67 22.5 130.5t71.5 114t125.5 80t183.5 29.5q43 0 93.5 -4.5t113.5 -13.5l-26 -213q-47 8 -84 11.5t-74 3.5q-101 0 -155.5 -47t-54.5 -125q0 -54 25.5 -96t66.5 -70t95 -42.5t112 -14.5h164v-217h-810q-29 0 -39.5 15t-10.5 33
v111q0 20 12.5 39t37.5 19h247zM372 1282q0 44 33 75t81 31q47 0 80.5 -31t33.5 -75q0 -47 -33.5 -78t-80.5 -31q-48 0 -81 31t-33 78zM229 1041q0 45 31.5 76.5t80.5 31.5t80 -31.5t31 -76.5t-31 -76.5t-80 -31.5t-80.5 31.5t-31.5 76.5zM520 1041q0 45 32 76.5t80 31.5
t80 -31.5t32 -76.5t-32 -76.5t-80 -31.5t-80 31.5t-32 76.5z" />
    <glyph glyph-name="uni06A0.medi" unicode="&#x6a0;" horiz-adv-x="997" 
d="M545 616q-61 0 -130 -16t-112 -42q7 -17 27.5 -49t50.5 -69t65 -72t70 -60q41 25 77.5 58t62.5 68.5t41 69.5t15 59q0 16 -15 26t-39 15.5t-53.5 8.5t-59.5 3zM-5 0q-27 0 -38.5 15t-11.5 33v111q0 20 12.5 39t37.5 19h191q41 0 72.5 3.5t53.5 9.5q-33 31 -66.5 70.5
t-62 77.5t-49 72.5t-27.5 56.5l-7 150q41 34 93.5 63.5t111 51.5t120 35.5t123.5 13.5q95 0 164 -19.5t114 -51.5t67 -70t22 -73q0 -79 -41 -176t-160 -209q39 -5 130 -5h159q30 0 41.5 -15t11.5 -36v-114q0 -15 -12.5 -33.5t-40.5 -18.5h-162q-125 0 -209 26t-129 52
q-71 -41 -154 -59.5t-163 -18.5h-191zM390 1282q0 44 33 75t81 31q47 0 80.5 -31t33.5 -75q0 -47 -33.5 -78t-80.5 -31q-48 0 -81 31t-33 78zM247 1041q0 45 31.5 76.5t81.5 31.5q48 0 79.5 -31.5t31.5 -76.5t-31.5 -76.5t-79.5 -31.5q-50 0 -81.5 31.5t-31.5 76.5z
M538 1041q0 45 32 76.5t80 31.5t80 -31.5t32 -76.5t-32 -76.5t-80 -31.5t-80 31.5t-32 76.5z" />
    <glyph glyph-name="uni06A0.fina" unicode="&#x6a0;" horiz-adv-x="943" 
d="M-1 -212q0 87 26 154t68.5 118.5t93.5 89t101 65.5q-31 29 -65 66.5t-64 76.5t-52 77.5t-33 71.5l-9 148q46 39 104 70.5t117.5 52.5t118.5 32t109 11q88 0 156 -19t115.5 -49.5t72 -68.5t24.5 -77q0 -32 -9 -74t-31 -91.5t-63 -105.5t-107 -116q19 -3 48 -3h75h151
q27 0 39 -15t12 -36v-114q0 -15 -12 -33.5t-39 -18.5h-153q-111 0 -196 26t-133 52q-47 -22 -89.5 -48t-76.5 -60t-53.5 -76t-19.5 -97q0 -96 64 -154t193 -58q23 0 51.5 4.5t57 10t53.5 11.5t40 12l29 -194q-14 -8 -43 -16t-66 -15.5t-79.5 -12.5t-81.5 -5
q-80 0 -159.5 23.5t-143 73t-102.5 126t-39 185.5zM508 616q-30 0 -64 -4.5t-67 -12.5t-62 -19t-49 -24q13 -26 36 -59.5t51.5 -69t61 -68.5t63.5 -55q38 22 73.5 56t62.5 70t43.5 72t16.5 61q0 16 -13.5 26t-38 15.5t-54.5 8.5t-60 3zM373 1282q0 44 32.5 75t80.5 31
q47 0 80.5 -31t33.5 -75q0 -47 -33.5 -78t-80.5 -31q-48 0 -80.5 31t-32.5 78zM229 1041q0 45 31.5 76.5t80.5 31.5q48 0 80 -31.5t32 -76.5t-32 -76.5t-80 -31.5q-49 0 -80.5 31.5t-31.5 76.5zM520 1041q0 45 31.5 76.5t80.5 31.5q48 0 79.5 -31.5t31.5 -76.5t-31.5 -76.5
t-79.5 -31.5q-49 0 -80.5 31.5t-31.5 76.5z" />
    <glyph glyph-name="uni06A1.init" unicode="&#x6a1;" horiz-adv-x="1085" 
d="M951 0h-956q-27 0 -38.5 15t-11.5 33v111q0 20 12.5 39t37.5 19h245q-15 20 -32 68t-17 121q0 77 30 150t84.5 129t131 90.5t168.5 34.5q81 0 144 -26.5t108 -74t69.5 -114.5t24.5 -150v-445zM736 217v239q0 25 -8.5 51.5t-27 48t-47.5 34.5t-68 13q-35 0 -68 -14
t-58 -39.5t-41 -60.5t-16 -80q0 -67 27 -105.5t59 -59.5q36 -22 86 -27h162z" />
    <glyph glyph-name="uni06A1.medi" unicode="&#x6a1;" horiz-adv-x="1116" 
d="M943 217h181q30 0 40.5 -15t10.5 -36v-114q0 -15 -12.5 -33.5t-38.5 -18.5h-1129q-29 0 -39.5 15t-10.5 33v111q0 20 12.5 39t37.5 19h237q-13 20 -30.5 68t-17.5 121q0 77 30 150t83.5 129t131 90.5t171.5 34.5q78 0 141.5 -26.5t108 -74t69 -114.5t24.5 -150v-228z
M728 217v239q0 25 -8 51.5t-26.5 48t-47 34.5t-69.5 13q-35 0 -67.5 -14t-58 -39.5t-40 -60.5t-14.5 -80q0 -67 26 -105.5t58 -59.5q35 -22 85 -27h162z" />
    <glyph glyph-name="uni06A1.fina" unicode="&#x6a1;" horiz-adv-x="1771" 
d="M1597 217h183q26 0 37 -15t11 -36v-114q0 -15 -12 -33.5t-36 -18.5h-1509q-56 0 -105.5 16t-86 50.5t-58 87.5t-21.5 129v324h215v-286q0 -65 19.5 -84.5t48.5 -19.5h603q-15 20 -31.5 68t-16.5 121q0 77 29.5 150t84 129t130 90.5t168.5 34.5q80 0 144.5 -26.5
t109.5 -74t69 -114.5t24 -150v-228zM1383 217v239q0 25 -8.5 51.5t-27.5 48t-47.5 34.5t-67.5 13q-36 0 -68.5 -14t-58 -39.5t-40.5 -60.5t-15 -80q0 -67 26 -105.5t58 -59.5q36 -22 86 -27h163z" />
    <glyph glyph-name="uni06A2.init" unicode="&#x6a2;" horiz-adv-x="1085" 
d="M951 0h-956q-27 0 -38.5 15t-11.5 33v111q0 20 12.5 39t37.5 19h245q-15 20 -32 68t-17 121q0 77 30 150t84.5 129t131 90.5t168.5 34.5q81 0 144 -26.5t108 -74t69.5 -114.5t24.5 -150v-445zM736 217v239q0 25 -8.5 51.5t-27 48t-47.5 34.5t-68 13q-35 0 -68 -14
t-58 -39.5t-41 -60.5t-16 -80q0 -67 27 -105.5t59 -59.5q36 -22 86 -27h162zM486 -235q0 45 33 76t81 31q46 0 79 -31t33 -76q0 -47 -33 -77.5t-79 -30.5q-48 0 -81 30.5t-33 77.5z" />
    <glyph glyph-name="uni06A2.medi" unicode="&#x6a2;" horiz-adv-x="1116" 
d="M943 217h181q30 0 40.5 -15t10.5 -36v-114q0 -15 -12.5 -33.5t-38.5 -18.5h-1129q-29 0 -39.5 15t-10.5 33v111q0 20 12.5 39t37.5 19h237q-13 20 -30.5 68t-17.5 121q0 77 30 150t83.5 129t131 90.5t171.5 34.5q78 0 141.5 -26.5t108 -74t69 -114.5t24.5 -150v-228z
M728 217v239q0 25 -8 51.5t-26.5 48t-47 34.5t-69.5 13q-35 0 -67.5 -14t-58 -39.5t-40 -60.5t-14.5 -80q0 -67 26 -105.5t58 -59.5q35 -22 85 -27h162zM486 -235q0 45 33 76t81 31q46 0 79 -31t33 -76q0 -47 -33 -77.5t-79 -30.5q-48 0 -81 30.5t-33 77.5z" />
    <glyph glyph-name="uni06A2.fina" unicode="&#x6a2;" horiz-adv-x="1771" 
d="M1597 217h183q26 0 37 -15t11 -36v-114q0 -15 -12 -33.5t-36 -18.5h-1509q-56 0 -105.5 16t-86 50.5t-58 87.5t-21.5 129v324h215v-286q0 -65 19.5 -84.5t48.5 -19.5h603q-15 20 -31.5 68t-16.5 121q0 77 29.5 150t84 129t130 90.5t168.5 34.5q80 0 144.5 -26.5
t109.5 -74t69 -114.5t24 -150v-228zM1383 217v239q0 25 -8.5 51.5t-27.5 48t-47.5 34.5t-67.5 13q-36 0 -68.5 -14t-58 -39.5t-40.5 -60.5t-15 -80q0 -67 26 -105.5t58 -59.5q36 -22 86 -27h163zM1169 -235q0 45 32.5 76t81.5 31q46 0 79 -31t33 -76q0 -47 -33 -77.5
t-79 -30.5q-49 0 -81.5 30.5t-32.5 77.5z" />
    <glyph glyph-name="uni06A3.init" unicode="&#x6a3;" horiz-adv-x="1085" 
d="M951 0h-956q-27 0 -38.5 15t-11.5 33v111q0 20 12.5 39t37.5 19h245q-15 20 -32 68t-17 121q0 77 30 150t84.5 129t131 90.5t168.5 34.5q81 0 144 -26.5t108 -74t69.5 -114.5t24.5 -150v-445zM736 217v239q0 25 -8.5 51.5t-27 48t-47.5 34.5t-68 13q-35 0 -68 -14
t-58 -39.5t-41 -60.5t-16 -80q0 -67 27 -105.5t59 -59.5q36 -22 86 -27h162zM490 1034q0 45 32.5 76.5t79.5 31.5q48 0 81 -31.5t33 -76.5q0 -46 -33 -77t-81 -31q-47 0 -79.5 31t-32.5 77zM487 -235q0 45 33 76t81 31q46 0 79 -31t33 -76q0 -47 -33 -77.5t-79 -30.5
q-48 0 -81 30.5t-33 77.5z" />
    <glyph glyph-name="uni06A3.medi" unicode="&#x6a3;" horiz-adv-x="1116" 
d="M943 217h181q30 0 40.5 -15t10.5 -36v-114q0 -15 -12.5 -33.5t-38.5 -18.5h-1129q-29 0 -39.5 15t-10.5 33v111q0 20 12.5 39t37.5 19h237q-13 20 -30.5 68t-17.5 121q0 77 30 150t83.5 129t131 90.5t171.5 34.5q78 0 141.5 -26.5t108 -74t69 -114.5t24.5 -150v-228z
M728 217v239q0 25 -8 51.5t-26.5 48t-47 34.5t-69.5 13q-35 0 -67.5 -14t-58 -39.5t-40 -60.5t-14.5 -80q0 -67 26 -105.5t58 -59.5q35 -22 85 -27h162zM467 1034q0 45 33 76.5t79 31.5q49 0 81.5 -31.5t32.5 -76.5q0 -46 -32.5 -77t-81.5 -31q-46 0 -79 31t-33 77z
M460 -235q0 45 32.5 76t81.5 31q46 0 79 -31t33 -76q0 -47 -33 -77.5t-79 -30.5q-49 0 -81.5 30.5t-32.5 77.5z" />
    <glyph glyph-name="uni06A3.fina" unicode="&#x6a3;" horiz-adv-x="1771" 
d="M1597 217h183q26 0 37 -15t11 -36v-114q0 -15 -12 -33.5t-36 -18.5h-1509q-56 0 -105.5 16t-86 50.5t-58 87.5t-21.5 129v324h215v-286q0 -65 19.5 -84.5t48.5 -19.5h603q-15 20 -31.5 68t-16.5 121q0 77 29.5 150t84 129t130 90.5t168.5 34.5q80 0 144.5 -26.5
t109.5 -74t69 -114.5t24 -150v-228zM1383 217v239q0 25 -8.5 51.5t-27.5 48t-47.5 34.5t-67.5 13q-36 0 -68.5 -14t-58 -39.5t-40.5 -60.5t-15 -80q0 -67 26 -105.5t58 -59.5q36 -22 86 -27h163zM1116 1034q0 45 32.5 76.5t79.5 31.5q48 0 81 -31.5t33 -76.5q0 -46 -33 -77
t-81 -31q-47 0 -79.5 31t-32.5 77zM704 -235q0 45 33 76t81 31q47 0 79.5 -31t32.5 -76q0 -47 -32.5 -77.5t-79.5 -30.5q-48 0 -81 30.5t-33 77.5z" />
    <glyph glyph-name="uni06A5.init" unicode="&#x6a5;" horiz-adv-x="1085" 
d="M951 0h-956q-27 0 -38.5 15t-11.5 33v111q0 20 12.5 39t37.5 19h245q-15 20 -32 68t-17 121q0 77 30 150t84.5 129t131 90.5t168.5 34.5q81 0 144 -26.5t108 -74t69.5 -114.5t24.5 -150v-445zM736 217v239q0 25 -8.5 51.5t-27 48t-47.5 34.5t-68 13q-35 0 -68 -14
t-58 -39.5t-41 -60.5t-16 -80q0 -67 27 -105.5t59 -59.5q36 -22 86 -27h162zM712 -477q0 -45 -33 -76t-81 -31q-46 0 -80 31t-34 76q0 46 34 76.5t80 30.5q48 0 81 -30.5t33 -76.5zM856 -237q0 -45 -32 -76.5t-80 -31.5q-49 0 -80.5 31.5t-31.5 76.5t31.5 77t80.5 32
q48 0 80 -32t32 -77zM565 -237q0 -45 -32 -76.5t-81 -31.5q-48 0 -80 31.5t-32 76.5t32 77t80 32q49 0 81 -32t32 -77z" />
    <glyph glyph-name="uni06A5.medi" unicode="&#x6a5;" horiz-adv-x="1116" 
d="M943 217h181q30 0 40.5 -15t10.5 -36v-114q0 -15 -12.5 -33.5t-38.5 -18.5h-1129q-29 0 -39.5 15t-10.5 33v111q0 20 12.5 39t37.5 19h237q-13 20 -30.5 68t-17.5 121q0 77 30 150t83.5 129t131 90.5t171.5 34.5q78 0 141.5 -26.5t108 -74t69 -114.5t24.5 -150v-228z
M728 217v239q0 25 -8 51.5t-26.5 48t-47 34.5t-69.5 13q-35 0 -67.5 -14t-58 -39.5t-40 -60.5t-14.5 -80q0 -67 26 -105.5t58 -59.5q35 -22 85 -27h162zM703 -477q0 -45 -33 -76t-81 -31q-46 0 -80 31t-34 76q0 46 34 76.5t80 30.5q48 0 81 -30.5t33 -76.5zM847 -237
q0 -45 -32 -76.5t-80 -31.5q-49 0 -80.5 31.5t-31.5 76.5t31.5 77t80.5 32q48 0 80 -32t32 -77zM555 -237q0 -45 -31.5 -76.5t-80.5 -31.5q-48 0 -80 31.5t-32 76.5t32 77t80 32q49 0 80.5 -32t31.5 -77z" />
    <glyph glyph-name="uni06A5.fina" unicode="&#x6a5;" horiz-adv-x="1771" 
d="M1597 217h183q26 0 37 -15t11 -36v-114q0 -15 -12 -33.5t-36 -18.5h-1509q-56 0 -105.5 16t-86 50.5t-58 87.5t-21.5 129v324h215v-286q0 -65 19.5 -84.5t48.5 -19.5h603q-15 20 -31.5 68t-16.5 121q0 77 29.5 150t84 129t130 90.5t168.5 34.5q80 0 144.5 -26.5
t109.5 -74t69 -114.5t24 -150v-228zM1383 217v239q0 25 -8.5 51.5t-27.5 48t-47.5 34.5t-67.5 13q-36 0 -68.5 -14t-58 -39.5t-40.5 -60.5t-15 -80q0 -67 26 -105.5t58 -59.5q36 -22 86 -27h163zM1358 -477q0 -45 -32.5 -76t-81.5 -31q-46 0 -79.5 31t-33.5 76
q0 46 33.5 76.5t79.5 30.5q49 0 81.5 -30.5t32.5 -76.5zM1502 -237q0 -45 -31.5 -76.5t-80.5 -31.5t-80.5 31.5t-31.5 76.5t31.5 77t80.5 32t80.5 -32t31.5 -77zM1211 -237q0 -45 -32 -76.5t-80 -31.5q-49 0 -80.5 31.5t-31.5 76.5t31.5 77t80.5 32q48 0 80 -32t32 -77z" />
    <glyph glyph-name="uni06A7.init" unicode="&#x6a7;" horiz-adv-x="1085" 
d="M951 0h-956q-27 0 -38.5 15t-11.5 33v111q0 20 12.5 39t37.5 19h245q-15 20 -32 68t-17 121q0 77 30 150t84.5 129t131 90.5t168.5 34.5q81 0 144 -26.5t108 -74t69.5 -114.5t24.5 -150v-445zM736 217v239q0 25 -8.5 51.5t-27 48t-47.5 34.5t-68 13q-35 0 -68 -14
t-58 -39.5t-41 -60.5t-16 -80q0 -67 27 -105.5t59 -59.5q36 -22 86 -27h162zM490 1034q0 45 32.5 76.5t79.5 31.5q48 0 81 -31.5t33 -76.5q0 -46 -33 -77t-81 -31q-47 0 -79.5 31t-32.5 77z" />
    <glyph glyph-name="uni06A7.medi" unicode="&#x6a7;" horiz-adv-x="1116" 
d="M943 217h181q30 0 40.5 -15t10.5 -36v-114q0 -15 -12.5 -33.5t-38.5 -18.5h-1129q-29 0 -39.5 15t-10.5 33v111q0 20 12.5 39t37.5 19h237q-13 20 -30.5 68t-17.5 121q0 77 30 150t83.5 129t131 90.5t171.5 34.5q78 0 141.5 -26.5t108 -74t69 -114.5t24.5 -150v-228z
M728 217v239q0 25 -8 51.5t-26.5 48t-47 34.5t-69.5 13q-35 0 -67.5 -14t-58 -39.5t-40 -60.5t-14.5 -80q0 -67 26 -105.5t58 -59.5q35 -22 85 -27h162zM467 1034q0 45 33 76.5t79 31.5q49 0 81.5 -31.5t32.5 -76.5q0 -46 -32.5 -77t-81.5 -31q-46 0 -79 31t-33 77z" />
    <glyph glyph-name="uni06A7.fina" unicode="&#x6a7;" horiz-adv-x="1442" 
d="M909 0q-132 0 -221.5 33.5t-143.5 90.5t-78.5 130.5t-24.5 151.5q0 83 33 156.5t89 128.5t131.5 87t163.5 32q80 0 144 -27.5t109 -75.5t68.5 -114t23.5 -148v-228h235q26 0 37 -15t11 -36v-114q0 -15 -12 -33.5t-36 -18.5h-235q-6 -103 -44 -199t-113 -171t-185 -121.5
t-261 -46.5q-162 0 -275 43t-184.5 111.5t-104.5 152t-33 165.5q0 84 18.5 156t40 125.5t40.5 83t19 27.5l173 -93q-20 -33 -40 -76q-14 -36 -26.5 -78.5t-12.5 -91.5q0 -64 23 -120t70.5 -97.5t123 -66t181.5 -24.5q102 0 173.5 28t116 72.5t66 102.5t24.5 118h-84z
M988 217v239q0 59 -40 103t-113 44q-33 0 -65 -13t-58 -38t-42 -60.5t-16 -82.5q0 -51 20 -87.5t51 -59.5t74.5 -34t91.5 -11h97zM742 1034q0 45 31.5 76.5t80.5 31.5q48 0 80 -31.5t32 -76.5q0 -46 -32 -77t-80 -31q-49 0 -80.5 31t-31.5 77z" />
    <glyph glyph-name="uni06A8.init" unicode="&#x6a8;" horiz-adv-x="1085" 
d="M951 0h-956q-27 0 -38.5 15t-11.5 33v111q0 20 12.5 39t37.5 19h245q-15 20 -32 68t-17 121q0 77 30 150t84.5 129t131 90.5t168.5 34.5q81 0 144 -26.5t108 -74t69.5 -114.5t24.5 -150v-445zM736 217v239q0 25 -8.5 51.5t-27 48t-47.5 34.5t-68 13q-35 0 -68 -14
t-58 -39.5t-41 -60.5t-16 -80q0 -67 27 -105.5t59 -59.5q36 -22 86 -27h162zM479 1275q0 44 32.5 75t81.5 31q46 0 80 -31t34 -75q0 -47 -34 -78t-80 -31q-49 0 -81.5 31t-32.5 78zM335 1034q0 45 32 76.5t80 31.5t80 -31.5t32 -76.5q0 -46 -32 -77t-80 -31t-80 31t-32 77z
M626 1034q0 45 31.5 76.5t80.5 31.5t80.5 -31.5t31.5 -76.5q0 -46 -31.5 -77t-80.5 -31t-80.5 31t-31.5 77z" />
    <glyph glyph-name="uni06A8.medi" unicode="&#x6a8;" horiz-adv-x="1116" 
d="M943 217h181q30 0 40.5 -15t10.5 -36v-114q0 -15 -12.5 -33.5t-38.5 -18.5h-1129q-29 0 -39.5 15t-10.5 33v111q0 20 12.5 39t37.5 19h237q-13 20 -30.5 68t-17.5 121q0 77 30 150t83.5 129t131 90.5t171.5 34.5q78 0 141.5 -26.5t108 -74t69 -114.5t24.5 -150v-228z
M728 217v239q0 25 -8 51.5t-26.5 48t-47 34.5t-69.5 13q-35 0 -67.5 -14t-58 -39.5t-40 -60.5t-14.5 -80q0 -67 26 -105.5t58 -59.5q35 -22 85 -27h162zM462 1275q0 44 32.5 75t80.5 31q47 0 80.5 -31t33.5 -75q0 -47 -33.5 -78t-80.5 -31q-48 0 -80.5 31t-32.5 78z
M319 1034q0 45 31 76.5t80 31.5t80.5 -31.5t31.5 -76.5q0 -46 -31.5 -77t-80.5 -31t-80 31t-31 77zM609 1034q0 45 32 76.5t80 31.5t80 -31.5t32 -76.5q0 -46 -32 -77t-80 -31t-80 31t-32 77z" />
    <glyph glyph-name="uni06A8.fina" unicode="&#x6a8;" horiz-adv-x="1442" 
d="M909 0q-132 0 -221.5 33.5t-143.5 90.5t-78.5 130.5t-24.5 151.5q0 83 33 156.5t89 128.5t131.5 87t163.5 32q80 0 144 -27.5t109 -75.5t68.5 -114t23.5 -148v-228h235q26 0 37 -15t11 -36v-114q0 -15 -12 -33.5t-36 -18.5h-235q-6 -103 -44 -199t-113 -171t-185 -121.5
t-261 -46.5q-162 0 -275 43t-184.5 111.5t-104.5 152t-33 165.5q0 84 18.5 156t40 125.5t40.5 83t19 27.5l173 -93q-20 -33 -40 -76q-14 -36 -26.5 -78.5t-12.5 -91.5q0 -64 23 -120t70.5 -97.5t123 -66t181.5 -24.5q102 0 173.5 28t116 72.5t66 102.5t24.5 118h-84z
M988 217v239q0 59 -40 103t-113 44q-33 0 -65 -13t-58 -38t-42 -60.5t-16 -82.5q0 -51 20 -87.5t51 -59.5t74.5 -34t91.5 -11h97zM733 1278q0 45 32 76t82 31q46 0 79.5 -31t33.5 -76q0 -46 -33.5 -77t-79.5 -31q-50 0 -82 31t-32 77zM589 1038q0 44 32 75.5t80 31.5
t80 -31.5t32 -75.5q0 -46 -32 -77.5t-80 -31.5t-80 31.5t-32 77.5zM880 1038q0 44 31.5 75.5t79.5 31.5q50 0 81.5 -31.5t31.5 -75.5q0 -46 -31.5 -77.5t-81.5 -31.5q-48 0 -79.5 31.5t-31.5 77.5z" />
    <glyph glyph-name="uni06AA.init" unicode="&#x6aa;" horiz-adv-x="1113" 
d="M-5 0q-27 0 -38.5 15t-11.5 33v111q0 20 12.5 39t37.5 19h757v177q0 67 -17.5 105.5t-47.5 58t-70 24t-85 4.5h-408v188l362 575l175 -117l-285 -439h201q74 0 145 -16.5t124.5 -60t86 -118t32.5 -187.5v-411h-970z" />
    <glyph glyph-name="uni06AA.medi" unicode="&#x6aa;" horiz-adv-x="1188" 
d="M-5 0q-27 0 -38.5 15t-11.5 33v111q0 20 12.5 39t37.5 19h681q44 0 58.5 24t14.5 69q0 80 -5.5 133.5t-28 84.5t-66 44.5t-117.5 13.5h-418v188l363 575l175 -117l-285 -439h206q86 0 156.5 -20t122 -64.5t79.5 -117.5t28 -180q2 -107 43.5 -150.5t125.5 -43.5h69
q25 0 36.5 -15t11.5 -36v-114q0 -15 -12.5 -33.5t-35.5 -18.5h-75q-83 0 -130.5 37.5t-73.5 83.5q-31 -55 -93 -88t-135 -33h-695z" />
    <glyph glyph-name="uni06AA.fina" unicode="&#x6aa;" horiz-adv-x="1620" 
d="M1117 217q45 0 55 24t10 69q0 80 -6.5 133.5t-29 84.5t-65 45.5t-115.5 14.5h-419v186l363 577l164 -121l-283 -437h216q86 0 157 -20t122 -64.5t79 -117.5t28 -180q2 -107 42 -150.5t124 -43.5h69q30 0 39.5 -15t9.5 -36v-114q0 -15 -11.5 -33.5t-37.5 -18.5h-74
q-84 0 -131 37.5t-71 83.5q-30 -61 -89.5 -91t-138.5 -30h-860q-72 0 -122 22.5t-80.5 59.5t-44.5 87.5t-14 104.5v315h212v-277q0 -32 6 -51.5t14.5 -29t19.5 -12t24 -2.5h838z" />
    <glyph glyph-name="uni06AB.init" unicode="&#x6ab;" horiz-adv-x="996" 
d="M-55 912l381 580l153 -104l-373 -576zM-14 0q-25 0 -36.5 15t-11.5 33v111q0 20 12.5 39t35.5 19h650v177q0 67 -18 105.5t-47.5 58t-69 24t-84.5 4.5h-228v188l363 575l175 -117l-285 -439h18q75 0 146 -16.5t124 -60t85.5 -118t32.5 -187.5v-411h-862z" />
    <glyph glyph-name="uni06AB.medi" unicode="&#x6ab;" horiz-adv-x="1091" 
d="M-54 912l381 580l155 -104l-373 -576zM-18 0q-29 0 -40.5 15t-11.5 33v111q0 20 13 39t39 19h590q45 0 58.5 24t13.5 69q0 80 -6.5 133.5t-28.5 84.5t-65 45.5t-117 14.5h-234v186l364 577l160 -121l-281 -437h33q84 0 155 -20t122 -64.5t80.5 -117.5t29.5 -180
q1 -107 42 -150.5t125 -43.5h68q28 0 39 -15t11 -36v-114q0 -15 -12 -33.5t-38 -18.5h-73q-82 0 -130 37.5t-73 83.5q-32 -55 -94.5 -88t-135.5 -33h-603z" />
    <glyph glyph-name="uni06AB.fina" unicode="&#x6ab;" horiz-adv-x="1620" 
d="M488 912l379 580l155 -104l-375 -576zM1117 217q45 0 55 24t10 69q0 80 -6.5 133.5t-29 84.5t-65 45.5t-115.5 14.5h-237v186l364 577l164 -121l-284 -437h34q86 0 157 -20t122 -64.5t79 -117.5t28 -180q2 -107 42 -150.5t124 -43.5h69q30 0 39.5 -15t9.5 -36v-114
q0 -15 -11.5 -33.5t-37.5 -18.5h-74q-84 0 -131 37.5t-71 83.5q-30 -61 -89.5 -91t-138.5 -30h-860q-72 0 -122 22.5t-80.5 59.5t-44.5 87.5t-14 104.5v315h212v-277q0 -32 6 -51.5t14.5 -29t19.5 -12t24 -2.5h838z" />
    <glyph glyph-name="uni06AC.init" unicode="&#x6ac;" horiz-adv-x="931" 
d="M-5 0q-27 0 -38.5 15t-11.5 33v111q0 20 12.5 39t37.5 19h575v177q0 67 -18 105.5t-47.5 58t-69.5 24t-86 4.5h-225v188l362 575l175 -117l-285 -439h19q74 0 145 -16.5t124.5 -60t86 -118t32.5 -187.5v-411h-788zM43 1296q0 45 31.5 76.5t80.5 31.5t80.5 -31.5
t31.5 -76.5t-31.5 -76.5t-80.5 -31.5t-80.5 31.5t-31.5 76.5z" />
    <glyph glyph-name="uni06AC.medi" unicode="&#x6ac;" horiz-adv-x="1004" 
d="M-5 0q-27 0 -38.5 15t-11.5 33v111q0 20 12.5 39t37.5 19h498q45 0 59 24t14 69q0 80 -5.5 133.5t-27.5 84.5t-65.5 44.5t-118.5 13.5h-235v188l363 575l175 -117l-285 -439h23q87 0 157.5 -20t122 -64.5t79.5 -117.5t28 -180q2 -107 43 -150.5t125 -43.5h70
q25 0 36.5 -15t11.5 -36v-114q0 -15 -12.5 -33.5t-35.5 -18.5h-75q-83 0 -130.5 37.5t-73.5 83.5q-31 -55 -93 -88t-135 -33h-513zM43 1296q0 45 31.5 76.5t80.5 31.5t80.5 -31.5t31.5 -76.5t-31.5 -76.5t-80.5 -31.5t-80.5 31.5t-31.5 76.5z" />
    <glyph glyph-name="uni06AC.fina" unicode="&#x6ac;" horiz-adv-x="1620" 
d="M1552 0q-82 0 -129.5 39t-71.5 86q-35 -59 -98.5 -92t-131.5 -33h-860q-72 0 -122 22.5t-80.5 59.5t-44.5 87.5t-14 104.5v315h212v-277q0 -32 6 -51.5t14.5 -29t19.5 -12t24 -2.5h838q43 0 56 24t13 72v1023h213v-948q0 -75 34.5 -123t125.5 -48h71q28 0 39 -15t11 -36
v-114q0 -15 -11.5 -33.5t-38.5 -18.5h-75zM877 892q-17 4 -36.5 7.5t-39.5 3.5q-30 0 -50.5 -17t-20.5 -54q0 -29 27.5 -55.5t87.5 -26.5h63v-110h-349v110h92q-15 21 -29.5 48.5t-14.5 61.5q0 60 45.5 105.5t140.5 45.5q51 0 101 -14zM1163 1535q0 45 32.5 76t81.5 31
q47 0 80.5 -31t33.5 -76q0 -46 -33.5 -77t-80.5 -31q-49 0 -81.5 31t-32.5 77z" />
    <glyph glyph-name="uni06AE.init" unicode="&#x6ae;" horiz-adv-x="931" 
d="M-5 0q-27 0 -38.5 15t-11.5 33v111q0 20 12.5 39t37.5 19h575v177q0 67 -18 105.5t-47.5 58t-69.5 24t-86 4.5h-225v188l362 575l175 -117l-285 -439h19q74 0 145 -16.5t124.5 -60t86 -118t32.5 -187.5v-411h-788zM503 -477q0 -45 -33 -76t-81 -31q-47 0 -80.5 31
t-33.5 76q0 46 33.5 76.5t80.5 30.5q48 0 81 -30.5t33 -76.5zM646 -237q0 -45 -31.5 -76.5t-80.5 -31.5t-80.5 31.5t-31.5 76.5t31.5 77t80.5 32t80.5 -32t31.5 -77zM355 -237q0 -45 -32 -76.5t-80 -31.5t-80 31.5t-32 76.5t32 77t80 32t80 -32t32 -77z" />
    <glyph glyph-name="uni06AE.medi" unicode="&#x6ae;" horiz-adv-x="1004" 
d="M-5 0q-27 0 -38.5 15t-11.5 33v111q0 20 12.5 39t37.5 19h498q45 0 59 24t14 69q0 80 -5.5 133.5t-27.5 84.5t-65.5 44.5t-118.5 13.5h-235v188l363 575l175 -117l-285 -439h23q87 0 157.5 -20t122 -64.5t79.5 -117.5t28 -180q2 -107 43 -150.5t125 -43.5h70
q25 0 36.5 -15t11.5 -36v-114q0 -15 -12.5 -33.5t-35.5 -18.5h-75q-83 0 -130.5 37.5t-73.5 83.5q-31 -55 -93 -88t-135 -33h-513zM503 -477q0 -45 -33 -76t-81 -31q-47 0 -80.5 31t-33.5 76q0 46 33.5 76.5t80.5 30.5q48 0 81 -30.5t33 -76.5zM646 -237q0 -45 -31.5 -76.5
t-80.5 -31.5t-80.5 31.5t-31.5 76.5t31.5 77t80.5 32t80.5 -32t31.5 -77zM355 -237q0 -45 -32 -76.5t-80 -31.5t-80 31.5t-32 76.5t32 77t80 32t80 -32t32 -77z" />
    <glyph glyph-name="uni06AE.fina" unicode="&#x6ae;" horiz-adv-x="1620" 
d="M1552 0q-82 0 -129.5 39t-71.5 86q-35 -59 -98.5 -92t-131.5 -33h-860q-72 0 -122 22.5t-80.5 59.5t-44.5 87.5t-14 104.5v315h212v-277q0 -32 6 -51.5t14.5 -29t19.5 -12t24 -2.5h838q43 0 56 24t13 72v1023h213v-948q0 -75 34.5 -123t125.5 -48h71q28 0 39 -15t11 -36
v-114q0 -15 -11.5 -33.5t-38.5 -18.5h-75zM877 892q-17 4 -36.5 7.5t-39.5 3.5q-30 0 -50.5 -17t-20.5 -54q0 -29 27.5 -55.5t87.5 -26.5h63v-110h-349v110h92q-15 21 -29.5 48.5t-14.5 61.5q0 60 45.5 105.5t140.5 45.5q51 0 101 -14zM821 -477q0 -45 -33 -76t-81 -31
q-47 0 -80.5 31t-33.5 76q0 46 33.5 76.5t80.5 30.5q48 0 81 -30.5t33 -76.5zM965 -237q0 -45 -32 -76.5t-80 -31.5q-49 0 -80.5 31.5t-31.5 76.5t31.5 77t80.5 32q48 0 80 -32t32 -77zM673 -237q0 -45 -32 -76.5t-80 -31.5t-80 31.5t-32 76.5t32 77t80 32t80 -32t32 -77z
" />
    <glyph glyph-name="uni06B0.init" unicode="&#x6b0;" horiz-adv-x="996" 
d="M728 918v67q0 43 -16.5 65.5t-47.5 22.5q-13 0 -25 -6t-21.5 -16t-15.5 -23.5t-6 -31.5q0 -21 6.5 -35.5t17 -24t25.5 -14t31 -4.5h52zM-55 912l381 580l153 -104l-373 -576zM524 918l-82 -125h18q75 0 146 -16.5t124 -60t85.5 -118t32.5 -187.5v-411h-862
q-25 0 -36.5 15t-11.5 33v111q0 20 12.5 39t35.5 19h650v177q0 67 -18 105.5t-47.5 58t-69 24t-84.5 4.5h-228v188l363 575l175 -117l-49 -76q27 -2 51 -11q26 -11 45 -31t29 -47t10 -59v-175h-134q-46 0 -78 12.5t-52 34.5q-16 17 -25 38z" />
    <glyph glyph-name="uni06B0.medi" unicode="&#x6b0;" horiz-adv-x="1091" 
d="M718 918v67q0 43 -16.5 65.5t-47.5 22.5q-12 0 -24.5 -6t-22 -16t-15.5 -23.5t-6 -31.5q0 -21 6.5 -35.5t17.5 -24t26 -14t30 -4.5h52zM-54 912l381 580l155 -104l-373 -576zM515 916l-79 -123h33q84 0 155 -20t122 -64.5t80.5 -117.5t29.5 -180q1 -107 42 -150.5
t125 -43.5h68q28 0 39 -15t11 -36v-114q0 -15 -12 -33.5t-38 -18.5h-73q-82 0 -130 37.5t-73 83.5q-32 -55 -94.5 -88t-135.5 -33h-603q-29 0 -40.5 15t-11.5 33v111q0 20 13 39t39 19h590q45 0 58.5 24t13.5 69q0 80 -6.5 133.5t-28.5 84.5t-65 45.5t-117 14.5h-234v186
l364 577l160 -121l-47 -74q26 -2 49 -11q26 -11 45 -31t29 -47t10 -59v-175h-134q-46 0 -77.5 12.5t-52.5 34.5q-15 16 -24 36z" />
    <glyph glyph-name="uni06B0.fina" unicode="&#x6b0;" horiz-adv-x="1620" 
d="M1264 918v67q0 43 -16.5 65.5t-47.5 22.5q-13 0 -25 -6t-21.5 -16t-15.5 -23.5t-6 -31.5q0 -21 6.5 -35.5t17 -24t25.5 -14t31 -4.5h52zM488 912l379 580l155 -104l-375 -576zM1058 923l-85 -130h34q86 0 157 -20t122 -64.5t79 -117.5t28 -180q2 -107 42 -150.5
t124 -43.5h69q30 0 39.5 -15t9.5 -36v-114q0 -15 -11.5 -33.5t-37.5 -18.5h-74q-84 0 -131 37.5t-71 83.5q-30 -61 -89.5 -91t-138.5 -30h-860q-72 0 -122 22.5t-80.5 59.5t-44.5 87.5t-14 104.5v315h212v-277q0 -32 6 -51.5t14.5 -29t19.5 -12t24 -2.5h838q45 0 55 24
t10 69q0 80 -6.5 133.5t-29 84.5t-65 45.5t-115.5 14.5h-237v186l364 577l164 -121l-49 -74q30 -1 57 -11q26 -11 45 -31t29 -47t10 -59v-175h-134q-46 0 -78 12.5t-52 34.5q-18 19 -27 43z" />
    <glyph glyph-name="uni06B2.init" unicode="&#x6b2;" horiz-adv-x="996" 
d="M-55 912l381 580l153 -104l-373 -576zM-14 0q-25 0 -36.5 15t-11.5 33v111q0 20 12.5 39t35.5 19h650v177q0 67 -18 105.5t-47.5 58t-69 24t-84.5 4.5h-228v188l363 575l175 -117l-285 -439h18q75 0 146 -16.5t124 -60t85.5 -118t32.5 -187.5v-411h-862zM647 -237
q0 -45 -32 -76.5t-80 -31.5q-49 0 -80.5 31.5t-31.5 76.5t31.5 77t80.5 32q48 0 80 -32t32 -77zM355 -237q0 -45 -32 -76.5t-80 -31.5t-80 31.5t-32 76.5t32 77t80 32t80 -32t32 -77z" />
    <glyph glyph-name="uni06B2.medi" unicode="&#x6b2;" horiz-adv-x="1091" 
d="M-54 912l381 580l155 -104l-373 -576zM-18 0q-29 0 -40.5 15t-11.5 33v111q0 20 13 39t39 19h590q45 0 58.5 24t13.5 69q0 80 -6.5 133.5t-28.5 84.5t-65 45.5t-117 14.5h-234v186l364 577l160 -121l-281 -437h33q84 0 155 -20t122 -64.5t80.5 -117.5t29.5 -180
q1 -107 42 -150.5t125 -43.5h68q28 0 39 -15t11 -36v-114q0 -15 -12 -33.5t-38 -18.5h-73q-82 0 -130 37.5t-73 83.5q-32 -55 -94.5 -88t-135.5 -33h-603zM646 -237q0 -45 -32 -76.5t-80 -31.5q-49 0 -80.5 31.5t-31.5 76.5t31.5 77t80.5 32q48 0 80 -32t32 -77zM355 -237
q0 -45 -32 -76.5t-81 -31.5q-48 0 -80 31.5t-32 76.5t32 77t80 32q49 0 81 -32t32 -77z" />
    <glyph glyph-name="uni06B2.fina" unicode="&#x6b2;" horiz-adv-x="1620" 
d="M488 912l379 580l155 -104l-375 -576zM1117 217q45 0 55 24t10 69q0 80 -6.5 133.5t-29 84.5t-65 45.5t-115.5 14.5h-237v186l364 577l164 -121l-284 -437h34q86 0 157 -20t122 -64.5t79 -117.5t28 -180q2 -107 42 -150.5t124 -43.5h69q30 0 39.5 -15t9.5 -36v-114
q0 -15 -11.5 -33.5t-37.5 -18.5h-74q-84 0 -131 37.5t-71 83.5q-30 -61 -89.5 -91t-138.5 -30h-860q-72 0 -122 22.5t-80.5 59.5t-44.5 87.5t-14 104.5v315h212v-277q0 -32 6 -51.5t14.5 -29t19.5 -12t24 -2.5h838zM964 -237q0 -45 -32 -76.5t-80 -31.5q-49 0 -80.5 31.5
t-31.5 76.5t31.5 77t80.5 32q48 0 80 -32t32 -77zM673 -237q0 -45 -32 -76.5t-80 -31.5q-49 0 -81 31.5t-32 76.5t32 77t81 32q48 0 80 -32t32 -77z" />
    <glyph glyph-name="uni06B4.init" unicode="&#x6b4;" horiz-adv-x="1270" 
d="M220 912l380 580l153 -104l-373 -576zM-13 0q-25 0 -36.5 15t-11.5 33v111q0 20 12.5 39t35.5 19h923v177q0 67 -17.5 105.5t-47.5 58t-69.5 24t-83.5 4.5h-228v188l362 575l175 -117l-285 -439h18q75 0 146 -16.5t124.5 -60t85.5 -118t32 -187.5v-411h-1135zM134 1774
q0 44 32.5 75t81.5 31q46 0 80 -31t34 -75q0 -47 -34 -78t-80 -31q-49 0 -81.5 31t-32.5 78zM-10 1533q0 45 32 76.5t80 31.5t80 -31.5t32 -76.5t-32 -76.5t-80 -31.5t-80 31.5t-32 76.5zM282 1533q0 45 31 76.5t80 31.5t80.5 -31.5t31.5 -76.5t-31.5 -76.5t-80.5 -31.5
t-80 31.5t-31 76.5z" />
    <glyph glyph-name="uni06B4.medi" unicode="&#x6b4;" horiz-adv-x="1366" 
d="M222 912l381 580l154 -104l-372 -576zM-16 0q-29 0 -40.5 15t-11.5 33v111q0 20 13 39t39 19h864q44 0 58 24t14 69q0 80 -6.5 133.5t-29 84.5t-65 45.5t-117.5 14.5h-233v186l363 577l160 -121l-281 -437h34q83 0 154.5 -20t122.5 -64.5t80 -117.5t29 -180
q2 -107 43 -150.5t125 -43.5h67q28 0 39 -15t11 -36v-114q0 -15 -12 -33.5t-38 -18.5h-73q-82 0 -130 37.5t-73 83.5q-32 -55 -94.5 -88t-135.5 -33h-876zM134 1774q0 44 32.5 75t81.5 31q47 0 80.5 -31t33.5 -75q0 -47 -33.5 -78t-80.5 -31q-49 0 -81.5 31t-32.5 78z
M-10 1533q0 45 32 76.5t80 31.5q49 0 80.5 -31.5t31.5 -76.5t-31.5 -76.5t-80.5 -31.5q-48 0 -80 31.5t-32 76.5zM282 1533q0 45 31.5 76.5t79.5 31.5q49 0 80.5 -31.5t31.5 -76.5t-31.5 -76.5t-80.5 -31.5q-48 0 -79.5 31.5t-31.5 76.5z" />
    <glyph glyph-name="uni06B4.fina" unicode="&#x6b4;" horiz-adv-x="1620" 
d="M488 912l379 580l155 -104l-375 -576zM1117 217q45 0 55 24t10 69q0 80 -6.5 133.5t-29 84.5t-65 45.5t-115.5 14.5h-237v186l364 577l164 -121l-284 -437h34q86 0 157 -20t122 -64.5t79 -117.5t28 -180q2 -107 42 -150.5t124 -43.5h69q30 0 39.5 -15t9.5 -36v-114
q0 -15 -11.5 -33.5t-37.5 -18.5h-74q-84 0 -131 37.5t-71 83.5q-30 -61 -89.5 -91t-138.5 -30h-860q-72 0 -122 22.5t-80.5 59.5t-44.5 87.5t-14 104.5v315h212v-277q0 -32 6 -51.5t14.5 -29t19.5 -12t24 -2.5h838zM323 1710q0 45 32 76t82 31q46 0 80 -31t34 -76
q0 -46 -34 -77t-80 -31q-50 0 -82 31t-32 77zM179 1469q0 45 32 76.5t80 31.5t80 -31.5t32 -76.5t-32 -76.5t-80 -31.5t-80 31.5t-32 76.5zM470 1469q0 45 31.5 76.5t80.5 31.5t80.5 -31.5t31.5 -76.5t-31.5 -76.5t-80.5 -31.5t-80.5 31.5t-31.5 76.5z" />
    <glyph glyph-name="uni06B5.init" unicode="&#x6b5;" horiz-adv-x="572" 
d="M-7 0q-27 0 -37.5 15t-10.5 33v111q0 20 11.5 39t36.5 19h221v1119h210v-1336h-431zM317 1457l-134 142q-25 26 -38 56q-11 28 -11 68h103q1 -71 80 -150q78 79 79 150h103q0 -40 -11 -68q-13 -30 -38 -56z" />
    <glyph glyph-name="uni06B5.medi" unicode="&#x6b5;" horiz-adv-x="680" 
d="M-5 0q-32 0 -41 15t-9 33v111q0 20 12.5 39t37.5 19h180q41 0 55 26t14 70v1023h214v-948q0 -75 34.5 -123t129.5 -48h65q32 0 41.5 -15t9.5 -36v-114q0 -15 -12 -33.5t-39 -18.5h-72q-81 0 -130 38.5t-75 84.5q-32 -61 -90 -92t-136 -31h-189zM353 1457l-134 142
q-24 26 -37 56q-11 28 -11 68h103q1 -71 79 -150q78 79 79 150h103q0 -40 -11 -68q-12 -30 -38 -56z" />
    <glyph glyph-name="uni06B5.fina" unicode="&#x6b5;" horiz-adv-x="1289" 
d="M1346 52q0 -15 -12.5 -33.5t-38.5 -18.5h-60q-60 0 -102.5 18.5t-71.5 47.5q-11 -105 -53.5 -189t-112 -144.5t-162.5 -93.5t-205 -33q-153 0 -255 44t-162.5 114t-85.5 156.5t-25 170.5q0 90 31 182t88 171l180 -102q-43 -64 -61.5 -126.5t-18.5 -124.5
q0 -41 13.5 -87.5t49 -86.5t97 -67.5t157.5 -27.5q61 0 118 17t101 53.5t71 93.5t27 135v1215h210v-948q0 -95 43.5 -133t123.5 -38h65q28 0 38.5 -15t12.5 -36v-114zM963 1457l-134 142q-25 26 -37 56q-11 28 -11 68h103q1 -71 79 -150q78 79 79 150h103q0 -40 -11 -68
q-13 -30 -38 -56z" />
    <glyph glyph-name="uni06B6.init" unicode="&#x6b6;" horiz-adv-x="572" 
d="M-7 0q-27 0 -37.5 15t-10.5 33v111q0 20 11.5 39t36.5 19h221v1119h210v-1336h-431zM197 1526q0 45 32 76t82 31q46 0 79.5 -31t33.5 -76q0 -46 -33.5 -77t-79.5 -31q-50 0 -82 31t-32 77z" />
    <glyph glyph-name="uni06B6.medi" unicode="&#x6b6;" horiz-adv-x="680" 
d="M-5 0q-32 0 -41 15t-9 33v111q0 20 12.5 39t37.5 19h180q41 0 55 26t14 70v1023h214v-948q0 -75 34.5 -123t129.5 -48h65q32 0 41.5 -15t9.5 -36v-114q0 -15 -12 -33.5t-39 -18.5h-72q-81 0 -130 38.5t-75 84.5q-32 -61 -90 -92t-136 -31h-189zM221 1526q0 45 32.5 76
t81.5 31q46 0 80 -31t34 -76q0 -46 -34 -77t-80 -31q-49 0 -81.5 31t-32.5 77z" />
    <glyph glyph-name="uni06B6.fina" unicode="&#x6b6;" horiz-adv-x="1289" 
d="M1346 52q0 -15 -12.5 -33.5t-38.5 -18.5h-60q-60 0 -102.5 18.5t-71.5 47.5q-11 -105 -53.5 -189t-112 -144.5t-162.5 -93.5t-205 -33q-153 0 -255 44t-162.5 114t-85.5 156.5t-25 170.5q0 90 31 182t88 171l180 -102q-43 -64 -61.5 -126.5t-18.5 -124.5
q0 -41 13.5 -87.5t49 -86.5t97 -67.5t157.5 -27.5q61 0 118 17t101 53.5t71 93.5t27 135v1215h210v-948q0 -95 43.5 -133t123.5 -38h65q28 0 38.5 -15t12.5 -36v-114zM831 1526q0 45 32.5 76t81.5 31q46 0 80 -31t34 -76q0 -46 -34 -77t-80 -31q-49 0 -81.5 31t-32.5 77z
" />
    <glyph glyph-name="uni06B7.init" unicode="&#x6b7;" horiz-adv-x="572" 
d="M-7 0q-27 0 -37.5 15t-10.5 33v111q0 20 11.5 39t36.5 19h221v1119h210v-1336h-431zM194 1772q0 45 32 76t82 31q46 0 79.5 -31t33.5 -76q0 -47 -33.5 -77.5t-79.5 -30.5q-50 0 -82 30.5t-32 77.5zM50 1531q0 45 32 76.5t80 31.5t80 -31.5t32 -76.5t-32 -76.5t-80 -31.5
t-80 31.5t-32 76.5zM341 1531q0 45 31.5 76.5t79.5 31.5q50 0 81.5 -31.5t31.5 -76.5t-31.5 -76.5t-81.5 -31.5q-48 0 -79.5 31.5t-31.5 76.5z" />
    <glyph glyph-name="uni06B7.medi" unicode="&#x6b7;" horiz-adv-x="680" 
d="M-5 0q-32 0 -41 15t-9 33v111q0 20 12.5 39t37.5 19h180q41 0 55 26t14 70v1023h214v-948q0 -75 34.5 -123t129.5 -48h65q32 0 41.5 -15t9.5 -36v-114q0 -15 -12 -33.5t-39 -18.5h-72q-81 0 -130 38.5t-75 84.5q-32 -61 -90 -92t-136 -31h-189zM221 1772q0 45 32.5 76
t81.5 31q46 0 80 -31t34 -76q0 -47 -34 -77.5t-80 -30.5q-49 0 -81.5 30.5t-32.5 77.5zM77 1531q0 45 32 76.5t80 31.5t80 -31.5t32 -76.5t-32 -76.5t-80 -31.5t-80 31.5t-32 76.5zM369 1531q0 45 31 76.5t80 31.5t80.5 -31.5t31.5 -76.5t-31.5 -76.5t-80.5 -31.5t-80 31.5
t-31 76.5z" />
    <glyph glyph-name="uni06B7.fina" unicode="&#x6b7;" horiz-adv-x="1289" 
d="M1346 52q0 -15 -12.5 -33.5t-38.5 -18.5h-60q-60 0 -102.5 18.5t-71.5 47.5q-11 -105 -53.5 -189t-112 -144.5t-162.5 -93.5t-205 -33q-153 0 -255 44t-162.5 114t-85.5 156.5t-25 170.5q0 90 31 182t88 171l180 -102q-43 -64 -61.5 -126.5t-18.5 -124.5
q0 -41 13.5 -87.5t49 -86.5t97 -67.5t157.5 -27.5q61 0 118 17t101 53.5t71 93.5t27 135v1215h210v-948q0 -95 43.5 -133t123.5 -38h65q28 0 38.5 -15t12.5 -36v-114zM831 1772q0 45 32.5 76t81.5 31q46 0 80 -31t34 -76q0 -47 -34 -77.5t-80 -30.5q-49 0 -81.5 30.5
t-32.5 77.5zM687 1531q0 45 32 76.5t80 31.5t80 -31.5t32 -76.5t-32 -76.5t-80 -31.5t-80 31.5t-32 76.5zM978 1531q0 45 31.5 76.5t80.5 31.5t80.5 -31.5t31.5 -76.5t-31.5 -76.5t-80.5 -31.5t-80.5 31.5t-31.5 76.5z" />
    <glyph glyph-name="uni06B8.init" unicode="&#x6b8;" horiz-adv-x="721" 
d="M-15 0q-27 0 -37.5 15t-10.5 33v111q0 20 11.5 39t36.5 19h377v1119h211v-1336h-588zM422 -477q0 -45 -33 -76t-81 -31q-47 0 -80.5 31t-33.5 76q0 46 33.5 76.5t80.5 30.5q48 0 81 -30.5t33 -76.5zM566 -237q0 -45 -32 -76.5t-80 -31.5q-50 0 -81.5 31.5t-31.5 76.5
t31.5 77t81.5 32q48 0 80 -32t32 -77zM274 -237q0 -45 -32 -76.5t-80 -31.5t-80 31.5t-32 76.5t32 77t80 32t80 -32t32 -77z" />
    <glyph glyph-name="uni06B8.medi" unicode="&#x6b8;" horiz-adv-x="680" 
d="M-5 0q-32 0 -41 15t-9 33v111q0 20 12.5 39t37.5 19h180q41 0 55 26t14 70v1023h214v-948q0 -75 34.5 -123t129.5 -48h65q32 0 41.5 -15t9.5 -36v-114q0 -15 -12 -33.5t-39 -18.5h-72q-81 0 -130 38.5t-75 84.5q-32 -61 -90 -92t-136 -31h-189zM402 -477q0 -45 -32.5 -76
t-81.5 -31q-46 0 -79.5 31t-33.5 76q0 46 33.5 76.5t79.5 30.5q49 0 81.5 -30.5t32.5 -76.5zM546 -237q0 -45 -31.5 -76.5t-80.5 -31.5t-80.5 31.5t-31.5 76.5t31.5 77t80.5 32t80.5 -32t31.5 -77zM255 -237q0 -45 -32 -76.5t-80 -31.5q-49 0 -80.5 31.5t-31.5 76.5t31.5 77
t80.5 32q48 0 80 -32t32 -77z" />
    <glyph glyph-name="uni06B8.fina" unicode="&#x6b8;" horiz-adv-x="1289" 
d="M1346 52q0 -15 -12.5 -33.5t-38.5 -18.5h-60q-60 0 -102.5 18.5t-71.5 47.5q-11 -105 -53.5 -189t-112 -144.5t-162.5 -93.5t-205 -33q-153 0 -255 44t-162.5 114t-85.5 156.5t-25 170.5q0 90 31 182t88 171l180 -102q-43 -64 -61.5 -126.5t-18.5 -124.5
q0 -41 13.5 -87.5t49 -86.5t97 -67.5t157.5 -27.5q61 0 118 17t101 53.5t71 93.5t27 135v1215h210v-948q0 -95 43.5 -133t123.5 -38h65q28 0 38.5 -15t12.5 -36v-114zM675 -850q0 -45 -33 -76t-81 -31q-46 0 -80 31t-34 76q0 46 34 77t80 31q48 0 81 -31t33 -77zM819 -609
q0 -45 -32 -77t-80 -32q-49 0 -80.5 32t-31.5 77q0 44 31.5 76t80.5 32q48 0 80 -32t32 -76zM527 -609q0 -45 -31.5 -77t-80.5 -32q-48 0 -80 32t-32 77q0 44 32 76t80 32q49 0 80.5 -32t31.5 -76z" />
    <glyph glyph-name="uni06B9.init" unicode="&#x6b9;" horiz-adv-x="610" 
d="M-7 0q-25 0 -36.5 15t-11.5 33v111q0 20 12.5 39t35.5 19h256v525h213v-742h-469zM236 1034q0 45 32.5 76.5t80.5 31.5t80.5 -31.5t32.5 -76.5q0 -46 -32.5 -77t-80.5 -31t-80.5 31t-32.5 77zM236 -235q0 45 32.5 76t81.5 31q46 0 79 -31t33 -76q0 -47 -33 -77.5
t-79 -30.5q-49 0 -81.5 30.5t-32.5 77.5z" />
    <glyph glyph-name="uni06B9.medi" unicode="&#x6b9;" horiz-adv-x="678" 
d="M-5 0q-32 0 -41 15t-9 33v111q0 20 12.5 39t37.5 19h180q41 0 55 26t14 70v429h212v-354q0 -75 35.5 -123t128.5 -48h66q32 0 41 -15t9 -36v-114q0 -15 -12 -33.5t-38 -18.5h-71q-82 0 -131.5 39t-75.5 86q-32 -54 -89 -89.5t-135 -35.5h-189zM238 1034q0 45 32.5 76.5
t78.5 31.5q50 0 82 -31.5t32 -76.5q0 -46 -32 -77t-82 -31q-46 0 -78.5 31t-32.5 77zM219 -235q0 45 33 76t81 31q47 0 79.5 -31t32.5 -76q0 -47 -32.5 -77.5t-79.5 -30.5q-48 0 -81 30.5t-33 77.5z" />
    <glyph glyph-name="uni06B9.fina" unicode="&#x6b9;" horiz-adv-x="1266" 
d="M1202 0q-49 0 -82.5 15t-56.5 35q-14 -117 -65 -201t-124 -138t-163.5 -79.5t-183.5 -25.5q-153 0 -254.5 44t-162 114t-85.5 156.5t-25 170.5q0 90 32 185.5t87 167.5l180 -102q-43 -64 -61.5 -127.5t-18.5 -123.5q0 -45 14.5 -92t51 -86.5t97 -65t154.5 -25.5
q78 0 137.5 25t100 64t60 91t19.5 108q0 79 -31 176t-81 177l199 114q38 -73 63 -140t38 -116q17 -60 49.5 -82t111.5 -22h69q29 0 40.5 -15t11.5 -36v-114q0 -15 -13.5 -33.5t-38.5 -18.5h-69zM452 847q0 45 32.5 77t78.5 32q49 0 81.5 -32t32.5 -77q0 -44 -32.5 -76
t-81.5 -32q-46 0 -78.5 32t-32.5 76zM420 -656q0 45 32.5 76.5t78.5 31.5q49 0 81.5 -31.5t32.5 -76.5t-32.5 -76.5t-81.5 -31.5q-46 0 -78.5 31.5t-32.5 76.5z" />
    <glyph glyph-name="uni06BC.init" unicode="&#x6bc;" horiz-adv-x="610" 
d="M238 1034q0 45 32 76.5t80 31.5t80 -31.5t32 -76.5q0 -46 -32 -77t-80 -31t-80 31t-32 77zM298 -212v90q0 58 -22.5 89t-65.5 31q-17 0 -34 -7.5t-30 -21.5t-21.5 -33t-8.5 -44q0 -28 9 -48t24.5 -32t35.5 -18t42 -6h71zM33 0h-40q-25 0 -36.5 15t-11.5 33v111
q0 20 12.5 39t35.5 19h256v525h213v-742h-66q2 -5 4 -9q13 -37 13 -82v-239h-184q-62 0 -105 18t-70.5 47t-40 65.5t-12.5 73.5q0 48 17 91q6 19 15 35z" />
    <glyph glyph-name="uni06BC.medi" unicode="&#x6bc;" horiz-adv-x="678" 
d="M298 -212v90q0 58 -22.5 89t-65.5 31q-17 0 -34 -7.5t-30 -21.5t-21.5 -33t-8.5 -44q0 -28 9 -48t24.5 -32t35.5 -18t42 -6h71zM33 0h-38q-32 0 -41 15t-9 33v111q0 20 12.5 39t37.5 19h180q41 0 55 26t14 70v429h212v-354q0 -75 35.5 -123t128.5 -48h66q32 0 41 -15
t9 -36v-114q0 -15 -12 -33.5t-38 -18.5h-71q-82 0 -131.5 39t-75.5 86q-22 -37 -55 -64q4 -4 7 -6q26 -28 39.5 -64.5t13.5 -81.5v-239h-184q-62 0 -105 18t-70.5 47t-40 65.5t-12.5 73.5q0 48 17 91q6 19 15 35zM238 1034q0 45 32.5 76.5t78.5 31.5q50 0 82 -31.5t32 -76.5
q0 -46 -32 -77t-82 -31q-46 0 -78.5 31t-32.5 77z" />
    <glyph glyph-name="uni06BC.fina" unicode="&#x6bc;" horiz-adv-x="1266" 
d="M452 847q0 45 32.5 77t78.5 32q49 0 81.5 -32t32.5 -77q0 -44 -32.5 -76t-81.5 -32q-46 0 -78.5 32t-32.5 76zM631 -604v90q0 58 -22 89t-64 31q-18 0 -34.5 -7.5t-30 -21t-21.5 -33t-8 -43.5q0 -28 9 -48.5t24 -32.5t35 -18t41 -6h71zM374 -381q-56 11 -102 31
q-101 44 -161.5 114t-85.5 156.5t-25 170.5q0 90 32 185.5t87 167.5l180 -102q-43 -64 -61.5 -127.5t-18.5 -123.5q0 -45 14.5 -92t51 -86.5t97 -65t154.5 -25.5q78 0 137.5 25t100 64t60 91t19.5 108q0 79 -31 176t-81 177l199 114q38 -73 63 -140t38 -116q17 -60 49.5 -82
t111.5 -22h69q29 0 40.5 -15t11.5 -36v-114q0 -15 -13.5 -33.5t-38.5 -18.5h-69q-49 0 -82.5 15t-56.5 35q-14 -117 -65 -201t-123 -138q-71 -53 -158 -77q9 -17 16 -35q14 -37 14 -82v-239h-183q-62 0 -105.5 18t-70.5 47t-39.5 65.5t-12.5 74.5q0 47 17 91q9 24 21 45z
" />
    <glyph glyph-name="uni06BD.init" unicode="&#x6bd;" horiz-adv-x="610" 
d="M-7 0q-25 0 -36.5 15t-11.5 33v111q0 20 12.5 39t35.5 19h256v525h213v-742h-469zM216 1275q0 44 32.5 75t80.5 31q47 0 80.5 -31t33.5 -75q0 -47 -33.5 -78t-80.5 -31q-48 0 -80.5 31t-32.5 78zM72 1034q0 45 31.5 76.5t80.5 31.5q48 0 80 -31.5t32 -76.5q0 -46 -32 -77
t-80 -31q-49 0 -80.5 31t-31.5 77zM363 1034q0 45 31.5 76.5t80.5 31.5t80.5 -31.5t31.5 -76.5q0 -46 -31.5 -77t-80.5 -31t-80.5 31t-31.5 77z" />
    <glyph glyph-name="uni06BD.medi" unicode="&#x6bd;" horiz-adv-x="678" 
d="M-5 0q-32 0 -41 15t-9 33v111q0 20 12.5 39t37.5 19h180q41 0 55 26t14 70v429h212v-354q0 -75 35.5 -123t128.5 -48h66q32 0 41 -15t9 -36v-114q0 -15 -12 -33.5t-38 -18.5h-71q-82 0 -131.5 39t-75.5 86q-32 -54 -89 -89.5t-135 -35.5h-189zM260 1275q0 44 33 75t81 31
q47 0 80.5 -31t33.5 -75q0 -47 -33.5 -78t-80.5 -31q-48 0 -81 31t-33 78zM116 1034q0 45 32 76.5t80 31.5q50 0 81 -31.5t31 -76.5q0 -46 -31 -77t-81 -31q-48 0 -80 31t-32 77zM408 1034q0 45 32 76.5t80 31.5t80 -31.5t32 -76.5q0 -46 -32 -77t-80 -31t-80 31t-32 77z
" />
    <glyph glyph-name="uni06BD.fina" unicode="&#x6bd;" horiz-adv-x="1266" 
d="M1202 0q-49 0 -82.5 15t-56.5 35q-14 -117 -65 -201t-124 -138t-163.5 -79.5t-183.5 -25.5q-153 0 -254.5 44t-162 114t-85.5 156.5t-25 170.5q0 90 32 185.5t87 167.5l180 -102q-43 -64 -61.5 -127.5t-18.5 -123.5q0 -45 14.5 -92t51 -86.5t97 -65t154.5 -25.5
q78 0 137.5 25t100 64t60 91t19.5 108q0 79 -31 176t-81 177l199 114q38 -73 63 -140t38 -116q17 -60 49.5 -82t111.5 -22h69q29 0 40.5 -15t11.5 -36v-114q0 -15 -13.5 -33.5t-38.5 -18.5h-69zM407 1063q0 45 32.5 76t80.5 31t81 -31t33 -76q0 -46 -33 -77t-81 -31
t-80.5 31t-32.5 77zM263 823q0 44 31.5 75.5t80.5 31.5t80.5 -31.5t31.5 -75.5q0 -46 -31.5 -77.5t-80.5 -31.5t-80.5 31.5t-31.5 77.5zM554 823q0 44 32 75.5t80 31.5t80 -31.5t32 -75.5q0 -46 -32 -77.5t-80 -31.5t-80 31.5t-32 77.5z" />
    <glyph glyph-name="uni06BF.init" unicode="&#x6bf;" horiz-adv-x="971" 
d="M493 425q-9 95 -46 133.5t-108 38.5q-40 0 -98.5 -13t-112.5 -39l-55 205q23 10 58.5 21t75.5 20.5t84 16t87 6.5q80 0 138.5 -25.5t99 -71.5t62.5 -109t32 -138q4 -37 9.5 -73.5t19.5 -72t37.5 -65t60.5 -52.5v-207h-842q-27 0 -38.5 15t-11.5 33v111q0 20 12.5 39
t37.5 19h582q-16 20 -45 71.5t-39 136.5zM542 -477q0 -45 -32.5 -76t-81.5 -31q-47 0 -80 31t-33 76q0 46 33 76.5t80 30.5q49 0 81.5 -30.5t32.5 -76.5zM686 -237q0 -45 -32 -76.5t-80 -31.5q-49 0 -80.5 31.5t-31.5 76.5t31.5 77t80.5 32q48 0 80 -32t32 -77zM395 -237
q0 -45 -32 -76.5t-80 -31.5q-49 0 -80.5 31.5t-31.5 76.5t31.5 77t80.5 32q48 0 80 -32t32 -77zM256 1034q0 45 32 76.5t80 31.5t81 -31.5t33 -76.5q0 -46 -33 -77t-81 -31t-80 31t-32 77z" />
    <glyph glyph-name="uni06BF.medi" unicode="&#x6bf;" horiz-adv-x="883" 
d="M942 52q0 -15 -12.5 -33.5t-40.5 -18.5h-36q-59 0 -117.5 24t-96.5 58q-34 -52 -74 -67t-81 -15h-489q-27 0 -38.5 15t-11.5 33v111q0 20 12.5 39t37.5 19h550q-16 29 -30 76t-22 132q-9 95 -49 133.5t-105 38.5q-38 0 -95.5 -12t-115.5 -40l-53 203q23 7 59.5 18.5
t77.5 22t84.5 18t83.5 7.5q89 0 150 -32t99 -82t57 -111t24 -119q4 -37 12 -81t23 -82t39.5 -64t61.5 -26h43q30 0 41.5 -15t11.5 -36v-114zM544 -477q0 -45 -32.5 -76t-81.5 -31q-47 0 -80 31t-33 76q0 46 33 76.5t80 30.5q49 0 81.5 -30.5t32.5 -76.5zM687 -237
q0 -45 -31.5 -76.5t-80.5 -31.5q-48 0 -80 31.5t-32 76.5t32 77t80 32q49 0 80.5 -32t31.5 -77zM397 -237q0 -45 -32 -76.5t-80 -31.5q-49 0 -80.5 31.5t-31.5 76.5t31.5 77t80.5 32q48 0 80 -32t32 -77zM245 1038q0 44 32 75.5t80 31.5t81 -31.5t33 -75.5q0 -46 -33 -77.5
t-81 -31.5t-80 31.5t-32 77.5z" />
    <glyph glyph-name="uni06BF.fina" unicode="&#x6bf;" horiz-adv-x="992" 
d="M442 -620q-80 0 -159.5 23.5t-142 73t-101.5 126t-39 185.5q0 100 34.5 179t98 135.5t154 85.5t200.5 29h168q-17 29 -31 74t-21 134q-10 95 -50 133.5t-105 38.5q-39 0 -100 -11t-113 -38l-52 202q22 7 56.5 17.5t76.5 21t87 18t84 7.5q86 0 145 -34t98 -84t59.5 -111
t29.5 -115q7 -54 16.5 -100.5t26.5 -80t44 -53t70 -19.5h22q30 0 40.5 -15t10.5 -36v-114q0 -15 -11.5 -33.5t-39.5 -18.5h-39q-58 0 -117 23t-98 59q-33 -52 -73.5 -67t-84.5 -15h-125q-60 0 -104.5 -17t-73.5 -45.5t-44 -65t-15 -75.5q0 -96 65 -153q46 -43 127 -54
l50 -210h-24zM765 -477q0 -45 -32.5 -76t-81.5 -31q-46 0 -79.5 31t-33.5 76q0 46 33.5 76.5t79.5 30.5q49 0 81.5 -30.5t32.5 -76.5zM909 -237q0 -45 -32 -76.5t-80 -31.5t-80 31.5t-32 76.5t32 77t80 32t80 -32t32 -77zM627 -237q0 -45 -31.5 -76.5t-80.5 -31.5t-80 31.5
t-31 76.5t31 77t80 32t80.5 -32t31.5 -77zM373 1034q0 45 32.5 76.5t79.5 31.5q48 0 81 -31.5t33 -76.5q0 -46 -33 -77t-81 -31q-47 0 -79.5 31t-32.5 77z" />
    <glyph glyph-name="uni06C2.fina" unicode="&#x6c2;" horiz-adv-x="607" 
d="M564 0q-42 0 -77.5 15t-66 38.5t-53.5 51t-42 52.5q-22 28 -40.5 50.5t-38.5 22.5q-44 0 -66.5 -60t-22.5 -144v-27.5t4 -43.5h-157q-5 24 -7 47.5t-2 43.5q0 91 18 163.5t48.5 123t74.5 78t94 27.5q62 0 109.5 -38t75.5 -77q30 -41 67 -73.5t97 -32.5h37
q30 0 39.5 -13.5t9.5 -30.5v-127q0 -20 -10 -33t-39 -13h-52zM445 855q-21 5 -44 9.5t-50 4.5q-37 0 -63 -22.5t-26 -66.5q0 -38 35.5 -71.5t108.5 -33.5h80v-137h-437v137h115q-20 26 -37.5 62t-17.5 78q0 75 57 132t174 57q30 0 64.5 -4.5t62.5 -14.5z" />
    <glyph glyph-name="uni06C3.fina" unicode="&#x6c3;" horiz-adv-x="881" 
d="M543 217v166q0 106 -40 163t-119 57q-33 0 -64 -14t-55 -39.5t-39.5 -60.5t-15.5 -80q0 -53 17 -89.5t45.5 -59.5t65 -33t75.5 -10h130zM418 0q-114 0 -193 33t-129.5 85.5t-73 120t-22.5 136.5q0 88 30 167t82 139t125 94.5t160 34.5q80 0 146.5 -27.5t114 -76.5
t72.5 -117.5t25 -150.5v-221h133q27 0 38.5 -15t11.5 -36v-114q0 -15 -11.5 -33.5t-38.5 -18.5h-470zM134 1034q0 45 32 76.5t80 31.5q49 0 80.5 -31.5t31.5 -76.5q0 -46 -31.5 -77t-80.5 -31q-48 0 -80 31t-32 77zM425 1034q0 45 32 76.5t81 31.5q48 0 80 -31.5t32 -76.5
q0 -46 -32 -77t-80 -31q-49 0 -81 31t-32 77z" />
    <glyph glyph-name="uni06C4.fina" unicode="&#x6c4;" horiz-adv-x="1059" 
d="M669 217v166q0 106 -42 163t-117 57q-33 0 -64 -14t-56 -39.5t-40 -60.5t-15 -80q0 -53 16.5 -89.5t44.5 -59.5t65.5 -33t76.5 -10h131zM509 -196h74v71q0 47 -17.5 72t-52.5 25q-13 0 -26.5 -6.5t-24 -17.5t-17.5 -26.5t-7 -34.5q0 -23 7.5 -39t20 -26t28.5 -14
q7 -2 15 -4zM879 217h184q30 0 40.5 -15t10.5 -36v-114q0 -15 -11.5 -33.5t-39.5 -18.5h-184q0 -89 -35.5 -172.5t-99.5 -134.5t-153 -75t-194 -24q-40 0 -87.5 2.5t-105.5 11.5l15 209q55 -7 104 -11q20 -2 37 -3q-2 6 -3 10q-10 29 -10 59q0 39 12.5 73t35.5 60t55 41
t70 15q35 0 63.5 -12t49 -33t31.5 -51q4 -11 7 -21v56q-1 32 -11 58q-11 29 -31.5 50.5t-49 33.5t-63.5 12q-37 0 -68.5 -15t-55 -40.5t-35.5 -60.5q-1 -3 -2 -7l-6 2q-80 33 -129 85.5t-71.5 120t-22.5 136.5q0 88 28.5 167t81 139t125.5 94.5t160 34.5q82 0 148 -27.5
t113 -76.5t72 -117.5t25 -150.5v-221z" />
    <glyph glyph-name="uni06CA.fina" unicode="&#x6ca;" horiz-adv-x="1057" 
d="M667 217v166q0 106 -42 163t-116 57q-34 0 -65 -14t-55 -39.5t-39 -60.5t-15 -80q0 -53 16.5 -89.5t45 -59.5t65 -33t75.5 -10h130zM878 0q-6 -108 -43.5 -185.5t-100.5 -126t-148.5 -71.5t-188.5 -23q-43 0 -90 2.5t-103 11.5l15 209q55 -7 103 -11t84 -4q53 0 99 7.5
t82.5 29t58 59.5t23.5 102h-125q-116 0 -195 33t-128.5 85.5t-72 120t-22.5 136.5q0 88 28.5 167t81 139t124.5 94.5t160 34.5q83 0 149.5 -27.5t113 -76.5t71 -117.5t24.5 -150.5v-221h183q30 0 41 -15t11 -36v-114q0 -15 -12 -33.5t-40 -18.5h-183zM250 1045q0 45 31.5 76
t80.5 31q48 0 80 -31t32 -76q0 -46 -32 -77t-80 -31q-49 0 -80.5 31t-31.5 77zM541 1045q0 45 31.5 76t80.5 31q48 0 80 -31t32 -76q0 -46 -32 -77t-80 -31q-49 0 -80.5 31t-31.5 77z" />
    <glyph glyph-name="uni06CD.fina" unicode="&#x6cd;" horiz-adv-x="1997" 
d="M365 444l176 -102q-43 -64 -62.5 -124.5t-19.5 -110.5q0 -62 24 -113t71.5 -88.5t117.5 -59.5t159 -22t164 18t130 52.5t85 86t30 116.5v645h259q198 0 291 -95t93 -287v-143h120q26 0 38.5 -15t12.5 -36v-114q0 -15 -12.5 -33.5t-38.5 -18.5h-332v340q0 63 -12 101
t-37.5 58.5t-63.5 27.5t-88 7h-18v-394q0 -112 -37 -210t-115.5 -170.5t-199.5 -115.5t-287 -43q-151 0 -259.5 44.5t-177.5 115t-101.5 157.5t-32.5 175q0 29 2 57q-39 -22 -65 -34q-70 -35 -176 -60l14 215q29 11 59 21q74 27 150.5 61.5t138.5 90.5z" />
    <glyph glyph-name="uni06CE.init" unicode="&#x6ce;" horiz-adv-x="602" 
d="M-7 0q-25 0 -36.5 15t-11.5 33v111q0 20 12.5 39t35.5 19h256v525h213v-742h-469zM9 -235q0 45 31.5 76t80.5 31q48 0 79.5 -31t31.5 -76q0 -47 -31.5 -77.5t-79.5 -30.5q-49 0 -80.5 30.5t-31.5 77.5zM298 -235q0 45 31.5 76t80.5 31q48 0 80 -31t32 -76
q0 -47 -32 -77.5t-80 -30.5q-49 0 -80.5 30.5t-31.5 77.5zM355 865l-134 142q-25 26 -37 56q-11 28 -11 68h103q1 -71 79 -150q78 79 79 150h103q0 -40 -11 -68q-13 -30 -38 -56z" />
    <glyph glyph-name="uni06CE.medi" unicode="&#x6ce;" horiz-adv-x="678" 
d="M-5 0q-32 0 -41 15t-9 33v111q0 20 12.5 39t37.5 19h180q41 0 55 26t14 70v429h212v-354q0 -75 35.5 -123t128.5 -48h66q32 0 41 -15t9 -36v-114q0 -15 -12 -33.5t-38 -18.5h-71q-82 0 -131.5 39t-75.5 86q-32 -54 -89 -89.5t-135 -35.5h-189zM93 -235q0 45 31 76t81 31
q48 0 80 -31t32 -76q0 -47 -32 -77.5t-80 -30.5q-50 0 -81 30.5t-31 77.5zM381 -235q0 45 32 76t80 31q49 0 80.5 -31t31.5 -76q0 -47 -31.5 -77.5t-80.5 -30.5q-48 0 -80 30.5t-32 77.5zM346 865l-134 142q-25 26 -37 56q-11 28 -11 68h103q1 -71 79 -150q78 79 79 150h103
q0 -40 -11 -68q-13 -30 -38 -56z" />
    <glyph glyph-name="uni06CE.fina" unicode="&#x6ce;" horiz-adv-x="1761" 
d="M1434 0v340q0 63 -12 101t-37 58.5t-63.5 27.5t-88.5 7h-17v-394q0 -112 -37.5 -210t-116 -170.5t-199.5 -115.5t-287 -43q-151 0 -259.5 44.5t-177 115t-101.5 157.5t-33 175q0 101 34.5 186.5t88.5 164.5l176 -102q-43 -64 -62.5 -124.5t-19.5 -110.5q0 -62 24 -113
t71.5 -88.5t117.5 -59.5t159 -22q90 0 164.5 18t129.5 52.5t85 86t30 116.5v645h259q198 0 291.5 -95t93.5 -287v-143h119q26 0 38.5 -15t12.5 -36v-114q0 -15 -12.5 -33.5t-38.5 -18.5h-332zM354 582l-134 142q-25 27 -37 57q-11 27 -11 67h103q1 -71 79 -149q78 78 79 149
h103q0 -40 -11 -67q-13 -30 -38 -57z" />
    <glyph glyph-name="uni06CF.fina" unicode="&#x6cf;" horiz-adv-x="1057" 
d="M667 217v166q0 106 -42 163t-116 57q-34 0 -65 -14t-55 -39.5t-39 -60.5t-15 -80q0 -53 16.5 -89.5t45 -59.5t65 -33t75.5 -10h130zM878 0q-6 -108 -43.5 -185.5t-100.5 -126t-148.5 -71.5t-188.5 -23q-43 0 -90 2.5t-103 11.5l15 209q55 -7 103 -11t84 -4q53 0 99 7.5
t82.5 29t58 59.5t23.5 102h-125q-116 0 -195 33t-128.5 85.5t-72 120t-22.5 136.5q0 88 28.5 167t81 139t124.5 94.5t160 34.5q83 0 149.5 -27.5t113 -76.5t71 -117.5t24.5 -150.5v-221h183q30 0 41 -15t11 -36v-114q0 -15 -12 -33.5t-40 -18.5h-183zM394 1049q0 44 32.5 75
t80.5 31q47 0 80.5 -31t33.5 -75q0 -47 -33.5 -78t-80.5 -31q-48 0 -80.5 31t-32.5 78z" />
    <glyph glyph-name="uni06D1.init" unicode="&#x6d1;" horiz-adv-x="670" 
d="M-7 0q-25 0 -36.5 15t-11.5 33v111q0 20 12.5 39t35.5 19h316v525h213v-742h-529zM374 -477q0 -45 -32.5 -76t-81.5 -31q-46 0 -80 31t-34 76q0 46 34 76.5t80 30.5q49 0 81.5 -30.5t32.5 -76.5zM518 -237q0 -45 -32 -76.5t-80 -31.5t-80 31.5t-32 76.5t32 77t80 32
t80 -32t32 -77zM236 -237q0 -45 -31.5 -76.5t-80.5 -31.5t-80.5 31.5t-31.5 76.5t31.5 77t80.5 32t80.5 -32t31.5 -77z" />
    <glyph glyph-name="uni06D1.medi" unicode="&#x6d1;" horiz-adv-x="678" 
d="M-5 0q-32 0 -41 15t-9 33v111q0 20 12.5 39t37.5 19h180q41 0 55 26t14 70v429h212v-354q0 -75 35.5 -123t128.5 -48h66q32 0 41 -15t9 -36v-114q0 -15 -12 -33.5t-38 -18.5h-71q-82 0 -131.5 39t-75.5 86q-32 -54 -89 -89.5t-135 -35.5h-189zM393 -477q0 -45 -32.5 -76
t-81.5 -31q-46 0 -80 31t-34 76q0 46 34 76.5t80 30.5q49 0 81.5 -30.5t32.5 -76.5zM537 -237q0 -45 -32 -76.5t-80 -31.5q-49 0 -80.5 31.5t-31.5 76.5t31.5 77t80.5 32q48 0 80 -32t32 -77zM246 -237q0 -45 -32 -76.5t-80 -31.5q-49 0 -80.5 31.5t-31.5 76.5t31.5 77
t80.5 32q48 0 80 -32t32 -77z" />
    <glyph glyph-name="uni06D1.fina" unicode="&#x6d1;" horiz-adv-x="1761" 
d="M1434 0v340q0 63 -12 101t-37 58.5t-63.5 27.5t-88.5 7h-17v-394q0 -112 -37.5 -210t-116 -170.5t-199.5 -115.5t-287 -43q-151 0 -259.5 44.5t-177 115t-101.5 157.5t-33 175q0 101 34.5 186.5t88.5 164.5l176 -102q-43 -64 -62.5 -124.5t-19.5 -110.5q0 -62 24 -113
t71.5 -88.5t117.5 -59.5t159 -22q90 0 164.5 18t129.5 52.5t85 86t30 116.5v645h259q198 0 291.5 -95t93.5 -287v-143h119q26 0 38.5 -15t12.5 -36v-114q0 -15 -12.5 -33.5t-38.5 -18.5h-332zM702 -830q0 -45 -33 -76t-81 -31q-46 0 -80 31t-34 76q0 47 34 77.5t80 30.5
q48 0 81 -30.5t33 -77.5zM846 -589q0 -45 -32 -77t-80 -32t-80 32t-32 77q0 44 32 76t80 32t80 -32t32 -76zM563 -589q0 -45 -31 -77t-81 -32q-48 0 -79.5 32t-31.5 77q0 44 31.5 76t79.5 32q50 0 81 -32t31 -76z" />
    <glyph glyph-name="uni06D5.fina" unicode="&#x6d5;" horiz-adv-x="881" 
d="M543 217v166q0 106 -40 163t-119 57q-33 0 -64 -14t-55 -39.5t-39.5 -60.5t-15.5 -80q0 -53 17 -89.5t45.5 -59.5t65 -33t75.5 -10h130zM418 0q-114 0 -193 33t-129.5 85.5t-73 120t-22.5 136.5q0 88 30 167t82 139t125 94.5t160 34.5q80 0 146.5 -27.5t114 -76.5
t72.5 -117.5t25 -150.5v-221h133q27 0 38.5 -15t11.5 -36v-114q0 -15 -11.5 -33.5t-38.5 -18.5h-470z" />
    <glyph glyph-name="uni06EE.fina" unicode="&#x6ee;" horiz-adv-x="1006" 
d="M941 0q-78 0 -128.5 36.5t-78.5 84.5q-32 -57 -90.5 -89t-133.5 -32h-440v217h425q43 0 58 22t15 71q0 74 -5.5 131t-28 93.5t-66.5 55.5t-120 19h-177v205h220q108 0 183 -31t119.5 -85t64 -127.5t19.5 -159.5q0 -96 39 -145t130 -49h66q28 0 39.5 -15t11.5 -36v-114
q0 -15 -12.5 -33.5t-38.5 -18.5h-71zM546 1053q24 -26 37 -56q11 -28 11 -68h-103q-1 71 -79 150q-78 -79 -80 -150h-103q0 40 12 68q12 30 38 56l133 142z" />
    <glyph glyph-name="uni06EF.fina" unicode="&#x6ef;" horiz-adv-x="777" 
d="M726 0q-55 0 -99.5 24t-73.5 56v-50q0 -84 -22 -157t-67 -127t-110 -85t-151 -31q-34 0 -64.5 3t-53.5 7q-14 2 -26.5 4t-23.5 5l23 213l52 -11q22 -4 47.5 -7t45.5 -3q82 0 110 52.5t28 152.5v696h212v-354q0 -75 35 -123t132 -48h65q32 0 41.5 -15t9.5 -36v-114
q0 -15 -11.5 -33.5t-39.5 -18.5h-59zM597 1053q26 -26 38 -56q11 -28 11 -68h-103q-1 71 -79 150q-78 -79 -79 -150h-103q0 40 11 68q13 30 37 56l134 142z" />
    <glyph glyph-name="uni06FA.init" unicode="&#x6fa;" horiz-adv-x="1716" 
d="M-5 0q-27 0 -38.5 15t-11.5 33v111q0 20 12.5 39t37.5 19h322q43 0 55.5 26t12.5 70v256h213v-181q0 -75 35.5 -123t128.5 -48h47q42 0 55.5 24t13.5 72v329h212v-254q0 -75 35.5 -123t129.5 -48h110v525h211v-742h-326q-79 0 -127.5 38.5t-75.5 84.5q-31 -61 -91 -92
t-138 -31h-59q-84 0 -133 36.5t-74 82.5q-32 -57 -92.5 -88t-144.5 -31h-320zM878 1275q0 44 32.5 75t81.5 31q46 0 80 -31t34 -75q0 -47 -34 -78t-80 -31q-49 0 -81.5 31t-32.5 78zM734 1034q0 45 32 76.5t80 31.5t80 -31.5t32 -76.5q0 -46 -32 -77t-80 -31t-80 31t-32 77z
M1025 1034q0 45 31.5 76.5t81.5 31.5q48 0 80 -31.5t32 -76.5q0 -46 -32 -77t-80 -31q-50 0 -81.5 31t-31.5 77zM1104 -250q0 -44 -33 -75t-81 -31q-47 0 -80.5 31t-33.5 75q0 47 33.5 77.5t80.5 30.5q48 0 81 -30.5t33 -77.5z" />
    <glyph glyph-name="uni06FA.medi" unicode="&#x6fa;" horiz-adv-x="1814" 
d="M-3 0q-29 0 -40.5 15t-11.5 33v111q0 20 13 39t39 19h327q43 0 58 22t15 69v261h208v-181q0 -71 36 -121t130 -50h34q43 0 56 26t13 70v329h214v-254q0 -75 35.5 -123t129.5 -48h45q45 0 59 26t14 70v429h210v-354q0 -75 34.5 -123t127.5 -48h77q30 0 41.5 -15t11.5 -36
v-114q0 -15 -12.5 -33.5t-38.5 -18.5h-79q-83 0 -132.5 37.5t-75.5 85.5q-32 -59 -95.5 -91t-141.5 -32h-50q-85 0 -132.5 37.5t-71.5 83.5q-36 -61 -97.5 -91t-130.5 -30h-48q-81 0 -130 37.5t-73 83.5q-36 -61 -100 -91t-143 -30h-325zM885 1275q0 44 33 75t81 31
q47 0 80.5 -31t33.5 -75q0 -47 -33.5 -78t-80.5 -31q-48 0 -81 31t-33 78zM741 1034q0 45 32 76.5t80 31.5q49 0 80.5 -31.5t31.5 -76.5q0 -46 -31.5 -77t-80.5 -31q-48 0 -80 31t-32 77zM1033 1034q0 45 32 76.5t80 31.5t80 -31.5t32 -76.5q0 -46 -32 -77t-80 -31t-80 31
t-32 77zM1104 -241q0 -44 -33 -75t-81 -31q-47 0 -80.5 31t-33.5 75q0 47 33.5 77.5t80.5 30.5q48 0 81 -30.5t33 -77.5z" />
    <glyph glyph-name="uni06FA.fina" unicode="&#x6fa;" horiz-adv-x="2268" 
d="M2202 0q-64 0 -118 37.5t-86 85.5q-31 -59 -93 -91t-136 -32h-49q-78 0 -128.5 37.5t-76.5 83.5q-30 -55 -91.5 -88t-136.5 -33h-61q-105 0 -166 67q-8 -103 -49 -187.5t-109 -145t-162 -94.5t-210 -34q-153 0 -255 44t-163.5 114t-86.5 156.5t-25 170.5q0 90 31 182
t88 171l180 -102q-43 -64 -61.5 -126.5t-18.5 -124.5q0 -41 13.5 -87.5t49 -86.5t98 -67.5t158.5 -27.5q59 0 116 17t101 53.5t71 93.5t27 135v448h212v-181q0 -78 37.5 -124.5t127.5 -46.5h48q43 0 56 26t13 70v329h213v-254q0 -75 35.5 -123t129.5 -48h38q35 0 52 21.5
t17 74.5v429h213v-350q0 -95 40 -135t119 -40h71q31 0 40.5 -15t9.5 -36v-114q0 -15 -11.5 -33.5t-38.5 -18.5h-73zM1317 1275q0 44 33 75t81 31q47 0 80.5 -31t33.5 -75q0 -47 -33.5 -78t-80.5 -31q-48 0 -81 31t-33 78zM1173 1034q0 45 32 76.5t80 31.5q49 0 81 -31.5
t32 -76.5q0 -46 -32 -77t-81 -31q-48 0 -80 31t-32 77zM1465 1034q0 45 31.5 76.5t80.5 31.5q48 0 79.5 -31.5t31.5 -76.5q0 -46 -31.5 -77t-79.5 -31q-49 0 -80.5 31t-31.5 77zM1559 -241q0 -44 -33 -75t-81 -31q-47 0 -80.5 31t-33.5 75q0 47 33.5 77.5t80.5 30.5
q48 0 81 -30.5t33 -77.5z" />
    <glyph glyph-name="uni06FB.init" unicode="&#x6fb;" horiz-adv-x="1441" 
d="M1093 323q0 78 -17 131t-48 85t-74.5 46t-96.5 14q-61 0 -124.5 -27t-117.5 -77t-92.5 -120.5t-49.5 -157.5h620v106zM-5 0q-27 0 -38.5 15t-11.5 33v111q0 20 12.5 39t37.5 19h260v527h214v-156q79 103 189 160.5t224 57.5q104 0 183.5 -35.5t133.5 -98t81 -148.5
t27 -186v-338h-1312zM744 1034q0 45 32.5 76.5t78.5 31.5q49 0 81.5 -31.5t32.5 -76.5q0 -46 -32.5 -77t-81.5 -31q-46 0 -78.5 31t-32.5 77zM976 -241q0 -44 -32.5 -75t-81.5 -31q-46 0 -79.5 31t-33.5 75q0 47 33.5 77.5t79.5 30.5q49 0 81.5 -30.5t32.5 -77.5z" />
    <glyph glyph-name="uni06FB.medi" unicode="&#x6fb;" horiz-adv-x="1540" 
d="M1054 217q39 0 50 25t11 79q0 135 -65.5 206.5t-194.5 71.5q-72 0 -138.5 -30.5t-117.5 -84t-84.5 -122.5t-41.5 -145h581zM-7 0q-30 0 -39 15t-9 33v111q0 20 11.5 39t36.5 19h264v527h212v-156q67 91 173.5 154.5t237.5 63.5q103 0 185.5 -35.5t141.5 -98t91 -149.5
t32 -187q0 -65 42 -92t127 -27h49q31 0 41 -15t10 -36v-114q0 -15 -11.5 -33.5t-39.5 -18.5h-52q-81 0 -131.5 37.5t-75.5 83.5q-30 -61 -91.5 -91t-146.5 -30h-1058zM789 1034q0 45 32 76.5t80 31.5t81 -31.5t33 -76.5q0 -46 -33 -77t-81 -31t-80 31t-32 77zM976 -241
q0 -44 -32.5 -75t-81.5 -31q-46 0 -79.5 31t-33.5 75q0 47 33.5 77.5t79.5 30.5q49 0 81.5 -30.5t32.5 -77.5z" />
    <glyph glyph-name="uni06FB.fina" unicode="&#x6fb;" horiz-adv-x="2135" 
d="M1050 0q-18 -87 -63 -160t-112 -124.5t-155 -80.5t-192 -29q-153 0 -255 44t-162.5 114t-85.5 156.5t-25 170.5q0 90 30 182t88 171l181 -102q-43 -64 -62.5 -126.5t-19.5 -124.5q0 -41 13.5 -87.5t50 -86.5t98 -67.5t157.5 -27.5q59 0 116 17t102 53.5t72 93.5t27 135
v623h212v-156q67 91 174.5 154.5t236.5 63.5q103 0 186.5 -35.5t142.5 -98t92 -148.5t33 -186q0 -66 41 -93.5t130 -27.5h43q26 0 37 -15t11 -36v-114q0 -15 -13.5 -33.5t-34.5 -18.5h-50q-79 0 -127.5 38.5t-74.5 84.5q-32 -61 -94 -92t-147 -31h-601zM1651 217
q42 0 53.5 25t11.5 81q0 131 -65 203.5t-194 72.5q-72 0 -140.5 -30.5t-121.5 -84t-87.5 -122.5t-40.5 -145h584zM1360 1034q0 45 33 76.5t79 31.5q49 0 81.5 -31.5t32.5 -76.5q0 -46 -32.5 -77t-81.5 -31q-46 0 -79 31t-33 77zM1595 -241q0 -44 -32.5 -75t-81.5 -31
q-46 0 -80 31t-34 75q0 47 34 77.5t80 30.5q49 0 81.5 -30.5t32.5 -77.5z" />
    <glyph glyph-name="uni06FC.init" unicode="&#x6fc;" horiz-adv-x="939" 
d="M242 217q-49 43 -82.5 108t-33.5 149q0 67 22.5 130.5t71.5 114t125.5 80t183.5 29.5q43 0 93.5 -4.5t113.5 -13.5l-26 -213q-47 8 -84 11.5t-74 3.5q-101 0 -155.5 -47t-54.5 -125q0 -54 25.5 -96t66.5 -70t95 -42.5t112 -14.5h164v-217h-810q-29 0 -39.5 15t-10.5 33
v111q0 20 12.5 39t37.5 19h247zM374 1034q0 45 33 76.5t79 31.5q48 0 81 -31.5t33 -76.5q0 -46 -33 -77t-81 -31q-46 0 -79 31t-33 77zM359 -235q0 45 32.5 76t80.5 31q47 0 80 -31t33 -76q0 -47 -33 -77.5t-80 -30.5q-48 0 -80.5 30.5t-32.5 77.5z" />
    <glyph glyph-name="uni06FC.medi" unicode="&#x6fc;" horiz-adv-x="997" 
d="M545 616q-61 0 -130 -16t-112 -42q7 -17 27.5 -49t50.5 -69t65 -72t70 -60q41 25 77.5 58t62.5 68.5t41 69.5t15 59q0 16 -15 26t-39 15.5t-53.5 8.5t-59.5 3zM-5 0q-27 0 -38.5 15t-11.5 33v111q0 20 12.5 39t37.5 19h191q41 0 72.5 3.5t53.5 9.5q-33 31 -66.5 70.5
t-62 77.5t-49 72.5t-27.5 56.5l-7 150q41 34 93.5 63.5t111 51.5t120 35.5t123.5 13.5q95 0 164 -19.5t114 -51.5t67 -70t22 -73q0 -79 -41 -176t-160 -209q39 -5 130 -5h159q30 0 41.5 -15t11.5 -36v-114q0 -15 -12.5 -33.5t-40.5 -18.5h-162q-125 0 -209 26t-129 52
q-71 -41 -154 -59.5t-163 -18.5h-191zM390 1034q0 45 33 76.5t80 31.5q49 0 81 -31.5t32 -76.5q0 -46 -32 -77t-81 -31q-47 0 -80 31t-33 77zM395 -235q0 45 33 76t81 31q46 0 79 -31t33 -76q0 -47 -33 -77.5t-79 -30.5q-48 0 -81 30.5t-33 77.5z" />
    <glyph glyph-name="uni06FC.fina" unicode="&#x6fc;" horiz-adv-x="943" 
d="M-1 -212q0 87 26 154t68.5 118.5t93.5 89t101 65.5q-31 29 -65 66.5t-64 76.5t-52 77.5t-33 71.5l-9 148q46 39 104 70.5t117.5 52.5t118.5 32t109 11q88 0 156 -19t115.5 -49.5t72 -68.5t24.5 -77q0 -32 -9 -74t-31 -91.5t-63 -105.5t-107 -116q19 -3 48 -3h75h151
q27 0 39 -15t12 -36v-114q0 -15 -12 -33.5t-39 -18.5h-153q-111 0 -196 26t-133 52q-47 -22 -89.5 -48t-76.5 -60t-53.5 -76t-19.5 -97q0 -96 64 -154t193 -58q23 0 51.5 4.5t57 10t53.5 11.5t40 12l29 -194q-14 -8 -43 -16t-66 -15.5t-79.5 -12.5t-81.5 -5
q-80 0 -159.5 23.5t-143 73t-102.5 126t-39 185.5zM508 616q-30 0 -64 -4.5t-67 -12.5t-62 -19t-49 -24q13 -26 36 -59.5t51.5 -69t61 -68.5t63.5 -55q38 22 73.5 56t62.5 70t43.5 72t16.5 61q0 16 -13.5 26t-38 15.5t-54.5 8.5t-60 3zM378 1034q0 45 32.5 76.5t79.5 31.5
q48 0 81 -31.5t33 -76.5q0 -46 -33 -77t-81 -31q-47 0 -79.5 31t-32.5 77zM377 -199q0 45 33 76t81 31q46 0 79 -31t33 -76q0 -46 -33 -77t-79 -31q-48 0 -81 31t-33 77z" />
    <glyph glyph-name="uni06FF.init" unicode="&#x6ff;" horiz-adv-x="1384" 
d="M628 595q-103 -18 -163.5 -111.5t-60.5 -244.5v-22h224v378zM818 217h218v52q0 149 -61.5 227.5t-156.5 98.5v-378zM-7 0q-30 0 -39 15t-9 33v111q0 20 12.5 39t35.5 19h210q0 117 31.5 217t87.5 175.5t134 124t172 62.5v112h190v-112q220 -29 326 -174.5t106 -370.5
v-251h-1257zM859 1155q25 -26 38 -56q11 -28 11 -68h-103q-1 71 -79 150q-79 -79 -80 -150h-102q0 40 10 68q13 30 38 56l134 142z" />
    <glyph glyph-name="uni06FF.medi" unicode="&#x6ff;" horiz-adv-x="1045" 
d="M383 217h168q31 0 55.5 18.5t40.5 49t24.5 72.5t8.5 88q0 72 -36.5 117t-96.5 45q-26 0 -54 -12.5t-53 -47t-41 -96t-16 -158.5v-76zM390 0v-155q0 -67 18 -113.5t45 -75t60.5 -40t65.5 -11.5q64 0 103 42.5t39 98.5q0 28 -13.5 61.5t-34.5 68.5t-50 67t-61 57h-172zM2 0
q-27 0 -38.5 15t-11.5 33v111q0 20 12.5 39t37.5 19h189v104q0 119 31 210.5t82 154t119 94.5t145 32q139 0 223.5 -88t84.5 -247q0 -80 -23.5 -148.5t-53.5 -111.5h244q30 0 41 -15t11 -36v-114q0 -15 -11.5 -33.5t-40.5 -18.5h-220q39 -54 65.5 -118.5t26.5 -118.5
q0 -76 -24 -141.5t-69.5 -114t-107.5 -76.5t-139 -28q-103 0 -174.5 36.5t-117.5 96.5t-66.5 135t-20.5 156v173h-194zM679 1065q26 -26 38 -56q11 -28 11 -68h-103q-1 71 -79 150q-78 -79 -79 -150h-103q0 40 11 68q12 30 37 56l134 142z" />
    <glyph glyph-name="uni06FF.fina" unicode="&#x6ff;" horiz-adv-x="1173" 
d="M518 217h141q41 0 72 17t51.5 45.5t29.5 64t9 71.5q0 94 -41 143t-107 49q-27 0 -55.5 -11.5t-50.5 -37.5t-35.5 -70t-13.5 -107v-164zM700 -395q63 0 109 40t46 118q0 20 -9.5 51t-25.5 65t-39.5 66t-50.5 55h-203v-222q0 -49 13.5 -82.5t38 -54t56 -28.5t65.5 -8z
M326 217v203q0 95 30 168.5t80.5 123.5t115 75t135.5 25q70 0 130 -24.5t104 -69.5t68 -106.5t24 -134.5q0 -76 -25 -146t-51 -114h242q30 0 40.5 -15t10.5 -36v-114q0 -15 -11.5 -33.5t-39.5 -18.5h-220q43 -54 67 -121.5t24 -145.5q0 -66 -22 -125.5t-67 -105t-112 -72.5
t-155 -27q-95 0 -164 29.5t-112.5 79.5t-64 111.5t-20.5 122.5v254h-61q-62 0 -80.5 -40t-18.5 -108h-125q-20 32 -34 75t-14 84q0 62 18 102t47.5 62.5t67.5 32t82 9.5h111zM806 1065q26 -26 39 -56q10 -28 10 -68h-102q-1 71 -80 150q-78 -79 -79 -150h-103q0 40 11 68
q13 30 37 56l134 142z" />
    <glyph glyph-name="uniFB50" unicode="&#x671;" horiz-adv-x="486" arabic-form="isolated" 
d="M25 1551h97v110h81q22 25 52 41t61 16q62 0 100 -40t38 -99v-112h-429v84zM370 1563q0 36 -16.5 53.5t-43.5 17.5q-29 0 -55.5 -23t-39.5 -60h155v12zM137 1336h211v-1336h-211v1336z" />
    <glyph glyph-name="uniFB51" unicode="&#x671;" horiz-adv-x="475" arabic-form="final" 
d="M20 1551h97v110h81q22 25 52 41t61 16q62 0 100 -40t38 -99v-112h-429v84zM365 1563q0 36 -16.5 53.5t-43.5 17.5q-29 0 -55.5 -23t-39.5 -60h155v12zM139 1336h214v-1119h126q30 0 41 -15t11 -36v-114q0 -15 -13 -33.5t-39 -18.5h-340v1336z" />
    <glyph glyph-name="uniFB52" unicode="&#x67b;" horiz-adv-x="1533" arabic-form="isolated" 
d="M289 0q-82 0 -138 22.5t-89.5 59.5t-47.5 87.5t-14 104.5v315h212v-277q0 -61 21 -78t69 -17h868v525h215v-742h-1096zM711 -637q-45 0 -76 31.5t-31 79.5q0 50 31 81t76 31q46 0 77 -31t31 -81q0 -48 -31 -79.5t-77 -31.5zM711 -348q-45 0 -76 32t-31 80t31 80t76 32
q46 0 77 -32t31 -80t-31 -80t-77 -32z" />
    <glyph glyph-name="uniFB53" unicode="&#x67b;" horiz-adv-x="1624" arabic-form="final" 
d="M1555 0q-80 0 -127.5 36.5t-73.5 84.5q-32 -59 -91.5 -90t-138.5 -31h-858q-73 0 -123.5 22.5t-81 59.5t-44.5 87.5t-14 104.5v315h212v-277q0 -52 15 -73.5t49 -21.5h838q43 0 56 26t13 70v429h213v-354q0 -75 34.5 -123t127.5 -48h69q28 0 39 -15t11 -36v-114
q0 -15 -11.5 -33.5t-38.5 -18.5h-75zM710 -637q-45 0 -76 31.5t-31 79.5q0 50 31 81t76 31q46 0 76.5 -31t30.5 -81q0 -48 -30.5 -79.5t-76.5 -31.5zM710 -348q-45 0 -76 32t-31 80t31 80t76 32q46 0 76.5 -32t30.5 -80t-30.5 -80t-76.5 -32z" />
    <glyph glyph-name="uniFB54" unicode="&#x67b;" horiz-adv-x="610" arabic-form="initial" 
d="M-7 0q-25 0 -36.5 15t-11.5 33v111q0 20 12.5 39t35.5 19h256v525h213v-742h-469zM353 -640q-44 0 -75 31t-31 80t31 80.5t75 31.5q47 0 78 -31.5t31 -80.5t-31 -80t-78 -31zM353 -352q-44 0 -75 32t-31 80q0 49 31 80.5t75 31.5q47 0 78 -31.5t31 -80.5q0 -48 -31 -80
t-78 -32z" />
    <glyph glyph-name="uniFB55" unicode="&#x67b;" horiz-adv-x="678" arabic-form="medial" 
d="M-5 0q-32 0 -41 15t-9 33v111q0 20 12.5 39t37.5 19h180q41 0 55 26t14 70v429h212v-354q0 -75 35.5 -123t128.5 -48h66q32 0 41 -15t9 -36v-114q0 -15 -12 -33.5t-38 -18.5h-71q-82 0 -131.5 39t-75.5 86q-32 -54 -89 -89.5t-135 -35.5h-189zM321 -640q-44 0 -75 31
t-31 80t31 80.5t75 31.5q47 0 78 -31.5t31 -80.5t-31 -80t-78 -31zM321 -352q-44 0 -75 32t-31 80q0 49 31 80.5t75 31.5q47 0 78 -31.5t31 -80.5q0 -48 -31 -80t-78 -32z" />
    <glyph glyph-name="uniFB56" unicode="&#x67e;" horiz-adv-x="1533" arabic-form="isolated" 
d="M289 0q-82 0 -138 22.5t-89.5 59.5t-47.5 87.5t-14 104.5v315h212v-277q0 -61 21 -78t69 -17h868v525h215v-742h-1096zM842 -477q0 -45 -33 -76t-81 -31q-47 0 -80.5 31t-33.5 76q0 46 33.5 76.5t80.5 30.5q48 0 81 -30.5t33 -76.5zM985 -237q0 -45 -31.5 -76.5
t-80.5 -31.5t-80 31.5t-31 76.5t31 77t80 32t80.5 -32t31.5 -77zM694 -237q0 -45 -32 -76.5t-80 -31.5t-80 31.5t-32 76.5t32 77t80 32t80 -32t32 -77z" />
    <glyph glyph-name="uniFB57" unicode="&#x67e;" horiz-adv-x="1624" arabic-form="final" 
d="M1555 0q-80 0 -127.5 36.5t-73.5 84.5q-32 -59 -91.5 -90t-138.5 -31h-858q-73 0 -123.5 22.5t-81 59.5t-44.5 87.5t-14 104.5v315h212v-277q0 -52 15 -73.5t49 -21.5h838q43 0 56 26t13 70v429h213v-354q0 -75 34.5 -123t127.5 -48h69q28 0 39 -15t11 -36v-114
q0 -15 -11.5 -33.5t-38.5 -18.5h-75zM813 -477q0 -45 -33 -76t-81 -31q-46 0 -80 31t-34 76q0 46 34 76.5t80 30.5q48 0 81 -30.5t33 -76.5zM957 -237q0 -45 -32 -76.5t-80 -31.5q-49 0 -80.5 31.5t-31.5 76.5t31.5 77t80.5 32q48 0 80 -32t32 -77zM665 -237
q0 -45 -31.5 -76.5t-80.5 -31.5q-48 0 -80 31.5t-32 76.5t32 77t80 32q49 0 80.5 -32t31.5 -77z" />
    <glyph glyph-name="uniFB58" unicode="&#x67e;" horiz-adv-x="670" arabic-form="initial" 
d="M-7 0q-25 0 -36.5 15t-11.5 33v111q0 20 12.5 39t35.5 19h316v525h213v-742h-529zM374 -477q0 -45 -32.5 -76t-81.5 -31q-46 0 -80 31t-34 76q0 46 34 76.5t80 30.5q49 0 81.5 -30.5t32.5 -76.5zM518 -237q0 -45 -32 -76.5t-80 -31.5t-80 31.5t-32 76.5t32 77t80 32
t80 -32t32 -77zM236 -237q0 -45 -31.5 -76.5t-80.5 -31.5t-80.5 31.5t-31.5 76.5t31.5 77t80.5 32t80.5 -32t31.5 -77z" />
    <glyph glyph-name="uniFB59" unicode="&#x67e;" horiz-adv-x="678" arabic-form="medial" 
d="M-5 0q-32 0 -41 15t-9 33v111q0 20 12.5 39t37.5 19h180q41 0 55 26t14 70v429h212v-354q0 -75 35.5 -123t128.5 -48h66q32 0 41 -15t9 -36v-114q0 -15 -12 -33.5t-38 -18.5h-71q-82 0 -131.5 39t-75.5 86q-32 -54 -89 -89.5t-135 -35.5h-189zM393 -477q0 -45 -32.5 -76
t-81.5 -31q-46 0 -80 31t-34 76q0 46 34 76.5t80 30.5q49 0 81.5 -30.5t32.5 -76.5zM537 -237q0 -45 -32 -76.5t-80 -31.5q-49 0 -80.5 31.5t-31.5 76.5t31.5 77t80.5 32q48 0 80 -32t32 -77zM246 -237q0 -45 -32 -76.5t-80 -31.5q-49 0 -80.5 31.5t-31.5 76.5t31.5 77
t80.5 32q48 0 80 -32t32 -77z" />
    <glyph glyph-name="uniFB5A" unicode="&#x680;" horiz-adv-x="1533" arabic-form="isolated" 
d="M289 0q-82 0 -138 22.5t-89.5 59.5t-47.5 87.5t-14 104.5v315h212v-277q0 -61 21 -78t69 -17h868v525h215v-742h-1096zM469 -239q0 45 32 76.5t80 31.5q49 0 80.5 -31.5t31.5 -76.5t-31.5 -76.5t-80.5 -31.5q-48 0 -80 31.5t-32 76.5zM761 -239q0 45 31.5 76.5t80.5 31.5
q48 0 80 -31.5t32 -76.5t-32 -76.5t-80 -31.5q-49 0 -80.5 31.5t-31.5 76.5zM477 -494q0 45 32 76.5t80 31.5q50 0 81 -31.5t31 -76.5t-31 -76.5t-81 -31.5q-48 0 -80 31.5t-32 76.5zM769 -494q0 45 32 76.5t80 31.5t80 -31.5t32 -76.5t-32 -76.5t-80 -31.5t-80 31.5
t-32 76.5z" />
    <glyph glyph-name="uniFB5B" unicode="&#x680;" horiz-adv-x="1624" arabic-form="final" 
d="M1555 0q-80 0 -127.5 36.5t-73.5 84.5q-32 -59 -91.5 -90t-138.5 -31h-858q-73 0 -123.5 22.5t-81 59.5t-44.5 87.5t-14 104.5v315h212v-277q0 -52 15 -73.5t49 -21.5h838q43 0 56 26t13 70v429h213v-354q0 -75 34.5 -123t127.5 -48h69q28 0 39 -15t11 -36v-114
q0 -15 -11.5 -33.5t-38.5 -18.5h-75zM441 -239q0 45 32 76.5t80 31.5q49 0 80.5 -31.5t31.5 -76.5t-31.5 -76.5t-80.5 -31.5q-48 0 -80 31.5t-32 76.5zM733 -239q0 45 32 76.5t80 31.5t80 -31.5t32 -76.5t-32 -76.5t-80 -31.5t-80 31.5t-32 76.5zM449 -494q0 45 32 76.5
t80 31.5q50 0 81.5 -31.5t31.5 -76.5t-31.5 -76.5t-81.5 -31.5q-48 0 -80 31.5t-32 76.5zM741 -494q0 45 32 76.5t80 31.5t80 -31.5t32 -76.5t-32 -76.5t-80 -31.5t-80 31.5t-32 76.5z" />
    <glyph glyph-name="uniFB5C" unicode="&#x680;" horiz-adv-x="676" arabic-form="initial" 
d="M-7 0q-25 0 -36.5 15t-11.5 33v111q0 20 12.5 39t35.5 19h316v525h213v-742h-529zM4 -239q0 45 32 76.5t80 31.5q49 0 80.5 -31.5t31.5 -76.5t-31.5 -76.5t-80.5 -31.5q-48 0 -80 31.5t-32 76.5zM296 -239q0 45 32 76.5t80 31.5t80 -31.5t32 -76.5t-32 -76.5t-80 -31.5
t-80 31.5t-32 76.5zM12 -494q0 45 32 76.5t80 31.5q50 0 81.5 -31.5t31.5 -76.5t-31.5 -76.5t-81.5 -31.5q-48 0 -80 31.5t-32 76.5zM304 -494q0 45 32 76.5t80 31.5t80 -31.5t32 -76.5t-32 -76.5t-80 -31.5t-80 31.5t-32 76.5z" />
    <glyph glyph-name="uniFB5D" unicode="&#x680;" horiz-adv-x="678" arabic-form="medial" 
d="M-5 0q-32 0 -41 15t-9 33v111q0 20 12.5 39t37.5 19h180q41 0 55 26t14 70v429h212v-354q0 -75 35.5 -123t128.5 -48h66q32 0 41 -15t9 -36v-114q0 -15 -12 -33.5t-38 -18.5h-71q-82 0 -131.5 39t-75.5 86q-32 -54 -89 -89.5t-135 -35.5h-189zM22 -239q0 45 32 76.5
t80 31.5q50 0 81.5 -31.5t31.5 -76.5t-31.5 -76.5t-81.5 -31.5q-48 0 -80 31.5t-32 76.5zM314 -239q0 45 32 76.5t80 31.5t80 -31.5t32 -76.5t-32 -76.5t-80 -31.5t-80 31.5t-32 76.5zM31 -494q0 45 31.5 76.5t80.5 31.5t80.5 -31.5t31.5 -76.5t-31.5 -76.5t-80.5 -31.5
t-80.5 31.5t-31.5 76.5zM322 -494q0 45 32 76.5t80 31.5q49 0 80.5 -31.5t31.5 -76.5t-31.5 -76.5t-80.5 -31.5q-48 0 -80 31.5t-32 76.5z" />
    <glyph glyph-name="uniFB5E" unicode="&#x67a;" horiz-adv-x="1533" arabic-form="isolated" 
d="M289 0q-82 0 -138 22.5t-89.5 59.5t-47.5 87.5t-14 104.5v315h212v-277q0 -61 21 -78t69 -17h868v525h215v-742h-1096zM620 1020q0 45 33 76t81 31q47 0 80.5 -31t33.5 -76q0 -46 -33.5 -77t-80.5 -31q-48 0 -81 31t-33 77zM618 1275q0 44 32.5 75t81.5 31q46 0 79.5 -31
t33.5 -75q0 -47 -33.5 -78t-79.5 -31q-49 0 -81.5 31t-32.5 78z" />
    <glyph glyph-name="uniFB5F" unicode="&#x67a;" horiz-adv-x="1624" arabic-form="final" 
d="M1555 0q-80 0 -127.5 36.5t-73.5 84.5q-32 -59 -91.5 -90t-138.5 -31h-858q-73 0 -123.5 22.5t-81 59.5t-44.5 87.5t-14 104.5v315h212v-277q0 -52 15 -73.5t49 -21.5h838q43 0 56 26t13 70v429h213v-354q0 -75 34.5 -123t127.5 -48h69q28 0 39 -15t11 -36v-114
q0 -15 -11.5 -33.5t-38.5 -18.5h-75zM620 1020q0 45 32 76t82 31q46 0 80 -31t34 -76q0 -46 -34 -77t-80 -31q-50 0 -82 31t-32 77zM617 1275q0 44 32.5 75t81.5 31q46 0 80 -31t34 -75q0 -47 -34 -78t-80 -31q-49 0 -81.5 31t-32.5 78z" />
    <glyph glyph-name="uniFB60" unicode="&#x67a;" horiz-adv-x="610" arabic-form="initial" 
d="M-7 0q-25 0 -36.5 15t-11.5 33v111q0 20 12.5 39t35.5 19h256v525h213v-742h-469zM235 1020q0 45 32.5 76t81.5 31q46 0 79.5 -31t33.5 -76q0 -46 -33.5 -77t-79.5 -31q-49 0 -81.5 31t-32.5 77zM234 1275q0 44 33 75t81 31q46 0 80 -31t34 -75q0 -47 -34 -78t-80 -31
q-48 0 -81 31t-33 78z" />
    <glyph glyph-name="uniFB61" unicode="&#x67a;" horiz-adv-x="678" arabic-form="medial" 
d="M-5 0q-32 0 -41 15t-9 33v111q0 20 12.5 39t37.5 19h180q41 0 55 26t14 70v429h212v-354q0 -75 35.5 -123t128.5 -48h66q32 0 41 -15t9 -36v-114q0 -15 -12 -33.5t-38 -18.5h-71q-82 0 -131.5 39t-75.5 86q-32 -54 -89 -89.5t-135 -35.5h-189zM262 1020q0 45 33 76t81 31
q46 0 80 -31t34 -76q0 -46 -34 -77t-80 -31q-48 0 -81 31t-33 77zM259 1275q0 44 33 75t81 31q47 0 80.5 -31t33.5 -75q0 -47 -33.5 -78t-80.5 -31q-48 0 -81 31t-33 78z" />
    <glyph glyph-name="uniFB62" unicode="&#x67f;" horiz-adv-x="1533" arabic-form="isolated" 
d="M289 0q-82 0 -138 22.5t-89.5 59.5t-47.5 87.5t-14 104.5v315h212v-277q0 -61 21 -78t69 -17h868v525h215v-742h-1096zM473 1289q0 45 32 76.5t80 31.5q49 0 80.5 -31.5t31.5 -76.5t-31.5 -76.5t-80.5 -31.5q-48 0 -80 31.5t-32 76.5zM764 1289q0 45 32 76.5t80 31.5
q49 0 80.5 -31.5t31.5 -76.5t-31.5 -76.5t-80.5 -31.5q-48 0 -80 31.5t-32 76.5zM481 1034q0 45 32 76.5t80 31.5q49 0 80.5 -31.5t31.5 -76.5q0 -46 -31.5 -77t-80.5 -31q-48 0 -80 31t-32 77zM773 1034q0 45 31.5 76.5t80.5 31.5q48 0 80 -31.5t32 -76.5q0 -46 -32 -77
t-80 -31q-49 0 -80.5 31t-31.5 77z" />
    <glyph glyph-name="uniFB63" unicode="&#x67f;" horiz-adv-x="1624" arabic-form="final" 
d="M1555 0q-80 0 -127.5 36.5t-73.5 84.5q-32 -59 -91.5 -90t-138.5 -31h-858q-73 0 -123.5 22.5t-81 59.5t-44.5 87.5t-14 104.5v315h212v-277q0 -52 15 -73.5t49 -21.5h838q43 0 56 26t13 70v429h213v-354q0 -75 34.5 -123t127.5 -48h69q28 0 39 -15t11 -36v-114
q0 -15 -11.5 -33.5t-38.5 -18.5h-75zM463 1289q0 45 32 76.5t80 31.5t80 -31.5t32 -76.5t-32 -76.5t-80 -31.5t-80 31.5t-32 76.5zM755 1289q0 45 31 76.5t81 31.5q48 0 80 -31.5t32 -76.5t-32 -76.5t-80 -31.5q-50 0 -81 31.5t-31 76.5zM471 1034q0 45 32 76.5t80 31.5
q49 0 80.5 -31.5t31.5 -76.5q0 -46 -31.5 -77t-80.5 -31q-48 0 -80 31t-32 77zM763 1034q0 45 31.5 76.5t80.5 31.5q48 0 80 -31.5t32 -76.5q0 -46 -32 -77t-80 -31q-49 0 -80.5 31t-31.5 77z" />
    <glyph glyph-name="uniFB64" unicode="&#x67f;" horiz-adv-x="610" arabic-form="initial" 
d="M-7 0q-25 0 -36.5 15t-11.5 33v111q0 20 12.5 39t35.5 19h256v525h213v-742h-469zM381 1034q0 45 32 76.5t80 31.5q49 0 80.5 -31.5t31.5 -76.5q0 -46 -31.5 -77t-80.5 -31q-48 0 -80 31t-32 77zM83 1289q0 45 31 76.5t81 31.5q48 0 80 -31.5t32 -76.5t-32 -76.5
t-80 -31.5q-50 0 -81 31.5t-31 76.5zM373 1289q0 45 32 76.5t80 31.5q49 0 80.5 -31.5t31.5 -76.5t-31.5 -76.5t-80.5 -31.5q-48 0 -80 31.5t-32 76.5zM91 1034q0 45 31.5 76.5t80.5 31.5q48 0 80 -31.5t32 -76.5q0 -46 -32 -77t-80 -31q-49 0 -80.5 31t-31.5 77z" />
    <glyph glyph-name="uniFB65" unicode="&#x67f;" horiz-adv-x="678" arabic-form="medial" 
d="M-5 0q-32 0 -41 15t-9 33v111q0 20 12.5 39t37.5 19h180q41 0 55 26t14 70v429h212v-354q0 -75 35.5 -123t128.5 -48h66q32 0 41 -15t9 -36v-114q0 -15 -12 -33.5t-38 -18.5h-71q-82 0 -131.5 39t-75.5 86q-32 -54 -89 -89.5t-135 -35.5h-189zM109 1289q0 45 31.5 76.5
t80.5 31.5q48 0 80 -31.5t32 -76.5t-32 -76.5t-80 -31.5q-49 0 -80.5 31.5t-31.5 76.5zM400 1289q0 45 31.5 76.5t80.5 31.5q48 0 80 -31.5t32 -76.5t-32 -76.5t-80 -31.5q-49 0 -80.5 31.5t-31.5 76.5zM117 1034q0 45 31.5 76.5t80.5 31.5t80.5 -31.5t31.5 -76.5
q0 -46 -31.5 -77t-80.5 -31t-80.5 31t-31.5 77zM408 1034q0 45 32 76.5t80 31.5t80 -31.5t32 -76.5q0 -46 -32 -77t-80 -31t-80 31t-32 77z" />
    <glyph glyph-name="uniFB66" unicode="&#x679;" horiz-adv-x="1533" arabic-form="isolated" 
d="M289 0q-82 0 -138 22.5t-89.5 59.5t-47.5 87.5t-14 104.5v315h212v-277q0 -61 21 -78t69 -17h868v525h215v-742h-1096zM472 1029h71v395h91v-241q28 43 68 61.5t87 18.5q80 0 126 -48.5t46 -126.5v-148h-489v89zM871 1073q0 59 -25 80.5t-66 21.5q-48 0 -92 -38t-54 -108
h237v44z" />
    <glyph glyph-name="uniFB67" unicode="&#x679;" horiz-adv-x="1624" arabic-form="final" 
d="M1555 0q-80 0 -127.5 36.5t-73.5 84.5q-32 -59 -91.5 -90t-138.5 -31h-858q-73 0 -123.5 22.5t-81 59.5t-44.5 87.5t-14 104.5v315h212v-277q0 -52 15 -73.5t49 -21.5h838q43 0 56 26t13 70v429h213v-354q0 -75 34.5 -123t127.5 -48h69q28 0 39 -15t11 -36v-114
q0 -15 -11.5 -33.5t-38.5 -18.5h-75zM468 1029h71v395h91v-241q28 43 68 61.5t87 18.5q80 0 126 -48.5t46 -126.5v-148h-489v89zM867 1073q0 59 -25 80.5t-66 21.5q-49 0 -93 -38t-53 -108h237v44z" />
    <glyph glyph-name="uniFB68" unicode="&#x679;" horiz-adv-x="610" arabic-form="initial" 
d="M-7 0q-25 0 -36.5 15t-11.5 33v111q0 20 12.5 39t35.5 19h256v525h213v-742h-469zM94 1029h71v395h92v-241q28 43 68 61.5t86 18.5q81 0 126.5 -48.5t45.5 -126.5v-148h-489v89zM493 1073q0 59 -25 80.5t-66 21.5q-48 0 -92 -38t-53 -108h236v44z" />
    <glyph glyph-name="uniFB69" unicode="&#x679;" horiz-adv-x="678" arabic-form="medial" 
d="M-5 0q-32 0 -41 15t-9 33v111q0 20 12.5 39t37.5 19h180q41 0 55 26t14 70v429h212v-354q0 -75 35.5 -123t128.5 -48h66q32 0 41 -15t9 -36v-114q0 -15 -12 -33.5t-38 -18.5h-71q-82 0 -131.5 39t-75.5 86q-32 -54 -89 -89.5t-135 -35.5h-189zM85 1029h70v395h92v-241
q28 43 68.5 61.5t86.5 18.5q81 0 126.5 -48.5t45.5 -126.5v-148h-489v89zM484 1073q0 59 -25 80.5t-66 21.5q-49 0 -92.5 -38t-53.5 -108h237v44z" />
    <glyph glyph-name="uniFB6A" unicode="&#x6a4;" horiz-adv-x="1738" arabic-form="isolated" 
d="M896 217q-15 20 -32 68t-17 121q0 77 29.5 150t84 129t131 90.5t169.5 34.5q163 0 253 -100t90 -265v-445h-1335q-54 0 -103.5 16t-86 50.5t-58 87.5t-21.5 129v324h215v-286q0 -65 20.5 -84.5t46.5 -19.5h614zM1392 217v239q0 25 -8.5 51.5t-27.5 48t-47.5 34.5
t-69.5 13q-36 0 -68.5 -14t-57.5 -39.5t-40 -60.5t-15 -80q0 -67 26.5 -105.5t57.5 -59.5q35 -22 86 -27h164zM1150 1275q0 44 32 75t81 31q47 0 80.5 -31t33.5 -75q0 -47 -33.5 -78t-80.5 -31q-49 0 -81 31t-32 78zM1006 1034q0 45 32 76.5t80 31.5t80 -31.5t32 -76.5
q0 -46 -32 -77t-80 -31t-80 31t-32 77zM1296 1034q0 45 32 76.5t80 31.5q49 0 81 -31.5t32 -76.5q0 -46 -32 -77t-81 -31q-48 0 -80 31t-32 77z" />
    <glyph glyph-name="uniFB6B" unicode="&#x6a4;" horiz-adv-x="1771" arabic-form="final" 
d="M1597 217h183q26 0 37 -15t11 -36v-114q0 -15 -12 -33.5t-36 -18.5h-1509q-56 0 -105.5 16t-86 50.5t-58 87.5t-21.5 129v324h215v-286q0 -65 19.5 -84.5t48.5 -19.5h603q-15 20 -31.5 68t-16.5 121q0 77 29.5 150t84 129t130 90.5t168.5 34.5q80 0 144.5 -26.5
t109.5 -74t69 -114.5t24 -150v-228zM1383 217v239q0 25 -8.5 51.5t-27.5 48t-47.5 34.5t-67.5 13q-36 0 -68.5 -14t-58 -39.5t-40.5 -60.5t-15 -80q0 -67 26 -105.5t58 -59.5q36 -22 86 -27h163zM1145 1275q0 44 33 75t81 31q47 0 80.5 -31t33.5 -75q0 -47 -33.5 -78
t-80.5 -31q-48 0 -81 31t-33 78zM1002 1034q0 45 31.5 76.5t80.5 31.5q48 0 80 -31.5t32 -76.5q0 -46 -32 -77t-80 -31q-49 0 -80.5 31t-31.5 77zM1293 1034q0 45 32 76.5t80 31.5t80 -31.5t32 -76.5q0 -46 -32 -77t-80 -31t-80 31t-32 77z" />
    <glyph glyph-name="uniFB6C" unicode="&#x6a4;" horiz-adv-x="1085" arabic-form="initial" 
d="M951 0h-956q-27 0 -38.5 15t-11.5 33v111q0 20 12.5 39t37.5 19h245q-15 20 -32 68t-17 121q0 77 30 150t84.5 129t131 90.5t168.5 34.5q81 0 144 -26.5t108 -74t69.5 -114.5t24.5 -150v-445zM736 217v239q0 25 -8.5 51.5t-27 48t-47.5 34.5t-68 13q-35 0 -68 -14
t-58 -39.5t-41 -60.5t-16 -80q0 -67 27 -105.5t59 -59.5q36 -22 86 -27h162zM479 1275q0 44 32.5 75t81.5 31q46 0 80 -31t34 -75q0 -47 -34 -78t-80 -31q-49 0 -81.5 31t-32.5 78zM335 1034q0 45 32 76.5t80 31.5t80 -31.5t32 -76.5q0 -46 -32 -77t-80 -31t-80 31t-32 77z
M626 1034q0 45 31.5 76.5t80.5 31.5t80.5 -31.5t31.5 -76.5q0 -46 -31.5 -77t-80.5 -31t-80.5 31t-31.5 77z" />
    <glyph glyph-name="uniFB6D" unicode="&#x6a4;" horiz-adv-x="1116" arabic-form="medial" 
d="M943 217h181q30 0 40.5 -15t10.5 -36v-114q0 -15 -12.5 -33.5t-38.5 -18.5h-1129q-29 0 -39.5 15t-10.5 33v111q0 20 12.5 39t37.5 19h237q-13 20 -30.5 68t-17.5 121q0 77 30 150t83.5 129t131 90.5t171.5 34.5q78 0 141.5 -26.5t108 -74t69 -114.5t24.5 -150v-228z
M728 217v239q0 25 -8 51.5t-26.5 48t-47 34.5t-69.5 13q-35 0 -67.5 -14t-58 -39.5t-40 -60.5t-14.5 -80q0 -67 26 -105.5t58 -59.5q35 -22 85 -27h162zM462 1275q0 44 32.5 75t80.5 31q47 0 80.5 -31t33.5 -75q0 -47 -33.5 -78t-80.5 -31q-48 0 -80.5 31t-32.5 78z
M319 1034q0 45 31 76.5t80 31.5t80.5 -31.5t31.5 -76.5q0 -46 -31.5 -77t-80.5 -31t-80 31t-31 77zM609 1034q0 45 32 76.5t80 31.5t80 -31.5t32 -76.5q0 -46 -32 -77t-80 -31t-80 31t-32 77z" />
    <glyph glyph-name="uniFB6E" unicode="&#x6a6;" horiz-adv-x="1738" arabic-form="isolated" 
d="M896 217q-15 20 -32 68t-17 121q0 77 29.5 150t84 129t131 90.5t169.5 34.5q163 0 253 -100t90 -265v-445h-1335q-54 0 -103.5 16t-86 50.5t-58 87.5t-21.5 129v324h215v-286q0 -65 20.5 -84.5t46.5 -19.5h614zM1392 217v239q0 25 -8.5 51.5t-27.5 48t-47.5 34.5
t-69.5 13q-36 0 -68.5 -14t-57.5 -39.5t-40 -60.5t-15 -80q0 -67 26.5 -105.5t57.5 -59.5q35 -22 86 -27h164zM1002 1304q0 44 32 75.5t80 31.5t80 -31.5t32 -75.5q0 -46 -32 -77.5t-80 -31.5t-80 31.5t-32 77.5zM1293 1304q0 44 32 75.5t80 31.5t80 -31.5t32 -75.5
q0 -46 -32 -77.5t-80 -31.5t-80 31.5t-32 77.5zM1006 1034q0 45 32 76.5t80 31.5t80 -31.5t32 -76.5q0 -46 -32 -77t-80 -31t-80 31t-32 77zM1296 1034q0 45 32 76.5t80 31.5q49 0 81 -31.5t32 -76.5q0 -46 -32 -77t-81 -31q-48 0 -80 31t-32 77z" />
    <glyph glyph-name="uniFB6F" unicode="&#x6a6;" horiz-adv-x="1771" arabic-form="final" 
d="M1597 217h183q26 0 37 -15t11 -36v-114q0 -15 -12 -33.5t-36 -18.5h-1509q-56 0 -105.5 16t-86 50.5t-58 87.5t-21.5 129v324h215v-286q0 -65 19.5 -84.5t48.5 -19.5h603q-15 20 -31.5 68t-16.5 121q0 77 29.5 150t84 129t130 90.5t168.5 34.5q80 0 144.5 -26.5
t109.5 -74t69 -114.5t24 -150v-228zM1383 217v239q0 25 -8.5 51.5t-27.5 48t-47.5 34.5t-67.5 13q-36 0 -68.5 -14t-58 -39.5t-40.5 -60.5t-15 -80q0 -67 26 -105.5t58 -59.5q36 -22 86 -27h163zM1002 1304q0 44 32 75.5t80 31.5t80 -31.5t32 -75.5q0 -46 -32 -77.5
t-80 -31.5t-80 31.5t-32 77.5zM1293 1304q0 44 32 75.5t80 31.5t80 -31.5t32 -75.5q0 -46 -32 -77.5t-80 -31.5t-80 31.5t-32 77.5zM1006 1034q0 45 32 76.5t80 31.5t80 -31.5t32 -76.5q0 -46 -32 -77t-80 -31t-80 31t-32 77zM1296 1034q0 45 32 76.5t80 31.5q49 0 81 -31.5
t32 -76.5q0 -46 -32 -77t-81 -31q-48 0 -80 31t-32 77z" />
    <glyph glyph-name="uniFB70" unicode="&#x6a6;" horiz-adv-x="1085" arabic-form="initial" 
d="M951 0h-956q-27 0 -38.5 15t-11.5 33v111q0 20 12.5 39t37.5 19h245q-15 20 -32 68t-17 121q0 77 30 150t84.5 129t131 90.5t168.5 34.5q81 0 144 -26.5t108 -74t69.5 -114.5t24.5 -150v-445zM736 217v239q0 25 -8.5 51.5t-27 48t-47.5 34.5t-68 13q-35 0 -68 -14
t-58 -39.5t-41 -60.5t-16 -80q0 -67 27 -105.5t59 -59.5q36 -22 86 -27h162zM330 1304q0 44 32 75.5t80 31.5q49 0 80.5 -31.5t31.5 -75.5q0 -46 -31.5 -77.5t-80.5 -31.5q-48 0 -80 31.5t-32 77.5zM621 1304q0 44 32 75.5t80 31.5t80 -31.5t32 -75.5q0 -46 -32 -77.5
t-80 -31.5t-80 31.5t-32 77.5zM334 1034q0 45 32 76.5t80 31.5t80 -31.5t32 -76.5q0 -46 -32 -77t-80 -31t-80 31t-32 77zM625 1034q0 45 31.5 76.5t80.5 31.5q48 0 80 -31.5t32 -76.5q0 -46 -32 -77t-80 -31q-49 0 -80.5 31t-31.5 77z" />
    <glyph glyph-name="uniFB71" unicode="&#x6a6;" horiz-adv-x="1116" arabic-form="medial" 
d="M943 217h181q30 0 40.5 -15t10.5 -36v-114q0 -15 -12.5 -33.5t-38.5 -18.5h-1129q-29 0 -39.5 15t-10.5 33v111q0 20 12.5 39t37.5 19h237q-13 20 -30.5 68t-17.5 121q0 77 30 150t83.5 129t131 90.5t171.5 34.5q78 0 141.5 -26.5t108 -74t69 -114.5t24.5 -150v-228z
M728 217v239q0 25 -8 51.5t-26.5 48t-47 34.5t-69.5 13q-35 0 -67.5 -14t-58 -39.5t-40 -60.5t-14.5 -80q0 -67 26 -105.5t58 -59.5q35 -22 85 -27h162zM312 1304q0 44 32 75.5t80 31.5t80 -31.5t32 -75.5q0 -46 -32 -77.5t-80 -31.5t-80 31.5t-32 77.5zM603 1304
q0 44 32 75.5t80 31.5t80 -31.5t32 -75.5q0 -46 -32 -77.5t-80 -31.5t-80 31.5t-32 77.5zM316 1034q0 45 32 76.5t80 31.5t80 -31.5t32 -76.5q0 -46 -32 -77t-80 -31t-80 31t-32 77zM606 1034q0 45 32 76.5t80 31.5q49 0 81 -31.5t32 -76.5q0 -46 -32 -77t-81 -31
q-48 0 -80 31t-32 77z" />
    <glyph glyph-name="uniFB72" unicode="&#x684;" horiz-adv-x="1080" arabic-form="isolated" 
d="M442 -620q-80 0 -159.5 23.5t-142 73t-101.5 126t-39 185.5q0 100 34.5 179t99 135.5t154 85.5t201.5 29h181q-26 39 -42 94.5t-23 113.5q-21 172 -157 172q-39 0 -98 -11t-113 -38l-54 202q22 10 57.5 21t76.5 20.5t84.5 16t87.5 6.5q80 0 139 -25.5t98 -71.5t61.5 -109
t31.5 -138q4 -37 10.5 -74.5t20.5 -72t36 -64t60 -52.5v-207h-485q-60 0 -104 -17t-72.5 -45.5t-43.5 -65t-15 -75.5q0 -96 65 -153q48 -45 134 -55l46 -208q-15 -1 -29 -1zM763 -228q0 -44 -31 -76t-81 -32q-48 0 -79.5 32t-31.5 76q0 45 31.5 77t79.5 32q50 0 81 -32
t31 -77zM765 -477q0 -45 -32.5 -76t-81.5 -31q-46 0 -79.5 31t-33.5 76q0 46 33.5 76.5t79.5 30.5q49 0 81.5 -30.5t32.5 -76.5z" />
    <glyph glyph-name="uniFB73" unicode="&#x684;" horiz-adv-x="992" arabic-form="final" 
d="M442 -620q-80 0 -159.5 23.5t-142 73t-101.5 126t-39 185.5q0 100 34.5 179t98 135.5t154 85.5t200.5 29h168q-17 29 -31 74t-21 134q-10 95 -50 133.5t-105 38.5q-39 0 -100 -11t-113 -38l-52 202q22 7 56.5 17.5t76.5 21t87 18t84 7.5q86 0 145 -34t98 -84t59.5 -111
t29.5 -115q7 -54 16.5 -100.5t26.5 -80t44 -53t70 -19.5h22q30 0 40.5 -15t10.5 -36v-114q0 -15 -11.5 -33.5t-39.5 -18.5h-39q-58 0 -117 23t-98 59q-33 -52 -73.5 -67t-84.5 -15h-125q-60 0 -104.5 -17t-73.5 -45.5t-44 -65t-15 -75.5q0 -96 65 -153q46 -43 127 -54
l50 -210h-24zM763 -228q0 -44 -31 -76t-81 -32q-48 0 -79.5 32t-31.5 76q0 45 31.5 77t79.5 32q50 0 81 -32t31 -77zM765 -477q0 -45 -32.5 -76t-81.5 -31q-46 0 -79.5 31t-33.5 76q0 46 33.5 76.5t79.5 30.5q49 0 81.5 -30.5t32.5 -76.5z" />
    <glyph glyph-name="uniFB74" unicode="&#x684;" horiz-adv-x="971" arabic-form="initial" 
d="M493 425q-9 95 -46 133.5t-108 38.5q-40 0 -98.5 -13t-112.5 -39l-55 205q23 10 58.5 21t75.5 20.5t84 16t87 6.5q80 0 138.5 -25.5t99 -71.5t62.5 -109t32 -138q4 -37 9.5 -73.5t19.5 -72t37.5 -65t60.5 -52.5v-207h-842q-27 0 -38.5 15t-11.5 33v111q0 20 12.5 39
t37.5 19h582q-16 20 -45 71.5t-39 136.5zM324 -497q0 44 32.5 75t81.5 31q46 0 79 -31t33 -75q0 -47 -33 -78t-79 -31q-49 0 -81.5 31t-32.5 78zM324 -235q0 45 32.5 76t81.5 31q46 0 79 -31t33 -76q0 -47 -33 -77.5t-79 -30.5q-49 0 -81.5 30.5t-32.5 77.5z" />
    <glyph glyph-name="uniFB75" unicode="&#x684;" horiz-adv-x="883" arabic-form="medial" 
d="M942 52q0 -15 -12.5 -33.5t-40.5 -18.5h-36q-59 0 -117.5 24t-96.5 58q-34 -52 -74 -67t-81 -15h-489q-27 0 -38.5 15t-11.5 33v111q0 20 12.5 39t37.5 19h550q-16 29 -30 76t-22 132q-9 95 -49 133.5t-105 38.5q-38 0 -95.5 -12t-115.5 -40l-53 203q23 7 59.5 18.5
t77.5 22t84.5 18t83.5 7.5q89 0 150 -32t99 -82t57 -111t24 -119q4 -37 12 -81t23 -82t39.5 -64t61.5 -26h43q30 0 41.5 -15t11.5 -36v-114zM260 -497q0 44 32.5 75t81.5 31q47 0 79.5 -31t32.5 -75q0 -47 -32.5 -78t-79.5 -31q-49 0 -81.5 31t-32.5 78zM260 -235
q0 45 32.5 76t81.5 31q47 0 79.5 -31t32.5 -76q0 -47 -32.5 -77.5t-79.5 -30.5q-49 0 -81.5 30.5t-32.5 77.5z" />
    <glyph glyph-name="uniFB76" unicode="&#x683;" horiz-adv-x="1080" arabic-form="isolated" 
d="M461 0q-60 0 -104 -17t-72.5 -45.5t-43.5 -65t-15 -75.5q0 -96 64 -154t193 -58q23 0 51.5 4.5t57 10t53.5 11.5t40 12l27 -194q-14 -8 -43 -16t-66 -15.5t-79.5 -12.5t-81.5 -5q-80 0 -159.5 23.5t-142 73t-101.5 126t-39 185.5q0 100 34.5 179t99 135.5t154 85.5
t201.5 29h181q-26 39 -42 94.5t-23 113.5q-21 172 -157 172q-39 0 -98 -11t-113 -38l-54 202q22 10 57.5 21t76.5 20.5t84.5 16t87.5 6.5q80 0 139 -25.5t98 -71.5t61.5 -109t31.5 -138q4 -37 10.5 -74.5t20.5 -72t36 -64t60 -52.5v-207h-485zM842 -205q0 -42 -29.5 -72.5
t-77.5 -30.5q-46 0 -76.5 30.5t-30.5 72.5q0 43 30.5 73t76.5 30q48 0 77.5 -30t29.5 -73zM564 -205q0 -42 -30 -72.5t-78 -30.5q-45 0 -75.5 30.5t-30.5 72.5q0 43 30.5 73t75.5 30q48 0 78 -30t30 -73z" />
    <glyph glyph-name="uniFB77" unicode="&#x683;" horiz-adv-x="992" arabic-form="final" 
d="M655 217q-17 29 -31 74t-21 134q-10 95 -50 133.5t-105 38.5q-39 0 -100 -11t-113 -38l-52 202q22 7 56.5 17.5t76.5 21t87 18t84 7.5q86 0 145 -34t98 -84t59.5 -111t29.5 -115q7 -54 16.5 -100.5t26.5 -80t44 -53t70 -19.5h22q30 0 40.5 -15t10.5 -36v-114
q0 -15 -11.5 -33.5t-39.5 -18.5h-39q-58 0 -117 23t-98 59q-33 -52 -73.5 -67t-84.5 -15h-125q-60 0 -104.5 -17t-73.5 -45.5t-44 -65t-15 -75.5q0 -96 64.5 -154t192.5 -58q25 0 53.5 4.5t57 10t52.5 11.5t39 12l29 -194q-14 -8 -43 -16t-66 -15.5t-79.5 -12.5t-81.5 -5
q-80 0 -159.5 23.5t-142 73t-101.5 126t-39 185.5q0 100 34.5 179t98 135.5t154 85.5t200.5 29h168zM842 -205q0 -42 -29.5 -72.5t-77.5 -30.5q-46 0 -76.5 30.5t-30.5 72.5q0 43 30.5 73t76.5 30q48 0 77.5 -30t29.5 -73zM564 -205q0 -42 -30 -72.5t-78 -30.5
q-45 0 -75.5 30.5t-30.5 72.5q0 43 30.5 73t75.5 30q48 0 78 -30t30 -73z" />
    <glyph glyph-name="uniFB78" unicode="&#x683;" horiz-adv-x="971" arabic-form="initial" 
d="M493 425q-9 95 -46 133.5t-108 38.5q-40 0 -98.5 -13t-112.5 -39l-55 205q23 10 58.5 21t75.5 20.5t84 16t87 6.5q80 0 138.5 -25.5t99 -71.5t62.5 -109t32 -138q4 -37 9.5 -73.5t19.5 -72t37.5 -65t60.5 -52.5v-207h-842q-27 0 -38.5 15t-11.5 33v111q0 20 12.5 39
t37.5 19h582q-16 20 -45 71.5t-39 136.5zM686 -237q0 -45 -32 -76.5t-80 -31.5q-49 0 -80.5 31.5t-31.5 76.5t31.5 77t80.5 32q48 0 80 -32t32 -77zM395 -237q0 -45 -32 -76.5t-80 -31.5q-49 0 -80.5 31.5t-31.5 76.5t31.5 77t80.5 32q48 0 80 -32t32 -77z" />
    <glyph glyph-name="uniFB79" unicode="&#x683;" horiz-adv-x="883" arabic-form="medial" 
d="M942 52q0 -15 -12.5 -33.5t-40.5 -18.5h-36q-59 0 -117.5 24t-96.5 58q-34 -52 -74 -67t-81 -15h-489q-27 0 -38.5 15t-11.5 33v111q0 20 12.5 39t37.5 19h550q-16 29 -30 76t-22 132q-9 95 -49 133.5t-105 38.5q-38 0 -95.5 -12t-115.5 -40l-53 203q23 7 59.5 18.5
t77.5 22t84.5 18t83.5 7.5q89 0 150 -32t99 -82t57 -111t24 -119q4 -37 12 -81t23 -82t39.5 -64t61.5 -26h43q30 0 41.5 -15t11.5 -36v-114zM687 -237q0 -45 -31.5 -76.5t-80.5 -31.5q-48 0 -80 31.5t-32 76.5t32 77t80 32q49 0 80.5 -32t31.5 -77zM397 -237
q0 -45 -32 -76.5t-80 -31.5q-49 0 -80.5 31.5t-31.5 76.5t31.5 77t80.5 32q48 0 80 -32t32 -77z" />
    <glyph glyph-name="uniFB7A" unicode="&#x686;" horiz-adv-x="1080" arabic-form="isolated" 
d="M442 -620q-80 0 -159.5 23.5t-142 73t-101.5 126t-39 185.5q0 100 34.5 179t99 135.5t154 85.5t201.5 29h181q-26 39 -42 94.5t-23 113.5q-21 172 -157 172q-39 0 -98 -11t-113 -38l-54 202q22 10 57.5 21t76.5 20.5t84.5 16t87.5 6.5q80 0 139 -25.5t98 -71.5t61.5 -109
t31.5 -138q4 -37 10.5 -74.5t20.5 -72t36 -64t60 -52.5v-207h-485q-60 0 -104 -17t-72.5 -45.5t-43.5 -65t-15 -75.5q0 -96 65 -153q48 -45 134 -55l46 -208q-15 -1 -29 -1zM765 -477q0 -45 -32.5 -76t-81.5 -31q-46 0 -79.5 31t-33.5 76q0 46 33.5 76.5t79.5 30.5
q49 0 81.5 -30.5t32.5 -76.5zM909 -237q0 -45 -32 -76.5t-80 -31.5t-80 31.5t-32 76.5t32 77t80 32t80 -32t32 -77zM627 -237q0 -45 -31.5 -76.5t-80.5 -31.5t-80 31.5t-31 76.5t31 77t80 32t80.5 -32t31.5 -77z" />
    <glyph glyph-name="uniFB7B" unicode="&#x686;" horiz-adv-x="992" arabic-form="final" 
d="M442 -620q-80 0 -159.5 23.5t-142 73t-101.5 126t-39 185.5q0 100 34.5 179t98 135.5t154 85.5t200.5 29h168q-17 29 -31 74t-21 134q-10 95 -50 133.5t-105 38.5q-39 0 -100 -11t-113 -38l-52 202q22 7 56.5 17.5t76.5 21t87 18t84 7.5q86 0 145 -34t98 -84t59.5 -111
t29.5 -115q7 -54 16.5 -100.5t26.5 -80t44 -53t70 -19.5h22q30 0 40.5 -15t10.5 -36v-114q0 -15 -11.5 -33.5t-39.5 -18.5h-39q-58 0 -117 23t-98 59q-33 -52 -73.5 -67t-84.5 -15h-125q-60 0 -104.5 -17t-73.5 -45.5t-44 -65t-15 -75.5q0 -96 65 -153q46 -43 127 -54
l50 -210h-24zM765 -477q0 -45 -32.5 -76t-81.5 -31q-46 0 -79.5 31t-33.5 76q0 46 33.5 76.5t79.5 30.5q49 0 81.5 -30.5t32.5 -76.5zM909 -237q0 -45 -32 -76.5t-80 -31.5t-80 31.5t-32 76.5t32 77t80 32t80 -32t32 -77zM627 -237q0 -45 -31.5 -76.5t-80.5 -31.5t-80 31.5
t-31 76.5t31 77t80 32t80.5 -32t31.5 -77z" />
    <glyph glyph-name="uniFB7C" unicode="&#x686;" horiz-adv-x="971" arabic-form="initial" 
d="M493 425q-9 95 -46 133.5t-108 38.5q-40 0 -98.5 -13t-112.5 -39l-55 205q23 10 58.5 21t75.5 20.5t84 16t87 6.5q80 0 138.5 -25.5t99 -71.5t62.5 -109t32 -138q4 -37 9.5 -73.5t19.5 -72t37.5 -65t60.5 -52.5v-207h-842q-27 0 -38.5 15t-11.5 33v111q0 20 12.5 39
t37.5 19h582q-16 20 -45 71.5t-39 136.5zM542 -477q0 -45 -32.5 -76t-81.5 -31q-47 0 -80 31t-33 76q0 46 33 76.5t80 30.5q49 0 81.5 -30.5t32.5 -76.5zM686 -237q0 -45 -32 -76.5t-80 -31.5q-49 0 -80.5 31.5t-31.5 76.5t31.5 77t80.5 32q48 0 80 -32t32 -77zM395 -237
q0 -45 -32 -76.5t-80 -31.5q-49 0 -80.5 31.5t-31.5 76.5t31.5 77t80.5 32q48 0 80 -32t32 -77z" />
    <glyph glyph-name="uniFB7D" unicode="&#x686;" horiz-adv-x="883" arabic-form="medial" 
d="M942 52q0 -15 -12.5 -33.5t-40.5 -18.5h-36q-59 0 -117.5 24t-96.5 58q-34 -52 -74 -67t-81 -15h-489q-27 0 -38.5 15t-11.5 33v111q0 20 12.5 39t37.5 19h550q-16 29 -30 76t-22 132q-9 95 -49 133.5t-105 38.5q-38 0 -95.5 -12t-115.5 -40l-53 203q23 7 59.5 18.5
t77.5 22t84.5 18t83.5 7.5q89 0 150 -32t99 -82t57 -111t24 -119q4 -37 12 -81t23 -82t39.5 -64t61.5 -26h43q30 0 41.5 -15t11.5 -36v-114zM544 -477q0 -45 -32.5 -76t-81.5 -31q-47 0 -80 31t-33 76q0 46 33 76.5t80 30.5q49 0 81.5 -30.5t32.5 -76.5zM687 -237
q0 -45 -31.5 -76.5t-80.5 -31.5q-48 0 -80 31.5t-32 76.5t32 77t80 32q49 0 80.5 -32t31.5 -77zM397 -237q0 -45 -32 -76.5t-80 -31.5q-49 0 -80.5 31.5t-31.5 76.5t31.5 77t80.5 32q48 0 80 -32t32 -77z" />
    <glyph glyph-name="uniFB7E" unicode="&#x687;" horiz-adv-x="1080" arabic-form="isolated" 
d="M282 -596q-79 23 -141.5 72.5t-101.5 126t-39 185.5q0 100 34.5 179t99 135.5t154 85.5t201.5 29h181q-26 39 -42 94.5t-23 113.5q-21 172 -157 172q-39 0 -98 -11t-113 -38l-54 202q22 10 57.5 21t76.5 20.5t84.5 16t87.5 6.5q80 0 139 -25.5t98 -71.5t61.5 -109
t31.5 -138q4 -37 10.5 -74.5t20.5 -72t36 -64t60 -52.5v-207h-485q-60 0 -104 -17t-72.5 -45.5t-43.5 -65t-15 -75.5q0 -96 65 -153q23 -22 56 -36l37 -225q-51 6 -102 21zM797 -334q-48 0 -80 31.5t-32 76.5t32 76.5t80 31.5t80 -31.5t32 -76.5t-32 -76.5t-80 -31.5z
M533 -334q-48 0 -79.5 31.5t-31.5 76.5t31.5 76.5t79.5 31.5q49 0 80.5 -31.5t31.5 -76.5t-31.5 -76.5t-80.5 -31.5zM797 -593q-48 0 -80 32t-32 76q0 45 32 77t80 32t80 -32t32 -77q0 -44 -32 -76t-80 -32zM533 -593q-48 0 -79.5 32t-31.5 76q0 45 31.5 77t79.5 32
q49 0 80.5 -32t31.5 -77q0 -44 -31.5 -76t-80.5 -32z" />
    <glyph glyph-name="uniFB7F" unicode="&#x687;" horiz-adv-x="992" arabic-form="final" 
d="M282 -596q-79 23 -141.5 72.5t-101.5 126t-39 185.5q0 100 34.5 179t98 135.5t154 85.5t200.5 29h168q-17 29 -31 74t-21 134q-10 95 -50 133.5t-105 38.5q-39 0 -100 -11t-113 -38l-52 202q22 7 56.5 17.5t76.5 21t87 18t84 7.5q86 0 145 -34t98 -84t59.5 -111
t29.5 -115q7 -54 16.5 -100.5t26.5 -80t44 -53t70 -19.5h22q30 0 40.5 -15t10.5 -36v-114q0 -15 -11.5 -33.5t-39.5 -18.5h-39q-58 0 -117 23t-98 59q-33 -52 -73.5 -67t-84.5 -15h-125q-60 0 -104.5 -17t-73.5 -45.5t-44 -65t-15 -75.5q0 -96 65 -153q28 -26 69 -40
l36 -222q-56 6 -112 22zM805 -341q-45 0 -75.5 32t-30.5 77q0 44 30.5 76t75.5 32q47 0 77.5 -32t30.5 -76q0 -45 -30.5 -77t-77.5 -32zM553 -341q-46 0 -76.5 32t-30.5 77q0 44 30.5 76t76.5 32t76.5 -32t30.5 -76q0 -45 -30.5 -77t-76.5 -32zM802 -602q-46 0 -76.5 32
t-30.5 76q0 45 30.5 77t76.5 32t76.5 -32t30.5 -77q0 -44 -30.5 -76t-76.5 -32zM549 -602q-46 0 -76 32t-30 76q0 45 30 77t76 32q47 0 77 -32t30 -77q0 -44 -30 -76t-77 -32z" />
    <glyph glyph-name="uniFB80" unicode="&#x687;" horiz-adv-x="971" arabic-form="initial" 
d="M493 425q-9 95 -46 133.5t-108 38.5q-40 0 -98.5 -13t-112.5 -39l-55 205q23 10 58.5 21t75.5 20.5t84 16t87 6.5q80 0 138.5 -25.5t99 -71.5t62.5 -109t32 -138q4 -37 9.5 -73.5t19.5 -72t37.5 -65t60.5 -52.5v-207h-842q-27 0 -38.5 15t-11.5 33v111q0 20 12.5 39
t37.5 19h582q-16 20 -45 71.5t-39 136.5zM686 -510q0 -45 -32 -77t-80 -32q-49 0 -80.5 32t-31.5 77q0 44 31.5 76t80.5 32q48 0 80 -32t32 -76zM395 -510q0 -45 -32 -77t-80 -32q-49 0 -80.5 32t-31.5 77q0 44 31.5 76t80.5 32q48 0 80 -32t32 -76zM686 -237
q0 -45 -32 -76.5t-80 -31.5q-49 0 -80.5 31.5t-31.5 76.5t31.5 77t80.5 32q48 0 80 -32t32 -77zM395 -237q0 -45 -32 -76.5t-80 -31.5q-49 0 -80.5 31.5t-31.5 76.5t31.5 77t80.5 32q48 0 80 -32t32 -77z" />
    <glyph glyph-name="uniFB81" unicode="&#x687;" horiz-adv-x="883" arabic-form="medial" 
d="M942 52q0 -15 -12.5 -33.5t-40.5 -18.5h-36q-59 0 -117.5 24t-96.5 58q-34 -52 -74 -67t-81 -15h-489q-27 0 -38.5 15t-11.5 33v111q0 20 12.5 39t37.5 19h550q-16 29 -30 76t-22 132q-9 95 -49 133.5t-105 38.5q-38 0 -95.5 -12t-115.5 -40l-53 203q23 7 59.5 18.5
t77.5 22t84.5 18t83.5 7.5q89 0 150 -32t99 -82t57 -111t24 -119q4 -37 12 -81t23 -82t39.5 -64t61.5 -26h43q30 0 41.5 -15t11.5 -36v-114zM686 -510q0 -45 -32 -77t-80 -32q-49 0 -80.5 32t-31.5 77q0 44 31.5 76t80.5 32q48 0 80 -32t32 -76zM395 -510q0 -45 -32 -77
t-80 -32q-49 0 -80.5 32t-31.5 77q0 44 31.5 76t80.5 32q48 0 80 -32t32 -76zM686 -237q0 -45 -32 -76.5t-80 -31.5q-49 0 -80.5 31.5t-31.5 76.5t31.5 77t80.5 32q48 0 80 -32t32 -77zM395 -237q0 -45 -32 -76.5t-80 -31.5q-49 0 -80.5 31.5t-31.5 76.5t31.5 77t80.5 32
q48 0 80 -32t32 -77z" />
    <glyph glyph-name="uniFB82" unicode="&#x68d;" horiz-adv-x="928" arabic-form="isolated" 
d="M70 0v217h509v187q0 64 -15 103.5t-43.5 61.5t-70.5 30t-95 8h-180v207h223q76 0 148 -15.5t127.5 -58t88 -119t32.5 -199.5v-422h-724zM187 -236q0 45 31.5 76.5t80.5 31.5t80.5 -31.5t31.5 -76.5q0 -46 -31.5 -77t-80.5 -31t-80.5 31t-31.5 77zM478 -236q0 45 32 76.5
t80 31.5t80 -31.5t32 -76.5q0 -46 -32 -77t-80 -31t-80 31t-32 77z" />
    <glyph glyph-name="uniFB83" unicode="&#x68d;" horiz-adv-x="1006" arabic-form="final" 
d="M941 0q-78 0 -128.5 36.5t-78.5 84.5q-32 -57 -90.5 -89t-133.5 -32h-440v217h425q43 0 58 22t15 71q0 74 -5.5 131t-28 93.5t-66.5 55.5t-120 19h-177v205h220q108 0 183 -31t119.5 -85t64 -127.5t19.5 -159.5q0 -96 39 -145t130 -49h66q28 0 39.5 -15t11.5 -36v-114
q0 -15 -12.5 -33.5t-38.5 -18.5h-71zM185 -236q0 45 32 76.5t80 31.5q49 0 80.5 -31.5t31.5 -76.5q0 -46 -31.5 -77t-80.5 -31q-48 0 -80 31t-32 77zM476 -236q0 45 32 76.5t80 31.5q49 0 80.5 -31.5t31.5 -76.5q0 -46 -31.5 -77t-80.5 -31q-48 0 -80 31t-32 77z" />
    <glyph glyph-name="uniFB84" unicode="&#x68c;" horiz-adv-x="928" arabic-form="isolated" 
d="M70 0v217h509v187q0 64 -15 103.5t-43.5 61.5t-70.5 30t-95 8h-180v207h223q76 0 148 -15.5t127.5 -58t88 -119t32.5 -199.5v-422h-724zM196 1034q0 45 31.5 76.5t80.5 31.5t80.5 -31.5t31.5 -76.5q0 -46 -31.5 -77t-80.5 -31t-80.5 31t-31.5 77zM487 1034q0 45 32 76.5
t80 31.5q49 0 80.5 -31.5t31.5 -76.5q0 -46 -31.5 -77t-80.5 -31q-48 0 -80 31t-32 77z" />
    <glyph glyph-name="uniFB85" unicode="&#x68c;" horiz-adv-x="1006" arabic-form="final" 
d="M941 0q-78 0 -128.5 36.5t-78.5 84.5q-32 -57 -90.5 -89t-133.5 -32h-440v217h425q43 0 58 22t15 71q0 74 -5.5 131t-28 93.5t-66.5 55.5t-120 19h-177v205h220q108 0 183 -31t119.5 -85t64 -127.5t19.5 -159.5q0 -96 39 -145t130 -49h66q28 0 39.5 -15t11.5 -36v-114
q0 -15 -12.5 -33.5t-38.5 -18.5h-71zM194 1034q0 45 32 76.5t80 31.5q49 0 80.5 -31.5t31.5 -76.5q0 -46 -31.5 -77t-80.5 -31q-48 0 -80 31t-32 77zM485 1034q0 45 32 76.5t80 31.5q49 0 81 -31.5t32 -76.5q0 -46 -32 -77t-81 -31q-48 0 -80 31t-32 77z" />
    <glyph glyph-name="uniFB86" unicode="&#x68e;" horiz-adv-x="928" arabic-form="isolated" 
d="M70 0v217h509v187q0 64 -15 103.5t-43.5 61.5t-70.5 30t-95 8h-180v207h223q76 0 148 -15.5t127.5 -58t88 -119t32.5 -199.5v-422h-724zM341 1275q0 44 32 75t81 31q47 0 80.5 -31t33.5 -75q0 -47 -33.5 -78t-80.5 -31q-49 0 -81 31t-32 78zM197 1034q0 45 31.5 76.5
t80.5 31.5q48 0 80 -31.5t32 -76.5q0 -46 -32 -77t-80 -31q-49 0 -80.5 31t-31.5 77zM488 1034q0 45 31.5 76.5t79.5 31.5q50 0 81 -31.5t31 -76.5q0 -46 -31 -77t-81 -31q-48 0 -79.5 31t-31.5 77z" />
    <glyph glyph-name="uniFB87" unicode="&#x68e;" horiz-adv-x="1006" arabic-form="final" 
d="M941 0q-78 0 -128.5 36.5t-78.5 84.5q-32 -57 -90.5 -89t-133.5 -32h-440v217h425q43 0 58 22t15 71q0 74 -5.5 131t-28 93.5t-66.5 55.5t-120 19h-177v205h220q108 0 183 -31t119.5 -85t64 -127.5t19.5 -159.5q0 -96 39 -145t130 -49h66q28 0 39.5 -15t11.5 -36v-114
q0 -15 -12.5 -33.5t-38.5 -18.5h-71zM339 1275q0 44 32 75t82 31q46 0 80 -31t34 -75q0 -47 -34 -78t-80 -31q-50 0 -82 31t-32 78zM195 1034q0 45 32 76.5t80 31.5t80 -31.5t32 -76.5q0 -46 -32 -77t-80 -31t-80 31t-32 77zM486 1034q0 45 31.5 76.5t79.5 31.5
q50 0 81.5 -31.5t31.5 -76.5q0 -46 -31.5 -77t-81.5 -31q-48 0 -79.5 31t-31.5 77z" />
    <glyph glyph-name="uniFB88" unicode="&#x688;" horiz-adv-x="928" arabic-form="isolated" 
d="M70 0v217h509v187q0 64 -15 103.5t-43.5 61.5t-70.5 30t-95 8h-180v207h223q76 0 148 -15.5t127.5 -58t88 -119t32.5 -199.5v-422h-724zM148 1029h71v395h92v-241q28 43 68 61.5t86 18.5q81 0 127 -48.5t46 -126.5v-148h-490v89zM547 1073q0 59 -25 80.5t-66 21.5
q-48 0 -92 -38t-53 -108h236v44z" />
    </font>
</defs>
</svg>
