<?xml version="1.0" standalone="no"?>
<!DOCTYPE svg PUBLIC "-//W3C//DTD SVG 1.1//EN" "http://www.w3.org/Graphics/SVG/1.1/DTD/svg11.dtd" >
<svg xmlns="http://www.w3.org/2000/svg" xmlns:xlink="http://www.w3.org/1999/xlink" version="1.1">
<metadata>
Created by FontForge 20170731 at Thu Oct 20 02:06:43 2016
 By Aleksey,,,
(c)  2012 Bahij Virtual Academy. All rights reserved.
</metadata>
<defs>
<font id="BahijMitra-Regular" horiz-adv-x="717" >
  <font-face 
    font-family="Bahij Mitra"
    font-weight="400"
    font-stretch="normal"
    units-per-em="2048"
    panose-1="2 4 5 3 5 2 1 2 2 3"
    ascent="1638"
    descent="-410"
    x-height="691"
    cap-height="987"
    bbox="-246 -1695 4107 2092"
    underline-thickness="40"
    underline-position="-130"
    unicode-range="U+0020-FEFC"
  />
<missing-glyph horiz-adv-x="728" 
d="M0 0v1020h728v-1020h-728zM117 947l247 -372l248 372h-495zM655 881l-247 -371l247 -372v743zM612 73l-248 371l-247 -371h495zM73 138l247 372l-247 371v-743z" />
    <glyph glyph-name="uniFB01" unicode="fi" horiz-adv-x="877" 
d="M617 358q0 180 -12 330q30 -8 71 -8q42 0 74 8q-9 -158 -9 -378q0 -52 10 -317q-27 9 -70 9t-75 -9q11 191 11 365zM760 924q0 -32 -23 -55t-56 -23q-32 0 -55 23t-23 55q0 33 23 56t55 23q33 0 56 -23t23 -56zM478 1051l-8 -119l-11 -5q-48 17 -81 17q-109 0 -109 -128
q0 -77 20 -148q50 0 153 3q-2 -32 -2 -36q0 -10 2 -27q-101 2 -151 2l2 -233q0 -143 10 -384q-65 9 -76 9q-10 0 -78 -9q14 144 14 381q0 99 -4 236q-40 0 -121 -2q3 22 3 30q0 7 -3 33q81 -3 122 -3q6 163 91 278q83 110 189 110q21 0 38 -5z" />
    <glyph glyph-name="uniFB02" unicode="fl" horiz-adv-x="877" 
d="M611 546q0 340 -9 507q49 -8 75 -8q23 0 75 8q-10 -292 -10 -539q0 -253 12 -521q-37 10 -77 10q-37 0 -74 -10q8 151 8 553zM478 1051l-8 -119l-11 -5q-48 17 -81 17q-109 0 -109 -128q0 -77 20 -148q50 0 153 3q-2 -32 -2 -36q0 -10 2 -27q-101 2 -151 2l2 -233
q0 -143 10 -384q-65 9 -76 9q-10 0 -78 -9q14 144 14 381q0 99 -4 236q-40 0 -121 -2q3 22 3 30q0 7 -3 33q81 -3 122 -3q6 163 91 278q83 110 189 110q21 0 38 -5z" />
    <glyph glyph-name="uniFC31" unicode="&#xfed3;&#xfef0;" horiz-adv-x="1822" arabic-form="isolated" 
d="M1632 506q0 55 -62 111q-66 58 -146 58q-63 -51 -63 -169q39 -40 127 -40q92 0 144 40zM1024 0q-151 0 -205 -73q34 -24 112 -41q100 -22 135.5 -43t35.5 -62q0 -19 -12 -88q-14 -73 -25 -102q-116 -55 -291 -93q-187 -41 -350 -41q-161 0 -258 75q-103 79 -103 220
q0 165 142 412q32 0 62 -30q-37 -62 -63 -153q-23 -84 -23 -140q0 -106 73.5 -167.5t206.5 -61.5q152 0 334 27q161 24 242 51q-10 53 -136 77q-99 18 -162 60q16 100 45 212q98 105 258 105h151q141 0 269 24q114 21 149 47q33 63 37 160q-64 -52 -185 -52q-102 0 -171 52
q-12 67 -12 114q0 212 167 343q274 -63 274 -426q0 -163 -55 -301q-52 -38 -193 -71q-147 -34 -278 -34h-171zM1583 1123l-112 -112l-125 105l114 114z" />
    <glyph glyph-name="uniFC32" unicode="&#xfed3;&#xfef2;" horiz-adv-x="1822" arabic-form="isolated" 
d="M1632 506q0 55 -62 111q-66 58 -146 58q-63 -51 -63 -169q39 -40 127 -40q92 0 144 40zM762 -776l-112 -112l-125 105l114 113zM1024 0q-151 0 -205 -73q34 -24 112 -41q100 -22 135.5 -43t35.5 -62q0 -19 -12 -88q-14 -73 -25 -102q-116 -55 -291 -93q-187 -41 -350 -41
q-161 0 -258 75q-103 79 -103 220q0 165 142 412q32 0 62 -30q-37 -62 -63 -153q-23 -84 -23 -140q0 -106 73.5 -167.5t206.5 -61.5q152 0 334 27q161 24 242 51q-10 53 -136 77q-99 18 -162 60q16 100 45 212q98 105 258 105h151q141 0 269 24q114 21 149 47q33 63 37 160
q-64 -52 -185 -52q-102 0 -171 52q-12 67 -12 114q0 212 167 343q274 -63 274 -426q0 -163 -55 -301q-52 -38 -193 -71q-147 -34 -278 -34h-171zM1583 1123l-112 -112l-125 105l114 114zM513 -796l-112 -112l-125 104l114 113z" />
    <glyph glyph-name="uniFC43" unicode="&#xfedf;&#xfef0;" horiz-adv-x="1599" arabic-form="isolated" 
d="M1024 0q-151 0 -205 -73q34 -24 112 -41q100 -22 135.5 -43t35.5 -62q0 -19 -12 -88q-14 -73 -25 -102q-116 -55 -291 -93q-187 -41 -350 -41q-161 0 -258 75q-103 79 -103 220q0 165 142 412q32 0 62 -30q-37 -62 -63 -153q-23 -84 -23 -140q0 -106 73.5 -167.5
t206.5 -61.5q152 0 334 27q161 24 242 51q-10 53 -136 77q-99 18 -162 60q16 100 45 212q98 105 258 105h173q87 0 144 63q0 346 -25 625q-23 252 -54 325h-4l103 128q17 -52 56 -143q42 -92 62 -120q-47 10 -78 32q32 -418 32 -796q0 -72 -71 -156q-84 -100 -203 -102h-153
z" />
    <glyph glyph-name="uniFC44" unicode="&#xfedf;&#xfef2;" horiz-adv-x="1599" arabic-form="isolated" 
d="M762 -776l-112 -112l-125 105l114 113zM513 -796l-112 -112l-125 104l114 113zM1024 0q-151 0 -205 -73q34 -24 112 -41q100 -22 135.5 -43t35.5 -62q0 -19 -12 -88q-14 -73 -25 -102q-116 -55 -291 -93q-187 -41 -350 -41q-161 0 -258 75q-103 79 -103 220
q0 165 142 412q32 0 62 -30q-37 -62 -63 -153q-23 -84 -23 -140q0 -106 73.5 -167.5t206.5 -61.5q152 0 334 27q161 24 242 51q-10 53 -136 77q-99 18 -162 60q16 100 45 212q98 105 258 105h173q87 0 144 63q0 346 -25 625q-23 252 -54 325h-4l103 128q17 -52 56 -143
q42 -92 62 -120q-47 10 -78 32q32 -418 32 -796q0 -72 -71 -156q-84 -100 -203 -102h-153z" />
    <glyph glyph-name="uniFC64" unicode="&#xfe8c;&#xfeae;" horiz-adv-x="1239" arabic-form="final" 
d="M1085 652q-25 -4 -62 -15.5t-77 -26t-79 -31.5t-68 -33v65q18 10 42.5 20.5t54.5 18.5v3q-81 29 -81 104q85 129 169 129q55 0 90 -59l-54 -42q-19 19 -36 27t-31 8q-38 0 -80 -57q30 -65 104 -68q26 7 58.5 17t71.5 17zM677 0q-52 0 -111 52q-21 -166 -93 -298
q-70 -128 -225 -288q-67 0 -142 20t-106 46q218 103 355 253q111 121 128 215q-17 126 -141 244l62 187l94 -146q91 -141 179 -141h43q217 0 217 194v32q10 7 30 7q21 0 34 -10v-31q0 -116 48 -156q43 -36 171 -36h21q25 0 25 -30v-89q0 -25 -25 -25h-21q-119 0 -187 43
q-58 36 -63 91h-8q-13 -58 -76 -98q-59 -36 -123 -36h-86z" />
    <glyph glyph-name="uniFC67" unicode="&#xfe8c;&#xfee6;" horiz-adv-x="1711" arabic-form="final" 
d="M725 589l-112 -112l-125 105l113 114zM1549 652q-26 -4 -62.5 -15.5t-77 -26t-79 -31.5t-67.5 -33v65q18 10 42.5 20.5t54.5 18.5v3q-81 29 -81 104q85 129 169 129q54 0 90 -59l-54 -42q-19 19 -36.5 27t-30.5 8q-38 0 -80 -57q30 -65 103 -68q27 7 59.5 17t71.5 17z
M1146 0q-53 0 -93 43l-3 -4q26 -68 26 -153q-15 -92 -62 -207q-86 -85 -245 -150q-177 -72 -346 -72q-160 0 -257 76q-103 80 -103 221q0 165 141 412q32 0 62 -29q-37 -63 -63 -154q-22 -84 -22 -140q0 -106 73 -169t206 -62q315 2 543 210q-24 233 -147 422l63 187
q129 -287 227 -287h47q217 0 217 194v32q10 7 30 7q21 0 34 -10v-31q0 -116 48 -156q43 -36 171 -36h21q25 0 25 -30v-89q0 -25 -25 -25h-21q-119 0 -187 43q-58 36 -63 91h-8q-13 -58 -77 -98q-58 -36 -123 -36h-89z" />
    <glyph glyph-name="uniFC6A" unicode="&#xfe92;&#xfeae;" horiz-adv-x="1127" arabic-form="final" 
d="M677 0q-52 0 -111 52q-21 -166 -93 -298q-70 -128 -225 -288q-67 0 -142 20t-106 46q218 103 355 253q111 121 128 215q-17 126 -141 244l62 187l94 -146q91 -141 179 -141h43q79 0 127 55q47 52 47 134v31q10 8 29 8q22 0 35 -10v-32q0 -110 40 -151q34 -35 117 -35h21
q26 0 26 -30v-89q0 -25 -26 -25h-21q-77 0 -132 43q-52 39 -56 91h-8q-13 -58 -76 -98q-59 -36 -123 -36h-43zM1037 -282l-111 -112l-126 105l114 113z" />
    <glyph glyph-name="uniFC70" unicode="&#xfe98;&#xfeae;" horiz-adv-x="1238" arabic-form="final" 
d="M1203 721l-112 -112l-124 103l113 114zM955 700l-112 -112l-125 104l114 114zM677 0q-52 0 -111 52q-21 -166 -93 -298q-70 -128 -225 -288q-67 0 -142 20t-106 46q218 103 355 253q111 121 128 215q-17 126 -141 244l62 187l94 -146q91 -141 179 -141h43q217 0 217 189
v31q10 8 30 8q21 0 34 -10v-32q0 -112 48 -151q43 -35 171 -35h21q25 0 25 -30v-89q0 -25 -25 -25h-21q-119 0 -187 43q-58 36 -63 91h-8q-13 -58 -76 -98q-59 -36 -123 -36h-86z" />
    <glyph glyph-name="uniFC86" unicode="&#xfee0;&#xfef0;" horiz-adv-x="1607" arabic-form="final" 
d="M1024 0q-151 0 -205 -73q34 -24 112 -41q100 -22 135.5 -43t35.5 -62q0 -19 -12 -88q-14 -73 -25 -102q-116 -55 -291 -93q-187 -41 -350 -41q-161 0 -258 75q-103 79 -103 220q0 165 142 412q32 0 62 -30q-37 -62 -63 -153q-23 -84 -23 -140q0 -106 73.5 -167.5
t206.5 -61.5q152 0 334 27q161 24 242 51q-10 53 -136 77q-99 18 -162 60q16 100 45 212q98 105 258 105h172q107 0 162 71l-64 897l107 173q9 -594 41 -996q11 -145 128 -145h21q26 0 26 -30v-89q0 -25 -26 -25h-21q-51 0 -99 34q-53 36 -74 98q-86 -132 -203 -132h-188z
" />
    <glyph glyph-name="uniFC87" unicode="&#xfee0;&#xfef2;" horiz-adv-x="1607" arabic-form="final" 
d="M762 -776l-112 -112l-125 105l114 113zM513 -796l-112 -112l-125 104l114 113zM1024 0q-151 0 -205 -73q34 -24 112 -41q100 -22 135.5 -43t35.5 -62q0 -19 -12 -88q-14 -73 -25 -102q-116 -55 -291 -93q-187 -41 -350 -41q-161 0 -258 75q-103 79 -103 220
q0 165 142 412q32 0 62 -30q-37 -62 -63 -153q-23 -84 -23 -140q0 -106 73.5 -167.5t206.5 -61.5q152 0 334 27q161 24 242 51q-10 53 -136 77q-99 18 -162 60q16 100 45 212q98 105 258 105h172q107 0 162 71l-64 897l107 173q9 -594 41 -996q11 -145 128 -145h21
q26 0 26 -30v-89q0 -25 -26 -25h-21q-51 0 -99 34q-53 36 -74 98q-86 -132 -203 -132h-188z" />
    <glyph glyph-name="uniFCCC" unicode="&#xfedf;&#xfee4;" horiz-adv-x="632" arabic-form="initial" 
d="M560 118q0 -98 -24 -154q-84 31 -176 79q-88 46 -147 58q-104 -101 -204 -101h-20q-26 0 -26 25v89q0 30 26 30h38q33 0 98 29q68 31 96 62q-19 242 -19 283q0 136 -20 338q-22 225 -50 301l102 128q59 -176 117 -265q-47 14 -76 34q11 -169 26 -543q4 -168 24 -269
q83 -79 235 -124z" />
    <glyph glyph-name="uniFCFB" unicode="&#xfeb3;&#xfef0;" horiz-adv-x="2255" arabic-form="isolated" 
d="M1024 0q-151 0 -205 -73q34 -24 112 -41q100 -22 135.5 -43t35.5 -62q0 -19 -12 -88q-14 -73 -25 -102q-116 -55 -291 -93q-187 -41 -350 -41q-161 0 -258 75q-103 79 -103 220q0 165 142 412q32 0 62 -30q-37 -62 -63 -153q-23 -84 -23 -140q0 -106 73.5 -167.5
t206.5 -61.5q152 0 334 27q161 24 242 51q-10 53 -136 77q-99 18 -162 60q16 100 45 212q98 105 258 105h151q196 0 196 223q14 7 28 7q21 0 43 -12q-6 -59 -6 -106q0 -45 30 -78.5t73 -33.5q78 0 121 63q43 60 43 160q14 7 28 7q20 0 43 -12q-5 -59 -5 -106q0 -46 30.5 -79
t76.5 -33q137 0 185 102q-15 79 -91 151l77 182q90 -143 105 -294q-24 -116 -93 -197q-74 -88 -162 -88q-142 0 -166 134h-4q-41 -134 -175 -134q-58 0 -102 35q-47 36 -58 99h-4q-19 -59 -75 -97q-58 -37 -138 -37h-169z" />
    <glyph glyph-name="uniFCFC" unicode="&#xfeb3;&#xfef2;" horiz-adv-x="2255" arabic-form="isolated" 
d="M762 -776l-112 -112l-125 105l114 113zM513 -796l-112 -112l-125 104l114 113zM1024 0q-151 0 -205 -73q34 -24 112 -41q100 -22 135.5 -43t35.5 -62q0 -19 -12 -88q-14 -73 -25 -102q-116 -55 -291 -93q-187 -41 -350 -41q-161 0 -258 75q-103 79 -103 220
q0 165 142 412q32 0 62 -30q-37 -62 -63 -153q-23 -84 -23 -140q0 -106 73.5 -167.5t206.5 -61.5q152 0 334 27q161 24 242 51q-10 53 -136 77q-99 18 -162 60q16 100 45 212q98 105 258 105h151q196 0 196 223q14 7 28 7q21 0 43 -12q-6 -59 -6 -106q0 -45 30 -78.5
t73 -33.5q78 0 121 63q43 60 43 160q14 7 28 7q20 0 43 -12q-5 -59 -5 -106q0 -46 30.5 -79t76.5 -33q137 0 185 102q-15 79 -91 151l77 182q90 -143 105 -294q-24 -116 -93 -197q-74 -88 -162 -88q-142 0 -166 134h-4q-41 -134 -175 -134q-58 0 -102 35q-47 36 -58 99h-4
q-19 -59 -75 -97q-58 -37 -138 -37h-169z" />
    <glyph glyph-name="uniFCFD" unicode="&#xfeb7;&#xfef0;" horiz-adv-x="2255" arabic-form="isolated" 
d="M1861 1017l-98 -100l-99 100l99 99zM1979 815l-98 -99l-100 99l100 99zM1744 815l-99 -99l-101 99l101 99zM1024 0q-151 0 -205 -73q34 -24 112 -41q100 -22 135.5 -43t35.5 -62q0 -19 -12 -88q-14 -73 -25 -102q-116 -55 -291 -93q-187 -41 -350 -41q-161 0 -258 75
q-103 79 -103 220q0 165 142 412q32 0 62 -30q-37 -62 -63 -153q-23 -84 -23 -140q0 -106 73.5 -167.5t206.5 -61.5q152 0 334 27q161 24 242 51q-10 53 -136 77q-99 18 -162 60q16 100 45 212q98 105 258 105h151q196 0 196 223q14 7 28 7q21 0 43 -12q-6 -59 -6 -106
q0 -45 30 -78.5t73 -33.5q78 0 121 63q43 60 43 160q14 7 28 7q20 0 43 -12q-5 -59 -5 -106q0 -46 30.5 -79t76.5 -33q137 0 185 102q-15 79 -91 151l77 182q90 -143 105 -294q-24 -116 -93 -197q-74 -88 -162 -88q-142 0 -166 134h-4q-41 -134 -175 -134q-58 0 -102 35
q-47 36 -58 99h-4q-19 -59 -75 -97q-58 -37 -138 -37h-169z" />
    <glyph glyph-name="uniFCFE" unicode="&#xfeb7;&#xfef2;" horiz-adv-x="2255" arabic-form="isolated" 
d="M762 -776l-112 -112l-125 105l114 113zM513 -796l-112 -112l-125 104l114 113zM1861 1017l-98 -100l-99 100l99 99zM1979 815l-98 -99l-100 99l100 99zM1744 815l-99 -99l-101 99l101 99zM1024 0q-151 0 -205 -73q34 -24 112 -41q100 -22 135.5 -43t35.5 -62
q0 -19 -12 -88q-14 -73 -25 -102q-116 -55 -291 -93q-187 -41 -350 -41q-161 0 -258 75q-103 79 -103 220q0 165 142 412q32 0 62 -30q-37 -62 -63 -153q-23 -84 -23 -140q0 -106 73.5 -167.5t206.5 -61.5q152 0 334 27q161 24 242 51q-10 53 -136 77q-99 18 -162 60
q16 100 45 212q98 105 258 105h151q196 0 196 223q14 7 28 7q21 0 43 -12q-6 -59 -6 -106q0 -45 30 -78.5t73 -33.5q78 0 121 63q43 60 43 160q14 7 28 7q20 0 43 -12q-5 -59 -5 -106q0 -46 30.5 -79t76.5 -33q137 0 185 102q-15 79 -91 151l77 182q90 -143 105 -294
q-24 -116 -93 -197q-74 -88 -162 -88q-142 0 -166 134h-4q-41 -134 -175 -134q-58 0 -102 35q-47 36 -58 99h-4q-19 -59 -75 -97q-58 -37 -138 -37h-169z" />
    <glyph glyph-name="uniFD05" unicode="&#xfebb;&#xfef0;" horiz-adv-x="2508" arabic-form="isolated" 
d="M2309 256q0 65 -59.5 121t-134.5 56q-185 0 -440 -289h187q136 0 268 34q125 32 179 78zM1024 0q-151 0 -205 -73q34 -24 112 -41q100 -22 135.5 -43t35.5 -62q0 -19 -12 -88q-14 -73 -25 -102q-116 -55 -291 -93q-187 -41 -350 -41q-161 0 -258 75q-103 79 -103 220
q0 165 142 412q32 0 62 -30q-37 -62 -63 -153q-23 -84 -23 -140q0 -106 73.5 -167.5t206.5 -61.5q152 0 334 27q161 24 242 51q-10 53 -136 77q-99 18 -162 60q16 100 45 212q98 105 258 105h151q196 0 196 223q14 7 28 7q21 0 43 -12q-6 -59 -6 -106q0 -46 35 -79t97 -33
q215 250 366 345q108 69 211 69q112 0 190 -81q73 -75 73 -167q-114 -177 -294 -246q-166 -64 -467 -64q-230 0 -255 134h-4q-19 -59 -75 -97q-58 -37 -138 -37h-169z" />
    <glyph glyph-name="uniFD06" unicode="&#xfebb;&#xfef2;" horiz-adv-x="2508" arabic-form="isolated" 
d="M2309 256q0 65 -59.5 121t-134.5 56q-185 0 -440 -289h187q136 0 268 34q125 32 179 78zM762 -776l-112 -112l-125 105l114 113zM1024 0q-151 0 -205 -73q34 -24 112 -41q100 -22 135.5 -43t35.5 -62q0 -19 -12 -88q-14 -73 -25 -102q-116 -55 -291 -93
q-187 -41 -350 -41q-161 0 -258 75q-103 79 -103 220q0 165 142 412q32 0 62 -30q-37 -62 -63 -153q-23 -84 -23 -140q0 -106 73.5 -167.5t206.5 -61.5q152 0 334 27q161 24 242 51q-10 53 -136 77q-99 18 -162 60q16 100 45 212q98 105 258 105h151q196 0 196 223
q14 7 28 7q21 0 43 -12q-6 -59 -6 -106q0 -46 35 -79t97 -33q215 250 366 345q108 69 211 69q112 0 190 -81q73 -75 73 -167q-114 -177 -294 -246q-166 -64 -467 -64q-230 0 -255 134h-4q-19 -59 -75 -97q-58 -37 -138 -37h-169zM513 -796l-112 -112l-125 104l114 113z" />
    <glyph glyph-name="uniFD07" unicode="&#xfebf;&#xfef0;" horiz-adv-x="2508" arabic-form="isolated" 
d="M2309 256q0 65 -59.5 121t-134.5 56q-185 0 -440 -289h187q136 0 268 34q125 32 179 78zM1024 0q-151 0 -205 -73q34 -24 112 -41q100 -22 135.5 -43t35.5 -62q0 -19 -12 -88q-14 -73 -25 -102q-116 -55 -291 -93q-187 -41 -350 -41q-161 0 -258 75q-103 79 -103 220
q0 165 142 412q32 0 62 -30q-37 -62 -63 -153q-23 -84 -23 -140q0 -106 73.5 -167.5t206.5 -61.5q152 0 334 27q161 24 242 51q-10 53 -136 77q-99 18 -162 60q16 100 45 212q98 105 258 105h151q196 0 196 223q14 7 28 7q21 0 43 -12q-6 -59 -6 -106q0 -46 35 -79t97 -33
q215 250 366 345q108 69 211 69q112 0 190 -81q73 -75 73 -167q-114 -177 -294 -246q-166 -64 -467 -64q-230 0 -255 134h-4q-19 -59 -75 -97q-58 -37 -138 -37h-169zM2213 931l-111 -112l-126 105l114 114z" />
    <glyph glyph-name="uniFD08" unicode="&#xfebf;&#xfef2;" horiz-adv-x="2508" arabic-form="isolated" 
d="M2309 256q0 65 -59.5 121t-134.5 56q-185 0 -440 -289h187q136 0 268 34q125 32 179 78zM762 -776l-112 -112l-125 105l114 113zM1024 0q-151 0 -205 -73q34 -24 112 -41q100 -22 135.5 -43t35.5 -62q0 -19 -12 -88q-14 -73 -25 -102q-116 -55 -291 -93
q-187 -41 -350 -41q-161 0 -258 75q-103 79 -103 220q0 165 142 412q32 0 62 -30q-37 -62 -63 -153q-23 -84 -23 -140q0 -106 73.5 -167.5t206.5 -61.5q152 0 334 27q161 24 242 51q-10 53 -136 77q-99 18 -162 60q16 100 45 212q98 105 258 105h151q196 0 196 223
q14 7 28 7q21 0 43 -12q-6 -59 -6 -106q0 -46 35 -79t97 -33q215 250 366 345q108 69 211 69q112 0 190 -81q73 -75 73 -167q-114 -177 -294 -246q-166 -64 -467 -64q-230 0 -255 134h-4q-19 -59 -75 -97q-58 -37 -138 -37h-169zM2213 931l-111 -112l-126 105l114 114z
M513 -796l-112 -112l-125 104l114 113z" />
    <glyph glyph-name="uniFD0D" unicode="&#xfeb7;&#xfeae;" horiz-adv-x="1765" arabic-form="isolated" 
d="M1388 1017l-98 -100l-99 100l99 99zM677 0q-52 0 -111 52q-21 -166 -93 -298q-70 -128 -225 -288q-67 0 -142 20t-106 46q218 103 355 253q111 121 128 215q-17 126 -141 244l62 187l94 -146q91 -141 179 -141h43q196 0 196 223q14 7 28 7q21 0 43 -12q-6 -59 -6 -106
q0 -45 30 -78.5t73 -33.5q78 0 121 63q43 60 43 160q14 7 28 7q20 0 43 -12q-5 -59 -5 -106q0 -46 30.5 -79t76.5 -33q137 0 185 102q-15 79 -91 151l77 182q90 -143 105 -294q-24 -116 -93 -197q-73 -88 -162 -88q-142 0 -166 134h-4q-41 -134 -175 -134q-58 0 -102 35
q-47 36 -58 99h-4q-19 -59 -75 -97q-58 -37 -138 -37h-43zM1271 815l-99 -99l-101 99l101 99zM1506 815l-98 -99l-100 99l100 99z" />
    <glyph glyph-name="uniFD0E" unicode="&#xfeb3;&#xfeae;" horiz-adv-x="1765" arabic-form="isolated" 
d="M677 0q-52 0 -111 52q-21 -166 -93 -298q-70 -128 -225 -288q-67 0 -142 20t-106 46q218 103 355 253q111 121 128 215q-17 126 -141 244l62 187l94 -146q91 -141 179 -141h43q196 0 196 223q14 7 28 7q21 0 43 -12q-6 -59 -6 -106q0 -45 30 -78.5t73 -33.5q78 0 121 63
q43 60 43 160q14 7 28 7q20 0 43 -12q-5 -59 -5 -106q0 -46 30.5 -79t76.5 -33q137 0 185 102q-15 79 -91 151l77 182q90 -143 105 -294q-24 -116 -93 -197q-73 -88 -162 -88q-142 0 -166 134h-4q-41 -134 -175 -134q-58 0 -102 35q-47 36 -58 99h-4q-19 -59 -75 -97
q-58 -37 -138 -37h-43z" />
    <glyph glyph-name="uniFD0F" unicode="&#xfebb;&#xfeae;" horiz-adv-x="2033" arabic-form="isolated" 
d="M1836 256q0 65 -59.5 121t-134.5 56q-185 0 -440 -289h187q136 0 268 34q125 32 179 78zM677 0q-52 0 -111 52q-21 -166 -93 -298q-70 -128 -225 -288q-67 0 -142 20t-106 46q218 103 355 253q111 121 128 215q-17 126 -141 244l62 187l94 -146q91 -141 179 -141h43
q196 0 196 223q14 7 28 7q21 0 43 -12q-6 -59 -6 -106q0 -46 35 -79t97 -33q215 250 366 345q108 69 211 69q112 0 190 -81q73 -75 73 -167q-114 -177 -294 -246q-166 -64 -467 -64q-230 0 -255 134h-4q-19 -59 -75 -97q-58 -37 -138 -37h-43z" />
    <glyph glyph-name="uniFD10" unicode="&#xfebf;&#xfeae;" horiz-adv-x="2033" arabic-form="isolated" 
d="M1740 931l-111 -112l-126 105l114 114zM1836 256q0 65 -59.5 121t-134.5 56q-185 0 -440 -289h187q136 0 268 34q125 32 179 78zM677 0q-52 0 -111 52q-21 -166 -93 -298q-70 -128 -225 -288q-67 0 -142 20t-106 46q218 103 355 253q111 121 128 215q-17 126 -141 244
l62 187l94 -146q91 -141 179 -141h43q196 0 196 223q14 7 28 7q21 0 43 -12q-6 -59 -6 -106q0 -46 35 -79t97 -33q215 250 366 345q108 69 211 69q112 0 190 -81q73 -75 73 -167q-114 -177 -294 -246q-166 -64 -467 -64q-230 0 -255 134h-4q-19 -59 -75 -97
q-58 -37 -138 -37h-43z" />
    <glyph glyph-name="uniFD17" unicode="&#xfeb4;&#xfef0;" horiz-adv-x="2297" arabic-form="final" 
d="M1024 0q-151 0 -205 -73q34 -24 112 -41q100 -22 135.5 -43t35.5 -62q0 -19 -12 -88q-14 -73 -25 -102q-116 -55 -291 -93q-187 -41 -350 -41q-161 0 -258 75q-103 79 -103 220q0 165 142 412q32 0 62 -30q-37 -62 -63 -153q-23 -84 -23 -140q0 -106 73.5 -167.5
t206.5 -61.5q152 0 334 27q161 24 242 51q-10 53 -136 77q-99 18 -162 60q16 100 45 212q98 105 258 105h140l20 -2q196 3 196 223q14 7 28 7q21 0 43 -12q-6 -56 -6 -104q0 -46 34.5 -79t92.5 -33q78 0 122 63q42 59 42 158q14 7 28 7q21 0 43 -12q-6 -56 -6 -104
q0 -46 31 -79t78 -33q77 0 122 63q42 59 42 158q14 7 28 7q20 0 43 -12q-6 -56 -6 -104q0 -46 33.5 -79t88.5 -33h20q26 0 26 -30v-89q0 -25 -26 -25h-20q-54 0 -100.5 37.5t-58.5 96.5h-4q-39 -134 -168 -134q-141 0 -166 134h-4q-41 -134 -174 -134q-160 0 -185 134h-4
q-19 -59 -75 -97q-58 -37 -138 -37h-178z" />
    <glyph glyph-name="uniFD18" unicode="&#xfeb4;&#xfef2;" horiz-adv-x="2297" arabic-form="final" 
d="M762 -776l-112 -112l-125 105l114 113zM513 -796l-112 -112l-125 104l114 113zM1024 0q-151 0 -205 -73q34 -24 112 -41q100 -22 135.5 -43t35.5 -62q0 -19 -12 -88q-14 -73 -25 -102q-116 -55 -291 -93q-187 -41 -350 -41q-161 0 -258 75q-103 79 -103 220
q0 165 142 412q32 0 62 -30q-37 -62 -63 -153q-23 -84 -23 -140q0 -106 73.5 -167.5t206.5 -61.5q152 0 334 27q161 24 242 51q-10 53 -136 77q-99 18 -162 60q16 100 45 212q98 105 258 105h140l20 -2q196 3 196 223q14 7 28 7q21 0 43 -12q-6 -56 -6 -104q0 -46 34.5 -79
t92.5 -33q78 0 122 63q42 59 42 158q14 7 28 7q21 0 43 -12q-6 -56 -6 -104q0 -46 31 -79t78 -33q77 0 122 63q42 59 42 158q14 7 28 7q20 0 43 -12q-6 -56 -6 -104q0 -46 33.5 -79t88.5 -33h20q26 0 26 -30v-89q0 -25 -26 -25h-20q-54 0 -100.5 37.5t-58.5 96.5h-4
q-39 -134 -168 -134q-141 0 -166 134h-4q-41 -134 -174 -134q-160 0 -185 134h-4q-19 -59 -75 -97q-58 -37 -138 -37h-178z" />
    <glyph glyph-name="uniFD19" unicode="&#xfeb8;&#xfef0;" horiz-adv-x="2297" arabic-form="final" 
d="M1878 938l-99 -99l-99 99l99 99zM1024 0q-151 0 -205 -73q34 -24 112 -41q100 -22 135.5 -43t35.5 -62q0 -19 -12 -88q-14 -73 -25 -102q-116 -55 -291 -93q-187 -41 -350 -41q-161 0 -258 75q-103 79 -103 220q0 165 142 412q32 0 62 -30q-37 -62 -63 -153
q-23 -84 -23 -140q0 -106 73.5 -167.5t206.5 -61.5q152 0 334 27q161 24 242 51q-10 53 -136 77q-99 18 -162 60q16 100 45 212q98 105 258 105h140l20 -2q196 3 196 223q14 7 28 7q21 0 43 -12q-6 -56 -6 -104q0 -46 34.5 -79t92.5 -33q78 0 122 63q42 59 42 158q14 7 28 7
q21 0 43 -12q-6 -56 -6 -104q0 -46 31 -79t78 -33q77 0 122 63q42 59 42 158q14 7 28 7q20 0 43 -12q-6 -56 -6 -104q0 -46 33.5 -79t88.5 -33h20q26 0 26 -30v-89q0 -25 -26 -25h-20q-54 0 -100.5 37.5t-58.5 96.5h-4q-39 -134 -168 -134q-141 0 -166 134h-4
q-41 -134 -174 -134q-160 0 -185 134h-4q-19 -59 -75 -97q-58 -37 -138 -37h-178zM1760 737l-98 -99l-101 99l101 98zM1995 737l-98 -99l-99 99l99 98z" />
    <glyph glyph-name="uniFD1A" unicode="&#xfeb8;&#xfef2;" horiz-adv-x="2297" arabic-form="final" 
d="M762 -776l-112 -112l-125 105l114 113zM513 -796l-112 -112l-125 104l114 113zM1878 938l-99 -99l-99 99l99 99zM1024 0q-151 0 -205 -73q34 -24 112 -41q100 -22 135.5 -43t35.5 -62q0 -19 -12 -88q-14 -73 -25 -102q-116 -55 -291 -93q-187 -41 -350 -41
q-161 0 -258 75q-103 79 -103 220q0 165 142 412q32 0 62 -30q-37 -62 -63 -153q-23 -84 -23 -140q0 -106 73.5 -167.5t206.5 -61.5q152 0 334 27q161 24 242 51q-10 53 -136 77q-99 18 -162 60q16 100 45 212q98 105 258 105h140l20 -2q196 3 196 223q14 7 28 7
q21 0 43 -12q-6 -56 -6 -104q0 -46 34.5 -79t92.5 -33q78 0 122 63q42 59 42 158q14 7 28 7q21 0 43 -12q-6 -56 -6 -104q0 -46 31 -79t78 -33q77 0 122 63q42 59 42 158q14 7 28 7q20 0 43 -12q-6 -56 -6 -104q0 -46 33.5 -79t88.5 -33h20q26 0 26 -30v-89q0 -25 -26 -25
h-20q-54 0 -100.5 37.5t-58.5 96.5h-4q-39 -134 -168 -134q-141 0 -166 134h-4q-41 -134 -174 -134q-160 0 -185 134h-4q-19 -59 -75 -97q-58 -37 -138 -37h-178zM1760 737l-98 -99l-101 99l101 98zM1995 737l-98 -99l-99 99l99 98z" />
    <glyph glyph-name="uniFD21" unicode="&#xfebc;&#xfef0;" horiz-adv-x="2500" arabic-form="final" 
d="M2309 256q0 65 -59.5 121t-134.5 56q-185 0 -440 -289h187q136 0 268 34q125 32 179 78zM1024 0q-151 0 -205 -73q34 -24 112 -41q100 -22 135.5 -43t35.5 -62q0 -19 -12 -88q-14 -73 -25 -102q-116 -55 -291 -93q-187 -41 -350 -41q-161 0 -258 75q-103 79 -103 220
q0 165 142 412q32 0 62 -30q-37 -62 -63 -153q-23 -84 -23 -140q0 -106 73.5 -167.5t206.5 -61.5q152 0 334 27q161 24 242 51q-10 53 -136 77q-99 18 -162 60q16 100 45 212q98 105 258 105h151q196 0 196 223q14 7 28 7q21 0 43 -12q-6 -59 -6 -106q0 -46 35 -79t97 -33
q215 250 366 345q108 69 211 69q112 0 190 -81q73 -75 73 -167q-26 -80 -155 -159v-7h237q27 0 27 -30v-89q0 -25 -27 -25h-93q-136 0 -368 41q-188 -41 -382 -41q-230 0 -255 134h-4q-19 -59 -75 -97q-58 -37 -138 -37h-169z" />
    <glyph glyph-name="uniFD22" unicode="&#xfebc;&#xfef2;" horiz-adv-x="2500" arabic-form="final" 
d="M762 -776l-112 -112l-125 105l114 113zM513 -796l-112 -112l-125 104l114 113zM2309 256q0 65 -59.5 121t-134.5 56q-185 0 -440 -289h187q136 0 268 34q125 32 179 78zM1024 0q-151 0 -205 -73q34 -24 112 -41q100 -22 135.5 -43t35.5 -62q0 -19 -12 -88
q-14 -73 -25 -102q-116 -55 -291 -93q-187 -41 -350 -41q-161 0 -258 75q-103 79 -103 220q0 165 142 412q32 0 62 -30q-37 -62 -63 -153q-23 -84 -23 -140q0 -106 73.5 -167.5t206.5 -61.5q152 0 334 27q161 24 242 51q-10 53 -136 77q-99 18 -162 60q16 100 45 212
q98 105 258 105h151q196 0 196 223q14 7 28 7q21 0 43 -12q-6 -59 -6 -106q0 -46 35 -79t97 -33q215 250 366 345q108 69 211 69q112 0 190 -81q73 -75 73 -167q-26 -80 -155 -159v-7h237q27 0 27 -30v-89q0 -25 -27 -25h-93q-136 0 -368 41q-188 -41 -382 -41
q-230 0 -255 134h-4q-19 -59 -75 -97q-58 -37 -138 -37h-169z" />
    <glyph glyph-name="uniFD23" unicode="&#xfec0;&#xfef0;" horiz-adv-x="2500" arabic-form="final" 
d="M2309 256q0 65 -59.5 121t-134.5 56q-185 0 -440 -289h187q136 0 268 34q125 32 179 78zM2213 931l-111 -112l-126 105l114 114zM1024 0q-151 0 -205 -73q34 -24 112 -41q100 -22 135.5 -43t35.5 -62q0 -19 -12 -88q-14 -73 -25 -102q-116 -55 -291 -93
q-187 -41 -350 -41q-161 0 -258 75q-103 79 -103 220q0 165 142 412q32 0 62 -30q-37 -62 -63 -153q-23 -84 -23 -140q0 -106 73.5 -167.5t206.5 -61.5q152 0 334 27q161 24 242 51q-10 53 -136 77q-99 18 -162 60q16 100 45 212q98 105 258 105h151q196 0 196 223
q14 7 28 7q21 0 43 -12q-6 -59 -6 -106q0 -46 35 -79t97 -33q215 250 366 345q108 69 211 69q112 0 190 -81q73 -75 73 -167q-26 -80 -155 -159v-7h237q27 0 27 -30v-89q0 -25 -27 -25h-93q-136 0 -368 41q-188 -41 -382 -41q-230 0 -255 134h-4q-19 -59 -75 -97
q-58 -37 -138 -37h-169z" />
    <glyph glyph-name="uniFD24" unicode="&#xfec0;&#xfef2;" horiz-adv-x="2500" arabic-form="final" 
d="M762 -776l-112 -112l-125 105l114 113zM513 -796l-112 -112l-125 104l114 113zM2309 256q0 65 -59.5 121t-134.5 56q-185 0 -440 -289h187q136 0 268 34q125 32 179 78zM2213 931l-111 -112l-126 105l114 114zM1024 0q-151 0 -205 -73q34 -24 112 -41q100 -22 135.5 -43
t35.5 -62q0 -19 -12 -88q-14 -73 -25 -102q-116 -55 -291 -93q-187 -41 -350 -41q-161 0 -258 75q-103 79 -103 220q0 165 142 412q32 0 62 -30q-37 -62 -63 -153q-23 -84 -23 -140q0 -106 73.5 -167.5t206.5 -61.5q152 0 334 27q161 24 242 51q-10 53 -136 77
q-99 18 -162 60q16 100 45 212q98 105 258 105h151q196 0 196 223q14 7 28 7q21 0 43 -12q-6 -59 -6 -106q0 -46 35 -79t97 -33q215 250 366 345q108 69 211 69q112 0 190 -81q73 -75 73 -167q-26 -80 -155 -159v-7h237q27 0 27 -30v-89q0 -25 -27 -25h-93q-136 0 -368 41
q-188 -41 -382 -41q-230 0 -255 134h-4q-19 -59 -75 -97q-58 -37 -138 -37h-169z" />
    <glyph glyph-name="uniFD29" unicode="&#xfeb8;&#xfeae;" horiz-adv-x="1811" arabic-form="final" 
d="M1396 938l-99 -99l-99 99l99 99zM1513 737l-98 -99l-99 99l99 98zM1278 737l-98 -99l-101 99l101 98zM702 144l18 -2q196 3 196 223q14 7 28 7q21 0 43 -12q-6 -56 -6 -104q0 -46 34.5 -79t92.5 -33q78 0 122 63q42 59 42 158q14 7 28 7q21 0 43 -12q-6 -56 -6 -104
q0 -46 31 -79t78 -33q77 0 122 63q42 59 42 158q13 7 28 7q20 0 43 -12q-6 -56 -6 -104q0 -46 33.5 -79t88.5 -33h20q26 0 26 -30v-89q0 -25 -26 -25h-20q-54 0 -100.5 37.5t-58.5 96.5h-4q-39 -134 -168 -134q-141 0 -166 134h-4q-42 -134 -175 -134q-159 0 -184 134h-4
q-19 -59 -75 -97q-58 -37 -138 -37h-43q-52 0 -111 52q-21 -166 -93 -298q-70 -128 -225 -288q-67 0 -142 20t-106 46q218 103 355 253q111 121 128 215q-17 126 -141 244l62 187l94 -146q91 -141 179 -141h25z" />
    <glyph glyph-name="uniFD2A" unicode="&#xfeb4;&#xfeae;" horiz-adv-x="1811" arabic-form="final" 
d="M702 144l18 -2q196 3 196 223q14 7 28 7q21 0 43 -12q-6 -56 -6 -104q0 -46 34.5 -79t92.5 -33q78 0 122 63q42 59 42 158q14 7 28 7q21 0 43 -12q-6 -56 -6 -104q0 -46 31 -79t78 -33q77 0 122 63q42 59 42 158q13 7 28 7q20 0 43 -12q-6 -56 -6 -104q0 -46 33.5 -79
t88.5 -33h20q26 0 26 -30v-89q0 -25 -26 -25h-20q-54 0 -100.5 37.5t-58.5 96.5h-4q-39 -134 -168 -134q-141 0 -166 134h-4q-42 -134 -175 -134q-159 0 -184 134h-4q-19 -59 -75 -97q-58 -37 -138 -37h-43q-52 0 -111 52q-21 -166 -93 -298q-70 -128 -225 -288
q-67 0 -142 20t-106 46q218 103 355 253q111 121 128 215q-17 126 -141 244l62 187l94 -146q91 -141 179 -141h25z" />
    <glyph glyph-name="uniFD2B" unicode="&#xfebc;&#xfeae;" horiz-adv-x="2029" arabic-form="final" 
d="M1836 256q0 65 -59.5 121t-134.5 56q-185 0 -440 -289h187q136 0 268 34q125 32 179 78zM677 0q-52 0 -111 52q-21 -166 -93 -298q-70 -128 -225 -288q-67 0 -142 20t-106 46q218 103 355 253q111 121 128 215q-17 126 -141 244l62 187l94 -146q91 -141 179 -141h43
q196 0 196 223q14 7 28 7q21 0 43 -12q-6 -59 -6 -106q0 -46 35 -79t97 -33q215 250 366 345q108 69 211 69q112 0 190 -81q73 -75 73 -167q-26 -80 -155 -159v-7h237q27 0 27 -30v-89q0 -25 -27 -25h-93q-136 0 -368 41q-188 -41 -382 -41q-230 0 -255 134h-4
q-19 -59 -75 -97q-58 -37 -138 -37h-43z" />
    <glyph glyph-name="uniFD2C" unicode="&#xfec0;&#xfeae;" horiz-adv-x="2029" arabic-form="final" 
d="M1740 931l-111 -112l-126 105l114 114zM1836 256q0 65 -59.5 121t-134.5 56q-185 0 -440 -289h187q136 0 268 34q125 32 179 78zM677 0q-52 0 -111 52q-21 -166 -93 -298q-70 -128 -225 -288q-67 0 -142 20t-106 46q218 103 355 253q111 121 128 215q-17 126 -141 244
l62 187l94 -146q91 -141 179 -141h43q196 0 196 223q14 7 28 7q21 0 43 -12q-6 -59 -6 -106q0 -46 35 -79t97 -33q215 250 366 345q108 69 211 69q112 0 190 -81q73 -75 73 -167q-26 -80 -155 -159v-7h237q27 0 27 -30v-89q0 -25 -27 -25h-93q-136 0 -368 41
q-188 -41 -382 -41q-230 0 -255 134h-4q-19 -59 -75 -97q-58 -37 -138 -37h-43z" />
    <glyph glyph-name="uniFEF5" unicode="&#xfedf;&#xfe82;" horiz-adv-x="1135" arabic-form="isolated" 
d="M1067 987l-81 47q-48 -450 -194 -700q64 -111 64 -172q0 -66 -23 -144q-59 -8 -194 -20q-153 -13 -196 -9q27 56 27 148q117 50 226 191q-69 128 -236 297q-143 145 -242 211l-37 -35l-146 115q0 130 32 207q268 -190 417 -349q140 -148 262 -363q94 169 149 783l137 91
q0 -92 35 -298zM785 148q-17 71 -46 115q-76 -86 -144 -133v-5q109 0 190 23zM406 1366q-84 -68 -221 -68q-62 0 -79 2q-21 -35 -24 -82q-45 0 -54 4q0 94 36 169q51 -13 144 -13q118 0 198 54v-66z" />
    <glyph glyph-name="uniFEF6" unicode="&#xfee0;&#xfe82;" horiz-adv-x="1244" arabic-form="final" 
d="M1281 25q0 -25 -26 -25h-20q-103 0 -155 67q-58 74 -69 248q-26 386 -29 523h-3q-110 -420 -192 -564q-78 -136 -277 -270q-175 -34 -276 -34h-210v9q101 20 298 105q230 99 332 188q-32 258 -375 581l-32 -39l-136 123q0 147 38 240q324 -312 430 -469
q105 -154 136 -366q71 98 143 329q76 245 99 467l107 147q7 -432 46 -984q11 -157 125 -157h20q26 0 26 -30v-89zM442 1420q-84 -67 -221 -67q-62 0 -79 2q-21 -36 -24 -82q-45 0 -54 3q0 95 36 170q52 -13 144 -13q118 0 198 54v-67z" />
    <glyph glyph-name="uniFEF7" unicode="&#xfedf;&#xfe84;" horiz-adv-x="1135" arabic-form="isolated" 
d="M1066 987l-80 47q-48 -450 -194 -700q64 -111 64 -172q0 -66 -23 -144q-59 -8 -194 -20q-153 -13 -196 -9q26 56 26 148q118 50 226 191q-68 128 -236 297q-143 145 -241 211l-37 -35l-146 115q0 130 32 207q268 -190 417 -349q139 -148 261 -363q94 169 150 783l136 91
q0 -92 35 -298zM785 148q-18 71 -47 115q-75 -86 -144 -133v-5q110 0 191 23zM319 1336q-25 -5 -62 -16.5t-77 -26t-79 -31.5t-68 -33v66q18 10 42.5 20.5t54.5 17.5v3q-81 30 -81 104q85 129 169 129q55 0 90 -59l-54 -41q-19 18 -36 26t-31 8q-38 0 -80 -57
q30 -65 104 -68q26 8 58.5 17.5t71.5 16.5z" />
    <glyph glyph-name="uniFEF8" unicode="&#xfee0;&#xfe84;" horiz-adv-x="1244" arabic-form="final" 
d="M1281 25q0 -25 -26 -25h-20q-103 0 -155 67q-58 74 -69 248q-26 386 -29 523h-3q-110 -420 -192 -564q-78 -136 -277 -270q-175 -34 -276 -34h-210v9q101 20 298 105q230 99 332 188q-32 258 -375 581l-32 -39l-136 123q0 147 38 240q324 -312 430 -469
q105 -154 136 -366q71 98 143 329q76 245 99 467l107 147q7 -432 46 -984q11 -157 125 -157h20q26 0 26 -30v-89zM328 1363q-25 -5 -62 -16t-77 -26t-79 -31.5t-68 -33.5v66q18 10 43 20.5t55 17.5v4q-81 29 -81 104q84 128 168 128q55 0 90 -58l-53 -42q-20 18 -37 26.5
t-31 8.5q-38 0 -80 -58q30 -65 104 -67q26 7 58.5 16.5t71.5 16.5z" />
    <glyph glyph-name="uniFEF9" unicode="&#xfedf;&#xfe88;" horiz-adv-x="1135" arabic-form="isolated" 
d="M1066 987l-80 47q-48 -450 -194 -700q64 -111 64 -172q0 -66 -23 -144q-59 -8 -194 -20q-153 -13 -196 -9q27 56 27 148q117 50 225 191q-68 128 -235 297q-143 145 -242 211l-37 -35l-146 115q0 130 32 207q268 -190 417 -349q140 -148 262 -363q93 169 149 783l137 91
q0 -92 34 -298zM785 148q-18 71 -47 115q-75 -86 -144 -133v-5q110 0 191 23zM492 -350q-25 -4 -62 -15.5t-77 -26t-79 -31.5t-68 -33v65q18 10 43 20.5t55 17.5v4q-81 29 -81 104q84 128 168 128q55 0 90 -58l-53 -42q-19 18 -36.5 26.5t-31.5 8.5q-38 0 -80 -58
q30 -64 104 -67q26 7 58.5 16.5t71.5 17.5z" />
    <glyph glyph-name="uniFEFA" unicode="&#xfee0;&#xfe88;" horiz-adv-x="1244" arabic-form="final" 
d="M1281 25q0 -25 -26 -25h-20q-103 0 -155 67q-58 74 -69 248q-26 386 -29 523h-3q-110 -420 -192 -564q-78 -136 -277 -270q-175 -34 -276 -34h-210v9q101 20 298 105q230 99 332 188q-32 258 -375 581l-32 -39l-136 123q0 147 38 240q324 -312 430 -469
q105 -154 136 -366q71 98 143 329q76 245 99 467l107 147q7 -432 46 -984q11 -157 125 -157h20q26 0 26 -30v-89zM538 -368q-26 -5 -62.5 -16t-77 -26t-79 -31.5t-67.5 -33.5v66q18 10 42.5 20.5t54.5 17.5v4q-81 29 -81 104q85 128 169 128q54 0 90 -58l-54 -42
q-19 18 -36.5 26.5t-30.5 8.5q-39 0 -80 -58q30 -65 103 -67q27 7 59.5 16.5t71.5 16.5z" />
    <glyph glyph-name="uniFEFB" unicode="&#xfedf;&#xfe8e;" horiz-adv-x="1135" arabic-form="isolated" 
d="M1066 987l-80 47q-48 -450 -194 -700q64 -111 64 -172q0 -66 -23 -144q-59 -8 -194 -20q-153 -13 -196 -9q27 56 27 148q117 50 225 191q-68 128 -235 297q-143 145 -242 211l-37 -35l-146 115q0 130 32 207q268 -190 417 -349q140 -148 262 -363q93 169 149 783l137 91
q0 -92 34 -298zM785 148q-18 71 -47 115q-75 -86 -144 -133v-5q110 0 191 23z" />
    <glyph glyph-name="uniFEFC" unicode="&#xfee0;&#xfe8e;" horiz-adv-x="1244" arabic-form="final" 
d="M1281 25q0 -25 -26 -25h-20q-103 0 -155 67q-58 74 -69 248q-26 386 -29 523h-3q-110 -420 -192 -564q-78 -136 -277 -270q-175 -34 -276 -34h-210v9q101 20 298 105q230 99 332 188q-32 258 -375 581l-32 -39l-136 123q0 147 38 240q324 -312 430 -469
q105 -154 136 -366q71 98 143 329q76 245 99 467l107 147q7 -432 46 -984q11 -157 125 -157h20q26 0 26 -30v-89z" />
    <glyph glyph-name="uniFE8B_uniFEE4.liga" unicode="&#xfe8b;&#xfee4;" horiz-adv-x="1335" 
d="M543 87q-2 118 -53 188q-44 61 -102 61q-69 0 -151 -103q129 -125 306 -146zM819 0q-35 0 -91 32q-63 35 -112 93q-41 -111 -105 -171q-212 26 -354 180q-80 -134 -157 -134h-11q-26 0 -26 25v89q0 30 26 30h20q60 0 185 160q122 157 232 157q39 0 76 -17
q95 -147 188 -229q80 -71 129 -71h75q210 0 258 102q-17 79 -92 151l76 182q91 -143 107 -294q-23 -118 -100 -201.5t-165 -83.5h-159zM1213 762q-26 -5 -62.5 -16.5t-77 -26t-79 -31.5t-67.5 -33v66q18 10 42.5 20.5t54.5 17.5v4q-81 29 -81 103q85 129 169 129
q54 0 90 -58l-54 -42q-19 18 -36 26t-31 8q-38 0 -80 -57q30 -65 104 -68q26 8 58.5 17.5t71.5 16.5z" />
    <glyph glyph-name="uniFE8B_uniFEF0.liga" unicode="&#xfe8b;&#xfef0;" horiz-adv-x="1675" 
d="M1024 0q-151 0 -205 -73q34 -24 112 -41q100 -22 135.5 -43t35.5 -62q0 -19 -12 -88q-14 -73 -25 -102q-116 -55 -291 -93q-187 -41 -350 -41q-161 0 -258 75q-103 79 -103 220q0 165 142 412q32 0 62 -30q-37 -62 -63 -153q-23 -84 -23 -140q0 -106 73.5 -167.5
t206.5 -61.5q152 0 334 27q161 24 242 51q-10 53 -136 77q-99 18 -162 60q16 100 45 212q98 105 258 105h188q210 0 258 102q-17 79 -92 151l76 182q91 -143 107 -294q-23 -118 -100 -201.5t-165 -83.5h-290zM1549 762q-26 -5 -62.5 -16.5t-77 -26t-79 -31.5t-67.5 -33v66
q18 10 42.5 20.5t54.5 17.5v4q-81 29 -81 103q85 129 169 129q54 0 90 -58l-54 -42q-19 18 -36.5 26t-30.5 8q-38 0 -80 -57q30 -65 103 -68q27 8 59.5 17.5t71.5 16.5z" />
    <glyph glyph-name="uniFE8B_uniFEF2.liga" unicode="&#xfe8b;&#xfef2;" horiz-adv-x="1675" 
d="M762 -776l-112 -112l-125 105l114 113zM513 -796l-112 -112l-125 104l114 113zM1024 0q-151 0 -205 -73q34 -24 112 -41q100 -22 135.5 -43t35.5 -62q0 -19 -12 -88q-14 -73 -25 -102q-116 -55 -291 -93q-187 -41 -350 -41q-161 0 -258 75q-103 79 -103 220
q0 165 142 412q32 0 62 -30q-37 -62 -63 -153q-23 -84 -23 -140q0 -106 73.5 -167.5t206.5 -61.5q152 0 334 27q161 24 242 51q-10 53 -136 77q-99 18 -162 60q16 100 45 212q98 105 258 105h188q210 0 258 102q-17 79 -92 151l76 182q91 -143 107 -294
q-23 -118 -100 -201.5t-165 -83.5h-290zM1549 762q-26 -5 -62.5 -16.5t-77 -26t-79 -31.5t-67.5 -33v66q18 10 42.5 20.5t54.5 17.5v4q-81 29 -81 103q85 129 169 129q54 0 90 -58l-54 -42q-19 18 -36.5 26t-30.5 8q-38 0 -80 -57q30 -65 103 -68q27 8 59.5 17.5t71.5 16.5z
" />
    <glyph glyph-name="uniFE91_uniFEE4.liga" unicode="&#xfe91;&#xfee4;" horiz-adv-x="1259" 
d="M1176 -282l-112 -112l-125 105l114 113zM543 87q-2 118 -53 188q-44 61 -102 61q-69 0 -151 -103q129 -125 306 -146zM819 0q-35 0 -91 32q-63 35 -112 93q-41 -111 -105 -171q-212 26 -354 180q-80 -134 -157 -134h-11q-26 0 -26 25v89q0 30 26 30h20q60 0 185 160
q122 157 232 157q39 0 76 -17q95 -147 188 -229q80 -71 129 -71h66q153 0 201 102q-15 79 -91 151l77 182q90 -143 105 -294q-22 -124 -105 -202q-90 -83 -215 -83h-38z" />
    <glyph glyph-name="uniFE92_uniFEE6.liga" unicode="&#xfe92;&#xfee6;" horiz-adv-x="1596" 
d="M725 589l-112 -112l-125 105l113 114zM1501 -282l-112 -112l-125 105l114 113zM1146 0q-53 0 -93 43l-3 -4q26 -68 26 -153q-15 -92 -62 -207q-86 -85 -245 -150q-177 -72 -346 -72q-160 0 -257 76q-103 80 -103 221q0 165 141 412q32 0 62 -29q-37 -63 -63 -154
q-22 -84 -22 -140q0 -106 73 -169t206 -62q315 2 543 210q-24 233 -147 422l63 187q129 -287 227 -287h38q79 0 127 55q47 52 47 134v31q10 8 29 8q22 0 35 -10v-32q0 -110 39 -151q35 -35 118 -35h21q26 0 26 -30v-89q0 -25 -26 -25h-21q-77 0 -132 43q-52 39 -56 91h-8
q-13 -58 -76 -98q-59 -36 -123 -36h-38z" />
    <glyph glyph-name="uniFE91_uniFEF0.liga" unicode="&#xfe91;&#xfef0;" horiz-adv-x="1603" 
d="M1024 0q-151 0 -205 -73q34 -24 112 -41q100 -22 135.5 -43t35.5 -62q0 -19 -12 -88q-14 -73 -25 -102q-116 -55 -291 -93q-187 -41 -350 -41q-161 0 -258 75q-103 79 -103 220q0 165 142 412q32 0 62 -30q-37 -62 -63 -153q-23 -84 -23 -140q0 -106 73.5 -167.5
t206.5 -61.5q152 0 334 27q161 24 242 51q-10 53 -136 77q-99 18 -162 60q16 100 45 212q98 105 258 105h179q153 0 201 102q-15 79 -91 151l77 182q90 -143 105 -294q-22 -124 -105 -202q-90 -83 -215 -83h-169zM1512 -282l-112 -112l-125 105l114 113z" />
    <glyph glyph-name="uniFE91_uniFEF2.liga" unicode="&#xfe91;&#xfef2;" horiz-adv-x="1603" 
d="M762 -776l-112 -112l-125 105l114 113zM513 -796l-112 -112l-125 104l114 113zM1024 0q-151 0 -205 -73q34 -24 112 -41q100 -22 135.5 -43t35.5 -62q0 -19 -12 -88q-14 -73 -25 -102q-116 -55 -291 -93q-187 -41 -350 -41q-161 0 -258 75q-103 79 -103 220
q0 165 142 412q32 0 62 -30q-37 -62 -63 -153q-23 -84 -23 -140q0 -106 73.5 -167.5t206.5 -61.5q152 0 334 27q161 24 242 51q-10 53 -136 77q-99 18 -162 60q16 100 45 212q98 105 258 105h179q153 0 201 102q-15 79 -91 151l77 182q90 -143 105 -294q-22 -124 -105 -202
q-90 -83 -215 -83h-169zM1512 -282l-112 -112l-125 105l114 113z" />
    <glyph glyph-name="uniFE97_uniFEE4.liga" unicode="&#xfe97;&#xfee4;" horiz-adv-x="1365" 
d="M543 87q-2 118 -53 188q-44 61 -102 61q-69 0 -151 -103q129 -125 306 -146zM1344 864l-112 -112l-125 104l114 114zM819 0q-35 0 -91 32q-63 35 -112 93q-41 -111 -105 -171q-212 26 -354 180q-80 -134 -157 -134h-11q-26 0 -26 25v89q0 30 26 30h20q60 0 185 160
q122 157 232 157q39 0 76 -17q95 -147 188 -229q80 -71 129 -71h66q210 0 258 102q-17 79 -92 151l76 182q90 -143 107 -294q-23 -118 -100 -201.5t-165 -83.5h-150zM1095 844l-111 -112l-125 104l113 113z" />
    <glyph glyph-name="uniFE98_uniFEE6.liga" unicode="&#xfe98;&#xfee6;" horiz-adv-x="1698" 
d="M725 589l-112 -112l-125 105l113 114zM1146 0q-53 0 -93 43l-3 -4q26 -68 26 -153q-15 -92 -62 -207q-86 -85 -245 -150q-177 -72 -346 -72q-160 0 -257 76q-103 80 -103 221q0 165 141 412q32 0 62 -29q-37 -63 -63 -154q-22 -84 -22 -140q0 -106 73 -169t206 -62
q315 2 543 210q-24 233 -147 422l63 187q129 -287 227 -287h38q216 0 216 189v31q10 8 30 8q21 0 35 -10v-32q0 -112 47 -151q44 -35 172 -35h21q25 0 25 -30v-89q0 -25 -25 -25h-21q-119 0 -187 43q-58 36 -63 91h-8q-13 -58 -77 -98q-58 -36 -123 -36h-80zM1419 700
l-112 -112l-125 104l114 114zM1667 721l-112 -112l-125 103l114 114z" />
    <glyph glyph-name="uniFE97_uniFEF0.liga" unicode="&#xfe97;&#xfef0;" horiz-adv-x="1705" 
d="M1680 864l-112 -112l-125 104l114 114zM1024 0q-151 0 -205 -73q34 -24 112 -41q100 -22 135.5 -43t35.5 -62q0 -19 -12 -88q-14 -73 -25 -102q-116 -55 -291 -93q-187 -41 -350 -41q-161 0 -258 75q-103 79 -103 220q0 165 142 412q32 0 62 -30q-37 -62 -63 -153
q-23 -84 -23 -140q0 -106 73.5 -167.5t206.5 -61.5q152 0 334 27q161 24 242 51q-10 53 -136 77q-99 18 -162 60q16 100 45 212q98 105 258 105h179q209 0 258 102q-17 79 -92 151l76 182q90 -143 107 -294q-23 -118 -100 -201.5t-165 -83.5h-281zM1431 844l-111 -112
l-125 104l113 113z" />
    <glyph glyph-name="uniFE97_uniFEF2.liga" unicode="&#xfe97;&#xfef2;" horiz-adv-x="1705" 
d="M762 -776l-112 -112l-125 105l114 113zM513 -796l-112 -112l-125 104l114 113zM1680 864l-112 -112l-125 104l114 114zM1024 0q-151 0 -205 -73q34 -24 112 -41q100 -22 135.5 -43t35.5 -62q0 -19 -12 -88q-14 -73 -25 -102q-116 -55 -291 -93q-187 -41 -350 -41
q-161 0 -258 75q-103 79 -103 220q0 165 142 412q32 0 62 -30q-37 -62 -63 -153q-23 -84 -23 -140q0 -106 73.5 -167.5t206.5 -61.5q152 0 334 27q161 24 242 51q-10 53 -136 77q-99 18 -162 60q16 100 45 212q98 105 258 105h179q209 0 258 102q-17 79 -92 151l76 182
q90 -143 107 -294q-23 -118 -100 -201.5t-165 -83.5h-281zM1431 844l-111 -112l-125 104l113 113z" />
    <glyph glyph-name="uniFE9C_uniFEAE.liga" unicode="&#xfe9c;&#xfeae;" horiz-adv-x="1238" 
d="M677 0q-52 0 -111 52q-21 -166 -93 -298q-70 -128 -225 -288q-67 0 -142 20t-106 46q218 103 355 253q111 121 128 215q-17 126 -141 244l62 187l94 -146q91 -141 179 -141h43q217 0 217 189v31q10 8 30 8q21 0 34 -10v-32q0 -112 48 -151q43 -35 171 -35h21q25 0 25 -30
v-89q0 -25 -25 -25h-21q-119 0 -187 43q-58 36 -63 91h-8q-13 -58 -76 -98q-59 -36 -123 -36h-86zM1055 888l-99 -98l-99 98l99 100zM1172 687l-99 -99l-98 99l98 99zM937 687l-99 -99l-100 99l100 99z" />
    <glyph glyph-name="uniFE9B_uniFEE4.liga" unicode="&#xfe9b;&#xfee4;" horiz-adv-x="1365" 
d="M543 87q-2 118 -53 188q-44 61 -102 61q-69 0 -151 -103q129 -125 306 -146zM819 0q-35 0 -91 32q-63 35 -112 93q-41 -111 -105 -171q-212 26 -354 180q-80 -134 -157 -134h-11q-26 0 -26 25v89q0 30 26 30h20q60 0 185 160q122 157 232 157q39 0 76 -17
q95 -147 188 -229q80 -71 129 -71h66q210 0 258 102q-17 79 -92 151l76 182q90 -143 107 -294q-23 -118 -100 -201.5t-165 -83.5h-150zM1201 1034l-98 -98l-100 98l100 99zM1319 833l-99 -99l-99 99l99 99zM1084 833l-99 -99l-101 99l101 99z" />
    <glyph glyph-name="uniFE9C_uniFEE6.liga" unicode="&#xfe9c;&#xfee6;" horiz-adv-x="1698" 
d="M725 589l-112 -112l-125 105l113 114zM1146 0q-53 0 -93 43l-3 -4q26 -68 26 -153q-15 -92 -62 -207q-86 -85 -245 -150q-177 -72 -346 -72q-160 0 -257 76q-103 80 -103 221q0 165 141 412q32 0 62 -29q-37 -63 -63 -154q-22 -84 -22 -140q0 -106 73 -169t206 -62
q315 2 543 210q-24 233 -147 422l63 187q129 -287 227 -287h38q216 0 216 189v31q10 8 30 8q21 0 35 -10v-32q0 -112 47 -151q44 -35 172 -35h21q25 0 25 -30v-89q0 -25 -25 -25h-21q-119 0 -187 43q-58 36 -63 91h-8q-13 -58 -77 -98q-58 -36 -123 -36h-80zM1522 888
l-100 -98l-98 98l98 100zM1639 687l-99 -99l-99 99l99 99zM1404 687l-99 -99l-100 99l100 99z" />
    <glyph glyph-name="uniFE9B_uniFEF0.liga" unicode="&#xfe9b;&#xfef0;" horiz-adv-x="1705" 
d="M1024 0q-151 0 -205 -73q34 -24 112 -41q100 -22 135.5 -43t35.5 -62q0 -19 -12 -88q-14 -73 -25 -102q-116 -55 -291 -93q-187 -41 -350 -41q-161 0 -258 75q-103 79 -103 220q0 165 142 412q32 0 62 -30q-37 -62 -63 -153q-23 -84 -23 -140q0 -106 73.5 -167.5
t206.5 -61.5q152 0 334 27q161 24 242 51q-10 53 -136 77q-99 18 -162 60q16 100 45 212q98 105 258 105h179q209 0 258 102q-17 79 -92 151l76 182q90 -143 107 -294q-23 -118 -100 -201.5t-165 -83.5h-281zM1536 1034l-98 -98l-100 98l100 99zM1654 833l-99 -99l-99 99
l99 99zM1419 833l-99 -99l-101 99l101 99z" />
    <glyph glyph-name="uniFE9B_uniFEF2.liga" unicode="&#xfe9b;&#xfef2;" horiz-adv-x="1705" 
d="M762 -776l-112 -112l-125 105l114 113zM513 -796l-112 -112l-125 104l114 113zM1024 0q-151 0 -205 -73q34 -24 112 -41q100 -22 135.5 -43t35.5 -62q0 -19 -12 -88q-14 -73 -25 -102q-116 -55 -291 -93q-187 -41 -350 -41q-161 0 -258 75q-103 79 -103 220
q0 165 142 412q32 0 62 -30q-37 -62 -63 -153q-23 -84 -23 -140q0 -106 73.5 -167.5t206.5 -61.5q152 0 334 27q161 24 242 51q-10 53 -136 77q-99 18 -162 60q16 100 45 212q98 105 258 105h179q209 0 258 102q-17 79 -92 151l76 182q90 -143 107 -294
q-23 -118 -100 -201.5t-165 -83.5h-281zM1536 1034l-98 -98l-100 98l100 99zM1654 833l-99 -99l-99 99l99 99zM1419 833l-99 -99l-101 99l101 99z" />
    <glyph glyph-name="uniFEDB_uniFEF0.liga" unicode="&#xfedb;&#xfef0;" horiz-adv-x="2017" 
d="M1024 0q-151 0 -205 -73q34 -24 112 -41q100 -22 135.5 -43t35.5 -62q0 -19 -12 -88q-14 -73 -25 -102q-116 -55 -291 -93q-187 -41 -350 -41q-161 0 -258 75q-103 79 -103 220q0 165 142 412q32 0 62 -30q-37 -62 -63 -153q-23 -84 -23 -140q0 -106 73.5 -167.5
t206.5 -61.5q152 0 334 27q161 24 242 51q-10 53 -136 77q-99 18 -162 60q16 100 45 212q98 105 258 105h183q141 0 234.5 35.5t142.5 100.5q-3 42 -21 83t-61 85.5t-116.5 95.5t-186.5 113l22 207q42 31 103 70t131 81.5t144 84.5t142.5 78.5t126.5 65t97 41.5l-73 -176
q-27 -10 -76.5 -34.5t-110 -56t-126 -68t-125.5 -71.5t-107.5 -65.5t-70.5 -50.5q95 -53 162.5 -102.5t112.5 -95.5t70.5 -89.5t35.5 -87.5q-3 -24 -6 -50.5t-7.5 -54.5t-9.5 -55t-9 -49q-49 -51 -97.5 -85t-102.5 -55t-115.5 -30t-134.5 -9h-169z" />
    <glyph glyph-name="uniFEDC_uniFEF0.liga" unicode="&#xfedc;&#xfef0;" horiz-adv-x="2125" 
d="M1024 0q-151 0 -205 -73q34 -24 112 -41q100 -22 135.5 -43t35.5 -62q0 -19 -12 -88q-14 -73 -25 -102q-116 -55 -291 -93q-187 -41 -350 -41q-161 0 -258 75q-103 79 -103 220q0 165 142 412q32 0 62 -30q-37 -62 -63 -153q-23 -84 -23 -140q0 -106 73.5 -167.5
t206.5 -61.5q152 0 334 27q161 24 242 51q-10 53 -136 77q-99 18 -162 60q16 100 45 212q98 105 258 105h204q140 0 233.5 35.5t142.5 100.5q-3 42 -20.5 83t-61 85.5t-117 95.5t-186.5 113l23 207q42 31 102.5 70t130.5 81.5t144 84.5t142.5 78.5t126.5 65t97 41.5
l-73 -176q-27 -10 -76.5 -34.5t-109.5 -56t-126 -68t-125.5 -71.5t-107 -65.5t-71.5 -50.5q83 -51 156.5 -102.5t150.5 -114.5t164 -144.5t198 -191.5q32 -32 65 -49t59 -17h20q15 0 21 -6.5t6 -23.5v-89q0 -25 -27 -25h-20q-22 0 -43 4t-45.5 17t-54 38t-71 66.5t-96.5 103
t-129 146.5l-3 -3q4 -23 6 -44.5t2 -38.5q0 -27 -4 -56.5t-10 -53.5q-47 -51 -95.5 -85t-102.5 -55t-116 -30t-137 -9h-184z" />
    <glyph glyph-name="uniFEDB_uniFEF2.liga" unicode="&#xfedb;&#xfef2;" horiz-adv-x="2017" 
d="M762 -776l-112 -112l-125 105l114 113zM513 -796l-112 -112l-125 104l114 113zM1024 0q-151 0 -205 -73q34 -24 112 -41q100 -22 135.5 -43t35.5 -62q0 -19 -12 -88q-14 -73 -25 -102q-116 -55 -291 -93q-187 -41 -350 -41q-161 0 -258 75q-103 79 -103 220
q0 165 142 412q32 0 62 -30q-37 -62 -63 -153q-23 -84 -23 -140q0 -106 73.5 -167.5t206.5 -61.5q152 0 334 27q161 24 242 51q-10 53 -136 77q-99 18 -162 60q16 100 45 212q98 105 258 105h183q141 0 234.5 35.5t142.5 100.5q-3 42 -21 83t-61 85.5t-116.5 95.5
t-186.5 113l22 207q42 31 103 70t131 81.5t144 84.5t142.5 78.5t126.5 65t97 41.5l-73 -176q-27 -10 -76.5 -34.5t-110 -56t-126 -68t-125.5 -71.5t-107.5 -65.5t-70.5 -50.5q95 -53 162.5 -102.5t112.5 -95.5t70.5 -89.5t35.5 -87.5q-3 -24 -6 -50.5t-7.5 -54.5t-9.5 -55
t-9 -49q-49 -51 -97.5 -85t-102.5 -55t-115.5 -30t-134.5 -9h-169z" />
    <glyph glyph-name="uniFEDC_uniFEF2.liga" unicode="&#xfedc;&#xfef2;" horiz-adv-x="2125" 
d="M762 -776l-112 -112l-125 105l114 113zM513 -796l-112 -112l-125 104l114 113zM1024 0q-151 0 -205 -73q34 -24 112 -41q100 -22 135.5 -43t35.5 -62q0 -19 -12 -88q-14 -73 -25 -102q-116 -55 -291 -93q-187 -41 -350 -41q-161 0 -258 75q-103 79 -103 220
q0 165 142 412q32 0 62 -30q-37 -62 -63 -153q-23 -84 -23 -140q0 -106 73.5 -167.5t206.5 -61.5q152 0 334 27q161 24 242 51q-10 53 -136 77q-99 18 -162 60q16 100 45 212q98 105 258 105h204q140 0 233.5 35.5t142.5 100.5q-3 42 -20.5 83t-61 85.5t-117 95.5
t-186.5 113l23 207q42 31 102.5 70t130.5 81.5t144 84.5t142.5 78.5t126.5 65t97 41.5l-73 -176q-27 -10 -76.5 -34.5t-109.5 -56t-126 -68t-125.5 -71.5t-107 -65.5t-71.5 -50.5q83 -51 156.5 -102.5t150.5 -114.5t164 -144.5t198 -191.5q32 -32 65 -49t59 -17h20
q15 0 21 -6.5t6 -23.5v-89q0 -25 -27 -25h-20q-22 0 -43 4t-45.5 17t-54 38t-71 66.5t-96.5 103t-129 146.5l-3 -3q4 -23 6 -44.5t2 -38.5q0 -27 -4 -56.5t-10 -53.5q-47 -51 -95.5 -85t-102.5 -55t-116 -30t-137 -9h-184z" />
    <glyph glyph-name="uniFEDF_uniFB51.rlig" unicode="&#xfedf;&#xfb51;" horiz-adv-x="1135" 
d="M1067 987l-80 47q-49 -450 -194 -700q63 -111 63 -172q0 -66 -22 -144q-60 -8 -194 -20q-154 -13 -196 -9q26 56 26 148q118 50 226 191q-68 128 -236 297q-143 145 -241 211l-38 -35l-145 115q0 130 31 207q268 -190 418 -349q139 -148 261 -363q94 169 150 783l136 91
q0 -92 35 -298zM785 148q-17 71 -46 115q-76 -86 -144 -133v-5q109 0 190 23zM353 1380q-24 -48 -71.5 -81t-96.5 -33q-55 0 -125 30q-15 -27 -50 -85v112q16 29 39 57q36 -13 60 -28q45 179 147 179q89 0 97 -151zM314 1399q-2 21 -18.5 40.5t-37.5 19.5q-28 0 -58 -28
q-36 -32 -54 -86q14 -6 43 -6q74 0 125 60z" />
    <glyph glyph-name="uniFEE0_uniFB51.rlig" unicode="&#xfee0;&#xfb51;" horiz-adv-x="1244" 
d="M1281 25q0 -25 -26 -25h-20q-103 0 -155 67q-58 74 -69 248q-26 386 -29 523h-3q-110 -420 -192 -564q-78 -136 -277 -270q-175 -34 -276 -34h-210v9q101 20 298 105q230 99 332 188q-32 258 -375 581l-32 -39l-136 123q0 147 38 240q324 -312 430 -469
q105 -154 136 -366q71 98 143 329q76 245 99 467l107 147q7 -432 46 -984q11 -157 125 -157h20q26 0 26 -30v-89zM380 1408q-24 -49 -71.5 -81.5t-96.5 -32.5q-55 0 -125 30q-16 -28 -50 -86v112q16 29 39 58q35 -13 60 -29q45 180 147 180q89 0 97 -151zM341 1427
q-2 21 -18.5 40t-37.5 19q-28 0 -58 -27q-36 -32 -55 -87q15 -5 44 -5q74 0 125 60z" />
    <glyph glyph-name="uniFEDF_uniFEE2.liga" unicode="&#xfedf;&#xfee2;" horiz-adv-x="1395" 
d="M752 69q-144 54 -267 138q0 -243 161 -293q106 44 106 155zM945 0q-49 0 -120 39q-13 -233 -190 -289q-111 42 -162 124q-60 96 -60 272q-160 0 -237 -66q44 -191 44 -493q-23 -62 -91 -130q0 155 -15 334.5t-33 251.5q18 83 54 151q92 107 274 107q0 64 13 119
q116 -100 302 -193q168 -83 221 -83h70q86 0 144 63q0 346 -26 625q-23 252 -54 325h-3l103 128q16 -52 55 -143q42 -92 62 -120q-47 10 -78 32q32 -418 32 -796q0 -72 -70 -156q-87 -102 -208 -102h-27z" />
    <glyph glyph-name="uniFEE4_uniFE8E.liga" unicode="&#xfee4;&#xfe8e;" horiz-adv-x="1274" 
d="M980 87q-3 118 -53 188q-45 61 -102 61q-69 0 -151 -103q128 -125 306 -146zM404 0q-135 0 -184 91q-53 98 -53 375q0 186 -21 400.5t-47 290.5l108 128q52 -217 52 -758q0 -239 29 -313q28 -70 116 -70h42q59 0 185 160q122 157 231 157q40 0 77 -17q95 -147 188 -229
q80 -71 129 -71h21q25 0 25 -30v-89q0 -25 -25 -25h-21q-36 0 -91 32q-63 35 -112 93q-41 -111 -105 -171q-212 26 -354 180q-80 -134 -157 -134h-33z" />
    <glyph glyph-name="uniFEE4_uniFE82.liga" unicode="&#xfee4;&#xfe82;" horiz-adv-x="1276" 
d="M370 1448q-84 -68 -221 -68q-62 0 -79 2q-21 -35 -24 -82q-45 0 -54 4q0 94 36 169q51 -13 144 -13q118 0 198 54v-66zM980 87q-2 118 -52 188q-45 61 -102 61q-70 0 -152 -103q129 -125 306 -146zM405 0q-135 0 -184 91q-53 98 -53 375q0 186 -21 400.5t-47 290.5
l107 128q53 -217 53 -758q0 -239 29 -313q27 -70 116 -70h42q59 0 185 160q122 157 231 157q39 0 76 -17q95 -147 188 -229q80 -71 130 -71h20q26 0 26 -30v-89q0 -25 -26 -25h-20q-36 0 -92 32q-62 35 -112 93q-41 -111 -104 -171q-213 26 -355 180q-80 -134 -157 -134h-32
z" />
    <glyph glyph-name="uniFEE4_uniFE84.liga" unicode="&#xfee4;&#xfe84;" horiz-adv-x="1266" 
d="M970 87q-2 118 -52 188q-45 61 -102 61q-70 0 -152 -103q129 -125 306 -146zM319 1418q-25 -5 -62 -16.5t-77 -26t-79 -31.5t-68 -33v66q18 10 42.5 20.5t54.5 17.5v3q-81 30 -81 104q85 129 169 129q55 0 90 -59l-54 -41q-19 18 -36 26t-31 8q-38 0 -80 -57
q30 -65 104 -68q26 8 58.5 17.5t71.5 16.5zM404 0q-135 0 -184 91q-53 98 -53 375q0 186 -21 400.5t-47 290.5l107 128q53 -217 53 -758q0 -239 29 -313q27 -70 116 -70h33q59 0 185 160q122 157 231 157q39 0 76 -17q95 -147 188 -229q80 -71 129 -71h21q26 0 26 -30v-89
q0 -25 -26 -25h-21q-35 0 -91 32q-62 35 -112 93q-41 -111 -104 -171q-213 26 -355 180q-80 -134 -157 -134h-23z" />
    <glyph glyph-name="uniFEE4_uniFE88.liga" unicode="&#xfee4;&#xfe88;" horiz-adv-x="1275" 
d="M337 -394q-25 -4 -62 -15.5t-77 -26t-79 -31.5t-68 -33v65q18 10 42.5 20.5t54.5 18.5v3q-81 29 -81 104q85 129 169 129q55 0 90 -59l-54 -42q-19 19 -36 27t-31 8q-38 0 -80 -57q30 -65 104 -68q26 8 58.5 17.5t71.5 16.5zM979 87q-2 118 -52 188q-45 61 -103 61
q-69 0 -151 -103q129 -125 306 -146zM404 0q-135 0 -184 91q-53 98 -53 375q0 186 -21 400.5t-48 290.5l108 128q53 -217 53 -758q0 -239 29 -313q27 -70 116 -70h41q60 0 185 160q122 157 232 157q39 0 76 -17q95 -147 188 -229q80 -71 129 -71h21q26 0 26 -30v-89
q0 -25 -26 -25h-21q-35 0 -91 32q-63 35 -112 93q-41 -111 -105 -171q-212 26 -354 180q-80 -134 -157 -134h-32z" />
    <glyph glyph-name="uniFEE8_uniFEAE.liga" unicode="&#xfee8;&#xfeae;" horiz-adv-x="1133" 
d="M1037 780l-111 -112l-126 105l114 113zM677 0q-52 0 -111 52q-21 -166 -93 -298q-70 -128 -225 -288q-67 0 -142 20t-106 46q218 103 355 253q111 121 128 215q-17 126 -141 244l62 187l94 -146q91 -141 179 -141h43q79 0 127 55q47 52 47 134v31q10 8 29 8q22 0 35 -10
v-32q0 -110 40 -151q34 -35 117 -35h21q26 0 26 -30v-89q0 -25 -26 -25h-21q-77 0 -132 43q-52 39 -56 91h-8q-13 -58 -76 -98q-59 -36 -123 -36h-43z" />
    <glyph glyph-name="uniFEE7_uniFEE4.liga" unicode="&#xfee7;&#xfee4;" horiz-adv-x="1275" 
d="M543 87q-2 118 -53 188q-44 61 -102 61q-69 0 -151 -103q129 -125 306 -146zM1177 899l-111 -112l-125 105l113 114zM819 0q-35 0 -91 32q-63 35 -112 93q-41 -111 -105 -171q-212 26 -354 180q-80 -134 -157 -134h-11q-26 0 -26 25v89q0 30 26 30h20q60 0 185 160
q122 157 232 157q39 0 76 -17q95 -147 188 -229q80 -71 129 -71h66q153 0 201 102q-15 79 -91 151l77 182q90 -143 105 -294q-22 -124 -105 -202q-90 -83 -215 -83h-38z" />
    <glyph glyph-name="uniFEE7_uniFEF0.liga" unicode="&#xfee7;&#xfef0;" horiz-adv-x="1603" 
d="M1513 899l-111 -112l-126 105l114 114zM1024 0q-151 0 -205 -73q34 -24 112 -41q100 -22 135.5 -43t35.5 -62q0 -19 -12 -88q-14 -73 -25 -102q-116 -55 -291 -93q-187 -41 -350 -41q-161 0 -258 75q-103 79 -103 220q0 165 142 412q32 0 62 -30q-37 -62 -63 -153
q-23 -84 -23 -140q0 -106 73.5 -167.5t206.5 -61.5q152 0 334 27q161 24 242 51q-10 53 -136 77q-99 18 -162 60q16 100 45 212q98 105 258 105h179q153 0 201 102q-15 79 -91 151l77 182q90 -143 105 -294q-22 -124 -105 -202q-90 -83 -215 -83h-169z" />
    <glyph glyph-name="uniFEE7_uniFEF2.liga" unicode="&#xfee7;&#xfef2;" horiz-adv-x="1603" 
d="M762 -776l-112 -112l-125 105l114 113zM513 -796l-112 -112l-125 104l114 113zM1513 899l-111 -112l-126 105l114 114zM1024 0q-151 0 -205 -73q34 -24 112 -41q100 -22 135.5 -43t35.5 -62q0 -19 -12 -88q-14 -73 -25 -102q-116 -55 -291 -93q-187 -41 -350 -41
q-161 0 -258 75q-103 79 -103 220q0 165 142 412q32 0 62 -30q-37 -62 -63 -153q-23 -84 -23 -140q0 -106 73.5 -167.5t206.5 -61.5q152 0 334 27q161 24 242 51q-10 53 -136 77q-99 18 -162 60q16 100 45 212q98 105 258 105h179q153 0 201 102q-15 79 -91 151l77 182
q90 -143 105 -294q-22 -124 -105 -202q-90 -83 -215 -83h-169z" />
    <glyph glyph-name="uniFEF4_uniFEAE.liga" unicode="&#xfef4;&#xfeae;" horiz-adv-x="1224" 
d="M677 0q-52 0 -111 52q-21 -166 -93 -298q-70 -128 -225 -288q-67 0 -142 20t-106 46q218 103 355 253q111 121 128 215q-17 126 -141 244l62 187l94 -146q91 -141 179 -141h34q216 0 216 189v31q10 8 30 8q21 0 35 -10v-32q0 -112 47 -151q44 -35 172 -35h21q25 0 25 -30
v-89q0 -25 -25 -25h-21q-119 0 -187 43q-58 36 -63 91h-8q-13 -58 -77 -98q-58 -36 -123 -36h-76zM946 -300l-112 -112l-125 105l114 113zM1194 -280l-112 -112l-125 105l114 114z" />
    <glyph glyph-name="uniFEF3_uniFEE4.liga" unicode="&#xfef3;&#xfee4;" horiz-adv-x="1335" 
d="M1279 -261l-113 -113l-124 105l114 114zM1030 -282l-112 -112l-125 105l114 113zM543 87q-2 118 -53 188q-44 61 -102 61q-69 0 -151 -103q129 -125 306 -146zM819 0q-35 0 -91 32q-63 35 -112 93q-41 -111 -105 -171q-212 26 -354 180q-80 -134 -157 -134h-11
q-26 0 -26 25v89q0 30 26 30h20q60 0 185 160q122 157 232 157q39 0 76 -17q95 -147 188 -229q80 -71 129 -71h66q210 0 258 102q-17 79 -92 151l76 182q90 -143 107 -294q-23 -118 -100 -201.5t-165 -83.5h-150z" />
    <glyph glyph-name="uniFEF4_uniFEE6.liga" unicode="&#xfef4;&#xfee6;" horiz-adv-x="1697" 
d="M725 589l-112 -112l-125 105l113 114zM1419 -300l-112 -112l-125 105l114 113zM1667 -280l-112 -112l-125 105l114 114zM1146 0q-53 0 -93 43l-3 -4q26 -68 26 -153q-15 -92 -62 -207q-86 -85 -245 -150q-177 -72 -346 -72q-160 0 -257 76q-103 80 -103 221
q0 165 141 412q32 0 62 -29q-37 -63 -63 -154q-22 -84 -22 -140q0 -106 73 -169t206 -62q315 2 543 210q-24 233 -147 422l63 187q129 -287 227 -287h38q216 0 216 189v31q10 8 30 8q21 0 35 -10v-32q0 -112 47 -151q44 -35 172 -35h21q25 0 25 -30v-89q0 -25 -25 -25h-21
q-119 0 -187 43q-58 36 -63 91h-8q-13 -58 -77 -98q-58 -36 -123 -36h-80z" />
    <glyph glyph-name="T_h.liga" unicode="Th" horiz-adv-x="1505" 
d="M761 890q-96 15 -285 16q-3 -197 -3 -297q0 -479 10 -616q-59 9 -92 9q-36 0 -75 -9q16 217 16 562q0 157 -3 351q-232 -2 -319 -20q6 32 6 51q0 21 -6 50q89 -9 386 -9q282 0 513 11q-7 -36 -7 -97l-6 -334q78 140 253 140q247 0 247 -250q0 -3 -3 -140t-3 -166
q0 -116 5 -149q-30 9 -73 9q-44 0 -77 -9q13 154 13 338q0 137 -23 194q-35 85 -144 85q-92 0 -146 -62q-49 -57 -49 -199q0 -205 10 -356q-31 9 -78 9q-41 0 -74 -9q10 204 10 371v313q0 111 -3 213z" />
    <glyph glyph-name="f_b.liga" unicode="fb" horiz-adv-x="1369" 
d="M478 1051l-8 -119l-11 -5q-48 17 -81 17q-109 0 -109 -128q0 -77 20 -148q50 0 153 3q-2 -32 -2 -36q0 -10 2 -27q-101 2 -151 2l2 -233q0 -143 10 -384q-65 9 -76 9q-10 0 -78 -9q14 144 14 381q0 99 -4 236q-40 0 -121 -2q3 22 3 30q0 7 -3 33q81 -3 122 -3
q6 163 91 278q83 110 189 110q21 0 38 -5zM639 -7h-42q10 154 10 463q0 256 -2 428q-2 69 -8 169q52 -8 78 -8q39 0 75 8q-9 -165 -13 -485q85 130 234 130q134 0 224 -88q97 -96 97 -261t-92.5 -271.5t-252.5 -106.5q-128 0 -231 104q-39 -28 -77 -82zM936 35q107 0 163 94
q49 82 49 214q0 152 -73 225q-55 57 -134 57q-94 0 -151 -70q-63 -78 -63 -234q0 -131 49 -204q55 -82 160 -82z" />
    <glyph glyph-name="f_f_b.liga" unicode="ffb" horiz-adv-x="1769" 
d="M432 609h-8q-90 1 -133 1l2 -233q0 -143 10 -384q-65 9 -76 9q-10 0 -78 -9q14 144 14 381q0 99 -4 236q-40 0 -121 -2q3 22 3 30q0 7 -3 33q81 -3 122 -3q6 163 91 278q83 110 189 110q21 0 38 -5l-8 -119l-11 -5q-48 17 -81 17q-109 0 -109 -128q0 -77 20 -148
q43 0 135 2h8q94 -2 129 -2q5 163 91 278q83 110 189 110q21 0 38 -5l-8 -119l-11 -5q-49 17 -81 17q-109 0 -109 -128q0 -77 19 -148q50 0 154 3q-2 -32 -2 -36q0 -10 2 -27q-101 2 -151 2l2 -233q0 -143 10 -384q-65 9 -77 9q-9 0 -77 -9q14 144 14 381q0 99 -4 236
q-34 0 -128 -1zM1040 -7h-42q10 154 10 463q0 256 -2 428q-2 69 -8 169q52 -8 78 -8q39 0 74 8q-8 -165 -12 -485q85 130 234 130q134 0 224 -88q97 -96 97 -261t-93 -271.5t-252 -106.5q-128 0 -231 104q-40 -28 -77 -82zM1337 35q107 0 163 94q48 82 48 214q0 152 -72 225
q-55 57 -134 57q-94 0 -152 -70q-62 -78 -62 -234q0 -131 49 -204q54 -82 160 -82z" />
    <glyph glyph-name="f_f.liga" unicode="ff" horiz-adv-x="877" 
d="M432 609h-8q-90 1 -133 1l2 -233q0 -143 10 -384q-65 9 -76 9q-10 0 -78 -9q14 144 14 381q0 99 -4 236q-40 0 -121 -2q3 22 3 30q0 7 -3 33q81 -3 122 -3q6 163 91 278q83 110 189 110q21 0 38 -5l-8 -119l-11 -5q-48 17 -81 17q-109 0 -109 -128q0 -77 20 -148
q43 0 135 2h8q94 -2 129 -2q5 163 91 278q83 110 189 110q21 0 38 -5l-8 -119l-11 -5q-49 17 -81 17q-109 0 -109 -128q0 -77 19 -148q50 0 154 3q-2 -32 -2 -36q0 -10 2 -27q-101 2 -151 2l2 -233q0 -143 10 -384q-65 9 -77 9q-9 0 -77 -9q14 144 14 381q0 99 -4 236
q-34 0 -128 -1z" />
    <glyph glyph-name="f_h.liga" unicode="fh" horiz-adv-x="1350" 
d="M478 1051l-8 -119l-11 -5q-48 17 -81 17q-109 0 -109 -128q0 -77 20 -148q50 0 153 3q-2 -32 -2 -36q0 -10 2 -27q-101 2 -151 2l2 -233q0 -143 10 -384q-65 9 -76 9q-10 0 -78 -9q14 144 14 381q0 99 -4 236q-40 0 -121 -2q3 22 3 30q0 7 -3 33q81 -3 122 -3
q6 163 91 278q83 110 189 110q21 0 38 -5zM741 558q78 140 253 140q247 0 247 -250q0 -3 -3 -140t-3 -166q0 -116 5 -149q-30 9 -73 9q-44 0 -77 -9q13 154 13 338q0 137 -23 194q-35 85 -144 85q-92 0 -146 -62q-49 -57 -49 -199q0 -205 10 -356q-32 9 -78 9q-41 0 -74 -9
q10 204 10 371v313q0 168 -7 376q60 -8 75 -8q12 0 77 8q-7 -100 -7 -161z" />
    <glyph glyph-name="f_f_h.liga" unicode="ffh" horiz-adv-x="1750" 
d="M432 609h-8q-90 1 -133 1l2 -233q0 -143 10 -384q-65 9 -76 9q-10 0 -78 -9q14 144 14 381q0 99 -4 236q-40 0 -121 -2q3 22 3 30q0 7 -3 33q81 -3 122 -3q6 163 91 278q83 110 189 110q21 0 38 -5l-8 -119l-11 -5q-48 17 -81 17q-109 0 -109 -128q0 -77 20 -148
q43 0 135 2h8q94 -2 129 -2q5 163 91 278q83 110 189 110q21 0 38 -5l-8 -119l-11 -5q-49 17 -81 17q-109 0 -109 -128q0 -77 19 -148q50 0 154 3q-2 -32 -2 -36q0 -10 2 -27q-101 2 -151 2l2 -233q0 -143 10 -384q-65 9 -77 9q-9 0 -77 -9q14 144 14 381q0 99 -4 236
q-34 0 -128 -1zM1142 558q78 140 253 140q246 0 246 -250q0 -3 -2.5 -140t-2.5 -166q0 -116 5 -149q-31 9 -73 9q-44 0 -77 -9q13 154 13 338q0 137 -23 194q-35 85 -144 85q-92 0 -147 -62q-48 -57 -48 -199q0 -205 10 -356q-32 9 -78 9q-41 0 -74 -9q10 204 10 371v313
q0 168 -7 376q60 -8 74 -8q13 0 78 8q-7 -100 -7 -161z" />
    <glyph glyph-name="f_f_i.liga" unicode="ffi" horiz-adv-x="1267" 
d="M432 609h-8q-90 1 -133 1l2 -233q0 -143 10 -384q-65 9 -76 9q-10 0 -78 -9q14 144 14 381q0 99 -4 236q-40 0 -121 -2q3 22 3 30q0 7 -3 33q81 -3 122 -3q6 163 91 278q83 110 189 110q21 0 38 -5l-8 -119l-11 -5q-48 17 -81 17q-109 0 -109 -128q0 -77 20 -148
q43 0 135 2h8q94 -2 129 -2q5 163 91 278q83 110 189 110q21 0 38 -5l-8 -119l-11 -5q-49 17 -81 17q-109 0 -109 -128q0 -77 19 -148q50 0 154 3q-2 -32 -2 -36q0 -10 2 -27q-101 2 -151 2l2 -233q0 -143 10 -384q-65 9 -77 9q-9 0 -77 -9q14 144 14 381q0 99 -4 236
q-34 0 -128 -1zM1017 358q0 180 -11 330q30 -8 71 -8t73 8q-8 -158 -8 -378q0 -52 10 -317q-27 9 -70 9t-76 -9q11 191 11 365zM1160 924q0 -32 -22.5 -55t-55.5 -23q-32 0 -55 23t-23 55q0 33 23 56t55 23q33 0 55.5 -23t22.5 -56z" />
    <glyph glyph-name="f_j.liga" unicode="fj" horiz-adv-x="877" 
d="M760 924q0 -32 -23 -55t-56 -23q-32 0 -55 23t-23 55q0 33 23 56t55 23q33 0 56 -23t23 -56zM478 1051l-8 -119l-11 -5q-48 17 -81 17q-109 0 -109 -128q0 -77 20 -148q50 0 153 3q-2 -32 -2 -36q0 -10 2 -27q-101 2 -151 2l2 -233q0 -143 10 -384q-65 9 -76 9
q-10 0 -78 -9q14 144 14 381q0 99 -4 236q-40 0 -121 -2q3 22 3 30q0 7 -3 33q81 -3 122 -3q6 163 91 278q83 110 189 110q21 0 38 -5zM504 -380l-5 44q46 14 67 43q37 49 46 165q3 38 3 404q0 180 -15 412q43 -8 78 -8q31 0 77 8q-10 -218 -10 -455q0 -250 -2 -299
q-1 -53 -11 -96q-44 -194 -228 -218z" />
    <glyph glyph-name="f_f_j.liga" unicode="ffj" horiz-adv-x="1275" 
d="M432 609h-8q-90 1 -133 1l2 -233q0 -143 10 -384q-65 9 -76 9q-10 0 -78 -9q14 144 14 381q0 99 -4 236q-40 0 -121 -2q3 22 3 30q0 7 -3 33q81 -3 122 -3q6 163 91 278q83 110 189 110q21 0 38 -5l-8 -119l-11 -5q-48 17 -81 17q-109 0 -109 -128q0 -77 20 -148
q43 0 135 2h8q94 -2 129 -2q5 163 91 278q83 110 189 110q21 0 38 -5l-8 -119l-11 -5q-49 17 -81 17q-109 0 -109 -128q0 -77 19 -148q50 0 154 3q-2 -32 -2 -36q0 -10 2 -27q-101 2 -151 2l2 -233q0 -143 10 -384q-65 9 -77 9q-9 0 -77 -9q14 144 14 381q0 99 -4 236
q-34 0 -128 -1zM1160 924q0 -32 -22.5 -55t-55.5 -23q-32 0 -55 23t-23 55q0 33 23 56t55 23q33 0 55.5 -23t22.5 -56zM904 -380l-4 44q46 14 67 43q37 49 46 165q3 38 3 404q0 180 -15 412q43 -8 77 -8q32 0 78 8q-10 -218 -10 -455q0 -250 -2 -299q-1 -53 -11 -96
q-44 -194 -229 -218z" />
    <glyph glyph-name="f_k.liga" unicode="fk" horiz-adv-x="1282" 
d="M478 1051l-8 -119l-11 -5q-48 17 -81 17q-109 0 -109 -128q0 -77 20 -148q50 0 153 3q-2 -32 -2 -36q0 -10 2 -27q-101 2 -151 2l2 -233q0 -143 10 -384q-65 9 -76 9q-10 0 -78 -9q14 144 14 381q0 99 -4 236q-40 0 -121 -2q3 22 3 30q0 7 -3 33q81 -3 122 -3
q6 163 91 278q83 110 189 110q21 0 38 -5zM1229 5v-12q-49 9 -92 9q-41 0 -90 -9q-90 126 -261 317q-19 23 -36 23q-10 0 -10 -24l2 -127q1 -119 11 -189q-43 9 -75 9q-42 0 -72 -9q6 173 6 517q0 376 -6 543q43 -8 76 -8q31 0 74 8q-13 -188 -13 -316q0 -40 -2 -126
t-2 -130q0 -11 1 -46v-41q0 -11 12 -11q7 0 39 30q196 179 266 275q25 -8 71 -8q41 0 78 8l-327 -286l224 -263z" />
    <glyph glyph-name="f_f_k.liga" unicode="ffk" horiz-adv-x="1697" 
d="M432 609h-8q-90 1 -133 1l2 -233q0 -143 10 -384q-65 9 -76 9q-10 0 -78 -9q14 144 14 381q0 99 -4 236q-40 0 -121 -2q3 22 3 30q0 7 -3 33q81 -3 122 -3q6 163 91 278q83 110 189 110q21 0 38 -5l-8 -119l-11 -5q-48 17 -81 17q-109 0 -109 -128q0 -77 20 -148
q43 0 135 2h8q94 -2 129 -2q5 163 91 278q83 110 189 110q21 0 38 -5l-8 -119l-11 -5q-49 17 -81 17q-109 0 -109 -128q0 -77 19 -148q50 0 154 3q-2 -32 -2 -36q0 -10 2 -27q-101 2 -151 2l2 -233q0 -143 10 -384q-65 9 -77 9q-9 0 -77 -9q14 144 14 381q0 99 -4 236
q-34 0 -128 -1zM1630 5v-12q-49 9 -92 9q-41 0 -91 -9q-89 126 -260 317q-19 23 -36 23q-10 0 -10 -24l2 -127q1 -119 11 -189q-43 9 -76 9q-42 0 -72 -9q7 173 7 517q0 376 -7 543q44 -8 77 -8q31 0 74 8q-13 -188 -13 -316q0 -40 -2 -126t-2 -130q0 -11 1 -46v-41
q0 -11 12 -11q6 0 39 30q196 179 265 275q26 -8 71 -8q41 0 79 8l-327 -286l224 -263z" />
    <glyph glyph-name="f_f_l.liga" unicode="ffl" horiz-adv-x="1279" 
d="M432 609h-8q-90 1 -133 1l2 -233q0 -143 10 -384q-65 9 -76 9q-10 0 -78 -9q14 144 14 381q0 99 -4 236q-40 0 -121 -2q3 22 3 30q0 7 -3 33q81 -3 122 -3q6 163 91 278q83 110 189 110q21 0 38 -5l-8 -119l-11 -5q-48 17 -81 17q-109 0 -109 -128q0 -77 20 -148
q43 0 135 2h8q94 -2 129 -2q5 163 91 278q83 110 189 110q21 0 38 -5l-8 -119l-11 -5q-49 17 -81 17q-109 0 -109 -128q0 -77 19 -148q50 0 154 3q-2 -32 -2 -36q0 -10 2 -27q-101 2 -151 2l2 -233q0 -143 10 -384q-65 9 -77 9q-9 0 -77 -9q14 144 14 381q0 99 -4 236
q-34 0 -128 -1zM1012 546q0 340 -9 507q49 -8 74 -8q24 0 76 8q-10 -292 -10 -539q0 -253 12 -521q-37 10 -78 10q-36 0 -73 -10q8 151 8 553z" />
    <glyph glyph-name="f_t.liga" unicode="ft" horiz-adv-x="856" 
d="M426 608q-88 2 -135 2l2 -233q0 -143 10 -384q-65 9 -76 9q-10 0 -78 -9q14 144 14 381q0 99 -4 236q-40 0 -121 -2q3 22 3 30q0 7 -3 33q81 -3 122 -3q6 163 91 278q83 110 189 110q21 0 38 -5l-8 -119l-11 -5q-48 17 -81 17q-109 0 -109 -128q0 -77 20 -148q46 0 138 3
h114q0 84 -3 160q48 8 147 65q-7 -107 -11 -225q74 0 156 8q-3 -24 -3 -37q0 -14 3 -34q-108 3 -156 3q-6 -163 -6 -393q0 -93 20 -133q21 -47 81 -47q9 0 65 9q-2 -11 -2 -18t2 -22q-49 -27 -122 -27q-104 0 -154 86q-20 34 -20 135q0 -2 1.5 50t1.5 134v226q-35 0 -115 -3
z" />
    <glyph glyph-name="f_f_t.liga" unicode="fft" horiz-adv-x="1259" 
d="M442 671q79 -3 119 -3q5 163 91 278q83 110 189 110q21 0 38 -5l-8 -119l-11 -5q-49 17 -81 17q-109 0 -109 -128q0 -77 19 -148q47 0 139 3h114q0 84 -3 160q47 8 147 65q-8 -107 -11 -225q74 0 156 8q-3 -24 -3 -37q0 -14 3 -34q-108 3 -156 3q-7 -163 -7 -393
q0 -93 20 -133q22 -47 82 -47q9 0 65 9q-2 -11 -2 -18t2 -22q-49 -27 -122 -27q-104 0 -154 86q-20 34 -20 135q0 -2 1.5 50t1.5 134v226q-35 0 -115 -3q-88 2 -135 2l2 -233q0 -143 10 -384q-65 9 -77 9q-9 0 -77 -9q14 144 14 381q0 99 -4 236q-39 0 -118 -2h-3
q-99 2 -148 2l2 -233q0 -143 10 -384q-65 9 -76 9q-10 0 -78 -9q14 144 14 381q0 99 -4 236q-40 0 -121 -2q3 22 3 30q0 7 -3 33q81 -3 122 -3q6 163 91 278q83 110 189 110q21 0 38 -5l-8 -119l-11 -5q-48 17 -81 17q-109 0 -109 -128q0 -77 20 -148q49 0 150 3h3z" />
    <glyph glyph-name="uni0647.fina" unicode="&#x647;" horiz-adv-x="935" arabic-form="final" 
d="M974 25q0 -25 -27 -25h-12q-27 0 -68 1t-91 3q69 -59 69 -163q0 -36 -11 -77.5t-29.5 -82t-43 -77t-52.5 -61.5q-80 16 -148 57.5t-121.5 103t-90.5 140t-54 167.5q-89 -19 -143 -48.5t-80 -69.5l-13 5l23 151q21 29 70 55t131 43v34q0 199 39 329t120 197
q216 -99 218 -452q0 -76 -11 -126q39 8 101 11.5t144 3.5h53q15 0 21 -6.5t6 -23.5v-89zM356 154q87 7 149 26.5t94 57.5q-2 53 -16.5 101.5t-36 88t-47 66.5t-52.5 35q-51 -60 -71 -155t-20 -220zM750 -222q0 42 -14 80.5t-41 70t-67.5 54t-92.5 32.5l21 61
q-39 -21 -83 -34.5t-91 -20.5q20 -59 53.5 -112.5t77.5 -96.5t97.5 -75t113.5 -49q12 16 19 37t7 53z" />
    <glyph glyph-name="uni0672.fina" unicode="&#x672;" horiz-adv-x="414" 
d="M451 25q0 -25 -26 -25h-21q-135 0 -184 91q-53 98 -53 375q0 186 -21 400.5t-47 290.5l107 128q53 -217 53 -758q0 -239 29 -313q28 -70 116 -70h21q26 0 26 -30v-89zM319 1546q-11 40 -44 40q-23 0 -45 -10q-21 -11 -21 -23q0 -24 29 -41q26 -15 57 -15q36 0 118 26
l2 -4q-21 -38 -47 -78q-100 -23 -156 -66q-28 -22 -50 -22q-18 0 -46 18q-27 17 -41 17q-21 0 -42 -27l-17 21q50 76 95 76q16 0 43 -17t36 -17q18 0 31 12v3q-65 30 -65 81q0 33 40 76q50 52 102 52q54 0 54 -48q0 -19 -24 -55z" />
    <glyph glyph-name="uni0673.fina" unicode="&#x673;" horiz-adv-x="414" 
d="M451 25q0 -25 -26 -25h-21q-135 0 -184 91q-53 98 -53 375q0 186 -21 400.5t-47 290.5l107 128q53 -217 53 -758q0 -239 29 -313q28 -70 116 -70h21q26 0 26 -30v-89zM319 -230q-11 40 -44 40q-23 0 -45 -10q-21 -11 -21 -23q0 -25 29 -41q26 -16 57 -16q36 0 118 27
l2 -5q-21 -37 -47 -77q-100 -23 -156 -67q-28 -22 -50 -22q-18 0 -46 19q-27 17 -41 17q-21 0 -42 -27l-17 21q50 75 95 75q16 0 43 -16q27 -18 36 -18q18 0 31 12v4q-65 29 -65 80q0 34 40 77q50 52 102 52q54 0 54 -49q0 -19 -24 -54z" />
    <glyph glyph-name="uni0675.fina" unicode="&#x675;" horiz-adv-x="615" 
d="M643 25q0 -25 -27 -25h-212q-135 0 -184 91q-53 98 -53 375q0 186 -21 400.5t-47 290.5l108 128q52 -217 52 -758q0 -239 29 -313q28 -70 116 -70h212q27 0 27 -30v-89zM575 1418q-26 -5 -63 -16.5t-77 -26t-78.5 -31.5t-68.5 -33v66q19 10 43.5 20.5t54.5 17.5v3
q-81 30 -81 104q85 129 168 129q55 0 91 -59l-54 -41q-19 18 -36.5 26t-31.5 8q-38 0 -80 -57q30 -65 104 -68q27 8 59 17.5t71 16.5z" />
    <glyph glyph-name="uni0676.fina" unicode="&#x676;" horiz-adv-x="860" 
d="M888 25q0 -25 -27 -25h-258q-52 -308 -336 -543q-132 9 -231 77q242 123 372 262q105 113 116 211q-44 -7 -100 -7q-65 0 -147 20q-77 18 -111 37q-7 49 -7 68q6 287 213 399q224 -66 237 -380h252q27 0 27 -30v-89zM529 151q-5 77 -60.5 145.5t-128.5 77.5
q-82 -70 -82 -189q71 -41 190 -41q32 0 81 7zM784 734q-26 -4 -62.5 -15.5t-77 -26t-79 -31.5t-67.5 -33v65q18 10 42.5 20.5t54.5 18.5v3q-81 29 -81 104q85 129 169 129q54 0 90 -59l-54 -42q-19 19 -36 27t-31 8q-38 0 -80 -57q30 -65 104 -68q26 7 58.5 17t71.5 17z" />
    <glyph glyph-name="uni0677.fina" unicode="&#x677;" horiz-adv-x="860" 
d="M888 25q0 -25 -27 -25h-258q-52 -308 -336 -543q-132 9 -231 77q242 123 372 262q105 113 116 211q-44 -7 -100 -7q-65 0 -147 20q-77 18 -111 37q-7 49 -7 68q6 287 213 399q224 -66 237 -380h252q27 0 27 -30v-89zM529 151q-5 77 -60.5 145.5t-128.5 77.5
q-82 -70 -82 -189q71 -41 190 -41q32 0 81 7zM784 734q-26 -4 -62.5 -15.5t-77 -26t-79 -31.5t-67.5 -33v65q18 10 42.5 20.5t54.5 18.5v3q-81 29 -81 104q85 129 169 129q54 0 90 -59l-54 -42q-19 19 -36 27t-31 8q-38 0 -80 -57q30 -65 104 -68q26 7 58.5 17t71.5 17z
M420 656q-20 8 -83 32q-82 -123 -260 -183v94q135 27 200 108q-83 25 -123 71q10 85 58 139t118 54q57 -24 57 -115q0 -42 -23 -104q29 -15 56 -18v-78zM333 823q0 53 -37 68q-62 0 -83 -80q32 -31 103 -56q17 28 17 68z" />
    <glyph glyph-name="uni0678.init" unicode="&#x678;" horiz-adv-x="636" 
d="M387 285q-23 -118 -100 -201.5t-165 -83.5h-133q-26 0 -26 25v89q0 30 26 30h49q209 0 258 102q-17 79 -92 151l76 182q90 -143 107 -294zM584 762q-25 -5 -62 -16.5t-77 -26t-79 -31.5t-68 -33v66q18 10 43 20.5t55 17.5v4q-81 29 -81 103q84 129 168 129q55 0 90 -58
l-53 -42q-19 18 -36.5 26t-31.5 8q-38 0 -80 -57q30 -65 104 -68q26 8 58.5 17.5t71.5 16.5z" />
    <glyph glyph-name="uni0678.medi" unicode="&#x678;" horiz-adv-x="636" 
d="M665 25q0 -25 -25 -25h-130q-119 0 -187 43q-58 36 -63 91h-8q-13 -58 -77 -98q-58 -36 -123 -36h-63q-26 0 -26 25v89q0 30 26 30h20q217 0 217 194v32q10 7 30 7q21 0 35 -10v-31q0 -116 47 -156q44 -36 172 -36h130q25 0 25 -30v-89zM557 652q-26 -4 -62.5 -15.5
t-76.5 -26t-79 -31.5t-68 -33v65q18 10 42.5 20.5t54.5 18.5v3q-81 29 -81 104q85 129 169 129q55 0 90 -59l-54 -42q-19 19 -36 27t-31 8q-38 0 -80 -57q30 -65 104 -68q26 7 58.5 17t71.5 17z" />
    <glyph glyph-name="uni0678.fina" unicode="&#x678;" horiz-adv-x="1340" 
d="M1366 25q0 -25 -27 -25h-315q-151 0 -205 -73q34 -24 112 -41q100 -22 135.5 -43t35.5 -62q0 -19 -12 -88q-14 -73 -25 -102q-116 -55 -291 -93q-187 -41 -350 -41q-161 0 -258 75q-103 79 -103 220q0 165 142 412q32 0 62 -30q-37 -62 -63 -153q-23 -84 -23 -140
q0 -106 73.5 -167.5t206.5 -61.5q152 0 334 27q161 24 242 51q-10 53 -136 77q-99 18 -162 60q16 100 45 212q98 105 258 105h297q27 0 27 -30v-89zM1253 425q-26 -5 -62.5 -16.5t-77 -26t-79 -31.5t-67.5 -33v66q18 10 42.5 20.5t54.5 17.5v3q-81 30 -81 104
q85 129 169 129q54 0 90 -59l-54 -41q-19 18 -36.5 26t-30.5 8q-39 0 -80 -57q30 -65 103 -68q27 8 59 17.5t72 16.5z" />
    <glyph glyph-name="uni067C.init" unicode="&#x67c;" horiz-adv-x="518" 
d="M497 864l-112 -112l-125 104l114 114zM248 844l-111 -112l-126 104l114 113zM215 26q-45 -26 -93 -26h-19q-22 -57 -22 -94q0 -24 25 -41t67 -17q29 0 64.5 12t50.5 30q0 43 -34 93q-17 22 -39 43zM51 0h-62q-26 0 -26 25v89q0 30 26 30h49q209 0 258 102q-17 79 -92 151
l76 182q90 -143 107 -294q-23 -118 -100 -201q-2 -3 -5 -6q56 -68 58 -149q-13 -65 -49 -132q-75 -48 -142 -48q-53 0 -89 30q-38 32 -38 85q0 52 29 136z" />
    <glyph glyph-name="uni067C.medi" unicode="&#x67c;" horiz-adv-x="647" 
d="M593 721l-112 -112l-125 103l114 114zM345 700l-112 -112l-125 104l114 114zM255 16q-41 -16 -84 -16h-37q-23 -57 -23 -94q0 -24 25 -41t68 -17q29 0 64.5 12t50.5 30q0 43 -35 93q-12 18 -29 33zM82 0h-84q-26 0 -26 25v89q0 30 26 30h130q217 0 217 189v31q10 8 30 8
q21 0 34 -10v-32q0 -112 48 -151q43 -35 171 -35h21q25 0 25 -30v-89q0 -25 -25 -25h-21q-118 0 -187 43q-58 36 -63 91h-8q-9 -41 -44 -73q43 -61 45 -132q-13 -65 -49 -132q-75 -48 -142 -48q-53 0 -90 30q-37 32 -37 85q0 52 29 136z" />
    <glyph glyph-name="uni067C.fina" unicode="&#x67c;" horiz-adv-x="1394" 
d="M990 791l-112 -112l-125 104l114 114zM741 770l-111 -111l-126 104l114 113zM770 11q-64 -12 -128 -17q-21 -53 -21 -88q0 -24 25 -41t68 -17q28 0 63.5 12t50.5 30q0 43 -34 93q-11 14 -24 28zM588 -10q-29 -1 -59 -1q-216 0 -335 80q-108 75 -108 196q0 123 105 301
q3 2 14 2q26 0 43 -32q-63 -104 -63 -189q0 -92 105.5 -147.5t286.5 -55.5q108 0 268 28q156 28 245 63q76 29 104.5 60.5t50.5 115.5q11 4 21 4q27 0 46 -27q-30 -67 -30 -130q0 -114 103 -114h20q27 0 27 -30v-89q0 -25 -27 -25h-20q-79 0 -126 40q-42 37 -42 94
q0 25 6 53q-115 -85 -299 -140q-34 -10 -69 -19q25 -46 25 -99q-12 -65 -49 -132q-74 -48 -142 -48q-53 0 -89 30q-38 32 -38 85q0 49 26 126z" />
    <glyph glyph-name="uni067D.init" unicode="&#x67d;" horiz-adv-x="518" 
d="M258 689l-99 99l99 98l99 -98zM376 890l-100 99l100 99l98 -99zM141 890l-101 99l101 99l98 -99zM387 285q-23 -118 -100 -201.5t-165 -83.5h-133q-26 0 -26 25v89q0 30 26 30h49q209 0 258 102q-17 79 -92 151l76 182q90 -143 107 -294z" />
    <glyph glyph-name="uni067D.medi" unicode="&#x67d;" horiz-adv-x="518" 
d="M243 524l-99 99l99 99l99 -99zM360 725l-98 99l98 100l100 -100zM125 725l-100 99l100 100l99 -100zM556 25q0 -25 -25 -25h-21q-119 0 -187 43q-58 36 -63 91h-8q-13 -58 -77 -98q-58 -36 -123 -36h-63q-26 0 -26 25v89q0 30 26 30h20q217 0 217 189v31q10 8 30 8
q21 0 35 -10v-32q0 -112 47 -151q44 -35 172 -35h21q25 0 25 -30v-89z" />
    <glyph glyph-name="uni067D.fina" unicode="&#x67d;" horiz-adv-x="1394" 
d="M750 642l-99 100l99 98l99 -98zM868 844l-100 99l100 99l98 -99zM633 844l-102 99l102 99l98 -99zM1432 25q0 -25 -27 -25h-20q-79 0 -126 40q-42 37 -42 94q0 25 6 53q-115 -85 -299 -140q-196 -58 -395 -58q-216 0 -335 80q-108 75 -108 196q0 123 105 301q3 2 14 2
q26 0 43 -32q-63 -104 -63 -189q0 -92 105.5 -147.5t286.5 -55.5q108 0 268 28q156 28 245 63q76 29 104.5 60.5t50.5 115.5q11 4 21 4q27 0 46 -27q-30 -67 -30 -130q0 -114 103 -114h20q27 0 27 -30v-89z" />
    <glyph glyph-name="uni0681.init" unicode="&#x681;" horiz-adv-x="966" 
d="M903 310l-80 -129q-47 15 -100 15q-70 0 -260 -84q-252 -112 -454 -112h-20q-26 0 -26 25v89q0 30 26 30h20q147 0 357 57q78 25 215 66v4q-65 19 -223 140q-138 106 -178 106q-31 0 -92 -108q-25 3 -50 27l89 159q37 65 92 65q50 0 282 -183q119 -93 196 -128
q90 -39 206 -39zM531 930q-26 -4 -63 -15.5t-77 -26t-78.5 -31.5t-67.5 -33v65q18 10 42.5 20.5t54.5 17.5v4q-81 29 -81 104q85 128 168 128q55 0 91 -58l-54 -42q-19 18 -36.5 26.5t-31.5 8.5q-38 0 -80 -58q30 -64 104 -67q27 7 59 16.5t71 17.5z" />
    <glyph glyph-name="uni0681.medi" unicode="&#x681;" horiz-adv-x="1139" 
d="M1177 25q0 -25 -25 -25q-355 0 -355 262q0 30 0.5 53t2.5 44q-19 -13 -49.5 -34.5t-68.5 -48.5t-82.5 -59t-91.5 -64q-112 -76 -237.5 -114.5t-271.5 -38.5h-10q-26 0 -26 25v89q0 30 26 30h10q116 0 227.5 27.5t216.5 86.5q48 27 82.5 47t59 34t41.5 24t29 16v4
q-12 0 -29 2t-43 9t-63 19.5t-89 33.5q-207 84 -220 84q-36 0 -86 -124q-28 0 -56 21l76 164q38 82 92 82q31 0 142 -49q38 -17 68 -30t54 -23t44 -17t38 -14q144 -50 259 -50q90 0 248 36l-66 -150q-58 -2 -99 -5t-65 -8q3 -35 7.5 -61t11 -45.5t16.5 -34t24 -27.5
q57 -52 212 -52h21q25 0 25 -30v-89zM758 903q-25 -5 -62 -16t-77 -26t-79 -31.5t-68 -33.5v66q18 10 43 20.5t55 17.5v4q-81 29 -81 104q84 128 168 128q55 0 90 -58l-53 -42q-19 18 -36.5 26t-31.5 8q-38 0 -80 -57q30 -65 104 -67q26 7 58.5 16.5t71.5 16.5z" />
    <glyph glyph-name="uni0681.fina" unicode="&#x681;" horiz-adv-x="1045" 
d="M1088 -383l-101 -117q-211 -43 -367 -43q-229 0 -384 99q-168 109 -168 289q0 190 165 348q143 138 366 216v4q-156 26 -270 64q-56 20 -84 20q-36 0 -86 -118q-35 0 -56 18l78 164q38 79 90 79q5 0 216 -60t297 -60q114 0 248 34l-65 -148q-84 0 -163 -16
q0 -129 51 -185q54 -61 181 -61h20q27 0 27 -30v-89q0 -25 -27 -25h-20q-297 0 -297 285q0 28 6 96q-207 -42 -363 -171q-167 -138 -167 -294q0 -154 150 -245q145 -89 374 -89q127 0 349 35zM794 912q-25 -5 -62 -16t-77 -26t-79 -31.5t-68 -33.5v66q18 10 42.5 20.5
t55.5 17.5v4q-82 29 -82 104q85 128 169 128q55 0 90 -58l-54 -42q-19 18 -36 26.5t-31 8.5q-38 0 -80 -58q30 -65 104 -67q26 7 58.5 16.5t71.5 16.5z" />
    <glyph glyph-name="uni0682.init" unicode="&#x682;" horiz-adv-x="966" 
d="M489 1218l-112 -112l-125 104l114 114zM903 310l-80 -129q-47 15 -100 15q-70 0 -260 -84q-252 -112 -454 -112h-20q-26 0 -26 25v89q0 30 26 30h20q147 0 357 57q78 25 215 66v4q-65 19 -223 140q-138 106 -178 106q-31 0 -92 -108q-25 3 -50 27l89 159q37 65 92 65
q50 0 282 -183q119 -93 196 -128q90 -39 206 -39zM499 995l-112 -112l-125 104l114 114z" />
    <glyph glyph-name="uni0682.medi" unicode="&#x682;" horiz-adv-x="1139" 
d="M726 968l-112 -113l-124 104l113 114zM1177 25q0 -25 -25 -25q-355 0 -355 262q0 30 0.5 53t2.5 44q-19 -13 -49.5 -34.5t-68.5 -48.5t-82.5 -59t-91.5 -64q-112 -76 -237.5 -114.5t-271.5 -38.5h-10q-26 0 -26 25v89q0 30 26 30h10q116 0 227.5 27.5t216.5 86.5
q48 27 82.5 47t59 34t41.5 24t29 16v4q-12 0 -29 2t-43 9t-63 19.5t-89 33.5q-207 84 -220 84q-36 0 -86 -124q-28 0 -56 21l76 164q38 82 92 82q31 0 142 -49q38 -17 68 -30t54 -23t44 -17t38 -14q144 -50 259 -50q90 0 248 36l-66 -150q-58 -2 -99 -5t-65 -8
q3 -35 7.5 -61t11 -45.5t16.5 -34t24 -27.5q57 -52 212 -52h21q25 0 25 -30v-89zM719 1192l-112 -112l-125 103l114 114z" />
    <glyph glyph-name="uni0682.fina" unicode="&#x682;" horiz-adv-x="1045" 
d="M765 974l-111 -112l-126 105l114 113zM1088 -383l-101 -117q-211 -43 -367 -43q-229 0 -384 99q-168 109 -168 289q0 190 165 348q143 138 366 216v4q-156 26 -270 64q-56 20 -84 20q-36 0 -86 -118q-35 0 -56 18l78 164q38 79 90 79q5 0 216 -60t297 -60q114 0 248 34
l-65 -148q-84 0 -163 -16q0 -129 51 -185q54 -61 181 -61h20q27 0 27 -30v-89q0 -25 -27 -25h-20q-297 0 -297 285q0 28 6 96q-207 -42 -363 -171q-167 -138 -167 -294q0 -154 150 -245q145 -89 374 -89q127 0 349 35zM755 1195l-112 -112l-125 104l114 114z" />
    <glyph glyph-name="uni0685.init" unicode="&#x685;" horiz-adv-x="966" 
d="M903 310l-80 -129q-47 15 -100 15q-70 0 -260 -84q-252 -112 -454 -112h-20q-26 0 -26 25v89q0 30 26 30h20q147 0 357 57q78 25 215 66v4q-65 19 -223 140q-138 106 -178 106q-31 0 -92 -108q-25 3 -50 27l89 159q37 65 92 65q50 0 282 -183q119 -93 196 -128
q90 -39 206 -39zM478 1185l-100 -99l-98 99l98 99zM595 984l-99 -99l-98 99l98 98zM360 984l-99 -99l-100 99l100 98z" />
    <glyph glyph-name="uni0685.medi" unicode="&#x685;" horiz-adv-x="1139" 
d="M1177 25q0 -25 -25 -25q-355 0 -355 262q0 30 0.5 53t2.5 44q-19 -13 -49.5 -34.5t-68.5 -48.5t-82.5 -59t-91.5 -64q-112 -76 -237.5 -114.5t-271.5 -38.5h-10q-26 0 -26 25v89q0 30 26 30h10q116 0 227.5 27.5t216.5 86.5q48 27 82.5 47t59 34t41.5 24t29 16v4
q-12 0 -29 2t-43 9t-63 19.5t-89 33.5q-207 84 -220 84q-36 0 -86 -124q-28 0 -56 21l76 164q38 82 92 82q31 0 142 -49q38 -17 68 -30t54 -23t44 -17t38 -14q144 -50 259 -50q90 0 248 36l-66 -150q-58 -2 -99 -5t-65 -8q3 -35 7.5 -61t11 -45.5t16.5 -34t24 -27.5
q57 -52 212 -52h21q25 0 25 -30v-89zM705 1167l-99 -99l-98 99l98 98zM823 966l-99 -100l-99 100l99 98zM588 966l-99 -100l-101 100l101 98z" />
    <glyph glyph-name="uni0685.fina" unicode="&#x685;" horiz-adv-x="1045" 
d="M1088 -383l-101 -117q-211 -43 -367 -43q-229 0 -384 99q-168 109 -168 289q0 190 165 348q143 138 366 216v4q-156 26 -270 64q-56 20 -84 20q-36 0 -86 -118q-35 0 -56 18l78 164q38 79 90 79q5 0 216 -60t297 -60q114 0 248 34l-65 -148q-84 0 -163 -16
q0 -129 51 -185q54 -61 181 -61h20q27 0 27 -30v-89q0 -25 -27 -25h-20q-297 0 -297 285q0 28 6 96q-207 -42 -363 -171q-167 -138 -167 -294q0 -154 150 -245q145 -89 374 -89q127 0 349 35zM741 1176l-99 -99l-98 99l98 99zM859 975l-100 -99l-98 99l98 98zM624 975
l-100 -99l-100 99l100 98z" />
    <glyph glyph-name="uni0689.fina" unicode="&#x689;" horiz-adv-x="768" 
d="M382 16q-1 -1 -3 -1q-69 -16 -121 -22q-20 -52 -20 -87q0 -24 25 -41t68 -17q28 0 63.5 12t50.5 30q0 43 -34 93q-13 17 -29 33zM205 -11h-1q-63 0 -119 18q-4 71 -4 94q0 39 15 132q15 4 24 4q14 0 27 -9v-28q0 -34 3 -49q40 -19 97 -19q78 0 178 32q96 31 143 67
q-74 212 -154 487l80 174q109 -495 166 -642q42 -106 98 -106h21q26 0 26 -30v-89q0 -25 -26 -25h-21q-107 0 -177 209h-3q-11 -76 -41 -140q-29 -14 -72 -29q31 -52 32 -111q-12 -65 -49 -132q-75 -48 -142 -48q-53 0 -89 30q-38 32 -38 85q0 49 26 125z" />
    <glyph glyph-name="uni068A.fina" unicode="&#x68a;" horiz-adv-x="768" 
d="M805 25q0 -25 -26 -25h-21q-107 0 -177 209h-3q-11 -76 -41 -140q-54 -28 -158 -54q-109 -26 -175 -26q-63 0 -119 18q-4 71 -4 94q0 39 15 132q15 4 24 4q14 0 27 -9v-28q0 -34 3 -49q40 -19 97 -19q78 0 178 32q96 31 143 67q-74 212 -154 487l80 174
q109 -495 166 -642q42 -106 98 -106h21q26 0 26 -30v-89zM485 -282l-112 -112l-125 105l114 113z" />
    <glyph glyph-name="uni068B.fina" unicode="&#x68b;" horiz-adv-x="768" 
d="M805 25q0 -25 -26 -25h-21q-107 0 -177 209h-3q-11 -76 -41 -140q-54 -28 -158 -54q-109 -26 -175 -26q-63 0 -119 18q-4 71 -4 94q0 39 15 132q15 4 24 4q14 0 27 -9v-28q0 -34 3 -49q40 -19 97 -19q78 0 178 32q96 31 143 67q-74 212 -154 487l80 174
q109 -495 166 -642q42 -106 98 -106h21q26 0 26 -30v-89zM384 1257q0 -29 -0.5 -50.5t-4.5 -35.5l2 -1q31 46 70 71t73 25q25 0 45 -10t35 -26t24.5 -35.5t13.5 -38.5q-21 -51 -49.5 -83.5t-69 -50.5t-94 -26t-124.5 -9l-100 88q32 -5 61 -6.5t53 -1.5l14 44q0 56 -0.5 98.5
t-3.5 76t-7 61t-11 51.5l60 62q8 -29 25 -64.5t45 -76.5l-5 -4l-54 23q2 -41 2 -81zM499 1193q-44 0 -80 -35t-69 -92q34 1 70.5 6.5t68.5 14t57 19.5t38 22q-17 34 -37.5 49.5t-47.5 15.5zM485 -282l-112 -112l-125 105l114 113z" />
    <glyph glyph-name="uni068F.fina" unicode="&#x68f;" horiz-adv-x="768" 
d="M805 25q0 -25 -26 -25h-21q-107 0 -177 209h-3q-11 -76 -41 -140q-54 -28 -158 -54q-109 -26 -175 -26q-63 0 -119 18q-4 71 -4 94q0 39 15 132q15 4 24 4q14 0 27 -9v-28q0 -34 3 -49q40 -19 97 -19q78 0 178 32q96 31 143 67q-74 212 -154 487l80 174
q109 -495 166 -642q42 -106 98 -106h21q26 0 26 -30v-89zM457 997l-98 98l98 99l100 -99zM575 1198l-99 98l99 100l99 -100zM340 1198l-100 98l100 100l99 -100z" />
    <glyph glyph-name="uni0690.fina" unicode="&#x690;" horiz-adv-x="768" 
d="M805 25q0 -25 -26 -25h-21q-107 0 -177 209h-3q-11 -76 -41 -140q-54 -28 -158 -54q-109 -26 -175 -26q-63 0 -119 18q-4 71 -4 94q0 39 15 132q15 4 24 4q14 0 27 -9v-28q0 -34 3 -49q40 -19 97 -19q78 0 178 32q96 31 143 67q-74 212 -154 487l80 174
q109 -495 166 -642q42 -106 98 -106h21q26 0 26 -30v-89zM670 1296l-99 -99l-98 99l98 99zM435 1296l-99 -99l-100 99l100 99zM674 1096l-99 -99l-99 99l99 98zM439 1096l-99 -99l-100 99l100 98z" />
    <glyph glyph-name="uni0692.fina" unicode="&#x692;" horiz-adv-x="686" 
d="M724 25q0 -25 -26 -25h-21q-52 0 -111 52q-21 -166 -93 -298q-70 -128 -225 -288q-67 0 -142 20t-106 46q218 103 355 253q111 121 128 215q-17 126 -141 244l62 187l94 -146q91 -141 179 -141h21q26 0 26 -30v-89zM223 883l168 -151l167 151h49l-176 -240h-80l-177 240
h49z" />
    <glyph glyph-name="uni0693.fina" unicode="&#x693;" horiz-adv-x="686" 
d="M336 -436q-36 -43 -79 -89q-10 -30 -10 -53q0 -22 24.5 -38t66.5 -16q27 0 62 11.5t50 26.5q0 41 -35 87q-31 41 -79 71zM205 -532q-47 5 -98 18q-76 20 -107 46q218 103 355 253q111 121 128 215q-17 126 -141 244l62 187l94 -146q91 -141 179 -141h21q26 0 26 -30v-89
q0 -25 -26 -25h-21q-52 0 -111 52q-21 -166 -93 -298q-32 -57 -81 -122q105 -83 107 -189q-12 -60 -47 -124q-74 -43 -139 -43q-52 0 -86 27q-37 29 -37 79q0 36 15 86z" />
    <glyph glyph-name="uni0694.fina" unicode="&#x694;" horiz-adv-x="686" 
d="M724 25q0 -25 -26 -25h-21q-52 0 -111 52q-21 -166 -93 -298q-70 -128 -225 -288q-67 0 -142 20t-106 46q218 103 355 253q111 121 128 215q-17 126 -141 244l62 187l94 -146q91 -141 179 -141h21q26 0 26 -30v-89zM616 -602l-111 -111l-126 104l114 113z" />
    <glyph glyph-name="uni0695.fina" unicode="&#x695;" horiz-adv-x="686" 
d="M724 25q0 -25 -26 -25h-21q-52 0 -111 52q-21 -166 -93 -298q-70 -128 -225 -288q-67 0 -142 20t-106 46q218 103 355 253q111 121 128 215q-17 126 -141 244l62 187l94 -146q91 -141 179 -141h21q26 0 26 -30v-89zM172 -668l168 -150l167 150h49l-176 -239h-80l-177 239
h49z" />
    <glyph glyph-name="uni0696.fina" unicode="&#x696;" horiz-adv-x="686" 
d="M724 25q0 -25 -26 -25h-21q-52 0 -111 52q-21 -166 -93 -298q-70 -128 -225 -288q-67 0 -142 20t-106 46q218 103 355 253q111 121 128 215q-17 126 -141 244l62 187l94 -146q91 -141 179 -141h21q26 0 26 -30v-89zM616 -602l-111 -111l-126 104l114 113zM311 -25
l-111 -111l-126 104l114 114z" />
    <glyph glyph-name="uni0697.fina" unicode="&#x697;" horiz-adv-x="686" 
d="M404 431l94 -146q50 -76 93.5 -108.5t85.5 -32.5h21q14 0 20 -6.5t6 -23.5v-89q0 -25 -26 -25h-21q-24 0 -51.5 12t-59.5 40q-11 -84 -33.5 -156.5t-60 -141t-93 -139t-131.5 -149.5q-34 0 -71 5.5t-71 14.5t-62.5 21t-43.5 25q121 57 209 123t147 130.5t89.5 120.5
t37.5 94q-8 59 -40.5 119t-100.5 125zM605 710l-99 -100l-99 100l99 98zM370 710l-99 -100l-101 100l101 98z" />
    <glyph glyph-name="uni0699.fina" unicode="&#x699;" horiz-adv-x="686" 
d="M404 431l94 -146q50 -76 93.5 -108.5t85.5 -32.5h21q14 0 20 -6.5t6 -23.5v-89q0 -25 -26 -25h-21q-24 0 -51.5 12t-59.5 40q-11 -84 -33.5 -156.5t-60 -141t-93 -139t-131.5 -149.5q-34 0 -71 5.5t-71 14.5t-62.5 21t-43.5 25q121 57 209 123t147 130.5t89.5 120.5
t37.5 94q-8 59 -40.5 119t-100.5 125zM608 914l-100 -100l-98 100l98 98zM373 914l-100 -100l-100 100l100 98zM605 710l-99 -100l-99 100l99 98zM370 710l-99 -100l-101 100l101 98z" />
    <glyph glyph-name="uni069A.init" unicode="&#x69a;" horiz-adv-x="1059" 
d="M987 285q-25 -116 -93 -197q-74 -88 -162 -88q-142 0 -166 134h-4q-41 -134 -175 -134q-59 0 -102 35q-47 36 -59 99h-3q-19 -59 -75 -97q-58 -37 -139 -37h-20q-26 0 -26 25v89q0 30 26 30h20q196 0 196 223q15 7 29 7q21 0 42 -12q-5 -59 -5 -106q0 -45 30 -78.5
t73 -33.5q77 0 121 63q43 60 43 160q14 7 28 7q20 0 43 -12q-6 -59 -6 -106q0 -46 30.5 -79t77.5 -33q137 0 185 102q-16 79 -91 151l76 182q91 -143 106 -294zM705 -282l-112 -112l-125 105l114 113zM695 821l-112 -112l-124 105l113 113z" />
    <glyph glyph-name="uni069A.medi" unicode="&#x69a;" horiz-adv-x="1095" 
d="M1133 25q0 -25 -27 -25h-20q-53 0 -99.5 37.5t-58.5 96.5h-4q-39 -134 -168 -134q-142 0 -166 134h-4q-42 -134 -175 -134q-159 0 -185 134h-3q-19 -59 -75 -97q-58 -37 -139 -37h-20q-26 0 -26 25v89q0 30 26 30l20 -2q196 3 196 223q15 7 29 7q21 0 42 -12
q-5 -56 -5 -104q0 -46 34 -79t93 -33q78 0 122 63q42 59 42 158q14 7 28 7q21 0 43 -12q-6 -56 -6 -104q0 -46 31 -79t78 -33q77 0 122 63q42 59 42 158q13 7 28 7q20 0 43 -12q-6 -56 -6 -104q0 -46 33.5 -79t87.5 -33h20q27 0 27 -30v-89zM714 -282l-112 -112l-125 105
l114 113zM705 748l-112 -112l-125 105l114 113z" />
    <glyph glyph-name="uni069A.fina" unicode="&#x69a;" horiz-adv-x="1838" 
d="M1875 25q0 -25 -26 -25h-20q-54 0 -100.5 37.5t-57.5 96.5h-4q-39 -134 -169 -134q-141 0 -165 134h-4q-42 -134 -176 -134q-51 0 -98 32q9 -68 9 -129q0 -98 -63 -222q-82 -75 -237 -143q-185 -81 -336 -81q-160 0 -257 76q-103 80 -103 221q0 165 141 412q32 0 62 -29
q-37 -63 -63 -154q-22 -84 -22 -140q0 -106 73 -168.5t206 -62.5q122 0 270.5 57.5t248.5 141.5q2 202 -111 409l64 189q60 -158 104 -212q41 -53 99 -53q79 0 122 63q42 60 42 160q15 7 29 7q20 0 42 -12q-5 -59 -5 -106q0 -46 31 -79t77 -33q78 0 122 63q42 60 42 160
q14 7 29 7q20 0 42 -12q-5 -59 -5 -106q0 -46 32.5 -79t88.5 -33h20q26 0 26 -30v-89zM1469 -282l-112 -112l-125 105l114 113zM1460 757l-112 -112l-125 105l114 113z" />
    <glyph glyph-name="uni069B.init" unicode="&#x69b;" horiz-adv-x="1059" 
d="M987 285q-25 -116 -93 -197q-74 -88 -162 -88q-142 0 -166 134h-4q-41 -134 -175 -134q-59 0 -102 35q-47 36 -59 99h-3q-19 -59 -75 -97q-58 -37 -139 -37h-20q-26 0 -26 25v89q0 30 26 30h20q196 0 196 223q15 7 29 7q21 0 42 -12q-5 -59 -5 -106q0 -45 30 -78.5
t73 -33.5q77 0 121 63q43 60 43 160q14 7 28 7q20 0 43 -12q-6 -59 -6 -106q0 -46 30.5 -79t77.5 -33q137 0 185 102q-16 79 -91 151l76 182q91 -143 106 -294zM673 -444l-100 -99l-98 99l98 99zM790 -242l-99 -100l-98 100l98 98zM555 -242l-99 -100l-99 100l99 98z" />
    <glyph glyph-name="uni069B.medi" unicode="&#x69b;" horiz-adv-x="1095" 
d="M1133 25q0 -25 -27 -25h-20q-53 0 -99.5 37.5t-58.5 96.5h-4q-39 -134 -168 -134q-142 0 -166 134h-4q-42 -134 -175 -134q-159 0 -185 134h-3q-19 -59 -75 -97q-58 -37 -139 -37h-20q-26 0 -26 25v89q0 30 26 30l20 -2q196 3 196 223q15 7 29 7q21 0 42 -12
q-5 -56 -5 -104q0 -46 34 -79t93 -33q78 0 122 63q42 59 42 158q14 7 28 7q21 0 43 -12q-6 -56 -6 -104q0 -46 31 -79t78 -33q77 0 122 63q42 59 42 158q13 7 28 7q20 0 43 -12q-6 -56 -6 -104q0 -46 33.5 -79t87.5 -33h20q27 0 27 -30v-89zM682 -444l-99 -99l-99 99l99 99z
M799 -242l-99 -100l-98 100l98 98zM564 -242l-99 -100l-98 100l98 98z" />
    <glyph glyph-name="uni069B.fina" unicode="&#x69b;" horiz-adv-x="1838" 
d="M1875 25q0 -25 -26 -25h-20q-54 0 -100.5 37.5t-57.5 96.5h-4q-39 -134 -169 -134q-141 0 -165 134h-4q-42 -134 -176 -134q-51 0 -98 32q9 -68 9 -129q0 -98 -63 -222q-82 -75 -237 -143q-185 -81 -336 -81q-160 0 -257 76q-103 80 -103 221q0 165 141 412q32 0 62 -29
q-37 -63 -63 -154q-22 -84 -22 -140q0 -106 73 -168.5t206 -62.5q122 0 270.5 57.5t248.5 141.5q2 202 -111 409l64 189q60 -158 104 -212q41 -53 99 -53q79 0 122 63q42 60 42 160q15 7 29 7q20 0 42 -12q-5 -59 -5 -106q0 -46 31 -79t77 -33q78 0 122 63q42 60 42 160
q14 7 29 7q20 0 42 -12q-5 -59 -5 -106q0 -46 32.5 -79t88.5 -33h20q26 0 26 -30v-89zM1474 -444l-100 -99l-98 99l98 99zM1591 -242l-99 -100l-98 100l98 98zM1356 -242l-99 -100l-98 100l98 98z" />
    <glyph glyph-name="uni069C.init" unicode="&#x69c;" horiz-adv-x="1059" 
d="M678 1017l-98 -100l-100 100l100 99zM796 815l-99 -99l-99 99l99 99zM561 815l-99 -99l-101 99l101 99zM987 285q-25 -116 -93 -197q-74 -88 -162 -88q-142 0 -166 134h-4q-41 -134 -175 -134q-59 0 -102 35q-47 36 -59 99h-3q-19 -59 -75 -97q-58 -37 -139 -37h-20
q-26 0 -26 25v89q0 30 26 30h20q196 0 196 223q15 7 29 7q21 0 42 -12q-5 -59 -5 -106q0 -45 30 -78.5t73 -33.5q77 0 121 63q43 60 43 160q14 7 28 7q20 0 43 -12q-6 -59 -6 -106q0 -46 30.5 -79t77.5 -33q137 0 185 102q-16 79 -91 151l76 182q91 -143 106 -294zM673 -444
l-100 -99l-98 99l98 99zM790 -242l-99 -100l-98 100l98 98zM555 -242l-99 -100l-99 100l99 98z" />
    <glyph glyph-name="uni069C.medi" unicode="&#x69c;" horiz-adv-x="1095" 
d="M685 938l-98 -99l-99 99l99 99zM803 737l-98 -99l-100 99l100 98zM568 737l-98 -99l-102 99l102 98zM1133 25q0 -25 -27 -25h-20q-53 0 -99.5 37.5t-58.5 96.5h-4q-39 -134 -168 -134q-142 0 -166 134h-4q-42 -134 -175 -134q-159 0 -185 134h-3q-19 -59 -75 -97
q-58 -37 -139 -37h-20q-26 0 -26 25v89q0 30 26 30l20 -2q196 3 196 223q15 7 29 7q21 0 42 -12q-5 -56 -5 -104q0 -46 34 -79t93 -33q78 0 122 63q42 59 42 158q14 7 28 7q21 0 43 -12q-6 -56 -6 -104q0 -46 31 -79t78 -33q77 0 122 63q42 59 42 158q13 7 28 7q20 0 43 -12
q-6 -56 -6 -104q0 -46 33.5 -79t87.5 -33h20q27 0 27 -30v-89zM682 -444l-99 -99l-99 99l99 99zM799 -242l-99 -100l-98 100l98 98zM564 -242l-99 -100l-98 100l98 98z" />
    <glyph glyph-name="uni069C.fina" unicode="&#x69c;" horiz-adv-x="1838" 
d="M1457 938l-99 -99l-98 99l98 99zM1575 737l-99 -99l-99 99l99 98zM1340 737l-100 -99l-100 99l100 98zM1875 25q0 -25 -26 -25h-20q-54 0 -100.5 37.5t-57.5 96.5h-4q-39 -134 -169 -134q-141 0 -165 134h-4q-42 -134 -176 -134q-51 0 -98 32q9 -68 9 -129
q0 -98 -63 -222q-82 -75 -237 -143q-185 -81 -336 -81q-160 0 -257 76q-103 80 -103 221q0 165 141 412q32 0 62 -29q-37 -63 -63 -154q-22 -84 -22 -140q0 -106 73 -168.5t206 -62.5q122 0 270.5 57.5t248.5 141.5q2 202 -111 409l64 189q60 -158 104 -212q41 -53 99 -53
q79 0 122 63q42 60 42 160q15 7 29 7q20 0 42 -12q-5 -59 -5 -106q0 -46 31 -79t77 -33q78 0 122 63q42 60 42 160q14 7 29 7q20 0 42 -12q-5 -59 -5 -106q0 -46 32.5 -79t88.5 -33h20q26 0 26 -30v-89zM1474 -444l-100 -99l-98 99l98 99zM1591 -242l-99 -100l-98 100l98 98
zM1356 -242l-99 -100l-98 100l98 98z" />
    <glyph glyph-name="uni069D.init" unicode="&#x69d;" horiz-adv-x="1315" 
d="M1243 310q-114 -177 -294 -246q-166 -64 -468 -64q-229 0 -255 134h-3q-19 -59 -75 -97q-58 -37 -139 -37h-20q-26 0 -26 25v89q0 30 26 30h20q196 0 196 223q15 7 29 7q21 0 42 -12q-5 -59 -5 -106q0 -46 35 -79t97 -33q215 250 365 345q109 69 212 69q112 0 190 -81
q73 -75 73 -167zM1125 256q0 65 -59 121t-135 56q-185 0 -440 -289h188q136 0 268 34q125 32 178 78zM972 -242l-99 -100l-98 100l98 98zM737 -242l-99 -100l-98 100l98 98z" />
    <glyph glyph-name="uni069D.medi" unicode="&#x69d;" horiz-adv-x="1313" 
d="M1351 25q0 -25 -26 -25h-93q-137 0 -368 41q-189 -41 -383 -41q-229 0 -255 134h-3q-19 -59 -75 -97q-58 -37 -139 -37h-20q-26 0 -26 25v89q0 30 26 30h20q196 0 196 223q15 7 29 7q21 0 42 -12q-5 -59 -5 -106q0 -46 35 -79t97 -33q215 250 365 345q109 69 212 69
q112 0 190 -81q73 -75 73 -167q-26 -80 -155 -159v-7h237q26 0 26 -30v-89zM1125 256q0 65 -59 121t-135 56q-185 0 -440 -289h188q136 0 268 34q125 32 178 78zM1000 -242l-100 -100l-98 100l98 98zM765 -242l-100 -100l-98 100l98 98z" />
    <glyph glyph-name="uni069D.fina" unicode="&#x69d;" horiz-adv-x="2047" 
d="M2084 25q0 -25 -25 -25h-94q-137 0 -367 41q-189 -41 -383 -41q-113 0 -160 32q9 -68 9 -129q0 -98 -63 -222q-82 -75 -237 -143q-185 -81 -336 -81q-160 0 -257 76q-103 80 -103 221q0 165 141 412q32 0 62 -29q-37 -63 -63 -154q-22 -84 -22 -140q0 -106 73 -168.5
t206 -62.5q122 0 270.5 57.5t248.5 141.5q2 202 -111 409l64 189q60 -157 102 -211t98 -54q215 250 365 345q108 69 211 69q112 0 191 -81q73 -75 73 -167q-28 -80 -155 -159v-7h237q25 0 25 -30v-89zM1859 256q0 65 -59.5 121t-134.5 56q-185 0 -441 -289h189q135 0 267 34
q125 32 179 78zM1792 -242l-100 -100l-98 100l98 98zM1557 -242l-100 -100l-98 100l98 98z" />
    <glyph glyph-name="uni069E.init" unicode="&#x69e;" horiz-adv-x="1315" 
d="M1243 310q-114 -177 -294 -246q-166 -64 -468 -64q-229 0 -255 134h-3q-19 -59 -75 -97q-58 -37 -139 -37h-20q-26 0 -26 25v89q0 30 26 30h20q196 0 196 223q15 7 29 7q21 0 42 -12q-5 -59 -5 -106q0 -46 35 -79t97 -33q215 250 365 345q109 69 212 69q112 0 190 -81
q73 -75 73 -167zM1125 256q0 65 -59 121t-135 56q-185 0 -440 -289h188q136 0 268 34q125 32 178 78zM1008 1034l-98 -99l-100 99l100 99zM1125 833l-98 -100l-99 100l99 98zM890 833l-98 -100l-101 100l101 98z" />
    <glyph glyph-name="uni069E.medi" unicode="&#x69e;" horiz-adv-x="1313" 
d="M1351 25q0 -25 -26 -25h-93q-137 0 -368 41q-189 -41 -383 -41q-229 0 -255 134h-3q-19 -59 -75 -97q-58 -37 -139 -37h-20q-26 0 -26 25v89q0 30 26 30h20q196 0 196 223q15 7 29 7q21 0 42 -12q-5 -59 -5 -106q0 -46 35 -79t97 -33q215 250 365 345q109 69 212 69
q112 0 190 -81q73 -75 73 -167q-26 -80 -155 -159v-7h237q26 0 26 -30v-89zM1125 256q0 65 -59 121t-135 56q-185 0 -440 -289h188q136 0 268 34q125 32 178 78zM1013 1038l-99 -100l-99 100l99 99zM1130 836l-98 -99l-100 99l100 99zM895 836l-98 -99l-102 99l102 99z" />
    <glyph glyph-name="uni069E.fina" unicode="&#x69e;" horiz-adv-x="2047" 
d="M2084 25q0 -25 -25 -25h-94q-137 0 -367 41q-189 -41 -383 -41q-113 0 -160 32q9 -68 9 -129q0 -98 -63 -222q-82 -75 -237 -143q-185 -81 -336 -81q-160 0 -257 76q-103 80 -103 221q0 165 141 412q32 0 62 -29q-37 -63 -63 -154q-22 -84 -22 -140q0 -106 73 -168.5
t206 -62.5q122 0 270.5 57.5t248.5 141.5q2 202 -111 409l64 189q60 -157 102 -211t98 -54q215 250 365 345q108 69 211 69q112 0 191 -81q73 -75 73 -167q-28 -80 -155 -159v-7h237q25 0 25 -30v-89zM1859 256q0 65 -59.5 121t-134.5 56q-185 0 -441 -289h189q135 0 267 34
q125 32 179 78zM1745 1034l-98 -99l-99 99l99 99zM1863 833l-99 -100l-99 100l99 98zM1628 833l-99 -100l-101 100l101 98z" />
    <glyph glyph-name="uni069F.init" unicode="&#x69f;" horiz-adv-x="1044" 
d="M972 310q-113 -176 -290 -246q-161 -64 -445 -64h-248q-26 0 -26 25v89q0 30 26 30h148q0 342 -26 648q-23 286 -57 365l103 128q16 -51 56.5 -143t59.5 -122q-44 13 -77 34q32 -349 32 -804q167 182 285 252q96 56 196 56q112 0 191 -81q72 -75 72 -167zM855 256
q0 65 -59.5 121t-134.5 56q-185 0 -440 -289h188q135 0 267 34q125 32 179 78zM735 1034l-99 -99l-99 99l99 99zM852 833l-98 -100l-100 100l100 98zM617 833l-98 -100l-101 100l101 98z" />
    <glyph glyph-name="uni069F.medi" unicode="&#x69f;" horiz-adv-x="1037" 
d="M1075 25q0 -25 -26 -25h-88q-136 0 -368 41q-196 -41 -584 -41h-20q-26 0 -26 25v89q0 30 26 30h148q0 342 -26 648q-23 286 -57 365l103 128q16 -51 56.5 -143t59.5 -122q-44 13 -77 34q32 -349 32 -804q167 182 285 252q96 56 196 56q112 0 191 -81q72 -75 72 -167
q-26 -80 -154 -159v-7h231q26 0 26 -30v-89zM855 256q0 65 -59.5 121t-134.5 56q-185 0 -440 -289h188q135 0 267 34q125 32 179 78zM735 1034l-99 -99l-99 99l99 99zM852 833l-98 -100l-100 100l100 98zM617 833l-98 -100l-101 100l101 98z" />
    <glyph glyph-name="uni069F.fina" unicode="&#x69f;" horiz-adv-x="1212" 
d="M1249 25q0 -25 -26 -25h-93q-137 0 -367 41q-226 -41 -357 -41h-123q-115 63 -218 176q104 -30 241 -30q0 340 -26 646q-23 286 -56 365l102 128q15 -51 55.5 -143t59.5 -122q-43 13 -76 34q32 -349 32 -804q166 182 286 252q94 56 196 56q112 0 190 -81q72 -75 72 -167
q-26 -80 -155 -159v-7h237q26 0 26 -30v-89zM1023 256q0 65 -59 121t-135 56q-184 0 -440 -289h189q136 0 267 34q125 32 178 78zM907 1034l-99 -99l-99 99l99 99zM1024 833l-98 -100l-99 100l99 98zM789 833l-98 -100l-101 100l101 98z" />
    <glyph glyph-name="uni06A0.init" unicode="&#x6a0;" horiz-adv-x="859" 
d="M791 340l-78 -171q-61 0 -362 -83t-342 -86h-20q-26 0 -26 25v89q0 30 26 30h20q135 0 237 27v5q-69 16 -114.5 79.5t-45.5 141.5q0 41 9 71q131 221 304 221q160 0 255 -162q-94 36 -200 36q-139 0 -265 -59q-1 -13 -4 -39q0 -76 63 -145q66 -73 165 -96q36 7 186 53
q154 46 192 63zM496 1140l-98 -100l-100 100l100 99zM613 938l-98 -99l-99 99l99 99zM378 938l-98 -99l-101 99l101 99z" />
    <glyph glyph-name="uni06A0.medi" unicode="&#x6a0;" horiz-adv-x="621" 
d="M659 25q0 -25 -26 -25h-20q-172 0 -283 127q-147 -127 -289 -127h-52q-26 0 -26 25v89q0 30 26 30h47q133 0 231 65q-67 99 -153 99q-9 0 -54 -4l63 127q110 52 212 52q105 0 210 -84l-37 -93l-101 -89q62 -73 206 -73h20q26 0 26 -30v-89zM432 994l-98 -99l-100 99
l100 99zM550 793l-99 -100l-99 100l99 98zM315 793l-99 -100l-101 100l101 98z" />
    <glyph glyph-name="uni06A0.fina" unicode="&#x6a0;" horiz-adv-x="852" 
d="M889 -415l-98 -113q-71 -15 -206 -15q-232 0 -366 77q-156 91 -156 276q0 258 377 491q-75 98 -155 98q-10 0 -54 -4l63 127q114 53 211 53q127 0 229 -94l-37 -91l-132 -89q136 -157 278 -157h21q25 0 25 -30v-89q0 -25 -25 -25h-21q-152 0 -358 244
q-285 -191 -285 -369q0 -147 148 -229q137 -75 357 -75q80 0 184 14zM613 1085l-98 -99l-99 99l99 99zM731 884l-99 -100l-99 100l99 98zM496 884l-99 -100l-101 100l101 98z" />
    <glyph glyph-name="uni06A1.init" unicode="&#x6a1;" horiz-adv-x="637" 
d="M538 406q0 -163 -55 -301q-52 -38 -193 -71q-148 -34 -279 -34h-22q-26 0 -26 25v89q0 30 26 30h20q142 0 270 24q114 21 149 47q32 63 37 160q-65 -52 -185 -52q-102 0 -171 52q-12 67 -12 114q0 212 167 343q274 -63 274 -426zM449 506q0 55 -62 111q-66 58 -146 58
q-63 -51 -63 -169q39 -40 127 -40q92 0 144 40z" />
    <glyph glyph-name="uni06A1.medi" unicode="&#x6a1;" horiz-adv-x="621" 
d="M659 25q0 -25 -26 -25h-20q-164 0 -294 93q-112 -93 -310 -93h-20q-26 0 -26 25v89q0 30 26 30h20q123 0 187 24q-91 63 -91 186q0 110 73 196.5t205 132.5q160 -118 160 -284q0 -125 -117 -221q82 -34 187 -34h20q26 0 26 -30v-89zM452 375q0 88 -97 147
q-130 -25 -170 -171q10 -38 58 -86q44 -45 76 -58q64 20 100 71q33 45 33 97z" />
    <glyph glyph-name="uni06A1.fina" unicode="&#x6a1;" horiz-adv-x="1465" 
d="M1503 25q0 -25 -27 -25h-20q-164 0 -293 93q-61 -54 -177 -78q-133 -26 -391 -26q-260 0 -391 80q-118 72 -118 196q0 123 105 301q3 2 14 2q26 0 43 -32q-63 -104 -63 -189q0 -203 497 -203q242 0 358 24q-92 63 -92 186q0 110 73.5 196.5t205.5 132.5
q160 -118 160 -284q0 -125 -118 -221q82 -34 187 -34h20q27 0 27 -30v-89zM1295 375q0 88 -97 147q-129 -25 -169 -171q10 -38 57 -86q45 -45 77 -58q63 20 100 71q32 45 32 97z" />
    <glyph glyph-name="uni06A2.init" unicode="&#x6a2;" horiz-adv-x="637" 
d="M538 406q0 -163 -55 -301q-52 -38 -193 -71q-148 -34 -279 -34h-22q-26 0 -26 25v89q0 30 26 30h20q142 0 270 24q114 21 149 47q32 63 37 160q-65 -52 -185 -52q-102 0 -171 52q-12 67 -12 114q0 212 167 343q274 -63 274 -426zM449 506q0 55 -62 111q-66 58 -146 58
q-63 -51 -63 -169q39 -40 127 -40q92 0 144 40zM422 -282l-112 -112l-125 105l114 113z" />
    <glyph glyph-name="uni06A2.medi" unicode="&#x6a2;" horiz-adv-x="621" 
d="M659 25q0 -25 -26 -25h-20q-164 0 -294 93q-112 -93 -310 -93h-20q-26 0 -26 25v89q0 30 26 30h20q123 0 187 24q-91 63 -91 186q0 110 73 196.5t205 132.5q160 -118 160 -284q0 -125 -117 -221q82 -34 187 -34h20q26 0 26 -30v-89zM452 375q0 88 -97 147
q-130 -25 -170 -171q10 -38 58 -86q44 -45 76 -58q64 20 100 71q33 45 33 97zM431 -282l-112 -112l-125 105l114 113z" />
    <glyph glyph-name="uni06A2.fina" unicode="&#x6a2;" horiz-adv-x="1465" 
d="M1503 25q0 -25 -27 -25h-20q-164 0 -293 93q-61 -54 -177 -78q-133 -26 -391 -26q-260 0 -391 80q-118 72 -118 196q0 123 105 301q3 2 14 2q26 0 43 -32q-63 -104 -63 -189q0 -203 497 -203q242 0 358 24q-92 63 -92 186q0 110 73.5 196.5t205.5 132.5
q160 -118 160 -284q0 -125 -118 -221q82 -34 187 -34h20q27 0 27 -30v-89zM1295 375q0 88 -97 147q-129 -25 -169 -171q10 -38 57 -86q45 -45 77 -58q63 20 100 71q32 45 32 97zM1287 -282l-112 -112l-125 105l114 113z" />
    <glyph glyph-name="uni06A3.init" unicode="&#x6a3;" horiz-adv-x="637" 
d="M399 1123l-112 -112l-124 105l113 114zM538 406q0 -163 -55 -301q-52 -38 -193 -71q-148 -34 -279 -34h-22q-26 0 -26 25v89q0 30 26 30h20q142 0 270 24q114 21 149 47q32 63 37 160q-65 -52 -185 -52q-102 0 -171 52q-12 67 -12 114q0 212 167 343q274 -63 274 -426z
M449 506q0 55 -62 111q-66 58 -146 58q-63 -51 -63 -169q39 -40 127 -40q92 0 144 40zM422 -282l-112 -112l-125 105l114 113z" />
    <glyph glyph-name="uni06A3.medi" unicode="&#x6a3;" horiz-adv-x="621" 
d="M446 1019l-111 -113l-126 105l114 114zM659 25q0 -25 -26 -25h-20q-164 0 -294 93q-112 -93 -310 -93h-20q-26 0 -26 25v89q0 30 26 30h20q123 0 187 24q-91 63 -91 186q0 110 73 196.5t205 132.5q160 -118 160 -284q0 -125 -117 -221q82 -34 187 -34h20q26 0 26 -30v-89
zM452 375q0 88 -97 147q-130 -25 -170 -171q10 -38 58 -86q44 -45 76 -58q64 20 100 71q33 45 33 97zM431 -282l-112 -112l-125 105l114 113z" />
    <glyph glyph-name="uni06A3.fina" unicode="&#x6a3;" horiz-adv-x="1465" 
d="M1289 1019l-112 -113l-124 105l113 114zM1503 25q0 -25 -27 -25h-20q-164 0 -293 93q-61 -54 -177 -78q-133 -26 -391 -26q-260 0 -391 80q-118 72 -118 196q0 123 105 301q3 2 14 2q26 0 43 -32q-63 -104 -63 -189q0 -203 497 -203q242 0 358 24q-92 63 -92 186
q0 110 73.5 196.5t205.5 132.5q160 -118 160 -284q0 -125 -118 -221q82 -34 187 -34h20q27 0 27 -30v-89zM1295 375q0 88 -97 147q-129 -25 -169 -171q10 -38 57 -86q45 -45 77 -58q63 20 100 71q32 45 32 97zM877 -282l-112 -112l-125 105l114 113z" />
    <glyph glyph-name="uni06A5.init" unicode="&#x6a5;" horiz-adv-x="637" 
d="M538 406q0 -163 -55 -301q-52 -38 -193 -71q-148 -34 -279 -34h-22q-26 0 -26 25v89q0 30 26 30h20q142 0 270 24q114 21 149 47q32 63 37 160q-65 -52 -185 -52q-102 0 -171 52q-12 67 -12 114q0 212 167 343q274 -63 274 -426zM449 506q0 55 -62 111q-66 58 -146 58
q-63 -51 -63 -169q39 -40 127 -40q92 0 144 40zM372 -444l-99 -99l-99 99l99 99zM490 -242l-100 -100l-98 100l98 98zM255 -242l-100 -100l-98 100l98 98z" />
    <glyph glyph-name="uni06A5.medi" unicode="&#x6a5;" horiz-adv-x="621" 
d="M659 25q0 -25 -26 -25h-20q-164 0 -294 93q-112 -93 -310 -93h-20q-26 0 -26 25v89q0 30 26 30h20q123 0 187 24q-91 63 -91 186q0 110 73 196.5t205 132.5q160 -118 160 -284q0 -125 -117 -221q82 -34 187 -34h20q26 0 26 -30v-89zM452 375q0 88 -97 147
q-130 -25 -170 -171q10 -38 58 -86q44 -45 76 -58q64 20 100 71q33 45 33 97zM418 -444l-100 -99l-98 99l98 99zM535 -242l-99 -100l-99 100l99 98zM300 -242l-99 -100l-99 100l99 98z" />
    <glyph glyph-name="uni06A5.fina" unicode="&#x6a5;" horiz-adv-x="1465" 
d="M1503 25q0 -25 -27 -25h-20q-164 0 -293 93q-61 -54 -177 -78q-133 -26 -391 -26q-260 0 -391 80q-118 72 -118 196q0 123 105 301q3 2 14 2q26 0 43 -32q-63 -104 -63 -189q0 -203 497 -203q242 0 358 24q-92 63 -92 186q0 110 73.5 196.5t205.5 132.5
q160 -118 160 -284q0 -125 -118 -221q82 -34 187 -34h20q27 0 27 -30v-89zM1295 375q0 88 -97 147q-129 -25 -169 -171q10 -38 57 -86q45 -45 77 -58q63 20 100 71q32 45 32 97zM1246 -444l-100 -99l-98 99l98 99zM1363 -242l-99 -100l-98 100l98 98zM1128 -242l-99 -100
l-98 100l98 98z" />
    <glyph glyph-name="uni06A7.init" unicode="&#x6a7;" horiz-adv-x="637" 
d="M399 1123l-112 -112l-124 105l113 114zM538 406q0 -163 -55 -301q-52 -38 -193 -71q-148 -34 -279 -34h-22q-26 0 -26 25v89q0 30 26 30h20q142 0 270 24q114 21 149 47q32 63 37 160q-65 -52 -185 -52q-102 0 -171 52q-12 67 -12 114q0 212 167 343q274 -63 274 -426z
M449 506q0 55 -62 111q-66 58 -146 58q-63 -51 -63 -169q39 -40 127 -40q92 0 144 40z" />
    <glyph glyph-name="uni06A7.medi" unicode="&#x6a7;" horiz-adv-x="621" 
d="M446 1019l-111 -113l-126 105l114 114zM659 25q0 -25 -26 -25h-20q-164 0 -294 93q-112 -93 -310 -93h-20q-26 0 -26 25v89q0 30 26 30h20q123 0 187 24q-91 63 -91 186q0 110 73 196.5t205 132.5q160 -118 160 -284q0 -125 -117 -221q82 -34 187 -34h20q26 0 26 -30v-89
zM452 375q0 88 -97 147q-130 -25 -170 -171q10 -38 58 -86q44 -45 76 -58q64 20 100 71q33 45 33 97z" />
    <glyph glyph-name="uni06A7.fina" unicode="&#x6a7;" horiz-adv-x="1227" 
d="M947 830l-112 -112l-125 104l114 114zM1264 25q0 -25 -26 -25h-108q1 -43 -15 -128q-15 -80 -30 -116q-76 -110 -272 -202q-207 -98 -390 -97q-160 1 -257 76q-103 80 -103 221q0 165 141 412q32 0 62 -29q-37 -63 -63 -154q-22 -84 -22 -140q0 -106 73 -169t206 -62
q129 1 286 65q165 67 291 177q20 75 20 151q-47 -5 -132 -5q-147 0 -228 54q-11 64 -11 115q0 208 164 340q253 -58 273 -365h115q26 0 26 -30v-89zM1042 144q0 72 -64 140q-68 70 -145 70q-67 -55 -67 -164q75 -46 276 -46z" />
    <glyph glyph-name="uni06A8.init" unicode="&#x6a8;" horiz-adv-x="626" 
d="M527 406q0 -158 -57 -301q-52 -38 -193 -71q-147 -34 -278 -34h-10q-26 0 -26 25v89q0 30 26 30h20q133 0 258 24q113 21 150 47q32 63 37 160q-68 -52 -187 -52q-102 0 -172 52q-11 67 -11 114q0 212 166 343q277 -64 277 -426zM435 506q0 55 -61 111q-67 58 -146 58
q-64 -51 -64 -169q40 -40 127 -40q93 0 144 40zM249 1029l-99 -100l-100 100l100 98zM367 1230l-100 -99l-98 99l98 98zM484 1029l-99 -100l-99 100l99 98z" />
    <glyph glyph-name="uni06A8.medi" unicode="&#x6a8;" horiz-adv-x="621" 
d="M659 25q0 -25 -26 -25h-20q-164 0 -294 93q-112 -93 -310 -93h-20q-26 0 -26 25v89q0 30 26 30h20q123 0 187 24q-91 63 -91 186q0 110 73 196.5t205 132.5q160 -118 160 -284q0 -125 -117 -221q82 -34 187 -34h20q26 0 26 -30v-89zM452 375q0 88 -97 147
q-130 -25 -170 -171q10 -38 58 -86q44 -45 76 -58q64 20 100 71q33 45 33 97zM421 1146l-99 -99l-98 99l98 98zM539 945l-100 -100l-98 100l98 98zM304 945l-100 -100l-100 100l100 98z" />
    <glyph glyph-name="uni06A8.fina" unicode="&#x6a8;" horiz-adv-x="1227" 
d="M1264 25q0 -25 -26 -25h-108q1 -43 -15 -128q-15 -80 -30 -116q-76 -110 -272 -202q-207 -98 -390 -97q-160 1 -257 76q-103 80 -103 221q0 165 141 412q32 0 62 -29q-37 -63 -63 -154q-22 -84 -22 -140q0 -106 73 -169t206 -62q129 1 286 65q165 67 291 177
q20 75 20 151q-47 -5 -132 -5q-147 0 -228 54q-11 64 -11 115q0 208 164 340q253 -58 273 -365h115q26 0 26 -30v-89zM1042 144q0 72 -64 140q-68 70 -145 70q-67 -55 -67 -164q75 -46 276 -46zM826 802l-100 -100l-100 100l100 98zM943 1003l-99 -99l-99 99l99 98z
M1061 802l-100 -100l-98 100l98 98z" />
    <glyph glyph-name="uni06AA.init" unicode="&#x6aa;" horiz-adv-x="1433" 
d="M557 842h-7q-19 13 -37 13q-60 0 -191 -118q-114 -105 -114 -157q0 -42 61 -68q55 -23 130 -23q149 0 367 17q163 12 223 12q204 0 300 -145q36 -62 36 -124q0 -29 -7 -61l-35 -115q-79 -4 -538 -40q-348 -29 -604 -33h-143q-26 0 -26 25v89q0 30 26 30h87q311 0 683 26
q366 26 478 30q-52 184 -255 184q-90 0 -289 -16q-227 -17 -333 -17q-123 0 -177 39q-62 45 -62 112q0 47 29 129q43 121 157 230q156 150 231 150q22 0 33 -16l-20 -149q-2 -1 -3 -4z" />
    <glyph glyph-name="uni06AA.medi" unicode="&#x6aa;" horiz-adv-x="1446" 
d="M559 846h-7q-19 14 -37 14q-62 0 -196 -119q-115 -105 -115 -157q0 -43 61 -69q56 -24 133 -24q152 0 376 17q164 12 225 12q208 0 306 -146q36 -62 36 -123q0 -29 -6 -62q30 -45 89 -45h27q25 0 25 -30v-89q0 -25 -25 -25h-40v1q-63 5 -112 72q-81 -3 -548 -40
q-356 -29 -618 -33h-144q-26 0 -26 25v89q0 30 26 30h90q316 0 695 27q374 26 487 29q-53 185 -259 185q-95 0 -304 -15q-224 -17 -330 -17q-125 0 -181 39q-64 45 -64 113q0 47 30 129q45 121 161 231q158 152 235 152q16 0 27 -9l-16 -160q-1 -1 -1 -2z" />
    <glyph glyph-name="uni06AA.fina" unicode="&#x6aa;" horiz-adv-x="1595" 
d="M691 842q-20 13 -38 13q-62 0 -197 -119q-116 -105 -116 -156q0 -42 62 -69q56 -23 134 -23q153 0 376 17q167 12 229 12q209 0 309 -146q36 -62 36 -124q0 -27 -7 -61q28 -42 90 -42h26q26 0 26 -30v-89q0 -25 -26 -25h-37q-68 5 -115 71q-94 -4 -472 -38
q-341 -33 -541 -33q-125 0 -221 17l-147 148l7 17q118 -38 343 -38q151 0 502 25q376 25 491 29q-54 185 -262 185q-93 0 -303 -17q-228 -16 -334 -16q-127 0 -183 39q-64 45 -64 112q0 47 31 129q43 121 161 231q159 150 237 150q22 0 32 -15l-24 -154h-5z" />
    <glyph glyph-name="uni06AB.init" unicode="&#x6ab;" horiz-adv-x="828" 
d="M691 942q-31 -6 -78.5 -19.5t-103.5 -31t-115.5 -37.5t-114 -40t-99.5 -39t-71 -33q100 -46 168.5 -91t113 -89t67.5 -87t33 -87q-2 -24 -5.5 -50.5t-7.5 -54.5t-9 -55t-9 -49q-49 -51 -97.5 -85t-103 -55t-115.5 -30t-135 -9h-20q-26 0 -26 25v89q0 17 6 23.5t20 6.5h52
q142 0 235 35.5t143 100.5q-2 37 -22.5 80.5t-65.5 91t-117.5 96t-179.5 94.5l18 200q64 28 134 56.5t141 56t140 52.5t130.5 45.5t113.5 36t88 23.5zM101 1052q60 30 122.5 58.5t124 54.5t120 48.5t108.5 40t89.5 29.5t64.5 17l-62 -100q-15 -4 -53.5 -17.5t-91 -33
t-113 -44t-120.5 -48.5t-114 -47t-92 -42z" />
    <glyph glyph-name="uni06AB.medi" unicode="&#x6ab;" horiz-adv-x="932" 
d="M71 842q64 28 140 57.5t155.5 57.5t158 53.5t148 47t126 37t91.5 23.5l-119 -171q-30 -6 -82 -20t-114.5 -32.5t-130 -39t-129 -41t-112 -39.5t-76.5 -33q80 -41 154.5 -88.5t152.5 -109t167.5 -143t200.5 -191.5q32 -32 64.5 -49t57.5 -17h20q15 0 21 -6.5t6 -23.5v-89
q0 -25 -27 -25h-20q-23 0 -44 4t-45 17t-53.5 38t-71 66.5t-96.5 103t-129 146.5l-4 -3q5 -23 7 -44.5t2 -38.5q0 -27 -4.5 -56.5t-9.5 -53.5q-47 -51 -95.5 -85t-102.5 -55t-116 -30t-137 -9h-36q-26 0 -26 25v89q0 17 6 23.5t20 6.5h73q141 0 234 35.5t143 100.5
q-3 37 -23.5 80.5t-65.5 91t-117.5 96t-180.5 94.5zM122 1043q58 30 125.5 59.5t136 55.5t135 50t123.5 42.5t101 31.5t69 18l-80 -106q-16 -3 -57 -17.5t-98 -34.5t-123.5 -44t-131.5 -49t-122 -48t-95 -42z" />
    <glyph glyph-name="uni06AB.fina" unicode="&#x6ab;" horiz-adv-x="1773" 
d="M1811 25q0 -25 -27 -25h-21q-23 0 -43.5 4t-44.5 17t-54 38t-71 66.5t-96 103t-129 146.5l-4 -3q5 -23 6.5 -44.5t1.5 -38.5q0 -27 -4 -56.5t-9 -53.5q-28 -35 -59.5 -63t-72.5 -49t-94 -36t-124.5 -24.5t-164.5 -13.5t-213 -4q-135 0 -230 21.5t-155.5 59.5t-88.5 88
t-28 107q0 70 29 145.5t76 155.5q3 2 14 2q9 0 22.5 -10t20.5 -22q-15 -26 -27 -53t-19.5 -52t-12 -46.5t-4.5 -37.5q0 -45 28 -82.5t83 -64.5t137.5 -41.5t191.5 -14.5q153 0 264.5 8t189 25.5t125.5 42.5t75 60q-3 37 -23.5 80.5t-65.5 91t-118 96t-180 94.5l19 200
q64 28 140 57.5t155.5 57.5t158 53.5t148 47t126 37t91.5 23.5l-119 -171q-30 -6 -82 -20t-115 -32.5t-130 -39t-129 -41t-112 -39.5t-76 -33q80 -41 154 -88.5t152.5 -109t167.5 -143t200 -191.5q32 -32 65 -49t57 -17h21q14 0 20.5 -6.5t6.5 -23.5v-89zM962 1043
q58 30 125.5 59.5t136 55.5t135 50t123.5 42.5t101 31.5t69 18l-80 -106q-16 -3 -57 -17.5t-98 -34.5t-123.5 -44t-131.5 -49t-122.5 -48t-95.5 -42z" />
    <glyph glyph-name="uni06AC.init" unicode="&#x6ac;" horiz-adv-x="828" 
d="M799 1285l-73 -176q-82 -31 -312 -160q-234 -130 -303 -186q338 -192 380 -375q-10 -109 -31 -209q-96 -99 -198.5 -139t-252.5 -40h-20q-26 0 -26 25v89q0 30 26 30h52q274 0 378 136q-7 90 -82 168q-87 90 -303 209l22 207q129 94 377 236q253 144 366 185zM222 1166
l-99 99l99 99l99 -99z" />
    <glyph glyph-name="uni06AC.medi" unicode="&#x6ac;" horiz-adv-x="932" 
d="M971 25q0 -25 -27 -25h-20q-72 0 -142 59q-82 68 -297 316l-4 -3q9 -40 9 -83q0 -54 -14 -110q-94 -99 -199 -140q-100 -39 -252 -39h-36q-26 0 -26 25v89q0 30 26 30h73q274 0 377 136q-6 90 -82 168q-87 90 -303 209l23 207q129 94 377 236q253 144 365 185l-73 -176
q-82 -31 -311 -160q-234 -130 -304 -186q165 -100 307 -217q138 -115 361 -337q66 -65 125 -65h20q27 0 27 -30v-89zM222 1166l-99 99l99 99l99 -99z" />
    <glyph glyph-name="uni06AC.fina" unicode="&#x6ac;" horiz-adv-x="1394" 
d="M1432 25q0 -25 -27 -25h-20q-150 0 -190 137q-367 -167 -704 -167q-202 0 -307 73q-98 69 -98 192q0 132 87 283q34 0 57 -33q-45 -72 -45 -168q0 -192 336 -192q143 0 340 36q189 34 305 78l-57 873l106 173q9 -594 41 -996q12 -145 129 -145h20q27 0 27 -30v-89z
M901 944l-41 -127q-140 -19 -240 -71q118 -29 210 -117l-18 -136q-92 -83 -317 -109l36 114q145 0 240 54q-23 26 -86 63q-69 39 -125 55l19 138q103 80 322 136zM1164 1366l-99 98l99 99l99 -99z" />
    <glyph glyph-name="uni06AE.init" unicode="&#x6ae;" horiz-adv-x="828" 
d="M799 1285l-73 -176q-82 -31 -312 -160q-234 -130 -303 -186q338 -192 380 -375q-10 -109 -31 -209q-96 -99 -198.5 -139t-252.5 -40h-20q-26 0 -26 25v89q0 30 26 30h52q274 0 378 136q-7 90 -82 168q-87 90 -303 209l22 207q129 94 377 236q253 144 366 185zM354 -444
l-99 -99l-99 99l99 99zM471 -242l-99 -100l-98 100l98 98zM236 -242l-99 -100l-98 100l98 98z" />
    <glyph glyph-name="uni06AE.medi" unicode="&#x6ae;" horiz-adv-x="932" 
d="M971 25q0 -25 -27 -25h-20q-72 0 -142 59q-82 68 -297 316l-4 -3q9 -40 9 -83q0 -54 -14 -110q-94 -99 -199 -140q-100 -39 -252 -39h-36q-26 0 -26 25v89q0 30 26 30h73q274 0 377 136q-6 90 -82 168q-87 90 -303 209l23 207q129 94 377 236q253 144 365 185l-73 -176
q-82 -31 -311 -160q-234 -130 -304 -186q165 -100 307 -217q138 -115 361 -337q66 -65 125 -65h20q27 0 27 -30v-89zM408 -444l-99 -99l-98 99l98 99zM526 -242l-99 -100l-99 100l99 98zM291 -242l-99 -100l-99 100l99 98z" />
    <glyph glyph-name="uni06AE.fina" unicode="&#x6ae;" horiz-adv-x="1394" 
d="M1432 25q0 -25 -27 -25h-20q-150 0 -190 137q-367 -167 -704 -167q-202 0 -307 73q-98 69 -98 192q0 132 87 283q34 0 57 -33q-45 -72 -45 -168q0 -192 336 -192q143 0 340 36q189 34 305 78l-57 873l106 173q9 -594 41 -996q12 -145 129 -145h20q27 0 27 -30v-89z
M901 944l-41 -127q-140 -19 -240 -71q118 -29 210 -117l-18 -136q-92 -83 -317 -109l36 114q145 0 240 54q-23 26 -86 63q-69 39 -125 55l19 138q103 80 322 136zM736 -444l-100 -99l-98 99l98 99zM853 -242l-99 -100l-99 100l99 98zM618 -242l-99 -100l-99 100l99 98z" />
    <glyph glyph-name="uni06B0.init" unicode="&#x6b0;" horiz-adv-x="828" 
d="M101 1052q60 30 122.5 58.5t124 54.5t120 48.5t108.5 40t89.5 29.5t64.5 17l-62 -100q-15 -4 -53.5 -17.5t-91 -33t-113 -44t-120.5 -48.5t-114 -47t-92 -42zM412 860q-9 -4 -18 -6q-60 -20 -114.5 -40t-99.5 -39t-71 -33q100 -46 168.5 -91t113 -89t67.5 -87t33 -87
q-2 -24 -5.5 -50.5t-7.5 -54.5t-9 -55t-9 -49q-49 -51 -97.5 -85t-103 -55t-115.5 -30t-135 -9h-20q-26 0 -26 25v89q0 17 6 23.5t20 6.5h52q142 0 235 35.5t143 100.5q-2 37 -22.5 80.5t-65.5 91t-117.5 96t-179.5 94.5l18 200q64 28 134 56.5t141 56t140 52.5t130.5 45.5
t113.5 36t88 23.5l-108 -170q-31 -6 -78 -19l-12 -4q63 -63 64 -139q-11 -54 -44 -111q-69 -39 -130 -39q-47 0 -79 24q-34 27 -34 72q0 50 34 134zM509 891q-20 -6 -40 -13l-17 -36q-21 -48 -22 -80q0 -20 23.5 -35t61.5 -15q26 0 57.5 10.5t46.5 24.5q0 36 -32 78
q-30 39 -78 66z" />
    <glyph glyph-name="uni06B0.medi" unicode="&#x6b0;" horiz-adv-x="932" 
d="M122 1043q58 30 125.5 59.5t136 55.5t135 50t123.5 42.5t101 31.5t69 18l-80 -106q-16 -3 -57 -17.5t-98 -34.5t-123.5 -44t-131.5 -49t-122 -48t-95 -42zM458 859q-7 -2 -13 -4q-68 -20 -129.5 -40.5t-112 -39.5t-76.5 -33q80 -41 154.5 -88.5t152.5 -109t167.5 -143
t200.5 -191.5q32 -32 64.5 -49t57.5 -17h20q15 0 21 -6.5t6 -23.5v-89q0 -25 -27 -25h-20q-23 0 -44 4t-45 17t-53.5 38t-71 66.5t-96.5 103t-129 146.5l-4 -3q5 -23 7 -44.5t2 -38.5q0 -27 -4.5 -56.5t-9.5 -53.5q-47 -51 -95.5 -85t-102.5 -55t-116 -30t-137 -9h-36
q-26 0 -26 25v89q0 17 6 23.5t20 6.5h73q141 0 234 35.5t143 100.5q-3 37 -23.5 80.5t-65.5 91t-117.5 96t-180.5 94.5l19 200q64 28 140 57.5t155.5 57.5t158 53.5t148 47t126 37t91.5 23.5l-119 -171q-30 -6 -82 -20q-19 -5 -40 -11q60 -61 62 -136q-12 -54 -45 -111
q-68 -39 -129 -39q-47 0 -79 24q-35 27 -34 72q0 50 34 133zM557 889q-22 -6 -44 -13l-15 -34q-21 -48 -22 -80q0 -20 23 -35t62 -15q25 0 57 10.5t46 24.5q0 36 -31 78q-30 38 -76 64z" />
    <glyph glyph-name="uni06B0.fina" unicode="&#x6b0;" horiz-adv-x="1773" 
d="M962 1043q58 30 125.5 59.5t136 55.5t135 50t123.5 42.5t101 31.5t69 18l-80 -106q-16 -3 -57 -17.5t-98 -34.5t-123.5 -44t-131.5 -49t-122.5 -48t-95.5 -42zM1295 859q-6 -2 -11 -4q-67 -20 -129 -40.5t-112 -39.5t-76 -33q80 -41 154 -88.5t152.5 -109t167.5 -143
t200 -191.5q32 -32 65 -49t57 -17h21q14 0 20.5 -6.5t6.5 -23.5v-89q0 -25 -27 -25h-21q-23 0 -43.5 4t-44.5 17t-54 38t-71 66.5t-96 103t-129 146.5l-4 -3q5 -23 6.5 -44.5t1.5 -38.5q0 -27 -4 -56.5t-9 -53.5q-28 -35 -59.5 -63t-72.5 -49t-94 -36t-124.5 -24.5
t-164.5 -13.5t-213 -4q-135 0 -230 21.5t-155.5 59.5t-88.5 88t-28 107q0 70 29 145.5t76 155.5q3 2 14 2q9 0 22.5 -10t20.5 -22q-15 -26 -27 -53t-19.5 -52t-12 -46.5t-4.5 -37.5q0 -45 28 -82.5t83 -64.5t137.5 -41.5t191.5 -14.5q153 0 264.5 8t189 25.5t125.5 42.5
t75 60q-3 37 -23.5 80.5t-65.5 91t-118 96t-180 94.5l19 200q64 28 140 57.5t155.5 57.5t158 53.5t148 47t126 37t91.5 23.5l-119 -171q-30 -6 -82 -20q-20 -6 -42 -11q59 -62 61 -136q-12 -54 -44 -111q-69 -39 -130 -39q-47 0 -79 24q-35 27 -34 72q0 49 34 133zM1395 889
q-22 -6 -45 -13l-15 -34q-21 -48 -22 -80q0 -20 23.5 -35t61.5 -15q25 0 57 10.5t47 24.5q0 36 -32 78q-29 38 -75 64z" />
    <glyph glyph-name="uni06B2.init" unicode="&#x6b2;" horiz-adv-x="828" 
d="M691 942q-31 -6 -78.5 -19.5t-103.5 -31t-115.5 -37.5t-114 -40t-99.5 -39t-71 -33q100 -46 168.5 -91t113 -89t67.5 -87t33 -87q-2 -24 -5.5 -50.5t-7.5 -54.5t-9 -55t-9 -49q-49 -51 -97.5 -85t-103 -55t-115.5 -30t-135 -9h-20q-26 0 -26 25v89q0 17 6 23.5t20 6.5h52
q142 0 235 35.5t143 100.5q-2 37 -22.5 80.5t-65.5 91t-117.5 96t-179.5 94.5l18 200q64 28 134 56.5t141 56t140 52.5t130.5 45.5t113.5 36t88 23.5zM101 1052q60 30 122.5 58.5t124 54.5t120 48.5t108.5 40t89.5 29.5t64.5 17l-62 -100q-15 -4 -53.5 -17.5t-91 -33
t-113 -44t-120.5 -48.5t-114 -47t-92 -42zM471 -242l-99 -100l-98 100l98 98zM236 -242l-99 -100l-98 100l98 98z" />
    <glyph glyph-name="uni06B2.medi" unicode="&#x6b2;" horiz-adv-x="932" 
d="M71 842q64 28 140 57.5t155.5 57.5t158 53.5t148 47t126 37t91.5 23.5l-119 -171q-30 -6 -82 -20t-114.5 -32.5t-130 -39t-129 -41t-112 -39.5t-76.5 -33q80 -41 154.5 -88.5t152.5 -109t167.5 -143t200.5 -191.5q32 -32 64.5 -49t57.5 -17h20q15 0 21 -6.5t6 -23.5v-89
q0 -25 -27 -25h-20q-23 0 -44 4t-45 17t-53.5 38t-71 66.5t-96.5 103t-129 146.5l-4 -3q5 -23 7 -44.5t2 -38.5q0 -27 -4.5 -56.5t-9.5 -53.5q-47 -51 -95.5 -85t-102.5 -55t-116 -30t-137 -9h-36q-26 0 -26 25v89q0 17 6 23.5t20 6.5h73q141 0 234 35.5t143 100.5
q-3 37 -23.5 80.5t-65.5 91t-117.5 96t-180.5 94.5zM122 1043q58 30 125.5 59.5t136 55.5t135 50t123.5 42.5t101 31.5t69 18l-80 -106q-16 -3 -57 -17.5t-98 -34.5t-123.5 -44t-131.5 -49t-122 -48t-95 -42zM526 -242l-99 -100l-99 100l99 98zM291 -242l-99 -100l-99 100
l99 98z" />
    <glyph glyph-name="uni06B2.fina" unicode="&#x6b2;" horiz-adv-x="1773" 
d="M1811 25q0 -25 -27 -25h-21q-23 0 -43.5 4t-44.5 17t-54 38t-71 66.5t-96 103t-129 146.5l-4 -3q5 -23 6.5 -44.5t1.5 -38.5q0 -27 -4 -56.5t-9 -53.5q-28 -35 -59.5 -63t-72.5 -49t-94 -36t-124.5 -24.5t-164.5 -13.5t-213 -4q-135 0 -230 21.5t-155.5 59.5t-88.5 88
t-28 107q0 70 29 145.5t76 155.5q3 2 14 2q9 0 22.5 -10t20.5 -22q-15 -26 -27 -53t-19.5 -52t-12 -46.5t-4.5 -37.5q0 -45 28 -82.5t83 -64.5t137.5 -41.5t191.5 -14.5q153 0 264.5 8t189 25.5t125.5 42.5t75 60q-3 37 -23.5 80.5t-65.5 91t-118 96t-180 94.5l19 200
q64 28 140 57.5t155.5 57.5t158 53.5t148 47t126 37t91.5 23.5l-119 -171q-30 -6 -82 -20t-115 -32.5t-130 -39t-129 -41t-112 -39.5t-76 -33q80 -41 154 -88.5t152.5 -109t167.5 -143t200 -191.5q32 -32 65 -49t57 -17h21q14 0 20.5 -6.5t6.5 -23.5v-89zM962 1043
q58 30 125.5 59.5t136 55.5t135 50t123.5 42.5t101 31.5t69 18l-80 -106q-16 -3 -57 -17.5t-98 -34.5t-123.5 -44t-131.5 -49t-122.5 -48t-95.5 -42zM908 -242l-100 -100l-98 100l98 98zM673 -242l-100 -100l-98 100l98 98z" />
    <glyph glyph-name="uni06B4.init" unicode="&#x6b4;" horiz-adv-x="828" 
d="M691 942q-31 -6 -78.5 -19.5t-103.5 -31t-115.5 -37.5t-114 -40t-99.5 -39t-71 -33q100 -46 168.5 -91t113 -89t67.5 -87t33 -87q-2 -24 -5.5 -50.5t-7.5 -54.5t-9 -55t-9 -49q-49 -51 -97.5 -85t-103 -55t-115.5 -30t-135 -9h-20q-26 0 -26 25v89q0 17 6 23.5t20 6.5h52
q142 0 235 35.5t143 100.5q-2 37 -22.5 80.5t-65.5 91t-117.5 96t-179.5 94.5l18 200q64 28 134 56.5t141 56t140 52.5t130.5 45.5t113.5 36t88 23.5zM101 1052q60 30 122.5 58.5t124 54.5t120 48.5t108.5 40t89.5 29.5t64.5 17l-62 -100q-15 -4 -53.5 -17.5t-91 -33
t-113 -44t-120.5 -48.5t-114 -47t-92 -42zM240 1476l-98 98l98 100l99 -100zM357 1275l-98 98l98 99l100 -99zM122 1275l-98 98l98 99l100 -99z" />
    <glyph glyph-name="uni06B4.medi" unicode="&#x6b4;" horiz-adv-x="932" 
d="M71 842q64 28 140 57.5t155.5 57.5t158 53.5t148 47t126 37t91.5 23.5l-119 -171q-30 -6 -82 -20t-114.5 -32.5t-130 -39t-129 -41t-112 -39.5t-76.5 -33q80 -41 154.5 -88.5t152.5 -109t167.5 -143t200.5 -191.5q32 -32 64.5 -49t57.5 -17h20q15 0 21 -6.5t6 -23.5v-89
q0 -25 -27 -25h-20q-23 0 -44 4t-45 17t-53.5 38t-71 66.5t-96.5 103t-129 146.5l-4 -3q5 -23 7 -44.5t2 -38.5q0 -27 -4.5 -56.5t-9.5 -53.5q-47 -51 -95.5 -85t-102.5 -55t-116 -30t-137 -9h-36q-26 0 -26 25v89q0 17 6 23.5t20 6.5h73q141 0 234 35.5t143 100.5
q-3 37 -23.5 80.5t-65.5 91t-117.5 96t-180.5 94.5zM122 1043q58 30 125.5 59.5t136 55.5t135 50t123.5 42.5t101 31.5t69 18l-80 -106q-16 -3 -57 -17.5t-98 -34.5t-123.5 -44t-131.5 -49t-122 -48t-95 -42zM240 1476l-98 98l98 100l99 -100zM357 1275l-98 98l98 99
l100 -99zM122 1275l-98 98l98 99l100 -99z" />
    <glyph glyph-name="uni06B4.fina" unicode="&#x6b4;" horiz-adv-x="1773" 
d="M1811 25q0 -25 -27 -25h-21q-23 0 -43.5 4t-44.5 17t-54 38t-71 66.5t-96 103t-129 146.5l-4 -3q5 -23 6.5 -44.5t1.5 -38.5q0 -27 -4 -56.5t-9 -53.5q-28 -35 -59.5 -63t-72.5 -49t-94 -36t-124.5 -24.5t-164.5 -13.5t-213 -4q-135 0 -230 21.5t-155.5 59.5t-88.5 88
t-28 107q0 70 29 145.5t76 155.5q3 2 14 2q9 0 22.5 -10t20.5 -22q-15 -26 -27 -53t-19.5 -52t-12 -46.5t-4.5 -37.5q0 -45 28 -82.5t83 -64.5t137.5 -41.5t191.5 -14.5q153 0 264.5 8t189 25.5t125.5 42.5t75 60q-3 37 -23.5 80.5t-65.5 91t-118 96t-180 94.5l19 200
q64 28 140 57.5t155.5 57.5t158 53.5t148 47t126 37t91.5 23.5l-119 -171q-30 -6 -82 -20t-115 -32.5t-130 -39t-129 -41t-112 -39.5t-76 -33q80 -41 154 -88.5t152.5 -109t167.5 -143t200 -191.5q32 -32 65 -49t57 -17h21q14 0 20.5 -6.5t6.5 -23.5v-89zM962 1043
q58 30 125.5 59.5t136 55.5t135 50t123.5 42.5t101 31.5t69 18l-80 -106q-16 -3 -57 -17.5t-98 -34.5t-123.5 -44t-131.5 -49t-122.5 -48t-95.5 -42zM1068 1476l-98 98l98 100l99 -100zM1186 1275l-99 98l99 99l99 -99zM951 1275l-99 98l99 99l99 -99z" />
    <glyph glyph-name="uni06B5.init" unicode="&#x6b5;" horiz-adv-x="414" 
d="M314 1022q-48 10 -79 32q32 -418 32 -796q0 -72 -70 -156q-86 -102 -208 -102q-26 0 -26 25v89q0 30 26 30h43q87 0 144 63q0 346 -25 625q-23 252 -54 325h-4l103 128q17 -52 56 -143q42 -92 62 -120zM26 1642l167 -151l168 151h48l-175 -240h-81l-176 240h49z" />
    <glyph glyph-name="uni06B5.medi" unicode="&#x6b5;" horiz-adv-x="414" 
d="M452 25q0 -25 -26 -25h-21q-51 0 -99 34q-53 36 -74 98q-86 -132 -203 -132h-40q-26 0 -26 25v89q0 30 26 30h41q108 0 163 71l-64 897l106 173q10 -594 41 -996q12 -145 129 -145h21q26 0 26 -30v-89zM35 1642l168 -151l167 151h49l-176 -240h-80l-177 240h49z" />
    <glyph glyph-name="uni06B5.fina" unicode="&#x6b5;" horiz-adv-x="1143" 
d="M1180 26q0 -24 -26 -24h-21q-88 0 -128 99h-5v-202q-36 -136 -82 -239q-101 -81 -234.5 -129t-256.5 -48q-169 1 -266.5 72t-97.5 195q0 71 29 179q27 97 57 155q34 0 57 -34q-45 -83 -45 -199q0 -213 310 -213q224 0 454 166l-62 1308l106 173q10 -594 41 -994
q12 -145 123 -145h21q26 0 26 -30v-90zM754 1642l167 -151l168 151h48l-176 -240h-80l-177 240h50z" />
    <glyph glyph-name="uni06B6.init" unicode="&#x6b6;" horiz-adv-x="414" 
d="M314 1022q-48 10 -79 32q32 -418 32 -796q0 -72 -70 -156q-86 -102 -208 -102q-26 0 -26 25v89q0 30 26 30h43q87 0 144 63q0 346 -25 625q-23 252 -54 325h-4l103 128q17 -52 56 -143q42 -92 62 -120zM201 1405l-99 98l99 100l99 -100z" />
    <glyph glyph-name="uni06B6.medi" unicode="&#x6b6;" horiz-adv-x="414" 
d="M452 25q0 -25 -26 -25h-21q-51 0 -99 34q-53 36 -74 98q-86 -132 -203 -132h-40q-26 0 -26 25v89q0 30 26 30h41q108 0 163 71l-64 897l106 173q10 -594 41 -996q12 -145 129 -145h21q26 0 26 -30v-89zM201 1405l-99 98l99 100l99 -100z" />
    <glyph glyph-name="uni06B6.fina" unicode="&#x6b6;" horiz-adv-x="1143" 
d="M1180 26q0 -24 -26 -24h-21q-88 0 -128 99h-5v-202q-36 -136 -82 -239q-101 -81 -234.5 -129t-256.5 -48q-169 1 -266.5 72t-97.5 195q0 71 29 179q27 97 57 155q34 0 57 -34q-45 -83 -45 -199q0 -213 310 -213q224 0 454 166l-62 1308l106 173q10 -594 41 -994
q12 -145 123 -145h21q26 0 26 -30v-90zM901 1405l-98 98l98 100l99 -100z" />
    <glyph glyph-name="uni06B7.init" unicode="&#x6b7;" horiz-adv-x="414" 
d="M314 1022q-48 10 -79 32q32 -418 32 -796q0 -72 -70 -156q-86 -102 -208 -102q-26 0 -26 25v89q0 30 26 30h43q87 0 144 63q0 346 -25 625q-23 252 -54 325h-4l103 128q17 -52 56 -143q42 -92 62 -120zM201 1605l-99 99l99 99l99 -99zM318 1404l-98 98l98 100l100 -100z
M83 1404l-98 98l98 100l100 -100z" />
    <glyph glyph-name="uni06B7.medi" unicode="&#x6b7;" horiz-adv-x="414" 
d="M452 25q0 -25 -26 -25h-21q-51 0 -99 34q-53 36 -74 98q-86 -132 -203 -132h-40q-26 0 -26 25v89q0 30 26 30h41q108 0 163 71l-64 897l106 173q10 -594 41 -996q12 -145 129 -145h21q26 0 26 -30v-89zM201 1605l-99 99l99 99l99 -99zM318 1404l-98 98l98 100l100 -100z
M83 1404l-98 98l98 100l100 -100z" />
    <glyph glyph-name="uni06B7.fina" unicode="&#x6b7;" horiz-adv-x="1143" 
d="M1180 26q0 -24 -26 -24h-21q-88 0 -128 99h-5v-202q-36 -136 -82 -239q-101 -81 -234.5 -129t-256.5 -48q-169 1 -266.5 72t-97.5 195q0 71 29 179q27 97 57 155q34 0 57 -34q-45 -83 -45 -199q0 -213 310 -213q224 0 454 166l-62 1308l106 173q10 -594 41 -994
q12 -145 123 -145h21q26 0 26 -30v-90zM901 1605l-98 99l98 99l99 -99zM1019 1404l-99 98l99 100l99 -100zM784 1404l-99 98l99 100l99 -100z" />
    <glyph glyph-name="uni06B8.init" unicode="&#x6b8;" horiz-adv-x="455" 
d="M350 1022q-47 10 -78 32q32 -418 32 -796q0 -72 -70 -156q-87 -102 -245 -102q-26 0 -26 25v89q0 30 26 30h80q86 0 144 63q0 346 -26 625q-23 252 -54 325h-3l103 128q16 -52 55 -143q42 -92 62 -120zM336 -444l-100 -99l-98 99l98 99zM453 -242l-99 -100l-99 100l99 98
zM218 -242l-99 -100l-99 100l99 98z" />
    <glyph glyph-name="uni06B8.medi" unicode="&#x6b8;" horiz-adv-x="452" 
d="M489 25q0 -25 -27 -25h-57q-51 0 -99 34q-53 36 -74 98q-86 -132 -203 -132h-40q-26 0 -26 25v89q0 30 26 30h41q108 0 163 71l-64 897l106 173q10 -594 41 -996q12 -145 129 -145h57q27 0 27 -30v-89zM327 -444l-100 -99l-98 99l98 99zM444 -242l-99 -100l-99 100l99 98
zM209 -242l-99 -100l-99 100l99 98z" />
    <glyph glyph-name="uni06B8.fina" unicode="&#x6b8;" horiz-adv-x="1143" 
d="M1180 26q0 -24 -26 -24h-21q-88 0 -128 99h-5v-202q-36 -136 -82 -239q-101 -81 -234.5 -129t-256.5 -48q-169 1 -266.5 72t-97.5 195q0 71 29 179q27 97 57 155q34 0 57 -34q-45 -83 -45 -199q0 -213 310 -213q224 0 454 166l-62 1308l106 173q10 -594 41 -994
q12 -145 123 -145h21q26 0 26 -30v-90zM644 -908l-99 -100l-98 100l98 98zM762 -707l-100 -99l-98 99l98 98zM527 -707l-100 -99l-98 99l98 98z" />
    <glyph glyph-name="uni06B9.init" unicode="&#x6b9;" horiz-adv-x="414" 
d="M330 899l-111 -112l-126 105l114 114zM330 285q-23 -124 -106 -202q-89 -83 -215 -83h-20q-26 0 -26 25v89q0 30 26 30h49q153 0 201 102q-15 79 -91 151l76 182q91 -143 106 -294zM328 -282l-111 -112l-126 105l114 113z" />
    <glyph glyph-name="uni06B9.medi" unicode="&#x6b9;" horiz-adv-x="414" 
d="M327 780l-112 -112l-125 105l114 113zM452 25q0 -25 -26 -25h-21q-78 0 -132 43q-52 39 -56 91h-8q-13 -58 -77 -98q-58 -36 -123 -36h-20q-26 0 -26 25v89q0 30 26 30h20q80 0 128 55q46 52 46 134v31q10 8 30 8q21 0 35 -10v-32q0 -110 39 -151q35 -35 118 -35h21
q26 0 26 -30v-89zM327 -282l-112 -112l-125 105l114 113z" />
    <glyph glyph-name="uni06B9.fina" unicode="&#x6b9;" horiz-adv-x="1157" 
d="M725 589l-112 -112l-125 105l113 114zM1194 25q0 -25 -27 -25h-21q-53 0 -93 43l-3 -4q26 -68 26 -153q-15 -92 -62 -207q-86 -85 -245 -150q-177 -72 -346 -72q-160 0 -257 76q-103 80 -103 221q0 165 141 412q32 0 62 -29q-37 -63 -63 -154q-22 -84 -22 -140
q0 -106 73 -169t206 -62q315 2 543 210q-24 233 -147 422l63 187q129 -287 227 -287h21q27 0 27 -30v-89zM722 -797l-111 -112l-126 105l114 113z" />
    <glyph glyph-name="uni06BC.init" unicode="&#x6bc;" horiz-adv-x="518" 
d="M215 26q-45 -26 -93 -26h-19q-22 -57 -22 -94q0 -24 25 -41t67 -17q29 0 64.5 12t50.5 30q0 43 -34 93q-17 22 -39 43zM51 0h-62q-26 0 -26 25v89q0 30 26 30h49q209 0 258 102q-17 79 -92 151l76 182q90 -143 107 -294q-23 -118 -100 -201q-2 -3 -5 -6q56 -68 58 -149
q-13 -65 -49 -132q-75 -48 -142 -48q-53 0 -89 30q-38 32 -38 85q0 52 29 136zM330 899l-111 -112l-126 105l114 114z" />
    <glyph glyph-name="uni06BC.medi" unicode="&#x6bc;" horiz-adv-x="647" 
d="M255 16q-41 -16 -84 -16h-37q-23 -57 -23 -94q0 -24 25 -41t68 -17q29 0 64.5 12t50.5 30q0 43 -35 93q-12 18 -29 33zM82 0h-84q-26 0 -26 25v89q0 30 26 30h130q217 0 217 189v31q10 8 30 8q21 0 34 -10v-32q0 -112 48 -151q43 -35 171 -35h21q25 0 25 -30v-89
q0 -25 -25 -25h-21q-118 0 -187 43q-58 36 -63 91h-8q-9 -41 -44 -73q43 -61 45 -132q-13 -65 -49 -132q-75 -48 -142 -48q-53 0 -90 30q-37 32 -37 85q0 52 29 136zM454 780l-111 -112l-126 105l114 113z" />
    <glyph glyph-name="uni06BC.fina" unicode="&#x6bc;" horiz-adv-x="1157" 
d="M725 589l-112 -112l-125 105l113 114zM639 -515q-69 -17 -136 -24q-16 -46 -16 -78q0 -24 25 -41t68 -17q28 0 63.5 12.5t50.5 29.5q0 44 -34 93q-10 13 -21 25zM451 -542q-14 -1 -28 -1q-160 0 -257 76q-103 80 -103 221q0 165 141 412q32 0 62 -29q-37 -63 -63 -154
q-22 -84 -22 -140q0 -106 73 -169t206 -62q315 2 543 210q-24 233 -147 422l63 187q129 -287 227 -287h21q27 0 27 -30v-89q0 -25 -27 -25h-21q-53 0 -93 43l-3 -4q26 -68 26 -153q-15 -92 -62 -207q-86 -85 -245 -150q-25 -10 -50 -19q26 -49 27 -104q-12 -65 -49 -132
q-75 -47 -142 -47q-53 0 -89 29q-38 32 -38 85q0 46 23 117z" />
    <glyph glyph-name="uni06BD.init" unicode="&#x6bd;" horiz-adv-x="518" 
d="M357 988l-99 -98l-99 98l99 100zM474 787l-98 -98l-100 98l100 99zM239 787l-98 -98l-101 98l101 99zM387 285q-23 -118 -100 -201.5t-165 -83.5h-133q-26 0 -26 25v89q0 30 26 30h49q209 0 258 102q-17 79 -92 151l76 182q90 -143 107 -294z" />
    <glyph glyph-name="uni06BD.medi" unicode="&#x6bd;" horiz-adv-x="518" 
d="M342 824l-99 -98l-99 98l99 100zM460 623l-100 -99l-98 99l98 99zM224 623l-99 -99l-100 99l100 99zM556 25q0 -25 -25 -25h-21q-119 0 -187 43q-58 36 -63 91h-8q-13 -58 -77 -98q-58 -36 -123 -36h-63q-26 0 -26 25v89q0 30 26 30h20q217 0 217 189v31q10 8 30 8
q21 0 35 -10v-32q0 -112 47 -151q44 -35 172 -35h21q25 0 25 -30v-89z" />
    <glyph glyph-name="uni06BD.fina" unicode="&#x6bd;" horiz-adv-x="1157" 
d="M1194 25q0 -25 -27 -25h-21q-53 0 -93 43l-3 -4q26 -68 26 -153q-15 -92 -62 -207q-86 -85 -245 -150q-177 -72 -346 -72q-160 0 -257 76q-103 80 -103 221q0 165 141 412q32 0 62 -29q-37 -63 -63 -154q-22 -84 -22 -140q0 -106 73 -169t206 -62q315 2 543 210
q-24 233 -147 422l63 187q129 -287 227 -287h21q27 0 27 -30v-89zM711 697l-99 -98l-99 98l99 99zM828 496l-98 -99l-99 99l99 99zM593 496l-98 -99l-101 99l101 99z" />
    <glyph glyph-name="uni06BF.init" unicode="&#x6bf;" horiz-adv-x="966" 
d="M499 995l-112 -112l-125 104l114 114zM903 310l-80 -129q-47 15 -100 15q-70 0 -260 -84q-252 -112 -454 -112h-20q-26 0 -26 25v89q0 30 26 30h20q147 0 357 57q78 25 215 66v4q-65 19 -223 140q-138 106 -178 106q-31 0 -92 -108q-25 3 -50 27l89 159q37 65 92 65
q50 0 282 -183q119 -93 196 -128q90 -39 206 -39zM499 -444l-100 -99l-98 99l98 99zM616 -242l-99 -100l-98 100l98 98zM381 -242l-99 -100l-99 100l99 98z" />
    <glyph glyph-name="uni06BF.medi" unicode="&#x6bf;" horiz-adv-x="1139" 
d="M726 968l-112 -113l-124 104l113 114zM1177 25q0 -25 -25 -25q-355 0 -355 262q0 30 0.5 53t2.5 44q-19 -13 -49.5 -34.5t-68.5 -48.5t-82.5 -59t-91.5 -64q-112 -76 -237.5 -114.5t-271.5 -38.5h-10q-26 0 -26 25v89q0 30 26 30h10q116 0 227.5 27.5t216.5 86.5
q48 27 82.5 47t59 34t41.5 24t29 16v4q-12 0 -29 2t-43 9t-63 19.5t-89 33.5q-207 84 -220 84q-36 0 -86 -124q-28 0 -56 21l76 164q38 82 92 82q31 0 142 -49q38 -17 68 -30t54 -23t44 -17t38 -14q144 -50 259 -50q90 0 248 36l-66 -150q-58 -2 -99 -5t-65 -8
q3 -35 7.5 -61t11 -45.5t16.5 -34t24 -27.5q57 -52 212 -52h21q25 0 25 -30v-89zM726 -444l-99 -99l-98 99l98 99zM844 -242l-99 -100l-99 100l99 98zM609 -242l-99 -100l-99 100l99 98z" />
    <glyph glyph-name="uni06BF.fina" unicode="&#x6bf;" horiz-adv-x="1045" 
d="M765 974l-111 -112l-126 105l114 113zM1088 -383l-101 -117q-211 -43 -367 -43q-229 0 -384 99q-168 109 -168 289q0 190 165 348q143 138 366 216v4q-156 26 -270 64q-56 20 -84 20q-36 0 -86 -118q-35 0 -56 18l78 164q38 79 90 79q5 0 216 -60t297 -60q114 0 248 34
l-65 -148q-84 0 -163 -16q0 -129 51 -185q54 -61 181 -61h20q27 0 27 -30v-89q0 -25 -27 -25h-20q-297 0 -297 285q0 28 6 96q-207 -42 -363 -171q-167 -138 -167 -294q0 -154 150 -245q145 -89 374 -89q127 0 349 35zM642 -205l-98 -99l-100 99l100 98zM759 -4l-98 -99
l-99 99l99 99zM524 -4l-98 -99l-99 99l99 99z" />
    <glyph glyph-name="uni06C2.fina" unicode="&#x6c2;" horiz-adv-x="760" 
d="M798 25q0 -25 -27 -25h-28q-60 0 -106.5 17t-82 54.5t-62.5 98.5t-47 151q-69 -16 -126 -44.5t-115 -67.5q-30 -20 -59 -49.5t-45 -58.5q-18 0 -23 10l46 170q36 33 74.5 62.5t84.5 54.5t100 46t120 38q15 -88 31.5 -151t42.5 -105t65 -62t100 -20h30q15 0 21 -6.5
t6 -23.5v-89zM511 771q-26 -5 -63 -16.5t-77 -26t-78.5 -31t-67.5 -33.5v66q18 10 42.5 20.5t54.5 17.5v4q-81 29 -81 104q85 128 169 128q54 0 90 -58l-54 -42q-19 18 -36.5 26t-30.5 8q-39 0 -81 -57q30 -65 104 -67q27 7 59 16.5t72 16.5z" />
    <glyph glyph-name="uni06C3.fina" unicode="&#x6c3;" horiz-adv-x="760" 
d="M798 25q0 -25 -27 -25h-28q-60 0 -106.5 17t-82 54.5t-62.5 98.5t-47 151q-69 -16 -126 -44.5t-115 -67.5q-30 -20 -59 -49.5t-45 -58.5q-18 0 -23 10l46 170q36 33 74.5 62.5t84.5 54.5t100 46t120 38q15 -88 31.5 -151t42.5 -105t65 -62t100 -20h30q15 0 21 -6.5
t6 -23.5v-89zM606 826l-112 -112l-125 105l114 114zM358 806l-112 -112l-125 105l114 113z" />
    <glyph glyph-name="uni06C4.fina" unicode="&#x6c4;" horiz-adv-x="668" 
d="M529 151q-5 77 -60.5 145.5t-128.5 77.5q-82 -70 -82 -189q71 -41 190 -41q32 0 81 7zM295 -306q61 46 107 96l-54 36q-43 29 -73 36q-19 3 -37 -16.5t-25 -55.5q-5 -26 -0.5 -58.5t15.5 -48.5q30 -6 67 11zM431 -178q83 99 93 185q-44 -7 -100 -7q-65 0 -147 20
q-77 18 -111 37q-7 49 -7 68q6 287 213 399q224 -66 237 -380h70q27 0 27 -30v-89q0 -25 -27 -25h-76q-52 -308 -336 -543q-132 9 -231 77q107 53 191 111q-37 19 -73 50q-27 73 -16 130q8 47 37 73q32 27 75 20q65 -12 181 -96z" />
    <glyph glyph-name="uni06CA.fina" unicode="&#x6ca;" horiz-adv-x="668" 
d="M706 25q0 -25 -27 -25h-76q-52 -308 -336 -543q-132 9 -231 77q242 123 372 262q105 113 116 211q-44 -7 -100 -7q-65 0 -147 20q-77 18 -111 37q-7 49 -7 68q6 287 213 399q224 -66 237 -380h70q27 0 27 -30v-89zM529 151q-5 77 -60.5 145.5t-128.5 77.5
q-82 -70 -82 -189q71 -41 190 -41q32 0 81 7zM602 753l-99 -99l-99 99l99 99zM367 753l-99 -99l-101 99l101 99z" />
    <glyph glyph-name="uni06CD.fina" unicode="&#x6cd;" horiz-adv-x="1351" 
d="M382 164q32 0 62 -30q-38 -62 -63 -153q-24 -84 -24 -140q0 -106 74 -167.5t207 -61.5q152 0 334 27q160 24 242 51q-10 53 -136 77q-99 18 -162 60q16 100 44 212q99 105 259 105h133q26 0 26 -30v-89q0 -25 -26 -25h-151q-151 0 -205 -73q34 -24 112 -41
q100 -22 135.5 -43t35.5 -62q0 -19 -13 -88q-13 -73 -24 -102q-116 -55 -292 -93q-186 -41 -350 -41q-160 0 -257 75q-103 79 -103 220q0 113 66 263q-167 -75 -242 -119l-6 8l36 122q173 87 288 138z" />
    <glyph glyph-name="uni06CE.init" unicode="&#x6ce;" horiz-adv-x="518" 
d="M387 285q-23 -118 -100 -201.5t-165 -83.5h-133q-26 0 -26 25v89q0 30 26 30h49q209 0 258 102q-17 79 -92 151l76 182q90 -143 107 -294zM486 -261l-112 -113l-125 105l114 114zM237 -282l-112 -112l-125 105l114 113zM83 1014l168 -150l168 150h48l-176 -240h-80
l-177 240h49z" />
    <glyph glyph-name="uni06CE.medi" unicode="&#x6ce;" horiz-adv-x="518" 
d="M556 25q0 -25 -25 -25h-21q-119 0 -187 43q-58 36 -63 91h-8q-13 -58 -77 -98q-58 -36 -123 -36h-63q-26 0 -26 25v89q0 30 26 30h20q217 0 217 189v31q10 8 30 8q21 0 35 -10v-32q0 -112 47 -151q44 -35 172 -35h21q25 0 25 -30v-89zM493 -280l-112 -112l-125 105
l114 114zM245 -300l-113 -112l-124 105l114 113zM83 814l168 -151l168 151h48l-176 -240h-80l-177 240h49z" />
    <glyph glyph-name="uni06CE.fina" unicode="&#x6ce;" horiz-adv-x="1165" 
d="M1202 25q0 -25 -27 -25h-151q-151 0 -205 -73q34 -24 112 -41q100 -22 135.5 -43t35.5 -62q0 -19 -12 -88q-14 -73 -25 -102q-116 -55 -291 -93q-187 -41 -350 -41q-161 0 -258 75q-103 79 -103 220q0 165 142 412q32 0 62 -30q-37 -62 -63 -153q-23 -84 -23 -140
q0 -106 73.5 -167.5t206.5 -61.5q152 0 334 27q161 24 242 51q-10 53 -136 77q-99 18 -162 60q16 100 45 212q98 105 258 105h133q27 0 27 -30v-89zM292 513l167 -150l168 150h48l-176 -240h-80l-177 240h50z" />
    <glyph glyph-name="uni06CF.fina" unicode="&#x6cf;" horiz-adv-x="668" 
d="M706 25q0 -25 -27 -25h-76q-52 -308 -336 -543q-132 9 -231 77q242 123 372 262q105 113 116 211q-44 -7 -100 -7q-65 0 -147 20q-77 18 -111 37q-7 49 -7 68q6 287 213 399q224 -66 237 -380h70q27 0 27 -30v-89zM529 151q-5 77 -60.5 145.5t-128.5 77.5
q-82 -70 -82 -189q71 -41 190 -41q32 0 81 7zM484 753l-98 -98l-99 98l99 100z" />
    <glyph glyph-name="uni06D1.init" unicode="&#x6d1;" horiz-adv-x="518" 
d="M-37 114q0 17 6 23.5t20 6.5h49q58 0 101.5 7.5t74.5 20.5t51 31.5t31 42.5q-3 14 -12 34t-22 41t-28 41.5t-30 34.5l76 182q18 -30 36 -66.5t32.5 -76.5t24.5 -79t14 -72q-11 -59 -37.5 -111t-62.5 -90.5t-79 -61t-86 -22.5h-133q-26 0 -26 25v89zM357 -444l-99 -99
l-99 99l99 99zM474 -242l-98 -100l-100 100l100 98zM239 -242l-98 -100l-100 100l100 98z" />
    <glyph glyph-name="uni06D1.medi" unicode="&#x6d1;" horiz-adv-x="518" 
d="M-37 114q0 17 6 23.5t20 6.5h20q29 0 66.5 5.5t71 25t56.5 57t23 101.5v31q9 8 30 8q11 0 19 -2t16 -8v-32q0 -58 11 -94t36.5 -56.5t67.5 -28t104 -7.5h21q13 0 19 -6.5t6 -23.5v-89q0 -25 -25 -25h-21q-64 0 -110 12t-76.5 31t-46 42.5t-17.5 48.5h-8
q-7 -31 -27.5 -55.5t-49 -42t-61 -27t-62.5 -9.5h-63q-26 0 -26 25v89zM357 -444l-99 -99l-99 99l99 99zM474 -242l-98 -100l-100 100l100 98zM239 -242l-98 -100l-100 100l100 98z" />
    <glyph glyph-name="uni06D1.fina" unicode="&#x6d1;" horiz-adv-x="1165" 
d="M1202 25q0 -25 -27 -25h-151q-151 0 -205 -73q34 -24 112 -41q100 -22 135.5 -43t35.5 -62q0 -19 -12 -88q-14 -73 -25 -102q-116 -55 -291 -93q-187 -41 -350 -41q-161 0 -258 75q-103 79 -103 220q0 165 142 412q32 0 62 -30q-37 -62 -63 -153q-23 -84 -23 -140
q0 -106 73.5 -167.5t206.5 -61.5q152 0 334 27q161 24 242 51q-10 53 -136 77q-99 18 -162 60q16 100 45 212q98 105 258 105h133q27 0 27 -30v-89zM620 -979l-99 -100l-99 100l99 98zM737 -778l-98 -99l-100 99l100 98zM502 -778l-98 -99l-100 99l100 98z" />
    <glyph glyph-name="uni06D5.fina" unicode="&#x6d5;" horiz-adv-x="759" 
d="M796 25q0 -25 -26 -25h-21q-169 0 -218 235q-23 -37 -94 -108q-147 0 -192 6q-115 15 -173 72q12 100 71 215q148 106 308 149l-32 153l75 142q75 -460 136 -610q44 -110 113 -110h27q26 0 26 -30v-89zM526 251q-37 138 -55 230q-220 -61 -292 -169q21 -23 85.5 -42
t119.5 -19h142z" />
    <glyph glyph-name="uni06EE.fina" unicode="&#x6ee;" horiz-adv-x="768" 
d="M805 25q0 -25 -26 -25h-21q-107 0 -177 209h-3q-11 -76 -41 -140q-54 -28 -158 -54q-109 -26 -175 -26q-63 0 -119 18q-4 71 -4 94q0 39 15 132q15 4 24 4q14 0 27 -9v-28q0 -34 3 -49q40 -19 97 -19q78 0 178 32q96 31 143 67q-74 212 -154 487l80 174
q109 -495 166 -642q42 -106 98 -106h21q26 0 26 -30v-89zM237 1062l177 240h80l176 -240h-49l-167 151l-168 -151h-49z" />
    <glyph glyph-name="uni06EF.fina" unicode="&#x6ef;" horiz-adv-x="686" 
d="M724 25q0 -25 -26 -25h-21q-52 0 -111 52q-21 -166 -93 -298q-70 -128 -225 -288q-67 0 -142 20t-106 46q218 103 355 253q111 121 128 215q-17 126 -141 244l62 187l94 -146q91 -141 179 -141h21q26 0 26 -30v-89zM174 643l177 240h80l176 -240h-49l-167 151l-168 -151
h-49z" />
    <glyph glyph-name="uni06FA.init" unicode="&#x6fa;" horiz-adv-x="1059" 
d="M678 1017l-98 -100l-100 100l100 99zM796 815l-99 -99l-99 99l99 99zM561 815l-99 -99l-101 99l101 99zM987 285q-25 -116 -93 -197q-74 -88 -162 -88q-142 0 -166 134h-4q-41 -134 -175 -134q-59 0 -102 35q-47 36 -59 99h-3q-19 -59 -75 -97q-58 -37 -139 -37h-20
q-26 0 -26 25v89q0 30 26 30h20q196 0 196 223q15 7 29 7q21 0 42 -12q-5 -59 -5 -106q0 -45 30 -78.5t73 -33.5q77 0 121 63q43 60 43 160q14 7 28 7q20 0 43 -12q-6 -59 -6 -106q0 -46 30.5 -79t77.5 -33q137 0 185 102q-16 79 -91 151l76 182q91 -143 106 -294zM673 -243
l-100 -100l-98 100l98 98z" />
    <glyph glyph-name="uni06FA.medi" unicode="&#x6fa;" horiz-adv-x="1095" 
d="M685 938l-98 -99l-99 99l99 99zM803 737l-98 -99l-100 99l100 98zM568 737l-98 -99l-102 99l102 98zM1133 25q0 -25 -27 -25h-20q-53 0 -99.5 37.5t-58.5 96.5h-4q-39 -134 -168 -134q-142 0 -166 134h-4q-42 -134 -175 -134q-159 0 -185 134h-3q-19 -59 -75 -97
q-58 -37 -139 -37h-20q-26 0 -26 25v89q0 30 26 30l20 -2q196 3 196 223q15 7 29 7q21 0 42 -12q-5 -56 -5 -104q0 -46 34 -79t93 -33q78 0 122 63q42 59 42 158q14 7 28 7q21 0 43 -12q-6 -56 -6 -104q0 -46 31 -79t78 -33q77 0 122 63q42 59 42 158q13 7 28 7q20 0 43 -12
q-6 -56 -6 -104q0 -46 33.5 -79t87.5 -33h20q27 0 27 -30v-89zM682 -243l-99 -100l-99 100l99 98z" />
    <glyph glyph-name="uni06FA.fina" unicode="&#x6fa;" horiz-adv-x="1838" 
d="M1457 938l-99 -99l-98 99l98 99zM1575 737l-99 -99l-99 99l99 98zM1340 737l-100 -99l-100 99l100 98zM1875 25q0 -25 -26 -25h-20q-54 0 -100.5 37.5t-57.5 96.5h-4q-39 -134 -169 -134q-141 0 -165 134h-4q-42 -134 -176 -134q-51 0 -98 32q9 -68 9 -129
q0 -98 -63 -222q-82 -75 -237 -143q-185 -81 -336 -81q-160 0 -257 76q-103 80 -103 221q0 165 141 412q32 0 62 -29q-37 -63 -63 -154q-22 -84 -22 -140q0 -106 73 -168.5t206 -62.5q122 0 270.5 57.5t248.5 141.5q2 202 -111 409l64 189q60 -158 104 -212q41 -53 99 -53
q79 0 122 63q42 60 42 160q15 7 29 7q20 0 42 -12q-5 -59 -5 -106q0 -46 31 -79t77 -33q78 0 122 63q42 60 42 160q14 7 29 7q20 0 42 -12q-5 -59 -5 -106q0 -46 32.5 -79t88.5 -33h20q26 0 26 -30v-89zM1474 -243l-100 -100l-98 100l98 98z" />
    <glyph glyph-name="uni06FB.init" unicode="&#x6fb;" horiz-adv-x="1315" 
d="M1243 310q-114 -177 -294 -246q-166 -64 -468 -64q-229 0 -255 134h-3q-19 -59 -75 -97q-58 -37 -139 -37h-20q-26 0 -26 25v89q0 30 26 30h20q196 0 196 223q15 7 29 7q21 0 42 -12q-5 -59 -5 -106q0 -46 35 -79t97 -33q215 250 365 345q109 69 212 69q112 0 190 -81
q73 -75 73 -167zM1125 256q0 65 -59 121t-135 56q-185 0 -440 -289h188q136 0 268 34q125 32 178 78zM1027 -247l-112 -112l-125 105l114 114zM1033 931l-112 -112l-124 105l113 114z" />
    <glyph glyph-name="uni06FB.medi" unicode="&#x6fb;" horiz-adv-x="1313" 
d="M1351 25q0 -25 -26 -25h-93q-137 0 -368 41q-189 -41 -383 -41q-229 0 -255 134h-3q-19 -59 -75 -97q-58 -37 -139 -37h-20q-26 0 -26 25v89q0 30 26 30h20q196 0 196 223q15 7 29 7q21 0 42 -12q-5 -59 -5 -106q0 -46 35 -79t97 -33q215 250 365 345q109 69 212 69
q112 0 190 -81q73 -75 73 -167q-26 -80 -155 -159v-7h237q26 0 26 -30v-89zM1125 256q0 65 -59 121t-135 56q-185 0 -440 -289h188q136 0 268 34q125 32 178 78zM1027 -247l-112 -112l-125 105l114 114zM1033 931l-112 -112l-124 105l113 114z" />
    <glyph glyph-name="uni06FB.fina" unicode="&#x6fb;" horiz-adv-x="2047" 
d="M2084 25q0 -25 -25 -25h-94q-137 0 -367 41q-189 -41 -383 -41q-113 0 -160 32q9 -68 9 -129q0 -98 -63 -222q-82 -75 -237 -143q-185 -81 -336 -81q-160 0 -257 76q-103 80 -103 221q0 165 141 412q32 0 62 -29q-37 -63 -63 -154q-22 -84 -22 -140q0 -106 73 -168.5
t206 -62.5q122 0 270.5 57.5t248.5 141.5q2 202 -111 409l64 189q60 -157 102 -211t98 -54q215 250 365 345q108 69 211 69q112 0 191 -81q73 -75 73 -167q-28 -80 -155 -159v-7h237q25 0 25 -30v-89zM1859 256q0 65 -59.5 121t-134.5 56q-185 0 -441 -289h189q135 0 267 34
q125 32 179 78zM1755 -247l-112 -112l-125 105l114 114zM1762 931l-112 -112l-125 105l114 114z" />
    <glyph glyph-name="uni06FC.init" unicode="&#x6fc;" horiz-adv-x="859" 
d="M511 1038l-112 -112l-124 103l113 114zM791 340l-78 -171q-61 0 -362 -83t-342 -86h-20q-26 0 -26 25v89q0 30 26 30h20q135 0 237 27v5q-69 16 -114.5 79.5t-45.5 141.5q0 41 9 71q131 221 304 221q160 0 255 -162q-94 36 -200 36q-139 0 -265 -59q-1 -13 -4 -39
q0 -76 63 -145q66 -73 165 -96q36 7 186 53q154 46 192 63zM510 -282l-112 -112l-125 105l114 113z" />
    <glyph glyph-name="uni06FC.medi" unicode="&#x6fc;" horiz-adv-x="621" 
d="M450 892l-112 -112l-125 105l114 113zM659 25q0 -25 -26 -25h-20q-172 0 -283 127q-147 -127 -289 -127h-52q-26 0 -26 25v89q0 30 26 30h47q133 0 231 65q-67 99 -153 99q-9 0 -54 -4l63 127q110 52 212 52q105 0 210 -84l-37 -93l-101 -89q62 -73 206 -73h20
q26 0 26 -30v-89zM431 -282l-112 -112l-125 105l114 113z" />
    <glyph glyph-name="uni06FC.fina" unicode="&#x6fc;" horiz-adv-x="852" 
d="M631 981l-112 -112l-125 105l113 114zM889 -415l-98 -113q-71 -15 -206 -15q-232 0 -366 77q-156 91 -156 276q0 258 377 491q-75 98 -155 98q-10 0 -54 -4l63 127q114 53 211 53q127 0 229 -94l-37 -91l-132 -89q136 -157 278 -157h21q25 0 25 -30v-89q0 -25 -25 -25
h-21q-152 0 -358 244q-285 -191 -285 -369q0 -147 148 -229q137 -75 357 -75q80 0 184 14zM632 -115l-112 -112l-124 105l113 114z" />
    <glyph glyph-name="uni06FF.init" unicode="&#x6ff;" horiz-adv-x="915" 
d="M839 246q0 -22 -31 -90q-35 -77 -76 -133q-63 1 -203 28q-147 29 -196 52q-59 -37 -162.5 -70t-161.5 -33h-20q-26 0 -26 25v89q0 30 26 30h38q134 0 178 32q-55 40 -55 152q0 79 41.5 155t97.5 103l-74 34l35 173q363 -236 484 -355q102 -98 105 -192zM757 201
q0 38 -50 102q-58 72 -149 133l-4 -3q9 -26 9 -75q0 -104 -87 -164q128 -43 256 -46q23 16 25 53zM491 384q0 86 -82 136q-87 -3 -136 -61q-43 -51 -43 -119q3 -30 35 -60q34 -35 88 -50q64 16 101 59.5t37 94.5zM35 869l177 240h80l176 -240h-49l-167 150l-168 -150h-49z
" />
    <glyph glyph-name="uni06FF.medi" unicode="&#x6ff;" horiz-adv-x="819" 
d="M858 25q0 -25 -27 -25h-12q-27 0 -68 1t-91 3q69 -59 69 -163q0 -36 -11 -77.5t-29.5 -82t-43 -77t-52.5 -61.5q-80 16 -148 57.5t-121.5 103t-90.5 140t-54 167.5q-70 -11 -179 -11h-11q-26 0 -26 25v89q0 17 6 23.5t20 6.5h11q39 0 82.5 1.5t84.5 4.5v35q0 199 39 327
t120 195q216 -99 218 -452q0 -76 -11 -126q39 8 100.5 11.5t144.5 3.5h53q15 0 21 -6.5t6 -23.5v-89zM240 154q87 7 149 26.5t94 57.5q-3 53 -17 101.5t-35.5 88t-47.5 66.5t-52 35q-51 -60 -71 -155t-20 -220zM634 -222q0 42 -14 80t-41 69t-67.5 53.5t-92.5 32.5l20 63
q-38 -21 -82 -34.5t-92 -20.5q21 -59 54.5 -112.5t77.5 -96.5t97.5 -75t113.5 -49q12 16 19 37t7 53zM108 869l177 240h80l176 -240h-49l-167 150l-168 -150h-49z" />
    <glyph glyph-name="uni06FF.fina" unicode="&#x6ff;" horiz-adv-x="935" 
d="M974 25q0 -25 -27 -25h-12q-27 0 -68 1t-91 3q69 -59 69 -163q0 -36 -11 -77.5t-29.5 -82t-43 -77t-52.5 -61.5q-80 16 -148 57.5t-121.5 103t-90.5 140t-54 167.5q-89 -19 -143 -48.5t-80 -69.5l-13 5l23 151q21 29 70 55t131 43v34q0 199 39 329t120 197
q216 -99 218 -452q0 -76 -11 -126q39 8 101 11.5t144 3.5h53q15 0 21 -6.5t6 -23.5v-89zM356 154q87 7 149 26.5t94 57.5q-2 53 -16.5 101.5t-36 88t-47 66.5t-52.5 35q-51 -60 -71 -155t-20 -220zM750 -222q0 42 -14 80.5t-41 70t-67.5 54t-92.5 32.5l21 61
q-39 -21 -83 -34.5t-91 -20.5q20 -59 53.5 -112.5t77.5 -96.5t97.5 -75t113.5 -49q12 16 19 37t7 53zM198 869l177 240h80l176 -240h-48l-168 150l-167 -150h-50z" />
    <glyph glyph-name="uniFB50" unicode="&#x671;" horiz-adv-x="414" arabic-form="isolated" 
d="M353 1480q-24 -48 -71.5 -80.5t-96.5 -32.5q-55 0 -125 30q-15 -28 -50 -86v112q16 29 39 57q36 -12 60 -28q45 180 147 180q89 0 97 -152zM314 1500q-2 21 -18.5 40t-37.5 19q-28 0 -58 -28q-36 -31 -54 -86q14 -6 43 -6q74 0 125 61zM272 616q0 -309 -9 -530l-85 -143
l-9 611q-4 393 -62 608l121 123q44 -268 44 -669z" />
    <glyph glyph-name="uniFB51" unicode="&#x671;" horiz-adv-x="414" arabic-form="final" 
d="M353 1480q-24 -48 -71.5 -80.5t-96.5 -32.5q-55 0 -125 30q-15 -28 -50 -86v112q16 29 39 57q36 -12 60 -28q45 180 147 180q89 0 97 -152zM314 1500q-2 21 -18.5 40t-37.5 19q-28 0 -58 -28q-36 -31 -54 -86q14 -6 43 -6q74 0 125 61zM452 25q0 -25 -27 -25h-21
q-134 0 -184 91q-52 98 -52 375q0 186 -21 400.5t-48 290.5l108 128q53 -217 53 -758q0 -239 29 -313q27 -70 115 -70h21q27 0 27 -30v-89z" />
    <glyph glyph-name="uniFB52" unicode="&#x67b;" horiz-adv-x="1419" arabic-form="isolated" 
d="M1264 579q9 -18 19 -42.5t19 -52t17 -56t14 -53.5t9.5 -45t3.5 -31q-2 -11 -13 -40t-25 -60t-28 -58t-22 -36q-14 -6 -53.5 -17t-97 -23.5t-128 -26t-147 -24.5t-154.5 -18t-149 -7q-113 0 -196.5 21.5t-138 59.5t-81.5 88t-27 107q0 70 29 145.5t76 155.5q3 2 14 2
q9 0 22.5 -10t20.5 -22q-15 -26 -27 -53t-19.5 -52t-12 -46.5t-4.5 -37.5q0 -45 27 -82.5t77.5 -64.5t123 -41.5t164.5 -14.5q113 0 220.5 9.5t198 23t159 29.5t104.5 29q-1 11 -9.5 34t-20 50t-24.5 52.5t-24 39.5zM709 -543l-98 98l98 100l99 -100zM709 -339l-98 98
l98 100l99 -100z" />
    <glyph glyph-name="uniFB53" unicode="&#x67b;" horiz-adv-x="1394" arabic-form="final" 
d="M808 -241l-99 -99l-98 99l98 99zM1432 25q0 -25 -27 -25h-20q-41 0 -73 11t-53 29t-31.5 42.5t-10.5 51.5q0 26 6 53q-55 -41 -131.5 -77t-167 -63t-191 -42.5t-204.5 -15.5q-113 0 -196.5 21.5t-138 59.5t-81.5 88t-27 107q0 70 29 145.5t76 155.5q3 2 14 2
q9 0 22.5 -10t20.5 -22q-15 -26 -27 -53t-19.5 -52t-12 -46.5t-4.5 -37.5q0 -45 27 -82.5t77.5 -64.5t123 -41.5t164.5 -14.5q56 0 126.5 7.5t141.5 21t136 30t109 32.5q38 15 62.5 28.5t41.5 32t28.5 46t22.5 69.5q4 2 10 3t11 1q11 0 25 -8.5t21 -18.5q-12 -25 -21 -60.5
t-9 -69.5q0 -57 27 -85.5t76 -28.5h20q15 0 21 -6.5t6 -23.5v-89zM808 -444l-99 -99l-98 99l98 99z" />
    <glyph glyph-name="uniFB54" unicode="&#x67b;" horiz-adv-x="480" arabic-form="initial" 
d="M-37 114q0 17 6 23.5t20 6.5h49q58 0 101.5 7.5t74.5 20.5t51 31.5t31 42.5q-3 14 -12 34t-22 41t-28 41.5t-30 34.5l76 182q18 -30 36 -66.5t32.5 -76.5t24.5 -79t14 -72q-11 -59 -37.5 -111t-62.5 -90.5t-79 -61t-86 -22.5h-133q-26 0 -26 25v89zM357 -234l-99 -99
l-99 99l99 98zM357 -444l-99 -99l-99 99l99 99z" />
    <glyph glyph-name="uniFB55" unicode="&#x67b;" horiz-adv-x="518" arabic-form="medial" 
d="M-37 114q0 17 6 23.5t20 6.5h20q29 0 66.5 5.5t71 25t56.5 57t23 101.5v31q9 8 30 8q11 0 19 -2t16 -8v-32q0 -58 11 -94t36.5 -56.5t67.5 -28t104 -7.5h21q13 0 19 -6.5t6 -23.5v-89q0 -25 -25 -25h-21q-64 0 -110 12t-76.5 31t-46 42.5t-17.5 48.5h-8
q-7 -31 -27.5 -55.5t-49 -42t-61 -27t-62.5 -9.5h-63q-26 0 -26 25v89zM357 -241l-99 -99l-99 99l99 99zM357 -444l-99 -99l-99 99l99 99z" />
    <glyph glyph-name="uniFB56" unicode="&#x67e;" horiz-adv-x="1419" arabic-form="isolated" 
d="M1264 579q9 -18 19 -42.5t19 -52t17 -56t14 -53.5t9.5 -45t3.5 -31q-2 -11 -13 -40t-25 -60t-28 -58t-22 -36q-14 -6 -53.5 -17t-97 -23.5t-128 -26t-147 -24.5t-154.5 -18t-149 -7q-113 0 -196.5 21.5t-138 59.5t-81.5 88t-27 107q0 70 29 145.5t76 155.5q3 2 14 2
q9 0 22.5 -10t20.5 -22q-15 -26 -27 -53t-19.5 -52t-12 -46.5t-4.5 -37.5q0 -45 27 -82.5t77.5 -64.5t123 -41.5t164.5 -14.5q113 0 220.5 9.5t198 23t159 29.5t104.5 29q-1 11 -9.5 34t-20 50t-24.5 52.5t-24 39.5zM808 -444l-99 -99l-98 99l98 99zM926 -242l-99 -100
l-99 100l99 98zM691 -242l-99 -100l-99 100l99 98z" />
    <glyph glyph-name="uniFB57" unicode="&#x67e;" horiz-adv-x="1394" arabic-form="final" 
d="M808 -444l-99 -99l-98 99l98 99zM926 -242l-99 -100l-99 100l99 98zM691 -242l-99 -100l-99 100l99 98zM1432 25q0 -25 -27 -25h-20q-41 0 -73 11t-53 29t-31.5 42.5t-10.5 51.5q0 26 6 53q-55 -41 -131.5 -77t-167 -63t-191 -42.5t-204.5 -15.5q-113 0 -196.5 21.5
t-138 59.5t-81.5 88t-27 107q0 70 29 145.5t76 155.5q3 2 14 2q9 0 22.5 -10t20.5 -22q-15 -26 -27 -53t-19.5 -52t-12 -46.5t-4.5 -37.5q0 -45 27 -82.5t77.5 -64.5t123 -41.5t164.5 -14.5q56 0 126.5 7.5t141.5 21t136 30t109 32.5q38 15 62.5 28.5t41.5 32t28.5 46
t22.5 69.5q4 2 10 3t11 1q11 0 25 -8.5t21 -18.5q-12 -25 -21 -60.5t-9 -69.5q0 -57 27 -85.5t76 -28.5h20q15 0 21 -6.5t6 -23.5v-89z" />
    <glyph glyph-name="uniFB58" unicode="&#x67e;" horiz-adv-x="518" arabic-form="initial" 
d="M-37 114q0 17 6 23.5t20 6.5h49q58 0 101.5 7.5t74.5 20.5t51 31.5t31 42.5q-3 14 -12 34t-22 41t-28 41.5t-30 34.5l76 182q18 -30 36 -66.5t32.5 -76.5t24.5 -79t14 -72q-11 -59 -37.5 -111t-62.5 -90.5t-79 -61t-86 -22.5h-133q-26 0 -26 25v89zM357 -444l-99 -99
l-99 99l99 99zM474 -242l-98 -100l-100 100l100 98zM239 -242l-98 -100l-100 100l100 98z" />
    <glyph glyph-name="uniFB59" unicode="&#x67e;" horiz-adv-x="518" arabic-form="medial" 
d="M-37 114q0 17 6 23.5t20 6.5h20q29 0 66.5 5.5t71 25t56.5 57t23 101.5v31q9 8 30 8q11 0 19 -2t16 -8v-32q0 -58 11 -94t36.5 -56.5t67.5 -28t104 -7.5h21q13 0 19 -6.5t6 -23.5v-89q0 -25 -25 -25h-21q-64 0 -110 12t-76.5 31t-46 42.5t-17.5 48.5h-8
q-7 -31 -27.5 -55.5t-49 -42t-61 -27t-62.5 -9.5h-63q-26 0 -26 25v89zM357 -444l-99 -99l-99 99l99 99zM474 -242l-98 -100l-100 100l100 98zM239 -242l-98 -100l-100 100l100 98z" />
    <glyph glyph-name="uniFB5A" unicode="&#x680;" horiz-adv-x="1419" arabic-form="isolated" 
d="M1264 579q9 -18 19 -42.5t19 -52t17 -56t14 -53.5t9.5 -45t3.5 -31q-2 -11 -13 -40t-25 -60t-28 -58t-22 -36q-14 -6 -53.5 -17t-97 -23.5t-128 -26t-147 -24.5t-154.5 -18t-149 -7q-113 0 -196.5 21.5t-138 59.5t-81.5 88t-27 107q0 70 29 145.5t76 155.5q3 2 14 2
q9 0 22.5 -10t20.5 -22q-15 -26 -27 -53t-19.5 -52t-12 -46.5t-4.5 -37.5q0 -45 27 -82.5t77.5 -64.5t123 -41.5t164.5 -14.5q113 0 220.5 9.5t198 23t159 29.5t104.5 29q-1 11 -9.5 34t-20 50t-24.5 52.5t-24 39.5zM926 -448l-99 -100l-99 100l99 98zM691 -448l-99 -100
l-99 100l99 98zM926 -242l-99 -100l-99 100l99 98zM691 -242l-99 -100l-99 100l99 98z" />
    <glyph glyph-name="uniFB5B" unicode="&#x680;" horiz-adv-x="1394" arabic-form="final" 
d="M926 -448l-99 -100l-99 100l99 98zM691 -448l-99 -100l-99 100l99 98zM1432 25q0 -25 -27 -25h-20q-41 0 -73 11t-53 29t-31.5 42.5t-10.5 51.5q0 26 6 53q-55 -41 -131.5 -77t-167 -63t-191 -42.5t-204.5 -15.5q-113 0 -196.5 21.5t-138 59.5t-81.5 88t-27 107
q0 70 29 145.5t76 155.5q3 2 14 2q9 0 22.5 -10t20.5 -22q-15 -26 -27 -53t-19.5 -52t-12 -46.5t-4.5 -37.5q0 -45 27 -82.5t77.5 -64.5t123 -41.5t164.5 -14.5q56 0 126.5 7.5t141.5 21t136 30t109 32.5q38 15 62.5 28.5t41.5 32t28.5 46t22.5 69.5q4 2 10 3t11 1
q11 0 25 -8.5t21 -18.5q-12 -25 -21 -60.5t-9 -69.5q0 -57 27 -85.5t76 -28.5h20q15 0 21 -6.5t6 -23.5v-89zM926 -242l-99 -100l-99 100l99 98zM691 -242l-99 -100l-99 100l99 98z" />
    <glyph glyph-name="uniFB5C" unicode="&#x680;" horiz-adv-x="518" arabic-form="initial" 
d="M-37 114q0 17 6 23.5t20 6.5h49q58 0 101.5 7.5t74.5 20.5t51 31.5t31 42.5q-3 14 -12 34t-22 41t-28 41.5t-30 34.5l76 182q18 -30 36 -66.5t32.5 -76.5t24.5 -79t14 -72q-11 -59 -37.5 -111t-62.5 -90.5t-79 -61t-86 -22.5h-133q-26 0 -26 25v89zM474 -445l-98 -99
l-100 99l100 99zM239 -445l-98 -99l-100 99l100 99zM474 -242l-98 -100l-100 100l100 98zM239 -242l-98 -100l-100 100l100 98z" />
    <glyph glyph-name="uniFB5D" unicode="&#x680;" horiz-adv-x="518" arabic-form="medial" 
d="M-37 114q0 17 6 23.5t20 6.5h20q29 0 66.5 5.5t71 25t56.5 57t23 101.5v31q9 8 30 8q11 0 19 -2t16 -8v-32q0 -58 11 -94t36.5 -56.5t67.5 -28t104 -7.5h21q13 0 19 -6.5t6 -23.5v-89q0 -25 -25 -25h-21q-64 0 -110 12t-76.5 31t-46 42.5t-17.5 48.5h-8
q-7 -31 -27.5 -55.5t-49 -42t-61 -27t-62.5 -9.5h-63q-26 0 -26 25v89zM478 -443l-99 -99l-99 99l99 99zM243 -443l-99 -99l-99 99l99 99zM474 -242l-98 -100l-100 100l100 98zM239 -242l-98 -100l-100 100l100 98z" />
    <glyph glyph-name="uniFB5E" unicode="&#x67a;" horiz-adv-x="1419" arabic-form="isolated" 
d="M843 739l-98 -99l-100 99l100 99zM1346 299q-5 -25 -38 -99q-34 -79 -50 -95q-66 -27 -278 -67q-265 -49 -451 -49q-216 0 -335 80q-108 75 -108 196q0 123 105 301q3 2 14 2q26 0 43 -32q-63 -104 -63 -189q0 -92 105.5 -147.5t286.5 -55.5q204 0 418 33q174 26 264 58
q-4 26 -30 84q-27 66 -48 92l83 168q26 -50 55 -150q27 -96 27 -130zM843 943l-98 -98l-100 98l100 99z" />
    <glyph glyph-name="uniFB5F" unicode="&#x67a;" horiz-adv-x="1394" arabic-form="final" 
d="M849 740l-99 -99l-99 99l99 99zM1432 25q0 -25 -27 -25h-20q-79 0 -126 40q-42 37 -42 94q0 25 6 53q-115 -85 -299 -140q-196 -58 -395 -58q-216 0 -335 80q-108 75 -108 196q0 123 105 301q3 2 14 2q26 0 43 -32q-63 -104 -63 -189q0 -92 105.5 -147.5t286.5 -55.5
q108 0 268 28q156 28 245 63q76 29 104.5 60.5t50.5 115.5q11 4 21 4q27 0 46 -27q-30 -67 -30 -130q0 -114 103 -114h20q27 0 27 -30v-89zM849 943l-99 -98l-99 98l99 99z" />
    <glyph glyph-name="uniFB60" unicode="&#x67a;" horiz-adv-x="477" arabic-form="initial" 
d="M359 782l-98 -99l-99 99l99 99zM387 285q-23 -118 -100 -201.5t-165 -83.5h-133q-26 0 -26 25v89q0 30 26 30h49q209 0 258 102q-17 79 -92 151l76 182q90 -143 107 -294zM357 988l-99 -98l-99 98l99 100z" />
    <glyph glyph-name="uniFB61" unicode="&#x67a;" horiz-adv-x="518" arabic-form="medial" 
d="M342 620l-99 -98l-99 98l99 100zM556 25q0 -25 -25 -25h-21q-119 0 -187 43q-58 36 -63 91h-8q-13 -58 -77 -98q-58 -36 -123 -36h-63q-26 0 -26 25v89q0 30 26 30h20q217 0 217 189v31q10 8 30 8q21 0 35 -10v-32q0 -112 47 -151q44 -35 172 -35h21q25 0 25 -30v-89z
M342 824l-99 -98l-99 98l99 100z" />
    <glyph glyph-name="uniFB62" unicode="&#x67f;" horiz-adv-x="1419" arabic-form="isolated" 
d="M974 1029l-112 -113l-125 105l114 114zM726 1008l-113 -112l-124 104l114 114zM1346 299q-5 -25 -38 -99q-34 -79 -50 -95q-66 -27 -278 -67q-265 -49 -451 -49q-216 0 -335 80q-108 75 -108 196q0 123 105 301q3 2 14 2q26 0 43 -32q-63 -104 -63 -189
q0 -92 105.5 -147.5t286.5 -55.5q204 0 418 33q174 26 264 58q-4 26 -30 84q-27 66 -48 92l83 168q26 -50 55 -150q27 -96 27 -130zM988 809l-112 -112l-125 105l114 114zM739 788l-112 -111l-125 104l114 114z" />
    <glyph glyph-name="uniFB63" unicode="&#x67f;" horiz-adv-x="1394" arabic-form="final" 
d="M973 1015l-112 -112l-125 105l114 113zM725 994l-112 -111l-125 104l114 114zM1432 25q0 -25 -27 -25h-20q-79 0 -126 40q-42 37 -42 94q0 25 6 53q-115 -85 -299 -140q-196 -58 -395 -58q-216 0 -335 80q-108 75 -108 196q0 123 105 301q3 2 14 2q26 0 43 -32
q-63 -104 -63 -189q0 -92 105.5 -147.5t286.5 -55.5q108 0 268 28q156 28 245 63q76 29 104.5 60.5t50.5 115.5q11 4 21 4q27 0 46 -27q-30 -67 -30 -130q0 -114 103 -114h20q27 0 27 -30v-89zM990 791l-112 -112l-125 104l114 114zM741 770l-111 -111l-126 104l114 113z
" />
    <glyph glyph-name="uniFB64" unicode="&#x67f;" horiz-adv-x="518" arabic-form="initial" 
d="M483 1084l-112 -112l-125 105l114 114zM234 1064l-111 -112l-125 105l113 113zM387 285q-23 -118 -100 -201.5t-165 -83.5h-133q-26 0 -26 25v89q0 30 26 30h49q209 0 258 102q-17 79 -92 151l76 182q90 -143 107 -294zM497 864l-112 -112l-125 104l114 114zM248 844
l-111 -112l-126 104l114 113z" />
    <glyph glyph-name="uniFB65" unicode="&#x67f;" horiz-adv-x="518" arabic-form="medial" 
d="M480 935l-113 -112l-124 104l114 113zM231 914l-112 -112l-125 104l114 114zM556 25q0 -25 -25 -25h-21q-119 0 -187 43q-58 36 -63 91h-8q-13 -58 -77 -98q-58 -36 -123 -36h-63q-26 0 -26 25v89q0 30 26 30h20q217 0 217 189v31q10 8 30 8q21 0 35 -10v-32
q0 -112 47 -151q44 -35 172 -35h21q25 0 25 -30v-89zM493 712l-112 -113l-125 104l114 114zM245 691l-113 -112l-124 104l114 114z" />
    <glyph glyph-name="uniFB66" unicode="&#x679;" horiz-adv-x="1419" arabic-form="isolated" 
d="M1346 299q-5 -25 -38 -99q-34 -79 -50 -95q-66 -27 -278 -67q-265 -49 -451 -49q-216 0 -335 80q-108 75 -108 196q0 123 105 301q3 2 14 2q26 0 43 -32q-63 -104 -63 -189q0 -92 105.5 -147.5t286.5 -55.5q204 0 418 33q174 26 264 58q-4 26 -30 84q-27 66 -48 92
l83 168q26 -50 55 -150q27 -96 27 -130zM701 920q0 -29 -1 -50.5t-5 -35.5l2 -1q31 46 70.5 71t72.5 25q26 0 46 -10t34.5 -26t24 -35.5t14.5 -38.5q-21 -51 -50 -83.5t-69.5 -50.5t-93.5 -26t-124 -9l-101 88q32 -5 61.5 -6.5t52.5 -1.5l15 44q0 56 -1 98.5t-3.5 76t-7 61
t-10.5 51.5l59 62q8 -29 25 -64.5t45 -76.5l-4 -4l-55 23q3 -41 3 -81zM816 855q-44 0 -80 -34.5t-70 -91.5q35 1 71.5 6.5t68.5 14t57 19.5t37 22q-16 34 -37 49t-47 15z" />
    <glyph glyph-name="uniFB67" unicode="&#x679;" horiz-adv-x="1394" arabic-form="final" 
d="M1432 25q0 -25 -27 -25h-20q-79 0 -126 40q-42 37 -42 94q0 25 6 53q-115 -85 -299 -140q-196 -58 -395 -58q-216 0 -335 80q-108 75 -108 196q0 123 105 301q3 2 14 2q26 0 43 -32q-63 -104 -63 -189q0 -92 105.5 -147.5t286.5 -55.5q108 0 268 28q156 28 245 63
q76 29 104.5 60.5t50.5 115.5q11 4 21 4q27 0 46 -27q-30 -67 -30 -130q0 -114 103 -114h20q27 0 27 -30v-89zM712 914q0 -29 -1 -50.5t-5 -36.5l2 -1q31 47 70.5 72t72.5 25q26 0 46 -10t34.5 -26t24 -35.5t14.5 -38.5q-21 -51 -50 -83.5t-69.5 -51t-93.5 -26t-124 -9.5
l-101 89q32 -5 61.5 -7t52.5 -2l15 45q0 56 -1 98t-3.5 76t-7 61t-10.5 52l59 62q8 -29 25 -64.5t45 -76.5l-4 -5l-55 24q3 -41 3 -81zM827 849q-44 0 -80 -34.5t-70 -92.5q35 1 71.5 6.5t68.5 14.5t57 19.5t37 21.5q-16 35 -37 50t-47 15z" />
    <glyph glyph-name="uniFB68" unicode="&#x679;" horiz-adv-x="527" arabic-form="initial" 
d="M387 285q-23 -118 -100 -201.5t-165 -83.5h-133q-26 0 -26 25v89q0 30 26 30h49q209 0 258 102q-17 79 -92 151l76 182q90 -143 107 -294zM214 966q0 -29 -0.5 -50.5t-4.5 -36.5l2 -1q31 47 70 72t73 25q25 0 45 -10t35 -26t24.5 -35.5t13.5 -38.5q-21 -51 -49.5 -83.5
t-69 -51t-94 -26t-124.5 -9.5l-100 88q32 -4 61 -6t53 -2l14 45q0 56 -0.5 98t-3.5 76t-7 61t-10 52l59 62q8 -29 25 -64.5t45 -76.5l-5 -5l-54 24q2 -41 2 -81zM329 901q-43 0 -79 -34.5t-70 -92.5q34 1 70.5 6.5t68.5 14.5t57 19.5t38 21.5q-16 35 -37 50t-48 15z" />
    <glyph glyph-name="uniFB69" unicode="&#x679;" horiz-adv-x="518" arabic-form="medial" 
d="M556 25q0 -25 -25 -25h-21q-119 0 -187 43q-58 36 -63 91h-8q-13 -58 -77 -98q-58 -36 -123 -36h-63q-26 0 -26 25v89q0 30 26 30h20q217 0 217 189v31q10 8 30 8q21 0 35 -10v-32q0 -112 47 -151q44 -35 172 -35h21q25 0 25 -30v-89zM198 829q0 -29 -1 -50.5t-4 -36.5h1
q31 46 70.5 71t72.5 25q26 0 46 -10t34.5 -26t24 -35.5t14.5 -38.5q-21 -51 -49.5 -83.5t-69.5 -50.5t-94 -26t-124 -10l-100 89q31 -5 60.5 -6.5t52.5 -1.5l15 44q0 56 -1 98.5t-3.5 76t-6.5 61t-11 51.5l59 62q9 -29 25.5 -64.5t45.5 -76.5l-5 -5l-55 24q3 -41 3 -81z
M313 764q-44 0 -80 -34.5t-70 -91.5q35 1 71.5 6.5t68.5 14t57 19.5t38 22q-17 34 -38 49t-47 15z" />
    <glyph glyph-name="uniFB6A" unicode="&#x6a4;" horiz-adv-x="1495" arabic-form="isolated" 
d="M1394 406q0 -156 -60 -313q-201 -104 -798 -104q-220 0 -341 80q-109 74 -109 196q0 123 105 301q3 2 14 2q26 0 43 -32q-63 -104 -63 -189q0 -92 106.5 -147.5t292.5 -55.5q284 0 488 24q173 21 212 47q33 63 37 160q-67 -52 -186 -52q-102 0 -172 52q-11 67 -11 114
q0 212 166 343q276 -64 276 -426zM1303 506q0 55 -62 111q-65 58 -146 58q-62 -51 -62 -169q39 -40 126 -40q92 0 144 40zM1231 1230l-99 -99l-99 99l99 98zM1349 1029l-100 -100l-98 100l98 98zM1114 1029l-100 -100l-100 100l100 98z" />
    <glyph glyph-name="uniFB6B" unicode="&#x6a4;" horiz-adv-x="1465" arabic-form="final" 
d="M1503 25q0 -25 -27 -25h-20q-164 0 -293 93q-61 -54 -177 -78q-133 -26 -391 -26q-260 0 -391 80q-118 72 -118 196q0 123 105 301q3 2 14 2q26 0 43 -32q-63 -104 -63 -189q0 -203 497 -203q242 0 358 24q-92 63 -92 186q0 110 73.5 196.5t205.5 132.5
q160 -118 160 -284q0 -125 -118 -221q82 -34 187 -34h20q27 0 27 -30v-89zM1295 375q0 88 -97 147q-129 -25 -169 -171q10 -38 57 -86q45 -45 77 -58q63 20 100 71q32 45 32 97zM1268 1146l-100 -99l-98 99l98 98zM1385 945l-99 -100l-99 100l99 98zM1150 945l-99 -100
l-100 100l100 98z" />
    <glyph glyph-name="uniFB6C" unicode="&#x6a4;" horiz-adv-x="626" arabic-form="initial" 
d="M527 406q0 -158 -57 -301q-52 -38 -193 -71q-147 -34 -278 -34h-10q-26 0 -26 25v89q0 30 26 30h20q133 0 258 24q113 21 150 47q32 63 37 160q-68 -52 -187 -52q-102 0 -172 52q-11 67 -11 114q0 212 166 343q277 -64 277 -426zM435 506q0 55 -61 111q-67 58 -146 58
q-64 -51 -64 -169q40 -40 127 -40q93 0 144 40zM249 1029l-99 -100l-100 100l100 98zM367 1230l-100 -99l-98 99l98 98zM484 1029l-99 -100l-99 100l99 98z" />
    <glyph glyph-name="uniFB6D" unicode="&#x6a4;" horiz-adv-x="621" arabic-form="medial" 
d="M659 25q0 -25 -26 -25h-20q-164 0 -294 93q-112 -93 -310 -93h-20q-26 0 -26 25v89q0 30 26 30h20q123 0 187 24q-91 63 -91 186q0 110 73 196.5t205 132.5q160 -118 160 -284q0 -125 -117 -221q82 -34 187 -34h20q26 0 26 -30v-89zM452 375q0 88 -97 147
q-130 -25 -170 -171q10 -38 58 -86q44 -45 76 -58q64 20 100 71q33 45 33 97zM421 1146l-99 -99l-98 99l98 98zM539 945l-100 -100l-98 100l98 98zM304 945l-100 -100l-100 100l100 98z" />
    <glyph glyph-name="uniFB6E" unicode="&#x6a6;" horiz-adv-x="1495" arabic-form="isolated" 
d="M1394 406q0 -156 -60 -313q-201 -104 -798 -104q-220 0 -341 80q-109 74 -109 196q0 123 105 301q3 2 14 2q26 0 43 -32q-63 -104 -63 -189q0 -92 106.5 -147.5t292.5 -55.5q284 0 488 24q173 21 212 47q33 63 37 160q-67 -52 -186 -52q-102 0 -172 52q-11 67 -11 114
q0 212 166 343q276 -64 276 -426zM1303 506q0 55 -62 111q-65 58 -146 58q-62 -51 -62 -169q39 -40 126 -40q92 0 144 40zM1345 1233l-99 -100l-99 100l99 98zM1110 1233l-99 -100l-101 100l101 98zM1349 1029l-100 -100l-98 100l98 98zM1114 1029l-100 -100l-100 100
l100 98z" />
    <glyph glyph-name="uniFB6F" unicode="&#x6a6;" horiz-adv-x="1465" arabic-form="final" 
d="M1503 25q0 -25 -27 -25h-20q-164 0 -293 93q-61 -54 -177 -78q-133 -26 -391 -26q-260 0 -391 80q-118 72 -118 196q0 123 105 301q3 2 14 2q26 0 43 -32q-63 -104 -63 -189q0 -203 497 -203q242 0 358 24q-92 63 -92 186q0 110 73.5 196.5t205.5 132.5
q160 -118 160 -284q0 -125 -118 -221q82 -34 187 -34h20q27 0 27 -30v-89zM1295 375q0 88 -97 147q-129 -25 -169 -171q10 -38 57 -86q45 -45 77 -58q63 20 100 71q32 45 32 97zM1385 1148l-99 -99l-99 99l99 98zM1150 1148l-99 -99l-100 99l100 98zM1385 945l-99 -100
l-99 100l99 98zM1150 945l-99 -100l-100 100l100 98z" />
    <glyph glyph-name="uniFB70" unicode="&#x6a6;" horiz-adv-x="626" arabic-form="initial" 
d="M527 406q0 -158 -57 -301q-52 -38 -193 -71q-147 -34 -278 -34h-10q-26 0 -26 25v89q0 30 26 30h20q133 0 258 24q113 21 150 47q32 63 37 160q-68 -52 -187 -52q-102 0 -172 52q-11 67 -11 114q0 212 166 343q277 -64 277 -426zM435 506q0 55 -61 111q-67 58 -146 58
q-64 -51 -64 -169q40 -40 127 -40q93 0 144 40zM245 1233l-99 -100l-100 100l100 98zM480 1233l-99 -100l-98 100l98 98zM249 1029l-99 -100l-100 100l100 98zM484 1029l-99 -100l-99 100l99 98z" />
    <glyph glyph-name="uniFB71" unicode="&#x6a6;" horiz-adv-x="621" arabic-form="medial" 
d="M659 25q0 -25 -26 -25h-20q-164 0 -294 93q-112 -93 -310 -93h-20q-26 0 -26 25v89q0 30 26 30h20q123 0 187 24q-91 63 -91 186q0 110 73 196.5t205 132.5q160 -118 160 -284q0 -125 -117 -221q82 -34 187 -34h20q26 0 26 -30v-89zM452 375q0 88 -97 147
q-130 -25 -170 -171q10 -38 58 -86q44 -45 76 -58q64 20 100 71q33 45 33 97zM539 1145l-100 -99l-98 99l98 99zM304 1145l-100 -99l-100 99l100 99zM539 945l-100 -100l-98 100l98 98zM304 945l-100 -100l-100 100l100 98z" />
    <glyph glyph-name="uniFB72" unicode="&#x684;" horiz-adv-x="1045" arabic-form="isolated" 
d="M866 395q-77 -1 -155.5 -20.5t-151 -52.5t-135.5 -78.5t-109.5 -99.5t-73 -114.5t-26.5 -124.5q0 -78 40 -140.5t110 -105.5t166 -65.5t208 -22.5q40 0 80 2.5t77 7t68.5 11t54.5 14.5l-99 -117q-19 -9 -54 -17t-76 -14t-86 -9t-84 -3q-108 0 -208 25t-176.5 74.5
t-122 121.5t-45.5 167q0 106 45 195.5t120 162t170 127.5t196 90v4q-32 5 -71 13.5t-77 18t-70.5 18.5t-51.5 15q-30 10 -49.5 14.5t-34.5 4.5q-9 0 -18 -4.5t-18.5 -17t-21 -36t-28.5 -60.5q-11 0 -28 4t-28 14l78 164q20 41 42 60t48 19q9 0 40.5 -9t76.5 -22.5t99 -28.5
t107.5 -28.5t103.5 -22.5t86 -9q14 0 32.5 1t38.5 3t40 5t37 9zM685 61l-99 -98l-99 98l99 99zM685 -143l-99 -98l-99 98l99 99z" />
    <glyph glyph-name="uniFB73" unicode="&#x684;" horiz-adv-x="1045" arabic-form="final" 
d="M967 406q-46 0 -84.5 -4t-78.5 -12q0 -62 12 -108.5t39 -77t71.5 -45.5t109.5 -15h20q14 0 20.5 -6.5t6.5 -23.5v-89q0 -25 -27 -25h-20q-65 0 -119.5 14t-93.5 47t-61.5 87.5t-22.5 136.5q0 20 2 49.5t4 46.5q-98 -20 -193 -65t-170 -107.5t-121 -140.5t-46 -163
q0 -78 40 -140.5t110 -105.5t166 -65.5t208 -22.5q80 0 166 10t183 25l-101 -117q-44 -9 -92.5 -17t-96.5 -14t-93.5 -9t-84.5 -3q-108 0 -208 25t-176.5 74.5t-122 121.5t-45.5 167q0 106 45 195.5t120 162t170 127.5t196 90v4q-32 5 -71 13.5t-77 18t-70.5 18t-51.5 14.5
q-30 10 -49.5 15t-34.5 5q-9 0 -18 -4.5t-18.5 -17t-21 -36t-28.5 -60.5q-11 0 -28 4t-28 14l78 164q20 41 42 60t48 19q9 0 40.5 -9t76.5 -22.5t99 -28.5t107.5 -28.5t103.5 -22.5t86 -9q18 0 48 2.5t64 7t69.5 11t66.5 13.5zM642 53l-98 -99l-100 99l100 98zM642 -150
l-98 -100l-100 100l100 98z" />
    <glyph glyph-name="uniFB74" unicode="&#x684;" horiz-adv-x="966" arabic-form="initial" 
d="M823 181q-23 8 -49.5 11.5t-50.5 3.5q-41 0 -106 -22.5t-154 -61.5q-136 -60 -245 -86t-209 -26h-20q-26 0 -26 25v89q0 17 6 23.5t20 6.5h20q41 0 85.5 4.5t90.5 12.5t92 18t89 22q38 11 68.5 20t55.5 17t47 15.5t44 13.5v4q-17 4 -43.5 18t-56.5 34t-62 42.5t-62 44.5
q-43 34 -72.5 54.5t-50 31.5t-33 14t-21.5 3q-16 0 -37 -22t-55 -82q-13 2 -26.5 9.5t-23.5 17.5l89 159q23 39 43.5 52t48.5 13q15 0 35.5 -8t53 -29t79.5 -56t114 -89q57 -44 104 -76t93 -52.5t95 -30t110 -9.5zM502 -241l-99 -99l-98 99l98 99zM499 -444l-100 -99l-98 99
l98 99z" />
    <glyph glyph-name="uniFB75" unicode="&#x684;" horiz-adv-x="1139" arabic-form="medial" 
d="M726 -243l-99 -100l-98 100l98 98zM1177 25q0 -25 -25 -25q-355 0 -355 262q0 30 0.5 53t2.5 44q-19 -13 -49.5 -34.5t-68.5 -48.5t-82.5 -59t-91.5 -64q-112 -76 -237.5 -114.5t-271.5 -38.5h-10q-26 0 -26 25v89q0 30 26 30h10q116 0 227.5 27.5t216.5 86.5
q48 27 82.5 47t59 34t41.5 24t29 16v4q-12 0 -29 2t-43 9t-63 19.5t-89 33.5q-207 84 -220 84q-36 0 -86 -124q-28 0 -56 21l76 164q38 82 92 82q31 0 142 -49q38 -17 68 -30t54 -23t44 -17t38 -14q144 -50 259 -50q90 0 248 36l-66 -150q-58 -2 -99 -5t-65 -8
q3 -35 7.5 -61t11 -45.5t16.5 -34t24 -27.5q57 -52 212 -52h21q25 0 25 -30v-89zM726 -444l-99 -99l-98 99l98 99z" />
    <glyph glyph-name="uniFB76" unicode="&#x683;" horiz-adv-x="1045" arabic-form="isolated" 
d="M866 395q-77 -1 -155.5 -20.5t-151 -52.5t-135.5 -78.5t-109.5 -99.5t-73 -114.5t-26.5 -124.5q0 -78 40 -140.5t110 -105.5t166 -65.5t208 -22.5q40 0 80 2.5t77 7t68.5 11t54.5 14.5l-99 -117q-19 -9 -54 -17t-76 -14t-86 -9t-84 -3q-108 0 -208 25t-176.5 74.5
t-122 121.5t-45.5 167q0 106 45 195.5t120 162t170 127.5t196 90v4q-32 5 -71 13.5t-77 18t-70.5 18.5t-51.5 15q-30 10 -49.5 14.5t-34.5 4.5q-9 0 -18 -4.5t-18.5 -17t-21 -36t-28.5 -60.5q-11 0 -28 4t-28 14l78 164q20 41 42 60t48 19q9 0 40.5 -9t76.5 -22.5t99 -28.5
t107.5 -28.5t103.5 -22.5t86 -9q14 0 32.5 1t38.5 3t40 5t37 9zM802 -5l-98 -99l-99 99l99 99zM567 -5l-98 -99l-99 99l99 99z" />
    <glyph glyph-name="uniFB77" unicode="&#x683;" horiz-adv-x="1045" arabic-form="final" 
d="M967 406q-46 0 -84.5 -4t-78.5 -12q0 -62 12 -108.5t39 -77t71.5 -45.5t109.5 -15h20q14 0 20.5 -6.5t6.5 -23.5v-89q0 -25 -27 -25h-20q-65 0 -119.5 14t-93.5 47t-61.5 87.5t-22.5 136.5q0 20 2 49.5t4 46.5q-98 -20 -193 -65t-170 -107.5t-121 -140.5t-46 -163
q0 -78 40 -140.5t110 -105.5t166 -65.5t208 -22.5q80 0 166 10t183 25l-101 -117q-44 -9 -92.5 -17t-96.5 -14t-93.5 -9t-84.5 -3q-108 0 -208 25t-176.5 74.5t-122 121.5t-45.5 167q0 106 45 195.5t120 162t170 127.5t196 90v4q-32 5 -71 13.5t-77 18t-70.5 18t-51.5 14.5
q-30 10 -49.5 15t-34.5 5q-9 0 -18 -4.5t-18.5 -17t-21 -36t-28.5 -60.5q-11 0 -28 4t-28 14l78 164q20 41 42 60t48 19q9 0 40.5 -9t76.5 -22.5t99 -28.5t107.5 -28.5t103.5 -22.5t86 -9q18 0 48 2.5t64 7t69.5 11t66.5 13.5zM759 -40l-98 -99l-99 99l99 98zM524 -40
l-98 -99l-99 99l99 98z" />
    <glyph glyph-name="uniFB78" unicode="&#x683;" horiz-adv-x="966" arabic-form="initial" 
d="M823 181q-23 8 -49.5 11.5t-50.5 3.5q-41 0 -106 -22.5t-154 -61.5q-136 -60 -245 -86t-209 -26h-20q-26 0 -26 25v89q0 17 6 23.5t20 6.5h20q41 0 85.5 4.5t90.5 12.5t92 18t89 22q38 11 68.5 20t55.5 17t47 15.5t44 13.5v4q-17 4 -43.5 18t-56.5 34t-62 42.5t-62 44.5
q-43 34 -72.5 54.5t-50 31.5t-33 14t-21.5 3q-16 0 -37 -22t-55 -82q-13 2 -26.5 9.5t-23.5 17.5l89 159q23 39 43.5 52t48.5 13q15 0 35.5 -8t53 -29t79.5 -56t114 -89q57 -44 104 -76t93 -52.5t95 -30t110 -9.5zM616 -242l-99 -100l-98 100l98 98zM381 -242l-99 -100
l-99 100l99 98z" />
    <glyph glyph-name="uniFB79" unicode="&#x683;" horiz-adv-x="1139" arabic-form="medial" 
d="M844 -242l-99 -100l-99 100l99 98zM609 -242l-99 -100l-99 100l99 98zM1177 25q0 -25 -25 -25q-355 0 -355 262q0 30 0.5 53t2.5 44q-19 -13 -49.5 -34.5t-68.5 -48.5t-82.5 -59t-91.5 -64q-112 -76 -237.5 -114.5t-271.5 -38.5h-10q-26 0 -26 25v89q0 30 26 30h10
q116 0 227.5 27.5t216.5 86.5q48 27 82.5 47t59 34t41.5 24t29 16v4q-12 0 -29 2t-43 9t-63 19.5t-89 33.5q-207 84 -220 84q-36 0 -86 -124q-28 0 -56 21l76 164q38 82 92 82q31 0 142 -49q38 -17 68 -30t54 -23t44 -17t38 -14q144 -50 259 -50q90 0 248 36l-66 -150
q-58 -2 -99 -5t-65 -8q3 -35 7.5 -61t11 -45.5t16.5 -34t24 -27.5q57 -52 212 -52h21q25 0 25 -30v-89z" />
    <glyph glyph-name="uniFB7A" unicode="&#x686;" horiz-adv-x="1045" arabic-form="isolated" 
d="M866 395q-77 -1 -155.5 -20.5t-151 -52.5t-135.5 -78.5t-109.5 -99.5t-73 -114.5t-26.5 -124.5q0 -78 40 -140.5t110 -105.5t166 -65.5t208 -22.5q40 0 80 2.5t77 7t68.5 11t54.5 14.5l-99 -117q-19 -9 -54 -17t-76 -14t-86 -9t-84 -3q-108 0 -208 25t-176.5 74.5
t-122 121.5t-45.5 167q0 106 45 195.5t120 162t170 127.5t196 90v4q-32 5 -71 13.5t-77 18t-70.5 18.5t-51.5 15q-30 10 -49.5 14.5t-34.5 4.5q-9 0 -18 -4.5t-18.5 -17t-21 -36t-28.5 -60.5q-11 0 -28 4t-28 14l78 164q20 41 42 60t48 19q9 0 40.5 -9t76.5 -22.5t99 -28.5
t107.5 -28.5t103.5 -22.5t86 -9q14 0 32.5 1t38.5 3t40 5t37 9zM685 -189l-99 -98l-99 98l99 100zM802 13l-98 -99l-99 99l99 99zM567 13l-98 -99l-99 99l99 99z" />
    <glyph glyph-name="uniFB7B" unicode="&#x686;" horiz-adv-x="1045" arabic-form="final" 
d="M967 406q-46 0 -84.5 -4t-78.5 -12q0 -62 12 -108.5t39 -77t71.5 -45.5t109.5 -15h20q14 0 20.5 -6.5t6.5 -23.5v-89q0 -25 -27 -25h-20q-65 0 -119.5 14t-93.5 47t-61.5 87.5t-22.5 136.5q0 20 2 49.5t4 46.5q-98 -20 -193 -65t-170 -107.5t-121 -140.5t-46 -163
q0 -78 40 -140.5t110 -105.5t166 -65.5t208 -22.5q80 0 166 10t183 25l-101 -117q-44 -9 -92.5 -17t-96.5 -14t-93.5 -9t-84.5 -3q-108 0 -208 25t-176.5 74.5t-122 121.5t-45.5 167q0 106 45 195.5t120 162t170 127.5t196 90v4q-32 5 -71 13.5t-77 18t-70.5 18t-51.5 14.5
q-30 10 -49.5 15t-34.5 5q-9 0 -18 -4.5t-18.5 -17t-21 -36t-28.5 -60.5q-11 0 -28 4t-28 14l78 164q20 41 42 60t48 19q9 0 40.5 -9t76.5 -22.5t99 -28.5t107.5 -28.5t103.5 -22.5t86 -9q18 0 48 2.5t64 7t69.5 11t66.5 13.5zM642 -205l-98 -99l-100 99l100 98zM759 -4
l-98 -99l-99 99l99 99zM524 -4l-98 -99l-99 99l99 99z" />
    <glyph glyph-name="uniFB7C" unicode="&#x686;" horiz-adv-x="966" arabic-form="initial" 
d="M823 181q-23 8 -49.5 11.5t-50.5 3.5q-41 0 -106 -22.5t-154 -61.5q-136 -60 -245 -86t-209 -26h-20q-26 0 -26 25v89q0 17 6 23.5t20 6.5h20q41 0 85.5 4.5t90.5 12.5t92 18t89 22q38 11 68.5 20t55.5 17t47 15.5t44 13.5v4q-17 4 -43.5 18t-56.5 34t-62 42.5t-62 44.5
q-43 34 -72.5 54.5t-50 31.5t-33 14t-21.5 3q-16 0 -37 -22t-55 -82q-13 2 -26.5 9.5t-23.5 17.5l89 159q23 39 43.5 52t48.5 13q15 0 35.5 -8t53 -29t79.5 -56t114 -89q57 -44 104 -76t93 -52.5t95 -30t110 -9.5zM499 -444l-100 -99l-98 99l98 99zM616 -242l-99 -100
l-98 100l98 98zM381 -242l-99 -100l-99 100l99 98z" />
    <glyph glyph-name="uniFB7D" unicode="&#x686;" horiz-adv-x="1139" arabic-form="medial" 
d="M726 -444l-99 -99l-98 99l98 99zM844 -242l-99 -100l-99 100l99 98zM609 -242l-99 -100l-99 100l99 98zM1177 25q0 -25 -25 -25q-355 0 -355 262q0 30 0.5 53t2.5 44q-19 -13 -49.5 -34.5t-68.5 -48.5t-82.5 -59t-91.5 -64q-112 -76 -237.5 -114.5t-271.5 -38.5h-10
q-26 0 -26 25v89q0 30 26 30h10q116 0 227.5 27.5t216.5 86.5q48 27 82.5 47t59 34t41.5 24t29 16v4q-12 0 -29 2t-43 9t-63 19.5t-89 33.5q-207 84 -220 84q-36 0 -86 -124q-28 0 -56 21l76 164q38 82 92 82q31 0 142 -49q38 -17 68 -30t54 -23t44 -17t38 -14
q144 -50 259 -50q90 0 248 36l-66 -150q-58 -2 -99 -5t-65 -8q3 -35 7.5 -61t11 -45.5t16.5 -34t24 -27.5q57 -52 212 -52h21q25 0 25 -30v-89z" />
    <glyph glyph-name="uniFB7E" unicode="&#x687;" horiz-adv-x="1045" arabic-form="isolated" 
d="M866 395q-77 -1 -155.5 -20.5t-151 -52.5t-135.5 -78.5t-109.5 -99.5t-73 -114.5t-26.5 -124.5q0 -78 40 -140.5t110 -105.5t166 -65.5t208 -22.5q40 0 80 2.5t77 7t68.5 11t54.5 14.5l-99 -117q-19 -9 -54 -17t-76 -14t-86 -9t-84 -3q-108 0 -208 25t-176.5 74.5
t-122 121.5t-45.5 167q0 106 45 195.5t120 162t170 127.5t196 90v4q-32 5 -71 13.5t-77 18t-70.5 18.5t-51.5 15q-30 10 -49.5 14.5t-34.5 4.5q-9 0 -18 -4.5t-18.5 -17t-21 -36t-28.5 -60.5q-11 0 -28 4t-28 14l78 164q20 41 42 60t48 19q9 0 40.5 -9t76.5 -22.5t99 -28.5
t107.5 -28.5t103.5 -22.5t86 -9q14 0 32.5 1t38.5 3t40 5t37 9zM802 -161l-98 -99l-99 99l99 99zM567 -161l-98 -99l-99 99l99 99zM802 49l-98 -98l-99 98l99 99zM567 49l-98 -98l-99 98l99 99z" />
    <glyph glyph-name="uniFB7F" unicode="&#x687;" horiz-adv-x="1045" arabic-form="final" 
d="M967 406q-46 0 -84.5 -4t-78.5 -12q0 -62 12 -108.5t39 -77t71.5 -45.5t109.5 -15h20q14 0 20.5 -6.5t6.5 -23.5v-89q0 -25 -27 -25h-20q-65 0 -119.5 14t-93.5 47t-61.5 87.5t-22.5 136.5q0 20 2 49.5t4 46.5q-98 -20 -193 -65t-170 -107.5t-121 -140.5t-46 -163
q0 -78 40 -140.5t110 -105.5t166 -65.5t208 -22.5q80 0 166 10t183 25l-101 -117q-44 -9 -92.5 -17t-96.5 -14t-93.5 -9t-84.5 -3q-108 0 -208 25t-176.5 74.5t-122 121.5t-45.5 167q0 106 45 195.5t120 162t170 127.5t196 90v4q-32 5 -71 13.5t-77 18t-70.5 18t-51.5 14.5
q-30 10 -49.5 15t-34.5 5q-9 0 -18 -4.5t-18.5 -17t-21 -36t-28.5 -60.5q-11 0 -28 4t-28 14l78 164q20 41 42 60t48 19q9 0 40.5 -9t76.5 -22.5t99 -28.5t107.5 -28.5t103.5 -22.5t86 -9q18 0 48 2.5t64 7t69.5 11t66.5 13.5zM759 -178l-98 -99l-99 99l99 99zM524 -178
l-98 -99l-99 99l99 99zM759 33l-98 -100l-99 100l99 98zM524 33l-98 -100l-99 100l99 98z" />
    <glyph glyph-name="uniFB80" unicode="&#x687;" horiz-adv-x="966" arabic-form="initial" 
d="M823 181q-23 8 -49.5 11.5t-50.5 3.5q-41 0 -106 -22.5t-154 -61.5q-136 -60 -245 -86t-209 -26h-20q-26 0 -26 25v89q0 17 6 23.5t20 6.5h20q41 0 85.5 4.5t90.5 12.5t92 18t89 22q38 11 68.5 20t55.5 17t47 15.5t44 13.5v4q-17 4 -43.5 18t-56.5 34t-62 42.5t-62 44.5
q-43 34 -72.5 54.5t-50 31.5t-33 14t-21.5 3q-16 0 -37 -22t-55 -82q-13 2 -26.5 9.5t-23.5 17.5l89 159q23 39 43.5 52t48.5 13q15 0 35.5 -8t53 -29t79.5 -56t114 -89q57 -44 104 -76t93 -52.5t95 -30t110 -9.5zM616 -449l-99 -99l-98 99l98 98zM381 -449l-99 -99l-99 99
l99 98zM616 -242l-99 -100l-98 100l98 98zM381 -242l-99 -100l-99 100l99 98z" />
    <glyph glyph-name="uniFB81" unicode="&#x687;" horiz-adv-x="1139" arabic-form="medial" 
d="M844 -242l-99 -100l-99 100l99 98zM609 -242l-99 -100l-99 100l99 98zM1177 25q0 -25 -25 -25q-355 0 -355 262q0 30 0.5 53t2.5 44q-19 -13 -49.5 -34.5t-68.5 -48.5t-82.5 -59t-91.5 -64q-112 -76 -237.5 -114.5t-271.5 -38.5h-10q-26 0 -26 25v89q0 30 26 30h10
q116 0 227.5 27.5t216.5 86.5q48 27 82.5 47t59 34t41.5 24t29 16v4q-12 0 -29 2t-43 9t-63 19.5t-89 33.5q-207 84 -220 84q-36 0 -86 -124q-28 0 -56 21l76 164q38 82 92 82q31 0 142 -49q38 -17 68 -30t54 -23t44 -17t38 -14q144 -50 259 -50q90 0 248 36l-66 -150
q-58 -2 -99 -5t-65 -8q3 -35 7.5 -61t11 -45.5t16.5 -34t24 -27.5q57 -52 212 -52h21q25 0 25 -30v-89zM853 -443l-99 -99l-99 99l99 99zM618 -443l-99 -99l-99 99l99 99z" />
    <glyph glyph-name="uniFB82" unicode="&#x68d;" horiz-adv-x="715" arabic-form="isolated" 
d="M628 310q0 -80 -54 -228q-56 -35 -154 -62q-113 -31 -218 -31q-61 0 -117 18q-4 71 -4 94q0 39 15 132q15 4 24 4q14 0 27 -9v-28q0 -34 3 -49q40 -19 95 -19q76 0 178 30q89 27 124 50q0 299 -328 450l41 166q368 -196 368 -518zM608 -283l-112 -112l-124 104l113 113z
M362 -287l-112 -112l-125 105l114 113z" />
    <glyph glyph-name="uniFB83" unicode="&#x68d;" horiz-adv-x="768" arabic-form="final" 
d="M805 25q0 -25 -26 -25h-21q-107 0 -177 209h-3q-11 -76 -41 -140q-54 -28 -158 -54q-109 -26 -175 -26q-63 0 -119 18q-4 71 -4 94q0 39 15 132q15 4 24 4q14 0 27 -9v-28q0 -34 3 -49q40 -19 97 -19q78 0 178 32q96 31 143 67q-74 212 -154 487l80 174
q109 -495 166 -642q42 -106 98 -106h21q26 0 26 -30v-89zM608 -283l-112 -112l-124 104l113 113zM362 -287l-112 -112l-125 105l114 113z" />
    <glyph glyph-name="uniFB84" unicode="&#x68c;" horiz-adv-x="715" arabic-form="isolated" 
d="M628 310q0 -80 -53 -228q-56 -35 -154 -62q-113 -31 -218 -31q-61 0 -118 18q-3 71 -3 94q0 39 14 132q16 4 25 4q14 0 26 -9v-28q0 -34 4 -49q40 -19 95 -19q75 0 177 30q90 27 125 50q0 299 -328 450l41 166q367 -196 367 -518zM484 1096l-100 -99l-98 99l98 98z
M249 1096l-100 -99l-100 99l100 98z" />
    <glyph glyph-name="uniFB85" unicode="&#x68c;" horiz-adv-x="768" arabic-form="final" 
d="M805 25q0 -25 -26 -25h-21q-107 0 -177 209h-3q-11 -76 -41 -140q-54 -28 -158 -54q-109 -26 -175 -26q-63 0 -119 18q-4 71 -4 94q0 39 15 132q15 4 24 4q14 0 27 -9v-28q0 -34 3 -49q40 -19 97 -19q78 0 178 32q96 31 143 67q-74 212 -154 487l80 174
q109 -495 166 -642q42 -106 98 -106h21q26 0 26 -30v-89zM674 1096l-99 -99l-99 99l99 98zM439 1096l-99 -99l-100 99l100 98z" />
    <glyph glyph-name="uniFB86" unicode="&#x68e;" horiz-adv-x="715" arabic-form="isolated" 
d="M628 310q0 -80 -53 -228q-56 -35 -154 -62q-113 -31 -218 -31q-61 0 -118 18q-3 71 -3 94q0 39 14 132q16 4 25 4q14 0 26 -9v-28q0 -34 4 -49q40 -19 95 -19q75 0 177 30q90 27 125 50q0 299 -328 450l41 166q367 -196 367 -518zM366 1297l-99 -99l-99 99l99 99z
M484 1096l-100 -99l-98 99l98 98zM249 1096l-100 -99l-100 99l100 98z" />
    <glyph glyph-name="uniFB87" unicode="&#x68e;" horiz-adv-x="768" arabic-form="final" 
d="M805 25q0 -25 -26 -25h-21q-107 0 -177 209h-3q-11 -76 -41 -140q-54 -28 -158 -54q-109 -26 -175 -26q-63 0 -119 18q-4 71 -4 94q0 39 15 132q15 4 24 4q14 0 27 -9v-28q0 -34 3 -49q40 -19 97 -19q78 0 178 32q96 31 143 67q-74 212 -154 487l80 174
q109 -495 166 -642q42 -106 98 -106h21q26 0 26 -30v-89zM557 1297l-100 -99l-98 99l98 99zM674 1096l-99 -99l-99 99l99 98zM439 1096l-99 -99l-100 99l100 98z" />
    <glyph glyph-name="uniFB88" unicode="&#x688;" horiz-adv-x="715" arabic-form="isolated" 
d="M628 310q0 -80 -53 -228q-56 -35 -154 -62q-113 -31 -218 -31q-61 0 -118 18q-3 71 -3 94q0 39 14 132q16 4 25 4q13 0 26 -9v-28q0 -34 4 -49q40 -19 95 -19q75 0 177 30q90 27 125 50q0 299 -328 450l41 166q367 -196 367 -518zM257 1230q0 -29 -0.5 -50.5t-4.5 -36.5
l2 -1q31 47 70 72t73 25q25 0 45 -10t35 -26t24.5 -35.5t13.5 -38.5q-21 -51 -49.5 -83.5t-69 -50.5t-94 -26t-124.5 -10l-100 89q32 -5 61 -7t53 -2l14 45q0 56 -0.5 98t-3.5 76t-7 61.5t-10 51.5l59 62q8 -29 25 -64.5t45 -76.5l-5 -5l-54 24q2 -41 2 -81zM372 1165
q-43 0 -79 -34.5t-70 -91.5q34 0 70.5 5.5t68.5 14.5t57 20t38 22q-16 34 -37 49t-48 15z" />
    <glyph glyph-name="uniFB89" unicode="&#x688;" horiz-adv-x="768" arabic-form="final" 
d="M805 25q0 -25 -26 -25h-21q-107 0 -177 209h-3q-11 -76 -41 -140q-54 -28 -158 -54q-109 -26 -175 -26q-63 0 -119 18q-4 71 -4 94q0 39 15 132q15 4 24 4q14 0 27 -9v-28q0 -34 3 -49q40 -19 97 -19q78 0 178 32q96 31 143 67q-74 212 -154 487l80 174
q109 -495 166 -642q42 -106 98 -106h21q26 0 26 -30v-89zM384 1257q0 -29 -0.5 -50.5t-4.5 -35.5l2 -1q31 46 70 71t73 25q25 0 45 -10t35 -26t24.5 -35.5t13.5 -38.5q-21 -51 -49.5 -83.5t-69 -50.5t-94 -26t-124.5 -9l-100 88q32 -5 61 -6.5t53 -1.5l14 44q0 56 -0.5 98.5
t-3.5 76t-7 61t-11 51.5l60 62q8 -29 25 -64.5t45 -76.5l-5 -4l-54 23q2 -41 2 -81zM499 1193q-44 0 -80 -35t-69 -92q34 1 70.5 6.5t68.5 14t57 19.5t38 22q-17 34 -37.5 49.5t-47.5 15.5z" />
    <glyph glyph-name="uniFB8A" unicode="&#x698;" horiz-adv-x="615" arabic-form="isolated" 
d="M388 431q29 -42 55 -91.5t46.5 -97.5t34.5 -89.5t19 -66.5q-5 -70 -24.5 -142t-55 -147t-88.5 -150.5t-127 -152.5q-34 0 -71 5.5t-71 15t-62.5 21t-43.5 24.5q109 53 190 112.5t137 118.5t86.5 113t38.5 96q-3 25 -11 55t-23.5 61.5t-39 64.5t-55.5 63zM457 911l-99 -99
l-98 99l98 98zM575 710l-99 -100l-99 100l99 98zM340 710l-99 -100l-101 100l101 98z" />
    <glyph glyph-name="uniFB8B" unicode="&#x698;" horiz-adv-x="686" arabic-form="final" 
d="M404 431l94 -146q50 -76 93.5 -108.5t85.5 -32.5h21q14 0 20 -6.5t6 -23.5v-89q0 -25 -26 -25h-21q-24 0 -51.5 12t-59.5 40q-11 -84 -33.5 -156.5t-60 -141t-93 -139t-131.5 -149.5q-34 0 -71 5.5t-71 14.5t-62.5 21t-43.5 25q121 57 209 123t147 130.5t89.5 120.5
t37.5 94q-8 59 -40.5 119t-100.5 125zM487 911l-99 -99l-98 99l98 98zM605 710l-99 -100l-99 100l99 98zM370 710l-99 -100l-101 100l101 98z" />
    <glyph glyph-name="uniFB8C" unicode="&#x691;" horiz-adv-x="615" arabic-form="isolated" 
d="M388 431q29 -42 55 -91.5t46.5 -97.5t34.5 -89.5t19 -66.5q-5 -70 -24.5 -142t-55 -147t-88.5 -150.5t-127 -152.5q-34 0 -71 5.5t-71 15t-62.5 21t-43.5 24.5q109 53 190 112.5t137 118.5t86.5 113t38.5 96q-3 25 -11 55t-23.5 61.5t-39 64.5t-55.5 63zM294 902
q0 -29 -1 -50.5t-4 -36.5l2 -1q31 47 70 72t73 25q25 0 45 -10t34.5 -26t24.5 -35.5t14 -38.5q-21 -51 -49.5 -83.5t-69 -50.5t-94 -26t-124.5 -10l-100 89q32 -5 61 -6.5t53 -1.5l14 44q0 56 -1 98t-3.5 76t-6.5 61.5t-11 51.5l60 62q8 -29 25 -64.5t45 -76.5l-5 -5l-54 24
q2 -41 2 -81zM409 837q-44 0 -80 -34.5t-69 -91.5q34 1 70.5 6t68.5 14t57 20t38 22q-17 34 -38 49t-47 15z" />
    <glyph glyph-name="uniFB8D" unicode="&#x691;" horiz-adv-x="686" arabic-form="final" 
d="M404 431l94 -146q50 -76 93.5 -108.5t85.5 -32.5h21q14 0 20 -6.5t6 -23.5v-89q0 -25 -26 -25h-21q-24 0 -51.5 12t-59.5 40q-11 -84 -33.5 -156.5t-60 -141t-93 -139t-131.5 -149.5q-34 0 -71 5.5t-71 14.5t-62.5 21t-43.5 25q121 57 209 123t147 130.5t89.5 120.5
t37.5 94q-8 59 -40.5 119t-100.5 125zM322 893q0 -29 -1 -50.5t-5 -36.5l2 -1q31 47 70 72t73 25q25 0 45.5 -10t35 -26t24 -35.5t13.5 -38.5q-21 -51 -49.5 -83.5t-69 -50.5t-94 -26t-124.5 -10l-100 89q32 -5 61 -7t53 -2l15 45q0 56 -1 98t-4 76t-7 61t-10 52l59 62
q8 -29 25 -64.5t45 -76.5l-4 -5l-55 24q3 -41 3 -81zM436 828q-43 0 -79 -34.5t-70 -92.5q35 1 71 6.5t68 14.5t57 20t38 21q-16 35 -37 50t-48 15z" />
    <glyph glyph-name="uniFB8E" unicode="&#x6a9;" horiz-adv-x="1663" arabic-form="isolated" 
d="M1293 179q-38 -50 -99.5 -86t-151 -59t-209 -34t-275.5 -11q-124 0 -213.5 21.5t-146.5 59.5t-84.5 88t-27.5 107q0 70 29 145.5t76 155.5q3 2 14 2q9 0 22.5 -10t20.5 -22q-15 -26 -27 -53t-19.5 -52t-12 -46.5t-4.5 -37.5q0 -45 27.5 -82.5t80 -64.5t129.5 -41.5
t177 -14.5q551 0 653 136q-3 42 -20.5 83t-61 85.5t-116.5 95.5t-186 113l22 207q41 31 102.5 70t131 81.5t143.5 84.5t142.5 78.5t127 65t96.5 41.5l-73 -176q-26 -10 -76 -34.5t-110.5 -56t-126 -68t-125 -71.5t-107 -65.5t-71.5 -50.5q95 -53 163 -102.5t113 -95.5
t70 -89.5t35 -87.5q-3 -24 -6 -50.5t-7 -54.5t-9 -55t-10 -49z" />
    <glyph glyph-name="uniFB8F" unicode="&#x6a9;" horiz-adv-x="1773" arabic-form="final" 
d="M1316 179q-28 -35 -59.5 -63t-72.5 -49t-94 -36t-124.5 -24.5t-164.5 -13.5t-213 -4q-135 0 -230 21.5t-155.5 59.5t-88.5 88t-28 107q0 70 29 145.5t76 155.5q3 2 14 2q9 0 22.5 -10t20.5 -22q-15 -26 -27 -53t-19.5 -52t-12 -46.5t-4.5 -37.5q0 -45 28 -82.5t83 -64.5
t137.5 -41.5t191.5 -14.5q153 0 264.5 8t189 25.5t125.5 42.5t75 60q-3 42 -21 83t-61 85.5t-116.5 95.5t-186.5 113l23 207q42 31 102.5 70t130 81.5t144 84.5t142.5 78.5t126.5 65t96.5 41.5l-73 -176q-26 -10 -75.5 -34.5t-110 -56t-126.5 -68t-125 -71.5t-107 -65.5
t-71 -50.5q83 -51 156.5 -102.5t150.5 -114.5t164 -144.5t198 -191.5q32 -32 65 -49t59 -17h20q15 0 21 -6.5t6 -23.5v-89q0 -25 -27 -25h-20q-23 0 -44 4t-45 17t-53.5 38t-71 66.5t-96.5 103t-129 146.5l-4 -3q5 -23 7 -44.5t2 -38.5q0 -27 -4.5 -56.5t-9.5 -53.5z" />
    <glyph glyph-name="uniFB90" unicode="&#x6a9;" horiz-adv-x="828" arabic-form="initial" 
d="M726 1109q-26 -10 -75.5 -34.5t-110 -56t-126.5 -68t-125.5 -71.5t-107 -65.5t-70.5 -50.5q94 -53 162 -102.5t113 -95.5t70 -89.5t35 -87.5q-2 -24 -5.5 -50.5t-7.5 -54.5t-9 -55t-9 -49q-49 -51 -97.5 -85t-103 -55t-115.5 -30t-135 -9h-20q-26 0 -26 25v89
q0 17 6 23.5t20 6.5h52q142 0 235 35.5t143 100.5q-3 42 -21 83t-61 85.5t-116.5 95.5t-186.5 113l22 207q42 31 103 70t130.5 81.5t144 84.5t142.5 78.5t126.5 65t96.5 41.5z" />
    <glyph glyph-name="uniFB91" unicode="&#x6a9;" horiz-adv-x="932" arabic-form="medial" 
d="M971 25q0 -25 -27 -25h-20q-23 0 -44 4t-45 17t-53.5 38t-71 66.5t-96.5 103t-129 146.5l-4 -3q5 -23 7 -44.5t2 -38.5q0 -27 -4.5 -56.5t-9.5 -53.5q-47 -51 -95.5 -85t-102.5 -55t-116 -30t-137 -9h-36q-26 0 -26 25v89q0 17 6 23.5t20 6.5h73q141 0 234 35.5
t143 100.5q-3 42 -21 83t-61 85.5t-116.5 95.5t-186.5 113l23 207q42 31 102.5 70t130 81.5t144 84.5t142.5 78.5t126.5 65t96.5 41.5l-73 -176q-26 -10 -75.5 -34.5t-109.5 -56t-126.5 -68t-125.5 -71.5t-107 -65.5t-71 -50.5q83 -51 156.5 -102.5t150.5 -114.5t164 -144.5
t198 -191.5q32 -32 65 -49t59 -17h20q15 0 21 -6.5t6 -23.5v-89z" />
    <glyph glyph-name="uniFB92" unicode="&#x6af;" horiz-adv-x="1663" arabic-form="isolated" 
d="M935 1052q59 30 122 58.5t125 54.5t120.5 48.5t108.5 40t89 29.5t64 17l-61 -100q-16 -4 -54.5 -17.5t-90.5 -33t-113 -44t-121 -48.5t-113.5 -47t-91.5 -42zM1525 942q-31 -6 -78.5 -19.5t-103.5 -31t-116 -37.5t-114 -40t-99 -39t-72 -33q101 -46 169 -91t113 -89
t68 -87t33 -87q-2 -23 -5 -49.5t-7 -55t-9 -55.5t-11 -49q-38 -50 -99.5 -86t-151 -59t-209 -34t-275.5 -11q-124 0 -213.5 21.5t-146.5 59.5t-84.5 88t-27.5 107q0 70 29 145.5t76 155.5q3 2 14 2q9 0 22.5 -10t20.5 -22q-15 -26 -27 -53t-19.5 -52t-12 -46.5t-4.5 -37.5
q0 -45 27.5 -82.5t80 -64.5t129.5 -41.5t177 -14.5q551 0 653 136q-2 37 -22 80.5t-65 91t-117.5 96t-179.5 94.5l19 200q95 43 203 85.5t210.5 79.5t190 65t142.5 40z" />
    <glyph glyph-name="uniFB93" unicode="&#x6af;" horiz-adv-x="1773" arabic-form="final" 
d="M1811 25q0 -25 -27 -25h-21q-23 0 -43.5 4t-44.5 17t-54 38t-71 66.5t-96 103t-129 146.5l-4 -3q5 -23 6.5 -44.5t1.5 -38.5q0 -27 -4 -56.5t-9 -53.5q-28 -35 -59.5 -63t-72.5 -49t-94 -36t-124.5 -24.5t-164.5 -13.5t-213 -4q-135 0 -230 21.5t-155.5 59.5t-88.5 88
t-28 107q0 70 29 145.5t76 155.5q3 2 14 2q9 0 22.5 -10t20.5 -22q-15 -26 -27 -53t-19.5 -52t-12 -46.5t-4.5 -37.5q0 -45 28 -82.5t83 -64.5t137.5 -41.5t191.5 -14.5q153 0 264.5 8t189 25.5t125.5 42.5t75 60q-3 37 -23.5 80.5t-65.5 91t-118 96t-180 94.5l19 200
q64 28 140 57.5t155.5 57.5t158 53.5t148 47t126 37t91.5 23.5l-119 -171q-30 -6 -82 -20t-115 -32.5t-130 -39t-129 -41t-112 -39.5t-76 -33q80 -41 154 -88.5t152.5 -109t167.5 -143t200 -191.5q32 -32 65 -49t57 -17h21q14 0 20.5 -6.5t6.5 -23.5v-89zM962 1043
q58 30 125.5 59.5t136 55.5t135 50t123.5 42.5t101 31.5t69 18l-80 -106q-16 -3 -57 -17.5t-98 -34.5t-123.5 -44t-131.5 -49t-122.5 -48t-95.5 -42z" />
    <glyph glyph-name="uniFB94" unicode="&#x6af;" horiz-adv-x="828" arabic-form="initial" 
d="M691 942q-31 -6 -78.5 -19.5t-103.5 -31t-115.5 -37.5t-114 -40t-99.5 -39t-71 -33q100 -46 168.5 -91t113 -89t67.5 -87t33 -87q-2 -24 -5.5 -50.5t-7.5 -54.5t-9 -55t-9 -49q-49 -51 -97.5 -85t-103 -55t-115.5 -30t-135 -9h-20q-26 0 -26 25v89q0 17 6 23.5t20 6.5h52
q142 0 235 35.5t143 100.5q-2 37 -22.5 80.5t-65.5 91t-117.5 96t-179.5 94.5l18 200q64 28 134 56.5t141 56t140 52.5t130.5 45.5t113.5 36t88 23.5zM101 1052q60 30 122.5 58.5t124 54.5t120 48.5t108.5 40t89.5 29.5t64.5 17l-62 -100q-15 -4 -53.5 -17.5t-91 -33
t-113 -44t-120.5 -48.5t-114 -47t-92 -42z" />
    <glyph glyph-name="uniFB95" unicode="&#x6af;" horiz-adv-x="932" arabic-form="medial" 
d="M71 842q64 28 140 57.5t155.5 57.5t158 53.5t148 47t126 37t91.5 23.5l-119 -171q-30 -6 -82 -20t-114.5 -32.5t-130 -39t-129 -41t-112 -39.5t-76.5 -33q80 -41 154.5 -88.5t152.5 -109t167.5 -143t200.5 -191.5q32 -32 64.5 -49t57.5 -17h20q15 0 21 -6.5t6 -23.5v-89
q0 -25 -27 -25h-20q-23 0 -44 4t-45 17t-53.5 38t-71 66.5t-96.5 103t-129 146.5l-4 -3q5 -23 7 -44.5t2 -38.5q0 -27 -4.5 -56.5t-9.5 -53.5q-47 -51 -95.5 -85t-102.5 -55t-116 -30t-137 -9h-36q-26 0 -26 25v89q0 17 6 23.5t20 6.5h73q141 0 234 35.5t143 100.5
q-3 37 -23.5 80.5t-65.5 91t-117.5 96t-180.5 94.5zM122 1043q58 30 125.5 59.5t136 55.5t135 50t123.5 42.5t101 31.5t69 18l-80 -106q-16 -3 -57 -17.5t-98 -34.5t-123.5 -44t-131.5 -49t-122 -48t-95 -42z" />
    <glyph glyph-name="uniFB96" unicode="&#x6b3;" horiz-adv-x="1663" arabic-form="isolated" 
d="M935 1052q59 30 122 58.5t125 54.5t120.5 48.5t108.5 40t89 29.5t64 17l-61 -100q-16 -4 -54.5 -17.5t-90.5 -33t-113 -44t-121 -48.5t-113.5 -47t-91.5 -42zM1525 942q-31 -6 -78.5 -19.5t-103.5 -31t-116 -37.5t-114 -40t-99 -39t-72 -33q101 -46 169 -91t113 -89
t68 -87t33 -87q-2 -23 -5 -49.5t-7 -55t-9 -55.5t-11 -49q-38 -50 -99.5 -86t-151 -59t-209 -34t-275.5 -11q-124 0 -213.5 21.5t-146.5 59.5t-84.5 88t-27.5 107q0 70 29 145.5t76 155.5q3 2 14 2q9 0 22.5 -10t20.5 -22q-15 -26 -27 -53t-19.5 -52t-12 -46.5t-4.5 -37.5
q0 -45 27.5 -82.5t80 -64.5t129.5 -41.5t177 -14.5q551 0 653 136q-2 37 -22 80.5t-65 91t-117.5 96t-179.5 94.5l19 200q95 43 203 85.5t210.5 79.5t190 65t142.5 40zM738 -237l-99 -99l-98 99l98 99zM736 -444l-100 -99l-98 99l98 99z" />
    <glyph glyph-name="uniFB97" unicode="&#x6b3;" horiz-adv-x="1773" arabic-form="final" 
d="M1811 25q0 -25 -27 -25h-21q-23 0 -43.5 4t-44.5 17t-54 38t-71 66.5t-96 103t-129 146.5l-4 -3q5 -23 6.5 -44.5t1.5 -38.5q0 -27 -4 -56.5t-9 -53.5q-28 -35 -59.5 -63t-72.5 -49t-94 -36t-124.5 -24.5t-164.5 -13.5t-213 -4q-135 0 -230 21.5t-155.5 59.5t-88.5 88
t-28 107q0 70 29 145.5t76 155.5q3 2 14 2q9 0 22.5 -10t20.5 -22q-15 -26 -27 -53t-19.5 -52t-12 -46.5t-4.5 -37.5q0 -45 28 -82.5t83 -64.5t137.5 -41.5t191.5 -14.5q153 0 264.5 8t189 25.5t125.5 42.5t75 60q-3 37 -23.5 80.5t-65.5 91t-118 96t-180 94.5l19 200
q64 28 140 57.5t155.5 57.5t158 53.5t148 47t126 37t91.5 23.5l-119 -171q-30 -6 -82 -20t-115 -32.5t-130 -39t-129 -41t-112 -39.5t-76 -33q80 -41 154 -88.5t152.5 -109t167.5 -143t200 -191.5q32 -32 65 -49t57 -17h21q14 0 20.5 -6.5t6.5 -23.5v-89zM962 1043
q58 30 125.5 59.5t136 55.5t135 50t123.5 42.5t101 31.5t69 18l-80 -106q-16 -3 -57 -17.5t-98 -34.5t-123.5 -44t-131.5 -49t-122.5 -48t-95.5 -42zM738 -237l-99 -99l-98 99l98 99zM736 -444l-100 -99l-98 99l98 99z" />
    <glyph glyph-name="uniFB98" unicode="&#x6b3;" horiz-adv-x="828" arabic-form="initial" 
d="M691 942q-31 -6 -78.5 -19.5t-103.5 -31t-115.5 -37.5t-114 -40t-99.5 -39t-71 -33q100 -46 168.5 -91t113 -89t67.5 -87t33 -87q-2 -24 -5.5 -50.5t-7.5 -54.5t-9 -55t-9 -49q-49 -51 -97.5 -85t-103 -55t-115.5 -30t-135 -9h-20q-26 0 -26 25v89q0 17 6 23.5t20 6.5h52
q142 0 235 35.5t143 100.5q-2 37 -22.5 80.5t-65.5 91t-117.5 96t-179.5 94.5l18 200q64 28 134 56.5t141 56t140 52.5t130.5 45.5t113.5 36t88 23.5zM101 1052q60 30 122.5 58.5t124 54.5t120 48.5t108.5 40t89.5 29.5t64.5 17l-62 -100q-15 -4 -53.5 -17.5t-91 -33
t-113 -44t-120.5 -48.5t-114 -47t-92 -42zM366 -237l-100 -99l-98 99l98 99zM363 -444l-99 -99l-99 99l99 99z" />
    <glyph glyph-name="uniFB99" unicode="&#x6b3;" horiz-adv-x="932" arabic-form="medial" 
d="M71 842q64 28 140 57.5t155.5 57.5t158 53.5t148 47t126 37t91.5 23.5l-119 -171q-30 -6 -82 -20t-114.5 -32.5t-130 -39t-129 -41t-112 -39.5t-76.5 -33q80 -41 154.5 -88.5t152.5 -109t167.5 -143t200.5 -191.5q32 -32 64.5 -49t57.5 -17h20q15 0 21 -6.5t6 -23.5v-89
q0 -25 -27 -25h-20q-23 0 -44 4t-45 17t-53.5 38t-71 66.5t-96.5 103t-129 146.5l-4 -3q5 -23 7 -44.5t2 -38.5q0 -27 -4.5 -56.5t-9.5 -53.5q-47 -51 -95.5 -85t-102.5 -55t-116 -30t-137 -9h-36q-26 0 -26 25v89q0 17 6 23.5t20 6.5h73q141 0 234 35.5t143 100.5
q-3 37 -23.5 80.5t-65.5 91t-117.5 96t-180.5 94.5zM122 1043q58 30 125.5 59.5t136 55.5t135 50t123.5 42.5t101 31.5t69 18l-80 -106q-16 -3 -57 -17.5t-98 -34.5t-123.5 -44t-131.5 -49t-122 -48t-95 -42zM384 -237l-99 -99l-99 99l99 99zM381 -444l-99 -99l-99 99l99 99
z" />
    <glyph glyph-name="uniFB9A" unicode="&#x6b1;" horiz-adv-x="1663" arabic-form="isolated" 
d="M935 1052q59 30 122 58.5t125 54.5t120.5 48.5t108.5 40t89 29.5t64 17l-61 -100q-16 -4 -54.5 -17.5t-90.5 -33t-113 -44t-121 -48.5t-113.5 -47t-91.5 -42zM1525 942q-31 -6 -78.5 -19.5t-103.5 -31t-116 -37.5t-114 -40t-99 -39t-72 -33q101 -46 169 -91t113 -89
t68 -87t33 -87q-2 -23 -5 -49.5t-7 -55t-9 -55.5t-11 -49q-38 -50 -99.5 -86t-151 -59t-209 -34t-275.5 -11q-124 0 -213.5 21.5t-146.5 59.5t-84.5 88t-27.5 107q0 70 29 145.5t76 155.5q3 2 14 2q9 0 22.5 -10t20.5 -22q-15 -26 -27 -53t-19.5 -52t-12 -46.5t-4.5 -37.5
q0 -45 27.5 -82.5t80 -64.5t129.5 -41.5t177 -14.5q551 0 653 136q-2 37 -22 80.5t-65 91t-117.5 96t-179.5 94.5l19 200q95 43 203 85.5t210.5 79.5t190 65t142.5 40zM1177 1247l-99 99l99 99l99 -99zM941 1247l-98 99l98 99l100 -99z" />
    <glyph glyph-name="uniFB9B" unicode="&#x6b1;" horiz-adv-x="1773" arabic-form="final" 
d="M1811 25q0 -25 -27 -25h-21q-23 0 -43.5 4t-44.5 17t-54 38t-71 66.5t-96 103t-129 146.5l-4 -3q5 -23 6.5 -44.5t1.5 -38.5q0 -27 -4 -56.5t-9 -53.5q-28 -35 -59.5 -63t-72.5 -49t-94 -36t-124.5 -24.5t-164.5 -13.5t-213 -4q-135 0 -230 21.5t-155.5 59.5t-88.5 88
t-28 107q0 70 29 145.5t76 155.5q3 2 14 2q9 0 22.5 -10t20.5 -22q-15 -26 -27 -53t-19.5 -52t-12 -46.5t-4.5 -37.5q0 -45 28 -82.5t83 -64.5t137.5 -41.5t191.5 -14.5q153 0 264.5 8t189 25.5t125.5 42.5t75 60q-3 37 -23.5 80.5t-65.5 91t-118 96t-180 94.5l19 200
q64 28 140 57.5t155.5 57.5t158 53.5t148 47t126 37t91.5 23.5l-119 -171q-30 -6 -82 -20t-115 -32.5t-130 -39t-129 -41t-112 -39.5t-76 -33q80 -41 154 -88.5t152.5 -109t167.5 -143t200 -191.5q32 -32 65 -49t57 -17h21q14 0 20.5 -6.5t6.5 -23.5v-89zM962 1043
q58 30 125.5 59.5t136 55.5t135 50t123.5 42.5t101 31.5t69 18l-80 -106q-16 -3 -57 -17.5t-98 -34.5t-123.5 -44t-131.5 -49t-122.5 -48t-95.5 -42zM1186 1247l-99 99l99 99l99 -99zM951 1247l-99 99l99 99l99 -99z" />
    <glyph glyph-name="uniFB9C" unicode="&#x6b1;" horiz-adv-x="828" arabic-form="initial" 
d="M691 942q-31 -6 -78.5 -19.5t-103.5 -31t-115.5 -37.5t-114 -40t-99.5 -39t-71 -33q100 -46 168.5 -91t113 -89t67.5 -87t33 -87q-2 -24 -5.5 -50.5t-7.5 -54.5t-9 -55t-9 -49q-49 -51 -97.5 -85t-103 -55t-115.5 -30t-135 -9h-20q-26 0 -26 25v89q0 17 6 23.5t20 6.5h52
q142 0 235 35.5t143 100.5q-2 37 -22.5 80.5t-65.5 91t-117.5 96t-179.5 94.5l18 200q64 28 134 56.5t141 56t140 52.5t130.5 45.5t113.5 36t88 23.5zM101 1052q60 30 122.5 58.5t124 54.5t120 48.5t108.5 40t89.5 29.5t64.5 17l-62 -100q-15 -4 -53.5 -17.5t-91 -33
t-113 -44t-120.5 -48.5t-114 -47t-92 -42zM357 1247l-98 99l98 99l100 -99zM122 1247l-98 99l98 99l100 -99z" />
    <glyph glyph-name="uniFB9D" unicode="&#x6b1;" horiz-adv-x="932" arabic-form="medial" 
d="M71 842q64 28 140 57.5t155.5 57.5t158 53.5t148 47t126 37t91.5 23.5l-119 -171q-30 -6 -82 -20t-114.5 -32.5t-130 -39t-129 -41t-112 -39.5t-76.5 -33q80 -41 154.5 -88.5t152.5 -109t167.5 -143t200.5 -191.5q32 -32 64.5 -49t57.5 -17h20q15 0 21 -6.5t6 -23.5v-89
q0 -25 -27 -25h-20q-23 0 -44 4t-45 17t-53.5 38t-71 66.5t-96.5 103t-129 146.5l-4 -3q5 -23 7 -44.5t2 -38.5q0 -27 -4.5 -56.5t-9.5 -53.5q-47 -51 -95.5 -85t-102.5 -55t-116 -30t-137 -9h-36q-26 0 -26 25v89q0 17 6 23.5t20 6.5h73q141 0 234 35.5t143 100.5
q-3 37 -23.5 80.5t-65.5 91t-117.5 96t-180.5 94.5zM122 1043q58 30 125.5 59.5t136 55.5t135 50t123.5 42.5t101 31.5t69 18l-80 -106q-16 -3 -57 -17.5t-98 -34.5t-123.5 -44t-131.5 -49t-122 -48t-95 -42zM376 1247l-99 99l99 99l99 -99zM141 1247l-99 99l99 99l99 -99z
" />
    <glyph glyph-name="uniFB9E" unicode="&#x6ba;" horiz-adv-x="1183" arabic-form="isolated" 
d="M1081 62q-4 -74 -58 -207q-86 -85 -245 -150q-177 -72 -346 -72q-160 0 -257 75q-103 81 -103 222q0 165 141 412q32 0 62 -30q-37 -62 -63 -153q-22 -84 -22 -140q0 -106 73 -169t206 -62q150 1 294 58t246 152q0 60 -30 181q-32 130 -75 214l89 192q89 -241 89 -480
q0 -23 -1 -43z" />
    <glyph glyph-name="uniFB9F" unicode="&#x6ba;" horiz-adv-x="1157" arabic-form="final" 
d="M1194 25q0 -25 -27 -25h-21q-53 0 -93 43l-3 -4q26 -68 26 -153q-15 -92 -62 -207q-86 -85 -245 -150q-177 -72 -346 -72q-160 0 -257 76q-103 80 -103 221q0 165 141 412q32 0 62 -29q-37 -63 -63 -154q-22 -84 -22 -140q0 -106 73 -169t206 -62q315 2 543 210
q-24 233 -147 422l63 187q129 -287 227 -287h21q27 0 27 -30v-89z" />
    <glyph glyph-name="uniFBA0" unicode="&#x6bb;" horiz-adv-x="1183" arabic-form="isolated" 
d="M1081 62q-4 -74 -58 -207q-86 -85 -245 -150q-177 -72 -346 -72q-160 0 -257 75q-103 81 -103 222q0 165 141 412q32 0 62 -30q-37 -62 -63 -153q-22 -84 -22 -140q0 -106 73 -169t206 -62q150 1 294 58t246 152q0 60 -30 181q-32 130 -75 214l89 192q89 -241 89 -480
q0 -23 -1 -43zM507 867q0 -29 -0.5 -50.5t-4.5 -35.5l2 -1q31 46 70 71t73 25q25 0 45 -10t35 -26t24.5 -35.5t13.5 -38.5q-21 -51 -49.5 -83.5t-69 -50.5t-94 -25.5t-124.5 -9.5l-100 88q32 -4 61 -6t53 -2l14 45q0 55 -0.5 97.5t-3.5 76t-7 61t-10 52.5l59 61
q8 -29 25 -64.5t45 -76.5l-5 -4l-54 23q2 -41 2 -81zM622 803q-43 0 -79 -35t-70 -92q34 1 70.5 6.5t68.5 14t57 19.5t38 22q-16 35 -37 50t-48 15z" />
    <glyph glyph-name="uniFBA1" unicode="&#x6bb;" horiz-adv-x="1157" arabic-form="final" 
d="M1194 25q0 -25 -27 -25h-21q-53 0 -93 43l-3 -4q26 -68 26 -153q-15 -92 -62 -207q-86 -85 -245 -150q-177 -72 -346 -72q-160 0 -257 76q-103 80 -103 221q0 165 141 412q32 0 62 -29q-37 -63 -63 -154q-22 -84 -22 -140q0 -106 73 -169t206 -62q315 2 543 210
q-24 233 -147 422l63 187q129 -287 227 -287h21q27 0 27 -30v-89zM499 691q0 -30 -0.5 -51t-4.5 -36l2 -1q31 47 70 72t73 25q25 0 45 -10t35 -26t24.5 -35.5t13.5 -39.5q-21 -51 -49.5 -83t-69 -50.5t-94 -26t-124.5 -9.5l-100 88q32 -4 61 -6t53 -2l14 45q0 55 -0.5 97.5
t-3.5 76.5t-7 61t-10 52l59 62q8 -29 25 -64.5t45 -76.5l-5 -5l-54 24q2 -41 2 -81zM614 626q-44 0 -80 -34.5t-69 -92.5q34 1 70.5 6.5t68.5 14t57 19.5t38 22q-16 35 -37 50t-48 15z" />
    <glyph glyph-name="uniFBA2" unicode="&#x6bb;" horiz-adv-x="527" arabic-form="initial" 
d="M387 285q-23 -118 -100 -201.5t-165 -83.5h-133q-26 0 -26 25v89q0 30 26 30h49q209 0 258 102q-17 79 -92 151l76 182q90 -143 107 -294zM214 966q0 -29 -0.5 -50.5t-4.5 -36.5l2 -1q31 47 70 72t73 25q25 0 45 -10t35 -26t24.5 -35.5t13.5 -38.5q-21 -51 -49.5 -83.5
t-69 -51t-94 -26t-124.5 -9.5l-100 88q32 -4 61 -6t53 -2l14 45q0 56 -0.5 98t-3.5 76t-7 61t-10 52l59 62q8 -29 25 -64.5t45 -76.5l-5 -5l-54 24q2 -41 2 -81zM329 901q-43 0 -79 -34.5t-70 -92.5q34 1 70.5 6.5t68.5 14.5t57 19.5t38 21.5q-16 35 -37 50t-48 15z" />
    <glyph glyph-name="uniFBA3" unicode="&#x6bb;" horiz-adv-x="518" arabic-form="medial" 
d="M556 25q0 -25 -25 -25h-21q-119 0 -187 43q-58 36 -63 91h-8q-13 -58 -77 -98q-58 -36 -123 -36h-63q-26 0 -26 25v89q0 30 26 30h20q217 0 217 189v31q10 8 30 8q21 0 35 -10v-32q0 -112 47 -151q44 -35 172 -35h21q25 0 25 -30v-89zM198 829q0 -29 -1 -50.5t-4 -36.5h1
q31 46 70.5 71t72.5 25q26 0 46 -10t34.5 -26t24 -35.5t14.5 -38.5q-21 -51 -49.5 -83.5t-69.5 -50.5t-94 -26t-124 -10l-100 89q31 -5 60.5 -6.5t52.5 -1.5l15 44q0 56 -1 98.5t-3.5 76t-6.5 61t-11 51.5l59 62q9 -29 25.5 -64.5t45.5 -76.5l-5 -5l-55 24q3 -41 3 -81z
M313 764q-44 0 -80 -34.5t-70 -91.5q35 1 71.5 6.5t68.5 14t57 19.5t38 22q-17 34 -38 49t-47 15z" />
    <glyph glyph-name="uniFBA4" unicode="&#x6c0;" horiz-adv-x="661" arabic-form="isolated" 
d="M578 250q-20 -94 -76 -193q-119 -68 -223 -68q-83 0 -139 42q-59 46 -59 124q0 149 175 479q317 -158 322 -384zM498 192q0 64 -55 136q-67 85 -185 138l-49 -110q-37 -85 -37 -139q0 -36 39.5 -60.5t106.5 -24.5q45 0 100.5 18.5t79.5 41.5zM437 926q-25 -5 -62 -16.5
t-77 -26t-79 -31.5t-68 -33v66q18 10 43 20.5t55 17.5v4q-81 29 -81 103q84 129 168 129q55 0 90 -58l-53 -42q-20 18 -37 26t-31 8q-38 0 -80 -57q30 -65 104 -68q26 8 58.5 17.5t71.5 16.5z" />
    <glyph glyph-name="uniFBA5" unicode="&#x6c0;" horiz-adv-x="759" arabic-form="final" 
d="M796 25q0 -25 -26 -25h-21q-169 0 -218 235q-23 -37 -94 -108q-147 0 -192 6q-115 15 -173 72q12 100 71 215q148 106 308 149l-32 153l75 142q75 -460 136 -610q44 -110 113 -110h27q26 0 26 -30v-89zM526 251q-37 138 -55 230q-220 -61 -292 -169q21 -23 85.5 -42
t119.5 -19h142zM565 1035q-26 -5 -62.5 -16t-77 -26t-79 -31.5t-67.5 -33.5v66q18 10 42.5 20.5t54.5 17.5v4q-81 29 -81 104q85 128 169 128q54 0 90 -58l-54 -42q-19 18 -36.5 26.5t-30.5 8.5q-38 0 -80 -58q30 -65 103 -67q27 7 59.5 16.5t71.5 16.5z" />
    <glyph glyph-name="uniFBA6" unicode="&#x6c1;" horiz-adv-x="661" arabic-form="isolated" 
d="M578 250q-20 -94 -76 -193q-119 -68 -223 -68q-83 0 -139 42q-59 46 -59 124q0 149 175 479q317 -158 322 -384zM498 192q0 64 -55 136q-67 85 -185 138l-49 -110q-37 -85 -37 -139q0 -36 39.5 -60.5t106.5 -24.5q45 0 100.5 18.5t79.5 41.5z" />
    <glyph glyph-name="uniFBA7" unicode="&#x6c1;" horiz-adv-x="760" arabic-form="final" 
d="M798 25q0 -25 -27 -25h-28q-60 0 -106.5 17t-82 54.5t-62.5 98.5t-47 151q-69 -16 -126 -44.5t-115 -67.5q-30 -20 -59 -49.5t-45 -58.5q-18 0 -23 10l46 170q36 33 74.5 62.5t84.5 54.5t100 46t120 38q15 -88 31.5 -151t42.5 -105t65 -62t100 -20h30q15 0 21 -6.5
t6 -23.5v-89z" />
    </font>
</defs>
</svg>
