<?xml version="1.0" standalone="no"?>
<!DOCTYPE svg PUBLIC "-//W3C//DTD SVG 1.1//EN" "http://www.w3.org/Graphics/SVG/1.1/DTD/svg11.dtd" >
<svg xmlns="http://www.w3.org/2000/svg" xmlns:xlink="http://www.w3.org/1999/xlink" version="1.1">
<metadata>
Created by FontForge 20170731 at Thu Oct 20 02:55:17 2016
 By Aleksey,,,
(c)  2012 Bahij Virtual Academy. All rights reserved.
</metadata>
<defs>
<font id="BahijMitra-Bold" horiz-adv-x="0" >
  <font-face 
    font-family="Bahij Mitra"
    font-weight="700"
    font-stretch="normal"
    units-per-em="2048"
    panose-1="2 4 7 3 6 2 1 2 2 3"
    ascent="1638"
    descent="-410"
    x-height="688"
    cap-height="984"
    bbox="-248 -1705 4238 2120"
    underline-thickness="50"
    underline-position="-145"
    unicode-range="U+0020-FEFC"
  />
<missing-glyph horiz-adv-x="728" 
d="M0 0v1020h728v-1020h-728zM117 947l247 -372l248 372h-495zM655 881l-247 -371l247 -372v743zM612 73l-248 371l-247 -371h495zM73 138l247 372l-247 371v-743z" />
    <glyph glyph-name="uniFB01" unicode="fi" horiz-adv-x="877" 
d="M453 681q-1 -11 -2 -20t-1 -19q0 -9 1 -18l2 -18l-135 3v-120q0 -70 1 -133.5t2.5 -124t3.5 -119t5 -119.5q-19 2 -47.5 4.5t-60.5 2.5t-60.5 -2.5t-47.5 -4.5q3 61 5.5 119.5t3.5 119t2 124t1 133.5v119l-101 -2q5 18 5 36t-5 39l101 -4q15 87 36.5 162t56.5 129.5
t88 85t131 30.5q27 0 60 -6q-3 -17 -3.5 -39.5t-1.5 -48.5t-1 -52v-47l-17 -5q-28 15 -66 28t-72 13q-41 0 -63.5 -14t-22.5 -48q0 -33 19.5 -85t47.5 -101zM581 369q0 87 -2 164.5t-9 154.5q20 -3 47.5 -5t60.5 -2t61 2t46 5q-7 -77 -9 -154.5t-2 -164.5v-57q0 -88 2 -166
t9 -153q-18 2 -46 4.5t-61 2.5t-60.5 -2.5t-47.5 -4.5q7 75 9 153t2 166v57zM564 959q0 49 33 81.5t81 32.5q47 0 80 -32.5t33 -81.5q0 -47 -33 -80t-80 -33q-48 0 -81 33t-33 80z" />
    <glyph glyph-name="uniFB02" unicode="fl" horiz-adv-x="877" 
d="M453 681q-1 -11 -2 -20t-1 -19q0 -9 1 -18l2 -18l-135 3v-120q0 -70 1 -133.5t2.5 -124t3.5 -119t5 -119.5q-19 2 -47.5 4.5t-60.5 2.5t-60.5 -2.5t-47.5 -4.5q3 61 5.5 119.5t3.5 119t2 124t1 133.5v119l-101 -2q5 18 5 36t-5 39l101 -4q15 87 36.5 162t56.5 129.5
t88 85t131 30.5q27 0 60 -6q-3 -17 -3.5 -39.5t-1.5 -48.5t-1 -52v-47l-17 -5q-28 15 -66 28t-72 13q-41 0 -63.5 -14t-22.5 -48q0 -33 19.5 -85t47.5 -101zM581 583q0 71 -0.5 135t-2 124t-3.5 119t-5 119q19 -2 47.5 -4.5t60.5 -2.5q31 0 60 2.5t47 4.5q-3 -60 -5 -119
t-3 -119t-2 -124t-1 -135v-94q0 -70 1 -133.5t2 -124t3 -119t5 -119.5q-18 2 -47 4.5t-60 2.5q-32 0 -60.5 -2.5t-47.5 -4.5q3 61 5 119.5t3.5 119t2 124t0.5 133.5v94z" />
    <glyph glyph-name="uniFC31" unicode="&#xfed3;&#xfef0;" horiz-adv-x="1945" arabic-form="isolated" 
d="M1721 1184l-161 -141l-155 145l161 140zM1720 579q-54 153 -211 153q-56 -31 -56 -123q65 -46 168 -46q54 0 99 16zM1213 0q-47 0 -155.5 28t-132.5 28q-66 0 -95 -67q50 -29 121 -46q125 -31 182 -94q-2 -53 -31 -144q-30 -94 -59 -132q-117 -41 -293 -76
q-199 -40 -332 -40q-373 0 -373 278q0 86 52 224q55 145 128 242q37 0 61 -35q-90 -151 -90 -265q0 -203 343 -203q95 0 273 16q163 15 209 25q-8 28 -121 58q-126 33 -174 80q55 394 246 394q43 0 115.5 -5.5t104.5 -5.5h219q235 0 328 57q7 27 7 53q0 19 -6 55
q-67 -35 -171 -35q-124 0 -226 64q0 340 200 477q143 0 223 -110q83 -114 83 -328q0 -172 -36 -370q-97 -68 -227.5 -95.5t-348.5 -27.5h-24z" />
    <glyph glyph-name="uniFC32" unicode="&#xfed3;&#xfef2;" horiz-adv-x="1945" arabic-form="isolated" 
d="M787 -775l-130 -131l-136 121l130 129zM516 -779l-130 -131l-137 121l130 129zM1721 1184l-161 -141l-155 145l161 140zM1720 579q-54 153 -211 153q-56 -31 -56 -123q65 -46 168 -46q54 0 99 16zM1213 0q-47 0 -155.5 28t-132.5 28q-66 0 -95 -67q50 -29 121 -46
q125 -31 182 -94q-2 -53 -31 -144q-30 -94 -59 -132q-117 -41 -293 -76q-199 -40 -332 -40q-373 0 -373 278q0 86 52 224q55 145 128 242q37 0 61 -35q-90 -151 -90 -265q0 -203 343 -203q95 0 273 16q163 15 209 25q-8 28 -121 58q-126 33 -174 80q55 394 246 394
q43 0 115.5 -5.5t104.5 -5.5h219q235 0 328 57q7 27 7 53q0 19 -6 55q-67 -35 -171 -35q-124 0 -226 64q0 340 200 477q143 0 223 -110q83 -114 83 -328q0 -172 -36 -370q-97 -68 -227.5 -95.5t-348.5 -27.5h-24z" />
    <glyph glyph-name="uniFC43" unicode="&#xfedf;&#xfef0;" horiz-adv-x="1638" arabic-form="isolated" 
d="M1213 0q-47 0 -155.5 28t-132.5 28q-66 0 -95 -67q50 -29 121 -46q125 -31 182 -94q-2 -53 -31 -144q-30 -94 -59 -132q-117 -41 -293 -76q-199 -40 -332 -40q-373 0 -373 278q0 86 52 224q55 145 128 242q37 0 61 -35q-90 -151 -90 -265q0 -203 343 -203q95 0 273 16
q163 15 209 25q-8 28 -121 58q-126 33 -174 80q55 394 246 394q43 0 115.5 -5.5t104.5 -5.5h64q101 0 136 64q0 555 -103 810l170 151q14 -41 63 -137q50 -101 74 -137q-19 -7 -37 -7q-19 0 -39 7q12 -125 12 -690q-33 -143 -106 -231q-75 -90 -165 -90h-48z" />
    <glyph glyph-name="uniFC44" unicode="&#xfedf;&#xfef2;" horiz-adv-x="1638" arabic-form="isolated" 
d="M787 -775l-130 -131l-136 121l130 129zM516 -779l-130 -131l-137 121l130 129zM1213 0q-47 0 -155.5 28t-132.5 28q-66 0 -95 -67q50 -29 121 -46q125 -31 182 -94q-2 -53 -31 -144q-30 -94 -59 -132q-117 -41 -293 -76q-199 -40 -332 -40q-373 0 -373 278q0 86 52 224
q55 145 128 242q37 0 61 -35q-90 -151 -90 -265q0 -203 343 -203q95 0 273 16q163 15 209 25q-8 28 -121 58q-126 33 -174 80q55 394 246 394q43 0 115.5 -5.5t104.5 -5.5h64q101 0 136 64q0 555 -103 810l170 151q14 -41 63 -137q50 -101 74 -137q-19 -7 -37 -7
q-19 0 -39 7q12 -125 12 -690q-33 -143 -106 -231q-75 -90 -165 -90h-48z" />
    <glyph glyph-name="uniFC64" unicode="&#xfe8c;&#xfeae;" horiz-adv-x="1394" arabic-form="final" 
d="M1213 814q-94 -24 -168 -54.5t-117 -66.5v98l36 30q-20 15 -33 35.5t-13 43.5q0 27 17 48.5t52 53.5q29 29 58 45t66 16q29 0 55 -16.5t41 -45.5l-69 -67q-16 21 -32.5 30t-37.5 9q-16 0 -30.5 -7t-25.5 -21q3 -22 22 -41t46 -30q41 12 83.5 24.5t77.5 19.5zM657 57
q-42 -294 -317 -591q-225 48 -340 135q394 165 534 403q-37 104 -194 231l126 244q126 -144 188 -186q50 -33 119 -33h37q130 0 187 55t63 183q21 9 37 9q23 0 39 -9q-4 -128 50.5 -183t171.5 -55h36q30 0 30 -30v-200q0 -30 -28 -30h-17q-136 0 -204 60q-61 54 -80 184h-4
q-28 -133 -88 -186t-187 -57q-2 -1 -6 -1h-36q-13 0 -37 10t-80 47z" />
    <glyph glyph-name="uniFC67" unicode="&#xfe8c;&#xfee6;" horiz-adv-x="1826" arabic-form="final" 
d="M780 655l-161 -141l-155 145l160 140zM1650 814q-95 -24 -168.5 -54.5t-116.5 -66.5v98l36 30q-20 15 -33 35.5t-13 43.5q0 27 17 48.5t51 53.5q30 29 59 45t65 16q29 0 55 -16.5t42 -45.5l-69 -67q-16 21 -33 30t-38 9q-15 0 -29.5 -7t-25.5 -21q3 -22 22 -41t45 -30
q42 12 84.5 24.5t77.5 19.5zM1116 52q0 -52 -18 -170q-19 -124 -37 -181q-114 -119 -279 -183q-156 -61 -322 -61q-220 0 -328 101q-87 83 -87 218q0 97 58 238q60 145 153 264q34 0 58 -34q-65 -110 -87.5 -173t-22.5 -137q0 -217 323 -217q148 0 293 54q121 45 193 108
q-9 105 -60.5 211t-113.5 149l100 258q84 -138 143 -189q54 -48 122 -48h43q130 0 187 55t62 183q22 9 38 9q22 0 39 -9q-5 -128 50 -183t172 -55h36q30 0 30 -30v-200q0 -30 -29 -30h-16q-137 0 -204 60q-61 54 -80 184h-4q-28 -133 -88 -186q-62 -54 -194 -58h-35
q-24 0 -46.5 11.5t-48.5 40.5z" />
    <glyph glyph-name="uniFC6A" unicode="&#xfe92;&#xfeae;" horiz-adv-x="1310" arabic-form="final" 
d="M1193 -301l-161 -141l-155 145l161 140zM657 57q-42 -294 -317 -591q-225 48 -340 135q394 165 534 403q-37 104 -194 231l126 244q126 -144 188 -186q50 -33 119 -33h37q183 0 205 238q13 9 32 9q22 0 41 -9q0 -238 187 -238h35q29 0 29 -30v-200q0 -30 -27 -30h-17
q-217 0 -248 244h-4q-36 -227 -223 -243q-5 -1 -10 -1h-36q-13 0 -37 10t-80 47z" />
    <glyph glyph-name="uniFC70" unicode="&#xfe98;&#xfeae;" horiz-adv-x="1435" arabic-form="final" 
d="M1379 803l-123 -122l-130 113l124 121zM1121 800l-123 -122l-130 113l124 120zM793 0q-50 0 -136 57q-42 -294 -317 -591q-225 48 -340 135q394 165 534 403q-37 104 -194 231l126 244q126 -144 188 -186q50 -33 119 -33h64q131 0 187.5 55t62.5 183q22 9 37 9
q23 0 39 -9q-4 -128 50.5 -183t190.5 -55h35q30 0 30 -30v-200q0 -30 -28 -30h-16q-155 0 -222 60q-61 54 -81 184h-3q-28 -133 -89 -186q-66 -58 -212 -58h-25z" />
    <glyph glyph-name="uniFC86" unicode="&#xfee0;&#xfef0;" horiz-adv-x="1653" arabic-form="final" 
d="M1213 0q-47 0 -155.5 28t-132.5 28q-66 0 -95 -67q50 -29 121 -46q125 -31 182 -94q-2 -53 -31 -144q-30 -94 -59 -132q-117 -41 -293 -76q-199 -40 -332 -40q-373 0 -373 278q0 86 52 224q55 145 128 242q37 0 61 -35q-90 -151 -90 -265q0 -203 343 -203q95 0 273 16
q163 15 209 25q-8 28 -121 58q-126 33 -174 80q55 394 246 394q43 0 115.5 -5.5t104.5 -5.5h64q82 0 114 50q0 663 -89 785l180 190q52 -101 61 -392q-2 -4 -2 -410q0 -142 26 -190q20 -33 70 -33h35q30 0 30 -30v-200q0 -30 -28 -30h-17q-186 0 -188 224h-4
q-10 -123 -61 -175q-47 -49 -146 -49h-24z" />
    <glyph glyph-name="uniFC87" unicode="&#xfee0;&#xfef2;" horiz-adv-x="1653" arabic-form="final" 
d="M787 -775l-130 -131l-136 121l130 129zM516 -779l-130 -131l-137 121l130 129zM1213 0q-47 0 -155.5 28t-132.5 28q-66 0 -95 -67q50 -29 121 -46q125 -31 182 -94q-2 -53 -31 -144q-30 -94 -59 -132q-117 -41 -293 -76q-199 -40 -332 -40q-373 0 -373 278q0 86 52 224
q55 145 128 242q37 0 61 -35q-90 -151 -90 -265q0 -203 343 -203q95 0 273 16q163 15 209 25q-8 28 -121 58q-126 33 -174 80q55 394 246 394q43 0 115.5 -5.5t104.5 -5.5h64q82 0 114 50q0 663 -89 785l180 190q52 -101 61 -392q-2 -4 -2 -410q0 -142 26 -190
q20 -33 70 -33h35q30 0 30 -30v-200q0 -30 -28 -30h-17q-186 0 -188 224h-4q-10 -123 -61 -175q-47 -49 -146 -49h-24z" />
    <glyph glyph-name="uniFCCC" unicode="&#xfedf;&#xfee4;" horiz-adv-x="633" arabic-form="initial" 
d="M588 205q0 -54 -28.5 -127t-68.5 -121q-127 99 -254 136q-164 -93 -229 -93h-17q-28 0 -28 30v200q0 30 30 30h34q92 0 139 33q0 590 -100 841l168 151q14 -40 63.5 -138t74.5 -136q-20 -7 -37 -7q-20 0 -38 7q8 -123 9 -494q1 -133 42 -180q45 -51 240 -132z" />
    <glyph glyph-name="uniFCFB" unicode="&#xfeb3;&#xfef0;" horiz-adv-x="2549" arabic-form="isolated" 
d="M1213 0q-47 0 -155.5 28t-132.5 28q-66 0 -95 -67q50 -29 121 -46q125 -31 182 -94q-2 -53 -31 -144q-30 -94 -59 -132q-117 -41 -293 -76q-199 -40 -332 -40q-373 0 -373 278q0 86 52 224q55 145 128 242q37 0 61 -35q-90 -151 -90 -265q0 -203 343 -203q95 0 273 16
q163 15 209 25q-8 28 -121 58q-126 33 -174 80q55 394 246 394q43 0 115.5 -5.5t104.5 -5.5h66q79 0 131 54q60 64 63 188q21 5 42 5q20 0 45 -10q-4 -25 -4 -61q0 -72 45 -122q50 -54 140 -54q84 0 134.5 65.5t53.5 176.5q23 5 44 5q19 0 44 -10q-3 -49 -3 -61
q0 -176 151 -176q119 0 179 59q-33 114 -116 199l146 200q36 -47 69.5 -128t42.5 -138q-8 -53 -40 -160q-34 -111 -58 -154q-127 -138 -219 -138q-74 0 -132 52q-67 59 -82 165h-3q-17 -103 -79 -163q-54 -54 -121 -54q-92 0 -161 59t-83 160h-3q-14 -101 -97 -164
q-73 -55 -150 -55h-24z" />
    <glyph glyph-name="uniFCFC" unicode="&#xfeb3;&#xfef2;" horiz-adv-x="2549" arabic-form="isolated" 
d="M787 -775l-130 -131l-136 121l130 129zM516 -779l-130 -131l-137 121l130 129zM1213 0q-47 0 -155.5 28t-132.5 28q-66 0 -95 -67q50 -29 121 -46q125 -31 182 -94q-2 -53 -31 -144q-30 -94 -59 -132q-117 -41 -293 -76q-199 -40 -332 -40q-373 0 -373 278q0 86 52 224
q55 145 128 242q37 0 61 -35q-90 -151 -90 -265q0 -203 343 -203q95 0 273 16q163 15 209 25q-8 28 -121 58q-126 33 -174 80q55 394 246 394q43 0 115.5 -5.5t104.5 -5.5h66q79 0 131 54q60 64 63 188q21 5 42 5q20 0 45 -10q-4 -25 -4 -61q0 -72 45 -122q50 -54 140 -54
q84 0 134.5 65.5t53.5 176.5q23 5 44 5q19 0 44 -10q-3 -49 -3 -61q0 -176 151 -176q119 0 179 59q-33 114 -116 199l146 200q36 -47 69.5 -128t42.5 -138q-8 -53 -40 -160q-34 -111 -58 -154q-127 -138 -219 -138q-74 0 -132 52q-67 59 -82 165h-3q-17 -103 -79 -163
q-54 -54 -121 -54q-92 0 -161 59t-83 160h-3q-14 -101 -97 -164q-73 -55 -150 -55h-24z" />
    <glyph glyph-name="uniFCFD" unicode="&#xfeb7;&#xfef0;" horiz-adv-x="2549" arabic-form="isolated" 
d="M1213 0q-47 0 -155.5 28t-132.5 28q-66 0 -95 -67q50 -29 121 -46q125 -31 182 -94q-2 -53 -31 -144q-30 -94 -59 -132q-117 -41 -293 -76q-199 -40 -332 -40q-373 0 -373 278q0 86 52 224q55 145 128 242q37 0 61 -35q-90 -151 -90 -265q0 -203 343 -203q95 0 273 16
q163 15 209 25q-8 28 -121 58q-126 33 -174 80q55 394 246 394q43 0 115.5 -5.5t104.5 -5.5h66q79 0 131 54q60 64 63 188q21 5 42 5q20 0 45 -10q-4 -25 -4 -61q0 -72 45 -122q50 -54 140 -54q84 0 134.5 65.5t53.5 176.5q23 5 44 5q19 0 44 -10q-3 -49 -3 -61
q0 -176 151 -176q119 0 179 59q-33 114 -116 199l146 200q36 -47 69.5 -128t42.5 -138q-8 -53 -40 -160q-34 -111 -58 -154q-127 -138 -219 -138q-74 0 -132 52q-67 59 -82 165h-3q-17 -103 -79 -163q-54 -54 -121 -54q-92 0 -161 59t-83 160h-3q-14 -101 -97 -164
q-73 -55 -150 -55h-24zM2068 1139l-123 -121l-130 113l124 120zM1943 911l-124 -122l-130 113l124 120zM2201 914l-123 -121l-131 113l124 120z" />
    <glyph glyph-name="uniFCFE" unicode="&#xfeb7;&#xfef2;" horiz-adv-x="2549" arabic-form="isolated" 
d="M787 -775l-130 -131l-136 121l130 129zM516 -779l-130 -131l-137 121l130 129zM1213 0q-47 0 -155.5 28t-132.5 28q-66 0 -95 -67q50 -29 121 -46q125 -31 182 -94q-2 -53 -31 -144q-30 -94 -59 -132q-117 -41 -293 -76q-199 -40 -332 -40q-373 0 -373 278q0 86 52 224
q55 145 128 242q37 0 61 -35q-90 -151 -90 -265q0 -203 343 -203q95 0 273 16q163 15 209 25q-8 28 -121 58q-126 33 -174 80q55 394 246 394q43 0 115.5 -5.5t104.5 -5.5h66q79 0 131 54q60 64 63 188q21 5 42 5q20 0 45 -10q-4 -25 -4 -61q0 -72 45 -122q50 -54 140 -54
q84 0 134.5 65.5t53.5 176.5q23 5 44 5q19 0 44 -10q-3 -49 -3 -61q0 -176 151 -176q119 0 179 59q-33 114 -116 199l146 200q36 -47 69.5 -128t42.5 -138q-8 -53 -40 -160q-34 -111 -58 -154q-127 -138 -219 -138q-74 0 -132 52q-67 59 -82 165h-3q-17 -103 -79 -163
q-54 -54 -121 -54q-92 0 -161 59t-83 160h-3q-14 -101 -97 -164q-73 -55 -150 -55h-24zM2068 1139l-123 -121l-130 113l124 120zM1943 911l-124 -122l-130 113l124 120zM2201 914l-123 -121l-131 113l124 120z" />
    <glyph glyph-name="uniFD05" unicode="&#xfebb;&#xfef0;" horiz-adv-x="2653" arabic-form="isolated" 
d="M2358 360q-24 144 -169 144q-72 0 -160 -60q-98 -69 -182 -193h93q307 0 418 109zM1213 0q-47 0 -155.5 28t-132.5 28q-66 0 -95 -67q50 -29 121 -46q125 -31 182 -94q-2 -53 -31 -144q-30 -94 -59 -132q-117 -41 -293 -76q-199 -40 -332 -40q-373 0 -373 278
q0 86 52 224q55 145 128 242q37 0 61 -35q-90 -151 -90 -265q0 -203 343 -203q95 0 273 16q163 15 209 25q-8 28 -121 58q-126 33 -174 80q55 394 246 394q43 0 115.5 -5.5t104.5 -5.5h64q183 0 205 238q12 9 32 9q21 0 41 -9q0 -238 188 -238q322 417 584 417
q107 0 182 -72q71 -67 87 -169q-87 -165 -285 -293q-222 -143 -458 -143q-317 0 -343 219h-4q-24 -101 -93 -162q-65 -57 -144 -57h-35z" />
    <glyph glyph-name="uniFD06" unicode="&#xfebb;&#xfef2;" horiz-adv-x="2653" arabic-form="isolated" 
d="M787 -775l-130 -131l-136 121l130 129zM516 -779l-130 -131l-137 121l130 129zM2358 360q-24 144 -169 144q-72 0 -160 -60q-98 -69 -182 -193h93q307 0 418 109zM1213 0q-47 0 -155.5 28t-132.5 28q-66 0 -95 -67q50 -29 121 -46q125 -31 182 -94q-2 -53 -31 -144
q-30 -94 -59 -132q-117 -41 -293 -76q-199 -40 -332 -40q-373 0 -373 278q0 86 52 224q55 145 128 242q37 0 61 -35q-90 -151 -90 -265q0 -203 343 -203q95 0 273 16q163 15 209 25q-8 28 -121 58q-126 33 -174 80q55 394 246 394q43 0 115.5 -5.5t104.5 -5.5h64
q183 0 205 238q12 9 32 9q21 0 41 -9q0 -238 188 -238q322 417 584 417q107 0 182 -72q71 -67 87 -169q-87 -165 -285 -293q-222 -143 -458 -143q-317 0 -343 219h-4q-24 -101 -93 -162q-65 -57 -144 -57h-35z" />
    <glyph glyph-name="uniFD07" unicode="&#xfebf;&#xfef0;" horiz-adv-x="2653" arabic-form="isolated" 
d="M2357 1000l-161 -141l-155 145l160 140zM2358 360q-24 144 -169 144q-72 0 -160 -60q-98 -69 -182 -193h93q307 0 418 109zM1213 0q-47 0 -155.5 28t-132.5 28q-66 0 -95 -67q50 -29 121 -46q125 -31 182 -94q-2 -53 -31 -144q-30 -94 -59 -132q-117 -41 -293 -76
q-199 -40 -332 -40q-373 0 -373 278q0 86 52 224q55 145 128 242q37 0 61 -35q-90 -151 -90 -265q0 -203 343 -203q95 0 273 16q163 15 209 25q-8 28 -121 58q-126 33 -174 80q55 394 246 394q43 0 115.5 -5.5t104.5 -5.5h64q183 0 205 238q12 9 32 9q21 0 41 -9
q0 -238 188 -238q322 417 584 417q107 0 182 -72q71 -67 87 -169q-87 -165 -285 -293q-222 -143 -458 -143q-317 0 -343 219h-4q-24 -101 -93 -162q-65 -57 -144 -57h-35z" />
    <glyph glyph-name="uniFD08" unicode="&#xfebf;&#xfef2;" horiz-adv-x="2653" arabic-form="isolated" 
d="M787 -775l-130 -131l-136 121l130 129zM516 -779l-130 -131l-137 121l130 129zM2357 1000l-161 -141l-155 145l160 140zM2358 360q-24 144 -169 144q-72 0 -160 -60q-98 -69 -182 -193h93q307 0 418 109zM1213 0q-47 0 -155.5 28t-132.5 28q-66 0 -95 -67q50 -29 121 -46
q125 -31 182 -94q-2 -53 -31 -144q-30 -94 -59 -132q-117 -41 -293 -76q-199 -40 -332 -40q-373 0 -373 278q0 86 52 224q55 145 128 242q37 0 61 -35q-90 -151 -90 -265q0 -203 343 -203q95 0 273 16q163 15 209 25q-8 28 -121 58q-126 33 -174 80q55 394 246 394
q43 0 115.5 -5.5t104.5 -5.5h64q183 0 205 238q12 9 32 9q21 0 41 -9q0 -238 188 -238q322 417 584 417q107 0 182 -72q71 -67 87 -169q-87 -165 -285 -293q-222 -143 -458 -143q-317 0 -343 219h-4q-24 -101 -93 -162q-65 -57 -144 -57h-35z" />
    <glyph glyph-name="uniFD0D" unicode="&#xfeb7;&#xfeae;" horiz-adv-x="2107" arabic-form="isolated" 
d="M793 0q-50 0 -136 57q-42 -294 -317 -591q-225 48 -340 135q394 165 534 403q-37 104 -194 231l126 244q126 -144 188 -186q50 -33 119 -33h66q79 0 131 54q60 64 63 188q22 5 43 5q19 0 45 -10q-4 -25 -4 -61q0 -72 45 -122q50 -54 140 -54q84 0 134.5 65.5t53.5 176.5
q22 5 43 5q19 0 45 -10q-4 -49 -4 -61q0 -176 151 -176q120 0 179 59q-33 114 -116 199l146 200q37 -47 70 -128t42 -138q-7 -53 -40 -160q-34 -111 -57 -154q-128 -138 -220 -138q-74 0 -132 52q-66 59 -81 165h-4q-17 -103 -78 -163q-55 -54 -121 -54q-92 0 -161.5 59
t-82.5 160h-4q-14 -101 -97 -164q-72 -55 -150 -55h-25zM1650 1139l-123 -121l-130 113l124 120zM1524 911l-124 -122l-129 113l124 120zM1782 914l-123 -121l-130 113l124 120z" />
    <glyph glyph-name="uniFD0E" unicode="&#xfeb3;&#xfeae;" horiz-adv-x="2107" arabic-form="isolated" 
d="M793 0q-50 0 -136 57q-42 -294 -317 -591q-225 48 -340 135q394 165 534 403q-37 104 -194 231l126 244q126 -144 188 -186q50 -33 119 -33h66q79 0 131 54q60 64 63 188q22 5 43 5q19 0 45 -10q-4 -25 -4 -61q0 -72 45 -122q50 -54 140 -54q84 0 134.5 65.5t53.5 176.5
q22 5 43 5q19 0 45 -10q-4 -49 -4 -61q0 -176 151 -176q120 0 179 59q-33 114 -116 199l146 200q37 -47 70 -128t42 -138q-7 -53 -40 -160q-34 -111 -57 -154q-128 -138 -220 -138q-74 0 -132 52q-66 59 -81 165h-4q-17 -103 -78 -163q-55 -54 -121 -54q-92 0 -161.5 59
t-82.5 160h-4q-14 -101 -97 -164q-72 -55 -150 -55h-25z" />
    <glyph glyph-name="uniFD0F" unicode="&#xfebb;&#xfeae;" horiz-adv-x="2233" arabic-form="isolated" 
d="M1940 360q-25 144 -170 144q-72 0 -159 -60q-99 -69 -183 -193h93q307 0 419 109zM793 0q-50 0 -136 57q-42 -294 -317 -591q-225 48 -340 135q394 165 534 403q-37 104 -194 231l126 244q126 -144 188 -186q50 -33 119 -33h64q183 0 205 238q13 9 32 9q22 0 41 -9
q0 -238 189 -238q321 417 584 417q106 0 182 -72q70 -67 86 -169q-86 -165 -285 -293q-221 -143 -457 -143q-317 0 -344 219h-3q-25 -101 -94 -162q-65 -57 -144 -57h-36z" />
    <glyph glyph-name="uniFD10" unicode="&#xfebf;&#xfeae;" horiz-adv-x="2233" arabic-form="isolated" 
d="M1939 1000l-162 -141l-154 145l160 140zM1940 360q-25 144 -170 144q-72 0 -159 -60q-99 -69 -183 -193h93q307 0 419 109zM793 0q-50 0 -136 57q-42 -294 -317 -591q-225 48 -340 135q394 165 534 403q-37 104 -194 231l126 244q126 -144 188 -186q50 -33 119 -33h64
q183 0 205 238q13 9 32 9q22 0 41 -9q0 -238 189 -238q321 417 584 417q106 0 182 -72q70 -67 86 -169q-86 -165 -285 -293q-221 -143 -457 -143q-317 0 -344 219h-3q-25 -101 -94 -162q-65 -57 -144 -57h-36z" />
    <glyph glyph-name="uniFD17" unicode="&#xfeb4;&#xfef0;" horiz-adv-x="2546" arabic-form="final" 
d="M1213 0q-47 0 -155.5 28t-132.5 28q-66 0 -95 -67q50 -29 121 -46q125 -31 182 -94q-2 -53 -31 -144q-30 -94 -59 -132q-117 -41 -293 -76q-199 -40 -332 -40q-373 0 -373 278q0 86 52 224q55 145 128 242q37 0 61 -35q-90 -151 -90 -265q0 -203 343 -203q95 0 273 16
q163 15 209 25q-8 28 -121 58q-126 33 -174 80q55 394 246 394q43 0 115.5 -5.5t104.5 -5.5h66q46 0 93 65q52 75 54 177q19 5 41 5q19 0 45 -10q-2 -25 -2 -61q0 -176 143 -176q86 0 138 66t52 176q20 5 41 5q20 0 45 -10q-2 -25 -2 -61q0 -176 146 -176q87 0 141 62.5
t55 179.5q20 5 41 5q24 0 45 -9q-2 -26 -2 -62q0 -82 50 -129t133 -47h35q30 0 30 -30v-200q0 -30 -28 -30h-16q-88 0 -155 50q-80 59 -96 170h-3q-22 -97 -87.5 -158.5t-142.5 -61.5q-175 0 -203 217h-4q-17 -103 -79 -163q-56 -54 -122 -54q-182 0 -208 219h-3
q-16 -100 -78 -163q-56 -56 -118 -56h-24z" />
    <glyph glyph-name="uniFD18" unicode="&#xfeb4;&#xfef2;" horiz-adv-x="2546" arabic-form="final" 
d="M787 -775l-130 -131l-136 121l130 129zM516 -779l-130 -131l-137 121l130 129zM1213 0q-47 0 -155.5 28t-132.5 28q-66 0 -95 -67q50 -29 121 -46q125 -31 182 -94q-2 -53 -31 -144q-30 -94 -59 -132q-117 -41 -293 -76q-199 -40 -332 -40q-373 0 -373 278q0 86 52 224
q55 145 128 242q37 0 61 -35q-90 -151 -90 -265q0 -203 343 -203q95 0 273 16q163 15 209 25q-8 28 -121 58q-126 33 -174 80q55 394 246 394q43 0 115.5 -5.5t104.5 -5.5h66q46 0 93 65q52 75 54 177q19 5 41 5q19 0 45 -10q-2 -25 -2 -61q0 -176 143 -176q86 0 138 66
t52 176q20 5 41 5q20 0 45 -10q-2 -25 -2 -61q0 -176 146 -176q87 0 141 62.5t55 179.5q20 5 41 5q24 0 45 -9q-2 -26 -2 -62q0 -82 50 -129t133 -47h35q30 0 30 -30v-200q0 -30 -28 -30h-16q-88 0 -155 50q-80 59 -96 170h-3q-22 -97 -87.5 -158.5t-142.5 -61.5
q-175 0 -203 217h-4q-17 -103 -79 -163q-56 -54 -122 -54q-182 0 -208 219h-3q-16 -100 -78 -163q-56 -56 -118 -56h-24z" />
    <glyph glyph-name="uniFD19" unicode="&#xfeb8;&#xfef0;" horiz-adv-x="2546" arabic-form="final" 
d="M2129 831l-123 -121l-131 113l124 120zM1871 828l-124 -122l-130 113l124 120zM1996 1056l-123 -121l-130 113l124 120zM1213 0q-47 0 -155.5 28t-132.5 28q-66 0 -95 -67q50 -29 121 -46q125 -31 182 -94q-2 -53 -31 -144q-30 -94 -59 -132q-117 -41 -293 -76
q-199 -40 -332 -40q-373 0 -373 278q0 86 52 224q55 145 128 242q37 0 61 -35q-90 -151 -90 -265q0 -203 343 -203q95 0 273 16q163 15 209 25q-8 28 -121 58q-126 33 -174 80q55 394 246 394q43 0 115.5 -5.5t104.5 -5.5h66q46 0 93 65q52 75 54 177q19 5 41 5q19 0 45 -10
q-2 -25 -2 -61q0 -176 143 -176q86 0 138 66t52 176q20 5 41 5q20 0 45 -10q-2 -25 -2 -61q0 -176 146 -176q87 0 141 62.5t55 179.5q20 5 41 5q24 0 45 -9q-2 -26 -2 -62q0 -82 50 -129t133 -47h35q30 0 30 -30v-200q0 -30 -28 -30h-16q-88 0 -155 50q-80 59 -96 170h-3
q-22 -97 -87.5 -158.5t-142.5 -61.5q-175 0 -203 217h-4q-17 -103 -79 -163q-56 -54 -122 -54q-182 0 -208 219h-3q-16 -100 -78 -163q-56 -56 -118 -56h-24z" />
    <glyph glyph-name="uniFD1A" unicode="&#xfeb8;&#xfef2;" horiz-adv-x="2546" arabic-form="final" 
d="M787 -775l-130 -131l-136 121l130 129zM516 -779l-130 -131l-137 121l130 129zM2129 831l-123 -121l-131 113l124 120zM1871 828l-124 -122l-130 113l124 120zM1996 1056l-123 -121l-130 113l124 120zM1213 0q-47 0 -155.5 28t-132.5 28q-66 0 -95 -67q50 -29 121 -46
q125 -31 182 -94q-2 -53 -31 -144q-30 -94 -59 -132q-117 -41 -293 -76q-199 -40 -332 -40q-373 0 -373 278q0 86 52 224q55 145 128 242q37 0 61 -35q-90 -151 -90 -265q0 -203 343 -203q95 0 273 16q163 15 209 25q-8 28 -121 58q-126 33 -174 80q55 394 246 394
q43 0 115.5 -5.5t104.5 -5.5h66q46 0 93 65q52 75 54 177q19 5 41 5q19 0 45 -10q-2 -25 -2 -61q0 -176 143 -176q86 0 138 66t52 176q20 5 41 5q20 0 45 -10q-2 -25 -2 -61q0 -176 146 -176q87 0 141 62.5t55 179.5q20 5 41 5q24 0 45 -9q-2 -26 -2 -62q0 -82 50 -129
t133 -47h35q30 0 30 -30v-200q0 -30 -28 -30h-16q-88 0 -155 50q-80 59 -96 170h-3q-22 -97 -87.5 -158.5t-142.5 -61.5q-175 0 -203 217h-4q-17 -103 -79 -163q-56 -54 -122 -54q-182 0 -208 219h-3q-16 -100 -78 -163q-56 -56 -118 -56h-24z" />
    <glyph glyph-name="uniFD21" unicode="&#xfebc;&#xfef0;" horiz-adv-x="2653" arabic-form="final" 
d="M2358 360q-24 144 -169 144q-72 0 -160 -60q-98 -69 -182 -193h93q307 0 418 109zM1213 0q-47 0 -155.5 28t-132.5 28q-66 0 -95 -67q50 -29 121 -46q125 -31 182 -94q-2 -53 -31 -144q-30 -94 -59 -132q-117 -41 -293 -76q-199 -40 -332 -40q-373 0 -373 278
q0 86 52 224q55 145 128 242q37 0 61 -35q-90 -151 -90 -265q0 -203 343 -203q95 0 273 16q163 15 209 25q-8 28 -121 58q-126 33 -174 80q55 394 246 394q43 0 115.5 -5.5t104.5 -5.5h64q183 0 205 238q12 9 32 9q21 0 41 -9q0 -238 186 -238q322 417 584 417
q107 0 183 -72q70 -67 86 -169q-24 -55 -108 -139q19 -12 72.5 -24.5t80.5 -12.5h35q29 0 29 -30v-200q0 -30 -27 -30h-17q-159 0 -323 164q-235 -164 -576 -164q-93 0 -161 53q-76 59 -89 166h-4q-24 -101 -93 -162q-65 -57 -144 -57h-35z" />
    <glyph glyph-name="uniFD22" unicode="&#xfebc;&#xfef2;" horiz-adv-x="2653" arabic-form="final" 
d="M787 -775l-130 -131l-136 121l130 129zM516 -779l-130 -131l-137 121l130 129zM2358 360q-24 144 -169 144q-72 0 -160 -60q-98 -69 -182 -193h93q307 0 418 109zM1213 0q-47 0 -155.5 28t-132.5 28q-66 0 -95 -67q50 -29 121 -46q125 -31 182 -94q-2 -53 -31 -144
q-30 -94 -59 -132q-117 -41 -293 -76q-199 -40 -332 -40q-373 0 -373 278q0 86 52 224q55 145 128 242q37 0 61 -35q-90 -151 -90 -265q0 -203 343 -203q95 0 273 16q163 15 209 25q-8 28 -121 58q-126 33 -174 80q55 394 246 394q43 0 115.5 -5.5t104.5 -5.5h64
q183 0 205 238q12 9 32 9q21 0 41 -9q0 -238 186 -238q322 417 584 417q107 0 183 -72q70 -67 86 -169q-24 -55 -108 -139q19 -12 72.5 -24.5t80.5 -12.5h35q29 0 29 -30v-200q0 -30 -27 -30h-17q-159 0 -323 164q-235 -164 -576 -164q-93 0 -161 53q-76 59 -89 166h-4
q-24 -101 -93 -162q-65 -57 -144 -57h-35z" />
    <glyph glyph-name="uniFD23" unicode="&#xfec0;&#xfef0;" horiz-adv-x="2653" arabic-form="final" 
d="M2357 1000l-161 -141l-155 145l160 140zM2358 360q-24 144 -169 144q-72 0 -160 -60q-98 -69 -182 -193h93q307 0 418 109zM1213 0q-47 0 -155.5 28t-132.5 28q-66 0 -95 -67q50 -29 121 -46q125 -31 182 -94q-2 -53 -31 -144q-30 -94 -59 -132q-117 -41 -293 -76
q-199 -40 -332 -40q-373 0 -373 278q0 86 52 224q55 145 128 242q37 0 61 -35q-90 -151 -90 -265q0 -203 343 -203q95 0 273 16q163 15 209 25q-8 28 -121 58q-126 33 -174 80q55 394 246 394q43 0 115.5 -5.5t104.5 -5.5h64q183 0 205 238q12 9 32 9q21 0 41 -9
q0 -238 186 -238q322 417 584 417q107 0 183 -72q70 -67 86 -169q-24 -55 -108 -139q19 -12 72.5 -24.5t80.5 -12.5h35q29 0 29 -30v-200q0 -30 -27 -30h-17q-159 0 -323 164q-235 -164 -576 -164q-93 0 -161 53q-76 59 -89 166h-4q-24 -101 -93 -162q-65 -57 -144 -57h-35z
" />
    <glyph glyph-name="uniFD24" unicode="&#xfec0;&#xfef2;" horiz-adv-x="2653" arabic-form="final" 
d="M787 -775l-130 -131l-136 121l130 129zM516 -779l-130 -131l-137 121l130 129zM2357 1000l-161 -141l-155 145l160 140zM2358 360q-24 144 -169 144q-72 0 -160 -60q-98 -69 -182 -193h93q307 0 418 109zM1213 0q-47 0 -155.5 28t-132.5 28q-66 0 -95 -67q50 -29 121 -46
q125 -31 182 -94q-2 -53 -31 -144q-30 -94 -59 -132q-117 -41 -293 -76q-199 -40 -332 -40q-373 0 -373 278q0 86 52 224q55 145 128 242q37 0 61 -35q-90 -151 -90 -265q0 -203 343 -203q95 0 273 16q163 15 209 25q-8 28 -121 58q-126 33 -174 80q55 394 246 394
q43 0 115.5 -5.5t104.5 -5.5h64q183 0 205 238q12 9 32 9q21 0 41 -9q0 -238 186 -238q322 417 584 417q107 0 183 -72q70 -67 86 -169q-24 -55 -108 -139q19 -12 72.5 -24.5t80.5 -12.5h35q29 0 29 -30v-200q0 -30 -27 -30h-17q-159 0 -323 164q-235 -164 -576 -164
q-93 0 -161 53q-76 59 -89 166h-4q-24 -101 -93 -162q-65 -57 -144 -57h-35z" />
    <glyph glyph-name="uniFD29" unicode="&#xfeb8;&#xfeae;" horiz-adv-x="2129" arabic-form="final" 
d="M1710 831l-123 -121l-130 113l124 120zM1452 828l-124 -122l-129 113l124 120zM1578 1056l-123 -121l-130 113l124 120zM793 0q-50 0 -136 57q-42 -294 -317 -591q-225 48 -340 135q394 165 534 403q-37 104 -194 231l126 244q126 -144 188 -186q50 -33 119 -33h66
q47 0 93 65q53 75 55 177q19 5 41 5q19 0 44 -10q-2 -25 -2 -61q0 -176 143 -176q86 0 138 66t53 176q20 5 41 5q20 0 45 -10q-2 -25 -2 -61q0 -176 145 -176q88 0 141.5 62.5t54.5 179.5q20 5 41 5q24 0 45 -9q-2 -26 -2 -62q0 -82 50 -129t133 -47h36q30 0 30 -30v-200
q0 -30 -28 -30h-17q-87 0 -155 50q-80 59 -95 170h-4q-22 -97 -87 -158.5t-143 -61.5q-174 0 -203 217h-3q-18 -103 -80 -163q-55 -54 -122 -54q-182 0 -207 219h-4q-16 -100 -77 -163q-56 -56 -119 -56h-25z" />
    <glyph glyph-name="uniFD2A" unicode="&#xfeb4;&#xfeae;" horiz-adv-x="2129" arabic-form="final" 
d="M793 0q-50 0 -136 57q-42 -294 -317 -591q-225 48 -340 135q394 165 534 403q-37 104 -194 231l126 244q126 -144 188 -186q50 -33 119 -33h66q47 0 93 65q53 75 55 177q19 5 41 5q19 0 44 -10q-2 -25 -2 -61q0 -176 143 -176q86 0 138 66t53 176q20 5 41 5q20 0 45 -10
q-2 -25 -2 -61q0 -176 145 -176q88 0 141.5 62.5t54.5 179.5q20 5 41 5q24 0 45 -9q-2 -26 -2 -62q0 -82 50 -129t133 -47h36q30 0 30 -30v-200q0 -30 -28 -30h-17q-87 0 -155 50q-80 59 -95 170h-4q-22 -97 -87 -158.5t-143 -61.5q-174 0 -203 217h-3q-18 -103 -80 -163
q-55 -54 -122 -54q-182 0 -207 219h-4q-16 -100 -77 -163q-56 -56 -119 -56h-25z" />
    <glyph glyph-name="uniFD2B" unicode="&#xfebc;&#xfeae;" horiz-adv-x="2230" arabic-form="final" 
d="M1940 360q-25 144 -170 144q-72 0 -159 -60q-99 -69 -183 -193h93q307 0 419 109zM793 0q-50 0 -136 57q-42 -294 -317 -591q-225 48 -340 135q394 165 534 403q-37 104 -194 231l126 244q126 -144 188 -186q50 -33 119 -33h64q183 0 205 238q13 9 32 9q22 0 41 -9
q0 -238 187 -238q321 417 584 417q106 0 182 -72q70 -67 87 -169q-25 -55 -109 -139q19 -12 73 -24.5t80 -12.5h36q29 0 29 -30v-200q0 -30 -27 -30h-18q-158 0 -322 164q-235 -164 -577 -164q-93 0 -160 53q-77 59 -90 166h-3q-25 -101 -94 -162q-65 -57 -144 -57h-36z" />
    <glyph glyph-name="uniFD2C" unicode="&#xfec0;&#xfeae;" horiz-adv-x="2230" arabic-form="final" 
d="M1939 1000l-162 -141l-154 145l160 140zM1940 360q-25 144 -170 144q-72 0 -159 -60q-99 -69 -183 -193h93q307 0 419 109zM793 0q-50 0 -136 57q-42 -294 -317 -591q-225 48 -340 135q394 165 534 403q-37 104 -194 231l126 244q126 -144 188 -186q50 -33 119 -33h64
q183 0 205 238q13 9 32 9q22 0 41 -9q0 -238 187 -238q321 417 584 417q106 0 182 -72q70 -67 87 -169q-25 -55 -109 -139q19 -12 73 -24.5t80 -12.5h36q29 0 29 -30v-200q0 -30 -27 -30h-18q-158 0 -322 164q-235 -164 -577 -164q-93 0 -160 53q-77 59 -90 166h-3
q-25 -101 -94 -162q-65 -57 -144 -57h-36z" />
    <glyph glyph-name="uniFEF5" unicode="&#xfedf;&#xfe82;" horiz-adv-x="1092" arabic-form="isolated" 
d="M1045 998q-14 -5 -35 -5q-22 0 -38 7q0 -166 -58 -325q-64 -173 -178 -281q51 -77 74 -144q0 -119 -30 -232q-139 -46 -344 -46q-102 0 -148 17q10 29 24.5 125.5t16.5 141.5q45 18 136.5 73t122.5 82q-88 132 -204 251q-113 116 -193 159q0 -39 -32 -68q-43 96 -114 185
l105 314q188 -198 530 -765q45 30 78.5 125.5t33.5 195.5q0 78 -19.5 208t-19.5 145l194 124q48 -194 98 -287zM700 235q-16 36 -57 93q-24 -19 -103.5 -64t-117.5 -61v-3q18 0 42.5 -1t35.5 -1q136 0 200 37zM408 1441q-41 -38 -96 -57t-120 -19q-20 0 -37 0.5t-33 2.5
q-9 -16 -15 -33t-11 -33h-72q3 47 13 93t29 93q57 -15 138 -15q59 0 109 15t95 42v-89z" />
    <glyph glyph-name="uniFEF6" unicode="&#xfee0;&#xfe82;" horiz-adv-x="1172" arabic-form="final" 
d="M1210 30q0 -30 -28 -30h-17q-269 0 -269 351q0 149 25 464l-4 4q-38 -187 -145.5 -447t-203.5 -397q-128 -48 -313 -48q-86 0 -170 17q86 43 236 158t191 172q-40 154 -120 296q-83 151 -169 212l-9 -70l-155 152l45 347q210 -150 311 -314q110 -177 191 -518
q114 164 179 346q65 180 65 329q0 32 -11 103l212 143q-14 -511 -14 -811q0 -145 20.5 -187t87.5 -42h36q29 0 29 -30v-200zM414 1432q-41 -38 -96 -57t-120 -19q-20 0 -37 0.5t-33 2.5q-9 -16 -15 -33t-11 -33h-72q3 47 13 93t29 93q57 -15 138 -15q59 0 109 15t95 42v-89z
" />
    <glyph glyph-name="uniFEF7" unicode="&#xfedf;&#xfe84;" horiz-adv-x="1092" arabic-form="isolated" 
d="M1045 998q-14 -5 -35 -5q-22 0 -38 7q0 -166 -58 -325q-64 -173 -179 -281q52 -77 75 -144q0 -119 -30 -232q-139 -46 -344 -46q-102 0 -148 17q10 29 24.5 125.5t16.5 141.5q45 18 136.5 73t122.5 82q-88 132 -204 251q-113 116 -193 159q0 -39 -32 -68q-43 96 -114 185
l105 314q188 -198 530 -765q45 30 78.5 125.5t33.5 195.5q0 78 -19.5 208t-19.5 145l194 124q48 -194 98 -287zM700 235q-17 36 -58 93q-23 -19 -102.5 -64t-117.5 -61v-3q18 0 42 -1t36 -1q136 0 200 37zM338 1415q-95 -24 -168.5 -54.5t-116.5 -65.5v97l36 30
q-20 16 -33 36.5t-13 42.5q0 28 17 49.5t51 52.5q29 30 58.5 45.5t65.5 15.5q29 0 55 -16t42 -45l-69 -68q-16 21 -33 30t-38 9q-15 0 -29.5 -6.5t-25.5 -21.5q3 -22 22 -41t45 -30q42 13 84.5 25t77.5 20z" />
    <glyph glyph-name="uniFEF8" unicode="&#xfee0;&#xfe84;" horiz-adv-x="1172" arabic-form="final" 
d="M1210 30q0 -30 -28 -30h-17q-269 0 -269 351q0 149 25 464l-4 4q-38 -187 -145.5 -447t-203.5 -397q-128 -48 -313 -48q-86 0 -170 17q86 43 236 158t191 172q-40 154 -120 296q-83 151 -169 212l-9 -70l-155 152l45 347q210 -150 311 -314q110 -177 191 -518
q114 164 179 346q65 180 65 329q0 32 -11 103l212 143q-14 -511 -14 -811q0 -145 20.5 -187t87.5 -42h36q29 0 29 -30v-200zM344 1406q-95 -24 -168.5 -54.5t-116.5 -66.5v98l36 30q-20 15 -33 35.5t-13 43.5q0 28 17 49t51 53q29 29 58.5 45t65.5 16q29 0 55 -16t42 -46
l-69 -67q-16 21 -33 30t-38 9q-15 0 -29.5 -7t-25.5 -21q3 -22 22 -41t45 -30q42 13 84.5 25t77.5 19z" />
    <glyph glyph-name="uniFEF9" unicode="&#xfedf;&#xfe88;" horiz-adv-x="1092" arabic-form="isolated" 
d="M1045 998q-14 -5 -35 -5q-22 0 -38 7q0 -166 -58 -325q-64 -173 -178 -281q51 -77 74 -144q0 -119 -30 -232q-139 -46 -344 -46q-102 0 -148 17q10 29 24.5 125.5t16.5 141.5q45 18 136.5 73t122.5 82q-87 132 -204 251q-113 116 -193 159q0 -39 -32 -68q-43 96 -114 185
l105 314q188 -198 530 -765q46 30 79 125.5t33 195.5q0 78 -19.5 208t-19.5 145l194 124q48 -194 98 -287zM700 235q-16 36 -57 93q-24 -19 -103.5 -64t-117.5 -61v-3q18 0 42.5 -1t36.5 -1q135 0 199 37zM441 -357q-94 -24 -168 -54.5t-117 -65.5v97l36 30q-20 16 -33 36.5
t-13 42.5q0 28 17 49.5t51 52.5q30 30 59 45.5t65 15.5q30 0 55.5 -16t41.5 -45l-69 -68q-16 21 -33 30t-37 9q-16 0 -30.5 -6.5t-25.5 -21.5q3 -22 22 -41t45 -30q42 13 84.5 25t77.5 20z" />
    <glyph glyph-name="uniFEFA" unicode="&#xfee0;&#xfe88;" horiz-adv-x="1172" arabic-form="final" 
d="M1210 30q0 -30 -28 -30h-17q-269 0 -269 351q0 149 25 464l-4 4q-38 -187 -145.5 -447t-203.5 -397q-128 -48 -313 -48q-86 0 -170 17q86 43 236 158t191 172q-40 154 -120 296q-83 151 -169 212l-9 -70l-155 152l45 347q210 -150 311 -314q110 -177 191 -518
q113 164 179 346q65 180 65 329q0 32 -11 103l212 143q-14 -511 -14 -811q0 -145 20.5 -187t87.5 -42h35q30 0 30 -30v-200zM463 -407q-95 -24 -169 -54.5t-117 -65.5v97l36 30q-20 16 -33 36.5t-13 42.5q0 28 17 49t52 53q29 30 58 45.5t66 15.5q29 0 55 -16t41 -46
l-69 -67q-16 21 -32.5 30t-37.5 9q-16 0 -30.5 -6.5t-25.5 -21.5q3 -22 22 -41t46 -30q42 13 84 25t77 20z" />
    <glyph glyph-name="uniFEFB" unicode="&#xfedf;&#xfe8e;" horiz-adv-x="1101" arabic-form="isolated" 
d="M1045 998q-14 -5 -35 -5q-22 0 -38 7q0 -166 -58 -325q-64 -173 -178 -281q51 -77 74 -144q0 -119 -30 -232q-139 -46 -344 -46q-102 0 -148 17q10 29 24.5 125.5t16.5 141.5q45 18 136.5 73t122.5 82q-87 132 -204 251q-113 116 -193 159q0 -39 -32 -68q-43 96 -114 185
l105 314q188 -198 530 -765q46 30 79 125.5t33 195.5q0 78 -19.5 208t-19.5 145l194 124q48 -194 98 -287zM700 235q-16 36 -57 93q-24 -19 -103.5 -64t-117.5 -61v-3q18 0 42.5 -1t36.5 -1q135 0 199 37z" />
    <glyph glyph-name="uniFEFC" unicode="&#xfee0;&#xfe8e;" horiz-adv-x="1172" arabic-form="final" 
d="M1210 30q0 -30 -28 -30h-17q-269 0 -269 351q0 149 25 464l-4 4q-38 -187 -145.5 -447t-203.5 -397q-128 -48 -313 -48q-86 0 -170 17q86 43 236 158t191 172q-40 154 -120 296q-83 151 -169 212l-9 -70l-155 152l45 347q210 -150 311 -314q110 -177 191 -518
q113 164 179 346q65 180 65 329q0 32 -11 103l212 143q-14 -511 -14 -811q0 -145 20.5 -187t87.5 -42h35q30 0 30 -30v-200z" />
    <glyph glyph-name="uniFE8B_uniFEE4.liga" unicode="&#xfe8b;&#xfee4;" horiz-adv-x="1339" 
d="M566 224q-45 155 -204 198q-39 -18 -68 -75q13 -77 68 -138t133 -81q56 34 71 96zM740 41q-57 47 -85 121q-29 -66 -90 -131.5t-113 -84.5q-190 39 -269 230q-27 -87 -88 -137q-48 -39 -87 -39h-17q-28 0 -28 30v200q0 30 30 30h34q70 0 141 115q116 188 241 228
q164 -31 260 -187t132 -156h119q123 0 199 59q-33 111 -117 199l144 200q88 -112 114 -266q-7 -54 -40 -160q-34 -111 -58 -154q-115 -138 -271 -138h-80q-13 0 -28.5 8.5t-42.5 32.5zM1218 893q-94 -24 -163.5 -53t-112.5 -65v98l36 30q-20 15 -33 35.5t-13 43.5
q0 27 17 48.5t52 53.5q29 29 58 45t66 16q29 0 55 -16.5t41 -45.5l-69 -67q-16 21 -32.5 30t-37.5 9q-16 0 -30.5 -7t-25.5 -21q3 -22 22 -41t46 -30q41 12 79 23t73 19z" />
    <glyph glyph-name="uniFE8B_uniFEF0.liga" unicode="&#xfe8b;&#xfef0;" horiz-adv-x="1726" 
d="M1600 893q-95 -24 -164 -53t-112 -65v98l36 30q-20 15 -33 35.5t-13 43.5q0 27 17 48.5t51 53.5q30 29 59 45t65 16q29 0 55 -16.5t42 -45.5l-69 -67q-16 21 -33 30t-38 9q-15 0 -29.5 -7t-25.5 -21q3 -22 22 -41t45 -30q42 12 80 23t72 19zM1057 28q-108 28 -132 28
q-66 0 -95 -67q50 -29 121 -46q125 -31 182 -94q-2 -53 -31 -144q-30 -94 -59 -132q-117 -41 -293 -76q-199 -40 -332 -40q-373 0 -373 278q0 86 52 224q55 145 128 242q37 0 61 -35q-90 -151 -90 -265q0 -203 343 -203q95 0 273 16q163 15 209 25q-8 28 -121 58
q-126 33 -174 80q55 394 246 394q43 0 115.5 -5.5t104.5 -5.5h109q123 0 200 59q-33 111 -118 199l145 200q88 -112 114 -266q-7 -54 -40 -160q-35 -111 -58 -154q-115 -138 -271 -138q-140 8 -216 28z" />
    <glyph glyph-name="uniFE8B_uniFEF2.liga" unicode="&#xfe8b;&#xfef2;" horiz-adv-x="1726" 
d="M787 -775l-130 -131l-136 121l130 129zM516 -779l-130 -131l-137 121l130 129zM1600 893q-95 -24 -164 -53t-112 -65v98l36 30q-20 15 -33 35.5t-13 43.5q0 27 17 48.5t51 53.5q30 29 59 45t65 16q29 0 55 -16.5t42 -45.5l-69 -67q-16 21 -33 30t-38 9q-15 0 -29.5 -7
t-25.5 -21q3 -22 22 -41t45 -30q42 12 80 23t72 19zM1057 28q-108 28 -132 28q-66 0 -95 -67q50 -29 121 -46q125 -31 182 -94q-2 -53 -31 -144q-30 -94 -59 -132q-117 -41 -293 -76q-199 -40 -332 -40q-373 0 -373 278q0 86 52 224q55 145 128 242q37 0 61 -35
q-90 -151 -90 -265q0 -203 343 -203q95 0 273 16q163 15 209 25q-8 28 -121 58q-126 33 -174 80q55 394 246 394q43 0 115.5 -5.5t104.5 -5.5h109q123 0 200 59q-33 111 -118 199l145 200q88 -112 114 -266q-7 -54 -40 -160q-35 -111 -58 -154q-115 -138 -271 -138
q-140 8 -216 28z" />
    <glyph glyph-name="uniFE91_uniFEE4.liga" unicode="&#xfe91;&#xfee4;" horiz-adv-x="1310" 
d="M1243 -292l-161 -142l-155 145l160 141zM566 224q-45 155 -204 198q-39 -18 -68 -75q13 -77 68 -138t133 -81q56 34 71 96zM813 1q-31 4 -73 40q-57 47 -85 121q-29 -66 -90 -131.5t-113 -84.5q-190 39 -269 230q-27 -87 -88 -137q-48 -39 -87 -39h-17q-28 0 -28 30v200
q0 30 30 30h34q70 0 141 115q116 188 241 228q164 -31 260 -187t132 -156h57q158 0 233 59q-34 114 -116 199l145 200q37 -47 70.5 -128t41.5 -138q-7 -53 -40 -160q-34 -111 -57 -154q-115 -137 -296 -138h-18q-3 0 -8 1z" />
    <glyph glyph-name="uniFE92_uniFEE6.liga" unicode="&#xfe92;&#xfee6;" horiz-adv-x="1774" 
d="M780 655l-161 -141l-155 145l160 140zM1658 -301l-162 -141l-155 145l161 140zM1225 0q-63 0 -109 52q0 -52 -18 -170q-19 -124 -37 -181q-114 -119 -279 -183q-156 -61 -322 -61q-220 0 -328 101q-87 83 -87 218q0 97 58 238q60 145 153 264q34 0 58 -34
q-65 -110 -87.5 -173t-22.5 -137q0 -217 323 -217q148 0 293 54q121 45 193 108q-9 105 -60.5 211t-113.5 149l100 258q84 -138 143 -189q54 -48 122 -48h70q183 0 205 238q13 9 32 9q22 0 41 -9q0 -238 187 -238h35q29 0 29 -30v-200q0 -30 -27 -30h-17q-217 0 -248 244h-4
q-39 -244 -252 -244h-30z" />
    <glyph glyph-name="uniFE91_uniFEF0.liga" unicode="&#xfe91;&#xfef0;" horiz-adv-x="1711" 
d="M1213 0q-47 0 -155.5 28t-132.5 28q-66 0 -95 -67q50 -29 121 -46q125 -31 182 -94q-2 -53 -31 -144q-30 -94 -59 -132q-117 -41 -293 -76q-199 -40 -332 -40q-373 0 -373 278q0 86 52 224q55 145 128 242q37 0 61 -35q-90 -151 -90 -265q0 -203 343 -203q95 0 273 16
q163 15 209 25q-8 28 -121 58q-126 33 -174 80q55 394 246 394q43 0 115.5 -5.5t104.5 -5.5h75q158 0 233 59q-34 114 -116 199l145 200q37 -47 70.5 -128t41.5 -138q-7 -53 -40 -160q-34 -111 -56 -154q-117 -138 -299 -138h-33zM1652 -292l-161 -142l-155 145l160 141z
" />
    <glyph glyph-name="uniFE91_uniFEF2.liga" unicode="&#xfe91;&#xfef2;" horiz-adv-x="1711" 
d="M787 -775l-130 -131l-136 121l130 129zM516 -779l-130 -131l-137 121l130 129zM1213 0q-47 0 -155.5 28t-132.5 28q-66 0 -95 -67q50 -29 121 -46q125 -31 182 -94q-2 -53 -31 -144q-30 -94 -59 -132q-117 -41 -293 -76q-199 -40 -332 -40q-373 0 -373 278q0 86 52 224
q55 145 128 242q37 0 61 -35q-90 -151 -90 -265q0 -203 343 -203q95 0 273 16q163 15 209 25q-8 28 -121 58q-126 33 -174 80q55 394 246 394q43 0 115.5 -5.5t104.5 -5.5h75q158 0 233 59q-34 114 -116 199l145 200q37 -47 70.5 -128t41.5 -138q-7 -53 -40 -160
q-34 -111 -56 -154q-117 -138 -299 -138h-33zM1652 -292l-161 -142l-155 145l160 141z" />
    <glyph glyph-name="uniFE97_uniFEE4.liga" unicode="&#xfe97;&#xfee4;" horiz-adv-x="1427" 
d="M1392 933l-123 -121l-130 113l124 120zM1135 930l-124 -122l-130 113l124 120zM566 224q-45 155 -204 198q-39 -18 -68 -75q13 -77 68 -138t133 -81q56 34 71 96zM821 0q-34 0 -81 41q-57 47 -85 121q-29 -66 -90 -131.5t-113 -84.5q-190 39 -269 230q-27 -87 -88 -137
q-48 -39 -87 -39h-17q-28 0 -28 30v200q0 30 30 30h34q70 0 141 115q116 188 241 228q164 -31 260 -187t132 -156h137q123 0 199 59q-32 111 -117 199l145 200q87 -112 114 -266q-8 -54 -41 -160q-34 -111 -58 -154q-115 -138 -270 -138h-89z" />
    <glyph glyph-name="uniFE98_uniFEE6.liga" unicode="&#xfe98;&#xfee6;" horiz-adv-x="1874" 
d="M780 655l-161 -141l-155 145l160 140zM1816 803l-123 -122l-130 113l124 121zM1558 800l-124 -122l-129 113l124 120zM1225 0q-63 0 -109 52q0 -52 -18 -170q-19 -124 -37 -181q-114 -119 -279 -183q-156 -61 -322 -61q-220 0 -328 101q-87 83 -87 218q0 97 58 238
q60 145 153 264q34 0 58 -34q-65 -110 -87.5 -173t-22.5 -137q0 -217 323 -217q148 0 293 54q121 45 193 108q-9 105 -60.5 211t-113.5 149l100 258q84 -138 143 -189q54 -48 122 -48h70q130 0 187 55t63 183q21 9 37 9q23 0 39 -9q-4 -128 50.5 -183t190.5 -55h35
q30 0 30 -30v-200q0 -30 -28 -30h-16q-155 0 -223 60q-61 54 -80 184h-4q-28 -133 -88 -186q-66 -58 -212 -58h-30z" />
    <glyph glyph-name="uniFE97_uniFEF0.liga" unicode="&#xfe97;&#xfef0;" horiz-adv-x="1815" 
d="M1783 933l-123 -121l-130 113l124 120zM1525 930l-123 -122l-130 113l124 120zM1213 0q-47 0 -155.5 28t-132.5 28q-66 0 -95 -67q50 -29 121 -46q125 -31 182 -94q-2 -53 -31 -144q-30 -94 -59 -132q-117 -41 -293 -76q-199 -40 -332 -40q-373 0 -373 278q0 86 52 224
q55 145 128 242q37 0 61 -35q-90 -151 -90 -265q0 -203 343 -203q95 0 273 16q163 15 209 25q-8 28 -121 58q-126 33 -174 80q55 394 246 394q43 0 115.5 -5.5t104.5 -5.5h137q123 0 199 59q-33 111 -117 199l144 200q88 -112 114 -266q-7 -54 -40 -160q-34 -111 -58 -154
q-115 -138 -271 -138h-87z" />
    <glyph glyph-name="uniFE97_uniFEF2.liga" unicode="&#xfe97;&#xfef2;" horiz-adv-x="1815" 
d="M787 -775l-130 -131l-136 121l130 129zM516 -779l-130 -131l-137 121l130 129zM1783 933l-123 -121l-130 113l124 120zM1525 930l-123 -122l-130 113l124 120zM1213 0q-47 0 -155.5 28t-132.5 28q-66 0 -95 -67q50 -29 121 -46q125 -31 182 -94q-2 -53 -31 -144
q-30 -94 -59 -132q-117 -41 -293 -76q-199 -40 -332 -40q-373 0 -373 278q0 86 52 224q55 145 128 242q37 0 61 -35q-90 -151 -90 -265q0 -203 343 -203q95 0 273 16q163 15 209 25q-8 28 -121 58q-126 33 -174 80q55 394 246 394q43 0 115.5 -5.5t104.5 -5.5h137
q123 0 199 59q-33 111 -117 199l144 200q88 -112 114 -266q-7 -54 -40 -160q-34 -111 -58 -154q-115 -138 -271 -138h-87z" />
    <glyph glyph-name="uniFE9C_uniFEAE.liga" unicode="&#xfe9c;&#xfeae;" horiz-adv-x="1435" 
d="M1379 803l-123 -122l-130 113l124 121zM1121 800l-123 -122l-130 113l124 120zM1247 1028l-123 -122l-130 113l124 121zM793 0q-50 0 -136 57q-42 -294 -317 -591q-225 48 -340 135q394 165 534 403q-37 104 -194 231l126 244q126 -144 188 -186q50 -33 119 -33h64
q131 0 187.5 55t62.5 183q22 9 37 9q23 0 39 -9q-4 -128 50.5 -183t190.5 -55h35q30 0 30 -30v-200q0 -30 -28 -30h-16q-155 0 -222 60q-61 54 -81 184h-3q-28 -133 -89 -186q-66 -58 -212 -58h-25z" />
    <glyph glyph-name="uniFE9B_uniFEE4.liga" unicode="&#xfe9b;&#xfee4;" horiz-adv-x="1427" 
d="M1392 933l-123 -121l-130 113l124 120zM1135 930l-124 -122l-130 113l124 120zM1260 1158l-123 -121l-130 113l124 120zM566 224q-45 155 -204 198q-39 -18 -68 -75q13 -77 68 -138t133 -81q56 34 71 96zM821 0q-34 0 -81 41q-57 47 -85 121q-29 -66 -90 -131.5
t-113 -84.5q-190 39 -269 230q-27 -87 -88 -137q-48 -39 -87 -39h-17q-28 0 -28 30v200q0 30 30 30h34q70 0 141 115q116 188 241 228q164 -31 260 -187t132 -156h137q123 0 199 59q-32 111 -117 199l145 200q87 -112 114 -266q-8 -54 -41 -160q-34 -111 -58 -154
q-115 -138 -270 -138h-89z" />
    <glyph glyph-name="uniFE9C_uniFEE6.liga" unicode="&#xfe9c;&#xfee6;" horiz-adv-x="1874" 
d="M780 655l-161 -141l-155 145l160 140zM1816 803l-123 -122l-130 113l124 121zM1558 800l-124 -122l-129 113l124 120zM1684 1028l-123 -122l-130 113l124 121zM1225 0q-63 0 -109 52q0 -52 -18 -170q-19 -124 -37 -181q-114 -119 -279 -183q-156 -61 -322 -61
q-220 0 -328 101q-87 83 -87 218q0 97 58 238q60 145 153 264q34 0 58 -34q-65 -110 -87.5 -173t-22.5 -137q0 -217 323 -217q148 0 293 54q121 45 193 108q-9 105 -60.5 211t-113.5 149l100 258q84 -138 143 -189q54 -48 122 -48h70q130 0 187 55t63 183q21 9 37 9
q23 0 39 -9q-4 -128 50.5 -183t190.5 -55h35q30 0 30 -30v-200q0 -30 -28 -30h-16q-155 0 -223 60q-61 54 -80 184h-4q-28 -133 -88 -186q-66 -58 -212 -58h-30z" />
    <glyph glyph-name="uniFE9B_uniFEF0.liga" unicode="&#xfe9b;&#xfef0;" horiz-adv-x="1815" 
d="M1783 933l-123 -121l-130 113l124 120zM1525 930l-123 -122l-130 113l124 120zM1651 1158l-123 -121l-130 113l124 120zM1213 0q-47 0 -155.5 28t-132.5 28q-66 0 -95 -67q50 -29 121 -46q125 -31 182 -94q-2 -53 -31 -144q-30 -94 -59 -132q-117 -41 -293 -76
q-199 -40 -332 -40q-373 0 -373 278q0 86 52 224q55 145 128 242q37 0 61 -35q-90 -151 -90 -265q0 -203 343 -203q95 0 273 16q163 15 209 25q-8 28 -121 58q-126 33 -174 80q55 394 246 394q43 0 115.5 -5.5t104.5 -5.5h137q123 0 199 59q-33 111 -117 199l144 200
q88 -112 114 -266q-7 -54 -40 -160q-34 -111 -58 -154q-115 -138 -271 -138h-87z" />
    <glyph glyph-name="uniFE9B_uniFEF2.liga" unicode="&#xfe9b;&#xfef2;" horiz-adv-x="1815" 
d="M787 -775l-130 -131l-136 121l130 129zM516 -779l-130 -131l-137 121l130 129zM1783 933l-123 -121l-130 113l124 120zM1525 930l-123 -122l-130 113l124 120zM1651 1158l-123 -121l-130 113l124 120zM1213 0q-47 0 -155.5 28t-132.5 28q-66 0 -95 -67q50 -29 121 -46
q125 -31 182 -94q-2 -53 -31 -144q-30 -94 -59 -132q-117 -41 -293 -76q-199 -40 -332 -40q-373 0 -373 278q0 86 52 224q55 145 128 242q37 0 61 -35q-90 -151 -90 -265q0 -203 343 -203q95 0 273 16q163 15 209 25q-8 28 -121 58q-126 33 -174 80q55 394 246 394
q43 0 115.5 -5.5t104.5 -5.5h137q123 0 199 59q-33 111 -117 199l144 200q88 -112 114 -266q-7 -54 -40 -160q-34 -111 -58 -154q-115 -138 -271 -138h-87z" />
    <glyph glyph-name="uniFEDB_uniFEF0.liga" unicode="&#xfedb;&#xfef0;" horiz-adv-x="2061" 
d="M1213 0q-47 0 -155.5 28t-132.5 28q-66 0 -95 -67q50 -29 121 -46q125 -31 182 -94q-2 -53 -31 -144q-30 -94 -59 -132q-117 -41 -293 -76q-199 -40 -332 -40q-373 0 -373 278q0 86 52 224q55 145 128 242q37 0 61 -35q-90 -151 -90 -265q0 -203 343 -203q95 0 273 16
q163 15 209 25q-8 28 -121 58q-126 33 -174 80q55 394 246 394q43 0 115.5 -5.5t104.5 -5.5h99q74 0 128 5.5t93 16t64 26t40 34.5q-16 46 -42.5 87.5t-69 80t-104 74.5t-146.5 69q0 47 3 97.5t8 97.5t11.5 85.5t12.5 59.5q41 26 101.5 57t131.5 63.5t146.5 63.5t145 56.5
t128 43.5t95.5 23l-117 -255q-29 -6 -73 -20.5t-95.5 -33t-106.5 -40.5t-108 -44t-100 -44t-81 -40q57 -17 115.5 -49t108 -72t85.5 -83t49 -81q0 -17 -0.5 -39.5t-2 -48t-3 -53.5t-4.5 -55q-4 -46 -8.5 -84.5t-8.5 -59.5q-54 -59 -102 -97t-100 -60.5t-112 -31.5t-136 -9
h-24z" />
    <glyph glyph-name="uniFEDC_uniFEF0.liga" unicode="&#xfedc;&#xfef0;" horiz-adv-x="2170" 
d="M1213 0q-47 0 -155.5 28t-132.5 28q-66 0 -95 -67q50 -29 121 -46q125 -31 182 -94q-2 -53 -31 -144q-30 -94 -59 -132q-117 -41 -293 -76q-199 -40 -332 -40q-373 0 -373 278q0 86 52 224q55 145 128 242q37 0 61 -35q-90 -151 -90 -265q0 -203 343 -203q95 0 273 16
q163 15 209 25q-8 28 -121 58q-126 33 -174 80q55 394 246 394q43 0 115.5 -5.5t104.5 -5.5h64q150 0 240 21t120 59q-34 102 -121.5 178.5t-240.5 136.5q0 46 3 94.5t8 92.5t11.5 79.5t12.5 56.5q38 29 101 62.5t137.5 67.5t155 66t155.5 58.5t136 44.5t97 23l-114 -250
q-24 -4 -67.5 -17.5t-97 -32t-113 -41t-116.5 -46.5t-107 -47t-85 -43q67 -26 143 -73t149.5 -103t138 -114t109.5 -108q46 -51 81 -83.5t62 -51t46.5 -24.5t33.5 -6h36q17 0 23.5 -8.5t6.5 -21.5v-200q0 -13 -7 -21.5t-22 -8.5h-16q-32 0 -64.5 8.5t-64.5 28t-66 51
t-68 78.5q-26 34 -53.5 67t-53 61.5t-49 51t-40.5 35.5q3 -18 4 -32.5t1 -31.5q0 -7 -1 -21t-2 -31.5t-3 -35.5t-5 -33q-50 -54 -97.5 -91.5t-101 -60.5t-115.5 -33.5t-139 -10.5h-24z" />
    <glyph glyph-name="uniFEDB_uniFEF2.liga" unicode="&#xfedb;&#xfef2;" horiz-adv-x="2061" 
d="M787 -775l-130 -131l-136 121l130 129zM516 -779l-130 -131l-137 121l130 129zM1213 0q-47 0 -155.5 28t-132.5 28q-66 0 -95 -67q50 -29 121 -46q125 -31 182 -94q-2 -53 -31 -144q-30 -94 -59 -132q-117 -41 -293 -76q-199 -40 -332 -40q-373 0 -373 278q0 86 52 224
q55 145 128 242q37 0 61 -35q-90 -151 -90 -265q0 -203 343 -203q95 0 273 16q163 15 209 25q-8 28 -121 58q-126 33 -174 80q55 394 246 394q43 0 115.5 -5.5t104.5 -5.5h99q74 0 128 5.5t93 16t64 26t40 34.5q-16 46 -42.5 87.5t-69 80t-104 74.5t-146.5 69q0 47 3 97.5
t8 97.5t11.5 85.5t12.5 59.5q41 26 101.5 57t131.5 63.5t146.5 63.5t145 56.5t128 43.5t95.5 23l-117 -255q-29 -6 -73 -20.5t-95.5 -33t-106.5 -40.5t-108 -44t-100 -44t-81 -40q57 -17 115.5 -49t108 -72t85.5 -83t49 -81q0 -17 -0.5 -39.5t-2 -48t-3 -53.5t-4.5 -55
q-4 -46 -8.5 -84.5t-8.5 -59.5q-54 -59 -102 -97t-100 -60.5t-112 -31.5t-136 -9h-24z" />
    <glyph glyph-name="uniFEDC_uniFEF2.liga" unicode="&#xfedc;&#xfef2;" horiz-adv-x="2170" 
d="M787 -775l-130 -131l-136 121l130 129zM516 -779l-130 -131l-137 121l130 129zM1213 0q-47 0 -155.5 28t-132.5 28q-66 0 -95 -67q50 -29 121 -46q125 -31 182 -94q-2 -53 -31 -144q-30 -94 -59 -132q-117 -41 -293 -76q-199 -40 -332 -40q-373 0 -373 278q0 86 52 224
q55 145 128 242q37 0 61 -35q-90 -151 -90 -265q0 -203 343 -203q95 0 273 16q163 15 209 25q-8 28 -121 58q-126 33 -174 80q55 394 246 394q43 0 115.5 -5.5t104.5 -5.5h64q150 0 240 21t120 59q-34 102 -121.5 178.5t-240.5 136.5q0 46 3 94.5t8 92.5t11.5 79.5
t12.5 56.5q38 29 101 62.5t137.5 67.5t155 66t155.5 58.5t136 44.5t97 23l-114 -250q-24 -4 -67.5 -17.5t-97 -32t-113 -41t-116.5 -46.5t-107 -47t-85 -43q67 -26 143 -73t149.5 -103t138 -114t109.5 -108q46 -51 81 -83.5t62 -51t46.5 -24.5t33.5 -6h36q17 0 23.5 -8.5
t6.5 -21.5v-200q0 -13 -7 -21.5t-22 -8.5h-16q-32 0 -64.5 8.5t-64.5 28t-66 51t-68 78.5q-26 34 -53.5 67t-53 61.5t-49 51t-40.5 35.5q3 -18 4 -32.5t1 -31.5q0 -7 -1 -21t-2 -31.5t-3 -35.5t-5 -33q-50 -54 -97.5 -91.5t-101 -60.5t-115.5 -33.5t-139 -10.5h-24z" />
    <glyph glyph-name="uniFEDF_uniFB51.rlig" unicode="&#xfedf;&#xfb51;" horiz-adv-x="1092" 
d="M1046 998q-15 -5 -36 -5q-22 0 -37 7q0 -166 -59 -325q-63 -173 -178 -281q52 -77 74 -144q0 -119 -30 -232q-139 -46 -344 -46q-102 0 -148 17q10 29 25 125.5t16 141.5q45 18 136.5 73t122.5 82q-87 132 -204 251q-113 116 -193 159q0 -39 -32 -68q-43 96 -114 185
l105 314q189 -198 530 -765q46 30 79 125.5t33 195.5q0 78 -19.5 208t-19.5 145l194 124q48 -194 99 -287zM700 235q-16 36 -57 93q-24 -19 -103 -64t-118 -61v-3q19 0 43 -1t36 -1q135 0 199 37zM33 1285h-6v156l46 74l45 -28q32 81 76.5 122.5t93.5 41.5q40 0 67.5 -27.5
t37.5 -81.5q-2 -46 -16 -97q-28 -49 -73 -71.5t-97 -22.5q-28 0 -57 6.5t-58 22.5zM225 1459q12 0 27.5 2.5t31.5 8t30.5 14.5t24.5 24q-9 21 -25 33.5t-38 12.5q-29 0 -57.5 -21.5t-54.5 -62.5q11 -5 26.5 -8t34.5 -3z" />
    <glyph glyph-name="uniFEE0_uniFB51.rlig" unicode="&#xfee0;&#xfb51;" horiz-adv-x="1172" 
d="M1209 30q0 -30 -27 -30h-18q-268 0 -268 351q0 149 24 464l-3 4q-39 -187 -146.5 -447t-202.5 -397q-129 -48 -314 -48q-85 0 -170 17q86 43 236 158t191 172q-40 154 -120 296q-83 151 -169 212l-9 -70l-155 152l45 347q211 -150 312 -314q109 -177 190 -518
q114 164 180 346q64 180 64 329q0 32 -11 103l213 143q-15 -511 -15 -811q0 -145 20.5 -187t87.5 -42h36q29 0 29 -30v-200zM38 1258h-6v156l46 74l45 -29q32 82 76.5 123t93.5 41q40 0 67.5 -27t37.5 -81q-2 -46 -16 -97q-28 -50 -73 -72t-97 -22q-28 0 -57 6t-58 23z
M230 1432q12 0 27.5 2.5t31.5 8t30.5 14.5t24.5 23q-9 21 -25 34t-38 13q-29 0 -57.5 -21.5t-54.5 -62.5q11 -5 26.5 -8t34.5 -3z" />
    <glyph glyph-name="uniFEDF_uniFEE2.liga" unicode="&#xfedf;&#xfee2;" horiz-adv-x="1458" 
d="M794 84q-151 59 -294 153q0 -211 168 -289q34 6 74 49t52 87zM1031 0q-63 0 -160 52q0 -264 -198 -330q-270 75 -276 440q-139 0 -205 -52q47 -129 50 -491q-19 -33 -68 -89.5t-71 -72.5q0 153 -16 338q-14 174 -28 214q39 123 99 290q126 89 253 89q0 72 27 150
q166 -129 344 -210q153 -68 229 -68h63q101 0 136 64q0 555 -102 810l169 151q15 -41 63 -137q50 -101 75 -137q-20 -7 -38 -7q-19 0 -39 7q12 -125 12 -690q-33 -143 -106 -231q-74 -90 -165 -90h-48z" />
    <glyph glyph-name="uniFEE4_uniFE8E.liga" unicode="&#xfee4;&#xfe8e;" horiz-adv-x="1259" 
d="M993 224q-45 155 -204 198q-39 -18 -68 -75q14 -77 68.5 -138t132.5 -81q56 34 71 96zM406 0q-102 0 -171 61q-102 90 -102 295q0 618 -89 739l179 190q54 -99 62 -374q0 7 0 -391q0 -260 101 -260h68q70 0 141 115q116 188 242 228q164 -31 259.5 -187t131.5 -156h36
q29 0 29 -30v-200q0 -30 -27 -30h-18q-33 0 -81 41q-57 47 -84 121q-30 -66 -91 -131.5t-113 -84.5q-190 39 -268 230q-28 -87 -89 -137q-48 -39 -87 -39h-29z" />
    <glyph glyph-name="uniFEE4_uniFE82.liga" unicode="&#xfee4;&#xfe82;" horiz-adv-x="1259" 
d="M364 1441q-41 -38 -96 -57t-120 -19q-20 0 -37 0.5t-33 2.5q-9 -16 -15 -33t-11 -33h-72q3 47 13 93t29 93q57 -15 138 -15q59 0 109 15t95 42v-89zM995 224q-46 155 -204 198q-39 -18 -69 -75q14 -77 68.5 -138t133.5 -81q55 34 71 96zM407 0q-102 0 -170 61
q-102 90 -102 295q0 618 -89 739l179 190q54 -99 62 -374q-1 7 -1 -391q0 -260 101 -260h69q70 0 141 115q115 188 241 228q164 -31 259.5 -187t132.5 -156h35q30 0 30 -30v-200q0 -30 -28 -30h-17q-34 0 -81 41q-57 47 -85 121q-29 -66 -90 -131.5t-113 -84.5
q-190 39 -269 230q-27 -87 -88 -137q-48 -39 -88 -39h-29z" />
    <glyph glyph-name="uniFEE4_uniFE84.liga" unicode="&#xfee4;&#xfe84;" horiz-adv-x="1259" 
d="M302 1415q-95 -24 -168.5 -54.5t-116.5 -65.5v97l36 30q-20 16 -33 36.5t-13 42.5q0 28 17 49.5t51 52.5q29 30 58.5 45.5t65.5 15.5q29 0 55 -16t42 -45l-69 -68q-16 21 -33 30t-38 9q-15 0 -29.5 -6.5t-25.5 -21.5q3 -22 22 -41t45 -30q42 13 84.5 25t77.5 20zM994 224
q-46 155 -204 198q-40 -18 -69 -75q14 -77 68.5 -138t133.5 -81q55 34 71 96zM406 0q-102 0 -170 61q-102 90 -102 295q0 618 -90 739l180 190q54 -99 62 -374q-1 7 -1 -391q0 -260 101 -260h68q70 0 142 115q115 188 241 228q164 -31 259.5 -187t132.5 -156h35q29 0 29 -30
v-200q0 -30 -27 -30h-17q-34 0 -81 41q-58 47 -85 121q-29 -66 -90 -131.5t-113 -84.5q-191 39 -269 230q-27 -87 -88 -137q-49 -39 -88 -39h-29z" />
    <glyph glyph-name="uniFEE4_uniFE88.liga" unicode="&#xfee4;&#xfe88;" horiz-adv-x="1259" 
d="M345 -370q-95 -24 -169 -54.5t-117 -65.5v97l36 30q-20 16 -33 36.5t-13 43.5q0 27 17 48.5t52 53.5q29 29 58 45t66 16q29 0 55 -16.5t41 -45.5l-69 -68q-15 21 -32 30.5t-38 9.5q-16 0 -30.5 -7t-25.5 -22q3 -22 22 -41t46 -30q42 13 84 25.5t77 19.5zM993 224
q-45 155 -204 198q-39 -18 -68 -75q14 -77 68.5 -138t132.5 -81q56 34 71 96zM406 0q-102 0 -171 61q-102 90 -102 295q0 618 -89 739l179 190q54 -99 62 -374q0 7 0 -391q0 -260 101 -260h68q70 0 141 115q116 188 242 228q164 -31 259.5 -187t131.5 -156h36q29 0 29 -30
v-200q0 -30 -27 -30h-18q-33 0 -81 41q-57 47 -84 121q-30 -66 -91 -131.5t-113 -84.5q-190 39 -268 230q-28 -87 -89 -137q-48 -39 -87 -39h-29z" />
    <glyph glyph-name="uniFEE8_uniFEAE.liga" unicode="&#xfee8;&#xfeae;" horiz-adv-x="1334" 
d="M1234 883l-162 -141l-155 144l161 141zM793 0q-50 0 -136 57q-42 -294 -317 -591q-225 48 -340 135q394 165 534 403q-37 104 -194 231l126 244q126 -144 188 -186q50 -33 119 -33h64q183 0 205 238q13 9 32 9q22 0 41 -9q0 -238 187 -238h35q30 0 30 -30v-200
q0 -30 -28 -30h-17q-217 0 -248 244h-4q-39 -244 -252 -244h-25z" />
    <glyph glyph-name="uniFEE7_uniFEE4.liga" unicode="&#xfee7;&#xfee4;" horiz-adv-x="1341" 
d="M566 224q-45 155 -204 198q-39 -18 -68 -75q13 -77 68 -138t133 -81q56 34 71 96zM821 0q-34 0 -81 41q-57 47 -85 121q-29 -66 -90 -131.5t-113 -84.5q-190 39 -269 230q-27 -87 -88 -137q-48 -39 -87 -39h-17q-28 0 -28 30v200q0 30 30 30h34q70 0 141 115
q116 188 241 228q164 -31 260 -187t132 -156h66q158 0 233 59q-34 114 -116 199l145 200q37 -47 70.5 -128t41.5 -138q-7 -53 -40 -160q-34 -111 -56 -154q-117 -138 -299 -138h-25zM1261 983l-161 -141l-155 145l160 140z" />
    <glyph glyph-name="uniFEE7_uniFEF0.liga" unicode="&#xfee7;&#xfef0;" horiz-adv-x="1739" 
d="M1652 983l-161 -141l-155 145l160 140zM1213 0q-47 0 -155.5 28t-132.5 28q-66 0 -95 -67q50 -29 121 -46q125 -31 182 -94q-2 -53 -31 -144q-30 -94 -59 -132q-117 -41 -293 -76q-199 -40 -332 -40q-373 0 -373 278q0 86 52 224q55 145 128 242q37 0 61 -35
q-90 -151 -90 -265q0 -203 343 -203q95 0 273 16q163 15 209 25q-8 28 -121 58q-126 33 -174 80q55 394 246 394q43 0 115.5 -5.5t104.5 -5.5h66q158 0 233 59q-34 114 -116 199l145 200q37 -47 70.5 -128t41.5 -138q-7 -53 -40 -160q-34 -111 -57 -154q-116 -138 -298 -138
h-24z" />
    <glyph glyph-name="uniFEE7_uniFEF2.liga" unicode="&#xfee7;&#xfef2;" horiz-adv-x="1739" 
d="M1652 983l-161 -141l-155 145l160 140zM787 -775l-130 -131l-136 121l130 129zM1213 0q-47 0 -155.5 28t-132.5 28q-66 0 -95 -67q50 -29 121 -46q125 -31 182 -94q-2 -53 -31 -144q-30 -94 -59 -132q-117 -41 -293 -76q-199 -40 -332 -40q-373 0 -373 278q0 86 52 224
q55 145 128 242q37 0 61 -35q-90 -151 -90 -265q0 -203 343 -203q95 0 273 16q163 15 209 25q-8 28 -121 58q-126 33 -174 80q55 394 246 394q43 0 115.5 -5.5t104.5 -5.5h66q158 0 233 59q-34 114 -116 199l145 200q37 -47 70.5 -128t41.5 -138q-7 -53 -40 -160
q-34 -111 -57 -154q-116 -138 -298 -138h-24zM516 -779l-130 -131l-137 121l130 129z" />
    <glyph glyph-name="uniFEF4_uniFEAE.liga" unicode="&#xfef4;&#xfeae;" horiz-adv-x="1435" 
d="M793 0q-50 0 -136 57q-42 -294 -317 -591q-225 48 -340 135q394 165 534 403q-37 104 -194 231l126 244q126 -144 188 -186q50 -33 119 -33h64q131 0 187.5 55t62.5 183q22 9 37 9q23 0 39 -9q-4 -128 50.5 -183t190.5 -55h35q30 0 30 -30v-200q0 -30 -28 -30h-16
q-155 0 -222 60q-61 54 -81 184h-3q-28 -133 -89 -186q-66 -58 -212 -58h-25zM1105 -314l-130 -131l-137 121l130 129zM1377 -311l-131 -131l-136 121l130 130z" />
    <glyph glyph-name="uniFEF3_uniFEE4.liga" unicode="&#xfef3;&#xfee4;" horiz-adv-x="1428" 
d="M566 224q-45 155 -204 198q-39 -18 -68 -75q13 -77 68 -138t133 -81q56 34 71 96zM821 0q-34 0 -81 41q-57 47 -85 121q-29 -66 -90 -131.5t-113 -84.5q-190 39 -269 230q-27 -87 -88 -137q-48 -39 -87 -39h-17q-28 0 -28 30v200q0 30 30 30h34q70 0 141 115
q116 188 241 228q164 -31 260 -187t132 -156h137q123 0 199 59q-32 111 -117 199l145 200q87 -112 114 -266q-8 -54 -41 -160q-34 -111 -58 -154q-115 -138 -270 -138h-89zM1130 -280l-130 -131l-137 121l130 130zM1402 -276l-131 -131l-136 121l130 129z" />
    <glyph glyph-name="uniFEF4_uniFEE6.liga" unicode="&#xfef4;&#xfee6;" horiz-adv-x="1863" 
d="M780 655l-161 -141l-155 145l160 140zM1225 0q-63 0 -109 52q0 -52 -18 -170q-19 -124 -37 -181q-114 -119 -279 -183q-156 -61 -322 -61q-220 0 -328 101q-87 83 -87 218q0 97 58 238q60 145 153 264q34 0 58 -34q-65 -110 -87.5 -173t-22.5 -137q0 -217 323 -217
q148 0 293 54q121 45 193 108q-9 105 -60.5 211t-113.5 149l100 258q84 -138 143 -189q54 -48 122 -48h61q130 0 187 55t62 183q22 9 38 9q23 0 39 -9q-5 -128 50 -183t191 -55h35q30 0 30 -30v-200q0 -30 -28 -30h-17q-154 0 -222 60q-61 54 -80 184h-4q-28 -133 -88 -186
q-66 -58 -212 -58h-21zM1533 -314l-131 -131l-136 121l130 129zM1804 -311l-130 -131l-137 121l131 130z" />
    <glyph glyph-name="T_h.liga" unicode="Th" horiz-adv-x="1452" 
d="M731 863q-13 1 -27 2q-36 3 -71 6t-66.5 4t-53.5 1q-3 -15 -3 -50v-435q0 -60 0.5 -112t2 -100.5t3.5 -93.5t5 -92q-24 2 -52.5 4.5t-64.5 2.5q-37 0 -65.5 -2.5t-52.5 -4.5q3 47 5 92t3.5 93.5t2 100.5t0.5 112v359q0 42 -0.5 76.5t-3.5 49.5q-22 0 -53 -1t-67 -4
t-73.5 -6t-69.5 -7q3 16 5 31.5t2 31.5t-2 31.5t-5 31.5q49 -1 88.5 -2.5t80.5 -2.5t89 -1h116h115h130.5t285.5 11q-1 -13 -1 -28q-2 -59 -4 -119t-3 -124t-1 -135l3 -3q38 59 92 93t123 34q108 0 166 -63t58 -201q0 -74 -3 -129.5t-3 -112.5q0 -46 2 -100t5 -108
q-18 2 -46.5 4.5t-60.5 2.5t-60.5 -2.5t-47.5 -4.5q10 77 13 180t3 232q0 91 -31 133t-87 42q-65 0 -95.5 -56t-30.5 -155v-57q0 -20 1 -58.5t3 -83.5t4 -92.5t4 -84.5q-18 2 -47 4.5t-60 2.5q-32 0 -60.5 -2.5t-47.5 -4.5q3 61 5.5 119.5t3.5 119t1.5 124t0.5 133.5v94
q0 71 -0.5 135t-1.5 124q-1 10 -1 21z" />
    <glyph glyph-name="f_b.liga" unicode="fb" horiz-adv-x="1301" 
d="M453 681q-1 -11 -2 -20t-1 -19q0 -9 1 -18l2 -18l-135 3v-120q0 -70 1 -133.5t2.5 -124t3.5 -119t5 -119.5q-19 2 -47.5 4.5t-60.5 2.5t-60.5 -2.5t-47.5 -4.5q3 61 5.5 119.5t3.5 119t2 124t1 133.5v119l-101 -2q5 18 5 36t-5 39l101 -4q15 87 36.5 162t56.5 129.5
t88 85t131 30.5q27 0 60 -6q-3 -17 -3.5 -39.5t-1.5 -48.5t-1 -52v-47l-17 -5q-28 15 -66 28t-72 13q-41 0 -63.5 -14t-22.5 -48q0 -33 19.5 -85t47.5 -101zM771 336q0 -63 5.5 -118t19 -94t37 -62.5t62.5 -23.5q62 0 98.5 77t36.5 252q0 128 -31.5 189.5t-91.5 61.5
q-30 0 -55.5 -14.5t-43.5 -48.5t-27.5 -87.5t-9.5 -131.5zM579 583q0 71 -0.5 135t-2 124t-3.5 119t-5 119q18 -2 47 -4.5t60 -2.5t60.5 2.5t47.5 4.5q-3 -60 -4.5 -119t-3.5 -119t-3 -124t-1 -135h3q24 59 76 91.5t116 32.5q61 0 112 -27.5t88 -73.5t57 -109t20 -133
q0 -108 -29.5 -182t-76 -120t-104.5 -67t-113 -21q-70 0 -117 29t-77 72q-30 -18 -61 -41t-62 -47h-35q3 63 5 122.5t3.5 121t2 125t0.5 133.5v94z" />
    <glyph glyph-name="f_f_b.liga" unicode="ffb" horiz-adv-x="1740" 
d="M1199 336q0 -63 5.5 -118t19.5 -94t37 -62.5t62 -23.5q62 0 98.5 77t36.5 252q0 128 -31.5 189.5t-91.5 61.5q-30 0 -55.5 -14.5t-43.5 -48.5t-27.5 -87.5t-9.5 -131.5zM1007 583q0 71 -0.5 135t-2 124t-3.5 119t-5 119q18 -2 47 -4.5t61 -2.5q31 0 60 2.5t47 4.5
q-3 -60 -4.5 -119t-3.5 -119t-3 -124t-1 -135h3q25 59 77 91.5t115 32.5q61 0 112 -27.5t88 -73.5t57 -109t20 -133q0 -108 -29.5 -182t-76 -120t-104.5 -67t-113 -21q-69 0 -116.5 29t-77.5 72q-30 -18 -61 -41t-62 -47h-35q3 63 5 122.5t3.5 121t2 125t0.5 133.5v94z
M453 606l-135 3v-120q0 -70 1 -133.5t2.5 -124t3.5 -119t5 -119.5q-19 2 -47.5 4.5t-60.5 2.5t-60.5 -2.5t-47.5 -4.5q3 61 5.5 119.5t3.5 119t2 124t1 133.5v119l-101 -2q5 18 5 36t-5 39l101 -4q15 87 36.5 162t56.5 129.5t88 85t131 30.5q27 0 60 -6q-3 -17 -3.5 -39.5
t-1.5 -48.5t-1 -52v-47l-17 -5q-28 15 -66 28t-72 13q-41 0 -63.5 -14t-22.5 -48q0 -33 19.5 -85t47.5 -101l135 2l101 -4q15 87 36.5 162t56.5 129.5t88 85t131 30.5q27 0 60 -6q-3 -17 -3.5 -39.5t-1 -48.5t-0.5 -52v-47l-18 -5q-28 15 -66 28t-72 13q-41 0 -63.5 -14
t-22.5 -48q0 -33 19.5 -85t48.5 -101l134 2q-1 -11 -2 -20t-1 -19q0 -9 1 -18l2 -18l-134 3v-120q0 -70 0.5 -133.5t2 -124t4 -119t4.5 -119.5q-19 2 -47.5 4.5t-60.5 2.5t-60.5 -2.5t-47.5 -4.5q3 61 5.5 119.5t3.5 119t2 124t1 133.5v119z" />
    <glyph glyph-name="f_f.liga" unicode="ff" horiz-adv-x="890" 
d="M453 606l-135 3v-120q0 -70 1 -133.5t2.5 -124t3.5 -119t5 -119.5q-19 2 -47.5 4.5t-60.5 2.5t-60.5 -2.5t-47.5 -4.5q3 61 5.5 119.5t3.5 119t2 124t1 133.5v119l-101 -2q5 18 5 36t-5 39l101 -4q15 87 36.5 162t56.5 129.5t88 85t131 30.5q27 0 60 -6
q-3 -17 -3.5 -39.5t-1.5 -48.5t-1 -52v-47l-17 -5q-28 15 -66 28t-72 13q-41 0 -63.5 -14t-22.5 -48q0 -33 19.5 -85t47.5 -101l135 2l101 -4q15 87 36.5 162t56.5 129.5t88 85t131 30.5q27 0 60 -6q-3 -17 -3.5 -39.5t-1 -48.5t-0.5 -52v-47l-18 -5q-28 15 -66 28t-72 13
q-41 0 -63.5 -14t-22.5 -48q0 -33 19.5 -85t48.5 -101l134 2q-1 -11 -2 -20t-1 -19q0 -9 1 -18l2 -18l-134 3v-120q0 -70 0.5 -133.5t2 -124t4 -119t4.5 -119.5q-19 2 -47.5 4.5t-60.5 2.5t-60.5 -2.5t-47.5 -4.5q3 61 5.5 119.5t3.5 119t2 124t1 133.5v119z" />
    <glyph glyph-name="f_h.liga" unicode="fh" horiz-adv-x="1264" 
d="M453 681q-1 -11 -2 -20t-1 -19q0 -9 1 -18l2 -18l-135 3v-120q0 -70 1 -133.5t2.5 -124t3.5 -119t5 -119.5q-19 2 -47.5 4.5t-60.5 2.5t-60.5 -2.5t-47.5 -4.5q3 61 5.5 119.5t3.5 119t2 124t1 133.5v119l-101 -2q5 18 5 36t-5 39l101 -4q15 87 36.5 162t56.5 129.5
t88 85t131 30.5q27 0 60 -6q-3 -17 -3.5 -39.5t-1.5 -48.5t-1 -52v-47l-17 -5q-28 15 -66 28t-72 13q-41 0 -63.5 -14t-22.5 -48q0 -33 19.5 -85t47.5 -101zM552 583q0 71 -0.5 135t-2 124t-4 119t-4.5 119q18 -2 46.5 -4.5t60.5 -2.5q31 0 60 2.5t48 4.5q-3 -60 -5 -119
t-3.5 -119t-2.5 -124t-1 -135l3 -3q38 59 91.5 93t123.5 34q107 0 165.5 -63t58.5 -201q0 -74 -3.5 -129.5t-3.5 -112.5q0 -46 2.5 -100t5.5 -108q-19 2 -47.5 4.5t-60.5 2.5t-60 -2.5t-47 -4.5q10 77 12.5 180t2.5 232q0 91 -31 133t-86 42q-66 0 -96 -56t-30 -155v-57
q0 -20 1 -58.5t2.5 -83.5t3.5 -92.5t5 -84.5q-19 2 -48 4.5t-60 2.5q-32 0 -60.5 -2.5t-46.5 -4.5q2 61 4.5 119.5t4 119t2 124t0.5 133.5v94z" />
    <glyph glyph-name="f_f_h.liga" unicode="ffh" horiz-adv-x="1699" 
d="M980 583q0 71 -0.5 135t-2 124t-3.5 119t-5 119q18 -2 46.5 -4.5t60.5 -2.5q31 0 60.5 2.5t47.5 4.5q-3 -60 -5 -119t-3.5 -119t-2.5 -124t-1 -135l3 -3q38 59 91.5 93t123.5 34q107 0 165.5 -63t58.5 -201q0 -74 -3.5 -129.5t-3.5 -112.5q0 -46 2.5 -100t5.5 -108
q-18 2 -47 4.5t-61 2.5t-60 -2.5t-47 -4.5q10 77 12.5 180t2.5 232q0 91 -31 133t-86 42q-66 0 -96 -56t-30 -155v-57q0 -20 1 -58.5t2.5 -83.5t3.5 -92.5t5 -84.5q-18 2 -47.5 4.5t-60.5 2.5q-32 0 -60.5 -2.5t-46.5 -4.5q3 61 5 119.5t3.5 119t2 124t0.5 133.5v94z
M453 606l-135 3v-120q0 -70 1 -133.5t2.5 -124t3.5 -119t5 -119.5q-19 2 -47.5 4.5t-60.5 2.5t-60.5 -2.5t-47.5 -4.5q3 61 5.5 119.5t3.5 119t2 124t1 133.5v119l-101 -2q5 18 5 36t-5 39l101 -4q15 87 36.5 162t56.5 129.5t88 85t131 30.5q27 0 60 -6q-3 -17 -3.5 -39.5
t-1.5 -48.5t-1 -52v-47l-17 -5q-28 15 -66 28t-72 13q-41 0 -63.5 -14t-22.5 -48q0 -33 19.5 -85t47.5 -101l135 2l101 -4q15 87 36.5 162t56.5 129.5t88 85t131 30.5q27 0 60 -6q-3 -17 -3.5 -39.5t-1 -48.5t-0.5 -52v-47l-18 -5q-28 15 -66 28t-72 13q-41 0 -63.5 -14
t-22.5 -48q0 -33 19.5 -85t48.5 -101l134 2q-1 -11 -2 -20t-1 -19q0 -9 1 -18l2 -18l-134 3v-120q0 -70 0.5 -133.5t2 -124t4 -119t4.5 -119.5q-19 2 -47.5 4.5t-60.5 2.5t-60.5 -2.5t-47.5 -4.5q3 61 5.5 119.5t3.5 119t2 124t1 133.5v119z" />
    <glyph glyph-name="f_f_i.liga" unicode="ffi" horiz-adv-x="1310" 
d="M453 606l-135 3v-120q0 -70 1 -133.5t2.5 -124t3.5 -119t5 -119.5q-19 2 -47.5 4.5t-60.5 2.5t-60.5 -2.5t-47.5 -4.5q3 61 5.5 119.5t3.5 119t2 124t1 133.5v119l-101 -2q5 18 5 36t-5 39l101 -4q15 87 36.5 162t56.5 129.5t88 85t131 30.5q27 0 60 -6
q-3 -17 -3.5 -39.5t-1.5 -48.5t-1 -52v-47l-17 -5q-28 15 -66 28t-72 13q-41 0 -63.5 -14t-22.5 -48q0 -33 19.5 -85t47.5 -101l135 2l101 -4q15 87 36.5 162t56.5 129.5t88 85t131 30.5q27 0 60 -6q-3 -17 -3.5 -39.5t-1 -48.5t-0.5 -52v-47l-18 -5q-28 15 -66 28t-72 13
q-41 0 -63.5 -14t-22.5 -48q0 -33 19.5 -85t48.5 -101l134 2q-1 -11 -2 -20t-1 -19q0 -9 1 -18l2 -18l-134 3v-120q0 -70 0.5 -133.5t2 -124t4 -119t4.5 -119.5q-19 2 -47.5 4.5t-60.5 2.5t-60.5 -2.5t-47.5 -4.5q3 61 5.5 119.5t3.5 119t2 124t1 133.5v119zM1009 369
q0 87 -2 164.5t-9 154.5q20 -3 47.5 -5t60.5 -2t61 2t46 5q-6 -77 -8.5 -154.5t-2.5 -164.5v-57q0 -88 2.5 -166t8.5 -153q-18 2 -46 4.5t-61 2.5t-60.5 -2.5t-47.5 -4.5q7 75 9 153t2 166v57zM993 959q0 49 32.5 81.5t80.5 32.5q47 0 80 -32.5t33 -81.5q0 -47 -33 -80
t-80 -33q-48 0 -80.5 33t-32.5 80z" />
    <glyph glyph-name="f_j.liga" unicode="fj" horiz-adv-x="877" 
d="M453 681q-1 -11 -2 -20t-1 -19q0 -9 1 -18l2 -18l-135 3v-120q0 -70 1 -133.5t2.5 -124t3.5 -119t5 -119.5q-19 2 -47.5 4.5t-60.5 2.5t-60.5 -2.5t-47.5 -4.5q3 61 5.5 119.5t3.5 119t2 124t1 133.5v119l-101 -2q5 18 5 36t-5 39l101 -4q15 87 36.5 162t56.5 129.5
t88 85t131 30.5q27 0 60 -6q-3 -17 -3.5 -39.5t-1.5 -48.5t-1 -52v-47l-17 -5q-28 15 -66 28t-72 13q-41 0 -63.5 -14t-22.5 -48q0 -33 19.5 -85t47.5 -101zM564 959q0 49 33 81.5t81 32.5q47 0 80 -32.5t33 -81.5q0 -47 -33 -80t-80 -33q-48 0 -81 33t-33 80zM474 -337
q63 18 87 63t24 122v521q0 87 -1.5 164.5t-9.5 154.5q20 -3 47.5 -5t60.5 -2q34 0 61.5 2t45.5 5q-6 -77 -8.5 -154.5t-2.5 -164.5v-437q0 -81 -18.5 -137t-55.5 -93.5t-89.5 -59.5t-122.5 -31z" />
    <glyph glyph-name="f_f_j.liga" unicode="ffj" horiz-adv-x="1310" 
d="M453 606l-135 3v-120q0 -70 1 -133.5t2.5 -124t3.5 -119t5 -119.5q-19 2 -47.5 4.5t-60.5 2.5t-60.5 -2.5t-47.5 -4.5q3 61 5.5 119.5t3.5 119t2 124t1 133.5v119l-101 -2q5 18 5 36t-5 39l101 -4q15 87 36.5 162t56.5 129.5t88 85t131 30.5q27 0 60 -6
q-3 -17 -3.5 -39.5t-1.5 -48.5t-1 -52v-47l-17 -5q-28 15 -66 28t-72 13q-41 0 -63.5 -14t-22.5 -48q0 -33 19.5 -85t47.5 -101l135 2l101 -4q15 87 36.5 162t56.5 129.5t88 85t131 30.5q27 0 60 -6q-3 -17 -3.5 -39.5t-1 -48.5t-0.5 -52v-47l-18 -5q-28 15 -66 28t-72 13
q-41 0 -63.5 -14t-22.5 -48q0 -33 19.5 -85t48.5 -101l134 2q-1 -11 -2 -20t-1 -19q0 -9 1 -18l2 -18l-134 3v-120q0 -70 0.5 -133.5t2 -124t4 -119t4.5 -119.5q-19 2 -47.5 4.5t-60.5 2.5t-60.5 -2.5t-47.5 -4.5q3 61 5.5 119.5t3.5 119t2 124t1 133.5v119zM993 959
q0 49 32.5 81.5t80.5 32.5q47 0 80 -32.5t33 -81.5q0 -47 -33 -80t-80 -33q-48 0 -80.5 33t-32.5 80zM902 -337q63 18 87 63t24 122v521q0 87 -1.5 164.5t-8.5 154.5q20 -3 47 -5t60 -2q34 0 61.5 2t46.5 5q-7 -77 -9 -154.5t-2 -164.5v-437q0 -81 -19 -137t-56 -93.5
t-89.5 -59.5t-121.5 -31z" />
    <glyph glyph-name="f_k.liga" unicode="fk" horiz-adv-x="1224" 
d="M453 681q-1 -11 -2 -20t-1 -19q0 -9 1 -18l2 -18l-135 3v-120q0 -70 1 -133.5t2.5 -124t3.5 -119t5 -119.5q-19 2 -47.5 4.5t-60.5 2.5t-60.5 -2.5t-47.5 -4.5q3 61 5.5 119.5t3.5 119t2 124t1 133.5v119l-101 -2q5 18 5 36t-5 39l101 -4q15 87 36.5 162t56.5 129.5
t88 85t131 30.5q27 0 60 -6q-3 -17 -3.5 -39.5t-1.5 -48.5t-1 -52v-47l-17 -5q-28 15 -66 28t-72 13q-41 0 -63.5 -14t-22.5 -48q0 -33 19.5 -85t47.5 -101zM588 583q0 71 -0.5 135t-2 124t-3.5 119t-5 119q18 -2 47 -4.5t61 -2.5q31 0 60 2.5t47 4.5q-3 -60 -4.5 -122
t-3.5 -139t-3 -177.5t-1 -237.5q0 -20 1 -26t7 -6t28 23t57.5 64t82.5 99.5t102 129.5q17 -3 33.5 -5t34.5 -2q15 0 34 2t47 5q-20 -21 -56.5 -58.5t-75.5 -77t-74 -75.5t-49 -53q5 -9 24.5 -41t47 -75.5t57.5 -92.5t56.5 -94.5t47 -80.5t25.5 -47q-30 2 -57 4.5t-56 2.5
t-56 -2.5t-54 -4.5q-6 12 -22 40.5t-36.5 66t-44 77.5t-44.5 72.5t-36 54.5t-21 22q-4 0 -5 -2.5t-2.5 -16.5t-1.5 -43v-80q0 -21 0.5 -47t1.5 -54t2.5 -53t4.5 -37q-25 2 -51 4.5t-52 2.5q-25 0 -51 -2.5t-52 -4.5q3 61 5 119.5t3.5 119t2 124t0.5 133.5v94z" />
    <glyph glyph-name="f_f_k.liga" unicode="ffk" horiz-adv-x="1655" 
d="M453 606l-135 3v-120q0 -70 1 -133.5t2.5 -124t3.5 -119t5 -119.5q-19 2 -47.5 4.5t-60.5 2.5t-60.5 -2.5t-47.5 -4.5q3 61 5.5 119.5t3.5 119t2 124t1 133.5v119l-101 -2q5 18 5 36t-5 39l101 -4q15 87 36.5 162t56.5 129.5t88 85t131 30.5q27 0 60 -6
q-3 -17 -3.5 -39.5t-1.5 -48.5t-1 -52v-47l-17 -5q-28 15 -66 28t-72 13q-41 0 -63.5 -14t-22.5 -48q0 -33 19.5 -85t47.5 -101l135 2l101 -4q15 87 36.5 162t56.5 129.5t88 85t131 30.5q27 0 60 -6q-3 -17 -3.5 -39.5t-1 -48.5t-0.5 -52v-47l-18 -5q-28 15 -66 28t-72 13
q-41 0 -63.5 -14t-22.5 -48q0 -33 19.5 -85t48.5 -101l134 2q-1 -11 -2 -20t-1 -19q0 -9 1 -18l2 -18l-134 3v-120q0 -70 0.5 -133.5t2 -124t4 -119t4.5 -119.5q-19 2 -47.5 4.5t-60.5 2.5t-60.5 -2.5t-47.5 -4.5q3 61 5.5 119.5t3.5 119t2 124t1 133.5v119zM1016 583
q0 71 -0.5 135t-1.5 124t-3.5 119t-5.5 119q18 -2 47 -4.5t61 -2.5q31 0 60 2.5t47 4.5q-2 -60 -4 -122t-4 -139t-3 -177.5t-1 -237.5q0 -20 1 -26t8 -6q5 0 27 23t57.5 64t82.5 99.5t102 129.5q18 -3 34 -5t34 -2q15 0 34 2t47 5q-19 -21 -56 -58.5t-76 -77t-74 -75.5
t-49 -53q5 -9 24.5 -41t47 -75.5t57.5 -92.5t56.5 -94.5t47 -80.5t25.5 -47q-30 2 -57 4.5t-56 2.5t-55.5 -2.5t-54.5 -4.5q-6 12 -22 40.5t-36.5 66t-43.5 77.5t-44 72.5t-36 54.5t-22 22q-3 0 -4.5 -2.5t-3 -16.5t-1.5 -43v-80q0 -21 0.5 -47t1.5 -54t2.5 -53t4.5 -37
q-24 2 -50 4.5t-53 2.5q-25 0 -51 -2.5t-52 -4.5q3 61 5.5 119.5t3.5 119t1.5 124t0.5 133.5v94z" />
    <glyph glyph-name="f_f_l.liga" unicode="ffl" horiz-adv-x="1313" 
d="M453 606l-135 3v-120q0 -70 1 -133.5t2.5 -124t3.5 -119t5 -119.5q-19 2 -47.5 4.5t-60.5 2.5t-60.5 -2.5t-47.5 -4.5q3 61 5.5 119.5t3.5 119t2 124t1 133.5v119l-101 -2q5 18 5 36t-5 39l101 -4q15 87 36.5 162t56.5 129.5t88 85t131 30.5q27 0 60 -6
q-3 -17 -3.5 -39.5t-1.5 -48.5t-1 -52v-47l-17 -5q-28 15 -66 28t-72 13q-41 0 -63.5 -14t-22.5 -48q0 -33 19.5 -85t47.5 -101l135 2l101 -4q15 87 36.5 162t56.5 129.5t88 85t131 30.5q27 0 60 -6q-3 -17 -3.5 -39.5t-1 -48.5t-0.5 -52v-47l-18 -5q-28 15 -66 28t-72 13
q-41 0 -63.5 -14t-22.5 -48q0 -33 19.5 -85t48.5 -101l134 2q-1 -11 -2 -20t-1 -19q0 -9 1 -18l2 -18l-134 3v-120q0 -70 0.5 -133.5t2 -124t4 -119t4.5 -119.5q-19 2 -47.5 4.5t-60.5 2.5t-60.5 -2.5t-47.5 -4.5q3 61 5.5 119.5t3.5 119t2 124t1 133.5v119zM1009 583
q0 71 -0.5 135t-2 124t-3.5 119t-5 119q19 -2 48 -4.5t60 -2.5t60 2.5t47 4.5q-3 -60 -4.5 -119t-3 -119t-2.5 -124t-1 -135v-94q0 -70 1 -133.5t2.5 -124t3 -119t4.5 -119.5q-18 2 -47 4.5t-60 2.5t-60 -2.5t-48 -4.5q3 61 5 119.5t3.5 119t2 124t0.5 133.5v94z" />
    <glyph glyph-name="f_t.liga" unicode="ft" horiz-adv-x="899" 
d="M453 606l-135 3v-120q0 -70 1 -133.5t2.5 -124t3.5 -119t5 -119.5q-19 2 -47.5 4.5t-60.5 2.5t-60.5 -2.5t-47.5 -4.5q3 61 5.5 119.5t3.5 119t2 124t1 133.5v119l-101 -2q5 18 5 36t-5 39l101 -4q15 87 36.5 162t56.5 129.5t88 85t131 30.5q27 0 60 -6
q-3 -17 -3.5 -39.5t-1.5 -48.5t-1 -52v-47l-17 -5q-28 15 -66 28t-72 13q-41 0 -63.5 -14t-22.5 -48q0 -33 19.5 -85t47.5 -101l135 2l101 -4q0 45 -1.5 83.5t-4.5 93.5q50 20 99 42t98 46l13 -10q-2 -23 -4 -54t-4.5 -64.5t-2.5 -68.5v-66l125 2q-3 -21 -3 -39t3 -36
l-125 3q-3 -33 -5 -76.5t-3.5 -87.5t-1.5 -85.5v-70.5q0 -75 3.5 -121t11.5 -70.5t24 -33t41 -8.5q27 0 40 3.5t26 10.5v-59q-29 -16 -72.5 -26.5t-84.5 -10.5q-91 0 -137 56.5t-46 166.5q0 42 1.5 94t4 107.5t4 109.5t1.5 100z" />
    <glyph glyph-name="f_f_t.liga" unicode="fft" horiz-adv-x="1330" 
d="M453 606l-135 3v-120q0 -70 1 -133.5t2.5 -124t3.5 -119t5 -119.5q-19 2 -47.5 4.5t-60.5 2.5t-60.5 -2.5t-47.5 -4.5q3 61 5.5 119.5t3.5 119t2 124t1 133.5v119l-101 -2q5 18 5 36t-5 39l101 -4q15 87 36.5 162t56.5 129.5t88 85t131 30.5q27 0 60 -6
q-3 -17 -3.5 -39.5t-1.5 -48.5t-1 -52v-47l-17 -5q-28 15 -66 28t-72 13q-41 0 -63.5 -14t-22.5 -48q0 -33 19.5 -85t47.5 -101l135 2l101 -4q15 87 36.5 162t56.5 129.5t88 85t131 30.5q27 0 60 -6q-3 -17 -3.5 -39.5t-1 -48.5t-0.5 -52v-47l-18 -5q-28 15 -66 28t-72 13
q-41 0 -63.5 -14t-22.5 -48q0 -33 19.5 -85t48.5 -101l134 2l101 -4q0 45 -1.5 83.5t-4.5 93.5q50 20 99 42t98 46l14 -10q-3 -23 -5 -54t-4 -64.5t-2.5 -68.5t-0.5 -66l125 2q-3 -21 -3 -39t3 -36l-125 3q-3 -33 -5 -76.5t-3 -87.5t-1.5 -85.5t-0.5 -70.5q0 -75 3.5 -121
t11.5 -70.5t24 -33t41 -8.5q27 0 40 3.5t26 10.5v-59q-29 -16 -72 -26.5t-85 -10.5q-90 0 -136 56.5t-46 166.5q0 42 1 94t3.5 107.5t4 109.5t1.5 100l-101 -2l-134 3v-120q0 -70 0.5 -133.5t2 -124t4 -119t4.5 -119.5q-19 2 -47.5 4.5t-60.5 2.5t-60.5 -2.5t-47.5 -4.5
q3 61 5.5 119.5t3.5 119t2 124t1 133.5v119z" />
    <glyph glyph-name="uni0647.fina" unicode="&#x647;" horiz-adv-x="1035" arabic-form="final" 
d="M1073 30q0 -13 -7 -21.5t-22 -8.5h-9q-29 0 -62 1.5t-71 4.5q7 -18 12 -45.5t5 -61.5q0 -46 -12.5 -93t-34.5 -92.5t-51.5 -87.5t-63.5 -78q-92 17 -164.5 57t-127.5 99.5t-90.5 138t-50.5 171.5q-102 -29 -162 -68.5t-85 -89.5l-23 5l43 287q24 26 72.5 52t130.5 47v71
q0 170 49 295.5t145 196.5q48 -21 91.5 -58t76 -92t51.5 -129.5t19 -168.5q0 -36 -3 -68.5t-6 -64.5q62 15 124.5 23t129.5 8h65q18 0 24.5 -8.5t6.5 -21.5v-200zM610 124h-4q-55 -61 -149 -88q17 -47 48.5 -89.5t72.5 -76.5t89 -58t99 -34q12 26 12 52q0 41 -14 76.5
t-39 62.5t-59.5 44t-75.5 22zM404 260q93 4 146.5 23.5t78.5 50.5q-4 35 -15.5 69.5t-29 64t-40.5 51.5t-48 32q-44 -40 -68 -116t-24 -175z" />
    <glyph glyph-name="uni0672.fina" unicode="&#x672;" horiz-adv-x="414" 
d="M452 30q0 -30 -28 -30h-17q-102 0 -170 61q-103 90 -103 295q0 618 -89 739l180 190q53 -99 62 -374q-1 7 -1 -391q0 -260 101 -260h35q30 0 30 -30v-200zM329 1531q-31 35 -54 35q-24 0 -48 -11q-21 -9 -21 -15q0 -19 26 -32q29 -17 82 -17q36 0 92 9l5 -9
q-17 -34 -46 -81q-43 -7 -70 -13q-32 -7 -87 -43q-49 -33 -81 -33q-21 0 -48 16q-28 16 -41 16q-16 0 -37 -12l-15 21q35 81 90 81q25 0 53 -16q29 -18 55 -18l6 8q-52 33 -52 80q0 54 57 100q54 45 104 45q29 0 47 -18q15 -15 15 -37q0 -25 -20 -56h-12z" />
    <glyph glyph-name="uni0673.fina" unicode="&#x673;" horiz-adv-x="414" 
d="M452 30q0 -30 -28 -30h-17q-102 0 -170 61q-103 90 -103 295q0 618 -89 739l180 190q53 -99 62 -374q-1 7 -1 -391q0 -260 101 -260h35q30 0 30 -30v-200zM329 -210q-31 36 -54 36q-24 0 -48 -11q-21 -9 -21 -15q0 -20 26 -32q29 -17 82 -17q36 0 92 8l5 -8
q-17 -34 -46 -81q-43 -7 -70 -13q-32 -7 -87 -43q-49 -33 -81 -33q-21 0 -48 16q-28 16 -41 16q-16 0 -37 -12l-15 21q35 81 90 81q25 0 53 -16q29 -18 55 -18l6 8q-52 33 -52 80q0 54 57 100q54 45 104 45q29 0 47 -18q15 -15 15 -37q0 -25 -20 -57h-12z" />
    <glyph glyph-name="uni0675.fina" unicode="&#x675;" horiz-adv-x="617" 
d="M652 30q0 -30 -29 -30h-217q-102 0 -171 61q-102 90 -102 295q0 618 -89 739l179 190q54 -99 62 -374q0 7 0 -391q0 -260 101 -260h236q30 0 30 -30v-200zM566 1415q-95 -24 -168.5 -54.5t-116.5 -65.5v97l35 30q-20 16 -32.5 36.5t-12.5 42.5q0 28 17 49.5t51 52.5
q29 30 58.5 45.5t65.5 15.5q29 0 55 -16t42 -45l-70 -68q-15 21 -32 30t-38 9q-15 0 -29.5 -6.5t-25.5 -21.5q2 -22 21.5 -41t45.5 -30q42 13 84.5 25t76.5 20z" />
    <glyph glyph-name="uni0676.fina" unicode="&#x676;" horiz-adv-x="890" 
d="M921 30q0 -30 -28 -30h-212q-5 -101 -87.5 -259t-195.5 -284q-74 0 -182 32q-112 33 -189 80q219 92 370 219q138 116 165 212h-86q-219 0 -330 101q0 169 70 309q67 134 173 193q243 -22 287 -343h216q29 0 29 -30v-200zM540 231q-14 63 -65 114q-56 55 -127 61
q-29 -15 -51 -56t-22 -79q84 -56 183 -56q52 0 82 16zM841 814q-95 -24 -169 -54.5t-117 -66.5v98l36 30q-20 15 -33 35.5t-13 43.5q0 27 17 48.5t52 53.5q29 29 58 45t66 16q29 0 55 -16.5t41 -45.5l-69 -67q-16 21 -32.5 30t-37.5 9q-16 0 -30.5 -7t-25.5 -21
q3 -22 22 -41t46 -30q42 12 84 24.5t77 19.5z" />
    <glyph glyph-name="uni0677.fina" unicode="&#x677;" horiz-adv-x="890" 
d="M921 30q0 -30 -28 -30h-212q-5 -101 -87.5 -259t-195.5 -284q-74 0 -182 32q-112 33 -189 80q219 92 370 219q138 116 165 212h-86q-219 0 -330 101q0 169 70 309q67 134 173 193q243 -22 287 -343h216q29 0 29 -30v-200zM540 231q-14 63 -65 114q-56 55 -127 61
q-29 -15 -51 -56t-22 -79q84 -56 183 -56q52 0 82 16zM822 832q-94 -24 -168 -54.5t-117 -65.5v97l36 30q-20 16 -33 36.5t-13 42.5q0 28 17 49t51 53q30 30 59 45.5t65 15.5q30 0 55.5 -16t41.5 -46l-69 -67q-16 21 -32.5 30t-37.5 9q-16 0 -30.5 -6.5t-25.5 -21.5
q3 -22 22 -41t45 -30q42 13 84.5 25t77.5 20zM421 742q-18 11 -38 19.5t-43 14.5q-38 -56 -101.5 -90t-146.5 -52v111q53 8 97 22t75 37q-52 14 -78 41t-26 59q6 39 22 79q13 24 31 44.5t39.5 35.5t45 23.5t47.5 8.5q33 -16 48.5 -51t15.5 -84q0 -23 -4.5 -46t-12.5 -45
q15 -4 29 -14v-113zM344 922q0 49 -34 70q-26 0 -49 -10t-35 -31q20 -42 113 -64q3 9 4 17.5t1 17.5z" />
    <glyph glyph-name="uni0678.init" unicode="&#x678;" horiz-adv-x="664" 
d="M440 452q-7 -54 -40 -160q-34 -111 -58 -154q-115 -138 -271 -138h-80q-28 0 -28 30v200q0 30 30 30h107q123 0 199 59q-33 111 -117 199l145 200q87 -112 113 -266zM608 893q-95 -24 -164 -53t-112 -65v98l35 30q-20 15 -32.5 35.5t-12.5 43.5q0 27 17 48.5t51 53.5
q29 29 58.5 45t65.5 16q29 0 55 -16.5t42 -45.5l-69 -67q-16 21 -33 30t-38 9q-15 0 -29.5 -7t-25.5 -21q3 -22 22 -41t45 -30q42 12 80 23t72 19z" />
    <glyph glyph-name="uni0678.medi" unicode="&#x678;" horiz-adv-x="710" 
d="M741 30q0 -30 -28 -30h-117q-136 0 -204 60q-61 54 -80 184h-4q-28 -133 -88 -186q-67 -58 -212 -58h-17q-28 0 -28 30v200q0 30 30 30h34q130 0 187 55t62 183q22 9 38 9q23 0 39 -9q-5 -128 50 -183t172 -55h136q30 0 30 -30v-200zM658 814q-95 -24 -168.5 -54.5
t-116.5 -66.5v98l35 30q-20 15 -32.5 35.5t-12.5 43.5q0 27 17 48.5t51 53.5q29 29 58.5 45t65.5 16q29 0 55 -16.5t42 -45.5l-69 -67q-16 21 -33 30t-38 9q-15 0 -29.5 -7t-25.5 -21q3 -22 22 -41t45 -30q42 12 84.5 24.5t76.5 19.5z" />
    <glyph glyph-name="uni0678.fina" unicode="&#x678;" horiz-adv-x="1369" 
d="M1396 30q0 -30 -28 -30h-144q-48 0 -156 28t-132 28q-67 0 -95 -67q49 -29 121 -46q125 -31 182 -94q-2 -53 -31 -144q-30 -94 -60 -132q-116 -41 -292 -76q-200 -40 -334 -40q-373 0 -373 278q0 86 52 224q55 145 128 242q37 0 61 -35q-90 -151 -90 -265
q0 -203 343 -203q96 0 275 16q163 15 209 25q-8 28 -122 58q-125 33 -174 80q56 394 247 394q43 0 115.5 -5.5t104.5 -5.5h163q30 0 30 -30v-200zM1319 522q-95 -24 -169 -54.5t-117 -65.5v97l36 30q-20 16 -33 36.5t-13 43.5q0 27 17 48.5t52 53.5q29 29 58 45t66 16
q29 0 55 -16.5t41 -45.5l-69 -68q-16 21 -32.5 30t-37.5 9q-16 0 -30.5 -6.5t-25.5 -21.5q3 -22 22 -41t46 -30q41 13 83.5 25.5t77.5 19.5z" />
    <glyph glyph-name="uni067C.init" unicode="&#x67c;" horiz-adv-x="591" 
d="M564 971l-130 -131l-137 121l131 130zM293 968l-130 -132l-137 121l130 130zM183 19l-20 -6q-39 -39 -56 -131q41 -41 110 -41q56 0 104 33q-8 110 -138 145zM91 1q-10 -1 -20 -1h-80q-28 0 -28 30v200q0 30 30 30h107q123 0 199 59q-33 111 -117 199l145 200
q87 -112 113 -266q-7 -54 -40 -160q-34 -111 -58 -154q-15 -18 -31 -33q5 -6 10 -10q54 -57 62 -171q-7 -52 -18.5 -96t-27.5 -82q-32 -18 -66.5 -29t-68.5 -11q-24 0 -50 3t-50 12q-26 10 -42 22.5t-28 24.5q2 89 24 155q14 43 35 78z" />
    <glyph glyph-name="uni067C.medi" unicode="&#x67c;" horiz-adv-x="726" 
d="M675 830l-130 -131l-137 121l131 129zM404 826l-130 -131l-137 121l130 130zM207 8q-29 -5 -63 -7q-32 -40 -46 -119q41 -41 110 -41q56 0 104 33q-7 95 -105 134zM82 0h-91q-28 0 -28 30v200q0 30 30 30h134q130 0 187 55t63 183q21 9 37 9q23 0 39 -9
q-4 -128 50.5 -183t190.5 -55h35q30 0 30 -30v-200q0 -30 -28 -30h-16q-155 0 -223 60q-61 54 -80 184h-4q-25 -119 -76 -175q35 -54 42 -145q-7 -52 -18.5 -96t-27.5 -82q-32 -18 -66.5 -29t-68.5 -11q-24 0 -50 3t-50 12q-26 10 -42 22.5t-28 24.5q2 89 24 155
q13 42 35 77z" />
    <glyph glyph-name="uni067C.fina" unicode="&#x67c;" horiz-adv-x="1495" 
d="M1067 870l-138 -138l-143 128l137 136zM782 866l-138 -137l-143 127l137 136zM712 -2q-15 -2 -31 -3q-39 -40 -56 -132q41 -40 110 -40q56 0 104 33q-7 104 -127 142zM615 -10q-30 -1 -60 -1q-474 0 -474 335q0 169 121 379q12 4 19 4q30 0 50 -32q-61 -116 -61 -214
q0 -201 419 -201q354 0 602 112q68 57 100 141q6 5 19 5q32 0 56 -23q-28 -63 -28 -121q0 -49 25 -81.5t63 -32.5h35q30 0 30 -30v-200q0 -30 -28 -30h-17q-89 0 -142.5 58t-49.5 145q-133 -100 -341 -158q-39 -11 -79 -20q21 -49 27 -119q-7 -53 -18.5 -96.5t-27.5 -81.5
q-32 -19 -66.5 -29.5t-68.5 -10.5q-24 0 -50 3t-50 12q-26 10 -42 22.5t-28 23.5q2 90 24 156q14 48 41 85z" />
    <glyph glyph-name="uni067D.init" unicode="&#x67d;" horiz-adv-x="581" 
d="M440 452q-7 -54 -40 -160q-34 -111 -58 -154q-115 -138 -271 -138h-80q-28 0 -28 30v200q0 30 30 30h107q123 0 199 59q-33 111 -117 199l145 200q87 -112 113 -266zM43 1145l123 121l130 -113l-123 -120zM301 1148l124 122l129 -113l-124 -120zM175 920l123 121
l131 -113l-124 -120z" />
    <glyph glyph-name="uni067D.medi" unicode="&#x67d;" horiz-adv-x="621" 
d="M659 30q0 -30 -28 -30h-17q-154 0 -222 60q-61 54 -80 184h-4q-28 -133 -88 -186q-67 -58 -212 -58h-17q-28 0 -28 30v200q0 30 30 30h34q130 0 187 55t62 183q22 9 38 9q23 0 39 -9q-5 -128 50 -183t190 -55h36q30 0 30 -30v-200zM58 1015l123 121l130 -113l-124 -120z
M316 1018l123 122l130 -113l-124 -121zM190 790l123 121l130 -113l-124 -120z" />
    <glyph glyph-name="uni067D.fina" unicode="&#x67d;" horiz-adv-x="1495" 
d="M1531 30q0 -30 -28 -30h-17q-89 0 -142.5 58t-49.5 145q-133 -100 -341 -158q-198 -56 -398 -56q-474 0 -474 335q0 169 121 379q12 4 19 4q30 0 50 -32q-61 -116 -61 -214q0 -201 419 -201q354 0 602 112q68 57 100 141q6 5 19 5q32 0 56 -23q-28 -63 -28 -121
q0 -49 25 -81.5t63 -32.5h35q30 0 30 -30v-200zM535 1042l123 121l130 -113l-124 -120zM793 1045l123 122l130 -113l-124 -120zM667 817l123 121l130 -113l-124 -120z" />
    <glyph glyph-name="uni0681.init" unicode="&#x681;" horiz-adv-x="1032" 
d="M987 367l-130 -210q-79 22 -168 22q-84 0 -245 -67q-267 -112 -436 -112h-17q-28 0 -28 30v200q0 30 30 30h157q219 0 395 52q-105 58 -207 136q-108 82 -140 82q-41 0 -119 -140q-32 0 -54 32q145 330 239 330q52 0 255 -164q182 -148 270 -187q75 -34 198 -34zM569 947
q-95 -23 -168.5 -53.5t-116.5 -66.5v98l35 30q-20 15 -32.5 35.5t-12.5 43.5q0 27 16.5 48.5t51.5 53.5q29 29 58 45t66 16q29 0 55 -16.5t41 -45.5l-69 -67q-15 21 -32 30t-38 9q-15 0 -30 -7t-26 -21q3 -22 22 -41t46 -30q42 12 84.5 24.5t76.5 19.5z" />
    <glyph glyph-name="uni0681.medi" unicode="&#x681;" horiz-adv-x="1244" 
d="M1282 30q0 -30 -28 -30h-16q-324 0 -420 345q-69 -35 -271 -179q-233 -166 -539 -166h-17q-28 0 -28 30v200q0 30 30 30h160q261 0 504 162q-54 13 -185 61q-119 44 -166 65q-40 20 -78 20q-61 0 -121 -146q-44 0 -62 26q87 223 134 296q43 64 94 64q43 0 248 -102.5
t321 -102.5q170 0 364 50l-103 -229q-126 0 -213 -40q44 -124 327 -124h35q30 0 30 -30v-200zM733 966q-95 -24 -169 -54.5t-116 -66.5v98l35 30q-20 15 -32.5 35.5t-12.5 43.5q0 28 16.5 49t51.5 53q29 29 58 45t66 16q29 0 55 -16t41 -46l-69 -67q-15 21 -32 30t-38 9
q-15 0 -30 -7t-26 -21q3 -22 22 -41t46 -30q42 13 84.5 25t76.5 19z" />
    <glyph glyph-name="uni0681.fina" unicode="&#x681;" horiz-adv-x="1139" 
d="M1177 30q0 -30 -27 -30h-18q-421 0 -457 436q-182 -72 -289 -192q-110 -124 -110 -269q0 -345 619 -345q153 0 258 16l-74 -123q-222 -66 -525 -66q-191 0 -325 78q-179 104 -179 316q0 163 124 318q128 160 369 287v3q-79 9 -189 45q-57 18 -82 18q-35 0 -59 -26
q-29 -33 -62 -126q-42 0 -65 20q99 248 143 320q34 53 73 53q35 0 114 -28q105 -37 171 -52q124 -28 269 -28q192 0 271 15l-127 -230h-151q-45 0 -89 4q25 -112 88 -147q68 -37 264 -37h36q29 0 29 -30v-200zM787 947q-95 -23 -168.5 -53.5t-116.5 -66.5v98l35 30
q-20 15 -32.5 35.5t-12.5 43.5q0 27 17 48.5t51 53.5q29 29 58.5 45t65.5 16q29 0 55 -16.5t42 -45.5l-70 -67q-15 21 -32 30t-38 9q-15 0 -29.5 -7t-25.5 -21q2 -22 21.5 -41t45.5 -30q42 12 84.5 24.5t76.5 19.5z" />
    <glyph glyph-name="uni0682.init" unicode="&#x682;" horiz-adv-x="1032" 
d="M987 367l-130 -210q-79 22 -168 22q-84 0 -245 -67q-267 -112 -436 -112h-17q-28 0 -28 30v200q0 30 30 30h157q219 0 395 52q-105 58 -207 136q-108 82 -140 82q-41 0 -119 -140q-32 0 -54 32q145 330 239 330q52 0 255 -164q182 -148 270 -187q75 -34 198 -34z
M606 1341l-161 -141l-155 145l160 140zM600 1055l-161 -141l-155 145l160 140z" />
    <glyph glyph-name="uni0682.medi" unicode="&#x682;" horiz-adv-x="1244" 
d="M1282 30q0 -30 -28 -30h-16q-324 0 -420 345q-69 -35 -271 -179q-233 -166 -539 -166h-17q-28 0 -28 30v200q0 30 30 30h160q261 0 504 162q-54 13 -185 61q-119 44 -166 65q-40 20 -78 20q-61 0 -121 -146q-44 0 -62 26q87 223 134 296q43 64 94 64q43 0 248 -102.5
t321 -102.5q170 0 364 50l-103 -229q-126 0 -213 -40q44 -124 327 -124h35q30 0 30 -30v-200zM758 1359l-161 -141l-155 145l161 140zM755 1073l-162 -141l-154 145l160 140z" />
    <glyph glyph-name="uni0682.fina" unicode="&#x682;" horiz-adv-x="1139" 
d="M1177 30q0 -30 -27 -30h-18q-421 0 -457 436q-182 -72 -289 -192q-110 -124 -110 -269q0 -345 619 -345q153 0 258 16l-74 -123q-222 -66 -525 -66q-191 0 -325 78q-179 104 -179 316q0 163 124 318q128 160 369 287v3q-79 9 -189 45q-57 18 -82 18q-35 0 -59 -26
q-29 -33 -62 -126q-42 0 -65 20q99 248 143 320q34 53 73 53q35 0 114 -28q105 -37 171 -52q124 -28 269 -28q192 0 271 15l-127 -230h-151q-45 0 -89 4q25 -112 88 -147q68 -37 264 -37h36q29 0 29 -30v-200zM813 1347l-162 -142l-155 145l161 140zM818 1055l-161 -141
l-155 145l160 140z" />
    <glyph glyph-name="uni0685.init" unicode="&#x685;" horiz-adv-x="1032" 
d="M987 367l-130 -210q-79 22 -168 22q-84 0 -245 -67q-267 -112 -436 -112h-17q-28 0 -28 30v200q0 30 30 30h157q219 0 395 52q-105 58 -207 136q-108 82 -140 82q-41 0 -119 -140q-32 0 -54 32q145 330 239 330q52 0 255 -164q182 -148 270 -187q75 -34 198 -34z
M692 1030l-123 -121l-130 113l123 120zM434 1028l-124 -122l-129 113l124 120zM560 1255l-123 -121l-131 113l124 120z" />
    <glyph glyph-name="uni0685.medi" unicode="&#x685;" horiz-adv-x="1244" 
d="M1282 30q0 -30 -28 -30h-16q-324 0 -420 345q-69 -35 -271 -179q-233 -166 -539 -166h-17q-28 0 -28 30v200q0 30 30 30h160q261 0 504 162q-54 13 -185 61q-119 44 -166 65q-40 20 -78 20q-61 0 -121 -146q-44 0 -62 26q87 223 134 296q43 64 94 64q43 0 248 -102.5
t321 -102.5q170 0 364 50l-103 -229q-126 0 -213 -40q44 -124 327 -124h35q30 0 30 -30v-200zM847 1030l-123 -121l-131 113l124 120zM589 1028l-124 -122l-129 113l124 120zM715 1255l-123 -121l-131 113l124 120z" />
    <glyph glyph-name="uni0685.fina" unicode="&#x685;" horiz-adv-x="1139" 
d="M1177 30q0 -30 -27 -30h-18q-421 0 -457 436q-182 -72 -289 -192q-110 -124 -110 -269q0 -345 619 -345q153 0 258 16l-74 -123q-222 -66 -525 -66q-191 0 -325 78q-179 104 -179 316q0 163 124 318q128 160 369 287v3q-79 9 -189 45q-57 18 -82 18q-35 0 -59 -26
q-29 -33 -62 -126q-42 0 -65 20q99 248 143 320q34 53 73 53q35 0 114 -28q105 -37 171 -52q124 -28 269 -28q192 0 271 15l-127 -230h-151q-45 0 -89 4q25 -112 88 -147q68 -37 264 -37h36q29 0 29 -30v-200zM910 1030l-123 -121l-130 113l124 120zM652 1028l-124 -122
l-129 113l124 120zM778 1255l-123 -121l-130 113l124 120z" />
    <glyph glyph-name="uni0689.fina" unicode="&#x689;" horiz-adv-x="850" 
d="M339 -18q-28 -3 -55 -3q-35 -40 -50 -125q41 -40 110 -40q56 0 104 33q-7 96 -109 135zM224 -18q-99 11 -155 64q-1 60 19 171q17 96 29 130q4 0 10 1t8 1q21 -4 28 -9q-2 -6 -2 -27q0 -22 4 -30q61 -52 169 -52q171 0 267 60q-68 271 -178 401l144 200q65 -67 118 -329
q62 -303 138 -303h36q29 0 29 -30v-200q0 -30 -27 -30h-18q-141 0 -208 231h-4q-3 -27 -29 -95.5t-44 -98.5q-37 -14 -74 -25q21 -48 26 -115q-7 -53 -18.5 -96.5t-27.5 -82.5q-32 -18 -66.5 -29t-68.5 -11q-24 0 -50 3.5t-50 12.5q-26 10 -42 22.5t-28 23.5q2 90 24 156
q14 48 41 86z" />
    <glyph glyph-name="uni068A.fina" unicode="&#x68a;" horiz-adv-x="850" 
d="M888 30q0 -30 -27 -30h-18q-141 0 -208 231h-4q-3 -27 -29 -95.5t-44 -98.5q-148 -58 -281 -58q-138 0 -208 67q-1 60 19 171q17 96 29 130q4 0 10 1t8 1q21 -4 28 -9q-2 -6 -2 -27q0 -22 4 -30q61 -52 169 -52q171 0 267 60q-68 271 -178 401l144 200q65 -67 118 -329
q62 -303 138 -303h36q29 0 29 -30v-200zM513 -292l-161 -142l-155 145l161 141z" />
    <glyph glyph-name="uni068B.fina" unicode="&#x68b;" horiz-adv-x="850" 
d="M888 30q0 -30 -27 -30h-18q-141 0 -208 231h-4q-3 -27 -29 -95.5t-44 -98.5q-148 -58 -281 -58q-138 0 -208 67q-1 60 19 171q17 96 29 130q4 0 10 1t8 1q21 -4 28 -9q-2 -6 -2 -27q0 -22 4 -30q61 -52 169 -52q171 0 267 60q-68 271 -178 401l144 200q65 -67 118 -329
q62 -303 138 -303h36q29 0 29 -30v-200zM540 1318l-3 -5l-58 13q2 -12 2 -26v-26q0 -23 -1 -44t-3 -42l2 -1q31 43 63.5 66t69.5 23q34 0 65 -23t40 -72q0 -9 -4 -24t-9.5 -31t-11.5 -31.5t-13 -26.5q-40 -44 -97.5 -66t-129.5 -22q-30 0 -57 3l-107 118q32 -8 63 -12.5
t60 -6.5q0 82 -4.5 156t-30.5 131l79 80zM581 1183q-35 0 -66.5 -27.5t-60.5 -75.5q69 3 118 16.5t77 39.5q-27 47 -68 47zM513 -292l-161 -142l-155 145l161 141z" />
    <glyph glyph-name="uni068F.fina" unicode="&#x68f;" horiz-adv-x="850" 
d="M888 30q0 -30 -27 -30h-18q-141 0 -208 231h-4q-3 -27 -29 -95.5t-44 -98.5q-148 -58 -281 -58q-138 0 -208 67q-1 60 19 171q17 96 29 130q4 0 10 1t8 1q21 -4 28 -9q-2 -6 -2 -27q0 -22 4 -30q61 -52 169 -52q171 0 267 60q-68 271 -178 401l144 200q65 -67 118 -329
q62 -303 138 -303h36q29 0 29 -30v-200zM273 1346l123 121l130 -113l-124 -120zM531 1348l124 122l129 -113l-124 -120zM405 1121l123 121l130 -113l-124 -120z" />
    <glyph glyph-name="uni0690.fina" unicode="&#x690;" horiz-adv-x="850" 
d="M888 30q0 -30 -27 -30h-18q-141 0 -208 231h-4q-3 -27 -29 -95.5t-44 -98.5q-148 -58 -281 -58q-138 0 -208 67q-1 60 19 171q17 96 29 130q4 0 10 1t8 1q21 -4 28 -9q-2 -6 -2 -27q0 -22 4 -30q61 -52 169 -52q171 0 267 60q-68 271 -178 401l144 200q65 -67 118 -329
q62 -303 138 -303h36q29 0 29 -30v-200zM791 1379l-123 -121l-130 113l124 120zM534 1377l-124 -123l-130 113l124 121zM799 1142l-123 -121l-131 113l124 120zM541 1140l-124 -122l-129 113l123 120z" />
    <glyph glyph-name="uni0692.fina" unicode="&#x692;" horiz-adv-x="800" 
d="M838 30q0 -30 -28 -30h-17q-50 0 -136 57q-42 -294 -317 -591q-225 48 -340 135q394 165 534 403q-37 104 -194 231l126 244q126 -144 188 -186q50 -33 119 -33h35q30 0 30 -30v-200zM599 908h81l-173 -254h-135l-174 254h81l161 -138z" />
    <glyph glyph-name="uni0693.fina" unicode="&#x693;" horiz-adv-x="800" 
d="M380 -489q-3 -3 -6 -7q-32 -40 -48 -122q41 -40 110 -40q56 0 104 33q-8 113 -147 148q-7 -6 -13 -12zM296 -524q-193 47 -296 125q394 165 534 403q-37 104 -194 231l126 244q126 -144 188 -186q50 -33 119 -33h35q30 0 30 -30v-200q0 -30 -28 -30h-17q-50 0 -136 57
q-30 -208 -176 -418q36 -20 59 -43q54 -57 62 -171q-7 -53 -18.5 -96.5t-26.5 -81.5q-33 -19 -67 -30t-69 -11q-24 0 -50 3.5t-49 12.5q-27 10 -43 22.5t-28 23.5q2 90 24 156q8 28 21 52z" />
    <glyph glyph-name="uni0694.fina" unicode="&#x694;" horiz-adv-x="800" 
d="M466 479q67 -76 111.5 -120t77.5 -66t59.5 -27.5t58.5 -5.5h35q16 0 23 -8.5t7 -21.5v-200q0 -13 -7 -21.5t-21 -8.5h-17q-7 0 -21 3.5t-32.5 11.5t-40 18.5t-42.5 23.5q-10 -69 -30.5 -137t-57 -140t-92.5 -149t-137 -165q-127 27 -210.5 63.5t-129.5 71.5
q105 44 188.5 91t149 96.5t113.5 103t83 112.5q-14 38 -36 71t-49 62t-56 53.5t-53 44.5zM663 -685l-123 -121l-130 113l124 120z" />
    <glyph glyph-name="uni0695.fina" unicode="&#x695;" horiz-adv-x="800" 
d="M838 30q0 -30 -28 -30h-17q-50 0 -136 57q-42 -294 -317 -591q-225 48 -340 135q394 165 534 403q-37 104 -194 231l126 244q126 -144 188 -186q50 -33 119 -33h35q30 0 30 -30v-200zM490 -640h80l-172 -255h-136l-174 255h81l162 -139z" />
    <glyph glyph-name="uni0696.fina" unicode="&#x696;" horiz-adv-x="800" 
d="M466 479q67 -76 111.5 -120t77.5 -66t59.5 -27.5t58.5 -5.5h35q16 0 23 -8.5t7 -21.5v-200q0 -13 -7 -21.5t-21 -8.5h-17q-7 0 -21 3.5t-32.5 11.5t-40 18.5t-42.5 23.5q-10 -69 -30.5 -137t-57 -140t-92.5 -149t-137 -165q-127 27 -210.5 63.5t-129.5 71.5
q105 44 188.5 91t149 96.5t113.5 103t83 112.5q-14 38 -36 71t-49 62t-56 53.5t-53 44.5zM663 -685l-123 -121l-130 113l124 120zM312 12l-123 -122l-130 113l124 120z" />
    <glyph glyph-name="uni0697.fina" unicode="&#x697;" horiz-adv-x="800" 
d="M466 479q67 -76 111.5 -120t77.5 -66t59.5 -27.5t58.5 -5.5h35q16 0 23 -8.5t7 -21.5v-200q0 -13 -7 -21.5t-21 -8.5h-17q-7 0 -21 3.5t-32.5 11.5t-40 18.5t-42.5 23.5q-10 -69 -30.5 -137t-57 -140t-92.5 -149t-137 -165q-127 27 -210.5 63.5t-129.5 71.5
q105 44 188.5 91t149 96.5t113.5 103t83 112.5q-14 38 -36 71t-49 62t-56 53.5t-53 44.5zM681 742l-123 -122l-131 113l124 121zM423 739l-124 -122l-130 113l124 120z" />
    <glyph glyph-name="uni0699.fina" unicode="&#x699;" horiz-adv-x="800" 
d="M466 479q67 -76 111.5 -120t77.5 -66t59.5 -27.5t58.5 -5.5h35q16 0 23 -8.5t7 -21.5v-200q0 -13 -7 -21.5t-21 -8.5h-17q-7 0 -21 3.5t-32.5 11.5t-40 18.5t-42.5 23.5q-10 -69 -30.5 -137t-57 -140t-92.5 -149t-137 -165q-127 27 -210.5 63.5t-129.5 71.5
q105 44 188.5 91t149 96.5t113.5 103t83 112.5q-14 38 -36 71t-49 62t-56 53.5t-53 44.5zM683 981l-123 -121l-130 113l124 120zM425 978l-123 -122l-130 113l124 121zM681 742l-123 -122l-131 113l124 121zM423 739l-124 -122l-130 113l124 120z" />
    <glyph glyph-name="uni069A.init" unicode="&#x69a;" horiz-adv-x="1290" 
d="M1236 452q-8 -53 -40 -160q-34 -111 -58 -154q-127 -138 -219 -138q-74 0 -132 52q-67 59 -82 165h-3q-17 -103 -79 -163q-54 -54 -121 -54q-92 0 -161 59t-83 160h-3q-14 -101 -97 -164q-73 -55 -150 -55h-17q-28 0 -28 30v200q0 30 30 30h36q79 0 131 54q60 64 63 188
q22 5 42 5t45 -10q-4 -25 -4 -61q0 -72 45 -122q50 -54 140 -54q84 0 134.5 65.5t53.5 176.5q23 5 44 5q19 0 44 -10q-3 -49 -3 -61q0 -176 151 -176q119 0 179 59q-33 114 -116 199l146 200q36 -47 69.5 -128t42.5 -138zM875 934l-161 -141l-155 144l160 141zM868 -325
l-162 -141l-154 144l160 141z" />
    <glyph glyph-name="uni069A.medi" unicode="&#x69a;" horiz-adv-x="1313" 
d="M1351 30q0 -30 -28 -30h-16q-88 0 -155 50q-80 59 -96 170h-3q-22 -97 -87.5 -158.5t-142.5 -61.5q-175 0 -203 217h-4q-17 -103 -79 -163q-56 -54 -122 -54q-182 0 -208 219h-3q-16 -100 -78 -163q-55 -56 -118 -56h-17q-28 0 -28 30v200q0 30 30 30h36q46 0 93 65
q52 75 54 177q19 5 41 5q19 0 45 -10q-2 -25 -2 -61q0 -176 143 -176q86 0 138 66t52 176q20 5 41 5q20 0 45 -10q-2 -25 -2 -61q0 -176 146 -176q87 0 141 62.5t55 179.5q20 5 41 5q24 0 45 -9q-2 -26 -2 -62q0 -82 50 -129t133 -47h35q30 0 30 -30v-200zM793 934
l-161 -141l-155 144l160 141zM786 -325l-162 -141l-154 144l160 141z" />
    <glyph glyph-name="uni069A.fina" unicode="&#x69a;" horiz-adv-x="2060" 
d="M2098 30q0 -30 -28 -30h-17q-73 0 -127 46q-66 59 -73 174h-3q-23 -99 -81 -159.5t-134 -60.5q-175 0 -203 217h-4q-9 -99 -75 -161q-58 -56 -126 -56q-65 0 -111 52q0 -52 -18 -170q-19 -124 -37 -181q-114 -119 -279 -183q-156 -61 -322 -61q-220 0 -328 101
q-87 83 -87 218q0 97 58 238q60 145 153 264q34 0 58 -34q-65 -110 -87.5 -173t-22.5 -137q0 -217 323 -217q148 0 293 54q121 45 193 108q-9 105 -60.5 211t-113.5 149l100 258q84 -139 142.5 -188t132.5 -49q85 0 137.5 66t53.5 176q23 5 42 5q9 0 47 -3q-4 -64 -4 -68
q0 -176 145 -176q84 0 131.5 65t49.5 177q23 5 41 5q9 0 47 -3q-4 -32 -4 -68q0 -176 133 -176h35q30 0 30 -30v-200zM1621 934l-161 -141l-155 144l160 141zM1614 -325l-161 -141l-155 144l160 141z" />
    <glyph glyph-name="uni069B.init" unicode="&#x69b;" horiz-adv-x="1290" 
d="M1236 452q-8 -53 -40 -160q-34 -111 -58 -154q-127 -138 -219 -138q-74 0 -132 52q-67 59 -82 165h-3q-17 -103 -79 -163q-54 -54 -121 -54q-92 0 -161 59t-83 160h-3q-14 -101 -97 -164q-73 -55 -150 -55h-17q-28 0 -28 30v200q0 30 30 30h36q79 0 131 54q60 64 63 188
q22 5 42 5t45 -10q-4 -25 -4 -61q0 -72 45 -122q50 -54 140 -54q84 0 134.5 65.5t53.5 176.5q23 5 44 5q19 0 44 -10q-3 -49 -3 -61q0 -176 151 -176q119 0 179 59q-33 114 -116 199l146 200q36 -47 69.5 -128t42.5 -138zM849 -371l-124 120l130 113l123 -121zM591 -367
l-124 120l129 113l124 -122zM716 -596l-123 120l130 113l123 -121z" />
    <glyph glyph-name="uni069B.medi" unicode="&#x69b;" horiz-adv-x="1313" 
d="M1351 30q0 -30 -28 -30h-16q-88 0 -155 50q-80 59 -96 170h-3q-22 -97 -87.5 -158.5t-142.5 -61.5q-175 0 -203 217h-4q-17 -103 -79 -163q-56 -54 -122 -54q-182 0 -208 219h-3q-16 -100 -78 -163q-55 -56 -118 -56h-17q-28 0 -28 30v200q0 30 30 30h36q46 0 93 65
q52 75 54 177q19 5 41 5q19 0 45 -10q-2 -25 -2 -61q0 -176 143 -176q86 0 138 66t52 176q20 5 41 5q20 0 45 -10q-2 -25 -2 -61q0 -176 146 -176q87 0 141 62.5t55 179.5q20 5 41 5q24 0 45 -9q-2 -26 -2 -62q0 -82 50 -129t133 -47h35q30 0 30 -30v-200zM776 -371
l-124 120l130 113l123 -121zM518 -367l-124 120l129 113l124 -122zM644 -596l-124 120l130 113l123 -121z" />
    <glyph glyph-name="uni069B.fina" unicode="&#x69b;" horiz-adv-x="2060" 
d="M2098 30q0 -30 -28 -30h-17q-73 0 -127 46q-66 59 -73 174h-3q-23 -99 -81 -159.5t-134 -60.5q-175 0 -203 217h-4q-9 -99 -75 -161q-58 -56 -126 -56q-65 0 -111 52q0 -52 -18 -170q-19 -124 -37 -181q-114 -119 -279 -183q-156 -61 -322 -61q-220 0 -328 101
q-87 83 -87 218q0 97 58 238q60 145 153 264q34 0 58 -34q-65 -110 -87.5 -173t-22.5 -137q0 -217 323 -217q148 0 293 54q121 45 193 108q-9 105 -60.5 211t-113.5 149l100 258q84 -139 142.5 -188t132.5 -49q85 0 137.5 66t53.5 176q23 5 42 5q9 0 47 -3q-4 -64 -4 -68
q0 -176 145 -176q84 0 131.5 65t49.5 177q23 5 41 5q9 0 47 -3q-4 -32 -4 -68q0 -176 133 -176h35q30 0 30 -30v-200zM1586 -371l-124 120l130 113l123 -121zM1328 -367l-124 120l129 113l124 -122zM1453 -596l-123 120l130 113l123 -121z" />
    <glyph glyph-name="uni069C.init" unicode="&#x69c;" horiz-adv-x="1290" 
d="M1236 452q-8 -53 -40 -160q-34 -111 -58 -154q-127 -138 -219 -138q-74 0 -132 52q-67 59 -82 165h-3q-17 -103 -79 -163q-54 -54 -121 -54q-92 0 -161 59t-83 160h-3q-14 -101 -97 -164q-73 -55 -150 -55h-17q-28 0 -28 30v200q0 30 30 30h36q79 0 131 54q60 64 63 188
q22 5 42 5t45 -10q-4 -25 -4 -61q0 -72 45 -122q50 -54 140 -54q84 0 134.5 65.5t53.5 176.5q23 5 44 5q19 0 44 -10q-3 -49 -3 -61q0 -176 151 -176q119 0 179 59q-33 114 -116 199l146 200q36 -47 69.5 -128t42.5 -138zM976 921l-123 -121l-130 113l124 120zM718 918
l-124 -122l-129 113l124 120zM844 1146l-123 -121l-130 113l124 120zM849 -371l-124 120l130 113l123 -121zM591 -367l-124 120l129 113l124 -122zM716 -596l-123 120l130 113l123 -121z" />
    <glyph glyph-name="uni069C.medi" unicode="&#x69c;" horiz-adv-x="1313" 
d="M1351 30q0 -30 -28 -30h-16q-88 0 -155 50q-80 59 -96 170h-3q-22 -97 -87.5 -158.5t-142.5 -61.5q-175 0 -203 217h-4q-17 -103 -79 -163q-56 -54 -122 -54q-182 0 -208 219h-3q-16 -100 -78 -163q-55 -56 -118 -56h-17q-28 0 -28 30v200q0 30 30 30h36q46 0 93 65
q52 75 54 177q19 5 41 5q19 0 45 -10q-2 -25 -2 -61q0 -176 143 -176q86 0 138 66t52 176q20 5 41 5q20 0 45 -10q-2 -25 -2 -61q0 -176 146 -176q87 0 141 62.5t55 179.5q20 5 41 5q24 0 45 -9q-2 -26 -2 -62q0 -82 50 -129t133 -47h35q30 0 30 -30v-200zM900 831
l-123 -121l-131 113l124 120zM642 828l-124 -122l-130 113l124 120zM767 1056l-123 -121l-130 113l124 120zM776 -371l-124 120l130 113l123 -121zM518 -367l-124 120l129 113l124 -122zM644 -596l-124 120l130 113l123 -121z" />
    <glyph glyph-name="uni069C.fina" unicode="&#x69c;" horiz-adv-x="2060" 
d="M2098 30q0 -30 -28 -30h-17q-73 0 -127 46q-66 59 -73 174h-3q-23 -99 -81 -159.5t-134 -60.5q-175 0 -203 217h-4q-9 -99 -75 -161q-58 -56 -126 -56q-65 0 -111 52q0 -52 -18 -170q-19 -124 -37 -181q-114 -119 -279 -183q-156 -61 -322 -61q-220 0 -328 101
q-87 83 -87 218q0 97 58 238q60 145 153 264q34 0 58 -34q-65 -110 -87.5 -173t-22.5 -137q0 -217 323 -217q148 0 293 54q121 45 193 108q-9 105 -60.5 211t-113.5 149l100 258q84 -139 142.5 -188t132.5 -49q85 0 137.5 66t53.5 176q23 5 42 5q9 0 47 -3q-4 -64 -4 -68
q0 -176 145 -176q84 0 131.5 65t49.5 177q23 5 41 5q9 0 47 -3q-4 -32 -4 -68q0 -176 133 -176h35q30 0 30 -30v-200zM1719 848l-123 -121l-130 113l124 120zM1462 845l-124 -122l-130 113l124 121zM1587 1073l-123 -121l-130 113l124 120zM1586 -371l-124 120l130 113
l123 -121zM1328 -367l-124 120l129 113l124 -122zM1453 -596l-123 120l130 113l123 -121z" />
    <glyph glyph-name="uni069D.init" unicode="&#x69d;" horiz-adv-x="1400" 
d="M1346 436q-87 -165 -285 -293q-222 -143 -458 -143q-317 0 -343 219h-4q-24 -101 -93 -162q-65 -57 -144 -57h-28q-28 0 -28 30v200q0 30 30 30h34q183 0 205 238q13 9 32 9q22 0 41 -9q0 -238 188 -238q322 417 584 417q107 0 182 -72q71 -67 87 -169zM1129 360
q-24 144 -169 144q-72 0 -160 -60q-98 -69 -182 -193h93q307 0 418 109zM931 -371l-124 120l130 113l123 -121zM673 -367l-124 120l129 113l124 -122z" />
    <glyph glyph-name="uni069D.medi" unicode="&#x69d;" horiz-adv-x="1415" 
d="M1453 30q0 -30 -27 -30h-17q-159 0 -323 164q-235 -164 -576 -164q-93 0 -161 53q-76 59 -89 166h-4q-24 -101 -93 -162q-65 -57 -144 -57h-28q-28 0 -28 30v200q0 30 30 30h34q183 0 205 238q13 9 32 9q22 0 41 -9q0 -238 186 -238q322 417 584 417q107 0 183 -72
q70 -67 86 -169q-24 -55 -108 -139q19 -12 72.5 -24.5t80.5 -12.5h35q29 0 29 -30v-200zM1129 360q-24 144 -169 144q-72 0 -160 -60q-98 -69 -182 -193h93q307 0 418 109zM876 -371l-124 120l130 113l123 -121zM618 -367l-124 120l129 113l124 -122z" />
    <glyph glyph-name="uni069D.fina" unicode="&#x69d;" horiz-adv-x="2165" 
d="M2202 30q0 -30 -28 -30h-16q-153 0 -321 162q-230 -162 -577 -162q-95 0 -144 54q0 -53 -18 -172q-19 -124 -37 -181q-114 -119 -279 -183q-156 -61 -322 -61q-220 0 -328 101q-87 83 -87 218q0 97 58 238q60 145 153 264q34 0 58 -34q-65 -110 -87.5 -173t-22.5 -137
q0 -217 323 -217q148 0 293 54q121 45 193 108q-9 105 -60.5 211t-113.5 149l100 258q96 -154 153 -197q52 -40 147 -40q322 417 584 417q108 0 183 -72q70 -67 86 -169q-24 -55 -108 -139q20 -12 73 -24.5t80 -12.5h35q30 0 30 -30v-200zM1878 360q-26 144 -170 144
q-71 0 -159 -60q-98 -69 -183 -193h94q307 0 418 109zM1740 -371l-123 120l130 113l123 -121zM1483 -367l-124 120l129 113l124 -122z" />
    <glyph glyph-name="uni069E.init" unicode="&#x69e;" horiz-adv-x="1400" 
d="M1346 436q-87 -165 -285 -293q-222 -143 -458 -143q-317 0 -343 219h-4q-24 -101 -93 -162q-65 -57 -144 -57h-28q-28 0 -28 30v200q0 30 30 30h34q183 0 205 238q13 9 32 9q22 0 41 -9q0 -238 188 -238q322 417 584 417q107 0 182 -72q71 -67 87 -169zM1129 360
q-24 144 -169 144q-72 0 -160 -60q-98 -69 -182 -193h93q307 0 418 109zM1222 930l-123 -121l-130 113l124 120zM964 927l-124 -122l-129 113l124 121zM1090 1155l-123 -121l-130 113l124 120z" />
    <glyph glyph-name="uni069E.medi" unicode="&#x69e;" horiz-adv-x="1415" 
d="M1453 30q0 -30 -27 -30h-17q-159 0 -323 164q-235 -164 -576 -164q-93 0 -161 53q-76 59 -89 166h-4q-24 -101 -93 -162q-65 -57 -144 -57h-28q-28 0 -28 30v200q0 30 30 30h34q183 0 205 238q13 9 32 9q22 0 41 -9q0 -238 186 -238q322 417 584 417q107 0 183 -72
q70 -67 86 -169q-24 -55 -108 -139q19 -12 72.5 -24.5t80.5 -12.5h35q29 0 29 -30v-200zM1129 360q-24 144 -169 144q-72 0 -160 -60q-98 -69 -182 -193h93q307 0 418 109zM1222 921l-123 -121l-130 113l124 120zM964 918l-124 -122l-129 113l124 120zM1090 1146l-123 -121
l-130 113l124 120z" />
    <glyph glyph-name="uni069E.fina" unicode="&#x69e;" horiz-adv-x="2165" 
d="M2202 30q0 -30 -28 -30h-16q-153 0 -321 162q-230 -162 -577 -162q-95 0 -144 54q0 -53 -18 -172q-19 -124 -37 -181q-114 -119 -279 -183q-156 -61 -322 -61q-220 0 -328 101q-87 83 -87 218q0 97 58 238q60 145 153 264q34 0 58 -34q-65 -110 -87.5 -173t-22.5 -137
q0 -217 323 -217q148 0 293 54q121 45 193 108q-9 105 -60.5 211t-113.5 149l100 258q96 -154 153 -197q52 -40 147 -40q322 417 584 417q108 0 183 -72q70 -67 86 -169q-24 -55 -108 -139q20 -12 73 -24.5t80 -12.5h35q30 0 30 -30v-200zM1878 360q-26 144 -170 144
q-71 0 -159 -60q-98 -69 -183 -193h94q307 0 418 109zM1977 921l-123 -121l-130 113l124 120zM1719 918l-123 -122l-130 113l124 120zM1845 1146l-123 -121l-130 113l124 120z" />
    <glyph glyph-name="uni069F.init" unicode="&#x69f;" horiz-adv-x="1028" 
d="M974 438q-259 -438 -843 -438h-140q-28 0 -28 30v200q0 30 30 30h144q0 636 -103 874l170 151q15 -41 62 -137q50 -101 76 -137q-20 -7 -37 -7q-19 0 -40 7q11 -98 11 -580q219 246 437 246q106 0 177 -71q63 -64 84 -168zM760 360q-25 144 -170 144q-71 0 -159 -60
q-98 -69 -183 -193h94q307 0 418 109zM912 921l-123 -121l-130 113l124 120zM654 918l-123 -122l-130 113l124 120zM780 1146l-123 -121l-130 113l124 120z" />
    <glyph glyph-name="uni069F.medi" unicode="&#x69f;" horiz-adv-x="1044" 
d="M1083 30q0 -30 -29 -30h-16q-152 0 -320 164q-120 -86 -271 -122q-168 -42 -439 -42h-17q-28 0 -28 30v200q0 30 30 30h144q0 636 -103 874l170 151q15 -41 62 -137q50 -101 76 -137q-20 -7 -37 -7q-19 0 -40 7q11 -98 11 -580q219 246 429 246q108 0 183 -71
q69 -67 86 -168q-31 -71 -108 -139q20 -12 73 -25.5t78 -13.5h36q30 0 30 -30v-200zM760 360q-25 144 -170 144q-71 0 -159 -60q-98 -69 -183 -193h94q307 0 418 109zM912 921l-123 -121l-130 113l124 120zM654 918l-123 -122l-130 113l124 120zM780 1146l-123 -121
l-130 113l124 120z" />
    <glyph glyph-name="uni069F.fina" unicode="&#x69f;" horiz-adv-x="1283" 
d="M1320 30q0 -30 -28 -30h-16q-151 0 -317 164q-235 -164 -579 -164q-165 0 -212.5 54.5t-102.5 298.5q17 12 39 12q50 -105 271 -105q0 636 -103 874l169 151q16 -41 63 -137q50 -101 76 -137q-20 -7 -38 -7q-19 0 -39 7q11 -98 11 -580q219 246 429 246q108 0 182 -71
q70 -67 87 -168q-29 -67 -107 -139q20 -12 73 -25.5t77 -13.5h35q30 0 30 -30v-200zM998 360q-26 144 -170 144q-72 0 -159 -60q-98 -69 -182 -193h93q307 0 418 109zM1157 921l-123 -121l-130 113l124 120zM900 918l-124 -122l-130 113l124 120zM1025 1146l-123 -121
l-130 113l124 120z" />
    <glyph glyph-name="uni06A0.init" unicode="&#x6a0;" horiz-adv-x="939" 
d="M894 409l-116 -243q-66 -4 -279 -56q-182 -44 -265 -71q-123 -39 -226 -39h-17q-28 0 -28 30v200q0 30 30 30h153q13 0 53 1.5t47 1.5v4q-126 52 -126 201q0 66 14 118q172 263 363 263q171 0 283 -209q-97 35 -190 35q-137 0 -271 -65q-3 -213 208 -297q265 79 367 96z
M730 1076l-123 -121l-130 113l124 120zM472 1073l-124 -122l-129 113l124 120zM598 1301l-123 -121l-130 113l124 120z" />
    <glyph glyph-name="uni06A0.medi" unicode="&#x6a0;" horiz-adv-x="726" 
d="M764 30q0 -30 -28 -30h-18q-115 0 -213 63q-105 67 -143 181h-4q-18 -113 -133 -183q-101 -61 -217 -61h-17q-28 0 -28 30v200q0 30 30 30h34q178 0 251 94q-110 119 -218 144q158 209 353 209q233 0 233 -262q-110 -40 -185 -94q71 -91 237 -91h36q30 0 30 -30v-200z
M639 1003l-123 -121l-130 113l124 120zM381 1000l-124 -122l-129 113l124 120zM507 1228l-123 -121l-130 113l124 120z" />
    <glyph glyph-name="uni06A0.fina" unicode="&#x6a0;" horiz-adv-x="1038" 
d="M1075 30q0 -30 -28 -30h-17q-115 0 -190 57q-83 63 -272 305q-170 -112 -239 -210q-58 -84 -58 -184q0 -338 547 -338q100 0 235 14l-81 -133q-51 -12 -177 -30q-162 -24 -250 -24q-240 0 -370 100t-130 275q0 153 103.5 287.5t353.5 305.5q-41 44 -109 85.5t-118 55.5
q160 210 354 210q233 0 233 -263q-126 -51 -180 -91q124 -162 328 -162h35q30 0 30 -30v-200zM866 1039l-123 -121l-130 113l123 121zM608 1037l-124 -122l-129 113l124 120zM734 1265l-123 -122l-131 113l124 121z" />
    <glyph glyph-name="uni06A1.init" unicode="&#x6a1;" horiz-adv-x="706" 
d="M620 493q0 -172 -36 -370q-97 -68 -227.5 -95.5t-348.5 -27.5h-17q-28 0 -28 30v200q0 30 30 30h189q235 0 328 57q7 27 7 53q0 19 -6 55q-67 -35 -171 -35q-124 0 -226 64q0 340 200 477q143 0 223 -110q83 -114 83 -328zM491 579q-54 153 -211 153q-56 -31 -56 -123
q65 -46 168 -46q54 0 99 16z" />
    <glyph glyph-name="uni06A1.medi" unicode="&#x6a1;" horiz-adv-x="726" 
d="M764 30q0 -30 -28 -30h-18q-212 0 -337 125q-83 -67 -148 -92q-87 -33 -225 -33h-17q-28 0 -28 30v200q0 30 30 30h34q138 0 210 27q-108 125 -108 249q0 92 58 188q62 103 160 159q248 -83 248 -308q0 -67 -31 -153q-29 -82 -65 -129q85 -33 153 -33h82q30 0 30 -30
v-200zM456 489q0 36 -25 68q-28 39 -78 52q-83 -25 -103 -144q40 -87 120 -125q32 19 59 65t27 84z" />
    <glyph glyph-name="uni06A1.fina" unicode="&#x6a1;" horiz-adv-x="1471" 
d="M1508 30q0 -30 -28 -30h-17q-212 0 -338 125q-96 -80 -209 -108q-117 -28 -363 -28q-243 0 -354 62q-118 67 -118 218q0 155 114 367q8 6 18 6q30 0 52 -33q-56 -101 -56 -185q0 -87 74 -122q90 -42 343 -42q279 0 358 27q-109 126 -109 249q0 92 59 188q62 103 160 159
q248 -83 248 -308q0 -67 -31 -153q-30 -82 -68 -129q85 -33 153 -33h83q29 0 29 -30v-200zM1202 489q0 36 -24 68q-28 39 -78 52q-83 -25 -103 -144q42 -89 119 -125q33 19 59.5 65t26.5 84z" />
    <glyph glyph-name="uni06A2.init" unicode="&#x6a2;" horiz-adv-x="706" 
d="M620 493q0 -172 -36 -370q-97 -68 -227.5 -95.5t-348.5 -27.5h-17q-28 0 -28 30v200q0 30 30 30h189q235 0 328 57q7 27 7 53q0 19 -6 55q-67 -35 -171 -35q-124 0 -226 64q0 340 200 477q143 0 223 -110q83 -114 83 -328zM491 579q-54 153 -211 153q-56 -31 -56 -123
q65 -46 168 -46q54 0 99 16zM505 -292l-161 -142l-155 145l160 141z" />
    <glyph glyph-name="uni06A2.medi" unicode="&#x6a2;" horiz-adv-x="726" 
d="M764 30q0 -30 -28 -30h-18q-212 0 -337 125q-83 -67 -148 -92q-87 -33 -225 -33h-17q-28 0 -28 30v200q0 30 30 30h34q138 0 210 27q-108 125 -108 249q0 92 58 188q62 103 160 159q248 -83 248 -308q0 -67 -31 -153q-29 -82 -65 -129q85 -33 153 -33h82q30 0 30 -30
v-200zM456 489q0 36 -25 68q-28 39 -78 52q-83 -25 -103 -144q40 -87 120 -125q32 19 59 65t27 84zM505 -292l-161 -142l-155 145l160 141z" />
    <glyph glyph-name="uni06A2.fina" unicode="&#x6a2;" horiz-adv-x="1471" 
d="M1508 30q0 -30 -28 -30h-17q-212 0 -338 125q-96 -80 -209 -108q-117 -28 -363 -28q-243 0 -354 62q-118 67 -118 218q0 155 114 367q8 6 18 6q30 0 52 -33q-56 -101 -56 -185q0 -87 74 -122q90 -42 343 -42q279 0 358 27q-109 126 -109 249q0 92 59 188q62 103 160 159
q248 -83 248 -308q0 -67 -31 -153q-30 -82 -68 -129q85 -33 153 -33h83q29 0 29 -30v-200zM1202 489q0 36 -24 68q-28 39 -78 52q-83 -25 -103 -144q42 -89 119 -125q33 19 59.5 65t26.5 84zM1251 -292l-161 -142l-155 145l160 141z" />
    <glyph glyph-name="uni06A3.init" unicode="&#x6a3;" horiz-adv-x="706" 
d="M620 493q0 -172 -36 -370q-97 -68 -227.5 -95.5t-348.5 -27.5h-17q-28 0 -28 30v200q0 30 30 30h189q235 0 328 57q7 27 7 53q0 19 -6 55q-67 -35 -171 -35q-124 0 -226 64q0 340 200 477q143 0 223 -110q83 -114 83 -328zM491 579q-54 153 -211 153q-56 -31 -56 -123
q65 -46 168 -46q54 0 99 16zM492 1184l-161 -141l-155 145l161 140zM505 -292l-161 -142l-155 145l160 141z" />
    <glyph glyph-name="uni06A3.medi" unicode="&#x6a3;" horiz-adv-x="726" 
d="M764 30q0 -30 -28 -30h-18q-212 0 -337 125q-83 -67 -148 -92q-87 -33 -225 -33h-17q-28 0 -28 30v200q0 30 30 30h34q138 0 210 27q-108 125 -108 249q0 92 58 188q62 103 160 159q248 -83 248 -308q0 -67 -31 -153q-29 -82 -65 -129q85 -33 153 -33h82q30 0 30 -30
v-200zM456 489q0 36 -25 68q-28 39 -78 52q-83 -25 -103 -144q40 -87 120 -125q32 19 59 65t27 84zM505 1156l-161 -141l-155 145l160 140zM505 -292l-161 -142l-155 145l160 141z" />
    <glyph glyph-name="uni06A3.fina" unicode="&#x6a3;" horiz-adv-x="1471" 
d="M1508 30q0 -30 -28 -30h-17q-212 0 -338 125q-96 -80 -209 -108q-117 -28 -363 -28q-243 0 -354 62q-118 67 -118 218q0 155 114 367q8 6 18 6q30 0 52 -33q-56 -101 -56 -185q0 -87 74 -122q90 -42 343 -42q279 0 358 27q-109 126 -109 249q0 92 59 188q62 103 160 159
q248 -83 248 -308q0 -67 -31 -153q-30 -82 -68 -129q85 -33 153 -33h83q29 0 29 -30v-200zM1202 489q0 36 -24 68q-28 39 -78 52q-83 -25 -103 -144q42 -89 119 -125q33 19 59.5 65t26.5 84zM1250 1158l-161 -141l-155 145l160 140zM832 -292l-162 -142l-154 145l160 141z
" />
    <glyph glyph-name="uni06A5.init" unicode="&#x6a5;" horiz-adv-x="706" 
d="M620 493q0 -172 -36 -370q-97 -68 -227.5 -95.5t-348.5 -27.5h-17q-28 0 -28 30v200q0 30 30 30h189q235 0 328 57q7 27 7 53q0 19 -6 55q-67 -35 -171 -35q-124 0 -226 64q0 340 200 477q143 0 223 -110q83 -114 83 -328zM491 579q-54 153 -211 153q-56 -31 -56 -123
q65 -46 168 -46q54 0 99 16zM466 -389l-124 120l130 113l123 -121zM208 -385l-124 120l130 113l123 -122zM334 -614l-124 120l130 113l123 -121z" />
    <glyph glyph-name="uni06A5.medi" unicode="&#x6a5;" horiz-adv-x="726" 
d="M764 30q0 -30 -28 -30h-18q-212 0 -337 125q-83 -67 -148 -92q-87 -33 -225 -33h-17q-28 0 -28 30v200q0 30 30 30h34q138 0 210 27q-108 125 -108 249q0 92 58 188q62 103 160 159q248 -83 248 -308q0 -67 -31 -153q-29 -82 -65 -129q85 -33 153 -33h82q30 0 30 -30
v-200zM456 489q0 36 -25 68q-28 39 -78 52q-83 -25 -103 -144q40 -87 120 -125q32 19 59 65t27 84zM493 -389l-124 120l131 113l123 -121zM235 -385l-124 120l130 113l124 -122zM361 -614l-124 120l130 113l123 -121z" />
    <glyph glyph-name="uni06A5.fina" unicode="&#x6a5;" horiz-adv-x="1471" 
d="M1508 30q0 -30 -28 -30h-17q-212 0 -338 125q-96 -80 -209 -108q-117 -28 -363 -28q-243 0 -354 62q-118 67 -118 218q0 155 114 367q8 6 18 6q30 0 52 -33q-56 -101 -56 -185q0 -87 74 -122q90 -42 343 -42q279 0 358 27q-109 126 -109 249q0 92 59 188q62 103 160 159
q248 -83 248 -308q0 -67 -31 -153q-30 -82 -68 -129q85 -33 153 -33h83q29 0 29 -30v-200zM1202 489q0 36 -24 68q-28 39 -78 52q-83 -25 -103 -144q42 -89 119 -125q33 19 59.5 65t26.5 84zM1221 -389l-124 120l130 113l123 -121zM963 -385l-124 120l129 113l124 -122z
M1089 -614l-124 120l130 113l123 -121z" />
    <glyph glyph-name="uni06A7.init" unicode="&#x6a7;" horiz-adv-x="706" 
d="M620 493q0 -172 -36 -370q-97 -68 -227.5 -95.5t-348.5 -27.5h-17q-28 0 -28 30v200q0 30 30 30h189q235 0 328 57q7 27 7 53q0 19 -6 55q-67 -35 -171 -35q-124 0 -226 64q0 340 200 477q143 0 223 -110q83 -114 83 -328zM491 579q-54 153 -211 153q-56 -31 -56 -123
q65 -46 168 -46q54 0 99 16zM492 1184l-161 -141l-155 145l161 140z" />
    <glyph glyph-name="uni06A7.medi" unicode="&#x6a7;" horiz-adv-x="726" 
d="M764 30q0 -30 -28 -30h-18q-212 0 -337 125q-83 -67 -148 -92q-87 -33 -225 -33h-17q-28 0 -28 30v200q0 30 30 30h34q138 0 210 27q-108 125 -108 249q0 92 58 188q62 103 160 159q248 -83 248 -308q0 -67 -31 -153q-29 -82 -65 -129q85 -33 153 -33h82q30 0 30 -30
v-200zM456 489q0 36 -25 68q-28 39 -78 52q-83 -25 -103 -144q40 -87 120 -125q32 19 59 65t27 84zM505 1156l-161 -141l-155 145l160 140z" />
    <glyph glyph-name="uni06A7.fina" unicode="&#x6a7;" horiz-adv-x="1259" 
d="M1172 238q0 -240 -49 -429q-104 -91 -276 -164q-206 -89 -388 -89q-198 0 -301 100q-95 90 -95 249q0 101 46 247q41 133 94 231q11 3 19 3q30 0 51 -31q-26 -46 -48 -136.5t-22 -147.5q0 -255 312 -255q138 0 301 56q152 53 255 128q3 35 -10 122l-78 -23
q-229 0 -343 101q0 169 70 309q67 134 173 193q289 -25 289 -464zM1035 331q-13 63 -64 113q-56 54 -127 62q-28 -15 -51 -56.5t-24 -79.5q87 -56 184 -56q52 0 82 17zM1010 979l-130 -131l-136 121l130 130z" />
    <glyph glyph-name="uni06A8.init" unicode="&#x6a8;" horiz-adv-x="706" 
d="M620 493q0 -172 -36 -370q-97 -68 -227.5 -95.5t-348.5 -27.5h-17q-28 0 -28 30v200q0 30 30 30h189q235 0 328 57q7 27 7 53q0 19 -6 55q-67 -35 -171 -35q-124 0 -226 64q0 340 200 477q143 0 223 -110q83 -114 83 -328zM491 579q-54 153 -211 153q-56 -31 -56 -123
q65 -46 168 -46q54 0 99 16zM600 1115l-123 -121l-130 113l123 120zM342 1112l-124 -122l-129 113l124 121zM468 1340l-123 -121l-131 113l124 120z" />
    <glyph glyph-name="uni06A8.medi" unicode="&#x6a8;" horiz-adv-x="726" 
d="M764 30q0 -30 -28 -30h-18q-214 0 -339 125q-81 -67 -146 -92q-87 -33 -225 -33h-17q-28 0 -28 30v200q0 30 30 30h34q138 0 210 27q-108 125 -108 249q0 92 58 188q62 103 160 159q248 -83 248 -308q0 -67 -31 -153q-30 -82 -67 -129q86 -33 153 -33h84q30 0 30 -30
v-200zM456 489q0 36 -25 68q-28 39 -78 52q-83 -25 -103 -144q40 -87 120 -125q32 19 59 65t27 84zM600 1079l-123 -122l-130 113l123 121zM342 1076l-124 -122l-129 113l124 120zM468 1304l-123 -121l-131 112l124 121z" />
    <glyph glyph-name="uni06A8.fina" unicode="&#x6a8;" horiz-adv-x="1250" 
d="M1287 30q0 -30 -28 -30h-84q-10 -147 -46 -291q-109 -92 -279 -164q-208 -88 -389 -88q-200 0 -303 99q-95 91 -95 250q0 101 46 247q41 133 94 230q11 4 19 4q30 0 51 -31q-26 -46 -48 -137t-22 -147q0 -255 314 -255q138 0 300 56q152 53 254 128q3 40 -10 99h-76
q-229 0 -343 101q0 169 70 309q67 134 173 193q240 -22 287 -343h85q30 0 30 -30v-200zM1035 231q-13 63 -64 114q-56 55 -127 61q-28 -15 -50.5 -56.5t-22.5 -78.5q84 -56 182 -56q52 0 82 16zM1136 919l-130 -131l-137 121l131 130zM865 916l-131 -132l-136 122l130 129z
M990 1142l-123 -122l-130 113l124 121z" />
    <glyph glyph-name="uni06AA.init" unicode="&#x6aa;" horiz-adv-x="1881" 
d="M140 260q378 -2 826 25q441 27 621 27q-65 137 -317 137q-119 0 -382 -22q-264 -23 -394 -23q-338 0 -338 210q0 79 59 201q75 160 237 282q169 129 277 129q65 0 90 -39l-47 -261l-22 -1q-32 42 -70 42q-86 0 -228 -87q-145 -88 -145 -148q0 -35 68 -57q68 -23 175 -23
q154 0 410 20q255 20 383 20q213 0 321 -93q113 -96 113 -245q0 -78 -94 -276q-206 0 -730 -39t-827 -39h-72q-7 0 -14 1q-15 -1 -30 -1h-17q-27 0 -27 30v70q-2 14 -2 28q0 15 2 29v73q0 30 29 30h36h109z" />
    <glyph glyph-name="uni06AA.medi" unicode="&#x6aa;" horiz-adv-x="1935" 
d="M798 938l-23 -1q-32 42 -71 42q-87 0 -231 -87q-148 -89 -148 -150q0 -35 70 -58q69 -23 176 -23q157 0 416 20t389 20q214 0 326 -93q107 -91 107 -197q0 -60 -16 -109q44 -41 117 -42h26q30 0 30 -30v-200q0 -30 -28 -30h-21q-143 0 -197 79q-208 0 -739 -39
q-532 -40 -839 -40h-143q-27 0 -27 30v200q0 30 29 30h45l111 1q383 0 837 28q447 27 629 27q-67 140 -322 140q-120 0 -386 -23q-267 -23 -399 -23q-343 0 -343 212q0 80 59 204q76 162 241 285q170 132 281 132q56 0 83 -30l-33 -265q-3 -4 -6 -10z" />
    <glyph glyph-name="uni06AA.fina" unicode="&#x6aa;" horiz-adv-x="2144" 
d="M997 935l-24 -1q-32 43 -69 43q-88 0 -232 -88q-146 -89 -146 -150q0 -35 69 -57q70 -23 176 -23q156 0 413 21q259 19 388 19q213 0 326 -93q106 -91 106 -196q0 -60 -15 -109q44 -41 123 -41h35q30 0 30 -30v-200q0 -30 -28 -30h-37q-143 0 -196 79q-221 0 -699 -39
q-477 -40 -730 -40q-92 0 -168 15l-257 265l15 20q229 -40 499 -40q199 0 623 28q425 27 619 27q-65 139 -319 139q-120 0 -386 -22q-266 -24 -398 -24q-341 0 -341 212q0 80 59 204q76 160 239 283q171 131 281 131q70 0 94 -46l-45 -247q-3 -5 -5 -10z" />
    <glyph glyph-name="uni06AB.init" unicode="&#x6ab;" horiz-adv-x="828" 
d="M187 1173q28 10 70 22.5t91.5 25.5t103.5 25t107.5 23t104 18.5t92.5 12.5l-43 -95q-37 -3 -83.5 -11t-98.5 -19t-105 -23t-101 -25.5t-87.5 -25.5t-64.5 -22zM-37 230q0 13 6.5 21.5t23.5 8.5h69q74 0 128.5 5.5t93.5 16t64.5 26t41.5 35.5q-12 37 -34.5 68t-64 60.5
t-106 60.5t-160.5 68q0 47 2.5 97t7 96t10 83.5t11.5 58.5q43 17 104 36.5t130.5 38.5t144 36.5t143.5 32t129 25.5t101 16l-103 -234q-36 -1 -85 -5.5t-104.5 -12.5t-113.5 -18t-113 -22.5t-104 -25.5t-85 -28v-3q57 -17 117.5 -42t115 -57t96.5 -69t62 -76q0 -33 -3 -80
t-7.5 -95t-10 -90.5t-9.5 -65.5q-54 -58 -103 -95.5t-101.5 -60t-112.5 -31.5t-136 -9h-17q-14 0 -21 8.5t-7 21.5v200z" />
    <glyph glyph-name="uni06AB.medi" unicode="&#x6ab;" horiz-adv-x="932" 
d="M193 1173q28 10 75 23.5t103.5 27.5t118.5 27.5t120 24t109 17t86 7.5l-43 -95q-23 -1 -67 -7t-99 -16.5t-116.5 -24t-118.5 -27.5t-105 -27t-76 -24zM-37 230q0 13 6.5 21.5t23.5 8.5h34q150 0 241 21t128 62q-12 37 -35 68t-64.5 60.5t-106 60.5t-160.5 68q0 47 3 97
t7 96t10 83.5t12 58.5q39 16 97 35.5t127 39t145 38.5t149.5 34t142 25t123.5 13l-103 -234q-38 1 -90 -2.5t-111.5 -11t-122 -18.5t-120.5 -24t-108.5 -27t-85.5 -29v-3q45 -11 96.5 -32.5t104.5 -49.5t106 -60.5t101.5 -67t90.5 -69.5t73 -67q47 -44 83.5 -75.5t64 -51.5
t48.5 -29t37 -9h31q17 0 23.5 -8.5t6.5 -21.5v-200q0 -13 -7 -21.5t-22 -8.5h-16q-32 0 -64.5 8.5t-64.5 28t-66 51t-68 78.5q-26 34 -53 67t-53 61.5t-49.5 51t-40.5 35.5q3 -18 4 -32.5t1 -31.5q0 -7 -1 -21t-2 -31.5t-3 -35.5t-5 -33q-38 -44 -87.5 -80.5t-100.5 -59.5
q-77 -37 -144.5 -46.5t-120.5 -9.5h-17q-14 0 -21 8.5t-7 21.5v200z" />
    <glyph glyph-name="uni06AB.fina" unicode="&#x6ab;" horiz-adv-x="1677" 
d="M936 1173q28 10 75 23.5t103 27.5t118 27.5t120.5 24t109 17t85.5 7.5l-43 -95q-23 -1 -67 -7t-99 -16.5t-116 -24t-118.5 -27.5t-105.5 -27t-76 -24zM1714 30q0 -13 -7.5 -21.5t-21.5 -8.5h-17q-32 0 -64 8.5t-64.5 28t-66 51t-67.5 78.5q-26 34 -53.5 67t-53 61.5
t-49 51t-40.5 35.5q3 -18 4 -32.5t1 -31.5q0 -7 -1 -21t-2 -31.5t-3.5 -35.5t-5.5 -33q-19 -22 -45.5 -45.5t-57.5 -46.5t-65 -41t-68 -29q-80 -26 -178.5 -35.5t-235.5 -9.5q-119 0 -207 14.5t-147 48t-88.5 86.5t-29.5 131q0 79 31 174.5t83 192.5q9 6 18 6q11 0 26 -8.5
t26 -24.5q-16 -30 -27 -55.5t-17.5 -47.5t-9 -42t-2.5 -40q0 -40 15 -70.5t59 -51t126 -31.5t217 -11t225.5 5.5t149 16t90 26t48.5 35.5q-12 37 -35 68t-65 60.5t-106.5 60.5t-160.5 68q0 47 3 97t7.5 96t10 83.5t11.5 58.5q39 16 97 35.5t127.5 39t145 38.5t149.5 34
t142.5 25t122.5 13l-102 -234q-38 1 -90 -2.5t-111.5 -11t-122 -18.5t-121 -24t-109 -27t-85.5 -29v-3q46 -11 97.5 -32.5t104.5 -49.5t106 -60.5t101.5 -67t90.5 -69.5t73 -67q92 -89 147 -127t86 -38h31q16 0 23 -8.5t7 -21.5v-200z" />
    <glyph glyph-name="uni06AC.init" unicode="&#x6ac;" horiz-adv-x="828" 
d="M808 1300l-117 -255q-88 -19 -274 -93t-290 -129q114 -33 223 -120.5t135 -164.5q0 -212 -27 -340q-106 -116 -200.5 -157t-249.5 -41h-17q-28 0 -28 30v200q0 30 30 30h69q261 0 325 82q-65 195 -362 311q0 222 35 340q120 77 378.5 184t369.5 123zM386 1404l-123 -121
l-131 113l124 120z" />
    <glyph glyph-name="uni06AC.medi" unicode="&#x6ac;" horiz-adv-x="932" 
d="M971 30q0 -30 -29 -30h-16q-138 0 -263 166q-121 161 -196 215q5 -37 5 -64q0 -59 -11 -121q-100 -109 -198 -152q-101 -44 -255 -44h-17q-28 0 -28 30v200q0 30 30 30h34q297 0 360 80q-66 198 -362 315q0 204 35 323q106 82 394 196q270 108 388 126l-114 -250
q-79 -14 -278 -91q-208 -79 -308 -136q125 -47 293 -175q148 -113 247 -223q148 -165 223 -165h36q30 0 30 -30v-200zM377 1404l-123 -121l-131 113l124 120z" />
    <glyph glyph-name="uni06AC.fina" unicode="&#x6ac;" horiz-adv-x="1379" 
d="M1416 30q0 -30 -29 -30h-17q-119 0 -198 142q-373 -196 -684 -196q-407 0 -407 310q0 164 121 380q12 6 21 6q28 0 50 -33q-63 -116 -63 -215q0 -189 362 -189q118 0 282.5 30t251.5 67q0 9 -1 28t-1 26q0 617 -88 739l179 190q52 -101 61 -374q-2 8 -2 -391
q0 -164 20 -214q19 -46 76 -46h36q30 0 30 -30v-200zM891 1009l-56 -171q-119 -4 -209 -51q39 -9 107 -50q63 -38 81 -60l-20 -166q-55 -45 -158 -78q-99 -32 -169 -32l47 144q128 0 217 41q-23 28 -82 58q-64 33 -122 41l20 168q62 43 185 97q115 52 159 59zM1241 1449
l-123 -121l-131 113l124 121z" />
    <glyph glyph-name="uni06AE.init" unicode="&#x6ae;" horiz-adv-x="828" 
d="M808 1300l-117 -255q-88 -19 -274 -93t-290 -129q114 -33 223 -120.5t135 -164.5q0 -212 -27 -340q-106 -116 -200.5 -157t-249.5 -41h-17q-28 0 -28 30v200q0 30 30 30h69q261 0 325 82q-65 195 -362 311q0 222 35 340q120 77 378.5 184t369.5 123zM384 -371l-124 120
l130 113l123 -121zM126 -367l-124 120l130 113l123 -122zM252 -596l-124 120l130 113l123 -121z" />
    <glyph glyph-name="uni06AE.medi" unicode="&#x6ae;" horiz-adv-x="932" 
d="M971 30q0 -30 -29 -30h-16q-138 0 -263 166q-121 161 -196 215q5 -37 5 -64q0 -59 -11 -121q-100 -109 -198 -152q-101 -44 -255 -44h-17q-28 0 -28 30v200q0 30 30 30h34q297 0 360 80q-66 198 -362 315q0 204 35 323q106 82 394 196q270 108 388 126l-114 -250
q-79 -14 -278 -91q-208 -79 -308 -136q125 -47 293 -175q148 -113 247 -223q148 -165 223 -165h36q30 0 30 -30v-200zM502 -371l-124 120l131 113l123 -121zM245 -367l-124 120l129 113l124 -122zM370 -596l-124 120l131 113l123 -121z" />
    <glyph glyph-name="uni06AE.fina" unicode="&#x6ae;" horiz-adv-x="1379" 
d="M1416 30q0 -30 -29 -30h-17q-119 0 -198 142q-373 -196 -684 -196q-407 0 -407 310q0 164 121 380q12 6 21 6q28 0 50 -33q-63 -116 -63 -215q0 -189 362 -189q118 0 282.5 30t251.5 67q0 9 -1 28t-1 26q0 617 -88 739l179 190q52 -101 61 -374q-2 8 -2 -391
q0 -164 20 -214q19 -46 76 -46h36q30 0 30 -30v-200zM891 1009l-56 -171q-119 -4 -209 -51q39 -9 107 -50q63 -38 81 -60l-20 -166q-55 -45 -158 -78q-99 -32 -169 -32l47 144q128 0 217 41q-23 28 -82 58q-64 33 -122 41l20 168q62 43 185 97q115 52 159 59zM765 -371
l-124 120l131 113l123 -121zM507 -367l-124 120l130 113l124 -122zM633 -596l-124 120l130 113l123 -121z" />
    <glyph glyph-name="uni06B0.init" unicode="&#x6b0;" horiz-adv-x="828" 
d="M187 1173q28 10 70 22.5t91.5 25.5t103.5 25t107.5 23t104 18.5t92.5 12.5l-43 -95q-37 -3 -83.5 -11t-98.5 -19t-105 -23t-101 -25.5t-87.5 -25.5t-64.5 -22zM510 867q-2 -1 -3 -1q-32 -26 -46 -97q29 -28 77 -28q39 0 74 22q-7 79 -102 104zM455 859q-26 -4 -53 -9
q-58 -10 -113 -22.5t-104 -25.5t-85 -28v-3q57 -17 117.5 -42t115 -57t96.5 -69t62 -76q0 -33 -3 -80t-7.5 -95t-10 -90.5t-9.5 -65.5q-54 -58 -103 -95.5t-101.5 -60t-112.5 -31.5t-136 -9h-17q-14 0 -21 8.5t-7 21.5v200q0 13 6.5 21.5t23.5 8.5h69q74 0 128.5 5.5
t93.5 16t64.5 26t41.5 35.5q-12 37 -34.5 68t-64 60.5t-106 60.5t-160.5 68q0 47 2.5 97t7 96t10 83.5t11.5 58.5q43 17 104 36.5t130.5 38.5t144 36.5t143.5 32t129 25.5t101 16l-103 -234q-30 -1 -70 -4q16 -35 19 -83q-4 -37 -12 -67.5t-19 -57.5q-23 -14 -47 -21t-49 -7
q-16 0 -34 2t-35 9q-19 6 -30 15t-20 18q2 62 17 108q11 34 30 61z" />
    <glyph glyph-name="uni06B0.medi" unicode="&#x6b0;" horiz-adv-x="932" 
d="M630 763q-7 80 -104 104q-33 -26 -46 -98q28 -28 76 -28q39 0 74 22zM193 1173q28 10 75 23.5t103.5 27.5t118.5 27.5t120 24t109 17t86 7.5l-43 -95q-23 -1 -67 -7t-99 -16.5t-116.5 -24t-118.5 -27.5t-105 -27t-76 -24zM477 863q-28 -4 -57 -9q-63 -11 -121 -24
t-108.5 -27t-85.5 -29v-3q45 -11 96.5 -32.5t104.5 -49.5t106 -60.5t101.5 -67t90.5 -69.5t73 -67q47 -44 83.5 -75.5t64 -51.5t48.5 -29t37 -9h31q17 0 23.5 -8.5t6.5 -21.5v-200q0 -13 -7 -21.5t-22 -8.5h-16q-32 0 -64.5 8.5t-64.5 28t-66 51t-68 78.5q-26 34 -53 67
t-53 61.5t-49.5 51t-40.5 35.5q3 -18 4 -32.5t1 -31.5q0 -7 -1 -21t-2 -31.5t-3 -35.5t-5 -33q-38 -44 -87.5 -80.5t-100.5 -59.5q-77 -37 -144.5 -46.5t-120.5 -9.5h-17q-14 0 -21 8.5t-7 21.5v200q0 13 6.5 21.5t23.5 8.5h34q150 0 241 21t128 62q-12 37 -35 68
t-64.5 60.5t-106 60.5t-160.5 68q0 47 3 97t7 96t10 83.5t12 58.5q39 16 97 35.5t127 39t145 38.5t149.5 34t142 25t123.5 13l-103 -234q-38 1 -89 -2h-1q16 -35 20 -85q-5 -37 -13 -67.5t-19 -57.5q-23 -14 -47 -21t-49 -7q-16 0 -34 2t-35 9q-18 6 -29.5 15t-19.5 18
q2 62 16 108q12 37 34 65z" />
    <glyph glyph-name="uni06B0.fina" unicode="&#x6b0;" horiz-adv-x="1677" 
d="M1357 763q-6 80 -104 104q-32 -26 -46 -98q28 -28 77 -28q39 0 73 22zM936 1173q28 10 75 23.5t103 27.5t118 27.5t120.5 24t109 17t85.5 7.5l-43 -95q-23 -1 -67 -7t-99 -16.5t-116 -24t-118.5 -27.5t-105.5 -27t-76 -24zM1202 860l-40 -6q-62 -11 -120.5 -24t-109 -27
t-85.5 -29v-3q46 -11 97.5 -32.5t104.5 -49.5t106 -60.5t101.5 -67t90.5 -69.5t73 -67q92 -89 147 -127t86 -38h31q16 0 23 -8.5t7 -21.5v-200q0 -13 -7.5 -21.5t-21.5 -8.5h-17q-32 0 -64 8.5t-64.5 28t-66 51t-67.5 78.5q-26 34 -53.5 67t-53 61.5t-49 51t-40.5 35.5
q3 -18 4 -32.5t1 -31.5q0 -7 -1 -21t-2 -31.5t-3.5 -35.5t-5.5 -33q-19 -22 -45.5 -45.5t-57.5 -46.5t-65 -41t-68 -29q-80 -26 -178.5 -35.5t-235.5 -9.5q-119 0 -207 14.5t-147 48t-88.5 86.5t-29.5 131q0 79 31 174.5t83 192.5q9 6 18 6q11 0 26 -8.5t26 -24.5
q-16 -30 -27 -55.5t-17.5 -47.5t-9 -42t-2.5 -40q0 -40 15 -70.5t59 -51t126 -31.5t217 -11t225.5 5.5t149 16t90 26t48.5 35.5q-12 37 -35 68t-65 60.5t-106.5 60.5t-160.5 68q0 47 3 97t7.5 96t10 83.5t11.5 58.5q39 16 97 35.5t127.5 39t145 38.5t149.5 34t142.5 25
t122.5 13l-102 -234q-38 1 -90 -2q-8 -1 -15 -1q16 -35 19 -84q-4 -37 -12.5 -67.5t-19.5 -57.5q-22 -14 -46.5 -21t-48.5 -7q-17 0 -34.5 2t-35.5 9q-18 6 -29.5 15t-19.5 18q2 62 17 108q11 35 31 62z" />
    <glyph glyph-name="uni06B2.init" unicode="&#x6b2;" horiz-adv-x="828" 
d="M187 1173q28 10 70 22.5t91.5 25.5t103.5 25t107.5 23t104 18.5t92.5 12.5l-43 -95q-37 -3 -83.5 -11t-98.5 -19t-105 -23t-101 -25.5t-87.5 -25.5t-64.5 -22zM-37 230q0 13 6.5 21.5t23.5 8.5h69q74 0 128.5 5.5t93.5 16t64.5 26t41.5 35.5q-12 37 -34.5 68t-64 60.5
t-106 60.5t-160.5 68q0 47 2.5 97t7 96t10 83.5t11.5 58.5q43 17 104 36.5t130.5 38.5t144 36.5t143.5 32t129 25.5t101 16l-103 -234q-36 -1 -85 -5.5t-104.5 -12.5t-113.5 -18t-113 -22.5t-104 -25.5t-85 -28v-3q57 -17 117.5 -42t115 -57t96.5 -69t62 -76q0 -33 -3 -80
t-7.5 -95t-10 -90.5t-9.5 -65.5q-54 -58 -103 -95.5t-101.5 -60t-112.5 -31.5t-136 -9h-17q-14 0 -21 8.5t-7 21.5v200zM384 -371l-124 120l130 113l123 -121zM126 -367l-124 120l130 113l123 -122z" />
    <glyph glyph-name="uni06B2.medi" unicode="&#x6b2;" horiz-adv-x="932" 
d="M193 1173q28 10 75 23.5t103.5 27.5t118.5 27.5t120 24t109 17t86 7.5l-43 -95q-23 -1 -67 -7t-99 -16.5t-116.5 -24t-118.5 -27.5t-105 -27t-76 -24zM-37 230q0 13 6.5 21.5t23.5 8.5h34q150 0 241 21t128 62q-12 37 -35 68t-64.5 60.5t-106 60.5t-160.5 68q0 47 3 97
t7 96t10 83.5t12 58.5q39 16 97 35.5t127 39t145 38.5t149.5 34t142 25t123.5 13l-103 -234q-38 1 -90 -2.5t-111.5 -11t-122 -18.5t-120.5 -24t-108.5 -27t-85.5 -29v-3q45 -11 96.5 -32.5t104.5 -49.5t106 -60.5t101.5 -67t90.5 -69.5t73 -67q47 -44 83.5 -75.5t64 -51.5
t48.5 -29t37 -9h31q17 0 23.5 -8.5t6.5 -21.5v-200q0 -13 -7 -21.5t-22 -8.5h-16q-32 0 -64.5 8.5t-64.5 28t-66 51t-68 78.5q-26 34 -53 67t-53 61.5t-49.5 51t-40.5 35.5q3 -18 4 -32.5t1 -31.5q0 -7 -1 -21t-2 -31.5t-3 -35.5t-5 -33q-38 -44 -87.5 -80.5t-100.5 -59.5
q-77 -37 -144.5 -46.5t-120.5 -9.5h-17q-14 0 -21 8.5t-7 21.5v200zM393 -371l-124 120l130 113l123 -121zM135 -367l-124 120l130 113l124 -122z" />
    <glyph glyph-name="uni06B2.fina" unicode="&#x6b2;" horiz-adv-x="1677" 
d="M936 1173q28 10 75 23.5t103 27.5t118 27.5t120.5 24t109 17t85.5 7.5l-43 -95q-23 -1 -67 -7t-99 -16.5t-116 -24t-118.5 -27.5t-105.5 -27t-76 -24zM1714 30q0 -13 -7.5 -21.5t-21.5 -8.5h-17q-32 0 -64 8.5t-64.5 28t-66 51t-67.5 78.5q-26 34 -53.5 67t-53 61.5
t-49 51t-40.5 35.5q3 -18 4 -32.5t1 -31.5q0 -7 -1 -21t-2 -31.5t-3.5 -35.5t-5.5 -33q-19 -22 -45.5 -45.5t-57.5 -46.5t-65 -41t-68 -29q-80 -26 -178.5 -35.5t-235.5 -9.5q-119 0 -207 14.5t-147 48t-88.5 86.5t-29.5 131q0 79 31 174.5t83 192.5q9 6 18 6q11 0 26 -8.5
t26 -24.5q-16 -30 -27 -55.5t-17.5 -47.5t-9 -42t-2.5 -40q0 -40 15 -70.5t59 -51t126 -31.5t217 -11t225.5 5.5t149 16t90 26t48.5 35.5q-12 37 -35 68t-65 60.5t-106.5 60.5t-160.5 68q0 47 3 97t7.5 96t10 83.5t11.5 58.5q39 16 97 35.5t127.5 39t145 38.5t149.5 34
t142.5 25t122.5 13l-102 -234q-38 1 -90 -2.5t-111.5 -11t-122 -18.5t-121 -24t-109 -27t-85.5 -29v-3q46 -11 97.5 -32.5t104.5 -49.5t106 -60.5t101.5 -67t90.5 -69.5t73 -67q92 -89 147 -127t86 -38h31q16 0 23 -8.5t7 -21.5v-200zM783 -371l-123 120l130 113l123 -121z
M526 -367l-124 120l129 113l124 -122z" />
    <glyph glyph-name="uni06B4.init" unicode="&#x6b4;" horiz-adv-x="828" 
d="M187 1173q28 10 70 22.5t91.5 25.5t103.5 25t107.5 23t104 18.5t92.5 12.5l-43 -95q-37 -3 -83.5 -11t-98.5 -19t-105 -23t-101 -25.5t-87.5 -25.5t-64.5 -22zM-37 230q0 13 6.5 21.5t23.5 8.5h69q74 0 128.5 5.5t93.5 16t64.5 26t41.5 35.5q-12 37 -34.5 68t-64 60.5
t-106 60.5t-160.5 68q0 47 2.5 97t7 96t10 83.5t11.5 58.5q43 17 104 36.5t130.5 38.5t144 36.5t143.5 32t129 25.5t101 16l-103 -234q-36 -1 -85 -5.5t-104.5 -12.5t-113.5 -18t-113 -22.5t-104 -25.5t-85 -28v-3q57 -17 117.5 -42t115 -57t96.5 -69t62 -76q0 -33 -3 -80
t-7.5 -95t-10 -90.5t-9.5 -65.5q-54 -58 -103 -95.5t-101.5 -60t-112.5 -31.5t-136 -9h-17q-14 0 -21 8.5t-7 21.5v200zM518 1443l-123 -121l-130 113l123 120zM386 1668l-123 -121l-131 113l124 120zM260 1440l-124 -122l-129 113l124 120z" />
    <glyph glyph-name="uni06B4.medi" unicode="&#x6b4;" horiz-adv-x="932" 
d="M193 1173q28 10 75 23.5t103.5 27.5t118.5 27.5t120 24t109 17t86 7.5l-43 -95q-23 -1 -67 -7t-99 -16.5t-116.5 -24t-118.5 -27.5t-105 -27t-76 -24zM-37 230q0 13 6.5 21.5t23.5 8.5h34q150 0 241 21t128 62q-12 37 -35 68t-64.5 60.5t-106 60.5t-160.5 68q0 47 3 97
t7 96t10 83.5t12 58.5q39 16 97 35.5t127 39t145 38.5t149.5 34t142 25t123.5 13l-103 -234q-38 1 -90 -2.5t-111.5 -11t-122 -18.5t-120.5 -24t-108.5 -27t-85.5 -29v-3q45 -11 96.5 -32.5t104.5 -49.5t106 -60.5t101.5 -67t90.5 -69.5t73 -67q47 -44 83.5 -75.5t64 -51.5
t48.5 -29t37 -9h31q17 0 23.5 -8.5t6.5 -21.5v-200q0 -13 -7 -21.5t-22 -8.5h-16q-32 0 -64.5 8.5t-64.5 28t-66 51t-68 78.5q-26 34 -53 67t-53 61.5t-49.5 51t-40.5 35.5q3 -18 4 -32.5t1 -31.5q0 -7 -1 -21t-2 -31.5t-3 -35.5t-5 -33q-38 -44 -87.5 -80.5t-100.5 -59.5
q-77 -37 -144.5 -46.5t-120.5 -9.5h-17q-14 0 -21 8.5t-7 21.5v200zM518 1443l-123 -121l-130 113l123 120zM386 1668l-123 -121l-131 113l124 120zM260 1440l-124 -122l-129 113l124 120z" />
    <glyph glyph-name="uni06B4.fina" unicode="&#x6b4;" horiz-adv-x="1677" 
d="M936 1173q28 10 75 23.5t103 27.5t118 27.5t120.5 24t109 17t85.5 7.5l-43 -95q-23 -1 -67 -7t-99 -16.5t-116 -24t-118.5 -27.5t-105.5 -27t-76 -24zM1714 30q0 -13 -7.5 -21.5t-21.5 -8.5h-17q-32 0 -64 8.5t-64.5 28t-66 51t-67.5 78.5q-26 34 -53.5 67t-53 61.5
t-49 51t-40.5 35.5q3 -18 4 -32.5t1 -31.5q0 -7 -1 -21t-2 -31.5t-3.5 -35.5t-5.5 -33q-19 -22 -45.5 -45.5t-57.5 -46.5t-65 -41t-68 -29q-80 -26 -178.5 -35.5t-235.5 -9.5q-119 0 -207 14.5t-147 48t-88.5 86.5t-29.5 131q0 79 31 174.5t83 192.5q9 6 18 6q11 0 26 -8.5
t26 -24.5q-16 -30 -27 -55.5t-17.5 -47.5t-9 -42t-2.5 -40q0 -40 15 -70.5t59 -51t126 -31.5t217 -11t225.5 5.5t149 16t90 26t48.5 35.5q-12 37 -35 68t-65 60.5t-106.5 60.5t-160.5 68q0 47 3 97t7.5 96t10 83.5t11.5 58.5q39 16 97 35.5t127.5 39t145 38.5t149.5 34
t142.5 25t122.5 13l-102 -234q-38 1 -90 -2.5t-111.5 -11t-122 -18.5t-121 -24t-109 -27t-85.5 -29v-3q46 -11 97.5 -32.5t104.5 -49.5t106 -60.5t101.5 -67t90.5 -69.5t73 -67q92 -89 147 -127t86 -38h31q16 0 23 -8.5t7 -21.5v-200zM1300 1443l-123 -121l-130 113l124 120
zM1168 1668l-123 -121l-130 113l123 120zM1042 1440l-124 -122l-129 113l124 120z" />
    <glyph glyph-name="uni06B5.init" unicode="&#x6b5;" horiz-adv-x="414" 
d="M368 1011q-19 -7 -38 -7t-39 7q12 -125 12 -690q-33 -143 -106 -231q-74 -90 -165 -90h-41q-28 0 -28 30v200q0 30 30 30h34q101 0 136 64q0 555 -102 810l169 151q15 -41 63 -137q50 -101 75 -137zM357 1645h80l-172 -254h-136l-174 254h81l161 -138z" />
    <glyph glyph-name="uni06B5.medi" unicode="&#x6b5;" horiz-adv-x="414" 
d="M452 30q0 -30 -28 -30h-17q-186 0 -188 224h-4q-10 -123 -61 -175q-47 -49 -146 -49h-17q-28 0 -28 30v200q0 30 30 30h34q82 0 114 50q0 663 -89 785l180 190q52 -101 61 -392q-2 -4 -2 -410q0 -142 26 -190q20 -33 70 -33h35q30 0 30 -30v-200zM366 1645h80l-172 -254
h-136l-174 254h81l161 -138z" />
    <glyph glyph-name="uni06B5.fina" unicode="&#x6b5;" horiz-adv-x="1055" 
d="M1093 30q0 -30 -28 -30h-18q-103 0 -144 110h-4q0 -131 -60 -299q-99 -84 -224 -141q-143 -64 -263 -64q-139 0 -217 78q-67 66 -67 165q0 190 110 450q41 0 68 -27q-15 -33 -31 -104q-18 -80 -18 -123q0 -82 55.5 -130.5t155.5 -48.5q186 0 365 108q8 224 8 382
q0 618 -90 739l180 190q52 -100 62 -392q0 4 0 -410q0 -146 19 -187q17 -36 75 -36h36q30 0 30 -30v-200zM975 1645h81l-173 -254h-135l-174 254h81l161 -138z" />
    <glyph glyph-name="uni06B6.init" unicode="&#x6b6;" horiz-adv-x="414" 
d="M367 1011q-19 -7 -37 -7q-19 0 -39 7q12 -125 12 -690q-33 -143 -106 -231q-75 -90 -165 -90h-41q-28 0 -28 30v200q0 30 30 30h34q101 0 136 64q0 555 -103 810l170 151q15 -41 63 -137q50 -101 74 -137zM340 1486l-123 -121l-130 113l124 120z" />
    <glyph glyph-name="uni06B6.medi" unicode="&#x6b6;" horiz-adv-x="414" 
d="M452 30q0 -30 -28 -30h-17q-186 0 -188 224h-4q-10 -123 -61 -175q-47 -49 -146 -49h-17q-28 0 -28 30v200q0 30 30 30h34q82 0 114 50q0 663 -89 785l180 190q52 -101 61 -392q-2 -4 -2 -410q0 -142 26 -190q20 -33 70 -33h35q30 0 30 -30v-200zM340 1477l-123 -121
l-130 113l124 120z" />
    <glyph glyph-name="uni06B6.fina" unicode="&#x6b6;" horiz-adv-x="1055" 
d="M1093 30q0 -30 -28 -30h-18q-103 0 -144 110h-4q0 -131 -60 -299q-99 -84 -224 -141q-143 -64 -263 -64q-139 0 -217 78q-67 66 -67 165q0 190 110 450q41 0 68 -27q-15 -33 -31 -104q-18 -80 -18 -123q0 -82 55.5 -130.5t155.5 -48.5q186 0 365 108q8 224 8 382
q0 618 -90 739l180 190q52 -100 62 -392q0 4 0 -410q0 -146 19 -187q17 -36 75 -36h36q30 0 30 -30v-200zM923 1486l-123 -121l-131 113l124 120z" />
    <glyph glyph-name="uni06B7.init" unicode="&#x6b7;" horiz-adv-x="414" 
d="M367 1011q-19 -7 -37 -7q-19 0 -39 7q12 -125 12 -690q-33 -143 -106 -231q-75 -90 -165 -90h-41q-28 0 -28 30v200q0 30 30 30h34q101 0 135 64q0 555 -102 810l170 151q14 -41 63 -137q50 -101 74 -137zM472 1489l-123 -122l-130 113l124 121zM340 1714l-123 -122
l-130 113l124 121zM214 1486l-124 -122l-129 113l124 120z" />
    <glyph glyph-name="uni06B7.medi" unicode="&#x6b7;" horiz-adv-x="414" 
d="M452 30q0 -30 -28 -30h-18q-185 0 -187 224h-4q-10 -123 -61 -175q-47 -49 -147 -49h-16q-28 0 -28 30v200q0 30 30 30h34q82 0 113 50q0 663 -88 785l180 190q52 -101 61 -392q-2 -4 -2 -410q0 -142 26 -190q19 -33 69 -33h36q30 0 30 -30v-200zM472 1489l-123 -122
l-130 113l124 121zM340 1714l-123 -122l-130 113l124 121zM214 1486l-124 -122l-129 113l124 120z" />
    <glyph glyph-name="uni06B7.fina" unicode="&#x6b7;" horiz-adv-x="1055" 
d="M1093 30q0 -30 -28 -30h-18q-103 0 -144 110h-4q0 -131 -60 -299q-99 -84 -224 -141q-143 -64 -263 -64q-139 0 -217 78q-67 66 -67 165q0 190 110 450q41 0 68 -27q-15 -33 -31 -104q-18 -80 -18 -123q0 -82 55.5 -130.5t155.5 -48.5q186 0 365 108q8 224 8 382
q0 618 -90 739l180 190q52 -100 62 -392q0 4 0 -410q0 -146 19 -187q17 -36 75 -36h36q30 0 30 -30v-200zM1055 1489l-123 -122l-131 113l124 121zM923 1714l-123 -122l-131 113l124 121zM797 1486l-124 -122l-129 113l123 120z" />
    <glyph glyph-name="uni06B8.init" unicode="&#x6b8;" horiz-adv-x="547" 
d="M477 1011q-19 -7 -38 -7t-39 7q12 -125 12 -690q-33 -143 -106 -231q-74 -90 -165 -90h-141q-28 0 -28 30v200q0 30 30 30h134q101 0 136 64q0 555 -102 810l169 151q15 -41 63 -137q50 -101 75 -137zM402 -371l-124 120l130 113l123 -121zM144 -367l-124 120l130 113
l124 -122zM270 -596l-124 120l130 113l123 -121z" />
    <glyph glyph-name="uni06B8.medi" unicode="&#x6b8;" horiz-adv-x="553" 
d="M589 30q0 -30 -28 -30h-18q-186 0 -187 224h-4q-10 -123 -61 -175q-47 -49 -147 -49h-153q-28 0 -28 30v200q0 30 30 30h170q82 0 114 50q0 663 -88 785l179 190q52 -101 61 -392q-1 -4 -1 -410q0 -142 26 -190q19 -33 69 -33h36q30 0 30 -30v-200zM402 -371l-124 120
l130 113l123 -121zM144 -367l-124 120l130 113l124 -122zM270 -596l-124 120l130 113l123 -121z" />
    <glyph glyph-name="uni06B8.fina" unicode="&#x6b8;" horiz-adv-x="1055" 
d="M1093 30q0 -30 -28 -30h-18q-103 0 -144 110h-4q0 -131 -60 -299q-99 -84 -224 -141q-143 -64 -263 -64q-139 0 -217 78q-67 66 -67 165q0 190 110 450q41 0 68 -27q-15 -33 -31 -104q-18 -80 -18 -123q0 -82 55.5 -130.5t155.5 -48.5q186 0 365 108q8 224 8 382
q0 618 -90 739l180 190q52 -100 62 -392q0 4 0 -410q0 -146 19 -187q17 -36 75 -36h36q30 0 30 -30v-200zM192 -619l123 122l130 -113l-124 -121zM324 -844l123 122l130 -113l-124 -121zM450 -616l124 122l129 -113l-124 -120z" />
    <glyph glyph-name="uni06B9.init" unicode="&#x6b9;" horiz-adv-x="493" 
d="M403 452q-7 -53 -40 -160q-34 -111 -57 -154q-116 -138 -298 -138h-17q-28 0 -28 30v200q0 30 30 30h36q158 0 233 59q-34 114 -116 199l145 200q37 -47 70.5 -128t41.5 -138zM423 983l-161 -141l-155 145l160 140zM414 -292l-161 -142l-155 145l160 141z" />
    <glyph glyph-name="uni06B9.medi" unicode="&#x6b9;" horiz-adv-x="518" 
d="M556 30q0 -30 -27 -30h-18q-216 0 -247 244h-4q-39 -244 -252 -244h-17q-28 0 -28 30v200q0 30 30 30h34q183 0 205 238q13 9 32 9q22 0 41 -9q0 -238 186 -238h36q29 0 29 -30v-200zM423 883l-161 -141l-155 144l160 141zM410 -301l-161 -141l-155 145l161 140z" />
    <glyph glyph-name="uni06B9.fina" unicode="&#x6b9;" horiz-adv-x="1232" 
d="M1269 30q0 -30 -28 -30h-16q-63 0 -109 52q0 -52 -18 -170q-19 -124 -37 -181q-114 -119 -279 -183q-156 -61 -322 -61q-220 0 -328 101q-87 83 -87 218q0 97 58 238q60 145 153 264q34 0 58 -34q-65 -110 -87.5 -173t-22.5 -137q0 -217 323 -217q148 0 293 54
q121 45 193 108q-9 105 -60.5 211t-113.5 149l100 258q84 -138 143 -189q54 -48 122 -48h35q30 0 30 -30v-200zM780 655l-161 -141l-155 145l160 140zM775 -847l-162 -141l-154 144l160 141z" />
    <glyph glyph-name="uni06BC.init" unicode="&#x6bc;" horiz-adv-x="529" 
d="M183 19l-20 -6q-39 -39 -56 -131q41 -41 110 -41q56 0 104 33q-8 110 -138 145zM91 1q-10 -1 -20 -1h-80q-28 0 -28 30v200q0 30 30 30h107q123 0 199 59q-33 111 -117 199l145 200q87 -112 113 -266q-7 -54 -40 -160q-34 -111 -58 -154q-15 -18 -31 -33q5 -6 10 -10
q54 -57 62 -171q-7 -52 -18.5 -96t-27.5 -82q-32 -18 -66.5 -29t-68.5 -11q-24 0 -50 3t-50 12q-26 10 -42 22.5t-28 24.5q2 89 24 155q14 43 35 78zM423 983l-161 -141l-155 145l160 140z" />
    <glyph glyph-name="uni06BC.medi" unicode="&#x6bc;" horiz-adv-x="726" 
d="M207 8q-29 -5 -63 -7q-32 -40 -46 -119q41 -41 110 -41q56 0 104 33q-7 95 -105 134zM82 0h-91q-28 0 -28 30v200q0 30 30 30h134q130 0 187 55t63 183q21 9 37 9q23 0 39 -9q-4 -128 50.5 -183t190.5 -55h35q30 0 30 -30v-200q0 -30 -28 -30h-16q-155 0 -223 60
q-61 54 -80 184h-4q-25 -119 -76 -175q35 -54 42 -145q-7 -52 -18.5 -96t-27.5 -82q-32 -18 -66.5 -29t-68.5 -11q-24 0 -50 3t-50 12q-26 10 -42 22.5t-28 24.5q2 89 24 155q13 42 35 77zM551 883l-162 -141l-155 144l161 141z" />
    <glyph glyph-name="uni06BC.fina" unicode="&#x6bc;" horiz-adv-x="1232" 
d="M780 655l-161 -141l-155 145l160 140zM604 -531q-16 -3 -34 -5q-38 -40 -54 -129q41 -40 110 -40q56 0 104 33q-7 104 -126 141zM503 -542q-22 -1 -43 -1q-220 0 -328 101q-87 83 -87 218q0 97 58 238q60 145 153 264q34 0 58 -34q-65 -110 -87.5 -173t-22.5 -137
q0 -217 323 -217q148 0 293 54q121 45 193 108q-9 105 -60.5 211t-113.5 149l100 258q84 -138 143 -189q54 -48 122 -48h35q30 0 30 -30v-200q0 -30 -28 -30h-16q-63 0 -109 52q0 -52 -18 -170q-19 -124 -37 -181q-114 -119 -279 -183q-12 -4 -24 -9q29 -51 34 -131
q-7 -53 -18.5 -97t-27.5 -82q-32 -18 -66.5 -29t-68.5 -11q-24 0 -50 3t-50 13q-26 10 -42 22t-28 24q2 89 24 156q14 44 38 81z" />
    <glyph glyph-name="uni06BD.init" unicode="&#x6bd;" horiz-adv-x="581" 
d="M440 452q-7 -54 -40 -160q-34 -111 -58 -154q-115 -138 -271 -138h-80q-28 0 -28 30v200q0 30 30 30h107q123 0 199 59q-33 111 -117 199l145 200q87 -112 113 -266zM554 933l-123 -121l-130 113l124 120zM296 930l-123 -122l-130 113l124 120zM422 1158l-123 -121
l-130 113l124 120z" />
    <glyph glyph-name="uni06BD.medi" unicode="&#x6bd;" horiz-adv-x="621" 
d="M659 30q0 -30 -28 -30h-17q-154 0 -222 60q-61 54 -80 184h-4q-28 -133 -88 -186q-67 -58 -212 -58h-17q-28 0 -28 30v200q0 30 30 30h34q130 0 187 55t62 183q22 9 38 9q23 0 39 -9q-5 -128 50 -183t190 -55h36q30 0 30 -30v-200zM569 803l-123 -122l-130 113l123 121z
M311 800l-124 -122l-129 113l124 120zM437 1028l-123 -122l-131 113l124 121z" />
    <glyph glyph-name="uni06BD.fina" unicode="&#x6bd;" horiz-adv-x="1232" 
d="M1269 30q0 -30 -28 -30h-16q-63 0 -109 52q0 -52 -18 -170q-19 -124 -37 -181q-114 -119 -279 -183q-156 -61 -322 -61q-220 0 -328 101q-87 83 -87 218q0 97 58 238q60 145 153 264q34 0 58 -34q-65 -110 -87.5 -173t-22.5 -137q0 -217 323 -217q148 0 293 54
q121 45 193 108q-9 105 -60.5 211t-113.5 149l100 258q84 -138 143 -189q54 -48 122 -48h35q30 0 30 -30v-200zM879 640l-123 -122l-131 113l124 121zM621 637l-124 -122l-129 113l123 120zM746 865l-122 -122l-131 113l124 121z" />
    <glyph glyph-name="uni06BF.init" unicode="&#x6bf;" horiz-adv-x="1032" 
d="M857 157q-49 14 -87.5 18t-80.5 4q-24 0 -53 -5t-61 -15t-65 -21.5t-66 -25.5q-58 -25 -119.5 -45.5t-120 -35.5t-109.5 -23t-87 -8h-17q-14 0 -21 8.5t-7 21.5v200q0 13 6.5 21.5t23.5 8.5h157q61 0 120.5 5t112 12.5t94.5 16.5t68 18q-24 13 -50.5 29t-53.5 34
t-53.5 36.5t-49.5 36.5q-64 48 -98 65t-42 17q-9 0 -19 -4.5t-23.5 -19.5t-32.5 -42.5t-44 -73.5q-13 0 -28.5 8.5t-25.5 23.5q47 108 84 173t65.5 100t50 46t39.5 11q12 0 26.5 -4t41 -20t71 -49t116.5 -91q63 -51 111 -87.5t87.5 -61t71.5 -39t63 -21.5t63.5 -9.5
t71.5 -2.5zM596 -333l-124 121l131 113l123 -121zM338 -329l-124 120l130 113l124 -122zM464 -558l-124 121l130 113l123 -121zM600 1055l-161 -141l-155 145l160 140z" />
    <glyph glyph-name="uni06BF.medi" unicode="&#x6bf;" horiz-adv-x="1244" 
d="M1103 424q-25 0 -56 -4t-61 -10t-56 -12.5t-40 -13.5q11 -31 34.5 -55t62.5 -39.5t95.5 -22.5t134.5 -7h35q17 0 23.5 -8.5t6.5 -21.5v-200q0 -13 -6.5 -21.5t-21.5 -8.5h-16q-67 0 -130 14.5t-117.5 53.5t-99 106t-73.5 171q-27 -13 -59.5 -33.5t-68.5 -45t-72.5 -50.5
t-70.5 -50q-63 -45 -125 -76.5t-127 -51.5t-136 -29t-151 -9h-17q-14 0 -21 8.5t-7 21.5v200q0 13 6.5 21.5t23.5 8.5h160q78 0 146 11.5t129.5 32.5t118 51t110.5 67q-19 4 -49 13.5t-64.5 21.5t-71.5 26l-69 25q-33 13 -58.5 23.5t-38.5 16.5q-9 4 -21 7.5t-23.5 6.5
t-20.5 4.5t-13 1.5q-14 0 -27.5 -6t-28 -22t-30.5 -44.5t-35 -73.5q-17 0 -34.5 6t-27.5 20q45 116 76.5 186.5t57 109.5t47.5 51.5t47 12.5q12 0 27.5 -4t43 -15.5t70 -31.5t107.5 -52q108 -55 190 -78.5t131 -23.5q42 0 91 4.5t98 11.5t94.5 16t80.5 18zM584 -544
l-124 120l131 113l123 -121zM716 -319l-123 120l130 113l123 -121zM459 -315l-124 120l129 113l124 -122zM755 1073l-162 -141l-154 145l160 140z" />
    <glyph glyph-name="uni06BF.fina" unicode="&#x6bf;" horiz-adv-x="1244" 
d="M1065 438q-65 -1 -112.5 0t-76.5 4q13 -55 30 -90t52.5 -55.5t96.5 -28.5t161 -8h36q17 0 23.5 -8.5t6.5 -21.5v-200q0 -13 -7 -21.5t-22 -8.5h-16q-97 0 -173.5 26t-132 79.5t-90.5 137.5t-49 200q-61 -22 -122.5 -51.5t-118.5 -65.5t-107.5 -78t-87.5 -87t-58.5 -94
t-21.5 -99q0 -69 29.5 -130.5t99.5 -107.5t187.5 -73t292.5 -27q50 0 99 1t93 3t80 4t61 6l-75 -123q-99 -29 -251.5 -46.5t-343.5 -17.5q-133 0 -227 33.5t-154.5 89.5t-88.5 129t-28 153t35.5 159.5t107 155t178 146t248.5 133.5v3q-17 2 -46 8t-59 12.5t-56 13t-38 10.5
q-9 3 -24.5 6.5t-31 6t-29 4.5t-16.5 2q-17 0 -31 -5t-28.5 -20.5t-29.5 -45.5t-32 -79q-17 0 -36.5 6t-29.5 16q36 88 62.5 149.5t46.5 102.5t35 64.5t27.5 35.5t23 14.5t22.5 2.5q37 0 84.5 -17t114.5 -37.5t158.5 -38t217.5 -17.5q106 0 176.5 5t93.5 10zM755 -61
l-124 120l131 113l123 -121zM497 -57l-124 120l130 113l124 -122zM623 -286l-124 120l130 113l123 -121zM818 1055l-161 -141l-155 145l160 140z" />
    <glyph glyph-name="uni06C2.fina" unicode="&#x6c2;" horiz-adv-x="789" 
d="M826 30q0 -13 -6.5 -21.5t-21.5 -8.5h-9q-77 0 -127.5 25.5t-83.5 71t-52.5 107.5t-33.5 135q-147 -44 -237 -107.5t-135 -144.5l-39 17l66 281q65 71 165 123t238 91q13 -91 31 -155t45.5 -105t64.5 -60t88 -19h17q17 0 23.5 -8.5t6.5 -21.5v-200zM511 823
q-95 -24 -168.5 -54.5t-116.5 -66.5v98l35 30q-20 15 -32.5 35.5t-12.5 43.5q0 28 17 49t51 53q29 29 58.5 45t65.5 16q29 0 55 -16.5t42 -45.5l-70 -67q-15 21 -32 30t-38 9q-15 0 -29.5 -7t-25.5 -21q2 -22 21.5 -41t45.5 -30q42 13 84.5 25t76.5 19z" />
    <glyph glyph-name="uni06C3.fina" unicode="&#x6c3;" horiz-adv-x="789" 
d="M826 30q0 -13 -6.5 -21.5t-21.5 -8.5h-9q-77 0 -127.5 25.5t-83.5 71t-52.5 107.5t-33.5 135q-147 -44 -237 -107.5t-135 -144.5l-39 17l66 281q65 71 165 123t238 91q13 -91 31 -155t45.5 -105t64.5 -60t88 -19h17q17 0 23.5 -8.5t6.5 -21.5v-200zM647 910l-131 -131
l-136 121l130 129zM375 906l-130 -131l-137 121l131 130z" />
    <glyph glyph-name="uni06C4.fina" unicode="&#x6c4;" horiz-adv-x="756" 
d="M540 231q-14 63 -65 114q-56 55 -127 61q-29 -15 -51 -56t-22 -79q84 -56 183 -56q52 0 82 16zM296 -288q32 21 61 44q-6 43 -59 95q-41 -9 -71 -51q-22 -36 -22 -80q44 -24 91 -8zM389 -219q4 3 8 7q138 116 165 212h-86q-219 0 -330 101q0 169 70 309q67 134 173 193
q243 -22 287 -343h88q29 0 29 -30v-200q0 -30 -27 -30h-85q-5 -101 -87.5 -259t-195.5 -284q-74 0 -182 32q-112 33 -189 80q99 42 185 91q-1 0 -2 1q-30 27 -52.5 52.5t-38.5 50.5q1 28 8.5 53.5t22.5 47.5q10 15 22.5 29.5t28.5 26.5t31 17t26 6q55 -38 88 -78
q31 -40 43 -85z" />
    <glyph glyph-name="uni06CA.fina" unicode="&#x6ca;" horiz-adv-x="756" 
d="M793 30q0 -30 -27 -30h-85q-5 -101 -87.5 -259t-195.5 -284q-74 0 -182 32q-112 33 -189 80q219 92 370 219q138 116 165 212h-86q-219 0 -330 101q0 169 70 309q67 134 173 193q243 -22 287 -343h88q29 0 29 -30v-200zM540 231q-14 63 -65 114q-56 55 -127 61
q-29 -15 -51 -56t-22 -79q84 -56 183 -56q52 0 82 16zM678 846l-123 -121l-130 113l124 120zM421 844l-124 -122l-130 113l124 120z" />
    <glyph glyph-name="uni06CD.fina" unicode="&#x6cd;" horiz-adv-x="1401" 
d="M403 201q36 0 60 -35q-89 -151 -89 -265q0 -203 342 -203q97 0 275 16q164 15 209 25q-7 28 -121 58q-126 33 -174 80q55 394 247 394q43 0 115 -5.5t104 -5.5h36q30 0 30 -30v-200q0 -30 -28 -30h-17q-47 0 -155.5 28t-132.5 28q-66 0 -94 -67q49 -29 121 -46
q125 -31 181 -94q-2 -53 -31 -144q-30 -94 -59 -132q-117 -41 -293 -76q-200 -40 -334 -40q-372 0 -372 278q0 86 51 224q6 14 11 27q-62 -28 -228 -107v165q218 104 346 157z" />
    <glyph glyph-name="uni06CE.init" unicode="&#x6ce;" horiz-adv-x="590" 
d="M440 452q-7 -54 -40 -160q-34 -111 -58 -154q-115 -138 -271 -138h-80q-28 0 -28 30v200q0 30 30 30h107q123 0 199 59q-33 111 -117 199l145 200q87 -112 113 -266zM563 -276l-130 -131l-137 121l131 129zM292 -280l-130 -131l-137 121l130 130zM420 1096h81l-173 -254
h-135l-174 254h81l161 -139z" />
    <glyph glyph-name="uni06CE.medi" unicode="&#x6ce;" horiz-adv-x="621" 
d="M659 30q0 -30 -28 -30h-17q-154 0 -222 60q-61 54 -80 184h-4q-28 -133 -88 -186q-67 -58 -212 -58h-17q-28 0 -28 30v200q0 30 30 30h34q130 0 187 55t62 183q22 9 38 9q23 0 39 -9q-5 -128 50 -183t190 -55h36q30 0 30 -30v-200zM566 -311l-130 -131l-137 121l130 130z
M295 -314l-131 -131l-136 121l130 129zM448 978h80l-172 -255h-136l-174 255h81l161 -139z" />
    <glyph glyph-name="uni06CE.fina" unicode="&#x6ce;" horiz-adv-x="1222" 
d="M1259 30q0 -30 -28 -30h-16q-48 0 -156 28t-132 28q-67 0 -95 -67q49 -29 121 -46q125 -31 182 -94q-2 -53 -31 -144q-30 -94 -60 -132q-116 -41 -292 -76q-200 -40 -334 -40q-373 0 -373 278q0 86 52 224q55 145 128 242q37 0 61 -35q-90 -151 -90 -265q0 -203 343 -203
q96 0 275 16q163 15 209 25q-8 28 -122 58q-125 33 -174 80q56 394 247 394q43 0 115.5 -5.5t104.5 -5.5h35q30 0 30 -30v-200zM663 710h80l-172 -254h-136l-174 254h81l161 -139z" />
    <glyph glyph-name="uni06CF.fina" unicode="&#x6cf;" horiz-adv-x="756" 
d="M793 30q0 -30 -27 -30h-85q-5 -101 -87.5 -259t-195.5 -284q-74 0 -182 32q-112 33 -189 80q219 92 370 219q138 116 165 212h-86q-219 0 -330 101q0 169 70 309q67 134 173 193q243 -22 287 -343h88q29 0 29 -30v-200zM540 231q-14 63 -65 114q-56 55 -127 61
q-29 -15 -51 -56t-22 -79q84 -56 183 -56q52 0 82 16zM546 844l-123 -122l-130 113l124 121z" />
    <glyph glyph-name="uni06D1.init" unicode="&#x6d1;" horiz-adv-x="570" 
d="M-37 230q0 13 6.5 21.5t23.5 8.5h107q32 0 58.5 2.5t50.5 9.5t45.5 18.5t44.5 28.5q-6 22 -18.5 48.5t-28.5 54t-34 52.5t-36 44l145 200q19 -25 37 -58.5t33.5 -70.5t27 -73t15.5 -64q-3 -26 -14 -69.5t-25.5 -90.5t-30 -89.5t-28.5 -64.5q-60 -73 -125 -105.5
t-146 -32.5h-80q-14 0 -21 8.5t-7 21.5v200zM414 -338l-124 120l130 113l123 -121zM156 -334l-124 120l130 113l124 -122zM282 -563l-124 120l130 113l123 -121z" />
    <glyph glyph-name="uni06D1.medi" unicode="&#x6d1;" horiz-adv-x="621" 
d="M-37 230q0 13 6.5 21.5t23.5 8.5h34q65 0 111 13t76.5 41.5t45 74.5t16.5 109q21 9 38 9q8 0 18.5 -1.5t20.5 -7.5q-2 -63 9.5 -109t40 -74.5t75.5 -41.5t115 -13h36q17 0 23.5 -8.5t6.5 -21.5v-200q0 -13 -7 -21.5t-21 -8.5h-17q-81 0 -134.5 15t-88 45t-52.5 76
t-27 108h-4q-13 -64 -33 -110t-54.5 -76t-86 -44t-126.5 -14h-17q-14 0 -21 8.5t-7 21.5v200zM432 -353l-124 121l131 113l123 -122zM174 -349l-124 120l130 113l124 -122zM300 -578l-124 121l130 113l123 -122z" />
    <glyph glyph-name="uni06D1.fina" unicode="&#x6d1;" horiz-adv-x="1220" 
d="M1258 30q0 -30 -29 -30h-16q-47 0 -155.5 28t-132.5 28q-66 0 -95 -67q50 -29 121 -46q125 -31 182 -94q-2 -53 -31 -144q-30 -94 -59 -132q-117 -41 -293 -76q-199 -40 -332 -40q-373 0 -373 278q0 86 52 224q55 145 128 242q37 0 61 -35q-90 -151 -90 -265
q0 -203 343 -203q95 0 273 16q163 15 209 25q-8 28 -121 58q-126 33 -174 80q55 394 246 394q43 0 115.5 -5.5t104.5 -5.5h36q30 0 30 -30v-200zM267 -783l123 122l131 -113l-124 -121zM525 -780l124 122l129 -113l-124 -120zM399 -1008l123 122l131 -113l-124 -121z" />
    <glyph glyph-name="uni06D5.fina" unicode="&#x6d5;" horiz-adv-x="815" 
d="M852 30q0 -30 -27 -30h-18q-195 0 -259 280h-4q-6 -32 -34 -89t-48 -81q-155 0 -240 26q-82 24 -159 92q15 113 75 240q52 52 151 105.5t187 76.5q-10 43 -41 100l119 170q46 -69 86 -354q27 -200 63 -262q26 -44 84 -44h36q29 0 29 -30v-200zM537 334q-19 92 -39 213
q-71 -20 -151 -61q-93 -49 -131 -96q85 -66 224 -66q58 0 97 10z" />
    <glyph glyph-name="uni06EE.fina" unicode="&#x6ee;" horiz-adv-x="850" 
d="M888 30q0 -30 -27 -30h-18q-141 0 -208 231h-4q-3 -27 -29 -95.5t-44 -98.5q-148 -58 -281 -58q-138 0 -208 67q-1 60 19 171q17 96 29 130q4 0 10 1t8 1q21 -4 28 -9q-2 -6 -2 -27q0 -22 4 -30q61 -52 169 -52q171 0 267 60q-68 271 -178 401l144 200q65 -67 118 -329
q62 -303 138 -303h36q29 0 29 -30v-200zM537 1183l-161 -139h-81l174 254h136l172 -254h-80z" />
    <glyph glyph-name="uni06EF.fina" unicode="&#x6ef;" horiz-adv-x="800" 
d="M838 30q0 -30 -28 -30h-17q-50 0 -136 57q-42 -294 -317 -591q-225 48 -340 135q394 165 534 403q-37 104 -194 231l126 244q126 -144 188 -186q50 -33 119 -33h35q30 0 30 -30v-200zM440 793l-161 -139h-81l174 254h135l173 -254h-81z" />
    <glyph glyph-name="uni06FA.init" unicode="&#x6fa;" horiz-adv-x="1290" 
d="M1236 452q-8 -53 -40 -160q-34 -111 -58 -154q-127 -138 -219 -138q-74 0 -132 52q-67 59 -82 165h-3q-17 -103 -79 -163q-54 -54 -121 -54q-92 0 -161 59t-83 160h-3q-14 -101 -97 -164q-73 -55 -150 -55h-17q-28 0 -28 30v200q0 30 30 30h36q79 0 131 54q60 64 63 188
q22 5 42 5t45 -10q-4 -25 -4 -61q0 -72 45 -122q50 -54 140 -54q84 0 134.5 65.5t53.5 176.5q23 5 44 5q19 0 44 -10q-3 -49 -3 -61q0 -176 151 -176q119 0 179 59q-33 114 -116 199l146 200q36 -47 69.5 -128t42.5 -138zM976 921l-123 -121l-130 113l124 120zM718 918
l-124 -122l-129 113l124 120zM844 1146l-123 -121l-130 113l124 120zM716 -368l-123 120l130 113l123 -121z" />
    <glyph glyph-name="uni06FA.medi" unicode="&#x6fa;" horiz-adv-x="1313" 
d="M1351 30q0 -30 -28 -30h-16q-88 0 -155 50q-80 59 -96 170h-3q-22 -97 -87.5 -158.5t-142.5 -61.5q-175 0 -203 217h-4q-17 -103 -79 -163q-56 -54 -122 -54q-182 0 -208 219h-3q-16 -100 -78 -163q-55 -56 -118 -56h-17q-28 0 -28 30v200q0 30 30 30h36q46 0 93 65
q52 75 54 177q19 5 41 5q19 0 45 -10q-2 -25 -2 -61q0 -176 143 -176q86 0 138 66t52 176q20 5 41 5q20 0 45 -10q-2 -25 -2 -61q0 -176 146 -176q87 0 141 62.5t55 179.5q20 5 41 5q24 0 45 -9q-2 -26 -2 -62q0 -82 50 -129t133 -47h35q30 0 30 -30v-200zM900 831
l-123 -121l-131 113l124 120zM642 828l-124 -122l-130 113l124 120zM767 1056l-123 -121l-130 113l124 120zM644 -368l-124 120l130 113l123 -121z" />
    <glyph glyph-name="uni06FA.fina" unicode="&#x6fa;" horiz-adv-x="2060" 
d="M2098 30q0 -30 -28 -30h-17q-73 0 -127 46q-66 59 -73 174h-3q-23 -99 -81 -159.5t-134 -60.5q-175 0 -203 217h-4q-9 -99 -75 -161q-58 -56 -126 -56q-65 0 -111 52q0 -52 -18 -170q-19 -124 -37 -181q-114 -119 -279 -183q-156 -61 -322 -61q-220 0 -328 101
q-87 83 -87 218q0 97 58 238q60 145 153 264q34 0 58 -34q-65 -110 -87.5 -173t-22.5 -137q0 -217 323 -217q148 0 293 54q121 45 193 108q-9 105 -60.5 211t-113.5 149l100 258q84 -139 142.5 -188t132.5 -49q85 0 137.5 66t53.5 176q23 5 42 5q9 0 47 -3q-4 -64 -4 -68
q0 -176 145 -176q84 0 131.5 65t49.5 177q23 5 41 5q9 0 47 -3q-4 -32 -4 -68q0 -176 133 -176h35q30 0 30 -30v-200zM1719 848l-123 -121l-130 113l124 120zM1462 845l-124 -122l-130 113l124 121zM1587 1073l-123 -121l-130 113l124 120zM1453 -368l-123 120l130 113
l123 -121z" />
    <glyph glyph-name="uni06FB.init" unicode="&#x6fb;" horiz-adv-x="1400" 
d="M1346 436q-87 -165 -285 -293q-222 -143 -458 -143q-317 0 -343 219h-4q-24 -101 -93 -162q-65 -57 -144 -57h-28q-28 0 -28 30v200q0 30 30 30h34q183 0 205 238q13 9 32 9q22 0 41 -9q0 -238 188 -238q322 417 584 417q107 0 182 -72q71 -67 87 -169zM1129 360
q-24 144 -169 144q-72 0 -160 -60q-98 -69 -182 -193h93q307 0 418 109zM1142 -276l-161 -141l-155 145l160 140zM1132 1000l-161 -141l-155 145l160 140z" />
    <glyph glyph-name="uni06FB.medi" unicode="&#x6fb;" horiz-adv-x="1415" 
d="M1453 30q0 -30 -27 -30h-17q-159 0 -323 164q-235 -164 -576 -164q-93 0 -161 53q-76 59 -89 166h-4q-24 -101 -93 -162q-65 -57 -144 -57h-28q-28 0 -28 30v200q0 30 30 30h34q183 0 205 238q13 9 32 9q22 0 41 -9q0 -238 186 -238q322 417 584 417q107 0 183 -72
q70 -67 86 -169q-24 -55 -108 -139q19 -12 72.5 -24.5t80.5 -12.5h35q29 0 29 -30v-200zM1129 360q-24 144 -169 144q-72 0 -160 -60q-98 -69 -182 -193h93q307 0 418 109zM1133 -276l-161 -141l-155 145l160 140zM1123 1000l-162 -141l-154 145l160 140z" />
    <glyph glyph-name="uni06FB.fina" unicode="&#x6fb;" horiz-adv-x="2165" 
d="M2202 30q0 -30 -28 -30h-16q-153 0 -321 162q-230 -162 -577 -162q-95 0 -144 54q0 -53 -18 -172q-19 -124 -37 -181q-114 -119 -279 -183q-156 -61 -322 -61q-220 0 -328 101q-87 83 -87 218q0 97 58 238q60 145 153 264q34 0 58 -34q-65 -110 -87.5 -173t-22.5 -137
q0 -217 323 -217q148 0 293 54q121 45 193 108q-9 105 -60.5 211t-113.5 149l100 258q96 -154 153 -197q52 -40 147 -40q322 417 584 417q108 0 183 -72q70 -67 86 -169q-24 -55 -108 -139q20 -12 73 -24.5t80 -12.5h35q30 0 30 -30v-200zM1878 360q-26 144 -170 144
q-71 0 -159 -60q-98 -69 -183 -193h94q307 0 418 109zM1878 1000l-161 -141l-155 145l160 140zM1888 -276l-161 -141l-155 145l160 140z" />
    <glyph glyph-name="uni06FC.init" unicode="&#x6fc;" horiz-adv-x="939" 
d="M894 409l-116 -243q-66 -4 -279 -56q-182 -44 -265 -71q-123 -39 -226 -39h-17q-28 0 -28 30v200q0 30 30 30h153q13 0 53 1.5t47 1.5v4q-126 52 -126 201q0 66 14 118q172 263 363 263q171 0 283 -209q-97 35 -190 35q-137 0 -271 -65q-3 -213 208 -297q265 79 367 96z
M643 -265l-162 -141l-154 145l160 140zM628 1130l-161 -142l-155 145l160 141z" />
    <glyph glyph-name="uni06FC.medi" unicode="&#x6fc;" horiz-adv-x="726" 
d="M764 30q0 -30 -28 -30h-18q-115 0 -213 63q-105 67 -143 181h-4q-18 -113 -133 -183q-101 -61 -217 -61h-17q-28 0 -28 30v200q0 30 30 30h34q178 0 251 94q-110 119 -218 144q158 209 353 209q233 0 233 -262q-110 -40 -185 -94q71 -91 237 -91h36q30 0 30 -30v-200z
M538 1037l-161 -141l-155 144l160 141zM533 -265l-161 -141l-155 145l161 140z" />
    <glyph glyph-name="uni06FC.fina" unicode="&#x6fc;" horiz-adv-x="1038" 
d="M1075 30q0 -30 -28 -30h-17q-115 0 -190 57q-83 63 -272 305q-170 -112 -239 -210q-58 -84 -58 -184q0 -338 547 -338q100 0 235 14l-81 -133q-51 -12 -177 -30q-162 -24 -250 -24q-240 0 -370 100t-130 275q0 153 103.5 287.5t353.5 305.5q-41 44 -109 85.5t-118 55.5
q160 210 354 210q233 0 233 -263q-126 -51 -180 -91q124 -162 328 -162h35q30 0 30 -30v-200zM758 -50l-161 -141l-155 145l161 140zM766 1073l-162 -141l-155 145l161 140z" />
    <glyph glyph-name="uni06FF.init" unicode="&#x6ff;" horiz-adv-x="932" 
d="M869 395q0 -93 -38 -196q-36 -97 -88 -156q-87 7 -194.5 37.5t-169.5 67.5q-164 -148 -371 -148h-17q-28 0 -28 30v200q0 30 30 30h132q35 0 57 9q-74 54 -94 162q79 177 270 189v3q-62 39 -123 71l30 265q422 -262 599 -493q5 -44 5 -71zM767 324q-51 70 -190 173l-4 -4
q11 -32 11 -66q0 -77 -63 -130q29 -18 103.5 -44.5t109.5 -32.5q33 38 33 104zM493 454q0 44 -32 112q-152 -4 -201 -124q43 -70 139 -108q40 14 67 48t27 72zM274 1201l-162 -139h-81l174 254h136l172 -254h-80z" />
    <glyph glyph-name="uni06FF.medi" unicode="&#x6ff;" horiz-adv-x="913" 
d="M951 30q0 -13 -6.5 -21.5t-21.5 -8.5h-9q-29 0 -62 1.5t-71 4.5q7 -18 12 -45.5t5 -61.5q0 -46 -12.5 -93t-34.5 -92.5t-51.5 -87.5t-63.5 -78q-92 17 -165 57t-127.5 99.5t-90 138t-50.5 171.5q-52 -14 -146 -14h-66q-14 0 -21 8.5t-7 21.5v200q0 13 6.5 21.5t23.5 8.5
h186v58q0 170 49 295.5t145 196.5q48 -21 91.5 -58t75.5 -92t51.5 -129.5t19.5 -168.5q0 -36 -3 -68.5t-6 -64.5q62 15 124.5 23t129.5 8h65q18 0 24 -8.5t6 -21.5v-200zM489 124h-4q-55 -61 -149 -88q17 -47 48.5 -89.5t72.5 -76.5t89 -58t99 -34q12 26 12 52
q0 41 -14 76.5t-39 62.5t-59.5 44t-75.5 22zM283 260q93 4 146.5 23.5t78.5 50.5q-4 35 -15.5 69.5t-29 64t-40.5 51.5t-48 32q-44 -40 -68 -116t-24 -175zM365 1101l-161 -139h-82l174 254h136l172 -254h-80z" />
    <glyph glyph-name="uni06FF.fina" unicode="&#x6ff;" horiz-adv-x="1035" 
d="M1073 30q0 -13 -7 -21.5t-22 -8.5h-9q-29 0 -62 1.5t-71 4.5q7 -18 12 -45.5t5 -61.5q0 -46 -12.5 -93t-34.5 -92.5t-51.5 -87.5t-63.5 -78q-92 17 -164.5 57t-127.5 99.5t-90.5 138t-50.5 171.5q-102 -29 -162 -68.5t-85 -89.5l-23 5l43 287q24 26 72.5 52t130.5 47v71
q0 170 49 295.5t145 196.5q48 -21 91.5 -58t76 -92t51.5 -129.5t19 -168.5q0 -36 -3 -68.5t-6 -64.5q62 15 124.5 23t129.5 8h65q18 0 24.5 -8.5t6.5 -21.5v-200zM610 124h-4q-55 -61 -149 -88q17 -47 48.5 -89.5t72.5 -76.5t89 -58t99 -34q12 26 12 52q0 41 -14 76.5
t-39 62.5t-59.5 44t-75.5 22zM404 260q93 4 146.5 23.5t78.5 50.5q-4 35 -15.5 69.5t-29 64t-40.5 51.5t-48 32q-44 -40 -68 -116t-24 -175zM491 1101l-161 -139h-81l174 254h136l172 -254h-80z" />
    <glyph glyph-name="uniFB50" unicode="&#x671;" horiz-adv-x="414" arabic-form="isolated" 
d="M15 1285h-6v156l46 74l45 -28q32 81 76.5 122.5t93.5 41.5q40 0 67.5 -27.5t37.5 -81.5q-2 -46 -16 -97q-28 -49 -73 -71.5t-97 -22.5q-28 0 -57 6.5t-58 22.5zM207 1459q12 0 27.5 2.5t31.5 8t30.5 14.5t24.5 24q-9 21 -25 33.5t-38 12.5q-29 0 -57.5 -21.5t-54.5 -62.5
q11 -5 26.5 -8t34.5 -3zM328 938q0 -365 -50 -854l-123 -161q5 174 5 228q0 344 -34 627q-30 241 -64 308l235 199q31 -175 31 -347z" />
    <glyph glyph-name="uniFB51" unicode="&#x671;" horiz-adv-x="414" arabic-form="final" 
d="M452 30q0 -30 -28 -30h-18q-102 0 -170 61q-102 90 -102 295q0 618 -89 739l179 190q54 -99 62 -374q-1 7 -1 -391q0 -260 101 -260h36q30 0 30 -30v-200zM6 1285h-6v156l46 74l45 -28q32 81 76.5 122.5t93.5 41.5q40 0 67.5 -27.5t37.5 -81.5q-2 -46 -16 -97
q-28 -49 -73 -71.5t-97 -22.5q-28 0 -57 6.5t-58 22.5zM198 1459q12 0 27.5 2.5t31.5 8t30.5 14.5t24.5 24q-9 21 -25 33.5t-38 12.5q-29 0 -57.5 -21.5t-54.5 -62.5q11 -5 26.5 -8t34.5 -3z" />
    <glyph glyph-name="uniFB52" unicode="&#x67b;" horiz-adv-x="1503" arabic-form="isolated" 
d="M1354 737q15 -21 32 -59t31.5 -82.5t25.5 -89.5t14 -81q-7 -26 -19.5 -58.5t-30.5 -69.5t-40.5 -77.5t-50.5 -81.5q-79 -34 -172.5 -62t-193 -47t-201.5 -29.5t-198 -10.5q-114 0 -201.5 19t-147 60t-90.5 104.5t-31 151.5q0 40 9 87t25 97t38.5 99.5t48.5 95.5q5 2 10 3
t9 1q10 0 25 -8t25 -24q-11 -22 -22 -50t-20 -57t-14 -57t-5 -50q0 -46 21.5 -82.5t70.5 -63t128 -41t196 -14.5q217 0 391.5 18t298.5 67q-6 22 -17 49t-25.5 54.5t-32 53t-35.5 45.5zM748 -361l-124 120l130 113l123 -121zM752 -596l-124 120l130 113l123 -121z" />
    <glyph glyph-name="uniFB53" unicode="&#x67b;" horiz-adv-x="1495" arabic-form="final" 
d="M1531 30q0 -13 -7 -21.5t-21 -8.5h-17q-46 0 -82.5 15.5t-61.5 43t-37.5 64t-10.5 80.5q-69 -52 -157 -91.5t-185 -67t-199 -41.5t-198 -14q-115 0 -203.5 19t-148.5 60t-91 104.5t-31 151.5q0 40 9 87t25 97t38.5 99.5t48.5 95.5q5 2 10 3t9 1q10 0 25 -8t25 -24
q-11 -22 -22 -50t-20 -57t-14 -57t-5 -50q0 -46 21.5 -82.5t71 -63t129.5 -41t197 -14.5q86 0 171.5 8.5t164 24t147 35.5t119.5 44q36 31 61 67.5t39 73.5q4 3 9.5 4t9.5 1q16 0 30.5 -6t25.5 -17q-6 -13 -11 -29.5t-8.5 -33.5t-6 -32.5t-2.5 -25.5q0 -49 25 -81.5
t63 -32.5h35q17 0 23.5 -8.5t6.5 -21.5v-200zM703 -357l-124 120l131 113l123 -121zM697 -596l-124 120l130 113l123 -121z" />
    <glyph glyph-name="uniFB54" unicode="&#x67b;" horiz-adv-x="542" arabic-form="initial" 
d="M-37 230q0 13 6.5 21.5t23.5 8.5h107q32 0 58.5 2.5t50.5 9.5t45.5 18.5t44.5 28.5q-6 22 -18.5 48.5t-28.5 54t-34 52.5t-36 44l145 200q19 -25 37 -58.5t33.5 -70.5t27 -73t15.5 -64q-3 -26 -14 -69.5t-25.5 -90.5t-30 -89.5t-28.5 -64.5q-60 -73 -125 -105.5
t-146 -32.5h-80q-14 0 -21 8.5t-7 21.5v200zM279 -327l-124 120l131 113l122 -121zM282 -563l-124 120l130 113l123 -121z" />
    <glyph glyph-name="uniFB55" unicode="&#x67b;" horiz-adv-x="621" arabic-form="medial" 
d="M-37 230q0 13 6.5 21.5t23.5 8.5h34q65 0 111 13t76.5 41.5t45 74.5t16.5 109q21 9 38 9q8 0 18.5 -1.5t20.5 -7.5q-2 -63 9.5 -109t40 -74.5t75.5 -41.5t115 -13h36q17 0 23.5 -8.5t6.5 -21.5v-200q0 -13 -7 -21.5t-21 -8.5h-17q-81 0 -134.5 15t-88 45t-52.5 76
t-27 108h-4q-13 -64 -33 -110t-54.5 -76t-86 -44t-126.5 -14h-17q-14 0 -21 8.5t-7 21.5v200zM297 -342l-124 121l131 113l123 -122zM300 -578l-124 121l130 113l123 -122z" />
    <glyph glyph-name="uniFB56" unicode="&#x67e;" horiz-adv-x="1503" arabic-form="isolated" 
d="M1354 737q15 -21 32 -59t31.5 -82.5t25.5 -89.5t14 -81q-7 -26 -19.5 -58.5t-30.5 -69.5t-40.5 -77.5t-50.5 -81.5q-79 -34 -172.5 -62t-193 -47t-201.5 -29.5t-198 -10.5q-114 0 -201.5 19t-147 60t-90.5 104.5t-31 151.5q0 40 9 87t25 97t38.5 99.5t48.5 95.5q5 2 10 3
t9 1q10 0 25 -8t25 -24q-11 -22 -22 -50t-20 -57t-14 -57t-5 -50q0 -46 21.5 -82.5t70.5 -63t128 -41t196 -14.5q217 0 391.5 18t298.5 67q-6 22 -17 49t-25.5 54.5t-32 53t-35.5 45.5zM884 -371l-124 120l130 113l123 -121zM626 -367l-124 120l129 113l124 -122zM752 -596
l-124 120l130 113l123 -121z" />
    <glyph glyph-name="uniFB57" unicode="&#x67e;" horiz-adv-x="1495" arabic-form="final" 
d="M1531 30q0 -13 -7 -21.5t-21 -8.5h-17q-46 0 -82.5 15.5t-61.5 43t-37.5 64t-10.5 80.5q-69 -52 -157 -91.5t-185 -67t-199 -41.5t-198 -14q-115 0 -203.5 19t-148.5 60t-91 104.5t-31 151.5q0 40 9 87t25 97t38.5 99.5t48.5 95.5q5 2 10 3t9 1q10 0 25 -8t25 -24
q-11 -22 -22 -50t-20 -57t-14 -57t-5 -50q0 -46 21.5 -82.5t71 -63t129.5 -41t197 -14.5q86 0 171.5 8.5t164 24t147 35.5t119.5 44q36 31 61 67.5t39 73.5q4 3 9.5 4t9.5 1q16 0 30.5 -6t25.5 -17q-6 -13 -11 -29.5t-8.5 -33.5t-6 -32.5t-2.5 -25.5q0 -49 25 -81.5
t63 -32.5h35q17 0 23.5 -8.5t6.5 -21.5v-200zM829 -371l-124 120l130 113l123 -121zM571 -367l-124 120l130 113l124 -122zM697 -596l-124 120l130 113l123 -121z" />
    <glyph glyph-name="uniFB58" unicode="&#x67e;" horiz-adv-x="570" arabic-form="initial" 
d="M-37 230q0 13 6.5 21.5t23.5 8.5h107q32 0 58.5 2.5t50.5 9.5t45.5 18.5t44.5 28.5q-6 22 -18.5 48.5t-28.5 54t-34 52.5t-36 44l145 200q19 -25 37 -58.5t33.5 -70.5t27 -73t15.5 -64q-3 -26 -14 -69.5t-25.5 -90.5t-30 -89.5t-28.5 -64.5q-60 -73 -125 -105.5
t-146 -32.5h-80q-14 0 -21 8.5t-7 21.5v200zM414 -338l-124 120l130 113l123 -121zM156 -334l-124 120l130 113l124 -122zM282 -563l-124 120l130 113l123 -121z" />
    <glyph glyph-name="uniFB59" unicode="&#x67e;" horiz-adv-x="621" arabic-form="medial" 
d="M-37 230q0 13 6.5 21.5t23.5 8.5h34q65 0 111 13t76.5 41.5t45 74.5t16.5 109q21 9 38 9q8 0 18.5 -1.5t20.5 -7.5q-2 -63 9.5 -109t40 -74.5t75.5 -41.5t115 -13h36q17 0 23.5 -8.5t6.5 -21.5v-200q0 -13 -7 -21.5t-21 -8.5h-17q-81 0 -134.5 15t-88 45t-52.5 76
t-27 108h-4q-13 -64 -33 -110t-54.5 -76t-86 -44t-126.5 -14h-17q-14 0 -21 8.5t-7 21.5v200zM432 -353l-124 121l131 113l123 -122zM174 -349l-124 120l130 113l124 -122zM300 -578l-124 121l130 113l123 -122z" />
    <glyph glyph-name="uniFB5A" unicode="&#x680;" horiz-adv-x="1503" arabic-form="isolated" 
d="M1354 737q15 -21 32 -59t31.5 -82.5t25.5 -89.5t14 -81q-7 -26 -19.5 -58.5t-30.5 -69.5t-40.5 -77.5t-50.5 -81.5q-79 -34 -172.5 -62t-193 -47t-201.5 -29.5t-198 -10.5q-114 0 -201.5 19t-147 60t-90.5 104.5t-31 151.5q0 40 9 87t25 97t38.5 99.5t48.5 95.5q5 2 10 3
t9 1q10 0 25 -8t25 -24q-11 -22 -22 -50t-20 -57t-14 -57t-5 -50q0 -46 21.5 -82.5t70.5 -63t128 -41t196 -14.5q217 0 391.5 18t298.5 67q-6 22 -17 49t-25.5 54.5t-32 53t-35.5 45.5zM877 -604l-124 120l131 113l123 -121zM626 -367l-124 120l129 113l124 -122zM884 -371
l-124 120l130 113l123 -121zM619 -600l-123 120l129 113l124 -122z" />
    <glyph glyph-name="uniFB5B" unicode="&#x680;" horiz-adv-x="1495" arabic-form="final" 
d="M1531 30q0 -13 -7 -21.5t-21 -8.5h-17q-46 0 -82.5 15.5t-61.5 43t-37.5 64t-10.5 80.5q-69 -52 -157 -91.5t-185 -67t-199 -41.5t-198 -14q-115 0 -203.5 19t-148.5 60t-91 104.5t-31 151.5q0 40 9 87t25 97t38.5 99.5t48.5 95.5q5 2 10 3t9 1q10 0 25 -8t25 -24
q-11 -22 -22 -50t-20 -57t-14 -57t-5 -50q0 -46 21.5 -82.5t71 -63t129.5 -41t197 -14.5q86 0 171.5 8.5t164 24t147 35.5t119.5 44q36 31 61 67.5t39 73.5q4 3 9.5 4t9.5 1q16 0 30.5 -6t25.5 -17q-6 -13 -11 -29.5t-8.5 -33.5t-6 -32.5t-2.5 -25.5q0 -49 25 -81.5
t63 -32.5h35q17 0 23.5 -8.5t6.5 -21.5v-200zM820 -607l-124 121l130 112l123 -121zM562 -603l-124 120l129 113l124 -122zM829 -371l-124 120l130 113l123 -121zM571 -367l-124 120l130 113l124 -122z" />
    <glyph glyph-name="uniFB5C" unicode="&#x680;" horiz-adv-x="570" arabic-form="initial" 
d="M-37 230q0 13 6.5 21.5t23.5 8.5h107q32 0 58.5 2.5t50.5 9.5t45.5 18.5t44.5 28.5q-6 22 -18.5 48.5t-28.5 54t-34 52.5t-36 44l145 200q19 -25 37 -58.5t33.5 -70.5t27 -73t15.5 -64q-3 -26 -14 -69.5t-25.5 -90.5t-30 -89.5t-28.5 -64.5q-60 -73 -125 -105.5
t-146 -32.5h-80q-14 0 -21 8.5t-7 21.5v200zM411 -574l-124 120l131 113l123 -121zM153 -570l-123 120l129 113l124 -122zM414 -338l-124 120l130 113l123 -121zM156 -334l-124 120l130 113l124 -122z" />
    <glyph glyph-name="uniFB5D" unicode="&#x680;" horiz-adv-x="621" arabic-form="medial" 
d="M-37 230q0 13 6.5 21.5t23.5 8.5h34q65 0 111 13t76.5 41.5t45 74.5t16.5 109q21 9 38 9q8 0 18.5 -1.5t20.5 -7.5q-2 -63 9.5 -109t40 -74.5t75.5 -41.5t115 -13h36q17 0 23.5 -8.5t6.5 -21.5v-200q0 -13 -7 -21.5t-21 -8.5h-17q-81 0 -134.5 15t-88 45t-52.5 76
t-27 108h-4q-13 -64 -33 -110t-54.5 -76t-86 -44t-126.5 -14h-17q-14 0 -21 8.5t-7 21.5v200zM429 -585l-124 120l130 113l123 -121zM171 -581l-124 120l129 113l124 -122zM432 -353l-124 121l131 113l123 -122zM174 -349l-124 120l130 113l124 -122z" />
    <glyph glyph-name="uniFB5E" unicode="&#x67a;" horiz-adv-x="1503" arabic-form="isolated" 
d="M1457 425q-29 -119 -141 -287q-344 -149 -765 -149q-470 0 -470 335q0 169 121 379q12 4 19 4q30 0 50 -32q-61 -116 -61 -214q0 -199 416 -201q467 -4 690 85q-36 125 -110 202l148 190q31 -43 64 -142t39 -170zM911 820l-123 -121l-130 113l124 120zM905 1056
l-123 -121l-131 113l124 120z" />
    <glyph glyph-name="uniFB5F" unicode="&#x67a;" horiz-adv-x="1495" arabic-form="final" 
d="M1531 30q0 -30 -28 -30h-17q-89 0 -142.5 58t-49.5 145q-133 -100 -341 -158q-198 -56 -398 -56q-474 0 -474 335q0 169 121 379q12 4 19 4q30 0 50 -32q-61 -116 -61 -214q0 -201 419 -201q354 0 602 112q68 57 100 141q6 5 19 5q32 0 56 -23q-28 -63 -28 -121
q0 -49 25 -81.5t63 -32.5h35q30 0 30 -30v-200zM917 822l-123 -121l-130 113l124 120zM914 1055l-123 -121l-131 113l124 120z" />
    <glyph glyph-name="uniFB60" unicode="&#x67a;" horiz-adv-x="546" arabic-form="initial" 
d="M440 452q-7 -54 -40 -160q-34 -111 -58 -154q-115 -138 -271 -138h-80q-28 0 -28 30v200q0 30 30 30h107q123 0 199 59q-33 111 -117 199l145 200q87 -112 113 -266zM429 922l-123 -121l-131 113l124 120zM422 1158l-123 -121l-130 113l124 120z" />
    <glyph glyph-name="uniFB61" unicode="&#x67a;" horiz-adv-x="621" arabic-form="medial" 
d="M659 30q0 -30 -28 -30h-17q-154 0 -222 60q-61 54 -80 184h-4q-28 -133 -88 -186q-67 -58 -212 -58h-17q-28 0 -28 30v200q0 30 30 30h34q130 0 187 55t62 183q22 9 38 9q23 0 39 -9q-5 -128 50 -183t190 -55h36q30 0 30 -30v-200zM315 907l125 -109l-123 -121l-130 113
l123 119l-127 110l124 121l130 -112z" />
    <glyph glyph-name="uniFB62" unicode="&#x67f;" horiz-adv-x="1503" arabic-form="isolated" 
d="M1457 425q-29 -119 -141 -287q-344 -149 -765 -149q-470 0 -470 335q0 169 121 379q12 4 19 4q30 0 50 -32q-61 -116 -61 -214q0 -199 416 -201q467 -4 690 85q-36 125 -110 202l148 190q31 -43 64 -142t39 -170zM1064 1138l-138 -138l-143 128l137 136zM779 1134
l-138 -137l-143 127l137 136zM1076 871l-138 -138l-143 128l137 136zM791 867l-138 -137l-143 127l137 136z" />
    <glyph glyph-name="uniFB63" unicode="&#x67f;" horiz-adv-x="1495" arabic-form="final" 
d="M1531 30q0 -30 -28 -30h-17q-89 0 -142.5 58t-49.5 145q-133 -100 -341 -158q-198 -56 -398 -56q-474 0 -474 335q0 169 121 379q12 4 19 4q30 0 50 -32q-61 -116 -61 -214q0 -201 419 -201q354 0 602 112q68 57 100 141q6 5 19 5q32 0 56 -23q-28 -63 -28 -121
q0 -49 25 -81.5t63 -32.5h35q30 0 30 -30v-200zM1060 1137l-137 -138l-143 128l136 136zM775 1133l-137 -137l-143 127l136 136zM1067 870l-138 -138l-143 128l137 136zM782 866l-138 -137l-143 127l137 136z" />
    <glyph glyph-name="uniFB64" unicode="&#x67f;" horiz-adv-x="591" arabic-form="initial" 
d="M440 452q-7 -54 -40 -160q-34 -111 -58 -154q-115 -138 -271 -138h-80q-28 0 -28 30v200q0 30 30 30h107q123 0 199 59q-33 111 -117 199l145 200q87 -112 113 -266zM558 1225l-130 -131l-137 121l130 130zM286 1222l-130 -131l-137 121l131 129zM564 971l-130 -131
l-137 121l131 130zM293 968l-130 -132l-137 121l130 130z" />
    <glyph glyph-name="uniFB65" unicode="&#x67f;" horiz-adv-x="621" arabic-form="medial" 
d="M659 30q0 -30 -28 -30h-17q-154 0 -222 60q-61 54 -80 184h-4q-28 -133 -88 -186q-67 -58 -212 -58h-17q-28 0 -28 30v200q0 30 30 30h34q130 0 187 55t62 183q22 9 38 9q23 0 39 -9q-5 -128 50 -183t190 -55h36q30 0 30 -30v-200zM569 1085l-130 -131l-137 121l130 129z
M297 1081l-130 -131l-137 121l131 130zM575 830l-130 -131l-137 121l131 129zM304 826l-131 -131l-136 121l130 130z" />
    <glyph glyph-name="uniFB66" unicode="&#x679;" horiz-adv-x="1503" arabic-form="isolated" 
d="M1457 425q-29 -119 -141 -287q-344 -149 -765 -149q-470 0 -470 335q0 169 121 379q12 4 19 4q30 0 50 -32q-61 -116 -61 -214q0 -199 416 -201q467 -4 690 85q-36 125 -110 202l148 190q31 -43 64 -142t39 -170zM809 1050l-3 -5l-58 14q2 -13 2 -27v-26q0 -23 -1 -44
t-3 -42l2 -1q31 43 63.5 66.5t69.5 23.5q34 0 65 -23.5t40 -72.5q0 -9 -4 -23.5t-9.5 -31t-11.5 -32t-13 -26.5q-40 -44 -97.5 -66t-129.5 -22q-30 0 -57 3l-107 118q32 -8 63 -12.5t60 -6.5q0 82 -4.5 156t-30.5 131l79 81zM850 915q-35 0 -66.5 -27.5t-60.5 -74.5
q69 2 118 15.5t77 39.5q-27 47 -68 47z" />
    <glyph glyph-name="uniFB67" unicode="&#x679;" horiz-adv-x="1495" arabic-form="final" 
d="M1531 30q0 -30 -28 -30h-17q-89 0 -142.5 58t-49.5 145q-133 -100 -341 -158q-198 -56 -398 -56q-474 0 -474 335q0 169 121 379q12 4 19 4q30 0 50 -32q-61 -116 -61 -214q0 -201 419 -201q354 0 602 112q68 57 100 141q6 5 19 5q32 0 56 -23q-28 -63 -28 -121
q0 -49 25 -81.5t63 -32.5h35q30 0 30 -30v-200zM818 1041l-3 -5l-58 14q2 -13 2 -27v-26q0 -23 -1 -44t-3 -42l2 -1q31 43 63.5 66t69.5 23q34 0 65 -23t40 -72q0 -9 -4 -24t-9 -31t-11.5 -31.5t-13.5 -26.5q-40 -44 -97 -66t-129 -22q-30 0 -58 3l-107 118q32 -8 63 -12.5
t61 -6.5q0 82 -5 156t-31 131l79 80zM859 906q-35 0 -66.5 -27.5t-60.5 -74.5q69 2 118 15.5t77 39.5q-27 47 -68 47z" />
    <glyph glyph-name="uniFB68" unicode="&#x679;" horiz-adv-x="564" arabic-form="initial" 
d="M440 452q-7 -54 -40 -160q-34 -111 -58 -154q-115 -138 -271 -138h-80q-28 0 -28 30v200q0 30 30 30h107q123 0 199 59q-33 111 -117 199l145 200q87 -112 113 -266zM308 1152l-2 -5l-59 14q2 -13 2 -27v-26q0 -23 -1 -44t-3 -42l2 -1q31 43 63.5 66.5t69.5 23.5
q34 0 65 -23.5t40 -72.5q0 -9 -3.5 -23.5t-9 -31t-12 -32t-12.5 -26.5q-40 -44 -97.5 -66t-129.5 -22q-30 0 -58 3l-107 118q33 -8 64 -12.5t60 -6.5q0 82 -4.5 156t-31.5 131l80 81zM349 1017q-34 0 -66 -27.5t-60 -74.5q68 2 117 15.5t78 39.5q-28 47 -69 47z" />
    <glyph glyph-name="uniFB69" unicode="&#x679;" horiz-adv-x="603" arabic-form="medial" 
d="M641 30q0 -30 -28 -30h-17q-136 0 -204 60q-61 54 -80 184h-4q-28 -133 -88 -186q-67 -58 -212 -58h-17q-28 0 -28 30v200q0 30 30 30h34q130 0 187 55t62 183q22 9 38 9q23 0 39 -9q-5 -128 50 -183t172 -55h36q30 0 30 -30v-200zM322 1045l-3 -6l-58 14q2 -13 2 -26
v-27q0 -22 -1 -43t-3 -42l2 -1q31 43 63.5 66t69.5 23q34 0 65 -23t40 -73q0 -9 -4 -23.5t-9.5 -31t-11.5 -32t-13 -26.5q-40 -43 -97.5 -65t-129.5 -22q-30 0 -57 3l-107 117q32 -7 63 -11.5t60 -6.5q0 82 -4.5 156t-30.5 131l79 80zM363 909q-35 0 -66.5 -27t-60.5 -75
q69 3 118 16t77 40q-27 46 -68 46z" />
    <glyph glyph-name="uniFB6A" unicode="&#x6a4;" horiz-adv-x="1452" arabic-form="isolated" 
d="M1365 493q0 -162 -38 -370q-151 -79 -261 -102q-155 -32 -495 -32q-274 0 -392 79q-98 67 -98 201q0 155 114 367q8 6 18 6q31 0 50 -33q-54 -102 -54 -185q0 -94 86 -127q101 -37 411 -37q454 0 550 57q4 46 5 52q-1 5 -5 53q-67 -36 -172 -36q-123 0 -225 64
q-4 343 200 481q143 0 222 -110q84 -114 84 -328zM1237 580q-63 152 -210 152q-55 -31 -59 -122q70 -44 171 -44q53 0 98 14zM1336 1106l-123 -121l-130 113l124 120zM1204 1331l-123 -121l-130 113l124 120zM1079 1103l-124 -122l-130 113l124 120z" />
    <glyph glyph-name="uniFB6B" unicode="&#x6a4;" horiz-adv-x="1471" arabic-form="final" 
d="M1508 30q0 -30 -28 -30h-17q-212 0 -338 125q-96 -80 -209 -108q-117 -28 -363 -28q-243 0 -354 62q-118 67 -118 218q0 155 114 367q8 6 18 6q30 0 52 -33q-56 -101 -56 -185q0 -87 74 -122q90 -42 343 -42q279 0 358 27q-109 126 -109 249q0 92 59 188q62 103 160 159
q248 -83 248 -308q0 -67 -31 -153q-30 -82 -68 -129q85 -33 153 -33h83q29 0 29 -30v-200zM1202 489q0 36 -24 68q-28 39 -78 52q-83 -25 -103 -144q42 -89 119 -125q33 19 59.5 65t26.5 84zM1336 1079l-123 -122l-130 113l124 121zM1079 1076l-124 -122l-130 113l124 120z
M1204 1304l-123 -121l-130 112l124 121z" />
    <glyph glyph-name="uniFB6C" unicode="&#x6a4;" horiz-adv-x="706" arabic-form="initial" 
d="M620 493q0 -172 -36 -370q-97 -68 -227.5 -95.5t-348.5 -27.5h-17q-28 0 -28 30v200q0 30 30 30h189q235 0 328 57q7 27 7 53q0 19 -6 55q-67 -35 -171 -35q-124 0 -226 64q0 340 200 477q143 0 223 -110q83 -114 83 -328zM491 579q-54 153 -211 153q-56 -31 -56 -123
q65 -46 168 -46q54 0 99 16zM600 1115l-123 -121l-130 113l123 120zM342 1112l-124 -122l-129 113l124 121zM468 1340l-123 -121l-131 113l124 120z" />
    <glyph glyph-name="uniFB6D" unicode="&#x6a4;" horiz-adv-x="726" arabic-form="medial" 
d="M764 30q0 -30 -28 -30h-18q-214 0 -339 125q-81 -67 -146 -92q-87 -33 -225 -33h-17q-28 0 -28 30v200q0 30 30 30h34q138 0 210 27q-108 125 -108 249q0 92 58 188q62 103 160 159q248 -83 248 -308q0 -67 -31 -153q-30 -82 -67 -129q86 -33 153 -33h84q30 0 30 -30
v-200zM456 489q0 36 -25 68q-28 39 -78 52q-83 -25 -103 -144q40 -87 120 -125q32 19 59 65t27 84zM600 1079l-123 -122l-130 113l123 121zM342 1076l-124 -122l-129 113l124 120zM468 1304l-123 -121l-131 112l124 121z" />
    <glyph glyph-name="uniFB6E" unicode="&#x6a6;" horiz-adv-x="1452" arabic-form="isolated" 
d="M1365 493q0 -162 -38 -370q-151 -79 -261 -102q-155 -32 -495 -32q-274 0 -392 79q-98 67 -98 201q0 155 114 367q8 6 18 6q31 0 50 -33q-54 -102 -54 -185q0 -94 86 -127q101 -37 411 -37q454 0 550 57q4 46 5 52q-1 5 -5 53q-67 -36 -172 -36q-123 0 -225 64
q-4 343 200 481q143 0 222 -110q84 -114 84 -328zM1237 580q-63 152 -210 152q-55 -31 -59 -122q70 -44 171 -44q53 0 98 14zM1333 1342l-123 -121l-131 113l124 120zM1075 1339l-124 -122l-129 113l124 120zM1336 1106l-123 -121l-130 113l124 120zM1079 1103l-124 -122
l-130 113l124 120z" />
    <glyph glyph-name="uniFB6F" unicode="&#x6a6;" horiz-adv-x="1471" arabic-form="final" 
d="M1508 30q0 -30 -28 -30h-17q-212 0 -338 125q-96 -80 -209 -108q-117 -28 -363 -28q-243 0 -354 62q-118 67 -118 218q0 155 114 367q8 6 18 6q30 0 52 -33q-56 -101 -56 -185q0 -87 74 -122q90 -42 343 -42q279 0 358 27q-109 126 -109 249q0 92 59 188q62 103 160 159
q248 -83 248 -308q0 -67 -31 -153q-30 -82 -68 -129q85 -33 153 -33h83q29 0 29 -30v-200zM1202 489q0 36 -24 68q-28 39 -78 52q-83 -25 -103 -144q42 -89 119 -125q33 19 59.5 65t26.5 84zM1329 1311l-123 -121l-130 113l124 120zM1071 1308l-124 -122l-129 113l124 120z
M1336 1079l-123 -122l-130 113l124 121zM1079 1076l-124 -122l-130 113l124 120z" />
    <glyph glyph-name="uniFB70" unicode="&#x6a6;" horiz-adv-x="706" arabic-form="initial" 
d="M620 493q0 -172 -36 -370q-97 -68 -227.5 -95.5t-348.5 -27.5h-17q-28 0 -28 30v200q0 30 30 30h189q235 0 328 57q7 27 7 53q0 19 -6 55q-67 -35 -171 -35q-124 0 -226 64q0 340 200 477q143 0 223 -110q83 -114 83 -328zM491 579q-54 153 -211 153q-56 -31 -56 -123
q65 -46 168 -46q54 0 99 16zM593 1351l-123 -121l-131 113l124 120zM335 1348l-124 -122l-130 113l124 120zM600 1115l-123 -121l-130 113l123 120zM342 1112l-124 -122l-129 113l124 121z" />
    <glyph glyph-name="uniFB71" unicode="&#x6a6;" horiz-adv-x="726" arabic-form="medial" 
d="M764 30q0 -30 -28 -30h-18q-214 0 -339 125q-81 -67 -146 -92q-87 -33 -225 -33h-17q-28 0 -28 30v200q0 30 30 30h34q138 0 210 27q-108 125 -108 249q0 92 58 188q62 103 160 159q248 -83 248 -308q0 -67 -31 -153q-30 -82 -67 -129q86 -33 153 -33h84q30 0 30 -30
v-200zM456 489q0 36 -25 68q-28 39 -78 52q-83 -25 -103 -144q40 -87 120 -125q32 19 59 65t27 84zM589 1312l-123 -121l-130 113l124 120zM331 1309l-124 -122l-129 113l124 120zM600 1079l-123 -122l-130 113l123 121zM342 1076l-124 -122l-129 113l124 120z" />
    <glyph glyph-name="uniFB72" unicode="&#x684;" horiz-adv-x="1232" arabic-form="isolated" 
d="M1129 -477q-54 -14 -123.5 -26t-145.5 -20.5t-152.5 -14t-144.5 -5.5q-49 0 -106 7t-114 23.5t-110 46t-93.5 73t-65 103.5t-24.5 141q0 80 33.5 163t98 161t157.5 149.5t211 131.5v3h-7q-17 2 -44.5 8t-55.5 12.5t-52.5 13t-36.5 11.5q-10 3 -22 6t-24 5.5t-22 4.5
t-14 2q-16 0 -30 -5t-29 -21.5t-30 -46.5t-32 -79q-17 0 -36 6t-29 14q35 88 62 150.5t47 104t35 65t27.5 35.5t23 15t21.5 3q37 0 81.5 -16.5t108 -37t151.5 -37.5t213 -17q66 0 110 1.5t73 3.5t46 4t31 4l-148 -233q-8 0 -23 1.5t-32.5 2t-34 1t-29.5 0.5q-63 0 -121 -12
t-118 -34q-63 -24 -122.5 -64t-107 -94t-76 -120t-28.5 -141q0 -92 41.5 -157t121.5 -107t197 -61.5t269 -19.5q31 0 70.5 1.5t80.5 3t80 5t69 7.5zM694 7l-124 121l130 113l123 -122zM691 -231l-124 120l131 113l123 -121z" />
    <glyph glyph-name="uniFB73" unicode="&#x684;" horiz-adv-x="1244" arabic-form="final" 
d="M1065 438q-65 -1 -112.5 0t-76.5 4q13 -55 30 -90t52.5 -55.5t96.5 -28.5t161 -8h36q17 0 23.5 -8.5t6.5 -21.5v-200q0 -13 -7 -21.5t-22 -8.5h-16q-97 0 -173.5 26t-132 79.5t-90.5 137.5t-49 200q-61 -22 -122.5 -51.5t-118.5 -65.5t-107.5 -78t-87.5 -87t-58.5 -94
t-21.5 -99q0 -69 29.5 -130.5t99.5 -107.5t187.5 -73t292.5 -27q50 0 99 1t93 3t80 4t61 6l-75 -123q-99 -29 -251.5 -46.5t-343.5 -17.5q-133 0 -227 33.5t-154.5 89.5t-88.5 129t-28 153t35.5 159.5t107 155t178 146t248.5 133.5v3q-17 2 -46 8t-59 12.5t-56 13t-38 10.5
q-9 3 -24.5 6.5t-31 6t-29 4.5t-16.5 2q-17 0 -31 -5t-28.5 -20.5t-29.5 -45.5t-32 -79q-17 0 -36.5 6t-29.5 16q36 88 62.5 149.5t46.5 102.5t35 64.5t27.5 35.5t23 14.5t22.5 2.5q37 0 84.5 -17t114.5 -37.5t158.5 -38t217.5 -17.5q106 0 176.5 5t93.5 10zM632 -2
l-124 120l131 113l123 -121zM623 -241l-124 121l130 113l123 -121z" />
    <glyph glyph-name="uniFB74" unicode="&#x684;" horiz-adv-x="1032" arabic-form="initial" 
d="M857 157q-49 14 -87.5 18t-80.5 4q-24 0 -53 -5t-61 -15t-65 -21.5t-66 -25.5q-58 -25 -119.5 -45.5t-120 -35.5t-109.5 -23t-87 -8h-17q-14 0 -21 8.5t-7 21.5v200q0 13 6.5 21.5t23.5 8.5h157q61 0 120.5 5t112 12.5t94.5 16.5t68 18q-24 13 -50.5 29t-53.5 34
t-53.5 36.5t-49.5 36.5q-64 48 -98 65t-42 17q-9 0 -19 -4.5t-23.5 -19.5t-32.5 -42.5t-44 -73.5q-13 0 -28.5 8.5t-25.5 23.5q47 108 84 173t65.5 100t50 46t39.5 11q12 0 26.5 -4t41 -20t71 -49t116.5 -91q63 -51 111 -87.5t87.5 -61t71.5 -39t63 -21.5t63.5 -9.5
t71.5 -2.5zM467 -322l-124 121l130 113l123 -122zM464 -558l-124 121l130 113l123 -121z" />
    <glyph glyph-name="uniFB75" unicode="&#x684;" horiz-adv-x="1244" arabic-form="medial" 
d="M1103 424q-25 0 -56 -4t-61 -10t-56 -12.5t-40 -13.5q11 -31 34.5 -55t62.5 -39.5t95.5 -22.5t134.5 -7h35q17 0 23.5 -8.5t6.5 -21.5v-200q0 -13 -6.5 -21.5t-21.5 -8.5h-16q-67 0 -130 14.5t-117.5 53.5t-99 106t-73.5 171q-27 -13 -59.5 -33.5t-68.5 -45t-72.5 -50.5
t-70.5 -50q-63 -45 -125 -76.5t-127 -51.5t-136 -29t-151 -9h-17q-14 0 -21 8.5t-7 21.5v200q0 13 6.5 21.5t23.5 8.5h160q78 0 146 11.5t129.5 32.5t118 51t110.5 67q-19 4 -49 13.5t-64.5 21.5t-71.5 26l-69 25q-33 13 -58.5 23.5t-38.5 16.5q-9 4 -21 7.5t-23.5 6.5
t-20.5 4.5t-13 1.5q-14 0 -27.5 -6t-28 -22t-30.5 -44.5t-35 -73.5q-17 0 -34.5 6t-27.5 20q45 116 76.5 186.5t57 109.5t47.5 51.5t47 12.5q12 0 27.5 -4t43 -15.5t70 -31.5t107.5 -52q108 -55 190 -78.5t131 -23.5q42 0 91 4.5t98 11.5t94.5 16t80.5 18zM591 -308
l-124 120l130 113l123 -121zM584 -544l-124 120l131 113l123 -121z" />
    <glyph glyph-name="uniFB76" unicode="&#x683;" horiz-adv-x="1232" arabic-form="isolated" 
d="M1129 -477q-54 -14 -123.5 -26t-145.5 -20.5t-152.5 -14t-144.5 -5.5q-49 0 -106 7t-114 23.5t-110 46t-93.5 73t-65 103.5t-24.5 141q0 80 33.5 163t98 161t157.5 149.5t211 131.5v3h-7q-17 2 -44.5 8t-55.5 12.5t-52.5 13t-36.5 11.5q-10 3 -22 6t-24 5.5t-22 4.5
t-14 2q-16 0 -30 -5t-29 -21.5t-30 -46.5t-32 -79q-17 0 -36 6t-29 14q35 88 62 150.5t47 104t35 65t27.5 35.5t23 15t21.5 3q37 0 81.5 -16.5t108 -37t151.5 -37.5t213 -17q66 0 110 1.5t73 3.5t46 4t31 4l-148 -233q-8 0 -23 1.5t-32.5 2t-34 1t-29.5 0.5q-63 0 -121 -12
t-118 -34q-63 -24 -122.5 -64t-107 -94t-76 -120t-28.5 -141q0 -92 41.5 -157t121.5 -107t197 -61.5t269 -19.5q31 0 70.5 1.5t80.5 3t80 5t69 7.5zM823 -97l-123 120l130 113l123 -121zM566 -94l-124 120l129 113l124 -122z" />
    <glyph glyph-name="uniFB77" unicode="&#x683;" horiz-adv-x="1244" arabic-form="final" 
d="M1065 438q-65 -1 -112.5 0t-76.5 4q13 -55 30 -90t52.5 -55.5t96.5 -28.5t161 -8h36q17 0 23.5 -8.5t6.5 -21.5v-200q0 -13 -7 -21.5t-22 -8.5h-16q-97 0 -173.5 26t-132 79.5t-90.5 137.5t-49 200q-61 -22 -122.5 -51.5t-118.5 -65.5t-107.5 -78t-87.5 -87t-58.5 -94
t-21.5 -99q0 -69 29.5 -130.5t99.5 -107.5t187.5 -73t292.5 -27q50 0 99 1t93 3t80 4t61 6l-75 -123q-99 -29 -251.5 -46.5t-343.5 -17.5q-133 0 -227 33.5t-154.5 89.5t-88.5 129t-28 153t35.5 159.5t107 155t178 146t248.5 133.5v3q-17 2 -46 8t-59 12.5t-56 13t-38 10.5
q-9 3 -24.5 6.5t-31 6t-29 4.5t-16.5 2q-17 0 -31 -5t-28.5 -20.5t-29.5 -45.5t-32 -79q-17 0 -36.5 6t-29.5 16q36 88 62.5 149.5t46.5 102.5t35 64.5t27.5 35.5t23 14.5t22.5 2.5q37 0 84.5 -17t114.5 -37.5t158.5 -38t217.5 -17.5q106 0 176.5 5t93.5 10zM755 -107
l-124 121l131 113l123 -122zM497 -103l-124 120l130 113l124 -122z" />
    <glyph glyph-name="uniFB78" unicode="&#x683;" horiz-adv-x="1032" arabic-form="initial" 
d="M857 157q-49 14 -87.5 18t-80.5 4q-24 0 -53 -5t-61 -15t-65 -21.5t-66 -25.5q-58 -25 -119.5 -45.5t-120 -35.5t-109.5 -23t-87 -8h-17q-14 0 -21 8.5t-7 21.5v200q0 13 6.5 21.5t23.5 8.5h157q61 0 120.5 5t112 12.5t94.5 16.5t68 18q-24 13 -50.5 29t-53.5 34
t-53.5 36.5t-49.5 36.5q-64 48 -98 65t-42 17q-9 0 -19 -4.5t-23.5 -19.5t-32.5 -42.5t-44 -73.5q-13 0 -28.5 8.5t-25.5 23.5q47 108 84 173t65.5 100t50 46t39.5 11q12 0 26.5 -4t41 -20t71 -49t116.5 -91q63 -51 111 -87.5t87.5 -61t71.5 -39t63 -21.5t63.5 -9.5
t71.5 -2.5zM596 -333l-124 121l131 113l123 -121zM338 -329l-124 120l130 113l124 -122z" />
    <glyph glyph-name="uniFB79" unicode="&#x683;" horiz-adv-x="1244" arabic-form="medial" 
d="M1103 424q-25 0 -56 -4t-61 -10t-56 -12.5t-40 -13.5q11 -31 34.5 -55t62.5 -39.5t95.5 -22.5t134.5 -7h35q17 0 23.5 -8.5t6.5 -21.5v-200q0 -13 -6.5 -21.5t-21.5 -8.5h-16q-67 0 -130 14.5t-117.5 53.5t-99 106t-73.5 171q-27 -13 -59.5 -33.5t-68.5 -45t-72.5 -50.5
t-70.5 -50q-63 -45 -125 -76.5t-127 -51.5t-136 -29t-151 -9h-17q-14 0 -21 8.5t-7 21.5v200q0 13 6.5 21.5t23.5 8.5h160q78 0 146 11.5t129.5 32.5t118 51t110.5 67q-19 4 -49 13.5t-64.5 21.5t-71.5 26l-69 25q-33 13 -58.5 23.5t-38.5 16.5q-9 4 -21 7.5t-23.5 6.5
t-20.5 4.5t-13 1.5q-14 0 -27.5 -6t-28 -22t-30.5 -44.5t-35 -73.5q-17 0 -34.5 6t-27.5 20q45 116 76.5 186.5t57 109.5t47.5 51.5t47 12.5q12 0 27.5 -4t43 -15.5t70 -31.5t107.5 -52q108 -55 190 -78.5t131 -23.5q42 0 91 4.5t98 11.5t94.5 16t80.5 18zM716 -319
l-123 120l130 113l123 -121zM459 -315l-124 120l129 113l124 -122z" />
    <glyph glyph-name="uniFB7A" unicode="&#x686;" horiz-adv-x="1232" arabic-form="isolated" 
d="M1129 -477q-54 -14 -123.5 -26t-145.5 -20.5t-152.5 -14t-144.5 -5.5q-49 0 -106 7t-114 23.5t-110 46t-93.5 73t-65 103.5t-24.5 141q0 80 33.5 163t98 161t157.5 149.5t211 131.5v3h-7q-17 2 -44.5 8t-55.5 12.5t-52.5 13t-36.5 11.5q-10 3 -22 6t-24 5.5t-22 4.5
t-14 2q-16 0 -30 -5t-29 -21.5t-30 -46.5t-32 -79q-17 0 -36 6t-29 14q35 88 62 150.5t47 104t35 65t27.5 35.5t23 15t21.5 3q37 0 81.5 -16.5t108 -37t151.5 -37.5t213 -17q66 0 110 1.5t73 3.5t46 4t31 4l-148 -233q-8 0 -23 1.5t-32.5 2t-34 1t-29.5 0.5q-63 0 -121 -12
t-118 -34q-63 -24 -122.5 -64t-107 -94t-76 -120t-28.5 -141q0 -92 41.5 -157t121.5 -107t197 -61.5t269 -19.5q31 0 70.5 1.5t80.5 3t80 5t69 7.5zM823 -25l-123 121l130 113l123 -122zM566 -21l-124 120l129 113l124 -122zM691 -250l-124 121l131 113l123 -122z" />
    <glyph glyph-name="uniFB7B" unicode="&#x686;" horiz-adv-x="1244" arabic-form="final" 
d="M1065 438q-65 -1 -112.5 0t-76.5 4q13 -55 30 -90t52.5 -55.5t96.5 -28.5t161 -8h36q17 0 23.5 -8.5t6.5 -21.5v-200q0 -13 -7 -21.5t-22 -8.5h-16q-97 0 -173.5 26t-132 79.5t-90.5 137.5t-49 200q-61 -22 -122.5 -51.5t-118.5 -65.5t-107.5 -78t-87.5 -87t-58.5 -94
t-21.5 -99q0 -69 29.5 -130.5t99.5 -107.5t187.5 -73t292.5 -27q50 0 99 1t93 3t80 4t61 6l-75 -123q-99 -29 -251.5 -46.5t-343.5 -17.5q-133 0 -227 33.5t-154.5 89.5t-88.5 129t-28 153t35.5 159.5t107 155t178 146t248.5 133.5v3q-17 2 -46 8t-59 12.5t-56 13t-38 10.5
q-9 3 -24.5 6.5t-31 6t-29 4.5t-16.5 2q-17 0 -31 -5t-28.5 -20.5t-29.5 -45.5t-32 -79q-17 0 -36.5 6t-29.5 16q36 88 62.5 149.5t46.5 102.5t35 64.5t27.5 35.5t23 14.5t22.5 2.5q37 0 84.5 -17t114.5 -37.5t158.5 -38t217.5 -17.5q106 0 176.5 5t93.5 10zM755 -61
l-124 120l131 113l123 -121zM497 -57l-124 120l130 113l124 -122zM623 -286l-124 120l130 113l123 -121z" />
    <glyph glyph-name="uniFB7C" unicode="&#x686;" horiz-adv-x="1032" arabic-form="initial" 
d="M857 157q-49 14 -87.5 18t-80.5 4q-24 0 -53 -5t-61 -15t-65 -21.5t-66 -25.5q-58 -25 -119.5 -45.5t-120 -35.5t-109.5 -23t-87 -8h-17q-14 0 -21 8.5t-7 21.5v200q0 13 6.5 21.5t23.5 8.5h157q61 0 120.5 5t112 12.5t94.5 16.5t68 18q-24 13 -50.5 29t-53.5 34
t-53.5 36.5t-49.5 36.5q-64 48 -98 65t-42 17q-9 0 -19 -4.5t-23.5 -19.5t-32.5 -42.5t-44 -73.5q-13 0 -28.5 8.5t-25.5 23.5q47 108 84 173t65.5 100t50 46t39.5 11q12 0 26.5 -4t41 -20t71 -49t116.5 -91q63 -51 111 -87.5t87.5 -61t71.5 -39t63 -21.5t63.5 -9.5
t71.5 -2.5zM596 -333l-124 121l131 113l123 -121zM338 -329l-124 120l130 113l124 -122zM464 -558l-124 121l130 113l123 -121z" />
    <glyph glyph-name="uniFB7D" unicode="&#x686;" horiz-adv-x="1244" arabic-form="medial" 
d="M1103 424q-25 0 -56 -4t-61 -10t-56 -12.5t-40 -13.5q11 -31 34.5 -55t62.5 -39.5t95.5 -22.5t134.5 -7h35q17 0 23.5 -8.5t6.5 -21.5v-200q0 -13 -6.5 -21.5t-21.5 -8.5h-16q-67 0 -130 14.5t-117.5 53.5t-99 106t-73.5 171q-27 -13 -59.5 -33.5t-68.5 -45t-72.5 -50.5
t-70.5 -50q-63 -45 -125 -76.5t-127 -51.5t-136 -29t-151 -9h-17q-14 0 -21 8.5t-7 21.5v200q0 13 6.5 21.5t23.5 8.5h160q78 0 146 11.5t129.5 32.5t118 51t110.5 67q-19 4 -49 13.5t-64.5 21.5t-71.5 26l-69 25q-33 13 -58.5 23.5t-38.5 16.5q-9 4 -21 7.5t-23.5 6.5
t-20.5 4.5t-13 1.5q-14 0 -27.5 -6t-28 -22t-30.5 -44.5t-35 -73.5q-17 0 -34.5 6t-27.5 20q45 116 76.5 186.5t57 109.5t47.5 51.5t47 12.5q12 0 27.5 -4t43 -15.5t70 -31.5t107.5 -52q108 -55 190 -78.5t131 -23.5q42 0 91 4.5t98 11.5t94.5 16t80.5 18zM584 -544
l-124 120l131 113l123 -121zM716 -319l-123 120l130 113l123 -121zM459 -315l-124 120l129 113l124 -122z" />
    <glyph glyph-name="uniFB7E" unicode="&#x687;" horiz-adv-x="1232" arabic-form="isolated" 
d="M1129 -477q-54 -14 -123.5 -26t-145.5 -20.5t-152.5 -14t-144.5 -5.5q-49 0 -106 7t-114 23.5t-110 46t-93.5 73t-65 103.5t-24.5 141q0 80 33.5 163t98 161t157.5 149.5t211 131.5v3h-7q-17 2 -44.5 8t-55.5 12.5t-52.5 13t-36.5 11.5q-10 3 -22 6t-24 5.5t-22 4.5
t-14 2q-16 0 -30 -5t-29 -21.5t-30 -46.5t-32 -79q-17 0 -36 6t-29 14q35 88 62 150.5t47 104t35 65t27.5 35.5t23 15t21.5 3q37 0 81.5 -16.5t108 -37t151.5 -37.5t213 -17q66 0 110 1.5t73 3.5t46 4t31 4l-148 -233q-8 0 -23 1.5t-32.5 2t-34 1t-29.5 0.5q-63 0 -121 -12
t-118 -34q-63 -24 -122.5 -64t-107 -94t-76 -120t-28.5 -141q0 -92 41.5 -157t121.5 -107t197 -61.5t269 -19.5q31 0 70.5 1.5t80.5 3t80 5t69 7.5zM821 -236l-124 120l130 113l123 -121zM563 -232l-124 120l129 113l124 -122zM823 3l-123 120l130 113l123 -121zM566 6
l-124 121l129 113l124 -122z" />
    <glyph glyph-name="uniFB7F" unicode="&#x687;" horiz-adv-x="1244" arabic-form="final" 
d="M1065 438q-65 -1 -112.5 0t-76.5 4q13 -55 30 -90t52.5 -55.5t96.5 -28.5t161 -8h36q17 0 23.5 -8.5t6.5 -21.5v-200q0 -13 -7 -21.5t-22 -8.5h-16q-97 0 -173.5 26t-132 79.5t-90.5 137.5t-49 200q-61 -22 -122.5 -51.5t-118.5 -65.5t-107.5 -78t-87.5 -87t-58.5 -94
t-21.5 -99q0 -69 29.5 -130.5t99.5 -107.5t187.5 -73t292.5 -27q50 0 99 1t93 3t80 4t61 6l-75 -123q-99 -29 -251.5 -46.5t-343.5 -17.5q-133 0 -227 33.5t-154.5 89.5t-88.5 129t-28 153t35.5 159.5t107 155t178 146t248.5 133.5v3q-17 2 -46 8t-59 12.5t-56 13t-38 10.5
q-9 3 -24.5 6.5t-31 6t-29 4.5t-16.5 2q-17 0 -31 -5t-28.5 -20.5t-29.5 -45.5t-32 -79q-17 0 -36.5 6t-29.5 16q36 88 62.5 149.5t46.5 102.5t35 64.5t27.5 35.5t23 14.5t22.5 2.5q37 0 84.5 -17t114.5 -37.5t158.5 -38t217.5 -17.5q106 0 176.5 5t93.5 10zM728 -223
l-110 106l115 101l110 -108zM499 -220l-110 107l115 100l110 -108zM731 -15l-111 107l116 100l109 -107zM501 -11l-109 107l114 100l111 -109z" />
    <glyph glyph-name="uniFB80" unicode="&#x687;" horiz-adv-x="1032" arabic-form="initial" 
d="M857 157q-49 14 -87.5 18t-80.5 4q-24 0 -53 -5t-61 -15t-65 -21.5t-66 -25.5q-58 -25 -119.5 -45.5t-120 -35.5t-109.5 -23t-87 -8h-17q-14 0 -21 8.5t-7 21.5v200q0 13 6.5 21.5t23.5 8.5h157q61 0 120.5 5t112 12.5t94.5 16.5t68 18q-24 13 -50.5 29t-53.5 34
t-53.5 36.5t-49.5 36.5q-64 48 -98 65t-42 17q-9 0 -19 -4.5t-23.5 -19.5t-32.5 -42.5t-44 -73.5q-13 0 -28.5 8.5t-25.5 23.5q47 108 84 173t65.5 100t50 46t39.5 11q12 0 26.5 -4t41 -20t71 -49t116.5 -91q63 -51 111 -87.5t87.5 -61t71.5 -39t63 -21.5t63.5 -9.5
t71.5 -2.5zM591 -566l-124 121l130 112l123 -121zM333 -562l-124 120l129 113l124 -122zM596 -333l-124 121l131 113l123 -121zM338 -329l-124 120l130 113l124 -122z" />
    <glyph glyph-name="uniFB81" unicode="&#x687;" horiz-adv-x="1244" arabic-form="medial" 
d="M1103 424q-25 0 -56 -4t-61 -10t-56 -12.5t-40 -13.5q11 -31 34.5 -55t62.5 -39.5t95.5 -22.5t134.5 -7h35q17 0 23.5 -8.5t6.5 -21.5v-200q0 -13 -6.5 -21.5t-21.5 -8.5h-16q-67 0 -130 14.5t-117.5 53.5t-99 106t-73.5 171q-27 -13 -59.5 -33.5t-68.5 -45t-72.5 -50.5
t-70.5 -50q-63 -45 -125 -76.5t-127 -51.5t-136 -29t-151 -9h-17q-14 0 -21 8.5t-7 21.5v200q0 13 6.5 21.5t23.5 8.5h160q78 0 146 11.5t129.5 32.5t118 51t110.5 67q-19 4 -49 13.5t-64.5 21.5t-71.5 26l-69 25q-33 13 -58.5 23.5t-38.5 16.5q-9 4 -21 7.5t-23.5 6.5
t-20.5 4.5t-13 1.5q-14 0 -27.5 -6t-28 -22t-30.5 -44.5t-35 -73.5q-17 0 -34.5 6t-27.5 20q45 116 76.5 186.5t57 109.5t47.5 51.5t47 12.5q12 0 27.5 -4t43 -15.5t70 -31.5t107.5 -52q108 -55 190 -78.5t131 -23.5q42 0 91 4.5t98 11.5t94.5 16t80.5 18zM716 -555
l-123 120l130 113l123 -121zM459 -551l-124 120l129 113l124 -122zM716 -319l-123 120l130 113l123 -121zM459 -315l-124 120l129 113l124 -122z" />
    <glyph glyph-name="uniFB82" unicode="&#x68d;" horiz-adv-x="753" arabic-form="isolated" 
d="M693 397q-2 -99 -55 -315q-141 -103 -349 -103q-138 0 -217 57q0 61 19 163q17 93 29 122q-1 0 16 2q20 0 30 -10q-2 -5 -2 -26q0 -22 4 -29q43 -38 148 -38q71 0 148 21q81 23 110 54q-26 126 -117.5 198.5t-263.5 109.5l49 289q229 -86 347 -226q109 -127 104 -269z
M620 -258l-123 -121l-130 113l124 120zM363 -261l-124 -122l-130 113l124 121z" />
    <glyph glyph-name="uniFB83" unicode="&#x68d;" horiz-adv-x="850" arabic-form="final" 
d="M888 30q0 -30 -27 -30h-18q-141 0 -208 231h-4q-3 -27 -29 -95.5t-44 -98.5q-148 -58 -281 -58q-138 0 -208 67q-1 60 19 171q17 96 29 130q4 0 10 1t8 1q21 -4 28 -9q-2 -6 -2 -27q0 -22 4 -30q61 -52 169 -52q171 0 267 60q-68 271 -178 401l144 200q65 -67 118 -329
q62 -303 138 -303h36q29 0 29 -30v-200zM603 -258l-123 -121l-130 113l123 120zM345 -261l-124 -122l-129 113l124 121z" />
    <glyph glyph-name="uniFB84" unicode="&#x68c;" horiz-adv-x="753" arabic-form="isolated" 
d="M694 397q-3 -99 -56 -315q-140 -103 -349 -103q-138 0 -217 57q0 61 19 163q17 93 29 122l16 2q20 0 30 -10q-2 -5 -2 -26q0 -22 4 -29q44 -38 148 -38q71 0 148 21q81 23 110 54q-26 126 -117 198.5t-264 109.5l50 289q228 -86 347 -226q108 -127 104 -269zM534 1142
l-123 -121l-130 113l124 120zM276 1140l-124 -122l-129 113l124 120z" />
    <glyph glyph-name="uniFB85" unicode="&#x68c;" horiz-adv-x="850" arabic-form="final" 
d="M888 30q0 -30 -27 -30h-18q-141 0 -208 231h-4q-3 -27 -29 -95.5t-44 -98.5q-148 -58 -281 -58q-138 0 -208 67q-1 60 19 171q17 96 29 130q4 0 10 1t8 1q21 -4 28 -9q-2 -6 -2 -27q0 -22 4 -30q61 -52 169 -52q171 0 267 60q-68 271 -178 401l144 200q65 -67 118 -329
q62 -303 138 -303h36q29 0 29 -30v-200zM799 1142l-123 -121l-131 113l124 120zM541 1140l-124 -122l-129 113l123 120z" />
    <glyph glyph-name="uniFB86" unicode="&#x68e;" horiz-adv-x="753" arabic-form="isolated" 
d="M694 397q-3 -99 -56 -315q-140 -103 -349 -103q-137 0 -216 57q0 61 19 163q16 93 29 122q-1 0 15 2q20 0 30 -10q-1 -5 -1 -26q0 -22 3 -29q44 -38 149 -38q71 0 147 21q81 23 111 54q-27 126 -118 198.5t-263 109.5l49 289q229 -86 347 -226q108 -127 104 -269z
M538 1152l-123 -122l-130 113l124 121zM280 1149l-124 -122l-129 113l124 120zM406 1377l-123 -122l-130 113l124 121z" />
    <glyph glyph-name="uniFB87" unicode="&#x68e;" horiz-adv-x="850" arabic-form="final" 
d="M888 30q0 -30 -27 -30h-18q-141 0 -208 231h-4q-3 -27 -29 -95.5t-44 -98.5q-148 -58 -281 -58q-138 0 -208 67q-1 60 19 171q17 96 29 130q4 0 10 1t8 1q21 -4 28 -9q-2 -6 -2 -27q0 -22 4 -30q61 -52 169 -52q171 0 267 60q-68 271 -178 401l144 200q65 -67 118 -329
q62 -303 138 -303h36q29 0 29 -30v-200zM784 1133l-123 -121l-130 113l124 120zM526 1131l-124 -122l-129 112l124 121zM652 1358l-123 -121l-130 113l124 120z" />
    <glyph glyph-name="uniFB88" unicode="&#x688;" horiz-adv-x="753" arabic-form="isolated" 
d="M694 397q-3 -99 -56 -315q-140 -103 -349 -103q-137 0 -216 57q0 61 19 163q16 93 29 122q-1 0 15 2q20 0 30 -10q-1 -5 -1 -26q0 -22 3 -29q44 -38 149 -38q71 0 147 21q81 23 111 54q-27 126 -118 198.5t-263 109.5l49 289q229 -86 347 -226q109 -127 104 -269z
M321 1336l-2 -5l-59 14q2 -13 2 -27v-26q0 -23 -1 -44t-3 -42l2 -1q31 43 63.5 66.5t69.5 23.5q34 0 65 -23.5t40 -72.5q0 -9 -3.5 -23.5t-9 -31t-12 -32t-12.5 -26.5q-40 -44 -97.5 -66t-129.5 -22q-30 0 -57 3l-108 118q33 -8 64 -12.5t60 -5.5q0 82 -4.5 155.5
t-31.5 131.5l80 80zM362 1201q-34 0 -66 -27.5t-60 -74.5q68 2 117 15.5t78 39.5q-28 47 -69 47z" />
    <glyph glyph-name="uniFB89" unicode="&#x688;" horiz-adv-x="850" arabic-form="final" 
d="M888 30q0 -30 -27 -30h-18q-141 0 -208 231h-4q-3 -27 -29 -95.5t-44 -98.5q-148 -58 -281 -58q-138 0 -208 67q-1 60 19 171q17 96 29 130q4 0 10 1t8 1q21 -4 28 -9q-2 -6 -2 -27q0 -22 4 -30q61 -52 169 -52q171 0 267 60q-68 271 -178 401l144 200q65 -67 118 -329
q62 -303 138 -303h36q29 0 29 -30v-200zM540 1318l-3 -5l-58 13q2 -12 2 -26v-26q0 -23 -1 -44t-3 -42l2 -1q31 43 63.5 66t69.5 23q34 0 65 -23t40 -72q0 -9 -4 -24t-9.5 -31t-11.5 -31.5t-13 -26.5q-40 -44 -97.5 -66t-129.5 -22q-30 0 -57 3l-107 118q32 -8 63 -12.5
t60 -6.5q0 82 -4.5 156t-30.5 131l79 80zM581 1183q-35 0 -66.5 -27.5t-60.5 -75.5q69 3 118 16.5t77 39.5q-27 47 -68 47z" />
    <glyph glyph-name="uniFB8A" unicode="&#x698;" horiz-adv-x="721" arabic-form="isolated" 
d="M470 479q63 -81 108.5 -180t71.5 -212q-26 -175 -105 -331t-203 -290q-71 16 -124 30.5t-92.5 29.5t-69.5 31.5t-56 36.5q204 95 331.5 201t186.5 205q-8 26 -25.5 54.5t-42 57.5t-54 58t-60.5 54zM676 742l-123 -122l-130 113l124 121zM418 739l-124 -122l-129 113
l124 120zM544 967l-123 -122l-130 113l124 121z" />
    <glyph glyph-name="uniFB8B" unicode="&#x698;" horiz-adv-x="800" arabic-form="final" 
d="M466 479q67 -76 111.5 -120t77.5 -66t59.5 -27.5t58.5 -5.5h35q16 0 23 -8.5t7 -21.5v-200q0 -13 -7 -21.5t-21 -8.5h-17q-7 0 -21 3.5t-32.5 11.5t-40 18.5t-42.5 23.5q-10 -69 -30.5 -137t-57 -140t-92.5 -149t-137 -165q-127 27 -210.5 63.5t-129.5 71.5
q105 44 188.5 91t149 96.5t113.5 103t83 112.5q-14 38 -36 71t-49 62t-56 53.5t-53 44.5zM681 742l-123 -122l-131 113l124 121zM423 739l-124 -122l-130 113l124 120zM548 967l-123 -122l-130 113l124 121z" />
    <glyph glyph-name="uniFB8C" unicode="&#x691;" horiz-adv-x="713" arabic-form="isolated" 
d="M470 479q63 -81 108.5 -180t71.5 -212q-26 -175 -105 -331t-203 -290q-71 16 -124 30.5t-92.5 29.5t-69.5 31.5t-56 36.5q204 95 331.5 201t186.5 205q-8 26 -25.5 54.5t-42 57.5t-54 58t-60.5 54zM449 972l-3 -5l-58 13q2 -12 2 -26v-27q0 -22 -1 -43t-3 -42l2 -1
q31 43 63.5 66t69.5 23q34 0 65 -23t40 -72q0 -10 -3.5 -24.5t-9 -31t-12 -32t-12.5 -25.5q-41 -44 -98 -66t-129 -22q-30 0 -58 3l-107 117q33 -7 64 -11.5t60 -6.5q0 82 -4.5 156t-31.5 131l79 80zM490 836q-34 0 -66 -27t-60 -75q68 3 117 16t77 40q-27 46 -68 46z" />
    <glyph glyph-name="uniFB8D" unicode="&#x691;" horiz-adv-x="800" arabic-form="final" 
d="M466 479q67 -76 111.5 -120t77.5 -66t59.5 -27.5t58.5 -5.5h35q16 0 23 -8.5t7 -21.5v-200q0 -13 -7 -21.5t-21 -8.5h-17q-7 0 -21 3.5t-32.5 11.5t-40 18.5t-42.5 23.5q-10 -69 -30.5 -137t-57 -140t-92.5 -149t-137 -165q-127 27 -210.5 63.5t-129.5 71.5
q105 44 188.5 91t149 96.5t113.5 103t83 112.5q-14 38 -36 71t-49 62t-56 53.5t-53 44.5zM449 972l-3 -5l-58 13q2 -12 2 -26v-27q0 -22 -1 -43t-3 -42l2 -1q31 43 63.5 66t69.5 23q34 0 65 -23t40 -72q0 -10 -3.5 -24.5t-9 -31t-12 -32t-12.5 -25.5q-41 -44 -98 -66
t-129 -22q-30 0 -58 3l-107 117q33 -7 64 -11.5t60 -6.5q0 82 -4.5 156t-31.5 131l79 80zM490 836q-34 0 -66 -27t-60 -75q68 3 117 16t77 40q-27 46 -68 46z" />
    <glyph glyph-name="uniFB8E" unicode="&#x6a9;" horiz-adv-x="1574" arabic-form="isolated" 
d="M1224 343q-4 -46 -8.5 -85t-9.5 -62q-20 -22 -47 -45.5t-58.5 -46.5t-65.5 -41t-68 -29q-80 -26 -178.5 -35.5t-235.5 -9.5q-119 0 -207 14.5t-147 48t-88.5 86.5t-29.5 131q0 79 31 174.5t83 192.5q9 6 18 6q11 0 26 -8.5t26 -24.5q-16 -30 -27 -55.5t-17.5 -47.5
t-9 -42t-2.5 -40q0 -40 15 -70.5t59 -51t126 -31.5t217 -11t225.5 5.5t148.5 16t89 26t46 35.5q-15 47 -41.5 88.5t-69.5 80t-104.5 74t-146.5 69.5q0 46 3.5 97t8.5 97.5t11.5 85.5t12.5 60q40 25 100.5 56.5t131.5 64t147 63.5t145.5 56.5t128 43t95.5 23.5l-118 -255
q-29 -7 -72.5 -21t-95 -32.5t-106.5 -40.5t-108.5 -44.5t-100.5 -44t-81 -40.5q58 -16 116 -48.5t108 -72t86 -82.5t48 -82v-38.5t-1.5 -48.5t-3 -53.5t-4.5 -55.5z" />
    <glyph glyph-name="uniFB8F" unicode="&#x6a9;" horiz-adv-x="1686" arabic-form="final" 
d="M1723 34q0 -13 -7 -21.5t-22 -8.5h-16q-32 0 -64.5 8.5t-64.5 28t-66 51t-68 77.5q-26 34 -53 67.5t-53 62t-49.5 51t-40.5 34.5q0 -50 -3 -93.5t-13 -94.5q-19 -22 -45.5 -45.5t-57.5 -46.5t-65 -41t-68 -29q-80 -26 -178.5 -35.5t-235.5 -9.5q-119 0 -207 14.5t-147 48
t-88.5 86.5t-29.5 131q0 79 31 174.5t83 192.5q9 6 18 6q11 0 26 -8.5t26 -24.5q-16 -30 -27 -55.5t-17.5 -47.5t-9 -42t-2.5 -40q0 -40 15 -70.5t59 -51t126 -31.5t217 -11t225.5 5.5t149 16t90 26t48.5 35.5q-34 102 -121.5 179t-240.5 137q0 46 3 94.5t8 92t11.5 79
t13.5 56.5q37 29 99.5 63t137.5 67.5t155.5 66t155.5 59t136 44t97 23.5l-114 -250q-24 -4 -67.5 -17.5t-97 -32t-113 -41t-116.5 -46.5t-107 -47.5t-84 -43.5q66 -25 142 -72t149.5 -103t138 -114.5t109.5 -107.5q46 -52 81 -84.5t62 -50.5t46.5 -24.5t33.5 -6.5h36
q17 0 23.5 -8t6.5 -22v-199z" />
    <glyph glyph-name="uniFB90" unicode="&#x6a9;" horiz-adv-x="828" arabic-form="initial" 
d="M387 342q-16 46 -42.5 87.5t-69 80t-104 74.5t-146.5 69q0 47 3 97.5t8 97.5t11.5 85.5t12.5 59.5q41 26 101.5 57t131.5 63.5t146.5 63.5t145 56.5t128 43.5t95.5 23l-117 -255q-29 -6 -73 -20.5t-95.5 -33t-106.5 -40.5t-108 -44t-100 -44t-81 -40q57 -17 115.5 -49
t108 -72t85.5 -83t49 -81q0 -17 -0.5 -39.5t-2 -48t-3 -53.5t-4.5 -55q-4 -46 -8.5 -84.5t-8.5 -59.5q-54 -59 -102 -97t-100 -60.5t-112 -31.5t-136 -9h-17q-14 0 -21 8.5t-7 21.5v200q0 13 6.5 21.5t23.5 8.5h69q74 0 128.5 5.5t93 16t63.5 26t40 34.5z" />
    <glyph glyph-name="uniFB91" unicode="&#x6a9;" horiz-adv-x="932" arabic-form="medial" 
d="M-37 230q0 13 6.5 21.5t23.5 8.5h34q150 0 240 21t120 59q-34 102 -121.5 178.5t-240.5 136.5q0 46 3 94.5t8 92.5t11.5 79.5t12.5 56.5q38 29 101 62.5t137.5 67.5t155 66t155.5 58.5t136 44.5t97 23l-114 -250q-24 -4 -67.5 -17.5t-97 -32t-113 -41t-116.5 -46.5
t-107 -47t-85 -43q67 -26 143 -73t149.5 -103t138 -114t109.5 -108q46 -51 81 -83.5t62 -51t46.5 -24.5t33.5 -6h36q17 0 23.5 -8.5t6.5 -21.5v-200q0 -13 -7 -21.5t-22 -8.5h-16q-32 0 -64.5 8.5t-64.5 28t-66 51t-68 78.5q-26 34 -53 67t-53 61.5t-49.5 51t-40.5 35.5
q3 -18 4 -32.5t1 -31.5q0 -7 -1 -21t-2 -31.5t-3 -35.5t-5 -33q-50 -54 -97.5 -91.5t-101 -60.5t-115.5 -33.5t-139 -10.5h-17q-14 0 -21 8.5t-7 21.5v200z" />
    <glyph glyph-name="uniFB92" unicode="&#x6af;" horiz-adv-x="1574" arabic-form="isolated" 
d="M1450 886q-36 -1 -85.5 -5.5t-104.5 -12.5t-113 -18t-113.5 -22.5t-104.5 -25.5t-85 -28v-3q57 -17 118 -42t115 -57t96.5 -69t61.5 -76q0 -33 -3 -80t-7 -95t-9.5 -90.5t-9.5 -65.5q-20 -22 -47 -45.5t-58.5 -46.5t-65.5 -41t-68 -29q-80 -26 -178.5 -35.5t-235.5 -9.5
q-119 0 -207 14.5t-147 48t-88.5 86.5t-29.5 131q0 79 31 174.5t83 192.5q9 6 18 6q11 0 26 -8.5t26 -24.5q-16 -30 -27 -55.5t-17.5 -47.5t-9 -42t-2.5 -40q0 -40 15 -70.5t59 -51t126 -31.5t217 -11t225.5 5.5t148.5 16t89 26t46 35.5q-12 37 -34.5 68t-64.5 60.5
t-107 60.5t-160 68q0 47 2.5 97t7 96t10 83.5t12.5 58.5q43 17 104 36.5t130.5 38.5t143.5 36.5t143 32t128.5 25.5t101.5 16zM931 1173q28 10 70 22.5t91 25.5t104 25t108.5 23t103.5 18.5t92 12.5l-42 -95q-37 -3 -84.5 -11t-99 -19t-104 -23t-100.5 -25.5t-87.5 -25.5
t-64.5 -22z" />
    <glyph glyph-name="uniFB93" unicode="&#x6af;" horiz-adv-x="1677" arabic-form="final" 
d="M936 1173q28 10 75 23.5t103 27.5t118 27.5t120.5 24t109 17t85.5 7.5l-43 -95q-23 -1 -67 -7t-99 -16.5t-116 -24t-118.5 -27.5t-105.5 -27t-76 -24zM1714 30q0 -13 -7.5 -21.5t-21.5 -8.5h-17q-32 0 -64 8.5t-64.5 28t-66 51t-67.5 78.5q-26 34 -53.5 67t-53 61.5
t-49 51t-40.5 35.5q3 -18 4 -32.5t1 -31.5q0 -7 -1 -21t-2 -31.5t-3.5 -35.5t-5.5 -33q-19 -22 -45.5 -45.5t-57.5 -46.5t-65 -41t-68 -29q-80 -26 -178.5 -35.5t-235.5 -9.5q-119 0 -207 14.5t-147 48t-88.5 86.5t-29.5 131q0 79 31 174.5t83 192.5q9 6 18 6q11 0 26 -8.5
t26 -24.5q-16 -30 -27 -55.5t-17.5 -47.5t-9 -42t-2.5 -40q0 -40 15 -70.5t59 -51t126 -31.5t217 -11t225.5 5.5t149 16t90 26t48.5 35.5q-12 37 -35 68t-65 60.5t-106.5 60.5t-160.5 68q0 47 3 97t7.5 96t10 83.5t11.5 58.5q39 16 97 35.5t127.5 39t145 38.5t149.5 34
t142.5 25t122.5 13l-102 -234q-38 1 -90 -2.5t-111.5 -11t-122 -18.5t-121 -24t-109 -27t-85.5 -29v-3q46 -11 97.5 -32.5t104.5 -49.5t106 -60.5t101.5 -67t90.5 -69.5t73 -67q92 -89 147 -127t86 -38h31q16 0 23 -8.5t7 -21.5v-200z" />
    </font>
</defs>
</svg>
