<?xml version="1.0" standalone="no"?>
<!DOCTYPE svg PUBLIC "-//W3C//DTD SVG 1.1//EN" "http://www.w3.org/Graphics/SVG/1.1/DTD/svg11.dtd" >
<svg xmlns="http://www.w3.org/2000/svg" xmlns:xlink="http://www.w3.org/1999/xlink" version="1.1">
<metadata>
Created by FontForge 20170731 at Sat Oct 22 03:06:56 2016
 By Aleksey,,,
(c)  2013 Bahij Virtual Academy. All rights reserved.
</metadata>
<defs>
<font id="BahijRoya-Bold" horiz-adv-x="971" >
  <font-face 
    font-family="Bahij Roya"
    font-weight="700"
    font-stretch="normal"
    units-per-em="2048"
    panose-1="2 4 7 3 6 2 1 2 2 3"
    ascent="1638"
    descent="-410"
    x-height="900"
    cap-height="1220"
    bbox="-290 -1252 4622 2142"
    underline-thickness="50"
    underline-position="-150"
    unicode-range="U+0020-FEFC"
  />
<missing-glyph horiz-adv-x="728" 
d="M0 0v1020h728v-1020h-728zM117 947l247 -372l248 372h-495zM655 881l-247 -371l247 -372v743zM612 73l-248 371l-247 -371h495zM73 138l247 372l-247 371v-743z" />
    <glyph glyph-name="uniFB01" unicode="fi" horiz-adv-x="1165" 
d="M206 729h-173v171h173v126q0 67 18.5 123.5t54.5 97t90 63t124 22.5q85 0 171 -20l-19 -193q-14 9 -25.5 15t-23 10t-24 5t-29.5 1q-30 0 -49.5 -12t-31.5 -31.5t-17 -44t-5 -50.5v-112h205v-171h-205v-729h-234v729zM804 900h234v-900h-234v900zM804 1288h234v-224h-234
v224z" />
    <glyph glyph-name="uniFB02" unicode="fl" horiz-adv-x="1165" 
d="M206 729h-173v171h173v126q0 67 18.5 123.5t54.5 97t90 63t124 22.5q85 0 171 -20l-19 -193q-14 9 -25.5 15t-23 10t-24 5t-29.5 1q-30 0 -49.5 -12t-31.5 -31.5t-17 -44t-5 -50.5v-112h205v-171h-205v-729h-234v729zM805 1311h235v-1311h-235v1311z" />
    <glyph glyph-name="uniFC31" unicode="&#xfed3;&#xfef0;" horiz-adv-x="1840" arabic-form="isolated" 
d="M1562 526q-6 22 -17.5 40.5t-24.5 32.5t-27 22t-25 8t-23 -8t-22.5 -20t-17.5 -25t-7 -23q0 -14 2.5 -27t10 -23t22.5 -16t41 -6q29 0 53 10.5t35 34.5zM1449 924l-180 120l133 177l180 -121zM1160 0q-19 1 -40 2q-29 2 -57.5 4.5t-55.5 5t-47 4.5q-22 2 -41 2
q-30 0 -50 -4q-33 -7 -43 -17q-6 -5 -6 -10t5 -10q9 -10 35 -14q34 -6 71 -9.5t73 -9t68.5 -14t57.5 -23t39.5 -37t14.5 -56.5q0 -44 -37.5 -102t-111.5 -110t-183 -88t-252 -36q-101 0 -178.5 18t-134.5 49t-95 73t-61.5 91t-33 102.5t-9.5 106.5q0 31 6 70t18 81.5t29 86
t39 82.5l158 -54q-9 -15 -20.5 -43t-21 -59t-16 -61.5t-6.5 -51.5q0 -122 83.5 -188t254.5 -66h70q42 0 89.5 4t97 13.5t93.5 27.5q34 14 35 26q0 12 -31 15q-14 2 -44.5 3.5t-67.5 6t-76 13t-71.5 25t-53 42t-20.5 64.5q0 64 41.5 115.5t110 88.5t155.5 57t178 20h321
q64 0 99 13.5t50.5 32t18 38.5t2.5 32q-6 -7 -20.5 -14.5t-35 -14t-45 -10.5t-51.5 -4q-62 0 -100 19.5t-59 47.5t-28 60t-7 58q0 22 6.5 54t19.5 68.5t32.5 72.5t45 65t57 47t68.5 18q49 0 97 -37t86 -100.5t61.5 -147t23.5 -176.5q0 -82 -24 -148.5t-76.5 -113t-136 -71.5
t-203.5 -25h-160z" />
    <glyph glyph-name="uniFC32" unicode="&#xfed3;&#xfef2;" horiz-adv-x="1840" arabic-form="isolated" 
d="M737 -887l-137 99l-80 -113l-172 117l111 147l143 -98l80 112l164 -114zM1562 526q-6 22 -17.5 40.5t-24.5 32.5t-27 22t-25 8t-23 -8t-22.5 -20t-17.5 -25t-7 -23q0 -14 2.5 -27t10 -23t22.5 -16t41 -6q29 0 53 10.5t35 34.5zM1449 924l-180 120l133 177l180 -121z
M1160 0q-19 1 -40 2q-29 2 -57.5 4.5t-55.5 5t-47 4.5q-22 2 -41 2q-30 0 -50 -4q-33 -7 -43 -17q-6 -5 -6 -10t5 -10q9 -10 35 -14q34 -6 71 -9.5t73 -9t68.5 -14t57.5 -23t39.5 -37t14.5 -56.5q0 -44 -37.5 -102t-111.5 -110t-183 -88t-252 -36q-101 0 -178.5 18
t-134.5 49t-95 73t-61.5 91t-33 102.5t-9.5 106.5q0 31 6 70t18 81.5t29 86t39 82.5l158 -54q-9 -15 -20.5 -43t-21 -59t-16 -61.5t-6.5 -51.5q0 -122 83.5 -188t254.5 -66h70q42 0 89.5 4t97 13.5t93.5 27.5q34 14 35 26q0 12 -31 15q-14 2 -44.5 3.5t-67.5 6t-76 13
t-71.5 25t-53 42t-20.5 64.5q0 64 41.5 115.5t110 88.5t155.5 57t178 20h321q64 0 99 13.5t50.5 32t18 38.5t2.5 32q-6 -7 -20.5 -14.5t-35 -14t-45 -10.5t-51.5 -4q-62 0 -100 19.5t-59 47.5t-28 60t-7 58q0 22 6.5 54t19.5 68.5t32.5 72.5t45 65t57 47t68.5 18
q49 0 97 -37t86 -100.5t61.5 -147t23.5 -176.5q0 -82 -24 -148.5t-76.5 -113t-136 -71.5t-203.5 -25h-160z" />
    <glyph glyph-name="uniFC43" unicode="&#xfedf;&#xfef0;" horiz-adv-x="1655" arabic-form="isolated" 
d="M1170 0q-23 0 -50 2q-29 2 -57.5 4.5t-55.5 5t-47 4.5q-22 2 -41 2q-30 0 -50 -4q-33 -7 -43 -17q-6 -5 -6 -10t5 -10q9 -10 35 -14q34 -6 71 -9.5t73 -9t68.5 -14t57.5 -23t39.5 -37t14.5 -56.5q0 -44 -37.5 -102t-111.5 -110t-183 -88t-252 -36q-101 0 -178.5 18
t-134.5 49t-95 73t-61.5 91t-33 102.5t-9.5 106.5q0 31 6 70t18 81.5t29 86t39 82.5l158 -54q-9 -15 -20.5 -43t-21 -59t-16 -61.5t-6.5 -51.5q0 -122 83.5 -188t254.5 -66h70q42 0 89.5 4t97 13.5t93.5 27.5q34 14 35 26q0 12 -31 15q-14 2 -44.5 3.5t-67.5 6t-76 13
t-71.5 25t-53 42t-20.5 64.5q0 64 41.5 115.5t110 88.5t155.5 57t178 20h116q56 0 88 7.5t48 26.5t20 52q2 25 2 60v21l-25 748l203 82v-809q0 -48 -2 -98.5t-11 -97.5t-27.5 -88.5t-50 -72.5t-79 -49t-115.5 -18h-115z" />
    <glyph glyph-name="uniFC44" unicode="&#xfedf;&#xfef2;" horiz-adv-x="1655" arabic-form="isolated" 
d="M737 -887l-137 99l-80 -113l-172 117l111 147l143 -98l80 112l164 -114zM1170 0q-23 0 -50 2q-29 2 -57.5 4.5t-55.5 5t-47 4.5q-22 2 -41 2q-30 0 -50 -4q-33 -7 -43 -17q-6 -5 -6 -10t5 -10q9 -10 35 -14q34 -6 71 -9.5t73 -9t68.5 -14t57.5 -23t39.5 -37t14.5 -56.5
q0 -44 -37.5 -102t-111.5 -110t-183 -88t-252 -36q-101 0 -178.5 18t-134.5 49t-95 73t-61.5 91t-33 102.5t-9.5 106.5q0 31 6 70t18 81.5t29 86t39 82.5l158 -54q-9 -15 -20.5 -43t-21 -59t-16 -61.5t-6.5 -51.5q0 -122 83.5 -188t254.5 -66h70q42 0 89.5 4t97 13.5
t93.5 27.5q34 14 35 26q0 12 -31 15q-14 2 -44.5 3.5t-67.5 6t-76 13t-71.5 25t-53 42t-20.5 64.5q0 64 41.5 115.5t110 88.5t155.5 57t178 20h116q56 0 88 7.5t48 26.5t20 52q2 25 2 60v21l-25 748l203 82v-809q0 -48 -2 -98.5t-11 -97.5t-27.5 -88.5t-50 -72.5t-79 -49
t-115.5 -18h-115z" />
    <glyph glyph-name="uniFC64" unicode="&#xfe8c;&#xfeae;" horiz-adv-x="1354" arabic-form="final" 
d="M790 0q-31 1 -59 11q-32 11 -49 28q-7 -79 -47 -156.5t-113 -148.5l-5 -5q-57 -53 -118.5 -96t-122.5 -75.5t-114 -53.5l-160 125q130 64 230 129t167 126q25 22 44 39t44.5 52t30.5 70q1 10 1 20q0 23 -8 43q-11 28 -27.5 55.5t-35.5 52.5t-34 46l160 172q34 -56 60 -94
t51.5 -61t54 -33t67.5 -10h65q21 0 47.5 3t50.5 13.5t40 31.5t16 58v80l168 55v-51q0 -99 31.5 -144.5t91.5 -45.5h67v-236h-76q-32 0 -61.5 7.5t-54.5 21.5t-43.5 33.5t-28.5 43.5q-37 -51 -96 -78.5t-144 -27.5h-90zM876 618v78l105 43q-11 10 -20.5 19t-16 20.5t-10.5 26
t-4 35.5q0 34 15 63t38.5 51t51.5 34.5t54 12.5q37 0 69.5 -10t55.5 -33l-24 -63q-20 9 -50 12.5t-53 3.5q-11 0 -26 -4t-28.5 -11t-22.5 -17.5t-9 -22.5q0 -15 9.5 -28t26 -22.5t38.5 -14.5t47 -5q7 0 29 5.5t48 13.5t51.5 16t39.5 13v-111z" />
    <glyph glyph-name="uniFC67" unicode="&#xfe8c;&#xfee6;" horiz-adv-x="1774" arabic-form="final" 
d="M583 416l-180 121l133 176l181 -121zM1296 618v78l105 43q-11 10 -20.5 19t-16 20.5t-10.5 26t-4 35.5q0 34 15 63t38.5 51t51.5 34.5t54 12.5q37 0 69.5 -10t55.5 -33l-24 -63q-20 9 -50 12.5t-53 3.5q-11 0 -26 -4t-28.5 -11t-22.5 -17.5t-9 -22.5q0 -15 9.5 -28
t26 -22.5t38.5 -14.5t47 -5q7 0 29 5.5t48 13.5t51.5 16t39.5 13v-111zM1210 1q-10 0 -22 2q-20 3 -39.5 8.5t-35.5 13.5t-24 18q0 -114 -37 -216.5t-106.5 -180t-169.5 -123t-227 -45.5q-133 0 -221.5 42.5t-141 109.5t-74.5 149.5t-22 163.5q0 31 5.5 70t16 81t25.5 85
t35 83l155 -55q-5 -13 -13.5 -39.5t-17.5 -58t-15.5 -64t-6.5 -57.5q0 -62 18.5 -113t55 -87t91.5 -55.5t128 -19.5q81 0 144.5 24.5t107.5 66.5t67 97.5t23 118.5q0 36 -8.5 73.5t-22 72.5t-31.5 66.5t-36 56.5l174 166q15 -29 33 -66.5t42.5 -71.5t57.5 -57.5t78 -23.5h96
q21 0 47.5 3t50.5 13.5t40 31.5t16 58v80l168 55v-51q0 -99 31.5 -144.5t91.5 -45.5h67v-236h-76q-32 0 -61.5 7.5t-54.5 21.5t-43.5 33.5t-28.5 43.5q-37 -51 -96 -78.5t-144 -27.5h-90v1z" />
    <glyph glyph-name="uniFC6A" unicode="&#xfe92;&#xfeae;" horiz-adv-x="1364" arabic-form="final" 
d="M797 0q-35 0 -66.5 11t-48.5 28q-7 -79 -47 -156.5t-113 -148.5l-5 -5q-57 -53 -118.5 -96t-122.5 -75.5t-114 -53.5l-160 125q130 64 230 129t167 126q25 22 44 39t44.5 52t30.5 70q1 10 1 20q0 23 -8 43q-11 28 -27.5 55.5t-35.5 52.5t-34 46l160 172q34 -56 60 -94
t51.5 -61t54 -33t67.5 -10h75q21 0 47.5 3t50.5 13.5t40 31.5t16 58v80l168 55v-51q0 -99 31.5 -144.5t91.5 -45.5h67v-236h-76q-32 0 -61.5 7.5t-54.5 21.5t-43.5 33.5t-28.5 43.5q-37 -51 -96 -78.5t-144 -27.5h-93zM1078 -469l-181 121l131 178l181 -123z" />
    <glyph glyph-name="uniFC70" unicode="&#xfe98;&#xfeae;" horiz-adv-x="1474" arabic-form="final" 
d="M959 858l133 -88l78 104l156 -104l-107 -139l-133 88l-72 -105l-155 105zM797 0q-35 0 -66.5 11t-48.5 28q-7 -79 -47 -156.5t-113 -148.5l-5 -5q-57 -53 -118.5 -96t-122.5 -75.5t-114 -53.5l-160 125q130 64 230 129t167 126q25 22 44 39t44.5 52t30.5 70q1 10 1 20
q0 23 -8 43q-11 28 -27.5 55.5t-35.5 52.5t-34 46l160 172q34 -56 60 -94t51.5 -61t54 -33t67.5 -10h185q21 0 47.5 3t50.5 13.5t40 31.5t16 58v80l168 55v-51q0 -99 31.5 -144.5t91.5 -45.5h67v-236h-76q-32 0 -61.5 7.5t-54.5 21.5t-43.5 33.5t-28.5 43.5
q-37 -51 -96 -78.5t-144 -27.5h-203z" />
    <glyph glyph-name="uniFC86" unicode="&#xfee0;&#xfef0;" horiz-adv-x="1740" arabic-form="final" 
d="M1170 0q-23 0 -50 2q-29 2 -57.5 4.5t-55.5 5t-47 4.5q-22 2 -41 2q-30 0 -50 -4q-33 -7 -43 -17q-6 -5 -6 -10t5 -10q9 -10 35 -14q34 -6 71 -9.5t73 -9t68.5 -14t57.5 -23t39.5 -37t14.5 -56.5q0 -44 -37.5 -102t-111.5 -110t-183 -88t-252 -36q-101 0 -178.5 18
t-134.5 49t-95 73t-61.5 91t-33 102.5t-9.5 106.5q0 31 6 70t18 81.5t29 86t39 82.5l158 -54q-9 -15 -20.5 -43t-21 -59t-16 -61.5t-6.5 -51.5q0 -122 83.5 -188t254.5 -66h70q42 0 89.5 4t97 13.5t93.5 27.5q34 14 35 26q0 12 -31 15q-14 2 -44.5 3.5t-67.5 6t-76 13
t-71.5 25t-53 42t-20.5 64.5q0 64 41.5 115.5t110 88.5t155.5 57t178 20h116q58 0 90.5 7.5t48 26.5t18.5 52q1 23 1 54v27l-25 748l203 82v-809q0 -51 13.5 -87t35.5 -58.5t48.5 -32.5t53.5 -10h49v-236h-92q-35 0 -67 13t-58 32t-45 40.5t-26 39.5q-9 -18 -25.5 -39.5
t-41.5 -40.5t-57.5 -32t-72.5 -13h-115z" />
    <glyph glyph-name="uniFC87" unicode="&#xfee0;&#xfef2;" horiz-adv-x="1740" arabic-form="final" 
d="M737 -887l-137 99l-80 -113l-172 117l111 147l143 -98l80 112l164 -114zM1170 0q-23 0 -50 2q-29 2 -57.5 4.5t-55.5 5t-47 4.5q-22 2 -41 2q-30 0 -50 -4q-33 -7 -43 -17q-6 -5 -6 -10t5 -10q9 -10 35 -14q34 -6 71 -9.5t73 -9t68.5 -14t57.5 -23t39.5 -37t14.5 -56.5
q0 -44 -37.5 -102t-111.5 -110t-183 -88t-252 -36q-101 0 -178.5 18t-134.5 49t-95 73t-61.5 91t-33 102.5t-9.5 106.5q0 31 6 70t18 81.5t29 86t39 82.5l158 -54q-9 -15 -20.5 -43t-21 -59t-16 -61.5t-6.5 -51.5q0 -122 83.5 -188t254.5 -66h70q42 0 89.5 4t97 13.5
t93.5 27.5q34 14 35 26q0 12 -31 15q-14 2 -44.5 3.5t-67.5 6t-76 13t-71.5 25t-53 42t-20.5 64.5q0 64 41.5 115.5t110 88.5t155.5 57t178 20h116q58 0 90.5 7.5t48 26.5t18.5 52q1 23 1 54v27l-25 748l203 82v-809q0 -51 13.5 -87t35.5 -58.5t48.5 -32.5t53.5 -10h49v-236
h-92q-35 0 -67 13t-58 32t-45 40.5t-26 39.5q-9 -18 -25.5 -39.5t-41.5 -40.5t-57.5 -32t-72.5 -13h-115z" />
    <glyph glyph-name="uniFCCC" unicode="&#xfedf;&#xfee4;" horiz-adv-x="1315" arabic-form="initial" 
d="M517 166q0 21 -9 47t-23.5 49t-32 39t-35.5 16q-12 0 -27 -9.5t-28.5 -23t-24.5 -29.5t-16 -28q9 -8 25 -19.5t36 -23.5t42.5 -23t45.5 -18q7 -2 15 -2q2 -1 3 -1q6 0 12 2q7 2 12 8t5 16zM830 0q-27 0 -55 8q-30 7 -57 19.5t-48.5 28.5t-33.5 34q-5 -25 -15 -52.5
t-24 -50.5t-31.5 -38t-36.5 -15q-24 0 -54 8t-61.5 21t-62 29t-56.5 31t-44.5 27.5t-26.5 19.5q-13 -10 -34.5 -22.5t-47 -23t-53 -17.5t-53.5 -7h-66v236h52q43 0 83.5 6.5t63.5 27.5q11 11 27 32.5t36 47.5t43.5 53t48.5 49t51.5 36t53.5 14q46 0 85 -27.5t74.5 -65.5
t68 -78t65.5 -65q22 -17 49.5 -23.5t63.5 -6.5h59q56 0 88 7.5t48 26.5t20 52q2 25 2 60v21l-25 748l203 82v-809q0 -48 -2 -98.5t-11 -97.5t-27.5 -88.5t-50 -72.5t-79 -49t-115.5 -18h-115z" />
    <glyph glyph-name="uniFCFB" unicode="&#xfeb3;&#xfef0;" horiz-adv-x="2397" arabic-form="isolated" 
d="M1170 0q-23 0 -50 2q-29 2 -57.5 4.5t-55.5 5t-47 4.5q-22 2 -41 2q-30 0 -50 -4q-33 -7 -43 -17q-6 -5 -6 -10t5 -10q9 -10 35 -14q34 -6 71 -9.5t73 -9t68.5 -14t57.5 -23t39.5 -37t14.5 -56.5q0 -44 -37.5 -102t-111.5 -110t-183 -88t-252 -36q-101 0 -178.5 18
t-134.5 49t-95 73t-61.5 91t-33 102.5t-9.5 106.5q0 31 6 70t18 81.5t29 86t39 82.5l158 -54q-9 -15 -20.5 -43t-21 -59t-16 -61.5t-6.5 -51.5q0 -122 83.5 -188t254.5 -66h70q42 0 89.5 4t97 13.5t93.5 27.5q34 14 35 26q0 12 -31 15q-14 2 -44.5 3.5t-67.5 6t-76 13
t-71.5 25t-53 42t-20.5 64.5q0 64 41.5 115.5t110 88.5t155.5 57t178 20h134q25 0 48 7.5t41 22.5t29 37.5t11 52.5v60l144 47v-64q0 -35 7.5 -65t21.5 -52t33.5 -34t43.5 -12q12 0 35.5 0.5t47.5 12t42 38t18 78.5v79l146 43v-100q0 -35 10 -64t29 -50t45.5 -32.5
t58.5 -11.5q47 0 67.5 24t20.5 58q0 15 -6.5 35t-16 40t-22 37.5t-24.5 29.5l143 159q43 -48 68.5 -121t25.5 -159q0 -60 -18 -119.5t-51 -107.5t-80 -77.5t-105 -29.5q-89 0 -144.5 31t-84.5 77q-12 -20 -28 -39t-37 -34t-48.5 -24t-62.5 -9q-71 0 -124 29t-81 77
q-12 -21 -34.5 -40t-52 -33.5t-64.5 -23.5t-72 -9h-62z" />
    <glyph glyph-name="uniFCFC" unicode="&#xfeb3;&#xfef2;" horiz-adv-x="2397" arabic-form="isolated" 
d="M737 -887l-137 99l-80 -113l-172 117l111 147l143 -98l80 112l164 -114zM1170 0q-23 0 -50 2q-29 2 -57.5 4.5t-55.5 5t-47 4.5q-22 2 -41 2q-30 0 -50 -4q-33 -7 -43 -17q-6 -5 -6 -10t5 -10q9 -10 35 -14q34 -6 71 -9.5t73 -9t68.5 -14t57.5 -23t39.5 -37t14.5 -56.5
q0 -44 -37.5 -102t-111.5 -110t-183 -88t-252 -36q-101 0 -178.5 18t-134.5 49t-95 73t-61.5 91t-33 102.5t-9.5 106.5q0 31 6 70t18 81.5t29 86t39 82.5l158 -54q-9 -15 -20.5 -43t-21 -59t-16 -61.5t-6.5 -51.5q0 -122 83.5 -188t254.5 -66h70q42 0 89.5 4t97 13.5
t93.5 27.5q34 14 35 26q0 12 -31 15q-14 2 -44.5 3.5t-67.5 6t-76 13t-71.5 25t-53 42t-20.5 64.5q0 64 41.5 115.5t110 88.5t155.5 57t178 20h134q25 0 48 7.5t41 22.5t29 37.5t11 52.5v60l144 47v-64q0 -35 7.5 -65t21.5 -52t33.5 -34t43.5 -12q12 0 35.5 0.5t47.5 12
t42 38t18 78.5v79l146 43v-100q0 -35 10 -64t29 -50t45.5 -32.5t58.5 -11.5q47 0 67.5 24t20.5 58q0 15 -6.5 35t-16 40t-22 37.5t-24.5 29.5l143 159q43 -48 68.5 -121t25.5 -159q0 -60 -18 -119.5t-51 -107.5t-80 -77.5t-105 -29.5q-89 0 -144.5 31t-84.5 77
q-12 -20 -28 -39t-37 -34t-48.5 -24t-62.5 -9q-71 0 -124 29t-81 77q-12 -21 -34.5 -40t-52 -33.5t-64.5 -23.5t-72 -9h-62z" />
    <glyph glyph-name="uniFCFD" unicode="&#xfeb7;&#xfef0;" horiz-adv-x="2397" arabic-form="isolated" 
d="M1766 1139l144 -99l-101 -135l-147 96zM1686 915l134 -90l77 105l158 -105l-106 -137l-134 86l-73 -102l-156 102zM1170 0q-23 0 -50 2q-29 2 -57.5 4.5t-55.5 5t-47 4.5q-22 2 -41 2q-30 0 -50 -4q-33 -7 -43 -17q-6 -5 -6 -10t5 -10q9 -10 35 -14q34 -6 71 -9.5t73 -9
t68.5 -14t57.5 -23t39.5 -37t14.5 -56.5q0 -44 -37.5 -102t-111.5 -110t-183 -88t-252 -36q-101 0 -178.5 18t-134.5 49t-95 73t-61.5 91t-33 102.5t-9.5 106.5q0 31 6 70t18 81.5t29 86t39 82.5l158 -54q-9 -15 -20.5 -43t-21 -59t-16 -61.5t-6.5 -51.5q0 -122 83.5 -188
t254.5 -66h70q42 0 89.5 4t97 13.5t93.5 27.5q34 14 35 26q0 12 -31 15q-14 2 -44.5 3.5t-67.5 6t-76 13t-71.5 25t-53 42t-20.5 64.5q0 64 41.5 115.5t110 88.5t155.5 57t178 20h134q25 0 48 7.5t41 22.5t29 37.5t11 52.5v60l144 47v-64q0 -35 7.5 -65t21.5 -52t33.5 -34
t43.5 -12q12 0 35.5 0.5t47.5 12t42 38t18 78.5v79l146 43v-100q0 -35 10 -64t29 -50t45.5 -32.5t58.5 -11.5q47 0 67.5 24t20.5 58q0 15 -6.5 35t-16 40t-22 37.5t-24.5 29.5l143 159q43 -48 68.5 -121t25.5 -159q0 -60 -18 -119.5t-51 -107.5t-80 -77.5t-105 -29.5
q-89 0 -144.5 31t-84.5 77q-12 -20 -28 -39t-37 -34t-48.5 -24t-62.5 -9q-71 0 -124 29t-81 77q-12 -21 -34.5 -40t-52 -33.5t-64.5 -23.5t-72 -9h-62z" />
    <glyph glyph-name="uniFCFE" unicode="&#xfeb7;&#xfef2;" horiz-adv-x="2397" arabic-form="isolated" 
d="M737 -887l-137 99l-80 -113l-172 117l111 147l143 -98l80 112l164 -114zM1766 1139l144 -99l-101 -135l-147 96zM1686 915l134 -90l77 105l158 -105l-106 -137l-134 86l-73 -102l-156 102zM1170 0q-23 0 -50 2q-29 2 -57.5 4.5t-55.5 5t-47 4.5q-22 2 -41 2q-30 0 -50 -4
q-33 -7 -43 -17q-6 -5 -6 -10t5 -10q9 -10 35 -14q34 -6 71 -9.5t73 -9t68.5 -14t57.5 -23t39.5 -37t14.5 -56.5q0 -44 -37.5 -102t-111.5 -110t-183 -88t-252 -36q-101 0 -178.5 18t-134.5 49t-95 73t-61.5 91t-33 102.5t-9.5 106.5q0 31 6 70t18 81.5t29 86t39 82.5
l158 -54q-9 -15 -20.5 -43t-21 -59t-16 -61.5t-6.5 -51.5q0 -122 83.5 -188t254.5 -66h70q42 0 89.5 4t97 13.5t93.5 27.5q34 14 35 26q0 12 -31 15q-14 2 -44.5 3.5t-67.5 6t-76 13t-71.5 25t-53 42t-20.5 64.5q0 64 41.5 115.5t110 88.5t155.5 57t178 20h134q25 0 48 7.5
t41 22.5t29 37.5t11 52.5v60l144 47v-64q0 -35 7.5 -65t21.5 -52t33.5 -34t43.5 -12q12 0 35.5 0.5t47.5 12t42 38t18 78.5v79l146 43v-100q0 -35 10 -64t29 -50t45.5 -32.5t58.5 -11.5q47 0 67.5 24t20.5 58q0 15 -6.5 35t-16 40t-22 37.5t-24.5 29.5l143 159
q43 -48 68.5 -121t25.5 -159q0 -60 -18 -119.5t-51 -107.5t-80 -77.5t-105 -29.5q-89 0 -144.5 31t-84.5 77q-12 -20 -28 -39t-37 -34t-48.5 -24t-62.5 -9q-71 0 -124 29t-81 77q-12 -21 -34.5 -40t-52 -33.5t-64.5 -23.5t-72 -9h-62z" />
    <glyph glyph-name="uniFD05" unicode="&#xfebb;&#xfef0;" horiz-adv-x="2561" arabic-form="isolated" 
d="M2319 379q0 35 -38.5 59.5t-104.5 24.5q-36 0 -71.5 -13t-68.5 -33t-63.5 -45.5t-56.5 -50t-46.5 -46.5t-33.5 -35h100q76 0 145.5 10.5t122 29.5t84 44.5t31.5 54.5zM1170 0q-23 0 -50 2q-29 2 -57.5 4.5t-55.5 5t-47 4.5q-22 2 -41 2q-30 0 -50 -4q-33 -7 -43 -17
q-6 -5 -6 -10t5 -10q9 -10 35 -14q34 -6 71 -9.5t73 -9t68.5 -14t57.5 -23t39.5 -37t14.5 -56.5q0 -44 -37.5 -102t-111.5 -110t-183 -88t-252 -36q-101 0 -178.5 18t-134.5 49t-95 73t-61.5 91t-33 102.5t-9.5 106.5q0 31 6 70t18 81.5t29 86t39 82.5l158 -54
q-9 -15 -20.5 -43t-21 -59t-16 -61.5t-6.5 -51.5q0 -122 83.5 -188t254.5 -66h70q42 0 89.5 4t97 13.5t93.5 27.5q34 14 35 26q0 12 -31 15q-14 2 -44.5 3.5t-67.5 6t-76 13t-71.5 25t-53 42t-20.5 64.5q0 64 41.5 115.5t110 88.5t155.5 57t178 20h128q68 0 98.5 25.5
t30.5 90.5v70l158 45v-84q0 -48 6 -77t17 -44t27 -19.5t36 -4.5q25 0 49 18.5t47 46.5q10 12 36.5 45.5t65 76t87 88.5t101.5 84.5t109 63.5t109 25t100 -17t82.5 -48.5t56.5 -78t21 -104.5q0 -91 -43 -171t-120.5 -139t-185 -93.5t-237.5 -34.5h-202q-78 0 -136.5 19
t-95.5 73q-62 -92 -192 -92h-101z" />
    <glyph glyph-name="uniFD06" unicode="&#xfebb;&#xfef2;" horiz-adv-x="2561" arabic-form="isolated" 
d="M737 -887l-137 99l-80 -113l-172 117l111 147l143 -98l80 112l164 -114zM2319 379q0 35 -38.5 59.5t-104.5 24.5q-36 0 -71.5 -13t-68.5 -33t-63.5 -45.5t-56.5 -50t-46.5 -46.5t-33.5 -35h100q76 0 145.5 10.5t122 29.5t84 44.5t31.5 54.5zM1170 0q-23 0 -50 2
q-29 2 -57.5 4.5t-55.5 5t-47 4.5q-22 2 -41 2q-30 0 -50 -4q-33 -7 -43 -17q-6 -5 -6 -10t5 -10q9 -10 35 -14q34 -6 71 -9.5t73 -9t68.5 -14t57.5 -23t39.5 -37t14.5 -56.5q0 -44 -37.5 -102t-111.5 -110t-183 -88t-252 -36q-101 0 -178.5 18t-134.5 49t-95 73t-61.5 91
t-33 102.5t-9.5 106.5q0 31 6 70t18 81.5t29 86t39 82.5l158 -54q-9 -15 -20.5 -43t-21 -59t-16 -61.5t-6.5 -51.5q0 -122 83.5 -188t254.5 -66h70q42 0 89.5 4t97 13.5t93.5 27.5q34 14 35 26q0 12 -31 15q-14 2 -44.5 3.5t-67.5 6t-76 13t-71.5 25t-53 42t-20.5 64.5
q0 64 41.5 115.5t110 88.5t155.5 57t178 20h128q68 0 98.5 25.5t30.5 90.5v70l158 45v-84q0 -48 6 -77t17 -44t27 -19.5t36 -4.5q25 0 49 18.5t47 46.5q10 12 36.5 45.5t65 76t87 88.5t101.5 84.5t109 63.5t109 25t100 -17t82.5 -48.5t56.5 -78t21 -104.5q0 -91 -43 -171
t-120.5 -139t-185 -93.5t-237.5 -34.5h-202q-78 0 -136.5 19t-95.5 73q-62 -92 -192 -92h-101z" />
    <glyph glyph-name="uniFD07" unicode="&#xfebf;&#xfef0;" horiz-adv-x="2561" arabic-form="isolated" 
d="M2319 379q0 35 -38.5 59.5t-104.5 24.5q-36 0 -71.5 -13t-68.5 -33t-63.5 -45.5t-56.5 -50t-46.5 -46.5t-33.5 -35h100q76 0 145.5 10.5t122 29.5t84 44.5t31.5 54.5zM2065 815l-180 121l133 176l180 -121zM1170 0q-23 0 -50 2q-29 2 -57.5 4.5t-55.5 5t-47 4.5
q-22 2 -41 2q-30 0 -50 -4q-33 -7 -43 -17q-6 -5 -6 -10t5 -10q9 -10 35 -14q34 -6 71 -9.5t73 -9t68.5 -14t57.5 -23t39.5 -37t14.5 -56.5q0 -44 -37.5 -102t-111.5 -110t-183 -88t-252 -36q-101 0 -178.5 18t-134.5 49t-95 73t-61.5 91t-33 102.5t-9.5 106.5q0 31 6 70
t18 81.5t29 86t39 82.5l158 -54q-9 -15 -20.5 -43t-21 -59t-16 -61.5t-6.5 -51.5q0 -122 83.5 -188t254.5 -66h70q42 0 89.5 4t97 13.5t93.5 27.5q34 14 35 26q0 12 -31 15q-14 2 -44.5 3.5t-67.5 6t-76 13t-71.5 25t-53 42t-20.5 64.5q0 64 41.5 115.5t110 88.5t155.5 57
t178 20h128q68 0 98.5 25.5t30.5 90.5v70l158 45v-84q0 -48 6 -77t17 -44t27 -19.5t36 -4.5q25 0 49 18.5t47 46.5q10 12 36.5 45.5t65 76t87 88.5t101.5 84.5t109 63.5t109 25t100 -17t82.5 -48.5t56.5 -78t21 -104.5q0 -91 -43 -171t-120.5 -139t-185 -93.5t-237.5 -34.5
h-202q-78 0 -136.5 19t-95.5 73q-62 -92 -192 -92h-101z" />
    <glyph glyph-name="uniFD08" unicode="&#xfebf;&#xfef2;" horiz-adv-x="2561" arabic-form="isolated" 
d="M737 -887l-137 99l-80 -113l-172 117l111 147l143 -98l80 112l164 -114zM2319 379q0 35 -38.5 59.5t-104.5 24.5q-36 0 -71.5 -13t-68.5 -33t-63.5 -45.5t-56.5 -50t-46.5 -46.5t-33.5 -35h100q76 0 145.5 10.5t122 29.5t84 44.5t31.5 54.5zM2065 815l-180 121l133 176
l180 -121zM1170 0q-23 0 -50 2q-29 2 -57.5 4.5t-55.5 5t-47 4.5q-22 2 -41 2q-30 0 -50 -4q-33 -7 -43 -17q-6 -5 -6 -10t5 -10q9 -10 35 -14q34 -6 71 -9.5t73 -9t68.5 -14t57.5 -23t39.5 -37t14.5 -56.5q0 -44 -37.5 -102t-111.5 -110t-183 -88t-252 -36
q-101 0 -178.5 18t-134.5 49t-95 73t-61.5 91t-33 102.5t-9.5 106.5q0 31 6 70t18 81.5t29 86t39 82.5l158 -54q-9 -15 -20.5 -43t-21 -59t-16 -61.5t-6.5 -51.5q0 -122 83.5 -188t254.5 -66h70q42 0 89.5 4t97 13.5t93.5 27.5q34 14 35 26q0 12 -31 15q-14 2 -44.5 3.5
t-67.5 6t-76 13t-71.5 25t-53 42t-20.5 64.5q0 64 41.5 115.5t110 88.5t155.5 57t178 20h128q68 0 98.5 25.5t30.5 90.5v70l158 45v-84q0 -48 6 -77t17 -44t27 -19.5t36 -4.5q25 0 49 18.5t47 46.5q10 12 36.5 45.5t65 76t87 88.5t101.5 84.5t109 63.5t109 25t100 -17
t82.5 -48.5t56.5 -78t21 -104.5q0 -91 -43 -171t-120.5 -139t-185 -93.5t-237.5 -34.5h-202q-78 0 -136.5 19t-95.5 73q-62 -92 -192 -92h-101z" />
    <glyph glyph-name="uniFD0D" unicode="&#xfeb7;&#xfeae;" horiz-adv-x="2027" arabic-form="isolated" 
d="M797 0q-35 0 -66.5 11t-48.5 28q-7 -79 -47 -156.5t-113 -148.5l-5 -5q-57 -53 -118.5 -96t-122.5 -75.5t-114 -53.5l-160 125q130 64 230 129t167 126q25 22 44 39t44.5 52t30.5 70q1 10 1 20q0 23 -8 43q-11 28 -27.5 55.5t-35.5 52.5t-34 46l160 172q34 -56 60 -94
t51.5 -61t54 -33t67.5 -10h75q25 0 48 7.5t41 22.5t29 37.5t11 52.5v60l144 47v-64q0 -35 7.5 -65t21.5 -52t33.5 -34t43.5 -12q12 0 35.5 0.5t47.5 12t42 38t18 78.5v79l146 43v-100q0 -35 10 -64t29 -50t45.5 -32.5t58.5 -11.5q47 0 67.5 24t20.5 58q0 15 -6.5 35t-16 40
t-22 37.5t-24.5 29.5l143 159q43 -48 68.5 -121t25.5 -159q0 -60 -18 -119.5t-51 -107.5t-80 -77.5t-105 -29.5q-89 0 -144.5 31t-84.5 77q-12 -20 -28 -39t-37 -34t-48.5 -24t-62.5 -9q-71 0 -124 29t-81 77q-12 -21 -34.5 -40t-52 -33.5t-64.5 -23.5t-72 -9h-65z
M1396 1139l144 -99l-101 -135l-147 96zM1316 915l134 -90l77 105l158 -105l-106 -137l-134 86l-73 -102l-156 102z" />
    <glyph glyph-name="uniFD0E" unicode="&#xfeb3;&#xfeae;" horiz-adv-x="2027" arabic-form="isolated" 
d="M797 0q-35 0 -66.5 11t-48.5 28q-7 -79 -47 -156.5t-113 -148.5l-5 -5q-57 -53 -118.5 -96t-122.5 -75.5t-114 -53.5l-160 125q130 64 230 129t167 126q25 22 44 39t44.5 52t30.5 70q1 10 1 20q0 23 -8 43q-11 28 -27.5 55.5t-35.5 52.5t-34 46l160 172q34 -56 60 -94
t51.5 -61t54 -33t67.5 -10h75q25 0 48 7.5t41 22.5t29 37.5t11 52.5v60l144 47v-64q0 -35 7.5 -65t21.5 -52t33.5 -34t43.5 -12q12 0 35.5 0.5t47.5 12t42 38t18 78.5v79l146 43v-100q0 -35 10 -64t29 -50t45.5 -32.5t58.5 -11.5q47 0 67.5 24t20.5 58q0 15 -6.5 35t-16 40
t-22 37.5t-24.5 29.5l143 159q43 -48 68.5 -121t25.5 -159q0 -60 -18 -119.5t-51 -107.5t-80 -77.5t-105 -29.5q-89 0 -144.5 31t-84.5 77q-12 -20 -28 -39t-37 -34t-48.5 -24t-62.5 -9q-71 0 -124 29t-81 77q-12 -21 -34.5 -40t-52 -33.5t-64.5 -23.5t-72 -9h-65z" />
    <glyph glyph-name="uniFD0F" unicode="&#xfebb;&#xfeae;" horiz-adv-x="2191" arabic-form="isolated" 
d="M1949 379q0 35 -38.5 59.5t-104.5 24.5q-36 0 -71.5 -13t-68.5 -33t-63.5 -45.5t-56.5 -50t-46.5 -46.5t-33.5 -35h100q76 0 145.5 10.5t122 29.5t84 44.5t31.5 54.5zM797 0q-35 0 -66.5 11t-48.5 28q-7 -79 -47 -156.5t-113 -148.5l-5 -5q-57 -53 -118.5 -96
t-122.5 -75.5t-114 -53.5l-160 125q130 64 230 129t167 126q25 22 44 39t44.5 52t30.5 70q1 10 1 20q0 23 -8 43q-11 28 -27.5 55.5t-35.5 52.5t-34 46l160 172q34 -56 60 -94t51.5 -61t54 -33t67.5 -10h69q68 0 98.5 25.5t30.5 90.5v70l158 45v-84q0 -48 6 -77t17 -44
t27 -19.5t36 -4.5q25 0 49 18.5t47 46.5q10 12 36.5 45.5t65 76t87 88.5t101.5 84.5t109 63.5t109 25t100 -17t82.5 -48.5t56.5 -78t21 -104.5q0 -91 -43 -171t-120.5 -139t-185 -93.5t-237.5 -34.5h-202q-78 0 -136.5 19t-95.5 73q-62 -92 -192 -92h-104z" />
    <glyph glyph-name="uniFD10" unicode="&#xfebf;&#xfeae;" horiz-adv-x="2191" arabic-form="isolated" 
d="M1949 379q0 35 -38.5 59.5t-104.5 24.5q-36 0 -71.5 -13t-68.5 -33t-63.5 -45.5t-56.5 -50t-46.5 -46.5t-33.5 -35h100q76 0 145.5 10.5t122 29.5t84 44.5t31.5 54.5zM797 0q-35 0 -66.5 11t-48.5 28q-7 -79 -47 -156.5t-113 -148.5l-5 -5q-57 -53 -118.5 -96
t-122.5 -75.5t-114 -53.5l-160 125q130 64 230 129t167 126q25 22 44 39t44.5 52t30.5 70q1 10 1 20q0 23 -8 43q-11 28 -27.5 55.5t-35.5 52.5t-34 46l160 172q34 -56 60 -94t51.5 -61t54 -33t67.5 -10h69q68 0 98.5 25.5t30.5 90.5v70l158 45v-84q0 -48 6 -77t17 -44
t27 -19.5t36 -4.5q25 0 49 18.5t47 46.5q10 12 36.5 45.5t65 76t87 88.5t101.5 84.5t109 63.5t109 25t100 -17t82.5 -48.5t56.5 -78t21 -104.5q0 -91 -43 -171t-120.5 -139t-185 -93.5t-237.5 -34.5h-202q-78 0 -136.5 19t-95.5 73q-62 -92 -192 -92h-104zM1695 815
l-180 121l133 176l180 -121z" />
    <glyph glyph-name="uniFD17" unicode="&#xfeb4;&#xfef0;" horiz-adv-x="2412" arabic-form="final" 
d="M1170 0q-23 0 -50 2q-29 2 -57.5 4.5t-55.5 5t-47 4.5q-22 2 -41 2q-30 0 -50 -4q-33 -7 -43 -17q-6 -5 -6 -10t5 -10q9 -10 35 -14q34 -6 71 -9.5t73 -9t68.5 -14t57.5 -23t39.5 -37t14.5 -56.5q0 -44 -37.5 -102t-111.5 -110t-183 -88t-252 -36q-101 0 -178.5 18
t-134.5 49t-95 73t-61.5 91t-33 102.5t-9.5 106.5q0 31 6 70t18 81.5t29 86t39 82.5l158 -54q-9 -15 -20.5 -43t-21 -59t-16 -61.5t-6.5 -51.5q0 -122 83.5 -188t254.5 -66h70q42 0 89.5 4t97 13.5t93.5 27.5q34 14 35 26q0 12 -31 15q-14 2 -44.5 3.5t-67.5 6t-76 13
t-71.5 25t-53 42t-20.5 64.5q0 64 41.5 115.5t110 88.5t155.5 57t178 20h161q27 0 44 8.5t26 22.5t12.5 32t3.5 37v76l145 49v-68q0 -45 8.5 -75.5t25.5 -48.5t41 -25.5t56 -7.5q45 0 77 25t32 75v76l141 49v-68q0 -44 8 -74t23 -48.5t35.5 -26.5t46.5 -8q22 0 45 5
t41.5 16.5t30.5 30.5t12 48v76l143 49v-134q0 -29 9.5 -49.5t32.5 -31t69 -10.5h55v-236h-63q-45 0 -75.5 8t-52 22t-37 33.5t-30.5 42.5q-31 -51 -77.5 -78.5t-106.5 -27.5t-101.5 29t-66.5 77q-34 -43 -83 -74.5t-112 -31.5q-60 0 -104 29t-66 77q-28 -43 -75 -74.5
t-117 -31.5h-105z" />
    <glyph glyph-name="uniFD18" unicode="&#xfeb4;&#xfef2;" horiz-adv-x="2412" arabic-form="final" 
d="M737 -887l-137 99l-80 -113l-172 117l111 147l143 -98l80 112l164 -114zM1170 0q-23 0 -50 2q-29 2 -57.5 4.5t-55.5 5t-47 4.5q-22 2 -41 2q-30 0 -50 -4q-33 -7 -43 -17q-6 -5 -6 -10t5 -10q9 -10 35 -14q34 -6 71 -9.5t73 -9t68.5 -14t57.5 -23t39.5 -37t14.5 -56.5
q0 -44 -37.5 -102t-111.5 -110t-183 -88t-252 -36q-101 0 -178.5 18t-134.5 49t-95 73t-61.5 91t-33 102.5t-9.5 106.5q0 31 6 70t18 81.5t29 86t39 82.5l158 -54q-9 -15 -20.5 -43t-21 -59t-16 -61.5t-6.5 -51.5q0 -122 83.5 -188t254.5 -66h70q42 0 89.5 4t97 13.5
t93.5 27.5q34 14 35 26q0 12 -31 15q-14 2 -44.5 3.5t-67.5 6t-76 13t-71.5 25t-53 42t-20.5 64.5q0 64 41.5 115.5t110 88.5t155.5 57t178 20h161q27 0 44 8.5t26 22.5t12.5 32t3.5 37v76l145 49v-68q0 -45 8.5 -75.5t25.5 -48.5t41 -25.5t56 -7.5q45 0 77 25t32 75v76
l141 49v-68q0 -44 8 -74t23 -48.5t35.5 -26.5t46.5 -8q22 0 45 5t41.5 16.5t30.5 30.5t12 48v76l143 49v-134q0 -29 9.5 -49.5t32.5 -31t69 -10.5h55v-236h-63q-45 0 -75.5 8t-52 22t-37 33.5t-30.5 42.5q-31 -51 -77.5 -78.5t-106.5 -27.5t-101.5 29t-66.5 77
q-34 -43 -83 -74.5t-112 -31.5q-60 0 -104 29t-66 77q-28 -43 -75 -74.5t-117 -31.5h-105z" />
    <glyph glyph-name="uniFD19" unicode="&#xfeb8;&#xfef0;" horiz-adv-x="2412" arabic-form="final" 
d="M1736 1100l145 -99l-100 -135l-148 97zM1658 877l133 -89l78 103l155 -103l-104 -139l-133 88l-74 -104l-156 104zM1170 0q-23 0 -50 2q-29 2 -57.5 4.5t-55.5 5t-47 4.5q-22 2 -41 2q-30 0 -50 -4q-33 -7 -43 -17q-6 -5 -6 -10t5 -10q9 -10 35 -14q34 -6 71 -9.5t73 -9
t68.5 -14t57.5 -23t39.5 -37t14.5 -56.5q0 -44 -37.5 -102t-111.5 -110t-183 -88t-252 -36q-101 0 -178.5 18t-134.5 49t-95 73t-61.5 91t-33 102.5t-9.5 106.5q0 31 6 70t18 81.5t29 86t39 82.5l158 -54q-9 -15 -20.5 -43t-21 -59t-16 -61.5t-6.5 -51.5q0 -122 83.5 -188
t254.5 -66h70q42 0 89.5 4t97 13.5t93.5 27.5q34 14 35 26q0 12 -31 15q-14 2 -44.5 3.5t-67.5 6t-76 13t-71.5 25t-53 42t-20.5 64.5q0 64 41.5 115.5t110 88.5t155.5 57t178 20h161q27 0 44 8.5t26 22.5t12.5 32t3.5 37v76l145 49v-68q0 -45 8.5 -75.5t25.5 -48.5
t41 -25.5t56 -7.5q45 0 77 25t32 75v76l141 49v-68q0 -44 8 -74t23 -48.5t35.5 -26.5t46.5 -8q22 0 45 5t41.5 16.5t30.5 30.5t12 48v76l143 49v-134q0 -29 9.5 -49.5t32.5 -31t69 -10.5h55v-236h-63q-45 0 -75.5 8t-52 22t-37 33.5t-30.5 42.5q-31 -51 -77.5 -78.5
t-106.5 -27.5t-101.5 29t-66.5 77q-34 -43 -83 -74.5t-112 -31.5q-60 0 -104 29t-66 77q-28 -43 -75 -74.5t-117 -31.5h-105z" />
    <glyph glyph-name="uniFD1A" unicode="&#xfeb8;&#xfef2;" horiz-adv-x="2412" arabic-form="final" 
d="M737 -887l-137 99l-80 -113l-172 117l111 147l143 -98l80 112l164 -114zM1736 1100l145 -99l-100 -135l-148 97zM1658 877l133 -89l78 103l155 -103l-104 -139l-133 88l-74 -104l-156 104zM1170 0q-23 0 -50 2q-29 2 -57.5 4.5t-55.5 5t-47 4.5q-22 2 -41 2q-30 0 -50 -4
q-33 -7 -43 -17q-6 -5 -6 -10t5 -10q9 -10 35 -14q34 -6 71 -9.5t73 -9t68.5 -14t57.5 -23t39.5 -37t14.5 -56.5q0 -44 -37.5 -102t-111.5 -110t-183 -88t-252 -36q-101 0 -178.5 18t-134.5 49t-95 73t-61.5 91t-33 102.5t-9.5 106.5q0 31 6 70t18 81.5t29 86t39 82.5
l158 -54q-9 -15 -20.5 -43t-21 -59t-16 -61.5t-6.5 -51.5q0 -122 83.5 -188t254.5 -66h70q42 0 89.5 4t97 13.5t93.5 27.5q34 14 35 26q0 12 -31 15q-14 2 -44.5 3.5t-67.5 6t-76 13t-71.5 25t-53 42t-20.5 64.5q0 64 41.5 115.5t110 88.5t155.5 57t178 20h161q27 0 44 8.5
t26 22.5t12.5 32t3.5 37v76l145 49v-68q0 -45 8.5 -75.5t25.5 -48.5t41 -25.5t56 -7.5q45 0 77 25t32 75v76l141 49v-68q0 -44 8 -74t23 -48.5t35.5 -26.5t46.5 -8q22 0 45 5t41.5 16.5t30.5 30.5t12 48v76l143 49v-134q0 -29 9.5 -49.5t32.5 -31t69 -10.5h55v-236h-63
q-45 0 -75.5 8t-52 22t-37 33.5t-30.5 42.5q-31 -51 -77.5 -78.5t-106.5 -27.5t-101.5 29t-66.5 77q-34 -43 -83 -74.5t-112 -31.5q-60 0 -104 29t-66 77q-28 -43 -75 -74.5t-117 -31.5h-105z" />
    <glyph glyph-name="uniFD21" unicode="&#xfebc;&#xfef0;" horiz-adv-x="2564" arabic-form="final" 
d="M2315 379q0 35 -38.5 59.5t-104.5 24.5q-35 0 -70.5 -13t-68.5 -33t-63 -45.5t-55.5 -50t-45.5 -46.5t-33 -35h98q76 0 145 10.5t121.5 29.5t83.5 44.5t31 54.5zM1170 0q-23 0 -50 2q-29 2 -57.5 4.5t-55.5 5t-47 4.5q-22 2 -41 2q-30 0 -50 -4q-33 -7 -43 -17
q-6 -5 -6 -10t5 -10q9 -10 35 -14q34 -6 71 -9.5t73 -9t68.5 -14t57.5 -23t39.5 -37t14.5 -56.5q0 -44 -37.5 -102t-111.5 -110t-183 -88t-252 -36q-101 0 -178.5 18t-134.5 49t-95 73t-61.5 91t-33 102.5t-9.5 106.5q0 31 6 70t18 81.5t29 86t39 82.5l158 -54
q-9 -15 -20.5 -43t-21 -59t-16 -61.5t-6.5 -51.5q0 -122 83.5 -188t254.5 -66h70q42 0 89.5 4t97 13.5t93.5 27.5q34 14 35 26q0 12 -31 15q-14 2 -44.5 3.5t-67.5 6t-76 13t-71.5 25t-53 42t-20.5 64.5q0 64 41.5 115.5t110 88.5t155.5 57t178 20h128q68 0 98.5 25.5
t30.5 90.5v70l158 45v-84q0 -48 6 -77t17 -44t27 -19.5t36 -4.5q25 0 47.5 19.5t44.5 45.5q10 12 36.5 45.5t65.5 76t87.5 88.5t102 84.5t109.5 63.5t109 25t100 -17t82.5 -48.5t56.5 -78t21 -104.5q0 -107 -47 -184q4 -9 15 -12.5t27 -4.5q12 -2 26 -2q4 0 9 1h83v-236h-58
q-29 0 -59.5 4.5t-60.5 17t-59 34t-54 55.5q-39 -32 -85 -53t-95.5 -34t-100.5 -18.5t-100 -5.5h-229q-78 0 -136.5 19t-93.5 73q-62 -92 -192 -92h-101z" />
    <glyph glyph-name="uniFD22" unicode="&#xfebc;&#xfef2;" horiz-adv-x="2564" arabic-form="final" 
d="M737 -887l-137 99l-80 -113l-172 117l111 147l143 -98l80 112l164 -114zM2315 379q0 35 -38.5 59.5t-104.5 24.5q-35 0 -70.5 -13t-68.5 -33t-63 -45.5t-55.5 -50t-45.5 -46.5t-33 -35h98q76 0 145 10.5t121.5 29.5t83.5 44.5t31 54.5zM1170 0q-23 0 -50 2
q-29 2 -57.5 4.5t-55.5 5t-47 4.5q-22 2 -41 2q-30 0 -50 -4q-33 -7 -43 -17q-6 -5 -6 -10t5 -10q9 -10 35 -14q34 -6 71 -9.5t73 -9t68.5 -14t57.5 -23t39.5 -37t14.5 -56.5q0 -44 -37.5 -102t-111.5 -110t-183 -88t-252 -36q-101 0 -178.5 18t-134.5 49t-95 73t-61.5 91
t-33 102.5t-9.5 106.5q0 31 6 70t18 81.5t29 86t39 82.5l158 -54q-9 -15 -20.5 -43t-21 -59t-16 -61.5t-6.5 -51.5q0 -122 83.5 -188t254.5 -66h70q42 0 89.5 4t97 13.5t93.5 27.5q34 14 35 26q0 12 -31 15q-14 2 -44.5 3.5t-67.5 6t-76 13t-71.5 25t-53 42t-20.5 64.5
q0 64 41.5 115.5t110 88.5t155.5 57t178 20h128q68 0 98.5 25.5t30.5 90.5v70l158 45v-84q0 -48 6 -77t17 -44t27 -19.5t36 -4.5q25 0 47.5 19.5t44.5 45.5q10 12 36.5 45.5t65.5 76t87.5 88.5t102 84.5t109.5 63.5t109 25t100 -17t82.5 -48.5t56.5 -78t21 -104.5
q0 -107 -47 -184q4 -9 15 -12.5t27 -4.5q12 -2 26 -2q4 0 9 1h83v-236h-58q-29 0 -59.5 4.5t-60.5 17t-59 34t-54 55.5q-39 -32 -85 -53t-95.5 -34t-100.5 -18.5t-100 -5.5h-229q-78 0 -136.5 19t-93.5 73q-62 -92 -192 -92h-101z" />
    <glyph glyph-name="uniFD23" unicode="&#xfec0;&#xfef0;" horiz-adv-x="2564" arabic-form="final" 
d="M2315 379q0 35 -38.5 59.5t-104.5 24.5q-35 0 -70.5 -13t-68.5 -33t-63 -45.5t-55.5 -50t-45.5 -46.5t-33 -35h98q76 0 145 10.5t121.5 29.5t83.5 44.5t31 54.5zM2065 815l-180 121l133 176l180 -121zM1170 0q-23 0 -50 2q-29 2 -57.5 4.5t-55.5 5t-47 4.5q-22 2 -41 2
q-30 0 -50 -4q-33 -7 -43 -17q-6 -5 -6 -10t5 -10q9 -10 35 -14q34 -6 71 -9.5t73 -9t68.5 -14t57.5 -23t39.5 -37t14.5 -56.5q0 -44 -37.5 -102t-111.5 -110t-183 -88t-252 -36q-101 0 -178.5 18t-134.5 49t-95 73t-61.5 91t-33 102.5t-9.5 106.5q0 31 6 70t18 81.5t29 86
t39 82.5l158 -54q-9 -15 -20.5 -43t-21 -59t-16 -61.5t-6.5 -51.5q0 -122 83.5 -188t254.5 -66h70q42 0 89.5 4t97 13.5t93.5 27.5q34 14 35 26q0 12 -31 15q-14 2 -44.5 3.5t-67.5 6t-76 13t-71.5 25t-53 42t-20.5 64.5q0 64 41.5 115.5t110 88.5t155.5 57t178 20h128
q68 0 98.5 25.5t30.5 90.5v70l158 45v-84q0 -48 6 -77t17 -44t27 -19.5t36 -4.5q25 0 47.5 19.5t44.5 45.5q10 12 36.5 45.5t65.5 76t87.5 88.5t102 84.5t109.5 63.5t109 25t100 -17t82.5 -48.5t56.5 -78t21 -104.5q0 -107 -47 -184q4 -9 15 -12.5t27 -4.5q12 -2 26 -2
q4 0 9 1h83v-236h-58q-29 0 -59.5 4.5t-60.5 17t-59 34t-54 55.5q-39 -32 -85 -53t-95.5 -34t-100.5 -18.5t-100 -5.5h-229q-78 0 -136.5 19t-93.5 73q-62 -92 -192 -92h-101z" />
    <glyph glyph-name="uniFD24" unicode="&#xfec0;&#xfef2;" horiz-adv-x="2564" arabic-form="final" 
d="M737 -887l-137 99l-80 -113l-172 117l111 147l143 -98l80 112l164 -114zM2315 379q0 35 -38.5 59.5t-104.5 24.5q-35 0 -70.5 -13t-68.5 -33t-63 -45.5t-55.5 -50t-45.5 -46.5t-33 -35h98q76 0 145 10.5t121.5 29.5t83.5 44.5t31 54.5zM2065 815l-180 121l133 176
l180 -121zM1170 0q-23 0 -50 2q-29 2 -57.5 4.5t-55.5 5t-47 4.5q-22 2 -41 2q-30 0 -50 -4q-33 -7 -43 -17q-6 -5 -6 -10t5 -10q9 -10 35 -14q34 -6 71 -9.5t73 -9t68.5 -14t57.5 -23t39.5 -37t14.5 -56.5q0 -44 -37.5 -102t-111.5 -110t-183 -88t-252 -36
q-101 0 -178.5 18t-134.5 49t-95 73t-61.5 91t-33 102.5t-9.5 106.5q0 31 6 70t18 81.5t29 86t39 82.5l158 -54q-9 -15 -20.5 -43t-21 -59t-16 -61.5t-6.5 -51.5q0 -122 83.5 -188t254.5 -66h70q42 0 89.5 4t97 13.5t93.5 27.5q34 14 35 26q0 12 -31 15q-14 2 -44.5 3.5
t-67.5 6t-76 13t-71.5 25t-53 42t-20.5 64.5q0 64 41.5 115.5t110 88.5t155.5 57t178 20h128q68 0 98.5 25.5t30.5 90.5v70l158 45v-84q0 -48 6 -77t17 -44t27 -19.5t36 -4.5q25 0 47.5 19.5t44.5 45.5q10 12 36.5 45.5t65.5 76t87.5 88.5t102 84.5t109.5 63.5t109 25
t100 -17t82.5 -48.5t56.5 -78t21 -104.5q0 -107 -47 -184q4 -9 15 -12.5t27 -4.5q12 -2 26 -2q4 0 9 1h83v-236h-58q-29 0 -59.5 4.5t-60.5 17t-59 34t-54 55.5q-39 -32 -85 -53t-95.5 -34t-100.5 -18.5t-100 -5.5h-229q-78 0 -136.5 19t-93.5 73q-62 -92 -192 -92h-101z
" />
    <glyph glyph-name="uniFD29" unicode="&#xfeb8;&#xfeae;" horiz-adv-x="2042" arabic-form="final" 
d="M797 0q-35 0 -66.5 11t-48.5 28q-7 -79 -47 -156.5t-113 -148.5l-5 -5q-57 -53 -118.5 -96t-122.5 -75.5t-114 -53.5l-160 125q130 64 230 129t167 126q25 22 44 39t44.5 52t30.5 70q1 10 1 20q0 23 -8 43q-11 28 -27.5 55.5t-35.5 52.5t-34 46l160 172q34 -56 60 -94
t51.5 -61t54 -33t67.5 -10h102q27 0 44 8.5t26 22.5t12.5 32t3.5 37v76l145 49v-68q0 -45 8.5 -75.5t25.5 -48.5t41 -25.5t56 -7.5q45 0 77 25t32 75v76l141 49v-68q0 -44 8 -74t23 -48.5t35.5 -26.5t46.5 -8q22 0 45 5t41.5 16.5t30.5 30.5t12 48v76l143 49v-134
q0 -29 9.5 -49.5t32.5 -31t69 -10.5h55v-236h-63q-45 0 -75.5 8t-52 22t-37 33.5t-30.5 42.5q-31 -51 -77.5 -78.5t-106.5 -27.5t-101.5 29t-66.5 77q-34 -43 -83 -74.5t-112 -31.5q-60 0 -104 29t-66 77q-28 -43 -75 -74.5t-117 -31.5h-108zM1366 1100l145 -99l-100 -135
l-148 97zM1288 877l133 -89l78 103l155 -103l-104 -139l-133 88l-74 -104l-156 104z" />
    <glyph glyph-name="uniFD2A" unicode="&#xfeb4;&#xfeae;" horiz-adv-x="2042" arabic-form="final" 
d="M797 0q-35 0 -66.5 11t-48.5 28q-7 -79 -47 -156.5t-113 -148.5l-5 -5q-57 -53 -118.5 -96t-122.5 -75.5t-114 -53.5l-160 125q130 64 230 129t167 126q25 22 44 39t44.5 52t30.5 70q1 10 1 20q0 23 -8 43q-11 28 -27.5 55.5t-35.5 52.5t-34 46l160 172q34 -56 60 -94
t51.5 -61t54 -33t67.5 -10h102q27 0 44 8.5t26 22.5t12.5 32t3.5 37v76l145 49v-68q0 -45 8.5 -75.5t25.5 -48.5t41 -25.5t56 -7.5q45 0 77 25t32 75v76l141 49v-68q0 -44 8 -74t23 -48.5t35.5 -26.5t46.5 -8q22 0 45 5t41.5 16.5t30.5 30.5t12 48v76l143 49v-134
q0 -29 9.5 -49.5t32.5 -31t69 -10.5h55v-236h-63q-45 0 -75.5 8t-52 22t-37 33.5t-30.5 42.5q-31 -51 -77.5 -78.5t-106.5 -27.5t-101.5 29t-66.5 77q-34 -43 -83 -74.5t-112 -31.5q-60 0 -104 29t-66 77q-28 -43 -75 -74.5t-117 -31.5h-108z" />
    <glyph glyph-name="uniFD2B" unicode="&#xfebc;&#xfeae;" horiz-adv-x="2194" arabic-form="final" 
d="M1945 379q0 35 -38.5 59.5t-104.5 24.5q-35 0 -70.5 -13t-68.5 -33t-63 -45.5t-55.5 -50t-45.5 -46.5t-33 -35h98q76 0 145 10.5t121.5 29.5t83.5 44.5t31 54.5zM797 0q-35 0 -66.5 11t-48.5 28q-7 -79 -47 -156.5t-113 -148.5l-5 -5q-57 -53 -118.5 -96t-122.5 -75.5
t-114 -53.5l-160 125q130 64 230 129t167 126q25 22 44 39t44.5 52t30.5 70q1 10 1 20q0 23 -8 43q-11 28 -27.5 55.5t-35.5 52.5t-34 46l160 172q34 -56 60 -94t51.5 -61t54 -33t67.5 -10h69q68 0 98.5 25.5t30.5 90.5v70l158 45v-84q0 -48 6 -77t17 -44t27 -19.5t36 -4.5
q25 0 47.5 19.5t44.5 45.5q10 12 36.5 45.5t65.5 76t87.5 88.5t102 84.5t109.5 63.5t109 25t100 -17t82.5 -48.5t56.5 -78t21 -104.5q0 -107 -47 -184q4 -9 15 -12.5t27 -4.5q12 -2 26 -2q4 0 9 1h83v-236h-58q-29 0 -59.5 4.5t-60.5 17t-59 34t-54 55.5q-39 -32 -85 -53
t-95.5 -34t-100.5 -18.5t-100 -5.5h-229q-78 0 -136.5 19t-93.5 73q-62 -92 -192 -92h-104z" />
    <glyph glyph-name="uniFD2C" unicode="&#xfec0;&#xfeae;" horiz-adv-x="2194" arabic-form="final" 
d="M1945 379q0 35 -38.5 59.5t-104.5 24.5q-35 0 -70.5 -13t-68.5 -33t-63 -45.5t-55.5 -50t-45.5 -46.5t-33 -35h98q76 0 145 10.5t121.5 29.5t83.5 44.5t31 54.5zM797 0q-35 0 -66.5 11t-48.5 28q-7 -79 -47 -156.5t-113 -148.5l-5 -5q-57 -53 -118.5 -96t-122.5 -75.5
t-114 -53.5l-160 125q130 64 230 129t167 126q25 22 44 39t44.5 52t30.5 70q1 10 1 20q0 23 -8 43q-11 28 -27.5 55.5t-35.5 52.5t-34 46l160 172q34 -56 60 -94t51.5 -61t54 -33t67.5 -10h69q68 0 98.5 25.5t30.5 90.5v70l158 45v-84q0 -48 6 -77t17 -44t27 -19.5t36 -4.5
q25 0 47.5 19.5t44.5 45.5q10 12 36.5 45.5t65.5 76t87.5 88.5t102 84.5t109.5 63.5t109 25t100 -17t82.5 -48.5t56.5 -78t21 -104.5q0 -107 -47 -184q4 -9 15 -12.5t27 -4.5q12 -2 26 -2q4 0 9 1h83v-236h-58q-29 0 -59.5 4.5t-60.5 17t-59 34t-54 55.5q-39 -32 -85 -53
t-95.5 -34t-100.5 -18.5t-100 -5.5h-229q-78 0 -136.5 19t-93.5 73q-62 -92 -192 -92h-104zM1695 815l-180 121l133 176l180 -121z" />
    <glyph glyph-name="uniFEF5" unicode="&#xfedf;&#xfe82;" horiz-adv-x="1136" arabic-form="isolated" 
d="M1025 1237q11 -122 11 -238q0 -33 -1 -65q-2 -62 -9 -128.5t-20.5 -130t-35 -121t-53.5 -101.5q12 -24 25.5 -52t25 -61t18.5 -71t7 -81q0 -58 -24.5 -98t-64.5 -64.5t-92 -36t-108 -13.5q-17 -1 -35 -1q-38 0 -76 4q-55 5 -101.5 14t-80 20t-45.5 20l39 205
q24 -12 51 -12q18 0 37 5q49 13 95.5 45t84 75.5t53.5 84.5q-19 32 -50.5 71t-72.5 80.5t-90.5 84t-104 82t-113 74.5t-116.5 61l43 268q65 -29 127.5 -71.5t120 -92.5t108.5 -104t93.5 -105.5t75 -97.5t53.5 -80q10 19 15.5 53t8.5 76t4 89v31q0 32 -1 63q-3 109 -13 235z
M845 221q7 7 7 19v2q-1 14 -6.5 30t-14 32t-17.5 28q-17 -17 -47.5 -49.5t-77.5 -61.5q16 -6 39.5 -10t46.5 -4q3 -1 6 -1q19 0 37 4q19 3 27 11zM704 1413q-20 -37 -49.5 -64.5t-62.5 -46t-67 -27.5t-63 -9q-38 0 -69 4t-58 9t-53 9t-55 4q-41 0 -77 -14t-61 -39l-71 96
q12 15 30.5 33t42.5 33t52.5 25t60.5 10q31 0 56 -4t50.5 -8.5t54.5 -8.5t68 -4q33 0 66 7.5t62 20.5t53.5 30.5t40.5 37.5z" />
    <glyph glyph-name="uniFEF6" unicode="&#xfee0;&#xfe82;" horiz-adv-x="1268" arabic-form="final" 
d="M1206 0q-59 0 -105.5 23.5t-81 72.5t-57.5 125t-35 182q-17 -87 -64 -167t-115 -140.5t-152 -96.5t-175 -36l-153 164q46 0 95.5 8.5t97 24t91.5 36.5t79.5 45t59 50t31.5 53q2 8 2 17q0 22 -15 53q-21 41 -62 89.5t-97.5 100t-120.5 100t-131.5 89.5t-128.5 69l45 258
q71 -36 140.5 -85.5t133 -106t119 -117t99 -119t73 -112t41.5 -95.5q7 36 11 84t5 102v36q0 37 -1 75q-1 56 -4 109q-6 125 -19 260l224 82l2 -242q0 -183 9 -323.5t32 -236.5t62 -145.5t99 -49.5h58v-236h-92zM704 1413q-20 -37 -49.5 -64.5t-62.5 -46t-67 -27.5t-63 -9
q-38 0 -69 4t-58 9t-53 9t-55 4q-41 0 -77 -14t-61 -39l-71 96q12 15 30.5 33t42.5 33t52.5 25t60.5 10q31 0 56 -4t50.5 -8.5t54.5 -8.5t68 -4q33 0 66 7.5t62 20.5t53.5 30.5t40.5 37.5z" />
    <glyph glyph-name="uniFEF7" unicode="&#xfedf;&#xfe84;" horiz-adv-x="1054" arabic-form="isolated" 
d="M943 1237q11 -118 11 -229q0 -37 -1 -74q-2 -62 -9 -128.5t-21 -130t-36 -121t-55 -101.5q12 -24 25.5 -52t25 -61t18.5 -71t7 -81q0 -58 -24 -98t-64.5 -64.5t-92.5 -36t-107 -13.5q-18 -1 -35 -1q-38 0 -76 4q-56 5 -102.5 14t-80 20t-45.5 20l39 205q23 -12 49 -12h8
q31 2 63.5 15t64 35t59 48.5t48.5 55.5t32 56q-19 32 -51.5 71t-74 80.5t-91 84t-103.5 82t-112.5 74.5t-116.5 61l45 268q64 -29 126.5 -71.5t119.5 -92.5t108 -104t93.5 -105.5t75 -97.5t53.5 -80q10 19 15.5 53t8.5 76t4 89v31q0 32 -1 63q-3 109 -13 235zM761 221
q6 6 6 18v3q-1 14 -6.5 30t-14 32t-16.5 28q-16 -17 -47 -49.5t-76 -61.5q15 -6 38 -10t46 -4q3 -1 6 -1q19 0 36 4q19 3 28 11zM36 1294v78l103 41l-20.5 20.5t-16.5 21t-11 26t-4 35.5q0 34 15 63t39 51t52.5 34.5t55.5 12.5q35 0 67.5 -10t57.5 -33l-27 -63
q-20 8 -49.5 12t-52.5 4q-12 0 -26.5 -4t-28 -11.5t-22.5 -17.5t-9 -22q0 -31 35 -50.5t88 -19.5q7 0 28.5 5.5t47.5 13.5t51 15.5t39 12.5v-110z" />
    <glyph glyph-name="uniFEF8" unicode="&#xfee0;&#xfe84;" horiz-adv-x="1214" arabic-form="final" 
d="M1151 0q-59 0 -105 23.5t-80.5 72.5t-57.5 125t-35 182q-17 -87 -64 -167t-115 -140.5t-152 -96.5t-175 -36l-154 164q46 0 95.5 8.5t97.5 24t92 36.5t79.5 45t59 50t31.5 53q2 8 2 17q0 22 -15 53q-21 41 -62 89.5t-97.5 100t-120.5 100t-131.5 89.5t-128.5 69l45 258
q71 -36 140.5 -85.5t133 -106t119 -117t99 -119t73 -112t41.5 -95.5q7 36 11 84t5 102v36q0 37 -1 75q-1 56 -4 109q-6 125 -19 260l223 82l2 -242q0 -183 9 -323.5t32.5 -236.5t62.5 -145.5t99 -49.5h58v-236h-93zM36 1237v78l103 41q-11 10 -20.5 19.5t-16.5 20.5t-11 26
t-4 36q0 34 15 63.5t39 51.5t52.5 34.5t55.5 12.5q35 0 67.5 -10t57.5 -33l-27 -66q-20 10 -49.5 13.5t-52.5 3.5q-12 0 -26.5 -4t-28 -11t-22.5 -17t-9 -21q0 -32 35 -51t88 -19q7 0 28.5 5.5t47.5 13t51 15t39 11.5v-109z" />
    <glyph glyph-name="uniFEF9" unicode="&#xfedf;&#xfe88;" horiz-adv-x="1010" arabic-form="isolated" 
d="M899 1237q11 -118 11 -229q0 -37 -1 -74q-2 -62 -9 -128.5t-21 -130t-36 -121t-55 -101.5q12 -24 25.5 -52t25 -61t18.5 -71t7 -81q0 -58 -24 -98t-64.5 -64.5t-92.5 -36t-107 -13.5q-18 -1 -35 -1q-38 0 -76 4q-56 5 -102.5 14t-80 20t-45.5 20l39 205q23 -12 49 -12h8
q31 2 63.5 15t64 35t59 48.5t48.5 55.5t32 56q-19 32 -51.5 71t-74 80.5t-91 84t-103.5 82t-112.5 74.5t-116.5 61l45 268q64 -29 126.5 -71.5t119.5 -92.5t108 -104t93.5 -105.5t75 -97.5t53.5 -80q10 19 15.5 53t8.5 76t4 89v31q0 32 -1 63q-3 109 -13 235zM717 221
q6 6 6 18v3q-1 14 -6.5 30t-14 32t-16.5 28q-16 -17 -47 -49.5t-76 -61.5q15 -6 38 -10t46 -4q3 -1 6 -1q19 0 36 4q19 3 28 11zM67 -502v80l105 41q-11 11 -20.5 20t-17 20.5t-12 26t-4.5 35.5q0 34 15.5 63.5t39.5 51.5t52.5 34.5t54.5 12.5q35 0 67.5 -10.5t57.5 -32.5
l-25 -65q-21 9 -50 12.5t-52 3.5q-12 0 -27.5 -4t-29 -11t-22.5 -16.5t-9 -21.5q0 -32 35 -52t88 -20q7 0 28.5 5.5t47.5 13.5t51.5 15.5t40.5 12.5v-108z" />
    <glyph glyph-name="uniFEFA" unicode="&#xfee0;&#xfe88;" horiz-adv-x="1162" arabic-form="final" 
d="M1099 0q-59 0 -105 23.5t-80.5 72.5t-57.5 125t-35 182q-17 -87 -64 -167t-115 -140.5t-152 -96.5t-175 -36l-154 164q46 0 95.5 8.5t97.5 24t92 36.5t79.5 45t59 50t31.5 53q2 8 2 17q0 22 -15 53q-21 41 -62 89.5t-97.5 100t-120.5 100t-131.5 89.5t-128.5 69l45 258
q71 -36 140.5 -85.5t133 -106t119 -117t99 -119t73 -112t41.5 -95.5q7 36 11 84t5 102v36q0 37 -1 75q-1 56 -4 109q-6 125 -19 260l223 82l2 -242q0 -183 9 -323.5t32.5 -236.5t62.5 -145.5t99 -49.5h58v-236h-93zM126 -549v78l105 41q-11 11 -20.5 20t-16.5 20.5t-11 26
t-4 35.5q0 34 15.5 63.5t39 51.5t52 34.5t55.5 12.5q35 0 67.5 -10t55.5 -33l-24 -63q-20 8 -50 12t-53 4q-12 0 -26.5 -4.5t-28 -12t-22.5 -17.5t-9 -21q0 -31 35 -50.5t88 -19.5q7 0 28.5 5.5t47.5 13t51 15t39 11.5v-108z" />
    <glyph glyph-name="uniFEFB" unicode="&#xfedf;&#xfe8e;" horiz-adv-x="1010" arabic-form="isolated" 
d="M899 1237q11 -118 11 -229q0 -37 -1 -74q-2 -62 -9 -128.5t-21 -130t-36 -121t-55 -101.5q12 -24 25.5 -52t25 -61t18.5 -71t7 -81q0 -58 -24 -98t-64.5 -64.5t-92.5 -36t-107 -13.5q-18 -1 -35 -1q-38 0 -76 4q-56 5 -102.5 14t-80 20t-45.5 20l39 205q23 -12 49 -12h8
q31 2 63.5 15t64 35t59 48.5t48.5 55.5t32 56q-19 32 -51.5 71t-74 80.5t-91 84t-103.5 82t-112.5 74.5t-116.5 61l45 268q64 -29 126.5 -71.5t119.5 -92.5t108 -104t93.5 -105.5t75 -97.5t53.5 -80q10 19 15.5 53t8.5 76t4 89v31q0 32 -1 63q-3 109 -13 235zM717 221
q6 6 6 18v3q-1 14 -6.5 30t-14 32t-16.5 28q-16 -17 -47 -49.5t-76 -61.5q15 -6 38 -10t46 -4q3 -1 6 -1q19 0 36 4q19 3 28 11z" />
    <glyph glyph-name="uniFEFC" unicode="&#xfee0;&#xfe8e;" horiz-adv-x="1162" arabic-form="final" 
d="M1099 0q-59 0 -105 23.5t-80.5 72.5t-57.5 125t-35 182q-17 -87 -64 -167t-115 -140.5t-152 -96.5t-175 -36l-154 164q46 0 95.5 8.5t97.5 24t92 36.5t79.5 45t59 50t31.5 53q2 8 2 17q0 22 -15 53q-21 41 -62 89.5t-97.5 100t-120.5 100t-131.5 89.5t-128.5 69l45 258
q71 -36 140.5 -85.5t133 -106t119 -117t99 -119t73 -112t41.5 -95.5q7 36 11 84t5 102v36q0 37 -1 75q-1 56 -4 109q-6 125 -19 260l223 82l2 -242q0 -183 9 -323.5t32.5 -236.5t62.5 -145.5t99 -49.5h58v-236h-93z" />
    <glyph glyph-name="uniFE8B_uniFEE4.liga" unicode="&#xfe8b;&#xfee4;" horiz-adv-x="1361" 
d="M517 166q0 21 -9 47t-23.5 49t-32 39t-35.5 16q-12 0 -27 -9.5t-28.5 -23t-24.5 -29.5t-16 -28q9 -8 25 -19.5t36 -23.5t42.5 -23t45.5 -18q7 -2 15 -2q2 -1 3 -1q6 0 12 2q7 2 12 8t5 16zM830 0q-27 0 -55 8q-30 7 -57 19.5t-48.5 28.5t-33.5 34q-5 -25 -15 -52.5
t-24 -50.5t-31.5 -38t-36.5 -15q-24 0 -54 8t-61.5 21t-62 29t-56.5 31t-44.5 27.5t-26.5 19.5q-13 -10 -34.5 -22.5t-47 -23t-53 -17.5t-53.5 -7h-66v236h52q43 0 83.5 6.5t63.5 27.5q11 11 27 32.5t36 47.5t43.5 53t48.5 49t51.5 36t53.5 14q46 0 85 -27.5t74.5 -65.5
t68 -78t65.5 -65q22 -17 49.5 -23.5t63.5 -6.5h185q51 0 75 11.5t29 31.5q1 5 1 10q0 16 -10 35q-13 26 -36 55l-69 88l131 188q16 -15 39 -43.5t44.5 -69.5t36.5 -94.5t15 -119.5q0 -56 -16 -114t-56.5 -105.5t-109 -78t-174.5 -30.5h-90zM868 754v77l104 41l-20.5 20.5
t-16 21t-10.5 26t-4 35.5q0 34 15 63.5t38.5 51.5t52 34.5t54.5 12.5q35 0 68.5 -10t56.5 -33l-25 -64q-20 8 -49.5 12.5t-52.5 4.5q-12 0 -27 -4t-28.5 -11.5t-23 -18t-9.5 -22.5q0 -31 35 -50t87 -19q7 0 28.5 5.5t48 13t51.5 15.5t40 13v-111z" />
    <glyph glyph-name="uniFE8B_uniFEF0.liga" unicode="&#xfe8b;&#xfef0;" horiz-adv-x="1701" 
d="M1208 754v77l104 41l-20.5 20.5t-16 21t-10.5 26t-4 35.5q0 34 15 63.5t38.5 51.5t52 34.5t54.5 12.5q35 0 68.5 -10t56.5 -33l-25 -64q-20 8 -49.5 12.5t-52.5 4.5q-12 0 -27 -4t-28.5 -11.5t-23 -18t-9.5 -22.5q0 -31 35 -50t87 -19q7 0 28.5 5.5t48 13t51.5 15.5
t40 13v-111zM1170 0q-23 0 -50 2q-29 2 -57.5 4.5t-55.5 5t-47 4.5q-22 2 -41 2q-30 0 -50 -4q-33 -7 -43 -17q-6 -5 -6 -10t5 -10q9 -10 35 -14q34 -6 71 -9.5t73 -9t68.5 -14t57.5 -23t39.5 -37t14.5 -56.5q0 -44 -37.5 -102t-111.5 -110t-183 -88t-252 -36
q-101 0 -178.5 18t-134.5 49t-95 73t-61.5 91t-33 102.5t-9.5 106.5q0 31 6 70t18 81.5t29 86t39 82.5l158 -54q-9 -15 -20.5 -43t-21 -59t-16 -61.5t-6.5 -51.5q0 -122 83.5 -188t254.5 -66h70q42 0 89.5 4t97 13.5t93.5 27.5q34 14 35 26q0 12 -31 15q-14 2 -44.5 3.5
t-67.5 6t-76 13t-71.5 25t-53 42t-20.5 64.5q0 64 41.5 115.5t110 88.5t155.5 57t178 20h242q51 0 75 11.5t29 31.5q1 5 1 10q0 16 -10 35q-13 26 -36 55l-69 88l131 188q16 -15 39 -43.5t44.5 -69.5t36.5 -94.5t15 -119.5q0 -56 -16 -114t-56.5 -105.5t-109 -78
t-174.5 -30.5h-90z" />
    <glyph glyph-name="uniFE8B_uniFEF2.liga" unicode="&#xfe8b;&#xfef2;" horiz-adv-x="1701" 
d="M737 -887l-137 99l-80 -113l-172 117l111 147l143 -98l80 112l164 -114zM1208 754v77l104 41l-20.5 20.5t-16 21t-10.5 26t-4 35.5q0 34 15 63.5t38.5 51.5t52 34.5t54.5 12.5q35 0 68.5 -10t56.5 -33l-25 -64q-20 8 -49.5 12.5t-52.5 4.5q-12 0 -27 -4t-28.5 -11.5
t-23 -18t-9.5 -22.5q0 -31 35 -50t87 -19q7 0 28.5 5.5t48 13t51.5 15.5t40 13v-111zM1170 0q-23 0 -50 2q-29 2 -57.5 4.5t-55.5 5t-47 4.5q-22 2 -41 2q-30 0 -50 -4q-33 -7 -43 -17q-6 -5 -6 -10t5 -10q9 -10 35 -14q34 -6 71 -9.5t73 -9t68.5 -14t57.5 -23t39.5 -37
t14.5 -56.5q0 -44 -37.5 -102t-111.5 -110t-183 -88t-252 -36q-101 0 -178.5 18t-134.5 49t-95 73t-61.5 91t-33 102.5t-9.5 106.5q0 31 6 70t18 81.5t29 86t39 82.5l158 -54q-9 -15 -20.5 -43t-21 -59t-16 -61.5t-6.5 -51.5q0 -122 83.5 -188t254.5 -66h70q42 0 89.5 4
t97 13.5t93.5 27.5q34 14 35 26q0 12 -31 15q-14 2 -44.5 3.5t-67.5 6t-76 13t-71.5 25t-53 42t-20.5 64.5q0 64 41.5 115.5t110 88.5t155.5 57t178 20h242q51 0 75 11.5t29 31.5q1 5 1 10q0 16 -10 35q-13 26 -36 55l-69 88l131 188q16 -15 39 -43.5t44.5 -69.5t36.5 -94.5
t15 -119.5q0 -56 -16 -114t-56.5 -105.5t-109 -78t-174.5 -30.5h-90z" />
    <glyph glyph-name="uniFE91_uniFEE4.liga" unicode="&#xfe91;&#xfee4;" horiz-adv-x="1336" 
d="M517 166q0 21 -9 47t-23.5 49t-32 39t-35.5 16q-12 0 -27 -9.5t-28.5 -23t-24.5 -29.5t-16 -28q9 -8 25 -19.5t36 -23.5t42.5 -23t45.5 -18q7 -2 15 -2q2 -1 3 -1q6 0 12 2q7 2 12 8t5 16zM833 0q-28 0 -58 7.5t-57 20t-48.5 28.5t-33.5 34q-5 -25 -15 -52.5t-24 -50.5
t-31.5 -38t-36.5 -15q-24 0 -54 8t-61.5 21t-62 29t-56.5 31t-44.5 27.5t-26.5 19.5q-13 -10 -34.5 -22.5t-47 -23t-53 -17.5t-53.5 -7h-66v236h52q43 0 83.5 6.5t63.5 27.5q11 11 27 32.5t36 47.5t43.5 53t48.5 49t51.5 36t53.5 14q46 0 85 -27.5t74.5 -65.5t68 -78
t65.5 -65q22 -17 49.5 -23.5t63.5 -6.5h165q51 0 75 11.5t29 31.5q1 5 1 10q0 16 -10 35q-13 26 -36 55l-69 88l131 188q16 -15 39 -43.5t44.5 -69.5t36.5 -94.5t15 -119.5q0 -56 -16 -114t-56.5 -105.5t-109 -78t-174.5 -30.5h-67zM1125 -469l-181 121l131 178l181 -123z
" />
    <glyph glyph-name="uniFE92_uniFEE6.liga" unicode="&#xfe92;&#xfee6;" horiz-adv-x="1784" 
d="M583 416l-180 121l133 176l181 -121zM1498 -469l-181 121l131 178l181 -123zM1220 0q-14 0 -32 3q-20 3 -39.5 8.5t-35.5 13.5t-24 18q0 -114 -37 -216.5t-106.5 -180t-169.5 -123t-227 -45.5q-133 0 -221.5 42.5t-141 109.5t-74.5 149.5t-22 163.5q0 31 5.5 70t16 81
t25.5 85t35 83l155 -55q-5 -13 -13.5 -39.5t-17.5 -58t-15.5 -64t-6.5 -57.5q0 -62 18.5 -113t55 -87t91.5 -55.5t128 -19.5q81 0 144.5 24.5t107.5 66.5t67 97.5t23 118.5q0 36 -8.5 73.5t-22 72.5t-31.5 66.5t-36 56.5l174 166q15 -29 33 -66.5t42.5 -71.5t57.5 -57.5
t78 -23.5h106q21 0 47.5 3t50.5 13.5t40 31.5t16 58v80l168 55v-51q0 -99 31.5 -144.5t91.5 -45.5h67v-236h-76q-32 0 -61.5 7.5t-54.5 21.5t-43.5 33.5t-28.5 43.5q-37 -51 -96 -78.5t-144 -27.5h-90z" />
    <glyph glyph-name="uniFE91_uniFEF0.liga" unicode="&#xfe91;&#xfef0;" horiz-adv-x="1676" 
d="M1173 0q-24 0 -53 2t-57.5 4.5t-55.5 5t-47 4.5q-22 2 -41 2q-30 0 -50 -4q-33 -7 -43 -17q-6 -5 -6 -10t5 -10q9 -10 35 -14q34 -6 71 -9.5t73 -9t68.5 -14t57.5 -23t39.5 -37t14.5 -56.5q0 -44 -37.5 -102t-111.5 -110t-183 -88t-252 -36q-101 0 -178.5 18t-134.5 49
t-95 73t-61.5 91t-33 102.5t-9.5 106.5q0 31 6 70t18 81.5t29 86t39 82.5l158 -54q-9 -15 -20.5 -43t-21 -59t-16 -61.5t-6.5 -51.5q0 -122 83.5 -188t254.5 -66h70q42 0 89.5 4t97 13.5t93.5 27.5q34 14 35 26q0 12 -31 15q-14 2 -44.5 3.5t-67.5 6t-76 13t-71.5 25t-53 42
t-20.5 64.5q0 64 41.5 115.5t110 88.5t155.5 57t178 20h222q51 0 75 11.5t29 31.5q1 5 1 10q0 16 -10 35q-13 26 -36 55l-69 88l131 188q16 -15 39 -43.5t44.5 -69.5t36.5 -94.5t15 -119.5q0 -56 -16 -114t-56.5 -105.5t-109 -78t-174.5 -30.5h-67zM1465 -469l-181 121
l131 178l181 -123z" />
    <glyph glyph-name="uniFE91_uniFEF2.liga" unicode="&#xfe91;&#xfef2;" horiz-adv-x="1676" 
d="M737 -887l-137 99l-80 -113l-172 117l111 147l143 -98l80 112l164 -114zM1173 0q-24 0 -53 2t-57.5 4.5t-55.5 5t-47 4.5q-22 2 -41 2q-30 0 -50 -4q-33 -7 -43 -17q-6 -5 -6 -10t5 -10q9 -10 35 -14q34 -6 71 -9.5t73 -9t68.5 -14t57.5 -23t39.5 -37t14.5 -56.5
q0 -44 -37.5 -102t-111.5 -110t-183 -88t-252 -36q-101 0 -178.5 18t-134.5 49t-95 73t-61.5 91t-33 102.5t-9.5 106.5q0 31 6 70t18 81.5t29 86t39 82.5l158 -54q-9 -15 -20.5 -43t-21 -59t-16 -61.5t-6.5 -51.5q0 -122 83.5 -188t254.5 -66h70q42 0 89.5 4t97 13.5
t93.5 27.5q34 14 35 26q0 12 -31 15q-14 2 -44.5 3.5t-67.5 6t-76 13t-71.5 25t-53 42t-20.5 64.5q0 64 41.5 115.5t110 88.5t155.5 57t178 20h222q51 0 75 11.5t29 31.5q1 5 1 10q0 16 -10 35q-13 26 -36 55l-69 88l131 188q16 -15 39 -43.5t44.5 -69.5t36.5 -94.5
t15 -119.5q0 -56 -16 -114t-56.5 -105.5t-109 -78t-174.5 -30.5h-67zM1465 -469l-181 121l131 178l181 -123z" />
    <glyph glyph-name="uniFE97_uniFEE4.liga" unicode="&#xfe97;&#xfee4;" horiz-adv-x="1426" 
d="M517 166q0 21 -9 47t-23.5 49t-32 39t-35.5 16q-12 0 -27 -9.5t-28.5 -23t-24.5 -29.5t-16 -28q9 -8 25 -19.5t36 -23.5t42.5 -23t45.5 -18q7 -2 15 -2q2 -1 3 -1q6 0 12 2q7 2 12 8t5 16zM830 0q-27 0 -55 8q-30 7 -57 19.5t-48.5 28.5t-33.5 34q-5 -25 -15 -52.5
t-24 -50.5t-31.5 -38t-36.5 -15q-24 0 -54 8t-61.5 21t-62 29t-56.5 31t-44.5 27.5t-26.5 19.5q-13 -10 -34.5 -22.5t-47 -23t-53 -17.5t-53.5 -7h-66v236h52q43 0 83.5 6.5t63.5 27.5q11 11 27 32.5t36 47.5t43.5 53t48.5 49t51.5 36t53.5 14q46 0 85 -27.5t74.5 -65.5
t68 -78t65.5 -65q22 -17 49.5 -23.5t63.5 -6.5h255q51 0 75 11.5t29 31.5q1 5 1 10q0 16 -10 35q-13 26 -36 55l-69 88l131 188q16 -15 39 -43.5t44.5 -69.5t36.5 -94.5t15 -119.5q0 -56 -16 -114t-56.5 -105.5t-109 -78t-174.5 -30.5h-160zM958 993l133 -88l78 105
l156 -105l-107 -139l-133 88l-72 -104l-155 104z" />
    <glyph glyph-name="uniFE98_uniFEE6.liga" unicode="&#xfe98;&#xfee6;" horiz-adv-x="1894" 
d="M583 416l-180 121l133 176l181 -121zM1220 0q-14 0 -32 3q-20 3 -39.5 8.5t-35.5 13.5t-24 18q0 -114 -37 -216.5t-106.5 -180t-169.5 -123t-227 -45.5q-133 0 -221.5 42.5t-141 109.5t-74.5 149.5t-22 163.5q0 31 5.5 70t16 81t25.5 85t35 83l155 -55
q-5 -13 -13.5 -39.5t-17.5 -58t-15.5 -64t-6.5 -57.5q0 -62 18.5 -113t55 -87t91.5 -55.5t128 -19.5q81 0 144.5 24.5t107.5 66.5t67 97.5t23 118.5q0 36 -8.5 73.5t-22 72.5t-31.5 66.5t-36 56.5l174 166q15 -29 33 -66.5t42.5 -71.5t57.5 -57.5t78 -23.5h216q21 0 47.5 3
t50.5 13.5t40 31.5t16 58v80l168 55v-51q0 -99 31.5 -144.5t91.5 -45.5h67v-236h-76q-32 0 -61.5 7.5t-54.5 21.5t-43.5 33.5t-28.5 43.5q-37 -51 -96 -78.5t-144 -27.5h-200zM1379 858l133 -88l78 104l156 -104l-107 -139l-133 88l-72 -105l-155 105z" />
    <glyph glyph-name="uniFE97_uniFEF0.liga" unicode="&#xfe97;&#xfef0;" horiz-adv-x="1766" 
d="M1298 993l133 -88l78 105l156 -105l-107 -139l-133 88l-72 -104l-155 104zM1170 0q-23 0 -50 2q-29 2 -57.5 4.5t-55.5 5t-47 4.5q-22 2 -41 2q-30 0 -50 -4q-33 -7 -43 -17q-6 -5 -6 -10t5 -10q9 -10 35 -14q34 -6 71 -9.5t73 -9t68.5 -14t57.5 -23t39.5 -37t14.5 -56.5
q0 -44 -37.5 -102t-111.5 -110t-183 -88t-252 -36q-101 0 -178.5 18t-134.5 49t-95 73t-61.5 91t-33 102.5t-9.5 106.5q0 31 6 70t18 81.5t29 86t39 82.5l158 -54q-9 -15 -20.5 -43t-21 -59t-16 -61.5t-6.5 -51.5q0 -122 83.5 -188t254.5 -66h70q42 0 89.5 4t97 13.5
t93.5 27.5q34 14 35 26q0 12 -31 15q-14 2 -44.5 3.5t-67.5 6t-76 13t-71.5 25t-53 42t-20.5 64.5q0 64 41.5 115.5t110 88.5t155.5 57t178 20h312q51 0 75 11.5t29 31.5q1 5 1 10q0 16 -10 35q-13 26 -36 55l-69 88l131 188q16 -15 39 -43.5t44.5 -69.5t36.5 -94.5
t15 -119.5q0 -56 -16 -114t-56.5 -105.5t-109 -78t-174.5 -30.5h-160z" />
    <glyph glyph-name="uniFE97_uniFEF2.liga" unicode="&#xfe97;&#xfef2;" horiz-adv-x="1766" 
d="M737 -887l-137 99l-80 -113l-172 117l111 147l143 -98l80 112l164 -114zM1298 993l133 -88l78 105l156 -105l-107 -139l-133 88l-72 -104l-155 104zM1170 0q-23 0 -50 2q-29 2 -57.5 4.5t-55.5 5t-47 4.5q-22 2 -41 2q-30 0 -50 -4q-33 -7 -43 -17q-6 -5 -6 -10t5 -10
q9 -10 35 -14q34 -6 71 -9.5t73 -9t68.5 -14t57.5 -23t39.5 -37t14.5 -56.5q0 -44 -37.5 -102t-111.5 -110t-183 -88t-252 -36q-101 0 -178.5 18t-134.5 49t-95 73t-61.5 91t-33 102.5t-9.5 106.5q0 31 6 70t18 81.5t29 86t39 82.5l158 -54q-9 -15 -20.5 -43t-21 -59
t-16 -61.5t-6.5 -51.5q0 -122 83.5 -188t254.5 -66h70q42 0 89.5 4t97 13.5t93.5 27.5q34 14 35 26q0 12 -31 15q-14 2 -44.5 3.5t-67.5 6t-76 13t-71.5 25t-53 42t-20.5 64.5q0 64 41.5 115.5t110 88.5t155.5 57t178 20h312q51 0 75 11.5t29 31.5q1 5 1 10q0 16 -10 35
q-13 26 -36 55l-69 88l131 188q16 -15 39 -43.5t44.5 -69.5t36.5 -94.5t15 -119.5q0 -56 -16 -114t-56.5 -105.5t-109 -78t-174.5 -30.5h-160z" />
    <glyph glyph-name="uniFE9C_uniFEAE.liga" unicode="&#xfe9c;&#xfeae;" horiz-adv-x="1474" 
d="M959 858l133 -88l78 104l156 -104l-107 -139l-133 88l-72 -105l-155 105zM797 0q-35 0 -66.5 11t-48.5 28q-7 -79 -47 -156.5t-113 -148.5l-5 -5q-57 -53 -118.5 -96t-122.5 -75.5t-114 -53.5l-160 125q130 64 230 129t167 126q25 22 44 39t44.5 52t30.5 70q1 10 1 20
q0 23 -8 43q-11 28 -27.5 55.5t-35.5 52.5t-34 46l160 172q34 -56 60 -94t51.5 -61t54 -33t67.5 -10h185q21 0 47.5 3t50.5 13.5t40 31.5t16 58v80l168 55v-51q0 -99 31.5 -144.5t91.5 -45.5h67v-236h-76q-32 0 -61.5 7.5t-54.5 21.5t-43.5 33.5t-28.5 43.5
q-37 -51 -96 -78.5t-144 -27.5h-203zM1037 1081l145 -96l-100 -137l-148 98z" />
    <glyph glyph-name="uniFE9B_uniFEE4.liga" unicode="&#xfe9b;&#xfee4;" horiz-adv-x="1426" 
d="M517 166q0 21 -9 47t-23.5 49t-32 39t-35.5 16q-12 0 -27 -9.5t-28.5 -23t-24.5 -29.5t-16 -28q9 -8 25 -19.5t36 -23.5t42.5 -23t45.5 -18q7 -2 15 -2q2 -1 3 -1q6 0 12 2q7 2 12 8t5 16zM830 0q-27 0 -55 8q-30 7 -57 19.5t-48.5 28.5t-33.5 34q-5 -25 -15 -52.5
t-24 -50.5t-31.5 -38t-36.5 -15q-24 0 -54 8t-61.5 21t-62 29t-56.5 31t-44.5 27.5t-26.5 19.5q-13 -10 -34.5 -22.5t-47 -23t-53 -17.5t-53.5 -7h-66v236h52q43 0 83.5 6.5t63.5 27.5q11 11 27 32.5t36 47.5t43.5 53t48.5 49t51.5 36t53.5 14q46 0 85 -27.5t74.5 -65.5
t68 -78t65.5 -65q22 -17 49.5 -23.5t63.5 -6.5h255q51 0 75 11.5t29 31.5q1 5 1 10q0 16 -10 35q-13 26 -36 55l-69 88l131 188q16 -15 39 -43.5t44.5 -69.5t36.5 -94.5t15 -119.5q0 -56 -16 -114t-56.5 -105.5t-109 -78t-174.5 -30.5h-160zM1036 1217l145 -97l-100 -137
l-148 98zM958 993l133 -88l78 105l156 -105l-107 -139l-133 88l-72 -104l-155 104z" />
    <glyph glyph-name="uniFE9C_uniFEE6.liga" unicode="&#xfe9c;&#xfee6;" horiz-adv-x="1894" 
d="M583 416l-180 121l133 176l181 -121zM1220 0q-14 0 -32 3q-20 3 -39.5 8.5t-35.5 13.5t-24 18q0 -114 -37 -216.5t-106.5 -180t-169.5 -123t-227 -45.5q-133 0 -221.5 42.5t-141 109.5t-74.5 149.5t-22 163.5q0 31 5.5 70t16 81t25.5 85t35 83l155 -55
q-5 -13 -13.5 -39.5t-17.5 -58t-15.5 -64t-6.5 -57.5q0 -62 18.5 -113t55 -87t91.5 -55.5t128 -19.5q81 0 144.5 24.5t107.5 66.5t67 97.5t23 118.5q0 36 -8.5 73.5t-22 72.5t-31.5 66.5t-36 56.5l174 166q15 -29 33 -66.5t42.5 -71.5t57.5 -57.5t78 -23.5h216q21 0 47.5 3
t50.5 13.5t40 31.5t16 58v80l168 55v-51q0 -99 31.5 -144.5t91.5 -45.5h67v-236h-76q-32 0 -61.5 7.5t-54.5 21.5t-43.5 33.5t-28.5 43.5q-37 -51 -96 -78.5t-144 -27.5h-200zM1457 1081l145 -96l-100 -137l-148 98zM1379 858l133 -88l78 104l156 -104l-107 -139l-133 88
l-72 -105l-155 105z" />
    <glyph glyph-name="uniFE9B_uniFEF0.liga" unicode="&#xfe9b;&#xfef0;" horiz-adv-x="1766" 
d="M1376 1217l145 -97l-100 -137l-148 98zM1298 993l133 -88l78 105l156 -105l-107 -139l-133 88l-72 -104l-155 104zM1170 0q-23 0 -50 2q-29 2 -57.5 4.5t-55.5 5t-47 4.5q-22 2 -41 2q-30 0 -50 -4q-33 -7 -43 -17q-6 -5 -6 -10t5 -10q9 -10 35 -14q34 -6 71 -9.5t73 -9
t68.5 -14t57.5 -23t39.5 -37t14.5 -56.5q0 -44 -37.5 -102t-111.5 -110t-183 -88t-252 -36q-101 0 -178.5 18t-134.5 49t-95 73t-61.5 91t-33 102.5t-9.5 106.5q0 31 6 70t18 81.5t29 86t39 82.5l158 -54q-9 -15 -20.5 -43t-21 -59t-16 -61.5t-6.5 -51.5q0 -122 83.5 -188
t254.5 -66h70q42 0 89.5 4t97 13.5t93.5 27.5q34 14 35 26q0 12 -31 15q-14 2 -44.5 3.5t-67.5 6t-76 13t-71.5 25t-53 42t-20.5 64.5q0 64 41.5 115.5t110 88.5t155.5 57t178 20h312q51 0 75 11.5t29 31.5q1 5 1 10q0 16 -10 35q-13 26 -36 55l-69 88l131 188
q16 -15 39 -43.5t44.5 -69.5t36.5 -94.5t15 -119.5q0 -56 -16 -114t-56.5 -105.5t-109 -78t-174.5 -30.5h-160z" />
    <glyph glyph-name="uniFE9B_uniFEF2.liga" unicode="&#xfe9b;&#xfef2;" horiz-adv-x="1766" 
d="M737 -887l-137 99l-80 -113l-172 117l111 147l143 -98l80 112l164 -114zM1376 1217l145 -97l-100 -137l-148 98zM1298 993l133 -88l78 105l156 -105l-107 -139l-133 88l-72 -104l-155 104zM1170 0q-23 0 -50 2q-29 2 -57.5 4.5t-55.5 5t-47 4.5q-22 2 -41 2q-30 0 -50 -4
q-33 -7 -43 -17q-6 -5 -6 -10t5 -10q9 -10 35 -14q34 -6 71 -9.5t73 -9t68.5 -14t57.5 -23t39.5 -37t14.5 -56.5q0 -44 -37.5 -102t-111.5 -110t-183 -88t-252 -36q-101 0 -178.5 18t-134.5 49t-95 73t-61.5 91t-33 102.5t-9.5 106.5q0 31 6 70t18 81.5t29 86t39 82.5
l158 -54q-9 -15 -20.5 -43t-21 -59t-16 -61.5t-6.5 -51.5q0 -122 83.5 -188t254.5 -66h70q42 0 89.5 4t97 13.5t93.5 27.5q34 14 35 26q0 12 -31 15q-14 2 -44.5 3.5t-67.5 6t-76 13t-71.5 25t-53 42t-20.5 64.5q0 64 41.5 115.5t110 88.5t155.5 57t178 20h312q51 0 75 11.5
t29 31.5q1 5 1 10q0 16 -10 35q-13 26 -36 55l-69 88l131 188q16 -15 39 -43.5t44.5 -69.5t36.5 -94.5t15 -119.5q0 -56 -16 -114t-56.5 -105.5t-109 -78t-174.5 -30.5h-160z" />
    <glyph glyph-name="uniFEDB_uniFEF0.liga" unicode="&#xfedb;&#xfef0;" horiz-adv-x="2191" 
d="M1165 0q-21 0 -45 2q-29 2 -57.5 4.5t-55.5 5t-47 4.5q-22 2 -41 2q-30 0 -50 -4q-33 -7 -43 -17q-6 -5 -6 -10t5 -10q9 -10 35 -14q34 -6 71 -9.5t73 -9t68.5 -14t57.5 -23t39.5 -37t14.5 -56.5q0 -44 -37.5 -102t-111.5 -110t-183 -88t-252 -36q-101 0 -178.5 18
t-134.5 49t-95 73t-61.5 91t-33 102.5t-9.5 106.5q0 31 6 70t18 81.5t29 86t39 82.5l158 -54q-9 -15 -20.5 -43t-21 -59t-16 -61.5t-6.5 -51.5q0 -122 83.5 -188t254.5 -66h70q42 0 89.5 4t97 13.5t93.5 27.5q34 14 35 26q0 12 -31 15q-14 2 -44.5 3.5t-67.5 6t-76 13
t-71.5 25t-53 42t-20.5 64.5q0 64 41.5 115.5t110 88.5t155.5 57t178 20h191q52 0 112 1.5t111 9.5t85 25t34 47q0 36 -26.5 73t-67 74.5t-89.5 75t-94 73.5t-80.5 70t-48.5 65q1 22 7.5 56.5t17 68.5t23 61t24.5 33q52 27 117 55.5t135 55.5t141.5 52.5t138.5 47.5
q157 52 322 100l-29 -240q-149 -36 -282 -70q-57 -15 -116 -31t-113.5 -32.5t-101 -32.5t-77.5 -30q-21 -8 -21 -19q0 -7 9 -14q15 -11 49.5 -33.5t76.5 -54t87.5 -71.5t82.5 -86t61 -96.5t24 -104.5q0 -88 -23 -156t-81.5 -114.5t-158.5 -70.5t-255 -24h-138z" />
    <glyph glyph-name="uniFEDC_uniFEF0.liga" unicode="&#xfedc;&#xfef0;" horiz-adv-x="2263" 
d="M1170 0q-23 0 -50 2q-29 2 -57.5 4.5t-55.5 5t-47 4.5q-22 2 -41 2q-30 0 -50 -4q-33 -7 -43 -17q-6 -5 -6 -10t5 -10q9 -10 35 -14q34 -6 71 -9.5t73 -9t68.5 -14t57.5 -23t39.5 -37t14.5 -56.5q0 -44 -37.5 -102t-111.5 -110t-183 -88t-252 -36q-101 0 -178.5 18
t-134.5 49t-95 73t-61.5 91t-33 102.5t-9.5 106.5q0 31 6 70t18 81.5t29 86t39 82.5l158 -54q-9 -15 -20.5 -43t-21 -59t-16 -61.5t-6.5 -51.5q0 -122 83.5 -188t254.5 -66h70q42 0 89.5 4t97 13.5t93.5 27.5q34 14 35 26q0 12 -31 15q-14 2 -44.5 3.5t-67.5 6t-76 13
t-71.5 25t-53 42t-20.5 64.5q0 64 41.5 115.5t110 88.5t155.5 57t178 20h153q82 0 146.5 3.5t109.5 14t68.5 29t23.5 49.5q0 30 -20.5 61.5t-52.5 64t-70 65t-74 64.5t-64 63.5t-39 60.5q1 21 6 54t13 65.5t19.5 58.5t25.5 33q52 27 118.5 56.5t139.5 58t149 56.5t148 52
q126 43 259 85l-27 -227q-94 -24 -188 -50q-57 -16 -119 -34t-123.5 -37.5t-119 -40t-106.5 -40.5q-11 -5 -17 -15q-2 -4 -2 -7q0 -7 9 -13q34 -26 75 -60t85.5 -73t88.5 -80.5t84 -81.5q53 -53 98 -96.5t90.5 -74t95.5 -47.5t114 -17h78v-236h-113q-59 0 -118.5 20.5
t-116 55.5t-107 83t-90.5 103q-8 -58 -32 -99.5t-60 -71t-81 -47.5t-95 -27.5t-102 -13t-101 -3.5h-107z" />
    <glyph glyph-name="uniFEDB_uniFEF2.liga" unicode="&#xfedb;&#xfef2;" horiz-adv-x="2191" 
d="M737 -887l-137 99l-80 -113l-172 117l111 147l143 -98l80 112l164 -114zM1165 0q-21 0 -45 2q-29 2 -57.5 4.5t-55.5 5t-47 4.5q-22 2 -41 2q-30 0 -50 -4q-33 -7 -43 -17q-6 -5 -6 -10t5 -10q9 -10 35 -14q34 -6 71 -9.5t73 -9t68.5 -14t57.5 -23t39.5 -37t14.5 -56.5
q0 -44 -37.5 -102t-111.5 -110t-183 -88t-252 -36q-101 0 -178.5 18t-134.5 49t-95 73t-61.5 91t-33 102.5t-9.5 106.5q0 31 6 70t18 81.5t29 86t39 82.5l158 -54q-9 -15 -20.5 -43t-21 -59t-16 -61.5t-6.5 -51.5q0 -122 83.5 -188t254.5 -66h70q42 0 89.5 4t97 13.5
t93.5 27.5q34 14 35 26q0 12 -31 15q-14 2 -44.5 3.5t-67.5 6t-76 13t-71.5 25t-53 42t-20.5 64.5q0 64 41.5 115.5t110 88.5t155.5 57t178 20h191q52 0 112 1.5t111 9.5t85 25t34 47q0 36 -26.5 73t-67 74.5t-89.5 75t-94 73.5t-80.5 70t-48.5 65q1 22 7.5 56.5t17 68.5
t23 61t24.5 33q52 27 117 55.5t135 55.5t141.5 52.5t138.5 47.5q157 52 322 100l-29 -240q-149 -36 -282 -70q-57 -15 -116 -31t-113.5 -32.5t-101 -32.5t-77.5 -30q-21 -8 -21 -19q0 -7 9 -14q15 -11 49.5 -33.5t76.5 -54t87.5 -71.5t82.5 -86t61 -96.5t24 -104.5
q0 -88 -23 -156t-81.5 -114.5t-158.5 -70.5t-255 -24h-138z" />
    <glyph glyph-name="uniFEDC_uniFEF2.liga" unicode="&#xfedc;&#xfef2;" horiz-adv-x="2263" 
d="M737 -887l-137 99l-80 -113l-172 117l111 147l143 -98l80 112l164 -114zM1170 0q-23 0 -50 2q-29 2 -57.5 4.5t-55.5 5t-47 4.5q-22 2 -41 2q-30 0 -50 -4q-33 -7 -43 -17q-6 -5 -6 -10t5 -10q9 -10 35 -14q34 -6 71 -9.5t73 -9t68.5 -14t57.5 -23t39.5 -37t14.5 -56.5
q0 -44 -37.5 -102t-111.5 -110t-183 -88t-252 -36q-101 0 -178.5 18t-134.5 49t-95 73t-61.5 91t-33 102.5t-9.5 106.5q0 31 6 70t18 81.5t29 86t39 82.5l158 -54q-9 -15 -20.5 -43t-21 -59t-16 -61.5t-6.5 -51.5q0 -122 83.5 -188t254.5 -66h70q42 0 89.5 4t97 13.5
t93.5 27.5q34 14 35 26q0 12 -31 15q-14 2 -44.5 3.5t-67.5 6t-76 13t-71.5 25t-53 42t-20.5 64.5q0 64 41.5 115.5t110 88.5t155.5 57t178 20h153q82 0 146.5 3.5t109.5 14t68.5 29t23.5 49.5q0 30 -20.5 61.5t-52.5 64t-70 65t-74 64.5t-64 63.5t-39 60.5q1 21 6 54
t13 65.5t19.5 58.5t25.5 33q52 27 118.5 56.5t139.5 58t149 56.5t148 52q126 43 259 85l-27 -227q-94 -24 -188 -50q-57 -16 -119 -34t-123.5 -37.5t-119 -40t-106.5 -40.5q-11 -5 -17 -15q-2 -4 -2 -7q0 -7 9 -13q34 -26 75 -60t85.5 -73t88.5 -80.5t84 -81.5
q53 -53 98 -96.5t90.5 -74t95.5 -47.5t114 -17h78v-236h-113q-59 0 -118.5 20.5t-116 55.5t-107 83t-90.5 103q-8 -58 -32 -99.5t-60 -71t-81 -47.5t-95 -27.5t-102 -13t-101 -3.5h-107z" />
    <glyph glyph-name="uniFEDF_uniFB51.rlig" unicode="&#xfedf;&#xfb51;" horiz-adv-x="1136" 
d="M1025 1237q11 -122 11 -238q0 -33 -1 -65q-2 -62 -9 -128.5t-20.5 -130t-35 -121t-53.5 -101.5q12 -24 25.5 -52t25 -61t18.5 -71t7 -81q0 -58 -24.5 -98t-64.5 -64.5t-92 -36t-108 -13.5q-17 -1 -35 -1q-38 0 -76 4q-55 5 -101.5 14t-80 20t-45.5 20l39 205
q24 -12 51 -12q18 0 37 5q49 13 95.5 45t84 75.5t53.5 84.5q-19 32 -50.5 71t-72.5 80.5t-90.5 84t-104 82t-113 74.5t-116.5 61l43 268q65 -29 127.5 -71.5t120 -92.5t108.5 -104t93.5 -105.5t75 -97.5t53.5 -80q10 19 15.5 53t8.5 76t4 89v31q0 32 -1 63q-3 109 -13 235z
M845 221q7 7 7 19v2q-1 14 -6.5 30t-14 32t-17.5 28q-17 -17 -47.5 -49.5t-77.5 -61.5q16 -6 39.5 -10t46.5 -4q3 -1 6 -1q19 0 37 4q19 3 27 11zM578 1413q0 -47 -22.5 -79t-59 -52t-81.5 -28.5t-90 -8.5q-42 0 -67 6t-42 13t-30 13t-31 6q-8 0 -20.5 -6t-25.5 -14
q-15 -9 -32 -20l-47 57q24 30 50 46.5t52 22.5q18 4 34 4h14q22 -3 38 -10q15 16 42 43t61.5 53t73.5 45t79 19q28 0 48 -10t32.5 -26t18 -35.5t5.5 -38.5zM525 1402q0 11 -7.5 18t-19 11.5t-25.5 6t-28 1.5q-18 0 -41 -8t-46.5 -20t-46 -26t-40.5 -26q29 -4 73 -5h15
q35 0 69 4q40 4 68.5 14.5t28.5 29.5z" />
    <glyph glyph-name="uniFEE0_uniFB51.rlig" unicode="&#xfee0;&#xfb51;" horiz-adv-x="1268" 
d="M1206 0q-59 0 -105.5 23.5t-81 72.5t-57.5 125t-35 182q-17 -87 -64 -167t-115 -140.5t-152 -96.5t-175 -36l-153 164q46 0 95.5 8.5t97 24t91.5 36.5t79.5 45t59 50t31.5 53q2 8 2 17q0 22 -15 53q-21 41 -62 89.5t-97.5 100t-120.5 100t-131.5 89.5t-128.5 69l45 258
q71 -36 140.5 -85.5t133 -106t119 -117t99 -119t73 -112t41.5 -95.5q7 36 11 84t5 102v36q0 37 -1 75q-1 56 -4 109q-6 125 -19 260l224 82l2 -242q0 -183 9 -323.5t32 -236.5t62 -145.5t99 -49.5h58v-236h-92zM578 1413q0 -47 -22.5 -79t-59 -52t-81.5 -28.5t-90 -8.5
q-42 0 -67 6t-42 13t-30 13t-31 6q-8 0 -20.5 -6t-25.5 -14q-15 -9 -32 -20l-47 57q24 30 50 46.5t52 22.5q18 4 34 4h14q22 -3 38 -10q15 16 42 43t61.5 53t73.5 45t79 19q28 0 48 -10t32.5 -26t18 -35.5t5.5 -38.5zM525 1402q0 11 -7.5 18t-19 11.5t-25.5 6t-28 1.5
q-18 0 -41 -8t-46.5 -20t-46 -26t-40.5 -26q29 -4 73 -5h15q35 0 69 4q40 4 68.5 14.5t28.5 29.5z" />
    <glyph glyph-name="uniFEDF_uniFEE2.liga" unicode="&#xfedf;&#xfee2;" horiz-adv-x="1495" 
d="M710 25q-17 27 -49.5 57.5t-85.5 58.5v-22q0 -40 6 -74q7 -43 21.5 -73.5t35 -47t46.5 -16.5q19 0 29.5 11.5t13.5 29.5q1 6 1 14q0 11 -2 24q-5 20 -16 38zM1005 0q-21 0 -46 2.5t-49 8t-45 13t-34 17.5q11 -24 17 -57q4 -28 4 -58v-10q-1 -36 -10 -71t-27.5 -62.5
t-48 -44.5t-70.5 -17q-52 0 -90.5 16t-67 42t-47 59t-30.5 68q-27 82 -27 186q-45 0 -73.5 -8.5t-45 -26.5t-23 -46t-6.5 -66v-754h-165l-29 772v17q0 66 21 126q23 67 69.5 118t114.5 80.5t155 29.5l33 106q52 -33 112 -69t125 -66t133 -49.5t136 -19.5h83q56 0 88 7.5
t48 26.5t20 52q2 25 2 60v21l-25 748l203 82v-809q0 -48 -2 -98.5t-11 -97.5t-27.5 -88.5t-50 -72.5t-79 -49t-115.5 -18h-120z" />
    <glyph glyph-name="uniFEE4_uniFE8E.liga" unicode="&#xfee4;&#xfe8e;" horiz-adv-x="1348" 
d="M997 166q0 21 -9 47t-23.5 49t-32 39t-35.5 16q-12 0 -27 -9.5t-28.5 -23t-24.5 -29.5t-16 -28q9 -8 25 -19.5t36 -23.5t42.5 -23t45.5 -18q7 -2 15 -2q2 -1 3 -1q6 0 12 2q7 2 12 8t5 16zM434 0q-77 0 -131.5 17t-91 47.5t-58 72.5t-33 91.5t-16 105t-6.5 112.5l-20 705
l203 82v-813q0 -100 37.5 -142t109.5 -42h74q43 0 83.5 6.5t63.5 27.5q11 11 27 32.5t36 47.5t43.5 53t48.5 49t51.5 36t53.5 14q46 0 85 -27.5t74.5 -65.5t68 -78t65.5 -65q22 -17 49.5 -23.5t63.5 -6.5h63v-236h-65q-28 0 -58 7.5t-57 20t-48.5 28.5t-33.5 34
q-5 -25 -15 -52.5t-24 -50.5t-31.5 -38t-36.5 -15q-24 0 -54 8t-61.5 21t-62 29t-56.5 31t-44.5 27.5t-26.5 19.5q-13 -10 -34.5 -22.5t-47 -23t-53 -17.5t-53.5 -7h-82z" />
    <glyph glyph-name="uniFEE4_uniFE82.liga" unicode="&#xfee4;&#xfe82;" horiz-adv-x="1518" 
d="M654.5 1395.5q-29.5 -27.5 -62.5 -46t-67.5 -27.5t-64.5 -9q-38 0 -68.5 4.5t-57.5 9.5t-53 9.5t-56 4.5q-38 0 -74.5 -15t-60.5 -40l-72 98q12 15 30.5 33t42.5 33t52.5 25t60.5 10q31 0 56 -4t50.5 -8.5t55 -8.5t68.5 -4q33 0 65.5 7.5t62 20t53.5 30t40 38.5l49 -96
q-20 -37 -49.5 -64.5zM1167 166q0 21 -9 47t-23.5 49t-32 39t-35.5 16q-12 0 -27 -9.5t-28.5 -23t-24.5 -29.5t-16 -28q9 -8 25 -19.5t36 -23.5t42.5 -23t45.5 -18q7 -2 15 -2q2 -1 3 -1q6 0 12 2q7 2 12 8t5 16zM614 0q-78 0 -132.5 17t-91.5 47.5t-58.5 72.5t-33 91.5
t-15.5 105t-5 112.5l-23 705l203 82v-813q0 -100 38.5 -142t111.5 -42h64q43 0 83.5 6.5t63.5 27.5q11 11 27 32.5t36 47.5t43.5 53t48.5 49t51.5 36t53.5 14q46 0 85 -27.5t74.5 -65.5t68 -78t65.5 -65q22 -17 49.5 -23.5t63.5 -6.5h63v-236h-65q-28 0 -58 7.5t-57 20
t-48.5 28.5t-33.5 34q-5 -25 -15 -52.5t-24 -50.5t-31.5 -38t-36.5 -15q-24 0 -54 8t-61.5 21t-62 29t-56.5 31t-44.5 27.5t-26.5 19.5q-13 -10 -34.5 -22.5t-47 -23t-53 -17.5t-53.5 -7h-72z" />
    <glyph glyph-name="uniFEE4_uniFE84.liga" unicode="&#xfee4;&#xfe84;" horiz-adv-x="1398" 
d="M36 1255v78l105 43q-12 10 -21.5 19t-16.5 20.5t-11 26t-4 35.5q0 34 15 63t38.5 51t52 34.5t55.5 12.5q36 0 68.5 -10t56.5 -33l-26 -63q-20 9 -49 12.5t-54 3.5q-11 0 -26 -4t-28.5 -11t-22.5 -16.5t-9 -21.5q0 -16 9.5 -29.5t26 -23t39 -14.5t48.5 -5q7 0 28.5 5.5
t47.5 13.5t51 15.5t39 12.5v-110zM1047 166q0 21 -9 47t-23.5 49t-32 39t-35.5 16q-12 0 -27 -9.5t-28.5 -23t-24.5 -29.5t-16 -28q9 -8 25 -19.5t36 -23.5t42.5 -23t45.5 -18q7 -2 15 -2q2 -1 3 -1q6 0 12 2q7 2 12 8t5 16zM485 0q-78 0 -132.5 17t-91.5 47.5t-58.5 72.5
t-33 91.5t-15.5 105t-5 112.5l-22 705l202 82v-813q0 -100 39 -142t111 -42h73q43 0 83.5 6.5t63.5 27.5q11 11 27 32.5t36 47.5t43.5 53t48.5 49t51.5 36t53.5 14q46 0 85 -27.5t74.5 -65.5t68 -78t65.5 -65q22 -17 49.5 -23.5t63.5 -6.5h63v-236h-65q-28 0 -58 7.5t-57 20
t-48.5 28.5t-33.5 34q-5 -25 -15 -52.5t-24 -50.5t-31.5 -38t-36.5 -15q-24 0 -54 8t-61.5 21t-62 29t-56.5 31t-44.5 27.5t-26.5 19.5q-13 -10 -34.5 -22.5t-47 -23t-53 -17.5t-53.5 -7h-81z" />
    <glyph glyph-name="uniFEE4_uniFE88.liga" unicode="&#xfee4;&#xfe88;" horiz-adv-x="1398" 
d="M36 -492v78l105 43q-12 10 -21.5 19t-16.5 20.5t-11 26t-4 35.5q0 34 15 63t38.5 51t52 34.5t55.5 12.5q36 0 68.5 -10t56.5 -33l-26 -63q-20 9 -49 12.5t-54 3.5q-11 0 -26 -4t-28.5 -11t-22.5 -16.5t-9 -21.5q0 -16 9.5 -29.5t26 -23t39 -14.5t48.5 -5q7 0 28.5 5.5
t47.5 13.5t51 15.5t39 12.5v-110zM1047 166q0 21 -9 47t-23.5 49t-32 39t-35.5 16q-12 0 -27 -9.5t-28.5 -23t-24.5 -29.5t-16 -28q9 -8 25 -19.5t36 -23.5t42.5 -23t45.5 -18q7 -2 15 -2q2 -1 3 -1q6 0 12 2q7 2 12 8t5 16zM485 0q-78 0 -132.5 17t-91.5 47.5t-58.5 72.5
t-33 91.5t-15.5 105t-5 112.5l-22 705l202 82v-813q0 -100 39 -142t111 -42h73q43 0 83.5 6.5t63.5 27.5q11 11 27 32.5t36 47.5t43.5 53t48.5 49t51.5 36t53.5 14q46 0 85 -27.5t74.5 -65.5t68 -78t65.5 -65q22 -17 49.5 -23.5t63.5 -6.5h63v-236h-65q-28 0 -58 7.5t-57 20
t-48.5 28.5t-33.5 34q-5 -25 -15 -52.5t-24 -50.5t-31.5 -38t-36.5 -15q-24 0 -54 8t-61.5 21t-62 29t-56.5 31t-44.5 27.5t-26.5 19.5q-13 -10 -34.5 -22.5t-47 -23t-53 -17.5t-53.5 -7h-81z" />
    <glyph glyph-name="uniFEE8_uniFEAE.liga" unicode="&#xfee8;&#xfeae;" horiz-adv-x="1364" 
d="M797 0q-35 0 -66.5 11t-48.5 28q-7 -79 -47 -156.5t-113 -148.5l-5 -5q-57 -53 -118.5 -96t-122.5 -75.5t-114 -53.5l-160 125q130 64 230 129t167 126q25 22 44 39t44.5 52t30.5 70q1 10 1 20q0 23 -8 43q-11 28 -27.5 55.5t-35.5 52.5t-34 46l160 172q34 -56 60 -94
t51.5 -61t54 -33t67.5 -10h75q21 0 47.5 3t50.5 13.5t40 31.5t16 58v80l168 55v-51q0 -99 31.5 -144.5t91.5 -45.5h67v-236h-76q-32 0 -61.5 7.5t-54.5 21.5t-43.5 33.5t-28.5 43.5q-37 -51 -96 -78.5t-144 -27.5h-93zM1098 625l-182 120l133 177l181 -121z" />
    <glyph glyph-name="uniFEE7_uniFEE4.liga" unicode="&#xfee7;&#xfee4;" horiz-adv-x="1336" 
d="M517 166q0 21 -9 47t-23.5 49t-32 39t-35.5 16q-12 0 -27 -9.5t-28.5 -23t-24.5 -29.5t-16 -28q9 -8 25 -19.5t36 -23.5t42.5 -23t45.5 -18q7 -2 15 -2q2 -1 3 -1q6 0 12 2q7 2 12 8t5 16zM833 0q-28 0 -58 7.5t-57 20t-48.5 28.5t-33.5 34q-5 -25 -15 -52.5t-24 -50.5
t-31.5 -38t-36.5 -15q-24 0 -54 8t-61.5 21t-62 29t-56.5 31t-44.5 27.5t-26.5 19.5q-13 -10 -34.5 -22.5t-47 -23t-53 -17.5t-53.5 -7h-66v236h52q43 0 83.5 6.5t63.5 27.5q11 11 27 32.5t36 47.5t43.5 53t48.5 49t51.5 36t53.5 14q46 0 85 -27.5t74.5 -65.5t68 -78
t65.5 -65q22 -17 49.5 -23.5t63.5 -6.5h165q51 0 75 11.5t29 31.5q1 5 1 10q0 16 -10 35q-13 26 -36 55l-69 88l131 188q16 -15 39 -43.5t44.5 -69.5t36.5 -94.5t15 -119.5q0 -56 -16 -114t-56.5 -105.5t-109 -78t-174.5 -30.5h-67zM1115 805l-182 119l133 178l180 -123z
" />
    <glyph glyph-name="uniFEE7_uniFEF0.liga" unicode="&#xfee7;&#xfef0;" horiz-adv-x="1676" 
d="M1173 0q-24 0 -53 2t-57.5 4.5t-55.5 5t-47 4.5q-22 2 -41 2q-30 0 -50 -4q-33 -7 -43 -17q-6 -5 -6 -10t5 -10q9 -10 35 -14q34 -6 71 -9.5t73 -9t68.5 -14t57.5 -23t39.5 -37t14.5 -56.5q0 -44 -37.5 -102t-111.5 -110t-183 -88t-252 -36q-101 0 -178.5 18t-134.5 49
t-95 73t-61.5 91t-33 102.5t-9.5 106.5q0 31 6 70t18 81.5t29 86t39 82.5l158 -54q-9 -15 -20.5 -43t-21 -59t-16 -61.5t-6.5 -51.5q0 -122 83.5 -188t254.5 -66h70q42 0 89.5 4t97 13.5t93.5 27.5q34 14 35 26q0 12 -31 15q-14 2 -44.5 3.5t-67.5 6t-76 13t-71.5 25t-53 42
t-20.5 64.5q0 64 41.5 115.5t110 88.5t155.5 57t178 20h222q51 0 75 11.5t29 31.5q1 5 1 10q0 16 -10 35q-13 26 -36 55l-69 88l131 188q16 -15 39 -43.5t44.5 -69.5t36.5 -94.5t15 -119.5q0 -56 -16 -114t-56.5 -105.5t-109 -78t-174.5 -30.5h-67zM1455 805l-182 119
l133 178l180 -123z" />
    <glyph glyph-name="uniFEE7_uniFEF2.liga" unicode="&#xfee7;&#xfef2;" horiz-adv-x="1676" 
d="M737 -887l-137 99l-80 -113l-172 117l111 147l143 -98l80 112l164 -114zM1173 0q-24 0 -53 2t-57.5 4.5t-55.5 5t-47 4.5q-22 2 -41 2q-30 0 -50 -4q-33 -7 -43 -17q-6 -5 -6 -10t5 -10q9 -10 35 -14q34 -6 71 -9.5t73 -9t68.5 -14t57.5 -23t39.5 -37t14.5 -56.5
q0 -44 -37.5 -102t-111.5 -110t-183 -88t-252 -36q-101 0 -178.5 18t-134.5 49t-95 73t-61.5 91t-33 102.5t-9.5 106.5q0 31 6 70t18 81.5t29 86t39 82.5l158 -54q-9 -15 -20.5 -43t-21 -59t-16 -61.5t-6.5 -51.5q0 -122 83.5 -188t254.5 -66h70q42 0 89.5 4t97 13.5
t93.5 27.5q34 14 35 26q0 12 -31 15q-14 2 -44.5 3.5t-67.5 6t-76 13t-71.5 25t-53 42t-20.5 64.5q0 64 41.5 115.5t110 88.5t155.5 57t178 20h222q51 0 75 11.5t29 31.5q1 5 1 10q0 16 -10 35q-13 26 -36 55l-69 88l131 188q16 -15 39 -43.5t44.5 -69.5t36.5 -94.5
t15 -119.5q0 -56 -16 -114t-56.5 -105.5t-109 -78t-174.5 -30.5h-67zM1455 805l-182 119l133 178l180 -123z" />
    <glyph glyph-name="uniFEF4_uniFEAE.liga" unicode="&#xfef4;&#xfeae;" horiz-adv-x="1514" 
d="M797 0q-35 0 -66.5 11t-48.5 28q-7 -79 -47 -156.5t-113 -148.5l-5 -5q-57 -53 -118.5 -96t-122.5 -75.5t-114 -53.5l-160 125q130 64 230 129t167 126q25 22 44 39t44.5 52t30.5 70q1 10 1 20q0 23 -8 43q-11 28 -27.5 55.5t-35.5 52.5t-34 46l160 172q34 -56 60 -94
t51.5 -61t54 -33t67.5 -10h225q21 0 47.5 3t50.5 13.5t40 31.5t16 58v80l168 55v-51q0 -99 31.5 -144.5t91.5 -45.5h67v-236h-76q-32 0 -61.5 7.5t-54.5 21.5t-43.5 33.5t-28.5 43.5q-37 -51 -96 -78.5t-144 -27.5h-243zM1235 -395l-138 96l-80 -113l-172 117l111 150
l143 -99l80 111l166 -115z" />
    <glyph glyph-name="uniFEF3_uniFEE4.liga" unicode="&#xfef3;&#xfee4;" horiz-adv-x="1467" 
d="M517 166q0 21 -9 47t-23.5 49t-32 39t-35.5 16q-12 0 -27 -9.5t-28.5 -23t-24.5 -29.5t-16 -28q9 -8 25 -19.5t36 -23.5t42.5 -23t45.5 -18q7 -2 15 -2q2 -1 3 -1q6 0 12 2q7 2 12 8t5 16zM833 0q-28 0 -58 7.5t-57 20t-48.5 28.5t-33.5 34q-5 -25 -15 -52.5t-24 -50.5
t-31.5 -38t-36.5 -15q-24 0 -54 8t-61.5 21t-62 29t-56.5 31t-44.5 27.5t-26.5 19.5q-13 -10 -34.5 -22.5t-47 -23t-53 -17.5t-53.5 -7h-66v236h52q43 0 83.5 6.5t63.5 27.5q11 11 27 32.5t36 47.5t43.5 53t48.5 49t51.5 36t53.5 14q46 0 85 -27.5t74.5 -65.5t68 -78
t65.5 -65q22 -17 49.5 -23.5t63.5 -6.5h296q51 0 75 11.5t29 31.5q1 5 1 10q0 16 -10 35q-13 26 -36 55l-69 88l131 188q16 -15 39 -43.5t44.5 -69.5t36.5 -94.5t15 -119.5q0 -56 -16 -114t-56.5 -105.5t-109 -78t-174.5 -30.5h-198zM1277 -395l-138 96l-80 -113l-172 117
l111 150l143 -99l80 111l166 -115z" />
    <glyph glyph-name="uniFEF4_uniFEE6.liga" unicode="&#xfef4;&#xfee6;" horiz-adv-x="1944" 
d="M583 416l-180 121l133 176l181 -121zM1224 0q-16 0 -36 3t-39.5 8.5t-35.5 13.5t-24 18q0 -114 -37 -216.5t-106.5 -180t-169.5 -123t-227 -45.5q-133 0 -221.5 42.5t-141 109.5t-74.5 149.5t-22 163.5q0 31 5.5 70t16 81t25.5 85t35 83l155 -55q-5 -13 -13.5 -39.5
t-17.5 -58t-15.5 -64t-6.5 -57.5q0 -62 18.5 -113t55 -87t91.5 -55.5t128 -19.5q81 0 144.5 24.5t107.5 66.5t67 97.5t23 118.5q0 36 -8.5 73.5t-22 72.5t-31.5 66.5t-36 56.5l174 166q15 -29 33 -66.5t42.5 -71.5t57.5 -57.5t78 -23.5h266q21 0 47.5 3t50.5 13.5t40 31.5
t16 58v80l168 55v-51q0 -99 31.5 -144.5t91.5 -45.5h67v-236h-76q-32 0 -61.5 7.5t-54.5 21.5t-43.5 33.5t-28.5 43.5q-37 -51 -96 -78.5t-144 -27.5h-246zM1665 -395l-138 96l-80 -113l-172 117l111 150l143 -99l80 111l166 -115z" />
    <glyph glyph-name="T_h.liga" unicode="Th" horiz-adv-x="1887" 
d="M940 1027h-332v-1027h-245v1027h-350v193h1162v-443h3q49 73 122.5 108.5t160.5 35.5q82 0 140 -27t95 -74.5t54 -112t17 -139.5v-568h-234v480q0 46 -2 87t-18 85q-17 50 -49 68.5t-84 18.5q-59 0 -98 -28.5t-63 -72.5t-34 -96.5t-10 -101.5v-440h-235v1027z" />
    <glyph glyph-name="f_b.liga" unicode="fb" horiz-adv-x="1747" 
d="M206 729h-173v171h173v126q0 67 18.5 123.5t54.5 97t90 63t124 22.5q85 0 171 -20l-19 -193q-14 9 -25.5 15t-23 10t-24 5t-29.5 1q-30 0 -49.5 -12t-31.5 -31.5t-17 -44t-5 -50.5v-112h205v-171h-205v-729h-234v729zM1246 739q-58 0 -98 -27.5t-64.5 -70t-36 -94
t-11.5 -100.5q0 -46 12 -96.5t37 -92.5t64 -70t93 -28q57 0 95.5 28.5t61 71t32 94t9.5 98.5t-8.5 98t-30.5 93t-59.5 69t-95.5 27zM800 1311h235v-526h3q49 70 116.5 103t152.5 33q105 0 177.5 -38.5t117 -103t64 -149.5t19.5 -178q0 -92 -20 -177.5t-65 -151.5t-117 -105
t-176 -39q-83 0 -154 32.5t-122 98.5h-3v-110h-228v1311z" />
    <glyph glyph-name="f_f_b.liga" unicode="ffb" horiz-adv-x="2327" 
d="M440 729v-729h-234v729h-173v171h173v126q0 67 18.5 123.5t54.5 97t90 63t124 22.5q85 0 171 -20l-19 -193q-14 9 -25.5 15t-23 10t-24 5t-29.5 1q-30 0 -49.5 -12t-31.5 -31.5t-17 -44t-5 -50.5v-112h346v126q0 67 18.5 123.5t54.5 97t90 63t124 22.5q85 0 171 -20
l-19 -193q-14 9 -25.5 15t-23 10t-24 5t-29.5 1q-30 0 -49.5 -12t-31.5 -31.5t-17 -44t-5 -50.5v-112h205v-171h-205v-729h-234v729h-346zM1826 739q-58 0 -98 -27.5t-64.5 -70t-36 -94t-11.5 -100.5q0 -46 12 -96.5t37 -92.5t64 -70t93 -28q57 0 95.5 28.5t61 71t32 94
t9.5 98.5t-8.5 98t-30.5 93t-59.5 69t-95.5 27zM1380 1311h235v-526h3q49 70 116.5 103t152.5 33q105 0 177.5 -38.5t117 -103t64 -149.5t19.5 -178q0 -92 -20 -177.5t-65 -151.5t-117 -105t-176 -39q-83 0 -154 32.5t-122 98.5h-3v-110h-228v1311z" />
    <glyph glyph-name="f_f.liga" unicode="ff" horiz-adv-x="1260" 
d="M440 729v-729h-234v729h-173v171h173v126q0 67 18.5 123.5t54.5 97t90 63t124 22.5q85 0 171 -20l-19 -193q-14 9 -25.5 15t-23 10t-24 5t-29.5 1q-30 0 -49.5 -12t-31.5 -31.5t-17 -44t-5 -50.5v-112h346v126q0 67 18.5 123.5t54.5 97t90 63t124 22.5q85 0 171 -20
l-19 -193q-14 9 -25.5 15t-23 10t-24 5t-29.5 1q-30 0 -49.5 -12t-31.5 -31.5t-17 -44t-5 -50.5v-112h205v-171h-205v-729h-234v729h-346z" />
    <glyph glyph-name="f_h.liga" unicode="fh" horiz-adv-x="1747" 
d="M206 729h-173v171h173v126q0 67 18.5 123.5t54.5 97t90 63t124 22.5q85 0 171 -20l-19 -193q-14 9 -25.5 15t-23 10t-24 5t-29.5 1q-30 0 -49.5 -12t-31.5 -31.5t-17 -44t-5 -50.5v-112h205v-171h-205v-729h-234v729zM800 1311h235v-534h3q49 73 122.5 108.5t160.5 35.5
q82 0 140 -27t95 -74.5t54 -112t17 -139.5v-568h-234v480q0 46 -2 87t-18 85q-17 50 -49 68.5t-84 18.5q-59 0 -98 -28.5t-63 -72.5t-34 -96.5t-10 -101.5v-440h-235v1311z" />
    <glyph glyph-name="f_f_h.liga" unicode="ffh" horiz-adv-x="2337" 
d="M440 729v-729h-234v729h-173v171h173v126q0 67 18.5 123.5t54.5 97t90 63t124 22.5q85 0 171 -20l-19 -193q-14 9 -25.5 15t-23 10t-24 5t-29.5 1q-30 0 -49.5 -12t-31.5 -31.5t-17 -44t-5 -50.5v-112h346v126q0 67 18.5 123.5t54.5 97t90 63t124 22.5q85 0 171 -20
l-19 -193q-14 9 -25.5 15t-23 10t-24 5t-29.5 1q-30 0 -49.5 -12t-31.5 -31.5t-17 -44t-5 -50.5v-112h205v-171h-205v-729h-234v729h-346zM1390 1311h235v-534h3q49 73 122.5 108.5t160.5 35.5q82 0 140 -27t95 -74.5t54 -112t17 -139.5v-568h-234v480q0 46 -2 87t-18 85
q-17 50 -49 68.5t-84 18.5q-59 0 -98 -28.5t-63 -72.5t-34 -96.5t-10 -101.5v-440h-235v1311z" />
    <glyph glyph-name="f_f_i.liga" unicode="ffi" horiz-adv-x="1747" 
d="M440 729v-729h-234v729h-173v171h173v126q0 67 18.5 123.5t54.5 97t90 63t124 22.5q85 0 171 -20l-19 -193q-14 9 -25.5 15t-23 10t-24 5t-29.5 1q-30 0 -49.5 -12t-31.5 -31.5t-17 -44t-5 -50.5v-112h346v126q0 67 18.5 123.5t54.5 97t90 63t124 22.5q85 0 171 -20
l-19 -193q-14 9 -25.5 15t-23 10t-24 5t-29.5 1q-30 0 -49.5 -12t-31.5 -31.5t-17 -44t-5 -50.5v-112h205v-171h-205v-729h-234v729h-346zM1385 900h235v-900h-235v900zM1385 1288h235v-224h-235v224z" />
    <glyph glyph-name="f_j.liga" unicode="fj" horiz-adv-x="1165" 
d="M206 729h-173v171h173v126q0 67 18.5 123.5t54.5 97t90 63t124 22.5q85 0 171 -20l-19 -193q-14 9 -25.5 15t-23 10t-24 5t-29.5 1q-30 0 -49.5 -12t-31.5 -31.5t-17 -44t-5 -50.5v-112h205v-171h-205v-729h-234v729zM804 1288h234v-224h-234v224zM661 -207q45 2 73.5 10
t43.5 25t20.5 46t5.5 73v953h234v-967q0 -67 -14.5 -126t-46.5 -102.5t-84 -68t-126 -24.5q-29 0 -58 3.5t-57 10.5z" />
    <glyph glyph-name="f_f_j.liga" unicode="ffj" horiz-adv-x="1747" 
d="M440 729v-729h-234v729h-173v171h173v126q0 67 18.5 123.5t54.5 97t90 63t124 22.5q85 0 171 -20l-19 -193q-14 9 -25.5 15t-23 10t-24 5t-29.5 1q-30 0 -49.5 -12t-31.5 -31.5t-17 -44t-5 -50.5v-112h346v126q0 67 18.5 123.5t54.5 97t90 63t124 22.5q85 0 171 -20
l-19 -193q-14 9 -25.5 15t-23 10t-24 5t-29.5 1q-30 0 -49.5 -12t-31.5 -31.5t-17 -44t-5 -50.5v-112h205v-171h-205v-729h-234v729h-346zM1385 1288h235v-224h-235v224zM1243 -207q45 2 73 10t43.5 25t20.5 46t5 73v953h235v-967q0 -67 -14.5 -126t-46.5 -102.5t-84 -68
t-126 -24.5q-29 0 -58 3.5t-58 10.5z" />
    <glyph glyph-name="f_k.liga" unicode="fk" horiz-adv-x="1652" 
d="M206 729h-173v171h173v126q0 67 18.5 123.5t54.5 97t90 63t124 22.5q85 0 171 -20l-19 -193q-14 9 -25.5 15t-23 10t-24 5t-29.5 1q-30 0 -49.5 -12t-31.5 -31.5t-17 -44t-5 -50.5v-112h205v-171h-205v-729h-234v729zM805 1311h235v-771h3l280 360h276l-335 -402
l377 -498h-297l-301 437h-3v-437h-235v1311z" />
    <glyph glyph-name="f_f_k.liga" unicode="ffk" horiz-adv-x="2231" 
d="M440 729v-729h-234v729h-173v171h173v126q0 67 18.5 123.5t54.5 97t90 63t124 22.5q85 0 171 -20l-19 -193q-14 9 -25.5 15t-23 10t-24 5t-29.5 1q-30 0 -49.5 -12t-31.5 -31.5t-17 -44t-5 -50.5v-112h346v126q0 67 18.5 123.5t54.5 97t90 63t124 22.5q85 0 171 -20
l-19 -193q-14 9 -25.5 15t-23 10t-24 5t-29.5 1q-30 0 -49.5 -12t-31.5 -31.5t-17 -44t-5 -50.5v-112h205v-171h-205v-729h-234v729h-346zM1385 1311h235v-771h3l280 360h276l-336 -402l377 -498h-297l-300 437h-3v-437h-235v1311z" />
    <glyph glyph-name="f_f_l.liga" unicode="ffl" horiz-adv-x="1745" 
d="M440 729v-729h-234v729h-173v171h173v126q0 67 18.5 123.5t54.5 97t90 63t124 22.5q85 0 171 -20l-19 -193q-14 9 -25.5 15t-23 10t-24 5t-29.5 1q-30 0 -49.5 -12t-31.5 -31.5t-17 -44t-5 -50.5v-112h346v126q0 67 18.5 123.5t54.5 97t90 63t124 22.5q85 0 171 -20
l-19 -193q-14 9 -25.5 15t-23 10t-24 5t-29.5 1q-30 0 -49.5 -12t-31.5 -31.5t-17 -44t-5 -50.5v-112h205v-171h-205v-729h-234v729h-346zM1385 1311h235v-1311h-235v1311z" />
    <glyph glyph-name="f_t.liga" unicode="ft" horiz-adv-x="1290" 
d="M440 729v-729h-234v729h-173v171h173v126q0 67 18.5 123.5t54.5 97t90 63t124 22.5q85 0 171 -20l-19 -193q-14 9 -25.5 15t-23 10t-24 5t-29.5 1q-30 0 -49.5 -12t-31.5 -31.5t-17 -44t-5 -50.5v-112h366v180l235 75v-255h208v-171h-208v-427q0 -27 5.5 -52.5
t18.5 -45.5t34 -32t52 -12q27 0 55 5.5t52 19.5l7 -185q-42 -13 -86 -17t-88 -4q-70 0 -123 19.5t-89 57t-54.5 91.5t-18.5 124v458h-366z" />
    <glyph glyph-name="f_f_t.liga" unicode="fft" horiz-adv-x="1870" 
d="M440 729v-729h-234v729h-173v171h173v126q0 67 18.5 123.5t54.5 97t90 63t124 22.5q85 0 171 -20l-19 -193q-14 9 -25.5 15t-23 10t-24 5t-29.5 1q-30 0 -49.5 -12t-31.5 -31.5t-17 -44t-5 -50.5v-112h346v126q0 67 18.5 123.5t54.5 97t90 63t124 22.5q85 0 171 -20
l-19 -193q-14 9 -25.5 15t-23 10t-24 5t-29.5 1q-30 0 -49.5 -12t-31.5 -31.5t-17 -44t-5 -50.5v-112h366v180l235 75v-255h208v-171h-208v-427q0 -27 5.5 -52.5t18.5 -45.5t34 -32t52 -12q27 0 55 5.5t52 19.5l7 -185q-42 -13 -86 -17t-88 -4q-70 0 -123 19.5t-89 57
t-54.5 91.5t-18.5 124v458h-366v-729h-234v729h-346z" />
    <glyph glyph-name="uni0647.fina" unicode="&#x647;" horiz-adv-x="976" arabic-form="final" 
d="M512 201q36 32 52 48.5t27.5 37t11.5 39.5q0 33 -9.5 62.5t-22.5 51t-25.5 34.5t-18.5 13t-18.5 -18.5t-27.5 -53t-23 -71.5t-10 -81v-13q0 -39 10 -89q34 22 54 40zM517 -18q4 -10 11 -19q12 -20 28 -36t33.5 -27.5t33.5 -14.5q-4 9 -4 31v10q1 30 10 69t28.5 81.5
t51.5 78t78 58.5t109 23h110v-236h-131q-55 0 -88 -24.5t-39 -57.5q-2 -8 -2 -16q0 -25 16 -51q21 -34 74 -54q-5 -27 -12 -66t-12 -75q-7 -42 -13 -88q-84 15 -150 45t-116 68.5t-85 82.5t-58 87q-8 16 -15 31q-26 -16 -52 -29q-61 -33 -114 -54l-160 125q130 64 219 120
q33 20 63 41l-11 151q0 90 23.5 175.5t58.5 151.5t74 106t71 40q21 0 52.5 -32t61 -84.5t50.5 -120t21 -138.5q0 -56 -19.5 -113.5t-51 -104.5t-71.5 -78q-8 -7 -22 -18t-25 -19t-26 -19z" />
    <glyph glyph-name="uni0672.fina" unicode="&#x672;" horiz-adv-x="590" 
d="M552 0q-78 0 -132.5 17t-91 47.5t-58 72.5t-33 91.5t-15.5 105t-6 112.5l-22 705l204 82v-813q0 -100 38 -142t110 -42h74v-236h-68zM411 1314q-45 -9 -90 -9q-42 0 -67 6t-42 13t-30 13t-31 6q-8 0 -20.5 -6t-25.5 -14q-15 -9 -32 -20l-47 57q24 30 50 46.5t52 22.5
q18 4 34 4h14q22 -3 38 -10l8 -2q-3 7 -5 15q-4 14 -4 35q0 34 15 63t38.5 51t52 34.5t55.5 12.5q36 0 68.5 -10t56.5 -33l-26 -63q-20 9 -49 12.5t-54 3.5q-11 0 -26 -4t-28.5 -11t-22.5 -16.5t-9 -21.5q0 -16 9.5 -29.5t26 -23t37.5 -13.5q14 -4 28 -4q6 0 12 1
q20 2 41.5 6t46 11t49.5 15q9 2 17 5l2 -108q-135 -34 -142 -35z" />
    <glyph glyph-name="uni0673.fina" unicode="&#x673;" horiz-adv-x="590" 
d="M552 0q-78 0 -132.5 17t-91 47.5t-58 72.5t-33 91.5t-15.5 105t-6 112.5l-22 705l204 82v-813q0 -100 38 -142t110 -42h74v-236h-68zM411 -428q-45 -9 -90 -9q-42 0 -67 6t-42 13t-30 13t-31 6q-8 0 -20.5 -6t-25.5 -14q-15 -9 -32 -20l-47 57q24 30 50 46.5t52 22.5
q18 4 34 4h14q22 -3 38 -10l8 -2q-3 7 -5 15q-4 14 -4 35q0 34 15 63t38.5 51t52 34.5t55.5 12.5q36 0 68.5 -10t56.5 -33l-26 -63q-20 9 -49 12.5t-54 3.5q-11 0 -26 -4t-28.5 -11t-22.5 -16.5t-9 -21.5q0 -16 9.5 -29.5t26 -23t37.5 -13.5q14 -4 28 -4q6 0 12 1
q20 2 41.5 6t46 11t49.5 15q9 2 17 5l2 -108q-135 -34 -142 -35z" />
    <glyph glyph-name="uni0675.fina" unicode="&#x675;" horiz-adv-x="794" 
d="M436 0q-78 0 -132.5 17t-91.5 47.5t-58.5 72.5t-33 91.5t-15.5 105t-5 112.5l-22 705l202 82v-813q0 -100 39 -142t111 -42h394v-236h-388zM350 1174v78l105 43q-12 10 -21.5 19t-16.5 20.5t-11 26t-4 35.5q0 34 15 63t38.5 51t52 34.5t55.5 12.5q36 0 68.5 -10t56.5 -33
l-26 -63q-20 9 -49 12.5t-54 3.5q-11 0 -26 -4t-28.5 -11t-22.5 -16.5t-9 -21.5q0 -16 9.5 -29.5t26 -23t39 -14.5t48.5 -5q7 0 28.5 5.5t47.5 13.5t51 15.5t39 12.5v-110z" />
    <glyph glyph-name="uni0676.fina" unicode="&#x676;" horiz-adv-x="923" 
d="M491 685v78l105 43q-11 10 -20.5 19.5t-16 20.5t-10.5 26t-4 37q0 33 15 62t38.5 50.5t51.5 34t54 12.5q36 0 68.5 -9.5t56.5 -31.5l-24 -65q-20 9 -50 12.5t-53 3.5q-11 0 -26.5 -4t-29 -11t-23 -16.5t-9.5 -21.5q0 -16 9.5 -29.5t26 -23t39 -14.5t48.5 -5q7 0 28.5 5.5
t48 13.5t51.5 16t40 13v-109zM547 233q-2 23 -13 46t-27 41.5t-36.5 30t-41.5 11.5q-19 0 -34 -9.5t-25.5 -22t-16.5 -26.5t-6 -23q0 -29 21.5 -42.5t52.5 -16.5q13 -1 27 -1q19 0 39 2q34 4 60 10zM953 236v-236h-255q-1 -3 -2 -8l-8 -22q-26 -68 -70 -128.5t-100.5 -113
t-118 -95.5t-122.5 -75.5t-114 -53.5l-160 125q130 64 230 129t167 125.5t102 112.5l3 4q-38 1 -82.5 5t-83 14.5t-68.5 34t-49 63.5t-19 99q0 23 6 57t17.5 71.5t30 75t43.5 67.5t57 48.5t71 18.5q78 0 133.5 -37t90.5 -98t51 -138q5 -24 8 -45h242z" />
    <glyph glyph-name="uni0677.fina" unicode="&#x677;" horiz-adv-x="1023" 
d="M601 685v78l105 43q-11 10 -20.5 19.5t-16 20.5t-10.5 26t-4 37q0 33 15 62t38.5 50.5t51.5 34t54 12.5q36 0 68.5 -9.5t56.5 -31.5l-24 -65q-20 9 -50 12.5t-53 3.5q-11 0 -26.5 -4t-29 -11t-23 -16.5t-9.5 -21.5q0 -16 9.5 -29.5t26 -23t39 -14.5t48.5 -5q7 0 28.5 5.5
t48 13.5t51.5 16t40 13v-109zM588 988v-7q0 -15 -3 -33q-5 -23 -16 -48t-31.5 -51t-54.5 -50l61 -41l-51 -57q-11 8 -32 24.5t-38 31.5q-31 -21 -76 -43.5t-98 -42t-108 -32.5l-33 70q57 17 126 43.5t129 60.5q-23 37 -31.5 58.5t-8.5 44.5v10q0 28 9 56q11 33 34 59.5
t55 40.5q27 12 48 12h6q28 0 49 -10t35 -25.5t21 -34t8 -36.5zM520 968q0 22 -14.5 38t-39.5 16q-26 0 -49 -18t-30 -40q-7 -18 -7 -30q0 -2 1 -4q1 -12 6.5 -25.5t19.5 -30t24 -20.5q15 4 43.5 29.5t37 44t8.5 40.5zM547 233q-2 23 -13 46t-27 41.5t-36.5 30t-41.5 11.5
q-19 0 -34 -9.5t-25.5 -22t-16.5 -26.5t-6 -23q0 -29 21.5 -42.5t52.5 -16.5q13 -1 27 -1q19 0 39 2q34 4 60 10zM1053 236v-236h-355q-1 -3 -2 -8l-8 -22q-26 -68 -70 -128.5t-100.5 -113t-118 -95.5t-122.5 -75.5t-114 -53.5l-160 125q130 64 230 129t167 125.5t102 112.5
l3 4q-38 1 -82.5 5t-83 14.5t-68.5 34t-49 63.5t-19 99q0 23 6 57t17.5 71.5t30 75t43.5 67.5t57 48.5t71 18.5q78 0 133.5 -37t90.5 -98t51 -138q5 -24 8 -45h342z" />
    <glyph glyph-name="uni0678.init" unicode="&#x678;" horiz-adv-x="711" 
d="M416 328q0 -56 -16 -114t-56.5 -105.5t-109 -78t-174.5 -30.5h-90v236h190q51 0 75 11.5t29 31.5q1 5 1 10q0 16 -10 35q-13 26 -36 55l-69 88l131 188q16 -15 39 -43.5t44.5 -69.5t36.5 -94.5t15 -119.5zM278 754v77l104 41l-20.5 20.5t-16 21t-10.5 26t-4 35.5
q0 34 15 63.5t38.5 51.5t52 34.5t54.5 12.5q35 0 68.5 -10t56.5 -33l-25 -64q-20 8 -49.5 12.5t-52.5 4.5q-12 0 -27 -4t-28.5 -11.5t-23 -18t-9.5 -22.5q0 -31 35 -50t87 -19q7 0 28.5 5.5t48 13t51.5 15.5t40 13v-111z" />
    <glyph glyph-name="uni0678.medi" unicode="&#x678;" horiz-adv-x="744" 
d="M488 0q-32 0 -61.5 7.5t-54.5 21.5t-43.5 33.5t-28.5 43.5q-37 -51 -96 -78.5t-144 -27.5h-90v236h82q21 0 47.5 3t50.5 13.5t40 31.5t16 58v80l168 55v-51q0 -99 31.5 -144.5t91.5 -45.5h277v-236h-286zM296 618v78l105 43q-11 10 -20.5 19t-16 20.5t-10.5 26t-4 35.5
q0 34 15 63t38.5 51t51.5 34.5t54 12.5q37 0 69.5 -10t55.5 -33l-24 -63q-20 9 -50 12.5t-53 3.5q-11 0 -26 -4t-28.5 -11t-22.5 -17.5t-9 -22.5q0 -15 9.5 -28t26 -22.5t38.5 -14.5t47 -5q7 0 29 5.5t48 13.5t51.5 16t39.5 13v-111z" />
    <glyph glyph-name="uni0678.fina" unicode="&#x678;" horiz-adv-x="1431" 
d="M1173 0q-24 0 -53 2t-57.5 4.5t-55.5 5t-47 4.5q-22 2 -41 2q-30 0 -50 -4q-33 -7 -43 -17q-6 -5 -6 -10t5 -10q9 -10 35 -14q34 -6 71 -9.5t73 -9t68.5 -14t57.5 -23t39.5 -37t14.5 -56.5q0 -44 -37.5 -102t-111.5 -110t-183 -88t-252 -36q-101 0 -178.5 18t-134.5 49
t-95 73t-61.5 91t-33 102.5t-9.5 106.5q0 31 6 70t18 81.5t29 86t39 82.5l158 -54q-9 -15 -20.5 -43t-21 -59t-16 -61.5t-6.5 -51.5q0 -122 83.5 -188t254.5 -66h70q42 0 89.5 4t97 13.5t93.5 27.5q34 14 35 26q0 12 -31 15q-14 2 -44.5 3.5t-67.5 6t-76 13t-71.5 25t-53 42
t-20.5 64.5q0 64 41.5 115.5t110 88.5t155.5 57t178 20h343v-236h-288zM985 381v77l105 41q-11 11 -20.5 20t-17 20.5t-12 26t-4.5 36.5q0 34 15.5 63.5t39.5 51.5t52.5 34.5t54.5 12.5q35 0 67.5 -10t57.5 -33l-25 -66q-21 9 -50 12.5t-52 3.5q-12 0 -27.5 -4t-29 -11
t-22.5 -16.5t-9 -21.5q0 -32 35 -50.5t88 -18.5q7 0 28.5 5.5t47.5 13t51.5 15t40.5 11.5v-109z" />
    <glyph glyph-name="uni067C.init" unicode="&#x67c;" horiz-adv-x="577" 
d="M386 838l-135 96l-80 -111l-172 117l109 147l145 -98l78 113l166 -115zM273 -105q0 23 -13 43.5t-30 37t-34 27.5t-24 15q-5 -8 -13.5 -22t-16 -30t-13 -31.5t-5.5 -28.5q0 -30 16.5 -45.5t45.5 -15.5q13 0 28 3t28 9t22 15.5t9 22.5zM60 0h-89v236h270q51 0 75 11.5
t29 31.5q1 5 1 10q0 16 -10 35q-13 26 -36 55l-69 88l131 188q16 -15 39 -43.5t44.5 -69.5t36.5 -94.5t15 -119.5q0 -56 -16 -114t-56 -105q-34 -39 -85 -67q9 -15 17 -31q20 -44 20 -94q0 -49 -17 -85.5t-44 -61.5t-62 -37.5t-71 -12.5q-42 0 -73 10.5t-51 29.5t-30 45
t-10 56q0 26 8 54.5t20 55.5q6 15 13 29z" />
    <glyph glyph-name="uni067C.medi" unicode="&#x67c;" horiz-adv-x="644" 
d="M415 692l-137 96l-80 -110l-172 117l110 147l144 -98l79 112l164 -114zM263 -105q0 23 -13 43.5t-30 37t-34 27.5t-24 15q-5 -8 -13.5 -22t-16 -30t-13 -31.5t-5.5 -28.5q0 -30 16.5 -45.5t45.5 -15.5q13 0 28 3t28 9t22 15.5t9 22.5zM50 0h-80v236h192q21 0 47.5 3
t50.5 13.5t40 31.5t16 58v80l168 55v-51q0 -99 31.5 -144.5t91.5 -45.5h67v-236h-76q-32 0 -61.5 7.5t-54.5 21.5t-43.5 33.5t-28.5 43.5q-31 -43 -77 -69l14 -26q20 -44 20 -94q0 -49 -17 -85.5t-44 -61.5t-62 -37.5t-71 -12.5q-42 0 -73 10.5t-51 29.5t-30 45t-10 56
q0 26 8 54.5t20 55.5q6 15 13 29z" />
    <glyph glyph-name="uni067C.fina" unicode="&#x67c;" horiz-adv-x="1667" 
d="M919 692l-137 96l-80 -110l-172 117l111 147l143 -98l80 112l164 -114zM903 -155q0 23 -13 43.5t-30 37t-34 27.5t-24 15q-5 -8 -13.5 -22t-16 -30t-13 -31.5t-5.5 -28.5q0 -30 16.5 -45.5t45.5 -15.5q13 0 28 3t28 9t22 15.5t9 22.5zM686 -57q-297 1 -441 84
q-145 84 -145 264q0 59 22 125.5t54 132.5l151 -47q-12 -26 -22 -52q-8 -22 -14.5 -45.5t-6.5 -39.5q0 -22 4 -44.5t18.5 -43.5t42 -39t74.5 -31.5t115.5 -21t165.5 -7.5h88q126 0 216.5 7t152 19t98 28t55.5 34.5t25 37.5t6 38v51l166 56v-48q0 -47 6.5 -78.5t23.5 -51
t47 -27.5t77 -8h32v-236h-69q-43 0 -76.5 9t-59 25t-43.5 37.5t-30 47.5q-30 -40 -93.5 -72.5t-156.5 -55.5q-81 -20 -182 -32q20 -43 20 -92t-17 -85.5t-44 -61.5t-62 -37.5t-71 -12.5q-42 0 -73 10.5t-51 29.5t-30 45t-10 56q0 26 8 54.5t20 55.5q4 11 9 22z" />
    <glyph glyph-name="uni067D.init" unicode="&#x67d;" horiz-adv-x="566" 
d="M486 328q0 -56 -16 -114t-56.5 -105.5t-109 -78t-174.5 -30.5h-160v236h260q51 0 75 11.5t29 31.5q1 5 1 10q0 16 -10 35q-13 26 -36 55l-69 88l131 188q16 -15 39 -43.5t44.5 -69.5t36.5 -94.5t15 -119.5zM371 980l-135 88l-76 -105l-157 105l106 139l133 -88l74 104
l156 -104zM291 756l-143 99l100 135l148 -98z" />
    <glyph glyph-name="uni067D.medi" unicode="&#x67d;" horiz-adv-x="644" 
d="M598 0q-32 0 -61.5 7.5t-54.5 21.5t-43.5 33.5t-28.5 43.5q-37 -51 -96 -78.5t-144 -27.5h-200v236h192q21 0 47.5 3t50.5 13.5t40 31.5t16 58v80l168 55v-51q0 -99 31.5 -144.5t91.5 -45.5h67v-236h-76zM397 838l-135 88l-76 -105l-157 105l106 139l133 -88l74 104
l156 -104zM317 614l-143 99l100 135l148 -98z" />
    <glyph glyph-name="uni067D.fina" unicode="&#x67d;" horiz-adv-x="1667" 
d="M1628 0q-43 0 -76.5 9t-59 25t-43.5 37.5t-30 47.5q-30 -40 -93.5 -72.5t-156.5 -55.5t-213 -35.5t-264 -12.5q-302 0 -447 84t-145 264q0 59 22 125.5t54 132.5l151 -47q-12 -26 -22 -52q-8 -22 -14.5 -45.5t-6.5 -39.5q0 -22 4 -44.5t18.5 -43.5t42 -39t74.5 -31.5
t115.5 -21t165.5 -7.5h88q126 0 216.5 7t152 19t98 28t55.5 34.5t25 37.5t6 38v51l166 56v-48q0 -47 6.5 -78.5t23.5 -51t47 -27.5t77 -8h32v-236h-69zM928 786l-135 88l-76 -105l-157 105l106 139l133 -88l74 104l156 -104zM848 562l-143 99l100 135l148 -98z" />
    <glyph glyph-name="uni0681.init" unicode="&#x681;" horiz-adv-x="1133" 
d="M1050 305q-77 0 -141.5 -22.5t-126 -56.5t-124 -73.5t-135 -73.5t-159.5 -56.5t-197 -22.5h-197v236h195q86 0 155.5 13.5t129.5 32.5t113.5 40.5t107.5 37.5q-20 2 -48 9t-60.5 16.5t-66 20t-64 19t-55 14t-38.5 5.5q-22 0 -37 -8t-26 -19t-19.5 -24.5t-17.5 -23.5
q-12 5 -31 13t-40 18l-42 20t-39 20q12 28 32.5 66t48.5 72t62.5 57.5t75.5 23.5q47 0 101 -13t114 -32t125 -40t135 -36.5t144 -22.5q34 -4 68 -4q41 0 83 5zM398 821v77l104 41l-20.5 20.5t-16 21t-10.5 26t-4 35.5q0 34 15 63.5t38.5 51.5t52 34.5t54.5 12.5
q35 0 68.5 -10t56.5 -33l-25 -64q-20 8 -49.5 12.5t-52.5 4.5q-12 0 -27 -4t-28.5 -11.5t-23 -18t-9.5 -22.5q0 -31 35 -50t87 -19q7 0 28.5 5.5t48 13t51.5 15.5t40 13v-111z" />
    <glyph glyph-name="uni0681.medi" unicode="&#x681;" horiz-adv-x="1206" 
d="M1009 0q-48 0 -83.5 12.5t-61 33t-43 47t-27.5 53.5q-25 64 -25 147q-51 -29 -94.5 -62t-86 -66t-85.5 -62.5t-92 -52.5t-107.5 -36.5t-130.5 -13.5h-203v236h172q87 0 153 18t120.5 44t103 56t101.5 54q-29 3 -71.5 10.5t-84.5 15t-77 13.5t-48 6q-14 0 -27 -7.5
t-25 -19.5t-22.5 -27t-19.5 -30q-12 5 -31 13t-40 18l-42 20t-39 20q11 28 31 69.5t48 79t63.5 64.5t76.5 27q18 0 62 -10t106 -24t138 -29.5t158 -26.5t166 -15q25 -1 50 -1q57 0 111 6l-29 -228q-18 0 -42.5 -2t-50 -5t-50 -8t-43.5 -11q4 -14 9.5 -29.5t20.5 -29
t43.5 -22.5t79.5 -9h195v-236h-227zM398 821v77l104 41l-20.5 20.5t-16 21t-10.5 26t-4 35.5q0 34 15 63.5t38.5 51.5t52 34.5t54.5 12.5q35 0 68.5 -10t56.5 -33l-25 -64q-20 8 -49.5 12.5t-52.5 4.5q-12 0 -27 -4t-28.5 -11.5t-23 -18t-9.5 -22.5q0 -31 35 -50t87 -19
q7 0 28.5 5.5t48 13t51.5 15.5t40 13v-111z" />
    <glyph glyph-name="uni0681.fina" unicode="&#x681;" horiz-adv-x="1229" 
d="M1017 0q-47 0 -82.5 14t-60.5 36.5t-41.5 52t-26.5 59.5q-21 63 -21 142v20q-93 -30 -182 -81t-158 -115.5t-111 -138.5t-42 -151q0 -36 7 -75.5t27 -78t55.5 -73t92.5 -60.5t138 -41.5t192 -15.5q49 0 100 5t95.5 12t79 15t51.5 13l63 -201q-31 -11 -76 -24.5
t-100.5 -25t-118 -19.5t-127.5 -8q-180 0 -310.5 38.5t-216 109.5t-126.5 173t-41 230q0 68 21 131t57 119t84 105.5t102 91.5t111.5 75.5t111.5 58.5q-29 4 -63 8t-65 7.5t-56 5.5t-37 2q-15 0 -28.5 -7t-25.5 -18.5t-22.5 -25.5t-19.5 -29q-12 5 -31.5 13.5t-41 19
t-43 21.5t-38.5 22q12 27 32.5 67.5t48.5 77.5t63.5 63.5t76.5 26.5q18 0 62 -5t106 -12t138 -14t158 -11q66 -3 132 -3h34q83 1 161 10l-29 -241q-19 0 -41.5 -1t-45.5 -3t-44.5 -5t-38.5 -6q2 -14 6 -34.5t17.5 -39.5t41.5 -32.5t79 -13.5h209v-236h-242zM398 821v77
l104 41l-20.5 20.5t-16 21t-10.5 26t-4 35.5q0 34 15 63.5t38.5 51.5t52 34.5t54.5 12.5q35 0 68.5 -10t56.5 -33l-25 -64q-20 8 -49.5 12.5t-52.5 4.5q-12 0 -27 -4t-28.5 -11.5t-23 -18t-9.5 -22.5q0 -31 35 -50t87 -19q7 0 28.5 5.5t48 13t51.5 15.5t40 13v-111z" />
    <glyph glyph-name="uni0682.init" unicode="&#x682;" horiz-adv-x="1133" 
d="M1050 305q-77 0 -141.5 -22.5t-126 -56.5t-124 -73.5t-135 -73.5t-159.5 -56.5t-197 -22.5h-197v236h195q86 0 155.5 13.5t129.5 32.5t113.5 40.5t107.5 37.5q-20 2 -48 9t-60.5 16.5t-66 20t-64 19t-55 14t-38.5 5.5q-22 0 -37 -8t-26 -19t-19.5 -24.5t-17.5 -23.5
q-12 5 -31 13t-40 18l-42 20t-39 20q12 28 32.5 66t48.5 72t62.5 57.5t75.5 23.5q47 0 101 -13t114 -32t125 -40t135 -36.5t144 -22.5q34 -4 68 -4q41 0 83 5zM621 1070l-118 101l117 135l133 -114l-115 -130l123 -102l-112 -136l-138 115z" />
    <glyph glyph-name="uni0682.medi" unicode="&#x682;" horiz-adv-x="1206" 
d="M1009 0q-48 0 -83.5 12.5t-61 33t-43 47t-27.5 53.5q-25 64 -25 147q-51 -29 -94.5 -62t-86 -66t-85.5 -62.5t-92 -52.5t-107.5 -36.5t-130.5 -13.5h-203v236h172q87 0 153 18t120.5 44t103 56t101.5 54q-29 3 -71.5 10.5t-84.5 15t-77 13.5t-48 6q-14 0 -27 -7.5
t-25 -19.5t-22.5 -27t-19.5 -30q-12 5 -31 13t-40 18l-42 20t-39 20q11 28 31 69.5t48 79t63.5 64.5t76.5 27q18 0 62 -10t106 -24t138 -29.5t158 -26.5t166 -15q25 -1 50 -1q57 0 111 6l-29 -228q-18 0 -42.5 -2t-50 -5t-50 -8t-43.5 -11q4 -14 9.5 -29.5t20.5 -29
t43.5 -22.5t79.5 -9h195v-236h-227zM651 1067l-118 101l117 135l133 -114l-115 -130l123 -102l-112 -136l-138 115z" />
    <glyph glyph-name="uni0682.fina" unicode="&#x682;" horiz-adv-x="1229" 
d="M1017 0q-47 0 -82.5 14t-60.5 36.5t-41.5 52t-26.5 59.5q-21 63 -21 142v20q-93 -30 -182 -81t-158 -115.5t-111 -138.5t-42 -151q0 -36 7 -75.5t27 -78t55.5 -73t92.5 -60.5t138 -41.5t192 -15.5q49 0 100 5t95.5 12t79 15t51.5 13l63 -201q-31 -11 -76 -24.5
t-100.5 -25t-118 -19.5t-127.5 -8q-180 0 -310.5 38.5t-216 109.5t-126.5 173t-41 230q0 68 21 131t57 119t84 105.5t102 91.5t111.5 75.5t111.5 58.5q-29 4 -63 8t-65 7.5t-56 5.5t-37 2q-15 0 -28.5 -7t-25.5 -18.5t-22.5 -25.5t-19.5 -29q-12 5 -31.5 13.5t-41 19
t-43 21.5t-38.5 22q12 27 32.5 67.5t48.5 77.5t63.5 63.5t76.5 26.5q18 0 62 -5t106 -12t138 -14t158 -11q66 -3 132 -3h34q83 1 161 10l-29 -241q-19 0 -41.5 -1t-45.5 -3t-44.5 -5t-38.5 -6q2 -14 6 -34.5t17.5 -39.5t41.5 -32.5t79 -13.5h209v-236h-242zM612 1067
l-118 101l117 135l133 -114l-115 -130l123 -102l-112 -136l-138 115z" />
    <glyph glyph-name="uni0685.init" unicode="&#x685;" horiz-adv-x="1133" 
d="M1050 305q-77 0 -141.5 -22.5t-126 -56.5t-124 -73.5t-135 -73.5t-159.5 -56.5t-197 -22.5h-197v236h195q86 0 155.5 13.5t129.5 32.5t113.5 40.5t107.5 37.5q-20 2 -48 9t-60.5 16.5t-66 20t-64 19t-55 14t-38.5 5.5q-22 0 -37 -8t-26 -19t-19.5 -24.5t-17.5 -23.5
q-12 5 -31 13t-40 18l-42 20t-39 20q12 28 32.5 66t48.5 72t62.5 57.5t75.5 23.5q47 0 101 -13t114 -32t125 -40t135 -36.5t144 -22.5q34 -4 68 -4q41 0 83 5zM470 1054l133 -88l76 104l157 -104l-106 -140l-133 89l-74 -105l-156 105zM548 1277l143 -98l-100 -135l-148 98z
" />
    <glyph glyph-name="uni0685.medi" unicode="&#x685;" horiz-adv-x="1206" 
d="M1009 0q-48 0 -83.5 12.5t-61 33t-43 47t-27.5 53.5q-25 64 -25 147q-51 -29 -94.5 -62t-86 -66t-85.5 -62.5t-92 -52.5t-107.5 -36.5t-130.5 -13.5h-203v236h172q87 0 153 18t120.5 44t103 56t101.5 54q-29 3 -71.5 10.5t-84.5 15t-77 13.5t-48 6q-14 0 -27 -7.5
t-25 -19.5t-22.5 -27t-19.5 -30q-12 5 -31 13t-40 18l-42 20t-39 20q11 28 31 69.5t48 79t63.5 64.5t76.5 27q18 0 62 -10t106 -24t138 -29.5t158 -26.5t166 -15q25 -1 50 -1q57 0 111 6l-29 -228q-18 0 -42.5 -2t-50 -5t-50 -8t-43.5 -11q4 -14 9.5 -29.5t20.5 -29
t43.5 -22.5t79.5 -9h195v-236h-227zM470 1051l133 -88l76 104l157 -104l-106 -140l-133 89l-74 -105l-156 105zM548 1274l143 -98l-100 -135l-148 98z" />
    <glyph glyph-name="uni0685.fina" unicode="&#x685;" horiz-adv-x="1229" 
d="M1017 0q-47 0 -82.5 14t-60.5 36.5t-41.5 52t-26.5 59.5q-21 63 -21 142v20q-93 -30 -182 -81t-158 -115.5t-111 -138.5t-42 -151q0 -36 7 -75.5t27 -78t55.5 -73t92.5 -60.5t138 -41.5t192 -15.5q49 0 100 5t95.5 12t79 15t51.5 13l63 -201q-31 -11 -76 -24.5
t-100.5 -25t-118 -19.5t-127.5 -8q-180 0 -310.5 38.5t-216 109.5t-126.5 173t-41 230q0 68 21 131t57 119t84 105.5t102 91.5t111.5 75.5t111.5 58.5q-29 4 -63 8t-65 7.5t-56 5.5t-37 2q-15 0 -28.5 -7t-25.5 -18.5t-22.5 -25.5t-19.5 -29q-12 5 -31.5 13.5t-41 19
t-43 21.5t-38.5 22q12 27 32.5 67.5t48.5 77.5t63.5 63.5t76.5 26.5q18 0 62 -5t106 -12t138 -14t158 -11q66 -3 132 -3h34q83 1 161 10l-29 -241q-19 0 -41.5 -1t-45.5 -3t-44.5 -5t-38.5 -6q2 -14 6 -34.5t17.5 -39.5t41.5 -32.5t79 -13.5h209v-236h-242zM478 1060
l133 -88l76 104l157 -104l-106 -140l-133 89l-74 -105l-156 105zM556 1283l143 -98l-100 -135l-148 98z" />
    <glyph glyph-name="uni0689.fina" unicode="&#x689;" horiz-adv-x="1037" 
d="M533 -115q0 23 -13 43.5t-30 37t-34 27.5t-24 15q-5 -8 -13.5 -22t-16 -30t-13 -31.5t-5.5 -28.5q0 -30 16.5 -45.5t45.5 -15.5q13 0 28 3t28 9t22 15.5t9 22.5zM309 -23q-23 2 -43 7q-49 11 -82.5 27.5t-54.5 35.5t-35 35l72 188q24 -19 47.5 -31.5t50.5 -19.5t61 -9.5
t80 -2.5q51 0 99 6.5t81.5 23t48.5 44.5q8 14 8 33q0 17 -7 38l-136 389l162 148l135 -434q22 -69 43 -112t44 -67t50 -32t60 -8h74v-236h-70q-42 0 -83.5 10t-79.5 30.5t-69.5 51t-52.5 72.5q-17 -39 -41.5 -73.5t-62.5 -60.5l-1 -1l10 -18q20 -44 20 -94q0 -49 -17 -85.5
t-44 -61.5t-62 -37.5t-71 -12.5q-42 0 -73 10.5t-51 29.5t-30 45t-10 56q0 26 8 54.5t20 55.5z" />
    <glyph glyph-name="uni068A.fina" unicode="&#x68a;" horiz-adv-x="1037" 
d="M997 0q-42 0 -83.5 10t-79.5 30.5t-69.5 51t-52.5 72.5q-17 -39 -41.5 -73.5t-62.5 -60.5t-93 -41.5t-132 -15.5q-69 0 -117.5 11t-82 27.5t-54.5 35.5t-35 35l72 188q24 -19 47.5 -31.5t50.5 -19.5t61 -9.5t80 -2.5q51 0 99 6.5t81.5 23t48.5 44.5q8 14 8 33q0 17 -7 38
l-136 389l162 148l135 -434q22 -69 43 -112t44 -67t50 -32t60 -8h74v-236h-70zM474 -469l-181 121l131 178l181 -123z" />
    <glyph glyph-name="uni068B.fina" unicode="&#x68b;" horiz-adv-x="1037" 
d="M997 0q-42 0 -83.5 10t-79.5 30.5t-69.5 51t-52.5 72.5q-17 -39 -41.5 -73.5t-62.5 -60.5t-93 -41.5t-132 -15.5q-69 0 -117.5 11t-82 27.5t-54.5 35.5t-35 35l72 188q24 -19 47.5 -31.5t50.5 -19.5t61 -9.5t80 -2.5q51 0 99 6.5t81.5 23t48.5 44.5q8 14 8 33q0 17 -7 38
l-136 389l162 148l135 -434q22 -69 43 -112t44 -67t50 -32t60 -8h74v-236h-70zM777 1115q0 -44 -21 -75t-54 -51.5t-75 -30t-83 -9.5h-63q-45 0 -79.5 14t-49.5 35l29 58q13 -8 31 -12q12 -4 25 -4h8q16 2 28 9.5t16 22.5t5 36.5t1 47.5q0 24 -1 51t-2 53q-4 61 -11 127
l82 31v-263q24 21 55 37.5t60 16.5q41 0 70 -24.5t29 -69.5zM714 1091q0 14 -15 23.5t-40 9.5q-20 0 -40.5 -10.5t-37.5 -24.5t-30.5 -28t-20.5 -22h36q30 0 56.5 4.5t46.5 11.5t32.5 16.5t12.5 19.5zM474 -469l-181 121l131 178l181 -123z" />
    <glyph glyph-name="uni068F.fina" unicode="&#x68f;" horiz-adv-x="1037" 
d="M997 0q-42 0 -83.5 10t-79.5 30.5t-69.5 51t-52.5 72.5q-17 -39 -41.5 -73.5t-62.5 -60.5t-93 -41.5t-132 -15.5q-69 0 -117.5 11t-82 27.5t-54.5 35.5t-35 35l72 188q24 -19 47.5 -31.5t50.5 -19.5t61 -9.5t80 -2.5q51 0 99 6.5t81.5 23t48.5 44.5q8 14 8 33q0 17 -7 38
l-136 389l162 148l135 -434q22 -69 43 -112t44 -67t50 -32t60 -8h74v-236h-70zM639 1162l-135 88l-76 -105l-157 105l106 139l133 -88l74 104l156 -104zM559 938l-143 99l100 135l148 -98z" />
    <glyph glyph-name="uni0690.fina" unicode="&#x690;" horiz-adv-x="1037" 
d="M997 0q-42 0 -83.5 10t-79.5 30.5t-69.5 51t-52.5 72.5q-17 -39 -41.5 -73.5t-62.5 -60.5t-93 -41.5t-132 -15.5q-69 0 -117.5 11t-82 27.5t-54.5 35.5t-35 35l72 188q24 -19 47.5 -31.5t50.5 -19.5t61 -9.5t80 -2.5q51 0 99 6.5t81.5 23t48.5 44.5q8 14 8 33q0 17 -7 38
l-136 389l162 148l135 -434q22 -69 43 -112t44 -67t50 -32t60 -8h74v-236h-70zM389 1150l-150 101l103 139l133 -88l76 104l157 -104l-103 -136l152 -101l-106 -140l-133 89l-74 -105l-156 105zM597 1165l-128 86l-72 -102l127 -84z" />
    <glyph glyph-name="uni0692.fina" unicode="&#x692;" horiz-adv-x="832" 
d="M487.5 -25q25.5 35 30.5 70q1 10 1 20q0 23 -8 43q-11 28 -27.5 55.5t-35.5 52.5t-34 46l160 172q34 -56 60 -94t51.5 -61t54 -33t67.5 -10h55v-236h-65q-35 0 -66.5 11t-48.5 28q-7 -79 -47 -156.5t-113 -148.5l-5 -5q-57 -53 -118.5 -96t-122.5 -75.5t-114 -53.5
l-160 125q130 64 230 129t167 126q25 22 44 39t44.5 52zM663 892q-17 -12 -41.5 -38t-47 -61.5t-38.5 -78.5t-16 -89h-70q0 46 -17 89t-40 78.5t-47 61t-39 36.5l35 79q28 -26 50 -50.5t39 -50.5t30 -55.5t24 -64.5q22 70 58.5 128.5t82.5 93.5q5 -6 11 -19l12 -26
q7 -15 14 -33z" />
    <glyph glyph-name="uni0693.fina" unicode="&#x693;" horiz-adv-x="832" 
d="M567 -437q0 23 -13 43.5t-30 37t-34 27.5t-24 15q-5 -8 -13.5 -22t-16 -30t-13 -31.5t-5.5 -28.5q0 -30 16.5 -45.5t45.5 -15.5q13 0 28 3t28 9t22 15.5t9 22.5zM321 -417q-23 -14 -45 -25q-61 -33 -114 -54l-160 125q130 64 230 129t167 126q25 22 44 39t44.5 52
t30.5 70q1 10 1 20q0 23 -8 43q-11 28 -27.5 55.5t-35.5 52.5t-34 46l160 172q34 -56 60 -94t51.5 -61t54 -33t67.5 -10h55v-236h-65q-35 0 -66.5 11t-48.5 28q-7 -79 -47 -156q-26 -50 -65 -97q14 -13 27 -26q33 -37 53.5 -81t20.5 -94q0 -49 -17 -85.5t-44 -61.5
t-62 -37.5t-71 -12.5q-42 0 -73 10.5t-51 29.5t-30 45t-10 56q0 26 8 54z" />
    <glyph glyph-name="uni0694.fina" unicode="&#x694;" horiz-adv-x="832" 
d="M487.5 -25q25.5 35 30.5 70q1 10 1 20q0 23 -8 43q-11 28 -27.5 55.5t-35.5 52.5t-34 46l160 172q34 -56 60 -94t51.5 -61t54 -33t67.5 -10h55v-236h-65q-35 0 -66.5 11t-48.5 28q-7 -79 -47 -156.5t-113 -148.5l-5 -5q-57 -53 -118.5 -96t-122.5 -75.5t-114 -53.5
l-160 125q130 64 230 129t167 126q25 22 44 39t44.5 52zM606 -648l-148 99l107 145l148 -100z" />
    <glyph glyph-name="uni0695.fina" unicode="&#x695;" horiz-adv-x="832" 
d="M487.5 -25q25.5 35 30.5 70q1 10 1 20q0 23 -8 43q-11 28 -27.5 55.5t-35.5 52.5t-34 46l160 172q34 -56 60 -94t51.5 -61t54 -33t67.5 -10h55v-236h-65q-35 0 -66.5 11t-48.5 28q-7 -79 -47 -156.5t-113 -148.5l-5 -5q-57 -53 -118.5 -96t-122.5 -75.5t-114 -53.5
l-160 125q130 64 230 129t167 126q25 22 44 39t44.5 52zM612 -588q-17 -12 -41.5 -38t-47 -61.5t-38.5 -78.5t-16 -89h-70q0 46 -17 89t-40 78.5t-47 61t-39 36.5l35 79q28 -26 50 -50.5t39 -50.5t30 -55.5t24 -64.5q22 70 58.5 128.5t82.5 93.5q5 -6 11 -19l12 -26
q7 -15 14 -33z" />
    <glyph glyph-name="uni0696.fina" unicode="&#x696;" horiz-adv-x="832" 
d="M487.5 -25q25.5 35 30.5 70q1 10 1 20q0 23 -8 43q-11 28 -27.5 55.5t-35.5 52.5t-34 46l160 172q34 -56 60 -94t51.5 -61t54 -33t67.5 -10h55v-236h-65q-35 0 -66.5 11t-48.5 28q-7 -79 -47 -156.5t-113 -148.5l-5 -5q-57 -53 -118.5 -96t-122.5 -75.5t-114 -53.5
l-160 125q130 64 230 129t167 126q25 22 44 39t44.5 52zM606 -648l-148 99l107 145l148 -100zM266 -53l-148 99l107 145l148 -100z" />
    <glyph glyph-name="uni0697.fina" unicode="&#x697;" horiz-adv-x="832" 
d="M487.5 -25q25.5 35 30.5 70q1 10 1 20q0 23 -8 43q-11 28 -27.5 55.5t-35.5 52.5t-34 46l160 172q34 -56 60 -94t51.5 -61t54 -33t67.5 -10h55v-236h-65q-35 0 -66.5 11t-48.5 28q-7 -79 -47 -156.5t-113 -148.5l-5 -5q-57 -53 -118.5 -96t-122.5 -75.5t-114 -53.5
l-160 125q130 64 230 129t167 126q25 22 44 39t44.5 52zM308 839l133 -88l76 104l157 -104l-106 -140l-133 89l-74 -105l-156 105z" />
    <glyph glyph-name="uni0699.fina" unicode="&#x699;" horiz-adv-x="832" 
d="M487.5 -25q25.5 35 30.5 70q1 10 1 20q0 23 -8 43q-11 28 -27.5 55.5t-35.5 52.5t-34 46l160 172q34 -56 60 -94t51.5 -61t54 -33t67.5 -10h55v-236h-65q-35 0 -66.5 11t-48.5 28q-7 -79 -47 -156.5t-113 -148.5l-5 -5q-57 -53 -118.5 -96t-122.5 -75.5t-114 -53.5
l-160 125q130 64 230 129t167 126q25 22 44 39t44.5 52zM307 838l-150 101l103 139l133 -88l76 104l157 -104l-103 -136l152 -101l-106 -140l-133 89l-74 -105l-156 105zM515 853l-128 86l-72 -102l127 -84z" />
    <glyph glyph-name="uni069A.init" unicode="&#x69a;" horiz-adv-x="1197" 
d="M1119 332q0 -60 -18 -119.5t-51 -107.5t-80 -77.5t-105 -29.5q-89 0 -144.5 31t-84.5 77q-12 -20 -28 -39t-37 -34t-48.5 -24t-62.5 -9q-71 0 -124 29t-81 77q-12 -21 -34.5 -40t-52 -33.5t-64.5 -23.5t-72 -9h-62v236h82q25 0 48 7.5t41 22.5t29 37.5t11 52.5v60l144 47
v-64q0 -35 7.5 -65t21.5 -52t33.5 -34t43.5 -12q12 0 35.5 0.5t47.5 12t42 38t18 78.5v79l146 43v-100q0 -35 10 -64t29 -50t45.5 -32.5t58.5 -11.5q47 0 67.5 24t20.5 58q0 15 -6.5 35t-16 40t-22 37.5t-24.5 29.5l143 159q43 -48 68.5 -121t25.5 -159zM627 672l-181 121
l131 178l181 -123zM627 -469l-181 121l131 178l181 -123z" />
    <glyph glyph-name="uni069A.medi" unicode="&#x69a;" horiz-adv-x="1212" 
d="M1179 0q-45 0 -75.5 8t-52 22t-37 33.5t-30.5 42.5q-31 -51 -77.5 -78.5t-106.5 -27.5t-101.5 29t-66.5 77q-34 -43 -83 -74.5t-112 -31.5q-60 0 -104 29t-66 77q-28 -43 -75 -74.5t-117 -31.5h-105v236h109q27 0 44 8.5t26 22.5t12.5 32t3.5 37v76l145 49v-68
q0 -45 8.5 -75.5t25.5 -48.5t41 -25.5t56 -7.5q45 0 77 25t32 75v76l141 49v-68q0 -44 8 -74t23 -48.5t35.5 -26.5t46.5 -8q22 0 45 5t41.5 16.5t30.5 30.5t12 48v76l143 49v-134q0 -29 9.5 -49.5t32.5 -31t69 -10.5h55v-236h-63zM627 672l-181 121l131 178l181 -123z
M627 -469l-181 121l131 178l181 -123z" />
    <glyph glyph-name="uni069A.fina" unicode="&#x69a;" horiz-adv-x="1975" 
d="M1938 0q-45 0 -75.5 8t-53 22t-38 33.5t-30.5 42.5q-29 -51 -76.5 -78.5t-105.5 -27.5q-60 0 -102 29t-68 77q-32 -43 -80.5 -74.5t-108.5 -31.5q-30 0 -50 3t-33.5 8.5t-22 13.5t-15.5 18q0 -114 -37 -216.5t-106.5 -180t-170.5 -123t-228 -45.5q-133 0 -221.5 42.5
t-141 109.5t-74.5 149.5t-22 163.5q0 31 5.5 70t16.5 81t26.5 85t35.5 83l156 -55q-6 -13 -15.5 -39.5t-18.5 -58t-15.5 -64t-6.5 -57.5q0 -62 18.5 -113t55.5 -87t92 -55.5t129 -19.5q80 0 143.5 24.5t107.5 66.5t67.5 97.5t23.5 118.5q0 36 -8.5 73.5t-23 72.5t-32.5 66.5
t-36 56.5l176 166q15 -29 40 -66.5t55.5 -71.5t64 -57.5t65.5 -23.5q44 0 75.5 25t31.5 75v76l143 49v-68q0 -44 8 -74t22.5 -48.5t35.5 -26.5t47 -8q22 0 44.5 5t41 16.5t30 30.5t11.5 48v76l145 49v-134q0 -29 9.5 -49.5t32.5 -31t69 -10.5h59v-236h-67zM1377 672
l-181 121l131 178l181 -123zM1377 -469l-181 121l131 178l181 -123z" />
    <glyph glyph-name="uni069B.init" unicode="&#x69b;" horiz-adv-x="1197" 
d="M1119 332q0 -60 -18 -119.5t-51 -107.5t-80 -77.5t-105 -29.5q-89 0 -144.5 31t-84.5 77q-12 -20 -28 -39t-37 -34t-48.5 -24t-62.5 -9q-71 0 -124 29t-81 77q-12 -21 -34.5 -40t-52 -33.5t-64.5 -23.5t-72 -9h-62v236h82q25 0 48 7.5t41 22.5t29 37.5t11 52.5v60l144 47
v-64q0 -35 7.5 -65t21.5 -52t33.5 -34t43.5 -12q12 0 35.5 0.5t47.5 12t42 38t18 78.5v79l146 43v-100q0 -35 10 -64t29 -50t45.5 -32.5t58.5 -11.5q47 0 67.5 24t20.5 58q0 15 -6.5 35t-16 40t-22 37.5t-24.5 29.5l143 159q43 -48 68.5 -121t25.5 -159zM738 -365l-133 89
l-78 -105l-155 105l106 139l133 -88l72 104l158 -104zM661 -588l-144 99l101 135l145 -99z" />
    <glyph glyph-name="uni069B.medi" unicode="&#x69b;" horiz-adv-x="1212" 
d="M1179 0q-45 0 -75.5 8t-52 22t-37 33.5t-30.5 42.5q-31 -51 -77.5 -78.5t-106.5 -27.5t-101.5 29t-66.5 77q-34 -43 -83 -74.5t-112 -31.5q-60 0 -104 29t-66 77q-28 -43 -75 -74.5t-117 -31.5h-105v236h109q27 0 44 8.5t26 22.5t12.5 32t3.5 37v76l145 49v-68
q0 -45 8.5 -75.5t25.5 -48.5t41 -25.5t56 -7.5q45 0 77 25t32 75v76l141 49v-68q0 -44 8 -74t23 -48.5t35.5 -26.5t46.5 -8q22 0 45 5t41.5 16.5t30.5 30.5t12 48v76l143 49v-134q0 -29 9.5 -49.5t32.5 -31t69 -10.5h55v-236h-63zM718 -365l-133 89l-78 -105l-155 105
l106 139l133 -88l72 104l158 -104zM641 -588l-144 99l101 135l145 -99z" />
    <glyph glyph-name="uni069B.fina" unicode="&#x69b;" horiz-adv-x="1975" 
d="M1938 0q-45 0 -75.5 8t-53 22t-38 33.5t-30.5 42.5q-29 -51 -76.5 -78.5t-105.5 -27.5q-60 0 -102 29t-68 77q-32 -43 -80.5 -74.5t-108.5 -31.5q-30 0 -50 3t-33.5 8.5t-22 13.5t-15.5 18q0 -114 -37 -216.5t-106.5 -180t-170.5 -123t-228 -45.5q-133 0 -221.5 42.5
t-141 109.5t-74.5 149.5t-22 163.5q0 31 5.5 70t16.5 81t26.5 85t35.5 83l156 -55q-6 -13 -15.5 -39.5t-18.5 -58t-15.5 -64t-6.5 -57.5q0 -62 18.5 -113t55.5 -87t92 -55.5t129 -19.5q80 0 143.5 24.5t107.5 66.5t67.5 97.5t23.5 118.5q0 36 -8.5 73.5t-23 72.5t-32.5 66.5
t-36 56.5l176 166q15 -29 40 -66.5t55.5 -71.5t64 -57.5t65.5 -23.5q44 0 75.5 25t31.5 75v76l143 49v-68q0 -44 8 -74t22.5 -48.5t35.5 -26.5t47 -8q22 0 44.5 5t41 16.5t30 30.5t11.5 48v76l145 49v-134q0 -29 9.5 -49.5t32.5 -31t69 -10.5h59v-236h-67zM1568 -365
l-133 89l-78 -105l-155 105l106 139l133 -88l72 104l158 -104zM1491 -588l-144 99l101 135l145 -99z" />
    <glyph glyph-name="uni069C.init" unicode="&#x69c;" horiz-adv-x="1197" 
d="M1119 332q0 -60 -18 -119.5t-51 -107.5t-80 -77.5t-105 -29.5q-89 0 -144.5 31t-84.5 77q-12 -20 -28 -39t-37 -34t-48.5 -24t-62.5 -9q-71 0 -124 29t-81 77q-12 -21 -34.5 -40t-52 -33.5t-64.5 -23.5t-72 -9h-62v236h82q25 0 48 7.5t41 22.5t29 37.5t11 52.5v60l144 47
v-64q0 -35 7.5 -65t21.5 -52t33.5 -34t43.5 -12q12 0 35.5 0.5t47.5 12t42 38t18 78.5v79l146 43v-100q0 -35 10 -64t29 -50t45.5 -32.5t58.5 -11.5q47 0 67.5 24t20.5 58q0 15 -6.5 35t-16 40t-22 37.5t-24.5 29.5l143 159q43 -48 68.5 -121t25.5 -159zM486 915l134 -90
l77 105l158 -105l-106 -137l-134 86l-73 -102l-156 102zM566 1139l144 -99l-101 -135l-147 96zM738 -365l-133 89l-78 -105l-155 105l106 139l133 -88l72 104l158 -104zM661 -588l-144 99l101 135l145 -99z" />
    <glyph glyph-name="uni069C.medi" unicode="&#x69c;" horiz-adv-x="1212" 
d="M1179 0q-45 0 -75.5 8t-52 22t-37 33.5t-30.5 42.5q-31 -51 -77.5 -78.5t-106.5 -27.5t-101.5 29t-66.5 77q-34 -43 -83 -74.5t-112 -31.5q-60 0 -104 29t-66 77q-28 -43 -75 -74.5t-117 -31.5h-105v236h109q27 0 44 8.5t26 22.5t12.5 32t3.5 37v76l145 49v-68
q0 -45 8.5 -75.5t25.5 -48.5t41 -25.5t56 -7.5q45 0 77 25t32 75v76l141 49v-68q0 -44 8 -74t23 -48.5t35.5 -26.5t46.5 -8q22 0 45 5t41.5 16.5t30.5 30.5t12 48v76l143 49v-134q0 -29 9.5 -49.5t32.5 -31t69 -10.5h55v-236h-63zM458 877l133 -89l78 103l155 -103
l-104 -139l-133 88l-74 -104l-156 104zM536 1100l145 -99l-100 -135l-148 97zM718 -365l-133 89l-78 -105l-155 105l106 139l133 -88l72 104l158 -104zM641 -588l-144 99l101 135l145 -99z" />
    <glyph glyph-name="uni069C.fina" unicode="&#x69c;" horiz-adv-x="1975" 
d="M1938 0q-45 0 -75.5 8t-53 22t-38 33.5t-30.5 42.5q-29 -51 -76.5 -78.5t-105.5 -27.5q-60 0 -102 29t-68 77q-32 -43 -80.5 -74.5t-108.5 -31.5q-30 0 -50 3t-33.5 8.5t-22 13.5t-15.5 18q0 -114 -37 -216.5t-106.5 -180t-170.5 -123t-228 -45.5q-133 0 -221.5 42.5
t-141 109.5t-74.5 149.5t-22 163.5q0 31 5.5 70t16.5 81t26.5 85t35.5 83l156 -55q-6 -13 -15.5 -39.5t-18.5 -58t-15.5 -64t-6.5 -57.5q0 -62 18.5 -113t55.5 -87t92 -55.5t129 -19.5q80 0 143.5 24.5t107.5 66.5t67.5 97.5t23.5 118.5q0 36 -8.5 73.5t-23 72.5t-32.5 66.5
t-36 56.5l176 166q15 -29 40 -66.5t55.5 -71.5t64 -57.5t65.5 -23.5q44 0 75.5 25t31.5 75v76l143 49v-68q0 -44 8 -74t22.5 -48.5t35.5 -26.5t47 -8q22 0 44.5 5t41 16.5t30 30.5t11.5 48v76l145 49v-134q0 -29 9.5 -49.5t32.5 -31t69 -10.5h59v-236h-67zM1237 870l133 -88
l78 105l158 -105l-107 -139l-133 88l-74 -104l-155 104zM1317 1094l143 -99l-100 -135l-147 96zM1568 -365l-133 89l-78 -105l-155 105l106 139l133 -88l72 104l158 -104zM1491 -588l-144 99l101 135l145 -99z" />
    <glyph glyph-name="uni069D.init" unicode="&#x69d;" horiz-adv-x="1361" 
d="M1283 438q0 -91 -43 -171t-120.5 -139t-185 -93.5t-237.5 -34.5h-202q-78 0 -136.5 19t-95.5 73q-62 -92 -192 -92h-101v236h76q68 0 98.5 25.5t30.5 90.5v70l158 45v-84q0 -48 6 -77t17 -44t27 -19.5t36 -4.5q25 0 49 18.5t47 46.5q10 12 36.5 45.5t65 76t87 88.5
t101.5 84.5t109 63.5t109 25t100 -17t82.5 -48.5t56.5 -78t21 -104.5zM1119 379q0 35 -38.5 59.5t-104.5 24.5q-36 0 -71.5 -13t-68.5 -33t-63.5 -45.5t-56.5 -50t-46.5 -46.5t-33.5 -35h100q76 0 145.5 10.5t122 29.5t84 44.5t31.5 54.5zM1009 -395l-138 96l-80 -113
l-172 117l111 150l143 -99l80 111l166 -115z" />
    <glyph glyph-name="uni069D.medi" unicode="&#x69d;" horiz-adv-x="1364" 
d="M1336 0q-29 0 -59.5 4.5t-60.5 17t-59 34t-54 55.5q-39 -32 -85 -53t-95.5 -34t-100.5 -18.5t-100 -5.5h-229q-78 0 -136.5 19t-93.5 73q-62 -92 -192 -92h-101v236h76q68 0 98.5 25.5t30.5 90.5v70l158 45v-84q0 -48 6 -77t17 -44t27 -19.5t36 -4.5q25 0 47.5 19.5
t44.5 45.5q10 12 36.5 45.5t65.5 76t87.5 88.5t102 84.5t109.5 63.5t109 25t100 -17t82.5 -48.5t56.5 -78t21 -104.5q0 -107 -47 -184q4 -9 15 -12.5t27 -4.5q12 -2 26 -2q4 0 9 1h83v-236h-58zM1115 379q0 35 -38.5 59.5t-104.5 24.5q-35 0 -70.5 -13t-68.5 -33t-63 -45.5
t-55.5 -50t-45.5 -46.5t-33 -35h98q76 0 145 10.5t121.5 29.5t83.5 44.5t31 54.5zM1005 -395l-138 96l-80 -113l-172 117l111 150l143 -99l80 111l166 -115z" />
    <glyph glyph-name="uni069D.fina" unicode="&#x69d;" horiz-adv-x="2098" 
d="M2070 0q-30 0 -61 4.5t-61.5 17t-59.5 34t-55 55.5q-38 -32 -84 -53t-95.5 -34t-100.5 -18.5t-99 -5.5h-141q-4 0 -20.5 1t-39 2.5t-48 5t-49 8t-42 11t-25.5 15.5q0 -114 -37 -216.5t-106.5 -180t-170.5 -123t-228 -45.5q-133 0 -221.5 42.5t-141 109.5t-74.5 149.5
t-22 163.5q0 31 5.5 70t16.5 81t26.5 85t35.5 83l156 -55q-6 -13 -15.5 -39.5t-18.5 -58t-15.5 -64t-6.5 -57.5q0 -62 18.5 -113t55.5 -87t92 -55.5t129 -19.5q80 0 143.5 24.5t107.5 66.5t67.5 97.5t23.5 118.5q0 36 -8.5 73.5t-23 72.5t-32.5 66.5t-36 56.5l176 166
q7 -18 22.5 -53.5t38 -71.5t50 -63t57.5 -27q17 0 27 2.5t18 9t18 19t27 32.5q16 20 45.5 56t68.5 78.5t85.5 87t97.5 80t104.5 58.5t106.5 23q54 0 101.5 -17t83 -48.5t56.5 -78t21 -104.5q0 -107 -47 -184q8 -14 35.5 -16t81.5 -2h45v-236h-58zM1849 371q0 38 -38.5 63
t-106.5 25q-36 0 -71 -13t-68 -33.5t-63.5 -46t-56 -50t-46 -46t-33.5 -34.5h100q76 0 145.5 10.5t122 28.5t84 42.5t31.5 53.5zM1739 -395l-138 96l-80 -113l-172 117l111 150l143 -99l80 111l166 -115z" />
    <glyph glyph-name="uni069E.init" unicode="&#x69e;" horiz-adv-x="1361" 
d="M1283 438q0 -91 -43 -171t-120.5 -139t-185 -93.5t-237.5 -34.5h-202q-78 0 -136.5 19t-95.5 73q-62 -92 -192 -92h-101v236h76q68 0 98.5 25.5t30.5 90.5v70l158 45v-84q0 -48 6 -77t17 -44t27 -19.5t36 -4.5q25 0 49 18.5t47 46.5q10 12 36.5 45.5t65 76t87 88.5
t101.5 84.5t109 63.5t109 25t100 -17t82.5 -48.5t56.5 -78t21 -104.5zM1119 379q0 35 -38.5 59.5t-104.5 24.5q-36 0 -71.5 -13t-68.5 -33t-63.5 -45.5t-56.5 -50t-46.5 -46.5t-33.5 -35h100q76 0 145.5 10.5t122 29.5t84 44.5t31.5 54.5zM713 1044l133 -88l78 104l156 -104
l-107 -139l-133 88l-72 -105l-155 105zM791 1267l145 -96l-100 -137l-148 98z" />
    <glyph glyph-name="uni069E.medi" unicode="&#x69e;" horiz-adv-x="1364" 
d="M1336 0q-29 0 -59.5 4.5t-60.5 17t-59 34t-54 55.5q-39 -32 -85 -53t-95.5 -34t-100.5 -18.5t-100 -5.5h-229q-78 0 -136.5 19t-93.5 73q-62 -92 -192 -92h-101v236h76q68 0 98.5 25.5t30.5 90.5v70l158 45v-84q0 -48 6 -77t17 -44t27 -19.5t36 -4.5q25 0 47.5 19.5
t44.5 45.5q10 12 36.5 45.5t65.5 76t87.5 88.5t102 84.5t109.5 63.5t109 25t100 -17t82.5 -48.5t56.5 -78t21 -104.5q0 -107 -47 -184q4 -9 15 -12.5t27 -4.5q12 -2 26 -2q4 0 9 1h83v-236h-58zM1115 379q0 35 -38.5 59.5t-104.5 24.5q-35 0 -70.5 -13t-68.5 -33t-63 -45.5
t-55.5 -50t-45.5 -46.5t-33 -35h98q76 0 145 10.5t121.5 29.5t83.5 44.5t31 54.5zM706 1054l133 -88l78 104l156 -104l-107 -139l-133 88l-72 -105l-155 105zM784 1277l145 -96l-100 -137l-148 98z" />
    <glyph glyph-name="uni069E.fina" unicode="&#x69e;" horiz-adv-x="2098" 
d="M2070 0q-30 0 -61 4.5t-61.5 17t-59.5 34t-55 55.5q-38 -32 -84 -53t-95.5 -34t-100.5 -18.5t-99 -5.5h-141q-4 0 -20.5 1t-39 2.5t-48 5t-49 8t-42 11t-25.5 15.5q0 -114 -37 -216.5t-106.5 -180t-170.5 -123t-228 -45.5q-133 0 -221.5 42.5t-141 109.5t-74.5 149.5
t-22 163.5q0 31 5.5 70t16.5 81t26.5 85t35.5 83l156 -55q-6 -13 -15.5 -39.5t-18.5 -58t-15.5 -64t-6.5 -57.5q0 -62 18.5 -113t55.5 -87t92 -55.5t129 -19.5q80 0 143.5 24.5t107.5 66.5t67.5 97.5t23.5 118.5q0 36 -8.5 73.5t-23 72.5t-32.5 66.5t-36 56.5l176 166
q7 -18 22.5 -53.5t38 -71.5t50 -63t57.5 -27q17 0 27 2.5t18 9t18 19t27 32.5q16 20 45.5 56t68.5 78.5t85.5 87t97.5 80t104.5 58.5t106.5 23q54 0 101.5 -17t83 -48.5t56.5 -78t21 -104.5q0 -107 -47 -184q8 -14 35.5 -16t81.5 -2h45v-236h-58zM1849 371q0 38 -38.5 63
t-106.5 25q-36 0 -71 -13t-68 -33.5t-63.5 -46t-56 -50t-46 -46t-33.5 -34.5h100q76 0 145.5 10.5t122 28.5t84 42.5t31.5 53.5zM1425 1048l133 -88l78 104l156 -104l-107 -139l-133 88l-72 -105l-155 105zM1503 1271l145 -96l-100 -137l-148 98z" />
    <glyph glyph-name="uni069F.init" unicode="&#x69f;" horiz-adv-x="1000" 
d="M923 436q0 -77 -25 -139t-69 -110.5t-103 -83.5t-127 -58t-142 -34t-147 -11h-340v236h58q15 0 36 1.5t41.5 10t37.5 26.5t24 50q9 39 12.5 96t4.5 123v26q0 53 -2 110q-2 70 -6 138q-9 158 -27 334l212 82v-694q33 29 70.5 55t77 46t79 32t75.5 12q53 0 100 -17
t82.5 -48.5t56.5 -78t21 -104.5zM757 375q0 37 -37.5 61.5t-104.5 24.5q-36 0 -71.5 -13t-69 -34t-64 -46.5t-56.5 -50.5t-47 -46.5t-34 -34.5h101q76 0 145.5 11t122 30t84 44t31.5 54zM548 1041l133 -89l78 103l155 -103l-104 -139l-133 88l-74 -104l-156 104zM626 1264
l145 -99l-100 -135l-148 97z" />
    <glyph glyph-name="uni069F.medi" unicode="&#x69f;" horiz-adv-x="1007" 
d="M980 0q-60 0 -116.5 26.5t-108.5 94.5q-41 -34 -93 -57t-110.5 -37.5t-120 -20.5t-121.5 -6h-340v236h54q24 0 47 2.5t42 11.5t33 26.5t21 47.5q9 39 12.5 96t4.5 123v26q0 53 -2 110q-2 70 -6 138q-9 158 -27 334l212 82v-694q33 29 70.5 55t77 46t79 32t75.5 12
q53 0 100 -17t82.5 -48.5t56.5 -78t21 -104.5q0 -51 -15 -98t-37 -78q6 -6 20 -10.5t32 -7.5t37 -4.5t34 -1.5h43v-236h-57zM757 375q0 37 -37.5 61.5t-104.5 24.5q-36 0 -71.5 -13t-69 -34t-64 -46.5t-56.5 -50.5t-47 -46.5t-34 -34.5h101q76 0 145.5 11t122 30t84 44
t31.5 54zM548 1041l133 -89l78 103l155 -103l-104 -139l-133 88l-74 -104l-156 104zM626 1264l145 -99l-100 -135l-148 97z" />
    <glyph glyph-name="uni069F.fina" unicode="&#x69f;" horiz-adv-x="1246" 
d="M1218 0q-58 0 -114 26.5t-109 94.5q-41 -34 -93.5 -57t-111 -37.5t-119.5 -20.5t-120 -6h-162q-60 0 -113.5 9.5t-97.5 26.5t-77.5 41.5t-53.5 53.5l76 145q34 -22 80 -33q33 -8 65 -8q11 0 23 1q42 4 74.5 25t41.5 63q9 39 12.5 96t4.5 123v22q0 55 -2 114q-3 70 -7 138
q-10 158 -28 334l213 82v-694q32 29 69.5 55t77.5 46t79.5 32t76.5 12q53 0 100 -17t82.5 -48.5t56.5 -78t21 -104.5q0 -51 -16 -98t-37 -78q5 -6 19.5 -10.5t32.5 -7.5t37.5 -4.5t35.5 -1.5h41v-236h-58zM997 375q0 37 -38.5 61.5t-104.5 24.5q-53 0 -105.5 -28t-98 -65.5
t-81 -75t-55.5 -56.5h98q77 0 146.5 11t122.5 30t84.5 44t31.5 54zM788 1041l133 -89l78 103l155 -103l-104 -139l-133 88l-74 -104l-156 104zM866 1264l145 -99l-100 -135l-148 97z" />
    <glyph glyph-name="uni06A0.init" unicode="&#x6a0;" horiz-adv-x="852" 
d="M802 309q-8 -58 -13 -104q-3 -20 -5 -38.5t-4 -32.5t-2 -23l-1 -9q-84 -19 -173.5 -37.5t-179 -32.5t-178 -23t-171.5 -9h-105v236h207q-8 18 -15.5 33t-14.5 34t-11 46.5t-4 70.5q0 27 8.5 58.5t25.5 63.5t42 62t57.5 53.5t72.5 37.5t87 14q37 0 76.5 -10.5t75.5 -27.5
t66 -40t48 -47l-61 -125q-30 16 -58.5 25.5t-53.5 14t-45.5 6t-33.5 1.5q-27 0 -56 -6.5t-52 -19t-38 -30t-15 -38.5q0 -29 21 -56t53.5 -48t72.5 -33q34 -11 66 -11h10q42 1 94 8t98 15q54 10 109 22zM270 1077l133 -89l78 103l155 -103l-104 -139l-133 88l-74 -104
l-156 104zM348 1300l145 -99l-100 -135l-148 97z" />
    <glyph glyph-name="uni06A0.medi" unicode="&#x6a0;" horiz-adv-x="778" 
d="M646 0q-57 0 -97.5 11.5t-70 31t-50.5 44.5t-38 52q-39 -29 -81.5 -54.5t-89.5 -44.5t-98 -29.5t-106 -10.5h-45v236h54q115 0 182 23.5t86 55.5q0 10 -10 21.5t-30.5 21.5t-50.5 16.5t-69 6.5v27q0 40 16 84t53.5 80t99 59.5t151.5 23.5q46 0 85.5 -10.5t68.5 -30
t46 -47.5t17 -63q0 -61 -17 -101t-40.5 -66.5t-48.5 -43t-42 -31.5q16 -23 55.5 -24.5t92.5 -1.5h139v-236h-162zM278 1041l133 -89l78 103l155 -103l-104 -139l-133 88l-74 -104l-156 104zM356 1264l145 -99l-100 -135l-148 97z" />
    <glyph glyph-name="uni06A0.fina" unicode="&#x6a0;" horiz-adv-x="1000" 
d="M1030 -696q-42 -12 -91.5 -21t-103 -14.5t-107.5 -5.5q-164 0 -285 36t-200.5 102t-118.5 159.5t-39 208.5q0 83 22 154.5t57 131t77.5 107t83.5 84.5t76 63t55 41q0 22 -39.5 37.5t-122.5 15.5v31q0 42 17 88t57.5 84.5t106 63t163.5 24.5q46 0 86.5 -12.5t70.5 -32.5
t47 -47t17 -55q0 -61 -14 -103t-36 -71.5t-49 -49.5t-53 -38q8 -18 23 -27.5t35 -14.5t44.5 -6t51.5 -1h166v-236h-217q-59 0 -103 17.5t-75.5 44t-51.5 56.5t-30 56q-56 -30 -106 -74.5t-87 -97t-58.5 -109t-21.5 -110.5t25.5 -106t82.5 -92t149.5 -64.5t226.5 -24.5
q83 0 151 10q46 7 85 17l72 -207q-18 -6 -39 -12zM428 1041l133 -89l78 103l155 -103l-104 -139l-133 88l-74 -104l-156 104zM506 1264l145 -99l-100 -135l-148 97z" />
    <glyph glyph-name="uni06A1.init" unicode="&#x6a1;" horiz-adv-x="650" 
d="M570 358q0 -82 -24 -148.5t-76.5 -113t-136 -71.5t-203.5 -25h-160v236h279q64 0 99 13.5t50.5 32t18 38.5t2.5 32q-6 -7 -20.5 -14.5t-35 -14t-45 -10.5t-51.5 -4q-62 0 -100 19.5t-59 47.5t-28 60t-7 58q0 22 6.5 54t19.5 68.5t32.5 72.5t45 65t57 47t68.5 18
q49 0 97 -37t86 -100.5t61.5 -147t23.5 -176.5zM372 526q-6 22 -17.5 40.5t-24.5 32.5t-27 22t-25 8t-23 -8t-22.5 -20t-17.5 -25t-7 -23q0 -14 2.5 -27t10 -23t22.5 -16t41 -6q29 0 53 10.5t35 34.5z" />
    <glyph glyph-name="uni06A1.medi" unicode="&#x6a1;" horiz-adv-x="674" 
d="M607 0q-45 0 -88 7.5t-80.5 19.5t-68 26.5t-49.5 28.5q-16 -12 -44.5 -26.5t-63 -27t-71 -20.5t-67.5 -8h-105v236h181q-13 14 -26 46.5t-13 82.5q0 60 29 117t72 102t91.5 72.5t87.5 27.5t72.5 -22t58 -59.5t38 -86t13.5 -102.5q0 -62 -24 -108t-55 -70h209v-236h-97z
M439 389q0 12 -5.5 26t-16.5 25.5t-27 19t-37 7.5q-18 0 -36.5 -8.5t-33 -22t-23.5 -30t-9 -31.5t9 -27.5t22 -22t27.5 -15t25.5 -5.5q15 0 33.5 8t34 20t26 27t10.5 29z" />
    <glyph glyph-name="uni06A1.fina" unicode="&#x6a1;" horiz-adv-x="1695" 
d="M1610 0q-31 0 -69.5 8.5t-76 21.5t-70 29.5t-50.5 32.5q-20 -15 -70 -40t-130.5 -49t-192 -41t-254.5 -17q-303 0 -449.5 84t-146.5 264q0 59 22 125.5t56 132.5l151 -47q-13 -26 -23 -52q-8 -22 -15 -45t-7 -40q0 -22 4 -44.5t18.5 -43t42.5 -39t75 -32t116 -21
t166 -7.5h88q72 0 135.5 5.5t113 14t83 18t45.5 18.5q-6 7 -13.5 20.5t-14 32t-11 41.5t-4.5 49q0 39 14 78t36.5 74.5t52.5 65.5t61.5 52t63 34.5t57.5 12.5q39 0 73 -22t59 -59t39.5 -86t14.5 -103q0 -31 -7.5 -60t-19.5 -54t-27.5 -44.5t-31.5 -31.5h211v-236h-115z
M1465 403q0 12 -6.5 25.5t-18 25t-28 18.5t-37.5 7q-18 0 -37 -8.5t-34.5 -21.5t-25.5 -29t-10 -31t10 -27.5t23.5 -22t28.5 -15t26 -5.5q15 0 34 8t35.5 20.5t28 27t11.5 28.5z" />
    <glyph glyph-name="uni06A2.init" unicode="&#x6a2;" horiz-adv-x="650" 
d="M570 358q0 -82 -24 -148.5t-76.5 -113t-136 -71.5t-203.5 -25h-160v236h279q64 0 99 13.5t50.5 32t18 38.5t2.5 32q-6 -7 -20.5 -14.5t-35 -14t-45 -10.5t-51.5 -4q-62 0 -100 19.5t-59 47.5t-28 60t-7 58q0 22 6.5 54t19.5 68.5t32.5 72.5t45 65t57 47t68.5 18
q49 0 97 -37t86 -100.5t61.5 -147t23.5 -176.5zM372 526q-6 22 -17.5 40.5t-24.5 32.5t-27 22t-25 8t-23 -8t-22.5 -20t-17.5 -25t-7 -23q0 -14 2.5 -27t10 -23t22.5 -16t41 -6q29 0 53 10.5t35 34.5zM319 -469l-181 121l131 178l181 -123z" />
    <glyph glyph-name="uni06A2.medi" unicode="&#x6a2;" horiz-adv-x="674" 
d="M607 0q-45 0 -88 7.5t-80.5 19.5t-68 26.5t-49.5 28.5q-16 -12 -44.5 -26.5t-63 -27t-71 -20.5t-67.5 -8h-105v236h181q-13 14 -26 46.5t-13 82.5q0 60 29 117t72 102t91.5 72.5t87.5 27.5t72.5 -22t58 -59.5t38 -86t13.5 -102.5q0 -62 -24 -108t-55 -70h209v-236h-97z
M439 389q0 12 -5.5 26t-16.5 25.5t-27 19t-37 7.5q-18 0 -36.5 -8.5t-33 -22t-23.5 -30t-9 -31.5t9 -27.5t22 -22t27.5 -15t25.5 -5.5q15 0 33.5 8t34 20t26 27t10.5 29zM352 -469l-181 121l131 178l181 -123z" />
    <glyph glyph-name="uni06A2.fina" unicode="&#x6a2;" horiz-adv-x="1695" 
d="M1610 0q-31 0 -69.5 8.5t-76 21.5t-70 29.5t-50.5 32.5q-20 -15 -70 -40t-130.5 -49t-192 -41t-254.5 -17q-303 0 -449.5 84t-146.5 264q0 59 22 125.5t56 132.5l151 -47q-13 -26 -23 -52q-8 -22 -15 -45t-7 -40q0 -22 4 -44.5t18.5 -43t42.5 -39t75 -32t116 -21
t166 -7.5h88q72 0 135.5 5.5t113 14t83 18t45.5 18.5q-6 7 -13.5 20.5t-14 32t-11 41.5t-4.5 49q0 39 14 78t36.5 74.5t52.5 65.5t61.5 52t63 34.5t57.5 12.5q39 0 73 -22t59 -59t39.5 -86t14.5 -103q0 -31 -7.5 -60t-19.5 -54t-27.5 -44.5t-31.5 -31.5h211v-236h-115z
M1465 403q0 12 -6.5 25.5t-18 25t-28 18.5t-37.5 7q-18 0 -37 -8.5t-34.5 -21.5t-25.5 -29t-10 -31t10 -27.5t23.5 -22t28.5 -15t26 -5.5q15 0 34 8t35.5 20.5t28 27t11.5 28.5zM1368 -469l-181 121l131 178l181 -123z" />
    <glyph glyph-name="uni06A3.init" unicode="&#x6a3;" horiz-adv-x="650" 
d="M570 358q0 -82 -24 -148.5t-76.5 -113t-136 -71.5t-203.5 -25h-160v236h279q64 0 99 13.5t50.5 32t18 38.5t2.5 32q-6 -7 -20.5 -14.5t-35 -14t-45 -10.5t-51.5 -4q-62 0 -100 19.5t-59 47.5t-28 60t-7 58q0 22 6.5 54t19.5 68.5t32.5 72.5t45 65t57 47t68.5 18
q49 0 97 -37t86 -100.5t61.5 -147t23.5 -176.5zM372 526q-6 22 -17.5 40.5t-24.5 32.5t-27 22t-25 8t-23 -8t-22.5 -20t-17.5 -25t-7 -23q0 -14 2.5 -27t10 -23t22.5 -16t41 -6q29 0 53 10.5t35 34.5zM259 924l-180 120l133 177l180 -121zM260 -469l-181 121l131 178
l181 -123z" />
    <glyph glyph-name="uni06A3.medi" unicode="&#x6a3;" horiz-adv-x="674" 
d="M607 0q-45 0 -88 7.5t-80.5 19.5t-68 26.5t-49.5 28.5q-16 -12 -44.5 -26.5t-63 -27t-71 -20.5t-67.5 -8h-105v236h181q-13 14 -26 46.5t-13 82.5q0 60 29 117t72 102t91.5 72.5t87.5 27.5t72.5 -22t58 -59.5t38 -86t13.5 -102.5q0 -62 -24 -108t-55 -70h209v-236h-97z
M439 389q0 12 -5.5 26t-16.5 25.5t-27 19t-37 7.5q-18 0 -36.5 -8.5t-33 -22t-23.5 -30t-9 -31.5t9 -27.5t22 -22t27.5 -15t25.5 -5.5q15 0 33.5 8t34 20t26 27t10.5 29zM376 827l-180 121l131 176l180 -120zM377 -469l-181 121l131 178l181 -123z" />
    <glyph glyph-name="uni06A3.fina" unicode="&#x6a3;" horiz-adv-x="1695" 
d="M1610 0q-31 0 -69.5 8.5t-76 21.5t-70 29.5t-50.5 32.5q-20 -15 -70 -40t-130.5 -49t-192 -41t-254.5 -17q-303 0 -449.5 84t-146.5 264q0 59 22 125.5t56 132.5l151 -47q-13 -26 -23 -52q-8 -22 -15 -45t-7 -40q0 -22 4 -44.5t18.5 -43t42.5 -39t75 -32t116 -21
t166 -7.5h88q72 0 135.5 5.5t113 14t83 18t45.5 18.5q-6 7 -13.5 20.5t-14 32t-11 41.5t-4.5 49q0 39 14 78t36.5 74.5t52.5 65.5t61.5 52t63 34.5t57.5 12.5q39 0 73 -22t59 -59t39.5 -86t14.5 -103q0 -31 -7.5 -60t-19.5 -54t-27.5 -44.5t-31.5 -31.5h211v-236h-115z
M1465 403q0 12 -6.5 25.5t-18 25t-28 18.5t-37.5 7q-18 0 -37 -8.5t-34.5 -21.5t-25.5 -29t-10 -31t10 -27.5t23.5 -22t28.5 -15t26 -5.5q15 0 34 8t35.5 20.5t28 27t11.5 28.5zM1401 834l-180 120l133 176l181 -122zM869 -469l-181 121l131 178l181 -123z" />
    <glyph glyph-name="uni06A5.init" unicode="&#x6a5;" horiz-adv-x="650" 
d="M570 358q0 -82 -24 -148.5t-76.5 -113t-136 -71.5t-203.5 -25h-160v236h279q64 0 99 13.5t50.5 32t18 38.5t2.5 32q-6 -7 -20.5 -14.5t-35 -14t-45 -10.5t-51.5 -4q-62 0 -100 19.5t-59 47.5t-28 60t-7 58q0 22 6.5 54t19.5 68.5t32.5 72.5t45 65t57 47t68.5 18
q49 0 97 -37t86 -100.5t61.5 -147t23.5 -176.5zM372 526q-6 22 -17.5 40.5t-24.5 32.5t-27 22t-25 8t-23 -8t-22.5 -20t-17.5 -25t-7 -23q0 -14 2.5 -27t10 -23t22.5 -16t41 -6q29 0 53 10.5t35 34.5zM398 -365l-133 89l-78 -105l-155 105l106 139l133 -88l72 104l158 -104z
M321 -588l-144 99l101 135l145 -99z" />
    <glyph glyph-name="uni06A5.medi" unicode="&#x6a5;" horiz-adv-x="674" 
d="M607 0q-45 0 -88 7.5t-80.5 19.5t-68 26.5t-49.5 28.5q-16 -12 -44.5 -26.5t-63 -27t-71 -20.5t-67.5 -8h-105v236h181q-13 14 -26 46.5t-13 82.5q0 60 29 117t72 102t91.5 72.5t87.5 27.5t72.5 -22t58 -59.5t38 -86t13.5 -102.5q0 -62 -24 -108t-55 -70h209v-236h-97z
M439 389q0 12 -5.5 26t-16.5 25.5t-27 19t-37 7.5q-18 0 -36.5 -8.5t-33 -22t-23.5 -30t-9 -31.5t9 -27.5t22 -22t27.5 -15t25.5 -5.5q15 0 33.5 8t34 20t26 27t10.5 29zM458 -365l-133 89l-78 -105l-155 105l106 139l133 -88l72 104l158 -104zM381 -588l-144 99l101 135
l145 -99z" />
    <glyph glyph-name="uni06A5.fina" unicode="&#x6a5;" horiz-adv-x="1695" 
d="M1610 0q-31 0 -69.5 8.5t-76 21.5t-70 29.5t-50.5 32.5q-20 -15 -70 -40t-130.5 -49t-192 -41t-254.5 -17q-303 0 -449.5 84t-146.5 264q0 59 22 125.5t56 132.5l151 -47q-13 -26 -23 -52q-8 -22 -15 -45t-7 -40q0 -22 4 -44.5t18.5 -43t42.5 -39t75 -32t116 -21
t166 -7.5h88q72 0 135.5 5.5t113 14t83 18t45.5 18.5q-6 7 -13.5 20.5t-14 32t-11 41.5t-4.5 49q0 39 14 78t36.5 74.5t52.5 65.5t61.5 52t63 34.5t57.5 12.5q39 0 73 -22t59 -59t39.5 -86t14.5 -103q0 -31 -7.5 -60t-19.5 -54t-27.5 -44.5t-31.5 -31.5h211v-236h-115z
M1465 403q0 12 -6.5 25.5t-18 25t-28 18.5t-37.5 7q-18 0 -37 -8.5t-34.5 -21.5t-25.5 -29t-10 -31t10 -27.5t23.5 -22t28.5 -15t26 -5.5q15 0 34 8t35.5 20.5t28 27t11.5 28.5zM1468 -365l-133 89l-78 -105l-155 105l106 139l133 -88l72 104l158 -104zM1391 -588l-144 99
l101 135l145 -99z" />
    <glyph glyph-name="uni06A7.init" unicode="&#x6a7;" horiz-adv-x="650" 
d="M570 358q0 -82 -24 -148.5t-76.5 -113t-136 -71.5t-203.5 -25h-160v236h279q64 0 99 13.5t50.5 32t18 38.5t2.5 32q-6 -7 -20.5 -14.5t-35 -14t-45 -10.5t-51.5 -4q-62 0 -100 19.5t-59 47.5t-28 60t-7 58q0 22 6.5 54t19.5 68.5t32.5 72.5t45 65t57 47t68.5 18
q49 0 97 -37t86 -100.5t61.5 -147t23.5 -176.5zM372 526q-6 22 -17.5 40.5t-24.5 32.5t-27 22t-25 8t-23 -8t-22.5 -20t-17.5 -25t-7 -23q0 -14 2.5 -27t10 -23t22.5 -16t41 -6q29 0 53 10.5t35 34.5zM259 924l-180 120l133 177l180 -121z" />
    <glyph glyph-name="uni06A7.medi" unicode="&#x6a7;" horiz-adv-x="674" 
d="M607 0q-45 0 -88 7.5t-80.5 19.5t-68 26.5t-49.5 28.5q-16 -12 -44.5 -26.5t-63 -27t-71 -20.5t-67.5 -8h-105v236h181q-13 14 -26 46.5t-13 82.5q0 60 29 117t72 102t91.5 72.5t87.5 27.5t72.5 -22t58 -59.5t38 -86t13.5 -102.5q0 -62 -24 -108t-55 -70h209v-236h-97z
M439 389q0 12 -5.5 26t-16.5 25.5t-27 19t-37 7.5q-18 0 -36.5 -8.5t-33 -22t-23.5 -30t-9 -31.5t9 -27.5t22 -22t27.5 -15t25.5 -5.5q15 0 33.5 8t34 20t26 27t10.5 29zM376 827l-180 121l131 176l180 -120z" />
    <glyph glyph-name="uni06A7.fina" unicode="&#x6a7;" horiz-adv-x="1245" 
d="M1113 0q-6 -45 -22.5 -98.5t-45.5 -107t-72 -103t-101.5 -88t-133.5 -61.5t-168 -23q-136 0 -227.5 42.5t-147 109.5t-79 149.5t-23.5 163.5q0 31 4 70.5t13 82t23 85.5t34 83l163 -59q-7 -17 -15.5 -44t-16 -57.5t-12.5 -61t-5 -54.5q0 -62 20.5 -113t60 -87.5t97 -56.5
t132.5 -20q76 0 134 16t100 41t70 54.5t45 57.5t24 49.5t7 29.5h-57q-81 0 -138.5 11.5t-93.5 38t-52.5 68t-16.5 101.5q0 23 5.5 56t17.5 69.5t30 73t42.5 65t56.5 46.5t71 18q63 0 111 -30t82 -76t54.5 -101t27.5 -104h164v-236h-162zM947 207q-2 23 -11.5 48t-25.5 45.5
t-35.5 34t-40.5 13.5q-11 0 -24.5 -6.5t-25 -16.5t-19 -22.5t-7.5 -23.5q0 -18 4.5 -31.5t19 -22.5t42 -13.5t72.5 -4.5h51zM846 679l-181 119l132 178l182 -123z" />
    <glyph glyph-name="uni06A8.init" unicode="&#x6a8;" horiz-adv-x="650" 
d="M570 358q0 -82 -24 -148.5t-76.5 -113t-136 -71.5t-203.5 -25h-160v236h279q64 0 99 13.5t50.5 32t18 38.5t2.5 32q-6 -7 -20.5 -14.5t-35 -14t-45 -10.5t-51.5 -4q-62 0 -100 19.5t-59 47.5t-28 60t-7 58q0 22 6.5 54t19.5 68.5t32.5 72.5t45 65t57 47t68.5 18
q49 0 97 -37t86 -100.5t61.5 -147t23.5 -176.5zM372 526q-6 22 -17.5 40.5t-24.5 32.5t-27 22t-25 8t-23 -8t-22.5 -20t-17.5 -25t-7 -23q0 -14 2.5 -27t10 -23t22.5 -16t41 -6q29 0 53 10.5t35 34.5zM162 1190l133 -89l78 103l155 -103l-104 -139l-133 88l-74 -104
l-156 104zM240 1413l145 -99l-100 -135l-148 97z" />
    <glyph glyph-name="uni06A8.medi" unicode="&#x6a8;" horiz-adv-x="674" 
d="M607 0q-45 0 -88 7.5t-80.5 19.5t-68 26.5t-49.5 28.5q-16 -12 -44.5 -26.5t-63 -27t-71 -20.5t-67.5 -8h-105v236h181q-13 14 -26 46.5t-13 82.5q0 60 29 117t72 102t91.5 72.5t87.5 27.5t72.5 -22t58 -59.5t38 -86t13.5 -102.5q0 -62 -24 -108t-55 -70h209v-236h-97z
M439 389q0 12 -5.5 26t-16.5 25.5t-27 19t-37 7.5q-18 0 -36.5 -8.5t-33 -22t-23.5 -30t-9 -31.5t9 -27.5t22 -22t27.5 -15t25.5 -5.5q15 0 33.5 8t34 20t26 27t10.5 29zM225 1060l133 -89l78 103l155 -103l-104 -139l-133 88l-74 -104l-156 104zM303 1283l145 -99
l-100 -135l-148 97z" />
    <glyph glyph-name="uni06A8.fina" unicode="&#x6a8;" horiz-adv-x="1245" 
d="M1113 0q-6 -45 -22.5 -98.5t-45.5 -107t-72 -103t-101.5 -88t-133.5 -61.5t-168 -23q-136 0 -227.5 42.5t-147 109.5t-79 149.5t-23.5 163.5q0 31 4 70.5t13 82t23 85.5t34 83l163 -59q-7 -17 -15.5 -44t-16 -57.5t-12.5 -61t-5 -54.5q0 -62 20.5 -113t60 -87.5t97 -56.5
t132.5 -20q76 0 134 16t100 41t70 54.5t45 57.5t24 49.5t7 29.5h-57q-81 0 -138.5 11.5t-93.5 38t-52.5 68t-16.5 101.5q0 23 5.5 56t17.5 69.5t30 73t42.5 65t56.5 46.5t71 18q63 0 111 -30t82 -76t54.5 -101t27.5 -104h164v-236h-162zM947 207q-2 23 -11.5 48t-25.5 45.5
t-35.5 34t-40.5 13.5q-11 0 -24.5 -6.5t-25 -16.5t-19 -22.5t-7.5 -23.5q0 -18 4.5 -31.5t19 -22.5t42 -13.5t72.5 -4.5h51zM699 925l133 -89l78 103l155 -103l-104 -139l-133 88l-74 -104l-156 104zM777 1148l145 -99l-100 -135l-148 97z" />
    <glyph glyph-name="uni06AA.init" unicode="&#x6aa;" horiz-adv-x="1001" 
d="M952 1040q-149 -36 -282 -70q-57 -15 -116 -31t-113.5 -32.5t-101 -32.5t-77.5 -30q-21 -8 -21 -19q0 -7 9 -14q15 -11 49.5 -33.5t76.5 -54t87.5 -71.5t82.5 -86t61 -96.5t24 -104.5q0 -88 -23 -156t-81.5 -114.5t-158.5 -70.5t-255 -24h-138v236h144q52 0 112 1.5
t111 9.5t85 25t34 47q0 36 -26.5 73t-67 74.5t-89.5 75t-94 73.5t-80.5 70t-48.5 65q1 22 7.5 56.5t17 68.5t23 61t24.5 33q52 27 117 55.5t135 55.5t141.5 52.5t138.5 47.5q157 52 322 100z" />
    <glyph glyph-name="uni06AA.medi" unicode="&#x6aa;" horiz-adv-x="1063" 
d="M762 953q-57 -16 -119 -34t-123.5 -37.5t-119 -40t-106.5 -40.5q-11 -5 -17 -15q-2 -4 -2 -7q0 -7 9 -13q34 -26 75 -60t85.5 -73t88.5 -80.5t84 -81.5q53 -53 98 -96.5t90.5 -74t95.5 -47.5t114 -17h78v-236h-113q-59 0 -118.5 20.5t-116 55.5t-107 83t-90.5 103
q-8 -58 -32 -99.5t-60 -71t-81 -47.5t-95 -27.5t-102 -13t-101 -3.5h-107v236h101q82 0 146.5 3.5t109.5 14t68.5 29t23.5 49.5q0 30 -20.5 61.5t-52.5 64t-70 65t-74 64.5t-64 63.5t-39 60.5q1 21 6 54t13 65.5t19.5 58.5t25.5 33q52 27 118.5 56.5t139.5 58t149 56.5
t148 52q126 43 259 85l-27 -227q-94 -24 -188 -50z" />
    <glyph glyph-name="uni06AA.fina" unicode="&#x6aa;" horiz-adv-x="1946" 
d="M1643 956q-57 -17 -119 -35.5t-123.5 -38.5t-119 -40.5t-106.5 -40.5q-5 -2 -10 -6t-7 -9q-2 -4 -2 -7v-3q1 -6 7 -10q30 -23 68 -54t81 -68.5t90.5 -81t96.5 -91.5q50 -48 94 -91t90 -75t97 -50.5t116 -18.5h80v-236h-125q-57 0 -116.5 20t-117 56.5t-111 88
t-97.5 114.5q0 -65 -28 -115t-77 -87t-116.5 -62t-147 -40.5t-168 -22.5t-178.5 -7q-302 0 -448 84t-146 264q0 59 22 125.5t54 132.5l151 -47q-12 -26 -22 -52q-8 -22 -14.5 -45t-6.5 -40q0 -22 4 -44.5t18.5 -43t42 -39t74.5 -32t115.5 -21t165.5 -7.5h41q137 0 237.5 14
t166.5 36.5t98.5 52t32.5 61.5q0 29 -19 59.5t-48.5 61.5t-65.5 62.5t-69.5 62.5t-60.5 61.5t-39 59.5q2 21 7 54t13.5 65.5t19.5 58.5t24 33q52 27 119 56.5t140.5 58t149.5 56.5t148 52q127 44 260 85l-25 -222q-96 -24 -191 -52z" />
    <glyph glyph-name="uni06AB.init" unicode="&#x6ab;" horiz-adv-x="1010" 
d="M976 1366q-177 -55 -337 -108q-68 -23 -140 -47t-138.5 -48t-125 -46.5t-99.5 -41.5l27 109q37 17 92.5 39t120.5 46.5t136 49.5t139 49q160 55 339 115zM947 1040q-149 -36 -282 -72q-57 -15 -116 -32t-113.5 -33.5t-101 -32.5t-77.5 -30q-22 -10 -23 -17q-1 -1 -1 -2
q0 -7 12 -14q22 -14 58.5 -39t78.5 -58.5t85.5 -74t79 -85t57.5 -92t22 -93.5q0 -89 -23 -157t-79 -114t-149.5 -70t-234.5 -24h-170v236h179q55 0 110 1.5t98.5 9.5t71 25t27.5 47q0 34 -26.5 70t-67 73.5t-89.5 75.5t-94 74.5t-80.5 71.5t-48.5 66q1 22 7.5 54.5t17 64
t23 56t24.5 31.5q52 28 117 56t135 55t141.5 52t138.5 47q157 52 322 100z" />
    <glyph glyph-name="uni06AB.medi" unicode="&#x6ab;" horiz-adv-x="1063" 
d="M701 1215q-73 -23 -149 -48t-146.5 -50t-130.5 -47.5t-100 -41.5l27 113q33 16 87.5 38t122 46t143 49.5t149.5 49.5q132 43 278 89l-13 -115q-139 -42 -268 -83zM762 955q-57 -17 -119 -35.5t-123.5 -38t-119 -40t-106.5 -40.5q-19 -8 -21 -17v-2q0 -8 11 -16
q78 -59 160 -133t173 -162q53 -51 96 -94.5t87 -74.5t95 -48.5t120 -17.5h78v-236h-123q-57 0 -117 23t-117 62t-106.5 89.5t-85.5 106.5q0 -60 -17.5 -104.5t-48.5 -76t-73 -51t-92 -30.5t-105.5 -15t-112.5 -4h-125v236h129q94 0 155 4.5t97 16t50 31t14 50.5
q0 29 -20.5 59.5t-51.5 62.5t-69 64t-73 64t-63 63t-39 60q1 21 6 52.5t13 61.5t19.5 53.5t25.5 30.5q52 27 118.5 56t139.5 58t149 56.5t148 51.5q123 42 252 83l-26 -208q-92 -25 -182 -51z" />
    <glyph glyph-name="uni06AB.fina" unicode="&#x6ab;" horiz-adv-x="1946" 
d="M1643 956q-57 -17 -119 -35.5t-123.5 -38.5t-119 -40.5t-106.5 -40.5q-23 -10 -24 -18v-1q0 -8 12 -16q33 -23 75.5 -57.5t87.5 -74.5t90 -82.5t83 -80.5q56 -56 101 -99.5t89 -73.5t93 -46t114 -16h80v-236h-125q-62 0 -123.5 23.5t-118.5 62.5t-108.5 89.5t-91.5 103.5
q0 -63 -28 -112t-77 -86.5t-116.5 -63t-147 -42t-168 -23.5t-178.5 -7q-302 0 -448 84t-146 264q0 59 22 125.5t54 132.5l151 -47q-12 -26 -22 -52q-8 -22 -14.5 -45t-6.5 -40q0 -22 4 -44.5t18.5 -43t42 -39t74.5 -32t115.5 -21t165.5 -7.5h41q137 0 237.5 14t166.5 36.5
t98.5 52t32.5 61.5q0 31 -19 62t-48.5 62t-65.5 62t-69.5 61.5t-60.5 60.5t-39 59q2 21 7 52.5t13.5 61.5t19.5 53.5t24 30.5q52 27 119 56t140.5 58t149.5 56.5t148 51.5q123 42 252 83l-27 -207q-91 -25 -181 -51zM1581 1215q-73 -23 -149 -48t-146.5 -50t-130.5 -47.5
t-100 -41.5l27 113q33 16 87.5 38t122 46t143 49.5t149.5 49.5q132 43 278 89l-13 -115q-139 -42 -268 -83z" />
    <glyph glyph-name="uni06AC.init" unicode="&#x6ac;" horiz-adv-x="1001" 
d="M952 1040q-149 -36 -282 -70q-57 -15 -116 -31t-113.5 -32.5t-101 -32.5t-77.5 -30q-21 -8 -21 -19q0 -7 9 -14q15 -11 49.5 -33.5t76.5 -54t87.5 -71.5t82.5 -86t61 -96.5t24 -104.5q0 -88 -23 -156t-81.5 -114.5t-158.5 -70.5t-255 -24h-138v236h144q52 0 112 1.5
t111 9.5t85 25t34 47q0 36 -26.5 73t-67 74.5t-89.5 75t-94 73.5t-80.5 70t-48.5 65q1 22 7.5 56.5t17 68.5t23 61t24.5 33q52 27 117 55.5t135 55.5t141.5 52.5t138.5 47.5q157 52 322 100zM283 1211l-180 120l133 177l180 -121z" />
    <glyph glyph-name="uni06AC.medi" unicode="&#x6ac;" horiz-adv-x="1063" 
d="M762 953q-57 -16 -119 -34t-123.5 -37.5t-119 -40t-106.5 -40.5q-11 -5 -17 -15q-2 -4 -2 -7q0 -7 9 -13q34 -26 75 -60t85.5 -73t88.5 -80.5t84 -81.5q53 -53 98 -96.5t90.5 -74t95.5 -47.5t114 -17h78v-236h-113q-59 0 -118.5 20.5t-116 55.5t-107 83t-90.5 103
q-8 -58 -32 -99.5t-60 -71t-81 -47.5t-95 -27.5t-102 -13t-101 -3.5h-107v236h101q82 0 146.5 3.5t109.5 14t68.5 29t23.5 49.5q0 30 -20.5 61.5t-52.5 64t-70 65t-74 64.5t-64 63.5t-39 60.5q1 21 6 54t13 65.5t19.5 58.5t25.5 33q52 27 118.5 56.5t139.5 58t149 56.5
t148 52q126 43 259 85l-27 -227q-94 -24 -188 -50zM327 1169l-180 120l133 177l180 -121z" />
    <glyph glyph-name="uni06AC.fina" unicode="&#x6ac;" horiz-adv-x="1549" 
d="M917 641q0 -35 -15.5 -61t-40 -45t-55 -31t-61.5 -20t-58.5 -12.5t-45.5 -6.5l-50 86q22 4 55.5 10t64.5 15t53 22t22 31q0 11 -15 19t-38 16t-49.5 17.5t-49.5 23.5t-38 34t-15 49t13.5 55t38.5 47.5t59 37.5t76 26l61 -84q-16 -6 -37.5 -12t-40.5 -13.5t-32 -18
t-13 -25.5q0 -11 15.5 -19.5t39 -18t51 -20t51 -24.5t39 -33t15.5 -45zM1511 0q-43 0 -85 9.5t-78 33.5t-64 65t-43 105q-19 -59 -65 -109.5t-119 -87t-172.5 -57t-223.5 -20.5q-126 0 -229.5 25.5t-177 74.5t-114 120t-40.5 163q0 66 23.5 138t60.5 146l166 -53
q-14 -29 -25 -56q-9 -23 -16.5 -49t-7.5 -45q0 -36 13.5 -72.5t51 -65.5t104.5 -47.5t173 -18.5h45q154 0 250.5 19t150 51t71.5 74q17 40 17 84v5l-18 729l205 76v-739q0 -81 6.5 -132t22.5 -80t41.5 -39.5t64.5 -10.5h80v-236h-68zM1262 1306l-180 120l133 177l180 -121z
" />
    <glyph glyph-name="uni06AE.init" unicode="&#x6ae;" horiz-adv-x="1001" 
d="M952 1040q-149 -36 -282 -70q-57 -15 -116 -31t-113.5 -32.5t-101 -32.5t-77.5 -30q-21 -8 -21 -19q0 -7 9 -14q15 -11 49.5 -33.5t76.5 -54t87.5 -71.5t82.5 -86t61 -96.5t24 -104.5q0 -88 -23 -156t-81.5 -114.5t-158.5 -70.5t-255 -24h-138v236h144q52 0 112 1.5
t111 9.5t85 25t34 47q0 36 -26.5 73t-67 74.5t-89.5 75t-94 73.5t-80.5 70t-48.5 65q1 22 7.5 56.5t17 68.5t23 61t24.5 33q52 27 117 55.5t135 55.5t141.5 52.5t138.5 47.5q157 52 322 100zM458 -365l-133 89l-78 -105l-155 105l106 139l133 -88l72 104l158 -104zM381 -588
l-144 99l101 135l145 -99z" />
    <glyph glyph-name="uni06AE.medi" unicode="&#x6ae;" horiz-adv-x="1063" 
d="M762 953q-57 -16 -119 -34t-123.5 -37.5t-119 -40t-106.5 -40.5q-11 -5 -17 -15q-2 -4 -2 -7q0 -7 9 -13q34 -26 75 -60t85.5 -73t88.5 -80.5t84 -81.5q53 -53 98 -96.5t90.5 -74t95.5 -47.5t114 -17h78v-236h-113q-59 0 -118.5 20.5t-116 55.5t-107 83t-90.5 103
q-8 -58 -32 -99.5t-60 -71t-81 -47.5t-95 -27.5t-102 -13t-101 -3.5h-107v236h101q82 0 146.5 3.5t109.5 14t68.5 29t23.5 49.5q0 30 -20.5 61.5t-52.5 64t-70 65t-74 64.5t-64 63.5t-39 60.5q1 21 6 54t13 65.5t19.5 58.5t25.5 33q52 27 118.5 56.5t139.5 58t149 56.5
t148 52q126 43 259 85l-27 -227q-94 -24 -188 -50zM458 -365l-133 89l-78 -105l-155 105l106 139l133 -88l72 104l158 -104zM381 -588l-144 99l101 135l145 -99z" />
    <glyph glyph-name="uni06AE.fina" unicode="&#x6ae;" horiz-adv-x="1549" 
d="M917 641q0 -35 -15.5 -61t-40 -45t-55 -31t-61.5 -20t-58.5 -12.5t-45.5 -6.5l-50 86q22 4 55.5 10t64.5 15t53 22t22 31q0 11 -15 19t-38 16t-49.5 17.5t-49.5 23.5t-38 34t-15 49t13.5 55t38.5 47.5t59 37.5t76 26l61 -84q-16 -6 -37.5 -12t-40.5 -13.5t-32 -18
t-13 -25.5q0 -11 15.5 -19.5t39 -18t51 -20t51 -24.5t39 -33t15.5 -45zM1511 0q-43 0 -85 9.5t-78 33.5t-64 65t-43 105q-19 -59 -65 -109.5t-119 -87t-172.5 -57t-223.5 -20.5q-126 0 -229.5 25.5t-177 74.5t-114 120t-40.5 163q0 66 23.5 138t60.5 146l166 -53
q-14 -29 -25 -56q-9 -23 -16.5 -49t-7.5 -45q0 -36 13.5 -72.5t51 -65.5t104.5 -47.5t173 -18.5h45q154 0 250.5 19t150 51t71.5 74q17 40 17 84v5l-18 729l205 76v-739q0 -81 6.5 -132t22.5 -80t41.5 -39.5t64.5 -10.5h80v-236h-68zM858 -365l-133 89l-78 -105l-155 105
l106 139l133 -88l72 104l158 -104zM781 -588l-144 99l101 135l145 -99z" />
    <glyph glyph-name="uni06B0.init" unicode="&#x6b0;" horiz-adv-x="1010" 
d="M976 1366q-177 -55 -337 -108q-68 -23 -140 -47t-138.5 -48t-125 -46.5t-99.5 -41.5l27 109q37 17 92.5 39t120.5 46.5t136 49.5t139 49q160 55 339 115zM748 838q0 23 -13 43.5t-30 37t-34 27.5t-24 15q-5 -8 -13.5 -22t-16 -30t-13 -31.5t-5.5 -28.5q0 -30 16.5 -45.5
t45.5 -15.5q13 0 28 3t28 9t22 15.5t9 22.5zM529 930q-48 -14 -93 -27q-55 -17 -101.5 -33t-77.5 -30q-22 -10 -23 -17q-1 -1 -1 -2q0 -7 12 -14q22 -14 58.5 -39t78.5 -58.5t85.5 -74t79 -85t57.5 -92t22 -93.5q0 -89 -23 -157t-79 -114t-149.5 -70t-234.5 -24h-170v236
h179q55 0 110 1.5t98.5 9.5t71 25t27.5 47q0 34 -26.5 70t-67 73.5t-89.5 75.5t-94 74.5t-80.5 71.5t-48.5 66q1 22 7.5 54.5t17 64t23 56t24.5 31.5q52 28 117 56t135 55t141.5 52t138.5 47q157 52 322 100l-29 -226q-74 -18 -145 -36q17 -24 30 -50q20 -44 20 -94
q0 -49 -17 -85.5t-44 -61.5t-62 -37.5t-71 -12.5q-42 0 -73 10.5t-51 29.5t-30 45t-10 56q0 26 8 54.5t20 55.5q3 8 7 16z" />
    <glyph glyph-name="uni06B0.medi" unicode="&#x6b0;" horiz-adv-x="1063" 
d="M701 1215q-73 -23 -149 -48t-146.5 -50t-130.5 -47.5t-100 -41.5l27 113q33 16 87.5 38t122 46t143 49.5t149.5 49.5q132 43 278 89l-13 -115q-139 -42 -268 -83zM783 803q0 23 -13 43.5t-30 37t-34 27.5t-24 15q-5 -8 -13.5 -22t-16 -30t-13 -31.5t-5.5 -28.5
q0 -30 16.5 -45.5t45.5 -15.5q13 0 28 3t28 9t22 15.5t9 22.5zM564 895q-22 -6 -44 -13q-62 -20 -119.5 -40.5t-106.5 -40.5q-19 -8 -21 -17v-2q0 -8 11 -16q78 -59 160 -133t173 -162q53 -51 96 -94.5t87 -74.5t95 -48.5t120 -17.5h78v-236h-123q-57 0 -117 23t-117 62
t-106.5 89.5t-85.5 106.5q0 -60 -17.5 -104.5t-48.5 -76t-73 -51t-92 -30.5t-105.5 -15t-112.5 -4h-125v236h129q94 0 155 4.5t97 16t50 31t14 50.5q0 29 -20.5 59.5t-51.5 62.5t-69 64t-73 64t-63 63t-39 60q1 21 6 52.5t13 61.5t19.5 53.5t25.5 30.5q52 27 118.5 56
t139.5 58t149 56.5t148 51.5q123 42 252 83l-26 -208q-56 -15 -111 -31q20 -26 34 -56q20 -44 20 -94q0 -49 -17 -85.5t-44 -61.5t-62 -37.5t-71 -12.5q-42 0 -73 10.5t-51 29.5t-30 45t-10 56q0 26 8 54.5t20 55.5q3 8 7 16z" />
    <glyph glyph-name="uni06B0.fina" unicode="&#x6b0;" horiz-adv-x="1946" 
d="M1581 1215q-73 -23 -149 -48t-146.5 -50t-130.5 -47.5t-100 -41.5l27 113q33 16 87.5 38t122 46t143 49.5t149.5 49.5q132 43 278 89l-13 -115q-139 -42 -268 -83zM1663 795q0 23 -13 43.5t-30 37t-34 27.5t-24 15q-5 -8 -13.5 -22t-16 -30t-13 -31.5t-5.5 -28.5
q0 -30 16.5 -45.5t45.5 -15.5q13 0 28 3t28 9t22 15.5t9 22.5zM1449 897q-25 -7 -48 -15q-62 -20 -119.5 -40.5t-106.5 -40.5q-23 -10 -24 -18v-1q0 -8 12 -16q33 -23 75.5 -57.5t87.5 -74.5t90 -82.5t83 -80.5q56 -56 101 -99.5t89 -73.5t93 -46t114 -16h80v-236h-125
q-62 0 -123.5 23.5t-118.5 62.5t-108.5 89.5t-91.5 103.5q0 -63 -28 -112t-77 -86.5t-116.5 -63t-147 -42t-168 -23.5t-178.5 -7q-302 0 -448 84t-146 264q0 59 22 125.5t54 132.5l151 -47q-12 -26 -22 -52q-8 -22 -14.5 -45t-6.5 -40q0 -22 4 -44.5t18.5 -43t42 -39
t74.5 -32t115.5 -21t165.5 -7.5h41q137 0 237.5 14t166.5 36.5t98.5 52t32.5 61.5q0 31 -19 62t-48.5 62t-65.5 62t-69.5 61.5t-60.5 60.5t-39 59q2 21 7 52.5t13.5 61.5t19.5 53.5t24 30.5q52 27 119 56t140.5 58t149.5 56.5t148 51.5q123 42 252 83l-27 -207
q-59 -16 -117 -33q24 -29 40 -63q20 -44 20 -94q0 -49 -17 -85.5t-44 -61.5t-62 -37.5t-71 -12.5q-42 0 -73 10.5t-51 29.5t-30 45t-10 56q0 26 8 54.5t20 55.5q5 14 12 26z" />
    <glyph glyph-name="uni06B2.init" unicode="&#x6b2;" horiz-adv-x="1010" 
d="M976 1366q-177 -55 -337 -108q-68 -23 -140 -47t-138.5 -48t-125 -46.5t-99.5 -41.5l27 109q37 17 92.5 39t120.5 46.5t136 49.5t139 49q160 55 339 115zM947 1040q-149 -36 -282 -72q-57 -15 -116 -32t-113.5 -33.5t-101 -32.5t-77.5 -30q-22 -10 -23 -17q-1 -1 -1 -2
q0 -7 12 -14q22 -14 58.5 -39t78.5 -58.5t85.5 -74t79 -85t57.5 -92t22 -93.5q0 -89 -23 -157t-79 -114t-149.5 -70t-234.5 -24h-170v236h179q55 0 110 1.5t98.5 9.5t71 25t27.5 47q0 34 -26.5 70t-67 73.5t-89.5 75.5t-94 74.5t-80.5 71.5t-48.5 66q1 22 7.5 54.5t17 64
t23 56t24.5 31.5q52 28 117 56t135 55t141.5 52t138.5 47q157 52 322 100zM441 -395l-138 96l-80 -113l-172 117l111 150l143 -99l80 111l166 -115z" />
    <glyph glyph-name="uni06B2.medi" unicode="&#x6b2;" horiz-adv-x="1063" 
d="M701 1215q-73 -23 -149 -48t-146.5 -50t-130.5 -47.5t-100 -41.5l27 113q33 16 87.5 38t122 46t143 49.5t149.5 49.5q132 43 278 89l-13 -115q-139 -42 -268 -83zM762 955q-57 -17 -119 -35.5t-123.5 -38t-119 -40t-106.5 -40.5q-19 -8 -21 -17v-2q0 -8 11 -16
q78 -59 160 -133t173 -162q53 -51 96 -94.5t87 -74.5t95 -48.5t120 -17.5h78v-236h-123q-57 0 -117 23t-117 62t-106.5 89.5t-85.5 106.5q0 -60 -17.5 -104.5t-48.5 -76t-73 -51t-92 -30.5t-105.5 -15t-112.5 -4h-125v236h129q94 0 155 4.5t97 16t50 31t14 50.5
q0 29 -20.5 59.5t-51.5 62.5t-69 64t-73 64t-63 63t-39 60q1 21 6 52.5t13 61.5t19.5 53.5t25.5 30.5q52 27 118.5 56t139.5 58t149 56.5t148 51.5q123 42 252 83l-26 -208q-92 -25 -182 -51zM441 -395l-138 96l-80 -113l-172 117l111 150l143 -99l80 111l166 -115z" />
    <glyph glyph-name="uni06B2.fina" unicode="&#x6b2;" horiz-adv-x="1946" 
d="M1643 956q-57 -17 -119 -35.5t-123.5 -38.5t-119 -40.5t-106.5 -40.5q-23 -10 -24 -18v-1q0 -8 12 -16q33 -23 75.5 -57.5t87.5 -74.5t90 -82.5t83 -80.5q56 -56 101 -99.5t89 -73.5t93 -46t114 -16h80v-236h-125q-62 0 -123.5 23.5t-118.5 62.5t-108.5 89.5t-91.5 103.5
q0 -63 -28 -112t-77 -86.5t-116.5 -63t-147 -42t-168 -23.5t-178.5 -7q-302 0 -448 84t-146 264q0 59 22 125.5t54 132.5l151 -47q-12 -26 -22 -52q-8 -22 -14.5 -45t-6.5 -40q0 -22 4 -44.5t18.5 -43t42 -39t74.5 -32t115.5 -21t165.5 -7.5h41q137 0 237.5 14t166.5 36.5
t98.5 52t32.5 61.5q0 31 -19 62t-48.5 62t-65.5 62t-69.5 61.5t-60.5 60.5t-39 59q2 21 7 52.5t13.5 61.5t19.5 53.5t24 30.5q52 27 119 56t140.5 58t149.5 56.5t148 51.5q123 42 252 83l-27 -207q-91 -25 -181 -51zM1581 1215q-73 -23 -149 -48t-146.5 -50t-130.5 -47.5
t-100 -41.5l27 113q33 16 87.5 38t122 46t143 49.5t149.5 49.5q132 43 278 89l-13 -115q-139 -42 -268 -83zM961 -395l-138 96l-80 -113l-172 117l111 150l143 -99l80 111l166 -115z" />
    <glyph glyph-name="uni06B4.init" unicode="&#x6b4;" horiz-adv-x="1010" 
d="M976 1366q-177 -55 -337 -108q-68 -23 -140 -47t-138.5 -48t-125 -46.5t-99.5 -41.5l27 109q37 17 92.5 39t120.5 46.5t136 49.5t139 49q160 55 339 115zM947 1040q-149 -36 -282 -72q-57 -15 -116 -32t-113.5 -33.5t-101 -32.5t-77.5 -30q-22 -10 -23 -17q-1 -1 -1 -2
q0 -7 12 -14q22 -14 58.5 -39t78.5 -58.5t85.5 -74t79 -85t57.5 -92t22 -93.5q0 -89 -23 -157t-79 -114t-149.5 -70t-234.5 -24h-170v236h179q55 0 110 1.5t98.5 9.5t71 25t27.5 47q0 34 -26.5 70t-67 73.5t-89.5 75.5t-94 74.5t-80.5 71.5t-48.5 66q1 22 7.5 54.5t17 64
t23 56t24.5 31.5q52 28 117 56t135 55t141.5 52t138.5 47q157 52 322 100zM200 1616l133 -89l78 103l155 -103l-104 -139l-133 88l-74 -104l-156 104zM278 1839l145 -99l-100 -135l-148 97z" />
    <glyph glyph-name="uni06B4.medi" unicode="&#x6b4;" horiz-adv-x="1063" 
d="M701 1215q-73 -23 -149 -48t-146.5 -50t-130.5 -47.5t-100 -41.5l27 113q33 16 87.5 38t122 46t143 49.5t149.5 49.5q132 43 278 89l-13 -115q-139 -42 -268 -83zM762 955q-57 -17 -119 -35.5t-123.5 -38t-119 -40t-106.5 -40.5q-19 -8 -21 -17v-2q0 -8 11 -16
q78 -59 160 -133t173 -162q53 -51 96 -94.5t87 -74.5t95 -48.5t120 -17.5h78v-236h-123q-57 0 -117 23t-117 62t-106.5 89.5t-85.5 106.5q0 -60 -17.5 -104.5t-48.5 -76t-73 -51t-92 -30.5t-105.5 -15t-112.5 -4h-125v236h129q94 0 155 4.5t97 16t50 31t14 50.5
q0 29 -20.5 59.5t-51.5 62.5t-69 64t-73 64t-63 63t-39 60q1 21 6 52.5t13 61.5t19.5 53.5t25.5 30.5q52 27 118.5 56t139.5 58t149 56.5t148 51.5q123 42 252 83l-26 -208q-92 -25 -182 -51zM200 1536l133 -89l78 103l155 -103l-104 -139l-133 88l-74 -104l-156 104z
M278 1759l145 -99l-100 -135l-148 97z" />
    <glyph glyph-name="uni06B4.fina" unicode="&#x6b4;" horiz-adv-x="1946" 
d="M1643 956q-57 -17 -119 -35.5t-123.5 -38.5t-119 -40.5t-106.5 -40.5q-23 -10 -24 -18v-1q0 -8 12 -16q33 -23 75.5 -57.5t87.5 -74.5t90 -82.5t83 -80.5q56 -56 101 -99.5t89 -73.5t93 -46t114 -16h80v-236h-125q-62 0 -123.5 23.5t-118.5 62.5t-108.5 89.5t-91.5 103.5
q0 -63 -28 -112t-77 -86.5t-116.5 -63t-147 -42t-168 -23.5t-178.5 -7q-302 0 -448 84t-146 264q0 59 22 125.5t54 132.5l151 -47q-12 -26 -22 -52q-8 -22 -14.5 -45t-6.5 -40q0 -22 4 -44.5t18.5 -43t42 -39t74.5 -32t115.5 -21t165.5 -7.5h41q137 0 237.5 14t166.5 36.5
t98.5 52t32.5 61.5q0 31 -19 62t-48.5 62t-65.5 62t-69.5 61.5t-60.5 60.5t-39 59q2 21 7 52.5t13.5 61.5t19.5 53.5t24 30.5q52 27 119 56t140.5 58t149.5 56.5t148 51.5q123 42 252 83l-27 -207q-91 -25 -181 -51zM1581 1215q-73 -23 -149 -48t-146.5 -50t-130.5 -47.5
t-100 -41.5l27 113q33 16 87.5 38t122 46t143 49.5t149.5 49.5q132 43 278 89l-13 -115q-139 -42 -268 -83zM1120 1546l133 -89l78 103l155 -103l-104 -139l-133 88l-74 -104l-156 104zM1198 1769l145 -99l-100 -135l-148 97z" />
    <glyph glyph-name="uni06B5.init" unicode="&#x6b5;" horiz-adv-x="454" 
d="M370 424q0 -48 -2 -98.5t-11 -97.5t-27.5 -88.5t-50 -72.5t-79 -49t-115.5 -18h-115v236h64q56 0 88 7.5t48 26.5t20 52q2 25 2 60v21l-25 748l203 82v-809zM429 1555q-17 -12 -41.5 -38t-47 -61.5t-38.5 -78.5t-16 -89h-70q0 46 -17 89t-40 78.5t-47 61t-39 36.5l35 79
q28 -26 50 -50.5t39 -50.5t30 -55.5t24 -64.5q22 70 58.5 128.5t82.5 93.5q5 -6 11 -19l12 -26q7 -15 14 -33z" />
    <glyph glyph-name="uni06B5.medi" unicode="&#x6b5;" horiz-adv-x="540" 
d="M478 0q-35 0 -67 13t-58 32t-45 40.5t-26 39.5q-9 -18 -25.5 -39.5t-41.5 -40.5t-57.5 -32t-72.5 -13h-115v236h64q58 0 90.5 7.5t48 26.5t18.5 52q1 23 1 54v27l-25 748l203 82v-809q0 -51 13.5 -87t35.5 -58.5t48.5 -32.5t53.5 -10h49v-236h-92zM429 1555
q-17 -12 -41.5 -38t-47 -61.5t-38.5 -78.5t-16 -89h-70q0 46 -17 89t-40 78.5t-47 61t-39 36.5l35 79q28 -26 50 -50.5t39 -50.5t30 -55.5t24 -64.5q22 70 58.5 128.5t82.5 93.5q5 -6 11 -19l12 -26q7 -15 14 -33z" />
    <glyph glyph-name="uni06B5.fina" unicode="&#x6b5;" horiz-adv-x="1216" 
d="M1187 0q-14 0 -34 5.5t-41 16.5t-39.5 26.5t-29.5 35.5q-3 -62 -13 -129t-32.5 -131t-59 -121.5t-90.5 -100.5t-128 -68.5t-172 -25.5q-133 0 -221.5 42.5t-141 109.5t-74.5 149.5t-22 163.5q0 31 5.5 69.5t16 80.5t25.5 85.5t35 84.5l155 -55q-6 -15 -16 -43.5
t-19.5 -60.5t-16.5 -63t-7 -53q0 -62 18.5 -113t55 -87t91.5 -56t128 -20q164 0 244 93q74 85 74 238q0 13 -1 27l-39 1051l205 82v-809q0 -103 38.5 -145.5t119.5 -42.5h45v-236h-59zM1091 1555q-17 -12 -41.5 -38t-47 -61.5t-38.5 -78.5t-16 -89h-70q0 46 -17 89t-40 78.5
t-47 61t-39 36.5l35 79q28 -26 50 -50.5t39 -50.5t30 -55.5t24 -64.5q22 70 58.5 128.5t82.5 93.5q5 -6 11 -19l12 -26q7 -15 14 -33z" />
    <glyph glyph-name="uni06B6.init" unicode="&#x6b6;" horiz-adv-x="454" 
d="M370 424q0 -48 -2 -98.5t-11 -97.5t-27.5 -88.5t-50 -72.5t-79 -49t-115.5 -18h-115v236h64q56 0 88 7.5t48 26.5t20 52q2 25 2 60v21l-25 748l203 82v-809zM278 1293l-180 120l133 177l180 -121z" />
    <glyph glyph-name="uni06B6.medi" unicode="&#x6b6;" horiz-adv-x="540" 
d="M478 0q-35 0 -67 13t-58 32t-45 40.5t-26 39.5q-9 -18 -25.5 -39.5t-41.5 -40.5t-57.5 -32t-72.5 -13h-115v236h64q58 0 90.5 7.5t48 26.5t18.5 52q1 23 1 54v27l-25 748l203 82v-809q0 -51 13.5 -87t35.5 -58.5t48.5 -32.5t53.5 -10h49v-236h-92zM278 1293l-180 120
l133 177l180 -121z" />
    <glyph glyph-name="uni06B6.fina" unicode="&#x6b6;" horiz-adv-x="1216" 
d="M1187 0q-14 0 -34 5.5t-41 16.5t-39.5 26.5t-29.5 35.5q-3 -62 -13 -129t-32.5 -131t-59 -121.5t-90.5 -100.5t-128 -68.5t-172 -25.5q-133 0 -221.5 42.5t-141 109.5t-74.5 149.5t-22 163.5q0 31 5.5 69.5t16 80.5t25.5 85.5t35 84.5l155 -55q-6 -15 -16 -43.5
t-19.5 -60.5t-16.5 -63t-7 -53q0 -62 18.5 -113t55 -87t91.5 -56t128 -20q164 0 244 93q74 85 74 238q0 13 -1 27l-39 1051l205 82v-809q0 -103 38.5 -145.5t119.5 -42.5h45v-236h-59zM948 1293l-180 120l133 177l180 -121z" />
    <glyph glyph-name="uni06B7.init" unicode="&#x6b7;" horiz-adv-x="473" 
d="M370 424q0 -48 -2 -98.5t-11 -97.5t-27.5 -88.5t-50 -72.5t-79 -49t-115.5 -18h-115v236h64q56 0 88 7.5t48 26.5t20 52q2 25 2 60v21l-25 748l203 82v-809zM103 1532l133 -89l78 103l155 -103l-104 -139l-133 88l-74 -104l-156 104zM181 1755l145 -99l-100 -135l-148 97
z" />
    <glyph glyph-name="uni06B7.medi" unicode="&#x6b7;" horiz-adv-x="540" 
d="M478 0q-35 0 -67 13t-58 32t-45 40.5t-26 39.5q-9 -18 -25.5 -39.5t-41.5 -40.5t-57.5 -32t-72.5 -13h-115v236h64q58 0 90.5 7.5t48 26.5t18.5 52q1 23 1 54v27l-25 748l203 82v-809q0 -51 13.5 -87t35.5 -58.5t48.5 -32.5t53.5 -10h49v-236h-92zM113 1532l133 -89
l78 103l155 -103l-104 -139l-133 88l-74 -104l-156 104zM191 1755l145 -99l-100 -135l-148 97z" />
    <glyph glyph-name="uni06B7.fina" unicode="&#x6b7;" horiz-adv-x="1216" 
d="M1187 0q-14 0 -34 5.5t-41 16.5t-39.5 26.5t-29.5 35.5q-3 -62 -13 -129t-32.5 -131t-59 -121.5t-90.5 -100.5t-128 -68.5t-172 -25.5q-133 0 -221.5 42.5t-141 109.5t-74.5 149.5t-22 163.5q0 31 5.5 69.5t16 80.5t25.5 85.5t35 84.5l155 -55q-6 -15 -16 -43.5
t-19.5 -60.5t-16.5 -63t-7 -53q0 -62 18.5 -113t55 -87t91.5 -56t128 -20q164 0 244 93q74 85 74 238q0 13 -1 27l-39 1051l205 82v-809q0 -103 38.5 -145.5t119.5 -42.5h45v-236h-59zM773 1532l133 -89l78 103l155 -103l-104 -139l-133 88l-74 -104l-156 104zM851 1755
l145 -99l-100 -135l-148 97z" />
    <glyph glyph-name="uni06B8.init" unicode="&#x6b8;" horiz-adv-x="603" 
d="M500 424q0 -48 -2 -98.5t-11 -97.5t-27.5 -88.5t-50 -72.5t-79 -49t-115.5 -18h-245v236h194q56 0 88 7.5t48 26.5t20 52q2 25 2 60v21l-25 748l203 82v-809zM388 -365l-133 89l-78 -105l-155 105l106 139l133 -88l72 104l158 -104zM311 -588l-144 99l101 135l145 -99z
" />
    <glyph glyph-name="uni06B8.medi" unicode="&#x6b8;" horiz-adv-x="660" 
d="M598 0q-35 0 -67 13t-58 32t-45 40.5t-26 39.5q-9 -18 -25.5 -39.5t-41.5 -40.5t-57.5 -32t-72.5 -13h-235v236h184q58 0 90.5 7.5t48 26.5t18.5 52q1 23 1 54v27l-25 748l203 82v-809q0 -51 13.5 -87t35.5 -58.5t48.5 -32.5t53.5 -10h49v-236h-92zM398 -365l-133 89
l-78 -105l-155 105l106 139l133 -88l72 104l158 -104zM321 -588l-144 99l101 135l145 -99z" />
    <glyph glyph-name="uni06B8.fina" unicode="&#x6b8;" horiz-adv-x="1216" 
d="M1187 0q-14 0 -34 5.5t-41 16.5t-39.5 26.5t-29.5 35.5q-3 -62 -13 -129t-32.5 -131t-59 -121.5t-90.5 -100.5t-128 -68.5t-172 -25.5q-133 0 -221.5 42.5t-141 109.5t-74.5 149.5t-22 163.5q0 31 5.5 69.5t16 80.5t25.5 85.5t35 84.5l155 -55q-6 -15 -16 -43.5
t-19.5 -60.5t-16.5 -63t-7 -53q0 -62 18.5 -113t55 -87t91.5 -56t128 -20q164 0 244 93q74 85 74 238q0 13 -1 27l-39 1051l205 82v-809q0 -103 38.5 -145.5t119.5 -42.5h45v-236h-59zM731 -801l-133 89l-78 -105l-155 105l106 139l133 -88l72 104l158 -104zM654 -1024
l-144 99l101 135l145 -99z" />
    <glyph glyph-name="uni06B9.init" unicode="&#x6b9;" horiz-adv-x="466" 
d="M386 328q0 -56 -16 -114t-56.5 -105.5t-109 -78t-174.5 -30.5h-60v236h160q51 0 75 11.5t29 31.5q1 5 1 10q0 16 -10 35q-13 26 -36 55l-69 88l131 188q16 -15 39 -43.5t44.5 -69.5t36.5 -94.5t15 -119.5zM245 805l-182 119l133 178l180 -123zM244 -469l-181 121l131 178
l181 -123z" />
    <glyph glyph-name="uni06B9.medi" unicode="&#x6b9;" horiz-adv-x="534" 
d="M488 0q-32 0 -61.5 7.5t-54.5 21.5t-43.5 33.5t-28.5 43.5q-37 -51 -96 -78.5t-144 -27.5h-90v236h82q21 0 47.5 3t50.5 13.5t40 31.5t16 58v80l168 55v-51q0 -99 31.5 -144.5t91.5 -45.5h67v-236h-76zM268 625l-182 120l133 177l181 -121zM269 -469l-181 121l131 178
l181 -123z" />
    <glyph glyph-name="uni06B9.fina" unicode="&#x6b9;" horiz-adv-x="1250" 
d="M1224 0q-16 0 -36 3t-39.5 8.5t-35.5 13.5t-24 18q0 -114 -37 -216.5t-106.5 -180t-169.5 -123t-227 -45.5q-133 0 -221.5 42.5t-141 109.5t-74.5 149.5t-22 163.5q0 31 5.5 70t16 81t25.5 85t35 83l155 -55q-5 -13 -13.5 -39.5t-17.5 -58t-15.5 -64t-6.5 -57.5
q0 -62 18.5 -113t55 -87t91.5 -55.5t128 -19.5q81 0 144.5 24.5t107.5 66.5t67 97.5t23 118.5q0 36 -8.5 73.5t-22 72.5t-31.5 66.5t-36 56.5l174 166q15 -29 33 -66.5t42.5 -71.5t57.5 -57.5t78 -23.5h84v-236h-56zM583 416l-180 121l133 176l181 -121zM622 -918l-180 121
l133 178l181 -123z" />
    <glyph glyph-name="uni06BC.init" unicode="&#x6bc;" horiz-adv-x="577" 
d="M273 -105q0 23 -13 43.5t-30 37t-34 27.5t-24 15q-5 -8 -13.5 -22t-16 -30t-13 -31.5t-5.5 -28.5q0 -30 16.5 -45.5t45.5 -15.5q13 0 28 3t28 9t22 15.5t9 22.5zM245 805l-182 119l133 178l180 -123zM60 0h-89v236h270q51 0 75 11.5t29 31.5q1 5 1 10q0 16 -10 35
q-13 26 -36 55l-69 88l131 188q16 -15 39 -43.5t44.5 -69.5t36.5 -94.5t15 -119.5q0 -56 -16 -114t-56 -105q-34 -39 -85 -67q9 -15 17 -31q20 -44 20 -94q0 -49 -17 -85.5t-44 -61.5t-62 -37.5t-71 -12.5q-42 0 -73 10.5t-51 29.5t-30 45t-10 56q0 26 8 54.5t20 55.5
q6 15 13 29z" />
    <glyph glyph-name="uni06BC.medi" unicode="&#x6bc;" horiz-adv-x="644" 
d="M263 -105q0 23 -13 43.5t-30 37t-34 27.5t-24 15q-5 -8 -13.5 -22t-16 -30t-13 -31.5t-5.5 -28.5q0 -30 16.5 -45.5t45.5 -15.5q13 0 28 3t28 9t22 15.5t9 22.5zM265 678l-182 119l133 178l180 -123zM50 0h-80v236h192q21 0 47.5 3t50.5 13.5t40 31.5t16 58v80l168 55
v-51q0 -99 31.5 -144.5t91.5 -45.5h67v-236h-76q-32 0 -61.5 7.5t-54.5 21.5t-43.5 33.5t-28.5 43.5q-31 -43 -77 -69l14 -26q20 -44 20 -94q0 -49 -17 -85.5t-44 -61.5t-62 -37.5t-71 -12.5q-42 0 -73 10.5t-51 29.5t-30 45t-10 56q0 26 8 54.5t20 55.5q6 15 13 29z" />
    <glyph glyph-name="uni06BC.fina" unicode="&#x6bc;" horiz-adv-x="1250" 
d="M583 416l-180 121l133 176l181 -121zM669 -633q0 23 -13 43.5t-30 37t-34 27.5t-24 15q-5 -8 -13.5 -22t-16 -30t-13 -31.5t-5.5 -28.5q0 -30 16.5 -45.5t45.5 -15.5q13 0 28 3t28 9t22 15.5t9 22.5zM462 -517q-77 10 -134 38q-89 42 -141.5 109t-74.5 149.5t-22 163.5
q0 31 5.5 70t16 81t25.5 85t35 83l155 -55q-5 -13 -13.5 -39.5t-17.5 -58t-15.5 -64t-6.5 -57.5q0 -62 18.5 -113t55 -87t91.5 -55.5t128 -19.5q81 0 144.5 24.5t107.5 66.5t67 97.5t23 118.5q0 36 -8.5 73.5t-22 72.5t-31.5 66.5t-36 56.5l174 166q15 -29 33 -66.5
t42.5 -71.5t57.5 -57.5t78 -23.5h84v-236h-56q-16 0 -36 3t-39.5 8.5t-35.5 13.5t-24 18q0 -114 -37 -216.5t-106.5 -180t-169.5 -122.5q-18 -9 -37 -15l14 -26q20 -44 20 -94q0 -49 -17 -85.5t-44 -61.5t-62 -37.5t-71 -12.5q-42 0 -73 10.5t-51 29.5t-30 45t-10 56
q0 26 8 54.5t20 55.5q9 21 19 40z" />
    <glyph glyph-name="uni06BD.init" unicode="&#x6bd;" horiz-adv-x="566" 
d="M486 328q0 -56 -16 -114t-56.5 -105.5t-109 -78t-174.5 -30.5h-160v236h260q51 0 75 11.5t29 31.5q1 5 1 10q0 16 -10 35q-13 26 -36 55l-69 88l131 188q16 -15 39 -43.5t44.5 -69.5t36.5 -94.5t15 -119.5zM98 993l133 -88l78 105l156 -105l-107 -139l-133 88l-72 -104
l-155 104zM176 1217l145 -97l-100 -137l-148 98z" />
    <glyph glyph-name="uni06BD.medi" unicode="&#x6bd;" horiz-adv-x="644" 
d="M129 858l133 -88l78 104l156 -104l-107 -139l-133 88l-72 -105l-155 105zM207 1081l145 -96l-100 -137l-148 98zM598 0q-32 0 -61.5 7.5t-54.5 21.5t-43.5 33.5t-28.5 43.5q-37 -51 -96 -78.5t-144 -27.5h-200v236h192q21 0 47.5 3t50.5 13.5t40 31.5t16 58v80l168 55
v-51q0 -99 31.5 -144.5t91.5 -45.5h67v-236h-76z" />
    <glyph glyph-name="uni06BD.fina" unicode="&#x6bd;" horiz-adv-x="1250" 
d="M1224 0q-16 0 -36 3t-39.5 8.5t-35.5 13.5t-24 18q0 -114 -37 -216.5t-106.5 -180t-169.5 -123t-227 -45.5q-133 0 -221.5 42.5t-141 109.5t-74.5 149.5t-22 163.5q0 31 5.5 70t16 81t25.5 85t35 83l155 -55q-5 -13 -13.5 -39.5t-17.5 -58t-15.5 -64t-6.5 -57.5
q0 -62 18.5 -113t55 -87t91.5 -55.5t128 -19.5q81 0 144.5 24.5t107.5 66.5t67 97.5t23 118.5q0 36 -8.5 73.5t-22 72.5t-31.5 66.5t-36 56.5l174 166q15 -29 33 -66.5t42.5 -71.5t57.5 -57.5t78 -23.5h84v-236h-56zM421 664l133 -88l78 105l156 -105l-107 -139l-133 88
l-72 -104l-155 104zM499 888l145 -97l-100 -137l-148 98z" />
    <glyph glyph-name="uni06BF.init" unicode="&#x6bf;" horiz-adv-x="1133" 
d="M1050 305q-77 0 -141.5 -22.5t-126 -56.5t-124 -73.5t-135 -73.5t-159.5 -56.5t-197 -22.5h-197v236h195q86 0 155.5 13.5t129.5 32.5t113.5 40.5t107.5 37.5q-20 2 -48 9t-60.5 16.5t-66 20t-64 19t-55 14t-38.5 5.5q-22 0 -37 -8t-26 -19t-19.5 -24.5t-17.5 -23.5
q-12 5 -31 13t-40 18l-42 20t-39 20q12 28 32.5 66t48.5 72t62.5 57.5t75.5 23.5q47 0 101 -13t114 -32t125 -40t135 -36.5t144 -22.5q34 -4 68 -4q41 0 83 5zM732 821l-180 121l133 176l180 -121zM822 -291l-133 88l-76 -104l-157 104l106 140l133 -89l74 105l156 -105z
M744 -514l-143 96l100 137l148 -98z" />
    <glyph glyph-name="uni06BF.medi" unicode="&#x6bf;" horiz-adv-x="1206" 
d="M1009 0q-48 0 -83.5 12.5t-61 33t-43 47t-27.5 53.5q-25 64 -25 147q-51 -29 -94.5 -62t-86 -66t-85.5 -62.5t-92 -52.5t-107.5 -36.5t-130.5 -13.5h-203v236h172q87 0 153 18t120.5 44t103 56t101.5 54q-29 3 -71.5 10.5t-84.5 15t-77 13.5t-48 6q-14 0 -27 -7.5
t-25 -19.5t-22.5 -27t-19.5 -30q-12 5 -31 13t-40 18l-42 20t-39 20q11 28 31 69.5t48 79t63.5 64.5t76.5 27q18 0 62 -10t106 -24t138 -29.5t158 -26.5t166 -15q25 -1 50 -1q57 0 111 6l-29 -228q-18 0 -42.5 -2t-50 -5t-50 -8t-43.5 -11q4 -14 9.5 -29.5t20.5 -29
t43.5 -22.5t79.5 -9h195v-236h-227zM732 821l-180 121l133 176l180 -121zM755 -291l-133 88l-76 -104l-158 104l107 140l133 -89l73 105l156 -105zM677 -514l-143 96l100 137l147 -98z" />
    <glyph glyph-name="uni06BF.fina" unicode="&#x6bf;" horiz-adv-x="1229" 
d="M1017 0q-47 0 -82.5 14t-60.5 36.5t-41.5 52t-26.5 59.5q-21 63 -21 142v20q-93 -30 -182 -81t-158 -115.5t-111 -138.5t-42 -151q0 -36 7 -75.5t27 -78t55.5 -73t92.5 -60.5t138 -41.5t192 -15.5q49 0 100 5t95.5 12t79 15t51.5 13l63 -201q-31 -11 -76 -24.5
t-100.5 -25t-118 -19.5t-127.5 -8q-180 0 -310.5 38.5t-216 109.5t-126.5 173t-41 230q0 68 21 131t57 119t84 105.5t102 91.5t111.5 75.5t111.5 58.5q-29 4 -63 8t-65 7.5t-56 5.5t-37 2q-15 0 -28.5 -7t-25.5 -18.5t-22.5 -25.5t-19.5 -29q-12 5 -31.5 13.5t-41 19
t-43 21.5t-38.5 22q12 27 32.5 67.5t48.5 77.5t63.5 63.5t76.5 26.5q18 0 62 -5t106 -12t138 -14t158 -11q66 -3 132 -3h34q83 1 161 10l-29 -241q-19 0 -41.5 -1t-45.5 -3t-44.5 -5t-38.5 -6q2 -14 6 -34.5t17.5 -39.5t41.5 -32.5t79 -13.5h209v-236h-242zM644 821
l-180 121l133 176l180 -121zM767 -225l-133 88l-76 -105l-158 105l107 139l133 -88l74 104l155 -104zM689 -449l-143 97l100 137l148 -98z" />
    <glyph glyph-name="uni06C2.fina" unicode="&#x6c2;" horiz-adv-x="1023" 
d="M948 0q-84 8 -131.5 45t-121.5 139.5t-92 120.5q-36 48 -83 66q-16 6 -32 6q-35 0 -76 -25q-60 -38 -110 -105.5t-104 -167.5q-10 -19 -20 -39l-98 179q7 13 14 25q35 62 78 119t93 101.5t106 71t115 26.5q58 0 101 -17q44 -18 99 -76t113.5 -141t166.5 -92h87v-236h-105
zM199 685v80l104 41q-12 10 -21.5 19.5t-16.5 20.5t-11 26t-4 36q0 34 15 63.5t39 51.5t52.5 34.5t55.5 12.5q35 0 67.5 -10.5t57.5 -32.5l-27 -66q-20 10 -49.5 13.5t-52.5 3.5q-12 0 -26.5 -4t-28 -11.5t-22.5 -17t-9 -21.5q0 -32 35 -51.5t88 -19.5q7 0 28.5 5.5
t47.5 13.5t50.5 15.5t38.5 12.5v-109z" />
    <glyph glyph-name="uni06C3.fina" unicode="&#x6c3;" horiz-adv-x="1023" 
d="M948 0q-84 8 -131.5 45t-121.5 139.5t-92 120.5q-36 48 -83 66q-16 6 -32 6q-35 0 -76 -25q-60 -38 -110 -105.5t-104 -167.5q-10 -19 -20 -39l-98 179q7 13 14 25q35 62 78 119t93 101.5t106 71t115 26.5q58 0 101 -17q44 -18 99 -76t113.5 -141t166.5 -92h87v-236h-105
zM552 717l-136 96l-81 -112l-170 116l108 150l143 -98l80 110l166 -115z" />
    <glyph glyph-name="uni06C4.fina" unicode="&#x6c4;" horiz-adv-x="800" 
d="M547 233q-2 23 -13 46t-27 41.5t-36.5 30t-41.5 11.5q-19 0 -34 -9.5t-25.5 -22t-16.5 -26.5t-6 -23q0 -29 21.5 -42.5t52.5 -16.5q13 -1 27 -1q19 0 39 2q34 4 60 10zM234 -81q-30 0 -51 -21t-21 -51t21 -51.5t51 -21.5t51.5 21.5t21.5 51.5t-21.5 51t-51.5 21z
M349 -160q27 22 51 44q67 60 102 112l3 4q-38 1 -82.5 5t-83 14.5t-68.5 34t-49 63.5t-19 99q0 23 6 57t17.5 71.5t30 75t43.5 67.5t57 48.5t71 18.5q78 0 133.5 -37t90.5 -98t51 -138q5 -24 8 -45h119v-236h-132q-1 -3 -2 -8l-8 -22q-26 -68 -70 -128.5t-100.5 -113
t-118 -95.5t-122.5 -75.5t-114 -53.5l-160 125q108 53 196 107q-26 8 -46 29q-34 34 -34 82q0 47 33.5 81t81.5 34t81.5 -34t33.5 -81v-7z" />
    <glyph glyph-name="uni06CA.fina" unicode="&#x6ca;" horiz-adv-x="800" 
d="M711 236h119v-236h-132q-1 -3 -2 -8l-8 -22q-26 -68 -70 -128.5t-100.5 -113t-118 -95.5t-122.5 -75.5t-114 -53.5l-160 125q130 64 230 129t167 125.5t102 112.5l3 4q-38 1 -82.5 5t-83 14.5t-68.5 34t-49 63.5t-19 99q0 23 6 57t17.5 71.5t30 75t43.5 67.5t57 48.5
t71 18.5q78 0 133.5 -37t90.5 -98t51 -138q5 -24 8 -45zM547 233q-2 23 -13 46t-27 41.5t-36.5 30t-41.5 11.5q-19 0 -34 -9.5t-25.5 -22t-16.5 -26.5t-6 -23q0 -29 21.5 -42.5t52.5 -16.5q13 -1 27 -1q19 0 39 2q34 4 60 10zM293 899l133 -88l78 105l156 -105l-107 -139
l-133 88l-72 -104l-155 104z" />
    <glyph glyph-name="uni06CD.fina" unicode="&#x6cd;" horiz-adv-x="1474" 
d="M611 184q-9 -15 -20.5 -43t-21 -59t-16 -61.5t-6.5 -51.5q0 -122 83.5 -188t254.5 -66h70q42 0 89.5 4t97 13.5t93.5 27.5q34 14 35 26q0 12 -31 15q-14 2 -44.5 3.5t-67.5 6t-76 13t-71.5 25t-53 42t-20.5 64.5q0 64 41.5 115.5t110 88.5t155.5 57t178 20h113v-236h-58
q-24 0 -53 2t-57.5 4.5t-55.5 5t-47 4.5q-22 2 -41 2q-30 0 -50 -4q-33 -7 -43 -17q-6 -5 -6 -10t5 -10q9 -10 35 -14q34 -6 71 -9.5t73 -9t68.5 -14t57.5 -23t39.5 -37t14.5 -56.5q0 -44 -37.5 -102t-111.5 -110t-183 -88t-252 -36q-101 0 -178.5 18t-134.5 49t-95 73
t-61.5 91t-33 102.5t-9.5 106.5q0 21 3 45q-27 -16 -52 -30q-53 -29 -99 -47l-139 109q113 55 199.5 111.5t144.5 108.5q15 14 29 27z" />
    <glyph glyph-name="uni06CE.init" unicode="&#x6ce;" horiz-adv-x="597" 
d="M517 328q0 -56 -16 -114t-56.5 -105.5t-109 -78t-174.5 -30.5h-190v236h290q51 0 75 11.5t29 31.5q1 5 1 10q0 16 -10 35q-13 26 -36 55l-69 88l131 188q16 -15 39 -43.5t44.5 -69.5t36.5 -94.5t15 -119.5zM407 -395l-138 96l-80 -113l-172 117l111 150l143 -99l80 111
l166 -115zM425 1009q-17 -12 -41.5 -38t-47 -61.5t-38.5 -78.5t-16 -89h-70q0 46 -17 89t-40 78.5t-47 61t-39 36.5l35 79q28 -26 50 -50.5t39 -50.5t30 -55.5t24 -64.5q22 70 58.5 128.5t82.5 93.5q5 -6 11 -19l12 -26q7 -15 14 -33z" />
    <glyph glyph-name="uni06CE.medi" unicode="&#x6ce;" horiz-adv-x="684" 
d="M638 0q-32 0 -61.5 7.5t-54.5 21.5t-43.5 33.5t-28.5 43.5q-37 -51 -96 -78.5t-144 -27.5h-240v236h232q21 0 47.5 3t50.5 13.5t40 31.5t16 58v80l168 55v-51q0 -99 31.5 -144.5t91.5 -45.5h67v-236h-76zM405 -395l-138 96l-80 -113l-172 117l111 150l143 -99l80 111
l166 -115zM459 868q-17 -12 -41.5 -38t-47 -61.5t-38.5 -78.5t-16 -89h-70q0 46 -17 89t-40 78.5t-47 61t-39 36.5l35 79q28 -26 50 -50.5t39 -50.5t30 -55.5t24 -64.5q22 70 58.5 128.5t82.5 93.5q5 -6 11 -19l12 -26q7 -15 14 -33z" />
    <glyph glyph-name="uni06CE.fina" unicode="&#x6ce;" horiz-adv-x="1201" 
d="M1173 0q-24 0 -53 2t-57.5 4.5t-55.5 5t-47 4.5q-22 2 -41 2q-30 0 -50 -4q-33 -7 -43 -17q-6 -5 -6 -10t5 -10q9 -10 35 -14q34 -6 71 -9.5t73 -9t68.5 -14t57.5 -23t39.5 -37t14.5 -56.5q0 -44 -37.5 -102t-111.5 -110t-183 -88t-252 -36q-101 0 -178.5 18t-134.5 49
t-95 73t-61.5 91t-33 102.5t-9.5 106.5q0 31 6 70t18 81.5t29 86t39 82.5l158 -54q-9 -15 -20.5 -43t-21 -59t-16 -61.5t-6.5 -51.5q0 -122 83.5 -188t254.5 -66h70q42 0 89.5 4t97 13.5t93.5 27.5q34 14 35 26q0 12 -31 15q-14 2 -44.5 3.5t-67.5 6t-76 13t-71.5 25t-53 42
t-20.5 64.5q0 64 41.5 115.5t110 88.5t155.5 57t178 20h113v-236h-58zM560 602q-17 -12 -41.5 -38t-47 -61.5t-38.5 -78.5t-16 -89h-70q0 46 -17 89t-40 78.5t-47 61t-39 36.5l35 79q28 -26 50 -50.5t39 -50.5t30 -55.5t24 -64.5q22 70 58.5 128.5t82.5 93.5q5 -6 11 -19
l12 -26q7 -15 14 -33z" />
    <glyph glyph-name="uni06CF.fina" unicode="&#x6cf;" horiz-adv-x="800" 
d="M711 236h119v-236h-132q-1 -3 -2 -8l-8 -22q-26 -68 -70 -128.5t-100.5 -113t-118 -95.5t-122.5 -75.5t-114 -53.5l-160 125q130 64 230 129t167 125.5t102 112.5l3 4q-38 1 -82.5 5t-83 14.5t-68.5 34t-49 63.5t-19 99q0 23 6 57t17.5 71.5t30 75t43.5 67.5t57 48.5
t71 18.5q78 0 133.5 -37t90.5 -98t51 -138q5 -24 8 -45zM547 233q-2 23 -13 46t-27 41.5t-36.5 30t-41.5 11.5q-19 0 -34 -9.5t-25.5 -22t-16.5 -26.5t-6 -23q0 -29 21.5 -42.5t52.5 -16.5q13 -1 27 -1q19 0 39 2q34 4 60 10zM438 664l-180 121l133 178l181 -123z" />
    <glyph glyph-name="uni06D1.init" unicode="&#x6d1;" horiz-adv-x="596" 
d="M398 -365l-133 89l-78 -105l-155 105l106 139l133 -88l72 104l158 -104zM321 -588l-144 99l101 135l145 -99zM516 328q0 -56 -16 -114t-56.5 -105.5t-109 -78t-174.5 -30.5h-190v236h290q51 0 75 11.5t29 31.5q1 5 1 10q0 16 -10 35q-13 26 -36 55l-69 88l131 188
q16 -15 39 -43.5t44.5 -69.5t36.5 -94.5t15 -119.5z" />
    <glyph glyph-name="uni06D1.medi" unicode="&#x6d1;" horiz-adv-x="684" 
d="M399 -365l-133 89l-78 -105l-155 105l106 139l133 -88l72 104l158 -104zM322 -588l-144 99l101 135l145 -99zM638 0q-32 0 -61.5 7.5t-54.5 21.5t-43.5 33.5t-28.5 43.5q-37 -51 -96 -78.5t-144 -27.5h-240v236h232q21 0 47.5 3t50.5 13.5t40 31.5t16 58v80l168 55v-51
q0 -99 31.5 -144.5t91.5 -45.5h67v-236h-76z" />
    <glyph glyph-name="uni06D1.fina" unicode="&#x6d1;" horiz-adv-x="1201" 
d="M1173 0q-24 0 -53 2t-57.5 4.5t-55.5 5t-47 4.5q-22 2 -41 2q-30 0 -50 -4q-33 -7 -43 -17q-6 -5 -6 -10t5 -10q9 -10 35 -14q34 -6 71 -9.5t73 -9t68.5 -14t57.5 -23t39.5 -37t14.5 -56.5q0 -44 -37.5 -102t-111.5 -110t-183 -88t-252 -36q-101 0 -178.5 18t-134.5 49
t-95 73t-61.5 91t-33 102.5t-9.5 106.5q0 31 6 70t18 81.5t29 86t39 82.5l158 -54q-9 -15 -20.5 -43t-21 -59t-16 -61.5t-6.5 -51.5q0 -122 83.5 -188t254.5 -66h70q42 0 89.5 4t97 13.5t93.5 27.5q34 14 35 26q0 12 -31 15q-14 2 -44.5 3.5t-67.5 6t-76 13t-71.5 25t-53 42
t-20.5 64.5q0 64 41.5 115.5t110 88.5t155.5 57t178 20h113v-236h-58zM738 -868l-133 89l-78 -105l-155 105l106 139l133 -88l72 104l158 -104zM661 -1091l-144 99l101 135l145 -99z" />
    <glyph glyph-name="uni06D5.fina" unicode="&#x6d5;" horiz-adv-x="854" 
d="M755 0q-63 1 -102.5 17.5t-64.5 43.5t-38.5 62t-23.5 74q-18 -18 -47 -31.5t-63 -22.5t-68 -13.5t-62 -4.5q-32 0 -66.5 7.5t-63 26t-46.5 49.5t-18 77q0 41 14.5 80t37.5 75t53 68.5t61 59.5q73 64 166 118l-21 88l150 154l110 -545q11 -52 24.5 -81.5t31.5 -44
t42.5 -18t57.5 -3.5h65v-236h-129zM456 520q-18 -5 -48 -19.5t-59 -35t-50 -45.5t-21 -51q0 -10 13.5 -16.5t34 -9t45.5 -2.5t48.5 3.5t42.5 9t27 13.5z" />
    <glyph glyph-name="uni06EE.fina" unicode="&#x6ee;" horiz-adv-x="1037" 
d="M997 0q-42 0 -83.5 10t-79.5 30.5t-69.5 51t-52.5 72.5q-17 -39 -41.5 -73.5t-62.5 -60.5t-93 -41.5t-132 -15.5q-69 0 -117.5 11t-82 27.5t-54.5 35.5t-35 35l72 188q24 -19 47.5 -31.5t50.5 -19.5t61 -9.5t80 -2.5q51 0 99 6.5t81.5 23t48.5 44.5q8 14 8 33q0 17 -7 38
l-136 389l162 148l135 -434q22 -69 43 -112t44 -67t50 -32t60 -8h74v-236h-70zM675 1001l-12 -26t-11 -19q-46 35 -82.5 93.5t-58.5 128.5q-11 -35 -24 -64.5t-30 -55.5t-39 -50.5t-50 -50.5l-35 79q15 11 39 36.5t47 61t40 78.5t17 89h70q0 -46 16 -89t38.5 -78.5t47 -61.5
t41.5 -38q-7 -18 -14 -33z" />
    <glyph glyph-name="uni06EF.fina" unicode="&#x6ef;" horiz-adv-x="832" 
d="M487.5 -25q25.5 35 30.5 70q1 10 1 20q0 23 -8 43q-11 28 -27.5 55.5t-35.5 52.5t-34 46l160 172q34 -56 60 -94t51.5 -61t54 -33t67.5 -10h55v-236h-65q-35 0 -66.5 11t-48.5 28q-7 -79 -47 -156.5t-113 -148.5l-5 -5q-57 -53 -118.5 -96t-122.5 -75.5t-114 -53.5
l-160 125q130 64 230 129t167 126q25 22 44 39t44.5 52zM595 655l-12 -26t-11 -19q-46 35 -82.5 93.5t-58.5 128.5q-11 -35 -24 -64.5t-30 -55.5t-39 -50.5t-50 -50.5l-35 79q15 11 39 36.5t47 61t40 78.5t17 89h70q0 -46 16 -89t38.5 -78.5t47 -61.5t41.5 -38
q-7 -18 -14 -33z" />
    <glyph glyph-name="uni06FA.init" unicode="&#x6fa;" horiz-adv-x="1197" 
d="M1119 332q0 -60 -18 -119.5t-51 -107.5t-80 -77.5t-105 -29.5q-89 0 -144.5 31t-84.5 77q-12 -20 -28 -39t-37 -34t-48.5 -24t-62.5 -9q-71 0 -124 29t-81 77q-12 -21 -34.5 -40t-52 -33.5t-64.5 -23.5t-72 -9h-62v236h82q25 0 48 7.5t41 22.5t29 37.5t11 52.5v60l144 47
v-64q0 -35 7.5 -65t21.5 -52t33.5 -34t43.5 -12q12 0 35.5 0.5t47.5 12t42 38t18 78.5v79l146 43v-100q0 -35 10 -64t29 -50t45.5 -32.5t58.5 -11.5q47 0 67.5 24t20.5 58q0 15 -6.5 35t-16 40t-22 37.5t-24.5 29.5l143 159q43 -48 68.5 -121t25.5 -159zM486 915l134 -90
l77 105l158 -105l-106 -137l-134 86l-73 -102l-156 102zM566 1139l144 -99l-101 -135l-147 96zM627 -469l-181 121l131 178l181 -123z" />
    <glyph glyph-name="uni06FA.medi" unicode="&#x6fa;" horiz-adv-x="1212" 
d="M1179 0q-45 0 -75.5 8t-52 22t-37 33.5t-30.5 42.5q-31 -51 -77.5 -78.5t-106.5 -27.5t-101.5 29t-66.5 77q-34 -43 -83 -74.5t-112 -31.5q-60 0 -104 29t-66 77q-28 -43 -75 -74.5t-117 -31.5h-105v236h109q27 0 44 8.5t26 22.5t12.5 32t3.5 37v76l145 49v-68
q0 -45 8.5 -75.5t25.5 -48.5t41 -25.5t56 -7.5q45 0 77 25t32 75v76l141 49v-68q0 -44 8 -74t23 -48.5t35.5 -26.5t46.5 -8q22 0 45 5t41.5 16.5t30.5 30.5t12 48v76l143 49v-134q0 -29 9.5 -49.5t32.5 -31t69 -10.5h55v-236h-63zM458 877l133 -89l78 103l155 -103
l-104 -139l-133 88l-74 -104l-156 104zM536 1100l145 -99l-100 -135l-148 97zM627 -469l-181 121l131 178l181 -123z" />
    <glyph glyph-name="uni06FA.fina" unicode="&#x6fa;" horiz-adv-x="1975" 
d="M1938 0q-45 0 -75.5 8t-53 22t-38 33.5t-30.5 42.5q-29 -51 -76.5 -78.5t-105.5 -27.5q-60 0 -102 29t-68 77q-32 -43 -80.5 -74.5t-108.5 -31.5q-30 0 -50 3t-33.5 8.5t-22 13.5t-15.5 18q0 -114 -37 -216.5t-106.5 -180t-170.5 -123t-228 -45.5q-133 0 -221.5 42.5
t-141 109.5t-74.5 149.5t-22 163.5q0 31 5.5 70t16.5 81t26.5 85t35.5 83l156 -55q-6 -13 -15.5 -39.5t-18.5 -58t-15.5 -64t-6.5 -57.5q0 -62 18.5 -113t55.5 -87t92 -55.5t129 -19.5q80 0 143.5 24.5t107.5 66.5t67.5 97.5t23.5 118.5q0 36 -8.5 73.5t-23 72.5t-32.5 66.5
t-36 56.5l176 166q15 -29 40 -66.5t55.5 -71.5t64 -57.5t65.5 -23.5q44 0 75.5 25t31.5 75v76l143 49v-68q0 -44 8 -74t22.5 -48.5t35.5 -26.5t47 -8q22 0 44.5 5t41 16.5t30 30.5t11.5 48v76l145 49v-134q0 -29 9.5 -49.5t32.5 -31t69 -10.5h59v-236h-67zM1237 870l133 -88
l78 105l158 -105l-107 -139l-133 88l-74 -104l-155 104zM1317 1094l143 -99l-100 -135l-147 96zM1377 -469l-181 121l131 178l181 -123z" />
    <glyph glyph-name="uni06FB.init" unicode="&#x6fb;" horiz-adv-x="1361" 
d="M1283 438q0 -91 -43 -171t-120.5 -139t-185 -93.5t-237.5 -34.5h-202q-78 0 -136.5 19t-95.5 73q-62 -92 -192 -92h-101v236h76q68 0 98.5 25.5t30.5 90.5v70l158 45v-84q0 -48 6 -77t17 -44t27 -19.5t36 -4.5q25 0 49 18.5t47 46.5q10 12 36.5 45.5t65 76t87 88.5
t101.5 84.5t109 63.5t109 25t100 -17t82.5 -48.5t56.5 -78t21 -104.5zM1119 379q0 35 -38.5 59.5t-104.5 24.5q-36 0 -71.5 -13t-68.5 -33t-63.5 -45.5t-56.5 -50t-46.5 -46.5t-33.5 -35h100q76 0 145.5 10.5t122 29.5t84 44.5t31.5 54.5zM865 815l-180 121l133 176
l180 -121zM866 -469l-181 121l131 178l181 -123z" />
    <glyph glyph-name="uni06FB.medi" unicode="&#x6fb;" horiz-adv-x="1364" 
d="M1336 0q-29 0 -59.5 4.5t-60.5 17t-59 34t-54 55.5q-39 -32 -85 -53t-95.5 -34t-100.5 -18.5t-100 -5.5h-229q-78 0 -136.5 19t-93.5 73q-62 -92 -192 -92h-101v236h76q68 0 98.5 25.5t30.5 90.5v70l158 45v-84q0 -48 6 -77t17 -44t27 -19.5t36 -4.5q25 0 47.5 19.5
t44.5 45.5q10 12 36.5 45.5t65.5 76t87.5 88.5t102 84.5t109.5 63.5t109 25t100 -17t82.5 -48.5t56.5 -78t21 -104.5q0 -107 -47 -184q4 -9 15 -12.5t27 -4.5q12 -2 26 -2q4 0 9 1h83v-236h-58zM1115 379q0 35 -38.5 59.5t-104.5 24.5q-35 0 -70.5 -13t-68.5 -33t-63 -45.5
t-55.5 -50t-45.5 -46.5t-33 -35h98q76 0 145 10.5t121.5 29.5t83.5 44.5t31 54.5zM865 815l-180 121l133 176l180 -121zM866 -469l-181 121l131 178l181 -123z" />
    <glyph glyph-name="uni06FB.fina" unicode="&#x6fb;" horiz-adv-x="2098" 
d="M2070 0q-30 0 -61 4.5t-61.5 17t-59.5 34t-55 55.5q-38 -32 -84 -53t-95.5 -34t-100.5 -18.5t-99 -5.5h-141q-4 0 -20.5 1t-39 2.5t-48 5t-49 8t-42 11t-25.5 15.5q0 -114 -37 -216.5t-106.5 -180t-170.5 -123t-228 -45.5q-133 0 -221.5 42.5t-141 109.5t-74.5 149.5
t-22 163.5q0 31 5.5 70t16.5 81t26.5 85t35.5 83l156 -55q-6 -13 -15.5 -39.5t-18.5 -58t-15.5 -64t-6.5 -57.5q0 -62 18.5 -113t55.5 -87t92 -55.5t129 -19.5q80 0 143.5 24.5t107.5 66.5t67.5 97.5t23.5 118.5q0 36 -8.5 73.5t-23 72.5t-32.5 66.5t-36 56.5l176 166
q7 -18 22.5 -53.5t38 -71.5t50 -63t57.5 -27q17 0 27 2.5t18 9t18 19t27 32.5q16 20 45.5 56t68.5 78.5t85.5 87t97.5 80t104.5 58.5t106.5 23q54 0 101.5 -17t83 -48.5t56.5 -78t21 -104.5q0 -107 -47 -184q8 -14 35.5 -16t81.5 -2h45v-236h-58zM1849 371q0 38 -38.5 63
t-106.5 25q-36 0 -71 -13t-68 -33.5t-63.5 -46t-56 -50t-46 -46t-33.5 -34.5h100q76 0 145.5 10.5t122 28.5t84 42.5t31.5 53.5zM1577 819l-180 121l131 176l180 -121zM1577 -469l-181 121l131 178l181 -123z" />
    <glyph glyph-name="uni06FC.init" unicode="&#x6fc;" horiz-adv-x="852" 
d="M802 309q-8 -58 -13 -104q-3 -20 -5 -38.5t-4 -32.5t-2 -23l-1 -9q-84 -19 -173.5 -37.5t-179 -32.5t-178 -23t-171.5 -9h-105v236h207q-8 18 -15.5 33t-14.5 34t-11 46.5t-4 70.5q0 27 8.5 58.5t25.5 63.5t42 62t57.5 53.5t72.5 37.5t87 14q37 0 76.5 -10.5t75.5 -27.5
t66 -40t48 -47l-61 -125q-30 16 -58.5 25.5t-53.5 14t-45.5 6t-33.5 1.5q-27 0 -56 -6.5t-52 -19t-38 -30t-15 -38.5q0 -29 21 -56t53.5 -48t72.5 -33q34 -11 66 -11h10q42 1 94 8t98 15q54 10 109 22zM415 856l-180 121l131 176l180 -121zM416 -469l-181 121l131 178
l181 -123z" />
    <glyph glyph-name="uni06FC.medi" unicode="&#x6fc;" horiz-adv-x="778" 
d="M646 0q-57 0 -97.5 11.5t-70 31t-50.5 44.5t-38 52q-39 -29 -81.5 -54.5t-89.5 -44.5t-98 -29.5t-106 -10.5h-45v236h54q115 0 182 23.5t86 55.5q0 10 -10 21.5t-30.5 21.5t-50.5 16.5t-69 6.5v27q0 40 16 84t53.5 80t99 59.5t151.5 23.5q46 0 85.5 -10.5t68.5 -30
t46 -47.5t17 -63q0 -61 -17 -101t-40.5 -66.5t-48.5 -43t-42 -31.5q16 -23 55.5 -24.5t92.5 -1.5h139v-236h-162zM443 827l-180 121l131 176l180 -120zM444 -469l-181 121l131 178l181 -123z" />
    <glyph glyph-name="uni06FC.fina" unicode="&#x6fc;" horiz-adv-x="1000" 
d="M1030 -696q-42 -12 -91.5 -21t-103 -14.5t-107.5 -5.5q-164 0 -285 36t-200.5 102t-118.5 159.5t-39 208.5q0 83 22 154.5t57 131t77.5 107t83.5 84.5t76 63t55 41q0 22 -39.5 37.5t-122.5 15.5v31q0 42 17 88t57.5 84.5t106 63t163.5 24.5q46 0 86.5 -12.5t70.5 -32.5
t47 -47t17 -55q0 -61 -14 -103t-36 -71.5t-49 -49.5t-53 -38q8 -18 23 -27.5t35 -14.5t44.5 -6t51.5 -1h166v-236h-217q-59 0 -103 17.5t-75.5 44t-51.5 56.5t-30 56q-56 -30 -106 -74.5t-87 -97t-58.5 -109t-21.5 -110.5t25.5 -106t82.5 -92t149.5 -64.5t226.5 -24.5
q83 0 151 10q46 7 85 17l72 -207q-18 -6 -39 -12zM585 827l-181 121l133 176l181 -120zM629 -379l-180 120l133 177l180 -121z" />
    <glyph glyph-name="uni06FF.init" unicode="&#x6ff;" horiz-adv-x="897" 
d="M822 207q0 -69 -13.5 -121t-38 -87.5t-58.5 -53t-76 -17.5q-25 0 -59.5 12.5t-72 29.5t-73.5 36t-63 31q-22 -15 -53 -22.5t-67 -10.5t-74.5 -3.5t-74.5 -0.5h-129v236h138q-7 4 -16 19.5t-14 40.5q-5 21 -5 48v10q1 32 15.5 70.5t45.5 81.5t84 88l-43 29l98 211
q50 -33 110.5 -78t121.5 -97t118 -109.5t101.5 -116.5t71 -116.5t26.5 -109.5zM679 180q-1 15 -12 37t-27.5 45.5t-36 44.5t-37.5 35q1 -8 1 -17q0 -14 -2 -28q-5 -24 -14.5 -45.5t-22.5 -39t-27 -24.5q6 -8 25.5 -21.5t42.5 -26.5t43 -22t28 -9q19 0 31 17q9 13 9 40
q0 6 -1 14zM423 387q0 16 -8.5 33t-22 30.5t-30.5 22t-35 8.5t-37 -12t-35 -29t-26.5 -36t-10.5 -33q0 -17 8 -34t21.5 -30.5t31.5 -22t37 -8.5q24 0 43.5 9t34 24.5t22 35.5t7.5 42zM439 946l-12 -26t-11 -19q-46 35 -82.5 93.5t-58.5 128.5q-11 -35 -24 -64.5t-30 -55.5
t-39 -50.5t-50 -50.5l-35 79q15 11 39 36.5t47 61t40 78.5t17 89h70q0 -46 16 -89t38.5 -78.5t47 -61.5t41.5 -38q-7 -18 -14 -33z" />
    <glyph glyph-name="uni06FF.medi" unicode="&#x6ff;" horiz-adv-x="788" 
d="M687 0q-55 0 -88 -24.5t-39 -57.5q-2 -8 -2 -16q0 -25 16 -51q21 -34 74 -54q-5 -27 -12 -66t-12 -75q-7 -42 -13 -88q-84 15 -150 45t-116 68.5t-85 82.5t-58 87t-36 82t-17 67h-179v236h162q0 90 23.5 175.5t58.5 151.5t74 106t71 40q21 0 52.5 -32t61 -84.5t50.5 -120
t21 -138.5q0 -56 -19.5 -113.5t-51 -104.5t-71.5 -78.5t-81 -35.5q6 -20 18.5 -39.5t28.5 -35.5t33.5 -27.5t33.5 -14.5q-4 9 -4 31v10q1 30 10 69t28.5 81.5t51.5 78t78 58.5t109 23h110v-236h-131zM415 326q0 33 -9.5 62.5t-22.5 51t-25.5 34.5t-18.5 13t-18.5 -18.5
t-25.5 -51t-22.5 -75.5t-9.5 -92q5 -1 11 -1q14 0 32 4q26 4 50 14t41.5 25t17.5 34zM508 836l-12 -26t-11 -19q-46 35 -82.5 93.5t-58.5 128.5q-11 -35 -24 -64.5t-30 -55.5t-39 -50.5t-50 -50.5l-35 79q15 11 39 36.5t47 61t40 78.5t17 89h70q0 -46 16 -89t38.5 -78.5
t47 -61.5t41.5 -38q-7 -18 -14 -33z" />
    <glyph glyph-name="uni06FF.fina" unicode="&#x6ff;" horiz-adv-x="976" 
d="M512 201q36 32 52 48.5t27.5 37t11.5 39.5q0 33 -9.5 62.5t-22.5 51t-25.5 34.5t-18.5 13t-18.5 -18.5t-27.5 -53t-23 -71.5t-10 -81v-13q0 -39 10 -89q34 22 54 40zM517 -18q4 -10 11 -19q12 -20 28 -36t33.5 -27.5t33.5 -14.5q-4 9 -4 31v10q1 30 10 69t28.5 81.5
t51.5 78t78 58.5t109 23h110v-236h-131q-55 0 -88 -24.5t-39 -57.5q-2 -8 -2 -16q0 -25 16 -51q21 -34 74 -54q-5 -27 -12 -66t-12 -75q-7 -42 -13 -88q-84 15 -150 45t-116 68.5t-85 82.5t-58 87q-8 16 -15 31q-26 -16 -52 -29q-61 -33 -114 -54l-160 125q130 64 219 120
q33 20 63 41l-11 151q0 90 23.5 175.5t58.5 151.5t74 106t71 40q21 0 52.5 -32t61 -84.5t50.5 -120t21 -138.5q0 -56 -19.5 -113.5t-51 -104.5t-71.5 -78q-8 -7 -22 -18t-25 -19t-26 -19zM692 836l-12 -26t-11 -19q-46 35 -82.5 93.5t-58.5 128.5q-11 -35 -24 -64.5
t-30 -55.5t-39 -50.5t-50 -50.5l-35 79q15 11 39 36.5t47 61t40 78.5t17 89h70q0 -46 16 -89t38.5 -78.5t47 -61.5t41.5 -38q-7 -18 -14 -33z" />
    <glyph glyph-name="uniFB50" unicode="&#x671;" horiz-adv-x="622" arabic-form="isolated" 
d="M572 1473q0 -47 -22.5 -79t-59 -52t-81.5 -28.5t-90 -8.5q-42 0 -67 6t-42 13t-30 13t-31 6q-8 0 -20.5 -6t-25.5 -14q-15 -9 -32 -20l-47 57q24 30 50 46.5t52 22.5q18 4 34 4h14q22 -3 38 -10q15 16 42 43t61.5 53t73.5 45t79 19q28 0 48 -10t32.5 -26t18 -35.5
t5.5 -38.5zM519 1462q0 11 -7.5 18t-19 11.5t-25.5 6t-28 1.5q-18 0 -41 -8t-46.5 -20t-46 -26t-40.5 -26q29 -4 73 -5h15q35 0 69 4q40 4 68.5 14.5t28.5 29.5zM232 -29l-57 1180l209 82v-1206z" />
    <glyph glyph-name="uniFB51" unicode="&#x671;" horiz-adv-x="590" arabic-form="final" 
d="M552 0q-78 0 -132.5 17t-91 47.5t-58 72.5t-33 91.5t-15.5 105t-6 112.5l-22 705l204 82v-813q0 -100 38 -142t110 -42h74v-236h-68zM572 1473q0 -47 -22.5 -79t-59 -52t-81.5 -28.5t-90 -8.5q-42 0 -67 6t-42 13t-30 13t-31 6q-8 0 -20.5 -6t-25.5 -14q-15 -9 -32 -20
l-47 57q24 30 50 46.5t52 22.5q18 4 34 4h14q22 -3 38 -10q15 16 42 43t61.5 53t73.5 45t79 19q28 0 48 -10t32.5 -26t18 -35.5t5.5 -38.5zM519 1462q0 11 -7.5 18t-19 11.5t-25.5 6t-28 1.5q-18 0 -41 -8t-46.5 -20t-46 -26t-40.5 -26q29 -4 73 -5h15q35 0 69 4
q40 4 68.5 14.5t28.5 29.5z" />
    <glyph glyph-name="uniFB52" unicode="&#x67b;" horiz-adv-x="1665" arabic-form="isolated" 
d="M1585 371q0 -85 -33.5 -149.5t-94 -112t-144 -79t-182.5 -50.5t-210.5 -27t-228.5 -8q-302 0 -447 84t-145 264q0 59 22 125.5t54 132.5l151 -47q-12 -26 -22 -52q-8 -22 -14.5 -45t-6.5 -40q0 -22 4 -44.5t18.5 -43t42 -39t74.5 -32t115.5 -21t165.5 -7.5h123
q78 0 152.5 7t140.5 19t121.5 27.5t96 32.5t63 34t22.5 32q0 18 -12 41t-28.5 45.5t-34 43t-28.5 34.5l132 190q15 -15 38 -41.5t44 -65t36 -90t15 -118.5zM886 -392l-118 101l117 135l133 -114l-115 -130l123 -102l-112 -136l-138 115z" />
    <glyph glyph-name="uniFB53" unicode="&#x67b;" horiz-adv-x="1667" arabic-form="final" 
d="M1628 0q-43 0 -76.5 9t-59 25t-43.5 37.5t-30 47.5q-30 -40 -93.5 -72.5t-156.5 -55.5t-213 -35.5t-264 -12.5q-302 0 -447 84t-145 264q0 59 22 125.5t54 132.5l151 -47q-12 -26 -22 -52q-8 -22 -14.5 -45.5t-6.5 -39.5q0 -22 4 -44.5t18.5 -43.5t42 -39t74.5 -31.5
t115.5 -21t165.5 -7.5h88q126 0 216.5 7t152 19t98 28t55.5 34.5t25 37.5t6 38v51l166 56v-48q0 -47 6.5 -78.5t23.5 -51t47 -27.5t77 -8h32v-236h-69zM846 -392l-118 101l117 135l133 -114l-115 -130l123 -102l-112 -136l-138 115z" />
    <glyph glyph-name="uniFB54" unicode="&#x67b;" horiz-adv-x="466" arabic-form="initial" 
d="M386 328q0 -56 -16 -114t-56.5 -105.5t-109 -78t-174.5 -30.5h-60v236h160q51 0 75 11.5t29 31.5q1 5 1 10q0 16 -10 35q-13 26 -36 55l-69 88l131 188q16 -15 39 -43.5t44.5 -69.5t36.5 -94.5t15 -119.5zM167 -392l-118 101l117 135l133 -114l-115 -130l123 -102
l-112 -136l-138 115z" />
    <glyph glyph-name="uniFB55" unicode="&#x67b;" horiz-adv-x="534" arabic-form="medial" 
d="M488 0q-32 0 -61.5 7.5t-54.5 21.5t-43.5 33.5t-28.5 43.5q-37 -51 -96 -78.5t-144 -27.5h-90v236h82q21 0 47.5 3t50.5 13.5t40 31.5t16 58v80l168 55v-51q0 -99 31.5 -144.5t91.5 -45.5h67v-236h-76zM197 -392l-118 101l117 135l133 -114l-115 -130l123 -102l-112 -136
l-138 115z" />
    <glyph glyph-name="uniFB56" unicode="&#x67e;" horiz-adv-x="1665" arabic-form="isolated" 
d="M1585 371q0 -85 -33.5 -149.5t-94 -112t-144 -79t-182.5 -50.5t-210.5 -27t-228.5 -8q-302 0 -447 84t-145 264q0 59 22 125.5t54 132.5l151 -47q-12 -26 -22 -52q-8 -22 -14.5 -45t-6.5 -40q0 -22 4 -44.5t18.5 -43t42 -39t74.5 -32t115.5 -21t165.5 -7.5h123
q78 0 152.5 7t140.5 19t121.5 27.5t96 32.5t63 34t22.5 32q0 18 -12 41t-28.5 45.5t-34 43t-28.5 34.5l132 190q15 -15 38 -41.5t44 -65t36 -90t15 -118.5zM925 -399l-135 88l-76 -105l-157 105l106 139l133 -88l74 104l156 -104zM845 -623l-143 99l100 135l148 -98z" />
    <glyph glyph-name="uniFB57" unicode="&#x67e;" horiz-adv-x="1667" arabic-form="final" 
d="M1628 0q-43 0 -76.5 9t-59 25t-43.5 37.5t-30 47.5q-30 -40 -93.5 -72.5t-156.5 -55.5t-213 -35.5t-264 -12.5q-302 0 -447 84t-145 264q0 59 22 125.5t54 132.5l151 -47q-12 -26 -22 -52q-8 -22 -14.5 -45.5t-6.5 -39.5q0 -22 4 -44.5t18.5 -43.5t42 -39t74.5 -31.5
t115.5 -21t165.5 -7.5h88q126 0 216.5 7t152 19t98 28t55.5 34.5t25 37.5t6 38v51l166 56v-48q0 -47 6.5 -78.5t23.5 -51t47 -27.5t77 -8h32v-236h-69zM905 -399l-133 88l-78 -105l-156 105l107 139l133 -88l71 104l158 -104zM827 -623l-143 99l100 135l145 -98z" />
    <glyph glyph-name="uniFB58" unicode="&#x67e;" horiz-adv-x="596" arabic-form="initial" 
d="M398 -365l-133 89l-78 -105l-155 105l106 139l133 -88l72 104l158 -104zM321 -588l-144 99l101 135l145 -99zM516 328q0 -56 -16 -114t-56.5 -105.5t-109 -78t-174.5 -30.5h-190v236h290q51 0 75 11.5t29 31.5q1 5 1 10q0 16 -10 35q-13 26 -36 55l-69 88l131 188
q16 -15 39 -43.5t44.5 -69.5t36.5 -94.5t15 -119.5z" />
    <glyph glyph-name="uniFB59" unicode="&#x67e;" horiz-adv-x="684" arabic-form="medial" 
d="M399 -365l-133 89l-78 -105l-155 105l106 139l133 -88l72 104l158 -104zM322 -588l-144 99l101 135l145 -99zM638 0q-32 0 -61.5 7.5t-54.5 21.5t-43.5 33.5t-28.5 43.5q-37 -51 -96 -78.5t-144 -27.5h-240v236h232q21 0 47.5 3t50.5 13.5t40 31.5t16 58v80l168 55v-51
q0 -99 31.5 -144.5t91.5 -45.5h67v-236h-76z" />
    <glyph glyph-name="uniFB5A" unicode="&#x680;" horiz-adv-x="1665" arabic-form="isolated" 
d="M1585 371q0 -85 -33.5 -149.5t-94 -112t-144 -79t-182.5 -50.5t-210.5 -27t-228.5 -8q-302 0 -447 84t-145 264q0 59 22 125.5t54 132.5l151 -47q-12 -26 -22 -52q-8 -22 -14.5 -45t-6.5 -40q0 -22 4 -44.5t18.5 -43t42 -39t74.5 -32t115.5 -21t165.5 -7.5h123
q78 0 152.5 7t140.5 19t121.5 27.5t96 32.5t63 34t22.5 32q0 18 -12 41t-28.5 45.5t-34 43t-28.5 34.5l132 190q15 -15 38 -41.5t44 -65t36 -90t15 -118.5zM705 -414l-150 101l103 139l133 -88l76 104l157 -104l-103 -136l152 -101l-106 -140l-133 89l-74 -105l-156 105z
M913 -399l-128 86l-72 -102l127 -84z" />
    <glyph glyph-name="uniFB5B" unicode="&#x680;" horiz-adv-x="1667" arabic-form="final" 
d="M1628 0q-43 0 -76.5 9t-59 25t-43.5 37.5t-30 47.5q-30 -40 -93.5 -72.5t-156.5 -55.5t-213 -35.5t-264 -12.5q-302 0 -447 84t-145 264q0 59 22 125.5t54 132.5l151 -47q-12 -26 -22 -52q-8 -22 -14.5 -45.5t-6.5 -39.5q0 -22 4 -44.5t18.5 -43.5t42 -39t74.5 -31.5
t115.5 -21t165.5 -7.5h88q126 0 216.5 7t152 19t98 28t55.5 34.5t25 37.5t6 38v51l166 56v-48q0 -47 6.5 -78.5t23.5 -51t47 -27.5t77 -8h32v-236h-69zM690 -411l-150 101l103 139l133 -88l76 104l157 -104l-103 -136l152 -101l-106 -140l-133 89l-74 -105l-156 105z
M898 -396l-128 86l-72 -102l127 -84z" />
    <glyph glyph-name="uniFB5C" unicode="&#x680;" horiz-adv-x="596" arabic-form="initial" 
d="M516 328q0 -56 -16 -114t-56.5 -105.5t-109 -78t-174.5 -30.5h-190v236h290q51 0 75 11.5t29 31.5q1 5 1 10q0 16 -10 35q-13 26 -36 55l-69 88l131 188q16 -15 39 -43.5t44.5 -69.5t36.5 -94.5t15 -119.5zM180 -380l-150 101l103 139l133 -88l76 104l157 -104l-103 -136
l152 -101l-106 -140l-133 89l-74 -105l-156 105zM388 -365l-128 86l-72 -102l127 -84z" />
    <glyph glyph-name="uniFB5D" unicode="&#x680;" horiz-adv-x="684" arabic-form="medial" 
d="M638 0q-32 0 -61.5 7.5t-54.5 21.5t-43.5 33.5t-28.5 43.5q-37 -51 -96 -78.5t-144 -27.5h-240v236h232q21 0 47.5 3t50.5 13.5t40 31.5t16 58v80l168 55v-51q0 -99 31.5 -144.5t91.5 -45.5h67v-236h-76zM180 -380l-150 101l103 139l133 -88l76 104l157 -104l-103 -136
l152 -101l-106 -140l-133 89l-74 -105l-156 105zM388 -365l-128 86l-72 -102l127 -84z" />
    <glyph glyph-name="uniFB5E" unicode="&#x67a;" horiz-adv-x="1665" arabic-form="isolated" 
d="M1585 371q0 -85 -33.5 -149.5t-94 -112t-144 -79t-182.5 -50.5t-210.5 -27t-228.5 -8q-302 0 -447 84t-145 264q0 59 22 125.5t54 132.5l151 -47q-12 -26 -22 -52q-8 -22 -14.5 -45t-6.5 -40q0 -22 4 -44.5t18.5 -43t42 -39t74.5 -32t115.5 -21t165.5 -7.5h123
q78 0 152.5 7t140.5 19t121.5 27.5t96 32.5t63 34t22.5 32q0 18 -12 41t-28.5 45.5t-34 43t-28.5 34.5l132 190q15 -15 38 -41.5t44 -65t36 -90t15 -118.5zM817 795l-118 101l117 135l133 -114l-115 -130l123 -102l-112 -136l-138 115z" />
    <glyph glyph-name="uniFB5F" unicode="&#x67a;" horiz-adv-x="1667" arabic-form="final" 
d="M1628 0q-43 0 -76.5 9t-59 25t-43.5 37.5t-30 47.5q-30 -40 -93.5 -72.5t-156.5 -55.5t-213 -35.5t-264 -12.5q-302 0 -447 84t-145 264q0 59 22 125.5t54 132.5l151 -47q-12 -26 -22 -52q-8 -22 -14.5 -45.5t-6.5 -39.5q0 -22 4 -44.5t18.5 -43.5t42 -39t74.5 -31.5
t115.5 -21t165.5 -7.5h88q126 0 216.5 7t152 19t98 28t55.5 34.5t25 37.5t6 38v51l166 56v-48q0 -47 6.5 -78.5t23.5 -51t47 -27.5t77 -8h32v-236h-69zM817 795l-118 101l117 135l133 -114l-115 -130l123 -102l-112 -136l-138 115z" />
    <glyph glyph-name="uniFB60" unicode="&#x67a;" horiz-adv-x="466" arabic-form="initial" 
d="M386 328q0 -56 -16 -114t-56.5 -105.5t-109 -78t-174.5 -30.5h-60v236h160q51 0 75 11.5t29 31.5q1 5 1 10q0 16 -10 35q-13 26 -36 55l-69 88l131 188q16 -15 39 -43.5t44.5 -69.5t36.5 -94.5t15 -119.5zM213 1002l-118 101l117 135l133 -114l-115 -130l123 -102
l-112 -136l-138 115z" />
    <glyph glyph-name="uniFB61" unicode="&#x67a;" horiz-adv-x="534" arabic-form="medial" 
d="M488 0q-32 0 -61.5 7.5t-54.5 21.5t-43.5 33.5t-28.5 43.5q-37 -51 -96 -78.5t-144 -27.5h-90v236h82q21 0 47.5 3t50.5 13.5t40 31.5t16 58v80l168 55v-51q0 -99 31.5 -144.5t91.5 -45.5h67v-236h-76zM223 860l-118 101l117 135l133 -114l-115 -130l123 -102l-112 -136
l-138 115z" />
    <glyph glyph-name="uniFB62" unicode="&#x67f;" horiz-adv-x="1665" arabic-form="isolated" 
d="M1585 371q0 -85 -33.5 -149.5t-94 -112t-144 -79t-182.5 -50.5t-210.5 -27t-228.5 -8q-302 0 -447 84t-145 264q0 59 22 125.5t54 132.5l151 -47q-12 -26 -22 -52q-8 -22 -14.5 -45t-6.5 -40q0 -22 4 -44.5t18.5 -43t42 -39t74.5 -32t115.5 -21t165.5 -7.5h123
q78 0 152.5 7t140.5 19t121.5 27.5t96 32.5t63 34t22.5 32q0 18 -12 41t-28.5 45.5t-34 43t-28.5 34.5l132 190q15 -15 38 -41.5t44 -65t36 -90t15 -118.5zM688 798l-150 101l103 139l133 -88l76 104l157 -104l-103 -136l152 -101l-106 -140l-133 89l-74 -105l-156 105z
M896 813l-128 86l-72 -102l127 -84z" />
    <glyph glyph-name="uniFB63" unicode="&#x67f;" horiz-adv-x="1667" arabic-form="final" 
d="M1628 0q-43 0 -76.5 9t-59 25t-43.5 37.5t-30 47.5q-30 -40 -93.5 -72.5t-156.5 -55.5t-213 -35.5t-264 -12.5q-302 0 -447 84t-145 264q0 59 22 125.5t54 132.5l151 -47q-12 -26 -22 -52q-8 -22 -14.5 -45.5t-6.5 -39.5q0 -22 4 -44.5t18.5 -43.5t42 -39t74.5 -31.5
t115.5 -21t165.5 -7.5h88q126 0 216.5 7t152 19t98 28t55.5 34.5t25 37.5t6 38v51l166 56v-48q0 -47 6.5 -78.5t23.5 -51t47 -27.5t77 -8h32v-236h-69zM688 800l-150 101l103 139l133 -88l76 104l157 -104l-103 -136l152 -101l-106 -140l-133 89l-74 -105l-156 105zM896 815
l-128 86l-72 -102l127 -84z" />
    <glyph glyph-name="uniFB64" unicode="&#x67f;" horiz-adv-x="566" arabic-form="initial" 
d="M486 328q0 -56 -16 -114t-56.5 -105.5t-109 -78t-174.5 -30.5h-160v236h260q51 0 75 11.5t29 31.5q1 5 1 10q0 16 -10 35q-13 26 -36 55l-69 88l131 188q16 -15 39 -43.5t44.5 -69.5t36.5 -94.5t15 -119.5zM99 991l-150 101l103 139l133 -88l76 104l157 -104l-103 -136
l152 -101l-106 -140l-133 89l-74 -105l-156 105zM307 1006l-128 86l-72 -102l127 -84z" />
    <glyph glyph-name="uniFB65" unicode="&#x67f;" horiz-adv-x="644" arabic-form="medial" 
d="M598 0q-32 0 -61.5 7.5t-54.5 21.5t-43.5 33.5t-28.5 43.5q-37 -51 -96 -78.5t-144 -27.5h-200v236h192q21 0 47.5 3t50.5 13.5t40 31.5t16 58v80l168 55v-51q0 -99 31.5 -144.5t91.5 -45.5h67v-236h-76zM131 858l-150 101l103 139l133 -88l76 104l157 -104l-103 -136
l152 -101l-106 -140l-133 89l-74 -105l-156 105zM339 873l-128 86l-72 -102l127 -84z" />
    <glyph glyph-name="uniFB66" unicode="&#x679;" horiz-adv-x="1665" arabic-form="isolated" 
d="M1585 371q0 -85 -33.5 -149.5t-94 -112t-144 -79t-182.5 -50.5t-210.5 -27t-228.5 -8q-302 0 -447 84t-145 264q0 59 22 125.5t54 132.5l151 -47q-12 -26 -22 -52q-8 -22 -14.5 -45t-6.5 -40q0 -22 4 -44.5t18.5 -43t42 -39t74.5 -32t115.5 -21t165.5 -7.5h123
q78 0 152.5 7t140.5 19t121.5 27.5t96 32.5t63 34t22.5 32q0 18 -12 41t-28.5 45.5t-34 43t-28.5 34.5l132 190q15 -15 38 -41.5t44 -65t36 -90t15 -118.5zM1026 725q0 -44 -21 -75t-54 -51.5t-75 -30t-83 -9.5h-63q-45 0 -79.5 14t-49.5 35l29 58q13 -8 31 -12q12 -4 25 -4
h8q16 2 28 9.5t16 22.5t5 36.5t1 47.5q0 24 -1 51t-2 53q-4 61 -11 127l82 31v-263q24 21 55 37.5t60 16.5q41 0 70 -24.5t29 -69.5zM963 701q0 14 -15 23.5t-40 9.5q-20 0 -40.5 -10.5t-37.5 -24.5t-30.5 -28t-20.5 -22h36q30 0 56.5 4.5t46.5 11.5t32.5 16.5t12.5 19.5z
" />
    <glyph glyph-name="uniFB67" unicode="&#x679;" horiz-adv-x="1667" arabic-form="final" 
d="M1628 0q-43 0 -76.5 9t-59 25t-43.5 37.5t-30 47.5q-30 -40 -93.5 -72.5t-156.5 -55.5t-213 -35.5t-264 -12.5q-302 0 -447 84t-145 264q0 59 22 125.5t54 132.5l151 -47q-12 -26 -22 -52q-8 -22 -14.5 -45.5t-6.5 -39.5q0 -22 4 -44.5t18.5 -43.5t42 -39t74.5 -31.5
t115.5 -21t165.5 -7.5h88q126 0 216.5 7t152 19t98 28t55.5 34.5t25 37.5t6 38v51l166 56v-48q0 -47 6.5 -78.5t23.5 -51t47 -27.5t77 -8h32v-236h-69zM1026 725q0 -44 -21 -75t-54 -51.5t-75 -30t-83 -9.5h-63q-45 0 -79.5 14t-49.5 35l29 58q13 -8 31 -12q12 -4 25 -4h8
q16 2 28 9.5t16 22.5t5 36.5t1 47.5q0 24 -1 51t-2 53q-4 61 -11 127l82 31v-263q24 21 55 37.5t60 16.5q41 0 70 -24.5t29 -69.5zM963 701q0 14 -15 23.5t-40 9.5q-20 0 -40.5 -10.5t-37.5 -24.5t-30.5 -28t-20.5 -22h36q30 0 56.5 4.5t46.5 11.5t32.5 16.5t12.5 19.5z" />
    <glyph glyph-name="uniFB68" unicode="&#x679;" horiz-adv-x="566" arabic-form="initial" 
d="M486 328q0 -56 -16 -114t-56.5 -105.5t-109 -78t-174.5 -30.5h-160v236h260q51 0 75 11.5t29 31.5q1 5 1 10q0 16 -10 35q-13 26 -36 55l-69 88l131 188q16 -15 39 -43.5t44.5 -69.5t36.5 -94.5t15 -119.5zM444 916q0 -44 -21 -75t-54 -51.5t-75 -30t-83 -9.5h-63
q-45 0 -79.5 14t-49.5 35l29 58q13 -8 31 -12q12 -4 25 -4h8q16 2 28 9.5t16 22.5t5 36.5t1 47.5q0 24 -1 51t-2 53q-4 61 -11 127l82 31v-263q24 21 55 37.5t60 16.5q41 0 70 -24.5t29 -69.5zM381 892q0 14 -15 23.5t-40 9.5q-20 0 -40.5 -10.5t-37.5 -24.5t-30.5 -28
t-20.5 -22h36q30 0 56.5 4.5t46.5 11.5t32.5 16.5t12.5 19.5z" />
    <glyph glyph-name="uniFB69" unicode="&#x679;" horiz-adv-x="644" arabic-form="medial" 
d="M598 0q-32 0 -61.5 7.5t-54.5 21.5t-43.5 33.5t-28.5 43.5q-37 -51 -96 -78.5t-144 -27.5h-200v236h192q21 0 47.5 3t50.5 13.5t40 31.5t16 58v80l168 55v-51q0 -99 31.5 -144.5t91.5 -45.5h67v-236h-76zM466 782q0 -44 -21 -75t-54 -51.5t-75 -30t-83 -9.5h-63
q-45 0 -79.5 14t-49.5 35l29 58q13 -8 31 -12q12 -4 25 -4h8q16 2 28 9.5t16 22.5t5 36.5t1 47.5q0 24 -1 51t-2 53q-4 61 -11 127l82 31v-263q24 21 55 37.5t60 16.5q41 0 70 -24.5t29 -69.5zM403 758q0 14 -15 23.5t-40 9.5q-20 0 -40.5 -10.5t-37.5 -24.5t-30.5 -28
t-20.5 -22h36q30 0 56.5 4.5t46.5 11.5t32.5 16.5t12.5 19.5z" />
    <glyph glyph-name="uniFB6A" unicode="&#x6a4;" horiz-adv-x="1671" arabic-form="isolated" 
d="M1586 403q0 -93 -33.5 -163t-94 -121t-143.5 -84.5t-182 -53.5t-210.5 -28t-227.5 -8q-302 0 -448 84t-146 264q0 59 22 125.5t56 132.5l149 -47q-12 -26 -22 -52q-8 -22 -14.5 -45t-6.5 -40q0 -22 4 -44.5t18.5 -43t42 -39t74.5 -32t115.5 -21t165.5 -7.5h125
q78 0 154.5 6t145.5 18t128 29.5t101.5 40t65.5 49.5q21 25 21 53v5q-7 -8 -21 -16t-34 -14.5t-44.5 -10.5t-51.5 -4q-62 0 -100.5 19.5t-60 48t-29 60.5t-7.5 56q0 21 6.5 54t19.5 69t33 72.5t45.5 65.5t57.5 47t70 18q49 0 95 -34.5t82 -94.5t57.5 -141t21.5 -173z
M1399 553q-6 22 -17 41t-24 32.5t-26.5 21t-24.5 7.5q-12 0 -25.5 -8t-24 -19.5t-17.5 -24t-7 -21.5q0 -15 2.5 -28t10.5 -22.5t23.5 -15.5t41.5 -6q29 0 53 9t35 34zM1120 1176l133 -89l78 103l155 -103l-104 -139l-133 88l-74 -104l-156 104zM1198 1399l145 -99l-100 -135
l-148 97z" />
    <glyph glyph-name="uniFB6B" unicode="&#x6a4;" horiz-adv-x="1695" arabic-form="final" 
d="M1610 0q-31 0 -69.5 8.5t-76 21.5t-70 29.5t-50.5 32.5q-20 -15 -70 -40t-130.5 -49t-192 -41t-254.5 -17q-303 0 -449.5 84t-146.5 264q0 59 22 125.5t56 132.5l151 -47q-13 -26 -23 -52q-8 -22 -15 -45t-7 -40q0 -22 4 -44.5t18.5 -43t42.5 -39t75 -32t116 -21
t166 -7.5h88q72 0 135.5 5.5t113 14t83 18t45.5 18.5q-6 7 -13.5 20.5t-14 32t-11 41.5t-4.5 49q0 39 14 78t36.5 74.5t52.5 65.5t61.5 52t63 34.5t57.5 12.5q39 0 73 -22t59 -59t39.5 -86t14.5 -103q0 -31 -7.5 -60t-19.5 -54t-27.5 -44.5t-31.5 -31.5h211v-236h-115z
M1465 403q0 12 -6.5 25.5t-18 25t-28 18.5t-37.5 7q-18 0 -37 -8.5t-34.5 -21.5t-25.5 -29t-10 -31t10 -27.5t23.5 -22t28.5 -15t26 -5.5q15 0 34 8t35.5 20.5t28 27t11.5 28.5zM1227 1072l133 -89l78 103l155 -103l-104 -139l-133 88l-74 -104l-156 104zM1305 1295l145 -99
l-100 -135l-148 97z" />
    <glyph glyph-name="uniFB6C" unicode="&#x6a4;" horiz-adv-x="650" arabic-form="initial" 
d="M570 358q0 -82 -24 -148.5t-76.5 -113t-136 -71.5t-203.5 -25h-160v236h279q64 0 99 13.5t50.5 32t18 38.5t2.5 32q-6 -7 -20.5 -14.5t-35 -14t-45 -10.5t-51.5 -4q-62 0 -100 19.5t-59 47.5t-28 60t-7 58q0 22 6.5 54t19.5 68.5t32.5 72.5t45 65t57 47t68.5 18
q49 0 97 -37t86 -100.5t61.5 -147t23.5 -176.5zM372 526q-6 22 -17.5 40.5t-24.5 32.5t-27 22t-25 8t-23 -8t-22.5 -20t-17.5 -25t-7 -23q0 -14 2.5 -27t10 -23t22.5 -16t41 -6q29 0 53 10.5t35 34.5zM162 1190l133 -89l78 103l155 -103l-104 -139l-133 88l-74 -104
l-156 104zM240 1413l145 -99l-100 -135l-148 97z" />
    <glyph glyph-name="uniFB6D" unicode="&#x6a4;" horiz-adv-x="674" arabic-form="medial" 
d="M607 0q-45 0 -88 7.5t-80.5 19.5t-68 26.5t-49.5 28.5q-16 -12 -44.5 -26.5t-63 -27t-71 -20.5t-67.5 -8h-105v236h181q-13 14 -26 46.5t-13 82.5q0 60 29 117t72 102t91.5 72.5t87.5 27.5t72.5 -22t58 -59.5t38 -86t13.5 -102.5q0 -62 -24 -108t-55 -70h209v-236h-97z
M439 389q0 12 -5.5 26t-16.5 25.5t-27 19t-37 7.5q-18 0 -36.5 -8.5t-33 -22t-23.5 -30t-9 -31.5t9 -27.5t22 -22t27.5 -15t25.5 -5.5q15 0 33.5 8t34 20t26 27t10.5 29zM225 1060l133 -89l78 103l155 -103l-104 -139l-133 88l-74 -104l-156 104zM303 1283l145 -99
l-100 -135l-148 97z" />
    </font>
</defs>
</svg>
