<?xml version="1.0" standalone="no"?>
<!DOCTYPE svg PUBLIC "-//W3C//DTD SVG 1.1//EN" "http://www.w3.org/Graphics/SVG/1.1/DTD/svg11.dtd" >
<svg xmlns="http://www.w3.org/2000/svg" xmlns:xlink="http://www.w3.org/1999/xlink" version="1.1">
<metadata>
Created by FontForge 20170731 at Tue Oct 18 01:05:43 2016
 By Aleksey,,,
(c)  2014 Bahij Virtual Academy. All rights reserved.
</metadata>
<defs>
<font id="BahijKoufiya-Regular" horiz-adv-x="1024" >
  <font-face 
    font-family="Bahij Koufiya"
    font-weight="400"
    font-stretch="normal"
    units-per-em="2048"
    panose-1="2 4 5 3 5 2 1 2 2 3"
    ascent="1638"
    descent="-410"
    x-height="823"
    cap-height="1186"
    bbox="-278 -914 5049 2173"
    underline-thickness="50"
    underline-position="-175"
    unicode-range="U+0020-FEFC"
  />
<missing-glyph horiz-adv-x="728" 
d="M0 0v1020h728v-1020h-728zM117 947l247 -372l248 372h-495zM655 881l-247 -371l247 -372v743zM612 73l-248 371l-247 -371h495zM73 138l247 372l-247 371v-743z" />
    <glyph glyph-name="uniFB01" unicode="fi" horiz-adv-x="1006" 
d="M319 744v-584q0 -31 4.5 -49.5t17 -30t35 -18.5t58.5 -14q11 -2 14 -10t3 -17q0 -5 -2 -15q-1 -3 -1 -6h-402q-1 4 -1 7.5v6.5q0 17 5 25t11 9q43 7 68 16t37 24.5t15 39.5t3 60v556h-132l15 79h117v108q0 43 15 90.5t42.5 92.5t65.5 86t84 72t98.5 49t108.5 18
q39 0 71 -3.5t55 -12.5t35.5 -25.5t12.5 -42.5q0 -17 -6 -36.5t-12 -33.5q-24 9 -53.5 15t-59 10t-56 5.5t-45.5 1.5q-56 0 -97.5 -12t-69 -39.5t-41 -73.5t-13.5 -114v-155h507v-663q0 -31 5 -49t20.5 -29t44.5 -18t78 -16q11 -2 14 -10t3 -17q0 -5 -2 -15q-1 -3 -1 -6
h-408q-1 4 -1 7.5v6.5q0 17 5 24.5t11 9.5q33 6 52 15t29.5 25t13.5 40t3 60v556h-374z" />
    <glyph glyph-name="uniFB02" unicode="fl" horiz-adv-x="1011" 
d="M693 1217q-16 3 -36 5t-40 3t-38 1.5t-29 0.5q-56 0 -99.5 -13.5t-72.5 -43t-44 -77t-15 -115.5v-155h374v394zM826 160q0 -31 5 -49t20.5 -29t44.5 -18t78 -16q11 -2 14 -10t3 -17q0 -5 -2 -15q-1 -3 -1 -6h-408q-1 4 -1 7.5v6.5q0 17 5 24.5t11 9.5q33 6 52 15t29.5 25
t13.5 40t3 60v556h-374v-584q0 -31 4.5 -49.5t17 -30t35 -18.5t58.5 -14q11 -2 14 -10t3 -17q0 -5 -2 -15q-1 -3 -1 -6h-402q-1 4 -1 7.5v6.5q0 17 5 25t11 9q43 7 68 16t37 24.5t15 39.5t3 60v556h-132l15 79h117v108q0 43 16 90.5t44.5 92.5t67.5 86t86.5 72t100.5 49
t109 18q22 0 54 -4.5t63.5 -11.5t59 -14.5t41.5 -14.5v-1134z" />
    <glyph glyph-name="uniFC31" unicode="&#xfed3;&#xfef0;" horiz-adv-x="2277" arabic-form="isolated" 
d="M2033 232q0 33 -6.5 79.5t-19.5 95.5t-31 93.5t-42 73.5q-66 0 -112.5 -16.5t-76.5 -43.5t-43.5 -62t-13.5 -72q0 -121 86.5 -186.5t252.5 -65.5q3 20 4.5 47t1.5 57zM2013 968l-103 -102l-102 102l102 103zM1422 0q-69 0 -118 12.5t-83 26.5q-72 -182 -227 -282
t-393 -100q-161 0 -275 42.5t-186.5 111t-106 153.5t-33.5 170q0 57 13 107t32 87.5t40.5 59t39.5 21.5q11 0 18 -7q-10 -18 -18 -43t-14 -52t-9 -54.5t-3 -51.5q0 -89 37.5 -162t105.5 -125.5t163.5 -81.5t212.5 -29q122 0 211.5 25t147.5 62.5t86 81.5t28 82
q0 7 -3.5 20.5t-12.5 18.5q-21 12 -44 25t-42.5 26.5t-32 27t-12.5 25.5q0 33 9.5 66t25.5 57q106 -91 216.5 -135.5t207.5 -44.5h253q-11 10 -22.5 28t-21 41.5t-15.5 51.5t-6 58q0 68 25.5 135t78.5 120.5t136 87t199 35.5q21 -26 43 -70t39.5 -98t29 -114.5t11.5 -118.5
q0 -41 -7 -81.5t-18 -78.5t-25 -73t-28 -63h-653z" />
    <glyph glyph-name="uniFC32" unicode="&#xfed3;&#xfef2;" horiz-adv-x="2277" arabic-form="isolated" 
d="M773 -604l-103 -102l-89 88l-89 -88l-102 102l102 103l89 -90l89 90zM2033 232q0 33 -6.5 79.5t-19.5 95.5t-31 93.5t-42 73.5q-66 0 -112.5 -16.5t-76.5 -43.5t-43.5 -62t-13.5 -72q0 -121 86.5 -186.5t252.5 -65.5q3 20 4.5 47t1.5 57zM2013 968l-103 -102l-102 102
l102 103zM1422 0q-69 0 -118 12.5t-83 26.5q-72 -182 -227 -282t-393 -100q-161 0 -275 42.5t-186.5 111t-106 153.5t-33.5 170q0 57 13 107t32 87.5t40.5 59t39.5 21.5q11 0 18 -7q-10 -18 -18 -43t-14 -52t-9 -54.5t-3 -51.5q0 -89 37.5 -162t105.5 -125.5t163.5 -81.5
t212.5 -29q122 0 211.5 25t147.5 62.5t86 81.5t28 82q0 7 -3.5 20.5t-12.5 18.5q-21 12 -44 25t-42.5 26.5t-32 27t-12.5 25.5q0 33 9.5 66t25.5 57q106 -91 216.5 -135.5t207.5 -44.5h253q-11 10 -22.5 28t-21 41.5t-15.5 51.5t-6 58q0 68 25.5 135t78.5 120.5t136 87
t199 35.5q21 -26 43 -70t39.5 -98t29 -114.5t11.5 -118.5q0 -41 -7 -81.5t-18 -78.5t-25 -73t-28 -63h-653z" />
    <glyph glyph-name="uniFC43" unicode="&#xfedf;&#xfef0;" horiz-adv-x="1933" arabic-form="isolated" 
d="M1422 0q-69 0 -118 12.5t-83 26.5q-72 -182 -227 -282t-393 -100q-161 0 -275 42.5t-186.5 111t-106 153.5t-33.5 170q0 57 13 107t32 87.5t40.5 59t39.5 21.5q11 0 18 -7q-10 -18 -18 -43t-14 -52t-9 -54.5t-3 -51.5q0 -89 37.5 -162t105.5 -125.5t163.5 -81.5
t212.5 -29q122 0 211.5 25t147.5 62.5t86 81.5t28 82q0 7 -3.5 20.5t-12.5 18.5q-21 12 -44 25t-42.5 26.5t-32 27t-12.5 25.5q0 33 9.5 66t25.5 57q106 -91 216.5 -135.5t207.5 -44.5h277v1147q0 14 2.5 23.5t11.5 12.5l112 39l3 -2v-1360h-387z" />
    <glyph glyph-name="uniFC44" unicode="&#xfedf;&#xfef2;" horiz-adv-x="1933" arabic-form="isolated" 
d="M773 -604l-103 -102l-89 88l-89 -88l-102 102l102 103l89 -90l89 90zM1422 0q-69 0 -118 12.5t-83 26.5q-72 -182 -227 -282t-393 -100q-161 0 -275 42.5t-186.5 111t-106 153.5t-33.5 170q0 57 13 107t32 87.5t40.5 59t39.5 21.5q11 0 18 -7q-10 -18 -18 -43t-14 -52
t-9 -54.5t-3 -51.5q0 -89 37.5 -162t105.5 -125.5t163.5 -81.5t212.5 -29q122 0 211.5 25t147.5 62.5t86 81.5t28 82q0 7 -3.5 20.5t-12.5 18.5q-21 12 -44 25t-42.5 26.5t-32 27t-12.5 25.5q0 33 9.5 66t25.5 57q106 -91 216.5 -135.5t207.5 -44.5h277v1147q0 14 2.5 23.5
t11.5 12.5l112 39l3 -2v-1360h-387z" />
    <glyph glyph-name="uniFC64" unicode="&#xfe8c;&#xfeae;" horiz-adv-x="1505" arabic-form="final" 
d="M933 780l37 80l125 17q-45 19 -75.5 49.5t-30.5 70.5q0 24 13.5 50.5t45.5 54.5q32 30 76 54t95 24q26 0 53 -8t56 -27l-42 -69q-26 17 -54 26.5t-56 9.5q-21 0 -39.5 -6.5t-33 -18t-22.5 -27.5t-8 -34q0 -28 17 -50.5t45 -38t64.5 -24t74.5 -8.5q16 0 33.5 1.5t37.5 3.5
l-41 -81zM835 0q-79 0 -139 37t-95 95q-9 -49 -25.5 -103t-41 -106.5t-57.5 -99.5t-75.5 -83t-95 -57t-115.5 -21q-34 0 -66 10.5t-57.5 30.5t-43.5 47.5t-24 62.5q87 -22 161 -22q94 0 156.5 34t99.5 89.5t52 127.5t15 148q0 83 -26 171t-88 201q-11 20 -11 30q0 5 4 8
l126 69l3 -1q34 -65 54 -120t32.5 -105t19.5 -96t15 -92q5 -32 18 -54t37.5 -35.5t62 -19.5t92.5 -6h314q10 42 15.5 78t5.5 70q0 33 -5 62t-15 58.5t-26 61.5t-37 71q-11 20 -11 30q0 6 7 10l123 67l3 -1q38 -63 58 -128.5t20 -140.5q0 -39 -6 -81q-1 -5 -1.5 -11t-0.5 -11
q0 -27 10 -51.5t35 -43t66.5 -29.5t104.5 -11h22q16 0 29.5 -2t22.5 -9.5t14 -21.5t5 -38q0 -22 -5.5 -35.5t-15 -21t-22.5 -10t-28 -2.5h-10q-35 0 -73 10t-73 31.5t-63.5 55.5t-43.5 83q-17 -46 -39.5 -90.5t-48.5 -89.5h-319z" />
    <glyph glyph-name="uniFC67" unicode="&#xfe8c;&#xfee6;" horiz-adv-x="1850" arabic-form="final" 
d="M562 767l-103 -102l-102 102l102 103zM1278 780l37 80l125 17q-45 19 -75.5 49.5t-30.5 70.5q0 24 13.5 50.5t45.5 54.5q32 30 76 54t95 24q26 0 53 -8t56 -27l-42 -69q-26 17 -54 26.5t-56 9.5q-21 0 -39.5 -6.5t-33 -18t-22.5 -27.5t-8 -34q0 -28 17 -50.5t45 -38
t64.5 -24t74.5 -8.5q16 0 33.5 1.5t37.5 3.5l-41 -81zM1181 0q-31 0 -64.5 7.5t-64.5 23.5t-58.5 42t-46.5 63q-15 -95 -56 -174.5t-103 -136.5t-143 -88.5t-176 -31.5q-109 0 -196 32t-147.5 88.5t-93 134t-32.5 169.5q0 59 14.5 113t35.5 95t44 65.5t40 24.5q9 0 17 -8
q-9 -14 -17.5 -38.5t-15.5 -53t-11 -57.5t-4 -52q0 -89 29 -156.5t80 -113.5t120.5 -69t150.5 -23q94 0 165 25t117.5 65.5t70 91.5t23.5 102q0 52 -11 101t-30 93.5t-44 84.5t-52 73q-9 12 -9 18q0 7 8 12l117 75l3 -1q58 -84 87 -175.5t29 -176.5q0 -21 10 -40t34 -33
t65 -22.5t103 -8.5h313q10 42 15.5 78t5.5 70q0 33 -5 62t-15 58.5t-26 61.5t-37 71q-11 20 -11 30q0 6 7 10l123 67l3 -1q38 -63 58 -128.5t20 -140.5q0 -39 -6 -81q-1 -5 -1.5 -11t-0.5 -11q0 -27 10 -51.5t35 -43t66.5 -29.5t104.5 -11h22q16 0 29.5 -2t22.5 -9.5
t14 -21.5t5 -38q0 -22 -5.5 -35.5t-15 -21t-22.5 -10t-28 -2.5h-10q-35 0 -73 10t-73 31.5t-63.5 55.5t-43.5 83q-17 -46 -39.5 -90.5t-48.5 -89.5h-318z" />
    <glyph glyph-name="uniFC6A" unicode="&#xfe92;&#xfeae;" horiz-adv-x="1505" arabic-form="final" 
d="M835 0q-79 0 -139 37t-95 95q-9 -49 -25.5 -103t-41 -106.5t-57.5 -99.5t-75.5 -83t-95 -57t-115.5 -21q-34 0 -66 10.5t-57.5 30.5t-43.5 47.5t-24 62.5q87 -22 161 -22q94 0 156.5 34t99.5 89.5t52 127.5t15 148q0 83 -26 171t-88 201q-11 20 -11 30q0 5 4 8l126 69
l3 -1q34 -65 54 -120t32.5 -105t19.5 -96t15 -92q5 -32 18 -54t37.5 -35.5t62 -19.5t92.5 -6h314q10 42 15.5 78t5.5 70q0 33 -5 62t-15 58.5t-26 61.5t-37 71q-11 20 -11 30q0 6 7 10l123 67l3 -1q38 -63 58 -128.5t20 -140.5q0 -39 -6 -81q-1 -5 -1.5 -11t-0.5 -11
q0 -27 10 -51.5t35 -43t66.5 -29.5t104.5 -11h22q16 0 29.5 -2t22.5 -9.5t14 -21.5t5 -38q0 -22 -5.5 -35.5t-15 -21t-22.5 -10t-28 -2.5h-10q-35 0 -73 10t-73 31.5t-63.5 55.5t-43.5 83q-17 -46 -39.5 -90.5t-48.5 -89.5h-319zM1305 -301l-103 -102l-102 102l102 103z" />
    <glyph glyph-name="uniFC70" unicode="&#xfe98;&#xfeae;" horiz-adv-x="1505" arabic-form="final" 
d="M1291 968l-103 -102l-89 88l-89 -88l-102 102l102 103l89 -90l89 90zM835 0q-79 0 -139 37t-95 95q-9 -49 -25.5 -103t-41 -106.5t-57.5 -99.5t-75.5 -83t-95 -57t-115.5 -21q-34 0 -66 10.5t-57.5 30.5t-43.5 47.5t-24 62.5q87 -22 161 -22q94 0 156.5 34t99.5 89.5
t52 127.5t15 148q0 83 -26 171t-88 201q-11 20 -11 30q0 5 4 8l126 69l3 -1q34 -65 54 -120t32.5 -105t19.5 -96t15 -92q5 -32 18 -54t37.5 -35.5t62 -19.5t92.5 -6h314q10 42 15.5 78t5.5 70q0 33 -5 62t-15 58.5t-26 61.5t-37 71q-11 20 -11 30q0 6 7 10l123 67l3 -1
q38 -63 58 -128.5t20 -140.5q0 -39 -6 -81q-1 -5 -1.5 -11t-0.5 -11q0 -27 10 -51.5t35 -43t66.5 -29.5t104.5 -11h22q16 0 29.5 -2t22.5 -9.5t14 -21.5t5 -38q0 -22 -5.5 -35.5t-15 -21t-22.5 -10t-28 -2.5h-10q-35 0 -73 10t-73 31.5t-63.5 55.5t-43.5 83
q-17 -46 -39.5 -90.5t-48.5 -89.5h-319z" />
    <glyph glyph-name="uniFC86" unicode="&#xfee0;&#xfef0;" horiz-adv-x="2046" arabic-form="final" 
d="M1422 0q-69 0 -118 12.5t-83 26.5q-72 -182 -227 -282t-393 -100q-161 0 -275 42.5t-186.5 111t-106 153.5t-33.5 170q0 57 13 107t32 87.5t40.5 59t39.5 21.5q11 0 18 -7q-10 -18 -18 -43t-14 -52t-9 -54.5t-3 -51.5q0 -89 37.5 -162t105.5 -125.5t163.5 -81.5
t212.5 -29q122 0 211.5 25t147.5 62.5t86 81.5t28 82q0 7 -3.5 20.5t-12.5 18.5q-21 12 -44 25t-42.5 26.5t-32 27t-12.5 25.5q0 33 9.5 66t25.5 57q106 -91 216.5 -135.5t207.5 -44.5h277v1147q0 14 2.5 23.5t11.5 12.5l112 39l3 -2v-1082q2 -30 11.5 -55t33 -43.5
t64.5 -29t106 -10.5h22q16 0 29.5 -2t22.5 -9.5t14 -21.5t5 -38q0 -22 -5.5 -35.5t-15 -21t-22.5 -10t-28 -2.5h-11q-30 0 -63 7.5t-64.5 23.5t-59 41t-46.5 60q-20 -80 -93 -132h-287z" />
    <glyph glyph-name="uniFC87" unicode="&#xfee0;&#xfef2;" horiz-adv-x="2046" arabic-form="final" 
d="M773 -604l-103 -102l-89 88l-89 -88l-102 102l102 103l89 -90l89 90zM1422 0q-69 0 -118 12.5t-83 26.5q-72 -182 -227 -282t-393 -100q-161 0 -275 42.5t-186.5 111t-106 153.5t-33.5 170q0 57 13 107t32 87.5t40.5 59t39.5 21.5q11 0 18 -7q-10 -18 -18 -43t-14 -52
t-9 -54.5t-3 -51.5q0 -89 37.5 -162t105.5 -125.5t163.5 -81.5t212.5 -29q122 0 211.5 25t147.5 62.5t86 81.5t28 82q0 7 -3.5 20.5t-12.5 18.5q-21 12 -44 25t-42.5 26.5t-32 27t-12.5 25.5q0 33 9.5 66t25.5 57q106 -91 216.5 -135.5t207.5 -44.5h277v1147q0 14 2.5 23.5
t11.5 12.5l112 39l3 -2v-1082q2 -30 11.5 -55t33 -43.5t64.5 -29t106 -10.5h22q16 0 29.5 -2t22.5 -9.5t14 -21.5t5 -38q0 -22 -5.5 -35.5t-15 -21t-22.5 -10t-28 -2.5h-11q-30 0 -63 7.5t-64.5 23.5t-59 41t-46.5 60q-20 -80 -93 -132h-287z" />
    <glyph glyph-name="uniFCCC" unicode="&#xfedf;&#xfee4;" horiz-adv-x="1473" arabic-form="initial" 
d="M266 191q63 -28 130.5 -42t152.5 -14q76 0 118.5 22t42.5 70q0 46 -18.5 95.5t-50.5 90t-77 66.5t-97 26q-69 0 -114 -77.5t-87 -236.5zM887 0q-54 0 -89.5 36t-53.5 111q-14 -31 -31.5 -58.5t-42.5 -48.5t-59.5 -33t-82.5 -12q-66 0 -113 10.5t-81 27.5t-57.5 38.5
t-41.5 43.5q-24 -54 -61 -84.5t-88 -30.5h-86q-17 0 -30 2t-22 9.5t-14 21.5t-5 38q0 43 20 56t51 13h87q28 0 50 22t39 58t31 81t27 91q15 54 36.5 100t52 79.5t70.5 52t92 18.5q67 0 122 -28.5t95 -73.5t65 -100t32 -109q6 -43 12.5 -78t20.5 -60t38.5 -39t66.5 -14h283
v1147q0 14 2.5 23.5t11.5 12.5l112 39l3 -2v-1360h-462z" />
    <glyph glyph-name="uniFCFB" unicode="&#xfeb3;&#xfef0;" horiz-adv-x="2972" arabic-form="isolated" 
d="M1422 0q-69 0 -118 12.5t-83 26.5q-72 -182 -227 -282t-393 -100q-161 0 -275 42.5t-186.5 111t-106 153.5t-33.5 170q0 57 13 107t32 87.5t40.5 59t39.5 21.5q11 0 18 -7q-10 -18 -18 -43t-14 -52t-9 -54.5t-3 -51.5q0 -89 37.5 -162t105.5 -125.5t163.5 -81.5
t212.5 -29q122 0 211.5 25t147.5 62.5t86 81.5t28 82q0 7 -3.5 20.5t-12.5 18.5q-21 12 -44 25t-42.5 26.5t-32 27t-12.5 25.5q0 33 9.5 66t25.5 57q106 -91 216.5 -135.5t207.5 -44.5h387q10 42 15.5 78t5.5 70q0 52 -15.5 90t-31.5 66q-10 17 -10 28q0 8 7 12l120 66l3 -1
q12 -26 28 -70.5t16 -100.5q0 -39 -6 -81q-1 -5 -1.5 -11t-0.5 -11q0 -27 10 -51.5t35 -43t66.5 -29.5t104.5 -11h124q10 42 15.5 78t5.5 70q0 29 -5 57.5t-13 54.5t-18 49t-20 41q-10 17 -10 29q0 6 6 11l123 67l3 -1q10 -17 19.5 -41t16.5 -52.5t11 -60t4 -64.5
q0 -39 -6 -81q-1 -5 -1.5 -11t-0.5 -11q0 -27 10 -51.5t35 -43t66.5 -29.5t104.5 -11h153q10 41 10 87q0 40 -9.5 76.5t-28 75.5t-46 83t-64.5 100q-12 16 -12 29q0 6 5 9l126 69l3 -1q6 -12 13.5 -28t16 -34t16.5 -35.5t15 -32.5q26 -60 47 -119.5t21 -122.5
q0 -65 -29 -137q-16 -39 -36 -78t-44 -81h-145q-35 0 -73 10t-73 31.5t-63.5 55.5t-43.5 83q-17 -46 -39.5 -90.5t-48.5 -89.5h-129q-35 0 -73 10t-73 31.5t-63.5 55.5t-43.5 83q-17 -46 -39.5 -90.5t-48.5 -89.5h-385z" />
    <glyph glyph-name="uniFCFC" unicode="&#xfeb3;&#xfef2;" horiz-adv-x="2972" arabic-form="isolated" 
d="M773 -604l-103 -102l-89 88l-89 -88l-102 102l102 103l89 -90l89 90zM1422 0q-69 0 -118 12.5t-83 26.5q-72 -182 -227 -282t-393 -100q-161 0 -275 42.5t-186.5 111t-106 153.5t-33.5 170q0 57 13 107t32 87.5t40.5 59t39.5 21.5q11 0 18 -7q-10 -18 -18 -43t-14 -52
t-9 -54.5t-3 -51.5q0 -89 37.5 -162t105.5 -125.5t163.5 -81.5t212.5 -29q122 0 211.5 25t147.5 62.5t86 81.5t28 82q0 7 -3.5 20.5t-12.5 18.5q-21 12 -44 25t-42.5 26.5t-32 27t-12.5 25.5q0 33 9.5 66t25.5 57q106 -91 216.5 -135.5t207.5 -44.5h387q10 42 15.5 78
t5.5 70q0 52 -15.5 90t-31.5 66q-10 17 -10 28q0 8 7 12l120 66l3 -1q12 -26 28 -70.5t16 -100.5q0 -39 -6 -81q-1 -5 -1.5 -11t-0.5 -11q0 -27 10 -51.5t35 -43t66.5 -29.5t104.5 -11h124q10 42 15.5 78t5.5 70q0 29 -5 57.5t-13 54.5t-18 49t-20 41q-10 17 -10 29
q0 6 6 11l123 67l3 -1q10 -17 19.5 -41t16.5 -52.5t11 -60t4 -64.5q0 -39 -6 -81q-1 -5 -1.5 -11t-0.5 -11q0 -27 10 -51.5t35 -43t66.5 -29.5t104.5 -11h153q10 41 10 87q0 40 -9.5 76.5t-28 75.5t-46 83t-64.5 100q-12 16 -12 29q0 6 5 9l126 69l3 -1q6 -12 13.5 -28
t16 -34t16.5 -35.5t15 -32.5q26 -60 47 -119.5t21 -122.5q0 -65 -29 -137q-16 -39 -36 -78t-44 -81h-145q-35 0 -73 10t-73 31.5t-63.5 55.5t-43.5 83q-17 -46 -39.5 -90.5t-48.5 -89.5h-129q-35 0 -73 10t-73 31.5t-63.5 55.5t-43.5 83q-17 -46 -39.5 -90.5t-48.5 -89.5
h-385z" />
    <glyph glyph-name="uniFCFD" unicode="&#xfeb7;&#xfef0;" horiz-adv-x="2972" arabic-form="isolated" 
d="M2494 968l-103 -102l-89 88l-89 -88l-102 102l102 103l89 -90l89 90zM2406 1195l-103 -102l-102 102l102 103zM1422 0q-69 0 -118 12.5t-83 26.5q-72 -182 -227 -282t-393 -100q-161 0 -275 42.5t-186.5 111t-106 153.5t-33.5 170q0 57 13 107t32 87.5t40.5 59t39.5 21.5
q11 0 18 -7q-10 -18 -18 -43t-14 -52t-9 -54.5t-3 -51.5q0 -89 37.5 -162t105.5 -125.5t163.5 -81.5t212.5 -29q122 0 211.5 25t147.5 62.5t86 81.5t28 82q0 7 -3.5 20.5t-12.5 18.5q-21 12 -44 25t-42.5 26.5t-32 27t-12.5 25.5q0 33 9.5 66t25.5 57q106 -91 216.5 -135.5
t207.5 -44.5h387q10 42 15.5 78t5.5 70q0 52 -15.5 90t-31.5 66q-10 17 -10 28q0 8 7 12l120 66l3 -1q12 -26 28 -70.5t16 -100.5q0 -39 -6 -81q-1 -5 -1.5 -11t-0.5 -11q0 -27 10 -51.5t35 -43t66.5 -29.5t104.5 -11h124q10 42 15.5 78t5.5 70q0 29 -5 57.5t-13 54.5
t-18 49t-20 41q-10 17 -10 29q0 6 6 11l123 67l3 -1q10 -17 19.5 -41t16.5 -52.5t11 -60t4 -64.5q0 -39 -6 -81q-1 -5 -1.5 -11t-0.5 -11q0 -27 10 -51.5t35 -43t66.5 -29.5t104.5 -11h153q10 41 10 87q0 40 -9.5 76.5t-28 75.5t-46 83t-64.5 100q-12 16 -12 29q0 6 5 9
l126 69l3 -1q6 -12 13.5 -28t16 -34t16.5 -35.5t15 -32.5q26 -60 47 -119.5t21 -122.5q0 -65 -29 -137q-16 -39 -36 -78t-44 -81h-145q-35 0 -73 10t-73 31.5t-63.5 55.5t-43.5 83q-17 -46 -39.5 -90.5t-48.5 -89.5h-129q-35 0 -73 10t-73 31.5t-63.5 55.5t-43.5 83
q-17 -46 -39.5 -90.5t-48.5 -89.5h-385z" />
    <glyph glyph-name="uniFCFE" unicode="&#xfeb7;&#xfef2;" horiz-adv-x="2972" arabic-form="isolated" 
d="M2494 968l-103 -102l-89 88l-89 -88l-102 102l102 103l89 -90l89 90zM2406 1195l-103 -102l-102 102l102 103zM773 -604l-103 -102l-89 88l-89 -88l-102 102l102 103l89 -90l89 90zM1422 0q-69 0 -118 12.5t-83 26.5q-72 -182 -227 -282t-393 -100q-161 0 -275 42.5
t-186.5 111t-106 153.5t-33.5 170q0 57 13 107t32 87.5t40.5 59t39.5 21.5q11 0 18 -7q-10 -18 -18 -43t-14 -52t-9 -54.5t-3 -51.5q0 -89 37.5 -162t105.5 -125.5t163.5 -81.5t212.5 -29q122 0 211.5 25t147.5 62.5t86 81.5t28 82q0 7 -3.5 20.5t-12.5 18.5q-21 12 -44 25
t-42.5 26.5t-32 27t-12.5 25.5q0 33 9.5 66t25.5 57q106 -91 216.5 -135.5t207.5 -44.5h387q10 42 15.5 78t5.5 70q0 52 -15.5 90t-31.5 66q-10 17 -10 28q0 8 7 12l120 66l3 -1q12 -26 28 -70.5t16 -100.5q0 -39 -6 -81q-1 -5 -1.5 -11t-0.5 -11q0 -27 10 -51.5t35 -43
t66.5 -29.5t104.5 -11h124q10 42 15.5 78t5.5 70q0 29 -5 57.5t-13 54.5t-18 49t-20 41q-10 17 -10 29q0 6 6 11l123 67l3 -1q10 -17 19.5 -41t16.5 -52.5t11 -60t4 -64.5q0 -39 -6 -81q-1 -5 -1.5 -11t-0.5 -11q0 -27 10 -51.5t35 -43t66.5 -29.5t104.5 -11h153
q10 41 10 87q0 40 -9.5 76.5t-28 75.5t-46 83t-64.5 100q-12 16 -12 29q0 6 5 9l126 69l3 -1q6 -12 13.5 -28t16 -34t16.5 -35.5t15 -32.5q26 -60 47 -119.5t21 -122.5q0 -65 -29 -137q-16 -39 -36 -78t-44 -81h-145q-35 0 -73 10t-73 31.5t-63.5 55.5t-43.5 83
q-17 -46 -39.5 -90.5t-48.5 -89.5h-129q-35 0 -73 10t-73 31.5t-63.5 55.5t-43.5 83q-17 -46 -39.5 -90.5t-48.5 -89.5h-385z" />
    <glyph glyph-name="uniFD05" unicode="&#xfebb;&#xfef0;" horiz-adv-x="2989" arabic-form="isolated" 
d="M2747 140q13 29 18 65.5t5 72.5q0 66 -11 112t-26 62q-14 15 -33 25t-39 16.5t-39.5 9t-34.5 2.5q-67 0 -126.5 -24t-118.5 -70.5t-120.5 -114.5t-132.5 -156h658zM1422 0q-69 0 -118 12.5t-83 26.5q-72 -182 -227 -282t-393 -100q-161 0 -275 42.5t-186.5 111
t-106 153.5t-33.5 170q0 57 13 107t32 87.5t40.5 59t39.5 21.5q11 0 18 -7q-10 -18 -18 -43t-14 -52t-9 -54.5t-3 -51.5q0 -89 37.5 -162t105.5 -125.5t163.5 -81.5t212.5 -29q122 0 211.5 25t147.5 62.5t86 81.5t28 82q0 7 -3.5 20.5t-12.5 18.5q-21 12 -44 25t-42.5 26.5
t-32 27t-12.5 25.5q0 33 9.5 66t25.5 57q106 -91 216.5 -135.5t207.5 -44.5h276q10 42 15.5 76.5t5.5 68.5q0 52 -12 93.5t-37 93.5q-5 9 -8.5 17t-3.5 13t5 8l126 69l3 -1q21 -48 32.5 -97t11.5 -106q0 -39 -6 -81q-1 -5 -1.5 -11t-0.5 -11q0 -27 6 -51t20 -42t37.5 -28.5
t58.5 -10.5h14q66 90 139.5 178t152 158.5t159 114t159.5 43.5q81 0 149.5 -39.5t119.5 -127.5q35 -61 50 -110t15 -94q0 -23 -4 -57t-10 -71t-13.5 -72.5t-14.5 -62.5h-901q-70 0 -108 40.5t-54 136.5q-17 -46 -39.5 -89t-48.5 -88h-274z" />
    <glyph glyph-name="uniFD06" unicode="&#xfebb;&#xfef2;" horiz-adv-x="2989" arabic-form="isolated" 
d="M773 -604l-103 -102l-89 88l-89 -88l-102 102l102 103l89 -90l89 90zM2747 140q13 29 18 65.5t5 72.5q0 66 -11 112t-26 62q-14 15 -33 25t-39 16.5t-39.5 9t-34.5 2.5q-67 0 -126.5 -24t-118.5 -70.5t-120.5 -114.5t-132.5 -156h658zM1422 0q-69 0 -118 12.5t-83 26.5
q-72 -182 -227 -282t-393 -100q-161 0 -275 42.5t-186.5 111t-106 153.5t-33.5 170q0 57 13 107t32 87.5t40.5 59t39.5 21.5q11 0 18 -7q-10 -18 -18 -43t-14 -52t-9 -54.5t-3 -51.5q0 -89 37.5 -162t105.5 -125.5t163.5 -81.5t212.5 -29q122 0 211.5 25t147.5 62.5t86 81.5
t28 82q0 7 -3.5 20.5t-12.5 18.5q-21 12 -44 25t-42.5 26.5t-32 27t-12.5 25.5q0 33 9.5 66t25.5 57q106 -91 216.5 -135.5t207.5 -44.5h276q10 42 15.5 76.5t5.5 68.5q0 52 -12 93.5t-37 93.5q-5 9 -8.5 17t-3.5 13t5 8l126 69l3 -1q21 -48 32.5 -97t11.5 -106
q0 -39 -6 -81q-1 -5 -1.5 -11t-0.5 -11q0 -27 6 -51t20 -42t37.5 -28.5t58.5 -10.5h14q66 90 139.5 178t152 158.5t159 114t159.5 43.5q81 0 149.5 -39.5t119.5 -127.5q35 -61 50 -110t15 -94q0 -23 -4 -57t-10 -71t-13.5 -72.5t-14.5 -62.5h-901q-70 0 -108 40.5t-54 136.5
q-17 -46 -39.5 -89t-48.5 -88h-274z" />
    <glyph glyph-name="uniFD07" unicode="&#xfebf;&#xfef0;" horiz-adv-x="2989" arabic-form="isolated" 
d="M2747 140q13 29 18 65.5t5 72.5q0 66 -11 112t-26 62q-14 15 -33 25t-39 16.5t-39.5 9t-34.5 2.5q-67 0 -126.5 -24t-118.5 -70.5t-120.5 -114.5t-132.5 -156h658zM1422 0q-69 0 -118 12.5t-83 26.5q-72 -182 -227 -282t-393 -100q-161 0 -275 42.5t-186.5 111
t-106 153.5t-33.5 170q0 57 13 107t32 87.5t40.5 59t39.5 21.5q11 0 18 -7q-10 -18 -18 -43t-14 -52t-9 -54.5t-3 -51.5q0 -89 37.5 -162t105.5 -125.5t163.5 -81.5t212.5 -29q122 0 211.5 25t147.5 62.5t86 81.5t28 82q0 7 -3.5 20.5t-12.5 18.5q-21 12 -44 25t-42.5 26.5
t-32 27t-12.5 25.5q0 33 9.5 66t25.5 57q106 -91 216.5 -135.5t207.5 -44.5h276q10 42 15.5 76.5t5.5 68.5q0 52 -12 93.5t-37 93.5q-5 9 -8.5 17t-3.5 13t5 8l126 69l3 -1q21 -48 32.5 -97t11.5 -106q0 -39 -6 -81q-1 -5 -1.5 -11t-0.5 -11q0 -27 6 -51t20 -42t37.5 -28.5
t58.5 -10.5h14q66 90 139.5 178t152 158.5t159 114t159.5 43.5q81 0 149.5 -39.5t119.5 -127.5q35 -61 50 -110t15 -94q0 -23 -4 -57t-10 -71t-13.5 -72.5t-14.5 -62.5h-901q-70 0 -108 40.5t-54 136.5q-17 -46 -39.5 -89t-48.5 -88h-274zM2645 968l-103 -102l-102 102
l102 103z" />
    <glyph glyph-name="uniFD08" unicode="&#xfebf;&#xfef2;" horiz-adv-x="2989" arabic-form="isolated" 
d="M773 -604l-103 -102l-89 88l-89 -88l-102 102l102 103l89 -90l89 90zM2747 140q13 29 18 65.5t5 72.5q0 66 -11 112t-26 62q-14 15 -33 25t-39 16.5t-39.5 9t-34.5 2.5q-67 0 -126.5 -24t-118.5 -70.5t-120.5 -114.5t-132.5 -156h658zM1422 0q-69 0 -118 12.5t-83 26.5
q-72 -182 -227 -282t-393 -100q-161 0 -275 42.5t-186.5 111t-106 153.5t-33.5 170q0 57 13 107t32 87.5t40.5 59t39.5 21.5q11 0 18 -7q-10 -18 -18 -43t-14 -52t-9 -54.5t-3 -51.5q0 -89 37.5 -162t105.5 -125.5t163.5 -81.5t212.5 -29q122 0 211.5 25t147.5 62.5t86 81.5
t28 82q0 7 -3.5 20.5t-12.5 18.5q-21 12 -44 25t-42.5 26.5t-32 27t-12.5 25.5q0 33 9.5 66t25.5 57q106 -91 216.5 -135.5t207.5 -44.5h276q10 42 15.5 76.5t5.5 68.5q0 52 -12 93.5t-37 93.5q-5 9 -8.5 17t-3.5 13t5 8l126 69l3 -1q21 -48 32.5 -97t11.5 -106
q0 -39 -6 -81q-1 -5 -1.5 -11t-0.5 -11q0 -27 6 -51t20 -42t37.5 -28.5t58.5 -10.5h14q66 90 139.5 178t152 158.5t159 114t159.5 43.5q81 0 149.5 -39.5t119.5 -127.5q35 -61 50 -110t15 -94q0 -23 -4 -57t-10 -71t-13.5 -72.5t-14.5 -62.5h-901q-70 0 -108 40.5t-54 136.5
q-17 -46 -39.5 -89t-48.5 -88h-274zM2645 968l-103 -102l-102 102l102 103z" />
    <glyph glyph-name="uniFD0D" unicode="&#xfeb7;&#xfeae;" horiz-adv-x="2357" arabic-form="isolated" 
d="M835 0q-79 0 -139 37t-95 95q-9 -49 -25.5 -103t-41 -106.5t-57.5 -99.5t-75.5 -83t-95 -57t-115.5 -21q-34 0 -66 10.5t-57.5 30.5t-43.5 47.5t-24 62.5q87 -22 161 -22q94 0 156.5 34t99.5 89.5t52 127.5t15 148q0 83 -26 171t-88 201q-11 20 -11 30q0 5 4 8l126 69
l3 -1q34 -65 54 -120t32.5 -105t19.5 -96t15 -92q5 -32 18 -54t37.5 -35.5t62 -19.5t92.5 -6h352q10 42 15.5 78t5.5 70q0 52 -15.5 90t-31.5 66q-10 17 -10 28q0 8 7 12l120 66l3 -1q12 -26 28 -70.5t16 -100.5q0 -39 -6 -81q-1 -5 -1.5 -11t-0.5 -11q0 -27 10 -51.5
t35 -43t66.5 -29.5t104.5 -11h124q10 42 15.5 78t5.5 70q0 29 -5 57.5t-13 54.5t-18 49t-20 41q-10 17 -10 29q0 6 6 11l123 67l3 -1q10 -17 19.5 -41t16.5 -52.5t11 -60t4 -64.5q0 -39 -6 -81q-1 -5 -1.5 -11t-0.5 -11q0 -27 10 -51.5t35 -43t66.5 -29.5t104.5 -11h153
q10 41 10 87q0 40 -9.5 76.5t-28 75.5t-46 83t-64.5 100q-12 16 -12 29q0 6 5 9l126 69l3 -1q6 -12 13.5 -28t16 -34t16.5 -35.5t15 -32.5q26 -60 47 -119.5t21 -122.5q0 -65 -29 -137q-16 -39 -36 -78t-44 -81h-145q-35 0 -73 10t-73 31.5t-63.5 55.5t-43.5 83
q-17 -46 -39.5 -90.5t-48.5 -89.5h-129q-35 0 -73 10t-73 31.5t-63.5 55.5t-43.5 83q-17 -46 -39.5 -90.5t-48.5 -89.5h-357zM1791 1195l-103 -102l-102 102l102 103zM1879 968l-103 -102l-89 88l-89 -88l-102 102l102 103l89 -90l89 90z" />
    <glyph glyph-name="uniFD0E" unicode="&#xfeb3;&#xfeae;" horiz-adv-x="2357" arabic-form="isolated" 
d="M835 0q-79 0 -139 37t-95 95q-9 -49 -25.5 -103t-41 -106.5t-57.5 -99.5t-75.5 -83t-95 -57t-115.5 -21q-34 0 -66 10.5t-57.5 30.5t-43.5 47.5t-24 62.5q87 -22 161 -22q94 0 156.5 34t99.5 89.5t52 127.5t15 148q0 83 -26 171t-88 201q-11 20 -11 30q0 5 4 8l126 69
l3 -1q34 -65 54 -120t32.5 -105t19.5 -96t15 -92q5 -32 18 -54t37.5 -35.5t62 -19.5t92.5 -6h352q10 42 15.5 78t5.5 70q0 52 -15.5 90t-31.5 66q-10 17 -10 28q0 8 7 12l120 66l3 -1q12 -26 28 -70.5t16 -100.5q0 -39 -6 -81q-1 -5 -1.5 -11t-0.5 -11q0 -27 10 -51.5
t35 -43t66.5 -29.5t104.5 -11h124q10 42 15.5 78t5.5 70q0 29 -5 57.5t-13 54.5t-18 49t-20 41q-10 17 -10 29q0 6 6 11l123 67l3 -1q10 -17 19.5 -41t16.5 -52.5t11 -60t4 -64.5q0 -39 -6 -81q-1 -5 -1.5 -11t-0.5 -11q0 -27 10 -51.5t35 -43t66.5 -29.5t104.5 -11h153
q10 41 10 87q0 40 -9.5 76.5t-28 75.5t-46 83t-64.5 100q-12 16 -12 29q0 6 5 9l126 69l3 -1q6 -12 13.5 -28t16 -34t16.5 -35.5t15 -32.5q26 -60 47 -119.5t21 -122.5q0 -65 -29 -137q-16 -39 -36 -78t-44 -81h-145q-35 0 -73 10t-73 31.5t-63.5 55.5t-43.5 83
q-17 -46 -39.5 -90.5t-48.5 -89.5h-129q-35 0 -73 10t-73 31.5t-63.5 55.5t-43.5 83q-17 -46 -39.5 -90.5t-48.5 -89.5h-357z" />
    <glyph glyph-name="uniFD0F" unicode="&#xfebb;&#xfeae;" horiz-adv-x="2374" arabic-form="isolated" 
d="M2132 140q13 29 18 65.5t5 72.5q0 66 -11 112t-26 62q-14 15 -33 25t-39 16.5t-39.5 9t-34.5 2.5q-67 0 -126.5 -24t-118.5 -70.5t-120.5 -114.5t-132.5 -156h658zM835 0q-79 0 -139 37t-95 95q-9 -49 -25.5 -103t-41 -106.5t-57.5 -99.5t-75.5 -83t-95 -57t-115.5 -21
q-34 0 -66 10.5t-57.5 30.5t-43.5 47.5t-24 62.5q87 -22 161 -22q94 0 156.5 34t99.5 89.5t52 127.5t15 148q0 83 -26 171t-88 201q-11 20 -11 30q0 5 4 8l126 69l3 -1q34 -65 54 -120t32.5 -105t19.5 -96t15 -92q5 -32 18 -54t37.5 -35.5t62 -19.5t92.5 -6h241
q10 42 15.5 76.5t5.5 68.5q0 52 -12 93.5t-37 93.5q-5 9 -8.5 17t-3.5 13t5 8l126 69l3 -1q21 -48 32.5 -97t11.5 -106q0 -39 -6 -81q-1 -5 -1.5 -11t-0.5 -11q0 -27 6 -51t20 -42t37.5 -28.5t58.5 -10.5h14q66 90 139.5 178t152 158.5t159 114t159.5 43.5q81 0 149.5 -39.5
t119.5 -127.5q35 -61 50 -110t15 -94q0 -23 -4 -57t-10 -71t-13.5 -72.5t-14.5 -62.5h-901q-70 0 -108 40.5t-54 136.5q-17 -46 -39.5 -89t-48.5 -88h-246z" />
    <glyph glyph-name="uniFD10" unicode="&#xfebf;&#xfeae;" horiz-adv-x="2374" arabic-form="isolated" 
d="M2132 140q13 29 18 65.5t5 72.5q0 66 -11 112t-26 62q-14 15 -33 25t-39 16.5t-39.5 9t-34.5 2.5q-67 0 -126.5 -24t-118.5 -70.5t-120.5 -114.5t-132.5 -156h658zM835 0q-79 0 -139 37t-95 95q-9 -49 -25.5 -103t-41 -106.5t-57.5 -99.5t-75.5 -83t-95 -57t-115.5 -21
q-34 0 -66 10.5t-57.5 30.5t-43.5 47.5t-24 62.5q87 -22 161 -22q94 0 156.5 34t99.5 89.5t52 127.5t15 148q0 83 -26 171t-88 201q-11 20 -11 30q0 5 4 8l126 69l3 -1q34 -65 54 -120t32.5 -105t19.5 -96t15 -92q5 -32 18 -54t37.5 -35.5t62 -19.5t92.5 -6h241
q10 42 15.5 76.5t5.5 68.5q0 52 -12 93.5t-37 93.5q-5 9 -8.5 17t-3.5 13t5 8l126 69l3 -1q21 -48 32.5 -97t11.5 -106q0 -39 -6 -81q-1 -5 -1.5 -11t-0.5 -11q0 -27 6 -51t20 -42t37.5 -28.5t58.5 -10.5h14q66 90 139.5 178t152 158.5t159 114t159.5 43.5q81 0 149.5 -39.5
t119.5 -127.5q35 -61 50 -110t15 -94q0 -23 -4 -57t-10 -71t-13.5 -72.5t-14.5 -62.5h-901q-70 0 -108 40.5t-54 136.5q-17 -46 -39.5 -89t-48.5 -88h-246zM2030 968l-103 -102l-102 102l102 103z" />
    <glyph glyph-name="uniFD17" unicode="&#xfeb4;&#xfef0;" horiz-adv-x="3095" arabic-form="final" 
d="M1422 0q-69 0 -118 12.5t-83 26.5q-72 -182 -227 -282t-393 -100q-161 0 -275 42.5t-186.5 111t-106 153.5t-33.5 170q0 57 13 107t32 87.5t40.5 59t39.5 21.5q11 0 18 -7q-10 -18 -18 -43t-14 -52t-9 -54.5t-3 -51.5q0 -89 37.5 -162t105.5 -125.5t163.5 -81.5
t212.5 -29q122 0 211.5 25t147.5 62.5t86 81.5t28 82q0 7 -3.5 20.5t-12.5 18.5q-21 12 -44 25t-42.5 26.5t-32 27t-12.5 25.5q0 33 9.5 66t25.5 57q106 -91 216.5 -135.5t207.5 -44.5h387q10 42 15.5 78t5.5 70q0 52 -16 88t-33 67q-10 16 -10 29q0 8 6 11l123 67l3 -1
q12 -26 28 -70.5t16 -100.5q0 -39 -6 -81q-1 -5 -1.5 -11t-0.5 -11q0 -27 10 -51.5t35 -43t66.5 -29.5t104.5 -11h124q10 42 15.5 78t5.5 70q0 58 -16 105t-40 97q-4 9 -7 16.5t-3 13.5t5 9l124 68l3 -1q10 -17 19.5 -41t16.5 -52.5t11 -60t4 -64.5q0 -39 -6 -81
q-1 -5 -1.5 -11t-0.5 -11q0 -27 10 -51.5t35 -43t66.5 -29.5t104.5 -11h124q10 42 15.5 78t5.5 70q0 29 -3.5 55t-11 51.5t-19.5 52.5t-29 58q-11 20 -11 30q0 3 2 5.5t10 7.5l118 64l3 -1q28 -55 43 -111t15 -122q0 -39 -6 -81q-1 -5 -1.5 -11t-0.5 -11q0 -27 10 -51.5
t35 -43t66.5 -29.5t104.5 -11h19q16 0 29.5 -2t22.5 -9.5t14 -21.5t5 -38q0 -22 -5.5 -35.5t-15 -21t-22.5 -10t-28 -2.5h-7q-35 0 -73 10t-73 31.5t-63.5 55.5t-43.5 83q-17 -46 -39.5 -90.5t-48.5 -89.5h-129q-35 0 -73 10t-73 31.5t-63.5 55.5t-43.5 83
q-17 -46 -39.5 -90.5t-48.5 -89.5h-129q-35 0 -73 10t-73 31.5t-63.5 55.5t-43.5 83q-17 -46 -39.5 -90.5t-48.5 -89.5h-385z" />
    <glyph glyph-name="uniFD18" unicode="&#xfeb4;&#xfef2;" horiz-adv-x="3095" arabic-form="final" 
d="M773 -604l-103 -102l-89 88l-89 -88l-102 102l102 103l89 -90l89 90zM1422 0q-69 0 -118 12.5t-83 26.5q-72 -182 -227 -282t-393 -100q-161 0 -275 42.5t-186.5 111t-106 153.5t-33.5 170q0 57 13 107t32 87.5t40.5 59t39.5 21.5q11 0 18 -7q-10 -18 -18 -43t-14 -52
t-9 -54.5t-3 -51.5q0 -89 37.5 -162t105.5 -125.5t163.5 -81.5t212.5 -29q122 0 211.5 25t147.5 62.5t86 81.5t28 82q0 7 -3.5 20.5t-12.5 18.5q-21 12 -44 25t-42.5 26.5t-32 27t-12.5 25.5q0 33 9.5 66t25.5 57q106 -91 216.5 -135.5t207.5 -44.5h387q10 42 15.5 78
t5.5 70q0 52 -16 88t-33 67q-10 16 -10 29q0 8 6 11l123 67l3 -1q12 -26 28 -70.5t16 -100.5q0 -39 -6 -81q-1 -5 -1.5 -11t-0.5 -11q0 -27 10 -51.5t35 -43t66.5 -29.5t104.5 -11h124q10 42 15.5 78t5.5 70q0 58 -16 105t-40 97q-4 9 -7 16.5t-3 13.5t5 9l124 68l3 -1
q10 -17 19.5 -41t16.5 -52.5t11 -60t4 -64.5q0 -39 -6 -81q-1 -5 -1.5 -11t-0.5 -11q0 -27 10 -51.5t35 -43t66.5 -29.5t104.5 -11h124q10 42 15.5 78t5.5 70q0 29 -3.5 55t-11 51.5t-19.5 52.5t-29 58q-11 20 -11 30q0 3 2 5.5t10 7.5l118 64l3 -1q28 -55 43 -111t15 -122
q0 -39 -6 -81q-1 -5 -1.5 -11t-0.5 -11q0 -27 10 -51.5t35 -43t66.5 -29.5t104.5 -11h19q16 0 29.5 -2t22.5 -9.5t14 -21.5t5 -38q0 -22 -5.5 -35.5t-15 -21t-22.5 -10t-28 -2.5h-7q-35 0 -73 10t-73 31.5t-63.5 55.5t-43.5 83q-17 -46 -39.5 -90.5t-48.5 -89.5h-129
q-35 0 -73 10t-73 31.5t-63.5 55.5t-43.5 83q-17 -46 -39.5 -90.5t-48.5 -89.5h-129q-35 0 -73 10t-73 31.5t-63.5 55.5t-43.5 83q-17 -46 -39.5 -90.5t-48.5 -89.5h-385z" />
    <glyph glyph-name="uniFD19" unicode="&#xfeb8;&#xfef0;" horiz-adv-x="3095" arabic-form="final" 
d="M1422 0q-69 0 -118 12.5t-83 26.5q-72 -182 -227 -282t-393 -100q-161 0 -275 42.5t-186.5 111t-106 153.5t-33.5 170q0 57 13 107t32 87.5t40.5 59t39.5 21.5q11 0 18 -7q-10 -18 -18 -43t-14 -52t-9 -54.5t-3 -51.5q0 -89 37.5 -162t105.5 -125.5t163.5 -81.5
t212.5 -29q122 0 211.5 25t147.5 62.5t86 81.5t28 82q0 7 -3.5 20.5t-12.5 18.5q-21 12 -44 25t-42.5 26.5t-32 27t-12.5 25.5q0 33 9.5 66t25.5 57q106 -91 216.5 -135.5t207.5 -44.5h387q10 42 15.5 78t5.5 70q0 52 -16 88t-33 67q-10 16 -10 29q0 8 6 11l123 67l3 -1
q12 -26 28 -70.5t16 -100.5q0 -39 -6 -81q-1 -5 -1.5 -11t-0.5 -11q0 -27 10 -51.5t35 -43t66.5 -29.5t104.5 -11h124q10 42 15.5 78t5.5 70q0 58 -16 105t-40 97q-4 9 -7 16.5t-3 13.5t5 9l124 68l3 -1q10 -17 19.5 -41t16.5 -52.5t11 -60t4 -64.5q0 -39 -6 -81
q-1 -5 -1.5 -11t-0.5 -11q0 -27 10 -51.5t35 -43t66.5 -29.5t104.5 -11h124q10 42 15.5 78t5.5 70q0 29 -3.5 55t-11 51.5t-19.5 52.5t-29 58q-11 20 -11 30q0 3 2 5.5t10 7.5l118 64l3 -1q28 -55 43 -111t15 -122q0 -39 -6 -81q-1 -5 -1.5 -11t-0.5 -11q0 -27 10 -51.5
t35 -43t66.5 -29.5t104.5 -11h19q16 0 29.5 -2t22.5 -9.5t14 -21.5t5 -38q0 -22 -5.5 -35.5t-15 -21t-22.5 -10t-28 -2.5h-7q-35 0 -73 10t-73 31.5t-63.5 55.5t-43.5 83q-17 -46 -39.5 -90.5t-48.5 -89.5h-129q-35 0 -73 10t-73 31.5t-63.5 55.5t-43.5 83
q-17 -46 -39.5 -90.5t-48.5 -89.5h-129q-35 0 -73 10t-73 31.5t-63.5 55.5t-43.5 83q-17 -46 -39.5 -90.5t-48.5 -89.5h-385zM2418 1195l-103 -102l-102 102l102 103zM2506 968l-103 -102l-89 88l-89 -88l-102 102l102 103l89 -90l89 90z" />
    <glyph glyph-name="uniFD1A" unicode="&#xfeb8;&#xfef2;" horiz-adv-x="3095" arabic-form="final" 
d="M773 -604l-103 -102l-89 88l-89 -88l-102 102l102 103l89 -90l89 90zM1422 0q-69 0 -118 12.5t-83 26.5q-72 -182 -227 -282t-393 -100q-161 0 -275 42.5t-186.5 111t-106 153.5t-33.5 170q0 57 13 107t32 87.5t40.5 59t39.5 21.5q11 0 18 -7q-10 -18 -18 -43t-14 -52
t-9 -54.5t-3 -51.5q0 -89 37.5 -162t105.5 -125.5t163.5 -81.5t212.5 -29q122 0 211.5 25t147.5 62.5t86 81.5t28 82q0 7 -3.5 20.5t-12.5 18.5q-21 12 -44 25t-42.5 26.5t-32 27t-12.5 25.5q0 33 9.5 66t25.5 57q106 -91 216.5 -135.5t207.5 -44.5h387q10 42 15.5 78
t5.5 70q0 52 -16 88t-33 67q-10 16 -10 29q0 8 6 11l123 67l3 -1q12 -26 28 -70.5t16 -100.5q0 -39 -6 -81q-1 -5 -1.5 -11t-0.5 -11q0 -27 10 -51.5t35 -43t66.5 -29.5t104.5 -11h124q10 42 15.5 78t5.5 70q0 58 -16 105t-40 97q-4 9 -7 16.5t-3 13.5t5 9l124 68l3 -1
q10 -17 19.5 -41t16.5 -52.5t11 -60t4 -64.5q0 -39 -6 -81q-1 -5 -1.5 -11t-0.5 -11q0 -27 10 -51.5t35 -43t66.5 -29.5t104.5 -11h124q10 42 15.5 78t5.5 70q0 29 -3.5 55t-11 51.5t-19.5 52.5t-29 58q-11 20 -11 30q0 3 2 5.5t10 7.5l118 64l3 -1q28 -55 43 -111t15 -122
q0 -39 -6 -81q-1 -5 -1.5 -11t-0.5 -11q0 -27 10 -51.5t35 -43t66.5 -29.5t104.5 -11h19q16 0 29.5 -2t22.5 -9.5t14 -21.5t5 -38q0 -22 -5.5 -35.5t-15 -21t-22.5 -10t-28 -2.5h-7q-35 0 -73 10t-73 31.5t-63.5 55.5t-43.5 83q-17 -46 -39.5 -90.5t-48.5 -89.5h-129
q-35 0 -73 10t-73 31.5t-63.5 55.5t-43.5 83q-17 -46 -39.5 -90.5t-48.5 -89.5h-129q-35 0 -73 10t-73 31.5t-63.5 55.5t-43.5 83q-17 -46 -39.5 -90.5t-48.5 -89.5h-385zM2418 1195l-103 -102l-102 102l102 103zM2506 968l-103 -102l-89 88l-89 -88l-102 102l102 103
l89 -90l89 90z" />
    <glyph glyph-name="uniFD21" unicode="&#xfebc;&#xfef0;" horiz-adv-x="3120" arabic-form="final" 
d="M2740 140q13 29 18 65.5t5 72.5q0 66 -10.5 112.5t-26.5 61.5q-26 26 -63.5 39.5t-82.5 13.5q-66 0 -125 -24t-118 -70.5t-121 -114.5t-134 -156h658zM1422 0q-69 0 -118 12.5t-83 26.5q-72 -182 -227 -282t-393 -100q-161 0 -275 42.5t-186.5 111t-106 153.5t-33.5 170
q0 57 13 107t32 87.5t40.5 59t39.5 21.5q11 0 18 -7q-10 -18 -18 -43t-14 -52t-9 -54.5t-3 -51.5q0 -89 37.5 -162t105.5 -125.5t163.5 -81.5t212.5 -29q122 0 211.5 25t147.5 62.5t86 81.5t28 82q0 7 -3.5 20.5t-12.5 18.5q-21 12 -44 25t-42.5 26.5t-32 27t-12.5 25.5
q0 33 9.5 66t25.5 57q106 -91 216.5 -135.5t207.5 -44.5h269q10 42 15.5 76.5t5.5 68.5q0 52 -13 97t-36 90q-5 9 -8.5 17t-3.5 13t5 8l126 69l3 -1q21 -48 32.5 -97t11.5 -106q0 -39 -6 -81q-1 -5 -1.5 -11t-0.5 -11q0 -27 6.5 -51t21 -42t38.5 -28.5t59 -10.5h11
q41 56 87 114t96 113t103 103.5t107.5 85t109 57.5t107.5 21q30 0 64 -6.5t69 -25t69.5 -51t66.5 -84.5q38 -63 51.5 -111.5t13.5 -92.5q0 -36 17 -59.5t46 -37.5t68 -20t83 -6h24q16 0 29.5 -2t22.5 -9.5t14 -21.5t5 -38q0 -22 -5.5 -35.5t-15 -21t-22.5 -10t-28 -2.5h-13
q-48 0 -88.5 14t-71 35.5t-50.5 46.5t-27 48q-6 -39 -14 -77t-16 -67h-901q-70 0 -108 40.5t-54 136.5q-17 -46 -39.5 -89t-48.5 -88h-267z" />
    <glyph glyph-name="uniFD22" unicode="&#xfebc;&#xfef2;" horiz-adv-x="3120" arabic-form="final" 
d="M773 -604l-103 -102l-89 88l-89 -88l-102 102l102 103l89 -90l89 90zM2740 140q13 29 18 65.5t5 72.5q0 66 -10.5 112.5t-26.5 61.5q-26 26 -63.5 39.5t-82.5 13.5q-66 0 -125 -24t-118 -70.5t-121 -114.5t-134 -156h658zM1422 0q-69 0 -118 12.5t-83 26.5
q-72 -182 -227 -282t-393 -100q-161 0 -275 42.5t-186.5 111t-106 153.5t-33.5 170q0 57 13 107t32 87.5t40.5 59t39.5 21.5q11 0 18 -7q-10 -18 -18 -43t-14 -52t-9 -54.5t-3 -51.5q0 -89 37.5 -162t105.5 -125.5t163.5 -81.5t212.5 -29q122 0 211.5 25t147.5 62.5t86 81.5
t28 82q0 7 -3.5 20.5t-12.5 18.5q-21 12 -44 25t-42.5 26.5t-32 27t-12.5 25.5q0 33 9.5 66t25.5 57q106 -91 216.5 -135.5t207.5 -44.5h269q10 42 15.5 76.5t5.5 68.5q0 52 -13 97t-36 90q-5 9 -8.5 17t-3.5 13t5 8l126 69l3 -1q21 -48 32.5 -97t11.5 -106q0 -39 -6 -81
q-1 -5 -1.5 -11t-0.5 -11q0 -27 6.5 -51t21 -42t38.5 -28.5t59 -10.5h11q41 56 87 114t96 113t103 103.5t107.5 85t109 57.5t107.5 21q30 0 64 -6.5t69 -25t69.5 -51t66.5 -84.5q38 -63 51.5 -111.5t13.5 -92.5q0 -36 17 -59.5t46 -37.5t68 -20t83 -6h24q16 0 29.5 -2
t22.5 -9.5t14 -21.5t5 -38q0 -22 -5.5 -35.5t-15 -21t-22.5 -10t-28 -2.5h-13q-48 0 -88.5 14t-71 35.5t-50.5 46.5t-27 48q-6 -39 -14 -77t-16 -67h-901q-70 0 -108 40.5t-54 136.5q-17 -46 -39.5 -89t-48.5 -88h-267z" />
    <glyph glyph-name="uniFD23" unicode="&#xfec0;&#xfef0;" horiz-adv-x="3120" arabic-form="final" 
d="M2740 140q13 29 18 65.5t5 72.5q0 66 -10.5 112.5t-26.5 61.5q-26 26 -63.5 39.5t-82.5 13.5q-66 0 -125 -24t-118 -70.5t-121 -114.5t-134 -156h658zM1422 0q-69 0 -118 12.5t-83 26.5q-72 -182 -227 -282t-393 -100q-161 0 -275 42.5t-186.5 111t-106 153.5t-33.5 170
q0 57 13 107t32 87.5t40.5 59t39.5 21.5q11 0 18 -7q-10 -18 -18 -43t-14 -52t-9 -54.5t-3 -51.5q0 -89 37.5 -162t105.5 -125.5t163.5 -81.5t212.5 -29q122 0 211.5 25t147.5 62.5t86 81.5t28 82q0 7 -3.5 20.5t-12.5 18.5q-21 12 -44 25t-42.5 26.5t-32 27t-12.5 25.5
q0 33 9.5 66t25.5 57q106 -91 216.5 -135.5t207.5 -44.5h269q10 42 15.5 76.5t5.5 68.5q0 52 -13 97t-36 90q-5 9 -8.5 17t-3.5 13t5 8l126 69l3 -1q21 -48 32.5 -97t11.5 -106q0 -39 -6 -81q-1 -5 -1.5 -11t-0.5 -11q0 -27 6.5 -51t21 -42t38.5 -28.5t59 -10.5h11
q41 56 87 114t96 113t103 103.5t107.5 85t109 57.5t107.5 21q30 0 64 -6.5t69 -25t69.5 -51t66.5 -84.5q38 -63 51.5 -111.5t13.5 -92.5q0 -36 17 -59.5t46 -37.5t68 -20t83 -6h24q16 0 29.5 -2t22.5 -9.5t14 -21.5t5 -38q0 -22 -5.5 -35.5t-15 -21t-22.5 -10t-28 -2.5h-13
q-48 0 -88.5 14t-71 35.5t-50.5 46.5t-27 48q-6 -39 -14 -77t-16 -67h-901q-70 0 -108 40.5t-54 136.5q-17 -46 -39.5 -89t-48.5 -88h-267zM2655 968l-103 -102l-102 102l102 103z" />
    <glyph glyph-name="uniFD24" unicode="&#xfec0;&#xfef2;" horiz-adv-x="3120" arabic-form="final" 
d="M773 -604l-103 -102l-89 88l-89 -88l-102 102l102 103l89 -90l89 90zM2740 140q13 29 18 65.5t5 72.5q0 66 -10.5 112.5t-26.5 61.5q-26 26 -63.5 39.5t-82.5 13.5q-66 0 -125 -24t-118 -70.5t-121 -114.5t-134 -156h658zM1422 0q-69 0 -118 12.5t-83 26.5
q-72 -182 -227 -282t-393 -100q-161 0 -275 42.5t-186.5 111t-106 153.5t-33.5 170q0 57 13 107t32 87.5t40.5 59t39.5 21.5q11 0 18 -7q-10 -18 -18 -43t-14 -52t-9 -54.5t-3 -51.5q0 -89 37.5 -162t105.5 -125.5t163.5 -81.5t212.5 -29q122 0 211.5 25t147.5 62.5t86 81.5
t28 82q0 7 -3.5 20.5t-12.5 18.5q-21 12 -44 25t-42.5 26.5t-32 27t-12.5 25.5q0 33 9.5 66t25.5 57q106 -91 216.5 -135.5t207.5 -44.5h269q10 42 15.5 76.5t5.5 68.5q0 52 -13 97t-36 90q-5 9 -8.5 17t-3.5 13t5 8l126 69l3 -1q21 -48 32.5 -97t11.5 -106q0 -39 -6 -81
q-1 -5 -1.5 -11t-0.5 -11q0 -27 6.5 -51t21 -42t38.5 -28.5t59 -10.5h11q41 56 87 114t96 113t103 103.5t107.5 85t109 57.5t107.5 21q30 0 64 -6.5t69 -25t69.5 -51t66.5 -84.5q38 -63 51.5 -111.5t13.5 -92.5q0 -36 17 -59.5t46 -37.5t68 -20t83 -6h24q16 0 29.5 -2
t22.5 -9.5t14 -21.5t5 -38q0 -22 -5.5 -35.5t-15 -21t-22.5 -10t-28 -2.5h-13q-48 0 -88.5 14t-71 35.5t-50.5 46.5t-27 48q-6 -39 -14 -77t-16 -67h-901q-70 0 -108 40.5t-54 136.5q-17 -46 -39.5 -89t-48.5 -88h-267zM2655 968l-103 -102l-102 102l102 103z" />
    <glyph glyph-name="uniFD29" unicode="&#xfeb8;&#xfeae;" horiz-adv-x="2480" arabic-form="final" 
d="M835 0q-79 0 -139 37t-95 95q-9 -49 -25.5 -103t-41 -106.5t-57.5 -99.5t-75.5 -83t-95 -57t-115.5 -21q-34 0 -66 10.5t-57.5 30.5t-43.5 47.5t-24 62.5q87 -22 161 -22q94 0 156.5 34t99.5 89.5t52 127.5t15 148q0 83 -26 171t-88 201q-11 20 -11 30q0 5 4 8l126 69
l3 -1q34 -65 54 -120t32.5 -105t19.5 -96t15 -92q5 -32 18 -54t37.5 -35.5t62 -19.5t92.5 -6h352q10 42 15.5 78t5.5 70q0 52 -16 88t-33 67q-10 16 -10 29q0 8 6 11l123 67l3 -1q12 -26 28 -70.5t16 -100.5q0 -39 -6 -81q-1 -5 -1.5 -11t-0.5 -11q0 -27 10 -51.5t35 -43
t66.5 -29.5t104.5 -11h124q10 42 15.5 78t5.5 70q0 58 -16 105t-40 97q-4 9 -7 16.5t-3 13.5t5 9l124 68l3 -1q10 -17 19.5 -41t16.5 -52.5t11 -60t4 -64.5q0 -39 -6 -81q-1 -5 -1.5 -11t-0.5 -11q0 -27 10 -51.5t35 -43t66.5 -29.5t104.5 -11h124q10 42 15.5 78t5.5 70
q0 29 -3.5 55t-11 51.5t-19.5 52.5t-29 58q-11 20 -11 30q0 3 2 5.5t10 7.5l118 64l3 -1q28 -55 43 -111t15 -122q0 -39 -6 -81q-1 -5 -1.5 -11t-0.5 -11q0 -27 10 -51.5t35 -43t66.5 -29.5t104.5 -11h19q16 0 29.5 -2t22.5 -9.5t14 -21.5t5 -38q0 -22 -5.5 -35.5t-15 -21
t-22.5 -10t-28 -2.5h-7q-35 0 -73 10t-73 31.5t-63.5 55.5t-43.5 83q-17 -46 -39.5 -90.5t-48.5 -89.5h-129q-35 0 -73 10t-73 31.5t-63.5 55.5t-43.5 83q-17 -46 -39.5 -90.5t-48.5 -89.5h-129q-35 0 -73 10t-73 31.5t-63.5 55.5t-43.5 83q-17 -46 -39.5 -90.5t-48.5 -89.5
h-357zM1803 1195l-103 -102l-102 102l102 103zM1891 968l-103 -102l-89 88l-89 -88l-102 102l102 103l89 -90l89 90z" />
    <glyph glyph-name="uniFD2A" unicode="&#xfeb4;&#xfeae;" horiz-adv-x="2480" arabic-form="final" 
d="M835 0q-79 0 -139 37t-95 95q-9 -49 -25.5 -103t-41 -106.5t-57.5 -99.5t-75.5 -83t-95 -57t-115.5 -21q-34 0 -66 10.5t-57.5 30.5t-43.5 47.5t-24 62.5q87 -22 161 -22q94 0 156.5 34t99.5 89.5t52 127.5t15 148q0 83 -26 171t-88 201q-11 20 -11 30q0 5 4 8l126 69
l3 -1q34 -65 54 -120t32.5 -105t19.5 -96t15 -92q5 -32 18 -54t37.5 -35.5t62 -19.5t92.5 -6h352q10 42 15.5 78t5.5 70q0 52 -16 88t-33 67q-10 16 -10 29q0 8 6 11l123 67l3 -1q12 -26 28 -70.5t16 -100.5q0 -39 -6 -81q-1 -5 -1.5 -11t-0.5 -11q0 -27 10 -51.5t35 -43
t66.5 -29.5t104.5 -11h124q10 42 15.5 78t5.5 70q0 58 -16 105t-40 97q-4 9 -7 16.5t-3 13.5t5 9l124 68l3 -1q10 -17 19.5 -41t16.5 -52.5t11 -60t4 -64.5q0 -39 -6 -81q-1 -5 -1.5 -11t-0.5 -11q0 -27 10 -51.5t35 -43t66.5 -29.5t104.5 -11h124q10 42 15.5 78t5.5 70
q0 29 -3.5 55t-11 51.5t-19.5 52.5t-29 58q-11 20 -11 30q0 3 2 5.5t10 7.5l118 64l3 -1q28 -55 43 -111t15 -122q0 -39 -6 -81q-1 -5 -1.5 -11t-0.5 -11q0 -27 10 -51.5t35 -43t66.5 -29.5t104.5 -11h19q16 0 29.5 -2t22.5 -9.5t14 -21.5t5 -38q0 -22 -5.5 -35.5t-15 -21
t-22.5 -10t-28 -2.5h-7q-35 0 -73 10t-73 31.5t-63.5 55.5t-43.5 83q-17 -46 -39.5 -90.5t-48.5 -89.5h-129q-35 0 -73 10t-73 31.5t-63.5 55.5t-43.5 83q-17 -46 -39.5 -90.5t-48.5 -89.5h-129q-35 0 -73 10t-73 31.5t-63.5 55.5t-43.5 83q-17 -46 -39.5 -90.5t-48.5 -89.5
h-357z" />
    <glyph glyph-name="uniFD2B" unicode="&#xfebc;&#xfeae;" horiz-adv-x="2505" arabic-form="final" 
d="M2125 140q13 29 18 65.5t5 72.5q0 66 -10.5 112.5t-26.5 61.5q-26 26 -63.5 39.5t-82.5 13.5q-66 0 -125 -24t-118 -70.5t-121 -114.5t-134 -156h658zM835 0q-79 0 -139 37t-95 95q-9 -49 -25.5 -103t-41 -106.5t-57.5 -99.5t-75.5 -83t-95 -57t-115.5 -21
q-34 0 -66 10.5t-57.5 30.5t-43.5 47.5t-24 62.5q87 -22 161 -22q94 0 156.5 34t99.5 89.5t52 127.5t15 148q0 83 -26 171t-88 201q-11 20 -11 30q0 5 4 8l126 69l3 -1q34 -65 54 -120t32.5 -105t19.5 -96t15 -92q5 -32 18 -54t37.5 -35.5t62 -19.5t92.5 -6h234
q10 42 15.5 76.5t5.5 68.5q0 52 -13 97t-36 90q-5 9 -8.5 17t-3.5 13t5 8l126 69l3 -1q21 -48 32.5 -97t11.5 -106q0 -39 -6 -81q-1 -5 -1.5 -11t-0.5 -11q0 -27 6.5 -51t21 -42t38.5 -28.5t59 -10.5h11q41 56 87 114t96 113t103 103.5t107.5 85t109 57.5t107.5 21
q30 0 64 -6.5t69 -25t69.5 -51t66.5 -84.5q38 -63 51.5 -111.5t13.5 -92.5q0 -36 17 -59.5t46 -37.5t68 -20t83 -6h24q16 0 29.5 -2t22.5 -9.5t14 -21.5t5 -38q0 -22 -5.5 -35.5t-15 -21t-22.5 -10t-28 -2.5h-13q-48 0 -88.5 14t-71 35.5t-50.5 46.5t-27 48q-6 -39 -14 -77
t-16 -67h-901q-70 0 -108 40.5t-54 136.5q-17 -46 -39.5 -89t-48.5 -88h-239z" />
    <glyph glyph-name="uniFD2C" unicode="&#xfec0;&#xfeae;" horiz-adv-x="2505" arabic-form="final" 
d="M2125 140q13 29 18 65.5t5 72.5q0 66 -10.5 112.5t-26.5 61.5q-26 26 -63.5 39.5t-82.5 13.5q-66 0 -125 -24t-118 -70.5t-121 -114.5t-134 -156h658zM835 0q-79 0 -139 37t-95 95q-9 -49 -25.5 -103t-41 -106.5t-57.5 -99.5t-75.5 -83t-95 -57t-115.5 -21
q-34 0 -66 10.5t-57.5 30.5t-43.5 47.5t-24 62.5q87 -22 161 -22q94 0 156.5 34t99.5 89.5t52 127.5t15 148q0 83 -26 171t-88 201q-11 20 -11 30q0 5 4 8l126 69l3 -1q34 -65 54 -120t32.5 -105t19.5 -96t15 -92q5 -32 18 -54t37.5 -35.5t62 -19.5t92.5 -6h234
q10 42 15.5 76.5t5.5 68.5q0 52 -13 97t-36 90q-5 9 -8.5 17t-3.5 13t5 8l126 69l3 -1q21 -48 32.5 -97t11.5 -106q0 -39 -6 -81q-1 -5 -1.5 -11t-0.5 -11q0 -27 6.5 -51t21 -42t38.5 -28.5t59 -10.5h11q41 56 87 114t96 113t103 103.5t107.5 85t109 57.5t107.5 21
q30 0 64 -6.5t69 -25t69.5 -51t66.5 -84.5q38 -63 51.5 -111.5t13.5 -92.5q0 -36 17 -59.5t46 -37.5t68 -20t83 -6h24q16 0 29.5 -2t22.5 -9.5t14 -21.5t5 -38q0 -22 -5.5 -35.5t-15 -21t-22.5 -10t-28 -2.5h-13q-48 0 -88.5 14t-71 35.5t-50.5 46.5t-27 48q-6 -39 -14 -77
t-16 -67h-901q-70 0 -108 40.5t-54 136.5q-17 -46 -39.5 -89t-48.5 -88h-239zM2040 968l-103 -102l-102 102l102 103z" />
    <glyph glyph-name="uniFEF5" unicode="&#xfedf;&#xfe82;" horiz-adv-x="1222" arabic-form="isolated" 
d="M1102 162q0 -12 -9 -29t-23 -35t-31 -35.5t-33 -31.5t-30 -22.5t-21 -8.5h-855q0 18 7 42t22.5 45.5t40 37t60.5 15.5h279v747l129 69v-816h335v1176l129 44v-1198zM301 1101q-2 -2 -7 -2q-6 0 -13 2t-9 8q3 33 13 62t26 50.5t36.5 33.5t43.5 12q18 0 40.5 -3.5
t47.5 -9.5t51 -14t49 -17q121 -44 165 -44q27 0 45 9t29.5 22.5t17.5 29t8 29.5q1 7 5.5 9t8.5 2t6 -2q2 -7 2.5 -18.5t0.5 -21.5q0 -21 -4.5 -48.5t-19.5 -52.5t-42.5 -42t-73.5 -17q-39 0 -86 13.5t-96 30.5q-48 17 -94 29.5t-88 12.5q-12 0 -21.5 -6.5t-17 -16
t-13.5 -20.5t-10 -20z" />
    <glyph glyph-name="uniFEF6" unicode="&#xfee0;&#xfe82;" horiz-adv-x="1354" arabic-form="final" 
d="M1328 0q-30 0 -63 7.5t-64.5 23.5t-59 41t-46.5 60q-20 -80 -93 -132h-902q0 18 7 42t22.5 45.5t40 37t60.5 15.5h279v747l129 69v-816h335v1176l129 44v-1082q2 -30 11.5 -55t33 -43.5t64.5 -29t106 -10.5h37q16 0 29.5 -2t22.5 -9.5t14 -21.5t5 -38q0 -22 -5.5 -35.5
t-15 -21t-22.5 -10t-28 -2.5h-26zM301 1105q-2 -2 -7 -2q-6 0 -13 2t-9 8q3 33 13 62t26 50.5t36.5 33.5t43.5 12q18 0 40.5 -3.5t47.5 -9.5t51 -14t49 -17q121 -44 165 -44q27 0 45 9t29.5 22.5t17.5 29t8 29.5q1 7 5.5 9t8.5 2t6 -2q2 -7 2.5 -18.5t0.5 -21.5
q0 -21 -4.5 -48.5t-19.5 -52.5t-42.5 -42t-73.5 -17q-39 0 -86 13.5t-96 30.5q-48 17 -94 29.5t-88 12.5q-12 0 -21.5 -6.5t-17 -16t-13.5 -20.5t-10 -20z" />
    <glyph glyph-name="uniFEF7" unicode="&#xfedf;&#xfe84;" horiz-adv-x="1222" arabic-form="isolated" 
d="M1102 162q0 -12 -9 -29t-23 -35t-31 -35.5t-33 -31.5t-30 -22.5t-21 -8.5h-855q0 18 7 42t22.5 45.5t40 37t60.5 15.5h279v747l129 69v-816h335v1176l129 44v-1198zM518 1240q0 -19 12 -35.5t32.5 -29t48 -19.5t59.5 -7q12 0 26.5 1.5t28.5 3.5l-32 -59l-280 -36l28 58
l94 13q-33 14 -56 38t-23 55q0 25 17 49t43 43t56 30.5t57 11.5q39 0 74 -23l-33 -57q-16 11 -36.5 17t-40.5 6q-28 0 -51.5 -16.5t-23.5 -43.5z" />
    <glyph glyph-name="uniFEF8" unicode="&#xfee0;&#xfe84;" horiz-adv-x="1354" arabic-form="final" 
d="M1328 0q-30 0 -63 7.5t-64.5 23.5t-59 41t-46.5 60q-20 -80 -93 -132h-902q0 18 7 42t22.5 45.5t40 37t60.5 15.5h279v747l129 69v-816h335v1176l129 44v-1082q2 -30 11.5 -55t33 -43.5t64.5 -29t106 -10.5h37q16 0 29.5 -2t22.5 -9.5t14 -21.5t5 -38q0 -22 -5.5 -35.5
t-15 -21t-22.5 -10t-28 -2.5h-26zM518 1240q0 -19 12 -35.5t32.5 -29t48 -19.5t59.5 -7q12 0 26.5 1.5t28.5 3.5l-32 -59l-280 -36l28 58l94 13q-33 14 -56 38t-23 55q0 25 17 49t43 43t56 30.5t57 11.5q39 0 74 -23l-33 -57q-16 11 -36.5 17t-40.5 6q-28 0 -51.5 -16.5
t-23.5 -43.5z" />
    <glyph glyph-name="uniFEF9" unicode="&#xfedf;&#xfe88;" horiz-adv-x="1222" arabic-form="isolated" 
d="M1102 162q0 -12 -9 -29t-23 -35t-31 -35.5t-33 -31.5t-30 -22.5t-21 -8.5h-855q0 18 7 42t22.5 45.5t40 37t60.5 15.5h279v747l129 69v-816h335v1176l129 44v-1198zM521 -239q0 -19 12 -35.5t32.5 -29t48 -19.5t59.5 -7q12 0 26.5 1.5t28.5 3.5l-32 -59l-280 -36l28 58
l94 13q-33 14 -56 38t-23 55q0 25 17 49t43 43t56 30.5t57 11.5q39 0 74 -23l-33 -57q-16 11 -36.5 17t-40.5 6q-28 0 -51.5 -16.5t-23.5 -43.5z" />
    <glyph glyph-name="uniFEFA" unicode="&#xfee0;&#xfe88;" horiz-adv-x="1354" arabic-form="final" 
d="M1328 0q-30 0 -63 7.5t-64.5 23.5t-59 41t-46.5 60q-20 -80 -93 -132h-902q0 18 7 42t22.5 45.5t40 37t60.5 15.5h279v747l129 69v-816h335v1176l129 44v-1082q2 -30 11.5 -55t33 -43.5t64.5 -29t106 -10.5h37q16 0 29.5 -2t22.5 -9.5t14 -21.5t5 -38q0 -22 -5.5 -35.5
t-15 -21t-22.5 -10t-28 -2.5h-26zM515 -239q0 -19 12 -35.5t32.5 -29t48 -19.5t59.5 -7q12 0 26.5 1.5t28.5 3.5l-32 -59l-280 -36l28 58l94 13q-33 14 -56 38t-23 55q0 25 17 49t43 43t56 30.5t57 11.5q39 0 74 -23l-33 -57q-16 11 -36.5 17t-40.5 6q-28 0 -51.5 -16.5
t-23.5 -43.5z" />
    <glyph glyph-name="uniFEFB" unicode="&#xfedf;&#xfe8e;" horiz-adv-x="1222" arabic-form="isolated" 
d="M1102 162q0 -12 -9 -29t-23 -35t-31 -35.5t-33 -31.5t-30 -22.5t-21 -8.5h-855q0 18 7 42t22.5 45.5t40 37t60.5 15.5h279v747l129 69v-816h335v1176l129 44v-1198z" />
    <glyph glyph-name="uniFEFC" unicode="&#xfee0;&#xfe8e;" horiz-adv-x="1354" arabic-form="final" 
d="M1328 0q-30 0 -63 7.5t-64.5 23.5t-59 41t-46.5 60q-20 -80 -93 -132h-902q0 18 7 42t22.5 45.5t40 37t60.5 15.5h279v747l129 69v-816h335v1176l129 44v-1082q2 -30 11.5 -55t33 -43.5t64.5 -29t106 -10.5h37q16 0 29.5 -2t22.5 -9.5t14 -21.5t5 -38q0 -22 -5.5 -35.5
t-15 -21t-22.5 -10t-28 -2.5h-26z" />
    <glyph glyph-name="uniFE8B_uniFEE4.liga" unicode="&#xfe8b;&#xfee4;" horiz-adv-x="1521" 
d="M266 191q63 -28 130.5 -42t152.5 -14q76 0 118.5 22t42.5 70q0 46 -18.5 95.5t-50.5 90t-77 66.5t-97 26q-69 0 -114 -77.5t-87 -236.5zM887 0q-54 0 -89.5 36t-53.5 111q-14 -31 -31.5 -58.5t-42.5 -48.5t-59.5 -33t-82.5 -12q-66 0 -113 10.5t-81 27.5t-57.5 38.5
t-41.5 43.5q-24 -54 -61 -84.5t-88 -30.5h-86q-17 0 -30 2t-22 9.5t-14 21.5t-5 38q0 43 20 56t51 13h87q28 0 50 22t39 58t31 81t27 91q15 54 36.5 100t52 79.5t70.5 52t92 18.5q67 0 122 -28.5t95 -73.5t65 -100t32 -109q6 -43 12.5 -78t20.5 -60t38.5 -39t66.5 -14h367
q10 41 10 87q0 40 -11 80.5t-31 81.5t-47 84t-59 89q-5 8 -9 15t-4 13q0 7 6 10l126 69l3 -1q6 -12 13.5 -28t16 -34t16.5 -35.5t15 -32.5q26 -60 47 -119.5t21 -122.5q0 -65 -29 -137q-16 -39 -36 -78t-44 -81h-421zM1057 780l37 80l125 17q-45 19 -75.5 49.5t-30.5 70.5
q0 24 13.5 50.5t45.5 54.5q32 30 76 54t95 24q26 0 53 -8t56 -27l-42 -69q-26 17 -54 26.5t-56 9.5q-21 0 -39.5 -6.5t-33 -18t-22.5 -27.5t-8 -34q0 -28 17 -50.5t45 -38t64.5 -24t74.5 -8.5q16 0 33.5 1.5t37.5 3.5l-41 -81z" />
    <glyph glyph-name="uniFE8B_uniFEF0.liga" unicode="&#xfe8b;&#xfef0;" horiz-adv-x="1983" 
d="M1517 780l37 80l125 17q-45 19 -75.5 49.5t-30.5 70.5q0 24 13.5 50.5t45.5 54.5q32 30 76 54t95 24q26 0 53 -8t56 -27l-42 -69q-26 17 -54 26.5t-56 9.5q-21 0 -39.5 -6.5t-33 -18t-22.5 -27.5t-8 -34q0 -28 17 -50.5t45 -38t64.5 -24t74.5 -8.5q16 0 33.5 1.5
t37.5 3.5l-41 -81zM1422 0q-69 0 -118 12.5t-83 26.5q-72 -182 -227 -282t-393 -100q-161 0 -275 42.5t-186.5 111t-106 153.5t-33.5 170q0 57 13 107t32 87.5t40.5 59t39.5 21.5q11 0 18 -7q-10 -18 -18 -43t-14 -52t-9 -54.5t-3 -51.5q0 -89 37.5 -162t105.5 -125.5
t163.5 -81.5t212.5 -29q122 0 211.5 25t147.5 62.5t86 81.5t28 82q0 7 -3.5 20.5t-12.5 18.5q-21 12 -44 25t-42.5 26.5t-32 27t-12.5 25.5q0 33 9.5 66t25.5 57q106 -91 216.5 -135.5t207.5 -44.5h361q10 41 10 87q0 40 -11 80.5t-31 81.5t-47 84t-59 89q-5 8 -9 15t-4 13
q0 7 6 10l126 69l3 -1q6 -12 13.5 -28t16 -34t16.5 -35.5t15 -32.5q26 -60 47 -119.5t21 -122.5q0 -65 -29 -137q-16 -39 -36 -78t-44 -81h-346z" />
    <glyph glyph-name="uniFE8B_uniFEF2.liga" unicode="&#xfe8b;&#xfef2;" horiz-adv-x="1983" 
d="M773 -604l-103 -102l-89 88l-89 -88l-102 102l102 103l89 -90l89 90zM1517 780l37 80l125 17q-45 19 -75.5 49.5t-30.5 70.5q0 24 13.5 50.5t45.5 54.5q32 30 76 54t95 24q26 0 53 -8t56 -27l-42 -69q-26 17 -54 26.5t-56 9.5q-21 0 -39.5 -6.5t-33 -18t-22.5 -27.5
t-8 -34q0 -28 17 -50.5t45 -38t64.5 -24t74.5 -8.5q16 0 33.5 1.5t37.5 3.5l-41 -81zM1422 0q-69 0 -118 12.5t-83 26.5q-72 -182 -227 -282t-393 -100q-161 0 -275 42.5t-186.5 111t-106 153.5t-33.5 170q0 57 13 107t32 87.5t40.5 59t39.5 21.5q11 0 18 -7
q-10 -18 -18 -43t-14 -52t-9 -54.5t-3 -51.5q0 -89 37.5 -162t105.5 -125.5t163.5 -81.5t212.5 -29q122 0 211.5 25t147.5 62.5t86 81.5t28 82q0 7 -3.5 20.5t-12.5 18.5q-21 12 -44 25t-42.5 26.5t-32 27t-12.5 25.5q0 33 9.5 66t25.5 57q106 -91 216.5 -135.5t207.5 -44.5
h361q10 41 10 87q0 40 -11 80.5t-31 81.5t-47 84t-59 89q-5 8 -9 15t-4 13q0 7 6 10l126 69l3 -1q6 -12 13.5 -28t16 -34t16.5 -35.5t15 -32.5q26 -60 47 -119.5t21 -122.5q0 -65 -29 -137q-16 -39 -36 -78t-44 -81h-346z" />
    <glyph glyph-name="uniFE91_uniFEE4.liga" unicode="&#xfe91;&#xfee4;" horiz-adv-x="1524" 
d="M1324 -301l-103 -102l-102 102l102 103zM266 191q63 -28 130.5 -42t152.5 -14q76 0 118.5 22t42.5 70q0 46 -18.5 95.5t-50.5 90t-77 66.5t-97 26q-69 0 -114 -77.5t-87 -236.5zM887 0q-54 0 -89.5 36t-53.5 111q-14 -31 -31.5 -58.5t-42.5 -48.5t-59.5 -33t-82.5 -12
q-66 0 -113 10.5t-81 27.5t-57.5 38.5t-41.5 43.5q-24 -54 -61 -84.5t-88 -30.5h-86q-17 0 -30 2t-22 9.5t-14 21.5t-5 38q0 43 20 56t51 13h87q28 0 50 22t39 58t31 81t27 91q15 54 36.5 100t52 79.5t70.5 52t92 18.5q67 0 122 -28.5t95 -73.5t65 -100t32 -109
q6 -43 12.5 -78t20.5 -60t38.5 -39t66.5 -14h367q10 41 10 87q0 40 -11 80.5t-31 81.5t-47 84t-59 89q-5 8 -9 15t-4 13q0 7 6 10l126 69l3 -1q6 -12 13.5 -28t16 -34t16.5 -35.5t15 -32.5q26 -60 47 -119.5t21 -122.5q0 -65 -29 -137q-16 -39 -36 -78t-44 -81h-421z" />
    <glyph glyph-name="uniFE92_uniFEE6.liga" unicode="&#xfe92;&#xfee6;" horiz-adv-x="1851" 
d="M562 767l-103 -102l-102 102l102 103zM1620 -301l-103 -102l-102 102l102 103zM1181 0q-31 0 -64.5 7.5t-64.5 23.5t-58.5 42t-46.5 63q-15 -95 -56 -174.5t-103 -136.5t-143 -88.5t-176 -31.5q-109 0 -196 32t-147.5 88.5t-93 134t-32.5 169.5q0 59 14.5 113t35.5 95
t44 65.5t40 24.5q9 0 17 -8q-9 -14 -17.5 -38.5t-15.5 -53t-11 -57.5t-4 -52q0 -89 29 -156.5t80 -113.5t120.5 -69t150.5 -23q94 0 165 25t117.5 65.5t70 91.5t23.5 102q0 52 -11 101t-30 93.5t-44 84.5t-52 73q-9 12 -9 18q0 7 8 12l117 75l3 -1q58 -84 87 -175.5
t29 -176.5q0 -21 10 -40t34 -33t65 -22.5t103 -8.5h313q10 42 15.5 78t5.5 70q0 33 -5 62t-15 58.5t-26 61.5t-37 71q-11 20 -11 30q0 6 7 10l123 67l3 -1q38 -63 58 -128.5t20 -140.5q0 -39 -6 -81q-1 -5 -1.5 -11t-0.5 -11q0 -27 10 -51.5t35 -43t66.5 -29.5t104.5 -11h22
q16 0 29.5 -2t22.5 -9.5t14 -21.5t5 -38q0 -22 -5.5 -35.5t-15 -21t-22.5 -10t-28 -2.5h-10q-35 0 -73 10t-73 31.5t-63.5 55.5t-43.5 83q-17 -46 -39.5 -90.5t-48.5 -89.5h-318z" />
    <glyph glyph-name="uniFE91_uniFEF0.liga" unicode="&#xfe91;&#xfef0;" horiz-adv-x="1984" 
d="M1422 0q-69 0 -118 12.5t-83 26.5q-72 -182 -227 -282t-393 -100q-161 0 -275 42.5t-186.5 111t-106 153.5t-33.5 170q0 57 13 107t32 87.5t40.5 59t39.5 21.5q11 0 18 -7q-10 -18 -18 -43t-14 -52t-9 -54.5t-3 -51.5q0 -89 37.5 -162t105.5 -125.5t163.5 -81.5
t212.5 -29q122 0 211.5 25t147.5 62.5t86 81.5t28 82q0 7 -3.5 20.5t-12.5 18.5q-21 12 -44 25t-42.5 26.5t-32 27t-12.5 25.5q0 33 9.5 66t25.5 57q106 -91 216.5 -135.5t207.5 -44.5h361q10 41 10 87q0 40 -11 80.5t-31 81.5t-47 84t-59 89q-5 8 -9 15t-4 13q0 7 6 10
l126 69l3 -1q6 -12 13.5 -28t16 -34t16.5 -35.5t15 -32.5q26 -60 47 -119.5t21 -122.5q0 -65 -29 -137q-16 -39 -36 -78t-44 -81h-346zM1784 -301l-103 -102l-102 102l102 103z" />
    <glyph glyph-name="uniFE91_uniFEF2.liga" unicode="&#xfe91;&#xfef2;" horiz-adv-x="1984" 
d="M773 -604l-103 -102l-89 88l-89 -88l-102 102l102 103l89 -90l89 90zM1422 0q-69 0 -118 12.5t-83 26.5q-72 -182 -227 -282t-393 -100q-161 0 -275 42.5t-186.5 111t-106 153.5t-33.5 170q0 57 13 107t32 87.5t40.5 59t39.5 21.5q11 0 18 -7q-10 -18 -18 -43t-14 -52
t-9 -54.5t-3 -51.5q0 -89 37.5 -162t105.5 -125.5t163.5 -81.5t212.5 -29q122 0 211.5 25t147.5 62.5t86 81.5t28 82q0 7 -3.5 20.5t-12.5 18.5q-21 12 -44 25t-42.5 26.5t-32 27t-12.5 25.5q0 33 9.5 66t25.5 57q106 -91 216.5 -135.5t207.5 -44.5h361q10 41 10 87
q0 40 -11 80.5t-31 81.5t-47 84t-59 89q-5 8 -9 15t-4 13q0 7 6 10l126 69l3 -1q6 -12 13.5 -28t16 -34t16.5 -35.5t15 -32.5q26 -60 47 -119.5t21 -122.5q0 -65 -29 -137q-16 -39 -36 -78t-44 -81h-346zM1784 -301l-103 -102l-102 102l102 103z" />
    <glyph glyph-name="uniFE97_uniFEE4.liga" unicode="&#xfe97;&#xfee4;" horiz-adv-x="1516" 
d="M1410 968l-103 -102l-89 88l-89 -88l-102 102l102 103l89 -90l89 90zM266 191q63 -28 130.5 -42t152.5 -14q76 0 118.5 22t42.5 70q0 46 -18.5 95.5t-50.5 90t-77 66.5t-97 26q-69 0 -114 -77.5t-87 -236.5zM887 0q-54 0 -89.5 36t-53.5 111q-14 -31 -31.5 -58.5
t-42.5 -48.5t-59.5 -33t-82.5 -12q-66 0 -113 10.5t-81 27.5t-57.5 38.5t-41.5 43.5q-24 -54 -61 -84.5t-88 -30.5h-86q-17 0 -30 2t-22 9.5t-14 21.5t-5 38q0 43 20 56t51 13h87q28 0 50 22t39 58t31 81t27 91q15 54 36.5 100t52 79.5t70.5 52t92 18.5q67 0 122 -28.5
t95 -73.5t65 -100t32 -109q6 -43 12.5 -78t20.5 -60t38.5 -39t66.5 -14h367q10 41 10 87q0 40 -11 80.5t-31 81.5t-47 84t-59 89q-5 8 -9 15t-4 13q0 7 6 10l126 69l3 -1q6 -12 13.5 -28t16 -34t16.5 -35.5t15 -32.5q26 -60 47 -119.5t21 -122.5q0 -65 -29 -137
q-16 -39 -36 -78t-44 -81h-421z" />
    <glyph glyph-name="uniFE98_uniFEE6.liga" unicode="&#xfe98;&#xfee6;" horiz-adv-x="1850" 
d="M562 767l-103 -102l-102 102l102 103zM1636 968l-103 -102l-89 88l-89 -88l-102 102l102 103l89 -90l89 90zM1181 0q-31 0 -64.5 7.5t-64.5 23.5t-58.5 42t-46.5 63q-15 -95 -56 -174.5t-103 -136.5t-143 -88.5t-176 -31.5q-109 0 -196 32t-147.5 88.5t-93 134
t-32.5 169.5q0 59 14.5 113t35.5 95t44 65.5t40 24.5q9 0 17 -8q-9 -14 -17.5 -38.5t-15.5 -53t-11 -57.5t-4 -52q0 -89 29 -156.5t80 -113.5t120.5 -69t150.5 -23q94 0 165 25t117.5 65.5t70 91.5t23.5 102q0 52 -11 101t-30 93.5t-44 84.5t-52 73q-9 12 -9 18q0 7 8 12
l117 75l3 -1q58 -84 87 -175.5t29 -176.5q0 -21 10 -40t34 -33t65 -22.5t103 -8.5h313q10 42 15.5 78t5.5 70q0 33 -5 62t-15 58.5t-26 61.5t-37 71q-11 20 -11 30q0 6 7 10l123 67l3 -1q38 -63 58 -128.5t20 -140.5q0 -39 -6 -81q-1 -5 -1.5 -11t-0.5 -11q0 -27 10 -51.5
t35 -43t66.5 -29.5t104.5 -11h22q16 0 29.5 -2t22.5 -9.5t14 -21.5t5 -38q0 -22 -5.5 -35.5t-15 -21t-22.5 -10t-28 -2.5h-10q-35 0 -73 10t-73 31.5t-63.5 55.5t-43.5 83q-17 -46 -39.5 -90.5t-48.5 -89.5h-318z" />
    <glyph glyph-name="uniFE97_uniFEF0.liga" unicode="&#xfe97;&#xfef0;" horiz-adv-x="1980" 
d="M1880 968l-103 -102l-89 88l-89 -88l-102 102l102 103l89 -90l89 90zM1422 0q-69 0 -118 12.5t-83 26.5q-72 -182 -227 -282t-393 -100q-161 0 -275 42.5t-186.5 111t-106 153.5t-33.5 170q0 57 13 107t32 87.5t40.5 59t39.5 21.5q11 0 18 -7q-10 -18 -18 -43t-14 -52
t-9 -54.5t-3 -51.5q0 -89 37.5 -162t105.5 -125.5t163.5 -81.5t212.5 -29q122 0 211.5 25t147.5 62.5t86 81.5t28 82q0 7 -3.5 20.5t-12.5 18.5q-21 12 -44 25t-42.5 26.5t-32 27t-12.5 25.5q0 33 9.5 66t25.5 57q106 -91 216.5 -135.5t207.5 -44.5h361q10 41 10 87
q0 40 -11 80.5t-31 81.5t-47 84t-59 89q-5 8 -9 15t-4 13q0 7 6 10l126 69l3 -1q6 -12 13.5 -28t16 -34t16.5 -35.5t15 -32.5q26 -60 47 -119.5t21 -122.5q0 -65 -29 -137q-16 -39 -36 -78t-44 -81h-346z" />
    <glyph glyph-name="uniFE97_uniFEF2.liga" unicode="&#xfe97;&#xfef2;" horiz-adv-x="1980" 
d="M773 -604l-103 -102l-89 88l-89 -88l-102 102l102 103l89 -90l89 90zM1880 968l-103 -102l-89 88l-89 -88l-102 102l102 103l89 -90l89 90zM1422 0q-69 0 -118 12.5t-83 26.5q-72 -182 -227 -282t-393 -100q-161 0 -275 42.5t-186.5 111t-106 153.5t-33.5 170
q0 57 13 107t32 87.5t40.5 59t39.5 21.5q11 0 18 -7q-10 -18 -18 -43t-14 -52t-9 -54.5t-3 -51.5q0 -89 37.5 -162t105.5 -125.5t163.5 -81.5t212.5 -29q122 0 211.5 25t147.5 62.5t86 81.5t28 82q0 7 -3.5 20.5t-12.5 18.5q-21 12 -44 25t-42.5 26.5t-32 27t-12.5 25.5
q0 33 9.5 66t25.5 57q106 -91 216.5 -135.5t207.5 -44.5h361q10 41 10 87q0 40 -11 80.5t-31 81.5t-47 84t-59 89q-5 8 -9 15t-4 13q0 7 6 10l126 69l3 -1q6 -12 13.5 -28t16 -34t16.5 -35.5t15 -32.5q26 -60 47 -119.5t21 -122.5q0 -65 -29 -137q-16 -39 -36 -78t-44 -81
h-346z" />
    <glyph glyph-name="uniFE9C_uniFEAE.liga" unicode="&#xfe9c;&#xfeae;" horiz-adv-x="1505" 
d="M1291 968l-103 -102l-89 88l-89 -88l-102 102l102 103l89 -90l89 90zM1203 1195l-103 -102l-102 102l102 103zM835 0q-79 0 -139 37t-95 95q-9 -49 -25.5 -103t-41 -106.5t-57.5 -99.5t-75.5 -83t-95 -57t-115.5 -21q-34 0 -66 10.5t-57.5 30.5t-43.5 47.5t-24 62.5
q87 -22 161 -22q94 0 156.5 34t99.5 89.5t52 127.5t15 148q0 83 -26 171t-88 201q-11 20 -11 30q0 5 4 8l126 69l3 -1q34 -65 54 -120t32.5 -105t19.5 -96t15 -92q5 -32 18 -54t37.5 -35.5t62 -19.5t92.5 -6h314q10 42 15.5 78t5.5 70q0 33 -5 62t-15 58.5t-26 61.5t-37 71
q-11 20 -11 30q0 6 7 10l123 67l3 -1q38 -63 58 -128.5t20 -140.5q0 -39 -6 -81q-1 -5 -1.5 -11t-0.5 -11q0 -27 10 -51.5t35 -43t66.5 -29.5t104.5 -11h22q16 0 29.5 -2t22.5 -9.5t14 -21.5t5 -38q0 -22 -5.5 -35.5t-15 -21t-22.5 -10t-28 -2.5h-10q-35 0 -73 10t-73 31.5
t-63.5 55.5t-43.5 83q-17 -46 -39.5 -90.5t-48.5 -89.5h-319z" />
    <glyph glyph-name="uniFE9B_uniFEE4.liga" unicode="&#xfe9b;&#xfee4;" horiz-adv-x="1520" 
d="M1420 968l-103 -102l-89 88l-89 -88l-102 102l102 103l89 -90l89 90zM1332 1195l-103 -102l-102 102l102 103zM266 191q63 -28 130.5 -42t152.5 -14q76 0 118.5 22t42.5 70q0 46 -18.5 95.5t-50.5 90t-77 66.5t-97 26q-69 0 -114 -77.5t-87 -236.5zM887 0q-54 0 -89.5 36
t-53.5 111q-14 -31 -31.5 -58.5t-42.5 -48.5t-59.5 -33t-82.5 -12q-66 0 -113 10.5t-81 27.5t-57.5 38.5t-41.5 43.5q-24 -54 -61 -84.5t-88 -30.5h-86q-17 0 -30 2t-22 9.5t-14 21.5t-5 38q0 43 20 56t51 13h87q28 0 50 22t39 58t31 81t27 91q15 54 36.5 100t52 79.5
t70.5 52t92 18.5q67 0 122 -28.5t95 -73.5t65 -100t32 -109q6 -43 12.5 -78t20.5 -60t38.5 -39t66.5 -14h367q10 41 10 87q0 40 -11 80.5t-31 81.5t-47 84t-59 89q-5 8 -9 15t-4 13q0 7 6 10l126 69l3 -1q6 -12 13.5 -28t16 -34t16.5 -35.5t15 -32.5q26 -60 47 -119.5
t21 -122.5q0 -65 -29 -137q-16 -39 -36 -78t-44 -81h-421z" />
    <glyph glyph-name="uniFE9C_uniFEE6.liga" unicode="&#xfe9c;&#xfee6;" horiz-adv-x="1850" 
d="M1548 1195l-103 -102l-102 102l102 103zM562 767l-103 -102l-102 102l102 103zM1636 968l-103 -102l-89 88l-89 -88l-102 102l102 103l89 -90l89 90zM1181 0q-31 0 -64.5 7.5t-64.5 23.5t-58.5 42t-46.5 63q-15 -95 -56 -174.5t-103 -136.5t-143 -88.5t-176 -31.5
q-109 0 -196 32t-147.5 88.5t-93 134t-32.5 169.5q0 59 14.5 113t35.5 95t44 65.5t40 24.5q9 0 17 -8q-9 -14 -17.5 -38.5t-15.5 -53t-11 -57.5t-4 -52q0 -89 29 -156.5t80 -113.5t120.5 -69t150.5 -23q94 0 165 25t117.5 65.5t70 91.5t23.5 102q0 52 -11 101t-30 93.5
t-44 84.5t-52 73q-9 12 -9 18q0 7 8 12l117 75l3 -1q58 -84 87 -175.5t29 -176.5q0 -21 10 -40t34 -33t65 -22.5t103 -8.5h313q10 42 15.5 78t5.5 70q0 33 -5 62t-15 58.5t-26 61.5t-37 71q-11 20 -11 30q0 6 7 10l123 67l3 -1q38 -63 58 -128.5t20 -140.5q0 -39 -6 -81
q-1 -5 -1.5 -11t-0.5 -11q0 -27 10 -51.5t35 -43t66.5 -29.5t104.5 -11h22q16 0 29.5 -2t22.5 -9.5t14 -21.5t5 -38q0 -22 -5.5 -35.5t-15 -21t-22.5 -10t-28 -2.5h-10q-35 0 -73 10t-73 31.5t-63.5 55.5t-43.5 83q-17 -46 -39.5 -90.5t-48.5 -89.5h-318z" />
    <glyph glyph-name="uniFE9B_uniFEF0.liga" unicode="&#xfe9b;&#xfef0;" horiz-adv-x="1976" 
d="M1870 968l-103 -102l-89 88l-89 -88l-102 102l102 103l89 -90l89 90zM1782 1195l-103 -102l-102 102l102 103zM1422 0q-69 0 -118 12.5t-83 26.5q-72 -182 -227 -282t-393 -100q-161 0 -275 42.5t-186.5 111t-106 153.5t-33.5 170q0 57 13 107t32 87.5t40.5 59t39.5 21.5
q11 0 18 -7q-10 -18 -18 -43t-14 -52t-9 -54.5t-3 -51.5q0 -89 37.5 -162t105.5 -125.5t163.5 -81.5t212.5 -29q122 0 211.5 25t147.5 62.5t86 81.5t28 82q0 7 -3.5 20.5t-12.5 18.5q-21 12 -44 25t-42.5 26.5t-32 27t-12.5 25.5q0 33 9.5 66t25.5 57q106 -91 216.5 -135.5
t207.5 -44.5h361q10 41 10 87q0 40 -11 80.5t-31 81.5t-47 84t-59 89q-5 8 -9 15t-4 13q0 7 6 10l126 69l3 -1q6 -12 13.5 -28t16 -34t16.5 -35.5t15 -32.5q26 -60 47 -119.5t21 -122.5q0 -65 -29 -137q-16 -39 -36 -78t-44 -81h-346z" />
    <glyph glyph-name="uniFE9B_uniFEF2.liga" unicode="&#xfe9b;&#xfef2;" horiz-adv-x="1976" 
d="M773 -604l-103 -102l-89 88l-89 -88l-102 102l102 103l89 -90l89 90zM1870 968l-103 -102l-89 88l-89 -88l-102 102l102 103l89 -90l89 90zM1782 1195l-103 -102l-102 102l102 103zM1422 0q-69 0 -118 12.5t-83 26.5q-72 -182 -227 -282t-393 -100q-161 0 -275 42.5
t-186.5 111t-106 153.5t-33.5 170q0 57 13 107t32 87.5t40.5 59t39.5 21.5q11 0 18 -7q-10 -18 -18 -43t-14 -52t-9 -54.5t-3 -51.5q0 -89 37.5 -162t105.5 -125.5t163.5 -81.5t212.5 -29q122 0 211.5 25t147.5 62.5t86 81.5t28 82q0 7 -3.5 20.5t-12.5 18.5q-21 12 -44 25
t-42.5 26.5t-32 27t-12.5 25.5q0 33 9.5 66t25.5 57q106 -91 216.5 -135.5t207.5 -44.5h361q10 41 10 87q0 40 -11 80.5t-31 81.5t-47 84t-59 89q-5 8 -9 15t-4 13q0 7 6 10l126 69l3 -1q6 -12 13.5 -28t16 -34t16.5 -35.5t15 -32.5q26 -60 47 -119.5t21 -122.5
q0 -65 -29 -137q-16 -39 -36 -78t-44 -81h-346z" />
    <glyph glyph-name="uniFEDB_uniFEF0.liga" unicode="&#xfedb;&#xfef0;" horiz-adv-x="2507" 
d="M1422 0q-69 0 -118 12.5t-83 26.5q-72 -182 -227 -282t-393 -100q-161 0 -275 42.5t-186.5 111t-106 153.5t-33.5 170q0 57 13 107t32 87.5t40.5 59t39.5 21.5q11 0 18 -7q-10 -18 -18 -43t-14 -52t-9 -54.5t-3 -51.5q0 -89 37.5 -162t105.5 -125.5t163.5 -81.5
t212.5 -29q122 0 211.5 25t147.5 62.5t86 81.5t28 82q0 7 -3.5 20.5t-12.5 18.5q-21 12 -44 25t-42.5 26.5t-32 27t-12.5 25.5q0 33 9.5 66t25.5 57q106 -91 216.5 -135.5t207.5 -44.5h843q12 51 19.5 91.5t7.5 73.5q0 39 -13 68t-45 50t-85 34.5t-133 22t-189 13.5t-253 8
l14 130l239 151q105 66 179.5 115t123.5 87.5t75 69.5t34 61q11 -24 19 -49.5t8 -51.5q0 -24 -7.5 -47.5t-25.5 -48t-48 -50t-74 -52.5l-318 -192q168 0 284.5 -25.5t188.5 -74.5t104 -122t32 -167q0 -52 -8.5 -110.5t-24.5 -124.5h-928z" />
    <glyph glyph-name="uniFEDC_uniFEF0.liga" unicode="&#xfedc;&#xfef0;" horiz-adv-x="2630" 
d="M1422 0q-69 0 -118 12.5t-83 26.5q-72 -182 -227 -282t-393 -100q-161 0 -275 42.5t-186.5 111t-106 153.5t-33.5 170q0 57 13 107t32 87.5t40.5 59t39.5 21.5q11 0 18 -7q-10 -18 -18 -43t-14 -52t-9 -54.5t-3 -51.5q0 -89 37.5 -162t105.5 -125.5t163.5 -81.5
t212.5 -29q122 0 211.5 25t147.5 62.5t86 81.5t28 82q0 7 -3.5 20.5t-12.5 18.5q-21 12 -44 25t-42.5 26.5t-32 27t-12.5 25.5q0 33 9.5 66t25.5 57q106 -91 216.5 -135.5t207.5 -44.5h843q12 51 19.5 91.5t7.5 73.5q0 39 -13 68t-45 50t-85 34.5t-133 22t-189 13.5t-253 8
l14 130l239 151q105 66 179.5 115t123.5 87.5t75 69.5t34 61q11 -24 19 -49.5t8 -51.5q0 -24 -7.5 -47.5t-25.5 -48t-48 -50t-74 -52.5l-318 -192q151 0 261.5 -21.5t184 -64t112.5 -105.5t48 -146q2 -23 8.5 -49t29.5 -47.5t67.5 -36t122.5 -14.5h22q16 0 29.5 -2
t22.5 -9.5t14 -21.5t5 -38q0 -22 -5.5 -35.5t-15 -21t-22.5 -10t-28 -2.5h-10q-46 0 -84 11.5t-68 31.5t-52.5 46t-38.5 56q-7 -68 -27 -145h-928z" />
    <glyph glyph-name="uniFEDB_uniFEF2.liga" unicode="&#xfedb;&#xfef2;" horiz-adv-x="2507" 
d="M773 -604l-103 -102l-89 88l-89 -88l-102 102l102 103l89 -90l89 90zM1422 0q-69 0 -118 12.5t-83 26.5q-72 -182 -227 -282t-393 -100q-161 0 -275 42.5t-186.5 111t-106 153.5t-33.5 170q0 57 13 107t32 87.5t40.5 59t39.5 21.5q11 0 18 -7q-10 -18 -18 -43t-14 -52
t-9 -54.5t-3 -51.5q0 -89 37.5 -162t105.5 -125.5t163.5 -81.5t212.5 -29q122 0 211.5 25t147.5 62.5t86 81.5t28 82q0 7 -3.5 20.5t-12.5 18.5q-21 12 -44 25t-42.5 26.5t-32 27t-12.5 25.5q0 33 9.5 66t25.5 57q106 -91 216.5 -135.5t207.5 -44.5h843q12 51 19.5 91.5
t7.5 73.5q0 39 -13 68t-45 50t-85 34.5t-133 22t-189 13.5t-253 8l14 130l239 151q105 66 179.5 115t123.5 87.5t75 69.5t34 61q11 -24 19 -49.5t8 -51.5q0 -24 -7.5 -47.5t-25.5 -48t-48 -50t-74 -52.5l-318 -192q168 0 284.5 -25.5t188.5 -74.5t104 -122t32 -167
q0 -52 -8.5 -110.5t-24.5 -124.5h-928z" />
    <glyph glyph-name="uniFEDC_uniFEF2.liga" unicode="&#xfedc;&#xfef2;" horiz-adv-x="2630" 
d="M773 -604l-103 -102l-89 88l-89 -88l-102 102l102 103l89 -90l89 90zM1422 0q-69 0 -118 12.5t-83 26.5q-72 -182 -227 -282t-393 -100q-161 0 -275 42.5t-186.5 111t-106 153.5t-33.5 170q0 57 13 107t32 87.5t40.5 59t39.5 21.5q11 0 18 -7q-10 -18 -18 -43t-14 -52
t-9 -54.5t-3 -51.5q0 -89 37.5 -162t105.5 -125.5t163.5 -81.5t212.5 -29q122 0 211.5 25t147.5 62.5t86 81.5t28 82q0 7 -3.5 20.5t-12.5 18.5q-21 12 -44 25t-42.5 26.5t-32 27t-12.5 25.5q0 33 9.5 66t25.5 57q106 -91 216.5 -135.5t207.5 -44.5h843q12 51 19.5 91.5
t7.5 73.5q0 39 -13 68t-45 50t-85 34.5t-133 22t-189 13.5t-253 8l14 130l239 151q105 66 179.5 115t123.5 87.5t75 69.5t34 61q11 -24 19 -49.5t8 -51.5q0 -24 -7.5 -47.5t-25.5 -48t-48 -50t-74 -52.5l-318 -192q151 0 261.5 -21.5t184 -64t112.5 -105.5t48 -146
q2 -23 8.5 -49t29.5 -47.5t67.5 -36t122.5 -14.5h22q16 0 29.5 -2t22.5 -9.5t14 -21.5t5 -38q0 -22 -5.5 -35.5t-15 -21t-22.5 -10t-28 -2.5h-10q-46 0 -84 11.5t-68 31.5t-52.5 46t-38.5 56q-7 -68 -27 -145h-928z" />
    <glyph glyph-name="uniFEDF_uniFB51.rlig" unicode="&#xfedf;&#xfb51;" horiz-adv-x="1222" 
d="M332 1104q0 19 8 38t20.5 34t27.5 24t30 9q10 0 22.5 -1t24.5 -3t22.5 -4t17.5 -4q4 19 17.5 41.5t33 41.5t44.5 32t53 13q45 0 72 -30.5t27 -81.5q0 -32 -12 -66q-28 -11 -56.5 -15t-57.5 -4q-32 0 -61.5 4t-55.5 9q-25 5 -44 8.5t-31 3.5q-15 0 -31 -7t-30 -16.5
t-24.5 -19.5t-15.5 -16zM714 1198q1 5 1.5 10t0.5 10q0 29 -17.5 45t-40.5 16q-35 0 -62 -24t-42 -66q22 -4 41 -6.5t38 -2.5h9.5t9.5 1q15 2 30 5.5t32 11.5zM1102 162q0 -12 -9 -29t-23 -35t-31 -35.5t-33 -31.5t-30 -22.5t-21 -8.5h-855q0 18 7 42t22.5 45.5t40 37
t60.5 15.5h274v747l134 69v-816h330v1176l134 44v-1198z" />
    <glyph glyph-name="uniFEE0_uniFB51.rlig" unicode="&#xfee0;&#xfb51;" horiz-adv-x="1354" 
d="M334 1099q0 19 8 38t20.5 34t27.5 24t30 9q10 0 22.5 -1t24.5 -3t22.5 -4t17.5 -4q4 19 17.5 41.5t33 41.5t44.5 32t53 13q45 0 72 -30.5t27 -81.5q0 -32 -12 -66q-28 -11 -56.5 -15t-57.5 -4q-32 0 -61.5 4t-55.5 9q-25 5 -44 8.5t-31 3.5q-15 0 -31 -7t-30 -16.5
t-24.5 -19.5t-15.5 -16zM716 1193q1 5 1.5 10t0.5 10q0 29 -17.5 45t-40.5 16q-35 0 -62 -24t-42 -66q22 -4 41 -6.5t38 -2.5h9.5t9.5 1q15 2 30 5.5t32 11.5zM1328 0q-30 0 -63 7.5t-64.5 23.5t-59 41t-46.5 60q-20 -80 -93 -132h-902q0 18 7 42t22.5 45.5t40 37t60.5 15.5
h274v747l134 69v-816h330v1176l134 44v-1082q2 -30 11.5 -55t33 -43.5t64.5 -29t106 -10.5h37q16 0 29.5 -2t22.5 -9.5t14 -21.5t5 -38q0 -22 -5.5 -35.5t-15 -21t-22.5 -10t-28 -2.5h-26z" />
    <glyph glyph-name="uniFEDF_uniFEE2.liga" unicode="&#xfedf;&#xfee2;" horiz-adv-x="1903" 
d="M683 191q63 -28 130.5 -42t152.5 -14q76 0 118.5 22t42.5 70q0 46 -18.5 95.5t-50.5 90t-77 66.5t-97 26q-69 0 -114 -77.5t-87 -236.5zM1304 0q-54 0 -89.5 36t-53.5 111q-14 -31 -31.5 -58.5t-42.5 -48.5t-59.5 -33t-82.5 -12q-66 0 -112.5 11t-79.5 28.5t-56 39
t-41 43.5h-4q-25 -41 -64.5 -74.5t-86.5 -59.5t-99.5 -44.5t-103.5 -31t-97.5 -18.5t-81.5 -6q-54 0 -85 37.5t-34 95.5q109 2 193.5 8t149.5 20t112.5 39.5t83.5 66.5t62.5 100.5t49.5 141.5q15 54 36.5 100t52 79.5t70.5 52t92 18.5q67 0 122 -28.5t95 -73.5t65 -100
t32 -109q6 -43 12.5 -78t20.5 -60t38.5 -39t66.5 -14h296v1147q0 14 2.5 23.5t11.5 12.5l112 39l3 -2v-1360h-475z" />
    <glyph glyph-name="uniFEE4_uniFE8E.liga" unicode="&#xfee4;&#xfe8e;" horiz-adv-x="1504" 
d="M766 191q63 -28 130.5 -42t152.5 -14q76 0 118.5 22t42.5 70q0 46 -18.5 95.5t-50.5 90t-77 66.5t-97 26q-69 0 -114 -77.5t-87 -236.5zM206 0q-31 34 -53.5 66.5t-22.5 73.5v1145q0 14 2.5 23.5t11.5 12.5l112 39l3 -2v-1218h328q28 0 50 22t39 58t31 81t27 91
q15 54 36.5 100t52 79.5t70.5 52t92 18.5q67 0 122 -28.5t95 -73.5t65 -100t32 -109q6 -43 12.5 -78t20.5 -60t38.5 -39t66.5 -14h67q16 0 29.5 -2t22.5 -9.5t14 -21.5t5 -38q0 -22 -5.5 -35.5t-15 -21t-22.5 -10t-28 -2.5h-117q-54 0 -89.5 36t-53.5 111
q-14 -31 -31.5 -58.5t-42.5 -48.5t-59.5 -33t-82.5 -12q-66 0 -113 10.5t-81 27.5t-57.5 38.5t-41.5 43.5q-24 -54 -61 -84.5t-88 -30.5h-380z" />
    <glyph glyph-name="uniFEE4_uniFE82.liga" unicode="&#xfee4;&#xfe82;" horiz-adv-x="1603" 
d="M29 1471q-2 -2 -7 -2q-6 0 -13 2t-9 8q3 33 13 62t26 50.5t36.5 33.5t43.5 12q18 0 40.5 -3.5t47.5 -9.5t51 -14t49 -17q121 -44 165 -44q27 0 45 9t29.5 22.5t17.5 29t8 29.5q1 7 5.5 9t8.5 2t6 -2q2 -7 2.5 -18.5t0.5 -21.5q0 -21 -4.5 -48.5t-19.5 -52.5t-42.5 -42
t-73.5 -17q-39 0 -86 13.5t-96 30.5q-48 17 -94 29.5t-88 12.5q-12 0 -21.5 -6.5t-17 -16t-13.5 -20.5t-10 -20zM865 191q63 -28 130.5 -42t152.5 -14q76 0 118.5 22t42.5 70q0 46 -18.5 95.5t-50.5 90t-77 66.5t-97 26q-69 0 -114 -77.5t-87 -236.5zM305 0
q-31 34 -53.5 66.5t-22.5 73.5v1145q0 14 2.5 23.5t11.5 12.5l112 39l3 -2v-1218h328q28 0 50 22t39 58t31 81t27 91q15 54 36.5 100t52 79.5t70.5 52t92 18.5q67 0 122 -28.5t95 -73.5t65 -100t32 -109q6 -43 12.5 -78t20.5 -60t38.5 -39t66.5 -14h67q16 0 29.5 -2
t22.5 -9.5t14 -21.5t5 -38q0 -22 -5.5 -35.5t-15 -21t-22.5 -10t-28 -2.5h-117q-54 0 -89.5 36t-53.5 111q-14 -31 -31.5 -58.5t-42.5 -48.5t-59.5 -33t-82.5 -12q-66 0 -113 10.5t-81 27.5t-57.5 38.5t-41.5 43.5q-24 -54 -61 -84.5t-88 -30.5h-380z" />
    <glyph glyph-name="uniFEE4_uniFE84.liga" unicode="&#xfee4;&#xfe84;" horiz-adv-x="1504" 
d="M766 191q63 -28 130.5 -42t152.5 -14q76 0 118.5 22t42.5 70q0 46 -18.5 95.5t-50.5 90t-77 66.5t-97 26q-69 0 -114 -77.5t-87 -236.5zM206 0q-31 34 -53.5 66.5t-22.5 73.5v1145q0 14 2.5 23.5t11.5 12.5l112 39l3 -2v-1218h328q28 0 50 22t39 58t31 81t27 91
q15 54 36.5 100t52 79.5t70.5 52t92 18.5q67 0 122 -28.5t95 -73.5t65 -100t32 -109q6 -43 12.5 -78t20.5 -60t38.5 -39t66.5 -14h67q16 0 29.5 -2t22.5 -9.5t14 -21.5t5 -38q0 -22 -5.5 -35.5t-15 -21t-22.5 -10t-28 -2.5h-117q-54 0 -89.5 36t-53.5 111
q-14 -31 -31.5 -58.5t-42.5 -48.5t-59.5 -33t-82.5 -12q-66 0 -113 10.5t-81 27.5t-57.5 38.5t-41.5 43.5q-24 -54 -61 -84.5t-88 -30.5h-380zM146 1619q0 -19 12 -35.5t32.5 -29t48 -19.5t59.5 -7q12 0 26.5 1.5t28.5 3.5l-32 -59l-280 -36l28 58l94 13q-33 14 -56 38
t-23 55q0 25 17 49t43 43t56 30.5t57 11.5q39 0 74 -23l-33 -57q-16 11 -36.5 17t-40.5 6q-28 0 -51.5 -16.5t-23.5 -43.5z" />
    <glyph glyph-name="uniFEE4_uniFE88.liga" unicode="&#xfee4;&#xfe88;" horiz-adv-x="1504" 
d="M140 -239q0 -19 12 -35.5t32.5 -29t48 -19.5t59.5 -7q12 0 26.5 1.5t28.5 3.5l-32 -59l-280 -36l28 58l94 13q-33 14 -56 38t-23 55q0 25 17 49t43 43t56 30.5t57 11.5q39 0 74 -23l-33 -57q-16 11 -36.5 17t-40.5 6q-28 0 -51.5 -16.5t-23.5 -43.5zM766 191
q63 -28 130.5 -42t152.5 -14q76 0 118.5 22t42.5 70q0 46 -18.5 95.5t-50.5 90t-77 66.5t-97 26q-69 0 -114 -77.5t-87 -236.5zM206 0q-31 34 -53.5 66.5t-22.5 73.5v1145q0 14 2.5 23.5t11.5 12.5l112 39l3 -2v-1218h328q28 0 50 22t39 58t31 81t27 91q15 54 36.5 100
t52 79.5t70.5 52t92 18.5q67 0 122 -28.5t95 -73.5t65 -100t32 -109q6 -43 12.5 -78t20.5 -60t38.5 -39t66.5 -14h67q16 0 29.5 -2t22.5 -9.5t14 -21.5t5 -38q0 -22 -5.5 -35.5t-15 -21t-22.5 -10t-28 -2.5h-117q-54 0 -89.5 36t-53.5 111q-14 -31 -31.5 -58.5t-42.5 -48.5
t-59.5 -33t-82.5 -12q-66 0 -113 10.5t-81 27.5t-57.5 38.5t-41.5 43.5q-24 -54 -61 -84.5t-88 -30.5h-380z" />
    <glyph glyph-name="uniFEE8_uniFEAE.liga" unicode="&#xfee8;&#xfeae;" horiz-adv-x="1505" 
d="M1221 968l-103 -102l-102 102l102 103zM835 0q-79 0 -139 37t-95 95q-9 -49 -25.5 -103t-41 -106.5t-57.5 -99.5t-75.5 -83t-95 -57t-115.5 -21q-34 0 -66 10.5t-57.5 30.5t-43.5 47.5t-24 62.5q87 -22 161 -22q94 0 156.5 34t99.5 89.5t52 127.5t15 148q0 83 -26 171
t-88 201q-11 20 -11 30q0 5 4 8l126 69l3 -1q34 -65 54 -120t32.5 -105t19.5 -96t15 -92q5 -32 18 -54t37.5 -35.5t62 -19.5t92.5 -6h314q10 42 15.5 78t5.5 70q0 33 -5 62t-15 58.5t-26 61.5t-37 71q-11 20 -11 30q0 6 7 10l123 67l3 -1q38 -63 58 -128.5t20 -140.5
q0 -39 -6 -81q-1 -5 -1.5 -11t-0.5 -11q0 -27 10 -51.5t35 -43t66.5 -29.5t104.5 -11h22q16 0 29.5 -2t22.5 -9.5t14 -21.5t5 -38q0 -22 -5.5 -35.5t-15 -21t-22.5 -10t-28 -2.5h-10q-35 0 -73 10t-73 31.5t-63.5 55.5t-43.5 83q-17 -46 -39.5 -90.5t-48.5 -89.5h-319z" />
    <glyph glyph-name="uniFEE7_uniFEE4.liga" unicode="&#xfee7;&#xfee4;" horiz-adv-x="1524" 
d="M266 191q63 -28 130.5 -42t152.5 -14q76 0 118.5 22t42.5 70q0 46 -18.5 95.5t-50.5 90t-77 66.5t-97 26q-69 0 -114 -77.5t-87 -236.5zM1354 968l-103 -102l-102 102l102 103zM887 0q-54 0 -89.5 36t-53.5 111q-14 -31 -31.5 -58.5t-42.5 -48.5t-59.5 -33t-82.5 -12
q-66 0 -113 10.5t-81 27.5t-57.5 38.5t-41.5 43.5q-24 -54 -61 -84.5t-88 -30.5h-86q-17 0 -30 2t-22 9.5t-14 21.5t-5 38q0 43 20 56t51 13h87q28 0 50 22t39 58t31 81t27 91q15 54 36.5 100t52 79.5t70.5 52t92 18.5q67 0 122 -28.5t95 -73.5t65 -100t32 -109
q6 -43 12.5 -78t20.5 -60t38.5 -39t66.5 -14h367q10 41 10 87q0 40 -11 80.5t-31 81.5t-47 84t-59 89q-5 8 -9 15t-4 13q0 7 6 10l126 69l3 -1q6 -12 13.5 -28t16 -34t16.5 -35.5t15 -32.5q26 -60 47 -119.5t21 -122.5q0 -65 -29 -137q-16 -39 -36 -78t-44 -81h-421z" />
    <glyph glyph-name="uniFEE7_uniFEF0.liga" unicode="&#xfee7;&#xfef0;" horiz-adv-x="1984" 
d="M1814 968l-103 -102l-102 102l102 103zM1422 0q-69 0 -118 12.5t-83 26.5q-72 -182 -227 -282t-393 -100q-161 0 -275 42.5t-186.5 111t-106 153.5t-33.5 170q0 57 13 107t32 87.5t40.5 59t39.5 21.5q11 0 18 -7q-10 -18 -18 -43t-14 -52t-9 -54.5t-3 -51.5
q0 -89 37.5 -162t105.5 -125.5t163.5 -81.5t212.5 -29q122 0 211.5 25t147.5 62.5t86 81.5t28 82q0 7 -3.5 20.5t-12.5 18.5q-21 12 -44 25t-42.5 26.5t-32 27t-12.5 25.5q0 33 9.5 66t25.5 57q106 -91 216.5 -135.5t207.5 -44.5h361q10 41 10 87q0 40 -11 80.5t-31 81.5
t-47 84t-59 89q-5 8 -9 15t-4 13q0 7 6 10l126 69l3 -1q6 -12 13.5 -28t16 -34t16.5 -35.5t15 -32.5q26 -60 47 -119.5t21 -122.5q0 -65 -29 -137q-16 -39 -36 -78t-44 -81h-346z" />
    <glyph glyph-name="uniFEE7_uniFEF2.liga" unicode="&#xfee7;&#xfef2;" horiz-adv-x="1984" 
d="M773 -604l-103 -102l-89 88l-89 -88l-102 102l102 103l89 -90l89 90zM1814 968l-103 -102l-102 102l102 103zM1422 0q-69 0 -118 12.5t-83 26.5q-72 -182 -227 -282t-393 -100q-161 0 -275 42.5t-186.5 111t-106 153.5t-33.5 170q0 57 13 107t32 87.5t40.5 59t39.5 21.5
q11 0 18 -7q-10 -18 -18 -43t-14 -52t-9 -54.5t-3 -51.5q0 -89 37.5 -162t105.5 -125.5t163.5 -81.5t212.5 -29q122 0 211.5 25t147.5 62.5t86 81.5t28 82q0 7 -3.5 20.5t-12.5 18.5q-21 12 -44 25t-42.5 26.5t-32 27t-12.5 25.5q0 33 9.5 66t25.5 57q106 -91 216.5 -135.5
t207.5 -44.5h361q10 41 10 87q0 40 -11 80.5t-31 81.5t-47 84t-59 89q-5 8 -9 15t-4 13q0 7 6 10l126 69l3 -1q6 -12 13.5 -28t16 -34t16.5 -35.5t15 -32.5q26 -60 47 -119.5t21 -122.5q0 -65 -29 -137q-16 -39 -36 -78t-44 -81h-346z" />
    <glyph glyph-name="uniFEF4_uniFEAE.liga" unicode="&#xfef4;&#xfeae;" horiz-adv-x="1505" 
d="M835 0q-79 0 -139 37t-95 95q-9 -49 -25.5 -103t-41 -106.5t-57.5 -99.5t-75.5 -83t-95 -57t-115.5 -21q-34 0 -66 10.5t-57.5 30.5t-43.5 47.5t-24 62.5q87 -22 161 -22q94 0 156.5 34t99.5 89.5t52 127.5t15 148q0 83 -26 171t-88 201q-11 20 -11 30q0 5 4 8l126 69
l3 -1q34 -65 54 -120t32.5 -105t19.5 -96t15 -92q5 -32 18 -54t37.5 -35.5t62 -19.5t92.5 -6h314q10 42 15.5 78t5.5 70q0 33 -5 62t-15 58.5t-26 61.5t-37 71q-11 20 -11 30q0 6 7 10l123 67l3 -1q38 -63 58 -128.5t20 -140.5q0 -39 -6 -81q-1 -5 -1.5 -11t-0.5 -11
q0 -27 10 -51.5t35 -43t66.5 -29.5t104.5 -11h22q16 0 29.5 -2t22.5 -9.5t14 -21.5t5 -38q0 -22 -5.5 -35.5t-15 -21t-22.5 -10t-28 -2.5h-10q-35 0 -73 10t-73 31.5t-63.5 55.5t-43.5 83q-17 -46 -39.5 -90.5t-48.5 -89.5h-319zM1388 -301l-103 -102l-89 88l-89 -88
l-102 102l102 103l89 -90l89 90z" />
    <glyph glyph-name="uniFEF3_uniFEE4.liga" unicode="&#xfef3;&#xfee4;" horiz-adv-x="1520" 
d="M1344 -301l-103 -102l-89 88l-89 -88l-102 102l102 103l89 -90l89 90zM266 191q63 -28 130.5 -42t152.5 -14q76 0 118.5 22t42.5 70q0 46 -18.5 95.5t-50.5 90t-77 66.5t-97 26q-69 0 -114 -77.5t-87 -236.5zM887 0q-54 0 -89.5 36t-53.5 111q-14 -31 -31.5 -58.5
t-42.5 -48.5t-59.5 -33t-82.5 -12q-66 0 -113 10.5t-81 27.5t-57.5 38.5t-41.5 43.5q-24 -54 -61 -84.5t-88 -30.5h-86q-17 0 -30 2t-22 9.5t-14 21.5t-5 38q0 43 20 56t51 13h87q28 0 50 22t39 58t31 81t27 91q15 54 36.5 100t52 79.5t70.5 52t92 18.5q67 0 122 -28.5
t95 -73.5t65 -100t32 -109q6 -43 12.5 -78t20.5 -60t38.5 -39t66.5 -14h367q10 41 10 87q0 40 -11 80.5t-31 81.5t-47 84t-59 89q-5 8 -9 15t-4 13q0 7 6 10l126 69l3 -1q6 -12 13.5 -28t16 -34t16.5 -35.5t15 -32.5q26 -60 47 -119.5t21 -122.5q0 -65 -29 -137
q-16 -39 -36 -78t-44 -81h-421z" />
    <glyph glyph-name="uniFEF4_uniFEE6.liga" unicode="&#xfef4;&#xfee6;" horiz-adv-x="1851" 
d="M562 767l-103 -102l-102 102l102 103zM1683 -301l-103 -102l-89 88l-89 -88l-102 102l102 103l89 -90l89 90zM1181 0q-31 0 -64.5 7.5t-64.5 23.5t-58.5 42t-46.5 63q-15 -95 -56 -174.5t-103 -136.5t-143 -88.5t-176 -31.5q-109 0 -196 32t-147.5 88.5t-93 134
t-32.5 169.5q0 59 14.5 113t35.5 95t44 65.5t40 24.5q9 0 17 -8q-9 -14 -17.5 -38.5t-15.5 -53t-11 -57.5t-4 -52q0 -89 29 -156.5t80 -113.5t120.5 -69t150.5 -23q94 0 165 25t117.5 65.5t70 91.5t23.5 102q0 52 -11 101t-30 93.5t-44 84.5t-52 73q-9 12 -9 18q0 7 8 12
l117 75l3 -1q58 -84 87 -175.5t29 -176.5q0 -21 10 -40t34 -33t65 -22.5t103 -8.5h313q10 42 15.5 78t5.5 70q0 33 -5 62t-15 58.5t-26 61.5t-37 71q-11 20 -11 30q0 6 7 10l123 67l3 -1q38 -63 58 -128.5t20 -140.5q0 -39 -6 -81q-1 -5 -1.5 -11t-0.5 -11q0 -27 10 -51.5
t35 -43t66.5 -29.5t104.5 -11h22q16 0 29.5 -2t22.5 -9.5t14 -21.5t5 -38q0 -22 -5.5 -35.5t-15 -21t-22.5 -10t-28 -2.5h-10q-35 0 -73 10t-73 31.5t-63.5 55.5t-43.5 83q-17 -46 -39.5 -90.5t-48.5 -89.5h-318z" />
    <glyph glyph-name="T_h.liga" unicode="Th" horiz-adv-x="1766" 
d="M1053 713q26 25 58.5 47.5t68.5 39.5t75 27t79 10q74 0 124 -19t80 -51t43 -75.5t13 -92.5v-439q0 -31 4.5 -49t20 -29t44.5 -18t78 -16q11 -2 14 -10t3 -17q0 -5 -2 -15q-1 -3 -1 -6h-433q-1 4 -1 7.5v6.5q0 17 5 25t11 9q43 7 68 16t37 24.5t15 39.5t3 60v353
q0 48 -10 81t-33 54t-60 30t-90 9q-45 0 -99 -11t-114 -25v-519q0 -31 4.5 -49t19.5 -29t44 -18t78 -16q11 -2 14 -10t3 -17q0 -5 -2 -15q-1 -3 -1 -6h-433q-1 4 -1 7.5v6.5q0 17 5 25t11 9q43 7 68 16t37 24.5t15 39.5t3 60v764q-1 0 -1 1q-9 51 -22 77t-33.5 42.5t-47 24
t-65.5 7.5h-184v-907q0 -38 9 -62.5t26 -40.5t43 -25t61 -15q21 -5 21 -27q0 -12 -4 -27h-458q-4 15 -4 27q0 22 21 27q34 6 60.5 15t43.5 25t26 40.5t9 62.5v907h-182q-39 0 -65 -7.5t-43.5 -24t-29 -43t-20.5 -63.5q-2 -8 -9 -13.5t-24 -5.5h-9t-10 1l20 238h1005v0v-473z
" />
    <glyph glyph-name="f_b.liga" unicode="fb" horiz-adv-x="1508" 
d="M693 1217q-16 3 -36 5t-40 3t-38 1.5t-29 0.5q-56 0 -99.5 -13.5t-72.5 -43t-44 -77t-15 -115.5v-155h374v394zM1016 707q-48 0 -96.5 -7.5t-96.5 -20.5v-541q13 -6 34.5 -12.5t47 -12t53 -9t53.5 -3.5q29 0 59.5 3t59.5 11t55 21.5t46 33.5q29 31 46.5 90.5t17.5 131.5
q0 57 -16 113.5t-49.5 101.5t-86.5 72.5t-127 27.5zM691 744h-372v-584q0 -31 4.5 -49.5t17 -30t35 -18.5t58.5 -14q11 -2 14 -10t3 -17q0 -5 -2 -15q-1 -3 -1 -6h-402q-1 4 -1 7.5v6.5q0 17 5 25t11 9q43 7 68 16t37 24.5t15 39.5t3 60v556h-132l15 79h117v108
q0 43 16 90.5t44.5 92.5t67.5 86t86.5 72t100.5 49t109 18q22 0 54 -4.5t63.5 -11.5t59 -14.5t41.5 -14.5v-550h-1v-33q16 21 41.5 43.5t59 41t76 30.5t92.5 12q72 0 132.5 -30t104 -82.5t67.5 -124t24 -153.5q0 -95 -38 -177.5t-100 -144t-142.5 -97t-164.5 -35.5
q-14 0 -49.5 1t-78 3.5t-85.5 6.5t-73 11v728z" />
    <glyph glyph-name="f_f_b.liga" unicode="ffb" horiz-adv-x="2049" 
d="M1557 709q-48 0 -96.5 -7.5t-96.5 -20.5v-541q13 -6 34.5 -12.5t47 -12t53 -9t53.5 -3.5q29 0 59.5 3t59.5 11t55 21.5t46 33.5q29 31 46.5 90.5t17.5 131.5q0 57 -16 113.5t-49.5 101.5t-86.5 72.5t-127 27.5zM1232 744h-374v-584q0 -31 4.5 -49.5t17 -30t35 -18.5
t58.5 -14q11 -2 14 -10t3 -17q0 -5 -2 -15q-1 -3 -1 -6h-402q-1 4 -1 7.5v6.5q0 17 5 25t11 9q43 7 68 16t37 24.5t15 39.5t3 60v556h-404v-584q0 -31 4.5 -49.5t17 -30t35 -18.5t58.5 -14q11 -2 14 -10t3 -17q0 -5 -2 -15q-1 -3 -1 -6h-402q-1 4 -1 7.5v6.5q0 17 5 25t11 9
q43 7 68 16t37 24.5t15 39.5t3 60v556h-132l15 79h117v108q0 43 15 90.5t42.5 92.5t65.5 86t84 72t98.5 49t108.5 18q39 0 68.5 -3.5t49.5 -12.5t30.5 -25.5t10.5 -42.5q0 -17 -6 -36.5t-12 -33.5q-25 9 -52 15.5t-53.5 10t-50.5 5t-43 1.5q-56 0 -97.5 -12t-69 -39.5
t-41 -73.5t-13.5 -114v-155h404v108q0 43 16 90.5t44.5 92.5t67.5 86t86.5 72t100.5 49t109 18q22 0 54 -4.5t63.5 -11.5t59 -14.5t41.5 -14.5v-392h1v-189q16 21 41.5 43.5t59 41t76 30.5t92.5 12q72 0 132.5 -30t104 -82.5t67.5 -124t24 -153.5q0 -95 -38 -177.5
t-100 -144t-142.5 -97t-164.5 -35.5q-14 0 -49.5 1t-78 3.5t-85.5 6.5t-73 11v726zM1232 1217q-16 3 -36 5t-40 3t-38 1.5t-29 0.5q-56 0 -99.5 -13.5t-72.5 -43t-44 -77t-15 -115.5v-155h374v394z" />
    <glyph glyph-name="f_f.liga" unicode="ff" horiz-adv-x="1154" 
d="M319 744v-584q0 -31 4.5 -49.5t17 -30t35 -18.5t58.5 -14q11 -2 14 -10t3 -17q0 -5 -2 -15q-1 -3 -1 -6h-402q-1 4 -1 7.5v6.5q0 17 5 25t11 9q43 7 68 16t37 24.5t15 39.5t3 60v556h-132l15 79h117v108q0 43 15 90.5t42.5 92.5t65.5 86t84 72t98.5 49t108.5 18
q39 0 68.5 -3.5t49.5 -12.5t30.5 -25.5t10.5 -42.5q0 -17 -6 -36.5t-12 -33.5q-25 9 -52 15.5t-53.5 10t-50.5 5t-43 1.5q-56 0 -97.5 -12t-69 -39.5t-41 -73.5t-13.5 -114v-155h404v108q0 43 10.5 90.5t31 92.5t49 86t65 72t80 49t92.5 18q34 0 62 -3.5t48.5 -12.5
t31.5 -25.5t11 -42.5q0 -17 -6 -36.5t-12 -33.5q-49 19 -88 25.5t-77 6.5q-56 0 -88.5 -15.5t-49 -45.5t-21 -75t-4.5 -103v-155h230v-79h-230v-584q0 -31 4.5 -49t19.5 -29t44 -18t78 -16q11 -2 14 -10t3 -17q0 -5 -2 -15q-1 -3 -1 -6h-433q-1 4 -1 7.5v6.5q0 17 5 25t11 9
q43 7 68 16t37 24.5t15 39.5t3 60v556h-404z" />
    <glyph glyph-name="f_h.liga" unicode="fh" horiz-adv-x="1532" 
d="M693 1217q-16 3 -36 5t-40 3t-38 1.5t-29 0.5q-56 0 -99.5 -13.5t-72.5 -43t-44 -77t-15 -115.5v-155h374v394zM826 679v-519q0 -31 5 -49t20.5 -29t44.5 -18t78 -16q11 -2 14 -10t3 -17q0 -5 -2 -15q-1 -3 -1 -6h-408q-1 4 -1 7.5v6.5q0 17 5 24.5t11 9.5q33 6 52 15
t29.5 25t13.5 40t3 60v556h-374v-584q0 -31 4.5 -49.5t17 -30t35 -18.5t58.5 -14q11 -2 14 -10t3 -17q0 -5 -2 -15q-1 -3 -1 -6h-402q-1 4 -1 7.5v6.5q0 17 5 25t11 9q43 7 68 16t37 24.5t15 39.5t3 60v556h-132l15 79h117v108q0 43 16 90.5t44.5 92.5t67.5 86t86.5 72
t100.5 49t109 18q22 0 54 -4.5t63.5 -11.5t59 -14.5t41.5 -14.5v-578q25 23 56 45q32 22 68 39t75 27t79 10q74 0 124 -19t80 -51t43 -75.5t13 -92.5v-439q0 -31 4.5 -49t20 -29t44.5 -18t78 -16q11 -2 14 -10t3 -17q0 -5 -2 -15q-1 -3 -1 -6h-433q-1 4 -1 7.5v6.5
q0 17 5 25t11 9q43 7 68 16t37 24.5t15 39.5t3 60v353q0 48 -10 81t-33 54t-60 30t-90 9q-45 0 -99 -11q-53 -11 -112 -25z" />
    <glyph glyph-name="f_f_h.liga" unicode="ffh" horiz-adv-x="2074" 
d="M1232 1217q-16 3 -36 5t-40 3t-38 1.5t-29 0.5q-56 0 -99.5 -13.5t-72.5 -43t-44 -77t-15 -115.5v-155h374v394zM1365 679v-519q0 -31 5 -49t20.5 -29t44.5 -18t78 -16q11 -2 14 -10t3 -17q0 -5 -2 -15q-1 -3 -1 -6h-408q-1 4 -1 7.5v6.5q0 17 5 24.5t11 9.5q33 6 52 15
t29.5 25t13.5 40t3 60v556h-374v-584q0 -31 4.5 -49.5t17 -30t35 -18.5t58.5 -14q11 -2 14 -10t3 -17q0 -5 -2 -15q-1 -3 -1 -6h-402q-1 4 -1 7.5v6.5q0 17 5 25t11 9q43 7 68 16t37 24.5t15 39.5t3 60v556h-404v-584q0 -31 4.5 -49.5t17 -30t35 -18.5t58.5 -14
q11 -2 14 -10t3 -17q0 -5 -2 -15q-1 -3 -1 -6h-402q-1 4 -1 7.5v6.5q0 17 5 25t11 9q43 7 68 16t37 24.5t15 39.5t3 60v556h-132l15 79h117v108q0 43 15 90.5t42.5 92.5t65.5 86t84 72t98.5 49t108.5 18q39 0 68.5 -3.5t49.5 -12.5t30.5 -25.5t10.5 -42.5q0 -17 -6 -36.5
t-12 -33.5q-25 9 -52 15.5t-53.5 10t-50.5 5t-43 1.5q-56 0 -97.5 -12t-69 -39.5t-41 -73.5t-13.5 -114v-155h404v108q0 43 16 90.5t44.5 92.5t67.5 86t86.5 72t100.5 49t109 18q22 0 54 -4.5t63.5 -11.5t59 -14.5t41.5 -14.5v-579q25 24 57 46t68 39t75 27t79 10
q74 0 124 -19t80 -51t43 -75.5t13 -92.5v-439q0 -31 4.5 -49t20 -29t44.5 -18t78 -16q11 -2 14 -10t3 -17q0 -5 -2 -15q-1 -3 -1 -6h-433q-1 4 -1 7.5v6.5q0 17 5 25t11 9q43 7 68 16t37 24.5t15 39.5t3 60v353q0 48 -10 81t-33 54t-60 30t-90 9q-45 0 -99 -11t-113 -25z
" />
    <glyph glyph-name="f_f_i.liga" unicode="ffi" horiz-adv-x="1545" 
d="M319 744v-584q0 -31 4.5 -49.5t17 -30t35 -18.5t58.5 -14q11 -2 14 -10t3 -17q0 -5 -2 -15q-1 -3 -1 -6h-402q-1 4 -1 7.5v6.5q0 17 5 25t11 9q43 7 68 16t37 24.5t15 39.5t3 60v556h-132l15 79h117v108q0 43 15 90.5t42.5 92.5t65.5 86t84 72t98.5 49t108.5 18
q39 0 68.5 -3.5t49.5 -12.5t30.5 -25.5t10.5 -42.5q0 -17 -6 -36.5t-12 -33.5q-25 9 -52 15.5t-53.5 10t-50.5 5t-43 1.5q-56 0 -97.5 -12t-69 -39.5t-41 -73.5t-13.5 -114v-155h404v108q0 43 15 90.5t42.5 92.5t65.5 86t84 72t98.5 49t108.5 18q39 0 71 -3.5t55 -12.5
t35.5 -25.5t12.5 -42.5q0 -17 -6 -36.5t-12 -33.5q-24 9 -53.5 15t-59 10t-56 5.5t-45.5 1.5q-56 0 -97.5 -12t-69 -39.5t-41 -73.5t-13.5 -114v-155h507v-663q0 -31 5 -49t20.5 -29t44.5 -18t78 -16q11 -2 14 -10t3 -17q0 -5 -2 -15q-1 -3 -1 -6h-408q-1 4 -1 7.5v6.5
q0 17 5 24.5t11 9.5q33 6 52 15t29.5 25t13.5 40t3 60v556h-374v-584q0 -31 4.5 -49.5t17 -30t35 -18.5t58.5 -14q11 -2 14 -10t3 -17q0 -5 -2 -15q-1 -3 -1 -6h-402q-1 4 -1 7.5v6.5q0 17 5 25t11 9q43 7 68 16t37 24.5t15 39.5t3 60v556h-404z" />
    <glyph glyph-name="f_j.liga" unicode="fj" horiz-adv-x="1006" 
d="M687 744h-368v-584q0 -31 4.5 -49.5t17 -30t35 -18.5t58.5 -14q11 -2 14 -10t3 -17q0 -5 -2 -15q-1 -3 -1 -6h-402q-1 4 -1 7.5v6.5q0 17 5 25t11 9q43 7 68 16t37 24.5t15 39.5t3 60v556h-132l15 79h117v108q0 43 15 90.5t42.5 92.5t65.5 86t84 72t98.5 49t108.5 18
q39 0 71 -3.5t55 -12.5t35.5 -25.5t12.5 -42.5q0 -17 -6 -36.5t-12 -33.5q-24 9 -53.5 15t-59 10t-56 5.5t-45.5 1.5q-56 0 -97.5 -12t-69 -39.5t-41 -73.5t-13.5 -114v-155h507l1 -805q-6 -52 -19 -96t-35.5 -91.5t-52 -93.5t-62.5 -82t-67 -58.5t-66 -22.5q-21 0 -34 10
t-20 24.5t-9 31t-2 29.5v17q0 5 1 6q81 13 126 31t67.5 50t27.5 84.5t5 135.5v751z" />
    <glyph glyph-name="f_f_j.liga" unicode="ffj" horiz-adv-x="1545" 
d="M1232 744h-374v-584q0 -31 4.5 -49.5t17 -30t35 -18.5t58.5 -14q11 -2 14 -10t3 -17q0 -5 -2 -15q-1 -3 -1 -6h-402q-1 4 -1 7.5v6.5q0 17 5 25t11 9q43 7 68 16t37 24.5t15 39.5t3 60v556h-404v-584q0 -31 4.5 -49.5t17 -30t35 -18.5t58.5 -14q11 -2 14 -10t3 -17
q0 -5 -2 -15q-1 -3 -1 -6h-402q-1 4 -1 7.5v6.5q0 17 5 25t11 9q43 7 68 16t37 24.5t15 39.5t3 60v556h-132l15 79h117v108q0 43 15 90.5t42.5 92.5t65.5 86t84 72t98.5 49t108.5 18q39 0 68.5 -3.5t49.5 -12.5t30.5 -25.5t10.5 -42.5q0 -17 -6 -36.5t-12 -33.5
q-25 9 -52 15.5t-53.5 10t-50.5 5t-43 1.5q-56 0 -97.5 -12t-69 -39.5t-41 -73.5t-13.5 -114v-155h404v108q0 43 15 90.5t42.5 92.5t65.5 86t84 72t98.5 49t108.5 18q39 0 71 -3.5t55 -12.5t35.5 -25.5t12.5 -42.5q0 -17 -6 -36.5t-12 -33.5q-24 9 -53.5 15t-59 10t-56 5.5
t-45.5 1.5q-56 0 -97.5 -12t-69 -39.5t-41 -73.5t-13.5 -114v-155h507v-824q0 -33 -13 -77t-35.5 -91.5t-52 -93.5t-62.5 -82t-67 -58.5t-66 -22.5q-21 0 -34 10t-20 24.5t-9 31t-2 29.5v17q0 5 1 6q81 13 126 31t67.5 50t27.5 84.5t5 135.5z" />
    <glyph glyph-name="f_k.liga" unicode="fk" horiz-adv-x="1456" 
d="M693 1217q-16 3 -36 5t-40 3t-38 1.5t-29 0.5q-56 0 -99.5 -13.5t-72.5 -43t-44 -77t-15 -115.5v-155h374v394zM826 160q0 -31 5 -49t20.5 -29t44.5 -18t78 -16q11 -2 14 -10t3 -17q0 -5 -2 -15q-1 -3 -1 -6h-408q-1 4 -1 7.5v6.5q0 17 5 24.5t11 9.5q33 6 52 15t29.5 25
t13.5 40t3 60v556h-374v-584q0 -31 4.5 -49.5t17 -30t35 -18.5t58.5 -14q11 -2 14 -10t3 -17q0 -5 -2 -15q-1 -3 -1 -6h-402q-1 4 -1 7.5v6.5q0 17 5 25t11 9q43 7 68 16t37 24.5t15 39.5t3 60v556h-132l15 79h117v108q0 43 16 90.5t44.5 92.5t67.5 86t86.5 72t100.5 49
t109 18q22 0 54 -4.5t63.5 -11.5t59 -14.5t41.5 -14.5v-1134zM1065 685q25 22 25 44q0 16 -15.5 27t-47.5 11q-18 0 -18 25q0 17 11 31h353q7 -7 7 -23q0 -12 -4.5 -22.5t-12.5 -10.5q-21 0 -38.5 -2t-34 -7t-33.5 -14t-37 -23q-14 -11 -32.5 -25.5t-39 -31.5t-41.5 -35
t-40 -35q-23 -20 -46.5 -41t-48.5 -44q70 -101 136 -185t127 -145t116.5 -94.5t103.5 -33.5q-17 -35 -46 -53.5t-77 -18.5q-53 0 -109 39.5t-117.5 108t-128.5 161t-141 199.5z" />
    <glyph glyph-name="f_f_k.liga" unicode="ffk" horiz-adv-x="1997" 
d="M1232 1217q-16 3 -36 5t-40 3t-38 1.5t-29 0.5q-56 0 -99.5 -13.5t-72.5 -43t-44 -77t-15 -115.5v-155h374v394zM319 744v-584q0 -31 4.5 -49.5t17 -30t35 -18.5t58.5 -14q11 -2 14 -10t3 -17q0 -5 -2 -15q-1 -3 -1 -6h-402q-1 4 -1 7.5v6.5q0 17 5 25t11 9q43 7 68 16
t37 24.5t15 39.5t3 60v556h-132l15 79h117v108q0 43 15 90.5t42.5 92.5t65.5 86t84 72t98.5 49t108.5 18q39 0 68.5 -3.5t49.5 -12.5t30.5 -25.5t10.5 -42.5q0 -17 -6 -36.5t-12 -33.5q-25 9 -52 15.5t-53.5 10t-50.5 5t-43 1.5q-56 0 -97.5 -12t-69 -39.5t-41 -73.5
t-13.5 -114v-155h404v108q0 43 16 90.5t44.5 92.5t67.5 86t86.5 72t100.5 49t109 18q22 0 54 -4.5t63.5 -11.5t59 -14.5t41.5 -14.5v-1134q0 -31 5 -49t20.5 -29t44.5 -18t78 -16q11 -2 14 -10t3 -17q0 -5 -2 -15q-1 -3 -1 -6h-408q-1 4 -1 7.5v6.5q0 17 5 24.5t11 9.5
q33 6 52 15t29.5 25t13.5 40t3 60v556h-374v-584q0 -31 4.5 -49.5t17 -30t35 -18.5t58.5 -14q11 -2 14 -10t3 -17q0 -5 -2 -15q-1 -3 -1 -6h-402q-1 4 -1 7.5v6.5q0 17 5 25t11 9q43 7 68 16t37 24.5t15 39.5t3 60v556h-404zM1605 685q25 22 25 44q0 16 -15.5 27t-47.5 11
q-18 0 -18 25q0 17 11 31h353q7 -7 7 -23q0 -12 -4.5 -22.5t-12.5 -10.5q-21 0 -38.5 -2t-34 -7t-33.5 -14t-37 -23q-14 -11 -32.5 -25.5t-39 -31.5t-41.5 -35t-40 -35q-23 -20 -46.5 -41t-48.5 -44q70 -101 136 -185t127 -145t116.5 -94.5t103.5 -33.5q-17 -35 -46 -53.5
t-77 -18.5q-53 0 -109 39.5t-117.5 108t-128.5 161t-141 199.5z" />
    <glyph glyph-name="f_f_l.liga" unicode="ffl" horiz-adv-x="1550" 
d="M1232 1217q-16 3 -36 5t-40 3t-38 1.5t-29 0.5q-56 0 -99.5 -13.5t-72.5 -43t-44 -77t-15 -115.5v-155h374v394zM319 744v-584q0 -31 4.5 -49.5t17 -30t35 -18.5t58.5 -14q11 -2 14 -10t3 -17q0 -5 -2 -15q-1 -3 -1 -6h-402q-1 4 -1 7.5v6.5q0 17 5 25t11 9q43 7 68 16
t37 24.5t15 39.5t3 60v556h-132l15 79h117v108q0 43 15 90.5t42.5 92.5t65.5 86t84 72t98.5 49t108.5 18q39 0 68.5 -3.5t49.5 -12.5t30.5 -25.5t10.5 -42.5q0 -17 -6 -36.5t-12 -33.5q-25 9 -52 15.5t-53.5 10t-50.5 5t-43 1.5q-56 0 -97.5 -12t-69 -39.5t-41 -73.5
t-13.5 -114v-155h404v108q0 43 16 90.5t44.5 92.5t67.5 86t86.5 72t100.5 49t109 18q22 0 54 -4.5t63.5 -11.5t59 -14.5t41.5 -14.5v-1134q0 -31 5 -49t20.5 -29t44.5 -18t78 -16q11 -2 14 -10t3 -17q0 -5 -2 -15q-1 -3 -1 -6h-408q-1 4 -1 7.5v6.5q0 17 5 24.5t11 9.5
q33 6 52 15t29.5 25t13.5 40t3 60v556h-374v-584q0 -31 4.5 -49.5t17 -30t35 -18.5t58.5 -14q11 -2 14 -10t3 -17q0 -5 -2 -15q-1 -3 -1 -6h-402q-1 4 -1 7.5v6.5q0 17 5 25t11 9q43 7 68 16t37 24.5t15 39.5t3 60v556h-404z" />
    <glyph glyph-name="f_t.liga" unicode="ft" horiz-adv-x="1120" 
d="M319 744v-584q0 -31 4.5 -49.5t17 -30t35 -18.5t58.5 -14q11 -2 14 -10t3 -17q0 -5 -2 -15q-1 -3 -1 -6h-402q-1 4 -1 7.5v6.5q0 17 5 25t11 9q43 7 68 16t37 24.5t15 39.5t3 60v556h-132l15 79h117v108q0 43 15 90.5t42.5 92.5t65.5 86t84 72t98.5 49t108.5 18
q39 0 71 -3.5t55 -12.5t35.5 -25.5t12.5 -42.5q0 -17 -6 -36.5t-12 -33.5q-24 9 -53.5 15t-59 10t-56 5.5t-45.5 1.5q-56 0 -97.5 -12t-69 -39.5t-41 -73.5t-13.5 -114v-155h373v200l135 51v-251h230v-79h-230v-512q0 -35 5.5 -60t19.5 -41t38 -23.5t61 -7.5q12 0 28.5 1.5
t33.5 4t33.5 6.5t29.5 9l2 -3q-36 -72 -86.5 -106t-122.5 -34q-93 0 -135 44.5t-42 131.5v590h-373z" />
    <glyph glyph-name="f_f_t.liga" unicode="fft" horiz-adv-x="1660" 
d="M858 744v-584q0 -31 4.5 -49.5t17 -30t35 -18.5t58.5 -14q11 -2 14 -10t3 -17q0 -5 -2 -15q-1 -3 -1 -6h-402q-1 4 -1 7.5v6.5q0 17 5 25t11 9q43 7 68 16t37 24.5t15 39.5t3 60v556h-404v-584q0 -31 4.5 -49.5t17 -30t35 -18.5t58.5 -14q11 -2 14 -10t3 -17q0 -5 -2 -15
q-1 -3 -1 -6h-402q-1 4 -1 7.5v6.5q0 17 5 25t11 9q43 7 68 16t37 24.5t15 39.5t3 60v556h-132l15 79h117v108q0 43 15 90.5t42.5 92.5t65.5 86t84 72t98.5 49t108.5 18q39 0 68.5 -3.5t49.5 -12.5t30.5 -25.5t10.5 -42.5q0 -17 -6 -36.5t-12 -33.5q-25 9 -52 15.5t-53.5 10
t-50.5 5t-43 1.5q-56 0 -97.5 -12t-69 -39.5t-41 -73.5t-13.5 -114v-155h404v108q0 43 15 90.5t42.5 92.5t65.5 86t84 72t98.5 49t108.5 18q39 0 71 -3.5t55 -12.5t35.5 -25.5t12.5 -42.5q0 -17 -6 -36.5t-12 -33.5q-24 9 -53.5 15t-59 10t-56 5.5t-45.5 1.5
q-56 0 -97.5 -12t-69 -39.5t-41 -73.5t-13.5 -114v-155h374v200l135 51v-251h230v-79h-230v-512q0 -35 5.5 -60t19.5 -41t38 -23.5t61 -7.5q12 0 28.5 1.5t33.5 4t33.5 6.5t29.5 9l2 -3q-36 -72 -86.5 -106t-122.5 -34q-93 0 -135 44.5t-42 131.5v590h-374z" />
    <glyph glyph-name="uni0647.fina" unicode="&#x647;" horiz-adv-x="1274" arabic-form="final" 
d="M150 0q-13 0 -25.5 -4t-23 -13.5t-17 -24.5t-6.5 -37q0 -11 1.5 -23.5t6.5 -27.5l-7 -5q0 3 -12.5 18t-27 38.5t-27 54t-12.5 63.5q0 48 25 74.5t85 26.5h218q-11 20 -19 44t-13.5 49t-8.5 50t-3 47q0 51 20.5 97t61 90t100.5 89t139 94q65 -13 131 -39q55 -21 115.5 -56
t108.5 -88q25 -29 40 -60.5t22.5 -63t10 -62.5t2.5 -60q0 -64 50 -97.5t163 -33.5h26q16 0 29.5 -2t22.5 -9.5t14 -21.5t5 -38q0 -22 -5.5 -35.5t-15 -21t-22.5 -10t-28 -2.5h-14q-27 0 -61 7t-67.5 24.5t-63 46t-47.5 71.5l-8 -24t-14 -40.5t-17.5 -45.5t-18.5 -39h-813z
M590 140q9 16 15.5 35t11.5 38.5t7.5 38.5t2.5 34q0 37 -9.5 69.5t-26 57t-39.5 39t-50 14.5q-26 0 -47 -12t-36.5 -33t-24 -49t-8.5 -61q0 -19 3.5 -45.5t11 -52t19.5 -46t29 -27.5h141zM917 140q3 10 6 23.5t5 27t3.5 26.5t1.5 23q0 79 -32.5 140.5t-86 104t-123 65
t-144.5 22.5q29 -15 58.5 -38t53.5 -54t39 -69.5t15 -84.5q0 -20 -4.5 -45.5t-11.5 -51.5t-16 -49.5t-18 -39.5h254z" />
    <glyph glyph-name="uni0672.fina" unicode="&#x672;" horiz-adv-x="523" 
d="M279 140h244q16 0 29.5 -2t22.5 -9.5t14 -21.5t5 -38q0 -22 -5.5 -35.5t-15 -21t-22.5 -10t-28 -2.5h-297q-31 34 -53.5 66.5t-22.5 73.5v1145q0 14 2.5 23.5t11.5 12.5l112 39l3 -2v-1218zM251 1471l-18 2q-30 4 -56 9q-25 5 -44 8.5t-31 3.5q-15 0 -31 -7t-30 -16.5
t-24.5 -19.5t-15.5 -16l-1 10q0 19 8 38t20.5 34t27.5 24t30 9q10 0 22.5 -1t24.5 -3t22.5 -4t17.5 -4l15 -2q-3 5 -5 12q-5 15 -5 28q0 22 7 40.5t19 35t27.5 29.5t32 22.5t33 14.5t30.5 5q16 0 27.5 -2t17 -6.5t8.5 -10t3 -12.5t-2 -14.5t-4 -16.5q-7 4 -16 6t-18.5 4.5
t-19 3.5t-16.5 1q-42 0 -62.5 -19t-20.5 -54q0 -20 8 -35.5t21.5 -26t30.5 -16t35 -5.5h96l1 -1q-4 -17 -6.5 -27t-5 -15t-4.5 -6.5t-5 -1.5z" />
    <glyph glyph-name="uni0673.fina" unicode="&#x673;" horiz-adv-x="594" 
d="M279 140h244q16 0 29.5 -2t22.5 -9.5t14 -21.5t5 -38q0 -22 -5.5 -35.5t-15 -21t-22.5 -10t-28 -2.5h-297q-31 34 -53.5 66.5t-22.5 73.5v1145q0 14 2.5 23.5t11.5 12.5l112 39l3 -2v-1218zM271 -359l-18 2q-30 4 -56 9q-25 5 -44 8.5t-31 3.5q-15 0 -31 -7t-30 -16.5
t-24.5 -19.5t-15.5 -16l-1 10q0 19 8 38t20.5 34t27.5 24t30 9q10 0 22.5 -1t24.5 -3t22.5 -4t17.5 -4l15 -2q-3 5 -5 12q-5 15 -5 28q0 22 7 40.5t19 35t27.5 29.5t32 22.5t33 14.5t30.5 5q16 0 27.5 -2t17 -6.5t8.5 -10t3 -12.5t-2 -14.5t-4 -16.5q-7 4 -16 6t-18.5 4.5
t-19 3.5t-16.5 1q-42 0 -62.5 -19t-20.5 -54q0 -20 8 -35.5t21.5 -26t30.5 -16t35 -5.5h96l1 -1q-4 -17 -6.5 -27t-5 -15t-4.5 -6.5t-5 -1.5z" />
    <glyph glyph-name="uni0675.fina" unicode="&#x675;" horiz-adv-x="673" 
d="M259 140h414q16 0 29.5 -2t22.5 -9.5t14 -21.5t5 -38q0 -22 -5.5 -35.5t-15 -21t-22.5 -10t-28 -2.5h-467q-31 34 -53.5 66.5t-22.5 73.5v1145q0 14 2.5 23.5t11.5 12.5l112 39l3 -2v-1218zM406 1619q0 -19 12 -35.5t32.5 -29t48 -19.5t59.5 -7q12 0 26.5 1.5t28.5 3.5
l-32 -59l-280 -36l28 58l94 13q-33 14 -56 38t-23 55q0 25 17 49t43 43t56 30.5t57 11.5q39 0 74 -23l-33 -57q-16 11 -36.5 17t-40.5 6q-28 0 -51.5 -16.5t-23.5 -43.5z" />
    <glyph glyph-name="uni0676.fina" unicode="&#x676;" horiz-adv-x="1079" 
d="M669 0q-23 -69 -58.5 -131.5t-82.5 -110t-106.5 -75t-130.5 -27.5q-32 0 -63 9t-57.5 28t-45 47t-25.5 67q84 -22 158 -22q64 0 115 16.5t88.5 46.5t62.5 71.5t37 92.5q-90 0 -166.5 21t-132.5 61t-88 98t-32 132q0 66 26.5 130t81 115t137.5 82t196 31q22 -30 44 -74.5
t40 -101.5t29.5 -124.5t11.5 -142.5q0 -24 -2 -49t-5 -50h379q16 0 29.5 -2t22.5 -9.5t14 -21.5t5 -38q0 -22 -5.5 -35.5t-15 -21t-22.5 -10t-28 -2.5h-411zM582 140q2 17 3 34.5t1 36.5q0 44 -6 90.5t-18.5 92.5t-31 88t-43.5 77q-68 0 -114.5 -15t-75.5 -40.5t-42 -59.5
t-13 -71q0 -42 17 -83.5t56.5 -74.5t105 -54t161.5 -21zM603 870l37 80l125 17q-45 19 -75.5 49.5t-30.5 70.5q0 24 13.5 50.5t45.5 54.5q32 30 76 54t95 24q26 0 53 -8t56 -27l-42 -69q-26 17 -54 26.5t-56 9.5q-21 0 -39.5 -6.5t-33 -18t-22.5 -27.5t-8 -34
q0 -28 17 -50.5t45 -38t64.5 -24t74.5 -8.5q16 0 33.5 1.5t37.5 3.5l-41 -81z" />
    <glyph glyph-name="uni0677.fina" unicode="&#x677;" horiz-adv-x="1079" 
d="M669 0q-23 -69 -58.5 -131.5t-82.5 -110t-106.5 -75t-130.5 -27.5q-32 0 -63 9t-57.5 28t-45 47t-25.5 67q84 -22 158 -22q64 0 115 16.5t88.5 46.5t62.5 71.5t37 92.5q-90 0 -166.5 21t-132.5 61t-88 98t-32 132q0 66 26.5 130t81 115t137.5 82t196 31q22 -30 44 -74.5
t40 -101.5t29.5 -124.5t11.5 -142.5q0 -24 -2 -49t-5 -50h379q16 0 29.5 -2t22.5 -9.5t14 -21.5t5 -38q0 -22 -5.5 -35.5t-15 -21t-22.5 -10t-28 -2.5h-411zM582 140q2 17 3 34.5t1 36.5q0 44 -6 90.5t-18.5 92.5t-31 88t-43.5 77q-68 0 -114.5 -15t-75.5 -40.5t-42 -59.5
t-13 -71q0 -42 17 -83.5t56.5 -74.5t105 -54t161.5 -21zM603 870l37 80l125 17q-45 19 -75.5 49.5t-30.5 70.5q0 24 13.5 50.5t45.5 54.5q32 30 76 54t95 24q26 0 53 -8t56 -27l-42 -69q-26 17 -54 26.5t-56 9.5q-21 0 -39.5 -6.5t-33 -18t-22.5 -27.5t-8 -34
q0 -28 17 -50.5t45 -38t64.5 -24t74.5 -8.5q16 0 33.5 1.5t37.5 3.5l-41 -81zM432 1256q32 0 60 -11t50 -28t37 -38t22 -41q-7 -37 -38.5 -83.5t-80.5 -87t-111.5 -68.5t-130.5 -28q-24 0 -47 5.5t-42 14t-30.5 22.5t-11.5 30q33 -8 66 -8q41 0 77.5 9.5t66 21.5t47.5 24
t22 19q-30 19 -51.5 57t-21.5 69q0 52 34 86.5t83 34.5zM464 1191q-39 0 -57.5 -24.5t-18.5 -51.5q0 -20 9.5 -43t24.5 -38q16 12 33 29.5t31.5 36.5t24.5 35.5t13 26.5q-10 17 -27.5 23t-32.5 6z" />
    <glyph glyph-name="uni0678.init" unicode="&#x678;" horiz-adv-x="756" 
d="M166 562q-5 8 -9 15t-4 13q0 7 6 10l126 69l3 -1q6 -12 13.5 -28t16 -34t16.5 -35.5t15 -32.5q26 -60 47 -119.5t21 -122.5q0 -65 -29 -137q-16 -39 -36 -78t-44 -81h-308q-17 0 -30 2t-22 9.5t-14 21.5t-5 38q0 43 20 56t51 13h304q10 41 10 87q0 40 -11 80.5t-31 81.5
t-47 84t-59 89zM297 780l37 80l125 17q-45 19 -75.5 49.5t-30.5 70.5q0 24 13.5 50.5t45.5 54.5q32 30 76 54t95 24q26 0 53 -8t56 -27l-42 -69q-26 17 -54 26.5t-56 9.5q-21 0 -39.5 -6.5t-33 -18t-22.5 -27.5t-8 -34q0 -28 17 -50.5t45 -38t64.5 -24t74.5 -8.5
q16 0 33.5 1.5t37.5 3.5l-41 -81z" />
    <glyph glyph-name="uni0678.medi" unicode="&#x678;" horiz-adv-x="840" 
d="M230 541q-11 20 -11 30q0 6 7 10l123 67l3 -1q38 -63 58 -128.5t20 -140.5q0 -39 -6 -81q-1 -5 -1.5 -11t-0.5 -11q0 -27 10 -51.5t35 -43t66.5 -29.5t104.5 -11h202q16 0 29.5 -2t22.5 -9.5t14 -21.5t5 -38q0 -22 -5.5 -35.5t-15 -21t-22.5 -10t-28 -2.5h-10
q-215 0 -253 10t-73 31.5t-63.5 55.5t-43.5 83q-17 -46 -39.5 -90.5t-48.5 -89.5h-309q-17 0 -30 2t-22 9.5t-14 21.5t-5 38q0 43 20 56t51 13h292q10 42 15.5 78t5.5 70q0 33 -5 62t-15 58.5t-26 61.5t-37 71zM358 780l37 80l125 17q-45 19 -75.5 49.5t-30.5 70.5
q0 24 13.5 50.5t45.5 54.5q32 30 76 54t95 24q26 0 53 -8t56 -27l-42 -69q-26 17 -54 26.5t-56 9.5q-21 0 -39.5 -6.5t-33 -18t-22.5 -27.5t-8 -34q0 -28 17 -50.5t45 -38t64.5 -24t74.5 -8.5q16 0 33.5 1.5t37.5 3.5l-41 -81z" />
    <glyph glyph-name="uni0678.fina" unicode="&#x678;" horiz-adv-x="1779" 
d="M1422 0q-69 0 -118 12.5t-83 26.5q-72 -182 -227 -282t-393 -100q-161 0 -275 42.5t-186.5 111t-106 153.5t-33.5 170q0 57 13 107t32 87.5t40.5 59t39.5 21.5q11 0 18 -7q-10 -18 -18 -43t-14 -52t-9 -54.5t-3 -51.5q0 -89 37.5 -162t105.5 -125.5t163.5 -81.5
t212.5 -29q122 0 211.5 25t147.5 62.5t86 81.5t28 82q0 7 -3.5 20.5t-12.5 18.5q-21 12 -44 25t-42.5 26.5t-32 27t-12.5 25.5q0 33 9.5 66t25.5 57q106 -91 216.5 -135.5t207.5 -44.5h375q16 0 29.5 -2t22.5 -9.5t14 -21.5t5 -38q0 -22 -5.5 -35.5t-15 -21t-22.5 -10
t-28 -2.5h-356zM1295 403l37 80l125 17q-45 19 -75.5 49.5t-30.5 70.5q0 24 13.5 50.5t45.5 54.5q32 30 76 54t95 24q26 0 53 -8t56 -27l-42 -69q-26 17 -54 26.5t-56 9.5q-21 0 -39.5 -6.5t-33 -18t-22.5 -27.5t-8 -34q0 -28 17 -50.5t45 -38t64.5 -24t74.5 -8.5
q16 0 33.5 1.5t37.5 3.5l-41 -81z" />
    <glyph glyph-name="uni067C.init" unicode="&#x67c;" horiz-adv-x="517" 
d="M445 966l-103 -102l-89 88l-89 -88l-102 102l102 103l89 -90l89 90zM150 0q-10 0 -21 -7t-20.5 -19.5t-18.5 -27.5t-15.5 -31t-10 -31.5t-3.5 -27.5q0 -25 21 -37.5t68 -12.5q32 0 50.5 4.5t28.5 11.5t12.5 15.5t2.5 17.5q0 14 -4 29.5t-11.5 31.5t-17 31.5t-19.5 27
t-21 18.5t-21 7zM63 0h-63q-17 0 -30 2t-22 9.5t-14 21.5t-5 38q0 43 20 56t51 13h304q10 41 10 87q0 40 -11 80.5t-31 81.5t-47 84t-59 89q-5 8 -9 15t-4 13q0 7 6 10l126 69l3 -1q6 -12 13.5 -28t16 -34t16.5 -35.5t15 -32.5q26 -60 47 -119.5t21 -122.5q0 -65 -29 -137
q-16 -39 -36 -78t-44 -81h-50q13 -23 23 -47q10 -26 15.5 -51.5t5.5 -47.5q0 -21 -10.5 -46.5t-33 -46.5t-58.5 -35t-87 -14q-56 0 -85.5 22.5t-29.5 67.5q0 26 7 57t19 62t28 60q5 10 11 19z" />
    <glyph glyph-name="uni067C.medi" unicode="&#x67c;" horiz-adv-x="660" 
d="M477 966l-103 -102l-89 88l-89 -88l-102 102l102 103l89 -90l89 90zM150 0q-10 0 -21 -7t-20.5 -19.5t-18.5 -27.5t-15.5 -31t-10 -31.5t-3.5 -27.5q0 -25 21 -37.5t68 -12.5q32 0 50.5 4.5t28.5 11.5t12.5 15.5t2.5 17.5q0 14 -4 29.5t-11.5 31.5t-17 31.5t-19.5 27
t-21 18.5t-21 7zM63 0h-63q-17 0 -30 2t-22 9.5t-14 21.5t-5 38q0 43 20 56t51 13h292q10 42 15.5 78t5.5 70q0 33 -5 62t-15 58.5t-26 61.5t-37 71q-11 20 -11 30q0 6 7 10l123 67l3 -1q38 -63 58 -128.5t20 -140.5q0 -39 -6 -81q-1 -5 -1.5 -11t-0.5 -11q0 -27 10 -51.5
t35 -43t66.5 -29.5t104.5 -11h22q16 0 29.5 -2t22.5 -9.5t14 -21.5t5 -38q0 -22 -5.5 -35.5t-15 -21t-22.5 -10t-28 -2.5h-10q-35 0 -73 10t-73 31.5t-63.5 55.5t-43.5 83q-17 -46 -39.5 -90.5t-48.5 -89.5h-51q13 -23 23 -47q10 -26 15.5 -51.5t5.5 -47.5
q0 -21 -10.5 -46.5t-33 -46.5t-58.5 -35t-87 -14q-56 0 -85.5 22.5t-29.5 67.5q0 26 7 57t19 62t28 60q5 10 11 19z" />
    <glyph glyph-name="uni067C.fina" unicode="&#x67c;" horiz-adv-x="1528" 
d="M844 966l-103 -102l-89 88l-89 -88l-102 102l102 103l89 -90l89 90zM650 0q-10 0 -21 -7t-20.5 -19.5t-18.5 -27.5t-15.5 -31t-10 -31.5t-3.5 -27.5q0 -25 21 -37.5t68 -12.5q32 0 50.5 4.5t28.5 11.5t12.5 15.5t2.5 17.5q0 14 -4 29.5t-11.5 31.5t-17 31.5t-19.5 27
t-21 18.5t-21 7zM563 0h-218q-174 0 -259.5 66.5t-85.5 197.5q0 49 14 99t35 89.5t44.5 64.5t43.5 25q9 0 17 -6q-11 -23 -21 -48t-17.5 -50t-11.5 -48t-4 -41q0 -48 9 -87t39 -66t86.5 -41.5t151.5 -14.5h787q12 52 12 99q0 41 -9 78.5t-26 75.5t-42.5 79t-59.5 89
q-5 8 -9 15t-4 13q0 7 6 10l126 69l3 -1l19 -37l43 -94q23 -54 39.5 -107.5t16.5 -113.5v-8q0 -41 8 -72t31.5 -52t65 -32t109.5 -11h26q16 0 29.5 -2t22.5 -9.5t14 -21.5t5 -38q0 -22 -5.5 -35.5t-15 -21t-22.5 -10t-28 -2.5h-15q-34 0 -72 10t-73 31.5t-63.5 55.5
t-43.5 82q-17 -48 -40 -92.5t-46 -86.5h-417q13 -23 23 -47q10 -26 15.5 -51.5t5.5 -47.5q0 -21 -10.5 -46.5t-33 -46.5t-58.5 -35t-87 -14q-56 0 -85.5 22.5t-29.5 67.5q0 26 7 57t19 62t28 60q5 10 11 19z" />
    <glyph glyph-name="uni067D.init" unicode="&#x67d;" horiz-adv-x="517" 
d="M166 562q-5 8 -9 15t-4 13q0 7 6 10l126 69l3 -1q6 -12 13.5 -28t16 -34t16.5 -35.5t15 -32.5q26 -60 47 -119.5t21 -122.5q0 -65 -29 -137q-16 -39 -36 -78t-44 -81h-308q-17 0 -30 2t-22 9.5t-14 21.5t-5 38q0 43 20 56t51 13h304q10 41 10 87q0 40 -11 80.5t-31 81.5
t-47 84t-59 89zM327 1093l-89 90l-89 -90l-102 103l102 102l89 -88l89 88l103 -102zM239 866l-102 103l102 102l103 -102z" />
    <glyph glyph-name="uni067D.medi" unicode="&#x67d;" horiz-adv-x="660" 
d="M230 541q-11 20 -11 30q0 6 7 10l123 67l3 -1q38 -63 58 -128.5t20 -140.5q0 -39 -6 -81q-1 -5 -1.5 -11t-0.5 -11q0 -27 10 -51.5t35 -43t66.5 -29.5t104.5 -11h22q16 0 29.5 -2t22.5 -9.5t14 -21.5t5 -38q0 -22 -5.5 -35.5t-15 -21t-22.5 -10t-28 -2.5h-10
q-35 0 -73 10t-73 31.5t-63.5 55.5t-43.5 83q-17 -46 -39.5 -90.5t-48.5 -89.5h-309q-17 0 -30 2t-22 9.5t-14 21.5t-5 38q0 43 20 56t51 13h292q10 42 15.5 78t5.5 70q0 33 -5 62t-15 58.5t-26 61.5t-37 71zM343 1093l-89 90l-89 -90l-102 103l102 102l89 -88l89 88
l103 -102zM255 866l-102 103l102 102l103 -102z" />
    <glyph glyph-name="uni067D.fina" unicode="&#x67d;" horiz-adv-x="1528" 
d="M1048 561q-5 8 -9 15t-4 13q0 7 6 10l126 69l3 -1l19 -37l43 -94q23 -54 39.5 -107.5t16.5 -113.5v-8q0 -41 8 -72t31.5 -52t65 -32t109.5 -11h26q16 0 29.5 -2t22.5 -9.5t14 -21.5t5 -38q0 -22 -5.5 -35.5t-15 -21t-22.5 -10t-28 -2.5h-15q-34 0 -72 10t-73 31.5
t-63.5 55.5t-43.5 82q-17 -48 -40 -92.5t-46 -86.5h-830q-174 0 -259.5 66.5t-85.5 197.5q0 49 14 99t35 89.5t44.5 64.5t43.5 25q9 0 17 -6q-11 -23 -21 -48t-17.5 -50t-11.5 -48t-4 -41q0 -48 9 -87t39 -66t86.5 -41.5t151.5 -14.5h787q12 52 12 99q0 41 -9 78.5t-26 75.5
t-42.5 79t-59.5 89zM730 1093l-89 90l-89 -90l-102 103l102 102l89 -88l89 88l103 -102zM642 866l-102 103l102 102l103 -102z" />
    <glyph glyph-name="uni0681.init" unicode="&#x681;" horiz-adv-x="842" 
d="M166 562q-5 8 -9 15t-4 13q0 7 6 10l121 71l8 -3q103 -162 220 -291t234 -228l-128 -149h-614q-17 0 -30 2t-22 9.5t-14 21.5t-5 38q0 43 20 56t51 13h577q-71 55 -130.5 107.5t-110 104t-92.5 103.5t-78 107zM236 1035q0 -19 12 -35.5t32.5 -29t48 -19.5t59.5 -7
q12 0 26.5 1.5t28.5 3.5l-32 -59l-280 -36l28 58l94 13q-33 14 -56 38t-23 55q0 25 17 49t43 43t56 30.5t57 11.5q39 0 74 -23l-33 -57q-16 11 -36.5 17t-40.5 6q-28 0 -51.5 -16.5t-23.5 -43.5z" />
    <glyph glyph-name="uni0681.medi" unicode="&#x681;" horiz-adv-x="909" 
d="M166 562q-5 8 -9 15t-4 13q0 7 6 10l123 70l6 -2q66 -110 143 -206t157 -167.5t159 -113t149 -41.5h13q16 0 29.5 -2t22.5 -9.5t14 -21.5t5 -38q0 -22 -5.5 -35.5t-15 -21t-22.5 -10t-28 -2.5h-11q-26 0 -57.5 4.5t-66 15.5t-70 29.5t-69.5 47.5q-10 -11 -26.5 -27.5
t-32.5 -32t-29 -26.5t-16 -11h-531q-17 0 -30 2t-22 9.5t-14 21.5t-5 38q0 43 20 56t51 13h577q-72 55 -131.5 109t-109.5 106.5t-91.5 104t-78.5 102.5zM246 1035q0 -19 12 -35.5t32.5 -29t48 -19.5t59.5 -7q12 0 26.5 1.5t28.5 3.5l-32 -59l-280 -36l28 58l94 13
q-33 14 -56 38t-23 55q0 25 17 49t43 43t56 30.5t57 11.5q39 0 74 -23l-33 -57q-16 11 -36.5 17t-40.5 6q-28 0 -51.5 -16.5t-23.5 -43.5z" />
    <glyph glyph-name="uni0681.fina" unicode="&#x681;" horiz-adv-x="1009" 
d="M263 562q-5 8 -9 15t-4 13q0 7 6 10l123 69l6 -1q66 -110 143 -206t157 -167.5t159 -113t149 -41.5h16q16 0 29.5 -2t22.5 -9.5t14 -21.5t5 -38q0 -22 -5.5 -35.5t-15 -21t-22.5 -10t-28 -2.5h-14q-26 0 -57.5 4.5t-66 15.5t-70 29.5t-69.5 47.5q-10 -11 -26.5 -27.5
t-32.5 -32t-29 -26.5t-16 -11h-145q-96 0 -163.5 -12.5t-113.5 -33t-72 -46t-40 -51t-17.5 -48.5t-3.5 -39q0 -41 21 -85t65.5 -81.5t112.5 -61.5t162 -24q16 0 51 2t75 6.5t79 11t64 16.5q-7 -31 -27 -61.5t-55.5 -55t-88.5 -40t-125 -15.5q-101 0 -177 29t-127 77.5
t-77 111t-26 129.5q0 117 41 196t109 126.5t156 68t182 20.5h186q-72 55 -131.5 109t-109.5 106.5t-91.5 104t-78.5 102.5zM326 1035q0 -19 12 -35.5t32.5 -29t48 -19.5t59.5 -7q12 0 26.5 1.5t28.5 3.5l-32 -59l-280 -36l28 58l94 13q-33 14 -56 38t-23 55q0 25 17 49
t43 43t56 30.5t57 11.5q39 0 74 -23l-33 -57q-16 11 -36.5 17t-40.5 6q-28 0 -51.5 -16.5t-23.5 -43.5z" />
    <glyph glyph-name="uni0682.init" unicode="&#x682;" horiz-adv-x="842" 
d="M166 562q-5 8 -9 15t-4 13q0 7 6 10l121 71l8 -3q103 -162 220 -291t234 -228l-128 -149h-614q-17 0 -30 2t-22 9.5t-14 21.5t-5 38q0 43 20 56t51 13h577q-71 55 -130.5 107.5t-110 104t-92.5 103.5t-78 107zM281 1064l-96 96l102 103l103 -103l-96 -96l96 -96
l-103 -102l-102 102z" />
    <glyph glyph-name="uni0682.medi" unicode="&#x682;" horiz-adv-x="909" 
d="M166 562q-5 8 -9 15t-4 13q0 7 6 10l123 70l6 -2q66 -110 143 -206t157 -167.5t159 -113t149 -41.5h13q16 0 29.5 -2t22.5 -9.5t14 -21.5t5 -38q0 -22 -5.5 -35.5t-15 -21t-22.5 -10t-28 -2.5h-11q-26 0 -57.5 4.5t-66 15.5t-70 29.5t-69.5 47.5q-10 -11 -26.5 -27.5
t-32.5 -32t-29 -26.5t-16 -11h-531q-17 0 -30 2t-22 9.5t-14 21.5t-5 38q0 43 20 56t51 13h577q-72 55 -131.5 109t-109.5 106.5t-91.5 104t-78.5 102.5zM291 1064l-96 96l102 103l103 -103l-96 -96l96 -96l-103 -102l-102 102z" />
    <glyph glyph-name="uni0682.fina" unicode="&#x682;" horiz-adv-x="1009" 
d="M263 562q-5 8 -9 15t-4 13q0 7 6 10l123 69l6 -1q66 -110 143 -206t157 -167.5t159 -113t149 -41.5h16q16 0 29.5 -2t22.5 -9.5t14 -21.5t5 -38q0 -22 -5.5 -35.5t-15 -21t-22.5 -10t-28 -2.5h-14q-26 0 -57.5 4.5t-66 15.5t-70 29.5t-69.5 47.5q-10 -11 -26.5 -27.5
t-32.5 -32t-29 -26.5t-16 -11h-145q-96 0 -163.5 -12.5t-113.5 -33t-72 -46t-40 -51t-17.5 -48.5t-3.5 -39q0 -41 21 -85t65.5 -81.5t112.5 -61.5t162 -24q16 0 51 2t75 6.5t79 11t64 16.5q-7 -31 -27 -61.5t-55.5 -55t-88.5 -40t-125 -15.5q-101 0 -177 29t-127 77.5
t-77 111t-26 129.5q0 117 41 196t109 126.5t156 68t182 20.5h186q-72 55 -131.5 109t-109.5 106.5t-91.5 104t-78.5 102.5zM381 1064l-96 96l102 103l103 -103l-96 -96l96 -96l-103 -102l-102 102z" />
    <glyph glyph-name="uni0685.init" unicode="&#x685;" horiz-adv-x="842" 
d="M166 562q-5 8 -9 15t-4 13q0 7 6 10l121 71l8 -3q103 -162 220 -291t234 -228l-128 -149h-614q-17 0 -30 2t-22 9.5t-14 21.5t-5 38q0 43 20 56t51 13h577q-71 55 -130.5 107.5t-110 104t-92.5 103.5t-78 107zM374 874l-89 90l-89 -90l-102 103l102 102l89 -88l89 88
l103 -102zM286 1079l-102 103l102 102l103 -102z" />
    <glyph glyph-name="uni0685.medi" unicode="&#x685;" horiz-adv-x="909" 
d="M166 562q-5 8 -9 15t-4 13q0 7 6 10l123 70l6 -2q66 -110 143 -206t157 -167.5t159 -113t149 -41.5h13q16 0 29.5 -2t22.5 -9.5t14 -21.5t5 -38q0 -22 -5.5 -35.5t-15 -21t-22.5 -10t-28 -2.5h-11q-26 0 -57.5 4.5t-66 15.5t-70 29.5t-69.5 47.5q-10 -11 -26.5 -27.5
t-32.5 -32t-29 -26.5t-16 -11h-531q-17 0 -30 2t-22 9.5t-14 21.5t-5 38q0 43 20 56t51 13h577q-72 55 -131.5 109t-109.5 106.5t-91.5 104t-78.5 102.5zM384 874l-89 90l-89 -90l-102 103l102 102l89 -88l89 88l103 -102zM296 1079l-102 103l102 102l103 -102z" />
    <glyph glyph-name="uni0685.fina" unicode="&#x685;" horiz-adv-x="1009" 
d="M263 562q-5 8 -9 15t-4 13q0 7 6 10l123 69l6 -1q66 -110 143 -206t157 -167.5t159 -113t149 -41.5h16q16 0 29.5 -2t22.5 -9.5t14 -21.5t5 -38q0 -22 -5.5 -35.5t-15 -21t-22.5 -10t-28 -2.5h-14q-26 0 -57.5 4.5t-66 15.5t-70 29.5t-69.5 47.5q-10 -11 -26.5 -27.5
t-32.5 -32t-29 -26.5t-16 -11h-145q-96 0 -163.5 -12.5t-113.5 -33t-72 -46t-40 -51t-17.5 -48.5t-3.5 -39q0 -41 21 -85t65.5 -81.5t112.5 -61.5t162 -24q16 0 51 2t75 6.5t79 11t64 16.5q-7 -31 -27 -61.5t-55.5 -55t-88.5 -40t-125 -15.5q-101 0 -177 29t-127 77.5
t-77 111t-26 129.5q0 117 41 196t109 126.5t156 68t182 20.5h186q-72 55 -131.5 109t-109.5 106.5t-91.5 104t-78.5 102.5zM474 874l-89 90l-89 -90l-102 103l102 102l89 -88l89 88l103 -102zM386 1079l-102 103l102 102l103 -102z" />
    <glyph glyph-name="uni0689.fina" unicode="&#x689;" horiz-adv-x="914" 
d="M380 0q-10 0 -21 -7t-20.5 -19.5t-18.5 -27.5t-15.5 -31t-10 -31.5t-3.5 -27.5q0 -25 21 -37.5t68 -12.5q32 0 50.5 4.5t28.5 11.5t12.5 15.5t2.5 17.5q0 14 -4 29.5t-11.5 31.5t-17 31.5t-19.5 27t-21 18.5t-21 7zM293 0h-223v140h491q17 70 17 115q0 47 -17 83.5
t-53.5 71t-95 70.5t-140.5 82q-11 5 -18.5 11.5t-7.5 13.5l2 6l75 111l3 1q95 -48 158 -95t102 -98.5t57.5 -110.5t23.5 -130q2 -30 14 -54t38.5 -41t68.5 -26.5t103 -9.5h23q16 0 29.5 -2t22.5 -9.5t14 -21.5t5 -38q0 -22 -5.5 -35.5t-15 -21t-22.5 -10t-28 -2.5h-11
q-53 0 -94.5 15t-71.5 37.5t-49.5 48.5t-28.5 49q-5 -37 -11.5 -74.5t-14.5 -75.5h-145q13 -23 23 -47q10 -26 15.5 -51.5t5.5 -47.5q0 -21 -10.5 -46.5t-33 -46.5t-58.5 -35t-87 -14q-56 0 -85.5 22.5t-29.5 67.5q0 26 7 57t19 62t28 60q5 10 11 19z" />
    <glyph glyph-name="uni068A.fina" unicode="&#x68a;" horiz-adv-x="914" 
d="M272 562q-11 5 -18.5 11.5t-7.5 13.5l2 6l75 111l3 1q95 -48 158 -95t102 -98.5t57.5 -110.5t23.5 -130q2 -30 14 -54t38.5 -41t68.5 -26.5t103 -9.5h23q16 0 29.5 -2t22.5 -9.5t14 -21.5t5 -38q0 -22 -5.5 -35.5t-15 -21t-22.5 -10t-28 -2.5h-11q-53 0 -94.5 15
t-71.5 37.5t-49.5 48.5t-28.5 49q-5 -37 -11.5 -74.5t-14.5 -75.5h-563v140h491q17 70 17 115q0 47 -17 83.5t-53.5 71t-95 70.5t-140.5 82zM474 -301l-103 -102l-102 102l102 103z" />
    <glyph glyph-name="uni068B.fina" unicode="&#x68b;" horiz-adv-x="914" 
d="M272 562q-11 5 -18.5 11.5t-7.5 13.5l2 6l75 111l3 1q95 -48 158 -95t102 -98.5t57.5 -110.5t23.5 -130q2 -30 14 -54t38.5 -41t68.5 -26.5t103 -9.5h23q16 0 29.5 -2t22.5 -9.5t14 -21.5t5 -38q0 -22 -5.5 -35.5t-15 -21t-22.5 -10t-28 -2.5h-11q-53 0 -94.5 15
t-71.5 37.5t-49.5 48.5t-28.5 49q-5 -37 -11.5 -74.5t-14.5 -75.5h-563v140h491q17 70 17 115q0 47 -17 83.5t-53.5 71t-95 70.5t-140.5 82zM134 866q-1 5 -1.5 8.5t-0.5 7.5q0 19 10.5 32.5t28.5 13.5h37v323l55 10v-218q10 5 27 12.5t36.5 14t39.5 11t37 4.5
q54 0 87.5 -32t33.5 -90q0 -10 -1.5 -23t-4 -26.5t-6 -26t-7.5 -21.5h-371zM468 928q5 11 6.5 24.5t1.5 21.5q0 24 -17 36.5t-45 12.5q-18 0 -39.5 -3.5t-42 -8.5t-38.5 -11t-31 -11v-61h205zM474 -301l-103 -102l-102 102l102 103z" />
    <glyph glyph-name="uni068F.fina" unicode="&#x68f;" horiz-adv-x="914" 
d="M272 562q-11 5 -18.5 11.5t-7.5 13.5l2 6l75 111l3 1q95 -48 158 -95t102 -98.5t57.5 -110.5t23.5 -130q2 -30 14 -54t38.5 -41t68.5 -26.5t103 -9.5h23q16 0 29.5 -2t22.5 -9.5t14 -21.5t5 -38q0 -22 -5.5 -35.5t-15 -21t-22.5 -10t-28 -2.5h-11q-53 0 -94.5 15
t-71.5 37.5t-49.5 48.5t-28.5 49q-5 -37 -11.5 -74.5t-14.5 -75.5h-563v140h491q17 70 17 115q0 47 -17 83.5t-53.5 71t-95 70.5t-140.5 82zM497 1181l-103 -102l-89 88l-89 -88l-102 102l102 103l89 -90l89 90zM409 976l-103 -102l-102 102l102 103z" />
    <glyph glyph-name="uni0690.fina" unicode="&#x690;" horiz-adv-x="914" 
d="M272 562q-11 5 -18.5 11.5t-7.5 13.5l2 6l75 111l3 1q95 -48 158 -95t102 -98.5t57.5 -110.5t23.5 -130q2 -30 14 -54t38.5 -41t68.5 -26.5t103 -9.5h23q16 0 29.5 -2t22.5 -9.5t14 -21.5t5 -38q0 -22 -5.5 -35.5t-15 -21t-22.5 -10t-28 -2.5h-11q-53 0 -94.5 15
t-71.5 37.5t-49.5 48.5t-28.5 49q-5 -37 -11.5 -74.5t-14.5 -75.5h-563v140h491q17 70 17 115q0 47 -17 83.5t-53.5 71t-95 70.5t-140.5 82zM403 1071l94 -94l-103 -103l-89 90l-89 -90l-102 103l98 98l-94 94l102 102l89 -88l89 88l103 -102zM390 1075l-81 81l-84 -85
l80 -80z" />
    <glyph glyph-name="uni0692.fina" unicode="&#x692;" horiz-adv-x="847" 
d="M370 562q-11 20 -11 30q0 5 4 8l126 69l3 -1q34 -65 54 -120t32.5 -105t19.5 -96t15 -92q5 -32 18 -54t37.5 -35.5t62 -19.5t92.5 -6h24q16 0 29.5 -2t22.5 -9.5t14 -21.5t5 -38q0 -22 -5.5 -35.5t-15 -21t-22.5 -10t-28 -2.5h-12q-79 0 -139 37t-95 95
q-9 -49 -25.5 -103t-41 -106.5t-57.5 -99.5t-75.5 -83t-95 -57t-115.5 -21q-34 0 -66 10.5t-57.5 30.5t-43.5 47.5t-24 62.5q87 -22 161 -22q94 0 156.5 34t99.5 89.5t52 127.5t15 148q0 83 -26 171t-88 201zM209 1118l94 48q76 -135 105 -195q32 61 107 195h1l93 -48
q-31 -36 -59 -73q-38 -49 -69 -96.5t-51 -86.5h-41q-20 39 -51 86.5t-69 96.5q-29 36 -60 73z" />
    <glyph glyph-name="uni0693.fina" unicode="&#x693;" horiz-adv-x="847" 
d="M380 -280q-10 0 -21 -7t-20.5 -19.5t-18.5 -27.5t-15.5 -31t-10 -31.5t-3.5 -27.5q0 -25 21 -37.5t68 -12.5q32 0 50.5 4.5t28.5 11.5t12.5 15.5t2.5 17.5q0 14 -4 29.5t-11.5 31.5t-17 31.5t-19.5 27t-21 18.5t-21 7zM266 -330q-35 -8 -75 -8q-34 0 -66 10.5t-57.5 30.5
t-43.5 47.5t-24 62.5q87 -22 161 -22q94 0 156.5 34t99.5 89.5t52 127.5t15 148q0 83 -26 171t-88 201q-11 20 -11 30q0 5 4 8l126 69l3 -1q34 -65 54 -120t32.5 -105t19.5 -96t15 -92q5 -32 18 -54t37.5 -35.5t62 -19.5t92.5 -6h24q16 0 29.5 -2t22.5 -9.5t14 -21.5t5 -38
q0 -22 -5.5 -35.5t-15 -21t-22.5 -10t-28 -2.5h-12q-79 0 -139 37t-95 95q-9 -49 -25.5 -103t-41 -106.5t-57.5 -99.5q-16 -23 -35 -44l17 -17q15 -18 28.5 -41t23.5 -48.5t15.5 -51t5.5 -47.5q0 -21 -10.5 -46.5t-33 -46.5t-58.5 -35t-87 -14q-56 0 -85.5 22.5t-29.5 67.5
q0 26 7 57t19 62q6 15 12 29z" />
    <glyph glyph-name="uni0694.fina" unicode="&#x694;" horiz-adv-x="847" 
d="M370 562q-11 20 -11 30q0 5 4 8l126 69l3 -1q34 -65 54 -120t32.5 -105t19.5 -96t15 -92q5 -32 18 -54t37.5 -35.5t62 -19.5t92.5 -6h24q16 0 29.5 -2t22.5 -9.5t14 -21.5t5 -38q0 -22 -5.5 -35.5t-15 -21t-22.5 -10t-28 -2.5h-12q-79 0 -139 37t-95 95
q-9 -49 -25.5 -103t-41 -106.5t-57.5 -99.5t-75.5 -83t-95 -57t-115.5 -21q-34 0 -66 10.5t-57.5 30.5t-43.5 47.5t-24 62.5q87 -22 161 -22q94 0 156.5 34t99.5 89.5t52 127.5t15 148q0 83 -26 171t-88 201zM533 -541l-103 -102l-102 102l102 103z" />
    <glyph glyph-name="uni0695.fina" unicode="&#x695;" horiz-adv-x="847" 
d="M370 562q-11 20 -11 30q0 5 4 8l126 69l3 -1q34 -65 54 -120t32.5 -105t19.5 -96t15 -92q5 -32 18 -54t37.5 -35.5t62 -19.5t92.5 -6h24q16 0 29.5 -2t22.5 -9.5t14 -21.5t5 -38q0 -22 -5.5 -35.5t-15 -21t-22.5 -10t-28 -2.5h-12q-79 0 -139 37t-95 95
q-9 -49 -25.5 -103t-41 -106.5t-57.5 -99.5t-75.5 -83t-95 -57t-115.5 -21q-34 0 -66 10.5t-57.5 30.5t-43.5 47.5t-24 62.5q87 -22 161 -22q94 0 156.5 34t99.5 89.5t52 127.5t15 148q0 83 -26 171t-88 201zM209 -512l94 48q76 -135 105 -195q32 61 107 195h1l93 -48
q-31 -36 -59 -73q-38 -49 -69 -96.5t-51 -86.5h-41q-20 39 -51 86.5t-69 96.5q-29 36 -60 73z" />
    <glyph glyph-name="uni0696.fina" unicode="&#x696;" horiz-adv-x="847" 
d="M370 562q-11 20 -11 30q0 5 4 8l126 69l3 -1q34 -65 54 -120t32.5 -105t19.5 -96t15 -92q5 -32 18 -54t37.5 -35.5t62 -19.5t92.5 -6h24q16 0 29.5 -2t22.5 -9.5t14 -21.5t5 -38q0 -22 -5.5 -35.5t-15 -21t-22.5 -10t-28 -2.5h-12q-79 0 -139 37t-95 95
q-9 -49 -25.5 -103t-41 -106.5t-57.5 -99.5t-75.5 -83t-95 -57t-115.5 -21q-34 0 -66 10.5t-57.5 30.5t-43.5 47.5t-24 62.5q87 -22 161 -22q94 0 156.5 34t99.5 89.5t52 127.5t15 148q0 83 -26 171t-88 201zM533 -541l-103 -102l-102 102l102 103zM362 195l-103 -102
l-102 102l102 103z" />
    <glyph glyph-name="uni0697.fina" unicode="&#x697;" horiz-adv-x="847" 
d="M370 562q-11 20 -11 30q0 5 4 8l126 69l3 -1q34 -65 54 -120t32.5 -105t19.5 -96t15 -92q5 -32 18 -54t37.5 -35.5t62 -19.5t92.5 -6h24q16 0 29.5 -2t22.5 -9.5t14 -21.5t5 -38q0 -22 -5.5 -35.5t-15 -21t-22.5 -10t-28 -2.5h-12q-79 0 -139 37t-95 95
q-9 -49 -25.5 -103t-41 -106.5t-57.5 -99.5t-75.5 -83t-95 -57t-115.5 -21q-34 0 -66 10.5t-57.5 30.5t-43.5 47.5t-24 62.5q87 -22 161 -22q94 0 156.5 34t99.5 89.5t52 127.5t15 148q0 83 -26 171t-88 201zM592 968l-103 -102l-89 88l-89 -88l-102 102l102 103l89 -90
l89 90z" />
    <glyph glyph-name="uni0699.fina" unicode="&#x699;" horiz-adv-x="847" 
d="M370 562q-11 20 -11 30q0 5 4 8l126 69l3 -1q34 -65 54 -120t32.5 -105t19.5 -96t15 -92q5 -32 18 -54t37.5 -35.5t62 -19.5t92.5 -6h24q16 0 29.5 -2t22.5 -9.5t14 -21.5t5 -38q0 -22 -5.5 -35.5t-15 -21t-22.5 -10t-28 -2.5h-12q-79 0 -139 37t-95 95
q-9 -49 -25.5 -103t-41 -106.5t-57.5 -99.5t-75.5 -83t-95 -57t-115.5 -21q-34 0 -66 10.5t-57.5 30.5t-43.5 47.5t-24 62.5q87 -22 161 -22q94 0 156.5 34t99.5 89.5t52 127.5t15 148q0 83 -26 171t-88 201zM305 1064l-100 100l102 103l89 -90l89 90l103 -103l-96 -96
l100 -100l-103 -102l-89 88l-89 -88l-102 102zM483 1064l-87 86l-82 -82l86 -87z" />
    <glyph glyph-name="uni069A.init" unicode="&#x69a;" horiz-adv-x="1512" 
d="M1161 562q-12 16 -12 29q0 6 5 9l126 69l3 -1q6 -12 13.5 -28t16 -34t16.5 -35.5t15 -32.5q26 -60 47 -119.5t21 -122.5q0 -65 -29 -137q-16 -39 -36 -78t-44 -81h-145q-35 0 -73 10t-73 31.5t-63.5 55.5t-43.5 83q-17 -46 -39.5 -90.5t-48.5 -89.5h-129q-35 0 -73 10
t-73 31.5t-63.5 55.5t-43.5 83q-17 -46 -39.5 -90.5t-48.5 -89.5h-347q-17 0 -30 2t-22 9.5t-14 21.5t-5 38q0 43 20 56t51 13h330q10 42 15.5 78t5.5 70q0 52 -15.5 90t-31.5 66q-10 17 -10 28q0 8 7 12l120 66l3 -1q12 -26 28 -70.5t16 -100.5q0 -39 -6 -81
q-1 -5 -1.5 -11t-0.5 -11q0 -27 10 -51.5t35 -43t66.5 -29.5t104.5 -11h124q10 42 15.5 78t5.5 70q0 29 -5 57.5t-13 54.5t-18 49t-20 41q-10 17 -10 29q0 6 6 11l123 67l3 -1q10 -17 19.5 -41t16.5 -52.5t11 -60t4 -64.5q0 -39 -6 -81q-1 -5 -1.5 -11t-0.5 -11
q0 -27 10 -51.5t35 -43t66.5 -29.5t104.5 -11h153q10 41 10 87q0 40 -9.5 76.5t-28 75.5t-46 83t-64.5 100zM946 965l-103 -102l-102 102l102 103zM934 -301l-103 -102l-102 102l102 103z" />
    <glyph glyph-name="uni069A.medi" unicode="&#x69a;" horiz-adv-x="1635" 
d="M1228 505q-11 20 -11 30q0 3 2 5.5t10 7.5l118 64l3 -1q28 -55 43 -111t15 -122q0 -39 -6 -81q-1 -5 -1.5 -11t-0.5 -11q0 -27 10 -51.5t35 -43t66.5 -29.5t104.5 -11h19q16 0 29.5 -2t22.5 -9.5t14 -21.5t5 -38q0 -22 -5.5 -35.5t-15 -21t-22.5 -10t-28 -2.5h-7
q-35 0 -73 10t-73 31.5t-63.5 55.5t-43.5 83q-17 -46 -39.5 -90.5t-48.5 -89.5h-129q-35 0 -73 10t-73 31.5t-63.5 55.5t-43.5 83q-17 -46 -39.5 -90.5t-48.5 -89.5h-129q-35 0 -73 10t-73 31.5t-63.5 55.5t-43.5 83q-17 -46 -39.5 -90.5t-48.5 -89.5h-347q-17 0 -30 2
t-22 9.5t-14 21.5t-5 38q0 43 20 56t51 13h330q10 42 15.5 78t5.5 70q0 52 -16 88t-33 67q-10 16 -10 29q0 8 6 11l123 67l3 -1q12 -26 28 -70.5t16 -100.5q0 -39 -6 -81q-1 -5 -1.5 -11t-0.5 -11q0 -27 10 -51.5t35 -43t66.5 -29.5t104.5 -11h124q10 42 15.5 78t5.5 70
q0 58 -16 105t-40 97q-4 9 -7 16.5t-3 13.5t5 9l124 68l3 -1q10 -17 19.5 -41t16.5 -52.5t11 -60t4 -64.5q0 -39 -6 -81q-1 -5 -1.5 -11t-0.5 -11q0 -27 10 -51.5t35 -43t66.5 -29.5t104.5 -11h124q10 42 15.5 78t5.5 70q0 29 -3.5 55t-11 51.5t-19.5 52.5t-29 58zM958 965
l-103 -102l-102 102l102 103zM934 -301l-103 -102l-102 102l102 103z" />
    <glyph glyph-name="uni069A.fina" unicode="&#x69a;" horiz-adv-x="2127" 
d="M722 492q-9 10 -9 18q0 7 8 12l117 75l3 -1q58 -84 87 -175.5t29 -176.5q0 -21 10 -40t34 -33t65 -22.5t103 -8.5h124q10 42 15.5 78t5.5 70q0 58 -16.5 105.5t-39.5 96.5q-4 9 -8 17t-4 13t5 8l126 69l3 -1q10 -17 19.5 -41t16.5 -52.5t11 -60t4 -64.5q0 -39 -6 -81
q-1 -5 -1.5 -11t-0.5 -11q0 -27 10 -51.5t35 -43t66.5 -29.5t104.5 -11h124q10 42 15.5 78t5.5 70q0 58 -16 108t-47 109q-4 8 -7 15t-3 13q0 8 7 12l122 67l3 -1q28 -55 43 -111t15 -122q0 -39 -6 -81q-1 -5 -1.5 -11t-0.5 -11q0 -27 10 -51.5t35 -43t66.5 -29.5t104.5 -11
h18q16 0 29.5 -2t22.5 -9.5t14 -21.5t5 -38q0 -22 -5.5 -35.5t-15 -21t-22.5 -10t-28 -2.5h-6q-35 0 -73 10t-73 31.5t-63.5 55.5t-43.5 83q-17 -46 -39.5 -90.5t-48.5 -89.5h-129q-35 0 -73 10t-73 31.5t-63.5 55.5t-43.5 83q-17 -46 -39.5 -90.5t-48.5 -89.5h-129
q-31 0 -64.5 7.5t-64.5 23.5t-58.5 42t-46.5 63q-15 -95 -56 -174.5t-103 -136.5t-143 -88.5t-176 -31.5q-109 0 -196 32t-147.5 88.5t-93 134t-32.5 169.5q0 59 14.5 113t35.5 95t44 65.5t40 24.5q9 0 17 -8q-9 -14 -17.5 -38.5t-15.5 -53t-11 -57.5t-4 -52
q0 -89 29 -156.5t80 -113.5t120.5 -69t150.5 -23q94 0 165 25t117.5 65.5t70 91.5t23.5 102q0 52 -13 104.5t-33.5 99.5t-44.5 85.5t-46 62.5zM1391 965l-103 -102l-102 102l102 103zM1394 -301l-103 -102l-102 102l102 103z" />
    <glyph glyph-name="uni069B.init" unicode="&#x69b;" horiz-adv-x="1512" 
d="M1161 562q-12 16 -12 29q0 6 5 9l126 69l3 -1q6 -12 13.5 -28t16 -34t16.5 -35.5t15 -32.5q26 -60 47 -119.5t21 -122.5q0 -65 -29 -137q-16 -39 -36 -78t-44 -81h-145q-35 0 -73 10t-73 31.5t-63.5 55.5t-43.5 83q-17 -46 -39.5 -90.5t-48.5 -89.5h-129q-35 0 -73 10
t-73 31.5t-63.5 55.5t-43.5 83q-17 -46 -39.5 -90.5t-48.5 -89.5h-347q-17 0 -30 2t-22 9.5t-14 21.5t-5 38q0 43 20 56t51 13h330q10 42 15.5 78t5.5 70q0 52 -15.5 90t-31.5 66q-10 17 -10 28q0 8 7 12l120 66l3 -1q12 -26 28 -70.5t16 -100.5q0 -39 -6 -81
q-1 -5 -1.5 -11t-0.5 -11q0 -27 10 -51.5t35 -43t66.5 -29.5t104.5 -11h124q10 42 15.5 78t5.5 70q0 29 -5 57.5t-13 54.5t-18 49t-20 41q-10 17 -10 29q0 6 6 11l123 67l3 -1q10 -17 19.5 -41t16.5 -52.5t11 -60t4 -64.5q0 -39 -6 -81q-1 -5 -1.5 -11t-0.5 -11
q0 -27 10 -51.5t35 -43t66.5 -29.5t104.5 -11h153q10 41 10 87q0 40 -9.5 76.5t-28 75.5t-46 83t-64.5 100zM1025 -304l-103 -102l-89 88l-89 -88l-102 102l102 103l89 -90l89 90zM937 -509l-103 -102l-102 102l102 103z" />
    <glyph glyph-name="uni069B.medi" unicode="&#x69b;" horiz-adv-x="1635" 
d="M1228 505q-11 20 -11 30q0 3 2 5.5t10 7.5l118 64l3 -1q28 -55 43 -111t15 -122q0 -39 -6 -81q-1 -5 -1.5 -11t-0.5 -11q0 -27 10 -51.5t35 -43t66.5 -29.5t104.5 -11h19q16 0 29.5 -2t22.5 -9.5t14 -21.5t5 -38q0 -22 -5.5 -35.5t-15 -21t-22.5 -10t-28 -2.5h-7
q-35 0 -73 10t-73 31.5t-63.5 55.5t-43.5 83q-17 -46 -39.5 -90.5t-48.5 -89.5h-129q-35 0 -73 10t-73 31.5t-63.5 55.5t-43.5 83q-17 -46 -39.5 -90.5t-48.5 -89.5h-129q-35 0 -73 10t-73 31.5t-63.5 55.5t-43.5 83q-17 -46 -39.5 -90.5t-48.5 -89.5h-347q-17 0 -30 2
t-22 9.5t-14 21.5t-5 38q0 43 20 56t51 13h330q10 42 15.5 78t5.5 70q0 52 -16 88t-33 67q-10 16 -10 29q0 8 6 11l123 67l3 -1q12 -26 28 -70.5t16 -100.5q0 -39 -6 -81q-1 -5 -1.5 -11t-0.5 -11q0 -27 10 -51.5t35 -43t66.5 -29.5t104.5 -11h124q10 42 15.5 78t5.5 70
q0 58 -16 105t-40 97q-4 9 -7 16.5t-3 13.5t5 9l124 68l3 -1q10 -17 19.5 -41t16.5 -52.5t11 -60t4 -64.5q0 -39 -6 -81q-1 -5 -1.5 -11t-0.5 -11q0 -27 10 -51.5t35 -43t66.5 -29.5t104.5 -11h124q10 42 15.5 78t5.5 70q0 29 -3.5 55t-11 51.5t-19.5 52.5t-29 58z
M1035 -304l-103 -102l-89 88l-89 -88l-102 102l102 103l89 -90l89 90zM947 -509l-103 -102l-102 102l102 103z" />
    <glyph glyph-name="uni069B.fina" unicode="&#x69b;" horiz-adv-x="2127" 
d="M722 492q-9 10 -9 18q0 7 8 12l117 75l3 -1q58 -84 87 -175.5t29 -176.5q0 -21 10 -40t34 -33t65 -22.5t103 -8.5h124q10 42 15.5 78t5.5 70q0 58 -16.5 105.5t-39.5 96.5q-4 9 -8 17t-4 13t5 8l126 69l3 -1q10 -17 19.5 -41t16.5 -52.5t11 -60t4 -64.5q0 -39 -6 -81
q-1 -5 -1.5 -11t-0.5 -11q0 -27 10 -51.5t35 -43t66.5 -29.5t104.5 -11h124q10 42 15.5 78t5.5 70q0 58 -16 108t-47 109q-4 8 -7 15t-3 13q0 8 7 12l122 67l3 -1q28 -55 43 -111t15 -122q0 -39 -6 -81q-1 -5 -1.5 -11t-0.5 -11q0 -27 10 -51.5t35 -43t66.5 -29.5t104.5 -11
h18q16 0 29.5 -2t22.5 -9.5t14 -21.5t5 -38q0 -22 -5.5 -35.5t-15 -21t-22.5 -10t-28 -2.5h-6q-35 0 -73 10t-73 31.5t-63.5 55.5t-43.5 83q-17 -46 -39.5 -90.5t-48.5 -89.5h-129q-35 0 -73 10t-73 31.5t-63.5 55.5t-43.5 83q-17 -46 -39.5 -90.5t-48.5 -89.5h-129
q-31 0 -64.5 7.5t-64.5 23.5t-58.5 42t-46.5 63q-15 -95 -56 -174.5t-103 -136.5t-143 -88.5t-176 -31.5q-109 0 -196 32t-147.5 88.5t-93 134t-32.5 169.5q0 59 14.5 113t35.5 95t44 65.5t40 24.5q9 0 17 -8q-9 -14 -17.5 -38.5t-15.5 -53t-11 -57.5t-4 -52
q0 -89 29 -156.5t80 -113.5t120.5 -69t150.5 -23q94 0 165 25t117.5 65.5t70 91.5t23.5 102q0 52 -13 104.5t-33.5 99.5t-44.5 85.5t-46 62.5zM1465 -304l-103 -102l-89 88l-89 -88l-102 102l102 103l89 -90l89 90zM1377 -509l-103 -102l-102 102l102 103z" />
    <glyph glyph-name="uni069C.init" unicode="&#x69c;" horiz-adv-x="1512" 
d="M1161 562q-12 16 -12 29q0 6 5 9l126 69l3 -1q6 -12 13.5 -28t16 -34t16.5 -35.5t15 -32.5q26 -60 47 -119.5t21 -122.5q0 -65 -29 -137q-16 -39 -36 -78t-44 -81h-145q-35 0 -73 10t-73 31.5t-63.5 55.5t-43.5 83q-17 -46 -39.5 -90.5t-48.5 -89.5h-129q-35 0 -73 10
t-73 31.5t-63.5 55.5t-43.5 83q-17 -46 -39.5 -90.5t-48.5 -89.5h-347q-17 0 -30 2t-22 9.5t-14 21.5t-5 38q0 43 20 56t51 13h330q10 42 15.5 78t5.5 70q0 52 -15.5 90t-31.5 66q-10 17 -10 28q0 8 7 12l120 66l3 -1q12 -26 28 -70.5t16 -100.5q0 -39 -6 -81
q-1 -5 -1.5 -11t-0.5 -11q0 -27 10 -51.5t35 -43t66.5 -29.5t104.5 -11h124q10 42 15.5 78t5.5 70q0 29 -5 57.5t-13 54.5t-18 49t-20 41q-10 17 -10 29q0 6 6 11l123 67l3 -1q10 -17 19.5 -41t16.5 -52.5t11 -60t4 -64.5q0 -39 -6 -81q-1 -5 -1.5 -11t-0.5 -11
q0 -27 10 -51.5t35 -43t66.5 -29.5t104.5 -11h153q10 41 10 87q0 40 -9.5 76.5t-28 75.5t-46 83t-64.5 100zM1034 968l-103 -102l-89 88l-89 -88l-102 102l102 103l89 -90l89 90zM946 1195l-103 -102l-102 102l102 103zM1025 -304l-103 -102l-89 88l-89 -88l-102 102
l102 103l89 -90l89 90zM937 -509l-103 -102l-102 102l102 103z" />
    <glyph glyph-name="uni069C.medi" unicode="&#x69c;" horiz-adv-x="1635" 
d="M1228 505q-11 20 -11 30q0 3 2 5.5t10 7.5l118 64l3 -1q28 -55 43 -111t15 -122q0 -39 -6 -81q-1 -5 -1.5 -11t-0.5 -11q0 -27 10 -51.5t35 -43t66.5 -29.5t104.5 -11h19q16 0 29.5 -2t22.5 -9.5t14 -21.5t5 -38q0 -22 -5.5 -35.5t-15 -21t-22.5 -10t-28 -2.5h-7
q-35 0 -73 10t-73 31.5t-63.5 55.5t-43.5 83q-17 -46 -39.5 -90.5t-48.5 -89.5h-129q-35 0 -73 10t-73 31.5t-63.5 55.5t-43.5 83q-17 -46 -39.5 -90.5t-48.5 -89.5h-129q-35 0 -73 10t-73 31.5t-63.5 55.5t-43.5 83q-17 -46 -39.5 -90.5t-48.5 -89.5h-347q-17 0 -30 2
t-22 9.5t-14 21.5t-5 38q0 43 20 56t51 13h330q10 42 15.5 78t5.5 70q0 52 -16 88t-33 67q-10 16 -10 29q0 8 6 11l123 67l3 -1q12 -26 28 -70.5t16 -100.5q0 -39 -6 -81q-1 -5 -1.5 -11t-0.5 -11q0 -27 10 -51.5t35 -43t66.5 -29.5t104.5 -11h124q10 42 15.5 78t5.5 70
q0 58 -16 105t-40 97q-4 9 -7 16.5t-3 13.5t5 9l124 68l3 -1q10 -17 19.5 -41t16.5 -52.5t11 -60t4 -64.5q0 -39 -6 -81q-1 -5 -1.5 -11t-0.5 -11q0 -27 10 -51.5t35 -43t66.5 -29.5t104.5 -11h124q10 42 15.5 78t5.5 70q0 29 -3.5 55t-11 51.5t-19.5 52.5t-29 58zM1046 968
l-103 -102l-89 88l-89 -88l-102 102l102 103l89 -90l89 90zM958 1195l-103 -102l-102 102l102 103zM1035 -304l-103 -102l-89 88l-89 -88l-102 102l102 103l89 -90l89 90zM947 -509l-103 -102l-102 102l102 103z" />
    <glyph glyph-name="uni069C.fina" unicode="&#x69c;" horiz-adv-x="2127" 
d="M722 492q-9 10 -9 18q0 7 8 12l117 75l3 -1q58 -84 87 -175.5t29 -176.5q0 -21 10 -40t34 -33t65 -22.5t103 -8.5h124q10 42 15.5 78t5.5 70q0 58 -16.5 105.5t-39.5 96.5q-4 9 -8 17t-4 13t5 8l126 69l3 -1q10 -17 19.5 -41t16.5 -52.5t11 -60t4 -64.5q0 -39 -6 -81
q-1 -5 -1.5 -11t-0.5 -11q0 -27 10 -51.5t35 -43t66.5 -29.5t104.5 -11h124q10 42 15.5 78t5.5 70q0 58 -16 108t-47 109q-4 8 -7 15t-3 13q0 8 7 12l122 67l3 -1q28 -55 43 -111t15 -122q0 -39 -6 -81q-1 -5 -1.5 -11t-0.5 -11q0 -27 10 -51.5t35 -43t66.5 -29.5t104.5 -11
h18q16 0 29.5 -2t22.5 -9.5t14 -21.5t5 -38q0 -22 -5.5 -35.5t-15 -21t-22.5 -10t-28 -2.5h-6q-35 0 -73 10t-73 31.5t-63.5 55.5t-43.5 83q-17 -46 -39.5 -90.5t-48.5 -89.5h-129q-35 0 -73 10t-73 31.5t-63.5 55.5t-43.5 83q-17 -46 -39.5 -90.5t-48.5 -89.5h-129
q-31 0 -64.5 7.5t-64.5 23.5t-58.5 42t-46.5 63q-15 -95 -56 -174.5t-103 -136.5t-143 -88.5t-176 -31.5q-109 0 -196 32t-147.5 88.5t-93 134t-32.5 169.5q0 59 14.5 113t35.5 95t44 65.5t40 24.5q9 0 17 -8q-9 -14 -17.5 -38.5t-15.5 -53t-11 -57.5t-4 -52
q0 -89 29 -156.5t80 -113.5t120.5 -69t150.5 -23q94 0 165 25t117.5 65.5t70 91.5t23.5 102q0 52 -13 104.5t-33.5 99.5t-44.5 85.5t-46 62.5zM1479 968l-103 -102l-89 88l-89 -88l-102 102l102 103l89 -90l89 90zM1391 1195l-103 -102l-102 102l102 103zM1465 -304
l-103 -102l-89 88l-89 -88l-102 102l102 103l89 -90l89 90zM1377 -509l-103 -102l-102 102l102 103z" />
    <glyph glyph-name="uni069D.init" unicode="&#x69d;" horiz-adv-x="1529" 
d="M1287 140q13 29 18 65.5t5 72.5q0 66 -11 112t-26 62q-14 15 -33 25t-39 16.5t-39.5 9t-34.5 2.5q-67 0 -126.5 -24t-118.5 -70.5t-120.5 -114.5t-132.5 -156h658zM191 472q-5 9 -8.5 17t-3.5 13t5 8l126 69l3 -1q21 -48 32.5 -97t11.5 -106q0 -39 -6 -81q-1 -5 -1.5 -11
t-0.5 -11q0 -27 6 -51t20 -42t37.5 -28.5t58.5 -10.5h14q66 90 139.5 178t152 158.5t159 114t159.5 43.5q81 0 149.5 -39.5t119.5 -127.5q35 -61 50 -110t15 -94q0 -23 -4 -57t-10 -71t-13.5 -72.5t-14.5 -62.5h-901q-70 0 -108 40.5t-54 136.5q-17 -46 -39.5 -89t-48.5 -88
h-236q-17 0 -30 2t-22 9.5t-14 21.5t-5 38q0 43 20 56t51 13h219q10 42 15.5 76.5t5.5 68.5q0 52 -12 93.5t-37 93.5zM1025 -304l-103 -102l-89 88l-89 -88l-102 102l102 103l89 -90l89 90z" />
    <glyph glyph-name="uni069D.medi" unicode="&#x69d;" horiz-adv-x="1660" 
d="M1280 140q13 29 18 65.5t5 72.5q0 66 -10.5 112.5t-26.5 61.5q-26 26 -63.5 39.5t-82.5 13.5q-66 0 -125 -24t-118 -70.5t-121 -114.5t-134 -156h658zM184 472q-5 9 -8.5 17t-3.5 13t5 8l126 69l3 -1q21 -48 32.5 -97t11.5 -106q0 -39 -6 -81q-1 -5 -1.5 -11t-0.5 -11
q0 -27 6.5 -51t21 -42t38.5 -28.5t59 -10.5h11q41 56 87 114t96 113t103 103.5t107.5 85t109 57.5t107.5 21q30 0 64 -6.5t69 -25t69.5 -51t66.5 -84.5q38 -63 51.5 -111.5t13.5 -92.5q0 -36 17 -59.5t46 -37.5t68 -20t83 -6h24q16 0 29.5 -2t22.5 -9.5t14 -21.5t5 -38
q0 -22 -5.5 -35.5t-15 -21t-22.5 -10t-28 -2.5h-13q-48 0 -88.5 14t-71 35.5t-50.5 46.5t-27 48q-6 -39 -14 -77t-16 -67h-901q-70 0 -108 40.5t-54 136.5q-17 -46 -39.5 -89t-48.5 -88h-229q-17 0 -30 2t-22 9.5t-14 21.5t-5 38q0 43 20 56t51 13h212q10 42 15.5 76.5
t5.5 68.5q0 52 -13 97t-36 90zM1035 -304l-103 -102l-89 88l-89 -88l-102 102l102 103l89 -90l89 90z" />
    <glyph glyph-name="uni069D.fina" unicode="&#x69d;" horiz-adv-x="2127" 
d="M722 492q-9 12 -9 18q0 7 8 12l117 75l3 -1q60 -78 87.5 -169.5t27.5 -185.5q0 -26 -2 -51t-6 -50q35 49 78.5 104.5t93 110.5t103.5 105.5t110 89t113 61.5t112 23q30 0 64 -6.5t69 -25t69.5 -51t66.5 -84.5q38 -63 51.5 -111.5t13.5 -92.5q0 -36 17 -59.5t46 -37.5
t68 -20t83 -6h21q16 0 29.5 -2t22.5 -9.5t14 -21.5t5 -38q0 -22 -5.5 -35.5t-15 -21t-22.5 -10t-28 -2.5h-10q-48 0 -88.5 14t-71 35.5t-50.5 46.5t-27 48q-6 -39 -14 -77t-16 -67h-942q-27 -63 -68.5 -117t-97 -93.5t-124 -62t-149.5 -22.5q-110 0 -197 32t-147.5 89
t-92.5 134.5t-32 168.5q0 60 14.5 114t35.5 95t43.5 65t39.5 24q10 0 18 -8q-9 -14 -17.5 -38.5t-15.5 -53t-11 -57.5t-4 -52q0 -84 27.5 -151.5t77.5 -114t120 -71.5t155 -25q93 0 163.5 24.5t117.5 64.5t71 91t24 104q0 94 -35.5 181t-101.5 171zM1750 140q13 29 18 65.5
t5 72.5q0 66 -10.5 112t-26.5 62q-25 25 -63 39t-83 14q-65 0 -125.5 -24.5t-120.5 -71.5t-122 -114.5t-130 -154.5h658zM1465 -304l-103 -102l-89 88l-89 -88l-102 102l102 103l89 -90l89 90z" />
    <glyph glyph-name="uni069E.init" unicode="&#x69e;" horiz-adv-x="1529" 
d="M1287 140q13 29 18 65.5t5 72.5q0 66 -11 112t-26 62q-14 15 -33 25t-39 16.5t-39.5 9t-34.5 2.5q-67 0 -126.5 -24t-118.5 -70.5t-120.5 -114.5t-132.5 -156h658zM191 472q-5 9 -8.5 17t-3.5 13t5 8l126 69l3 -1q21 -48 32.5 -97t11.5 -106q0 -39 -6 -81q-1 -5 -1.5 -11
t-0.5 -11q0 -27 6 -51t20 -42t37.5 -28.5t58.5 -10.5h14q66 90 139.5 178t152 158.5t159 114t159.5 43.5q81 0 149.5 -39.5t119.5 -127.5q35 -61 50 -110t15 -94q0 -23 -4 -57t-10 -71t-13.5 -72.5t-14.5 -62.5h-901q-70 0 -108 40.5t-54 136.5q-17 -46 -39.5 -89t-48.5 -88
h-236q-17 0 -30 2t-22 9.5t-14 21.5t-5 38q0 43 20 56t51 13h219q10 42 15.5 76.5t5.5 68.5q0 52 -12 93.5t-37 93.5zM1270 972l-103 -102l-89 88l-89 -88l-102 102l102 103l89 -90l89 90zM1182 1199l-103 -102l-102 102l102 103z" />
    <glyph glyph-name="uni069E.medi" unicode="&#x69e;" horiz-adv-x="1660" 
d="M1280 140q13 29 18 65.5t5 72.5q0 66 -10.5 112.5t-26.5 61.5q-26 26 -63.5 39.5t-82.5 13.5q-66 0 -125 -24t-118 -70.5t-121 -114.5t-134 -156h658zM184 472q-5 9 -8.5 17t-3.5 13t5 8l126 69l3 -1q21 -48 32.5 -97t11.5 -106q0 -39 -6 -81q-1 -5 -1.5 -11t-0.5 -11
q0 -27 6.5 -51t21 -42t38.5 -28.5t59 -10.5h11q41 56 87 114t96 113t103 103.5t107.5 85t109 57.5t107.5 21q30 0 64 -6.5t69 -25t69.5 -51t66.5 -84.5q38 -63 51.5 -111.5t13.5 -92.5q0 -36 17 -59.5t46 -37.5t68 -20t83 -6h24q16 0 29.5 -2t22.5 -9.5t14 -21.5t5 -38
q0 -22 -5.5 -35.5t-15 -21t-22.5 -10t-28 -2.5h-13q-48 0 -88.5 14t-71 35.5t-50.5 46.5t-27 48q-6 -39 -14 -77t-16 -67h-901q-70 0 -108 40.5t-54 136.5q-17 -46 -39.5 -89t-48.5 -88h-229q-17 0 -30 2t-22 9.5t-14 21.5t-5 38q0 43 20 56t51 13h212q10 42 15.5 76.5
t5.5 68.5q0 52 -13 97t-36 90zM1280 972l-103 -102l-89 88l-89 -88l-102 102l102 103l89 -90l89 90zM1192 1199l-103 -102l-102 102l102 103z" />
    <glyph glyph-name="uni069E.fina" unicode="&#x69e;" horiz-adv-x="2127" 
d="M722 492q-9 12 -9 18q0 7 8 12l117 75l3 -1q60 -78 87.5 -169.5t27.5 -185.5q0 -26 -2 -51t-6 -50q35 49 78.5 104.5t93 110.5t103.5 105.5t110 89t113 61.5t112 23q30 0 64 -6.5t69 -25t69.5 -51t66.5 -84.5q38 -63 51.5 -111.5t13.5 -92.5q0 -36 17 -59.5t46 -37.5
t68 -20t83 -6h21q16 0 29.5 -2t22.5 -9.5t14 -21.5t5 -38q0 -22 -5.5 -35.5t-15 -21t-22.5 -10t-28 -2.5h-10q-48 0 -88.5 14t-71 35.5t-50.5 46.5t-27 48q-6 -39 -14 -77t-16 -67h-942q-27 -63 -68.5 -117t-97 -93.5t-124 -62t-149.5 -22.5q-110 0 -197 32t-147.5 89
t-92.5 134.5t-32 168.5q0 60 14.5 114t35.5 95t43.5 65t39.5 24q10 0 18 -8q-9 -14 -17.5 -38.5t-15.5 -53t-11 -57.5t-4 -52q0 -84 27.5 -151.5t77.5 -114t120 -71.5t155 -25q93 0 163.5 24.5t117.5 64.5t71 91t24 104q0 94 -35.5 181t-101.5 171zM1750 140q13 29 18 65.5
t5 72.5q0 66 -10.5 112t-26.5 62q-25 25 -63 39t-83 14q-65 0 -125.5 -24.5t-120.5 -71.5t-122 -114.5t-130 -154.5h658zM1738 964l-103 -102l-89 88l-89 -88l-102 102l102 103l89 -90l89 90zM1650 1191l-103 -102l-102 102l102 103z" />
    <glyph glyph-name="uni069F.init" unicode="&#x69f;" horiz-adv-x="1352" 
d="M274 1213q0 14 2.5 23.5t11.5 12.5l112 39l3 -2v-1000q88 103 163.5 170.5t139 107t115.5 55t94 15.5q30 0 64 -6.5t69.5 -25t71 -51.5t67.5 -85q38 -63 51.5 -110.5t13.5 -92.5q0 -15 -3 -45t-9 -67t-13.5 -77t-16.5 -74h-1210q-17 0 -30 2t-22 9.5t-14 21.5t-5 38
q0 43 20 56t51 13h274v1073zM1105 140q14 30 19.5 65.5t5.5 72.5q0 64 -12.5 111t-26.5 63q-9 10 -24.5 19.5t-35 17t-42 12t-44.5 4.5q-31 0 -80.5 -10.5t-117.5 -47.5t-154.5 -108t-191.5 -192v-7h704zM1048 964l-103 -102l-89 88l-89 -88l-102 102l102 103l89 -90l89 90z
M960 1191l-103 -102l-102 102l102 103z" />
    <glyph glyph-name="uni069F.medi" unicode="&#x69f;" horiz-adv-x="1487" 
d="M274 1213q0 14 2.5 23.5t11.5 12.5l112 39l3 -2v-1000q93 108 169 175.5t138.5 106t113 52.5t91.5 14q30 0 64.5 -6.5t70 -25t71 -51.5t67.5 -85q38 -63 51 -112t13 -93q0 -25 11 -47t36 -38.5t66 -26t101 -9.5h21q16 0 29.5 -2t22.5 -9.5t14 -21.5t5 -38
q0 -22 -5.5 -35.5t-15 -21t-22.5 -10t-28 -2.5h-10q-32 0 -66.5 8t-67 26t-61 46t-46.5 69q-11 -32 -32 -66.5t-63 -82.5h-1141q-17 0 -30 2t-22 9.5t-14 21.5t-5 38q0 43 20 56t51 13h274v1073zM1106 140q14 30 19.5 65.5t5.5 72.5q0 64 -12.5 111t-26.5 63
q-9 10 -24.5 19.5t-35 17t-42 12t-44.5 4.5q-31 0 -80.5 -10.5t-117.5 -47.5t-154.5 -108t-191.5 -192v-7h704zM1048 964l-103 -102l-89 88l-89 -88l-102 102l102 103l89 -90l89 90zM960 1191l-103 -102l-102 102l102 103z" />
    <glyph glyph-name="uni069F.fina" unicode="&#x69f;" horiz-adv-x="1472" 
d="M256 1213q0 14 2.5 23.5t11.5 12.5l112 39l3 -2v-1000q144 172 273 260t238 88q30 0 64 -6.5t70 -25t71.5 -51.5t67.5 -85q35 -60 50 -108.5t15 -84.5q0 -29 10 -53.5t34 -42t65.5 -27.5t104.5 -10h24q16 0 29.5 -2t22.5 -9.5t14 -21.5t5 -38q0 -22 -5.5 -35.5t-15 -21
t-22.5 -10t-28 -2.5h-13q-32 0 -66.5 8t-67.5 26t-61 46.5t-46 69.5q-11 -32 -32.5 -66.5t-63.5 -83.5h-1122q3 32 17.5 58t37 44t51 28t59.5 10h91v1073zM1087 140q14 30 19.5 65.5t5.5 72.5q0 64 -12.5 111t-26.5 63q-9 10 -24.5 19.5t-35 17t-42 12t-44.5 4.5
q-31 0 -80.5 -10.5t-117.5 -47.5t-154.5 -108t-191.5 -192v-7h704zM1053 964l-103 -102l-89 88l-89 -88l-102 102l102 103l89 -90l89 90zM965 1191l-103 -102l-102 102l102 103z" />
    <glyph glyph-name="uni06A0.init" unicode="&#x6a0;" horiz-adv-x="883" 
d="M182 140q-26 35 -39.5 76.5t-13.5 79.5q0 58 19.5 110.5t52.5 97.5t75.5 81t88 61.5t91 39t83.5 13.5q45 0 75 -6.5t47 -17.5t24 -26.5t7 -34.5t-5 -40t-12 -44q-17 8 -42 15t-52 12.5t-53 9t-44 3.5q-118 0 -174 -52t-56 -149q0 -55 22.5 -97.5t59 -72t84 -44.5
t97.5 -15h263l3 -2q-9 -48 -16.5 -75.5t-14.5 -41.5t-13 -17.5t-12 -3.5h-727q-17 0 -30 2t-22 9.5t-14 21.5t-5 38q0 43 20 56t51 13h182zM692 968l-103 -102l-89 88l-89 -88l-102 102l102 103l89 -90l89 90zM604 1195l-103 -102l-102 102l102 103z" />
    <glyph glyph-name="uni06A0.medi" unicode="&#x6a0;" horiz-adv-x="882" 
d="M771 0q-72 0 -132 12.5t-105.5 29.5t-75.5 34.5t-43 27.5q-69 -45 -157.5 -74.5t-203.5 -29.5h-54q-17 0 -30 2t-22 9.5t-14 21.5t-5 38q0 43 20 56t51 13h124q21 0 47 2t52.5 6t51 11t42.5 17q-15 12 -36 33.5t-43.5 48t-44.5 55.5t-39.5 55t-28 47.5t-10.5 32.5
q0 7 4 24.5t11 38t16.5 40t21.5 30.5q45 42 125.5 68.5t194.5 26.5q61 0 109 -13.5t81 -35t50.5 -48t17.5 -53.5q0 -23 -15 -64t-42 -88.5t-65 -96t-84 -87.5q15 -10 41 -19t57 -16t65 -11t64 -4h115q16 0 29.5 -2t22.5 -9.5t14 -21.5t5 -38q0 -22 -5.5 -35.5t-15 -21
t-22.5 -10t-28 -2.5h-111zM222 492q18 -33 39 -67t47.5 -67.5t59.5 -65t75 -58.5q42 25 77.5 56.5t62 62t41 56.5t14.5 39q0 15 -9.5 33t-32 33t-59 25t-90.5 10q-55 0 -115.5 -13.5t-109.5 -43.5zM632 968l-103 -102l-89 88l-89 -88l-102 102l102 103l89 -90l89 90z
M544 1195l-103 -102l-102 102l102 103z" />
    <glyph glyph-name="uni06A0.fina" unicode="&#x6a0;" horiz-adv-x="833" 
d="M746 0q-72 0 -132 12.5t-105.5 29.5t-75.5 34t-43 27q-70 -38 -128 -81t-100 -86.5t-65.5 -86t-23.5 -79.5q0 -57 29 -103.5t78.5 -79.5t114.5 -51t138 -18q22 0 58.5 2t76 6.5t76 11.5t58.5 16q-6 -34 -29 -65t-61.5 -55t-90.5 -38t-115 -14q-105 0 -181.5 30.5
t-126.5 79.5t-74 111t-24 126q0 68 23 132t62.5 121t93 106t113.5 87q-15 12 -36 33.5t-43.5 48t-44.5 55.5t-39.5 55t-28 47.5t-10.5 32.5q0 7 4 24.5t11 38t16.5 40t21.5 30.5q45 42 125.5 68.5t194.5 26.5q61 0 109 -13.5t81 -35t50.5 -48t17.5 -53.5q0 -23 -15 -64
t-42 -88.5t-65 -96t-84 -87.5q15 -10 41 -19t57 -15.5t65 -10.5t64 -4h91q16 0 29.5 -2t22.5 -9.5t14 -21.5t5 -38q0 -22 -5.5 -35.5t-15 -21t-22.5 -10t-28 -2.5h-87zM197 491q18 -33 39 -67t47.5 -67.5t59.5 -65t75 -58.5q42 25 77.5 56.5t62 62t41 56.5t14.5 39
q0 15 -9.5 33t-32 33t-59 25t-90.5 10q-55 0 -115.5 -13.5t-109.5 -43.5zM602 968l-103 -102l-89 88l-89 -88l-102 102l102 103l89 -90l89 90zM514 1195l-103 -102l-102 102l102 103z" />
    <glyph glyph-name="uni06A1.init" unicode="&#x6a1;" horiz-adv-x="817" 
d="M0 0q-17 0 -30 2t-22 9.5t-14 21.5t-5 38q0 43 20 56t51 13h196q-11 10 -22.5 28t-21 41.5t-15.5 51.5t-6 58q0 68 25.5 135t78.5 120.5t136 87t199 35.5q21 -26 43 -70t39.5 -98t29 -114.5t11.5 -118.5q0 -41 -7 -81.5t-18 -78.5t-25 -73t-28 -63h-615zM573 232
q0 33 -6.5 79.5t-19.5 95.5t-31 93.5t-42 73.5q-66 0 -112.5 -16.5t-76.5 -43.5t-43.5 -62t-13.5 -72q0 -121 86.5 -186.5t252.5 -65.5q3 20 4.5 47t1.5 57z" />
    <glyph glyph-name="uni06A1.medi" unicode="&#x6a1;" horiz-adv-x="947" 
d="M0 0q-17 0 -30 2t-22 9.5t-14 21.5t-5 38q0 43 20 56t51 13h267q-11 10 -22.5 28t-21 41.5t-15.5 51.5t-6 58q0 68 25.5 135t78.5 120.5t136 87t199 35.5q21 -26 43 -70t39.5 -98t29 -114.5t11.5 -118.5q0 -78 -23 -156h206q16 0 29.5 -2t22.5 -9.5t14 -21.5t5 -38
q0 -22 -5.5 -35.5t-15 -21t-22.5 -10t-28 -2.5h-947zM638 128q2 17 4 44t2 48q0 36 -6.5 84.5t-19 98.5t-31 95.5t-42.5 75.5q-75 0 -122.5 -19.5t-75 -48.5t-38 -63t-10.5 -63q0 -53 18.5 -99t59.5 -80t105 -53.5t156 -19.5z" />
    <glyph glyph-name="uni06A1.fina" unicode="&#x6a1;" horiz-adv-x="1719" 
d="M345 0q-172 0 -258.5 61.5t-86.5 202.5q0 49 14 99t35 89.5t44.5 64.5t43.5 25q9 0 17 -6q-11 -23 -20.5 -48t-16 -50t-10 -48t-3.5 -41q0 -48 9.5 -87t43 -66t97 -41.5t171.5 -14.5h612q-11 10 -22.5 28t-21 41.5t-15.5 51.5t-6 58q0 68 25.5 135t78.5 120.5t136 87
t199 35.5q21 -26 43 -70t39.5 -98t29 -114.5t11.5 -118.5q0 -78 -23 -156h208q16 0 29.5 -2t22.5 -9.5t14 -21.5t5 -38q0 -22 -5.5 -35.5t-15 -21t-22.5 -10t-28 -2.5h-1374zM1414 232q0 33 -6.5 79.5t-19.5 95.5t-31 93.5t-42 73.5q-66 0 -112.5 -16.5t-76.5 -43.5
t-43.5 -62t-13.5 -72q0 -121 86.5 -186.5t252.5 -65.5q3 20 4.5 47t1.5 57z" />
    <glyph glyph-name="uni06A2.init" unicode="&#x6a2;" horiz-adv-x="817" 
d="M0 0q-17 0 -30 2t-22 9.5t-14 21.5t-5 38q0 43 20 56t51 13h196q-11 10 -22.5 28t-21 41.5t-15.5 51.5t-6 58q0 68 25.5 135t78.5 120.5t136 87t199 35.5q21 -26 43 -70t39.5 -98t29 -114.5t11.5 -118.5q0 -41 -7 -81.5t-18 -78.5t-25 -73t-28 -63h-615zM573 232
q0 33 -6.5 79.5t-19.5 95.5t-31 93.5t-42 73.5q-66 0 -112.5 -16.5t-76.5 -43.5t-43.5 -62t-13.5 -72q0 -121 86.5 -186.5t252.5 -65.5q3 20 4.5 47t1.5 57zM494 -301l-103 -102l-102 102l102 103z" />
    <glyph glyph-name="uni06A2.medi" unicode="&#x6a2;" horiz-adv-x="947" 
d="M0 0q-17 0 -30 2t-22 9.5t-14 21.5t-5 38q0 43 20 56t51 13h267q-11 10 -22.5 28t-21 41.5t-15.5 51.5t-6 58q0 68 25.5 135t78.5 120.5t136 87t199 35.5q21 -26 43 -70t39.5 -98t29 -114.5t11.5 -118.5q0 -78 -23 -156h206q16 0 29.5 -2t22.5 -9.5t14 -21.5t5 -38
q0 -22 -5.5 -35.5t-15 -21t-22.5 -10t-28 -2.5h-947zM638 128q2 17 4 44t2 48q0 36 -6.5 84.5t-19 98.5t-31 95.5t-42.5 75.5q-75 0 -122.5 -19.5t-75 -48.5t-38 -63t-10.5 -63q0 -53 18.5 -99t59.5 -80t105 -53.5t156 -19.5zM594 -301l-103 -102l-102 102l102 103z" />
    <glyph glyph-name="uni06A2.fina" unicode="&#x6a2;" horiz-adv-x="1719" 
d="M345 0q-172 0 -258.5 61.5t-86.5 202.5q0 49 14 99t35 89.5t44.5 64.5t43.5 25q9 0 17 -6q-11 -23 -20.5 -48t-16 -50t-10 -48t-3.5 -41q0 -48 9.5 -87t43 -66t97 -41.5t171.5 -14.5h612q-11 10 -22.5 28t-21 41.5t-15.5 51.5t-6 58q0 68 25.5 135t78.5 120.5t136 87
t199 35.5q21 -26 43 -70t39.5 -98t29 -114.5t11.5 -118.5q0 -78 -23 -156h208q16 0 29.5 -2t22.5 -9.5t14 -21.5t5 -38q0 -22 -5.5 -35.5t-15 -21t-22.5 -10t-28 -2.5h-1374zM1414 232q0 33 -6.5 79.5t-19.5 95.5t-31 93.5t-42 73.5q-66 0 -112.5 -16.5t-76.5 -43.5
t-43.5 -62t-13.5 -72q0 -121 86.5 -186.5t252.5 -65.5q3 20 4.5 47t1.5 57zM1374 -301l-103 -102l-102 102l102 103z" />
    <glyph glyph-name="uni06A3.init" unicode="&#x6a3;" horiz-adv-x="817" 
d="M553 968l-103 -102l-102 102l102 103zM0 0q-17 0 -30 2t-22 9.5t-14 21.5t-5 38q0 43 20 56t51 13h196q-11 10 -22.5 28t-21 41.5t-15.5 51.5t-6 58q0 68 25.5 135t78.5 120.5t136 87t199 35.5q21 -26 43 -70t39.5 -98t29 -114.5t11.5 -118.5q0 -41 -7 -81.5t-18 -78.5
t-25 -73t-28 -63h-615zM573 232q0 33 -6.5 79.5t-19.5 95.5t-31 93.5t-42 73.5q-66 0 -112.5 -16.5t-76.5 -43.5t-43.5 -62t-13.5 -72q0 -121 86.5 -186.5t252.5 -65.5q3 20 4.5 47t1.5 57zM494 -301l-103 -102l-102 102l102 103z" />
    <glyph glyph-name="uni06A3.medi" unicode="&#x6a3;" horiz-adv-x="947" 
d="M553 968l-103 -102l-102 102l102 103zM0 0q-17 0 -30 2t-22 9.5t-14 21.5t-5 38q0 43 20 56t51 13h267q-11 10 -22.5 28t-21 41.5t-15.5 51.5t-6 58q0 68 25.5 135t78.5 120.5t136 87t199 35.5q21 -26 43 -70t39.5 -98t29 -114.5t11.5 -118.5q0 -78 -23 -156h206
q16 0 29.5 -2t22.5 -9.5t14 -21.5t5 -38q0 -22 -5.5 -35.5t-15 -21t-22.5 -10t-28 -2.5h-947zM638 128q2 17 4 44t2 48q0 36 -6.5 84.5t-19 98.5t-31 95.5t-42.5 75.5q-75 0 -122.5 -19.5t-75 -48.5t-38 -63t-10.5 -63q0 -53 18.5 -99t59.5 -80t105 -53.5t156 -19.5z
M594 -301l-103 -102l-102 102l102 103z" />
    <glyph glyph-name="uni06A3.fina" unicode="&#x6a3;" horiz-adv-x="1719" 
d="M345 0q-172 0 -258.5 61.5t-86.5 202.5q0 49 14 99t35 89.5t44.5 64.5t43.5 25q9 0 17 -6q-11 -23 -20.5 -48t-16 -50t-10 -48t-3.5 -41q0 -48 9.5 -87t43 -66t97 -41.5t171.5 -14.5h612q-11 10 -22.5 28t-21 41.5t-15.5 51.5t-6 58q0 68 25.5 135t78.5 120.5t136 87
t199 35.5q21 -26 43 -70t39.5 -98t29 -114.5t11.5 -118.5q0 -78 -23 -156h208q16 0 29.5 -2t22.5 -9.5t14 -21.5t5 -38q0 -22 -5.5 -35.5t-15 -21t-22.5 -10t-28 -2.5h-1374zM1414 232q0 33 -6.5 79.5t-19.5 95.5t-31 93.5t-42 73.5q-66 0 -112.5 -16.5t-76.5 -43.5
t-43.5 -62t-13.5 -72q0 -121 86.5 -186.5t252.5 -65.5q3 20 4.5 47t1.5 57zM1385 968l-103 -102l-102 102l102 103zM854 -301l-103 -102l-102 102l102 103z" />
    <glyph glyph-name="uni06A5.init" unicode="&#x6a5;" horiz-adv-x="817" 
d="M0 0q-17 0 -30 2t-22 9.5t-14 21.5t-5 38q0 43 20 56t51 13h196q-11 10 -22.5 28t-21 41.5t-15.5 51.5t-6 58q0 68 25.5 135t78.5 120.5t136 87t199 35.5q21 -26 43 -70t39.5 -98t29 -114.5t11.5 -118.5q0 -41 -7 -81.5t-18 -78.5t-25 -73t-28 -63h-615zM573 232
q0 33 -6.5 79.5t-19.5 95.5t-31 93.5t-42 73.5q-66 0 -112.5 -16.5t-76.5 -43.5t-43.5 -62t-13.5 -72q0 -121 86.5 -186.5t252.5 -65.5q3 20 4.5 47t1.5 57zM595 -304l-103 -102l-89 88l-89 -88l-102 102l102 103l89 -90l89 90zM507 -509l-103 -102l-102 102l102 103z" />
    <glyph glyph-name="uni06A5.medi" unicode="&#x6a5;" horiz-adv-x="947" 
d="M0 0q-17 0 -30 2t-22 9.5t-14 21.5t-5 38q0 43 20 56t51 13h267q-11 10 -22.5 28t-21 41.5t-15.5 51.5t-6 58q0 68 25.5 135t78.5 120.5t136 87t199 35.5q21 -26 43 -70t39.5 -98t29 -114.5t11.5 -118.5q0 -78 -23 -156h206q16 0 29.5 -2t22.5 -9.5t14 -21.5t5 -38
q0 -22 -5.5 -35.5t-15 -21t-22.5 -10t-28 -2.5h-947zM638 128q2 17 4 44t2 48q0 36 -6.5 84.5t-19 98.5t-31 95.5t-42.5 75.5q-75 0 -122.5 -19.5t-75 -48.5t-38 -63t-10.5 -63q0 -53 18.5 -99t59.5 -80t105 -53.5t156 -19.5zM685 -304l-103 -102l-89 88l-89 -88l-102 102
l102 103l89 -90l89 90zM597 -509l-103 -102l-102 102l102 103z" />
    <glyph glyph-name="uni06A5.fina" unicode="&#x6a5;" horiz-adv-x="1719" 
d="M345 0q-172 0 -258.5 61.5t-86.5 202.5q0 49 14 99t35 89.5t44.5 64.5t43.5 25q9 0 17 -6q-11 -23 -20.5 -48t-16 -50t-10 -48t-3.5 -41q0 -48 9.5 -87t43 -66t97 -41.5t171.5 -14.5h612q-11 10 -22.5 28t-21 41.5t-15.5 51.5t-6 58q0 68 25.5 135t78.5 120.5t136 87
t199 35.5q21 -26 43 -70t39.5 -98t29 -114.5t11.5 -118.5q0 -78 -23 -156h208q16 0 29.5 -2t22.5 -9.5t14 -21.5t5 -38q0 -22 -5.5 -35.5t-15 -21t-22.5 -10t-28 -2.5h-1374zM1414 232q0 33 -6.5 79.5t-19.5 95.5t-31 93.5t-42 73.5q-66 0 -112.5 -16.5t-76.5 -43.5
t-43.5 -62t-13.5 -72q0 -121 86.5 -186.5t252.5 -65.5q3 20 4.5 47t1.5 57zM1445 -304l-103 -102l-89 88l-89 -88l-102 102l102 103l89 -90l89 90zM1357 -509l-103 -102l-102 102l102 103z" />
    <glyph glyph-name="uni06A7.init" unicode="&#x6a7;" horiz-adv-x="817" 
d="M553 968l-103 -102l-102 102l102 103zM0 0q-17 0 -30 2t-22 9.5t-14 21.5t-5 38q0 43 20 56t51 13h196q-11 10 -22.5 28t-21 41.5t-15.5 51.5t-6 58q0 68 25.5 135t78.5 120.5t136 87t199 35.5q21 -26 43 -70t39.5 -98t29 -114.5t11.5 -118.5q0 -41 -7 -81.5t-18 -78.5
t-25 -73t-28 -63h-615zM573 232q0 33 -6.5 79.5t-19.5 95.5t-31 93.5t-42 73.5q-66 0 -112.5 -16.5t-76.5 -43.5t-43.5 -62t-13.5 -72q0 -121 86.5 -186.5t252.5 -65.5q3 20 4.5 47t1.5 57z" />
    <glyph glyph-name="uni06A7.medi" unicode="&#x6a7;" horiz-adv-x="947" 
d="M553 968l-103 -102l-102 102l102 103zM0 0q-17 0 -30 2t-22 9.5t-14 21.5t-5 38q0 43 20 56t51 13h267q-11 10 -22.5 28t-21 41.5t-15.5 51.5t-6 58q0 68 25.5 135t78.5 120.5t136 87t199 35.5q21 -26 43 -70t39.5 -98t29 -114.5t11.5 -118.5q0 -78 -23 -156h206
q16 0 29.5 -2t22.5 -9.5t14 -21.5t5 -38q0 -22 -5.5 -35.5t-15 -21t-22.5 -10t-28 -2.5h-947zM638 128q2 17 4 44t2 48q0 36 -6.5 84.5t-19 98.5t-31 95.5t-42.5 75.5q-75 0 -122.5 -19.5t-75 -48.5t-38 -63t-10.5 -63q0 -53 18.5 -99t59.5 -80t105 -53.5t156 -19.5z" />
    <glyph glyph-name="uni06A7.fina" unicode="&#x6a7;" horiz-adv-x="1394" 
d="M1153 0q-32 -68 -85.5 -130t-128 -109.5t-169.5 -75.5t-209 -28q-134 0 -238.5 38t-176 104.5t-109 157.5t-37.5 197q0 50 11.5 95.5t28.5 80.5t36.5 55.5t34.5 20.5q13 0 24 -8q-8 -15 -14 -34.5t-10.5 -40.5t-6.5 -42.5t-2 -40.5q0 -87 28.5 -166.5t87.5 -140
t148.5 -96.5t212.5 -36q87 0 158 15t128.5 42.5t102.5 65.5t78 85q-69 2 -140.5 23t-130 60t-95.5 95.5t-37 128.5t26.5 138.5t81 117t137.5 80.5t196 30q25 -29 47.5 -74t39.5 -102t27.5 -124.5t10.5 -142.5q0 -52 -10 -99h195q16 0 29.5 -2t22.5 -9.5t14 -21.5t5 -38
q0 -22 -5.5 -35.5t-15 -21t-22.5 -10t-28 -2.5h-241zM1083 140q2 16 3 34.5t1 36.5q-1 42 -7.5 91t-19 96.5t-30.5 89.5t-42 71q-68 0 -114.5 -15t-75.5 -40.5t-42 -59.5t-13 -71q0 -42 21.5 -83.5t64.5 -74.5t106.5 -54t147.5 -21zM1021 1048l-103 -102l-102 102l102 103z
" />
    <glyph glyph-name="uni06A8.init" unicode="&#x6a8;" horiz-adv-x="817" 
d="M0 0q-17 0 -30 2t-22 9.5t-14 21.5t-5 38q0 43 20 56t51 13h196q-11 10 -22.5 28t-21 41.5t-15.5 51.5t-6 58q0 68 25.5 135t78.5 120.5t136 87t199 35.5q21 -26 43 -70t39.5 -98t29 -114.5t11.5 -118.5q0 -41 -7 -81.5t-18 -78.5t-25 -73t-28 -63h-615zM573 232
q0 33 -6.5 79.5t-19.5 95.5t-31 93.5t-42 73.5q-66 0 -112.5 -16.5t-76.5 -43.5t-43.5 -62t-13.5 -72q0 -121 86.5 -186.5t252.5 -65.5q3 20 4.5 47t1.5 57zM598 968l-103 -102l-89 88l-89 -88l-102 102l102 103l89 -90l89 90zM510 1195l-103 -102l-102 102l102 103z" />
    <glyph glyph-name="uni06A8.medi" unicode="&#x6a8;" horiz-adv-x="947" 
d="M0 0q-17 0 -30 2t-22 9.5t-14 21.5t-5 38q0 43 20 56t51 13h267q-11 10 -22.5 28t-21 41.5t-15.5 51.5t-6 58q0 68 25.5 135t78.5 120.5t136 87t199 35.5q21 -26 43 -70t39.5 -98t29 -114.5t11.5 -118.5q0 -78 -23 -156h206q16 0 29.5 -2t22.5 -9.5t14 -21.5t5 -38
q0 -22 -5.5 -35.5t-15 -21t-22.5 -10t-28 -2.5h-947zM638 128q2 17 4 44t2 48q0 36 -6.5 84.5t-19 98.5t-31 95.5t-42.5 75.5q-75 0 -122.5 -19.5t-75 -48.5t-38 -63t-10.5 -63q0 -53 18.5 -99t59.5 -80t105 -53.5t156 -19.5zM662 968l-103 -102l-89 88l-89 -88l-102 102
l102 103l89 -90l89 90zM574 1195l-103 -102l-102 102l102 103z" />
    <glyph glyph-name="uni06A8.fina" unicode="&#x6a8;" horiz-adv-x="1394" 
d="M1153 0q-32 -68 -85.5 -130t-128 -109.5t-169.5 -75.5t-209 -28q-134 0 -238.5 38t-176 104.5t-109 157.5t-37.5 197q0 50 11.5 95.5t28.5 80.5t36.5 55.5t34.5 20.5q13 0 24 -8q-8 -15 -14 -34.5t-10.5 -40.5t-6.5 -42.5t-2 -40.5q0 -87 28.5 -166.5t87.5 -140
t148.5 -96.5t212.5 -36q87 0 158 15t128.5 42.5t102.5 65.5t78 85q-69 2 -140.5 23t-130 60t-95.5 95.5t-37 128.5t26.5 138.5t81 117t137.5 80.5t196 30q25 -29 47.5 -74t39.5 -102t27.5 -124.5t10.5 -142.5q0 -52 -10 -99h195q16 0 29.5 -2t22.5 -9.5t14 -21.5t5 -38
q0 -22 -5.5 -35.5t-15 -21t-22.5 -10t-28 -2.5h-241zM1083 140q2 16 3 34.5t1 36.5q-1 42 -7.5 91t-19 96.5t-30.5 89.5t-42 71q-68 0 -114.5 -15t-75.5 -40.5t-42 -59.5t-13 -71q0 -42 21.5 -83.5t64.5 -74.5t106.5 -54t147.5 -21zM1109 1042l-103 -102l-89 88l-89 -88
l-102 102l102 103l89 -90l89 90zM1021 1269l-103 -102l-102 102l102 103z" />
    <glyph glyph-name="uni06AA.init" unicode="&#x6aa;" horiz-adv-x="1047" 
d="M0 0q-17 0 -30 2t-22 9.5t-14 21.5t-5 38q0 43 20 56t51 13h786q12 51 19.5 91.5t7.5 73.5q0 39 -13 68t-45 50t-85 34.5t-133 22t-189 13.5t-253 8l14 130l239 151q105 66 179.5 115t123.5 87.5t75 69.5t34 61q11 -24 19 -49.5t8 -51.5q0 -24 -7.5 -47.5t-25.5 -48
t-48 -50t-74 -52.5l-318 -192q168 0 284.5 -25.5t188.5 -74.5t104 -122t32 -167q0 -52 -8.5 -110.5t-24.5 -124.5h-890z" />
    <glyph glyph-name="uni06AA.medi" unicode="&#x6aa;" horiz-adv-x="1170" 
d="M1160 0q-46 0 -84 11.5t-68 31.5t-52.5 46t-38.5 56q-7 -68 -27 -145h-890q-17 0 -30 2t-22 9.5t-14 21.5t-5 38q0 43 20 56t51 13h786q12 51 19.5 91.5t7.5 73.5q0 39 -13 68t-45 50t-85 34.5t-133 22t-189 13.5t-253 8l14 130l239 151q105 66 179.5 115t123.5 87.5
t75 69.5t34 61q11 -24 19 -49.5t8 -51.5q0 -24 -7.5 -47.5t-25.5 -48t-48 -50t-74 -52.5l-318 -192q151 0 261.5 -21.5t184 -64t112.5 -105.5t48 -146q2 -23 8.5 -49t29.5 -47.5t67.5 -36t122.5 -14.5h22q16 0 29.5 -2t22.5 -9.5t14 -21.5t5 -38q0 -22 -5.5 -35.5t-15 -21
t-22.5 -10t-28 -2.5h-10z" />
    <glyph glyph-name="uni06AA.fina" unicode="&#x6aa;" horiz-adv-x="1666" 
d="M1275 140q12 51 19.5 91.5t7.5 73.5q0 39 -13 68t-45 50t-85 34.5t-133 22t-189 13.5t-253 8l14 130l239 151q105 66 179.5 115t123.5 87.5t75 69.5t34 61q11 -24 19 -49.5t8 -51.5q0 -24 -7.5 -47.5t-25.5 -48t-48 -50t-74 -52.5l-318 -192q151 0 261.5 -21.5t184 -64
t112.5 -105.5t48 -146q2 -23 8.5 -49t29.5 -47.5t67.5 -36t122.5 -14.5h29q16 0 29.5 -2t22.5 -9.5t14 -21.5t5 -38q0 -22 -5.5 -35.5t-15 -21t-22.5 -10t-28 -2.5h-17q-46 0 -84 11.5t-68 31.5t-52.5 46t-38.5 56q-7 -68 -27 -145h-1034q-172 0 -258.5 61.5t-86.5 202.5
q0 49 14 99t35 89.5t44.5 64.5t43.5 25q9 0 17 -6q-11 -23 -20.5 -48t-16 -50t-10 -48t-3.5 -41q0 -48 9.5 -87t43 -66t97 -41.5t171.5 -14.5h850z" />
    <glyph glyph-name="uni06AB.init" unicode="&#x6ab;" horiz-adv-x="1047" 
d="M0 0q-17 0 -30 2t-22 9.5t-14 21.5t-5 38q0 43 20 56t51 13h786q12 51 19.5 91.5t7.5 73.5q0 39 -13 68t-45 50t-85 34.5t-133 22t-189 13.5t-253 8l14 130l239 151q105 66 179.5 115t123.5 87.5t75 69.5t34 61q11 -24 19 -49.5t8 -51.5q0 -24 -7.5 -47.5t-25.5 -48
t-48 -50t-74 -52.5l-318 -192q168 0 284.5 -25.5t188.5 -74.5t104 -122t32 -167q0 -52 -8.5 -110.5t-24.5 -124.5h-890zM669 1190q-10 -15 -37 -42.5t-64.5 -62.5t-84.5 -74.5t-97 -78.5t-101 -75t-98 -63.5t-87.5 -44t-68.5 -16.5q-21 0 -30 13q76 45 177 126.5t233 212.5
q72 72 115.5 110.5t51.5 42.5q8 2 10 2q10 0 24.5 -4.5t27.5 -11t22.5 -14.5t9.5 -15q0 -2 -3 -5z" />
    <glyph glyph-name="uni06AB.medi" unicode="&#x6ab;" horiz-adv-x="1170" 
d="M1160 0q-46 0 -84 11.5t-68 31.5t-52.5 46t-38.5 56q-7 -68 -27 -145h-890q-17 0 -30 2t-22 9.5t-14 21.5t-5 38q0 43 20 56t51 13h786q12 51 19.5 91.5t7.5 73.5q0 39 -13 68t-45 50t-85 34.5t-133 22t-189 13.5t-253 8l14 130l239 151q105 66 179.5 115t123.5 87.5
t75 69.5t34 61q11 -24 19 -49.5t8 -51.5q0 -24 -7.5 -47.5t-25.5 -48t-48 -50t-74 -52.5l-318 -192q151 0 261.5 -21.5t184 -64t112.5 -105.5t48 -146q2 -23 8.5 -49t29.5 -47.5t67.5 -36t122.5 -14.5h22q16 0 29.5 -2t22.5 -9.5t14 -21.5t5 -38q0 -22 -5.5 -35.5t-15 -21
t-22.5 -10t-28 -2.5h-10zM669 1190q-10 -15 -37 -42.5t-64.5 -62.5t-84.5 -74.5t-97 -78.5t-101 -75t-98 -63.5t-87.5 -44t-68.5 -16.5q-21 0 -30 13q76 45 177 126.5t233 212.5q72 72 115.5 110.5t51.5 42.5q8 2 10 2q10 0 24.5 -4.5t27.5 -11t22.5 -14.5t9.5 -15
q0 -2 -3 -5z" />
    <glyph glyph-name="uni06AB.fina" unicode="&#x6ab;" horiz-adv-x="1666" 
d="M1275 140q12 51 19.5 91.5t7.5 73.5q0 39 -13 68t-45 50t-85 34.5t-133 22t-189 13.5t-253 8l14 130l239 151q105 66 179.5 115t123.5 87.5t75 69.5t34 61q11 -24 19 -49.5t8 -51.5q0 -24 -7.5 -47.5t-25.5 -48t-48 -50t-74 -52.5l-318 -192q151 0 261.5 -21.5t184 -64
t112.5 -105.5t48 -146q2 -23 8.5 -49t29.5 -47.5t67.5 -36t122.5 -14.5h29q16 0 29.5 -2t22.5 -9.5t14 -21.5t5 -38q0 -22 -5.5 -35.5t-15 -21t-22.5 -10t-28 -2.5h-17q-46 0 -84 11.5t-68 31.5t-52.5 46t-38.5 56q-7 -68 -27 -145h-1034q-172 0 -258.5 61.5t-86.5 202.5
q0 49 14 99t35 89.5t44.5 64.5t43.5 25q9 0 17 -6q-11 -23 -20.5 -48t-16 -50t-10 -48t-3.5 -41q0 -48 9.5 -87t43 -66t97 -41.5t171.5 -14.5h850zM1177 1190q-10 -15 -37 -42.5t-64.5 -62.5t-84.5 -74.5t-97 -78.5t-101 -75t-98 -63.5t-87.5 -44t-68.5 -16.5q-21 0 -30 13
q76 45 177 126.5t233 212.5q72 72 115.5 110.5t51.5 42.5q8 2 10 2q10 0 24.5 -4.5t27.5 -11t22.5 -14.5t9.5 -15q0 -2 -3 -5z" />
    <glyph glyph-name="uni06AC.init" unicode="&#x6ac;" horiz-adv-x="1047" 
d="M0 0q-17 0 -30 2t-22 9.5t-14 21.5t-5 38q0 43 20 56t51 13h786q12 51 19.5 91.5t7.5 73.5q0 39 -13 68t-45 50t-85 34.5t-133 22t-189 13.5t-253 8l14 130l239 151q105 66 179.5 115t123.5 87.5t75 69.5t34 61q11 -24 19 -49.5t8 -51.5q0 -24 -7.5 -47.5t-25.5 -48
t-48 -50t-74 -52.5l-318 -192q168 0 284.5 -25.5t188.5 -74.5t104 -122t32 -167q0 -52 -8.5 -110.5t-24.5 -124.5h-890zM404 1069l-103 -102l-102 102l102 103z" />
    <glyph glyph-name="uni06AC.medi" unicode="&#x6ac;" horiz-adv-x="1170" 
d="M1160 0q-46 0 -84 11.5t-68 31.5t-52.5 46t-38.5 56q-7 -68 -27 -145h-890q-17 0 -30 2t-22 9.5t-14 21.5t-5 38q0 43 20 56t51 13h786q12 51 19.5 91.5t7.5 73.5q0 39 -13 68t-45 50t-85 34.5t-133 22t-189 13.5t-253 8l14 130l239 151q105 66 179.5 115t123.5 87.5
t75 69.5t34 61q11 -24 19 -49.5t8 -51.5q0 -24 -7.5 -47.5t-25.5 -48t-48 -50t-74 -52.5l-318 -192q151 0 261.5 -21.5t184 -64t112.5 -105.5t48 -146q2 -23 8.5 -49t29.5 -47.5t67.5 -36t122.5 -14.5h22q16 0 29.5 -2t22.5 -9.5t14 -21.5t5 -38q0 -22 -5.5 -35.5t-15 -21
t-22.5 -10t-28 -2.5h-10zM404 1059l-103 -102l-102 102l102 103z" />
    <glyph glyph-name="uni06AC.fina" unicode="&#x6ac;" horiz-adv-x="1549" 
d="M1179 1287q0 14 2.5 23.5t11.5 12.5l112 39l3 -2v-1087q2 -17 11 -40t32.5 -43.5t65 -35t107.5 -14.5h25q16 0 29.5 -2t22.5 -9.5t14 -21.5t5 -38q0 -22 -5.5 -35.5t-15 -21t-22.5 -10t-28 -2.5h-9q-30 1 -63.5 9t-65.5 24t-60.5 41.5t-48.5 62.5q-7 -29 -20 -53.5
t-26 -43.5q-8 -11 -16.5 -21t-16.5 -19h-878q-172 0 -258.5 61.5t-86.5 202.5q0 49 14 99t35 89.5t44.5 64.5t43.5 25q9 0 17 -6q-11 -23 -20.5 -48t-16 -50t-10 -48t-3.5 -41q0 -48 9.5 -87t43 -66t97 -41.5t171.5 -14.5h754v1147zM632 801q0 -19 12 -35.5t32.5 -29
t48 -19.5t59.5 -7q12 0 26.5 1.5t28.5 3.5l-32 -59l-280 -36l28 58l94 13q-33 14 -56 38t-23 55q0 25 17 49t43 43t56 30.5t57 11.5q39 0 74 -23l-33 -57q-16 11 -36.5 17t-40.5 6q-28 0 -51.5 -16.5t-23.5 -43.5zM1336 1576l-103 -102l-102 102l102 103z" />
    <glyph glyph-name="uni06AE.init" unicode="&#x6ae;" horiz-adv-x="1047" 
d="M0 0q-17 0 -30 2t-22 9.5t-14 21.5t-5 38q0 43 20 56t51 13h786q12 51 19.5 91.5t7.5 73.5q0 39 -13 68t-45 50t-85 34.5t-133 22t-189 13.5t-253 8l14 130l239 151q105 66 179.5 115t123.5 87.5t75 69.5t34 61q11 -24 19 -49.5t8 -51.5q0 -24 -7.5 -47.5t-25.5 -48
t-48 -50t-74 -52.5l-318 -192q168 0 284.5 -25.5t188.5 -74.5t104 -122t32 -167q0 -52 -8.5 -110.5t-24.5 -124.5h-890zM625 -304l-103 -102l-89 88l-89 -88l-102 102l102 103l89 -90l89 90zM537 -509l-103 -102l-102 102l102 103z" />
    <glyph glyph-name="uni06AE.medi" unicode="&#x6ae;" horiz-adv-x="1170" 
d="M1160 0q-46 0 -84 11.5t-68 31.5t-52.5 46t-38.5 56q-7 -68 -27 -145h-890q-17 0 -30 2t-22 9.5t-14 21.5t-5 38q0 43 20 56t51 13h786q12 51 19.5 91.5t7.5 73.5q0 39 -13 68t-45 50t-85 34.5t-133 22t-189 13.5t-253 8l14 130l239 151q105 66 179.5 115t123.5 87.5
t75 69.5t34 61q11 -24 19 -49.5t8 -51.5q0 -24 -7.5 -47.5t-25.5 -48t-48 -50t-74 -52.5l-318 -192q151 0 261.5 -21.5t184 -64t112.5 -105.5t48 -146q2 -23 8.5 -49t29.5 -47.5t67.5 -36t122.5 -14.5h22q16 0 29.5 -2t22.5 -9.5t14 -21.5t5 -38q0 -22 -5.5 -35.5t-15 -21
t-22.5 -10t-28 -2.5h-10zM625 -304l-103 -102l-89 88l-89 -88l-102 102l102 103l89 -90l89 90zM537 -509l-103 -102l-102 102l102 103z" />
    <glyph glyph-name="uni06AE.fina" unicode="&#x6ae;" horiz-adv-x="1549" 
d="M1179 1287q0 14 2.5 23.5t11.5 12.5l112 39l3 -2v-1087q2 -17 11 -40t32.5 -43.5t65 -35t107.5 -14.5h25q16 0 29.5 -2t22.5 -9.5t14 -21.5t5 -38q0 -22 -5.5 -35.5t-15 -21t-22.5 -10t-28 -2.5h-9q-30 1 -63.5 9t-65.5 24t-60.5 41.5t-48.5 62.5q-7 -29 -20 -53.5
t-26 -43.5q-8 -11 -16.5 -21t-16.5 -19h-878q-172 0 -258.5 61.5t-86.5 202.5q0 49 14 99t35 89.5t44.5 64.5t43.5 25q9 0 17 -6q-11 -23 -20.5 -48t-16 -50t-10 -48t-3.5 -41q0 -48 9.5 -87t43 -66t97 -41.5t171.5 -14.5h754v1147zM632 801q0 -19 12 -35.5t32.5 -29
t48 -19.5t59.5 -7q12 0 26.5 1.5t28.5 3.5l-32 -59l-280 -36l28 58l94 13q-33 14 -56 38t-23 55q0 25 17 49t43 43t56 30.5t57 11.5q39 0 74 -23l-33 -57q-16 11 -36.5 17t-40.5 6q-28 0 -51.5 -16.5t-23.5 -43.5zM895 -304l-103 -102l-89 88l-89 -88l-102 102l102 103
l89 -90l89 90zM807 -509l-103 -102l-102 102l102 103z" />
    <glyph glyph-name="uni06B0.init" unicode="&#x6b0;" horiz-adv-x="1047" 
d="M669 1190q-10 -15 -37 -42.5t-64.5 -62.5t-84.5 -74.5t-97 -78.5t-101 -75t-98 -63.5t-87.5 -44t-68.5 -16.5q-21 0 -30 13q76 45 177 126.5t233 212.5q72 72 115.5 110.5t51.5 42.5q8 2 10 2q10 0 24.5 -4.5t27.5 -11t22.5 -14.5t9.5 -15q0 -2 -3 -5zM606 800l-292 -176
q168 0 284.5 -25.5t188.5 -74.5t104 -122t32 -167q0 -52 -8.5 -110.5t-24.5 -124.5h-890q-17 0 -30 2t-22 9.5t-14 21.5t-5 38q0 43 20 56t51 13h786q12 51 19.5 91.5t7.5 73.5q0 39 -13 68t-45 50t-85 34.5t-133 22t-189 13.5t-253 8l14 130l239 151q105 66 179.5 115
t123.5 87.5t75 69.5t34 61q11 -24 19 -49.5t8 -51.5q0 -24 -7.5 -47.5t-25.5 -47.5q-12 -17 -29 -33q7 -6 14 -13q10 -12 18.5 -27.5t15 -32t10.5 -33.5t4 -32q0 -14 -7 -30.5t-21.5 -30.5t-38.5 -23.5t-58 -9.5q-37 0 -56.5 15t-19.5 45q0 17 4.5 37.5t12.5 41.5q2 3 3 7z
M669 840q-1 -1 -3 -2q-7 -5 -13 -12q-7 -9 -13.5 -20.5t-11 -23t-7.5 -22.5t-3 -20q0 -19 16 -27.5t49 -8.5q23 0 37 3t21 8t9 11.5t2 12.5q0 10 -3 21.5t-8.5 23t-12.5 22.5t-14.5 19.5t-15 14t-15.5 5.5q-6 0 -14 -5z" />
    <glyph glyph-name="uni06B0.medi" unicode="&#x6b0;" horiz-adv-x="1170" 
d="M669 1190q-10 -15 -37 -42.5t-64.5 -62.5t-84.5 -74.5t-97 -78.5t-101 -75t-98 -63.5t-87.5 -44t-68.5 -16.5q-21 0 -30 13q76 45 177 126.5t233 212.5q72 72 115.5 110.5t51.5 42.5q8 2 10 2q10 0 24.5 -4.5t27.5 -11t22.5 -14.5t9.5 -15q0 -2 -3 -5zM606 800l-292 -176
q151 0 261.5 -21.5t184 -64t112.5 -105.5t48 -146q2 -23 8.5 -49t29.5 -47.5t67.5 -36t122.5 -14.5h22q16 0 29.5 -2t22.5 -9.5t14 -21.5t5 -38q0 -22 -5.5 -35.5t-15 -21t-22.5 -10t-28 -2.5h-10q-46 0 -84 11.5t-68 31.5t-52.5 46t-38.5 56q-7 -68 -27 -145h-890
q-17 0 -30 2t-22 9.5t-14 21.5t-5 38q0 43 20 56t51 13h786q12 51 19.5 91.5t7.5 73.5q0 39 -13 68t-45 50t-85 34.5t-133 22t-189 13.5t-253 8l14 130l239 151q105 66 179.5 115t123.5 87.5t75 69.5t34 61q11 -24 19 -49.5t8 -51.5q0 -24 -7.5 -47.5t-25.5 -47.5
q-12 -17 -29 -33q7 -6 14 -13q10 -12 18.5 -27.5t15 -32t10.5 -33.5t4 -32q0 -14 -7 -30.5t-21.5 -30.5t-38.5 -23.5t-58 -9.5q-37 0 -56.5 15t-19.5 45q0 17 4.5 37.5t12.5 41.5q2 3 3 7zM669 840q-1 -1 -3 -2q-7 -5 -13 -12q-7 -9 -13.5 -20.5t-11 -23t-7.5 -22.5t-3 -20
q0 -19 16 -27.5t49 -8.5q23 0 37 3t21 8t9 11.5t2 12.5q0 10 -3 21.5t-8.5 23t-12.5 22.5t-14.5 19.5t-15 14t-15.5 5.5q-6 0 -14 -5z" />
    <glyph glyph-name="uni06B0.fina" unicode="&#x6b0;" horiz-adv-x="1666" 
d="M1173 845q-7 0 -15 -5.5t-15 -14t-13.5 -20t-11 -23t-7.5 -22.5t-3 -20q0 -19 16 -27.5t49 -8.5q23 0 37 3t21 8t9 11.5t2 12.5q0 10 -3 21.5t-8.5 23t-12.5 22.5t-14.5 19.5t-15 14t-15.5 5.5zM1177 1190q-10 -15 -37 -42.5t-64.5 -62.5t-84.5 -74.5t-97 -78.5t-101 -75
t-98 -63.5t-87.5 -44t-68.5 -16.5q-21 0 -30 13q76 45 177 126.5t233 212.5q72 72 115.5 110.5t51.5 42.5q8 2 10 2q10 0 24.5 -4.5t27.5 -11t22.5 -14.5t9.5 -15q0 -2 -3 -5zM1097 801l-294 -177q151 0 261.5 -21.5t184 -64t112.5 -105.5t48 -146q2 -23 8.5 -49t29.5 -47.5
t67.5 -36t122.5 -14.5h29q16 0 29.5 -2t22.5 -9.5t14 -21.5t5 -38q0 -22 -5.5 -35.5t-15 -21t-22.5 -10t-28 -2.5h-17q-46 0 -84 11.5t-68 31.5t-52.5 46t-38.5 56q-7 -68 -27 -145h-1034q-172 0 -258.5 61.5t-86.5 202.5q0 49 14 99t35 89.5t44.5 64.5t43.5 25q9 0 17 -6
q-11 -23 -20.5 -48t-16 -50t-10 -48t-3.5 -41q0 -48 9.5 -87t43 -66t97 -41.5t171.5 -14.5h850q12 51 19.5 91.5t7.5 73.5q0 39 -13 68t-45 50t-85 34.5t-133 22t-189 13.5t-253 8l14 130l239 151q105 66 179.5 115t123.5 87.5t75 69.5t34 61q11 -24 19 -49.5t8 -51.5
q0 -24 -7.5 -47.5t-25.5 -47.5q-12 -16 -28 -33q7 -6 14 -13q10 -12 18.5 -27.5t15 -32t10.5 -33.5t4 -32q0 -14 -7 -30.5t-21.5 -30.5t-38.5 -23.5t-58 -9.5q-37 0 -56.5 15t-19.5 45q0 17 4.5 37.5t12.5 41.5z" />
    <glyph glyph-name="uni06B2.init" unicode="&#x6b2;" horiz-adv-x="1047" 
d="M0 0q-17 0 -30 2t-22 9.5t-14 21.5t-5 38q0 43 20 56t51 13h786q12 51 19.5 91.5t7.5 73.5q0 39 -13 68t-45 50t-85 34.5t-133 22t-189 13.5t-253 8l14 130l239 151q105 66 179.5 115t123.5 87.5t75 69.5t34 61q11 -24 19 -49.5t8 -51.5q0 -24 -7.5 -47.5t-25.5 -48
t-48 -50t-74 -52.5l-318 -192q168 0 284.5 -25.5t188.5 -74.5t104 -122t32 -167q0 -52 -8.5 -110.5t-24.5 -124.5h-890zM669 1190q-10 -15 -37 -42.5t-64.5 -62.5t-84.5 -74.5t-97 -78.5t-101 -75t-98 -63.5t-87.5 -44t-68.5 -16.5q-21 0 -30 13q76 45 177 126.5t233 212.5
q72 72 115.5 110.5t51.5 42.5q8 2 10 2q10 0 24.5 -4.5t27.5 -11t22.5 -14.5t9.5 -15q0 -2 -3 -5zM625 -304l-103 -102l-89 88l-89 -88l-102 102l102 103l89 -90l89 90z" />
    <glyph glyph-name="uni06B2.medi" unicode="&#x6b2;" horiz-adv-x="1170" 
d="M1160 0q-46 0 -84 11.5t-68 31.5t-52.5 46t-38.5 56q-7 -68 -27 -145h-890q-17 0 -30 2t-22 9.5t-14 21.5t-5 38q0 43 20 56t51 13h786q12 51 19.5 91.5t7.5 73.5q0 39 -13 68t-45 50t-85 34.5t-133 22t-189 13.5t-253 8l14 130l239 151q105 66 179.5 115t123.5 87.5
t75 69.5t34 61q11 -24 19 -49.5t8 -51.5q0 -24 -7.5 -47.5t-25.5 -48t-48 -50t-74 -52.5l-318 -192q151 0 261.5 -21.5t184 -64t112.5 -105.5t48 -146q2 -23 8.5 -49t29.5 -47.5t67.5 -36t122.5 -14.5h22q16 0 29.5 -2t22.5 -9.5t14 -21.5t5 -38q0 -22 -5.5 -35.5t-15 -21
t-22.5 -10t-28 -2.5h-10zM669 1190q-10 -15 -37 -42.5t-64.5 -62.5t-84.5 -74.5t-97 -78.5t-101 -75t-98 -63.5t-87.5 -44t-68.5 -16.5q-21 0 -30 13q76 45 177 126.5t233 212.5q72 72 115.5 110.5t51.5 42.5q8 2 10 2q10 0 24.5 -4.5t27.5 -11t22.5 -14.5t9.5 -15
q0 -2 -3 -5zM625 -304l-103 -102l-89 88l-89 -88l-102 102l102 103l89 -90l89 90z" />
    <glyph glyph-name="uni06B2.fina" unicode="&#x6b2;" horiz-adv-x="1666" 
d="M1275 140q12 51 19.5 91.5t7.5 73.5q0 39 -13 68t-45 50t-85 34.5t-133 22t-189 13.5t-253 8l14 130l239 151q105 66 179.5 115t123.5 87.5t75 69.5t34 61q11 -24 19 -49.5t8 -51.5q0 -24 -7.5 -47.5t-25.5 -48t-48 -50t-74 -52.5l-318 -192q151 0 261.5 -21.5t184 -64
t112.5 -105.5t48 -146q2 -23 8.5 -49t29.5 -47.5t67.5 -36t122.5 -14.5h29q16 0 29.5 -2t22.5 -9.5t14 -21.5t5 -38q0 -22 -5.5 -35.5t-15 -21t-22.5 -10t-28 -2.5h-17q-46 0 -84 11.5t-68 31.5t-52.5 46t-38.5 56q-7 -68 -27 -145h-1034q-172 0 -258.5 61.5t-86.5 202.5
q0 49 14 99t35 89.5t44.5 64.5t43.5 25q9 0 17 -6q-11 -23 -20.5 -48t-16 -50t-10 -48t-3.5 -41q0 -48 9.5 -87t43 -66t97 -41.5t171.5 -14.5h850zM1177 1190q-10 -15 -37 -42.5t-64.5 -62.5t-84.5 -74.5t-97 -78.5t-101 -75t-98 -63.5t-87.5 -44t-68.5 -16.5q-21 0 -30 13
q76 45 177 126.5t233 212.5q72 72 115.5 110.5t51.5 42.5q8 2 10 2q10 0 24.5 -4.5t27.5 -11t22.5 -14.5t9.5 -15q0 -2 -3 -5zM895 -304l-103 -102l-89 88l-89 -88l-102 102l102 103l89 -90l89 90z" />
    <glyph glyph-name="uni06B4.init" unicode="&#x6b4;" horiz-adv-x="1047" 
d="M0 0q-17 0 -30 2t-22 9.5t-14 21.5t-5 38q0 43 20 56t51 13h786q12 51 19.5 91.5t7.5 73.5q0 39 -13 68t-45 50t-85 34.5t-133 22t-189 13.5t-253 8l14 130l239 151q105 66 179.5 115t123.5 87.5t75 69.5t34 61q11 -24 19 -49.5t8 -51.5q0 -24 -7.5 -47.5t-25.5 -48
t-48 -50t-74 -52.5l-318 -192q168 0 284.5 -25.5t188.5 -74.5t104 -122t32 -167q0 -52 -8.5 -110.5t-24.5 -124.5h-890zM669 1190q-10 -15 -37 -42.5t-64.5 -62.5t-84.5 -74.5t-97 -78.5t-101 -75t-98 -63.5t-87.5 -44t-68.5 -16.5q-21 0 -30 13q76 45 177 126.5t233 212.5
q72 72 115.5 110.5t51.5 42.5q8 2 10 2q10 0 24.5 -4.5t27.5 -11t22.5 -14.5t9.5 -15q0 -2 -3 -5zM392 1202l-103 -102l-89 88l-89 -88l-102 102l102 103l89 -90l89 90zM304 1429l-103 -102l-102 102l102 103z" />
    <glyph glyph-name="uni06B4.medi" unicode="&#x6b4;" horiz-adv-x="1170" 
d="M1160 0q-46 0 -84 11.5t-68 31.5t-52.5 46t-38.5 56q-7 -68 -27 -145h-890q-17 0 -30 2t-22 9.5t-14 21.5t-5 38q0 43 20 56t51 13h786q12 51 19.5 91.5t7.5 73.5q0 39 -13 68t-45 50t-85 34.5t-133 22t-189 13.5t-253 8l14 130l239 151q105 66 179.5 115t123.5 87.5
t75 69.5t34 61q11 -24 19 -49.5t8 -51.5q0 -24 -7.5 -47.5t-25.5 -48t-48 -50t-74 -52.5l-318 -192q151 0 261.5 -21.5t184 -64t112.5 -105.5t48 -146q2 -23 8.5 -49t29.5 -47.5t67.5 -36t122.5 -14.5h22q16 0 29.5 -2t22.5 -9.5t14 -21.5t5 -38q0 -22 -5.5 -35.5t-15 -21
t-22.5 -10t-28 -2.5h-10zM669 1190q-10 -15 -37 -42.5t-64.5 -62.5t-84.5 -74.5t-97 -78.5t-101 -75t-98 -63.5t-87.5 -44t-68.5 -16.5q-21 0 -30 13q76 45 177 126.5t233 212.5q72 72 115.5 110.5t51.5 42.5q8 2 10 2q10 0 24.5 -4.5t27.5 -11t22.5 -14.5t9.5 -15
q0 -2 -3 -5zM392 1202l-103 -102l-89 88l-89 -88l-102 102l102 103l89 -90l89 90zM304 1429l-103 -102l-102 102l102 103z" />
    <glyph glyph-name="uni06B4.fina" unicode="&#x6b4;" horiz-adv-x="1666" 
d="M1275 140q12 51 19.5 91.5t7.5 73.5q0 39 -13 68t-45 50t-85 34.5t-133 22t-189 13.5t-253 8l14 130l239 151q105 66 179.5 115t123.5 87.5t75 69.5t34 61q11 -24 19 -49.5t8 -51.5q0 -24 -7.5 -47.5t-25.5 -48t-48 -50t-74 -52.5l-318 -192q151 0 261.5 -21.5t184 -64
t112.5 -105.5t48 -146q2 -23 8.5 -49t29.5 -47.5t67.5 -36t122.5 -14.5h29q16 0 29.5 -2t22.5 -9.5t14 -21.5t5 -38q0 -22 -5.5 -35.5t-15 -21t-22.5 -10t-28 -2.5h-17q-46 0 -84 11.5t-68 31.5t-52.5 46t-38.5 56q-7 -68 -27 -145h-1034q-172 0 -258.5 61.5t-86.5 202.5
q0 49 14 99t35 89.5t44.5 64.5t43.5 25q9 0 17 -6q-11 -23 -20.5 -48t-16 -50t-10 -48t-3.5 -41q0 -48 9.5 -87t43 -66t97 -41.5t171.5 -14.5h850zM1177 1190q-10 -15 -37 -42.5t-64.5 -62.5t-84.5 -74.5t-97 -78.5t-101 -75t-98 -63.5t-87.5 -44t-68.5 -16.5q-21 0 -30 13
q76 45 177 126.5t233 212.5q72 72 115.5 110.5t51.5 42.5q8 2 10 2q10 0 24.5 -4.5t27.5 -11t22.5 -14.5t9.5 -15q0 -2 -3 -5zM922 1242l-103 -102l-89 88l-89 -88l-102 102l102 103l89 -90l89 90zM834 1469l-103 -102l-102 102l102 103z" />
    <glyph glyph-name="uni06B5.init" unicode="&#x6b5;" horiz-adv-x="469" 
d="M220 1287q0 14 2.5 23.5t11.5 12.5l112 39l3 -2v-1360h-349q-17 0 -30 2t-22 9.5t-14 21.5t-5 38q0 43 20 56t51 13h220v1147zM68 1728l94 48q76 -135 105 -195q32 61 107 195h1l93 -48q-31 -36 -59 -73q-38 -49 -69 -96.5t-51 -86.5h-41q-20 39 -51 86.5t-69 96.5
q-29 36 -60 73z" />
    <glyph glyph-name="uni06B5.medi" unicode="&#x6b5;" horiz-adv-x="586" 
d="M220 1287q0 14 2.5 23.5t11.5 12.5l112 39l3 -2v-1082q2 -30 11.5 -55t33 -43.5t64.5 -29t106 -10.5h22q16 0 29.5 -2t22.5 -9.5t14 -21.5t5 -38q0 -22 -5.5 -35.5t-15 -21t-22.5 -10t-28 -2.5h-11q-30 0 -63 7.5t-64.5 23.5t-59 41t-46.5 60q-20 -80 -93 -132h-249
q-17 0 -30 2t-22 9.5t-14 21.5t-5 38q0 43 20 56t51 13h220v1147zM68 1728l94 48q76 -135 105 -195q32 61 107 195h1l93 -48q-31 -36 -59 -73q-38 -49 -69 -96.5t-51 -86.5h-41q-20 39 -51 86.5t-69 96.5q-29 36 -60 73z" />
    <glyph glyph-name="uni06B5.fina" unicode="&#x6b5;" horiz-adv-x="1015" 
d="M651 1287q0 14 2.5 23.5t11.5 12.5l112 39l3 -2v-1114q5 -23 17.5 -42t37 -33.5t62 -22.5t92.5 -8h26q16 0 29.5 -2t22.5 -9.5t14 -21.5t5 -38q0 -22 -5.5 -35.5t-15 -21t-22.5 -10t-28 -2.5h-15q-28 0 -59 6.5t-61 20.5t-56.5 36t-46.5 53q-14 -95 -57.5 -165
t-106.5 -116t-140 -68t-157 -22q-31 0 -66.5 4t-71 13t-67.5 23t-57 34.5t-39.5 47.5t-14.5 61q0 26 11.5 60t28.5 57q42 -52 92 -87t101.5 -56.5t101 -30.5t90.5 -9q61 0 104 22t70 61.5t39.5 93t12.5 116.5v1132zM498 1728l94 48q76 -135 105 -195q32 61 107 195h1l93 -48
q-31 -36 -59 -73q-38 -49 -69 -96.5t-51 -86.5h-41q-20 39 -51 86.5t-69 96.5q-29 36 -60 73z" />
    <glyph glyph-name="uni06B6.init" unicode="&#x6b6;" horiz-adv-x="469" 
d="M220 1287q0 14 2.5 23.5t11.5 12.5l112 39l3 -2v-1360h-349q-17 0 -30 2t-22 9.5t-14 21.5t-5 38q0 43 20 56t51 13h220v1147zM371 1551l-103 -102l-102 102l102 103z" />
    <glyph glyph-name="uni06B6.medi" unicode="&#x6b6;" horiz-adv-x="586" 
d="M220 1287q0 14 2.5 23.5t11.5 12.5l112 39l3 -2v-1082q2 -30 11.5 -55t33 -43.5t64.5 -29t106 -10.5h22q16 0 29.5 -2t22.5 -9.5t14 -21.5t5 -38q0 -22 -5.5 -35.5t-15 -21t-22.5 -10t-28 -2.5h-11q-30 0 -63 7.5t-64.5 23.5t-59 41t-46.5 60q-20 -80 -93 -132h-249
q-17 0 -30 2t-22 9.5t-14 21.5t-5 38q0 43 20 56t51 13h220v1147zM379 1555l-103 -102l-102 102l102 103z" />
    <glyph glyph-name="uni06B6.fina" unicode="&#x6b6;" horiz-adv-x="1015" 
d="M651 1287q0 14 2.5 23.5t11.5 12.5l112 39l3 -2v-1114q5 -23 17.5 -42t37 -33.5t62 -22.5t92.5 -8h26q16 0 29.5 -2t22.5 -9.5t14 -21.5t5 -38q0 -22 -5.5 -35.5t-15 -21t-22.5 -10t-28 -2.5h-15q-28 0 -59 6.5t-61 20.5t-56.5 36t-46.5 53q-14 -95 -57.5 -165
t-106.5 -116t-140 -68t-157 -22q-31 0 -66.5 4t-71 13t-67.5 23t-57 34.5t-39.5 47.5t-14.5 61q0 26 11.5 60t28.5 57q42 -52 92 -87t101.5 -56.5t101 -30.5t90.5 -9q61 0 104 22t70 61.5t39.5 93t12.5 116.5v1132zM809 1555l-103 -102l-102 102l102 103z" />
    <glyph glyph-name="uni06B7.init" unicode="&#x6b7;" horiz-adv-x="469" 
d="M220 1287q0 14 2.5 23.5t11.5 12.5l112 39l3 -2v-1360h-349q-17 0 -30 2t-22 9.5t-14 21.5t-5 38q0 43 20 56t51 13h220v1147zM467 1553l-103 -102l-89 88l-89 -88l-102 102l102 103l89 -90l89 90zM379 1780l-103 -102l-102 102l102 103z" />
    <glyph glyph-name="uni06B7.medi" unicode="&#x6b7;" horiz-adv-x="586" 
d="M220 1287q0 14 2.5 23.5t11.5 12.5l112 39l3 -2v-1082q2 -30 11.5 -55t33 -43.5t64.5 -29t106 -10.5h22q16 0 29.5 -2t22.5 -9.5t14 -21.5t5 -38q0 -22 -5.5 -35.5t-15 -21t-22.5 -10t-28 -2.5h-11q-30 0 -63 7.5t-64.5 23.5t-59 41t-46.5 60q-20 -80 -93 -132h-249
q-17 0 -30 2t-22 9.5t-14 21.5t-5 38q0 43 20 56t51 13h220v1147zM467 1553l-103 -102l-89 88l-89 -88l-102 102l102 103l89 -90l89 90zM379 1780l-103 -102l-102 102l102 103z" />
    <glyph glyph-name="uni06B7.fina" unicode="&#x6b7;" horiz-adv-x="1015" 
d="M651 1287q0 14 2.5 23.5t11.5 12.5l112 39l3 -2v-1114q5 -23 17.5 -42t37 -33.5t62 -22.5t92.5 -8h26q16 0 29.5 -2t22.5 -9.5t14 -21.5t5 -38q0 -22 -5.5 -35.5t-15 -21t-22.5 -10t-28 -2.5h-15q-28 0 -59 6.5t-61 20.5t-56.5 36t-46.5 53q-14 -95 -57.5 -165
t-106.5 -116t-140 -68t-157 -22q-31 0 -66.5 4t-71 13t-67.5 23t-57 34.5t-39.5 47.5t-14.5 61q0 26 11.5 60t28.5 57q42 -52 92 -87t101.5 -56.5t101 -30.5t90.5 -9q61 0 104 22t70 61.5t39.5 93t12.5 116.5v1132zM897 1553l-103 -102l-89 88l-89 -88l-102 102l102 103
l89 -90l89 90zM809 1780l-103 -102l-102 102l102 103z" />
    <glyph glyph-name="uni06B8.init" unicode="&#x6b8;" horiz-adv-x="469" 
d="M220 1287q0 14 2.5 23.5t11.5 12.5l112 39l3 -2v-1360h-349q-17 0 -30 2t-22 9.5t-14 21.5t-5 38q0 43 20 56t51 13h220v1147zM385 -304l-103 -102l-89 88l-89 -88l-102 102l102 103l89 -90l89 90zM297 -509l-103 -102l-102 102l102 103z" />
    <glyph glyph-name="uni06B8.medi" unicode="&#x6b8;" horiz-adv-x="586" 
d="M220 1287q0 14 2.5 23.5t11.5 12.5l112 39l3 -2v-1082q2 -30 11.5 -55t33 -43.5t64.5 -29t106 -10.5h22q16 0 29.5 -2t22.5 -9.5t14 -21.5t5 -38q0 -22 -5.5 -35.5t-15 -21t-22.5 -10t-28 -2.5h-11q-30 0 -63 7.5t-64.5 23.5t-59 41t-46.5 60q-20 -80 -93 -132h-249
q-17 0 -30 2t-22 9.5t-14 21.5t-5 38q0 43 20 56t51 13h220v1147zM455 -304l-103 -102l-89 88l-89 -88l-102 102l102 103l89 -90l89 90zM367 -509l-103 -102l-102 102l102 103z" />
    <glyph glyph-name="uni06B8.fina" unicode="&#x6b8;" horiz-adv-x="1015" 
d="M651 1287q0 14 2.5 23.5t11.5 12.5l112 39l3 -2v-1114q5 -23 17.5 -42t37 -33.5t62 -22.5t92.5 -8h26q16 0 29.5 -2t22.5 -9.5t14 -21.5t5 -38q0 -22 -5.5 -35.5t-15 -21t-22.5 -10t-28 -2.5h-15q-28 0 -59 6.5t-61 20.5t-56.5 36t-46.5 53q-14 -95 -57.5 -165
t-106.5 -116t-140 -68t-157 -22q-31 0 -66.5 4t-71 13t-67.5 23t-57 34.5t-39.5 47.5t-14.5 61q0 26 11.5 60t28.5 57q42 -52 92 -87t101.5 -56.5t101 -30.5t90.5 -9q61 0 104 22t70 61.5t39.5 93t12.5 116.5v1132zM582 -496l-103 -102l-89 88l-89 -88l-102 102l102 103
l89 -90l89 90zM494 -701l-103 -102l-102 102l102 103z" />
    <glyph glyph-name="uni06B9.init" unicode="&#x6b9;" horiz-adv-x="524" 
d="M354 968l-103 -102l-102 102l102 103zM166 562q-5 8 -9 15t-4 13q0 7 6 10l126 69l3 -1q6 -12 13.5 -28t16 -34t16.5 -35.5t15 -32.5q26 -60 47 -119.5t21 -122.5q0 -65 -29 -137q-16 -39 -36 -78t-44 -81h-308q-17 0 -30 2t-22 9.5t-14 21.5t-5 38q0 43 20 56t51 13h304
q10 41 10 87q0 40 -11 80.5t-31 81.5t-47 84t-59 89zM324 -301l-103 -102l-102 102l102 103z" />
    <glyph glyph-name="uni06B9.medi" unicode="&#x6b9;" horiz-adv-x="660" 
d="M230 541q-11 20 -11 30q0 6 7 10l123 67l3 -1q38 -63 58 -128.5t20 -140.5q0 -39 -6 -81q-1 -5 -1.5 -11t-0.5 -11q0 -27 10 -51.5t35 -43t66.5 -29.5t104.5 -11h22q16 0 29.5 -2t22.5 -9.5t14 -21.5t5 -38q0 -22 -5.5 -35.5t-15 -21t-22.5 -10t-28 -2.5h-10
q-35 0 -73 10t-73 31.5t-63.5 55.5t-43.5 83q-17 -46 -39.5 -90.5t-48.5 -89.5h-309q-17 0 -30 2t-22 9.5t-14 21.5t-5 38q0 43 20 56t51 13h292q10 42 15.5 78t5.5 70q0 33 -5 62t-15 58.5t-26 61.5t-37 71zM376 968l-103 -102l-102 102l102 103zM460 -301l-103 -102
l-102 102l102 103z" />
    <glyph glyph-name="uni06B9.fina" unicode="&#x6b9;" horiz-adv-x="1193" 
d="M722 492q-9 12 -9 18q0 7 8 12l117 75l3 -1q58 -84 87 -175.5t29 -176.5q0 -21 10 -40t34 -33t65 -22.5t103 -8.5h24q16 0 29.5 -2t22.5 -9.5t14 -21.5t5 -38q0 -22 -5.5 -35.5t-15 -21t-22.5 -10t-28 -2.5h-12q-31 0 -64.5 7.5t-64.5 23.5t-58.5 42t-46.5 63
q-15 -95 -56 -174.5t-103 -136.5t-143 -88.5t-176 -31.5q-109 0 -196 32t-147.5 88.5t-93 134t-32.5 169.5q0 59 14.5 113t35.5 95t44 65.5t40 24.5q9 0 17 -8q-9 -14 -17.5 -38.5t-15.5 -53t-11 -57.5t-4 -52q0 -89 29 -156.5t80 -113.5t120.5 -69t150.5 -23q94 0 165 25
t117.5 65.5t70 91.5t23.5 102q0 52 -11 101t-30 93.5t-44 84.5t-52 73zM562 767l-103 -102l-102 102l102 103zM558 -544l-103 -102l-102 102l102 103z" />
    <glyph glyph-name="uni06BC.init" unicode="&#x6bc;" horiz-adv-x="517" 
d="M150 0q-10 0 -21 -7t-20.5 -19.5t-18.5 -27.5t-15.5 -31t-10 -31.5t-3.5 -27.5q0 -25 21 -37.5t68 -12.5q32 0 50.5 4.5t28.5 11.5t12.5 15.5t2.5 17.5q0 14 -4 29.5t-11.5 31.5t-17 31.5t-19.5 27t-21 18.5t-21 7zM354 968l-103 -102l-102 102l102 103zM63 0h-63
q-17 0 -30 2t-22 9.5t-14 21.5t-5 38q0 43 20 56t51 13h304q10 41 10 87q0 40 -11 80.5t-31 81.5t-47 84t-59 89q-5 8 -9 15t-4 13q0 7 6 10l126 69l3 -1q6 -12 13.5 -28t16 -34t16.5 -35.5t15 -32.5q26 -60 47 -119.5t21 -122.5q0 -65 -29 -137q-16 -39 -36 -78t-44 -81
h-50q13 -23 23 -47q10 -26 15.5 -51.5t5.5 -47.5q0 -21 -10.5 -46.5t-33 -46.5t-58.5 -35t-87 -14q-56 0 -85.5 22.5t-29.5 67.5q0 26 7 57t19 62t28 60q5 10 11 19z" />
    <glyph glyph-name="uni06BC.medi" unicode="&#x6bc;" horiz-adv-x="660" 
d="M150 0q-10 0 -21 -7t-20.5 -19.5t-18.5 -27.5t-15.5 -31t-10 -31.5t-3.5 -27.5q0 -25 21 -37.5t68 -12.5q32 0 50.5 4.5t28.5 11.5t12.5 15.5t2.5 17.5q0 14 -4 29.5t-11.5 31.5t-17 31.5t-19.5 27t-21 18.5t-21 7zM376 968l-103 -102l-102 102l102 103zM63 0h-63
q-17 0 -30 2t-22 9.5t-14 21.5t-5 38q0 43 20 56t51 13h292q10 42 15.5 78t5.5 70q0 33 -5 62t-15 58.5t-26 61.5t-37 71q-11 20 -11 30q0 6 7 10l123 67l3 -1q38 -63 58 -128.5t20 -140.5q0 -39 -6 -81q-1 -5 -1.5 -11t-0.5 -11q0 -27 10 -51.5t35 -43t66.5 -29.5
t104.5 -11h22q16 0 29.5 -2t22.5 -9.5t14 -21.5t5 -38q0 -22 -5.5 -35.5t-15 -21t-22.5 -10t-28 -2.5h-10q-35 0 -73 10t-73 31.5t-63.5 55.5t-43.5 83q-17 -46 -39.5 -90.5t-48.5 -89.5h-51q13 -23 23 -47q10 -26 15.5 -51.5t5.5 -47.5q0 -21 -10.5 -46.5t-33 -46.5
t-58.5 -35t-87 -14q-56 0 -85.5 22.5t-29.5 67.5q0 26 7 57t19 62t28 60q5 10 11 19z" />
    <glyph glyph-name="uni06BC.fina" unicode="&#x6bc;" horiz-adv-x="1193" 
d="M562 767l-103 -102l-102 102l102 103zM469 -295q-10 0 -21 -7t-20.5 -19.5t-18.5 -27.5t-15.5 -31t-10 -31.5t-3.5 -27.5q0 -25 21 -37.5t68 -12.5q32 0 50.5 4.5t28.5 11.5t12.5 15.5t2.5 17.5q0 14 -4 29.5t-11.5 31.5t-17 31.5t-19.5 27t-21 18.5t-21 7zM385 -290
q-60 8 -112 27q-87 32 -147.5 88.5t-93 134t-32.5 169.5q0 59 14.5 113t35.5 95t44 65.5t40 24.5q9 0 17 -8q-9 -14 -17.5 -38.5t-15.5 -53t-11 -57.5t-4 -52q0 -89 29 -156.5t80 -113.5t120.5 -69t150.5 -23q94 0 165 25t117.5 65.5t70 91.5t23.5 102q0 52 -11 101
t-30 93.5t-44 84.5t-52 73q-9 12 -9 18q0 7 8 12l117 75l3 -1q58 -84 87 -175.5t29 -176.5q0 -21 10 -40t34 -33t65 -22.5t103 -8.5h24q16 0 29.5 -2t22.5 -9.5t14 -21.5t5 -38q0 -22 -5.5 -35.5t-15 -21t-22.5 -10t-28 -2.5h-12q-31 0 -64.5 7.5t-64.5 23.5t-58.5 42
t-46.5 63q-15 -95 -56 -174.5t-103 -136.5t-143 -88q-36 -14 -74 -22q3 -4 6 -9q13 -23 23 -48.5t15.5 -51t5.5 -47.5q0 -21 -10.5 -46.5t-33 -46.5t-58.5 -35t-87 -14q-56 0 -85.5 22.5t-29.5 67.5q0 26 7 57t19 62t28 60q7 13 14 24z" />
    <glyph glyph-name="uni06BD.init" unicode="&#x6bd;" horiz-adv-x="517" 
d="M166 562q-5 8 -9 15t-4 13q0 7 6 10l126 69l3 -1q6 -12 13.5 -28t16 -34t16.5 -35.5t15 -32.5q26 -60 47 -119.5t21 -122.5q0 -65 -29 -137q-16 -39 -36 -78t-44 -81h-308q-17 0 -30 2t-22 9.5t-14 21.5t-5 38q0 43 20 56t51 13h304q10 41 10 87q0 40 -11 80.5t-31 81.5
t-47 84t-59 89zM440 968l-103 -102l-89 88l-89 -88l-102 102l102 103l89 -90l89 90zM352 1195l-103 -102l-102 102l102 103z" />
    <glyph glyph-name="uni06BD.medi" unicode="&#x6bd;" horiz-adv-x="660" 
d="M230 541q-11 20 -11 30q0 6 7 10l123 67l3 -1q38 -63 58 -128.5t20 -140.5q0 -39 -6 -81q-1 -5 -1.5 -11t-0.5 -11q0 -27 10 -51.5t35 -43t66.5 -29.5t104.5 -11h22q16 0 29.5 -2t22.5 -9.5t14 -21.5t5 -38q0 -22 -5.5 -35.5t-15 -21t-22.5 -10t-28 -2.5h-10
q-35 0 -73 10t-73 31.5t-63.5 55.5t-43.5 83q-17 -46 -39.5 -90.5t-48.5 -89.5h-309q-17 0 -30 2t-22 9.5t-14 21.5t-5 38q0 43 20 56t51 13h292q10 42 15.5 78t5.5 70q0 33 -5 62t-15 58.5t-26 61.5t-37 71zM446 968l-103 -102l-89 88l-89 -88l-102 102l102 103l89 -90
l89 90zM358 1195l-103 -102l-102 102l102 103z" />
    <glyph glyph-name="uni06BD.fina" unicode="&#x6bd;" horiz-adv-x="1193" 
d="M722 492q-9 12 -9 18q0 7 8 12l117 75l3 -1q58 -84 87 -175.5t29 -176.5q0 -21 10 -40t34 -33t65 -22.5t103 -8.5h24q16 0 29.5 -2t22.5 -9.5t14 -21.5t5 -38q0 -22 -5.5 -35.5t-15 -21t-22.5 -10t-28 -2.5h-12q-31 0 -64.5 7.5t-64.5 23.5t-58.5 42t-46.5 63
q-15 -95 -56 -174.5t-103 -136.5t-143 -88.5t-176 -31.5q-109 0 -196 32t-147.5 88.5t-93 134t-32.5 169.5q0 59 14.5 113t35.5 95t44 65.5t40 24.5q9 0 17 -8q-9 -14 -17.5 -38.5t-15.5 -53t-11 -57.5t-4 -52q0 -89 29 -156.5t80 -113.5t120.5 -69t150.5 -23q94 0 165 25
t117.5 65.5t70 91.5t23.5 102q0 52 -11 101t-30 93.5t-44 84.5t-52 73zM646 768l-103 -102l-89 88l-89 -88l-102 102l102 103l89 -90l89 90zM558 995l-103 -102l-102 102l102 103z" />
    <glyph glyph-name="uni06BF.init" unicode="&#x6bf;" horiz-adv-x="842" 
d="M166 562q-5 8 -9 15t-4 13q0 7 6 10l121 71l8 -3q103 -162 220 -291t234 -228l-128 -149h-614q-17 0 -30 2t-22 9.5t-14 21.5t-5 38q0 43 20 56t51 13h577q-71 55 -130.5 107.5t-110 104t-92.5 103.5t-78 107zM555 -304l-103 -102l-89 88l-89 -88l-102 102l102 103
l89 -90l89 90zM467 -509l-103 -102l-102 102l102 103zM390 968l-103 -102l-102 102l102 103z" />
    <glyph glyph-name="uni06BF.medi" unicode="&#x6bf;" horiz-adv-x="909" 
d="M166 562q-5 8 -9 15t-4 13q0 7 6 10l123 70l6 -2q66 -110 143 -206t157 -167.5t159 -113t149 -41.5h13q16 0 29.5 -2t22.5 -9.5t14 -21.5t5 -38q0 -22 -5.5 -35.5t-15 -21t-22.5 -10t-28 -2.5h-11q-26 0 -57.5 4.5t-66 15.5t-70 29.5t-69.5 47.5q-10 -11 -26.5 -27.5
t-32.5 -32t-29 -26.5t-16 -11h-531q-17 0 -30 2t-22 9.5t-14 21.5t-5 38q0 43 20 56t51 13h577q-72 55 -131.5 109t-109.5 106.5t-91.5 104t-78.5 102.5zM578 -304l-103 -102l-89 88l-89 -88l-102 102l102 103l89 -90l89 90zM490 -509l-103 -102l-102 102l102 103zM399 968
l-103 -102l-102 102l102 103z" />
    <glyph glyph-name="uni06BF.fina" unicode="&#x6bf;" horiz-adv-x="1009" 
d="M493 -479q32 2 67 6q40 4 79 10.5t64 16.5q-7 -31 -27 -61.5t-55.5 -55t-88.5 -40t-125 -15.5q-101 0 -177 29t-127 77.5t-77 111t-26 129.5q0 117 41 196t109 126.5t156 68t182 20.5h186q-72 55 -131.5 109t-109.5 106.5t-91.5 104t-78.5 102.5q-5 8 -9 15t-4 13
q0 7 6 10l123 69l6 -1q66 -110 143 -206t157 -167.5t159 -113t149 -41.5h16q16 0 29.5 -2t22.5 -9.5t14 -21.5t5 -38q0 -22 -5.5 -35.5t-15 -21t-22.5 -10t-28 -2.5h-14q-26 0 -57.5 4.5t-66 15.5t-70 29.5t-69.5 47.5q-10 -11 -26.5 -27.5t-32.5 -32t-29 -26.5t-16 -11
h-145q-96 0 -163.5 -12.5t-113.5 -33t-72 -46t-40 -51t-17.5 -48.5t-3.5 -39q0 -41 21 -85t65.5 -81.5t112.5 -61.5q14 -5 29 -9l-2 -2l102 -102zM592 -204l-103 -102l-89 88l-89 -88l-102 102l102 103l89 -90l89 90zM504 -389l-103 -102l-102 102l102 103zM487 968
l-103 -102l-102 102l102 103z" />
    <glyph glyph-name="uni06C2.fina" unicode="&#x6c2;" horiz-adv-x="638" 
d="M12 614l37 80l125 17q-45 19 -75.5 49.5t-30.5 70.5q0 24 13.5 50.5t45.5 54.5q32 30 76 54t95 24q26 0 53 -8t56 -27l-42 -69q-26 17 -54 26.5t-56 9.5q-21 0 -39.5 -6.5t-33 -18t-22.5 -27.5t-8 -34q0 -28 17 -50.5t45 -38t64.5 -24t74.5 -8.5q16 0 33.5 1.5t37.5 3.5
l-41 -81zM568 0q-82 0 -133.5 25t-80.5 62.5t-41.5 81.5t-16.5 83q-54 0 -95 -15t-71 -44.5t-50 -72t-33 -96.5q-2 -6 -6 -12.5t-14 -6.5q-6 40 -6 77q0 81 28 141t73.5 99t103 58.5t116.5 20.5q9 -77 29 -127.5t50 -80t68.5 -41.5t83.5 -12h65q16 0 29.5 -2t22.5 -9.5
t14 -21.5t5 -38q0 -22 -5.5 -35.5t-15 -21t-22.5 -10t-28 -2.5h-70z" />
    <glyph glyph-name="uni06C3.fina" unicode="&#x6c3;" horiz-adv-x="618" 
d="M403 785l-103 -102l-89 88l-89 -88l-102 102l102 103l89 -90l89 90zM548 0q-82 0 -133.5 25t-80.5 62.5t-41.5 81.5t-16.5 83q-54 0 -95 -15t-71 -44.5t-50 -72t-33 -96.5q-2 -6 -6 -12.5t-14 -6.5q-6 40 -6 77q0 81 28 141t73.5 99t103 58.5t116.5 20.5q9 -77 29 -127.5
t50 -80t68.5 -41.5t83.5 -12h65q16 0 29.5 -2t22.5 -9.5t14 -21.5t5 -38q0 -22 -5.5 -35.5t-15 -21t-22.5 -10t-28 -2.5h-70z" />
    <glyph glyph-name="uni06C4.fina" unicode="&#x6c4;" horiz-adv-x="890" 
d="M582 140q2 17 3 34.5t1 36.5q0 44 -6 90.5t-18.5 92.5t-31 88t-43.5 77q-68 0 -114.5 -15t-75.5 -40.5t-42 -59.5t-13 -71q0 -42 17 -83.5t56.5 -74.5t105 -54t161.5 -21zM346 -206q14 3 27 8q35 11 64 29q3 3 5 7q2 5 2 11v4q-1 9 -8.5 22t-24.5 31q-25 27 -43 33
q-6 2 -11 2q-12 0 -23 -10q-6 -6 -13 -16.5t-12.5 -22.5t-10 -25t-5.5 -25q-1 -6 -1 -11q0 -6 1 -11q1 -10 7 -17q5 -5 15 -7q6 -2 15 -2h16zM479 -137q26 25 45 57q25 41 37 92q-90 0 -166.5 21t-132.5 61t-88 98t-32 132q0 66 26.5 130t81 115t137.5 82t196 31
q22 -30 44 -74.5t40 -101.5t29.5 -124.5t11.5 -142.5q0 -24 -2 -49t-5 -50h189q16 0 29.5 -2t22.5 -9.5t14 -21.5t5 -38q0 -22 -5.5 -35.5t-15 -21t-22.5 -10t-28 -2.5h-221q-23 -69 -58.5 -131.5t-82.5 -110t-106.5 -75t-130.5 -27.5q-32 0 -63 9t-57.5 28t-45 47t-25.5 67
q82 -21 154 -22q-1 6 -1 13q0 10 2 21q2 20 9.5 42t18 43.5t23 40t26.5 31.5q19 18 41 18q4 0 8 -1q26 -4 54 -34q24 -26 34 -52q9 -24 10 -44z" />
    <glyph glyph-name="uni06CA.fina" unicode="&#x6ca;" horiz-adv-x="890" 
d="M669 0q-23 -69 -58.5 -131.5t-82.5 -110t-106.5 -75t-130.5 -27.5q-32 0 -63 9t-57.5 28t-45 47t-25.5 67q84 -22 158 -22q64 0 115 16.5t88.5 46.5t62.5 71.5t37 92.5q-90 0 -166.5 21t-132.5 61t-88 98t-32 132q0 66 26.5 130t81 115t137.5 82t196 31q22 -30 44 -74.5
t40 -101.5t29.5 -124.5t11.5 -142.5q0 -24 -2 -49t-5 -50h189q16 0 29.5 -2t22.5 -9.5t14 -21.5t5 -38q0 -22 -5.5 -35.5t-15 -21t-22.5 -10t-28 -2.5h-221zM582 140q2 17 3 34.5t1 36.5q0 44 -6 90.5t-18.5 92.5t-31 88t-43.5 77q-68 0 -114.5 -15t-75.5 -40.5t-42 -59.5
t-13 -71q0 -42 17 -83.5t56.5 -74.5t105 -54t161.5 -21zM648 911l-103 -102l-89 88l-89 -88l-102 102l102 103l89 -90l89 90z" />
    <glyph glyph-name="uni06CD.fina" unicode="&#x6cd;" horiz-adv-x="1660" 
d="M305 402q11 7 22 7t18 -7q-10 -18 -18 -43t-14 -52t-9 -54.5t-3 -51.5q0 -89 37.5 -162t105.5 -125.5t163.5 -81.5t212.5 -29q122 0 211.5 25t147.5 62.5t86 81.5t28 82q0 7 -3.5 20.5t-12.5 18.5q-21 12 -44 25t-42.5 26.5t-32 27t-12.5 25.5q0 33 9.5 66t25.5 57
q106 -91 216.5 -135.5t207.5 -44.5h55q16 0 29.5 -2t22.5 -9.5t14 -21.5t5 -38q0 -22 -5.5 -35.5t-15 -21t-22.5 -10t-28 -2.5h-36q-69 0 -118 12.5t-83 26.5q-72 -182 -227 -282t-393 -100q-161 0 -275 42.5t-186.5 111t-106 153.5t-33.5 170q0 37 6 72q-29 -24 -52 -41
q-41 -32 -73 -54t-46 -28q-5 -2 -10 -3q-3 0 -6 1q-4 2 -8.5 15.5t-7 32.5t-3.5 39v11l1 9q0 6 2 12q3 11 39.5 30.5t110.5 65t119 80.5q6 5 8.5 7t5.5 5q9 9 17 14z" />
    <glyph glyph-name="uni06CE.init" unicode="&#x6ce;" horiz-adv-x="517" 
d="M166 562q-5 8 -9 15t-4 13q0 7 6 10l126 69l3 -1q6 -12 13.5 -28t16 -34t16.5 -35.5t15 -32.5q26 -60 47 -119.5t21 -122.5q0 -65 -29 -137q-16 -39 -36 -78t-44 -81h-308q-17 0 -30 2t-22 9.5t-14 21.5t-5 38q0 43 20 56t51 13h304q10 41 10 87q0 40 -11 80.5t-31 81.5
t-47 84t-59 89zM430 -301l-103 -102l-89 88l-89 -88l-102 102l102 103l89 -90l89 90zM48 1053l94 48q76 -135 105 -195q32 61 107 195h1l93 -48q-31 -36 -59 -73q-38 -49 -69 -96.5t-51 -86.5h-41q-20 39 -51 86.5t-69 96.5q-29 36 -60 73z" />
    <glyph glyph-name="uni06CE.medi" unicode="&#x6ce;" horiz-adv-x="660" 
d="M230 541q-11 20 -11 30q0 6 7 10l123 67l3 -1q38 -63 58 -128.5t20 -140.5q0 -39 -6 -81q-1 -5 -1.5 -11t-0.5 -11q0 -27 10 -51.5t35 -43t66.5 -29.5t104.5 -11h22q16 0 29.5 -2t22.5 -9.5t14 -21.5t5 -38q0 -22 -5.5 -35.5t-15 -21t-22.5 -10t-28 -2.5h-10
q-35 0 -73 10t-73 31.5t-63.5 55.5t-43.5 83q-17 -46 -39.5 -90.5t-48.5 -89.5h-309q-17 0 -30 2t-22 9.5t-14 21.5t-5 38q0 43 20 56t51 13h292q10 42 15.5 78t5.5 70q0 33 -5 62t-15 58.5t-26 61.5t-37 71zM543 -301l-103 -102l-89 88l-89 -88l-102 102l102 103l89 -90
l89 90zM128 1053l94 48q76 -135 105 -195q32 61 107 195h1l93 -48q-31 -36 -59 -73q-38 -49 -69 -96.5t-51 -86.5h-41q-20 39 -51 86.5t-69 96.5q-29 36 -60 73z" />
    <glyph glyph-name="uni06CE.fina" unicode="&#x6ce;" horiz-adv-x="1458" 
d="M1422 0q-69 0 -118 12.5t-83 26.5q-72 -182 -227 -282t-393 -100q-161 0 -275 42.5t-186.5 111t-106 153.5t-33.5 170q0 57 13 107t32 87.5t40.5 59t39.5 21.5q11 0 18 -7q-10 -18 -18 -43t-14 -52t-9 -54.5t-3 -51.5q0 -89 37.5 -162t105.5 -125.5t163.5 -81.5
t212.5 -29q122 0 211.5 25t147.5 62.5t86 81.5t28 82q0 7 -3.5 20.5t-12.5 18.5q-21 12 -44 25t-42.5 26.5t-32 27t-12.5 25.5q0 33 9.5 66t25.5 57q106 -91 216.5 -135.5t207.5 -44.5h55q16 0 29.5 -2t22.5 -9.5t14 -21.5t5 -38q0 -22 -5.5 -35.5t-15 -21t-22.5 -10
t-28 -2.5h-36zM195 755l94 48q76 -135 105 -195q32 61 107 195h1l93 -48q-31 -36 -59 -73q-38 -49 -69 -96.5t-51 -86.5h-41q-20 39 -51 86.5t-69 96.5q-29 36 -60 73z" />
    <glyph glyph-name="uni06CF.fina" unicode="&#x6cf;" horiz-adv-x="890" 
d="M669 0q-23 -69 -58.5 -131.5t-82.5 -110t-106.5 -75t-130.5 -27.5q-32 0 -63 9t-57.5 28t-45 47t-25.5 67q84 -22 158 -22q64 0 115 16.5t88.5 46.5t62.5 71.5t37 92.5q-90 0 -166.5 21t-132.5 61t-88 98t-32 132q0 66 26.5 130t81 115t137.5 82t196 31q22 -30 44 -74.5
t40 -101.5t29.5 -124.5t11.5 -142.5q0 -24 -2 -49t-5 -50h189q16 0 29.5 -2t22.5 -9.5t14 -21.5t5 -38q0 -22 -5.5 -35.5t-15 -21t-22.5 -10t-28 -2.5h-221zM582 140q2 17 3 34.5t1 36.5q0 44 -6 90.5t-18.5 92.5t-31 88t-43.5 77q-68 0 -114.5 -15t-75.5 -40.5t-42 -59.5
t-13 -71q0 -42 17 -83.5t56.5 -74.5t105 -54t161.5 -21zM560 908l-103 -102l-102 102l102 103z" />
    <glyph glyph-name="uni06D1.init" unicode="&#x6d1;" horiz-adv-x="517" 
d="M166 562q-5 8 -9 15t-4 13q0 7 6 10l126 69l3 -1q6 -12 13.5 -28t16 -34t16.5 -35.5t15 -32.5q26 -60 47 -119.5t21 -122.5q0 -65 -29 -137q-16 -39 -36 -78t-44 -81h-308q-17 0 -30 2t-22 9.5t-14 21.5t-5 38q0 43 20 56t51 13h304q10 41 10 87q0 40 -11 80.5t-31 81.5
t-47 84t-59 89zM409 -304l-103 -102l-89 88l-89 -88l-102 102l102 103l89 -90l89 90zM321 -509l-103 -102l-102 102l102 103z" />
    <glyph glyph-name="uni06D1.medi" unicode="&#x6d1;" horiz-adv-x="660" 
d="M230 541q-11 20 -11 30q0 6 7 10l123 67l3 -1q38 -63 58 -128.5t20 -140.5q0 -39 -6 -81q-1 -5 -1.5 -11t-0.5 -11q0 -27 10 -51.5t35 -43t66.5 -29.5t104.5 -11h22q16 0 29.5 -2t22.5 -9.5t14 -21.5t5 -38q0 -22 -5.5 -35.5t-15 -21t-22.5 -10t-28 -2.5h-10
q-35 0 -73 10t-73 31.5t-63.5 55.5t-43.5 83q-17 -46 -39.5 -90.5t-48.5 -89.5h-309q-17 0 -30 2t-22 9.5t-14 21.5t-5 38q0 43 20 56t51 13h292q10 42 15.5 78t5.5 70q0 33 -5 62t-15 58.5t-26 61.5t-37 71zM505 -304l-103 -102l-89 88l-89 -88l-102 102l102 103l89 -90
l89 90zM417 -509l-103 -102l-102 102l102 103z" />
    <glyph glyph-name="uni06D1.fina" unicode="&#x6d1;" horiz-adv-x="1458" 
d="M1422 0q-69 0 -118 12.5t-83 26.5q-72 -182 -227 -282t-393 -100q-161 0 -275 42.5t-186.5 111t-106 153.5t-33.5 170q0 57 13 107t32 87.5t40.5 59t39.5 21.5q11 0 18 -7q-10 -18 -18 -43t-14 -52t-9 -54.5t-3 -51.5q0 -89 37.5 -162t105.5 -125.5t163.5 -81.5
t212.5 -29q122 0 211.5 25t147.5 62.5t86 81.5t28 82q0 7 -3.5 20.5t-12.5 18.5q-21 12 -44 25t-42.5 26.5t-32 27t-12.5 25.5q0 33 9.5 66t25.5 57q106 -91 216.5 -135.5t207.5 -44.5h55q16 0 29.5 -2t22.5 -9.5t14 -21.5t5 -38q0 -22 -5.5 -35.5t-15 -21t-22.5 -10
t-28 -2.5h-36zM774 -602l-103 -102l-89 88l-89 -88l-102 102l102 103l89 -90l89 90zM686 -808l-103 -102l-102 102l102 103z" />
    <glyph glyph-name="uni06D5.fina" unicode="&#x6d5;" horiz-adv-x="751" 
d="M664 0q-30 0 -60 7t-58.5 24.5t-54 48.5t-46.5 79q-34 -23 -86 -38.5t-124 -15.5q-44 0 -86 12.5t-75 38.5t-53.5 64.5t-20.5 91.5q0 56 28 100t71 79.5t94 63.5t97.5 52.5t82 47.5t46.5 47q2 5 6.5 15t8.5 22q1 6 19 10t39 6.5t39 3.5t19 1q-2 -24 -3.5 -68t-3 -94
t-2.5 -97t-1 -77q0 -86 7.5 -141t23 -87t38.5 -44t53 -12h89q16 0 29.5 -2t22.5 -9.5t14 -21.5t5 -38q0 -22 -5.5 -35.5t-15 -21t-22.5 -10t-28 -2.5h-87zM425 302q-2 30 -4 66t-2 70v34.5t0.5 51.5t1 50.5t1.5 30.5q-13 -20 -40.5 -38t-60.5 -36t-68 -38t-64 -44
t-47.5 -53.5t-18.5 -67.5q0 -114 183 -114q34 0 69 4.5t56 13.5z" />
    <glyph glyph-name="uni06EE.fina" unicode="&#x6ee;" horiz-adv-x="914" 
d="M272 562q-11 5 -18.5 11.5t-7.5 13.5l2 6l75 111l3 1q95 -48 158 -95t102 -98.5t57.5 -110.5t23.5 -130q2 -30 14 -54t38.5 -41t68.5 -26.5t103 -9.5h23q16 0 29.5 -2t22.5 -9.5t14 -21.5t5 -38q0 -22 -5.5 -35.5t-15 -21t-22.5 -10t-28 -2.5h-11q-53 0 -94.5 15
t-71.5 37.5t-49.5 48.5t-28.5 49q-5 -37 -11.5 -74.5t-14.5 -75.5h-563v140h491q17 70 17 115q0 47 -17 83.5t-53.5 71t-95 70.5t-140.5 82zM169 989q38 49 69 96.5t51 86.5h41q20 -39 51 -86.5t69 -96.5q28 -37 59 -73l-93 -48h-1q-75 134 -107 195q-29 -60 -105 -195
l-94 48q31 37 60 73z" />
    <glyph glyph-name="uni06EF.fina" unicode="&#x6ef;" horiz-adv-x="847" 
d="M370 562q-11 20 -11 30q0 5 4 8l126 69l3 -1q34 -65 54 -120t32.5 -105t19.5 -96t15 -92q5 -32 18 -54t37.5 -35.5t62 -19.5t92.5 -6h24q16 0 29.5 -2t22.5 -9.5t14 -21.5t5 -38q0 -22 -5.5 -35.5t-15 -21t-22.5 -10t-28 -2.5h-12q-79 0 -139 37t-95 95
q-9 -49 -25.5 -103t-41 -106.5t-57.5 -99.5t-75.5 -83t-95 -57t-115.5 -21q-34 0 -66 10.5t-57.5 30.5t-43.5 47.5t-24 62.5q87 -22 161 -22q94 0 156.5 34t99.5 89.5t52 127.5t15 148q0 83 -26 171t-88 201zM269 983q38 49 69 96.5t51 86.5h41q20 -39 51 -86.5t69 -96.5
q28 -37 59 -73l-93 -48h-1q-75 134 -107 195q-29 -60 -105 -195l-94 48q31 37 60 73z" />
    <glyph glyph-name="uni06FA.init" unicode="&#x6fa;" horiz-adv-x="1512" 
d="M1161 562q-12 16 -12 29q0 6 5 9l126 69l3 -1q6 -12 13.5 -28t16 -34t16.5 -35.5t15 -32.5q26 -60 47 -119.5t21 -122.5q0 -65 -29 -137q-16 -39 -36 -78t-44 -81h-145q-35 0 -73 10t-73 31.5t-63.5 55.5t-43.5 83q-17 -46 -39.5 -90.5t-48.5 -89.5h-129q-35 0 -73 10
t-73 31.5t-63.5 55.5t-43.5 83q-17 -46 -39.5 -90.5t-48.5 -89.5h-347q-17 0 -30 2t-22 9.5t-14 21.5t-5 38q0 43 20 56t51 13h330q10 42 15.5 78t5.5 70q0 52 -15.5 90t-31.5 66q-10 17 -10 28q0 8 7 12l120 66l3 -1q12 -26 28 -70.5t16 -100.5q0 -39 -6 -81
q-1 -5 -1.5 -11t-0.5 -11q0 -27 10 -51.5t35 -43t66.5 -29.5t104.5 -11h124q10 42 15.5 78t5.5 70q0 29 -5 57.5t-13 54.5t-18 49t-20 41q-10 17 -10 29q0 6 6 11l123 67l3 -1q10 -17 19.5 -41t16.5 -52.5t11 -60t4 -64.5q0 -39 -6 -81q-1 -5 -1.5 -11t-0.5 -11
q0 -27 10 -51.5t35 -43t66.5 -29.5t104.5 -11h153q10 41 10 87q0 40 -9.5 76.5t-28 75.5t-46 83t-64.5 100zM1034 968l-103 -102l-89 88l-89 -88l-102 102l102 103l89 -90l89 90zM946 1195l-103 -102l-102 102l102 103zM937 -309l-103 -102l-102 102l102 103z" />
    <glyph glyph-name="uni06FA.medi" unicode="&#x6fa;" horiz-adv-x="1635" 
d="M1228 505q-11 20 -11 30q0 3 2 5.5t10 7.5l118 64l3 -1q28 -55 43 -111t15 -122q0 -39 -6 -81q-1 -5 -1.5 -11t-0.5 -11q0 -27 10 -51.5t35 -43t66.5 -29.5t104.5 -11h19q16 0 29.5 -2t22.5 -9.5t14 -21.5t5 -38q0 -22 -5.5 -35.5t-15 -21t-22.5 -10t-28 -2.5h-7
q-35 0 -73 10t-73 31.5t-63.5 55.5t-43.5 83q-17 -46 -39.5 -90.5t-48.5 -89.5h-129q-35 0 -73 10t-73 31.5t-63.5 55.5t-43.5 83q-17 -46 -39.5 -90.5t-48.5 -89.5h-129q-35 0 -73 10t-73 31.5t-63.5 55.5t-43.5 83q-17 -46 -39.5 -90.5t-48.5 -89.5h-347q-17 0 -30 2
t-22 9.5t-14 21.5t-5 38q0 43 20 56t51 13h330q10 42 15.5 78t5.5 70q0 52 -16 88t-33 67q-10 16 -10 29q0 8 6 11l123 67l3 -1q12 -26 28 -70.5t16 -100.5q0 -39 -6 -81q-1 -5 -1.5 -11t-0.5 -11q0 -27 10 -51.5t35 -43t66.5 -29.5t104.5 -11h124q10 42 15.5 78t5.5 70
q0 58 -16 105t-40 97q-4 9 -7 16.5t-3 13.5t5 9l124 68l3 -1q10 -17 19.5 -41t16.5 -52.5t11 -60t4 -64.5q0 -39 -6 -81q-1 -5 -1.5 -11t-0.5 -11q0 -27 10 -51.5t35 -43t66.5 -29.5t104.5 -11h124q10 42 15.5 78t5.5 70q0 29 -3.5 55t-11 51.5t-19.5 52.5t-29 58zM1046 968
l-103 -102l-89 88l-89 -88l-102 102l102 103l89 -90l89 90zM958 1195l-103 -102l-102 102l102 103zM947 -309l-103 -102l-102 102l102 103z" />
    <glyph glyph-name="uni06FA.fina" unicode="&#x6fa;" horiz-adv-x="2127" 
d="M722 492q-9 10 -9 18q0 7 8 12l117 75l3 -1q58 -84 87 -175.5t29 -176.5q0 -21 10 -40t34 -33t65 -22.5t103 -8.5h124q10 42 15.5 78t5.5 70q0 58 -16.5 105.5t-39.5 96.5q-4 9 -8 17t-4 13t5 8l126 69l3 -1q10 -17 19.5 -41t16.5 -52.5t11 -60t4 -64.5q0 -39 -6 -81
q-1 -5 -1.5 -11t-0.5 -11q0 -27 10 -51.5t35 -43t66.5 -29.5t104.5 -11h124q10 42 15.5 78t5.5 70q0 58 -16 108t-47 109q-4 8 -7 15t-3 13q0 8 7 12l122 67l3 -1q28 -55 43 -111t15 -122q0 -39 -6 -81q-1 -5 -1.5 -11t-0.5 -11q0 -27 10 -51.5t35 -43t66.5 -29.5t104.5 -11
h18q16 0 29.5 -2t22.5 -9.5t14 -21.5t5 -38q0 -22 -5.5 -35.5t-15 -21t-22.5 -10t-28 -2.5h-6q-35 0 -73 10t-73 31.5t-63.5 55.5t-43.5 83q-17 -46 -39.5 -90.5t-48.5 -89.5h-129q-35 0 -73 10t-73 31.5t-63.5 55.5t-43.5 83q-17 -46 -39.5 -90.5t-48.5 -89.5h-129
q-31 0 -64.5 7.5t-64.5 23.5t-58.5 42t-46.5 63q-15 -95 -56 -174.5t-103 -136.5t-143 -88.5t-176 -31.5q-109 0 -196 32t-147.5 88.5t-93 134t-32.5 169.5q0 59 14.5 113t35.5 95t44 65.5t40 24.5q9 0 17 -8q-9 -14 -17.5 -38.5t-15.5 -53t-11 -57.5t-4 -52
q0 -89 29 -156.5t80 -113.5t120.5 -69t150.5 -23q94 0 165 25t117.5 65.5t70 91.5t23.5 102q0 52 -13 104.5t-33.5 99.5t-44.5 85.5t-46 62.5zM1479 968l-103 -102l-89 88l-89 -88l-102 102l102 103l89 -90l89 90zM1391 1195l-103 -102l-102 102l102 103zM1377 -309
l-103 -102l-102 102l102 103z" />
    <glyph glyph-name="uni06FB.init" unicode="&#x6fb;" horiz-adv-x="1529" 
d="M1287 140q13 29 18 65.5t5 72.5q0 66 -11 112t-26 62q-14 15 -33 25t-39 16.5t-39.5 9t-34.5 2.5q-67 0 -126.5 -24t-118.5 -70.5t-120.5 -114.5t-132.5 -156h658zM191 472q-5 9 -8.5 17t-3.5 13t5 8l126 69l3 -1q21 -48 32.5 -97t11.5 -106q0 -39 -6 -81q-1 -5 -1.5 -11
t-0.5 -11q0 -27 6 -51t20 -42t37.5 -28.5t58.5 -10.5h14q66 90 139.5 178t152 158.5t159 114t159.5 43.5q81 0 149.5 -39.5t119.5 -127.5q35 -61 50 -110t15 -94q0 -23 -4 -57t-10 -71t-13.5 -72.5t-14.5 -62.5h-901q-70 0 -108 40.5t-54 136.5q-17 -46 -39.5 -89t-48.5 -88
h-236q-17 0 -30 2t-22 9.5t-14 21.5t-5 38q0 43 20 56t51 13h219q10 42 15.5 76.5t5.5 68.5q0 52 -12 93.5t-37 93.5zM1185 968l-103 -102l-102 102l102 103zM1177 -309l-103 -102l-102 102l102 103z" />
    <glyph glyph-name="uni06FB.medi" unicode="&#x6fb;" horiz-adv-x="1660" 
d="M1280 140q13 29 18 65.5t5 72.5q0 66 -10.5 112.5t-26.5 61.5q-26 26 -63.5 39.5t-82.5 13.5q-66 0 -125 -24t-118 -70.5t-121 -114.5t-134 -156h658zM184 472q-5 9 -8.5 17t-3.5 13t5 8l126 69l3 -1q21 -48 32.5 -97t11.5 -106q0 -39 -6 -81q-1 -5 -1.5 -11t-0.5 -11
q0 -27 6.5 -51t21 -42t38.5 -28.5t59 -10.5h11q41 56 87 114t96 113t103 103.5t107.5 85t109 57.5t107.5 21q30 0 64 -6.5t69 -25t69.5 -51t66.5 -84.5q38 -63 51.5 -111.5t13.5 -92.5q0 -36 17 -59.5t46 -37.5t68 -20t83 -6h24q16 0 29.5 -2t22.5 -9.5t14 -21.5t5 -38
q0 -22 -5.5 -35.5t-15 -21t-22.5 -10t-28 -2.5h-13q-48 0 -88.5 14t-71 35.5t-50.5 46.5t-27 48q-6 -39 -14 -77t-16 -67h-901q-70 0 -108 40.5t-54 136.5q-17 -46 -39.5 -89t-48.5 -88h-229q-17 0 -30 2t-22 9.5t-14 21.5t-5 38q0 43 20 56t51 13h212q10 42 15.5 76.5
t5.5 68.5q0 52 -13 97t-36 90zM1195 968l-103 -102l-102 102l102 103zM1177 -309l-103 -102l-102 102l102 103z" />
    <glyph glyph-name="uni06FB.fina" unicode="&#x6fb;" horiz-adv-x="2127" 
d="M722 492q-9 12 -9 18q0 7 8 12l117 75l3 -1q60 -78 87.5 -169.5t27.5 -185.5q0 -26 -2 -51t-6 -50q35 49 78.5 104.5t93 110.5t103.5 105.5t110 89t113 61.5t112 23q30 0 64 -6.5t69 -25t69.5 -51t66.5 -84.5q38 -63 51.5 -111.5t13.5 -92.5q0 -36 17 -59.5t46 -37.5
t68 -20t83 -6h21q16 0 29.5 -2t22.5 -9.5t14 -21.5t5 -38q0 -22 -5.5 -35.5t-15 -21t-22.5 -10t-28 -2.5h-10q-48 0 -88.5 14t-71 35.5t-50.5 46.5t-27 48q-6 -39 -14 -77t-16 -67h-942q-27 -63 -68.5 -117t-97 -93.5t-124 -62t-149.5 -22.5q-110 0 -197 32t-147.5 89
t-92.5 134.5t-32 168.5q0 60 14.5 114t35.5 95t43.5 65t39.5 24q10 0 18 -8q-9 -14 -17.5 -38.5t-15.5 -53t-11 -57.5t-4 -52q0 -84 27.5 -151.5t77.5 -114t120 -71.5t155 -25q93 0 163.5 24.5t117.5 64.5t71 91t24 104q0 94 -35.5 181t-101.5 171zM1750 140q13 29 18 65.5
t5 72.5q0 66 -10.5 112t-26.5 62q-25 25 -63 39t-83 14q-65 0 -125.5 -24.5t-120.5 -71.5t-122 -114.5t-130 -154.5h658zM1653 968l-103 -102l-102 102l102 103zM1627 -309l-103 -102l-102 102l102 103z" />
    <glyph glyph-name="uni06FC.init" unicode="&#x6fc;" horiz-adv-x="883" 
d="M182 140q-26 35 -39.5 76.5t-13.5 79.5q0 58 19.5 110.5t52.5 97.5t75.5 81t88 61.5t91 39t83.5 13.5q45 0 75 -6.5t47 -17.5t24 -26.5t7 -34.5t-5 -40t-12 -44q-17 8 -42 15t-52 12.5t-53 9t-44 3.5q-118 0 -174 -52t-56 -149q0 -55 22.5 -97.5t59 -72t84 -44.5
t97.5 -15h263l3 -2q-9 -48 -16.5 -75.5t-14.5 -41.5t-13 -17.5t-12 -3.5h-727q-17 0 -30 2t-22 9.5t-14 21.5t-5 38q0 43 20 56t51 13h182zM607 968l-103 -102l-102 102l102 103zM576 -301l-103 -102l-102 102l102 103z" />
    <glyph glyph-name="uni06FC.medi" unicode="&#x6fc;" horiz-adv-x="882" 
d="M771 0q-72 0 -132 12.5t-105.5 29.5t-75.5 34.5t-43 27.5q-69 -45 -157.5 -74.5t-203.5 -29.5h-54q-17 0 -30 2t-22 9.5t-14 21.5t-5 38q0 43 20 56t51 13h124q21 0 47 2t52.5 6t51 11t42.5 17q-15 12 -36 33.5t-43.5 48t-44.5 55.5t-39.5 55t-28 47.5t-10.5 32.5
q0 7 4 24.5t11 38t16.5 40t21.5 30.5q45 42 125.5 68.5t194.5 26.5q61 0 109 -13.5t81 -35t50.5 -48t17.5 -53.5q0 -23 -15 -64t-42 -88.5t-65 -96t-84 -87.5q15 -10 41 -19t57 -16t65 -11t64 -4h115q16 0 29.5 -2t22.5 -9.5t14 -21.5t5 -38q0 -22 -5.5 -35.5t-15 -21
t-22.5 -10t-28 -2.5h-111zM222 492q18 -33 39 -67t47.5 -67.5t59.5 -65t75 -58.5q42 25 77.5 56.5t62 62t41 56.5t14.5 39q0 15 -9.5 33t-32 33t-59 25t-90.5 10q-55 0 -115.5 -13.5t-109.5 -43.5zM542 968l-103 -102l-102 102l102 103zM526 -301l-103 -102l-102 102
l102 103z" />
    <glyph glyph-name="uni06FC.fina" unicode="&#x6fc;" horiz-adv-x="833" 
d="M746 0q-72 0 -132 12.5t-105.5 29.5t-75.5 34t-43 27q-70 -38 -128 -81t-100 -86.5t-65.5 -86t-23.5 -79.5q0 -57 29 -103.5t78.5 -79.5t114.5 -51t138 -18q22 0 58.5 2t76 6.5t76 11.5t58.5 16q-6 -34 -29 -65t-61.5 -55t-90.5 -38t-115 -14q-105 0 -181.5 30.5
t-126.5 79.5t-74 111t-24 126q0 68 23 132t62.5 121t93 106t113.5 87q-15 12 -36 33.5t-43.5 48t-44.5 55.5t-39.5 55t-28 47.5t-10.5 32.5q0 7 4 24.5t11 38t16.5 40t21.5 30.5q45 42 125.5 68.5t194.5 26.5q61 0 109 -13.5t81 -35t50.5 -48t17.5 -53.5q0 -23 -15 -64
t-42 -88.5t-65 -96t-84 -87.5q15 -10 41 -19t57 -15.5t65 -10.5t64 -4h91q16 0 29.5 -2t22.5 -9.5t14 -21.5t5 -38q0 -22 -5.5 -35.5t-15 -21t-22.5 -10t-28 -2.5h-87zM197 491q18 -33 39 -67t47.5 -67.5t59.5 -65t75 -58.5q42 25 77.5 56.5t62 62t41 56.5t14.5 39
q0 15 -9.5 33t-32 33t-59 25t-90.5 10q-55 0 -115.5 -13.5t-109.5 -43.5zM514 968l-103 -102l-102 102l102 103zM515 -217l-103 -102l-102 102l102 103z" />
    <glyph glyph-name="uni06FF.init" unicode="&#x6ff;" horiz-adv-x="1075" 
d="M0 0q-17 0 -30 2t-22 9.5t-14 21.5t-5 38q0 43 20 56t51 13h167q-34 84 -34 158q0 60 26 115.5t73 108t114 103t148 100.5q39 -8 88 -23t99.5 -39t99 -58t86.5 -80t61 -105t23 -132q0 -60 -19 -136t-57 -152h-875zM318 140q37 0 70 16.5t58 42.5t40 58.5t15 65.5
q0 32 -13.5 63t-35 56t-48 40t-52.5 15q-16 0 -36.5 -16t-38.5 -42t-30.5 -59.5t-12.5 -69.5q0 -19 4 -42t12.5 -46t20.5 -44.5t28 -37.5h19zM833 140q5 21 8 49.5t3 47.5q0 89 -38 155.5t-96.5 110.5t-128 66t-132.5 22q43 -33 70.5 -71t44 -75.5t23 -72t6.5 -59.5
q0 -49 -13 -92.5t-27 -80.5h280zM356 918q38 49 69 96.5t51 86.5h41q20 -39 51 -86.5t69 -96.5q28 -37 59 -73l-93 -48h-1q-75 134 -107 195q-29 -60 -105 -195l-94 48q31 37 60 73z" />
    <glyph glyph-name="uni06FF.medi" unicode="&#x6ff;" horiz-adv-x="834" 
d="M620 0q32 -48 46 -95.5t14 -87.5q0 -54 -20 -102t-52 -84.5t-71.5 -57.5t-79.5 -21q-48 0 -102 22t-100 74t-77 138t-32 214h-146q-17 0 -30 2t-22 9.5t-14 21.5t-5 38q0 43 20 56t51 13h161q12 108 50.5 200t88 158.5t102 104t92.5 37.5q39 0 72.5 -21t58.5 -55.5
t39 -79.5t14 -94q0 -69 -26 -132.5t-64 -117.5h246q16 0 29.5 -2t22.5 -9.5t14 -21.5t5 -38q0 -22 -5.5 -35.5t-15 -21t-22.5 -10t-28 -2.5h-214zM275 134q4 0 13.5 -0.5t20 -0.5t20 -0.5t14.5 -0.5q61 0 107.5 22t78.5 55t48.5 70.5t16.5 69.5q0 27 -8 54t-21.5 48.5
t-31.5 35t-39 13.5q-31 0 -66.5 -25t-67 -72t-55 -115t-30.5 -154zM264 1q0 -82 19 -143t51 -101.5t73.5 -60.5t87.5 -20q48 0 76.5 26.5t28.5 61.5q0 51 -16 95.5t-44.5 77t-66.5 51.5t-81 19q-5 0 -23 -0.5t-39.5 -1.5t-40.5 -2t-25 -2zM366 868q38 49 69 96.5t51 86.5h41
q20 -39 51 -86.5t69 -96.5q28 -37 59 -73l-93 -48h-1q-75 134 -107 195q-29 -60 -105 -195l-94 48q31 37 60 73z" />
    </font>
</defs>
</svg>
