<?xml version="1.0" standalone="no"?>
<!DOCTYPE svg PUBLIC "-//W3C//DTD SVG 1.1//EN" "http://www.w3.org/Graphics/SVG/1.1/DTD/svg11.dtd" >
<svg xmlns="http://www.w3.org/2000/svg" xmlns:xlink="http://www.w3.org/1999/xlink" version="1.1">
<metadata>
Created by FontForge 20170731 at Tue Oct 18 05:13:25 2016
 By Aleksey,,,
(c)  2014 Bahij Virtual Academy. All rights reserved.
</metadata>
<defs>
<font id="BahijKoufiya-Bold" horiz-adv-x="1024" >
  <font-face 
    font-family="Bahij Koufiya"
    font-weight="700"
    font-stretch="normal"
    units-per-em="2048"
    panose-1="2 4 7 3 6 2 1 2 2 3"
    ascent="1368"
    descent="-680"
    x-height="823"
    cap-height="1186"
    bbox="-318 -1046 5092 2262"
    underline-thickness="50"
    underline-position="-175"
    unicode-range="U+0020-FEFC"
  />
<missing-glyph horiz-adv-x="728" 
d="M0 0v1020h728v-1020h-728zM117 947l247 -372l248 372h-495zM655 881l-247 -371l247 -372v743zM612 73l-248 371l-247 -371h495zM73 138l247 372l-247 371v-743z" />
    <glyph glyph-name="uniFB01" unicode="fi" horiz-adv-x="1121" 
d="M393 727v-567q0 -49 17 -71.5t59 -32.5q17 -4 24 -12t7 -17q0 -5 -1 -12.5t-4 -14.5h-463q0 2 -0.5 5t-0.5 10q0 17 8 28t21 14q32 7 50 14.5t26.5 21t10.5 36t2 59.5v539h-129l21 96h108v71q0 11 1.5 21.5t3.5 21.5q12 75 54.5 150t105 134.5t140 97t159.5 37.5
q52 0 97.5 -6t79 -19t52.5 -34.5t19 -51.5q0 -38 -27 -98q-27 9 -60 15.5t-68 11t-70 7t-65 2.5q-56 0 -90.5 -11.5t-54 -36.5t-26.5 -64.5t-7 -95.5v-152h551v-663q0 -25 4 -41.5t16 -28.5t33.5 -19.5t57.5 -14.5q17 -3 24 -11.5t7 -17.5q0 -5 -1 -12.5t-4 -14.5h-465
q0 2 -0.5 5t-0.5 10q0 18 8.5 29t20.5 13q16 3 27 10.5t17.5 22.5t9 38.5t2.5 59.5v539h-307z" />
    <glyph glyph-name="uniFB02" unicode="fl" horiz-adv-x="1109" 
d="M688 1181q-9 3 -29.5 5.5t-43.5 5t-45.5 3.5t-37.5 1q-42 0 -69 -13.5t-42.5 -41t-22 -69t-6.5 -97.5v-152h296v358zM932 160q0 -25 4 -41.5t16 -28.5t33.5 -19.5t57.5 -14.5q17 -3 24 -11.5t7 -17.5q0 -5 -1 -12.5t-4 -14.5h-465q0 2 -0.5 7.5t-0.5 12.5q0 18 8.5 26.5
t20.5 10.5q16 3 27 10.5t17.5 22.5t9 38.5t2.5 59.5v539h-296v-567q0 -49 17 -71.5t59 -32.5q17 -4 24 -12t7 -17q0 -5 -1 -12.5t-4 -14.5h-462q0 2 -0.5 7.5t-0.5 12.5q0 17 8 25.5t21 11.5q32 7 50 14.5t26.5 21t10.5 36t2 59.5v539h-129l21 96h108v71q0 11 1.5 21.5
t3.5 21.5q8 50 29.5 100.5t54 97t73 87t86 70.5t95 47t98.5 17q39 0 85.5 -5t93 -14t89 -20.5t74.5 -24.5v-1132z" />
    <glyph glyph-name="uniFC31" unicode="&#xfed3;&#xfef0;" horiz-adv-x="2360" arabic-form="isolated" 
d="M2083 208q-2 115 -26.5 212t-75.5 172h-17q-56 0 -92.5 -14t-58 -37t-30 -51.5t-8.5 -58.5q0 -45 21 -85.5t61 -71t97 -48.5t129 -18zM1390 0q-66 0 -116 12.5t-85 27.5q-27 -69 -78 -137.5t-127.5 -123t-179.5 -88.5t-234 -34q-147 0 -254.5 41.5t-177.5 109.5t-104 156
t-34 180q0 58 13 110t32.5 91t41 61.5t39.5 22.5q5 0 12.5 -3t12.5 -13q-22 -38 -35 -88t-13 -95q0 -73 36 -132.5t102.5 -102t161 -66t210.5 -23.5q96 0 178 9t142.5 26.5t95 44t34.5 61.5q0 23 -11.5 36t-31.5 24q-31 17 -52 32t-34 30.5t-18.5 33t-5.5 40.5q0 42 12 84
t26 64q103 -89 213.5 -133t209.5 -44h321q-22 32 -39.5 80.5t-17.5 102.5q0 41 14.5 85t41 85.5t65 79t86 65.5t104 44.5t119.5 16.5h15.5t16.5 -1q22 -26 45 -67.5t41.5 -92t30.5 -108.5t12 -117q0 -79 -20 -178.5t-74 -208.5h-742zM2047 986l-139 -138l-138 138l138 139z
" />
    <glyph glyph-name="uniFC32" unicode="&#xfed3;&#xfef2;" horiz-adv-x="2360" arabic-form="isolated" 
d="M829 -672l-134 -133l-116 115l-116 -115l-133 133l133 134l116 -117l116 117zM2083 208q-2 115 -26.5 212t-75.5 172h-17q-56 0 -92.5 -14t-58 -37t-30 -51.5t-8.5 -58.5q0 -45 21 -85.5t61 -71t97 -48.5t129 -18zM1390 0q-66 0 -116 12.5t-85 27.5q-27 -69 -78 -137.5
t-127.5 -123t-179.5 -88.5t-234 -34q-147 0 -254.5 41.5t-177.5 109.5t-104 156t-34 180q0 58 13 110t32.5 91t41 61.5t39.5 22.5q5 0 12.5 -3t12.5 -13q-22 -38 -35 -88t-13 -95q0 -73 36 -132.5t102.5 -102t161 -66t210.5 -23.5q96 0 178 9t142.5 26.5t95 44t34.5 61.5
q0 23 -11.5 36t-31.5 24q-31 17 -52 32t-34 30.5t-18.5 33t-5.5 40.5q0 42 12 84t26 64q103 -89 213.5 -133t209.5 -44h321q-22 32 -39.5 80.5t-17.5 102.5q0 41 14.5 85t41 85.5t65 79t86 65.5t104 44.5t119.5 16.5h15.5t16.5 -1q22 -26 45 -67.5t41.5 -92t30.5 -108.5
t12 -117q0 -79 -20 -178.5t-74 -208.5h-742zM2047 986l-139 -138l-138 138l138 139z" />
    <glyph glyph-name="uniFC43" unicode="&#xfedf;&#xfef0;" horiz-adv-x="2013" arabic-form="isolated" 
d="M1390 0q-66 0 -116 12.5t-85 27.5q-27 -69 -78 -137.5t-127.5 -123t-179.5 -88.5t-234 -34q-147 0 -254.5 41.5t-177.5 109.5t-104 156t-34 180q0 58 13 110t32.5 91t41 61.5t39.5 22.5q5 0 12.5 -3t12.5 -13q-22 -38 -35 -88t-13 -95q0 -73 36 -132.5t102.5 -102
t161 -66t210.5 -23.5q96 0 178 9t142.5 26.5t95 44t34.5 61.5q0 23 -11.5 36t-31.5 24q-31 17 -52 32t-34 30.5t-18.5 33t-5.5 40.5q0 42 12 84t26 64q103 -89 213.5 -133t209.5 -44h304v1081q0 19 4 31t19 17l162 37l3 -2v-1378h-473z" />
    <glyph glyph-name="uniFC44" unicode="&#xfedf;&#xfef2;" horiz-adv-x="2013" arabic-form="isolated" 
d="M829 -672l-134 -133l-116 115l-116 -115l-133 133l133 134l116 -117l116 117zM1390 0q-66 0 -116 12.5t-85 27.5q-27 -69 -78 -137.5t-127.5 -123t-179.5 -88.5t-234 -34q-147 0 -254.5 41.5t-177.5 109.5t-104 156t-34 180q0 58 13 110t32.5 91t41 61.5t39.5 22.5
q5 0 12.5 -3t12.5 -13q-22 -38 -35 -88t-13 -95q0 -73 36 -132.5t102.5 -102t161 -66t210.5 -23.5q96 0 178 9t142.5 26.5t95 44t34.5 61.5q0 23 -11.5 36t-31.5 24q-31 17 -52 32t-34 30.5t-18.5 33t-5.5 40.5q0 42 12 84t26 64q103 -89 213.5 -133t209.5 -44h304v1081
q0 19 4 31t19 17l162 37l3 -2v-1378h-473z" />
    <glyph glyph-name="uniFC64" unicode="&#xfe8c;&#xfeae;" horiz-adv-x="1593" arabic-form="final" 
d="M867 0q-72 0 -132 43.5t-98 128.5q-6 -59 -23 -120t-43.5 -118.5t-63 -108t-82 -88t-98.5 -59.5t-114 -22q-52 0 -91.5 18t-66 47.5t-40.5 67.5t-15 77q51 -10 96 -14.5t86 -4.5q82 0 141 18.5t96 53.5t54.5 85t17.5 112q0 57 -13 115t-35 116t-51.5 114t-62.5 109
q-9 14 -14 25.5t-5 22.5q0 20 12 26l180 93h4q63 -120 95 -230.5t38 -222.5q5 -15 19 -27.5t40 -22t64.5 -15t92.5 -5.5h371q0 32 -6.5 61.5t-24.5 66.5t-49.5 86t-82.5 121q-26 38 -26 60q0 14 5 21.5t16 12.5l164 79h4q38 -78 62.5 -138.5t39 -109.5t20.5 -89.5t6 -78.5
q0 -20 11.5 -36.5t37 -29t67.5 -19.5t104 -7h19q42 0 56 -26.5t14 -77.5q0 -54 -15 -82t-55 -28h-7q-40 0 -76.5 15t-68 42.5t-57.5 66t-44 86.5q-17 -55 -44.5 -111t-53.5 -99h-375zM924 770l61 147l89 11q-21 20 -35 51.5t-14 65.5q0 42 22 84t56.5 75.5t77.5 55t85 21.5
q25 0 63 -11.5t71 -33.5l-79 -119q-46 29 -102 29q-42 0 -66 -21t-24 -50q0 -24 16 -44.5t42.5 -35.5t61.5 -23.5t73 -8.5q16 0 32.5 0.5t33.5 5.5l-66 -148z" />
    <glyph glyph-name="uniFC67" unicode="&#xfe8c;&#xfee6;" horiz-adv-x="1902" arabic-form="final" 
d="M609 785l-139 -138l-138 138l138 139zM1233 770l61 147l89 11q-21 20 -35 51.5t-14 65.5q0 42 22 84t56.5 75.5t77.5 55t85 21.5q25 0 63 -11.5t71 -33.5l-79 -119q-46 29 -102 29q-42 0 -66 -21t-24 -50q0 -24 16 -44.5t42.5 -35.5t61.5 -23.5t73 -8.5q16 0 32.5 0.5
t33.5 5.5l-66 -148zM1171 0q-75 0 -136 46.5t-98 131.5q-12 -81 -51.5 -165t-103.5 -152.5t-151 -112t-193 -43.5q-101 0 -182 29.5t-138 85.5t-87.5 135.5t-30.5 180.5q0 61 15 117t36.5 99t45 69t40.5 26q4 0 9.5 -4t12.5 -9q-10 -15 -18.5 -41t-14.5 -55t-9.5 -58.5
t-3.5 -51.5q0 -67 28 -123.5t78.5 -98t121 -64.5t156.5 -23q91 0 150 22t93 56.5t47 76.5t13 82q0 45 -15.5 90.5t-40.5 89t-57 84t-65 75.5l199 118l5 -1q52 -75 81 -159t34 -163q4 -16 17 -29.5t38.5 -24t65.5 -16.5t97 -6h376q0 32 -6.5 61.5t-24.5 66.5t-49.5 86
t-82.5 121q-26 38 -26 60q0 14 5 21.5t16 12.5l164 79h4q38 -78 62.5 -138.5t39 -109.5t20.5 -89.5t6 -78.5q0 -20 11.5 -36.5t37 -29t67.5 -19.5t104 -7h19q42 0 56 -26.5t14 -77.5q0 -54 -15 -82t-55 -28h-7q-40 0 -76.5 15t-68 42.5t-57.5 66t-44 86.5
q-17 -55 -44.5 -111t-53.5 -99h-380z" />
    <glyph glyph-name="uniFC6A" unicode="&#xfe92;&#xfeae;" horiz-adv-x="1593" arabic-form="final" 
d="M867 0q-72 0 -132 43.5t-98 128.5q-6 -59 -23 -120t-43.5 -118.5t-63 -108t-82 -88t-98.5 -59.5t-114 -22q-52 0 -91.5 18t-66 47.5t-40.5 67.5t-15 77q51 -10 96 -14.5t86 -4.5q82 0 141 18.5t96 53.5t54.5 85t17.5 112q0 57 -13 115t-35 116t-51.5 114t-62.5 109
q-9 14 -14 25.5t-5 22.5q0 20 12 26l180 93h4q63 -120 95 -230.5t38 -222.5q5 -15 19 -27.5t40 -22t64.5 -15t92.5 -5.5h371q0 32 -6.5 61.5t-24.5 66.5t-49.5 86t-82.5 121q-26 38 -26 60q0 14 5 21.5t16 12.5l164 79h4q38 -78 62.5 -138.5t39 -109.5t20.5 -89.5t6 -78.5
q0 -20 11.5 -36.5t37 -29t67.5 -19.5t104 -7h19q42 0 56 -26.5t14 -77.5q0 -54 -15 -82t-55 -28h-7q-40 0 -76.5 15t-68 42.5t-57.5 66t-44 86.5q-17 -55 -44.5 -111t-53.5 -99h-375zM1380 -345l-139 -138l-138 138l138 139z" />
    <glyph glyph-name="uniFC70" unicode="&#xfe98;&#xfeae;" horiz-adv-x="1593" arabic-form="final" 
d="M1386 947l-134 -133l-116 115l-116 -115l-133 133l133 134l116 -117l116 117zM867 0q-72 0 -132 43.5t-98 128.5q-6 -59 -23 -120t-43.5 -118.5t-63 -108t-82 -88t-98.5 -59.5t-114 -22q-52 0 -91.5 18t-66 47.5t-40.5 67.5t-15 77q51 -10 96 -14.5t86 -4.5
q82 0 141 18.5t96 53.5t54.5 85t17.5 112q0 57 -13 115t-35 116t-51.5 114t-62.5 109q-9 14 -14 25.5t-5 22.5q0 20 12 26l180 93h4q63 -120 95 -230.5t38 -222.5q5 -15 19 -27.5t40 -22t64.5 -15t92.5 -5.5h371q0 32 -6.5 61.5t-24.5 66.5t-49.5 86t-82.5 121
q-26 38 -26 60q0 14 5 21.5t16 12.5l164 79h4q38 -78 62.5 -138.5t39 -109.5t20.5 -89.5t6 -78.5q0 -20 11.5 -36.5t37 -29t67.5 -19.5t104 -7h19q42 0 56 -26.5t14 -77.5q0 -54 -15 -82t-55 -28h-7q-40 0 -76.5 15t-68 42.5t-57.5 66t-44 86.5q-17 -55 -44.5 -111
t-53.5 -99h-375z" />
    <glyph glyph-name="uniFC86" unicode="&#xfee0;&#xfef0;" horiz-adv-x="2098" arabic-form="final" 
d="M1390 0q-66 0 -116 12.5t-85 27.5q-27 -69 -78 -137.5t-127.5 -123t-179.5 -88.5t-234 -34q-147 0 -254.5 41.5t-177.5 109.5t-104 156t-34 180q0 58 13 110t32.5 91t41 61.5t39.5 22.5q5 0 12.5 -3t12.5 -13q-22 -38 -35 -88t-13 -95q0 -73 36 -132.5t102.5 -102
t161 -66t210.5 -23.5q96 0 178 9t142.5 26.5t95 44t34.5 61.5q0 23 -11.5 36t-31.5 24q-31 17 -52 32t-34 30.5t-18.5 33t-5.5 40.5q0 42 12 84t26 64q103 -89 213.5 -133t209.5 -44h304v1081q0 19 4 31t19 17l162 37l3 -2v-1090q0 -31 42 -52.5t137 -21.5h56q42 0 56 -26.5
t14 -77.5q0 -54 -15 -82t-55 -28h-10q-50 0 -91.5 16.5t-74 43.5t-55 60.5t-32.5 66.5q-7 -21 -19 -48t-25.5 -53t-26 -49.5t-20.5 -36.5h-354z" />
    <glyph glyph-name="uniFC87" unicode="&#xfee0;&#xfef2;" horiz-adv-x="2098" arabic-form="final" 
d="M829 -672l-134 -133l-116 115l-116 -115l-133 133l133 134l116 -117l116 117zM1390 0q-66 0 -116 12.5t-85 27.5q-27 -69 -78 -137.5t-127.5 -123t-179.5 -88.5t-234 -34q-147 0 -254.5 41.5t-177.5 109.5t-104 156t-34 180q0 58 13 110t32.5 91t41 61.5t39.5 22.5
q5 0 12.5 -3t12.5 -13q-22 -38 -35 -88t-13 -95q0 -73 36 -132.5t102.5 -102t161 -66t210.5 -23.5q96 0 178 9t142.5 26.5t95 44t34.5 61.5q0 23 -11.5 36t-31.5 24q-31 17 -52 32t-34 30.5t-18.5 33t-5.5 40.5q0 42 12 84t26 64q103 -89 213.5 -133t209.5 -44h304v1081
q0 19 4 31t19 17l162 37l3 -2v-1090q0 -31 42 -52.5t137 -21.5h56q42 0 56 -26.5t14 -77.5q0 -54 -15 -82t-55 -28h-10q-50 0 -91.5 16.5t-74 43.5t-55 60.5t-32.5 66.5q-7 -21 -19 -48t-25.5 -53t-26 -49.5t-20.5 -36.5h-354z" />
    <glyph glyph-name="uniFCCC" unicode="&#xfedf;&#xfee4;" horiz-adv-x="1563" arabic-form="initial" 
d="M455 517q-20 0 -44 -10.5t-48.5 -38t-49 -75.5t-44.5 -122q52 -44 115 -59.5t134 -15.5q78 0 125.5 33t47.5 94q0 39 -21 74t-54.5 61.5t-76 42.5t-84.5 16zM887 0q-52 0 -93.5 36t-67.5 117q-17 -35 -39 -65t-50.5 -52.5t-64.5 -35t-80 -12.5q-48 0 -89 12t-74.5 31
t-60 43t-45.5 47q-25 -57 -62.5 -89t-86.5 -32h-74q-42 0 -56 26.5t-14 77.5q0 54 15 82t55 28h60q28 0 51 23t41.5 59t33 81t26.5 90q16 56 39.5 104t55.5 83.5t73.5 55.5t92.5 20q67 0 121.5 -29t95.5 -76.5t67.5 -108.5t37.5 -125q7 -45 16.5 -78t25.5 -55t40 -33t60 -11
h288v1081q0 19 4 31t19 17l162 37l3 -2v-1378h-526z" />
    <glyph glyph-name="uniFCFB" unicode="&#xfeb3;&#xfef0;" horiz-adv-x="3024" arabic-form="isolated" 
d="M1390 0q-66 0 -116 12.5t-85 27.5q-27 -69 -78 -137.5t-127.5 -123t-179.5 -88.5t-234 -34q-147 0 -254.5 41.5t-177.5 109.5t-104 156t-34 180q0 58 13 110t32.5 91t41 61.5t39.5 22.5q5 0 12.5 -3t12.5 -13q-22 -38 -35 -88t-13 -95q0 -73 36 -132.5t102.5 -102
t161 -66t210.5 -23.5q96 0 178 9t142.5 26.5t95 44t34.5 61.5q0 23 -11.5 36t-31.5 24q-31 17 -52 32t-34 30.5t-18.5 33t-5.5 40.5q0 42 12 84t26 64q103 -89 213.5 -133t209.5 -44h433q0 33 -8 62t-24.5 60.5t-43 67.5t-63.5 83q-27 33 -27 58q0 26 22 36l164 79h4
q26 -57 44 -105.5t29.5 -91.5t17 -81.5t5.5 -75.5v-8q0 -37 53 -60.5t165 -23.5h162q0 33 -7 61t-25 61.5t-48.5 77.5t-77.5 109q-27 36 -27 59q0 14 5.5 22t16.5 13l164 79h4q36 -75 58.5 -131.5t35 -101.5t17 -82.5t4.5 -74.5v-4q1 -18 12 -34t36.5 -28t67.5 -19t104 -7
h160q0 32 -7.5 61.5t-27 66.5t-52.5 86.5t-84 120.5q-26 38 -26 60q0 14 5 21.5t16 12.5l164 79h4q38 -78 62.5 -138.5t39 -109.5t20.5 -89.5t6 -78.5q0 -42 -9.5 -81t-25 -76.5t-36 -74.5t-41.5 -74h-156q-40 0 -76.5 15t-68 42t-57 65.5t-43.5 86.5q-16 -55 -43 -109
t-56 -100h-158q-75 0 -137 46.5t-110 149.5q-16 -54 -41.5 -102.5t-53.5 -93.5h-422z" />
    <glyph glyph-name="uniFCFC" unicode="&#xfeb3;&#xfef2;" horiz-adv-x="3024" arabic-form="isolated" 
d="M829 -672l-134 -133l-116 115l-116 -115l-133 133l133 134l116 -117l116 117zM1390 0q-66 0 -116 12.5t-85 27.5q-27 -69 -78 -137.5t-127.5 -123t-179.5 -88.5t-234 -34q-147 0 -254.5 41.5t-177.5 109.5t-104 156t-34 180q0 58 13 110t32.5 91t41 61.5t39.5 22.5
q5 0 12.5 -3t12.5 -13q-22 -38 -35 -88t-13 -95q0 -73 36 -132.5t102.5 -102t161 -66t210.5 -23.5q96 0 178 9t142.5 26.5t95 44t34.5 61.5q0 23 -11.5 36t-31.5 24q-31 17 -52 32t-34 30.5t-18.5 33t-5.5 40.5q0 42 12 84t26 64q103 -89 213.5 -133t209.5 -44h433
q0 33 -8 62t-24.5 60.5t-43 67.5t-63.5 83q-27 33 -27 58q0 26 22 36l164 79h4q26 -57 44 -105.5t29.5 -91.5t17 -81.5t5.5 -75.5v-8q0 -37 53 -60.5t165 -23.5h162q0 33 -7 61t-25 61.5t-48.5 77.5t-77.5 109q-27 36 -27 59q0 14 5.5 22t16.5 13l164 79h4
q36 -75 58.5 -131.5t35 -101.5t17 -82.5t4.5 -74.5v-4q1 -18 12 -34t36.5 -28t67.5 -19t104 -7h160q0 32 -7.5 61.5t-27 66.5t-52.5 86.5t-84 120.5q-26 38 -26 60q0 14 5 21.5t16 12.5l164 79h4q38 -78 62.5 -138.5t39 -109.5t20.5 -89.5t6 -78.5q0 -42 -9.5 -81t-25 -76.5
t-36 -74.5t-41.5 -74h-156q-40 0 -76.5 15t-68 42t-57 65.5t-43.5 86.5q-16 -55 -43 -109t-56 -100h-158q-75 0 -137 46.5t-110 149.5q-16 -54 -41.5 -102.5t-53.5 -93.5h-422z" />
    <glyph glyph-name="uniFCFD" unicode="&#xfeb7;&#xfef0;" horiz-adv-x="3024" arabic-form="isolated" 
d="M1390 0q-66 0 -116 12.5t-85 27.5q-27 -69 -78 -137.5t-127.5 -123t-179.5 -88.5t-234 -34q-147 0 -254.5 41.5t-177.5 109.5t-104 156t-34 180q0 58 13 110t32.5 91t41 61.5t39.5 22.5q5 0 12.5 -3t12.5 -13q-22 -38 -35 -88t-13 -95q0 -73 36 -132.5t102.5 -102
t161 -66t210.5 -23.5q96 0 178 9t142.5 26.5t95 44t34.5 61.5q0 23 -11.5 36t-31.5 24q-31 17 -52 32t-34 30.5t-18.5 33t-5.5 40.5q0 42 12 84t26 64q103 -89 213.5 -133t209.5 -44h433q0 33 -8 62t-24.5 60.5t-43 67.5t-63.5 83q-27 33 -27 58q0 26 22 36l164 79h4
q26 -57 44 -105.5t29.5 -91.5t17 -81.5t5.5 -75.5v-8q0 -37 53 -60.5t165 -23.5h162q0 33 -7 61t-25 61.5t-48.5 77.5t-77.5 109q-27 36 -27 59q0 14 5.5 22t16.5 13l164 79h4q36 -75 58.5 -131.5t35 -101.5t17 -82.5t4.5 -74.5v-4q1 -18 12 -34t36.5 -28t67.5 -19t104 -7
h160q0 32 -7.5 61.5t-27 66.5t-52.5 86.5t-84 120.5q-26 38 -26 60q0 14 5 21.5t16 12.5l164 79h4q38 -78 62.5 -138.5t39 -109.5t20.5 -89.5t6 -78.5q0 -42 -9.5 -81t-25 -76.5t-36 -74.5t-41.5 -74h-156q-40 0 -76.5 15t-68 42t-57 65.5t-43.5 86.5q-16 -55 -43 -109
t-56 -100h-158q-75 0 -137 46.5t-110 149.5q-16 -54 -41.5 -102.5t-53.5 -93.5h-422zM2543 947l-134 -133l-116 115l-116 -115l-133 133l133 134l116 -117l116 117zM2423 1181l-132 -131l-131 131l131 132z" />
    <glyph glyph-name="uniFCFE" unicode="&#xfeb7;&#xfef2;" horiz-adv-x="3024" arabic-form="isolated" 
d="M829 -672l-134 -133l-116 115l-116 -115l-133 133l133 134l116 -117l116 117zM1390 0q-66 0 -116 12.5t-85 27.5q-27 -69 -78 -137.5t-127.5 -123t-179.5 -88.5t-234 -34q-147 0 -254.5 41.5t-177.5 109.5t-104 156t-34 180q0 58 13 110t32.5 91t41 61.5t39.5 22.5
q5 0 12.5 -3t12.5 -13q-22 -38 -35 -88t-13 -95q0 -73 36 -132.5t102.5 -102t161 -66t210.5 -23.5q96 0 178 9t142.5 26.5t95 44t34.5 61.5q0 23 -11.5 36t-31.5 24q-31 17 -52 32t-34 30.5t-18.5 33t-5.5 40.5q0 42 12 84t26 64q103 -89 213.5 -133t209.5 -44h433
q0 33 -8 62t-24.5 60.5t-43 67.5t-63.5 83q-27 33 -27 58q0 26 22 36l164 79h4q26 -57 44 -105.5t29.5 -91.5t17 -81.5t5.5 -75.5v-8q0 -37 53 -60.5t165 -23.5h162q0 33 -7 61t-25 61.5t-48.5 77.5t-77.5 109q-27 36 -27 59q0 14 5.5 22t16.5 13l164 79h4
q36 -75 58.5 -131.5t35 -101.5t17 -82.5t4.5 -74.5v-4q1 -18 12 -34t36.5 -28t67.5 -19t104 -7h160q0 32 -7.5 61.5t-27 66.5t-52.5 86.5t-84 120.5q-26 38 -26 60q0 14 5 21.5t16 12.5l164 79h4q38 -78 62.5 -138.5t39 -109.5t20.5 -89.5t6 -78.5q0 -42 -9.5 -81t-25 -76.5
t-36 -74.5t-41.5 -74h-156q-40 0 -76.5 15t-68 42t-57 65.5t-43.5 86.5q-16 -55 -43 -109t-56 -100h-158q-75 0 -137 46.5t-110 149.5q-16 -54 -41.5 -102.5t-53.5 -93.5h-422zM2543 947l-134 -133l-116 115l-116 -115l-133 133l133 134l116 -117l116 117zM2423 1181
l-132 -131l-131 131l131 132z" />
    <glyph glyph-name="uniFD05" unicode="&#xfebb;&#xfef0;" horiz-adv-x="3092" arabic-form="isolated" 
d="M2837 214q6 19 11.5 56t5.5 77q0 18 -2.5 38t-7.5 38.5t-12 34t-17 25.5q-22 22 -61 31t-87 9q-112 0 -234 -79t-255 -230h659zM1390 0q-66 0 -116 12.5t-85 27.5q-27 -69 -78 -137.5t-127.5 -123t-179.5 -88.5t-234 -34q-147 0 -254.5 41.5t-177.5 109.5t-104 156
t-34 180q0 58 13 110t32.5 91t41 61.5t39.5 22.5q5 0 12.5 -3t12.5 -13q-22 -38 -35 -88t-13 -95q0 -73 36 -132.5t102.5 -102t161 -66t210.5 -23.5q96 0 178 9t142.5 26.5t95 44t34.5 61.5q0 23 -11.5 36t-31.5 24q-31 17 -52 32t-34 30.5t-18.5 33t-5.5 40.5q0 42 12 84
t26 64q103 -89 213.5 -133t209.5 -44h311q0 30 -5.5 56t-16 50t-25 48t-32.5 50q-14 21 -24 39t-10 34q0 21 14 29l166 82h4q7 -14 16.5 -34.5t18 -47.5t14.5 -60t6 -72q0 -40 -6 -82q-1 -5 -1.5 -10.5t-0.5 -10.5q0 -14 4.5 -27t22 -22.5t51 -15.5t90.5 -6q72 90 156 182.5
t172.5 167.5t178 122.5t173.5 47.5q52 0 97.5 -20.5t84 -56t68.5 -82t51 -98t32 -105.5t11 -103q0 -16 -3 -49.5t-7.5 -72.5t-11 -79t-13.5 -68h-985q-35 0 -62 7.5t-50 28t-43.5 57t-41.5 93.5q-18 -48 -41.5 -94.5t-49.5 -91.5h-294z" />
    <glyph glyph-name="uniFD06" unicode="&#xfebb;&#xfef2;" horiz-adv-x="3092" arabic-form="isolated" 
d="M829 -672l-134 -133l-116 115l-116 -115l-133 133l133 134l116 -117l116 117zM2837 214q6 19 11.5 56t5.5 77q0 18 -2.5 38t-7.5 38.5t-12 34t-17 25.5q-22 22 -61 31t-87 9q-112 0 -234 -79t-255 -230h659zM1390 0q-66 0 -116 12.5t-85 27.5q-27 -69 -78 -137.5
t-127.5 -123t-179.5 -88.5t-234 -34q-147 0 -254.5 41.5t-177.5 109.5t-104 156t-34 180q0 58 13 110t32.5 91t41 61.5t39.5 22.5q5 0 12.5 -3t12.5 -13q-22 -38 -35 -88t-13 -95q0 -73 36 -132.5t102.5 -102t161 -66t210.5 -23.5q96 0 178 9t142.5 26.5t95 44t34.5 61.5
q0 23 -11.5 36t-31.5 24q-31 17 -52 32t-34 30.5t-18.5 33t-5.5 40.5q0 42 12 84t26 64q103 -89 213.5 -133t209.5 -44h311q0 30 -5.5 56t-16 50t-25 48t-32.5 50q-14 21 -24 39t-10 34q0 21 14 29l166 82h4q7 -14 16.5 -34.5t18 -47.5t14.5 -60t6 -72q0 -40 -6 -82
q-1 -5 -1.5 -10.5t-0.5 -10.5q0 -14 4.5 -27t22 -22.5t51 -15.5t90.5 -6q72 90 156 182.5t172.5 167.5t178 122.5t173.5 47.5q52 0 97.5 -20.5t84 -56t68.5 -82t51 -98t32 -105.5t11 -103q0 -16 -3 -49.5t-7.5 -72.5t-11 -79t-13.5 -68h-985q-35 0 -62 7.5t-50 28t-43.5 57
t-41.5 93.5q-18 -48 -41.5 -94.5t-49.5 -91.5h-294z" />
    <glyph glyph-name="uniFD07" unicode="&#xfebf;&#xfef0;" horiz-adv-x="3092" arabic-form="isolated" 
d="M2837 214q6 19 11.5 56t5.5 77q0 18 -2.5 38t-7.5 38.5t-12 34t-17 25.5q-22 22 -61 31t-87 9q-112 0 -234 -79t-255 -230h659zM1390 0q-66 0 -116 12.5t-85 27.5q-27 -69 -78 -137.5t-127.5 -123t-179.5 -88.5t-234 -34q-147 0 -254.5 41.5t-177.5 109.5t-104 156
t-34 180q0 58 13 110t32.5 91t41 61.5t39.5 22.5q5 0 12.5 -3t12.5 -13q-22 -38 -35 -88t-13 -95q0 -73 36 -132.5t102.5 -102t161 -66t210.5 -23.5q96 0 178 9t142.5 26.5t95 44t34.5 61.5q0 23 -11.5 36t-31.5 24q-31 17 -52 32t-34 30.5t-18.5 33t-5.5 40.5q0 42 12 84
t26 64q103 -89 213.5 -133t209.5 -44h311q0 30 -5.5 56t-16 50t-25 48t-32.5 50q-14 21 -24 39t-10 34q0 21 14 29l166 82h4q7 -14 16.5 -34.5t18 -47.5t14.5 -60t6 -72q0 -40 -6 -82q-1 -5 -1.5 -10.5t-0.5 -10.5q0 -14 4.5 -27t22 -22.5t51 -15.5t90.5 -6q72 90 156 182.5
t172.5 167.5t178 122.5t173.5 47.5q52 0 97.5 -20.5t84 -56t68.5 -82t51 -98t32 -105.5t11 -103q0 -16 -3 -49.5t-7.5 -72.5t-11 -79t-13.5 -68h-985q-35 0 -62 7.5t-50 28t-43.5 57t-41.5 93.5q-18 -48 -41.5 -94.5t-49.5 -91.5h-294zM2679 986l-139 -138l-138 138l138 139
z" />
    <glyph glyph-name="uniFD08" unicode="&#xfebf;&#xfef2;" horiz-adv-x="3092" arabic-form="isolated" 
d="M829 -672l-134 -133l-116 115l-116 -115l-133 133l133 134l116 -117l116 117zM2837 214q6 19 11.5 56t5.5 77q0 18 -2.5 38t-7.5 38.5t-12 34t-17 25.5q-22 22 -61 31t-87 9q-112 0 -234 -79t-255 -230h659zM1390 0q-66 0 -116 12.5t-85 27.5q-27 -69 -78 -137.5
t-127.5 -123t-179.5 -88.5t-234 -34q-147 0 -254.5 41.5t-177.5 109.5t-104 156t-34 180q0 58 13 110t32.5 91t41 61.5t39.5 22.5q5 0 12.5 -3t12.5 -13q-22 -38 -35 -88t-13 -95q0 -73 36 -132.5t102.5 -102t161 -66t210.5 -23.5q96 0 178 9t142.5 26.5t95 44t34.5 61.5
q0 23 -11.5 36t-31.5 24q-31 17 -52 32t-34 30.5t-18.5 33t-5.5 40.5q0 42 12 84t26 64q103 -89 213.5 -133t209.5 -44h311q0 30 -5.5 56t-16 50t-25 48t-32.5 50q-14 21 -24 39t-10 34q0 21 14 29l166 82h4q7 -14 16.5 -34.5t18 -47.5t14.5 -60t6 -72q0 -40 -6 -82
q-1 -5 -1.5 -10.5t-0.5 -10.5q0 -14 4.5 -27t22 -22.5t51 -15.5t90.5 -6q72 90 156 182.5t172.5 167.5t178 122.5t173.5 47.5q52 0 97.5 -20.5t84 -56t68.5 -82t51 -98t32 -105.5t11 -103q0 -16 -3 -49.5t-7.5 -72.5t-11 -79t-13.5 -68h-985q-35 0 -62 7.5t-50 28t-43.5 57
t-41.5 93.5q-18 -48 -41.5 -94.5t-49.5 -91.5h-294zM2679 986l-139 -138l-138 138l138 139z" />
    <glyph glyph-name="uniFD0D" unicode="&#xfeb7;&#xfeae;" horiz-adv-x="2455" arabic-form="isolated" 
d="M1854 1181l-132 -131l-131 131l131 132zM867 0q-72 0 -132 43.5t-98 128.5q-6 -59 -23 -120t-43.5 -118.5t-63 -108t-82 -88t-98.5 -59.5t-114 -22q-52 0 -91.5 18t-66 47.5t-40.5 67.5t-15 77q51 -10 96 -14.5t86 -4.5q82 0 141 18.5t96 53.5t54.5 85t17.5 112
q0 57 -13 115t-35 116t-51.5 114t-62.5 109q-9 14 -14 25.5t-5 22.5q0 20 12 26l180 93h4q63 -120 95 -230.5t38 -222.5q5 -15 19 -27.5t40 -22t64.5 -15t92.5 -5.5h380q0 33 -8 62t-24.5 60.5t-43 67.5t-63.5 83q-27 33 -27 58q0 26 22 36l164 79h4q26 -57 44 -105.5
t29.5 -91.5t17 -81.5t5.5 -75.5v-8q0 -37 53 -60.5t165 -23.5h162q0 33 -7 61t-25 61.5t-48.5 77.5t-77.5 109q-27 36 -27 59q0 14 5.5 22t16.5 13l164 79h4q36 -75 58.5 -131.5t35 -101.5t17 -82.5t4.5 -74.5v-4q1 -18 12 -34t36.5 -28t67.5 -19t104 -7h160q0 32 -7.5 61.5
t-27 66.5t-52.5 86.5t-84 120.5q-26 38 -26 60q0 14 5 21.5t16 12.5l164 79h4q38 -78 62.5 -138.5t39 -109.5t20.5 -89.5t6 -78.5q0 -42 -9.5 -81t-25 -76.5t-36 -74.5t-41.5 -74h-156q-40 0 -76.5 15t-68 42t-57 65.5t-43.5 86.5q-16 -55 -43 -109t-56 -100h-158
q-75 0 -137 46.5t-110 149.5q-16 -54 -41.5 -102.5t-53.5 -93.5h-376zM1974 947l-134 -133l-116 115l-116 -115l-133 133l133 134l116 -117l116 117z" />
    <glyph glyph-name="uniFD0E" unicode="&#xfeb3;&#xfeae;" horiz-adv-x="2455" arabic-form="isolated" 
d="M867 0q-72 0 -132 43.5t-98 128.5q-6 -59 -23 -120t-43.5 -118.5t-63 -108t-82 -88t-98.5 -59.5t-114 -22q-52 0 -91.5 18t-66 47.5t-40.5 67.5t-15 77q51 -10 96 -14.5t86 -4.5q82 0 141 18.5t96 53.5t54.5 85t17.5 112q0 57 -13 115t-35 116t-51.5 114t-62.5 109
q-9 14 -14 25.5t-5 22.5q0 20 12 26l180 93h4q63 -120 95 -230.5t38 -222.5q5 -15 19 -27.5t40 -22t64.5 -15t92.5 -5.5h380q0 33 -8 62t-24.5 60.5t-43 67.5t-63.5 83q-27 33 -27 58q0 26 22 36l164 79h4q26 -57 44 -105.5t29.5 -91.5t17 -81.5t5.5 -75.5v-8
q0 -37 53 -60.5t165 -23.5h162q0 33 -7 61t-25 61.5t-48.5 77.5t-77.5 109q-27 36 -27 59q0 14 5.5 22t16.5 13l164 79h4q36 -75 58.5 -131.5t35 -101.5t17 -82.5t4.5 -74.5v-4q1 -18 12 -34t36.5 -28t67.5 -19t104 -7h160q0 32 -7.5 61.5t-27 66.5t-52.5 86.5t-84 120.5
q-26 38 -26 60q0 14 5 21.5t16 12.5l164 79h4q38 -78 62.5 -138.5t39 -109.5t20.5 -89.5t6 -78.5q0 -42 -9.5 -81t-25 -76.5t-36 -74.5t-41.5 -74h-156q-40 0 -76.5 15t-68 42t-57 65.5t-43.5 86.5q-16 -55 -43 -109t-56 -100h-158q-75 0 -137 46.5t-110 149.5
q-16 -54 -41.5 -102.5t-53.5 -93.5h-376z" />
    <glyph glyph-name="uniFD0F" unicode="&#xfebb;&#xfeae;" horiz-adv-x="2523" arabic-form="isolated" 
d="M2268 214q6 19 11.5 56t5.5 77q0 18 -2.5 38t-7.5 38.5t-12 34t-17 25.5q-22 22 -61 31t-87 9q-112 0 -234 -79t-255 -230h659zM867 0q-72 0 -132 43.5t-98 128.5q-6 -59 -23 -120t-43.5 -118.5t-63 -108t-82 -88t-98.5 -59.5t-114 -22q-52 0 -91.5 18t-66 47.5
t-40.5 67.5t-15 77q51 -10 96 -14.5t86 -4.5q82 0 141 18.5t96 53.5t54.5 85t17.5 112q0 57 -13 115t-35 116t-51.5 114t-62.5 109q-9 14 -14 25.5t-5 22.5q0 20 12 26l180 93h4q63 -120 95 -230.5t38 -222.5q5 -15 19 -27.5t40 -22t64.5 -15t92.5 -5.5h258q0 30 -5.5 56
t-16 50t-25 48t-32.5 50q-14 21 -24 39t-10 34q0 21 14 29l166 82h4q7 -14 16.5 -34.5t18 -47.5t14.5 -60t6 -72q0 -40 -6 -82q-1 -5 -1.5 -10.5t-0.5 -10.5q0 -14 4.5 -27t22 -22.5t51 -15.5t90.5 -6q72 90 156 182.5t172.5 167.5t178 122.5t173.5 47.5q52 0 97.5 -20.5
t84 -56t68.5 -82t51 -98t32 -105.5t11 -103q0 -16 -3 -49.5t-7.5 -72.5t-11 -79t-13.5 -68h-985q-35 0 -62 7.5t-50 28t-43.5 57t-41.5 93.5q-18 -48 -41.5 -94.5t-49.5 -91.5h-248z" />
    <glyph glyph-name="uniFD10" unicode="&#xfebf;&#xfeae;" horiz-adv-x="2523" arabic-form="isolated" 
d="M2268 214q6 19 11.5 56t5.5 77q0 18 -2.5 38t-7.5 38.5t-12 34t-17 25.5q-22 22 -61 31t-87 9q-112 0 -234 -79t-255 -230h659zM867 0q-72 0 -132 43.5t-98 128.5q-6 -59 -23 -120t-43.5 -118.5t-63 -108t-82 -88t-98.5 -59.5t-114 -22q-52 0 -91.5 18t-66 47.5
t-40.5 67.5t-15 77q51 -10 96 -14.5t86 -4.5q82 0 141 18.5t96 53.5t54.5 85t17.5 112q0 57 -13 115t-35 116t-51.5 114t-62.5 109q-9 14 -14 25.5t-5 22.5q0 20 12 26l180 93h4q63 -120 95 -230.5t38 -222.5q5 -15 19 -27.5t40 -22t64.5 -15t92.5 -5.5h258q0 30 -5.5 56
t-16 50t-25 48t-32.5 50q-14 21 -24 39t-10 34q0 21 14 29l166 82h4q7 -14 16.5 -34.5t18 -47.5t14.5 -60t6 -72q0 -40 -6 -82q-1 -5 -1.5 -10.5t-0.5 -10.5q0 -14 4.5 -27t22 -22.5t51 -15.5t90.5 -6q72 90 156 182.5t172.5 167.5t178 122.5t173.5 47.5q52 0 97.5 -20.5
t84 -56t68.5 -82t51 -98t32 -105.5t11 -103q0 -16 -3 -49.5t-7.5 -72.5t-11 -79t-13.5 -68h-985q-35 0 -62 7.5t-50 28t-43.5 57t-41.5 93.5q-18 -48 -41.5 -94.5t-49.5 -91.5h-248zM2110 986l-139 -138l-138 138l138 139z" />
    <glyph glyph-name="uniFD17" unicode="&#xfeb4;&#xfef0;" horiz-adv-x="3170" arabic-form="final" 
d="M1390 0q-66 0 -116 12.5t-85 27.5q-27 -69 -78 -137.5t-127.5 -123t-179.5 -88.5t-234 -34q-147 0 -254.5 41.5t-177.5 109.5t-104 156t-34 180q0 58 13 110t32.5 91t41 61.5t39.5 22.5q5 0 12.5 -3t12.5 -13q-22 -38 -35 -88t-13 -95q0 -73 36 -132.5t102.5 -102
t161 -66t210.5 -23.5q96 0 178 9t142.5 26.5t95 44t34.5 61.5q0 23 -11.5 36t-31.5 24q-31 17 -52 32t-34 30.5t-18.5 33t-5.5 40.5q0 42 12 84t26 64q103 -89 213.5 -133t209.5 -44h433q0 33 -8 62t-24.5 60.5t-43 67.5t-63.5 83q-27 33 -27 58q0 26 22 36l164 79h4
q26 -57 44 -105.5t29.5 -91.5t17 -81.5t5.5 -75.5q0 -43 53 -67.5t165 -24.5h162q0 33 -7 61t-25 61.5t-48.5 77.5t-77.5 109q-27 36 -27 59q0 14 5.5 22t16.5 13l164 79h4q36 -75 58.5 -131.5t35 -101.5t17 -82.5t4.5 -74.5v-4q1 -18 12 -34t36.5 -28t67.5 -19t104 -7h160
q0 32 -7.5 61.5t-27 66.5t-52.5 86.5t-84 120.5q-26 38 -26 60q0 14 5 21.5t16 12.5l164 79h4q38 -78 62.5 -138.5t39 -109.5t20.5 -89.5t6 -78.5q0 -20 11.5 -36.5t37 -29t67.5 -19.5t104 -7h26q42 0 56 -26.5t14 -77.5q0 -54 -15 -82t-55 -28h-14q-40 0 -76.5 15t-68 42.5
t-57.5 66t-44 86.5q-8 -27 -19.5 -56t-25 -57t-27.5 -53t-26 -44h-156q-40 0 -76.5 15t-68 42t-57 65.5t-43.5 86.5q-16 -55 -43 -109t-56 -100h-158q-75 0 -137 46.5t-110 149.5q-16 -54 -41.5 -102.5t-53.5 -93.5h-422z" />
    <glyph glyph-name="uniFD18" unicode="&#xfeb4;&#xfef2;" horiz-adv-x="3170" arabic-form="final" 
d="M829 -672l-134 -133l-116 115l-116 -115l-133 133l133 134l116 -117l116 117zM1390 0q-66 0 -116 12.5t-85 27.5q-27 -69 -78 -137.5t-127.5 -123t-179.5 -88.5t-234 -34q-147 0 -254.5 41.5t-177.5 109.5t-104 156t-34 180q0 58 13 110t32.5 91t41 61.5t39.5 22.5
q5 0 12.5 -3t12.5 -13q-22 -38 -35 -88t-13 -95q0 -73 36 -132.5t102.5 -102t161 -66t210.5 -23.5q96 0 178 9t142.5 26.5t95 44t34.5 61.5q0 23 -11.5 36t-31.5 24q-31 17 -52 32t-34 30.5t-18.5 33t-5.5 40.5q0 42 12 84t26 64q103 -89 213.5 -133t209.5 -44h433
q0 33 -8 62t-24.5 60.5t-43 67.5t-63.5 83q-27 33 -27 58q0 26 22 36l164 79h4q26 -57 44 -105.5t29.5 -91.5t17 -81.5t5.5 -75.5q0 -43 53 -67.5t165 -24.5h162q0 33 -7 61t-25 61.5t-48.5 77.5t-77.5 109q-27 36 -27 59q0 14 5.5 22t16.5 13l164 79h4q36 -75 58.5 -131.5
t35 -101.5t17 -82.5t4.5 -74.5v-4q1 -18 12 -34t36.5 -28t67.5 -19t104 -7h160q0 32 -7.5 61.5t-27 66.5t-52.5 86.5t-84 120.5q-26 38 -26 60q0 14 5 21.5t16 12.5l164 79h4q38 -78 62.5 -138.5t39 -109.5t20.5 -89.5t6 -78.5q0 -20 11.5 -36.5t37 -29t67.5 -19.5t104 -7
h26q42 0 56 -26.5t14 -77.5q0 -54 -15 -82t-55 -28h-14q-40 0 -76.5 15t-68 42.5t-57.5 66t-44 86.5q-8 -27 -19.5 -56t-25 -57t-27.5 -53t-26 -44h-156q-40 0 -76.5 15t-68 42t-57 65.5t-43.5 86.5q-16 -55 -43 -109t-56 -100h-158q-75 0 -137 46.5t-110 149.5
q-16 -54 -41.5 -102.5t-53.5 -93.5h-422z" />
    <glyph glyph-name="uniFD19" unicode="&#xfeb8;&#xfef0;" horiz-adv-x="3170" arabic-form="final" 
d="M1390 0q-66 0 -116 12.5t-85 27.5q-27 -69 -78 -137.5t-127.5 -123t-179.5 -88.5t-234 -34q-147 0 -254.5 41.5t-177.5 109.5t-104 156t-34 180q0 58 13 110t32.5 91t41 61.5t39.5 22.5q5 0 12.5 -3t12.5 -13q-22 -38 -35 -88t-13 -95q0 -73 36 -132.5t102.5 -102
t161 -66t210.5 -23.5q96 0 178 9t142.5 26.5t95 44t34.5 61.5q0 23 -11.5 36t-31.5 24q-31 17 -52 32t-34 30.5t-18.5 33t-5.5 40.5q0 42 12 84t26 64q103 -89 213.5 -133t209.5 -44h433q0 33 -8 62t-24.5 60.5t-43 67.5t-63.5 83q-27 33 -27 58q0 26 22 36l164 79h4
q26 -57 44 -105.5t29.5 -91.5t17 -81.5t5.5 -75.5q0 -43 53 -67.5t165 -24.5h162q0 33 -7 61t-25 61.5t-48.5 77.5t-77.5 109q-27 36 -27 59q0 14 5.5 22t16.5 13l164 79h4q36 -75 58.5 -131.5t35 -101.5t17 -82.5t4.5 -74.5v-4q1 -18 12 -34t36.5 -28t67.5 -19t104 -7h160
q0 32 -7.5 61.5t-27 66.5t-52.5 86.5t-84 120.5q-26 38 -26 60q0 14 5 21.5t16 12.5l164 79h4q38 -78 62.5 -138.5t39 -109.5t20.5 -89.5t6 -78.5q0 -20 11.5 -36.5t37 -29t67.5 -19.5t104 -7h26q42 0 56 -26.5t14 -77.5q0 -54 -15 -82t-55 -28h-14q-40 0 -76.5 15t-68 42.5
t-57.5 66t-44 86.5q-8 -27 -19.5 -56t-25 -57t-27.5 -53t-26 -44h-156q-40 0 -76.5 15t-68 42t-57 65.5t-43.5 86.5q-16 -55 -43 -109t-56 -100h-158q-75 0 -137 46.5t-110 149.5q-16 -54 -41.5 -102.5t-53.5 -93.5h-422zM2555 947l-134 -133l-116 115l-116 -115l-133 133
l133 134l116 -117l116 117zM2435 1181l-132 -131l-131 131l131 132z" />
    <glyph glyph-name="uniFD1A" unicode="&#xfeb8;&#xfef2;" horiz-adv-x="3170" arabic-form="final" 
d="M829 -672l-134 -133l-116 115l-116 -115l-133 133l133 134l116 -117l116 117zM1390 0q-66 0 -116 12.5t-85 27.5q-27 -69 -78 -137.5t-127.5 -123t-179.5 -88.5t-234 -34q-147 0 -254.5 41.5t-177.5 109.5t-104 156t-34 180q0 58 13 110t32.5 91t41 61.5t39.5 22.5
q5 0 12.5 -3t12.5 -13q-22 -38 -35 -88t-13 -95q0 -73 36 -132.5t102.5 -102t161 -66t210.5 -23.5q96 0 178 9t142.5 26.5t95 44t34.5 61.5q0 23 -11.5 36t-31.5 24q-31 17 -52 32t-34 30.5t-18.5 33t-5.5 40.5q0 42 12 84t26 64q103 -89 213.5 -133t209.5 -44h433
q0 33 -8 62t-24.5 60.5t-43 67.5t-63.5 83q-27 33 -27 58q0 26 22 36l164 79h4q26 -57 44 -105.5t29.5 -91.5t17 -81.5t5.5 -75.5q0 -43 53 -67.5t165 -24.5h162q0 33 -7 61t-25 61.5t-48.5 77.5t-77.5 109q-27 36 -27 59q0 14 5.5 22t16.5 13l164 79h4q36 -75 58.5 -131.5
t35 -101.5t17 -82.5t4.5 -74.5v-4q1 -18 12 -34t36.5 -28t67.5 -19t104 -7h160q0 32 -7.5 61.5t-27 66.5t-52.5 86.5t-84 120.5q-26 38 -26 60q0 14 5 21.5t16 12.5l164 79h4q38 -78 62.5 -138.5t39 -109.5t20.5 -89.5t6 -78.5q0 -20 11.5 -36.5t37 -29t67.5 -19.5t104 -7
h26q42 0 56 -26.5t14 -77.5q0 -54 -15 -82t-55 -28h-14q-40 0 -76.5 15t-68 42.5t-57.5 66t-44 86.5q-8 -27 -19.5 -56t-25 -57t-27.5 -53t-26 -44h-156q-40 0 -76.5 15t-68 42t-57 65.5t-43.5 86.5q-16 -55 -43 -109t-56 -100h-158q-75 0 -137 46.5t-110 149.5
q-16 -54 -41.5 -102.5t-53.5 -93.5h-422zM2555 947l-134 -133l-116 115l-116 -115l-133 133l133 134l116 -117l116 117zM2435 1181l-132 -131l-131 131l131 132z" />
    <glyph glyph-name="uniFD21" unicode="&#xfebc;&#xfef0;" horiz-adv-x="3220" arabic-form="final" 
d="M2837 214q6 19 11.5 56t5.5 77q0 18 -2.5 38t-7.5 38.5t-12 34t-17 25.5q-22 22 -61 31t-87 9q-112 0 -234 -79t-255 -230h659zM1390 0q-66 0 -116 12.5t-85 27.5q-27 -69 -78 -137.5t-127.5 -123t-179.5 -88.5t-234 -34q-147 0 -254.5 41.5t-177.5 109.5t-104 156
t-34 180q0 58 13 110t32.5 91t41 61.5t39.5 22.5q5 0 12.5 -3t12.5 -13q-22 -38 -35 -88t-13 -95q0 -73 36 -132.5t102.5 -102t161 -66t210.5 -23.5q96 0 178 9t142.5 26.5t95 44t34.5 61.5q0 23 -11.5 36t-31.5 24q-31 17 -52 32t-34 30.5t-18.5 33t-5.5 40.5q0 42 12 84
t26 64q103 -89 213.5 -133t209.5 -44h311q0 30 -5.5 56t-16 50t-25 48t-32.5 50q-14 21 -24 39t-10 34q0 21 14 29l166 82h4q7 -14 16.5 -34.5t18 -47.5t14.5 -60t6 -72q0 -40 -6 -82q-1 -5 -1.5 -10.5t-0.5 -10.5q0 -14 4.5 -27t22 -22.5t51 -15.5t90.5 -6q72 90 156 182.5
t172.5 167.5t178 122.5t173.5 47.5q52 0 97.5 -20.5t84 -56t68.5 -82t51 -98.5t32 -106t11 -104q4 -11 22 -20.5t46.5 -16.5t65.5 -11.5t79 -4.5h15q42 0 56 -26.5t14 -77.5q0 -54 -15 -82t-55 -28h-12q-38 0 -72 12t-63.5 32.5t-52.5 47.5t-38 57q-5 -40 -11 -80t-14 -69
h-985q-35 0 -62 7.5t-50 28t-43.5 57t-41.5 93.5q-18 -48 -41.5 -94.5t-49.5 -91.5h-294z" />
    <glyph glyph-name="uniFD22" unicode="&#xfebc;&#xfef2;" horiz-adv-x="3220" arabic-form="final" 
d="M2837 214q6 19 11.5 56t5.5 77q0 18 -2.5 38t-7.5 38.5t-12 34t-17 25.5q-22 22 -61 31t-87 9q-112 0 -234 -79t-255 -230h659zM829 -672l-134 -133l-116 115l-116 -115l-133 133l133 134l116 -117l116 117zM1390 0q-66 0 -116 12.5t-85 27.5q-27 -69 -78 -137.5
t-127.5 -123t-179.5 -88.5t-234 -34q-147 0 -254.5 41.5t-177.5 109.5t-104 156t-34 180q0 58 13 110t32.5 91t41 61.5t39.5 22.5q5 0 12.5 -3t12.5 -13q-22 -38 -35 -88t-13 -95q0 -73 36 -132.5t102.5 -102t161 -66t210.5 -23.5q96 0 178 9t142.5 26.5t95 44t34.5 61.5
q0 23 -11.5 36t-31.5 24q-31 17 -52 32t-34 30.5t-18.5 33t-5.5 40.5q0 42 12 84t26 64q103 -89 213.5 -133t209.5 -44h311q0 30 -5.5 56t-16 50t-25 48t-32.5 50q-14 21 -24 39t-10 34q0 21 14 29l166 82h4q7 -14 16.5 -34.5t18 -47.5t14.5 -60t6 -72q0 -40 -6 -82
q-1 -5 -1.5 -10.5t-0.5 -10.5q0 -14 4.5 -27t22 -22.5t51 -15.5t90.5 -6q72 90 156 182.5t172.5 167.5t178 122.5t173.5 47.5q52 0 97.5 -20.5t84 -56t68.5 -82t51 -98.5t32 -106t11 -104q4 -11 22 -20.5t46.5 -16.5t65.5 -11.5t79 -4.5h15q42 0 56 -26.5t14 -77.5
q0 -54 -15 -82t-55 -28h-12q-38 0 -72 12t-63.5 32.5t-52.5 47.5t-38 57q-5 -40 -11 -80t-14 -69h-985q-35 0 -62 7.5t-50 28t-43.5 57t-41.5 93.5q-18 -48 -41.5 -94.5t-49.5 -91.5h-294z" />
    <glyph glyph-name="uniFD23" unicode="&#xfec0;&#xfef0;" horiz-adv-x="3220" arabic-form="final" 
d="M2837 214q6 19 11.5 56t5.5 77q0 18 -2.5 38t-7.5 38.5t-12 34t-17 25.5q-22 22 -61 31t-87 9q-112 0 -234 -79t-255 -230h659zM2689 986l-139 -138l-138 138l138 139zM1390 0q-66 0 -116 12.5t-85 27.5q-27 -69 -78 -137.5t-127.5 -123t-179.5 -88.5t-234 -34
q-147 0 -254.5 41.5t-177.5 109.5t-104 156t-34 180q0 58 13 110t32.5 91t41 61.5t39.5 22.5q5 0 12.5 -3t12.5 -13q-22 -38 -35 -88t-13 -95q0 -73 36 -132.5t102.5 -102t161 -66t210.5 -23.5q96 0 178 9t142.5 26.5t95 44t34.5 61.5q0 23 -11.5 36t-31.5 24q-31 17 -52 32
t-34 30.5t-18.5 33t-5.5 40.5q0 42 12 84t26 64q103 -89 213.5 -133t209.5 -44h311q0 30 -5.5 56t-16 50t-25 48t-32.5 50q-14 21 -24 39t-10 34q0 21 14 29l166 82h4q7 -14 16.5 -34.5t18 -47.5t14.5 -60t6 -72q0 -40 -6 -82q-1 -5 -1.5 -10.5t-0.5 -10.5q0 -14 4.5 -27
t22 -22.5t51 -15.5t90.5 -6q72 90 156 182.5t172.5 167.5t178 122.5t173.5 47.5q52 0 97.5 -20.5t84 -56t68.5 -82t51 -98.5t32 -106t11 -104q4 -11 22 -20.5t46.5 -16.5t65.5 -11.5t79 -4.5h15q42 0 56 -26.5t14 -77.5q0 -54 -15 -82t-55 -28h-12q-38 0 -72 12t-63.5 32.5
t-52.5 47.5t-38 57q-5 -40 -11 -80t-14 -69h-985q-35 0 -62 7.5t-50 28t-43.5 57t-41.5 93.5q-18 -48 -41.5 -94.5t-49.5 -91.5h-294z" />
    <glyph glyph-name="uniFD24" unicode="&#xfec0;&#xfef2;" horiz-adv-x="3220" arabic-form="final" 
d="M2837 214q6 19 11.5 56t5.5 77q0 18 -2.5 38t-7.5 38.5t-12 34t-17 25.5q-22 22 -61 31t-87 9q-112 0 -234 -79t-255 -230h659zM829 -672l-134 -133l-116 115l-116 -115l-133 133l133 134l116 -117l116 117zM2689 986l-139 -138l-138 138l138 139zM1390 0
q-66 0 -116 12.5t-85 27.5q-27 -69 -78 -137.5t-127.5 -123t-179.5 -88.5t-234 -34q-147 0 -254.5 41.5t-177.5 109.5t-104 156t-34 180q0 58 13 110t32.5 91t41 61.5t39.5 22.5q5 0 12.5 -3t12.5 -13q-22 -38 -35 -88t-13 -95q0 -73 36 -132.5t102.5 -102t161 -66
t210.5 -23.5q96 0 178 9t142.5 26.5t95 44t34.5 61.5q0 23 -11.5 36t-31.5 24q-31 17 -52 32t-34 30.5t-18.5 33t-5.5 40.5q0 42 12 84t26 64q103 -89 213.5 -133t209.5 -44h311q0 30 -5.5 56t-16 50t-25 48t-32.5 50q-14 21 -24 39t-10 34q0 21 14 29l166 82h4
q7 -14 16.5 -34.5t18 -47.5t14.5 -60t6 -72q0 -40 -6 -82q-1 -5 -1.5 -10.5t-0.5 -10.5q0 -14 4.5 -27t22 -22.5t51 -15.5t90.5 -6q72 90 156 182.5t172.5 167.5t178 122.5t173.5 47.5q52 0 97.5 -20.5t84 -56t68.5 -82t51 -98.5t32 -106t11 -104q4 -11 22 -20.5t46.5 -16.5
t65.5 -11.5t79 -4.5h15q42 0 56 -26.5t14 -77.5q0 -54 -15 -82t-55 -28h-12q-38 0 -72 12t-63.5 32.5t-52.5 47.5t-38 57q-5 -40 -11 -80t-14 -69h-985q-35 0 -62 7.5t-50 28t-43.5 57t-41.5 93.5q-18 -48 -41.5 -94.5t-49.5 -91.5h-294z" />
    <glyph glyph-name="uniFD29" unicode="&#xfeb8;&#xfeae;" horiz-adv-x="2601" arabic-form="final" 
d="M867 0q-72 0 -132 43.5t-98 128.5q-6 -59 -23 -120t-43.5 -118.5t-63 -108t-82 -88t-98.5 -59.5t-114 -22q-52 0 -91.5 18t-66 47.5t-40.5 67.5t-15 77q51 -10 96 -14.5t86 -4.5q82 0 141 18.5t96 53.5t54.5 85t17.5 112q0 57 -13 115t-35 116t-51.5 114t-62.5 109
q-9 14 -14 25.5t-5 22.5q0 20 12 26l180 93h4q63 -120 95 -230.5t38 -222.5q5 -15 19 -27.5t40 -22t64.5 -15t92.5 -5.5h380q0 33 -8 62t-24.5 60.5t-43 67.5t-63.5 83q-27 33 -27 58q0 26 22 36l164 79h4q26 -57 44 -105.5t29.5 -91.5t17 -81.5t5.5 -75.5q0 -43 53 -67.5
t165 -24.5h162q0 33 -7 61t-25 61.5t-48.5 77.5t-77.5 109q-27 36 -27 59q0 14 5.5 22t16.5 13l164 79h4q36 -75 58.5 -131.5t35 -101.5t17 -82.5t4.5 -74.5v-4q1 -18 12 -34t36.5 -28t67.5 -19t104 -7h160q0 32 -7.5 61.5t-27 66.5t-52.5 86.5t-84 120.5q-26 38 -26 60
q0 14 5 21.5t16 12.5l164 79h4q38 -78 62.5 -138.5t39 -109.5t20.5 -89.5t6 -78.5q0 -20 11.5 -36.5t37 -29t67.5 -19.5t104 -7h26q42 0 56 -26.5t14 -77.5q0 -54 -15 -82t-55 -28h-14q-40 0 -76.5 15t-68 42.5t-57.5 66t-44 86.5q-8 -27 -19.5 -56t-25 -57t-27.5 -53
t-26 -44h-156q-40 0 -76.5 15t-68 42t-57 65.5t-43.5 86.5q-16 -55 -43 -109t-56 -100h-158q-75 0 -137 46.5t-110 149.5q-16 -54 -41.5 -102.5t-53.5 -93.5h-376zM1986 947l-134 -133l-116 115l-116 -115l-133 133l133 134l116 -117l116 117zM1866 1181l-132 -131l-131 131
l131 132z" />
    <glyph glyph-name="uniFD2A" unicode="&#xfeb4;&#xfeae;" horiz-adv-x="2601" arabic-form="final" 
d="M867 0q-72 0 -132 43.5t-98 128.5q-6 -59 -23 -120t-43.5 -118.5t-63 -108t-82 -88t-98.5 -59.5t-114 -22q-52 0 -91.5 18t-66 47.5t-40.5 67.5t-15 77q51 -10 96 -14.5t86 -4.5q82 0 141 18.5t96 53.5t54.5 85t17.5 112q0 57 -13 115t-35 116t-51.5 114t-62.5 109
q-9 14 -14 25.5t-5 22.5q0 20 12 26l180 93h4q63 -120 95 -230.5t38 -222.5q5 -15 19 -27.5t40 -22t64.5 -15t92.5 -5.5h380q0 33 -8 62t-24.5 60.5t-43 67.5t-63.5 83q-27 33 -27 58q0 26 22 36l164 79h4q26 -57 44 -105.5t29.5 -91.5t17 -81.5t5.5 -75.5q0 -43 53 -67.5
t165 -24.5h162q0 33 -7 61t-25 61.5t-48.5 77.5t-77.5 109q-27 36 -27 59q0 14 5.5 22t16.5 13l164 79h4q36 -75 58.5 -131.5t35 -101.5t17 -82.5t4.5 -74.5v-4q1 -18 12 -34t36.5 -28t67.5 -19t104 -7h160q0 32 -7.5 61.5t-27 66.5t-52.5 86.5t-84 120.5q-26 38 -26 60
q0 14 5 21.5t16 12.5l164 79h4q38 -78 62.5 -138.5t39 -109.5t20.5 -89.5t6 -78.5q0 -20 11.5 -36.5t37 -29t67.5 -19.5t104 -7h26q42 0 56 -26.5t14 -77.5q0 -54 -15 -82t-55 -28h-14q-40 0 -76.5 15t-68 42.5t-57.5 66t-44 86.5q-8 -27 -19.5 -56t-25 -57t-27.5 -53
t-26 -44h-156q-40 0 -76.5 15t-68 42t-57 65.5t-43.5 86.5q-16 -55 -43 -109t-56 -100h-158q-75 0 -137 46.5t-110 149.5q-16 -54 -41.5 -102.5t-53.5 -93.5h-376z" />
    <glyph glyph-name="uniFD2B" unicode="&#xfebc;&#xfeae;" horiz-adv-x="2651" arabic-form="final" 
d="M2268 214q6 19 11.5 56t5.5 77q0 18 -2.5 38t-7.5 38.5t-12 34t-17 25.5q-22 22 -61 31t-87 9q-112 0 -234 -79t-255 -230h659zM867 0q-72 0 -132 43.5t-98 128.5q-6 -59 -23 -120t-43.5 -118.5t-63 -108t-82 -88t-98.5 -59.5t-114 -22q-52 0 -91.5 18t-66 47.5
t-40.5 67.5t-15 77q51 -10 96 -14.5t86 -4.5q82 0 141 18.5t96 53.5t54.5 85t17.5 112q0 57 -13 115t-35 116t-51.5 114t-62.5 109q-9 14 -14 25.5t-5 22.5q0 20 12 26l180 93h4q63 -120 95 -230.5t38 -222.5q5 -15 19 -27.5t40 -22t64.5 -15t92.5 -5.5h258q0 30 -5.5 56
t-16 50t-25 48t-32.5 50q-14 21 -24 39t-10 34q0 21 14 29l166 82h4q7 -14 16.5 -34.5t18 -47.5t14.5 -60t6 -72q0 -40 -6 -82q-1 -5 -1.5 -10.5t-0.5 -10.5q0 -14 4.5 -27t22 -22.5t51 -15.5t90.5 -6q72 90 156 182.5t172.5 167.5t178 122.5t173.5 47.5q52 0 97.5 -20.5
t84 -56t68.5 -82t51 -98.5t32 -106t11 -104q4 -11 22 -20.5t46.5 -16.5t65.5 -11.5t79 -4.5h15q42 0 56 -26.5t14 -77.5q0 -54 -15 -82t-55 -28h-12q-38 0 -72 12t-63.5 32.5t-52.5 47.5t-38 57q-5 -40 -11 -80t-14 -69h-985q-35 0 -62 7.5t-50 28t-43.5 57t-41.5 93.5
q-18 -48 -41.5 -94.5t-49.5 -91.5h-248z" />
    <glyph glyph-name="uniFD2C" unicode="&#xfec0;&#xfeae;" horiz-adv-x="2651" arabic-form="final" 
d="M2268 214q6 19 11.5 56t5.5 77q0 18 -2.5 38t-7.5 38.5t-12 34t-17 25.5q-22 22 -61 31t-87 9q-112 0 -234 -79t-255 -230h659zM867 0q-72 0 -132 43.5t-98 128.5q-6 -59 -23 -120t-43.5 -118.5t-63 -108t-82 -88t-98.5 -59.5t-114 -22q-52 0 -91.5 18t-66 47.5
t-40.5 67.5t-15 77q51 -10 96 -14.5t86 -4.5q82 0 141 18.5t96 53.5t54.5 85t17.5 112q0 57 -13 115t-35 116t-51.5 114t-62.5 109q-9 14 -14 25.5t-5 22.5q0 20 12 26l180 93h4q63 -120 95 -230.5t38 -222.5q5 -15 19 -27.5t40 -22t64.5 -15t92.5 -5.5h258q0 30 -5.5 56
t-16 50t-25 48t-32.5 50q-14 21 -24 39t-10 34q0 21 14 29l166 82h4q7 -14 16.5 -34.5t18 -47.5t14.5 -60t6 -72q0 -40 -6 -82q-1 -5 -1.5 -10.5t-0.5 -10.5q0 -14 4.5 -27t22 -22.5t51 -15.5t90.5 -6q72 90 156 182.5t172.5 167.5t178 122.5t173.5 47.5q52 0 97.5 -20.5
t84 -56t68.5 -82t51 -98.5t32 -106t11 -104q4 -11 22 -20.5t46.5 -16.5t65.5 -11.5t79 -4.5h15q42 0 56 -26.5t14 -77.5q0 -54 -15 -82t-55 -28h-12q-38 0 -72 12t-63.5 32.5t-52.5 47.5t-38 57q-5 -40 -11 -80t-14 -69h-985q-35 0 -62 7.5t-50 28t-43.5 57t-41.5 93.5
q-18 -48 -41.5 -94.5t-49.5 -91.5h-248zM2120 986l-139 -138l-138 138l138 139z" />
    <glyph glyph-name="uniFEF5" unicode="&#xfedf;&#xfe82;" horiz-adv-x="1366" arabic-form="isolated" 
d="M1028 1297q0 19 4 31t19 17l162 37l3 -2v-1208q0 -20 -16 -49.5t-37.5 -56.5t-43 -46.5t-32.5 -19.5h-987q0 13 3 34t9.5 44.5t17 48t25 44t33 31.5t42.5 12h277v678q0 19 4 31t19 17l162 37l3 -2v-761h333v1083zM346 1091q-2 -2 -7 -2q-6 0 -13 2t-9 8q3 33 13 65
t26 56.5t36.5 39.5t43.5 15q18 0 40.5 -3.5t47.5 -9.5t51 -14t49 -17q121 -44 165 -44q27 0 45 9t29.5 22.5t17.5 29t8 29.5q1 7 5.5 9t8.5 2t6 -2q2 -7 2.5 -18.5t0.5 -21.5q0 -21 -4.5 -51.5t-19.5 -58.5t-42.5 -48t-73.5 -20q-39 0 -86 13.5t-96 30.5q-48 17 -94 29.5
t-88 12.5q-12 0 -21.5 -6.5t-17 -16t-13.5 -20.5t-10 -20z" />
    <glyph glyph-name="uniFEF6" unicode="&#xfee0;&#xfe82;" horiz-adv-x="1486" arabic-form="final" 
d="M1445 0q-37 0 -75.5 12.5t-72.5 36.5t-61.5 58.5t-43.5 79.5q-6 -19 -17 -44.5t-24 -52t-26.5 -50.5t-23.5 -40h-1001q0 13 3 34t9.5 44.5t17 48t25 44t33 31.5t42.5 12h277v678q0 19 4 31t19 17l162 37l3 -2v-761h333v1083q0 19 4 31t19 17l162 37l3 -2v-1092
q0 -34 50 -54t167 -20h53q42 0 56 -26.5t14 -77.5q0 -54 -15 -82t-55 -28h-41zM346 1091q-2 -2 -7 -2q-6 0 -13 2t-9 8q3 33 13 65t26 56.5t36.5 39.5t43.5 15q18 0 40.5 -3.5t47.5 -9.5t51 -14t49 -17q121 -44 165 -44q27 0 45 9t29.5 22.5t17.5 29t8 29.5q1 7 5.5 9t8.5 2
t6 -2q2 -7 2.5 -18.5t0.5 -21.5q0 -21 -4.5 -51.5t-19.5 -58.5t-42.5 -48t-73.5 -20q-39 0 -86 13.5t-96 30.5q-48 17 -94 29.5t-88 12.5q-12 0 -21.5 -6.5t-17 -16t-13.5 -20.5t-10 -20z" />
    <glyph glyph-name="uniFEF7" unicode="&#xfedf;&#xfe84;" horiz-adv-x="1366" arabic-form="isolated" 
d="M1028 1297q0 19 4 31t19 17l162 37l3 -2v-1208q0 -20 -16 -49.5t-37.5 -56.5t-43 -46.5t-32.5 -19.5h-987q0 13 3 34t9.5 44.5t17 48t25 44t33 31.5t42.5 12h277v678q0 19 4 31t19 17l162 37l3 -2v-761h333v1083zM428 1085l39 96l89 10q-24 12 -40 38t-16 56t16.5 61
t42.5 55.5t59 40t65 15.5q20 0 47.5 -8t49.5 -22l-54 -82q-37 25 -79 25q-32 0 -50 -18t-18 -44q0 -20 12 -37t32 -29t47 -19t56 -7q12 0 21 0.5t23 2.5l-42 -96z" />
    <glyph glyph-name="uniFEF8" unicode="&#xfee0;&#xfe84;" horiz-adv-x="1486" arabic-form="final" 
d="M1445 0q-37 0 -75.5 12.5t-72.5 36.5t-61.5 58.5t-43.5 79.5q-6 -19 -17 -44.5t-24 -52t-26.5 -50.5t-23.5 -40h-1001q0 13 3 34t9.5 44.5t17 48t25 44t33 31.5t42.5 12h277v678q0 19 4 31t19 17l162 37l3 -2v-761h333v1083q0 19 4 31t19 17l162 37l3 -2v-1092
q0 -34 50 -54t167 -20h53q42 0 56 -26.5t14 -77.5q0 -54 -15 -82t-55 -28h-41zM428 1085l39 96l89 10q-24 12 -40 38t-16 56t16.5 61t42.5 55.5t59 40t65 15.5q20 0 47.5 -8t49.5 -22l-54 -82q-37 25 -79 25q-32 0 -50 -18t-18 -44q0 -20 12 -37t32 -29t47 -19t56 -7
q12 0 21 0.5t23 2.5l-42 -96z" />
    <glyph glyph-name="uniFEF9" unicode="&#xfedf;&#xfe88;" horiz-adv-x="1366" arabic-form="isolated" 
d="M1028 1297q0 19 4 31t19 17l162 37l3 -2v-1208q0 -20 -16 -49.5t-37.5 -56.5t-43 -46.5t-32.5 -19.5h-987q0 13 3 34t9.5 44.5t17 48t25 44t33 31.5t42.5 12h277v678q0 19 4 31t19 17l162 37l3 -2v-761h333v1083zM379 -514l39 96l89 10q-24 12 -40 38t-16 56t16.5 61
t42.5 55.5t59 40t65 15.5q20 0 47.5 -8t49.5 -22l-54 -82q-37 25 -79 25q-32 0 -50 -18t-18 -44q0 -20 12 -37t32 -29t47 -19t56 -7q12 0 21 0.5t23 2.5l-42 -96z" />
    <glyph glyph-name="uniFEFA" unicode="&#xfee0;&#xfe88;" horiz-adv-x="1486" arabic-form="final" 
d="M1445 0q-37 0 -75.5 12.5t-72.5 36.5t-61.5 58.5t-43.5 79.5q-6 -19 -17 -44.5t-24 -52t-26.5 -50.5t-23.5 -40h-1001q0 13 3 34t9.5 44.5t17 48t25 44t33 31.5t42.5 12h277v678q0 19 4 31t19 17l162 37l3 -2v-761h333v1083q0 19 4 31t19 17l162 37l3 -2v-1092
q0 -34 50 -54t167 -20h53q42 0 56 -26.5t14 -77.5q0 -54 -15 -82t-55 -28h-41zM379 -514l39 96l89 10q-24 12 -40 38t-16 56t16.5 61t42.5 55.5t59 40t65 15.5q20 0 47.5 -8t49.5 -22l-54 -82q-37 25 -79 25q-32 0 -50 -18t-18 -44q0 -20 12 -37t32 -29t47 -19t56 -7
q12 0 21 0.5t23 2.5l-42 -96z" />
    <glyph glyph-name="uniFEFB" unicode="&#xfedf;&#xfe8e;" horiz-adv-x="1366" arabic-form="isolated" 
d="M1028 1297q0 19 4 31t19 17l162 37l3 -2v-1208q0 -20 -16 -49.5t-37.5 -56.5t-43 -46.5t-32.5 -19.5h-987q0 13 3 34t9.5 44.5t17 48t25 44t33 31.5t42.5 12h277v678q0 19 4 31t19 17l162 37l3 -2v-761h333v1083z" />
    <glyph glyph-name="uniFEFC" unicode="&#xfee0;&#xfe8e;" horiz-adv-x="1486" arabic-form="final" 
d="M1445 0q-37 0 -75.5 12.5t-72.5 36.5t-61.5 58.5t-43.5 79.5q-6 -19 -17 -44.5t-24 -52t-26.5 -50.5t-23.5 -40h-1001q0 13 3 34t9.5 44.5t17 48t25 44t33 31.5t42.5 12h277v678q0 19 4 31t19 17l162 37l3 -2v-761h333v1083q0 19 4 31t19 17l162 37l3 -2v-1092
q0 -34 50 -54t167 -20h53q42 0 56 -26.5t14 -77.5q0 -54 -15 -82t-55 -28h-41z" />
    <glyph glyph-name="uniFE8B_uniFEE4.liga" unicode="&#xfe8b;&#xfee4;" horiz-adv-x="1586" 
d="M1012 770l61 147l89 11q-21 20 -35 51.5t-14 65.5q0 42 22 84t56.5 75.5t77.5 55t85 21.5q25 0 63 -11.5t71 -33.5l-79 -119q-46 29 -102 29q-42 0 -66 -21t-24 -50q0 -24 16 -44.5t42.5 -35.5t61.5 -23.5t73 -8.5q16 0 32.5 0.5t33.5 5.5l-66 -148zM455 517
q-20 0 -44 -10.5t-48.5 -38t-49 -75.5t-44.5 -122q52 -44 115 -59.5t134 -15.5q78 0 125.5 33t47.5 94q0 39 -21 74t-54.5 61.5t-76 42.5t-84.5 16zM887 0q-52 0 -93.5 36t-67.5 117q-17 -35 -39 -65t-50.5 -52.5t-64.5 -35t-80 -12.5q-48 0 -89 12t-74.5 31t-60 43
t-45.5 47q-25 -57 -62.5 -89t-86.5 -32h-74q-42 0 -56 26.5t-14 77.5q0 54 15 82t55 28h60q28 0 51 23t41.5 59t33 81t26.5 90q16 56 39.5 104t55.5 83.5t73.5 55.5t92.5 20q67 0 121.5 -29t95.5 -76.5t67.5 -108.5t37.5 -125q7 -45 16.5 -78t25.5 -55t40 -33t60 -11h408
q0 32 -7 61.5t-26 66.5t-51 86.5t-83 120.5q-26 38 -26 60q0 14 5 21.5t16 12.5l164 79h4q38 -78 62.5 -138.5t39 -109.5t20.5 -89.5t6 -78.5q0 -41 -9.5 -80.5t-25.5 -78t-36 -75t-41 -72.5h-470z" />
    <glyph glyph-name="uniFE8B_uniFEF0.liga" unicode="&#xfe8b;&#xfef0;" horiz-adv-x="2032" 
d="M1462 770l61 147l89 11q-21 20 -35 51.5t-14 65.5q0 42 22 84t56.5 75.5t77.5 55t85 21.5q25 0 63 -11.5t71 -33.5l-79 -119q-46 29 -102 29q-42 0 -66 -21t-24 -50q0 -24 16 -44.5t42.5 -35.5t61.5 -23.5t73 -8.5q16 0 32.5 0.5t33.5 5.5l-66 -148zM1390 0
q-66 0 -116 12.5t-85 27.5q-27 -69 -78 -137.5t-127.5 -123t-179.5 -88.5t-234 -34q-147 0 -254.5 41.5t-177.5 109.5t-104 156t-34 180q0 58 13 110t32.5 91t41 61.5t39.5 22.5q5 0 12.5 -3t12.5 -13q-22 -38 -35 -88t-13 -95q0 -73 36 -132.5t102.5 -102t161 -66
t210.5 -23.5q96 0 178 9t142.5 26.5t95 44t34.5 61.5q0 23 -11.5 36t-31.5 24q-31 17 -52 32t-34 30.5t-18.5 33t-5.5 40.5q0 42 12 84t26 64q103 -89 213.5 -133t209.5 -44h424q0 32 -7 61.5t-26 66.5t-51 86.5t-83 120.5q-26 38 -26 60q0 14 5 21.5t16 12.5l164 79h4
q38 -78 62.5 -138.5t39 -109.5t20.5 -89.5t6 -78.5q0 -41 -9.5 -80.5t-25.5 -78t-36 -75t-41 -72.5h-417z" />
    <glyph glyph-name="uniFE8B_uniFEF2.liga" unicode="&#xfe8b;&#xfef2;" horiz-adv-x="2032" 
d="M829 -672l-134 -133l-116 115l-116 -115l-133 133l133 134l116 -117l116 117zM1462 770l61 147l89 11q-21 20 -35 51.5t-14 65.5q0 42 22 84t56.5 75.5t77.5 55t85 21.5q25 0 63 -11.5t71 -33.5l-79 -119q-46 29 -102 29q-42 0 -66 -21t-24 -50q0 -24 16 -44.5
t42.5 -35.5t61.5 -23.5t73 -8.5q16 0 32.5 0.5t33.5 5.5l-66 -148zM1390 0q-66 0 -116 12.5t-85 27.5q-27 -69 -78 -137.5t-127.5 -123t-179.5 -88.5t-234 -34q-147 0 -254.5 41.5t-177.5 109.5t-104 156t-34 180q0 58 13 110t32.5 91t41 61.5t39.5 22.5q5 0 12.5 -3
t12.5 -13q-22 -38 -35 -88t-13 -95q0 -73 36 -132.5t102.5 -102t161 -66t210.5 -23.5q96 0 178 9t142.5 26.5t95 44t34.5 61.5q0 23 -11.5 36t-31.5 24q-31 17 -52 32t-34 30.5t-18.5 33t-5.5 40.5q0 42 12 84t26 64q103 -89 213.5 -133t209.5 -44h424q0 32 -7 61.5
t-26 66.5t-51 86.5t-83 120.5q-26 38 -26 60q0 14 5 21.5t16 12.5l164 79h4q38 -78 62.5 -138.5t39 -109.5t20.5 -89.5t6 -78.5q0 -41 -9.5 -80.5t-25.5 -78t-36 -75t-41 -72.5h-417z" />
    <glyph glyph-name="uniFE91_uniFEE4.liga" unicode="&#xfe91;&#xfee4;" horiz-adv-x="1569" 
d="M1363 -345l-139 -138l-138 138l138 139zM455 517q-20 0 -44 -10.5t-48.5 -38t-49 -75.5t-44.5 -122q52 -44 115 -59.5t134 -15.5q78 0 125.5 33t47.5 94q0 39 -21 74t-54.5 61.5t-76 42.5t-84.5 16zM887 0q-52 0 -93.5 36t-67.5 117q-17 -35 -39 -65t-50.5 -52.5
t-64.5 -35t-80 -12.5q-48 0 -89 12t-74.5 31t-60 43t-45.5 47q-25 -57 -62.5 -89t-86.5 -32h-74q-42 0 -56 26.5t-14 77.5q0 54 15 82t55 28h60q28 0 51 23t41.5 59t33 81t26.5 90q16 56 39.5 104t55.5 83.5t73.5 55.5t92.5 20q67 0 121.5 -29t95.5 -76.5t67.5 -108.5
t37.5 -125q7 -45 16.5 -78t25.5 -55t40 -33t60 -11h408q0 32 -7 61.5t-26 66.5t-51 86.5t-83 120.5q-26 38 -26 60q0 14 5 21.5t16 12.5l164 79h4q38 -78 62.5 -138.5t39 -109.5t20.5 -89.5t6 -78.5q0 -41 -9.5 -80.5t-25.5 -78t-36 -75t-41 -72.5h-470z" />
    <glyph glyph-name="uniFE92_uniFEE6.liga" unicode="&#xfe92;&#xfee6;" horiz-adv-x="1902" 
d="M609 785l-139 -138l-138 138l138 139zM1659 -345l-139 -138l-138 138l138 139zM1171 0q-75 0 -136 46.5t-98 131.5q-12 -81 -51.5 -165t-103.5 -152.5t-151 -112t-193 -43.5q-101 0 -182 29.5t-138 85.5t-87.5 135.5t-30.5 180.5q0 61 15 117t36.5 99t45 69t40.5 26
q4 0 9.5 -4t12.5 -9q-10 -15 -18.5 -41t-14.5 -55t-9.5 -58.5t-3.5 -51.5q0 -67 28 -123.5t78.5 -98t121 -64.5t156.5 -23q91 0 150 22t93 56.5t47 76.5t13 82q0 45 -15.5 90.5t-40.5 89t-57 84t-65 75.5l199 118l5 -1q52 -75 81 -159t34 -163q4 -16 17 -29.5t38.5 -24
t65.5 -16.5t97 -6h376q0 32 -6.5 61.5t-24.5 66.5t-49.5 86t-82.5 121q-26 38 -26 60q0 14 5 21.5t16 12.5l164 79h4q38 -78 62.5 -138.5t39 -109.5t20.5 -89.5t6 -78.5q0 -20 11.5 -36.5t37 -29t67.5 -19.5t104 -7h19q42 0 56 -26.5t14 -77.5q0 -54 -15 -82t-55 -28h-7
q-40 0 -76.5 15t-68 42.5t-57.5 66t-44 86.5q-17 -55 -44.5 -111t-53.5 -99h-380z" />
    <glyph glyph-name="uniFE91_uniFEF0.liga" unicode="&#xfe91;&#xfef0;" horiz-adv-x="2020" 
d="M1390 0q-66 0 -116 12.5t-85 27.5q-27 -69 -78 -137.5t-127.5 -123t-179.5 -88.5t-234 -34q-147 0 -254.5 41.5t-177.5 109.5t-104 156t-34 180q0 58 13 110t32.5 91t41 61.5t39.5 22.5q5 0 12.5 -3t12.5 -13q-22 -38 -35 -88t-13 -95q0 -73 36 -132.5t102.5 -102
t161 -66t210.5 -23.5q96 0 178 9t142.5 26.5t95 44t34.5 61.5q0 23 -11.5 36t-31.5 24q-31 17 -52 32t-34 30.5t-18.5 33t-5.5 40.5q0 42 12 84t26 64q103 -89 213.5 -133t209.5 -44h424q0 32 -7 61.5t-26 66.5t-51 86.5t-83 120.5q-26 38 -26 60q0 14 5 21.5t16 12.5
l164 79h4q38 -78 62.5 -138.5t39 -109.5t20.5 -89.5t6 -78.5q0 -41 -9.5 -80.5t-25.5 -78t-36 -75t-41 -72.5h-417zM1813 -345l-139 -138l-138 138l138 139z" />
    <glyph glyph-name="uniFE91_uniFEF2.liga" unicode="&#xfe91;&#xfef2;" horiz-adv-x="2020" 
d="M829 -672l-134 -133l-116 115l-116 -115l-133 133l133 134l116 -117l116 117zM1390 0q-66 0 -116 12.5t-85 27.5q-27 -69 -78 -137.5t-127.5 -123t-179.5 -88.5t-234 -34q-147 0 -254.5 41.5t-177.5 109.5t-104 156t-34 180q0 58 13 110t32.5 91t41 61.5t39.5 22.5
q5 0 12.5 -3t12.5 -13q-22 -38 -35 -88t-13 -95q0 -73 36 -132.5t102.5 -102t161 -66t210.5 -23.5q96 0 178 9t142.5 26.5t95 44t34.5 61.5q0 23 -11.5 36t-31.5 24q-31 17 -52 32t-34 30.5t-18.5 33t-5.5 40.5q0 42 12 84t26 64q103 -89 213.5 -133t209.5 -44h424
q0 32 -7 61.5t-26 66.5t-51 86.5t-83 120.5q-26 38 -26 60q0 14 5 21.5t16 12.5l164 79h4q38 -78 62.5 -138.5t39 -109.5t20.5 -89.5t6 -78.5q0 -41 -9.5 -80.5t-25.5 -78t-36 -75t-41 -72.5h-417zM1813 -345l-139 -138l-138 138l138 139z" />
    <glyph glyph-name="uniFE97_uniFEE4.liga" unicode="&#xfe97;&#xfee4;" horiz-adv-x="1573" 
d="M1499 947l-134 -133l-116 115l-116 -115l-133 133l133 134l116 -117l116 117zM455 517q-20 0 -44 -10.5t-48.5 -38t-49 -75.5t-44.5 -122q52 -44 115 -59.5t134 -15.5q78 0 125.5 33t47.5 94q0 39 -21 74t-54.5 61.5t-76 42.5t-84.5 16zM887 0q-52 0 -93.5 36t-67.5 117
q-17 -35 -39 -65t-50.5 -52.5t-64.5 -35t-80 -12.5q-48 0 -89 12t-74.5 31t-60 43t-45.5 47q-25 -57 -62.5 -89t-86.5 -32h-74q-42 0 -56 26.5t-14 77.5q0 54 15 82t55 28h60q28 0 51 23t41.5 59t33 81t26.5 90q16 56 39.5 104t55.5 83.5t73.5 55.5t92.5 20q67 0 121.5 -29
t95.5 -76.5t67.5 -108.5t37.5 -125q7 -45 16.5 -78t25.5 -55t40 -33t60 -11h408q0 32 -7 61.5t-26 66.5t-51 86.5t-83 120.5q-26 38 -26 60q0 14 5 21.5t16 12.5l164 79h4q38 -78 62.5 -138.5t39 -109.5t20.5 -89.5t6 -78.5q0 -41 -9.5 -80.5t-25.5 -78t-36 -75t-41 -72.5
h-470z" />
    <glyph glyph-name="uniFE98_uniFEE6.liga" unicode="&#xfe98;&#xfee6;" horiz-adv-x="1902" 
d="M609 785l-139 -138l-138 138l138 139zM1695 947l-134 -133l-116 115l-116 -115l-133 133l133 134l116 -117l116 117zM1171 0q-75 0 -136 46.5t-98 131.5q-12 -81 -51.5 -165t-103.5 -152.5t-151 -112t-193 -43.5q-101 0 -182 29.5t-138 85.5t-87.5 135.5t-30.5 180.5
q0 61 15 117t36.5 99t45 69t40.5 26q4 0 9.5 -4t12.5 -9q-10 -15 -18.5 -41t-14.5 -55t-9.5 -58.5t-3.5 -51.5q0 -67 28 -123.5t78.5 -98t121 -64.5t156.5 -23q91 0 150 22t93 56.5t47 76.5t13 82q0 45 -15.5 90.5t-40.5 89t-57 84t-65 75.5l199 118l5 -1q52 -75 81 -159
t34 -163q4 -16 17 -29.5t38.5 -24t65.5 -16.5t97 -6h376q0 32 -6.5 61.5t-24.5 66.5t-49.5 86t-82.5 121q-26 38 -26 60q0 14 5 21.5t16 12.5l164 79h4q38 -78 62.5 -138.5t39 -109.5t20.5 -89.5t6 -78.5q0 -20 11.5 -36.5t37 -29t67.5 -19.5t104 -7h19q42 0 56 -26.5
t14 -77.5q0 -54 -15 -82t-55 -28h-7q-40 0 -76.5 15t-68 42.5t-57.5 66t-44 86.5q-17 -55 -44.5 -111t-53.5 -99h-380z" />
    <glyph glyph-name="uniFE97_uniFEF0.liga" unicode="&#xfe97;&#xfef0;" horiz-adv-x="2024" 
d="M1949 947l-134 -133l-116 115l-116 -115l-133 133l133 134l116 -117l116 117zM1390 0q-66 0 -116 12.5t-85 27.5q-27 -69 -78 -137.5t-127.5 -123t-179.5 -88.5t-234 -34q-147 0 -254.5 41.5t-177.5 109.5t-104 156t-34 180q0 58 13 110t32.5 91t41 61.5t39.5 22.5
q5 0 12.5 -3t12.5 -13q-22 -38 -35 -88t-13 -95q0 -73 36 -132.5t102.5 -102t161 -66t210.5 -23.5q96 0 178 9t142.5 26.5t95 44t34.5 61.5q0 23 -11.5 36t-31.5 24q-31 17 -52 32t-34 30.5t-18.5 33t-5.5 40.5q0 42 12 84t26 64q103 -89 213.5 -133t209.5 -44h424
q0 32 -7 61.5t-26 66.5t-51 86.5t-83 120.5q-26 38 -26 60q0 14 5 21.5t16 12.5l164 79h4q38 -78 62.5 -138.5t39 -109.5t20.5 -89.5t6 -78.5q0 -41 -9.5 -80.5t-25.5 -78t-36 -75t-41 -72.5h-417z" />
    <glyph glyph-name="uniFE97_uniFEF2.liga" unicode="&#xfe97;&#xfef2;" horiz-adv-x="2024" 
d="M829 -672l-134 -133l-116 115l-116 -115l-133 133l133 134l116 -117l116 117zM1949 947l-134 -133l-116 115l-116 -115l-133 133l133 134l116 -117l116 117zM1390 0q-66 0 -116 12.5t-85 27.5q-27 -69 -78 -137.5t-127.5 -123t-179.5 -88.5t-234 -34q-147 0 -254.5 41.5
t-177.5 109.5t-104 156t-34 180q0 58 13 110t32.5 91t41 61.5t39.5 22.5q5 0 12.5 -3t12.5 -13q-22 -38 -35 -88t-13 -95q0 -73 36 -132.5t102.5 -102t161 -66t210.5 -23.5q96 0 178 9t142.5 26.5t95 44t34.5 61.5q0 23 -11.5 36t-31.5 24q-31 17 -52 32t-34 30.5t-18.5 33
t-5.5 40.5q0 42 12 84t26 64q103 -89 213.5 -133t209.5 -44h424q0 32 -7 61.5t-26 66.5t-51 86.5t-83 120.5q-26 38 -26 60q0 14 5 21.5t16 12.5l164 79h4q38 -78 62.5 -138.5t39 -109.5t20.5 -89.5t6 -78.5q0 -41 -9.5 -80.5t-25.5 -78t-36 -75t-41 -72.5h-417z" />
    <glyph glyph-name="uniFE9C_uniFEAE.liga" unicode="&#xfe9c;&#xfeae;" horiz-adv-x="1593" 
d="M1266 1181l-132 -131l-131 131l131 132zM1386 947l-134 -133l-116 115l-116 -115l-133 133l133 134l116 -117l116 117zM867 0q-72 0 -132 43.5t-98 128.5q-6 -59 -23 -120t-43.5 -118.5t-63 -108t-82 -88t-98.5 -59.5t-114 -22q-52 0 -91.5 18t-66 47.5t-40.5 67.5
t-15 77q51 -10 96 -14.5t86 -4.5q82 0 141 18.5t96 53.5t54.5 85t17.5 112q0 57 -13 115t-35 116t-51.5 114t-62.5 109q-9 14 -14 25.5t-5 22.5q0 20 12 26l180 93h4q63 -120 95 -230.5t38 -222.5q5 -15 19 -27.5t40 -22t64.5 -15t92.5 -5.5h371q0 32 -6.5 61.5t-24.5 66.5
t-49.5 86t-82.5 121q-26 38 -26 60q0 14 5 21.5t16 12.5l164 79h4q38 -78 62.5 -138.5t39 -109.5t20.5 -89.5t6 -78.5q0 -20 11.5 -36.5t37 -29t67.5 -19.5t104 -7h19q42 0 56 -26.5t14 -77.5q0 -54 -15 -82t-55 -28h-7q-40 0 -76.5 15t-68 42.5t-57.5 66t-44 86.5
q-17 -55 -44.5 -111t-53.5 -99h-375z" />
    <glyph glyph-name="uniFE9B_uniFEE4.liga" unicode="&#xfe9b;&#xfee4;" horiz-adv-x="1573" 
d="M1379 1181l-132 -131l-131 131l131 132zM1499 947l-134 -133l-116 115l-116 -115l-133 133l133 134l116 -117l116 117zM455 517q-20 0 -44 -10.5t-48.5 -38t-49 -75.5t-44.5 -122q52 -44 115 -59.5t134 -15.5q78 0 125.5 33t47.5 94q0 39 -21 74t-54.5 61.5t-76 42.5
t-84.5 16zM887 0q-52 0 -93.5 36t-67.5 117q-17 -35 -39 -65t-50.5 -52.5t-64.5 -35t-80 -12.5q-48 0 -89 12t-74.5 31t-60 43t-45.5 47q-25 -57 -62.5 -89t-86.5 -32h-74q-42 0 -56 26.5t-14 77.5q0 54 15 82t55 28h60q28 0 51 23t41.5 59t33 81t26.5 90q16 56 39.5 104
t55.5 83.5t73.5 55.5t92.5 20q67 0 121.5 -29t95.5 -76.5t67.5 -108.5t37.5 -125q7 -45 16.5 -78t25.5 -55t40 -33t60 -11h408q0 32 -7 61.5t-26 66.5t-51 86.5t-83 120.5q-26 38 -26 60q0 14 5 21.5t16 12.5l164 79h4q38 -78 62.5 -138.5t39 -109.5t20.5 -89.5t6 -78.5
q0 -41 -9.5 -80.5t-25.5 -78t-36 -75t-41 -72.5h-470z" />
    <glyph glyph-name="uniFE9C_uniFEE6.liga" unicode="&#xfe9c;&#xfee6;" horiz-adv-x="1902" 
d="M609 785l-139 -138l-138 138l138 139zM1695 947l-134 -133l-116 115l-116 -115l-133 133l133 134l116 -117l116 117zM1575 1181l-132 -131l-131 131l131 132zM1171 0q-75 0 -136 46.5t-98 131.5q-12 -81 -51.5 -165t-103.5 -152.5t-151 -112t-193 -43.5q-101 0 -182 29.5
t-138 85.5t-87.5 135.5t-30.5 180.5q0 61 15 117t36.5 99t45 69t40.5 26q4 0 9.5 -4t12.5 -9q-10 -15 -18.5 -41t-14.5 -55t-9.5 -58.5t-3.5 -51.5q0 -67 28 -123.5t78.5 -98t121 -64.5t156.5 -23q91 0 150 22t93 56.5t47 76.5t13 82q0 45 -15.5 90.5t-40.5 89t-57 84
t-65 75.5l199 118l5 -1q52 -75 81 -159t34 -163q4 -16 17 -29.5t38.5 -24t65.5 -16.5t97 -6h376q0 32 -6.5 61.5t-24.5 66.5t-49.5 86t-82.5 121q-26 38 -26 60q0 14 5 21.5t16 12.5l164 79h4q38 -78 62.5 -138.5t39 -109.5t20.5 -89.5t6 -78.5q0 -20 11.5 -36.5t37 -29
t67.5 -19.5t104 -7h19q42 0 56 -26.5t14 -77.5q0 -54 -15 -82t-55 -28h-7q-40 0 -76.5 15t-68 42.5t-57.5 66t-44 86.5q-17 -55 -44.5 -111t-53.5 -99h-380z" />
    <glyph glyph-name="uniFE9B_uniFEF0.liga" unicode="&#xfe9b;&#xfef0;" horiz-adv-x="2024" 
d="M1829 1181l-132 -131l-131 131l131 132zM1949 947l-134 -133l-116 115l-116 -115l-133 133l133 134l116 -117l116 117zM1390 0q-66 0 -116 12.5t-85 27.5q-27 -69 -78 -137.5t-127.5 -123t-179.5 -88.5t-234 -34q-147 0 -254.5 41.5t-177.5 109.5t-104 156t-34 180
q0 58 13 110t32.5 91t41 61.5t39.5 22.5q5 0 12.5 -3t12.5 -13q-22 -38 -35 -88t-13 -95q0 -73 36 -132.5t102.5 -102t161 -66t210.5 -23.5q96 0 178 9t142.5 26.5t95 44t34.5 61.5q0 23 -11.5 36t-31.5 24q-31 17 -52 32t-34 30.5t-18.5 33t-5.5 40.5q0 42 12 84t26 64
q103 -89 213.5 -133t209.5 -44h424q0 32 -7 61.5t-26 66.5t-51 86.5t-83 120.5q-26 38 -26 60q0 14 5 21.5t16 12.5l164 79h4q38 -78 62.5 -138.5t39 -109.5t20.5 -89.5t6 -78.5q0 -41 -9.5 -80.5t-25.5 -78t-36 -75t-41 -72.5h-417z" />
    <glyph glyph-name="uniFE9B_uniFEF2.liga" unicode="&#xfe9b;&#xfef2;" horiz-adv-x="2024" 
d="M829 -672l-134 -133l-116 115l-116 -115l-133 133l133 134l116 -117l116 117zM1829 1181l-132 -131l-131 131l131 132zM1949 947l-134 -133l-116 115l-116 -115l-133 133l133 134l116 -117l116 117zM1390 0q-66 0 -116 12.5t-85 27.5q-27 -69 -78 -137.5t-127.5 -123
t-179.5 -88.5t-234 -34q-147 0 -254.5 41.5t-177.5 109.5t-104 156t-34 180q0 58 13 110t32.5 91t41 61.5t39.5 22.5q5 0 12.5 -3t12.5 -13q-22 -38 -35 -88t-13 -95q0 -73 36 -132.5t102.5 -102t161 -66t210.5 -23.5q96 0 178 9t142.5 26.5t95 44t34.5 61.5q0 23 -11.5 36
t-31.5 24q-31 17 -52 32t-34 30.5t-18.5 33t-5.5 40.5q0 42 12 84t26 64q103 -89 213.5 -133t209.5 -44h424q0 32 -7 61.5t-26 66.5t-51 86.5t-83 120.5q-26 38 -26 60q0 14 5 21.5t16 12.5l164 79h4q38 -78 62.5 -138.5t39 -109.5t20.5 -89.5t6 -78.5q0 -41 -9.5 -80.5
t-25.5 -78t-36 -75t-41 -72.5h-417z" />
    <glyph glyph-name="uniFEDB_uniFEF0.liga" unicode="&#xfedb;&#xfef0;" horiz-adv-x="2516" 
d="M1390 0q-66 0 -116 12.5t-85 27.5q-27 -69 -78 -137.5t-127.5 -123t-179.5 -88.5t-234 -34q-147 0 -254.5 41.5t-177.5 109.5t-104 156t-34 180q0 58 13 110t32.5 91t41 61.5t39.5 22.5q5 0 12.5 -3t12.5 -13q-22 -38 -35 -88t-13 -95q0 -73 36 -132.5t102.5 -102
t161 -66t210.5 -23.5q96 0 178 9t142.5 26.5t95 44t34.5 61.5q0 23 -11.5 36t-31.5 24q-31 17 -52 32t-34 30.5t-18.5 33t-5.5 40.5q0 42 12 84t26 64q103 -89 213.5 -133t209.5 -44h831q6 14 10.5 33t7 38.5t4 37.5t1.5 30q0 19 -11.5 43t-46.5 36q-30 10 -80 17.5
t-125 13.5t-179 10t-242 7l19 175l238 151q105 66 180 114.5t124 85.5t75 67t34 59q15 -13 26.5 -31t20 -37t12.5 -37.5t4 -33.5q0 -23 -5 -45t-20.5 -44t-44 -43.5t-74.5 -43.5l-246 -119q110 -21 201.5 -61.5t157.5 -98.5t102.5 -131.5t36.5 -161.5q0 -105 -35 -245h-957z
" />
    <glyph glyph-name="uniFEDC_uniFEF0.liga" unicode="&#xfedc;&#xfef0;" horiz-adv-x="2634" 
d="M1390 0q-66 0 -116 12.5t-85 27.5q-27 -69 -78 -137.5t-127.5 -123t-179.5 -88.5t-234 -34q-147 0 -254.5 41.5t-177.5 109.5t-104 156t-34 180q0 58 13 110t32.5 91t41 61.5t39.5 22.5q5 0 12.5 -3t12.5 -13q-22 -38 -35 -88t-13 -95q0 -73 36 -132.5t102.5 -102
t161 -66t210.5 -23.5q96 0 178 9t142.5 26.5t95 44t34.5 61.5q0 23 -11.5 36t-31.5 24q-31 17 -52 32t-34 30.5t-18.5 33t-5.5 40.5q0 42 12 84t26 64q103 -89 213.5 -133t209.5 -44h831q5 12 9 30t7 37.5t5 38.5t2 33q0 19 -11.5 44.5t-46.5 38.5q-30 11 -80.5 18.5
t-126 13t-179.5 9.5t-240 7l19 171l238 151q105 66 180 114.5t124 85.5t75 67t34 59q15 -13 26.5 -31t20 -37t12.5 -37.5t4 -33.5q0 -25 -6 -48t-22 -44.5t-43 -41.5t-69 -40l-251 -121q100 -22 186 -58t152 -86.5t107.5 -114.5t51.5 -141q2 -19 7 -34.5t26 -26.5t64 -17
t121 -6h36q42 0 56 -26.5t14 -77.5q0 -54 -15 -82t-55 -28h-36q-41 0 -80.5 14.5t-72 39.5t-56 59t-32.5 74q-3 -16 -9.5 -40.5t-15 -51t-18.5 -52t-20 -43.5h-904z" />
    <glyph glyph-name="uniFEDB_uniFEF2.liga" unicode="&#xfedb;&#xfef2;" horiz-adv-x="2516" 
d="M829 -672l-134 -133l-116 115l-116 -115l-133 133l133 134l116 -117l116 117zM1390 0q-66 0 -116 12.5t-85 27.5q-27 -69 -78 -137.5t-127.5 -123t-179.5 -88.5t-234 -34q-147 0 -254.5 41.5t-177.5 109.5t-104 156t-34 180q0 58 13 110t32.5 91t41 61.5t39.5 22.5
q5 0 12.5 -3t12.5 -13q-22 -38 -35 -88t-13 -95q0 -73 36 -132.5t102.5 -102t161 -66t210.5 -23.5q96 0 178 9t142.5 26.5t95 44t34.5 61.5q0 23 -11.5 36t-31.5 24q-31 17 -52 32t-34 30.5t-18.5 33t-5.5 40.5q0 42 12 84t26 64q103 -89 213.5 -133t209.5 -44h831
q6 14 10.5 33t7 38.5t4 37.5t1.5 30q0 19 -11.5 43t-46.5 36q-30 10 -80 17.5t-125 13.5t-179 10t-242 7l19 175l238 151q105 66 180 114.5t124 85.5t75 67t34 59q15 -13 26.5 -31t20 -37t12.5 -37.5t4 -33.5q0 -23 -5 -45t-20.5 -44t-44 -43.5t-74.5 -43.5l-246 -119
q110 -21 201.5 -61.5t157.5 -98.5t102.5 -131.5t36.5 -161.5q0 -105 -35 -245h-957z" />
    <glyph glyph-name="uniFEDC_uniFEF2.liga" unicode="&#xfedc;&#xfef2;" horiz-adv-x="2634" 
d="M829 -672l-134 -133l-116 115l-116 -115l-133 133l133 134l116 -117l116 117zM1390 0q-66 0 -116 12.5t-85 27.5q-27 -69 -78 -137.5t-127.5 -123t-179.5 -88.5t-234 -34q-147 0 -254.5 41.5t-177.5 109.5t-104 156t-34 180q0 58 13 110t32.5 91t41 61.5t39.5 22.5
q5 0 12.5 -3t12.5 -13q-22 -38 -35 -88t-13 -95q0 -73 36 -132.5t102.5 -102t161 -66t210.5 -23.5q96 0 178 9t142.5 26.5t95 44t34.5 61.5q0 23 -11.5 36t-31.5 24q-31 17 -52 32t-34 30.5t-18.5 33t-5.5 40.5q0 42 12 84t26 64q103 -89 213.5 -133t209.5 -44h831
q5 12 9 30t7 37.5t5 38.5t2 33q0 19 -11.5 44.5t-46.5 38.5q-30 11 -80.5 18.5t-126 13t-179.5 9.5t-240 7l19 171l238 151q105 66 180 114.5t124 85.5t75 67t34 59q15 -13 26.5 -31t20 -37t12.5 -37.5t4 -33.5q0 -25 -6 -48t-22 -44.5t-43 -41.5t-69 -40l-251 -121
q100 -22 186 -58t152 -86.5t107.5 -114.5t51.5 -141q2 -19 7 -34.5t26 -26.5t64 -17t121 -6h36q42 0 56 -26.5t14 -77.5q0 -54 -15 -82t-55 -28h-36q-41 0 -80.5 14.5t-72 39.5t-56 59t-32.5 74q-3 -16 -9.5 -40.5t-15 -51t-18.5 -52t-20 -43.5h-904z" />
    <glyph glyph-name="uniFEDF_uniFB51.rlig" unicode="&#xfedf;&#xfb51;" horiz-adv-x="1366" 
d="M1216 172q0 -20 -16 -49.5t-37.5 -56.5t-43 -46.5t-32.5 -19.5h-987q0 13 3 34t9.5 44.5t17 48t25 44t33 31.5t42.5 12h277v678q0 19 4 31t19 17l162 37l3 -2v-761h333v1083q0 19 4 31t19 17l162 37l3 -2v-1208zM373 1044q-4 9 -5 18.5t-1 20.5q0 43 23 70.5t63 27.5
q20 0 42 -3t36 -7q10 24 27 48.5t38.5 44t47 32t53.5 12.5q48 0 75.5 -33t27.5 -87q0 -18 -4 -47t-10 -49q-28 -11 -62 -15t-63 -4q-32 0 -61.5 4t-55.5 9q-25 5 -44 8.5t-31 3.5q-32 0 -59.5 -16.5t-36.5 -37.5zM744 1162q0 25 -12 42.5t-39 17.5q-28 0 -53 -17t-45 -45
q16 -4 36 -6t37 -2q23 0 39.5 3t36.5 7z" />
    <glyph glyph-name="uniFEE0_uniFB51.rlig" unicode="&#xfee0;&#xfb51;" horiz-adv-x="1486" 
d="M1445 0q-37 0 -75.5 12.5t-72.5 36.5t-61.5 58.5t-43.5 79.5q-6 -19 -17 -44.5t-24 -52t-26.5 -50.5t-23.5 -40h-1001q0 13 3 34t9.5 44.5t17 48t25 44t33 31.5t42.5 12h277v678q0 19 4 31t19 17l162 37l3 -2v-761h333v1083q0 19 4 31t19 17l162 37l3 -2v-1092
q0 -34 50 -54t167 -20h53q42 0 56 -26.5t14 -77.5q0 -54 -15 -82t-55 -28h-41zM373 1044q-4 9 -5 18.5t-1 20.5q0 43 23 70.5t63 27.5q20 0 42 -3t36 -7q10 24 27 48.5t38.5 44t47 32t53.5 12.5q48 0 75.5 -33t27.5 -87q0 -18 -4 -47t-10 -49q-28 -11 -62 -15t-63 -4
q-32 0 -61.5 4t-55.5 9q-25 5 -44 8.5t-31 3.5q-32 0 -59.5 -16.5t-36.5 -37.5zM744 1162q0 25 -12 42.5t-39 17.5q-28 0 -53 -17t-45 -45q16 -4 36 -6t37 -2q23 0 39.5 3t36.5 7z" />
    <glyph glyph-name="uniFEDF_uniFEE2.liga" unicode="&#xfedf;&#xfee2;" horiz-adv-x="1983" 
d="M884 517q-24 0 -49 -10.5t-49 -38t-46.5 -75.5t-42.5 -122q31 -25 64.5 -40t66.5 -22.5t63.5 -10t55.5 -2.5q79 0 125.5 33.5t46.5 93.5q0 38 -21 73t-54.5 62t-75.5 43t-84 16zM1316 0q-52 0 -93.5 36t-67.5 117q-12 -28 -30 -57.5t-45.5 -53.5t-66 -39t-90.5 -15
q-44 0 -83.5 10.5t-74 28.5t-63 42t-50.5 51q-25 -42 -63 -75.5t-82.5 -60t-93.5 -45t-97 -31t-92 -18t-79 -5.5q-32 0 -58.5 9t-45.5 33t-30 65.5t-11 106.5q125 2 215.5 8.5t154.5 22t106 41.5t71.5 66t50.5 96.5t43 133.5q16 56 39.5 104t55.5 83.5t73.5 55.5t92.5 20
q67 0 122 -30t96 -78t67.5 -109t36.5 -122q7 -45 16.5 -78.5t25 -55t40 -32.5t60.5 -11h279v1081q0 19 4 31t19 17l162 37l3 -2v-1378h-517z" />
    <glyph glyph-name="uniFEE4_uniFE8E.liga" unicode="&#xfee4;&#xfe8e;" horiz-adv-x="1531" 
d="M985 517q-20 0 -44 -10.5t-48.5 -38t-49 -75.5t-44.5 -122q52 -44 115 -59.5t134 -15.5q78 0 125.5 33t47.5 94q0 39 -21 74t-54.5 61.5t-76 42.5t-84.5 16zM275 0q-44 30 -68.5 52.5t-36.5 42t-15 38t-3 40.5v1122q0 19 4 31t19 17l162 37l3 -2v-1164h250q28 0 51 23
t41.5 59t33 81t26.5 90q16 56 39.5 104t55.5 83.5t73.5 55.5t92.5 20q67 0 121.5 -29t95.5 -76.5t67.5 -108.5t37.5 -125q7 -45 16.5 -78t25.5 -55t40 -33t60 -11h65q42 0 56 -26.5t14 -77.5q0 -54 -15 -82t-55 -28h-115q-52 0 -93.5 36t-67.5 117q-17 -35 -39 -65
t-50.5 -52.5t-64.5 -35t-80 -12.5q-48 0 -89 12t-74.5 31t-60 43t-45.5 47q-25 -57 -62.5 -89t-86.5 -32h-329z" />
    <glyph glyph-name="uniFEE4_uniFE82.liga" unicode="&#xfee4;&#xfe82;" horiz-adv-x="1573" 
d="M29 1472q-2 -2 -7 -2q-6 0 -13 2t-9 8q3 33 13 65t26 56.5t36.5 39.5t43.5 15q18 0 40.5 -3.5t47.5 -9.5t51 -14t49 -17q121 -44 165 -44q27 0 45 9t29.5 22.5t17.5 29t8 29.5q1 7 5.5 9t8.5 2t6 -2q2 -7 2.5 -18.5t0.5 -21.5q0 -21 -4.5 -51.5t-19.5 -58.5t-42.5 -48
t-73.5 -20q-39 0 -86 13.5t-96 30.5q-48 17 -94 29.5t-88 12.5q-12 0 -21.5 -6.5t-17 -16t-13.5 -20.5t-10 -20zM1027 517q-20 0 -44 -10.5t-48.5 -38t-49 -75.5t-44.5 -122q52 -44 115 -59.5t134 -15.5q78 0 125.5 33t47.5 94q0 39 -21 74t-54.5 61.5t-76 42.5t-84.5 16z
M317 0q-44 30 -68.5 52.5t-36.5 42t-15 38t-3 40.5v1122q0 19 4 31t19 17l162 37l3 -2v-1164h250q28 0 51 23t41.5 59t33 81t26.5 90q16 56 39.5 104t55.5 83.5t73.5 55.5t92.5 20q67 0 121.5 -29t95.5 -76.5t67.5 -108.5t37.5 -125q7 -45 16.5 -78t25.5 -55t40 -33t60 -11
h65q42 0 56 -26.5t14 -77.5q0 -54 -15 -82t-55 -28h-115q-52 0 -93.5 36t-67.5 117q-17 -35 -39 -65t-50.5 -52.5t-64.5 -35t-80 -12.5q-48 0 -89 12t-74.5 31t-60 43t-45.5 47q-25 -57 -62.5 -89t-86.5 -32h-329z" />
    <glyph glyph-name="uniFEE4_uniFE84.liga" unicode="&#xfee4;&#xfe84;" horiz-adv-x="1532" 
d="M58 1464l39 96l89 10q-24 12 -40 38t-16 56t16.5 61t42.5 55.5t59 40t65 15.5q20 0 47.5 -8t49.5 -22l-54 -82q-37 25 -79 25q-32 0 -50 -18t-18 -44q0 -20 12 -37t32 -29t47 -19t56 -7q12 0 21 0.5t23 2.5l-42 -96zM985 517q-20 0 -44 -10.5t-48.5 -38t-49 -75.5
t-44.5 -122q52 -44 115 -59.5t134 -15.5q78 0 125.5 33t47.5 94q0 39 -21 74t-54.5 61.5t-76 42.5t-84.5 16zM275 0q-44 30 -68.5 52.5t-36.5 42t-15 38t-3 40.5v1122q0 19 4 31t19 17l162 37l3 -2v-1164h250q28 0 51 23t41.5 59t33 81t26.5 90q16 56 39.5 104t55.5 83.5
t73.5 55.5t92.5 20q67 0 121.5 -29t95.5 -76.5t67.5 -108.5t37.5 -125q7 -45 16.5 -78t25.5 -55t40 -33t60 -11h65q42 0 56 -26.5t14 -77.5q0 -54 -15 -82t-55 -28h-115q-52 0 -93.5 36t-67.5 117q-17 -35 -39 -65t-50.5 -52.5t-64.5 -35t-80 -12.5q-48 0 -89 12t-74.5 31
t-60 43t-45.5 47q-25 -57 -62.5 -89t-86.5 -32h-329z" />
    <glyph glyph-name="uniFEE4_uniFE88.liga" unicode="&#xfee4;&#xfe88;" horiz-adv-x="1531" 
d="M26 -514l39 96l89 10q-24 12 -40 38t-16 56t16.5 61t42.5 55.5t59 40t65 15.5q20 0 47.5 -8t49.5 -22l-54 -82q-37 25 -79 25q-32 0 -50 -18t-18 -44q0 -20 12 -37t32 -29t47 -19t56 -7q12 0 21 0.5t23 2.5l-42 -96zM985 517q-20 0 -44 -10.5t-48.5 -38t-49 -75.5
t-44.5 -122q52 -44 115 -59.5t134 -15.5q78 0 125.5 33t47.5 94q0 39 -21 74t-54.5 61.5t-76 42.5t-84.5 16zM275 0q-44 30 -68.5 52.5t-36.5 42t-15 38t-3 40.5v1122q0 19 4 31t19 17l162 37l3 -2v-1164h250q28 0 51 23t41.5 59t33 81t26.5 90q16 56 39.5 104t55.5 83.5
t73.5 55.5t92.5 20q67 0 121.5 -29t95.5 -76.5t67.5 -108.5t37.5 -125q7 -45 16.5 -78t25.5 -55t40 -33t60 -11h65q42 0 56 -26.5t14 -77.5q0 -54 -15 -82t-55 -28h-115q-52 0 -93.5 36t-67.5 117q-17 -35 -39 -65t-50.5 -52.5t-64.5 -35t-80 -12.5q-48 0 -89 12t-74.5 31
t-60 43t-45.5 47q-25 -57 -62.5 -89t-86.5 -32h-329z" />
    <glyph glyph-name="uniFEE8_uniFEAE.liga" unicode="&#xfee8;&#xfeae;" horiz-adv-x="1593" 
d="M1301 986l-139 -138l-138 138l138 139zM867 0q-72 0 -132 43.5t-98 128.5q-6 -59 -23 -120t-43.5 -118.5t-63 -108t-82 -88t-98.5 -59.5t-114 -22q-52 0 -91.5 18t-66 47.5t-40.5 67.5t-15 77q51 -10 96 -14.5t86 -4.5q82 0 141 18.5t96 53.5t54.5 85t17.5 112
q0 57 -13 115t-35 116t-51.5 114t-62.5 109q-9 14 -14 25.5t-5 22.5q0 20 12 26l180 93h4q63 -120 95 -230.5t38 -222.5q5 -15 19 -27.5t40 -22t64.5 -15t92.5 -5.5h371q0 32 -6.5 61.5t-24.5 66.5t-49.5 86t-82.5 121q-26 38 -26 60q0 14 5 21.5t16 12.5l164 79h4
q38 -78 62.5 -138.5t39 -109.5t20.5 -89.5t6 -78.5q0 -20 11.5 -36.5t37 -29t67.5 -19.5t104 -7h19q42 0 56 -26.5t14 -77.5q0 -54 -15 -82t-55 -28h-7q-40 0 -76.5 15t-68 42.5t-57.5 66t-44 86.5q-17 -55 -44.5 -111t-53.5 -99h-375z" />
    <glyph glyph-name="uniFEE7_uniFEE4.liga" unicode="&#xfee7;&#xfee4;" horiz-adv-x="1569" 
d="M1398 986l-139 -138l-138 138l138 139zM455 517q-20 0 -44 -10.5t-48.5 -38t-49 -75.5t-44.5 -122q52 -44 115 -59.5t134 -15.5q78 0 125.5 33t47.5 94q0 39 -21 74t-54.5 61.5t-76 42.5t-84.5 16zM887 0q-52 0 -93.5 36t-67.5 117q-17 -35 -39 -65t-50.5 -52.5
t-64.5 -35t-80 -12.5q-48 0 -89 12t-74.5 31t-60 43t-45.5 47q-25 -57 -62.5 -89t-86.5 -32h-74q-42 0 -56 26.5t-14 77.5q0 54 15 82t55 28h60q28 0 51 23t41.5 59t33 81t26.5 90q16 56 39.5 104t55.5 83.5t73.5 55.5t92.5 20q67 0 121.5 -29t95.5 -76.5t67.5 -108.5
t37.5 -125q7 -45 16.5 -78t25.5 -55t40 -33t60 -11h408q0 32 -7 61.5t-26 66.5t-51 86.5t-83 120.5q-26 38 -26 60q0 14 5 21.5t16 12.5l164 79h4q38 -78 62.5 -138.5t39 -109.5t20.5 -89.5t6 -78.5q0 -41 -9.5 -80.5t-25.5 -78t-36 -75t-41 -72.5h-470z" />
    <glyph glyph-name="uniFEE7_uniFEF0.liga" unicode="&#xfee7;&#xfef0;" horiz-adv-x="2020" 
d="M1848 986l-139 -138l-138 138l138 139zM1390 0q-66 0 -116 12.5t-85 27.5q-27 -69 -78 -137.5t-127.5 -123t-179.5 -88.5t-234 -34q-147 0 -254.5 41.5t-177.5 109.5t-104 156t-34 180q0 58 13 110t32.5 91t41 61.5t39.5 22.5q5 0 12.5 -3t12.5 -13q-22 -38 -35 -88
t-13 -95q0 -73 36 -132.5t102.5 -102t161 -66t210.5 -23.5q96 0 178 9t142.5 26.5t95 44t34.5 61.5q0 23 -11.5 36t-31.5 24q-31 17 -52 32t-34 30.5t-18.5 33t-5.5 40.5q0 42 12 84t26 64q103 -89 213.5 -133t209.5 -44h424q0 32 -7 61.5t-26 66.5t-51 86.5t-83 120.5
q-26 38 -26 60q0 14 5 21.5t16 12.5l164 79h4q38 -78 62.5 -138.5t39 -109.5t20.5 -89.5t6 -78.5q0 -41 -9.5 -80.5t-25.5 -78t-36 -75t-41 -72.5h-417z" />
    <glyph glyph-name="uniFEE7_uniFEF2.liga" unicode="&#xfee7;&#xfef2;" horiz-adv-x="2020" 
d="M829 -672l-134 -133l-116 115l-116 -115l-133 133l133 134l116 -117l116 117zM1848 986l-139 -138l-138 138l138 139zM1390 0q-66 0 -116 12.5t-85 27.5q-27 -69 -78 -137.5t-127.5 -123t-179.5 -88.5t-234 -34q-147 0 -254.5 41.5t-177.5 109.5t-104 156t-34 180
q0 58 13 110t32.5 91t41 61.5t39.5 22.5q5 0 12.5 -3t12.5 -13q-22 -38 -35 -88t-13 -95q0 -73 36 -132.5t102.5 -102t161 -66t210.5 -23.5q96 0 178 9t142.5 26.5t95 44t34.5 61.5q0 23 -11.5 36t-31.5 24q-31 17 -52 32t-34 30.5t-18.5 33t-5.5 40.5q0 42 12 84t26 64
q103 -89 213.5 -133t209.5 -44h424q0 32 -7 61.5t-26 66.5t-51 86.5t-83 120.5q-26 38 -26 60q0 14 5 21.5t16 12.5l164 79h4q38 -78 62.5 -138.5t39 -109.5t20.5 -89.5t6 -78.5q0 -41 -9.5 -80.5t-25.5 -78t-36 -75t-41 -72.5h-417z" />
    <glyph glyph-name="uniFEF4_uniFEAE.liga" unicode="&#xfef4;&#xfeae;" horiz-adv-x="1593" 
d="M1430 -369l-134 -133l-116 115l-116 -115l-133 133l133 134l116 -117l116 117zM867 0q-72 0 -132 43.5t-98 128.5q-6 -59 -23 -120t-43.5 -118.5t-63 -108t-82 -88t-98.5 -59.5t-114 -22q-52 0 -91.5 18t-66 47.5t-40.5 67.5t-15 77q51 -10 96 -14.5t86 -4.5
q82 0 141 18.5t96 53.5t54.5 85t17.5 112q0 57 -13 115t-35 116t-51.5 114t-62.5 109q-9 14 -14 25.5t-5 22.5q0 20 12 26l180 93h4q63 -120 95 -230.5t38 -222.5q5 -15 19 -27.5t40 -22t64.5 -15t92.5 -5.5h371q0 32 -6.5 61.5t-24.5 66.5t-49.5 86t-82.5 121
q-26 38 -26 60q0 14 5 21.5t16 12.5l164 79h4q38 -78 62.5 -138.5t39 -109.5t20.5 -89.5t6 -78.5q0 -20 11.5 -36.5t37 -29t67.5 -19.5t104 -7h19q42 0 56 -26.5t14 -77.5q0 -54 -15 -82t-55 -28h-7q-40 0 -76.5 15t-68 42.5t-57.5 66t-44 86.5q-17 -55 -44.5 -111
t-53.5 -99h-375z" />
    <glyph glyph-name="uniFEF3_uniFEE4.liga" unicode="&#xfef3;&#xfee4;" horiz-adv-x="1578" 
d="M1450 -369l-134 -133l-116 115l-116 -115l-133 133l133 134l116 -117l116 117zM455 517q-20 0 -44 -10.5t-48.5 -38t-49 -75.5t-44.5 -122q52 -44 115 -59.5t134 -15.5q78 0 125.5 33t47.5 94q0 39 -21 74t-54.5 61.5t-76 42.5t-84.5 16zM887 0q-52 0 -93.5 36t-67.5 117
q-17 -35 -39 -65t-50.5 -52.5t-64.5 -35t-80 -12.5q-48 0 -89 12t-74.5 31t-60 43t-45.5 47q-25 -57 -62.5 -89t-86.5 -32h-74q-42 0 -56 26.5t-14 77.5q0 54 15 82t55 28h60q28 0 51 23t41.5 59t33 81t26.5 90q16 56 39.5 104t55.5 83.5t73.5 55.5t92.5 20q67 0 121.5 -29
t95.5 -76.5t67.5 -108.5t37.5 -125q7 -45 16.5 -78t25.5 -55t40 -33t60 -11h408q0 32 -7 61.5t-26 66.5t-51 86.5t-83 120.5q-26 38 -26 60q0 14 5 21.5t16 12.5l164 79h4q38 -78 62.5 -138.5t39 -109.5t20.5 -89.5t6 -78.5q0 -41 -9.5 -80.5t-25.5 -78t-36 -75t-41 -72.5
h-470z" />
    <glyph glyph-name="uniFEF4_uniFEE6.liga" unicode="&#xfef4;&#xfee6;" horiz-adv-x="1902" 
d="M1789 -369l-134 -133l-116 115l-116 -115l-133 133l133 134l116 -117l116 117zM609 785l-139 -138l-138 138l138 139zM1171 0q-75 0 -136 46.5t-98 131.5q-12 -81 -51.5 -165t-103.5 -152.5t-151 -112t-193 -43.5q-101 0 -182 29.5t-138 85.5t-87.5 135.5t-30.5 180.5
q0 61 15 117t36.5 99t45 69t40.5 26q4 0 9.5 -4t12.5 -9q-10 -15 -18.5 -41t-14.5 -55t-9.5 -58.5t-3.5 -51.5q0 -67 28 -123.5t78.5 -98t121 -64.5t156.5 -23q91 0 150 22t93 56.5t47 76.5t13 82q0 45 -15.5 90.5t-40.5 89t-57 84t-65 75.5l199 118l5 -1q52 -75 81 -159
t34 -163q4 -16 17 -29.5t38.5 -24t65.5 -16.5t97 -6h376q0 32 -6.5 61.5t-24.5 66.5t-49.5 86t-82.5 121q-26 38 -26 60q0 14 5 21.5t16 12.5l164 79h4q38 -78 62.5 -138.5t39 -109.5t20.5 -89.5t6 -78.5q0 -20 11.5 -36.5t37 -29t67.5 -19.5t104 -7h19q42 0 56 -26.5
t14 -77.5q0 -54 -15 -82t-55 -28h-7q-40 0 -76.5 15t-68 42.5t-57.5 66t-44 86.5q-17 -55 -44.5 -111t-53.5 -99h-380z" />
    <glyph glyph-name="T_h.liga" unicode="Th" horiz-adv-x="1922" 
d="M970 960q-4 63 -27 85q-18 13 -43.5 18.5t-59.5 5.5h-197v-867q0 -34 9.5 -58t26.5 -40t40 -26t51 -16q16 -2 24 -11t8 -21q0 -15 -4 -30h-563q-4 15 -4 30q0 12 8 21t24 11q28 6 51.5 15.5t40.5 26t26.5 40t9.5 58.5v867h-193q-33 0 -58 -6t-42.5 -19.5t-29 -35.5
t-18.5 -55q-8 -24 -28 -24q-7 0 -15.5 2t-19.5 5l19 250h959q64 4 99 12t77.5 19.5t45.5 11.5q15 0 21.5 -9.5t6.5 -22.5v-484q26 24 58 47t68 41t75.5 29t81.5 11q67 0 115 -18t80.5 -49.5t49.5 -74t21 -90.5q2 -18 2 -39v-39v-371q0 -24 4 -40.5t15.5 -28t33 -19.5
t57.5 -16q15 -4 21.5 -10t6.5 -20q0 -5 -0.5 -12.5t-1.5 -13.5h-496q-1 5 -1 11.5v10.5q0 17 8 24.5t21 10.5q31 7 49 14.5t26.5 21t10.5 36t2 59.5v325q0 89 -35 126.5t-113 37.5q-37 0 -82.5 -6.5t-76.5 -15.5v-495q0 -24 4 -40.5t15.5 -28t33 -19.5t57.5 -16
q15 -4 21.5 -10t6.5 -20q0 -5 -0.5 -12.5t-1.5 -13.5h-495q-1 5 -1 11.5v10.5q0 17 8 24.5t21 10.5q31 7 49 14.5t26.5 21t10.5 36t2 59.5z" />
    <glyph glyph-name="f_b.liga" unicode="fb" horiz-adv-x="1616" 
d="M932 674l-4 -532q17 -8 56.5 -14.5t84.5 -6.5q52 0 99.5 12t77.5 44q23 30 41 84.5t18 129.5q0 63 -16.5 117.5t-47.5 95.5t-77 64.5t-104 23.5q-35 0 -72 -5q-34 -6 -56 -13zM684 823v266h4v92q-9 3 -29.5 5.5t-43.5 5t-45.5 3.5t-37.5 1q-42 0 -69 -13.5t-42.5 -41
t-22 -69t-6.5 -97.5v-152h292zM684 727h-292v-567q0 -49 17 -71.5t59 -32.5q17 -4 24 -12t7 -17q0 -5 -1 -12.5t-4 -14.5h-462q0 2 -0.5 7.5t-0.5 12.5q0 17 8 25.5t21 11.5q32 7 50 14.5t26.5 21t10.5 36t2 59.5v539h-129l21 96h108v71q0 11 1.5 21.5t3.5 21.5
q8 50 29.5 100.5t54 97t73 87t86 70.5t95 47t98.5 17q39 0 85.5 -5t93 -14t89 -20.5t74.5 -24.5v-560q47 52 111 81q66 29 144 29q80 0 144 -27.5t109 -76.5t69 -117t24 -148q0 -101 -41 -189.5t-109 -155t-155.5 -105t-180.5 -38.5q-30 0 -73.5 2t-92.5 5.5t-100 10
t-97 15.5v709z" />
    <glyph glyph-name="f_f_b.liga" unicode="ffb" horiz-adv-x="2224" 
d="M1670 692q-35 0 -72 -5.5t-60 -13.5v-531q17 -8 56.5 -14.5t84.5 -6.5q52 0 99.5 12t77.5 44q23 30 41 84.5t18 129.5q0 63 -16.5 117.5t-47.5 95.5t-77 64.5t-104 23.5zM1294 727h-293v-567q0 -49 17 -71.5t59 -32.5q17 -4 24 -12t7 -17q0 -5 -1 -12.5t-4 -14.5h-463
q0 2 -0.5 7.5t-0.5 12.5q0 17 8 25.5t21 11.5q32 7 50 14.5t26.5 21t10.5 36t2 59.5v539h-364v-567q0 -49 17 -71.5t59 -32.5q17 -4 24 -12t7 -17q0 -5 -1 -12.5t-4 -14.5h-463q0 2 -0.5 7.5t-0.5 12.5q0 17 8 25.5t21 11.5q32 7 50 14.5t26.5 21t10.5 36t2 59.5v539h-129
l21 96h108v71q0 11 1.5 21.5t3.5 21.5q12 75 54.5 150t105 134.5t140 97t159.5 37.5q105 0 165 -25t60 -86q0 -38 -27 -98q-55 17 -116 26.5t-124 9.5q-56 0 -90.5 -11.5t-54 -36.5t-26.5 -64.5t-7 -95.5v-152h364v71q0 11 1.5 21.5t3.5 21.5q8 50 30 100.5t54 97t72.5 87
t86.5 70.5t95.5 47t98.5 17q39 0 85.5 -5t93 -14t89 -20.5t74.5 -24.5v-561q47 53 112 82q66 29 144 29q80 0 144 -27.5t109 -76.5t69 -117t24 -148q0 -101 -41 -189.5t-109 -155t-155.5 -105t-180.5 -38.5q-30 0 -73.5 2t-92.5 5.5t-100 10t-97 15.5v709zM1294 823l3 358
q-9 3 -29.5 5.5t-43.5 5t-45.5 3.5t-37.5 1q-42 0 -69 -13.5t-42.5 -41t-22 -69t-6.5 -97.5v-152h293z" />
    <glyph glyph-name="f_f.liga" unicode="ff" horiz-adv-x="1313" 
d="M393 727v-567q0 -49 17 -72t59 -33q17 -4 24 -12t7 -17q0 -5 -1 -12t-4 -14h-463q0 2 -0.5 7t-0.5 12q0 17 8 25.5t21 11.5q32 7 50 15t26.5 21.5t10.5 36t2 59.5v539h-129l21 96h108v71q0 11 1.5 21.5t3.5 21.5q12 75 54.5 150t105 134.5t140 97t159.5 37.5
q105 0 165 -25t60 -86q0 -38 -27 -98q-55 17 -116 26.5t-124 9.5q-56 0 -90.5 -11.5t-54 -36.5t-26.5 -64.5t-7 -95.5v-152h364v71q0 11 1.5 21.5t3.5 21.5q8 50 29.5 100.5t53.5 97t72 87t84.5 70.5t91.5 47t93 17q78 0 122.5 -25t44.5 -86q0 -38 -27 -98q-55 17 -98 26.5
t-85 9.5q-41 0 -68 -11.5t-43.5 -36.5t-23.5 -64.5t-7 -95.5v-152h235v-96h-235v-567q0 -25 4 -41.5t16 -28t33.5 -19.5t57.5 -16q15 -4 21.5 -10t6.5 -20q0 -5 -0.5 -12t-1.5 -13h-498q0 2 -0.5 7t-0.5 12q0 17 8 25.5t21 11.5q32 7 50 15t26.5 21.5t10.5 36t2 59.5v539
h-364z" />
    <glyph glyph-name="f_h.liga" unicode="fh" horiz-adv-x="1633" 
d="M691 727h-299v-567q0 -49 17 -71.5t59 -32.5q17 -4 24 -12t7 -17q0 -5 -1 -12.5t-4 -14.5h-462q0 2 -0.5 7.5t-0.5 12.5q0 17 8 25.5t21 11.5q32 7 50 14.5t26.5 21t10.5 36t2 59.5v539h-129l21 96h108v71q0 11 1.5 21.5t3.5 21.5q8 50 29.5 100.5t54 97t73 87t86 70.5
t95 47t98.5 17q39 0 85.5 -5t93 -14t89 -20.5t74.5 -24.5v-573q23 21 51 41q32 23 68 41t75.5 29t81.5 11q67 0 115 -18t80.5 -49.5t49.5 -74t21 -90.5q2 -18 2 -39v-39v-371q0 -24 4 -40.5t15.5 -28t33 -19.5t57.5 -16q15 -4 21.5 -10t6.5 -20q0 -5 -0.5 -12.5t-1.5 -13.5
h-496q-1 5 -1 11.5v10.5q0 17 8 24.5t21 10.5q31 7 49 14.5t26.5 21t10.5 36t2 59.5v325q0 89 -35 126.5t-113 37.5q-37 0 -82 -6q-41 -6 -70 -14v-497q0 -25 4 -41.5t16 -28.5t33.5 -19.5t57.5 -14.5q17 -3 24 -11.5t7 -17.5q0 -5 -1 -12.5t-4 -14.5h-465q0 2 -0.5 7.5
t-0.5 12.5q0 18 8.5 26.5t20.5 10.5q16 3 27 10.5t17.5 22.5t9 38.5t2.5 59.5zM691 823l-3 358q-9 3 -29.5 5.5t-43.5 5t-45.5 3.5t-37.5 1q-42 0 -69 -13.5t-42.5 -41t-22 -69t-6.5 -97.5v-152h299z" />
    <glyph glyph-name="f_f_h.liga" unicode="ffh" horiz-adv-x="2241" 
d="M1297 1181q-9 3 -29.5 5.5t-43.5 5t-45.5 3.5t-37.5 1q-42 0 -69 -13.5t-42.5 -41t-22 -69t-6.5 -97.5v-152h296v358zM1541 657v-497q0 -25 4 -41.5t16 -28.5t33.5 -19.5t57.5 -14.5q17 -3 24 -11.5t7 -17.5q0 -5 -1 -12.5t-4 -14.5h-465q0 2 -0.5 7.5t-0.5 12.5
q0 18 8.5 26.5t20.5 10.5q16 3 27 10.5t17.5 22.5t9 38.5t2.5 59.5v539h-296v-567q0 -49 17 -71.5t59 -32.5q17 -4 24 -12t7 -17q0 -5 -1 -12.5t-4 -14.5h-463q0 2 -0.5 7.5t-0.5 12.5q0 17 8 25.5t21 11.5q32 7 50 14.5t26.5 21t10.5 36t2 59.5v539h-364v-567
q0 -49 17 -71.5t59 -32.5q17 -4 24 -12t7 -17q0 -5 -1 -12.5t-4 -14.5h-463q0 2 -0.5 7.5t-0.5 12.5q0 17 8 25.5t21 11.5q32 7 50 14.5t26.5 21t10.5 36t2 59.5v539h-129l21 96h108v71q0 11 1.5 21.5t3.5 21.5q12 75 54.5 150t105 134.5t140 97t159.5 37.5q105 0 165 -25
t60 -86q0 -38 -27 -98q-55 17 -116 26.5t-124 9.5q-56 0 -90.5 -11.5t-54 -36.5t-26.5 -64.5t-7 -95.5v-152h364v71q0 11 1.5 21.5t3.5 21.5q8 50 30 100.5t54 97t72.5 87t86.5 70.5t95.5 47t98.5 17q39 0 85.5 -5t93 -14t89 -20.5t74.5 -24.5v-574q24 22 52 42q32 23 68 41
t75.5 29t81.5 11q67 0 115 -18t80.5 -49.5t49.5 -74t21 -90.5q2 -18 2 -39v-39v-371q0 -24 4 -40.5t15.5 -28t33 -19.5t57.5 -16q15 -4 21.5 -10t6.5 -20q0 -5 -0.5 -12.5t-1.5 -13.5h-496q-1 5 -1 11.5v10.5q0 17 8 24.5t21 10.5q31 7 49 14.5t26.5 21t10.5 36t2 59.5v325
q0 89 -35 126.5t-113 37.5q-37 0 -82 -6q-42 -6 -71 -14z" />
    <glyph glyph-name="f_f_i.liga" unicode="ffi" horiz-adv-x="1704" 
d="M393 160q0 -49 17 -71.5t59 -32.5q17 -4 24 -12t7 -17q0 -5 -1 -12.5t-4 -14.5h-463q0 2 -0.5 7.5t-0.5 12.5q0 17 8 25.5t21 11.5q32 7 50 14.5t26.5 21t10.5 36t2 59.5v539h-129l21 96h108v71q0 11 1.5 21.5t3.5 21.5q12 75 54.5 150t105 134.5t140 97t159.5 37.5
q105 0 165 -25t60 -86q0 -38 -27 -98q-55 17 -116 26.5t-124 9.5q-56 0 -90.5 -11.5t-54 -36.5t-26.5 -64.5t-7 -95.5v-152h364v71q0 11 1.5 21.5t3.5 21.5q12 75 54.5 150t105 134.5t140 97t159.5 37.5q52 0 97.5 -6t79 -19t52.5 -34.5t19 -51.5q0 -38 -27 -98
q-27 9 -60 15.5t-68 11t-70 7t-65 2.5q-56 0 -90.5 -11.5t-54 -36.5t-26.5 -64.5t-7 -95.5v-152h526v-663q0 -25 4 -41.5t16 -28.5t33.5 -19.5t57.5 -14.5q17 -3 24 -11.5t7 -17.5q0 -5 -1 -12.5t-4 -14.5h-465q0 2 -0.5 7.5t-0.5 12.5q0 18 8.5 26.5t20.5 10.5
q16 3 27 10.5t17.5 22.5t9 38.5t2.5 59.5v539h-282v-567q0 -49 17 -71.5t59 -32.5q17 -4 24 -12t7 -17q0 -5 -1 -12.5t-4 -14.5h-463q0 2 -0.5 7.5t-0.5 12.5q0 17 8 25.5t21 11.5q32 7 50 14.5t26.5 21t10.5 36t2 59.5v539h-364v-567z" />
    <glyph glyph-name="f_j.liga" unicode="fj" horiz-adv-x="1121" 
d="M703 208h-3v519h-307v-567q0 -49 17 -71.5t59 -32.5q17 -4 24 -12t7 -17q0 -5 -1 -12.5t-4 -14.5h-463q0 2 -0.5 5t-0.5 10q0 17 8 28t21 14q32 7 50 14.5t26.5 21t10.5 36t2 59.5v539h-129l21 96h108v71q0 11 1.5 21.5t3.5 21.5q12 75 54.5 150t105 134.5t140 97
t159.5 37.5q52 0 97.5 -6t79 -19t52.5 -34.5t19 -51.5q0 -38 -27 -98q-27 9 -60 15.5t-68 11t-70 7t-65 2.5q-56 0 -90.5 -11.5t-54 -36.5t-26.5 -64.5t-7 -95.5v-152h551v-551h3v-200q0 -44 -17.5 -98t-46.5 -109.5t-66 -108t-77 -93t-79 -65t-72 -24.5q-23 0 -44.5 8.5
t-38 24.5t-26.5 39.5t-10 52.5q0 11 1 25t3 25q78 16 124 30.5t69 41t29.5 72t6.5 122.5v193z" />
    <glyph glyph-name="f_f_j.liga" unicode="ffj" horiz-adv-x="1704" 
d="M1283 727h-282v-567q0 -49 17 -71.5t59 -32.5q17 -4 24 -12t7 -17q0 -5 -1 -12.5t-4 -14.5h-463q0 2 -0.5 7.5t-0.5 12.5q0 17 8 25.5t21 11.5q32 7 50 14.5t26.5 21t10.5 36t2 59.5v539h-364v-567q0 -49 17 -71.5t59 -32.5q17 -4 24 -12t7 -17q0 -5 -1 -12.5t-4 -14.5
h-463q0 2 -0.5 7.5t-0.5 12.5q0 17 8 25.5t21 11.5q32 7 50 14.5t26.5 21t10.5 36t2 59.5v539h-129l21 96h108v71q0 11 1.5 21.5t3.5 21.5q12 75 54.5 150t105 134.5t140 97t159.5 37.5q105 0 165 -25t60 -86q0 -38 -27 -98q-55 17 -116 26.5t-124 9.5q-56 0 -90.5 -11.5
t-54 -36.5t-26.5 -64.5t-7 -95.5v-152h364v71q0 11 1.5 21.5t3.5 21.5q12 75 54.5 150t105 134.5t140 97t159.5 37.5q52 0 97.5 -6t79 -19t52.5 -34.5t19 -51.5q0 -38 -27 -98q-27 9 -60 15.5t-68 11t-70 7t-65 2.5q-56 0 -90.5 -11.5t-54 -36.5t-26.5 -64.5t-7 -95.5v-152
h526v-751q0 -44 -17.5 -98t-46.5 -109.5t-66 -108t-77 -93t-79 -65t-72 -24.5q-23 0 -44.5 8.5t-38 24.5t-26.5 39.5t-10 52.5q0 11 1 25t3 25q78 16 124 30.5t69 41t29.5 72t6.5 122.5v712z" />
    <glyph glyph-name="f_k.liga" unicode="fk" horiz-adv-x="1586" 
d="M688 1181q-9 3 -29.5 5.5t-43.5 5t-45.5 3.5t-37.5 1q-42 0 -69 -13.5t-42.5 -41t-22 -69t-6.5 -97.5v-152h296v358zM932 390v-230q0 -25 4 -41.5t16 -28.5t33.5 -19.5t57.5 -14.5q17 -3 24 -11.5t7 -17.5q0 -5 -1 -12.5t-4 -14.5h-465q0 2 -0.5 7.5t-0.5 12.5
q0 18 8.5 26.5t20.5 10.5q16 3 27 10.5t17.5 22.5t9 38.5t2.5 59.5v539h-296v-567q0 -49 17 -71.5t59 -32.5q17 -4 24 -12t7 -17q0 -5 -1 -12.5t-4 -14.5h-462q0 2 -0.5 7.5t-0.5 12.5q0 17 8 25.5t21 11.5q32 7 50 14.5t26.5 21t10.5 36t2 59.5v539h-129l21 96h108v71
q0 11 1.5 21.5t3.5 21.5q8 50 29.5 100.5t54 97t73 87t86 70.5t95 47t98.5 17q39 0 85.5 -5t93 -14t89 -20.5t74.5 -24.5v-793q30 23 59 46q32 26 59 49t47 41.5t31 29.5q28 28 35 42.5t7 24.5q0 11 -9 20t-37 15q-32 6 -32 29q0 12 9 27h410q5 -12 5 -20q0 -13 -8 -23.5
t-22 -12.5q-75 -9 -152 -63q-16 -12 -36 -28t-41 -33t-41.5 -34.5t-38.5 -32.5q-21 -17 -36.5 -31t-22.5 -20q19 -28 43.5 -63t53 -72.5t59.5 -75.5t62 -71q63 -66 125.5 -112.5t122.5 -55.5q-23 -41 -69 -69.5t-106 -28.5q-29 0 -58 6.5t-57 21.5q-36 19 -78.5 59.5
t-88 94.5t-91 117.5t-87.5 128.5l-10 -8z" />
    <glyph glyph-name="f_f_k.liga" unicode="ffk" horiz-adv-x="2194" 
d="M1297 1181q-9 3 -29.5 5.5t-43.5 5t-45.5 3.5t-37.5 1q-42 0 -69 -13.5t-42.5 -41t-22 -69t-6.5 -97.5v-152h296v358zM1541 389v-229q0 -25 4 -41.5t16 -28.5t33.5 -19.5t57.5 -14.5q17 -3 24 -11.5t7 -17.5q0 -5 -1 -12.5t-4 -14.5h-465q0 2 -0.5 7.5t-0.5 12.5
q0 18 8.5 26.5t20.5 10.5q16 3 27 10.5t17.5 22.5t9 38.5t2.5 59.5v539h-296v-567q0 -49 17 -71.5t59 -32.5q17 -4 24 -12t7 -17q0 -5 -1 -12.5t-4 -14.5h-463q0 2 -0.5 7.5t-0.5 12.5q0 17 8 25.5t21 11.5q32 7 50 14.5t26.5 21t10.5 36t2 59.5v539h-364v-567
q0 -49 17 -71.5t59 -32.5q17 -4 24 -12t7 -17q0 -5 -1 -12.5t-4 -14.5h-463q0 2 -0.5 7.5t-0.5 12.5q0 17 8 25.5t21 11.5q32 7 50 14.5t26.5 21t10.5 36t2 59.5v539h-129l21 96h108v71q0 11 1.5 21.5t3.5 21.5q12 75 54.5 150t105 134.5t140 97t159.5 37.5q105 0 165 -25
t60 -86q0 -38 -27 -98q-55 17 -116 26.5t-124 9.5q-56 0 -90.5 -11.5t-54 -36.5t-26.5 -64.5t-7 -95.5v-152h364v71q0 11 1.5 21.5t3.5 21.5q8 50 30 100.5t54 97t72.5 87t86.5 70.5t95.5 47t98.5 17q39 0 85.5 -5t93 -14t89 -20.5t74.5 -24.5v-794q30 24 60 47q32 26 59 49
t47 41.5t31 29.5q28 28 35 42.5t7 24.5q0 11 -9 20t-37 15q-32 6 -32 29q0 12 9 27h410q5 -12 5 -20q0 -13 -8 -23.5t-22 -12.5q-75 -9 -152 -63q-16 -12 -36 -28t-41 -33t-41.5 -34.5t-38.5 -32.5q-21 -17 -36.5 -31t-22.5 -20q19 -28 43.5 -63t53 -72.5t59.5 -75.5t62 -71
q63 -66 125.5 -112.5t122.5 -55.5q-23 -41 -69 -69.5t-106 -28.5q-29 0 -58 6.5t-57 21.5q-36 19 -78.5 59.5t-88 94.5t-91 117.5t-87.5 128.5l-10 -8z" />
    <glyph glyph-name="f_f_l.liga" unicode="ffl" horiz-adv-x="1718" 
d="M1297 1181q-9 3 -29.5 5.5t-43.5 5t-45.5 3.5t-37.5 1q-42 0 -69 -13.5t-42.5 -41t-22 -69t-6.5 -97.5v-152h296v358zM393 727v-567q0 -49 17 -71.5t59 -32.5q17 -4 24 -12t7 -17q0 -5 -1 -12.5t-4 -14.5h-463q0 2 -0.5 7.5t-0.5 12.5q0 17 8 25.5t21 11.5q32 7 50 14.5
t26.5 21t10.5 36t2 59.5v539h-129l21 96h108v71q0 11 1.5 21.5t3.5 21.5q12 75 54.5 150t105 134.5t140 97t159.5 37.5q105 0 165 -25t60 -86q0 -38 -27 -98q-55 17 -116 26.5t-124 9.5q-56 0 -90.5 -11.5t-54 -36.5t-26.5 -64.5t-7 -95.5v-152h364v71q0 11 1.5 21.5
t3.5 21.5q8 50 30 100.5t54 97t72.5 87t86.5 70.5t95.5 47t98.5 17q39 0 85.5 -5t93 -14t89 -20.5t74.5 -24.5v-1132q0 -25 4 -41.5t16 -28.5t33.5 -19.5t57.5 -14.5q17 -3 24 -11.5t7 -17.5q0 -5 -1 -12.5t-4 -14.5h-465q0 2 -0.5 7.5t-0.5 12.5q0 18 8.5 26.5t20.5 10.5
q16 3 27 10.5t17.5 22.5t9 38.5t2.5 59.5v539h-296v-567q0 -49 17 -71.5t59 -32.5q17 -4 24 -12t7 -17q0 -5 -1 -12.5t-4 -14.5h-463q0 2 -0.5 7.5t-0.5 12.5q0 17 8 25.5t21 11.5q32 7 50 14.5t26.5 21t10.5 36t2 59.5v539h-364z" />
    <glyph glyph-name="f_t.liga" unicode="ft" horiz-adv-x="1212" 
d="M702 823v210l244 56v-266h224v-113h-224v-453q0 -61 26 -97t94 -36q25 0 57 5t69 14l7 -10q-45 -76 -117 -116t-163 -40q-49 0 -89 11t-68.5 33.5t-44 57t-15.5 82.5v549h-309v-550q0 -49 17 -71.5t59 -32.5q17 -4 24 -12t7 -17q0 -5 -1 -12.5t-4 -14.5h-463q0 2 -0.5 5
t-0.5 10q0 17 8 28t21 14q32 7 50 14.5t26.5 21t10.5 36t2 59.5v539h-129l21 96h108v71q0 11 1.5 21.5t3.5 21.5q12 75 54.5 150t105 134.5t140 97t159.5 37.5q52 0 97.5 -6t79 -19t52.5 -34.5t19 -51.5q0 -38 -27 -98q-27 9 -60 15.5t-68 11t-70 7t-65 2.5
q-56 0 -90.5 -11.5t-54 -36.5t-26.5 -64.5t-7 -95.5v-152h309z" />
    <glyph glyph-name="f_f_t.liga" unicode="fft" horiz-adv-x="1786" 
d="M1001 710v-550q0 -49 17 -71.5t59 -32.5q17 -4 24 -12t7 -17q0 -5 -1 -12.5t-4 -14.5h-463q0 2 -0.5 7.5t-0.5 12.5q0 17 8 25.5t21 11.5q32 7 50 14.5t26.5 21t10.5 36t2 59.5v539h-364v-567q0 -49 17 -71.5t59 -32.5q17 -4 24 -12t7 -17q0 -5 -1 -12.5t-4 -14.5h-463
q0 2 -0.5 7.5t-0.5 12.5q0 17 8 25.5t21 11.5q32 7 50 14.5t26.5 21t10.5 36t2 59.5v539h-129l21 96h108v71q0 11 1.5 21.5t3.5 21.5q12 75 54.5 150t105 134.5t140 97t159.5 37.5q105 0 165 -25t60 -86q0 -38 -27 -98q-55 17 -116 26.5t-124 9.5q-56 0 -90.5 -11.5
t-54 -36.5t-26.5 -64.5t-7 -95.5v-152h364v71q0 11 1.5 21.5t3.5 21.5q12 75 54.5 150t105 134.5t140 97t159.5 37.5q52 0 97.5 -6t79 -19t52.5 -34.5t19 -51.5q0 -38 -27 -98q-27 9 -60 15.5t-68 11t-70 7t-65 2.5q-56 0 -90.5 -11.5t-54 -36.5t-26.5 -64.5t-7 -95.5v-152
h281v210l244 56v-266h224v-113h-224v-453q0 -61 26 -97t94 -36q25 0 57 5t69 14l7 -10q-45 -76 -117 -116t-163 -40q-49 0 -89 11t-68.5 33.5t-44 57t-15.5 82.5v549h-281z" />
    <glyph glyph-name="uni0647.fina" unicode="&#x647;" horiz-adv-x="1310" arabic-form="final" 
d="M234 214q-11 30 -18 67t-7 69q0 55 23.5 105.5t69 101.5t112.5 106t154 120q93 -8 181 -38.5t156.5 -85t110 -134t41.5 -185.5v-37q0 -18 11 -34t36.5 -28t67 -19.5t103.5 -7.5h35q42 0 56 -26.5t14 -77.5q0 -54 -15 -82t-55 -28h-23q-81 0 -146 54t-100 156
q-11 -52 -26.5 -106.5t-35.5 -103.5h-802q-33 0 -53.5 -17.5t-20.5 -51.5q0 -15 11 -59l-9 -5q-15 13 -33.5 35t-34.5 51t-26.5 63.5t-10.5 73.5q0 41 15 65.5t39.5 37.5t56.5 17t66 4h57zM922 214q2 8 3 21.5t1 26.5q0 69 -25 123.5t-71 94.5t-112 65t-148 36
q54 -51 81 -120t27 -141q0 -24 -2 -53.5t-7 -52.5h253zM417 214q37 0 66 15.5t49 38.5t30.5 49.5t10.5 48.5q0 57 -33 93.5t-90 36.5q-28 0 -50.5 -11t-38 -30t-24 -44.5t-8.5 -54.5q0 -27 6.5 -51t15.5 -42.5t18.5 -31t16.5 -17.5h31z" />
    <glyph glyph-name="uni0672.fina" unicode="&#x672;" horiz-adv-x="532" 
d="M152 1295q0 19 4 31t19 17l162 37l3 -2v-1164h192q42 0 56 -26.5t14 -77.5q0 -54 -15 -82t-55 -28h-257q-44 30 -68.5 52.5t-36.5 42t-15 38t-3 40.5v1122zM366 1517q14 3 31 6l55 10q-1 -13 -3 -31q-4 -29 -10 -49q-13 -5 -28 -9q-16 -4 -34 -6q-34 -4 -63 -4
q-32 0 -61.5 4t-55.5 9q-25 5 -44 8.5t-31 3.5q-32 0 -59.5 -16.5t-36.5 -37.5q-4 9 -5 18.5t-1 20.5q0 43 23 70.5t63 27.5q20 0 42 -3t36 -7l51 -9q-4 9 -5 19q-3 12 -3 21q0 17 5.5 34.5t16 33.5t24 31t29.5 25.5t32 16.5t33 6q24 0 37 -9.5t13 -23.5q0 -7 -2 -18.5
t-8 -28.5q-17 6 -35 9t-31 3q-20 0 -32 -5t-19 -12.5t-9.5 -16.5t-2.5 -18q0 -12 5.5 -24.5t16 -23.5t26 -18t35.5 -7h5z" />
    <glyph glyph-name="uni0673.fina" unicode="&#x673;" horiz-adv-x="532" 
d="M152 1295q0 19 4 31t19 17l162 37l3 -2v-1164h192q42 0 56 -26.5t14 -77.5q0 -54 -15 -82t-55 -28h-257q-44 30 -68.5 52.5t-36.5 42t-15 38t-3 40.5v1122zM366 -273q14 3 31 6l55 10q-1 -13 -3 -31q-4 -29 -10 -49q-13 -5 -28 -9q-16 -4 -34 -6q-34 -4 -63 -4
q-32 0 -61.5 4t-55.5 9q-25 5 -44 8.5t-31 3.5q-32 0 -59.5 -16.5t-36.5 -37.5q-4 9 -5 18.5t-1 20.5q0 43 23 70.5t63 27.5q20 0 42 -3t36 -7l51 -9q-4 9 -5 19q-3 12 -3 21q0 17 5.5 34.5t16 33.5t24 31t29.5 25.5t32 16.5t33 6q24 0 37 -9.5t13 -23.5q0 -7 -2 -18.5
t-8 -28.5q-17 6 -35 9t-31 3q-20 0 -32 -5t-19 -12.5t-9.5 -16.5t-2.5 -18q0 -12 5.5 -24.5t16 -23.5t26 -18t35.5 -7h5z" />
    <glyph glyph-name="uni0675.fina" unicode="&#x675;" horiz-adv-x="791" 
d="M152 1295q0 19 4 31t19 17l162 37l3 -2v-1164h452q42 0 56 -26.5t14 -77.5q0 -54 -15 -82t-55 -28h-517q-44 30 -68.5 52.5t-36.5 42t-15 38t-3 40.5v1122zM358 1464l39 96l89 10q-24 12 -40 38t-16 56t16.5 61t42.5 55.5t59 40t65 15.5q20 0 47.5 -8t49.5 -22l-54 -82
q-37 25 -79 25q-32 0 -50 -18t-18 -44q0 -20 12 -37t32 -29t47 -19t56 -7q12 0 21 0.5t23 2.5l-42 -96z" />
    <glyph glyph-name="uni0676.fina" unicode="&#x676;" horiz-adv-x="994" 
d="M718 214h276q42 0 56 -26.5t14 -77.5q0 -54 -15 -82t-55 -28h-312q-25 -72 -64.5 -135t-90.5 -109.5t-112 -73t-129 -26.5q-51 0 -86 20t-57 50.5t-32 67.5t-11 72q96 -18 170 -18q121 0 190 41t97 119q-86 1 -164 23.5t-137 63.5t-93.5 99.5t-34.5 132.5q0 81 37 153
t98 126t139 85.5t160 31.5h13.5t14.5 -1q26 -32 49 -86t40.5 -120t28 -140t10.5 -146v-16zM573 214q-1 31 -8.5 76.5t-20.5 92.5t-31 90t-40 69q-39 0 -76 -7.5t-66 -25t-46.5 -46t-17.5 -70.5q0 -35 19.5 -67t58 -57t95.5 -40t133 -15zM570 860l48 116l70 8
q-17 16 -28 40.5t-11 51.5q0 33 17.5 66t44.5 59.5t60.5 43.5t66.5 17q20 0 50 -9.5t56 -26.5l-62 -93q-37 22 -81 22q-33 0 -51.5 -16.5t-18.5 -38.5q0 -19 12.5 -35t33.5 -28t48.5 -18.5t56.5 -6.5h26t26 4l-52 -116z" />
    <glyph glyph-name="uni0677.fina" unicode="&#x677;" horiz-adv-x="994" 
d="M718 214h276q42 0 56 -26.5t14 -77.5q0 -54 -15 -82t-55 -28h-312q-25 -72 -64.5 -135t-90.5 -109.5t-112 -73t-129 -26.5q-51 0 -86 20t-57 50.5t-32 67.5t-11 72q96 -18 170 -18q121 0 190 41t97 119q-86 1 -164 23.5t-137 63.5t-93.5 99.5t-34.5 132.5q0 81 37 153
t98 126t139 85.5t160 31.5h13.5t14.5 -1q26 -32 49 -86t40.5 -120t28 -140t10.5 -146v-16zM573 214q-1 31 -8.5 76.5t-20.5 92.5t-31 90t-40 69q-39 0 -76 -7.5t-66 -25t-46.5 -46t-17.5 -70.5q0 -35 19.5 -67t58 -57t95.5 -40t133 -15zM570 860l48 116l70 8
q-17 16 -28 40.5t-11 51.5q0 33 17.5 66t44.5 59.5t60.5 43.5t66.5 17q20 0 50 -9.5t56 -26.5l-62 -93q-37 22 -81 22q-33 0 -51.5 -16.5t-18.5 -38.5q0 -19 12.5 -35t33.5 -28t48.5 -18.5t56.5 -6.5h26t26 4l-52 -116zM388 1223q33 0 60.5 -13t48 -31.5t32 -39.5t13.5 -38
q-10 -40 -39.5 -81.5t-72 -76.5t-96 -57t-112.5 -22q-31 0 -53.5 8t-36.5 20t-20.5 27t-6.5 29q28 -7 58 -7q35 0 64 5.5t51 12.5t35.5 14.5t17.5 12.5q-63 53 -63 118q0 27 10.5 49.5t28 37.5t39 23.5t42.5 8.5zM410 1145q-28 0 -41.5 -17.5t-13.5 -41.5q0 -35 26 -62
q14 10 27 23.5t23 27t17.5 25t11.5 18.5q-10 15 -23.5 21t-26.5 6z" />
    <glyph glyph-name="uni0678.init" unicode="&#x678;" horiz-adv-x="901" 
d="M0 0q-42 0 -56 26.5t-14 77.5q0 54 15 82t55 28h345q0 32 -7 61.5t-26 66.5t-51 86.5t-83 120.5q-26 38 -26 60q0 14 5 21.5t16 12.5l164 79h4q38 -78 62.5 -138.5t39 -109.5t20.5 -89.5t6 -78.5q0 -41 -9.5 -80.5t-25.5 -78t-36 -75t-41 -72.5h-357zM322 790l61 147
l89 11q-21 20 -35 51.5t-14 65.5q0 42 22 84t56.5 75.5t77.5 55t85 21.5q25 0 63 -11.5t71 -33.5l-79 -119q-46 29 -102 29q-42 0 -66 -21t-24 -50q0 -24 16 -44.5t42.5 -35.5t61.5 -23.5t73 -8.5q16 0 32.5 0.5t33.5 5.5l-66 -148z" />
    <glyph glyph-name="uni0678.medi" unicode="&#x678;" horiz-adv-x="862" 
d="M0 0q-42 0 -56 26.5t-14 77.5q0 54 15 82t55 28h345q0 32 -6.5 61.5t-24.5 66.5t-49.5 86t-82.5 121q-26 38 -26 60q0 14 5 21.5t16 12.5l164 79h4q38 -78 62.5 -138.5t39 -109.5t20.5 -89.5t6 -78.5q0 -20 11.5 -36.5t37 -29t67.5 -19.5t104 -7h169q42 0 56 -26.5
t14 -77.5q0 -54 -15 -82t-55 -28h-7q-190 0 -226.5 15t-68 42.5t-57.5 66t-44 86.5q-17 -55 -44.5 -111t-53.5 -99h-361zM323 790l61 147l89 11q-21 20 -35 51.5t-14 65.5q0 42 22 84t56.5 75.5t77.5 55t85 21.5q25 0 63 -11.5t71 -33.5l-79 -119q-46 29 -102 29
q-42 0 -66 -21t-24 -50q0 -24 16 -44.5t42.5 -35.5t61.5 -23.5t73 -8.5q16 0 32.5 0.5t33.5 5.5l-66 -148z" />
    <glyph glyph-name="uni0678.fina" unicode="&#x678;" horiz-adv-x="1605" 
d="M1390 0q-66 0 -116 12.5t-85 27.5q-27 -69 -78 -137.5t-127.5 -123t-179.5 -88.5t-234 -34q-147 0 -254.5 41.5t-177.5 109.5t-104 156t-34 180q0 58 13 110t32.5 91t41 61.5t39.5 22.5q5 0 12.5 -3t12.5 -13q-22 -38 -35 -88t-13 -95q0 -73 36 -132.5t102.5 -102
t161 -66t210.5 -23.5q96 0 178 9t142.5 26.5t95 44t34.5 61.5q0 23 -11.5 36t-31.5 24q-31 17 -52 32t-34 30.5t-18.5 33t-5.5 40.5q0 42 12 84t26 64q103 -89 213.5 -133t209.5 -44h234q42 0 56 -26.5t14 -77.5q0 -54 -15 -82t-55 -28h-215zM1087 490l61 147l89 11
q-21 20 -35 51.5t-14 65.5q0 42 22 84t56.5 75.5t77.5 55t85 21.5q25 0 63 -11.5t71 -33.5l-79 -119q-46 29 -102 29q-42 0 -66 -21t-24 -50q0 -24 16 -44.5t42.5 -35.5t61.5 -23.5t73 -8.5q16 0 32.5 0.5t33.5 5.5l-66 -148z" />
    <glyph glyph-name="uni067C.init" unicode="&#x67c;" horiz-adv-x="569" 
d="M503 956l-134 -133l-116 115l-116 -115l-133 133l133 134l116 -117l116 117zM194 0q-15 0 -28 -8.5t-25 -22.5t-21.5 -31.5t-16.5 -35t-10.5 -34t-3.5 -28.5q0 -13 4 -25.5t15 -22t31 -15.5t53 -6q44 0 69 7t37.5 17.5t15.5 24.5t3 27q0 23 -11.5 49.5t-29.5 49.5
t-40 38.5t-42 15.5zM70 0h-70q-42 0 -56 26.5t-14 77.5q0 54 15 82t55 28h345q0 32 -7 61.5t-26 66.5t-51 86.5t-83 120.5q-26 38 -26 60q0 14 5 21.5t16 12.5l164 79h4q38 -78 62.5 -138.5t39 -109.5t20.5 -89.5t6 -78.5q0 -41 -9.5 -80.5t-25.5 -78t-36 -75t-41 -72.5
q5 -12 9 -24q13 -37 20 -76t7 -77q0 -33 -13.5 -68t-42 -63.5t-75 -47.5t-111.5 -19q-35 0 -62.5 9.5t-47 27.5t-29.5 42t-10 54q0 34 9 76t25 86q14 41 34 80z" />
    <glyph glyph-name="uni067C.medi" unicode="&#x67c;" horiz-adv-x="712" 
d="M535 956l-134 -133l-116 115l-116 -115l-133 133l133 134l116 -117l116 117zM198 -1q-15 0 -28 -8.5t-25 -22.5t-21.5 -31.5t-16.5 -35t-10.5 -34t-3.5 -28.5q0 -13 4 -25.5t15 -22t31 -15.5t53 -6q44 0 69 7t37.5 17.5t15.5 24.5t3 27q0 23 -11.5 49.5t-29.5 49.5
t-40 38.5t-42 15.5zM74 0h-74q-42 0 -56 26.5t-14 77.5q0 54 15 82t55 28h345q0 32 -6.5 61.5t-24.5 66.5t-49.5 86t-82.5 121q-26 38 -26 60q0 14 5 21.5t16 12.5l164 79h4q38 -78 62.5 -138.5t39 -109.5t20.5 -89.5t6 -78.5q0 -20 11.5 -36.5t37 -29t67.5 -19.5t104 -7h19
q42 0 56 -26.5t14 -77.5q0 -54 -15 -82t-55 -28h-7q-40 0 -76.5 15t-68 42.5t-57.5 66t-44 86.5q-17 -55 -44.5 -111t-53.5 -99h-1q5 -12 10 -25q13 -37 20 -76t7 -77q0 -33 -13.5 -68t-42 -63.5t-75 -47.5t-111.5 -19q-35 0 -62.5 9.5t-47 27.5t-29.5 42t-10 54q0 34 9 76
t25 86q14 41 34 81z" />
    <glyph glyph-name="uni067C.fina" unicode="&#x67c;" horiz-adv-x="1543" 
d="M901 956l-134 -133l-116 115l-116 -115l-133 133l133 134l116 -117l116 117zM654 0q-15 0 -28 -8.5t-25 -22.5t-21.5 -31.5t-16.5 -35t-10.5 -34t-3.5 -28.5q0 -13 4 -25.5t15 -22t31 -15.5t53 -6q44 0 69 7t37.5 17.5t15.5 24.5t3 27q0 23 -11.5 49.5t-29.5 49.5
t-40 38.5t-42 15.5zM530 0h-202q-71 0 -131 15.5t-103.5 48.5t-68.5 85t-25 125q0 61 17 114t41 91.5t50.5 60.5t45.5 22q2 0 8 -2t11 -7q-25 -41 -41.5 -88.5t-16.5 -81.5q0 -27 5.5 -56.5t31 -54.5t78 -41.5t147.5 -16.5h792q-1 29 -9 59t-27 68t-51 88t-81 120
q-26 38 -26 60q0 14 5 21.5t16 12.5l164 79h4q38 -78 62.5 -138.5t39 -109.5t20.5 -89.5t6 -78.5q0 -18 10.5 -35t36 -29.5t68 -20t105.5 -7.5h31q42 0 56 -26.5t14 -77.5q0 -54 -15 -82t-55 -28h-19q-40 0 -76.5 15t-68 42.5t-57.5 66t-44 86.5q-15 -54 -42 -107.5
t-56 -102.5h-363q5 -12 9 -24q13 -37 20 -76t7 -77q0 -33 -13.5 -68t-42 -63.5t-75 -47.5t-111.5 -19q-35 0 -62.5 9.5t-47 27.5t-29.5 42t-10 54q0 34 9 76t25 86q14 41 34 80z" />
    <glyph glyph-name="uni067D.init" unicode="&#x67d;" horiz-adv-x="569" 
d="M0 0q-42 0 -56 26.5t-14 77.5q0 54 15 82t55 28h345q0 32 -7 61.5t-26 66.5t-51 86.5t-83 120.5q-26 38 -26 60q0 14 5 21.5t16 12.5l164 79h4q38 -78 62.5 -138.5t39 -109.5t20.5 -89.5t6 -78.5q0 -41 -9.5 -80.5t-25.5 -78t-36 -75t-41 -72.5h-357zM247 814l-131 132
l131 131l132 -131zM365 1046l-116 117l-116 -117l-133 134l133 133l116 -115l116 115l134 -133z" />
    <glyph glyph-name="uni067D.medi" unicode="&#x67d;" horiz-adv-x="712" 
d="M0 0q-42 0 -56 26.5t-14 77.5q0 54 15 82t55 28h345q0 32 -6.5 61.5t-24.5 66.5t-49.5 86t-82.5 121q-26 38 -26 60q0 14 5 21.5t16 12.5l164 79h4q38 -78 62.5 -138.5t39 -109.5t20.5 -89.5t6 -78.5q0 -20 11.5 -36.5t37 -29t67.5 -19.5t104 -7h19q42 0 56 -26.5
t14 -77.5q0 -54 -15 -82t-55 -28h-7q-40 0 -76.5 15t-68 42.5t-57.5 66t-44 86.5q-17 -55 -44.5 -111t-53.5 -99h-361zM253 814l-131 132l131 131l132 -131zM371 1046l-116 117l-116 -117l-133 134l133 133l116 -115l116 115l134 -133z" />
    <glyph glyph-name="uni067D.fina" unicode="&#x67d;" horiz-adv-x="1543" 
d="M1169 214q-1 29 -9 59t-27 68t-51 88t-81 120q-26 38 -26 60q0 14 5 21.5t16 12.5l164 79h4q38 -78 62.5 -138.5t39 -109.5t20.5 -89.5t6 -78.5q0 -18 10.5 -35t36 -29.5t68 -20t105.5 -7.5h31q42 0 56 -26.5t14 -77.5q0 -54 -15 -82t-55 -28h-19q-40 0 -76.5 15
t-68 42.5t-57.5 66t-44 86.5q-15 -54 -42 -107.5t-56 -102.5h-852q-71 0 -131 15.5t-103.5 48.5t-68.5 85t-25 125q0 61 17 114t41 91.5t50.5 60.5t45.5 22q2 0 8 -2t11 -7q-25 -41 -41.5 -88.5t-16.5 -81.5q0 -27 5.5 -56.5t31 -54.5t78 -41.5t147.5 -16.5h792zM639 814
l-131 132l131 131l132 -131zM757 1046l-116 117l-116 -117l-133 134l133 133l116 -115l116 115l134 -133z" />
    <glyph glyph-name="uni0681.init" unicode="&#x681;" horiz-adv-x="870" 
d="M156 565q-22 28 -22 50q0 21 13 28l164 96l5 -2q88 -150 202.5 -282t251.5 -264l-159 -191h-611q-42 0 -56 26.5t-14 77.5q0 54 15 82t55 28h538q-50 31 -104 74t-105 90t-96 95.5t-77 91.5zM63 820l61 147l89 11q-21 20 -35 51.5t-14 65.5q0 42 22 84t56.5 75.5t77.5 55
t85 21.5q25 0 63 -11.5t71 -33.5l-79 -119q-46 29 -102 29q-42 0 -66 -21t-24 -50q0 -24 16 -44.5t42.5 -35.5t61.5 -23.5t73 -8.5q16 0 32.5 0.5t33.5 5.5l-66 -148z" />
    <glyph glyph-name="uni0681.medi" unicode="&#x681;" horiz-adv-x="974" 
d="M233 565q-22 28 -22 49t13 28l164 98l5 -3q78 -122 150 -218.5t141.5 -164.5t138 -104t139.5 -36h12q42 0 56 -26.5t14 -77.5q0 -54 -15 -82t-55 -28h-27q-32 0 -67.5 6.5t-76 23t-85.5 44.5t-94 72l-117 -146h-507q-42 0 -56 26.5t-14 77.5q0 54 15 82t55 28h549
q-46 43 -92 92t-88 96t-77 89.5t-59 73.5zM63 820l61 147l89 11q-21 20 -35 51.5t-14 65.5q0 42 22 84t56.5 75.5t77.5 55t85 21.5q25 0 63 -11.5t71 -33.5l-79 -119q-46 29 -102 29q-42 0 -66 -21t-24 -50q0 -24 16 -44.5t42.5 -35.5t61.5 -23.5t73 -8.5q16 0 32.5 0.5
t33.5 5.5l-66 -148z" />
    <glyph glyph-name="uni0681.fina" unicode="&#x681;" horiz-adv-x="1051" 
d="M313 565q-22 28 -22 49t13 28l164 97l5 -2q78 -122 150 -218.5t141.5 -164.5t138 -104t139.5 -36h9q42 0 56 -26.5t14 -77.5q0 -54 -15 -82t-55 -28h-24q-32 0 -67.5 6.5t-74.5 22t-82.5 43t-92.5 69.5l-110 -141h-213q-90 0 -141.5 -18t-77 -45t-31.5 -58t-6 -56
q0 -47 19 -91.5t57.5 -79t98 -55.5t140.5 -21q34 0 70.5 2.5t71 7.5t64 12.5t49.5 18.5q-9 -47 -31 -90t-58 -75t-87 -51t-119 -19q-101 0 -177 32t-127 86t-76.5 125t-25.5 150q0 82 35.5 161t102.5 141t162 99.5t214 37.5h115q-45 44 -91 93t-88 96.5t-77.5 89.5t-59.5 72
zM153 820l61 147l89 11q-21 20 -35 51.5t-14 65.5q0 42 22 84t56.5 75.5t77.5 55t85 21.5q25 0 63 -11.5t71 -33.5l-79 -119q-46 29 -102 29q-42 0 -66 -21t-24 -50q0 -24 16 -44.5t42.5 -35.5t61.5 -23.5t73 -8.5q16 0 32.5 0.5t33.5 5.5l-66 -148z" />
    <glyph glyph-name="uni0682.init" unicode="&#x682;" horiz-adv-x="870" 
d="M156 565q-22 28 -22 50q0 21 13 28l164 96l5 -2q88 -150 202.5 -282t251.5 -264l-159 -191h-611q-42 0 -56 26.5t-14 77.5q0 54 15 82t55 28h538q-50 31 -104 74t-105 90t-96 95.5t-77 91.5zM288 1118l-131 131l138 139l139 -139l-132 -131l132 -132l-139 -138l-138 138z
" />
    <glyph glyph-name="uni0682.medi" unicode="&#x682;" horiz-adv-x="974" 
d="M233 565q-22 28 -22 49t13 28l164 98l5 -3q78 -122 150 -218.5t141.5 -164.5t138 -104t139.5 -36h12q42 0 56 -26.5t14 -77.5q0 -54 -15 -82t-55 -28h-27q-32 0 -67.5 6.5t-76 23t-85.5 44.5t-94 72l-117 -146h-507q-42 0 -56 26.5t-14 77.5q0 54 15 82t55 28h549
q-46 43 -92 92t-88 96t-77 89.5t-59 73.5zM298 1118l-131 131l138 139l139 -139l-132 -131l132 -132l-139 -138l-138 138z" />
    <glyph glyph-name="uni0682.fina" unicode="&#x682;" horiz-adv-x="1051" 
d="M313 565q-22 28 -22 49t13 28l164 97l5 -2q78 -122 150 -218.5t141.5 -164.5t138 -104t139.5 -36h9q42 0 56 -26.5t14 -77.5q0 -54 -15 -82t-55 -28h-24q-32 0 -67.5 6.5t-74.5 22t-82.5 43t-92.5 69.5l-110 -141h-213q-90 0 -141.5 -18t-77 -45t-31.5 -58t-6 -56
q0 -47 19 -91.5t57.5 -79t98 -55.5t140.5 -21q34 0 70.5 2.5t71 7.5t64 12.5t49.5 18.5q-9 -47 -31 -90t-58 -75t-87 -51t-119 -19q-101 0 -177 32t-127 86t-76.5 125t-25.5 150q0 82 35.5 161t102.5 141t162 99.5t214 37.5h115q-45 44 -91 93t-88 96.5t-77.5 89.5t-59.5 72
zM388 1118l-131 131l138 139l139 -139l-132 -131l132 -132l-139 -138l-138 138z" />
    <glyph glyph-name="uni0685.init" unicode="&#x685;" horiz-adv-x="870" 
d="M156 565q-22 28 -22 50q0 21 13 28l164 96l5 -2q88 -150 202.5 -282t251.5 -264l-159 -191h-611q-42 0 -56 26.5t-14 77.5q0 54 15 82t55 28h538q-50 31 -104 74t-105 90t-96 95.5t-77 91.5zM425 1211l-132 -131l-131 131l131 132zM545 977l-134 -133l-116 115l-116 -115
l-133 133l133 134l116 -117l116 117z" />
    <glyph glyph-name="uni0685.medi" unicode="&#x685;" horiz-adv-x="974" 
d="M233 565q-22 28 -22 49t13 28l164 98l5 -3q78 -122 150 -218.5t141.5 -164.5t138 -104t139.5 -36h12q42 0 56 -26.5t14 -77.5q0 -54 -15 -82t-55 -28h-27q-32 0 -67.5 6.5t-76 23t-85.5 44.5t-94 72l-117 -146h-507q-42 0 -56 26.5t-14 77.5q0 54 15 82t55 28h549
q-46 43 -92 92t-88 96t-77 89.5t-59 73.5zM435 1211l-132 -131l-131 131l131 132zM555 977l-134 -133l-116 115l-116 -115l-133 133l133 134l116 -117l116 117z" />
    <glyph glyph-name="uni0685.fina" unicode="&#x685;" horiz-adv-x="1051" 
d="M313 565q-22 28 -22 49t13 28l164 97l5 -2q78 -122 150 -218.5t141.5 -164.5t138 -104t139.5 -36h9q42 0 56 -26.5t14 -77.5q0 -54 -15 -82t-55 -28h-24q-32 0 -67.5 6.5t-74.5 22t-82.5 43t-92.5 69.5l-110 -141h-213q-90 0 -141.5 -18t-77 -45t-31.5 -58t-6 -56
q0 -47 19 -91.5t57.5 -79t98 -55.5t140.5 -21q34 0 70.5 2.5t71 7.5t64 12.5t49.5 18.5q-9 -47 -31 -90t-58 -75t-87 -51t-119 -19q-101 0 -177 32t-127 86t-76.5 125t-25.5 150q0 82 35.5 161t102.5 141t162 99.5t214 37.5h115q-45 44 -91 93t-88 96.5t-77.5 89.5t-59.5 72
zM525 1211l-132 -131l-131 131l131 132zM645 977l-134 -133l-116 115l-116 -115l-133 133l133 134l116 -117l116 117z" />
    <glyph glyph-name="uni0689.fina" unicode="&#x689;" horiz-adv-x="923" 
d="M354 0q-15 0 -28 -8.5t-25 -22.5t-21.5 -31.5t-16.5 -35t-10.5 -34t-3.5 -28.5q0 -13 4 -25.5t15 -22t31 -15.5t53 -6q44 0 69 7t37.5 17.5t15.5 24.5t3 27q0 23 -11.5 49.5t-29.5 49.5t-40 38.5t-42 15.5zM230 0h-160v214h474q11 31 11 61q0 40 -16.5 73.5t-50.5 65
t-85.5 63.5t-121.5 68q-32 17 -48.5 31.5t-16.5 34.5q0 7 8 25l102 166h4q97 -58 160.5 -119t102 -125t55.5 -131.5t20 -137.5q4 -16 17 -29.5t38.5 -23.5t65.5 -16t97 -6h37q42 0 56 -26.5t14 -77.5q0 -54 -15 -82t-55 -28h-25q-35 0 -68.5 13t-63.5 36t-55.5 55t-44.5 70
q-3 -38 -9.5 -80.5t-16.5 -93.5h-123q5 -12 9 -24q13 -37 20 -76t7 -77q0 -33 -13.5 -68t-42 -63.5t-75 -47.5t-111.5 -19q-35 0 -62.5 9.5t-47 27.5t-29.5 42t-10 54q0 34 9 76t25 86q14 41 34 80z" />
    <glyph glyph-name="uni068A.fina" unicode="&#x68a;" horiz-adv-x="923" 
d="M70 0v214h474q11 31 11 61q0 40 -16.5 73.5t-50.5 65t-85.5 63.5t-121.5 68q-32 17 -48.5 31.5t-16.5 34.5q0 7 8 25l102 166h4q97 -58 160.5 -119t102 -125t55.5 -131.5t20 -137.5q4 -16 17 -29.5t38.5 -23.5t65.5 -16t97 -6h37q42 0 56 -26.5t14 -77.5q0 -54 -15 -82
t-55 -28h-25q-35 0 -68.5 13t-63.5 36t-55.5 55t-44.5 70q-3 -38 -9.5 -80.5t-16.5 -93.5h-570zM503 -345l-139 -138l-138 138l138 139z" />
    <glyph glyph-name="uni068B.fina" unicode="&#x68b;" horiz-adv-x="923" 
d="M70 0v214h474q11 31 11 61q0 40 -16.5 73.5t-50.5 65t-85.5 63.5t-121.5 68q-32 17 -48.5 31.5t-16.5 34.5q0 7 8 25l102 166h4q97 -58 160.5 -119t102 -125t55.5 -131.5t20 -137.5q4 -16 17 -29.5t38.5 -23.5t65.5 -16t97 -6h37q42 0 56 -26.5t14 -77.5q0 -54 -15 -82
t-55 -28h-25q-35 0 -68.5 13t-63.5 36t-55.5 55t-44.5 70q-3 -38 -9.5 -80.5t-16.5 -93.5h-570zM91 861q0 29 20 49.5t55 22.5v317l105 24v-222q12 6 30.5 12.5t38.5 12.5t41 9.5t39 3.5q58 0 89.5 -33.5t31.5 -93.5q0 -18 -6.5 -48.5t-18.5 -53.5h-425zM271 933h166
q2 8 3 20.5t1 20.5q0 44 -46 44q-6 0 -21 -2.5t-33.5 -6t-37.5 -8.5t-32 -10v-58zM503 -345l-139 -138l-138 138l138 139z" />
    <glyph glyph-name="uni068F.fina" unicode="&#x68f;" horiz-adv-x="929" 
d="M76 0v214h474q11 31 11 61q0 40 -16.5 73.5t-50.5 65t-85.5 63.5t-121.5 68q-32 17 -48.5 31.5t-16.5 34.5q0 7 8 25l102 166h4q97 -58 160.5 -119t102 -125t55.5 -131.5t20 -137.5q4 -16 17 -29.5t38.5 -23.5t65.5 -16t97 -6h37q42 0 56 -26.5t14 -77.5q0 -54 -15 -82
t-55 -28h-25q-35 0 -68.5 13t-63.5 36t-55.5 55t-44.5 70q-3 -38 -9.5 -80.5t-16.5 -93.5h-570zM327 853l-131 132l131 131l132 -131zM445 1085l-116 117l-116 -117l-133 134l133 133l116 -115l116 115l134 -133z" />
    <glyph glyph-name="uni0690.fina" unicode="&#x690;" horiz-adv-x="929" 
d="M76 0v214h474q11 31 11 61q0 40 -16.5 73.5t-50.5 65t-85.5 63.5t-121.5 68q-32 17 -48.5 31.5t-16.5 34.5q0 7 8 25l102 166h4q97 -58 160.5 -119t102 -125t55.5 -131.5t20 -137.5q4 -16 17 -29.5t38.5 -23.5t65.5 -16t97 -6h37q42 0 56 -26.5t14 -77.5q0 -54 -15 -82
t-55 -28h-25q-35 0 -68.5 13t-63.5 36t-55.5 55t-44.5 70q-3 -38 -9.5 -80.5t-16.5 -93.5h-570zM193 1109l-123 123l133 134l116 -117l116 117l134 -134l-123 -123l123 -123l-134 -133l-116 115l-116 -115l-133 133zM425 1109l-106 105l-105 -105l105 -106z" />
    <glyph glyph-name="uni0692.fina" unicode="&#x692;" horiz-adv-x="885" 
d="M0 -134q51 -10 96 -14.5t86 -4.5q82 0 141 18.5t96 53.5t54.5 85t17.5 112q0 57 -13 115t-35 116t-51.5 114t-62.5 109q-9 14 -14 25.5t-5 22.5q0 20 12 26l180 93h4q63 -120 95 -230.5t38 -222.5q5 -15 19 -27.5t40 -22t64.5 -15t92.5 -5.5h30q42 0 56 -26.5t14 -77.5
q0 -54 -15 -82t-55 -28h-18q-72 0 -132 43.5t-98 128.5q-6 -59 -23 -120t-43.5 -118.5t-63 -108t-82 -88t-98.5 -59.5t-114 -22q-52 0 -91.5 18t-66 47.5t-40.5 67.5t-15 77zM376 828q-9 23 -22.5 49.5t-30 54t-36 55.5t-39.5 53t-40 46t-39 34l88 51q21 -24 42 -53
t46.5 -75t50.5 -108q36 88 77 150t63 86l87 -51q-18 -13 -38 -34t-40.5 -46t-40 -53t-36 -55.5t-30 -54t-22.5 -49.5h-40z" />
    <glyph glyph-name="uni0693.fina" unicode="&#x693;" horiz-adv-x="885" 
d="M325 -328q-15 0 -28 -8.5t-25 -22.5t-21.5 -31.5t-16.5 -35t-10.5 -34t-3.5 -28.5q0 -13 4 -25.5t15 -22t31 -15.5t53 -6q44 0 69 7t37.5 17.5t15.5 24.5t3 27q0 23 -11.5 49.5t-29.5 49.5t-40 38.5t-42 15.5zM193 -343q-40 2 -71 17q-40 18 -66.5 47.5t-40.5 67.5
t-15 77q51 -10 96 -14.5t86 -4.5q82 0 141 18.5t96 53.5t54.5 85t17.5 112q0 57 -13 115t-35 116t-51.5 114t-62.5 109q-9 14 -14 25.5t-5 22.5q0 20 12 26l180 93h4q63 -120 95 -230.5t38 -222.5q5 -15 19 -27.5t40 -22t64.5 -15t92.5 -5.5h30q42 0 56 -26.5t14 -77.5
q0 -54 -15 -82t-55 -28h-18q-72 0 -132 43.5t-98 128.5q-6 -59 -23 -120t-43.5 -118.5t-62.5 -107.5q-30 -41 -65 -73q12 -17 24 -37q17 -32 30 -68.5t20 -75.5t7 -77q0 -33 -13.5 -68t-42 -63.5t-75 -47.5t-111.5 -19q-35 0 -62.5 9.5t-47 27.5t-29.5 42t-10 54q0 34 9 76
t25 86q11 33 26 65z" />
    <glyph glyph-name="uni0694.fina" unicode="&#x694;" horiz-adv-x="885" 
d="M0 -134q51 -10 96 -14.5t86 -4.5q82 0 141 18.5t96 53.5t54.5 85t17.5 112q0 57 -13 115t-35 116t-51.5 114t-62.5 109q-9 14 -14 25.5t-5 22.5q0 20 12 26l180 93h4q63 -120 95 -230.5t38 -222.5q5 -15 19 -27.5t40 -22t64.5 -15t92.5 -5.5h30q42 0 56 -26.5t14 -77.5
q0 -54 -15 -82t-55 -28h-18q-72 0 -132 43.5t-98 128.5q-6 -59 -23 -120t-43.5 -118.5t-63 -108t-82 -88t-98.5 -59.5t-114 -22q-52 0 -91.5 18t-66 47.5t-40.5 67.5t-15 77zM622 -571l-132 -131l-131 131l131 132z" />
    <glyph glyph-name="uni0695.fina" unicode="&#x695;" horiz-adv-x="885" 
d="M0 -134q51 -10 96 -14.5t86 -4.5q82 0 141 18.5t96 53.5t54.5 85t17.5 112q0 57 -13 115t-35 116t-51.5 114t-62.5 109q-9 14 -14 25.5t-5 22.5q0 20 12 26l180 93h4q63 -120 95 -230.5t38 -222.5q5 -15 19 -27.5t40 -22t64.5 -15t92.5 -5.5h30q42 0 56 -26.5t14 -77.5
q0 -54 -15 -82t-55 -28h-18q-72 0 -132 43.5t-98 128.5q-6 -59 -23 -120t-43.5 -118.5t-63 -108t-82 -88t-98.5 -59.5t-114 -22q-52 0 -91.5 18t-66 47.5t-40.5 67.5t-15 77zM337 -788q-9 23 -22.5 49.5t-30 54t-36 55.5t-39.5 53t-40 46t-39 34l88 51q21 -24 42 -53
t46.5 -75t50.5 -108q36 88 77 150t63 86l87 -51q-18 -13 -38 -34t-40.5 -46t-40 -53t-36 -55.5t-30 -54t-22.5 -49.5h-40z" />
    <glyph glyph-name="uni0696.fina" unicode="&#x696;" horiz-adv-x="885" 
d="M0 -134q51 -10 96 -14.5t86 -4.5q82 0 141 18.5t96 53.5t54.5 85t17.5 112q0 57 -13 115t-35 116t-51.5 114t-62.5 109q-9 14 -14 25.5t-5 22.5q0 20 12 26l180 93h4q63 -120 95 -230.5t38 -222.5q5 -15 19 -27.5t40 -22t64.5 -15t92.5 -5.5h30q42 0 56 -26.5t14 -77.5
q0 -54 -15 -82t-55 -28h-18q-72 0 -132 43.5t-98 128.5q-6 -59 -23 -120t-43.5 -118.5t-63 -108t-82 -88t-98.5 -59.5t-114 -22q-52 0 -91.5 18t-66 47.5t-40.5 67.5t-15 77zM622 -571l-132 -131l-131 131l131 132zM397 135l-132 -131l-131 131l131 132z" />
    <glyph glyph-name="uni0697.fina" unicode="&#x697;" horiz-adv-x="885" 
d="M0 -134q51 -10 96 -14.5t86 -4.5q82 0 141 18.5t96 53.5t54.5 85t17.5 112q0 57 -13 115t-35 116t-51.5 114t-62.5 109q-9 14 -14 25.5t-5 22.5q0 20 12 26l180 93h4q63 -120 95 -230.5t38 -222.5q5 -15 19 -27.5t40 -22t64.5 -15t92.5 -5.5h30q42 0 56 -26.5t14 -77.5
q0 -54 -15 -82t-55 -28h-18q-72 0 -132 43.5t-98 128.5q-6 -59 -23 -120t-43.5 -118.5t-63 -108t-82 -88t-98.5 -59.5t-114 -22q-52 0 -91.5 18t-66 47.5t-40.5 67.5t-15 77zM652 947l-134 -133l-116 115l-116 -115l-133 133l133 134l116 -117l116 117z" />
    <glyph glyph-name="uni0699.fina" unicode="&#x699;" horiz-adv-x="885" 
d="M0 -134q51 -10 96 -14.5t86 -4.5q82 0 141 18.5t96 53.5t54.5 85t17.5 112q0 57 -13 115t-35 116t-51.5 114t-62.5 109q-9 14 -14 25.5t-5 22.5q0 20 12 26l180 93h4q63 -120 95 -230.5t38 -222.5q5 -15 19 -27.5t40 -22t64.5 -15t92.5 -5.5h30q42 0 56 -26.5t14 -77.5
q0 -54 -15 -82t-55 -28h-18q-72 0 -132 43.5t-98 128.5q-6 -59 -23 -120t-43.5 -118.5t-63 -108t-82 -88t-98.5 -59.5t-114 -22q-52 0 -91.5 18t-66 47.5t-40.5 67.5t-15 77zM279 1073l-130 130l133 134l116 -117l116 117l134 -134l-126 -126l130 -130l-134 -133l-116 115
l-116 -115l-133 133zM511 1073l-113 112l-108 -108l112 -113z" />
    <glyph glyph-name="uni069A.init" unicode="&#x69a;" horiz-adv-x="1574" 
d="M474 298q0 -37 53 -60.5t165 -23.5h162q0 33 -7 61t-25 61.5t-48.5 77.5t-77.5 109q-27 36 -27 59q0 14 5.5 22t16.5 13l164 79h4q36 -75 58.5 -131.5t35 -101.5t17 -82.5t4.5 -74.5v-4q1 -18 12 -34t36.5 -28t67.5 -19t104 -7h160q0 32 -7.5 61.5t-27 66.5t-52.5 86.5
t-84 120.5q-26 38 -26 60q0 14 5 21.5t16 12.5l164 79h4q38 -78 62.5 -138.5t39 -109.5t20.5 -89.5t6 -78.5q0 -42 -9.5 -81t-25 -76.5t-36 -74.5t-41.5 -74h-156q-40 0 -76.5 15t-68 42t-57 65.5t-43.5 86.5q-16 -55 -43 -109t-56 -100h-158q-75 0 -137 46.5t-110 149.5
q-16 -54 -41.5 -102.5t-53.5 -93.5h-362q-42 0 -56 26.5t-14 77.5q0 54 15 82t55 28h354q0 33 -8 62t-24.5 60.5t-43 67.5t-63.5 83q-27 33 -27 58q0 26 22 36l164 79h4q26 -57 44 -105.5t29.5 -91.5t17 -81.5t5.5 -75.5v-8zM982 948l-139 -138l-138 138l138 139zM979 -345
l-139 -138l-138 138l138 139z" />
    <glyph glyph-name="uni069A.medi" unicode="&#x69a;" horiz-adv-x="1720" 
d="M474 306q0 -43 53 -67.5t165 -24.5h162q0 33 -7 61t-25 61.5t-48.5 77.5t-77.5 109q-27 36 -27 59q0 14 5.5 22t16.5 13l164 79h4q36 -75 58.5 -131.5t35 -101.5t17 -82.5t4.5 -74.5v-4q1 -18 12 -34t36.5 -28t67.5 -19t104 -7h160q0 32 -7.5 61.5t-27 66.5t-52.5 86.5
t-84 120.5q-26 38 -26 60q0 14 5 21.5t16 12.5l164 79h4q38 -78 62.5 -138.5t39 -109.5t20.5 -89.5t6 -78.5q0 -20 11.5 -36.5t37 -29t67.5 -19.5t104 -7h26q42 0 56 -26.5t14 -77.5q0 -54 -15 -82t-55 -28h-14q-40 0 -76.5 15t-68 42.5t-57.5 66t-44 86.5q-8 -27 -19.5 -56
t-25 -57t-27.5 -53t-26 -44h-156q-40 0 -76.5 15t-68 42t-57 65.5t-43.5 86.5q-16 -55 -43 -109t-56 -100h-158q-75 0 -137 46.5t-110 149.5q-16 -54 -41.5 -102.5t-53.5 -93.5h-362q-42 0 -56 26.5t-14 77.5q0 54 15 82t55 28h354q0 33 -8 62t-24.5 60.5t-43 67.5t-63.5 83
q-27 33 -27 58q0 26 22 36l164 79h4q26 -57 44 -105.5t29.5 -91.5t17 -81.5t5.5 -75.5zM995 947l-139 -138l-138 138l138 139zM989 -345l-139 -138l-138 138l138 139z" />
    <glyph glyph-name="uni069A.fina" unicode="&#x69a;" horiz-adv-x="2190" 
d="M800 156q0 35 -10.5 72.5t-28 74.5t-40.5 71.5t-47 63.5q-11 13 -18.5 25.5t-7.5 25.5q0 21 15 30l158 93h4q54 -78 82.5 -160.5t33.5 -161.5q4 -16 17 -29.5t38.5 -24t65.5 -16.5t97 -6h163q0 33 -7.5 61t-25.5 61.5t-48.5 77.5t-77.5 109q-27 36 -27 59q0 14 5.5 22
t16.5 13l164 79h4q36 -75 58.5 -131.5t35 -101.5t17 -82.5t4.5 -74.5v-4q1 -18 12 -34t36.5 -28t67.5 -19t104 -7h161q0 32 -8 61.5t-27.5 66.5t-52.5 86t-84 121q-26 38 -26 60q0 14 5 21.5t16 12.5l164 79h4q38 -78 62.5 -138.5t39 -109.5t20.5 -89.5t6 -78.5v-4
q1 -18 12 -34t36.5 -28t67.5 -19t104 -7h29q42 0 56 -26.5t14 -77.5q0 -54 -15 -82t-55 -28h-17q-40 0 -76.5 15t-68 42.5t-57.5 66t-44 86.5q-15 -54 -42.5 -109.5t-55.5 -100.5h-156q-40 0 -76.5 15t-68 42t-57 65.5t-43.5 86.5q-16 -55 -43 -109t-56 -100h-158
q-75 0 -136 46.5t-98 134.5q-15 -84 -55 -168.5t-103 -153t-149 -111.5t-192 -43q-101 0 -182 29.5t-138 85.5t-87.5 135.5t-30.5 180.5q0 61 15 117t36.5 99t45 69t40.5 26q4 0 9.5 -4t12.5 -9q-10 -15 -18.5 -41t-14.5 -55t-9.5 -58.5t-3.5 -51.5q0 -67 28 -123.5
t78.5 -98t121 -64.5t156.5 -23q91 0 150 22t93 56.5t47 76.5t13 82zM1429 948l-139 -138l-138 138l138 139zM1429 -345l-139 -138l-138 138l138 139z" />
    <glyph glyph-name="uni069B.init" unicode="&#x69b;" horiz-adv-x="1574" 
d="M474 298q0 -37 53 -60.5t165 -23.5h162q0 33 -7 61t-25 61.5t-48.5 77.5t-77.5 109q-27 36 -27 59q0 14 5.5 22t16.5 13l164 79h4q36 -75 58.5 -131.5t35 -101.5t17 -82.5t4.5 -74.5v-4q1 -18 12 -34t36.5 -28t67.5 -19t104 -7h160q0 32 -7.5 61.5t-27 66.5t-52.5 86.5
t-84 120.5q-26 38 -26 60q0 14 5 21.5t16 12.5l164 79h4q38 -78 62.5 -138.5t39 -109.5t20.5 -89.5t6 -78.5q0 -42 -9.5 -81t-25 -76.5t-36 -74.5t-41.5 -74h-156q-40 0 -76.5 15t-68 42t-57 65.5t-43.5 86.5q-16 -55 -43 -109t-56 -100h-158q-75 0 -137 46.5t-110 149.5
q-16 -54 -41.5 -102.5t-53.5 -93.5h-362q-42 0 -56 26.5t-14 77.5q0 54 15 82t55 28h354q0 33 -8 62t-24.5 60.5t-43 67.5t-63.5 83q-27 33 -27 58q0 26 22 36l164 79h4q26 -57 44 -105.5t29.5 -91.5t17 -81.5t5.5 -75.5v-8zM838 -754l-131 132l131 131l132 -131zM956 -522
l-116 117l-116 -117l-133 134l133 133l116 -115l116 115l134 -133z" />
    <glyph glyph-name="uni069B.medi" unicode="&#x69b;" horiz-adv-x="1720" 
d="M474 306q0 -43 53 -67.5t165 -24.5h162q0 33 -7 61t-25 61.5t-48.5 77.5t-77.5 109q-27 36 -27 59q0 14 5.5 22t16.5 13l164 79h4q36 -75 58.5 -131.5t35 -101.5t17 -82.5t4.5 -74.5v-4q1 -18 12 -34t36.5 -28t67.5 -19t104 -7h160q0 32 -7.5 61.5t-27 66.5t-52.5 86.5
t-84 120.5q-26 38 -26 60q0 14 5 21.5t16 12.5l164 79h4q38 -78 62.5 -138.5t39 -109.5t20.5 -89.5t6 -78.5q0 -20 11.5 -36.5t37 -29t67.5 -19.5t104 -7h26q42 0 56 -26.5t14 -77.5q0 -54 -15 -82t-55 -28h-14q-40 0 -76.5 15t-68 42.5t-57.5 66t-44 86.5q-8 -27 -19.5 -56
t-25 -57t-27.5 -53t-26 -44h-156q-40 0 -76.5 15t-68 42t-57 65.5t-43.5 86.5q-16 -55 -43 -109t-56 -100h-158q-75 0 -137 46.5t-110 149.5q-16 -54 -41.5 -102.5t-53.5 -93.5h-362q-42 0 -56 26.5t-14 77.5q0 54 15 82t55 28h354q0 33 -8 62t-24.5 60.5t-43 67.5t-63.5 83
q-27 33 -27 58q0 26 22 36l164 79h4q26 -57 44 -105.5t29.5 -91.5t17 -81.5t5.5 -75.5zM838 -754l-131 132l131 131l132 -131zM956 -522l-116 117l-116 -117l-133 134l133 133l116 -115l116 115l134 -133z" />
    <glyph glyph-name="uni069B.fina" unicode="&#x69b;" horiz-adv-x="2190" 
d="M800 156q0 35 -10.5 72.5t-28 74.5t-40.5 71.5t-47 63.5q-11 13 -18.5 25.5t-7.5 25.5q0 21 15 30l158 93h4q54 -78 82.5 -160.5t33.5 -161.5q4 -16 17 -29.5t38.5 -24t65.5 -16.5t97 -6h163q0 33 -7.5 61t-25.5 61.5t-48.5 77.5t-77.5 109q-27 36 -27 59q0 14 5.5 22
t16.5 13l164 79h4q36 -75 58.5 -131.5t35 -101.5t17 -82.5t4.5 -74.5v-4q1 -18 12 -34t36.5 -28t67.5 -19t104 -7h161q0 32 -8 61.5t-27.5 66.5t-52.5 86t-84 121q-26 38 -26 60q0 14 5 21.5t16 12.5l164 79h4q38 -78 62.5 -138.5t39 -109.5t20.5 -89.5t6 -78.5v-4
q1 -18 12 -34t36.5 -28t67.5 -19t104 -7h29q42 0 56 -26.5t14 -77.5q0 -54 -15 -82t-55 -28h-17q-40 0 -76.5 15t-68 42.5t-57.5 66t-44 86.5q-15 -54 -42.5 -109.5t-55.5 -100.5h-156q-40 0 -76.5 15t-68 42t-57 65.5t-43.5 86.5q-16 -55 -43 -109t-56 -100h-158
q-75 0 -136 46.5t-98 134.5q-15 -84 -55 -168.5t-103 -153t-149 -111.5t-192 -43q-101 0 -182 29.5t-138 85.5t-87.5 135.5t-30.5 180.5q0 61 15 117t36.5 99t45 69t40.5 26q4 0 9.5 -4t12.5 -9q-10 -15 -18.5 -41t-14.5 -55t-9.5 -58.5t-3.5 -51.5q0 -67 28 -123.5
t78.5 -98t121 -64.5t156.5 -23q91 0 150 22t93 56.5t47 76.5t13 82zM1298 -754l-131 132l131 131l132 -131zM1416 -522l-116 117l-116 -117l-133 134l133 133l116 -115l116 115l134 -133z" />
    <glyph glyph-name="uni069C.init" unicode="&#x69c;" horiz-adv-x="1574" 
d="M474 298q0 -37 53 -60.5t165 -23.5h162q0 33 -7 61t-25 61.5t-48.5 77.5t-77.5 109q-27 36 -27 59q0 14 5.5 22t16.5 13l164 79h4q36 -75 58.5 -131.5t35 -101.5t17 -82.5t4.5 -74.5v-4q1 -18 12 -34t36.5 -28t67.5 -19t104 -7h160q0 32 -7.5 61.5t-27 66.5t-52.5 86.5
t-84 120.5q-26 38 -26 60q0 14 5 21.5t16 12.5l164 79h4q38 -78 62.5 -138.5t39 -109.5t20.5 -89.5t6 -78.5q0 -42 -9.5 -81t-25 -76.5t-36 -74.5t-41.5 -74h-156q-40 0 -76.5 15t-68 42t-57 65.5t-43.5 86.5q-16 -55 -43 -109t-56 -100h-158q-75 0 -137 46.5t-110 149.5
q-16 -54 -41.5 -102.5t-53.5 -93.5h-362q-42 0 -56 26.5t-14 77.5q0 54 15 82t55 28h354q0 33 -8 62t-24.5 60.5t-43 67.5t-63.5 83q-27 33 -27 58q0 26 22 36l164 79h4q26 -57 44 -105.5t29.5 -91.5t17 -81.5t5.5 -75.5v-8zM973 1181l-132 -131l-131 131l131 132zM1093 947
l-134 -133l-116 115l-116 -115l-133 133l133 134l116 -117l116 117zM838 -754l-131 132l131 131l132 -131zM956 -522l-116 117l-116 -117l-133 134l133 133l116 -115l116 115l134 -133z" />
    <glyph glyph-name="uni069C.medi" unicode="&#x69c;" horiz-adv-x="1720" 
d="M474 306q0 -43 53 -67.5t165 -24.5h162q0 33 -7 61t-25 61.5t-48.5 77.5t-77.5 109q-27 36 -27 59q0 14 5.5 22t16.5 13l164 79h4q36 -75 58.5 -131.5t35 -101.5t17 -82.5t4.5 -74.5v-4q1 -18 12 -34t36.5 -28t67.5 -19t104 -7h160q0 32 -7.5 61.5t-27 66.5t-52.5 86.5
t-84 120.5q-26 38 -26 60q0 14 5 21.5t16 12.5l164 79h4q38 -78 62.5 -138.5t39 -109.5t20.5 -89.5t6 -78.5q0 -20 11.5 -36.5t37 -29t67.5 -19.5t104 -7h26q42 0 56 -26.5t14 -77.5q0 -54 -15 -82t-55 -28h-14q-40 0 -76.5 15t-68 42.5t-57.5 66t-44 86.5q-8 -27 -19.5 -56
t-25 -57t-27.5 -53t-26 -44h-156q-40 0 -76.5 15t-68 42t-57 65.5t-43.5 86.5q-16 -55 -43 -109t-56 -100h-158q-75 0 -137 46.5t-110 149.5q-16 -54 -41.5 -102.5t-53.5 -93.5h-362q-42 0 -56 26.5t-14 77.5q0 54 15 82t55 28h354q0 33 -8 62t-24.5 60.5t-43 67.5t-63.5 83
q-27 33 -27 58q0 26 22 36l164 79h4q26 -57 44 -105.5t29.5 -91.5t17 -81.5t5.5 -75.5zM985 1181l-132 -131l-131 131l131 132zM1105 947l-134 -133l-116 115l-116 -115l-133 133l133 134l116 -117l116 117zM838 -754l-131 132l131 131l132 -131zM956 -522l-116 117
l-116 -117l-133 134l133 133l116 -115l116 115l134 -133z" />
    <glyph glyph-name="uni069C.fina" unicode="&#x69c;" horiz-adv-x="2190" 
d="M800 156q0 35 -10.5 72.5t-28 74.5t-40.5 71.5t-47 63.5q-11 13 -18.5 25.5t-7.5 25.5q0 21 15 30l158 93h4q54 -78 82.5 -160.5t33.5 -161.5q4 -16 17 -29.5t38.5 -24t65.5 -16.5t97 -6h163q0 33 -7.5 61t-25.5 61.5t-48.5 77.5t-77.5 109q-27 36 -27 59q0 14 5.5 22
t16.5 13l164 79h4q36 -75 58.5 -131.5t35 -101.5t17 -82.5t4.5 -74.5v-4q1 -18 12 -34t36.5 -28t67.5 -19t104 -7h161q0 32 -8 61.5t-27.5 66.5t-52.5 86t-84 121q-26 38 -26 60q0 14 5 21.5t16 12.5l164 79h4q38 -78 62.5 -138.5t39 -109.5t20.5 -89.5t6 -78.5v-4
q1 -18 12 -34t36.5 -28t67.5 -19t104 -7h29q42 0 56 -26.5t14 -77.5q0 -54 -15 -82t-55 -28h-17q-40 0 -76.5 15t-68 42.5t-57.5 66t-44 86.5q-15 -54 -42.5 -109.5t-55.5 -100.5h-156q-40 0 -76.5 15t-68 42t-57 65.5t-43.5 86.5q-16 -55 -43 -109t-56 -100h-158
q-75 0 -136 46.5t-98 134.5q-15 -84 -55 -168.5t-103 -153t-149 -111.5t-192 -43q-101 0 -182 29.5t-138 85.5t-87.5 135.5t-30.5 180.5q0 61 15 117t36.5 99t45 69t40.5 26q4 0 9.5 -4t12.5 -9q-10 -15 -18.5 -41t-14.5 -55t-9.5 -58.5t-3.5 -51.5q0 -67 28 -123.5
t78.5 -98t121 -64.5t156.5 -23q91 0 150 22t93 56.5t47 76.5t13 82zM1419 1181l-132 -131l-131 131l131 132zM1539 947l-134 -133l-116 115l-116 -115l-133 133l133 134l116 -117l116 117zM1298 -754l-131 132l131 131l132 -131zM1416 -522l-116 117l-116 -117l-133 134
l133 133l116 -115l116 115l134 -133z" />
    <glyph glyph-name="uni069D.init" unicode="&#x69d;" horiz-adv-x="1642" 
d="M522 0q-35 0 -62 7.5t-50 28t-43.5 57t-41.5 93.5q-18 -48 -41.5 -94.5t-49.5 -91.5h-234q-42 0 -56 26.5t-14 77.5q0 54 15 82t55 28h232q0 30 -5.5 56t-16 50t-25 48t-32.5 50q-14 21 -24 39t-10 34q0 21 14 29l166 82h4q7 -14 16.5 -34.5t18 -47.5t14.5 -60t6 -72
q0 -40 -6 -82q-1 -5 -1.5 -10.5t-0.5 -10.5q0 -14 4.5 -27t22 -22.5t51 -15.5t90.5 -6q72 90 156 182.5t172.5 167.5t178 122.5t173.5 47.5q52 0 97.5 -20.5t84 -56t68.5 -82t51 -98t32 -105.5t11 -103q0 -16 -3 -49.5t-7.5 -72.5t-11 -79t-13.5 -68h-985zM1387 214
q6 19 11.5 56t5.5 77q0 18 -2.5 38t-7.5 38.5t-12 34t-17 25.5q-22 22 -61 31t-87 9q-112 0 -234 -79t-255 -230h659zM1086 -522l-116 117l-116 -117l-133 134l133 133l116 -115l116 115l134 -133z" />
    <glyph glyph-name="uni069D.medi" unicode="&#x69d;" horiz-adv-x="1770" 
d="M522 0q-35 0 -62 7.5t-50 28t-43.5 57t-41.5 93.5q-18 -48 -41.5 -94.5t-49.5 -91.5h-234q-42 0 -56 26.5t-14 77.5q0 54 15 82t55 28h232q0 30 -5.5 56t-16 50t-25 48t-32.5 50q-14 21 -24 39t-10 34q0 21 14 29l166 82h4q7 -14 16.5 -34.5t18 -47.5t14.5 -60t6 -72
q0 -40 -6 -82q-1 -5 -1.5 -10.5t-0.5 -10.5q0 -14 4.5 -27t22 -22.5t51 -15.5t90.5 -6q72 90 156 182.5t172.5 167.5t178 122.5t173.5 47.5q52 0 97.5 -20.5t84 -56t68.5 -82t51 -98.5t32 -106t11 -104q4 -11 22 -20.5t46.5 -16.5t65.5 -11.5t79 -4.5h15q42 0 56 -26.5
t14 -77.5q0 -54 -15 -82t-55 -28h-12q-38 0 -72 12t-63.5 32.5t-52.5 47.5t-38 57q-5 -40 -11 -80t-14 -69h-985zM1387 214q6 19 11.5 56t5.5 77q0 18 -2.5 38t-7.5 38.5t-12 34t-17 25.5q-22 22 -61 31t-87 9q-112 0 -234 -79t-255 -230h659zM1086 -522l-116 117l-116 -117
l-133 134l133 133l116 -115l116 115l134 -133z" />
    <glyph glyph-name="uni069D.fina" unicode="&#x69d;" horiz-adv-x="2177" 
d="M944 254q0 -4 -0.5 -8.5t-0.5 -13.5q88 107 174 199t168.5 159.5t162.5 105.5t156 38q52 0 97.5 -20.5t83.5 -55t68.5 -80.5t51.5 -97.5t32 -105.5t11 -104q1 -11 18.5 -21t46.5 -18t67.5 -13t81.5 -5h15q42 0 56 -26.5t14 -77.5q0 -54 -15 -82t-55 -28h-12
q-38 0 -72.5 12.5t-64 33t-52.5 47.5t-38 57q-5 -40 -11 -80.5t-14 -69.5h-1052q-27 -56 -67 -109t-93 -94.5t-119 -66.5t-144 -25q-101 0 -182 29.5t-138 85.5t-87.5 135.5t-30.5 180.5q0 61 15 117t36.5 99t45 69t40.5 26q4 0 9.5 -4t12.5 -9q-10 -15 -18.5 -41t-14.5 -55
t-9.5 -58.5t-3.5 -51.5q0 -67 28 -123.5t78.5 -98t121 -64.5t156.5 -23q91 0 150 22t93 56.5t47 76.5t13 82q0 35 -10.5 72.5t-28 74.5t-40.5 71.5t-47 63.5q-11 13 -18.5 25.5t-7.5 25.5q0 21 15 30l158 93h4q54 -78 86.5 -170t32.5 -188zM1795 214q6 19 11.5 56t5.5 77
q0 18 -2.5 38t-7.5 38.5t-12 34t-17 25.5q-11 11 -26.5 18.5t-32.5 12.5t-34 7t-31 2q-130 0 -256.5 -80t-257.5 -229h660zM1456 -522l-116 117l-116 -117l-133 134l133 133l116 -115l116 115l134 -133z" />
    <glyph glyph-name="uni069E.init" unicode="&#x69e;" horiz-adv-x="1642" 
d="M522 0q-35 0 -62 7.5t-50 28t-43.5 57t-41.5 93.5q-18 -48 -41.5 -94.5t-49.5 -91.5h-234q-42 0 -56 26.5t-14 77.5q0 54 15 82t55 28h232q0 30 -5.5 56t-16 50t-25 48t-32.5 50q-14 21 -24 39t-10 34q0 21 14 29l166 82h4q7 -14 16.5 -34.5t18 -47.5t14.5 -60t6 -72
q0 -40 -6 -82q-1 -5 -1.5 -10.5t-0.5 -10.5q0 -14 4.5 -27t22 -22.5t51 -15.5t90.5 -6q72 90 156 182.5t172.5 167.5t178 122.5t173.5 47.5q52 0 97.5 -20.5t84 -56t68.5 -82t51 -98t32 -105.5t11 -103q0 -16 -3 -49.5t-7.5 -72.5t-11 -79t-13.5 -68h-985zM1387 214
q6 19 11.5 56t5.5 77q0 18 -2.5 38t-7.5 38.5t-12 34t-17 25.5q-22 22 -61 31t-87 9q-112 0 -234 -79t-255 -230h659zM1223 1215l-132 -131l-131 131l131 132zM1343 981l-134 -133l-116 115l-116 -115l-133 133l133 134l116 -117l116 117z" />
    <glyph glyph-name="uni069E.medi" unicode="&#x69e;" horiz-adv-x="1770" 
d="M522 0q-35 0 -62 7.5t-50 28t-43.5 57t-41.5 93.5q-18 -48 -41.5 -94.5t-49.5 -91.5h-234q-42 0 -56 26.5t-14 77.5q0 54 15 82t55 28h232q0 30 -5.5 56t-16 50t-25 48t-32.5 50q-14 21 -24 39t-10 34q0 21 14 29l166 82h4q7 -14 16.5 -34.5t18 -47.5t14.5 -60t6 -72
q0 -40 -6 -82q-1 -5 -1.5 -10.5t-0.5 -10.5q0 -14 4.5 -27t22 -22.5t51 -15.5t90.5 -6q72 90 156 182.5t172.5 167.5t178 122.5t173.5 47.5q52 0 97.5 -20.5t84 -56t68.5 -82t51 -98.5t32 -106t11 -104q4 -11 22 -20.5t46.5 -16.5t65.5 -11.5t79 -4.5h15q42 0 56 -26.5
t14 -77.5q0 -54 -15 -82t-55 -28h-12q-38 0 -72 12t-63.5 32.5t-52.5 47.5t-38 57q-5 -40 -11 -80t-14 -69h-985zM1387 214q6 19 11.5 56t5.5 77q0 18 -2.5 38t-7.5 38.5t-12 34t-17 25.5q-22 22 -61 31t-87 9q-112 0 -234 -79t-255 -230h659zM1233 1215l-132 -131l-131 131
l131 132zM1353 981l-134 -133l-116 115l-116 -115l-133 133l133 134l116 -117l116 117z" />
    <glyph glyph-name="uni069E.fina" unicode="&#x69e;" horiz-adv-x="2177" 
d="M944 254q0 -4 -0.5 -8.5t-0.5 -13.5q88 107 174 199t168.5 159.5t162.5 105.5t156 38q52 0 97.5 -20.5t83.5 -55t68.5 -80.5t51.5 -97.5t32 -105.5t11 -104q1 -11 18.5 -21t46.5 -18t67.5 -13t81.5 -5h15q42 0 56 -26.5t14 -77.5q0 -54 -15 -82t-55 -28h-12
q-38 0 -72.5 12.5t-64 33t-52.5 47.5t-38 57q-5 -40 -11 -80.5t-14 -69.5h-1052q-27 -56 -67 -109t-93 -94.5t-119 -66.5t-144 -25q-101 0 -182 29.5t-138 85.5t-87.5 135.5t-30.5 180.5q0 61 15 117t36.5 99t45 69t40.5 26q4 0 9.5 -4t12.5 -9q-10 -15 -18.5 -41t-14.5 -55
t-9.5 -58.5t-3.5 -51.5q0 -67 28 -123.5t78.5 -98t121 -64.5t156.5 -23q91 0 150 22t93 56.5t47 76.5t13 82q0 35 -10.5 72.5t-28 74.5t-40.5 71.5t-47 63.5q-11 13 -18.5 25.5t-7.5 25.5q0 21 15 30l158 93h4q54 -78 86.5 -170t32.5 -188zM1795 214q6 19 11.5 56t5.5 77
q0 18 -2.5 38t-7.5 38.5t-12 34t-17 25.5q-11 11 -26.5 18.5t-32.5 12.5t-34 7t-31 2q-130 0 -256.5 -80t-257.5 -229h660zM1693 1215l-132 -131l-131 131l131 132zM1813 981l-134 -133l-116 115l-116 -115l-133 133l133 134l116 -117l116 117z" />
    <glyph glyph-name="uni069F.init" unicode="&#x69f;" horiz-adv-x="1379" 
d="M235 1219q0 19 4 31t19 17l162 37l3 -2v-833q99 84 176.5 136t138 80.5t108.5 38.5t89 10q52 0 97.5 -21t83.5 -56.5t68.5 -82.5t51.5 -99.5t32 -106.5t11 -103q0 -12 -1.5 -38t-5.5 -61.5t-11 -78t-17 -87.5h-1244q-42 0 -56 26.5t-14 77.5q0 54 15 82t55 28h235v1005z
M1123 214q6 19 11.5 56t5.5 77q0 18 -2.5 38t-7.5 38.5t-12 34t-17 25.5q-22 22 -60 31t-86 9q-114 0 -251 -71.5t-281 -207.5v-30h700zM1013 1215l-132 -131l-131 131l131 132zM1133 981l-134 -133l-116 115l-116 -115l-133 133l133 134l116 -117l116 117z" />
    <glyph glyph-name="uni069F.medi" unicode="&#x69f;" horiz-adv-x="1535" 
d="M235 1219q0 19 4 31t19 17l162 37l3 -2v-833q99 84 176.5 136t138 80.5t108.5 38.5t89 10q52 0 97.5 -21t83.5 -55.5t68.5 -79.5t51.5 -92t32 -92.5t11 -82.5q0 -21 11.5 -39t37 -30.5t67.5 -20t104 -7.5h36q42 0 56 -26.5t14 -77.5q0 -54 -15 -82t-55 -28h-24
q-75 0 -138.5 50t-99.5 137q-4 -42 -10.5 -89t-18.5 -98h-1244q-42 0 -56 26.5t-14 77.5q0 54 15 82t55 28h235v1005zM1124 214q6 19 11.5 56t5.5 77q0 18 -2.5 38t-7.5 38.5t-12 34t-17 25.5q-22 22 -60.5 31t-86.5 9q-114 0 -251 -71.5t-281 -207.5v-30h701zM1033 1215
l-132 -131l-131 131l131 132zM1153 981l-134 -133l-116 115l-116 -115l-133 133l133 134l116 -117l116 117z" />
    <glyph glyph-name="uni069F.fina" unicode="&#x69f;" horiz-adv-x="1594" 
d="M299 1219q0 19 4 31.5t19 17.5l162 36l3 -2v-833q99 82 176 133.5t138.5 80.5t109.5 40t88 11q53 0 99 -21.5t84.5 -57t68 -81t50 -93t31.5 -93.5t11 -82q0 -18 10.5 -35t36 -29.5t68 -20t105.5 -7.5h31q42 0 56 -26.5t14 -77.5q0 -54 -15 -82t-55 -28h-19
q-78 0 -139.5 49t-98.5 137q-4 -45 -11.5 -91.5t-17.5 -94.5h-1308q0 56 12.5 96.5t33.5 66.5t48.5 38.5t57.5 12.5h147v1005zM1187 214q6 19 11.5 56t5.5 77q0 18 -2.5 38t-7.5 38.5t-12 34t-17 25.5q-22 22 -60 31t-86 9q-114 0 -251 -71.5t-281 -207.5v-30h700z
M1083 1215l-132 -131l-131 131l131 132zM1203 981l-134 -133l-116 115l-116 -115l-133 133l133 134l116 -117l116 117z" />
    <glyph glyph-name="uni06A0.init" unicode="&#x6a0;" horiz-adv-x="870" 
d="M162 214q-19 35 -27 71t-8 64q0 49 18 100.5t49 99.5t73 90t90 73.5t99 50t101 18.5q72 0 112.5 -28t40.5 -70q0 -20 -6.5 -54t-22.5 -85q-54 17 -108 25.5t-96 8.5q-60 0 -97.5 -13.5t-59 -35t-29.5 -48.5t-8 -53q0 -36 17 -73.5t49.5 -69t80 -51.5t108.5 -20h232
q-4 -28 -14.5 -61.5t-22.5 -64.5t-23 -55t-17 -33h-693q-42 0 -56 26.5t-14 77.5q0 54 15 82t55 28h162zM635 1215l-132 -131l-131 131l131 132zM755 981l-134 -133l-116 115l-116 -115l-133 133l133 134l116 -117l116 117z" />
    <glyph glyph-name="uni06A0.medi" unicode="&#x6a0;" horiz-adv-x="874" 
d="M810 0q-59 0 -115 11t-104 28t-86.5 38t-63.5 41q-33 -21 -78 -42.5t-96 -38t-106.5 -27t-109.5 -10.5h-51q-42 0 -56 26.5t-14 77.5q0 54 15 82t55 28h121q39 0 81 7t69 15q-33 34 -61.5 76t-49 82.5t-32.5 73.5t-12 50q0 8 4 31.5t11.5 50.5t18 52t22.5 36q21 15 54 31
t75.5 28.5t93.5 20.5t109 8q72 0 126 -15t90 -38t54.5 -50.5t18.5 -52.5q0 -33 -8 -81t-27.5 -101.5t-52.5 -108.5t-83 -101q32 -10 80.5 -12t103.5 -2h68q42 0 56 -26.5t14 -77.5q0 -54 -15 -82t-55 -28h-64zM465 579q-20 0 -47.5 -2t-56.5 -6.5t-56 -12t-46 -19.5
q13 -23 33.5 -53t46 -61t54 -59t57.5 -46q48 26 84.5 56.5t60.5 58.5t36 50.5t12 32.5q0 7 -9.5 17t-30.5 20t-55 17t-83 7zM575 1215l-132 -131l-131 131l131 132zM695 981l-134 -133l-116 115l-116 -115l-133 133l133 134l116 -117l116 117z" />
    <glyph glyph-name="uni06A0.fina" unicode="&#x6a0;" horiz-adv-x="881" 
d="M465 579q-20 0 -47 -2t-55.5 -6.5t-56 -12t-47.5 -19.5q13 -22 34 -52t46.5 -61t54 -59.5t56.5 -46.5q42 28 77.5 59t61 58.5t40 49t14.5 31.5q0 7 -9.5 17t-30.5 20t-55 17t-83 7zM951 110q0 -54 -15 -82t-55 -28h-71q-60 0 -117 9.5t-107 26t-90.5 39.5t-68.5 50
q-104 -40 -164.5 -82.5t-91 -82.5t-38.5 -75.5t-8 -61.5q0 -47 20 -91.5t59.5 -79t100 -55.5t141.5 -21q34 0 70.5 2.5t71 7.5t64 12.5t49.5 18.5q-9 -47 -31 -90t-58 -75t-87 -51t-119 -19q-101 0 -177 32t-127 86t-76.5 125t-25.5 150q0 54 13 112t47 116.5t92.5 116
t150.5 112.5q-38 37 -72 80t-59.5 83.5t-40.5 73.5t-15 49q0 9 4 32.5t11.5 51t18 52t22.5 34.5q46 36 133 62t199 26q69 0 122.5 -14.5t90.5 -37t56.5 -50t19.5 -54.5q0 -35 -8.5 -80t-30.5 -93.5t-59.5 -99.5t-95.5 -98q18 -7 42 -13t51 -11t56.5 -8t57.5 -3h75
q42 0 56 -26.5t14 -77.5zM555 1215l-132 -131l-131 131l131 132zM675 981l-134 -133l-116 115l-116 -115l-133 133l133 134l116 -117l116 117z" />
    <glyph glyph-name="uni06A1.init" unicode="&#x6a1;" horiz-adv-x="910" 
d="M633 208q-2 115 -26.5 212t-75.5 172h-17q-56 0 -92.5 -14t-58 -37t-30 -51.5t-8.5 -58.5q0 -45 21 -85.5t61 -71t97 -48.5t129 -18zM242 214q-22 32 -39.5 80.5t-17.5 102.5q0 41 14.5 85t41 85.5t65 79t86 65.5t104 44.5t119.5 16.5h15.5t16.5 -1q22 -26 45 -67.5
t41.5 -92t30.5 -108.5t12 -117q0 -79 -20 -178.5t-74 -208.5h-682q-42 0 -56 26.5t-14 77.5q0 54 15 82t55 28h242z" />
    <glyph glyph-name="uni06A1.medi" unicode="&#x6a1;" horiz-adv-x="953" 
d="M242 214q-22 32 -39.5 80.5t-17.5 102.5q0 41 14.5 85t41 85.5t65 79t86 65.5t104 44.5t119.5 16.5h15.5t16.5 -1q22 -26 45 -67.5t41.5 -92t30.5 -108.5t12 -117q0 -40 -4 -82t-15 -91h196q42 0 56 -26.5t14 -77.5q0 -54 -15 -82t-55 -28h-953q-42 0 -56 26.5t-14 77.5
q0 54 15 82t55 28h242zM633 208q-2 115 -26.5 212t-75.5 172h-17q-56 0 -92.5 -14t-58 -37t-30 -51.5t-8.5 -58.5q0 -45 21 -85.5t61 -71t97 -48.5t129 -18z" />
    <glyph glyph-name="uni06A1.fina" unicode="&#x6a1;" horiz-adv-x="1747" 
d="M1052 214q-22 32 -39.5 80.5t-17.5 102.5q0 41 14.5 85t41.5 86t65 79t85.5 65.5t103 45t116.5 16.5q10 0 18 -0.5t18 -1.5q22 -26 45 -67.5t41.5 -92t30.5 -108.5t12 -117q0 -40 -4 -82t-15 -91h180q42 0 56 -26.5t14 -77.5q0 -54 -15 -82t-55 -28h-1419
q-71 0 -131 15.5t-103.5 48.5t-68.5 85t-25 125q0 61 17 114t41 91.5t50.5 60.5t45.5 22q2 0 8 -2.5t11 -7.5q-12 -20 -23 -43t-18.5 -45.5t-12 -43.5t-4.5 -37q0 -27 5.5 -56.5t31 -54.5t78 -41.5t147.5 -16.5h675zM1443 208q-2 115 -26.5 212t-75.5 172h-20q-56 0 -92 -14
t-57 -37t-29 -52t-8 -58q0 -45 21 -85.5t61 -71t97 -48.5t129 -18z" />
    <glyph glyph-name="uni06A2.init" unicode="&#x6a2;" horiz-adv-x="910" 
d="M633 208q-2 115 -26.5 212t-75.5 172h-17q-56 0 -92.5 -14t-58 -37t-30 -51.5t-8.5 -58.5q0 -45 21 -85.5t61 -71t97 -48.5t129 -18zM242 214q-22 32 -39.5 80.5t-17.5 102.5q0 41 14.5 85t41 85.5t65 79t86 65.5t104 44.5t119.5 16.5h15.5t16.5 -1q22 -26 45 -67.5
t41.5 -92t30.5 -108.5t12 -117q0 -79 -20 -178.5t-74 -208.5h-682q-42 0 -56 26.5t-14 77.5q0 54 15 82t55 28h242zM603 -345l-139 -138l-138 138l138 139z" />
    <glyph glyph-name="uni06A2.medi" unicode="&#x6a2;" horiz-adv-x="953" 
d="M242 214q-22 32 -39.5 80.5t-17.5 102.5q0 41 14.5 85t41 85.5t65 79t86 65.5t104 44.5t119.5 16.5h15.5t16.5 -1q22 -26 45 -67.5t41.5 -92t30.5 -108.5t12 -117q0 -40 -4 -82t-15 -91h196q42 0 56 -26.5t14 -77.5q0 -54 -15 -82t-55 -28h-953q-42 0 -56 26.5t-14 77.5
q0 54 15 82t55 28h242zM633 208q-2 115 -26.5 212t-75.5 172h-17q-56 0 -92.5 -14t-58 -37t-30 -51.5t-8.5 -58.5q0 -45 21 -85.5t61 -71t97 -48.5t129 -18zM623 -345l-139 -138l-138 138l138 139z" />
    <glyph glyph-name="uni06A2.fina" unicode="&#x6a2;" horiz-adv-x="1747" 
d="M1052 214q-22 32 -39.5 80.5t-17.5 102.5q0 41 14.5 85t41.5 86t65 79t85.5 65.5t103 45t116.5 16.5q10 0 18 -0.5t18 -1.5q22 -26 45 -67.5t41.5 -92t30.5 -108.5t12 -117q0 -40 -4 -82t-15 -91h180q42 0 56 -26.5t14 -77.5q0 -54 -15 -82t-55 -28h-1419
q-71 0 -131 15.5t-103.5 48.5t-68.5 85t-25 125q0 61 17 114t41 91.5t50.5 60.5t45.5 22q2 0 8 -2.5t11 -7.5q-12 -20 -23 -43t-18.5 -45.5t-12 -43.5t-4.5 -37q0 -27 5.5 -56.5t31 -54.5t78 -41.5t147.5 -16.5h675zM1443 208q-2 115 -26.5 212t-75.5 172h-20q-56 0 -92 -14
t-57 -37t-29 -52t-8 -58q0 -45 21 -85.5t61 -71t97 -48.5t129 -18zM1443 -345l-139 -138l-138 138l138 139z" />
    <glyph glyph-name="uni06A3.init" unicode="&#x6a3;" horiz-adv-x="910" 
d="M633 208q-2 115 -26.5 212t-75.5 172h-17q-56 0 -92.5 -14t-58 -37t-30 -51.5t-8.5 -58.5q0 -45 21 -85.5t61 -71t97 -48.5t129 -18zM242 214q-22 32 -39.5 80.5t-17.5 102.5q0 41 14.5 85t41 85.5t65 79t86 65.5t104 44.5t119.5 16.5h15.5t16.5 -1q22 -26 45 -67.5
t41.5 -92t30.5 -108.5t12 -117q0 -79 -20 -178.5t-74 -208.5h-682q-42 0 -56 26.5t-14 77.5q0 54 15 82t55 28h242zM597 986l-139 -138l-138 138l138 139zM603 -345l-139 -138l-138 138l138 139z" />
    <glyph glyph-name="uni06A3.medi" unicode="&#x6a3;" horiz-adv-x="953" 
d="M597 986l-139 -138l-138 138l138 139zM242 214q-22 32 -39.5 80.5t-17.5 102.5q0 41 14.5 85t41 85.5t65 79t86 65.5t104 44.5t119.5 16.5h15.5t16.5 -1q22 -26 45 -67.5t41.5 -92t30.5 -108.5t12 -117q0 -40 -4 -82t-15 -91h196q42 0 56 -26.5t14 -77.5q0 -54 -15 -82
t-55 -28h-953q-42 0 -56 26.5t-14 77.5q0 54 15 82t55 28h242zM633 208q-2 115 -26.5 212t-75.5 172h-17q-56 0 -92.5 -14t-58 -37t-30 -51.5t-8.5 -58.5q0 -45 21 -85.5t61 -71t97 -48.5t129 -18zM593 -345l-139 -138l-138 138l138 139z" />
    <glyph glyph-name="uni06A3.fina" unicode="&#x6a3;" horiz-adv-x="1747" 
d="M1052 214q-22 32 -39.5 80.5t-17.5 102.5q0 41 14.5 85t41.5 86t65 79t85.5 65.5t103 45t116.5 16.5q10 0 18 -0.5t18 -1.5q22 -26 45 -67.5t41.5 -92t30.5 -108.5t12 -117q0 -40 -4 -82t-15 -91h180q42 0 56 -26.5t14 -77.5q0 -54 -15 -82t-55 -28h-1419
q-71 0 -131 15.5t-103.5 48.5t-68.5 85t-25 125q0 61 17 114t41 91.5t50.5 60.5t45.5 22q2 0 8 -2.5t11 -7.5q-12 -20 -23 -43t-18.5 -45.5t-12 -43.5t-4.5 -37q0 -27 5.5 -56.5t31 -54.5t78 -41.5t147.5 -16.5h675zM1443 208q-2 115 -26.5 212t-75.5 172h-20q-56 0 -92 -14
t-57 -37t-29 -52t-8 -58q0 -45 21 -85.5t61 -71t97 -48.5t129 -18zM1429 986l-139 -138l-138 138l138 139zM953 -345l-139 -138l-138 138l138 139z" />
    <glyph glyph-name="uni06A5.init" unicode="&#x6a5;" horiz-adv-x="910" 
d="M633 208q-2 115 -26.5 212t-75.5 172h-17q-56 0 -92.5 -14t-58 -37t-30 -51.5t-8.5 -58.5q0 -45 21 -85.5t61 -71t97 -48.5t129 -18zM242 214q-22 32 -39.5 80.5t-17.5 102.5q0 41 14.5 85t41 85.5t65 79t86 65.5t104 44.5t119.5 16.5h15.5t16.5 -1q22 -26 45 -67.5
t41.5 -92t30.5 -108.5t12 -117q0 -79 -20 -178.5t-74 -208.5h-682q-42 0 -56 26.5t-14 77.5q0 54 15 82t55 28h242zM448 -754l-131 132l131 131l132 -131zM566 -522l-116 117l-116 -117l-133 134l133 133l116 -115l116 115l134 -133z" />
    <glyph glyph-name="uni06A5.medi" unicode="&#x6a5;" horiz-adv-x="953" 
d="M242 214q-22 32 -39.5 80.5t-17.5 102.5q0 41 14.5 85t41 85.5t65 79t86 65.5t104 44.5t119.5 16.5h15.5t16.5 -1q22 -26 45 -67.5t41.5 -92t30.5 -108.5t12 -117q0 -40 -4 -82t-15 -91h196q42 0 56 -26.5t14 -77.5q0 -54 -15 -82t-55 -28h-953q-42 0 -56 26.5t-14 77.5
q0 54 15 82t55 28h242zM633 208q-2 115 -26.5 212t-75.5 172h-17q-56 0 -92.5 -14t-58 -37t-30 -51.5t-8.5 -58.5q0 -45 21 -85.5t61 -71t97 -48.5t129 -18zM488 -754l-131 132l131 131l132 -131zM606 -522l-116 117l-116 -117l-133 134l133 133l116 -115l116 115l134 -133z
" />
    <glyph glyph-name="uni06A5.fina" unicode="&#x6a5;" horiz-adv-x="1747" 
d="M1052 214q-22 32 -39.5 80.5t-17.5 102.5q0 41 14.5 85t41.5 86t65 79t85.5 65.5t103 45t116.5 16.5q10 0 18 -0.5t18 -1.5q22 -26 45 -67.5t41.5 -92t30.5 -108.5t12 -117q0 -40 -4 -82t-15 -91h180q42 0 56 -26.5t14 -77.5q0 -54 -15 -82t-55 -28h-1419
q-71 0 -131 15.5t-103.5 48.5t-68.5 85t-25 125q0 61 17 114t41 91.5t50.5 60.5t45.5 22q2 0 8 -2.5t11 -7.5q-12 -20 -23 -43t-18.5 -45.5t-12 -43.5t-4.5 -37q0 -27 5.5 -56.5t31 -54.5t78 -41.5t147.5 -16.5h675zM1443 208q-2 115 -26.5 212t-75.5 172h-20q-56 0 -92 -14
t-57 -37t-29 -52t-8 -58q0 -45 21 -85.5t61 -71t97 -48.5t129 -18zM1248 -754l-131 132l131 131l132 -131zM1366 -522l-116 117l-116 -117l-133 134l133 133l116 -115l116 115l134 -133z" />
    <glyph glyph-name="uni06A7.init" unicode="&#x6a7;" horiz-adv-x="910" 
d="M633 208q-2 115 -26.5 212t-75.5 172h-17q-56 0 -92.5 -14t-58 -37t-30 -51.5t-8.5 -58.5q0 -45 21 -85.5t61 -71t97 -48.5t129 -18zM242 214q-22 32 -39.5 80.5t-17.5 102.5q0 41 14.5 85t41 85.5t65 79t86 65.5t104 44.5t119.5 16.5h15.5t16.5 -1q22 -26 45 -67.5
t41.5 -92t30.5 -108.5t12 -117q0 -79 -20 -178.5t-74 -208.5h-682q-42 0 -56 26.5t-14 77.5q0 54 15 82t55 28h242zM597 986l-139 -138l-138 138l138 139z" />
    <glyph glyph-name="uni06A7.medi" unicode="&#x6a7;" horiz-adv-x="953" 
d="M597 986l-139 -138l-138 138l138 139zM242 214q-22 32 -39.5 80.5t-17.5 102.5q0 41 14.5 85t41 85.5t65 79t86 65.5t104 44.5t119.5 16.5h15.5t16.5 -1q22 -26 45 -67.5t41.5 -92t30.5 -108.5t12 -117q0 -40 -4 -82t-15 -91h196q42 0 56 -26.5t14 -77.5q0 -54 -15 -82
t-55 -28h-953q-42 0 -56 26.5t-14 77.5q0 54 15 82t55 28h242zM633 208q-2 115 -26.5 212t-75.5 172h-17q-56 0 -92.5 -14t-58 -37t-30 -51.5t-8.5 -58.5q0 -45 21 -85.5t61 -71t97 -48.5t129 -18z" />
    <glyph glyph-name="uni06A7.fina" unicode="&#x6a7;" horiz-adv-x="1326" 
d="M1152 274q0 -17 -0.5 -31t-2.5 -29h177q42 0 56 -26.5t14 -77.5q0 -54 -15 -82t-55 -28h-234q-39 -78 -99 -141.5t-136 -108t-164 -69t-183 -24.5q-130 0 -226 41t-159 107t-94 149.5t-31 169.5q0 68 13 124t31.5 96.5t40 62.5t39.5 22q2 0 8 -1t11 -6q-11 -20 -19.5 -47
t-13.5 -55.5t-7.5 -57t-2.5 -51.5q0 -74 30 -134.5t87.5 -104t142 -67.5t193.5 -24q73 0 136.5 12t114.5 32t88 45t58 52q-75 7 -145 32.5t-125 71t-88 113t-33 158.5q0 67 33.5 134.5t92.5 121.5t139.5 88t173.5 34h16t17 -1q36 -55 59.5 -119.5t37 -131t19 -131
t5.5 -118.5zM1006 214q-2 109 -26 206t-76 172q-45 0 -83 -8t-65 -27t-42.5 -50t-15.5 -76q0 -39 16.5 -78t53 -70t95 -50t143.5 -19zM992 1032l-139 -138l-138 138l138 139z" />
    <glyph glyph-name="uni06A8.init" unicode="&#x6a8;" horiz-adv-x="910" 
d="M633 208q-2 115 -26.5 212t-75.5 172h-17q-56 0 -92.5 -14t-58 -37t-30 -51.5t-8.5 -58.5q0 -45 21 -85.5t61 -71t97 -48.5t129 -18zM242 214q-22 32 -39.5 80.5t-17.5 102.5q0 41 14.5 85t41 85.5t65 79t86 65.5t104 44.5t119.5 16.5h15.5t16.5 -1q22 -26 45 -67.5
t41.5 -92t30.5 -108.5t12 -117q0 -79 -20 -178.5t-74 -208.5h-682q-42 0 -56 26.5t-14 77.5q0 54 15 82t55 28h242zM617 1271l-132 -131l-131 131l131 132zM737 1037l-134 -133l-116 115l-116 -115l-133 133l133 134l116 -117l116 117z" />
    <glyph glyph-name="uni06A8.medi" unicode="&#x6a8;" horiz-adv-x="953" 
d="M242 214q-22 32 -39.5 80.5t-17.5 102.5q0 41 14.5 85t41 85.5t65 79t86 65.5t104 44.5t119.5 16.5h15.5t16.5 -1q22 -26 45 -67.5t41.5 -92t30.5 -108.5t12 -117q0 -40 -4 -82t-15 -91h196q42 0 56 -26.5t14 -77.5q0 -54 -15 -82t-55 -28h-953q-42 0 -56 26.5t-14 77.5
q0 54 15 82t55 28h242zM633 208q-2 115 -26.5 212t-75.5 172h-17q-56 0 -92.5 -14t-58 -37t-30 -51.5t-8.5 -58.5q0 -45 21 -85.5t61 -71t97 -48.5t129 -18zM626 1265l-132 -131l-131 131l131 132zM746 1031l-134 -133l-116 115l-116 -115l-133 133l133 134l116 -117
l116 117z" />
    <glyph glyph-name="uni06A8.fina" unicode="&#x6a8;" horiz-adv-x="1326" 
d="M1152 274q0 -17 -0.5 -31t-2.5 -29h177q42 0 56 -26.5t14 -77.5q0 -54 -15 -82t-55 -28h-234q-39 -78 -99 -141.5t-136 -108t-164 -69t-183 -24.5q-130 0 -226 41t-159 107t-94 149.5t-31 169.5q0 68 13 124t31.5 96.5t40 62.5t39.5 22q2 0 8 -1t11 -6q-11 -20 -19.5 -47
t-13.5 -55.5t-7.5 -57t-2.5 -51.5q0 -74 30 -134.5t87.5 -104t142 -67.5t193.5 -24q73 0 136.5 12t114.5 32t88 45t58 52q-75 7 -145 32.5t-125 71t-88 113t-33 158.5q0 67 33.5 134.5t92.5 121.5t139.5 88t173.5 34h16t17 -1q36 -55 59.5 -119.5t37 -131t19 -131
t5.5 -118.5zM1006 214q-2 109 -26 206t-76 172q-45 0 -83 -8t-65 -27t-42.5 -50t-15.5 -76q0 -39 16.5 -78t53 -70t95 -50t143.5 -19zM1103 1031l-134 -133l-116 115l-116 -115l-133 133l133 134l116 -117l116 117zM983 1265l-132 -131l-131 131l131 132z" />
    <glyph glyph-name="uni06AA.init" unicode="&#x6aa;" horiz-adv-x="1066" 
d="M0 0q-42 0 -56 26.5t-14 77.5q0 54 15 82t55 28h752q6 14 10.5 33t7 38.5t4 37.5t1.5 30q0 19 -11.5 43t-46.5 36q-30 10 -80 17.5t-125 13.5t-179 10t-242 7l19 175l238 151q105 66 180 114.5t124 85.5t75 67t34 59q15 -13 26.5 -31t20 -37t12.5 -37.5t4 -33.5
q0 -23 -5 -45t-20.5 -44t-44 -43.5t-74.5 -43.5l-246 -119q110 -21 201.5 -61.5t157.5 -98.5t102.5 -131.5t36.5 -161.5q0 -105 -35 -245h-897z" />
    <glyph glyph-name="uni06AA.medi" unicode="&#x6aa;" horiz-adv-x="1184" 
d="M907 187q-3 -16 -9.5 -40.5t-15 -51t-18.5 -52t-20 -43.5h-844q-42 0 -56 26.5t-14 77.5q0 54 15 82t55 28h752q5 12 9 30t7 37.5t5 38.5t2 33q0 19 -11.5 44.5t-46.5 38.5q-30 11 -80.5 18.5t-126 13t-179.5 9.5t-240 7l19 171l238 151q105 66 180 114.5t124 85.5t75 67
t34 59q15 -13 26.5 -31t20 -37t12.5 -37.5t4 -33.5q0 -25 -6 -48t-22 -44.5t-43 -41.5t-69 -40l-251 -121q100 -22 186 -58t152 -86.5t107.5 -114.5t51.5 -141q2 -19 7 -34.5t26 -26.5t64 -17t121 -6h36q42 0 56 -26.5t14 -77.5q0 -54 -15 -82t-55 -28h-36q-41 0 -80.5 14.5
t-72 39.5t-56 59t-32.5 74z" />
    <glyph glyph-name="uni06AA.fina" unicode="&#x6aa;" horiz-adv-x="1723" 
d="M345 0q-172 0 -258.5 64t-86.5 210q0 61 17 114t41 91.5t50.5 60.5t45.5 22q5 0 19 -3t22 -9q-25 -42 -40 -87t-15 -80q0 -27 5.5 -56.5t31 -54.5t78 -41.5t147.5 -16.5h901q5 12 9 30t7 37.5t5 38.5t2 33q0 19 -11.5 42.5t-46.5 36.5q-30 11 -80.5 18.5t-126 13
t-179.5 9.5t-240 7l19 175l238 151q105 66 180 114.5t124 85.5t75 67t34 59q15 -13 26.5 -31t20 -37t12.5 -37.5t4 -33.5q0 -25 -6 -48t-22 -44.5t-43 -41.5t-69 -40l-251 -121q82 -12 166 -47.5t154.5 -88t118.5 -120.5t58 -144q2 -19 7 -34.5t26 -26.5t64 -17t121 -6h24
q42 0 56 -26.5t14 -77.5q0 -54 -15 -82t-55 -28h-24q-40 0 -78.5 15t-71.5 40.5t-57 59.5t-34 72q-4 -17 -11 -41.5t-15.5 -50.5t-18 -51t-18.5 -44h-1050z" />
    <glyph glyph-name="uni06AB.init" unicode="&#x6ab;" horiz-adv-x="1066" 
d="M0 0q-42 0 -56 26.5t-14 77.5q0 54 15 82t55 28h752q6 14 10.5 33t7 38.5t4 37.5t1.5 30q0 19 -11.5 43t-46.5 36q-30 10 -80 17.5t-125 13.5t-179 10t-242 7l19 175l238 151q105 66 180 114.5t124 85.5t75 67t34 59q15 -13 26.5 -31t20 -37t12.5 -37.5t4 -33.5
q0 -23 -5 -45t-20.5 -44t-44 -43.5t-74.5 -43.5l-246 -119q110 -21 201.5 -61.5t157.5 -98.5t102.5 -131.5t36.5 -161.5q0 -105 -35 -245h-897zM644 1200q-13 -18 -54.5 -57.5t-99 -89.5t-124.5 -103t-132.5 -97t-123.5 -72.5t-96 -28.5q-17 0 -35 14.5t-29 34.5
q81 46 189 130.5t220 208.5q66 73 108 116t57 43q16 0 38.5 -9t43 -21.5t35 -25t14.5 -19.5q0 -10 -11 -24z" />
    <glyph glyph-name="uni06AB.medi" unicode="&#x6ab;" horiz-adv-x="1184" 
d="M907 187q-3 -16 -9.5 -40.5t-15 -51t-18.5 -52t-20 -43.5h-844q-42 0 -56 26.5t-14 77.5q0 54 15 82t55 28h752q5 12 9 30t7 37.5t5 38.5t2 33q0 19 -11.5 44.5t-46.5 38.5q-30 11 -80.5 18.5t-126 13t-179.5 9.5t-240 7l19 171l238 151q105 66 180 114.5t124 85.5t75 67
t34 59q15 -13 26.5 -31t20 -37t12.5 -37.5t4 -33.5q0 -25 -6 -48t-22 -44.5t-43 -41.5t-69 -40l-251 -121q100 -22 186 -58t152 -86.5t107.5 -114.5t51.5 -141q2 -19 7 -34.5t26 -26.5t64 -17t121 -6h36q42 0 56 -26.5t14 -77.5q0 -54 -15 -82t-55 -28h-36q-41 0 -80.5 14.5
t-72 39.5t-56 59t-32.5 74zM644 1200q-13 -18 -54.5 -57.5t-99 -89.5t-124.5 -103t-132.5 -97t-123.5 -72.5t-96 -28.5q-17 0 -35 14.5t-29 34.5q81 46 189 130.5t220 208.5q66 73 108 116t57 43q16 0 38.5 -9t43 -21.5t35 -25t14.5 -19.5q0 -10 -11 -24z" />
    <glyph glyph-name="uni06AB.fina" unicode="&#x6ab;" horiz-adv-x="1723" 
d="M345 0q-172 0 -258.5 64t-86.5 210q0 61 17 114t41 91.5t50.5 60.5t45.5 22q5 0 19 -3t22 -9q-25 -42 -40 -87t-15 -80q0 -27 5.5 -56.5t31 -54.5t78 -41.5t147.5 -16.5h901q5 12 9 30t7 37.5t5 38.5t2 33q0 19 -11.5 42.5t-46.5 36.5q-30 11 -80.5 18.5t-126 13
t-179.5 9.5t-240 7l19 175l238 151q105 66 180 114.5t124 85.5t75 67t34 59q15 -13 26.5 -31t20 -37t12.5 -37.5t4 -33.5q0 -25 -6 -48t-22 -44.5t-43 -41.5t-69 -40l-251 -121q82 -12 166 -47.5t154.5 -88t118.5 -120.5t58 -144q2 -19 7 -34.5t26 -26.5t64 -17t121 -6h24
q42 0 56 -26.5t14 -77.5q0 -54 -15 -82t-55 -28h-24q-40 0 -78.5 15t-71.5 40.5t-57 59.5t-34 72q-4 -17 -11 -41.5t-15.5 -50.5t-18 -51t-18.5 -44h-1050zM1151 1200q-13 -18 -54.5 -57.5t-99 -89.5t-124.5 -103t-132.5 -97t-123.5 -72.5t-96 -28.5q-17 0 -35 14.5
t-29 34.5q81 46 189 130.5t220 208.5q66 73 108 116t57 43q16 0 38.5 -9t43 -21.5t35 -25t14.5 -19.5q0 -10 -11 -24z" />
    <glyph glyph-name="uni06AC.init" unicode="&#x6ac;" horiz-adv-x="1066" 
d="M0 0q-42 0 -56 26.5t-14 77.5q0 54 15 82t55 28h752q6 14 10.5 33t7 38.5t4 37.5t1.5 30q0 19 -11.5 43t-46.5 36q-30 10 -80 17.5t-125 13.5t-179 10t-242 7l19 175l238 151q105 66 180 114.5t124 85.5t75 67t34 59q15 -13 26.5 -31t20 -37t12.5 -37.5t4 -33.5
q0 -23 -5 -45t-20.5 -44t-44 -43.5t-74.5 -43.5l-246 -119q110 -21 201.5 -61.5t157.5 -98.5t102.5 -131.5t36.5 -161.5q0 -105 -35 -245h-897zM474 1216l-132 -131l-131 131l131 132z" />
    <glyph glyph-name="uni06AC.medi" unicode="&#x6ac;" horiz-adv-x="1184" 
d="M907 187q-3 -16 -9.5 -40.5t-15 -51t-18.5 -52t-20 -43.5h-844q-42 0 -56 26.5t-14 77.5q0 54 15 82t55 28h752q5 12 9 30t7 37.5t5 38.5t2 33q0 19 -11.5 44.5t-46.5 38.5q-30 11 -80.5 18.5t-126 13t-179.5 9.5t-240 7l19 171l238 151q105 66 180 114.5t124 85.5t75 67
t34 59q15 -13 26.5 -31t20 -37t12.5 -37.5t4 -33.5q0 -25 -6 -48t-22 -44.5t-43 -41.5t-69 -40l-251 -121q100 -22 186 -58t152 -86.5t107.5 -114.5t51.5 -141q2 -19 7 -34.5t26 -26.5t64 -17t121 -6h36q42 0 56 -26.5t14 -77.5q0 -54 -15 -82t-55 -28h-36q-41 0 -80.5 14.5
t-72 39.5t-56 59t-32.5 74zM470 1210l-132 -131l-131 131l131 132z" />
    <glyph glyph-name="uni06AC.fina" unicode="&#x6ac;" horiz-adv-x="1603" 
d="M1349 283q0 -30 54 -49.5t163 -19.5h37q42 0 56 -26.5t14 -77.5q0 -54 -15 -82t-55 -28h-25q-27 0 -62.5 9t-71 30.5t-67.5 57.5t-52 90q-5 -14 -15.5 -38.5t-23.5 -51.5t-26.5 -53t-25.5 -44h-906q-71 0 -131 15.5t-103.5 48.5t-68.5 85t-25 125q0 61 17 114t41 91.5
t50.5 60.5t45.5 22q2 0 8 -2t11 -7q-25 -41 -41.5 -88.5t-16.5 -81.5q0 -27 5.5 -56.5t31 -54.5t78 -41.5t147.5 -16.5h786v1081q0 19 4 31t19 17l162 37l3 -2zM512 495l39 96l89 10q-24 12 -40 38t-16 56t16.5 61t42.5 55.5t59 40t65 15.5q20 0 47.5 -8t49.5 -22l-54 -82
q-37 25 -79 25q-32 0 -50 -18t-18 -44q0 -20 12 -37t32 -29t47 -19t56 -7q12 0 21 0.5t23 2.5l-42 -96zM1383 1628l-132 -131l-131 131l131 132z" />
    <glyph glyph-name="uni06AE.init" unicode="&#x6ae;" horiz-adv-x="1066" 
d="M0 0q-42 0 -56 26.5t-14 77.5q0 54 15 82t55 28h752q6 14 10.5 33t7 38.5t4 37.5t1.5 30q0 19 -11.5 43t-46.5 36q-30 10 -80 17.5t-125 13.5t-179 10t-242 7l19 175l238 151q105 66 180 114.5t124 85.5t75 67t34 59q15 -13 26.5 -31t20 -37t12.5 -37.5t4 -33.5
q0 -23 -5 -45t-20.5 -44t-44 -43.5t-74.5 -43.5l-246 -119q110 -21 201.5 -61.5t157.5 -98.5t102.5 -131.5t36.5 -161.5q0 -105 -35 -245h-897zM438 -754l-131 132l131 131l132 -131zM556 -522l-116 117l-116 -117l-133 134l133 133l116 -115l116 115l134 -133z" />
    <glyph glyph-name="uni06AE.medi" unicode="&#x6ae;" horiz-adv-x="1184" 
d="M907 187q-3 -16 -9.5 -40.5t-15 -51t-18.5 -52t-20 -43.5h-844q-42 0 -56 26.5t-14 77.5q0 54 15 82t55 28h752q5 12 9 30t7 37.5t5 38.5t2 33q0 19 -11.5 44.5t-46.5 38.5q-30 11 -80.5 18.5t-126 13t-179.5 9.5t-240 7l19 171l238 151q105 66 180 114.5t124 85.5t75 67
t34 59q15 -13 26.5 -31t20 -37t12.5 -37.5t4 -33.5q0 -25 -6 -48t-22 -44.5t-43 -41.5t-69 -40l-251 -121q100 -22 186 -58t152 -86.5t107.5 -114.5t51.5 -141q2 -19 7 -34.5t26 -26.5t64 -17t121 -6h36q42 0 56 -26.5t14 -77.5q0 -54 -15 -82t-55 -28h-36q-41 0 -80.5 14.5
t-72 39.5t-56 59t-32.5 74zM448 -754l-131 132l131 131l132 -131zM566 -522l-116 117l-116 -117l-133 134l133 133l116 -115l116 115l134 -133z" />
    <glyph glyph-name="uni06AE.fina" unicode="&#x6ae;" horiz-adv-x="1603" 
d="M1349 283q0 -30 54 -49.5t163 -19.5h37q42 0 56 -26.5t14 -77.5q0 -54 -15 -82t-55 -28h-25q-27 0 -62.5 9t-71 30.5t-67.5 57.5t-52 90q-5 -14 -15.5 -38.5t-23.5 -51.5t-26.5 -53t-25.5 -44h-906q-71 0 -131 15.5t-103.5 48.5t-68.5 85t-25 125q0 61 17 114t41 91.5
t50.5 60.5t45.5 22q2 0 8 -2t11 -7q-25 -41 -41.5 -88.5t-16.5 -81.5q0 -27 5.5 -56.5t31 -54.5t78 -41.5t147.5 -16.5h786v1081q0 19 4 31t19 17l162 37l3 -2zM512 495l39 96l89 10q-24 12 -40 38t-16 56t16.5 61t42.5 55.5t59 40t65 15.5q20 0 47.5 -8t49.5 -22l-54 -82
q-37 25 -79 25q-32 0 -50 -18t-18 -44q0 -20 12 -37t32 -29t47 -19t56 -7q12 0 21 0.5t23 2.5l-42 -96zM708 -754l-131 132l131 131l132 -131zM826 -522l-116 117l-116 -117l-133 134l133 133l116 -115l116 115l134 -133z" />
    <glyph glyph-name="uni06B0.init" unicode="&#x6b0;" horiz-adv-x="1076" 
d="M6 760q-17 0 -34.5 15t-27.5 35q82 45 238 174.5t271 251.5q68 71 111 113t58 42q16 -1 38 -10.5t42.5 -22.5t34.5 -25.5t14 -19.5q0 -10 -12 -24q-13 -18 -55.5 -56.5t-101 -87t-127 -100t-181 -142t-171.5 -117.5q-33 -15 -59 -21q-21 -5 -38 -5zM941 792
q-1 -10 -3 -20q-4 -18 -14 -34q-21 -36 -55 -63q-19 -14 -37 -20q-9 -3 -18 -4l-10 -1l-8 1q-18 1 -33 10t-27 24q-14 18 -26 44t-21.5 55.5t-14.5 59.5q-1 2 -1 4q-94 -59 -239 -150q110 -21 201.5 -61.5t157.5 -98.5t102.5 -131.5t36.5 -161.5q0 -105 -35 -245h-897
q-42 0 -56 26.5t-14 77.5q0 54 15 82t55 28h752q6 14 10.5 33t7 38.5t4 37.5t1.5 30q0 19 -11.5 43t-46.5 36q-30 10 -80 17.5t-125 13.5t-179 10t-242 7l19 175q583 412 632 449t75 67t34 59q15 -13 26.5 -31t20 -37t12.5 -37.5t4 -33.5q0 -23 -5 -45t-20.5 -44t-43.5 -43
q-3 -3 -10 -7l6 -4q21 -14 40.5 -32t35.5 -38q13 -17 20 -41q3 -12 4 -24l1 -10zM801 751q13 5 30 18q24 18 34.5 32t12.5 25q1 3 1 6q0 7 -3 13q-4 8 -9 15q-9 12 -26 21.5t-36 14.5q-16 4 -31 4h-6q-11 -1 -19 -4q-6 -3 -12 -7q-6 -6 -8 -13q-4 -10 -4 -22q-1 -3 -1 -6
q0 -10 2 -20q2 -13 5 -25t8 -22.5t10 -16.5q5 -7 12.5 -12t17.5 -5h9q6 1 13 4z" />
    <glyph glyph-name="uni06B0.medi" unicode="&#x6b0;" horiz-adv-x="1184" 
d="M758 903q-8 -6 -12 -17t-4 -24q-1 -3 -1 -5q0 -11 2 -22q2 -15 6 -28t9 -24.5t10 -17.5q6 -8 14 -13.5t19 -5.5q0 -1 1 -1q10 0 23 6q14 5 33 19q26 20 37.5 35t14.5 27v8q0 6 -2 13q-5 9 -11 16q-10 14 -28.5 24t-38.5 16q-18 4 -35 4h-5q-20 -1 -32 -10zM6 760
q-17 1 -34.5 16t-28.5 35q82 44 241.5 176.5t274.5 253.5q68 72 111 114q28 27 44 36q9 5 14 5q16 0 38 -9.5t42.5 -22.5t34.5 -26t14 -20q0 -10 -12 -24q-13 -17 -55.5 -55.5t-101 -87t-242.5 -193t-243 -171.5q-33 -16 -59 -22q-21 -5 -38 -5zM685 857q-97 -62 -252 -159
q100 -22 186 -58t152 -86.5t107.5 -114.5t51.5 -141q2 -19 7 -34.5t26 -26.5t64 -17t121 -6h36q42 0 56 -26.5t14 -77.5q0 -54 -15 -82t-55 -28h-36q-41 0 -80.5 14.5t-72 39.5t-56 59t-32.5 74q-3 -16 -9.5 -40.5t-15 -51t-18.5 -52t-20 -43.5h-844q-42 0 -56 26.5
t-14 77.5q0 54 15 82t55 28h752q5 12 9 30t7 37.5t5 38.5t2 33q0 19 -11.5 44.5t-46.5 38.5q-30 11 -80.5 18.5t-126 13t-179.5 9.5t-240 7l19 171l238 151q264 193 356.5 267t118.5 104t34 59q15 -13 26.5 -31t20 -37t12.5 -37.5t4 -33.5q0 -25 -6 -48t-22 -44
q-13 -18 -32 -34q4 -3 9 -5q23 -16 44.5 -35.5t38.5 -41.5q14 -19 22 -45q5 -17 5 -36q0 -10 -1 -19q-4 -30 -22.5 -61.5t-56.5 -59.5q-20 -16 -40 -22q-16 -6 -32 -6q-4 0 -7 1q-20 1 -36 10.5t-30 27.5q-15 19 -28 47.5t-23.5 60.5t-16.5 65q0 3 -1 5z" />
    <glyph glyph-name="uni06B0.fina" unicode="&#x6b0;" horiz-adv-x="1723" 
d="M512 762q-17 0 -34.5 15t-28.5 36q82 43 247.5 181.5t281.5 259.5q68 71 111 112.5t58 41.5q16 0 38.5 -10t42.5 -23t34 -26t14 -20q0 -10 -12 -23q-13 -18 -55.5 -56.5t-266 -223.5t-307.5 -225q-50 -23 -83 -33q-24 -6 -40 -6zM1321 915q-1 -1 -2 -1l-2 -2
q-9 -6 -12.5 -16.5t-3.5 -23.5q-1 -3 -1 -5q0 -11 2 -22q2 -14 5.5 -27t9 -24t10.5 -18t13 -12.5t18 -5.5q1 -1 2 -1q9 0 22 5q14 5 33 20q25 19 36 33.5t14 26.5v8q0 7 -2 13q-4 9 -10 16q-10 13 -28 23t-38 16q-17 4 -33 4h-6q-17 -1 -27 -7zM1245 865q-98 -63 -261 -167
q82 -12 166 -47.5t154.5 -88t118.5 -120.5t58 -144q2 -19 7 -34.5t26 -26.5t64 -17t121 -6h24q42 0 56 -26.5t14 -77.5q0 -54 -15 -82t-55 -28h-24q-40 0 -78.5 15t-71.5 40.5t-57 59.5t-34 72q-4 -17 -11 -41.5t-15.5 -50.5t-18 -51t-18.5 -44h-1050q-172 0 -258.5 64
t-86.5 210q0 61 17 114t41 91.5t50.5 60.5t45.5 22q5 0 19 -3t22 -9q-25 -42 -40 -87t-15 -80q0 -27 5.5 -56.5t31 -54.5t78 -41.5t147.5 -16.5h901q5 12 9 30t7 37.5t5 38.5t2 33q0 19 -11.5 42.5t-46.5 36.5q-30 11 -80.5 18.5t-126 13t-179.5 9.5t-240 7l19 175
q327 213 443 301t185.5 146t95.5 88t34 59q15 -13 26.5 -31t20 -37t12.5 -37.5t4 -33.5q0 -25 -6 -48t-22 -44q-11 -15 -40 -38q5 -3 11 -7q23 -15 44 -34t38 -41q14 -18 22 -44q4 -17 4 -35q0 -10 -1 -19q-4 -29 -22 -60t-55 -59q-20 -15 -39 -21q-16 -6 -32 -6q-3 0 -7 1
q-19 1 -35 10.5t-29 26.5q-15 19 -28 47t-23 59t-16 64q0 1 -1 3z" />
    <glyph glyph-name="uni06B2.init" unicode="&#x6b2;" horiz-adv-x="1066" 
d="M0 0q-42 0 -56 26.5t-14 77.5q0 54 15 82t55 28h752q6 14 10.5 33t7 38.5t4 37.5t1.5 30q0 19 -11.5 43t-46.5 36q-30 10 -80 17.5t-125 13.5t-179 10t-242 7l19 175l238 151q105 66 180 114.5t124 85.5t75 67t34 59q15 -13 26.5 -31t20 -37t12.5 -37.5t4 -33.5
q0 -23 -5 -45t-20.5 -44t-44 -43.5t-74.5 -43.5l-246 -119q110 -21 201.5 -61.5t157.5 -98.5t102.5 -131.5t36.5 -161.5q0 -105 -35 -245h-897zM644 1200q-13 -18 -54.5 -57.5t-99 -89.5t-124.5 -103t-132.5 -97t-123.5 -72.5t-96 -28.5q-17 0 -35 14.5t-29 34.5
q81 46 189 130.5t220 208.5q66 73 108 116t57 43q16 0 38.5 -9t43 -21.5t35 -25t14.5 -19.5q0 -10 -11 -24zM556 -522l-116 117l-116 -117l-133 134l133 133l116 -115l116 115l134 -133z" />
    <glyph glyph-name="uni06B2.medi" unicode="&#x6b2;" horiz-adv-x="1184" 
d="M907 187q-3 -16 -9.5 -40.5t-15 -51t-18.5 -52t-20 -43.5h-844q-42 0 -56 26.5t-14 77.5q0 54 15 82t55 28h752q5 12 9 30t7 37.5t5 38.5t2 33q0 19 -11.5 44.5t-46.5 38.5q-30 11 -80.5 18.5t-126 13t-179.5 9.5t-240 7l19 171l238 151q105 66 180 114.5t124 85.5t75 67
t34 59q15 -13 26.5 -31t20 -37t12.5 -37.5t4 -33.5q0 -25 -6 -48t-22 -44.5t-43 -41.5t-69 -40l-251 -121q100 -22 186 -58t152 -86.5t107.5 -114.5t51.5 -141q2 -19 7 -34.5t26 -26.5t64 -17t121 -6h36q42 0 56 -26.5t14 -77.5q0 -54 -15 -82t-55 -28h-36q-41 0 -80.5 14.5
t-72 39.5t-56 59t-32.5 74zM644 1200q-13 -18 -54.5 -57.5t-99 -89.5t-124.5 -103t-132.5 -97t-123.5 -72.5t-96 -28.5q-17 0 -35 14.5t-29 34.5q81 46 189 130.5t220 208.5q66 73 108 116t57 43q16 0 38.5 -9t43 -21.5t35 -25t14.5 -19.5q0 -10 -11 -24zM566 -522l-116 117
l-116 -117l-133 134l133 133l116 -115l116 115l134 -133z" />
    <glyph glyph-name="uni06B2.fina" unicode="&#x6b2;" horiz-adv-x="1723" 
d="M345 0q-172 0 -258.5 64t-86.5 210q0 61 17 114t41 91.5t50.5 60.5t45.5 22q5 0 19 -3t22 -9q-25 -42 -40 -87t-15 -80q0 -27 5.5 -56.5t31 -54.5t78 -41.5t147.5 -16.5h901q5 12 9 30t7 37.5t5 38.5t2 33q0 19 -11.5 42.5t-46.5 36.5q-30 11 -80.5 18.5t-126 13
t-179.5 9.5t-240 7l19 175l238 151q105 66 180 114.5t124 85.5t75 67t34 59q15 -13 26.5 -31t20 -37t12.5 -37.5t4 -33.5q0 -25 -6 -48t-22 -44.5t-43 -41.5t-69 -40l-251 -121q82 -12 166 -47.5t154.5 -88t118.5 -120.5t58 -144q2 -19 7 -34.5t26 -26.5t64 -17t121 -6h24
q42 0 56 -26.5t14 -77.5q0 -54 -15 -82t-55 -28h-24q-40 0 -78.5 15t-71.5 40.5t-57 59.5t-34 72q-4 -17 -11 -41.5t-15.5 -50.5t-18 -51t-18.5 -44h-1050zM1151 1200q-13 -18 -54.5 -57.5t-99 -89.5t-124.5 -103t-132.5 -97t-123.5 -72.5t-96 -28.5q-17 0 -35 14.5
t-29 34.5q81 46 189 130.5t220 208.5q66 73 108 116t57 43q16 0 38.5 -9t43 -21.5t35 -25t14.5 -19.5q0 -10 -11 -24zM866 -522l-116 117l-116 -117l-133 134l133 133l116 -115l116 115l134 -133z" />
    <glyph glyph-name="uni06B4.init" unicode="&#x6b4;" horiz-adv-x="1066" 
d="M0 0q-42 0 -56 26.5t-14 77.5q0 54 15 82t55 28h752q6 14 10.5 33t7 38.5t4 37.5t1.5 30q0 19 -11.5 43t-46.5 36q-30 10 -80 17.5t-125 13.5t-179 10t-242 7l19 175l238 151q105 66 180 114.5t124 85.5t75 67t34 59q15 -13 26.5 -31t20 -37t12.5 -37.5t4 -33.5
q0 -23 -5 -45t-20.5 -44t-44 -43.5t-74.5 -43.5l-246 -119q110 -21 201.5 -61.5t157.5 -98.5t102.5 -131.5t36.5 -161.5q0 -105 -35 -245h-897zM644 1200q-13 -18 -54.5 -57.5t-99 -89.5t-124.5 -103t-132.5 -97t-123.5 -72.5t-96 -28.5q-17 0 -35 14.5t-29 34.5
q81 46 189 130.5t220 208.5q66 73 108 116t57 43q16 0 38.5 -9t43 -21.5t35 -25t14.5 -19.5q0 -10 -11 -24zM378 1668l-132 -131l-131 131l131 132zM498 1434l-134 -133l-116 115l-116 -115l-133 133l133 134l116 -117l116 117z" />
    <glyph glyph-name="uni06B4.medi" unicode="&#x6b4;" horiz-adv-x="1184" 
d="M907 187q-3 -16 -9.5 -40.5t-15 -51t-18.5 -52t-20 -43.5h-844q-42 0 -56 26.5t-14 77.5q0 54 15 82t55 28h752q5 12 9 30t7 37.5t5 38.5t2 33q0 19 -11.5 44.5t-46.5 38.5q-30 11 -80.5 18.5t-126 13t-179.5 9.5t-240 7l19 171l238 151q105 66 180 114.5t124 85.5t75 67
t34 59q15 -13 26.5 -31t20 -37t12.5 -37.5t4 -33.5q0 -25 -6 -48t-22 -44.5t-43 -41.5t-69 -40l-251 -121q100 -22 186 -58t152 -86.5t107.5 -114.5t51.5 -141q2 -19 7 -34.5t26 -26.5t64 -17t121 -6h36q42 0 56 -26.5t14 -77.5q0 -54 -15 -82t-55 -28h-36q-41 0 -80.5 14.5
t-72 39.5t-56 59t-32.5 74zM644 1200q-13 -18 -54.5 -57.5t-99 -89.5t-124.5 -103t-132.5 -97t-123.5 -72.5t-96 -28.5q-17 0 -35 14.5t-29 34.5q81 46 189 130.5t220 208.5q66 73 108 116t57 43q16 0 38.5 -9t43 -21.5t35 -25t14.5 -19.5q0 -10 -11 -24zM378 1668
l-132 -131l-131 131l131 132zM498 1434l-134 -133l-116 115l-116 -115l-133 133l133 134l116 -117l116 117z" />
    <glyph glyph-name="uni06B4.fina" unicode="&#x6b4;" horiz-adv-x="1723" 
d="M345 0q-172 0 -258.5 64t-86.5 210q0 61 17 114t41 91.5t50.5 60.5t45.5 22q5 0 19 -3t22 -9q-25 -42 -40 -87t-15 -80q0 -27 5.5 -56.5t31 -54.5t78 -41.5t147.5 -16.5h901q5 12 9 30t7 37.5t5 38.5t2 33q0 19 -11.5 42.5t-46.5 36.5q-30 11 -80.5 18.5t-126 13
t-179.5 9.5t-240 7l19 175l238 151q105 66 180 114.5t124 85.5t75 67t34 59q15 -13 26.5 -31t20 -37t12.5 -37.5t4 -33.5q0 -25 -6 -48t-22 -44.5t-43 -41.5t-69 -40l-251 -121q82 -12 166 -47.5t154.5 -88t118.5 -120.5t58 -144q2 -19 7 -34.5t26 -26.5t64 -17t121 -6h24
q42 0 56 -26.5t14 -77.5q0 -54 -15 -82t-55 -28h-24q-40 0 -78.5 15t-71.5 40.5t-57 59.5t-34 72q-4 -17 -11 -41.5t-15.5 -50.5t-18 -51t-18.5 -44h-1050zM1151 1200q-13 -18 -54.5 -57.5t-99 -89.5t-124.5 -103t-132.5 -97t-123.5 -72.5t-96 -28.5q-17 0 -35 14.5
t-29 34.5q81 46 189 130.5t220 208.5q66 73 108 116t57 43q16 0 38.5 -9t43 -21.5t35 -25t14.5 -19.5q0 -10 -11 -24zM788 1598l-132 -131l-131 131l131 132zM908 1364l-134 -133l-116 115l-116 -115l-133 133l133 134l116 -117l116 117z" />
    <glyph glyph-name="uni06B5.init" unicode="&#x6b5;" horiz-adv-x="563" 
d="M0 0q-42 0 -56 26.5t-14 77.5q0 54 15 82t55 28h225v1081q0 19 4 31t19 17l162 37l3 -2v-1378h-413zM297 1496q-9 23 -22.5 49.5t-30 54t-36 55.5t-39.5 53t-40 46t-39 34l88 51q21 -24 42 -53t46.5 -75t50.5 -108q36 88 77 150t63 86l87 -51q-18 -13 -38 -34t-40.5 -46
t-40 -53t-36 -55.5t-30 -54t-22.5 -49.5h-40z" />
    <glyph glyph-name="uni06B5.medi" unicode="&#x6b5;" horiz-adv-x="648" 
d="M413 288q0 -31 42 -52.5t137 -21.5h56q42 0 56 -26.5t14 -77.5q0 -54 -15 -82t-55 -28h-10q-50 0 -91.5 16.5t-74 43.5t-55 60.5t-32.5 66.5q-7 -21 -19 -48t-25.5 -53t-26 -49.5t-20.5 -36.5h-294q-42 0 -56 26.5t-14 77.5q0 54 15 82t55 28h225v1081q0 19 4 31t19 17
l162 37l3 -2v-1090zM297 1496q-9 23 -22.5 49.5t-30 54t-36 55.5t-39.5 53t-40 46t-39 34l88 51q21 -24 42 -53t46.5 -75t50.5 -108q36 88 77 150t63 86l87 -51q-18 -13 -38 -34t-40.5 -46t-40 -53t-36 -55.5t-30 -54t-22.5 -49.5h-40z" />
    <glyph glyph-name="uni06B5.fina" unicode="&#x6b5;" horiz-adv-x="1040" 
d="M782 295q3 -16 17 -30.5t41 -26t68 -18t98 -6.5h34q42 0 56 -26.5t14 -77.5q0 -54 -15 -82t-55 -28h-22q-78 0 -140.5 49.5t-98.5 143.5q-26 -89 -71.5 -170t-109.5 -143t-147 -98.5t-183 -36.5q-42 0 -89 10t-87 32.5t-66 59.5t-26 91t18 93.5t40 61.5q35 -39 79.5 -67
t91 -47t92 -28t83.5 -9q49 0 85 11t60 36t36 66t12 101v1139q0 19 4 31t19 17l162 37l3 -2zM677 1496q-9 23 -22.5 49.5t-30 54t-36 55.5t-39.5 53t-40 46t-39 34l88 51q21 -24 42 -53t46.5 -75t50.5 -108q36 88 77 150t63 86l87 -51q-18 -13 -38 -34t-40.5 -46t-40 -53
t-36 -55.5t-30 -54t-22.5 -49.5h-40z" />
    <glyph glyph-name="uni06B6.init" unicode="&#x6b6;" horiz-adv-x="563" 
d="M0 0q-42 0 -56 26.5t-14 77.5q0 54 15 82t55 28h225v1081q0 19 4 31t19 17l162 37l3 -2v-1378h-413zM438 1618l-132 -131l-131 131l131 132z" />
    <glyph glyph-name="uni06B6.medi" unicode="&#x6b6;" horiz-adv-x="648" 
d="M413 288q0 -31 42 -52.5t137 -21.5h56q42 0 56 -26.5t14 -77.5q0 -54 -15 -82t-55 -28h-10q-50 0 -91.5 16.5t-74 43.5t-55 60.5t-32.5 66.5q-7 -21 -19 -48t-25.5 -53t-26 -49.5t-20.5 -36.5h-294q-42 0 -56 26.5t-14 77.5q0 54 15 82t55 28h225v1081q0 19 4 31t19 17
l162 37l3 -2v-1090zM438 1618l-132 -131l-131 131l131 132z" />
    <glyph glyph-name="uni06B6.fina" unicode="&#x6b6;" horiz-adv-x="1040" 
d="M782 295q3 -16 17 -30.5t41 -26t68 -18t98 -6.5h34q42 0 56 -26.5t14 -77.5q0 -54 -15 -82t-55 -28h-22q-78 0 -140.5 49.5t-98.5 143.5q-26 -89 -71.5 -170t-109.5 -143t-147 -98.5t-183 -36.5q-42 0 -89 10t-87 32.5t-66 59.5t-26 91t18 93.5t40 61.5q35 -39 79.5 -67
t91 -47t92 -28t83.5 -9q49 0 85 11t60 36t36 66t12 101v1139q0 19 4 31t19 17l162 37l3 -2zM818 1618l-132 -131l-131 131l131 132z" />
    <glyph glyph-name="uni06B7.init" unicode="&#x6b7;" horiz-adv-x="563" 
d="M0 0q-42 0 -56 26.5t-14 77.5q0 54 15 82t55 28h225v1081q0 19 4 31t19 17l162 37l3 -2v-1378h-413zM438 1858l-132 -131l-131 131l131 132zM558 1624l-134 -133l-116 115l-116 -115l-133 133l133 134l116 -117l116 117z" />
    <glyph glyph-name="uni06B7.medi" unicode="&#x6b7;" horiz-adv-x="648" 
d="M413 288q0 -31 42 -52.5t137 -21.5h56q42 0 56 -26.5t14 -77.5q0 -54 -15 -82t-55 -28h-10q-50 0 -91.5 16.5t-74 43.5t-55 60.5t-32.5 66.5q-7 -21 -19 -48t-25.5 -53t-26 -49.5t-20.5 -36.5h-294q-42 0 -56 26.5t-14 77.5q0 54 15 82t55 28h225v1081q0 19 4 31t19 17
l162 37l3 -2v-1090zM438 1858l-132 -131l-131 131l131 132zM558 1624l-134 -133l-116 115l-116 -115l-133 133l133 134l116 -117l116 117z" />
    <glyph glyph-name="uni06B7.fina" unicode="&#x6b7;" horiz-adv-x="1040" 
d="M782 295q3 -16 17 -30.5t41 -26t68 -18t98 -6.5h34q42 0 56 -26.5t14 -77.5q0 -54 -15 -82t-55 -28h-22q-78 0 -140.5 49.5t-98.5 143.5q-26 -89 -71.5 -170t-109.5 -143t-147 -98.5t-183 -36.5q-42 0 -89 10t-87 32.5t-66 59.5t-26 91t18 93.5t40 61.5q35 -39 79.5 -67
t91 -47t92 -28t83.5 -9q49 0 85 11t60 36t36 66t12 101v1139q0 19 4 31t19 17l162 37l3 -2zM818 1858l-132 -131l-131 131l131 132zM938 1624l-134 -133l-116 115l-116 -115l-133 133l133 134l116 -117l116 117z" />
    <glyph glyph-name="uni06B8.init" unicode="&#x6b8;" horiz-adv-x="563" 
d="M0 0q-42 0 -56 26.5t-14 77.5q0 54 15 82t55 28h225v1081q0 19 4 31t19 17l162 37l3 -2v-1378h-413zM405 -353l-103 -102l-89 88l-89 -88l-102 102l102 103l89 -90l89 90zM317 -558l-103 -102l-102 102l102 103z" />
    <glyph glyph-name="uni06B8.medi" unicode="&#x6b8;" horiz-adv-x="648" 
d="M413 288q0 -31 42 -52.5t137 -21.5h56q42 0 56 -26.5t14 -77.5q0 -54 -15 -82t-55 -28h-10q-50 0 -91.5 16.5t-74 43.5t-55 60.5t-32.5 66.5q-7 -21 -19 -48t-25.5 -53t-26 -49.5t-20.5 -36.5h-294q-42 0 -56 26.5t-14 77.5q0 54 15 82t55 28h225v1081q0 19 4 31t19 17
l162 37l3 -2v-1090zM485 -353l-103 -102l-89 88l-89 -88l-102 102l102 103l89 -90l89 90zM397 -558l-103 -102l-102 102l102 103z" />
    <glyph glyph-name="uni06B8.fina" unicode="&#x6b8;" horiz-adv-x="1040" 
d="M782 295q3 -16 17 -30.5t41 -26t68 -18t98 -6.5h34q42 0 56 -26.5t14 -77.5q0 -54 -15 -82t-55 -28h-22q-78 0 -140.5 49.5t-98.5 143.5q-26 -89 -71.5 -170t-109.5 -143t-147 -98.5t-183 -36.5q-42 0 -89 10t-87 32.5t-66 59.5t-26 91t18 93.5t40 61.5q35 -39 79.5 -67
t91 -47t92 -28t83.5 -9q49 0 85 11t60 36t36 66t12 101v1139q0 19 4 31t19 17l162 37l3 -2zM595 -503l-103 -102l-89 88l-89 -88l-102 102l102 103l89 -90l89 90zM507 -708l-103 -102l-102 102l102 103z" />
    <glyph glyph-name="uni06B9.init" unicode="&#x6b9;" horiz-adv-x="569" 
d="M0 0q-42 0 -56 26.5t-14 77.5q0 54 15 82t55 28h345q0 32 -7 61.5t-26 66.5t-51 86.5t-83 120.5q-26 38 -26 60q0 14 5 21.5t16 12.5l164 79h4q38 -78 62.5 -138.5t39 -109.5t20.5 -89.5t6 -78.5q0 -41 -9.5 -80.5t-25.5 -78t-36 -75t-41 -72.5h-357zM398 986l-139 -138
l-138 138l138 139zM398 -345l-139 -138l-138 138l138 139z" />
    <glyph glyph-name="uni06B9.medi" unicode="&#x6b9;" horiz-adv-x="712" 
d="M0 0q-42 0 -56 26.5t-14 77.5q0 54 15 82t55 28h345q0 32 -6.5 61.5t-24.5 66.5t-49.5 86t-82.5 121q-26 38 -26 60q0 14 5 21.5t16 12.5l164 79h4q38 -78 62.5 -138.5t39 -109.5t20.5 -89.5t6 -78.5q0 -20 11.5 -36.5t37 -29t67.5 -19.5t104 -7h19q42 0 56 -26.5
t14 -77.5q0 -54 -15 -82t-55 -28h-7q-40 0 -76.5 15t-68 42.5t-57.5 66t-44 86.5q-17 -55 -44.5 -111t-53.5 -99h-361zM420 986l-139 -138l-138 138l138 139zM420 -345l-139 -138l-138 138l138 139z" />
    <glyph glyph-name="uni06B9.fina" unicode="&#x6b9;" horiz-adv-x="1194" 
d="M826 612q52 -75 81 -159t34 -163q4 -16 17 -29.5t38.5 -24t65.5 -16.5t97 -6h35q42 0 56 -26.5t14 -77.5q0 -54 -15 -82t-55 -28h-23q-75 0 -136 46.5t-98 131.5q-12 -81 -51.5 -165t-103.5 -152.5t-151 -112t-193 -43.5q-101 0 -182 29.5t-138 85.5t-87.5 135.5
t-30.5 180.5q0 61 15 117t36.5 99t45 69t40.5 26q4 0 9.5 -4t12.5 -9q-10 -15 -18.5 -41t-14.5 -55t-9.5 -58.5t-3.5 -51.5q0 -67 28 -123.5t78.5 -98t121 -64.5t156.5 -23q91 0 150 22t93 56.5t47 76.5t13 82q0 45 -15.5 90.5t-40.5 89t-57 84t-65 75.5l199 118zM609 785
l-139 -138l-138 138l138 139zM599 -582l-139 -138l-138 138l138 139z" />
    <glyph glyph-name="uni06BC.init" unicode="&#x6bc;" horiz-adv-x="569" 
d="M398 986l-139 -138l-138 138l138 139zM194 0q-15 0 -28 -8.5t-25 -22.5t-21.5 -31.5t-16.5 -35t-10.5 -34t-3.5 -28.5q0 -13 4 -25.5t15 -22t31 -15.5t53 -6q44 0 69 7t37.5 17.5t15.5 24.5t3 27q0 23 -11.5 49.5t-29.5 49.5t-40 38.5t-42 15.5zM70 0h-70q-42 0 -56 26.5
t-14 77.5q0 54 15 82t55 28h345q0 32 -7 61.5t-26 66.5t-51 86.5t-83 120.5q-26 38 -26 60q0 14 5 21.5t16 12.5l164 79h4q38 -78 62.5 -138.5t39 -109.5t20.5 -89.5t6 -78.5q0 -41 -9.5 -80.5t-25.5 -78t-36 -75t-41 -72.5q5 -12 9 -24q13 -37 20 -76t7 -77
q0 -33 -13.5 -68t-42 -63.5t-75 -47.5t-111.5 -19q-35 0 -62.5 9.5t-47 27.5t-29.5 42t-10 54q0 34 9 76t25 86q14 41 34 80z" />
    <glyph glyph-name="uni06BC.medi" unicode="&#x6bc;" horiz-adv-x="712" 
d="M420 986l-139 -138l-138 138l138 139zM194 0q-15 0 -28 -8.5t-25 -22.5t-21.5 -31.5t-16.5 -35t-10.5 -34t-3.5 -28.5q0 -13 4 -25.5t15 -22t31 -15.5t53 -6q44 0 69 7t37.5 17.5t15.5 24.5t3 27q0 23 -11.5 49.5t-29.5 49.5t-40 38.5t-42 15.5zM70 0h-70q-42 0 -56 26.5
t-14 77.5q0 54 15 82t55 28h345q0 32 -6.5 61.5t-24.5 66.5t-49.5 86t-82.5 121q-26 38 -26 60q0 14 5 21.5t16 12.5l164 79h4q38 -78 62.5 -138.5t39 -109.5t20.5 -89.5t6 -78.5q0 -20 11.5 -36.5t37 -29t67.5 -19.5t104 -7h19q42 0 56 -26.5t14 -77.5q0 -54 -15 -82
t-55 -28h-7q-40 0 -76.5 15t-68 42.5t-57.5 66t-44 86.5q-17 -55 -44.5 -111t-53.5 -99h-4q5 -12 9 -24q13 -37 20 -76t7 -77q0 -33 -13.5 -68t-42 -63.5t-75 -47.5t-111.5 -19q-35 0 -62.5 9.5t-47 27.5t-29.5 42t-10 54q0 34 9 76t25 86q14 41 34 80z" />
    <glyph glyph-name="uni06BC.fina" unicode="&#x6bc;" horiz-adv-x="1194" 
d="M609 785l-139 -138l-138 138l138 139zM454 -295q-15 0 -28 -8.5t-25 -22.5t-21.5 -31.5t-16.5 -35t-10.5 -34t-3.5 -28.5q0 -13 4 -25.5t15 -22t31 -15.5t53 -6q44 0 69 7t37.5 17.5t15.5 24.5t3 27q0 23 -11.5 49.5t-29.5 49.5t-40 38.5t-42 15.5zM334 -286
q-41 7 -78 21q-81 29 -138 85t-87.5 135.5t-30.5 180.5q0 61 15 117t36.5 99t45 69t40.5 26q4 0 9.5 -4t12.5 -9q-10 -15 -18.5 -41t-14.5 -55t-9.5 -58.5t-3.5 -51.5q0 -67 28 -123.5t78.5 -98t121 -64.5t156.5 -23q91 0 150 22t93 56.5t47 76.5t13 82q0 45 -15.5 90.5
t-40.5 89t-57 84t-65 75.5l199 118l5 -1q52 -75 81 -159t34 -163q4 -16 17 -29.5t38.5 -24t65.5 -16.5t97 -6h35q42 0 56 -26.5t14 -77.5q0 -54 -15 -82t-55 -28h-23q-75 0 -136 46.5t-98 131.5q-12 -81 -51.5 -165t-103.5 -152.5t-151 -111.5q-14 -8 -29 -13q14 -26 24 -55
q13 -37 20 -76t7 -77q0 -33 -13.5 -68t-42 -63.5t-75 -47.5t-111.5 -19q-35 0 -62.5 9.5t-47 27.5t-29.5 42t-10 54q0 34 9 76t24.5 85.5t36.5 84.5q1 2 2 5z" />
    <glyph glyph-name="uni06BD.init" unicode="&#x6bd;" horiz-adv-x="569" 
d="M0 0q-42 0 -56 26.5t-14 77.5q0 54 15 82t55 28h345q0 32 -7 61.5t-26 66.5t-51 86.5t-83 120.5q-26 38 -26 60q0 14 5 21.5t16 12.5l164 79h4q38 -78 62.5 -138.5t39 -109.5t20.5 -89.5t6 -78.5q0 -41 -9.5 -80.5t-25.5 -78t-36 -75t-41 -72.5h-357zM379 1181l-132 -131
l-131 131l131 132zM499 947l-134 -133l-116 115l-116 -115l-133 133l133 134l116 -117l116 117z" />
    <glyph glyph-name="uni06BD.medi" unicode="&#x6bd;" horiz-adv-x="712" 
d="M0 0q-42 0 -56 26.5t-14 77.5q0 54 15 82t55 28h345q0 32 -6.5 61.5t-24.5 66.5t-49.5 86t-82.5 121q-26 38 -26 60q0 14 5 21.5t16 12.5l164 79h4q38 -78 62.5 -138.5t39 -109.5t20.5 -89.5t6 -78.5q0 -20 11.5 -36.5t37 -29t67.5 -19.5t104 -7h19q42 0 56 -26.5
t14 -77.5q0 -54 -15 -82t-55 -28h-7q-40 0 -76.5 15t-68 42.5t-57.5 66t-44 86.5q-17 -55 -44.5 -111t-53.5 -99h-361zM385 1181l-132 -131l-131 131l131 132zM505 947l-134 -133l-116 115l-116 -115l-133 133l133 134l116 -117l116 117z" />
    <glyph glyph-name="uni06BD.fina" unicode="&#x6bd;" horiz-adv-x="1194" 
d="M826 612q52 -75 81 -159t34 -163q4 -16 17 -29.5t38.5 -24t65.5 -16.5t97 -6h35q42 0 56 -26.5t14 -77.5q0 -54 -15 -82t-55 -28h-23q-75 0 -136 46.5t-98 131.5q-12 -81 -51.5 -165t-103.5 -152.5t-151 -112t-193 -43.5q-101 0 -182 29.5t-138 85.5t-87.5 135.5
t-30.5 180.5q0 61 15 117t36.5 99t45 69t40.5 26q4 0 9.5 -4t12.5 -9q-10 -15 -18.5 -41t-14.5 -55t-9.5 -58.5t-3.5 -51.5q0 -67 28 -123.5t78.5 -98t121 -64.5t156.5 -23q91 0 150 22t93 56.5t47 76.5t13 82q0 45 -15.5 90.5t-40.5 89t-57 84t-65 75.5l199 118zM592 1011
l-132 -131l-131 131l131 132zM712 777l-134 -133l-116 115l-116 -115l-133 133l133 134l116 -117l116 117z" />
    <glyph glyph-name="uni06BF.init" unicode="&#x6bf;" horiz-adv-x="870" 
d="M156 565q-22 28 -22 50q0 21 13 28l164 96l5 -2q88 -150 202.5 -282t251.5 -264l-159 -191h-611q-42 0 -56 26.5t-14 77.5q0 54 15 82t55 28h538q-50 31 -104 74t-105 90t-96 95.5t-77 91.5zM434 986l-139 -138l-138 138l138 139zM555 -353l-103 -102l-89 88l-89 -88
l-102 102l102 103l89 -90l89 90zM467 -558l-103 -102l-102 102l102 103z" />
    <glyph glyph-name="uni06BF.medi" unicode="&#x6bf;" horiz-adv-x="974" 
d="M233 565q-22 28 -22 49t13 28l164 98l5 -3q78 -122 150 -218.5t141.5 -164.5t138 -104t139.5 -36h12q42 0 56 -26.5t14 -77.5q0 -54 -15 -82t-55 -28h-27q-32 0 -67.5 6.5t-76 23t-85.5 44.5t-94 72l-117 -146h-507q-42 0 -56 26.5t-14 77.5q0 54 15 82t55 28h549
q-46 43 -92 92t-88 96t-77 89.5t-59 73.5zM443 986l-139 -138l-138 138l138 139zM598 -353l-103 -102l-89 88l-89 -88l-102 102l102 103l89 -90l89 90zM510 -558l-103 -102l-102 102l102 103z" />
    <glyph glyph-name="uni06BF.fina" unicode="&#x6bf;" horiz-adv-x="1051" 
d="M530 986l-139 -138l-138 138l138 139zM603 -172l-91 -89l-78 77l-79 -77l-89 89l89 91l79 -79l78 79zM545 -419q22 2 43 5q34 5 63.5 12.5t49.5 18.5q-9 -47 -31 -90t-58 -75t-87 -51t-119 -19q-86 0 -154 23q-12 4 -23 9q-76 32 -127 86t-76.5 125t-25.5 150
q0 82 35.5 161t102.5 141t162 99.5t214 37.5h115q-45 44 -91 93t-88 96.5t-77.5 89.5t-59.5 72q-22 28 -22 49t13 28l164 97l5 -2q78 -122 150 -218.5t141.5 -164.5t138 -104t139.5 -36h9q42 0 56 -26.5t14 -77.5q0 -54 -15 -82t-55 -28h-24q-32 0 -67.5 6.5t-74.5 22
t-82.5 43t-92.5 69.5l-110 -141h-213q-90 0 -141.5 -18t-77 -45t-31.5 -58t-6 -56q0 -47 19 -91.5t57.5 -79t98.5 -55.5q2 -1 5 -2q14 -5 31 -9l94 -93l87 86zM525 -352l-90 -90l-90 90l90 91z" />
    <glyph glyph-name="uni06C2.fina" unicode="&#x6c2;" horiz-adv-x="681" 
d="M0 604l61 147l89 11q-21 20 -35 51.5t-14 65.5q0 42 22 84t56.5 75.5t77.5 55t85 21.5q25 0 63 -11.5t71 -33.5l-79 -119q-46 29 -102 29q-42 0 -66 -21t-24 -50q0 -24 16 -44.5t42.5 -35.5t61.5 -23.5t73 -8.5q16 0 32.5 0.5t33.5 5.5l-66 -148zM601 0q-82 0 -133 25.5
t-80.5 63.5t-42 82t-16.5 81q-56 0 -93 -13.5t-62 -40.5t-40.5 -67t-27.5 -92q-7 -34 -45 -34q-4 23 -5.5 45t-1.5 42q0 83 28 157t73 129.5t102.5 88.5t116.5 34q9 -77 29 -131.5t50 -89t68.5 -50.5t84.5 -16h75q42 0 56 -26.5t14 -77.5q0 -54 -15 -82t-55 -28h-80z" />
    <glyph glyph-name="uni06C3.fina" unicode="&#x6c3;" horiz-adv-x="666" 
d="M499 775l-134 -133l-116 115l-116 -115l-133 133l133 134l116 -117l116 117zM586 0q-82 0 -133 25.5t-80.5 63.5t-42 82t-16.5 81q-56 0 -93 -13.5t-62 -40.5t-40.5 -67t-27.5 -92q-7 -34 -45 -34q-4 23 -5.5 45t-1.5 42q0 83 28 157t73 129.5t102.5 88.5t116.5 34
q9 -77 29 -131.5t50 -89t68.5 -50.5t84.5 -16h75q42 0 56 -26.5t14 -77.5q0 -54 -15 -82t-55 -28h-80z" />
    <glyph glyph-name="uni06C4.fina" unicode="&#x6c4;" horiz-adv-x="904" 
d="M573 214q-1 31 -8.5 76.5t-20.5 92.5t-31 90t-40 69q-39 0 -76 -7.5t-66 -25t-46.5 -46t-17.5 -70.5q0 -35 19.5 -67t58 -57t95.5 -40t133 -15zM285 -152q17 1 33 2q3 0 6 1q9 2 17 5t13 6q5 4 9 9t5 12v4q0 6 -2 13q-3 10 -12 24q-12 18 -21.5 26.5t-17.5 10.5
q-4 1 -7 1q-4 0 -7 -1q-7 -3 -12 -6q-10 -7 -18 -19t-12.5 -25.5t-4.5 -26.5q-1 -2 -1 -3q0 -12 6 -19q4 -6 11 -9q6 -4 15 -5zM437 -123q12 6 23 12q69 41 97 119q-86 1 -164 23.5t-137 63.5t-93.5 99.5t-34.5 132.5q0 81 37 153t98 126t139 85.5t160 31.5h14q6 0 14 -1
q26 -32 49 -86t40.5 -120t28 -140t10.5 -146v-16h186q42 0 56 -26.5t14 -77.5q0 -54 -15 -82t-55 -28h-222q-25 -72 -64.5 -135t-90.5 -109.5t-112 -73t-129 -26.5q-51 0 -86 20t-57 50.5t-32 67.5t-11 72q45 -9 86 -13q0 12 4 26t12 29.5t19.5 31t26 29t30.5 24.5
q13 9 32 13q9 2 18 2q10 0 20 -2q19 -4 39.5 -18t38.5 -41q10 -15 14 -29q2 -9 2 -17q0 -5 -1 -10q-1 -7 -4 -14z" />
    <glyph glyph-name="uni06CA.fina" unicode="&#x6ca;" horiz-adv-x="904" 
d="M718 214h186q42 0 56 -26.5t14 -77.5q0 -54 -15 -82t-55 -28h-222q-25 -72 -64.5 -135t-90.5 -109.5t-112 -73t-129 -26.5q-51 0 -86 20t-57 50.5t-32 67.5t-11 72q96 -18 170 -18q121 0 190 41t97 119q-86 1 -164 23.5t-137 63.5t-93.5 99.5t-34.5 132.5q0 81 37 153
t98 126t139 85.5t160 31.5h13.5t14.5 -1q26 -32 49 -86t40.5 -120t28 -140t10.5 -146v-16zM573 214q-1 31 -8.5 76.5t-20.5 92.5t-31 90t-40 69q-39 0 -76 -7.5t-66 -25t-46.5 -46t-17.5 -70.5q0 -35 19.5 -67t58 -57t95.5 -40t133 -15zM710 938l-134 -133l-116 115
l-116 -115l-133 133l133 134l116 -117l116 117z" />
    <glyph glyph-name="uni06CD.fina" unicode="&#x6cd;" horiz-adv-x="1723" 
d="M24 26q-5 3 -10.5 20t-9 40.5t-4.5 47.5v14l1 11q1 8 3 15q4 14 49 38t136.5 80.5t147.5 99.5q8 6 11 8.5t7 6.5q21 22 39 22q5 0 12.5 -3t12.5 -13q-22 -38 -35 -88t-13 -95q0 -73 36 -132.5t102.5 -102t161 -66t210.5 -23.5q96 0 178 9t142.5 26.5t95 44t34.5 61.5
q0 23 -11.5 36t-31.5 24q-31 17 -52 32t-34 30.5t-18.5 33t-5.5 40.5q0 42 12 84t26 64q103 -89 213.5 -133t209.5 -44h84q42 0 56 -26.5t14 -77.5q0 -54 -15 -82t-55 -28h-65q-66 0 -116 12.5t-85 27.5q-27 -69 -78 -137.5t-127.5 -123t-179.5 -88.5t-234 -34
q-147 0 -254.5 41.5t-177.5 109.5t-104 156t-34 180q0 26 3 51q-45 -38 -80 -65q-51 -39 -90.5 -66.5t-56.5 -34.5q-7 -3 -13 -4q-4 0 -7 1z" />
    <glyph glyph-name="uni06CE.init" unicode="&#x6ce;" horiz-adv-x="569" 
d="M0 0q-42 0 -56 26.5t-14 77.5q0 54 15 82t55 28h345q0 32 -7 61.5t-26 66.5t-51 86.5t-83 120.5q-26 38 -26 60q0 14 5 21.5t16 12.5l164 79h4q38 -78 62.5 -138.5t39 -109.5t20.5 -89.5t6 -78.5q0 -41 -9.5 -80.5t-25.5 -78t-36 -75t-41 -72.5h-357zM496 -369l-134 -133
l-116 115l-116 -115l-133 133l133 134l116 -117l116 117zM243 840q-9 23 -22.5 49.5t-30 54t-36 55.5t-39.5 53t-40 46t-39 34l88 51q21 -24 42 -53t46.5 -75t50.5 -108q36 88 77 150t63 86l87 -51q-18 -13 -38 -34t-40.5 -46t-40 -53t-36 -55.5t-30 -54t-22.5 -49.5h-40z
" />
    <glyph glyph-name="uni06CE.medi" unicode="&#x6ce;" horiz-adv-x="712" 
d="M0 0q-42 0 -56 26.5t-14 77.5q0 54 15 82t55 28h345q0 32 -6.5 61.5t-24.5 66.5t-49.5 86t-82.5 121q-26 38 -26 60q0 14 5 21.5t16 12.5l164 79h4q38 -78 62.5 -138.5t39 -109.5t20.5 -89.5t6 -78.5q0 -20 11.5 -36.5t37 -29t67.5 -19.5t104 -7h19q42 0 56 -26.5
t14 -77.5q0 -54 -15 -82t-55 -28h-7q-40 0 -76.5 15t-68 42.5t-57.5 66t-44 86.5q-17 -55 -44.5 -111t-53.5 -99h-361zM539 -369l-134 -133l-116 115l-116 -115l-133 133l133 134l116 -117l116 117zM243 840q-9 23 -22.5 49.5t-30 54t-36 55.5t-39.5 53t-40 46t-39 34l88 51
q21 -24 42 -53t46.5 -75t50.5 -108q36 88 77 150t63 86l87 -51q-18 -13 -38 -34t-40.5 -46t-40 -53t-36 -55.5t-30 -54t-22.5 -49.5h-40z" />
    <glyph glyph-name="uni06CE.fina" unicode="&#x6ce;" horiz-adv-x="1455" 
d="M1390 0q-66 0 -116 12.5t-85 27.5q-27 -69 -78 -137.5t-127.5 -123t-179.5 -88.5t-234 -34q-147 0 -254.5 41.5t-177.5 109.5t-104 156t-34 180q0 58 13 110t32.5 91t41 61.5t39.5 22.5q5 0 12.5 -3t12.5 -13q-22 -38 -35 -88t-13 -95q0 -73 36 -132.5t102.5 -102
t161 -66t210.5 -23.5q96 0 178 9t142.5 26.5t95 44t34.5 61.5q0 23 -11.5 36t-31.5 24q-31 17 -52 32t-34 30.5t-18.5 33t-5.5 40.5q0 42 12 84t26 64q103 -89 213.5 -133t209.5 -44h84q42 0 56 -26.5t14 -77.5q0 -54 -15 -82t-55 -28h-65zM324 500q-9 23 -22.5 49.5t-30 54
t-36 55.5t-39.5 53t-40 46t-39 34l88 51q21 -24 42 -53t46.5 -75t50.5 -108q36 88 77 150t63 86l87 -51q-18 -13 -38 -34t-40.5 -46t-40 -53t-36 -55.5t-30 -54t-22.5 -49.5h-40z" />
    <glyph glyph-name="uni06CF.fina" unicode="&#x6cf;" horiz-adv-x="904" 
d="M718 214h186q42 0 56 -26.5t14 -77.5q0 -54 -15 -82t-55 -28h-222q-25 -72 -64.5 -135t-90.5 -109.5t-112 -73t-129 -26.5q-51 0 -86 20t-57 50.5t-32 67.5t-11 72q96 -18 170 -18q121 0 190 41t97 119q-86 1 -164 23.5t-137 63.5t-93.5 99.5t-34.5 132.5q0 81 37 153
t98 126t139 85.5t160 31.5h13.5t14.5 -1q26 -32 49 -86t40.5 -120t28 -140t10.5 -146v-16zM573 214q-1 31 -8.5 76.5t-20.5 92.5t-31 90t-40 69q-39 0 -76 -7.5t-66 -25t-46.5 -46t-17.5 -70.5q0 -35 19.5 -67t58 -57t95.5 -40t133 -15zM590 932l-132 -131l-131 131l131 132
z" />
    <glyph glyph-name="uni06D1.init" unicode="&#x6d1;" horiz-adv-x="569" 
d="M0 0q-42 0 -56 26.5t-14 77.5q0 54 15 82t55 28h345q0 32 -7 61.5t-26 66.5t-51 86.5t-83 120.5q-26 38 -26 60q0 14 5 21.5t16 12.5l164 79h4q38 -78 62.5 -138.5t39 -109.5t20.5 -89.5t6 -78.5q0 -41 -9.5 -80.5t-25.5 -78t-36 -75t-41 -72.5h-357zM361 -600l-131 -129
l-129 129l129 131zM469 -369l-134 -133l-116 115l-116 -115l-133 133l133 134l116 -117l116 117z" />
    <glyph glyph-name="uni06D1.medi" unicode="&#x6d1;" horiz-adv-x="712" 
d="M0 0q-42 0 -56 26.5t-14 77.5q0 54 15 82t55 28h345q0 32 -6.5 61.5t-24.5 66.5t-49.5 86t-82.5 121q-26 38 -26 60q0 14 5 21.5t16 12.5l164 79h4q38 -78 62.5 -138.5t39 -109.5t20.5 -89.5t6 -78.5q0 -20 11.5 -36.5t37 -29t67.5 -19.5t104 -7h19q42 0 56 -26.5
t14 -77.5q0 -54 -15 -82t-55 -28h-7q-40 0 -76.5 15t-68 42.5t-57.5 66t-44 86.5q-17 -55 -44.5 -111t-53.5 -99h-361zM441 -600l-131 -129l-129 129l129 131zM549 -369l-134 -133l-116 115l-116 -115l-133 133l133 134l116 -117l116 117z" />
    <glyph glyph-name="uni06D1.fina" unicode="&#x6d1;" horiz-adv-x="1455" 
d="M1390 0q-66 0 -116 12.5t-85 27.5q-27 -69 -78 -137.5t-127.5 -123t-179.5 -88.5t-234 -34q-147 0 -254.5 41.5t-177.5 109.5t-104 156t-34 180q0 58 13 110t32.5 91t41 61.5t39.5 22.5q5 0 12.5 -3t12.5 -13q-22 -38 -35 -88t-13 -95q0 -73 36 -132.5t102.5 -102
t161 -66t210.5 -23.5q96 0 178 9t142.5 26.5t95 44t34.5 61.5q0 23 -11.5 36t-31.5 24q-31 17 -52 32t-34 30.5t-18.5 33t-5.5 40.5q0 42 12 84t26 64q103 -89 213.5 -133t209.5 -44h84q42 0 56 -26.5t14 -77.5q0 -54 -15 -82t-55 -28h-65zM578 -1043l-131 132l131 131
l132 -131zM696 -811l-116 117l-116 -117l-133 134l133 133l116 -115l116 115l134 -133z" />
    <glyph glyph-name="uni06D5.fina" unicode="&#x6d5;" horiz-adv-x="784" 
d="M679 0q-75 0 -127 36t-90 124v-4q-29 -20 -79.5 -38.5t-120.5 -18.5q-60 0 -108 16t-82.5 46t-53 73.5t-18.5 97.5q0 61 24 106t63 79.5t87 60.5t96 49q42 20 81 40t67 41q6 4 12.5 13.5t11.5 21t8.5 22t4.5 16.5q1 4 10.5 6.5t22.5 3.5t26.5 1.5t22.5 0.5q11 0 25 -0.5
t27 -1.5t23 -1.5t13 -1.5q-1 -15 -2 -42t-2 -60t-1.5 -69t-1 -70t-1 -63.5t-0.5 -49.5q0 -59 5 -101t18 -68.5t35 -38.5t57 -12h52q42 0 56 -26.5t14 -77.5q0 -54 -15 -82t-55 -28h-105zM324 279q34 0 66.5 4.5t52.5 12.5q-2 16 -5.5 56.5t-3.5 95.5v122q-121 -43 -184 -87
t-63 -95q0 -45 37 -77t100 -32z" />
    <glyph glyph-name="uni06EE.fina" unicode="&#x6ee;" horiz-adv-x="923" 
d="M70 0v214h474q11 31 11 61q0 40 -16.5 73.5t-50.5 65t-85.5 63.5t-121.5 68q-32 17 -48.5 31.5t-16.5 34.5q0 7 8 25l102 166h4q97 -58 160.5 -119t102 -125t55.5 -131.5t20 -137.5q4 -16 17 -29.5t38.5 -23.5t65.5 -16t97 -6h37q42 0 56 -26.5t14 -77.5q0 -54 -15 -82
t-55 -28h-25q-35 0 -68.5 13t-63.5 36t-55.5 55t-44.5 70q-3 -38 -9.5 -80.5t-16.5 -93.5h-570zM336 1192q9 -22 22.5 -48.5t30 -54.5t36 -56t40 -53t40.5 -45.5t38 -34.5l-87 -51q-22 24 -63 86t-77 150q-25 -62 -50.5 -107.5t-46.5 -75t-42 -53.5l-88 51q19 14 39 34.5
t40 45.5t39.5 53t36 56t30 54.5t22.5 48.5h40z" />
    <glyph glyph-name="uni06EF.fina" unicode="&#x6ef;" horiz-adv-x="885" 
d="M0 -134q51 -10 96 -14.5t86 -4.5q82 0 141 18.5t96 53.5t54.5 85t17.5 112q0 57 -13 115t-35 116t-51.5 114t-62.5 109q-9 14 -14 25.5t-5 22.5q0 20 12 26l180 93h4q63 -120 95 -230.5t38 -222.5q5 -15 19 -27.5t40 -22t64.5 -15t92.5 -5.5h30q42 0 56 -26.5t14 -77.5
q0 -54 -15 -82t-55 -28h-18q-72 0 -132 43.5t-98 128.5q-6 -59 -23 -120t-43.5 -118.5t-63 -108t-82 -88t-98.5 -59.5t-114 -22q-52 0 -91.5 18t-66 47.5t-40.5 67.5t-15 77zM416 1171q9 -22 22.5 -48.5t30 -54.5t36 -56t40 -53t40.5 -45.5t38 -34.5l-87 -51q-22 24 -63 86
t-77 150q-25 -62 -50.5 -107.5t-46.5 -75t-42 -53.5l-88 51q19 14 39 34.5t40 45.5t39.5 53t36 56t30 54.5t22.5 48.5h40z" />
    <glyph glyph-name="uni06FA.init" unicode="&#x6fa;" horiz-adv-x="1574" 
d="M474 298q0 -37 53 -60.5t165 -23.5h162q0 33 -7 61t-25 61.5t-48.5 77.5t-77.5 109q-27 36 -27 59q0 14 5.5 22t16.5 13l164 79h4q36 -75 58.5 -131.5t35 -101.5t17 -82.5t4.5 -74.5v-4q1 -18 12 -34t36.5 -28t67.5 -19t104 -7h160q0 32 -7.5 61.5t-27 66.5t-52.5 86.5
t-84 120.5q-26 38 -26 60q0 14 5 21.5t16 12.5l164 79h4q38 -78 62.5 -138.5t39 -109.5t20.5 -89.5t6 -78.5q0 -42 -9.5 -81t-25 -76.5t-36 -74.5t-41.5 -74h-156q-40 0 -76.5 15t-68 42t-57 65.5t-43.5 86.5q-16 -55 -43 -109t-56 -100h-158q-75 0 -137 46.5t-110 149.5
q-16 -54 -41.5 -102.5t-53.5 -93.5h-362q-42 0 -56 26.5t-14 77.5q0 54 15 82t55 28h354q0 33 -8 62t-24.5 60.5t-43 67.5t-63.5 83q-27 33 -27 58q0 26 22 36l164 79h4q26 -57 44 -105.5t29.5 -91.5t17 -81.5t5.5 -75.5v-8zM973 1181l-132 -131l-131 131l131 132zM1093 947
l-134 -133l-116 115l-116 -115l-133 133l133 134l116 -117l116 117zM838 -524l-131 132l131 131l132 -131z" />
    <glyph glyph-name="uni06FA.medi" unicode="&#x6fa;" horiz-adv-x="1720" 
d="M474 306q0 -43 53 -67.5t165 -24.5h162q0 33 -7 61t-25 61.5t-48.5 77.5t-77.5 109q-27 36 -27 59q0 14 5.5 22t16.5 13l164 79h4q36 -75 58.5 -131.5t35 -101.5t17 -82.5t4.5 -74.5v-4q1 -18 12 -34t36.5 -28t67.5 -19t104 -7h160q0 32 -7.5 61.5t-27 66.5t-52.5 86.5
t-84 120.5q-26 38 -26 60q0 14 5 21.5t16 12.5l164 79h4q38 -78 62.5 -138.5t39 -109.5t20.5 -89.5t6 -78.5q0 -20 11.5 -36.5t37 -29t67.5 -19.5t104 -7h26q42 0 56 -26.5t14 -77.5q0 -54 -15 -82t-55 -28h-14q-40 0 -76.5 15t-68 42.5t-57.5 66t-44 86.5q-8 -27 -19.5 -56
t-25 -57t-27.5 -53t-26 -44h-156q-40 0 -76.5 15t-68 42t-57 65.5t-43.5 86.5q-16 -55 -43 -109t-56 -100h-158q-75 0 -137 46.5t-110 149.5q-16 -54 -41.5 -102.5t-53.5 -93.5h-362q-42 0 -56 26.5t-14 77.5q0 54 15 82t55 28h354q0 33 -8 62t-24.5 60.5t-43 67.5t-63.5 83
q-27 33 -27 58q0 26 22 36l164 79h4q26 -57 44 -105.5t29.5 -91.5t17 -81.5t5.5 -75.5zM985 1181l-132 -131l-131 131l131 132zM1105 947l-134 -133l-116 115l-116 -115l-133 133l133 134l116 -117l116 117zM838 -514l-131 132l131 131l132 -131z" />
    <glyph glyph-name="uni06FA.fina" unicode="&#x6fa;" horiz-adv-x="2190" 
d="M800 156q0 35 -10.5 72.5t-28 74.5t-40.5 71.5t-47 63.5q-11 13 -18.5 25.5t-7.5 25.5q0 21 15 30l158 93h4q54 -78 82.5 -160.5t33.5 -161.5q4 -16 17 -29.5t38.5 -24t65.5 -16.5t97 -6h163q0 33 -7.5 61t-25.5 61.5t-48.5 77.5t-77.5 109q-27 36 -27 59q0 14 5.5 22
t16.5 13l164 79h4q36 -75 58.5 -131.5t35 -101.5t17 -82.5t4.5 -74.5v-4q1 -18 12 -34t36.5 -28t67.5 -19t104 -7h161q0 32 -8 61.5t-27.5 66.5t-52.5 86t-84 121q-26 38 -26 60q0 14 5 21.5t16 12.5l164 79h4q38 -78 62.5 -138.5t39 -109.5t20.5 -89.5t6 -78.5v-4
q1 -18 12 -34t36.5 -28t67.5 -19t104 -7h29q42 0 56 -26.5t14 -77.5q0 -54 -15 -82t-55 -28h-17q-40 0 -76.5 15t-68 42.5t-57.5 66t-44 86.5q-15 -54 -42.5 -109.5t-55.5 -100.5h-156q-40 0 -76.5 15t-68 42t-57 65.5t-43.5 86.5q-16 -55 -43 -109t-56 -100h-158
q-75 0 -136 46.5t-98 134.5q-15 -84 -55 -168.5t-103 -153t-149 -111.5t-192 -43q-101 0 -182 29.5t-138 85.5t-87.5 135.5t-30.5 180.5q0 61 15 117t36.5 99t45 69t40.5 26q4 0 9.5 -4t12.5 -9q-10 -15 -18.5 -41t-14.5 -55t-9.5 -58.5t-3.5 -51.5q0 -67 28 -123.5
t78.5 -98t121 -64.5t156.5 -23q91 0 150 22t93 56.5t47 76.5t13 82zM1419 1181l-132 -131l-131 131l131 132zM1539 947l-134 -133l-116 115l-116 -115l-133 133l133 134l116 -117l116 117zM1298 -524l-131 132l131 131l132 -131z" />
    <glyph glyph-name="uni06FB.init" unicode="&#x6fb;" horiz-adv-x="1642" 
d="M522 0q-35 0 -62 7.5t-50 28t-43.5 57t-41.5 93.5q-18 -48 -41.5 -94.5t-49.5 -91.5h-234q-42 0 -56 26.5t-14 77.5q0 54 15 82t55 28h232q0 30 -5.5 56t-16 50t-25 48t-32.5 50q-14 21 -24 39t-10 34q0 21 14 29l166 82h4q7 -14 16.5 -34.5t18 -47.5t14.5 -60t6 -72
q0 -40 -6 -82q-1 -5 -1.5 -10.5t-0.5 -10.5q0 -14 4.5 -27t22 -22.5t51 -15.5t90.5 -6q72 90 156 182.5t172.5 167.5t178 122.5t173.5 47.5q52 0 97.5 -20.5t84 -56t68.5 -82t51 -98t32 -105.5t11 -103q0 -16 -3 -49.5t-7.5 -72.5t-11 -79t-13.5 -68h-985zM1387 214
q6 19 11.5 56t5.5 77q0 18 -2.5 38t-7.5 38.5t-12 34t-17 25.5q-22 22 -61 31t-87 9q-112 0 -234 -79t-255 -230h659zM1229 986l-139 -138l-138 138l138 139zM1219 -345l-139 -138l-138 138l138 139z" />
    <glyph glyph-name="uni06FB.medi" unicode="&#x6fb;" horiz-adv-x="1770" 
d="M522 0q-35 0 -62 7.5t-50 28t-43.5 57t-41.5 93.5q-18 -48 -41.5 -94.5t-49.5 -91.5h-234q-42 0 -56 26.5t-14 77.5q0 54 15 82t55 28h232q0 30 -5.5 56t-16 50t-25 48t-32.5 50q-14 21 -24 39t-10 34q0 21 14 29l166 82h4q7 -14 16.5 -34.5t18 -47.5t14.5 -60t6 -72
q0 -40 -6 -82q-1 -5 -1.5 -10.5t-0.5 -10.5q0 -14 4.5 -27t22 -22.5t51 -15.5t90.5 -6q72 90 156 182.5t172.5 167.5t178 122.5t173.5 47.5q52 0 97.5 -20.5t84 -56t68.5 -82t51 -98.5t32 -106t11 -104q4 -11 22 -20.5t46.5 -16.5t65.5 -11.5t79 -4.5h15q42 0 56 -26.5
t14 -77.5q0 -54 -15 -82t-55 -28h-12q-38 0 -72 12t-63.5 32.5t-52.5 47.5t-38 57q-5 -40 -11 -80t-14 -69h-985zM1387 214q6 19 11.5 56t5.5 77q0 18 -2.5 38t-7.5 38.5t-12 34t-17 25.5q-22 22 -61 31t-87 9q-112 0 -234 -79t-255 -230h659zM1239 986l-139 -138l-138 138
l138 139zM1219 -345l-139 -138l-138 138l138 139z" />
    <glyph glyph-name="uni06FB.fina" unicode="&#x6fb;" horiz-adv-x="2177" 
d="M944 254q0 -4 -0.5 -8.5t-0.5 -13.5q88 107 174 199t168.5 159.5t162.5 105.5t156 38q52 0 97.5 -20.5t83.5 -55t68.5 -80.5t51.5 -97.5t32 -105.5t11 -104q1 -11 18.5 -21t46.5 -18t67.5 -13t81.5 -5h15q42 0 56 -26.5t14 -77.5q0 -54 -15 -82t-55 -28h-12
q-38 0 -72.5 12.5t-64 33t-52.5 47.5t-38 57q-5 -40 -11 -80.5t-14 -69.5h-1052q-27 -56 -67 -109t-93 -94.5t-119 -66.5t-144 -25q-101 0 -182 29.5t-138 85.5t-87.5 135.5t-30.5 180.5q0 61 15 117t36.5 99t45 69t40.5 26q4 0 9.5 -4t12.5 -9q-10 -15 -18.5 -41t-14.5 -55
t-9.5 -58.5t-3.5 -51.5q0 -67 28 -123.5t78.5 -98t121 -64.5t156.5 -23q91 0 150 22t93 56.5t47 76.5t13 82q0 35 -10.5 72.5t-28 74.5t-40.5 71.5t-47 63.5q-11 13 -18.5 25.5t-7.5 25.5q0 21 15 30l158 93h4q54 -78 86.5 -170t32.5 -188zM1795 214q6 19 11.5 56t5.5 77
q0 18 -2.5 38t-7.5 38.5t-12 34t-17 25.5q-11 11 -26.5 18.5t-32.5 12.5t-34 7t-31 2q-130 0 -256.5 -80t-257.5 -229h660zM1702 986l-139 -138l-138 138l138 139zM1709 -345l-139 -138l-138 138l138 139z" />
    <glyph glyph-name="uni06FC.init" unicode="&#x6fc;" horiz-adv-x="870" 
d="M162 214q-19 35 -27 71t-8 64q0 49 18 100.5t49 99.5t73 90t90 73.5t99 50t101 18.5q72 0 112.5 -28t40.5 -70q0 -20 -6.5 -54t-22.5 -85q-54 17 -108 25.5t-96 8.5q-60 0 -97.5 -13.5t-59 -35t-29.5 -48.5t-8 -53q0 -36 17 -73.5t49.5 -69t80 -51.5t108.5 -20h232
q-4 -28 -14.5 -61.5t-22.5 -64.5t-23 -55t-17 -33h-693q-42 0 -56 26.5t-14 77.5q0 54 15 82t55 28h162zM651 986l-139 -138l-138 138l138 139zM599 -345l-139 -138l-138 138l138 139z" />
    <glyph glyph-name="uni06FC.medi" unicode="&#x6fc;" horiz-adv-x="874" 
d="M810 0q-59 0 -115 11t-104 28t-86.5 38t-63.5 41q-33 -21 -78 -42.5t-96 -38t-106.5 -27t-109.5 -10.5h-51q-42 0 -56 26.5t-14 77.5q0 54 15 82t55 28h121q39 0 81 7t69 15q-33 34 -61.5 76t-49 82.5t-32.5 73.5t-12 50q0 8 4 31.5t11.5 50.5t18 52t22.5 36q21 15 54 31
t75.5 28.5t93.5 20.5t109 8q72 0 126 -15t90 -38t54.5 -50.5t18.5 -52.5q0 -33 -8 -81t-27.5 -101.5t-52.5 -108.5t-83 -101q32 -10 80.5 -12t103.5 -2h68q42 0 56 -26.5t14 -77.5q0 -54 -15 -82t-55 -28h-64zM465 579q-20 0 -47.5 -2t-56.5 -6.5t-56 -12t-46 -19.5
q13 -23 33.5 -53t46 -61t54 -59t57.5 -46q48 26 84.5 56.5t60.5 58.5t36 50.5t12 32.5q0 7 -9.5 17t-30.5 20t-55 17t-83 7zM586 986l-139 -138l-138 138l138 139zM579 -345l-139 -138l-138 138l138 139z" />
    <glyph glyph-name="uni06FC.fina" unicode="&#x6fc;" horiz-adv-x="881" 
d="M465 579q-20 0 -47 -2t-55.5 -6.5t-56 -12t-47.5 -19.5q13 -22 34 -52t46.5 -61t54 -59.5t56.5 -46.5q42 28 77.5 59t61 58.5t40 49t14.5 31.5q0 7 -9.5 17t-30.5 20t-55 17t-83 7zM951 110q0 -54 -15 -82t-55 -28h-71q-60 0 -117 9.5t-107 26t-90.5 39.5t-68.5 50
q-104 -40 -164.5 -82.5t-91 -82.5t-38.5 -75.5t-8 -61.5q0 -47 20 -91.5t59.5 -79t100 -55.5t141.5 -21q34 0 70.5 2.5t71 7.5t64 12.5t49.5 18.5q-9 -47 -31 -90t-58 -75t-87 -51t-119 -19q-101 0 -177 32t-127 86t-76.5 125t-25.5 150q0 54 13 112t47 116.5t92.5 116
t150.5 112.5q-38 37 -72 80t-59.5 83.5t-40.5 73.5t-15 49q0 9 4 32.5t11.5 51t18 52t22.5 34.5q46 36 133 62t199 26q69 0 122.5 -14.5t90.5 -37t56.5 -50t19.5 -54.5q0 -35 -8.5 -80t-30.5 -93.5t-59.5 -99.5t-95.5 -98q18 -7 42 -13t51 -11t56.5 -8t57.5 -3h75
q42 0 56 -26.5t14 -77.5zM558 986l-139 -138l-138 138l138 139zM561 -185l-115 -114l-114 114l114 115z" />
    <glyph glyph-name="uni06FF.init" unicode="&#x6ff;" horiz-adv-x="1096" 
d="M0 0q-42 0 -56 26.5t-14 77.5q0 54 15 82t55 28h139q-11 30 -18 67t-7 69q0 55 23.5 105.5t69 101.5t112.5 106t154 120q93 -8 181 -38.5t156.5 -85t110 -134t41.5 -185.5q0 -30 -5.5 -71t-15.5 -86.5t-24.5 -93t-32.5 -89.5h-884zM322 214q37 0 66 15.5t49 38.5
t30.5 49.5t10.5 48.5q0 57 -33 93.5t-90 36.5q-28 0 -50.5 -11t-38 -30t-24 -44.5t-8.5 -54.5q0 -27 6.5 -51t15.5 -42.5t18.5 -31t16.5 -17.5h31zM827 214q2 8 3 21.5t1 26.5q0 69 -25 123.5t-71 94.5t-112 65t-148 36q54 -51 81 -120t27 -141q0 -24 -2 -53.5t-7 -52.5h253
zM505 1210q9 -23 22.5 -49.5t30 -54t36 -55.5t40 -53t40.5 -46t38 -34l-87 -51q-22 24 -63 86t-77 150q-25 -62 -50.5 -108t-46.5 -75t-42 -53l-88 51q19 13 39 34t40 46t39.5 53t36 55.5t30 54t22.5 49.5h40z" />
    <glyph glyph-name="uni06FF.medi" unicode="&#x6ff;" horiz-adv-x="881" 
d="M717 0q22 -43 33.5 -89t11.5 -84q0 -63 -17.5 -125t-50.5 -110.5t-79.5 -78.5t-104.5 -30q-60 0 -119.5 37t-108 105t-82.5 163.5t-43 211.5h-157q-42 0 -56 26.5t-14 77.5q0 54 15 82t55 28h164q4 62 22.5 127.5t46.5 127.5t63.5 117.5t74 97t77 66t72.5 24.5
q48 0 90 -26.5t73 -71t49 -102.5t18 -120q0 -32 -4.5 -66t-11.5 -65.5t-16 -59.5t-19 -49h182q42 0 56 -26.5t14 -77.5q0 -54 -15 -82t-55 -28h-164zM395 208q55 0 100.5 21t78 51.5t50.5 66.5t18 66q0 26 -9.5 53.5t-25.5 50t-37 37t-44 14.5q-16 0 -36.5 -14.5t-41.5 -40
t-41.5 -60.5t-36.5 -75t-26.5 -83.5t-11.5 -86.5h63zM337 1q1 -57 19 -115t48.5 -105t71.5 -76.5t89 -29.5q34 0 59.5 23.5t25.5 85.5q0 45 -17.5 85.5t-45.5 71t-64 48.5t-73 18q-5 0 -21 -0.5t-34.5 -1.5t-35 -2t-22.5 -2zM525 1210q9 -23 22.5 -49.5t30 -54t36 -55.5
t40 -53t40.5 -46t38 -34l-87 -51q-22 24 -63 86t-77 150q-25 -62 -50.5 -108t-46.5 -75t-42 -53l-88 51q19 13 39 34t40 46t39.5 53t36 55.5t30 54t22.5 49.5h40z" />
    <glyph glyph-name="uni06FF.fina" unicode="&#x6ff;" horiz-adv-x="1310" 
d="M234 214q-11 30 -18 67t-7 69q0 55 23.5 105.5t69 101.5t112.5 106t154 120q93 -8 181 -38.5t156.5 -85t110 -134t41.5 -185.5v-37q0 -18 11 -34t36.5 -28t67 -19.5t103.5 -7.5h35q42 0 56 -26.5t14 -77.5q0 -54 -15 -82t-55 -28h-23q-81 0 -146 54t-100 156
q-11 -52 -26.5 -106.5t-35.5 -103.5h-802q-33 0 -53.5 -17.5t-20.5 -51.5q0 -15 11 -59l-9 -5q-15 13 -33.5 35t-34.5 51t-26.5 63.5t-10.5 73.5q0 41 15 65.5t39.5 37.5t56.5 17t66 4h57zM922 214q2 8 3 21.5t1 26.5q0 69 -25 123.5t-71 94.5t-112 65t-148 36
q54 -51 81 -120t27 -141q0 -24 -2 -53.5t-7 -52.5h253zM417 214q37 0 66 15.5t49 38.5t30.5 49.5t10.5 48.5q0 57 -33 93.5t-90 36.5q-28 0 -50.5 -11t-38 -30t-24 -44.5t-8.5 -54.5q0 -27 6.5 -51t15.5 -42.5t18.5 -31t16.5 -17.5h31zM615 1210q9 -23 22.5 -49.5t30 -54
t36 -55.5t40 -53t40.5 -46t38 -34l-87 -51q-22 24 -63 86t-77 150q-25 -62 -50.5 -108t-46.5 -75t-42 -53l-88 51q19 13 39 34t40 46t39.5 53t36 55.5t30 54t22.5 49.5h40z" />
    <glyph glyph-name="uniFB50" unicode="&#x671;" horiz-adv-x="488" arabic-form="isolated" 
d="M26 1406q-4 9 -5 18.5t-1 20.5q0 43 23 70.5t63 27.5q20 0 42 -3t36 -7q10 24 27 48.5t38.5 44t47 32t53.5 12.5q48 0 75.5 -33t27.5 -87q0 -18 -4 -47t-10 -49q-28 -11 -62 -15t-63 -4q-32 0 -61.5 4t-55.5 9q-25 5 -44 8.5t-31 3.5q-32 0 -59.5 -16.5t-36.5 -37.5z
M397 1524q0 25 -12 42.5t-39 17.5q-28 0 -53 -17t-45 -45q16 -4 36 -6t37 -2q23 0 39.5 3t36.5 7zM150 0v1295q0 19 4 31t19 17l162 37l3 -2v-1378h-188z" />
    <glyph glyph-name="uniFB51" unicode="&#x671;" horiz-adv-x="532" arabic-form="final" 
d="M152 1295q0 19 4 31t19 17l162 37l3 -2v-1164h192q42 0 56 -26.5t14 -77.5q0 -54 -15 -82t-55 -28h-257q-44 30 -68.5 52.5t-36.5 42t-15 38t-3 40.5v1122zM26 1406q-4 9 -5 18.5t-1 20.5q0 43 23 70.5t63 27.5q20 0 42 -3t36 -7q10 24 27 48.5t38.5 44t47 32t53.5 12.5
q48 0 75.5 -33t27.5 -87q0 -18 -4 -47t-10 -49q-28 -11 -62 -15t-63 -4q-32 0 -61.5 4t-55.5 9q-25 5 -44 8.5t-31 3.5q-32 0 -59.5 -16.5t-36.5 -37.5zM397 1524q0 25 -12 42.5t-39 17.5q-28 0 -53 -17t-45 -45q16 -4 36 -6t37 -2q23 0 39.5 3t36.5 7z" />
    <glyph glyph-name="uniFB52" unicode="&#x67b;" horiz-adv-x="1392" arabic-form="isolated" 
d="M1168 214q-1 30 -9 59.5t-26.5 67.5t-50.5 88t-81 120q-26 38 -26 60q0 14 5 21.5t16 12.5l164 79h4q38 -78 62.5 -138.5t39 -109.5t20.5 -89.5t6 -78.5q0 -41 -9.5 -80.5t-25.5 -78t-36 -75t-41 -72.5h-852q-71 0 -131 15.5t-103.5 48.5t-68.5 85t-25 125q0 61 17 114
t41 91.5t50.5 60.5t45.5 22q2 0 8 -1.5t11 -6.5q-12 -20 -22.5 -43t-18.5 -46t-12.5 -44.5t-4.5 -37.5q0 -27 5.5 -56.5t31 -54.5t78 -41.5t147.5 -16.5h791zM801 -336l-117 -116l117 -116l-134 -133l-133 133l115 116l-115 116l133 134z" />
    <glyph glyph-name="uniFB53" unicode="&#x67b;" horiz-adv-x="1543" arabic-form="final" 
d="M1169 214q-1 29 -9 59t-27 68t-51 88t-81 120q-26 38 -26 60q0 14 5 21.5t16 12.5l164 79h4q38 -78 62.5 -138.5t39 -109.5t20.5 -89.5t6 -78.5q0 -18 10.5 -35t36 -29.5t68 -20t105.5 -7.5h31q42 0 56 -26.5t14 -77.5q0 -54 -15 -82t-55 -28h-19q-40 0 -76.5 15
t-68 42.5t-57.5 66t-44 86.5q-15 -54 -42 -107.5t-56 -102.5h-852q-71 0 -131 15.5t-103.5 48.5t-68.5 85t-25 125q0 61 17 114t41 91.5t50.5 60.5t45.5 22q2 0 8 -2t11 -7q-25 -41 -41.5 -88.5t-16.5 -81.5q0 -27 5.5 -56.5t31 -54.5t78 -41.5t147.5 -16.5h792zM823 -336
l-117 -116l117 -116l-134 -133l-133 133l115 116l-115 116l133 134z" />
    <glyph glyph-name="uniFB54" unicode="&#x67b;" horiz-adv-x="569" arabic-form="initial" 
d="M0 0q-42 0 -56 26.5t-14 77.5q0 54 15 82t55 28h345q0 32 -7 61.5t-26 66.5t-51 86.5t-83 120.5q-26 38 -26 60q0 14 5 21.5t16 12.5l164 79h4q38 -78 62.5 -138.5t39 -109.5t20.5 -89.5t6 -78.5q0 -41 -9.5 -80.5t-25.5 -78t-36 -75t-41 -72.5h-357zM359 -340l-117 -116
l117 -116l-134 -133l-133 133l115 116l-115 116l133 134z" />
    <glyph glyph-name="uniFB55" unicode="&#x67b;" horiz-adv-x="712" arabic-form="medial" 
d="M0 0q-42 0 -56 26.5t-14 77.5q0 54 15 82t55 28h345q0 32 -6.5 61.5t-24.5 66.5t-49.5 86t-82.5 121q-26 38 -26 60q0 14 5 21.5t16 12.5l164 79h4q38 -78 62.5 -138.5t39 -109.5t20.5 -89.5t6 -78.5q0 -20 11.5 -36.5t37 -29t67.5 -19.5t104 -7h19q42 0 56 -26.5
t14 -77.5q0 -54 -15 -82t-55 -28h-7q-40 0 -76.5 15t-68 42.5t-57.5 66t-44 86.5q-17 -55 -44.5 -111t-53.5 -99h-361zM464 -344l-117 -116l117 -116l-134 -133l-133 133l115 116l-115 116l133 134z" />
    <glyph glyph-name="uniFB56" unicode="&#x67e;" horiz-adv-x="1392" arabic-form="isolated" 
d="M1168 214q-1 30 -9 59.5t-26.5 67.5t-50.5 88t-81 120q-26 38 -26 60q0 14 5 21.5t16 12.5l164 79h4q38 -78 62.5 -138.5t39 -109.5t20.5 -89.5t6 -78.5q0 -41 -9.5 -80.5t-25.5 -78t-36 -75t-41 -72.5h-852q-71 0 -131 15.5t-103.5 48.5t-68.5 85t-25 125q0 61 17 114
t41 91.5t50.5 60.5t45.5 22q2 0 8 -1.5t11 -6.5q-12 -20 -22.5 -43t-18.5 -46t-12.5 -44.5t-4.5 -37.5q0 -27 5.5 -56.5t31 -54.5t78 -41.5t147.5 -16.5h791zM811 -600l-131 -129l-129 129l129 131zM919 -369l-134 -133l-116 115l-116 -115l-133 133l133 134l116 -117
l116 117z" />
    <glyph glyph-name="uniFB57" unicode="&#x67e;" horiz-adv-x="1543" arabic-form="final" 
d="M1169 214q-1 29 -9 59t-27 68t-51 88t-81 120q-26 38 -26 60q0 14 5 21.5t16 12.5l164 79h4q38 -78 62.5 -138.5t39 -109.5t20.5 -89.5t6 -78.5q0 -18 10.5 -35t36 -29.5t68 -20t105.5 -7.5h31q42 0 56 -26.5t14 -77.5q0 -54 -15 -82t-55 -28h-19q-40 0 -76.5 15
t-68 42.5t-57.5 66t-44 86.5q-15 -54 -42 -107.5t-56 -102.5h-852q-71 0 -131 15.5t-103.5 48.5t-68.5 85t-25 125q0 61 17 114t41 91.5t50.5 60.5t45.5 22q2 0 8 -2t11 -7q-25 -41 -41.5 -88.5t-16.5 -81.5q0 -27 5.5 -56.5t31 -54.5t78 -41.5t147.5 -16.5h792zM811 -600
l-131 -129l-129 129l129 131zM919 -369l-134 -133l-116 115l-116 -115l-133 133l133 134l116 -117l116 117z" />
    <glyph glyph-name="uniFB58" unicode="&#x67e;" horiz-adv-x="569" arabic-form="initial" 
d="M0 0q-42 0 -56 26.5t-14 77.5q0 54 15 82t55 28h345q0 32 -7 61.5t-26 66.5t-51 86.5t-83 120.5q-26 38 -26 60q0 14 5 21.5t16 12.5l164 79h4q38 -78 62.5 -138.5t39 -109.5t20.5 -89.5t6 -78.5q0 -41 -9.5 -80.5t-25.5 -78t-36 -75t-41 -72.5h-357zM361 -600l-131 -129
l-129 129l129 131zM469 -369l-134 -133l-116 115l-116 -115l-133 133l133 134l116 -117l116 117z" />
    <glyph glyph-name="uniFB59" unicode="&#x67e;" horiz-adv-x="712" arabic-form="medial" 
d="M0 0q-42 0 -56 26.5t-14 77.5q0 54 15 82t55 28h345q0 32 -6.5 61.5t-24.5 66.5t-49.5 86t-82.5 121q-26 38 -26 60q0 14 5 21.5t16 12.5l164 79h4q38 -78 62.5 -138.5t39 -109.5t20.5 -89.5t6 -78.5q0 -20 11.5 -36.5t37 -29t67.5 -19.5t104 -7h19q42 0 56 -26.5
t14 -77.5q0 -54 -15 -82t-55 -28h-7q-40 0 -76.5 15t-68 42.5t-57.5 66t-44 86.5q-17 -55 -44.5 -111t-53.5 -99h-361zM441 -600l-131 -129l-129 129l129 131zM549 -369l-134 -133l-116 115l-116 -115l-133 133l133 134l116 -117l116 117z" />
    <glyph glyph-name="uniFB5A" unicode="&#x680;" horiz-adv-x="1392" arabic-form="isolated" 
d="M1168 214q-1 30 -9 59.5t-26.5 67.5t-50.5 88t-81 120q-26 38 -26 60q0 14 5 21.5t16 12.5l164 79h4q38 -78 62.5 -138.5t39 -109.5t20.5 -89.5t6 -78.5q0 -41 -9.5 -80.5t-25.5 -78t-36 -75t-41 -72.5h-852q-71 0 -131 15.5t-103.5 48.5t-68.5 85t-25 125q0 61 17 114
t41 91.5t50.5 60.5t45.5 22q2 0 8 -1.5t11 -6.5q-12 -20 -22.5 -43t-18.5 -46t-12.5 -44.5t-4.5 -37.5q0 -27 5.5 -56.5t31 -54.5t78 -41.5t147.5 -16.5h791zM876 -582l-120 -118l-103 102l-104 -102l-118 118l118 120l104 -105l103 105zM882 -344l-120 -118l-103 102
l-104 -102l-118 118l118 120l104 -105l103 105z" />
    <glyph glyph-name="uniFB5B" unicode="&#x680;" horiz-adv-x="1543" arabic-form="final" 
d="M1169 214q-1 29 -9 59t-27 68t-51 88t-81 120q-26 38 -26 60q0 14 5 21.5t16 12.5l164 79h4q38 -78 62.5 -138.5t39 -109.5t20.5 -89.5t6 -78.5q0 -18 10.5 -35t36 -29.5t68 -20t105.5 -7.5h31q42 0 56 -26.5t14 -77.5q0 -54 -15 -82t-55 -28h-19q-40 0 -76.5 15
t-68 42.5t-57.5 66t-44 86.5q-15 -54 -42 -107.5t-56 -102.5h-852q-71 0 -131 15.5t-103.5 48.5t-68.5 85t-25 125q0 61 17 114t41 91.5t50.5 60.5t45.5 22q2 0 8 -2t11 -7q-25 -41 -41.5 -88.5t-16.5 -81.5q0 -27 5.5 -56.5t31 -54.5t78 -41.5t147.5 -16.5h792zM876 -582
l-120 -118l-103 102l-104 -102l-118 118l118 120l104 -105l103 105zM882 -344l-120 -118l-103 102l-104 -102l-118 118l118 120l104 -105l103 105z" />
    </font>
</defs>
</svg>
