<?xml version="1.0" standalone="no"?>
<!DOCTYPE svg PUBLIC "-//W3C//DTD SVG 1.1//EN" "http://www.w3.org/Graphics/SVG/1.1/DTD/svg11.dtd" >
<svg xmlns="http://www.w3.org/2000/svg" xmlns:xlink="http://www.w3.org/1999/xlink" version="1.1">
<metadata>
Created by FontForge 20170731 at Sat Oct 22 03:54:11 2016
 By Aleksey,,,
(c)  2013 Bahij Virtual Academy. All rights reserved.
</metadata>
<defs>
<font id="BahijSultanNahia-Regular" horiz-adv-x="0" >
  <font-face 
    font-family="Bahij SultanNahia"
    font-weight="400"
    font-stretch="normal"
    units-per-em="2048"
    panose-1="2 4 5 3 5 2 1 2 2 3"
    ascent="1638"
    descent="-410"
    x-height="733"
    cap-height="1067"
    bbox="-280 -849 4802 1801"
    underline-thickness="45"
    underline-position="-131"
    unicode-range="U+0020-FEFC"
  />
<missing-glyph horiz-adv-x="728" 
d="M0 0v1020h728v-1020h-728zM117 947l247 -372l248 372h-495zM655 881l-247 -371l247 -372v743zM612 73l-248 371l-247 -371h495zM73 138l247 372l-247 371v-743z" />
    <glyph glyph-name="uniFB01" unicode="fi" horiz-adv-x="948" 
d="M641 733h225v-733h-225v733zM622 963q0 55 39 93t92 38q54 0 93 -38t39 -93q0 -54 -39 -93t-93 -39q-53 0 -92 39t-39 93zM158 551h-150v182h150v129q0 60 10 114t40.5 94t87 63.5t148.5 23.5q35 0 68 -2t65 -10l-12 -193q-35 15 -72 15q-55 0 -81.5 -23.5t-26.5 -95.5
v-115h166v-182h-166v-551h-227v551z" />
    <glyph glyph-name="uniFB02" unicode="fl" horiz-adv-x="948" 
d="M641 1139h225v-1139h-225v1139zM158 551h-150v182h150v129q0 60 10 114t40.5 94t87 63.5t148.5 23.5q35 0 68 -2t65 -10l-12 -193q-35 15 -72 15q-55 0 -81.5 -23.5t-26.5 -95.5v-115h166v-182h-166v-551h-227v551z" />
    <glyph glyph-name="uniFC31" unicode="&#xfed3;&#xfef0;" horiz-adv-x="2000" arabic-form="isolated" 
d="M1701 479h-71q-45 0 -77 -13t-51.5 -34.5t-27.5 -46.5t-8 -49q0 -66 42 -106t113 -40h80v289zM1143 2h-15q6 -31 6 -61q0 -52 -18.5 -97t-52 -77.5t-80.5 -51t-103 -18.5h-272q-115 0 -209 44t-159.5 115.5t-101.5 163t-36 185.5v88h190v-78q0 -70 24 -129t66 -103
t96 -69t116 -25h288q64 0 64 48q0 30 -16.5 46.5t-39.5 16.5h-165v190h581q-16 35 -23.5 72t-7.5 78q0 63 23.5 123.5t69 106.5t111 74t147.5 28h270v-672h-735q-10 0 -18 2zM1583 993q47 0 79.5 -34.5t32.5 -77.5q0 -50 -37 -83.5t-75 -33.5q-50 0 -83.5 33.5t-33.5 83.5
q0 43 30.5 77.5t86.5 34.5z" />
    <glyph glyph-name="uniFC32" unicode="&#xfed3;&#xfef2;" horiz-adv-x="2000" arabic-form="isolated" 
d="M788 -352q47 0 80 -35t33 -78q0 -49 -37 -83t-76 -34q-49 0 -83 34t-34 83q0 43 31 78t86 35zM540 -352q51 0 82 -34t31 -79q0 -53 -36 -85t-77 -32q-47 0 -80.5 35t-33.5 82q0 41 30.5 77t83.5 36zM1701 479h-71q-45 0 -77 -13t-51.5 -34.5t-27.5 -46.5t-8 -49
q0 -66 42 -106t113 -40h80v289zM1143 2h-15q6 -31 6 -61q0 -52 -18.5 -97t-52 -77.5t-80.5 -51t-103 -18.5h-272q-115 0 -209 44t-159.5 115.5t-101.5 163t-36 185.5v88h190v-78q0 -70 24 -129t66 -103t96 -69t116 -25h288q64 0 64 48q0 30 -16.5 46.5t-39.5 16.5h-165v190
h581q-16 35 -23.5 72t-7.5 78q0 63 23.5 123.5t69 106.5t111 74t147.5 28h270v-672h-735q-10 0 -18 2zM1583 993q47 0 79.5 -34.5t32.5 -77.5q0 -50 -37 -83.5t-75 -33.5q-50 0 -83.5 33.5t-33.5 83.5q0 43 30.5 77.5t86.5 34.5z" />
    <glyph glyph-name="uniFC43" unicode="&#xfedf;&#xfef0;" horiz-adv-x="1600" arabic-form="isolated" 
d="M1143 2h-15q6 -31 6 -61q0 -52 -18.5 -97t-52 -77.5t-80.5 -51t-103 -18.5h-272q-115 0 -209 44t-159.5 115.5t-101.5 163t-36 185.5v88h190v-78q0 -70 24 -129t66 -103t96 -69t116 -25h288q64 0 64 48q0 30 -16.5 46.5t-39.5 16.5h-165v190h436q69 0 107 43t38 103v827
h191v-827q0 -76 -28 -137.5t-75 -105.5t-107.5 -68.5t-125.5 -24.5q-10 0 -18 2z" />
    <glyph glyph-name="uniFC44" unicode="&#xfedf;&#xfef2;" horiz-adv-x="1600" arabic-form="isolated" 
d="M788 -352q47 0 80 -35t33 -78q0 -49 -37 -83t-76 -34q-49 0 -83 34t-34 83q0 43 31 78t86 35zM540 -352q51 0 82 -34t31 -79q0 -53 -36 -85t-77 -32q-47 0 -80.5 35t-33.5 82q0 41 30.5 77t83.5 36zM1143 2h-15q6 -31 6 -61q0 -52 -18.5 -97t-52 -77.5t-80.5 -51
t-103 -18.5h-272q-115 0 -209 44t-159.5 115.5t-101.5 163t-36 185.5v88h190v-78q0 -70 24 -129t66 -103t96 -69t116 -25h288q64 0 64 48q0 30 -16.5 46.5t-39.5 16.5h-165v190h436q69 0 107 43t38 103v827h191v-827q0 -76 -28 -137.5t-75 -105.5t-107.5 -68.5t-125.5 -24.5
q-10 0 -18 2z" />
    <glyph glyph-name="uniFC64" unicode="&#xfe8c;&#xfeae;" horiz-adv-x="1081" arabic-form="final" 
d="M462 0q-4 -10 -10 -21.5t-12 -21.5l-201 -340l-164 94l207 348q33 54 44 96t11 87q0 172 -156 268l97 170q119 -78 184.5 -187.5t65.5 -232.5v-35.5t-4 -34.5h90q51 7 92 46.5t41 99.5v344h192v-344q0 -80 -32 -146h174v-190h-240v100q-49 -51 -108 -75q-54 -23 -107 -25
h-164zM751 846q-12 20 -12 55q0 62 37.5 92.5t84.5 30.5q29 0 55.5 -11.5t49.5 -39.5l-51 -51q-19 30 -54 30q-51 0 -51 -51q0 -24 14.5 -39.5t41.5 -15.5h125v-74h-304v74h64z" />
    <glyph glyph-name="uniFC67" unicode="&#xfe8c;&#xfee6;" horiz-adv-x="1658" arabic-form="final" 
d="M612 57q-50 0 -81.5 34t-31.5 81t31.5 81t81.5 34q51 0 82.5 -34t31.5 -81t-33.5 -81t-80.5 -34zM1328 846q-12 20 -12 55q0 62 37.5 92.5t84.5 30.5q29 0 55.5 -11.5t49.5 -39.5l-51 -51q-19 30 -54 30q-51 0 -51 -51q0 -24 14.5 -39.5t41.5 -15.5h125v-74h-304v74h64z
M1074 0q-24 -68 -66 -126t-101.5 -101t-136.5 -67.5t-171 -24.5q-76 0 -161 28.5t-155.5 88t-116.5 151.5t-46 219q0 98 33 186t96.5 156t154.5 110t205 48v-191q-61 -4 -115.5 -27.5t-94 -63.5t-62 -96.5t-22.5 -125.5q0 -72 23.5 -127t65.5 -92t96 -56.5t116 -19.5
q59 0 113.5 22.5t96.5 66.5t66.5 106.5t24.5 142.5v469h192v-486h82q51 7 92 46.5t41 99.5v344h192v-344q0 -80 -32 -146h174v-190h-240v100q-49 -51 -108 -75q-52 -22 -103 -25h-133z" />
    <glyph glyph-name="uniFC6A" unicode="&#xfe92;&#xfeae;" horiz-adv-x="1081" arabic-form="final" 
d="M788 -322q-47 0 -81 34t-34 81t34 81t81 34t80.5 -34t33.5 -81t-33.5 -81t-80.5 -34zM462 0q-4 -10 -10 -21.5t-12 -21.5l-201 -340l-164 94l207 348q33 54 44 96t11 87q0 172 -156 268l97 170q119 -78 184.5 -187.5t65.5 -232.5v-35.5t-4 -34.5h90q51 7 92 46.5t41 99.5
v344h192v-344q0 -80 -32 -146h174v-190h-240v100q-49 -51 -108 -75q-54 -23 -107 -25h-164z" />
    <glyph glyph-name="uniFC70" unicode="&#xfe98;&#xfeae;" horiz-adv-x="1081" arabic-form="final" 
d="M962 999q47 0 79.5 -34.5t32.5 -77.5q0 -49 -36.5 -83t-75.5 -34q-49 0 -83 34t-34 83q0 43 31 77.5t86 34.5zM462 0q-4 -10 -10 -21.5t-12 -21.5l-201 -340l-164 94l207 348q33 54 44 96t11 87q0 172 -156 268l97 170q119 -78 184.5 -187.5t65.5 -232.5v-35.5t-4 -34.5
h90q51 7 92 46.5t41 99.5v344h192v-344q0 -80 -32 -146h174v-190h-240v100q-49 -51 -108 -75q-54 -23 -107 -25h-164zM714 999q51 0 82 -33.5t31 -78.5q0 -53 -36 -85t-77 -32q-47 0 -81 35t-34 82q0 41 31 76.5t84 35.5z" />
    <glyph glyph-name="uniFC86" unicode="&#xfee0;&#xfef0;" horiz-adv-x="1614" arabic-form="final" 
d="M1153 2h-25q6 -31 6 -61q0 -52 -18.5 -97t-52 -77.5t-80.5 -51t-103 -18.5h-272q-115 0 -209 44t-159.5 115.5t-101.5 163t-36 185.5v88h190v-78q0 -70 24 -129t66 -103t96 -69t116 -25h288q64 0 64 48q0 30 -16.5 46.5t-39.5 16.5h-165v190h446q69 0 107 43t38 103v827
h191v-827q0 -76 -33 -146h141v-190h-205v98q-47 -47 -109.5 -72.5t-129.5 -25.5q-10 0 -18 2z" />
    <glyph glyph-name="uniFC87" unicode="&#xfee0;&#xfef2;" horiz-adv-x="1614" arabic-form="final" 
d="M788 -352q47 0 80 -35t33 -78q0 -49 -37 -83t-76 -34q-49 0 -83 34t-34 83q0 43 31 78t86 35zM540 -352q51 0 82 -34t31 -79q0 -53 -36 -85t-77 -32q-47 0 -80.5 35t-33.5 82q0 41 30.5 77t83.5 36zM1153 2h-25q6 -31 6 -61q0 -52 -18.5 -97t-52 -77.5t-80.5 -51
t-103 -18.5h-272q-115 0 -209 44t-159.5 115.5t-101.5 163t-36 185.5v88h190v-78q0 -70 24 -129t66 -103t96 -69t116 -25h288q64 0 64 48q0 30 -16.5 46.5t-39.5 16.5h-165v190h446q69 0 107 43t38 103v827h191v-827q0 -76 -33 -146h141v-190h-205v98q-47 -47 -109.5 -72.5
t-129.5 -25.5q-10 0 -18 2z" />
    <glyph glyph-name="uniFCCC" unicode="&#xfedf;&#xfee4;" horiz-adv-x="1297" arabic-form="initial" 
d="M298 229q0 -59 38.5 -101t104.5 -42q59 0 102 42t43 101q0 60 -43 103t-102 43t-101 -43t-42 -103zM683 0q-45 -47 -106.5 -74.5t-133.5 -27.5t-133.5 27.5t-106.5 74.5h-202q-37 0 -54.5 29.5t-17.5 64.5t17.5 65.5t54.5 30.5h110q-2 11 -2 21v20q0 70 26.5 130.5
t72 105.5t105.5 71.5t130 26.5t130.5 -26.5t105.5 -71.5t71.5 -105.5t26.5 -130.5v-20t-2 -21h86q69 0 107 43t38 103v827h191v-827q0 -76 -28 -137.5t-75 -105.5t-107 -68q-54 -22 -110 -25h-194z" />
    <glyph glyph-name="uniFCFB" unicode="&#xfeb3;&#xfef0;" horiz-adv-x="2376" arabic-form="isolated" 
d="M1173 2h-45q6 -31 6 -61q0 -52 -18.5 -97t-52 -77.5t-80.5 -51t-103 -18.5h-272q-115 0 -209 44t-159.5 115.5t-101.5 163t-36 185.5v88h190v-78q0 -70 24 -129t66 -103t96 -69t116 -25h288q64 0 64 48q0 30 -16.5 46.5t-39.5 16.5h-165v190h454v-1q6 1 12 1
q30 0 57 12.5t46.5 33t30.5 47t11 53.5v344h193v-344q0 -39 -7.5 -75t-25.5 -71h67q27 0 53.5 11.5t47 32t33 47t12.5 55.5v344h190v-344q0 -39 -6 -75t-26 -71h67q57 0 100 43t43 103v344h193v-344q0 -66 -24.5 -126t-68.5 -107.5t-105.5 -75t-135.5 -27.5h-135v100
q-98 -100 -238 -100h-133v98q-102 -98 -239 -98q-10 0 -18 2z" />
    <glyph glyph-name="uniFCFC" unicode="&#xfeb3;&#xfef2;" horiz-adv-x="2376" arabic-form="isolated" 
d="M788 -352q47 0 80 -35t33 -78q0 -49 -37 -83t-76 -34q-49 0 -83 34t-34 83q0 43 31 78t86 35zM540 -352q51 0 82 -34t31 -79q0 -53 -36 -85t-77 -32q-47 0 -80.5 35t-33.5 82q0 41 30.5 77t83.5 36zM1173 2h-45q6 -31 6 -61q0 -52 -18.5 -97t-52 -77.5t-80.5 -51
t-103 -18.5h-272q-115 0 -209 44t-159.5 115.5t-101.5 163t-36 185.5v88h190v-78q0 -70 24 -129t66 -103t96 -69t116 -25h288q64 0 64 48q0 30 -16.5 46.5t-39.5 16.5h-165v190h454v-1q6 1 12 1q30 0 57 12.5t46.5 33t30.5 47t11 53.5v344h193v-344q0 -39 -7.5 -75
t-25.5 -71h67q27 0 53.5 11.5t47 32t33 47t12.5 55.5v344h190v-344q0 -39 -6 -75t-26 -71h67q57 0 100 43t43 103v344h193v-344q0 -66 -24.5 -126t-68.5 -107.5t-105.5 -75t-135.5 -27.5h-135v100q-98 -100 -238 -100h-133v98q-102 -98 -239 -98q-10 0 -18 2z" />
    <glyph glyph-name="uniFCFD" unicode="&#xfeb7;&#xfef0;" horiz-adv-x="2376" arabic-form="isolated" 
d="M1173 2h-45q6 -31 6 -61q0 -52 -18.5 -97t-52 -77.5t-80.5 -51t-103 -18.5h-272q-115 0 -209 44t-159.5 115.5t-101.5 163t-36 185.5v88h190v-78q0 -70 24 -129t66 -103t96 -69t116 -25h288q64 0 64 48q0 30 -16.5 46.5t-39.5 16.5h-165v190h454v-1q6 1 12 1
q30 0 57 12.5t46.5 33t30.5 47t11 53.5v344h193v-344q0 -39 -7.5 -75t-25.5 -71h67q27 0 53.5 11.5t47 32t33 47t12.5 55.5v344h190v-344q0 -39 -6 -75t-26 -71h67q57 0 100 43t43 103v344h193v-344q0 -66 -24.5 -126t-68.5 -107.5t-105.5 -75t-135.5 -27.5h-135v100
q-98 -100 -238 -100h-133v98q-102 -98 -239 -98q-10 0 -18 2zM1664 1008q51 0 81.5 -34t30.5 -79q0 -53 -35.5 -85t-76.5 -32q-47 0 -81 35t-34 82q0 41 31 77t84 36zM1912 1008q47 0 79.5 -35t32.5 -78q0 -49 -37 -83t-75 -34q-50 0 -83.5 34t-33.5 83q0 43 30.5 78
t86.5 35zM1789 1221q47 0 79.5 -35t32.5 -78q0 -49 -36.5 -83t-75.5 -34q-49 0 -83 34t-34 83q0 43 30.5 78t86.5 35z" />
    <glyph glyph-name="uniFCFE" unicode="&#xfeb7;&#xfef2;" horiz-adv-x="2376" arabic-form="isolated" 
d="M788 -352q47 0 80 -35t33 -78q0 -49 -37 -83t-76 -34q-49 0 -83 34t-34 83q0 43 31 78t86 35zM540 -352q51 0 82 -34t31 -79q0 -53 -36 -85t-77 -32q-47 0 -80.5 35t-33.5 82q0 41 30.5 77t83.5 36zM1173 2h-45q6 -31 6 -61q0 -52 -18.5 -97t-52 -77.5t-80.5 -51
t-103 -18.5h-272q-115 0 -209 44t-159.5 115.5t-101.5 163t-36 185.5v88h190v-78q0 -70 24 -129t66 -103t96 -69t116 -25h288q64 0 64 48q0 30 -16.5 46.5t-39.5 16.5h-165v190h454v-1q6 1 12 1q30 0 57 12.5t46.5 33t30.5 47t11 53.5v344h193v-344q0 -39 -7.5 -75
t-25.5 -71h67q27 0 53.5 11.5t47 32t33 47t12.5 55.5v344h190v-344q0 -39 -6 -75t-26 -71h67q57 0 100 43t43 103v344h193v-344q0 -66 -24.5 -126t-68.5 -107.5t-105.5 -75t-135.5 -27.5h-135v100q-98 -100 -238 -100h-133v98q-102 -98 -239 -98q-10 0 -18 2zM1664 1008
q51 0 81.5 -34t30.5 -79q0 -53 -35.5 -85t-76.5 -32q-47 0 -81 35t-34 82q0 41 31 77t84 36zM1912 1008q47 0 79.5 -35t32.5 -78q0 -49 -37 -83t-75 -34q-50 0 -83.5 34t-33.5 83q0 43 30.5 78t86.5 35zM1789 1221q47 0 79.5 -35t32.5 -78q0 -49 -36.5 -83t-75.5 -34
q-49 0 -83 34t-34 83q0 43 30.5 78t86.5 35z" />
    <glyph glyph-name="uniFD05" unicode="&#xfebb;&#xfef0;" horiz-adv-x="2600" arabic-form="isolated" 
d="M2043 481q-129 0 -233.5 -79.5t-208.5 -211.5h708q-12 66 -31.5 119t-50 92t-75.5 59.5t-109 20.5zM1153 2h-25q6 -31 6 -61q0 -52 -18.5 -97t-52 -77.5t-80.5 -51t-103 -18.5h-272q-115 0 -209 44t-159.5 115.5t-101.5 163t-36 185.5v88h190v-78q0 -70 24 -129t66 -103
t96 -69t116 -25h288q64 0 64 48q0 30 -16.5 46.5t-39.5 16.5h-165v190h567v398h192v-240l64 64q71 73 133.5 123.5t122 81t120 44t127.5 13.5q135 0 223.5 -55.5t141.5 -146.5t74.5 -209t21.5 -243v-20h-1341q-10 0 -18 2z" />
    <glyph glyph-name="uniFD06" unicode="&#xfebb;&#xfef2;" horiz-adv-x="2600" arabic-form="isolated" 
d="M788 -352q47 0 80 -35t33 -78q0 -49 -37 -83t-76 -34q-49 0 -83 34t-34 83q0 43 31 78t86 35zM540 -352q51 0 82 -34t31 -79q0 -53 -36 -85t-77 -32q-47 0 -80.5 35t-33.5 82q0 41 30.5 77t83.5 36zM2043 481q-129 0 -233.5 -79.5t-208.5 -211.5h708q-12 66 -31.5 119
t-50 92t-75.5 59.5t-109 20.5zM1153 2h-25q6 -31 6 -61q0 -52 -18.5 -97t-52 -77.5t-80.5 -51t-103 -18.5h-272q-115 0 -209 44t-159.5 115.5t-101.5 163t-36 185.5v88h190v-78q0 -70 24 -129t66 -103t96 -69t116 -25h288q64 0 64 48q0 30 -16.5 46.5t-39.5 16.5h-165v190
h567v398h192v-240l64 64q71 73 133.5 123.5t122 81t120 44t127.5 13.5q135 0 223.5 -55.5t141.5 -146.5t74.5 -209t21.5 -243v-20h-1341q-10 0 -18 2z" />
    <glyph glyph-name="uniFD07" unicode="&#xfebf;&#xfef0;" horiz-adv-x="2600" arabic-form="isolated" 
d="M2043 481q-129 0 -233.5 -79.5t-208.5 -211.5h708q-12 66 -31.5 119t-50 92t-75.5 59.5t-109 20.5zM1670 1001q47 0 80 -34.5t33 -77.5q0 -49 -37 -83t-76 -34q-49 0 -82.5 34t-33.5 83q0 43 30.5 77.5t85.5 34.5zM1153 2h-25q6 -31 6 -61q0 -52 -18.5 -97t-52 -77.5
t-80.5 -51t-103 -18.5h-272q-115 0 -209 44t-159.5 115.5t-101.5 163t-36 185.5v88h190v-78q0 -70 24 -129t66 -103t96 -69t116 -25h288q64 0 64 48q0 30 -16.5 46.5t-39.5 16.5h-165v190h567v398h192v-240l64 64q71 73 133.5 123.5t122 81t120 44t127.5 13.5
q135 0 223.5 -55.5t141.5 -146.5t74.5 -209t21.5 -243v-20h-1341q-10 0 -18 2z" />
    <glyph glyph-name="uniFD08" unicode="&#xfebf;&#xfef2;" horiz-adv-x="2600" arabic-form="isolated" 
d="M788 -352q47 0 80 -35t33 -78q0 -49 -37 -83t-76 -34q-49 0 -83 34t-34 83q0 43 31 78t86 35zM540 -352q51 0 82 -34t31 -79q0 -53 -36 -85t-77 -32q-47 0 -80.5 35t-33.5 82q0 41 30.5 77t83.5 36zM2043 481q-129 0 -233.5 -79.5t-208.5 -211.5h708q-12 66 -31.5 119
t-50 92t-75.5 59.5t-109 20.5zM1670 1001q47 0 80 -34.5t33 -77.5q0 -49 -37 -83t-76 -34q-49 0 -82.5 34t-33.5 83q0 43 30.5 77.5t85.5 34.5zM1153 2h-25q6 -31 6 -61q0 -52 -18.5 -97t-52 -77.5t-80.5 -51t-103 -18.5h-272q-115 0 -209 44t-159.5 115.5t-101.5 163
t-36 185.5v88h190v-78q0 -70 24 -129t66 -103t96 -69t116 -25h288q64 0 64 48q0 30 -16.5 46.5t-39.5 16.5h-165v190h567v398h192v-240l64 64q71 73 133.5 123.5t122 81t120 44t127.5 13.5q135 0 223.5 -55.5t141.5 -146.5t74.5 -209t21.5 -243v-20h-1341q-10 0 -18 2z" />
    <glyph glyph-name="uniFD0D" unicode="&#xfeb7;&#xfeae;" horiz-adv-x="1802" arabic-form="isolated" 
d="M462 0q-4 -10 -10 -21.5t-12 -21.5l-201 -340l-164 94l207 348q33 54 44 96t11 87q0 172 -156 268l97 170q119 -78 184.5 -187.5t65.5 -232.5v-35.5t-4 -34.5h90q30 0 57 12.5t46.5 33t30.5 47t11 53.5v344h193v-344q0 -39 -7.5 -75t-25.5 -71h67q27 0 53.5 11.5t47 32
t33 47t12.5 55.5v344h190v-344q0 -39 -6 -75t-26 -71h67q57 0 100 43t43 103v344h193v-344q0 -66 -24.5 -126t-68.5 -107.5t-105.5 -75t-135.5 -27.5h-135v100q-98 -100 -238 -100h-133v98q-98 -94 -227 -98h-164zM1087 1008q51 0 81.5 -34t30.5 -79q0 -53 -35.5 -85
t-76.5 -32q-47 0 -81 35t-34 82q0 41 31 77t84 36zM1335 1008q47 0 79.5 -35t32.5 -78q0 -49 -37 -83t-75 -34q-50 0 -83.5 34t-33.5 83q0 43 30.5 78t86.5 35zM1212 1221q47 0 79.5 -35t32.5 -78q0 -49 -36.5 -83t-75.5 -34q-49 0 -83 34t-34 83q0 43 30.5 78t86.5 35z" />
    <glyph glyph-name="uniFD0E" unicode="&#xfeb3;&#xfeae;" horiz-adv-x="1802" arabic-form="isolated" 
d="M462 0q-4 -10 -10 -21.5t-12 -21.5l-201 -340l-164 94l207 348q33 54 44 96t11 87q0 172 -156 268l97 170q119 -78 184.5 -187.5t65.5 -232.5v-35.5t-4 -34.5h90q30 0 57 12.5t46.5 33t30.5 47t11 53.5v344h193v-344q0 -39 -7.5 -75t-25.5 -71h67q27 0 53.5 11.5t47 32
t33 47t12.5 55.5v344h190v-344q0 -39 -6 -75t-26 -71h67q57 0 100 43t43 103v344h193v-344q0 -66 -24.5 -126t-68.5 -107.5t-105.5 -75t-135.5 -27.5h-135v100q-98 -100 -238 -100h-133v98q-98 -94 -227 -98h-164z" />
    <glyph glyph-name="uniFD0F" unicode="&#xfebb;&#xfeae;" horiz-adv-x="2043" arabic-form="isolated" 
d="M1476 481q-129 0 -233.5 -79.5t-208.5 -211.5h708q-12 66 -31.5 119t-50 92t-75.5 59.5t-109 20.5zM462 0q-4 -10 -10 -21.5t-12 -21.5l-201 -340l-164 94l207 348q33 54 44 96t11 87q0 172 -156 268l97 170q119 -78 184.5 -187.5t65.5 -232.5v-35.5t-4 -34.5h201v398
h192v-240l64 64q71 73 133.5 123.5t122 81t120 44t127.5 13.5q135 0 223.5 -55.5t141.5 -146.5t74.5 -209t21.5 -243v-20h-1483z" />
    <glyph glyph-name="uniFD10" unicode="&#xfebf;&#xfeae;" horiz-adv-x="2043" arabic-form="isolated" 
d="M1476 481q-129 0 -233.5 -79.5t-208.5 -211.5h708q-12 66 -31.5 119t-50 92t-75.5 59.5t-109 20.5zM1103 1001q47 0 80 -34.5t33 -77.5q0 -49 -37 -83t-76 -34q-49 0 -82.5 34t-33.5 83q0 43 30.5 77.5t85.5 34.5zM462 0q-4 -10 -10 -21.5t-12 -21.5l-201 -340l-164 94
l207 348q33 54 44 96t11 87q0 172 -156 268l97 170q119 -78 184.5 -187.5t65.5 -232.5v-35.5t-4 -34.5h201v398h192v-240l64 64q71 73 133.5 123.5t122 81t120 44t127.5 13.5q135 0 223.5 -55.5t141.5 -146.5t74.5 -209t21.5 -243v-20h-1483z" />
    <glyph glyph-name="uniFD17" unicode="&#xfeb4;&#xfef0;" horiz-adv-x="2353" arabic-form="final" 
d="M1163 2h-35q6 -31 6 -61q0 -52 -18.5 -97t-52 -77.5t-80.5 -51t-103 -18.5h-272q-115 0 -209 44t-159.5 115.5t-101.5 163t-36 185.5v88h190v-78q0 -70 24 -129t66 -103t96 -69t116 -25h288q64 0 64 48q0 30 -16.5 46.5t-39.5 16.5h-165v190h456q30 0 57 12.5t46.5 33
t30.5 47t11 53.5v344h193v-344q0 -39 -7.5 -75t-25.5 -71h67q27 0 53.5 11.5t47 32t33 47t12.5 55.5v344h190v-344q0 -39 -6 -75t-26 -71h67q57 0 100 43t43 103v344h193v-344q0 -74 -33 -146h127v-190h-190v98q-45 -45 -105.5 -71.5t-132.5 -26.5h-135v100
q-98 -100 -238 -100h-133v98q-102 -98 -239 -98q-10 0 -18 2z" />
    <glyph glyph-name="uniFD18" unicode="&#xfeb4;&#xfef2;" horiz-adv-x="2353" arabic-form="final" 
d="M788 -352q47 0 80 -35t33 -78q0 -49 -37 -83t-76 -34q-49 0 -83 34t-34 83q0 43 31 78t86 35zM540 -352q51 0 82 -34t31 -79q0 -53 -36 -85t-77 -32q-47 0 -80.5 35t-33.5 82q0 41 30.5 77t83.5 36zM1163 2h-35q6 -31 6 -61q0 -52 -18.5 -97t-52 -77.5t-80.5 -51
t-103 -18.5h-272q-115 0 -209 44t-159.5 115.5t-101.5 163t-36 185.5v88h190v-78q0 -70 24 -129t66 -103t96 -69t116 -25h288q64 0 64 48q0 30 -16.5 46.5t-39.5 16.5h-165v190h456q30 0 57 12.5t46.5 33t30.5 47t11 53.5v344h193v-344q0 -39 -7.5 -75t-25.5 -71h67
q27 0 53.5 11.5t47 32t33 47t12.5 55.5v344h190v-344q0 -39 -6 -75t-26 -71h67q57 0 100 43t43 103v344h193v-344q0 -74 -33 -146h127v-190h-190v98q-45 -45 -105.5 -71.5t-132.5 -26.5h-135v100q-98 -100 -238 -100h-133v98q-102 -98 -239 -98q-10 0 -18 2z" />
    <glyph glyph-name="uniFD19" unicode="&#xfeb8;&#xfef0;" horiz-adv-x="2353" arabic-form="final" 
d="M1904 1008q47 0 79.5 -35t32.5 -78q0 -49 -36.5 -83t-75.5 -34q-50 0 -83.5 34t-33.5 83q0 43 30.5 78t86.5 35zM1163 2h-35q6 -31 6 -61q0 -52 -18.5 -97t-52 -77.5t-80.5 -51t-103 -18.5h-272q-115 0 -209 44t-159.5 115.5t-101.5 163t-36 185.5v88h190v-78
q0 -70 24 -129t66 -103t96 -69t116 -25h288q64 0 64 48q0 30 -16.5 46.5t-39.5 16.5h-165v190h456q30 0 57 12.5t46.5 33t30.5 47t11 53.5v344h193v-344q0 -39 -7.5 -75t-25.5 -71h67q27 0 53.5 11.5t47 32t33 47t12.5 55.5v344h190v-344q0 -39 -6 -75t-26 -71h67
q57 0 100 43t43 103v344h193v-344q0 -74 -33 -146h127v-190h-190v98q-45 -45 -105.5 -71.5t-132.5 -26.5h-135v100q-98 -100 -238 -100h-133v98q-102 -98 -239 -98q-10 0 -18 2zM1781 1221q47 0 79.5 -35t32.5 -78q0 -49 -36.5 -83t-75.5 -34q-49 0 -83 34t-34 83
q0 43 30.5 78t86.5 35zM1656 1008q51 0 81.5 -34t30.5 -79q0 -53 -35.5 -85t-76.5 -32q-47 0 -81 35t-34 82q0 41 31 77t84 36z" />
    <glyph glyph-name="uniFD1A" unicode="&#xfeb8;&#xfef2;" horiz-adv-x="2353" arabic-form="final" 
d="M788 -352q47 0 80 -35t33 -78q0 -49 -37 -83t-76 -34q-49 0 -83 34t-34 83q0 43 31 78t86 35zM540 -352q51 0 82 -34t31 -79q0 -53 -36 -85t-77 -32q-47 0 -80.5 35t-33.5 82q0 41 30.5 77t83.5 36zM1904 1008q47 0 79.5 -35t32.5 -78q0 -49 -36.5 -83t-75.5 -34
q-50 0 -83.5 34t-33.5 83q0 43 30.5 78t86.5 35zM1163 2h-35q6 -31 6 -61q0 -52 -18.5 -97t-52 -77.5t-80.5 -51t-103 -18.5h-272q-115 0 -209 44t-159.5 115.5t-101.5 163t-36 185.5v88h190v-78q0 -70 24 -129t66 -103t96 -69t116 -25h288q64 0 64 48q0 30 -16.5 46.5
t-39.5 16.5h-165v190h456q30 0 57 12.5t46.5 33t30.5 47t11 53.5v344h193v-344q0 -39 -7.5 -75t-25.5 -71h67q27 0 53.5 11.5t47 32t33 47t12.5 55.5v344h190v-344q0 -39 -6 -75t-26 -71h67q57 0 100 43t43 103v344h193v-344q0 -74 -33 -146h127v-190h-190v98
q-45 -45 -105.5 -71.5t-132.5 -26.5h-135v100q-98 -100 -238 -100h-133v98q-102 -98 -239 -98q-10 0 -18 2zM1781 1221q47 0 79.5 -35t32.5 -78q0 -49 -36.5 -83t-75.5 -34q-49 0 -83 34t-34 83q0 43 30.5 78t86.5 35zM1656 1008q51 0 81.5 -34t30.5 -79q0 -53 -35.5 -85
t-76.5 -32q-47 0 -81 35t-34 82q0 41 31 77t84 36z" />
    <glyph glyph-name="uniFD21" unicode="&#xfebc;&#xfef0;" horiz-adv-x="2616" arabic-form="final" 
d="M2035 481q-63 0 -118.5 -19.5t-107.5 -56t-105.5 -91t-110.5 -124.5h708q-12 66 -31.5 119t-50 92t-75.5 59.5t-109 20.5zM1143 2h-15q6 -31 6 -61q0 -52 -18.5 -97t-52 -77.5t-80.5 -51t-103 -18.5h-272q-115 0 -209 44t-159.5 115.5t-101.5 163t-36 185.5v88h190v-78
q0 -70 24 -129t66 -103t96 -69t116 -25h288q64 0 64 48q0 30 -16.5 46.5t-39.5 16.5h-165v190h559v398h192v-240l64 64q71 73 133.5 123.5t122 81t119 44t124.5 13.5q113 0 193 -37t132 -101.5t83 -152.5t49 -193h121v-190h-1456q-10 0 -18 2z" />
    <glyph glyph-name="uniFD22" unicode="&#xfebc;&#xfef2;" horiz-adv-x="2616" arabic-form="final" 
d="M788 -352q47 0 80 -35t33 -78q0 -49 -37 -83t-76 -34q-49 0 -83 34t-34 83q0 43 31 78t86 35zM540 -352q51 0 82 -34t31 -79q0 -53 -36 -85t-77 -32q-47 0 -80.5 35t-33.5 82q0 41 30.5 77t83.5 36zM2035 481q-63 0 -118.5 -19.5t-107.5 -56t-105.5 -91t-110.5 -124.5
h708q-12 66 -31.5 119t-50 92t-75.5 59.5t-109 20.5zM1143 2h-15q6 -31 6 -61q0 -52 -18.5 -97t-52 -77.5t-80.5 -51t-103 -18.5h-272q-115 0 -209 44t-159.5 115.5t-101.5 163t-36 185.5v88h190v-78q0 -70 24 -129t66 -103t96 -69t116 -25h288q64 0 64 48q0 30 -16.5 46.5
t-39.5 16.5h-165v190h559v398h192v-240l64 64q71 73 133.5 123.5t122 81t119 44t124.5 13.5q113 0 193 -37t132 -101.5t83 -152.5t49 -193h121v-190h-1456q-10 0 -18 2z" />
    <glyph glyph-name="uniFD23" unicode="&#xfec0;&#xfef0;" horiz-adv-x="2616" arabic-form="final" 
d="M2035 481q-63 0 -118.5 -19.5t-107.5 -56t-105.5 -91t-110.5 -124.5h708q-12 66 -31.5 119t-50 92t-75.5 59.5t-109 20.5zM1648 1004q47 0 80 -35t33 -78q0 -49 -37 -83t-76 -34q-49 0 -83 34t-34 83q0 43 31 78t86 35zM1143 2h-15q6 -31 6 -61q0 -52 -18.5 -97
t-52 -77.5t-80.5 -51t-103 -18.5h-272q-115 0 -209 44t-159.5 115.5t-101.5 163t-36 185.5v88h190v-78q0 -70 24 -129t66 -103t96 -69t116 -25h288q64 0 64 48q0 30 -16.5 46.5t-39.5 16.5h-165v190h559v398h192v-240l64 64q71 73 133.5 123.5t122 81t119 44t124.5 13.5
q113 0 193 -37t132 -101.5t83 -152.5t49 -193h121v-190h-1456q-10 0 -18 2z" />
    <glyph glyph-name="uniFD24" unicode="&#xfec0;&#xfef2;" horiz-adv-x="2616" arabic-form="final" 
d="M788 -352q47 0 80 -35t33 -78q0 -49 -37 -83t-76 -34q-49 0 -83 34t-34 83q0 43 31 78t86 35zM540 -352q51 0 82 -34t31 -79q0 -53 -36 -85t-77 -32q-47 0 -80.5 35t-33.5 82q0 41 30.5 77t83.5 36zM2035 481q-63 0 -118.5 -19.5t-107.5 -56t-105.5 -91t-110.5 -124.5
h708q-12 66 -31.5 119t-50 92t-75.5 59.5t-109 20.5zM1648 1004q47 0 80 -35t33 -78q0 -49 -37 -83t-76 -34q-49 0 -83 34t-34 83q0 43 31 78t86 35zM1143 2h-15q6 -31 6 -61q0 -52 -18.5 -97t-52 -77.5t-80.5 -51t-103 -18.5h-272q-115 0 -209 44t-159.5 115.5t-101.5 163
t-36 185.5v88h190v-78q0 -70 24 -129t66 -103t96 -69t116 -25h288q64 0 64 48q0 30 -16.5 46.5t-39.5 16.5h-165v190h559v398h192v-240l64 64q71 73 133.5 123.5t122 81t119 44t124.5 13.5q113 0 193 -37t132 -101.5t83 -152.5t49 -193h121v-190h-1456q-10 0 -18 2z" />
    <glyph glyph-name="uniFD29" unicode="&#xfeb8;&#xfeae;" horiz-adv-x="1787" arabic-form="final" 
d="M1337 1008q47 0 79.5 -35t32.5 -78q0 -49 -36.5 -83t-75.5 -34q-50 0 -83.5 34t-33.5 83q0 43 30.5 78t86.5 35zM462 0q-4 -10 -10 -21.5t-12 -21.5l-201 -340l-164 94l207 348q33 54 44 96t11 87q0 172 -156 268l97 170q119 -78 184.5 -187.5t65.5 -232.5v-35.5
t-4 -34.5h90q30 0 57 12.5t46.5 33t30.5 47t11 53.5v344h193v-344q0 -39 -7.5 -75t-25.5 -71h67q27 0 53.5 11.5t47 32t33 47t12.5 55.5v344h190v-344q0 -39 -6 -75t-26 -71h67q57 0 100 43t43 103v344h193v-344q0 -74 -33 -146h127v-190h-190v98q-45 -45 -105.5 -71.5
t-132.5 -26.5h-135v100q-98 -100 -238 -100h-133v98q-98 -94 -227 -98h-164zM1214 1221q47 0 79.5 -35t32.5 -78q0 -49 -36.5 -83t-75.5 -34q-49 0 -83 34t-34 83q0 43 30.5 78t86.5 35zM1089 1008q51 0 81.5 -34t30.5 -79q0 -53 -35.5 -85t-76.5 -32q-47 0 -81 35t-34 82
q0 41 31 77t84 36z" />
    <glyph glyph-name="uniFD2A" unicode="&#xfeb4;&#xfeae;" horiz-adv-x="1787" arabic-form="final" 
d="M462 0q-4 -10 -10 -21.5t-12 -21.5l-201 -340l-164 94l207 348q33 54 44 96t11 87q0 172 -156 268l97 170q119 -78 184.5 -187.5t65.5 -232.5v-35.5t-4 -34.5h90q30 0 57 12.5t46.5 33t30.5 47t11 53.5v344h193v-344q0 -39 -7.5 -75t-25.5 -71h67q27 0 53.5 11.5t47 32
t33 47t12.5 55.5v344h190v-344q0 -39 -6 -75t-26 -71h67q57 0 100 43t43 103v344h193v-344q0 -74 -33 -146h127v-190h-190v98q-45 -45 -105.5 -71.5t-132.5 -26.5h-135v100q-98 -100 -238 -100h-133v98q-98 -94 -227 -98h-164z" />
    <glyph glyph-name="uniFD2B" unicode="&#xfebc;&#xfeae;" horiz-adv-x="2059" arabic-form="final" 
d="M1478 481q-63 0 -118.5 -19.5t-107.5 -56t-105.5 -91t-110.5 -124.5h708q-12 66 -31.5 119t-50 92t-75.5 59.5t-109 20.5zM462 0q-4 -10 -10 -21.5t-12 -21.5l-201 -340l-164 94l207 348q33 54 44 96t11 87q0 172 -156 268l97 170q119 -78 184.5 -187.5t65.5 -232.5
v-35.5t-4 -34.5h203v398h192v-240l64 64q71 73 133.5 123.5t122 81t119 44t124.5 13.5q113 0 193 -37t132 -101.5t83 -152.5t49 -193h121v-190h-1598z" />
    <glyph glyph-name="uniFD2C" unicode="&#xfec0;&#xfeae;" horiz-adv-x="2060" arabic-form="final" 
d="M1478 481q-63 0 -118.5 -19.5t-107.5 -56t-105.5 -91t-110.5 -124.5h708q-12 66 -31.5 119t-50 92t-75.5 59.5t-109 20.5zM1091 1004q47 0 80 -35t33 -78q0 -49 -37 -83t-76 -34q-49 0 -83 34t-34 83q0 43 31 78t86 35zM462 0q-4 -10 -10 -21.5t-12 -21.5l-201 -340
l-164 94l207 348q33 54 44 96t11 87q0 172 -156 268l97 170q119 -78 184.5 -187.5t65.5 -232.5v-35.5t-4 -34.5h203v398h192v-240l64 64q71 73 133.5 123.5t122 81t119 44t124.5 13.5q113 0 193 -37t132 -101.5t83 -152.5t49 -193h121v-190h-1598z" />
    <glyph glyph-name="uniFEF5" unicode="&#xfedf;&#xfe82;" horiz-adv-x="862" arabic-form="isolated" 
d="M545 238q38 45 38 98v827h193v-827q0 -72 -27.5 -132.5t-73.5 -106.5t-106.5 -71.5t-128.5 -25.5h-283v190h201l-264 748l184 51zM416 1077q-48 -28 -93 -28q-36 0 -71 17t-70 17q-45 0 -86 -26v63q43 29 90 29q33 0 68 -16.5t69 -16.5q45 0 93 29v-68z" />
    <glyph glyph-name="uniFEF6" unicode="&#xfee0;&#xfe82;" horiz-adv-x="884" arabic-form="final" 
d="M416 1077q-48 -28 -93 -28q-36 0 -71 17t-70 17q-45 0 -86 -26v63q43 29 90 29q33 0 68 -16.5t69 -16.5q45 0 93 29v-68zM545 238q38 45 38 98v827h193v-827q0 -80 -35 -146h144v-190h-207v98q-47 -47 -108.5 -72.5t-129.5 -25.5h-283v190h201l-264 748l184 51z" />
    <glyph glyph-name="uniFEF7" unicode="&#xfedf;&#xfe84;" horiz-adv-x="876" arabic-form="isolated" 
d="M549 238q39 45 39 98v827h192v-827q0 -72 -27.5 -132.5t-73.5 -106.5t-106.5 -71.5t-128.5 -25.5h-282v190h200l-264 748l184 51zM145 1079q-10 17 -10 45q0 50 30.5 74.5t69.5 24.5q23 0 44.5 -9.5t37.5 -31.5l-41 -41q-12 24 -41 24q-18 0 -30.5 -11t-12.5 -30
q0 -45 45 -45h101v-59h-244v59h51z" />
    <glyph glyph-name="uniFEF8" unicode="&#xfee0;&#xfe84;" horiz-adv-x="884" arabic-form="final" 
d="M545 238q38 45 38 98v827h193v-827q0 -80 -35 -146h144v-190h-207v98q-47 -47 -108.5 -72.5t-129.5 -25.5h-283v190h201l-264 748l184 51zM145 1079q-10 17 -10 45q0 50 30.5 74.5t69.5 24.5q23 0 44.5 -9.5t37.5 -31.5l-41 -41q-12 24 -41 24q-18 0 -30.5 -11t-12.5 -30
q0 -45 45 -45h101v-59h-244v59h51z" />
    <glyph glyph-name="uniFEF9" unicode="&#xfedf;&#xfe88;" horiz-adv-x="874" arabic-form="isolated" 
d="M545 238q38 45 38 98v827h193v-827q0 -72 -27.5 -132.5t-73.5 -106.5t-106.5 -71.5t-128.5 -25.5h-283v190h201l-264 748l184 51zM211 -180q-11 16 -11 45q0 49 31 73.5t70 24.5q22 0 43.5 -9t38.5 -32l-41 -41q-12 25 -41 25q-19 0 -31 -11.5t-12 -29.5q0 -45 45 -45
h100v-60h-243v60h51z" />
    <glyph glyph-name="uniFEFA" unicode="&#xfee0;&#xfe88;" horiz-adv-x="884" arabic-form="final" 
d="M545 238q38 45 38 98v827h193v-827q0 -80 -35 -146h144v-190h-207v98q-47 -47 -108.5 -72.5t-129.5 -25.5h-283v190h201l-264 748l184 51zM209 -180q-11 16 -11 45q0 49 31 73.5t70 24.5q22 0 43.5 -9t38.5 -32l-41 -41q-13 25 -41 25q-19 0 -31 -11.5t-12 -29.5
q0 -45 45 -45h100v-60h-244v60h52z" />
    <glyph glyph-name="uniFEFB" unicode="&#xfedf;&#xfe8e;" horiz-adv-x="874" arabic-form="isolated" 
d="M545 238q38 45 38 98v827h193v-827q0 -72 -27.5 -132.5t-73.5 -106.5t-106.5 -71.5t-128.5 -25.5h-283v190h201l-264 748l184 51z" />
    <glyph glyph-name="uniFEFC" unicode="&#xfee0;&#xfe8e;" horiz-adv-x="884" arabic-form="final" 
d="M545 238q38 45 38 98v827h193v-827q0 -80 -35 -146h144v-190h-207v98q-47 -47 -108.5 -72.5t-129.5 -25.5h-283v190h201l-264 748l184 51z" />
    <glyph glyph-name="uniFE8B_uniFEE4.liga" unicode="&#xfe8b;&#xfee4;" horiz-adv-x="1317" 
d="M298 229q0 -59 38.5 -101t104.5 -42q59 0 102 42t43 101q0 60 -43 103t-102 43t-101 -43t-42 -103zM683 0q-45 -47 -106.5 -74.5t-133.5 -27.5t-133.5 27.5t-106.5 74.5h-202q-37 0 -54.5 29.5t-17.5 64.5t17.5 65.5t54.5 30.5h110q-2 11 -2 21v20q0 70 26.5 130.5
t72 105.5t105.5 71.5t130 26.5t130.5 -26.5t105.5 -71.5t71.5 -105.5t26.5 -130.5v-20t-2 -21h102h4q51 7 92 46.5t41 99.5v344h190v-344q0 -76 -28.5 -137.5t-74.5 -105.5t-104.5 -68.5t-115.5 -24.5h-198zM963 846q-12 20 -12 55q0 62 37.5 92.5t84.5 30.5
q29 0 55.5 -11.5t49.5 -39.5l-51 -51q-19 30 -54 30q-51 0 -51 -51q0 -24 14.5 -39.5t41.5 -15.5h124v-74h-303v74h64z" />
    <glyph glyph-name="uniFE8B_uniFEF0.liga" unicode="&#xfe8b;&#xfef0;" horiz-adv-x="1590" 
d="M1253 846q-12 20 -12 55q0 62 37.5 92.5t84.5 30.5q29 0 55.5 -11.5t49.5 -39.5l-51 -51q-19 30 -54 30q-51 0 -51 -51q0 -24 14.5 -39.5t41.5 -15.5h124v-74h-303v74h64zM1144 2h-16q6 -31 6 -61q0 -52 -18.5 -97t-52 -77.5t-80.5 -51t-103 -18.5h-272q-115 0 -209 44
t-159.5 115.5t-101.5 163t-36 185.5v88h190v-78q0 -70 24 -129t66 -103t96 -69t116 -25h288q64 0 64 48q0 30 -16.5 46.5t-39.5 16.5h-165v190h436q51 7 92 46.5t41 99.5v344h190v-344q0 -76 -28.5 -137.5t-74.5 -105.5t-104.5 -68.5t-115.5 -24.5q-9 0 -17 2z" />
    <glyph glyph-name="uniFE8B_uniFEF2.liga" unicode="&#xfe8b;&#xfef2;" horiz-adv-x="1590" 
d="M788 -352q47 0 80 -35t33 -78q0 -49 -37 -83t-76 -34q-49 0 -83 34t-34 83q0 43 31 78t86 35zM540 -352q51 0 82 -34t31 -79q0 -53 -36 -85t-77 -32q-47 0 -80.5 35t-33.5 82q0 41 30.5 77t83.5 36zM1253 846q-12 20 -12 55q0 62 37.5 92.5t84.5 30.5q29 0 55.5 -11.5
t49.5 -39.5l-51 -51q-19 30 -54 30q-51 0 -51 -51q0 -24 14.5 -39.5t41.5 -15.5h124v-74h-303v74h64zM1144 2h-16q6 -31 6 -61q0 -52 -18.5 -97t-52 -77.5t-80.5 -51t-103 -18.5h-272q-115 0 -209 44t-159.5 115.5t-101.5 163t-36 185.5v88h190v-78q0 -70 24 -129t66 -103
t96 -69t116 -25h288q64 0 64 48q0 30 -16.5 46.5t-39.5 16.5h-165v190h436q51 7 92 46.5t41 99.5v344h190v-344q0 -76 -28.5 -137.5t-74.5 -105.5t-104.5 -68.5t-115.5 -24.5q-9 0 -17 2z" />
    <glyph glyph-name="uniFE91_uniFEE4.liga" unicode="&#xfe91;&#xfee4;" horiz-adv-x="1317" 
d="M298 229q0 -59 38.5 -101t104.5 -42q59 0 102 42t43 101q0 60 -43 103t-102 43t-101 -43t-42 -103zM1071 -322q-45 0 -80 32t-35 83q0 49 34 82t81 33t81 -34t34 -81q0 -49 -34 -82t-81 -33zM683 0q-45 -47 -106.5 -74.5t-133.5 -27.5t-133.5 27.5t-106.5 74.5h-202
q-37 0 -54.5 29.5t-17.5 64.5t17.5 65.5t54.5 30.5h110q-2 11 -2 21v20q0 70 26.5 130.5t72 105.5t105.5 71.5t130 26.5t130.5 -26.5t105.5 -71.5t71.5 -105.5t26.5 -130.5v-20t-2 -21h102h4q51 7 92 46.5t41 99.5v344h190v-344q0 -76 -28.5 -137.5t-74.5 -105.5
t-104.5 -68.5t-115.5 -24.5h-198z" />
    <glyph glyph-name="uniFE92_uniFEE6.liga" unicode="&#xfe92;&#xfee6;" horiz-adv-x="1678" 
d="M612 57q-50 0 -81.5 34t-31.5 81t31.5 81t81.5 34q51 0 82.5 -34t31.5 -81t-33.5 -81t-80.5 -34zM1074 0q-24 -68 -66 -126t-101.5 -101t-136.5 -67.5t-171 -24.5q-76 0 -161 28.5t-155.5 88t-116.5 151.5t-46 219q0 98 33 186t96.5 156t154.5 110t205 48v-191
q-61 -4 -115.5 -27.5t-94 -63.5t-62 -96.5t-22.5 -125.5q0 -72 23.5 -127t65.5 -92t96 -56.5t116 -19.5q59 0 113.5 22.5t96.5 66.5t66.5 106.5t24.5 142.5v469h192v-486h98v-1q2 1 4 1q51 7 92 46.5t41 99.5v344h192v-344q0 -80 -32 -146h174v-190h-240v100
q-49 -51 -108.5 -75.5t-118.5 -24.5h-137zM1385 -322q-47 0 -81 34t-34 81t34 81t81 34t80.5 -34t33.5 -81t-33.5 -81t-80.5 -34z" />
    <glyph glyph-name="uniFE91_uniFEF0.liga" unicode="&#xfe91;&#xfef0;" horiz-adv-x="1614" 
d="M1164 2h-36q6 -31 6 -61q0 -52 -18.5 -97t-52 -77.5t-80.5 -51t-103 -18.5h-272q-115 0 -209 44t-159.5 115.5t-101.5 163t-36 185.5v88h190v-78q0 -70 24 -129t66 -103t96 -69t116 -25h288q64 0 64 48q0 30 -16.5 46.5t-39.5 16.5h-165v190h456q51 7 92 46.5t41 99.5
v344h190v-344q0 -76 -28.5 -137.5t-74.5 -105.5t-104.5 -68.5t-115.5 -24.5q-9 0 -17 2zM1371 -322q-45 0 -80 32t-35 83q0 49 34 82t81 33t81 -34t34 -81q0 -49 -34 -82t-81 -33z" />
    <glyph glyph-name="uniFE91_uniFEF2.liga" unicode="&#xfe91;&#xfef2;" horiz-adv-x="1614" 
d="M788 -352q47 0 80 -35t33 -78q0 -49 -37 -83t-76 -34q-49 0 -83 34t-34 83q0 43 31 78t86 35zM1164 2h-36q6 -31 6 -61q0 -52 -18.5 -97t-52 -77.5t-80.5 -51t-103 -18.5h-272q-115 0 -209 44t-159.5 115.5t-101.5 163t-36 185.5v88h190v-78q0 -70 24 -129t66 -103
t96 -69t116 -25h288q64 0 64 48q0 30 -16.5 46.5t-39.5 16.5h-165v190h456q51 7 92 46.5t41 99.5v344h190v-344q0 -76 -28.5 -137.5t-74.5 -105.5t-104.5 -68.5t-115.5 -24.5q-9 0 -17 2zM1371 -322q-45 0 -80 32t-35 83q0 49 34 82t81 33t81 -34t34 -81q0 -49 -34 -82
t-81 -33zM540 -352q51 0 82 -34t31 -79q0 -53 -36 -85t-77 -32q-47 0 -80.5 35t-33.5 82q0 41 30.5 77t83.5 36z" />
    <glyph glyph-name="uniFE97_uniFEE4.liga" unicode="&#xfe97;&#xfee4;" horiz-adv-x="1350" 
d="M298 229q0 -59 38.5 -101t104.5 -42q59 0 102 42t43 101q0 60 -43 103t-102 43t-101 -43t-42 -103zM1235 999q47 0 80 -34.5t33 -77.5q0 -49 -37 -83t-76 -34q-49 0 -83 34t-34 83q0 43 31 77.5t86 34.5zM683 0q-45 -47 -106.5 -74.5t-133.5 -27.5t-133.5 27.5
t-106.5 74.5h-202q-37 0 -54.5 29.5t-17.5 64.5t17.5 65.5t54.5 30.5h110q-2 11 -2 21v20q0 70 26.5 130.5t72 105.5t105.5 71.5t130 26.5t130.5 -26.5t105.5 -71.5t71.5 -105.5t26.5 -130.5v-20t-2 -21h102h4q51 7 92 46.5t41 99.5v344h190v-344q0 -76 -28.5 -137.5
t-74.5 -105.5t-104.5 -68.5t-115.5 -24.5h-198zM987 999q51 0 82 -33.5t31 -78.5q0 -53 -36 -85t-77 -32q-47 0 -81 35t-34 82q0 41 31 76.5t84 35.5z" />
    <glyph glyph-name="uniFE98_uniFEE6.liga" unicode="&#xfe98;&#xfee6;" horiz-adv-x="1658" 
d="M612 57q-50 0 -81.5 34t-31.5 81t31.5 81t81.5 34q51 0 82.5 -34t31.5 -81t-33.5 -81t-80.5 -34zM1074 0q-24 -68 -66 -126t-101.5 -101t-136.5 -67.5t-171 -24.5q-76 0 -161 28.5t-155.5 88t-116.5 151.5t-46 219q0 98 33 186t96.5 156t154.5 110t205 48v-191
q-61 -4 -115.5 -27.5t-94 -63.5t-62 -96.5t-22.5 -125.5q0 -72 23.5 -127t65.5 -92t96 -56.5t116 -19.5q59 0 113.5 22.5t96.5 66.5t66.5 106.5t24.5 142.5v469h192v-486h82q51 7 92 46.5t41 99.5v344h192v-344q0 -80 -32 -146h174v-190h-240v100q-49 -51 -108 -75
q-52 -22 -103 -25h-133zM1291 999q51 0 82 -33.5t31 -78.5q0 -53 -36 -85t-77 -32q-47 0 -81 35t-34 82q0 41 31 76.5t84 35.5zM1539 999q47 0 79.5 -34.5t32.5 -77.5q0 -49 -36.5 -83t-75.5 -34q-49 0 -83 34t-34 83q0 43 31 77.5t86 34.5z" />
    <glyph glyph-name="uniFE97_uniFEF0.liga" unicode="&#xfe97;&#xfef0;" horiz-adv-x="1648" 
d="M1535 999q47 0 80 -34.5t33 -77.5q0 -49 -37 -83t-76 -34q-49 0 -83 34t-34 83q0 43 31 77.5t86 34.5zM1164 2h-36q6 -31 6 -61q0 -52 -18.5 -97t-52 -77.5t-80.5 -51t-103 -18.5h-272q-115 0 -209 44t-159.5 115.5t-101.5 163t-36 185.5v88h190v-78q0 -70 24 -129
t66 -103t96 -69t116 -25h288q64 0 64 48q0 30 -16.5 46.5t-39.5 16.5h-165v190h456q51 7 92 46.5t41 99.5v344h190v-344q0 -76 -28.5 -137.5t-74.5 -105.5t-104.5 -68.5t-115.5 -24.5q-9 0 -17 2zM1287 999q51 0 82 -33.5t31 -78.5q0 -53 -36 -85t-77 -32q-47 0 -81 35
t-34 82q0 41 31 76.5t84 35.5z" />
    <glyph glyph-name="uniFE97_uniFEF2.liga" unicode="&#xfe97;&#xfef2;" horiz-adv-x="1648" 
d="M788 -352q47 0 80 -35t33 -78q0 -49 -37 -83t-76 -34q-49 0 -83 34t-34 83q0 43 31 78t86 35zM540 -352q51 0 82 -34t31 -79q0 -53 -36 -85t-77 -32q-47 0 -80.5 35t-33.5 82q0 41 30.5 77t83.5 36zM1535 999q47 0 80 -34.5t33 -77.5q0 -49 -37 -83t-76 -34q-49 0 -83 34
t-34 83q0 43 31 77.5t86 34.5zM1164 2h-36q6 -31 6 -61q0 -52 -18.5 -97t-52 -77.5t-80.5 -51t-103 -18.5h-272q-115 0 -209 44t-159.5 115.5t-101.5 163t-36 185.5v88h190v-78q0 -70 24 -129t66 -103t96 -69t116 -25h288q64 0 64 48q0 30 -16.5 46.5t-39.5 16.5h-165v190
h456q51 7 92 46.5t41 99.5v344h190v-344q0 -76 -28.5 -137.5t-74.5 -105.5t-104.5 -68.5t-115.5 -24.5q-9 0 -17 2zM1287 999q51 0 82 -33.5t31 -78.5q0 -53 -36 -85t-77 -32q-47 0 -81 35t-34 82q0 41 31 76.5t84 35.5z" />
    <glyph glyph-name="uniFE9C_uniFEAE.liga" unicode="&#xfe9c;&#xfeae;" horiz-adv-x="1081" 
d="M839 1212q47 0 80 -34.5t33 -77.5q0 -49 -37 -83t-76 -34q-49 0 -83 34t-34 83q0 43 31 77.5t86 34.5zM962 999q47 0 79.5 -34.5t32.5 -77.5q0 -49 -36.5 -83t-75.5 -34q-49 0 -83 34t-34 83q0 43 31 77.5t86 34.5zM462 0q-4 -10 -10 -21.5t-12 -21.5l-201 -340l-164 94
l207 348q33 54 44 96t11 87q0 172 -156 268l97 170q119 -78 184.5 -187.5t65.5 -232.5v-35.5t-4 -34.5h90q51 7 92 46.5t41 99.5v344h192v-344q0 -80 -32 -146h174v-190h-240v100q-49 -51 -108 -75q-54 -23 -107 -25h-164zM714 999q51 0 82 -33.5t31 -78.5q0 -53 -36 -85
t-77 -32q-47 0 -81 35t-34 82q0 41 31 76.5t84 35.5z" />
    <glyph glyph-name="uniFE9B_uniFEE4.liga" unicode="&#xfe9b;&#xfee4;" horiz-adv-x="1350" 
d="M298 229q0 -59 38.5 -101t104.5 -42q59 0 102 42t43 101q0 60 -43 103t-102 43t-101 -43t-42 -103zM1235 999q47 0 80 -34.5t33 -77.5q0 -49 -37 -83t-76 -34q-49 0 -83 34t-34 83q0 43 31 77.5t86 34.5zM683 0q-45 -47 -106.5 -74.5t-133.5 -27.5t-133.5 27.5
t-106.5 74.5h-202q-37 0 -54.5 29.5t-17.5 64.5t17.5 65.5t54.5 30.5h110q-2 11 -2 21v20q0 70 26.5 130.5t72 105.5t105.5 71.5t130 26.5t130.5 -26.5t105.5 -71.5t71.5 -105.5t26.5 -130.5v-20t-2 -21h102h4q51 7 92 46.5t41 99.5v344h190v-344q0 -76 -28.5 -137.5
t-74.5 -105.5t-104.5 -68.5t-115.5 -24.5h-198zM1112 1212q47 0 80 -34.5t33 -77.5q0 -49 -37 -83t-76 -34q-49 0 -83 34t-34 83q0 43 31 77.5t86 34.5zM987 999q51 0 82 -33.5t31 -78.5q0 -53 -36 -85t-77 -32q-47 0 -81 35t-34 82q0 41 31 76.5t84 35.5z" />
    <glyph glyph-name="uniFE9C_uniFEE6.liga" unicode="&#xfe9c;&#xfee6;" horiz-adv-x="1658" 
d="M612 57q-50 0 -81.5 34t-31.5 81t31.5 81t81.5 34q51 0 82.5 -34t31.5 -81t-33.5 -81t-80.5 -34zM1074 0q-24 -68 -66 -126t-101.5 -101t-136.5 -67.5t-171 -24.5q-76 0 -161 28.5t-155.5 88t-116.5 151.5t-46 219q0 98 33 186t96.5 156t154.5 110t205 48v-191
q-61 -4 -115.5 -27.5t-94 -63.5t-62 -96.5t-22.5 -125.5q0 -72 23.5 -127t65.5 -92t96 -56.5t116 -19.5q59 0 113.5 22.5t96.5 66.5t66.5 106.5t24.5 142.5v469h192v-486h82q51 7 92 46.5t41 99.5v344h192v-344q0 -80 -32 -146h174v-190h-240v100q-49 -51 -108 -75
q-52 -22 -103 -25h-133zM1416 1212q47 0 80 -34.5t33 -77.5q0 -49 -37 -83t-76 -34q-49 0 -83 34t-34 83q0 43 31 77.5t86 34.5zM1291 999q51 0 82 -33.5t31 -78.5q0 -53 -36 -85t-77 -32q-47 0 -81 35t-34 82q0 41 31 76.5t84 35.5zM1539 999q47 0 79.5 -34.5t32.5 -77.5
q0 -49 -36.5 -83t-75.5 -34q-49 0 -83 34t-34 83q0 43 31 77.5t86 34.5z" />
    <glyph glyph-name="uniFE9B_uniFEF0.liga" unicode="&#xfe9b;&#xfef0;" horiz-adv-x="1648" 
d="M1535 999q47 0 80 -34.5t33 -77.5q0 -49 -37 -83t-76 -34q-49 0 -83 34t-34 83q0 43 31 77.5t86 34.5zM1164 2h-36q6 -31 6 -61q0 -52 -18.5 -97t-52 -77.5t-80.5 -51t-103 -18.5h-272q-115 0 -209 44t-159.5 115.5t-101.5 163t-36 185.5v88h190v-78q0 -70 24 -129
t66 -103t96 -69t116 -25h288q64 0 64 48q0 30 -16.5 46.5t-39.5 16.5h-165v190h456q51 7 92 46.5t41 99.5v344h190v-344q0 -76 -28.5 -137.5t-74.5 -105.5t-104.5 -68.5t-115.5 -24.5q-9 0 -17 2zM1412 1212q47 0 80 -34.5t33 -77.5q0 -49 -37 -83t-76 -34q-49 0 -83 34
t-34 83q0 43 31 77.5t86 34.5zM1287 999q51 0 82 -33.5t31 -78.5q0 -53 -36 -85t-77 -32q-47 0 -81 35t-34 82q0 41 31 76.5t84 35.5z" />
    <glyph glyph-name="uniFE9B_uniFEF2.liga" unicode="&#xfe9b;&#xfef2;" horiz-adv-x="1648" 
d="M788 -352q47 0 80 -35t33 -78q0 -49 -37 -83t-76 -34q-49 0 -83 34t-34 83q0 43 31 78t86 35zM540 -352q51 0 82 -34t31 -79q0 -53 -36 -85t-77 -32q-47 0 -80.5 35t-33.5 82q0 41 30.5 77t83.5 36zM1535 999q47 0 80 -34.5t33 -77.5q0 -49 -37 -83t-76 -34q-49 0 -83 34
t-34 83q0 43 31 77.5t86 34.5zM1164 2h-36q6 -31 6 -61q0 -52 -18.5 -97t-52 -77.5t-80.5 -51t-103 -18.5h-272q-115 0 -209 44t-159.5 115.5t-101.5 163t-36 185.5v88h190v-78q0 -70 24 -129t66 -103t96 -69t116 -25h288q64 0 64 48q0 30 -16.5 46.5t-39.5 16.5h-165v190
h456q51 7 92 46.5t41 99.5v344h190v-344q0 -76 -28.5 -137.5t-74.5 -105.5t-104.5 -68.5t-115.5 -24.5q-9 0 -17 2zM1412 1212q47 0 80 -34.5t33 -77.5q0 -49 -37 -83t-76 -34q-49 0 -83 34t-34 83q0 43 31 77.5t86 34.5zM1287 999q51 0 82 -33.5t31 -78.5q0 -53 -36 -85
t-77 -32q-47 0 -81 35t-34 82q0 41 31 76.5t84 35.5z" />
    <glyph glyph-name="uniFEDB_uniFEF0.liga" unicode="&#xfedb;&#xfef0;" horiz-adv-x="2097" 
d="M1133 2h-5q6 -31 6 -61q0 -52 -18.5 -97t-52 -77.5t-80.5 -51t-103 -18.5h-272q-115 0 -209 44t-159.5 115.5t-101.5 163t-36 185.5v88h190v-78q0 -70 24 -129t66 -103t96 -69t116 -25h288q64 0 64 48q0 30 -16.5 46.5t-39.5 16.5h-165v190h917q78 0 121 38t43 104
q0 69 -42 107t-110 38h-403v150l526 526l140 -135l-351 -348h78q72 0 136.5 -22.5t112.5 -65.5t76 -105.5t28 -142.5t-29 -142.5t-76 -104.5t-110.5 -64.5t-131.5 -22.5h-499q-10 0 -18 2z" />
    <glyph glyph-name="uniFEDC_uniFEF0.liga" unicode="&#xfedc;&#xfef0;" horiz-adv-x="2124" 
d="M1143 2h-15q6 -31 6 -61q0 -52 -18.5 -97t-52 -77.5t-80.5 -51t-103 -18.5h-272q-115 0 -209 44t-159.5 115.5t-101.5 163t-36 185.5v88h190v-78q0 -70 24 -129t66 -103t96 -69t116 -25h288q64 0 64 48q0 30 -16.5 46.5t-39.5 16.5h-165v190h927q78 0 121 38t43 104
q0 69 -42 107t-110 38h-403v150l526 526l140 -135l-351 -348h78q72 0 136.5 -22.5t112.5 -65.5t76 -105.5t28 -142.5t-29 -144h147v-190h-219v90q-49 -45 -112.5 -67.5t-133.5 -22.5h-499q-10 0 -18 2z" />
    <glyph glyph-name="uniFEDB_uniFEF2.liga" unicode="&#xfedb;&#xfef2;" horiz-adv-x="2097" 
d="M788 -352q47 0 80 -35t33 -78q0 -49 -37 -83t-76 -34q-49 0 -83 34t-34 83q0 43 31 78t86 35zM540 -352q51 0 82 -34t31 -79q0 -53 -36 -85t-77 -32q-47 0 -80.5 35t-33.5 82q0 41 30.5 77t83.5 36zM1133 2h-5q6 -31 6 -61q0 -52 -18.5 -97t-52 -77.5t-80.5 -51
t-103 -18.5h-272q-115 0 -209 44t-159.5 115.5t-101.5 163t-36 185.5v88h190v-78q0 -70 24 -129t66 -103t96 -69t116 -25h288q64 0 64 48q0 30 -16.5 46.5t-39.5 16.5h-165v190h917q78 0 121 38t43 104q0 69 -42 107t-110 38h-403v150l526 526l140 -135l-351 -348h78
q72 0 136.5 -22.5t112.5 -65.5t76 -105.5t28 -142.5t-29 -142.5t-76 -104.5t-110.5 -64.5t-131.5 -22.5h-499q-10 0 -18 2z" />
    <glyph glyph-name="uniFEDC_uniFEF2.liga" unicode="&#xfedc;&#xfef2;" horiz-adv-x="2124" 
d="M788 -352q47 0 80 -35t33 -78q0 -49 -37 -83t-76 -34q-49 0 -83 34t-34 83q0 43 31 78t86 35zM540 -352q51 0 82 -34t31 -79q0 -53 -36 -85t-77 -32q-47 0 -80.5 35t-33.5 82q0 41 30.5 77t83.5 36zM1143 2h-15q6 -31 6 -61q0 -52 -18.5 -97t-52 -77.5t-80.5 -51
t-103 -18.5h-272q-115 0 -209 44t-159.5 115.5t-101.5 163t-36 185.5v88h190v-78q0 -70 24 -129t66 -103t96 -69t116 -25h288q64 0 64 48q0 30 -16.5 46.5t-39.5 16.5h-165v190h927q78 0 121 38t43 104q0 69 -42 107t-110 38h-403v150l526 526l140 -135l-351 -348h78
q72 0 136.5 -22.5t112.5 -65.5t76 -105.5t28 -142.5t-29 -144h147v-190h-219v90q-49 -45 -112.5 -67.5t-133.5 -22.5h-499q-10 0 -18 2z" />
    <glyph glyph-name="uniFEDF_uniFB51.rlig" unicode="&#xfedf;&#xfb51;" horiz-adv-x="874" 
d="M544 238q39 45 39 98v827h192v-827q0 -72 -27.5 -132.5t-73.5 -106.5t-106.5 -71.5t-128.5 -25.5h-282v190h200l-264 748l185 51zM261 1188q-35 0 -66.5 -23.5t-60.5 -62.5h197q-4 39 -19.5 62.5t-50.5 23.5zM40 1044v58h45v129h49v-55q29 34 58.5 52.5t70.5 18.5
q39 0 63.5 -16.5t39 -44t19.5 -63.5t5 -72v-7h-350z" />
    <glyph glyph-name="uniFEE0_uniFB51.rlig" unicode="&#xfee0;&#xfb51;" horiz-adv-x="884" 
d="M544 238q39 45 39 98v827h192v-827q0 -80 -35 -146h144v-190h-207v98q-47 -47 -108.5 -72.5t-129.5 -25.5h-282v190h200l-264 748l185 51zM261 1188q-35 0 -66.5 -23.5t-60.5 -62.5h197q-4 39 -19.5 62.5t-50.5 23.5zM40 1044v58h45v129h49v-55q29 34 58.5 52.5
t70.5 18.5q39 0 63.5 -16.5t39 -44t19.5 -63.5t5 -72v-7h-350z" />
    <glyph glyph-name="uniFEDF_uniFEE2.liga" unicode="&#xfedf;&#xfee2;" horiz-adv-x="1557" 
d="M573 233q0 -59 41 -100t101 -41q59 0 101 41t42 100q0 60 -42 102t-101 42q-60 0 -101 -42t-41 -102zM954 0q-45 -45 -104.5 -71.5t-130.5 -26.5q-78 0 -153 37.5t-128 119.5l-182 -284l-162 102l301 477q41 66 82 107t82 64.5t81 32.5t81 9q63 0 122.5 -25.5
t105.5 -69.5t72.5 -106.5t26.5 -136.5v-19t-2 -20h75q69 0 107 43t38 103v827h191v-827q0 -76 -28 -137.5t-75 -105.5t-107 -68q-48 -20 -98 -24v-1h-195z" />
    <glyph glyph-name="uniFEE4_uniFE8E.liga" unicode="&#xfee4;&#xfe8e;" horiz-adv-x="1316" 
d="M738 229q0 -59 38.5 -101t104.5 -42q59 0 102 42t43 101q0 60 -43 103t-102 43t-101 -43t-42 -103zM430 0q-74 2 -134.5 29.5t-105.5 74t-69.5 108.5t-24.5 136v815h193v-825q0 -68 36.5 -108t104.5 -40h11h110q-2 11 -2 21v20q0 70 26.5 130.5t72 105.5t105.5 71.5
t130 26.5t130.5 -26.5t105.5 -71.5t71.5 -105.5t26.5 -130.5v-20t-2 -21h102v-190h-194q-45 -47 -106.5 -74.5t-133.5 -27.5t-133.5 27.5t-106.5 74.5h-202h-11z" />
    <glyph glyph-name="uniFEE4_uniFE82.liga" unicode="&#xfee4;&#xfe82;" horiz-adv-x="1382" 
d="M804 229q0 -59 38.5 -101t104.5 -42q59 0 102 42t43 101q0 60 -43 103t-102 43t-101 -43t-42 -103zM415 1257q-47 -28 -92 -28q-37 0 -71.5 17.5t-69.5 17.5q-45 0 -86 -27v63q43 29 90 29q33 0 68 -16.5t69 -16.5q45 0 92 29v-68zM495 0q-73 2 -133.5 29.5t-105.5 74
t-69.5 108.5t-24.5 136v815h192v-825q0 -68 37 -108t104 -40h12h110q-2 11 -2 21v20q0 70 26.5 130.5t72 105.5t105.5 71.5t130 26.5t130.5 -26.5t105.5 -71.5t71.5 -105.5t26.5 -130.5v-20t-2 -21h102v-190h-194q-45 -47 -106.5 -74.5t-133.5 -27.5t-133.5 27.5
t-106.5 74.5h-202h-12z" />
    <glyph glyph-name="uniFEE4_uniFE84.liga" unicode="&#xfee4;&#xfe84;" horiz-adv-x="1347" 
d="M769 229q0 -59 38.5 -101t104.5 -42q59 0 102 42t43 101q0 60 -43 103t-102 43t-101 -43t-42 -103zM461 0q-74 2 -134.5 29.5t-105.5 74t-69.5 108.5t-24.5 136v815h193v-825q0 -68 36.5 -108t104.5 -40h11h110q-2 11 -2 21v20q0 70 26.5 130.5t72 105.5t105.5 71.5
t130 26.5t130.5 -26.5t105.5 -71.5t71.5 -105.5t26.5 -130.5v-20t-2 -21h102v-190h-194q-45 -47 -106.5 -74.5t-133.5 -27.5t-133.5 27.5t-106.5 74.5h-202h-11zM147 1284q-10 21 -10 45q0 49 30.5 73.5t67.5 24.5q51 0 84 -41l-41 -40q-16 24 -43 24q-41 0 -41 -41
q0 -45 45 -45h101v-59h-244v59h51z" />
    <glyph glyph-name="uniFEE4_uniFE88.liga" unicode="&#xfee4;&#xfe88;" horiz-adv-x="1335" 
d="M757 229q0 -59 38.5 -101t104.5 -42q59 0 102 42t43 101q0 60 -43 103t-102 43t-101 -43t-42 -103zM449 0q-74 2 -134.5 29.5t-105.5 74t-69.5 108.5t-24.5 136v815h193v-825q0 -68 36.5 -108t104.5 -40h11h110q-2 11 -2 21v20q0 70 26.5 130.5t72 105.5t105.5 71.5
t130 26.5t130.5 -26.5t105.5 -71.5t71.5 -105.5t26.5 -130.5v-20t-2 -21h102v-190h-194q-45 -47 -106.5 -74.5t-133.5 -27.5t-133.5 27.5t-106.5 74.5h-202h-11zM147 -195q-10 21 -10 45q0 50 30.5 74.5t67.5 24.5q51 0 84 -41l-41 -41q-16 24 -43 24q-41 0 -41 -41
q0 -45 45 -45h101v-59h-244v59h51z" />
    <glyph glyph-name="uniFEE8_uniFEAE.liga" unicode="&#xfee8;&#xfeae;" horiz-adv-x="1081" 
d="M462 0q-4 -10 -10 -21.5t-12 -21.5l-201 -340l-164 94l207 348q33 54 44 96t11 87q0 172 -156 268l97 170q119 -78 184.5 -187.5t65.5 -232.5v-35.5t-4 -34.5h90q51 7 92 46.5t41 99.5v344h192v-344q0 -80 -32 -146h174v-190h-240v100q-49 -51 -108 -75q-54 -23 -107 -25
h-164zM837 770q-47 0 -81 34t-34 81t34 80.5t81 33.5t81 -33.5t34 -80.5t-34 -81t-81 -34z" />
    <glyph glyph-name="uniFEE7_uniFEE4.liga" unicode="&#xfee7;&#xfee4;" horiz-adv-x="1317" 
d="M298 229q0 -59 38.5 -101t104.5 -42q59 0 102 42t43 101q0 60 -43 103t-102 43t-101 -43t-42 -103zM683 0q-45 -47 -106.5 -74.5t-133.5 -27.5t-133.5 27.5t-106.5 74.5h-202q-37 0 -54.5 29.5t-17.5 64.5t17.5 65.5t54.5 30.5h110q-2 11 -2 21v20q0 70 26.5 130.5
t72 105.5t105.5 71.5t130 26.5t130.5 -26.5t105.5 -71.5t71.5 -105.5t26.5 -130.5v-20t-2 -21h102h4q51 7 92 46.5t41 99.5v344h190v-344q0 -76 -28.5 -137.5t-74.5 -105.5t-104.5 -68.5t-115.5 -24.5h-198zM1104 770q-47 0 -81 34t-34 81t34 80.5t81 33.5t81 -33.5
t34 -80.5t-34 -81t-81 -34z" />
    <glyph glyph-name="uniFEE7_uniFEF0.liga" unicode="&#xfee7;&#xfef0;" horiz-adv-x="1614" 
d="M1164 2h-36q6 -31 6 -61q0 -52 -18.5 -97t-52 -77.5t-80.5 -51t-103 -18.5h-272q-115 0 -209 44t-159.5 115.5t-101.5 163t-36 185.5v88h190v-78q0 -70 24 -129t66 -103t96 -69t116 -25h288q64 0 64 48q0 30 -16.5 46.5t-39.5 16.5h-165v190h456q51 7 92 46.5t41 99.5
v344h190v-344q0 -76 -28.5 -137.5t-74.5 -105.5t-104.5 -68.5t-115.5 -24.5q-9 0 -17 2zM1394 770q-47 0 -81 34t-34 81t34 80.5t81 33.5t81 -33.5t34 -80.5t-34 -81t-81 -34z" />
    <glyph glyph-name="uniFEE7_uniFEF2.liga" unicode="&#xfee7;&#xfef2;" horiz-adv-x="1614" 
d="M788 -352q47 0 80 -35t33 -78q0 -49 -37 -83t-76 -34q-49 0 -83 34t-34 83q0 43 31 78t86 35zM1164 2h-36q6 -31 6 -61q0 -52 -18.5 -97t-52 -77.5t-80.5 -51t-103 -18.5h-272q-115 0 -209 44t-159.5 115.5t-101.5 163t-36 185.5v88h190v-78q0 -70 24 -129t66 -103
t96 -69t116 -25h288q64 0 64 48q0 30 -16.5 46.5t-39.5 16.5h-165v190h456q51 7 92 46.5t41 99.5v344h190v-344q0 -76 -28.5 -137.5t-74.5 -105.5t-104.5 -68.5t-115.5 -24.5q-9 0 -17 2zM540 -352q51 0 82 -34t31 -79q0 -53 -36 -85t-77 -32q-47 0 -80.5 35t-33.5 82
q0 41 30.5 77t83.5 36zM1394 770q-47 0 -81 34t-34 81t34 80.5t81 33.5t81 -33.5t34 -80.5t-34 -81t-81 -34z" />
    <glyph glyph-name="uniFEF4_uniFEAE.liga" unicode="&#xfef4;&#xfeae;" horiz-adv-x="1081" 
d="M462 0q-4 -10 -10 -21.5t-12 -21.5l-201 -340l-164 94l207 348q33 54 44 96t11 87q0 172 -156 268l97 170q119 -78 184.5 -187.5t65.5 -232.5v-35.5t-4 -34.5h90q51 7 92 46.5t41 99.5v344h192v-344q0 -80 -32 -146h174v-190h-240v100q-49 -51 -108 -75q-54 -23 -107 -25
h-164zM855 -94q47 0 79.5 -35t32.5 -78q0 -49 -36.5 -83t-75.5 -34q-49 0 -83 34t-34 83q0 43 30.5 78t86.5 35zM607 -94q51 0 82 -34t31 -79q0 -53 -36 -85t-77 -32q-47 0 -81 35t-34 82q0 41 31 77t84 36z" />
    <glyph glyph-name="uniFEF3_uniFEE4.liga" unicode="&#xfef3;&#xfee4;" horiz-adv-x="1330" 
d="M298 229q0 -59 38.5 -101t104.5 -42q59 0 102 42t43 101q0 60 -43 103t-102 43t-101 -43t-42 -103zM1090 -94q47 0 79.5 -35t32.5 -78q0 -49 -36.5 -83t-75.5 -34q-49 0 -83 34t-34 83q0 43 30.5 78t86.5 35zM683 0q-45 -47 -106.5 -74.5t-133.5 -27.5t-133.5 27.5
t-106.5 74.5h-202q-37 0 -54.5 29.5t-17.5 64.5t17.5 65.5t54.5 30.5h110q-2 11 -2 21v20q0 70 26.5 130.5t72 105.5t105.5 71.5t130 26.5t130.5 -26.5t105.5 -71.5t71.5 -105.5t26.5 -130.5v-20t-2 -21h102h4q51 7 92 46.5t41 99.5v344h190v-344q0 -76 -28.5 -137.5
t-74.5 -105.5t-104.5 -68.5t-115.5 -24.5h-198zM842 -94q51 0 82 -34t31 -79q0 -53 -36 -85t-77 -32q-47 0 -81 35t-34 82q0 41 31 77t84 36z" />
    <glyph glyph-name="uniFEF4_uniFEE6.liga" unicode="&#xfef4;&#xfee6;" horiz-adv-x="1677" 
d="M612 57q-50 0 -81.5 34t-31.5 81t31.5 81t81.5 34q51 0 82.5 -34t31.5 -81t-33.5 -81t-80.5 -34zM1074 0q-24 -68 -66 -126t-101.5 -101t-136.5 -67.5t-171 -24.5q-76 0 -161 28.5t-155.5 88t-116.5 151.5t-46 219q0 98 33 186t96.5 156t154.5 110t205 48v-191
q-61 -4 -115.5 -27.5t-94 -63.5t-62 -96.5t-22.5 -125.5q0 -72 23.5 -127t65.5 -92t96 -56.5t116 -19.5q59 0 113.5 22.5t96.5 66.5t66.5 106.5t24.5 142.5v469h192v-486h98h4q51 7 92 46.5t41 99.5v344h192v-344q0 -80 -32 -146h174v-190h-240v100q-49 -51 -108.5 -75.5
t-118.5 -24.5h-137zM1222 -92q51 0 82 -34t31 -79q0 -53 -36 -85t-77 -32q-47 0 -81 35t-34 82q0 41 31 77t84 36zM1470 -92q47 0 80 -35t33 -78q0 -49 -37 -83t-76 -34q-49 0 -83 34t-34 83q0 43 31 78t86 35z" />
    <glyph glyph-name="T_h.liga" unicode="Th" horiz-adv-x="1637" 
d="M839 858h-288v-858h-236v858h-305v209h1054v-434h4q17 43 69 81t136 38q86 0 139.5 -27t82 -74t39 -110.5t10.5 -137.5v-403h-226v358q0 31 -2 66t-13 62.5t-34.5 46t-67.5 18.5q-45 0 -71.5 -15.5t-40.5 -42t-19.5 -59.5t-5.5 -69v-365h-225v858z" />
    <glyph glyph-name="f_b.liga" unicode="fb" horiz-adv-x="1482" 
d="M158 551h-150v182h150v129q0 60 10 114t40.5 94t87 63.5t148.5 23.5q35 0 68 -2t65 -10l-12 -193q-35 15 -72 15q-55 0 -81.5 -23.5t-26.5 -95.5v-115h166v-182h-166v-551h-227v551zM640 1139h227v-486h2q39 54 100.5 76.5t133.5 22.5q78 0 139.5 -33t104.5 -87
t66.5 -125t23.5 -147q0 -84 -26 -152.5t-73 -119.5t-113.5 -78.5t-148.5 -27.5q-78 0 -138 36.5t-87 77.5h-2v-96h-209v1139zM849 367q0 -84 47 -135.5t133 -51.5t134 51.5t48 135.5q0 82 -48 133t-134 51t-133 -51t-47 -133z" />
    <glyph glyph-name="f_f_b.liga" unicode="ffb" horiz-adv-x="2026" 
d="M1389 367q0 -84 47 -135.5t133 -51.5t134 51.5t48 135.5q0 82 -48 133t-134 51t-133 -51t-47 -133zM385 551v-551h-227v551h-150v182h150v129q0 60 10 114t40.5 94t87 63.5t148.5 23.5q35 0 68 -2t65 -10l-12 -193q-35 15 -72 15q-55 0 -81.5 -23.5t-26.5 -95.5v-115h313
v129q0 60 10 114t40.5 94t87 63.5t148.5 23.5q35 0 68 -2t65 -10l-12 -193q-35 15 -72 15q-55 0 -81.5 -23.5t-26.5 -95.5v-115h166v-182h-166v-551h-227v551h-313zM1180 1139h227v-486h2q39 54 100.5 76.5t133.5 22.5q78 0 139.5 -33t104.5 -87t66.5 -125t23.5 -147
q0 -84 -26 -152.5t-73 -119.5t-113.5 -78.5t-148.5 -27.5q-78 0 -138 36.5t-87 77.5h-2v-96h-209v1139z" />
    <glyph glyph-name="f_f.liga" unicode="ff" horiz-adv-x="1105" 
d="M385 551v-551h-227v551h-150v182h150v129q0 60 10 114t40.5 94t87 63.5t148.5 23.5q35 0 68 -2t65 -10l-12 -193q-35 15 -72 15q-55 0 -81.5 -23.5t-26.5 -95.5v-115h313v129q0 60 10 114t40.5 94t87 63.5t148.5 23.5q35 0 68 -2t65 -10l-12 -193q-35 15 -72 15
q-55 0 -81.5 -23.5t-26.5 -95.5v-115h166v-182h-166v-551h-227v551h-313z" />
    <glyph glyph-name="f_h.liga" unicode="fh" horiz-adv-x="1442" 
d="M158 551h-150v182h150v129q0 60 10 114t40.5 94t87 63.5t148.5 23.5q35 0 68 -2t65 -10l-12 -193q-35 15 -72 15q-55 0 -81.5 -23.5t-26.5 -95.5v-115h166v-182h-166v-551h-227v551zM864 1139v-506h4q17 43 69 81t136 38q86 0 139.5 -27t82 -74t39 -110.5t10.5 -137.5
v-403h-226v358q0 31 -2 66t-13 62.5t-34.5 46t-67.5 18.5q-45 0 -71.5 -15.5t-40.5 -42t-19.5 -59.5t-5.5 -69v-365h-225v1139h225z" />
    <glyph glyph-name="f_f_h.liga" unicode="ffh" horiz-adv-x="1990" 
d="M385 551v-551h-227v551h-150v182h150v129q0 60 10 114t40.5 94t87 63.5t148.5 23.5q35 0 68 -2t65 -10l-12 -193q-35 15 -72 15q-55 0 -81.5 -23.5t-26.5 -95.5v-115h313v129q0 60 10 114t40.5 94t87 63.5t148.5 23.5q35 0 68 -2t65 -10l-12 -193q-35 15 -72 15
q-55 0 -81.5 -23.5t-26.5 -95.5v-115h166v-182h-166v-551h-227v551h-313zM1414 1139v-506h4q17 43 69 81t136 38q86 0 139.5 -27t82 -74t39 -110.5t10.5 -137.5v-403h-226v358q0 31 -2 66t-13 62.5t-34.5 46t-67.5 18.5q-45 0 -71.5 -15.5t-40.5 -42t-19.5 -59.5t-5.5 -69
v-365h-225v1139h225z" />
    <glyph glyph-name="f_f_i.liga" unicode="ffi" horiz-adv-x="1488" 
d="M1181 733h225v-733h-225v733zM385 551v-551h-227v551h-150v182h150v129q0 60 10 114t40.5 94t87 63.5t148.5 23.5q35 0 68 -2t65 -10l-12 -193q-35 15 -72 15q-55 0 -81.5 -23.5t-26.5 -95.5v-115h313v129q0 60 10 114t40.5 94t87 63.5t148.5 23.5q35 0 68 -2t65 -10
l-12 -193q-35 15 -72 15q-55 0 -81.5 -23.5t-26.5 -95.5v-115h166v-182h-166v-551h-227v551h-313zM1162 963q0 55 39 93t92 38q54 0 93 -38t39 -93q0 -54 -39 -93t-93 -39q-53 0 -92 39t-39 93z" />
    <glyph glyph-name="f_j.liga" unicode="fj" horiz-adv-x="948" 
d="M622 963q0 55 39 93t92 38q54 0 93 -38t39 -93q0 -54 -39 -93t-93 -39q-53 0 -92 39t-39 93zM158 551h-150v182h150v129q0 60 10 114t40.5 94t87 63.5t148.5 23.5q35 0 68 -2t65 -10l-12 -193q-35 15 -72 15q-55 0 -81.5 -23.5t-26.5 -95.5v-115h166v-182h-166v-551h-227
v551zM860 -53q0 -142 -58.5 -225.5t-212.5 -83.5q-28 0 -54.5 2t-51.5 10l10 200q27 -12 60 -12q30 0 45.5 15.5t23.5 37t9.5 47t1.5 46.5v749h227v-786z" />
    <glyph glyph-name="f_f_j.liga" unicode="ffj" horiz-adv-x="1488" 
d="M385 551v-551h-227v551h-150v182h150v129q0 60 10 114t40.5 94t87 63.5t148.5 23.5q35 0 68 -2t65 -10l-12 -193q-35 15 -72 15q-55 0 -81.5 -23.5t-26.5 -95.5v-115h313v129q0 60 10 114t40.5 94t87 63.5t148.5 23.5q35 0 68 -2t65 -10l-12 -193q-35 15 -72 15
q-55 0 -81.5 -23.5t-26.5 -95.5v-115h166v-182h-166v-551h-227v551h-313zM1162 963q0 55 39 93t92 38q54 0 93 -38t39 -93q0 -54 -39 -93t-93 -39q-53 0 -92 39t-39 93zM1410 -53q0 -142 -58.5 -225.5t-212.5 -83.5q-28 0 -54.5 2t-51.5 10l10 200q27 -12 60 -12
q30 0 45.5 15.5t23.5 37t9.5 47t1.5 46.5v749h227v-786z" />
    <glyph glyph-name="f_k.liga" unicode="fk" horiz-adv-x="1402" 
d="M158 551h-150v182h150v129q0 60 10 114t40.5 94t87 63.5t148.5 23.5q35 0 68 -2t65 -10l-12 -193q-35 15 -72 15q-55 0 -81.5 -23.5t-26.5 -95.5v-115h166v-182h-166v-551h-227v551zM639 1139h225v-697l250 291h279l-291 -332l299 -401h-287l-246 371h-4v-371h-225v1139z
" />
    <glyph glyph-name="f_f_k.liga" unicode="ffk" horiz-adv-x="1944" 
d="M385 551v-551h-227v551h-150v182h150v129q0 60 10 114t40.5 94t87 63.5t148.5 23.5q35 0 68 -2t65 -10l-12 -193q-35 15 -72 15q-55 0 -81.5 -23.5t-26.5 -95.5v-115h313v129q0 60 10 114t40.5 94t87 63.5t148.5 23.5q35 0 68 -2t65 -10l-12 -193q-35 15 -72 15
q-55 0 -81.5 -23.5t-26.5 -95.5v-115h166v-182h-166v-551h-227v551h-313zM1179 1139h225v-697l250 291h279l-291 -332l299 -401h-287l-246 371h-4v-371h-225v1139z" />
    <glyph glyph-name="f_f_l.liga" unicode="ffl" horiz-adv-x="1491" 
d="M1181 1139h225v-1139h-225v1139zM385 551v-551h-227v551h-150v182h150v129q0 60 10 114t40.5 94t87 63.5t148.5 23.5q35 0 68 -2t65 -10l-12 -193q-35 15 -72 15q-55 0 -81.5 -23.5t-26.5 -95.5v-115h313v129q0 60 10 114t40.5 94t87 63.5t148.5 23.5q35 0 68 -2t65 -10
l-12 -193q-35 15 -72 15q-55 0 -81.5 -23.5t-26.5 -95.5v-115h166v-182h-166v-551h-227v551h-313z" />
    <glyph glyph-name="f_t.liga" unicode="ft" horiz-adv-x="1148" 
d="M385 551v-551h-227v551h-150v182h150v129q0 60 10 114t40.5 94t87 63.5t148.5 23.5q35 0 68 -2t65 -10l-12 -193q-35 15 -72 15q-55 0 -81.5 -23.5t-26.5 -95.5v-115h298v215h228v-215h198v-182h-198v-244q0 -59 16.5 -97t87.5 -38q21 0 49.5 3t44.5 18v-189
q-36 -12 -77 -17t-82 -5q-56 0 -105 12t-85 38.5t-56.5 68.5t-20.5 102v348h-298z" />
    <glyph glyph-name="f_f_t.liga" unicode="fft" horiz-adv-x="1686" 
d="M385 551v-551h-227v551h-150v182h150v129q0 60 10 114t40.5 94t87 63.5t148.5 23.5q35 0 68 -2t65 -10l-12 -193q-35 15 -72 15q-55 0 -81.5 -23.5t-26.5 -95.5v-115h313v129q0 60 10 114t40.5 94t87 63.5t148.5 23.5q35 0 68 -2t65 -10l-12 -193q-35 15 -72 15
q-55 0 -81.5 -23.5t-26.5 -95.5v-115h298v215h228v-215h198v-182h-198v-244q0 -59 16.5 -97t87.5 -38q21 0 49.5 3t44.5 18v-189q-36 -12 -77 -17t-82 -5q-56 0 -105 12t-85 38.5t-56.5 68.5t-20.5 102v348h-298v-551h-227v551h-313z" />
    <glyph glyph-name="uni0647.fina" unicode="&#x647;" horiz-adv-x="1536" arabic-form="final" 
d="M287 338q0 -29 11 -54.5t31.5 -47t46 -34t56.5 -12.5h53q0 62 20.5 115t57.5 93t89 63.5t116 23.5q67 0 121.5 -23.5t93.5 -63.5t60.5 -93t21.5 -115h149q6 31 6 72q0 53 -23.5 105.5t-63.5 92.5t-93 64.5t-115 24.5h-165v190h174q102 0 190 -41t152.5 -107.5
t100.5 -152.5t36 -176q0 -16 -1 -34.5t-3 -37.5h127v-190h-1106q-68 0 -129.5 27.5t-107.5 73.5t-72.5 107.5t-26.5 129.5h193zM770 295q-45 0 -70.5 -32t-25.5 -73h196q-4 50 -29.5 77.5t-70.5 27.5z" />
    <glyph glyph-name="uni0672.fina" unicode="&#x672;" horiz-adv-x="517" 
d="M183 1163h193v-825q0 -68 36.5 -108t104.5 -40v-190q-74 2 -134.5 29.5t-105.5 74t-69.5 108.5t-24.5 136v815zM435 1227h-339v57h45v129h49v-127h51q-10 21 -10 45q0 49 30.5 73.5t68.5 24.5q51 0 84 -41l-41 -40q-16 24 -43 24q-42 0 -42 -41q0 -45 46 -45h101v-59z
" />
    <glyph glyph-name="uni0673.fina" unicode="&#x673;" horiz-adv-x="487" 
d="M153 1163h193v-825q0 -68 36.5 -108t104.5 -40v-190q-74 2 -134.5 29.5t-105.5 74t-69.5 108.5t-24.5 136v815zM435 -253h-339v57h45v129h49v-127h51q-10 21 -10 45q0 49 30.5 73.5t68.5 24.5q51 0 84 -41l-41 -40q-16 24 -43 24q-42 0 -42 -41q0 -45 46 -45h101v-59z
" />
    <glyph glyph-name="uni0675.fina" unicode="&#x675;" horiz-adv-x="561" 
d="M347 1284q-10 21 -10 45q0 49 30.5 73.5t67.5 24.5q51 0 84 -41l-41 -40q-16 24 -43 24q-41 0 -41 -41q0 -45 45 -45h101v-59h-244v59h51zM96 1163h193v-825q-5 -49 34.5 -98.5t236.5 -49.5v-190q-203 2 -263.5 29.5t-105.5 74t-70 108.5t-25 136v815z" />
    <glyph glyph-name="uni0676.fina" unicode="&#x676;" horiz-adv-x="969" 
d="M969 0h-326l-198 -379l-168 88l149 291q-61 8 -118.5 34.5t-100.5 69.5t-68.5 100.5t-25.5 127.5q0 69 22.5 130.5t66.5 107.5t106.5 73t142.5 27q72 0 132 -27t103 -71t67 -102t24 -122q0 -49 -9.5 -86t-25.5 -72h227v-190zM531 190q26 43 39 76q10 25 14 40.5t4 25.5
q0 71 -45 109t-104 38q-52 0 -95 -38t-43 -107q0 -64 41 -104t119 -40h70zM694 821q-12 21 -12 56q0 61 38 91.5t85 30.5q29 0 55.5 -11t49.5 -40l-52 -51q-18 31 -53 31q-51 0 -51 -51q0 -25 14.5 -40.5t40.5 -15.5h125v-73h-303v73h63z" />
    <glyph glyph-name="uni0677.fina" unicode="&#x677;" horiz-adv-x="879" 
d="M879 0h-236l-198 -379l-168 88l149 291q-61 8 -118.5 34.5t-100.5 69.5t-68.5 100.5t-25.5 127.5q0 69 22.5 130.5t66.5 107.5t106.5 73t142.5 27q72 0 132 -27t103 -71t67 -102t24 -122q0 -49 -9.5 -86t-25.5 -72h137v-190zM531 190q26 43 39 76q10 25 14 40.5t4 25.5
q0 71 -45 109t-104 38q-52 0 -95 -38t-43 -107q0 -64 41 -104t119 -40h70zM574 821q-12 21 -12 56q0 61 38 91.5t85 30.5q29 0 55.5 -11t49.5 -40l-52 -51q-18 31 -53 31q-51 0 -51 -51q0 -25 14.5 -40.5t40.5 -15.5h125v-73h-303v73h63zM201 908q0 44 30 74.5t74 30.5
t74.5 -30.5t30.5 -74.5q0 -29 -16.5 -57t-62.5 -54l-157 -84l-33 51l113 57q-53 25 -53 87zM256 908q0 -20 14.5 -34.5t34.5 -14.5q19 0 33.5 14.5t14.5 34.5q0 21 -13.5 34.5t-34.5 13.5q-20 0 -34.5 -14.5t-14.5 -33.5z" />
    <glyph glyph-name="uni0678.init" unicode="&#x678;" horiz-adv-x="600" 
d="M1 190q51 7 92 46.5t41 99.5v344h190v-344q0 -76 -28.5 -137.5t-74.5 -105.5t-104.5 -68.5t-115.5 -24.5q-35 0 -53.5 29.5t-18.5 64.5t18.5 63.5t53.5 32.5zM323 846q-12 20 -12 55q0 62 37.5 92.5t84.5 30.5q29 0 55.5 -11.5t49.5 -39.5l-51 -51q-19 30 -54 30
q-51 0 -51 -51q0 -24 14.5 -39.5t41.5 -15.5h124v-74h-303v74h64z" />
    <glyph glyph-name="uni0678.medi" unicode="&#x678;" horiz-adv-x="608" 
d="M1 0q-35 0 -53.5 29.5t-18.5 64.5t18.5 63.5t53.5 32.5q51 7 92 46.5t41 99.5v344h192v-344q0 -80 -32 -146h314v-190h-380v100q-49 -51 -108.5 -75.5t-118.5 -24.5zM328 846q-12 20 -12 55q0 62 37.5 92.5t84.5 30.5q29 0 55.5 -11.5t49.5 -39.5l-51 -51q-19 30 -54 30
q-51 0 -51 -51q0 -24 14.5 -39.5t41.5 -15.5h125v-74h-304v74h64z" />
    <glyph glyph-name="uni0678.fina" unicode="&#x678;" horiz-adv-x="1369" 
d="M1147 332q-10 20 -10 43q0 41 27.5 70.5t72.5 29.5q51 0 82 -39l-39 -43q-18 25 -45 25q-16 0 -27.5 -13.5t-11.5 -27.5q0 -41 39 -45h107v-60h-244v60h49zM292 215q0 -70 23.5 -129t65.5 -103t96.5 -69t115.5 -25h289q64 0 64 48q0 30 -16.5 46.5t-39.5 16.5h-166v190
h645v-188h-241q6 -31 6 -61q0 -52 -18.5 -97t-52 -77.5t-81 -51t-102.5 -18.5h-272q-115 0 -209 44t-159.5 115.5t-101.5 163t-36 185.5v88h190v-78z" />
    <glyph glyph-name="uni067C.init" unicode="&#x67c;" horiz-adv-x="528" 
d="M405 999q47 0 79.5 -32.5t32.5 -79.5q0 -51 -36 -84t-76 -33q-48 0 -81.5 34t-33.5 83q0 43 30.5 77.5t84.5 34.5zM26 0h-25q-35 0 -53.5 29.5t-18.5 64.5t18.5 63.5t53.5 32.5q121 7 162 46.5t41 99.5v344h190v-344q0 -76 -28 -137q-27 -58 -69 -100q17 -10 32 -24
q24 -25 38.5 -58t14.5 -71t-14.5 -71t-39 -57.5t-57.5 -39t-71 -14.5t-71 14.5t-57.5 39t-39 57.5t-14.5 71q0 29 8 54zM179 22q-5 -2 -11 -4q-14 -6 -25 -17q-23 -24 -23 -56q0 -33 21.5 -56t57.5 -23q32 0 55.5 23t23.5 56q0 32 -23.5 55.5t-55.5 23.5q-10 0 -20 -2z
M157 999q51 0 82.5 -34.5t31.5 -77.5q0 -51 -35.5 -84t-78.5 -33q-45 0 -79 33t-34 84q0 45 30.5 78.5t82.5 33.5z" />
    <glyph glyph-name="uni067C.medi" unicode="&#x67c;" horiz-adv-x="538" 
d="M423 997q47 0 80 -34.5t33 -77.5q0 -49 -37 -83t-76 -34q-49 0 -83 34t-34 83q0 43 31 77.5t86 34.5zM26 0h-25q-35 0 -53.5 29.5t-18.5 64.5t18.5 63.5t53.5 32.5q121 7 162 46.5t41 99.5v344h192v-344q0 -80 -32 -146h174v-190h-164q8 -26 8 -54q0 -38 -14.5 -71
t-39 -57.5t-57.5 -39t-71 -14.5t-71 14.5t-57.5 39t-39 57.5t-14.5 71q0 29 8 54zM186 23q-10 -4 -22 -7q-12 -6 -21 -15q-23 -24 -23 -56q0 -33 21.5 -56t57.5 -23q32 0 55.5 23t23.5 56q0 32 -23.5 55.5t-55.5 23.5q-7 0 -13 -1zM297 99h1v1zM175 997q51 0 82 -33.5
t31 -78.5q0 -54 -36 -85.5t-77 -31.5q-47 0 -81 35t-34 82q0 41 31 76.5t84 35.5z" />
    <glyph glyph-name="uni067C.fina" unicode="&#x67c;" horiz-adv-x="1347" 
d="M809 934q47 0 79.5 -35t32.5 -78q0 -49 -36.5 -82.5t-75.5 -33.5q-49 0 -83 33.5t-34 82.5q0 43 30.5 78t86.5 35zM561 934q51 0 82 -34t31 -79q0 -53 -36 -84.5t-77 -31.5q-47 0 -81 34.5t-34 81.5q0 41 31 77t84 36zM681 0h-2q-32 0 -55 -23q-23 -24 -23 -56
q0 -33 21.5 -56t57.5 -23q32 0 55.5 23t23.5 56q0 32 -23 56q-24 23 -55 23zM517 0h-85q-82 0 -145.5 28.5t-106.5 75t-64.5 105.5t-21.5 123q0 80 38 156.5t116 127.5l139 -141q-53 -20 -78 -60t-25 -85q0 -54 37 -97t115 -43h467q27 0 53.5 11.5t47 32t32.5 47t12 55.5
v344h193v-344q0 -76 -35 -146h141v-190h-206v96q-46 -43 -105 -69.5t-131 -26.5h-60q2 -3 4 -7q14 -33 14 -71t-14.5 -71t-39 -57.5t-57.5 -39t-71 -14.5t-71 14.5t-57.5 39t-39 57.5t-14.5 71t15 71q1 4 3 7z" />
    <glyph glyph-name="uni067D.init" unicode="&#x67d;" horiz-adv-x="475" 
d="M299 1017.5q-31 34.5 -31 77.5q0 49 34 83t83 34q39 0 76 -34t37 -83q0 -43 -33 -77.5t-80 -34.5q-55 0 -86 34.5zM53 1018.5q-31 35.5 -31 76.5q0 47 34 82t81 35q41 0 77 -32t36 -85q0 -45 -31 -78.5t-82 -33.5q-53 0 -84 35.5zM176 804.5q-31 34.5 -31 77.5
q0 49 34 83t83 34q39 0 76 -34t37 -83q0 -43 -33 -77.5t-80 -34.5q-55 0 -86 34.5zM1 190q81 7 122 46.5t41 99.5v344h190v-344q0 -76 -28.5 -137.5t-74.5 -105.5t-104.5 -68.5t-145.5 -24.5q-35 0 -53.5 29.5t-18.5 64.5t18.5 63.5t53.5 32.5z" />
    <glyph glyph-name="uni067D.medi" unicode="&#x67d;" horiz-adv-x="497" 
d="M263 1017.5q-31 34.5 -31 77.5q0 49 34 83t83 34q39 0 75.5 -34t36.5 -83q0 -43 -32.5 -77.5t-79.5 -34.5q-55 0 -86 34.5zM17 1018.5q-31 35.5 -31 76.5q0 47 34 82t81 35q41 0 77 -32t36 -85q0 -45 -31 -78.5t-82 -33.5q-53 0 -84 35.5zM140 804.5q-31 34.5 -31 77.5
q0 49 34 83t83 34q39 0 76 -34t37 -83q0 -43 -33 -77.5t-80 -34.5q-55 0 -86 34.5zM1 0q-35 0 -53.5 29.5t-18.5 64.5t18.5 63.5t53.5 32.5q51 7 92 46.5t41 99.5v344h192v-344q0 -80 -32 -146h204v-190h-270v100q-49 -51 -108.5 -75.5t-118.5 -24.5z" />
    <glyph glyph-name="uni067D.fina" unicode="&#x67d;" horiz-adv-x="1347" 
d="M720.5 957q-30.5 35 -30.5 78q0 49 34 82.5t83 33.5q39 0 75.5 -33.5t36.5 -82.5q0 -43 -32.5 -78t-79.5 -35q-56 0 -86.5 35zM475 958q-31 36 -31 77q0 47 34 81.5t81 34.5q41 0 77 -31.5t36 -84.5q0 -45 -31 -79t-82 -34q-53 0 -84 36zM598 744q-31 35 -31 78
q0 49 34 82.5t83 33.5q39 0 75.5 -33.5t36.5 -82.5q0 -43 -32.5 -78t-79.5 -35q-55 0 -86 35zM432 0q-82 0 -145.5 28.5t-106.5 75t-64.5 105.5t-21.5 123q0 80 38 156.5t116 127.5l139 -141q-53 -20 -78 -60t-25 -85q0 -54 37 -97t115 -43h467q27 0 53.5 11.5t47 32
t32.5 47t12 55.5v344h193v-344q0 -76 -35 -146h141v-190h-206v96q-46 -43 -105 -69.5t-131 -26.5h-473z" />
    <glyph glyph-name="uni0681.init" unicode="&#x681;" horiz-adv-x="1003" 
d="M627 190l-55 113q-39 78 -94 125t-121 47q-43 0 -73.5 -18.5t-59.5 -67.5l-168 96q63 99 137 143t180 44q82 0 141.5 -27t106.5 -76t87 -119.5t81 -156.5q29 -60 56.5 -81.5t78.5 -21.5v-190h-923q-35 0 -53.5 29.5t-18.5 64.5t18.5 65.5t53.5 30.5h626zM258 846
q-12 20 -12 55q0 62 37.5 92.5t84.5 30.5q29 0 55.5 -11.5t49.5 -39.5l-51 -51q-19 30 -54 30q-51 0 -51 -51q0 -24 14.5 -39.5t41.5 -15.5h125v-74h-304v74h64z" />
    <glyph glyph-name="uni0681.medi" unicode="&#x681;" horiz-adv-x="909" 
d="M1 0q-35 0 -53.5 29.5t-18.5 64.5t18.5 65.5t53.5 30.5h626l-55 113q-39 78 -94 125t-121 47q-43 0 -73.5 -18.5t-59.5 -67.5l-168 96q63 99 137 143t180 44q82 0 141.5 -27t106.5 -76t87 -119.5t81 -156.5q29 -60 57.5 -81.5t63.5 -21.5v-190h-909zM258 846
q-12 20 -12 55q0 62 37.5 92.5t84.5 30.5q29 0 55.5 -11.5t49.5 -39.5l-51 -51q-19 30 -54 30q-51 0 -51 -51q0 -24 14.5 -39.5t41.5 -15.5h125v-74h-304v74h64z" />
    <glyph glyph-name="uni0681.fina" unicode="&#x681;" horiz-adv-x="993" 
d="M993 0h-563q-68 0 -109 -38t-41 -103q0 -47 18.5 -75t46.5 -42t60.5 -19.5t61.5 -5.5h53v-192h-65q-78 0 -144.5 21.5t-116 63.5t-77 104.5t-27.5 142.5t28.5 142t75 104t105.5 64.5t123 22.5h278l-55 113q-39 78 -94 125t-121 47q-43 0 -73.5 -18.5t-59.5 -67.5l-168 96
q63 99 137 143t180 44q82 0 141.5 -27t106.5 -76t87 -119.5t81 -156.5q29 -60 56.5 -81.5t74.5 -21.5v-190zM318 846q-12 20 -12 55q0 62 37.5 92.5t84.5 30.5q29 0 55.5 -11.5t49.5 -39.5l-51 -51q-19 30 -54 30q-51 0 -51 -51q0 -24 14.5 -39.5t41.5 -15.5h125v-74h-304
v74h64z" />
    <glyph glyph-name="uni0682.init" unicode="&#x682;" horiz-adv-x="1003" 
d="M627 190l-55 113q-39 78 -94 125t-121 47q-43 0 -73.5 -18.5t-59.5 -67.5l-168 96q63 99 137 143t180 44q82 0 141.5 -27t106.5 -76t87 -119.5t81 -156.5q29 -60 56.5 -81.5t78.5 -21.5v-190h-923q-35 0 -53.5 29.5t-18.5 64.5t18.5 65.5t53.5 30.5h626zM360 1247
q47 0 80 -34.5t33 -77.5q0 -50 -37 -83.5t-76 -33.5q-49 0 -83 33.5t-34 83.5q0 43 31 77.5t86 34.5zM360 993q47 0 80 -34.5t33 -77.5q0 -50 -37 -83.5t-76 -33.5q-49 0 -83 33.5t-34 83.5q0 43 31 77.5t86 34.5z" />
    <glyph glyph-name="uni0682.medi" unicode="&#x682;" horiz-adv-x="909" 
d="M1 0q-35 0 -53.5 29.5t-18.5 64.5t18.5 65.5t53.5 30.5h626l-55 113q-39 78 -94 125t-121 47q-43 0 -73.5 -18.5t-59.5 -67.5l-168 96q63 99 137 143t180 44q82 0 141.5 -27t106.5 -76t87 -119.5t81 -156.5q29 -60 57.5 -81.5t63.5 -21.5v-190h-909zM370 1247
q47 0 80 -34.5t33 -77.5q0 -50 -37 -83.5t-76 -33.5q-49 0 -83 33.5t-34 83.5q0 43 31 77.5t86 34.5zM370 993q47 0 80 -34.5t33 -77.5q0 -50 -37 -83.5t-76 -33.5q-49 0 -83 33.5t-34 83.5q0 43 31 77.5t86 34.5z" />
    <glyph glyph-name="uni0682.fina" unicode="&#x682;" horiz-adv-x="993" 
d="M993 0h-563q-68 0 -109 -38t-41 -103q0 -47 18.5 -75t46.5 -42t60.5 -19.5t61.5 -5.5h53v-192h-65q-78 0 -144.5 21.5t-116 63.5t-77 104.5t-27.5 142.5t28.5 142t75 104t105.5 64.5t123 22.5h278l-55 113q-39 78 -94 125t-121 47q-43 0 -73.5 -18.5t-59.5 -67.5l-168 96
q63 99 137 143t180 44q82 0 141.5 -27t106.5 -76t87 -119.5t81 -156.5q29 -60 56.5 -81.5t74.5 -21.5v-190zM430 1247q47 0 80 -34.5t33 -77.5q0 -50 -37 -83.5t-76 -33.5q-49 0 -83 33.5t-34 83.5q0 43 31 77.5t86 34.5zM430 993q47 0 80 -34.5t33 -77.5q0 -50 -37 -83.5
t-76 -33.5q-49 0 -83 33.5t-34 83.5q0 43 31 77.5t86 34.5z" />
    <glyph glyph-name="uni0685.init" unicode="&#x685;" horiz-adv-x="1003" 
d="M627 190l-55 113q-39 78 -94 125t-121 47q-43 0 -73.5 -18.5t-59.5 -67.5l-168 96q63 99 137 143t180 44q82 0 141.5 -27t106.5 -76t87 -119.5t81 -156.5q29 -60 56.5 -81.5t78.5 -21.5v-190h-923q-35 0 -53.5 29.5t-18.5 64.5t18.5 65.5t53.5 30.5h626zM485 987
q48 0 80.5 -35t32.5 -78q0 -49 -37 -82.5t-76 -33.5q-49 0 -82.5 33.5t-33.5 82.5q0 43 30.5 78t85.5 35zM238 987q51 0 81.5 -34t30.5 -79q0 -53 -35.5 -84.5t-76.5 -31.5q-47 0 -81 34.5t-34 81.5q0 41 30.5 77t84.5 36zM363 1200q47 0 79.5 -35t32.5 -78q0 -49 -37 -82.5
t-75 -33.5q-50 0 -83.5 33.5t-33.5 82.5q0 43 30.5 78t86.5 35z" />
    <glyph glyph-name="uni0685.medi" unicode="&#x685;" horiz-adv-x="909" 
d="M1 0q-35 0 -53.5 29.5t-18.5 64.5t18.5 65.5t53.5 30.5h626l-55 113q-39 78 -94 125t-121 47q-43 0 -73.5 -18.5t-59.5 -67.5l-168 96q63 99 137 143t180 44q82 0 141.5 -27t106.5 -76t87 -119.5t81 -156.5q29 -60 57.5 -81.5t63.5 -21.5v-190h-909zM485 987
q48 0 80.5 -35t32.5 -78q0 -49 -37 -82.5t-76 -33.5q-49 0 -82.5 33.5t-33.5 82.5q0 43 30.5 78t85.5 35zM238 987q51 0 81.5 -34t30.5 -79q0 -53 -35.5 -84.5t-76.5 -31.5q-47 0 -81 34.5t-34 81.5q0 41 30.5 77t84.5 36zM363 1200q47 0 79.5 -35t32.5 -78q0 -49 -37 -82.5
t-75 -33.5q-50 0 -83.5 33.5t-33.5 82.5q0 43 30.5 78t86.5 35z" />
    <glyph glyph-name="uni0685.fina" unicode="&#x685;" horiz-adv-x="993" 
d="M993 0h-563q-68 0 -109 -38t-41 -103q0 -47 18.5 -75t46.5 -42t60.5 -19.5t61.5 -5.5h53v-192h-65q-78 0 -144.5 21.5t-116 63.5t-77 104.5t-27.5 142.5t28.5 142t75 104t105.5 64.5t123 22.5h278l-55 113q-39 78 -94 125t-121 47q-43 0 -73.5 -18.5t-59.5 -67.5l-168 96
q63 99 137 143t180 44q82 0 141.5 -27t106.5 -76t87 -119.5t81 -156.5q29 -60 56.5 -81.5t74.5 -21.5v-190zM555 987q48 0 80.5 -35t32.5 -78q0 -49 -37 -82.5t-76 -33.5q-49 0 -82.5 33.5t-33.5 82.5q0 43 30.5 78t85.5 35zM308 987q51 0 81.5 -34t30.5 -79
q0 -53 -35.5 -84.5t-76.5 -31.5q-47 0 -81 34.5t-34 81.5q0 41 30.5 77t84.5 36zM433 1200q47 0 79.5 -35t32.5 -78q0 -49 -37 -82.5t-75 -33.5q-50 0 -83.5 33.5t-33.5 82.5q0 43 30.5 78t86.5 35z" />
    <glyph glyph-name="uni0689.fina" unicode="&#x689;" horiz-adv-x="831" 
d="M381 0h-2q-32 0 -55 -23q-23 -24 -23 -56q0 -33 21.5 -56t57.5 -23q32 0 55.5 23t23.5 56q0 32 -23 56q-24 23 -55 23zM217 0h-125v190h315q72 0 110 43t38 99q0 24 -8.5 50t-26.5 46.5t-46 33.5t-67 13h-315v193h319q74 0 135.5 -27t105.5 -72t68.5 -106.5t24.5 -130.5
q0 -80 -30 -142h116v-190h-286q2 -3 4 -7q14 -33 14 -71t-14.5 -71t-39 -57.5t-57.5 -39t-71 -14.5t-71 14.5t-57.5 39t-39 57.5t-14.5 71t15 71q1 4 3 7z" />
    <glyph glyph-name="uni068A.fina" unicode="&#x68a;" horiz-adv-x="831" 
d="M92 190h315q72 0 110 43t38 99q0 24 -8.5 50t-26.5 46.5t-46 33.5t-67 13h-315v193h319q74 0 135.5 -27t105.5 -72t68.5 -106.5t24.5 -130.5q0 -80 -30 -142h116v-190h-739v190zM335 -322q-47 0 -81 34t-34 81t34 81t81 34t80.5 -34t33.5 -81t-33.5 -81t-80.5 -34z" />
    <glyph glyph-name="uni068B.fina" unicode="&#x68b;" horiz-adv-x="831" 
d="M92 190h315q72 0 110 43t38 99q0 24 -8.5 50t-26.5 46.5t-46 33.5t-67 13h-315v193h319q74 0 135.5 -27t105.5 -72t68.5 -106.5t24.5 -130.5q0 -80 -30 -142h116v-190h-739v190zM387 991q-39 0 -73 -25.5t-66 -68.5h219q-4 43 -21.5 68.5t-58.5 25.5zM141 831v66h47v252
h62v-166q35 41 69.5 58.5t71.5 17.5q43 0 69.5 -18.5t43 -48t22.5 -68.5t6 -80v-13h-391zM335 -322q-47 0 -81 34t-34 81t34 81t81 34t80.5 -34t33.5 -81t-33.5 -81t-80.5 -34z" />
    <glyph glyph-name="uni068F.fina" unicode="&#x68f;" horiz-adv-x="831" 
d="M92 190h315q72 0 110 43t38 99q0 24 -8.5 50t-26.5 46.5t-46 33.5t-67 13h-315v193h319q74 0 135.5 -27t105.5 -72t68.5 -106.5t24.5 -130.5q0 -80 -30 -142h116v-190h-739v190zM399.5 1006q-30.5 35 -30.5 78q0 49 33.5 82.5t82.5 33.5q39 0 76 -33.5t37 -82.5
q0 -43 -32.5 -78t-80.5 -35q-55 0 -85.5 35zM153.5 1007q-30.5 36 -30.5 77q0 47 34 81.5t81 34.5q41 0 76.5 -31.5t35.5 -84.5q0 -45 -30.5 -79t-81.5 -34q-54 0 -84.5 36zM276.5 793q-30.5 35 -30.5 78q0 49 33.5 82.5t83.5 33.5q38 0 75 -33.5t37 -82.5q0 -43 -32.5 -78
t-79.5 -35q-56 0 -86.5 35z" />
    <glyph glyph-name="uni0690.fina" unicode="&#x690;" horiz-adv-x="831" 
d="M92 190h315q72 0 110 43t38 99q0 24 -8.5 50t-26.5 46.5t-46 33.5t-67 13h-315v193h319q74 0 135.5 -27t105.5 -72t68.5 -106.5t24.5 -130.5q0 -80 -30 -142h116v-190h-739v190zM437 977q-47 0 -74 30t-27 66q0 43 29 73t72 30q34 0 66 -30t32 -73q0 -36 -28.5 -66
t-69.5 -30zM222 977q-47 0 -74 31t-27 65q0 43 30 73t71 30q34 0 65 -27.5t31 -75.5q0 -38 -26.5 -67t-69.5 -29zM440 755q-47 0 -74 30t-27 66q0 43 29 73t72 30q34 0 66 -30t32 -73q0 -36 -28.5 -66t-69.5 -30zM225 755q-47 0 -74 31t-27 65q0 43 30 73t71 30
q34 0 65 -27.5t31 -75.5q0 -38 -26.5 -67t-69.5 -29z" />
    <glyph glyph-name="uni0692.fina" unicode="&#x692;" horiz-adv-x="626" 
d="M282 59q33 54 44 96t11 87q0 172 -156 268l97 170q119 -78 184.5 -187.5t65.5 -232.5v-35.5t-4 -34.5h102v-190h-164q-4 -10 -10 -21.5t-12 -21.5l-201 -340l-164 94zM210 1077l58 -184l58 184h115l-83 -256q-10 -28 -33.5 -42.5t-56.5 -14.5q-31 0 -55.5 13.5
t-34.5 43.5l-83 256h115z" />
    <glyph glyph-name="uni0693.fina" unicode="&#x693;" horiz-adv-x="696" 
d="M353 -209q0 -30 19 -50.5t52 -20.5q28 0 49 20.5t21 50.5q0 28 -21 49t-49 21q-30 0 -50.5 -21t-20.5 -49zM289 -298l-50 -85l-164 94l207 348q33 54 44 96t11 87q0 172 -156 268l97 170q119 -78 184.5 -187.5t65.5 -232.5v-35.5t-4 -34.5h172v-190h-234
q-4 -10 -10 -21.5t-12 -21.5l-2 -4q26 -2 50 -12q29 -13 51 -35t35 -51.5t13 -62.5q0 -35 -13 -64t-35 -51t-51.5 -35t-62.5 -13q-35 0 -64 13t-51 35q-12 12 -21 25z" />
    <glyph glyph-name="uni0694.fina" unicode="&#x694;" horiz-adv-x="737" 
d="M282 59q33 54 44 96t11 87q0 172 -155 268l96 170q119 -78 184.5 -187.5t65.5 -232.5v-35.5t-4 -34.5h212v-190h-274q-4 -10 -10 -21.5t-12 -21.5l-201 -340l-164 94zM550 -202q47 0 79.5 -34.5t32.5 -77.5q0 -49 -36.5 -83t-75.5 -34q-50 0 -83.5 34t-33.5 83
q0 43 30.5 77.5t86.5 34.5z" />
    <glyph glyph-name="uni0695.fina" unicode="&#x695;" horiz-adv-x="636" 
d="M292 59q33 54 44 96t11 87q0 172 -156 268l97 170q119 -78 184.5 -187.5t65.5 -232.5v-35.5t-4 -34.5h102v-190h-164q-4 -10 -10 -21.5t-12 -21.5l-201 -340l-164 94zM191 -473l57 -184l58 184h116l-84 -256q-10 -28 -33.5 -42.5t-56.5 -14.5q-31 0 -55.5 13.5
t-34.5 43.5l-83 256h116z" />
    <glyph glyph-name="uni0696.fina" unicode="&#x696;" horiz-adv-x="824" 
d="M370 59q33 54 44 96t11 87q0 172 -155 268l96 170q119 -78 184.5 -187.5t65.5 -232.5v-35.5t-4 -34.5h212v-190h-274q-4 -10 -10 -21.5t-12 -21.5l-201 -340l-164 94zM638 -202q47 0 79.5 -34.5t32.5 -77.5q0 -49 -36.5 -83t-75.5 -34q-50 0 -83.5 34t-33.5 83
q0 43 30.5 77.5t86.5 34.5zM192 347q47 0 79.5 -34.5t32.5 -77.5q0 -49 -36.5 -83t-75.5 -34q-50 0 -83.5 34t-33.5 83q0 43 30.5 77.5t86.5 34.5z" />
    <glyph glyph-name="uni0697.fina" unicode="&#x697;" horiz-adv-x="666" 
d="M437 997q48 0 80.5 -34.5t32.5 -77.5q0 -49 -37 -83t-76 -34q-49 0 -82.5 34t-33.5 83q0 43 30.5 77.5t85.5 34.5zM190 997q51 0 81.5 -33.5t30.5 -78.5q0 -54 -35.5 -85.5t-76.5 -31.5q-47 0 -81 35t-34 82q0 41 30.5 76.5t84.5 35.5zM323 59q33 54 44 96t11 87
q0 172 -155 268l96 170q119 -78 184.5 -187.5t65.5 -232.5v-35.5t-4 -34.5h102v-190h-164q-4 -10 -10 -21.5t-12 -21.5l-201 -340l-164 94z" />
    <glyph glyph-name="uni0699.fina" unicode="&#x699;" horiz-adv-x="667" 
d="M437 1243q48 0 80.5 -34.5t32.5 -77.5q0 -49 -37 -83t-76 -34q-49 0 -82.5 34t-33.5 83q0 43 30.5 77.5t85.5 34.5zM190 1243q51 0 81.5 -33.5t30.5 -78.5q0 -54 -35.5 -85.5t-76.5 -31.5q-47 0 -81 35t-34 82q0 41 30.5 76.5t84.5 35.5zM323 59q33 54 44 96t11 87
q0 172 -155 268l96 170q119 -78 184.5 -187.5t65.5 -232.5v-35.5t-4 -34.5h102v-190h-164q-4 -10 -10 -21.5t-12 -21.5l-201 -340l-164 94zM437 997q48 0 80.5 -34.5t32.5 -77.5q0 -49 -37 -83t-76 -34q-49 0 -82.5 34t-33.5 83q0 43 30.5 77.5t85.5 34.5zM190 997
q51 0 81.5 -33.5t30.5 -78.5q0 -54 -35.5 -85.5t-76.5 -31.5q-47 0 -81 35t-34 82q0 41 30.5 76.5t84.5 35.5z" />
    <glyph glyph-name="uni069A.init" unicode="&#x69a;" horiz-adv-x="1179" 
d="M1 0q-37 0 -54.5 29.5t-17.5 64.5t17.5 65.5t54.5 30.5q30 0 57 12.5t46.5 33t30.5 47t11 53.5v344h193v-344q0 -39 -7.5 -75t-25.5 -71h67q27 0 53.5 11.5t47 32t33 47t12.5 55.5v344h190v-344q0 -39 -6 -75t-26 -71h67q57 0 100 43t43 103v344h193v-344
q0 -66 -24.5 -126t-68.5 -107.5t-105.5 -75t-135.5 -27.5h-135v100q-98 -100 -238 -100h-133v98q-102 -98 -239 -98zM599 1011q47 0 79.5 -35t32.5 -78q0 -49 -36.5 -83t-75.5 -34q-49 0 -83 34t-34 83q0 43 30.5 78t86.5 35zM595 -322q-47 0 -81 34t-34 81t34 81t81 34
t80.5 -34t33.5 -81t-33.5 -81t-80.5 -34z" />
    <glyph glyph-name="uni069A.medi" unicode="&#x69a;" horiz-adv-x="1173" 
d="M601 1011q47 0 79.5 -35t32.5 -78q0 -49 -36.5 -83t-75.5 -34q-49 0 -83 34t-34 83q0 43 30.5 78t86.5 35zM1 0q-37 0 -54.5 29.5t-17.5 64.5t17.5 65.5t54.5 30.5q30 0 57 12.5t46.5 33t30.5 47t11 53.5v344h193v-344q0 -39 -7.5 -75t-25.5 -71h67q27 0 53.5 11.5t47 32
t33 47t12.5 55.5v344h190v-344q0 -39 -6 -75t-26 -71h67q57 0 100 43t43 103v344h193v-344q0 -74 -33 -146h127v-190h-190v98q-45 -45 -105.5 -71.5t-132.5 -26.5h-135v100q-98 -100 -238 -100h-133v98q-102 -98 -239 -98zM605 -322q-47 0 -81 34t-34 81t34 81t81 34
t80.5 -34t33.5 -81t-33.5 -81t-80.5 -34z" />
    <glyph glyph-name="uni069A.fina" unicode="&#x69a;" horiz-adv-x="1771" 
d="M1178 978q47 0 79.5 -35t32.5 -78q0 -49 -37 -83t-75 -34q-50 0 -83.5 34t-33.5 83q0 43 30.5 78t86.5 35zM743 680h195v-490h22q27 0 53.5 11.5t47 32t33 47t12.5 55.5v344h190v-344q0 -39 -6 -75t-26 -71h67q57 0 100 43t43 103v344h193v-344q0 -74 -33 -146h137v-190
h-210v88q-43 -41 -100.5 -64.5t-127.5 -23.5h-135v100q-98 -100 -238 -100h-36q-17 -70 -54 -129t-91 -103t-123.5 -69t-153.5 -25t-160 31t-132 85t-89 129t-33 165q0 106 37 187t96.5 136.5t137 83t157.5 27.5v-190q-47 -2 -88 -17.5t-72.5 -46.5t-50 -75t-18.5 -101
q0 -98 61.5 -160.5t163.5 -62.5q98 0 164.5 60.5t66.5 162.5v592zM1175 -322q-47 0 -81 34t-34 81t34 81t81 34t80.5 -34t33.5 -81t-33.5 -81t-80.5 -34z" />
    <glyph glyph-name="uni069B.init" unicode="&#x69b;" horiz-adv-x="1179" 
d="M1 0q-37 0 -54.5 29.5t-17.5 64.5t17.5 65.5t54.5 30.5q30 0 57 12.5t46.5 33t30.5 47t11 53.5v344h193v-344q0 -39 -7.5 -75t-25.5 -71h67q27 0 53.5 11.5t47 32t33 47t12.5 55.5v344h190v-344q0 -39 -6 -75t-26 -71h67q57 0 100 43t43 103v344h193v-344
q0 -66 -24.5 -126t-68.5 -107.5t-105.5 -75t-135.5 -27.5h-135v100q-98 -100 -238 -100h-133v98q-102 -98 -239 -98zM720 -295q-55 0 -86 35t-31 78q0 49 34 82.5t83 33.5q39 0 76 -33.5t37 -82.5q0 -43 -33 -78t-80 -35zM472 -295q-53 0 -84 36t-31 77q0 47 34 81.5
t81 34.5q41 0 77 -31.5t36 -84.5q0 -45 -31 -79t-82 -34zM597 -508q-55 0 -86 35t-31 78q0 49 34 82.5t83 33.5q39 0 76 -33.5t37 -82.5q0 -43 -33 -78t-80 -35z" />
    <glyph glyph-name="uni069B.medi" unicode="&#x69b;" horiz-adv-x="1173" 
d="M1 0q-37 0 -54.5 29.5t-17.5 64.5t17.5 65.5t54.5 30.5q30 0 57 12.5t46.5 33t30.5 47t11 53.5v344h193v-344q0 -39 -7.5 -75t-25.5 -71h67q27 0 53.5 11.5t47 32t33 47t12.5 55.5v344h190v-344q0 -39 -6 -75t-26 -71h67q57 0 100 43t43 103v344h193v-344q0 -74 -33 -146
h127v-190h-190v98q-45 -45 -105.5 -71.5t-132.5 -26.5h-135v100q-98 -100 -238 -100h-133v98q-102 -98 -239 -98zM720 -295q-55 0 -86 35t-31 78q0 49 34 82.5t83 33.5q39 0 76 -33.5t37 -82.5q0 -43 -33 -78t-80 -35zM472 -295q-53 0 -84 36t-31 77q0 47 34 81.5t81 34.5
q41 0 77 -31.5t36 -84.5q0 -45 -31 -79t-82 -34zM597 -508q-55 0 -86 35t-31 78q0 49 34 82.5t83 33.5q39 0 76 -33.5t37 -82.5q0 -43 -33 -78t-80 -35z" />
    <glyph glyph-name="uni069B.fina" unicode="&#x69b;" horiz-adv-x="1771" 
d="M743 680h195v-490h22q27 0 53.5 11.5t47 32t33 47t12.5 55.5v344h190v-344q0 -39 -6 -75t-26 -71h67q57 0 100 43t43 103v344h193v-344q0 -74 -33 -146h137v-190h-210v88q-43 -41 -100.5 -64.5t-127.5 -23.5h-135v100q-98 -100 -238 -100h-36q-17 -70 -54 -129t-91 -103
t-123.5 -69t-153.5 -25t-160 31t-132 85t-89 129t-33 165q0 106 37 187t96.5 136.5t137 83t157.5 27.5v-190q-47 -2 -88 -17.5t-72.5 -46.5t-50 -75t-18.5 -101q0 -98 61.5 -160.5t163.5 -62.5q98 0 164.5 60.5t66.5 162.5v592zM1300 -295q-55 0 -86 35t-31 78q0 49 34 82.5
t83 33.5q39 0 76 -33.5t37 -82.5q0 -43 -33 -78t-80 -35zM1052 -295q-53 0 -84 36t-31 77q0 47 34 81.5t81 34.5q41 0 77 -31.5t36 -84.5q0 -45 -31 -79t-82 -34zM1177 -508q-55 0 -86 35t-31 78q0 49 34 82.5t83 33.5q39 0 76 -33.5t37 -82.5q0 -43 -33 -78t-80 -35z" />
    <glyph glyph-name="uni069C.init" unicode="&#x69c;" horiz-adv-x="1179" 
d="M1 0q-37 0 -54.5 29.5t-17.5 64.5t17.5 65.5t54.5 30.5q30 0 57 12.5t46.5 33t30.5 47t11 53.5v344h193v-344q0 -39 -7.5 -75t-25.5 -71h67q27 0 53.5 11.5t47 32t33 47t12.5 55.5v344h190v-344q0 -39 -6 -75t-26 -71h67q57 0 100 43t43 103v344h193v-344
q0 -66 -24.5 -126t-68.5 -107.5t-105.5 -75t-135.5 -27.5h-135v100q-98 -100 -238 -100h-133v98q-102 -98 -239 -98zM599 1221q47 0 79.5 -35t32.5 -78q0 -49 -36.5 -83t-75.5 -34q-49 0 -83 34t-34 83q0 43 30.5 78t86.5 35zM722 1008q47 0 79.5 -35t32.5 -78
q0 -49 -37 -83t-75 -34q-50 0 -83.5 34t-33.5 83q0 43 30.5 78t86.5 35zM474 1008q51 0 81.5 -34t30.5 -79q0 -53 -35.5 -85t-76.5 -32q-47 0 -81 35t-34 82q0 41 31 77t84 36zM720 -295q-55 0 -86 35t-31 78q0 49 34 82.5t83 33.5q39 0 76 -33.5t37 -82.5q0 -43 -33 -78
t-80 -35zM472 -295q-53 0 -84 36t-31 77q0 47 34 81.5t81 34.5q41 0 77 -31.5t36 -84.5q0 -45 -31 -79t-82 -34zM597 -508q-55 0 -86 35t-31 78q0 49 34 82.5t83 33.5q39 0 76 -33.5t37 -82.5q0 -43 -33 -78t-80 -35z" />
    <glyph glyph-name="uni069C.medi" unicode="&#x69c;" horiz-adv-x="1173" 
d="M724 1008q47 0 79.5 -35t32.5 -78q0 -49 -36.5 -83t-75.5 -34q-50 0 -83.5 34t-33.5 83q0 43 30.5 78t86.5 35zM476 1008q51 0 81.5 -34t30.5 -79q0 -53 -35.5 -85t-76.5 -32q-47 0 -81 35t-34 82q0 41 31 77t84 36zM601 1221q47 0 79.5 -35t32.5 -78q0 -49 -36.5 -83
t-75.5 -34q-49 0 -83 34t-34 83q0 43 30.5 78t86.5 35zM1 0q-37 0 -54.5 29.5t-17.5 64.5t17.5 65.5t54.5 30.5q30 0 57 12.5t46.5 33t30.5 47t11 53.5v344h193v-344q0 -39 -7.5 -75t-25.5 -71h67q27 0 53.5 11.5t47 32t33 47t12.5 55.5v344h190v-344q0 -39 -6 -75t-26 -71
h67q57 0 100 43t43 103v344h193v-344q0 -74 -33 -146h127v-190h-190v98q-45 -45 -105.5 -71.5t-132.5 -26.5h-135v100q-98 -100 -238 -100h-133v98q-102 -98 -239 -98zM720 -295q-55 0 -86 35t-31 78q0 49 34 82.5t83 33.5q39 0 76 -33.5t37 -82.5q0 -43 -33 -78t-80 -35z
M472 -295q-53 0 -84 36t-31 77q0 47 34 81.5t81 34.5q41 0 77 -31.5t36 -84.5q0 -45 -31 -79t-82 -34zM597 -508q-55 0 -86 35t-31 78q0 49 34 82.5t83 33.5q39 0 76 -33.5t37 -82.5q0 -43 -33 -78t-80 -35z" />
    <glyph glyph-name="uni069C.fina" unicode="&#x69c;" horiz-adv-x="1771" 
d="M1300 975q48 0 80.5 -35t32.5 -78q0 -49 -37 -83t-76 -34q-49 0 -82.5 34t-33.5 83q0 43 30.5 78t85.5 35zM1053 975q51 0 81.5 -34t30.5 -79q0 -53 -35.5 -85t-76.5 -32q-47 0 -81 35t-34 82q0 41 30.5 77t84.5 36zM1178 1188q47 0 79.5 -35t32.5 -78q0 -49 -37 -83
t-75 -34q-50 0 -83.5 34t-33.5 83q0 43 30.5 78t86.5 35zM743 680h195v-490h22q27 0 53.5 11.5t47 32t33 47t12.5 55.5v344h190v-344q0 -39 -6 -75t-26 -71h67q57 0 100 43t43 103v344h193v-344q0 -74 -33 -146h137v-190h-210v88q-43 -41 -100.5 -64.5t-127.5 -23.5h-135
v100q-98 -100 -238 -100h-36q-17 -70 -54 -129t-91 -103t-123.5 -69t-153.5 -25t-160 31t-132 85t-89 129t-33 165q0 106 37 187t96.5 136.5t137 83t157.5 27.5v-190q-47 -2 -88 -17.5t-72.5 -46.5t-50 -75t-18.5 -101q0 -98 61.5 -160.5t163.5 -62.5q98 0 164.5 60.5
t66.5 162.5v592zM1300 -295q-55 0 -86 35t-31 78q0 49 34 82.5t83 33.5q39 0 76 -33.5t37 -82.5q0 -43 -33 -78t-80 -35zM1052 -295q-53 0 -84 36t-31 77q0 47 34 81.5t81 34.5q41 0 77 -31.5t36 -84.5q0 -45 -31 -79t-82 -34zM1177 -508q-55 0 -86 35t-31 78q0 49 34 82.5
t83 33.5q39 0 76 -33.5t37 -82.5q0 -43 -33 -78t-80 -35z" />
    <glyph glyph-name="uni069D.init" unicode="&#x69d;" horiz-adv-x="1429" 
d="M1 0q-37 0 -54.5 29.5t-17.5 64.5t17.5 65.5t54.5 30.5h121v398h192v-240l64 64q71 73 133.5 123.5t122 81t120 44t127.5 13.5q135 0 223.5 -55.5t141.5 -146.5t74.5 -209t21.5 -243v-20h-1341zM873 481q-129 0 -233.5 -79.5t-208.5 -211.5h708q-12 66 -31.5 119t-50 92
t-75.5 59.5t-109 20.5zM890 -305q-55 0 -86 35t-31 78q0 49 34 82.5t83 33.5q39 0 76 -33.5t37 -82.5q0 -43 -33 -78t-80 -35zM642 -305q-53 0 -84 36t-31 77q0 47 34 81.5t81 34.5q41 0 77 -31.5t36 -84.5q0 -45 -31 -79t-82 -34z" />
    <glyph glyph-name="uni069D.medi" unicode="&#x69d;" horiz-adv-x="1456" 
d="M1 0q-37 0 -54.5 29.5t-17.5 64.5t17.5 65.5t54.5 30.5h123v398h192v-240l64 64q71 73 133.5 123.5t122 81t119 44t124.5 13.5q113 0 193 -37t132 -101.5t83 -152.5t49 -193h121v-190h-1456zM875 481q-63 0 -118.5 -19.5t-107.5 -56t-105.5 -91t-110.5 -124.5h708
q-12 66 -31.5 119t-50 92t-75.5 59.5t-109 20.5zM940 -305q-55 0 -86 35t-31 78q0 49 34 82.5t83 33.5q39 0 76 -33.5t37 -82.5q0 -43 -33 -78t-80 -35zM692 -305q-53 0 -84 36t-31 77q0 47 34 81.5t81 34.5q41 0 77 -31.5t36 -84.5q0 -45 -31 -79t-82 -34z" />
    <glyph glyph-name="uni069D.fina" unicode="&#x69d;" horiz-adv-x="2078" 
d="M1552 672q101 0 172.5 -36t119.5 -99.5t74.5 -152.5t37.5 -194h123v-190h-1141q-8 -106 -49 -183t-100.5 -127t-134.5 -74t-150 -24q-78 0 -153 28t-133 80t-93 128t-35 174q0 107 37 187.5t96.5 136t137 83t157.5 27.5v-190q-47 -2 -88 -17.5t-72.5 -46t-50 -75
t-18.5 -101.5q0 -108 63.5 -165.5t161.5 -57.5t164.5 60.5t66.5 162.5v594h195v-250q45 49 113.5 106.5t149.5 104.5t170 79t179 32zM1563 479q-109 0 -241 -67.5t-267 -221.5h708q-24 152 -64 220.5t-136 68.5zM1530 -305q-55 0 -86 35t-31 78q0 49 34 82.5t83 33.5
q39 0 76 -33.5t37 -82.5q0 -43 -33 -78t-80 -35zM1282 -305q-53 0 -84 36t-31 77q0 47 34 81.5t81 34.5q41 0 77 -31.5t36 -84.5q0 -45 -31 -79t-82 -34z" />
    <glyph glyph-name="uni069E.init" unicode="&#x69e;" horiz-adv-x="1429" 
d="M1 0q-37 0 -54.5 29.5t-17.5 64.5t17.5 65.5t54.5 30.5h121v398h192v-240l64 64q71 73 133.5 123.5t122 81t120 44t127.5 13.5q135 0 223.5 -55.5t141.5 -146.5t74.5 -209t21.5 -243v-20h-1341zM873 481q-129 0 -233.5 -79.5t-208.5 -211.5h708q-12 66 -31.5 119t-50 92
t-75.5 59.5t-109 20.5zM750 997q48 0 80.5 -35t32.5 -78q0 -49 -37 -82.5t-76 -33.5q-49 0 -82.5 33.5t-33.5 82.5q0 43 30.5 78t85.5 35zM503 997q51 0 81.5 -34t30.5 -79q0 -53 -35.5 -84.5t-76.5 -31.5q-47 0 -81 34.5t-34 81.5q0 41 30.5 77t84.5 36zM628 1210
q47 0 79.5 -35t32.5 -78q0 -49 -37 -82.5t-75 -33.5q-50 0 -83.5 33.5t-33.5 82.5q0 43 30.5 78t86.5 35z" />
    <glyph glyph-name="uni069E.medi" unicode="&#x69e;" horiz-adv-x="1456" 
d="M1 0q-37 0 -54.5 29.5t-17.5 64.5t17.5 65.5t54.5 30.5h123v398h192v-240l64 64q71 73 133.5 123.5t122 81t119 44t124.5 13.5q113 0 193 -37t132 -101.5t83 -152.5t49 -193h121v-190h-1456zM875 481q-63 0 -118.5 -19.5t-107.5 -56t-105.5 -91t-110.5 -124.5h708
q-12 66 -31.5 119t-50 92t-75.5 59.5t-109 20.5zM730 1007q48 0 80.5 -35t32.5 -78q0 -49 -37 -82.5t-76 -33.5q-49 0 -82.5 33.5t-33.5 82.5q0 43 30.5 78t85.5 35zM483 1007q51 0 81.5 -34t30.5 -79q0 -53 -35.5 -84.5t-76.5 -31.5q-47 0 -81 34.5t-34 81.5q0 41 30.5 77
t84.5 36zM608 1220q47 0 79.5 -35t32.5 -78q0 -49 -37 -82.5t-75 -33.5q-50 0 -83.5 33.5t-33.5 82.5q0 43 30.5 78t86.5 35z" />
    <glyph glyph-name="uni069E.fina" unicode="&#x69e;" horiz-adv-x="2078" 
d="M1552 672q101 0 172.5 -36t119.5 -99.5t74.5 -152.5t37.5 -194h123v-190h-1141q-8 -106 -49 -183t-100.5 -127t-134.5 -74t-150 -24q-78 0 -153 28t-133 80t-93 128t-35 174q0 107 37 187.5t96.5 136t137 83t157.5 27.5v-190q-47 -2 -88 -17.5t-72.5 -46t-50 -75
t-18.5 -101.5q0 -108 63.5 -165.5t161.5 -57.5t164.5 60.5t66.5 162.5v594h195v-250q45 49 113.5 106.5t149.5 104.5t170 79t179 32zM1563 479q-109 0 -241 -67.5t-267 -221.5h708q-24 152 -64 220.5t-136 68.5zM1330 997q48 0 80.5 -35t32.5 -78q0 -49 -37 -82.5t-76 -33.5
q-49 0 -82.5 33.5t-33.5 82.5q0 43 30.5 78t85.5 35zM1208 1210q47 0 79.5 -35t32.5 -78q0 -49 -37 -82.5t-75 -33.5q-50 0 -83.5 33.5t-33.5 82.5q0 43 30.5 78t86.5 35zM1083 997q51 0 81.5 -34t30.5 -79q0 -53 -35.5 -84.5t-76.5 -31.5q-47 0 -81 34.5t-34 81.5
q0 41 30.5 77t84.5 36z" />
    <glyph glyph-name="uni069F.init" unicode="&#x69f;" horiz-adv-x="1445" 
d="M1 0q-37 0 -54.5 29.5t-17.5 64.5t17.5 65.5t54.5 30.5h127v973h192v-815l64 64q71 73 133.5 123.5t122 81t120 44t127.5 13.5q136 0 224 -55.5t141 -146.5t74.5 -209t21.5 -243v-20h-1347zM879 481q-129 0 -233.5 -79.5t-208.5 -211.5h709q-13 66 -32.5 119t-50 92
t-75.5 59.5t-109 20.5zM800 1007q48 0 80.5 -35t32.5 -78q0 -49 -37 -82.5t-76 -33.5q-49 0 -82.5 33.5t-33.5 82.5q0 43 30.5 78t85.5 35zM553 1007q51 0 81.5 -34t30.5 -79q0 -53 -35.5 -84.5t-76.5 -31.5q-47 0 -81 34.5t-34 81.5q0 41 30.5 77t84.5 36zM678 1220
q47 0 79.5 -35t32.5 -78q0 -49 -37 -82.5t-75 -33.5q-50 0 -83.5 33.5t-33.5 82.5q0 43 30.5 78t86.5 35z" />
    <glyph glyph-name="uni069F.medi" unicode="&#x69f;" horiz-adv-x="1452" 
d="M1 0q-37 0 -54.5 29.5t-17.5 64.5t17.5 65.5t54.5 30.5h127v973h192v-815l64 64q71 73 133.5 123.5t122 81t119 44t124.5 13.5q113 0 193 -37t132 -101.5t83 -152.5t49 -193h113v-190h-1452zM879 481q-63 0 -118.5 -19.5t-107.5 -56t-105.5 -91t-110.5 -124.5h709
q-13 66 -32.5 119t-50 92t-75.5 59.5t-109 20.5zM800 997q48 0 80.5 -35t32.5 -78q0 -49 -37 -82.5t-76 -33.5q-49 0 -82.5 33.5t-33.5 82.5q0 43 30.5 78t85.5 35zM553 997q51 0 81.5 -34t30.5 -79q0 -53 -35.5 -84.5t-76.5 -31.5q-47 0 -81 34.5t-34 81.5q0 41 30.5 77
t84.5 36zM678 1210q47 0 79.5 -35t32.5 -78q0 -49 -37 -82.5t-75 -33.5q-50 0 -83.5 33.5t-33.5 82.5q0 43 30.5 78t86.5 35z" />
    <glyph glyph-name="uni069F.fina" unicode="&#x69f;" horiz-adv-x="1585" 
d="M1012 481q-64 0 -119.5 -19.5t-107.5 -56t-105.5 -91t-110.5 -124.5h709q-13 66 -32 119t-50 92t-76 59.5t-108 20.5zM1585 190v-190h-1491v190h166v973h192v-815l64 64q72 73 134 123.5t121.5 81t119 44t125.5 13.5q112 0 192 -37t132 -101.5t83 -152.5t49 -193h113z
M930 997q48 0 80.5 -35t32.5 -78q0 -49 -37 -82.5t-76 -33.5q-49 0 -82.5 33.5t-33.5 82.5q0 43 30.5 78t85.5 35zM683 997q51 0 81.5 -34t30.5 -79q0 -53 -35.5 -84.5t-76.5 -31.5q-47 0 -81 34.5t-34 81.5q0 41 30.5 77t84.5 36zM808 1210q47 0 79.5 -35t32.5 -78
q0 -49 -37 -82.5t-75 -33.5q-50 0 -83.5 33.5t-33.5 82.5q0 43 30.5 78t86.5 35z" />
    <glyph glyph-name="uni06A0.init" unicode="&#x6a0;" horiz-adv-x="955" 
d="M1 0q-37 0 -54.5 29.5t-17.5 64.5t17.5 65.5t54.5 30.5h153q-16 33 -25.5 72t-9.5 78q0 80 28 141.5t74 102.5t104.5 61.5t119.5 20.5q76 0 148.5 -32t128.5 -104l-138 -135q-47 78 -143 78q-53 0 -91 -37t-38 -98q0 -59 37 -103.5t108 -44.5h406v-190h-862zM490 987
q48 0 80.5 -35t32.5 -78q0 -49 -37 -82.5t-76 -33.5q-49 0 -82.5 33.5t-33.5 82.5q0 43 30.5 78t85.5 35zM243 987q51 0 81.5 -34t30.5 -79q0 -53 -35.5 -84.5t-76.5 -31.5q-47 0 -81 34.5t-34 81.5q0 41 30.5 77t84.5 36zM368 1200q47 0 79.5 -35t32.5 -78q0 -49 -37 -82.5
t-75 -33.5q-50 0 -83.5 33.5t-33.5 82.5q0 43 30.5 78t86.5 35z" />
    <glyph glyph-name="uni06A0.medi" unicode="&#x6a0;" horiz-adv-x="862" 
d="M1 0q-37 0 -54.5 29.5t-17.5 64.5t17.5 65.5t54.5 30.5h153q-16 33 -25.5 72t-9.5 78q0 80 28 141.5t74 102.5t104.5 61.5t119.5 20.5q76 0 148.5 -32t128.5 -104l-138 -135q-47 78 -143 78q-53 0 -91 -37t-38 -98q0 -59 37 -103.5t108 -44.5h406v-190h-862zM490 977
q48 0 80.5 -35t32.5 -78q0 -49 -37 -82.5t-76 -33.5q-49 0 -82.5 33.5t-33.5 82.5q0 43 30.5 78t85.5 35zM243 977q51 0 81.5 -34t30.5 -79q0 -53 -35.5 -84.5t-76.5 -31.5q-47 0 -81 34.5t-34 81.5q0 41 30.5 77t84.5 36zM368 1190q47 0 79.5 -35t32.5 -78q0 -49 -37 -82.5
t-75 -33.5q-50 0 -83.5 33.5t-33.5 82.5q0 43 30.5 78t86.5 35z" />
    <glyph glyph-name="uni06A0.fina" unicode="&#x6a0;" horiz-adv-x="1101" 
d="M420 190q-17 33 -26 72t-9 78q0 80 27.5 141.5t73.5 102.5t104.5 61.5t119.5 20.5q76 0 149 -32t128 -104l-137 -135q-47 78 -144 78q-53 0 -91 -37t-38 -98q0 -57 33 -100t98 -48h394v-190h-666q-68 0 -109 -38t-41 -103q0 -47 18.5 -75t46.5 -43t60.5 -20.5t61.5 -5.5
h207v-190h-219q-78 0 -144.5 21.5t-116 63.5t-77 104.5t-27.5 142.5q0 77 27.5 138.5t72.5 104.5t103.5 65.5t120.5 24.5zM790 977q48 0 80.5 -35t32.5 -78q0 -49 -37 -82.5t-76 -33.5q-49 0 -82.5 33.5t-33.5 82.5q0 43 30.5 78t85.5 35zM543 977q51 0 81.5 -34t30.5 -79
q0 -53 -35.5 -84.5t-76.5 -31.5q-47 0 -81 34.5t-34 81.5q0 41 30.5 77t84.5 36zM668 1190q47 0 79.5 -35t32.5 -78q0 -49 -37 -82.5t-75 -33.5q-50 0 -83.5 33.5t-33.5 82.5q0 43 30.5 78t86.5 35z" />
    <glyph glyph-name="uni06A1.init" unicode="&#x6a1;" horiz-adv-x="841" 
d="M1 0q-37 0 -54.5 29.5t-17.5 64.5t17.5 65.5t54.5 30.5h145q-16 35 -23.5 72t-7.5 78q0 63 23.5 123.5t69 106.5t111 74t147.5 28h270v-672h-735zM541 479h-71q-45 0 -77 -13t-51.5 -34.5t-27.5 -46.5t-8 -49q0 -66 42 -106t113 -40h80v289z" />
    <glyph glyph-name="uni06A1.medi" unicode="&#x6a1;" horiz-adv-x="897" 
d="M1 0q-37 0 -54.5 29.5t-17.5 64.5t17.5 65.5t54.5 30.5h149q-28 70 -28 144t26.5 134t71.5 103t104.5 68t126.5 25q74 0 134.5 -27t104.5 -72t67.5 -105.5t23.5 -127.5q0 -41 -9 -77t-22 -65h148v-190h-897zM449 190q66 0 104 46.5t38 95.5q0 51 -38 96t-104 45
q-59 0 -99 -41t-40 -100q0 -60 39 -101t100 -41z" />
    <glyph glyph-name="uni06A1.fina" unicode="&#x6a1;" horiz-adv-x="1523" 
d="M1077 664q74 0 134.5 -27t104.5 -72t67.5 -105.5t23.5 -127.5q0 -41 -9.5 -77t-21.5 -65h148v-190h-1096q-82 0 -145.5 28.5t-106.5 75t-64.5 105.5t-21.5 123q0 80 38 156.5t116 127.5l139 -141q-53 -20 -78 -60t-25 -85q0 -54 37 -97t115 -43h344q-29 70 -29 144
t27 134t72 103t104.5 68t126.5 25zM1075 190q66 0 103.5 46.5t37.5 95.5q0 51 -37.5 96t-103.5 45q-59 0 -99 -41t-40 -100q0 -60 39 -101t100 -41z" />
    <glyph glyph-name="uni06A2.init" unicode="&#x6a2;" horiz-adv-x="841" 
d="M1 0q-37 0 -54.5 29.5t-17.5 64.5t17.5 65.5t54.5 30.5h145q-16 35 -23.5 72t-7.5 78q0 63 23.5 123.5t69 106.5t111 74t147.5 28h270v-672h-735zM541 479h-71q-45 0 -77 -13t-51.5 -34.5t-27.5 -46.5t-8 -49q0 -66 42 -106t113 -40h80v289zM467 -322q-47 0 -80.5 33
t-33.5 82q0 47 33.5 81t80.5 34q45 0 80 -33t35 -82q0 -53 -33.5 -84t-81.5 -31z" />
    <glyph glyph-name="uni06A2.medi" unicode="&#x6a2;" horiz-adv-x="897" 
d="M1 0q-37 0 -54.5 29.5t-17.5 64.5t17.5 65.5t54.5 30.5h149q-28 70 -28 144t26.5 134t71.5 103t104.5 68t126.5 25q74 0 134.5 -27t104.5 -72t67.5 -105.5t23.5 -127.5q0 -41 -9 -77t-22 -65h148v-190h-897zM449 190q66 0 104 46.5t38 95.5q0 51 -38 96t-104 45
q-59 0 -99 -41t-40 -100q0 -60 39 -101t100 -41zM457 -322q-47 0 -80.5 33t-33.5 82q0 47 33.5 81t80.5 34q45 0 80 -33t35 -82q0 -53 -33.5 -84t-81.5 -31z" />
    <glyph glyph-name="uni06A2.fina" unicode="&#x6a2;" horiz-adv-x="1523" 
d="M1077 664q74 0 134.5 -27t104.5 -72t67.5 -105.5t23.5 -127.5q0 -41 -9.5 -77t-21.5 -65h148v-190h-1096q-82 0 -145.5 28.5t-106.5 75t-64.5 105.5t-21.5 123q0 80 38 156.5t116 127.5l139 -141q-53 -20 -78 -60t-25 -85q0 -54 37 -97t115 -43h344q-29 70 -29 144
t27 134t72 103t104.5 68t126.5 25zM1075 190q66 0 103.5 46.5t37.5 95.5q0 51 -37.5 96t-103.5 45q-59 0 -99 -41t-40 -100q0 -60 39 -101t100 -41zM1077 -322q-47 0 -80.5 33t-33.5 82q0 47 33.5 81t80.5 34q45 0 80 -33t35 -82q0 -53 -33.5 -84t-81.5 -31z" />
    <glyph glyph-name="uni06A3.init" unicode="&#x6a3;" horiz-adv-x="841" 
d="M1 0q-37 0 -54.5 29.5t-17.5 64.5t17.5 65.5t54.5 30.5h145q-16 35 -23.5 72t-7.5 78q0 63 23.5 123.5t69 106.5t111 74t147.5 28h270v-672h-735zM541 479h-71q-45 0 -77 -13t-51.5 -34.5t-27.5 -46.5t-8 -49q0 -66 42 -106t113 -40h80v289zM423 993q47 0 79.5 -34.5
t32.5 -77.5q0 -50 -37 -83.5t-75 -33.5q-50 0 -83.5 33.5t-33.5 83.5q0 43 30.5 77.5t86.5 34.5zM467 -322q-47 0 -80.5 33t-33.5 82q0 47 33.5 81t80.5 34q45 0 80 -33t35 -82q0 -53 -33.5 -84t-81.5 -31z" />
    <glyph glyph-name="uni06A3.medi" unicode="&#x6a3;" horiz-adv-x="897" 
d="M1 0q-37 0 -54.5 29.5t-17.5 64.5t17.5 65.5t54.5 30.5h149q-28 70 -28 144t26.5 134t71.5 103t104.5 68t126.5 25q74 0 134.5 -27t104.5 -72t67.5 -105.5t23.5 -127.5q0 -41 -9 -77t-22 -65h148v-190h-897zM449 190q66 0 104 46.5t38 95.5q0 51 -38 96t-104 45
q-59 0 -99 -41t-40 -100q0 -60 39 -101t100 -41zM447 762q-49 0 -80.5 33.5t-31.5 81.5q0 47 32.5 80.5t79.5 33.5q53 0 84 -36.5t31 -77.5t-31 -78t-84 -37zM457 -322q-47 0 -80.5 33t-33.5 82q0 47 33.5 81t80.5 34q45 0 80 -33t35 -82q0 -53 -33.5 -84t-81.5 -31z" />
    <glyph glyph-name="uni06A3.fina" unicode="&#x6a3;" horiz-adv-x="1523" 
d="M1077 664q74 0 134.5 -27t104.5 -72t67.5 -105.5t23.5 -127.5q0 -41 -9.5 -77t-21.5 -65h148v-190h-1096q-82 0 -145.5 28.5t-106.5 75t-64.5 105.5t-21.5 123q0 80 38 156.5t116 127.5l139 -141q-53 -20 -78 -60t-25 -85q0 -54 37 -97t115 -43h344q-29 70 -29 144
t27 134t72 103t104.5 68t126.5 25zM1075 190q66 0 103.5 46.5t37.5 95.5q0 51 -37.5 96t-103.5 45q-59 0 -99 -41t-40 -100q0 -60 39 -101t100 -41zM1073 762q-49 0 -81 33.5t-32 81.5q0 47 33 80.5t80 33.5q53 0 84 -36.5t31 -77.5t-31 -78t-84 -37zM767 -322
q-47 0 -80.5 33t-33.5 82q0 47 33.5 81t80.5 34q45 0 80 -33t35 -82q0 -53 -33.5 -84t-81.5 -31z" />
    <glyph glyph-name="uni06A5.init" unicode="&#x6a5;" horiz-adv-x="841" 
d="M1 0q-37 0 -54.5 29.5t-17.5 64.5t17.5 65.5t54.5 30.5h145q-16 35 -23.5 72t-7.5 78q0 63 23.5 123.5t69 106.5t111 74t147.5 28h270v-672h-735zM541 479h-71q-45 0 -77 -13t-51.5 -34.5t-27.5 -46.5t-8 -49q0 -66 42 -106t113 -40h80v289zM610 -295q-55 0 -86 35
t-31 78q0 49 34 82.5t83 33.5q39 0 76 -33.5t37 -82.5q0 -43 -33 -78t-80 -35zM362 -295q-53 0 -84 36t-31 77q0 47 34 81.5t81 34.5q41 0 77 -31.5t36 -84.5q0 -45 -31 -79t-82 -34zM487 -508q-55 0 -86 35t-31 78q0 49 34 82.5t83 33.5q39 0 76 -33.5t37 -82.5
q0 -43 -33 -78t-80 -35z" />
    <glyph glyph-name="uni06A5.medi" unicode="&#x6a5;" horiz-adv-x="897" 
d="M1 0q-37 0 -54.5 29.5t-17.5 64.5t17.5 65.5t54.5 30.5h149q-28 70 -28 144t26.5 134t71.5 103t104.5 68t126.5 25q74 0 134.5 -27t104.5 -72t67.5 -105.5t23.5 -127.5q0 -41 -9 -77t-22 -65h148v-190h-897zM449 190q66 0 104 46.5t38 95.5q0 51 -38 96t-104 45
q-59 0 -99 -41t-40 -100q0 -60 39 -101t100 -41zM580 -295q-55 0 -86 35t-31 78q0 49 34 82.5t83 33.5q39 0 76 -33.5t37 -82.5q0 -43 -33 -78t-80 -35zM332 -295q-53 0 -84 36t-31 77q0 47 34 81.5t81 34.5q41 0 77 -31.5t36 -84.5q0 -45 -31 -79t-82 -34zM457 -508
q-55 0 -86 35t-31 78q0 49 34 82.5t83 33.5q39 0 76 -33.5t37 -82.5q0 -43 -33 -78t-80 -35z" />
    <glyph glyph-name="uni06A5.fina" unicode="&#x6a5;" horiz-adv-x="1523" 
d="M1077 664q74 0 134.5 -27t104.5 -72t67.5 -105.5t23.5 -127.5q0 -41 -9.5 -77t-21.5 -65h148v-190h-1096q-82 0 -145.5 28.5t-106.5 75t-64.5 105.5t-21.5 123q0 80 38 156.5t116 127.5l139 -141q-53 -20 -78 -60t-25 -85q0 -54 37 -97t115 -43h344q-29 70 -29 144
t27 134t72 103t104.5 68t126.5 25zM1075 190q66 0 103.5 46.5t37.5 95.5q0 51 -37.5 96t-103.5 45q-59 0 -99 -41t-40 -100q0 -60 39 -101t100 -41zM1210 -295q-55 0 -86 35t-31 78q0 49 34 82.5t83 33.5q39 0 76 -33.5t37 -82.5q0 -43 -33 -78t-80 -35zM962 -295
q-53 0 -84 36t-31 77q0 47 34 81.5t81 34.5q41 0 77 -31.5t36 -84.5q0 -45 -31 -79t-82 -34zM1087 -508q-55 0 -86 35t-31 78q0 49 34 82.5t83 33.5q39 0 76 -33.5t37 -82.5q0 -43 -33 -78t-80 -35z" />
    <glyph glyph-name="uni06A7.init" unicode="&#x6a7;" horiz-adv-x="841" 
d="M1 0q-37 0 -54.5 29.5t-17.5 64.5t17.5 65.5t54.5 30.5h145q-16 35 -23.5 72t-7.5 78q0 63 23.5 123.5t69 106.5t111 74t147.5 28h270v-672h-735zM541 479h-71q-45 0 -77 -13t-51.5 -34.5t-27.5 -46.5t-8 -49q0 -66 42 -106t113 -40h80v289zM423 993q47 0 79.5 -34.5
t32.5 -77.5q0 -50 -37 -83.5t-75 -33.5q-50 0 -83.5 33.5t-33.5 83.5q0 43 30.5 77.5t86.5 34.5z" />
    <glyph glyph-name="uni06A7.medi" unicode="&#x6a7;" horiz-adv-x="897" 
d="M1 0q-37 0 -54.5 29.5t-17.5 64.5t17.5 65.5t54.5 30.5h149q-28 70 -28 144t26.5 134t71.5 103t104.5 68t126.5 25q74 0 134.5 -27t104.5 -72t67.5 -105.5t23.5 -127.5q0 -41 -9 -77t-22 -65h148v-190h-897zM449 190q66 0 104 46.5t38 95.5q0 51 -38 96t-104 45
q-59 0 -99 -41t-40 -100q0 -60 39 -101t100 -41zM447 762q-49 0 -80.5 33.5t-31.5 81.5q0 47 32.5 80.5t79.5 33.5q53 0 84 -36.5t31 -77.5t-31 -78t-84 -37z" />
    <glyph glyph-name="uni06A7.fina" unicode="&#x6a7;" horiz-adv-x="1347" 
d="M1214 0q-4 -66 -29.5 -125t-71.5 -104t-112.5 -71t-150.5 -26h-230q-116 0 -213.5 38t-167 105.5t-108.5 162t-39 206.5q0 103 38 197t116 166l135 -135q-56 -47 -78.5 -114t-22.5 -120q0 -65 25 -122.5t69 -99.5t105.5 -66.5t134.5 -24.5h246q18 0 45 3t51.5 16.5t43 40
t22.5 73.5h-105q-71 0 -137.5 19.5t-118 60.5t-83 105.5t-31.5 154.5q0 63 23.5 123.5t68.5 106.5t110.5 74t147.5 28h317v-482h133v-190h-133zM1020 479h-119q-45 0 -77 -13t-51 -34.5t-27.5 -46.5t-8.5 -49q0 -66 42 -106t114 -40h127v289zM917 993q47 0 80 -34.5
t33 -77.5q0 -50 -37 -83.5t-76 -33.5q-49 0 -83 33.5t-34 83.5q0 43 31 77.5t86 34.5z" />
    <glyph glyph-name="uni06A8.init" unicode="&#x6a8;" horiz-adv-x="841" 
d="M1 0q-37 0 -54.5 29.5t-17.5 64.5t17.5 65.5t54.5 30.5h145q-16 35 -23.5 72t-7.5 78q0 63 23.5 123.5t69 106.5t111 74t147.5 28h270v-672h-735zM541 479h-71q-45 0 -77 -13t-51.5 -34.5t-27.5 -46.5t-8 -49q0 -66 42 -106t113 -40h80v289zM547 993q48 0 80.5 -34.5
t32.5 -77.5q0 -50 -37 -83.5t-76 -33.5q-49 0 -82.5 33.5t-33.5 83.5q0 43 30.5 77.5t85.5 34.5zM300 993q51 0 81.5 -33.5t30.5 -78.5q0 -54 -35.5 -85.5t-76.5 -31.5q-47 0 -81 35t-34 82q0 41 30.5 76.5t84.5 35.5zM425 1206q47 0 79.5 -34.5t32.5 -77.5
q0 -50 -36.5 -83.5t-75.5 -33.5q-50 0 -83.5 33.5t-33.5 83.5q0 43 30.5 77.5t86.5 34.5z" />
    <glyph glyph-name="uni06A8.medi" unicode="&#x6a8;" horiz-adv-x="897" 
d="M1 0q-37 0 -54.5 29.5t-17.5 64.5t17.5 65.5t54.5 30.5h149q-28 70 -28 144t26.5 134t71.5 103t104.5 68t126.5 25q74 0 134.5 -27t104.5 -72t67.5 -105.5t23.5 -127.5q0 -41 -9 -77t-22 -65h148v-190h-897zM449 190q66 0 104 46.5t38 95.5q0 51 -38 96t-104 45
q-59 0 -99 -41t-40 -100q0 -60 39 -101t100 -41zM576 993q47 0 80 -34.5t33 -77.5q0 -50 -37 -83.5t-76 -33.5q-49 0 -83 33.5t-34 83.5q0 43 31 77.5t86 34.5zM328 993q52 0 82.5 -33.5t30.5 -78.5q0 -54 -36 -85.5t-77 -31.5q-47 0 -80.5 35t-33.5 82q0 41 30.5 76.5
t83.5 35.5zM453 1206q47 0 80 -34.5t33 -77.5q0 -50 -37 -83.5t-76 -33.5q-49 0 -82.5 33.5t-33.5 83.5q0 43 30.5 77.5t85.5 34.5z" />
    <glyph glyph-name="uni06A8.fina" unicode="&#x6a8;" horiz-adv-x="1347" 
d="M1214 0q-4 -66 -29.5 -125t-71.5 -104t-112.5 -71t-150.5 -26h-230q-116 0 -213.5 38t-167 105.5t-108.5 162t-39 206.5q0 103 38 197t116 166l135 -135q-56 -47 -78.5 -114t-22.5 -120q0 -65 25 -122.5t69 -99.5t105.5 -66.5t134.5 -24.5h246q18 0 45 3t51.5 16.5t43 40
t22.5 73.5h-105q-71 0 -137.5 19.5t-118 60.5t-83 105.5t-31.5 154.5q0 63 23.5 123.5t68.5 106.5t110.5 74t147.5 28h317v-482h133v-190h-133zM1020 479h-119q-45 0 -77 -13t-51 -34.5t-27.5 -46.5t-8.5 -49q0 -66 42 -106t114 -40h127v289zM1037 993q48 0 80.5 -34.5
t32.5 -77.5q0 -50 -37 -83.5t-76 -33.5q-49 0 -82.5 33.5t-33.5 83.5q0 43 30.5 77.5t85.5 34.5zM790 993q51 0 81.5 -33.5t30.5 -78.5q0 -54 -35.5 -85.5t-76.5 -31.5q-47 0 -81 35t-34 82q0 41 30.5 76.5t84.5 35.5zM915 1206q47 0 79.5 -34.5t32.5 -77.5
q0 -50 -36.5 -83.5t-75.5 -33.5q-50 0 -83.5 33.5t-33.5 83.5q0 43 30.5 77.5t86.5 34.5z" />
    <glyph glyph-name="uni06AA.init" unicode="&#x6aa;" horiz-adv-x="1247" 
d="M1 0q-37 0 -54.5 29.5t-17.5 64.5t17.5 65.5t54.5 30.5h791q78 0 121 38t43 104q0 69 -42 107t-110 38h-703v150l526 526l140 -135l-351 -348h378q72 0 136.5 -22.5t112.5 -65.5t76 -105.5t28 -142.5t-29 -142.5t-76 -104.5t-110.5 -64.5t-131.5 -22.5h-799z" />
    <glyph glyph-name="uni06AA.medi" unicode="&#x6aa;" horiz-adv-x="1265" 
d="M1 0q-37 0 -54.5 29.5t-17.5 64.5t17.5 65.5t54.5 30.5h791q78 0 121 38t43 104q0 69 -42 107t-110 38h-703v150l526 526l140 -135l-351 -348h378q72 0 136.5 -22.5t112.5 -65.5t76 -105.5t28 -142.5t-29 -144h147v-190h-219v90q-49 -45 -112.5 -67.5t-133.5 -22.5h-799z
" />
    <glyph glyph-name="uni06AA.fina" unicode="&#x6aa;" horiz-adv-x="1596" 
d="M430 0q-70 0 -131.5 27.5t-106.5 73.5t-71.5 107.5t-26.5 129.5h190q0 -57 43 -102.5t105 -45.5h691q78 0 121 38t43 104q0 69 -42 107t-110 38h-703v150l526 526l140 -135l-351 -348h378q72 0 136.5 -22.5t112.5 -65.5t75.5 -105.5t27.5 -142.5t-28 -144h147v-190h-219
v90q-49 -45 -112.5 -67.5t-133.5 -22.5h-701z" />
    <glyph glyph-name="uni06AB.init" unicode="&#x6ab;" horiz-adv-x="947" 
d="M515 1262l43 -43l-523 -523l-40 41zM1 0q-37 0 -54.5 29.5t-17.5 64.5t17.5 65.5t54.5 30.5h491q78 0 121 38t43 104q0 69 -42 107t-110 38h-403v150l526 526l140 -135l-351 -348h78q72 0 136.5 -22.5t112.5 -65.5t76 -105.5t28 -142.5t-29 -142.5t-76 -104.5
t-110.5 -64.5t-131.5 -22.5h-499z" />
    <glyph glyph-name="uni06AB.medi" unicode="&#x6ab;" horiz-adv-x="964" 
d="M515 1262l43 -43l-523 -523l-40 41zM1 0q-37 0 -54.5 29.5t-17.5 64.5t17.5 65.5t54.5 30.5h491q78 0 121 38t43 104q0 69 -42 107t-110 38h-403v150l526 526l140 -135l-351 -348h78q72 0 136.5 -22.5t112.5 -65.5t76 -105.5t28 -142.5t-29 -144h147v-190h-219v90
q-49 -45 -112.5 -67.5t-133.5 -22.5h-499z" />
    <glyph glyph-name="uni06AB.fina" unicode="&#x6ab;" horiz-adv-x="1296" 
d="M430 0q-70 0 -131.5 27.5t-106.5 73.5t-71.5 107.5t-26.5 129.5h190q0 -57 43 -102.5t105 -45.5h391q78 0 121 38t43 104q0 69 -42 107t-110 38h-403v150l526 526l140 -135l-351 -348h78q72 0 136.5 -22.5t112.5 -65.5t75.5 -105.5t27.5 -142.5t-28 -144h147v-190h-219
v90q-49 -45 -112.5 -67.5t-133.5 -22.5h-401zM846 1262l43 -43l-523 -523l-41 41z" />
    <glyph glyph-name="uni06AC.init" unicode="&#x6ac;" horiz-adv-x="947" 
d="M1 0q-37 0 -54.5 29.5t-17.5 64.5t17.5 65.5t54.5 30.5h491q78 0 121 38t43 104q0 69 -42 107t-110 38h-403v150l526 526l140 -135l-351 -348h78q72 0 136.5 -22.5t112.5 -65.5t76 -105.5t28 -142.5t-29 -142.5t-76 -104.5t-110.5 -64.5t-131.5 -22.5h-499zM263 1319
q47 0 80 -34.5t33 -77.5q0 -50 -37 -83.5t-76 -33.5q-49 0 -83 33.5t-34 83.5q0 43 31 77.5t86 34.5z" />
    <glyph glyph-name="uni06AC.medi" unicode="&#x6ac;" horiz-adv-x="964" 
d="M1 0q-37 0 -54.5 29.5t-17.5 64.5t17.5 65.5t54.5 30.5h491q78 0 121 38t43 104q0 69 -42 107t-110 38h-403v150l526 526l140 -135l-351 -348h78q72 0 136.5 -22.5t112.5 -65.5t76 -105.5t28 -142.5t-29 -144h147v-190h-219v90q-49 -45 -112.5 -67.5t-133.5 -22.5h-499z
M263 1319q47 0 80 -34.5t33 -77.5q0 -50 -37 -83.5t-76 -33.5q-49 0 -83 33.5t-34 83.5q0 43 31 77.5t86 34.5z" />
    <glyph glyph-name="uni06AC.fina" unicode="&#x6ac;" horiz-adv-x="1349" 
d="M432 0q-82 0 -145.5 28.5t-106.5 75t-64.5 105.5t-21.5 123q0 80 38 156.5t116 127.5l139 -141q-53 -20 -78 -60t-25 -85q0 -54 37 -97t115 -43h467q61 0 103 43t42 103v827h193v-827q0 -76 -35 -146h143v-190h-200v104q-45 -47 -106.5 -75.5t-137.5 -28.5h-473zM553 610
q-10 17 -14.5 37.5t-4.5 42.5q0 45 15.5 78t41 55.5t57.5 33.5t64 11q41 0 81 -16t71 -57l-74 -74q-28 43 -78 43q-34 0 -53.5 -19.5t-19.5 -54.5t20.5 -57.5t59.5 -22.5h166v-102h-394v102h62zM1134 1473q47 0 80 -34.5t33 -77.5q0 -50 -37 -83.5t-76 -33.5q-49 0 -83 33.5
t-34 83.5q0 43 31 77.5t86 34.5z" />
    <glyph glyph-name="uni06AE.init" unicode="&#x6ae;" horiz-adv-x="947" 
d="M1 0q-37 0 -54.5 29.5t-17.5 64.5t17.5 65.5t54.5 30.5h491q78 0 121 38t43 104q0 69 -42 107t-110 38h-403v150l526 526l140 -135l-351 -348h78q72 0 136.5 -22.5t112.5 -65.5t76 -105.5t28 -142.5t-29 -142.5t-76 -104.5t-110.5 -64.5t-131.5 -22.5h-499zM520 -295
q-55 0 -86 35t-31 78q0 49 34 82.5t83 33.5q39 0 76 -33.5t37 -82.5q0 -43 -33 -78t-80 -35zM272 -295q-53 0 -84 36t-31 77q0 47 34 81.5t81 34.5q41 0 77 -31.5t36 -84.5q0 -45 -31 -79t-82 -34zM397 -508q-55 0 -86 35t-31 78q0 49 34 82.5t83 33.5q39 0 76 -33.5
t37 -82.5q0 -43 -33 -78t-80 -35z" />
    <glyph glyph-name="uni06AE.medi" unicode="&#x6ae;" horiz-adv-x="964" 
d="M1 0q-37 0 -54.5 29.5t-17.5 64.5t17.5 65.5t54.5 30.5h491q78 0 121 38t43 104q0 69 -42 107t-110 38h-403v150l526 526l140 -135l-351 -348h78q72 0 136.5 -22.5t112.5 -65.5t76 -105.5t28 -142.5t-29 -144h147v-190h-219v90q-49 -45 -112.5 -67.5t-133.5 -22.5h-499z
M490 -295q-55 0 -86 35t-31 78q0 49 34 82.5t83 33.5q39 0 76 -33.5t37 -82.5q0 -43 -33 -78t-80 -35zM242 -295q-53 0 -84 36t-31 77q0 47 34 81.5t81 34.5q41 0 77 -31.5t36 -84.5q0 -45 -31 -79t-82 -34zM367 -508q-55 0 -86 35t-31 78q0 49 34 82.5t83 33.5
q39 0 76 -33.5t37 -82.5q0 -43 -33 -78t-80 -35z" />
    <glyph glyph-name="uni06AE.fina" unicode="&#x6ae;" horiz-adv-x="1349" 
d="M432 0q-82 0 -145.5 28.5t-106.5 75t-64.5 105.5t-21.5 123q0 80 38 156.5t116 127.5l139 -141q-53 -20 -78 -60t-25 -85q0 -54 37 -97t115 -43h467q61 0 103 43t42 103v827h193v-827q0 -76 -35 -146h143v-190h-200v104q-45 -47 -106.5 -75.5t-137.5 -28.5h-473zM553 610
q-10 17 -14.5 37.5t-4.5 42.5q0 45 15.5 78t41 55.5t57.5 33.5t64 11q41 0 81 -16t71 -57l-74 -74q-28 43 -78 43q-34 0 -53.5 -19.5t-19.5 -54.5t20.5 -57.5t59.5 -22.5h166v-102h-394v102h62zM810 -295q-55 0 -86 35t-31 78q0 49 34 82.5t83 33.5q39 0 76 -33.5t37 -82.5
q0 -43 -33 -78t-80 -35zM562 -295q-53 0 -84 36t-31 77q0 47 34 81.5t81 34.5q41 0 77 -31.5t36 -84.5q0 -45 -31 -79t-82 -34zM687 -508q-55 0 -86 35t-31 78q0 49 34 82.5t83 33.5q39 0 76 -33.5t37 -82.5q0 -43 -33 -78t-80 -35z" />
    <glyph glyph-name="uni06B0.init" unicode="&#x6b0;" horiz-adv-x="947" 
d="M603 829q0 -25 16 -42.5t44 -17.5q24 0 42 17.5t18 42.5q0 24 -18 42t-42 18q-25 0 -42.5 -18t-17.5 -42zM515 1262l43 -43l-523 -523l-40 41zM531 784l-115 -114h78q72 0 136.5 -22.5t112.5 -65.5t76 -105.5t28 -142.5t-29 -142.5t-76 -104.5t-110.5 -64.5t-131.5 -22.5
h-499q-37 0 -54.5 29.5t-17.5 64.5t17.5 65.5t54.5 30.5h491q78 0 121 38t43 104q0 69 -42 107t-110 38h-403v150l526 526l140 -135l-58 -57q4 -2 9 -3q25 -12 43.5 -30.5t30 -44t11.5 -53.5q0 -30 -11.5 -55t-30 -44t-44 -30t-53.5 -11q-30 0 -55 11t-44 30t-30 44
q-2 5 -4 9z" />
    <glyph glyph-name="uni06B0.medi" unicode="&#x6b0;" horiz-adv-x="964" 
d="M603 829q0 -25 16 -42.5t44 -17.5q24 0 42 17.5t18 42.5q0 24 -18 42t-42 18q-25 0 -42.5 -18t-17.5 -42zM515 1262l43 -43l-523 -523l-40 41zM531 784l-115 -114h78q72 0 136.5 -22.5t112.5 -65.5t76 -105.5t28 -142.5t-29 -144h147v-190h-219v90q-49 -45 -112.5 -67.5
t-133.5 -22.5h-499q-37 0 -54.5 29.5t-17.5 64.5t17.5 65.5t54.5 30.5h491q78 0 121 38t43 104q0 69 -42 107t-110 38h-403v150l526 526l140 -135l-58 -57q4 -2 9 -3q25 -12 43.5 -30.5t30 -44t11.5 -53.5q0 -30 -11.5 -55t-30 -44t-44 -30t-53.5 -11q-30 0 -55 11t-44 30
t-30 44q-2 5 -4 9z" />
    <glyph glyph-name="uni06B0.fina" unicode="&#x6b0;" horiz-adv-x="1296" 
d="M933 829q0 -25 16 -42.5t44 -17.5q24 0 42 17.5t18 42.5q0 24 -18 42t-42 18q-25 0 -42.5 -18t-17.5 -42zM846 1262l43 -43l-523 -523l-41 41zM862 784l-115 -114h78q72 0 136.5 -22.5t112.5 -65.5t75.5 -105.5t27.5 -142.5t-28 -144h147v-190h-219v90
q-49 -45 -112.5 -67.5t-133.5 -22.5h-401q-70 0 -131.5 27.5t-106.5 73.5t-71.5 107.5t-26.5 129.5h190q0 -57 43 -102.5t105 -45.5h391q78 0 121 38t43 104q0 69 -42 107t-110 38h-403v150l526 526l140 -135l-58 -57q4 -2 8 -3q25 -12 43.5 -30.5t30 -44t11.5 -53.5
q0 -30 -11.5 -55t-30 -44t-44 -30t-53.5 -11q-30 0 -55 11t-44 30t-30 44q-2 4 -3 9z" />
    <glyph glyph-name="uni06B2.init" unicode="&#x6b2;" horiz-adv-x="947" 
d="M515 1262l43 -43l-523 -523l-40 41zM1 0q-37 0 -54.5 29.5t-17.5 64.5t17.5 65.5t54.5 30.5h491q78 0 121 38t43 104q0 69 -42 107t-110 38h-403v150l526 526l140 -135l-351 -348h78q72 0 136.5 -22.5t112.5 -65.5t76 -105.5t28 -142.5t-29 -142.5t-76 -104.5
t-110.5 -64.5t-131.5 -22.5h-499zM500 -295q-55 0 -86 35t-31 78q0 49 34 82.5t83 33.5q39 0 76 -33.5t37 -82.5q0 -43 -33 -78t-80 -35zM252 -295q-53 0 -84 36t-31 77q0 47 34 81.5t81 34.5q41 0 77 -31.5t36 -84.5q0 -45 -31 -79t-82 -34z" />
    <glyph glyph-name="uni06B2.medi" unicode="&#x6b2;" horiz-adv-x="964" 
d="M515 1262l43 -43l-523 -523l-40 41zM1 0q-37 0 -54.5 29.5t-17.5 64.5t17.5 65.5t54.5 30.5h491q78 0 121 38t43 104q0 69 -42 107t-110 38h-403v150l526 526l140 -135l-351 -348h78q72 0 136.5 -22.5t112.5 -65.5t76 -105.5t28 -142.5t-29 -144h147v-190h-219v90
q-49 -45 -112.5 -67.5t-133.5 -22.5h-499zM500 -295q-55 0 -86 35t-31 78q0 49 34 82.5t83 33.5q39 0 76 -33.5t37 -82.5q0 -43 -33 -78t-80 -35zM252 -295q-53 0 -84 36t-31 77q0 47 34 81.5t81 34.5q41 0 77 -31.5t36 -84.5q0 -45 -31 -79t-82 -34z" />
    <glyph glyph-name="uni06B2.fina" unicode="&#x6b2;" horiz-adv-x="1296" 
d="M430 0q-70 0 -131.5 27.5t-106.5 73.5t-71.5 107.5t-26.5 129.5h190q0 -57 43 -102.5t105 -45.5h391q78 0 121 38t43 104q0 69 -42 107t-110 38h-403v150l526 526l140 -135l-351 -348h78q72 0 136.5 -22.5t112.5 -65.5t75.5 -105.5t27.5 -142.5t-28 -144h147v-190h-219
v90q-49 -45 -112.5 -67.5t-133.5 -22.5h-401zM846 1262l43 -43l-523 -523l-41 41zM790 -295q-55 0 -86 35t-31 78q0 49 34 82.5t83 33.5q39 0 76 -33.5t37 -82.5q0 -43 -33 -78t-80 -35zM542 -295q-53 0 -84 36t-31 77q0 47 34 81.5t81 34.5q41 0 77 -31.5t36 -84.5
q0 -45 -31 -79t-82 -34z" />
    <glyph glyph-name="uni06B4.init" unicode="&#x6b4;" horiz-adv-x="947" 
d="M515 1262l43 -43l-523 -523l-40 41zM1 0q-37 0 -54.5 29.5t-17.5 64.5t17.5 65.5t54.5 30.5h491q78 0 121 38t43 104q0 69 -42 107t-110 38h-403v150l526 526l140 -135l-351 -348h78q72 0 136.5 -22.5t112.5 -65.5t76 -105.5t28 -142.5t-29 -142.5t-76 -104.5
t-110.5 -64.5t-131.5 -22.5h-499zM366 1477q47 0 80 -34.5t33 -77.5q0 -50 -37 -83.5t-76 -33.5q-49 0 -83 33.5t-34 83.5q0 43 31 77.5t86 34.5zM118 1477q51 0 82 -33.5t31 -78.5q0 -54 -36 -85.5t-77 -31.5q-47 0 -80.5 35t-33.5 82q0 41 30.5 76.5t83.5 35.5zM243 1690
q47 0 80 -34.5t33 -77.5q0 -50 -37 -83.5t-76 -33.5q-49 0 -83 33.5t-34 83.5q0 43 31 77.5t86 34.5z" />
    <glyph glyph-name="uni06B4.medi" unicode="&#x6b4;" horiz-adv-x="964" 
d="M515 1262l43 -43l-523 -523l-40 41zM1 0q-37 0 -54.5 29.5t-17.5 64.5t17.5 65.5t54.5 30.5h491q78 0 121 38t43 104q0 69 -42 107t-110 38h-403v150l526 526l140 -135l-351 -348h78q72 0 136.5 -22.5t112.5 -65.5t76 -105.5t28 -142.5t-29 -144h147v-190h-219v90
q-49 -45 -112.5 -67.5t-133.5 -22.5h-499zM366 1477q47 0 80 -34.5t33 -77.5q0 -50 -37 -83.5t-76 -33.5q-49 0 -83 33.5t-34 83.5q0 43 31 77.5t86 34.5zM118 1477q51 0 82 -33.5t31 -78.5q0 -54 -36 -85.5t-77 -31.5q-47 0 -80.5 35t-33.5 82q0 41 30.5 76.5t83.5 35.5z
M243 1690q47 0 80 -34.5t33 -77.5q0 -50 -37 -83.5t-76 -33.5q-49 0 -83 33.5t-34 83.5q0 43 31 77.5t86 34.5z" />
    <glyph glyph-name="uni06B4.fina" unicode="&#x6b4;" horiz-adv-x="1296" 
d="M430 0q-70 0 -131.5 27.5t-106.5 73.5t-71.5 107.5t-26.5 129.5h190q0 -57 43 -102.5t105 -45.5h391q78 0 121 38t43 104q0 69 -42 107t-110 38h-403v150l526 526l140 -135l-351 -348h78q72 0 136.5 -22.5t112.5 -65.5t75.5 -105.5t27.5 -142.5t-28 -144h147v-190h-219
v90q-49 -45 -112.5 -67.5t-133.5 -22.5h-401zM846 1262l43 -43l-523 -523l-41 41zM466 1227q47 0 80 -34.5t33 -77.5q0 -50 -37 -83.5t-76 -33.5q-49 0 -83 33.5t-34 83.5q0 43 31 77.5t86 34.5zM218 1227q51 0 82 -33.5t31 -78.5q0 -54 -36 -85.5t-77 -31.5q-47 0 -80.5 35
t-33.5 82q0 41 30.5 76.5t83.5 35.5zM343 1440q47 0 80 -34.5t33 -77.5q0 -50 -37 -83.5t-76 -33.5q-49 0 -83 33.5t-34 83.5q0 43 31 77.5t86 34.5z" />
    <glyph glyph-name="uni06B5.init" unicode="&#x6b5;" horiz-adv-x="442" 
d="M1 0q-37 0 -54.5 29.5t-17.5 64.5t17.5 65.5t54.5 30.5q69 0 107 43t38 103v827h191v-827q0 -76 -28 -137.5t-75 -105.5t-107.5 -68.5t-125.5 -24.5zM169 1571l58 -184l58 184h115l-83 -256q-10 -28 -33.5 -42.5t-56.5 -14.5q-31 0 -55.5 13.5t-34.5 43.5l-83 256h115z
" />
    <glyph glyph-name="uni06B5.medi" unicode="&#x6b5;" horiz-adv-x="444" 
d="M1 0q-37 0 -54.5 29.5t-17.5 64.5t17.5 65.5t54.5 30.5q69 0 107 43t38 103v827h191v-827q0 -76 -33 -146h141v-190h-205v98q-47 -47 -109.5 -72.5t-129.5 -25.5zM189 1571l58 -184l58 184h115l-83 -256q-10 -28 -33.5 -42.5t-56.5 -14.5q-31 0 -55.5 13.5t-34.5 43.5
l-83 256h115z" />
    <glyph glyph-name="uni06B5.fina" unicode="&#x6b5;" horiz-adv-x="1234" 
d="M1126 1167v-977h109v-190h-146q-53 -145 -174 -232t-280 -87q-105 0 -196 37.5t-158.5 103t-105.5 155t-38 191.5q0 98 33 186t96.5 156t154.5 110t205 48v-191q-61 -4 -115.5 -27.5t-94 -63.5t-62 -96.5t-22.5 -125.5q0 -66 23.5 -119t63.5 -93t93 -61.5t112 -21.5
q72 0 129.5 26.5t97.5 71.5t61.5 106.5t21.5 133.5v960h192zM959 1571l58 -184l58 184h115l-83 -256q-10 -28 -33.5 -42.5t-56.5 -14.5q-31 0 -55.5 13.5t-34.5 43.5l-83 256h115z" />
    <glyph glyph-name="uni06B6.init" unicode="&#x6b6;" horiz-adv-x="442" 
d="M1 0q-37 0 -54.5 29.5t-17.5 64.5t17.5 65.5t54.5 30.5q69 0 107 43t38 103v827h191v-827q0 -76 -28 -137.5t-75 -105.5t-107.5 -68.5t-125.5 -24.5zM230 1492q47 0 80 -34.5t33 -77.5q0 -50 -37 -83.5t-76 -33.5q-49 0 -83 33.5t-34 83.5q0 43 31 77.5t86 34.5z" />
    <glyph glyph-name="uni06B6.medi" unicode="&#x6b6;" horiz-adv-x="444" 
d="M1 0q-37 0 -54.5 29.5t-17.5 64.5t17.5 65.5t54.5 30.5q69 0 107 43t38 103v827h191v-827q0 -76 -33 -146h141v-190h-205v98q-47 -47 -109.5 -72.5t-129.5 -25.5zM240 1492q47 0 80 -34.5t33 -77.5q0 -50 -37 -83.5t-76 -33.5q-49 0 -83 33.5t-34 83.5q0 43 31 77.5
t86 34.5z" />
    <glyph glyph-name="uni06B6.fina" unicode="&#x6b6;" horiz-adv-x="1234" 
d="M1126 1167v-977h109v-190h-146q-53 -145 -174 -232t-280 -87q-105 0 -196 37.5t-158.5 103t-105.5 155t-38 191.5q0 98 33 186t96.5 156t154.5 110t205 48v-191q-61 -4 -115.5 -27.5t-94 -63.5t-62 -96.5t-22.5 -125.5q0 -66 23.5 -119t63.5 -93t93 -61.5t112 -21.5
q72 0 129.5 26.5t97.5 71.5t61.5 106.5t21.5 133.5v960h192zM1020 1492q47 0 80 -34.5t33 -77.5q0 -50 -37 -83.5t-76 -33.5q-49 0 -83 33.5t-34 83.5q0 43 31 77.5t86 34.5z" />
    <glyph glyph-name="uni06B7.init" unicode="&#x6b7;" horiz-adv-x="442" 
d="M1 0q-37 0 -54.5 29.5t-17.5 64.5t17.5 65.5t54.5 30.5q69 0 107 43t38 103v827h191v-827q0 -76 -28 -137.5t-75 -105.5t-107.5 -68.5t-125.5 -24.5zM353 1489q47 0 80 -34.5t33 -77.5q0 -50 -37 -83.5t-76 -33.5q-49 0 -83 33.5t-34 83.5q0 43 31 77.5t86 34.5z
M105 1489q51 0 82 -33.5t31 -78.5q0 -54 -36 -85.5t-77 -31.5q-47 0 -80.5 35t-33.5 82q0 41 30.5 76.5t83.5 35.5zM230 1702q47 0 80 -34.5t33 -77.5q0 -50 -37 -83.5t-76 -33.5q-49 0 -83 33.5t-34 83.5q0 43 31 77.5t86 34.5z" />
    <glyph glyph-name="uni06B7.medi" unicode="&#x6b7;" horiz-adv-x="444" 
d="M1 0q-37 0 -54.5 29.5t-17.5 64.5t17.5 65.5t54.5 30.5q69 0 107 43t38 103v827h191v-827q0 -76 -33 -146h141v-190h-205v98q-47 -47 -109.5 -72.5t-129.5 -25.5zM363 1489q47 0 80 -34.5t33 -77.5q0 -50 -37 -83.5t-76 -33.5q-49 0 -83 33.5t-34 83.5q0 43 31 77.5
t86 34.5zM115 1489q51 0 82 -33.5t31 -78.5q0 -54 -36 -85.5t-77 -31.5q-47 0 -80.5 35t-33.5 82q0 41 30.5 76.5t83.5 35.5zM240 1702q47 0 80 -34.5t33 -77.5q0 -50 -37 -83.5t-76 -33.5q-49 0 -83 33.5t-34 83.5q0 43 31 77.5t86 34.5z" />
    <glyph glyph-name="uni06B7.fina" unicode="&#x6b7;" horiz-adv-x="1234" 
d="M1126 1167v-977h109v-190h-146q-53 -145 -174 -232t-280 -87q-105 0 -196 37.5t-158.5 103t-105.5 155t-38 191.5q0 98 33 186t96.5 156t154.5 110t205 48v-191q-61 -4 -115.5 -27.5t-94 -63.5t-62 -96.5t-22.5 -125.5q0 -66 23.5 -119t63.5 -93t93 -61.5t112 -21.5
q72 0 129.5 26.5t97.5 71.5t61.5 106.5t21.5 133.5v960h192zM1143 1489q47 0 80 -34.5t33 -77.5q0 -50 -37 -83.5t-76 -33.5q-49 0 -83 33.5t-34 83.5q0 43 31 77.5t86 34.5zM895 1489q51 0 82 -33.5t31 -78.5q0 -54 -36 -85.5t-77 -31.5q-47 0 -80.5 35t-33.5 82
q0 41 30.5 76.5t83.5 35.5zM1020 1702q47 0 80 -34.5t33 -77.5q0 -50 -37 -83.5t-76 -33.5q-49 0 -83 33.5t-34 83.5q0 43 31 77.5t86 34.5z" />
    <glyph glyph-name="uni06B8.init" unicode="&#x6b8;" horiz-adv-x="442" 
d="M1 0q-37 0 -54.5 29.5t-17.5 64.5t17.5 65.5t54.5 30.5q69 0 107 43t38 103v827h191v-827q0 -76 -28 -137.5t-75 -105.5t-107.5 -68.5t-125.5 -24.5zM290 -295q-55 0 -86 35t-31 78q0 49 34 82.5t83 33.5q39 0 76 -33.5t37 -82.5q0 -43 -33 -78t-80 -35zM42 -295
q-53 0 -84 36t-31 77q0 47 34 81.5t81 34.5q41 0 77 -31.5t36 -84.5q0 -45 -31 -79t-82 -34zM167 -508q-55 0 -86 35t-31 78q0 49 34 82.5t83 33.5q39 0 76 -33.5t37 -82.5q0 -43 -33 -78t-80 -35z" />
    <glyph glyph-name="uni06B8.medi" unicode="&#x6b8;" horiz-adv-x="494" 
d="M1 0q-37 0 -54.5 29.5t-17.5 64.5t17.5 65.5t54.5 30.5q69 0 107 43t38 103v827h191v-827q0 -76 -33 -146h191v-190h-255v98q-47 -47 -109.5 -72.5t-129.5 -25.5zM290 -295q-55 0 -86 35t-31 78q0 49 34 82.5t83 33.5q39 0 76 -33.5t37 -82.5q0 -43 -33 -78t-80 -35z
M42 -295q-53 0 -84 36t-31 77q0 47 34 81.5t81 34.5q41 0 77 -31.5t36 -84.5q0 -45 -31 -79t-82 -34zM167 -508q-55 0 -86 35t-31 78q0 49 34 82.5t83 33.5q39 0 76 -33.5t37 -82.5q0 -43 -33 -78t-80 -35z" />
    <glyph glyph-name="uni06B8.fina" unicode="&#x6b8;" horiz-adv-x="1234" 
d="M1126 1167v-977h109v-190h-146q-53 -145 -174 -232t-280 -87q-105 0 -196 37.5t-158.5 103t-105.5 155t-38 191.5q0 98 33 186t96.5 156t154.5 110t205 48v-191q-61 -4 -115.5 -27.5t-94 -63.5t-62 -96.5t-22.5 -125.5q0 -66 23.5 -119t63.5 -93t93 -61.5t112 -21.5
q72 0 129.5 26.5t97.5 71.5t61.5 106.5t21.5 133.5v960h192zM810 -625q-55 0 -86 35t-31 78q0 49 34 82.5t83 33.5q39 0 76 -33.5t37 -82.5q0 -43 -33 -78t-80 -35zM562 -625q-53 0 -84 36t-31 77q0 47 34 81.5t81 34.5q41 0 77 -31.5t36 -84.5q0 -45 -31 -79t-82 -34z
M687 -838q-55 0 -86 35t-31 78q0 49 34 82.5t83 33.5q39 0 76 -33.5t37 -82.5q0 -43 -33 -78t-80 -35z" />
    <glyph glyph-name="uni06B9.init" unicode="&#x6b9;" horiz-adv-x="446" 
d="M226 770q-47 0 -81 34t-34 81t34 80.5t81 33.5t81 -33.5t34 -80.5t-34 -81t-81 -34zM1 190q51 7 92 46.5t41 99.5v344h190v-344q0 -76 -28.5 -137.5t-74.5 -105.5t-104.5 -68.5t-115.5 -24.5q-35 0 -53.5 29.5t-18.5 64.5t18.5 63.5t53.5 32.5zM191 -322q-45 0 -80 32
t-35 83q0 49 34 82t81 33t81 -34t34 -81q0 -49 -34 -82t-81 -33z" />
    <glyph glyph-name="uni06B9.medi" unicode="&#x6b9;" horiz-adv-x="466" 
d="M224 770q-47 0 -81 34t-34 81t34 80.5t81 33.5t81 -33.5t34 -80.5t-34 -81t-81 -34zM1 0q-35 0 -53.5 29.5t-18.5 64.5t18.5 63.5t53.5 32.5q51 7 92 46.5t41 99.5v344h192v-344q0 -80 -32 -146h174v-190h-240v100q-49 -51 -108.5 -75.5t-118.5 -24.5zM191 -322
q-45 0 -80 32t-35 83q0 49 34 82t81 33t81 -34t34 -81q0 -49 -34 -82t-81 -33z" />
    <glyph glyph-name="uni06B9.fina" unicode="&#x6b9;" horiz-adv-x="1208" 
d="M612 57q-50 0 -81.5 34t-31.5 81t31.5 81t81.5 34q51 0 82.5 -34t31.5 -81t-33.5 -81t-80.5 -34zM1109 676v-486h98v-190h-133q-24 -68 -66 -126t-101.5 -101t-136.5 -67.5t-171 -24.5q-76 0 -161 28.5t-155.5 88t-116.5 151.5t-46 219q0 98 33 186t96.5 156t154.5 110
t205 48v-191q-61 -4 -115.5 -27.5t-94 -63.5t-62 -96.5t-22.5 -125.5q0 -72 23.5 -127t65.5 -92t96 -56.5t116 -19.5q59 0 113.5 22.5t96.5 66.5t66.5 106.5t24.5 142.5v469h192zM613 -634q-49 0 -80.5 33.5t-31.5 80.5q0 48 31.5 81.5t80.5 33.5q52 0 83.5 -33.5
t31.5 -81.5q0 -47 -33.5 -80.5t-81.5 -33.5z" />
    <glyph glyph-name="uni06BC.init" unicode="&#x6bc;" horiz-adv-x="528" 
d="M295 999q47 0 79.5 -32.5t32.5 -79.5q0 -51 -36 -84t-76 -33q-48 0 -81.5 34t-33.5 83q0 43 30.5 77.5t84.5 34.5zM26 0h-25q-35 0 -53.5 29.5t-18.5 64.5t18.5 63.5t53.5 32.5q121 7 162 46.5t41 99.5v344h190v-344q0 -76 -28 -137q-27 -58 -69 -100q17 -10 32 -24
q24 -25 38.5 -58t14.5 -71t-14.5 -71t-39 -57.5t-57.5 -39t-71 -14.5t-71 14.5t-57.5 39t-39 57.5t-14.5 71q0 29 8 54zM179 22q-5 -2 -11 -4q-14 -6 -25 -17q-23 -24 -23 -56q0 -33 21.5 -56t57.5 -23q32 0 55.5 23t23.5 56q0 32 -23.5 55.5t-55.5 23.5q-10 0 -20 -2z" />
    <glyph glyph-name="uni06BC.medi" unicode="&#x6bc;" horiz-adv-x="538" 
d="M293 997q47 0 80 -34.5t33 -77.5q0 -49 -37 -83t-76 -34q-49 0 -83 34t-34 83q0 43 31 77.5t86 34.5zM26 0h-25q-35 0 -53.5 29.5t-18.5 64.5t18.5 63.5t53.5 32.5q121 7 162 46.5t41 99.5v344h192v-344q0 -80 -32 -146h174v-190h-164q8 -26 8 -54q0 -38 -14.5 -71
t-39 -57.5t-57.5 -39t-71 -14.5t-71 14.5t-57.5 39t-39 57.5t-14.5 71q0 29 8 54zM186 23q-10 -4 -22 -7q-12 -6 -21 -15q-23 -24 -23 -56q0 -33 21.5 -56t57.5 -23q32 0 55.5 23t23.5 56q0 32 -23.5 55.5t-55.5 23.5q-7 0 -13 -1zM297 99h1v1z" />
    <glyph glyph-name="uni06BC.fina" unicode="&#x6bc;" horiz-adv-x="1208" 
d="M541 -399q0 -33 21.5 -56t57.5 -23q32 0 55.5 23t23.5 56q0 32 -23.5 55.5t-55.5 23.5q-33 0 -56 -23.5t-23 -55.5zM612 57q-50 0 -81.5 34t-31.5 81t31.5 81t81.5 34q51 0 82.5 -34t31.5 -81t-33.5 -81t-80.5 -34zM468 -300q-15 4 -30 10q-85 28 -155.5 87.5
t-116.5 151.5t-46 219q0 98 33 186t96.5 156t154.5 110t205 48v-191q-61 -4 -115.5 -27.5t-94 -63.5t-62 -96.5t-22.5 -125.5q0 -72 23.5 -127t65.5 -92t96 -56.5t116 -19.5q59 0 113.5 22.5t96.5 66.5t66.5 106.5t24.5 142.5v469h192v-486h98v-190h-133q-24 -68 -66 -126
t-101 -101q-60 -43 -137 -67q11 -16 19 -33q14 -33 14 -71t-14.5 -71t-39 -57.5t-57.5 -39t-71 -14.5t-71 14.5t-57.5 39t-39 57.5t-14.5 71t15 71q6 14 14 27z" />
    <glyph glyph-name="uni06BD.init" unicode="&#x6bd;" horiz-adv-x="482" 
d="M385 999q47 0 80 -34.5t33 -77.5q0 -49 -37 -83t-76 -34q-49 0 -83 34t-34 83q0 43 31 77.5t86 34.5zM137 999q51 0 82 -33.5t31 -78.5q0 -53 -36 -85t-77 -32q-47 0 -81 35t-34 82q0 41 31 76.5t84 35.5zM262 1212q47 0 80 -34.5t33 -77.5q0 -49 -37 -83t-76 -34
q-49 0 -83 34t-34 83q0 43 31 77.5t86 34.5zM1 190q81 7 122 46.5t41 99.5v344h190v-344q0 -76 -28.5 -137.5t-74.5 -105.5t-104.5 -68.5t-145.5 -24.5q-35 0 -53.5 29.5t-18.5 64.5t18.5 63.5t53.5 32.5z" />
    <glyph glyph-name="uni06BD.medi" unicode="&#x6bd;" horiz-adv-x="497" 
d="M349 999q47 0 79.5 -34.5t32.5 -77.5q0 -49 -36.5 -83t-75.5 -34q-49 0 -83 34t-34 83q0 43 31 77.5t86 34.5zM101 999q51 0 82 -33.5t31 -78.5q0 -53 -36 -85t-77 -32q-47 0 -81 35t-34 82q0 41 31 76.5t84 35.5zM226 1212q47 0 80 -34.5t33 -77.5q0 -49 -37 -83
t-76 -34q-49 0 -83 34t-34 83q0 43 31 77.5t86 34.5zM1 0q-35 0 -53.5 29.5t-18.5 64.5t18.5 63.5t53.5 32.5q51 7 92 46.5t41 99.5v344h192v-344q0 -80 -32 -146h204v-190h-270v100q-49 -51 -108.5 -75.5t-118.5 -24.5z" />
    <glyph glyph-name="uni06BD.fina" unicode="&#x6bd;" horiz-adv-x="1208" 
d="M539 465q-23 -6 -45 -15q-55 -24 -94.5 -64t-62 -96.5t-22.5 -125.5q0 -72 23.5 -127t65.5 -92t96 -56.5t116 -19.5q59 0 113.5 22.5t96.5 66.5t66.5 106.5t24.5 142.5v469h192v-486h98v-190h-133q-24 -68 -66 -126t-101.5 -101t-136.5 -67.5t-171 -24.5q-76 0 -161 28.5
t-155.5 88t-116.5 151.5t-46 219q0 98 33 186t96.5 156t154.5 110q62 29 135 41v-196zM735 234q42 0 72 -31t30 -69q0 -45 -33.5 -75t-68.5 -30q-44 0 -74 30t-30 75q0 38 27.5 69t76.5 31zM513 234q46 0 73.5 -30t27.5 -70q0 -49 -32 -77t-69 -28q-42 0 -72 31.5t-30 73.5
q0 37 27.5 68.5t74.5 31.5zM625 425q42 0 71.5 -31t29.5 -69q0 -45 -33 -75t-68 -30q-44 0 -74.5 30t-30.5 75q0 38 28 69t77 31z" />
    <glyph glyph-name="uni06BF.init" unicode="&#x6bf;" horiz-adv-x="1003" 
d="M365 995q47 0 80 -34.5t33 -77.5q0 -49 -37 -83t-76 -34q-49 0 -83 34t-34 83q0 43 31 77.5t86 34.5zM627 190l-55 113q-39 78 -94 125t-121 47q-43 0 -73.5 -18.5t-59.5 -67.5l-168 96q63 99 137 143t180 44q82 0 141.5 -27t106.5 -76t87 -119.5t81 -156.5
q29 -60 56.5 -81.5t78.5 -21.5v-190h-923q-35 0 -53.5 29.5t-18.5 64.5t18.5 65.5t53.5 30.5h626zM513 -289q-47 0 -74 30t-27 66q0 43 29 73t72 30q34 0 66 -30t32 -73q0 -36 -28.5 -66t-69.5 -30zM298 -289q-47 0 -74 31t-27 65q0 43 30 73t71 30q34 0 65 -27.5t31 -75.5
q0 -38 -26.5 -67t-69.5 -29zM406 -475q-47 0 -74.5 29.5t-27.5 66.5q0 45 29.5 74t72.5 29q35 0 66.5 -29t31.5 -74q0 -37 -28.5 -66.5t-69.5 -29.5z" />
    <glyph glyph-name="uni06BF.medi" unicode="&#x6bf;" horiz-adv-x="909" 
d="M367 995q47 0 80 -34.5t33 -77.5q0 -49 -37 -83t-76 -34q-49 0 -82.5 34t-33.5 83q0 43 30.5 77.5t85.5 34.5zM1 0q-35 0 -53.5 29.5t-18.5 64.5t18.5 65.5t53.5 30.5h626l-55 113q-39 78 -94 125t-121 47q-43 0 -73.5 -18.5t-59.5 -67.5l-168 96q63 99 137 143t180 44
q82 0 141.5 -27t106.5 -76t87 -119.5t81 -156.5q29 -60 57.5 -81.5t63.5 -21.5v-190h-909zM513 -289q-47 0 -74 30t-27 66q0 43 29 73t72 30q34 0 66 -30t32 -73q0 -36 -28.5 -66t-69.5 -30zM298 -289q-47 0 -74 31t-27 65q0 43 30 73t71 30q34 0 65 -27.5t31 -75.5
q0 -38 -26.5 -67t-69.5 -29zM406 -475q-47 0 -74.5 29.5t-27.5 66.5q0 45 29.5 74t72.5 29q35 0 66.5 -29t31.5 -74q0 -37 -28.5 -66.5t-69.5 -29.5z" />
    <glyph glyph-name="uni06BF.fina" unicode="&#x6bf;" horiz-adv-x="993" 
d="M432 993q47 0 80 -34.5t33 -77.5q0 -50 -37 -83.5t-76 -33.5q-49 0 -83 33.5t-34 83.5q0 43 31 77.5t86 34.5zM993 0h-563q-68 0 -109 -38t-41 -103q0 -47 18.5 -75t46.5 -42t60.5 -19.5t61.5 -5.5h53v-192h-65q-78 0 -144.5 21.5t-116 63.5t-77 104.5t-27.5 142.5
t28.5 142t75 104t105.5 64.5t123 22.5h278l-55 113q-39 78 -94 125t-121 47q-43 0 -73.5 -18.5t-59.5 -67.5l-168 96q63 99 137 143t180 44q82 0 141.5 -27t106.5 -76t87 -119.5t81 -156.5q29 -60 56.5 -81.5t74.5 -21.5v-190zM784 -254q-47 0 -71.5 28.5t-24.5 63.5
q0 41 27.5 68.5t68.5 27.5q31 0 61.5 -27.5t30.5 -68.5q0 -35 -27.5 -63.5t-64.5 -28.5zM579 -254q-45 0 -69.5 28.5t-24.5 63.5q0 41 28 68.5t66 27.5q35 0 64 -26.5t29 -69.5q0 -37 -26 -64.5t-67 -27.5zM682 -430q-45 0 -70.5 28.5t-25.5 63.5q0 41 27.5 68.5t68.5 27.5
q33 0 63.5 -27.5t30.5 -68.5q0 -35 -27.5 -63.5t-66.5 -28.5z" />
    <glyph glyph-name="uni06C2.fina" unicode="&#x6c2;" horiz-adv-x="1021" 
d="M440 897q-12 25 -12 53q0 51 35 88t90 37q29 0 55.5 -11t44.5 -38l-47 -53q-24 31 -57 31q-21 0 -34 -16.5t-13 -35.5q0 -24 13 -39.5t34 -15.5h133v-74h-303v74h61zM702 477h-231q-39 0 -66.5 -13t-46 -34.5t-27 -47.5t-8.5 -50v-332h-190v332q0 69 24.5 130.5
t68.5 107.5t105.5 73t135.5 27h426v-480h129v-190h-320v477z" />
    <glyph glyph-name="uni06C3.fina" unicode="&#x6c3;" horiz-adv-x="1021" 
d="M649 762q-49 0 -82 34.5t-33 82.5q0 47 34 79.5t81 32.5q45 0 80 -32.5t35 -79.5q0 -48 -34 -82.5t-81 -34.5zM401 762q-47 0 -79.5 34.5t-32.5 82.5q0 47 32.5 79.5t79.5 32.5t82 -32.5t35 -79.5q0 -50 -34 -83.5t-83 -33.5zM702 477h-231q-39 0 -66.5 -13t-46 -34.5
t-27 -47.5t-8.5 -50v-332h-190v332q0 69 24.5 130.5t68.5 107.5t105.5 73t135.5 27h426v-480h129v-190h-320v477z" />
    <glyph glyph-name="uni06C4.fina" unicode="&#x6c4;" horiz-adv-x="879" 
d="M531 190q26 43 39 76q10 25 14 40.5t4 25.5q0 71 -45 109t-104 38q-52 0 -95 -38t-43 -107q0 -64 41 -104t119 -40h70zM354 -141l5 10q3 8 3 17q0 21 -15.5 36.5t-36.5 15.5t-36 -15.5t-15 -36.5t14 -36t37 -15q21 0 37 15q4 4 7 9zM405 -41l25 48q-70 10 -123.5 34
t-98 65t-70 98.5t-25.5 127.5q0 69 22.5 130.5t66.5 107.5t106.5 73t142.5 27q72 0 132 -27t103 -71t67 -102t24 -122q0 -49 -9.5 -86t-25.5 -72h137v-190h-236l-198 -379l-168 88l30 59q-23 1 -42 10q-22 9 -38 25t-25.5 37.5t-9.5 46.5t9.5 46.5t25.5 37.5t37.5 25.5
t46.5 9.5t46.5 -9.5t37.5 -25.5q6 -6 10 -12z" />
    <glyph glyph-name="uni06CA.fina" unicode="&#x6ca;" horiz-adv-x="879" 
d="M879 0h-236l-198 -379l-168 88l149 291q-61 8 -118.5 34.5t-100.5 69.5t-68.5 100.5t-25.5 127.5q0 69 22.5 130.5t66.5 107.5t106.5 73t142.5 27q72 0 132 -27t103 -71t67 -102t24 -122q0 -49 -9.5 -86t-25.5 -72h137v-190zM531 190q26 43 39 76q10 25 14 40.5t4 25.5
q0 71 -45 109t-104 38q-52 0 -95 -38t-43 -107q0 -64 41 -104t119 -40h70zM572 993q48 0 80.5 -34.5t32.5 -77.5q0 -50 -37 -83.5t-76 -33.5q-49 0 -82.5 33.5t-33.5 83.5q0 43 30.5 77.5t85.5 34.5zM325 993q51 0 81.5 -33.5t30.5 -78.5q0 -54 -35.5 -85.5t-76.5 -31.5
q-47 0 -81 35t-34 82q0 41 30.5 76.5t84.5 35.5z" />
    <glyph glyph-name="uni06CD.fina" unicode="&#x6cd;" horiz-adv-x="1439" 
d="M427 293h25v-78q0 -70 24 -129t66 -103t96 -69t116 -25h288q64 0 64 48q0 30 -16.5 46.5t-39.5 16.5h-165v190h554v-188h-151q6 -31 6 -61q0 -52 -18.5 -97t-52 -77.5t-80.5 -51t-103 -18.5h-272q-115 0 -209 44t-159.5 115.5t-101.5 163.5q-28 70 -34 142h-166v132h329
v-1z" />
    <glyph glyph-name="uni06CE.init" unicode="&#x6ce;" horiz-adv-x="502" 
d="M290 -94q47 0 79.5 -35t32.5 -78q0 -49 -36.5 -83t-75.5 -34q-49 0 -83 34t-34 83q0 43 30.5 78t86.5 35zM42 -94q51 0 82 -34t31 -79q0 -53 -36 -85t-77 -32q-47 0 -81 35t-34 82q0 41 31 77t84 36zM1 190q81 7 122 46.5t41 99.5v344h190v-344q0 -76 -28.5 -137.5
t-74.5 -105.5t-104.5 -68.5t-145.5 -24.5q-35 0 -53.5 29.5t-18.5 64.5t18.5 63.5t53.5 32.5zM189 1081l58 -184l58 184h115l-83 -256q-10 -28 -33.5 -42.5t-56.5 -14.5q-31 0 -55.5 13.5t-34.5 43.5l-83 256h115z" />
    <glyph glyph-name="uni06CE.medi" unicode="&#x6ce;" horiz-adv-x="497" 
d="M290 -94q47 0 79.5 -35t32.5 -78q0 -49 -36.5 -83t-75.5 -34q-49 0 -83 34t-34 83q0 43 30.5 78t86.5 35zM42 -94q51 0 82 -34t31 -79q0 -53 -36 -85t-77 -32q-47 0 -81 35t-34 82q0 41 31 77t84 36zM1 0q-35 0 -53.5 29.5t-18.5 64.5t18.5 63.5t53.5 32.5q51 7 92 46.5
t41 99.5v344h192v-344q0 -80 -32 -146h204v-190h-270v100q-49 -51 -108.5 -75.5t-118.5 -24.5zM159 1081l58 -184l58 184h115l-83 -256q-10 -28 -33.5 -42.5t-56.5 -14.5q-31 0 -55.5 13.5t-34.5 43.5l-83 256h115z" />
    <glyph glyph-name="uni06CE.fina" unicode="&#x6ce;" horiz-adv-x="1279" 
d="M292 215q0 -70 24 -129t66 -103t96 -69t116 -25h288q64 0 64 48q0 30 -16.5 46.5t-39.5 16.5h-165v190h554v-188h-151q6 -31 6 -61q0 -52 -18.5 -97t-52 -77.5t-80.5 -51t-103 -18.5h-272q-115 0 -209 44t-159.5 115.5t-101.5 163t-36 185.5v88h190v-78zM519 661l58 -184
l58 184h115l-83 -256q-10 -28 -33.5 -42.5t-56.5 -14.5q-31 0 -55.5 13.5t-34.5 43.5l-83 256h115z" />
    <glyph glyph-name="uni06CF.fina" unicode="&#x6cf;" horiz-adv-x="879" 
d="M879 0h-236l-198 -379l-168 88l149 291q-61 8 -118.5 34.5t-100.5 69.5t-68.5 100.5t-25.5 127.5q0 69 22.5 130.5t66.5 107.5t106.5 73t142.5 27q72 0 132 -27t103 -71t67 -102t24 -122q0 -49 -9.5 -86t-25.5 -72h137v-190zM531 190q26 43 39 76q10 25 14 40.5t4 25.5
q0 71 -45 109t-104 38q-52 0 -95 -38t-43 -107q0 -64 41 -104t119 -40h70zM450 996q47 0 79.5 -34.5t32.5 -77.5q0 -50 -36.5 -83.5t-75.5 -33.5q-50 0 -83.5 33.5t-33.5 83.5q0 43 30.5 77.5t86.5 34.5z" />
    <glyph glyph-name="uni06D1.init" unicode="&#x6d1;" horiz-adv-x="482" 
d="M290 -295q-55 0 -86 35t-31 78q0 49 34 82.5t83 33.5q39 0 76 -33.5t37 -82.5q0 -43 -33 -78t-80 -35zM42 -295q-53 0 -84 36t-31 77q0 47 34 81.5t81 34.5q41 0 77 -31.5t36 -84.5q0 -45 -31 -79t-82 -34zM167 -508q-55 0 -86 35t-31 78q0 49 34 82.5t83 33.5
q39 0 76 -33.5t37 -82.5q0 -43 -33 -78t-80 -35zM1 190q81 7 122 46.5t41 99.5v344h190v-344q0 -76 -28.5 -137.5t-74.5 -105.5t-104.5 -68.5t-145.5 -24.5q-35 0 -53.5 29.5t-18.5 64.5t18.5 63.5t53.5 32.5z" />
    <glyph glyph-name="uni06D1.medi" unicode="&#x6d1;" horiz-adv-x="497" 
d="M290 -295q-55 0 -86 35t-31 78q0 49 34 82.5t83 33.5q39 0 76 -33.5t37 -82.5q0 -43 -33 -78t-80 -35zM42 -295q-53 0 -84 36t-31 77q0 47 34 81.5t81 34.5q41 0 77 -31.5t36 -84.5q0 -45 -31 -79t-82 -34zM167 -508q-55 0 -86 35t-31 78q0 49 34 82.5t83 33.5
q39 0 76 -33.5t37 -82.5q0 -43 -33 -78t-80 -35zM1 0q-35 0 -53.5 29.5t-18.5 64.5t18.5 63.5t53.5 32.5q51 7 92 46.5t41 99.5v344h192v-344q0 -80 -32 -146h204v-190h-270v100q-49 -51 -108.5 -75.5t-118.5 -24.5z" />
    <glyph glyph-name="uni06D1.fina" unicode="&#x6d1;" horiz-adv-x="1279" 
d="M292 215q0 -70 24 -129t66 -103t96 -69t116 -25h288q64 0 64 48q0 30 -16.5 46.5t-39.5 16.5h-165v190h554v-188h-151q6 -31 6 -61q0 -52 -18.5 -97t-52 -77.5t-80.5 -51t-103 -18.5h-272q-115 0 -209 44t-159.5 115.5t-101.5 163t-36 185.5v88h190v-78zM790 -585
q-55 0 -86 35t-31 78q0 49 34 82.5t83 33.5q39 0 76 -33.5t37 -82.5q0 -43 -33 -78t-80 -35zM542 -585q-53 0 -84 36t-31 77q0 47 34 81.5t81 34.5q41 0 77 -31.5t36 -84.5q0 -45 -31 -79t-82 -34zM667 -798q-55 0 -86 35t-31 78q0 49 34 82.5t83 33.5q39 0 76 -33.5
t37 -82.5q0 -43 -33 -78t-80 -35z" />
    <glyph glyph-name="uni06D5.fina" unicode="&#x6d5;" horiz-adv-x="1021" 
d="M702 477h-252q-39 0 -66.5 -13t-46 -34.5t-27 -47.5t-8.5 -50q0 -66 42 -104t106 -38h154v-190h-160q-68 0 -127.5 24.5t-105.5 68.5t-72.5 104.5t-26.5 134.5q0 69 24.5 130.5t68.5 107.5t105.5 73t135.5 27h446v-480h129v-190h-319v477z" />
    <glyph glyph-name="uni06EE.fina" unicode="&#x6ee;" horiz-adv-x="831" 
d="M92 190h315q72 0 110 43t38 99q0 24 -8.5 50t-26.5 46.5t-46 33.5t-67 13h-315v193h319q74 0 135.5 -27t105.5 -72t68.5 -106.5t24.5 -130.5q0 -80 -30 -142h116v-190h-739v190zM160 760l83 256q10 30 34.5 43.5t55.5 13.5q33 0 56.5 -14.5t33.5 -42.5l83 -256h-115
l-58 184l-58 -184h-115z" />
    <glyph glyph-name="uni06EF.fina" unicode="&#x6ef;" horiz-adv-x="626" 
d="M282 59q33 54 44 96t11 87q0 172 -156 268l97 170q119 -78 184.5 -187.5t65.5 -232.5v-35.5t-4 -34.5h102v-190h-164q-4 -10 -10 -21.5t-12 -21.5l-201 -340l-164 94zM95 764l83 256q10 30 34.5 43.5t55.5 13.5q33 0 56.5 -14.5t33.5 -42.5l83 -256h-115l-58 184
l-58 -184h-115z" />
    <glyph glyph-name="uni06FA.init" unicode="&#x6fa;" horiz-adv-x="1179" 
d="M1 0q-37 0 -54.5 29.5t-17.5 64.5t17.5 65.5t54.5 30.5q30 0 57 12.5t46.5 33t30.5 47t11 53.5v344h193v-344q0 -39 -7.5 -75t-25.5 -71h67q27 0 53.5 11.5t47 32t33 47t12.5 55.5v344h190v-344q0 -39 -6 -75t-26 -71h67q57 0 100 43t43 103v344h193v-344
q0 -66 -24.5 -126t-68.5 -107.5t-105.5 -75t-135.5 -27.5h-135v100q-98 -100 -238 -100h-133v98q-102 -98 -239 -98zM599 1221q47 0 79.5 -35t32.5 -78q0 -49 -36.5 -83t-75.5 -34q-49 0 -83 34t-34 83q0 43 30.5 78t86.5 35zM722 1008q47 0 79.5 -35t32.5 -78
q0 -49 -37 -83t-75 -34q-50 0 -83.5 34t-33.5 83q0 43 30.5 78t86.5 35zM474 1008q51 0 81.5 -34t30.5 -79q0 -53 -35.5 -85t-76.5 -32q-47 0 -81 35t-34 82q0 41 31 77t84 36zM597 -298q-55 0 -86 35t-31 78q0 49 34 82.5t83 33.5q39 0 76 -33.5t37 -82.5q0 -43 -33 -78
t-80 -35z" />
    <glyph glyph-name="uni06FA.medi" unicode="&#x6fa;" horiz-adv-x="1173" 
d="M724 1008q47 0 79.5 -35t32.5 -78q0 -49 -36.5 -83t-75.5 -34q-50 0 -83.5 34t-33.5 83q0 43 30.5 78t86.5 35zM476 1008q51 0 81.5 -34t30.5 -79q0 -53 -35.5 -85t-76.5 -32q-47 0 -81 35t-34 82q0 41 31 77t84 36zM601 1221q47 0 79.5 -35t32.5 -78q0 -49 -36.5 -83
t-75.5 -34q-49 0 -83 34t-34 83q0 43 30.5 78t86.5 35zM1 0q-37 0 -54.5 29.5t-17.5 64.5t17.5 65.5t54.5 30.5q30 0 57 12.5t46.5 33t30.5 47t11 53.5v344h193v-344q0 -39 -7.5 -75t-25.5 -71h67q27 0 53.5 11.5t47 32t33 47t12.5 55.5v344h190v-344q0 -39 -6 -75t-26 -71
h67q57 0 100 43t43 103v344h193v-344q0 -74 -33 -146h127v-190h-190v98q-45 -45 -105.5 -71.5t-132.5 -26.5h-135v100q-98 -100 -238 -100h-133v98q-102 -98 -239 -98zM597 -298q-55 0 -86 35t-31 78q0 49 34 82.5t83 33.5q39 0 76 -33.5t37 -82.5q0 -43 -33 -78t-80 -35z
" />
    <glyph glyph-name="uni06FA.fina" unicode="&#x6fa;" horiz-adv-x="1771" 
d="M1300 975q48 0 80.5 -35t32.5 -78q0 -49 -37 -83t-76 -34q-49 0 -82.5 34t-33.5 83q0 43 30.5 78t85.5 35zM1053 975q51 0 81.5 -34t30.5 -79q0 -53 -35.5 -85t-76.5 -32q-47 0 -81 35t-34 82q0 41 30.5 77t84.5 36zM1178 1188q47 0 79.5 -35t32.5 -78q0 -49 -37 -83
t-75 -34q-50 0 -83.5 34t-33.5 83q0 43 30.5 78t86.5 35zM743 680h195v-490h22q27 0 53.5 11.5t47 32t33 47t12.5 55.5v344h190v-344q0 -39 -6 -75t-26 -71h67q57 0 100 43t43 103v344h193v-344q0 -74 -33 -146h137v-190h-210v88q-43 -41 -100.5 -64.5t-127.5 -23.5h-135
v100q-98 -100 -238 -100h-36q-17 -70 -54 -129t-91 -103t-123.5 -69t-153.5 -25t-160 31t-132 85t-89 129t-33 165q0 106 37 187t96.5 136.5t137 83t157.5 27.5v-190q-47 -2 -88 -17.5t-72.5 -46.5t-50 -75t-18.5 -101q0 -98 61.5 -160.5t163.5 -62.5q98 0 164.5 60.5
t66.5 162.5v592zM1177 -298q-55 0 -86 35t-31 78q0 49 34 82.5t83 33.5q39 0 76 -33.5t37 -82.5q0 -43 -33 -78t-80 -35z" />
    <glyph glyph-name="uni06FB.init" unicode="&#x6fb;" horiz-adv-x="1429" 
d="M500 1001q47 0 80 -34.5t33 -77.5q0 -49 -37 -83t-76 -34q-49 0 -82.5 34t-33.5 83q0 43 30.5 77.5t85.5 34.5zM1 0q-37 0 -54.5 29.5t-17.5 64.5t17.5 65.5t54.5 30.5h121v398h192v-240l64 64q71 73 133.5 123.5t122 81t120 44t127.5 13.5q135 0 223.5 -55.5
t141.5 -146.5t74.5 -209t21.5 -243v-20h-1341zM873 481q-129 0 -233.5 -79.5t-208.5 -211.5h708q-12 66 -31.5 119t-50 92t-75.5 59.5t-109 20.5zM685 -322q-47 0 -81 34t-34 81t34 81t81 34t80.5 -34t33.5 -81t-33.5 -81t-80.5 -34z" />
    <glyph glyph-name="uni06FB.medi" unicode="&#x6fb;" horiz-adv-x="1456" 
d="M488 1004q47 0 80 -35t33 -78q0 -49 -37 -83t-76 -34q-49 0 -83 34t-34 83q0 43 31 78t86 35zM1 0q-37 0 -54.5 29.5t-17.5 64.5t17.5 65.5t54.5 30.5h123v398h192v-240l64 64q71 73 133.5 123.5t122 81t119 44t124.5 13.5q113 0 193 -37t132 -101.5t83 -152.5t49 -193
h121v-190h-1456zM875 481q-63 0 -118.5 -19.5t-107.5 -56t-105.5 -91t-110.5 -124.5h708q-12 66 -31.5 119t-50 92t-75.5 59.5t-109 20.5zM685 -322q-47 0 -81 34t-34 81t34 81t81 34t80.5 -34t33.5 -81t-33.5 -81t-80.5 -34z" />
    <glyph glyph-name="uni06FB.fina" unicode="&#x6fb;" horiz-adv-x="2078" 
d="M1085 993q47 0 80 -34.5t33 -77.5q0 -50 -37 -83.5t-76 -33.5q-49 0 -82.5 33.5t-33.5 83.5q0 43 30.5 77.5t85.5 34.5zM1552 672q101 0 172.5 -36t119.5 -99.5t74.5 -152.5t37.5 -194h123v-190h-1141q-8 -106 -49 -183t-100.5 -127t-134.5 -74t-150 -24q-78 0 -153 28
t-133 80t-93 128t-35 174q0 107 37 187.5t96.5 136t137 83t157.5 27.5v-190q-47 -2 -88 -17.5t-72.5 -46t-50 -75t-18.5 -101.5q0 -108 63.5 -165.5t161.5 -57.5t164.5 60.5t66.5 162.5v594h195v-250q45 49 113.5 106.5t149.5 104.5t170 79t179 32zM1563 479
q-109 0 -241 -67.5t-267 -221.5h708q-24 152 -64 220.5t-136 68.5zM1285 -322q-47 0 -81 34t-34 81t34 81t81 34t80.5 -34t33.5 -81t-33.5 -81t-80.5 -34z" />
    <glyph glyph-name="uni06FC.init" unicode="&#x6fc;" horiz-adv-x="955" 
d="M371 989q47 0 80 -34.5t33 -77.5q0 -50 -37 -83.5t-76 -33.5q-49 0 -82.5 33.5t-33.5 83.5q0 43 30.5 77.5t85.5 34.5zM1 0q-37 0 -54.5 29.5t-17.5 64.5t17.5 65.5t54.5 30.5h153q-16 33 -25.5 72t-9.5 78q0 80 28 141.5t74 102.5t104.5 61.5t119.5 20.5q76 0 148.5 -32
t128.5 -104l-138 -135q-47 78 -143 78q-53 0 -91 -37t-38 -98q0 -59 37 -103.5t108 -44.5h406v-190h-862zM541 -133q47 0 79.5 -35t32.5 -78q0 -49 -37 -82.5t-75 -33.5q-50 0 -83.5 33.5t-33.5 82.5q0 43 30.5 78t86.5 35z" />
    <glyph glyph-name="uni06FC.medi" unicode="&#x6fc;" horiz-adv-x="862" 
d="M371 989q47 0 80 -34.5t33 -77.5q0 -50 -37 -83.5t-76 -33.5q-49 0 -82.5 33.5t-33.5 83.5q0 43 30.5 77.5t85.5 34.5zM1 0q-37 0 -54.5 29.5t-17.5 64.5t17.5 65.5t54.5 30.5h153q-16 33 -25.5 72t-9.5 78q0 80 28 141.5t74 102.5t104.5 61.5t119.5 20.5q76 0 148.5 -32
t128.5 -104l-138 -135q-47 78 -143 78q-53 0 -91 -37t-38 -98q0 -59 37 -103.5t108 -44.5h406v-190h-862zM541 -133q47 0 79.5 -35t32.5 -78q0 -49 -37 -82.5t-75 -33.5q-50 0 -83.5 33.5t-33.5 82.5q0 43 30.5 78t86.5 35z" />
    <glyph glyph-name="uni06FC.fina" unicode="&#x6fc;" horiz-adv-x="1101" 
d="M667 985q47 0 80 -35t33 -78q0 -49 -37 -82.5t-76 -33.5q-49 0 -82.5 33.5t-33.5 82.5q0 43 30.5 78t85.5 35zM420 190q-17 33 -26 72t-9 78q0 80 27.5 141.5t73.5 102.5t104.5 61.5t119.5 20.5q76 0 149 -32t128 -104l-137 -135q-47 78 -144 78q-53 0 -91 -37t-38 -98
q0 -57 33 -100t98 -48h394v-190h-666q-68 0 -109 -38t-41 -103q0 -47 18.5 -75t46.5 -43t60.5 -20.5t61.5 -5.5h207v-190h-219q-78 0 -144.5 21.5t-116 63.5t-77 104.5t-27.5 142.5q0 77 27.5 138.5t72.5 104.5t103.5 65.5t120.5 24.5zM871 -133q47 0 79.5 -35t32.5 -78
q0 -49 -37 -82.5t-75 -33.5q-50 0 -83.5 33.5t-33.5 82.5q0 43 30.5 78t86.5 35z" />
    <glyph glyph-name="uni06FF.init" unicode="&#x6ff;" horiz-adv-x="1153" 
d="M1 0q-37 0 -54.5 29.5t-17.5 64.5t17.5 65.5t54.5 30.5h123q0 62 20.5 115t57 93t89 63.5t115.5 23.5q68 0 122 -23.5t93 -63.5t60.5 -93t21.5 -115h150q6 31 6 72q0 53 -23.5 105.5t-63.5 92.5t-93.5 64.5t-114.5 24.5h-166v190h174q102 0 190.5 -41t153 -107.5
t100 -152.5t35.5 -176q0 -53 -12 -117.5t-55 -144.5h-983zM408 295q-45 0 -70.5 -32t-25.5 -73h197q-5 50 -30.5 77.5t-70.5 27.5zM224 843l83 256q10 30 34.5 43.5t55.5 13.5q33 0 56.5 -14.5t33.5 -42.5l83 -256h-115l-58 184l-58 -184h-115z" />
    <glyph glyph-name="uni06FF.medi" unicode="&#x6ff;" horiz-adv-x="1173" 
d="M1 0q-37 0 -54.5 29.5t-17.5 64.5t17.5 65.5t54.5 30.5h123q0 62 20.5 115t57 93t89 63.5t115.5 23.5q68 0 122 -23.5t93 -63.5t60.5 -93t21.5 -115h150q6 31 6 72q0 53 -23.5 105.5t-63.5 92.5t-93.5 64.5t-114.5 24.5h-166v190h174q102 0 190.5 -41t153 -107.5
t100 -152.5t35.5 -176q0 -16 -1 -34.5t-3 -37.5h127v-190h-1173zM408 295q-45 0 -70.5 -32t-25.5 -73h197q-5 50 -30.5 77.5t-70.5 27.5zM224 843l83 256q10 30 34.5 43.5t55.5 13.5q33 0 56.5 -14.5t33.5 -42.5l83 -256h-115l-58 184l-58 -184h-115z" />
    <glyph glyph-name="uni06FF.fina" unicode="&#x6ff;" horiz-adv-x="1536" 
d="M287 338q0 -29 11 -54.5t31.5 -47t46 -34t56.5 -12.5h53q0 62 20.5 115t57.5 93t89 63.5t116 23.5q67 0 121.5 -23.5t93.5 -63.5t60.5 -93t21.5 -115h149q6 31 6 72q0 53 -23.5 105.5t-63.5 92.5t-93 64.5t-115 24.5h-165v190h174q102 0 190 -41t152.5 -107.5
t100.5 -152.5t36 -176q0 -16 -1 -34.5t-3 -37.5h127v-190h-1106q-68 0 -129.5 27.5t-107.5 73.5t-72.5 107.5t-26.5 129.5h193zM770 295q-45 0 -70.5 -32t-25.5 -73h196q-4 50 -29.5 77.5t-70.5 27.5zM594 843l83 256q10 30 34.5 43.5t55.5 13.5q33 0 56.5 -14.5t33.5 -42.5
l83 -256h-115l-58 184l-58 -184h-115z" />
    <glyph glyph-name="uniFB50" unicode="&#x671;" horiz-adv-x="546" arabic-form="isolated" 
d="M319 1372q-35 0 -66.5 -23.5t-60.5 -62.5h197q-4 39 -19.5 62.5t-50.5 23.5zM98 1229v57h45v129h49v-55q29 35 58.5 53.5t70.5 18.5q39 0 63.5 -16.5t39 -44.5t19.5 -63.5t5 -72.5v-6h-350zM186 1163h193v-1163h-193v1163z" />
    <glyph glyph-name="uniFB51" unicode="&#x671;" horiz-adv-x="516" arabic-form="final" 
d="M182 1163h193v-825q0 -68 36.5 -108t104.5 -40v-190q-74 2 -134.5 29.5t-105.5 74t-69.5 108.5t-24.5 136v815zM317 1372q-35 0 -66.5 -23.5t-60.5 -62.5h197q-4 39 -19.5 62.5t-50.5 23.5zM96 1229v57h45v129h49v-55q29 35 58.5 53.5t70.5 18.5q39 0 63.5 -16.5
t39 -44.5t19.5 -63.5t5 -72.5v-6h-350z" />
    <glyph glyph-name="uniFB52" unicode="&#x67b;" horiz-adv-x="1333" arabic-form="isolated" 
d="M432 0q-82 0 -145.5 28.5t-106.5 75t-64.5 105.5t-21.5 123q0 80 38 156.5t116 127.5l139 -141q-53 -20 -78 -60t-25 -85q0 -54 37 -97t115 -43h467q27 0 53.5 11.5t47 32t32.5 47t12 55.5v344h193v-344q0 -62 -23.5 -122t-67.5 -108.5t-106.5 -77t-138.5 -28.5h-473z
M588 -445q0 55 35 86t78 31q49 0 82.5 -34t33.5 -83q0 -39 -33.5 -76t-82.5 -37q-43 0 -78 33t-35 80zM588 -197q0 53 36 83.5t77 30.5q47 0 81.5 -33.5t34.5 -80.5q0 -41 -31.5 -77t-84.5 -36q-45 0 -79 30.5t-34 82.5z" />
    <glyph glyph-name="uniFB53" unicode="&#x67b;" horiz-adv-x="1347" arabic-form="final" 
d="M815 -196q0 -55 -35 -86t-78 -31q-49 0 -82.5 34t-33.5 83q0 39 33.5 76t82.5 37q43 0 78 -33t35 -80zM815 -444q0 -53 -36 -83.5t-77 -30.5q-47 0 -81.5 33.5t-34.5 80.5q0 41 31.5 77t84.5 36q45 0 79 -30.5t34 -82.5zM432 0q-82 0 -145.5 28.5t-106.5 75t-64.5 105.5
t-21.5 123q0 80 38 156.5t116 127.5l139 -141q-53 -20 -78 -60t-25 -85q0 -54 37 -97t115 -43h467q27 0 53.5 11.5t47 32t32.5 47t12 55.5v344h193v-344q0 -76 -35 -146h141v-190h-206v96q-46 -43 -105 -69.5t-131 -26.5h-473z" />
    <glyph glyph-name="uniFB54" unicode="&#x67b;" horiz-adv-x="440" arabic-form="initial" 
d="M302 -195q0 -55 -35 -86t-78 -31q-49 0 -82.5 34t-33.5 83q0 39 33.5 76t82.5 37q43 0 78 -33t35 -80zM302 -443q0 -53 -36 -84t-77 -31q-47 0 -81.5 34t-34.5 81q0 41 31.5 77t84.5 36q45 0 79 -31t34 -82zM1 190q51 7 92 46.5t41 99.5v344h190v-344q0 -76 -28.5 -137.5
t-74.5 -105.5t-104.5 -68.5t-115.5 -24.5q-35 0 -53.5 29.5t-18.5 64.5t18.5 63.5t53.5 32.5z" />
    <glyph glyph-name="uniFB55" unicode="&#x67b;" horiz-adv-x="466" arabic-form="medial" 
d="M300 -195q0 -55 -35 -86t-78 -31q-49 0 -82.5 34t-33.5 83q0 39 33.5 76t82.5 37q43 0 78 -33t35 -80zM300 -443q0 -53 -36 -84t-77 -31q-47 0 -81.5 34t-34.5 81q0 41 31.5 77t84.5 36q45 0 79 -31t34 -82zM1 0q-35 0 -53.5 29.5t-18.5 64.5t18.5 63.5t53.5 32.5
q51 7 92 46.5t41 99.5v344h192v-344q0 -80 -32 -146h174v-190h-240v100q-49 -51 -108.5 -75.5t-118.5 -24.5z" />
    <glyph glyph-name="uniFB56" unicode="&#x67e;" horiz-adv-x="1333" arabic-form="isolated" 
d="M432 0q-82 0 -145.5 28.5t-106.5 75t-64.5 105.5t-21.5 123q0 80 38 156.5t116 127.5l139 -141q-53 -20 -78 -60t-25 -85q0 -54 37 -97t115 -43h467q27 0 53.5 11.5t47 32t32.5 47t12 55.5v344h193v-344q0 -62 -23.5 -122t-67.5 -108.5t-106.5 -77t-138.5 -28.5h-473z
M827 -295q-55 0 -86 35t-31 78q0 49 34 82.5t83 33.5q39 0 76 -33.5t37 -82.5q0 -43 -33 -78t-80 -35zM579 -295q-53 0 -83.5 36t-30.5 77q0 47 33.5 81.5t80.5 34.5q41 0 77 -31.5t36 -84.5q0 -45 -30.5 -79t-82.5 -34zM704 -508q-55 0 -85.5 35t-30.5 78q0 49 33.5 82.5
t82.5 33.5q39 0 76 -33.5t37 -82.5q0 -43 -33 -78t-80 -35z" />
    <glyph glyph-name="uniFB57" unicode="&#x67e;" horiz-adv-x="1347" arabic-form="final" 
d="M825 -295q-55 0 -86 35t-31 78q0 49 34 82.5t83 33.5q39 0 76 -33.5t37 -82.5q0 -43 -33 -78t-80 -35zM577 -295q-53 0 -83.5 36t-30.5 77q0 47 33.5 81.5t80.5 34.5q41 0 77 -31.5t36 -84.5q0 -45 -30.5 -79t-82.5 -34zM702 -508q-55 0 -85.5 35t-30.5 78
q0 49 33.5 82.5t82.5 33.5q39 0 76 -33.5t37 -82.5q0 -43 -33 -78t-80 -35zM432 0q-82 0 -145.5 28.5t-106.5 75t-64.5 105.5t-21.5 123q0 80 38 156.5t116 127.5l139 -141q-53 -20 -78 -60t-25 -85q0 -54 37 -97t115 -43h467q27 0 53.5 11.5t47 32t32.5 47t12 55.5v344h193
v-344q0 -76 -35 -146h141v-190h-206v96q-46 -43 -105 -69.5t-131 -26.5h-473z" />
    <glyph glyph-name="uniFB58" unicode="&#x67e;" horiz-adv-x="478" arabic-form="initial" 
d="M290 -295q-55 0 -86 35t-31 78q0 49 34 82.5t83 33.5q39 0 76 -33.5t37 -82.5q0 -43 -33 -78t-80 -35zM42 -295q-53 0 -84 36t-31 77q0 47 34 81.5t81 34.5q41 0 77 -31.5t36 -84.5q0 -45 -31 -79t-82 -34zM167 -508q-55 0 -86 35t-31 78q0 49 34 82.5t83 33.5
q39 0 76 -33.5t37 -82.5q0 -43 -33 -78t-80 -35zM1 190q81 7 122 46.5t41 99.5v344h190v-344q0 -76 -28.5 -137.5t-74.5 -105.5t-104.5 -68.5t-145.5 -24.5q-35 0 -53.5 29.5t-18.5 64.5t18.5 63.5t53.5 32.5z" />
    <glyph glyph-name="uniFB59" unicode="&#x67e;" horiz-adv-x="497" arabic-form="medial" 
d="M290 -295q-55 0 -86 35t-31 78q0 49 34 82.5t83 33.5q39 0 76 -33.5t37 -82.5q0 -43 -33 -78t-80 -35zM42 -295q-53 0 -84 36t-31 77q0 47 34 81.5t81 34.5q41 0 77 -31.5t36 -84.5q0 -45 -31 -79t-82 -34zM167 -508q-55 0 -86 35t-31 78q0 49 34 82.5t83 33.5
q39 0 76 -33.5t37 -82.5q0 -43 -33 -78t-80 -35zM1 0q-35 0 -53.5 29.5t-18.5 64.5t18.5 63.5t53.5 32.5q51 7 92 46.5t41 99.5v344h192v-344q0 -80 -32 -146h204v-190h-270v100q-49 -51 -108.5 -75.5t-118.5 -24.5z" />
    <glyph glyph-name="uniFB5A" unicode="&#x680;" horiz-adv-x="1333" arabic-form="isolated" 
d="M432 0q-82 0 -145.5 28.5t-106.5 75t-64.5 105.5t-21.5 123q0 80 38 156.5t116 127.5l139 -141q-53 -20 -78 -60t-25 -85q0 -54 37 -97t115 -43h467q27 0 53.5 11.5t47 32t32.5 47t12 55.5v344h193v-344q0 -62 -23.5 -122t-67.5 -108.5t-106.5 -77t-138.5 -28.5h-473z
M832 -546q-55 0 -86 35t-31 78q0 49 34 82.5t83 33.5q39 0 76 -33.5t37 -82.5q0 -43 -33 -78t-80 -35zM584 -546q-53 0 -83.5 36t-30.5 77q0 47 33.5 81.5t80.5 34.5q41 0 77 -31.5t36 -84.5q0 -45 -30.5 -79t-82.5 -34zM827 -295q-55 0 -86 35t-31 78q0 49 34 82.5t83 33.5
q39 0 76 -33.5t37 -82.5q0 -43 -33 -78t-80 -35zM579 -295q-53 0 -83.5 36t-30.5 77q0 47 33.5 81.5t80.5 34.5q41 0 77 -31.5t36 -84.5q0 -45 -30.5 -79t-82.5 -34z" />
    <glyph glyph-name="uniFB5B" unicode="&#x680;" horiz-adv-x="1347" arabic-form="final" 
d="M829 -546q-55 0 -86 35t-31 78q0 49 34 82.5t83 33.5q39 0 76 -33.5t37 -82.5q0 -43 -33 -78t-80 -35zM581 -546q-53 0 -83.5 36t-30.5 77q0 47 33.5 81.5t80.5 34.5q41 0 77 -31.5t36 -84.5q0 -45 -30.5 -79t-82.5 -34zM432 0q-82 0 -145.5 28.5t-106.5 75t-64.5 105.5
t-21.5 123q0 80 38 156.5t116 127.5l139 -141q-53 -20 -78 -60t-25 -85q0 -54 37 -97t115 -43h467q27 0 53.5 11.5t47 32t32.5 47t12 55.5v344h193v-344q0 -76 -35 -146h141v-190h-206v96q-46 -43 -105 -69.5t-131 -26.5h-473zM825 -295q-55 0 -86 35t-31 78q0 49 34 82.5
t83 33.5q39 0 76 -33.5t37 -82.5q0 -43 -33 -78t-80 -35zM577 -295q-53 0 -83.5 36t-30.5 77q0 47 33.5 81.5t80.5 34.5q41 0 77 -31.5t36 -84.5q0 -45 -30.5 -79t-82.5 -34z" />
    <glyph glyph-name="uniFB5C" unicode="&#x680;" horiz-adv-x="475" arabic-form="initial" 
d="M290 -549q-55 0 -86 35t-31 78q0 49 34 82.5t83 33.5q39 0 76 -33.5t37 -82.5q0 -43 -33 -78t-80 -35zM42 -549q-53 0 -84 36t-31 77q0 47 34 81.5t81 34.5q41 0 77 -31.5t36 -84.5q0 -45 -31 -79t-82 -34zM1 190q81 7 122 46.5t41 99.5v344h190v-344q0 -76 -28.5 -137.5
t-74.5 -105.5t-104.5 -68.5t-145.5 -24.5q-35 0 -53.5 29.5t-18.5 64.5t18.5 63.5t53.5 32.5zM290 -295q-55 0 -86 35t-31 78q0 49 34 82.5t83 33.5q39 0 76 -33.5t37 -82.5q0 -43 -33 -78t-80 -35zM42 -295q-53 0 -84 36t-31 77q0 47 34 81.5t81 34.5q41 0 77 -31.5
t36 -84.5q0 -45 -31 -79t-82 -34z" />
    <glyph glyph-name="uniFB5D" unicode="&#x680;" horiz-adv-x="497" arabic-form="medial" 
d="M295 -548q-55 0 -86 35t-31 78q0 49 34 82.5t83 33.5q39 0 76 -33.5t37 -82.5q0 -43 -33 -78t-80 -35zM47 -548q-53 0 -84 36t-31 77q0 47 34 81.5t81 34.5q41 0 77 -31.5t36 -84.5q0 -45 -31 -79t-82 -34zM1 0q-35 0 -53.5 29.5t-18.5 64.5t18.5 63.5t53.5 32.5
q51 7 92 46.5t41 99.5v344h192v-344q0 -80 -32 -146h204v-190h-270v100q-49 -51 -108.5 -75.5t-118.5 -24.5zM290 -295q-55 0 -86 35t-31 78q0 49 34 82.5t83 33.5q39 0 76 -33.5t37 -82.5q0 -43 -33 -78t-80 -35zM42 -295q-53 0 -84 36t-31 77q0 47 34 81.5t81 34.5
q41 0 77 -31.5t36 -84.5q0 -45 -31 -79t-82 -34z" />
    <glyph glyph-name="uniFB5E" unicode="&#x67a;" horiz-adv-x="1333" arabic-form="isolated" 
d="M569 949q0 47 35 79.5t78 32.5q49 0 82.5 -36.5t33.5 -75.5q0 -49 -33.5 -83t-82.5 -34q-43 0 -78 30.5t-35 86.5zM569 701q0 51 34 82t79 31q53 0 84.5 -36t31.5 -77q0 -47 -34.5 -81t-81.5 -34q-41 0 -77 31t-36 84zM432 0q-82 0 -145.5 28.5t-106.5 75t-64.5 105.5
t-21.5 123q0 80 38 156.5t116 127.5l139 -141q-53 -20 -78 -60t-25 -85q0 -54 37 -97t115 -43h467q27 0 53.5 11.5t47 32t32.5 47t12 55.5v344h193v-344q0 -62 -23.5 -122t-67.5 -108.5t-106.5 -77t-138.5 -28.5h-473z" />
    <glyph glyph-name="uniFB5F" unicode="&#x67a;" horiz-adv-x="1347" arabic-form="final" 
d="M567 949q0 47 35 79.5t78 32.5q49 0 82.5 -36.5t33.5 -75.5q0 -49 -33.5 -83t-82.5 -34q-43 0 -78 30.5t-35 86.5zM567 701q0 51 34 82t79 31q53 0 84.5 -36t31.5 -77q0 -47 -34.5 -81t-81.5 -34q-41 0 -77 31t-36 84zM432 0q-82 0 -145.5 28.5t-106.5 75t-64.5 105.5
t-21.5 123q0 80 38 156.5t116 127.5l139 -141q-53 -20 -78 -60t-25 -85q0 -54 37 -97t115 -43h467q27 0 53.5 11.5t47 32t32.5 47t12 55.5v344h193v-344q0 -76 -35 -146h141v-190h-206v96q-46 -43 -105 -69.5t-131 -26.5h-473z" />
    <glyph glyph-name="uniFB60" unicode="&#x67a;" horiz-adv-x="434" arabic-form="initial" 
d="M116 1120q0 47 34.5 80t77.5 33q49 0 83 -37t34 -76q0 -49 -34 -83t-83 -34q-43 0 -77.5 31t-34.5 86zM116 872q0 51 33.5 82t78.5 31q53 0 85 -36t32 -77q0 -47 -35 -81t-82 -34q-41 0 -76.5 31t-35.5 84zM1 190q51 7 92 46.5t41 99.5v344h190v-344q0 -76 -28.5 -137.5
t-74.5 -105.5t-104.5 -68.5t-115.5 -24.5q-35 0 -53.5 29.5t-18.5 64.5t18.5 63.5t53.5 32.5z" />
    <glyph glyph-name="uniFB61" unicode="&#x67a;" horiz-adv-x="466" arabic-form="medial" 
d="M109 872q0 51 33.5 82t78.5 31q53 0 85 -36t32 -77q0 -47 -35 -81t-82 -34q-41 0 -76.5 31t-35.5 84zM226 1232q47 0 80 -34.5t33 -77.5q0 -49 -37 -83t-76 -34q-49 0 -83 34t-34 83q0 43 31 77.5t86 34.5zM1 0q-35 0 -53.5 29.5t-18.5 64.5t18.5 63.5t53.5 32.5
q51 7 92 46.5t41 99.5v344h192v-344q0 -80 -32 -146h174v-190h-240v100q-49 -51 -108.5 -75.5t-118.5 -24.5z" />
    <glyph glyph-name="uniFB62" unicode="&#x67f;" horiz-adv-x="1333" arabic-form="isolated" 
d="M810 1189q43 0 78.5 -34t35.5 -81t-33.5 -80.5t-80.5 -33.5q-51 0 -83 32.5t-32 81.5q0 47 34 81t81 34zM562 1189q47 0 81 -34t34 -81q0 -45 -31 -79.5t-84 -34.5q-47 0 -81 33.5t-34 80.5q0 45 35 80t80 35zM432 0q-82 0 -145.5 28.5t-106.5 75t-64.5 105.5t-21.5 123
q0 80 38 156.5t116 127.5l139 -141q-53 -20 -78 -60t-25 -85q0 -54 37 -97t115 -43h467q27 0 53.5 11.5t47 32t32.5 47t12 55.5v344h193v-344q0 -62 -23.5 -122t-67.5 -108.5t-106.5 -77t-138.5 -28.5h-473zM807 938q43 0 78.5 -34t35.5 -81t-33.5 -80.5t-80.5 -33.5
q-51 0 -83 32.5t-32 81.5q0 47 34 81t81 34zM559 938q47 0 81 -34t34 -81q0 -45 -31 -79.5t-84 -34.5q-47 0 -81 33.5t-34 80.5q0 45 35 80t80 35z" />
    <glyph glyph-name="uniFB63" unicode="&#x67f;" horiz-adv-x="1347" arabic-form="final" 
d="M806 1179q47 0 79.5 -35t32.5 -78q0 -49 -36.5 -82.5t-75.5 -33.5q-49 0 -83 33.5t-34 82.5q0 43 30.5 78t86.5 35zM558 1179q51 0 82 -34t31 -79q0 -53 -36 -84.5t-77 -31.5q-47 0 -81 34.5t-34 81.5q0 41 31 77t84 36zM432 0q-82 0 -145.5 28.5t-106.5 75t-64.5 105.5
t-21.5 123q0 80 38 156.5t116 127.5l139 -141q-53 -20 -78 -60t-25 -85q0 -54 37 -97t115 -43h467q27 0 53.5 11.5t47 32t32.5 47t12 55.5v344h193v-344q0 -76 -35 -146h141v-190h-206v96q-46 -43 -105 -69.5t-131 -26.5h-473zM809 934q47 0 79.5 -35t32.5 -78
q0 -49 -36.5 -82.5t-75.5 -33.5q-49 0 -83 33.5t-34 82.5q0 43 30.5 78t86.5 35zM561 934q51 0 82 -34t31 -79q0 -53 -36 -84.5t-77 -31.5q-47 0 -81 34.5t-34 81.5q0 41 31 77t84 36z" />
    <glyph glyph-name="uniFB64" unicode="&#x67f;" horiz-adv-x="478" arabic-form="initial" 
d="M365 1243q47 0 79.5 -32.5t32.5 -79.5q0 -51 -36 -84t-76 -33q-48 0 -81.5 34t-33.5 83q0 43 30.5 77.5t84.5 34.5zM117 1243q51 0 82.5 -34.5t31.5 -77.5q0 -51 -35.5 -84t-78.5 -33q-45 0 -79 33t-34 84q0 45 30.5 78.5t82.5 33.5zM1 190q81 7 122 46.5t41 99.5v344
h190v-344q0 -76 -28.5 -137.5t-74.5 -105.5t-104.5 -68.5t-145.5 -24.5q-35 0 -53.5 29.5t-18.5 64.5t18.5 63.5t53.5 32.5zM365 999q47 0 79.5 -32.5t32.5 -79.5q0 -51 -36 -84t-76 -33q-48 0 -81.5 34t-33.5 83q0 43 30.5 77.5t84.5 34.5zM117 999q51 0 82.5 -34.5
t31.5 -77.5q0 -51 -35.5 -84t-78.5 -33q-45 0 -79 33t-34 84q0 45 30.5 78.5t82.5 33.5z" />
    <glyph glyph-name="uniFB65" unicode="&#x67f;" horiz-adv-x="497" arabic-form="medial" 
d="M348 1251q47 0 80 -34.5t33 -77.5q0 -49 -37 -83t-76 -34q-49 0 -83 34t-34 83q0 43 31 77.5t86 34.5zM100 1251q51 0 82 -33.5t31 -78.5q0 -54 -36 -85.5t-77 -31.5q-47 0 -81 35t-34 82q0 41 31 76.5t84 35.5zM1 0q-35 0 -53.5 29.5t-18.5 64.5t18.5 63.5t53.5 32.5
q51 7 92 46.5t41 99.5v344h192v-344q0 -80 -32 -146h204v-190h-270v100q-49 -51 -108.5 -75.5t-118.5 -24.5zM353 997q47 0 80 -34.5t33 -77.5q0 -49 -37 -83t-76 -34q-49 0 -83 34t-34 83q0 43 31 77.5t86 34.5zM105 997q51 0 82 -33.5t31 -78.5q0 -54 -36 -85.5t-77 -31.5
q-47 0 -81 35t-34 82q0 41 31 76.5t84 35.5z" />
    <glyph glyph-name="uniFB66" unicode="&#x679;" horiz-adv-x="1333" arabic-form="isolated" 
d="M432 0q-82 0 -145.5 28.5t-106.5 75t-64.5 105.5t-21.5 123q0 80 38 156.5t116 127.5l139 -141q-53 -20 -78 -60t-25 -85q0 -54 37 -97t115 -43h467q27 0 53.5 11.5t47 32t32.5 47t12 55.5v344h193v-344q0 -62 -23.5 -122t-67.5 -108.5t-106.5 -77t-138.5 -28.5h-473z
M747 840q-39 0 -72.5 -26t-66.5 -69h219q-4 43 -21.5 69t-58.5 26zM502 680v65h47v252h61v-166q35 41 70 58.5t71 17.5q43 0 70 -18.5t43 -48t22.5 -68.5t6.5 -80v-12h-391z" />
    <glyph glyph-name="uniFB67" unicode="&#x679;" horiz-adv-x="1347" arabic-form="final" 
d="M432 0q-82 0 -145.5 28.5t-106.5 75t-64.5 105.5t-21.5 123q0 80 38 156.5t116 127.5l139 -141q-53 -20 -78 -60t-25 -85q0 -54 37 -97t115 -43h467q27 0 53.5 11.5t47 32t32.5 47t12 55.5v344h193v-344q0 -76 -35 -146h141v-190h-206v96q-46 -43 -105 -69.5t-131 -26.5
h-473zM747 840q-39 0 -72.5 -26t-66.5 -69h219q-4 43 -21.5 69t-58.5 26zM502 680v65h47v252h61v-166q35 41 70 58.5t71 17.5q43 0 70 -18.5t43 -48t22.5 -68.5t6.5 -80v-12h-391z" />
    <glyph glyph-name="uniFB68" unicode="&#x679;" horiz-adv-x="472" arabic-form="initial" 
d="M1 190q81 7 122 46.5t41 99.5v344h190v-344q0 -76 -28.5 -137.5t-74.5 -105.5t-104.5 -68.5t-145.5 -24.5q-35 0 -53.5 29.5t-18.5 64.5t18.5 63.5t53.5 32.5zM291 950q-39 0 -73 -25.5t-66 -68.5h219q-4 43 -21.5 68.5t-58.5 25.5zM45 791v65h47v252h62v-166
q34 41 69 58.5t72 17.5q43 0 69.5 -18.5t43 -48t22.5 -68.5t6 -80v-12h-391z" />
    <glyph glyph-name="uniFB69" unicode="&#x679;" horiz-adv-x="466" arabic-form="medial" 
d="M1 0q-35 0 -53.5 29.5t-18.5 64.5t18.5 63.5t53.5 32.5q51 7 92 46.5t41 99.5v344h192v-344q0 -80 -32 -146h174v-190h-240v100q-49 -51 -108.5 -75.5t-118.5 -24.5zM261 950q-39 0 -73 -25.5t-66 -68.5h219q-4 43 -21.5 68.5t-58.5 25.5zM15 791v65h47v252h62v-166
q34 41 69 58.5t72 17.5q43 0 69.5 -18.5t43 -48t22.5 -68.5t6 -80v-12h-391z" />
    <glyph glyph-name="uniFB6A" unicode="&#x6a4;" horiz-adv-x="1468" arabic-form="isolated" 
d="M1372 0h-940q-82 0 -145.5 28.5t-106.5 75t-64.5 105.5t-21.5 123q0 80 38 156.5t116 127.5l139 -141q-53 -20 -78 -60t-25 -85q0 -54 37 -97t115 -43h346q-16 35 -23.5 72t-7.5 78q0 63 24 123.5t69 106.5t110.5 74t147.5 28h270v-672zM1177 479h-71q-45 0 -77 -13
t-51.5 -34.5t-27.5 -46.5t-8 -49q0 -66 42 -106t114 -40h79v289zM1161 993q47 0 80 -34.5t33 -77.5q0 -50 -37 -83.5t-76 -33.5q-49 0 -83 33.5t-34 83.5q0 43 31 77.5t86 34.5zM913 993q51 0 82 -33.5t31 -78.5q0 -54 -36 -85.5t-77 -31.5q-47 0 -80.5 35t-33.5 82
q0 41 30.5 76.5t83.5 35.5zM1038 1206q47 0 80 -34.5t33 -77.5q0 -50 -37 -83.5t-76 -33.5q-49 0 -83 33.5t-34 83.5q0 43 31 77.5t86 34.5z" />
    <glyph glyph-name="uniFB6B" unicode="&#x6a4;" horiz-adv-x="1523" arabic-form="final" 
d="M1077 664q74 0 134.5 -27t104.5 -72t67.5 -105.5t23.5 -127.5q0 -41 -9.5 -77t-21.5 -65h148v-190h-1096q-82 0 -145.5 28.5t-106.5 75t-64.5 105.5t-21.5 123q0 80 38 156.5t116 127.5l139 -141q-53 -20 -78 -60t-25 -85q0 -54 37 -97t115 -43h344q-29 70 -29 144
t27 134t72 103t104.5 68t126.5 25zM1075 190q66 0 103.5 46.5t37.5 95.5q0 51 -37.5 96t-103.5 45q-59 0 -99 -41t-40 -100q0 -60 39 -101t100 -41zM1202 993q47 0 80 -34.5t33 -77.5q0 -50 -37 -83.5t-76 -33.5q-49 0 -83 33.5t-34 83.5q0 43 31 77.5t86 34.5zM954 993
q51 0 82 -33.5t31 -78.5q0 -54 -36 -85.5t-77 -31.5q-47 0 -80.5 35t-33.5 82q0 41 30.5 76.5t83.5 35.5zM1079 1206q47 0 80 -34.5t33 -77.5q0 -50 -37 -83.5t-76 -33.5q-49 0 -83 33.5t-34 83.5q0 43 31 77.5t86 34.5z" />
    <glyph glyph-name="uniFB6C" unicode="&#x6a4;" horiz-adv-x="841" arabic-form="initial" 
d="M1 0q-37 0 -54.5 29.5t-17.5 64.5t17.5 65.5t54.5 30.5h145q-16 35 -23.5 72t-7.5 78q0 63 23.5 123.5t69 106.5t111 74t147.5 28h270v-672h-735zM541 479h-71q-45 0 -77 -13t-51.5 -34.5t-27.5 -46.5t-8 -49q0 -66 42 -106t113 -40h80v289zM547 993q48 0 80.5 -34.5
t32.5 -77.5q0 -50 -37 -83.5t-76 -33.5q-49 0 -82.5 33.5t-33.5 83.5q0 43 30.5 77.5t85.5 34.5zM300 993q51 0 81.5 -33.5t30.5 -78.5q0 -54 -35.5 -85.5t-76.5 -31.5q-47 0 -81 35t-34 82q0 41 30.5 76.5t84.5 35.5zM425 1206q47 0 79.5 -34.5t32.5 -77.5
q0 -50 -36.5 -83.5t-75.5 -33.5q-50 0 -83.5 33.5t-33.5 83.5q0 43 30.5 77.5t86.5 34.5z" />
    <glyph glyph-name="uniFB6D" unicode="&#x6a4;" horiz-adv-x="897" arabic-form="medial" 
d="M1 0q-37 0 -54.5 29.5t-17.5 64.5t17.5 65.5t54.5 30.5h149q-28 70 -28 144t26.5 134t71.5 103t104.5 68t126.5 25q74 0 134.5 -27t104.5 -72t67.5 -105.5t23.5 -127.5q0 -41 -9 -77t-22 -65h148v-190h-897zM449 190q66 0 104 46.5t38 95.5q0 51 -38 96t-104 45
q-59 0 -99 -41t-40 -100q0 -60 39 -101t100 -41zM576 993q47 0 80 -34.5t33 -77.5q0 -50 -37 -83.5t-76 -33.5q-49 0 -83 33.5t-34 83.5q0 43 31 77.5t86 34.5zM328 993q52 0 82.5 -33.5t30.5 -78.5q0 -54 -36 -85.5t-77 -31.5q-47 0 -80.5 35t-33.5 82q0 41 30.5 76.5
t83.5 35.5zM453 1206q47 0 80 -34.5t33 -77.5q0 -50 -37 -83.5t-76 -33.5q-49 0 -82.5 33.5t-33.5 83.5q0 43 30.5 77.5t85.5 34.5z" />
    <glyph glyph-name="uniFB6E" unicode="&#x6a6;" horiz-adv-x="1468" arabic-form="isolated" 
d="M1372 0h-940q-82 0 -145.5 28.5t-106.5 75t-64.5 105.5t-21.5 123q0 80 38 156.5t116 127.5l139 -141q-53 -20 -78 -60t-25 -85q0 -54 37 -97t115 -43h346q-16 35 -23.5 72t-7.5 78q0 63 24 123.5t69 106.5t110.5 74t147.5 28h270v-672zM1177 479h-71q-45 0 -77 -13
t-51.5 -34.5t-27.5 -46.5t-8 -49q0 -66 42 -106t114 -40h79v289zM1161 1251q47 0 80 -34.5t33 -77.5q0 -50 -37 -83.5t-76 -33.5q-49 0 -83 33.5t-34 83.5q0 43 31 77.5t86 34.5zM913 1251q51 0 82 -33.5t31 -78.5q0 -54 -36 -85.5t-77 -31.5q-47 0 -80.5 35t-33.5 82
q0 41 30.5 76.5t83.5 35.5zM1161 993q47 0 80 -34.5t33 -77.5q0 -50 -37 -83.5t-76 -33.5q-49 0 -83 33.5t-34 83.5q0 43 31 77.5t86 34.5zM913 993q51 0 82 -33.5t31 -78.5q0 -54 -36 -85.5t-77 -31.5q-47 0 -80.5 35t-33.5 82q0 41 30.5 76.5t83.5 35.5z" />
    <glyph glyph-name="uniFB6F" unicode="&#x6a6;" horiz-adv-x="1523" arabic-form="final" 
d="M1077 664q74 0 134.5 -27t104.5 -72t67.5 -105.5t23.5 -127.5q0 -41 -9.5 -77t-21.5 -65h148v-190h-1096q-82 0 -145.5 28.5t-106.5 75t-64.5 105.5t-21.5 123q0 80 38 156.5t116 127.5l139 -141q-53 -20 -78 -60t-25 -85q0 -54 37 -97t115 -43h344q-29 70 -29 144
t27 134t72 103t104.5 68t126.5 25zM1075 190q66 0 103.5 46.5t37.5 95.5q0 51 -37.5 96t-103.5 45q-59 0 -99 -41t-40 -100q0 -60 39 -101t100 -41zM1195 1255q47 0 80 -34.5t33 -77.5q0 -50 -37 -83.5t-76 -33.5q-49 0 -83 33.5t-34 83.5q0 43 31 77.5t86 34.5zM947 1255
q51 0 82 -33.5t31 -78.5q0 -54 -36 -85.5t-77 -31.5q-47 0 -80.5 35t-33.5 82q0 41 30.5 76.5t83.5 35.5zM1202 993q47 0 80 -34.5t33 -77.5q0 -50 -37 -83.5t-76 -33.5q-49 0 -83 33.5t-34 83.5q0 43 31 77.5t86 34.5zM954 993q51 0 82 -33.5t31 -78.5q0 -54 -36 -85.5
t-77 -31.5q-47 0 -80.5 35t-33.5 82q0 41 30.5 76.5t83.5 35.5z" />
    <glyph glyph-name="uniFB70" unicode="&#x6a6;" horiz-adv-x="841" arabic-form="initial" 
d="M1 0q-37 0 -54.5 29.5t-17.5 64.5t17.5 65.5t54.5 30.5h145q-16 35 -23.5 72t-7.5 78q0 63 23.5 123.5t69 106.5t111 74t147.5 28h270v-672h-735zM541 479h-71q-45 0 -77 -13t-51.5 -34.5t-27.5 -46.5t-8 -49q0 -66 42 -106t113 -40h80v289zM547 1248q48 0 80.5 -34.5
t32.5 -77.5q0 -50 -37 -83.5t-76 -33.5q-49 0 -82.5 33.5t-33.5 83.5q0 43 30.5 77.5t85.5 34.5zM300 1248q51 0 81.5 -33.5t30.5 -78.5q0 -54 -35.5 -85.5t-76.5 -31.5q-47 0 -81 35t-34 82q0 41 30.5 76.5t84.5 35.5zM547 993q48 0 80.5 -34.5t32.5 -77.5q0 -50 -37 -83.5
t-76 -33.5q-49 0 -82.5 33.5t-33.5 83.5q0 43 30.5 77.5t85.5 34.5zM300 993q51 0 81.5 -33.5t30.5 -78.5q0 -54 -35.5 -85.5t-76.5 -31.5q-47 0 -81 35t-34 82q0 41 30.5 76.5t84.5 35.5z" />
    <glyph glyph-name="uniFB71" unicode="&#x6a6;" horiz-adv-x="897" arabic-form="medial" 
d="M1 0q-37 0 -54.5 29.5t-17.5 64.5t17.5 65.5t54.5 30.5h149q-28 70 -28 144t26.5 134t71.5 103t104.5 68t126.5 25q74 0 134.5 -27t104.5 -72t67.5 -105.5t23.5 -127.5q0 -41 -9 -77t-22 -65h148v-190h-897zM449 190q66 0 104 46.5t38 95.5q0 51 -38 96t-104 45
q-59 0 -99 -41t-40 -100q0 -60 39 -101t100 -41zM576 1241q47 0 80 -34.5t33 -77.5q0 -50 -37 -83.5t-76 -33.5q-49 0 -83 33.5t-34 83.5q0 43 31 77.5t86 34.5zM328 1241q52 0 82.5 -33.5t30.5 -78.5q0 -54 -36 -85.5t-77 -31.5q-47 0 -80.5 35t-33.5 82q0 41 30.5 76.5
t83.5 35.5zM576 993q47 0 80 -34.5t33 -77.5q0 -50 -37 -83.5t-76 -33.5q-49 0 -83 33.5t-34 83.5q0 43 31 77.5t86 34.5zM328 993q52 0 82.5 -33.5t30.5 -78.5q0 -54 -36 -85.5t-77 -31.5q-47 0 -80.5 35t-33.5 82q0 41 30.5 76.5t83.5 35.5z" />
    <glyph glyph-name="uniFB72" unicode="&#x684;" horiz-adv-x="1089" arabic-form="isolated" 
d="M997 0h-567q-68 0 -109 -38t-41 -103q0 -47 18.5 -75t46.5 -42t60.5 -19.5t61.5 -5.5h53v-192h-65q-78 0 -144.5 21.5t-116 63.5t-77 104.5t-27.5 142.5t28.5 142t75 104t105.5 64.5t123 22.5h278l-55 113q-39 78 -94 125t-121 47q-43 0 -73.5 -18.5t-59.5 -67.5l-168 96
q63 99 137 143t180 44q82 0 141.5 -27t106.5 -76t87 -119.5t81 -156.5q29 -60 56.5 -81.5t78.5 -21.5v-190zM711 -384q47 0 79.5 -35t32.5 -78q0 -49 -37 -82.5t-75 -33.5q-50 0 -83.5 33.5t-33.5 82.5q0 43 30.5 78t86.5 35zM711 -133q47 0 79.5 -35t32.5 -78
q0 -49 -37 -82.5t-75 -33.5q-50 0 -83.5 33.5t-33.5 82.5q0 43 30.5 78t86.5 35z" />
    <glyph glyph-name="uniFB73" unicode="&#x684;" horiz-adv-x="993" arabic-form="final" 
d="M993 0h-563q-68 0 -109 -38t-41 -103q0 -47 18.5 -75t46.5 -42t60.5 -19.5t61.5 -5.5h53v-192h-65q-78 0 -144.5 21.5t-116 63.5t-77 104.5t-27.5 142.5t28.5 142t75 104t105.5 64.5t123 22.5h278l-55 113q-39 78 -94 125t-121 47q-43 0 -73.5 -18.5t-59.5 -67.5l-168 96
q63 99 137 143t180 44q82 0 141.5 -27t106.5 -76t87 -119.5t81 -156.5q29 -60 56.5 -81.5t74.5 -21.5v-190zM711 -133q47 0 79.5 -35t32.5 -78q0 -49 -37 -82.5t-75 -33.5q-50 0 -83.5 33.5t-33.5 82.5q0 43 30.5 78t86.5 35zM711 -384q47 0 79.5 -35t32.5 -78
q0 -49 -37 -82.5t-75 -33.5q-50 0 -83.5 33.5t-33.5 82.5q0 43 30.5 78t86.5 35z" />
    <glyph glyph-name="uniFB74" unicode="&#x684;" horiz-adv-x="1005" arabic-form="initial" 
d="M627 190l-55 113q-39 78 -94 125t-121 47q-43 0 -73.5 -18.5t-59.5 -67.5l-168 96q63 99 137 143t180 44q82 0 141.5 -27t106.5 -76t87 -119.5t81 -156.5q29 -60 56.5 -81.5t78.5 -21.5v-190h-923q-35 0 -53.5 29.5t-18.5 64.5t18.5 65.5t53.5 30.5h626zM421 -344
q47 0 79.5 -35t32.5 -78q0 -49 -37 -82.5t-75 -33.5q-50 0 -83.5 33.5t-33.5 82.5q0 43 30.5 78t86.5 35zM421 -93q47 0 79.5 -35t32.5 -78q0 -49 -37 -82.5t-75 -33.5q-50 0 -83.5 33.5t-33.5 82.5q0 43 30.5 78t86.5 35z" />
    <glyph glyph-name="uniFB75" unicode="&#x684;" horiz-adv-x="909" arabic-form="medial" 
d="M1 0q-35 0 -53.5 29.5t-18.5 64.5t18.5 65.5t53.5 30.5h626l-55 113q-39 78 -94 125t-121 47q-43 0 -73.5 -18.5t-59.5 -67.5l-168 96q63 99 137 143t180 44q82 0 141.5 -27t106.5 -76t87 -119.5t81 -156.5q29 -60 57.5 -81.5t63.5 -21.5v-190h-909zM421 -344
q47 0 79.5 -35t32.5 -78q0 -49 -37 -82.5t-75 -33.5q-50 0 -83.5 33.5t-33.5 82.5q0 43 30.5 78t86.5 35zM421 -93q47 0 79.5 -35t32.5 -78q0 -49 -37 -82.5t-75 -33.5q-50 0 -83.5 33.5t-33.5 82.5q0 43 30.5 78t86.5 35z" />
    <glyph glyph-name="uniFB76" unicode="&#x683;" horiz-adv-x="1116" arabic-form="isolated" 
d="M810 -254q-47 0 -71.5 28.5t-24.5 63.5q0 41 27.5 68.5t68.5 27.5q31 0 61.5 -27.5t30.5 -68.5q0 -35 -27.5 -63.5t-64.5 -28.5zM605 -254q-45 0 -69.5 28.5t-24.5 63.5q0 41 28 68.5t66 27.5q35 0 64 -26.5t29 -69.5q0 -37 -26 -64.5t-67 -27.5zM1023 0h-567
q-68 0 -109 -38t-41 -103q0 -47 18.5 -75t46.5 -42t60.5 -19.5t61.5 -5.5h53v-192h-65q-78 0 -144.5 21.5t-116 63.5t-77 104.5t-27.5 142.5t28.5 142t75 104t105.5 64.5t123 22.5h278l-55 113q-39 78 -94 125t-121 47q-43 0 -73.5 -18.5t-59.5 -67.5l-168 96q63 99 137 143
t180 44q82 0 141.5 -27t106.5 -76t87 -119.5t81 -156.5q29 -60 56.5 -81.5t78.5 -21.5v-190z" />
    <glyph glyph-name="uniFB77" unicode="&#x683;" horiz-adv-x="993" arabic-form="final" 
d="M784 -254q-47 0 -71.5 28.5t-24.5 63.5q0 41 27.5 68.5t68.5 27.5q31 0 61.5 -27.5t30.5 -68.5q0 -35 -27.5 -63.5t-64.5 -28.5zM579 -254q-45 0 -69.5 28.5t-24.5 63.5q0 41 28 68.5t66 27.5q35 0 64 -26.5t29 -69.5q0 -37 -26 -64.5t-67 -27.5zM993 0h-563
q-68 0 -109 -38t-41 -103q0 -47 18.5 -75t46.5 -42t60.5 -19.5t61.5 -5.5h53v-192h-65q-78 0 -144.5 21.5t-116 63.5t-77 104.5t-27.5 142.5t28.5 142t75 104t105.5 64.5t123 22.5h278l-55 113q-39 78 -94 125t-121 47q-43 0 -73.5 -18.5t-59.5 -67.5l-168 96q63 99 137 143
t180 44q82 0 141.5 -27t106.5 -76t87 -119.5t81 -156.5q29 -60 56.5 -81.5t74.5 -21.5v-190z" />
    <glyph glyph-name="uniFB78" unicode="&#x683;" horiz-adv-x="1005" arabic-form="initial" 
d="M513 -289q-47 0 -74 30t-27 66q0 43 29 73t72 30q34 0 66 -30t32 -73q0 -36 -28.5 -66t-69.5 -30zM298 -289q-47 0 -74 31t-27 65q0 43 30 73t71 30q34 0 65 -27.5t31 -75.5q0 -38 -26.5 -67t-69.5 -29zM627 190l-55 113q-39 78 -94 125t-121 47q-43 0 -73.5 -18.5
t-59.5 -67.5l-168 96q63 99 137 143t180 44q82 0 141.5 -27t106.5 -76t87 -119.5t81 -156.5q29 -60 56.5 -81.5t78.5 -21.5v-190h-923q-35 0 -53.5 29.5t-18.5 64.5t18.5 65.5t53.5 30.5h626z" />
    <glyph glyph-name="uniFB79" unicode="&#x683;" horiz-adv-x="909" arabic-form="medial" 
d="M513 -289q-47 0 -74 30t-27 66q0 43 29 73t72 30q34 0 66 -30t32 -73q0 -36 -28.5 -66t-69.5 -30zM298 -289q-47 0 -74 31t-27 65q0 43 30 73t71 30q34 0 65 -27.5t31 -75.5q0 -38 -26.5 -67t-69.5 -29zM1 0q-35 0 -53.5 29.5t-18.5 64.5t18.5 65.5t53.5 30.5h626
l-55 113q-39 78 -94 125t-121 47q-43 0 -73.5 -18.5t-59.5 -67.5l-168 96q63 99 137 143t180 44q82 0 141.5 -27t106.5 -76t87 -119.5t81 -156.5q29 -60 57.5 -81.5t63.5 -21.5v-190h-909z" />
    <glyph glyph-name="uniFB7A" unicode="&#x686;" horiz-adv-x="1116" arabic-form="isolated" 
d="M810 -254q-47 0 -71.5 28.5t-24.5 63.5q0 41 27.5 68.5t68.5 27.5q31 0 61.5 -27.5t30.5 -68.5q0 -35 -27.5 -63.5t-64.5 -28.5zM605 -254q-45 0 -69.5 28.5t-24.5 63.5q0 41 28 68.5t66 27.5q35 0 64 -26.5t29 -69.5q0 -37 -26 -64.5t-67 -27.5zM708 -430
q-45 0 -70.5 28.5t-25.5 63.5q0 41 27.5 68.5t68.5 27.5q33 0 63.5 -27.5t30.5 -68.5q0 -35 -27.5 -63.5t-66.5 -28.5zM1023 0h-567q-68 0 -109 -38t-41 -103q0 -47 18.5 -75t46.5 -42t60.5 -19.5t61.5 -5.5h53v-192h-65q-78 0 -144.5 21.5t-116 63.5t-77 104.5t-27.5 142.5
t28.5 142t75 104t105.5 64.5t123 22.5h278l-55 113q-39 78 -94 125t-121 47q-43 0 -73.5 -18.5t-59.5 -67.5l-168 96q63 99 137 143t180 44q82 0 141.5 -27t106.5 -76t87 -119.5t81 -156.5q29 -60 56.5 -81.5t78.5 -21.5v-190z" />
    <glyph glyph-name="uniFB7B" unicode="&#x686;" horiz-adv-x="993" arabic-form="final" 
d="M784 -254q-47 0 -71.5 28.5t-24.5 63.5q0 41 27.5 68.5t68.5 27.5q31 0 61.5 -27.5t30.5 -68.5q0 -35 -27.5 -63.5t-64.5 -28.5zM579 -254q-45 0 -69.5 28.5t-24.5 63.5q0 41 28 68.5t66 27.5q35 0 64 -26.5t29 -69.5q0 -37 -26 -64.5t-67 -27.5zM682 -430
q-45 0 -70.5 28.5t-25.5 63.5q0 41 27.5 68.5t68.5 27.5q33 0 63.5 -27.5t30.5 -68.5q0 -35 -27.5 -63.5t-66.5 -28.5zM993 0h-563q-68 0 -109 -38t-41 -103q0 -47 18.5 -75t46.5 -42t60.5 -19.5t61.5 -5.5h53v-192h-65q-78 0 -144.5 21.5t-116 63.5t-77 104.5t-27.5 142.5
t28.5 142t75 104t105.5 64.5t123 22.5h278l-55 113q-39 78 -94 125t-121 47q-43 0 -73.5 -18.5t-59.5 -67.5l-168 96q63 99 137 143t180 44q82 0 141.5 -27t106.5 -76t87 -119.5t81 -156.5q29 -60 56.5 -81.5t74.5 -21.5v-190z" />
    <glyph glyph-name="uniFB7C" unicode="&#x686;" horiz-adv-x="1005" arabic-form="initial" 
d="M513 -289q-47 0 -74 30t-27 66q0 43 29 73t72 30q34 0 66 -30t32 -73q0 -36 -28.5 -66t-69.5 -30zM298 -289q-47 0 -74 31t-27 65q0 43 30 73t71 30q34 0 65 -27.5t31 -75.5q0 -38 -26.5 -67t-69.5 -29zM406 -475q-47 0 -74.5 29.5t-27.5 66.5q0 45 29.5 74t72.5 29
q35 0 66.5 -29t31.5 -74q0 -37 -28.5 -66.5t-69.5 -29.5zM627 190l-55 113q-39 78 -94 125t-121 47q-43 0 -73.5 -18.5t-59.5 -67.5l-168 96q63 99 137 143t180 44q82 0 141.5 -27t106.5 -76t87 -119.5t81 -156.5q29 -60 56.5 -81.5t78.5 -21.5v-190h-923q-35 0 -53.5 29.5
t-18.5 64.5t18.5 65.5t53.5 30.5h626z" />
    <glyph glyph-name="uniFB7D" unicode="&#x686;" horiz-adv-x="909" arabic-form="medial" 
d="M513 -289q-47 0 -74 30t-27 66q0 43 29 73t72 30q34 0 66 -30t32 -73q0 -36 -28.5 -66t-69.5 -30zM298 -289q-47 0 -74 31t-27 65q0 43 30 73t71 30q34 0 65 -27.5t31 -75.5q0 -38 -26.5 -67t-69.5 -29zM406 -475q-47 0 -74.5 29.5t-27.5 66.5q0 45 29.5 74t72.5 29
q35 0 66.5 -29t31.5 -74q0 -37 -28.5 -66.5t-69.5 -29.5zM1 0q-35 0 -53.5 29.5t-18.5 64.5t18.5 65.5t53.5 30.5h626l-55 113q-39 78 -94 125t-121 47q-43 0 -73.5 -18.5t-59.5 -67.5l-168 96q63 99 137 143t180 44q82 0 141.5 -27t106.5 -76t87 -119.5t81 -156.5
q29 -60 57.5 -81.5t63.5 -21.5v-190h-909z" />
    <glyph glyph-name="uniFB7E" unicode="&#x687;" horiz-adv-x="1116" arabic-form="isolated" 
d="M810 -462q-47 0 -71.5 28.5t-24.5 63.5q0 41 27.5 68.5t68.5 27.5q31 0 61.5 -27.5t30.5 -68.5q0 -35 -27.5 -63.5t-64.5 -28.5zM605 -462q-45 0 -69.5 28.5t-24.5 63.5q0 41 28 68.5t66 27.5q35 0 64 -26.5t29 -69.5q0 -37 -26 -64.5t-67 -27.5zM450 -474q-60 3 -113 21
q-67 21 -116.5 63t-77 104.5t-27.5 142.5t28.5 142t75 104t105.5 64.5t123 22.5h278l-55 113q-39 78 -94 125t-121 47q-43 0 -73.5 -18.5t-59.5 -67.5l-168 96q63 99 137 143t180 44q82 0 141.5 -27t106.5 -76t87 -119.5t81 -156.5q29 -60 56.5 -81.5t78.5 -21.5v-190h-567
q-68 0 -109 -38t-41 -103q0 -47 18.5 -75t46.5 -42t61 -19q9 -2 18 -3v-194zM810 -254q-47 0 -71.5 28.5t-24.5 63.5q0 41 27.5 68.5t68.5 27.5q31 0 61.5 -27.5t30.5 -68.5q0 -35 -27.5 -63.5t-64.5 -28.5zM605 -254q-45 0 -69.5 28.5t-24.5 63.5q0 41 28 68.5t66 27.5
q35 0 64 -26.5t29 -69.5q0 -37 -26 -64.5t-67 -27.5z" />
    <glyph glyph-name="uniFB7F" unicode="&#x687;" horiz-adv-x="993" arabic-form="final" 
d="M430 -474q-64 2 -119 21q-67 21 -116.5 63t-77 104.5t-27.5 142.5t28.5 142t75 104t105.5 64.5t123 22.5h278l-55 113q-39 78 -94 125t-121 47q-43 0 -73.5 -18.5t-59.5 -67.5l-168 96q63 99 137 143t180 44q82 0 141.5 -27t106.5 -76t87 -119.5t81 -156.5
q29 -60 56.5 -81.5t74.5 -21.5v-190h-563q-68 0 -109 -38t-41 -103q0 -47 18.5 -75t46.5 -42t61 -19l24 -4v-193zM810 -462q-47 0 -71.5 28.5t-24.5 63.5q0 41 27.5 68.5t68.5 27.5q31 0 61.5 -27.5t30.5 -68.5q0 -35 -27.5 -63.5t-64.5 -28.5zM605 -462q-45 0 -69.5 28.5
t-24.5 63.5q0 41 28 68.5t66 27.5q35 0 64 -26.5t29 -69.5q0 -37 -26 -64.5t-67 -27.5zM810 -254q-47 0 -71.5 28.5t-24.5 63.5q0 41 27.5 68.5t68.5 27.5q31 0 61.5 -27.5t30.5 -68.5q0 -35 -27.5 -63.5t-64.5 -28.5zM605 -254q-45 0 -69.5 28.5t-24.5 63.5q0 41 28 68.5
t66 27.5q35 0 64 -26.5t29 -69.5q0 -37 -26 -64.5t-67 -27.5z" />
    <glyph glyph-name="uniFB80" unicode="&#x687;" horiz-adv-x="1005" arabic-form="initial" 
d="M627 190l-55 113q-39 78 -94 125t-121 47q-43 0 -73.5 -18.5t-59.5 -67.5l-168 96q63 99 137 143t180 44q82 0 141.5 -27t106.5 -76t87 -119.5t81 -156.5q29 -60 56.5 -81.5t78.5 -21.5v-190h-923q-35 0 -53.5 29.5t-18.5 64.5t18.5 65.5t53.5 30.5h626zM510 -492
q-47 0 -71.5 28.5t-24.5 63.5q0 41 27.5 68.5t68.5 27.5q31 0 61.5 -27.5t30.5 -68.5q0 -35 -27.5 -63.5t-64.5 -28.5zM305 -492q-45 0 -69.5 28.5t-24.5 63.5q0 41 28 68.5t66 27.5q35 0 64 -26.5t29 -69.5q0 -37 -26 -64.5t-67 -27.5zM510 -284q-47 0 -71.5 28.5
t-24.5 63.5q0 41 27.5 68.5t68.5 27.5q31 0 61.5 -27.5t30.5 -68.5q0 -35 -27.5 -63.5t-64.5 -28.5zM305 -284q-45 0 -69.5 28.5t-24.5 63.5q0 41 28 68.5t66 27.5q35 0 64 -26.5t29 -69.5q0 -37 -26 -64.5t-67 -27.5z" />
    <glyph glyph-name="uniFB81" unicode="&#x687;" horiz-adv-x="909" arabic-form="medial" 
d="M1 0q-35 0 -53.5 29.5t-18.5 64.5t18.5 65.5t53.5 30.5h626l-55 113q-39 78 -94 125t-121 47q-43 0 -73.5 -18.5t-59.5 -67.5l-168 96q63 99 137 143t180 44q82 0 141.5 -27t106.5 -76t87 -119.5t81 -156.5q29 -60 57.5 -81.5t63.5 -21.5v-190h-909zM500 -492
q-47 0 -71.5 28.5t-24.5 63.5q0 41 27.5 68.5t68.5 27.5q31 0 61.5 -27.5t30.5 -68.5q0 -35 -27.5 -63.5t-64.5 -28.5zM295 -492q-45 0 -69.5 28.5t-24.5 63.5q0 41 28 68.5t66 27.5q35 0 64 -26.5t29 -69.5q0 -37 -26 -64.5t-67 -27.5zM500 -284q-47 0 -71.5 28.5
t-24.5 63.5q0 41 27.5 68.5t68.5 27.5q31 0 61.5 -27.5t30.5 -68.5q0 -35 -27.5 -63.5t-64.5 -28.5zM295 -284q-45 0 -69.5 28.5t-24.5 63.5q0 41 28 68.5t66 27.5q35 0 64 -26.5t29 -69.5q0 -37 -26 -64.5t-67 -27.5z" />
    <glyph glyph-name="uniFB82" unicode="&#x68d;" horiz-adv-x="827" arabic-form="isolated" 
d="M94 668h319q74 0 135.5 -27t105.5 -72t68.5 -106.5t24.5 -130.5q0 -74 -26.5 -134.5t-72.5 -104.5t-105.5 -68.5t-126.5 -24.5h-322v190h315q64 0 106 38t42 104q0 24 -8.5 50t-26.5 46.5t-46 33.5t-67 13h-315v193zM440 -295q-47 0 -74 30t-27 66q0 43 29 73t72 30
q34 0 66 -30t32 -73q0 -36 -28.5 -66t-69.5 -30zM225 -295q-47 0 -74 31t-27 65q0 43 30 73t71 30q34 0 65 -27.5t31 -75.5q0 -38 -26.5 -67t-69.5 -29z" />
    <glyph glyph-name="uniFB83" unicode="&#x68d;" horiz-adv-x="831" arabic-form="final" 
d="M92 190h315q72 0 110 43t38 99q0 24 -8.5 50t-26.5 46.5t-46 33.5t-67 13h-315v193h319q74 0 135.5 -27t105.5 -72t68.5 -106.5t24.5 -130.5q0 -80 -30 -142h116v-190h-739v190zM440 -295q-47 0 -74 30t-27 66q0 43 29 73t72 30q34 0 66 -30t32 -73q0 -36 -28.5 -66
t-69.5 -30zM225 -295q-47 0 -74 31t-27 65q0 43 30 73t71 30q34 0 65 -27.5t31 -75.5q0 -38 -26.5 -67t-69.5 -29z" />
    <glyph glyph-name="uniFB84" unicode="&#x68c;" horiz-adv-x="827" arabic-form="isolated" 
d="M94 668h319q74 0 135.5 -27t105.5 -72t68.5 -106.5t24.5 -130.5q0 -74 -26.5 -134.5t-72.5 -104.5t-105.5 -68.5t-126.5 -24.5h-322v190h315q64 0 106 38t42 104q0 24 -8.5 50t-26.5 46.5t-46 33.5t-67 13h-315v193zM440 755q-47 0 -74 30t-27 66q0 43 29 73t72 30
q34 0 66 -30t32 -73q0 -36 -28.5 -66t-69.5 -30zM225 755q-47 0 -74 31t-27 65q0 43 30 73t71 30q34 0 65 -27.5t31 -75.5q0 -38 -26.5 -67t-69.5 -29z" />
    <glyph glyph-name="uniFB85" unicode="&#x68c;" horiz-adv-x="831" arabic-form="final" 
d="M92 190h315q72 0 110 43t38 99q0 24 -8.5 50t-26.5 46.5t-46 33.5t-67 13h-315v193h319q74 0 135.5 -27t105.5 -72t68.5 -106.5t24.5 -130.5q0 -80 -30 -142h116v-190h-739v190zM440 755q-47 0 -74 30t-27 66q0 43 29 73t72 30q34 0 66 -30t32 -73q0 -36 -28.5 -66
t-69.5 -30zM225 755q-47 0 -74 31t-27 65q0 43 30 73t71 30q34 0 65 -27.5t31 -75.5q0 -38 -26.5 -67t-69.5 -29z" />
    <glyph glyph-name="uniFB86" unicode="&#x68e;" horiz-adv-x="827" arabic-form="isolated" 
d="M94 668h319q74 0 135.5 -27t105.5 -72t68.5 -106.5t24.5 -130.5q0 -74 -26.5 -134.5t-72.5 -104.5t-105.5 -68.5t-126.5 -24.5h-322v190h315q64 0 106 38t42 104q0 24 -8.5 50t-26.5 46.5t-46 33.5t-67 13h-315v193zM485 987q48 0 80.5 -35t32.5 -78q0 -49 -37 -82.5
t-76 -33.5q-49 0 -82.5 33.5t-33.5 82.5q0 43 30.5 78t85.5 35zM238 987q51 0 81.5 -34t30.5 -79q0 -53 -35.5 -84.5t-76.5 -31.5q-47 0 -81 34.5t-34 81.5q0 41 30.5 77t84.5 36zM363 1200q47 0 79.5 -35t32.5 -78q0 -49 -37 -82.5t-75 -33.5q-50 0 -83.5 33.5t-33.5 82.5
q0 43 30.5 78t86.5 35z" />
    <glyph glyph-name="uniFB87" unicode="&#x68e;" horiz-adv-x="831" arabic-form="final" 
d="M92 190h315q72 0 110 43t38 99q0 24 -8.5 50t-26.5 46.5t-46 33.5t-67 13h-315v193h319q74 0 135.5 -27t105.5 -72t68.5 -106.5t24.5 -130.5q0 -80 -30 -142h116v-190h-739v190zM485 987q48 0 80.5 -35t32.5 -78q0 -49 -37 -82.5t-76 -33.5q-49 0 -82.5 33.5t-33.5 82.5
q0 43 30.5 78t85.5 35zM238 987q51 0 81.5 -34t30.5 -79q0 -53 -35.5 -84.5t-76.5 -31.5q-47 0 -81 34.5t-34 81.5q0 41 30.5 77t84.5 36zM363 1200q47 0 79.5 -35t32.5 -78q0 -49 -37 -82.5t-75 -33.5q-50 0 -83.5 33.5t-33.5 82.5q0 43 30.5 78t86.5 35z" />
    <glyph glyph-name="uniFB88" unicode="&#x688;" horiz-adv-x="835" arabic-form="isolated" 
d="M94 668h319q74 0 135.5 -27t105.5 -72t68.5 -106.5t24.5 -130.5q0 -74 -26.5 -134.5t-72.5 -104.5t-105.5 -68.5t-126.5 -24.5h-322v190h315q64 0 106 38t42 104q0 24 -8.5 50t-26.5 46.5t-46 33.5t-67 13h-315v193zM385 991q-39 0 -73 -25.5t-66 -68.5h219
q-4 43 -21.5 68.5t-58.5 25.5zM139 831v66h47v252h62v-166q34 41 69 58.5t72 17.5q43 0 69.5 -18.5t43 -48t22.5 -68.5t6 -80v-13h-391z" />
    <glyph glyph-name="uniFB89" unicode="&#x688;" horiz-adv-x="831" arabic-form="final" 
d="M92 190h315q72 0 110 43t38 99q0 24 -8.5 50t-26.5 46.5t-46 33.5t-67 13h-315v193h319q74 0 135.5 -27t105.5 -72t68.5 -106.5t24.5 -130.5q0 -80 -30 -142h116v-190h-739v190zM387 991q-39 0 -73 -25.5t-66 -68.5h219q-4 43 -21.5 68.5t-58.5 25.5zM141 831v66h47v252
h62v-166q35 41 69.5 58.5t71.5 17.5q43 0 69.5 -18.5t43 -48t22.5 -68.5t6 -80v-13h-391z" />
    <glyph glyph-name="uniFB8A" unicode="&#x698;" horiz-adv-x="659" arabic-form="isolated" 
d="M317 51q33 53 44 95t11 87q0 173 -155 269l96 170q119 -78 184.5 -187.5t65.5 -232.5q0 -76 -18.5 -146.5t-69.5 -156.5l-201 -340l-164 94zM437 997q48 0 80.5 -34.5t32.5 -77.5q0 -49 -37 -83t-76 -34q-49 0 -82.5 34t-33.5 83q0 43 30.5 77.5t85.5 34.5zM190 997
q51 0 81.5 -33.5t30.5 -78.5q0 -54 -35.5 -85.5t-76.5 -31.5q-47 0 -81 35t-34 82q0 41 30.5 76.5t84.5 35.5zM315 1210q47 0 79.5 -34.5t32.5 -77.5q0 -49 -36.5 -83t-75.5 -34q-50 0 -83.5 34t-33.5 83q0 43 30.5 77.5t86.5 34.5z" />
    <glyph glyph-name="uniFB8B" unicode="&#x698;" horiz-adv-x="667" arabic-form="final" 
d="M437 997q48 0 80.5 -34.5t32.5 -77.5q0 -49 -37 -83t-76 -34q-49 0 -82.5 34t-33.5 83q0 43 30.5 77.5t85.5 34.5zM190 997q51 0 81.5 -33.5t30.5 -78.5q0 -54 -35.5 -85.5t-76.5 -31.5q-47 0 -81 35t-34 82q0 41 30.5 76.5t84.5 35.5zM315 1210q47 0 79.5 -34.5
t32.5 -77.5q0 -49 -36.5 -83t-75.5 -34q-50 0 -83.5 34t-33.5 83q0 43 30.5 77.5t86.5 34.5zM323 59q33 54 44 96t11 87q0 172 -155 268l96 170q119 -78 184.5 -187.5t65.5 -232.5v-35.5t-4 -34.5h102v-190h-164q-4 -10 -10 -21.5t-12 -21.5l-201 -340l-164 94z" />
    <glyph glyph-name="uniFB8C" unicode="&#x691;" horiz-adv-x="624" arabic-form="isolated" 
d="M282 51q33 53 44 95t11 87q0 173 -156 269l97 170q119 -78 184.5 -187.5t65.5 -232.5q0 -76 -18.5 -146.5t-69.5 -156.5l-201 -340l-164 94zM366 971q-39 0 -73 -25.5t-66 -68.5h219q-4 43 -21.5 68.5t-58.5 25.5zM120 811v66h47v251h62v-165q34 41 69 58t72 17
q43 0 69.5 -18.5t43 -48t22.5 -68.5t6 -80v-12h-391z" />
    <glyph glyph-name="uniFB8D" unicode="&#x691;" horiz-adv-x="626" arabic-form="final" 
d="M282 59q33 54 44 96t11 87q0 172 -156 268l97 170q119 -78 184.5 -187.5t65.5 -232.5v-35.5t-4 -34.5h102v-190h-164q-4 -10 -10 -21.5t-12 -21.5l-201 -340l-164 94zM366 979q-39 0 -73 -25.5t-66 -68.5h219q-4 43 -21.5 68.5t-58.5 25.5zM120 819v66h47v252h62v-166
q34 41 69 58.5t72 17.5q43 0 69.5 -18.5t43 -48.5t22.5 -69t6 -80v-12h-391z" />
    <glyph glyph-name="uniFB8E" unicode="&#x6a9;" horiz-adv-x="1277" arabic-form="isolated" 
d="M430 0q-70 0 -131.5 27.5t-106.5 73.5t-71.5 107.5t-26.5 129.5h190q0 -57 43 -102.5t105 -45.5h391q78 0 121 38t43 104q0 69 -42 107t-110 38h-403v150l526 526l140 -135l-351 -348h78q72 0 136.5 -22.5t112.5 -65.5t75.5 -105.5t27.5 -142.5t-28.5 -142.5
t-75.5 -104.5t-110.5 -64.5t-131.5 -22.5h-401z" />
    <glyph glyph-name="uniFB8F" unicode="&#x6a9;" horiz-adv-x="1296" arabic-form="final" 
d="M430 0q-70 0 -131.5 27.5t-106.5 73.5t-71.5 107.5t-26.5 129.5h190q0 -57 43 -102.5t105 -45.5h391q78 0 121 38t43 104q0 69 -42 107t-110 38h-403v150l526 526l140 -135l-351 -348h78q72 0 136.5 -22.5t112.5 -65.5t75.5 -105.5t27.5 -142.5t-28 -144h147v-190h-219
v90q-49 -45 -112.5 -67.5t-133.5 -22.5h-401z" />
    <glyph glyph-name="uniFB90" unicode="&#x6a9;" horiz-adv-x="947" arabic-form="initial" 
d="M1 0q-37 0 -54.5 29.5t-17.5 64.5t17.5 65.5t54.5 30.5h491q78 0 121 38t43 104q0 69 -42 107t-110 38h-403v150l526 526l140 -135l-351 -348h78q72 0 136.5 -22.5t112.5 -65.5t76 -105.5t28 -142.5t-29 -142.5t-76 -104.5t-110.5 -64.5t-131.5 -22.5h-499z" />
    <glyph glyph-name="uniFB91" unicode="&#x6a9;" horiz-adv-x="964" arabic-form="medial" 
d="M1 0q-37 0 -54.5 29.5t-17.5 64.5t17.5 65.5t54.5 30.5h491q78 0 121 38t43 104q0 69 -42 107t-110 38h-403v150l526 526l140 -135l-351 -348h78q72 0 136.5 -22.5t112.5 -65.5t76 -105.5t28 -142.5t-29 -144h147v-190h-219v90q-49 -45 -112.5 -67.5t-133.5 -22.5h-499z
" />
    <glyph glyph-name="uniFB92" unicode="&#x6af;" horiz-adv-x="1277" arabic-form="isolated" 
d="M430 0q-70 0 -131.5 27.5t-106.5 73.5t-71.5 107.5t-26.5 129.5h190q0 -57 43 -102.5t105 -45.5h391q78 0 121 38t43 104q0 69 -42 107t-110 38h-403v150l526 526l140 -135l-351 -348h78q72 0 136.5 -22.5t112.5 -65.5t75.5 -105.5t27.5 -142.5t-28.5 -142.5
t-75.5 -104.5t-110.5 -64.5t-131.5 -22.5h-401zM846 1262l43 -43l-523 -523l-41 41z" />
    <glyph glyph-name="uniFB93" unicode="&#x6af;" horiz-adv-x="1296" arabic-form="final" 
d="M430 0q-70 0 -131.5 27.5t-106.5 73.5t-71.5 107.5t-26.5 129.5h190q0 -57 43 -102.5t105 -45.5h391q78 0 121 38t43 104q0 69 -42 107t-110 38h-403v150l526 526l140 -135l-351 -348h78q72 0 136.5 -22.5t112.5 -65.5t75.5 -105.5t27.5 -142.5t-28 -144h147v-190h-219
v90q-49 -45 -112.5 -67.5t-133.5 -22.5h-401zM846 1262l43 -43l-523 -523l-41 41z" />
    <glyph glyph-name="uniFB94" unicode="&#x6af;" horiz-adv-x="947" arabic-form="initial" 
d="M515 1262l43 -43l-523 -523l-40 41zM1 0q-37 0 -54.5 29.5t-17.5 64.5t17.5 65.5t54.5 30.5h491q78 0 121 38t43 104q0 69 -42 107t-110 38h-403v150l526 526l140 -135l-351 -348h78q72 0 136.5 -22.5t112.5 -65.5t76 -105.5t28 -142.5t-29 -142.5t-76 -104.5
t-110.5 -64.5t-131.5 -22.5h-499z" />
    <glyph glyph-name="uniFB95" unicode="&#x6af;" horiz-adv-x="964" arabic-form="medial" 
d="M515 1262l43 -43l-523 -523l-40 41zM1 0q-37 0 -54.5 29.5t-17.5 64.5t17.5 65.5t54.5 30.5h491q78 0 121 38t43 104q0 69 -42 107t-110 38h-403v150l526 526l140 -135l-351 -348h78q72 0 136.5 -22.5t112.5 -65.5t76 -105.5t28 -142.5t-29 -144h147v-190h-219v90
q-49 -45 -112.5 -67.5t-133.5 -22.5h-499z" />
    <glyph glyph-name="uniFB96" unicode="&#x6b3;" horiz-adv-x="1277" arabic-form="isolated" 
d="M430 0q-70 0 -131.5 27.5t-106.5 73.5t-71.5 107.5t-26.5 129.5h190q0 -57 43 -102.5t105 -45.5h391q78 0 121 38t43 104q0 69 -42 107t-110 38h-403v150l526 526l140 -135l-351 -348h78q72 0 136.5 -22.5t112.5 -65.5t75.5 -105.5t27.5 -142.5t-28.5 -142.5
t-75.5 -104.5t-110.5 -64.5t-131.5 -22.5h-401zM846 1262l43 -43l-523 -523l-41 41zM671 -574q-47 0 -80.5 33t-33.5 82q0 47 33.5 81t80.5 34q45 0 80 -33t35 -82q0 -53 -33.5 -84t-81.5 -31zM667 -322q-47 0 -80.5 33t-33.5 82q0 47 33.5 81t80.5 34q45 0 80 -33t35 -82
q0 -53 -33.5 -84t-81.5 -31z" />
    <glyph glyph-name="uniFB97" unicode="&#x6b3;" horiz-adv-x="1296" arabic-form="final" 
d="M430 0q-70 0 -131.5 27.5t-106.5 73.5t-71.5 107.5t-26.5 129.5h190q0 -57 43 -102.5t105 -45.5h391q78 0 121 38t43 104q0 69 -42 107t-110 38h-403v150l526 526l140 -135l-351 -348h78q72 0 136.5 -22.5t112.5 -65.5t75.5 -105.5t27.5 -142.5t-28 -144h147v-190h-219
v90q-49 -45 -112.5 -67.5t-133.5 -22.5h-401zM846 1262l43 -43l-523 -523l-41 41zM671 -574q-47 0 -80.5 33t-33.5 82q0 47 33.5 81t80.5 34q45 0 80 -33t35 -82q0 -53 -33.5 -84t-81.5 -31zM667 -322q-47 0 -80.5 33t-33.5 82q0 47 33.5 81t80.5 34q45 0 80 -33t35 -82
q0 -53 -33.5 -84t-81.5 -31z" />
    <glyph glyph-name="uniFB98" unicode="&#x6b3;" horiz-adv-x="947" arabic-form="initial" 
d="M515 1262l43 -43l-523 -523l-40 41zM1 0q-37 0 -54.5 29.5t-17.5 64.5t17.5 65.5t54.5 30.5h491q78 0 121 38t43 104q0 69 -42 107t-110 38h-403v150l526 526l140 -135l-351 -348h78q72 0 136.5 -22.5t112.5 -65.5t76 -105.5t28 -142.5t-29 -142.5t-76 -104.5
t-110.5 -64.5t-131.5 -22.5h-499zM371 -574q-47 0 -80.5 33t-33.5 82q0 47 33.5 81t80.5 34q45 0 80 -33t35 -82q0 -53 -33.5 -84t-81.5 -31zM367 -322q-47 0 -80.5 33t-33.5 82q0 47 33.5 81t80.5 34q45 0 80 -33t35 -82q0 -53 -33.5 -84t-81.5 -31z" />
    <glyph glyph-name="uniFB99" unicode="&#x6b3;" horiz-adv-x="964" arabic-form="medial" 
d="M515 1262l43 -43l-523 -523l-40 41zM1 0q-37 0 -54.5 29.5t-17.5 64.5t17.5 65.5t54.5 30.5h491q78 0 121 38t43 104q0 69 -42 107t-110 38h-403v150l526 526l140 -135l-351 -348h78q72 0 136.5 -22.5t112.5 -65.5t76 -105.5t28 -142.5t-29 -144h147v-190h-219v90
q-49 -45 -112.5 -67.5t-133.5 -22.5h-499zM351 -574q-47 0 -80.5 33t-33.5 82q0 47 33.5 81t80.5 34q45 0 80 -33t35 -82q0 -53 -33.5 -84t-81.5 -31zM347 -322q-47 0 -80.5 33t-33.5 82q0 47 33.5 81t80.5 34q45 0 80 -33t35 -82q0 -53 -33.5 -84t-81.5 -31z" />
    <glyph glyph-name="uniFB9A" unicode="&#x6b1;" horiz-adv-x="1277" arabic-form="isolated" 
d="M430 0q-70 0 -131.5 27.5t-106.5 73.5t-71.5 107.5t-26.5 129.5h190q0 -57 43 -102.5t105 -45.5h391q78 0 121 38t43 104q0 69 -42 107t-110 38h-403v150l526 526l140 -135l-351 -348h78q72 0 136.5 -22.5t112.5 -65.5t75.5 -105.5t27.5 -142.5t-28.5 -142.5
t-75.5 -104.5t-110.5 -64.5t-131.5 -22.5h-401zM846 1262l43 -43l-523 -523l-41 41zM466 1227q47 0 80 -34.5t33 -77.5q0 -50 -37 -83.5t-76 -33.5q-49 0 -83 33.5t-34 83.5q0 43 31 77.5t86 34.5zM218 1227q51 0 82 -33.5t31 -78.5q0 -54 -36 -85.5t-77 -31.5
q-47 0 -80.5 35t-33.5 82q0 41 30.5 76.5t83.5 35.5z" />
    <glyph glyph-name="uniFB9B" unicode="&#x6b1;" horiz-adv-x="1296" arabic-form="final" 
d="M430 0q-70 0 -131.5 27.5t-106.5 73.5t-71.5 107.5t-26.5 129.5h190q0 -57 43 -102.5t105 -45.5h391q78 0 121 38t43 104q0 69 -42 107t-110 38h-403v150l526 526l140 -135l-351 -348h78q72 0 136.5 -22.5t112.5 -65.5t75.5 -105.5t27.5 -142.5t-28 -144h147v-190h-219
v90q-49 -45 -112.5 -67.5t-133.5 -22.5h-401zM846 1262l43 -43l-523 -523l-41 41zM466 1227q47 0 80 -34.5t33 -77.5q0 -50 -37 -83.5t-76 -33.5q-49 0 -83 33.5t-34 83.5q0 43 31 77.5t86 34.5zM218 1227q51 0 82 -33.5t31 -78.5q0 -54 -36 -85.5t-77 -31.5q-47 0 -80.5 35
t-33.5 82q0 41 30.5 76.5t83.5 35.5z" />
    <glyph glyph-name="uniFB9C" unicode="&#x6b1;" horiz-adv-x="947" arabic-form="initial" 
d="M515 1262l43 -43l-523 -523l-40 41zM1 0q-37 0 -54.5 29.5t-17.5 64.5t17.5 65.5t54.5 30.5h491q78 0 121 38t43 104q0 69 -42 107t-110 38h-403v150l526 526l140 -135l-351 -348h78q72 0 136.5 -22.5t112.5 -65.5t76 -105.5t28 -142.5t-29 -142.5t-76 -104.5
t-110.5 -64.5t-131.5 -22.5h-499zM366 1477q47 0 80 -34.5t33 -77.5q0 -50 -37 -83.5t-76 -33.5q-49 0 -83 33.5t-34 83.5q0 43 31 77.5t86 34.5zM118 1477q51 0 82 -33.5t31 -78.5q0 -54 -36 -85.5t-77 -31.5q-47 0 -80.5 35t-33.5 82q0 41 30.5 76.5t83.5 35.5z" />
    <glyph glyph-name="uniFB9D" unicode="&#x6b1;" horiz-adv-x="964" arabic-form="medial" 
d="M515 1262l43 -43l-523 -523l-40 41zM1 0q-37 0 -54.5 29.5t-17.5 64.5t17.5 65.5t54.5 30.5h491q78 0 121 38t43 104q0 69 -42 107t-110 38h-403v150l526 526l140 -135l-351 -348h78q72 0 136.5 -22.5t112.5 -65.5t76 -105.5t28 -142.5t-29 -144h147v-190h-219v90
q-49 -45 -112.5 -67.5t-133.5 -22.5h-499zM366 1477q47 0 80 -34.5t33 -77.5q0 -50 -37 -83.5t-76 -33.5q-49 0 -83 33.5t-34 83.5q0 43 31 77.5t86 34.5zM118 1477q51 0 82 -33.5t31 -78.5q0 -54 -36 -85.5t-77 -31.5q-47 0 -80.5 35t-33.5 82q0 41 30.5 76.5t83.5 35.5z
" />
    <glyph glyph-name="uniFB9E" unicode="&#x6ba;" horiz-adv-x="1155" arabic-form="isolated" 
d="M1109 207q0 -103 -31.5 -197t-94 -167.5t-159 -117.5t-225.5 -44q-76 0 -161 28.5t-155.5 88t-116.5 151.5t-46 219q0 98 33 186t96.5 156t154.5 110t205 48v-191q-61 -4 -115.5 -27.5t-94 -63.5t-62 -96.5t-22.5 -125.5q0 -72 23.5 -127t65.5 -92t96 -56.5t116 -19.5
q59 0 113.5 22.5t96.5 66.5t66.5 106.5t24.5 142.5v469h192v-469z" />
    <glyph glyph-name="uniFB9F" unicode="&#x6ba;" horiz-adv-x="1208" arabic-form="final" 
d="M1109 676v-486h98v-190h-133q-24 -68 -66 -126t-101.5 -101t-136.5 -67.5t-171 -24.5q-76 0 -161 28.5t-155.5 88t-116.5 151.5t-46 219q0 98 33 186t96.5 156t154.5 110t205 48v-191q-61 -4 -115.5 -27.5t-94 -63.5t-62 -96.5t-22.5 -125.5q0 -72 23.5 -127t65.5 -92
t96 -56.5t116 -19.5q59 0 113.5 22.5t96.5 66.5t66.5 106.5t24.5 142.5v469h192z" />
    <glyph glyph-name="uniFBA0" unicode="&#x6bb;" horiz-adv-x="1155" arabic-form="isolated" 
d="M1109 207q0 -103 -31.5 -197t-94 -167.5t-159 -117.5t-225.5 -44q-76 0 -161 28.5t-155.5 88t-116.5 151.5t-46 219q0 98 33 186t96.5 156t154.5 110t205 48v-191q-61 -4 -115.5 -27.5t-94 -63.5t-62 -96.5t-22.5 -125.5q0 -72 23.5 -127t65.5 -92t96 -56.5t116 -19.5
q59 0 113.5 22.5t96.5 66.5t66.5 106.5t24.5 142.5v469h192v-469zM661 950q-39 0 -73 -25.5t-66 -68.5h219q-4 43 -21.5 68.5t-58.5 25.5zM415 791v65h47v252h62v-166q34 41 69 58.5t72 17.5q43 0 69.5 -18.5t43 -48t22.5 -68.5t6 -80v-12h-391z" />
    <glyph glyph-name="uniFBA1" unicode="&#x6bb;" horiz-adv-x="1208" arabic-form="final" 
d="M1109 676v-486h98v-190h-133q-24 -68 -66 -126t-101.5 -101t-136.5 -67.5t-171 -24.5q-76 0 -161 28.5t-155.5 88t-116.5 151.5t-46 219q0 98 33 186t96.5 156t154.5 110t205 48v-191q-61 -4 -115.5 -27.5t-94 -63.5t-62 -96.5t-22.5 -125.5q0 -72 23.5 -127t65.5 -92
t96 -56.5t116 -19.5q59 0 113.5 22.5t96.5 66.5t66.5 106.5t24.5 142.5v469h192zM661 950q-39 0 -73 -25.5t-66 -68.5h219q-4 43 -21.5 68.5t-58.5 25.5zM415 791v65h47v252h62v-166q34 41 69 58.5t72 17.5q43 0 69.5 -18.5t43 -48t22.5 -68.5t6 -80v-12h-391z" />
    <glyph glyph-name="uniFBA2" unicode="&#x6bb;" horiz-adv-x="436" arabic-form="initial" 
d="M1 190q51 7 92 46.5t41 99.5v344h190v-344q0 -76 -28.5 -137.5t-74.5 -105.5t-104.5 -68.5t-115.5 -24.5q-35 0 -53.5 29.5t-18.5 64.5t18.5 63.5t53.5 32.5zM261 950q-39 0 -73 -25.5t-66 -68.5h219q-4 43 -21.5 68.5t-58.5 25.5zM15 791v65h47v252h62v-166
q34 41 69 58.5t72 17.5q43 0 69.5 -18.5t43 -48t22.5 -68.5t6 -80v-12h-391z" />
    <glyph glyph-name="uniFBA3" unicode="&#x6bb;" horiz-adv-x="466" arabic-form="medial" 
d="M1 0q-35 0 -53.5 29.5t-18.5 64.5t18.5 63.5t53.5 32.5q51 7 92 46.5t41 99.5v344h192v-344q0 -80 -32 -146h174v-190h-240v100q-49 -51 -108.5 -75.5t-118.5 -24.5zM261 950q-39 0 -73 -25.5t-66 -68.5h219q-4 43 -21.5 68.5t-58.5 25.5zM15 791v65h47v252h62v-166
q34 41 69 58.5t72 17.5q43 0 69.5 -18.5t43 -48t22.5 -68.5t6 -80v-12h-391z" />
    <glyph glyph-name="uniFBA4" unicode="&#x6c0;" horiz-adv-x="862" arabic-form="isolated" 
d="M282 332q0 -60 39 -102t105 -42q59 0 102 42t43 102q0 59 -43 102t-102 43q-60 0 -102 -43t-42 -102zM94 334q0 69 26.5 129.5t71.5 105.5t105.5 72t130.5 27q69 0 129.5 -27t105.5 -72t72 -105.5t27 -129.5q0 -70 -27 -130.5t-72 -105.5t-105.5 -71.5t-129.5 -26.5
q-70 0 -130.5 26.5t-105.5 71.5t-71.5 105.5t-26.5 130.5zM321 897q-12 25 -12 53q0 51 35 88t90 37q29 0 55.5 -11t44.5 -38l-47 -53q-24 31 -57 31q-21 0 -34 -16.5t-13 -35.5q0 -24 13 -38.5t34 -16.5h133v-74h-303v74h61z" />
    <glyph glyph-name="uniFBA5" unicode="&#x6c0;" horiz-adv-x="1021" arabic-form="final" 
d="M429 897q-12 25 -12 53q0 51 35 88t90 37q29 0 55.5 -11t44.5 -38l-47 -53q-24 31 -57 31q-20 0 -33.5 -16.5t-13.5 -35.5q0 -24 13.5 -39.5t33.5 -15.5h133v-74h-303v74h61zM702 477h-252q-39 0 -66.5 -13t-46 -34.5t-27 -47.5t-8.5 -50q0 -66 42 -104t106 -38h154v-190
h-160q-68 0 -127.5 24.5t-105.5 68.5t-72.5 104.5t-26.5 134.5q0 69 24.5 130.5t68.5 107.5t105.5 73t135.5 27h446v-480h129v-190h-319v477z" />
    <glyph glyph-name="uniFBA6" unicode="&#x6c1;" horiz-adv-x="862" arabic-form="isolated" 
d="M282 332q0 -60 39 -102t105 -42q59 0 102 42t43 102q0 59 -43 102t-102 43q-60 0 -102 -43t-42 -102zM94 334q0 69 26.5 129.5t71.5 105.5t105.5 72t130.5 27q69 0 129.5 -27t105.5 -72t72 -105.5t27 -129.5q0 -70 -27 -130.5t-72 -105.5t-105.5 -71.5t-129.5 -26.5
q-70 0 -130.5 26.5t-105.5 71.5t-71.5 105.5t-26.5 130.5z" />
    <glyph glyph-name="uniFBA7" unicode="&#x6c1;" horiz-adv-x="1021" arabic-form="final" 
d="M702 477h-231q-39 0 -66.5 -13t-46 -34.5t-27 -47.5t-8.5 -50v-332h-190v332q0 69 24.5 130.5t68.5 107.5t105.5 73t135.5 27h426v-480h129v-190h-320v477z" />
    <glyph glyph-name="uniFBA8" unicode="&#x6c1;" horiz-adv-x="440" arabic-form="initial" 
d="M1 190q51 7 92 46.5t41 99.5v344h190v-344q0 -76 -28.5 -137.5t-74.5 -105.5t-104.5 -68.5t-115.5 -24.5q-35 0 -53.5 29.5t-18.5 64.5t18.5 63.5t53.5 32.5zM87 -362v10q0 88 23.5 173t66.5 171h135q-41 -133 -41 -264v-45.5t4 -44.5h-188z" />
    <glyph glyph-name="uniFBA9" unicode="&#x6c1;" horiz-adv-x="907" arabic-form="medial" 
d="M-5 0q-37 0 -54.5 29.5t-17.5 64.5t17.5 65.5t54.5 30.5h184q29 70 82 133.5t137 116.5l86 -153q-166 -105 -166 -262q0 -45 9.5 -82t24.5 -72t35.5 -68.5t43.5 -72.5l242 460h235v-190h-143l-246 -475h-162l-90 151q-61 105 -88 181.5t-27 142.5h-157z" />
    <glyph glyph-name="uniFBAA" unicode="&#x6be;" horiz-adv-x="1505" arabic-form="isolated" 
d="M287 338q0 -29 11 -54.5t31.5 -47t46 -34t56.5 -12.5h53q0 62 20.5 115t57.5 93t89 63.5t116 23.5q67 0 121.5 -23.5t93.5 -63.5t60.5 -93t21.5 -115h149q6 31 6 72q0 53 -23.5 105.5t-63.5 92.5t-93 64.5t-115 24.5h-165v190h174q102 0 190 -41t152.5 -107.5
t100.5 -152.5t36 -176q0 -53 -12.5 -117.5t-55.5 -144.5h-915q-68 0 -129.5 27.5t-107.5 73.5t-72.5 107.5t-26.5 129.5h193zM770 295q-45 0 -70.5 -32t-25.5 -73h196q-4 50 -29.5 77.5t-70.5 27.5z" />
    <glyph glyph-name="uniFBAB" unicode="&#x6be;" horiz-adv-x="1536" arabic-form="final" 
d="M287 338q0 -29 11 -54.5t31.5 -47t46 -34t56.5 -12.5h53q0 62 20.5 115t57.5 93t89 63.5t116 23.5q67 0 121.5 -23.5t93.5 -63.5t60.5 -93t21.5 -115h149q6 31 6 72q0 53 -23.5 105.5t-63.5 92.5t-93 64.5t-115 24.5h-165v190h174q102 0 190 -41t152.5 -107.5
t100.5 -152.5t36 -176q0 -16 -1 -34.5t-3 -37.5h127v-190h-1106q-68 0 -129.5 27.5t-107.5 73.5t-72.5 107.5t-26.5 129.5h193zM770 295q-45 0 -70.5 -32t-25.5 -73h196q-4 50 -29.5 77.5t-70.5 27.5z" />
    <glyph glyph-name="uniFBAC" unicode="&#x6be;" horiz-adv-x="1153" arabic-form="initial" 
d="M1 0q-37 0 -54.5 29.5t-17.5 64.5t17.5 65.5t54.5 30.5h123q0 62 20.5 115t57 93t89 63.5t115.5 23.5q68 0 122 -23.5t93 -63.5t60.5 -93t21.5 -115h150q6 31 6 72q0 53 -23.5 105.5t-63.5 92.5t-93.5 64.5t-114.5 24.5h-166v190h174q102 0 190.5 -41t153 -107.5
t100 -152.5t35.5 -176q0 -53 -12 -117.5t-55 -144.5h-983zM408 295q-45 0 -70.5 -32t-25.5 -73h197q-5 50 -30.5 77.5t-70.5 27.5z" />
    <glyph glyph-name="uniFBAD" unicode="&#x6be;" horiz-adv-x="1173" arabic-form="medial" 
d="M1 0q-37 0 -54.5 29.5t-17.5 64.5t17.5 65.5t54.5 30.5h123q0 62 20.5 115t57 93t89 63.5t115.5 23.5q68 0 122 -23.5t93 -63.5t60.5 -93t21.5 -115h150q6 31 6 72q0 53 -23.5 105.5t-63.5 92.5t-93.5 64.5t-114.5 24.5h-166v190h174q102 0 190.5 -41t153 -107.5
t100 -152.5t35.5 -176q0 -16 -1 -34.5t-3 -37.5h127v-190h-1173zM408 295q-45 0 -70.5 -32t-25.5 -73h197q-5 50 -30.5 77.5t-70.5 27.5z" />
    <glyph glyph-name="uniFBAE" unicode="&#x6d2;" horiz-adv-x="1034" arabic-form="isolated" 
d="M286 -307q-76 0 -125 25.5t-77.5 63.5t-40 83t-11.5 82q0 45 15.5 89t48 77.5t81 55t113.5 21.5h164q65 0 65 60v420h193v-424q0 -53 -18.5 -98.5t-51 -78t-77 -51t-95.5 -18.5h-188q-57 0 -57 -51q0 -64 57 -64h770v-192h-766z" />
    <glyph glyph-name="uniFBAF" unicode="&#x6d2;" horiz-adv-x="1076" arabic-form="final" 
d="M290 -307q-76 0 -125 25.5t-77.5 63.5t-40 83t-11.5 82q0 45 15.5 89t48 77.5t81 55t113.5 21.5h782v-190h-790q-57 0 -57 -51q0 -64 57 -64h670v-192h-666z" />
    <glyph glyph-name="uniFBB0" unicode="&#x6d3;" horiz-adv-x="1034" arabic-form="isolated" 
d="M286 -307q-76 0 -125 25.5t-77.5 63.5t-40 83t-11.5 82q0 45 15.5 89t48 77.5t81 55t113.5 21.5h164q65 0 65 60v420h193v-424q0 -53 -18.5 -98.5t-51 -78t-77 -51t-95.5 -18.5h-188q-57 0 -57 -51q0 -64 57 -64h770v-192h-766zM495 815q-12 25 -12 53q0 52 34.5 88.5
t89.5 36.5q29 0 55.5 -11t45.5 -38l-47 -53q-25 31 -58 31q-20 0 -33.5 -16.5t-13.5 -35.5q0 -24 13.5 -39.5t33.5 -15.5h134v-74h-304v74h62z" />
    <glyph glyph-name="uniFBB1" unicode="&#x6d3;" horiz-adv-x="1076" arabic-form="final" 
d="M224 385q-12 25 -12 53q0 51 35 88t90 37q29 0 55.5 -11t44.5 -38l-47 -53q-24 31 -57 31q-21 0 -34 -16.5t-13 -35.5q0 -24 13 -39.5t34 -15.5h133v-74h-303v74h61zM290 -307q-76 0 -125 25.5t-77.5 63.5t-40 83t-11.5 82q0 45 15.5 89t48 77.5t81 55t113.5 21.5h782
v-190h-790q-57 0 -57 -51q0 -64 57 -64h670v-192h-666z" />
    <glyph glyph-name="uniFBD3" unicode="&#x6ad;" horiz-adv-x="1337" arabic-form="isolated" 
d="M553 610q-10 17 -14.5 37.5t-4.5 42.5q0 45 15.5 78t41 55.5t57.5 33.5t64 11q41 0 81 -16t71 -57l-74 -74q-28 43 -78 43q-34 0 -53.5 -19.5t-19.5 -54.5t20.5 -57.5t59.5 -22.5h166v-102h-394v102h62zM432 0q-82 0 -145.5 28.5t-106.5 75t-64.5 105.5t-21.5 123
q0 80 38 156.5t116 127.5l139 -141q-53 -20 -78 -60t-25 -85q0 -54 37 -97t115 -43h467q61 0 103 43t42 103v827h193v-827q0 -62 -23.5 -122t-67.5 -108.5t-106.5 -77t-138.5 -28.5h-473zM1257 1470q47 0 80 -34.5t33 -77.5q0 -50 -37 -83.5t-76 -33.5q-49 0 -83 33.5
t-34 83.5q0 43 31 77.5t86 34.5zM1009 1470q51 0 82 -33.5t31 -78.5q0 -54 -36 -85.5t-77 -31.5q-47 0 -80.5 35t-33.5 82q0 41 30.5 76.5t83.5 35.5zM1134 1683q47 0 80 -34.5t33 -77.5q0 -50 -37 -83.5t-76 -33.5q-49 0 -83 33.5t-34 83.5q0 43 31 77.5t86 34.5z" />
    <glyph glyph-name="uniFBD4" unicode="&#x6ad;" horiz-adv-x="1349" arabic-form="final" 
d="M432 0q-82 0 -145.5 28.5t-106.5 75t-64.5 105.5t-21.5 123q0 80 38 156.5t116 127.5l139 -141q-53 -20 -78 -60t-25 -85q0 -54 37 -97t115 -43h467q61 0 103 43t42 103v827h193v-827q0 -76 -35 -146h143v-190h-200v104q-45 -47 -106.5 -75.5t-137.5 -28.5h-473zM553 610
q-10 17 -14.5 37.5t-4.5 42.5q0 45 15.5 78t41 55.5t57.5 33.5t64 11q41 0 81 -16t71 -57l-74 -74q-28 43 -78 43q-34 0 -53.5 -19.5t-19.5 -54.5t20.5 -57.5t59.5 -22.5h166v-102h-394v102h62zM1257 1470q47 0 80 -34.5t33 -77.5q0 -50 -37 -83.5t-76 -33.5q-49 0 -83 33.5
t-34 83.5q0 43 31 77.5t86 34.5zM1009 1470q51 0 82 -33.5t31 -78.5q0 -54 -36 -85.5t-77 -31.5q-47 0 -80.5 35t-33.5 82q0 41 30.5 76.5t83.5 35.5zM1134 1683q47 0 80 -34.5t33 -77.5q0 -50 -37 -83.5t-76 -33.5q-49 0 -83 33.5t-34 83.5q0 43 31 77.5t86 34.5z" />
    <glyph glyph-name="uniFBD5" unicode="&#x6ad;" horiz-adv-x="947" arabic-form="initial" 
d="M1 0q-37 0 -54.5 29.5t-17.5 64.5t17.5 65.5t54.5 30.5h491q78 0 121 38t43 104q0 69 -42 107t-110 38h-403v150l526 526l140 -135l-351 -348h78q72 0 136.5 -22.5t112.5 -65.5t76 -105.5t28 -142.5t-29 -142.5t-76 -104.5t-110.5 -64.5t-131.5 -22.5h-499zM386 1316
q47 0 80 -34.5t33 -77.5q0 -50 -37 -83.5t-76 -33.5q-49 0 -83 33.5t-34 83.5q0 43 31 77.5t86 34.5zM138 1316q51 0 82 -33.5t31 -78.5q0 -54 -36 -85.5t-77 -31.5q-47 0 -80.5 35t-33.5 82q0 41 30.5 76.5t83.5 35.5zM263 1529q47 0 80 -34.5t33 -77.5q0 -50 -37 -83.5
t-76 -33.5q-49 0 -83 33.5t-34 83.5q0 43 31 77.5t86 34.5z" />
    <glyph glyph-name="uniFBD6" unicode="&#x6ad;" horiz-adv-x="964" arabic-form="medial" 
d="M1 0q-37 0 -54.5 29.5t-17.5 64.5t17.5 65.5t54.5 30.5h491q78 0 121 38t43 104q0 69 -42 107t-110 38h-403v150l526 526l140 -135l-351 -348h78q72 0 136.5 -22.5t112.5 -65.5t76 -105.5t28 -142.5t-29 -144h147v-190h-219v90q-49 -45 -112.5 -67.5t-133.5 -22.5h-499z
M386 1316q47 0 80 -34.5t33 -77.5q0 -50 -37 -83.5t-76 -33.5q-49 0 -83 33.5t-34 83.5q0 43 31 77.5t86 34.5zM138 1316q51 0 82 -33.5t31 -78.5q0 -54 -36 -85.5t-77 -31.5q-47 0 -80.5 35t-33.5 82q0 41 30.5 76.5t83.5 35.5zM263 1529q47 0 80 -34.5t33 -77.5
q0 -50 -37 -83.5t-76 -33.5q-49 0 -83 33.5t-34 83.5q0 43 31 77.5t86 34.5z" />
    <glyph glyph-name="uniFBD7" unicode="&#x6c7;" horiz-adv-x="867" arabic-form="isolated" 
d="M113 338q0 68 23.5 128t67.5 105t106.5 72t140.5 27q70 0 130 -26t103 -70t68 -102t25 -124q0 -49 -12.5 -97t-35.5 -89l-284 -543l-168 88l153 301q-67 6 -125.5 30.5t-100.5 68t-66.5 101.5t-24.5 130zM301 336q0 -66 40 -104.5t100 -38.5q57 0 102 40.5t45 100.5
q0 59 -41 102t-106 43q-60 0 -100 -42t-40 -101zM347 903q0 39 26.5 66t65.5 27t66 -27t27 -66q0 -26 -14.5 -50.5t-55.5 -47.5l-139 -74l-29 45l100 50q-47 22 -47 77zM396 903q0 -18 12.5 -30.5t30.5 -12.5q17 0 30 12.5t13 30.5q0 19 -12 31t-31 12q-18 0 -30.5 -13
t-12.5 -30z" />
    </font>
</defs>
</svg>
