<?xml version="1.0" standalone="no"?>
<!DOCTYPE svg PUBLIC "-//W3C//DTD SVG 1.1//EN" "http://www.w3.org/Graphics/SVG/1.1/DTD/svg11.dtd" >
<svg xmlns="http://www.w3.org/2000/svg" xmlns:xlink="http://www.w3.org/1999/xlink" version="1.1">
<metadata>
Created by FontForge 20170731 at Fri Oct 21 01:57:09 2016
 By Aleksey,,,
(c)  2013 Bahij Virtual Academy. All rights reserved.
</metadata>
<defs>
<font id="BahijNassim-Regular" horiz-adv-x="0" >
  <font-face 
    font-family="Bahij Nassim"
    font-weight="400"
    font-stretch="normal"
    units-per-em="2048"
    panose-1="2 4 5 3 5 2 1 2 2 3"
    ascent="1638"
    descent="-410"
    x-height="784"
    cap-height="1079"
    bbox="-283 -1156 4604 2133"
    underline-thickness="50"
    underline-position="-150"
    unicode-range="U+0020-FEFC"
  />
<missing-glyph horiz-adv-x="728" 
d="M0 0v1020h728v-1020h-728zM117 947l247 -372l248 372h-495zM655 881l-247 -371l247 -372v743zM612 73l-248 371l-247 -371h495zM73 138l247 372l-247 371v-743z" />
    <glyph glyph-name="uniFB01" unicode="fi" horiz-adv-x="1076" 
d="M626 1160h18q0 -9 -53 -149h-1q-68 21 -118 21h-29q-73 0 -73 -15q-23 -54 -23 -234h553q3 0 3 -3v-693q131 -27 131 -30v-1q-8 -59 -12 -59h-372l-3 1q14 58 18 61q49 10 68 31q16 19 16 64v530h-402v-597q122 -22 145 -30q-12 -57 -15 -60h-388v1q13 62 21 62
q47 9 65 29q18 19 18 65v531q-170 38 -170 43q13 48 18 55h152v2q0 184 100 282q99 93 333 93zM822 1152h1q93 0 93 -94v-2q0 -66 -46 -87q-21 -8 -41 -8h-10q-94 0 -94 92v8q0 91 97 91z" />
    <glyph glyph-name="uniFB02" unicode="fl" horiz-adv-x="1065" 
d="M558 1160h15q103 0 190 -62h1q101 62 106 62h13q3 -1 3 -3v-1070q132 -27 134 -30q-11 -57 -15 -60h-375v1q13 62 21 62q41 8 62 27q20 17 20 78v790q-47 56 -154 83q-27 4 -48 4h-15q-68 0 -142 -33q-24 -54 -24 -215v-11h205l3 -1q-19 -96 -23 -98h-185v-597
q145 -27 145 -30q-12 -57 -15 -60h-388v1q13 62 21 62q47 9 65 29q18 18 18 64v532q-170 38 -170 43q13 48 18 55h152v9q0 260 214 344q73 24 148 24z" />
    <glyph glyph-name="uniFC31" unicode="&#xfed3;&#xfef0;" horiz-adv-x="1690" arabic-form="isolated" 
d="M1198 537q22 -48 66 -70.5t101 -22.5q37 0 76 10.5t56 22.5q-15 86 -65 133t-101 47q-47 0 -82 -33.5t-51 -86.5zM993 -14q45 -25 68.5 -62t23.5 -61q0 -43 -26.5 -92.5t-65.5 -77.5q-65 -55 -195 -91t-306 -36q-199 0 -301.5 96t-102.5 272q0 91 27.5 158.5t60.5 87.5
l39 25q-16 -41 -25.5 -82t-9.5 -100q0 -136 92.5 -211.5t280.5 -75.5q145 0 266 24.5t189 65.5q-52 45 -125.5 90t-139.5 70q11 34 26 68t26 55q20 8 46.5 15t64.5 12t92 8q24 1 53 2q4 1 9 1q158 0 280 27t193 80q-4 37 -7 70.5t-7 56.5q-29 -35 -76 -58.5t-92 -23.5
q-47 0 -88 17.5t-70.5 49t-47 74.5t-17.5 95q0 47 17.5 96t47 89t67.5 65.5t81 25.5q49 0 98 -35t88 -96.5t63.5 -145t24.5 -182.5q0 -92 -18.5 -146t-59.5 -89q-77 -66 -197 -98q-90 -25 -202 -31q-7 -2 -54 -2h-91zM1337 924q-33 14 -73 44.5t-64 65.5l100 123
q24 -33 65 -63.5t70 -46.5z" />
    <glyph glyph-name="uniFC32" unicode="&#xfed3;&#xfef2;" horiz-adv-x="1690" arabic-form="isolated" 
d="M659 -739q-28 12 -62 36.5t-58 51.5l-70 -103q-33 15 -73 42.5t-64 62.5l94 125q20 -27 51 -55.5t60 -45.5l79 115q27 -31 68 -60.5t70 -43.5zM1198 537q22 -48 66 -70.5t101 -22.5q37 0 76 10.5t56 22.5q-15 86 -65 133t-101 47q-47 0 -82 -33.5t-51 -86.5zM993 -14
q45 -25 68.5 -62t23.5 -61q0 -43 -26.5 -92.5t-65.5 -77.5q-65 -55 -195 -91t-306 -36q-199 0 -301.5 96t-102.5 272q0 91 27.5 158.5t60.5 87.5l39 25q-16 -41 -25.5 -82t-9.5 -100q0 -136 92.5 -211.5t280.5 -75.5q145 0 266 24.5t189 65.5q-52 45 -125.5 90t-139.5 70
q11 34 26 68t26 55q20 8 46.5 15t64.5 12t92 8q24 1 53 2q4 1 9 1q158 0 280 27t193 80q-4 37 -7 70.5t-7 56.5q-29 -35 -76 -58.5t-92 -23.5q-47 0 -88 17.5t-70.5 49t-47 74.5t-17.5 95q0 47 17.5 96t47 89t67.5 65.5t81 25.5q49 0 98 -35t88 -96.5t63.5 -145t24.5 -182.5
q0 -92 -18.5 -146t-59.5 -89q-77 -66 -197 -98q-90 -25 -202 -31q-7 -2 -54 -2h-91zM1337 924q-33 14 -73 44.5t-64 65.5l100 123q24 -33 65 -63.5t70 -46.5z" />
    <glyph glyph-name="uniFC43" unicode="&#xfedf;&#xfef0;" horiz-adv-x="1543" arabic-form="isolated" 
d="M993 -14q45 -25 68.5 -62t23.5 -61q0 -43 -26.5 -92.5t-65.5 -77.5q-65 -55 -195 -91t-306 -36q-199 0 -301.5 96t-102.5 272q0 91 27.5 158.5t60.5 87.5l39 25q-16 -41 -25.5 -82t-9.5 -100q0 -136 92.5 -211.5t280.5 -75.5q145 0 266 24.5t189 65.5q-52 45 -125.5 90
t-139.5 70q11 34 26 68t26 55q20 8 46.5 15t64.5 12t92 8q43 2 99 3h3q123 0 187 35q0 94 -9.5 215t-19.5 240q-14 141 -24.5 262t-14.5 199q-4 16 -8 35.5t-4 35.5l125 103q6 -29 20.5 -63.5t32.5 -66.5t38.5 -60.5t43.5 -45.5l-107 -67q2 -74 6.5 -160t8.5 -172t11 -165
t7 -136q0 -60 -11 -127.5t-44 -120.5q-35 -53 -94 -77q-48 -20 -110 -24q-5 -1 -60 -1h-81z" />
    <glyph glyph-name="uniFC44" unicode="&#xfedf;&#xfef2;" horiz-adv-x="1543" arabic-form="isolated" 
d="M659 -739q-28 12 -62 36.5t-58 51.5l-70 -103q-33 15 -73 42.5t-64 62.5l94 125q20 -27 51 -55.5t60 -45.5l79 115q27 -31 68 -60.5t70 -43.5zM993 -14q45 -25 68.5 -62t23.5 -61q0 -43 -26.5 -92.5t-65.5 -77.5q-65 -55 -195 -91t-306 -36q-199 0 -301.5 96t-102.5 272
q0 91 27.5 158.5t60.5 87.5l39 25q-16 -41 -25.5 -82t-9.5 -100q0 -136 92.5 -211.5t280.5 -75.5q145 0 266 24.5t189 65.5q-52 45 -125.5 90t-139.5 70q11 34 26 68t26 55q20 8 46.5 15t64.5 12t92 8q43 2 99 3h3q123 0 187 35q0 94 -9.5 215t-19.5 240q-14 141 -24.5 262
t-14.5 199q-4 16 -8 35.5t-4 35.5l125 103q6 -29 20.5 -63.5t32.5 -66.5t38.5 -60.5t43.5 -45.5l-107 -67q2 -74 6.5 -160t8.5 -172t11 -165t7 -136q0 -60 -11 -127.5t-44 -120.5q-35 -53 -94 -77q-48 -20 -110 -24q-5 -1 -60 -1h-81z" />
    <glyph glyph-name="uniFC64" unicode="&#xfe8c;&#xfeae;" horiz-adv-x="1405" arabic-form="final" 
d="M765 -11q-18 2 -35 7q-34 10 -66 33l-2 -2q14 -35 14 -86q0 -43 -17.5 -98.5t-54.5 -113t-93 -112.5t-134 -96l-262 33l-29 40q221 62 349 159t169 194q-4 47 -32.5 108.5t-92.5 132.5l74 142q41 -51 72.5 -86t61.5 -56.5t58 -30.5q22 -8 49 -10q70 3 128 30
q63 30 110 104l-12 90l61 75q35 -157 114 -228t210 -71q22 0 41.5 -20.5t19.5 -58.5q0 -39 -19.5 -60.5t-41.5 -21.5q-129 0 -210 48t-128 150q-45 -94 -115 -146q-57 -42 -134 -50q-17 -2 -53 1zM1133 838q-31 18 -64 18q-29 0 -59.5 -17.5t-42.5 -47.5q18 -23 53 -35.5
t70 -12.5q36 0 75 14.5t82 39.5l-26 -103q-35 -10 -74 -24.5t-78 -31.5t-76 -37.5t-67 -41.5q-4 16 -4 25q0 37 28.5 61.5t57.5 32.5q-90 22 -90 86q0 78 48 128t117 50q56 0 97 -31z" />
    <glyph glyph-name="uniFC67" unicode="&#xfe8c;&#xfee6;" horiz-adv-x="1665" arabic-form="final" 
d="M485 453q-32 14 -72 44.5t-65 65.5l101 123q24 -33 65 -63.5t70 -47.5zM1393 838q-31 18 -64 18q-29 0 -59.5 -17.5t-42.5 -47.5q18 -23 53 -35.5t70 -12.5q36 0 75 14.5t82 39.5l-26 -103q-35 -10 -74 -24.5t-78 -31.5t-76 -37.5t-67 -41.5q-4 16 -4 25q0 37 28.5 61.5
t57.5 32.5q-90 22 -90 86q0 78 48 128t117 50q56 0 97 -31zM1022 -10q-24 4 -43 15q-35 18 -55 42l-2 -2q2 -92 -13.5 -159.5t-54.5 -129.5q-49 -78 -157.5 -134t-272.5 -56q-191 0 -282 100.5t-91 272.5q0 53 8.5 103t21.5 90t28.5 67.5t31.5 38.5l37 22
q-16 -39 -24.5 -98.5t-8.5 -118.5q0 -154 72 -230.5t232 -76.5q122 0 224.5 41t155.5 112q-10 119 -32.5 207t-53.5 148l97 133q47 -111 107 -170q55 -56 109 -60q69 3 126 30q63 30 110 104l-12 90l61 75q35 -157 114 -228t210 -71q22 0 41.5 -20.5t19.5 -58.5
q0 -39 -19.5 -60.5t-41.5 -21.5q-129 0 -210 48t-128 150q-45 -94 -115 -146q-57 -42 -133 -50l-19 -2q-24 0 -38 4z" />
    <glyph glyph-name="uniFC6A" unicode="&#xfe92;&#xfeae;" horiz-adv-x="1391" arabic-form="final" 
d="M782 -14q-17 1 -33 5q-10 2 -19 5q-34 10 -66 33l-2 -2q14 -35 14 -86q0 -43 -17.5 -98.5t-54.5 -113t-93 -112.5t-134 -96l-262 33l-29 40q221 62 349 159t169 194q-4 47 -32.5 108.5t-92.5 132.5l74 142q41 -51 72.5 -86t61.5 -56.5t58 -30.5q21 -8 45 -9q66 3 122 29
q63 30 110 104l-12 90l61 75q35 -157 114 -228t210 -71q22 0 41.5 -20.5t19.5 -58.5q0 -39 -19.5 -60.5t-41.5 -21.5q-129 0 -210 48t-128 150q-45 -94 -115 -146q-52 -38 -121 -50q-10 -2 -20 -2h-19zM1096 -389q-33 14 -73 45t-64 65l100 123q25 -32 66 -63t69 -47z" />
    <glyph glyph-name="uniFC70" unicode="&#xfe98;&#xfeae;" horiz-adv-x="1405" arabic-form="final" 
d="M765 -11q-18 2 -35 7q-34 10 -66 33l-2 -2q14 -35 14 -86q0 -43 -17.5 -98.5t-54.5 -113t-93 -112.5t-134 -96l-262 33l-29 40q221 62 349 159t169 194q-4 47 -32.5 108.5t-92.5 132.5l74 142q41 -51 72.5 -86t61.5 -56.5t58 -30.5q22 -8 49 -10q70 3 128 30
q63 30 110 104l-12 90l61 75q35 -157 114 -228t210 -71q22 0 41.5 -20.5t19.5 -58.5q0 -39 -19.5 -60.5t-41.5 -21.5q-129 0 -210 48t-128 150q-45 -94 -115 -146q-57 -42 -134 -50q-23 -3 -53 1zM1157 608q-29 13 -62.5 37.5t-58.5 50.5l-69 -102q-33 14 -73 42t-65 62
l95 125q20 -26 51 -55t59 -45l80 115q27 -31 68 -60.5t69 -44.5z" />
    <glyph glyph-name="uniFC86" unicode="&#xfee0;&#xfef0;" horiz-adv-x="1560" arabic-form="final" 
d="M993 -14q45 -25 68.5 -62t23.5 -61q0 -43 -26.5 -92.5t-65.5 -77.5q-65 -55 -195 -91t-306 -36q-199 0 -301.5 96t-102.5 272q0 91 27.5 158.5t60.5 87.5l39 25q-16 -41 -25.5 -82t-9.5 -100q0 -136 92.5 -211.5t280.5 -75.5q145 0 266 24.5t189 65.5q-52 45 -125.5 90
t-139.5 70q11 34 26 68t26 55q20 8 46.5 15t64.5 12t92 8q38 2 88 3h4q60 0 106 27t81 105q-2 157 -4 286t-5.5 235.5t-9.5 194.5t-14 162l117 115q8 -72 13 -164t8 -196.5t4 -215t1 -217.5q0 -110 9.5 -176.5t29 -100.5t55 -44.5t80.5 -10.5q23 0 41.5 -20.5t18.5 -58.5
q0 -39 -18.5 -60.5t-41.5 -21.5q-227 0 -264 192q-31 -100 -88 -146q-24 -19 -48 -30q-40 -17 -107 -16h-61z" />
    <glyph glyph-name="uniFC87" unicode="&#xfee0;&#xfef2;" horiz-adv-x="1560" arabic-form="final" 
d="M659 -739q-28 12 -62 36.5t-58 51.5l-70 -103q-33 15 -73 42.5t-64 62.5l94 125q20 -27 51 -55.5t60 -45.5l79 115q27 -31 68 -60.5t70 -43.5zM993 -14q45 -25 68.5 -62t23.5 -61q0 -43 -26.5 -92.5t-65.5 -77.5q-65 -55 -195 -91t-306 -36q-199 0 -301.5 96t-102.5 272
q0 91 27.5 158.5t60.5 87.5l39 25q-16 -41 -25.5 -82t-9.5 -100q0 -136 92.5 -211.5t280.5 -75.5q145 0 266 24.5t189 65.5q-52 45 -125.5 90t-139.5 70q11 34 26 68t26 55q20 8 46.5 15t64.5 12t92 8q38 2 88 3h4q60 0 106 27t81 105q-2 157 -4 286t-5.5 235.5t-9.5 194.5
t-14 162l117 115q8 -72 13 -164t8 -196.5t4 -215t1 -217.5q0 -110 9.5 -176.5t29 -100.5t55 -44.5t80.5 -10.5q23 0 41.5 -20.5t18.5 -58.5q0 -39 -18.5 -60.5t-41.5 -21.5q-227 0 -264 192q-31 -100 -88 -146q-24 -19 -48 -30q-40 -17 -107 -16h-61z" />
    <glyph glyph-name="uniFCCC" unicode="&#xfedf;&#xfee4;" horiz-adv-x="1304" arabic-form="initial" 
d="M262 158q31 -78 85 -125t126 -47q55 0 100 29.5t76 82.5q-71 103 -124.5 136.5t-102.5 33.5q-45 0 -89 -30.5t-71 -79.5zM849 -12q-35 3 -63 14q-41 16 -81 49q-39 -104 -103.5 -161.5t-155.5 -57.5q-167 0 -270 231q-35 -34 -81 -55.5t-95 -21.5q-25 0 -40 20.5
t-15 61.5t15 60t40 19q63 0 117.5 38t122.5 116q63 72 107 96.5t93 24.5q47 0 89 -26.5t114 -102.5q43 -45 75 -74t59.5 -44t52.5 -21q21 -6 44 -7q113 2 173 35q0 94 -9.5 215t-19.5 240q-14 141 -24.5 262t-14.5 199q-4 16 -8 35.5t-4 35.5l125 103q6 -29 20.5 -63.5
t32.5 -66.5t38.5 -60.5t43.5 -45.5l-107 -67q2 -74 6.5 -160t8.5 -172t11 -165t7 -136q0 -60 -11 -127.5t-44 -120.5q-35 -53 -94 -77q-49 -21 -115 -24q-27 -1 -40 1z" />
    <glyph glyph-name="uniFCFB" unicode="&#xfeb3;&#xfef0;" horiz-adv-x="2181" arabic-form="isolated" 
d="M993 -14q45 -25 68.5 -62t23.5 -61q0 -43 -26.5 -92.5t-65.5 -77.5q-65 -55 -195 -91t-306 -36q-199 0 -301.5 96t-102.5 272q0 91 27.5 158.5t60.5 87.5l39 25q-16 -41 -25.5 -82t-9.5 -100q0 -136 92.5 -211.5t280.5 -75.5q145 0 266 24.5t189 65.5q-52 45 -125.5 90
t-139.5 70q11 34 26 68t26 55q20 8 46.5 15t64.5 12t92 8q38 2 88 3h4q82 0 145.5 51.5t114.5 161.5l62 27l-17 -70q17 -75 53 -115t74 -40q19 0 38.5 12t40 40t43 74t48.5 115l66 27l-18 -78q34 -84 103 -136t169 -52q-6 78 -38 151.5t-75 122.5l74 156q25 -27 48.5 -63.5
t39.5 -77.5t26.5 -82t10.5 -76t-7 -82t-32 -96q-33 -66 -63.5 -90.5t-65.5 -24.5q-66 0 -138.5 50t-119.5 145q-23 -58 -44.5 -96t-44 -60.5t-47 -31.5t-52.5 -9q-54 0 -101 42t-76 128q-28 -53 -56 -89t-53 -57q-25 -20 -56 -29q-17 -5 -46 -8z" />
    <glyph glyph-name="uniFCFC" unicode="&#xfeb3;&#xfef2;" horiz-adv-x="2181" arabic-form="isolated" 
d="M659 -739q-28 12 -62 36.5t-58 51.5l-70 -103q-33 15 -73 42.5t-64 62.5l94 125q20 -27 51 -55.5t60 -45.5l79 115q27 -31 68 -60.5t70 -43.5zM993 -14q45 -25 68.5 -62t23.5 -61q0 -43 -26.5 -92.5t-65.5 -77.5q-65 -55 -195 -91t-306 -36q-199 0 -301.5 96t-102.5 272
q0 91 27.5 158.5t60.5 87.5l39 25q-16 -41 -25.5 -82t-9.5 -100q0 -136 92.5 -211.5t280.5 -75.5q145 0 266 24.5t189 65.5q-52 45 -125.5 90t-139.5 70q11 34 26 68t26 55q20 8 46.5 15t64.5 12t92 8q38 2 88 3h4q82 0 145.5 51.5t114.5 161.5l62 27l-17 -70
q17 -75 53 -115t74 -40q19 0 38.5 12t40 40t43 74t48.5 115l66 27l-18 -78q34 -84 103 -136t169 -52q-6 78 -38 151.5t-75 122.5l74 156q25 -27 48.5 -63.5t39.5 -77.5t26.5 -82t10.5 -76t-7 -82t-32 -96q-33 -66 -63.5 -90.5t-65.5 -24.5q-66 0 -138.5 50t-119.5 145
q-23 -58 -44.5 -96t-44 -60.5t-47 -31.5t-52.5 -9q-54 0 -101 42t-76 128q-28 -53 -56 -89t-53 -57q-25 -20 -56 -29q-17 -5 -46 -8z" />
    <glyph glyph-name="uniFCFD" unicode="&#xfeb7;&#xfef0;" horiz-adv-x="2181" arabic-form="isolated" 
d="M993 -14q45 -25 68.5 -62t23.5 -61q0 -43 -26.5 -92.5t-65.5 -77.5q-65 -55 -195 -91t-306 -36q-199 0 -301.5 96t-102.5 272q0 91 27.5 158.5t60.5 87.5l39 25q-16 -41 -25.5 -82t-9.5 -100q0 -136 92.5 -211.5t280.5 -75.5q145 0 266 24.5t189 65.5q-52 45 -125.5 90
t-139.5 70q11 34 26 68t26 55q20 8 46.5 15t64.5 12t92 8q38 2 88 3h4q82 0 145.5 51.5t114.5 161.5l62 27l-17 -70q17 -75 53 -115t74 -40q19 0 38.5 12t40 40t43 74t48.5 115l66 27l-18 -78q34 -84 103 -136t169 -52q-6 78 -38 151.5t-75 122.5l74 156q25 -27 48.5 -63.5
t39.5 -77.5t26.5 -82t10.5 -76t-7 -82t-32 -96q-33 -66 -63.5 -90.5t-65.5 -24.5q-66 0 -138.5 50t-119.5 145q-23 -58 -44.5 -96t-44 -60.5t-47 -31.5t-52.5 -9q-54 0 -101 42t-76 128q-28 -53 -56 -89t-53 -57q-25 -20 -56 -29q-17 -5 -46 -8zM1729 582q-28 12 -62 36.5
t-59 51.5l-69 -103q-33 15 -73 42.5t-64 62.5l94 125q20 -27 51 -55.5t59 -45.5l80 115q27 -31 68 -60.5t70 -43.5zM1600 793q-12 4 -32.5 17t-40 30.5t-35 34t-21.5 26.5l99 121q18 -29 56 -63.5t69 -51.5z" />
    <glyph glyph-name="uniFCFE" unicode="&#xfeb7;&#xfef2;" horiz-adv-x="2181" arabic-form="isolated" 
d="M659 -739q-28 12 -62 36.5t-58 51.5l-70 -103q-33 15 -73 42.5t-64 62.5l94 125q20 -27 51 -55.5t60 -45.5l79 115q27 -31 68 -60.5t70 -43.5zM993 -14q45 -25 68.5 -62t23.5 -61q0 -43 -26.5 -92.5t-65.5 -77.5q-65 -55 -195 -91t-306 -36q-199 0 -301.5 96t-102.5 272
q0 91 27.5 158.5t60.5 87.5l39 25q-16 -41 -25.5 -82t-9.5 -100q0 -136 92.5 -211.5t280.5 -75.5q145 0 266 24.5t189 65.5q-52 45 -125.5 90t-139.5 70q11 34 26 68t26 55q20 8 46.5 15t64.5 12t92 8q38 2 88 3h4q82 0 145.5 51.5t114.5 161.5l62 27l-17 -70
q17 -75 53 -115t74 -40q19 0 38.5 12t40 40t43 74t48.5 115l66 27l-18 -78q34 -84 103 -136t169 -52q-6 78 -38 151.5t-75 122.5l74 156q25 -27 48.5 -63.5t39.5 -77.5t26.5 -82t10.5 -76t-7 -82t-32 -96q-33 -66 -63.5 -90.5t-65.5 -24.5q-66 0 -138.5 50t-119.5 145
q-23 -58 -44.5 -96t-44 -60.5t-47 -31.5t-52.5 -9q-54 0 -101 42t-76 128q-28 -53 -56 -89t-53 -57q-25 -20 -56 -29q-17 -5 -46 -8zM1729 582q-28 12 -62 36.5t-59 51.5l-69 -103q-33 15 -73 42.5t-64 62.5l94 125q20 -27 51 -55.5t59 -45.5l80 115q27 -31 68 -60.5
t70 -43.5zM1600 793q-12 4 -32.5 17t-40 30.5t-35 34t-21.5 26.5l99 121q18 -29 56 -63.5t69 -51.5z" />
    <glyph glyph-name="uniFD05" unicode="&#xfebb;&#xfef0;" horiz-adv-x="2388" arabic-form="isolated" 
d="M2200 250q-14 108 -65.5 168.5t-124.5 60.5q-45 0 -102.5 -27.5t-117 -71.5t-118 -101.5t-107.5 -118.5q23 -4 58.5 -8.5t74.5 -4.5q164 0 294 28t208 75zM993 -14q45 -25 68.5 -62t23.5 -61q0 -43 -26.5 -92.5t-65.5 -77.5q-65 -55 -195 -91t-306 -36q-199 0 -301.5 96
t-102.5 272q0 91 27.5 158.5t60.5 87.5l39 25q-16 -41 -25.5 -82t-9.5 -100q0 -136 92.5 -211.5t280.5 -75.5q145 0 266 24.5t189 65.5q-52 45 -125.5 90t-139.5 70q11 34 26 68t26 55q20 8 46.5 15t64.5 12t92 8q43 2 99 3h3q78 0 129.5 34t94.5 128l38 33q7 -18 22 -40.5
t33.5 -45.5t38 -42t35.5 -30q52 86 121.5 168t145 146.5t154.5 103.5t151 39q47 0 90 -23.5t76 -63.5t52 -92t19 -112q0 -35 -27.5 -91t-72.5 -114q-29 -34 -83 -63t-123.5 -50.5t-146.5 -33.5t-149 -12q-112 0 -206.5 38.5t-161.5 133.5q-35 -82 -91 -127q-42 -33 -98 -42
q-8 -3 -77 -3h-71z" />
    <glyph glyph-name="uniFD06" unicode="&#xfebb;&#xfef2;" horiz-adv-x="2388" arabic-form="isolated" 
d="M659 -739q-28 12 -62 36.5t-58 51.5l-70 -103q-33 15 -73 42.5t-64 62.5l94 125q20 -27 51 -55.5t60 -45.5l79 115q27 -31 68 -60.5t70 -43.5zM2200 250q-14 108 -65.5 168.5t-124.5 60.5q-45 0 -102.5 -27.5t-117 -71.5t-118 -101.5t-107.5 -118.5q23 -4 58.5 -8.5
t74.5 -4.5q164 0 294 28t208 75zM993 -14q45 -25 68.5 -62t23.5 -61q0 -43 -26.5 -92.5t-65.5 -77.5q-65 -55 -195 -91t-306 -36q-199 0 -301.5 96t-102.5 272q0 91 27.5 158.5t60.5 87.5l39 25q-16 -41 -25.5 -82t-9.5 -100q0 -136 92.5 -211.5t280.5 -75.5q145 0 266 24.5
t189 65.5q-52 45 -125.5 90t-139.5 70q11 34 26 68t26 55q20 8 46.5 15t64.5 12t92 8q43 2 99 3h3q78 0 129.5 34t94.5 128l38 33q7 -18 22 -40.5t33.5 -45.5t38 -42t35.5 -30q52 86 121.5 168t145 146.5t154.5 103.5t151 39q47 0 90 -23.5t76 -63.5t52 -92t19 -112
q0 -35 -27.5 -91t-72.5 -114q-29 -34 -83 -63t-123.5 -50.5t-146.5 -33.5t-149 -12q-112 0 -206.5 38.5t-161.5 133.5q-35 -82 -91 -127q-42 -33 -98 -42q-8 -3 -77 -3h-71z" />
    <glyph glyph-name="uniFD07" unicode="&#xfebf;&#xfef0;" horiz-adv-x="2388" arabic-form="isolated" 
d="M2200 250q-14 108 -65.5 168.5t-124.5 60.5q-45 0 -102.5 -27.5t-117 -71.5t-118 -101.5t-107.5 -118.5q23 -4 58.5 -8.5t74.5 -4.5q164 0 294 28t208 75zM993 -14q45 -25 68.5 -62t23.5 -61q0 -43 -26.5 -92.5t-65.5 -77.5q-65 -55 -195 -91t-306 -36q-199 0 -301.5 96
t-102.5 272q0 91 27.5 158.5t60.5 87.5l39 25q-16 -41 -25.5 -82t-9.5 -100q0 -136 92.5 -211.5t280.5 -75.5q145 0 266 24.5t189 65.5q-52 45 -125.5 90t-139.5 70q11 34 26 68t26 55q20 8 46.5 15t64.5 12t92 8q43 2 99 3h3q78 0 129.5 34t94.5 128l38 33q7 -18 22 -40.5
t33.5 -45.5t38 -42t35.5 -30q52 86 121.5 168t145 146.5t154.5 103.5t151 39q47 0 90 -23.5t76 -63.5t52 -92t19 -112q0 -35 -27.5 -91t-72.5 -114q-29 -34 -83 -63t-123.5 -50.5t-146.5 -33.5t-149 -12q-112 0 -206.5 38.5t-161.5 133.5q-35 -82 -91 -127q-42 -33 -98 -42
q-8 -3 -77 -3h-71zM1723 801q-33 14 -73 45t-64 65l100 123q25 -33 66 -63.5t69 -46.5z" />
    <glyph glyph-name="uniFD08" unicode="&#xfebf;&#xfef2;" horiz-adv-x="2388" arabic-form="isolated" 
d="M659 -739q-28 12 -62 36.5t-58 51.5l-70 -103q-33 15 -73 42.5t-64 62.5l94 125q20 -27 51 -55.5t60 -45.5l79 115q27 -31 68 -60.5t70 -43.5zM2200 250q-14 108 -65.5 168.5t-124.5 60.5q-45 0 -102.5 -27.5t-117 -71.5t-118 -101.5t-107.5 -118.5q23 -4 58.5 -8.5
t74.5 -4.5q164 0 294 28t208 75zM993 -14q45 -25 68.5 -62t23.5 -61q0 -43 -26.5 -92.5t-65.5 -77.5q-65 -55 -195 -91t-306 -36q-199 0 -301.5 96t-102.5 272q0 91 27.5 158.5t60.5 87.5l39 25q-16 -41 -25.5 -82t-9.5 -100q0 -136 92.5 -211.5t280.5 -75.5q145 0 266 24.5
t189 65.5q-52 45 -125.5 90t-139.5 70q11 34 26 68t26 55q20 8 46.5 15t64.5 12t92 8q43 2 99 3h3q78 0 129.5 34t94.5 128l38 33q7 -18 22 -40.5t33.5 -45.5t38 -42t35.5 -30q52 86 121.5 168t145 146.5t154.5 103.5t151 39q47 0 90 -23.5t76 -63.5t52 -92t19 -112
q0 -35 -27.5 -91t-72.5 -114q-29 -34 -83 -63t-123.5 -50.5t-146.5 -33.5t-149 -12q-112 0 -206.5 38.5t-161.5 133.5q-35 -82 -91 -127q-42 -33 -98 -42q-8 -3 -77 -3h-71zM1723 801q-33 14 -73 45t-64 65l100 123q25 -33 66 -63.5t69 -46.5z" />
    <glyph glyph-name="uniFD0D" unicode="&#xfeb7;&#xfeae;" horiz-adv-x="1884" arabic-form="isolated" 
d="M780 -13q-27 2 -50 9q-34 10 -66 33l-2 -2q14 -35 14 -86q0 -43 -17.5 -98.5t-54.5 -113t-93 -112.5t-134 -96l-262 33l-29 40q221 62 349 159t169 194q-4 47 -32.5 108.5t-92.5 132.5l74 142q41 -51 72.5 -86t61.5 -56.5t58 -30.5q24 -9 53 -10q77 2 138 52
q63 51 114 161l62 27l-17 -70q17 -75 53 -115t74 -40q19 0 38.5 12t40 40t43 74t48.5 115l66 27l-18 -78q34 -84 103 -136t169 -52q-6 78 -38 151.5t-75 122.5l74 156q25 -27 48.5 -63.5t39.5 -77.5t26.5 -82t10.5 -76t-7 -82t-32 -96q-33 -66 -63.5 -90.5t-65.5 -24.5
q-66 0 -138.5 50t-119.5 145q-23 -58 -44.5 -96t-44 -60.5t-47 -31.5t-52.5 -9q-54 0 -101 42t-76 128q-28 -53 -56 -89t-53.5 -57.5t-51.5 -29.5q-14 -4 -28 -6q-21 -3 -38 -1zM1429 582q-28 12 -62 36.5t-59 51.5l-69 -103q-33 15 -73 42.5t-64 62.5l94 125
q20 -27 51 -55.5t59 -45.5l80 115q27 -31 68 -60.5t70 -43.5zM1300 793q-12 4 -32.5 17t-40 30.5t-35 34t-21.5 26.5l99 121q18 -29 56 -63.5t69 -51.5z" />
    <glyph glyph-name="uniFD0E" unicode="&#xfeb3;&#xfeae;" horiz-adv-x="1884" arabic-form="isolated" 
d="M780 -13q-27 2 -50 9q-34 10 -66 33l-2 -2q14 -35 14 -86q0 -43 -17.5 -98.5t-54.5 -113t-93 -112.5t-134 -96l-262 33l-29 40q221 62 349 159t169 194q-4 47 -32.5 108.5t-92.5 132.5l74 142q41 -51 72.5 -86t61.5 -56.5t58 -30.5q24 -9 53 -10q77 2 138 52
q63 51 114 161l62 27l-17 -70q17 -75 53 -115t74 -40q19 0 38.5 12t40 40t43 74t48.5 115l66 27l-18 -78q34 -84 103 -136t169 -52q-6 78 -38 151.5t-75 122.5l74 156q25 -27 48.5 -63.5t39.5 -77.5t26.5 -82t10.5 -76t-7 -82t-32 -96q-33 -66 -63.5 -90.5t-65.5 -24.5
q-66 0 -138.5 50t-119.5 145q-23 -58 -44.5 -96t-44 -60.5t-47 -31.5t-52.5 -9q-54 0 -101 42t-76 128q-28 -53 -56 -89t-53.5 -57.5t-51.5 -29.5q-14 -4 -28 -6q-21 -3 -38 -1z" />
    <glyph glyph-name="uniFD0F" unicode="&#xfebb;&#xfeae;" horiz-adv-x="2081" arabic-form="isolated" 
d="M1880 250q-14 108 -65.5 168.5t-124.5 60.5q-45 0 -102.5 -27.5t-117 -71.5t-118 -101.5t-107.5 -118.5q23 -4 58.5 -8.5t74.5 -4.5q164 0 294 28t208 75zM766 -12q-19 3 -36 8q-34 10 -66 33l-2 -2q14 -35 14 -86q0 -43 -17.5 -98.5t-54.5 -113t-93 -112.5t-134 -96
l-262 33l-29 40q221 62 349 159t169 194q-4 47 -32.5 108.5t-92.5 132.5l74 142q41 -51 72.5 -86t61.5 -56.5t58 -30.5q22 -8 49 -10q69 3 116 34q51 34 94 128l38 33q7 -18 22 -40.5t33.5 -45.5t38 -42t35.5 -30q52 86 121.5 168t145 146.5t154.5 103.5t151 39
q47 0 90 -23.5t76 -63.5t52 -92t19 -112q0 -35 -27.5 -91t-72.5 -114q-29 -34 -83 -63t-123.5 -50.5t-146.5 -33.5t-149 -12q-112 0 -206.5 38.5t-161.5 133.5q-35 -82 -91 -127q-42 -33 -98 -42q-27 -6 -55 -1z" />
    <glyph glyph-name="uniFD10" unicode="&#xfebf;&#xfeae;" horiz-adv-x="2081" arabic-form="isolated" 
d="M1880 250q-14 108 -65.5 168.5t-124.5 60.5q-45 0 -102.5 -27.5t-117 -71.5t-118 -101.5t-107.5 -118.5q23 -4 58.5 -8.5t74.5 -4.5q164 0 294 28t208 75zM766 -12q-19 3 -36 8q-34 10 -66 33l-2 -2q14 -35 14 -86q0 -43 -17.5 -98.5t-54.5 -113t-93 -112.5t-134 -96
l-262 33l-29 40q221 62 349 159t169 194q-4 47 -32.5 108.5t-92.5 132.5l74 142q41 -51 72.5 -86t61.5 -56.5t58 -30.5q22 -8 49 -10q69 3 116 34q51 34 94 128l38 33q7 -18 22 -40.5t33.5 -45.5t38 -42t35.5 -30q52 86 121.5 168t145 146.5t154.5 103.5t151 39
q47 0 90 -23.5t76 -63.5t52 -92t19 -112q0 -35 -27.5 -91t-72.5 -114q-29 -34 -83 -63t-123.5 -50.5t-146.5 -33.5t-149 -12q-112 0 -206.5 38.5t-161.5 133.5q-35 -82 -91 -127q-42 -33 -98 -42q-27 -6 -55 -1zM1403 801q-33 14 -73 45t-64 65l100 123q25 -33 66 -63.5
t69 -46.5z" />
    <glyph glyph-name="uniFD17" unicode="&#xfeb4;&#xfef0;" horiz-adv-x="2293" arabic-form="final" 
d="M993 -14q45 -25 68.5 -62t23.5 -61q0 -43 -26.5 -92.5t-65.5 -77.5q-65 -55 -195 -91t-306 -36q-199 0 -301.5 96t-102.5 272q0 91 27.5 158.5t60.5 87.5l39 25q-16 -41 -25.5 -82t-9.5 -100q0 -136 92.5 -211.5t280.5 -75.5q145 0 266 24.5t189 65.5q-52 45 -125.5 90
t-139.5 70q11 34 26 68t26 55q20 8 46.5 15t64.5 12t92 8q43 2 99 3h3q88 0 152.5 42t116.5 141l59 14l-21 -61q17 -60 56 -98t92 -38t95 41t87 164l64 29l-13 -72q5 -63 30.5 -103t64.5 -40q106 0 149 227l70 29l-17 -86q15 -96 70 -142.5t137 -46.5q23 0 42.5 -20.5
t19.5 -58.5q0 -39 -19.5 -60.5t-42.5 -21.5q-102 0 -168.5 50t-87.5 138q-33 -92 -81 -131t-101 -39q-61 0 -97 40t-44 110q-45 -95 -91.5 -131.5t-105.5 -36.5q-68 0 -115 45t-65 125q-47 -95 -107 -132q-42 -26 -73 -32q-22 -6 -82 -6h-81z" />
    <glyph glyph-name="uniFD18" unicode="&#xfeb4;&#xfef2;" horiz-adv-x="2293" arabic-form="final" 
d="M659 -739q-28 12 -62 36.5t-58 51.5l-70 -103q-33 15 -73 42.5t-64 62.5l94 125q20 -27 51 -55.5t60 -45.5l79 115q27 -31 68 -60.5t70 -43.5zM993 -14q45 -25 68.5 -62t23.5 -61q0 -43 -26.5 -92.5t-65.5 -77.5q-65 -55 -195 -91t-306 -36q-199 0 -301.5 96t-102.5 272
q0 91 27.5 158.5t60.5 87.5l39 25q-16 -41 -25.5 -82t-9.5 -100q0 -136 92.5 -211.5t280.5 -75.5q145 0 266 24.5t189 65.5q-52 45 -125.5 90t-139.5 70q11 34 26 68t26 55q20 8 46.5 15t64.5 12t92 8q43 2 99 3h3q88 0 152.5 42t116.5 141l59 14l-21 -61q17 -60 56 -98
t92 -38t95 41t87 164l64 29l-13 -72q5 -63 30.5 -103t64.5 -40q106 0 149 227l70 29l-17 -86q15 -96 70 -142.5t137 -46.5q23 0 42.5 -20.5t19.5 -58.5q0 -39 -19.5 -60.5t-42.5 -21.5q-102 0 -168.5 50t-87.5 138q-33 -92 -81 -131t-101 -39q-61 0 -97 40t-44 110
q-45 -95 -91.5 -131.5t-105.5 -36.5q-68 0 -115 45t-65 125q-47 -95 -107 -132q-42 -26 -73 -32q-22 -6 -82 -6h-81z" />
    <glyph glyph-name="uniFD19" unicode="&#xfeb8;&#xfef0;" horiz-adv-x="2293" arabic-form="final" 
d="M993 -14q45 -25 68.5 -62t23.5 -61q0 -43 -26.5 -92.5t-65.5 -77.5q-65 -55 -195 -91t-306 -36q-199 0 -301.5 96t-102.5 272q0 91 27.5 158.5t60.5 87.5l39 25q-16 -41 -25.5 -82t-9.5 -100q0 -136 92.5 -211.5t280.5 -75.5q145 0 266 24.5t189 65.5q-52 45 -125.5 90
t-139.5 70q11 34 26 68t26 55q20 8 46.5 15t64.5 12t92 8q43 2 99 3h3q88 0 152.5 42t116.5 141l59 14l-21 -61q17 -60 56 -98t92 -38t95 41t87 164l64 29l-13 -72q5 -63 30.5 -103t64.5 -40q106 0 149 227l70 29l-17 -86q15 -96 70 -142.5t137 -46.5q23 0 42.5 -20.5
t19.5 -58.5q0 -39 -19.5 -60.5t-42.5 -21.5q-102 0 -168.5 50t-87.5 138q-33 -92 -81 -131t-101 -39q-61 0 -97 40t-44 110q-45 -95 -91.5 -131.5t-105.5 -36.5q-68 0 -115 45t-65 125q-47 -95 -107 -132q-42 -26 -73 -32q-22 -6 -82 -6h-81zM1838 541q-29 12 -63 36.5
t-58 51.5l-70 -103q-33 15 -73 42.5t-64 62.5l94 125q21 -27 51.5 -55.5t59.5 -45.5l80 115q26 -31 67 -60.5t70 -43.5zM1709 752q-13 4 -33.5 17t-40 30.5t-34.5 34t-21 26.5l98 121q18 -29 56 -63.5t69 -51.5z" />
    <glyph glyph-name="uniFD1A" unicode="&#xfeb8;&#xfef2;" horiz-adv-x="2293" arabic-form="final" 
d="M659 -739q-28 12 -62 36.5t-58 51.5l-70 -103q-33 15 -73 42.5t-64 62.5l94 125q20 -27 51 -55.5t60 -45.5l79 115q27 -31 68 -60.5t70 -43.5zM993 -14q45 -25 68.5 -62t23.5 -61q0 -43 -26.5 -92.5t-65.5 -77.5q-65 -55 -195 -91t-306 -36q-199 0 -301.5 96t-102.5 272
q0 91 27.5 158.5t60.5 87.5l39 25q-16 -41 -25.5 -82t-9.5 -100q0 -136 92.5 -211.5t280.5 -75.5q145 0 266 24.5t189 65.5q-52 45 -125.5 90t-139.5 70q11 34 26 68t26 55q20 8 46.5 15t64.5 12t92 8q43 2 99 3h3q88 0 152.5 42t116.5 141l59 14l-21 -61q17 -60 56 -98
t92 -38t95 41t87 164l64 29l-13 -72q5 -63 30.5 -103t64.5 -40q106 0 149 227l70 29l-17 -86q15 -96 70 -142.5t137 -46.5q23 0 42.5 -20.5t19.5 -58.5q0 -39 -19.5 -60.5t-42.5 -21.5q-102 0 -168.5 50t-87.5 138q-33 -92 -81 -131t-101 -39q-61 0 -97 40t-44 110
q-45 -95 -91.5 -131.5t-105.5 -36.5q-68 0 -115 45t-65 125q-47 -95 -107 -132q-42 -26 -73 -32q-22 -6 -82 -6h-81zM1838 541q-29 12 -63 36.5t-58 51.5l-70 -103q-33 15 -73 42.5t-64 62.5l94 125q21 -27 51.5 -55.5t59.5 -45.5l80 115q26 -31 67 -60.5t70 -43.5z
M1709 752q-13 4 -33.5 17t-40 30.5t-34.5 34t-21 26.5l98 121q18 -29 56 -63.5t69 -51.5z" />
    <glyph glyph-name="uniFD21" unicode="&#xfebc;&#xfef0;" horiz-adv-x="2361" arabic-form="final" 
d="M2200 250q-14 108 -65.5 168.5t-124.5 60.5q-45 0 -102.5 -27.5t-117 -71.5t-118 -101.5t-107.5 -118.5q23 -4 58.5 -8.5t74.5 -4.5q164 0 294 28t208 75zM993 -14q45 -25 68.5 -62t23.5 -61q0 -43 -26.5 -92.5t-65.5 -77.5q-65 -55 -195 -91t-306 -36q-199 0 -301.5 96
t-102.5 272q0 91 27.5 158.5t60.5 87.5l39 25q-16 -41 -25.5 -82t-9.5 -100q0 -136 92.5 -211.5t280.5 -75.5q145 0 266 24.5t189 65.5q-52 45 -125.5 90t-139.5 70q11 34 26 68t26 55q20 8 46.5 15t64.5 12t92 8q43 2 99 3h3q78 0 129.5 34t94.5 128l38 33q7 -18 22 -40.5
t33.5 -45.5t38 -42t35.5 -30q52 86 121.5 168t145 146.5t154.5 103.5t151 39q47 0 90 -23.5t76 -63.5t52 -92t19 -112q0 -33 -23.5 -82t-62.5 -102q35 -10 67 -14.5t79 -4.5q22 0 41.5 -20.5t19.5 -58.5q0 -39 -19.5 -60.5t-41.5 -21.5q-70 0 -126 23.5t-110 76.5
q-41 -23 -91 -41t-106.5 -31.5t-114.5 -20.5t-114 -7q-112 0 -206.5 38.5t-161.5 133.5q-35 -82 -91 -127q-42 -33 -98 -42q-8 -3 -67 -3h-81z" />
    <glyph glyph-name="uniFD22" unicode="&#xfebc;&#xfef2;" horiz-adv-x="2361" arabic-form="final" 
d="M659 -739q-28 12 -62 36.5t-58 51.5l-70 -103q-33 15 -73 42.5t-64 62.5l94 125q20 -27 51 -55.5t60 -45.5l79 115q27 -31 68 -60.5t70 -43.5zM2200 250q-14 108 -65.5 168.5t-124.5 60.5q-45 0 -102.5 -27.5t-117 -71.5t-118 -101.5t-107.5 -118.5q23 -4 58.5 -8.5
t74.5 -4.5q164 0 294 28t208 75zM993 -14q45 -25 68.5 -62t23.5 -61q0 -43 -26.5 -92.5t-65.5 -77.5q-65 -55 -195 -91t-306 -36q-199 0 -301.5 96t-102.5 272q0 91 27.5 158.5t60.5 87.5l39 25q-16 -41 -25.5 -82t-9.5 -100q0 -136 92.5 -211.5t280.5 -75.5q145 0 266 24.5
t189 65.5q-52 45 -125.5 90t-139.5 70q11 34 26 68t26 55q20 8 46.5 15t64.5 12t92 8q43 2 99 3h3q78 0 129.5 34t94.5 128l38 33q7 -18 22 -40.5t33.5 -45.5t38 -42t35.5 -30q52 86 121.5 168t145 146.5t154.5 103.5t151 39q47 0 90 -23.5t76 -63.5t52 -92t19 -112
q0 -33 -23.5 -82t-62.5 -102q35 -10 67 -14.5t79 -4.5q22 0 41.5 -20.5t19.5 -58.5q0 -39 -19.5 -60.5t-41.5 -21.5q-70 0 -126 23.5t-110 76.5q-41 -23 -91 -41t-106.5 -31.5t-114.5 -20.5t-114 -7q-112 0 -206.5 38.5t-161.5 133.5q-35 -82 -91 -127q-42 -33 -98 -42
q-8 -3 -67 -3h-81z" />
    <glyph glyph-name="uniFD23" unicode="&#xfec0;&#xfef0;" horiz-adv-x="2361" arabic-form="final" 
d="M2200 250q-14 108 -65.5 168.5t-124.5 60.5q-45 0 -102.5 -27.5t-117 -71.5t-118 -101.5t-107.5 -118.5q23 -4 58.5 -8.5t74.5 -4.5q164 0 294 28t208 75zM993 -14q45 -25 68.5 -62t23.5 -61q0 -43 -26.5 -92.5t-65.5 -77.5q-65 -55 -195 -91t-306 -36q-199 0 -301.5 96
t-102.5 272q0 91 27.5 158.5t60.5 87.5l39 25q-16 -41 -25.5 -82t-9.5 -100q0 -136 92.5 -211.5t280.5 -75.5q145 0 266 24.5t189 65.5q-52 45 -125.5 90t-139.5 70q11 34 26 68t26 55q20 8 46.5 15t64.5 12t92 8q43 2 99 3h3q78 0 129.5 34t94.5 128l38 33q7 -18 22 -40.5
t33.5 -45.5t38 -42t35.5 -30q52 86 121.5 168t145 146.5t154.5 103.5t151 39q47 0 90 -23.5t76 -63.5t52 -92t19 -112q0 -33 -23.5 -82t-62.5 -102q35 -10 67 -14.5t79 -4.5q22 0 41.5 -20.5t19.5 -58.5q0 -39 -19.5 -60.5t-41.5 -21.5q-70 0 -126 23.5t-110 76.5
q-41 -23 -91 -41t-106.5 -31.5t-114.5 -20.5t-114 -7q-112 0 -206.5 38.5t-161.5 133.5q-35 -82 -91 -127q-42 -33 -98 -42q-8 -3 -67 -3h-81zM1723 801q-33 14 -73 45t-64 65l100 123q25 -33 66 -63.5t69 -46.5z" />
    <glyph glyph-name="uniFD24" unicode="&#xfec0;&#xfef2;" horiz-adv-x="2361" arabic-form="final" 
d="M659 -739q-28 12 -62 36.5t-58 51.5l-70 -103q-33 15 -73 42.5t-64 62.5l94 125q20 -27 51 -55.5t60 -45.5l79 115q27 -31 68 -60.5t70 -43.5zM2200 250q-14 108 -65.5 168.5t-124.5 60.5q-45 0 -102.5 -27.5t-117 -71.5t-118 -101.5t-107.5 -118.5q23 -4 58.5 -8.5
t74.5 -4.5q164 0 294 28t208 75zM993 -14q45 -25 68.5 -62t23.5 -61q0 -43 -26.5 -92.5t-65.5 -77.5q-65 -55 -195 -91t-306 -36q-199 0 -301.5 96t-102.5 272q0 91 27.5 158.5t60.5 87.5l39 25q-16 -41 -25.5 -82t-9.5 -100q0 -136 92.5 -211.5t280.5 -75.5q145 0 266 24.5
t189 65.5q-52 45 -125.5 90t-139.5 70q11 34 26 68t26 55q20 8 46.5 15t64.5 12t92 8q43 2 99 3h3q78 0 129.5 34t94.5 128l38 33q7 -18 22 -40.5t33.5 -45.5t38 -42t35.5 -30q52 86 121.5 168t145 146.5t154.5 103.5t151 39q47 0 90 -23.5t76 -63.5t52 -92t19 -112
q0 -33 -23.5 -82t-62.5 -102q35 -10 67 -14.5t79 -4.5q22 0 41.5 -20.5t19.5 -58.5q0 -39 -19.5 -60.5t-41.5 -21.5q-70 0 -126 23.5t-110 76.5q-41 -23 -91 -41t-106.5 -31.5t-114.5 -20.5t-114 -7q-112 0 -206.5 38.5t-161.5 133.5q-35 -82 -91 -127q-42 -33 -98 -42
q-8 -3 -67 -3h-81zM1723 801q-33 14 -73 45t-64 65l100 123q25 -33 66 -63.5t69 -46.5z" />
    <glyph glyph-name="uniFD29" unicode="&#xfeb8;&#xfeae;" horiz-adv-x="1971" arabic-form="final" 
d="M767 -12q-19 3 -37 8q-34 10 -66 33l-2 -2q14 -35 14 -86q0 -43 -17.5 -98.5t-54.5 -113t-93 -112.5t-134 -96l-262 33l-29 40q221 62 349 159t169 194q-4 47 -32.5 108.5t-92.5 132.5l74 142q41 -51 72.5 -86t61.5 -56.5t58 -30.5q22 -8 49 -10q79 3 139 42
q64 42 116 141l59 14l-21 -61q17 -60 56 -98t92 -38t95 41t87 164l64 29l-13 -72q5 -63 30.5 -103t64.5 -40q106 0 149 227l70 29l-17 -86q15 -96 70 -142.5t137 -46.5q23 0 42.5 -20.5t19.5 -58.5q0 -39 -19.5 -60.5t-42.5 -21.5q-102 0 -168.5 50t-87.5 138
q-33 -92 -81 -131t-101 -39q-61 0 -97 40t-44 110q-45 -95 -91.5 -131.5t-105.5 -36.5q-68 0 -115 45t-65 125q-47 -95 -107 -132q-41 -26 -86 -34q-30 -7 -56 -2zM1518 541q-29 12 -63 36.5t-58 51.5l-70 -103q-33 15 -73 42.5t-64 62.5l94 125q21 -27 51.5 -55.5
t59.5 -45.5l80 115q26 -31 67 -60.5t70 -43.5zM1389 752q-13 4 -33.5 17t-40 30.5t-34.5 34t-21 26.5l98 121q18 -29 56 -63.5t69 -51.5z" />
    <glyph glyph-name="uniFD2A" unicode="&#xfeb4;&#xfeae;" horiz-adv-x="1971" arabic-form="final" 
d="M767 -12q-19 3 -37 8q-34 10 -66 33l-2 -2q14 -35 14 -86q0 -43 -17.5 -98.5t-54.5 -113t-93 -112.5t-134 -96l-262 33l-29 40q221 62 349 159t169 194q-4 47 -32.5 108.5t-92.5 132.5l74 142q41 -51 72.5 -86t61.5 -56.5t58 -30.5q22 -8 49 -10q79 3 139 42
q64 42 116 141l59 14l-21 -61q17 -60 56 -98t92 -38t95 41t87 164l64 29l-13 -72q5 -63 30.5 -103t64.5 -40q106 0 149 227l70 29l-17 -86q15 -96 70 -142.5t137 -46.5q23 0 42.5 -20.5t19.5 -58.5q0 -39 -19.5 -60.5t-42.5 -21.5q-102 0 -168.5 50t-87.5 138
q-33 -92 -81 -131t-101 -39q-61 0 -97 40t-44 110q-45 -95 -91.5 -131.5t-105.5 -36.5q-68 0 -115 45t-65 125q-47 -95 -107 -132q-41 -26 -86 -34q-30 -7 -56 -2z" />
    <glyph glyph-name="uniFD2B" unicode="&#xfebc;&#xfeae;" horiz-adv-x="2029" arabic-form="final" 
d="M1870 250q-14 108 -65.5 168.5t-124.5 60.5q-45 0 -102.5 -27.5t-117 -71.5t-118 -101.5t-107.5 -118.5q23 -4 58.5 -8.5t74.5 -4.5q164 0 294 28t208 75zM751 -9q-11 2 -21 5q-34 10 -66 33l-2 -2q14 -35 14 -86q0 -43 -17.5 -98.5t-54.5 -113t-93 -112.5t-134 -96
l-262 33l-29 40q221 62 349 159t169 194q-4 47 -32.5 108.5t-92.5 132.5l74 142q41 -51 72.5 -86t61.5 -56.5t58 -30.5q20 -8 44 -9q66 3 111 33q51 34 94 128l38 33q7 -18 22 -40.5t33.5 -45.5t38 -42t35.5 -30q52 86 121.5 168t145 146.5t154.5 103.5t151 39
q47 0 90 -23.5t76 -63.5t52 -92t19 -112q0 -33 -23.5 -82t-62.5 -102q35 -10 67 -14.5t79 -4.5q22 0 41.5 -20.5t19.5 -58.5q0 -39 -19.5 -60.5t-41.5 -21.5q-70 0 -126 23.5t-110 76.5q-41 -23 -91 -41t-106.5 -31.5t-114.5 -20.5t-114 -7q-112 0 -206.5 38.5t-161.5 133.5
q-35 -82 -91 -127q-36 -28 -81 -39q-44 -9 -77 -1z" />
    <glyph glyph-name="uniFD2C" unicode="&#xfec0;&#xfeae;" horiz-adv-x="2029" arabic-form="final" 
d="M1870 250q-14 108 -65.5 168.5t-124.5 60.5q-45 0 -102.5 -27.5t-117 -71.5t-118 -101.5t-107.5 -118.5q23 -4 58.5 -8.5t74.5 -4.5q164 0 294 28t208 75zM751 -9q-11 2 -21 5q-34 10 -66 33l-2 -2q14 -35 14 -86q0 -43 -17.5 -98.5t-54.5 -113t-93 -112.5t-134 -96
l-262 33l-29 40q221 62 349 159t169 194q-4 47 -32.5 108.5t-92.5 132.5l74 142q41 -51 72.5 -86t61.5 -56.5t58 -30.5q20 -8 44 -9q66 3 111 33q51 34 94 128l38 33q7 -18 22 -40.5t33.5 -45.5t38 -42t35.5 -30q52 86 121.5 168t145 146.5t154.5 103.5t151 39
q47 0 90 -23.5t76 -63.5t52 -92t19 -112q0 -33 -23.5 -82t-62.5 -102q35 -10 67 -14.5t79 -4.5q22 0 41.5 -20.5t19.5 -58.5q0 -39 -19.5 -60.5t-41.5 -21.5q-70 0 -126 23.5t-110 76.5q-41 -23 -91 -41t-106.5 -31.5t-114.5 -20.5t-114 -7q-112 0 -206.5 38.5t-161.5 133.5
q-35 -82 -91 -127q-36 -28 -81 -39q-44 -9 -77 -1zM1393 801q-33 14 -73 45t-64 65l100 123q25 -33 66 -63.5t69 -46.5z" />
    <glyph glyph-name="uniFEF5" unicode="&#xfedf;&#xfe82;" horiz-adv-x="940" arabic-form="isolated" 
d="M290 162q104 76 177 142.5t122 131.5q-68 92 -157 177t-185 149l-43 -55q-27 49 -66 92t-76 71l52 170q61 -36 136 -92.5t149.5 -122t142 -137.5t114.5 -135q54 127 54 309q0 84 -8.5 163t-20.5 130l137 115q8 -53 14.5 -134t6.5 -173q0 -154 -32 -274t-95 -222
q39 -68 60.5 -126t23.5 -93q0 -17 -5.5 -41.5t-13.5 -50t-19.5 -50t-21.5 -43.5q-28 -45 -76.5 -70.5t-134.5 -25.5t-156.5 13.5t-123.5 29.5zM718 166q-13 90 -80 199q-103 -117 -258 -224q47 -8 88 -10t92 -2q53 0 94 8t64 29zM466 1397q24 -15 24 -47q0 -47 -58 -80
t-161 -45q-118 -17 -179.5 -48.5t-82.5 -72.5q-20 8 -34.5 28.5t-14.5 43.5q0 53 57.5 83.5t186.5 45.5q125 14 180 33.5t82 58.5z" />
    <glyph glyph-name="uniFEF6" unicode="&#xfee0;&#xfe82;" horiz-adv-x="1099" arabic-form="final" 
d="M904 1272q16 -154 23.5 -352.5t7.5 -409.5q0 -197 37.5 -280t127.5 -83q23 0 42.5 -20.5t19.5 -58.5q0 -39 -19.5 -60.5t-42.5 -21.5q-116 0 -180.5 72.5t-81.5 232.5q-22 -53 -62 -102.5t-92 -93.5t-112.5 -79.5t-126.5 -60.5l-340 88l21 41q280 16 461.5 108.5
t240.5 221.5q0 100 -3 203.5t-8 199.5t-13.5 183t-20.5 157zM154 1061q117 -66 213.5 -145.5t170 -171t121.5 -188.5t67 -198l-43 -34q-25 69 -68 137.5t-96 129t-113.5 110t-122.5 79.5l-28 -63q-23 43 -64 95t-86 87zM476 1397q24 -15 24 -47q0 -47 -58 -80t-161 -45
q-118 -17 -179.5 -48.5t-82.5 -72.5q-20 8 -34.5 28.5t-14.5 43.5q0 53 57.5 83.5t186.5 45.5q125 14 180 33.5t82 58.5z" />
    <glyph glyph-name="uniFEF7" unicode="&#xfedf;&#xfe84;" horiz-adv-x="940" arabic-form="isolated" 
d="M289 162q104 76 176.5 142.5t122.5 131.5q-68 92 -157 177t-185 149l-43 -55q-27 49 -66 92t-76 71l51 170q62 -36 136.5 -92.5t149.5 -122t142.5 -137.5t114.5 -135q53 127 53 309q0 84 -8 163t-20 130l137 115q8 -53 14 -134t6 -173q0 -154 -31.5 -274t-94.5 -222
q38 -68 59.5 -126t23.5 -93q0 -17 -5 -41.5t-13 -50t-19.5 -50t-21.5 -43.5q-29 -45 -77 -70.5t-134 -25.5t-156.5 13.5t-123.5 29.5zM717 166q-13 90 -80 199q-103 -117 -258 -224q47 -8 88 -10t92 -2q53 0 94 8t64 29zM221 1364q-31 18 -63 18q-29 0 -60 -17t-43 -48
q19 -23 53.5 -35t69.5 -12q37 0 76 14t82 39l-27 -102q-35 -11 -74 -25t-77.5 -31.5t-75.5 -38t-68 -41.5q-4 17 -4 25q0 37 28.5 61.5t57.5 32.5q-90 23 -90 86q0 78 48 128t118 50q55 0 96 -30z" />
    <glyph glyph-name="uniFEF8" unicode="&#xfee0;&#xfe84;" horiz-adv-x="1083" arabic-form="final" 
d="M886 1272q17 -154 24 -352.5t7 -409.5q0 -197 38 -280t128 -83q22 0 41.5 -20.5t19.5 -58.5q0 -39 -19.5 -60.5t-41.5 -21.5q-117 0 -181.5 72.5t-80.5 232.5q-23 -53 -63 -102.5t-92 -93.5t-112.5 -79.5t-125.5 -60.5l-340 88l20 41q281 16 462 108.5t241 221.5
q0 100 -3.5 203.5t-8.5 199.5t-13 183t-21 157zM137 1061q116 -66 212.5 -145.5t170 -171t122 -188.5t66.5 -198l-43 -34q-24 69 -67 137.5t-96.5 129t-114 110t-121.5 79.5l-29 -63q-22 43 -63 95t-86 87zM235 1384q-31 19 -63 19q-29 0 -60 -17.5t-43 -48.5
q19 -22 53.5 -34.5t69.5 -12.5q37 0 76 14.5t82 38.5l-27 -102q-35 -10 -74 -24.5t-77.5 -32t-75.5 -38t-68 -40.5q-4 16 -4 24q0 37 28.5 62t57.5 33q-90 22 -90 86q0 78 48 128t118 50q55 0 96 -31z" />
    <glyph glyph-name="uniFEF9" unicode="&#xfedf;&#xfe88;" horiz-adv-x="940" arabic-form="isolated" 
d="M288 162q105 76 177.5 142.5t121.5 131.5q-67 92 -156 177t-186 149l-43 -55q-26 49 -65 92t-76 71l51 170q62 -36 136.5 -92.5t149.5 -122t142.5 -137.5t114.5 -135q53 127 53 309q0 84 -8 163t-21 130l138 115q8 -53 14 -134t6 -173q0 -154 -31.5 -274t-95.5 -222
q39 -68 60.5 -126t23.5 -93q0 -17 -5 -41.5t-13 -50t-19.5 -50t-21.5 -43.5q-29 -45 -77 -70.5t-134 -25.5t-156.5 13.5t-124.5 29.5zM716 166q-12 90 -80 199q-102 -117 -258 -224q48 -8 88.5 -10t92.5 -2q53 0 94 8t63 29zM421 -238q-30 19 -63 19q-29 0 -59.5 -17.5
t-42.5 -48.5q18 -22 53 -34.5t69 -12.5q37 0 76 14.5t82 38.5l-26 -102q-35 -10 -74 -24.5t-78 -32t-76 -38t-67 -40.5q-4 16 -4 24q0 37 28.5 61.5t57.5 33.5q-91 22 -91 86q0 78 48.5 128t117.5 50q56 0 97 -31z" />
    <glyph glyph-name="uniFEFA" unicode="&#xfee0;&#xfe88;" horiz-adv-x="1083" arabic-form="final" 
d="M887 1272q16 -154 23 -352.5t7 -409.5q0 -197 38 -280t128 -83q23 0 42.5 -20.5t19.5 -58.5q0 -39 -19.5 -60.5t-42.5 -21.5q-116 0 -180.5 72.5t-81.5 232.5q-22 -53 -62 -102.5t-92.5 -93.5t-112.5 -79.5t-126 -60.5l-340 88l20 41q281 16 462.5 108.5t240.5 221.5
q0 100 -3 203.5t-8 199.5t-13.5 183t-20.5 157zM137 1061q117 -66 213 -145.5t170 -171t122 -188.5t67 -198l-43 -34q-25 69 -68 137.5t-96.5 129t-113.5 110t-122 79.5l-28 -63q-23 43 -64 95t-86 87zM360 -238q-30 19 -63 19q-29 0 -59.5 -17.5t-43.5 -48.5
q19 -22 54 -34.5t69 -12.5q37 0 76 14.5t82 38.5l-27 -102q-34 -10 -73 -24.5t-78 -32t-76 -38t-67 -40.5q-5 16 -5 24q0 37 29 61.5t57 33.5q-90 22 -90 86q0 78 48.5 128t117.5 50q56 0 96 -31z" />
    <glyph glyph-name="uniFEFB" unicode="&#xfedf;&#xfe8e;" horiz-adv-x="940" arabic-form="isolated" 
d="M288 162q105 76 177.5 142.5t121.5 131.5q-67 92 -156 177t-186 149l-43 -55q-26 49 -65 92t-76 71l51 170q62 -36 136.5 -92.5t149.5 -122t142.5 -137.5t114.5 -135q53 127 53 309q0 84 -8 163t-21 130l138 115q8 -53 14 -134t6 -173q0 -154 -31.5 -274t-95.5 -222
q39 -68 60.5 -126t23.5 -93q0 -17 -5 -41.5t-13 -50t-19.5 -50t-21.5 -43.5q-29 -45 -77 -70.5t-134 -25.5t-156.5 13.5t-124.5 29.5zM716 166q-12 90 -80 199q-102 -117 -258 -224q48 -8 88.5 -10t92.5 -2q53 0 94 8t63 29z" />
    <glyph glyph-name="uniFEFC" unicode="&#xfee0;&#xfe8e;" horiz-adv-x="1083" arabic-form="final" 
d="M887 1272q16 -154 23 -352.5t7 -409.5q0 -197 38 -280t128 -83q23 0 42.5 -20.5t19.5 -58.5q0 -39 -19.5 -60.5t-42.5 -21.5q-116 0 -180.5 72.5t-81.5 232.5q-22 -53 -62 -102.5t-92.5 -93.5t-112.5 -79.5t-126 -60.5l-340 88l20 41q281 16 462.5 108.5t240.5 221.5
q0 100 -3 203.5t-8 199.5t-13.5 183t-20.5 157zM137 1061q117 -66 213 -145.5t170 -171t122 -188.5t67 -198l-43 -34q-25 69 -68 137.5t-96.5 129t-113.5 110t-122 79.5l-28 -63q-23 43 -64 95t-86 87z" />
    <glyph glyph-name="uniFE8B_uniFEE4.liga" unicode="&#xfe8b;&#xfee4;" horiz-adv-x="1350" 
d="M262 158q31 -78 85 -125t126 -47q55 0 100 29.5t76 82.5q-71 103 -124.5 136.5t-102.5 33.5q-45 0 -89 -30.5t-71 -79.5zM846 -12q-33 3 -60 14q-41 16 -81 49q-39 -104 -103.5 -161.5t-155.5 -57.5q-167 0 -270 231q-35 -34 -81 -55.5t-95 -21.5q-25 0 -40 20.5
t-15 61.5t15 60t40 19q63 0 117.5 38t122.5 116q63 72 107 96.5t93 24.5q47 0 89 -26.5t114 -102.5q43 -45 75 -74t59.5 -44t52.5 -21q21 -6 44 -7q81 1 144 17q68 16 123 49q-12 90 -41 167t-64 122l107 176q45 -66 69.5 -151t24.5 -169q0 -55 -19.5 -120.5t-62.5 -126.5
q-41 -64 -120 -94q-68 -26 -146 -30q-4 -1 -8 -1h-21q-7 0 -14 2zM1157 1001q-30 19 -63 19q-29 0 -59.5 -17.5t-43.5 -48.5q19 -22 53.5 -34.5t69.5 -12.5q37 0 76 14.5t82 39.5l-27 -103q-34 -10 -73 -24.5t-78 -32t-76 -38t-68 -40.5q-4 16 -4 25q0 36 29 61t57 33
q-90 22 -90 86q0 78 48 128t118 50q55 0 96 -31z" />
    <glyph glyph-name="uniFE8B_uniFEF0.liga" unicode="&#xfe8b;&#xfef0;" horiz-adv-x="1572" 
d="M993 -14q45 -25 68.5 -62t23.5 -61q0 -43 -26.5 -92.5t-65.5 -77.5q-65 -55 -195 -91t-306 -36q-199 0 -301.5 96t-102.5 272q0 91 27.5 158.5t60.5 87.5l39 25q-16 -41 -25.5 -82t-9.5 -100q0 -136 92.5 -211.5t280.5 -75.5q145 0 266 24.5t189 65.5q-52 45 -125.5 90
t-139.5 70q11 34 26 68t26 55q20 8 46.5 15t64.5 12t92 8q38 2 87 3h5q90 0 158 16.5t123 49.5q-12 90 -41 167t-64 122l107 176q45 -66 69.5 -151t24.5 -169q0 -55 -19.5 -120.5t-62.5 -126.5q-41 -64 -120 -94q-60 -23 -127 -29q-7 -2 -84 -2h-61zM1387 1001
q-30 19 -63 19q-29 0 -59.5 -17.5t-43.5 -48.5q19 -22 53.5 -34.5t69.5 -12.5q37 0 76 14.5t82 39.5l-27 -103q-34 -10 -73 -24.5t-78 -32t-76 -38t-68 -40.5q-4 16 -4 25q0 36 29 61t57 33q-90 22 -90 86q0 78 48 128t118 50q55 0 96 -31z" />
    <glyph glyph-name="uniFE8B_uniFEF2.liga" unicode="&#xfe8b;&#xfef2;" horiz-adv-x="1572" 
d="M659 -739q-28 12 -62 36.5t-58 51.5l-70 -103q-33 15 -73 42.5t-64 62.5l94 125q20 -27 51 -55.5t60 -45.5l79 115q27 -31 68 -60.5t70 -43.5zM993 -14q45 -25 68.5 -62t23.5 -61q0 -43 -26.5 -92.5t-65.5 -77.5q-65 -55 -195 -91t-306 -36q-199 0 -301.5 96t-102.5 272
q0 91 27.5 158.5t60.5 87.5l39 25q-16 -41 -25.5 -82t-9.5 -100q0 -136 92.5 -211.5t280.5 -75.5q145 0 266 24.5t189 65.5q-52 45 -125.5 90t-139.5 70q11 34 26 68t26 55q20 8 46.5 15t64.5 12t92 8q38 2 87 3h5q90 0 158 16.5t123 49.5q-12 90 -41 167t-64 122l107 176
q45 -66 69.5 -151t24.5 -169q0 -55 -19.5 -120.5t-62.5 -126.5q-41 -64 -120 -94q-60 -23 -127 -29q-7 -2 -84 -2h-61zM1387 1001q-30 19 -63 19q-29 0 -59.5 -17.5t-43.5 -48.5q19 -22 53.5 -34.5t69.5 -12.5q37 0 76 14.5t82 39.5l-27 -103q-34 -10 -73 -24.5t-78 -32
t-76 -38t-68 -40.5q-4 16 -4 25q0 36 29 61t57 33q-90 22 -90 86q0 78 48 128t118 50q55 0 96 -31z" />
    <glyph glyph-name="uniFE91_uniFEE4.liga" unicode="&#xfe91;&#xfee4;" horiz-adv-x="1339" 
d="M1120 -389q-32 14 -72 45t-65 65l101 123q24 -32 65 -63t70 -47zM262 158q31 -78 85 -125t126 -47q55 0 100 29.5t76 82.5q-71 103 -124.5 136.5t-102.5 33.5q-45 0 -89 -30.5t-71 -79.5zM846 -12q-33 3 -60 14q-41 16 -81 49q-39 -104 -103.5 -161.5t-155.5 -57.5
q-167 0 -270 231q-35 -34 -81 -55.5t-95 -21.5q-25 0 -40 20.5t-15 61.5t15 60t40 19q63 0 117.5 38t122.5 116q63 72 107 96.5t93 24.5q47 0 89 -26.5t114 -102.5q43 -45 75 -74t59.5 -44t52.5 -21q21 -6 44 -7q81 1 144 17q68 16 123 49q-12 90 -41 167t-64 122l107 176
q45 -66 69.5 -151t24.5 -169q0 -55 -19.5 -120.5t-62.5 -126.5q-41 -64 -120 -94q-68 -26 -146 -30q-30 -1 -43 1z" />
    <glyph glyph-name="uniFE92_uniFEE6.liga" unicode="&#xfe92;&#xfee6;" horiz-adv-x="1665" 
d="M485 453q-32 14 -72 44.5t-65 65.5l101 123q24 -33 65 -63.5t70 -47.5zM1366 -389q-33 14 -73 45t-64 65l100 123q25 -32 66 -63t69 -47zM1022 -10q-24 4 -43 15q-35 18 -55 42l-2 -2q2 -92 -13.5 -159.5t-54.5 -129.5q-49 -78 -157.5 -134t-272.5 -56q-191 0 -282 100.5
t-91 272.5q0 53 8.5 103t21.5 90t28.5 67.5t31.5 38.5l37 22q-16 -39 -24.5 -98.5t-8.5 -118.5q0 -154 72 -230.5t232 -76.5q122 0 224.5 41t155.5 112q-10 119 -32.5 207t-53.5 148l97 133q47 -111 107 -170q55 -56 109 -60q69 3 126 30q63 30 110 104l-12 90l61 75
q35 -157 114 -228t210 -71q22 0 41.5 -20.5t19.5 -58.5q0 -39 -19.5 -60.5t-41.5 -21.5q-129 0 -210 48t-128 150q-45 -94 -115 -146q-57 -42 -133 -50q-40 -2 -57 2z" />
    <glyph glyph-name="uniFE91_uniFEF0.liga" unicode="&#xfe91;&#xfef0;" horiz-adv-x="1551" 
d="M993 -14q45 -25 68.5 -62t23.5 -61q0 -43 -26.5 -92.5t-65.5 -77.5q-65 -55 -195 -91t-306 -36q-199 0 -301.5 96t-102.5 272q0 91 27.5 158.5t60.5 87.5l39 25q-16 -41 -25.5 -82t-9.5 -100q0 -136 92.5 -211.5t280.5 -75.5q145 0 266 24.5t189 65.5q-52 45 -125.5 90
t-139.5 70q11 34 26 68t26 55q20 8 46.5 15t64.5 12t92 8q33 2 75 3h7q90 0 158 16.5t123 49.5q-12 90 -41 167t-64 122l107 176q45 -66 69.5 -151t24.5 -169q0 -55 -19.5 -120.5t-62.5 -126.5q-41 -64 -120 -94q-53 -21 -113 -28q-9 -3 -68 -3h-81zM1340 -389
q-32 14 -72 45t-65 65l101 123q24 -32 65 -63t70 -47z" />
    <glyph glyph-name="uniFE91_uniFEF2.liga" unicode="&#xfe91;&#xfef2;" horiz-adv-x="1551" 
d="M659 -739q-28 12 -62 36.5t-58 51.5l-70 -103q-33 15 -73 42.5t-64 62.5l94 125q20 -27 51 -55.5t60 -45.5l79 115q27 -31 68 -60.5t70 -43.5zM993 -14q45 -25 68.5 -62t23.5 -61q0 -43 -26.5 -92.5t-65.5 -77.5q-65 -55 -195 -91t-306 -36q-199 0 -301.5 96t-102.5 272
q0 91 27.5 158.5t60.5 87.5l39 25q-16 -41 -25.5 -82t-9.5 -100q0 -136 92.5 -211.5t280.5 -75.5q145 0 266 24.5t189 65.5q-52 45 -125.5 90t-139.5 70q11 34 26 68t26 55q20 8 46.5 15t64.5 12t92 8q33 2 75 3h7q90 0 158 16.5t123 49.5q-12 90 -41 167t-64 122l107 176
q45 -66 69.5 -151t24.5 -169q0 -55 -19.5 -120.5t-62.5 -126.5q-41 -64 -120 -94q-53 -21 -113 -28q-9 -3 -68 -3h-81zM1340 -389q-32 14 -72 45t-65 65l101 123q24 -32 65 -63t70 -47z" />
    <glyph glyph-name="uniFE97_uniFEE4.liga" unicode="&#xfe97;&#xfee4;" horiz-adv-x="1342" 
d="M262 158q31 -78 85 -125t126 -47q55 0 100 29.5t76 82.5q-71 103 -124.5 136.5t-102.5 33.5q-45 0 -89 -30.5t-71 -79.5zM846 -12q-33 3 -60 14q-41 16 -81 49q-39 -104 -103.5 -161.5t-155.5 -57.5q-167 0 -270 231q-35 -34 -81 -55.5t-95 -21.5q-25 0 -40 20.5
t-15 61.5t15 60t40 19q63 0 117.5 38t122.5 116q63 72 107 96.5t93 24.5q47 0 89 -26.5t114 -102.5q43 -45 75 -74t59.5 -44t52.5 -21q21 -6 44 -7q81 1 144 17q68 16 123 49q-12 90 -41 167t-64 122l107 176q45 -66 69.5 -151t24.5 -169q0 -55 -19.5 -120.5t-62.5 -126.5
q-41 -64 -120 -94q-68 -26 -146 -30q-30 -1 -43 1zM1215 815q-29 12 -63 37t-58 51l-70 -102q-33 14 -73 41.5t-64 62.5l94 125q21 -26 51.5 -55t59.5 -45l80 114q26 -30 67 -60t70 -44z" />
    <glyph glyph-name="uniFE98_uniFEE6.liga" unicode="&#xfe98;&#xfee6;" horiz-adv-x="1665" 
d="M485 453q-32 14 -72 44.5t-65 65.5l101 123q24 -33 65 -63.5t70 -47.5zM1417 608q-29 13 -62.5 37.5t-58.5 50.5l-69 -102q-33 14 -73 42t-65 62l95 125q20 -26 51 -55t59 -45l80 115q27 -31 68 -60.5t69 -44.5zM1022 -10q-24 4 -43 15q-35 18 -55 42l-2 -2
q2 -92 -13.5 -159.5t-54.5 -129.5q-49 -78 -157.5 -134t-272.5 -56q-191 0 -282 100.5t-91 272.5q0 53 8.5 103t21.5 90t28.5 67.5t31.5 38.5l37 22q-16 -39 -24.5 -98.5t-8.5 -118.5q0 -154 72 -230.5t232 -76.5q122 0 224.5 41t155.5 112q-10 119 -32.5 207t-53.5 148
l97 133q47 -111 107 -170q55 -56 109 -60q69 3 126 30q63 30 110 104l-12 90l61 75q35 -157 114 -228t210 -71q22 0 41.5 -20.5t19.5 -58.5q0 -39 -19.5 -60.5t-41.5 -21.5q-129 0 -210 48t-128 150q-45 -94 -115 -146q-57 -42 -133 -50q-33 -4 -57 2z" />
    <glyph glyph-name="uniFE97_uniFEF0.liga" unicode="&#xfe97;&#xfef0;" horiz-adv-x="1563" 
d="M993 -14q45 -25 68.5 -62t23.5 -61q0 -43 -26.5 -92.5t-65.5 -77.5q-65 -55 -195 -91t-306 -36q-199 0 -301.5 96t-102.5 272q0 91 27.5 158.5t60.5 87.5l39 25q-16 -41 -25.5 -82t-9.5 -100q0 -136 92.5 -211.5t280.5 -75.5q145 0 266 24.5t189 65.5q-52 45 -125.5 90
t-139.5 70q11 34 26 68t26 55q20 8 46.5 15t64.5 12t92 8q33 2 75 3h7q90 0 158 16.5t123 49.5q-12 90 -41 167t-64 122l107 176q45 -66 69.5 -151t24.5 -169q0 -55 -19.5 -120.5t-62.5 -126.5q-41 -64 -120 -94q-53 -21 -113 -28q-9 -3 -18 -3h-131zM1435 815
q-29 12 -63 37t-58 51l-70 -102q-33 14 -73 41.5t-64 62.5l94 125q21 -26 51.5 -55t59.5 -45l80 114q26 -30 67 -60t70 -44z" />
    <glyph glyph-name="uniFE97_uniFEF2.liga" unicode="&#xfe97;&#xfef2;" horiz-adv-x="1563" 
d="M659 -739q-28 12 -62 36.5t-58 51.5l-70 -103q-33 15 -73 42.5t-64 62.5l94 125q20 -27 51 -55.5t60 -45.5l79 115q27 -31 68 -60.5t70 -43.5zM993 -14q45 -25 68.5 -62t23.5 -61q0 -43 -26.5 -92.5t-65.5 -77.5q-65 -55 -195 -91t-306 -36q-199 0 -301.5 96t-102.5 272
q0 91 27.5 158.5t60.5 87.5l39 25q-16 -41 -25.5 -82t-9.5 -100q0 -136 92.5 -211.5t280.5 -75.5q145 0 266 24.5t189 65.5q-52 45 -125.5 90t-139.5 70q11 34 26 68t26 55q20 8 46.5 15t64.5 12t92 8q33 2 75 3h7q90 0 158 16.5t123 49.5q-12 90 -41 167t-64 122l107 176
q45 -66 69.5 -151t24.5 -169q0 -55 -19.5 -120.5t-62.5 -126.5q-41 -64 -120 -94q-53 -21 -113 -28q-9 -3 -18 -3h-131zM1435 815q-29 12 -63 37t-58 51l-70 -102q-33 14 -73 41.5t-64 62.5l94 125q21 -26 51.5 -55t59.5 -45l80 114q26 -30 67 -60t70 -44z" />
    <glyph glyph-name="uniFE9C_uniFEAE.liga" unicode="&#xfe9c;&#xfeae;" horiz-adv-x="1405" 
d="M765 -11q-18 2 -35 7q-34 10 -66 33l-2 -2q14 -35 14 -86q0 -43 -17.5 -98.5t-54.5 -113t-93 -112.5t-134 -96l-262 33l-29 40q221 62 349 159t169 194q-4 47 -32.5 108.5t-92.5 132.5l74 142q41 -51 72.5 -86t61.5 -56.5t58 -30.5q22 -8 49 -10q70 3 128 30
q63 30 110 104l-12 90l61 75q35 -157 114 -228t210 -71q22 0 41.5 -20.5t19.5 -58.5q0 -39 -19.5 -60.5t-41.5 -21.5q-129 0 -210 48t-128 150q-45 -94 -115 -146q-57 -42 -134 -50q-21 -3 -53 1zM1158 608q-29 13 -63 37.5t-58 50.5l-70 -102q-33 14 -72.5 42t-64.5 62
l94 125q21 -26 51.5 -55t59.5 -45l80 115q26 -31 67 -60.5t70 -44.5zM1029 819q-13 4 -33.5 17.5t-40 31t-34.5 34t-21 26.5l98 121q18 -29 56 -64t69 -51z" />
    <glyph glyph-name="uniFE9B_uniFEE4.liga" unicode="&#xfe9b;&#xfee4;" horiz-adv-x="1333" 
d="M1076 1026q-13 4 -33.5 17.5t-40 31t-34.5 33.5t-21 27l98 120q18 -28 56 -63t69 -51zM1205 815q-29 12 -63 37t-58 51l-70 -102q-33 14 -73 41.5t-64 62.5l94 125q21 -26 51.5 -55t59.5 -45l80 114q26 -30 67 -60t70 -44zM262 158q31 -78 85 -125t126 -47q55 0 100 29.5
t76 82.5q-71 103 -124.5 136.5t-102.5 33.5q-45 0 -89 -30.5t-71 -79.5zM830 -10q-24 4 -44 12q-41 16 -81 49q-39 -104 -103.5 -161.5t-155.5 -57.5q-167 0 -270 231q-35 -34 -81 -55.5t-95 -21.5q-25 0 -40 20.5t-15 61.5t15 60t40 19q63 0 117.5 38t122.5 116
q63 72 107 96.5t93 24.5q47 0 89 -26.5t114 -102.5q43 -45 75 -74t59.5 -44t52.5 -21q19 -6 41 -7q77 2 137 17q68 16 123 49q-12 90 -41 167t-64 122l107 176q45 -66 69.5 -151t24.5 -169q0 -55 -19.5 -120.5t-62.5 -126.5q-41 -64 -120 -94q-62 -24 -132 -29q-29 -4 -63 2
z" />
    <glyph glyph-name="uniFE9C_uniFEE6.liga" unicode="&#xfe9c;&#xfee6;" horiz-adv-x="1665" 
d="M485 453q-32 14 -72 44.5t-65 65.5l101 123q24 -33 65 -63.5t70 -47.5zM1418 608q-29 13 -63 37.5t-58 50.5l-70 -102q-33 14 -72.5 42t-64.5 62l94 125q21 -26 51.5 -55t59.5 -45l80 115q26 -31 67 -60.5t70 -44.5zM1289 819q-13 4 -33.5 17.5t-40 31t-34.5 34t-21 26.5
l98 121q18 -29 56 -64t69 -51zM1022 -10q-24 4 -43 15q-35 18 -55 42l-2 -2q2 -92 -13.5 -159.5t-54.5 -129.5q-49 -78 -157.5 -134t-272.5 -56q-191 0 -282 100.5t-91 272.5q0 53 8.5 103t21.5 90t28.5 67.5t31.5 38.5l37 22q-16 -39 -24.5 -98.5t-8.5 -118.5
q0 -154 72 -230.5t232 -76.5q122 0 224.5 41t155.5 112q-10 119 -32.5 207t-53.5 148l97 133q47 -111 107 -170q55 -56 109 -60q69 3 126 30q63 30 110 104l-12 90l61 75q35 -157 114 -228t210 -71q22 0 41.5 -20.5t19.5 -58.5q0 -39 -19.5 -60.5t-41.5 -21.5
q-129 0 -210 48t-128 150q-45 -94 -115 -146q-57 -42 -133 -50q-30 -2 -57 2z" />
    <glyph glyph-name="uniFE9B_uniFEF0.liga" unicode="&#xfe9b;&#xfef0;" horiz-adv-x="1572" 
d="M993 -14q45 -25 68.5 -62t23.5 -61q0 -43 -26.5 -92.5t-65.5 -77.5q-65 -55 -195 -91t-306 -36q-199 0 -301.5 96t-102.5 272q0 91 27.5 158.5t60.5 87.5l39 25q-16 -41 -25.5 -82t-9.5 -100q0 -136 92.5 -211.5t280.5 -75.5q145 0 266 24.5t189 65.5q-52 45 -125.5 90
t-139.5 70q11 34 26 68t26 55q20 8 46.5 15t64.5 12t92 8q38 2 87 3h5q90 0 158 16.5t123 49.5q-12 90 -41 167t-64 122l107 176q45 -66 69.5 -151t24.5 -169q0 -55 -19.5 -120.5t-62.5 -126.5q-41 -64 -120 -94q-60 -23 -127 -29q-7 -2 -14 -2h-131zM1445 815
q-29 12 -63 37t-58 51l-70 -102q-33 14 -73 41.5t-64 62.5l94 125q21 -26 51.5 -55t59.5 -45l80 114q26 -30 67 -60t70 -44zM1316 1026q-13 4 -33.5 17.5t-40 31t-34.5 33.5t-21 27l98 120q18 -28 56 -63t69 -51z" />
    <glyph glyph-name="uniFE9B_uniFEF2.liga" unicode="&#xfe9b;&#xfef2;" horiz-adv-x="1572" 
d="M659 -739q-28 12 -62 36.5t-58 51.5l-70 -103q-33 15 -73 42.5t-64 62.5l94 125q20 -27 51 -55.5t60 -45.5l79 115q27 -31 68 -60.5t70 -43.5zM993 -14q45 -25 68.5 -62t23.5 -61q0 -43 -26.5 -92.5t-65.5 -77.5q-65 -55 -195 -91t-306 -36q-199 0 -301.5 96t-102.5 272
q0 91 27.5 158.5t60.5 87.5l39 25q-16 -41 -25.5 -82t-9.5 -100q0 -136 92.5 -211.5t280.5 -75.5q145 0 266 24.5t189 65.5q-52 45 -125.5 90t-139.5 70q11 34 26 68t26 55q20 8 46.5 15t64.5 12t92 8q38 2 87 3h5q90 0 158 16.5t123 49.5q-12 90 -41 167t-64 122l107 176
q45 -66 69.5 -151t24.5 -169q0 -55 -19.5 -120.5t-62.5 -126.5q-41 -64 -120 -94q-60 -23 -127 -29q-7 -2 -14 -2h-131zM1445 815q-29 12 -63 37t-58 51l-70 -102q-33 14 -73 41.5t-64 62.5l94 125q21 -26 51.5 -55t59.5 -45l80 114q26 -30 67 -60t70 -44zM1316 1026
q-13 4 -33.5 17.5t-40 31t-34.5 33.5t-21 27l98 120q18 -28 56 -63t69 -51z" />
    <glyph glyph-name="uniFEDB_uniFEF0.liga" unicode="&#xfedb;&#xfef0;" horiz-adv-x="1921" 
d="M993 -14q45 -25 68.5 -62t23.5 -61q0 -43 -26.5 -92.5t-65.5 -77.5q-65 -55 -195 -91t-306 -36q-199 0 -301.5 96t-102.5 272q0 91 27.5 158.5t60.5 87.5l39 25q-16 -41 -25.5 -82t-9.5 -100q0 -136 92.5 -211.5t280.5 -75.5q145 0 266 24.5t189 65.5q-52 45 -125.5 90
t-139.5 70q11 34 26 68t26 55q20 8 46.5 15t64.5 12t92 8h74q134 3 232.5 22.5t153.5 52.5q-4 27 -31.5 86.5t-76.5 135t-120 163.5t-157 174q0 76 40 133.5t132 81.5l617 168l-82 -151l-590 -164q195 -197 275.5 -342.5t80.5 -227.5q0 -24 -8 -50.5t-21.5 -53.5
t-30.5 -48.5t-38 -35.5q-37 -25 -87 -44t-105 -32q-53 -13 -107 -19q-26 -6 -156 -7z" />
    <glyph glyph-name="uniFEDC_uniFEF0.liga" unicode="&#xfedc;&#xfef0;" horiz-adv-x="1909" 
d="M993 -14q45 -25 68.5 -62t23.5 -61q0 -43 -26.5 -92.5t-65.5 -77.5q-65 -55 -195 -91t-306 -36q-199 0 -301.5 96t-102.5 272q0 91 27.5 158.5t60.5 87.5l39 25q-16 -41 -25.5 -82t-9.5 -100q0 -136 92.5 -211.5t280.5 -75.5q145 0 266 24.5t189 65.5q-52 45 -125.5 90
t-139.5 70q11 34 26 68t26 55q20 8 46.5 15t64.5 12t92 8q24 1 53 2l59 1q116 0 207 26t120 67q-4 32 -22.5 75t-56.5 105.5t-100.5 149.5t-154.5 208q0 76 40 133.5t132 81.5l617 168l-82 -149l-590 -166l315 -434q60 -80 106 -132.5t86 -81t77 -40t86 -11.5h18
q23 0 42.5 -20.5t19.5 -58.5q0 -39 -19.5 -60.5t-42.5 -21.5h-31q-106 0 -188 56t-168 196q-64 -225 -380 -249q-8 -3 -148 -3z" />
    <glyph glyph-name="uniFEDB_uniFEF2.liga" unicode="&#xfedb;&#xfef2;" horiz-adv-x="1921" 
d="M659 -739q-28 12 -62 36.5t-58 51.5l-70 -103q-33 15 -73 42.5t-64 62.5l94 125q20 -27 51 -55.5t60 -45.5l79 115q27 -31 68 -60.5t70 -43.5zM993 -14q45 -25 68.5 -62t23.5 -61q0 -43 -26.5 -92.5t-65.5 -77.5q-65 -55 -195 -91t-306 -36q-199 0 -301.5 96t-102.5 272
q0 91 27.5 158.5t60.5 87.5l39 25q-16 -41 -25.5 -82t-9.5 -100q0 -136 92.5 -211.5t280.5 -75.5q145 0 266 24.5t189 65.5q-52 45 -125.5 90t-139.5 70q11 34 26 68t26 55q20 8 46.5 15t64.5 12t92 8h74q134 3 232.5 22.5t153.5 52.5q-4 27 -31.5 86.5t-76.5 135
t-120 163.5t-157 174q0 76 40 133.5t132 81.5l617 168l-82 -151l-590 -164q195 -197 275.5 -342.5t80.5 -227.5q0 -24 -8 -50.5t-21.5 -53.5t-30.5 -48.5t-38 -35.5q-37 -25 -87 -44t-105 -32q-53 -13 -107 -19q-26 -6 -156 -7z" />
    <glyph glyph-name="uniFEDC_uniFEF2.liga" unicode="&#xfedc;&#xfef2;" horiz-adv-x="1909" 
d="M659 -739q-28 12 -62 36.5t-58 51.5l-70 -103q-33 15 -73 42.5t-64 62.5l94 125q20 -27 51 -55.5t60 -45.5l79 115q27 -31 68 -60.5t70 -43.5zM993 -14q45 -25 68.5 -62t23.5 -61q0 -43 -26.5 -92.5t-65.5 -77.5q-65 -55 -195 -91t-306 -36q-199 0 -301.5 96t-102.5 272
q0 91 27.5 158.5t60.5 87.5l39 25q-16 -41 -25.5 -82t-9.5 -100q0 -136 92.5 -211.5t280.5 -75.5q145 0 266 24.5t189 65.5q-52 45 -125.5 90t-139.5 70q11 34 26 68t26 55q20 8 46.5 15t64.5 12t92 8q24 1 53 2l59 1q116 0 207 26t120 67q-4 32 -22.5 75t-56.5 105.5
t-100.5 149.5t-154.5 208q0 76 40 133.5t132 81.5l617 168l-82 -149l-590 -166l315 -434q60 -80 106 -132.5t86 -81t77 -40t86 -11.5h18q23 0 42.5 -20.5t19.5 -58.5q0 -39 -19.5 -60.5t-42.5 -21.5h-31q-106 0 -188 56t-168 196q-64 -225 -380 -249q-8 -3 -148 -3z" />
    <glyph glyph-name="uniFEDF_uniFB51.rlig" unicode="&#xfedf;&#xfb51;" horiz-adv-x="940" 
d="M290 162q104 76 177 142.5t122 131.5q-68 92 -157 177t-185 149l-43 -55q-27 49 -66 92t-76 71l52 170q61 -36 136 -92.5t149.5 -122t142 -137.5t114.5 -135q54 127 54 309q0 84 -8.5 163t-20.5 130l137 115q8 -53 14.5 -134t6.5 -173q0 -154 -32 -274t-95 -222
q39 -68 60.5 -126t23.5 -93q0 -17 -5.5 -41.5t-13.5 -50t-19.5 -50t-21.5 -43.5q-28 -45 -76.5 -70.5t-134.5 -25.5t-156.5 13.5t-123.5 29.5zM718 166q-13 90 -80 199q-103 -117 -258 -224q47 -8 88 -10t92 -2q53 0 94 8t64 29zM8 1101q-12 26 -12 51q0 35 20.5 57.5
t55.5 28.5q24 86 73.5 132t114.5 46q47 0 78 -34t31 -87q0 -57 -46 -95t-143 -38q-41 0 -67.5 -2t-46 -9t-32.5 -19.5t-26 -30.5zM113 1244q18 -4 38.5 -4h39.5q114 0 114 47q0 24 -19.5 37.5t-47.5 13.5q-35 0 -70 -24.5t-55 -69.5z" />
    <glyph glyph-name="uniFEE0_uniFB51.rlig" unicode="&#xfee0;&#xfb51;" horiz-adv-x="1099" 
d="M904 1272q16 -154 23.5 -352.5t7.5 -409.5q0 -197 37.5 -280t127.5 -83q23 0 42.5 -20.5t19.5 -58.5q0 -39 -19.5 -60.5t-42.5 -21.5q-116 0 -180.5 72.5t-81.5 232.5q-22 -53 -62 -102.5t-92 -93.5t-112.5 -79.5t-126.5 -60.5l-340 88l21 41q280 16 461.5 108.5
t240.5 221.5q0 100 -3 203.5t-8 199.5t-13.5 183t-20.5 157zM154 1061q117 -66 213.5 -145.5t170 -171t121.5 -188.5t67 -198l-43 -34q-25 69 -68 137.5t-96 129t-113.5 110t-122.5 79.5l-28 -63q-23 43 -64 95t-86 87zM8 1101q-12 26 -12 51q0 35 20.5 57.5t55.5 28.5
q24 86 73.5 132t114.5 46q47 0 78 -34t31 -87q0 -57 -46 -95t-143 -38q-41 0 -67.5 -2t-46 -9t-32.5 -19.5t-26 -30.5zM113 1244q18 -4 38.5 -4h39.5q114 0 114 47q0 24 -19.5 37.5t-47.5 13.5q-35 0 -70 -24.5t-55 -69.5z" />
    <glyph glyph-name="uniFEDF_uniFEE2.liga" unicode="&#xfedf;&#xfee2;" horiz-adv-x="1357" 
d="M691 100q-76 99 -129 133.5t-104 34.5q-37 0 -72 -20.5t-61 -52.5q30 -103 86.5 -160.5t126.5 -57.5q57 0 97 38t56 85zM898 -13q-41 4 -73 19q-44 19 -78 53q-25 -106 -86.5 -170.5t-133.5 -64.5q-94 0 -161.5 82t-94.5 229q-12 -14 -28.5 -32.5t-30.5 -37t-25.5 -36
t-17.5 -29.5q10 -72 27.5 -155t38.5 -183q16 -78 25 -147.5t9 -120.5q0 -49 -4 -80t-24 -66l-39 13q-4 43 -9.5 77.5t-14.5 79.5t-24.5 107.5t-39.5 159.5q-19 77 -32 136.5t-13 100.5q0 60 34.5 146t90 164.5t126 134t144.5 55.5q61 0 110.5 -28.5t114.5 -100.5
q41 -45 73 -72.5t59.5 -44t53.5 -22.5q22 -6 48 -7q113 2 173 35q0 94 -9.5 215t-19.5 240q-14 141 -24.5 262t-14.5 199q-4 16 -8 35.5t-4 35.5l125 103q6 -29 20.5 -63.5t32.5 -66.5t38.5 -60.5t43.5 -45.5l-107 -67q2 -74 6.5 -160t8.5 -172t11 -165t7 -136
q0 -60 -11 -127.5t-44 -120.5q-35 -53 -94 -77q-49 -20 -113 -24q-25 -2 -42 0z" />
    <glyph glyph-name="uniFEE4_uniFE8E.liga" unicode="&#xfee4;&#xfe8e;" horiz-adv-x="1309" 
d="M691 158q31 -78 85.5 -125t125.5 -47q56 0 101 29.5t76 82.5q-72 103 -125.5 136.5t-102.5 33.5q-45 0 -89 -30.5t-71 -79.5zM423 -14q-76 3 -126 26q-56 25 -81 60q-16 22 -28.5 46.5t-19.5 66.5t-11 108.5t-4 173.5q0 174 -7.5 340t-23.5 315l119 115q6 -72 11 -159
t8 -184t4 -202.5t1 -212.5q0 -110 11.5 -176.5t34 -100.5t55.5 -44q29 -10 69 -11q61 2 112 38q54 38 122 116q63 72 107 96.5t94 24.5q47 0 89 -26.5t113 -102.5q43 -45 75 -74t59.5 -44t52 -21.5t51.5 -6.5q22 0 41.5 -20.5t19.5 -58.5q0 -39 -19.5 -60.5t-41.5 -21.5
q-53 0 -94 16t-82 49q-39 -104 -103.5 -161.5t-154.5 -57.5q-168 0 -271 231q-34 -34 -80 -55q-35 -16 -70 -20q-6 -2 -32 -2z" />
    <glyph glyph-name="uniFEE4_uniFE82.liga" unicode="&#xfee4;&#xfe82;" horiz-adv-x="1319" 
d="M447 1509q24 -14 24 -47q0 -47 -58 -79.5t-161 -45.5q-118 -16 -179.5 -48t-82.5 -72q-20 8 -34.5 28.5t-14.5 42.5q0 53 57.5 84t186.5 45q125 15 180 34t82 58zM702 158q31 -78 85.5 -125t125.5 -47q56 0 101 29.5t76 82.5q-72 103 -125.5 136.5t-102.5 33.5
q-45 0 -89 -30.5t-71 -79.5zM436 -14q-80 2 -132 26q-56 25 -81 60q-16 22 -28.5 46.5t-19.5 66.5t-11 108.5t-4 173.5q0 174 -7.5 340t-23.5 315l119 115q6 -72 11 -159t8 -184t4 -202.5t1 -212.5q0 -110 11.5 -176.5t34 -100.5t55.5 -44q31 -10 72 -11q61 1 113 38
q54 38 122 116q63 72 107 96.5t94 24.5q47 0 89 -26.5t113 -102.5q43 -45 75 -74t59.5 -44t52 -21.5t51.5 -6.5q22 0 41.5 -20.5t19.5 -58.5q0 -39 -19.5 -60.5t-41.5 -21.5q-53 0 -94 16t-82 49q-39 -104 -103.5 -161.5t-154.5 -57.5q-168 0 -271 231q-34 -34 -80 -55
q-37 -18 -76 -21q-4 -1 -24 -1z" />
    <glyph glyph-name="uniFEE4_uniFE84.liga" unicode="&#xfee4;&#xfe84;" horiz-adv-x="1309" 
d="M249 1528q-31 18 -63 18q-29 0 -60 -17.5t-43 -47.5q19 -23 53.5 -35t69.5 -12q37 0 76 14t82 39l-27 -103q-35 -10 -74 -24t-77.5 -31.5t-75.5 -38t-68 -41.5q-4 17 -4 25q0 37 28.5 61.5t57.5 32.5q-90 23 -90 86q0 78 48 128t118 50q55 0 96 -30zM691 158
q31 -78 85.5 -125t125.5 -47q56 0 101 29.5t76 82.5q-72 103 -125.5 136.5t-102.5 33.5q-45 0 -89 -30.5t-71 -79.5zM423 -14q-76 3 -126 26q-56 25 -81 60q-16 22 -28.5 46.5t-19.5 66.5t-11 108.5t-4 173.5q0 174 -7.5 340t-23.5 315l119 115q6 -72 11 -159t8 -184
t4 -202.5t1 -212.5q0 -110 11.5 -176.5t34 -100.5t55.5 -44q29 -10 69 -11q61 2 112 38q54 38 122 116q63 72 107 96.5t94 24.5q47 0 89 -26.5t113 -102.5q43 -45 75 -74t59.5 -44t52 -21.5t51.5 -6.5q22 0 41.5 -20.5t19.5 -58.5q0 -39 -19.5 -60.5t-41.5 -21.5
q-53 0 -94 16t-82 49q-39 -104 -103.5 -161.5t-154.5 -57.5q-168 0 -271 231q-34 -34 -80 -55q-34 -16 -70 -20q-12 -2 -32 -2z" />
    <glyph glyph-name="uniFEE4_uniFE88.liga" unicode="&#xfee4;&#xfe88;" horiz-adv-x="1281" 
d="M322 -254q-31 18 -64 18q-29 0 -59.5 -17t-42.5 -48q18 -23 53 -35t70 -12q36 0 75 14.5t82 38.5l-26 -102q-35 -11 -74 -25t-78 -31.5t-76 -38t-67 -40.5q-4 16 -4 24q0 37 28.5 61.5t57.5 32.5q-91 23 -91 86q0 78 48.5 128t117.5 50q56 0 97 -30zM662 158
q31 -78 85.5 -125t125.5 -47q56 0 101 29.5t76 82.5q-72 103 -125.5 136.5t-102.5 33.5q-45 0 -89 -30.5t-71 -79.5zM392 -13q-72 3 -120 25q-57 25 -82 60q-16 22 -28 46.5t-19.5 66.5t-11.5 108.5t-4 173.5q0 174 -7 340t-24 315l119 115q6 -72 11 -159t8.5 -184
t4.5 -202.5t1 -212.5q0 -110 11 -176.5t33.5 -100.5t55.5 -44q29 -10 68 -11q59 2 110 38q54 38 122 116q63 72 107 96.5t94 24.5q47 0 89 -26.5t113 -102.5q43 -45 75 -74t59.5 -44t52 -21.5t51.5 -6.5q22 0 41.5 -20.5t19.5 -58.5q0 -39 -19.5 -60.5t-41.5 -21.5
q-53 0 -94 16t-82 49q-39 -104 -103.5 -161.5t-154.5 -57.5q-168 0 -271 231q-34 -34 -80 -55q-31 -15 -64 -20q-22 -3 -40 -1z" />
    <glyph glyph-name="uniFEE8_uniFEAE.liga" unicode="&#xfee8;&#xfeae;" horiz-adv-x="1414" 
d="M781 -13q-27 2 -51 9q-34 10 -66 33l-2 -2q14 -35 14 -86q0 -43 -17.5 -98.5t-54.5 -113t-93 -112.5t-134 -96l-262 33l-29 40q221 62 349 159t169 194q-4 47 -32.5 108.5t-92.5 132.5l74 142q41 -51 72.5 -86t61.5 -56.5t58 -30.5q24 -9 54 -10q73 2 133 30
q63 30 110 104l-12 90l61 75q35 -157 114 -228t210 -71q22 0 41.5 -20.5t19.5 -58.5q0 -39 -19.5 -60.5t-41.5 -21.5q-129 0 -210 48t-128 150q-45 -94 -115 -146q-63 -46 -149 -51q-16 -2 -32 0zM1077 594q-33 14 -73 45t-64 66l100 122q25 -32 66 -63t69 -47z" />
    <glyph glyph-name="uniFEE7_uniFEE4.liga" unicode="&#xfee7;&#xfee4;" horiz-adv-x="1333" 
d="M262 158q31 -78 85 -125t126 -47q55 0 100 29.5t76 82.5q-71 103 -124.5 136.5t-102.5 33.5q-45 0 -89 -30.5t-71 -79.5zM830 -10q-24 4 -44 12q-41 16 -81 49q-39 -104 -103.5 -161.5t-155.5 -57.5q-167 0 -270 231q-35 -34 -81 -55.5t-95 -21.5q-25 0 -40 20.5
t-15 61.5t15 60t40 19q63 0 117.5 38t122.5 116q63 72 107 96.5t93 24.5q47 0 89 -26.5t114 -102.5q43 -45 75 -74t59.5 -44t52.5 -21q19 -6 41 -7q77 2 137 17q68 16 123 49q-12 90 -41 167t-64 122l107 176q45 -66 69.5 -151t24.5 -169q0 -55 -19.5 -120.5t-62.5 -126.5
q-41 -64 -120 -94q-62 -24 -132 -29q-31 -3 -63 2zM1098 801q-33 14 -73 45t-64 65l100 123q25 -33 66 -63.5t69 -46.5z" />
    <glyph glyph-name="uniFEE7_uniFEF0.liga" unicode="&#xfee7;&#xfef0;" horiz-adv-x="1566" 
d="M993 -14q45 -25 68.5 -62t23.5 -61q0 -43 -26.5 -92.5t-65.5 -77.5q-65 -55 -195 -91t-306 -36q-199 0 -301.5 96t-102.5 272q0 91 27.5 158.5t60.5 87.5l39 25q-16 -41 -25.5 -82t-9.5 -100q0 -136 92.5 -211.5t280.5 -75.5q145 0 266 24.5t189 65.5q-52 45 -125.5 90
t-139.5 70q11 34 26 68t26 55q20 8 46.5 15t64.5 12t92 8q38 2 87 3h5q90 0 158 16.5t123 49.5q-12 90 -41 167t-64 122l107 176q45 -66 69.5 -151t24.5 -169q0 -55 -19.5 -120.5t-62.5 -126.5q-41 -64 -120 -94q-60 -23 -127 -29q-29 -2 -104 -2h-41zM1338 801
q-33 14 -73 45t-64 65l100 123q25 -33 66 -63.5t69 -46.5z" />
    <glyph glyph-name="uniFEE7_uniFEF2.liga" unicode="&#xfee7;&#xfef2;" horiz-adv-x="1566" 
d="M659 -739q-28 12 -62 36.5t-58 51.5l-70 -103q-33 15 -73 42.5t-64 62.5l94 125q20 -27 51 -55.5t60 -45.5l79 115q27 -31 68 -60.5t70 -43.5zM993 -14q45 -25 68.5 -62t23.5 -61q0 -43 -26.5 -92.5t-65.5 -77.5q-65 -55 -195 -91t-306 -36q-199 0 -301.5 96t-102.5 272
q0 91 27.5 158.5t60.5 87.5l39 25q-16 -41 -25.5 -82t-9.5 -100q0 -136 92.5 -211.5t280.5 -75.5q145 0 266 24.5t189 65.5q-52 45 -125.5 90t-139.5 70q11 34 26 68t26 55q20 8 46.5 15t64.5 12t92 8q38 2 87 3h5q90 0 158 16.5t123 49.5q-12 90 -41 167t-64 122l107 176
q45 -66 69.5 -151t24.5 -169q0 -55 -19.5 -120.5t-62.5 -126.5q-41 -64 -120 -94q-60 -23 -127 -29q-29 -2 -104 -2h-41zM1338 801q-33 14 -73 45t-64 65l100 123q25 -33 66 -63.5t69 -46.5z" />
    <glyph glyph-name="uniFEF4_uniFEAE.liga" unicode="&#xfef4;&#xfeae;" horiz-adv-x="1405" 
d="M765 -11q-18 2 -35 7q-34 10 -66 33l-2 -2q14 -35 14 -86q0 -43 -17.5 -98.5t-54.5 -113t-93 -112.5t-134 -96l-262 33l-29 40q221 62 349 159t169 194q-4 47 -32.5 108.5t-92.5 132.5l74 142q41 -51 72.5 -86t61.5 -56.5t58 -30.5q22 -8 49 -10q70 3 128 30
q63 30 110 104l-12 90l61 75q35 -157 114 -228t210 -71q22 0 41.5 -20.5t19.5 -58.5q0 -39 -19.5 -60.5t-41.5 -21.5q-129 0 -210 48t-128 150q-45 -94 -115 -146q-57 -42 -134 -50q-29 -3 -53 1zM1189 -385q-29 12 -62.5 36.5t-58.5 51.5l-70 -102q-32 14 -72 41.5
t-65 62.5l94 125q21 -27 51.5 -55.5t59.5 -44.5l80 114q26 -30 67 -60t70 -44z" />
    <glyph glyph-name="uniFEF3_uniFEE4.liga" unicode="&#xfef3;&#xfee4;" horiz-adv-x="1348" 
d="M262 158q31 -78 85 -125t126 -47q55 0 100 29.5t76 82.5q-71 103 -124.5 136.5t-102.5 33.5q-45 0 -89 -30.5t-71 -79.5zM846 -12q-33 3 -60 14q-41 16 -81 49q-39 -104 -103.5 -161.5t-155.5 -57.5q-167 0 -270 231q-35 -34 -81 -55.5t-95 -21.5q-25 0 -40 20.5
t-15 61.5t15 60t40 19q63 0 117.5 38t122.5 116q63 72 107 96.5t93 24.5q47 0 89 -26.5t114 -102.5q43 -45 75 -74t59.5 -44t52.5 -21q21 -6 44 -7q81 1 144 17q68 16 123 49q-12 90 -41 167t-64 122l107 176q45 -66 69.5 -151t24.5 -169q0 -55 -19.5 -120.5t-62.5 -126.5
q-41 -64 -120 -94q-68 -26 -146 -30q-21 -2 -43 1zM1189 -385q-29 12 -63 36.5t-58 51.5l-70 -102q-33 14 -72.5 41.5t-64.5 62.5l94 125q21 -27 51.5 -55.5t59.5 -44.5l80 114q26 -30 67 -60t70 -44z" />
    <glyph glyph-name="uniFEF4_uniFEE6.liga" unicode="&#xfef4;&#xfee6;" horiz-adv-x="1665" 
d="M485 453q-32 14 -72 44.5t-65 65.5l101 123q24 -33 65 -63.5t70 -47.5zM1449 -385q-29 12 -62.5 36.5t-58.5 51.5l-70 -102q-32 14 -72 41.5t-65 62.5l94 125q21 -27 51.5 -55.5t59.5 -44.5l80 114q26 -30 67 -60t70 -44zM1048 -13q-14 0 -26 3q-24 4 -43 15
q-35 18 -55 42l-2 -2q2 -92 -13.5 -159.5t-54.5 -129.5q-49 -78 -157.5 -134t-272.5 -56q-191 0 -282 100.5t-91 272.5q0 53 8.5 103t21.5 90t28.5 67.5t31.5 38.5l37 22q-16 -39 -24.5 -98.5t-8.5 -118.5q0 -154 72 -230.5t232 -76.5q122 0 224.5 41t155.5 112
q-10 119 -32.5 207t-53.5 148l97 133q47 -111 107 -170q55 -56 109 -60q69 3 126 30q63 30 110 104l-12 90l61 75q35 -157 114 -228t210 -71q22 0 41.5 -20.5t19.5 -58.5q0 -39 -19.5 -60.5t-41.5 -21.5q-129 0 -210 48t-128 150q-45 -94 -115 -146q-57 -42 -133 -50
q-8 -1 -16 -1h-15z" />
    <glyph glyph-name="T_h.liga" unicode="Th" horiz-adv-x="1757" 
d="M926 963l-343 36v-909l144 -29l-11 -61h-411l16 61q59 13 78.5 38.5t19.5 78.5v821l-262 -30l-20 -135h-68l-49 245h852l209 82v-375q0 -71 -10 -122q102 79 166.5 109t121.5 30q101 0 160 -62.5t59 -185.5v-465l132 -29l-13 -61h-375l17 61q47 11 66.5 29.5t19.5 59.5
v344q0 77 -26.5 123.5t-76.5 68.5q-59 -6 -114.5 -26.5t-126.5 -61.5v-508l131 -29l-12 -61h-375l16 61q47 11 66.5 29.5t19.5 59.5z" />
    <glyph glyph-name="f_b.liga" unicode="fb" horiz-adv-x="1524" 
d="M881 141q35 -32 88 -51.5t106 -19.5q35 0 64 6t49 16q96 103 96 314q0 69 -16 125.5t-44 96.5t-61.5 60.5t-70.5 20.5q-47 0 -104.5 -33t-106.5 -96v-439zM881 741q0 -20 -2 -41.5t-6 -33.5q63 75 132.5 109t141.5 34q64 0 118 -25.5t95 -73.5t64.5 -118t23.5 -156
q0 -108 -32.5 -192t-90 -143.5t-135.5 -90t-168 -30.5q-35 0 -75 6t-78.5 16t-74.5 24.5t-67 32.5v903q-48 51 -148 76q-27 4 -48 4h-15q-68 0 -142 -33q-24 -54 -24 -215v-11h205l3 -1q-19 -96 -23 -98h-185v-597q145 -27 145 -30q-12 -57 -15 -60h-388v1q13 62 21 62
q47 9 65 29q18 18 18 64v532q-170 38 -170 43q13 48 18 55h152v9q0 260 214 344q73 24 148 24h15q103 0 190 -62h1q101 62 106 62h11v-419z" />
    <glyph glyph-name="f_f_b.liga" unicode="ffb" horiz-adv-x="2078" 
d="M1431 141q35 -32 88 -51.5t106 -19.5q35 0 64 6t49 16q96 103 96 314q0 69 -16 125.5t-44 96.5t-61.5 60.5t-70.5 20.5q-47 0 -104.5 -33t-106.5 -96v-439zM1277 957q-87 82 -202 82q-80 0 -149 -34q-24 -54 -24 -200v-21q1 -3 3 -3h201v-2q-17 -97 -20 -97h-184v-593
q143 -27 143 -31q-11 -59 -15 -59h-382q-3 0 -3 3q15 58 18 59q86 12 86 84v537h-401v-593q136 -26 143 -29q-12 -61 -15 -61h-382q-3 0 -3 3q14 57 18 59q52 11 69 31q16 21 16 56v533q0 3 -165 41q0 1 -3 1v2q13 56 18 56h150q0 253 174 330q101 45 267 45h30v-2
q0 -7 -45 -147q-83 22 -165 22h-3q-81 -2 -81 -12q-23 -54 -23 -217v-19h401v1q2 255 188 340q79 34 173 34h18q95 0 184 -61h2l101 62h17q2 0 2 -3v-410h-3v-3q0 -20 -2 -41.5t-6 -33.5q63 75 132.5 109t141.5 34q64 0 118 -25.5t95 -73.5t64.5 -118t23.5 -156
q0 -108 -32.5 -192t-90 -143.5t-135.5 -90t-168 -30.5q-35 0 -75 6t-78.5 16t-74.5 24.5t-67 32.5v898z" />
    <glyph glyph-name="f_f.liga" unicode="ff" horiz-adv-x="1137" 
d="M657 1163h9v-1q-1 -10 -44 -149q-92 23 -167 23q-83 -3 -83 -13q-24 -56 -24 -214v-24h403v1q0 252 170 330q97 47 292 47h9q2 0 2 -3q-42 -142 -45 -147h-3q-84 23 -165 23q-83 -3 -83 -13q-23 -56 -23 -214v-24h202q3 0 3 -3q-17 -95 -21 -95h-184v-597
q140 -26 144 -29q-11 -58 -14 -61h-388v1q13 63 21 63q30 0 68 30q15 21 15 61v532h-403v-597q4 0 143 -28q-9 -62 -14 -62h-382q-3 0 -3 3q13 59 16 59q47 10 67 28q19 20 19 65v532q-156 36 -170 41v2q14 50 18 55h152v1q0 252 171 330q96 47 292 47z" />
    <glyph glyph-name="f_h.liga" unicode="fh" horiz-adv-x="1544" 
d="M881 786q0 -71 -10 -122q102 79 166.5 109t121.5 30q101 0 160 -62.5t59 -185.5v-465l132 -29l-13 -61h-375l17 61q47 11 66.5 29.5t19.5 59.5v344q0 77 -26.5 123.5t-76.5 68.5q-59 -6 -114.5 -26.5t-126.5 -61.5v-508l131 -29l-12 -61h-375l16 61q47 11 66.5 29.5
t19.5 59.5v812q-48 51 -148 76q-27 4 -48 4h-15q-68 0 -142 -33q-24 -54 -24 -215v-11h205l3 -1q-19 -96 -23 -98h-185v-597q145 -27 145 -30q-12 -57 -15 -60h-388v1q13 62 21 62q47 9 65 29q18 18 18 64v532q-170 38 -170 43q13 48 18 55h152v9q0 260 214 344
q73 24 148 24h15q103 0 190 -62h1q101 62 106 62h11v-374z" />
    <glyph glyph-name="f_f_h.liga" unicode="ffh" horiz-adv-x="2106" 
d="M1431 773q-1 -63 -10 -109q102 79 166.5 109t121.5 30q101 0 160 -62.5t59 -185.5v-465l132 -29l-13 -61h-375l17 61q47 11 66.5 29.5t19.5 59.5v344q0 77 -26.5 123.5t-76.5 68.5q-59 -6 -114.5 -26.5t-126.5 -61.5v-508l131 -29l-12 -61h-375l16 61q47 11 66.5 29.5
t19.5 59.5v807q-87 82 -202 82q-80 0 -149 -34q-24 -54 -24 -200v-21q1 -3 3 -3h201v-2q-17 -97 -20 -97h-184v-593q143 -27 143 -31q-11 -59 -15 -59h-382q-3 0 -3 3q15 58 18 59q86 12 86 84v537h-401v-593q136 -26 143 -29q-12 -61 -15 -61h-382q-3 0 -3 3q14 57 18 59
q52 11 69 31q16 21 16 56v533q0 3 -165 41q0 1 -3 1v2q13 56 18 56h150q0 253 174 330q101 45 267 45h30v-2q0 -7 -45 -147q-83 22 -165 22h-3q-81 -2 -81 -12q-23 -54 -23 -217v-19h401v1q2 255 188 340q79 34 173 34h18q95 0 184 -61h2l101 62h16v-384z" />
    <glyph glyph-name="f_f_i.liga" unicode="ffi" horiz-adv-x="1630" 
d="M635 1159h26l3 -2l-45 -147h-2q-85 21 -155 21h-24q-71 0 -71 -15q-22 -53 -22 -232h403v2q0 251 176 331q99 42 252 42h19v-2l-51 -147q-72 21 -124 21h-24q-73 0 -73 -13q-23 -58 -23 -211v-23h550q3 0 3 -3v-688q123 -26 130 -30v-2q-8 -58 -12 -58h-370q-3 0 -3 3
q14 58 18 58q48 11 66 30q18 17 18 76v515h-400v-592q143 -28 143 -30q-10 -60 -14 -60h-383l-3 1q15 62 21 62q53 10 69 31q15 19 15 73v515h-403v-592q144 -27 144 -30q-11 -57 -15 -60h-385v1q12 62 21 62q46 8 64 28q18 19 18 64v529q-169 38 -169 42q13 48 18 55h151v2
q0 250 172 328q102 45 271 45zM1375 1151q61 0 82 -48q8 -21 8 -40v-11q0 -66 -51 -85q-17 -6 -36 -6h-11q-92 0 -92 97q0 93 100 93z" />
    <glyph glyph-name="f_j.liga" unicode="fj" horiz-adv-x="1076" 
d="M822 1152h1q93 0 93 -94v-2q0 -66 -46 -87q-21 -8 -41 -8h-10q-94 0 -94 92v8q0 91 97 91zM751 684h-404v-597q122 -22 145 -30q-12 -57 -15 -60h-388v1q13 62 21 62q47 9 65 29q18 19 18 65v531q-170 38 -170 43q13 48 18 55h152v2q0 184 100 282q99 93 333 93h18
q0 -9 -53 -149h-1q-68 21 -118 21h-29q-73 0 -73 -15q-23 -54 -23 -234h553q3 0 5 -3v-733q0 -80 -12.5 -137t-41 -102.5t-78.5 -83t-124 -78.5l-43 55q43 39 81 82t58 78q2 26 3 44.5t2 34t1 34v46.5v664z" />
    <glyph glyph-name="f_f_j.liga" unicode="ffj" horiz-adv-x="1630" 
d="M1375 1151q61 0 82 -48q8 -21 8 -40v-11q0 -66 -51 -85q-17 -6 -36 -6h-11q-92 0 -92 97q0 93 100 93zM1301 684h-1v1h-400v-592q143 -28 143 -30q-10 -60 -14 -60h-383l-3 1q15 62 21 62q53 10 69 31q15 19 15 73v515h-403v-592q144 -27 144 -30q-11 -57 -15 -60h-385v1
q12 62 21 62q46 8 64 28q18 19 18 64v529q-169 38 -169 42q13 48 18 55h151v2q0 250 172 328q102 45 271 45h26l3 -2l-45 -147h-2q-85 21 -155 21h-24q-71 0 -71 -15q-22 -53 -22 -232h403v2q0 251 176 331q99 42 252 42h19v-2l-51 -147q-72 21 -124 21h-24q-73 0 -73 -13
q-23 -58 -23 -211v-23h550q5 0 5 -4v-733q0 -80 -12.5 -137t-41 -102.5t-78.5 -83t-124 -78.5l-43 55q43 39 81 82t58 78q2 26 3 44.5t2 34t1 34v46.5v664z" />
    <glyph glyph-name="f_k.liga" unicode="fk" horiz-adv-x="1524" 
d="M558 1160h15q103 0 190 -62h1q101 62 106 62h13q3 -1 3 -3v-1070q132 -27 134 -30q-11 -57 -15 -60h-375v1q13 62 21 62q41 8 62 27q20 17 20 78v790q-47 56 -154 83q-27 4 -48 4h-15q-68 0 -142 -33q-24 -54 -24 -215v-11h205l3 -1q-19 -96 -23 -98h-185v-597
q145 -27 145 -30q-12 -57 -15 -60h-388v1q13 62 21 62q47 9 65 29q18 18 18 64v532q-170 38 -170 43q13 48 18 55h152v9q0 260 214 344q73 24 148 24zM1487 20q-56 -30 -121 -30q-23 0 -45.5 5t-46 19.5t-51 41t-60.5 69.5l-229 293l250 293l-103 14l13 59h368l-12 -59
q-45 -2 -78 -10t-62.5 -24.5t-58 -43t-63.5 -65.5l-107 -125l205 -250q33 -41 57.5 -65.5t48 -39t48 -21.5t57.5 -9z" />
    <glyph glyph-name="f_f_k.liga" unicode="ffk" horiz-adv-x="2052" 
d="M1415 1157h17q2 0 2 -3v-1065q128 -26 133 -29v-2q-11 -59 -15 -59h-370q-3 0 -3 3q15 55 18 59q84 12 84 84v808q-88 86 -206 86q-80 0 -149 -34q-24 -54 -24 -200v-21q1 -3 3 -3h201v-2q-17 -97 -20 -97h-184v-593q143 -27 143 -31q-11 -59 -15 -59h-382q-3 0 -3 3
q15 58 18 59q86 12 86 84v537h-401v-593q136 -26 143 -29q-12 -61 -15 -61h-382q-3 0 -3 3q14 57 18 59q52 11 69 31q16 21 16 56v533q0 3 -165 41q0 1 -3 1v2q13 56 18 56h150q0 253 174 330q101 45 267 45h30v-2q0 -7 -45 -147q-83 22 -165 22h-3q-81 -2 -81 -12
q-23 -54 -23 -217v-19h401v1q2 255 188 340q79 34 173 34h18q95 0 184 -61h2zM2027 20q-56 -30 -121 -30q-23 0 -45.5 5t-46 19.5t-51 41t-60.5 69.5l-229 293l250 293l-103 14l13 59h368l-12 -59q-45 -2 -78 -10t-62.5 -24.5t-58 -43t-63.5 -65.5l-107 -125l205 -250
q33 -41 57.5 -65.5t48 -39t48 -21.5t57.5 -9z" />
    <glyph glyph-name="f_f_l.liga" unicode="ffl" horiz-adv-x="1613" 
d="M1415 1157h17q2 0 2 -3v-1065q128 -26 133 -29v-2q-11 -59 -15 -59h-370q-3 0 -3 3q15 55 18 59q84 12 84 84v808q-88 86 -206 86q-80 0 -149 -34q-24 -54 -24 -200v-21q1 -3 3 -3h201v-2q-17 -97 -20 -97h-184v-593q143 -27 143 -31q-11 -59 -15 -59h-382q-3 0 -3 3
q15 58 18 59q86 12 86 84v537h-401v-593q136 -26 143 -29q-12 -61 -15 -61h-382q-3 0 -3 3q14 57 18 59q52 11 69 31q16 21 16 56v533q0 3 -165 41q0 1 -3 1v2q13 56 18 56h150q0 253 174 330q101 45 267 45h30v-2q0 -7 -45 -147q-83 22 -165 22h-3q-81 -2 -81 -12
q-23 -54 -23 -217v-19h401v1q2 255 188 340q79 34 173 34h18q95 0 184 -61h2z" />
    <glyph glyph-name="f_t.liga" unicode="ft" horiz-adv-x="1198" 
d="M750 684h-403v-597q122 -22 145 -30q-12 -57 -15 -60h-388v1q13 62 21 62q47 9 65 29q18 19 18 65v531q-170 38 -170 43q13 48 18 55h152v2q0 184 100 282q99 93 333 93h18q0 -9 -53 -149h-1q-68 21 -118 21h-29q-73 0 -73 -15q-23 -54 -23 -234h403v202l154 27v-228h225
l-27 -98h-198v-438q0 -94 20.5 -123t73.5 -29q31 0 61.5 7.5t65.5 23.5l24 -72q-59 -39 -113.5 -54t-109.5 -15q-37 0 -69.5 9t-56 31.5t-37 62.5t-13.5 101v494z" />
    <glyph glyph-name="f_f_t.liga" unicode="fft" horiz-adv-x="1743" 
d="M1300 685h-400v-592q143 -28 143 -30q-10 -60 -14 -60h-383l-3 1q15 62 21 62q53 10 69 31q15 19 15 73v515h-403v-592q144 -27 144 -30q-11 -57 -15 -60h-385v1q12 62 21 62q46 8 64 28q18 19 18 64v529q-169 38 -169 42q13 48 18 55h151v2q0 250 172 328q102 45 271 45
h26l3 -2l-45 -147h-2q-85 21 -155 21h-24q-71 0 -71 -15q-22 -53 -22 -232h403v2q0 251 176 331q99 42 252 42h19v-2l-51 -147q-72 21 -124 21h-24q-73 0 -73 -13q-23 -58 -23 -211v-23h400v201l154 27v-228h225l-27 -98h-198v-438q0 -94 20.5 -123t73.5 -29q31 0 61.5 7.5
t65.5 23.5l24 -72q-59 -39 -113.5 -54t-109.5 -15q-37 0 -69.5 9t-56 31.5t-37 62.5t-13.5 101v495z" />
    <glyph glyph-name="uni0647.fina" unicode="&#x647;" horiz-adv-x="907" arabic-form="final" 
d="M326 148h5q144 0 304 31q19 3 19 18q8 44 8 74q0 85 -49 126q-10 8 -28 9q-95 0 -217 -179q-23 -36 -42 -79zM684 40q-14 24 -35 49l-8 8l-8 8q-34 -22 -119 -47q-73 -21 -175 -36v-2q55 -62 84 -80q109 -81 205 -81q57 0 72 43q7 22 7 47q0 45 -23 91zM750 452
q13 -50 13 -99v-10q0 -80 -37 -160q35 -20 91 -30q25 -5 36.5 -5.5t55.5 -0.5q21 -1 40 -20q19 -21 19 -59q0 -39 -19.5 -60.5t-41.5 -21.5q-26 -1 -40 3q-48 6 -92 34q15 -54 15 -105q-3 -163 -103 -209q-17 -6 -35 -8q-12 -2 -21 -2h-9q-139 0 -300 203q-37 54 -64 100h-2
q-41 -5 -54 -5h-4q-43 0 -97 75q-21 32 -25 56q6 9 23 9q126 9 145 9q25 66 61 132q42 72 114 157q125 131 211 131h11q29 0 53 -20q33 -28 56 -94z" />
    <glyph glyph-name="uni0672.fina" unicode="&#x672;" horiz-adv-x="444" 
d="M242 1237q6 -72 11 -159t8 -184t4 -202.5t1 -212.5q0 -110 11.5 -176.5t34 -100.5t55 -44.5t77.5 -10.5q23 0 42.5 -20.5t19.5 -58.5q0 -39 -19.5 -60.5t-42.5 -21.5q-90 0 -146 25.5t-81 60.5q-16 22 -28.5 46.5t-19.5 66.5t-11 108.5t-4 173.5q0 174 -7.5 340
t-23.5 315zM300 1498q-23 14 -48 14q-58 0 -78 -49q31 -36 93 -36q49 0 120 40l-20 -78q-83 -36 -159 -80q-47 -27 -64 -27q-9 0 -31 17t-29 17q-14 0 -66 -48l-20 17q67 101 96 101q13 0 32 -15q19 -16 26 -16q11 0 48 25q-64 15 -64 62q0 58 37 97t90 39q42 0 73 -24z" />
    <glyph glyph-name="uni0673.fina" unicode="&#x673;" horiz-adv-x="444" 
d="M242 1237q6 -72 11 -159t8 -184t4 -202.5t1 -212.5q0 -110 11.5 -176.5t34 -100.5t55 -44.5t77.5 -10.5q23 0 42.5 -20.5t19.5 -58.5q0 -39 -19.5 -60.5t-42.5 -21.5q-90 0 -146 25.5t-81 60.5q-16 22 -28.5 46.5t-19.5 66.5t-11 108.5t-4 173.5q0 174 -7.5 340
t-23.5 315zM300 -202q-23 14 -48 14q-58 0 -78 -49q31 -36 93 -36q49 0 120 40l-20 -78q-83 -36 -159 -80q-47 -27 -64 -27q-9 0 -31 17t-29 17q-14 0 -66 -48l-20 17q67 101 96 101q13 0 32 -15q19 -16 26 -16q11 0 48 25q-64 15 -64 62q0 58 37 97t90 39q42 0 73 -24z" />
    <glyph glyph-name="uni0675.fina" unicode="&#x675;" horiz-adv-x="700" 
d="M241 1237q6 -72 11 -159t8 -184t4 -202.5t1 -212.5q0 -110 11.5 -176.5t34 -100.5t55 -44.5t338.5 -10.5q22 0 41.5 -20.5t19.5 -58.5q0 -39 -19.5 -60.5t-41.5 -21.5q-351 0 -407 25.5t-81 60.5q-16 22 -28.5 46.5t-19.5 66.5t-11 108.5t-4 173.5q0 174 -7.5 340
t-23.5 315zM539 1528q-31 18 -64 18q-28 0 -59 -17.5t-43 -47.5q19 -23 53.5 -35t69.5 -12q37 0 76 14t82 39l-27 -103q-35 -10 -74 -24t-77.5 -31.5t-75.5 -38t-68 -41.5q-4 17 -4 25q0 37 28.5 61.5t57.5 32.5q-90 23 -90 86q0 78 48 128t118 50q55 0 96 -30z" />
    <glyph glyph-name="uni0676.fina" unicode="&#x676;" horiz-adv-x="889" 
d="M10 -356q127 34 219 77t154.5 88.5t98.5 90.5t48 86q-88 2 -152.5 23.5t-107.5 55t-63.5 76.5t-20.5 90q0 48 17.5 97t47 89t66.5 64.5t74 24.5q43 0 84 -26.5t74.5 -75t57.5 -114t30 -143.5h256q23 0 42.5 -20.5t19.5 -58.5q0 -39 -19.5 -60.5t-42.5 -21.5h-269
q-24 -123 -105 -233.5t-218 -182.5l-262 33zM256 238q18 -39 74.5 -65t130.5 -26h86q-15 89 -61 147t-105 58q-43 0 -79 -32.5t-46 -81.5zM714 879q-31 18 -63 18q-29 0 -59.5 -17.5t-43.5 -48.5q19 -22 53.5 -34.5t69.5 -12.5q37 0 76 14.5t82 39.5l-27 -103
q-35 -10 -73.5 -24.5t-77.5 -31.5t-76 -37.5t-68 -41.5q-4 16 -4 25q0 37 29 61.5t57 32.5q-90 22 -90 86q0 78 48 128t118 50q55 0 96 -31z" />
    <glyph glyph-name="uni0677.fina" unicode="&#x677;" horiz-adv-x="889" 
d="M10 -356q127 34 219 77t154.5 88.5t98.5 90.5t48 86q-88 2 -152.5 23.5t-107.5 55t-63.5 76.5t-20.5 90q0 48 17.5 97t47 89t66.5 64.5t74 24.5q43 0 84 -26.5t74.5 -75t57.5 -114t30 -143.5h256q23 0 42.5 -20.5t19.5 -58.5q0 -39 -19.5 -60.5t-42.5 -21.5h-269
q-24 -123 -105 -233.5t-218 -182.5l-262 33zM256 238q18 -39 74.5 -65t130.5 -26h86q-15 89 -61 147t-105 58q-43 0 -79 -32.5t-46 -81.5zM714 879q-31 18 -63 18q-29 0 -59.5 -17.5t-43.5 -48.5q19 -22 53.5 -34.5t69.5 -12.5q37 0 76 14.5t82 39.5l-27 -103
q-35 -10 -73.5 -24.5t-77.5 -31.5t-76 -37.5t-68 -41.5q-4 16 -4 25q0 37 29 61.5t57 32.5q-90 22 -90 86q0 78 48 128t118 50q55 0 96 -31zM66 638q133 41 200 82q-73 68 -73 152q0 47 26.5 79.5t63.5 32.5q31 0 55.5 -12t43 -30.5t28.5 -42t10 -48.5q0 -26 -5 -48.5
t-26 -51.5q17 -4 34.5 -4h39.5l-37 -74q-35 0 -52 2t-40 10q-39 -32 -89 -58t-93 -26q-23 0 -41 13zM383 839q-14 25 -40.5 40t-51.5 15q-41 0 -41 -39q0 -28 24.5 -53.5t55.5 -36.5q37 31 53 74z" />
    <glyph glyph-name="uni0678.init" unicode="&#x678;" horiz-adv-x="701" 
d="M283 678q45 -66 69.5 -151t24.5 -169q0 -55 -19.5 -120.5t-62.5 -126.5q-41 -64 -120.5 -94.5t-174.5 -30.5q-22 0 -38.5 17t-16.5 63q0 36 14.5 58.5t40.5 22.5q90 0 158 16.5t123 49.5q-12 90 -41 167t-64 122zM517 1001q-30 19 -63 19q-29 0 -59.5 -17.5t-43.5 -48.5
q19 -22 53.5 -34.5t69.5 -12.5q37 0 76 14.5t82 39.5l-27 -103q-34 -10 -73 -24.5t-78 -32t-76 -38t-68 -40.5q-4 16 -4 25q0 36 29 61t57 33q-90 22 -90 86q0 78 48 128t118 50q55 0 96 -31z" />
    <glyph glyph-name="uni0678.medi" unicode="&#x678;" horiz-adv-x="762" 
d="M301 446q35 -157 114 -228t350 -71q22 0 41.5 -20.5t19.5 -58.5q0 -39 -19.5 -60.5t-41.5 -21.5q-269 0 -350 48t-128 150q-45 -94 -115.5 -146t-171.5 -52q-22 0 -38.5 20.5t-16.5 61.5q0 38 15.5 58.5t39.5 20.5q78 0 141.5 30t110.5 104l-12 90zM513 838
q-31 18 -64 18q-29 0 -59.5 -17.5t-42.5 -47.5q18 -23 53 -35.5t70 -12.5q36 0 75 14.5t82 39.5l-26 -103q-35 -10 -74 -24.5t-78 -31.5t-76 -37.5t-67 -41.5q-4 16 -4 25q0 37 28.5 61.5t57.5 32.5q-90 22 -90 86q0 78 48 128t117 50q56 0 97 -31z" />
    <glyph glyph-name="uni0678.fina" unicode="&#x678;" horiz-adv-x="1374" 
d="M215 205q-16 -41 -25.5 -82t-9.5 -100q0 -136 92 -211.5t281 -75.5q145 0 266 24.5t189 65.5q-52 45 -125.5 90t-139.5 70q11 34 26 68t26 55q20 8 46.5 15t64.5 12t91.5 8t376.5 3q23 0 42.5 -20.5t19.5 -58.5q0 -39 -19.5 -60.5t-42.5 -21.5h-381q45 -25 68.5 -62
t23.5 -61q0 -43 -26.5 -92.5t-65.5 -77.5q-65 -55 -195 -91t-307 -36q-198 0 -300.5 96t-102.5 272q0 91 27.5 158.5t60.5 87.5zM1189 600q-30 18 -63 18q-29 0 -59.5 -17t-42.5 -48q18 -23 53 -35t69 -12q37 0 76 14.5t82 38.5l-27 -102q-34 -11 -73 -25t-78 -31.5t-76 -38
t-67 -40.5q-5 16 -5 24q0 37 29 61.5t57 32.5q-90 23 -90 86q0 78 48.5 128.5t117.5 50.5q56 0 97 -31z" />
    <glyph glyph-name="uni067C.init" unicode="&#x67c;" horiz-adv-x="471" 
d="M355 815q-29 12 -63 37t-58 51l-70 -102q-33 14 -73 41.5t-64 62.5l94 125q21 -26 51.5 -55t59.5 -45l80 114q26 -30 67 -60t70 -44zM127 1h-3q-37 -30 -53 -60q-16 -31 -16 -64q0 -32 23 -48.5t52 -16.5q34 0 61 11.5t42 32.5q-11 43 -39 83q-28 39 -67 62zM49 -12
q-24 -2 -49 -2q-22 0 -38.5 17t-16.5 63q0 36 14.5 58.5t40.5 22.5q90 0 158 16.5t123 49.5q-12 90 -41 167t-64 122l107 176q45 -66 69.5 -151t24.5 -169q0 -55 -19.5 -120.5t-62.5 -126.5q-30 -47 -82 -77l18 -22q21 -30 33.5 -63.5t12.5 -63.5q0 -34 -11 -62.5t-30.5 -49
t-47 -31.5t-59.5 -11q-58 0 -92.5 36t-34.5 92q0 47 27 98q9 16 20 31z" />
    <glyph glyph-name="uni067C.medi" unicode="&#x67c;" horiz-adv-x="624" 
d="M377 608q-29 13 -62.5 37.5t-58.5 50.5l-69 -102q-33 14 -73 42t-65 62l95 125q20 -26 51 -55t59 -45l80 115q27 -31 68 -60.5t69 -44.5zM127 12q-2 -1 -3 -2q-37 -29 -53 -59q-16 -31 -16 -64q0 -32 23 -48.5t52 -16.5q34 0 61 11.5t42 32.5q-11 43 -39 83t-67 63z
M42 -12q-20 -2 -42 -2t-38.5 20.5t-16.5 61.5q0 38 15.5 58.5t39.5 20.5q78 0 141.5 30t110.5 104l-12 90l61 75q35 -157 114 -228t210 -71q22 0 41.5 -20.5t19.5 -58.5q0 -39 -19.5 -60.5t-41.5 -21.5q-129 0 -210 48t-128 150q-36 -75 -89 -124q18 -18 33 -38
q21 -30 33.5 -63.5t12.5 -63.5q0 -34 -11 -62.5t-30.5 -49t-47 -31.5t-59.5 -11q-58 0 -92.5 36t-34.5 92q0 47 27 98q6 11 13 21z" />
    <glyph glyph-name="uni067C.fina" unicode="&#x67c;" horiz-adv-x="1646" 
d="M847 608q-29 13 -62.5 37.5t-58.5 50.5l-69 -102q-33 14 -73 42t-65 62l95 125q20 -26 51 -55t59 -45l80 115q27 -31 68 -60.5t69 -44.5zM770 -32q-39 -30 -55 -61t-16 -64q0 -32 23 -48.5t52 -16.5q34 0 61 11.5t42 32.5q-11 43 -39 83t-68 63zM702 -35q-45 -2 -92 -2
q-154 0 -256.5 22.5t-165 66.5t-88 109.5t-25.5 151.5q0 78 18.5 140.5t40.5 76.5l39 25q-4 -23 -8 -52.5t-4 -45.5q0 -90 29.5 -151.5t94 -99.5t167 -55.5t250.5 -17.5q266 0 459.5 65.5t326.5 188.5l49 -8l-71 -105q28 -127 180 -127q22 0 41.5 -20.5t19.5 -58.5
q0 -39 -19.5 -60.5t-41.5 -21.5q-113 0 -174.5 52t-61.5 183q-131 -117 -334 -187q-96 -34 -205 -51q2 -3 4 -5q21 -30 33.5 -63.5t12.5 -63.5q0 -34 -11 -62.5t-30.5 -49t-47 -31.5t-59.5 -11q-58 0 -92.5 36t-34.5 92q0 47 27 98q12 22 29 42z" />
    <glyph glyph-name="uni067D.init" unicode="&#x67d;" horiz-adv-x="471" 
d="M283 678q45 -66 69.5 -151t24.5 -169q0 -55 -19.5 -120.5t-62.5 -126.5q-41 -64 -120.5 -94.5t-174.5 -30.5q-22 0 -38.5 17t-16.5 63q0 36 14.5 58.5t40.5 22.5q90 0 158 16.5t123 49.5q-12 90 -41 167t-64 122zM267 807q-36 14 -73 40.5t-60 55.5l86 119
q25 -31 63 -55.5t79 -38.5zM325 1024q-29 12 -63 36.5t-58 51.5l-70 -102q-33 14 -72.5 41.5t-64.5 62.5l94 125q21 -27 51.5 -55.5t59.5 -44.5l80 114q26 -30 67 -60t70 -44z" />
    <glyph glyph-name="uni067D.medi" unicode="&#x67d;" horiz-adv-x="624" 
d="M301 446q35 -157 114 -228t210 -71q22 0 41.5 -20.5t19.5 -58.5q0 -39 -19.5 -60.5t-41.5 -21.5q-129 0 -210 48t-128 150q-45 -94 -115.5 -146t-171.5 -52q-22 0 -38.5 20.5t-16.5 61.5q0 38 15.5 58.5t39.5 20.5q78 0 141.5 30t110.5 104l-12 90zM313 597
q-36 14 -73 40.5t-60 55.5l86 119q25 -31 63 -55.5t79 -38.5zM371 814q-29 12 -63 36.5t-58 51.5l-70 -102q-33 14 -72.5 41.5t-64.5 62.5l94 125q21 -27 51.5 -55.5t59.5 -44.5l80 114q26 -30 67 -60t70 -44z" />
    <glyph glyph-name="uni067D.fina" unicode="&#x67d;" horiz-adv-x="1646" 
d="M173 555q-4 -23 -8 -52.5t-4 -45.5q0 -90 29.5 -151.5t94 -99.5t167 -55.5t250.5 -17.5q266 0 459.5 65.5t326.5 188.5l49 -8l-71 -105q28 -127 180 -127q22 0 41.5 -20.5t19.5 -58.5q0 -39 -19.5 -60.5t-41.5 -21.5q-113 0 -174.5 52t-61.5 183q-131 -117 -334.5 -187.5
t-465.5 -70.5q-154 0 -256.5 22.5t-165 66.5t-88 109.5t-25.5 151.5q0 78 18.5 140.5t40.5 76.5zM806 599q-36 14 -73 40.5t-60 55.5l86 119q25 -31 63 -55.5t79 -38.5zM864 816q-29 12 -63 36.5t-58 51.5l-70 -102q-33 14 -72.5 41.5t-64.5 62.5l94 125q21 -27 51.5 -55.5
t59.5 -44.5l80 114q26 -30 67 -60t70 -44z" />
    <glyph glyph-name="uni0681.init" unicode="&#x681;" horiz-adv-x="1034" 
d="M0 -14q-22 0 -38.5 18.5t-16.5 61.5q0 36 14.5 58.5t40.5 22.5q193 0 369 46.5t309 132.5q-41 24 -90 47.5t-100 45t-99.5 39t-85.5 27.5q-51 -10 -109.5 -32.5t-109.5 -51.5q-10 17 -10 35q0 23 16.5 50.5t63.5 68.5q49 45 94 64.5t88 19.5q21 0 43.5 -5t53 -19.5
t72.5 -37t102 -57.5q69 -41 117 -64.5t89 -36.5t83 -17.5t98 -4.5l-54 -151q-59 0 -107 -4t-99.5 -16.5t-109.5 -36t-140 -64.5q-84 -43 -150.5 -70.5t-123 -43t-108 -20.5t-102.5 -5zM508 1081q-31 19 -64 19q-29 0 -59.5 -17.5t-42.5 -48.5q18 -22 53 -34.5t70 -12.5
q36 0 75 14.5t82 39.5l-26 -103q-35 -10 -74 -24.5t-78 -32t-76 -38t-67 -40.5q-4 16 -4 25q0 36 28.5 61t57.5 33q-90 22 -90 86q0 78 48 128t117 50q56 0 97 -31z" />
    <glyph glyph-name="uni0681.medi" unicode="&#x681;" horiz-adv-x="1130" 
d="M97 383q-7 8 -10 18.5t-3 20.5q0 22 15.5 54t48.5 71q41 49 90 73.5t84 24.5q43 0 101.5 -19.5t156.5 -66.5q55 -24 100 -40.5t94.5 -26t106.5 -15.5t143 -6l-51 -143q-86 0 -124 -4.5t-66 -16.5q-2 -4 -2 -10v-10q0 -43 24.5 -70t65.5 -42t114.5 -21.5t145.5 -6.5
q22 0 41.5 -20.5t19.5 -58.5q0 -39 -19.5 -60.5t-41.5 -21.5q-221 0 -318.5 62.5t-97.5 166.5q0 33 10 74q-16 -8 -36.5 -19.5t-49 -30t-67.5 -45t-92 -63.5q-60 -41 -114 -68.5t-108.5 -44t-112 -24.5t-145.5 -8q-22 0 -38.5 20.5t-16.5 59.5q0 81 55 81q117 0 198 12.5
t156.5 39t151.5 70.5t164 106q-88 47 -184.5 76.5t-180.5 37.5q-49 -14 -105 -43.5t-103 -62.5zM518 1071q-31 19 -64 19q-29 0 -59.5 -17.5t-42.5 -48.5q18 -22 53 -34.5t70 -12.5q36 0 75 14.5t82 39.5l-26 -103q-35 -10 -74 -24.5t-78 -32t-76 -38t-67 -40.5q-4 16 -4 25
q0 36 28.5 61t57.5 33q-90 22 -90 86q0 78 48 128t117 50q56 0 97 -31z" />
    <glyph glyph-name="uni0681.fina" unicode="&#x681;" horiz-adv-x="1056" 
d="M91 393q-14 19 -14 37q0 49 63 125q43 51 92.5 75.5t83.5 24.5q43 0 101.5 -19.5t157.5 -66.5q55 -24 100 -40.5t94 -25.5t106.5 -13.5t135.5 -4.5l-51 -143q-58 0 -114 -6t-87 -12q-10 -103 66.5 -140t230.5 -37q22 0 41.5 -20.5t19.5 -58.5q0 -39 -19.5 -60.5
t-41.5 -21.5q-197 0 -280 66.5t-83 172.5q0 23 4.5 47.5t10.5 40.5q-88 -22 -186.5 -68t-180.5 -114t-136 -157t-54 -195q0 -156 129 -245t362 -89q129 0 240.5 15.5t189.5 43.5l-8 -43q-4 -18 -46 -48.5t-112.5 -61.5t-164 -53.5t-197.5 -22.5q-117 0 -210 26.5t-158.5 81
t-100.5 133t-35 183.5q0 131 44 238.5t121 193.5t180.5 152.5t221.5 119.5q-73 43 -151 66t-156 31q-49 -15 -105.5 -44.5t-103.5 -62.5zM516 1081q-30 19 -63 19q-29 0 -59.5 -17.5t-43.5 -48.5q19 -22 53.5 -34.5t69.5 -12.5q37 0 76 14.5t82 39.5l-27 -103
q-34 -10 -73 -24.5t-78 -32t-76 -38t-68 -40.5q-4 16 -4 25q0 36 29 61t57 33q-90 22 -90 86q0 78 48.5 128t117.5 50q55 0 96 -31z" />
    <glyph glyph-name="uni0682.init" unicode="&#x682;" horiz-adv-x="1034" 
d="M0 -14q-22 0 -38.5 18.5t-16.5 61.5q0 36 14.5 58.5t40.5 22.5q193 0 369 46.5t309 132.5q-41 24 -90 47.5t-100 45t-99.5 39t-85.5 27.5q-51 -10 -109.5 -32.5t-109.5 -51.5q-10 17 -10 35q0 23 16.5 50.5t63.5 68.5q49 45 94 64.5t88 19.5q21 0 43.5 -5t53 -19.5
t72.5 -37t102 -57.5q69 -41 117 -64.5t89 -36.5t83 -17.5t98 -4.5l-54 -151q-59 0 -107 -4t-99.5 -16.5t-109.5 -36t-140 -64.5q-84 -43 -150.5 -70.5t-123 -43t-108 -20.5t-102.5 -5zM271 1027q-26 13 -55 36q-40 31 -64 65l100 123q25 -32 66 -63t69 -47l-98 -123h-1
q22 -24 54 -48q41 -31 69 -47l-98 -123q-33 14 -73 45t-64 65z" />
    <glyph glyph-name="uni0682.medi" unicode="&#x682;" horiz-adv-x="1130" 
d="M97 383q-7 8 -10 18.5t-3 20.5q0 22 15.5 54t48.5 71q41 49 90 73.5t84 24.5q43 0 101.5 -19.5t156.5 -66.5q55 -24 100 -40.5t94.5 -26t106.5 -15.5t143 -6l-51 -143q-86 0 -124 -4.5t-66 -16.5q-2 -4 -2 -10v-10q0 -43 24.5 -70t65.5 -42t114.5 -21.5t145.5 -6.5
q22 0 41.5 -20.5t19.5 -58.5q0 -39 -19.5 -60.5t-41.5 -21.5q-221 0 -318.5 62.5t-97.5 166.5q0 33 10 74q-16 -8 -36.5 -19.5t-49 -30t-67.5 -45t-92 -63.5q-60 -41 -114 -68.5t-108.5 -44t-112 -24.5t-145.5 -8q-22 0 -38.5 20.5t-16.5 59.5q0 81 55 81q117 0 198 12.5
t156.5 39t151.5 70.5t164 106q-88 47 -184.5 76.5t-180.5 37.5q-49 -14 -105 -43.5t-103 -62.5zM297 1035q-26 13 -55 36q-40 31 -64 65l100 123q25 -32 66 -63t69 -47l-98 -123h-1q22 -24 54 -48q41 -31 69 -47l-98 -123q-33 14 -73 45t-64 65z" />
    <glyph glyph-name="uni0682.fina" unicode="&#x682;" horiz-adv-x="1056" 
d="M91 393q-14 19 -14 37q0 49 63 125q43 51 92.5 75.5t83.5 24.5q43 0 101.5 -19.5t157.5 -66.5q55 -24 100 -40.5t94 -25.5t106.5 -13.5t135.5 -4.5l-51 -143q-58 0 -114 -6t-87 -12q-10 -103 66.5 -140t230.5 -37q22 0 41.5 -20.5t19.5 -58.5q0 -39 -19.5 -60.5
t-41.5 -21.5q-197 0 -280 66.5t-83 172.5q0 23 4.5 47.5t10.5 40.5q-88 -22 -186.5 -68t-180.5 -114t-136 -157t-54 -195q0 -156 129 -245t362 -89q129 0 240.5 15.5t189.5 43.5l-8 -43q-4 -18 -46 -48.5t-112.5 -61.5t-164 -53.5t-197.5 -22.5q-117 0 -210 26.5t-158.5 81
t-100.5 133t-35 183.5q0 131 44 238.5t121 193.5t180.5 152.5t221.5 119.5q-73 43 -151 66t-156 31q-49 -15 -105.5 -44.5t-103.5 -62.5zM286 1026q-26 13 -55 36q-40 31 -64 65l100 123q25 -32 66 -63t69 -47l-98 -123h-1q22 -24 54 -48q41 -31 69 -47l-98 -123
q-33 14 -73 45t-64 65z" />
    <glyph glyph-name="uni0685.init" unicode="&#x685;" horiz-adv-x="1034" 
d="M0 -14q-22 0 -38.5 18.5t-16.5 61.5q0 36 14.5 58.5t40.5 22.5q193 0 369 46.5t309 132.5q-41 24 -90 47.5t-100 45t-99.5 39t-85.5 27.5q-51 -10 -109.5 -32.5t-109.5 -51.5q-10 17 -10 35q0 23 16.5 50.5t63.5 68.5q49 45 94 64.5t88 19.5q21 0 43.5 -5t53 -19.5
t72.5 -37t102 -57.5q69 -41 117 -64.5t89 -36.5t83 -17.5t98 -4.5l-54 -151q-59 0 -107 -4t-99.5 -16.5t-109.5 -36t-140 -64.5q-84 -43 -150.5 -70.5t-123 -43t-108 -20.5t-102.5 -5zM380 1030q-12 4 -32.5 17t-40 30.5t-35 34t-21.5 26.5l98 121q19 -29 57 -63.5t68 -51.5
zM509 819q-29 12 -62.5 36.5t-58.5 51.5l-69 -103q-33 15 -73 42.5t-65 62.5l95 125q20 -27 51 -55.5t59 -45.5l80 115q27 -31 68 -60.5t69 -43.5z" />
    <glyph glyph-name="uni0685.medi" unicode="&#x685;" horiz-adv-x="1130" 
d="M97 383q-7 8 -10 18.5t-3 20.5q0 22 15.5 54t48.5 71q41 49 90 73.5t84 24.5q43 0 101.5 -19.5t156.5 -66.5q55 -24 100 -40.5t94.5 -26t106.5 -15.5t143 -6l-51 -143q-86 0 -124 -4.5t-66 -16.5q-2 -4 -2 -10v-10q0 -43 24.5 -70t65.5 -42t114.5 -21.5t145.5 -6.5
q22 0 41.5 -20.5t19.5 -58.5q0 -39 -19.5 -60.5t-41.5 -21.5q-221 0 -318.5 62.5t-97.5 166.5q0 33 10 74q-16 -8 -36.5 -19.5t-49 -30t-67.5 -45t-92 -63.5q-60 -41 -114 -68.5t-108.5 -44t-112 -24.5t-145.5 -8q-22 0 -38.5 20.5t-16.5 59.5q0 81 55 81q117 0 198 12.5
t156.5 39t151.5 70.5t164 106q-88 47 -184.5 76.5t-180.5 37.5q-49 -14 -105 -43.5t-103 -62.5zM398 1030q-12 4 -32.5 17t-40 30.5t-35 34t-21.5 26.5l98 121q19 -29 57 -63.5t68 -51.5zM527 819q-29 12 -62.5 36.5t-58.5 51.5l-69 -103q-33 15 -73 42.5t-65 62.5l95 125
q20 -27 51 -55.5t59 -45.5l80 115q27 -31 68 -60.5t69 -43.5z" />
    <glyph glyph-name="uni0685.fina" unicode="&#x685;" horiz-adv-x="1056" 
d="M91 393q-14 19 -14 37q0 49 63 125q43 51 92.5 75.5t83.5 24.5q43 0 101.5 -19.5t157.5 -66.5q55 -24 100 -40.5t94 -25.5t106.5 -13.5t135.5 -4.5l-51 -143q-58 0 -114 -6t-87 -12q-10 -103 66.5 -140t230.5 -37q22 0 41.5 -20.5t19.5 -58.5q0 -39 -19.5 -60.5
t-41.5 -21.5q-197 0 -280 66.5t-83 172.5q0 23 4.5 47.5t10.5 40.5q-88 -22 -186.5 -68t-180.5 -114t-136 -157t-54 -195q0 -156 129 -245t362 -89q129 0 240.5 15.5t189.5 43.5l-8 -43q-4 -18 -46 -48.5t-112.5 -61.5t-164 -53.5t-197.5 -22.5q-117 0 -210 26.5t-158.5 81
t-100.5 133t-35 183.5q0 131 44 238.5t121 193.5t180.5 152.5t221.5 119.5q-73 43 -151 66t-156 31q-49 -15 -105.5 -44.5t-103.5 -62.5zM391 1029q-12 4 -32.5 17t-40 30.5t-35 34t-21.5 26.5l98 121q19 -29 57 -63.5t68 -51.5zM520 818q-29 12 -62.5 36.5t-58.5 51.5
l-69 -103q-33 15 -73 42.5t-65 62.5l95 125q20 -27 51 -55.5t59 -45.5l80 115q27 -31 68 -60.5t69 -43.5z" />
    <glyph glyph-name="uni0689.fina" unicode="&#x689;" horiz-adv-x="985" 
d="M437 -9l-20 -2q-31 -26 -45 -53q-16 -31 -16 -64q0 -32 23 -48.5t52 -16.5q34 0 61 11.5t42 32.5q-11 43 -39 83q-24 35 -58 57zM352 -14q-97 0 -157 58q-62 58 -62 155q0 57 15.5 94t33.5 49l33 23q-6 -21 -8 -40.5t-2 -48.5q0 -59 43 -94t129 -35t147.5 25t102.5 68
q-19 67 -46.5 189t-56.5 314l127 109q41 -371 90 -541q15 -47 33.5 -77.5t47 -50t68.5 -28t95 -8.5q23 0 42.5 -20.5t19.5 -58.5q0 -39 -19.5 -60.5t-42.5 -21.5q-78 0 -134 12t-97 37.5t-68 64.5t-43 95l-53 -148q-29 -20 -63 -34q3 -3 5 -6q21 -30 33.5 -63.5t12.5 -63.5
q0 -34 -11 -62.5t-30.5 -49t-47 -31.5t-59.5 -11q-58 0 -92.5 36t-34.5 92q0 47 27 98q10 17 22 34z" />
    <glyph glyph-name="uni068A.fina" unicode="&#x68a;" horiz-adv-x="985" 
d="M215 365q-6 -21 -8 -40.5t-2 -48.5q0 -59 43 -94t129 -35t147.5 25t102.5 68q-19 67 -46.5 189t-56.5 314l127 109q41 -371 90 -541q15 -47 33 -77.5t47 -50t69 -28t95 -8.5q22 0 41.5 -20.5t19.5 -58.5q0 -39 -19.5 -60.5t-41.5 -21.5q-78 0 -134 12t-97 37.5t-68 64.5
t-43 95l-53 -148q-45 -31 -100.5 -46t-135.5 -15q-98 0 -159.5 58t-61.5 155q0 57 15.5 94t33.5 49l33 23v0zM466 -389q-33 14 -73 45t-64 65l100 123q25 -32 65.5 -63t69.5 -47z" />
    <glyph glyph-name="uni068B.fina" unicode="&#x68b;" horiz-adv-x="985" 
d="M489 1376q22 -54 53 -68h2v-6q-5 0 -47 -23q3 -24 3 -72v-28q0 -47 -9 -102v-2h2q42 105 117 141q23 7 35 7h9q57 0 92 -81q5 -20 5 -33v-9q0 -95 -114 -128q-28 -5 -47 -5h-16q-122 0 -205 45q-22 38 -22 45q58 -7 103 -15q0 176 -35 291q0 2 74 43zM504 1039h3
q139 0 199 36q-10 39 -33 56q-24 12 -39 12q-56 0 -121 -90zM215 365q-6 -21 -8 -40.5t-2 -48.5q0 -59 43 -94t129 -35t147.5 25t102.5 68q-19 67 -46.5 189t-56.5 314l127 109q41 -371 90 -541q15 -47 33 -77.5t47 -50t69 -28t95 -8.5q22 0 41.5 -20.5t19.5 -58.5
q0 -39 -19.5 -60.5t-41.5 -21.5q-78 0 -134 12t-97 37.5t-68 64.5t-43 95l-53 -148q-45 -31 -100.5 -46t-135.5 -15q-98 0 -159.5 58t-61.5 155q0 57 15.5 94t33.5 49l33 23v0zM465 -389q-33 14 -73 45t-64 65l100 123q25 -32 66 -63t69 -47z" />
    <glyph glyph-name="uni068F.fina" unicode="&#x68f;" horiz-adv-x="985" 
d="M215 365q-6 -21 -8 -40.5t-2 -48.5q0 -59 43 -94t129 -35t147.5 25t102.5 68q-19 67 -46.5 189t-56.5 314l127 109q41 -371 90 -541q15 -47 33 -77.5t47 -50t69 -28t95 -8.5q22 0 41.5 -20.5t19.5 -58.5q0 -39 -19.5 -60.5t-41.5 -21.5q-78 0 -134 12t-97 37.5t-68 64.5
t-43 95l-53 -148q-45 -31 -100.5 -46t-135.5 -15q-98 0 -159.5 58t-61.5 155q0 57 15.5 94t33.5 49l33 23v0zM567 946q-37 14 -74 40.5t-60 55.5l86 119q25 -31 63 -55.5t79 -38.5zM624 1163q-29 12 -62.5 36.5t-58.5 51.5l-70 -102q-32 14 -72 41.5t-65 62.5l94 125
q21 -27 51.5 -55.5t59.5 -44.5l80 114q26 -30 67 -60t70 -44z" />
    <glyph glyph-name="uni0690.fina" unicode="&#x690;" horiz-adv-x="985" 
d="M215 365q-6 -21 -8 -40.5t-2 -48.5q0 -59 43 -94t129 -35t147.5 25t102.5 68q-19 67 -46.5 189t-56.5 314l127 109q41 -371 90 -541q15 -47 33 -77.5t47 -50t69 -28t95 -8.5q22 0 41.5 -20.5t19.5 -58.5q0 -39 -19.5 -60.5t-41.5 -21.5q-78 0 -134 12t-97 37.5t-68 64.5
t-43 95l-53 -148q-45 -31 -100.5 -46t-135.5 -15q-98 0 -159.5 58t-61.5 155q0 57 15.5 94t33.5 49l33 23v0zM641 1182q23 -23 55 -46q41 -30 69 -45l-94 -125q-28 13 -62 37.5t-59 50.5l-69 -102q-33 14 -73 42t-64 62l88 117q-27 13 -57 34q-40 28 -64 62l94 125
q20 -26 51 -55t59 -45l80 115q27 -31 68 -60.5t69 -44.5zM622 1187q-22 12 -46 30q-34 24 -59 50l-68 -100q17 -20 40 -41q31 -29 59 -45z" />
    <glyph glyph-name="uni0692.fina" unicode="&#x692;" horiz-adv-x="804" 
d="M553 330q41 -51 72.5 -86t61.5 -56.5t57.5 -31t60.5 -9.5q22 0 41.5 -20.5t19.5 -58.5q0 -39 -19.5 -60.5t-41.5 -21.5q-41 0 -75 10t-66 33l-3 -2q15 -35 15 -86q0 -43 -17.5 -98.5t-54.5 -113t-93 -112.5t-134 -96l-262 33l-29 40q221 62 349 159t169 194
q-4 47 -32.5 108.5t-92.5 132.5zM753 750q-136 -136 -189 -244l-28 -16q-77 137 -203 260l47 125q117 -141 156 -276h8q36 149 151 284z" />
    <glyph glyph-name="uni0693.fina" unicode="&#x693;" horiz-adv-x="804" 
d="M481 -410q-3 -3 -7 -6q-30 -26 -44 -52q-16 -31 -16 -64q0 -32 23 -48.5t52 -16.5q34 0 61 11.5t42 32.5q-11 43 -39 83t-68 63q-2 -1 -4 -3zM376 -479l-261 33l-29 40q221 62 349 159t169 194q-4 47 -32.5 108.5t-92.5 132.5l74 142q41 -51 72.5 -86t61.5 -56.5
t57.5 -31t60.5 -9.5q22 0 41.5 -20.5t19.5 -58.5q0 -39 -19.5 -60.5t-41.5 -21.5q-41 0 -75 10t-66 33l-2 -2q14 -35 14 -86q0 -43 -17.5 -98.5t-54.5 -112.5q-25 -39 -59 -77q25 -23 45 -50q21 -30 33.5 -63.5t12.5 -63.5q0 -34 -11 -62.5t-30.5 -49t-47 -31.5t-59.5 -11
q-58 0 -92.5 36t-34.5 92q0 35 15 71z" />
    <glyph glyph-name="uni0694.fina" unicode="&#x694;" horiz-adv-x="804" 
d="M553 330q41 -51 72.5 -86t61.5 -56.5t57.5 -31t60.5 -9.5q22 0 41.5 -20.5t19.5 -58.5q0 -39 -19.5 -60.5t-41.5 -21.5q-41 0 -75 10t-66 33l-3 -2q15 -35 15 -86q0 -43 -17.5 -98.5t-54.5 -113t-93 -112.5t-134 -96l-262 33l-29 40q221 62 349 159t169 194
q-4 47 -32.5 108.5t-92.5 132.5zM577 -773q-13 4 -33.5 17.5t-39.5 31t-34.5 34t-21.5 26.5l98 121q18 -29 56 -64t69 -51z" />
    <glyph glyph-name="uni0695.fina" unicode="&#x695;" horiz-adv-x="804" 
d="M553 330q41 -51 72.5 -86t61.5 -56.5t57.5 -31t60.5 -9.5q22 0 41.5 -20.5t19.5 -58.5q0 -39 -19.5 -60.5t-41.5 -21.5q-41 0 -75 10t-66 33l-3 -2q15 -35 15 -86q0 -43 -17.5 -98.5t-54.5 -113t-93 -112.5t-134 -96l-262 33l-29 40q221 62 349 159t169 194
q-4 47 -32.5 108.5t-92.5 132.5zM612 -729q-136 -136 -189 -244l-28 -16q-77 137 -203 260l47 125q117 -141 156 -276h8q36 149 151 284z" />
    <glyph glyph-name="uni0696.fina" unicode="&#x696;" horiz-adv-x="804" 
d="M553 330q41 -51 72.5 -86t61.5 -56.5t57.5 -31t60.5 -9.5q22 0 41.5 -20.5t19.5 -58.5q0 -39 -19.5 -60.5t-41.5 -21.5q-41 0 -75 10t-66 33l-3 -2q15 -35 15 -86q0 -43 -17.5 -98.5t-54.5 -113t-93 -112.5t-134 -96l-262 33l-29 40q221 62 349 159t169 194
q-4 47 -32.5 108.5t-92.5 132.5zM577 -773q-13 4 -33.5 17.5t-39.5 31t-34.5 34t-21.5 26.5l98 121q18 -29 56 -64t69 -51zM357 -144q-13 4 -33.5 17.5t-39.5 31t-34.5 34t-21.5 26.5l98 121q18 -29 56 -64t69 -51z" />
    <glyph glyph-name="uni0697.fina" unicode="&#x697;" horiz-adv-x="804" 
d="M553 330q41 -51 72.5 -86t61.5 -56.5t57.5 -31t60.5 -9.5q22 0 41.5 -20.5t19.5 -58.5q0 -39 -19.5 -60.5t-41.5 -21.5q-41 0 -75 10t-66 33l-3 -2q15 -35 15 -86q0 -43 -17.5 -98.5t-54.5 -113t-93 -112.5t-134 -96l-262 33l-29 40q221 62 349 159t169 194
q-4 47 -32.5 108.5t-92.5 132.5zM649 502q-28 12 -62 36.5t-59 51.5l-69 -103q-33 15 -73 42.5t-64 62.5l94 125q20 -27 51 -55.5t59 -45.5l80 115q27 -31 68 -60.5t69 -43.5z" />
    <glyph glyph-name="uni0699.fina" unicode="&#x699;" horiz-adv-x="804" 
d="M553 330q41 -51 72.5 -86t61.5 -56.5t57.5 -31t60.5 -9.5q22 0 41.5 -20.5t19.5 -58.5q0 -39 -19.5 -60.5t-41.5 -21.5q-41 0 -75 10t-66 33l-3 -2q15 -35 15 -86q0 -43 -17.5 -98.5t-54.5 -113t-93 -112.5t-134 -96l-262 33l-29 40q221 62 349 159t169 194
q-4 47 -32.5 108.5t-92.5 132.5zM615 721q23 -23 55 -46q41 -30 69 -45l-94 -125q-28 13 -62 37.5t-59 50.5l-69 -102q-33 14 -73 42t-64 62l88 117q-27 13 -57 34q-40 28 -64 62l94 125q20 -26 51 -55t59 -45l80 115q27 -31 68 -60.5t69 -44.5zM596 726q-22 12 -46 30
q-34 24 -59 50l-68 -100q17 -20 40 -41q31 -29 59 -45z" />
    <glyph glyph-name="uni069A.init" unicode="&#x69a;" horiz-adv-x="1079" 
d="M883 594q25 -27 48.5 -63.5t39.5 -77.5t26.5 -82t10.5 -76t-7 -82t-32 -96q-33 -66 -63.5 -90.5t-65.5 -24.5q-66 0 -138.5 50t-119.5 145q-23 -58 -44.5 -96t-44 -60.5t-47 -31.5t-52.5 -9q-54 0 -101 42t-76 128q-28 -53 -56 -89t-53.5 -57.5t-52 -29.5t-55.5 -8
q-22 0 -39.5 18.5t-17.5 61.5q0 36 17.5 58.5t39.5 22.5q82 0 145.5 51.5t114.5 161.5l62 27l-17 -70q17 -75 53 -115t74 -40q19 0 38.5 12t40 40t43 74t48.5 115l66 27l-18 -78q34 -84 103 -136t169 -52q-6 78 -38 151.5t-75 122.5zM622 687q-33 14 -73 45t-64 65l100 123
q25 -32 66 -63t69 -47zM622 -389q-33 14 -73 45t-64 65l100 123q25 -32 66 -63t69 -47z" />
    <glyph glyph-name="uni069A.medi" unicode="&#x69a;" horiz-adv-x="1191" 
d="M985 336q15 -96 70 -142.5t137 -46.5q23 0 42.5 -20.5t19.5 -58.5q0 -39 -19.5 -60.5t-42.5 -21.5q-102 0 -168.5 50t-87.5 138q-33 -92 -81 -131t-101 -39q-61 0 -97 40t-44 110q-45 -95 -91.5 -131.5t-105.5 -36.5q-68 0 -115 45t-65 125q-47 -95 -107.5 -132.5
t-128.5 -37.5q-20 0 -37.5 21.5t-17.5 60.5q0 32 16.5 55.5t38.5 23.5q88 0 152.5 42t116.5 141l59 14l-21 -61q17 -60 56 -98t92 -38t95 41t87 164l64 29l-13 -72q5 -63 30.5 -103t64.5 -40q106 0 149 227l70 29zM648 635q-33 14 -73 45t-64 65l100 123q25 -32 66 -63
t69 -47zM648 -389q-33 14 -73 45t-64 65l100 123q25 -32 66 -63t69 -47z" />
    <glyph glyph-name="uni069A.fina" unicode="&#x69a;" horiz-adv-x="1718" 
d="M178 260q-16 -39 -24.5 -98.5t-8.5 -118.5q0 -154 72 -230.5t231 -76.5q123 0 225.5 41t155.5 112q-10 119 -32.5 207t-53.5 148l96 133q39 -111 93.5 -168t101.5 -57q45 0 80 40.5t76 159.5l63 29l-14 -72q4 -82 29.5 -122t66.5 -40q43 0 82 59.5t57 188.5l72 27
l-12 -86q6 -86 59 -137.5t125 -51.5q23 0 42.5 -20.5t19.5 -58.5q0 -39 -19.5 -60.5t-42.5 -21.5q-86 0 -149.5 46t-83.5 130q-29 -94 -71 -135t-103 -41q-56 0 -95 37.5t-53 115.5q-31 -80 -66.5 -114.5t-74.5 -34.5q-35 0 -59.5 16.5t-39.5 40.5l-2 -2q2 -92 -13 -159.5
t-54 -129.5q-49 -78 -157.5 -134t-272.5 -56q-193 0 -283 100.5t-90 274.5q0 53 8 102t21.5 89t29 67.5t31.5 38.5l37 22v0zM1207 627q-33 14 -73 45t-64 65l100 123q25 -32 66 -63t69 -47zM1207 -389q-33 14 -73 45t-64 65l100 123q25 -32 66 -63t69 -47z" />
    <glyph glyph-name="uni069B.init" unicode="&#x69b;" horiz-adv-x="1079" 
d="M883 594q25 -27 48.5 -63.5t39.5 -77.5t26.5 -82t10.5 -76t-7 -82t-32 -96q-33 -66 -63.5 -90.5t-65.5 -24.5q-66 0 -138.5 50t-119.5 145q-23 -58 -44.5 -96t-44 -60.5t-47 -31.5t-52.5 -9q-54 0 -101 42t-76 128q-28 -53 -56 -89t-53.5 -57.5t-52 -29.5t-55.5 -8
q-22 0 -39.5 18.5t-17.5 61.5q0 36 17.5 58.5t39.5 22.5q82 0 145.5 51.5t114.5 161.5l62 27l-17 -70q17 -75 53 -115t74 -40q19 0 38.5 12t40 40t43 74t48.5 115l66 27l-18 -78q34 -84 103 -136t169 -52q-6 78 -38 151.5t-75 122.5zM627 -602q-37 14 -74 40.5t-59 55.5
l86 119q24 -31 62 -55.5t79 -38.5zM684 -385q-28 12 -62 36.5t-59 51.5l-69 -102q-33 14 -73 41.5t-64 62.5l94 125q20 -27 51 -55.5t59 -44.5l80 114q27 -30 68 -60t69 -44z" />
    <glyph glyph-name="uni069B.medi" unicode="&#x69b;" horiz-adv-x="1191" 
d="M985 336q15 -96 70 -142.5t137 -46.5q23 0 42.5 -20.5t19.5 -58.5q0 -39 -19.5 -60.5t-42.5 -21.5q-102 0 -168.5 50t-87.5 138q-33 -92 -81 -131t-101 -39q-61 0 -97 40t-44 110q-45 -95 -91.5 -131.5t-105.5 -36.5q-68 0 -115 45t-65 125q-47 -95 -107.5 -132.5
t-128.5 -37.5q-20 0 -37.5 21.5t-17.5 60.5q0 32 16.5 55.5t38.5 23.5q88 0 152.5 42t116.5 141l59 14l-21 -61q17 -60 56 -98t92 -38t95 41t87 164l64 29l-13 -72q5 -63 30.5 -103t64.5 -40q106 0 149 227l70 29zM667 -602q-37 14 -74 40.5t-59 55.5l86 119
q24 -31 62 -55.5t79 -38.5zM724 -385q-28 12 -62 36.5t-59 51.5l-69 -102q-33 14 -73 41.5t-64 62.5l94 125q20 -27 51 -55.5t59 -44.5l80 114q27 -30 68 -60t69 -44z" />
    <glyph glyph-name="uni069B.fina" unicode="&#x69b;" horiz-adv-x="1718" 
d="M178 260q-16 -39 -24.5 -98.5t-8.5 -118.5q0 -154 72 -230.5t231 -76.5q123 0 225.5 41t155.5 112q-10 119 -32.5 207t-53.5 148l96 133q39 -111 93.5 -168t101.5 -57q45 0 80 40.5t76 159.5l63 29l-14 -72q4 -82 29.5 -122t66.5 -40q43 0 82 59.5t57 188.5l72 27
l-12 -86q6 -86 59 -137.5t125 -51.5q23 0 42.5 -20.5t19.5 -58.5q0 -39 -19.5 -60.5t-42.5 -21.5q-86 0 -149.5 46t-83.5 130q-29 -94 -71 -135t-103 -41q-56 0 -95 37.5t-53 115.5q-31 -80 -66.5 -114.5t-74.5 -34.5q-35 0 -59.5 16.5t-39.5 40.5l-2 -2q2 -92 -13 -159.5
t-54 -129.5q-49 -78 -157.5 -134t-272.5 -56q-193 0 -283 100.5t-90 274.5q0 53 8 102t21.5 89t29 67.5t31.5 38.5l37 22v0zM1267 -602q-37 14 -74 40.5t-59 55.5l86 119q24 -31 62 -55.5t79 -38.5zM1324 -385q-28 12 -62 36.5t-59 51.5l-69 -102q-33 14 -73 41.5t-64 62.5
l94 125q20 -27 51 -55.5t59 -44.5l80 114q27 -30 68 -60t69 -44z" />
    <glyph glyph-name="uni069C.init" unicode="&#x69c;" horiz-adv-x="1079" 
d="M883 594q25 -27 48.5 -63.5t39.5 -77.5t26.5 -82t10.5 -76t-7 -82t-32 -96q-33 -66 -63.5 -90.5t-65.5 -24.5q-66 0 -138.5 50t-119.5 145q-23 -58 -44.5 -96t-44 -60.5t-47 -31.5t-52.5 -9q-54 0 -101 42t-76 128q-28 -53 -56 -89t-53.5 -57.5t-52 -29.5t-55.5 -8
q-22 0 -39.5 18.5t-17.5 61.5q0 36 17.5 58.5t39.5 22.5q82 0 145.5 51.5t114.5 161.5l62 27l-17 -70q17 -75 53 -115t74 -40q19 0 38.5 12t40 40t43 74t48.5 115l66 27l-18 -78q34 -84 103 -136t169 -52q-6 78 -38 151.5t-75 122.5zM550 793q-12 4 -32.5 17t-40 30.5
t-35 34t-21.5 26.5l99 121q18 -29 56 -63.5t69 -51.5zM679 582q-28 12 -62 36.5t-59 51.5l-69 -103q-33 15 -73 42.5t-64 62.5l94 125q20 -27 51 -55.5t59 -45.5l80 115q27 -31 68 -60.5t70 -43.5zM627 -602q-37 14 -74 40.5t-59 55.5l86 119q24 -31 62 -55.5t79 -38.5z
M684 -385q-28 12 -62 36.5t-59 51.5l-69 -102q-33 14 -73 41.5t-64 62.5l94 125q20 -27 51 -55.5t59 -44.5l80 114q27 -30 68 -60t69 -44z" />
    <glyph glyph-name="uni069C.medi" unicode="&#x69c;" horiz-adv-x="1191" 
d="M985 336q15 -96 70 -142.5t137 -46.5q23 0 42.5 -20.5t19.5 -58.5q0 -39 -19.5 -60.5t-42.5 -21.5q-102 0 -168.5 50t-87.5 138q-33 -92 -81 -131t-101 -39q-61 0 -97 40t-44 110q-45 -95 -91.5 -131.5t-105.5 -36.5q-68 0 -115 45t-65 125q-47 -95 -107.5 -132.5
t-128.5 -37.5q-20 0 -37.5 21.5t-17.5 60.5q0 32 16.5 55.5t38.5 23.5q88 0 152.5 42t116.5 141l59 14l-21 -61q17 -60 56 -98t92 -38t95 41t87 164l64 29l-13 -72q5 -63 30.5 -103t64.5 -40q106 0 149 227l70 29zM609 752q-13 4 -33.5 17t-40 30.5t-34.5 34t-21 26.5
l98 121q18 -29 56 -63.5t69 -51.5zM738 541q-29 12 -63 36.5t-58 51.5l-70 -103q-33 15 -73 42.5t-64 62.5l94 125q21 -27 51.5 -55.5t59.5 -45.5l80 115q26 -31 67 -60.5t70 -43.5zM667 -602q-37 14 -74 40.5t-59 55.5l86 119q24 -31 62 -55.5t79 -38.5zM724 -385
q-28 12 -62 36.5t-59 51.5l-69 -102q-33 14 -73 41.5t-64 62.5l94 125q20 -27 51 -55.5t59 -44.5l80 114q27 -30 68 -60t69 -44z" />
    <glyph glyph-name="uni069C.fina" unicode="&#x69c;" horiz-adv-x="1718" 
d="M178 260q-16 -39 -24.5 -98.5t-8.5 -118.5q0 -154 72 -230.5t231 -76.5q123 0 225.5 41t155.5 112q-10 119 -32.5 207t-53.5 148l96 133q39 -111 93.5 -168t101.5 -57q45 0 80 40.5t76 159.5l63 29l-14 -72q4 -82 29.5 -122t66.5 -40q43 0 82 59.5t57 188.5l72 27
l-12 -86q6 -86 59 -137.5t125 -51.5q23 0 42.5 -20.5t19.5 -58.5q0 -39 -19.5 -60.5t-42.5 -21.5q-86 0 -149.5 46t-83.5 130q-29 -94 -71 -135t-103 -41q-56 0 -95 37.5t-53 115.5q-31 -80 -66.5 -114.5t-74.5 -34.5q-35 0 -59.5 16.5t-39.5 40.5l-2 -2q2 -92 -13 -159.5
t-54 -129.5q-49 -78 -157.5 -134t-272.5 -56q-193 0 -283 100.5t-90 274.5q0 53 8 102t21.5 89t29 67.5t31.5 38.5l37 22v0zM1177 752q-13 4 -33.5 17t-39.5 30.5t-34.5 34t-21.5 26.5l98 121q18 -29 56 -63.5t69 -51.5zM1306 541q-29 12 -63 36.5t-58 51.5l-70 -103
q-33 15 -72.5 42.5t-64.5 62.5l94 125q21 -27 51.5 -55.5t59.5 -45.5l80 115q26 -31 67 -60.5t70 -43.5zM1267 -602q-37 14 -74 40.5t-59 55.5l86 119q24 -31 62 -55.5t79 -38.5zM1324 -385q-28 12 -62 36.5t-59 51.5l-69 -102q-33 14 -73 41.5t-64 62.5l94 125
q20 -27 51 -55.5t59 -44.5l80 114q27 -30 68 -60t69 -44z" />
    <glyph glyph-name="uni069D.init" unicode="&#x69d;" horiz-adv-x="1271" 
d="M262 342q7 -18 22 -40.5t33.5 -45.5t38 -42t35.5 -30q52 86 121.5 168t145 146.5t154.5 103.5t151 39q47 0 90 -23.5t76 -63.5t52 -92t19 -112q0 -35 -27.5 -91t-72.5 -114q-29 -34 -83 -63t-123.5 -50.5t-146.5 -33.5t-149 -12q-112 0 -206.5 38.5t-161.5 133.5
q-35 -82 -91.5 -127t-138.5 -45q-22 0 -38.5 23.5t-16.5 58.5q0 30 16.5 54.5t38.5 24.5q78 0 129.5 34t94.5 128zM1100 250q-14 108 -65.5 168.5t-124.5 60.5q-45 0 -102.5 -27.5t-117 -71.5t-118 -101.5t-107.5 -118.5q23 -4 58.5 -8.5t74.5 -4.5q164 0 294 28t208 75z
M829 -385q-29 12 -63 36.5t-58 51.5l-70 -102q-33 14 -72.5 41.5t-64.5 62.5l94 125q21 -27 51.5 -55.5t59.5 -44.5l80 114q26 -30 67 -60t70 -44z" />
    <glyph glyph-name="uni069D.medi" unicode="&#x69d;" horiz-adv-x="1259" 
d="M262 342q7 -18 22 -40.5t33.5 -45.5t38 -42t35.5 -30q52 86 121.5 168t145 146.5t154.5 103.5t151 39q47 0 90 -23.5t76 -63.5t52 -92t19 -112q0 -33 -23.5 -82t-62.5 -102q35 -10 67 -14.5t79 -4.5q22 0 41.5 -20.5t19.5 -58.5q0 -39 -19.5 -60.5t-41.5 -21.5
q-70 0 -126 23.5t-110 76.5q-41 -23 -91 -41t-106.5 -31.5t-114.5 -20.5t-114 -7q-112 0 -206.5 38.5t-161.5 133.5q-35 -82 -91.5 -127t-138.5 -45q-22 0 -38.5 23.5t-16.5 58.5q0 30 16.5 54.5t38.5 24.5q78 0 129.5 34t94.5 128zM1100 250q-14 108 -65.5 168.5
t-124.5 60.5q-45 0 -102.5 -27.5t-117 -71.5t-118 -101.5t-107.5 -118.5q23 -4 58.5 -8.5t74.5 -4.5q164 0 294 28t208 75zM829 -385q-29 12 -63 36.5t-58 51.5l-70 -102q-33 14 -72.5 41.5t-64.5 62.5l94 125q21 -27 51.5 -55.5t59.5 -44.5l80 114q26 -30 67 -60t70 -44z
" />
    <glyph glyph-name="uni069D.fina" unicode="&#x69d;" horiz-adv-x="1839" 
d="M1696 166q34 -10 65 -14.5t78 -4.5q22 0 41.5 -20.5t19.5 -58.5q0 -39 -19.5 -60.5t-41.5 -21.5q-70 0 -126 22.5t-112 75.5q-39 -23 -89 -41t-103 -30.5t-107.5 -19.5t-101.5 -7q-100 0 -168 17t-111 46v-10q0 -86 -15 -154.5t-52 -128.5q-49 -78 -157.5 -134
t-272.5 -56q-193 0 -283 100.5t-90 274.5q0 53 8 102t21.5 89t29 67.5t31.5 38.5l37 22q-16 -39 -24.5 -98.5t-8.5 -118.5q0 -154 72 -230.5t231 -76.5q123 0 225.5 41t155.5 112q-10 119 -32.5 207t-53.5 148l96 133q23 -60 54.5 -110t77.5 -83q51 86 120.5 168
t145.5 146.5t154.5 103.5t150.5 39q47 0 90 -23.5t76 -63.5t52.5 -92t19.5 -112q0 -33 -24 -82t-60 -102zM1679 250q-14 108 -65.5 168.5t-126.5 60.5q-45 0 -101.5 -27.5t-116 -71.5t-118 -101.5t-107.5 -118.5q23 -4 58.5 -8.5t74.5 -4.5q164 0 294 28t208 75zM1419 -385
q-29 12 -63 36.5t-58 51.5l-70 -102q-33 14 -72.5 41.5t-64.5 62.5l94 125q21 -27 51.5 -55.5t59.5 -44.5l80 114q26 -30 67 -60t70 -44z" />
    <glyph glyph-name="uni069E.init" unicode="&#x69e;" horiz-adv-x="1271" 
d="M262 342q7 -18 22 -40.5t33.5 -45.5t38 -42t35.5 -30q52 86 121.5 168t145 146.5t154.5 103.5t151 39q47 0 90 -23.5t76 -63.5t52 -92t19 -112q0 -35 -27.5 -91t-72.5 -114q-29 -34 -83 -63t-123.5 -50.5t-146.5 -33.5t-149 -12q-112 0 -206.5 38.5t-161.5 133.5
q-35 -82 -91.5 -127t-138.5 -45q-22 0 -38.5 23.5t-16.5 58.5q0 30 16.5 54.5t38.5 24.5q78 0 129.5 34t94.5 128zM1100 250q-14 108 -65.5 168.5t-124.5 60.5q-45 0 -102.5 -27.5t-117 -71.5t-118 -101.5t-107.5 -118.5q23 -4 58.5 -8.5t74.5 -4.5q164 0 294 28t208 75z
M686 1030q-12 4 -32.5 17t-40 30.5t-35 34t-21.5 26.5l99 121q18 -29 56 -63.5t69 -51.5zM815 819q-28 12 -62 36.5t-58 51.5l-70 -103q-33 15 -73 42.5t-64 62.5l94 125q20 -27 51 -55.5t59 -45.5l80 115q27 -31 68 -60.5t70 -43.5z" />
    <glyph glyph-name="uni069E.medi" unicode="&#x69e;" horiz-adv-x="1259" 
d="M262 342q7 -18 22 -40.5t33.5 -45.5t38 -42t35.5 -30q52 86 121.5 168t145 146.5t154.5 103.5t151 39q47 0 90 -23.5t76 -63.5t52 -92t19 -112q0 -33 -23.5 -82t-62.5 -102q35 -10 67 -14.5t79 -4.5q22 0 41.5 -20.5t19.5 -58.5q0 -39 -19.5 -60.5t-41.5 -21.5
q-70 0 -126 23.5t-110 76.5q-41 -23 -91 -41t-106.5 -31.5t-114.5 -20.5t-114 -7q-112 0 -206.5 38.5t-161.5 133.5q-35 -82 -91.5 -127t-138.5 -45q-22 0 -38.5 23.5t-16.5 58.5q0 30 16.5 54.5t38.5 24.5q78 0 129.5 34t94.5 128zM1100 250q-14 108 -65.5 168.5
t-124.5 60.5q-45 0 -102.5 -27.5t-117 -71.5t-118 -101.5t-107.5 -118.5q23 -4 58.5 -8.5t74.5 -4.5q164 0 294 28t208 75zM686 1027q-12 4 -32.5 17t-40 30.5t-35 34t-21.5 26.5l99 121q18 -29 56 -63.5t69 -51.5zM815 816q-28 12 -62 36.5t-58 51.5l-70 -103
q-33 15 -73 42.5t-64 62.5l94 125q20 -27 51 -55.5t59 -45.5l80 115q27 -31 68 -60.5t70 -43.5z" />
    <glyph glyph-name="uni069E.fina" unicode="&#x69e;" horiz-adv-x="1839" 
d="M1696 166q34 -10 65 -14.5t78 -4.5q22 0 41.5 -20.5t19.5 -58.5q0 -39 -19.5 -60.5t-41.5 -21.5q-70 0 -126 22.5t-112 75.5q-39 -23 -89 -41t-103 -30.5t-107.5 -19.5t-101.5 -7q-100 0 -168 17t-111 46v-10q0 -86 -15 -154.5t-52 -128.5q-49 -78 -157.5 -134
t-272.5 -56q-193 0 -283 100.5t-90 274.5q0 53 8 102t21.5 89t29 67.5t31.5 38.5l37 22q-16 -39 -24.5 -98.5t-8.5 -118.5q0 -154 72 -230.5t231 -76.5q123 0 225.5 41t155.5 112q-10 119 -32.5 207t-53.5 148l96 133q23 -60 54.5 -110t77.5 -83q51 86 120.5 168
t145.5 146.5t154.5 103.5t150.5 39q47 0 90 -23.5t76 -63.5t52.5 -92t19.5 -112q0 -33 -24 -82t-60 -102zM1679 250q-14 108 -65.5 168.5t-126.5 60.5q-45 0 -101.5 -27.5t-116 -71.5t-118 -101.5t-107.5 -118.5q23 -4 58.5 -8.5t74.5 -4.5q164 0 294 28t208 75zM1291 1030
q-12 4 -32.5 17t-40 30.5t-35 34t-21.5 26.5l98 121q19 -29 56.5 -63.5t68.5 -51.5zM1420 819q-29 12 -62.5 36.5t-58.5 51.5l-70 -103q-32 15 -72 42.5t-65 62.5l94 125q21 -27 51.5 -55.5t59.5 -45.5l80 115q26 -31 67 -60.5t70 -43.5z" />
    <glyph glyph-name="uni069F.init" unicode="&#x69f;" horiz-adv-x="999" 
d="M221 1272q7 -29 20 -63.5t31.5 -67.5t40 -60.5t44.5 -46.5l-107 -65q0 -88 3 -191.5t3 -179.5q0 -33 -2 -74t-5 -83t-8 -77.5t-11 -60.5h8q49 72 103.5 133.5t111.5 107.5t117.5 71.5t119.5 25.5q48 0 91 -23.5t75.5 -63.5t52 -92t19.5 -112q0 -35 -26.5 -91t-73.5 -114
q-29 -36 -74 -66t-109.5 -50.5t-151.5 -31.5t-202 -11h-291q-22 0 -38.5 21.5t-16.5 62.5q0 36 15.5 56.5t39.5 20.5h115l23 46q2 24 5 58t4 69.5t2 69.5t1 59q0 118 -3 207t-14 165q-10 78 -15 140.5t-9 136.5q-10 26 -14 71zM326 147q164 0 294 28t208 75
q-15 108 -66 168.5t-127 60.5q-45 0 -101.5 -27.5t-115.5 -73.5t-117.5 -105.5t-105.5 -125.5h131zM583 1026q-12 4 -32.5 17t-40 30.5t-35 34t-21.5 26.5l98 121q19 -29 56.5 -63.5t68.5 -51.5zM712 815q-29 12 -62.5 36.5t-58.5 51.5l-69 -103q-33 15 -73 42.5t-65 62.5
l95 125q20 -27 50.5 -55.5t59.5 -45.5l80 115q27 -31 68 -60.5t69 -43.5z" />
    <glyph glyph-name="uni069F.medi" unicode="&#x69f;" horiz-adv-x="995" 
d="M221 1272q7 -29 20 -63.5t31.5 -67.5t40 -60.5t44.5 -46.5l-107 -65q0 -88 3 -191.5t3 -179.5q0 -33 -2 -74t-5 -83t-8 -77.5t-11 -60.5h8q49 72 103.5 133.5t111.5 107.5t117.5 71.5t119.5 25.5q48 0 91 -23.5t75.5 -63.5t52 -92t19.5 -112q0 -31 -21.5 -78t-56.5 -96
q39 -16 75 -22.5t71 -6.5q22 0 41.5 -20.5t19.5 -58.5q0 -39 -19.5 -60.5t-41.5 -21.5q-146 0 -238 96q-68 -47 -180.5 -71.5t-286.5 -24.5h-291q-22 0 -38.5 21.5t-16.5 62.5q0 36 15.5 56.5t39.5 20.5h115l23 46q2 24 5 58t4 69.5t2 69.5t1 59q0 118 -3 207t-14 165
q-10 78 -15 140.5t-9 136.5q-10 26 -14 71zM326 147q164 0 294 28t208 75q-15 108 -66 168.5t-127 60.5q-45 0 -101.5 -27.5t-115.5 -73.5t-117.5 -105.5t-105.5 -125.5h131zM580 1026q-12 4 -32.5 17t-40 30.5t-35 34t-21.5 26.5l98 121q19 -29 56.5 -63.5t68.5 -51.5z
M709 815q-29 12 -62.5 36.5t-58.5 51.5l-69 -103q-33 15 -73 42.5t-65 62.5l95 125q20 -27 50.5 -55.5t59.5 -45.5l80 115q27 -31 68 -60.5t69 -43.5z" />
    <glyph glyph-name="uni069F.fina" unicode="&#x69f;" horiz-adv-x="1171" 
d="M397 1272q6 -29 19.5 -63.5t32 -67.5t40 -60.5t41.5 -46.5l-104 -65q0 -88 3 -191.5t3 -179.5q0 -33 -2 -74t-5 -83t-8.5 -77.5t-11.5 -60.5h8q49 72 103.5 133.5t112 107.5t118 71.5t119.5 25.5q47 0 90 -23.5t76 -63.5t52 -92t19 -112q0 -31 -21.5 -78t-55.5 -96
q39 -16 74.5 -22.5t70.5 -6.5q23 0 42.5 -20.5t19.5 -58.5q0 -39 -19.5 -60.5t-42.5 -21.5q-145 0 -237 96q-68 -47 -169.5 -71.5t-207.5 -24.5q-68 0 -138.5 8t-136 21.5t-124 30.5t-103.5 38l-39 125q74 -14 138.5 -23.5t140.5 -15.5l18 29q4 22 6 55t4 67.5t2 68.5v59
q0 118 -3 207t-13 165q-10 78 -15.5 140.5t-9.5 136.5q-10 26 -14 71zM368 160q23 -4 58.5 -8.5t74.5 -4.5q164 0 294 28t208 75q-14 108 -65.5 168.5t-126.5 60.5q-45 0 -101.5 -27.5t-116 -71.5t-118 -101.5t-107.5 -118.5zM784 1023q-12 4 -32.5 17t-40 30.5t-35 34
t-21.5 26.5l99 121q18 -29 56 -63.5t69 -51.5zM913 812q-28 12 -62 36.5t-59 51.5l-69 -103q-33 15 -73 42.5t-64 62.5l94 125q20 -27 51 -55.5t59 -45.5l80 115q27 -31 68 -60.5t70 -43.5z" />
    <glyph glyph-name="uni06A0.init" unicode="&#x6a0;" horiz-adv-x="872" 
d="M781 219q-152 -106 -353.5 -169.5t-427.5 -63.5q-22 0 -38.5 21.5t-16.5 62.5q0 39 16.5 58t38.5 19q123 0 199 6.5t131 20.5q-111 35 -174.5 110.5t-63.5 178.5q0 51 26 110.5t70 110.5t101 84t121 33q65 0 115.5 -44t115.5 -147l-30 -26q-45 34 -80 47.5t-88 13.5
q-33 0 -71 -8t-74 -22.5t-68.5 -32t-57.5 -37.5q15 -53 47.5 -100.5t78.5 -87.5t102.5 -70.5t117.5 -50.5q70 22 146 57t147 78zM357 1160q-12 4 -32.5 17t-40 30.5t-35 34t-21.5 26.5l98 121q19 -29 57 -63.5t68 -51.5zM486 949q-29 12 -62.5 36.5t-58.5 51.5l-69 -103
q-33 15 -73 42.5t-65 62.5l95 125q20 -27 51 -55.5t59 -45.5l80 115q27 -31 68 -60.5t69 -43.5z" />
    <glyph glyph-name="uni06A0.medi" unicode="&#x6a0;" horiz-adv-x="774" 
d="M316 195q-23 41 -65 70.5t-93 49.5l33 117q65 21 117.5 31t121.5 10q62 0 107 -19.5t45 -50.5q0 -45 -24.5 -100t-84.5 -115q37 -16 104.5 -28.5t196.5 -12.5q23 0 42.5 -20.5t19.5 -58.5q0 -39 -19.5 -60.5t-42.5 -21.5q-69 0 -123.5 8t-99.5 23.5t-83 38t-72 53.5
q-172 -123 -396 -123q-20 0 -37.5 17t-17.5 60q0 39 15.5 61.5t39.5 22.5q109 0 190 12.5t126 35.5zM357 825q-12 4 -32.5 17t-40 30.5t-35 34t-21.5 26.5l98 121q19 -29 57 -63.5t68 -51.5zM486 614q-29 12 -62.5 36.5t-58.5 51.5l-69 -103q-33 15 -73 42.5t-65 62.5
l95 125q20 -27 51 -55.5t59 -45.5l80 115q27 -31 68 -60.5t69 -43.5z" />
    <glyph glyph-name="uni06A0.fina" unicode="&#x6a0;" horiz-adv-x="942" 
d="M344 432q65 21 117.5 31t122.5 10q61 0 106 -19.5t45 -50.5q0 -45 -24.5 -100t-83.5 -115q36 -18 116 -29.5t199 -11.5q22 0 41.5 -20.5t19.5 -58.5q0 -39 -19.5 -60.5t-41.5 -21.5q-70 0 -128 8t-106.5 26.5t-90.5 48t-87 70.5q-129 -55 -207.5 -147t-78.5 -217
q0 -66 26.5 -124.5t79.5 -101.5t134 -68.5t190 -25.5q86 0 156.5 11.5t160.5 44.5l-6 -35q-4 -23 -39 -55.5t-90 -62.5t-128 -51.5t-153 -21.5q-211 0 -326.5 113t-115.5 305q0 76 26.5 151.5t72.5 143.5t105.5 123t127.5 90q-19 29 -61 56.5t-93 47.5zM525 818
q-13 4 -33.5 17t-39.5 30.5t-34.5 34t-21.5 26.5l98 121q18 -29 56 -63.5t69 -51.5zM654 607q-29 12 -63 36.5t-58 51.5l-70 -103q-32 15 -72 42.5t-65 62.5l94 125q21 -27 51.5 -55.5t59.5 -45.5l80 115q26 -31 67 -60.5t70 -43.5z" />
    <glyph glyph-name="uni06A1.init" unicode="&#x6a1;" horiz-adv-x="626" 
d="M473 254q-4 37 -7 70.5t-7 56.5q-29 -35 -76 -58.5t-92 -23.5q-47 0 -88 17.5t-70.5 49t-47 74.5t-17.5 95q0 47 17.5 96t47 89t67.5 65.5t81 25.5q49 0 98 -35t88 -96.5t63.5 -145t24.5 -182.5q0 -92 -18.5 -146t-59.5 -89q-77 -66 -197 -98.5t-280 -32.5
q-22 0 -38.5 21.5t-16.5 60.5q0 38 16.5 58.5t38.5 20.5q158 0 280 27t193 80zM138 537q22 -48 66 -70.5t101 -22.5q37 0 76 10.5t56 22.5q-15 86 -65 133t-101 47q-47 0 -82 -33.5t-51 -86.5z" />
    <glyph glyph-name="uni06A1.medi" unicode="&#x6a1;" horiz-adv-x="729" 
d="M219 174q-34 39 -55.5 95.5t-21.5 105.5q0 37 7 68.5t25 70.5q37 78 95.5 127t121.5 49q35 0 73 -22.5t68.5 -61.5t50 -91t19.5 -114q0 -53 -34.5 -115.5t-81.5 -107.5q41 -10 99 -20.5t144 -10.5q23 0 42.5 -20.5t19.5 -58.5q0 -39 -19.5 -60.5t-42.5 -21.5
q-221 0 -385 82q-71 -37 -155 -59.5t-189 -22.5q-26 0 -40.5 21.5t-14.5 58.5q0 32 15.5 56.5t39.5 24.5q72 0 128.5 8.5t90.5 18.5zM357 223q26 15 53 33t50.5 39.5t41.5 43t29 40.5q-8 31 -25.5 60.5t-41 53t-49.5 38t-50 14.5q-14 0 -36 -12.5t-44.5 -32t-43 -44
t-30.5 -50.5q6 -62 49 -111t97 -72z" />
    <glyph glyph-name="uni06A1.fina" unicode="&#x6a1;" horiz-adv-x="1732" 
d="M161 524q-4 -10 -5 -23.5t-3 -27.5t-3 -26.5t-1 -20.5q0 -92 27.5 -152.5t90 -97.5t161 -52t239.5 -15q168 0 314.5 19t236.5 52q-33 39 -52.5 92.5t-19.5 102.5q0 61 23.5 118.5t60.5 100.5t81 69.5t85 26.5q35 0 72 -22.5t66.5 -61.5t48 -91t18.5 -114
q0 -53 -31.5 -115.5t-79.5 -107.5q41 -10 92.5 -20.5t137.5 -10.5q22 0 41.5 -20.5t19.5 -58.5q0 -39 -19.5 -60.5t-41.5 -21.5q-111 0 -212.5 26.5t-180.5 67.5q-265 -141 -707 -141q-154 0 -260.5 18t-172 59t-95 106.5t-29.5 162.5q0 77 18.5 139.5t40.5 77.5zM1361 223
q54 29 102 74t66 82q-8 31 -24.5 60.5t-38 53t-47 38t-49.5 14.5q-15 0 -36.5 -12.5t-44 -32t-43 -44t-30.5 -50.5q6 -62 49 -111t96 -72z" />
    <glyph glyph-name="uni06A2.init" unicode="&#x6a2;" horiz-adv-x="626" 
d="M473 254q-4 37 -7 70.5t-7 56.5q-29 -35 -76 -58.5t-92 -23.5q-47 0 -88 17.5t-70.5 49t-47 74.5t-17.5 95q0 47 17.5 96t47 89t67.5 65.5t81 25.5q49 0 98 -35t88 -96.5t63.5 -145t24.5 -182.5q0 -92 -18.5 -146t-59.5 -89q-77 -66 -197 -98.5t-280 -32.5
q-22 0 -38.5 21.5t-16.5 60.5q0 38 16.5 58.5t38.5 20.5q158 0 280 27t193 80zM138 537q22 -48 66 -70.5t101 -22.5q37 0 76 10.5t56 22.5q-15 86 -65 133t-101 47q-47 0 -82 -33.5t-51 -86.5zM308 -389q-33 14 -73 45t-64 65l100 123q25 -32 66 -63t69 -47z" />
    <glyph glyph-name="uni06A2.medi" unicode="&#x6a2;" horiz-adv-x="729" 
d="M219 174q-34 39 -55.5 95.5t-21.5 105.5q0 37 7 68.5t25 70.5q37 78 95.5 127t121.5 49q35 0 73 -22.5t68.5 -61.5t50 -91t19.5 -114q0 -53 -34.5 -115.5t-81.5 -107.5q41 -10 99 -20.5t144 -10.5q23 0 42.5 -20.5t19.5 -58.5q0 -39 -19.5 -60.5t-42.5 -21.5
q-221 0 -385 82q-71 -37 -155 -59.5t-189 -22.5q-26 0 -40.5 21.5t-14.5 58.5q0 32 15.5 56.5t39.5 24.5q72 0 128.5 8.5t90.5 18.5zM357 223q26 15 53 33t50.5 39.5t41.5 43t29 40.5q-8 31 -25.5 60.5t-41 53t-49.5 38t-50 14.5q-14 0 -36 -12.5t-44.5 -32t-43 -44
t-30.5 -50.5q6 -62 49 -111t97 -72zM388 -389q-33 14 -73 45t-64 65l100 123q25 -32 66 -63t69 -47z" />
    <glyph glyph-name="uni06A2.fina" unicode="&#x6a2;" horiz-adv-x="1732" 
d="M161 524q-4 -10 -5 -23.5t-3 -27.5t-3 -26.5t-1 -20.5q0 -92 27.5 -152.5t90 -97.5t161 -52t239.5 -15q168 0 314.5 19t236.5 52q-33 39 -52.5 92.5t-19.5 102.5q0 61 23.5 118.5t60.5 100.5t81 69.5t85 26.5q35 0 72 -22.5t66.5 -61.5t48 -91t18.5 -114
q0 -53 -31.5 -115.5t-79.5 -107.5q41 -10 92.5 -20.5t137.5 -10.5q22 0 41.5 -20.5t19.5 -58.5q0 -39 -19.5 -60.5t-41.5 -21.5q-111 0 -212.5 26.5t-180.5 67.5q-265 -141 -707 -141q-154 0 -260.5 18t-172 59t-95 106.5t-29.5 162.5q0 77 18.5 139.5t40.5 77.5zM1361 223
q54 29 102 74t66 82q-8 31 -24.5 60.5t-38 53t-47 38t-49.5 14.5q-15 0 -36.5 -12.5t-44 -32t-43 -44t-30.5 -50.5q6 -62 49 -111t96 -72zM1398 -389q-33 14 -73 45t-64 65l100 123q25 -32 66 -63t69 -47z" />
    <glyph glyph-name="uni06A3.init" unicode="&#x6a3;" horiz-adv-x="626" 
d="M473 254q-4 37 -7 70.5t-7 56.5q-29 -35 -76 -58.5t-92 -23.5q-47 0 -88 17.5t-70.5 49t-47 74.5t-17.5 95q0 47 17.5 96t47 89t67.5 65.5t81 25.5q49 0 98 -35t88 -96.5t63.5 -145t24.5 -182.5q0 -92 -18.5 -146t-59.5 -89q-77 -66 -197 -98.5t-280 -32.5
q-22 0 -38.5 21.5t-16.5 60.5q0 38 16.5 58.5t38.5 20.5q158 0 280 27t193 80zM138 537q22 -48 66 -70.5t101 -22.5q37 0 76 10.5t56 22.5q-15 86 -65 133t-101 47q-47 0 -82 -33.5t-51 -86.5zM277 924q-33 14 -73 44.5t-64 65.5l100 123q24 -33 65 -63.5t70 -46.5z
M279 -389q-33 14 -73 45t-64 65l100 123q25 -32 66 -63t69 -47z" />
    <glyph glyph-name="uni06A3.medi" unicode="&#x6a3;" horiz-adv-x="729" 
d="M219 174q-34 39 -55.5 95.5t-21.5 105.5q0 37 7 68.5t25 70.5q37 78 95.5 127t121.5 49q35 0 73 -22.5t68.5 -61.5t50 -91t19.5 -114q0 -53 -34.5 -115.5t-81.5 -107.5q41 -10 99 -20.5t144 -10.5q23 0 42.5 -20.5t19.5 -58.5q0 -39 -19.5 -60.5t-42.5 -21.5
q-221 0 -385 82q-71 -37 -155 -59.5t-189 -22.5q-26 0 -40.5 21.5t-14.5 58.5q0 32 15.5 56.5t39.5 24.5q72 0 128.5 8.5t90.5 18.5zM357 223q26 15 53 33t50.5 39.5t41.5 43t29 40.5q-8 31 -25.5 60.5t-41 53t-49.5 38t-50 14.5q-14 0 -36 -12.5t-44.5 -32t-43 -44
t-30.5 -50.5q6 -62 49 -111t97 -72zM381 801q-33 14 -72.5 45t-64.5 65l100 123q25 -33 66 -63.5t70 -46.5zM379 -389q-33 14 -73 45t-64 65l100 123q25 -32 66 -63t69 -47z" />
    <glyph glyph-name="uni06A3.fina" unicode="&#x6a3;" horiz-adv-x="1732" 
d="M161 524q-4 -10 -5 -23.5t-3 -27.5t-3 -26.5t-1 -20.5q0 -92 27.5 -152.5t90 -97.5t161 -52t239.5 -15q168 0 314.5 19t236.5 52q-33 39 -52.5 92.5t-19.5 102.5q0 61 23.5 118.5t60.5 100.5t81 69.5t85 26.5q35 0 72 -22.5t66.5 -61.5t48 -91t18.5 -114
q0 -53 -31.5 -115.5t-79.5 -107.5q41 -10 92.5 -20.5t137.5 -10.5q22 0 41.5 -20.5t19.5 -58.5q0 -39 -19.5 -60.5t-41.5 -21.5q-111 0 -212.5 26.5t-180.5 67.5q-265 -141 -707 -141q-154 0 -260.5 18t-172 59t-95 106.5t-29.5 162.5q0 77 18.5 139.5t40.5 77.5zM1361 223
q54 29 102 74t66 82q-8 31 -24.5 60.5t-38 53t-47 38t-49.5 14.5q-15 0 -36.5 -12.5t-44 -32t-43 -44t-30.5 -50.5q6 -62 49 -111t96 -72zM1390 801q-33 14 -73 45t-64 65l100 123q25 -33 66 -63.5t69 -46.5zM838 -419q-33 14 -73 45t-64 65l100 123q25 -32 66 -63t69 -47z
" />
    <glyph glyph-name="uni06A5.init" unicode="&#x6a5;" horiz-adv-x="626" 
d="M473 254q-4 37 -7 70.5t-7 56.5q-29 -35 -76 -58.5t-92 -23.5q-47 0 -88 17.5t-70.5 49t-47 74.5t-17.5 95q0 47 17.5 96t47 89t67.5 65.5t81 25.5q49 0 98 -35t88 -96.5t63.5 -145t24.5 -182.5q0 -92 -18.5 -146t-59.5 -89q-77 -66 -197 -98.5t-280 -32.5
q-22 0 -38.5 21.5t-16.5 60.5q0 38 16.5 58.5t38.5 20.5q158 0 280 27t193 80zM138 537q22 -48 66 -70.5t101 -22.5q37 0 76 10.5t56 22.5q-15 86 -65 133t-101 47q-47 0 -82 -33.5t-51 -86.5zM347 -602q-37 14 -74 40.5t-59 55.5l86 119q24 -31 62 -55.5t79 -38.5z
M404 -385q-28 12 -62 36.5t-59 51.5l-69 -102q-33 14 -73 41.5t-64 62.5l94 125q20 -27 51 -55.5t59 -44.5l80 114q27 -30 68 -60t69 -44z" />
    <glyph glyph-name="uni06A5.medi" unicode="&#x6a5;" horiz-adv-x="729" 
d="M219 174q-34 39 -55.5 95.5t-21.5 105.5q0 37 7 68.5t25 70.5q37 78 95.5 127t121.5 49q35 0 73 -22.5t68.5 -61.5t50 -91t19.5 -114q0 -53 -34.5 -115.5t-81.5 -107.5q41 -10 99 -20.5t144 -10.5q23 0 42.5 -20.5t19.5 -58.5q0 -39 -19.5 -60.5t-42.5 -21.5
q-221 0 -385 82q-71 -37 -155 -59.5t-189 -22.5q-26 0 -40.5 21.5t-14.5 58.5q0 32 15.5 56.5t39.5 24.5q72 0 128.5 8.5t90.5 18.5zM357 223q26 15 53 33t50.5 39.5t41.5 43t29 40.5q-8 31 -25.5 60.5t-41 53t-49.5 38t-50 14.5q-14 0 -36 -12.5t-44.5 -32t-43 -44
t-30.5 -50.5q6 -62 49 -111t97 -72zM417 -602q-37 14 -74 40.5t-59 55.5l86 119q24 -31 62 -55.5t79 -38.5zM474 -385q-28 12 -62 36.5t-59 51.5l-69 -102q-33 14 -73 41.5t-64 62.5l94 125q20 -27 51 -55.5t59 -44.5l80 114q27 -30 68 -60t69 -44z" />
    <glyph glyph-name="uni06A5.fina" unicode="&#x6a5;" horiz-adv-x="1732" 
d="M161 524q-4 -10 -5 -23.5t-3 -27.5t-3 -26.5t-1 -20.5q0 -92 27.5 -152.5t90 -97.5t161 -52t239.5 -15q168 0 314.5 19t236.5 52q-33 39 -52.5 92.5t-19.5 102.5q0 61 23.5 118.5t60.5 100.5t81 69.5t85 26.5q35 0 72 -22.5t66.5 -61.5t48 -91t18.5 -114
q0 -53 -31.5 -115.5t-79.5 -107.5q41 -10 92.5 -20.5t137.5 -10.5q22 0 41.5 -20.5t19.5 -58.5q0 -39 -19.5 -60.5t-41.5 -21.5q-111 0 -212.5 26.5t-180.5 67.5q-265 -141 -707 -141q-154 0 -260.5 18t-172 59t-95 106.5t-29.5 162.5q0 77 18.5 139.5t40.5 77.5zM1361 223
q54 29 102 74t66 82q-8 31 -24.5 60.5t-38 53t-47 38t-49.5 14.5q-15 0 -36.5 -12.5t-44 -32t-43 -44t-30.5 -50.5q6 -62 49 -111t96 -72zM1397 -602q-37 14 -74 40.5t-59 55.5l86 119q24 -31 62 -55.5t79 -38.5zM1454 -385q-28 12 -62 36.5t-59 51.5l-69 -102
q-33 14 -73 41.5t-64 62.5l94 125q20 -27 51 -55.5t59 -44.5l80 114q27 -30 68 -60t69 -44z" />
    <glyph glyph-name="uni06A7.init" unicode="&#x6a7;" horiz-adv-x="626" 
d="M473 254q-4 37 -7 70.5t-7 56.5q-29 -35 -76 -58.5t-92 -23.5q-47 0 -88 17.5t-70.5 49t-47 74.5t-17.5 95q0 47 17.5 96t47 89t67.5 65.5t81 25.5q49 0 98 -35t88 -96.5t63.5 -145t24.5 -182.5q0 -92 -18.5 -146t-59.5 -89q-77 -66 -197 -98.5t-280 -32.5
q-22 0 -38.5 21.5t-16.5 60.5q0 38 16.5 58.5t38.5 20.5q158 0 280 27t193 80zM138 537q22 -48 66 -70.5t101 -22.5q37 0 76 10.5t56 22.5q-15 86 -65 133t-101 47q-47 0 -82 -33.5t-51 -86.5zM277 924q-33 14 -73 44.5t-64 65.5l100 123q24 -33 65 -63.5t70 -46.5z" />
    <glyph glyph-name="uni06A7.medi" unicode="&#x6a7;" horiz-adv-x="729" 
d="M219 174q-34 39 -55.5 95.5t-21.5 105.5q0 37 7 68.5t25 70.5q37 78 95.5 127t121.5 49q35 0 73 -22.5t68.5 -61.5t50 -91t19.5 -114q0 -53 -34.5 -115.5t-81.5 -107.5q41 -10 99 -20.5t144 -10.5q23 0 42.5 -20.5t19.5 -58.5q0 -39 -19.5 -60.5t-42.5 -21.5
q-221 0 -385 82q-71 -37 -155 -59.5t-189 -22.5q-26 0 -40.5 21.5t-14.5 58.5q0 32 15.5 56.5t39.5 24.5q72 0 128.5 8.5t90.5 18.5zM357 223q26 15 53 33t50.5 39.5t41.5 43t29 40.5q-8 31 -25.5 60.5t-41 53t-49.5 38t-50 14.5q-14 0 -36 -12.5t-44.5 -32t-43 -44
t-30.5 -50.5q6 -62 49 -111t97 -72zM381 801q-33 14 -72.5 45t-64.5 65l100 123q25 -33 66 -63.5t70 -46.5z" />
    <glyph glyph-name="uni06A7.fina" unicode="&#x6a7;" horiz-adv-x="1081" 
d="M198 223q-16 -39 -24.5 -97t-8.5 -118q0 -71 18.5 -127.5t59.5 -96.5t105.5 -61.5t158.5 -21.5q144 0 251.5 37t172.5 96q2 12 3 33.5l2 43t2 42t1 33.5q-90 0 -157.5 21.5t-112.5 56t-66.5 78.5t-21.5 89q0 48 17.5 97t47 89t66.5 64.5t76 24.5q41 0 82 -27.5t73.5 -76
t55 -114t26.5 -141.5h56q22 0 41.5 -20.5t19.5 -58.5q0 -39 -19.5 -60.5t-41.5 -21.5h-56q-2 -62 -8 -106t-18.5 -78.5t-33 -63.5t-50.5 -60q-64 -63 -178.5 -105t-272.5 -42q-200 0 -296.5 102.5t-96.5 272.5q0 51 8 100t21.5 90t29 69t31.5 38zM644 238q23 -39 88.5 -65
t139.5 -26h69q-14 89 -60 147t-105 58q-43 0 -81 -34.5t-51 -79.5zM794 599q-12 4 -32.5 17t-40 30.5t-35 34t-21.5 26.5l98 121q19 -29 57 -63.5t68 -51.5z" />
    <glyph glyph-name="uni06A8.init" unicode="&#x6a8;" horiz-adv-x="626" 
d="M473 254q-4 37 -7 70.5t-7 56.5q-29 -35 -76 -58.5t-92 -23.5q-47 0 -88 17.5t-70.5 49t-47 74.5t-17.5 95q0 47 17.5 96t47 89t67.5 65.5t81 25.5q49 0 98 -35t88 -96.5t63.5 -145t24.5 -182.5q0 -92 -18.5 -146t-59.5 -89q-77 -66 -197 -98.5t-280 -32.5
q-22 0 -38.5 21.5t-16.5 60.5q0 38 16.5 58.5t38.5 20.5q158 0 280 27t193 80zM138 537q22 -48 66 -70.5t101 -22.5q37 0 76 10.5t56 22.5q-15 86 -65 133t-101 47q-47 0 -82 -33.5t-51 -86.5zM236 1176q-12 4 -32.5 17t-40 30.5t-35 34t-21.5 26.5l98 121
q19 -29 56.5 -63.5t68.5 -51.5zM365 965q-29 12 -62.5 36.5t-58.5 51.5l-70 -103q-32 15 -72 42.5t-65 62.5l94 125q21 -27 51.5 -55.5t59.5 -45.5l80 115q26 -31 67 -60.5t70 -43.5z" />
    <glyph glyph-name="uni06A8.medi" unicode="&#x6a8;" horiz-adv-x="729" 
d="M219 174q-34 39 -55.5 95.5t-21.5 105.5q0 37 7 68.5t25 70.5q37 78 95.5 127t121.5 49q35 0 73 -22.5t68.5 -61.5t50 -91t19.5 -114q0 -53 -34.5 -115.5t-81.5 -107.5q41 -10 99 -20.5t144 -10.5q23 0 42.5 -20.5t19.5 -58.5q0 -39 -19.5 -60.5t-42.5 -21.5
q-221 0 -385 82q-71 -37 -155 -59.5t-189 -22.5q-26 0 -40.5 21.5t-14.5 58.5q0 32 15.5 56.5t39.5 24.5q72 0 128.5 8.5t90.5 18.5zM357 223q26 15 53 33t50.5 39.5t41.5 43t29 40.5q-8 31 -25.5 60.5t-41 53t-49.5 38t-50 14.5q-14 0 -36 -12.5t-44.5 -32t-43 -44
t-30.5 -50.5q6 -62 49 -111t97 -72zM342 1028q-12 4 -32.5 17.5t-40 31t-35 33.5t-21.5 27l99 120q18 -28 56 -63t69 -51zM471 817q-28 12 -62 37t-58 51l-70 -102q-33 14 -73 41.5t-64 62.5l94 125q20 -26 51 -55t59 -45l80 115q27 -31 68 -61t70 -44z" />
    <glyph glyph-name="uni06A8.fina" unicode="&#x6a8;" horiz-adv-x="1081" 
d="M198 223q-16 -39 -24.5 -97t-8.5 -118q0 -71 18.5 -127.5t59.5 -96.5t105.5 -61.5t158.5 -21.5q144 0 251.5 37t172.5 96q2 12 3 33.5l2 43t2 42t1 33.5q-90 0 -157.5 21.5t-112.5 56t-66.5 78.5t-21.5 89q0 48 17.5 97t47 89t66.5 64.5t76 24.5q41 0 82 -27.5t73.5 -76
t55 -114t26.5 -141.5h56q22 0 41.5 -20.5t19.5 -58.5q0 -39 -19.5 -60.5t-41.5 -21.5h-56q-2 -62 -8 -106t-18.5 -78.5t-33 -63.5t-50.5 -60q-64 -63 -178.5 -105t-272.5 -42q-200 0 -296.5 102.5t-96.5 272.5q0 51 8 100t21.5 90t29 69t31.5 38zM644 238q23 -39 88.5 -65
t139.5 -26h69q-14 89 -60 147t-105 58q-43 0 -81 -34.5t-51 -79.5zM757 821q-12 4 -32.5 17t-40 30.5t-35 34t-21.5 26.5l98 121q19 -29 57 -63.5t68 -51.5zM886 610q-29 12 -62.5 36.5t-58.5 51.5l-69 -103q-33 15 -73 42.5t-65 62.5l95 125q20 -27 51 -55.5t59 -45.5
l80 115q27 -31 68 -60.5t69 -43.5z" />
    <glyph glyph-name="uni06AA.init" unicode="&#x6aa;" horiz-adv-x="2158" 
d="M134 147q1395 0 1866 135q-49 129 -328 129q-143 0 -465 -29q-321 -28 -493 -28q-348 0 -478 47q-88 33 -88 125q0 71 70 164q207 278 651 374l-35 -164q-384 -89 -585 -360q109 -33 375 -33q234 0 553 29t468 29q208 0 326 -67q117 -67 117 -181q0 -132 -123 -180
q-381 -152 -1831 -152h-76l-58 1q-24 0 -39.5 20.5t-15.5 61.5t15.5 60t39.5 19h134z" />
    <glyph glyph-name="uni06AA.medi" unicode="&#x6aa;" horiz-adv-x="2355" 
d="M73 147l88 1q1395 0 1866 135q-49 129 -328 129q-143 0 -465 -29q-321 -28 -493 -28q-348 0 -478 47q-88 33 -88 125q0 71 70 164q207 278 651 374l-35 -164q-384 -89 -585 -360q109 -33 375 -33q234 0 553 29t468 29q205 0 326 -69q117 -65 117 -169q0 -53 -21 -94
q41 -60 146 -80q36 -8 94 -7h21q22 0 41.5 -20.5t19.5 -58.5q0 -39 -19.5 -60.5t-41.5 -21.5h-21q-40 0 -75 6q-12 2 -23 5q-138 32 -191 167q-277 -178 -1884 -178h-161q-24 0 -39.5 20.5t-15.5 61.5t15.5 60t39.5 19h73z" />
    <glyph glyph-name="uni06AA.fina" unicode="&#x6aa;" horiz-adv-x="2548" 
d="M2245 167q-110 -72 -559 -125q-410 -49 -779 -49q-475 0 -688 16l-141 170q374 -24 831 -24q854 0 1317 131q-49 129 -329 129q-144 0 -465 -29q-321 -28 -494 -28q-347 0 -477 47q-88 33 -88 125q0 71 70 164q207 278 651 374l-35 -164q-384 -89 -586 -360
q109 -33 375 -33q234 0 553 29t469 29q204 0 327 -69q117 -65 117 -169q0 -53 -20 -94q46 -68 173 -83q24 -5 67 -7h14q22 0 41.5 -20.5t19.5 -58.5q0 -39 -19.5 -60.5t-41.5 -21.5q-44 0 -83 6q-162 27 -220 175z" />
    <glyph glyph-name="uni06AB.init" unicode="&#x6ab;" horiz-adv-x="897" 
d="M750 1010l-590 -164q195 -197 275.5 -342.5t80.5 -227.5q0 -24 -8 -50.5t-21.5 -53.5t-30.5 -48.5t-38 -35.5q-37 -25 -87 -44t-105.5 -32.5t-113.5 -19.5t-112 -6q-24 0 -39.5 20.5t-15.5 61.5t15.5 60t39.5 19q176 0 274.5 19.5t153.5 52.5q-4 27 -31.5 86.5t-76.5 135
t-120 163.5t-157 174q0 76 40 133.5t132 81.5l617 168zM195 1219l690 196h12l-51 -106l-686 -193h-10z" />
    <glyph glyph-name="uni06AB.medi" unicode="&#x6ab;" horiz-adv-x="841" 
d="M750 1012l-590 -166l315 -434q60 -80 106 -132.5t86 -81t77 -40t86 -11.5h18q23 0 42.5 -20.5t19.5 -58.5q0 -39 -19.5 -60.5t-42.5 -21.5h-31q-106 0 -188 56t-168 196q-72 -252 -461 -252q-26 0 -40.5 21.5t-14.5 55.5q0 37 15.5 60.5t39.5 23.5q166 0 257 26t120 67
q-4 32 -22.5 75t-56.5 105.5t-100.5 149.5t-154.5 208q0 76 40 133.5t132 81.5l617 168zM195 1200l690 197h12l-51 -107l-686 -192h-10z" />
    <glyph glyph-name="uni06AB.fina" unicode="&#x6ab;" horiz-adv-x="1576" 
d="M194 547q-8 -23 -11 -51.5t-3 -53.5q0 -80 18.5 -137t64.5 -96t122 -57.5t190 -18.5q129 0 222.5 7t156 21.5t100 34t58.5 44.5q-4 32 -22.5 75t-56.5 105.5t-100.5 149.5t-154.5 208q0 76 40 133.5t132 81.5l617 168l-82 -149l-590 -166l315 -434q51 -72 94 -122t82 -82
t76 -46.5t80 -14.5h35q22 0 41.5 -20.5t19.5 -58.5q0 -39 -19.5 -60.5t-41.5 -21.5h-39q-39 0 -80 11t-84 40t-88 77t-90 124q-37 -132 -156 -193q-63 -35 -192 -58.5t-297 -23.5q-127 0 -215 22.5t-141.5 66.5t-77 108.5t-23.5 148.5q0 39 5 75t14.5 65.5t19.5 50t22 26.5
l39 21v0zM932 1200l690 197h12l-51 -107l-686 -192h-10z" />
    <glyph glyph-name="uni06AC.init" unicode="&#x6ac;" horiz-adv-x="899" 
d="M772 1122l-686 -299q101 -71 180.5 -143t135 -138.5t84 -126t28.5 -102.5q0 -14 -4 -39.5t-14 -54.5t-26.5 -57.5t-39.5 -50.5q-28 -29 -65 -51.5t-87 -39t-118 -25.5t-160 -9q-24 0 -39.5 20.5t-15.5 61.5t15.5 60t39.5 19q95 0 163.5 6.5t118.5 19.5t87 33.5t70 47.5
q-52 96 -126.5 182t-162.5 146l-39 -66q-60 74 -85.5 138.5t-25.5 119.5q0 70 23.5 117t89.5 76l725 331zM135 1153q-12 4 -32.5 17t-40 30.5t-35 34t-21.5 26.5l98 121q19 -29 56.5 -63.5t68.5 -51.5z" />
    <glyph glyph-name="uni06AC.medi" unicode="&#x6ac;" horiz-adv-x="841" 
d="M746 1165l-660 -297l398 -460q69 -80 122.5 -131.5t94.5 -80t74.5 -39t66.5 -10.5q23 0 42 -20.5t19 -58.5q0 -39 -19 -60.5t-42 -21.5q-66 0 -120 15t-107.5 53t-112.5 100.5t-133 154.5q-4 -47 -21.5 -98t-50.5 -98q-41 -60 -112.5 -93.5t-184.5 -33.5
q-26 0 -40.5 21.5t-14.5 55.5q0 37 15.5 60.5t39.5 23.5q113 0 184.5 32t104.5 81q-4 45 -15.5 87t-30.5 83t-49 85t-71 95q-61 76 -92 128.5t-31 99.5q0 39 7.5 65.5t21.5 46t35.5 33.5t50.5 29l696 329zM135 1165q-12 4 -32.5 17t-40 30.5t-35 34t-21.5 26.5l98 121
q19 -29 56.5 -63.5t68.5 -51.5z" />
    <glyph glyph-name="uni06AC.fina" unicode="&#x6ac;" horiz-adv-x="1241" 
d="M171 475q-6 -24 -10 -55t-4 -66q0 -123 66.5 -190.5t205.5 -67.5q86 0 166 12.5t150.5 35t128 51t98.5 63.5q0 320 -5 535t-24 364l121 115q6 -72 11.5 -161t8.5 -191.5t4 -214t1 -226.5q0 -110 9 -176.5t28.5 -100.5t48.5 -44.5t65 -10.5q23 0 42.5 -20.5t19.5 -58.5
q0 -39 -19.5 -60.5t-42.5 -21.5q-116 0 -179.5 50t-80.5 167l-49 -119q-80 -66 -221 -112t-322 -46q-147 0 -232 79t-85 233q0 77 18.5 139.5t42.5 77.5zM329 393v8q100 15 159.5 25t91.5 17.5t41 10.5t9 7q0 6 -17.5 20.5t-72.5 48.5q-29 19 -44 30t-22.5 20.5t-9.5 15.5
t-2 14q0 23 15 58q34 77 108 125.5t152 48.5l-45 -103q-93 -14 -128.5 -37.5t-35.5 -42.5q0 -10 19.5 -21t66.5 -42q57 -37 76.5 -56.5t19.5 -41.5q0 -49 -40 -91t-126 -55l-113 -16zM1016 1364q-12 4 -32.5 17t-40 30.5t-35 34t-21.5 26.5l98 121q19 -29 56.5 -63.5
t68.5 -51.5z" />
    <glyph glyph-name="uni06AE.init" unicode="&#x6ae;" horiz-adv-x="899" 
d="M772 1122l-686 -299q101 -71 180.5 -143t135 -138.5t84 -126t28.5 -102.5q0 -14 -4 -39.5t-14 -54.5t-26.5 -57.5t-39.5 -50.5q-28 -29 -65 -51.5t-87 -39t-118 -25.5t-160 -9q-24 0 -39.5 20.5t-15.5 61.5t15.5 60t39.5 19q95 0 163.5 6.5t118.5 19.5t87 33.5t70 47.5
q-52 96 -126.5 182t-162.5 146l-39 -66q-60 74 -85.5 138.5t-25.5 119.5q0 70 23.5 117t89.5 76l725 331zM347 -602q-37 14 -74 40.5t-59 55.5l86 119q24 -31 62 -55.5t79 -38.5zM404 -385q-28 12 -62 36.5t-59 51.5l-69 -102q-33 14 -73 41.5t-64 62.5l94 125
q20 -27 51 -55.5t59 -44.5l80 114q27 -30 68 -60t69 -44z" />
    <glyph glyph-name="uni06AE.medi" unicode="&#x6ae;" horiz-adv-x="841" 
d="M746 1165l-660 -297l398 -460q69 -80 122.5 -131.5t94.5 -80t74.5 -39t66.5 -10.5q23 0 42 -20.5t19 -58.5q0 -39 -19 -60.5t-42 -21.5q-66 0 -120 15t-107.5 53t-112.5 100.5t-133 154.5q-4 -47 -21.5 -98t-50.5 -98q-41 -60 -112.5 -93.5t-184.5 -33.5
q-26 0 -40.5 21.5t-14.5 55.5q0 37 15.5 60.5t39.5 23.5q113 0 184.5 32t104.5 81q-4 45 -15.5 87t-30.5 83t-49 85t-71 95q-61 76 -92 128.5t-31 99.5q0 39 7.5 65.5t21.5 46t35.5 33.5t50.5 29l696 329zM347 -602q-37 14 -74 40.5t-59 55.5l86 119q24 -31 62 -55.5
t79 -38.5zM404 -385q-28 12 -62 36.5t-59 51.5l-69 -102q-33 14 -73 41.5t-64 62.5l94 125q20 -27 51 -55.5t59 -44.5l80 114q27 -30 68 -60t69 -44z" />
    <glyph glyph-name="uni06AE.fina" unicode="&#x6ae;" horiz-adv-x="1241" 
d="M171 475q-6 -24 -10 -55t-4 -66q0 -123 66.5 -190.5t205.5 -67.5q86 0 166 12.5t150.5 35t128 51t98.5 63.5q0 320 -5 535t-24 364l121 115q6 -72 11.5 -161t8.5 -191.5t4 -214t1 -226.5q0 -110 9 -176.5t28.5 -100.5t48.5 -44.5t65 -10.5q23 0 42.5 -20.5t19.5 -58.5
q0 -39 -19.5 -60.5t-42.5 -21.5q-116 0 -179.5 50t-80.5 167l-49 -119q-80 -66 -221 -112t-322 -46q-147 0 -232 79t-85 233q0 77 18.5 139.5t42.5 77.5zM329 393v8q100 15 159.5 25t91.5 17.5t41 10.5t9 7q0 6 -17.5 20.5t-72.5 48.5q-29 19 -44 30t-22.5 20.5t-9.5 15.5
t-2 14q0 23 15 58q34 77 108 125.5t152 48.5l-45 -103q-93 -14 -128.5 -37.5t-35.5 -42.5q0 -10 19.5 -21t66.5 -42q57 -37 76.5 -56.5t19.5 -41.5q0 -49 -40 -91t-126 -55l-113 -16zM596 -602q-37 14 -74 40.5t-59 55.5l86 119q24 -31 62 -55.5t79 -38.5zM653 -385
q-28 12 -62 36.5t-59 51.5l-69 -102q-33 14 -73 41.5t-64 62.5l94 125q20 -27 51 -55.5t59 -44.5l80 114q27 -30 68 -60t69 -44z" />
    <glyph glyph-name="uni06B0.init" unicode="&#x6b0;" horiz-adv-x="897" 
d="M502 940q-39 -30 -55 -61t-16 -64q0 -32 23 -48.5t52 -16.5q34 0 61 11.5t42 32.5q-11 43 -39 83t-68 63zM195 1219l690 196h12l-51 -106l-686 -193h-10zM419 918l-259 -72q195 -197 275.5 -342.5t80.5 -227.5q0 -24 -8 -50.5t-21.5 -53.5t-30.5 -48.5t-38 -35.5
q-37 -25 -87 -44t-105.5 -32.5t-113.5 -19.5t-112 -6q-24 0 -39.5 20.5t-15.5 61.5t15.5 60t39.5 19q176 0 274.5 19.5t153.5 52.5q-4 27 -31.5 86.5t-76.5 135t-120 163.5t-157 174q0 76 40 133.5t132 81.5l617 168l-82 -151l-156 -43q7 -9 13 -17q21 -30 33.5 -63.5
t12.5 -63.5q0 -34 -11 -62.5t-30.5 -49t-47 -31.5t-59.5 -11q-58 0 -92.5 36t-34.5 92q0 47 27 98q6 12 14 23z" />
    <glyph glyph-name="uni06B0.medi" unicode="&#x6b0;" horiz-adv-x="841" 
d="M502 940q-39 -30 -55 -61t-16 -64q0 -32 23 -48.5t52 -16.5q34 0 61 11.5t42 32.5q-11 43 -39 83t-68 63zM195 1200l690 197h12l-51 -107l-686 -192h-10zM420 919l-260 -73l315 -434q60 -80 106 -132.5t86 -81t77 -40t86 -11.5h18q23 0 42.5 -20.5t19.5 -58.5
q0 -39 -19.5 -60.5t-42.5 -21.5h-31q-106 0 -188 56t-168 196q-72 -252 -461 -252q-26 0 -40.5 21.5t-14.5 55.5q0 37 15.5 60.5t39.5 23.5q166 0 257 26t120 67q-4 32 -22.5 75t-56.5 105.5t-100.5 149.5t-154.5 208q0 76 40 133.5t132 81.5l617 168l-82 -149l-157 -44
l14 -18q21 -30 33.5 -63.5t12.5 -63.5q0 -34 -11 -62.5t-30.5 -49t-47 -31.5t-59.5 -11q-58 0 -92.5 36t-34.5 92q0 47 27 98q7 12 15 24z" />
    <glyph glyph-name="uni06B0.fina" unicode="&#x6b0;" horiz-adv-x="1576" 
d="M1252 940q-39 -30 -55 -61t-16 -64q0 -32 23 -48.5t52 -16.5q34 0 61 11.5t42 32.5q-11 43 -39 83t-68 63zM932 1200l690 197h12l-51 -107l-686 -192h-10zM1174 924l-279 -78l315 -434q51 -72 94 -122t82 -82t76 -46.5t80 -14.5h35q22 0 41.5 -20.5t19.5 -58.5
q0 -39 -19.5 -60.5t-41.5 -21.5h-39q-39 0 -80 11t-84 40t-88 77t-90 124q-37 -132 -156 -193q-63 -35 -192 -58.5t-297 -23.5q-127 0 -215 22.5t-141.5 66.5t-77 108.5t-23.5 148.5q0 39 5 75t14.5 65.5t19.5 50t22 26.5l39 21q-8 -23 -11 -51.5t-3 -53.5q0 -80 18.5 -137
t64.5 -96t122 -57.5t190 -18.5q129 0 222.5 7t156 21.5t100 34t58.5 44.5q-4 32 -22.5 75t-56.5 105.5t-100.5 149.5t-154.5 208q0 76 40 133.5t132 81.5l617 168l-82 -149l-145 -41q9 -10 17 -21q21 -30 33.5 -63.5t12.5 -63.5q0 -34 -11 -62.5t-30.5 -49t-47 -31.5
t-59.5 -11q-58 0 -92.5 36t-34.5 92q0 47 27 98q8 15 19 29z" />
    <glyph glyph-name="uni06B2.init" unicode="&#x6b2;" horiz-adv-x="897" 
d="M750 1010l-590 -164q195 -197 275.5 -342.5t80.5 -227.5q0 -24 -8 -50.5t-21.5 -53.5t-30.5 -48.5t-38 -35.5q-37 -25 -87 -44t-105.5 -32.5t-113.5 -19.5t-112 -6q-24 0 -39.5 20.5t-15.5 61.5t15.5 60t39.5 19q176 0 274.5 19.5t153.5 52.5q-4 27 -31.5 86.5t-76.5 135
t-120 163.5t-157 174q0 76 40 133.5t132 81.5l617 168zM195 1219l690 196h12l-51 -106l-686 -193h-10zM404 -385q-28 12 -62 36.5t-59 51.5l-69 -102q-33 14 -73 41.5t-64 62.5l94 125q20 -27 51 -55.5t59 -44.5l80 114q27 -30 68 -60t69 -44z" />
    <glyph glyph-name="uni06B2.medi" unicode="&#x6b2;" horiz-adv-x="841" 
d="M750 1012l-590 -166l315 -434q60 -80 106 -132.5t86 -81t77 -40t86 -11.5h18q23 0 42.5 -20.5t19.5 -58.5q0 -39 -19.5 -60.5t-42.5 -21.5h-31q-106 0 -188 56t-168 196q-72 -252 -461 -252q-26 0 -40.5 21.5t-14.5 55.5q0 37 15.5 60.5t39.5 23.5q166 0 257 26t120 67
q-4 32 -22.5 75t-56.5 105.5t-100.5 149.5t-154.5 208q0 76 40 133.5t132 81.5l617 168zM195 1200l690 197h12l-51 -107l-686 -192h-10zM404 -385q-28 12 -62 36.5t-59 51.5l-69 -102q-33 14 -73 41.5t-64 62.5l94 125q20 -27 51 -55.5t59 -44.5l80 114q27 -30 68 -60
t69 -44z" />
    <glyph glyph-name="uni06B2.fina" unicode="&#x6b2;" horiz-adv-x="1576" 
d="M194 547q-8 -23 -11 -51.5t-3 -53.5q0 -80 18.5 -137t64.5 -96t122 -57.5t190 -18.5q129 0 222.5 7t156 21.5t100 34t58.5 44.5q-4 32 -22.5 75t-56.5 105.5t-100.5 149.5t-154.5 208q0 76 40 133.5t132 81.5l617 168l-82 -149l-590 -166l315 -434q51 -72 94 -122t82 -82
t76 -46.5t80 -14.5h35q22 0 41.5 -20.5t19.5 -58.5q0 -39 -19.5 -60.5t-41.5 -21.5h-39q-39 0 -80 11t-84 40t-88 77t-90 124q-37 -132 -156 -193q-63 -35 -192 -58.5t-297 -23.5q-127 0 -215 22.5t-141.5 66.5t-77 108.5t-23.5 148.5q0 39 5 75t14.5 65.5t19.5 50t22 26.5
l39 21v0zM932 1200l690 197h12l-51 -107l-686 -192h-10zM813 -385q-28 12 -62 36.5t-59 51.5l-69 -102q-33 14 -73 41.5t-64 62.5l94 125q20 -27 51 -55.5t59 -44.5l80 114q27 -30 68 -60t69 -44z" />
    <glyph glyph-name="uni06B4.init" unicode="&#x6b4;" horiz-adv-x="897" 
d="M750 1010l-590 -164q195 -197 275.5 -342.5t80.5 -227.5q0 -24 -8 -50.5t-21.5 -53.5t-30.5 -48.5t-38 -35.5q-37 -25 -87 -44t-105.5 -32.5t-113.5 -19.5t-112 -6q-24 0 -39.5 20.5t-15.5 61.5t15.5 60t39.5 19q176 0 274.5 19.5t153.5 52.5q-4 27 -31.5 86.5t-76.5 135
t-120 163.5t-157 174q0 76 40 133.5t132 81.5l617 168zM195 1219l690 196h12l-51 -106l-686 -193h-10zM254 1560q-12 4 -32.5 17t-40 30.5t-35 34t-21.5 26.5l98 121q19 -29 56.5 -63.5t68.5 -51.5zM383 1349q-29 12 -62.5 36.5t-58.5 51.5l-70 -103q-32 15 -72 42.5
t-65 62.5l94 125q21 -27 51.5 -55.5t59.5 -45.5l80 115q26 -31 67 -60.5t70 -43.5z" />
    <glyph glyph-name="uni06B4.medi" unicode="&#x6b4;" horiz-adv-x="841" 
d="M750 1012l-590 -166l315 -434q60 -80 106 -132.5t86 -81t77 -40t86 -11.5h18q23 0 42.5 -20.5t19.5 -58.5q0 -39 -19.5 -60.5t-42.5 -21.5h-31q-106 0 -188 56t-168 196q-72 -252 -461 -252q-26 0 -40.5 21.5t-14.5 55.5q0 37 15.5 60.5t39.5 23.5q166 0 257 26t120 67
q-4 32 -22.5 75t-56.5 105.5t-100.5 149.5t-154.5 208q0 76 40 133.5t132 81.5l617 168zM195 1200l690 197h12l-51 -107l-686 -192h-10zM254 1560q-12 4 -32.5 17t-40 30.5t-35 34t-21.5 26.5l98 121q19 -29 56.5 -63.5t68.5 -51.5zM383 1349q-29 12 -62.5 36.5t-58.5 51.5
l-70 -103q-32 15 -72 42.5t-65 62.5l94 125q21 -27 51.5 -55.5t59.5 -45.5l80 115q26 -31 67 -60.5t70 -43.5z" />
    <glyph glyph-name="uni06B4.fina" unicode="&#x6b4;" horiz-adv-x="1576" 
d="M194 547q-8 -23 -11 -51.5t-3 -53.5q0 -80 18.5 -137t64.5 -96t122 -57.5t190 -18.5q129 0 222.5 7t156 21.5t100 34t58.5 44.5q-4 32 -22.5 75t-56.5 105.5t-100.5 149.5t-154.5 208q0 76 40 133.5t132 81.5l617 168l-82 -149l-590 -166l315 -434q51 -72 94 -122t82 -82
t76 -46.5t80 -14.5h35q22 0 41.5 -20.5t19.5 -58.5q0 -39 -19.5 -60.5t-41.5 -21.5h-39q-39 0 -80 11t-84 40t-88 77t-90 124q-37 -132 -156 -193q-63 -35 -192 -58.5t-297 -23.5q-127 0 -215 22.5t-141.5 66.5t-77 108.5t-23.5 148.5q0 39 5 75t14.5 65.5t19.5 50t22 26.5
l39 21v0zM932 1200l690 197h12l-51 -107l-686 -192h-10zM974 1560q-12 4 -32.5 17t-40 30.5t-35 34t-21.5 26.5l98 121q19 -29 56.5 -63.5t68.5 -51.5zM1103 1349q-29 12 -62.5 36.5t-58.5 51.5l-70 -103q-32 15 -72 42.5t-65 62.5l94 125q21 -27 51.5 -55.5t59.5 -45.5
l80 115q26 -31 67 -60.5t70 -43.5z" />
    <glyph glyph-name="uni06B5.init" unicode="&#x6b5;" horiz-adv-x="438" 
d="M232 1272q6 -29 20.5 -63.5t32.5 -66.5t38.5 -60.5t43.5 -45.5l-107 -67q2 -74 6.5 -160t8.5 -172t11 -165t7 -136q0 -60 -11 -127.5t-44 -120.5q-35 -53 -94.5 -77.5t-143.5 -24.5q-22 0 -38.5 22.5t-16.5 59.5q0 34 15.5 56.5t39.5 22.5q123 0 187 35q0 94 -9.5 215
t-19.5 240q-14 141 -24.5 262t-14.5 199q-4 16 -8 35.5t-4 35.5zM426 1607q-136 -136 -189 -244l-28 -16q-77 137 -203 260l47 125q117 -141 156 -276h8q36 149 151 284z" />
    <glyph glyph-name="uni06B5.medi" unicode="&#x6b5;" horiz-adv-x="471" 
d="M187 279q-2 157 -4 286t-5.5 235.5t-9.5 194.5t-14 162l117 115q8 -72 13 -164t8 -196.5t4 -215t1 -217.5q0 -110 9.5 -176.5t29 -100.5t55 -44.5t80.5 -10.5q23 0 41.5 -20.5t18.5 -58.5q0 -39 -18.5 -60.5t-41.5 -21.5q-227 0 -264 192q-31 -100 -88 -146t-119 -46
q-24 0 -39.5 20.5t-15.5 59.5q0 34 16.5 57.5t38.5 23.5q60 0 106 27t81 105zM446 1607q-136 -136 -189 -244l-28 -16q-77 137 -203 260l47 125q117 -141 156 -276h8q36 149 151 284z" />
    <glyph glyph-name="uni06B5.fina" unicode="&#x6b5;" horiz-adv-x="1044" 
d="M177 162q-10 -29 -15 -64t-5 -88q0 -114 57.5 -171.5t161.5 -57.5q119 0 226.5 26.5t179.5 77.5q0 246 -5.5 426.5t-13.5 327.5q-6 137 -11 260t-5 258l139 115v-866q0 -148 36 -203.5t122 -55.5q22 0 41.5 -20.5t19.5 -58.5q0 -39 -19.5 -60.5t-41.5 -21.5
q-68 0 -107 25.5t-61 72.5q0 -43 -3 -97.5t-16 -109.5q-12 -61 -60 -110.5t-116.5 -84t-149.5 -53t-159 -18.5q-147 0 -224 80t-77 231q0 78 22.5 140.5t45.5 76.5zM1005 1607q-136 -136 -189 -244l-28 -16q-77 137 -203 260l47 125q117 -141 156 -276h8q36 149 151 284z
" />
    <glyph glyph-name="uni06B6.init" unicode="&#x6b6;" horiz-adv-x="438" 
d="M232 1272q6 -29 20.5 -63.5t32.5 -66.5t38.5 -60.5t43.5 -45.5l-107 -67q2 -74 6.5 -160t8.5 -172t11 -165t7 -136q0 -60 -11 -127.5t-44 -120.5q-35 -53 -94.5 -77.5t-143.5 -24.5q-22 0 -38.5 22.5t-16.5 59.5q0 34 15.5 56.5t39.5 22.5q123 0 187 35q0 94 -9.5 215
t-19.5 240q-14 141 -24.5 262t-14.5 199q-4 16 -8 35.5t-4 35.5zM234 1352q-12 4 -32.5 17t-40 30.5t-34.5 34t-22 26.5l99 121q18 -29 56 -63.5t69 -51.5z" />
    <glyph glyph-name="uni06B6.medi" unicode="&#x6b6;" horiz-adv-x="471" 
d="M187 279q-2 157 -4 286t-5.5 235.5t-9.5 194.5t-14 162l117 115q8 -72 13 -164t8 -196.5t4 -215t1 -217.5q0 -110 9.5 -176.5t29 -100.5t55 -44.5t80.5 -10.5q23 0 41.5 -20.5t18.5 -58.5q0 -39 -18.5 -60.5t-41.5 -21.5q-227 0 -264 192q-31 -100 -88 -146t-119 -46
q-24 0 -39.5 20.5t-15.5 59.5q0 34 16.5 57.5t38.5 23.5q60 0 106 27t81 105zM264 1352q-12 4 -32.5 17t-40 30.5t-34.5 34t-22 26.5l99 121q18 -29 56 -63.5t69 -51.5z" />
    <glyph glyph-name="uni06B6.fina" unicode="&#x6b6;" horiz-adv-x="1044" 
d="M177 162q-10 -29 -15 -64t-5 -88q0 -114 57.5 -171.5t161.5 -57.5q119 0 226.5 26.5t179.5 77.5q0 246 -5.5 426.5t-13.5 327.5q-6 137 -11 260t-5 258l139 115v-866q0 -148 36 -203.5t122 -55.5q22 0 41.5 -20.5t19.5 -58.5q0 -39 -19.5 -60.5t-41.5 -21.5
q-68 0 -107 25.5t-61 72.5q0 -43 -3 -97.5t-16 -109.5q-12 -61 -60 -110.5t-116.5 -84t-149.5 -53t-159 -18.5q-147 0 -224 80t-77 231q0 78 22.5 140.5t45.5 76.5zM833 1352q-12 4 -32.5 17t-40 30.5t-34.5 34t-22 26.5l99 121q18 -29 56 -63.5t69 -51.5z" />
    <glyph glyph-name="uni06B7.init" unicode="&#x6b7;" horiz-adv-x="504" 
d="M298 1272q6 -29 20.5 -63.5t32.5 -66.5t38.5 -60.5t43.5 -45.5l-107 -67q2 -74 6.5 -160t8.5 -172t11 -165t7 -136q0 -60 -11 -127.5t-44 -120.5q-35 -53 -94.5 -77.5t-213.5 -24.5q-22 0 -38.5 22.5t-16.5 59.5q0 34 15.5 56.5t39.5 22.5q193 0 257 35q0 94 -9.5 215
t-19.5 240q-14 141 -24.5 262t-14.5 199q-4 16 -8 35.5t-4 35.5zM210 1560q-12 4 -32.5 17t-40 30.5t-35 34t-21.5 26.5l98 121q19 -29 57 -63.5t68 -51.5zM339 1349q-29 12 -62.5 36.5t-58.5 51.5l-69 -103q-33 15 -73 42.5t-65 62.5l95 125q20 -27 51 -55.5t59 -45.5
l80 115q27 -31 68 -60.5t69 -43.5z" />
    <glyph glyph-name="uni06B7.medi" unicode="&#x6b7;" horiz-adv-x="471" 
d="M187 279q-2 157 -4 286t-5.5 235.5t-9.5 194.5t-14 162l117 115q8 -72 13 -164t8 -196.5t4 -215t1 -217.5q0 -110 9.5 -176.5t29 -100.5t55 -44.5t80.5 -10.5q23 0 41.5 -20.5t18.5 -58.5q0 -39 -18.5 -60.5t-41.5 -21.5q-227 0 -264 192q-31 -100 -88 -146t-119 -46
q-24 0 -39.5 20.5t-15.5 59.5q0 34 16.5 57.5t38.5 23.5q60 0 106 27t81 105zM224 1560q-12 4 -32.5 17t-40 30.5t-35 34t-21.5 26.5l98 121q19 -29 57 -63.5t68 -51.5zM353 1349q-29 12 -62.5 36.5t-58.5 51.5l-69 -103q-33 15 -73 42.5t-65 62.5l95 125q20 -27 51 -55.5
t59 -45.5l80 115q27 -31 68 -60.5t69 -43.5z" />
    <glyph glyph-name="uni06B7.fina" unicode="&#x6b7;" horiz-adv-x="1044" 
d="M177 162q-10 -29 -15 -64t-5 -88q0 -114 57.5 -171.5t161.5 -57.5q119 0 226.5 26.5t179.5 77.5q0 246 -5.5 426.5t-13.5 327.5q-6 137 -11 260t-5 258l139 115v-866q0 -148 36 -203.5t122 -55.5q22 0 41.5 -20.5t19.5 -58.5q0 -39 -19.5 -60.5t-41.5 -21.5
q-68 0 -107 25.5t-61 72.5q0 -43 -3 -97.5t-16 -109.5q-12 -61 -60 -110.5t-116.5 -84t-149.5 -53t-159 -18.5q-147 0 -224 80t-77 231q0 78 22.5 140.5t45.5 76.5zM783 1560q-12 4 -32.5 17t-40 30.5t-35 34t-21.5 26.5l98 121q19 -29 57 -63.5t68 -51.5zM912 1349
q-29 12 -62.5 36.5t-58.5 51.5l-69 -103q-33 15 -73 42.5t-65 62.5l95 125q20 -27 51 -55.5t59 -45.5l80 115q27 -31 68 -60.5t69 -43.5z" />
    <glyph glyph-name="uni06B8.init" unicode="&#x6b8;" horiz-adv-x="579" 
d="M373 1272q6 -29 20.5 -63.5t32.5 -66.5t38.5 -60.5t43.5 -45.5l-107 -67q2 -74 6.5 -160t8.5 -172t11 -165t7 -136q0 -60 -11 -127.5t-44 -120.5q-35 -53 -94.5 -77.5t-283.5 -24.5q-22 0 -38.5 22.5t-16.5 59.5q0 34 15.5 56.5t39.5 22.5q263 0 327 35q0 94 -9.5 215
t-19.5 240q-14 141 -24.5 262t-14.5 199q-4 16 -8 35.5t-4 35.5zM308 -602q-37 14 -74 40.5t-59 55.5l86 119q24 -31 62 -55.5t79 -38.5zM365 -385q-28 12 -62 36.5t-59 51.5l-69 -102q-33 14 -73 41.5t-64 62.5l94 125q20 -27 51 -55.5t59 -44.5l80 114q27 -30 68 -60
t69 -44z" />
    <glyph glyph-name="uni06B8.medi" unicode="&#x6b8;" horiz-adv-x="471" 
d="M187 279q-2 157 -4 286t-5.5 235.5t-9.5 194.5t-14 162l117 115q8 -72 13 -164t8 -196.5t4 -215t1 -217.5q0 -110 9.5 -176.5t29 -100.5t55 -44.5t80.5 -10.5q23 0 41.5 -20.5t18.5 -58.5q0 -39 -18.5 -60.5t-41.5 -21.5q-227 0 -264 192q-31 -100 -88 -146t-119 -46
q-24 0 -39.5 20.5t-15.5 59.5q0 34 16.5 57.5t38.5 23.5q60 0 106 27t81 105zM277 -602q-37 14 -74 40.5t-59 55.5l86 119q24 -31 62 -55.5t79 -38.5zM334 -385q-28 12 -62 36.5t-59 51.5l-69 -102q-33 14 -73 41.5t-64 62.5l94 125q20 -27 51 -55.5t59 -44.5l80 114
q27 -30 68 -60t69 -44z" />
    <glyph glyph-name="uni06B8.fina" unicode="&#x6b8;" horiz-adv-x="1044" 
d="M177 162q-10 -29 -15 -64t-5 -88q0 -114 57.5 -171.5t161.5 -57.5q119 0 226.5 26.5t179.5 77.5q0 246 -5.5 426.5t-13.5 327.5q-6 137 -11 260t-5 258l139 115v-866q0 -148 36 -203.5t122 -55.5q22 0 41.5 -20.5t19.5 -58.5q0 -39 -19.5 -60.5t-41.5 -21.5
q-68 0 -107 25.5t-61 72.5q0 -43 -3 -97.5t-16 -109.5q-12 -61 -60 -110.5t-116.5 -84t-149.5 -53t-159 -18.5q-147 0 -224 80t-77 231q0 78 22.5 140.5t45.5 76.5zM557 -899q-37 14 -74 40.5t-59 55.5l86 119q24 -31 62 -55.5t79 -38.5zM614 -682q-28 12 -62 36.5t-59 51.5
l-69 -102q-33 14 -73 41.5t-64 62.5l94 125q20 -27 51 -55.5t59 -44.5l80 114q27 -30 68 -60t69 -44z" />
    <glyph glyph-name="uni06B9.init" unicode="&#x6b9;" horiz-adv-x="471" 
d="M283 678q45 -66 69.5 -151t24.5 -169q0 -55 -19.5 -120.5t-62.5 -126.5q-41 -64 -120.5 -94.5t-174.5 -30.5q-22 0 -38.5 17t-16.5 63q0 36 14.5 58.5t40.5 22.5q90 0 158 16.5t123 49.5q-12 90 -41 167t-64 122zM248 801q-33 14 -73 45t-64 65l100 123q25 -33 66 -63.5
t69 -46.5zM250 -389q-32 14 -72 45t-65 65l101 123q24 -32 65 -63t70 -47z" />
    <glyph glyph-name="uni06B9.medi" unicode="&#x6b9;" horiz-adv-x="624" 
d="M301 446q35 -157 114 -228t210 -71q22 0 41.5 -20.5t19.5 -58.5q0 -39 -19.5 -60.5t-41.5 -21.5q-129 0 -210 48t-128 150q-45 -94 -115.5 -146t-171.5 -52q-22 0 -38.5 20.5t-16.5 61.5q0 38 15.5 58.5t39.5 20.5q78 0 141.5 30t110.5 104l-12 90zM287 594
q-33 14 -73 45t-64 66l100 122q25 -32 66 -63t69 -47zM306 -389q-33 14 -73 45t-64 65l100 123q25 -32 66 -63t69 -47z" />
    <glyph glyph-name="uni06B9.fina" unicode="&#x6b9;" horiz-adv-x="1064" 
d="M485 453q-33 14 -72.5 44.5t-64.5 65.5l100 123q25 -33 66 -63.5t69 -47.5zM178 260q-16 -39 -24.5 -98.5t-8.5 -118.5q0 -154 72 -230.5t231 -76.5q123 0 225.5 41t155.5 112q-10 119 -32.5 207t-53.5 148l96 133q48 -111 107 -170.5t119 -59.5q22 0 41.5 -22.5
t19.5 -61.5q0 -38 -19.5 -57.5t-41.5 -19.5q-51 0 -86 18.5t-56 42.5l-2 -2q2 -92 -13 -159.5t-54 -129.5q-49 -78 -157.5 -134t-272.5 -56q-191 0 -282 100.5t-91 272.5q0 53 8 103t21.5 90t29 67.5t31.5 38.5zM501 -779q-33 14 -73 45t-65 66l101 122q24 -32 65 -63
t70 -47z" />
    <glyph glyph-name="uni06BC.init" unicode="&#x6bc;" horiz-adv-x="471" 
d="M248 801q-33 14 -73 45t-64 65l100 123q25 -33 66 -63.5t69 -46.5zM127 1h-3q-37 -30 -53 -60q-16 -31 -16 -64q0 -32 23 -48.5t52 -16.5q34 0 61 11.5t42 32.5q-11 43 -39 83q-28 39 -67 62zM49 -12q-24 -2 -49 -2q-22 0 -38.5 17t-16.5 63q0 36 14.5 58.5t40.5 22.5
q90 0 158 16.5t123 49.5q-12 90 -41 167t-64 122l107 176q45 -66 69.5 -151t24.5 -169q0 -55 -19.5 -120.5t-62.5 -126.5q-30 -47 -82 -77l18 -22q21 -30 33.5 -63.5t12.5 -63.5q0 -34 -11 -62.5t-30.5 -49t-47 -31.5t-59.5 -11q-58 0 -92.5 36t-34.5 92q0 47 27 98
q9 16 20 31z" />
    <glyph glyph-name="uni06BC.medi" unicode="&#x6bc;" horiz-adv-x="624" 
d="M287 594q-33 14 -73 45t-64 66l100 122q25 -32 66 -63t69 -47zM127 12q-2 -1 -3 -2q-37 -29 -53 -59q-16 -31 -16 -64q0 -32 23 -48.5t52 -16.5q34 0 61 11.5t42 32.5q-11 43 -39 83t-67 63zM42 -12q-20 -2 -42 -2t-38.5 20.5t-16.5 61.5q0 38 15.5 58.5t39.5 20.5
q78 0 141.5 30t110.5 104l-12 90l61 75q35 -157 114 -228t210 -71q22 0 41.5 -20.5t19.5 -58.5q0 -39 -19.5 -60.5t-41.5 -21.5q-129 0 -210 48t-128 150q-36 -75 -89 -124q18 -18 33 -38q21 -30 33.5 -63.5t12.5 -63.5q0 -34 -11 -62.5t-30.5 -49t-47 -31.5t-59.5 -11
q-58 0 -92.5 36t-34.5 92q0 47 27 98q6 11 13 21z" />
    <glyph glyph-name="uni06BC.fina" unicode="&#x6bc;" horiz-adv-x="1064" 
d="M485 453q-33 14 -72.5 44.5t-64.5 65.5l100 123q25 -33 66 -63.5t69 -47.5zM477 -432q-2 -1 -4 -1q-37 -29 -53 -59q-16 -31 -16 -64q0 -32 23 -48.5t52 -16.5q34 0 61 11.5t42 32.5q-11 43 -39 83q-27 39 -66 62zM407 -434q-178 5 -265 101q-91 100 -91 272q0 53 8 103
t21.5 90t29 67.5t31.5 38.5l37 22q-16 -39 -24.5 -98.5t-8.5 -118.5q0 -154 72 -230.5t231 -76.5q123 0 225.5 41t155.5 112q-10 119 -32.5 207t-53.5 148l96 133q48 -111 107 -170.5t119 -59.5q22 0 41.5 -22.5t19.5 -61.5q0 -38 -19.5 -57.5t-41.5 -19.5q-51 0 -86 18.5
t-56 42.5l-2 -2q2 -92 -13 -159.5t-54 -129.5q-49 -78 -157 -134q-53 -27 -119 -41l2 -2q21 -30 33.5 -63.5t12.5 -63.5q0 -34 -11 -62.5t-30.5 -49t-47 -31.5t-59.5 -11q-58 0 -92.5 36t-34.5 92q0 47 27 98q12 22 29 42z" />
    <glyph glyph-name="uni06BD.init" unicode="&#x6bd;" horiz-adv-x="471" 
d="M283 678q45 -66 69.5 -151t24.5 -169q0 -55 -19.5 -120.5t-62.5 -126.5q-41 -64 -120.5 -94.5t-174.5 -30.5q-22 0 -38.5 17t-16.5 63q0 36 14.5 58.5t40.5 22.5q90 0 158 16.5t123 49.5q-12 90 -41 167t-64 122zM226 1026q-13 4 -33.5 17.5t-40 31t-34.5 33.5t-21 27
l98 120q18 -28 56 -63t69 -51zM355 815q-29 12 -63 37t-58 51l-70 -102q-33 14 -73 41.5t-64 62.5l94 125q21 -26 51.5 -55t59.5 -45l80 114q26 -30 67 -60t70 -44z" />
    <glyph glyph-name="uni06BD.medi" unicode="&#x6bd;" horiz-adv-x="624" 
d="M301 446q35 -157 114 -228t210 -71q22 0 41.5 -20.5t19.5 -58.5q0 -39 -19.5 -60.5t-41.5 -21.5q-129 0 -210 48t-128 150q-45 -94 -115.5 -146t-171.5 -52q-22 0 -38.5 20.5t-16.5 61.5q0 38 15.5 58.5t39.5 20.5q78 0 141.5 30t110.5 104l-12 90zM269 819
q-13 4 -33.5 17.5t-40 31t-34.5 34t-21 26.5l98 121q18 -29 56 -64t69 -51zM398 608q-29 13 -63 37.5t-58 50.5l-70 -102q-33 14 -72.5 42t-64.5 62l94 125q21 -26 51.5 -55t59.5 -45l80 115q26 -31 67 -60.5t70 -44.5z" />
    <glyph glyph-name="uni06BD.fina" unicode="&#x6bd;" horiz-adv-x="1064" 
d="M178 260q-16 -39 -24.5 -98.5t-8.5 -118.5q0 -154 72 -230.5t231 -76.5q123 0 225.5 41t155.5 112q-10 119 -32.5 207t-53.5 148l96 133q48 -111 107 -170.5t119 -59.5q22 0 41.5 -22.5t19.5 -61.5q0 -38 -19.5 -57.5t-41.5 -19.5q-51 0 -86 18.5t-56 42.5l-2 -2
q2 -92 -13 -159.5t-54 -129.5q-49 -78 -157.5 -134t-272.5 -56q-191 0 -282 100.5t-91 272.5q0 53 8 103t21.5 90t29 67.5t31.5 38.5zM452 671q-12 4 -32.5 17.5t-40 31t-35 33.5t-21.5 27l99 120q18 -28 56 -63t68 -51zM581 460q-28 12 -62 37t-59 51l-69 -102
q-33 14 -73 41.5t-64 62.5l94 125q20 -26 51 -55t59 -45l80 114q27 -30 68 -60t70 -44z" />
    <glyph glyph-name="uni06BF.init" unicode="&#x6bf;" horiz-adv-x="1034" 
d="M0 -14q-22 0 -38.5 18.5t-16.5 61.5q0 36 14.5 58.5t40.5 22.5q193 0 369 46.5t309 132.5q-41 24 -90 47.5t-100 45t-99.5 39t-85.5 27.5q-51 -10 -109.5 -32.5t-109.5 -51.5q-10 17 -10 35q0 23 16.5 50.5t63.5 68.5q49 45 94 64.5t88 19.5q21 0 43.5 -5t53 -19.5
t72.5 -37t102 -57.5q69 -41 117 -64.5t89 -36.5t83 -17.5t98 -4.5l-54 -151q-59 0 -107 -4t-99.5 -16.5t-109.5 -36t-140 -64.5q-84 -43 -150.5 -70.5t-123 -43t-108 -20.5t-102.5 -5zM615 -602q-37 14 -74 40.5t-59 55.5l86 119q24 -31 62 -55.5t79 -38.5zM672 -385
q-29 12 -62.5 36.5t-58.5 51.5l-69 -102q-33 14 -73 41.5t-65 62.5l95 125q20 -27 50.5 -55.5t59.5 -44.5l80 114q27 -30 68 -60t69 -44zM314 801q-33 14 -73 45t-65 65l101 123q24 -33 65 -63.5t70 -46.5z" />
    <glyph glyph-name="uni06BF.medi" unicode="&#x6bf;" horiz-adv-x="1130" 
d="M97 383q-7 8 -10 18.5t-3 20.5q0 22 15.5 54t48.5 71q41 49 90 73.5t84 24.5q43 0 101.5 -19.5t156.5 -66.5q55 -24 100 -40.5t94.5 -26t106.5 -15.5t143 -6l-51 -143q-86 0 -124 -4.5t-66 -16.5q-2 -4 -2 -10v-10q0 -43 24.5 -70t65.5 -42t114.5 -21.5t145.5 -6.5
q22 0 41.5 -20.5t19.5 -58.5q0 -39 -19.5 -60.5t-41.5 -21.5q-221 0 -318.5 62.5t-97.5 166.5q0 33 10 74q-16 -8 -36.5 -19.5t-49 -30t-67.5 -45t-92 -63.5q-60 -41 -114 -68.5t-108.5 -44t-112 -24.5t-145.5 -8q-22 0 -38.5 20.5t-16.5 59.5q0 81 55 81q117 0 198 12.5
t156.5 39t151.5 70.5t164 106q-88 47 -184.5 76.5t-180.5 37.5q-49 -14 -105 -43.5t-103 -62.5zM615 -602q-37 14 -74 40.5t-59 55.5l86 119q24 -31 62 -55.5t79 -38.5zM672 -385q-29 12 -62.5 36.5t-58.5 51.5l-69 -102q-33 14 -73 41.5t-65 62.5l95 125q20 -27 50.5 -55.5
t59.5 -44.5l80 114q27 -30 68 -60t69 -44zM338 801q-33 14 -72.5 45t-64.5 65l100 123q25 -33 66 -63.5t70 -46.5z" />
    <glyph glyph-name="uni06BF.fina" unicode="&#x6bf;" horiz-adv-x="1056" 
d="M91 393q-14 19 -14 37q0 49 63 125q43 51 92.5 75.5t83.5 24.5q43 0 101.5 -19.5t157.5 -66.5q55 -24 100 -40.5t94 -25.5t106.5 -13.5t135.5 -4.5l-51 -143q-58 0 -114 -6t-87 -12q-10 -103 66.5 -140t230.5 -37q22 0 41.5 -20.5t19.5 -58.5q0 -39 -19.5 -60.5
t-41.5 -21.5q-197 0 -280 66.5t-83 172.5q0 23 4.5 47.5t10.5 40.5q-88 -22 -186.5 -68t-180.5 -114t-136 -157t-54 -195q0 -156 129 -245t362 -89q129 0 240.5 15.5t189.5 43.5l-8 -43q-4 -18 -46 -48.5t-112.5 -61.5t-164 -53.5t-197.5 -22.5q-117 0 -210 26.5t-158.5 81
t-100.5 133t-35 183.5q0 131 44 238.5t121 193.5t180.5 152.5t221.5 119.5q-73 43 -151 66t-156 31q-49 -15 -105.5 -44.5t-103.5 -62.5zM613 -444q-36 14 -73 40.5t-60 55.5l86 119q25 -31 63 -55.5t79 -39.5zM671 -227q-29 12 -62.5 36.5t-58.5 51.5l-70 -103
q-32 15 -72 42.5t-65 62.5l94 125q21 -27 51.5 -55.5t59.5 -45.5l80 115q26 -31 67 -60.5t70 -43.5zM327 801q-33 14 -73 45t-64 65l100 123q24 -33 65 -63.5t70 -46.5z" />
    <glyph glyph-name="uni06C2.fina" unicode="&#x6c2;" horiz-adv-x="727" 
d="M391 744q49 0 93 -29v-1q0 -5 -45 -73h-2q-32 18 -61 18q-57 0 -97 -56l-3 -10q48 -45 115 -45h9q57 0 151 51v-2q-24 -98 -27 -100q-61 -12 -211 -84q-56 -33 -78 -48q-5 0 -6 27q0 48 65 82q18 8 18 9q-87 21 -87 86q0 108 97 160q31 15 69 15zM768 127q19 -21 19 -59
q0 -39 -19.5 -60.5t-41.5 -21.5h-15q-94 0 -184 70q-63 47 -108 47q-119 0 -260 -168q-13 -19 -20 -19l-63 -10q-1 3 -1 4q38 80 103 170q141 174 266 174h7q57 0 153 -68q51 -39 123 -39q21 0 41 -20z" />
    <glyph glyph-name="uni06C3.fina" unicode="&#x6c3;" horiz-adv-x="727" 
d="M768 127q19 -21 19 -59q0 -39 -19.5 -60.5t-41.5 -21.5h-15q-94 0 -184 70q-63 47 -108 47q-119 0 -260 -168q-13 -19 -20 -19l-63 -10q-1 3 -1 4q38 80 103 170q141 174 266 174h7q57 0 153 -68q51 -39 123 -39q21 0 41 -20zM496 460q-29 12 -63 37t-58 51l-70 -102
q-33 14 -73 41.5t-64 62.5l94 125q21 -26 51.5 -55t59.5 -45l80 114q26 -30 67 -60t70 -44z" />
    <glyph glyph-name="uni06C4.fina" unicode="&#x6c4;" horiz-adv-x="743" 
d="M256 238q18 -39 74.5 -65t130.5 -26h86q-15 89 -61 147t-105 58q-43 0 -79 -32.5t-46 -81.5zM313 -236q4 2 8 5q7 4 14 11q23 23 23 56q0 34 -23.5 57.5t-56.5 23.5t-56.5 -23.5t-23.5 -57.5q0 -33 23.5 -56.5t56.5 -23.5q19 0 35 8zM405 -175q47 38 77 75q36 45 48 86
q-88 2 -152.5 23.5t-107.5 55t-63.5 76.5t-20.5 90q0 48 17.5 97t47.5 89t66.5 64.5t73.5 24.5q43 0 84 -26.5t75 -75t57.5 -114t29.5 -143.5h106q23 0 42.5 -20.5t19.5 -58.5q0 -39 -19.5 -60.5t-42.5 -21.5h-118q-25 -123 -106 -233.5t-218 -182.5l-262 33l-29 41
q124 33 215 75q-20 9 -37 26q-37 37 -37 90q0 52 37 89.5t90 37.5t90 -37.5t37 -89.5v-10z" />
    <glyph glyph-name="uni06CA.fina" unicode="&#x6ca;" horiz-adv-x="743" 
d="M10 -356q127 34 219 77t154.5 88.5t98.5 90.5t48 86q-88 2 -152.5 23.5t-107.5 55t-63.5 76.5t-20.5 90q0 48 17.5 97t47 89t66.5 64.5t74 24.5q43 0 84 -26.5t74.5 -75t57.5 -114t30 -143.5h106q23 0 42.5 -20.5t19.5 -58.5q0 -39 -19.5 -60.5t-42.5 -21.5h-119
q-24 -123 -105 -233.5t-218 -182.5l-262 33zM256 238q18 -39 74.5 -65t130.5 -26h86q-15 89 -61 147t-105 58q-43 0 -79 -32.5t-46 -81.5zM508 654q-29 12 -63 37t-58 51l-70 -102q-33 14 -73 41.5t-64 62.5l94 125q21 -26 51.5 -55t59.5 -45l80 114q26 -30 67 -60t70 -44z
" />
    <glyph glyph-name="uni06CD.fina" unicode="&#x6cd;" horiz-adv-x="1482" 
d="M440 199q-16 -41 -24.5 -85t-8.5 -104q0 -76 22.5 -136t73 -102t131 -64.5t195.5 -22.5q119 0 201 6t136 16t86 26.5t50 37.5q-4 10 -22.5 15t-42.5 5h-185q-84 0 -120.5 21.5t-36.5 68.5q0 49 37.5 104.5t99.5 92.5q33 20 69.5 33.5t87 21.5t121 11t172.5 3
q23 0 42.5 -20.5t19.5 -58.5q0 -39 -19.5 -60.5t-42.5 -21.5h-24q-33 0 -80 3t-92 7q-37 4 -77 6t-56 2q-64 0 -106 -25.5t-62 -58.5q16 -8 36.5 -11t61.5 -3h154q157 0 157 -60q0 -43 -30.5 -99t-85.5 -107q-66 -54 -188 -89.5t-302 -35.5q-244 0 -359.5 112.5
t-115.5 300.5q0 90 28 158q3 8 6 15q-160 -67 -264 -126l-6 6l42 137q205 97 325 147l15 -18q-11 -25 -19 -48z" />
    <glyph glyph-name="uni06CE.init" unicode="&#x6ce;" horiz-adv-x="473" 
d="M283 678q45 -66 69.5 -151t24.5 -169q0 -55 -19.5 -120.5t-62.5 -126.5q-41 -64 -120.5 -94.5t-174.5 -30.5q-22 0 -38.5 17t-16.5 63q0 36 14.5 58.5t40.5 22.5q90 0 158 16.5t123 49.5q-12 90 -41 167t-64 122zM329 -385q-29 12 -63 36.5t-58 51.5l-70 -102
q-33 14 -72.5 41.5t-64.5 62.5l94 125q21 -27 51.5 -55.5t59.5 -44.5l80 114q26 -30 67 -60t70 -44z" />
    <glyph glyph-name="uni06CE.medi" unicode="&#x6ce;" horiz-adv-x="624" 
d="M301 446q35 -157 114 -228t210 -71q22 0 41.5 -20.5t19.5 -58.5q0 -39 -19.5 -60.5t-41.5 -21.5q-129 0 -210 48t-128 150q-45 -94 -115.5 -146t-171.5 -52q-22 0 -38.5 20.5t-16.5 61.5q0 38 15.5 58.5t39.5 20.5q78 0 141.5 30t110.5 104l-12 90zM409 -385
q-29 12 -62.5 36.5t-58.5 51.5l-70 -102q-32 14 -72 41.5t-65 62.5l94 125q21 -27 51.5 -55.5t59.5 -44.5l80 114q26 -30 67 -60t70 -44z" />
    <glyph glyph-name="uni06CE.fina" unicode="&#x6ce;" horiz-adv-x="1263" 
d="M221 199q-16 -41 -24.5 -85t-8.5 -104q0 -76 22.5 -136t73 -102t131 -64.5t195.5 -22.5q119 0 201 6t136 16t86 26.5t50 37.5q-4 10 -22.5 15t-42.5 5h-185q-84 0 -120.5 21.5t-36.5 68.5q0 49 37.5 104.5t99.5 92.5q33 20 69.5 33.5t87 21.5t121 11t172.5 3
q23 0 42.5 -20.5t19.5 -58.5q0 -39 -19.5 -60.5t-42.5 -21.5h-24q-33 0 -80 3t-92 7q-37 4 -77 6t-56 2q-64 0 -106 -25.5t-62 -58.5q16 -8 36.5 -11t61.5 -3h154q157 0 157 -60q0 -43 -30.5 -99t-85.5 -107q-66 -54 -188 -89.5t-302 -35.5q-244 0 -359.5 112.5
t-115.5 300.5q0 90 27.5 158t60.5 88l39 25v0zM621 554q-136 -136 -189 -244l-28 -16q-77 137 -203 260l47 125q117 -141 156 -276h8q36 149 151 284z" />
    <glyph glyph-name="uni06CF.fina" unicode="&#x6cf;" horiz-adv-x="743" 
d="M10 -356q127 34 219 77t154.5 88.5t98.5 90.5t48 86q-88 2 -152.5 23.5t-107.5 55t-63.5 76.5t-20.5 90q0 48 17.5 97t47 89t66.5 64.5t74 24.5q43 0 84 -26.5t74.5 -75t57.5 -114t30 -143.5h106q23 0 42.5 -20.5t19.5 -58.5q0 -39 -19.5 -60.5t-42.5 -21.5h-119
q-24 -123 -105 -233.5t-218 -182.5l-262 33zM256 238q18 -39 74.5 -65t130.5 -26h86q-15 89 -61 147t-105 58q-43 0 -79 -32.5t-46 -81.5zM411 650q-13 4 -33.5 17.5t-40 31t-34.5 33.5t-21 27l98 120q18 -28 56 -63t69 -51z" />
    <glyph glyph-name="uni06D1.init" unicode="&#x6d1;" horiz-adv-x="499" 
d="M283 678q45 -66 69.5 -151t24.5 -169q0 -55 -19.5 -120.5t-62.5 -126.5q-41 -64 -120.5 -94.5t-174.5 -30.5q-22 0 -38.5 17t-16.5 63q0 36 14.5 58.5t40.5 22.5q90 0 158 16.5t123 49.5q-12 90 -41 167t-64 122zM269 -602q-37 14 -74 40.5t-59 55.5l86 119
q25 -31 62.5 -55.5t78.5 -38.5zM326 -385q-28 12 -62 36.5t-58 51.5l-70 -102q-33 14 -73 41.5t-64 62.5l94 125q20 -27 51 -55.5t60 -44.5l79 114q27 -30 68 -60t70 -44z" />
    <glyph glyph-name="uni06D1.medi" unicode="&#x6d1;" horiz-adv-x="624" 
d="M301 446q35 -157 114 -228t210 -71q22 0 41.5 -20.5t19.5 -58.5q0 -39 -19.5 -60.5t-41.5 -21.5q-129 0 -210 48t-128 150q-45 -94 -115.5 -146t-171.5 -52q-22 0 -38.5 20.5t-16.5 61.5q0 38 15.5 58.5t39.5 20.5q78 0 141.5 30t110.5 104l-12 90zM337 -602
q-37 14 -74 40.5t-59 55.5l86 119q24 -31 62 -55.5t79 -38.5zM394 -385q-28 12 -62 36.5t-59 51.5l-69 -102q-33 14 -73 41.5t-64 62.5l94 125q20 -27 51 -55.5t59 -44.5l80 114q27 -30 68 -60t69 -44z" />
    <glyph glyph-name="uni06D1.fina" unicode="&#x6d1;" horiz-adv-x="1136" 
d="M215 205q-16 -41 -25.5 -82t-9.5 -100q0 -136 92 -211.5t281 -75.5q145 0 266 24.5t189 65.5q-52 45 -125.5 90t-139.5 70q11 34 26 68t26 55q20 8 46.5 15t64.5 12t91.5 8t126.5 3q23 0 42.5 -20.5t19.5 -58.5q0 -39 -19.5 -60.5t-42.5 -21.5h-131q45 -25 68.5 -62
t23.5 -61q0 -43 -26.5 -92.5t-65.5 -77.5q-65 -55 -195 -91t-307 -36q-198 0 -300.5 96t-102.5 272q0 91 27.5 158.5t60.5 87.5zM649 -959q-37 14 -74 40.5t-59 55.5l86 119q25 -31 62.5 -55.5t78.5 -38.5zM706 -742q-28 12 -62 36.5t-58 51.5l-70 -102q-33 14 -73 41.5
t-64 62.5l94 125q20 -27 51 -55.5t60 -44.5l79 114q27 -30 68 -60t70 -44z" />
    <glyph glyph-name="uni06D5.fina" unicode="&#x6d5;" horiz-adv-x="817" 
d="M483 838q18 -39 32.5 -79t28.5 -92.5t29.5 -119t32.5 -158.5q14 -74 30.5 -121t40 -73.5t57 -37t82.5 -10.5q23 0 42.5 -20.5t19.5 -58.5q0 -39 -19.5 -60.5t-42.5 -21.5q-129 0 -198.5 51t-102.5 180l-53 -53q-43 -45 -82 -59.5t-80 -14.5q-43 0 -84 17.5t-73.5 44
t-52 59.5t-19.5 63q0 27 13.5 67t35.5 69q23 30 102.5 83.5t221.5 112.5l-49 125zM468 504q-116 -41 -194 -79t-113 -71q23 -57 74 -92t131 -35q43 0 80 12.5t61 28.5q-8 60 -15 119t-24 117z" />
    <glyph glyph-name="uni06EE.fina" unicode="&#x6ee;" horiz-adv-x="985" 
d="M215 365q-6 -21 -8 -40.5t-2 -48.5q0 -59 43 -94t129 -35t147.5 25t102.5 68q-19 67 -46.5 189t-56.5 314l127 109q41 -371 90 -541q15 -47 33 -77.5t47 -50t69 -28t95 -8.5q22 0 41.5 -20.5t19.5 -58.5q0 -39 -19.5 -60.5t-41.5 -21.5q-78 0 -134 12t-97 37.5t-68 64.5
t-43 95l-53 -148q-45 -31 -100.5 -46t-135.5 -15q-98 0 -159.5 58t-61.5 155q0 57 15.5 94t33.5 49l33 23v0zM708 945q-115 136 -151 285h-8q-40 -136 -156 -277l-47 125q126 123 203 260l28 -16q53 -108 189 -244z" />
    <glyph glyph-name="uni06EF.fina" unicode="&#x6ef;" horiz-adv-x="804" 
d="M553 330q41 -51 72.5 -86t61.5 -56.5t57.5 -31t60.5 -9.5q22 0 41.5 -20.5t19.5 -58.5q0 -39 -19.5 -60.5t-41.5 -21.5q-41 0 -75 10t-66 33l-3 -2q15 -35 15 -86q0 -43 -17.5 -98.5t-54.5 -113t-93 -112.5t-134 -96l-262 33l-29 40q221 62 349 159t169 194
q-4 47 -32.5 108.5t-92.5 132.5zM695 430q-115 135 -151 284h-8q-39 -135 -156 -276l-47 125q126 123 203 260l28 -16q53 -108 189 -244z" />
    <glyph glyph-name="uni06FA.init" unicode="&#x6fa;" horiz-adv-x="1079" 
d="M883 594q25 -27 48.5 -63.5t39.5 -77.5t26.5 -82t10.5 -76t-7 -82t-32 -96q-33 -66 -63.5 -90.5t-65.5 -24.5q-66 0 -138.5 50t-119.5 145q-23 -58 -44.5 -96t-44 -60.5t-47 -31.5t-52.5 -9q-54 0 -101 42t-76 128q-28 -53 -56 -89t-53.5 -57.5t-52 -29.5t-55.5 -8
q-22 0 -39.5 18.5t-17.5 61.5q0 36 17.5 58.5t39.5 22.5q82 0 145.5 51.5t114.5 161.5l62 27l-17 -70q17 -75 53 -115t74 -40q19 0 38.5 12t40 40t43 74t48.5 115l66 27l-18 -78q34 -84 103 -136t169 -52q-6 78 -38 151.5t-75 122.5zM510 793q-12 4 -32.5 17t-40 30.5
t-35 34t-21.5 26.5l99 121q18 -29 56 -63.5t69 -51.5zM639 582q-28 12 -62 36.5t-59 51.5l-69 -103q-33 15 -73 42.5t-64 62.5l94 125q20 -27 51 -55.5t59 -45.5l80 115q27 -31 68 -60.5t70 -43.5zM622 -389q-33 14 -73 45t-64 65l100 123q25 -32 66 -63t69 -47z" />
    <glyph glyph-name="uni06FA.medi" unicode="&#x6fa;" horiz-adv-x="1191" 
d="M985 336q15 -96 70 -142.5t137 -46.5q23 0 42.5 -20.5t19.5 -58.5q0 -39 -19.5 -60.5t-42.5 -21.5q-102 0 -168.5 50t-87.5 138q-33 -92 -81 -131t-101 -39q-61 0 -97 40t-44 110q-45 -95 -91.5 -131.5t-105.5 -36.5q-68 0 -115 45t-65 125q-47 -95 -107.5 -132.5
t-128.5 -37.5q-20 0 -37.5 21.5t-17.5 60.5q0 32 16.5 55.5t38.5 23.5q88 0 152.5 42t116.5 141l59 14l-21 -61q17 -60 56 -98t92 -38t95 41t87 164l64 29l-13 -72q5 -63 30.5 -103t64.5 -40q106 0 149 227l70 29zM609 752q-13 4 -33.5 17t-40 30.5t-34.5 34t-21 26.5
l98 121q18 -29 56 -63.5t69 -51.5zM738 541q-29 12 -63 36.5t-58 51.5l-70 -103q-33 15 -73 42.5t-64 62.5l94 125q21 -27 51.5 -55.5t59.5 -45.5l80 115q26 -31 67 -60.5t70 -43.5zM648 -389q-33 14 -73 45t-64 65l100 123q25 -32 66 -63t69 -47z" />
    <glyph glyph-name="uni06FA.fina" unicode="&#x6fa;" horiz-adv-x="1718" 
d="M178 260q-16 -39 -24.5 -98.5t-8.5 -118.5q0 -154 72 -230.5t231 -76.5q123 0 225.5 41t155.5 112q-10 119 -32.5 207t-53.5 148l96 133q39 -111 93.5 -168t101.5 -57q45 0 80 40.5t76 159.5l63 29l-14 -72q4 -82 29.5 -122t66.5 -40q43 0 82 59.5t57 188.5l72 27
l-12 -86q6 -86 59 -137.5t125 -51.5q23 0 42.5 -20.5t19.5 -58.5q0 -39 -19.5 -60.5t-42.5 -21.5q-86 0 -149.5 46t-83.5 130q-29 -94 -71 -135t-103 -41q-56 0 -95 37.5t-53 115.5q-31 -80 -66.5 -114.5t-74.5 -34.5q-35 0 -59.5 16.5t-39.5 40.5l-2 -2q2 -92 -13 -159.5
t-54 -129.5q-49 -78 -157.5 -134t-272.5 -56q-193 0 -283 100.5t-90 274.5q0 53 8 102t21.5 89t29 67.5t31.5 38.5l37 22v0zM1147 752q-13 4 -33.5 17t-39.5 30.5t-34.5 34t-21.5 26.5l98 121q18 -29 56 -63.5t69 -51.5zM1276 541q-29 12 -63 36.5t-58 51.5l-70 -103
q-33 15 -72.5 42.5t-64.5 62.5l94 125q21 -27 51.5 -55.5t59.5 -45.5l80 115q26 -31 67 -60.5t70 -43.5zM1207 -389q-33 14 -73 45t-64 65l100 123q25 -32 66 -63t69 -47z" />
    <glyph glyph-name="uni06FB.init" unicode="&#x6fb;" horiz-adv-x="1271" 
d="M262 342q7 -18 22 -40.5t33.5 -45.5t38 -42t35.5 -30q52 86 121.5 168t145 146.5t154.5 103.5t151 39q47 0 90 -23.5t76 -63.5t52 -92t19 -112q0 -35 -27.5 -91t-72.5 -114q-29 -34 -83 -63t-123.5 -50.5t-146.5 -33.5t-149 -12q-112 0 -206.5 38.5t-161.5 133.5
q-35 -82 -91.5 -127t-138.5 -45q-22 0 -38.5 23.5t-16.5 58.5q0 30 16.5 54.5t38.5 24.5q78 0 129.5 34t94.5 128zM1100 250q-14 108 -65.5 168.5t-124.5 60.5q-45 0 -102.5 -27.5t-117 -71.5t-118 -101.5t-107.5 -118.5q23 -4 58.5 -8.5t74.5 -4.5q164 0 294 28t208 75z
M623 801q-33 14 -73 45t-64 65l100 123q25 -33 66 -63.5t69 -46.5zM623 -389q-33 14 -73 45t-64 65l100 123q25 -32 66 -63t69 -47z" />
    <glyph glyph-name="uni06FB.medi" unicode="&#x6fb;" horiz-adv-x="1259" 
d="M262 342q7 -18 22 -40.5t33.5 -45.5t38 -42t35.5 -30q52 86 121.5 168t145 146.5t154.5 103.5t151 39q47 0 90 -23.5t76 -63.5t52 -92t19 -112q0 -33 -23.5 -82t-62.5 -102q35 -10 67 -14.5t79 -4.5q22 0 41.5 -20.5t19.5 -58.5q0 -39 -19.5 -60.5t-41.5 -21.5
q-70 0 -126 23.5t-110 76.5q-41 -23 -91 -41t-106.5 -31.5t-114.5 -20.5t-114 -7q-112 0 -206.5 38.5t-161.5 133.5q-35 -82 -91.5 -127t-138.5 -45q-22 0 -38.5 23.5t-16.5 58.5q0 30 16.5 54.5t38.5 24.5q78 0 129.5 34t94.5 128zM1100 250q-14 108 -65.5 168.5
t-124.5 60.5q-45 0 -102.5 -27.5t-117 -71.5t-118 -101.5t-107.5 -118.5q23 -4 58.5 -8.5t74.5 -4.5q164 0 294 28t208 75zM623 801q-33 14 -73 45t-64 65l100 123q25 -33 66 -63.5t69 -46.5zM623 -389q-33 14 -73 45t-64 65l100 123q25 -32 66 -63t69 -47z" />
    <glyph glyph-name="uni06FB.fina" unicode="&#x6fb;" horiz-adv-x="1839" 
d="M1696 166q34 -10 65 -14.5t78 -4.5q22 0 41.5 -20.5t19.5 -58.5q0 -39 -19.5 -60.5t-41.5 -21.5q-70 0 -126 22.5t-112 75.5q-39 -23 -89 -41t-103 -30.5t-107.5 -19.5t-101.5 -7q-100 0 -168 17t-111 46v-10q0 -86 -15 -154.5t-52 -128.5q-49 -78 -157.5 -134
t-272.5 -56q-193 0 -283 100.5t-90 274.5q0 53 8 102t21.5 89t29 67.5t31.5 38.5l37 22q-16 -39 -24.5 -98.5t-8.5 -118.5q0 -154 72 -230.5t231 -76.5q123 0 225.5 41t155.5 112q-10 119 -32.5 207t-53.5 148l96 133q23 -60 54.5 -110t77.5 -83q51 86 120.5 168
t145.5 146.5t154.5 103.5t150.5 39q47 0 90 -23.5t76 -63.5t52.5 -92t19.5 -112q0 -33 -24 -82t-60 -102zM1679 250q-14 108 -65.5 168.5t-126.5 60.5q-45 0 -101.5 -27.5t-116 -71.5t-118 -101.5t-107.5 -118.5q23 -4 58.5 -8.5t74.5 -4.5q164 0 294 28t208 75zM1222 801
q-32 14 -72 45t-65 65l101 123q24 -33 65 -63.5t70 -46.5zM1222 -389q-33 14 -73 45t-64 65l100 123q25 -32 66 -63t69 -47z" />
    <glyph glyph-name="uni06FC.init" unicode="&#x6fc;" horiz-adv-x="872" 
d="M781 219q-152 -106 -353.5 -169.5t-427.5 -63.5q-22 0 -38.5 21.5t-16.5 62.5q0 39 16.5 58t38.5 19q123 0 199 6.5t131 20.5q-111 35 -174.5 110.5t-63.5 178.5q0 51 26 110.5t70 110.5t101 84t121 33q65 0 115.5 -44t115.5 -147l-30 -26q-45 34 -80 47.5t-88 13.5
q-33 0 -71 -8t-74 -22.5t-68.5 -32t-57.5 -37.5q15 -53 47.5 -100.5t78.5 -87.5t102.5 -70.5t117.5 -50.5q70 22 146 57t147 78zM391 936q-32 14 -72 45t-65 66l101 122q24 -32 65 -63t70 -47zM393 -389q-33 14 -73 45t-64 65l100 123q25 -32 66 -63t69 -47z" />
    <glyph glyph-name="uni06FC.medi" unicode="&#x6fc;" horiz-adv-x="774" 
d="M316 195q-23 41 -65 70.5t-93 49.5l33 117q65 21 117.5 31t121.5 10q62 0 107 -19.5t45 -50.5q0 -45 -24.5 -100t-84.5 -115q37 -16 104.5 -28.5t196.5 -12.5q23 0 42.5 -20.5t19.5 -58.5q0 -39 -19.5 -60.5t-42.5 -21.5q-69 0 -123.5 8t-99.5 23.5t-83 38t-72 53.5
q-172 -123 -396 -123q-20 0 -37.5 17t-17.5 60q0 39 15.5 61.5t39.5 22.5q109 0 190 12.5t126 35.5zM400 594q-33 14 -73 45t-65 66l101 122q24 -32 65 -63t70 -47zM393 -389q-33 14 -73 45t-64 65l100 123q25 -32 66 -63t69 -47z" />
    <glyph glyph-name="uni06FC.fina" unicode="&#x6fc;" horiz-adv-x="942" 
d="M344 432q65 21 117.5 31t122.5 10q61 0 106 -19.5t45 -50.5q0 -45 -24.5 -100t-83.5 -115q36 -18 116 -29.5t199 -11.5q22 0 41.5 -20.5t19.5 -58.5q0 -39 -19.5 -60.5t-41.5 -21.5q-70 0 -128 8t-106.5 26.5t-90.5 48t-87 70.5q-129 -55 -207.5 -147t-78.5 -217
q0 -66 26.5 -124.5t79.5 -101.5t134 -68.5t190 -25.5q86 0 156.5 11.5t160.5 44.5l-6 -35q-4 -23 -39 -55.5t-90 -62.5t-128 -51.5t-153 -21.5q-211 0 -326.5 113t-115.5 305q0 76 26.5 151.5t72.5 143.5t105.5 123t127.5 90q-19 29 -61 56.5t-93 47.5zM563 594
q-33 14 -73 45t-64 66l100 122q25 -32 66 -63t69 -47zM592 -340q-33 14 -73 44.5t-65 65.5l101 123q24 -33 65 -63.5t70 -47.5z" />
    <glyph glyph-name="uni06FF.init" unicode="&#x6ff;" horiz-adv-x="701" 
d="M148 147q59 -4 101 -4h4q147 0 219 33q12 56 12 97q0 85 -51 127q-14 6 -26 7q-77 0 -178 -125q-59 -82 -81 -135zM160 11q55 -58 90 -79q110 -73 200 -73q79 0 79 90q0 65 -62 140q-2 0 -9 9q-32 -20 -96 -42q-82 -25 -192 -43q-9 -2 -10 -2zM0 -14q-22 0 -38.5 22.5
t-16.5 57.5q0 36 17.5 58.5t37.5 22.5l64 1q2 1 24 55q44 93 117 189q115 143 218 171q17 4 28 4h8q68 0 109 -115q13 -50 13 -99v-10q0 -98 -56 -196q83 -103 83 -229q-3 -163 -103 -209q-25 -9 -53 -9h-6q-124 0 -277 168q-65 80 -89 125q-44 -6 -50.5 -6.5t-29.5 -0.5z
M559 631q-115 120 -151 251h-8q-39 -119 -156 -244l-47 111q126 109 203 230l28 -14q53 -96 189 -216z" />
    <glyph glyph-name="uni06FF.medi" unicode="&#x6ff;" horiz-adv-x="725" 
d="M148 147q59 -4 101 -4h4q147 0 219 33q12 56 12 97q0 85 -51 127q-14 6 -26 7q-77 0 -178 -125q-59 -82 -81 -135zM160 11q55 -58 90 -79q110 -73 200 -73q79 0 79 90q0 65 -62 140q-2 0 -9 9q-32 -20 -96 -42q-82 -25 -192 -43q-9 -2 -10 -2zM727 147q21 -1 40 -20
q19 -21 19 -59q0 -39 -19.5 -60.5t-41.5 -21.5q-26 -1 -40 3q-48 6 -92 34q15 -54 15 -105q-3 -163 -103 -209q-25 -9 -53 -9h-6q-124 0 -277 168q-65 80 -89 125q-44 -6 -50.5 -6.5t-29.5 -0.5q-22 0 -38.5 22.5t-16.5 57.5q0 36 17.5 58.5t37.5 22.5l64 1q2 1 24 55
q44 93 117 189q115 143 218 171q17 4 28 4h8q68 0 109 -115q13 -50 13 -99v-10q0 -80 -37 -160q35 -20 91 -30q25 -5 36.5 -5.5t55.5 -0.5zM559 631q-115 120 -151 251h-8q-39 -119 -156 -244l-47 111q126 109 203 230l28 -14q53 -96 189 -216z" />
    <glyph glyph-name="uni06FF.fina" unicode="&#x6ff;" horiz-adv-x="907" 
d="M326 148h5q144 0 304 31q19 3 19 18q8 44 8 74q0 85 -49 126q-10 8 -28 9q-95 0 -217 -179q-23 -36 -42 -79zM684 40q-14 24 -35 49l-8 8l-8 8q-34 -22 -119 -47q-73 -21 -175 -36v-2q55 -62 84 -80q109 -81 205 -81q57 0 72 43q7 22 7 47q0 45 -23 91zM750 452
q13 -50 13 -99v-10q0 -80 -37 -160q35 -20 91 -30q25 -5 36.5 -5.5t55.5 -0.5q21 -1 40 -20q19 -21 19 -59q0 -39 -19.5 -60.5t-41.5 -21.5q-26 -1 -40 3q-48 6 -92 34q15 -54 15 -105q-3 -163 -103 -209q-17 -6 -35 -8q-12 -2 -21 -2h-9q-139 0 -300 203q-37 54 -64 100h-2
q-41 -5 -54 -5h-4q-43 0 -97 75q-21 32 -25 56q6 9 23 9q126 9 145 9q25 66 61 132q42 72 114 157q125 131 211 131h11q29 0 53 -20q33 -28 56 -94zM759 631q-115 120 -151 251h-8q-39 -119 -156 -244l-47 111q126 109 203 230l28 -14q53 -96 189 -216z" />
    <glyph glyph-name="uniFB50" unicode="&#x671;" horiz-adv-x="409" arabic-form="isolated" 
d="M280 1178q0 -121 4 -247t8 -249q6 -117 10.5 -221.5t4.5 -190.5q0 -82 -3.5 -118.5t-11.5 -65.5q-8 -25 -22.5 -57.5t-30.5 -61.5h-41q0 219 -9 377t-22 291q-10 127 -17 239.5t-7 247.5l137 115v-59zM40 1260q-12 26 -12 51q0 35 20.5 57.5t55.5 28.5q24 86 73.5 132
t114.5 46q47 0 78 -34t31 -87q0 -57 -46 -95t-143 -38q-41 0 -67.5 -2t-46 -9t-32.5 -19.5t-26 -30.5zM145 1403q18 -4 38.5 -4h39.5q114 0 114 47q0 24 -19.5 37.5t-47.5 13.5q-35 0 -70 -24.5t-55 -69.5z" />
    <glyph glyph-name="uniFB51" unicode="&#x671;" horiz-adv-x="444" arabic-form="final" 
d="M242 1237q6 -72 11 -159t8 -184t4 -202.5t1 -212.5q0 -110 11.5 -176.5t34 -100.5t55 -44.5t77.5 -10.5q23 0 42.5 -20.5t19.5 -58.5q0 -39 -19.5 -60.5t-42.5 -21.5q-90 0 -146 25.5t-81 60.5q-16 22 -28.5 46.5t-19.5 66.5t-11 108.5t-4 173.5q0 174 -7.5 340
t-23.5 315zM16 1260q-12 26 -12 51q0 35 20.5 57.5t55.5 28.5q24 86 73.5 132t114.5 46q47 0 78 -34t31 -87q0 -57 -46 -95t-143 -38q-41 0 -67.5 -2t-46 -9t-32.5 -19.5t-26 -30.5zM121 1403q18 -4 38.5 -4h39.5q114 0 114 47q0 24 -19.5 37.5t-47.5 13.5q-35 0 -70 -24.5
t-55 -69.5z" />
    <glyph glyph-name="uniFB52" unicode="&#x67b;" horiz-adv-x="1595" arabic-form="isolated" 
d="M1427 733q18 -24 35.5 -63t31 -85t21.5 -95.5t8 -96.5q0 -69 -36 -139t-113 -123q-62 -41 -145 -72.5t-178 -53t-199.5 -32t-209.5 -10.5q-163 0 -273 21.5t-175.5 64.5t-94 108.5t-28.5 155.5q0 78 18.5 140.5t40.5 76.5l39 25q-4 -23 -8 -52.5t-4 -45.5
q0 -86 27.5 -147.5t91 -100.5t165 -57.5t248.5 -18.5q107 0 211.5 10.5t200.5 30t180 47t146 62.5q-13 75 -42.5 151t-64.5 123zM681 -381q-26 13 -55 36q-40 31 -64 65l100 123q25 -32 66 -63t69 -47l-98 -123h-1q22 -24 54 -48q41 -31 69 -47l-98 -123q-33 14 -73 45
t-64 65z" />
    <glyph glyph-name="uniFB53" unicode="&#x67b;" horiz-adv-x="1646" arabic-form="final" 
d="M173 555q-4 -23 -8 -52.5t-4 -45.5q0 -90 29.5 -151.5t94 -99.5t167 -55.5t250.5 -17.5q266 0 459.5 65.5t326.5 188.5l49 -8l-71 -105q28 -127 180 -127q22 0 41.5 -20.5t19.5 -58.5q0 -39 -19.5 -60.5t-41.5 -21.5q-113 0 -174.5 52t-61.5 183q-131 -117 -334.5 -187.5
t-465.5 -70.5q-154 0 -256.5 22.5t-165 66.5t-88 109.5t-25.5 151.5q0 78 18.5 140.5t40.5 76.5zM681 -381q-26 13 -55 36q-40 31 -64 65l100 123q25 -32 66 -63t69 -47l-98 -123h-1q22 -24 54 -48q41 -31 69 -47l-98 -123q-33 14 -73 45t-64 65z" />
    <glyph glyph-name="uniFB54" unicode="&#x67b;" horiz-adv-x="471" arabic-form="initial" 
d="M283 678q45 -66 69.5 -151t24.5 -169q0 -55 -19.5 -120.5t-62.5 -126.5q-41 -64 -120.5 -94.5t-174.5 -30.5q-22 0 -38.5 17t-16.5 63q0 36 14.5 58.5t40.5 22.5q90 0 158 16.5t123 49.5q-12 90 -41 167t-64 122zM192 -384q-26 13 -55 36q-40 31 -64 65l100 123
q25 -32 66 -63t69 -47l-98 -123h-1q22 -24 54 -48q41 -31 69 -47l-98 -123q-33 14 -73 45t-64 65z" />
    <glyph glyph-name="uniFB55" unicode="&#x67b;" horiz-adv-x="624" arabic-form="medial" 
d="M301 446q35 -157 114 -228t210 -71q22 0 41.5 -20.5t19.5 -58.5q0 -39 -19.5 -60.5t-41.5 -21.5q-129 0 -210 48t-128 150q-45 -94 -115.5 -146t-171.5 -52q-22 0 -38.5 20.5t-16.5 61.5q0 38 15.5 58.5t39.5 20.5q78 0 141.5 30t110.5 104l-12 90zM289 -384
q-26 13 -55 36q-40 31 -64 65l100 123q25 -32 66 -63t69 -47l-98 -123h-1q22 -24 54 -48q41 -31 69 -47l-98 -123q-33 14 -73 45t-64 65z" />
    <glyph glyph-name="uniFB56" unicode="&#x67e;" horiz-adv-x="1595" arabic-form="isolated" 
d="M1427 733q18 -24 35.5 -63t31 -85t21.5 -95.5t8 -96.5q0 -69 -36 -139t-113 -123q-62 -41 -145 -72.5t-178 -53t-199.5 -32t-209.5 -10.5q-163 0 -273 21.5t-175.5 64.5t-94 108.5t-28.5 155.5q0 78 18.5 140.5t40.5 76.5l39 25q-4 -23 -8 -52.5t-4 -45.5
q0 -86 27.5 -147.5t91 -100.5t165 -57.5t248.5 -18.5q107 0 211.5 10.5t200.5 30t180 47t146 62.5q-13 75 -42.5 151t-64.5 123zM741 -602q-37 14 -74 40.5t-59 55.5l86 119q24 -31 62 -55.5t79 -38.5zM798 -385q-29 12 -62.5 36.5t-58.5 51.5l-69 -102q-33 14 -73 41.5
t-65 62.5l95 125q20 -27 50.5 -55.5t59.5 -44.5l80 114q27 -30 68 -60t69 -44z" />
    <glyph glyph-name="uniFB57" unicode="&#x67e;" horiz-adv-x="1646" arabic-form="final" 
d="M173 555q-4 -23 -8 -52.5t-4 -45.5q0 -90 29.5 -151.5t94 -99.5t167 -55.5t250.5 -17.5q266 0 459.5 65.5t326.5 188.5l49 -8l-71 -105q28 -127 180 -127q22 0 41.5 -20.5t19.5 -58.5q0 -39 -19.5 -60.5t-41.5 -21.5q-113 0 -174.5 52t-61.5 183q-131 -117 -334.5 -187.5
t-465.5 -70.5q-154 0 -256.5 22.5t-165 66.5t-88 109.5t-25.5 151.5q0 78 18.5 140.5t40.5 76.5zM741 -602q-37 14 -74 40.5t-60 55.5l86 119q25 -31 63 -55.5t79 -38.5zM798 -385q-29 12 -62.5 36.5t-58.5 51.5l-70 -102q-32 14 -72 41.5t-65 62.5l94 125
q21 -27 51.5 -55.5t59.5 -44.5l80 114q27 -30 67.5 -60t69.5 -44z" />
    <glyph glyph-name="uniFB58" unicode="&#x67e;" horiz-adv-x="499" arabic-form="initial" 
d="M283 678q45 -66 69.5 -151t24.5 -169q0 -55 -19.5 -120.5t-62.5 -126.5q-41 -64 -120.5 -94.5t-174.5 -30.5q-22 0 -38.5 17t-16.5 63q0 36 14.5 58.5t40.5 22.5q90 0 158 16.5t123 49.5q-12 90 -41 167t-64 122zM269 -602q-37 14 -74 40.5t-59 55.5l86 119
q25 -31 62.5 -55.5t78.5 -38.5zM326 -385q-28 12 -62 36.5t-58 51.5l-70 -102q-33 14 -73 41.5t-64 62.5l94 125q20 -27 51 -55.5t60 -44.5l79 114q27 -30 68 -60t70 -44z" />
    <glyph glyph-name="uniFB59" unicode="&#x67e;" horiz-adv-x="624" arabic-form="medial" 
d="M301 446q35 -157 114 -228t210 -71q22 0 41.5 -20.5t19.5 -58.5q0 -39 -19.5 -60.5t-41.5 -21.5q-129 0 -210 48t-128 150q-45 -94 -115.5 -146t-171.5 -52q-22 0 -38.5 20.5t-16.5 61.5q0 38 15.5 58.5t39.5 20.5q78 0 141.5 30t110.5 104l-12 90zM337 -602
q-37 14 -74 40.5t-59 55.5l86 119q24 -31 62 -55.5t79 -38.5zM394 -385q-28 12 -62 36.5t-59 51.5l-69 -102q-33 14 -73 41.5t-64 62.5l94 125q20 -27 51 -55.5t59 -44.5l80 114q27 -30 68 -60t69 -44z" />
    <glyph glyph-name="uniFB5A" unicode="&#x680;" horiz-adv-x="1595" arabic-form="isolated" 
d="M1427 733q18 -24 35.5 -63t31 -85t21.5 -95.5t8 -96.5q0 -69 -36 -139t-113 -123q-62 -41 -145 -72.5t-178 -53t-199.5 -32t-209.5 -10.5q-163 0 -273 21.5t-175.5 64.5t-94 108.5t-28.5 155.5q0 78 18.5 140.5t40.5 76.5l39 25q-4 -23 -8 -52.5t-4 -45.5
q0 -86 27.5 -147.5t91 -100.5t165 -57.5t248.5 -18.5q107 0 211.5 10.5t200.5 30t180 47t146 62.5q-13 75 -42.5 151t-64.5 123zM800 -388q23 -23 55 -46q41 -30 69 -45l-94 -125q-28 13 -62 37.5t-59 50.5l-69 -102q-33 14 -73 42t-64 62l88 117q-27 13 -57 34
q-40 28 -64 62l94 125q20 -26 51 -55t59 -45l80 115q27 -31 68 -60.5t69 -44.5zM781 -383q-22 12 -46 30q-34 24 -59 50l-68 -100q17 -20 40 -41q31 -29 59 -45z" />
    <glyph glyph-name="uniFB5B" unicode="&#x680;" horiz-adv-x="1646" arabic-form="final" 
d="M173 555q-4 -23 -8 -52.5t-4 -45.5q0 -90 29.5 -151.5t94 -99.5t167 -55.5t250.5 -17.5q266 0 459.5 65.5t326.5 188.5l49 -8l-71 -105q28 -127 180 -127q22 0 41.5 -20.5t19.5 -58.5q0 -39 -19.5 -60.5t-41.5 -21.5q-113 0 -174.5 52t-61.5 183q-131 -117 -334.5 -187.5
t-465.5 -70.5q-154 0 -256.5 22.5t-165 66.5t-88 109.5t-25.5 151.5q0 78 18.5 140.5t40.5 76.5zM803 -385q23 -23 55 -46q41 -30 69 -45l-94 -125q-28 13 -62 37.5t-59 50.5l-69 -102q-33 14 -73 42t-64 62l88 117q-27 13 -57 34q-40 28 -64 62l94 125q20 -26 51 -55
t59 -45l80 115q27 -31 68 -60.5t69 -44.5zM784 -380q-22 12 -46 30q-34 24 -59 50l-68 -100q17 -20 40 -41q31 -29 59 -45z" />
    <glyph glyph-name="uniFB5C" unicode="&#x680;" horiz-adv-x="499" arabic-form="initial" 
d="M283 678q45 -66 69.5 -151t24.5 -169q0 -55 -19.5 -120.5t-62.5 -126.5q-41 -64 -120.5 -94.5t-174.5 -30.5q-22 0 -38.5 17t-16.5 63q0 36 14.5 58.5t40.5 22.5q90 0 158 16.5t123 49.5q-12 90 -41 167t-64 122zM330 -382q23 -23 55 -46q41 -30 69 -45l-94 -125
q-28 13 -62 37.5t-59 50.5l-69 -102q-33 14 -73 42t-64 62l88 117q-27 13 -57 34q-40 28 -64 62l94 125q20 -26 51 -55t59 -45l80 115q27 -31 68 -60.5t69 -44.5zM311 -377q-22 12 -46 30q-34 24 -59 50l-68 -100q17 -20 40 -41q31 -29 59 -45z" />
    <glyph glyph-name="uniFB5D" unicode="&#x680;" horiz-adv-x="624" arabic-form="medial" 
d="M301 446q35 -157 114 -228t210 -71q22 0 41.5 -20.5t19.5 -58.5q0 -39 -19.5 -60.5t-41.5 -21.5q-129 0 -210 48t-128 150q-45 -94 -115.5 -146t-171.5 -52q-22 0 -38.5 20.5t-16.5 61.5q0 38 15.5 58.5t39.5 20.5q78 0 141.5 30t110.5 104l-12 90zM398 -385
q23 -23 55 -46q41 -30 69 -45l-94 -125q-28 13 -62 37.5t-59 50.5l-69 -102q-33 14 -73 42t-64 62l88 117q-27 13 -57 34q-40 28 -64 62l94 125q20 -26 51 -55t59 -45l80 115q27 -31 68 -60.5t69 -44.5zM379 -380q-22 12 -46 30q-34 24 -59 50l-68 -100q17 -20 40 -41
q31 -29 59 -45z" />
    <glyph glyph-name="uniFB5E" unicode="&#x67a;" horiz-adv-x="1595" arabic-form="isolated" 
d="M1427 733q18 -24 35.5 -63t31 -85t21.5 -95.5t8 -96.5q0 -69 -36 -139t-113 -123q-62 -41 -145 -72.5t-178 -53t-199.5 -32t-209.5 -10.5q-163 0 -273 21.5t-175.5 64.5t-94 108.5t-28.5 155.5q0 78 18.5 140.5t40.5 76.5l39 25q-4 -23 -8 -52.5t-4 -45.5
q0 -86 27.5 -147.5t91 -100.5t165 -57.5t248.5 -18.5q107 0 211.5 10.5t200.5 30t180 47t146 62.5q-13 75 -42.5 151t-64.5 123zM722 828q-26 13 -55 36q-40 31 -64 65l100 123q25 -32 66 -63t69 -47l-98 -123h-1q22 -24 54 -48q41 -31 69 -47l-98 -123q-33 14 -73 45
t-64 65z" />
    <glyph glyph-name="uniFB5F" unicode="&#x67a;" horiz-adv-x="1646" arabic-form="final" 
d="M173 555q-4 -23 -8 -52.5t-4 -45.5q0 -90 29.5 -151.5t94 -99.5t167 -55.5t250.5 -17.5q266 0 459.5 65.5t326.5 188.5l49 -8l-71 -105q28 -127 180 -127q22 0 41.5 -20.5t19.5 -58.5q0 -39 -19.5 -60.5t-41.5 -21.5q-113 0 -174.5 52t-61.5 183q-131 -117 -334.5 -187.5
t-465.5 -70.5q-154 0 -256.5 22.5t-165 66.5t-88 109.5t-25.5 151.5q0 78 18.5 140.5t40.5 76.5zM762 828q-26 13 -55 36q-40 31 -64 65l100 123q25 -32 66 -63t69 -47l-98 -123h-1q22 -24 54 -48q41 -31 69 -47l-98 -123q-33 14 -73 45t-64 65z" />
    <glyph glyph-name="uniFB60" unicode="&#x67a;" horiz-adv-x="471" arabic-form="initial" 
d="M283 678q45 -66 69.5 -151t24.5 -169q0 -55 -19.5 -120.5t-62.5 -126.5q-41 -64 -120.5 -94.5t-174.5 -30.5q-22 0 -38.5 17t-16.5 63q0 36 14.5 58.5t40.5 22.5q90 0 158 16.5t123 49.5q-12 90 -41 167t-64 122zM220 1033q-26 13 -55 36q-40 31 -64 65l100 123
q25 -32 66 -63t69 -47l-98 -123h-1q22 -24 54 -48q41 -31 69 -47l-98 -123q-33 14 -73 45t-64 65z" />
    <glyph glyph-name="uniFB61" unicode="&#x67a;" horiz-adv-x="624" arabic-form="medial" 
d="M301 446q35 -157 114 -228t210 -71q22 0 41.5 -20.5t19.5 -58.5q0 -39 -19.5 -60.5t-41.5 -21.5q-129 0 -210 48t-128 150q-45 -94 -115.5 -146t-171.5 -52q-22 0 -38.5 20.5t-16.5 61.5q0 38 15.5 58.5t39.5 20.5q78 0 141.5 30t110.5 104l-12 90zM266 828
q-26 13 -55 36q-40 31 -64 65l100 123q25 -32 66 -63t69 -47l-98 -123h-1q22 -24 54 -48q41 -31 69 -47l-98 -123q-33 14 -73 45t-64 65z" />
    <glyph glyph-name="uniFB62" unicode="&#x67f;" horiz-adv-x="1595" arabic-form="isolated" 
d="M1427 733q18 -24 35.5 -63t31 -85t21.5 -95.5t8 -96.5q0 -69 -36 -139t-113 -123q-62 -41 -145 -72.5t-178 -53t-199.5 -32t-209.5 -10.5q-163 0 -273 21.5t-175.5 64.5t-94 108.5t-28.5 155.5q0 78 18.5 140.5t40.5 76.5l39 25q-4 -23 -8 -52.5t-4 -45.5
q0 -86 27.5 -147.5t91 -100.5t165 -57.5t248.5 -18.5q107 0 211.5 10.5t200.5 30t180 47t146 62.5q-13 75 -42.5 151t-64.5 123zM817 824q23 -23 55 -46q41 -30 69 -45l-94 -125q-28 13 -62 37.5t-59 50.5l-69 -102q-33 14 -73 42t-64 62l88 117q-27 13 -57 34
q-40 28 -64 62l94 125q20 -26 51 -55t59 -45l80 115q27 -31 68 -60.5t69 -44.5zM798 829q-22 12 -46 30q-34 24 -59 50l-68 -100q17 -20 40 -41q31 -29 59 -45z" />
    <glyph glyph-name="uniFB63" unicode="&#x67f;" horiz-adv-x="1646" arabic-form="final" 
d="M173 555q-4 -23 -8 -52.5t-4 -45.5q0 -90 29.5 -151.5t94 -99.5t167 -55.5t250.5 -17.5q266 0 459.5 65.5t326.5 188.5l49 -8l-71 -105q28 -127 180 -127q22 0 41.5 -20.5t19.5 -58.5q0 -39 -19.5 -60.5t-41.5 -21.5q-113 0 -174.5 52t-61.5 183q-131 -117 -334.5 -187.5
t-465.5 -70.5q-154 0 -256.5 22.5t-165 66.5t-88 109.5t-25.5 151.5q0 78 18.5 140.5t40.5 76.5zM817 824q23 -23 55 -46q41 -30 69 -45l-94 -125q-28 13 -62 37.5t-59 50.5l-69 -102q-33 14 -73 42t-64 62l88 117q-27 13 -57 34q-40 28 -64 62l94 125q20 -26 51 -55t59 -45
l80 115q27 -31 68 -60.5t69 -44.5zM798 829q-22 12 -46 30q-34 24 -59 50l-68 -100q17 -20 40 -41q31 -29 59 -45z" />
    <glyph glyph-name="uniFB64" unicode="&#x67f;" horiz-adv-x="471" arabic-form="initial" 
d="M283 678q45 -66 69.5 -151t24.5 -169q0 -55 -19.5 -120.5t-62.5 -126.5q-41 -64 -120.5 -94.5t-174.5 -30.5q-22 0 -38.5 17t-16.5 63q0 36 14.5 58.5t40.5 22.5q90 0 158 16.5t123 49.5q-12 90 -41 167t-64 122zM326 1034q23 -23 55 -46q41 -30 69 -45l-94 -125
q-28 13 -62 37.5t-59 50.5l-69 -102q-33 14 -73 42t-64 62l88 117q-27 13 -57 34q-40 28 -64 62l94 125q20 -26 51 -55t59 -45l80 115q27 -31 68 -60.5t69 -44.5zM307 1039q-22 12 -46 30q-34 24 -59 50l-68 -100q17 -20 40 -41q31 -29 59 -45z" />
    <glyph glyph-name="uniFB65" unicode="&#x67f;" horiz-adv-x="624" arabic-form="medial" 
d="M301 446q35 -157 114 -228t210 -71q22 0 41.5 -20.5t19.5 -58.5q0 -39 -19.5 -60.5t-41.5 -21.5q-129 0 -210 48t-128 150q-45 -94 -115.5 -146t-171.5 -52q-22 0 -38.5 20.5t-16.5 61.5q0 38 15.5 58.5t39.5 20.5q78 0 141.5 30t110.5 104l-12 90zM344 826
q23 -23 55 -46q41 -30 69 -45l-94 -125q-28 13 -62 37.5t-59 50.5l-69 -102q-33 14 -73 42t-64 62l88 117q-27 13 -57 34q-40 28 -64 62l94 125q20 -26 51 -55t59 -45l80 115q27 -31 68 -60.5t69 -44.5zM325 831q-22 12 -46 30q-34 24 -59 50l-68 -100q17 -20 40 -41
q31 -29 59 -45z" />
    <glyph glyph-name="uniFB66" unicode="&#x679;" horiz-adv-x="1595" arabic-form="isolated" 
d="M688 1022q7 -28 39 -61q13 -9 16 -9v-4l-47 -22q4 -74 4 -85q0 -57 -12 -126v-1h2q38 104 113 144q23 10 44 10h4q56 0 92 -78q7 -20 7 -37v-8q0 -96 -117 -128q-24 -5 -46 -5h-12q-120 0 -208 44q-6 12 -24 45q2 0 2 2l103 -15q0 181 -35 291zM702 684h16q128 0 186 37
q-3 25 -27 51q-22 16 -44 16q-64 0 -131 -104zM1427 733q18 -24 35.5 -63t31 -85t21.5 -95.5t8 -96.5q0 -69 -36 -139t-113 -123q-62 -41 -145 -72.5t-178 -53t-199.5 -32t-209.5 -10.5q-163 0 -273 21.5t-175.5 64.5t-94 108.5t-28.5 155.5q0 78 18.5 140.5t40.5 76.5
l39 25q-4 -23 -8 -52.5t-4 -45.5q0 -86 27.5 -147.5t91 -100.5t165 -57.5t248.5 -18.5q107 0 211.5 10.5t200.5 30t180 47t146 62.5q-13 75 -42.5 151t-64.5 123z" />
    <glyph glyph-name="uniFB67" unicode="&#x679;" horiz-adv-x="1646" arabic-form="final" 
d="M691 1022q15 -48 55 -72v-1l-48 -24q4 -51 4 -87q0 -56 -11 -121v-1h2q39 104 112 141q23 11 47 11q55 0 91 -73q8 -22 8 -37v-17q0 -80 -95 -119q-37 -11 -74 -11q-118 0 -210 42q-4 6 -26 48q1 0 1 1l103 -15v2q0 172 -34 291zM705 685v-2q141 0 201 37q-7 31 -26 50
q-21 18 -46 18q-61 0 -129 -103zM173 555q-4 -23 -8 -52.5t-4 -45.5q0 -90 29.5 -151.5t94 -99.5t167 -55.5t250.5 -17.5q266 0 459.5 65.5t326.5 188.5l49 -8l-71 -105q28 -127 180 -127q22 0 41.5 -20.5t19.5 -58.5q0 -39 -19.5 -60.5t-41.5 -21.5q-113 0 -174.5 52
t-61.5 183q-131 -117 -334.5 -187.5t-465.5 -70.5q-154 0 -256.5 22.5t-165 66.5t-88 109.5t-25.5 151.5q0 78 18.5 140.5t40.5 76.5z" />
    <glyph glyph-name="uniFB68" unicode="&#x679;" horiz-adv-x="471" arabic-form="initial" 
d="M141 1212q21 -52 53 -69h1v-5l-46 -22q3 -52 3 -79v-11q0 -56 -9 -116v-1h1q41 106 119 143q24 7 36 7h3q62 0 96 -86q3 -15 3 -25v-19q0 -73 -87 -112q-39 -15 -81 -15q-118 0 -211 43q-13 23 -24 46l3 1l100 -13v2q0 175 -34 288zM156 876v-2q148 0 199 38v2
q0 32 -43 59q-12 5 -26 5h-4q-58 0 -126 -102zM283 678q45 -66 69.5 -151t24.5 -169q0 -55 -19.5 -120.5t-62.5 -126.5q-41 -64 -120.5 -94.5t-174.5 -30.5q-22 0 -38.5 17t-16.5 63q0 36 14.5 58.5t40.5 22.5q90 0 158 16.5t123 49.5q-12 90 -41 167t-64 122z" />
    <glyph glyph-name="uniFB69" unicode="&#x679;" horiz-adv-x="624" arabic-form="medial" 
d="M239 1018q17 -49 53 -69h1v-4q-2 0 -47 -23q4 -40 4 -79v-12q0 -58 -11 -118v-1h1q14 47 65 107q48 46 90 46h7q52 0 89 -72q8 -25 8 -38v-17q0 -83 -102 -121q-34 -8 -61 -8h-13q-116 0 -205 43q-23 42 -23 46h2q6 0 101 -13v1q0 180 -34 289q3 4 75 43zM253 681h2
q142 0 199 36q-5 26 -21 46q-24 22 -50 22q-56 0 -121 -88q0 -2 -9 -16zM301 446q35 -157 114 -228t210 -71q22 0 41.5 -20.5t19.5 -58.5q0 -39 -19.5 -60.5t-41.5 -21.5q-129 0 -210 48t-128 150q-45 -94 -115.5 -146t-171.5 -52q-22 0 -38.5 20.5t-16.5 61.5
q0 38 15.5 58.5t39.5 20.5q78 0 141.5 30t110.5 104l-12 90z" />
    <glyph glyph-name="uniFB6A" unicode="&#x6a4;" horiz-adv-x="1595" arabic-form="isolated" 
d="M169 543q-4 -25 -8 -49.5t-4 -40.5q0 -86 26.5 -147.5t87 -99.5t156 -55.5t232.5 -17.5q102 0 211.5 10.5t213 28.5t195.5 45t164 62q-4 38 -8 72t-8 57q-29 -35 -75 -58.5t-91 -23.5q-47 0 -88 17t-72 49t-48 75t-17 94q0 47 17 96.5t47 89t68 65.5t81 26q51 0 100 -34
t88 -95.5t62.5 -145.5t23.5 -182q0 -92 -36 -152.5t-128 -115.5q-53 -33 -138 -60.5t-186.5 -47t-213 -31t-215.5 -11.5q-152 0 -253.5 20.5t-165 62.5t-90 107.5t-26.5 155.5q0 78 19.5 140.5t41.5 76.5zM1105 563q23 -47 67 -69.5t101 -22.5q37 0 76 10.5t55 22.5
q-14 86 -64 133t-102 47q-47 0 -81.5 -34t-51.5 -87zM1193 1212q-12 5 -32.5 18t-40 30.5t-35 34t-21.5 26.5l99 121q18 -29 56 -64t69 -51zM1322 1001q-28 13 -62 37.5t-59 51.5l-69 -103q-33 14 -73 42t-64 63l94 125q20 -27 51 -55.5t59 -45.5l80 115q27 -31 68 -60.5
t70 -44.5z" />
    <glyph glyph-name="uniFB6B" unicode="&#x6a4;" horiz-adv-x="1732" arabic-form="final" 
d="M161 524q-4 -10 -5 -23.5t-3 -27.5t-3 -26.5t-1 -20.5q0 -92 27.5 -152.5t90 -97.5t161 -52t239.5 -15q168 0 314.5 19t236.5 52q-33 39 -52.5 92.5t-19.5 102.5q0 61 23.5 118.5t60.5 100.5t81 69.5t85 26.5q35 0 72 -22.5t66.5 -61.5t48 -91t18.5 -114
q0 -53 -31.5 -115.5t-79.5 -107.5q41 -10 92.5 -20.5t137.5 -10.5q22 0 41.5 -20.5t19.5 -58.5q0 -39 -19.5 -60.5t-41.5 -21.5q-111 0 -212.5 26.5t-180.5 67.5q-265 -141 -707 -141q-154 0 -260.5 18t-172 59t-95 106.5t-29.5 162.5q0 77 18.5 139.5t40.5 77.5zM1361 223
q54 29 102 74t66 82q-8 31 -24.5 60.5t-38 53t-47 38t-49.5 14.5q-15 0 -36.5 -12.5t-44 -32t-43 -44t-30.5 -50.5q6 -62 49 -111t96 -72zM1355 1026q-12 4 -32.5 17.5t-40 31t-35 33.5t-21.5 27l99 120q18 -28 56 -63t68 -51zM1484 815q-28 12 -62 37t-59 51l-69 -102
q-33 14 -73 41.5t-64 62.5l94 125q20 -26 51 -55t59 -45l80 114q27 -30 68 -60t70 -44z" />
    <glyph glyph-name="uniFB6C" unicode="&#x6a4;" horiz-adv-x="626" arabic-form="initial" 
d="M473 254q-4 37 -7 70.5t-7 56.5q-29 -35 -76 -58.5t-92 -23.5q-47 0 -88 17.5t-70.5 49t-47 74.5t-17.5 95q0 47 17.5 96t47 89t67.5 65.5t81 25.5q49 0 98 -35t88 -96.5t63.5 -145t24.5 -182.5q0 -92 -18.5 -146t-59.5 -89q-77 -66 -197 -98.5t-280 -32.5
q-22 0 -38.5 21.5t-16.5 60.5q0 38 16.5 58.5t38.5 20.5q158 0 280 27t193 80zM138 537q22 -48 66 -70.5t101 -22.5q37 0 76 10.5t56 22.5q-15 86 -65 133t-101 47q-47 0 -82 -33.5t-51 -86.5zM236 1176q-12 4 -32.5 17t-40 30.5t-35 34t-21.5 26.5l98 121
q19 -29 56.5 -63.5t68.5 -51.5zM365 965q-29 12 -62.5 36.5t-58.5 51.5l-70 -103q-32 15 -72 42.5t-65 62.5l94 125q21 -27 51.5 -55.5t59.5 -45.5l80 115q26 -31 67 -60.5t70 -43.5z" />
    <glyph glyph-name="uniFB6D" unicode="&#x6a4;" horiz-adv-x="729" arabic-form="medial" 
d="M219 174q-34 39 -55.5 95.5t-21.5 105.5q0 37 7 68.5t25 70.5q37 78 95.5 127t121.5 49q35 0 73 -22.5t68.5 -61.5t50 -91t19.5 -114q0 -53 -34.5 -115.5t-81.5 -107.5q41 -10 99 -20.5t144 -10.5q23 0 42.5 -20.5t19.5 -58.5q0 -39 -19.5 -60.5t-42.5 -21.5
q-221 0 -385 82q-71 -37 -155 -59.5t-189 -22.5q-26 0 -40.5 21.5t-14.5 58.5q0 32 15.5 56.5t39.5 24.5q72 0 128.5 8.5t90.5 18.5zM357 223q26 15 53 33t50.5 39.5t41.5 43t29 40.5q-8 31 -25.5 60.5t-41 53t-49.5 38t-50 14.5q-14 0 -36 -12.5t-44.5 -32t-43 -44
t-30.5 -50.5q6 -62 49 -111t97 -72zM342 1028q-12 4 -32.5 17.5t-40 31t-35 33.5t-21.5 27l99 120q18 -28 56 -63t69 -51zM471 817q-28 12 -62 37t-58 51l-70 -102q-33 14 -73 41.5t-64 62.5l94 125q20 -26 51 -55t59 -45l80 115q27 -31 68 -61t70 -44z" />
    <glyph glyph-name="uniFB6E" unicode="&#x6a6;" horiz-adv-x="1595" arabic-form="isolated" 
d="M169 543q-4 -25 -8 -49.5t-4 -40.5q0 -86 26.5 -147.5t87 -99.5t156 -55.5t232.5 -17.5q102 0 211.5 10.5t213 28.5t195.5 45t164 62q-4 38 -8 72t-8 57q-29 -35 -75 -58.5t-91 -23.5q-47 0 -88 17t-72 49t-48 75t-17 94q0 47 17 96.5t47 89t68 65.5t81 26q51 0 100 -34
t88 -95.5t62.5 -145.5t23.5 -182q0 -92 -36 -152.5t-128 -115.5q-53 -33 -138 -60.5t-186.5 -47t-213 -31t-215.5 -11.5q-152 0 -253.5 20.5t-165 62.5t-90 107.5t-26.5 155.5q0 78 19.5 140.5t41.5 76.5zM1105 563q23 -47 67 -69.5t101 -22.5q37 0 76 10.5t55 22.5
q-14 86 -64 133t-102 47q-47 0 -81.5 -34t-51.5 -87zM1293 1217q23 -23 55 -46q41 -30 69 -45l-94 -125q-28 13 -62 37.5t-59 50.5l-69 -102q-33 14 -73 42t-64 62l88 117q-27 13 -57 34q-40 28 -64 62l94 125q20 -26 51 -55t59 -45l80 115q27 -31 68 -60.5t69 -44.5z
M1274 1222q-22 12 -46 30q-34 24 -59 50l-68 -100q17 -20 40 -41q31 -29 59 -45z" />
    <glyph glyph-name="uniFB6F" unicode="&#x6a6;" horiz-adv-x="1732" arabic-form="final" 
d="M161 524q-4 -10 -5 -23.5t-3 -27.5t-3 -26.5t-1 -20.5q0 -92 27.5 -152.5t90 -97.5t161 -52t239.5 -15q168 0 314.5 19t236.5 52q-33 39 -52.5 92.5t-19.5 102.5q0 61 23.5 118.5t60.5 100.5t81 69.5t85 26.5q35 0 72 -22.5t66.5 -61.5t48 -91t18.5 -114
q0 -53 -31.5 -115.5t-79.5 -107.5q41 -10 92.5 -20.5t137.5 -10.5q22 0 41.5 -20.5t19.5 -58.5q0 -39 -19.5 -60.5t-41.5 -21.5q-111 0 -212.5 26.5t-180.5 67.5q-265 -141 -707 -141q-154 0 -260.5 18t-172 59t-95 106.5t-29.5 162.5q0 77 18.5 139.5t40.5 77.5zM1361 223
q54 29 102 74t66 82q-8 31 -24.5 60.5t-38 53t-47 38t-49.5 14.5q-15 0 -36.5 -12.5t-44 -32t-43 -44t-30.5 -50.5q6 -62 49 -111t96 -72zM1452 1035q23 -23 55 -46q41 -30 69 -45l-94 -125q-28 13 -62 37.5t-59 50.5l-69 -102q-33 14 -73 42t-64 62l88 117q-27 13 -57 34
q-40 28 -64 62l94 125q20 -26 51 -55t59 -45l80 115q27 -31 68 -60.5t69 -44.5zM1433 1040q-22 12 -46 30q-34 24 -59 50l-68 -100q17 -20 40 -41q31 -29 59 -45z" />
    <glyph glyph-name="uniFB70" unicode="&#x6a6;" horiz-adv-x="626" arabic-form="initial" 
d="M473 254q-4 37 -7 70.5t-7 56.5q-29 -35 -76 -58.5t-92 -23.5q-47 0 -88 17.5t-70.5 49t-47 74.5t-17.5 95q0 47 17.5 96t47 89t67.5 65.5t81 25.5q49 0 98 -35t88 -96.5t63.5 -145t24.5 -182.5q0 -92 -18.5 -146t-59.5 -89q-77 -66 -197 -98.5t-280 -32.5
q-22 0 -38.5 21.5t-16.5 60.5q0 38 16.5 58.5t38.5 20.5q158 0 280 27t193 80zM138 537q22 -48 66 -70.5t101 -22.5q37 0 76 10.5t56 22.5q-15 86 -65 133t-101 47q-47 0 -82 -33.5t-51 -86.5zM335 1182q23 -23 55 -46q41 -30 69 -45l-94 -125q-28 13 -62 37.5t-59 50.5
l-69 -102q-33 14 -73 42t-64 62l88 117q-27 13 -57 34q-40 28 -64 62l94 125q20 -26 51 -55t59 -45l80 115q27 -31 68 -60.5t69 -44.5zM316 1187q-22 12 -46 30q-34 24 -59 50l-68 -100q17 -20 40 -41q31 -29 59 -45z" />
    <glyph glyph-name="uniFB71" unicode="&#x6a6;" horiz-adv-x="729" arabic-form="medial" 
d="M219 174q-34 39 -55.5 95.5t-21.5 105.5q0 37 7 68.5t25 70.5q37 78 95.5 127t121.5 49q35 0 73 -22.5t68.5 -61.5t50 -91t19.5 -114q0 -53 -34.5 -115.5t-81.5 -107.5q41 -10 99 -20.5t144 -10.5q23 0 42.5 -20.5t19.5 -58.5q0 -39 -19.5 -60.5t-42.5 -21.5
q-221 0 -385 82q-71 -37 -155 -59.5t-189 -22.5q-26 0 -40.5 21.5t-14.5 58.5q0 32 15.5 56.5t39.5 24.5q72 0 128.5 8.5t90.5 18.5zM357 223q26 15 53 33t50.5 39.5t41.5 43t29 40.5q-8 31 -25.5 60.5t-41 53t-49.5 38t-50 14.5q-14 0 -36 -12.5t-44.5 -32t-43 -44
t-30.5 -50.5q6 -62 49 -111t97 -72zM439 1035q23 -23 55 -46q41 -30 69 -45l-94 -125q-28 13 -62 37.5t-59 50.5l-69 -102q-33 14 -73 42t-64 62l88 117q-27 13 -57 34q-40 28 -64 62l94 125q20 -26 51 -55t59 -45l80 115q27 -31 68 -60.5t69 -44.5zM420 1040q-22 12 -46 30
q-34 24 -59 50l-68 -100q17 -20 40 -41q31 -29 59 -45z" />
    <glyph glyph-name="uniFB72" unicode="&#x684;" horiz-adv-x="1114" arabic-form="isolated" 
d="M89 557q-6 8 -9 18.5t-3 18.5q0 22 15.5 55t47.5 70q41 51 90.5 75.5t83.5 24.5q45 0 103.5 -19.5t157.5 -66.5q53 -24 99 -40.5t94 -26t106.5 -13.5t136.5 -4l-51 -143q-166 -4 -312.5 -48t-257 -119t-175 -176.5t-64.5 -219.5q0 -156 128 -245t363 -89q129 0 228.5 13
t201.5 46l-8 -43q-4 -18 -46 -49t-113.5 -61.5t-165 -53t-197.5 -22.5q-232 0 -367 107.5t-135 316.5q0 131 44 238.5t121 193.5t180.5 152.5t221.5 119.5q-75 43 -153 65.5t-156 31.5q-47 -15 -103.5 -44.5t-105.5 -62.5zM606 25q-26 13 -55 36q-40 31 -64 65l100 123
q25 -32 66 -63t69 -47l-98 -123h-1q22 -24 54 -48q41 -31 69 -47l-98 -123q-33 14 -73 45t-64 65z" />
    </font>
</defs>
</svg>
