<?xml version="1.0" standalone="no"?>
<!DOCTYPE svg PUBLIC "-//W3C//DTD SVG 1.1//EN" "http://www.w3.org/Graphics/SVG/1.1/DTD/svg11.dtd" >
<svg xmlns="http://www.w3.org/2000/svg" xmlns:xlink="http://www.w3.org/1999/xlink" version="1.1">
<metadata>
Created by FontForge 20170731 at Sun Oct 16 20:03:45 2016
 By Aleksey,,,
(c) 2015 Bahij Virtual Academy. All rights reserved.
</metadata>
<defs>
<font id="BahijKoodak-Regular" horiz-adv-x="0" >
  <font-face 
    font-family="Bahij Koodak"
    font-weight="400"
    font-stretch="normal"
    units-per-em="2048"
    panose-1="2 4 5 3 5 2 1 2 2 3"
    ascent="1638"
    descent="-410"
    x-height="854"
    cap-height="1269"
    bbox="-276.25 -1506 5054 2427"
    underline-thickness="50"
    underline-position="-150"
    unicode-range="U+0020-FEFC"
  />
<missing-glyph horiz-adv-x="728" 
d="M0 0v1020h728v-1020h-728zM117 947l247 -372l248 372h-495zM655 881l-247 -371l247 -372v743zM612 73l-248 371l-247 -371h495zM73 138l247 372l-247 371v-743z" />
    <glyph glyph-name="uniFB01" unicode="fi" horiz-adv-x="1057" 
d="M925 1285q35 -35 35 -85q0 -52 -35 -85q-35 -34 -89 -34q-51 0 -89 35t-38 84t38 84q37 34 89 34q53 0 89 -33zM203 699h-95q-32 0 -55 22q-24 21 -24 52q0 36 24 58q25 23 55 23h95v79q0 182 85 283q86 102 255 102h4q36 0 64 -25q27 -25 27 -62q0 -38 -26 -66
q-27 -28 -65 -28h-4q-152 0 -152 -204v-79h445q40 0 68 -28q27 -28 27 -67v-673q0 -38 -28 -66q-29 -29 -69 -29q-39 0 -65 29q-27 29 -27 66v613h-351v-613q0 -37 -26 -66q-27 -29 -65 -29q-39 0 -68 29t-29 66v613z" />
    <glyph glyph-name="uniFB02" unicode="fl" horiz-adv-x="1064" 
d="M203 699h-95q-32 0 -55 22q-24 21 -24 52q0 36 24 58q25 23 55 23h95v79q0 190 83 288q82 97 292 97q113 0 189 -18q77 -18 111 -51t46 -64t12 -70v-1029q0 -38 -28 -66q-29 -29 -69 -29q-38 0 -64 29q-27 29 -27 66v1026q0 20 -51 30q-50 10 -108 10q-64 0 -109 -17
q-43 -18 -60 -53q-19 -37 -23 -68q-6 -31 -6 -81v-79h123q30 0 55 -23q23 -23 23 -58q0 -31 -23 -52q-23 -22 -55 -22h-123v-613q0 -37 -26 -66q-27 -29 -65 -29q-39 0 -68 29t-29 66v613z" />
    <glyph glyph-name="uniFC31" unicode="&#xfed3;&#xfef0;" horiz-adv-x="1895" arabic-form="isolated" 
d="M1502 522q46 0 76 14q28 13 28 46q0 18 -9 39q-9 20 -23 37q-14 16 -32 27q-19 11 -32 11q-35 0 -60 -28q-26 -29 -26 -72q0 -74 78 -74zM1417 1251q35 33 83 33q50 0 84 -33q34 -34 34 -82q0 -52 -34 -86q-34 -36 -87 -36q-46 0 -81 36q-35 35 -35 86q0 48 36 82zM952 0
q-53 0 -80 -9t-27 -22q0 -19 24 -30q29 -13 58 -19l35 -8q24 -6 39 -9q42 -9 75 -28t58 -53q23 -34 23 -86q0 -93 -52 -161q-51 -67 -133 -115q-81 -46 -179 -69q-99 -24 -191 -24q-117 0 -209 33t-157 95q-67 63 -101 149q-35 90 -35 198q0 37 5 100q5 56 21 105
q15 50 45 84q29 35 79 35q33 0 56 -20q21 -21 21 -56q0 -13 -5 -43l-11 -58q-8 -40 -11 -66q-5 -38 -5 -60q0 -269 340 -269q8 0 65 5t106 13q55 9 97 25q43 15 43 37q0 15 -21 31q-22 16 -67 31q-93 25 -144 59q-51 33 -51 107q0 95 37 160q38 65 99 104q62 39 140 57
q82 17 160 17h237q157 0 237 41t80 100q-64 -59 -164 -59q-101 1 -164 61q-63 59 -63 170q0 61 19 122q19 64 52 113q35 52 82 82q47 31 107 31q87 0 143 -49t90 -123q34 -75 47 -160q13 -82 13 -157q0 -412 -510 -412h-353z" />
    <glyph glyph-name="uniFC32" unicode="&#xfed3;&#xfef2;" horiz-adv-x="1895" arabic-form="isolated" 
d="M678 -800q34 34 81 34q51 0 85 -34t34 -83q0 -50 -34 -85q-34 -36 -85 -36q-49 0 -82 36q-34 35 -34 85q0 48 35 83zM393 -800q34 34 84 34q49 0 83 -34t34 -81q0 -52 -34 -87q-34 -36 -85 -36q-47 0 -82 36q-35 37 -35 87q0 46 35 81zM1502 522q46 0 76 14q28 13 28 46
q0 18 -9 39q-9 20 -23 37q-14 16 -32 27q-19 11 -32 11q-35 0 -60 -28q-26 -29 -26 -72q0 -74 78 -74zM1417 1251q35 33 83 33q50 0 84 -33q34 -34 34 -82q0 -52 -34 -86q-34 -36 -87 -36q-46 0 -81 36q-35 35 -35 86q0 48 36 82zM952 0q-53 0 -80 -9t-27 -22q0 -19 24 -30
q29 -13 58 -19l35 -8q24 -6 39 -9q42 -9 75 -28t58 -53q23 -34 23 -86q0 -93 -52 -161q-51 -67 -133 -115q-81 -46 -179 -69q-99 -24 -191 -24q-117 0 -209 33t-157 95q-67 63 -101 149q-35 90 -35 198q0 37 5 100q5 56 21 105q15 50 45 84q29 35 79 35q33 0 56 -20
q21 -21 21 -56q0 -13 -5 -43l-11 -58q-8 -40 -11 -66q-5 -38 -5 -60q0 -269 340 -269q8 0 65 5t106 13q55 9 97 25q43 15 43 37q0 15 -21 31q-22 16 -67 31q-93 25 -144 59q-51 33 -51 107q0 95 37 160q38 65 99 104q62 39 140 57q82 17 160 17h237q157 0 237 41t80 100
q-64 -59 -164 -59q-101 1 -164 61q-63 59 -63 170q0 61 19 122q19 64 52 113q35 52 82 82q47 31 107 31q87 0 143 -49t90 -123q34 -75 47 -160q13 -82 13 -157q0 -412 -510 -412h-353z" />
    <glyph glyph-name="uniFC43" unicode="&#xfedf;&#xfef0;" horiz-adv-x="1701" arabic-form="isolated" 
d="M952 0q-53 0 -80 -9t-27 -22q0 -19 24 -30q29 -13 58 -19l35 -8q24 -6 39 -9q42 -9 75 -28t58 -53q23 -34 23 -86q0 -93 -52 -161q-51 -67 -133 -115q-81 -46 -179 -69q-99 -24 -191 -24q-117 0 -209 33t-157 95q-67 63 -101 149q-35 90 -35 198q0 37 5 100q5 56 21 105
q15 50 45 84q29 35 79 35q33 0 56 -20q21 -21 21 -56q0 -13 -5 -43l-11 -58q-8 -40 -11 -66q-5 -38 -5 -60q0 -269 340 -269q8 0 65 5t106 13q55 9 97 25q43 15 43 37q0 15 -21 31q-22 16 -67 31q-93 25 -144 59q-51 33 -51 107q0 95 37 160q38 65 99 104q62 39 140 57
q82 17 160 17h158q94 0 122 37q28 35 28 114q0 208 -4 373q-5 207 -5 387q0 54 31 82q32 29 66 29q37 0 71 -33q35 -33 35 -94v-699q0 -84 -9 -162q-9 -80 -40 -139q-31 -61 -89 -98t-157 -37h-354z" />
    <glyph glyph-name="uniFC44" unicode="&#xfedf;&#xfef2;" horiz-adv-x="1701" arabic-form="isolated" 
d="M678 -800q34 34 81 34q51 0 85 -34t34 -83q0 -50 -34 -85q-34 -36 -85 -36q-49 0 -82 36q-34 35 -34 85q0 48 35 83zM393 -800q34 34 84 34q49 0 83 -34t34 -81q0 -52 -34 -87q-34 -36 -85 -36q-47 0 -82 36q-35 37 -35 87q0 46 35 81zM952 0q-53 0 -80 -9t-27 -22
q0 -19 24 -30q29 -13 58 -19l35 -8q24 -6 39 -9q42 -9 75 -28t58 -53q23 -34 23 -86q0 -93 -52 -161q-51 -67 -133 -115q-81 -46 -179 -69q-99 -24 -191 -24q-117 0 -209 33t-157 95q-67 63 -101 149q-35 90 -35 198q0 37 5 100q5 56 21 105q15 50 45 84q29 35 79 35
q33 0 56 -20q21 -21 21 -56q0 -13 -5 -43l-11 -58q-8 -40 -11 -66q-5 -38 -5 -60q0 -269 340 -269q8 0 65 5t106 13q55 9 97 25q43 15 43 37q0 15 -21 31q-22 16 -67 31q-93 25 -144 59q-51 33 -51 107q0 95 37 160q38 65 99 104q62 39 140 57q82 17 160 17h158q94 0 122 37
q28 35 28 114q0 208 -4 373q-5 207 -5 387q0 54 31 82q32 29 66 29q37 0 71 -33q35 -33 35 -94v-699q0 -84 -9 -162q-9 -80 -40 -139q-31 -61 -89 -98t-157 -37h-354z" />
    <glyph glyph-name="uniFC64" unicode="&#xfe8c;&#xfeae;" horiz-adv-x="1487" arabic-form="final" 
d="M898 0q-125 11 -202 103l-9 -27q-39 -109 -99 -192q-63 -84 -134 -141t-142 -96q-74 -40 -124 -55q-55 -18 -81 -18q-45 0 -74 23q-30 23 -30 61q0 79 94 119q99 44 184 100q78 53 131 119q52 64 78 146q25 79 25 182q0 21 -3 49q-3 29 -3 59q0 25 3 50q3 26 13 44
q11 20 28 30q17 11 48 11q76 0 101 -75q25 -80 52 -131q27 -54 51 -75q21 -21 50 -32q26 -10 48 -12q24 -2 32 -2q66 2 121 33q57 31 71 104q8 51 33 75q25 23 53 23t52 -24q23 -26 30 -74q7 -66 55 -101q47 -36 137 -36v-240q-226 0 -276 125q-34 -56 -109 -91
q-65 -29 -151 -34h-53zM1117 706q-87 -28 -105 -28q-24 0 -42 12q-19 12 -19 39q0 25 32 45q30 18 81 37q-45 44 -45 113q0 43 15 76q16 33 40 56q23 22 53 36q29 12 53 12q62 0 102 -24q40 -25 40 -60q0 -23 -10 -29t-29 -6q-24 0 -48 7t-44 7q-37 0 -51 -20
q-15 -21 -15 -43q0 -66 104 -66q9 0 31 6q45 10 47 10l49 10q25 5 35 5q23 0 35 -13t12 -30q0 -19 -11 -39q-10 -19 -52 -33z" />
    <glyph glyph-name="uniFC67" unicode="&#xfe8c;&#xfee6;" horiz-adv-x="1877" arabic-form="final" 
d="M503 614q35 33 82 33q51 0 85 -33q34 -34 34 -82q0 -52 -34 -86q-34 -36 -87 -36q-46 0 -81 36q-35 35 -35 86q0 48 36 82zM1487 706q-87 -28 -105 -28q-24 0 -42 12q-19 12 -19 39q0 25 32 45q30 18 81 37q-45 44 -45 113q0 43 15 76q16 33 40 56q23 22 53 36
q29 12 53 12q62 0 102 -24q40 -25 40 -60q0 -23 -10 -29t-29 -6q-24 0 -48 7t-44 7q-37 0 -51 -20q-15 -21 -15 -43q0 -66 104 -66q9 0 31 6q45 10 47 10l49 10q25 5 35 5q23 0 35 -13t12 -30q0 -19 -11 -39q-10 -19 -52 -33zM1316 0q-92 2 -135 43q-5 -130 -35 -241
q-31 -115 -103 -207q-70 -90 -185 -145q-115 -54 -283 -54q-140 0 -232 47q-89 45 -145 118q-55 70 -76 151q-22 79 -22 149q0 54 4 109q5 65 20 115q15 54 46 91q30 37 84 37q26 0 43 -17q16 -17 16 -55q0 -55 -6 -108q-6 -52 -6 -70q0 -61 14 -120q14 -58 51 -102
q38 -43 102 -69q66 -26 167 -26q171 0 265 97q95 98 95 267q0 45 -12 88q-13 44 -27 81l-26 71q-13 32 -13 57q0 41 28 72q27 31 66 31q25 0 43 -7t41 -36q54 -63 111 -95q51 -30 119 -32q66 2 121 33q57 31 71 104q8 51 33 75q25 23 53 23t52 -24q23 -26 30 -74
q7 -66 55 -101q47 -36 137 -36v-240q-226 0 -276 125q-34 -56 -109 -91q-73 -33 -161 -34h-15z" />
    <glyph glyph-name="uniFC6A" unicode="&#xfe92;&#xfeae;" horiz-adv-x="1497" arabic-form="final" 
d="M898 0q-125 11 -202 103l-9 -27q-39 -109 -99 -192q-63 -84 -134 -141t-142 -96q-74 -40 -124 -55q-55 -18 -81 -18q-45 0 -74 23q-30 23 -30 61q0 79 94 119q99 44 184 100q78 53 131 119q52 64 78 146q25 79 25 182q0 21 -3 49q-3 29 -3 59q0 25 3 50q3 26 13 44
q11 20 28 30q17 11 48 11q76 0 101 -75q25 -80 52 -131q27 -54 51 -75q21 -21 50 -32q26 -10 48 -12q28 -2 38 -2q67 0 125 33q57 31 71 104q8 51 33 75q25 23 53 23t52 -24q23 -26 30 -74q7 -66 55 -101q47 -36 137 -36v-240q-226 0 -276 125q-34 -56 -109 -91
q-73 -33 -161 -34h-53zM1093 -216q35 34 83 34q50 0 84 -34q35 -35 35 -81q0 -50 -35 -87q-34 -36 -86 -36q-47 0 -82 36q-35 37 -35 87q0 47 36 81z" />
    <glyph glyph-name="uniFC70" unicode="&#xfe98;&#xfeae;" horiz-adv-x="1488" arabic-form="final" 
d="M898 0q-125 11 -202 103l-9 -27q-39 -109 -99 -192q-63 -84 -134 -141t-142 -96q-74 -40 -124 -55q-55 -18 -81 -18q-45 0 -74 23q-30 23 -30 61q0 79 94 119q99 44 184 100q78 53 131 119q52 64 78 146q25 79 25 182q0 21 -3 49q-3 29 -3 59q0 25 3 50q3 26 13 44
q11 20 28 30q17 11 48 11q76 0 101 -75q25 -80 52 -131q27 -54 51 -75q21 -21 50 -32q26 -10 48 -12q24 -2 33 -2q66 2 121 33q57 31 71 104q8 51 33 75q25 23 53 23t52 -24q23 -26 30 -74q7 -66 55 -101q47 -36 137 -36v-240q-226 0 -276 125q-34 -56 -109 -91
q-65 -29 -152 -34h-53zM964 841q35 33 84 33t83 -33q34 -34 34 -81q0 -52 -34 -87q-34 -36 -85 -36q-47 0 -82 36q-35 37 -35 87q0 46 35 81zM1249 841q35 33 82 33q50 0 84 -33q35 -35 35 -83t-35 -85q-34 -36 -84 -36q-48 0 -83 36q-34 35 -34 85q0 48 35 83z" />
    <glyph glyph-name="uniFC86" unicode="&#xfee0;&#xfef0;" horiz-adv-x="1793" arabic-form="final" 
d="M952 0q-53 0 -80 -9t-27 -22q0 -19 24 -30q29 -13 58 -19l35 -8q24 -6 39 -9q42 -9 75 -28t58 -53q23 -34 23 -86q0 -93 -52 -161q-51 -67 -133 -115q-81 -46 -179 -69q-99 -24 -191 -24q-117 0 -209 33t-157 95q-67 63 -101 149q-35 90 -35 198q0 37 5 100q5 56 21 105
q15 50 45 84q29 35 79 35q33 0 56 -20q21 -21 21 -56q0 -13 -5 -43l-11 -58q-8 -40 -11 -66q-5 -38 -5 -60q0 -269 340 -269q8 0 65 5t106 13q55 9 97 25q43 15 43 37q0 15 -21 31q-22 16 -67 31q-93 25 -144 59q-51 33 -51 107q0 95 37 160q38 65 99 104q62 39 140 57
q82 17 160 17h164q47 0 77 12q29 12 46 35t21 53q5 35 5 68q-1 183 -5 419q-3 183 -3 330q0 40 29 72q28 31 65 31q40 0 74 -31q35 -32 35 -90v-643q0 -119 41 -187q41 -69 129 -69h16v-240h-16q-100 0 -168 39t-84 88q-34 -63 -99 -95q-61 -31 -149 -32h-325z" />
    <glyph glyph-name="uniFC87" unicode="&#xfee0;&#xfef2;" horiz-adv-x="1793" arabic-form="final" 
d="M678 -800q34 34 81 34q51 0 85 -34t34 -83q0 -50 -34 -85q-34 -36 -85 -36q-49 0 -82 36q-34 35 -34 85q0 48 35 83zM393 -800q34 34 84 34q49 0 83 -34t34 -81q0 -52 -34 -87q-34 -36 -85 -36q-47 0 -82 36q-35 37 -35 87q0 46 35 81zM952 0q-53 0 -80 -9t-27 -22
q0 -19 24 -30q29 -13 58 -19l35 -8q24 -6 39 -9q42 -9 75 -28t58 -53q23 -34 23 -86q0 -93 -52 -161q-51 -67 -133 -115q-81 -46 -179 -69q-99 -24 -191 -24q-117 0 -209 33t-157 95q-67 63 -101 149q-35 90 -35 198q0 37 5 100q5 56 21 105q15 50 45 84q29 35 79 35
q33 0 56 -20q21 -21 21 -56q0 -13 -5 -43l-11 -58q-8 -40 -11 -66q-5 -38 -5 -60q0 -269 340 -269q8 0 65 5t106 13q55 9 97 25q43 15 43 37q0 15 -21 31q-22 16 -67 31q-93 25 -144 59q-51 33 -51 107q0 95 37 160q38 65 99 104q62 39 140 57q82 17 160 17h164q47 0 77 12
q29 12 46 35t21 53q5 35 5 68q-1 183 -5 419q-3 183 -3 330q0 40 29 72q28 31 65 31q40 0 74 -31q35 -32 35 -90v-643q0 -119 41 -187q41 -69 129 -69h16v-240h-16q-100 0 -168 39t-84 88q-34 -63 -99 -95q-61 -31 -149 -32h-325z" />
    <glyph glyph-name="uniFCCC" unicode="&#xfedf;&#xfee4;" horiz-adv-x="1369" arabic-form="initial" 
d="M384 141q37 -32 85 -32q35 0 48 19t13 46q0 48 -32 91q-33 42 -86 42q-29 0 -47 -20q-19 -20 -19 -62q1 -52 38 -84zM866 0q-133 0 -204 68q-53 -146 -213 -146q-152 0 -240 154q-57 -76 -158 -76h-51q-18 0 -30 4q-15 5 -15 10v209q0 9 15 13q12 4 30 4h37q61 0 101 40
q38 37 77 88q37 48 82 88q44 40 117 40q57 0 99 -17q41 -18 72 -45q35 -31 60 -62q23 -29 62 -65q29 -26 80 -47q48 -20 116 -20h22q94 0 122 37q28 35 28 114q0 208 -4 373q-5 207 -5 387q0 54 31 82q32 29 66 29q37 0 71 -33q35 -33 35 -94v-699q0 -84 -9 -162
q-9 -80 -40 -139q-31 -61 -89 -98t-157 -37h-108z" />
    <glyph glyph-name="uniFCFB" unicode="&#xfeb3;&#xfef0;" horiz-adv-x="2505" arabic-form="isolated" 
d="M952 0q-53 0 -80 -9t-27 -22q0 -19 24 -30q29 -13 58 -19l35 -8q24 -6 39 -9q42 -9 75 -28t58 -53q23 -34 23 -86q0 -93 -52 -161q-51 -67 -133 -115q-81 -46 -179 -69q-99 -24 -191 -24q-117 0 -209 33t-157 95q-67 63 -101 149q-35 90 -35 198q0 37 5 100q5 56 21 105
q15 50 45 84q29 35 79 35q33 0 56 -20q21 -21 21 -56q0 -13 -5 -43l-11 -58q-8 -40 -11 -66q-5 -38 -5 -60q0 -269 340 -269q8 0 65 5t106 13q55 9 97 25q43 15 43 37q0 15 -21 31q-22 16 -67 31q-93 25 -144 59q-51 33 -51 107q0 95 37 160q38 65 99 104q62 39 140 57
q82 17 160 17h166q57 0 94 30q37 28 48 80q24 115 90 115q68 0 88 -113q16 -112 141 -112q40 0 59 16q20 17 30 42q9 21 14 56q5 33 13 55q9 26 27 42q16 16 54 16q62 0 88 -113q27 -114 141 -114q49 0 64 29q14 30 14 69q0 47 -11 83t-11 58q0 39 27 58q26 18 61 18
q34 0 59 -21q25 -22 40 -55q16 -35 23 -72q7 -38 7 -77q0 -63 -18 -122q-19 -58 -55 -104q-36 -47 -89 -74q-52 -28 -125 -30q-72 0 -132 36q-61 36 -85 91q-33 -58 -87 -92q-56 -35 -120 -35q-152 0 -215 117q-55 -112 -222 -117h-325z" />
    <glyph glyph-name="uniFCFC" unicode="&#xfeb3;&#xfef2;" horiz-adv-x="2505" arabic-form="isolated" 
d="M678 -800q34 34 81 34q51 0 85 -34t34 -83q0 -50 -34 -85q-34 -36 -85 -36q-49 0 -82 36q-34 35 -34 85q0 48 35 83zM393 -800q34 34 84 34q49 0 83 -34t34 -81q0 -52 -34 -87q-34 -36 -85 -36q-47 0 -82 36q-35 37 -35 87q0 46 35 81zM952 0q-53 0 -80 -9t-27 -22
q0 -19 24 -30q29 -13 58 -19l35 -8q24 -6 39 -9q42 -9 75 -28t58 -53q23 -34 23 -86q0 -93 -52 -161q-51 -67 -133 -115q-81 -46 -179 -69q-99 -24 -191 -24q-117 0 -209 33t-157 95q-67 63 -101 149q-35 90 -35 198q0 37 5 100q5 56 21 105q15 50 45 84q29 35 79 35
q33 0 56 -20q21 -21 21 -56q0 -13 -5 -43l-11 -58q-8 -40 -11 -66q-5 -38 -5 -60q0 -269 340 -269q8 0 65 5t106 13q55 9 97 25q43 15 43 37q0 15 -21 31q-22 16 -67 31q-93 25 -144 59q-51 33 -51 107q0 95 37 160q38 65 99 104q62 39 140 57q82 17 160 17h166q57 0 94 30
q37 28 48 80q24 115 90 115q68 0 88 -113q16 -112 141 -112q40 0 59 16q20 17 30 42q9 21 14 56q5 33 13 55q9 26 27 42q16 16 54 16q62 0 88 -113q27 -114 141 -114q49 0 64 29q14 30 14 69q0 47 -11 83t-11 58q0 39 27 58q26 18 61 18q34 0 59 -21q25 -22 40 -55
q16 -35 23 -72q7 -38 7 -77q0 -63 -18 -122q-19 -58 -55 -104q-36 -47 -89 -74q-52 -28 -125 -30q-72 0 -132 36q-61 36 -85 91q-33 -58 -87 -92q-56 -35 -120 -35q-152 0 -215 117q-55 -112 -222 -117h-325z" />
    <glyph glyph-name="uniFCFD" unicode="&#xfeb7;&#xfef0;" horiz-adv-x="2505" arabic-form="isolated" 
d="M1970 841q35 33 82 33q50 0 84 -33q35 -35 35 -83t-35 -85q-34 -36 -84 -36q-48 0 -83 36q-34 35 -34 85q0 48 35 83zM1685 841q35 33 84 33t83 -33q34 -34 34 -81q0 -52 -34 -87q-34 -36 -85 -36q-47 0 -82 36q-35 37 -35 87q0 46 35 81zM1830 1087q36 33 83 33
q50 0 84 -33q34 -34 34 -81q0 -53 -34 -87q-34 -36 -86 -36q-47 0 -82 36q-35 35 -35 87q0 47 36 81zM952 0q-53 0 -80 -9t-27 -22q0 -19 24 -30q29 -13 58 -19l35 -8q24 -6 39 -9q42 -9 75 -28t58 -53q23 -34 23 -86q0 -93 -52 -161q-51 -67 -133 -115q-81 -46 -179 -69
q-99 -24 -191 -24q-117 0 -209 33t-157 95q-67 63 -101 149q-35 90 -35 198q0 37 5 100q5 56 21 105q15 50 45 84q29 35 79 35q33 0 56 -20q21 -21 21 -56q0 -13 -5 -43l-11 -58q-8 -40 -11 -66q-5 -38 -5 -60q0 -269 340 -269q8 0 65 5t106 13q55 9 97 25q43 15 43 37
q0 15 -21 31q-22 16 -67 31q-93 25 -144 59q-51 33 -51 107q0 95 37 160q38 65 99 104q62 39 140 57q82 17 160 17h166q57 0 94 30q37 28 48 80q24 115 90 115q68 0 88 -113q16 -112 141 -112q40 0 59 16q20 17 30 42q9 21 14 56q5 33 13 55q9 26 27 42q16 16 54 16
q62 0 88 -113q27 -114 141 -114q49 0 64 29q14 30 14 69q0 47 -11 83t-11 58q0 39 27 58q26 18 61 18q34 0 59 -21q25 -22 40 -55q16 -35 23 -72q7 -38 7 -77q0 -63 -18 -122q-19 -58 -55 -104q-36 -47 -89 -74q-52 -28 -125 -30q-72 0 -132 36q-61 36 -85 91
q-33 -58 -87 -92q-56 -35 -120 -35q-152 0 -215 117q-55 -112 -222 -117h-325z" />
    <glyph glyph-name="uniFCFE" unicode="&#xfeb7;&#xfef2;" horiz-adv-x="2505" arabic-form="isolated" 
d="M678 -800q34 34 81 34q51 0 85 -34t34 -83q0 -50 -34 -85q-34 -36 -85 -36q-49 0 -82 36q-34 35 -34 85q0 48 35 83zM393 -800q34 34 84 34q49 0 83 -34t34 -81q0 -52 -34 -87q-34 -36 -85 -36q-47 0 -82 36q-35 37 -35 87q0 46 35 81zM1970 841q35 33 82 33q50 0 84 -33
q35 -35 35 -83t-35 -85q-34 -36 -84 -36q-48 0 -83 36q-34 35 -34 85q0 48 35 83zM1685 841q35 33 84 33t83 -33q34 -34 34 -81q0 -52 -34 -87q-34 -36 -85 -36q-47 0 -82 36q-35 37 -35 87q0 46 35 81zM1830 1087q36 33 83 33q50 0 84 -33q34 -34 34 -81q0 -53 -34 -87
q-34 -36 -86 -36q-47 0 -82 36q-35 35 -35 87q0 47 36 81zM952 0q-53 0 -80 -9t-27 -22q0 -19 24 -30q29 -13 58 -19l35 -8q24 -6 39 -9q42 -9 75 -28t58 -53q23 -34 23 -86q0 -93 -52 -161q-51 -67 -133 -115q-81 -46 -179 -69q-99 -24 -191 -24q-117 0 -209 33t-157 95
q-67 63 -101 149q-35 90 -35 198q0 37 5 100q5 56 21 105q15 50 45 84q29 35 79 35q33 0 56 -20q21 -21 21 -56q0 -13 -5 -43l-11 -58q-8 -40 -11 -66q-5 -38 -5 -60q0 -269 340 -269q8 0 65 5t106 13q55 9 97 25q43 15 43 37q0 15 -21 31q-22 16 -67 31q-93 25 -144 59
q-51 33 -51 107q0 95 37 160q38 65 99 104q62 39 140 57q82 17 160 17h166q57 0 94 30q37 28 48 80q24 115 90 115q68 0 88 -113q16 -112 141 -112q40 0 59 16q20 17 30 42q9 21 14 56q5 33 13 55q9 26 27 42q16 16 54 16q62 0 88 -113q27 -114 141 -114q49 0 64 29
q14 30 14 69q0 47 -11 83t-11 58q0 39 27 58q26 18 61 18q34 0 59 -21q25 -22 40 -55q16 -35 23 -72q7 -38 7 -77q0 -63 -18 -122q-19 -58 -55 -104q-36 -47 -89 -74q-52 -28 -125 -30q-72 0 -132 36q-61 36 -85 91q-33 -58 -87 -92q-56 -35 -120 -35q-152 0 -215 117
q-55 -112 -222 -117h-325z" />
    <glyph glyph-name="uniFD05" unicode="&#xfebb;&#xfef0;" horiz-adv-x="2627" arabic-form="isolated" 
d="M1918 229q77 0 150 10q72 9 138 29q63 20 102 49q40 28 40 72q0 49 -35 72q-34 22 -73 22q-136 0 -322 -254zM952 0q-53 0 -80 -9t-27 -22q0 -19 24 -30q29 -13 58 -19l35 -8q24 -6 39 -9q42 -9 75 -28t58 -53q23 -34 23 -86q0 -93 -52 -161q-51 -67 -133 -115
q-81 -46 -179 -69q-99 -24 -191 -24q-117 0 -209 33t-157 95q-67 63 -101 149q-35 90 -35 198q0 37 5 100q5 56 21 105q15 50 45 84q29 35 79 35q33 0 56 -20q21 -21 21 -56q0 -13 -5 -43l-11 -58q-8 -40 -11 -66q-5 -38 -5 -60q0 -269 340 -269q8 0 65 5t106 13q55 9 97 25
q43 15 43 37q0 15 -21 31q-22 16 -67 31q-93 25 -144 59q-51 33 -51 107q0 95 37 160q38 65 99 104q62 39 140 57q82 17 160 17h153q78 0 119 38t56 115q8 42 30 61q20 19 47 19q29 0 57 -25q27 -25 33 -92q4 -21 10 -38q8 -22 18 -38q11 -18 29 -29q17 -11 40 -11
q15 0 32 11q14 10 29 28q18 22 27 35l22 34q234 363 465 363q128 0 204 -76q77 -77 77 -197q0 -93 -34 -161q-35 -72 -89 -120q-55 -51 -128 -82q-76 -33 -153 -50q-72 -18 -158 -26q-74 -7 -149 -7q-32 0 -100 2q-46 1 -96 13q-46 10 -82 36q-37 25 -58 70q-34 -58 -99 -85
q-56 -24 -124 -27v-1h-325z" />
    <glyph glyph-name="uniFD06" unicode="&#xfebb;&#xfef2;" horiz-adv-x="2627" arabic-form="isolated" 
d="M678 -800q34 34 81 34q51 0 85 -34t34 -83q0 -50 -34 -85q-34 -36 -85 -36q-49 0 -82 36q-34 35 -34 85q0 48 35 83zM393 -800q34 34 84 34q49 0 83 -34t34 -81q0 -52 -34 -87q-34 -36 -85 -36q-47 0 -82 36q-35 37 -35 87q0 46 35 81zM1918 229q77 0 150 10q72 9 138 29
q63 20 102 49q40 28 40 72q0 49 -35 72q-34 22 -73 22q-136 0 -322 -254zM952 0q-53 0 -80 -9t-27 -22q0 -19 24 -30q29 -13 58 -19l35 -8q24 -6 39 -9q42 -9 75 -28t58 -53q23 -34 23 -86q0 -93 -52 -161q-51 -67 -133 -115q-81 -46 -179 -69q-99 -24 -191 -24
q-117 0 -209 33t-157 95q-67 63 -101 149q-35 90 -35 198q0 37 5 100q5 56 21 105q15 50 45 84q29 35 79 35q33 0 56 -20q21 -21 21 -56q0 -13 -5 -43l-11 -58q-8 -40 -11 -66q-5 -38 -5 -60q0 -269 340 -269q8 0 65 5t106 13q55 9 97 25q43 15 43 37q0 15 -21 31
q-22 16 -67 31q-93 25 -144 59q-51 33 -51 107q0 95 37 160q38 65 99 104q62 39 140 57q82 17 160 17h153q78 0 119 38t56 115q8 42 30 61q20 19 47 19q29 0 57 -25q27 -25 33 -92q4 -21 10 -38q8 -22 18 -38q11 -18 29 -29q17 -11 40 -11q15 0 32 11q14 10 29 28
q18 22 27 35l22 34q234 363 465 363q128 0 204 -76q77 -77 77 -197q0 -93 -34 -161q-35 -72 -89 -120q-55 -51 -128 -82q-76 -33 -153 -50q-72 -18 -158 -26q-74 -7 -149 -7q-32 0 -100 2q-46 1 -96 13q-46 10 -82 36q-37 25 -58 70q-34 -58 -99 -85q-56 -24 -124 -27v-1
h-325z" />
    <glyph glyph-name="uniFD07" unicode="&#xfebf;&#xfef0;" horiz-adv-x="2627" arabic-form="isolated" 
d="M1918 229q77 0 150 10q72 9 138 29q63 20 102 49q40 28 40 72q0 49 -35 72q-34 22 -73 22q-136 0 -322 -254zM1702 933q35 34 83 34q50 0 84 -34q35 -35 35 -81q0 -50 -35 -87q-34 -36 -86 -36q-47 0 -82 36q-35 37 -35 87q0 47 36 81zM952 0q-53 0 -80 -9t-27 -22
q0 -19 24 -30q29 -13 58 -19l35 -8q24 -6 39 -9q42 -9 75 -28t58 -53q23 -34 23 -86q0 -93 -52 -161q-51 -67 -133 -115q-81 -46 -179 -69q-99 -24 -191 -24q-117 0 -209 33t-157 95q-67 63 -101 149q-35 90 -35 198q0 37 5 100q5 56 21 105q15 50 45 84q29 35 79 35
q33 0 56 -20q21 -21 21 -56q0 -13 -5 -43l-11 -58q-8 -40 -11 -66q-5 -38 -5 -60q0 -269 340 -269q8 0 65 5t106 13q55 9 97 25q43 15 43 37q0 15 -21 31q-22 16 -67 31q-93 25 -144 59q-51 33 -51 107q0 95 37 160q38 65 99 104q62 39 140 57q82 17 160 17h153q78 0 119 38
t56 115q8 42 30 61q20 19 47 19q29 0 57 -25q27 -25 33 -92q4 -21 10 -38q8 -22 18 -38q11 -18 29 -29q17 -11 40 -11q15 0 32 11q14 10 29 28q18 22 27 35l22 34q234 363 465 363q128 0 204 -76q77 -77 77 -197q0 -93 -34 -161q-35 -72 -89 -120q-55 -51 -128 -82
q-76 -33 -153 -50q-72 -18 -158 -26q-74 -7 -149 -7q-32 0 -100 2q-46 1 -96 13q-46 10 -82 36q-37 25 -58 70q-34 -58 -99 -85q-56 -24 -124 -27v-1h-325z" />
    <glyph glyph-name="uniFD08" unicode="&#xfebf;&#xfef2;" horiz-adv-x="2627" arabic-form="isolated" 
d="M678 -800q34 34 81 34q51 0 85 -34t34 -83q0 -50 -34 -85q-34 -36 -85 -36q-49 0 -82 36q-34 35 -34 85q0 48 35 83zM393 -800q34 34 84 34q49 0 83 -34t34 -81q0 -52 -34 -87q-34 -36 -85 -36q-47 0 -82 36q-35 37 -35 87q0 46 35 81zM1918 229q77 0 150 10q72 9 138 29
q63 20 102 49q40 28 40 72q0 49 -35 72q-34 22 -73 22q-136 0 -322 -254zM1702 933q35 34 83 34q50 0 84 -34q35 -35 35 -81q0 -50 -35 -87q-34 -36 -86 -36q-47 0 -82 36q-35 37 -35 87q0 47 36 81zM952 0q-53 0 -80 -9t-27 -22q0 -19 24 -30q29 -13 58 -19l35 -8
q24 -6 39 -9q42 -9 75 -28t58 -53q23 -34 23 -86q0 -93 -52 -161q-51 -67 -133 -115q-81 -46 -179 -69q-99 -24 -191 -24q-117 0 -209 33t-157 95q-67 63 -101 149q-35 90 -35 198q0 37 5 100q5 56 21 105q15 50 45 84q29 35 79 35q33 0 56 -20q21 -21 21 -56q0 -13 -5 -43
l-11 -58q-8 -40 -11 -66q-5 -38 -5 -60q0 -269 340 -269q8 0 65 5t106 13q55 9 97 25q43 15 43 37q0 15 -21 31q-22 16 -67 31q-93 25 -144 59q-51 33 -51 107q0 95 37 160q38 65 99 104q62 39 140 57q82 17 160 17h153q78 0 119 38t56 115q8 42 30 61q20 19 47 19
q29 0 57 -25q27 -25 33 -92q4 -21 10 -38q8 -22 18 -38q11 -18 29 -29q17 -11 40 -11q15 0 32 11q14 10 29 28q18 22 27 35l22 34q234 363 465 363q128 0 204 -76q77 -77 77 -197q0 -93 -34 -161q-35 -72 -89 -120q-55 -51 -128 -82q-76 -33 -153 -50q-72 -18 -158 -26
q-74 -7 -149 -7q-32 0 -100 2q-46 1 -96 13q-46 10 -82 36q-37 25 -58 70q-34 -58 -99 -85q-56 -24 -124 -27v-1h-325z" />
    <glyph glyph-name="uniFD0D" unicode="&#xfeb7;&#xfeae;" horiz-adv-x="2175" arabic-form="isolated" 
d="M1640 841q35 33 82 33q50 0 84 -33q35 -35 35 -83t-35 -85q-34 -36 -84 -36q-48 0 -83 36q-34 35 -34 85q0 48 35 83zM1355 841q35 33 84 33t83 -33q34 -34 34 -81q0 -52 -34 -87q-34 -36 -85 -36q-47 0 -82 36q-35 37 -35 87q0 46 35 81zM1500 1087q36 33 83 33
q50 0 84 -33q34 -34 34 -81q0 -53 -34 -87q-34 -36 -86 -36q-47 0 -82 36q-35 35 -35 87q0 47 36 81zM898 0q-125 11 -202 103l-9 -27q-39 -109 -99 -192q-63 -84 -134 -141t-142 -96q-74 -40 -124 -55q-55 -18 -81 -18q-45 0 -74 23q-30 23 -30 61q0 79 94 119
q99 44 184 100q78 53 131 119q52 64 78 146q25 79 25 182q0 21 -3 49q-3 29 -3 59q0 25 3 50q3 26 13 44q11 20 28 30q17 11 48 11q76 0 101 -75q25 -80 52 -131q27 -54 51 -75q21 -21 50 -32q26 -10 48 -12q26 -2 35 -2q53 1 91 30q37 28 48 80q24 115 90 115q68 0 88 -113
q16 -112 141 -112q40 0 59 16q20 17 30 42q9 21 14 56q5 33 13 55q9 26 27 42q16 16 54 16q62 0 88 -113q27 -114 141 -114q49 0 64 29q14 30 14 69q0 47 -11 83t-11 58q0 39 27 58q26 18 61 18q34 0 59 -21q25 -22 40 -55q16 -35 23 -72q7 -38 7 -77q0 -63 -18 -122
q-19 -58 -55 -104q-36 -47 -89 -74q-52 -28 -125 -30q-72 0 -132 36q-61 36 -85 91q-33 -58 -87 -92q-56 -35 -120 -35q-152 0 -215 117q-54 -112 -218 -117h-53z" />
    <glyph glyph-name="uniFD0E" unicode="&#xfeb3;&#xfeae;" horiz-adv-x="2175" arabic-form="isolated" 
d="M898 0q-125 11 -202 103l-9 -27q-39 -109 -99 -192q-63 -84 -134 -141t-142 -96q-74 -40 -124 -55q-55 -18 -81 -18q-45 0 -74 23q-30 23 -30 61q0 79 94 119q99 44 184 100q78 53 131 119q52 64 78 146q25 79 25 182q0 21 -3 49q-3 29 -3 59q0 25 3 50q3 26 13 44
q11 20 28 30q17 11 48 11q76 0 101 -75q25 -80 52 -131q27 -54 51 -75q21 -21 50 -32q26 -10 48 -12q26 -2 35 -2q53 1 91 30q37 28 48 80q24 115 90 115q68 0 88 -113q16 -112 141 -112q40 0 59 16q20 17 30 42q9 21 14 56q5 33 13 55q9 26 27 42q16 16 54 16q62 0 88 -113
q27 -114 141 -114q49 0 64 29q14 30 14 69q0 47 -11 83t-11 58q0 39 27 58q26 18 61 18q34 0 59 -21q25 -22 40 -55q16 -35 23 -72q7 -38 7 -77q0 -63 -18 -122q-19 -58 -55 -104q-36 -47 -89 -74q-52 -28 -125 -30q-72 0 -132 36q-61 36 -85 91q-33 -58 -87 -92
q-56 -35 -120 -35q-152 0 -215 117q-54 -112 -218 -117h-53z" />
    <glyph glyph-name="uniFD0F" unicode="&#xfebb;&#xfeae;" horiz-adv-x="2310" arabic-form="isolated" 
d="M1601 229q77 0 150 10q72 9 138 29q63 20 102 49q40 28 40 72q0 49 -35 72q-34 22 -73 22q-136 0 -322 -254zM898 0q-125 11 -202 103l-9 -27q-39 -109 -99 -192q-63 -84 -134 -141t-142 -96q-74 -40 -124 -55q-55 -18 -81 -18q-45 0 -74 23q-30 23 -30 61q0 79 94 119
q99 44 184 100q78 53 131 119q52 64 78 146q25 79 25 182q0 21 -3 49q-3 29 -3 59q0 25 3 50q3 26 13 44q11 20 28 30q17 11 48 11q76 0 101 -75q25 -80 52 -131q27 -54 51 -75q21 -21 50 -32q26 -10 48 -12q26 -2 35 -2q77 2 116 38q41 38 56 115q8 42 30 61q20 19 47 19
q29 0 57 -25q27 -25 33 -92q4 -21 10 -38q8 -22 18 -38q11 -18 29 -29q17 -11 40 -11q15 0 32 11q14 10 29 28q18 22 27 35l22 34q234 363 465 363q128 0 204 -76q77 -77 77 -197q0 -93 -34 -161q-35 -72 -89 -120q-55 -51 -128 -82q-76 -33 -153 -50q-72 -18 -158 -26
q-74 -7 -149 -7q-32 0 -100 2q-46 1 -96 13q-46 10 -82 36q-37 25 -58 70q-34 -58 -99 -85q-57 -25 -133 -28h-53z" />
    <glyph glyph-name="uniFD10" unicode="&#xfebf;&#xfeae;" horiz-adv-x="2310" arabic-form="isolated" 
d="M1601 229q77 0 150 10q72 9 138 29q63 20 102 49q40 28 40 72q0 49 -35 72q-34 22 -73 22q-136 0 -322 -254zM1385 933q35 34 83 34q50 0 84 -34q35 -35 35 -81q0 -50 -35 -87q-34 -36 -86 -36q-47 0 -82 36q-35 37 -35 87q0 47 36 81zM898 0q-125 11 -202 103l-9 -27
q-39 -109 -99 -192q-63 -84 -134 -141t-142 -96q-74 -40 -124 -55q-55 -18 -81 -18q-45 0 -74 23q-30 23 -30 61q0 79 94 119q99 44 184 100q78 53 131 119q52 64 78 146q25 79 25 182q0 21 -3 49q-3 29 -3 59q0 25 3 50q3 26 13 44q11 20 28 30q17 11 48 11q76 0 101 -75
q25 -80 52 -131q27 -54 51 -75q21 -21 50 -32q26 -10 48 -12q26 -2 35 -2q77 2 116 38q41 38 56 115q8 42 30 61q20 19 47 19q29 0 57 -25q27 -25 33 -92q4 -21 10 -38q8 -22 18 -38q11 -18 29 -29q17 -11 40 -11q15 0 32 11q14 10 29 28q18 22 27 35l22 34q234 363 465 363
q128 0 204 -76q77 -77 77 -197q0 -93 -34 -161q-35 -72 -89 -120q-55 -51 -128 -82q-76 -33 -153 -50q-72 -18 -158 -26q-74 -7 -149 -7q-32 0 -100 2q-46 1 -96 13q-46 10 -82 36q-37 25 -58 70q-34 -58 -99 -85q-57 -25 -133 -28h-53z" />
    <glyph glyph-name="uniFD17" unicode="&#xfeb4;&#xfef0;" horiz-adv-x="2620" arabic-form="final" 
d="M952 0q-53 0 -80 -9t-27 -22q0 -19 24 -30q29 -13 58 -19l35 -8q24 -6 39 -9q42 -9 75 -28t58 -53q23 -34 23 -86q0 -93 -52 -161q-51 -67 -133 -115q-81 -46 -179 -69q-99 -24 -191 -24q-117 0 -209 33t-157 95q-67 63 -101 149q-35 90 -35 198q0 37 5 100q5 56 21 105
q15 50 45 84q29 35 79 35q33 0 56 -20q21 -21 21 -56q0 -13 -5 -43l-11 -58q-8 -40 -11 -66q-5 -38 -5 -60q0 -269 340 -269q8 0 65 5t106 13q55 9 97 25q43 15 43 37q0 15 -21 31q-22 16 -67 31q-93 25 -144 59q-51 33 -51 107q0 95 37 160q38 65 99 104q62 39 140 57
q82 17 160 17h167q54 0 98 26q45 26 52 84q6 58 34 86q27 27 56 27q34 0 50 -16t24 -41q9 -31 14 -54q6 -28 20 -55q13 -25 38 -41q23 -16 71 -16q113 0 131 110q11 59 36 87t56 28q36 0 52 -16q17 -16 24 -42q8 -25 12 -54q5 -33 17 -55q12 -26 37 -42q23 -16 71 -16
q107 0 125 110q10 59 33 88q23 27 53 27q31 0 57 -29q24 -28 35 -86q8 -52 43 -80q35 -30 99 -30h16v-240h-12q-73 0 -137 29q-64 28 -101 88q-25 -59 -82 -88q-58 -29 -120 -29q-68 0 -130 32q-64 32 -98 93q-51 -125 -215 -125q-75 0 -133 29t-92 88q-27 -56 -88 -86
q-61 -31 -129 -31h-331z" />
    <glyph glyph-name="uniFD18" unicode="&#xfeb4;&#xfef2;" horiz-adv-x="2620" arabic-form="final" 
d="M678 -800q34 34 81 34q51 0 85 -34t34 -83q0 -50 -34 -85q-34 -36 -85 -36q-49 0 -82 36q-34 35 -34 85q0 48 35 83zM393 -800q34 34 84 34q49 0 83 -34t34 -81q0 -52 -34 -87q-34 -36 -85 -36q-47 0 -82 36q-35 37 -35 87q0 46 35 81zM952 0q-53 0 -80 -9t-27 -22
q0 -19 24 -30q29 -13 58 -19l35 -8q24 -6 39 -9q42 -9 75 -28t58 -53q23 -34 23 -86q0 -93 -52 -161q-51 -67 -133 -115q-81 -46 -179 -69q-99 -24 -191 -24q-117 0 -209 33t-157 95q-67 63 -101 149q-35 90 -35 198q0 37 5 100q5 56 21 105q15 50 45 84q29 35 79 35
q33 0 56 -20q21 -21 21 -56q0 -13 -5 -43l-11 -58q-8 -40 -11 -66q-5 -38 -5 -60q0 -269 340 -269q8 0 65 5t106 13q55 9 97 25q43 15 43 37q0 15 -21 31q-22 16 -67 31q-93 25 -144 59q-51 33 -51 107q0 95 37 160q38 65 99 104q62 39 140 57q82 17 160 17h167q54 0 98 26
q45 26 52 84q6 58 34 86q27 27 56 27q34 0 50 -16t24 -41q9 -31 14 -54q6 -28 20 -55q13 -25 38 -41q23 -16 71 -16q113 0 131 110q11 59 36 87t56 28q36 0 52 -16q17 -16 24 -42q8 -25 12 -54q5 -33 17 -55q12 -26 37 -42q23 -16 71 -16q107 0 125 110q10 59 33 88
q23 27 53 27q31 0 57 -29q24 -28 35 -86q8 -52 43 -80q35 -30 99 -30h16v-240h-12q-73 0 -137 29q-64 28 -101 88q-25 -59 -82 -88q-58 -29 -120 -29q-68 0 -130 32q-64 32 -98 93q-51 -125 -215 -125q-75 0 -133 29t-92 88q-27 -56 -88 -86q-61 -31 -129 -31h-331z" />
    <glyph glyph-name="uniFD19" unicode="&#xfeb8;&#xfef0;" horiz-adv-x="2620" arabic-form="final" 
d="M952 0q-53 0 -80 -9t-27 -22q0 -19 24 -30q29 -13 58 -19l35 -8q24 -6 39 -9q42 -9 75 -28t58 -53q23 -34 23 -86q0 -93 -52 -161q-51 -67 -133 -115q-81 -46 -179 -69q-99 -24 -191 -24q-117 0 -209 33t-157 95q-67 63 -101 149q-35 90 -35 198q0 37 5 100q5 56 21 105
q15 50 45 84q29 35 79 35q33 0 56 -20q21 -21 21 -56q0 -13 -5 -43l-11 -58q-8 -40 -11 -66q-5 -38 -5 -60q0 -269 340 -269q8 0 65 5t106 13q55 9 97 25q43 15 43 37q0 15 -21 31q-22 16 -67 31q-93 25 -144 59q-51 33 -51 107q0 95 37 160q38 65 99 104q62 39 140 57
q82 17 160 17h167q54 0 98 26q45 26 52 84q6 58 34 86q27 27 56 27q34 0 50 -16t24 -41q9 -31 14 -54q6 -28 20 -55q13 -25 38 -41q23 -16 71 -16q113 0 131 110q11 59 36 87t56 28q36 0 52 -16q17 -16 24 -42q8 -25 12 -54q5 -33 17 -55q12 -26 37 -42q23 -16 71 -16
q107 0 125 110q10 59 33 88q23 27 53 27q31 0 57 -29q24 -28 35 -86q8 -52 43 -80q35 -30 99 -30h16v-240h-12q-73 0 -137 29q-64 28 -101 88q-25 -59 -82 -88q-58 -29 -120 -29q-68 0 -130 32q-64 32 -98 93q-51 -125 -215 -125q-75 0 -133 29t-92 88q-27 -56 -88 -86
q-61 -31 -129 -31h-331zM1853 1087q36 33 83 33q50 0 84 -33q35 -35 35 -81q0 -52 -35 -87q-34 -36 -86 -36q-47 0 -82 36q-35 35 -35 87q0 47 36 81zM1709 841q35 33 84 33t83 -33q33 -34 33 -81q0 -51 -33 -87q-34 -36 -85 -36q-47 0 -82 36q-35 37 -35 87q0 46 35 81z
M1994 841q35 33 81 33q50 0 84 -33q35 -35 35 -83t-35 -85q-34 -36 -84 -36q-49 0 -82 36q-34 35 -34 85q0 48 35 83z" />
    <glyph glyph-name="uniFD1A" unicode="&#xfeb8;&#xfef2;" horiz-adv-x="2620" arabic-form="final" 
d="M678 -800q34 34 81 34q51 0 85 -34t34 -83q0 -50 -34 -85q-34 -36 -85 -36q-49 0 -82 36q-34 35 -34 85q0 48 35 83zM393 -800q34 34 84 34q49 0 83 -34t34 -81q0 -52 -34 -87q-34 -36 -85 -36q-47 0 -82 36q-35 37 -35 87q0 46 35 81zM952 0q-53 0 -80 -9t-27 -22
q0 -19 24 -30q29 -13 58 -19l35 -8q24 -6 39 -9q42 -9 75 -28t58 -53q23 -34 23 -86q0 -93 -52 -161q-51 -67 -133 -115q-81 -46 -179 -69q-99 -24 -191 -24q-117 0 -209 33t-157 95q-67 63 -101 149q-35 90 -35 198q0 37 5 100q5 56 21 105q15 50 45 84q29 35 79 35
q33 0 56 -20q21 -21 21 -56q0 -13 -5 -43l-11 -58q-8 -40 -11 -66q-5 -38 -5 -60q0 -269 340 -269q8 0 65 5t106 13q55 9 97 25q43 15 43 37q0 15 -21 31q-22 16 -67 31q-93 25 -144 59q-51 33 -51 107q0 95 37 160q38 65 99 104q62 39 140 57q82 17 160 17h167q54 0 98 26
q45 26 52 84q6 58 34 86q27 27 56 27q34 0 50 -16t24 -41q9 -31 14 -54q6 -28 20 -55q13 -25 38 -41q23 -16 71 -16q113 0 131 110q11 59 36 87t56 28q36 0 52 -16q17 -16 24 -42q8 -25 12 -54q5 -33 17 -55q12 -26 37 -42q23 -16 71 -16q107 0 125 110q10 59 33 88
q23 27 53 27q31 0 57 -29q24 -28 35 -86q8 -52 43 -80q35 -30 99 -30h16v-240h-12q-73 0 -137 29q-64 28 -101 88q-25 -59 -82 -88q-58 -29 -120 -29q-68 0 -130 32q-64 32 -98 93q-51 -125 -215 -125q-75 0 -133 29t-92 88q-27 -56 -88 -86q-61 -31 -129 -31h-331z
M1853 1087q36 33 83 33q50 0 84 -33q35 -35 35 -81q0 -52 -35 -87q-34 -36 -86 -36q-47 0 -82 36q-35 35 -35 87q0 47 36 81zM1709 841q35 33 84 33t83 -33q33 -34 33 -81q0 -51 -33 -87q-34 -36 -85 -36q-47 0 -82 36q-35 37 -35 87q0 46 35 81zM1994 841q35 33 81 33
q50 0 84 -33q35 -35 35 -83t-35 -85q-34 -36 -84 -36q-49 0 -82 36q-34 35 -34 85q0 48 35 83z" />
    <glyph glyph-name="uniFD21" unicode="&#xfebc;&#xfef0;" horiz-adv-x="2671" arabic-form="final" 
d="M1932 229q73 0 153 11q77 11 138 30q62 20 100 49q39 29 39 70q0 47 -35 71q-35 23 -73 23q-136 0 -322 -254zM952 0q-53 0 -80 -9t-27 -22q0 -19 24 -30q29 -13 58 -19l35 -8q24 -6 39 -9q42 -9 75 -28t58 -53q23 -34 23 -86q0 -93 -52 -161q-51 -67 -133 -115
q-81 -46 -179 -69q-99 -24 -191 -24q-117 0 -209 33t-157 95q-67 63 -101 149q-35 90 -35 198q0 37 5 100q5 56 21 105q15 50 45 84q29 35 79 35q33 0 56 -20q21 -21 21 -56q0 -13 -5 -43l-11 -58q-8 -40 -11 -66q-5 -38 -5 -60q0 -269 340 -269q8 0 65 5t106 13q55 9 97 25
q43 15 43 37q0 15 -21 31q-22 16 -67 31q-93 25 -144 59q-51 33 -51 107q0 95 37 160q38 65 99 104q62 39 140 57q82 17 160 17h167q78 0 119 38q42 39 55 115q9 42 31 61q20 19 47 19q29 0 57 -27q26 -28 31 -90q6 -38 28 -76q22 -40 69 -40q14 0 31 11q15 9 31 29
q13 14 28 36q17 26 22 32q236 365 465 365q127 0 204 -77t77 -198q0 -51 -14 -98q-14 -43 -33 -82q30 -18 125 -18h32v-240h-32q-99 0 -170 27q-70 25 -115 73q-52 -30 -116 -51q-62 -22 -130 -34q-68 -14 -134 -18q-75 -5 -124 -5q-29 0 -95 2q-46 1 -97 13q-47 10 -85 36
q-39 26 -59 70q-34 -55 -94 -83q-57 -28 -143 -30h-325z" />
    <glyph glyph-name="uniFD22" unicode="&#xfebc;&#xfef2;" horiz-adv-x="2671" arabic-form="final" 
d="M678 -800q34 34 81 34q51 0 85 -34t34 -83q0 -50 -34 -85q-34 -36 -85 -36q-49 0 -82 36q-34 35 -34 85q0 48 35 83zM393 -800q34 34 84 34q49 0 83 -34t34 -81q0 -52 -34 -87q-34 -36 -85 -36q-47 0 -82 36q-35 37 -35 87q0 46 35 81zM1932 229q73 0 153 11
q77 11 138 30q62 20 100 49q39 29 39 70q0 47 -35 71q-35 23 -73 23q-136 0 -322 -254zM952 0q-53 0 -80 -9t-27 -22q0 -19 24 -30q29 -13 58 -19l35 -8q24 -6 39 -9q42 -9 75 -28t58 -53q23 -34 23 -86q0 -93 -52 -161q-51 -67 -133 -115q-81 -46 -179 -69
q-99 -24 -191 -24q-117 0 -209 33t-157 95q-67 63 -101 149q-35 90 -35 198q0 37 5 100q5 56 21 105q15 50 45 84q29 35 79 35q33 0 56 -20q21 -21 21 -56q0 -13 -5 -43l-11 -58q-8 -40 -11 -66q-5 -38 -5 -60q0 -269 340 -269q8 0 65 5t106 13q55 9 97 25q43 15 43 37
q0 15 -21 31q-22 16 -67 31q-93 25 -144 59q-51 33 -51 107q0 95 37 160q38 65 99 104q62 39 140 57q82 17 160 17h167q78 0 119 38q42 39 55 115q9 42 31 61q20 19 47 19q29 0 57 -27q26 -28 31 -90q6 -38 28 -76q22 -40 69 -40q14 0 31 11q15 9 31 29q13 14 28 36
q17 26 22 32q236 365 465 365q127 0 204 -77t77 -198q0 -51 -14 -98q-14 -43 -33 -82q30 -18 125 -18h32v-240h-32q-99 0 -170 27q-70 25 -115 73q-52 -30 -116 -51q-62 -22 -130 -34q-68 -14 -134 -18q-75 -5 -124 -5q-29 0 -95 2q-46 1 -97 13q-47 10 -85 36
q-39 26 -59 70q-34 -55 -94 -83q-57 -28 -143 -30h-325z" />
    <glyph glyph-name="uniFD23" unicode="&#xfec0;&#xfef0;" horiz-adv-x="2671" arabic-form="final" 
d="M1932 229q73 0 153 11q77 11 138 30q62 20 100 49q39 29 39 70q0 47 -35 71q-35 23 -73 23q-136 0 -322 -254zM1716 933q35 34 83 34q50 0 84 -34q35 -35 35 -81q0 -50 -35 -87q-34 -36 -86 -36q-47 0 -82 36q-35 37 -35 87q0 47 36 81zM952 0q-53 0 -80 -9t-27 -22
q0 -19 24 -30q29 -13 58 -19l35 -8q24 -6 39 -9q42 -9 75 -28t58 -53q23 -34 23 -86q0 -93 -52 -161q-51 -67 -133 -115q-81 -46 -179 -69q-99 -24 -191 -24q-117 0 -209 33t-157 95q-67 63 -101 149q-35 90 -35 198q0 37 5 100q5 56 21 105q15 50 45 84q29 35 79 35
q33 0 56 -20q21 -21 21 -56q0 -13 -5 -43l-11 -58q-8 -40 -11 -66q-5 -38 -5 -60q0 -269 340 -269q8 0 65 5t106 13q55 9 97 25q43 15 43 37q0 15 -21 31q-22 16 -67 31q-93 25 -144 59q-51 33 -51 107q0 95 37 160q38 65 99 104q62 39 140 57q82 17 160 17h167q78 0 119 38
q42 39 55 115q9 42 31 61q20 19 47 19q29 0 57 -27q26 -28 31 -90q6 -38 28 -76q22 -40 69 -40q14 0 31 11q15 9 31 29q13 14 28 36q17 26 22 32q236 365 465 365q127 0 204 -77t77 -198q0 -51 -14 -98q-14 -43 -33 -82q30 -18 125 -18h32v-240h-32q-99 0 -170 27
q-70 25 -115 73q-52 -30 -116 -51q-62 -22 -130 -34q-68 -14 -134 -18q-75 -5 -124 -5q-29 0 -95 2q-46 1 -97 13q-47 10 -85 36q-39 26 -59 70q-34 -55 -94 -83q-57 -28 -143 -30h-325z" />
    <glyph glyph-name="uniFD24" unicode="&#xfec0;&#xfef2;" horiz-adv-x="2671" arabic-form="final" 
d="M678 -800q34 34 81 34q51 0 85 -34t34 -83q0 -50 -34 -85q-34 -36 -85 -36q-49 0 -82 36q-34 35 -34 85q0 48 35 83zM393 -800q34 34 84 34q49 0 83 -34t34 -81q0 -52 -34 -87q-34 -36 -85 -36q-47 0 -82 36q-35 37 -35 87q0 46 35 81zM1932 229q73 0 153 11
q77 11 138 30q62 20 100 49q39 29 39 70q0 47 -35 71q-35 23 -73 23q-136 0 -322 -254zM1716 933q35 34 83 34q50 0 84 -34q35 -35 35 -81q0 -50 -35 -87q-34 -36 -86 -36q-47 0 -82 36q-35 37 -35 87q0 47 36 81zM952 0q-53 0 -80 -9t-27 -22q0 -19 24 -30q29 -13 58 -19
l35 -8q24 -6 39 -9q42 -9 75 -28t58 -53q23 -34 23 -86q0 -93 -52 -161q-51 -67 -133 -115q-81 -46 -179 -69q-99 -24 -191 -24q-117 0 -209 33t-157 95q-67 63 -101 149q-35 90 -35 198q0 37 5 100q5 56 21 105q15 50 45 84q29 35 79 35q33 0 56 -20q21 -21 21 -56
q0 -13 -5 -43l-11 -58q-8 -40 -11 -66q-5 -38 -5 -60q0 -269 340 -269q8 0 65 5t106 13q55 9 97 25q43 15 43 37q0 15 -21 31q-22 16 -67 31q-93 25 -144 59q-51 33 -51 107q0 95 37 160q38 65 99 104q62 39 140 57q82 17 160 17h167q78 0 119 38q42 39 55 115q9 42 31 61
q20 19 47 19q29 0 57 -27q26 -28 31 -90q6 -38 28 -76q22 -40 69 -40q14 0 31 11q15 9 31 29q13 14 28 36q17 26 22 32q236 365 465 365q127 0 204 -77t77 -198q0 -51 -14 -98q-14 -43 -33 -82q30 -18 125 -18h32v-240h-32q-99 0 -170 27q-70 25 -115 73q-52 -30 -116 -51
q-62 -22 -130 -34q-68 -14 -134 -18q-75 -5 -124 -5q-29 0 -95 2q-46 1 -97 13q-47 10 -85 36q-39 26 -59 70q-34 -55 -94 -83q-57 -28 -143 -30h-325z" />
    <glyph glyph-name="uniFD29" unicode="&#xfeb8;&#xfeae;" horiz-adv-x="2306" arabic-form="final" 
d="M898 0q-125 11 -202 103l-9 -27q-39 -109 -99 -192q-63 -84 -134 -141t-142 -96q-74 -40 -124 -55q-55 -18 -81 -18q-45 0 -74 23q-30 23 -30 61q0 79 94 119q99 44 184 100q78 53 131 119q52 64 78 146q25 79 25 182q0 21 -3 49q-3 29 -3 59q0 25 3 50q3 26 13 44
q11 20 28 30q17 11 48 11q76 0 101 -75q25 -80 52 -131q27 -54 51 -75q21 -21 50 -32q26 -10 48 -12q28 -2 38 -2h11q54 0 98 26q45 26 52 84q6 58 34 86q27 27 56 27q34 0 50 -16t24 -41q9 -31 14 -54q6 -28 20 -55q13 -25 38 -41q23 -16 71 -16q113 0 131 110q11 59 36 87
t56 28q36 0 52 -16q17 -16 24 -42q8 -25 12 -54q5 -33 17 -55q12 -26 37 -42q23 -16 71 -16q107 0 125 110q10 59 33 88q23 27 53 27q31 0 57 -29q24 -28 35 -86q8 -52 43 -80q35 -30 99 -30h16v-240h-12q-73 0 -137 29q-64 28 -101 88q-25 -59 -82 -88q-58 -29 -120 -29
q-68 0 -130 32q-64 32 -98 93q-51 -125 -215 -125q-75 0 -133 29t-92 88q-27 -56 -88 -86q-61 -31 -129 -31h-71zM1539 1087q36 33 83 33q50 0 84 -33q35 -35 35 -81q0 -52 -35 -87q-34 -36 -86 -36q-47 0 -82 36q-35 35 -35 87q0 47 36 81zM1395 841q35 33 84 33t83 -33
q33 -34 33 -81q0 -51 -33 -87q-34 -36 -85 -36q-47 0 -82 36q-35 37 -35 87q0 46 35 81zM1680 841q35 33 81 33q50 0 84 -33q35 -35 35 -83t-35 -85q-34 -36 -84 -36q-49 0 -82 36q-34 35 -34 85q0 48 35 83z" />
    <glyph glyph-name="uniFD2A" unicode="&#xfeb4;&#xfeae;" horiz-adv-x="2306" arabic-form="final" 
d="M898 0q-125 11 -202 103l-9 -27q-39 -109 -99 -192q-63 -84 -134 -141t-142 -96q-74 -40 -124 -55q-55 -18 -81 -18q-45 0 -74 23q-30 23 -30 61q0 79 94 119q99 44 184 100q78 53 131 119q52 64 78 146q25 79 25 182q0 21 -3 49q-3 29 -3 59q0 25 3 50q3 26 13 44
q11 20 28 30q17 11 48 11q76 0 101 -75q25 -80 52 -131q27 -54 51 -75q21 -21 50 -32q26 -10 48 -12q28 -2 38 -2h11q54 0 98 26q45 26 52 84q6 58 34 86q27 27 56 27q34 0 50 -16t24 -41q9 -31 14 -54q6 -28 20 -55q13 -25 38 -41q23 -16 71 -16q113 0 131 110q11 59 36 87
t56 28q36 0 52 -16q17 -16 24 -42q8 -25 12 -54q5 -33 17 -55q12 -26 37 -42q23 -16 71 -16q107 0 125 110q10 59 33 88q23 27 53 27q31 0 57 -29q24 -28 35 -86q8 -52 43 -80q35 -30 99 -30h16v-240h-12q-73 0 -137 29q-64 28 -101 88q-25 -59 -82 -88q-58 -29 -120 -29
q-68 0 -130 32q-64 32 -98 93q-51 -125 -215 -125q-75 0 -133 29t-92 88q-27 -56 -88 -86q-61 -31 -129 -31h-71z" />
    <glyph glyph-name="uniFD2B" unicode="&#xfebc;&#xfeae;" horiz-adv-x="2340" arabic-form="final" 
d="M1601 229q73 0 153 11q77 11 138 30q62 20 100 49q39 29 39 70q0 47 -35 71q-35 23 -73 23q-136 0 -322 -254zM898 0q-125 11 -202 103l-9 -27q-39 -109 -99 -192q-63 -84 -134 -141t-142 -96q-74 -40 -124 -55q-55 -18 -81 -18q-45 0 -74 23q-30 23 -30 61q0 79 94 119
q99 44 184 100q78 53 131 119q52 64 78 146q25 79 25 182q0 21 -3 49q-3 29 -3 59q0 25 3 50q3 26 13 44q11 20 28 30q17 11 48 11q76 0 101 -75q25 -80 52 -131q27 -54 51 -75q21 -21 50 -32q26 -10 48 -12q26 -2 35 -2q77 2 116 38q42 39 55 115q9 42 31 61q20 19 47 19
q29 0 57 -27q26 -28 31 -90q6 -38 28 -76q22 -40 69 -40q14 0 31 11q15 9 31 29q13 14 28 36q17 26 22 32q236 365 465 365q127 0 204 -77t77 -198q0 -51 -14 -98q-14 -43 -33 -82q30 -18 125 -18h32v-240h-32q-99 0 -170 27q-70 25 -115 73q-52 -30 -116 -51
q-62 -22 -130 -34q-68 -14 -134 -18q-75 -5 -124 -5q-29 0 -95 2q-46 1 -97 13q-47 10 -85 36q-39 26 -59 70q-34 -55 -94 -83q-55 -27 -138 -30h-53z" />
    <glyph glyph-name="uniFD2C" unicode="&#xfec0;&#xfeae;" horiz-adv-x="2340" arabic-form="final" 
d="M1601 229q73 0 153 11q77 11 138 30q62 20 100 49q39 29 39 70q0 47 -35 71q-35 23 -73 23q-136 0 -322 -254zM1385 933q35 34 83 34q50 0 84 -34q35 -35 35 -81q0 -50 -35 -87q-34 -36 -86 -36q-47 0 -82 36q-35 37 -35 87q0 47 36 81zM898 0q-125 11 -202 103l-9 -27
q-39 -109 -99 -192q-63 -84 -134 -141t-142 -96q-74 -40 -124 -55q-55 -18 -81 -18q-45 0 -74 23q-30 23 -30 61q0 79 94 119q99 44 184 100q78 53 131 119q52 64 78 146q25 79 25 182q0 21 -3 49q-3 29 -3 59q0 25 3 50q3 26 13 44q11 20 28 30q17 11 48 11q76 0 101 -75
q25 -80 52 -131q27 -54 51 -75q21 -21 50 -32q26 -10 48 -12q26 -2 35 -2q77 2 116 38q42 39 55 115q9 42 31 61q20 19 47 19q29 0 57 -27q26 -28 31 -90q6 -38 28 -76q22 -40 69 -40q14 0 31 11q15 9 31 29q13 14 28 36q17 26 22 32q236 365 465 365q127 0 204 -77t77 -198
q0 -51 -14 -98q-14 -43 -33 -82q30 -18 125 -18h32v-240h-32q-99 0 -170 27q-70 25 -115 73q-52 -30 -116 -51q-62 -22 -130 -34q-68 -14 -134 -18q-75 -5 -124 -5q-29 0 -95 2q-46 1 -97 13q-47 10 -85 36q-39 26 -59 70q-34 -55 -94 -83q-55 -27 -138 -30h-53z" />
    <glyph glyph-name="uniFEF5" unicode="&#xfedf;&#xfe82;" horiz-adv-x="1100" arabic-form="isolated" 
d="M877 1257q13 0 34 -8q17 -6 37 -25q16 -17 30 -44q13 -27 15 -62q8 -180 15 -282q7 -122 8 -154q1 -50 3 -67q1 -11 1 -25q0 -318 -161 -477q-160 -160 -453 -160q-51 0 -88 8q-34 7 -54 23q-21 14 -28 33q-9 18 -9 38q0 35 24 66q22 31 77 31q92 0 179 9q88 9 156 49
q69 42 109 121q41 82 41 222q0 68 -6 146q-8 107 -13 154l-14 147q-6 69 -6 122q0 68 31 102q32 33 72 33zM360 1229q49 0 86 -37q38 -38 66 -97q29 -62 51 -136q22 -82 35 -153q13 -76 21 -146q6 -70 6 -119q0 -66 -1 -103q-2 -62 -11 -106q-10 -48 -35 -82
q-25 -33 -72 -33q-30 0 -55 20q-25 19 -25 60t5 81t5 71q0 165 -27 274q-30 112 -61 182q-34 76 -60 122q-28 47 -28 93q0 45 29 77t71 32zM57 1352q16 42 45 77q28 34 66 55q38 20 83 20q50 0 104 -2q32 -1 72 -5q48 -5 55 -5q30 -2 52 -2q48 0 76 18q26 16 50 42
q19 22 41 42q20 18 48 18q15 0 28 -13t13 -38q0 -42 -22 -80q-22 -39 -57 -69q-32 -29 -75 -50q-42 -20 -80 -20q-32 0 -76 2q-23 1 -65 5q-43 4 -60 5q-40 2 -67 2q-55 0 -84 -20q-29 -21 -45 -46q-18 -28 -32 -46q-15 -21 -46 -21q-16 0 -28 12q-13 10 -13 33q0 41 17 86z
" />
    <glyph glyph-name="uniFEF6" unicode="&#xfee0;&#xfe82;" horiz-adv-x="1237" arabic-form="final" 
d="M1188 0q-99 0 -166 55q-68 54 -86 135q-115 -237 -535 -237q-99 0 -136 31q-38 30 -38 69q0 36 33 70q33 35 98 35q236 0 351 85q114 86 114 294q0 65 -7 139q-3 29 -7 81l-14 166q-4 50 -7 79q-8 82 -8 135q0 60 31 92q32 33 70 33q102 0 114 -144q18 -205 23 -360
q5 -136 12 -195q1 -41 10 -108q8 -58 27 -105q19 -46 56 -78t98 -32h16v-240h-49zM365 1227q51 0 90 -40t69 -102q30 -66 50 -141q21 -84 32 -154q10 -65 19 -146q6 -69 6 -109q0 -103 -8 -169q-9 -64 -24 -95q-15 -33 -37 -42q-21 -10 -52 -10q-76 0 -76 74q0 53 3 86t3 61
q0 160 -27 271q-30 114 -61 188q-34 80 -60 128q-28 49 -28 91q0 44 25 76q24 33 76 33zM57 1352q16 42 45 77q28 34 66 55q38 20 83 20q50 0 104 -2q32 -1 72 -5q48 -5 55 -5q30 -2 52 -2q48 0 76 18q26 16 50 42q19 22 41 42q20 18 48 18q15 0 28 -13t13 -38
q0 -42 -22 -80q-22 -39 -57 -69q-32 -29 -75 -50q-42 -20 -80 -20q-32 0 -76 2q-23 1 -65 5q-43 4 -60 5q-40 2 -67 2q-55 0 -84 -20q-29 -21 -45 -46q-18 -28 -32 -46q-15 -21 -46 -21q-16 0 -28 12q-13 10 -13 33q0 41 17 86z" />
    <glyph glyph-name="uniFEF7" unicode="&#xfedf;&#xfe84;" horiz-adv-x="1043" arabic-form="isolated" 
d="M748 1224q30 33 71 33q14 0 35 -8q18 -7 36 -25q18 -20 31 -44q13 -27 15 -62q8 -180 15 -282q7 -122 8 -154q1 -50 3 -67q1 -11 1 -25q0 -318 -161 -477q-160 -160 -454 -160q-51 0 -88 8q-34 7 -54 23q-21 14 -28 33q-8 19 -8 38q0 35 24 66q22 31 76 31q93 0 180 9
q88 9 156 49q69 42 109 121q41 82 41 222q0 68 -6 146q-8 107 -13 154l-14 147q-6 69 -6 122q0 68 31 102zM232 1197q29 32 71 32q48 0 85 -37q40 -40 67 -97q26 -56 50 -136q21 -76 36 -153q14 -82 20 -146q6 -70 6 -119q0 -66 -1 -103q-2 -62 -11 -106q-11 -50 -34 -82
q-25 -33 -72 -33q-30 0 -55 20q-25 19 -25 60t5 81t5 71q0 165 -27 274q-30 112 -61 182q-34 76 -60 122q-28 47 -28 93q0 45 29 77zM246 1368q-87 -28 -105 -28q-25 0 -42 13q-19 12 -19 38q0 25 32 45q30 18 81 37q-45 44 -45 113q0 43 15 76q16 33 40 56q24 24 53 36
t53 12q62 0 102 -24q40 -25 40 -60q0 -22 -10 -28q-10 -7 -29 -7q-21 0 -48 8q-24 7 -44 7q-37 0 -51 -20q-15 -21 -15 -44q0 -65 105 -65q5 0 30 5q45 10 47 10l49 10q25 5 35 5q23 0 35 -13t12 -30q0 -19 -11 -39t-52 -32q-169 -54 -258 -81z" />
    <glyph glyph-name="uniFEF8" unicode="&#xfee0;&#xfe84;" horiz-adv-x="1180" arabic-form="final" 
d="M1131 0q-99 0 -166 55q-68 54 -86 135q-115 -237 -535 -237q-99 0 -136 31q-38 30 -38 69q0 36 33 70q33 35 98 35q236 0 351 85q114 86 114 294q0 65 -7 139q-3 29 -7 81l-7 83q-7 84 -15 162q-7 71 -7 135q0 60 31 92q32 33 69 33q103 0 115 -144q18 -205 23 -360
q5 -136 12 -195q2 -51 9 -108q8 -60 28 -105q19 -46 56 -78t97 -32h17v-240h-49zM232 1194q24 33 75 33q52 0 91 -40q39 -42 68 -102q30 -63 51 -141q21 -84 32 -154q10 -65 19 -146q6 -69 6 -109q0 -103 -8 -169q-9 -64 -24 -95q-17 -33 -38 -42q-21 -10 -51 -10
q-76 0 -76 74q0 53 3 86t3 61q0 160 -27 271q-30 114 -61 188q-34 80 -60 128q-28 49 -28 91q0 44 25 76zM246 1368q-87 -28 -105 -28q-25 0 -42 13q-19 12 -19 38q0 25 32 45q30 18 81 37q-45 44 -45 113q0 43 15 76q16 33 40 56q24 24 53 36t53 12q62 0 102 -24
q40 -25 40 -60q0 -22 -10 -28q-10 -7 -29 -7q-21 0 -48 8q-24 7 -44 7q-37 0 -51 -20q-15 -21 -15 -44q0 -65 105 -65q5 0 30 5q45 10 47 10l49 10q25 5 35 5q23 0 35 -13t12 -30q0 -19 -11 -39t-52 -32q-169 -54 -258 -81z" />
    <glyph glyph-name="uniFEF9" unicode="&#xfedf;&#xfe88;" horiz-adv-x="975" arabic-form="isolated" 
d="M680 1224q32 33 72 33q13 0 34 -8q17 -6 37 -25q16 -17 30 -44q13 -27 15 -62q9 -180 15 -282q7 -122 8 -154q1 -50 3 -67q1 -11 1 -25q0 -318 -160 -477q-160 -160 -454 -160q-51 0 -88 8q-34 7 -54 23q-21 14 -28 33q-8 19 -8 38q0 35 24 66q22 31 76 31q92 0 179 9
q88 9 156 49q69 42 109 121q41 82 41 222q0 68 -6 146q-8 107 -13 154q-4 38 -13 147q-7 64 -7 122q0 68 31 102zM164 1197q29 32 72 32q48 0 85 -37q40 -40 67 -97q26 -56 50 -136q21 -76 36 -153q14 -82 20 -146q6 -70 6 -119q0 -66 -1 -103q-2 -62 -11 -106
q-10 -48 -35 -82q-25 -33 -72 -33q-30 0 -55 20q-25 19 -25 60t5 81t5 71q0 165 -27 274q-29 109 -60 182q-35 79 -61 122q-28 47 -28 93q0 45 29 77zM246 -581q-88 -27 -105 -27q-24 0 -42 12q-19 12 -19 39q0 25 32 43t81 39q-45 44 -45 113q0 43 15 76q16 33 40 56
q23 22 53 36q29 12 53 12q62 0 102 -24q40 -25 40 -60q0 -23 -10 -29t-29 -6q-22 0 -48 6q-25 6 -44 6q-37 0 -51 -20q-15 -21 -15 -41q0 -66 105 -66q10 0 30 4l47 11q17 4 49 10q20 4 35 4q23 0 35 -12q12 -13 12 -29q0 -21 -11 -41q-10 -19 -52 -33q-216 -67 -258 -79z
" />
    <glyph glyph-name="uniFEFA" unicode="&#xfee0;&#xfe88;" horiz-adv-x="1110" arabic-form="final" 
d="M1061 0q-99 0 -166 55q-68 54 -86 135q-115 -237 -535 -237q-99 0 -136 31q-38 30 -38 69q0 36 33 70q33 35 98 35q236 0 351 85q114 86 114 294q0 65 -7 139q-3 29 -7 81l-7 83q-7 84 -15 162q-7 71 -7 135q0 60 31 92q30 33 69 33q103 0 115 -144q19 -234 23 -360
q5 -136 12 -195q2 -51 9 -108q8 -60 28 -105q19 -46 56 -78t97 -32h17v-240h-49zM162 1194q24 33 75 33t90 -40t69 -102q30 -63 51 -141q21 -84 32 -154q12 -76 18 -146q6 -69 6 -109q0 -103 -8 -169q-7 -62 -23 -95q-17 -33 -38 -42q-21 -10 -51 -10q-76 0 -76 74
q0 53 3 86t3 61q0 160 -27 271q-30 114 -61 188q-34 80 -60 128q-28 49 -28 91q0 44 25 76zM268 -581q-88 -27 -105 -27q-24 0 -42 12q-19 12 -19 39q0 25 32 43t81 39q-45 44 -45 113q0 43 15 76q16 33 40 56q26 23 54 36q29 12 52 12q62 0 102 -24q40 -25 40 -60
q0 -23 -10 -29t-29 -6q-22 0 -48 6q-25 6 -44 6q-37 0 -51 -20q-15 -21 -15 -41q0 -66 105 -66q10 0 30 4l47 11q17 4 49 10q20 4 35 4q23 0 35 -12q12 -13 12 -29q0 -21 -11 -41q-10 -19 -52 -33q-216 -67 -258 -79z" />
    <glyph glyph-name="uniFEFB" unicode="&#xfedf;&#xfe8e;" horiz-adv-x="973" arabic-form="isolated" 
d="M678 1224q30 33 71 33q13 0 34 -8q17 -6 37 -25q18 -20 31 -44q13 -27 15 -62q6 -151 14 -282l9 -154q1 -50 3 -67q1 -11 1 -25q0 -318 -161 -477q-160 -160 -454 -160q-51 0 -88 8q-34 7 -54 23q-21 14 -28 33q-8 19 -8 38q0 35 24 66q22 31 76 31q93 0 180 9
q88 9 156 49q69 42 109 121q41 82 41 222q0 68 -6 146l-7 77q-4 52 -7 77q-4 38 -13 147q-6 69 -6 122q0 68 31 102zM162 1197q29 32 71 32q48 0 85 -37q40 -40 67 -97q26 -56 50 -136q21 -76 36 -153q14 -82 20 -146q6 -70 6 -119q0 -66 -1 -103q-2 -62 -11 -106
q-11 -50 -34 -82q-25 -33 -72 -33q-30 0 -55 20q-25 19 -25 60t5 81t5 71q0 165 -27 274q-30 112 -61 182q-34 76 -60 122q-28 47 -28 93q0 45 29 77z" />
    <glyph glyph-name="uniFEFC" unicode="&#xfee0;&#xfe8e;" horiz-adv-x="1110" arabic-form="final" 
d="M1061 0q-99 0 -166 55q-68 54 -86 135q-115 -237 -535 -237q-99 0 -136 31q-38 30 -38 69q0 36 33 70q33 35 98 35q236 0 351 85q114 86 114 294q0 65 -7 139q-3 29 -7 81l-7 83q-7 84 -15 162q-7 71 -7 135q0 60 31 92q30 33 69 33q103 0 115 -144q19 -234 23 -360
q5 -136 12 -195q2 -51 9 -108q8 -60 28 -105q19 -46 56 -78t97 -32h17v-240h-49zM162 1194q24 33 75 33t90 -40t69 -102q30 -63 51 -141q21 -84 32 -154q12 -76 18 -146q6 -69 6 -109q0 -103 -8 -169q-7 -62 -23 -95q-17 -33 -38 -42q-21 -10 -51 -10q-76 0 -76 74
q0 53 3 86t3 61q0 160 -27 271q-30 114 -61 188q-34 80 -60 128q-28 49 -28 91q0 44 25 76z" />
    <glyph glyph-name="uniFE8B_uniFEE4.liga" unicode="&#xfe8b;&#xfee4;" horiz-adv-x="1374" 
d="M384 141q37 -32 85 -32q35 0 48 19t13 46q0 48 -32 91q-33 42 -86 42q-29 0 -47 -20q-19 -20 -19 -62q1 -52 38 -84zM866 0q-133 0 -204 68q-53 -146 -213 -146q-152 0 -240 154q-57 -76 -158 -76h-51q-18 0 -30 4q-15 5 -15 10v209q0 9 15 13q12 4 30 4h37q61 0 101 40
q38 37 77 88q37 48 82 88q44 40 117 40q57 0 99 -17q41 -18 72 -45q35 -31 60 -62q23 -29 62 -65q29 -26 80 -47q48 -20 116 -20h40q81 0 115 27q35 26 35 73q0 48 -19 87q-20 42 -20 83q0 49 29 84t75 35q133 0 136 -256q0 -97 -30 -166q-30 -70 -79 -116q-48 -45 -113 -68
q-66 -23 -135 -23h-71zM996 841q-87 -28 -104 -28q-26 0 -43 13q-18 12 -18 38q0 25 32 45q31 19 80 37q-45 44 -45 113q0 44 16 76q16 33 40 56q23 22 53 36q29 12 53 12q61 0 101 -24q40 -25 40 -60q0 -22 -10 -28q-10 -7 -29 -7q-20 0 -47 8q-24 7 -45 7q-37 0 -51 -20
q-14 -22 -14 -44q0 -65 104 -65q5 0 30 5q45 10 47 10l49 10q27 5 36 5q22 0 35 -13q12 -13 12 -30q0 -19 -11 -39q-12 -20 -53 -32q-169 -54 -258 -81z" />
    <glyph glyph-name="uniFE8B_uniFEF0.liga" unicode="&#xfe8b;&#xfef0;" horiz-adv-x="1704" 
d="M952 0q-53 0 -80 -9t-27 -22q0 -19 24 -30q29 -13 58 -19l35 -8q24 -6 39 -9q42 -9 75 -28t58 -53q23 -34 23 -86q0 -93 -52 -161q-51 -67 -133 -115q-81 -46 -179 -69q-99 -24 -191 -24q-117 0 -209 33t-157 95q-67 63 -101 149q-35 90 -35 198q0 37 5 100q5 56 21 105
q15 50 45 84q29 35 79 35q33 0 56 -20q21 -21 21 -56q0 -13 -5 -43l-11 -58q-8 -40 -11 -66q-5 -38 -5 -60q0 -269 340 -269q8 0 65 5t106 13q55 9 97 25q43 15 43 37q0 15 -21 31q-22 16 -67 31q-93 25 -144 59q-51 33 -51 107q0 95 37 160q38 65 99 104q62 39 140 57
q82 17 160 17h174q81 0 115 27q35 26 35 73q0 48 -19 87q-20 42 -20 83q0 49 29 84t75 35q133 0 136 -256q0 -97 -30 -166q-30 -70 -79 -116q-48 -45 -113 -68q-61 -22 -125 -23h-325zM1326 841q-87 -28 -104 -28q-26 0 -43 13q-18 12 -18 38q0 25 32 45q31 19 80 37
q-45 44 -45 113q0 44 16 76q16 33 40 56q23 22 53 36q29 12 53 12q61 0 101 -24q40 -25 40 -60q0 -22 -10 -28q-10 -7 -29 -7q-20 0 -47 8q-24 7 -45 7q-37 0 -51 -20q-14 -22 -14 -44q0 -65 104 -65q5 0 30 5q45 10 47 10l49 10q27 5 36 5q22 0 35 -13q12 -13 12 -30
q0 -19 -11 -39q-12 -20 -53 -32q-169 -54 -258 -81z" />
    <glyph glyph-name="uniFE8B_uniFEF2.liga" unicode="&#xfe8b;&#xfef2;" horiz-adv-x="1704" 
d="M678 -800q34 34 81 34q51 0 85 -34t34 -83q0 -50 -34 -85q-34 -36 -85 -36q-49 0 -82 36q-34 35 -34 85q0 48 35 83zM393 -800q34 34 84 34q49 0 83 -34t34 -81q0 -52 -34 -87q-34 -36 -85 -36q-47 0 -82 36q-35 37 -35 87q0 46 35 81zM952 0q-53 0 -80 -9t-27 -22
q0 -19 24 -30q29 -13 58 -19l35 -8q24 -6 39 -9q42 -9 75 -28t58 -53q23 -34 23 -86q0 -93 -52 -161q-51 -67 -133 -115q-81 -46 -179 -69q-99 -24 -191 -24q-117 0 -209 33t-157 95q-67 63 -101 149q-35 90 -35 198q0 37 5 100q5 56 21 105q15 50 45 84q29 35 79 35
q33 0 56 -20q21 -21 21 -56q0 -13 -5 -43l-11 -58q-8 -40 -11 -66q-5 -38 -5 -60q0 -269 340 -269q8 0 65 5t106 13q55 9 97 25q43 15 43 37q0 15 -21 31q-22 16 -67 31q-93 25 -144 59q-51 33 -51 107q0 95 37 160q38 65 99 104q62 39 140 57q82 17 160 17h174q81 0 115 27
q35 26 35 73q0 48 -19 87q-20 42 -20 83q0 49 29 84t75 35q133 0 136 -256q0 -97 -30 -166q-30 -70 -79 -116q-48 -45 -113 -68q-61 -22 -125 -23h-325zM1326 841q-87 -28 -104 -28q-26 0 -43 13q-18 12 -18 38q0 25 32 45q31 19 80 37q-45 44 -45 113q0 44 16 76
q16 33 40 56q23 22 53 36q29 12 53 12q61 0 101 -24q40 -25 40 -60q0 -22 -10 -28q-10 -7 -29 -7q-20 0 -47 8q-24 7 -45 7q-37 0 -51 -20q-14 -22 -14 -44q0 -65 104 -65q5 0 30 5q45 10 47 10l49 10q27 5 36 5q22 0 35 -13q12 -13 12 -30q0 -19 -11 -39q-12 -20 -53 -32
q-169 -54 -258 -81z" />
    <glyph glyph-name="uniFE91_uniFEE4.liga" unicode="&#xfe91;&#xfee4;" horiz-adv-x="1388" 
d="M384 141q37 -32 85 -32q35 0 48 19t13 46q0 48 -32 91q-33 42 -86 42q-29 0 -47 -20q-19 -20 -19 -62q1 -52 38 -84zM866 0q-133 0 -204 68q-53 -146 -213 -146q-152 0 -240 154q-57 -76 -158 -76h-51q-18 0 -30 4q-15 5 -15 10v209q0 9 15 13q12 4 30 4h37q61 0 101 40
q38 37 77 88q37 48 82 88q44 40 117 40q57 0 99 -17q41 -18 72 -45q35 -31 60 -62q23 -29 62 -65q29 -26 80 -47q48 -20 116 -20h54q81 0 115 27q35 26 35 73q0 48 -19 87q-20 42 -20 83q0 49 29 84t75 35q133 0 136 -256q0 -97 -30 -166q-30 -70 -79 -116q-48 -45 -113 -68
q-66 -23 -135 -23h-85zM895 -216q35 34 83 34q50 0 84 -34q35 -35 35 -81q0 -50 -35 -87q-34 -36 -86 -36q-47 0 -82 36q-35 37 -35 87q0 47 36 81z" />
    <glyph glyph-name="uniFE92_uniFEE6.liga" unicode="&#xfe92;&#xfee6;" horiz-adv-x="1876" 
d="M503 614q35 33 82 33q51 0 85 -33q34 -34 34 -82q0 -52 -34 -86q-34 -36 -87 -36q-46 0 -81 36q-35 35 -35 86q0 48 36 82zM1314 0q-88 1 -133 43q-5 -130 -35 -241q-31 -115 -103 -207q-70 -90 -185 -145q-115 -54 -283 -54q-140 0 -232 47q-89 45 -145 118
q-55 70 -76 151q-22 79 -22 149q0 54 4 109q5 65 20 115q15 54 46 91q30 37 84 37q26 0 43 -17q16 -17 16 -55q0 -55 -6 -108q-6 -52 -6 -70q0 -61 14 -120q14 -58 51 -102q38 -43 102 -69q66 -26 167 -26q171 0 265 97q95 98 95 267q0 45 -12 88q-13 44 -27 81l-26 71
q-13 32 -13 57q0 41 28 72q27 31 66 31q25 0 43 -7t41 -36q54 -63 111 -95q51 -30 119 -32q65 2 120 33q57 31 71 104q8 51 33 75q25 23 53 23t52 -24q23 -26 30 -74q7 -66 55 -101q47 -36 137 -36v-240q-226 0 -276 125q-34 -56 -109 -91q-71 -33 -160 -34h-17zM1472 -216
q35 34 83 34q50 0 84 -34q35 -35 35 -81q0 -50 -35 -87q-34 -36 -86 -36q-47 0 -82 36q-35 37 -35 87q0 47 36 81z" />
    <glyph glyph-name="uniFE91_uniFEF0.liga" unicode="&#xfe91;&#xfef0;" horiz-adv-x="1740" 
d="M1366 -216q35 34 83 34q50 0 84 -34q35 -35 35 -81q0 -50 -35 -87q-34 -36 -86 -36q-47 0 -82 36q-35 37 -35 87q0 47 36 81zM952 0q-53 0 -80 -9t-27 -22q0 -19 24 -30q29 -13 58 -19l35 -8q24 -6 39 -9q42 -9 75 -28t58 -53q23 -34 23 -86q0 -93 -52 -161
q-51 -67 -133 -115q-81 -46 -179 -69q-99 -24 -191 -24q-117 0 -209 33t-157 95q-67 63 -101 149q-35 90 -35 198q0 37 5 100q5 56 21 105q15 50 45 84q29 35 79 35q33 0 56 -20q21 -21 21 -56q0 -13 -5 -43l-11 -58q-8 -40 -11 -66q-5 -38 -5 -60q0 -269 340 -269q8 0 65 5
t106 13q55 9 97 25q43 15 43 37q0 15 -21 31q-22 16 -67 31q-93 25 -144 59q-51 33 -51 107q0 95 37 160q38 65 99 104q62 39 140 57q82 17 160 17h210q81 0 115 27q35 26 35 73q0 48 -19 87q-20 42 -20 83q0 49 29 84t75 35q133 0 136 -256q0 -97 -30 -166
q-30 -70 -79 -116q-48 -45 -113 -68q-66 -23 -135 -23h-351z" />
    <glyph glyph-name="uniFE91_uniFEF2.liga" unicode="&#xfe91;&#xfef2;" horiz-adv-x="1740" 
d="M678 -800q34 34 81 34q51 0 85 -34t34 -83q0 -50 -34 -85q-34 -36 -85 -36q-49 0 -82 36q-34 35 -34 85q0 48 35 83zM393 -800q34 34 84 34q49 0 83 -34t34 -81q0 -52 -34 -87q-34 -36 -85 -36q-47 0 -82 36q-35 37 -35 87q0 46 35 81zM1366 -216q35 34 83 34
q50 0 84 -34q35 -35 35 -81q0 -50 -35 -87q-34 -36 -86 -36q-47 0 -82 36q-35 37 -35 87q0 47 36 81zM952 0q-53 0 -80 -9t-27 -22q0 -19 24 -30q29 -13 58 -19l35 -8q24 -6 39 -9q42 -9 75 -28t58 -53q23 -34 23 -86q0 -93 -52 -161q-51 -67 -133 -115q-81 -46 -179 -69
q-99 -24 -191 -24q-117 0 -209 33t-157 95q-67 63 -101 149q-35 90 -35 198q0 37 5 100q5 56 21 105q15 50 45 84q29 35 79 35q33 0 56 -20q21 -21 21 -56q0 -13 -5 -43l-11 -58q-8 -40 -11 -66q-5 -38 -5 -60q0 -269 340 -269q8 0 65 5t106 13q55 9 97 25q43 15 43 37
q0 15 -21 31q-22 16 -67 31q-93 25 -144 59q-51 33 -51 107q0 95 37 160q38 65 99 104q62 39 140 57q82 17 160 17h210q81 0 115 27q35 26 35 73q0 48 -19 87q-20 42 -20 83q0 49 29 84t75 35q133 0 136 -256q0 -97 -30 -166q-30 -70 -79 -116q-48 -45 -113 -68
q-66 -23 -135 -23h-351z" />
    <glyph glyph-name="uniFE97_uniFEE4.liga" unicode="&#xfe97;&#xfee4;" horiz-adv-x="1400" 
d="M384 141q37 -32 85 -32q35 0 48 19t13 46q0 48 -32 91q-33 42 -86 42q-29 0 -47 -20q-19 -20 -19 -62q1 -52 38 -84zM915 976q34 34 84 34q49 0 83 -34t34 -81q0 -52 -34 -87q-34 -36 -85 -36q-47 0 -82 36q-35 37 -35 87q0 46 35 81zM1200 976q34 34 81 34q51 0 85 -34
t34 -83q0 -50 -34 -85q-34 -36 -85 -36q-49 0 -82 36q-34 35 -34 85q0 48 35 83zM866 0q-133 0 -204 68q-53 -146 -213 -146q-152 0 -240 154q-57 -76 -158 -76h-51q-18 0 -30 4q-15 5 -15 10v209q0 9 15 13q12 4 30 4h37q61 0 101 40q38 37 77 88q37 48 82 88q44 40 117 40
q57 0 99 -17q41 -18 72 -45q35 -31 60 -62q23 -29 62 -65q29 -26 80 -47q48 -20 116 -20h32q81 0 115 27q35 26 35 73q0 48 -19 87q-20 42 -20 83q0 49 29 84t75 35q133 0 136 -256q0 -97 -30 -166q-30 -70 -79 -116q-48 -45 -113 -68q-66 -23 -135 -23h-63z" />
    <glyph glyph-name="uniFE98_uniFEE6.liga" unicode="&#xfe98;&#xfee6;" horiz-adv-x="1879" 
d="M503 614q35 33 82 33q51 0 85 -33q34 -34 34 -82q0 -52 -34 -86q-34 -36 -87 -36q-46 0 -81 36q-35 35 -35 86q0 48 36 82zM1321 0q-97 0 -140 43q-5 -130 -35 -241q-31 -115 -103 -207q-70 -90 -185 -145q-115 -54 -283 -54q-140 0 -232 47q-89 45 -145 118
q-55 70 -76 151q-22 79 -22 149q0 54 4 109q5 65 20 115q15 54 46 91q30 37 84 37q26 0 43 -17q16 -17 16 -55q0 -55 -6 -108q-6 -52 -6 -70q0 -61 14 -120q14 -58 51 -102q38 -43 102 -69q66 -26 167 -26q171 0 265 97q95 98 95 267q0 45 -12 88q-13 44 -27 81l-26 71
q-13 32 -13 57q0 41 28 72q27 31 66 31q25 0 43 -7t41 -36q54 -63 111 -95q51 -30 120 -32q67 2 122 33q57 31 71 104q8 51 33 75q25 23 53 23t52 -24q23 -26 30 -74q7 -66 55 -101q47 -36 137 -36v-240q-226 0 -276 125q-34 -56 -109 -91q-73 -33 -163 -34h-10zM1345 841
q35 33 84 33t83 -33q34 -34 34 -81q0 -52 -34 -87q-34 -36 -85 -36q-47 0 -82 36q-35 37 -35 87q0 46 35 81zM1630 841q35 33 82 33q50 0 84 -33q35 -35 35 -83t-35 -85q-34 -36 -84 -36q-48 0 -83 36q-34 35 -34 85q0 48 35 83z" />
    <glyph glyph-name="uniFE97_uniFEF0.liga" unicode="&#xfe97;&#xfef0;" horiz-adv-x="1761" 
d="M952 0q-53 0 -80 -9t-27 -22q0 -19 24 -30q29 -13 58 -19l35 -8q24 -6 39 -9q42 -9 75 -28t58 -53q23 -34 23 -86q0 -93 -52 -161q-51 -67 -133 -115q-81 -46 -179 -69q-99 -24 -191 -24q-117 0 -209 33t-157 95q-67 63 -101 149q-35 90 -35 198q0 37 5 100q5 56 21 105
q15 50 45 84q29 35 79 35q33 0 56 -20q21 -21 21 -56q0 -13 -5 -43l-11 -58q-8 -40 -11 -66q-5 -38 -5 -60q0 -269 340 -269q8 0 65 5t106 13q55 9 97 25q43 15 43 37q0 15 -21 31q-22 16 -67 31q-93 25 -144 59q-51 33 -51 107q0 95 37 160q38 65 99 104q62 39 140 57
q82 17 160 17h197q81 0 115 27q35 26 35 73q0 48 -19 87q-20 42 -20 83q0 49 29 84t75 35q133 0 136 -256q0 -97 -30 -166q-30 -70 -79 -116q-48 -45 -113 -68q-66 -23 -135 -23h-338zM1561 976q34 34 81 34q51 0 85 -34t34 -83q0 -50 -34 -85q-34 -36 -85 -36q-49 0 -82 36
q-34 35 -34 85q0 48 35 83zM1276 976q34 34 84 34q49 0 83 -34t34 -81q0 -52 -34 -87q-34 -36 -85 -36q-47 0 -82 36q-35 37 -35 87q0 46 35 81z" />
    <glyph glyph-name="uniFE97_uniFEF2.liga" unicode="&#xfe97;&#xfef2;" horiz-adv-x="1761" 
d="M678 -800q34 34 81 34q51 0 85 -34t34 -83q0 -50 -34 -85q-34 -36 -85 -36q-49 0 -82 36q-34 35 -34 85q0 48 35 83zM393 -800q34 34 84 34q49 0 83 -34t34 -81q0 -52 -34 -87q-34 -36 -85 -36q-47 0 -82 36q-35 37 -35 87q0 46 35 81zM952 0q-53 0 -80 -9t-27 -22
q0 -19 24 -30q29 -13 58 -19l35 -8q24 -6 39 -9q42 -9 75 -28t58 -53q23 -34 23 -86q0 -93 -52 -161q-51 -67 -133 -115q-81 -46 -179 -69q-99 -24 -191 -24q-117 0 -209 33t-157 95q-67 63 -101 149q-35 90 -35 198q0 37 5 100q5 56 21 105q15 50 45 84q29 35 79 35
q33 0 56 -20q21 -21 21 -56q0 -13 -5 -43l-11 -58q-8 -40 -11 -66q-5 -38 -5 -60q0 -269 340 -269q8 0 65 5t106 13q55 9 97 25q43 15 43 37q0 15 -21 31q-22 16 -67 31q-93 25 -144 59q-51 33 -51 107q0 95 37 160q38 65 99 104q62 39 140 57q82 17 160 17h197q81 0 115 27
q35 26 35 73q0 48 -19 87q-20 42 -20 83q0 49 29 84t75 35q133 0 136 -256q0 -97 -30 -166q-30 -70 -79 -116q-48 -45 -113 -68q-66 -23 -135 -23h-338zM1561 976q34 34 81 34q51 0 85 -34t34 -83q0 -50 -34 -85q-34 -36 -85 -36q-49 0 -82 36q-34 35 -34 85q0 48 35 83z
M1276 976q34 34 84 34q49 0 83 -34t34 -81q0 -52 -34 -87q-34 -36 -85 -36q-47 0 -82 36q-35 37 -35 87q0 46 35 81z" />
    <glyph glyph-name="uniFE9C_uniFEAE.liga" unicode="&#xfe9c;&#xfeae;" horiz-adv-x="1485" 
d="M898 0q-125 11 -202 103l-9 -27q-39 -109 -99 -192q-63 -84 -134 -141t-142 -96q-74 -40 -124 -55q-55 -18 -81 -18q-45 0 -74 23q-30 23 -30 61q0 79 94 119q99 44 184 100q78 53 131 119q52 64 78 146q25 79 25 182q0 21 -3 49q-3 29 -3 59q0 25 3 50q3 26 13 44
q11 20 28 30q17 11 48 11q76 0 101 -75q25 -80 52 -131q27 -54 51 -75q21 -21 50 -32q26 -10 48 -12t31 -2q65 2 120 33q57 31 71 104q8 51 33 75q25 23 53 23t52 -24q23 -26 30 -74q7 -66 55 -101q47 -36 137 -36v-240q-226 0 -276 125q-34 -56 -109 -91q-63 -29 -149 -34
h-53zM1096 1087q35 33 83 33q50 0 84 -33q34 -34 34 -81q0 -53 -34 -87q-34 -36 -86 -36q-47 0 -82 36q-35 35 -35 87q0 47 36 81zM951 841q35 33 84 33t83 -33q34 -34 34 -81q0 -52 -34 -87q-34 -36 -85 -36q-47 0 -82 36q-35 37 -35 87q0 46 35 81zM1236 841q35 33 82 33
q50 0 84 -33q35 -35 35 -83t-35 -85q-34 -36 -84 -36q-48 0 -83 36q-34 35 -34 85q0 48 35 83z" />
    <glyph glyph-name="uniFE9B_uniFEE4.liga" unicode="&#xfe9b;&#xfee4;" horiz-adv-x="1404" 
d="M384 141q37 -32 85 -32q35 0 48 19t13 46q0 48 -32 91q-33 42 -86 42q-29 0 -47 -20q-19 -20 -19 -62q1 -52 38 -84zM1204 976q34 34 81 34q51 0 85 -34t34 -83q0 -50 -34 -85q-34 -36 -85 -36q-49 0 -82 36q-34 35 -34 85q0 48 35 83zM919 976q34 34 84 34q49 0 83 -34
t34 -81q0 -52 -34 -87q-34 -36 -85 -36q-47 0 -82 36q-35 37 -35 87q0 46 35 81zM1063 1222q36 33 83 33q50 0 84 -33q35 -35 35 -81q0 -50 -35 -87q-34 -36 -86 -36q-47 0 -82 36q-35 37 -35 87q0 47 36 81zM866 0q-133 0 -204 68q-53 -146 -213 -146q-152 0 -240 154
q-57 -76 -158 -76h-51q-18 0 -30 4q-15 5 -15 10v209q0 9 15 13q12 4 30 4h37q61 0 101 40q38 37 77 88q37 48 82 88q44 40 117 40q57 0 99 -17q41 -18 72 -45q35 -31 60 -62q23 -29 62 -65q29 -26 80 -47q48 -20 116 -20h36q81 0 115 27q35 26 35 73q0 48 -19 87
q-20 42 -20 83q0 49 29 84t75 35q133 0 136 -256q0 -97 -30 -166q-30 -70 -79 -116q-48 -45 -113 -68q-66 -23 -135 -23h-67z" />
    <glyph glyph-name="uniFE9C_uniFEE6.liga" unicode="&#xfe9c;&#xfee6;" horiz-adv-x="1872" 
d="M503 614q35 33 82 33q51 0 85 -33q34 -34 34 -82q0 -52 -34 -86q-34 -36 -87 -36q-46 0 -81 36q-35 35 -35 86q0 48 36 82zM1305 0q-84 5 -124 43q-5 -130 -35 -241q-31 -115 -103 -207q-70 -90 -185 -145q-115 -54 -283 -54q-140 0 -232 47q-89 45 -145 118
q-55 70 -76 151q-22 79 -22 149q0 54 4 109q5 65 20 115q15 54 46 91q30 37 84 37q26 0 43 -17q16 -17 16 -55q0 -55 -6 -108q-6 -52 -6 -70q0 -61 14 -120q14 -58 51 -102q38 -43 102 -69q66 -26 167 -26q171 0 265 97q95 98 95 267q0 45 -12 88q-13 44 -27 81l-26 71
q-13 32 -13 57q0 41 28 72q27 31 66 31q25 0 43 -7t41 -36q54 -63 111 -95q53 -31 117 -32q62 1 118 33q57 31 71 104q8 51 33 75q25 23 53 23t52 -24q23 -26 30 -74q7 -66 55 -101q47 -36 137 -36v-240q-226 0 -276 125q-34 -56 -109 -91q-66 -31 -156 -34h-26zM1493 1087
q35 33 83 33q50 0 84 -33q34 -34 34 -81q0 -53 -34 -87q-34 -36 -86 -36q-47 0 -82 36q-35 35 -35 87q0 47 36 81zM1348 841q35 33 84 33t83 -33q34 -34 34 -81q0 -52 -34 -87q-34 -36 -85 -36q-47 0 -82 36q-35 37 -35 87q0 46 35 81zM1633 841q35 33 82 33q50 0 84 -33
q35 -35 35 -83t-35 -85q-34 -36 -84 -36q-48 0 -83 36q-34 35 -34 85q0 48 35 83z" />
    <glyph glyph-name="uniFE9B_uniFEF0.liga" unicode="&#xfe9b;&#xfef0;" horiz-adv-x="1753" 
d="M952 0q-53 0 -80 -9t-27 -22q0 -19 24 -30q29 -13 58 -19l35 -8q24 -6 39 -9q42 -9 75 -28t58 -53q23 -34 23 -86q0 -93 -52 -161q-51 -67 -133 -115q-81 -46 -179 -69q-99 -24 -191 -24q-117 0 -209 33t-157 95q-67 63 -101 149q-35 90 -35 198q0 37 5 100q5 56 21 105
q15 50 45 84q29 35 79 35q33 0 56 -20q21 -21 21 -56q0 -13 -5 -43l-11 -58q-8 -40 -11 -66q-5 -38 -5 -60q0 -269 340 -269q8 0 65 5t106 13q55 9 97 25q43 15 43 37q0 15 -21 31q-22 16 -67 31q-93 25 -144 59q-51 33 -51 107q0 95 37 160q38 65 99 104q62 39 140 57
q82 17 160 17h189q81 0 115 27q35 26 35 73q0 48 -19 87q-20 42 -20 83q0 49 29 84t75 35q133 0 136 -256q0 -97 -30 -166q-30 -70 -79 -116q-48 -45 -113 -68q-66 -23 -135 -23h-330zM1412 1222q36 33 83 33q50 0 84 -33q35 -35 35 -81q0 -50 -35 -87q-34 -36 -86 -36
q-47 0 -82 36q-35 37 -35 87q0 47 36 81zM1268 976q34 34 84 34q49 0 83 -34t34 -81q0 -52 -34 -87q-34 -36 -85 -36q-47 0 -82 36q-35 37 -35 87q0 46 35 81zM1553 976q34 34 81 34q51 0 85 -34t34 -83q0 -50 -34 -85q-34 -36 -85 -36q-49 0 -82 36q-34 35 -34 85
q0 48 35 83z" />
    <glyph glyph-name="uniFE9B_uniFEF2.liga" unicode="&#xfe9b;&#xfef2;" horiz-adv-x="1753" 
d="M678 -800q34 34 81 34q51 0 85 -34t34 -83q0 -50 -34 -85q-34 -36 -85 -36q-49 0 -82 36q-34 35 -34 85q0 48 35 83zM393 -800q34 34 84 34q49 0 83 -34t34 -81q0 -52 -34 -87q-34 -36 -85 -36q-47 0 -82 36q-35 37 -35 87q0 46 35 81zM952 0q-53 0 -80 -9t-27 -22
q0 -19 24 -30q29 -13 58 -19l35 -8q24 -6 39 -9q42 -9 75 -28t58 -53q23 -34 23 -86q0 -93 -52 -161q-51 -67 -133 -115q-81 -46 -179 -69q-99 -24 -191 -24q-117 0 -209 33t-157 95q-67 63 -101 149q-35 90 -35 198q0 37 5 100q5 56 21 105q15 50 45 84q29 35 79 35
q33 0 56 -20q21 -21 21 -56q0 -13 -5 -43l-11 -58q-8 -40 -11 -66q-5 -38 -5 -60q0 -269 340 -269q8 0 65 5t106 13q55 9 97 25q43 15 43 37q0 15 -21 31q-22 16 -67 31q-93 25 -144 59q-51 33 -51 107q0 95 37 160q38 65 99 104q62 39 140 57q82 17 160 17h189q81 0 115 27
q35 26 35 73q0 48 -19 87q-20 42 -20 83q0 49 29 84t75 35q133 0 136 -256q0 -97 -30 -166q-30 -70 -79 -116q-48 -45 -113 -68q-66 -23 -135 -23h-330zM1412 1222q36 33 83 33q50 0 84 -33q35 -35 35 -81q0 -50 -35 -87q-34 -36 -86 -36q-47 0 -82 36q-35 37 -35 87
q0 47 36 81zM1268 976q34 34 84 34q49 0 83 -34t34 -81q0 -52 -34 -87q-34 -36 -85 -36q-47 0 -82 36q-35 37 -35 87q0 46 35 81zM1553 976q34 34 81 34q51 0 85 -34t34 -83q0 -50 -34 -85q-34 -36 -85 -36q-49 0 -82 36q-34 35 -34 85q0 48 35 83z" />
    <glyph glyph-name="uniFEDB_uniFEF0.liga" unicode="&#xfedb;&#xfef0;" horiz-adv-x="2027" 
d="M952 0q-53 0 -80 -9t-27 -22q0 -19 24 -30q29 -13 58 -19l35 -8q24 -6 39 -9q42 -9 75 -28t58 -53q23 -34 23 -86q0 -93 -52 -161q-51 -67 -133 -115q-81 -46 -179 -69q-99 -24 -191 -24q-117 0 -209 33t-157 95q-67 63 -101 149q-35 90 -35 198q0 37 5 100q5 56 21 105
q15 50 45 84q29 35 79 35q33 0 56 -20q21 -21 21 -56q0 -13 -5 -43l-11 -58q-8 -40 -11 -66q-5 -38 -5 -60q0 -269 340 -269q8 0 65 5t106 13q55 9 97 25q43 15 43 37q0 15 -21 31q-22 16 -67 31q-93 25 -144 59q-51 33 -51 107q0 95 37 160q38 65 99 104q62 39 140 57
q82 17 160 17h187l64 2q37 1 89 10q44 7 79 24q34 15 34 43q0 23 -25 57q-23 31 -66 74l-87 82l-90 82q-43 39 -76 73q-32 33 -43 54q-13 27 -24 54t-11 59q0 53 22 101q20 48 68 77q51 32 144 72q93 41 193 77q105 38 194 62q90 25 145 25q54 0 82 -33q29 -34 29 -72
q0 -33 -20 -59q-21 -26 -66 -37q-134 -31 -268 -72q-132 -40 -279 -96q-27 -12 -27 -33q0 -22 21 -37q379 -288 379 -499q0 -122 -61 -187q-61 -67 -153 -99q-93 -32 -195 -38l-61 -3v-3h-325z" />
    <glyph glyph-name="uniFEDC_uniFEF0.liga" unicode="&#xfedc;&#xfef0;" horiz-adv-x="2152" 
d="M952 0q-53 0 -80 -9t-27 -22q0 -19 24 -30q29 -13 58 -19l35 -8q24 -6 39 -9q42 -9 75 -28t58 -53q23 -34 23 -86q0 -93 -52 -161q-51 -67 -133 -115q-81 -46 -179 -69q-99 -24 -191 -24q-117 0 -209 33t-157 95q-67 63 -101 149q-35 90 -35 198q0 37 5 100q5 56 21 105
q15 50 45 84q29 35 79 35q33 0 56 -20q21 -21 21 -56q0 -13 -5 -43l-11 -58q-8 -40 -11 -66q-5 -38 -5 -60q0 -269 340 -269q8 0 65 5t106 13q55 9 97 25q43 15 43 37q0 15 -21 31q-22 16 -67 31q-93 25 -144 59q-51 33 -51 107q0 95 37 160q38 65 99 104q62 39 140 57
q82 17 160 17h221q67 0 91 4q66 5 104 23q41 18 41 52q0 23 -24 57q-24 32 -64 74q-46 46 -85 80q-31 27 -89 81l-78 75q-36 36 -49 59q-33 56 -33 115q0 52 26 101q26 47 72 75q84 46 184 87q102 43 196 74q93 31 173 51q78 18 113 18q46 0 83 -28q38 -29 38 -75
q0 -32 -20 -57q-21 -25 -72 -39q-132 -32 -280 -77q-129 -39 -267 -89q-27 -12 -27 -31q0 -16 19 -35q18 -20 32 -32q132 -113 246 -224q96 -95 225 -217q133 -122 258 -122h19v-240h-16q-113 0 -219 61q-107 60 -195 181q-20 -90 -80 -139q-62 -50 -143 -72
q-82 -22 -174 -27l-25 -1q-15 0 -23 -1v-2h-325z" />
    <glyph glyph-name="uniFEDB_uniFEF2.liga" unicode="&#xfedb;&#xfef2;" horiz-adv-x="2027" 
d="M678 -800q34 34 81 34q51 0 85 -34t34 -83q0 -50 -34 -85q-34 -36 -85 -36q-49 0 -82 36q-34 35 -34 85q0 48 35 83zM393 -800q34 34 84 34q49 0 83 -34t34 -81q0 -52 -34 -87q-34 -36 -85 -36q-47 0 -82 36q-35 37 -35 87q0 46 35 81zM952 0q-53 0 -80 -9t-27 -22
q0 -19 24 -30q29 -13 58 -19l35 -8q24 -6 39 -9q42 -9 75 -28t58 -53q23 -34 23 -86q0 -93 -52 -161q-51 -67 -133 -115q-81 -46 -179 -69q-99 -24 -191 -24q-117 0 -209 33t-157 95q-67 63 -101 149q-35 90 -35 198q0 37 5 100q5 56 21 105q15 50 45 84q29 35 79 35
q33 0 56 -20q21 -21 21 -56q0 -13 -5 -43l-11 -58q-8 -40 -11 -66q-5 -38 -5 -60q0 -269 340 -269q8 0 65 5t106 13q55 9 97 25q43 15 43 37q0 15 -21 31q-22 16 -67 31q-93 25 -144 59q-51 33 -51 107q0 95 37 160q38 65 99 104q62 39 140 57q82 17 160 17h187l64 2
q37 1 89 10q44 7 79 24q34 15 34 43q0 23 -25 57q-23 31 -66 74l-87 82l-90 82q-43 39 -76 73q-32 33 -43 54q-13 27 -24 54t-11 59q0 53 22 101q20 48 68 77q51 32 144 72q93 41 193 77q105 38 194 62q90 25 145 25q54 0 82 -33q29 -34 29 -72q0 -33 -20 -59
q-21 -26 -66 -37q-134 -31 -268 -72q-132 -40 -279 -96q-27 -12 -27 -33q0 -22 21 -37q379 -288 379 -499q0 -122 -61 -187q-61 -67 -153 -99q-93 -32 -195 -38l-61 -3v-3h-325z" />
    <glyph glyph-name="uniFEDC_uniFEF2.liga" unicode="&#xfedc;&#xfef2;" horiz-adv-x="2152" 
d="M678 -800q34 34 81 34q51 0 85 -34t34 -83q0 -50 -34 -85q-34 -36 -85 -36q-49 0 -82 36q-34 35 -34 85q0 48 35 83zM393 -800q34 34 84 34q49 0 83 -34t34 -81q0 -52 -34 -87q-34 -36 -85 -36q-47 0 -82 36q-35 37 -35 87q0 46 35 81zM952 0q-53 0 -80 -9t-27 -22
q0 -19 24 -30q29 -13 58 -19l35 -8q24 -6 39 -9q42 -9 75 -28t58 -53q23 -34 23 -86q0 -93 -52 -161q-51 -67 -133 -115q-81 -46 -179 -69q-99 -24 -191 -24q-117 0 -209 33t-157 95q-67 63 -101 149q-35 90 -35 198q0 37 5 100q5 56 21 105q15 50 45 84q29 35 79 35
q33 0 56 -20q21 -21 21 -56q0 -13 -5 -43l-11 -58q-8 -40 -11 -66q-5 -38 -5 -60q0 -269 340 -269q8 0 65 5t106 13q55 9 97 25q43 15 43 37q0 15 -21 31q-22 16 -67 31q-93 25 -144 59q-51 33 -51 107q0 95 37 160q38 65 99 104q62 39 140 57q82 17 160 17h221q67 0 91 4
q66 5 104 23q41 18 41 52q0 23 -24 57q-24 32 -64 74q-46 46 -85 80q-31 27 -89 81l-78 75q-36 36 -49 59q-33 56 -33 115q0 52 26 101q26 47 72 75q84 46 184 87q102 43 196 74q93 31 173 51q78 18 113 18q46 0 83 -28q38 -29 38 -75q0 -32 -20 -57q-21 -25 -72 -39
q-132 -32 -280 -77q-129 -39 -267 -89q-27 -12 -27 -31q0 -16 19 -35q18 -20 32 -32q132 -113 246 -224q96 -95 225 -217q133 -122 258 -122h19v-240h-16q-113 0 -219 61q-107 60 -195 181q-20 -90 -80 -139q-62 -50 -143 -72q-82 -22 -174 -27l-25 -1q-15 0 -23 -1v-2h-325
z" />
    <glyph glyph-name="uniFEDF_uniFB51.rlig" unicode="&#xfedf;&#xfb51;" horiz-adv-x="1100" 
d="M877 1257q13 0 34 -8q17 -6 37 -25q16 -17 30 -44q13 -27 15 -62q8 -180 15 -282q7 -122 8 -154q1 -50 3 -67q1 -11 1 -25q0 -318 -161 -477q-160 -160 -453 -160q-51 0 -88 8q-34 7 -54 23q-21 14 -28 33q-9 18 -9 38q0 35 24 66q22 31 77 31q92 0 179 9q88 9 156 49
q69 42 109 121q41 82 41 222q0 68 -6 146q-8 107 -13 154l-14 147q-6 69 -6 122q0 68 31 102q32 33 72 33zM360 1229q49 0 86 -37q38 -38 66 -97q29 -62 51 -136q22 -82 35 -153q13 -76 21 -146q6 -70 6 -119q0 -66 -1 -103q-2 -62 -11 -106q-10 -48 -35 -82
q-25 -33 -72 -33q-30 0 -55 20q-25 19 -25 60t5 81t5 71q0 165 -27 274q-30 112 -61 182q-34 76 -60 122q-28 47 -28 93q0 45 29 77t71 32zM339 1433q28 0 56 3q26 3 51 11q23 8 39 18q15 11 15 27q0 18 -13 27q-14 8 -28 8q-50 0 -120 -94zM177 1381q-14 11 -38 15h-6
q-12 0 -27 -4q-18 -5 -31 -5t-18 4q-7 4 -7 18q0 22 26 39q9 5 22 10q23 5 41 5q35 0 66 -10l42 -16l17 -5l31 44q87 136 174 136q48 0 76 -28q29 -29 29 -74q0 -34 -12 -60q-14 -27 -34 -44q-20 -19 -48 -31q-26 -12 -65 -21q-42 -10 -71 -11q-8 -1 -26 -1q-25 0 -38 1
l-32 -45q-2 -3 -7 -8q-11 -8 -19 -8h-2q-12 2 -19 10q-5 7 -5 15q0 9 3 19t7 16q4 9 10 18q-19 8 -39 21z" />
    <glyph glyph-name="uniFEE0_uniFB51.rlig" unicode="&#xfee0;&#xfb51;" horiz-adv-x="1237" 
d="M1188 0q-99 0 -166 55q-68 54 -86 135q-115 -237 -535 -237q-99 0 -136 31q-38 30 -38 69q0 36 33 70q33 35 98 35q236 0 351 85q114 86 114 294q0 65 -7 139q-3 29 -7 81l-14 166q-4 50 -7 79q-8 82 -8 135q0 60 31 92q32 33 70 33q102 0 114 -144q18 -205 23 -360
q5 -136 12 -195q1 -41 10 -108q8 -58 27 -105q19 -46 56 -78t98 -32h16v-240h-49zM365 1227q51 0 90 -40t69 -102q30 -66 50 -141q21 -84 32 -154q10 -65 19 -146q6 -69 6 -109q0 -103 -8 -169q-9 -64 -24 -95q-15 -33 -37 -42q-21 -10 -52 -10q-76 0 -76 74q0 53 3 86t3 61
q0 160 -27 271q-30 114 -61 188q-34 80 -60 128q-28 49 -28 91q0 44 25 76q24 33 76 33zM339 1433q28 0 56 3q26 3 51 11q23 8 39 18q15 11 15 27q0 18 -13 27q-14 8 -28 8q-50 0 -120 -94zM177 1381q-14 11 -38 15h-6q-12 0 -27 -4q-18 -5 -31 -5t-18 4q-7 4 -7 18
q0 22 26 39q9 5 22 10q23 5 41 5q35 0 66 -10l42 -16l17 -5l31 44q87 136 174 136q48 0 76 -28q29 -29 29 -74q0 -34 -12 -60q-14 -27 -34 -44q-20 -19 -48 -31q-26 -12 -65 -21q-42 -10 -71 -11q-8 -1 -26 -1q-25 0 -38 1l-32 -45q-2 -3 -7 -8q-11 -8 -19 -8h-2
q-12 2 -19 10q-5 7 -5 15q0 9 3 19t7 16q4 9 10 18q-19 8 -39 21z" />
    <glyph glyph-name="uniFEDF_uniFEE2.liga" unicode="&#xfedf;&#xfee2;" horiz-adv-x="1586" 
d="M696 290q-32 38 -70 38q-36 0 -68 -32t-32 -67q0 -20 15 -38q12 -17 35 -32q21 -15 43 -22q24 -8 36 -8q35 0 54 27q18 26 18 55q0 42 -31 79zM1075 0q-138 0 -215 72q-40 -75 -93 -106q-56 -32 -108 -32q-87 0 -149 43q-65 44 -117 109q-92 0 -92 -131v-633
q0 -40 -23 -60q-25 -20 -59 -20q-32 0 -57 20q-24 19 -29 60l-33 686q0 74 19 125q18 51 50 90q32 38 74 61q49 25 93 40q22 6 49 39q28 35 60 68q35 36 78 66q44 29 101 29q140 0 275 -219q45 -67 211 -67h32q94 0 122 37q28 35 28 114q0 208 -4 373q-5 207 -5 387
q0 54 31 82q32 29 66 29q37 0 71 -33q35 -33 35 -94v-699q0 -84 -9 -162q-9 -80 -40 -139q-31 -61 -89 -98t-157 -37h-116z" />
    <glyph glyph-name="uniFEE4_uniFE8E.liga" unicode="&#xfee4;&#xfe8e;" horiz-adv-x="1421" 
d="M885 141q37 -32 85 -32q35 0 48 19t13 46q0 48 -32 91q-33 42 -86 42q-29 0 -47 -20q-19 -20 -19 -62q1 -52 38 -84zM492 0q-85 3 -144 24q-65 22 -106 68q-40 44 -58 111q-19 62 -25 147q0 12 -3 60q-3 45 -6 116q-3 50 -7 151l-6 166q-4 111 -5 160q-2 102 -2 134
q0 61 30 92q28 31 70 31q45 0 76 -34t31 -106v-682q0 -92 45 -145t137 -53h19q61 0 101 40q38 37 77 88q37 48 82 88q44 40 117 40q57 0 99 -17q41 -18 72 -45q35 -31 60 -62q23 -29 62 -65q29 -26 80 -47q48 -20 116 -20h17v-240h-54q-133 0 -204 68q-53 -146 -213 -146
q-152 0 -240 154q-57 -76 -158 -76h-60z" />
    <glyph glyph-name="uniFEE4_uniFE82.liga" unicode="&#xfee4;&#xfe82;" horiz-adv-x="1554" 
d="M17 1411q16 42 45 77q28 34 66 55q38 20 83 20q50 0 104 -2q32 -1 72 -5q32 -5 55 -6q30 -2 52 -2q48 0 76 19q26 16 50 42q14 15 41 42q20 18 48 18q15 0 28 -13t13 -38q0 -42 -22 -80q-22 -39 -57 -69q-32 -29 -75 -50q-42 -20 -80 -20q-32 0 -76 2q-23 1 -65 5
q-43 4 -60 5q-40 2 -67 2q-55 0 -84 -20q-29 -21 -45 -46q-18 -28 -32 -46q-15 -21 -46 -21q-16 0 -28 12q-13 10 -13 33q0 41 17 86zM1018 141q37 -32 85 -32q35 0 48 19t13 46q0 48 -32 91q-33 42 -86 42q-29 0 -47 -20q-19 -20 -19 -62q1 -52 38 -84zM488 24
q-65 22 -106 68q-40 44 -58 111q-19 62 -25 147q0 12 -3 60q-3 45 -6 116q-3 50 -7 151l-6 166q-4 111 -5 160q-2 102 -2 134q0 61 30 92q28 31 70 31q45 0 76 -34t31 -106v-682q0 -92 45 -145t137 -53h12q61 0 101 40q38 37 77 88q37 48 82 88q44 40 117 40q57 0 99 -17
q41 -18 72 -45q35 -31 60 -62q23 -29 62 -65q29 -26 80 -47q48 -20 116 -20h17v-240h-54q-133 0 -204 68q-53 -146 -213 -146q-152 0 -240 154q-57 -76 -158 -76h-51q-9 0 -13 1q-77 3 -133 23z" />
    <glyph glyph-name="uniFEE4_uniFE84.liga" unicode="&#xfee4;&#xfe84;" horiz-adv-x="1462" 
d="M216 1427q-87 -28 -105 -28q-24 0 -42 12q-19 12 -19 39q0 24 32 44q27 17 81 38q-45 44 -45 113q0 43 15 76q16 33 40 56q23 22 53 36q29 12 53 12q62 0 102 -24q40 -25 40 -60q0 -23 -10 -29t-29 -6q-24 0 -48 7t-44 7q-37 0 -51 -20q-15 -21 -15 -43q0 -66 105 -66
q8 0 30 6q45 10 47 10l49 10q25 5 35 5q23 0 35 -13t12 -30q0 -19 -11 -39q-10 -19 -52 -33zM926 141q37 -32 85 -32q35 0 48 19t13 46q0 48 -32 91q-33 42 -86 42q-29 0 -47 -20q-19 -20 -19 -62q1 -52 38 -84zM401 24q-65 22 -106 68q-40 44 -58 111q-19 62 -25 147
q0 12 -3 60q-3 45 -6 116q-3 63 -6 151q-3 53 -7 166q-4 111 -5 160q-2 102 -2 134q0 61 30 92t70 31q46 0 77 -34q30 -34 30 -106v-682q0 -92 45 -145t137 -53h7q61 0 101 40q38 37 77 88q37 48 82 88q44 40 117 40q57 0 99 -17q41 -18 72 -45q35 -31 60 -62q23 -29 62 -65
q29 -26 80 -47q48 -20 116 -20h17v-240h-54q-133 0 -204 68q-53 -146 -213 -146q-152 0 -240 154q-57 -76 -158 -76h-51q-11 0 -16 1q-77 5 -125 23z" />
    <glyph glyph-name="uniFEE4_uniFE88.liga" unicode="&#xfee4;&#xfe88;" horiz-adv-x="1451" 
d="M216 -581q-88 -27 -105 -27q-24 0 -42 12q-19 12 -19 39q0 25 32 43t81 39q-45 44 -45 113q0 43 15 76q16 33 40 56q23 22 53 36q29 12 53 12q62 0 102 -24q40 -25 40 -60q0 -23 -10 -29t-29 -6q-22 0 -48 6q-25 6 -44 6q-37 0 -51 -20q-15 -21 -15 -41q0 -66 105 -66
q10 0 30 4l47 11q17 4 49 10q20 4 35 4q23 0 35 -12q12 -13 12 -29q0 -21 -11 -41q-10 -19 -52 -33q-216 -67 -258 -79zM915 141q37 -32 85 -32q35 0 48 19t13 46q0 48 -32 91q-33 42 -86 42q-29 0 -47 -20q-19 -20 -19 -62q1 -52 38 -84zM524 0q-91 2 -150 24
q-65 22 -106 68q-40 44 -58 111q-19 62 -25 147q0 12 -3 60q-3 45 -6 116q-3 63 -6 151l-6 166q-4 111 -5 160q-3 77 -3 134q0 61 30 92t71 31q45 0 76 -34q30 -34 30 -106v-682q0 -92 45 -145t138 -53h22q61 0 101 40q38 37 77 88q37 48 82 88q44 40 117 40q57 0 99 -17
q41 -18 72 -45q35 -31 60 -62q23 -29 62 -65q29 -26 80 -47q48 -20 116 -20h17v-240h-54q-133 0 -204 68q-53 -146 -213 -146q-152 0 -240 154q-57 -76 -158 -76h-58z" />
    <glyph glyph-name="uniFEE8_uniFEAE.liga" unicode="&#xfee8;&#xfeae;" horiz-adv-x="1476" 
d="M898 0q-125 11 -202 103l-9 -27q-39 -109 -99 -192q-63 -84 -134 -141t-142 -96q-74 -40 -124 -55q-55 -18 -81 -18q-45 0 -74 23q-30 23 -30 61q0 79 94 119q99 44 184 100q78 53 131 119q52 64 78 146q25 79 25 182q0 21 -3 49q-3 29 -3 59q0 25 3 50q3 26 13 44
q11 20 28 30q17 11 48 11q76 0 101 -75q25 -80 52 -131q27 -54 51 -75q21 -21 50 -32q26 -10 48 -12l14 -1q9 0 13 -1q63 3 115 33q57 31 71 104q8 51 33 75q25 23 53 23t52 -24q23 -26 30 -74q7 -66 55 -101q47 -36 137 -36v-240q-226 0 -276 125q-34 -56 -109 -91
q-61 -28 -140 -33v-1h-53zM1117 841q35 33 83 33q50 0 84 -33q34 -34 34 -81q0 -52 -34 -87q-34 -36 -86 -36q-47 0 -82 36q-35 37 -35 87q0 47 36 81z" />
    <glyph glyph-name="uniFEE7_uniFEE4.liga" unicode="&#xfee7;&#xfee4;" horiz-adv-x="1373" 
d="M384 141q37 -32 85 -32q35 0 48 19t13 46q0 48 -32 91q-33 42 -86 42q-29 0 -47 -20q-19 -20 -19 -62q1 -52 38 -84zM866 0q-133 0 -204 68q-53 -146 -213 -146q-152 0 -240 154q-57 -76 -158 -76h-51q-18 0 -30 4q-15 5 -15 10v209q0 9 15 13q12 4 30 4h37q61 0 101 40
q38 37 77 88q37 48 82 88q44 40 117 40q57 0 99 -17q41 -18 72 -45q35 -31 60 -62q23 -29 62 -65q29 -26 80 -47q48 -20 116 -20h39q81 0 115 27q35 26 35 73q0 48 -19 87q-20 42 -20 83q0 49 29 84t75 35q133 0 136 -256q0 -97 -30 -166q-30 -70 -79 -116q-48 -45 -113 -68
q-66 -23 -135 -23h-70zM1066 976q35 34 83 34q50 0 84 -34q35 -35 35 -81q0 -50 -35 -87q-34 -36 -86 -36q-47 0 -82 36q-35 37 -35 87q0 47 36 81z" />
    <glyph glyph-name="uniFEE7_uniFEF0.liga" unicode="&#xfee7;&#xfef0;" horiz-adv-x="1685" 
d="M952 0q-53 0 -80 -9t-27 -22q0 -19 24 -30q29 -13 58 -19l35 -8q24 -6 39 -9q42 -9 75 -28t58 -53q23 -34 23 -86q0 -93 -52 -161q-51 -67 -133 -115q-81 -46 -179 -69q-99 -24 -191 -24q-117 0 -209 33t-157 95q-67 63 -101 149q-35 90 -35 198q0 37 5 100q5 56 21 105
q15 50 45 84q29 35 79 35q33 0 56 -20q21 -21 21 -56q0 -13 -5 -43l-11 -58q-8 -40 -11 -66q-5 -38 -5 -60q0 -269 340 -269q8 0 65 5t106 13q55 9 97 25q43 15 43 37q0 15 -21 31q-22 16 -67 31q-93 25 -144 59q-51 33 -51 107q0 95 37 160q38 65 99 104q62 39 140 57
q82 17 160 17h155q81 0 115 27q35 26 35 73q0 48 -19 87q-20 42 -20 83q0 49 29 84t75 35q133 0 136 -256q0 -97 -30 -166q-30 -70 -79 -116q-48 -45 -113 -68q-51 -17 -106 -22v-1h-325zM1378 976q35 34 83 34q50 0 84 -34q35 -35 35 -81q0 -50 -35 -87q-34 -36 -86 -36
q-47 0 -82 36q-35 37 -35 87q0 47 36 81z" />
    <glyph glyph-name="uniFEE7_uniFEF2.liga" unicode="&#xfee7;&#xfef2;" horiz-adv-x="1685" 
d="M678 -800q34 34 81 34q51 0 85 -34t34 -83q0 -50 -34 -85q-34 -36 -85 -36q-49 0 -82 36q-34 35 -34 85q0 48 35 83zM393 -800q34 34 84 34q49 0 83 -34t34 -81q0 -52 -34 -87q-34 -36 -85 -36q-47 0 -82 36q-35 37 -35 87q0 46 35 81zM952 0q-53 0 -80 -9t-27 -22
q0 -19 24 -30q29 -13 58 -19l35 -8q24 -6 39 -9q42 -9 75 -28t58 -53q23 -34 23 -86q0 -93 -52 -161q-51 -67 -133 -115q-81 -46 -179 -69q-99 -24 -191 -24q-117 0 -209 33t-157 95q-67 63 -101 149q-35 90 -35 198q0 37 5 100q5 56 21 105q15 50 45 84q29 35 79 35
q33 0 56 -20q21 -21 21 -56q0 -13 -5 -43l-11 -58q-8 -40 -11 -66q-5 -38 -5 -60q0 -269 340 -269q8 0 65 5t106 13q55 9 97 25q43 15 43 37q0 15 -21 31q-22 16 -67 31q-93 25 -144 59q-51 33 -51 107q0 95 37 160q38 65 99 104q62 39 140 57q82 17 160 17h155q81 0 115 27
q35 26 35 73q0 48 -19 87q-20 42 -20 83q0 49 29 84t75 35q133 0 136 -256q0 -97 -30 -166q-30 -70 -79 -116q-48 -45 -113 -68q-51 -17 -106 -22v-1h-325zM1378 976q35 34 83 34q50 0 84 -34q35 -35 35 -81q0 -50 -35 -87q-34 -36 -86 -36q-47 0 -82 36q-35 37 -35 87
q0 47 36 81z" />
    <glyph glyph-name="uniFEF4_uniFEAE.liga" unicode="&#xfef4;&#xfeae;" horiz-adv-x="1478" 
d="M898 0q-125 11 -202 103l-9 -27q-39 -109 -99 -192q-63 -84 -134 -141t-142 -96q-74 -40 -124 -55q-55 -18 -81 -18q-45 0 -74 23q-30 23 -30 61q0 79 94 119q99 44 184 100q78 53 131 119q52 64 78 146q25 79 25 182q0 21 -3 49q-3 29 -3 59q0 25 3 50q3 26 13 44
q11 20 28 30q17 11 48 11q76 0 101 -75q25 -80 52 -131q27 -54 51 -75q21 -21 50 -32q26 -10 48 -12l14 -1q9 0 14 -1q62 2 116 33q57 31 71 104q8 51 33 75q25 23 53 23t52 -24q23 -26 30 -74q7 -66 55 -101q47 -36 137 -36v-240q-226 0 -276 125q-34 -56 -109 -91
q-61 -28 -142 -33v-1h-53zM964 -216q34 34 84 34q49 0 83 -34t34 -81q0 -52 -34 -87q-34 -36 -85 -36q-47 0 -82 36q-35 37 -35 87q0 46 35 81zM1249 -216q34 34 82 34q50 0 84 -34q35 -35 35 -83t-35 -85q-34 -36 -84 -36q-48 0 -83 36q-34 35 -34 85q0 48 35 83z" />
    <glyph glyph-name="uniFEF3_uniFEE4.liga" unicode="&#xfef3;&#xfee4;" horiz-adv-x="1367" 
d="M384 141q37 -32 85 -32q35 0 48 19t13 46q0 48 -32 91q-33 42 -86 42q-29 0 -47 -20q-19 -20 -19 -62q1 -52 38 -84zM866 0q-133 0 -204 68q-53 -146 -213 -146q-152 0 -240 154q-57 -76 -158 -76h-51q-18 0 -30 4q-15 5 -15 10v209q0 9 15 13q12 4 30 4h37q61 0 101 40
q38 37 77 88q37 48 82 88q44 40 117 40q57 0 99 -17q41 -18 72 -45q35 -31 60 -62q23 -29 62 -65q29 -26 80 -47q48 -20 116 -20h33q81 0 115 27q35 26 35 73q0 48 -19 87q-20 42 -20 83q0 49 29 84t75 35q135 0 136 -256q0 -97 -30 -166q-30 -70 -79 -116q-48 -45 -113 -68
q-66 -23 -135 -23h-64zM797 -216q34 34 84 34q49 0 83 -34t34 -81q0 -52 -34 -87q-34 -36 -85 -36q-47 0 -82 36q-35 37 -35 87q0 46 35 81zM1082 -216q34 34 81 34q51 0 85 -34t34 -83q0 -50 -34 -85q-34 -36 -85 -36q-49 0 -82 36q-34 35 -34 85q0 48 35 83z" />
    <glyph glyph-name="uniFEF4_uniFEE6.liga" unicode="&#xfef4;&#xfee6;" horiz-adv-x="1867" 
d="M503 614q35 33 82 33q51 0 85 -33q34 -34 34 -82q0 -52 -34 -86q-34 -36 -87 -36q-46 0 -81 36q-35 35 -35 86q0 48 36 82zM1638 -216q34 34 82 34q50 0 84 -34q35 -35 35 -83t-35 -85q-34 -36 -84 -36q-48 0 -83 36q-34 35 -34 85q0 48 35 83zM1353 -216q34 34 84 34
q49 0 83 -34t34 -81q0 -52 -34 -87q-34 -36 -85 -36q-47 0 -82 36q-35 37 -35 87q0 46 35 81zM1310 0q-11 0 -16 1q-76 6 -113 42q-5 -130 -35 -241q-31 -115 -103 -207q-70 -90 -185 -145q-115 -54 -283 -54q-140 0 -232 47q-89 45 -145 118q-55 70 -76 151q-22 79 -22 149
q0 54 4 109q5 65 20 115q15 54 46 91q30 37 84 37q26 0 43 -17q16 -17 16 -55q0 -55 -6 -108q-6 -52 -6 -70q0 -61 14 -120q14 -58 51 -102q38 -43 102 -69q66 -26 167 -26q171 0 265 97q95 98 95 267q0 45 -12 88q-13 44 -27 81l-26 71q-13 32 -13 57q0 41 28 72
q27 31 66 31q25 0 43 -7t41 -36q54 -63 111 -95q52 -31 114 -32q62 2 116 33q57 31 71 104q8 51 33 75q25 23 53 23t52 -24q23 -26 30 -74q7 -66 55 -101q47 -36 137 -36v-240q-226 0 -276 125q-34 -56 -109 -91q-65 -29 -151 -34h-21z" />
    <glyph glyph-name="T_h.liga" unicode="Th" horiz-adv-x="1869" 
d="M1043 1260q38 0 65 -27q26 -28 26 -66v-443q33 71 114 110q81 38 157 38q162 0 254 -101q91 -101 91 -285v-400q0 -38 -28 -66q-29 -29 -69 -29q-38 0 -64 29q-27 29 -27 66v389q0 97 -54 155t-136 58q-95 0 -166 -57q-72 -57 -72 -172v-373q0 -38 -28 -66
q-29 -29 -69 -29q-38 0 -64 29q-27 29 -27 66v993h-341v-989q0 -41 -29 -70t-71 -29q-39 0 -66 29q-28 28 -28 70v989h-290q-36 0 -64 26q-28 25 -28 62q0 40 28 67q28 26 64 26h922z" />
    <glyph glyph-name="f_b.liga" unicode="fb" horiz-adv-x="1731" 
d="M1015 237q77 -72 186 -72q110 0 183 75q74 76 74 190q0 115 -74 187q-73 72 -184 72q-105 0 -182 -70q-79 -70 -79 -189q0 -121 76 -193zM936 733l1 2v-4q39 68 117 105q77 36 170 36q178 0 303 -122q123 -123 123 -324q0 -195 -125 -320q-124 -124 -303 -124
q-88 0 -167 38q-80 38 -118 104v-7l-1 2v-33q0 -38 -28 -66q-29 -29 -69 -29q-38 0 -64 29q-27 29 -27 66v1026q0 20 -51 30q-50 10 -108 10q-64 0 -109 -17q-43 -18 -60 -53q-19 -37 -23 -68q-6 -31 -6 -81v-79h123q30 0 55 -23q23 -23 23 -58q0 -31 -23 -52
q-23 -22 -55 -22h-123v-613q0 -37 -26 -66q-27 -29 -65 -29q-39 0 -68 29t-29 66v613h-95q-32 0 -55 22q-24 21 -24 52q0 36 24 58q25 23 55 23h95v79q0 190 83 288q82 97 292 97q113 0 189 -18q77 -18 111 -51t46 -64t12 -70v-382z" />
    <glyph glyph-name="f_f_b.liga" unicode="ffb" horiz-adv-x="2347" 
d="M1631 237q77 -72 186 -72q110 0 183 75q74 76 74 190q0 115 -74 187q-73 72 -184 72q-105 0 -182 -70q-79 -70 -79 -189q0 -121 76 -193zM391 699v-613q0 -37 -26 -66q-27 -29 -65 -29q-39 0 -68 29t-29 66v613h-95q-32 0 -55 22q-24 21 -24 52q0 36 24 58q25 23 55 23
h95v79q0 182 85 283q86 102 255 102h33q38 0 64 -25q27 -25 27 -62q0 -38 -26 -66q-27 -28 -65 -28h-33q-152 0 -152 -204v-79h428v79q0 190 83 288q82 97 292 97q113 0 189 -18q77 -18 111 -51t46 -64t12 -70v-382l1 2v-4q39 68 117 105q77 36 170 36q178 0 303 -122
q123 -123 123 -324q0 -195 -125 -320q-124 -124 -303 -124q-88 0 -167 38q-80 38 -118 104v-7l-1 2v-33q0 -38 -28 -66q-29 -29 -69 -29q-38 0 -64 29q-27 29 -27 66v1026q0 20 -51 30q-50 10 -108 10q-64 0 -109 -17q-43 -18 -60 -53q-19 -37 -23 -68q-6 -31 -6 -81v-79
h123q30 0 55 -23q23 -23 23 -58q0 -31 -23 -52q-23 -22 -55 -22h-123v-613q0 -37 -26 -66q-27 -29 -65 -29q-39 0 -68 29t-29 66v613h-428z" />
    <glyph glyph-name="f_f.liga" unicode="ff" horiz-adv-x="1232" 
d="M819 699h-428v-613q0 -37 -26 -66q-27 -29 -65 -29q-39 0 -68 29t-29 66v613h-95q-32 0 -55 22q-24 21 -24 52q0 36 24 58q25 23 55 23h95v79q0 182 85 283q86 102 255 102h33q38 0 64 -25q27 -25 27 -62q0 -38 -26 -66q-27 -28 -65 -28h-33q-152 0 -152 -204v-79h428v79
q0 182 85 283q86 102 255 102h15q38 0 64 -25q27 -25 27 -62q0 -39 -27 -66q-27 -28 -64 -28h-15q-151 0 -151 -204v-79h122q33 0 56 -23t23 -58q0 -31 -24 -52q-23 -22 -55 -22h-122v-613q0 -37 -26 -66q-27 -29 -66 -29t-68 29t-29 66v613z" />
    <glyph glyph-name="f_h.liga" unicode="fh" horiz-adv-x="1672" 
d="M936 724h1q33 71 114 110q81 38 157 38q162 0 254 -101q91 -101 91 -285v-400q0 -38 -28 -66q-29 -29 -69 -29q-38 0 -64 29q-27 29 -27 66v389q0 97 -54 155t-136 58q-95 0 -166 -57q-72 -57 -73 -172v-373q0 -38 -28 -66q-29 -29 -69 -29q-38 0 -64 29q-27 29 -27 66
v1026q0 20 -51 30q-50 10 -108 10q-64 0 -109 -17q-43 -18 -60 -53q-19 -37 -23 -68q-6 -31 -6 -81v-79h123q30 0 55 -23q23 -23 23 -58q0 -31 -23 -52q-23 -22 -55 -22h-123v-613q0 -37 -26 -66q-27 -29 -65 -29q-39 0 -68 29t-29 66v613h-95q-32 0 -55 22q-24 21 -24 52
q0 36 24 58q25 23 55 23h95v79q0 190 83 288q82 97 292 97q113 0 189 -18q77 -18 111 -51t46 -64t12 -70v-391z" />
    <glyph glyph-name="f_f_h.liga" unicode="ffh" horiz-adv-x="2288" 
d="M391 699v-613q0 -37 -26 -66q-27 -29 -65 -29q-39 0 -68 29t-29 66v613h-95q-32 0 -55 22q-24 21 -24 52q0 36 24 58q25 23 55 23h95v79q0 182 85 283q86 102 255 102h33q38 0 64 -25q27 -25 27 -62q0 -38 -26 -66q-27 -28 -65 -28h-33q-152 0 -152 -204v-79h428v79
q0 190 83 288q82 97 292 97q113 0 189 -18q77 -18 111 -51t46 -64t12 -70v-391h1q33 71 114 110q81 38 157 38q162 0 254 -101q91 -101 91 -285v-400q0 -38 -28 -66q-29 -29 -69 -29q-38 0 -64 29q-27 29 -27 66v389q0 97 -54 155t-136 58q-95 0 -166 -57q-72 -57 -73 -172
v-373q0 -38 -28 -66q-29 -29 -69 -29q-38 0 -64 29q-27 29 -27 66v1026q0 20 -51 30q-50 10 -108 10q-64 0 -109 -17q-43 -18 -60 -53q-19 -37 -23 -68q-6 -31 -6 -81v-79h123q30 0 55 -23q23 -23 23 -58q0 -31 -23 -52q-23 -22 -55 -22h-123v-613q0 -37 -26 -66
q-27 -29 -65 -29q-39 0 -68 29t-29 66v613h-428z" />
    <glyph glyph-name="f_f_i.liga" unicode="ffi" horiz-adv-x="1673" 
d="M1541 1285q35 -35 35 -85q0 -52 -35 -85q-35 -34 -89 -34q-50 0 -88 35t-38 84t38 84q37 34 88 34q53 0 89 -33zM1359 699h-372v-613q0 -37 -26 -66q-27 -29 -65 -29q-39 0 -68 29t-29 66v613h-408v-613q0 -37 -26 -66q-27 -29 -65 -29q-39 0 -68 29t-29 66v613h-95
q-32 0 -55 22q-24 21 -24 52q0 36 24 58q25 23 55 23h95v79q0 182 85 283q86 102 255 102h33q38 0 64 -25q27 -25 27 -62q0 -38 -26 -66q-27 -28 -65 -28h-33q-152 0 -152 -204v-79h408v79q0 182 85 283q86 102 255 102h6q36 0 64 -25q27 -25 27 -62q0 -39 -27 -66
q-28 -28 -64 -28h-6q-152 0 -152 -204v-79h463q41 0 69 -28t28 -67v-673q0 -38 -28 -66q-29 -29 -69 -29q-38 0 -64 29q-27 29 -27 66v613z" />
    <glyph glyph-name="f_j.liga" unicode="fj" horiz-adv-x="1064" 
d="M931 1285q36 -34 36 -85q0 -52 -36 -85q-37 -34 -90 -34q-50 0 -88 35t-38 84t38 84q37 34 88 34q53 0 90 -33zM746 699h-355v-613q0 -37 -26 -66q-27 -29 -65 -29q-39 0 -68 29t-29 66v613h-95q-32 0 -55 22q-24 21 -24 52q0 36 24 58q25 23 55 23h95v79q0 182 85 283
q86 102 255 102h7q37 0 65 -25q27 -25 27 -62q0 -38 -26 -66q-27 -28 -66 -28h-7q-152 0 -152 -204v-79h446q41 0 69 -28t28 -67v-816q0 -367 -309 -367h-45q-36 0 -62 26t-26 60q0 38 26 64q25 25 62 25h23q148 0 143 192v756z" />
    <glyph glyph-name="f_f_j.liga" unicode="ffj" horiz-adv-x="1680" 
d="M794 699h-403v-613q0 -37 -26 -66q-27 -29 -65 -29q-39 0 -68 29t-29 66v613h-95q-32 0 -55 22q-24 21 -24 52q0 36 24 58q25 23 55 23h95v79q0 182 85 283q86 102 255 102h62q37 0 65 -25q27 -25 27 -62q0 -38 -26 -66q-27 -28 -66 -28h-62q-152 0 -152 -204v-79h403v79
q0 182 85 283q86 102 255 102h5q37 0 65 -25q27 -25 27 -62q0 -38 -26 -66q-27 -28 -66 -28h-5q-152 0 -152 -204v-79h474q40 0 68 -28t28 -67v-816q0 -367 -309 -367h-45q-36 0 -62 26t-26 60q0 38 26 64q25 25 62 25h23q148 0 143 192v756h-382v-613q0 -37 -26 -66
q-27 -29 -65 -29q-40 0 -69 29q-28 28 -28 66v613zM1549 1285q36 -34 36 -85q0 -52 -36 -85q-37 -34 -90 -34q-50 0 -88 35t-38 84t38 84q37 34 88 34q53 0 90 -33z" />
    <glyph glyph-name="f_k.liga" unicode="fk" horiz-adv-x="1575" 
d="M936 746l368 488q20 31 60 35q38 4 68 -16q31 -20 35 -57q5 -39 -18 -68l-381 -495l447 -485q26 -25 24 -69t-34 -70q-25 -22 -64 -18q-40 4 -65 31l-438 487l-2 4v-427q0 -38 -28 -66q-29 -29 -69 -29q-38 0 -64 29q-27 29 -27 66v1026q0 20 -51 30q-50 10 -108 10
q-64 0 -109 -17q-43 -18 -60 -53q-19 -37 -23 -68q-6 -31 -6 -81v-79h123q30 0 55 -23q23 -23 23 -58q0 -31 -23 -52q-23 -22 -55 -22h-123v-613q0 -37 -26 -66q-27 -29 -65 -29q-39 0 -68 29t-29 66v613h-95q-32 0 -55 22q-24 21 -24 52q0 36 24 58q25 23 55 23h95v79
q0 190 83 288q82 97 292 97q113 0 189 -18q77 -18 111 -51t46 -64t12 -70v-369z" />
    <glyph glyph-name="f_f_k.liga" unicode="ffk" horiz-adv-x="2191" 
d="M391 699v-613q0 -37 -26 -66q-27 -29 -65 -29q-39 0 -68 29t-29 66v613h-95q-32 0 -55 22q-24 21 -24 52q0 36 24 58q25 23 55 23h95v79q0 182 85 283q86 102 255 102h33q38 0 64 -25q27 -25 27 -62q0 -38 -26 -66q-27 -28 -65 -28h-33q-152 0 -152 -204v-79h428v79
q0 190 83 288q82 97 292 97q113 0 189 -18q77 -18 111 -51t46 -64t12 -70v-369l368 488q20 31 60 35q38 4 68 -16q31 -20 35 -57q5 -39 -18 -68l-381 -495l447 -485q26 -25 24 -69t-34 -70q-25 -22 -64 -18q-40 4 -65 31l-438 487l-2 4v-427q0 -38 -28 -66q-29 -29 -69 -29
q-38 0 -64 29q-27 29 -27 66v1026q0 20 -51 30q-50 10 -108 10q-64 0 -109 -17q-43 -18 -60 -53q-19 -37 -23 -68q-6 -31 -6 -81v-79h123q30 0 55 -23q23 -23 23 -58q0 -31 -23 -52q-23 -22 -55 -22h-123v-613q0 -37 -26 -66q-27 -29 -65 -29q-39 0 -68 29t-29 66v613h-428z
" />
    <glyph glyph-name="f_f_l.liga" unicode="ffl" horiz-adv-x="1680" 
d="M799 699h-408v-613q0 -37 -26 -66q-27 -29 -65 -29q-39 0 -68 29t-29 66v613h-95q-32 0 -55 22q-24 21 -24 52q0 36 24 58q25 23 55 23h95v79q0 182 85 283q86 102 255 102h15q36 0 64 -25q27 -25 27 -62q0 -38 -26 -66q-27 -28 -65 -28h-15q-152 0 -152 -204v-79h408v79
q0 190 83 288q82 97 292 97q377 0 377 -203v-1029q0 -38 -28 -66q-29 -29 -69 -29q-39 0 -65 29q-27 29 -27 66v1026q0 19 -59 30q-57 10 -118 10q-64 0 -109 -17q-43 -18 -60 -53q-19 -37 -23 -68q-6 -31 -6 -81v-79h123q30 0 55 -23q24 -22 24 -58q0 -31 -24 -52
q-23 -22 -55 -22h-123v-613q0 -37 -26 -66q-27 -29 -65 -29q-39 0 -68 29t-29 66v613z" />
    <glyph glyph-name="f_t.liga" unicode="ft" horiz-adv-x="1146" 
d="M391 699v-613q0 -37 -26 -66q-27 -29 -65 -29q-39 0 -68 29t-29 66v613h-95q-32 0 -55 22q-24 21 -24 52q0 36 24 58q25 23 55 23h95v79q0 182 85 283q86 102 255 102h4q36 0 64 -25q27 -25 27 -62q0 -38 -26 -66q-27 -28 -65 -28h-4q-152 0 -152 -204v-79h351v238
q0 39 27 67q25 28 64 28q41 0 69 -28t28 -67v-238h112q33 0 56 -23q22 -22 22 -58q0 -31 -23 -52q-23 -22 -55 -22h-112v-613q0 -38 -28 -66q-29 -29 -69 -29q-38 0 -64 29q-27 29 -27 66v613h-351z" />
    <glyph glyph-name="f_f_t.liga" unicode="fft" horiz-adv-x="1743" 
d="M391 699v-613q0 -37 -26 -66q-27 -29 -65 -29q-39 0 -68 29t-29 66v613h-95q-32 0 -55 22q-24 21 -24 52q0 36 24 58q25 23 55 23h95v79q0 182 85 283q86 102 255 102h33q38 0 64 -25q27 -25 27 -62q0 -38 -26 -66q-27 -28 -65 -28h-33q-152 0 -152 -204v-79h409v79
q0 182 85 283q86 102 255 102h4q36 0 64 -25q27 -25 27 -62q0 -38 -26 -66q-27 -28 -65 -28h-4q-152 0 -152 -204v-79h351v238q0 39 27 67q25 28 64 28q41 0 69 -28t28 -67v-238h112q33 0 56 -23q22 -22 22 -58q0 -31 -23 -52q-23 -22 -55 -22h-112v-613q0 -38 -28 -66
q-29 -29 -69 -29q-38 0 -64 29q-27 29 -27 66v613h-351v-613q0 -37 -26 -66q-27 -29 -65 -29q-39 0 -68 29t-29 66v613h-409z" />
    <glyph glyph-name="uni0647.fina" unicode="&#x647;" horiz-adv-x="988" arabic-form="final" 
d="M570 310q37 27 52 48q17 22 17 54q0 27 -17 53q-16 24 -52 24q-30 0 -52 -14q-21 -13 -35 -36q-14 -24 -20 -51q-6 -28 -6 -54q0 -16 1 -27q2 -24 11 -56q66 31 101 59zM235 -109q-55 -18 -81 -18q-45 0 -74 23q-30 23 -30 61q0 79 94 119q92 41 173 90l-11 90v90
q0 69 16 129q17 62 50 105q35 46 89 72q55 26 127 26q53 0 92 -19q41 -20 70 -53q29 -34 44 -78q15 -45 15 -94q0 -65 -23 -122q-24 -55 -62 -101q-40 -46 -91 -81q-49 -35 -110 -71q17 -88 55 -131q13 70 53 130q40 58 93 98q52 40 115 63q62 21 120 21h29v-240h-23
q-134 0 -205 -48t-71 -122q0 -38 17 -70t17 -67q0 -92 -92 -92q-39 0 -87 45q-46 43 -91 110q-42 62 -76 135q-16 32 -23 52q-63 -34 -119 -52z" />
    <glyph glyph-name="uni0672.fina" unicode="&#x672;" horiz-adv-x="590" 
d="M574 0q-102 0 -167 24q-65 22 -106 68q-40 44 -58 111q-19 62 -25 147q0 12 -3 60q-3 45 -6 116q-3 50 -7 151l-6 166q-4 111 -5 160q-2 102 -2 134q0 61 30 92q28 31 70 31q45 0 76 -34t31 -106v-682q0 -92 45 -145t137 -53h12v-240h-16zM139 1478q35 0 66 -10
q18 -6 70 -28h1q-28 28 -28 72q0 28 10 48q9 22 25 36q18 16 34 23q19 8 34 8q40 0 65 -15q25 -16 25 -39q0 -13 -6 -18q-7 -4 -19 -4t-30 5q-15 4 -28 4q-24 0 -33 -13t-9 -27q0 -42 66 -42q8 0 20 4l61 13q15 3 23 3q14 0 22 -8q8 -10 8 -20q0 -14 -7 -25q-7 -13 -34 -21
q-85 -28 -120 -46q-38 -20 -71 -21h-3q-30 0 -57 11q-28 11 -47 28q-14 11 -38 15h-6q-12 0 -27 -4q-18 -5 -31 -5t-18 4q-7 4 -7 18q0 22 26 39q9 5 22 10q23 5 41 5z" />
    <glyph glyph-name="uni0673.fina" unicode="&#x673;" horiz-adv-x="590" 
d="M574 0q-102 0 -167 24q-65 22 -106 68q-40 44 -58 111q-19 62 -25 147q0 12 -3 60q-3 45 -6 116q-3 50 -7 151l-6 166q-4 111 -5 160q-2 102 -2 134q0 61 30 92q28 31 70 31q45 0 76 -34t31 -106v-682q0 -92 45 -145t137 -53h12v-240h-16zM139 -251q35 0 66 -10
q18 -6 70 -28h1q-28 28 -28 72q0 28 10 48q9 22 25 36q18 16 34 23q19 8 34 8q40 0 65 -15q25 -16 25 -39q0 -13 -6 -18q-7 -4 -19 -4t-30 5q-15 4 -28 4q-24 0 -33 -13t-9 -27q0 -42 66 -42q8 0 20 4l61 13q15 3 23 3q14 0 22 -8q8 -10 8 -20q0 -14 -7 -25q-7 -13 -34 -21
q-85 -28 -120 -46q-38 -20 -71 -21h-3q-30 0 -57 11q-28 11 -47 28q-14 11 -38 15h-6q-12 0 -27 -4q-18 -5 -31 -5t-18 4q-7 4 -7 18q0 22 26 39q9 5 22 10q23 5 41 5z" />
    <glyph glyph-name="uni0675.fina" unicode="&#x675;" horiz-adv-x="951" 
d="M525 0q-102 0 -167 24q-65 22 -106 68q-40 44 -58 111q-19 62 -25 147q0 12 -3 60q-3 45 -6 116q-3 50 -7 151l-6 166q-4 111 -5 160q-2 102 -2 134q0 61 30 92q28 31 70 31q45 0 76 -34t31 -106v-682q0 -92 45 -145t137 -53h422v-240h-426zM580 1229q-87 -28 -105 -28
q-24 0 -42 12q-19 12 -19 39q0 24 32 44q27 17 81 38q-46 43 -46 113q0 44 16 76q16 33 40 56q23 22 53 36q29 12 53 12q62 0 102 -24q40 -25 40 -60q0 -23 -10 -29t-29 -6q-24 0 -48 7t-45 7q-36 0 -50 -20q-15 -21 -15 -43q0 -66 104 -66q9 0 31 6q45 10 47 10l49 10
q25 5 35 5q23 0 35 -13t12 -30q0 -19 -11 -39q-10 -19 -52 -33z" />
    <glyph glyph-name="uni0676.fina" unicode="&#x676;" horiz-adv-x="1000" 
d="M746 0q-29 -96 -79 -171q-56 -82 -113 -136q-62 -61 -127 -102q-66 -42 -123 -69q-53 -26 -100 -41q-42 -13 -58 -13q-45 0 -70 28q-26 28 -26 64q0 25 20 57q19 30 66 53q167 74 265 154q101 83 147 180q-55 1 -123 8q-59 6 -110 29q-50 23 -80 66q-31 43 -31 120
q0 60 18 123q16 60 50 114q30 51 81 86q49 34 113 34q68 0 120 -33q52 -32 88 -84q35 -49 58 -111q21 -62 27 -116h241v-240h-254zM544 276q-7 24 -21 47q-13 19 -34 36q-22 14 -48 14q-29 0 -51 -22q-24 -22 -24 -64q0 -35 35 -49q35 -15 94 -15h30q9 0 31 2q-4 26 -12 51z
M650 768q-87 -28 -104 -28q-26 0 -43 13q-19 12 -19 38q0 25 32 45q30 18 81 37q-45 44 -45 113q0 44 16 76q16 33 40 56q24 24 53 36t53 12q61 0 101 -24q40 -25 40 -60q0 -22 -10 -28q-10 -7 -29 -7q-21 0 -48 8q-24 7 -44 7q-37 0 -51 -20q-15 -21 -15 -44q0 -65 105 -65
q5 0 30 5q45 10 47 10l49 10q25 5 36 5q22 0 35 -13q12 -13 12 -30q0 -19 -11 -39q-12 -20 -53 -32q-169 -54 -258 -81z" />
    <glyph glyph-name="uni0677.fina" unicode="&#x677;" horiz-adv-x="997" 
d="M743 0q-29 -96 -79 -171q-56 -82 -113 -136q-62 -61 -127 -102q-66 -42 -123 -69q-53 -26 -100 -41q-42 -13 -58 -13q-45 0 -70 28q-26 28 -26 64q0 25 20 57q19 30 66 53q167 74 265 154q101 83 147 180q-55 1 -123 8q-59 6 -110 29q-50 23 -80 66q-31 43 -31 120
q0 60 18 123q16 60 50 114q30 51 81 86q49 34 113 34q68 0 120 -33q52 -32 88 -84q35 -49 58 -111q21 -62 27 -116h241v-240h-254zM541 276q-7 24 -21 47q-13 19 -34 36q-22 14 -48 14q-29 0 -51 -22q-24 -22 -24 -64q0 -35 35 -49q35 -15 94 -15h30q9 0 31 2q-4 26 -12 51z
M647 768q-87 -28 -104 -28q-26 0 -43 13q-19 12 -19 38q0 25 32 45q30 18 81 37q-45 44 -45 113q0 44 16 76q16 33 40 56q24 24 53 36t53 12q61 0 101 -24q40 -25 40 -60q0 -22 -10 -28q-10 -7 -29 -7q-21 0 -48 8q-24 7 -44 7q-37 0 -51 -20q-15 -21 -15 -44q0 -65 105 -65
q5 0 30 5q45 10 47 10l49 10q25 5 36 5q22 0 35 -13q12 -13 12 -30q0 -19 -11 -39q-12 -20 -53 -32q-169 -54 -258 -81zM345 1102q-30 0 -46 -16q-17 -17 -20 -41q-1 -3 -1 -10q0 -21 10 -42q11 -26 41 -50q80 56 80 106q0 53 -64 53zM329 853q-98 -69 -213 -107
q-56 -17 -65 -17q-16 0 -28 9q-13 7 -13 25q0 17 21 30q16 10 53 24q36 14 75 33q66 32 102 60q-43 43 -46 90v11q0 41 20 76q22 40 60 67q38 26 75 26q58 0 86 -33q29 -35 29 -69q0 -110 -103 -189q34 -30 37 -36q7 -10 7 -22v-1q-1 -13 -13 -20q-4 -3 -12 -3q-6 0 -18 5
q-13 8 -30 21z" />
    <glyph glyph-name="uni0678.init" unicode="&#x678;" horiz-adv-x="688" 
d="M-45 223q0 9 15 13q12 4 30 4h53q81 0 115 27q35 26 35 73q0 48 -19 87q-20 42 -20 83q0 49 29 84t75 35q133 0 136 -256q0 -97 -30 -166q-30 -70 -79 -116q-48 -45 -113 -68q-66 -23 -135 -23h-47q-18 0 -30 4q-15 5 -15 10v209zM326 841q-87 -28 -104 -28q-26 0 -43 13
q-18 12 -18 38q0 25 32 45q31 19 80 37q-45 44 -45 113q0 44 16 76q16 33 40 56q23 22 53 36q29 12 53 12q61 0 101 -24q40 -25 40 -60q0 -22 -10 -28q-10 -7 -29 -7q-20 0 -47 8q-24 7 -45 7q-37 0 -51 -20q-14 -22 -14 -44q0 -65 104 -65q5 0 30 5q45 10 47 10l49 10
q27 5 36 5q22 0 35 -13q12 -13 12 -30q0 -19 -11 -39q-12 -20 -53 -32q-169 -54 -258 -81z" />
    <glyph glyph-name="uni0678.medi" unicode="&#x678;" horiz-adv-x="784" 
d="M407 706q-87 -28 -105 -28q-24 0 -42 12q-19 12 -19 39q0 25 32 45q30 18 81 37q-45 44 -45 113q0 43 15 76q16 33 40 56q23 22 53 36q29 12 53 12q62 0 102 -24q40 -25 40 -60q0 -23 -10 -29t-29 -6q-24 0 -48 7t-44 7q-37 0 -51 -20q-15 -21 -15 -43q0 -66 105 -66
q8 0 30 6q45 10 47 10l49 10q25 5 35 5q23 0 35 -13t12 -30q0 -19 -11 -39q-10 -19 -52 -33zM30 240q78 0 136 33q57 31 71 104q8 51 33 75q25 23 53 23t52 -24q23 -26 30 -74q7 -66 55 -101q47 -36 137 -36h187v-240h-187q-226 0 -276 125q-34 -56 -109 -91
q-73 -33 -169 -34h-43q-18 0 -30 4q-15 5 -15 10v209q0 9 15 13q12 4 30 4h30z" />
    <glyph glyph-name="uni0678.fina" unicode="&#x678;" horiz-adv-x="1407" 
d="M952 0q-53 0 -80 -9t-27 -22q0 -19 24 -30q29 -13 58 -19l35 -8q24 -6 39 -9q42 -9 75 -28t58 -53q23 -34 23 -86q0 -93 -52 -161q-51 -67 -133 -115q-81 -46 -179 -69q-99 -24 -191 -24q-117 0 -209 33t-157 95q-67 63 -101 149q-35 90 -35 198q0 37 5 100q5 56 21 105
q15 50 45 84q29 35 79 35q33 0 56 -20q21 -21 21 -56q0 -13 -5 -43l-11 -58q-8 -40 -11 -66q-5 -38 -5 -60q0 -269 340 -269q8 0 65 5t106 13q55 9 97 25q43 15 43 37q0 15 -21 31q-22 16 -67 31q-93 25 -144 59q-51 33 -51 107q0 95 37 160q38 65 99 104q62 39 140 57
q82 17 160 17h308v-240h-455zM1015 431q-87 -28 -104 -28q-26 0 -43 13q-19 12 -19 39q0 24 32 44q30 18 81 37q-45 44 -45 113q0 44 16 76q15 34 40 57t53 35q29 12 53 12q61 0 101 -24q40 -25 40 -60q0 -22 -10 -28t-29 -6q-24 0 -48 7t-44 7q-37 0 -51 -20
q-15 -21 -15 -44q0 -65 105 -65q5 0 30 5q45 10 47 10q17 3 49 11q25 5 36 5q22 0 35 -13q12 -13 12 -30q0 -20 -11 -40q-12 -20 -53 -32q-169 -52 -258 -81z" />
    <glyph glyph-name="uni067C.init" unicode="&#x67c;" horiz-adv-x="518" 
d="M33 976q34 34 84 34q49 0 83 -34t34 -81q0 -52 -34 -87q-34 -36 -85 -36q-47 0 -82 36q-35 37 -35 87q0 46 35 81zM318 976q34 34 81 34q51 0 85 -34t34 -83q0 -50 -34 -85q-34 -36 -85 -36q-49 0 -82 36q-34 35 -34 85q0 48 35 83zM165 0q-6 -10 -16 -32q-7 -18 -12 -36
q-5 -22 -5 -35q0 -22 11 -38q10 -16 44 -16q58 0 86 17q26 17 26 43q0 29 -31 63q-32 33 -86 56q-7 -7 -17 -22zM46 0h-46q-18 0 -30 4q-15 5 -15 10v209q0 9 15 13q12 4 30 4h53q81 0 115 27q35 26 35 73q0 48 -19 87q-20 42 -20 83q0 49 29 84t75 35q133 0 136 -256
q0 -97 -30 -166q-22 -52 -56 -92q38 -36 64 -81q28 -49 28 -99q0 -47 -18 -86q-18 -40 -48 -69q-30 -28 -69 -45q-39 -16 -83 -16q-34 0 -63 7q-36 8 -58 23q-25 17 -42 42q-17 26 -17 65q0 55 20 110z" />
    <glyph glyph-name="uni067C.medi" unicode="&#x67c;" horiz-adv-x="774" 
d="M448 841q35 33 82 33q50 0 84 -33q35 -35 35 -83t-35 -85q-34 -36 -84 -36q-48 0 -83 36q-34 35 -34 85q0 48 35 83zM163 841q35 33 84 33t83 -33q34 -34 34 -81q0 -52 -34 -87q-34 -36 -85 -36q-47 0 -82 36q-35 37 -35 87q0 46 35 81zM165 -20q-6 -10 -16 -32
q-7 -18 -12 -36q-5 -22 -5 -35q0 -22 11 -38q10 -16 44 -16q58 0 86 17q26 17 26 43q0 29 -31 63q-32 33 -86 56q-7 -7 -17 -22zM0 0q-18 0 -30 4q-15 5 -15 10v209q0 9 15 13q12 4 30 4h130q78 0 136 33q57 31 71 104q8 51 33 75q25 23 53 23t52 -24q23 -26 30 -74
q7 -66 55 -101q47 -36 137 -36h77v-240h-77q-226 0 -276 125q-23 -38 -68 -68q14 -17 29 -43q28 -49 28 -99q0 -47 -18 -86q-18 -40 -48 -69q-30 -28 -69 -45q-39 -16 -83 -16q-34 0 -63 7q-36 8 -58 23q-25 17 -42 42q-17 26 -17 65q0 55 20 110q11 29 24 54h-56z" />
    <glyph glyph-name="uni067C.fina" unicode="&#x67c;" horiz-adv-x="1722" 
d="M864 841q35 33 82 33q50 0 84 -33q35 -35 35 -83t-35 -85q-34 -36 -84 -36q-48 0 -83 36q-34 35 -34 85q0 48 35 83zM579 841q35 33 84 33t83 -33q34 -34 34 -81q0 -52 -34 -87q-34 -36 -85 -36q-47 0 -82 36q-35 37 -35 87q0 46 35 81zM815 -80q-6 -10 -16 -32
q-7 -18 -12 -36q-5 -22 -5 -35q0 -22 11 -38q10 -16 44 -16q58 0 86 17q26 17 26 43q0 29 -31 63q-32 33 -86 56q-7 -7 -17 -22zM245 36q-145 93 -145 263q0 36 7 85q8 53 24 102q17 50 46 84q28 34 77 34q22 0 40 -15q17 -17 17 -50q0 -45 -9 -84t-9 -78q0 -70 44 -109
t120 -57q73 -17 178 -22q113 -5 217 -5q60 0 142 5q80 5 138 17q68 14 117 38q53 24 86 63q12 17 24 45q9 24 24 55q14 28 31 48t44 20q33 0 57 -33q23 -36 35 -90q11 -54 49 -82q39 -30 111 -30h12v-240h-53q-75 0 -142 38q-66 37 -92 87q-64 -88 -243 -135
q-72 -19 -164 -30l2 -3q2 -2 2 -3q28 -49 28 -99q0 -47 -18 -86q-18 -40 -48 -69q-30 -28 -69 -45q-39 -16 -83 -16q-34 0 -63 7q-36 8 -58 23q-25 17 -42 42q-17 26 -17 65q0 55 20 110q10 28 26 57q-319 0 -463 93z" />
    <glyph glyph-name="uni067D.init" unicode="&#x67d;" horiz-adv-x="518" 
d="M-45 223q0 9 15 13q12 4 30 4h53q81 0 115 27q35 26 35 73q0 48 -19 87q-20 42 -20 83q0 49 29 84t75 35q133 0 136 -256q0 -97 -30 -166q-30 -70 -79 -116q-48 -45 -113 -68q-66 -23 -135 -23h-47q-18 0 -30 4q-15 5 -15 10v209zM399 1255q50 0 85 -35q34 -35 34 -85
t-34 -83q-34 -34 -85 -34q-47 0 -81 34q-35 33 -35 83t34 85q33 35 82 35zM115 1255q50 0 85 -35q34 -35 34 -87q0 -48 -34 -81q-34 -34 -83 -34q-50 0 -84 34q-35 33 -35 81q0 50 35 87q35 35 82 35zM258 1010q52 0 86 -36q35 -37 35 -87q0 -46 -35 -81q-34 -34 -84 -34
q-48 0 -83 34q-36 35 -36 81q0 50 35 87q35 36 82 36z" />
    <glyph glyph-name="uni067D.medi" unicode="&#x67d;" horiz-adv-x="674" 
d="M460 1120q49 0 84 -35q35 -37 35 -86t-35 -82q-34 -34 -84 -34q-48 0 -82 34q-35 33 -35 82q0 51 34 86q35 35 83 35zM175 1120q50 0 85 -35q34 -35 34 -88q0 -47 -34 -80q-34 -34 -83 -34q-50 0 -84 34q-35 33 -35 80q0 51 35 88q35 35 82 35zM319 874q51 0 86 -35
q34 -35 34 -87q0 -47 -34 -81t-84 -34q-49 0 -83 34q-36 35 -36 81q0 50 35 87q35 35 82 35zM30 240q78 0 136 33q57 31 71 104q8 51 33 75q25 23 53 23t52 -24q23 -26 30 -74q7 -66 55 -101q47 -36 137 -36h77v-240h-77q-226 0 -276 125q-34 -56 -109 -91q-73 -33 -169 -34
h-43q-18 0 -30 4q-15 5 -15 10v209q0 9 15 13q12 4 30 4h30z" />
    <glyph glyph-name="uni067D.fina" unicode="&#x67d;" horiz-adv-x="1722" 
d="M1669 0q-75 0 -142 38q-66 37 -92 87q-64 -88 -243 -135q-180 -47 -482 -47q-321 0 -465 93q-145 93 -145 263q0 36 7 85q8 53 24 102q17 50 46 84q28 34 77 34q22 0 40 -15q17 -17 17 -50q0 -45 -9 -84t-9 -78q0 -70 44 -109t120 -57q73 -17 178 -22q113 -5 217 -5
q60 0 142 5q80 5 138 17q68 14 117 38q53 24 86 63q12 17 24 45q9 24 24 55q14 28 31 48t44 20q33 0 57 -33q23 -36 35 -90q11 -54 49 -82q39 -30 111 -30h12v-240h-53zM946 1120q49 0 84 -35q35 -37 35 -86t-35 -82q-34 -34 -84 -34q-48 0 -82 34q-35 33 -35 82q0 51 34 86
q35 35 83 35zM661 1120q50 0 85 -35q34 -35 34 -88q0 -47 -34 -80q-34 -34 -83 -34q-50 0 -84 34q-35 33 -35 80q0 51 35 88q35 35 82 35zM805 874q51 0 86 -35q34 -35 34 -87q0 -47 -34 -81t-84 -34q-49 0 -83 34q-36 35 -36 81q0 50 35 87q35 35 82 35z" />
    <glyph glyph-name="uni0681.init" unicode="&#x681;" horiz-adv-x="1192" 
d="M166 240q78 0 147 15q72 16 134 40q57 21 129 53q78 35 129 55q-193 57 -220 64q-81 22 -104 22q-26 0 -45 -10q-21 -10 -39 -21q-16 -11 -37 -22q-19 -10 -43 -10q-45 0 -62 23q-18 23 -18 53q0 47 22 87q20 39 56 70q37 30 78 46q42 16 86 16q53 0 125 -22l159 -50
q68 -23 175 -53q87 -25 176 -31q34 -5 53 -21q20 -18 30 -40q9 -22 12 -43t3 -27q0 -13 -2 -35q-1 -17 -11 -33q-8 -15 -28 -29q-18 -12 -55 -22q-97 -23 -168 -52q-76 -31 -137 -63q-82 -44 -124 -68q-57 -32 -128 -62q-36 -16 -80 -32q-39 -14 -77 -21q-37 -8 -88 -13
q-43 -4 -114 -4h-100q-18 0 -30 4q-15 5 -15 10v209q0 9 15 13q12 4 30 4h166zM425 879q-87 -28 -105 -28q-24 0 -42 12q-19 12 -19 39q0 24 32 44q27 17 81 38q-45 44 -45 113q0 43 15 76q16 33 40 56q23 22 53 36q29 12 53 12q62 0 102 -24q40 -25 40 -60q0 -23 -10 -29
t-29 -6q-24 0 -48 7t-44 7q-37 0 -51 -20q-15 -21 -15 -43q0 -66 105 -66q8 0 30 6q45 10 47 10l49 10q25 5 35 5q23 0 35 -13t12 -30q0 -19 -11 -39q-10 -19 -52 -33z" />
    <glyph glyph-name="uni0681.medi" unicode="&#x681;" horiz-adv-x="1266" 
d="M1049 0q-245 0 -246 301q-97 -62 -163 -114q-74 -59 -137 -97q-70 -42 -136 -65q-69 -25 -158 -25h-209q-18 0 -30 4q-15 5 -15 10v209q0 9 15 13q12 4 30 4h158q65 0 129 14q60 13 121 39q59 24 120 57q63 35 121 70l-99 18q-58 11 -78 14q-71 11 -91 11q-32 0 -53 -10
q-9 -4 -42 -22q-19 -10 -36 -21t-33 -11q-47 0 -64 24q-18 23 -18 50q0 52 24 92q23 41 60 71q38 30 82 45q45 15 90 15q51 0 127 -15q61 -12 162 -35q93 -23 173 -38q84 -17 163 -22q60 -4 89 -27q28 -24 28 -53q0 -74 -33 -100q-31 -25 -180 -66q24 -100 163 -100h183
v-240h-217zM532 840q-87 -28 -105 -28q-24 0 -42 12q-19 12 -19 39q0 24 32 44q27 17 81 38q-45 44 -45 113q0 43 15 76q16 33 40 56q23 22 53 36q29 12 53 12q62 0 102 -24q40 -25 40 -60q0 -23 -10 -29t-29 -6q-24 0 -48 7t-44 7q-37 0 -51 -20q-15 -21 -15 -43
q0 -66 105 -66q8 0 30 6q45 10 47 10l49 10q25 5 35 5q23 0 35 -13t12 -30q0 -19 -11 -39q-10 -19 -52 -33z" />
    <glyph glyph-name="uni0681.fina" unicode="&#x681;" horiz-adv-x="1257" 
d="M1026 0q-66 0 -110 27q-44 26 -71 69q-27 41 -41 97q-15 57 -16 106q-82 -33 -171 -83q-83 -46 -151 -107q-67 -60 -109 -130t-42 -149q0 -102 35 -174q34 -69 96 -110q58 -39 142 -56q79 -16 176 -16q148 0 248 21q103 20 143 20q27 0 43 -10q15 -9 26 -27q8 -14 13 -35
q4 -16 4 -37q0 -49 -56 -82q-56 -32 -139 -52q-87 -21 -173 -29q-91 -9 -161 -9q-125 0 -233 28q-109 27 -196 92q-84 64 -134 169q-49 102 -49 258q0 116 45 213q45 99 118 177q71 77 165 140q94 61 186 101q-97 7 -139 8l-80 2q-32 0 -54 -13q-24 -13 -45 -30
q-27 -20 -44 -30q-22 -13 -52 -13q-34 0 -57 24q-23 23 -23 54q0 37 22 80q20 41 54 80q31 34 74 61q41 24 82 24q51 0 87 -3q24 -2 70 -8l70 -10l88 -10q61 -5 125 -8q65 -4 180 -4q73 0 118 -19q46 -19 46 -97q0 -41 -20 -67q-22 -28 -51 -44q-34 -19 -70 -29
q-45 -14 -76 -20q15 -100 139 -100h199v-240h-231zM581 835q-87 -28 -105 -28q-24 0 -42 12q-19 12 -19 39q0 24 32 44q27 17 81 38q-45 44 -45 113q0 43 15 76q16 33 40 56q23 22 53 36q29 12 53 12q62 0 102 -24q40 -25 40 -60q0 -23 -10 -29t-29 -6q-24 0 -48 7t-44 7
q-37 0 -51 -20q-15 -21 -15 -43q0 -66 105 -66q8 0 30 6q45 10 47 10l49 10q25 5 35 5q23 0 35 -13t12 -30q0 -19 -11 -39q-10 -19 -52 -33z" />
    <glyph glyph-name="uni0682.init" unicode="&#x682;" horiz-adv-x="1192" 
d="M166 240q78 0 147 15q72 16 134 40q57 21 129 53q78 35 129 55q-193 57 -220 64q-81 22 -104 22q-26 0 -45 -10q-21 -10 -39 -21q-16 -11 -37 -22q-19 -10 -43 -10q-45 0 -62 23q-18 23 -18 53q0 47 22 87q20 39 56 70q37 30 78 46q42 16 86 16q53 0 125 -22l159 -50
q68 -23 175 -53q87 -25 176 -31q34 -5 53 -21q20 -18 30 -40q9 -22 12 -43t3 -27q0 -13 -2 -35q-1 -17 -11 -33q-8 -15 -28 -29q-18 -12 -55 -22q-97 -23 -168 -52q-76 -31 -137 -63q-82 -44 -124 -68q-57 -32 -128 -62q-36 -16 -80 -32q-39 -14 -77 -21q-37 -8 -88 -13
q-43 -4 -114 -4h-100q-18 0 -30 4q-15 5 -15 10v209q0 9 15 13q12 4 30 4h166zM391 1178q-36 35 -36 83q0 50 36 84q37 35 85 35t83 -35q34 -34 34 -84q0 -48 -34 -82q-35 -35 -83 -35q-50 0 -85 34zM391 894q-36 35 -36 82q0 51 36 85q35 34 87 34q47 0 81 -34t34 -83
q0 -50 -34 -84q-35 -35 -81 -35q-50 0 -87 35z" />
    <glyph glyph-name="uni0682.medi" unicode="&#x682;" horiz-adv-x="1266" 
d="M1049 0q-245 0 -246 301q-97 -62 -163 -114q-74 -59 -137 -97q-70 -42 -136 -65q-69 -25 -158 -25h-209q-18 0 -30 4q-15 5 -15 10v209q0 9 15 13q12 4 30 4h158q65 0 129 14q60 13 121 39q59 24 120 57q63 35 121 70l-99 18q-58 11 -78 14q-71 11 -91 11q-32 0 -53 -10
q-9 -4 -42 -22q-19 -10 -36 -21t-33 -11q-47 0 -64 24q-18 23 -18 50q0 52 24 92q23 41 60 71q38 30 82 45q45 15 90 15q51 0 127 -15q61 -12 162 -35q93 -23 173 -38q84 -17 163 -22q60 -4 89 -27q28 -24 28 -53q0 -74 -33 -100q-31 -25 -180 -66q24 -100 163 -100h183
v-240h-217zM517 1141q-36 35 -36 83q0 50 36 84q37 35 85 35t83 -35q34 -34 34 -84q0 -48 -34 -82q-35 -35 -83 -35q-50 0 -85 34zM517 857q-36 35 -36 82q0 51 36 85q35 34 87 34q47 0 81 -34t34 -83q0 -50 -34 -84q-35 -35 -81 -35q-50 0 -87 35z" />
    <glyph glyph-name="uni0682.fina" unicode="&#x682;" horiz-adv-x="1257" 
d="M1026 0q-66 0 -110 27q-44 26 -71 69q-27 41 -41 97q-15 57 -16 106q-82 -33 -171 -83q-83 -46 -151 -107q-67 -60 -109 -130t-42 -149q0 -102 35 -174q34 -69 96 -110q58 -39 142 -56q79 -16 176 -16q148 0 248 21q103 20 143 20q27 0 43 -10q15 -9 26 -27q8 -14 13 -35
q4 -16 4 -37q0 -49 -56 -82q-56 -32 -139 -52q-87 -21 -173 -29q-91 -9 -161 -9q-125 0 -233 28q-109 27 -196 92q-84 64 -134 169q-49 102 -49 258q0 116 45 213q45 99 118 177q71 77 165 140q94 61 186 101q-97 7 -139 8l-80 2q-32 0 -54 -13q-24 -13 -45 -30
q-27 -20 -44 -30q-22 -13 -52 -13q-34 0 -57 24q-23 23 -23 54q0 37 22 80q20 41 54 80q31 34 74 61q41 24 82 24q51 0 87 -3q24 -2 70 -8l70 -10l88 -10q61 -5 125 -8q65 -4 180 -4q73 0 118 -19q46 -19 46 -97q0 -41 -20 -67q-22 -28 -51 -44q-34 -19 -70 -29
q-45 -14 -76 -20q15 -100 139 -100h199v-240h-231zM560 1141q-36 35 -36 83q0 50 36 84q37 35 85 35t83 -35q34 -34 34 -84q0 -48 -34 -82q-35 -35 -83 -35q-50 0 -85 34zM560 857q-36 35 -36 82q0 51 36 85q35 34 87 34q47 0 81 -34t34 -83q0 -50 -34 -84q-35 -35 -81 -35
q-50 0 -87 35z" />
    <glyph glyph-name="uni0685.init" unicode="&#x685;" horiz-adv-x="1192" 
d="M166 240q78 0 147 15q72 16 134 40q57 21 129 53q78 35 129 55q-193 57 -220 64q-81 22 -104 22q-26 0 -45 -10q-21 -10 -39 -21q-16 -11 -37 -22q-19 -10 -43 -10q-45 0 -62 23q-18 23 -18 53q0 47 22 87q20 39 56 70q37 30 78 46q42 16 86 16q53 0 125 -22l159 -50
q68 -23 175 -53q87 -25 176 -31q34 -5 53 -21q20 -18 30 -40q9 -22 12 -43t3 -27q0 -13 -2 -35q-1 -17 -11 -33q-8 -15 -28 -29q-18 -12 -55 -22q-97 -23 -168 -52q-76 -31 -137 -63q-82 -44 -124 -68q-57 -32 -128 -62q-36 -16 -80 -32q-39 -14 -77 -21q-37 -8 -88 -13
q-43 -4 -114 -4h-100q-18 0 -30 4q-15 5 -15 10v209q0 9 15 13q12 4 30 4h166zM677 1059q34 34 82 34q50 0 84 -34q35 -35 35 -83t-35 -85q-34 -36 -84 -36q-48 0 -83 36q-34 35 -34 85q0 48 35 83zM393 1059q34 34 83 34t83 -34t34 -81q0 -52 -34 -87q-34 -36 -85 -36
q-46 0 -81 36q-35 37 -35 87q0 46 35 81zM537 1305q36 33 83 33q50 0 84 -33q34 -34 34 -81q0 -52 -34 -87q-34 -36 -86 -36q-47 0 -82 36q-35 37 -35 87q0 47 36 81z" />
    <glyph glyph-name="uni0685.medi" unicode="&#x685;" horiz-adv-x="1266" 
d="M1049 0q-245 0 -246 301q-97 -62 -163 -114q-74 -59 -137 -97q-70 -42 -136 -65q-69 -25 -158 -25h-209q-18 0 -30 4q-15 5 -15 10v209q0 9 15 13q12 4 30 4h158q65 0 129 14q60 13 121 39q59 24 120 57q63 35 121 70l-99 18q-58 11 -78 14q-71 11 -91 11q-32 0 -53 -10
q-9 -4 -42 -22q-19 -10 -36 -21t-33 -11q-47 0 -64 24q-18 23 -18 50q0 52 24 92q23 41 60 71q38 30 82 45q45 15 90 15q51 0 127 -15q61 -12 162 -35q93 -23 173 -38q84 -17 163 -22q60 -4 89 -27q28 -24 28 -53q0 -74 -33 -100q-31 -25 -180 -66q24 -100 163 -100h183
v-240h-217zM802 1025q34 34 82 34q50 0 84 -34q35 -35 35 -83t-35 -85q-34 -36 -84 -36q-48 0 -83 36q-34 35 -34 85q0 48 35 83zM518 1025q34 34 83 34t83 -34t34 -81q0 -52 -34 -87q-34 -36 -85 -36q-46 0 -81 36q-35 37 -35 87q0 46 35 81zM662 1271q36 33 83 33
q50 0 84 -33q34 -34 34 -81q0 -52 -34 -87q-34 -36 -86 -36q-47 0 -82 36q-35 37 -35 87q0 47 36 81z" />
    <glyph glyph-name="uni0685.fina" unicode="&#x685;" horiz-adv-x="1257" 
d="M1026 0q-66 0 -110 27q-44 26 -71 69q-27 41 -41 97q-15 57 -16 106q-82 -33 -171 -83q-83 -46 -151 -107q-67 -60 -109 -130t-42 -149q0 -102 35 -174q34 -69 96 -110q58 -39 142 -56q79 -16 176 -16q148 0 248 21q103 20 143 20q27 0 43 -10q15 -9 26 -27q8 -14 13 -35
q4 -16 4 -37q0 -49 -56 -82q-56 -32 -139 -52q-87 -21 -173 -29q-91 -9 -161 -9q-125 0 -233 28q-109 27 -196 92q-84 64 -134 169q-49 102 -49 258q0 116 45 213q45 99 118 177q71 77 165 140q94 61 186 101q-97 7 -139 8l-80 2q-32 0 -54 -13q-24 -13 -45 -30
q-27 -20 -44 -30q-22 -13 -52 -13q-34 0 -57 24q-23 23 -23 54q0 37 22 80q20 41 54 80q31 34 74 61q41 24 82 24q51 0 87 -3q24 -2 70 -8l70 -10l88 -10q61 -5 125 -8q65 -4 180 -4q73 0 118 -19q46 -19 46 -97q0 -41 -20 -67q-22 -28 -51 -44q-34 -19 -70 -29
q-45 -14 -76 -20q15 -100 139 -100h199v-240h-231zM832 1025q34 34 82 34q50 0 84 -34q35 -35 35 -83t-35 -85q-34 -36 -84 -36q-48 0 -83 36q-34 35 -34 85q0 48 35 83zM548 1025q34 34 83 34t83 -34t34 -81q0 -52 -34 -87q-34 -36 -85 -36q-46 0 -81 36q-35 37 -35 87
q0 46 35 81zM692 1271q36 33 83 33q50 0 84 -33q34 -34 34 -81q0 -52 -34 -87q-34 -36 -86 -36q-47 0 -82 36q-35 37 -35 87q0 47 36 81z" />
    <glyph glyph-name="uni0689.fina" unicode="&#x689;" horiz-adv-x="1046" 
d="M465 -80q-6 -10 -16 -32q-7 -18 -12 -36q-5 -22 -5 -35q0 -22 11 -38q10 -16 44 -16q58 0 86 17q26 17 26 43q0 29 -31 63q-32 33 -86 56q-7 -7 -17 -22zM348 -76q-36 -4 -72 -4q-83 0 -130 30q-46 30 -46 95q0 89 137 100q41 1 119 10q65 7 124 21q55 13 97 37
q39 23 39 57q0 41 -33 98q-50 81 -74 116q-37 53 -73 119q-33 59 -33 106t28 74q28 26 64 26q65 0 133 -95q66 -96 168 -294q18 -36 46 -79q21 -32 48 -56q28 -24 59 -34q36 -11 81 -11h16v-240h-51q-172 0 -231 90q-33 -49 -94 -82l-19 -9q16 -20 31 -45q28 -49 28 -99
q0 -47 -18 -86q-18 -40 -48 -69q-30 -28 -69 -45q-39 -16 -83 -16q-34 0 -63 7q-36 8 -58 23q-25 17 -42 42q-17 26 -17 65q0 55 20 110z" />
    <glyph glyph-name="uni068A.fina" unicode="&#x68a;" horiz-adv-x="1046" 
d="M995 0q-172 0 -231 90q-33 -49 -94 -82q-60 -32 -132 -52q-70 -19 -142 -27q-70 -9 -120 -9q-83 0 -130 30q-46 30 -46 95q0 89 137 100q41 1 119 10q65 7 124 21q55 13 97 37q39 23 39 57q0 41 -33 98q-50 81 -74 116q-37 53 -73 119q-33 59 -33 106t28 74q28 26 64 26
q65 0 133 -95q66 -96 168 -294q18 -36 46 -79q21 -32 48 -56q28 -24 59 -34q36 -11 81 -11h16v-240h-51zM398 -238q36 33 83 33q50 0 84 -33q35 -35 35 -81q0 -52 -35 -87q-34 -36 -86 -36q-47 0 -82 36q-35 35 -35 87q0 47 36 81z" />
    <glyph glyph-name="uni068B.fina" unicode="&#x68b;" horiz-adv-x="1046" 
d="M995 0q-172 0 -231 90q-33 -49 -94 -82q-60 -32 -132 -52q-70 -19 -142 -27q-70 -9 -120 -9q-83 0 -130 30q-46 30 -46 95q0 89 137 100q41 1 119 10q65 7 124 21q55 13 97 37q39 23 39 57q0 41 -33 98q-50 81 -74 116q-37 53 -73 119q-33 59 -33 106t28 74q28 26 64 26
q65 0 133 -95q66 -96 168 -294q18 -36 46 -79q21 -32 48 -56q28 -24 59 -34q36 -11 81 -11h16v-240h-51zM714 1079q-27 -39 -70 -63q-43 -25 -99 -36q-58 -11 -109 -11q-58 0 -84 1q-43 2 -68 7q-30 6 -46 19q-17 14 -17 38q0 17 7 27q8 10 18 14q14 6 23 7q8 1 24 1
q23 0 41 3q17 3 30 17q12 14 18 40q5 30 5 75q0 41 -3 86l-5 84l-6 70q-3 30 -3 45q0 51 50 51q24 0 37 -12q14 -14 15 -41q3 -79 6 -128t3 -74q0 -45 -9 -78q16 18 31 29q18 15 37 25q17 9 39 16q20 6 37 6q18 0 38 -7q19 -7 41 -22q19 -15 33 -38q13 -23 13 -57
q0 -56 -27 -94zM451 1078q18 0 43 3q24 1 53 6q28 5 50 12q24 8 39 19t15 29q0 25 -18 34q-19 9 -37 9q-21 0 -45 -11q-20 -11 -45 -29q-20 -16 -42 -38q-14 -13 -37 -36zM398 -238q36 33 83 33q50 0 84 -33q35 -35 35 -81q0 -52 -35 -87q-34 -36 -86 -36q-47 0 -82 36
q-35 35 -35 87q0 47 36 81z" />
    <glyph glyph-name="uni068F.fina" unicode="&#x68f;" horiz-adv-x="1046" 
d="M995 0q-172 0 -231 90q-33 -49 -94 -82q-60 -32 -132 -52q-70 -19 -142 -27q-70 -9 -120 -9q-83 0 -130 30q-46 30 -46 95q0 89 137 100q41 1 119 10q65 7 124 21q55 13 97 37q39 23 39 57q0 41 -33 98q-50 81 -74 116q-37 53 -73 119q-33 59 -33 106t28 74q28 26 64 26
q65 0 133 -95q66 -96 168 -294q18 -36 46 -79q21 -32 48 -56q28 -24 59 -34q36 -11 81 -11h16v-240h-51zM610 1434q50 0 85 -35q34 -35 34 -85t-34 -83q-34 -34 -85 -34q-47 0 -81 34q-35 33 -35 83t34 85q33 35 82 35zM326 1434q50 0 85 -35q34 -35 34 -87q0 -48 -34 -81
q-34 -34 -83 -34q-50 0 -84 34q-35 33 -35 81q0 50 35 87q35 35 82 35zM469 1189q52 0 86 -36q35 -37 35 -87q0 -46 -35 -81q-34 -34 -84 -34q-48 0 -83 34q-36 35 -36 81q0 50 35 87q35 36 82 36z" />
    <glyph glyph-name="uni0690.fina" unicode="&#x690;" horiz-adv-x="1046" 
d="M995 0q-172 0 -231 90q-33 -49 -94 -82q-60 -32 -132 -52q-70 -19 -142 -27q-70 -9 -120 -9q-83 0 -130 30q-46 30 -46 95q0 89 137 100q41 1 119 10q65 7 124 21q55 13 97 37q39 23 39 57q0 41 -33 98q-50 81 -74 116q-37 53 -73 119q-33 59 -33 106t28 74q28 26 64 26
q65 0 133 -95q66 -96 168 -294q18 -36 46 -79q21 -32 48 -56q28 -24 59 -34q36 -11 81 -11h16v-240h-51zM528 1422q34 34 82 34q50 0 84 -34q35 -35 35 -83t-35 -85q-34 -36 -84 -36q-48 0 -83 36q-34 35 -34 85q0 48 35 83zM244 1422q34 34 83 34t83 -34t34 -81
q0 -52 -34 -87q-34 -36 -85 -36q-46 0 -81 36q-35 37 -35 87q0 46 35 81zM528 1152q34 34 82 34q50 0 84 -34q35 -35 35 -83t-35 -85q-34 -36 -84 -36q-48 0 -83 36q-34 35 -34 85q0 48 35 83zM244 1152q34 34 83 34t83 -34t34 -81q0 -52 -34 -87q-34 -36 -85 -36
q-46 0 -81 36q-35 37 -35 87q0 46 35 81z" />
    <glyph glyph-name="uni0692.fina" unicode="&#x692;" horiz-adv-x="951" 
d="M805 286q21 -21 50 -32q26 -10 48 -12q28 -2 38 -2h10v-240h-53q-125 11 -202 103l-9 -27q-39 -109 -99 -192q-63 -84 -134 -141t-142 -96q-74 -40 -124 -55q-55 -18 -81 -18q-45 0 -74 23q-30 23 -30 61q0 79 94 119q99 44 184 100q78 53 131 119q52 64 78 146
q25 79 25 182q0 21 -3 49q-3 29 -3 59q0 25 3 50q3 26 13 44q11 20 28 30q17 11 48 11q76 0 101 -75q25 -80 52 -131q27 -54 51 -75zM479 855q-16 25 -43 57q-22 25 -47 43q-33 24 -33 36q0 13 12 20q13 8 38 8q18 0 47 -17q26 -16 53 -43q25 -25 47 -55q21 -32 25 -56
q0 12 9 28q7 15 23 36q11 16 33 38q12 13 38 35q17 13 39 25q20 9 35 9q22 0 35 -6q14 -8 14 -19q0 -16 -37 -41q-22 -16 -45 -42q-19 -22 -42 -55q-21 -31 -34 -58q-14 -30 -17 -49q-3 -26 -49 -26q-44 0 -49 26q-4 15 -19 47q-14 30 -33 59z" />
    <glyph glyph-name="uni0693.fina" unicode="&#x693;" horiz-adv-x="951" 
d="M471 -252q-6 -10 -16 -32q-7 -18 -12 -36q-5 -22 -5 -35q0 -22 11 -38q10 -16 44 -16q58 0 86 17q26 17 26 43q0 29 -31 63q-32 33 -86 56q-7 -7 -17 -22zM312 -353q-74 -40 -124 -55q-55 -18 -81 -18q-45 0 -74 23q-30 23 -30 61q0 79 94 119q99 44 184 100
q78 53 131 119q52 64 78 146q25 79 25 182q0 21 -3 49q-3 29 -3 59q0 25 3 50q3 26 13 44q11 20 28 30q17 11 48 11q76 0 101 -75q25 -80 52 -131q27 -54 51 -75q21 -21 50 -32q26 -10 48 -12q28 -2 38 -2h10v-240h-53q-125 11 -202 103l-9 -27q-37 -104 -95 -186
q16 -12 24 -19q45 -42 72 -89q28 -49 28 -99q0 -47 -18 -86q-18 -40 -48 -69q-30 -28 -69 -45q-39 -16 -83 -16q-34 0 -63 7q-36 8 -58 23q-25 17 -42 42q-17 26 -17 65q0 28 4 49z" />
    <glyph glyph-name="uni0694.fina" unicode="&#x694;" horiz-adv-x="951" 
d="M805 286q21 -21 50 -32q26 -10 48 -12q28 -2 38 -2h10v-240h-53q-125 11 -202 103l-9 -27q-39 -109 -99 -192q-63 -84 -134 -141t-142 -96q-74 -40 -124 -55q-55 -18 -81 -18q-45 0 -74 23q-30 23 -30 61q0 79 94 119q99 44 184 100q78 53 131 119q52 64 78 146
q25 79 25 182q0 21 -3 49q-3 29 -3 59q0 25 3 50q3 26 13 44q11 20 28 30q17 11 48 11q76 0 101 -75q25 -80 52 -131q27 -54 51 -75zM525 -375q34 34 82 34q51 0 85 -34t34 -81q0 -52 -34 -87q-34 -36 -87 -36q-46 0 -81 36q-35 37 -35 87q0 47 36 81z" />
    <glyph glyph-name="uni0695.fina" unicode="&#x695;" horiz-adv-x="951" 
d="M805 286q21 -21 50 -32q26 -10 48 -12q28 -2 38 -2h10v-240h-53q-125 11 -202 103l-9 -27q-39 -109 -99 -192q-63 -84 -134 -141t-142 -96q-74 -40 -124 -55q-55 -18 -81 -18q-45 0 -74 23q-30 23 -30 61q0 79 94 119q99 44 184 100q78 53 131 119q52 64 78 146
q25 79 25 182q0 21 -3 49q-3 29 -3 59q0 25 3 50q3 26 13 44q11 20 28 30q17 11 48 11q76 0 101 -75q25 -80 52 -131q27 -54 51 -75zM391 -604q-16 25 -43 57q-22 25 -47 43q-33 24 -33 36q0 13 12 20q13 8 38 8q18 0 47 -17q26 -16 53 -43q25 -25 47 -55q21 -32 25 -56
q0 12 9 28q7 15 23 36q11 16 33 38q12 13 38 35q17 13 39 25q20 9 35 9q22 0 35 -6q14 -8 14 -19q0 -16 -37 -41q-22 -16 -45 -42q-19 -22 -42 -55q-21 -31 -34 -58q-14 -30 -17 -49q-3 -26 -49 -26q-44 0 -49 26q-4 15 -19 47q-14 30 -33 59z" />
    <glyph glyph-name="uni0696.fina" unicode="&#x696;" horiz-adv-x="951" 
d="M805 286q21 -21 50 -32q26 -10 48 -12q28 -2 38 -2h10v-240h-53q-125 11 -202 103l-9 -27q-39 -109 -99 -192q-63 -84 -134 -141t-142 -96q-74 -40 -124 -55q-55 -18 -81 -18q-45 0 -74 23q-30 23 -30 61q0 79 94 119q99 44 184 100q78 53 131 119q52 64 78 146
q25 79 25 182q0 21 -3 49q-3 29 -3 59q0 25 3 50q3 26 13 44q11 20 28 30q17 11 48 11q76 0 101 -75q25 -80 52 -131q27 -54 51 -75zM525 -375q34 34 82 34q51 0 85 -34t34 -81q0 -52 -34 -87q-34 -36 -87 -36q-46 0 -81 36q-35 37 -35 87q0 47 36 81zM138 288q34 34 82 34
q51 0 85 -34t34 -81q0 -52 -34 -87q-34 -36 -87 -36q-46 0 -81 36q-35 37 -35 87q0 47 36 81z" />
    <glyph glyph-name="uni0697.fina" unicode="&#x697;" horiz-adv-x="951" 
d="M805 286q21 -21 50 -32q26 -10 48 -12q28 -2 38 -2h10v-240h-53q-125 11 -202 103l-9 -27q-39 -109 -99 -192q-63 -84 -134 -141t-142 -96q-74 -40 -124 -55q-55 -18 -81 -18q-45 0 -74 23q-30 23 -30 61q0 79 94 119q99 44 184 100q78 53 131 119q52 64 78 146
q25 79 25 182q0 21 -3 49q-3 29 -3 59q0 25 3 50q3 26 13 44q11 20 28 30q17 11 48 11q76 0 101 -75q25 -80 52 -131q27 -54 51 -75zM606 935q34 34 82 34q50 0 84 -34q35 -35 35 -83t-35 -85q-34 -36 -84 -36q-48 0 -83 36q-34 35 -34 85q0 48 35 83zM321 935q34 34 84 34
q49 0 83 -34t34 -81q0 -52 -34 -87q-34 -36 -85 -36q-47 0 -82 36q-35 37 -35 87q0 46 35 81z" />
    <glyph glyph-name="uni0699.fina" unicode="&#x699;" horiz-adv-x="951" 
d="M805 286q21 -21 50 -32q26 -10 48 -12q28 -2 38 -2h10v-240h-53q-125 11 -202 103l-9 -27q-39 -109 -99 -192q-63 -84 -134 -141t-142 -96q-74 -40 -124 -55q-55 -18 -81 -18q-45 0 -74 23q-30 23 -30 61q0 79 94 119q99 44 184 100q78 53 131 119q52 64 78 146
q25 79 25 182q0 21 -3 49q-3 29 -3 59q0 25 3 50q3 26 13 44q11 20 28 30q17 11 48 11q76 0 101 -75q25 -80 52 -131q27 -54 51 -75zM604 1205q34 34 82 34q50 0 84 -34q35 -35 35 -83t-35 -85q-34 -36 -84 -36q-48 0 -83 36q-34 35 -34 85q0 48 35 83zM320 1205
q34 34 83 34t83 -34t34 -81q0 -52 -34 -87q-34 -36 -85 -36q-46 0 -81 36q-35 37 -35 87q0 46 35 81zM604 935q34 34 82 34q50 0 84 -34q35 -35 35 -83t-35 -85q-34 -36 -84 -36q-48 0 -83 36q-34 35 -34 85q0 48 35 83zM320 935q34 34 83 34t83 -34t34 -81q0 -52 -34 -87
q-34 -36 -85 -36q-46 0 -81 36q-35 37 -35 87q0 46 35 81z" />
    <glyph glyph-name="uni069A.init" unicode="&#x69a;" horiz-adv-x="1256" 
d="M-45 223q0 9 15 13q12 4 30 4h16q57 0 94 30q37 28 48 80q24 115 90 115q68 0 88 -113q16 -112 141 -112q40 0 59 16q20 17 30 42q9 21 14 56q5 33 13 55q9 26 27 42q16 16 54 16q62 0 88 -113q27 -114 141 -114q49 0 64 29q14 30 14 69q0 47 -11 83t-11 58q0 39 27 58
q26 18 61 18q34 0 59 -21q25 -22 40 -55q16 -35 23 -72q7 -38 7 -77q0 -63 -18 -122q-19 -58 -55 -104q-36 -47 -89 -74q-52 -28 -125 -30q-72 0 -132 36q-61 36 -85 91q-33 -58 -87 -92q-56 -35 -120 -35q-152 0 -215 117q-57 -117 -234 -117h-16q-18 0 -30 4q-15 5 -15 10
v209zM581 841q36 33 83 33q50 0 84 -33q34 -34 34 -81q0 -53 -34 -87q-34 -36 -86 -36q-47 0 -82 36q-35 35 -35 87q0 47 36 81zM580 -216q35 34 83 34q50 0 84 -34q35 -35 35 -81q0 -50 -35 -87q-34 -36 -86 -36q-47 0 -82 36q-35 37 -35 87q0 47 36 81z" />
    <glyph glyph-name="uni069A.medi" unicode="&#x69a;" horiz-adv-x="1370" 
d="M1358 0q-73 0 -137 29q-64 28 -101 88q-25 -59 -82 -88q-58 -29 -120 -29q-68 0 -130 32q-64 32 -98 93q-51 -125 -215 -125q-75 0 -133 29t-92 88q-27 -56 -88 -86q-61 -31 -129 -31h-33q-18 0 -30 4q-15 5 -15 10v209q0 9 15 13q12 4 30 4h16q54 0 98 26q45 26 52 84
q6 58 34 86q27 27 56 27q34 0 50 -16t24 -41q9 -31 14 -54q6 -28 20 -55q13 -25 38 -41q23 -16 71 -16q113 0 131 110q11 59 36 87t56 28q36 0 52 -16q17 -16 24 -42q8 -25 12 -54q5 -33 17 -55q12 -26 37 -42q23 -16 71 -16q107 0 125 110q10 59 33 88q23 27 53 27
q31 0 57 -29q24 -28 35 -86q8 -52 43 -80q35 -30 99 -30h16v-240h-12zM603 841q36 33 83 33q50 0 84 -33q35 -35 35 -81q0 -52 -35 -87q-34 -36 -86 -36q-47 0 -82 36q-35 35 -35 87q0 47 36 81zM603 -216q35 34 83 34q50 0 84 -34q35 -35 35 -81q0 -50 -35 -87
q-34 -36 -86 -36q-47 0 -82 36q-35 37 -35 87q0 47 36 81z" />
    <glyph glyph-name="uni069A.fina" unicode="&#x69a;" horiz-adv-x="2187" 
d="M2168 0q-56 0 -91 7q-40 8 -62 26q-27 19 -48 41q-19 19 -32 43q-28 -58 -87 -87q-58 -30 -124 -30t-127 31q-64 30 -92 94q-28 -58 -81 -93q-52 -34 -116 -34q-28 0 -63 8q-32 7 -66 29q-1 -134 -38 -251q-38 -117 -109 -200q-73 -85 -177 -131q-108 -47 -245 -47
q-125 0 -218 37q-95 38 -159 103q-64 64 -99 158q-34 92 -34 208q0 134 37 215q37 82 104 82q70 0 70 -76q0 -28 -6 -66q-6 -37 -6 -94q0 -69 14 -131q13 -59 52 -104q36 -42 103 -67q63 -25 164 -25q88 0 157 29q67 28 112 75q46 47 68 111q22 62 22 131q0 65 -12 113
q-18 61 -26 84q-19 51 -25 65q-13 27 -13 57q0 34 23 68q23 33 82 33q26 0 53 -27q26 -27 59 -59q34 -34 72 -59q39 -27 88 -27q48 0 71 16q23 17 36 41q12 26 18 54q5 26 15 53q9 25 27 41q16 16 54 16q49 0 64 -35q13 -33 24 -76q11 -42 34 -75q24 -35 89 -35q46 0 68 16
t34 40q10 22 15 52t12 53q8 23 25 40q16 16 51 16q28 0 59 -20q30 -22 37 -81q12 -73 44 -94q31 -22 99 -22h19v-240h-19zM1414 841q36 33 83 33q50 0 84 -33q35 -35 35 -81q0 -52 -35 -87q-34 -36 -86 -36q-47 0 -82 36q-35 35 -35 87q0 47 36 81zM1414 -216q35 34 83 34
q50 0 84 -34q35 -35 35 -81q0 -50 -35 -87q-34 -36 -86 -36q-47 0 -82 36q-35 37 -35 87q0 47 36 81z" />
    <glyph glyph-name="uni069B.init" unicode="&#x69b;" horiz-adv-x="1256" 
d="M-45 223q0 9 15 13q12 4 30 4h16q57 0 94 30q37 28 48 80q24 115 90 115q68 0 88 -113q16 -112 141 -112q40 0 59 16q20 17 30 42q9 21 14 56q5 33 13 55q9 26 27 42q16 16 54 16q62 0 88 -113q27 -114 141 -114q49 0 64 29q14 30 14 69q0 47 -11 83t-11 58q0 39 27 58
q26 18 61 18q34 0 59 -21q25 -22 40 -55q16 -35 23 -72q7 -38 7 -77q0 -63 -18 -122q-19 -58 -55 -104q-36 -47 -89 -74q-52 -28 -125 -30q-72 0 -132 36q-61 36 -85 91q-33 -58 -87 -92q-56 -35 -120 -35q-152 0 -215 117q-57 -117 -234 -117h-16q-18 0 -30 4q-15 5 -15 10
v209zM720 -218q35 36 83 36q50 0 84 -36q35 -37 35 -85t-35 -83q-34 -34 -84 -34q-48 0 -82 34q-35 35 -35 83q0 50 34 85zM436 -218q35 36 82 36q51 0 85 -36q34 -35 34 -87q0 -47 -34 -81t-83 -34q-50 0 -84 34q-35 35 -35 81q0 50 35 87zM580 -464q35 36 82 36
q52 0 86 -36q34 -35 34 -87q0 -47 -34 -81t-84 -34q-49 0 -83 34q-36 35 -36 81q0 50 35 87z" />
    <glyph glyph-name="uni069B.medi" unicode="&#x69b;" horiz-adv-x="1370" 
d="M1358 0q-73 0 -137 29q-64 28 -101 88q-25 -59 -82 -88q-58 -29 -120 -29q-68 0 -130 32q-64 32 -98 93q-51 -125 -215 -125q-75 0 -133 29t-92 88q-27 -56 -88 -86q-61 -31 -129 -31h-33q-18 0 -30 4q-15 5 -15 10v209q0 9 15 13q12 4 30 4h16q54 0 98 26q45 26 52 84
q6 58 34 86q27 27 56 27q34 0 50 -16t24 -41q9 -31 14 -54q6 -28 20 -55q13 -25 38 -41q23 -16 71 -16q113 0 131 110q11 59 36 87t56 28q36 0 52 -16q17 -16 24 -42q8 -25 12 -54q5 -33 17 -55q12 -26 37 -42q23 -16 71 -16q107 0 125 110q10 59 33 88q23 27 53 27
q31 0 57 -29q24 -28 35 -86q8 -52 43 -80q35 -30 99 -30h16v-240h-12zM742 -218q35 36 83 36q50 0 84 -36q35 -37 35 -85t-35 -83q-34 -34 -84 -34q-48 0 -82 34q-35 35 -35 83q0 50 34 85zM458 -218q35 36 82 36q51 0 85 -36q34 -35 34 -87q0 -47 -34 -81t-83 -34
q-50 0 -84 34q-35 35 -35 81q0 50 35 87zM603 -464q35 36 82 36q52 0 86 -36q34 -35 34 -87q0 -47 -34 -81t-84 -34q-49 0 -83 34q-36 35 -36 81q0 50 35 87z" />
    <glyph glyph-name="uni069B.fina" unicode="&#x69b;" horiz-adv-x="2187" 
d="M2168 0q-56 0 -91 7q-40 8 -62 26q-27 19 -48 41q-19 19 -32 43q-28 -58 -87 -87q-58 -30 -124 -30t-127 31q-64 30 -92 94q-28 -58 -81 -93q-52 -34 -116 -34q-28 0 -63 8q-32 7 -66 29q-1 -134 -38 -251q-38 -117 -109 -200q-73 -85 -177 -131q-108 -47 -245 -47
q-125 0 -218 37q-95 38 -159 103q-64 64 -99 158q-34 92 -34 208q0 134 37 215q37 82 104 82q70 0 70 -76q0 -28 -6 -66q-6 -37 -6 -94q0 -69 14 -131q13 -59 52 -104q36 -42 103 -67q63 -25 164 -25q88 0 157 29q67 28 112 75q46 47 68 111q22 62 22 131q0 65 -12 113
q-18 61 -26 84q-19 51 -25 65q-13 27 -13 57q0 34 23 68q23 33 82 33q26 0 53 -27q26 -27 59 -59q34 -34 72 -59q39 -27 88 -27q48 0 71 16q23 17 36 41q12 26 18 54q5 26 15 53q9 25 27 41q16 16 54 16q49 0 64 -35q13 -33 24 -76q11 -42 34 -75q24 -35 89 -35q46 0 68 16
t34 40q10 22 15 52t12 53q8 23 25 40q16 16 51 16q28 0 59 -20q30 -22 37 -81q12 -73 44 -94q31 -22 99 -22h19v-240h-19zM1553 -218q35 36 83 36q50 0 84 -36q35 -37 35 -85t-35 -83q-34 -34 -84 -34q-48 0 -82 34q-35 35 -35 83q0 50 34 85zM1269 -218q35 36 82 36
q51 0 85 -36q34 -35 34 -87q0 -47 -34 -81t-83 -34q-50 0 -84 34q-35 35 -35 81q0 50 35 87zM1414 -464q35 36 82 36q52 0 86 -36q34 -35 34 -87q0 -47 -34 -81t-84 -34q-49 0 -83 34q-36 35 -36 81q0 50 35 87z" />
    <glyph glyph-name="uni069C.init" unicode="&#x69c;" horiz-adv-x="1256" 
d="M-45 223q0 9 15 13q12 4 30 4h16q57 0 94 30q37 28 48 80q24 115 90 115q68 0 88 -113q16 -112 141 -112q40 0 59 16q20 17 30 42q9 21 14 56q5 33 13 55q9 26 27 42q16 16 54 16q62 0 88 -113q27 -114 141 -114q49 0 64 29q14 30 14 69q0 47 -11 83t-11 58q0 39 27 58
q26 18 61 18q34 0 59 -21q25 -22 40 -55q16 -35 23 -72q7 -38 7 -77q0 -63 -18 -122q-19 -58 -55 -104q-36 -47 -89 -74q-52 -28 -125 -30q-72 0 -132 36q-61 36 -85 91q-33 -58 -87 -92q-56 -35 -120 -35q-152 0 -215 117q-57 -117 -234 -117h-16q-18 0 -30 4q-15 5 -15 10
v209zM721 841q35 33 82 33q50 0 84 -33q35 -35 35 -83t-35 -85q-34 -36 -84 -36q-48 0 -83 36q-34 35 -34 85q0 48 35 83zM436 841q35 33 84 33t83 -33q34 -34 34 -81q0 -52 -34 -87q-34 -36 -85 -36q-47 0 -82 36q-35 37 -35 87q0 46 35 81zM581 1087q36 33 83 33
q50 0 84 -33q34 -34 34 -81q0 -53 -34 -87q-34 -36 -86 -36q-47 0 -82 36q-35 35 -35 87q0 47 36 81zM720 -218q35 36 83 36q50 0 84 -36q35 -37 35 -85t-35 -83q-34 -34 -84 -34q-48 0 -82 34q-35 35 -35 83q0 50 34 85zM436 -218q35 36 82 36q51 0 85 -36q34 -35 34 -87
q0 -47 -34 -81t-83 -34q-50 0 -84 34q-35 35 -35 81q0 50 35 87zM580 -464q35 36 82 36q52 0 86 -36q34 -35 34 -87q0 -47 -34 -81t-84 -34q-49 0 -83 34q-36 35 -36 81q0 50 35 87z" />
    <glyph glyph-name="uni069C.medi" unicode="&#x69c;" horiz-adv-x="1370" 
d="M1358 0q-73 0 -137 29q-64 28 -101 88q-25 -59 -82 -88q-58 -29 -120 -29q-68 0 -130 32q-64 32 -98 93q-51 -125 -215 -125q-75 0 -133 29t-92 88q-27 -56 -88 -86q-61 -31 -129 -31h-33q-18 0 -30 4q-15 5 -15 10v209q0 9 15 13q12 4 30 4h16q54 0 98 26q45 26 52 84
q6 58 34 86q27 27 56 27q34 0 50 -16t24 -41q9 -31 14 -54q6 -28 20 -55q13 -25 38 -41q23 -16 71 -16q113 0 131 110q11 59 36 87t56 28q36 0 52 -16q17 -16 24 -42q8 -25 12 -54q5 -33 17 -55q12 -26 37 -42q23 -16 71 -16q107 0 125 110q10 59 33 88q23 27 53 27
q31 0 57 -29q24 -28 35 -86q8 -52 43 -80q35 -30 99 -30h16v-240h-12zM744 841q35 33 81 33q50 0 84 -33q35 -35 35 -83t-35 -85q-34 -36 -84 -36q-49 0 -82 36q-34 35 -34 85q0 48 35 83zM459 841q35 33 84 33t83 -33q33 -34 33 -81q0 -51 -33 -87q-34 -36 -85 -36
q-47 0 -82 36q-35 37 -35 87q0 46 35 81zM603 1087q36 33 83 33q50 0 84 -33q35 -35 35 -81q0 -52 -35 -87q-34 -36 -86 -36q-47 0 -82 36q-35 35 -35 87q0 47 36 81zM742 -218q35 36 83 36q50 0 84 -36q35 -37 35 -85t-35 -83q-34 -34 -84 -34q-48 0 -82 34q-35 35 -35 83
q0 50 34 85zM458 -218q35 36 82 36q51 0 85 -36q34 -35 34 -87q0 -47 -34 -81t-83 -34q-50 0 -84 34q-35 35 -35 81q0 50 35 87zM603 -464q35 36 82 36q52 0 86 -36q34 -35 34 -87q0 -47 -34 -81t-84 -34q-49 0 -83 34q-36 35 -36 81q0 50 35 87z" />
    <glyph glyph-name="uni069C.fina" unicode="&#x69c;" horiz-adv-x="2187" 
d="M2168 0q-56 0 -91 7q-40 8 -62 26q-27 19 -48 41q-19 19 -32 43q-28 -58 -87 -87q-58 -30 -124 -30t-127 31q-64 30 -92 94q-28 -58 -81 -93q-52 -34 -116 -34q-28 0 -63 8q-32 7 -66 29q-1 -134 -38 -251q-38 -117 -109 -200q-73 -85 -177 -131q-108 -47 -245 -47
q-125 0 -218 37q-95 38 -159 103q-64 64 -99 158q-34 92 -34 208q0 134 37 215q37 82 104 82q70 0 70 -76q0 -28 -6 -66q-6 -37 -6 -94q0 -69 14 -131q13 -59 52 -104q36 -42 103 -67q63 -25 164 -25q88 0 157 29q67 28 112 75q46 47 68 111q22 62 22 131q0 65 -12 113
q-18 61 -26 84q-19 51 -25 65q-13 27 -13 57q0 34 23 68q23 33 82 33q26 0 53 -27q26 -27 59 -59q34 -34 72 -59q39 -27 88 -27q48 0 71 16q23 17 36 41q12 26 18 54q5 26 15 53q9 25 27 41q16 16 54 16q49 0 64 -35q13 -33 24 -76q11 -42 34 -75q24 -35 89 -35q46 0 68 16
t34 40q10 22 15 52t12 53q8 23 25 40q16 16 51 16q28 0 59 -20q30 -22 37 -81q12 -73 44 -94q31 -22 99 -22h19v-240h-19zM1554 841q35 33 82 33q50 0 84 -33q35 -35 35 -83t-35 -85q-34 -36 -84 -36q-48 0 -83 36q-34 35 -34 85q0 48 35 83zM1270 841q35 33 83 33
q50 0 84 -33q33 -34 33 -81q0 -51 -33 -87q-34 -36 -86 -36q-46 0 -81 36q-35 37 -35 87q0 46 35 81zM1414 1087q36 33 83 33q50 0 84 -33q35 -35 35 -81q0 -52 -35 -87q-34 -36 -86 -36q-47 0 -82 36q-35 35 -35 87q0 47 36 81zM1553 -218q35 36 83 36q50 0 84 -36
q35 -37 35 -85t-35 -83q-34 -34 -84 -34q-48 0 -82 34q-35 35 -35 83q0 50 34 85zM1269 -218q35 36 82 36q51 0 85 -36q34 -35 34 -87q0 -47 -34 -81t-83 -34q-50 0 -84 34q-35 35 -35 81q0 50 35 87zM1414 -464q35 36 82 36q52 0 86 -36q34 -35 34 -87q0 -47 -34 -81
t-84 -34q-49 0 -83 34q-36 35 -36 81q0 50 35 87z" />
    <glyph glyph-name="uni069D.init" unicode="&#x69d;" horiz-adv-x="1391" 
d="M-45 223q0 9 15 13q12 4 30 4h16q78 0 119 38t56 115q8 42 30 61q20 19 47 19q29 0 57 -25q27 -25 33 -92q4 -21 10 -38q8 -22 18 -38q11 -18 29 -29q17 -11 40 -11q15 0 32 11q14 10 29 28q18 22 27 35l22 34q234 363 465 363q128 0 204 -76q77 -77 77 -197
q0 -93 -34 -161q-35 -72 -89 -120q-55 -51 -128 -82q-76 -33 -153 -50q-72 -18 -158 -26q-74 -7 -149 -7q-32 0 -100 2q-46 1 -96 13q-46 10 -82 36q-37 25 -58 70q-34 -58 -99 -85q-63 -28 -149 -28h-16q-18 0 -30 4q-15 5 -15 10v209zM682 229q77 0 150 10q72 9 138 29
q63 20 102 49q40 28 40 72q0 49 -35 72q-34 22 -73 22q-136 0 -322 -254zM899 -216q34 34 81 34q51 0 85 -34t34 -83q0 -50 -34 -85q-34 -36 -85 -36q-49 0 -82 36q-34 35 -34 85q0 48 35 83zM614 -216q34 34 84 34q49 0 83 -34t34 -81q0 -52 -34 -87q-34 -36 -85 -36
q-47 0 -82 36q-35 37 -35 87q0 46 35 81z" />
    <glyph glyph-name="uni069D.medi" unicode="&#x69d;" horiz-adv-x="1421" 
d="M1389 0q-99 0 -170 27q-70 25 -115 73q-52 -30 -116 -51q-62 -22 -130 -34q-68 -14 -134 -18q-75 -5 -124 -5q-29 0 -95 2q-46 1 -97 13q-47 10 -85 36q-39 26 -59 70q-34 -55 -94 -83q-61 -30 -154 -30h-16q-18 0 -30 4q-15 5 -15 10v209q0 9 15 13q12 4 30 4h16
q78 0 119 38q42 39 55 115q9 42 31 61q20 19 47 19q29 0 57 -27q26 -28 31 -90q6 -38 28 -76q22 -40 69 -40q14 0 31 11q15 9 31 29q13 14 28 36q17 26 22 32q236 365 465 365q127 0 204 -77t77 -198q0 -51 -14 -98q-14 -43 -33 -82q30 -18 125 -18h32v-240h-32zM682 229
q73 0 153 11q77 11 138 30q62 20 100 49q39 29 39 70q0 47 -35 71q-35 23 -73 23q-136 0 -322 -254zM899 -216q34 34 81 34q51 0 85 -34t34 -83q0 -50 -34 -85q-34 -36 -85 -36q-49 0 -82 36q-34 35 -34 85q0 48 35 83zM614 -216q34 34 84 34q49 0 83 -34t34 -81
q0 -52 -34 -87q-34 -36 -85 -36q-47 0 -82 36q-35 37 -35 87q0 46 35 81z" />
    <glyph glyph-name="uni069D.fina" unicode="&#x69d;" horiz-adv-x="2214" 
d="M2173 0q-181 0 -277 98q-119 -66 -254 -86q-137 -20 -254 -20q-144 0 -209 43q-1 -135 -38 -252q-38 -117 -110 -199q-74 -85 -180 -131q-109 -47 -253 -47q-238 0 -368 139q-130 137 -130 373q0 27 5 84q4 48 22 98q17 49 44 81q27 34 74 34q28 0 47 -18q19 -19 19 -58
q0 -16 -2 -58l-2 -31q-2 -21 -2 -30q-4 -31 -6 -65q0 -61 15 -117t53 -99q37 -41 102 -67q64 -26 161 -26q175 0 269 99q94 98 94 265q0 44 -12 81q-18 50 -28 74q-14 33 -27 71q-13 33 -13 71q0 41 29 73t69 32q34 0 59 -27q26 -27 51 -57q26 -31 54 -57q27 -27 64 -27
q30 0 58 28q28 27 58 76q236 363 465 363q124 0 203 -74q78 -73 78 -199q0 -53 -12 -98q-14 -47 -35 -82q22 -9 49 -13q35 -5 72 -5h39v-240h-41zM1470 229q50 0 119 7q76 6 144 25q69 18 119 50t50 80q0 39 -31 66q-32 26 -79 26q-137 0 -322 -254zM1699 -216q34 34 81 34
q51 0 85 -34t34 -83q0 -50 -34 -85q-34 -36 -85 -36q-49 0 -82 36q-34 35 -34 85q0 48 35 83zM1414 -216q34 34 84 34q49 0 83 -34t34 -81q0 -52 -34 -87q-34 -36 -85 -36q-47 0 -82 36q-35 37 -35 87q0 46 35 81z" />
    <glyph glyph-name="uni069E.init" unicode="&#x69e;" horiz-adv-x="1391" 
d="M-45 223q0 9 15 13q12 4 30 4h16q78 0 119 38t56 115q8 42 30 61q20 19 47 19q29 0 57 -25q27 -25 33 -92q4 -21 10 -38q8 -22 18 -38q11 -18 29 -29q17 -11 40 -11q15 0 32 11q14 10 29 28q18 22 27 35l22 34q234 363 465 363q128 0 204 -76q77 -77 77 -197
q0 -93 -34 -161q-35 -72 -89 -120q-55 -51 -128 -82q-76 -33 -153 -50q-72 -18 -158 -26q-74 -7 -149 -7q-32 0 -100 2q-46 1 -96 13q-46 10 -82 36q-37 25 -58 70q-34 -58 -99 -85q-63 -28 -149 -28h-16q-18 0 -30 4q-15 5 -15 10v209zM682 229q77 0 150 10q72 9 138 29
q63 20 102 49q40 28 40 72q0 49 -35 72q-34 22 -73 22q-136 0 -322 -254zM688 976q34 34 81 34q51 0 85 -34t34 -83q0 -50 -34 -85q-34 -36 -85 -36q-49 0 -82 36q-34 35 -34 85q0 48 35 83zM403 976q34 34 84 34q49 0 83 -34t34 -81q0 -52 -34 -87q-34 -36 -85 -36
q-47 0 -82 36q-35 37 -35 87q0 46 35 81zM547 1222q36 33 83 33q50 0 84 -33q35 -35 35 -81q0 -50 -35 -87q-34 -36 -86 -36q-47 0 -82 36q-35 37 -35 87q0 47 36 81z" />
    <glyph glyph-name="uni069E.medi" unicode="&#x69e;" horiz-adv-x="1421" 
d="M1389 0q-99 0 -170 27q-70 25 -115 73q-52 -30 -116 -51q-62 -22 -130 -34q-68 -14 -134 -18q-75 -5 -124 -5q-29 0 -95 2q-46 1 -97 13q-47 10 -85 36q-39 26 -59 70q-34 -55 -94 -83q-61 -30 -154 -30h-16q-18 0 -30 4q-15 5 -15 10v209q0 9 15 13q12 4 30 4h16
q78 0 119 38q42 39 55 115q9 42 31 61q20 19 47 19q29 0 57 -27q26 -28 31 -90q6 -38 28 -76q22 -40 69 -40q14 0 31 11q15 9 31 29q13 14 28 36q17 26 22 32q236 365 465 365q127 0 204 -77t77 -198q0 -51 -14 -98q-14 -43 -33 -82q30 -18 125 -18h32v-240h-32zM682 229
q73 0 153 11q77 11 138 30q62 20 100 49q39 29 39 70q0 47 -35 71q-35 23 -73 23q-136 0 -322 -254zM735 994q34 34 81 34q51 0 85 -34t34 -83q0 -50 -34 -85q-34 -36 -85 -36q-49 0 -82 36q-34 35 -34 85q0 48 35 83zM450 994q34 34 84 34q49 0 83 -34t34 -81
q0 -52 -34 -87q-34 -36 -85 -36q-47 0 -82 36q-35 37 -35 87q0 46 35 81zM594 1240q36 33 83 33q50 0 84 -33q35 -35 35 -81q0 -50 -35 -87q-34 -36 -86 -36q-47 0 -82 36q-35 37 -35 87q0 47 36 81z" />
    <glyph glyph-name="uni069E.fina" unicode="&#x69e;" horiz-adv-x="2214" 
d="M2173 0q-181 0 -277 98q-119 -66 -254 -86q-137 -20 -254 -20q-144 0 -209 43q-1 -135 -38 -252q-38 -117 -110 -199q-74 -85 -180 -131q-109 -47 -253 -47q-238 0 -368 139q-130 137 -130 373q0 27 5 84q4 48 22 98q17 49 44 81q27 34 74 34q28 0 47 -18q19 -19 19 -58
q0 -16 -2 -58l-2 -31q-2 -21 -2 -30q-4 -31 -6 -65q0 -61 15 -117t53 -99q37 -41 102 -67q64 -26 161 -26q175 0 269 99q94 98 94 265q0 44 -12 81q-18 50 -28 74q-14 33 -27 71q-13 33 -13 71q0 41 29 73t69 32q34 0 59 -27q26 -27 51 -57q26 -31 54 -57q27 -27 64 -27
q30 0 58 28q28 27 58 76q236 363 465 363q124 0 203 -74q78 -73 78 -199q0 -53 -12 -98q-14 -47 -35 -82q22 -9 49 -13q35 -5 72 -5h39v-240h-41zM1470 229q50 0 119 7q76 6 144 25q69 18 119 50t50 80q0 39 -31 66q-32 26 -79 26q-137 0 -322 -254zM1539 1003q34 34 81 34
q51 0 85 -34t34 -83q0 -50 -34 -85q-34 -36 -85 -36q-49 0 -82 36q-34 35 -34 85q0 48 35 83zM1254 1003q34 34 84 34q49 0 83 -34t34 -81q0 -52 -34 -87q-34 -36 -85 -36q-47 0 -82 36q-35 37 -35 87q0 46 35 81zM1398 1249q36 33 83 33q50 0 84 -33q35 -35 35 -81
q0 -50 -35 -87q-34 -36 -86 -36q-47 0 -82 36q-35 37 -35 87q0 47 36 81z" />
    <glyph glyph-name="uni069F.init" unicode="&#x69f;" horiz-adv-x="1053" 
d="M-45 223q0 9 15 13q12 4 30 4h21q70 0 107 24q38 23 56 62q17 40 20 86q3 47 3 94q0 145 -5 267q-4 96 -11 180l-12 113q-5 47 -5 69q0 59 37 93t80 34q37 0 68 -30q30 -29 34 -91q11 -137 14 -225q3 -99 3 -173q0 -71 -3 -121q-3 -49 -14 -81q62 74 150 117
q90 44 168 44q39 0 87 -17q46 -16 85 -51q41 -36 65 -83q25 -49 25 -113q-1 -66 -34 -147q-31 -77 -104 -142q-75 -66 -190 -107q-117 -42 -289 -42h-356q-18 0 -30 4q-15 5 -15 10v209zM648 276q126 47 126 119q0 39 -29 57q-31 17 -98 17q-127 0 -354 -240q228 0 355 47z
M800 1065q34 34 81 34q51 0 85 -34t34 -83q0 -50 -34 -85q-34 -36 -85 -36q-49 0 -82 36q-34 35 -34 85q0 48 35 83zM515 1065q34 34 84 34q49 0 83 -34t34 -81q0 -52 -34 -87q-34 -36 -85 -36q-47 0 -82 36q-35 37 -35 87q0 46 35 81zM659 1311q36 33 83 33q50 0 84 -33
q35 -35 35 -81q0 -50 -35 -87q-34 -36 -86 -36q-47 0 -82 36q-35 37 -35 87q0 47 36 81z" />
    <glyph glyph-name="uni069F.medi" unicode="&#x69f;" horiz-adv-x="1088" 
d="M1071 0q-99 0 -172 29q-74 29 -119 80q-94 -57 -205 -82q-114 -27 -233 -27h-342q-18 0 -30 4q-15 5 -15 10v209q0 9 15 13q12 4 30 4h21q65 0 103 23t57 61q17 36 22 92q4 47 4 116q0 148 -5 256q-4 85 -11 161l-12 103q-5 45 -5 83q0 61 37 94q38 33 80 33q37 0 68 -28
q29 -28 34 -93q12 -142 13 -229q2 -138 2 -175q0 -60 -2 -120q-1 -43 -13 -76q62 74 147 117q86 44 169 44q51 0 96 -16q47 -17 84 -49q36 -32 61 -83q23 -51 23 -116q-1 -46 -16 -90q-15 -41 -35 -76q25 -16 58 -24q34 -8 91 -8h17v-240h-17zM648 276q126 47 126 119
q0 40 -25 56t-85 16q-140 0 -371 -238q228 0 355 47zM800 1065q34 34 81 34q51 0 85 -34t34 -83q0 -50 -34 -85q-34 -36 -85 -36q-49 0 -82 36q-34 35 -34 85q0 48 35 83zM515 1065q34 34 84 34q49 0 83 -34t34 -81q0 -52 -34 -87q-34 -36 -85 -36q-47 0 -82 36
q-35 37 -35 87q0 46 35 81zM659 1311q36 33 83 33q50 0 84 -33q35 -35 35 -81q0 -50 -35 -87q-34 -36 -86 -36q-47 0 -82 36q-35 37 -35 87q0 47 36 81z" />
    <glyph glyph-name="uni069F.fina" unicode="&#x69f;" horiz-adv-x="1315" 
d="M1299 0q-122 0 -195 32q-72 31 -100 79q-57 -35 -113 -56q-55 -22 -127 -34q-64 -12 -160 -17q-80 -4 -211 -4q-53 0 -102 4q-59 5 -102 20q-47 15 -78 44q-31 28 -31 77q0 97 137 97q64 0 106 9t67 40q23 31 34 87q10 53 10 150q0 114 -5 212q-4 74 -11 159l-11 128
q-5 65 -5 118q0 57 33 85q32 27 73 27q42 0 76 -28q35 -29 37 -88q2 -33 4 -94l4 -98q4 -89 4 -197q0 -57 -3 -110q-4 -63 -7 -97q25 34 60 62q31 24 77 50q41 21 84 33q44 12 84 12q120 0 194 -68q72 -69 72 -208q0 -37 -15 -78q-25 -61 -32 -76q41 -22 75 -27q38 -5 77 -5
h16v-240h-16zM522 229q11 2 51 3q46 2 93 7q46 4 113 14q56 9 108 26q51 17 82 41q33 24 33 61q0 55 -39 74q-39 18 -78 18q-54 0 -105 -25q-49 -24 -99 -64q-44 -36 -87 -80zM1030 1065q34 34 81 34q51 0 85 -34t34 -83q0 -50 -34 -85q-34 -36 -85 -36q-49 0 -82 36
q-34 35 -34 85q0 48 35 83zM745 1065q34 34 84 34q49 0 83 -34t34 -81q0 -52 -34 -87q-34 -36 -85 -36q-47 0 -82 36q-35 37 -35 87q0 46 35 81zM889 1311q36 33 83 33q50 0 84 -33q35 -35 35 -81q0 -50 -35 -87q-34 -36 -86 -36q-47 0 -82 36q-35 37 -35 87q0 47 36 81z
" />
    <glyph glyph-name="uni06A0.init" unicode="&#x6a0;" horiz-adv-x="975" 
d="M-45 223q0 9 15 13q12 4 30 4h191q-27 40 -39 95q-13 52 -13 101q0 58 27 115q27 58 70 102q45 46 100 74q58 29 119 29q53 0 102 -13t93 -38q44 -27 68 -59q25 -34 25 -75q0 -40 -18 -57q-17 -16 -45 -16t-48 7q-24 8 -44 16q-24 10 -49 17t-64 7q-28 0 -52 -7
q-26 -8 -47 -24q-21 -15 -35 -42q-13 -25 -13 -62q0 -35 17 -61q18 -29 41 -47q23 -20 55 -31q31 -11 61 -11q53 0 94 7l151 29q29 7 60 7q47 0 68 -24q20 -26 20 -58q0 -90 -84 -125q-121 -50 -280 -73q-161 -23 -357 -23h-174q-18 0 -30 4q-15 5 -15 10v209zM496 1115
q34 34 82 34q50 0 84 -34t34 -83q0 -50 -34 -85q-34 -36 -84 -36t-83 36q-34 35 -34 85q0 48 35 83zM211 1115q34 34 84 34q49 0 83 -34t34 -81q0 -52 -34 -87q-34 -36 -85 -36q-47 0 -82 36q-35 37 -35 87q0 46 35 81zM356 1361q34 34 82 34q50 0 84 -34q35 -35 35 -81
q0 -50 -35 -87q-34 -36 -86 -36q-46 0 -81 36q-35 37 -35 87q0 47 36 81z" />
    <glyph glyph-name="uni06A0.medi" unicode="&#x6a0;" horiz-adv-x="942" 
d="M866 0q-50 0 -112 8q-55 7 -116 25t-108 41q-55 25 -92 55q-93 -55 -186 -91q-99 -38 -201 -38h-51q-18 0 -30 4q-15 5 -15 10v209q0 9 15 13q12 4 30 4h16q195 0 256 51q-73 68 -106 132q-33 62 -33 116t29 98q28 43 78 73q50 29 112 45q62 15 129 15q52 0 109 -10
q62 -11 110 -35q51 -26 85 -66t34 -100q0 -147 -182 -270q13 -13 90 -31t199 -18h16v-240h-76zM502 411q19 15 41 35q21 21 35 42q14 23 14 47q0 40 -121 40q-123 0 -123 -36q0 -23 14 -46q15 -27 32 -44q18 -21 39 -36q20 -16 36 -24q14 7 33 22zM535 1132q35 33 81 33
q51 0 85 -33q34 -34 34 -83q0 -51 -34 -85q-34 -36 -85 -36q-49 0 -82 36q-34 34 -34 85q0 48 35 83zM250 1132q35 33 84 33t83 -33q34 -34 34 -81q0 -53 -34 -87q-34 -36 -85 -36q-47 0 -82 36q-35 35 -35 87q0 46 35 81zM394 1377q35 34 83 34q50 0 84 -34q35 -35 35 -81
q0 -51 -35 -86q-34 -36 -86 -36q-47 0 -82 36q-35 35 -35 86q0 47 36 81z" />
    <glyph glyph-name="uni06A0.fina" unicode="&#x6a0;" horiz-adv-x="1121" 
d="M706 1164q34 34 82 34q50 0 84 -34q35 -35 35 -83q0 -49 -35 -84q-34 -36 -84 -36q-48 0 -83 36q-34 34 -34 84q0 48 35 83zM422 1164q34 34 84 34q49 0 83 -34q33 -34 33 -81q0 -51 -33 -86q-34 -36 -86 -36q-46 0 -81 36q-35 35 -35 86q0 46 35 81zM566 1410
q35 34 83 34q50 0 84 -34q35 -35 35 -81q0 -50 -35 -87q-34 -36 -86 -36q-47 0 -82 36q-35 37 -35 87q0 47 36 81zM1028 0q-55 0 -117 15q-58 13 -121 41q-60 25 -115 63q-53 36 -92 84q-54 -36 -106 -84q-49 -44 -90 -100q-40 -56 -62 -115q-24 -61 -24 -127
q0 -295 497 -295q57 0 78 1q30 1 52 3l32 3q8 1 25 1q35 0 62 -11q25 -11 38 -27q14 -16 21 -33q6 -16 6 -29q0 -55 -39 -84q-41 -30 -95 -43q-59 -16 -119 -17q-84 -2 -108 -2q-329 0 -490 123t-161 397q0 324 322 580q-49 56 -87 111q-38 56 -38 118q0 71 38 117t95 72
t121 36q63 9 116 9q44 0 106 -8q56 -7 110 -32q51 -24 86 -68q34 -43 34 -113q0 -83 -59 -147q-57 -62 -170 -128q48 -35 114 -53t140 -18h93v-240h-93zM733 508q35 32 35 53q0 23 -29 35q-28 12 -94 12q-113 0 -113 -47q0 -19 24 -51q21 -29 66 -68q77 35 111 66z" />
    <glyph glyph-name="uni06A1.init" unicode="&#x6a1;" horiz-adv-x="715" 
d="M-45 223q0 9 15 13q12 4 30 4h156q157 0 237 41t80 100q-64 -59 -164 -59q-101 1 -164 61q-63 59 -63 170q0 61 19 122q19 64 52 113q35 52 82 82q47 31 107 31q87 0 143 -49t90 -123q34 -75 47 -160q13 -82 13 -157q0 -412 -510 -412h-125q-18 0 -30 4q-15 5 -15 10v209
zM322 522q46 0 76 14q28 13 28 46q0 18 -9 39q-9 20 -23 37q-14 16 -32 27q-19 11 -32 11q-35 0 -60 -28q-26 -29 -26 -72q0 -74 78 -74z" />
    <glyph glyph-name="uni06A1.medi" unicode="&#x6a1;" horiz-adv-x="754" 
d="M651 0q-19 0 -61 5q-37 5 -75 15q-41 10 -72 22q-34 14 -54 30q-102 -72 -272 -72h-117q-18 0 -30 4q-15 5 -15 10v209q0 9 15 13q12 4 30 4h186q-26 36 -44 83q-17 45 -17 97q0 54 26 112q26 57 66 101q41 45 92 74q50 28 105 28q62 0 106 -25q43 -25 76 -68
q32 -42 45 -96q14 -56 14 -110q0 -127 -82 -196h181v-240h-103zM468 488q-26 32 -62 32q-48 0 -80 -39q-33 -39 -33 -78q0 -37 33 -63q31 -25 67 -25q37 0 69 29t32 72q0 38 -26 72z" />
    <glyph glyph-name="uni06A1.fina" unicode="&#x6a1;" horiz-adv-x="1753" 
d="M1652 0q-168 0 -268 76q-58 -34 -143 -60t-178 -42q-94 -16 -192 -24q-91 -7 -179 -7q-306 0 -448 91q-144 92 -144 267q0 31 6 82q6 48 23 100q16 49 45 85t71 36q22 0 44 -16t22 -58q0 -52 -9 -87q-9 -34 -9 -70q0 -70 44 -108q45 -39 108 -55q65 -17 131 -20
q60 -4 114 -4q145 0 276 8q123 8 228 48q-62 83 -62 164q0 54 26 114q25 57 66 106q41 48 96 78q55 29 111 29q60 0 103 -24q45 -26 72 -68q28 -43 43 -98q14 -58 14 -117q0 -130 -78 -186h168v-240h-101zM1485 487q-21 33 -68 33q-45 0 -79 -34t-34 -80q0 -26 26 -57
q26 -30 77 -30q48 0 73 33q25 32 25 70q0 30 -20 65z" />
    <glyph glyph-name="uni06A2.init" unicode="&#x6a2;" horiz-adv-x="715" 
d="M-45 223q0 9 15 13q12 4 30 4h156q157 0 237 41t80 100q-64 -59 -164 -59q-101 1 -164 61q-63 59 -63 170q0 61 19 122q19 64 52 113q35 52 82 82q47 31 107 31q87 0 143 -49t90 -123q34 -75 47 -160q13 -82 13 -157q0 -412 -510 -412h-125q-18 0 -30 4q-15 5 -15 10v209
zM322 522q46 0 76 14q28 13 28 46q0 18 -9 39q-9 20 -23 37q-14 16 -32 27q-19 11 -32 11q-35 0 -60 -28q-26 -29 -26 -72q0 -74 78 -74zM237 -216q35 34 83 34q50 0 84 -34q35 -35 35 -81q0 -50 -35 -87q-34 -36 -86 -36q-47 0 -82 36q-35 37 -35 87q0 47 36 81z" />
    <glyph glyph-name="uni06A2.medi" unicode="&#x6a2;" horiz-adv-x="754" 
d="M651 0q-19 0 -61 5q-37 5 -75 15q-41 10 -72 22q-34 14 -54 30q-102 -72 -272 -72h-117q-18 0 -30 4q-15 5 -15 10v209q0 9 15 13q12 4 30 4h186q-26 36 -44 83q-17 45 -17 97q0 54 26 112q26 57 66 101q41 45 92 74q50 28 105 28q62 0 106 -25q43 -25 76 -68
q32 -42 45 -96q14 -56 14 -110q0 -127 -82 -196h181v-240h-103zM468 488q-26 32 -62 32q-48 0 -80 -39q-33 -39 -33 -78q0 -37 33 -63q31 -25 67 -25q37 0 69 29t32 72q0 38 -26 72zM312 -216q35 34 83 34q50 0 84 -34q35 -35 35 -81q0 -50 -35 -87q-34 -36 -86 -36
q-47 0 -82 36q-35 37 -35 87q0 47 36 81z" />
    <glyph glyph-name="uni06A2.fina" unicode="&#x6a2;" horiz-adv-x="1753" 
d="M1652 0q-168 0 -268 76q-58 -34 -143 -60t-178 -42q-94 -16 -192 -24q-91 -7 -179 -7q-306 0 -448 91q-144 92 -144 267q0 31 6 82q6 48 23 100q16 49 45 85t71 36q22 0 44 -16t22 -58q0 -52 -9 -87q-9 -34 -9 -70q0 -70 44 -108q45 -39 108 -55q65 -17 131 -20
q60 -4 114 -4q145 0 276 8q123 8 228 48q-62 83 -62 164q0 54 26 114q25 57 66 106q41 48 96 78q55 29 111 29q60 0 103 -24q45 -26 72 -68q28 -43 43 -98q14 -58 14 -117q0 -130 -78 -186h168v-240h-101zM1485 487q-21 33 -68 33q-45 0 -79 -34t-34 -80q0 -26 26 -57
q26 -30 77 -30q48 0 73 33q25 32 25 70q0 30 -20 65zM1325 -216q35 34 83 34q50 0 84 -34q35 -35 35 -81q0 -50 -35 -87q-34 -36 -86 -36q-47 0 -82 36q-35 37 -35 87q0 47 36 81z" />
    <glyph glyph-name="uni06A3.init" unicode="&#x6a3;" horiz-adv-x="715" 
d="M-45 223q0 9 15 13q12 4 30 4h156q157 0 237 41t80 100q-64 -59 -164 -59q-101 1 -164 61q-63 59 -63 170q0 61 19 122q19 64 52 113q35 52 82 82q47 31 107 31q87 0 143 -49t90 -123q34 -75 47 -160q13 -82 13 -157q0 -412 -510 -412h-125q-18 0 -30 4q-15 5 -15 10v209
zM322 522q46 0 76 14q28 13 28 46q0 18 -9 39q-9 20 -23 37q-14 16 -32 27q-19 11 -32 11q-35 0 -60 -28q-26 -29 -26 -72q0 -74 78 -74zM237 1251q35 33 83 33q50 0 84 -33q34 -34 34 -82q0 -52 -34 -86q-34 -36 -87 -36q-46 0 -81 36q-35 35 -35 86q0 48 36 82zM237 -216
q35 34 83 34q50 0 84 -34q35 -35 35 -81q0 -50 -35 -87q-34 -36 -86 -36q-47 0 -82 36q-35 37 -35 87q0 47 36 81z" />
    <glyph glyph-name="uni06A3.medi" unicode="&#x6a3;" horiz-adv-x="754" 
d="M651 0q-19 0 -61 5q-37 5 -75 15q-41 10 -72 22q-34 14 -54 30q-102 -72 -272 -72h-117q-18 0 -30 4q-15 5 -15 10v209q0 9 15 13q12 4 30 4h186q-26 36 -44 83q-17 45 -17 97q0 54 26 112q26 57 66 101q41 45 92 74q50 28 105 28q62 0 106 -25q43 -25 76 -68
q32 -42 45 -96q14 -56 14 -110q0 -127 -82 -196h181v-240h-103zM468 488q-26 32 -62 32q-48 0 -80 -39q-33 -39 -33 -78q0 -37 33 -63q31 -25 67 -25q37 0 69 29t32 72q0 38 -26 72zM312 1081q36 33 83 33q50 0 84 -33q35 -35 35 -82q0 -51 -35 -86q-34 -36 -86 -36
q-47 0 -82 36q-35 35 -35 86q0 48 36 82zM312 -216q35 34 83 34q50 0 84 -34q35 -35 35 -81q0 -50 -35 -87q-34 -36 -86 -36q-47 0 -82 36q-35 37 -35 87q0 47 36 81z" />
    <glyph glyph-name="uni06A3.fina" unicode="&#x6a3;" horiz-adv-x="1753" 
d="M1652 0q-168 0 -268 76q-58 -34 -143 -60t-178 -42q-94 -16 -192 -24q-91 -7 -179 -7q-306 0 -448 91q-144 92 -144 267q0 31 6 82q6 48 23 100q16 49 45 85t71 36q22 0 44 -16t22 -58q0 -52 -9 -87q-9 -34 -9 -70q0 -70 44 -108q45 -39 108 -55q65 -17 131 -20
q60 -4 114 -4q145 0 276 8q123 8 228 48q-62 83 -62 164q0 54 26 114q25 57 66 106q41 48 96 78q55 29 111 29q60 0 103 -24q45 -26 72 -68q28 -43 43 -98q14 -58 14 -117q0 -130 -78 -186h168v-240h-101zM1485 487q-21 33 -68 33q-45 0 -79 -34t-34 -80q0 -26 26 -57
q26 -30 77 -30q48 0 73 33q25 32 25 70q0 30 -20 65zM1326 1081q36 33 83 33q50 0 84 -33q34 -34 34 -82q0 -52 -34 -86q-34 -36 -86 -36q-47 0 -82 36q-35 35 -35 86q0 48 36 82zM794 -216q35 34 83 34q50 0 84 -34q35 -35 35 -81q0 -50 -35 -87q-34 -36 -86 -36
q-47 0 -82 36q-35 37 -35 87q0 47 36 81z" />
    <glyph glyph-name="uni06A5.init" unicode="&#x6a5;" horiz-adv-x="715" 
d="M-45 223q0 9 15 13q12 4 30 4h156q157 0 237 41t80 100q-64 -59 -164 -59q-101 1 -164 61q-63 59 -63 170q0 61 19 122q19 64 52 113q35 52 82 82q47 31 107 31q87 0 143 -49t90 -123q34 -75 47 -160q13 -82 13 -157q0 -412 -510 -412h-125q-18 0 -30 4q-15 5 -15 10v209
zM322 522q46 0 76 14q28 13 28 46q0 18 -9 39q-9 20 -23 37q-14 16 -32 27q-19 11 -32 11q-35 0 -60 -28q-26 -29 -26 -72q0 -74 78 -74zM398 -218q33 36 82 36q51 0 85 -36q34 -35 34 -85q0 -49 -34 -83t-85 -34q-47 0 -81 34q-35 35 -35 83q0 50 34 85zM114 -218
q35 36 82 36q51 0 85 -36q34 -35 34 -87q0 -47 -34 -81t-83 -34q-50 0 -84 34q-35 35 -35 81q0 50 35 87zM257 -464q35 36 82 36q52 0 86 -36q35 -37 35 -87q0 -46 -35 -81q-34 -34 -84 -34q-48 0 -83 34q-36 35 -36 81q0 50 35 87z" />
    <glyph glyph-name="uni06A5.medi" unicode="&#x6a5;" horiz-adv-x="754" 
d="M651 0q-19 0 -61 5q-37 5 -75 15q-41 10 -72 22q-34 14 -54 30q-102 -72 -272 -72h-117q-18 0 -30 4q-15 5 -15 10v209q0 9 15 13q12 4 30 4h186q-26 36 -44 83q-17 45 -17 97q0 54 26 112q26 57 66 101q41 45 92 74q50 28 105 28q62 0 106 -25q43 -25 76 -68
q32 -42 45 -96q14 -56 14 -110q0 -127 -82 -196h181v-240h-103zM468 488q-26 32 -62 32q-48 0 -80 -39q-33 -39 -33 -78q0 -37 33 -63q31 -25 67 -25q37 0 69 29t32 72q0 38 -26 72zM398 -218q33 36 82 36q51 0 85 -36q34 -35 34 -85q0 -49 -34 -83t-85 -34q-47 0 -81 34
q-35 35 -35 83q0 50 34 85zM114 -218q35 36 82 36q51 0 85 -36q34 -35 34 -87q0 -47 -34 -81t-83 -34q-50 0 -84 34q-35 35 -35 81q0 50 35 87zM257 -464q35 36 82 36q52 0 86 -36q35 -37 35 -87q0 -46 -35 -81q-34 -34 -84 -34q-48 0 -83 34q-36 35 -36 81q0 50 35 87z" />
    <glyph glyph-name="uni06A5.fina" unicode="&#x6a5;" horiz-adv-x="1753" 
d="M1652 0q-168 0 -268 76q-58 -34 -143 -60t-178 -42q-94 -16 -192 -24q-91 -7 -179 -7q-306 0 -448 91q-144 92 -144 267q0 31 6 82q6 48 23 100q16 49 45 85t71 36q22 0 44 -16t22 -58q0 -52 -9 -87q-9 -34 -9 -70q0 -70 44 -108q45 -39 108 -55q65 -17 131 -20
q60 -4 114 -4q145 0 276 8q123 8 228 48q-62 83 -62 164q0 54 26 114q25 57 66 106q41 48 96 78q55 29 111 29q60 0 103 -24q45 -26 72 -68q28 -43 43 -98q14 -58 14 -117q0 -130 -78 -186h168v-240h-101zM1485 487q-21 33 -68 33q-45 0 -79 -34t-34 -80q0 -26 26 -57
q26 -30 77 -30q48 0 73 33q25 32 25 70q0 30 -20 65zM1398 -218q33 36 82 36q51 0 85 -36q34 -35 34 -85q0 -49 -34 -83t-85 -34q-47 0 -81 34q-35 35 -35 83q0 50 34 85zM1114 -218q35 36 82 36q51 0 85 -36q34 -35 34 -87q0 -47 -34 -81t-83 -34q-50 0 -84 34
q-35 35 -35 81q0 50 35 87zM1257 -464q35 36 82 36q52 0 86 -36q35 -37 35 -87q0 -46 -35 -81q-34 -34 -84 -34q-48 0 -83 34q-36 35 -36 81q0 50 35 87z" />
    <glyph glyph-name="uni06A7.init" unicode="&#x6a7;" horiz-adv-x="715" 
d="M-45 223q0 9 15 13q12 4 30 4h156q157 0 237 41t80 100q-64 -59 -164 -59q-101 1 -164 61q-63 59 -63 170q0 61 19 122q19 64 52 113q35 52 82 82q47 31 107 31q87 0 143 -49t90 -123q34 -75 47 -160q13 -82 13 -157q0 -412 -510 -412h-125q-18 0 -30 4q-15 5 -15 10v209
zM322 522q46 0 76 14q28 13 28 46q0 18 -9 39q-9 20 -23 37q-14 16 -32 27q-19 11 -32 11q-35 0 -60 -28q-26 -29 -26 -72q0 -74 78 -74zM235 1251q35 33 84 33t83 -33q34 -34 34 -82q0 -52 -34 -86q-34 -36 -85 -36q-47 0 -82 36q-35 35 -35 86q0 47 35 82z" />
    <glyph glyph-name="uni06A7.medi" unicode="&#x6a7;" horiz-adv-x="754" 
d="M651 0q-19 0 -61 5q-37 5 -75 15q-41 10 -72 22q-34 14 -54 30q-102 -72 -272 -72h-117q-18 0 -30 4q-15 5 -15 10v209q0 9 15 13q12 4 30 4h186q-26 36 -44 83q-17 45 -17 97q0 54 26 112q26 57 66 101q41 45 92 74q50 28 105 28q62 0 106 -25q43 -25 76 -68
q32 -42 45 -96q14 -56 14 -110q0 -127 -82 -196h181v-240h-103zM468 488q-26 32 -62 32q-48 0 -80 -39q-33 -39 -33 -78q0 -37 33 -63q31 -25 67 -25q37 0 69 29t32 72q0 38 -26 72zM310 1081q35 33 84 33t83 -33q34 -34 34 -82q0 -52 -34 -86q-34 -36 -85 -36q-47 0 -82 36
q-35 35 -35 86q0 47 35 82z" />
    <glyph glyph-name="uni06A7.fina" unicode="&#x6a7;" horiz-adv-x="1241" 
d="M1151 0q-22 -132 -77 -226q-54 -93 -131 -152q-75 -59 -171 -88q-93 -28 -195 -28q-106 0 -196 35q-88 34 -150 98q-62 61 -97 150q-34 87 -34 193q0 46 7 98q8 57 25 106q17 51 48 85t78 34q53 0 53 -76q0 -53 -6 -106q-6 -52 -6 -94q0 -58 19 -106q18 -49 56 -90
q38 -40 96 -63q59 -24 140 -24q61 0 124 15q62 14 114 45q51 30 87 78q36 50 46 116h-58q-169 0 -239 58q-72 57 -72 178q0 63 19 124q18 62 54 113t86 83t113 32q65 0 111 -34q49 -36 79 -85q33 -53 50 -112q17 -58 25 -117h92v-240h-90zM974 240q0 63 -30 106
q-31 43 -84 43q-41 0 -58 -26q-18 -27 -18 -58q0 -25 28 -44q27 -21 99 -21h63zM780 933q34 34 84 34q49 0 83 -34q33 -34 33 -81q0 -51 -33 -87q-34 -36 -86 -36q-46 0 -81 36q-35 37 -35 87q0 46 35 81z" />
    <glyph glyph-name="uni06A8.init" unicode="&#x6a8;" horiz-adv-x="715" 
d="M-45 223q0 9 15 13q12 4 30 4h156q157 0 237 41t80 100q-64 -59 -164 -59q-101 1 -164 61q-63 59 -63 170q0 61 19 122q19 64 52 113q35 52 82 82q47 31 107 31q87 0 143 -49t90 -123q34 -75 47 -160q13 -82 13 -157q0 -412 -510 -412h-125q-18 0 -30 4q-15 5 -15 10v209
zM322 522q46 0 76 14q28 13 28 46q0 18 -9 39q-9 20 -23 37q-14 16 -32 27q-19 11 -32 11q-35 0 -60 -28q-26 -29 -26 -72q0 -74 78 -74zM377 1251q35 33 82 33q50 0 84 -33q35 -35 35 -84t-35 -84q-34 -36 -84 -36q-48 0 -83 36q-34 34 -34 84q0 49 35 84zM92 1251
q35 33 84 33t83 -33q34 -34 34 -82q0 -52 -34 -86q-34 -36 -85 -36q-47 0 -82 36q-35 35 -35 86q0 47 35 82zM237 1496q34 34 83 34q50 0 84 -34t34 -81q0 -52 -34 -87q-34 -36 -87 -36q-46 0 -81 36q-35 37 -35 87q0 47 36 81z" />
    <glyph glyph-name="uni06A8.medi" unicode="&#x6a8;" horiz-adv-x="754" 
d="M651 0q-19 0 -61 5q-37 5 -75 15q-41 10 -72 22q-34 14 -54 30q-102 -72 -272 -72h-117q-18 0 -30 4q-15 5 -15 10v209q0 9 15 13q12 4 30 4h186q-26 36 -44 83q-17 45 -17 97q0 54 26 112q26 57 66 101q41 45 92 74q50 28 105 28q62 0 106 -25q43 -25 76 -68
q32 -42 45 -96q14 -56 14 -110q0 -127 -82 -196h181v-240h-103zM468 488q-26 32 -62 32q-48 0 -80 -39q-33 -39 -33 -78q0 -37 33 -63q31 -25 67 -25q37 0 69 29t32 72q0 38 -26 72zM453 1081q35 33 82 33q50 0 84 -33q34 -34 34 -84t-34 -84q-34 -36 -84 -36t-83 36
q-34 34 -34 84q0 49 35 84zM168 1081q35 33 84 33t83 -33q34 -34 34 -82q0 -52 -34 -86q-34 -36 -85 -36q-47 0 -82 36q-35 35 -35 86q0 47 35 82zM312 1326q35 34 83 34q50 0 84 -34q35 -35 35 -81q0 -50 -35 -87q-34 -36 -86 -36q-47 0 -82 36q-35 37 -35 87q0 47 36 81z
" />
    <glyph glyph-name="uni06A8.fina" unicode="&#x6a8;" horiz-adv-x="1241" 
d="M1151 0q-22 -132 -77 -226q-54 -93 -131 -152q-75 -59 -171 -88q-93 -28 -195 -28q-106 0 -196 35q-88 34 -150 98q-62 61 -97 150q-34 87 -34 193q0 46 7 98q8 57 25 106q17 51 48 85t78 34q53 0 53 -76q0 -53 -6 -106q-6 -52 -6 -94q0 -58 19 -106q18 -49 56 -90
q38 -40 96 -63q59 -24 140 -24q61 0 124 15q62 14 114 45q51 30 87 78q36 50 46 116h-58q-169 0 -239 58q-72 57 -72 178q0 63 19 124q18 62 54 113t86 83t113 32q65 0 111 -34q49 -36 79 -85q33 -53 50 -112q17 -58 25 -117h92v-240h-90zM974 240q0 63 -30 106
q-31 43 -84 43q-41 0 -58 -26q-18 -27 -18 -58q0 -25 28 -44q27 -21 99 -21h63zM925 933q35 33 82 33q50 0 84 -33q35 -35 35 -84t-35 -84q-34 -36 -84 -36q-48 0 -83 36q-34 34 -34 84q0 49 35 84zM640 933q35 33 84 33t83 -33q34 -34 34 -82q0 -52 -34 -86
q-34 -36 -85 -36q-47 0 -82 36q-35 35 -35 86q0 47 35 82zM785 1178q34 34 83 34q50 0 84 -34t34 -81q0 -52 -34 -87q-34 -36 -87 -36q-46 0 -81 36q-35 37 -35 87q0 47 36 81z" />
    <glyph glyph-name="uni06AA.init" unicode="&#x6aa;" horiz-adv-x="1290" 
d="M-45 223q0 9 15 13q12 4 30 4h858q85 0 123 29q30 23 30 53q0 9 -1 14q-13 70 -76 88q-64 18 -170 18h-526q-32 0 -70 9q-35 7 -71 29q-34 19 -60 53q-27 32 -35 79q-4 19 -4 42q0 33 10 63q15 52 55 86q47 39 129 90q83 51 174 99q102 54 176 86q88 39 138 50q14 3 25 3
q34 0 59 -22q35 -30 39 -69q1 -3 1 -11q0 -23 -13 -48q-16 -30 -58 -47q-137 -55 -256 -106q-123 -53 -268 -134l-14 -9q-9 -4 -9 -11q0 -5 11 -10q12 -5 39 -5h581q70 0 141 -17q67 -16 124 -55q55 -37 90 -101q33 -62 38 -156v-18q0 -107 -44 -169q-48 -68 -124 -99
q-78 -32 -170 -38q-94 -6 -178 -6h-694q-18 0 -30 4q-15 5 -15 10v209z" />
    <glyph glyph-name="uni06AA.medi" unicode="&#x6aa;" horiz-adv-x="1348" 
d="M1348 0q-77 0 -134 20q-56 19 -94 72q-39 -33 -90 -51t-107 -27q-57 -10 -116 -12q-78 -2 -113 -2h-694q-18 0 -30 4q-15 5 -15 10v209q0 9 15 13q12 4 30 4h858q85 0 123 29q30 23 30 53q0 9 -1 14q-13 70 -76 89t-170 19h-526q-32 0 -70 9q-33 7 -71 28q-35 20 -60 52
q-27 32 -35 79q-4 19 -4 42q0 33 10 63q15 52 55 86q47 39 129 90q83 51 174 99q102 54 176 86q88 39 138 50q14 3 25 3q34 0 59 -22q35 -30 39 -69q1 -3 1 -11q0 -23 -13 -48q-16 -30 -58 -47q-137 -55 -256 -106q-123 -53 -268 -134l-14 -9q-9 -4 -9 -11q0 -5 11 -10
q12 -5 39 -5h581q70 0 141 -17q67 -16 124 -55q55 -37 90 -101q33 -62 38 -156q0 -53 -8 -90h146v-240z" />
    <glyph glyph-name="uni06AA.fina" unicode="&#x6aa;" horiz-adv-x="1790" 
d="M1790 240v-240q-77 0 -134 20q-56 19 -94 72l-1 1q-32 -28 -79 -49q-78 -32 -170 -38q-95 -6 -401 -15q-307 -9 -342 -9q-55 0 -135 3q-83 3 -154 19q-75 17 -127 51q-53 35 -53 101q0 37 11 64q11 25 27 38q17 15 31 19q13 4 23 4q39 0 63 -7l58 -16q33 -7 84 -15
q48 -7 141 -7h760q86 5 123 33q30 23 30 53q0 9 -1 14q-13 70 -76 88q-64 18 -170 18h-526q-32 0 -70 9q-35 7 -71 29q-34 19 -60 53q-27 32 -35 79q-4 19 -4 42q0 33 10 63q15 52 55 86q47 39 129 90q83 51 174 99q102 54 176 86q88 39 138 50q14 3 25 3q34 0 59 -22
q35 -30 39 -69q1 -3 1 -11q0 -23 -13 -48q-16 -30 -58 -47q-137 -55 -256 -106q-123 -53 -268 -134l-14 -9q-9 -4 -9 -11q0 -5 11 -10q12 -5 39 -5h581q70 0 141 -17q67 -16 124 -55q55 -37 90 -101q33 -62 38 -156v-18q0 -39 -6 -72h146z" />
    <glyph glyph-name="uni06AB.init" unicode="&#x6ab;" horiz-adv-x="899" 
d="M-45 223q0 9 15 13q12 4 30 4h125l65 2q37 1 89 10q44 7 79 24q33 15 33 43q0 26 -23 57q-25 31 -61 63q-52 44 -80 64q-39 28 -82 63q-38 28 -71 58q-29 25 -41 50q-8 17 -22 53q-11 28 -11 59q0 54 21 103q19 48 69 80q71 44 175 85q88 35 203 71q89 26 184 49
q83 18 116 18q54 0 82 -28q29 -29 29 -68q0 -34 -19 -60q-18 -27 -67 -41q-127 -28 -268 -68q-128 -36 -279 -98q-27 -7 -27 -32q0 -21 21 -35q90 -69 160 -129q72 -65 106 -107q43 -52 61 -96q19 -45 19 -100q0 -115 -57 -181q-58 -67 -144 -100q-87 -34 -185 -41
q-107 -8 -184 -8h-16q-18 0 -30 4q-15 5 -15 10v209zM423 1205q-138 -47 -202 -71q-59 -22 -127 -52q-45 -21 -57 -21q-23 0 -37 17t-14 40q0 19 12 40q13 21 37 32q75 42 173 80q94 37 196 70q105 33 175 50q76 19 109 19q29 0 54 -13q24 -13 24 -46q0 -21 -15 -39
q-17 -20 -46 -27q-167 -40 -282 -79z" />
    <glyph glyph-name="uni06AB.medi" unicode="&#x6ab;" horiz-adv-x="985" 
d="M965 0q-112 0 -216 61q-105 59 -194 181q-18 -86 -75 -134q-58 -49 -135 -73q-76 -25 -164 -30q-97 -5 -167 -5h-14q-18 0 -30 4q-15 5 -15 10v209q0 9 15 13q12 4 30 4h165q59 0 79 4q66 5 104 23q41 18 41 52q0 41 -47 88q-42 42 -108 92q-100 75 -120 91
q-61 47 -79 82q-17 25 -26 54q-9 30 -9 60q0 52 24 104q22 51 70 79q109 61 217 101q104 39 204 70q88 26 157 40q63 12 74 12q43 0 85 -21q42 -22 42 -69q0 -36 -19 -64q-19 -29 -72 -43q-144 -32 -275 -72q-145 -44 -261 -89q-14 -4 -22 -17q-7 -11 -7 -14q0 -17 19 -36
q19 -20 34 -30q115 -81 220 -174q102 -91 219 -201q131 -122 258 -122h18v-240h-20zM423 1205q-116 -39 -202 -72q-61 -24 -127 -53q-45 -21 -57 -21q-23 0 -37 18q-14 17 -14 39q0 19 12 40q13 21 37 32q49 27 116 57q52 22 132 52q75 26 134 45l122 36q60 16 95 24
q41 9 54 9q27 0 52 -13q24 -13 24 -46q0 -21 -14 -41q-15 -21 -45 -27q-167 -40 -282 -79z" />
    <glyph glyph-name="uni06AB.fina" unicode="&#x6ab;" horiz-adv-x="1968" 
d="M1968 0q-64 0 -124 16q-65 15 -120 46q-56 29 -106 75q-51 46 -86 105q-32 -109 -119 -166q-90 -61 -202 -89q-112 -29 -240 -37q-118 -7 -234 -7q-171 0 -293 24q-120 22 -197 69q-78 47 -112 114q-35 68 -35 155q0 34 6 83t23 97q17 49 44 81q27 34 70 34q24 0 46 -16
t22 -52q-1 -44 -10 -91q-8 -43 -8 -89q0 -61 52 -95t124 -49q70 -15 145 -18q65 -4 115 -4q47 0 86 1q66 2 128 7q61 4 145 14q79 10 137 25q62 15 100 37q39 21 39 52q0 38 -48 84q-52 47 -112 93l-123 93q-58 45 -84 84q-31 44 -31 110q0 52 28 101q29 50 71 76
q80 47 191 91q110 43 206 72q116 33 176 47q79 17 98 17q56 0 87 -30q30 -30 30 -68q0 -31 -15 -55q-16 -24 -69 -38q-155 -35 -289 -79q-126 -42 -256 -82q-12 -5 -21 -14q-11 -11 -11 -21q0 -12 8 -23q7 -11 18 -22q74 -49 141 -100q59 -46 104 -87q53 -48 97 -92
q72 -72 119 -117q136 -122 260 -122h29v-240zM1403 1205q-134 -45 -203 -71q-59 -22 -127 -52q-45 -21 -58 -21q-22 0 -36 17q-15 17 -15 40q0 20 13 40q13 21 34 32q74 41 175 80q95 37 196 70q105 33 175 50q77 19 110 19q28 0 53 -13t25 -46q0 -21 -15 -39
q-17 -20 -47 -27q-164 -40 -280 -79z" />
    <glyph glyph-name="uni06AC.init" unicode="&#x6ac;" horiz-adv-x="897" 
d="M-45 223q0 9 15 13q12 4 30 4h156l64 2q37 1 89 10q44 7 79 24q34 15 34 43q0 23 -25 57q-23 31 -66 74l-87 82l-90 82q-43 39 -76 73q-32 33 -43 54q-13 27 -24 54t-11 59q0 53 22 101q20 48 68 77q51 32 144 72q93 41 193 77q105 38 194 62q90 25 145 25q54 0 82 -33
q29 -34 29 -72q0 -33 -20 -59q-21 -26 -66 -37q-134 -31 -268 -72q-132 -40 -279 -96q-27 -12 -27 -33q0 -22 21 -37q379 -288 379 -499q0 -122 -61 -187q-61 -67 -153 -99q-93 -32 -195 -38q-103 -6 -187 -6h-21q-18 0 -30 4q-15 5 -15 10v209zM247 1473q35 34 83 34
q50 0 84 -34q35 -35 35 -81q0 -50 -35 -87q-34 -36 -86 -36q-47 0 -82 36q-35 37 -35 87q0 47 36 81z" />
    <glyph glyph-name="uni06AC.medi" unicode="&#x6ac;" horiz-adv-x="1018" 
d="M1001 0q-112 0 -218 61q-107 60 -195 181q-20 -90 -80 -139q-61 -49 -143 -72q-82 -22 -174 -27q-83 -4 -173 -4h-18q-18 0 -30 4q-15 5 -15 10v209q0 9 15 13q12 4 30 4h186q67 0 90 4q67 5 105 23q41 18 41 52q0 23 -24 57q-24 32 -64 74q-46 46 -85 80q-31 27 -89 81
l-78 75q-36 36 -49 59q-33 56 -33 115q0 52 26 101q26 47 72 75q84 46 184 87q102 43 196 74q93 31 173 51q78 18 113 18q46 0 83 -28q38 -29 38 -75q0 -32 -20 -57q-21 -25 -72 -39q-132 -32 -280 -77q-129 -39 -267 -89q-27 -12 -27 -31q0 -16 19 -35q18 -20 32 -32
q132 -113 246 -224q96 -95 225 -217q131 -122 258 -122h19v-240h-17zM247 1473q35 34 83 34q50 0 84 -34q35 -35 35 -81q0 -50 -35 -87q-34 -36 -86 -36q-47 0 -82 36q-35 37 -35 87q0 47 36 81z" />
    <glyph glyph-name="uni06AC.fina" unicode="&#x6ac;" horiz-adv-x="1478" 
d="M1409 0q-180 0 -242 164q-98 -221 -526 -221q-144 0 -244 28q-101 27 -169 78q-66 50 -97 125q-31 72 -31 164q0 35 7 85q8 57 25 107q16 52 45 91q27 38 68 38q19 0 45 -14q25 -13 25 -65q0 -42 -12 -86q-13 -42 -13 -84q0 -111 93 -167q92 -57 258 -57q454 0 454 263
q0 175 -5 373t-5 327q0 43 33 77t67 34q41 0 75 -33t34 -88v-668q0 -48 3 -92q3 -43 19 -74q15 -31 50 -48q36 -17 98 -17h14v-240h-69zM717 631q-38 14 -63 26q-32 14 -61 38q-28 22 -28 59q0 26 18 56q15 28 44 55q23 22 58 40q32 15 58 15q29 0 40 -11q11 -13 11 -28
q0 -23 -15 -38q-15 -16 -33 -27q-6 -3 -34 -20q-16 -10 -16 -22q0 -16 30 -28q7 -4 31 -14l33 -16q37 -19 65 -43q29 -26 29 -67q0 -39 -30 -66q-31 -28 -74 -46q-41 -19 -87 -28q-43 -9 -71 -9q-42 0 -58 19q-18 18 -18 34q0 26 31 39q32 14 69 24l36 9q23 6 33 8
q30 8 30 20q0 11 -28 21zM1100 1573q35 34 83 34q50 0 84 -34q35 -35 35 -81q0 -50 -35 -87q-34 -36 -86 -36q-47 0 -82 36q-35 37 -35 87q0 47 36 81z" />
    <glyph glyph-name="uni06AE.init" unicode="&#x6ae;" horiz-adv-x="897" 
d="M-45 223q0 9 15 13q12 4 30 4h156l64 2q37 1 89 10q44 7 79 24q34 15 34 43q0 23 -25 57q-23 31 -66 74l-87 82l-90 82q-43 39 -76 73q-32 33 -43 54q-13 27 -24 54t-11 59q0 53 22 101q20 48 68 77q51 32 144 72q93 41 193 77q105 38 194 62q90 25 145 25q54 0 82 -33
q29 -34 29 -72q0 -33 -20 -59q-21 -26 -66 -37q-134 -31 -268 -72q-132 -40 -279 -96q-27 -12 -27 -33q0 -22 21 -37q379 -288 379 -499q0 -122 -61 -187q-61 -67 -153 -99q-93 -32 -195 -38q-103 -6 -187 -6h-21q-18 0 -30 4q-15 5 -15 10v209zM398 -218q33 36 82 36
q51 0 85 -36q34 -35 34 -85q0 -49 -34 -83t-85 -34q-47 0 -81 34q-35 35 -35 83q0 50 34 85zM114 -218q35 36 82 36q51 0 85 -36q34 -35 34 -87q0 -47 -34 -81t-83 -34q-50 0 -84 34q-35 35 -35 81q0 50 35 87zM257 -464q35 36 82 36q52 0 86 -36q35 -37 35 -87
q0 -46 -35 -81q-34 -34 -84 -34q-48 0 -83 34q-36 35 -36 81q0 50 35 87z" />
    <glyph glyph-name="uni06AE.medi" unicode="&#x6ae;" horiz-adv-x="1018" 
d="M1002 0q-113 0 -219 61q-107 60 -195 181q-20 -90 -80 -139q-62 -50 -143 -72q-82 -22 -174 -27q-83 -4 -173 -4h-18q-18 0 -30 4q-15 5 -15 10v209q0 9 15 13q12 4 30 4h186q67 0 91 4q66 5 104 23q41 18 41 52q0 23 -24 57q-24 32 -64 74q-46 46 -85 80q-31 27 -89 81
l-78 75q-36 36 -49 59q-33 56 -33 115q0 52 26 101q26 47 72 75q84 46 184 87q102 43 196 74q93 31 173 51q78 18 113 18q46 0 83 -28q38 -29 38 -75q0 -32 -20 -57q-21 -25 -72 -39q-132 -32 -280 -77q-129 -39 -267 -89q-27 -12 -27 -31q0 -16 19 -35q18 -20 32 -32
q132 -113 246 -224q96 -95 225 -217q133 -122 258 -122h19v-240h-16zM398 -218q33 36 82 36q51 0 85 -36q34 -35 34 -85q0 -49 -34 -83t-85 -34q-47 0 -81 34q-35 35 -35 83q0 50 34 85zM114 -218q35 36 82 36q51 0 85 -36q34 -35 34 -87q0 -47 -34 -81t-83 -34
q-50 0 -84 34q-35 35 -35 81q0 50 35 87zM257 -464q35 36 82 36q52 0 86 -36q35 -37 35 -87q0 -46 -35 -81q-34 -34 -84 -34q-48 0 -83 34q-36 35 -36 81q0 50 35 87z" />
    <glyph glyph-name="uni06AE.fina" unicode="&#x6ae;" horiz-adv-x="1478" 
d="M1409 0q-180 0 -242 164q-98 -221 -526 -221q-144 0 -244 28q-101 27 -169 78q-66 50 -97 125q-31 72 -31 164q0 35 7 85q8 57 25 107q16 52 45 91q27 38 68 38q19 0 45 -14q25 -13 25 -65q0 -42 -12 -86q-13 -42 -13 -84q0 -111 93 -167q92 -57 258 -57q454 0 454 263
q0 175 -5 373t-5 327q0 43 33 77t67 34q41 0 75 -33t34 -88v-668q0 -48 3 -92q3 -43 19 -74q15 -31 50 -48q36 -17 98 -17h14v-240h-69zM717 631q-38 14 -63 26q-32 14 -61 38q-28 22 -28 59q0 26 18 56q15 28 44 55q23 22 58 40q32 15 58 15q29 0 40 -11q11 -13 11 -28
q0 -23 -15 -38q-15 -16 -33 -27q-6 -3 -34 -20q-16 -10 -16 -22q0 -16 30 -28q7 -4 31 -14l33 -16q37 -19 65 -43q29 -26 29 -67q0 -39 -30 -66q-31 -28 -74 -46q-41 -19 -87 -28q-43 -9 -71 -9q-42 0 -58 19q-18 18 -18 34q0 26 31 39q32 14 69 24l36 9q23 6 33 8
q30 8 30 20q0 11 -28 21zM718 -218q33 36 82 36q51 0 85 -36q34 -35 34 -85q0 -49 -34 -83t-85 -34q-47 0 -81 34q-35 35 -35 83q0 50 34 85zM434 -218q35 36 82 36q51 0 85 -36q34 -35 34 -87q0 -47 -34 -81t-83 -34q-50 0 -84 34q-35 35 -35 81q0 50 35 87zM577 -464
q35 36 82 36q52 0 86 -36q35 -37 35 -87q0 -46 -35 -81q-34 -34 -84 -34q-48 0 -83 34q-36 35 -36 81q0 50 35 87z" />
    <glyph glyph-name="uni06B0.init" unicode="&#x6b0;" horiz-adv-x="899" 
d="M423 1205q-138 -47 -202 -71q-59 -22 -127 -52q-45 -21 -57 -21q-23 0 -37 17t-14 40q0 19 12 40q13 21 37 32q75 42 173 80q94 37 196 70q105 33 175 50q76 19 109 19q29 0 54 -13q24 -13 24 -46q0 -21 -15 -39q-17 -20 -46 -27q-167 -40 -282 -79zM542 918
q-10 -18 -14 -28q-7 -13 -10 -30q-4 -15 -4 -30q0 -18 9 -32q9 -13 37 -13q51 0 73 15q22 13 22 36q0 24 -26 53q-26 27 -73 47q-5 -4 -14 -18zM433 898q-87 -29 -187 -69q-27 -7 -27 -32q0 -21 21 -35q90 -69 160 -129q72 -65 106 -107q43 -52 61 -96q19 -45 19 -100
q0 -115 -57 -181q-58 -67 -144 -100q-87 -34 -185 -41q-107 -8 -184 -8h-16q-18 0 -30 4q-15 5 -15 10v209q0 9 15 13q12 4 30 4h125l65 2q37 1 89 10q44 7 79 24q33 15 33 43q0 26 -23 57q-25 31 -61 63q-52 44 -80 64q-39 28 -82 63q-38 28 -71 58q-29 25 -41 50
q-8 17 -22 53q-11 28 -11 59q0 54 21 103q19 48 69 80q71 44 175 85q88 35 203 71q89 26 184 49q83 18 116 18q54 0 82 -28q29 -29 29 -68q0 -34 -19 -60q-18 -27 -67 -41l-43 -10q-28 -6 -43 -10q7 -9 19 -29q23 -43 23 -83t-15 -73q-15 -34 -40 -58q-23 -23 -59 -38
q-36 -14 -71 -14q-26 0 -53 6q-25 6 -49 20q-23 14 -36 35q-14 23 -14 55q0 45 17 93z" />
    <glyph glyph-name="uni06B0.medi" unicode="&#x6b0;" horiz-adv-x="985" 
d="M423 1205q-116 -39 -202 -72q-61 -24 -127 -53q-45 -21 -57 -21q-23 0 -37 18q-14 17 -14 39q0 19 12 40q13 21 37 32q49 27 116 57q52 22 132 52q75 26 134 45l122 36q60 16 95 24q41 9 54 9q27 0 52 -13q24 -13 24 -46q0 -21 -14 -41q-15 -21 -45 -27
q-167 -40 -282 -79zM542 918q-10 -18 -14 -28q-7 -13 -10 -30q-4 -15 -4 -30q0 -18 9 -32q9 -13 37 -13q51 0 73 15q22 13 22 36q0 24 -26 53q-26 27 -73 47q-5 -4 -14 -18zM246 834q-14 -4 -22 -17q-7 -11 -7 -14q0 -17 19 -36q19 -20 34 -30q115 -81 220 -174
q102 -91 219 -201q131 -122 258 -122h18v-240h-20q-112 0 -216 61q-105 59 -194 181q-18 -86 -75 -134q-58 -49 -135 -73q-76 -25 -164 -30q-97 -5 -167 -5h-14q-18 0 -30 4q-15 5 -15 10v209q0 9 15 13q12 4 30 4h165q59 0 79 4q66 5 104 23q41 18 41 52q0 41 -47 88
q-42 42 -108 92q-100 75 -120 91q-61 47 -79 82q-17 25 -26 54q-9 30 -9 60q0 52 24 104q22 51 70 79q109 61 217 101q104 39 204 70q88 26 157 40q63 12 74 12q43 0 85 -21q42 -22 42 -69q0 -36 -19 -64q-19 -29 -72 -43l-77 -18l21 -31q23 -43 23 -83t-15 -73
q-15 -34 -40 -58q-23 -23 -59 -38q-36 -14 -71 -14q-26 0 -53 6q-25 6 -49 20q-23 14 -36 35q-14 23 -14 55q0 45 17 93q5 15 4 11q-90 -30 -187 -66z" />
    <glyph glyph-name="uni06B0.fina" unicode="&#x6b0;" horiz-adv-x="1968" 
d="M1403 1205q-134 -45 -203 -71q-59 -22 -127 -52q-45 -21 -58 -21q-22 0 -36 17q-15 17 -15 40q0 20 13 40q13 21 34 32q74 41 175 80q95 37 196 70q105 33 175 50q77 19 110 19q28 0 53 -13t25 -46q0 -21 -15 -39q-17 -20 -47 -27q-164 -40 -280 -79zM1533 915
q-10 -18 -14 -28q-7 -13 -10 -30q-4 -15 -4 -30q0 -18 9 -32q9 -13 37 -13q51 0 73 15q22 13 22 36q0 24 -26 53q-26 27 -73 47q-5 -4 -14 -18zM1426 902q-172 -55 -202 -64q-12 -5 -21 -14q-11 -11 -11 -21q0 -12 8 -23q7 -11 18 -22q74 -49 141 -100q59 -46 104 -87
q53 -48 97 -92q72 -72 119 -117q136 -122 260 -122h29v-240q-64 0 -124 16q-65 15 -120 46q-56 29 -106 75q-51 46 -86 105q-32 -109 -119 -166q-90 -61 -202 -89q-112 -29 -240 -37q-118 -7 -234 -7q-171 0 -293 24q-120 22 -197 69q-78 47 -112 114q-35 68 -35 155
q0 34 6 83t23 97q17 49 44 81q27 34 70 34q24 0 46 -16t22 -52q-1 -44 -10 -91q-8 -43 -8 -89q0 -61 52 -95t124 -49q70 -15 145 -18q65 -4 115 -4q47 0 86 1q66 2 128 7q61 4 145 14q79 10 137 25q62 15 100 37q39 21 39 52q0 38 -48 84q-52 47 -112 93l-123 93
q-58 45 -84 84q-31 44 -31 110q0 52 28 101q29 50 71 76q80 47 191 91q110 43 206 72q116 33 176 47q79 17 98 17q56 0 87 -30q30 -30 30 -68q0 -31 -15 -55q-16 -24 -69 -38l-78 -18q15 -19 26 -38q23 -43 23 -83t-15 -73q-15 -34 -40 -58q-23 -23 -59 -38q-36 -14 -71 -14
q-26 0 -53 6q-25 6 -49 20q-23 14 -36 35q-14 23 -14 55q0 45 17 93z" />
    <glyph glyph-name="uni06B2.init" unicode="&#x6b2;" horiz-adv-x="899" 
d="M-45 223q0 9 15 13q12 4 30 4h125l65 2q37 1 89 10q44 7 79 24q33 15 33 43q0 26 -23 57q-25 31 -61 63q-52 44 -80 64q-39 28 -82 63q-38 28 -71 58q-29 25 -41 50q-8 17 -22 53q-11 28 -11 59q0 54 21 103q19 48 69 80q71 44 175 85q88 35 203 71q89 26 184 49
q83 18 116 18q54 0 82 -28q29 -29 29 -68q0 -34 -19 -60q-18 -27 -67 -41q-127 -28 -268 -68q-128 -36 -279 -98q-27 -7 -27 -32q0 -21 21 -35q90 -69 160 -129q72 -65 106 -107q43 -52 61 -96q19 -45 19 -100q0 -115 -57 -181q-58 -67 -144 -100q-87 -34 -185 -41
q-107 -8 -184 -8h-16q-18 0 -30 4q-15 5 -15 10v209zM423 1205q-138 -47 -202 -71q-59 -22 -127 -52q-45 -21 -57 -21q-23 0 -37 17t-14 40q0 19 12 40q13 21 37 32q75 42 173 80q94 37 196 70q105 33 175 50q76 19 109 19q29 0 54 -13q24 -13 24 -46q0 -21 -15 -39
q-17 -20 -46 -27q-167 -40 -282 -79zM388 -218q33 36 82 36q51 0 85 -36q34 -35 34 -85q0 -49 -34 -83t-85 -34q-47 0 -81 34q-35 35 -35 83q0 50 34 85zM104 -218q35 36 82 36q51 0 85 -36q34 -35 34 -87q0 -47 -34 -81t-83 -34q-50 0 -84 34q-35 35 -35 81q0 50 35 87z
" />
    <glyph glyph-name="uni06B2.medi" unicode="&#x6b2;" horiz-adv-x="985" 
d="M965 0q-112 0 -216 61q-105 59 -194 181q-18 -86 -75 -134q-58 -49 -135 -73q-76 -25 -164 -30q-97 -5 -167 -5h-14q-18 0 -30 4q-15 5 -15 10v209q0 9 15 13q12 4 30 4h165q59 0 79 4q66 5 104 23q41 18 41 52q0 41 -47 88q-42 42 -108 92q-100 75 -120 91
q-61 47 -79 82q-17 25 -26 54q-9 30 -9 60q0 52 24 104q22 51 70 79q109 61 217 101q104 39 204 70q88 26 157 40q63 12 74 12q43 0 85 -21q42 -22 42 -69q0 -36 -19 -64q-19 -29 -72 -43q-144 -32 -275 -72q-145 -44 -261 -89q-14 -4 -22 -17q-7 -11 -7 -14q0 -17 19 -36
q19 -20 34 -30q115 -81 220 -174q102 -91 219 -201q131 -122 258 -122h18v-240h-20zM423 1205q-116 -39 -202 -72q-61 -24 -127 -53q-45 -21 -57 -21q-23 0 -37 18q-14 17 -14 39q0 19 12 40q13 21 37 32q49 27 116 57q52 22 132 52q75 26 134 45l122 36q60 16 95 24
q41 9 54 9q27 0 52 -13q24 -13 24 -46q0 -21 -14 -41q-15 -21 -45 -27q-167 -40 -282 -79zM388 -218q33 36 82 36q51 0 85 -36q34 -35 34 -85q0 -49 -34 -83t-85 -34q-47 0 -81 34q-35 35 -35 83q0 50 34 85zM104 -218q35 36 82 36q51 0 85 -36q34 -35 34 -87q0 -47 -34 -81
t-83 -34q-50 0 -84 34q-35 35 -35 81q0 50 35 87z" />
    <glyph glyph-name="uni06B2.fina" unicode="&#x6b2;" horiz-adv-x="1968" 
d="M1968 0q-64 0 -124 16q-65 15 -120 46q-56 29 -106 75q-51 46 -86 105q-32 -109 -119 -166q-90 -61 -202 -89q-112 -29 -240 -37q-118 -7 -234 -7q-171 0 -293 24q-120 22 -197 69q-78 47 -112 114q-35 68 -35 155q0 34 6 83t23 97q17 49 44 81q27 34 70 34q24 0 46 -16
t22 -52q-1 -44 -10 -91q-8 -43 -8 -89q0 -61 52 -95t124 -49q70 -15 145 -18q65 -4 115 -4q47 0 86 1q66 2 128 7q61 4 145 14q79 10 137 25q62 15 100 37q39 21 39 52q0 38 -48 84q-52 47 -112 93l-123 93q-58 45 -84 84q-31 44 -31 110q0 52 28 101q29 50 71 76
q80 47 191 91q110 43 206 72q116 33 176 47q79 17 98 17q56 0 87 -30q30 -30 30 -68q0 -31 -15 -55q-16 -24 -69 -38q-155 -35 -289 -79q-126 -42 -256 -82q-12 -5 -21 -14q-11 -11 -11 -21q0 -12 8 -23q7 -11 18 -22q74 -49 141 -100q59 -46 104 -87q53 -48 97 -92
q72 -72 119 -117q136 -122 260 -122h29v-240zM1403 1205q-134 -45 -203 -71q-59 -22 -127 -52q-45 -21 -58 -21q-22 0 -36 17q-15 17 -15 40q0 20 13 40q13 21 34 32q74 41 175 80q95 37 196 70q105 33 175 50q77 19 110 19q28 0 53 -13t25 -46q0 -21 -15 -39
q-17 -20 -47 -27q-164 -40 -280 -79zM898 -218q33 36 82 36q51 0 85 -36q34 -35 34 -85q0 -49 -34 -83t-85 -34q-47 0 -81 34q-35 35 -35 83q0 50 34 85zM614 -218q35 36 82 36q51 0 85 -36q34 -35 34 -87q0 -47 -34 -81t-83 -34q-50 0 -84 34q-35 35 -35 81q0 50 35 87z
" />
    <glyph glyph-name="uni06B4.init" unicode="&#x6b4;" horiz-adv-x="899" 
d="M-45 223q0 9 15 13q12 4 30 4h125l65 2q37 1 89 10q44 7 79 24q33 15 33 43q0 26 -23 57q-25 31 -61 63q-52 44 -80 64q-39 28 -82 63q-38 28 -71 58q-29 25 -41 50q-8 17 -22 53q-11 28 -11 59q0 54 21 103q19 48 69 80q71 44 175 85q88 35 203 71q89 26 184 49
q83 18 116 18q54 0 82 -28q29 -29 29 -68q0 -34 -19 -60q-18 -27 -67 -41q-127 -28 -268 -68q-128 -36 -279 -98q-27 -7 -27 -32q0 -21 21 -35q90 -69 160 -129q72 -65 106 -107q43 -52 61 -96q19 -45 19 -100q0 -115 -57 -181q-58 -67 -144 -100q-87 -34 -185 -41
q-107 -8 -184 -8h-16q-18 0 -30 4q-15 5 -15 10v209zM423 1205q-138 -47 -202 -71q-59 -22 -127 -52q-45 -21 -57 -21q-23 0 -37 17t-14 40q0 19 12 40q13 21 37 32q75 42 173 80q94 37 196 70q105 33 175 50q76 19 109 19q29 0 54 -13q24 -13 24 -46q0 -21 -15 -39
q-17 -20 -46 -27q-167 -40 -282 -79zM405 1651q35 33 81 33q51 0 85 -33q34 -34 34 -84t-34 -84q-34 -36 -85 -36q-49 0 -82 36q-34 34 -34 84q0 49 35 84zM120 1651q35 33 84 33t83 -33q33 -34 33 -82q0 -51 -33 -86q-34 -36 -85 -36q-47 0 -82 36q-35 35 -35 86
q0 47 35 82zM264 1896q35 34 83 34q50 0 84 -34q35 -35 35 -81q0 -50 -35 -87q-34 -36 -86 -36q-47 0 -82 36q-35 37 -35 87q0 47 36 81z" />
    <glyph glyph-name="uni06B4.medi" unicode="&#x6b4;" horiz-adv-x="985" 
d="M965 0q-112 0 -216 61q-105 59 -194 181q-18 -86 -75 -134q-58 -49 -135 -73q-76 -25 -164 -30q-97 -5 -167 -5h-14q-18 0 -30 4q-15 5 -15 10v209q0 9 15 13q12 4 30 4h165q59 0 79 4q66 5 104 23q41 18 41 52q0 41 -47 88q-42 42 -108 92q-100 75 -120 91
q-61 47 -79 82q-17 25 -26 54q-9 30 -9 60q0 52 24 104q22 51 70 79q109 61 217 101q104 39 204 70q88 26 157 40q63 12 74 12q43 0 85 -21q42 -22 42 -69q0 -36 -19 -64q-19 -29 -72 -43q-144 -32 -275 -72q-145 -44 -261 -89q-14 -4 -22 -17q-7 -11 -7 -14q0 -17 19 -36
q19 -20 34 -30q115 -81 220 -174q102 -91 219 -201q131 -122 258 -122h18v-240h-20zM423 1205q-116 -39 -202 -72q-61 -24 -127 -53q-45 -21 -57 -21q-23 0 -37 18q-14 17 -14 39q0 19 12 40q13 21 37 32q49 27 116 57q52 22 132 52q75 26 134 45l122 36q60 16 95 24
q41 9 54 9q27 0 52 -13q24 -13 24 -46q0 -21 -14 -41q-15 -21 -45 -27q-167 -40 -282 -79zM405 1651q35 33 81 33q51 0 85 -33q34 -34 34 -84t-34 -84q-34 -36 -85 -36q-49 0 -82 36q-34 34 -34 84q0 49 35 84zM120 1651q35 33 84 33t83 -33q33 -34 33 -82q0 -51 -33 -86
q-34 -36 -85 -36q-47 0 -82 36q-35 35 -35 86q0 47 35 82zM264 1896q35 34 83 34q50 0 84 -34q35 -35 35 -81q0 -50 -35 -87q-34 -36 -86 -36q-47 0 -82 36q-35 37 -35 87q0 47 36 81z" />
    <glyph glyph-name="uni06B4.fina" unicode="&#x6b4;" horiz-adv-x="1968" 
d="M1968 0q-64 0 -124 16q-65 15 -120 46q-56 29 -106 75q-51 46 -86 105q-32 -109 -119 -166q-90 -61 -202 -89q-112 -29 -240 -37q-118 -7 -234 -7q-171 0 -293 24q-120 22 -197 69q-78 47 -112 114q-35 68 -35 155q0 34 6 83t23 97q17 49 44 81q27 34 70 34q24 0 46 -16
t22 -52q-1 -44 -10 -91q-8 -43 -8 -89q0 -61 52 -95t124 -49q70 -15 145 -18q65 -4 115 -4q47 0 86 1q66 2 128 7q61 4 145 14q79 10 137 25q62 15 100 37q39 21 39 52q0 38 -48 84q-52 47 -112 93l-123 93q-58 45 -84 84q-31 44 -31 110q0 52 28 101q29 50 71 76
q80 47 191 91q110 43 206 72q116 33 176 47q79 17 98 17q56 0 87 -30q30 -30 30 -68q0 -31 -15 -55q-16 -24 -69 -38q-155 -35 -289 -79q-126 -42 -256 -82q-12 -5 -21 -14q-11 -11 -11 -21q0 -12 8 -23q7 -11 18 -22q74 -49 141 -100q59 -46 104 -87q53 -48 97 -92
q72 -72 119 -117q136 -122 260 -122h29v-240zM1403 1205q-134 -45 -203 -71q-59 -22 -127 -52q-45 -21 -58 -21q-22 0 -36 17q-15 17 -15 40q0 20 13 40q13 21 34 32q74 41 175 80q95 37 196 70q105 33 175 50q77 19 110 19q28 0 53 -13t25 -46q0 -21 -15 -39
q-17 -20 -47 -27q-164 -40 -280 -79zM1399 1651q35 33 81 33q51 0 85 -33q34 -34 34 -84t-34 -84q-34 -36 -85 -36q-49 0 -82 36q-34 34 -34 84q0 49 35 84zM1114 1651q35 33 84 33t83 -33q33 -34 33 -82q0 -51 -33 -86q-34 -36 -85 -36q-47 0 -82 36q-35 35 -35 86
q0 47 35 82zM1258 1896q35 34 83 34q50 0 84 -34q35 -35 35 -81q0 -50 -35 -87q-34 -36 -86 -36q-47 0 -82 36q-35 37 -35 87q0 47 36 81z" />
    <glyph glyph-name="uni06B5.init" unicode="&#x6b5;" horiz-adv-x="493" 
d="M-45 223q0 9 15 13q12 4 30 4h41q94 0 122 37q28 35 28 114q0 208 -4 373q-5 207 -5 387q0 54 31 82q32 29 66 29q37 0 71 -33q35 -33 35 -94v-699q0 -84 -9 -162q-9 -80 -40 -139q-31 -61 -89 -98t-157 -37h-90q-18 0 -30 4q-15 5 -15 10v209zM168 1494q-16 25 -43 57
q-22 25 -47 43q-33 24 -33 36q0 11 12 20q13 8 38 8q18 0 47 -17q26 -16 53 -43q25 -25 47 -55q21 -32 25 -56q0 12 9 28q7 15 23 36q11 16 33 38q12 13 38 35q17 13 39 25q20 9 35 9q22 0 35 -6q14 -8 14 -19q0 -16 -37 -41q-22 -16 -45 -42q-19 -22 -42 -55
q-21 -31 -34 -58q-14 -30 -17 -49q-3 -26 -49 -26q-44 0 -49 26q-4 15 -19 47q-14 30 -33 59z" />
    <glyph glyph-name="uni06B5.medi" unicode="&#x6b5;" horiz-adv-x="571" 
d="M555 0q-100 0 -168 39t-84 88q-34 -63 -99 -95q-66 -32 -163 -32h-41q-18 0 -30 4q-15 5 -15 10v209q0 9 15 13q12 4 30 4h41q47 0 77 12q29 12 46 35t21 53q5 35 5 68q-1 183 -5 419q-3 183 -3 330q0 40 29 72q28 31 65 31q40 0 74 -31q35 -32 35 -90v-643
q0 -119 41 -187q41 -69 129 -69h16v-240h-16zM178 1494q-16 25 -43 57q-22 25 -47 43q-33 24 -33 36q0 11 12 20q13 8 38 8q18 0 47 -17q26 -16 53 -43q25 -25 47 -55q21 -32 25 -56q0 12 9 28q7 15 23 36q11 16 33 38q12 13 38 35q17 13 39 25q20 9 35 9q22 0 35 -6
q14 -8 14 -19q0 -16 -37 -41q-22 -16 -45 -42q-19 -22 -42 -55q-21 -31 -34 -58q-14 -30 -17 -49q-3 -26 -49 -26q-44 0 -49 26q-4 15 -19 47q-14 30 -33 59z" />
    <glyph glyph-name="uni06B5.fina" unicode="&#x6b5;" horiz-adv-x="1185" 
d="M1185 0q-46 0 -87 26q-40 25 -58 60q-6 -122 -39 -223t-94 -171q-62 -71 -154 -109q-93 -38 -217 -38q-111 0 -194 36q-81 35 -136 98q-54 60 -80 142q-26 83 -26 171q0 30 5 88q5 53 21 102q15 50 43 85q27 36 72 36q26 0 52 -17q24 -18 24 -59q0 -50 -11 -105t-11 -104
q0 -40 12 -81t43 -75t85 -55q53 -22 138 -22q135 0 216 84t81 219q0 277 -13 536q-15 289 -16 535q0 49 38 75t69 26q35 0 66 -31q30 -31 30 -94v-631q0 -110 36 -187t105 -77v-240zM838 1494q-16 25 -43 57q-22 25 -47 43q-33 24 -33 36q0 11 12 20q13 8 38 8q18 0 47 -17
q26 -16 53 -43q25 -25 47 -55q21 -32 25 -56q0 12 9 28q7 15 23 36q11 16 33 38q12 13 38 35q17 13 39 25q20 9 35 9q22 0 35 -6q14 -8 14 -19q0 -16 -37 -41q-22 -16 -45 -42q-19 -22 -42 -55q-21 -31 -34 -58q-14 -30 -17 -49q-3 -26 -49 -26q-44 0 -49 26q-4 15 -19 47
q-14 30 -33 59z" />
    <glyph glyph-name="uni06B6.init" unicode="&#x6b6;" horiz-adv-x="485" 
d="M-45 223q0 9 15 13q12 4 30 4h41q94 0 122 37q28 35 28 114q0 208 -4 373q-5 207 -5 387q0 54 31 82q32 29 66 29q37 0 71 -33q35 -33 35 -94v-699q0 -84 -9 -162q-9 -80 -40 -139q-31 -61 -89 -98t-157 -37h-90q-18 0 -30 4q-15 5 -15 10v209zM176 1556q35 34 83 34
q50 0 84 -34q35 -35 35 -81q0 -50 -35 -87q-34 -36 -86 -36q-47 0 -82 36q-35 37 -35 87q0 47 36 81z" />
    <glyph glyph-name="uni06B6.medi" unicode="&#x6b6;" horiz-adv-x="571" 
d="M555 0q-100 0 -168 39t-84 88q-34 -63 -99 -95q-66 -32 -163 -32h-41q-18 0 -30 4q-15 5 -15 10v209q0 9 15 13q12 4 30 4h41q47 0 77 12q29 12 46 35t21 53q5 35 5 68q-1 183 -5 419q-3 183 -3 330q0 40 29 72q28 31 65 31q40 0 74 -31q35 -32 35 -90v-643
q0 -119 41 -187q41 -69 129 -69h16v-240h-16zM206 1556q35 34 83 34q50 0 84 -34q35 -35 35 -81q0 -50 -35 -87q-34 -36 -86 -36q-47 0 -82 36q-35 37 -35 87q0 47 36 81z" />
    <glyph glyph-name="uni06B6.fina" unicode="&#x6b6;" horiz-adv-x="1185" 
d="M1185 0q-46 0 -87 26q-40 25 -58 60q-6 -122 -39 -223t-94 -171q-62 -71 -154 -109q-93 -38 -217 -38q-111 0 -194 36q-81 35 -136 98q-54 60 -80 142q-26 83 -26 171q0 30 5 88q5 53 21 102q15 50 43 85q27 36 72 36q26 0 52 -17q24 -18 24 -59q0 -50 -11 -105t-11 -104
q0 -40 12 -81t43 -75t85 -55q53 -22 138 -22q135 0 216 84t81 219q0 277 -13 536q-15 289 -16 535q0 49 38 75t69 26q35 0 66 -31q30 -31 30 -94v-631q0 -110 36 -187t105 -77v-240zM870 1556q35 34 83 34q50 0 84 -34q35 -35 35 -81q0 -50 -35 -87q-34 -36 -86 -36
q-47 0 -82 36q-35 37 -35 87q0 47 36 81z" />
    <glyph glyph-name="uni06B7.init" unicode="&#x6b7;" horiz-adv-x="485" 
d="M-45 223q0 9 15 13q12 4 30 4h41q94 0 122 37q28 35 28 114q0 208 -4 373q-5 207 -5 387q0 54 31 82q32 29 66 29q37 0 71 -33q35 -33 35 -94v-699q0 -84 -9 -162q-9 -80 -40 -139q-31 -61 -89 -98t-157 -37h-90q-18 0 -30 4q-15 5 -15 10v209zM317 1556q35 33 81 33
q51 0 85 -33q34 -34 34 -84t-34 -84q-34 -36 -85 -36q-49 0 -82 36q-34 34 -34 84q0 49 35 84zM32 1556q35 33 84 33t83 -33q33 -34 33 -82q0 -51 -33 -86q-34 -36 -85 -36q-47 0 -82 36q-35 35 -35 86q0 47 35 82zM176 1801q35 34 83 34q50 0 84 -34q35 -35 35 -81
q0 -50 -35 -87q-34 -36 -86 -36q-47 0 -82 36q-35 37 -35 87q0 47 36 81z" />
    <glyph glyph-name="uni06B7.medi" unicode="&#x6b7;" horiz-adv-x="571" 
d="M555 0q-100 0 -168 39t-84 88q-34 -63 -99 -95q-66 -32 -163 -32h-41q-18 0 -30 4q-15 5 -15 10v209q0 9 15 13q12 4 30 4h41q47 0 77 12q29 12 46 35t21 53q5 35 5 68q-1 183 -5 419q-3 183 -3 330q0 40 29 72q28 31 65 31q40 0 74 -31q35 -32 35 -90v-643
q0 -119 41 -187q41 -69 129 -69h16v-240h-16zM347 1556q35 33 81 33q51 0 85 -33q34 -34 34 -84t-34 -84q-34 -36 -85 -36q-49 0 -82 36q-34 34 -34 84q0 49 35 84zM62 1556q35 33 84 33t83 -33q33 -34 33 -82q0 -51 -33 -86q-34 -36 -85 -36q-47 0 -82 36q-35 35 -35 86
q0 47 35 82zM206 1801q35 34 83 34q50 0 84 -34q35 -35 35 -81q0 -50 -35 -87q-34 -36 -86 -36q-47 0 -82 36q-35 37 -35 87q0 47 36 81z" />
    <glyph glyph-name="uni06B7.fina" unicode="&#x6b7;" horiz-adv-x="1185" 
d="M1185 0q-46 0 -87 26q-40 25 -58 60q-6 -122 -39 -223t-94 -171q-62 -71 -154 -109q-93 -38 -217 -38q-111 0 -194 36q-81 35 -136 98q-54 60 -80 142q-26 83 -26 171q0 30 5 88q5 53 21 102q15 50 43 85q27 36 72 36q26 0 52 -17q24 -18 24 -59q0 -50 -11 -105t-11 -104
q0 -40 12 -81t43 -75t85 -55q53 -22 138 -22q135 0 216 84t81 219q0 277 -13 536q-15 289 -16 535q0 49 38 75t69 26q35 0 66 -31q30 -31 30 -94v-631q0 -110 36 -187t105 -77v-240zM1011 1556q35 33 81 33q51 0 85 -33q34 -34 34 -84t-34 -84q-34 -36 -85 -36q-49 0 -82 36
q-34 34 -34 84q0 49 35 84zM726 1556q35 33 84 33t83 -33q33 -34 33 -82q0 -51 -33 -86q-34 -36 -85 -36q-47 0 -82 36q-35 35 -35 86q0 47 35 82zM870 1801q35 34 83 34q50 0 84 -34q35 -35 35 -81q0 -50 -35 -87q-34 -36 -86 -36q-47 0 -82 36q-35 37 -35 87q0 47 36 81z
" />
    <glyph glyph-name="uni06B8.init" unicode="&#x6b8;" horiz-adv-x="485" 
d="M-45 223q0 9 15 13q12 4 30 4h41q94 0 122 37q28 35 28 114q0 208 -4 373q-5 207 -5 387q0 54 31 82q32 29 66 29q37 0 71 -33q35 -33 35 -94v-699q0 -84 -9 -162q-9 -80 -40 -139q-31 -61 -89 -98t-157 -37h-90q-18 0 -30 4q-15 5 -15 10v209zM248 -218q33 36 82 36
q51 0 85 -36q34 -35 34 -85q0 -49 -34 -83t-85 -34q-47 0 -81 34q-35 35 -35 83q0 50 34 85zM-36 -218q35 36 82 36q51 0 85 -36q34 -35 34 -87q0 -47 -34 -81t-83 -34q-50 0 -84 34q-35 35 -35 81q0 50 35 87zM107 -464q35 36 82 36q52 0 86 -36q35 -37 35 -87
q0 -46 -35 -81q-34 -34 -84 -34q-48 0 -83 34q-36 35 -36 81q0 50 35 87z" />
    <glyph glyph-name="uni06B8.medi" unicode="&#x6b8;" horiz-adv-x="571" 
d="M555 0q-100 0 -168 39t-84 88q-34 -63 -99 -95q-66 -32 -163 -32h-41q-18 0 -30 4q-15 5 -15 10v209q0 9 15 13q12 4 30 4h41q47 0 77 12q29 12 46 35t21 53q5 35 5 68q-1 183 -5 419q-3 183 -3 330q0 40 29 72q28 31 65 31q40 0 74 -31q35 -32 35 -90v-643
q0 -119 41 -187q41 -69 129 -69h16v-240h-16zM318 -218q33 36 82 36q51 0 85 -36q34 -35 34 -85q0 -49 -34 -83t-85 -34q-47 0 -81 34q-35 35 -35 83q0 50 34 85zM34 -218q35 36 82 36q51 0 85 -36q34 -35 34 -87q0 -47 -34 -81t-83 -34q-50 0 -84 34q-35 35 -35 81
q0 50 35 87zM177 -464q35 36 82 36q52 0 86 -36q35 -37 35 -87q0 -46 -35 -81q-34 -34 -84 -34q-48 0 -83 34q-36 35 -36 81q0 50 35 87z" />
    <glyph glyph-name="uni06B8.fina" unicode="&#x6b8;" horiz-adv-x="1185" 
d="M1185 0q-46 0 -87 26q-40 25 -58 60q-6 -122 -39 -223t-94 -171q-62 -71 -154 -109q-93 -38 -217 -38q-111 0 -194 36q-81 35 -136 98q-54 60 -80 142q-26 83 -26 171q0 30 5 88q5 53 21 102q15 50 43 85q27 36 72 36q26 0 52 -17q24 -18 24 -59q0 -50 -11 -105t-11 -104
q0 -40 12 -81t43 -75t85 -55q53 -22 138 -22q135 0 216 84t81 219q0 277 -13 536q-15 289 -16 535q0 49 38 75t69 26q35 0 66 -31q30 -31 30 -94v-631q0 -110 36 -187t105 -77v-240zM614 -589q33 36 82 36q51 0 85 -36q34 -35 34 -85q0 -49 -34 -83t-85 -34q-47 0 -81 34
q-35 35 -35 83q0 50 34 85zM330 -589q35 36 82 36q51 0 85 -36q34 -35 34 -87q0 -47 -34 -81t-83 -34q-50 0 -84 34q-35 35 -35 81q0 50 35 87zM473 -835q35 36 82 36q52 0 86 -36q35 -37 35 -87q0 -46 -35 -81q-34 -34 -84 -34q-48 0 -83 34q-36 35 -36 81q0 50 35 87z" />
    <glyph glyph-name="uni06B9.init" unicode="&#x6b9;" horiz-adv-x="484" 
d="M-45 223q0 9 15 13q12 4 30 4h53q81 0 115 27q35 26 35 73q0 48 -19 87q-20 42 -20 83q0 49 29 84t75 35q133 0 136 -256q0 -97 -30 -166q-30 -70 -79 -116q-48 -45 -113 -68q-66 -23 -135 -23h-47q-18 0 -30 4q-15 5 -15 10v209zM177 976q35 34 83 34q50 0 84 -34
q35 -35 35 -81q0 -50 -35 -87q-34 -36 -86 -36q-47 0 -82 36q-35 37 -35 87q0 47 36 81zM177 -238q35 33 83 33q50 0 84 -33q34 -34 34 -81q0 -53 -34 -87q-34 -36 -86 -36q-47 0 -82 36q-35 35 -35 87q0 47 36 81z" />
    <glyph glyph-name="uni06B9.medi" unicode="&#x6b9;" horiz-adv-x="674" 
d="M238 841q35 33 83 33q50 0 84 -33q34 -34 34 -81q0 -52 -34 -87q-34 -36 -86 -36q-47 0 -82 36q-35 37 -35 87q0 47 36 81zM238 -238q35 33 83 33q50 0 84 -33q34 -34 34 -81q0 -53 -34 -87q-34 -36 -86 -36q-47 0 -82 36q-35 35 -35 87q0 47 36 81zM30 240q78 0 136 33
q57 31 71 104q8 51 33 75q25 23 53 23t52 -24q23 -26 30 -74q7 -66 55 -101q47 -36 137 -36h77v-240h-77q-226 0 -276 125q-34 -56 -109 -91q-73 -33 -169 -34h-43q-18 0 -30 4q-15 5 -15 10v209q0 9 15 13q12 4 30 4h30z" />
    <glyph glyph-name="uni06B9.fina" unicode="&#x6b9;" horiz-adv-x="1331" 
d="M1323 0q-98 0 -142 43q-5 -130 -35 -241q-31 -115 -103 -207q-70 -90 -185 -145q-115 -54 -283 -54q-140 0 -232 47q-89 45 -145 118q-55 70 -76 151q-22 79 -22 149q0 54 4 109q5 65 20 115q15 54 46 91q30 37 84 37q26 0 43 -17q16 -17 16 -55q0 -55 -6 -108
q-6 -52 -6 -70q0 -61 14 -120q14 -58 51 -102q38 -43 102 -69q66 -26 167 -26q171 0 265 97q95 98 95 267q0 45 -12 88q-13 44 -27 81l-26 71q-13 32 -13 57q0 41 28 72q27 31 66 31q25 0 43 -7t41 -36q54 -63 111 -95q56 -32 125 -32v-240h-8zM503 614q35 33 82 33
q51 0 85 -33q34 -34 34 -82q0 -52 -34 -86q-34 -36 -87 -36q-46 0 -81 36q-35 35 -35 86q0 48 36 82zM503 -794q36 33 83 33q50 0 84 -33q35 -35 35 -81q0 -50 -35 -87q-34 -36 -86 -36q-47 0 -82 36q-35 37 -35 87q0 47 36 81z" />
    <glyph glyph-name="uni06BC.init" unicode="&#x6bc;" horiz-adv-x="518" 
d="M176 976q34 34 81 34q51 0 85 -34t34 -83q0 -50 -34 -85q-34 -36 -85 -36q-49 0 -82 36q-34 35 -34 85q0 48 35 83zM165 0q-6 -10 -16 -32q-7 -18 -12 -36q-5 -22 -5 -35q0 -22 11 -38q10 -16 44 -16q58 0 86 17q26 17 26 43q0 29 -31 63q-32 33 -86 56q-7 -7 -17 -22z
M46 0h-46q-18 0 -30 4q-15 5 -15 10v209q0 9 15 13q12 4 30 4h53q81 0 115 27q35 26 35 73q0 48 -19 87q-20 42 -20 83q0 49 29 84t75 35q133 0 136 -256q0 -97 -30 -166q-22 -52 -56 -92q38 -36 64 -81q28 -49 28 -99q0 -47 -18 -86q-18 -40 -48 -69q-30 -28 -69 -45
q-39 -16 -83 -16q-34 0 -63 7q-36 8 -58 23q-25 17 -42 42q-17 26 -17 65q0 55 20 110z" />
    <glyph glyph-name="uni06BC.medi" unicode="&#x6bc;" horiz-adv-x="774" 
d="M336 841q35 33 84 33t83 -33q34 -34 34 -81q0 -52 -34 -87q-34 -36 -85 -36q-47 0 -82 36q-35 37 -35 87q0 46 35 81zM165 -20q-6 -10 -16 -32q-7 -18 -12 -36q-5 -22 -5 -35q0 -22 11 -38q10 -16 44 -16q58 0 86 17q26 17 26 43q0 29 -31 63q-32 33 -86 56
q-7 -7 -17 -22zM0 0q-18 0 -30 4q-15 5 -15 10v209q0 9 15 13q12 4 30 4h130q78 0 136 33q57 31 71 104q8 51 33 75q25 23 53 23t52 -24q23 -26 30 -74q7 -66 55 -101q47 -36 137 -36h77v-240h-77q-226 0 -276 125q-23 -38 -68 -68q14 -17 29 -43q28 -49 28 -99
q0 -47 -18 -86q-18 -40 -48 -69q-30 -28 -69 -45q-39 -16 -83 -16q-34 0 -63 7q-36 8 -58 23q-25 17 -42 42q-17 26 -17 65q0 55 20 110q11 29 24 54h-56z" />
    <glyph glyph-name="uni06BC.fina" unicode="&#x6bc;" horiz-adv-x="1331" 
d="M503 614q35 33 82 33q51 0 85 -33q34 -34 34 -82q0 -52 -34 -86q-34 -36 -87 -36q-46 0 -81 36q-35 35 -35 86q0 48 36 82zM562 -619q-6 -10 -16 -32q-7 -18 -12 -36q-5 -22 -5 -35q0 -22 11 -38q10 -16 44 -16q58 0 86 17q26 17 26 43q0 29 -31 63q-32 33 -86 56
q-7 -7 -17 -22zM343 -557q-89 45 -145 118q-55 70 -76 151q-22 79 -22 149q0 54 4 109q5 65 20 115q15 54 46 91q30 37 84 37q26 0 43 -17q16 -17 16 -55q0 -55 -6 -108q-6 -52 -6 -70q0 -61 14 -120q14 -58 51 -102q38 -43 102 -69q66 -26 167 -26q171 0 265 97
q95 98 95 267q0 45 -12 88q-13 44 -27 81l-26 71q-13 32 -13 57q0 41 28 72q27 31 66 31q25 0 43 -7t41 -36q54 -63 111 -95q56 -32 125 -32v-240h-8q-98 0 -142 43q-5 -130 -35 -241q-31 -115 -103 -207q-70 -90 -185 -145q-36 -17 -82 -30l3 -5q28 -49 28 -99
q0 -47 -18 -86q-18 -40 -48 -69q-30 -28 -69 -45q-39 -16 -83 -16q-34 0 -63 7q-36 8 -58 23q-25 17 -42 42q-17 26 -17 65q0 55 20 110q11 28 27 59q-64 12 -113 37z" />
    <glyph glyph-name="uni06BD.init" unicode="&#x6bd;" horiz-adv-x="518" 
d="M-45 223q0 9 15 13q12 4 30 4h53q81 0 115 27q35 26 35 73q0 48 -19 87q-20 42 -20 83q0 49 29 84t75 35q133 0 136 -256q0 -97 -30 -166q-30 -70 -79 -116q-48 -45 -113 -68q-66 -23 -135 -23h-47q-18 0 -30 4q-15 5 -15 10v209zM318 976q34 34 81 34q51 0 85 -34
t34 -83q0 -50 -34 -85q-34 -36 -85 -36q-49 0 -82 36q-34 35 -34 85q0 48 35 83zM33 976q34 34 84 34q49 0 83 -34t34 -81q0 -52 -34 -87q-34 -36 -85 -36q-47 0 -82 36q-35 37 -35 87q0 46 35 81zM177 1222q36 33 83 33q50 0 84 -33q35 -35 35 -81q0 -50 -35 -87
q-34 -36 -86 -36q-47 0 -82 36q-35 37 -35 87q0 47 36 81z" />
    <glyph glyph-name="uni06BD.medi" unicode="&#x6bd;" horiz-adv-x="674" 
d="M378 841q35 33 82 33q50 0 84 -33q35 -35 35 -83t-35 -85q-34 -36 -84 -36q-48 0 -83 36q-34 35 -34 85q0 48 35 83zM93 841q35 33 84 33t83 -33q34 -34 34 -81q0 -52 -34 -87q-34 -36 -85 -36q-47 0 -82 36q-35 37 -35 87q0 46 35 81zM238 1087q35 33 83 33q50 0 84 -33
q34 -34 34 -81q0 -53 -34 -87q-34 -36 -86 -36q-47 0 -82 36q-35 35 -35 87q0 47 36 81zM30 240q78 0 136 33q57 31 71 104q8 51 33 75q25 23 53 23t52 -24q23 -26 30 -74q7 -66 55 -101q47 -36 137 -36h77v-240h-77q-226 0 -276 125q-34 -56 -109 -91q-73 -33 -169 -34h-43
q-18 0 -30 4q-15 5 -15 10v209q0 9 15 13q12 4 30 4h30z" />
    <glyph glyph-name="uni06BD.fina" unicode="&#x6bd;" horiz-adv-x="1331" 
d="M1323 0q-98 0 -142 43q-5 -130 -35 -241q-31 -115 -103 -207q-70 -90 -185 -145q-115 -54 -283 -54q-140 0 -232 47q-89 45 -145 118q-55 70 -76 151q-22 79 -22 149q0 54 4 109q5 65 20 115q15 54 46 91q30 37 84 37q26 0 43 -17q16 -17 16 -55q0 -55 -6 -108
q-6 -52 -6 -70q0 -61 14 -120q14 -58 51 -102q38 -43 102 -69q66 -26 167 -26q171 0 265 97q95 98 95 267q0 45 -12 88q-13 44 -27 81l-26 71q-13 32 -13 57q0 41 28 72q27 31 66 31q25 0 43 -7t41 -36q54 -63 111 -95q56 -32 125 -32v-240h-8zM650 603q34 34 81 34
q51 0 85 -34t34 -83q0 -50 -34 -85q-34 -36 -85 -36q-49 0 -82 36q-34 35 -34 85q0 48 35 83zM365 603q34 34 84 34q49 0 83 -34t34 -81q0 -52 -34 -87q-34 -36 -85 -36q-47 0 -82 36q-35 37 -35 87q0 46 35 81zM509 849q36 33 83 33q50 0 84 -33q35 -35 35 -81
q0 -50 -35 -87q-34 -36 -86 -36q-47 0 -82 36q-35 37 -35 87q0 47 36 81z" />
    <glyph glyph-name="uni06BF.init" unicode="&#x6bf;" horiz-adv-x="1192" 
d="M622 -218q33 36 83 36t84 -36q34 -35 34 -85q0 -49 -34 -83t-84 -34q-48 0 -82 34q-35 35 -35 83q0 50 34 85zM338 -218q35 36 82 36q51 0 85 -36q34 -35 34 -87q0 -47 -34 -81t-83 -34q-50 0 -84 34q-35 35 -35 81q0 50 35 87zM481 -464q35 36 82 36q52 0 86 -36
q35 -37 35 -87q0 -46 -35 -81q-34 -34 -84 -34q-48 0 -83 34q-36 35 -36 81q0 50 35 87zM166 240q78 0 147 15q72 16 134 40q57 21 129 53q78 35 129 55q-193 57 -220 64q-81 22 -104 22q-26 0 -45 -10q-21 -10 -39 -21q-16 -11 -37 -22q-19 -10 -43 -10q-45 0 -62 23
q-18 23 -18 53q0 47 22 87q20 39 56 70q37 30 78 46q42 16 86 16q53 0 125 -22l159 -50q68 -23 175 -53q87 -25 176 -31q34 -5 53 -21q20 -18 30 -40q9 -22 12 -43t3 -27q0 -13 -2 -35q-1 -17 -11 -33q-8 -15 -28 -29q-18 -12 -55 -22q-97 -23 -168 -52q-76 -31 -137 -63
q-82 -44 -124 -68q-57 -32 -128 -62q-36 -16 -80 -32q-39 -14 -77 -21q-37 -8 -88 -13q-43 -4 -114 -4h-100q-18 0 -30 4q-15 5 -15 10v209q0 9 15 13q12 4 30 4h166zM482 1060q35 34 83 34q50 0 84 -34q35 -35 35 -81q0 -50 -35 -87q-34 -36 -86 -36q-47 0 -82 36
q-35 37 -35 87q0 47 36 81z" />
    <glyph glyph-name="uni06BF.medi" unicode="&#x6bf;" horiz-adv-x="1266" 
d="M1049 0q-245 0 -246 301q-97 -62 -163 -114q-74 -59 -137 -97q-70 -42 -136 -65q-69 -25 -158 -25h-209q-18 0 -30 4q-15 5 -15 10v209q0 9 15 13q12 4 30 4h158q65 0 129 14q60 13 121 39q59 24 120 57q63 35 121 70l-99 18q-58 11 -78 14q-71 11 -91 11q-32 0 -53 -10
q-9 -4 -42 -22q-19 -10 -36 -21t-33 -11q-47 0 -64 24q-18 23 -18 50q0 52 24 92q23 41 60 71q38 30 82 45q45 15 90 15q51 0 127 -15q61 -12 162 -35q93 -23 173 -38q84 -17 163 -22q60 -4 89 -27q28 -24 28 -53q0 -74 -33 -100q-31 -25 -180 -66q24 -100 163 -100h183
v-240h-217zM711 -218q33 36 83 36t84 -36q34 -35 34 -85q0 -49 -34 -83t-84 -34q-48 0 -82 34q-35 35 -35 83q0 50 34 85zM427 -218q35 36 82 36q51 0 85 -36q34 -35 34 -87q0 -47 -34 -81t-83 -34q-50 0 -84 34q-35 35 -35 81q0 50 35 87zM571 -464q35 36 81 36
q52 0 86 -36q35 -37 35 -87q0 -46 -35 -81q-34 -34 -84 -34q-48 0 -82 34q-36 35 -36 81q0 50 35 87zM612 1023q34 34 82 34q50 0 84 -34q35 -35 35 -81q0 -50 -35 -87q-34 -36 -86 -36q-46 0 -81 36q-35 37 -35 87q0 47 36 81z" />
    <glyph glyph-name="uni06BF.fina" unicode="&#x6bf;" horiz-adv-x="1257" 
d="M1026 0q-66 0 -110 27q-44 26 -71 69q-27 41 -41 97q-15 57 -16 106q-82 -33 -171 -83q-83 -46 -151 -107q-67 -60 -109 -130t-42 -149q0 -102 35 -174q34 -69 96 -110q58 -39 142 -56q79 -16 176 -16q148 0 248 21q103 20 143 20q27 0 43 -10q15 -9 26 -27q8 -14 13 -35
q4 -16 4 -37q0 -49 -56 -82q-56 -32 -139 -52q-87 -21 -173 -29q-91 -9 -161 -9q-125 0 -233 28q-109 27 -196 92q-84 64 -134 169q-49 102 -49 258q0 116 45 213q45 99 118 177q71 77 165 140q94 61 186 101q-97 7 -139 8l-80 2q-32 0 -54 -13q-24 -13 -45 -30
q-27 -20 -44 -30q-22 -13 -52 -13q-34 0 -57 24q-23 23 -23 54q0 37 22 80q20 41 54 80q31 34 74 61q41 24 82 24q51 0 87 -3q24 -2 70 -8l70 -10l88 -10q61 -5 125 -8q65 -4 180 -4q73 0 118 -19q46 -19 46 -97q0 -41 -20 -67q-22 -28 -51 -44q-34 -19 -70 -29
q-45 -14 -76 -20q15 -100 139 -100h199v-240h-231zM730 -19q35 35 83 35q49 0 84 -35q34 -35 34 -85t-34 -83q-34 -34 -84 -34q-48 0 -82 34q-35 33 -35 83t34 85zM446 -19q35 35 82 35q50 0 85 -35q34 -35 34 -87q0 -48 -34 -81q-34 -34 -83 -34q-50 0 -84 34
q-35 33 -35 81q0 50 35 87zM590 -265q35 36 81 36q53 0 87 -36q34 -35 34 -87q0 -47 -34 -81t-85 -34q-48 0 -82 34q-36 35 -36 81q0 50 35 87zM591 1023q34 34 82 34q51 0 85 -34t34 -81q0 -52 -34 -87q-34 -36 -87 -36q-46 0 -81 36q-35 37 -35 87q0 47 36 81z" />
    </font>
</defs>
</svg>
