<?xml version="1.0" standalone="no"?>
<!DOCTYPE svg PUBLIC "-//W3C//DTD SVG 1.1//EN" "http://www.w3.org/Graphics/SVG/1.1/DTD/svg11.dtd" >
<svg xmlns="http://www.w3.org/2000/svg" xmlns:xlink="http://www.w3.org/1999/xlink" version="1.1">
<metadata>
Created by FontForge 20170731 at Mon Oct 17 00:46:48 2016
 By Aleksey,,,
(c) 2015 Bahij Virtual Academy. All Rights Reserved.
</metadata>
<defs>
<font id="BahijKoodak-Bold" horiz-adv-x="0" >
  <font-face 
    font-family="Bahij Koodak"
    font-weight="700"
    font-stretch="normal"
    units-per-em="2048"
    panose-1="2 4 7 3 6 2 1 2 2 3"
    ascent="1638"
    descent="-410"
    x-height="854"
    cap-height="1269"
    bbox="-275.714 -1471 4877 2195"
    underline-thickness="50"
    underline-position="-150"
    unicode-range="U+0020-FEFC"
  />
<missing-glyph horiz-adv-x="728" 
d="M0 0v1020h728v-1020h-728zM117 947l247 -372l248 372h-495zM655 881l-247 -371l247 -372v743zM612 73l-248 371l-247 -371h495zM73 138l247 372l-247 371v-743z" />
    <glyph glyph-name="uniFB01" unicode="fi" horiz-adv-x="1150" 
d="M759 1170q0 62 46 105q44 43 109 43q64 0 110 -43t46 -105q0 -63 -46 -106q-47 -44 -110 -44t-109 44q-46 43 -46 106zM786 653h-338v-549q0 -47 -37 -80t-91 -33q-51 0 -88 34q-39 35 -40 79v549h-80q-39 1 -65 31q-27 29 -27 69q0 42 27 72q26 29 65 29h80v58
q0 199 96 302q96 104 279 104h4q49 0 80 -33q31 -34 31 -84q0 -46 -32 -81q-31 -34 -79 -36h-4q-119 0 -119 -162v-68h466q54 0 91 -33t37 -80v-637q0 -47 -37 -80t-91 -33q-51 0 -88 34q-39 35 -40 79v549z" />
    <glyph glyph-name="uniFB02" unicode="fl" horiz-adv-x="1125" 
d="M759 1048q0 49 -154 49q-157 0 -157 -175v-68h88q38 0 65 -29q26 -31 26 -72q0 -40 -26 -69q-28 -30 -65 -31h-88v-549q0 -47 -37 -80t-91 -33q-51 0 -88 34q-39 35 -40 79v549h-80q-39 1 -65 31q-27 29 -27 69q0 42 27 72q26 29 65 29h80v58q0 199 103 302
q102 104 301 104q118 0 205 -14q83 -15 125 -32q41 -18 62 -50q21 -31 24 -51q3 -19 3 -52v-1015q0 -47 -37 -80t-91 -33q-51 0 -88 34q-39 35 -40 79v944z" />
    <glyph glyph-name="uniFC31" unicode="&#xfed3;&#xfef0;" horiz-adv-x="1952" arabic-form="isolated" 
d="M1538 535q45 0 75 14q28 13 28 45q0 19 -9 38q-10 20 -24 36q-13 17 -30 27q-16 10 -32 10q-35 0 -57 -28q-24 -28 -24 -69q0 -73 73 -73zM1638 1102q-43 -41 -102 -41q-57 0 -98 41t-41 100q0 60 41 101q40 40 98 40q61 0 102 -40q42 -40 42 -101q0 -59 -42 -100zM885 0
l75 -18q18 -4 74 -19q39 -12 72 -34q32 -21 56 -59q21 -36 21 -93q0 -95 -53 -169q-54 -73 -136 -121t-184 -72q-100 -25 -196 -25q-121 0 -214 34q-95 33 -162 98q-68 65 -102 155q-36 90 -36 204q0 49 7 105q8 60 27 112q20 53 53 89t87 36q47 0 80 -27q32 -29 32 -77
q0 -59 -19 -112q-20 -55 -20 -107q0 -117 75 -177q74 -61 222 -61q18 0 58 4q46 5 92 12q57 9 85 17q38 11 38 22q0 9 -68 27q-58 19 -88 32q-38 15 -64 36q-27 20 -40 50q-15 29 -15 75q0 100 39 169q40 69 103 110q62 41 144 61q81 18 167 18h359q28 0 47 3q20 3 38 10
q31 13 46 20q-93 0 -153 20t-94 52t-48 75q-14 45 -14 90q0 62 20 130q21 69 56 118q38 54 89 87q52 34 118 34q92 0 153 -51q60 -53 96 -127q36 -79 50 -164q14 -92 14 -162q0 -430 -522 -430h-465z" />
    <glyph glyph-name="uniFC32" unicode="&#xfed3;&#xfef2;" horiz-adv-x="1952" arabic-form="isolated" 
d="M595 -959q-40 -40 -94 -40q-53 0 -93 40q-40 39 -40 95q0 55 40 94q41 39 93 39q56 0 95 -39t39 -94q0 -56 -40 -95zM896 -959q-40 -40 -94 -40q-53 0 -93 40q-40 39 -40 95q0 55 40 94q41 39 93 39q56 0 95 -39t39 -94q0 -56 -40 -95zM1538 535q45 0 75 14q28 13 28 45
q0 19 -9 38q-10 20 -24 36q-13 17 -30 27q-16 10 -32 10q-35 0 -57 -28q-24 -28 -24 -69q0 -73 73 -73zM1638 1102q-43 -41 -102 -41q-57 0 -98 41t-41 100q0 60 41 101q40 40 98 40q61 0 102 -40q42 -40 42 -101q0 -59 -42 -100zM885 0l75 -18q18 -4 74 -19q39 -12 72 -34
q32 -21 56 -59q21 -36 21 -93q0 -95 -53 -169q-54 -73 -136 -121t-184 -72q-100 -25 -196 -25q-121 0 -214 34q-95 33 -162 98q-68 65 -102 155q-36 90 -36 204q0 49 7 105q8 60 27 112q20 53 53 89t87 36q47 0 80 -27q32 -29 32 -77q0 -59 -19 -112q-20 -55 -20 -107
q0 -117 75 -177q74 -61 222 -61q18 0 58 4q46 5 92 12q57 9 85 17q38 11 38 22q0 9 -68 27q-58 19 -88 32q-38 15 -64 36q-27 20 -40 50q-15 29 -15 75q0 100 39 169q40 69 103 110q62 41 144 61q81 18 167 18h359q28 0 47 3q20 3 38 10q31 13 46 20q-93 0 -153 20t-94 52
t-48 75q-14 45 -14 90q0 62 20 130q21 69 56 118q38 54 89 87q52 34 118 34q92 0 153 -51q60 -53 96 -127q36 -79 50 -164q14 -92 14 -162q0 -430 -522 -430h-465z" />
    <glyph glyph-name="uniFC43" unicode="&#xfedf;&#xfef0;" horiz-adv-x="1747" arabic-form="isolated" 
d="M885 0l75 -18q18 -4 74 -19q39 -12 72 -34q32 -21 56 -59q21 -36 21 -93q0 -95 -53 -169q-54 -73 -136 -121t-184 -72q-100 -25 -196 -25q-121 0 -214 34q-95 33 -162 98q-68 65 -102 155q-36 90 -36 204q0 49 7 105q8 60 27 112q20 53 53 89t87 36q47 0 80 -27
q32 -29 32 -77q0 -59 -19 -112q-20 -55 -20 -107q0 -117 75 -177q74 -61 222 -61q18 0 58 4q46 5 92 12q57 9 85 17q38 11 38 22q0 9 -68 27q-58 19 -88 32q-38 15 -64 36q-27 20 -40 50q-15 29 -15 75q0 100 39 169q40 69 103 110q62 41 144 61q81 18 167 18h188
q78 0 97 27q18 26 18 88q0 179 -5 377q-6 179 -6 356q0 67 41 103t84 36q26 0 49 -10q26 -12 43 -29q18 -18 31 -49q12 -28 12 -66v-675q0 -89 -10 -168q-11 -83 -43 -145q-33 -64 -95 -102q-64 -38 -167 -38h-447z" />
    <glyph glyph-name="uniFC44" unicode="&#xfedf;&#xfef2;" horiz-adv-x="1747" arabic-form="isolated" 
d="M595 -959q-40 -40 -94 -40q-53 0 -93 40q-40 39 -40 95q0 55 40 94q41 39 93 39q56 0 95 -39t39 -94q0 -56 -40 -95zM896 -959q-40 -40 -94 -40q-53 0 -93 40q-40 39 -40 95q0 55 40 94q41 39 93 39q56 0 95 -39t39 -94q0 -56 -40 -95zM885 0l75 -18q18 -4 74 -19
q39 -12 72 -34q32 -21 56 -59q21 -36 21 -93q0 -95 -53 -169q-54 -73 -136 -121t-184 -72q-100 -25 -196 -25q-121 0 -214 34q-95 33 -162 98q-68 65 -102 155q-36 90 -36 204q0 49 7 105q8 60 27 112q20 53 53 89t87 36q47 0 80 -27q32 -29 32 -77q0 -59 -19 -112
q-20 -55 -20 -107q0 -117 75 -177q74 -61 222 -61q18 0 58 4q46 5 92 12q57 9 85 17q38 11 38 22q0 9 -68 27q-58 19 -88 32q-38 15 -64 36q-27 20 -40 50q-15 29 -15 75q0 100 39 169q40 69 103 110q62 41 144 61q81 18 167 18h188q78 0 97 27q18 26 18 88q0 179 -5 377
q-6 179 -6 356q0 67 41 103t84 36q26 0 49 -10q26 -12 43 -29q18 -18 31 -49q12 -28 12 -66v-675q0 -89 -10 -168q-11 -83 -43 -145q-33 -64 -95 -102q-64 -38 -167 -38h-447z" />
    <glyph glyph-name="uniFC64" unicode="&#xfe8c;&#xfeae;" horiz-adv-x="1514" arabic-form="final" 
d="M1123 713q-85 -27 -101 -27q-25 0 -41 13q-18 12 -18 36q0 25 31 44q29 17 77 36q-43 43 -43 109q0 42 16 73q15 31 38 54q21 21 51 35q29 12 53 12q58 0 96 -22q39 -22 39 -58q0 -23 -10 -29t-27 -6q-22 0 -46 6q-25 6 -44 6q-36 0 -49 -19q-14 -20 -14 -40
q0 -64 102 -64q6 0 29 5l90 20q20 4 35 4q22 0 35 -12q12 -12 12 -29q0 -19 -11 -39q-12 -19 -51 -30q-163 -52 -249 -78zM910 0q-70 5 -120 30q-29 17 -64 43v1l-4 -12q-39 -109 -99 -193q-64 -87 -134 -143q-73 -60 -144 -99q-72 -40 -126 -56q-57 -17 -83 -17
q-64 0 -99 30q-34 28 -34 70q0 58 30 89q28 31 76 54q185 86 291 210q105 125 105 306q0 11 -2 41q-2 28 -2 43q0 35 4 63q5 34 16 58q12 25 34 41q20 16 56 16q87 0 124 -91q15 -30 26 -59q11 -31 32 -62q20 -29 52 -48q32 -20 90 -20h13q45 0 72 7q29 8 47 21q17 14 27 33
q11 20 18 45q21 59 41 92q19 31 72 31q49 0 71 -31q20 -31 39 -94q8 -23 20 -45q10 -19 29 -33q17 -14 45 -20q27 -6 68 -6h17v-295q-112 0 -181 29q-70 29 -108 82q-44 -47 -117 -79q-61 -27 -138 -31v-1h-60z" />
    <glyph glyph-name="uniFC67" unicode="&#xfe8c;&#xfee6;" horiz-adv-x="1883" arabic-form="final" 
d="M689 485q-43 -41 -102 -41q-57 0 -98 41t-41 101q0 59 41 100t98 41q59 0 102 -41q42 -40 42 -100t-42 -101zM1492 713q-85 -27 -101 -27q-25 0 -41 13q-18 12 -18 36q0 25 31 44q29 17 77 36q-43 43 -43 109q0 42 16 73q15 31 38 54q21 21 51 35q29 12 53 12
q58 0 96 -22q39 -22 39 -58q0 -23 -10 -29t-27 -6q-22 0 -46 6q-25 6 -44 6q-36 0 -49 -19q-14 -20 -14 -40q0 -64 102 -64q6 0 29 5l90 20q20 4 35 4q22 0 35 -12q12 -12 12 -29q0 -19 -11 -39q-12 -19 -51 -30q-163 -52 -249 -78zM1300 0q-34 0 -60 6q-25 5 -50 17
q-10 -137 -53 -248q-42 -110 -114 -187q-74 -77 -177 -119q-105 -42 -242 -42q-147 0 -244 44q-95 43 -154 114q-60 71 -82 157q-24 89 -24 174q0 61 6 124q6 64 25 113q19 51 51 82t86 31q40 0 62 -25t22 -83q0 -55 -9 -102q-10 -44 -10 -89q0 -50 17 -98q17 -49 50 -83
q35 -36 88 -57q53 -22 132 -22q163 0 254 90q92 90 92 240q0 41 -13 77q-18 50 -29 74q-16 33 -30 71q-14 37 -14 73q0 55 41 91t84 36q50 0 78 -25q29 -25 57 -57q26 -30 67 -56q40 -26 112 -26q43 0 70 7q29 8 47 21q17 14 27 33q11 20 18 45q21 59 41 92q19 31 72 31
q49 0 71 -31q20 -31 39 -94q8 -23 20 -45q10 -19 29 -33q17 -14 45 -20q27 -6 68 -6h17v-295q-112 0 -181 29q-70 29 -108 82q-44 -47 -117 -79q-66 -29 -156 -32h-21z" />
    <glyph glyph-name="uniFC6A" unicode="&#xfe92;&#xfeae;" horiz-adv-x="1534" arabic-form="final" 
d="M1318 -395q-43 -41 -102 -41q-57 0 -98 41t-41 100t41 100t98 41q59 0 102 -41q42 -40 42 -100q0 -59 -42 -100zM910 0q-70 5 -120 30q-29 17 -64 43q1 4 -4 -11q-39 -109 -99 -193q-64 -87 -134 -143q-73 -60 -144 -99q-72 -40 -126 -56q-57 -17 -83 -17q-64 0 -99 30
q-34 28 -34 70q0 58 30 89q28 31 76 54q185 86 291 210q105 125 105 306q0 11 -2 41q-2 28 -2 43q0 35 4 63q5 34 16 58q12 25 34 41q20 16 56 16q87 0 124 -91q15 -30 26 -59q11 -31 32 -62q20 -29 52 -48q32 -20 90 -20h33q45 0 72 7q29 8 47 21q17 14 27 33q11 20 18 45
q21 59 41 92q19 31 72 31q49 0 71 -31q20 -31 39 -94q8 -23 20 -45q10 -19 29 -33q17 -14 45 -20q27 -6 68 -6h17v-295q-112 0 -181 29q-70 29 -108 82q-44 -47 -117 -79q-67 -29 -158 -32h-60z" />
    <glyph glyph-name="uniFC70" unicode="&#xfe98;&#xfeae;" horiz-adv-x="1523" arabic-form="final" 
d="M910 0q-70 5 -120 30q-29 17 -64 43q1 4 -4 -11q-39 -109 -99 -193q-64 -87 -134 -143q-73 -60 -144 -99q-72 -40 -126 -56q-57 -17 -83 -17q-64 0 -99 30q-34 28 -34 70q0 58 30 89q28 31 76 54q185 86 291 210q105 125 105 306q0 11 -2 41q-2 28 -2 43q0 35 4 63
q5 34 16 58q12 25 34 41q20 16 56 16q87 0 124 -91q15 -30 26 -59q11 -31 32 -62q20 -29 52 -48q32 -20 90 -20h22q45 0 72 7q29 8 47 21q17 14 27 33q11 20 18 45q21 59 41 92q19 31 72 31q49 0 71 -31q20 -31 39 -94q8 -23 20 -45q10 -19 29 -33q17 -14 45 -20
q27 -6 68 -6h17v-295q-112 0 -181 29q-70 29 -108 82q-44 -47 -117 -79q-60 -28 -147 -31v-1h-60zM1455 694q-40 -39 -94 -39q-52 0 -93 39q-40 39 -40 94q0 56 40 96t93 40q56 0 95 -40q38 -41 38 -96t-39 -94zM1154 694q-40 -39 -94 -39q-52 0 -93 39q-40 39 -40 94
q0 56 40 96t93 40q56 0 95 -40q38 -41 38 -96t-39 -94z" />
    <glyph glyph-name="uniFC86" unicode="&#xfee0;&#xfef0;" horiz-adv-x="1804" arabic-form="final" 
d="M885 0l75 -18q18 -4 74 -19q39 -12 72 -34q32 -21 56 -59q21 -36 21 -93q0 -95 -53 -169q-54 -73 -136 -121t-184 -72q-100 -25 -196 -25q-121 0 -214 34q-95 33 -162 98q-68 65 -102 155q-36 90 -36 204q0 49 7 105q8 60 27 112q20 53 53 89t87 36q47 0 80 -27
q32 -29 32 -77q0 -59 -19 -112q-20 -55 -20 -107q0 -117 75 -177q74 -61 222 -61q18 0 58 4q46 5 92 12q57 9 85 17q38 11 38 22q0 9 -68 27q-58 19 -88 32q-38 15 -64 36q-27 20 -40 50q-15 29 -15 75q0 100 39 169q40 69 103 110q62 41 144 61q81 18 167 18h183
q71 0 92 37q20 38 20 94q-5 192 -6 370q-2 236 -2 355q0 48 38 89q37 40 85 40q25 0 49 -9q23 -9 44 -27q21 -21 32 -47q12 -28 12 -64v-623q0 -100 33 -157q33 -58 100 -58h29v-295h-29q-95 0 -153 32q-57 31 -92 79q-46 -60 -103 -85q-58 -26 -149 -26h-393z" />
    <glyph glyph-name="uniFC87" unicode="&#xfee0;&#xfef2;" horiz-adv-x="1804" arabic-form="final" 
d="M595 -959q-40 -40 -94 -40q-53 0 -93 40q-40 39 -40 95q0 55 40 94q41 39 93 39q56 0 95 -39t39 -94q0 -56 -40 -95zM896 -959q-40 -40 -94 -40q-53 0 -93 40q-40 39 -40 95q0 55 40 94q41 39 93 39q56 0 95 -39t39 -94q0 -56 -40 -95zM885 0l75 -18q18 -4 74 -19
q39 -12 72 -34q32 -21 56 -59q21 -36 21 -93q0 -95 -53 -169q-54 -73 -136 -121t-184 -72q-100 -25 -196 -25q-121 0 -214 34q-95 33 -162 98q-68 65 -102 155q-36 90 -36 204q0 49 7 105q8 60 27 112q20 53 53 89t87 36q47 0 80 -27q32 -29 32 -77q0 -59 -19 -112
q-20 -55 -20 -107q0 -117 75 -177q74 -61 222 -61q18 0 58 4q46 5 92 12q57 9 85 17q38 11 38 22q0 9 -68 27q-58 19 -88 32q-38 15 -64 36q-27 20 -40 50q-15 29 -15 75q0 100 39 169q40 69 103 110q62 41 144 61q81 18 167 18h183q71 0 92 37q20 38 20 94q-5 192 -6 370
q-2 236 -2 355q0 48 38 89q37 40 85 40q25 0 49 -9q23 -9 44 -27q21 -21 32 -47q12 -28 12 -64v-623q0 -100 33 -157q33 -58 100 -58h29v-295h-29q-95 0 -153 32q-57 31 -92 79q-46 -60 -103 -85q-58 -26 -149 -26h-393z" />
    <glyph glyph-name="uniFCCC" unicode="&#xfedf;&#xfee4;" horiz-adv-x="1379" arabic-form="initial" 
d="M354 168q32 -31 80 -31q36 0 49 19q13 17 13 43q0 49 -31 89t-82 40q-29 0 -47 -18q-18 -19 -18 -60q1 -50 36 -82zM821 0q-61 0 -104 10q-46 11 -82 35q-58 -121 -217 -121q-147 0 -236 129q-64 -53 -151 -53h-31q-17 0 -32 4q-17 5 -17 12v263q0 6 17 11q18 5 32 5h19
q57 0 94 39q34 35 74 85q34 43 80 85q44 39 116 39q60 0 102 -18q42 -20 75 -46q31 -25 62 -60q28 -33 60 -59q31 -27 74 -46q39 -19 98 -19h61q78 0 97 27q18 26 18 88q0 179 -5 377q-6 179 -6 356q0 67 41 103t84 36q26 0 49 -10q26 -12 43 -29q18 -18 31 -49
q12 -28 12 -66v-675q0 -89 -10 -168q-11 -83 -43 -145q-33 -64 -95 -102q-64 -38 -167 -38h-143z" />
    <glyph glyph-name="uniFCFB" unicode="&#xfeb3;&#xfef0;" horiz-adv-x="2514" arabic-form="isolated" 
d="M885 0l75 -18q18 -4 74 -19q39 -12 72 -34q32 -21 56 -59q21 -36 21 -93q0 -95 -53 -169q-54 -73 -136 -121t-184 -72q-100 -25 -196 -25q-121 0 -214 34q-95 33 -162 98q-68 65 -102 155q-36 90 -36 204q0 49 7 105q8 60 27 112q20 53 53 89t87 36q47 0 80 -27
q32 -29 32 -77q0 -59 -19 -112q-20 -55 -20 -107q0 -117 75 -177q74 -61 222 -61q18 0 58 4q46 5 92 12q57 9 85 17q38 11 38 22q0 9 -68 27q-58 19 -88 32q-38 15 -64 36q-27 20 -40 50q-15 29 -15 75q0 100 39 169q40 69 103 110q62 41 144 61q81 18 167 18h186
q55 0 79 34q22 32 39 74q16 42 37 75q21 34 70 34q56 0 74 -35q17 -32 31 -78q12 -43 34 -77q21 -35 82 -35q43 0 56 36q10 30 22 78q11 44 31 79q20 36 82 36q54 0 73 -36q19 -34 34 -79q14 -43 36 -78q21 -36 78 -36q28 0 42 23q13 22 13 48q0 40 -16 71t-16 67
q0 53 36 80q35 26 78 26t74 -24q31 -25 50 -62q19 -39 26 -81q8 -46 8 -85q0 -69 -19 -129q-19 -62 -59 -111q-39 -50 -97 -78q-60 -31 -134 -32q-62 0 -118 30q-54 28 -93 76q-33 -41 -89 -74q-56 -32 -110 -32q-72 0 -122 24q-48 22 -87 70q-34 -44 -91 -69
q-54 -25 -134 -25h-396z" />
    <glyph glyph-name="uniFCFC" unicode="&#xfeb3;&#xfef2;" horiz-adv-x="2514" arabic-form="isolated" 
d="M595 -959q-40 -40 -94 -40q-53 0 -93 40q-40 39 -40 95q0 55 40 94q41 39 93 39q56 0 95 -39t39 -94q0 -56 -40 -95zM896 -959q-40 -40 -94 -40q-53 0 -93 40q-40 39 -40 95q0 55 40 94q41 39 93 39q56 0 95 -39t39 -94q0 -56 -40 -95zM885 0l75 -18q18 -4 74 -19
q39 -12 72 -34q32 -21 56 -59q21 -36 21 -93q0 -95 -53 -169q-54 -73 -136 -121t-184 -72q-100 -25 -196 -25q-121 0 -214 34q-95 33 -162 98q-68 65 -102 155q-36 90 -36 204q0 49 7 105q8 60 27 112q20 53 53 89t87 36q47 0 80 -27q32 -29 32 -77q0 -59 -19 -112
q-20 -55 -20 -107q0 -117 75 -177q74 -61 222 -61q18 0 58 4q46 5 92 12q57 9 85 17q38 11 38 22q0 9 -68 27q-58 19 -88 32q-38 15 -64 36q-27 20 -40 50q-15 29 -15 75q0 100 39 169q40 69 103 110q62 41 144 61q81 18 167 18h186q55 0 79 34q22 32 39 74q16 42 37 75
q21 34 70 34q56 0 74 -35q17 -32 31 -78q12 -43 34 -77q21 -35 82 -35q43 0 56 36q10 30 22 78q11 44 31 79q20 36 82 36q54 0 73 -36q19 -34 34 -79q14 -43 36 -78q21 -36 78 -36q28 0 42 23q13 22 13 48q0 40 -16 71t-16 67q0 53 36 80q35 26 78 26t74 -24q31 -25 50 -62
q19 -39 26 -81q8 -46 8 -85q0 -69 -19 -129q-19 -62 -59 -111q-39 -50 -97 -78q-60 -31 -134 -32q-62 0 -118 30q-54 28 -93 76q-33 -41 -89 -74q-56 -32 -110 -32q-72 0 -122 24q-48 22 -87 70q-34 -44 -91 -69q-54 -25 -134 -25h-396z" />
    <glyph glyph-name="uniFCFD" unicode="&#xfeb7;&#xfef0;" horiz-adv-x="2514" arabic-form="isolated" 
d="M1849 686q-40 -39 -93 -39q-52 0 -93 39q-40 39 -40 94q0 56 40 96q41 39 93 39q55 0 94 -39q39 -40 39 -96q0 -55 -40 -94zM2150 686q-40 -39 -93 -39q-52 0 -93 39q-40 39 -40 94q0 56 40 96q41 39 93 39q55 0 94 -39q39 -40 39 -96q0 -55 -40 -94zM2003 936
q-40 -39 -95 -39q-54 0 -93 39q-40 39 -40 94t40 95q39 40 93 40q57 0 96 -40t39 -95t-40 -94zM885 0l75 -18q18 -4 74 -19q39 -12 72 -34q32 -21 56 -59q21 -36 21 -93q0 -95 -53 -169q-54 -73 -136 -121t-184 -72q-100 -25 -196 -25q-121 0 -214 34q-95 33 -162 98
q-68 65 -102 155q-36 90 -36 204q0 49 7 105q8 60 27 112q20 53 53 89t87 36q47 0 80 -27q32 -29 32 -77q0 -59 -19 -112q-20 -55 -20 -107q0 -117 75 -177q74 -61 222 -61q18 0 58 4q46 5 92 12q57 9 85 17q38 11 38 22q0 9 -68 27q-58 19 -88 32q-38 15 -64 36
q-27 20 -40 50q-15 29 -15 75q0 100 39 169q40 69 103 110q62 41 144 61q81 18 167 18h186q55 0 79 34q22 32 39 74q16 42 37 75q21 34 70 34q56 0 74 -35q17 -32 31 -78q12 -43 34 -77q21 -35 82 -35q43 0 56 36q10 30 22 78q11 44 31 79q20 36 82 36q54 0 73 -36
q19 -34 34 -79q14 -43 36 -78q21 -36 78 -36q28 0 42 23q13 22 13 48q0 40 -16 71t-16 67q0 53 36 80q35 26 78 26t74 -24q31 -25 50 -62q19 -39 26 -81q8 -46 8 -85q0 -69 -19 -129q-19 -62 -59 -111q-39 -50 -97 -78q-60 -31 -134 -32q-62 0 -118 30q-54 28 -93 76
q-33 -41 -89 -74q-56 -32 -110 -32q-72 0 -122 24q-48 22 -87 70q-34 -44 -91 -69q-54 -25 -134 -25h-396z" />
    <glyph glyph-name="uniFCFE" unicode="&#xfeb7;&#xfef2;" horiz-adv-x="2514" arabic-form="isolated" 
d="M595 -959q-40 -40 -94 -40q-53 0 -93 40q-40 39 -40 95q0 55 40 94q41 39 93 39q56 0 95 -39t39 -94q0 -56 -40 -95zM896 -959q-40 -40 -94 -40q-53 0 -93 40q-40 39 -40 95q0 55 40 94q41 39 93 39q56 0 95 -39t39 -94q0 -56 -40 -95zM1849 686q-40 -39 -93 -39
q-52 0 -93 39q-40 39 -40 94q0 56 40 96q41 39 93 39q55 0 94 -39q39 -40 39 -96q0 -55 -40 -94zM2150 686q-40 -39 -93 -39q-52 0 -93 39q-40 39 -40 94q0 56 40 96q41 39 93 39q55 0 94 -39q39 -40 39 -96q0 -55 -40 -94zM2003 936q-40 -39 -95 -39q-54 0 -93 39
q-40 39 -40 94t40 95q39 40 93 40q57 0 96 -40t39 -95t-40 -94zM885 0l75 -18q18 -4 74 -19q39 -12 72 -34q32 -21 56 -59q21 -36 21 -93q0 -95 -53 -169q-54 -73 -136 -121t-184 -72q-100 -25 -196 -25q-121 0 -214 34q-95 33 -162 98q-68 65 -102 155q-36 90 -36 204
q0 49 7 105q8 60 27 112q20 53 53 89t87 36q47 0 80 -27q32 -29 32 -77q0 -59 -19 -112q-20 -55 -20 -107q0 -117 75 -177q74 -61 222 -61q18 0 58 4q46 5 92 12q57 9 85 17q38 11 38 22q0 9 -68 27q-58 19 -88 32q-38 15 -64 36q-27 20 -40 50q-15 29 -15 75q0 100 39 169
q40 69 103 110q62 41 144 61q81 18 167 18h186q55 0 79 34q22 32 39 74q16 42 37 75q21 34 70 34q56 0 74 -35q17 -32 31 -78q12 -43 34 -77q21 -35 82 -35q43 0 56 36q10 30 22 78q11 44 31 79q20 36 82 36q54 0 73 -36q19 -34 34 -79q14 -43 36 -78q21 -36 78 -36
q28 0 42 23q13 22 13 48q0 40 -16 71t-16 67q0 53 36 80q35 26 78 26t74 -24q31 -25 50 -62q19 -39 26 -81q8 -46 8 -85q0 -69 -19 -129q-19 -62 -59 -111q-39 -50 -97 -78q-60 -31 -134 -32q-62 0 -118 30q-54 28 -93 76q-33 -41 -89 -74q-56 -32 -110 -32q-72 0 -122 24
q-48 22 -87 70q-34 -44 -91 -69q-54 -25 -134 -25h-396z" />
    <glyph glyph-name="uniFD05" unicode="&#xfebb;&#xfef0;" horiz-adv-x="2611" arabic-form="isolated" 
d="M1892 254q47 0 119 6q71 6 139 24q66 17 114 48q48 30 48 78q0 37 -33 62q-34 26 -88 26q-119 0 -299 -244zM885 0l75 -18q18 -4 74 -19q39 -12 72 -34q32 -21 56 -59q21 -36 21 -93q0 -95 -53 -169q-54 -73 -136 -121t-184 -72q-100 -25 -196 -25q-121 0 -214 34
q-95 33 -162 98q-68 65 -102 155q-36 90 -36 204q0 49 7 105q8 60 27 112q20 53 53 89t87 36q47 0 80 -27q32 -29 32 -77q0 -59 -19 -112q-20 -55 -20 -107q0 -117 75 -177q74 -61 222 -61q18 0 58 4q46 5 92 12q57 9 85 17q38 11 38 22q0 9 -68 27q-58 19 -88 32
q-38 15 -64 36q-27 20 -40 50q-15 29 -15 75q0 100 39 169q40 69 103 110q62 41 144 61q81 18 167 18h154q48 0 76 17q26 17 41 42q14 26 21 54q8 31 19 54q11 26 30 42q17 16 57 16q53 0 77 -34q23 -34 36 -78q12 -43 24 -78t43 -35q19 0 41 33q23 32 39 57
q239 365 477 365q68 0 123 -21q55 -22 95 -61q39 -37 62 -93q21 -55 21 -120q0 -96 -35 -168q-34 -71 -94 -123q-58 -51 -135 -84q-75 -32 -157 -52q-81 -19 -162 -27q-76 -7 -148 -7q-43 0 -88 3t-87 12q-40 9 -78 29q-36 20 -63 54q-74 -87 -221 -92h-378z" />
    <glyph glyph-name="uniFD06" unicode="&#xfebb;&#xfef2;" horiz-adv-x="2611" arabic-form="isolated" 
d="M595 -959q-40 -40 -94 -40q-53 0 -93 40q-40 39 -40 95q0 55 40 94q41 39 93 39q56 0 95 -39t39 -94q0 -56 -40 -95zM896 -959q-40 -40 -94 -40q-53 0 -93 40q-40 39 -40 95q0 55 40 94q41 39 93 39q56 0 95 -39t39 -94q0 -56 -40 -95zM1892 254q47 0 119 6q71 6 139 24
q66 17 114 48q48 30 48 78q0 37 -33 62q-34 26 -88 26q-119 0 -299 -244zM885 0l75 -18q18 -4 74 -19q39 -12 72 -34q32 -21 56 -59q21 -36 21 -93q0 -95 -53 -169q-54 -73 -136 -121t-184 -72q-100 -25 -196 -25q-121 0 -214 34q-95 33 -162 98q-68 65 -102 155
q-36 90 -36 204q0 49 7 105q8 60 27 112q20 53 53 89t87 36q47 0 80 -27q32 -29 32 -77q0 -59 -19 -112q-20 -55 -20 -107q0 -117 75 -177q74 -61 222 -61q18 0 58 4q46 5 92 12q57 9 85 17q38 11 38 22q0 9 -68 27q-58 19 -88 32q-38 15 -64 36q-27 20 -40 50
q-15 29 -15 75q0 100 39 169q40 69 103 110q62 41 144 61q81 18 167 18h154q48 0 76 17q26 17 41 42q14 26 21 54q8 31 19 54q11 26 30 42q17 16 57 16q53 0 77 -34q23 -34 36 -78q12 -43 24 -78t43 -35q19 0 41 33q23 32 39 57q239 365 477 365q68 0 123 -21q55 -22 95 -61
q39 -37 62 -93q21 -55 21 -120q0 -96 -35 -168q-34 -71 -94 -123q-58 -51 -135 -84q-75 -32 -157 -52q-81 -19 -162 -27q-76 -7 -148 -7q-43 0 -88 3t-87 12q-40 9 -78 29q-36 20 -63 54q-74 -87 -221 -92h-378z" />
    <glyph glyph-name="uniFD07" unicode="&#xfebf;&#xfef0;" horiz-adv-x="2611" arabic-form="isolated" 
d="M1892 254q47 0 119 6q71 6 139 24q66 17 114 48q48 30 48 78q0 37 -33 62q-34 26 -88 26q-119 0 -299 -244zM1830 829q-43 -41 -102 -41q-57 0 -98 41t-41 101q0 59 41 100t98 41q59 0 102 -41q42 -40 42 -100t-42 -101zM885 0l75 -18q18 -4 74 -19q39 -12 72 -34
q32 -21 56 -59q21 -36 21 -93q0 -95 -53 -169q-54 -73 -136 -121t-184 -72q-100 -25 -196 -25q-121 0 -214 34q-95 33 -162 98q-68 65 -102 155q-36 90 -36 204q0 49 7 105q8 60 27 112q20 53 53 89t87 36q47 0 80 -27q32 -29 32 -77q0 -59 -19 -112q-20 -55 -20 -107
q0 -117 75 -177q74 -61 222 -61q18 0 58 4q46 5 92 12q57 9 85 17q38 11 38 22q0 9 -68 27q-58 19 -88 32q-38 15 -64 36q-27 20 -40 50q-15 29 -15 75q0 100 39 169q40 69 103 110q62 41 144 61q81 18 167 18h154q48 0 76 17q26 17 41 42q14 26 21 54q8 31 19 54
q11 26 30 42q17 16 57 16q53 0 77 -34q23 -34 36 -78q12 -43 24 -78t43 -35q19 0 41 33q23 32 39 57q239 365 477 365q68 0 123 -21q55 -22 95 -61q39 -37 62 -93q21 -55 21 -120q0 -96 -35 -168q-34 -71 -94 -123q-58 -51 -135 -84q-75 -32 -157 -52q-81 -19 -162 -27
q-76 -7 -148 -7q-43 0 -88 3t-87 12q-40 9 -78 29q-36 20 -63 54q-74 -87 -221 -92h-378z" />
    <glyph glyph-name="uniFD08" unicode="&#xfebf;&#xfef2;" horiz-adv-x="2611" arabic-form="isolated" 
d="M595 -959q-40 -40 -94 -40q-53 0 -93 40q-40 39 -40 95q0 55 40 94q41 39 93 39q56 0 95 -39t39 -94q0 -56 -40 -95zM896 -959q-40 -40 -94 -40q-53 0 -93 40q-40 39 -40 95q0 55 40 94q41 39 93 39q56 0 95 -39t39 -94q0 -56 -40 -95zM1892 254q47 0 119 6q71 6 139 24
q66 17 114 48q48 30 48 78q0 37 -33 62q-34 26 -88 26q-119 0 -299 -244zM1830 829q-43 -41 -102 -41q-57 0 -98 41t-41 101q0 59 41 100t98 41q59 0 102 -41q42 -40 42 -100t-42 -101zM885 0l75 -18q18 -4 74 -19q39 -12 72 -34q32 -21 56 -59q21 -36 21 -93
q0 -95 -53 -169q-54 -73 -136 -121t-184 -72q-100 -25 -196 -25q-121 0 -214 34q-95 33 -162 98q-68 65 -102 155q-36 90 -36 204q0 49 7 105q8 60 27 112q20 53 53 89t87 36q47 0 80 -27q32 -29 32 -77q0 -59 -19 -112q-20 -55 -20 -107q0 -117 75 -177q74 -61 222 -61
q18 0 58 4q46 5 92 12q57 9 85 17q38 11 38 22q0 9 -68 27q-58 19 -88 32q-38 15 -64 36q-27 20 -40 50q-15 29 -15 75q0 100 39 169q40 69 103 110q62 41 144 61q81 18 167 18h154q48 0 76 17q26 17 41 42q14 26 21 54q8 31 19 54q11 26 30 42q17 16 57 16q53 0 77 -34
q23 -34 36 -78q12 -43 24 -78t43 -35q19 0 41 33q23 32 39 57q239 365 477 365q68 0 123 -21q55 -22 95 -61q39 -37 62 -93q21 -55 21 -120q0 -96 -35 -168q-34 -71 -94 -123q-58 -51 -135 -84q-75 -32 -157 -52q-81 -19 -162 -27q-76 -7 -148 -7q-43 0 -88 3t-87 12
q-40 9 -78 29q-36 20 -63 54q-74 -87 -221 -92h-378z" />
    <glyph glyph-name="uniFD0D" unicode="&#xfeb7;&#xfeae;" horiz-adv-x="2221" arabic-form="isolated" 
d="M1556 686q-40 -39 -93 -39q-52 0 -93 39q-40 39 -40 94q0 56 40 96q41 39 93 39q55 0 94 -39q39 -40 39 -96q0 -55 -40 -94zM1857 686q-40 -39 -93 -39q-52 0 -93 39q-40 39 -40 94q0 56 40 96q41 39 93 39q55 0 94 -39q39 -40 39 -96q0 -55 -40 -94zM1710 936
q-40 -39 -95 -39q-54 0 -93 39q-40 39 -40 94t40 95q39 40 93 40q57 0 96 -40t39 -95t-40 -94zM910 0q-70 5 -120 30q-29 17 -64 43v1l-4 -12q-39 -109 -99 -193q-64 -87 -134 -143q-73 -60 -144 -99q-72 -40 -126 -56q-57 -17 -83 -17q-64 0 -99 30q-34 28 -34 70
q0 58 30 89q28 31 76 54q185 86 291 210q105 125 105 306q0 11 -2 41q-2 28 -2 43q0 35 4 63q5 34 16 58q12 25 34 41q20 16 56 16q87 0 124 -91q15 -30 26 -59q11 -31 32 -62q20 -29 52 -48q32 -20 90 -20h53q55 0 79 34q22 32 39 74q16 42 37 75q21 34 70 34q56 0 74 -35
q17 -32 31 -78q12 -43 34 -77q21 -35 82 -35q43 0 56 36q10 30 22 78q11 44 31 79q20 36 82 36q54 0 73 -36q19 -34 34 -79q14 -43 36 -78q21 -36 78 -36q28 0 42 23q13 22 13 48q0 40 -16 71t-16 67q0 53 36 80q35 26 78 26t74 -24q31 -25 50 -62q19 -39 26 -81
q8 -46 8 -85q0 -69 -19 -129q-19 -62 -59 -111q-39 -50 -97 -78q-60 -31 -134 -32q-62 0 -118 30q-54 28 -93 76q-33 -41 -89 -74q-56 -32 -110 -32q-72 0 -122 24q-48 22 -87 70q-34 -44 -91 -69q-54 -25 -134 -25h-78z" />
    <glyph glyph-name="uniFD0E" unicode="&#xfeb3;&#xfeae;" horiz-adv-x="2221" arabic-form="isolated" 
d="M910 0q-70 5 -120 30q-29 17 -64 43v1l-4 -12q-39 -109 -99 -193q-64 -87 -134 -143q-73 -60 -144 -99q-72 -40 -126 -56q-57 -17 -83 -17q-64 0 -99 30q-34 28 -34 70q0 58 30 89q28 31 76 54q185 86 291 210q105 125 105 306q0 11 -2 41q-2 28 -2 43q0 35 4 63
q5 34 16 58q12 25 34 41q20 16 56 16q87 0 124 -91q15 -30 26 -59q11 -31 32 -62q20 -29 52 -48q32 -20 90 -20h53q55 0 79 34q22 32 39 74q16 42 37 75q21 34 70 34q56 0 74 -35q17 -32 31 -78q12 -43 34 -77q21 -35 82 -35q43 0 56 36q10 30 22 78q11 44 31 79
q20 36 82 36q54 0 73 -36q19 -34 34 -79q14 -43 36 -78q21 -36 78 -36q28 0 42 23q13 22 13 48q0 40 -16 71t-16 67q0 53 36 80q35 26 78 26t74 -24q31 -25 50 -62q19 -39 26 -81q8 -46 8 -85q0 -69 -19 -129q-19 -62 -59 -111q-39 -50 -97 -78q-60 -31 -134 -32
q-62 0 -118 30q-54 28 -93 76q-33 -41 -89 -74q-56 -32 -110 -32q-72 0 -122 24q-48 22 -87 70q-34 -44 -91 -69q-54 -25 -134 -25h-78z" />
    <glyph glyph-name="uniFD0F" unicode="&#xfebb;&#xfeae;" horiz-adv-x="2335" arabic-form="isolated" 
d="M1616 254q47 0 119 6q71 6 139 24q66 17 114 48q48 30 48 78q0 37 -33 62q-34 26 -88 26q-119 0 -299 -244zM910 0q-70 5 -120 30q-29 17 -64 43v1l-4 -12q-39 -109 -99 -193q-64 -87 -134 -143q-73 -60 -144 -99q-72 -40 -126 -56q-57 -17 -83 -17q-64 0 -99 30
q-34 28 -34 70q0 58 30 89q28 31 76 54q185 86 291 210q105 125 105 306q0 11 -2 41q-2 28 -2 43q0 35 4 63q5 34 16 58q12 25 34 41q20 16 56 16q87 0 124 -91q15 -30 26 -59q11 -31 32 -62q20 -29 52 -48q32 -20 90 -20h38q48 0 76 17q26 17 41 42q14 26 21 54q8 31 19 54
q11 26 30 42q17 16 57 16q53 0 77 -34q23 -34 36 -78q12 -43 24 -78t43 -35q19 0 41 33q23 32 39 57q239 365 477 365q68 0 123 -21q55 -22 95 -61q39 -37 62 -93q21 -55 21 -120q0 -96 -35 -168q-34 -71 -94 -123q-58 -51 -135 -84q-75 -32 -157 -52q-81 -19 -162 -27
q-76 -7 -148 -7q-43 0 -88 3t-87 12q-40 9 -78 29q-36 20 -63 54q-80 -92 -235 -92h-63z" />
    <glyph glyph-name="uniFD10" unicode="&#xfebf;&#xfeae;" horiz-adv-x="2335" arabic-form="isolated" 
d="M1616 254q47 0 119 6q71 6 139 24q66 17 114 48q48 30 48 78q0 37 -33 62q-34 26 -88 26q-119 0 -299 -244zM1554 829q-43 -41 -102 -41q-57 0 -98 41t-41 101q0 59 41 100t98 41q59 0 102 -41q42 -40 42 -100t-42 -101zM910 0q-70 5 -120 30q-29 17 -64 43v1l-4 -12
q-39 -109 -99 -193q-64 -87 -134 -143q-73 -60 -144 -99q-72 -40 -126 -56q-57 -17 -83 -17q-64 0 -99 30q-34 28 -34 70q0 58 30 89q28 31 76 54q185 86 291 210q105 125 105 306q0 11 -2 41q-2 28 -2 43q0 35 4 63q5 34 16 58q12 25 34 41q20 16 56 16q87 0 124 -91
q15 -30 26 -59q11 -31 32 -62q20 -29 52 -48q32 -20 90 -20h38q48 0 76 17q26 17 41 42q14 26 21 54q8 31 19 54q11 26 30 42q17 16 57 16q53 0 77 -34q23 -34 36 -78q12 -43 24 -78t43 -35q19 0 41 33q23 32 39 57q239 365 477 365q68 0 123 -21q55 -22 95 -61
q39 -37 62 -93q21 -55 21 -120q0 -96 -35 -168q-34 -71 -94 -123q-58 -51 -135 -84q-75 -32 -157 -52q-81 -19 -162 -27q-76 -7 -148 -7q-43 0 -88 3t-87 12q-40 9 -78 29q-36 20 -63 54q-80 -92 -235 -92h-63z" />
    <glyph glyph-name="uniFD17" unicode="&#xfeb4;&#xfef0;" horiz-adv-x="2599" arabic-form="final" 
d="M885 0l75 -18q18 -4 74 -19q39 -12 72 -34q32 -21 56 -59q21 -36 21 -93q0 -95 -53 -169q-54 -73 -136 -121t-184 -72q-100 -25 -196 -25q-121 0 -214 34q-95 33 -162 98q-68 65 -102 155q-36 90 -36 204q0 49 7 105q8 60 27 112q20 53 53 89t87 36q47 0 80 -27
q32 -29 32 -77q0 -59 -19 -112q-20 -55 -20 -107q0 -117 75 -177q74 -61 222 -61q18 0 58 4q46 5 92 12q57 9 85 17q38 11 38 22q0 9 -68 27q-58 19 -88 32q-38 15 -64 36q-27 20 -40 50q-15 29 -15 75q0 100 39 169q40 69 103 110q62 41 144 61q81 18 167 18h187
q43 0 66 17t36 40q14 23 21 51q7 25 20 51q13 24 33 40q19 16 57 16t58 -16q20 -17 32 -41q11 -25 18 -54q9 -35 17 -55q10 -25 29 -41q17 -16 53 -16t55 16q18 15 32 42q10 19 23 56q9 29 23 55q14 27 32 42q19 16 52 16q38 0 58 -16q20 -17 32 -42q10 -24 18 -55
q9 -37 17 -56q11 -27 29 -42q17 -16 53 -16q48 0 68 35q18 34 31 77q12 44 33 78q20 35 73 35q38 0 57 -16q18 -15 31 -40q13 -27 20 -52q9 -32 19 -52q12 -24 34 -40q22 -17 62 -17h25v-295h-19q-143 0 -227 94q-39 -49 -89 -70q-52 -24 -112 -24t-116 28q-59 27 -99 70
q-34 -46 -85 -71q-52 -27 -126 -27q-139 0 -217 94q-36 -36 -95 -65q-60 -29 -116 -29h-413z" />
    <glyph glyph-name="uniFD18" unicode="&#xfeb4;&#xfef2;" horiz-adv-x="2599" arabic-form="final" 
d="M595 -959q-40 -40 -94 -40q-53 0 -93 40q-40 39 -40 95q0 55 40 94q41 39 93 39q56 0 95 -39t39 -94q0 -56 -40 -95zM896 -959q-40 -40 -94 -40q-53 0 -93 40q-40 39 -40 95q0 55 40 94q41 39 93 39q56 0 95 -39t39 -94q0 -56 -40 -95zM885 0l75 -18q18 -4 74 -19
q39 -12 72 -34q32 -21 56 -59q21 -36 21 -93q0 -95 -53 -169q-54 -73 -136 -121t-184 -72q-100 -25 -196 -25q-121 0 -214 34q-95 33 -162 98q-68 65 -102 155q-36 90 -36 204q0 49 7 105q8 60 27 112q20 53 53 89t87 36q47 0 80 -27q32 -29 32 -77q0 -59 -19 -112
q-20 -55 -20 -107q0 -117 75 -177q74 -61 222 -61q18 0 58 4q46 5 92 12q57 9 85 17q38 11 38 22q0 9 -68 27q-58 19 -88 32q-38 15 -64 36q-27 20 -40 50q-15 29 -15 75q0 100 39 169q40 69 103 110q62 41 144 61q81 18 167 18h187q43 0 66 17t36 40q14 23 21 51
q7 25 20 51q13 24 33 40q19 16 57 16t58 -16q20 -17 32 -41q11 -25 18 -54q9 -35 17 -55q10 -25 29 -41q17 -16 53 -16t55 16q18 15 32 42q10 19 23 56q9 29 23 55q14 27 32 42q19 16 52 16q38 0 58 -16q20 -17 32 -42q10 -24 18 -55q9 -37 17 -56q11 -27 29 -42
q17 -16 53 -16q48 0 68 35q18 34 31 77q12 44 33 78q20 35 73 35q38 0 57 -16q18 -15 31 -40q13 -27 20 -52q9 -32 19 -52q12 -24 34 -40q22 -17 62 -17h25v-295h-19q-143 0 -227 94q-39 -49 -89 -70q-52 -24 -112 -24t-116 28q-59 27 -99 70q-34 -46 -85 -71
q-52 -27 -126 -27q-139 0 -217 94q-36 -36 -95 -65q-60 -29 -116 -29h-413z" />
    <glyph glyph-name="uniFD19" unicode="&#xfeb8;&#xfef0;" horiz-adv-x="2599" arabic-form="final" 
d="M1879 686q-40 -39 -93 -39q-54 0 -93 39q-40 39 -40 94q0 56 40 96q39 39 93 39q55 0 94 -39q39 -40 39 -96q0 -55 -40 -94zM2180 686q-40 -39 -93 -39q-54 0 -93 39q-40 39 -40 94q0 56 40 96q39 39 93 39q55 0 94 -39q39 -40 39 -96q0 -55 -40 -94zM2032 936
q-40 -39 -95 -39q-52 0 -93 39q-40 39 -40 94t40 95t93 40q58 0 97 -40q38 -41 38 -95q0 -55 -40 -94zM885 0l75 -18q18 -4 74 -19q39 -12 72 -34q32 -21 56 -59q21 -36 21 -93q0 -95 -53 -169q-54 -73 -136 -121t-184 -72q-100 -25 -196 -25q-121 0 -214 34q-95 33 -162 98
q-68 65 -102 155q-36 90 -36 204q0 49 7 105q8 60 27 112q20 53 53 89t87 36q47 0 80 -27q32 -29 32 -77q0 -59 -19 -112q-20 -55 -20 -107q0 -117 75 -177q74 -61 222 -61q18 0 58 4q46 5 92 12q57 9 85 17q38 11 38 22q0 9 -68 27q-58 19 -88 32q-38 15 -64 36
q-27 20 -40 50q-15 29 -15 75q0 100 39 169q40 69 103 110q62 41 144 61q81 18 167 18h187q43 0 66 17t36 40q14 23 21 51q7 25 20 51q13 24 33 40q19 16 57 16t58 -16q20 -17 32 -41q11 -25 18 -54q9 -35 17 -55q10 -25 29 -41q17 -16 53 -16t55 16q18 15 32 42
q10 19 23 56q9 29 23 55q14 27 32 42q19 16 52 16q38 0 58 -16q20 -17 32 -42q10 -24 18 -55q9 -37 17 -56q11 -27 29 -42q17 -16 53 -16q48 0 68 35q18 34 31 77q12 44 33 78q20 35 73 35q38 0 57 -16q18 -15 31 -40q13 -27 20 -52q9 -32 19 -52q12 -24 34 -40
q22 -17 62 -17h25v-295h-19q-143 0 -227 94q-39 -49 -89 -70q-52 -24 -112 -24t-116 28q-59 27 -99 70q-34 -46 -85 -71q-52 -27 -126 -27q-139 0 -217 94q-36 -36 -95 -65q-60 -29 -116 -29h-413z" />
    <glyph glyph-name="uniFD1A" unicode="&#xfeb8;&#xfef2;" horiz-adv-x="2599" arabic-form="final" 
d="M595 -959q-40 -40 -94 -40q-53 0 -93 40q-40 39 -40 95q0 55 40 94q41 39 93 39q56 0 95 -39t39 -94q0 -56 -40 -95zM896 -959q-40 -40 -94 -40q-53 0 -93 40q-40 39 -40 95q0 55 40 94q41 39 93 39q56 0 95 -39t39 -94q0 -56 -40 -95zM1879 686q-40 -39 -93 -39
q-54 0 -93 39q-40 39 -40 94q0 56 40 96q39 39 93 39q55 0 94 -39q39 -40 39 -96q0 -55 -40 -94zM2180 686q-40 -39 -93 -39q-54 0 -93 39q-40 39 -40 94q0 56 40 96q39 39 93 39q55 0 94 -39q39 -40 39 -96q0 -55 -40 -94zM2032 936q-40 -39 -95 -39q-52 0 -93 39
q-40 39 -40 94t40 95t93 40q58 0 97 -40q38 -41 38 -95q0 -55 -40 -94zM885 0l75 -18q18 -4 74 -19q39 -12 72 -34q32 -21 56 -59q21 -36 21 -93q0 -95 -53 -169q-54 -73 -136 -121t-184 -72q-100 -25 -196 -25q-121 0 -214 34q-95 33 -162 98q-68 65 -102 155
q-36 90 -36 204q0 49 7 105q8 60 27 112q20 53 53 89t87 36q47 0 80 -27q32 -29 32 -77q0 -59 -19 -112q-20 -55 -20 -107q0 -117 75 -177q74 -61 222 -61q18 0 58 4q46 5 92 12q57 9 85 17q38 11 38 22q0 9 -68 27q-58 19 -88 32q-38 15 -64 36q-27 20 -40 50
q-15 29 -15 75q0 100 39 169q40 69 103 110q62 41 144 61q81 18 167 18h187q43 0 66 17t36 40q14 23 21 51q7 25 20 51q13 24 33 40q19 16 57 16t58 -16q20 -17 32 -41q11 -25 18 -54q9 -35 17 -55q10 -25 29 -41q17 -16 53 -16t55 16q18 15 32 42q10 19 23 56q9 29 23 55
q14 27 32 42q19 16 52 16q38 0 58 -16q20 -17 32 -42q10 -24 18 -55q9 -37 17 -56q11 -27 29 -42q17 -16 53 -16q48 0 68 35q18 34 31 77q12 44 33 78q20 35 73 35q38 0 57 -16q18 -15 31 -40q13 -27 20 -52q9 -32 19 -52q12 -24 34 -40q22 -17 62 -17h25v-295h-19
q-143 0 -227 94q-39 -49 -89 -70q-52 -24 -112 -24t-116 28q-59 27 -99 70q-34 -46 -85 -71q-52 -27 -126 -27q-139 0 -217 94q-36 -36 -95 -65q-60 -29 -116 -29h-413z" />
    <glyph glyph-name="uniFD21" unicode="&#xfebc;&#xfef0;" horiz-adv-x="2622" arabic-form="final" 
d="M1893 254q47 0 119 6q71 6 138 24q65 16 115 48q48 30 48 78q0 36 -32 62t-89 26q-119 0 -299 -244zM885 0l75 -18q18 -4 74 -19q39 -12 72 -34q32 -21 56 -59q21 -36 21 -93q0 -95 -53 -169q-54 -73 -136 -121t-184 -72q-100 -25 -196 -25q-121 0 -214 34
q-95 33 -162 98q-68 65 -102 155q-36 90 -36 204q0 49 7 105q8 60 27 112q20 53 53 89t87 36q47 0 80 -27q32 -29 32 -77q0 -59 -19 -112q-20 -55 -20 -107q0 -117 75 -177q74 -61 222 -61q18 0 58 4q46 5 92 12q57 9 85 17q38 11 38 22q0 9 -68 27q-58 19 -88 32
q-38 15 -64 36q-27 20 -40 50q-15 29 -15 75q0 100 39 169q40 69 103 110q62 41 144 61q81 18 167 18h157q44 0 70 17q23 16 40 42q16 27 23 54q8 29 21 54q12 25 32 42q19 16 58 16q54 0 76 -34q22 -33 34 -78q12 -43 24 -78q11 -35 44 -35q9 0 19 10q15 15 23 25
q16 21 22 30l18 25q238 367 477 367q68 0 123 -21q55 -22 95 -61q39 -37 62 -93q21 -55 21 -120q0 -46 -9 -84q-10 -37 -24 -72q27 -6 78 -6h43v-295h-43q-91 0 -163 26t-118 66q-109 -54 -240 -77q-130 -23 -243 -23q-107 0 -190 19q-86 18 -138 85q-37 -38 -96 -67
q-57 -28 -128 -29h-378z" />
    <glyph glyph-name="uniFD22" unicode="&#xfebc;&#xfef2;" horiz-adv-x="2622" arabic-form="final" 
d="M595 -959q-40 -40 -94 -40q-53 0 -93 40q-40 39 -40 95q0 55 40 94q41 39 93 39q56 0 95 -39t39 -94q0 -56 -40 -95zM896 -959q-40 -40 -94 -40q-53 0 -93 40q-40 39 -40 95q0 55 40 94q41 39 93 39q56 0 95 -39t39 -94q0 -56 -40 -95zM1893 254q47 0 119 6q71 6 138 24
q65 16 115 48q48 30 48 78q0 36 -32 62t-89 26q-119 0 -299 -244zM885 0l75 -18q18 -4 74 -19q39 -12 72 -34q32 -21 56 -59q21 -36 21 -93q0 -95 -53 -169q-54 -73 -136 -121t-184 -72q-100 -25 -196 -25q-121 0 -214 34q-95 33 -162 98q-68 65 -102 155q-36 90 -36 204
q0 49 7 105q8 60 27 112q20 53 53 89t87 36q47 0 80 -27q32 -29 32 -77q0 -59 -19 -112q-20 -55 -20 -107q0 -117 75 -177q74 -61 222 -61q18 0 58 4q46 5 92 12q57 9 85 17q38 11 38 22q0 9 -68 27q-58 19 -88 32q-38 15 -64 36q-27 20 -40 50q-15 29 -15 75q0 100 39 169
q40 69 103 110q62 41 144 61q81 18 167 18h157q44 0 70 17q23 16 40 42q16 27 23 54q8 29 21 54q12 25 32 42q19 16 58 16q54 0 76 -34q22 -33 34 -78q12 -43 24 -78q11 -35 44 -35q9 0 19 10q15 15 23 25q16 21 22 30l18 25q238 367 477 367q68 0 123 -21q55 -22 95 -61
q39 -37 62 -93q21 -55 21 -120q0 -46 -9 -84q-10 -37 -24 -72q27 -6 78 -6h43v-295h-43q-91 0 -163 26t-118 66q-109 -54 -240 -77q-130 -23 -243 -23q-107 0 -190 19q-86 18 -138 85q-37 -38 -96 -67q-57 -28 -128 -29h-378z" />
    <glyph glyph-name="uniFD23" unicode="&#xfec0;&#xfef0;" horiz-adv-x="2622" arabic-form="final" 
d="M1893 254q47 0 119 6q71 6 138 24q65 16 115 48q48 30 48 78q0 36 -32 62t-89 26q-119 0 -299 -244zM1832 829q-43 -41 -101 -41q-57 0 -98 41t-41 101q0 59 41 100t98 41q58 0 101 -41q42 -40 42 -100t-42 -101zM885 0l75 -18q18 -4 74 -19q39 -12 72 -34q32 -21 56 -59
q21 -36 21 -93q0 -95 -53 -169q-54 -73 -136 -121t-184 -72q-100 -25 -196 -25q-121 0 -214 34q-95 33 -162 98q-68 65 -102 155q-36 90 -36 204q0 49 7 105q8 60 27 112q20 53 53 89t87 36q47 0 80 -27q32 -29 32 -77q0 -59 -19 -112q-20 -55 -20 -107q0 -117 75 -177
q74 -61 222 -61q18 0 58 4q46 5 92 12q57 9 85 17q38 11 38 22q0 9 -68 27q-58 19 -88 32q-38 15 -64 36q-27 20 -40 50q-15 29 -15 75q0 100 39 169q40 69 103 110q62 41 144 61q81 18 167 18h157q44 0 70 17q23 16 40 42q16 27 23 54q8 29 21 54q12 25 32 42q19 16 58 16
q54 0 76 -34q22 -33 34 -78q12 -43 24 -78q11 -35 44 -35q9 0 19 10q15 15 23 25q16 21 22 30l18 25q238 367 477 367q68 0 123 -21q55 -22 95 -61q39 -37 62 -93q21 -55 21 -120q0 -46 -9 -84q-10 -37 -24 -72q27 -6 78 -6h43v-295h-43q-91 0 -163 26t-118 66
q-109 -54 -240 -77q-130 -23 -243 -23q-107 0 -190 19q-86 18 -138 85q-37 -38 -96 -67q-57 -28 -128 -29h-378z" />
    <glyph glyph-name="uniFD24" unicode="&#xfec0;&#xfef2;" horiz-adv-x="2622" arabic-form="final" 
d="M595 -959q-40 -40 -94 -40q-53 0 -93 40q-40 39 -40 95q0 55 40 94q41 39 93 39q56 0 95 -39t39 -94q0 -56 -40 -95zM896 -959q-40 -40 -94 -40q-53 0 -93 40q-40 39 -40 95q0 55 40 94q41 39 93 39q56 0 95 -39t39 -94q0 -56 -40 -95zM1893 254q47 0 119 6q71 6 138 24
q65 16 115 48q48 30 48 78q0 36 -32 62t-89 26q-119 0 -299 -244zM1832 829q-43 -41 -101 -41q-57 0 -98 41t-41 101q0 59 41 100t98 41q58 0 101 -41q42 -40 42 -100t-42 -101zM885 0l75 -18q18 -4 74 -19q39 -12 72 -34q32 -21 56 -59q21 -36 21 -93q0 -95 -53 -169
q-54 -73 -136 -121t-184 -72q-100 -25 -196 -25q-121 0 -214 34q-95 33 -162 98q-68 65 -102 155q-36 90 -36 204q0 49 7 105q8 60 27 112q20 53 53 89t87 36q47 0 80 -27q32 -29 32 -77q0 -59 -19 -112q-20 -55 -20 -107q0 -117 75 -177q74 -61 222 -61q18 0 58 4
q46 5 92 12q57 9 85 17q38 11 38 22q0 9 -68 27q-58 19 -88 32q-38 15 -64 36q-27 20 -40 50q-15 29 -15 75q0 100 39 169q40 69 103 110q62 41 144 61q81 18 167 18h157q44 0 70 17q23 16 40 42q16 27 23 54q8 29 21 54q12 25 32 42q19 16 58 16q54 0 76 -34q22 -33 34 -78
q12 -43 24 -78q11 -35 44 -35q9 0 19 10q15 15 23 25q16 21 22 30l18 25q238 367 477 367q68 0 123 -21q55 -22 95 -61q39 -37 62 -93q21 -55 21 -120q0 -46 -9 -84q-10 -37 -24 -72q27 -6 78 -6h43v-295h-43q-91 0 -163 26t-118 66q-109 -54 -240 -77q-130 -23 -243 -23
q-107 0 -190 19q-86 18 -138 85q-37 -38 -96 -67q-57 -28 -128 -29h-378z" />
    <glyph glyph-name="uniFD29" unicode="&#xfeb8;&#xfeae;" horiz-adv-x="2304" arabic-form="final" 
d="M1584 686q-40 -39 -93 -39q-54 0 -93 39q-40 39 -40 94q0 56 40 96q39 39 93 39q55 0 94 -39q39 -40 39 -96q0 -55 -40 -94zM1885 686q-40 -39 -93 -39q-54 0 -93 39q-40 39 -40 94q0 56 40 96q39 39 93 39q55 0 94 -39q39 -40 39 -96q0 -55 -40 -94zM1737 936
q-40 -39 -95 -39q-52 0 -93 39q-40 39 -40 94t40 95t93 40q58 0 97 -40q38 -41 38 -95q0 -55 -40 -94zM910 0q-70 5 -120 30q-29 17 -64 43q1 4 -4 -11q-39 -109 -99 -193q-64 -87 -134 -143q-73 -60 -144 -99q-72 -40 -126 -56q-57 -17 -83 -17q-64 0 -99 30q-34 28 -34 70
q0 58 30 89q28 31 76 54q185 86 291 210q105 125 105 306q0 11 -2 41q-2 28 -2 43q0 35 4 63q5 34 16 58q12 25 34 41q20 16 56 16q87 0 124 -91q15 -30 26 -59q11 -31 32 -62q20 -29 52 -48q32 -20 90 -20h52q43 0 66 17t36 40q14 23 21 51q7 25 20 51q13 24 33 40
q19 16 57 16t58 -16q20 -17 32 -41q11 -25 18 -54q9 -35 17 -55q10 -25 29 -41q17 -16 53 -16t55 16q18 15 32 42q10 19 23 56q9 29 23 55q14 27 32 42q19 16 52 16q38 0 58 -16q20 -17 32 -42q10 -24 18 -55q9 -37 17 -56q11 -27 29 -42q17 -16 53 -16q48 0 68 35
q18 34 31 77q12 44 33 78q20 35 73 35q38 0 57 -16q18 -15 31 -40q13 -27 20 -52q9 -32 19 -52q12 -24 34 -40q22 -17 62 -17h25v-295h-19q-143 0 -227 94q-39 -49 -89 -70q-52 -24 -112 -24t-116 28q-59 27 -99 70q-34 -46 -85 -71q-52 -27 -126 -27q-139 0 -217 94
q-36 -36 -95 -65q-60 -29 -116 -29h-93z" />
    <glyph glyph-name="uniFD2A" unicode="&#xfeb4;&#xfeae;" horiz-adv-x="2304" arabic-form="final" 
d="M910 0q-70 5 -120 30q-29 17 -64 43v1l-4 -12q-39 -109 -99 -193q-64 -87 -134 -143q-73 -60 -144 -99q-72 -40 -126 -56q-57 -17 -83 -17q-64 0 -99 30q-34 28 -34 70q0 58 30 89q28 31 76 54q185 86 291 210q105 125 105 306q0 11 -2 41q-2 28 -2 43q0 35 4 63
q5 34 16 58q12 25 34 41q20 16 56 16q87 0 124 -91q15 -30 26 -59q11 -31 32 -62q20 -29 52 -48q32 -20 90 -20h52q43 0 66 17t36 40q14 23 21 51q7 25 20 51q13 24 33 40q19 16 57 16t58 -16q20 -17 32 -41q11 -25 18 -54q9 -35 17 -55q10 -25 29 -41q17 -16 53 -16t55 16
q18 15 32 42q10 19 23 56q9 29 23 55q14 27 32 42q19 16 52 16q38 0 58 -16q20 -17 32 -42q10 -24 18 -55q9 -37 17 -56q11 -27 29 -42q17 -16 53 -16q48 0 68 35q18 34 31 77q12 44 33 78q20 35 73 35q38 0 57 -16q18 -15 31 -40q13 -27 20 -52q9 -32 19 -52q12 -24 34 -40
q22 -17 62 -17h25v-295h-19q-143 0 -227 94q-39 -49 -89 -70q-52 -24 -112 -24t-116 28q-59 27 -99 70q-34 -46 -85 -71q-52 -27 -126 -27q-139 0 -217 94q-36 -36 -95 -65q-60 -29 -116 -29h-93z" />
    <glyph glyph-name="uniFD2B" unicode="&#xfebc;&#xfeae;" horiz-adv-x="2342" arabic-form="final" 
d="M1613 254q47 0 119 6q71 6 138 24q65 16 115 48q48 30 48 78q0 36 -32 62t-89 26q-119 0 -299 -244zM910 0q-70 5 -120 30q-29 17 -64 43v1l-4 -12q-39 -109 -99 -193q-64 -87 -134 -143q-73 -60 -144 -99q-72 -40 -126 -56q-57 -17 -83 -17q-64 0 -99 30q-34 28 -34 70
q0 58 30 89q28 31 76 54q185 86 291 210q105 125 105 306q0 11 -2 41q-2 28 -2 43q0 35 4 63q5 34 16 58q12 25 34 41q20 16 56 16q87 0 124 -91q15 -30 26 -59q11 -31 32 -62q20 -29 52 -48q32 -20 90 -20h37q44 0 70 17q23 16 40 42q16 27 23 54q8 29 21 54q12 25 32 42
q19 16 58 16q54 0 76 -34q22 -33 34 -78q12 -43 24 -78q11 -35 44 -35q9 0 19 10q15 15 23 25q16 21 22 30l18 25q238 367 477 367q68 0 123 -21q55 -22 95 -61q39 -37 62 -93q21 -55 21 -120q0 -46 -9 -84q-10 -37 -24 -72q27 -6 78 -6h43v-295h-43q-91 0 -163 26t-118 66
q-109 -54 -240 -77q-130 -23 -243 -23q-107 0 -190 19q-86 18 -138 85q-37 -38 -96 -67q-60 -29 -139 -29h-62z" />
    <glyph glyph-name="uniFD2C" unicode="&#xfec0;&#xfeae;" horiz-adv-x="2342" arabic-form="final" 
d="M1613 254q47 0 119 6q71 6 138 24q65 16 115 48q48 30 48 78q0 36 -32 62t-89 26q-119 0 -299 -244zM1552 829q-43 -41 -101 -41q-57 0 -98 41t-41 101q0 59 41 100t98 41q58 0 101 -41q42 -40 42 -100t-42 -101zM910 0q-70 5 -120 30q-29 17 -64 43v1l-4 -12
q-39 -109 -99 -193q-64 -87 -134 -143q-73 -60 -144 -99q-72 -40 -126 -56q-57 -17 -83 -17q-64 0 -99 30q-34 28 -34 70q0 58 30 89q28 31 76 54q185 86 291 210q105 125 105 306q0 11 -2 41q-2 28 -2 43q0 35 4 63q5 34 16 58q12 25 34 41q20 16 56 16q87 0 124 -91
q15 -30 26 -59q11 -31 32 -62q20 -29 52 -48q32 -20 90 -20h37q44 0 70 17q23 16 40 42q16 27 23 54q8 29 21 54q12 25 32 42q19 16 58 16q54 0 76 -34q22 -33 34 -78q12 -43 24 -78q11 -35 44 -35q9 0 19 10q15 15 23 25q16 21 22 30l18 25q238 367 477 367q68 0 123 -21
q55 -22 95 -61q39 -37 62 -93q21 -55 21 -120q0 -46 -9 -84q-10 -37 -24 -72q27 -6 78 -6h43v-295h-43q-91 0 -163 26t-118 66q-109 -54 -240 -77q-130 -23 -243 -23q-107 0 -190 19q-86 18 -138 85q-37 -38 -96 -67q-60 -29 -139 -29h-62z" />
    <glyph glyph-name="uniFEF5" unicode="&#xfedf;&#xfe82;" horiz-adv-x="1112" arabic-form="isolated" 
d="M866 1278q48 0 92 -40q45 -40 49 -124l24 -488q1 -11 1 -24q0 -323 -163 -486t-462 -163q-57 0 -99 11q-39 10 -62 30q-23 19 -32 42q-10 21 -10 48q0 47 30 86t99 39q78 0 163 8q77 7 141 43q60 34 98 107q37 70 37 198q0 152 -19 282q-20 137 -20 269q0 81 40 121
q41 41 93 41zM366 1235q46 0 84 -35q37 -34 67 -90q30 -59 50 -125q23 -82 35 -140q14 -75 20 -136q6 -66 6 -111q0 -71 -1 -108q-2 -59 -13 -103q-13 -49 -40 -76q-28 -30 -79 -30q-39 0 -68 23q-30 23 -30 75q0 42 3 73q3 32 3 64q0 147 -24 235q-26 91 -54 151
q-23 51 -53 106q-25 44 -25 102q0 51 34 88t85 37zM55 1359q14 38 39 69q25 30 58 49q32 18 68 18q73 0 125 -9q50 -10 112 -10q24 0 44 14q18 14 35 32q18 20 34 33q19 14 41 14t36 -17q13 -16 13 -53q0 -44 -19 -78q-20 -35 -50 -59q-27 -23 -65 -38q-37 -14 -68 -14
q-33 0 -59 3l-102 13q-34 2 -54 2q-30 0 -47 -15q-18 -15 -31 -34q-13 -18 -30 -34q-16 -15 -41 -15q-24 0 -39 12q-15 11 -15 42q0 38 15 75z" />
    <glyph glyph-name="uniFEF6" unicode="&#xfee0;&#xfe82;" horiz-adv-x="1192" arabic-form="final" 
d="M1155 0q-86 0 -149 42q-64 42 -99 120q-158 -209 -499 -209q-58 0 -100 11q-39 10 -62 30q-23 19 -32 42t-9 48q0 47 30 86q29 39 99 39q78 0 163 8q76 7 140 43q60 34 98 107q37 70 37 198q0 152 -19 282q-20 137 -20 269q0 81 40 121q41 41 93 41q47 0 93 -40
q45 -40 49 -124l13 -274q6 -150 7 -150v1l3 -65q1 -11 1 -24q0 -32 5 -90q4 -49 22 -101q17 -50 46 -82q30 -34 79 -34h8v-295h-37zM367 1235q46 0 84 -35q36 -34 66 -90q31 -57 51 -125q23 -84 34 -140q13 -69 21 -136q6 -66 6 -111q0 -71 -1 -108q-2 -59 -13 -103
q-14 -49 -40 -76q-28 -30 -79 -30q-38 0 -69 23q-30 23 -30 75q0 42 3 73q3 32 3 64q0 147 -24 235q-28 97 -53 151q-23 51 -53 106q-25 44 -25 102q0 51 34 88q33 37 85 37zM55 1359q14 38 39 69q25 30 58 49q32 18 68 18q73 0 125 -9q50 -10 112 -10q24 0 44 14
q18 14 35 32q18 20 34 33q19 14 41 14t36 -17q13 -16 13 -53q0 -44 -19 -78q-20 -35 -50 -59q-27 -23 -65 -38q-37 -14 -68 -14q-33 0 -59 3l-102 13q-34 2 -54 2q-30 0 -47 -15q-18 -15 -31 -34q-13 -18 -30 -34q-16 -15 -41 -15q-24 0 -39 12q-15 11 -15 42q0 38 15 75z
" />
    <glyph glyph-name="uniFEF7" unicode="&#xfedf;&#xfe84;" horiz-adv-x="1041" arabic-form="isolated" 
d="M702 1237q41 41 93 41q48 0 92 -40q45 -40 49 -124l24 -488q1 -11 1 -24q0 -323 -163 -486t-462 -163q-57 0 -99 11q-39 10 -62 30q-23 19 -32 42q-10 21 -10 48q0 47 30 86t99 39q78 0 163 8q77 7 141 43q60 34 98 107q37 70 37 198q0 152 -19 282q-20 137 -20 269
q0 81 40 121zM210 1198q34 37 85 37q46 0 84 -35q37 -34 67 -90q30 -59 50 -125q23 -82 35 -140q14 -75 20 -136q6 -66 6 -111q0 -71 -1 -108q-2 -59 -13 -103q-13 -49 -40 -76q-28 -30 -79 -30q-39 0 -68 23q-30 23 -30 75q0 42 3 73q3 32 3 64q0 147 -24 235
q-26 91 -54 151q-23 51 -53 106q-25 44 -25 102q0 51 34 88zM241 1391q-85 -27 -102 -27q-25 0 -41 13q-18 12 -18 36q0 25 31 44q30 18 78 36q-43 43 -43 109q0 41 15 72q15 32 38 55q21 21 51 35q29 12 53 12q59 0 97 -22q38 -23 38 -58q0 -23 -10 -29t-26 -6q-23 0 -47 6
q-25 6 -44 6q-35 0 -48 -19q-15 -19 -15 -40q0 -64 102 -64q7 0 29 5l44 10q12 3 47 10q20 4 34 4q22 0 35 -12q12 -13 12 -29q0 -19 -11 -39q-11 -21 -50 -31z" />
    <glyph glyph-name="uniFEF8" unicode="&#xfee0;&#xfe84;" horiz-adv-x="1120" arabic-form="final" 
d="M1084 0q-86 0 -149 42q-64 42 -99 120q-158 -209 -500 -209q-57 0 -99 11q-39 10 -62 30q-23 19 -32 42q-10 21 -10 48q0 47 30 86t99 39q78 0 163 8q77 7 141 43q60 34 98 107q37 70 37 198q0 152 -19 282q-20 137 -20 269q0 81 40 121q41 41 93 41q48 0 92 -40
q45 -40 49 -124l24 -488q1 -11 1 -24q0 -32 5 -90q4 -49 22 -101q17 -50 46 -82q28 -34 78 -34h8v-295h-36zM210 1198q34 37 85 37q46 0 84 -35q37 -34 67 -90q30 -59 50 -125q23 -82 35 -140q14 -75 20 -136q6 -66 6 -111q0 -71 -1 -108q-2 -59 -13 -103q-13 -49 -40 -76
q-28 -30 -79 -30q-39 0 -68 23q-30 23 -30 75q0 42 3 73q3 32 3 64q0 147 -24 235q-26 91 -54 151q-23 51 -53 106q-25 44 -25 102q0 51 34 88zM241 1391q-85 -27 -102 -27q-25 0 -41 13q-18 12 -18 36q0 25 31 44q30 18 78 36q-43 43 -43 109q0 41 15 72q15 32 38 55
q21 21 51 35q29 12 53 12q59 0 97 -22q38 -23 38 -58q0 -23 -10 -29t-26 -6q-23 0 -47 6q-25 6 -44 6q-35 0 -48 -19q-15 -19 -15 -40q0 -64 102 -64q7 0 29 5l44 10q12 3 47 10q20 4 34 4q22 0 35 -12q12 -13 12 -29q0 -19 -11 -39q-11 -21 -50 -31z" />
    <glyph glyph-name="uniFEF9" unicode="&#xfedf;&#xfe88;" horiz-adv-x="1017" arabic-form="isolated" 
d="M678 1237q41 41 94 41q48 0 92 -40q45 -40 49 -124l13 -274q6 -150 7 -150v1l3 -65q1 -11 1 -24q0 -322 -162 -486q-163 -163 -462 -163q-58 0 -100 11q-39 10 -62 30q-23 19 -32 42t-9 48q0 47 30 86q29 39 99 39q78 0 163 8q77 7 141 43q60 34 98 107q36 71 36 198
q0 152 -19 282q-20 137 -20 269q0 81 40 121zM187 1198q34 37 85 37q46 0 84 -35q37 -34 67 -90q30 -59 50 -125q23 -82 35 -140q14 -75 20 -136q6 -66 6 -111q0 -71 -1 -108q-2 -59 -13 -103q-14 -49 -40 -76q-28 -30 -79 -30q-39 0 -68 23q-30 23 -30 75q0 42 3 73
q3 32 3 64q0 147 -24 235q-26 91 -54 151q-23 51 -53 106q-25 44 -25 102q0 51 34 88zM271 -573q-85 -27 -102 -27q-24 0 -41 11q-18 11 -18 38q0 23 31 41q30 18 78 39q-43 39 -43 109q0 41 15 72q15 32 38 55q21 21 51 35q29 12 53 12q58 0 97 -24q38 -24 38 -58
q0 -24 -10 -28q-12 -5 -26 -5q-23 0 -47 6q-25 6 -44 6q-35 0 -48 -19q-15 -19 -15 -40q0 -64 102 -64q12 0 29 4q34 8 44 11q12 3 47 10q20 4 34 4q22 0 35 -12q12 -13 12 -29q0 -19 -11 -39q-10 -19 -50 -33z" />
    <glyph glyph-name="uniFEFA" unicode="&#xfee0;&#xfe88;" horiz-adv-x="1097" arabic-form="final" 
d="M1060 0q-86 0 -149 42q-64 42 -99 120q-158 -209 -499 -209q-58 0 -100 11q-39 10 -62 30q-23 19 -32 42t-9 48q0 47 30 86q29 39 99 39q78 0 163 8q77 7 141 43q60 34 98 107q36 71 36 198q0 152 -19 282q-20 137 -20 269q0 81 40 121q41 41 94 41q48 0 92 -40
q45 -40 49 -124l13 -274q6 -150 7 -150v1l3 -65q1 -11 1 -24q0 -37 6 -90q5 -53 21 -101q17 -50 46 -82q30 -34 79 -34h8v-295h-37zM187 1198q34 37 85 37q46 0 84 -35q37 -34 67 -90q30 -59 50 -125q23 -82 35 -140q14 -75 20 -136q6 -66 6 -111q0 -71 -1 -108
q-2 -59 -13 -103q-14 -49 -40 -76q-28 -30 -79 -30q-39 0 -68 23q-30 23 -30 75q0 42 3 73q3 32 3 64q0 147 -24 235q-26 91 -54 151q-23 51 -53 106q-25 44 -25 102q0 51 34 88zM271 -573q-85 -27 -102 -27q-24 0 -41 11q-18 11 -18 38q0 23 31 41q30 18 78 39
q-43 39 -43 109q0 41 15 72q15 32 38 55q21 21 51 35q29 12 53 12q58 0 97 -24q38 -24 38 -58q0 -24 -10 -28q-12 -5 -26 -5q-23 0 -47 6q-25 6 -44 6q-35 0 -48 -19q-15 -19 -15 -40q0 -64 102 -64q12 0 29 4q34 8 44 11q12 3 47 10q20 4 34 4q22 0 35 -12q12 -13 12 -29
q0 -19 -11 -39q-10 -19 -50 -33z" />
    <glyph glyph-name="uniFEFB" unicode="&#xfedf;&#xfe8e;" horiz-adv-x="1017" arabic-form="isolated" 
d="M678 1237q41 41 94 41q48 0 92 -40q45 -40 49 -124l13 -274q6 -150 7 -150v1l3 -65q1 -11 1 -24q0 -322 -162 -486q-163 -163 -462 -163q-58 0 -100 11q-39 10 -62 30q-23 19 -32 42t-9 48q0 47 30 86q29 39 99 39q78 0 163 8q77 7 141 43q60 34 98 107q36 71 36 198
q0 152 -19 282q-20 137 -20 269q0 81 40 121zM187 1198q34 37 85 37q46 0 84 -35q37 -34 67 -90q30 -59 50 -125q23 -82 35 -140q14 -75 20 -136q6 -66 6 -111q0 -71 -1 -108q-2 -59 -13 -103q-14 -49 -40 -76q-28 -30 -79 -30q-39 0 -68 23q-30 23 -30 75q0 42 3 73
q3 32 3 64q0 147 -24 235q-26 91 -54 151q-23 51 -53 106q-25 44 -25 102q0 51 34 88z" />
    <glyph glyph-name="uniFEFC" unicode="&#xfee0;&#xfe8e;" horiz-adv-x="1097" arabic-form="final" 
d="M1060 0q-86 0 -149 42q-64 42 -99 120q-158 -209 -499 -209q-58 0 -100 11q-39 10 -62 30q-23 19 -32 42t-9 48q0 47 30 86q29 39 99 39q78 0 163 8q77 7 141 43q60 34 98 107q36 71 36 198q0 152 -19 282q-20 137 -20 269q0 81 40 121q41 41 94 41q48 0 92 -40
q45 -40 49 -124l13 -274q6 -150 7 -150v1l3 -65q1 -11 1 -24q0 -37 6 -90q5 -53 21 -101q17 -50 46 -82q30 -34 79 -34h8v-295h-37zM187 1198q34 37 85 37q46 0 84 -35q37 -34 67 -90q30 -59 50 -125q23 -82 35 -140q14 -75 20 -136q6 -66 6 -111q0 -71 -1 -108
q-2 -59 -13 -103q-14 -49 -40 -76q-28 -30 -79 -30q-39 0 -68 23q-30 23 -30 75q0 42 3 73q3 32 3 64q0 147 -24 235q-26 91 -54 151q-23 51 -53 106q-25 44 -25 102q0 51 34 88z" />
    <glyph glyph-name="uniFE8B_uniFEE4.liga" unicode="&#xfe8b;&#xfee4;" horiz-adv-x="1359" 
d="M354 168q32 -31 80 -31q36 0 49 19q13 17 13 43q0 49 -31 89t-82 40q-29 0 -47 -18q-18 -19 -18 -60q1 -50 36 -82zM986 873q-85 -27 -101 -27q-25 0 -42 12t-17 37t31 43q26 16 77 37q-43 43 -43 108q0 42 16 73q15 32 38 55q22 22 51 34t53 12q58 0 96 -22
q39 -22 39 -57q0 -23 -10 -29t-27 -6q-21 0 -47 6q-25 6 -43 6q-36 0 -49 -19q-15 -19 -15 -40q0 -64 103 -64q10 0 29 4q34 8 44 11l46 10q20 4 34 4q23 0 36 -12q12 -13 12 -29q0 -20 -11 -40q-12 -19 -51 -30zM821 0q-61 0 -104 10q-46 11 -82 35q-58 -121 -217 -121
q-147 0 -236 129q-64 -53 -151 -53h-31q-17 0 -32 4q-17 5 -17 12v263q0 6 17 11q18 5 32 5h19q57 0 94 39q34 35 74 85q34 43 80 85q44 39 116 39q60 0 102 -18q42 -20 75 -46q31 -25 62 -60q28 -33 60 -59q31 -27 74 -46q39 -19 98 -19h54q65 0 93 14q26 14 26 49
q0 47 -17 86q-18 38 -18 80q0 59 35 105q35 45 88 45q159 0 164 -281q0 -102 -30 -176q-32 -76 -83 -122q-53 -48 -121 -71q-69 -24 -143 -24h-81z" />
    <glyph glyph-name="uniFE8B_uniFEF0.liga" unicode="&#xfe8b;&#xfef0;" horiz-adv-x="1726" 
d="M1403 873q-85 -27 -101 -27q-25 0 -42 12t-17 37t31 43q26 16 77 37q-43 43 -43 108q0 42 16 73q15 32 38 55q22 22 51 34t53 12q58 0 96 -22q39 -22 39 -57q0 -23 -10 -29t-27 -6q-21 0 -47 6q-25 6 -43 6q-36 0 -49 -19q-15 -19 -15 -40q0 -64 103 -64q10 0 29 4
q34 8 44 11l46 10q20 4 34 4q23 0 36 -12q12 -13 12 -29q0 -20 -11 -40q-12 -19 -51 -30zM885 0l75 -18q18 -4 74 -19q39 -12 72 -34q32 -21 56 -59q21 -36 21 -93q0 -95 -53 -169q-54 -73 -136 -121t-184 -72q-100 -25 -196 -25q-121 0 -214 34q-95 33 -162 98
q-68 65 -102 155q-36 90 -36 204q0 49 7 105q8 60 27 112q20 53 53 89t87 36q47 0 80 -27q32 -29 32 -77q0 -59 -19 -112q-20 -55 -20 -107q0 -117 75 -177q74 -61 222 -61q18 0 58 4q46 5 92 12q57 9 85 17q38 11 38 22q0 9 -68 27q-58 19 -88 32q-38 15 -64 36
q-27 20 -40 50q-15 29 -15 75q0 100 39 169q40 69 103 110q62 41 144 61q81 18 167 18h180q65 0 93 14q26 14 26 49q0 47 -17 86q-18 38 -18 80q0 59 35 105q35 45 88 45q159 0 164 -281q0 -102 -30 -176q-32 -76 -83 -122q-53 -48 -121 -71q-69 -24 -143 -24h-384z" />
    <glyph glyph-name="uniFE8B_uniFEF2.liga" unicode="&#xfe8b;&#xfef2;" horiz-adv-x="1726" 
d="M595 -959q-40 -40 -94 -40q-53 0 -93 40q-40 39 -40 95q0 55 40 94q41 39 93 39q56 0 95 -39t39 -94q0 -56 -40 -95zM896 -959q-40 -40 -94 -40q-53 0 -93 40q-40 39 -40 95q0 55 40 94q41 39 93 39q56 0 95 -39t39 -94q0 -56 -40 -95zM1403 873q-85 -27 -101 -27
q-25 0 -42 12t-17 37t31 43q26 16 77 37q-43 43 -43 108q0 42 16 73q15 32 38 55q22 22 51 34t53 12q58 0 96 -22q39 -22 39 -57q0 -23 -10 -29t-27 -6q-21 0 -47 6q-25 6 -43 6q-36 0 -49 -19q-15 -19 -15 -40q0 -64 103 -64q10 0 29 4q34 8 44 11l46 10q20 4 34 4
q23 0 36 -12q12 -13 12 -29q0 -20 -11 -40q-12 -19 -51 -30zM885 0l75 -18q18 -4 74 -19q39 -12 72 -34q32 -21 56 -59q21 -36 21 -93q0 -95 -53 -169q-54 -73 -136 -121t-184 -72q-100 -25 -196 -25q-121 0 -214 34q-95 33 -162 98q-68 65 -102 155q-36 90 -36 204
q0 49 7 105q8 60 27 112q20 53 53 89t87 36q47 0 80 -27q32 -29 32 -77q0 -59 -19 -112q-20 -55 -20 -107q0 -117 75 -177q74 -61 222 -61q18 0 58 4q46 5 92 12q57 9 85 17q38 11 38 22q0 9 -68 27q-58 19 -88 32q-38 15 -64 36q-27 20 -40 50q-15 29 -15 75q0 100 39 169
q40 69 103 110q62 41 144 61q81 18 167 18h180q65 0 93 14q26 14 26 49q0 47 -17 86q-18 38 -18 80q0 59 35 105q35 45 88 45q159 0 164 -281q0 -102 -30 -176q-32 -76 -83 -122q-53 -48 -121 -71q-69 -24 -143 -24h-384z" />
    <glyph glyph-name="uniFE91_uniFEE4.liga" unicode="&#xfe91;&#xfee4;" horiz-adv-x="1356" 
d="M354 168q32 -31 80 -31q36 0 49 19q13 17 13 43q0 49 -31 89t-82 40q-29 0 -47 -18q-18 -19 -18 -60q1 -50 36 -82zM1138 -395q-43 -41 -101 -41t-99 41t-41 100t41 100t99 41t101 -41q42 -40 42 -100q0 -59 -42 -100zM821 0q-61 0 -104 10q-46 11 -82 35
q-58 -121 -217 -121q-147 0 -236 129q-64 -53 -151 -53h-31q-17 0 -32 4q-17 5 -17 12v263q0 6 17 11q18 5 32 5h19q57 0 94 39q34 35 74 85q34 43 80 85q44 39 116 39q60 0 102 -18q42 -20 75 -46q31 -25 62 -60q28 -33 60 -59q31 -27 74 -46q39 -19 98 -19h51q65 0 93 14
q26 14 26 49q0 47 -17 86q-18 38 -18 80q0 59 35 105q35 45 88 45q159 0 164 -281q0 -102 -30 -176q-32 -76 -83 -122q-53 -48 -121 -71q-69 -24 -143 -24h-78z" />
    <glyph glyph-name="uniFE92_uniFEE6.liga" unicode="&#xfe92;&#xfee6;" horiz-adv-x="1882" 
d="M689 485q-43 -41 -102 -41q-57 0 -98 41t-41 101q0 59 41 100t98 41q59 0 102 -41q42 -40 42 -100t-42 -101zM1666 -395q-43 -41 -102 -41q-57 0 -98 41t-41 100t41 100t98 41q59 0 102 -41q42 -40 42 -100q0 -59 -42 -100zM1297 0q-31 0 -57 6q-25 5 -50 17
q-10 -137 -53 -248q-42 -110 -114 -187q-74 -77 -177 -119q-105 -42 -242 -42q-147 0 -244 44q-95 43 -154 114q-60 71 -82 157q-24 89 -24 174q0 61 6 124q6 64 25 113q19 51 51 82t86 31q40 0 62 -25t22 -83q0 -55 -9 -102q-10 -44 -10 -89q0 -50 17 -98q17 -49 50 -83
q35 -36 88 -57q53 -22 132 -22q163 0 254 90q92 90 92 240q0 41 -13 77q-18 50 -29 74q-16 33 -30 71q-14 37 -14 73q0 55 41 91t84 36q50 0 78 -25q29 -25 57 -57q26 -30 67 -56q40 -26 112 -26q42 0 69 7q29 8 47 21q17 14 27 33q11 20 18 45q21 59 41 92q19 31 72 31
q49 0 71 -31q20 -31 39 -94q8 -23 20 -45q10 -19 29 -33q17 -14 45 -20q27 -6 68 -6h17v-295q-112 0 -181 29q-70 29 -108 82q-44 -47 -117 -79q-66 -29 -155 -32h-24z" />
    <glyph glyph-name="uniFE91_uniFEF0.liga" unicode="&#xfe91;&#xfef0;" horiz-adv-x="1739" 
d="M1521 -395q-43 -41 -101 -41t-99 41t-41 100t41 100t99 41t101 -41q42 -40 42 -100q0 -59 -42 -100zM885 0l75 -18q18 -4 74 -19q39 -12 72 -34q32 -21 56 -59q21 -36 21 -93q0 -95 -53 -169q-54 -73 -136 -121t-184 -72q-100 -25 -196 -25q-121 0 -214 34
q-95 33 -162 98q-68 65 -102 155q-36 90 -36 204q0 49 7 105q8 60 27 112q20 53 53 89t87 36q47 0 80 -27q32 -29 32 -77q0 -59 -19 -112q-20 -55 -20 -107q0 -117 75 -177q74 -61 222 -61q18 0 58 4q46 5 92 12q57 9 85 17q38 11 38 22q0 9 -68 27q-58 19 -88 32
q-38 15 -64 36q-27 20 -40 50q-15 29 -15 75q0 100 39 169q40 69 103 110q62 41 144 61q81 18 167 18h193q65 0 93 14q26 14 26 49q0 47 -17 86q-18 38 -18 80q0 59 35 105q35 45 88 45q159 0 164 -281q0 -102 -30 -176q-32 -76 -83 -122q-53 -48 -121 -71q-69 -24 -143 -24
h-397z" />
    <glyph glyph-name="uniFE91_uniFEF2.liga" unicode="&#xfe91;&#xfef2;" horiz-adv-x="1739" 
d="M595 -959q-40 -40 -94 -40q-53 0 -93 40q-40 39 -40 95q0 55 40 94q41 39 93 39q56 0 95 -39t39 -94q0 -56 -40 -95zM896 -959q-40 -40 -94 -40q-53 0 -93 40q-40 39 -40 95q0 55 40 94q41 39 93 39q56 0 95 -39t39 -94q0 -56 -40 -95zM1521 -395q-43 -41 -101 -41
t-99 41t-41 100t41 100t99 41t101 -41q42 -40 42 -100q0 -59 -42 -100zM885 0l75 -18q18 -4 74 -19q39 -12 72 -34q32 -21 56 -59q21 -36 21 -93q0 -95 -53 -169q-54 -73 -136 -121t-184 -72q-100 -25 -196 -25q-121 0 -214 34q-95 33 -162 98q-68 65 -102 155
q-36 90 -36 204q0 49 7 105q8 60 27 112q20 53 53 89t87 36q47 0 80 -27q32 -29 32 -77q0 -59 -19 -112q-20 -55 -20 -107q0 -117 75 -177q74 -61 222 -61q18 0 58 4q46 5 92 12q57 9 85 17q38 11 38 22q0 9 -68 27q-58 19 -88 32q-38 15 -64 36q-27 20 -40 50
q-15 29 -15 75q0 100 39 169q40 69 103 110q62 41 144 61q81 18 167 18h193q65 0 93 14q26 14 26 49q0 47 -17 86q-18 38 -18 80q0 59 35 105q35 45 88 45q159 0 164 -281q0 -102 -30 -176q-32 -76 -83 -122q-53 -48 -121 -71q-69 -24 -143 -24h-397z" />
    <glyph glyph-name="uniFE97_uniFEE4.liga" unicode="&#xfe97;&#xfee4;" horiz-adv-x="1372" 
d="M354 168q32 -31 80 -31q36 0 49 19q13 17 13 43q0 49 -31 89t-82 40q-29 0 -47 -18q-18 -19 -18 -60q1 -50 36 -82zM1050 854q-40 -39 -94 -39q-52 0 -93 39q-40 39 -40 94q0 56 40 96q41 39 93 39q56 0 95 -39q38 -41 38 -96t-39 -94zM1351 854q-40 -39 -94 -39
q-52 0 -93 39q-40 39 -40 94q0 56 40 96q41 39 93 39q56 0 95 -39q39 -40 39 -96q0 -55 -40 -94zM821 0q-61 0 -104 10q-46 11 -82 35q-58 -121 -217 -121q-147 0 -236 129q-64 -53 -151 -53h-31q-17 0 -32 4q-17 5 -17 12v263q0 6 17 11q18 5 32 5h19q57 0 94 39
q34 35 74 85q34 43 80 85q44 39 116 39q60 0 102 -18q42 -20 75 -46q31 -25 62 -60q28 -33 60 -59q31 -27 74 -46q39 -19 98 -19h57q65 0 93 14q26 14 26 49q0 47 -17 86q-18 38 -18 80q0 59 35 105q35 45 88 45q159 0 164 -281q0 -102 -30 -176q-32 -76 -83 -122
q-53 -48 -121 -71q-69 -24 -143 -24h-84z" />
    <glyph glyph-name="uniFE98_uniFEE6.liga" unicode="&#xfe98;&#xfee6;" horiz-adv-x="1883" 
d="M689 485q-43 -41 -102 -41q-57 0 -98 41t-41 101q0 59 41 100t98 41q59 0 102 -41q42 -40 42 -100t-42 -101zM1504 694q-40 -39 -94 -39q-52 0 -93 39q-40 39 -40 94q0 56 40 96t93 40q56 0 95 -40q38 -41 38 -96t-39 -94zM1805 694q-40 -39 -94 -39q-52 0 -93 39
q-40 39 -40 94q0 56 40 96t93 40q56 0 95 -40q38 -41 38 -96t-39 -94zM1300 0q-34 0 -60 6q-25 5 -50 17q-10 -137 -53 -248q-42 -110 -114 -187q-74 -77 -177 -119q-105 -42 -242 -42q-147 0 -244 44q-95 43 -154 114q-60 71 -82 157q-24 89 -24 174q0 61 6 124
q6 64 25 113q19 51 51 82t86 31q40 0 62 -25t22 -83q0 -55 -9 -102q-10 -44 -10 -89q0 -50 17 -98q17 -49 50 -83q35 -36 88 -57q53 -22 132 -22q163 0 254 90q92 90 92 240q0 41 -13 77q-18 50 -29 74q-16 33 -30 71q-14 37 -14 73q0 55 41 91t84 36q50 0 78 -25
q29 -25 57 -57q26 -30 67 -56q40 -26 112 -26q43 0 70 7q29 8 47 21q17 14 27 33q11 20 18 45q21 59 41 92q19 31 72 31q49 0 71 -31q20 -31 39 -94q8 -23 20 -45q10 -19 29 -33q17 -14 45 -20q27 -6 68 -6h17v-295q-112 0 -181 29q-70 29 -108 82q-44 -47 -117 -79
q-66 -29 -156 -32h-21z" />
    <glyph glyph-name="uniFE97_uniFEF0.liga" unicode="&#xfe97;&#xfef0;" horiz-adv-x="1738" 
d="M1416 854q-40 -39 -94 -39q-52 0 -93 39q-40 39 -40 94q0 56 40 96q41 39 93 39q56 0 95 -39q38 -41 38 -96t-39 -94zM1717 854q-40 -39 -94 -39q-52 0 -93 39q-40 39 -40 94q0 56 40 96q41 39 93 39q56 0 95 -39q39 -40 39 -96q0 -55 -40 -94zM885 0l75 -18
q18 -4 74 -19q39 -12 72 -34q32 -21 56 -59q21 -36 21 -93q0 -95 -53 -169q-54 -73 -136 -121t-184 -72q-100 -25 -196 -25q-121 0 -214 34q-95 33 -162 98q-68 65 -102 155q-36 90 -36 204q0 49 7 105q8 60 27 112q20 53 53 89t87 36q47 0 80 -27q32 -29 32 -77
q0 -59 -19 -112q-20 -55 -20 -107q0 -117 75 -177q74 -61 222 -61q18 0 58 4q46 5 92 12q57 9 85 17q38 11 38 22q0 9 -68 27q-58 19 -88 32q-38 15 -64 36q-27 20 -40 50q-15 29 -15 75q0 100 39 169q40 69 103 110q62 41 144 61q81 18 167 18h182q65 0 93 14q26 14 26 49
q0 47 -17 86q-18 38 -18 80q0 59 35 105q35 45 88 45q159 0 164 -281q0 -102 -30 -176q-32 -76 -83 -122q-53 -48 -121 -71q-69 -24 -143 -24h-386z" />
    <glyph glyph-name="uniFE97_uniFEF2.liga" unicode="&#xfe97;&#xfef2;" horiz-adv-x="1738" 
d="M595 -959q-40 -40 -94 -40q-53 0 -93 40q-40 39 -40 95q0 55 40 94q41 39 93 39q56 0 95 -39t39 -94q0 -56 -40 -95zM896 -959q-40 -40 -94 -40q-53 0 -93 40q-40 39 -40 95q0 55 40 94q41 39 93 39q56 0 95 -39t39 -94q0 -56 -40 -95zM1416 854q-40 -39 -94 -39
q-52 0 -93 39q-40 39 -40 94q0 56 40 96q41 39 93 39q56 0 95 -39q38 -41 38 -96t-39 -94zM1717 854q-40 -39 -94 -39q-52 0 -93 39q-40 39 -40 94q0 56 40 96q41 39 93 39q56 0 95 -39q39 -40 39 -96q0 -55 -40 -94zM885 0l75 -18q18 -4 74 -19q39 -12 72 -34
q32 -21 56 -59q21 -36 21 -93q0 -95 -53 -169q-54 -73 -136 -121t-184 -72q-100 -25 -196 -25q-121 0 -214 34q-95 33 -162 98q-68 65 -102 155q-36 90 -36 204q0 49 7 105q8 60 27 112q20 53 53 89t87 36q47 0 80 -27q32 -29 32 -77q0 -59 -19 -112q-20 -55 -20 -107
q0 -117 75 -177q74 -61 222 -61q18 0 58 4q46 5 92 12q57 9 85 17q38 11 38 22q0 9 -68 27q-58 19 -88 32q-38 15 -64 36q-27 20 -40 50q-15 29 -15 75q0 100 39 169q40 69 103 110q62 41 144 61q81 18 167 18h182q65 0 93 14q26 14 26 49q0 47 -17 86q-18 38 -18 80
q0 59 35 105q35 45 88 45q159 0 164 -281q0 -102 -30 -176q-32 -76 -83 -122q-53 -48 -121 -71q-69 -24 -143 -24h-386z" />
    <glyph glyph-name="uniFE9C_uniFEAE.liga" unicode="&#xfe9c;&#xfeae;" horiz-adv-x="1529" 
d="M1150 694q-40 -39 -94 -39q-52 0 -93 39q-40 39 -40 94q0 56 40 96t93 40q56 0 95 -40q38 -41 38 -96t-39 -94zM1451 694q-40 -39 -94 -39q-52 0 -93 39q-40 39 -40 94q0 56 40 96t93 40q56 0 95 -40q38 -41 38 -96t-39 -94zM1303 944q-40 -39 -95 -39q-52 0 -93 39
q-40 39 -40 94q0 56 40 96t93 40q57 0 96 -40t39 -96q0 -55 -40 -94zM910 0q-70 5 -120 30q-29 17 -64 43q1 4 -4 -11q-39 -109 -99 -193q-64 -87 -134 -143q-73 -60 -144 -99q-72 -40 -126 -56q-57 -17 -83 -17q-64 0 -99 30q-34 28 -34 70q0 58 30 89q28 31 76 54
q185 86 291 210q105 125 105 306q0 11 -2 41q-2 28 -2 43q0 35 4 63q5 34 16 58q12 25 34 41q20 16 56 16q87 0 124 -91q15 -30 26 -59q11 -31 32 -62q20 -29 52 -48q32 -20 90 -20h28q45 0 72 7q29 8 47 21q17 14 27 33q11 20 18 45q21 59 41 92q19 31 72 31q49 0 71 -31
q20 -31 39 -94q8 -23 20 -45q10 -19 29 -33q17 -14 45 -20q27 -6 68 -6h17v-295q-112 0 -181 29q-70 29 -108 82q-44 -47 -117 -79q-62 -27 -153 -32h-60z" />
    <glyph glyph-name="uniFE9B_uniFEE4.liga" unicode="&#xfe9b;&#xfee4;" horiz-adv-x="1360" 
d="M354 168q32 -31 80 -31q36 0 49 19q13 17 13 43q0 49 -31 89t-82 40q-29 0 -47 -18q-18 -19 -18 -60q1 -50 36 -82zM1038 854q-40 -39 -94 -39q-52 0 -93 39q-40 39 -40 94q0 56 40 96q41 39 93 39q56 0 95 -39q38 -41 38 -96t-39 -94zM1339 854q-40 -39 -94 -39
q-52 0 -93 39q-40 39 -40 94q0 56 40 96q41 39 93 39q56 0 95 -39q39 -40 39 -96q0 -55 -40 -94zM1191 1104q-40 -39 -95 -39q-52 0 -93 39q-40 39 -40 94t40 95t93 40q57 0 96 -40t39 -95t-40 -94zM821 0q-61 0 -104 10q-46 11 -82 35q-58 -121 -217 -121q-147 0 -236 129
q-64 -53 -151 -53h-31q-17 0 -32 4q-17 5 -17 12v263q0 6 17 11q18 5 32 5h19q57 0 94 39q34 35 74 85q34 43 80 85q44 39 116 39q60 0 102 -18q42 -20 75 -46q31 -25 62 -60q28 -33 60 -59q31 -27 74 -46q39 -19 98 -19h45q65 0 93 14q26 14 26 49q0 47 -17 86
q-18 38 -18 80q0 59 35 105q35 45 88 45q159 0 164 -281q0 -102 -30 -176q-32 -76 -83 -122q-53 -48 -121 -71q-69 -24 -143 -24h-72z" />
    <glyph glyph-name="uniFE9C_uniFEE6.liga" unicode="&#xfe9c;&#xfee6;" horiz-adv-x="1881" 
d="M689 485q-43 -41 -102 -41q-57 0 -98 41t-41 101q0 59 41 100t98 41q59 0 102 -41q42 -40 42 -100t-42 -101zM1512 694q-40 -39 -94 -39q-52 0 -93 39q-40 39 -40 94q0 56 40 96t93 40q56 0 95 -40q38 -41 38 -96t-39 -94zM1813 694q-40 -39 -94 -39q-52 0 -93 39
q-40 39 -40 94q0 56 40 96t93 40q56 0 95 -40q38 -41 38 -96t-39 -94zM1665 944q-40 -39 -95 -39q-52 0 -93 39q-40 39 -40 94q0 56 40 96t93 40q57 0 96 -40t39 -96q0 -55 -40 -94zM1295 0q-31 1 -55 6q-25 5 -50 17q-10 -137 -53 -248q-42 -110 -114 -187
q-74 -77 -177 -119q-105 -42 -242 -42q-147 0 -244 44q-95 43 -154 114q-60 71 -82 157q-24 89 -24 174q0 61 6 124q6 64 25 113q19 51 51 82t86 31q40 0 62 -25t22 -83q0 -55 -9 -102q-10 -44 -10 -89q0 -50 17 -98q17 -49 50 -83q35 -36 88 -57q53 -22 132 -22
q163 0 254 90q92 90 92 240q0 41 -13 77q-18 50 -29 74q-16 33 -30 71q-14 37 -14 73q0 55 41 91t84 36q50 0 78 -25q29 -25 57 -57q26 -30 67 -56q40 -26 111 -26q42 0 69 7q29 8 47 21q17 14 27 33q11 20 18 45q21 59 41 92q19 31 72 31q49 0 71 -31q20 -31 39 -94
q8 -23 20 -45q10 -19 29 -33q17 -14 45 -20q27 -6 68 -6h17v-295q-112 0 -181 29q-70 29 -108 82q-44 -47 -117 -79q-66 -29 -154 -32h-26z" />
    <glyph glyph-name="uniFE9B_uniFEF0.liga" unicode="&#xfe9b;&#xfef0;" horiz-adv-x="1735" 
d="M1413 854q-40 -39 -94 -39q-52 0 -93 39q-40 39 -40 94q0 56 40 96q41 39 93 39q56 0 95 -39q38 -41 38 -96t-39 -94zM1714 854q-40 -39 -94 -39q-52 0 -93 39q-40 39 -40 94q0 56 40 96q41 39 93 39q56 0 95 -39q39 -40 39 -96q0 -55 -40 -94zM1566 1104
q-40 -39 -95 -39q-52 0 -93 39q-40 39 -40 94t40 95t93 40q57 0 96 -40t39 -95t-40 -94zM885 0l75 -18q18 -4 74 -19q39 -12 72 -34q32 -21 56 -59q21 -36 21 -93q0 -95 -53 -169q-54 -73 -136 -121t-184 -72q-100 -25 -196 -25q-121 0 -214 34q-95 33 -162 98
q-68 65 -102 155q-36 90 -36 204q0 49 7 105q8 60 27 112q20 53 53 89t87 36q47 0 80 -27q32 -29 32 -77q0 -59 -19 -112q-20 -55 -20 -107q0 -117 75 -177q74 -61 222 -61q18 0 58 4q46 5 92 12q57 9 85 17q38 11 38 22q0 9 -68 27q-58 19 -88 32q-38 15 -64 36
q-27 20 -40 50q-15 29 -15 75q0 100 39 169q40 69 103 110q62 41 144 61q81 18 167 18h179q65 0 93 14q26 14 26 49q0 47 -17 86q-18 38 -18 80q0 59 35 105q35 45 88 45q159 0 164 -281q0 -102 -30 -176q-32 -76 -83 -122q-53 -48 -121 -71q-69 -24 -143 -24h-383z" />
    <glyph glyph-name="uniFE9B_uniFEF2.liga" unicode="&#xfe9b;&#xfef2;" horiz-adv-x="1735" 
d="M595 -959q-40 -40 -94 -40q-53 0 -93 40q-40 39 -40 95q0 55 40 94q41 39 93 39q56 0 95 -39t39 -94q0 -56 -40 -95zM896 -959q-40 -40 -94 -40q-53 0 -93 40q-40 39 -40 95q0 55 40 94q41 39 93 39q56 0 95 -39t39 -94q0 -56 -40 -95zM1413 854q-40 -39 -94 -39
q-52 0 -93 39q-40 39 -40 94q0 56 40 96q41 39 93 39q56 0 95 -39q38 -41 38 -96t-39 -94zM1714 854q-40 -39 -94 -39q-52 0 -93 39q-40 39 -40 94q0 56 40 96q41 39 93 39q56 0 95 -39q39 -40 39 -96q0 -55 -40 -94zM1566 1104q-40 -39 -95 -39q-52 0 -93 39q-40 39 -40 94
t40 95t93 40q57 0 96 -40t39 -95t-40 -94zM885 0l75 -18q18 -4 74 -19q39 -12 72 -34q32 -21 56 -59q21 -36 21 -93q0 -95 -53 -169q-54 -73 -136 -121t-184 -72q-100 -25 -196 -25q-121 0 -214 34q-95 33 -162 98q-68 65 -102 155q-36 90 -36 204q0 49 7 105q8 60 27 112
q20 53 53 89t87 36q47 0 80 -27q32 -29 32 -77q0 -59 -19 -112q-20 -55 -20 -107q0 -117 75 -177q74 -61 222 -61q18 0 58 4q46 5 92 12q57 9 85 17q38 11 38 22q0 9 -68 27q-58 19 -88 32q-38 15 -64 36q-27 20 -40 50q-15 29 -15 75q0 100 39 169q40 69 103 110
q62 41 144 61q81 18 167 18h179q65 0 93 14q26 14 26 49q0 47 -17 86q-18 38 -18 80q0 59 35 105q35 45 88 45q159 0 164 -281q0 -102 -30 -176q-32 -76 -83 -122q-53 -48 -121 -71q-69 -24 -143 -24h-383z" />
    <glyph glyph-name="uniFEDB_uniFEF0.liga" unicode="&#xfedb;&#xfef0;" horiz-adv-x="2110" 
d="M885 0l75 -18q18 -4 74 -19q39 -12 72 -34q32 -21 56 -59q21 -36 21 -93q0 -95 -53 -169q-54 -73 -136 -121t-184 -72q-100 -25 -196 -25q-121 0 -214 34q-95 33 -162 98q-68 65 -102 155q-36 90 -36 204q0 49 7 105q8 60 27 112q20 53 53 89t87 36q47 0 80 -27
q32 -29 32 -77q0 -59 -19 -112q-20 -55 -20 -107q0 -117 75 -177q74 -61 222 -61q18 0 58 4q46 5 92 12q57 9 85 17q38 11 38 22q0 9 -68 27q-58 19 -88 32q-38 15 -64 36q-27 20 -40 50q-15 29 -15 75q0 100 39 169q40 69 103 110q62 41 144 61q81 18 167 18h266q32 0 57 1
q50 2 75 5q41 5 65 14q29 9 29 25q0 29 -30 65q-34 39 -75 76l-97 88q-50 44 -97 96q-46 49 -75 97q-30 50 -30 98q0 55 24 110q22 54 74 87q50 30 146 73q93 40 193 74q105 36 191 60q92 24 140 24q66 0 103 -42q36 -42 36 -91q0 -34 -18 -57q-19 -24 -44 -37
q-28 -15 -55 -22l-55 -17l-221 -64q-110 -34 -244 -84q388 -301 388 -524q0 -128 -63 -199q-65 -71 -157 -105q-93 -34 -199 -40q-85 -4 -159 -6h-378z" />
    <glyph glyph-name="uniFEDC_uniFEF0.liga" unicode="&#xfedc;&#xfef0;" horiz-adv-x="2189" 
d="M885 0l75 -18q18 -4 74 -19q39 -12 72 -34q32 -21 56 -59q21 -36 21 -93q0 -95 -53 -169q-54 -73 -136 -121t-184 -72q-100 -25 -196 -25q-121 0 -214 34q-95 33 -162 98q-68 65 -102 155q-36 90 -36 204q0 49 7 105q8 60 27 112q20 53 53 89t87 36q47 0 80 -27
q32 -29 32 -77q0 -59 -19 -112q-20 -55 -20 -107q0 -117 75 -177q74 -61 222 -61q18 0 58 4q46 5 92 12q57 9 85 17q38 11 38 22q0 9 -68 27q-58 19 -88 32q-38 15 -64 36q-27 20 -40 50q-15 29 -15 75q0 100 39 169q40 69 103 110q62 41 144 61q81 18 167 18h278q65 0 89 4
q54 5 81 14q32 9 32 27q0 29 -30 66q-32 38 -76 78l-98 90q-42 37 -98 95q-50 51 -76 97q-30 50 -30 96q0 57 29 112q28 54 82 85q91 51 182 88q105 42 194 72q84 27 170 49q77 18 113 18q56 0 102 -34t46 -97q0 -41 -27 -71q-27 -31 -90 -48q-117 -28 -270 -73
q-132 -39 -267 -89q172 -158 257 -238q140 -132 249 -230q119 -111 229 -111h23v-295q-45 0 -93 6q-46 6 -99 29q-52 22 -107 64q-52 39 -113 116q-32 -78 -95 -122q-67 -46 -140 -64q-74 -20 -157 -25q-38 -2 -122 -4h-378z" />
    <glyph glyph-name="uniFEDB_uniFEF2.liga" unicode="&#xfedb;&#xfef2;" horiz-adv-x="2110" 
d="M595 -959q-40 -40 -94 -40q-53 0 -93 40q-40 39 -40 95q0 55 40 94q41 39 93 39q56 0 95 -39t39 -94q0 -56 -40 -95zM896 -959q-40 -40 -94 -40q-53 0 -93 40q-40 39 -40 95q0 55 40 94q41 39 93 39q56 0 95 -39t39 -94q0 -56 -40 -95zM885 0l75 -18q18 -4 74 -19
q39 -12 72 -34q32 -21 56 -59q21 -36 21 -93q0 -95 -53 -169q-54 -73 -136 -121t-184 -72q-100 -25 -196 -25q-121 0 -214 34q-95 33 -162 98q-68 65 -102 155q-36 90 -36 204q0 49 7 105q8 60 27 112q20 53 53 89t87 36q47 0 80 -27q32 -29 32 -77q0 -59 -19 -112
q-20 -55 -20 -107q0 -117 75 -177q74 -61 222 -61q18 0 58 4q46 5 92 12q57 9 85 17q38 11 38 22q0 9 -68 27q-58 19 -88 32q-38 15 -64 36q-27 20 -40 50q-15 29 -15 75q0 100 39 169q40 69 103 110q62 41 144 61q81 18 167 18h266q32 0 57 1q50 2 75 5q41 5 65 14
q29 9 29 25q0 29 -30 65q-34 39 -75 76l-97 88q-50 44 -97 96q-46 49 -75 97q-30 50 -30 98q0 55 24 110q22 54 74 87q50 30 146 73q93 40 193 74q105 36 191 60q92 24 140 24q66 0 103 -42q36 -42 36 -91q0 -34 -18 -57q-19 -24 -44 -37q-28 -15 -55 -22l-55 -17l-221 -64
q-110 -34 -244 -84q388 -301 388 -524q0 -128 -63 -199q-65 -71 -157 -105q-93 -34 -199 -40q-85 -4 -159 -6h-378z" />
    <glyph glyph-name="uniFEDC_uniFEF2.liga" unicode="&#xfedc;&#xfef2;" horiz-adv-x="2189" 
d="M595 -959q-40 -40 -94 -40q-53 0 -93 40q-40 39 -40 95q0 55 40 94q41 39 93 39q56 0 95 -39t39 -94q0 -56 -40 -95zM896 -959q-40 -40 -94 -40q-53 0 -93 40q-40 39 -40 95q0 55 40 94q41 39 93 39q56 0 95 -39t39 -94q0 -56 -40 -95zM885 0l75 -18q18 -4 74 -19
q39 -12 72 -34q32 -21 56 -59q21 -36 21 -93q0 -95 -53 -169q-54 -73 -136 -121t-184 -72q-100 -25 -196 -25q-121 0 -214 34q-95 33 -162 98q-68 65 -102 155q-36 90 -36 204q0 49 7 105q8 60 27 112q20 53 53 89t87 36q47 0 80 -27q32 -29 32 -77q0 -59 -19 -112
q-20 -55 -20 -107q0 -117 75 -177q74 -61 222 -61q18 0 58 4q46 5 92 12q57 9 85 17q38 11 38 22q0 9 -68 27q-58 19 -88 32q-38 15 -64 36q-27 20 -40 50q-15 29 -15 75q0 100 39 169q40 69 103 110q62 41 144 61q81 18 167 18h278q65 0 89 4q54 5 81 14q32 9 32 27
q0 29 -30 66q-32 38 -76 78l-98 90q-42 37 -98 95q-50 51 -76 97q-30 50 -30 96q0 57 29 112q28 54 82 85q91 51 182 88q105 42 194 72q84 27 170 49q77 18 113 18q56 0 102 -34t46 -97q0 -41 -27 -71q-27 -31 -90 -48q-117 -28 -270 -73q-132 -39 -267 -89
q172 -158 257 -238q140 -132 249 -230q119 -111 229 -111h23v-295q-45 0 -93 6q-46 6 -99 29q-52 22 -107 64q-52 39 -113 116q-32 -78 -95 -122q-67 -46 -140 -64q-74 -20 -157 -25q-38 -2 -122 -4h-378z" />
    <glyph glyph-name="uniFEDF_uniFB51.rlig" unicode="&#xfedf;&#xfb51;" horiz-adv-x="1112" 
d="M866 1278q48 0 92 -40q45 -40 49 -124l24 -488q1 -11 1 -24q0 -323 -163 -486t-462 -163q-57 0 -99 11q-39 10 -62 30q-23 19 -32 42q-10 21 -10 48q0 47 30 86t99 39q78 0 163 8q77 7 141 43q60 34 98 107q37 70 37 198q0 152 -19 282q-20 137 -20 269q0 81 40 121
q41 41 93 41zM366 1235q46 0 84 -35q37 -34 67 -90q30 -59 50 -125q23 -82 35 -140q14 -75 20 -136q6 -66 6 -111q0 -71 -1 -108q-2 -59 -13 -103q-13 -49 -40 -76q-28 -30 -79 -30q-39 0 -68 23q-30 23 -30 75q0 42 3 73q3 32 3 64q0 147 -24 235q-26 91 -54 151
q-23 51 -53 106q-25 44 -25 102q0 51 34 88t85 37zM351 1417q28 0 56 3q26 3 51 11q23 8 39 18q15 11 15 27q0 18 -13 27q-14 8 -28 8q-50 0 -120 -94zM189 1365q-14 11 -38 15h-6q-12 0 -27 -4q-18 -5 -31 -5t-18 4q-7 4 -7 18q0 22 26 39q9 5 22 10q23 5 41 5q35 0 66 -10
l42 -16l17 -5l31 44q87 136 174 136q48 0 76 -28q29 -29 29 -74q0 -34 -12 -60q-14 -27 -34 -44q-20 -19 -48 -31q-26 -12 -65 -21q-42 -10 -71 -11q-8 -1 -26 -1q-25 0 -38 1l-32 -45q-2 -3 -7 -8q-11 -8 -19 -8h-2q-12 2 -19 10q-5 7 -5 15q0 9 3 19t7 16q4 9 10 18
q-19 8 -39 21z" />
    <glyph glyph-name="uniFEE0_uniFB51.rlig" unicode="&#xfee0;&#xfb51;" horiz-adv-x="1192" 
d="M1155 0q-86 0 -149 42q-64 42 -99 120q-158 -209 -499 -209q-58 0 -100 11q-39 10 -62 30q-23 19 -32 42t-9 48q0 47 30 86q29 39 99 39q78 0 163 8q76 7 140 43q60 34 98 107q37 70 37 198q0 152 -19 282q-20 137 -20 269q0 81 40 121q41 41 93 41q47 0 93 -40
q45 -40 49 -124l13 -274q6 -150 7 -150v1l3 -65q1 -11 1 -24q0 -32 5 -90q4 -49 22 -101q17 -50 46 -82q30 -34 79 -34h8v-295h-37zM367 1235q46 0 84 -35q36 -34 66 -90q31 -57 51 -125q23 -84 34 -140q13 -69 21 -136q6 -66 6 -111q0 -71 -1 -108q-2 -59 -13 -103
q-14 -49 -40 -76q-28 -30 -79 -30q-38 0 -69 23q-30 23 -30 75q0 42 3 73q3 32 3 64q0 147 -24 235q-28 97 -53 151q-23 51 -53 106q-25 44 -25 102q0 51 34 88q33 37 85 37zM351 1417q28 0 56 3q26 3 51 11q23 8 39 18q15 11 15 27q0 18 -13 27q-14 8 -28 8q-50 0 -120 -94
zM189 1365q-14 11 -38 15h-6q-12 0 -27 -4q-18 -5 -31 -5t-18 4q-7 4 -7 18q0 22 26 39q9 5 22 10q23 5 41 5q35 0 66 -10l42 -16l17 -5l31 44q87 136 174 136q48 0 76 -28q29 -29 29 -74q0 -34 -12 -60q-14 -27 -34 -44q-20 -19 -48 -31q-26 -12 -65 -21q-42 -10 -71 -11
q-8 -1 -26 -1q-25 0 -38 1l-32 -45q-2 -3 -7 -8q-11 -8 -19 -8h-2q-12 2 -19 10q-5 7 -5 15q0 9 3 19t7 16q4 9 10 18q-19 8 -39 21z" />
    <glyph glyph-name="uniFEDF_uniFEE2.liga" unicode="&#xfedf;&#xfee2;" horiz-adv-x="1606" 
d="M707 311q-28 37 -68 37q-34 0 -66 -29q-31 -30 -31 -65q0 -21 15 -38q12 -15 34 -30q20 -14 41 -21q20 -7 35 -7q33 0 51 25q17 25 17 53q0 38 -28 75zM1065 0q-62 2 -105 16q-46 14 -86 41q-41 -60 -95 -91q-55 -32 -106 -32q-98 0 -160 41q-62 40 -122 115
q-23 -6 -32 -33q-9 -28 -9 -69v-611q0 -54 -31 -82q-31 -30 -72 -30q-46 0 -78 28q-33 26 -38 82l-31 664q0 77 21 132q20 56 54 96q35 42 80 66q47 26 97 42q32 25 62 61q29 35 60 66q30 29 70 51q38 20 93 20q87 0 154 -57q68 -58 138 -172q17 -28 54 -38q39 -11 106 -11
h53q78 0 97 27q18 26 18 88q0 179 -5 377q-6 179 -6 356q0 67 41 103t84 36q26 0 49 -10q26 -12 43 -29q18 -18 31 -49q12 -28 12 -66v-675q0 -89 -10 -168q-11 -83 -43 -145q-33 -64 -95 -102q-64 -38 -167 -38h-126z" />
    <glyph glyph-name="uniFEE4_uniFE8E.liga" unicode="&#xfee4;&#xfe8e;" horiz-adv-x="1412" 
d="M893 168q32 -31 80 -31q36 0 49 19q13 17 13 43q0 49 -31 89t-82 40q-29 0 -47 -18q-18 -19 -18 -60q1 -50 36 -82zM533 0q-105 0 -175 26q-70 25 -112 73q-41 47 -61 116q-20 70 -26 152q-3 37 -4 66q-2 49 -6 116q-6 85 -8 148q-4 108 -5 161l-2 79q-2 52 -2 75
q-2 98 -2 129q0 78 38 114q38 35 91 35q57 0 97 -40t40 -124v-671q0 -73 35 -117q34 -43 107 -43h20q57 0 94 39q34 35 74 85q34 43 80 85q44 39 116 39q60 0 102 -18q42 -20 75 -46q31 -25 62 -60q28 -33 60 -59q31 -27 74 -46q39 -19 98 -19h19v-295h-52q-61 0 -104 10
q-46 11 -82 35q-58 -121 -217 -121q-147 0 -236 129q-64 -53 -151 -53h-37z" />
    <glyph glyph-name="uniFEE4_uniFE82.liga" unicode="&#xfee4;&#xfe82;" horiz-adv-x="1512" 
d="M18 1470q17 44 48 78q30 35 70 57q41 21 83 21q85 0 153 -11t136 -11q32 0 54 16q23 17 43 37q23 23 42 37q20 16 49 16q28 0 44 -19t16 -61q0 -48 -23 -89q-24 -40 -61 -67q-37 -28 -80 -43q-42 -16 -82 -16t-72 3q-21 2 -63 8q-21 3 -61 7q-31 3 -66 3q-36 0 -58 -17
q-20 -16 -38 -39q-16 -22 -36 -39q-19 -18 -50 -18q-28 0 -47 14q-19 13 -19 47q0 43 18 86zM993 168q32 -31 80 -31q36 0 49 19q13 17 13 43q0 49 -31 89t-82 40q-29 0 -47 -18q-18 -19 -18 -60q1 -50 36 -82zM637 0q-106 0 -176 26q-70 25 -112 73q-41 47 -61 116
q-20 70 -26 152q-3 37 -4 66q-2 49 -6 116q-3 51 -7 148q-4 108 -5 161l-2 79q-2 52 -2 75q-3 74 -3 129q0 78 38 114q38 35 91 35q58 0 98 -40t40 -124v-671q0 -73 35 -117q34 -43 106 -43h17q57 0 94 39q34 35 74 85q34 43 80 85q44 39 116 39q60 0 102 -18q42 -20 75 -46
q31 -25 62 -60q28 -33 60 -59q31 -27 74 -46q39 -19 98 -19h19v-295h-52q-61 0 -104 10q-46 11 -82 35q-58 -121 -217 -121q-147 0 -236 129q-64 -53 -151 -53h-33z" />
    <glyph glyph-name="uniFEE4_uniFE84.liga" unicode="&#xfee4;&#xfe84;" horiz-adv-x="1433" 
d="M211 1444q-85 -27 -102 -27q-25 0 -41 13q-18 12 -18 36q0 25 31 44q30 18 78 36q-43 43 -43 109q0 42 15 73t38 54q21 21 51 35q29 12 53 12q59 0 97 -22q38 -23 38 -58q0 -23 -10 -29t-26 -6q-23 0 -47 6q-25 6 -44 6q-35 0 -48 -19q-15 -19 -15 -40q0 -63 102 -63
q12 0 29 4l44 10q12 3 47 10q20 4 34 4q22 0 35 -12q12 -12 12 -29q0 -19 -11 -39q-10 -19 -50 -30q-163 -52 -249 -78zM914 168q32 -31 80 -31q36 0 49 19q13 17 13 43q0 49 -31 89t-82 40q-29 0 -47 -18q-18 -19 -18 -60q1 -50 36 -82zM556 0q-106 0 -176 26
q-70 25 -112 73q-41 47 -61 116q-20 70 -26 152q-3 37 -4 66q-2 49 -6 116q-3 51 -7 148q-4 108 -5 161q-4 107 -5 154q-2 98 -2 129q0 78 38 114q38 35 91 35q58 0 98 -40t40 -124v-671q0 -73 35 -117q34 -43 106 -43h19q57 0 94 39q34 35 74 85q34 43 80 85q44 39 116 39
q60 0 102 -18q42 -20 75 -46q31 -25 62 -60q28 -33 60 -59q31 -27 74 -46q39 -19 98 -19h19v-295h-52q-61 0 -104 10q-46 11 -82 35q-58 -121 -217 -121q-147 0 -236 129q-64 -53 -151 -53h-35z" />
    <glyph glyph-name="uniFEE4_uniFE88.liga" unicode="&#xfee4;&#xfe88;" horiz-adv-x="1391" 
d="M211 -538q-85 -27 -102 -27q-24 0 -41 11q-18 11 -18 38q0 22 31 41q30 18 78 39q-43 39 -43 108q0 42 15 73q15 32 38 55q22 22 51 34t53 12q57 0 97 -23q38 -24 38 -59q0 -23 -10 -27q-12 -5 -26 -5q-23 0 -47 6q-25 6 -44 6q-35 0 -48 -19q-15 -19 -15 -40
q0 -64 102 -64q12 0 29 4q34 8 44 11q12 3 47 10q20 4 34 4q22 0 35 -12q12 -13 12 -29q0 -20 -11 -40t-50 -32zM872 168q32 -31 80 -31q36 0 49 19q13 17 13 43q0 49 -31 89t-82 40q-29 0 -47 -18q-18 -19 -18 -60q1 -50 36 -82zM516 0q-104 0 -176 26q-70 25 -112 73
q-41 47 -61 116q-18 62 -26 152q-3 37 -4 66q-2 49 -6 116q-3 51 -7 148q-4 108 -5 161l-2 79q-2 52 -2 75q-2 98 -2 129q0 78 38 114q38 35 91 35q57 0 97 -40t40 -124v-671q0 -73 35 -117q34 -43 106 -43h17q57 0 94 39q34 35 74 85q34 43 80 85q44 39 116 39
q60 0 102 -18q42 -20 75 -46q31 -25 62 -60q28 -33 60 -59q31 -27 74 -46q39 -19 98 -19h19v-295h-52q-61 0 -104 10q-46 11 -82 35q-58 -121 -217 -121q-147 0 -236 129q-64 -53 -151 -53h-33z" />
    <glyph glyph-name="uniFEE8_uniFEAE.liga" unicode="&#xfee8;&#xfeae;" horiz-adv-x="1530" 
d="M1340 696q-43 -41 -101 -41q-57 0 -98 41t-41 101q0 59 41 100t98 41q58 0 101 -41q42 -40 42 -100t-42 -101zM910 0q-70 5 -120 30q-29 17 -64 43v1l-4 -12q-39 -109 -99 -193q-64 -87 -134 -143q-73 -60 -144 -99q-72 -40 -126 -56q-57 -17 -83 -17q-64 0 -99 30
q-34 28 -34 70q0 58 30 89q28 31 76 54q185 86 291 210q105 125 105 306q0 11 -2 41q-2 28 -2 43q0 35 4 63q5 34 16 58q12 25 34 41q20 16 56 16q87 0 124 -91q15 -30 26 -59q11 -31 32 -62q20 -29 52 -48q32 -20 90 -20h29q45 0 72 7q29 8 47 21q17 14 27 33q11 20 18 45
q21 59 41 92q19 31 72 31q49 0 71 -31q20 -31 39 -94q8 -23 20 -45q10 -19 29 -33q17 -14 45 -20q27 -6 68 -6h17v-295q-112 0 -181 29q-70 29 -108 82q-44 -47 -117 -79q-66 -29 -154 -32h-60z" />
    <glyph glyph-name="uniFEE7_uniFEE4.liga" unicode="&#xfee7;&#xfee4;" horiz-adv-x="1344" 
d="M354 168q32 -31 80 -31q36 0 49 19q13 17 13 43q0 49 -31 89t-82 40q-29 0 -47 -18q-18 -19 -18 -60q1 -50 36 -82zM821 0q-61 0 -104 10q-46 11 -82 35q-58 -121 -217 -121q-147 0 -236 129q-64 -53 -151 -53h-31q-17 0 -32 4q-17 5 -17 12v263q0 6 17 11q18 5 32 5h19
q57 0 94 39q34 35 74 85q34 43 80 85q44 39 116 39q60 0 102 -18q42 -20 75 -46q31 -25 62 -60q28 -33 60 -59q31 -27 74 -46q39 -19 98 -19h39q65 0 93 14q26 14 26 49q0 47 -17 86q-18 38 -18 80q0 59 35 105q35 45 88 45q159 0 164 -281q0 -102 -30 -176
q-32 -76 -83 -122q-53 -48 -121 -71q-69 -24 -143 -24h-66zM1191 856q-43 -41 -101 -41q-57 0 -98 41t-41 100q0 60 41 101t98 41q58 0 101 -41q42 -40 42 -101q0 -59 -42 -100z" />
    <glyph glyph-name="uniFEE7_uniFEF0.liga" unicode="&#xfee7;&#xfef0;" horiz-adv-x="1737" 
d="M885 0l75 -18q18 -4 74 -19q39 -12 72 -34q32 -21 56 -59q21 -36 21 -93q0 -95 -53 -169q-54 -73 -136 -121t-184 -72q-100 -25 -196 -25q-121 0 -214 34q-95 33 -162 98q-68 65 -102 155q-36 90 -36 204q0 49 7 105q8 60 27 112q20 53 53 89t87 36q47 0 80 -27
q32 -29 32 -77q0 -59 -19 -112q-20 -55 -20 -107q0 -117 75 -177q74 -61 222 -61q18 0 58 4q46 5 92 12q57 9 85 17q38 11 38 22q0 9 -68 27q-58 19 -88 32q-38 15 -64 36q-27 20 -40 50q-15 29 -15 75q0 100 39 169q40 69 103 110q62 41 144 61q81 18 167 18h191
q65 0 93 14q26 14 26 49q0 47 -17 86q-18 38 -18 80q0 59 35 105q35 45 88 45q159 0 164 -281q0 -102 -30 -176q-32 -76 -83 -122q-53 -48 -121 -71q-69 -24 -143 -24h-395zM1584 856q-43 -41 -101 -41q-57 0 -98 41t-41 100q0 60 41 101t98 41q58 0 101 -41q42 -40 42 -101
q0 -59 -42 -100z" />
    <glyph glyph-name="uniFEE7_uniFEF2.liga" unicode="&#xfee7;&#xfef2;" horiz-adv-x="1737" 
d="M595 -959q-40 -40 -94 -40q-53 0 -93 40q-40 39 -40 95q0 55 40 94q41 39 93 39q56 0 95 -39t39 -94q0 -56 -40 -95zM896 -959q-40 -40 -94 -40q-53 0 -93 40q-40 39 -40 95q0 55 40 94q41 39 93 39q56 0 95 -39t39 -94q0 -56 -40 -95zM885 0l75 -18q18 -4 74 -19
q39 -12 72 -34q32 -21 56 -59q21 -36 21 -93q0 -95 -53 -169q-54 -73 -136 -121t-184 -72q-100 -25 -196 -25q-121 0 -214 34q-95 33 -162 98q-68 65 -102 155q-36 90 -36 204q0 49 7 105q8 60 27 112q20 53 53 89t87 36q47 0 80 -27q32 -29 32 -77q0 -59 -19 -112
q-20 -55 -20 -107q0 -117 75 -177q74 -61 222 -61q18 0 58 4q46 5 92 12q57 9 85 17q38 11 38 22q0 9 -68 27q-58 19 -88 32q-38 15 -64 36q-27 20 -40 50q-15 29 -15 75q0 100 39 169q40 69 103 110q62 41 144 61q81 18 167 18h191q65 0 93 14q26 14 26 49q0 47 -17 86
q-18 38 -18 80q0 59 35 105q35 45 88 45q159 0 164 -281q0 -102 -30 -176q-32 -76 -83 -122q-53 -48 -121 -71q-69 -24 -143 -24h-395zM1584 856q-43 -41 -101 -41q-57 0 -98 41t-41 100q0 60 41 101t98 41q58 0 101 -41q42 -40 42 -101q0 -59 -42 -100z" />
    <glyph glyph-name="uniFEF4_uniFEAE.liga" unicode="&#xfef4;&#xfeae;" horiz-adv-x="1535" 
d="M910 0q-70 5 -120 30q-29 17 -64 43v1l-4 -12q-39 -109 -99 -193q-64 -87 -134 -143q-73 -60 -144 -99q-72 -40 -126 -56q-57 -17 -83 -17q-64 0 -99 30q-34 28 -34 70q0 58 30 89q28 31 76 54q185 86 291 210q105 125 105 306q0 11 -2 41q-2 28 -2 43q0 35 4 63
q5 34 16 58q12 25 34 41q20 16 56 16q87 0 124 -91q15 -30 26 -59q11 -31 32 -62q20 -29 52 -48q32 -20 90 -20h34q45 0 72 7q29 8 47 21q17 14 27 33q11 20 18 45q21 59 41 92q19 31 72 31q49 0 71 -31q20 -31 39 -94q8 -23 20 -45q10 -19 29 -33q17 -14 45 -20
q27 -6 68 -6h17v-295q-112 0 -181 29q-70 29 -108 82q-44 -47 -117 -79q-67 -29 -159 -32h-60zM1482 -382q-40 -40 -93 -40t-93 40t-40 95q0 56 40 95q41 38 93 38q55 0 95 -38q38 -40 38 -95t-40 -95zM1181 -382q-40 -40 -93 -40t-93 40t-40 95q0 56 40 95q41 38 93 38
q54 0 94 -38q39 -39 39 -95q0 -55 -40 -95z" />
    <glyph glyph-name="uniFEF3_uniFEE4.liga" unicode="&#xfef3;&#xfee4;" horiz-adv-x="1404" 
d="M354 168q32 -31 80 -31q36 0 49 19q13 17 13 43q0 49 -31 89t-82 40q-29 0 -47 -18q-18 -19 -18 -60q1 -50 36 -82zM821 0q-61 0 -104 10q-46 11 -82 35q-58 -121 -217 -121q-147 0 -236 129q-64 -53 -151 -53h-31q-17 0 -32 4q-17 5 -17 12v263q0 6 17 11q18 5 32 5h19
q57 0 94 39q34 35 74 85q34 43 80 85q44 39 116 39q60 0 102 -18q42 -20 75 -46q31 -25 62 -60q28 -33 60 -59q31 -27 74 -46q39 -19 98 -19h99q65 0 93 14q26 14 26 49q0 47 -17 86q-18 38 -18 80q0 59 35 105q35 45 88 45q159 0 164 -281q0 -102 -30 -176
q-32 -76 -83 -122q-53 -48 -121 -71q-69 -24 -143 -24h-126zM1356 -382q-40 -40 -93 -40t-93 40t-40 95q0 56 40 95q41 38 93 38q54 0 94 -38q39 -39 39 -95q0 -55 -40 -95zM1055 -382q-40 -40 -93 -40t-93 40t-40 95q0 56 40 95q41 38 93 38q54 0 94 -38q39 -39 39 -95
q0 -55 -40 -95z" />
    <glyph glyph-name="uniFEF4_uniFEE6.liga" unicode="&#xfef4;&#xfee6;" horiz-adv-x="1883" 
d="M689 485q-43 -41 -102 -41q-57 0 -98 41t-41 101q0 59 41 100t98 41q59 0 102 -41q42 -40 42 -100t-42 -101zM1300 0q-34 0 -60 6q-25 5 -50 17q-10 -137 -53 -248q-42 -110 -114 -187q-74 -77 -177 -119q-105 -42 -242 -42q-147 0 -244 44q-95 43 -154 114
q-60 71 -82 157q-24 89 -24 174q0 61 6 124q6 64 25 113q19 51 51 82t86 31q40 0 62 -25t22 -83q0 -55 -9 -102q-10 -44 -10 -89q0 -50 17 -98q17 -49 50 -83q35 -36 88 -57q53 -22 132 -22q163 0 254 90q92 90 92 240q0 41 -13 77q-18 50 -29 74q-16 33 -30 71
q-14 37 -14 73q0 55 41 91t84 36q50 0 78 -25q29 -25 57 -57q26 -30 67 -56q40 -26 112 -26q43 0 70 7q29 8 47 21q17 14 27 33q11 20 18 45q21 59 41 92q19 31 72 31q49 0 71 -31q20 -31 39 -94q8 -23 20 -45q10 -19 29 -33q17 -14 45 -20q27 -6 68 -6h17v-295
q-112 0 -181 29q-70 29 -108 82q-44 -47 -117 -79q-66 -29 -156 -32h-21zM1800 -382q-40 -40 -93 -40t-93 40t-40 95q0 56 40 95q41 38 93 38q55 0 95 -38q38 -40 38 -95t-40 -95zM1499 -382q-40 -40 -93 -40t-93 40t-40 95q0 56 40 95q41 38 93 38q54 0 94 -38
q39 -39 39 -95q0 -55 -40 -95z" />
    <glyph glyph-name="T_h.liga" unicode="Th" horiz-adv-x="1864" 
d="M926 1024h-282v-909q0 -51 -39 -87q-40 -37 -95 -37q-52 0 -93 38q-40 37 -40 86v909h-242q-42 0 -75 36q-34 34 -34 81q0 49 32 84t77 35h919q53 -2 91 -35q37 -33 37 -81v-424q23 74 95 112q71 38 142 38q168 0 256 -105q88 -104 88 -301v-360q0 -47 -37 -80t-91 -33
q-51 0 -88 34q-39 35 -40 79v351q0 79 -47 124q-48 45 -110 45q-69 0 -119 -41q-49 -42 -49 -131v-348q0 -47 -37 -80t-91 -33q-52 0 -89 34q-38 35 -39 79v920z" />
    <glyph glyph-name="f_b.liga" unicode="fb" horiz-adv-x="1754" 
d="M1075 577q-61 -64 -61 -151t61 -151q62 -65 147 -65q92 0 147 63q54 63 54 153t-54 153q-55 63 -147 63q-85 0 -147 -65zM1015 735l1 1v-3q46 74 122 106q74 31 134 31q171 0 293 -119q122 -120 122 -323q0 -205 -122 -324q-121 -120 -293 -120q-74 0 -145 36
q-59 29 -97 80l-7 10q-3 3 -7 11v-1l-1 1v-17q0 -47 -37 -80t-91 -33q-51 0 -88 34q-39 35 -40 79v944q0 49 -154 49q-157 0 -157 -175v-68h88q38 0 65 -29q26 -31 26 -72q0 -40 -26 -69q-28 -30 -65 -31h-88v-549q0 -47 -37 -80t-91 -33q-51 0 -88 34q-39 35 -40 79v549
h-80q-39 1 -65 31q-27 29 -27 69q0 42 27 72q26 29 65 29h80v58q0 199 103 302q102 104 301 104q118 0 205 -14q83 -15 125 -32q41 -18 62 -50q21 -31 24 -51q3 -19 3 -52v-384z" />
    <glyph glyph-name="f_f_b.liga" unicode="ffb" horiz-adv-x="2399" 
d="M1720 577q-61 -64 -61 -151t61 -151q62 -65 147 -65q92 0 147 63q54 63 54 153t-54 153q-55 63 -147 63q-85 0 -147 -65zM448 653v-549q0 -47 -37 -80t-91 -33q-51 0 -88 34q-39 35 -40 79v549h-80q-39 1 -65 31q-27 29 -27 69q0 42 27 72q26 29 65 29h80v58
q0 199 96 302q96 104 279 104h20q49 0 83 -34t34 -83q0 -46 -34 -80q-36 -36 -83 -37h-20q-119 0 -119 -162v-68h389v58q0 199 103 302q102 104 301 104q118 0 205 -14q83 -15 125 -32q41 -18 62 -50q21 -31 24 -51q3 -19 3 -52v-384l1 1v-3q46 74 122 106q74 31 134 31
q171 0 293 -119q122 -120 122 -323q0 -205 -122 -324q-121 -120 -293 -120q-74 0 -145 36q-59 29 -97 80l-7 10q-3 3 -7 11v-1l-1 1v-17q0 -47 -37 -80t-91 -33q-51 0 -88 34q-39 35 -40 79v944q0 49 -154 49q-157 0 -157 -175v-68h88q38 0 65 -29q26 -31 26 -72
q0 -40 -26 -69q-28 -30 -65 -31h-88v-549q0 -47 -37 -80t-91 -33q-51 0 -88 34q-39 35 -40 79v549h-389z" />
    <glyph glyph-name="f_f.liga" unicode="ff" horiz-adv-x="1291" 
d="M567 1084q-119 0 -119 -162v-68h389v58q0 199 96 302q96 104 279 104h22q50 0 84 -34q33 -34 33 -83q0 -46 -34 -80q-36 -36 -83 -37h-22q-119 0 -119 -162v-68h88q39 0 66 -29q26 -31 26 -72q0 -40 -26 -69q-28 -30 -66 -31h-88v-549q0 -47 -37 -80t-91 -33
q-51 0 -88 34q-39 35 -40 79v549h-389v-549q0 -47 -37 -80t-91 -33q-51 0 -88 34q-39 35 -40 79v549h-80q-39 1 -65 31q-27 29 -27 69q0 42 27 72q26 29 65 29h80v58q0 199 96 302q96 104 279 104h20q49 0 83 -34t34 -83q0 -46 -34 -80q-36 -36 -83 -37h-20z" />
    <glyph glyph-name="f_h.liga" unicode="fh" horiz-adv-x="1697" 
d="M1015 720q23 74 95 112q71 38 142 38q168 0 256 -105q88 -104 88 -301v-360q0 -47 -37 -80t-91 -33q-51 0 -88 34q-39 35 -40 79v351q0 79 -47 124q-48 45 -110 45q-69 0 -119 -41q-49 -42 -49 -131v-348q0 -47 -37 -80t-91 -33q-51 0 -88 34q-39 35 -40 79v944
q0 49 -154 49q-157 0 -157 -175v-68h88q38 0 65 -29q26 -31 26 -72q0 -40 -26 -69q-28 -30 -65 -31h-88v-549q0 -47 -37 -80t-91 -33q-51 0 -88 34q-39 35 -40 79v549h-80q-39 1 -65 31q-27 29 -27 69q0 42 27 72q26 29 65 29h80v58q0 199 103 302q102 104 301 104
q118 0 205 -14q83 -15 125 -32q41 -18 62 -50q21 -31 24 -51q3 -19 3 -52v-399z" />
    <glyph glyph-name="f_f_h.liga" unicode="ffh" horiz-adv-x="2342" 
d="M448 653v-549q0 -47 -37 -80t-91 -33q-51 0 -88 34q-39 35 -40 79v549h-80q-39 1 -65 31q-27 29 -27 69q0 42 27 72q26 29 65 29h80v58q0 199 96 302q96 104 279 104h20q49 0 83 -34t34 -83q0 -46 -34 -80q-36 -36 -83 -37h-20q-119 0 -119 -162v-68h389v58
q0 199 103 302q102 104 301 104q118 0 205 -14q83 -15 125 -32q41 -18 62 -50q21 -31 24 -51q3 -19 3 -52v-399q23 74 95 112q71 38 142 38q168 0 256 -105q88 -104 88 -301v-360q0 -47 -37 -80t-91 -33q-51 0 -88 34q-39 35 -40 79v351q0 79 -47 124q-48 45 -110 45
q-69 0 -119 -41q-49 -42 -49 -131v-348q0 -47 -37 -80t-91 -33q-51 0 -88 34q-39 35 -40 79v944q0 49 -154 49q-157 0 -157 -175v-68h88q38 0 65 -29q26 -31 26 -72q0 -40 -26 -69q-28 -30 -65 -31h-88v-549q0 -47 -37 -80t-91 -33q-51 0 -88 34q-39 35 -40 79v549h-389z
" />
    <glyph glyph-name="f_f_i.liga" unicode="ffi" horiz-adv-x="1796" 
d="M1670 1275q45 -43 45 -105t-45 -106q-47 -44 -110 -44q-65 0 -112 44t-47 106q0 61 47 105q46 43 112 43q64 0 110 -43zM1432 653h-370v-549q0 -47 -37 -80t-91 -33q-51 0 -88 34q-39 35 -40 79v549h-358v-549q0 -47 -37 -80t-91 -33q-51 0 -88 34q-39 35 -40 79v549h-80
q-39 1 -65 31q-27 29 -27 69q0 42 27 72q26 29 65 29h80v58q0 199 96 302q96 104 279 104h55q49 0 83 -34t34 -83q0 -45 -35 -80t-82 -37h-55q-119 0 -119 -162v-68h358v58q0 199 96 302q96 104 279 104h22q50 0 84 -34q33 -34 33 -83q0 -46 -34 -80q-36 -36 -83 -37h-22
q-119 0 -119 -162v-68h498q54 0 91 -33t37 -80v-637q0 -47 -37 -80t-91 -33q-51 0 -88 34q-39 35 -40 79v549z" />
    <glyph glyph-name="f_j.liga" unicode="fj" horiz-adv-x="1125" 
d="M997 1275q45 -43 45 -105t-45 -106q-47 -44 -110 -44q-65 0 -112 44t-47 106q0 61 47 105q46 43 112 43q64 0 110 -43zM192 653h-80q-39 1 -65 31q-27 29 -27 69q0 42 27 72q26 29 65 29h78v58q0 199 96 302q96 104 279 104h11q49 0 83 -34t34 -83q0 -46 -34 -80
q-36 -36 -83 -37h-11q-119 0 -119 -162v-68h441q54 0 91 -33t37 -80v-789q0 -181 -74 -276t-248 -95h-51q-51 0 -85 34q-36 35 -36 84t36 80q34 31 85 33h5q112 0 112 135v706h-313v-549q0 -47 -37 -80t-91 -33q-51 0 -88 34q-39 35 -40 79z" />
    <glyph glyph-name="f_f_j.liga" unicode="ffj" horiz-adv-x="1770" 
d="M1642 1275q46 -43 46 -105q0 -63 -46 -106q-47 -44 -110 -44q-65 0 -112 44t-47 106q0 61 47 105q46 43 112 43q64 0 110 -43zM1660 -48q0 -181 -74 -276t-247 -95h-52q-50 0 -84 34q-36 35 -36 84t36 80q35 32 84 33h6q111 0 111 135v706h-358v-549q0 -47 -37 -80
t-91 -33q-51 0 -88 34q-39 35 -40 79v549h-342v-549q0 -47 -37 -80t-91 -33q-51 0 -88 34q-39 35 -40 79v549h-80q-39 1 -65 31q-27 29 -27 69q0 42 27 72q26 29 65 29h80v58q0 199 96 302q96 104 279 104h38q50 0 84 -34q33 -34 33 -83q0 -46 -34 -80q-36 -36 -83 -37h-38
q-119 0 -119 -162v-68h342v58q0 199 96 302q96 104 279 104h11q49 0 83 -34t34 -83q0 -45 -35 -80t-82 -37h-11q-119 0 -119 -162v-68h486q54 0 91 -33t37 -80v-789z" />
    <glyph glyph-name="f_k.liga" unicode="fk" horiz-adv-x="1548" 
d="M1015 620l1 1v-3l199 201q33 36 80 40q46 4 85 -25q36 -28 42 -77q5 -50 -26 -86l-199 -194l281 -294q34 -39 33 -88q-1 -48 -40 -79q-36 -29 -88 -25q-53 5 -80 36l-288 311v-234q0 -47 -37 -80t-91 -33q-51 0 -88 34q-39 35 -40 79v944q0 49 -154 49q-157 0 -157 -175
v-68h88q38 0 65 -29q26 -31 26 -72q0 -40 -26 -69q-28 -30 -65 -31h-88v-549q0 -47 -37 -80t-91 -33q-51 0 -88 34q-39 35 -40 79v549h-80q-39 1 -65 31q-27 29 -27 69q0 42 27 72q26 29 65 29h80v58q0 199 103 302q102 104 301 104q118 0 205 -14q83 -15 125 -32
q41 -18 62 -50q21 -31 24 -51q3 -19 3 -52v-499z" />
    <glyph glyph-name="f_f_k.liga" unicode="ffk" horiz-adv-x="2196" 
d="M448 653v-549q0 -47 -37 -80t-91 -33q-51 0 -88 34q-39 35 -40 79v549h-80q-39 1 -65 31q-27 29 -27 69q0 42 27 72q26 29 65 29h80v58q0 199 96 302q96 104 279 104h22q49 0 83 -34t34 -83q0 -45 -35 -80t-82 -37h-22q-119 0 -119 -162v-68h392v58q0 199 103 302
q102 104 301 104q118 0 205 -14q83 -15 125 -32q41 -18 62 -50q21 -31 24 -51q3 -19 3 -52v-499l1 1v-3l199 201q33 36 80 40q46 4 85 -25q36 -28 42 -77q5 -50 -26 -86l-199 -194l281 -294q34 -39 33 -88q-1 -48 -40 -79q-36 -29 -88 -25q-53 5 -80 36l-288 311v-234
q0 -47 -37 -80t-91 -33q-51 0 -88 34q-39 35 -40 79v944q0 49 -154 49q-157 0 -157 -175v-68h88q38 0 65 -29q26 -31 26 -72q0 -40 -26 -69q-28 -30 -65 -31h-88v-549q0 -47 -37 -80t-91 -33q-51 0 -88 34q-39 35 -40 79v549h-392z" />
    <glyph glyph-name="f_f_l.liga" unicode="ffl" horiz-adv-x="1770" 
d="M837 653h-389v-549q0 -47 -37 -80t-91 -33q-51 0 -88 34q-39 35 -40 79v549h-80q-39 1 -65 31q-27 29 -27 69q0 42 27 72q26 29 65 29h80v58q0 199 96 302q96 104 279 104h22q49 0 83 -34t34 -83q0 -45 -35 -80t-82 -37h-22q-119 0 -119 -162v-68h389v58q0 199 103 302
q102 104 302 104q116 0 205 -14q83 -15 125 -32q41 -18 62 -50q21 -31 24 -51q2 -26 2 -52v-1015q0 -47 -37 -80t-91 -33q-51 0 -88 34q-39 35 -40 79v944q0 49 -153 49q-158 0 -158 -175v-68h88q39 0 66 -29q26 -31 26 -72q0 -40 -26 -69q-28 -30 -66 -31h-88v-549
q0 -47 -37 -80t-91 -33q-51 0 -88 34q-39 35 -40 79v549z" />
    <glyph glyph-name="f_t.liga" unicode="ft" horiz-adv-x="1249" 
d="M448 653v-549q0 -47 -37 -80t-91 -33q-51 0 -88 34q-39 35 -40 79v549h-80q-39 1 -65 31q-27 29 -27 69q0 42 27 72q26 29 65 29h80v58q0 199 96 302q96 104 279 104h4q49 0 80 -33q31 -34 31 -84q0 -46 -32 -81q-31 -34 -79 -36h-4q-119 0 -119 -162v-68h339v223
q1 45 40 80q38 33 88 33q53 0 91 -32q37 -33 37 -81v-223h97q38 0 65 -29q26 -31 26 -72q0 -40 -26 -69q-28 -30 -65 -31h-97v-549q0 -47 -37 -80t-91 -33q-51 0 -88 34q-39 35 -40 79v549h-339z" />
    <glyph glyph-name="f_f_t.liga" unicode="fft" horiz-adv-x="1861" 
d="M448 653v-549q0 -47 -37 -80t-91 -33q-51 0 -88 34q-39 35 -40 79v549h-80q-39 1 -65 31q-27 29 -27 69q0 42 27 72q26 29 65 29h80v58q0 199 96 302q96 104 279 104h55q49 0 83 -34t34 -83q0 -45 -35 -80t-82 -37h-55q-119 0 -119 -162v-68h356v58q0 199 96 302
q96 104 279 104h4q49 0 80 -33q31 -34 31 -84q0 -46 -32 -81q-31 -34 -79 -36h-4q-119 0 -119 -162v-68h339v223q1 45 40 80q38 33 88 33q53 0 91 -32q37 -33 37 -81v-223h97q38 0 65 -29q26 -31 26 -72q0 -40 -26 -69q-28 -30 -65 -31h-97v-549q0 -47 -37 -80t-91 -33
q-51 0 -88 34q-39 35 -40 79v549h-339v-549q0 -47 -37 -80t-91 -33q-51 0 -88 34q-39 35 -40 79v549h-356z" />
    <glyph glyph-name="uni0647.fina" unicode="&#x647;" horiz-adv-x="1055" arabic-form="final" 
d="M701 364q33 35 33 66q0 30 -16 52t-52 22q-31 0 -51 -14q-21 -15 -33 -36q-13 -24 -17 -48q-6 -27 -6 -52v-11q0 -26 8 -66q98 51 134 87zM660 -18q16 40 20 52q8 21 18 39l19 37l27 48q-41 -28 -62 -41q-22 -14 -68 -38q15 -35 22 -49zM293 -101q-39 -11 -63 -11
q-8 -1 -24 -1q-45 0 -73 23q-33 29 -33 69q0 55 29 87q28 31 88 60q57 28 92 43q33 14 72 36q-11 60 -11 116q0 18 1 27q5 93 22 155q16 63 54 113q37 48 94 76q57 27 137 27q58 0 104 -21q46 -22 79 -58q33 -38 49 -85q16 -48 16 -104q0 -114 -82 -211q15 11 42 22
q25 10 56 18q19 5 59 11q25 4 54 4v-295q-125 0 -184 -38q-60 -37 -60 -95q0 -34 17 -66q16 -31 16 -67q0 -119 -123 -119q-40 0 -86 40q-50 43 -92 101q-45 60 -81 129q-22 42 -35 74q-99 -50 -134 -60z" />
    <glyph glyph-name="uni0672.fina" unicode="&#x672;" horiz-adv-x="574" 
d="M553 0q-105 0 -175 26q-70 25 -112 73q-41 47 -61 116q-20 70 -26 152q-3 37 -4 66q-2 49 -6 116q-6 85 -8 148q-4 108 -5 161l-2 79q-2 52 -2 75q-2 98 -2 129q0 78 38 114q38 35 91 35q57 0 97 -40t40 -124v-671q0 -73 35 -117q34 -43 107 -43h16v-295h-21zM139 1508
q35 0 66 -10q18 -6 70 -28h1q-28 28 -28 72q0 28 10 48q9 22 25 36q18 16 34 23q19 8 34 8q40 0 65 -15q25 -16 25 -39q0 -13 -6 -18q-7 -4 -19 -4t-30 5q-15 4 -28 4q-24 0 -33 -13t-9 -27q0 -42 66 -42q8 0 20 4l61 13q15 3 23 3q14 0 22 -8q8 -10 8 -20q0 -14 -7 -25
q-7 -13 -34 -21q-85 -28 -120 -46q-38 -20 -71 -21h-3q-30 0 -57 11q-28 11 -47 28q-14 11 -38 15h-6q-12 0 -27 -4q-18 -5 -31 -5t-18 4q-7 4 -7 18q0 22 26 39q9 5 22 10q23 5 41 5z" />
    <glyph glyph-name="uni0673.fina" unicode="&#x673;" horiz-adv-x="574" 
d="M553 0q-105 0 -175 26q-70 25 -112 73q-41 47 -61 116q-20 70 -26 152q-3 37 -4 66q-2 49 -6 116q-6 85 -8 148q-4 108 -5 161l-2 79q-2 52 -2 75q-2 98 -2 129q0 78 38 114q38 35 91 35q57 0 97 -40t40 -124v-671q0 -73 35 -117q34 -43 107 -43h16v-295h-21zM139 -249
q35 0 66 -10q18 -6 70 -28h1q-28 28 -28 72q0 28 10 48q9 22 25 36q18 16 34 23q19 8 34 8q40 0 65 -15q25 -16 25 -39q0 -13 -6 -18q-7 -4 -19 -4t-30 5q-15 4 -28 4q-24 0 -33 -13t-9 -27q0 -42 66 -42q8 0 20 4l61 13q15 3 23 3q14 0 22 -8q8 -10 8 -20q0 -14 -7 -25
q-7 -13 -34 -21q-85 -28 -120 -46q-38 -20 -71 -21h-3q-30 0 -57 11q-28 11 -47 28q-14 11 -38 15h-6q-12 0 -27 -4q-18 -5 -31 -5t-18 4q-7 4 -7 18q0 22 26 39q9 5 22 10q23 5 41 5z" />
    <glyph glyph-name="uni0675.fina" unicode="&#x675;" horiz-adv-x="966" 
d="M555 0q-105 0 -175 26q-70 25 -112 73q-41 47 -61 116q-20 70 -26 152q-3 37 -4 66q-2 49 -6 116q-6 85 -8 148q-4 108 -5 161l-2 79q-2 52 -2 75q-2 98 -2 129q0 78 38 114q38 35 91 35q57 0 97 -40t40 -124v-671q0 -73 35 -117q34 -43 107 -43h406v-295h-411zM626 1228
q-85 -27 -101 -27q-26 0 -42 13q-17 12 -17 36q0 25 31 44q29 17 77 36q-43 43 -43 109q0 42 16 73q15 31 38 54q21 21 51 35q29 12 53 12q58 0 96 -22q39 -22 39 -58q0 -23 -10 -29t-27 -6q-21 0 -47 6q-25 6 -43 6q-36 0 -49 -19q-14 -20 -14 -40q0 -63 102 -63q10 0 29 4
l90 20q20 4 35 4q22 0 35 -12q12 -12 12 -29q0 -19 -11 -39q-12 -19 -51 -30q-163 -52 -249 -78z" />
    <glyph glyph-name="uni0676.fina" unicode="&#x676;" horiz-adv-x="1041" 
d="M557 375q-24 30 -61 37l-16 1q-27 0 -47 -13q-28 -19 -36 -48l-2 -8v-7q0 -19 15 -33q14 -13 50 -19q30 -5 61 -7q34 -2 60 -2q0 69 -24 99zM1041 295v-295h-274q-39 -95 -97 -172q-56 -75 -130 -141q-73 -64 -140 -107q-71 -46 -126 -68q-58 -24 -89 -24q-69 0 -102 37
q-33 38 -33 84q0 33 26 65t68 54q120 59 211 125q98 71 159 160q-62 9 -79 13q-27 4 -77 23q-46 16 -85 50q-36 31 -58 80q-22 45 -22 104q0 55 20 121t56 117q39 54 93 88q55 34 126 34q88 0 149 -46q59 -46 97 -114q38 -69 54 -148q3 -14 7 -40h246zM730 794
q-76 -24 -91 -24q-21 0 -37 11q-15 11 -15 33q0 23 27 39q22 14 69 32q-38 38 -38 96q0 35 14 65q13 27 33 49q21 21 46 31q24 10 47 10q51 0 86 -20q34 -19 34 -51q0 -20 -9 -25q-10 -6 -24 -6q-18 0 -41 6q-25 5 -39 5q-30 0 -44 -17q-13 -16 -13 -36q0 -56 92 -56
q9 0 25 4q18 3 39 9l41 9q20 3 31 3q21 0 31 -10q11 -11 11 -26q0 -19 -10 -35q-10 -18 -45 -27q-131 -40 -220 -69z" />
    <glyph glyph-name="uni0677.fina" unicode="&#x677;" horiz-adv-x="1041" 
d="M557 375q-24 30 -61 37l-16 1q-27 0 -47 -13q-28 -19 -36 -48l-2 -8v-7q0 -19 15 -33q14 -13 50 -19q30 -5 61 -7q34 -2 60 -2q0 69 -24 99zM1041 295v-295h-274q-39 -95 -97 -172q-56 -75 -130 -141q-73 -64 -140 -107q-71 -46 -126 -68q-58 -24 -89 -24q-69 0 -102 37
q-33 38 -33 84q0 33 26 65t68 54q120 59 211 125q98 71 159 160q-62 9 -79 13q-27 4 -77 23q-46 16 -85 50q-36 31 -58 80q-22 45 -22 104q0 55 20 121t56 117q39 54 93 88q55 34 126 34q88 0 149 -46q59 -46 97 -114q38 -69 54 -148q3 -14 7 -40h246zM730 794
q-76 -24 -91 -24q-21 0 -37 11q-15 11 -15 33q0 23 27 39q22 14 69 32q-38 38 -38 96q0 35 14 65q13 27 33 49q21 21 46 31q24 10 47 10q51 0 86 -20q34 -19 34 -51q0 -20 -9 -25q-10 -6 -24 -6q-18 0 -41 6q-25 5 -39 5q-30 0 -44 -17q-13 -16 -13 -36q0 -56 92 -56
q9 0 25 4q18 3 39 9l41 9q20 3 31 3q21 0 31 -10q11 -11 11 -26q0 -19 -10 -35q-10 -18 -45 -27q-131 -40 -220 -69zM482 997q-11 11 -28 11q-22 0 -31 -12q-10 -11 -10 -27q0 -15 10 -25q9 -12 31 -12q14 0 27 11q12 11 12 26q0 17 -11 28zM317 965q0 51 36 88t95 37
q67 0 104 -40q38 -41 38 -89q0 -41 -30 -77q-30 -38 -118 -63q-89 -27 -157 -39q-67 -12 -86 -12q-19 2 -25 4q-18 8 -25 20q-4 7 -4 17q0 7 1 10q4 19 16 27t31 11q20 1 67 12q53 12 85 23q-28 32 -28 71z" />
    <glyph glyph-name="uni0678.init" unicode="&#x678;" horiz-adv-x="810" 
d="M55 295q65 0 93 14q26 14 26 49q0 47 -17 86q-18 38 -18 80q0 59 35 105q35 45 88 45q159 0 164 -281q0 -102 -30 -176q-32 -76 -83 -122q-53 -48 -121 -71q-69 -24 -143 -24h-49q-17 0 -32 4q-17 5 -17 12v263q0 6 17 11q18 5 32 5h55zM459 873q-85 -27 -101 -27
q-25 0 -42 12t-17 37t31 43q26 16 77 37q-43 43 -43 108q0 42 16 73q15 32 38 55q22 22 51 34t53 12q58 0 96 -22q39 -22 39 -57q0 -23 -10 -29t-27 -6q-21 0 -47 6q-25 6 -43 6q-36 0 -49 -19q-15 -19 -15 -40q0 -64 103 -64q10 0 29 4q34 8 44 11l46 10q20 4 34 4
q23 0 36 -12q12 -13 12 -29q0 -20 -11 -40q-12 -19 -51 -30z" />
    <glyph glyph-name="uni0678.medi" unicode="&#x678;" horiz-adv-x="804" 
d="M804 0q-334 0 -403 29q-70 29 -108 82q-44 -47 -116 -79q-73 -32 -177 -32q-17 0 -32 4q-17 5 -17 12v263q0 6 17 11q18 5 32 5h17q45 0 72 7q28 7 46 21q17 14 27 33q11 20 18 45q21 59 41 92q19 31 72 31q49 0 71 -31q19 -29 40 -94q6 -21 19 -45q10 -19 29 -33
q17 -14 45 -20q27 -6 68 -6h239v-295zM444 713q-85 -27 -102 -27q-25 0 -41 13q-18 12 -18 36q0 25 31 44q29 17 77 36q-43 43 -43 109q0 42 16 73q15 31 38 54q21 21 51 35q29 12 53 12q58 0 96 -22q39 -22 39 -58q0 -23 -10 -29t-27 -6q-22 0 -46 6q-25 6 -44 6
q-36 0 -49 -19q-14 -20 -14 -40q0 -64 102 -64q6 0 29 5l90 20q20 4 35 4q22 0 35 -12q12 -12 12 -29q0 -19 -11 -39q-12 -19 -51 -30q-177 -57 -248 -78z" />
    <glyph glyph-name="uni0678.fina" unicode="&#x678;" horiz-adv-x="1516" 
d="M1166 433q-85 -27 -102 -27q-24 0 -41 12q-18 12 -18 37t31 44q29 17 77 36q-43 43 -43 108q0 42 16 73q15 32 38 55q21 21 51 35q29 12 53 12q59 0 97 -22q38 -23 38 -58q0 -23 -10 -29t-27 -6q-22 0 -46 6q-25 6 -44 6q-35 0 -48 -19q-15 -19 -15 -40q0 -64 102 -64
q10 0 29 4q34 8 44 11q12 3 47 10q20 4 34 4q22 0 35 -12q12 -13 12 -29q0 -19 -11 -39q-13 -21 -50 -31zM885 0l75 -18q18 -4 74 -19q39 -12 72 -34q32 -21 56 -59q21 -36 21 -93q0 -95 -53 -169q-54 -73 -136 -121t-184 -72q-100 -25 -196 -25q-121 0 -214 34
q-95 33 -162 98q-68 65 -102 155q-36 90 -36 204q0 49 7 105q8 60 27 112q20 53 53 89t87 36q47 0 80 -27q32 -29 32 -77q0 -59 -19 -112q-20 -55 -20 -107q0 -117 75 -177q74 -61 222 -61q18 0 58 4q46 5 92 12q57 9 85 17q38 11 38 22q0 9 -68 27q-58 19 -88 32
q-38 15 -64 36q-27 20 -40 50q-15 29 -15 75q0 100 39 169q40 69 103 110q62 41 144 61q81 18 167 18h421v-295h-631z" />
    <glyph glyph-name="uni067C.init" unicode="&#x67c;" horiz-adv-x="566" 
d="M244 854q-40 -39 -94 -39q-52 0 -93 39q-40 39 -40 94q0 56 40 96q41 39 93 39q56 0 95 -39q38 -41 38 -96t-39 -94zM545 854q-40 -39 -94 -39q-52 0 -93 39q-40 39 -40 94q0 56 40 96q41 39 93 39q56 0 95 -39q39 -40 39 -96q0 -55 -40 -94zM157 -34q-15 -34 -15 -63
q0 -21 10 -34q11 -15 39 -15q52 0 74 16q23 15 23 38q0 28 -28 57q-29 30 -76 51q-13 -18 -27 -50zM0 0q-17 0 -32 4q-17 5 -17 12v263q0 6 17 11q18 5 32 5h105q65 0 93 14q26 14 26 49q0 47 -17 86q-18 38 -18 80q0 59 35 105q35 45 88 45q159 0 164 -281q0 -102 -30 -176
q-32 -76 -83 -122q-3 -2 -8 -7q26 -29 46 -64q28 -50 28 -102q0 -48 -18 -89q-21 -44 -50 -70q-31 -29 -72 -46q-41 -16 -86 -16q-28 0 -65 8q-34 7 -61 24q-28 16 -46 45t-18 70q0 48 20 103q9 25 20 49h-53z" />
    <glyph glyph-name="uni067C.medi" unicode="&#x67c;" horiz-adv-x="752" 
d="M293 694q-40 -39 -94 -39q-52 0 -93 39q-40 39 -40 94q0 56 40 96t93 40q56 0 95 -40t39 -96q0 -55 -40 -94zM594 694q-40 -39 -94 -39q-52 0 -93 39q-40 39 -40 94q0 56 40 96t93 40q56 0 95 -40t39 -96q0 -55 -40 -94zM157 -34q-15 -34 -15 -63q0 -21 10 -34
q11 -15 39 -15q53 0 75 16q22 15 22 38q0 28 -28 57q-29 30 -76 51q-13 -18 -27 -50zM0 0q-17 0 -32 4q-17 5 -17 12v263q0 6 17 11q18 5 32 5h187q45 0 72 7q28 7 46 21q17 14 27 33q11 20 18 45q21 59 41 92q19 31 72 31q49 0 71 -31q19 -29 40 -94q6 -21 19 -45
q10 -19 29 -33q17 -14 45 -20q27 -6 68 -6h17v-295q-112 0 -181 29q-70 29 -108 82q-32 -35 -79 -61l17 -26q28 -50 28 -102q0 -48 -18 -89q-19 -43 -49 -70q-30 -28 -73 -46q-41 -16 -86 -16q-28 0 -65 8q-34 7 -61 24q-28 16 -46 45t-18 70q0 48 20 103q9 25 20 49h-53z
" />
    <glyph glyph-name="uni067C.fina" unicode="&#x67c;" horiz-adv-x="1704" 
d="M752 739q-40 -39 -93 -39q-52 0 -93 39q-40 39 -40 95q0 55 40 95t93 40q55 0 94 -40t39 -95q0 -56 -40 -95zM1053 739q-40 -39 -93 -39q-52 0 -93 39q-40 39 -40 95q0 55 40 95t93 40q55 0 94 -40t39 -95q0 -56 -40 -95zM779 -105q-15 -34 -15 -63q0 -21 10 -34
q11 -15 39 -15q52 0 74 16q23 15 23 38q0 28 -28 57q-29 30 -76 51q-13 -18 -27 -50zM441 -31q-119 26 -193 73q-75 47 -112 119q-36 71 -36 161q0 33 8 92q7 52 29 107q18 49 55 89q34 37 88 37q36 0 59 -22q23 -23 23 -74q0 -39 -8 -79t-8 -75q0 -57 41 -87
q40 -31 111 -46q67 -16 162 -19q93 -3 198 -3q73 0 133 4q67 4 127 15q56 10 108 32q46 19 76 55q18 20 29 53q11 29 24 57q13 26 33 46q20 18 55 18q25 0 42 -11q15 -9 29 -30q10 -15 25 -46q-1 4 25 -58q16 -35 44 -59q26 -23 79 -23h17v-295h-58q-78 0 -132 36t-95 83
q-79 -77 -252 -127q-65 -19 -149 -31q5 -7 5 -8q28 -50 28 -102q0 -48 -18 -89q-21 -44 -50 -70q-31 -29 -72 -46q-41 -16 -86 -16q-28 0 -65 8q-34 7 -61 24q-28 16 -46 45t-18 70q0 48 20 103q12 35 27 63q-135 3 -241 26z" />
    <glyph glyph-name="uni067D.init" unicode="&#x67d;" horiz-adv-x="516" 
d="M55 295q65 0 93 14q26 14 26 49q0 47 -17 86q-18 38 -18 80q0 59 35 105q35 45 88 45q159 0 164 -281q0 -102 -30 -176q-32 -76 -83 -122q-53 -48 -121 -71q-69 -24 -143 -24h-49q-17 0 -32 4q-17 5 -17 12v263q0 6 17 11q18 5 32 5h55zM100 1065q-53 0 -93 40t-40 95
t40 94q41 39 93 39q54 0 94 -39q39 -39 39 -94q0 -54 -38 -95q-39 -40 -95 -40zM401 1065q-53 0 -93 40t-40 95t40 94q41 39 93 39q54 0 94 -39t40 -94q0 -54 -39 -95q-39 -40 -95 -40zM252 815q-53 0 -93 40t-40 95q0 56 40 95q41 38 93 38q54 0 95 -38q40 -39 40 -95
q0 -54 -39 -95q-39 -40 -96 -40z" />
    <glyph glyph-name="uni067D.medi" unicode="&#x67d;" horiz-adv-x="622" 
d="M159 905q-53 0 -93 40t-40 95q0 56 40 95q41 39 93 39q54 0 94 -39q39 -39 39 -95q0 -54 -38 -95q-39 -40 -95 -40zM460 905q-53 0 -93 40t-40 95q0 56 40 95q41 39 93 39q54 0 94 -39q39 -39 39 -95q0 -54 -38 -95q-39 -40 -95 -40zM311 655q-53 0 -93 40t-40 96
q0 55 40 94q41 39 93 39q55 0 95 -39t40 -94t-39 -96q-39 -40 -96 -40zM622 0q-132 0 -201 29q-70 29 -108 82q-44 -47 -117 -79t-196 -32q-17 0 -32 4q-17 5 -17 12v263q0 6 17 11q18 5 32 5h36q45 0 72 7q29 8 47 21q17 14 27 33q11 20 18 45q21 59 41 92q19 31 72 31
q49 0 71 -31q20 -31 39 -94q8 -23 20 -45q10 -19 29 -33q17 -14 45 -20q27 -6 78 -6h27v-295z" />
    <glyph glyph-name="uni067D.fina" unicode="&#x67d;" horiz-adv-x="1704" 
d="M1646 0q-78 0 -132 36t-95 83q-79 -77 -252 -127q-171 -49 -444 -49q-161 0 -282 26q-119 26 -193 73q-75 47 -112 119q-36 71 -36 161q0 33 8 92q7 52 29 107q18 49 55 89q34 37 88 37q36 0 59 -22q23 -23 23 -74q0 -39 -8 -79t-8 -75q0 -57 41 -87q40 -31 111 -46
q67 -16 162 -19q93 -3 198 -3q73 0 133 4q67 4 127 15q56 10 108 32q46 19 76 55q18 20 29 53q11 29 24 57q13 26 33 46q20 18 55 18q25 0 42 -11q15 -9 29 -30q10 -15 25 -46q-1 4 25 -58q16 -35 44 -59q26 -23 79 -23h17v-295h-58zM659 950q-53 0 -93 40t-40 95
q0 56 40 95q41 39 93 39q53 0 93 -39t40 -95q0 -54 -39 -95q-39 -40 -94 -40zM960 950q-53 0 -93 40t-40 95q0 56 40 95q41 39 93 39q53 0 93 -39t40 -95q0 -54 -39 -95q-39 -40 -94 -40zM811 700q-54 0 -93 40q-40 40 -40 96q0 55 40 94q39 39 93 39q55 0 95 -39t40 -94
t-39 -96q-39 -40 -96 -40z" />
    <glyph glyph-name="uni0681.init" unicode="&#x681;" horiz-adv-x="1211" 
d="M184 295q115 0 228 35q109 34 223 86l-161 47q-64 18 -81 18q-22 0 -41 -10l-76 -43q-19 -10 -42 -10q-60 0 -80 30q-21 29 -21 72q0 53 24 98q23 45 62 76q38 31 85 49q48 17 93 17q56 0 129 -21l152 -48q77 -26 164 -51q84 -24 164 -30q46 -5 70 -26q22 -21 37 -49
q12 -27 15 -51q3 -25 3 -33q0 -16 -2 -44q-1 -19 -13 -41q-12 -20 -35 -35q-22 -15 -67 -26q-83 -18 -148 -48q-64 -30 -123 -63l-117 -69q-61 -36 -129 -62q-70 -28 -162 -45q-91 -18 -212 -18h-123q-17 0 -32 4q-17 5 -17 12v263q0 6 17 11q18 5 32 5h184zM469 908
q-85 -27 -102 -27q-24 0 -41 12q-18 12 -18 37t31 43q26 16 77 37q-43 43 -43 108q0 42 16 73q15 32 38 55q22 22 51 34t53 12q59 0 97 -22q38 -23 38 -57q0 -23 -10 -29t-27 -6q-22 0 -46 6q-25 6 -44 6q-35 0 -48 -19q-15 -19 -15 -40q0 -64 102 -64q10 0 29 4q34 8 44 11
q12 3 47 10q20 4 34 4q22 0 35 -12q12 -13 12 -29q0 -20 -11 -40q-12 -19 -50 -30z" />
    <glyph glyph-name="uni0681.medi" unicode="&#x681;" horiz-adv-x="1239" 
d="M1038 0q-120 0 -183 71q-64 70 -79 199q-71 -51 -130 -97q-63 -49 -125 -86q-67 -39 -135 -62q-69 -25 -157 -25h-229q-17 0 -32 4q-17 5 -17 12v263q0 6 17 11q18 5 32 5h178q101 0 203 38q91 34 197 91q-95 18 -121 22q-48 7 -66 7q-22 0 -39 -9l-70 -39
q-17 -10 -38 -10q-65 0 -87 31q-24 32 -24 66q0 57 24 102q23 45 62 77t87 48q47 16 97 16q53 0 129 -15q62 -12 161 -33q86 -19 168 -36q79 -17 147 -22q74 -4 109 -36q34 -31 34 -71q0 -45 -14 -75q-15 -29 -41 -47q-27 -19 -63 -30q-36 -12 -81 -24q15 -22 45 -36
q29 -15 74 -15h168v-295h-201zM479 908q-85 -27 -102 -27q-24 0 -41 12q-18 12 -18 37t31 43q26 16 77 37q-43 43 -43 108q0 42 16 73q15 32 38 55q22 22 51 34t53 12q59 0 97 -22q38 -23 38 -57q0 -23 -10 -29t-27 -6q-22 0 -46 6q-25 6 -44 6q-35 0 -48 -19
q-15 -19 -15 -40q0 -64 102 -64q10 0 29 4q34 8 44 11q12 3 47 10q20 4 34 4q22 0 35 -12q12 -13 12 -29q0 -20 -11 -40q-12 -19 -50 -30z" />
    <glyph glyph-name="uni0681.fina" unicode="&#x681;" horiz-adv-x="1300" 
d="M1042 0q-61 0 -106 24q-44 22 -75 62q-29 38 -46 88q-17 52 -23 102q-73 -29 -148 -74q-73 -43 -129 -96q-55 -51 -91 -113q-35 -62 -35 -128q0 -98 31 -159q30 -62 83 -98t122 -48q66 -13 147 -13q95 0 186 20q86 19 174 19q78 0 106 -33q27 -34 27 -102q0 -47 -43 -83
q-45 -37 -116 -59q-73 -24 -171 -36q-97 -12 -206 -12q-134 0 -250 33q-114 31 -199 101q-84 67 -132 173q-48 104 -48 250q0 130 46 225q47 97 114 167q71 75 146 121q85 53 145 87q-21 0 -34 1l-19 1q-13 0 -19 1q-13 1 -34 1h-21q-29 0 -50 -15q-22 -16 -42 -33
q-21 -18 -42 -33q-22 -15 -47 -15q-51 0 -81 34q-31 32 -31 84q0 39 24 87q23 47 60 87q38 40 82 66q45 27 90 27q51 0 83 -4l35 -5q24 -4 35 -5q33 -4 72 -12t91 -12l126 -9q82 -5 178 -5q91 0 129 -38q37 -38 37 -107q0 -44 -42 -97q-41 -51 -157 -77q14 -17 41 -30
q27 -15 62 -15h223v-295h-258zM550 860q-85 -27 -102 -27q-24 0 -41 12q-18 12 -18 37t31 43q26 16 77 37q-43 43 -43 108q0 42 16 73q15 32 38 55q22 22 51 34t53 12q59 0 97 -22q38 -23 38 -57q0 -23 -10 -29t-27 -6q-22 0 -46 6q-25 6 -44 6q-35 0 -48 -19
q-15 -19 -15 -40q0 -64 102 -64q10 0 29 4q34 8 44 11q12 3 47 10q20 4 34 4q22 0 35 -12q12 -13 12 -29q0 -20 -11 -40q-12 -19 -50 -30z" />
    <glyph glyph-name="uni0682.init" unicode="&#x682;" horiz-adv-x="1211" 
d="M184 295q115 0 228 35q109 34 223 86l-161 47q-64 18 -81 18q-22 0 -41 -10l-76 -43q-19 -10 -42 -10q-60 0 -80 30q-21 29 -21 72q0 53 24 98q23 45 62 76q38 31 85 49q48 17 93 17q56 0 129 -21l152 -48q77 -26 164 -51q84 -24 164 -30q46 -5 70 -26q22 -21 37 -49
q12 -27 15 -51q3 -25 3 -33q0 -16 -2 -44q-1 -19 -13 -41q-12 -20 -35 -35q-22 -15 -67 -26q-83 -18 -148 -48q-64 -30 -123 -63l-117 -69q-61 -36 -129 -62q-70 -28 -162 -45q-91 -18 -212 -18h-123q-17 0 -32 4q-17 5 -17 12v263q0 6 17 11q18 5 32 5h184zM671 1025
q0 -53 -40 -93t-95 -40t-94 40q-39 41 -39 93q0 53 39 93t94 40t95 -39t40 -94zM671 1326q0 -53 -40 -93t-95 -40t-94 40q-39 41 -39 93q0 53 39 93t94 40t95 -39t40 -94z" />
    <glyph glyph-name="uni0682.medi" unicode="&#x682;" horiz-adv-x="1239" 
d="M1038 0q-120 0 -183 71q-64 70 -79 199q-71 -51 -130 -97q-63 -49 -125 -86q-67 -39 -135 -62q-69 -25 -157 -25h-229q-17 0 -32 4q-17 5 -17 12v263q0 6 17 11q18 5 32 5h178q101 0 203 38q91 34 197 91q-95 18 -121 22q-48 7 -66 7q-22 0 -39 -9l-70 -39
q-17 -10 -38 -10q-65 0 -87 31q-24 32 -24 66q0 57 24 102q23 45 62 77t87 48q47 16 97 16q53 0 129 -15q62 -12 161 -33q86 -19 168 -36q79 -17 147 -22q74 -4 109 -36q34 -31 34 -71q0 -45 -14 -75q-15 -29 -41 -47q-27 -19 -63 -30q-36 -12 -81 -24q15 -22 45 -36
q29 -15 74 -15h168v-295h-201zM691 1008q0 -53 -40 -93t-95 -40t-94 40q-39 41 -39 93q0 53 39 93t94 40t95 -39t40 -94zM691 1309q0 -53 -40 -93t-95 -40t-94 40q-39 41 -39 93q0 53 39 93t94 40t95 -39t40 -94z" />
    <glyph glyph-name="uni0682.fina" unicode="&#x682;" horiz-adv-x="1300" 
d="M1042 0q-61 0 -106 24q-44 22 -75 62q-29 38 -46 88q-17 52 -23 102q-73 -29 -148 -74q-73 -43 -129 -96q-55 -51 -91 -113q-35 -62 -35 -128q0 -98 31 -159q30 -62 83 -98t122 -48q66 -13 147 -13q95 0 186 20q86 19 174 19q78 0 106 -33q27 -34 27 -102q0 -47 -43 -83
q-45 -37 -116 -59q-73 -24 -171 -36q-97 -12 -206 -12q-134 0 -250 33q-114 31 -199 101q-84 67 -132 173q-48 104 -48 250q0 130 46 225q47 97 114 167q71 75 146 121q85 53 145 87q-21 0 -34 1l-19 1q-13 0 -19 1q-13 1 -34 1h-21q-29 0 -50 -15q-22 -16 -42 -33
q-21 -18 -42 -33q-22 -15 -47 -15q-51 0 -81 34q-31 32 -31 84q0 39 24 87q23 47 60 87q38 40 82 66q45 27 90 27q51 0 83 -4l35 -5q24 -4 35 -5q33 -4 72 -12t91 -12l126 -9q82 -5 178 -5q91 0 129 -38q37 -38 37 -107q0 -44 -42 -97q-41 -51 -157 -77q14 -17 41 -30
q27 -15 62 -15h223v-295h-258zM752 976q0 -53 -40 -93t-95 -40t-94 40q-39 41 -39 93q0 53 39 93t94 40t95 -39t40 -94zM752 1277q0 -53 -40 -93t-95 -40t-94 40q-39 41 -39 93q0 53 39 93t94 40t95 -39t40 -94z" />
    <glyph glyph-name="uni0685.init" unicode="&#x685;" horiz-adv-x="1211" 
d="M184 295q115 0 228 35q109 34 223 86l-161 47q-64 18 -81 18q-22 0 -41 -10l-76 -43q-19 -10 -42 -10q-60 0 -80 30q-21 29 -21 72q0 53 24 98q23 45 62 76q38 31 85 49q48 17 93 17q56 0 129 -21l152 -48q77 -26 164 -51q84 -24 164 -30q46 -5 70 -26q22 -21 37 -49
q12 -27 15 -51q3 -25 3 -33q0 -16 -2 -44q-1 -19 -13 -41q-12 -20 -35 -35q-22 -15 -67 -26q-83 -18 -148 -48q-64 -30 -123 -63l-117 -69q-61 -36 -129 -62q-70 -28 -162 -45q-91 -18 -212 -18h-123q-17 0 -32 4q-17 5 -17 12v263q0 6 17 11q18 5 32 5h184zM630 933
q-40 -39 -94 -39q-52 0 -93 39q-40 39 -40 95q0 55 40 95t93 40q56 0 95 -40q38 -41 38 -95q0 -56 -39 -95zM931 933q-40 -39 -94 -39q-52 0 -93 39q-40 39 -40 95q0 55 40 95t93 40q56 0 95 -40t39 -95q0 -56 -40 -95zM783 1183q-40 -39 -95 -39q-52 0 -93 39
q-40 39 -40 94q0 56 40 96t93 40q57 0 96 -40t39 -96q0 -55 -40 -94z" />
    <glyph glyph-name="uni0685.medi" unicode="&#x685;" horiz-adv-x="1239" 
d="M1038 0q-120 0 -183 71q-64 70 -79 199q-71 -51 -130 -97q-63 -49 -125 -86q-67 -39 -135 -62q-69 -25 -157 -25h-229q-17 0 -32 4q-17 5 -17 12v263q0 6 17 11q18 5 32 5h178q101 0 203 38q91 34 197 91q-95 18 -121 22q-48 7 -66 7q-22 0 -39 -9l-70 -39
q-17 -10 -38 -10q-65 0 -87 31q-24 32 -24 66q0 57 24 102q23 45 62 77t87 48q47 16 97 16q53 0 129 -15q62 -12 161 -33q86 -19 168 -36q79 -17 147 -22q74 -4 109 -36q34 -31 34 -71q0 -45 -14 -75q-15 -29 -41 -47q-27 -19 -63 -30q-36 -12 -81 -24q15 -22 45 -36
q29 -15 74 -15h168v-295h-201zM630 913q-40 -39 -94 -39q-52 0 -93 39q-40 39 -40 95q0 55 40 95t93 40q56 0 95 -40q38 -41 38 -95q0 -56 -39 -95zM931 913q-40 -39 -94 -39q-52 0 -93 39q-40 39 -40 95q0 55 40 95t93 40q56 0 95 -40t39 -95q0 -56 -40 -95zM783 1163
q-40 -39 -95 -39q-52 0 -93 39q-40 39 -40 94q0 56 40 96t93 40q57 0 96 -40t39 -96q0 -55 -40 -94z" />
    <glyph glyph-name="uni0685.fina" unicode="&#x685;" horiz-adv-x="1300" 
d="M1042 0q-61 0 -106 24q-44 22 -75 62q-29 38 -46 88q-17 52 -23 102q-73 -29 -148 -74q-73 -43 -129 -96q-55 -51 -91 -113q-35 -62 -35 -128q0 -98 31 -159q30 -62 83 -98t122 -48q66 -13 147 -13q95 0 186 20q86 19 174 19q78 0 106 -33q27 -34 27 -102q0 -47 -43 -83
q-45 -37 -116 -59q-73 -24 -171 -36q-97 -12 -206 -12q-134 0 -250 33q-114 31 -199 101q-84 67 -132 173q-48 104 -48 250q0 130 46 225q47 97 114 167q71 75 146 121q85 53 145 87q-21 0 -34 1l-19 1q-13 0 -19 1q-13 1 -34 1h-21q-29 0 -50 -15q-22 -16 -42 -33
q-21 -18 -42 -33q-22 -15 -47 -15q-51 0 -81 34q-31 32 -31 84q0 39 24 87q23 47 60 87q38 40 82 66q45 27 90 27q51 0 83 -4l35 -5q24 -4 35 -5q33 -4 72 -12t91 -12l126 -9q82 -5 178 -5q91 0 129 -38q37 -38 37 -107q0 -44 -42 -97q-41 -51 -157 -77q14 -17 41 -30
q27 -15 62 -15h223v-295h-258zM630 890q-40 -39 -94 -39q-52 0 -93 39q-40 39 -40 95q0 55 40 95t93 40q56 0 95 -40q38 -41 38 -95q0 -56 -39 -95zM931 890q-40 -39 -94 -39q-52 0 -93 39q-40 39 -40 95q0 55 40 95t93 40q56 0 95 -40t39 -95q0 -56 -40 -95zM783 1140
q-40 -39 -95 -39q-52 0 -93 39q-40 39 -40 94q0 56 40 96t93 40q57 0 96 -40t39 -96q0 -55 -40 -94z" />
    <glyph glyph-name="uni0689.fina" unicode="&#x689;" horiz-adv-x="1050" 
d="M455 -78q-15 -34 -15 -63q0 -21 10 -34q11 -15 39 -15q52 0 74 16q23 15 23 38q0 28 -28 57q-29 30 -76 51q-13 -18 -27 -50zM340 -69q-13 -1 -37 -1q-95 0 -148 37q-55 37 -55 115q0 61 41 90t123 33q38 1 105 8q53 5 111 17q55 11 88 26q36 17 36 39q0 44 -33 99
q-34 57 -73 112t-72 113q-33 56 -33 98q0 60 35 95q34 34 86 34q71 0 144 -99q74 -101 175 -296q38 -75 79 -116q40 -40 118 -40h20v-295h-53q-84 0 -131 21q-45 19 -92 61q-42 -42 -95 -71q14 -20 20 -31q28 -50 28 -102q0 -48 -18 -89q-21 -44 -50 -70q-31 -29 -72 -46
q-41 -16 -86 -16q-28 0 -65 8q-34 7 -61 24q-28 16 -46 45t-18 70q0 48 20 103z" />
    <glyph glyph-name="uni068A.fina" unicode="&#x68a;" horiz-adv-x="1050" 
d="M997 0q-84 0 -131 21q-45 19 -92 61q-47 -47 -107 -77q-60 -29 -125 -46q-61 -16 -127 -22q-59 -7 -112 -7q-95 0 -148 37q-55 37 -55 115q0 61 41 90t123 33q38 1 105 8q53 5 111 17q55 11 88 26q36 17 36 39q0 44 -33 99q-34 57 -73 112t-72 113q-33 56 -33 98
q0 60 35 95q34 34 86 34q71 0 144 -99q74 -101 175 -296q38 -75 79 -116q40 -40 118 -40h20v-295h-53zM581 -395q-43 -41 -101 -41q-57 0 -98 41t-41 100t41 100t98 41q58 0 101 -41q42 -40 42 -100q0 -59 -42 -100z" />
    <glyph glyph-name="uni068B.fina" unicode="&#x68b;" horiz-adv-x="1050" 
d="M997 0q-84 0 -131 21q-45 19 -92 61q-47 -47 -107 -77q-60 -29 -125 -46q-61 -16 -127 -22q-59 -7 -112 -7q-95 0 -148 37q-55 37 -55 115q0 61 41 90t123 33q38 1 105 8q53 5 111 17q55 11 88 26q36 17 36 39q0 44 -33 99q-34 57 -73 112t-72 113q-33 56 -33 98
q0 60 35 95q34 34 86 34q71 0 144 -99q74 -101 175 -296q38 -75 79 -116q40 -40 118 -40h20v-295h-53zM719 1112q-26 -38 -71 -65q-43 -25 -99 -36q-58 -11 -110 -11q-32 0 -86 2q-45 2 -70 8q-32 8 -47 23q-17 15 -17 44q0 19 8 33q8 12 21 18q15 7 27 8q18 2 27 2
q20 0 33 3t24 14q10 11 14 35q5 25 5 63q0 66 -8 138t-8 135q0 64 61 64q31 0 46 -16q14 -16 19 -49l8 -70q2 -46 2 -75l-2 -50l-4 -35q30 22 60 34q32 13 60 13q20 0 41 -7q23 -8 44 -24q22 -18 35 -41q14 -26 14 -60q0 -59 -27 -98zM496 1121q13 1 50 7q32 6 48 11
q21 6 36 18q14 12 14 27q0 25 -17 33q-18 8 -35 8q-18 0 -42 -11t-44 -27q-22 -16 -41 -35q-24 -24 -34 -35zM581 -395q-43 -41 -101 -41q-57 0 -98 41t-41 100t41 100t98 41q58 0 101 -41q42 -40 42 -100q0 -59 -42 -100z" />
    <glyph glyph-name="uni068F.fina" unicode="&#x68f;" horiz-adv-x="1050" 
d="M997 0q-84 0 -131 21q-45 19 -92 61q-47 -47 -107 -77q-60 -29 -125 -46q-61 -16 -127 -22q-59 -7 -112 -7q-95 0 -148 37q-55 37 -55 115q0 61 41 90t123 33q38 1 105 8q53 5 111 17q55 11 88 26q36 17 36 39q0 44 -33 99q-34 57 -73 112t-72 113q-33 56 -33 98
q0 60 35 95q34 34 86 34q71 0 144 -99q74 -101 175 -296q38 -75 79 -116q40 -40 118 -40h20v-295h-53zM350 1248q-53 0 -93 40t-40 95q0 56 40 95q41 39 93 39q54 0 94 -39q39 -39 39 -95q0 -54 -38 -95q-39 -40 -95 -40zM651 1248q-53 0 -93 40t-40 95q0 56 40 95
q41 39 93 39q54 0 94 -39t40 -95q0 -54 -39 -95q-39 -40 -95 -40zM502 998q-53 0 -93 40t-40 96q0 55 40 94q41 39 93 39q55 0 95 -39t40 -94t-39 -96q-39 -40 -96 -40z" />
    <glyph glyph-name="uni0690.fina" unicode="&#x690;" horiz-adv-x="1050" 
d="M997 0q-84 0 -131 21q-45 19 -92 61q-47 -47 -107 -77q-60 -29 -125 -46q-61 -16 -127 -22q-59 -7 -112 -7q-95 0 -148 37q-55 37 -55 115q0 61 41 90t123 33q38 1 105 8q53 5 111 17q55 11 88 26q36 17 36 39q0 44 -33 99q-34 57 -73 112t-72 113q-33 56 -33 98
q0 60 35 95q34 34 86 34q71 0 144 -99q74 -101 175 -296q38 -75 79 -116q40 -40 118 -40h20v-295h-53zM745 1035q-40 -39 -93 -39q-52 0 -93 39q-40 39 -40 95q0 55 40 95t93 40q55 0 94 -40t39 -95q0 -56 -40 -95zM447 1224q39 -40 39 -93q0 -52 -39 -93q-39 -40 -94 -40
t-95 40t-40 93q0 55 40 94q41 39 95 39q55 0 94 -40zM447 1525q39 -40 39 -93q0 -52 -39 -93q-39 -40 -94 -40t-95 40t-40 93q0 55 40 94q41 39 95 39q55 0 94 -40zM748 1525q39 -40 39 -93q0 -52 -39 -93q-39 -40 -94 -40t-95 40t-40 93q0 55 40 94q41 39 95 39
q55 0 94 -40z" />
    <glyph glyph-name="uni0692.fina" unicode="&#x692;" horiz-adv-x="970" 
d="M761 425q11 -31 32 -62q20 -29 52 -48q32 -20 90 -20h35v-295h-60q-70 5 -120 30q-29 17 -64 43v1l-4 -12q-39 -109 -99 -193q-64 -87 -134 -143q-73 -60 -144 -99q-72 -40 -126 -56q-57 -17 -83 -17q-64 0 -99 30q-34 28 -34 70q0 58 30 89q28 31 76 54q185 86 291 210
q105 125 105 306q0 11 -2 41q-2 28 -2 43q0 35 4 63q5 34 16 58q12 25 34 41q20 16 56 16q87 0 124 -91q15 -30 26 -59zM332 1004q0 16 19 26t52 10q20 0 46 -14q24 -14 51 -38q23 -20 48 -52q24 -30 40 -58q13 24 38 54q22 27 51 52q25 22 54 40q25 16 46 16q31 0 50 -10
t19 -26q0 -8 -9 -17q-8 -8 -23 -18q-30 -23 -53 -49q-27 -31 -47 -60q-21 -31 -36 -63q-15 -28 -20 -59q-4 -33 -67 -33q-32 0 -49 9q-18 8 -22 24q-5 29 -17 57q-10 22 -34 61q-18 26 -47 61q-30 32 -57 52q-16 10 -24 19q-9 9 -9 16z" />
    <glyph glyph-name="uni0693.fina" unicode="&#x693;" horiz-adv-x="970" 
d="M513 -243q-15 -34 -15 -63q0 -21 10 -34q11 -15 39 -15q52 0 74 16q23 15 23 38q0 28 -28 57q-29 30 -76 51q-13 -18 -27 -50zM369 -359l-12 -7q-8 -4 -12 -7q-72 -40 -126 -56q-57 -17 -83 -17q-64 0 -99 30q-34 28 -34 70q0 58 30 89q28 31 76 54q185 86 291 210
q105 125 105 306q0 11 -2 41q-2 28 -2 43q0 35 4 63q5 34 16 58q12 25 34 41q20 16 56 16q87 0 124 -91q15 -30 26 -59q11 -31 32 -62q20 -29 52 -48q32 -20 90 -20h35v-295h-60q-70 5 -120 30q-29 17 -64 43v1l-4 -12q-26 -74 -62 -136q9 -7 25 -21q44 -40 72 -90t28 -102
q0 -48 -18 -89q-21 -44 -50 -70q-31 -29 -72 -46q-41 -16 -86 -16q-28 0 -65 8q-34 7 -61 24q-28 16 -46 45t-18 70v2z" />
    <glyph glyph-name="uni0694.fina" unicode="&#x694;" horiz-adv-x="970" 
d="M761 425q11 -31 32 -62q20 -29 52 -48q32 -20 90 -20h35v-295h-60q-70 5 -120 30q-29 17 -64 43v1l-4 -12q-39 -109 -99 -193q-64 -87 -134 -143q-73 -60 -144 -99q-72 -40 -126 -56q-57 -17 -83 -17q-64 0 -99 30q-34 28 -34 70q0 58 30 89q28 31 76 54q185 86 291 210
q105 125 105 306q0 11 -2 41q-2 28 -2 43q0 35 4 63q5 34 16 58q12 25 34 41q20 16 56 16q87 0 124 -91q15 -30 26 -59zM746 -545q-38 -37 -93 -37q-52 0 -89 37q-38 38 -38 92q0 53 38 91q37 37 89 37q55 0 93 -37q38 -38 38 -91q0 -54 -38 -92z" />
    <glyph glyph-name="uni0695.fina" unicode="&#x695;" horiz-adv-x="970" 
d="M761 425q11 -31 32 -62q20 -29 52 -48q32 -20 90 -20h35v-295h-60q-70 5 -120 30q-29 17 -64 43v1l-4 -12q-39 -109 -99 -193q-64 -87 -134 -143q-73 -60 -144 -99q-72 -40 -126 -56q-57 -17 -83 -17q-64 0 -99 30q-34 28 -34 70q0 58 30 89q28 31 76 54q185 86 291 210
q105 125 105 306q0 11 -2 41q-2 28 -2 43q0 35 4 63q5 34 16 58q12 25 34 41q20 16 56 16q87 0 124 -91q15 -30 26 -59zM301 -510q0 16 19 26t52 10q20 0 46 -14q24 -14 51 -38q23 -20 48 -52q24 -30 40 -58q13 24 38 54q22 27 51 52q25 22 54 40q25 16 46 16q31 0 50 -10
t19 -26q0 -8 -9 -17q-8 -8 -23 -18q-30 -23 -53 -49q-27 -31 -47 -60q-21 -31 -36 -63q-15 -28 -20 -59q-4 -33 -67 -33q-32 0 -49 9q-18 8 -22 24q-5 29 -17 57q-10 22 -34 61q-18 26 -47 61q-30 32 -57 52q-16 10 -24 19q-9 9 -9 16z" />
    <glyph glyph-name="uni0696.fina" unicode="&#x696;" horiz-adv-x="1007" 
d="M798 425q11 -31 32 -62q20 -29 52 -48q32 -20 90 -20h35v-295h-60q-70 5 -120 30q-29 17 -64 43v1l-4 -12q-39 -109 -99 -193q-64 -87 -134 -143q-73 -60 -144 -99q-72 -40 -126 -56q-57 -17 -83 -17q-64 0 -99 30q-34 28 -34 70q0 58 30 89q28 31 76 54q185 86 291 210
q105 125 105 306q0 11 -2 41q-2 28 -2 43q0 35 4 63q5 34 16 58q12 25 34 41q20 16 56 16q87 0 124 -91q15 -30 26 -59zM783 -545q-38 -37 -93 -37q-52 0 -89 37q-38 38 -38 92q0 53 38 91q37 37 89 37q55 0 93 -37q38 -38 38 -91q0 -54 -38 -92zM350 118q-38 -37 -93 -37
q-52 0 -89 37q-38 38 -38 92q0 53 38 91q37 37 89 37q55 0 93 -37q38 -38 38 -91q0 -54 -38 -92z" />
    <glyph glyph-name="uni0697.fina" unicode="&#x697;" horiz-adv-x="970" 
d="M761 425q11 -31 32 -62q20 -29 52 -48q32 -20 90 -20h35v-295h-60q-70 5 -120 30q-29 17 -64 43v1l-4 -12q-39 -109 -99 -193q-64 -87 -134 -143q-73 -60 -144 -99q-72 -40 -126 -56q-57 -17 -83 -17q-64 0 -99 30q-34 28 -34 70q0 58 30 89q28 31 76 54q185 86 291 210
q105 125 105 306q0 11 -2 41q-2 28 -2 43q0 35 4 63q5 34 16 58q12 25 34 41q20 16 56 16q87 0 124 -91q15 -30 26 -59zM527 746q-40 -39 -94 -39q-52 0 -93 39q-40 39 -40 95q0 55 40 95t93 40q56 0 95 -40q38 -41 38 -95q0 -56 -39 -95zM828 746q-40 -39 -94 -39
q-52 0 -93 39q-40 39 -40 95q0 55 40 95t93 40q56 0 95 -40t39 -95q0 -56 -40 -95z" />
    <glyph glyph-name="uni0699.fina" unicode="&#x699;" horiz-adv-x="970" 
d="M761 425q11 -31 32 -62q20 -29 52 -48q32 -20 90 -20h35v-295h-60q-70 5 -120 30q-29 17 -64 43v1l-4 -12q-39 -109 -99 -193q-64 -87 -134 -143q-73 -60 -144 -99q-72 -40 -126 -56q-57 -17 -83 -17q-64 0 -99 30q-34 28 -34 70q0 58 30 89q28 31 76 54q185 86 291 210
q105 125 105 306q0 11 -2 41q-2 28 -2 43q0 35 4 63q5 34 16 58q12 25 34 41q20 16 56 16q87 0 124 -91q15 -30 26 -59zM825 745q-40 -39 -93 -39q-52 0 -93 39q-40 39 -40 95q0 55 40 95t93 40q55 0 94 -40t39 -95q0 -56 -40 -95zM527 934q39 -40 39 -93q0 -52 -39 -93
q-39 -40 -94 -40t-95 40t-40 93q0 55 40 94q41 39 95 39q55 0 94 -40zM527 1235q39 -40 39 -93q0 -52 -39 -93q-39 -40 -94 -40t-95 40t-40 93q0 55 40 94q41 39 95 39q55 0 94 -40zM828 1235q39 -40 39 -93q0 -52 -39 -93q-39 -40 -94 -40t-95 40t-40 93q0 55 40 94
q41 39 95 39q55 0 94 -40z" />
    <glyph glyph-name="uni069A.init" unicode="&#x69a;" horiz-adv-x="1268" 
d="M35 295q55 0 79 34q22 32 39 74q16 42 37 75q21 34 70 34q56 0 74 -35q17 -32 31 -78q12 -43 34 -77q21 -35 82 -35q43 0 56 36q10 30 22 78q11 44 31 79q20 36 82 36q54 0 73 -36q19 -34 34 -79q14 -43 36 -78q21 -36 78 -36q28 0 42 23q13 22 13 48q0 40 -16 71t-16 67
q0 53 36 80q35 26 78 26t74 -24q31 -25 50 -62q19 -39 26 -81q8 -46 8 -85q0 -69 -19 -129q-19 -62 -59 -111q-39 -50 -97 -78q-60 -31 -134 -32q-62 0 -118 30q-54 28 -93 76q-33 -41 -89 -74q-56 -32 -110 -32q-72 0 -122 24q-48 22 -87 70q-34 -44 -91 -69
q-54 -25 -134 -25h-35q-17 0 -32 4q-17 5 -17 12v263q0 6 17 11q18 5 32 5h35zM769 714q-43 -41 -101 -41q-57 0 -98 41t-41 100q0 60 41 101q40 40 98 40q60 0 101 -40q42 -40 42 -101q0 -59 -42 -100zM769 -395q-43 -41 -101 -41q-57 0 -98 41t-41 100t41 100t98 41
q58 0 101 -41q42 -40 42 -100q0 -59 -42 -100z" />
    <glyph glyph-name="uni069A.medi" unicode="&#x69a;" horiz-adv-x="1352" 
d="M1333 0q-143 0 -227 94q-39 -49 -89 -70q-52 -24 -112 -24t-116 28q-59 27 -99 70q-34 -46 -85 -71q-52 -27 -126 -27q-139 0 -217 94q-36 -36 -95 -65q-60 -29 -116 -29h-51q-17 0 -32 4q-17 5 -17 12v263q0 6 17 11q18 5 32 5h35q43 0 66 17t36 40q14 23 21 51
q7 25 20 51q13 24 33 40q19 16 57 16t58 -16q20 -17 32 -41q11 -25 18 -54q9 -35 17 -55q10 -25 29 -41q17 -16 53 -16t55 16q18 15 32 42q10 19 23 56q9 29 23 55q14 27 32 42q19 16 52 16q38 0 58 -16q20 -17 32 -42q10 -24 18 -55q9 -37 17 -56q11 -27 29 -42
q17 -16 53 -16q48 0 68 35q18 34 31 77q12 44 33 78q20 35 73 35q38 0 57 -16q18 -15 31 -40q13 -27 20 -52q9 -32 19 -52q12 -24 34 -40q22 -17 62 -17h25v-295h-19zM798 714q-43 -41 -102 -41q-57 0 -98 41t-41 100q0 60 41 101q40 40 98 40q61 0 102 -40q42 -40 42 -101
q0 -59 -42 -100zM798 -395q-43 -41 -102 -41q-57 0 -98 41t-41 100t41 100t98 41q59 0 102 -41q42 -40 42 -100q0 -59 -42 -100z" />
    <glyph glyph-name="uni069A.fina" unicode="&#x69a;" horiz-adv-x="2144" 
d="M2128 0q-45 0 -78 5q-28 4 -54 16q-26 11 -45 29q-22 18 -49 46q-52 -52 -104 -75t-123 -23q-65 0 -112 30q-45 28 -81 76q-27 -41 -69 -74q-41 -32 -99 -32q-29 0 -64 5q-31 5 -54 15q-14 -138 -55 -246q-43 -112 -115 -187q-73 -76 -179 -117q-108 -41 -243 -41
q-147 0 -244 44q-95 43 -154 114q-60 71 -82 157q-24 89 -24 174q0 61 6 124q6 64 25 113q19 51 51 82t86 31q40 0 62 -25t22 -83q0 -55 -9 -102q-10 -44 -10 -89q0 -50 17 -98q17 -49 50 -83q35 -36 88 -57q53 -22 132 -22q163 0 254 90q92 90 92 240q0 41 -13 77
q-18 50 -29 74q-16 33 -30 71q-14 37 -14 73q0 55 41 91t84 36q44 0 72 -28q49 -48 58 -59q30 -33 63 -59q34 -28 90 -28q49 0 63 29q12 26 17 61q3 15 7 45q3 23 14 44q10 19 32 33q19 13 57 13q37 0 59 -16q20 -15 34 -41q11 -24 19 -53q9 -34 20 -55q12 -26 32 -43
q21 -18 53 -19q32 1 50 19q17 17 24 42q9 31 14 54q4 24 16 52q11 23 32 40q19 16 61 16t64 -15q22 -16 34 -39q11 -24 18 -51q8 -30 19 -51q12 -23 35 -39q22 -16 66 -16h16v-295h-16zM1569 714q-43 -41 -101 -41t-99 41t-41 100q0 60 41 101q40 40 99 40q60 0 101 -40
q42 -40 42 -101q0 -59 -42 -100zM1569 -395q-43 -41 -101 -41t-99 41t-41 100t41 100t99 41t101 -41q42 -40 42 -100q0 -59 -42 -100z" />
    <glyph glyph-name="uni069B.init" unicode="&#x69b;" horiz-adv-x="1268" 
d="M35 295q55 0 79 34q22 32 39 74q16 42 37 75q21 34 70 34q56 0 74 -35q17 -32 31 -78q12 -43 34 -77q21 -35 82 -35q43 0 56 36q10 30 22 78q11 44 31 79q20 36 82 36q54 0 73 -36q19 -34 34 -79q14 -43 36 -78q21 -36 78 -36q28 0 42 23q13 22 13 48q0 40 -16 71t-16 67
q0 53 36 80q35 26 78 26t74 -24q31 -25 50 -62q19 -39 26 -81q8 -46 8 -85q0 -69 -19 -129q-19 -62 -59 -111q-39 -50 -97 -78q-60 -31 -134 -32q-62 0 -118 30q-54 28 -93 76q-33 -41 -89 -74q-56 -32 -110 -32q-72 0 -122 24q-48 22 -87 70q-34 -44 -91 -69
q-54 -25 -134 -25h-35q-17 0 -32 4q-17 5 -17 12v263q0 6 17 11q18 5 32 5h35zM510 -422q-53 0 -93 40t-40 95q0 56 40 95q41 39 93 39q53 0 93 -39t40 -95q0 -54 -39 -95q-39 -40 -94 -40zM811 -422q-53 0 -93 40t-40 95q0 56 40 95q41 39 93 39q53 0 93 -39t40 -95
q0 -54 -39 -95q-39 -40 -94 -40zM662 -672q-54 0 -93 40q-40 40 -40 96q0 55 40 94q39 39 93 39q55 0 95 -39t40 -94t-39 -96q-39 -40 -96 -40z" />
    <glyph glyph-name="uni069B.medi" unicode="&#x69b;" horiz-adv-x="1352" 
d="M1333 0q-143 0 -227 94q-39 -49 -89 -70q-52 -24 -112 -24t-116 28q-59 27 -99 70q-34 -46 -85 -71q-52 -27 -126 -27q-139 0 -217 94q-36 -36 -95 -65q-60 -29 -116 -29h-51q-17 0 -32 4q-17 5 -17 12v263q0 6 17 11q18 5 32 5h35q43 0 66 17t36 40q14 23 21 51
q7 25 20 51q13 24 33 40q19 16 57 16t58 -16q20 -17 32 -41q11 -25 18 -54q9 -35 17 -55q10 -25 29 -41q17 -16 53 -16t55 16q18 15 32 42q10 19 23 56q9 29 23 55q14 27 32 42q19 16 52 16q38 0 58 -16q20 -17 32 -42q10 -24 18 -55q9 -37 17 -56q11 -27 29 -42
q17 -16 53 -16q48 0 68 35q18 34 31 77q12 44 33 78q20 35 73 35q38 0 57 -16q18 -15 31 -40q13 -27 20 -52q9 -32 19 -52q12 -24 34 -40q22 -17 62 -17h25v-295h-19zM539 -422q-54 0 -93 40q-40 40 -40 95q0 56 40 95q39 39 93 39q53 0 93 -39t40 -95q0 -54 -39 -95
q-39 -40 -94 -40zM840 -422q-54 0 -93 40q-40 40 -40 95q0 56 40 95q39 39 93 39q53 0 93 -39t40 -95q0 -54 -39 -95q-39 -40 -94 -40zM690 -672q-53 0 -93 40t-40 96q0 55 40 94q41 39 93 39q55 0 95 -39t40 -94t-38 -96q-39 -40 -97 -40z" />
    <glyph glyph-name="uni069B.fina" unicode="&#x69b;" horiz-adv-x="2144" 
d="M2128 0q-45 0 -78 5q-28 4 -54 16q-26 11 -45 29q-22 18 -49 46q-52 -52 -104 -75t-123 -23q-65 0 -112 30q-45 28 -81 76q-27 -41 -69 -74q-41 -32 -99 -32q-29 0 -64 5q-31 5 -54 15q-14 -138 -55 -246q-43 -112 -115 -187q-73 -76 -179 -117q-108 -41 -243 -41
q-147 0 -244 44q-95 43 -154 114q-60 71 -82 157q-24 89 -24 174q0 61 6 124q6 64 25 113q19 51 51 82t86 31q40 0 62 -25t22 -83q0 -55 -9 -102q-10 -44 -10 -89q0 -50 17 -98q17 -49 50 -83q35 -36 88 -57q53 -22 132 -22q163 0 254 90q92 90 92 240q0 41 -13 77
q-18 50 -29 74q-16 33 -30 71q-14 37 -14 73q0 55 41 91t84 36q44 0 72 -28q49 -48 58 -59q30 -33 63 -59q34 -28 90 -28q49 0 63 29q12 26 17 61q3 15 7 45q3 23 14 44q10 19 32 33q19 13 57 13q37 0 59 -16q20 -15 34 -41q11 -24 19 -53q9 -34 20 -55q12 -26 32 -43
q21 -18 53 -19q32 1 50 19q17 17 24 42q9 31 14 54q4 24 16 52q11 23 32 40q19 16 61 16t64 -15q22 -16 34 -39q11 -24 18 -51q8 -30 19 -51q12 -23 35 -39q22 -16 66 -16h16v-295h-16zM1344 -422q-53 0 -93 40t-40 95q0 56 40 95q41 39 93 39q54 0 94 -39t40 -95
q0 -54 -39 -95q-39 -40 -95 -40zM1646 -422q-54 0 -94 40t-40 95q0 56 40 95q41 39 94 39t93 -39t40 -95q0 -54 -39 -95q-39 -40 -94 -40zM1496 -672q-53 0 -93 40t-40 96q0 55 40 94q41 39 93 39q55 0 95 -39t40 -94t-39 -96q-39 -40 -96 -40z" />
    <glyph glyph-name="uni069C.init" unicode="&#x69c;" horiz-adv-x="1268" 
d="M35 295q55 0 79 34q22 32 39 74q16 42 37 75q21 34 70 34q56 0 74 -35q17 -32 31 -78q12 -43 34 -77q21 -35 82 -35q43 0 56 36q10 30 22 78q11 44 31 79q20 36 82 36q54 0 73 -36q19 -34 34 -79q14 -43 36 -78q21 -36 78 -36q28 0 42 23q13 22 13 48q0 40 -16 71t-16 67
q0 53 36 80q35 26 78 26t74 -24q31 -25 50 -62q19 -39 26 -81q8 -46 8 -85q0 -69 -19 -129q-19 -62 -59 -111q-39 -50 -97 -78q-60 -31 -134 -32q-62 0 -118 30q-54 28 -93 76q-33 -41 -89 -74q-56 -32 -110 -32q-72 0 -122 24q-48 22 -87 70q-34 -44 -91 -69
q-54 -25 -134 -25h-35q-17 0 -32 4q-17 5 -17 12v263q0 6 17 11q18 5 32 5h35zM603 686q-40 -39 -93 -39q-52 0 -93 39q-40 39 -40 94q0 56 40 96q41 39 93 39q55 0 94 -39q39 -40 39 -96q0 -55 -40 -94zM904 686q-40 -39 -93 -39q-52 0 -93 39q-40 39 -40 94q0 56 40 96
q41 39 93 39q55 0 94 -39q39 -40 39 -96q0 -55 -40 -94zM757 936q-40 -39 -95 -39q-54 0 -93 39q-40 39 -40 94t40 95q39 40 93 40q57 0 96 -40t39 -95t-40 -94zM510 -422q-53 0 -93 40t-40 95q0 56 40 95q41 39 93 39q53 0 93 -39t40 -95q0 -54 -39 -95q-39 -40 -94 -40z
M811 -422q-53 0 -93 40t-40 95q0 56 40 95q41 39 93 39q53 0 93 -39t40 -95q0 -54 -39 -95q-39 -40 -94 -40zM662 -672q-54 0 -93 40q-40 40 -40 96q0 55 40 94q39 39 93 39q55 0 95 -39t40 -94t-39 -96q-39 -40 -96 -40z" />
    <glyph glyph-name="uni069C.medi" unicode="&#x69c;" horiz-adv-x="1352" 
d="M1333 0q-143 0 -227 94q-39 -49 -89 -70q-52 -24 -112 -24t-116 28q-59 27 -99 70q-34 -46 -85 -71q-52 -27 -126 -27q-139 0 -217 94q-36 -36 -95 -65q-60 -29 -116 -29h-51q-17 0 -32 4q-17 5 -17 12v263q0 6 17 11q18 5 32 5h35q43 0 66 17t36 40q14 23 21 51
q7 25 20 51q13 24 33 40q19 16 57 16t58 -16q20 -17 32 -41q11 -25 18 -54q9 -35 17 -55q10 -25 29 -41q17 -16 53 -16t55 16q18 15 32 42q10 19 23 56q9 29 23 55q14 27 32 42q19 16 52 16q38 0 58 -16q20 -17 32 -42q10 -24 18 -55q9 -37 17 -56q11 -27 29 -42
q17 -16 53 -16q48 0 68 35q18 34 31 77q12 44 33 78q20 35 73 35q38 0 57 -16q18 -15 31 -40q13 -27 20 -52q9 -32 19 -52q12 -24 34 -40q22 -17 62 -17h25v-295h-19zM632 686q-40 -39 -93 -39q-54 0 -93 39q-40 39 -40 94q0 56 40 96q39 39 93 39q55 0 94 -39
q39 -40 39 -96q0 -55 -40 -94zM933 686q-40 -39 -93 -39q-54 0 -93 39q-40 39 -40 94q0 56 40 96q39 39 93 39q55 0 94 -39q39 -40 39 -96q0 -55 -40 -94zM785 936q-40 -39 -95 -39q-52 0 -93 39q-40 39 -40 94t40 95t93 40q58 0 97 -40q38 -41 38 -95q0 -55 -40 -94z
M539 -422q-54 0 -93 40q-40 40 -40 95q0 56 40 95q39 39 93 39q53 0 93 -39t40 -95q0 -54 -39 -95q-39 -40 -94 -40zM840 -422q-54 0 -93 40q-40 40 -40 95q0 56 40 95q39 39 93 39q53 0 93 -39t40 -95q0 -54 -39 -95q-39 -40 -94 -40zM690 -672q-53 0 -93 40t-40 96
q0 55 40 94q41 39 93 39q55 0 95 -39t40 -94t-38 -96q-39 -40 -97 -40z" />
    <glyph glyph-name="uni069C.fina" unicode="&#x69c;" horiz-adv-x="2144" 
d="M2128 0q-45 0 -78 5q-28 4 -54 16q-26 11 -45 29q-22 18 -49 46q-52 -52 -104 -75t-123 -23q-65 0 -112 30q-45 28 -81 76q-27 -41 -69 -74q-41 -32 -99 -32q-29 0 -64 5q-31 5 -54 15q-14 -138 -55 -246q-43 -112 -115 -187q-73 -76 -179 -117q-108 -41 -243 -41
q-147 0 -244 44q-95 43 -154 114q-60 71 -82 157q-24 89 -24 174q0 61 6 124q6 64 25 113q19 51 51 82t86 31q40 0 62 -25t22 -83q0 -55 -9 -102q-10 -44 -10 -89q0 -50 17 -98q17 -49 50 -83q35 -36 88 -57q53 -22 132 -22q163 0 254 90q92 90 92 240q0 41 -13 77
q-18 50 -29 74q-16 33 -30 71q-14 37 -14 73q0 55 41 91t84 36q44 0 72 -28q49 -48 58 -59q30 -33 63 -59q34 -28 90 -28q49 0 63 29q12 26 17 61q3 15 7 45q3 23 14 44q10 19 32 33q19 13 57 13q37 0 59 -16q20 -15 34 -41q11 -24 19 -53q9 -34 20 -55q12 -26 32 -43
q21 -18 53 -19q32 1 50 19q17 17 24 42q9 31 14 54q4 24 16 52q11 23 32 40q19 16 61 16t64 -15q22 -16 34 -39q11 -24 18 -51q8 -30 19 -51q12 -23 35 -39q22 -16 66 -16h16v-295h-16zM1408 686q-40 -39 -94 -39q-52 0 -93 39q-40 39 -40 94q0 56 40 96q41 39 93 39
q56 0 95 -39q39 -40 39 -96q0 -55 -40 -94zM1709 686q-40 -39 -93 -39t-94 39q-40 39 -40 94q0 56 40 96q41 39 94 39q55 0 94 -39q39 -40 39 -96q0 -55 -40 -94zM1561 936q-40 -39 -95 -39q-52 0 -93 39q-40 39 -40 94t40 95t93 40q57 0 96 -40t39 -95t-40 -94zM1344 -422
q-53 0 -93 40t-40 95q0 56 40 95q41 39 93 39q54 0 94 -39t40 -95q0 -54 -39 -95q-39 -40 -95 -40zM1646 -422q-54 0 -94 40t-40 95q0 56 40 95q41 39 94 39t93 -39t40 -95q0 -54 -39 -95q-39 -40 -94 -40zM1496 -672q-53 0 -93 40t-40 96q0 55 40 94q41 39 93 39
q55 0 95 -39t40 -94t-39 -96q-39 -40 -96 -40z" />
    <glyph glyph-name="uni069D.init" unicode="&#x69d;" horiz-adv-x="1397" 
d="M35 295q48 0 76 17q26 17 41 42q14 26 21 54q8 31 19 54q11 26 30 42q17 16 57 16q53 0 77 -34q23 -34 36 -78q12 -43 24 -78t43 -35q19 0 41 33q23 32 39 57q239 365 477 365q68 0 123 -21q55 -22 95 -61q39 -37 62 -93q21 -55 21 -120q0 -96 -35 -168q-34 -71 -94 -123
q-58 -51 -135 -84q-75 -32 -157 -52q-81 -19 -162 -27q-76 -7 -148 -7q-43 0 -88 3t-87 12q-40 9 -78 29q-36 20 -63 54q-80 -92 -235 -92h-35q-17 0 -32 4q-17 5 -17 12v263q0 6 17 11q18 5 32 5h35zM678 254q47 0 119 6q71 6 139 24q66 17 114 48q48 30 48 78q0 37 -33 62
q-34 26 -88 26q-119 0 -299 -244zM577 -422q-53 0 -93 40t-40 95q0 56 40 95q41 39 93 39q54 0 94 -39q39 -39 39 -95q0 -54 -38 -95q-39 -40 -95 -40zM878 -422q-53 0 -93 40t-40 95q0 56 40 95q41 39 93 39q54 0 94 -39t40 -95q0 -54 -39 -95q-39 -40 -95 -40z" />
    <glyph glyph-name="uni069D.medi" unicode="&#x69d;" horiz-adv-x="1405" 
d="M1362 0q-91 0 -163 26t-118 66q-109 -54 -240 -77q-130 -23 -243 -23q-107 0 -190 19q-86 18 -138 85q-37 -38 -96 -67q-60 -29 -139 -29h-35q-17 0 -32 4q-17 5 -17 12v263q0 6 17 11q18 5 32 5h35q44 0 70 17q23 16 40 42q16 27 23 54q8 29 21 54q12 25 32 42
q19 16 58 16q54 0 76 -34q22 -33 34 -78q12 -43 24 -78q11 -35 44 -35q9 0 19 10q15 15 23 25q16 21 22 30l18 25q238 367 477 367q68 0 123 -21q55 -22 95 -61q39 -37 62 -93q21 -55 21 -120q0 -46 -9 -84q-10 -37 -24 -72q27 -6 78 -6h43v-295h-43zM676 254q47 0 119 6
q71 6 138 24q65 16 115 48q48 30 48 78q0 36 -32 62t-89 26q-119 0 -299 -244zM577 -422q-53 0 -93 40t-40 95q0 56 40 95q41 39 93 39q54 0 94 -39q39 -39 39 -95q0 -54 -38 -95q-39 -40 -95 -40zM878 -422q-53 0 -93 40t-40 95q0 56 40 95q41 39 93 39q54 0 94 -39t40 -95
q0 -54 -39 -95q-39 -40 -95 -40z" />
    <glyph glyph-name="uni069D.fina" unicode="&#x69d;" horiz-adv-x="2177" 
d="M2132 0q-161 0 -271 90q-56 -29 -118 -48q-57 -17 -129 -29q-66 -10 -129 -15q-57 -4 -119 -4q-115 0 -172 22q-22 -274 -169 -433q-147 -158 -423 -158q-140 0 -235 45t-154 116q-61 71 -86 156q-27 86 -27 170q0 61 6 124q6 64 25 113q19 51 51 82t86 31q39 0 64 -25
q24 -25 24 -81q0 -52 -8 -102t-8 -91q0 -49 15 -96t48 -83t86 -57q51 -22 131 -22q162 0 254 89t92 239q0 41 -13 77q-16 45 -29 73q-16 36 -30 72q-14 37 -14 73q0 55 39 95t82 40q41 -5 68 -29q25 -23 52 -56q21 -28 47 -54q24 -25 52 -25q19 0 40 23q23 27 46 63
q240 365 475 365q137 0 222 -80q84 -79 84 -219q0 -40 -8 -80q-9 -36 -21 -70q32 -6 76 -6h43v-295h-45zM1443 254q48 0 120 6q71 6 138 24q66 17 114 48q48 30 48 78q0 37 -31 62q-32 26 -90 26q-118 0 -299 -244zM1452 -422q-53 0 -93 40t-40 95q0 56 40 95q41 39 93 39
q54 0 94 -39q39 -39 39 -95q0 -54 -38 -95q-39 -40 -95 -40zM1753 -422q-53 0 -93 40t-40 95q0 56 40 95q41 39 93 39q54 0 94 -39t40 -95q0 -54 -39 -95q-39 -40 -95 -40z" />
    <glyph glyph-name="uni069E.init" unicode="&#x69e;" horiz-adv-x="1397" 
d="M35 295q48 0 76 17q26 17 41 42q14 26 21 54q8 31 19 54q11 26 30 42q17 16 57 16q53 0 77 -34q23 -34 36 -78q12 -43 24 -78t43 -35q19 0 41 33q23 32 39 57q239 365 477 365q68 0 123 -21q55 -22 95 -61q39 -37 62 -93q21 -55 21 -120q0 -96 -35 -168q-34 -71 -94 -123
q-58 -51 -135 -84q-75 -32 -157 -52q-81 -19 -162 -27q-76 -7 -148 -7q-43 0 -88 3t-87 12q-40 9 -78 29q-36 20 -63 54q-80 -92 -235 -92h-35q-17 0 -32 4q-17 5 -17 12v263q0 6 17 11q18 5 32 5h35zM678 254q47 0 119 6q71 6 139 24q66 17 114 48q48 30 48 78q0 37 -33 62
q-34 26 -88 26q-119 0 -299 -244zM608 842q-40 -39 -94 -39q-52 0 -93 39q-40 39 -40 95q0 55 40 95t93 40q56 0 95 -40q38 -41 38 -95q0 -56 -39 -95zM909 842q-40 -39 -94 -39q-52 0 -93 39q-40 39 -40 95q0 55 40 95t93 40q56 0 95 -40t39 -95q0 -56 -40 -95zM761 1092
q-40 -39 -95 -39q-52 0 -93 39q-40 39 -40 94q0 56 40 96t93 40q57 0 96 -40t39 -96q0 -55 -40 -94z" />
    <glyph glyph-name="uni069E.medi" unicode="&#x69e;" horiz-adv-x="1405" 
d="M1362 0q-91 0 -163 26t-118 66q-109 -54 -240 -77q-130 -23 -243 -23q-107 0 -190 19q-86 18 -138 85q-37 -38 -96 -67q-60 -29 -139 -29h-35q-17 0 -32 4q-17 5 -17 12v263q0 6 17 11q18 5 32 5h35q44 0 70 17q23 16 40 42q16 27 23 54q8 29 21 54q12 25 32 42
q19 16 58 16q54 0 76 -34q22 -33 34 -78q12 -43 24 -78q11 -35 44 -35q9 0 19 10q15 15 23 25q16 21 22 30l18 25q238 367 477 367q68 0 123 -21q55 -22 95 -61q39 -37 62 -93q21 -55 21 -120q0 -46 -9 -84q-10 -37 -24 -72q27 -6 78 -6h43v-295h-43zM676 254q47 0 119 6
q71 6 138 24q65 16 115 48q48 30 48 78q0 36 -32 62t-89 26q-119 0 -299 -244zM608 842q-40 -39 -94 -39q-52 0 -93 39q-40 39 -40 95q0 55 40 95t93 40q56 0 95 -40q38 -41 38 -95q0 -56 -39 -95zM909 842q-40 -39 -94 -39q-52 0 -93 39q-40 39 -40 95q0 55 40 95t93 40
q56 0 95 -40t39 -95q0 -56 -40 -95zM761 1092q-40 -39 -95 -39q-52 0 -93 39q-40 39 -40 94q0 56 40 96t93 40q57 0 96 -40t39 -96q0 -55 -40 -94z" />
    <glyph glyph-name="uni069E.fina" unicode="&#x69e;" horiz-adv-x="2177" 
d="M2132 0q-161 0 -271 90q-56 -29 -118 -48q-57 -17 -129 -29q-66 -10 -129 -15q-57 -4 -119 -4q-115 0 -172 22q-22 -274 -169 -433q-147 -158 -423 -158q-140 0 -235 45t-154 116q-61 71 -86 156q-27 86 -27 170q0 61 6 124q6 64 25 113q19 51 51 82t86 31q39 0 64 -25
q24 -25 24 -81q0 -52 -8 -102t-8 -91q0 -49 15 -96t48 -83t86 -57q51 -22 131 -22q162 0 254 89t92 239q0 41 -13 77q-16 45 -29 73q-16 36 -30 72q-14 37 -14 73q0 55 39 95t82 40q41 -5 68 -29q25 -23 52 -56q21 -28 47 -54q24 -25 52 -25q19 0 40 23q23 27 46 63
q240 365 475 365q137 0 222 -80q84 -79 84 -219q0 -40 -8 -80q-9 -36 -21 -70q32 -6 76 -6h43v-295h-45zM1443 254q48 0 120 6q71 6 138 24q66 17 114 48q48 30 48 78q0 37 -31 62q-32 26 -90 26q-118 0 -299 -244zM1367 839q-40 -39 -94 -39q-52 0 -93 39q-40 39 -40 95
q0 55 40 95t93 40q56 0 95 -40q38 -41 38 -95q0 -56 -39 -95zM1668 839q-40 -39 -94 -39q-52 0 -93 39q-40 39 -40 95q0 55 40 95t93 40q56 0 95 -40t39 -95q0 -56 -40 -95zM1520 1089q-40 -39 -95 -39q-52 0 -93 39q-40 39 -40 94q0 56 40 96t93 40q57 0 96 -40t39 -96
q0 -55 -40 -94z" />
    <glyph glyph-name="uni069F.init" unicode="&#x69f;" horiz-adv-x="1045" 
d="M16 295q88 0 120 56t32 196q0 149 -17 299q-18 146 -18 293q0 139 133 139q66 0 99 -35q33 -36 43 -106q11 -78 15 -153q5 -83 5 -161v-24q0 -20 -1 -33l-11 -127q56 42 129 73q72 29 131 29q36 0 88 -11q47 -10 94 -43q43 -30 76 -88q31 -55 31 -144q0 -22 -4 -58
q-4 -38 -25 -91q-22 -52 -61 -104q-39 -53 -115 -100q-72 -44 -185 -73q-114 -29 -274 -29h-301q-17 0 -32 4q-17 5 -17 12v263q0 6 17 11q18 5 32 5h16zM332 257q59 2 90 5q61 5 109 14q58 9 104 24q49 16 79 40q31 25 31 59q0 55 -37 71q-39 17 -75 17q-44 0 -93 -23
q-49 -24 -94 -58q-44 -33 -89 -76q-39 -37 -74 -76q11 2 49 3zM690 884q-37 -35 -83 -35q-47 0 -82 35q-36 35 -36 83q0 49 36 85q35 35 82 35q49 0 84 -35q34 -35 34 -85q0 -48 -35 -83zM957 884q-37 -35 -83 -35q-47 0 -82 35q-36 35 -36 83q0 49 36 85q35 35 82 35
q49 0 84 -35q34 -35 34 -85q0 -48 -35 -83zM826 1105q-37 -35 -85 -35q-47 0 -82 35t-35 83t35 85q35 35 82 35q51 0 86 -35q34 -35 34 -85q0 -48 -35 -83z" />
    <glyph glyph-name="uni069F.medi" unicode="&#x69f;" horiz-adv-x="1053" 
d="M1032 0q-107 0 -183 32q-74 31 -112 72q-68 -42 -184 -73q-111 -31 -252 -31h-301q-17 0 -32 4q-17 5 -17 12v263q0 6 17 11q18 5 32 5h16q88 0 120 56t32 196q0 149 -17 299q-18 146 -18 293q0 139 133 139q66 0 99 -35q33 -36 43 -106q11 -78 15 -153q5 -83 5 -161v-24
q0 -20 -1 -33l-11 -127q56 42 129 73q72 29 131 29q36 0 88 -11q47 -10 94 -43q43 -30 76 -88q31 -55 31 -144q0 -73 -37 -146q17 -5 48 -10q23 -4 56 -4h21v-295h-21zM332 257q59 2 90 5q61 5 109 14q58 9 104 24q49 16 79 40q31 25 31 59q0 55 -37 71q-39 17 -75 17
q-44 0 -93 -23q-49 -24 -94 -58q-44 -33 -89 -76q-39 -37 -74 -76q11 2 49 3zM690 884q-37 -35 -83 -35q-47 0 -82 35q-36 35 -36 83q0 49 36 85q35 35 82 35q49 0 84 -35q34 -35 34 -85q0 -48 -35 -83zM957 884q-37 -35 -83 -35q-47 0 -82 35q-36 35 -36 83q0 49 36 85
q35 35 82 35q49 0 84 -35q34 -35 34 -85q0 -48 -35 -83zM826 1105q-37 -35 -85 -35q-47 0 -82 35t-35 83t35 85q35 35 82 35q51 0 86 -35q34 -35 34 -85q0 -48 -35 -83z" />
    <glyph glyph-name="uni069F.fina" unicode="&#x69f;" horiz-adv-x="1327" 
d="M1308 0q-107 0 -183 32q-74 31 -112 72q-68 -42 -184 -73q-111 -31 -252 -31q-100 0 -187 3q-89 3 -151 19q-65 15 -102 49q-37 33 -37 95q0 45 18 72q17 27 45 40q24 12 58 17q27 4 59 4q41 0 72 6q30 6 51 31q21 26 31 75q10 47 10 136q0 149 -17 299q-18 146 -18 293
q0 139 133 139q66 0 99 -35q31 -34 42 -106q12 -91 16 -153q5 -83 5 -161v-24q0 -20 -1 -33l-11 -127q56 42 129 73q72 29 131 29q36 0 88 -11q47 -10 94 -43q43 -30 76 -88q31 -55 31 -144q0 -73 -37 -146q17 -5 48 -10q23 -4 56 -4h19v-295h-19zM608 257q59 2 90 5
q61 5 109 14q58 9 104 24q49 16 79 40q31 25 31 59q0 55 -37 71q-39 17 -75 17q-44 0 -93 -23q-49 -24 -95 -58q-40 -30 -88 -76q-39 -37 -74 -76q11 2 49 3zM950 884q-37 -35 -83 -35q-47 0 -82 35q-36 35 -36 83q0 49 36 85q35 35 82 35q49 0 84 -35q34 -35 34 -85
q0 -48 -35 -83zM1217 884q-37 -35 -83 -35q-47 0 -82 35q-36 35 -36 83q0 49 36 85q35 35 82 35q49 0 84 -35q34 -35 34 -85q0 -48 -35 -83zM1086 1105q-37 -35 -85 -35q-47 0 -82 35t-35 83t35 85q35 35 82 35q51 0 86 -35q34 -35 34 -85q0 -48 -35 -83z" />
    <glyph glyph-name="uni06A0.init" unicode="&#x6a0;" horiz-adv-x="1006" 
d="M164 295q-15 35 -23 81q-8 45 -8 77q0 63 28 123q28 61 75 109q46 47 108 79q59 31 125 31q58 0 113 -15q56 -17 100 -43q45 -28 73 -67q27 -39 27 -86q0 -61 -28 -80q-28 -21 -68 -21q-27 0 -53 9q-21 6 -48 17l-49 18q-27 8 -55 8q-40 0 -78 -26t-38 -79q0 -27 13 -49
q15 -26 35 -40q22 -17 47 -26q24 -10 48 -10q40 0 77 9q41 8 76 18t76 18q40 8 74 8q46 0 81 -29q34 -30 34 -83q0 -52 -26 -93q-26 -39 -75 -59q-116 -48 -276 -71q-159 -23 -352 -23h-197q-17 0 -32 4q-17 5 -17 12v263q0 6 17 11q18 5 32 5h164zM395 970q-40 -39 -94 -39
q-52 0 -93 39q-40 39 -40 95q0 55 40 95t93 40q56 0 95 -40q38 -41 38 -95q0 -56 -39 -95zM696 970q-40 -39 -94 -39q-52 0 -93 39q-40 39 -40 95q0 55 40 95t93 40q56 0 95 -40t39 -95q0 -56 -40 -95zM548 1220q-40 -39 -95 -39q-52 0 -93 39q-40 39 -40 94q0 56 40 96
t93 40q57 0 96 -40t39 -96q0 -55 -40 -94z" />
    <glyph glyph-name="uni06A0.medi" unicode="&#x6a0;" horiz-adv-x="948" 
d="M874 0q-102 0 -215 33q-114 33 -200 92q-85 -49 -183 -87q-99 -38 -192 -38h-84q-17 0 -32 4q-17 5 -17 12v263q0 6 17 11q18 5 32 5h51q134 0 195 24q-62 66 -86 122q-27 57 -27 110q0 59 31 108q31 47 81 82q50 33 117 51q68 17 138 17q53 0 116 -12q64 -14 116 -40
q54 -28 91 -73q37 -44 37 -111q0 -141 -145 -256q32 -10 90 -16q56 -6 125 -6h18v-295h-74zM521 441q21 15 41 33q21 19 34 41q14 23 14 44q0 41 -121 41q-118 0 -118 -39q0 -20 13 -42q15 -25 32 -42q18 -20 38 -35q18 -15 33 -22q12 5 34 21zM453 979q-40 -39 -94 -39
q-52 0 -93 39q-40 39 -40 95q0 55 40 95t93 40q56 0 95 -40q38 -41 38 -95q0 -56 -39 -95zM754 979q-40 -39 -94 -39q-52 0 -93 39q-40 39 -40 95q0 55 40 95t93 40q56 0 95 -40t39 -95q0 -56 -40 -95zM606 1229q-40 -39 -95 -39q-52 0 -93 39q-40 39 -40 94q0 56 40 96
t93 40q57 0 96 -40t39 -96q0 -55 -40 -94z" />
    <glyph glyph-name="uni06A0.fina" unicode="&#x6a0;" horiz-adv-x="1152" 
d="M1028 0q-93 0 -167 24q-70 21 -126 55q-55 33 -88 66q-37 36 -53 54q-49 -34 -93 -78q-42 -42 -74 -92q-31 -49 -51 -102q-20 -55 -20 -109q0 -136 111 -198q110 -62 340 -62q53 0 95 6t83 6q44 0 74 -14q28 -15 45 -35q15 -19 23 -43q7 -21 7 -37q0 -67 -40 -101
q-40 -36 -98 -52q-61 -17 -121 -20q-64 -3 -113 -3q-333 0 -497 136q-165 137 -165 404q0 159 77 302q77 141 224 266q-42 48 -77 101q-34 52 -34 112q0 80 41 130q42 51 101 79q58 28 127 39q64 10 121 10q51 0 114 -9q62 -10 117 -36q54 -26 92 -75q37 -47 37 -126
q0 -82 -50 -144q-49 -62 -142 -120q81 -39 180 -39h124v-295h-124zM772 586q0 18 -28 31q-28 12 -91 12q-109 0 -109 -43q0 -45 88 -117q140 68 140 117zM621 991q-40 -39 -94 -39q-52 0 -93 39q-40 39 -40 95q0 55 40 95t93 40q56 0 95 -40q38 -41 38 -95q0 -56 -39 -95z
M922 991q-40 -39 -94 -39q-52 0 -93 39q-40 39 -40 95q0 55 40 95t93 40q56 0 95 -40t39 -95q0 -56 -40 -95zM774 1241q-40 -39 -95 -39q-52 0 -93 39q-40 39 -40 94q0 56 40 96t93 40q57 0 96 -40t39 -96q0 -55 -40 -94z" />
    <glyph glyph-name="uni06A1.init" unicode="&#x6a1;" horiz-adv-x="809" 
d="M311 295q28 0 47 3q20 3 38 10q31 13 46 20q-93 0 -153 20t-94 52t-48 75q-14 45 -14 90q0 62 20 130q21 69 56 118q38 54 89 87q52 34 118 34q92 0 153 -51q60 -53 96 -127q36 -79 50 -164q14 -92 14 -162q0 -430 -522 -430h-207q-17 0 -32 4q-17 5 -17 12v263
q0 6 17 11q18 5 32 5h311zM395 535q45 0 75 14q28 13 28 45q0 19 -9 38q-10 20 -24 36q-13 17 -30 27q-16 10 -32 10q-35 0 -57 -28q-24 -28 -24 -69q0 -73 73 -73z" />
    <glyph glyph-name="uni06A1.medi" unicode="&#x6a1;" horiz-adv-x="795" 
d="M672 0q-58 0 -127 21q-65 18 -127 49q-52 -33 -116 -51q-63 -19 -144 -19h-158q-17 0 -32 4q-17 5 -17 12v263q0 6 17 11q18 5 32 5h172q-16 32 -27 66q-12 35 -12 75q0 62 26 125q27 63 68 107q45 48 100 77q56 29 115 29q69 0 118 -27q52 -30 82 -73q33 -48 49 -103
q16 -57 16 -118q0 -46 -13 -85q-13 -38 -35 -73h136v-295h-123zM496 503q-26 32 -62 32q-44 0 -76 -38t-32 -75q0 -40 31 -62q30 -24 65 -24q36 0 68 29q30 29 30 69q0 38 -24 69z" />
    <glyph glyph-name="uni06A1.fina" unicode="&#x6a1;" horiz-adv-x="1763" 
d="M1630 0q-78 0 -143 21q-63 19 -117 55q-58 -30 -138 -55q-81 -26 -167 -42q-88 -18 -177 -27q-90 -9 -167 -9q-329 0 -475 98t-146 281q0 22 5 82q4 51 23 105q16 51 50 91q33 39 88 39q33 0 57 -21q23 -23 23 -69q0 -36 -4 -69t-4 -62q0 -103 77 -141q77 -39 258 -39
q167 0 275 7q114 7 203 36q-21 37 -36 70q-18 36 -18 71q0 63 27 127q27 63 71 113q42 48 102 80q59 30 120 30q65 0 115 -26q50 -27 81 -72q30 -42 47 -104q15 -60 15 -126q0 -36 -15 -80q-18 -48 -32 -69h135v-295h-133zM1470 502q-19 33 -67 33q-41 0 -75 -34t-34 -77
q0 -27 25 -55q24 -29 75 -29q43 0 69 32t26 66q0 32 -19 64z" />
    <glyph glyph-name="uni06A2.init" unicode="&#x6a2;" horiz-adv-x="809" 
d="M311 295q28 0 47 3q20 3 38 10q31 13 46 20q-93 0 -153 20t-94 52t-48 75q-14 45 -14 90q0 62 20 130q21 69 56 118q38 54 89 87q52 34 118 34q92 0 153 -51q60 -53 96 -127q36 -79 50 -164q14 -92 14 -162q0 -430 -522 -430h-207q-17 0 -32 4q-17 5 -17 12v263
q0 6 17 11q18 5 32 5h311zM395 535q45 0 75 14q28 13 28 45q0 19 -9 38q-10 20 -24 36q-13 17 -30 27q-16 10 -32 10q-35 0 -57 -28q-24 -28 -24 -69q0 -73 73 -73zM495 -395q-43 -41 -102 -41q-57 0 -98 41t-41 100t41 100t98 41q59 0 102 -41q42 -40 42 -100
q0 -59 -42 -100z" />
    <glyph glyph-name="uni06A2.medi" unicode="&#x6a2;" horiz-adv-x="795" 
d="M672 0q-58 0 -127 21q-65 18 -127 49q-52 -33 -116 -51q-63 -19 -144 -19h-158q-17 0 -32 4q-17 5 -17 12v263q0 6 17 11q18 5 32 5h172q-16 32 -27 66q-12 35 -12 75q0 62 26 125q27 63 68 107q45 48 100 77q56 29 115 29q69 0 118 -27q52 -30 82 -73q33 -48 49 -103
q16 -57 16 -118q0 -46 -13 -85q-13 -38 -35 -73h136v-295h-123zM496 503q-26 32 -62 32q-44 0 -76 -38t-32 -75q0 -40 31 -62q30 -24 65 -24q36 0 68 29q30 29 30 69q0 38 -24 69zM523 -395q-43 -41 -101 -41q-57 0 -98 41t-41 100t41 100t98 41q58 0 101 -41
q42 -40 42 -100q0 -59 -42 -100z" />
    <glyph glyph-name="uni06A2.fina" unicode="&#x6a2;" horiz-adv-x="1763" 
d="M1630 0q-78 0 -143 21q-63 19 -117 55q-58 -30 -138 -55q-81 -26 -167 -42q-88 -18 -177 -27q-90 -9 -167 -9q-329 0 -475 98t-146 281q0 22 5 82q4 51 23 105q16 51 50 91q33 39 88 39q33 0 57 -21q23 -23 23 -69q0 -36 -4 -69t-4 -62q0 -103 77 -141q77 -39 258 -39
q167 0 275 7q114 7 203 36q-21 37 -36 70q-18 36 -18 71q0 63 27 127q27 63 71 113q42 48 102 80q59 30 120 30q65 0 115 -26q50 -27 81 -72q30 -42 47 -104q15 -60 15 -126q0 -36 -15 -80q-18 -48 -32 -69h135v-295h-133zM1470 502q-19 33 -67 33q-41 0 -75 -34t-34 -77
q0 -27 25 -55q24 -29 75 -29q43 0 69 32t26 66q0 32 -19 64zM1494 -395q-43 -41 -102 -41q-57 0 -98 41t-41 100t41 100t98 41q59 0 102 -41q42 -40 42 -100q0 -59 -42 -100z" />
    <glyph glyph-name="uni06A3.init" unicode="&#x6a3;" horiz-adv-x="809" 
d="M311 295q28 0 47 3q20 3 38 10q31 13 46 20q-93 0 -153 20t-94 52t-48 75q-14 45 -14 90q0 62 20 130q21 69 56 118q38 54 89 87q52 34 118 34q92 0 153 -51q60 -53 96 -127q36 -79 50 -164q14 -92 14 -162q0 -430 -522 -430h-207q-17 0 -32 4q-17 5 -17 12v263
q0 6 17 11q18 5 32 5h311zM395 535q45 0 75 14q28 13 28 45q0 19 -9 38q-10 20 -24 36q-13 17 -30 27q-16 10 -32 10q-35 0 -57 -28q-24 -28 -24 -69q0 -73 73 -73zM495 1102q-43 -41 -102 -41q-57 0 -98 41t-41 100q0 60 41 101q40 40 98 40q61 0 102 -40q42 -40 42 -101
q0 -59 -42 -100zM495 -395q-43 -41 -102 -41q-57 0 -98 41t-41 100t41 100t98 41q59 0 102 -41q42 -40 42 -100q0 -59 -42 -100z" />
    <glyph glyph-name="uni06A3.medi" unicode="&#x6a3;" horiz-adv-x="795" 
d="M672 0q-58 0 -127 21q-65 18 -127 49q-52 -33 -116 -51q-63 -19 -144 -19h-158q-17 0 -32 4q-17 5 -17 12v263q0 6 17 11q18 5 32 5h172q-16 32 -27 66q-12 35 -12 75q0 62 26 125q27 63 68 107q45 48 100 77q56 29 115 29q69 0 118 -27q52 -30 82 -73q33 -48 49 -103
q16 -57 16 -118q0 -46 -13 -85q-13 -38 -35 -73h136v-295h-123zM496 503q-26 32 -62 32q-44 0 -76 -38t-32 -75q0 -40 31 -62q30 -24 65 -24q36 0 68 29q30 29 30 69q0 38 -24 69zM523 952q-43 -41 -101 -41q-57 0 -98 41t-41 101q0 59 41 100t98 41q58 0 101 -41
q42 -40 42 -100t-42 -101zM523 -395q-43 -41 -101 -41q-57 0 -98 41t-41 100t41 100t98 41q58 0 101 -41q42 -40 42 -100q0 -59 -42 -100z" />
    <glyph glyph-name="uni06A3.fina" unicode="&#x6a3;" horiz-adv-x="1763" 
d="M1630 0q-78 0 -143 21q-63 19 -117 55q-58 -30 -138 -55q-81 -26 -167 -42q-88 -18 -177 -27q-90 -9 -167 -9q-329 0 -475 98t-146 281q0 22 5 82q4 51 23 105q16 51 50 91q33 39 88 39q33 0 57 -21q23 -23 23 -69q0 -36 -4 -69t-4 -62q0 -103 77 -141q77 -39 258 -39
q167 0 275 7q114 7 203 36q-21 37 -36 70q-18 36 -18 71q0 63 27 127q27 63 71 113q42 48 102 80q59 30 120 30q65 0 115 -26q50 -27 81 -72q30 -42 47 -104q15 -60 15 -126q0 -36 -15 -80q-18 -48 -32 -69h135v-295h-133zM1470 502q-19 33 -67 33q-41 0 -75 -34t-34 -77
q0 -27 25 -55q24 -29 75 -29q43 0 69 32t26 66q0 32 -19 64zM1494 952q-43 -41 -102 -41q-57 0 -98 41t-41 101q0 59 41 100t98 41q59 0 102 -41q42 -40 42 -100t-42 -101zM932 -395q-43 -41 -101 -41t-99 41t-41 100t41 100t99 41t101 -41q42 -40 42 -100q0 -59 -42 -100z
" />
    <glyph glyph-name="uni06A5.init" unicode="&#x6a5;" horiz-adv-x="809" 
d="M311 295q28 0 47 3q20 3 38 10q31 13 46 20q-93 0 -153 20t-94 52t-48 75q-14 45 -14 90q0 62 20 130q21 69 56 118q38 54 89 87q52 34 118 34q92 0 153 -51q60 -53 96 -127q36 -79 50 -164q14 -92 14 -162q0 -430 -522 -430h-207q-17 0 -32 4q-17 5 -17 12v263
q0 6 17 11q18 5 32 5h311zM395 535q45 0 75 14q28 13 28 45q0 19 -9 38q-10 20 -24 36q-13 17 -30 27q-16 10 -32 10q-35 0 -57 -28q-24 -28 -24 -69q0 -73 73 -73zM260 -422q-53 0 -93 40t-40 95q0 56 40 95q41 39 93 39q54 0 94 -39q39 -39 39 -95q0 -54 -38 -95
q-39 -40 -95 -40zM561 -422q-53 0 -93 40t-40 95q0 56 40 95q41 39 93 39q54 0 94 -39t40 -95q0 -54 -39 -95q-39 -40 -95 -40zM412 -672q-53 0 -93 40t-40 96q0 55 40 94q41 39 93 39q55 0 95 -39t40 -94t-39 -96q-39 -40 -96 -40z" />
    <glyph glyph-name="uni06A5.medi" unicode="&#x6a5;" horiz-adv-x="795" 
d="M672 0q-58 0 -127 21q-65 18 -127 49q-52 -33 -116 -51q-63 -19 -144 -19h-158q-17 0 -32 4q-17 5 -17 12v263q0 6 17 11q18 5 32 5h172q-16 32 -27 66q-12 35 -12 75q0 62 26 125q27 63 68 107q45 48 100 77q56 29 115 29q69 0 118 -27q52 -30 82 -73q33 -48 49 -103
q16 -57 16 -118q0 -46 -13 -85q-13 -38 -35 -73h136v-295h-123zM496 503q-26 32 -62 32q-44 0 -76 -38t-32 -75q0 -40 31 -62q30 -24 65 -24q36 0 68 29q30 29 30 69q0 38 -24 69zM250 -422q-53 0 -93 40t-40 95q0 56 40 95q41 39 93 39q54 0 94 -39q39 -39 39 -95
q0 -54 -38 -95q-39 -40 -95 -40zM551 -422q-53 0 -93 40t-40 95q0 56 40 95q41 39 93 39q54 0 94 -39t40 -95q0 -54 -39 -95q-39 -40 -95 -40zM402 -672q-53 0 -93 40t-40 96q0 55 40 94q41 39 93 39q55 0 95 -39t40 -94t-39 -96q-39 -40 -96 -40z" />
    <glyph glyph-name="uni06A5.fina" unicode="&#x6a5;" horiz-adv-x="1763" 
d="M1630 0q-78 0 -143 21q-63 19 -117 55q-58 -30 -138 -55q-81 -26 -167 -42q-88 -18 -177 -27q-90 -9 -167 -9q-329 0 -475 98t-146 281q0 22 5 82q4 51 23 105q16 51 50 91q33 39 88 39q33 0 57 -21q23 -23 23 -69q0 -36 -4 -69t-4 -62q0 -103 77 -141q77 -39 258 -39
q167 0 275 7q114 7 203 36q-21 37 -36 70q-18 36 -18 71q0 63 27 127q27 63 71 113q42 48 102 80q59 30 120 30q65 0 115 -26q50 -27 81 -72q30 -42 47 -104q15 -60 15 -126q0 -36 -15 -80q-18 -48 -32 -69h135v-295h-133zM1470 502q-19 33 -67 33q-41 0 -75 -34t-34 -77
q0 -27 25 -55q24 -29 75 -29q43 0 69 32t26 66q0 32 -19 64zM1195 -422q-53 0 -93 40t-40 95q0 56 40 95q41 39 93 39q54 0 94 -39q39 -39 39 -95q0 -54 -38 -95q-39 -40 -95 -40zM1496 -422q-53 0 -93 40t-40 95q0 56 40 95q41 39 93 39q54 0 94 -39t40 -95q0 -54 -39 -95
q-39 -40 -95 -40zM1347 -672q-53 0 -93 40t-40 96q0 55 40 94q41 39 93 39q55 0 95 -39t40 -94t-39 -96q-39 -40 -96 -40z" />
    <glyph glyph-name="uni06A7.init" unicode="&#x6a7;" horiz-adv-x="809" 
d="M311 295q28 0 47 3q20 3 38 10q31 13 46 20q-93 0 -153 20t-94 52t-48 75q-14 45 -14 90q0 62 20 130q21 69 56 118q38 54 89 87q52 34 118 34q92 0 153 -51q60 -53 96 -127q36 -79 50 -164q14 -92 14 -162q0 -430 -522 -430h-207q-17 0 -32 4q-17 5 -17 12v263
q0 6 17 11q18 5 32 5h311zM395 535q45 0 75 14q28 13 28 45q0 19 -9 38q-10 20 -24 36q-13 17 -30 27q-16 10 -32 10q-35 0 -57 -28q-24 -28 -24 -69q0 -73 73 -73zM495 1102q-43 -41 -102 -41q-57 0 -98 41t-41 100q0 60 41 101q40 40 98 40q61 0 102 -40q42 -40 42 -101
q0 -59 -42 -100z" />
    <glyph glyph-name="uni06A7.medi" unicode="&#x6a7;" horiz-adv-x="795" 
d="M672 0q-58 0 -127 21q-65 18 -127 49q-52 -33 -116 -51q-63 -19 -144 -19h-158q-17 0 -32 4q-17 5 -17 12v263q0 6 17 11q18 5 32 5h172q-16 32 -27 66q-12 35 -12 75q0 62 26 125q27 63 68 107q45 48 100 77q56 29 115 29q69 0 118 -27q52 -30 82 -73q33 -48 49 -103
q16 -57 16 -118q0 -46 -13 -85q-13 -38 -35 -73h136v-295h-123zM496 503q-26 32 -62 32q-44 0 -76 -38t-32 -75q0 -40 31 -62q30 -24 65 -24q36 0 68 29q30 29 30 69q0 38 -24 69zM523 952q-43 -41 -101 -41q-57 0 -98 41t-41 101q0 59 41 100t98 41q58 0 101 -41
q42 -40 42 -100t-42 -101z" />
    <glyph glyph-name="uni06A7.fina" unicode="&#x6a7;" horiz-adv-x="1259" 
d="M1169 0q-29 -119 -86 -208q-59 -91 -133 -148q-78 -61 -167 -89q-91 -30 -187 -30q-119 0 -209 34q-92 33 -155 96q-63 60 -98 153q-34 89 -34 200q0 62 6 125q6 65 25 112q19 51 51 82t86 31q39 0 64 -25q24 -25 24 -81q0 -50 -8 -100q-8 -51 -8 -93q0 -48 15 -95
q15 -46 48 -82t86 -57q51 -22 131 -22q53 0 102 13q51 12 93 37q44 24 75 61q32 38 48 86q-98 0 -166 18q-67 17 -108 54q-41 38 -57 91q-18 54 -18 128q0 64 21 131q18 63 58 122q37 54 94 89q56 35 122 35q68 0 117 -37q51 -38 84 -92q35 -56 56 -121q21 -72 28 -123h90
v-295h-90zM962 287q0 61 -27 103q-28 42 -81 42q-41 0 -57 -25q-17 -26 -17 -59q0 -21 27 -41q26 -20 96 -20h59zM959 841q-40 -39 -95 -39q-52 0 -93 39q-40 39 -40 95q0 55 40 95t93 40q57 0 96 -40t39 -95q0 -56 -40 -95z" />
    <glyph glyph-name="uni06A8.init" unicode="&#x6a8;" horiz-adv-x="809" 
d="M311 295q28 0 47 3q20 3 38 10l47 20q-94 0 -154 20q-61 20 -94 52q-34 32 -48 75q-14 45 -14 90q0 62 20 130q21 69 56 118q38 54 89 87q52 34 118 34q92 0 153 -51q60 -53 96 -127q37 -79 50 -164q14 -92 14 -162q0 -430 -522 -430h-207q-17 0 -32 4q-17 5 -17 12v263
q0 6 17 11q18 5 32 5h311zM395 535q46 0 76 14q27 14 27 45q0 19 -9 38q-10 20 -24 36q-13 17 -30 27q-16 10 -31 10q-36 0 -58 -28q-24 -28 -24 -69q0 -73 73 -73zM333 1102q-40 -39 -94 -39q-52 0 -93 39q-40 39 -40 95q0 55 40 95t93 40q56 0 95 -40q38 -41 38 -95
q0 -56 -39 -95zM634 1102q-40 -39 -94 -39q-52 0 -93 39q-40 39 -40 95q0 55 40 95t93 40q56 0 95 -40t39 -95q0 -56 -40 -95zM486 1352q-40 -39 -95 -39q-52 0 -93 39q-40 39 -40 94q0 56 40 96t93 40q57 0 96 -40t39 -96q0 -55 -40 -94z" />
    <glyph glyph-name="uni06A8.medi" unicode="&#x6a8;" horiz-adv-x="795" 
d="M672 0q-58 0 -127 21q-65 18 -127 49q-52 -33 -116 -51q-63 -19 -144 -19h-158q-17 0 -32 4q-17 5 -17 12v263q0 6 17 11q18 5 32 5h172q-16 32 -27 66q-12 35 -12 75q0 62 26 125q27 63 68 107q45 48 100 77q56 29 115 29q69 0 118 -27q52 -30 82 -73q33 -48 49 -103
q16 -57 16 -118q0 -46 -13 -85q-13 -38 -35 -73h136v-295h-123zM496 503q-26 32 -62 32q-44 0 -76 -38t-32 -75q0 -40 31 -62q30 -24 65 -24q36 0 68 29q30 29 30 69q0 38 -24 69zM365 949q-40 -39 -94 -39q-52 0 -93 39q-40 39 -40 95q0 55 40 95t93 40q56 0 95 -40
q38 -41 38 -95q0 -56 -39 -95zM666 949q-40 -39 -94 -39q-52 0 -93 39q-40 39 -40 95q0 55 40 95t93 40q56 0 95 -40t39 -95q0 -56 -40 -95zM518 1199q-40 -39 -95 -39q-52 0 -93 39q-40 39 -40 94q0 56 40 96t93 40q57 0 96 -40t39 -96q0 -55 -40 -94z" />
    <glyph glyph-name="uni06A8.fina" unicode="&#x6a8;" horiz-adv-x="1259" 
d="M1169 0q-29 -119 -86 -208q-59 -91 -133 -148q-78 -61 -167 -89q-91 -30 -187 -30q-119 0 -209 34q-92 33 -155 96q-63 60 -98 153q-34 89 -34 200q0 62 6 125q6 65 25 112q19 51 51 82t86 31q39 0 64 -25q24 -25 24 -81q0 -50 -8 -100q-8 -51 -8 -93q0 -48 15 -95
q15 -46 48 -82t86 -57q51 -22 131 -22q53 0 102 13q51 12 93 37q44 24 75 61q32 38 48 86q-98 0 -166 18q-67 17 -108 54q-41 38 -57 91q-18 54 -18 128q0 64 21 131q18 63 58 122q37 54 94 89q56 35 122 35q68 0 117 -37q51 -38 84 -92q35 -56 56 -121q21 -72 28 -123h90
v-295h-90zM962 287q0 61 -27 103q-28 42 -81 42q-41 0 -57 -25q-17 -26 -17 -59q0 -21 27 -41q26 -20 96 -20h59zM806 841q-40 -39 -94 -39q-52 0 -93 39q-40 39 -40 95q0 55 40 95t93 40q56 0 95 -40q38 -41 38 -95q0 -56 -39 -95zM1107 841q-40 -39 -94 -39q-52 0 -93 39
q-40 39 -40 95q0 55 40 95t93 40q56 0 95 -40t39 -95q0 -56 -40 -95zM959 1091q-40 -39 -95 -39q-52 0 -93 39q-40 39 -40 94q0 56 40 96t93 40q57 0 96 -40t39 -96q0 -55 -40 -94z" />
    <glyph glyph-name="uni06AA.init" unicode="&#x6aa;" horiz-adv-x="1451" 
d="M-49 279q0 6 17 11q18 5 32 5h984q95 0 132 23q28 16 28 47q0 6 -2 18q-6 33 -22 52q-17 18 -46 26q-30 7 -74 9q-30 1 -104 1h-594q-34 0 -76 11q-43 11 -78 32q-39 22 -67 57q-28 34 -39 88q-4 20 -4 46v17q1 31 11 68q10 36 25 62q15 29 38 47q52 46 137 99
q86 54 184 106q91 48 189 91q89 39 149 52q12 3 23 3q13 0 28 -5q21 -7 42 -23q20 -18 29 -38q10 -22 15 -43q1 -4 1 -12q0 -27 -15 -59q-18 -38 -66 -56l-132 -54q-43 -17 -127 -53q-65 -29 -131 -61q-74 -36 -144 -76q-14 -8 -16 -10q-8 -6 -10 -12v-2q0 -5 11 -10
q12 -5 44 -5h632q77 0 153 -17q72 -18 130 -59q57 -40 93 -110t40 -176v-19q0 -120 -46 -188q-50 -74 -131 -110q-82 -37 -180 -44q-107 -8 -192 -8h-822q-17 0 -32 4q-17 5 -17 12v263z" />
    <glyph glyph-name="uni06AA.medi" unicode="&#x6aa;" horiz-adv-x="1500" 
d="M1500 0q-78 0 -140 20q-61 20 -101 70q-39 -31 -93 -49q-52 -18 -110 -27q-59 -11 -118 -12q-80 -2 -116 -2h-822q-17 0 -32 4q-17 5 -17 12v263q0 6 17 11q18 5 32 5h984q95 0 132 23q28 16 28 47q0 6 -2 18q-6 33 -22 52q-17 18 -46 26q-30 7 -74 9q-30 1 -104 1h-594
q-34 0 -76 11q-43 11 -78 32q-39 22 -67 57q-28 34 -39 88q-4 20 -4 46v17q1 31 11 68q10 36 25 62q15 29 38 47q52 46 137 99q86 54 184 106q101 54 189 92q93 41 149 53q12 3 23 3q13 0 28 -5q23 -7 42 -24q18 -17 29 -38q11 -22 15 -42q1 -4 1 -12q0 -28 -15 -60
q-18 -39 -66 -57q-85 -35 -132 -53q-73 -29 -127 -52q-65 -29 -131 -61q-74 -36 -144 -76q-14 -8 -16 -10q-8 -6 -10 -12v-2q0 -5 11 -10q12 -5 44 -5h632q77 0 153 -17q73 -18 130 -60t93 -111q36 -70 40 -176v-39q0 -20 -4 -35h133v-295z" />
    <glyph glyph-name="uni06AA.fina" unicode="&#x6aa;" horiz-adv-x="1898" 
d="M1898 295v-295q-78 0 -140 20q-60 20 -99 68l-1 3q-30 -22 -66 -39q-82 -37 -180 -44q-107 -8 -192 -8l-562 -8q-77 0 -161 4q-97 3 -183 22q-89 20 -151 61q-63 42 -63 120q0 49 13 76q15 32 32 46q17 16 37 22q20 5 28 5q44 0 74 -9q31 -9 70 -18q39 -11 100 -18
q43 -7 99 -8h829q95 0 132 23q28 16 28 47q0 6 -2 18q-6 33 -22 52q-17 18 -46 26q-30 7 -74 9q-30 1 -104 1h-594q-34 0 -76 11q-43 11 -78 32q-39 22 -67 57q-28 34 -39 88q-4 20 -4 46v17q1 31 11 68q10 36 25 62q15 29 38 47q52 46 137 99q86 54 184 106q91 48 189 91
q89 39 149 52q12 3 23 3q13 0 28 -5q21 -7 42 -23q20 -18 29 -38q10 -22 15 -43q1 -4 1 -12q0 -27 -15 -59q-18 -38 -66 -56l-132 -54q-43 -17 -127 -53q-65 -29 -131 -61q-74 -36 -144 -76q-14 -8 -16 -10q-8 -6 -10 -12v-2q0 -5 11 -10q12 -5 44 -5h632q77 0 153 -17
q72 -18 130 -59q57 -40 93 -110t40 -176v-19q0 -29 -3 -55h132z" />
    <glyph glyph-name="uni06AB.init" unicode="&#x6ab;" horiz-adv-x="974" 
d="M192 295q31 0 56 1q52 2 76 5q43 5 67 14q28 9 28 25q0 31 -27 61q-35 35 -71 61l-91 67q-50 35 -92 74q-44 41 -70 86q-28 46 -28 102q0 62 25 116q24 53 78 88q68 44 172 85q98 39 202 70q103 31 182 47q85 17 115 17q66 0 103 -36q37 -37 37 -88q0 -40 -26 -74
q-25 -33 -97 -45q-131 -26 -253 -64q-128 -40 -272 -96q77 -62 160 -134q68 -61 114 -114q47 -52 69 -105q22 -51 22 -108q0 -128 -63 -199q-65 -71 -157 -105q-91 -34 -198 -40q-106 -6 -192 -6h-61q-17 0 -32 4q-17 5 -17 12v263q0 6 17 11q18 5 32 5h192zM400 1154
q-154 -58 -210 -83q-41 -17 -52 -21q-21 -8 -30 -8q-38 0 -61 26t-23 60q0 28 17 56q17 27 48 43q72 39 171 78q91 35 193 69q83 28 174 50q80 18 109 18q37 0 72 -20q35 -21 35 -68q0 -28 -20 -56q-20 -27 -62 -38q-226 -55 -361 -106z" />
    <glyph glyph-name="uni06AB.medi" unicode="&#x6ab;" horiz-adv-x="1039" 
d="M1021 0q-37 0 -89 5q-44 4 -96 28q-51 23 -106 67q-54 44 -117 125q-34 -82 -86 -128q-51 -45 -121 -67q-65 -21 -152 -26q-73 -4 -177 -4h-77q-17 0 -32 4q-17 5 -17 12v263q0 6 17 11q18 5 32 5h235q30 0 41 1q15 1 28 3q52 5 80 14q31 9 31 27q0 28 -28 57
q-31 31 -69 62l-90 70q-45 33 -91 77q-42 41 -69 87q-28 46 -28 98q0 59 27 117q25 56 79 87q102 57 216 100q106 41 202 69q97 27 156 38q63 12 72 12q27 0 54 -7q29 -7 51 -21q23 -15 36 -37q14 -23 14 -53q0 -41 -26 -76q-27 -34 -90 -51q-8 -1 -53 -14l-340 -103
q-74 -22 -92 -28l-36 -11q85 -66 137 -108l119 -101q75 -67 107 -97q67 -63 104 -99q119 -113 230 -113h32v-295h-18zM388 1154q-147 -55 -209 -83l-54 -21q-21 -8 -30 -8q-36 0 -59 26t-23 60q0 28 17 56q18 28 47 43q71 38 170 78q98 38 195 69q83 27 174 50q77 18 110 18
q36 0 71 -20q34 -21 34 -68q0 -28 -20 -56q-20 -27 -62 -38q-224 -55 -361 -106z" />
    <glyph glyph-name="uni06AB.fina" unicode="&#x6ab;" horiz-adv-x="1955" 
d="M1955 0q-134 0 -240 55q-107 54 -192 158q-45 -92 -134 -145q-88 -54 -197 -81q-110 -29 -226 -36q-126 -8 -219 -8q-172 0 -297 26t-200 73q-78 48 -114 120q-36 71 -36 164q0 40 7 90q8 53 27 104q20 52 52 87q33 36 84 36q33 0 64 -22q30 -22 30 -74q0 -49 -15 -91
q-16 -41 -16 -85q0 -47 50 -73q52 -27 116 -38q69 -13 135 -14l105 -2q44 0 79 1q80 2 117 4q72 3 133 10q69 8 125 18q60 11 92 26q36 17 36 39q0 30 -29 62q-26 27 -71 61q-35 27 -92 66q-54 37 -92 73q-42 39 -70 85q-29 47 -29 102q0 60 31 115q29 54 79 83
q83 50 189 90q115 44 205 71q102 31 173 47q76 17 97 17q69 0 107 -38q38 -40 38 -89q0 -75 -115 -112l-530 -160q135 -97 251 -204q126 -117 216 -205q119 -111 229 -111h47v-295zM1312 1154q-152 -57 -211 -83q-64 -29 -81 -29q-36 0 -59 26t-23 60q0 30 16 56
q18 28 47 43q72 39 171 78q99 38 195 69q81 27 173 50q78 18 108 18q37 0 72 -20q35 -21 35 -68q0 -30 -19 -56q-19 -27 -63 -38q-226 -55 -361 -106z" />
    <glyph glyph-name="uni06AC.init" unicode="&#x6ac;" horiz-adv-x="967" 
d="M218 295q32 0 57 1q50 2 75 5q41 5 65 14q29 9 29 25q0 29 -30 65q-34 39 -75 76l-97 88q-50 44 -97 96q-46 49 -75 97q-30 50 -30 98q0 55 24 110q22 54 74 87q50 30 146 73q93 40 193 74q105 36 191 60q92 24 140 24q66 0 103 -42q36 -42 36 -91q0 -34 -18 -57
q-19 -24 -44 -37q-28 -15 -55 -22l-55 -17l-221 -64q-110 -34 -244 -84q388 -301 388 -524q0 -128 -63 -199q-65 -71 -157 -105q-93 -34 -199 -40t-192 -6h-87q-17 0 -32 4q-17 5 -17 12v263q0 6 17 11q18 5 32 5h218zM358 1333q-43 -41 -102 -41q-57 0 -98 41t-41 100
q0 60 41 101q40 40 98 40q61 0 102 -40q42 -40 42 -101q0 -59 -42 -100z" />
    <glyph glyph-name="uni06AC.medi" unicode="&#x6ac;" horiz-adv-x="1062" 
d="M1062 0q-45 0 -93 6q-46 6 -99 29q-52 22 -107 64q-52 39 -113 116q-32 -78 -95 -122q-67 -46 -140 -64q-74 -20 -157 -25q-72 -4 -148 -4h-110q-17 0 -32 4q-17 5 -17 12v263q0 6 17 11q18 5 32 5h246q65 0 89 4q54 5 81 14q32 9 32 27q0 29 -30 66q-32 38 -76 78
l-98 90q-42 37 -98 95q-50 51 -76 97q-30 50 -30 96q0 57 29 112q28 54 82 85q91 51 182 88q105 42 194 72q84 27 170 49q77 18 113 18q56 0 102 -34t46 -97q0 -41 -27 -71q-27 -31 -90 -48q-117 -28 -270 -73q-132 -39 -267 -89q172 -158 257 -238q140 -132 249 -230
q119 -111 229 -111h23v-295zM358 1333q-43 -41 -102 -41q-57 0 -98 41t-41 100q0 60 41 101q40 40 98 40q61 0 102 -40q42 -40 42 -101q0 -59 -42 -100z" />
    <glyph glyph-name="uni06AC.fina" unicode="&#x6ac;" horiz-adv-x="1441" 
d="M1390 0q-83 0 -142 41q-56 39 -95 104q-43 -55 -88 -94t-103 -63q-55 -24 -135 -35q-73 -10 -180 -10q-145 0 -249 30q-102 28 -170 84q-66 53 -97 131q-31 75 -31 170q0 29 8 91q8 58 27 113q19 57 51 97q33 41 82 41q13 0 28 -4q16 -5 29 -15q12 -10 22 -32
q9 -22 9 -57q0 -42 -12 -83q-13 -39 -13 -81q0 -91 90 -138q88 -46 234 -46q408 0 408 221q0 187 -9 350q-10 156 -10 326q0 27 13 52q12 26 31 45q17 18 41 31q24 11 44 11q56 0 96 -40q41 -41 41 -107v-648q0 -29 2 -75q2 -34 15 -60q13 -27 39 -40q26 -15 75 -15v-295
h-51zM722 640q-28 9 -60 24q-30 13 -59 37q-28 22 -28 57q0 26 18 54q15 25 43 52q26 23 55 39q30 15 56 15q29 0 40 -11q11 -13 11 -26q0 -23 -14 -37q-12 -13 -32 -25l-33 -19q-15 -9 -15 -22q0 -16 28 -28l61 -29q37 -18 63 -41q28 -25 28 -64q0 -35 -29 -64
q-30 -28 -72 -45q-42 -18 -84 -27t-67 -9q-38 0 -55 17q-18 17 -18 34q0 25 30 38q22 11 65 23l66 17q29 8 29 21q0 10 -27 19zM1276 1443q-43 -41 -102 -41q-57 0 -98 41t-41 100q0 60 41 101q40 40 98 40q61 0 102 -40q42 -40 42 -101q0 -59 -42 -100z" />
    <glyph glyph-name="uni06AE.init" unicode="&#x6ae;" horiz-adv-x="967" 
d="M218 295q32 0 57 1q50 2 75 5q41 5 65 14q29 9 29 25q0 29 -30 65q-34 39 -75 76l-97 88q-50 44 -97 96q-46 49 -75 97q-30 50 -30 98q0 55 24 110q22 54 74 87q50 30 146 73q93 40 193 74q105 36 191 60q92 24 140 24q66 0 103 -42q36 -42 36 -91q0 -34 -18 -57
q-19 -24 -44 -37q-28 -15 -55 -22l-55 -17l-221 -64q-110 -34 -244 -84q388 -301 388 -524q0 -128 -63 -199q-65 -71 -157 -105q-93 -34 -199 -40t-192 -6h-87q-17 0 -32 4q-17 5 -17 12v263q0 6 17 11q18 5 32 5h218zM174 -422q-53 0 -93 40t-40 95q0 56 40 95q41 39 93 39
q54 0 94 -39q39 -39 39 -95q0 -54 -38 -95q-39 -40 -95 -40zM475 -422q-53 0 -93 40t-40 95q0 56 40 95q41 39 93 39q54 0 94 -39t40 -95q0 -54 -39 -95q-39 -40 -95 -40zM326 -672q-53 0 -93 40t-40 96q0 55 40 94q41 39 93 39q55 0 95 -39t40 -94t-39 -96q-39 -40 -96 -40
z" />
    <glyph glyph-name="uni06AE.medi" unicode="&#x6ae;" horiz-adv-x="1062" 
d="M1062 0q-45 0 -93 6q-46 6 -99 29q-52 22 -107 64q-52 39 -113 116q-32 -78 -95 -122q-67 -46 -140 -64q-74 -20 -157 -25q-72 -4 -148 -4h-110q-17 0 -32 4q-17 5 -17 12v263q0 6 17 11q18 5 32 5h246q65 0 89 4q54 5 81 14q32 9 32 27q0 29 -30 66q-32 38 -76 78
l-98 90q-42 37 -98 95q-50 51 -76 97q-30 50 -30 96q0 57 29 112q28 54 82 85q91 51 182 88q105 42 194 72q84 27 170 49q77 18 113 18q56 0 102 -34t46 -97q0 -41 -27 -71q-27 -31 -90 -48q-117 -28 -270 -73q-132 -39 -267 -89q172 -158 257 -238q140 -132 249 -230
q119 -111 229 -111h23v-295zM174 -422q-53 0 -93 40t-40 95q0 56 40 95q41 39 93 39q54 0 94 -39q39 -39 39 -95q0 -54 -38 -95q-39 -40 -95 -40zM475 -422q-53 0 -93 40t-40 95q0 56 40 95q41 39 93 39q54 0 94 -39t40 -95q0 -54 -39 -95q-39 -40 -95 -40zM326 -672
q-53 0 -93 40t-40 96q0 55 40 94q41 39 93 39q55 0 95 -39t40 -94t-39 -96q-39 -40 -96 -40z" />
    <glyph glyph-name="uni06AE.fina" unicode="&#x6ae;" horiz-adv-x="1441" 
d="M1390 0q-83 0 -142 41q-56 39 -95 104q-43 -55 -88 -94t-103 -63q-55 -24 -135 -35q-73 -10 -180 -10q-145 0 -249 30q-102 28 -170 84q-66 53 -97 131q-31 75 -31 170q0 29 8 91q8 58 27 113q19 57 51 97q33 41 82 41q13 0 28 -4q16 -5 29 -15q12 -10 22 -32
q9 -22 9 -57q0 -42 -12 -83q-13 -39 -13 -81q0 -91 90 -138q88 -46 234 -46q408 0 408 221q0 187 -9 350q-10 156 -10 326q0 27 13 52q12 26 31 45q17 18 41 31q24 11 44 11q56 0 96 -40q41 -41 41 -107v-648q0 -29 2 -75q2 -34 15 -60q13 -27 39 -40q26 -15 75 -15v-295
h-51zM722 640q-28 9 -60 24q-30 13 -59 37q-28 22 -28 57q0 26 18 54q15 25 43 52q26 23 55 39q30 15 56 15q29 0 40 -11q11 -13 11 -26q0 -23 -14 -37q-12 -13 -32 -25l-33 -19q-15 -9 -15 -22q0 -16 28 -28l61 -29q37 -18 63 -41q28 -25 28 -64q0 -35 -29 -64
q-30 -28 -72 -45q-42 -18 -84 -27t-67 -9q-38 0 -55 17q-18 17 -18 34q0 25 30 38q22 11 65 23l66 17q29 8 29 21q0 10 -27 19zM512 -422q-53 0 -93 40t-40 95q0 56 40 95q41 39 93 39q54 0 94 -39q39 -39 39 -95q0 -54 -38 -95q-39 -40 -95 -40zM813 -422q-53 0 -93 40
t-40 95q0 56 40 95q41 39 93 39q54 0 94 -39t40 -95q0 -54 -39 -95q-39 -40 -95 -40zM664 -672q-53 0 -93 40t-40 96q0 55 40 94q41 39 93 39q55 0 95 -39t40 -94t-39 -96q-39 -40 -96 -40z" />
    <glyph glyph-name="uni06B0.init" unicode="&#x6b0;" horiz-adv-x="974" 
d="M400 1154q-154 -58 -210 -83q-41 -17 -52 -21q-21 -8 -30 -8q-38 0 -61 26t-23 60q0 28 17 56q17 27 48 43q72 39 171 78q91 35 193 69q83 28 174 50q80 18 109 18q37 0 72 -20q35 -21 35 -68q0 -28 -20 -56q-20 -27 -62 -38q-226 -55 -361 -106zM625 898
q-13 -27 -13 -53q0 -18 9 -30q7 -13 33 -13q44 0 64 14q19 13 19 33q0 23 -24 48q-24 26 -65 44q-7 -9 -23 -43zM306 811q77 -62 160 -134q68 -61 114 -114q47 -52 69 -105q22 -51 22 -108q0 -128 -63 -199q-65 -71 -157 -105q-91 -34 -198 -40q-106 -6 -192 -6h-61
q-17 0 -32 4q-17 5 -17 12v263q0 6 17 11q18 5 32 5h192q31 0 56 1q52 2 76 5q43 5 67 14q28 9 28 25q0 31 -27 61q-35 35 -71 61l-91 67q-50 35 -92 74q-44 41 -70 86q-28 46 -28 102q0 62 25 116q24 53 78 88q68 44 172 85q98 39 202 70q103 31 182 47q85 17 115 17
q66 0 103 -36q37 -37 37 -88q0 -40 -26 -74q-25 -33 -97 -45l-5 -1q-3 0 -5 -1l13 -22q24 -43 24 -86q0 -42 -15 -77q-17 -35 -43 -60q-27 -25 -62 -39q-37 -14 -73 -14q-29 0 -56 7q-29 6 -53 21q-24 13 -39 38q-15 24 -15 60q0 40 17 88q0 2 1 3q-99 -32 -214 -77z" />
    <glyph glyph-name="uni06B0.medi" unicode="&#x6b0;" horiz-adv-x="1039" 
d="M388 1154q-147 -55 -209 -83l-54 -21q-21 -8 -30 -8q-36 0 -59 26t-23 60q0 28 17 56q18 28 47 43q71 38 170 78q98 38 195 69q83 27 174 50q77 18 110 18q36 0 71 -20q34 -21 34 -68q0 -28 -20 -56q-20 -27 -62 -38q-224 -55 -361 -106zM631 898q-13 -27 -13 -53
q0 -18 9 -30q7 -13 33 -13q44 0 64 14q19 13 19 33q0 23 -24 48q-24 26 -65 44q-7 -9 -23 -43zM438 852q-74 -22 -92 -28l-36 -11q85 -66 137 -108l119 -101q75 -67 107 -97q67 -63 104 -99q119 -113 230 -113h32v-295h-18q-37 0 -89 5q-44 4 -96 28q-51 23 -106 67
q-54 44 -117 125q-34 -82 -86 -128q-51 -45 -121 -67q-65 -21 -152 -26q-73 -4 -177 -4h-77q-17 0 -32 4q-17 5 -17 12v263q0 6 17 11q18 5 32 5h235q30 0 41 1q15 1 28 3q52 5 80 14q31 9 31 27q0 28 -28 57q-31 31 -69 62l-90 70q-45 33 -91 77q-42 41 -69 87
q-28 46 -28 98q0 59 27 117q25 56 79 87q102 57 216 100q106 41 202 69q97 27 156 38q63 12 72 12q27 0 54 -7q29 -7 51 -21q23 -15 36 -37q14 -23 14 -53q0 -41 -26 -76q-27 -34 -90 -51q-3 0 -4 -1q5 -7 13 -21q24 -43 24 -86q0 -42 -15 -77q-17 -35 -43 -60
q-27 -25 -62 -39q-37 -14 -73 -14q-29 0 -56 7q-29 6 -53 21q-24 13 -39 38q-15 24 -15 60t14 80z" />
    <glyph glyph-name="uni06B0.fina" unicode="&#x6b0;" horiz-adv-x="1955" 
d="M1312 1154q-152 -57 -211 -83q-64 -29 -81 -29q-36 0 -59 26t-23 60q0 30 16 56q18 28 47 43q72 39 171 78q99 38 195 69q81 27 173 50q78 18 108 18q37 0 72 -20q35 -21 35 -68q0 -30 -19 -56q-19 -27 -63 -38q-226 -55 -361 -106zM1546 898q-13 -27 -13 -53
q0 -18 9 -30q7 -13 33 -13q44 0 64 14q19 13 19 33q0 23 -24 48q-24 26 -65 44q-7 -9 -23 -43zM1212 815q135 -97 251 -204q126 -117 216 -205q119 -111 229 -111h47v-295q-134 0 -240 55q-107 54 -192 158q-45 -92 -134 -145q-88 -54 -197 -81q-110 -29 -226 -36
q-126 -8 -219 -8q-172 0 -297 26t-200 73q-78 48 -114 120q-36 71 -36 164q0 40 7 90q8 53 27 104q20 52 52 87q33 36 84 36q33 0 64 -22q30 -22 30 -74q0 -49 -15 -91q-16 -41 -16 -85q0 -47 50 -73q52 -27 116 -38q69 -13 135 -14l105 -2q44 0 79 1q80 2 117 4
q72 3 133 10q69 8 125 18q60 11 92 26q36 17 36 39q0 30 -29 62q-26 27 -71 61q-35 27 -92 66q-54 37 -92 73q-42 39 -70 85q-29 47 -29 102q0 60 31 115q29 54 79 83q83 50 189 90q115 44 205 71q102 31 173 47q76 17 97 17q69 0 107 -38q38 -40 38 -89q0 -75 -115 -112
l-4 -1q12 -18 17 -27q24 -43 24 -86q0 -42 -15 -77q-17 -35 -43 -60q-27 -25 -62 -39q-37 -14 -73 -14q-29 0 -56 7q-29 6 -53 21q-24 13 -39 38q-15 24 -15 60q0 42 16 87z" />
    <glyph glyph-name="uni06B2.init" unicode="&#x6b2;" horiz-adv-x="974" 
d="M192 295q31 0 56 1q52 2 76 5q43 5 67 14q28 9 28 25q0 31 -27 61q-35 35 -71 61l-91 67q-50 35 -92 74q-44 41 -70 86q-28 46 -28 102q0 62 25 116q24 53 78 88q68 44 172 85q98 39 202 70q103 31 182 47q85 17 115 17q66 0 103 -36q37 -37 37 -88q0 -40 -26 -74
q-25 -33 -97 -45q-131 -26 -253 -64q-128 -40 -272 -96q77 -62 160 -134q68 -61 114 -114q47 -52 69 -105q22 -51 22 -108q0 -128 -63 -199q-65 -71 -157 -105q-91 -34 -198 -40q-106 -6 -192 -6h-61q-17 0 -32 4q-17 5 -17 12v263q0 6 17 11q18 5 32 5h192zM400 1154
q-154 -58 -210 -83q-41 -17 -52 -21q-21 -8 -30 -8q-38 0 -61 26t-23 60q0 28 17 56q17 27 48 43q72 39 171 78q91 35 193 69q83 28 174 50q80 18 109 18q37 0 72 -20q35 -21 35 -68q0 -28 -20 -56q-20 -27 -62 -38q-226 -55 -361 -106zM183 -422q-53 0 -93 40t-40 95
q0 56 40 95q41 39 93 39q54 0 94 -39q39 -39 39 -95q0 -54 -38 -95q-39 -40 -95 -40zM484 -422q-53 0 -93 40t-40 95q0 56 40 95q41 39 93 39q54 0 94 -39t40 -95q0 -54 -39 -95q-39 -40 -95 -40z" />
    <glyph glyph-name="uni06B2.medi" unicode="&#x6b2;" horiz-adv-x="1039" 
d="M1021 0q-37 0 -89 5q-44 4 -96 28q-51 23 -106 67q-54 44 -117 125q-34 -82 -86 -128q-51 -45 -121 -67q-65 -21 -152 -26q-73 -4 -177 -4h-77q-17 0 -32 4q-17 5 -17 12v263q0 6 17 11q18 5 32 5h235q30 0 41 1q15 1 28 3q52 5 80 14q31 9 31 27q0 28 -28 57
q-31 31 -69 62l-90 70q-45 33 -91 77q-42 41 -69 87q-28 46 -28 98q0 59 27 117q25 56 79 87q102 57 216 100q106 41 202 69q97 27 156 38q63 12 72 12q27 0 54 -7q29 -7 51 -21q23 -15 36 -37q14 -23 14 -53q0 -41 -26 -76q-27 -34 -90 -51q-8 -1 -53 -14l-340 -103
q-74 -22 -92 -28l-36 -11q85 -66 137 -108l119 -101q75 -67 107 -97q67 -63 104 -99q119 -113 230 -113h32v-295h-18zM388 1154q-147 -55 -209 -83l-54 -21q-21 -8 -30 -8q-36 0 -59 26t-23 60q0 28 17 56q18 28 47 43q71 38 170 78q98 38 195 69q83 27 174 50q77 18 110 18
q36 0 71 -20q34 -21 34 -68q0 -28 -20 -56q-20 -27 -62 -38q-224 -55 -361 -106zM183 -422q-53 0 -93 40t-40 95q0 56 40 95q41 39 93 39q54 0 94 -39q39 -39 39 -95q0 -54 -38 -95q-39 -40 -95 -40zM484 -422q-53 0 -93 40t-40 95q0 56 40 95q41 39 93 39q54 0 94 -39
t40 -95q0 -54 -39 -95q-39 -40 -95 -40z" />
    <glyph glyph-name="uni06B2.fina" unicode="&#x6b2;" horiz-adv-x="1955" 
d="M1955 0q-134 0 -240 55q-107 54 -192 158q-45 -92 -134 -145q-88 -54 -197 -81q-110 -29 -226 -36q-126 -8 -219 -8q-172 0 -297 26t-200 73q-78 48 -114 120q-36 71 -36 164q0 40 7 90q8 53 27 104q20 52 52 87q33 36 84 36q33 0 64 -22q30 -22 30 -74q0 -49 -15 -91
q-16 -41 -16 -85q0 -47 50 -73q52 -27 116 -38q69 -13 135 -14l105 -2q44 0 79 1q80 2 117 4q72 3 133 10q69 8 125 18q60 11 92 26q36 17 36 39q0 30 -29 62q-26 27 -71 61q-35 27 -92 66q-54 37 -92 73q-42 39 -70 85q-29 47 -29 102q0 60 31 115q29 54 79 83
q83 50 189 90q115 44 205 71q102 31 173 47q76 17 97 17q69 0 107 -38q38 -40 38 -89q0 -75 -115 -112l-530 -160q135 -97 251 -204q126 -117 216 -205q119 -111 229 -111h47v-295zM1312 1154q-152 -57 -211 -83q-64 -29 -81 -29q-36 0 -59 26t-23 60q0 30 16 56
q18 28 47 43q72 39 171 78q99 38 195 69q81 27 173 50q78 18 108 18q37 0 72 -20q35 -21 35 -68q0 -30 -19 -56q-19 -27 -63 -38q-226 -55 -361 -106zM680 -422q-53 0 -93 40t-40 95q0 56 40 95q41 39 93 39q54 0 94 -39q39 -39 39 -95q0 -54 -38 -95q-39 -40 -95 -40z
M981 -422q-53 0 -93 40t-40 95q0 56 40 95q41 39 93 39q54 0 94 -39t40 -95q0 -54 -39 -95q-39 -40 -95 -40z" />
    <glyph glyph-name="uni06B4.init" unicode="&#x6b4;" horiz-adv-x="974" 
d="M192 295q31 0 56 1q52 2 76 5q43 5 67 14q28 9 28 25q0 31 -27 61q-35 35 -71 61l-91 67q-50 35 -92 74q-44 41 -70 86q-28 46 -28 102q0 62 25 116q24 53 78 88q68 44 172 85q98 39 202 70q103 31 182 47q85 17 115 17q66 0 103 -36q37 -37 37 -88q0 -40 -26 -74
q-25 -33 -97 -45q-131 -26 -253 -64q-128 -40 -272 -96q77 -62 160 -134q68 -61 114 -114q47 -52 69 -105q22 -51 22 -108q0 -128 -63 -199q-65 -71 -157 -105q-91 -34 -198 -40q-106 -6 -192 -6h-61q-17 0 -32 4q-17 5 -17 12v263q0 6 17 11q18 5 32 5h192zM400 1154
q-154 -58 -210 -83q-41 -17 -52 -21q-21 -8 -30 -8q-38 0 -61 26t-23 60q0 28 17 56q17 27 48 43q72 39 171 78q91 35 193 69q83 28 174 50q80 18 109 18q37 0 72 -20q35 -21 35 -68q0 -28 -20 -56q-20 -27 -62 -38q-226 -55 -361 -106zM286 1487q-40 -39 -93 -39
q-54 0 -93 39q-40 39 -40 94t40 95q39 40 93 40q55 0 94 -40t39 -95t-40 -94zM587 1487q-40 -39 -93 -39q-54 0 -93 39q-40 39 -40 94t40 95q39 40 93 40q55 0 94 -40t39 -95t-40 -94zM440 1737q-40 -39 -96 -39q-52 0 -93 39q-40 39 -40 94t40 95t93 40q58 0 97 -40
q38 -41 38 -95q0 -55 -39 -94z" />
    <glyph glyph-name="uni06B4.medi" unicode="&#x6b4;" horiz-adv-x="1039" 
d="M1021 0q-37 0 -89 5q-44 4 -96 28q-51 23 -106 67q-54 44 -117 125q-34 -82 -86 -128q-51 -45 -121 -67q-65 -21 -152 -26q-73 -4 -177 -4h-77q-17 0 -32 4q-17 5 -17 12v263q0 6 17 11q18 5 32 5h235q30 0 41 1q15 1 28 3q52 5 80 14q31 9 31 27q0 28 -28 57
q-31 31 -69 62l-90 70q-45 33 -91 77q-42 41 -69 87q-28 46 -28 98q0 59 27 117q25 56 79 87q102 57 216 100q106 41 202 69q97 27 156 38q63 12 72 12q27 0 54 -7q29 -7 51 -21q23 -15 36 -37q14 -23 14 -53q0 -41 -26 -76q-27 -34 -90 -51q-8 -1 -53 -14l-340 -103
q-74 -22 -92 -28l-36 -11q85 -66 137 -108l119 -101q75 -67 107 -97q67 -63 104 -99q119 -113 230 -113h32v-295h-18zM388 1154q-147 -55 -209 -83l-54 -21q-21 -8 -30 -8q-36 0 -59 26t-23 60q0 28 17 56q18 28 47 43q71 38 170 78q98 38 195 69q83 27 174 50q77 18 110 18
q36 0 71 -20q34 -21 34 -68q0 -28 -20 -56q-20 -27 -62 -38q-224 -55 -361 -106zM286 1487q-40 -39 -93 -39q-54 0 -93 39q-40 39 -40 94t40 95q39 40 93 40q55 0 94 -40t39 -95t-40 -94zM587 1487q-40 -39 -93 -39q-54 0 -93 39q-40 39 -40 94t40 95q39 40 93 40
q55 0 94 -40t39 -95t-40 -94zM440 1737q-40 -39 -96 -39q-52 0 -93 39q-40 39 -40 94t40 95t93 40q58 0 97 -40q38 -41 38 -95q0 -55 -39 -94z" />
    <glyph glyph-name="uni06B4.fina" unicode="&#x6b4;" horiz-adv-x="1955" 
d="M1955 0q-134 0 -240 55q-107 54 -192 158q-45 -92 -134 -145q-88 -54 -197 -81q-110 -29 -226 -36q-126 -8 -219 -8q-172 0 -297 26t-200 73q-78 48 -114 120q-36 71 -36 164q0 40 7 90q8 53 27 104q20 52 52 87q33 36 84 36q33 0 64 -22q30 -22 30 -74q0 -49 -15 -91
q-16 -41 -16 -85q0 -47 50 -73q52 -27 116 -38q69 -13 135 -14l105 -2q44 0 79 1q80 2 117 4q72 3 133 10q69 8 125 18q60 11 92 26q36 17 36 39q0 30 -29 62q-26 27 -71 61q-35 27 -92 66q-54 37 -92 73q-42 39 -70 85q-29 47 -29 102q0 60 31 115q29 54 79 83
q83 50 189 90q115 44 205 71q102 31 173 47q76 17 97 17q69 0 107 -38q38 -40 38 -89q0 -75 -115 -112l-530 -160q135 -97 251 -204q126 -117 216 -205q119 -111 229 -111h47v-295zM1312 1154q-152 -57 -211 -83q-64 -29 -81 -29q-36 0 -59 26t-23 60q0 30 16 56
q18 28 47 43q72 39 171 78q99 38 195 69q81 27 173 50q78 18 108 18q37 0 72 -20q35 -21 35 -68q0 -30 -19 -56q-19 -27 -63 -38q-226 -55 -361 -106zM1181 1487q-40 -39 -93 -39q-54 0 -93 39q-40 39 -40 94t40 95q39 40 93 40q55 0 94 -40t39 -95t-40 -94zM1482 1487
q-40 -39 -93 -39q-54 0 -93 39q-40 39 -40 94t40 95q39 40 93 40q55 0 94 -40t39 -95t-40 -94zM1335 1737q-40 -39 -96 -39q-52 0 -93 39q-40 39 -40 94t40 95t93 40q58 0 97 -40q38 -41 38 -95q0 -55 -39 -94z" />
    <glyph glyph-name="uni06B5.init" unicode="&#x6b5;" horiz-adv-x="536" 
d="M72 295q78 0 97 27q18 26 18 88q0 179 -5 377q-6 179 -6 356q0 67 41 103t84 36q26 0 49 -10q26 -12 43 -29q18 -18 31 -49q12 -28 12 -66v-675q0 -89 -10 -168q-11 -83 -43 -145q-33 -64 -95 -102q-64 -38 -167 -38h-121q-17 0 -32 4q-17 5 -17 12v263q0 6 17 11
q18 5 32 5h72zM21 1701q0 16 19 26t52 10q20 0 46 -14q24 -14 51 -38q23 -20 48 -52q24 -30 40 -58q13 24 38 54q22 27 51 52q25 22 54 40q25 16 46 16q31 0 50 -10t19 -26q0 -8 -9 -17q-8 -8 -23 -18q-30 -23 -53 -49q-27 -31 -47 -60q-21 -31 -36 -63q-15 -28 -20 -59
q-4 -33 -67 -33q-32 0 -49 9q-18 8 -22 24q-5 29 -17 57q-10 22 -34 61q-18 26 -47 61q-30 32 -57 52q-16 10 -24 19q-9 9 -9 16z" />
    <glyph glyph-name="uni06B5.medi" unicode="&#x6b5;" horiz-adv-x="596" 
d="M567 0q-95 0 -153 32q-57 31 -92 79q-46 -60 -103 -85q-58 -26 -149 -26h-70q-17 0 -32 4q-17 5 -17 12v263q0 6 17 11q18 5 32 5h70q71 0 92 37q20 38 20 94q-5 192 -6 370q-2 236 -2 355q0 48 38 89q37 40 85 40q25 0 49 -9q23 -9 44 -27q21 -21 32 -47q12 -28 12 -64
v-623q0 -100 33 -157q33 -58 100 -58h29v-295h-29zM46 1701q0 15 20 26q19 10 51 10q20 0 46 -14q24 -14 51 -38q23 -20 48 -52q24 -30 40 -58q15 26 39 54q20 25 50 52q25 22 54 40q25 16 47 16q30 0 49 -10t19 -26q0 -8 -9 -17q-10 -10 -22 -18q-30 -23 -53 -49
q-27 -31 -47 -60q-21 -29 -37 -63q-16 -33 -20 -59q-4 -33 -66 -33q-33 0 -50 9q-16 8 -21 24q-4 26 -18 57q-10 22 -34 61q-16 25 -46 61q-31 33 -58 52q-16 10 -23 19q-10 9 -10 16z" />
    <glyph glyph-name="uni06B5.fina" unicode="&#x6b5;" horiz-adv-x="1200" 
d="M1200 0q-40 0 -75 12q-34 10 -58 27q-15 -108 -54 -197q-39 -88 -102 -151q-62 -63 -152 -97q-89 -34 -206 -34q-116 0 -203 38t-141 101q-57 65 -82 147q-27 84 -27 179q0 36 6 94q6 59 25 111q19 54 51 91q33 37 86 37q37 0 71 -25q33 -25 33 -81q0 -52 -14 -103
q-14 -53 -14 -100q0 -33 11 -69q10 -33 40 -63q29 -28 75 -45q48 -17 117 -17q117 0 187 73q69 72 69 189q0 282 -13 529t-13 511q0 32 13 55q15 24 34 41q21 18 44 25q24 8 44 8q45 0 85 -37t40 -114v-617q0 -111 29 -167t94 -56v-295zM682 1701q0 16 19 26t52 10
q20 0 46 -14q24 -14 51 -38q23 -20 48 -52q24 -30 40 -58q13 24 38 54q22 27 51 52q25 22 54 40q25 16 46 16q31 0 50 -10t19 -26q0 -8 -9 -17q-8 -8 -23 -18q-30 -23 -53 -49q-27 -31 -47 -60q-21 -31 -36 -63q-15 -28 -20 -59q-4 -33 -67 -33q-32 0 -49 9q-18 8 -22 24
q-5 29 -17 57q-10 22 -34 61q-18 26 -47 61q-30 32 -57 52q-16 10 -24 19q-9 9 -9 16z" />
    <glyph glyph-name="uni06B6.init" unicode="&#x6b6;" horiz-adv-x="536" 
d="M72 295q78 0 97 27q18 26 18 88q0 179 -5 377q-6 179 -6 356q0 67 41 103t84 36q26 0 49 -10q26 -12 43 -29q18 -18 31 -49q12 -28 12 -66v-675q0 -89 -10 -168q-11 -83 -43 -145q-33 -64 -95 -102q-64 -38 -167 -38h-121q-17 0 -32 4q-17 5 -17 12v263q0 6 17 11
q18 5 32 5h72zM385 1443q-43 -41 -102 -41q-57 0 -98 41t-41 100q0 60 41 101q40 40 98 40q61 0 102 -40q42 -40 42 -101q0 -59 -42 -100z" />
    <glyph glyph-name="uni06B6.medi" unicode="&#x6b6;" horiz-adv-x="596" 
d="M567 0q-95 0 -153 32q-57 31 -92 79q-46 -60 -103 -85q-58 -26 -149 -26h-70q-17 0 -32 4q-17 5 -17 12v263q0 6 17 11q18 5 32 5h70q71 0 92 37q20 38 20 94q-5 192 -6 370q-2 236 -2 355q0 48 38 89q37 40 85 40q25 0 49 -9q23 -9 44 -27q21 -21 32 -47q12 -28 12 -64
v-623q0 -100 33 -157q33 -58 100 -58h29v-295h-29zM410 1443q-43 -41 -102 -41q-57 0 -98 41t-41 100q0 60 41 101q40 40 98 40q61 0 102 -40q42 -40 42 -101q0 -59 -42 -100z" />
    <glyph glyph-name="uni06B6.fina" unicode="&#x6b6;" horiz-adv-x="1200" 
d="M1200 0q-40 0 -75 12q-34 10 -58 27q-15 -108 -54 -197q-39 -88 -102 -151q-62 -63 -152 -97q-89 -34 -206 -34q-116 0 -203 38t-141 101q-57 65 -82 147q-27 84 -27 179q0 36 6 94q6 59 25 111q19 54 51 91q33 37 86 37q37 0 71 -25q33 -25 33 -81q0 -52 -14 -103
q-14 -53 -14 -100q0 -33 11 -69q10 -33 40 -63q29 -28 75 -45q48 -17 117 -17q117 0 187 73q69 72 69 189q0 282 -13 529t-13 511q0 32 13 55q15 24 34 41q21 18 44 25q24 8 44 8q45 0 85 -37t40 -114v-617q0 -111 29 -167t94 -56v-295zM1041 1443q-43 -41 -102 -41
q-57 0 -98 41t-41 100q0 60 41 101q40 40 98 40q61 0 102 -40q42 -40 42 -101q0 -59 -42 -100z" />
    <glyph glyph-name="uni06B7.init" unicode="&#x6b7;" horiz-adv-x="536" 
d="M72 295q78 0 97 27q18 26 18 88q0 179 -5 377q-6 179 -6 356q0 67 41 103t84 36q26 0 49 -10q26 -12 43 -29q18 -18 31 -49q12 -28 12 -66v-675q0 -89 -10 -168q-11 -83 -43 -145q-33 -64 -95 -102q-64 -38 -167 -38h-121q-17 0 -32 4q-17 5 -17 12v263q0 6 17 11
q18 5 32 5h72zM212 1407q-40 -39 -93 -39q-52 0 -93 39q-40 39 -40 94t40 95t93 40q55 0 94 -40t39 -95t-40 -94zM513 1407q-40 -39 -93 -39q-52 0 -93 39q-40 39 -40 94t40 95t93 40q55 0 94 -40t39 -95t-40 -94zM366 1657q-40 -39 -95 -39q-54 0 -93 39q-40 39 -40 94
t40 95q39 40 93 40q57 0 96 -40t39 -95t-40 -94z" />
    <glyph glyph-name="uni06B7.medi" unicode="&#x6b7;" horiz-adv-x="636" 
d="M587 0q-95 0 -153 32q-57 31 -92 79q-46 -60 -103 -85q-58 -26 -149 -26h-90q-17 0 -32 4q-17 5 -17 12v263q0 6 17 11q18 5 32 5h90q71 0 92 37q20 38 20 94q-5 192 -6 370q-2 236 -2 355q0 48 38 89q37 40 85 40q25 0 49 -9q23 -9 44 -27q21 -21 32 -47q12 -28 12 -64
v-623q0 -100 33 -157q33 -58 100 -58h49v-295h-49zM260 1407q-40 -39 -93 -39q-52 0 -93 39q-40 39 -40 94t40 95t93 40q55 0 94 -40t39 -95t-40 -94zM561 1407q-40 -39 -93 -39q-52 0 -93 39q-40 39 -40 94t40 95t93 40q55 0 94 -40t39 -95t-40 -94zM414 1657
q-40 -39 -95 -39q-54 0 -93 39q-40 39 -40 94t40 95q39 40 93 40q57 0 96 -40t39 -95t-40 -94z" />
    <glyph glyph-name="uni06B7.fina" unicode="&#x6b7;" horiz-adv-x="1200" 
d="M1200 0q-40 0 -75 12q-34 10 -58 27q-15 -108 -54 -197q-39 -88 -102 -151q-62 -63 -152 -97q-89 -34 -206 -34q-116 0 -203 38t-141 101q-57 65 -82 147q-27 84 -27 179q0 36 6 94q6 59 25 111q19 54 51 91q33 37 86 37q37 0 71 -25q33 -25 33 -81q0 -52 -14 -103
q-14 -53 -14 -100q0 -33 11 -69q10 -33 40 -63q29 -28 75 -45q48 -17 117 -17q117 0 187 73q69 72 69 189q0 282 -13 529t-13 511q0 32 13 55q15 24 34 41q21 18 44 25q24 8 44 8q45 0 85 -37t40 -114v-617q0 -111 29 -167t94 -56v-295zM871 1407q-40 -39 -93 -39
q-52 0 -93 39q-40 39 -40 94t40 95t93 40q55 0 94 -40t39 -95t-40 -94zM1172 1407q-40 -39 -93 -39q-52 0 -93 39q-40 39 -40 94t40 95t93 40q55 0 94 -40t39 -95t-40 -94zM1025 1657q-40 -39 -95 -39q-54 0 -93 39q-40 39 -40 94t40 95q39 40 93 40q57 0 96 -40t39 -95
t-40 -94z" />
    <glyph glyph-name="uni06B8.init" unicode="&#x6b8;" horiz-adv-x="536" 
d="M72 295q78 0 97 27q18 26 18 88q0 179 -5 377q-6 179 -6 356q0 67 41 103t84 36q26 0 49 -10q26 -12 43 -29q18 -18 31 -49q12 -28 12 -66v-675q0 -89 -10 -168q-11 -83 -43 -145q-33 -64 -95 -102q-64 -38 -167 -38h-121q-17 0 -32 4q-17 5 -17 12v263q0 6 17 11
q18 5 32 5h72zM115 -422q-53 0 -93 40t-40 95q0 56 40 95q41 39 93 39q54 0 94 -39q39 -39 39 -95q0 -54 -38 -95q-39 -40 -95 -40zM416 -422q-53 0 -93 40t-40 95q0 56 40 95q41 39 93 39q54 0 94 -39t40 -95q0 -54 -39 -95q-39 -40 -95 -40zM267 -672q-53 0 -93 40t-40 96
q0 55 40 94q41 39 93 39q55 0 95 -39t40 -94t-39 -96q-39 -40 -96 -40z" />
    <glyph glyph-name="uni06B8.medi" unicode="&#x6b8;" horiz-adv-x="636" 
d="M587 0q-95 0 -153 32q-57 31 -92 79q-46 -60 -103 -85q-58 -26 -149 -26h-90q-17 0 -32 4q-17 5 -17 12v263q0 6 17 11q18 5 32 5h90q71 0 92 37q20 38 20 94q-5 192 -6 370q-2 236 -2 355q0 48 38 89q37 40 85 40q25 0 49 -9q23 -9 44 -27q21 -21 32 -47q12 -28 12 -64
v-623q0 -100 33 -157q33 -58 100 -58h49v-295h-49zM163 -422q-53 0 -93 40t-40 95q0 56 40 95q41 39 93 39q54 0 94 -39q39 -39 39 -95q0 -54 -38 -95q-39 -40 -95 -40zM464 -422q-53 0 -93 40t-40 95q0 56 40 95q41 39 93 39q54 0 94 -39t40 -95q0 -54 -39 -95
q-39 -40 -95 -40zM315 -672q-53 0 -93 40t-40 96q0 55 40 94q41 39 93 39q55 0 95 -39t40 -94t-39 -96q-39 -40 -96 -40z" />
    <glyph glyph-name="uni06B8.fina" unicode="&#x6b8;" horiz-adv-x="1200" 
d="M1200 0q-40 0 -75 12q-34 10 -58 27q-15 -108 -54 -197q-39 -88 -102 -151q-62 -63 -152 -97q-89 -34 -206 -34q-116 0 -203 38t-141 101q-57 65 -82 147q-27 84 -27 179q0 36 6 94q6 59 25 111q19 54 51 91q33 37 86 37q37 0 71 -25q33 -25 33 -81q0 -52 -14 -103
q-14 -53 -14 -100q0 -33 11 -69q10 -33 40 -63q29 -28 75 -45q48 -17 117 -17q117 0 187 73q69 72 69 189q0 282 -13 529t-13 511q0 32 13 55q15 24 34 41q21 18 44 25q24 8 44 8q45 0 85 -37t40 -114v-617q0 -111 29 -167t94 -56v-295zM421 -820q-53 0 -93 40t-40 95
q0 56 40 95q41 39 93 39q54 0 94 -39q39 -39 39 -95q0 -54 -38 -95q-39 -40 -95 -40zM722 -820q-53 0 -93 40t-40 95q0 56 40 95q41 39 93 39q54 0 94 -39t40 -95q0 -54 -39 -95q-39 -40 -95 -40zM573 -1070q-53 0 -93 40t-40 96q0 55 40 94q41 39 93 39q55 0 95 -39t40 -94
t-39 -96q-39 -40 -96 -40z" />
    <glyph glyph-name="uni06B9.init" unicode="&#x6b9;" horiz-adv-x="506" 
d="M55 295q65 0 93 14q26 14 26 49q0 47 -17 86q-18 38 -18 80q0 59 35 105q35 45 88 45q159 0 164 -281q0 -102 -30 -176q-32 -76 -83 -122q-53 -48 -121 -71q-69 -24 -143 -24h-49q-17 0 -32 4q-17 5 -17 12v263q0 6 17 11q18 5 32 5h55zM353 856q-43 -41 -101 -41
q-57 0 -98 41t-41 100q0 60 41 101t98 41q58 0 101 -41q42 -40 42 -101q0 -59 -42 -100zM353 -395q-43 -41 -101 -41q-57 0 -98 41t-41 100t41 100t98 41q58 0 101 -41q42 -40 42 -100q0 -59 -42 -100z" />
    <glyph glyph-name="uni06B9.medi" unicode="&#x6b9;" horiz-adv-x="622" 
d="M412 696q-43 -41 -101 -41q-57 0 -98 41t-41 101q0 59 41 100t98 41q58 0 101 -41q42 -40 42 -100t-42 -101zM412 -395q-43 -41 -101 -41q-57 0 -98 41t-41 100t41 100t98 41q58 0 101 -41q42 -40 42 -100q0 -59 -42 -100zM622 0q-132 0 -201 29q-70 29 -108 82
q-44 -47 -117 -79t-196 -32q-17 0 -32 4q-17 5 -17 12v263q0 6 17 11q18 5 32 5h36q45 0 72 7q29 8 47 21q17 14 27 33q11 20 18 45q21 59 41 92q19 31 72 31q49 0 71 -31q20 -31 39 -94q8 -23 20 -45q10 -19 29 -33q17 -14 45 -20q27 -6 78 -6h27v-295z" />
    <glyph glyph-name="uni06B9.fina" unicode="&#x6b9;" horiz-adv-x="1321" 
d="M1302 0q-35 0 -62 6q-25 5 -50 17q-10 -137 -53 -248q-42 -110 -114 -187q-74 -77 -177 -119q-105 -42 -242 -42q-147 0 -244 44q-95 43 -154 114q-60 71 -82 157q-24 89 -24 174q0 61 6 124q6 64 25 113q19 51 51 82t86 31q40 0 62 -25t22 -83q0 -55 -9 -102
q-10 -44 -10 -89q0 -50 17 -98q17 -49 50 -83q35 -36 88 -57q53 -22 132 -22q163 0 254 90q92 90 92 240q0 41 -13 77q-18 50 -29 74q-16 33 -30 71q-14 37 -14 73q0 55 41 91t84 36q50 0 78 -25q29 -25 57 -57q26 -30 67 -56t114 -26v-295h-19zM689 485q-43 -41 -102 -41
q-57 0 -98 41t-41 101q0 59 41 100t98 41q59 0 102 -41q42 -40 42 -100t-42 -101zM689 -972q-43 -41 -102 -41q-57 0 -98 41t-41 100q0 60 41 101t98 41q59 0 102 -41q42 -40 42 -101q0 -59 -42 -100z" />
    <glyph glyph-name="uni06BC.init" unicode="&#x6bc;" horiz-adv-x="566" 
d="M394 854q-40 -39 -93 -39q-52 0 -93 39q-40 39 -40 94q0 56 40 96q41 39 93 39q55 0 94 -39q39 -40 39 -96q0 -55 -40 -94zM157 -34q-15 -34 -15 -63q0 -21 10 -34q11 -15 39 -15q52 0 74 16q23 15 23 38q0 28 -28 57q-29 30 -76 51q-13 -18 -27 -50zM0 0q-17 0 -32 4
q-17 5 -17 12v263q0 6 17 11q18 5 32 5h105q65 0 93 14q26 14 26 49q0 47 -17 86q-18 38 -18 80q0 59 35 105q35 45 88 45q159 0 164 -281q0 -102 -30 -176q-32 -76 -83 -122q-3 -2 -8 -7q26 -29 46 -64q28 -50 28 -102q0 -48 -18 -89q-21 -44 -50 -70q-31 -29 -72 -46
q-41 -16 -86 -16q-28 0 -65 8q-34 7 -61 24q-28 16 -46 45t-18 70q0 48 20 103q9 25 20 49h-53z" />
    <glyph glyph-name="uni06BC.medi" unicode="&#x6bc;" horiz-adv-x="752" 
d="M503 694q-40 -39 -93 -39q-52 0 -93 39q-40 39 -40 94q0 56 40 96t93 40q55 0 94 -40t39 -96q0 -55 -40 -94zM157 -34q-15 -34 -15 -63q0 -21 10 -34q11 -15 39 -15q53 0 75 16q22 15 22 38q0 28 -28 57q-29 30 -76 51q-13 -18 -27 -50zM0 0q-17 0 -32 4q-17 5 -17 12
v263q0 6 17 11q18 5 32 5h187q45 0 72 7q28 7 46 21q17 14 27 33q11 20 18 45q21 59 41 92q19 31 72 31q49 0 71 -31q19 -29 40 -94q6 -21 19 -45q10 -19 29 -33q17 -14 45 -20q27 -6 68 -6h17v-295q-112 0 -181 29q-70 29 -108 82q-32 -35 -79 -61l17 -26q28 -50 28 -102
q0 -48 -18 -89q-19 -43 -49 -70q-30 -28 -73 -46q-41 -16 -86 -16q-28 0 -65 8q-34 7 -61 24q-28 16 -46 45t-18 70q0 48 20 103q9 25 20 49h-53z" />
    <glyph glyph-name="uni06BC.fina" unicode="&#x6bc;" horiz-adv-x="1321" 
d="M689 485q-43 -41 -102 -41q-57 0 -98 41t-41 101q0 59 41 100t98 41q59 0 102 -41q42 -40 42 -100t-42 -101zM578 -601q-15 -34 -15 -63q0 -21 10 -34q11 -15 39 -15q52 0 74 16q23 15 23 38q0 28 -28 57q-29 30 -76 51q-13 -18 -27 -50zM360 -529q-95 43 -154 114
q-60 71 -82 157q-24 89 -24 174q0 61 6 124q6 64 25 113q19 51 51 82t86 31q40 0 62 -25t22 -83q0 -55 -9 -102q-10 -44 -10 -89q0 -50 17 -98q17 -49 50 -83q35 -36 88 -57q53 -22 132 -22q163 0 254 90q92 90 92 240q0 41 -13 77q-18 50 -29 74q-16 33 -30 71
q-14 37 -14 73q0 55 41 91t84 36q50 0 78 -25q29 -25 57 -57q26 -30 67 -56t114 -26v-295h-19q-35 0 -62 6q-25 5 -50 17q-10 -137 -53 -248q-42 -110 -114 -187q-74 -77 -177 -119l-26 -9q1 0 1 -1q1 -1 1 -2q28 -50 28 -102q0 -48 -18 -89q-21 -44 -50 -70
q-31 -29 -72 -46q-41 -16 -86 -16q-28 0 -65 8q-34 7 -61 24q-28 16 -46 45t-18 70q0 48 20 103q11 29 22 53q-62 10 -116 34z" />
    <glyph glyph-name="uni06BD.init" unicode="&#x6bd;" horiz-adv-x="516" 
d="M55 295q65 0 93 14q26 14 26 49q0 47 -17 86q-18 38 -18 80q0 59 35 105q35 45 88 45q159 0 164 -281q0 -102 -30 -176q-32 -76 -83 -122q-53 -48 -121 -71q-69 -24 -143 -24h-49q-17 0 -32 4q-17 5 -17 12v263q0 6 17 11q18 5 32 5h55zM194 854q-40 -39 -94 -39
q-52 0 -93 39q-40 39 -40 94q0 56 40 96q41 39 93 39q56 0 95 -39q38 -41 38 -96t-39 -94zM495 854q-40 -39 -94 -39q-52 0 -93 39q-40 39 -40 94q0 56 40 96q41 39 93 39q56 0 95 -39q39 -40 39 -96q0 -55 -40 -94zM347 1104q-40 -39 -95 -39q-52 0 -93 39q-40 39 -40 94
t40 95t93 40q57 0 96 -40t39 -95t-40 -94z" />
    <glyph glyph-name="uni06BD.medi" unicode="&#x6bd;" horiz-adv-x="622" 
d="M253 694q-40 -39 -94 -39q-52 0 -93 39q-40 39 -40 94q0 56 40 96t93 40q56 0 95 -40q38 -41 38 -96t-39 -94zM554 694q-40 -39 -94 -39q-52 0 -93 39q-40 39 -40 94q0 56 40 96t93 40q56 0 95 -40q38 -41 38 -96t-39 -94zM406 944q-40 -39 -95 -39q-52 0 -93 39
q-40 39 -40 94q0 56 40 96t93 40q57 0 96 -40t39 -96q0 -55 -40 -94zM622 0q-132 0 -201 29q-70 29 -108 82q-44 -47 -117 -79t-196 -32q-17 0 -32 4q-17 5 -17 12v263q0 6 17 11q18 5 32 5h36q45 0 72 7q29 8 47 21q17 14 27 33q11 20 18 45q21 59 41 92q19 31 72 31
q49 0 71 -31q20 -31 39 -94q8 -23 20 -45q10 -19 29 -33q17 -14 45 -20q27 -6 78 -6h27v-295z" />
    <glyph glyph-name="uni06BD.fina" unicode="&#x6bd;" horiz-adv-x="1321" 
d="M1302 0q-35 0 -62 6q-25 5 -50 17q-10 -137 -53 -248q-42 -110 -114 -187q-74 -77 -177 -119q-105 -42 -242 -42q-147 0 -244 44q-95 43 -154 114q-60 71 -82 157q-24 89 -24 174q0 61 6 124q6 64 25 113q19 51 51 82t86 31q40 0 62 -25t22 -83q0 -55 -9 -102
q-10 -44 -10 -89q0 -50 17 -98q17 -49 50 -83q35 -36 88 -57q53 -22 132 -22q163 0 254 90q92 90 92 240q0 41 -13 77q-18 50 -29 74q-16 33 -30 71q-14 37 -14 73q0 55 41 91t84 36q50 0 78 -25q29 -25 57 -57q26 -30 67 -56t114 -26v-295h-19zM515 482q-40 -39 -94 -39
q-52 0 -93 39q-40 39 -40 94q0 56 40 96q41 39 93 39q56 0 95 -39q38 -41 38 -96t-39 -94zM816 482q-40 -39 -94 -39q-52 0 -93 39q-40 39 -40 94q0 56 40 96q41 39 93 39q56 0 95 -39q39 -40 39 -96q0 -55 -40 -94zM668 732q-40 -39 -95 -39q-52 0 -93 39q-40 39 -40 94
t40 95t93 40q57 0 96 -40t39 -95t-40 -94z" />
    <glyph glyph-name="uni06BF.init" unicode="&#x6bf;" horiz-adv-x="1211" 
d="M184 295q115 0 228 35q109 34 223 86l-161 47q-64 18 -81 18q-22 0 -41 -10l-76 -43q-19 -10 -42 -10q-60 0 -80 30q-21 29 -21 72q0 53 24 98q23 45 62 76q38 31 85 49q48 17 93 17q56 0 129 -21l152 -48q77 -26 164 -51q84 -24 164 -30q46 -5 70 -26q22 -21 37 -49
q12 -27 15 -51q3 -25 3 -33q0 -16 -2 -44q-1 -19 -13 -41q-12 -20 -35 -35q-22 -15 -67 -26q-83 -18 -148 -48q-64 -30 -123 -63l-117 -69q-61 -36 -129 -62q-70 -28 -162 -45q-91 -18 -212 -18h-123q-17 0 -32 4q-17 5 -17 12v263q0 6 17 11q18 5 32 5h184zM640 934
q-43 -41 -101 -41q-57 0 -98 41t-41 100q0 60 41 101t98 41q58 0 101 -41q42 -40 42 -101q0 -59 -42 -100zM455 -382q-39 -40 -94 -40q-54 0 -94 40t-40 95q0 56 40 95q41 38 94 38q52 0 93 -38q40 -39 40 -95q0 -54 -39 -95zM756 -382q-39 -40 -94 -40q-54 0 -93 40
q-40 40 -40 95q0 56 40 95q40 38 93 38q52 0 93 -38q40 -39 40 -95q0 -54 -39 -95zM608 -632q-39 -40 -96 -40q-53 0 -93 40t-40 95q0 56 40 95q41 39 93 39q55 0 95 -39t40 -95q0 -54 -39 -95z" />
    <glyph glyph-name="uni06BF.medi" unicode="&#x6bf;" horiz-adv-x="1239" 
d="M1038 0q-120 0 -183 71q-64 70 -79 199q-71 -51 -130 -97q-63 -49 -125 -86q-67 -39 -135 -62q-69 -25 -157 -25h-229q-17 0 -32 4q-17 5 -17 12v263q0 6 17 11q18 5 32 5h178q101 0 203 38q91 34 197 91q-95 18 -121 22q-48 7 -66 7q-22 0 -39 -9l-70 -39
q-17 -10 -38 -10q-65 0 -87 31q-24 32 -24 66q0 57 24 102q23 45 62 77t87 48q47 16 97 16q53 0 129 -15q62 -12 161 -33q86 -19 168 -36q79 -17 147 -22q74 -4 109 -36q34 -31 34 -71q0 -45 -14 -75q-15 -29 -41 -47q-27 -19 -63 -30q-36 -12 -81 -24q15 -22 45 -36
q29 -15 74 -15h168v-295h-201zM656 918q-43 -41 -101 -41q-57 0 -98 41t-41 100t41 100t98 41q58 0 101 -41q42 -40 42 -100q0 -59 -42 -100zM530 -382q-39 -40 -95 -40q-53 0 -93 40t-40 95q0 56 40 95q41 38 93 38t93 -38q40 -39 40 -95q0 -54 -38 -95zM831 -382
q-39 -40 -95 -40q-53 0 -93 40t-40 95q0 56 40 95q41 38 93 38q53 0 94 -38q39 -39 39 -95q0 -54 -38 -95zM683 -632q-39 -40 -96 -40q-53 0 -93 40t-40 95q0 56 40 95q41 39 93 39q55 0 95 -39t40 -95q0 -54 -39 -95z" />
    <glyph glyph-name="uni06BF.fina" unicode="&#x6bf;" horiz-adv-x="1300" 
d="M1042 0q-61 0 -106 24q-44 22 -75 62q-29 38 -46 88q-17 52 -23 102q-73 -29 -148 -74q-73 -43 -129 -96q-55 -51 -91 -113q-35 -62 -35 -128q0 -98 31 -159q30 -62 83 -98t122 -48q66 -13 147 -13q95 0 186 20q86 19 174 19q78 0 106 -33q27 -34 27 -102q0 -47 -43 -83
q-45 -37 -116 -59q-73 -24 -171 -36q-97 -12 -206 -12q-134 0 -250 33q-114 31 -199 101q-84 67 -132 173q-48 104 -48 250q0 130 46 225q47 97 114 167q71 75 146 121q85 53 145 87q-21 0 -34 1l-19 1q-13 0 -19 1q-13 1 -34 1h-21q-29 0 -50 -15q-22 -16 -42 -33
q-21 -18 -42 -33q-22 -15 -47 -15q-51 0 -81 34q-31 32 -31 84q0 39 24 87q23 47 60 87q38 40 82 66q45 27 90 27q51 0 83 -4l35 -5q24 -4 35 -5q33 -4 72 -12t91 -12l126 -9q82 -5 178 -5q91 0 129 -38q37 -38 37 -107q0 -44 -42 -97q-41 -51 -157 -77q14 -17 41 -30
q27 -15 62 -15h223v-295h-258zM715 883q-43 -41 -101 -41q-57 0 -98 41t-41 100t41 100t98 41q58 0 101 -41q42 -40 42 -100q0 -59 -42 -100zM657 -174q-31 -31 -74 -31t-73 31q-31 31 -31 76q0 43 31 73q31 29 73 29q41 0 73 -29q31 -30 31 -73q0 -44 -30 -76zM893 -174
q-31 -31 -77 -31q-40 0 -71 31t-31 76q0 43 31 73q32 29 71 29q44 0 76 -29q31 -30 31 -73q0 -44 -30 -76zM777 -368q-30 -31 -75 -31q-43 0 -74 31q-31 30 -31 73t31 74t74 31t74 -31q30 -31 30 -74q0 -42 -29 -73z" />
    <glyph glyph-name="uni06C2.fina" unicode="&#x6c2;" horiz-adv-x="1038" 
d="M605 325q-12 5 -23 5q-15 0 -28 -7q-25 -15 -60 -62q-22 -28 -45 -60q-60 -89 -115 -213q-46 -108 -137 -108q-46 0 -71 34q-26 35 -26 86q0 27 20 93q18 58 64 143q51 102 154 202q48 44 105 75q90 51 154 61q36 6 66 6q25 0 46 -3q42 -8 68 -32q27 -26 43 -52
q19 -29 40 -94q7 -24 20 -45q10 -18 28 -33q17 -14 45 -20q29 -6 69 -6h16v-295q-112 0 -181 29q-71 29 -125 85q-57 56 -80 142v-1l-4 12q-17 47 -43 58zM368 719q-29 9 -29 54q0 36 21 52q21 18 44 19q68 4 112 14q40 9 40 25q0 5 -12 12l-25 15q-36 19 -65 45
q-31 27 -31 80q0 57 39 99q40 43 108 59q5 0 13 4q6 2 9 2t9 2h10q12 4 27 4q20 0 38 -9q30 -16 30 -50q0 -24 -15 -44q-17 -20 -37 -26l-73 -19l-31 -6q0 -5 13 -12q23 -13 30 -16q35 -16 68 -42q30 -25 30 -79q0 -49 -24 -85q-26 -37 -64 -59q-39 -24 -86 -36
q-45 -13 -92 -13q-30 0 -57 10z" />
    <glyph glyph-name="uni06C3.fina" unicode="&#x6c3;" horiz-adv-x="1038" 
d="M605 325q-12 5 -23 5q-15 0 -28 -7q-25 -15 -60 -62q-22 -28 -45 -60q-60 -89 -115 -213q-46 -108 -137 -108q-46 0 -71 34q-26 35 -26 86q0 27 20 93q18 58 64 143q51 102 154 202q48 44 105 75q90 51 154 61q36 6 66 6q25 0 46 -3q42 -8 68 -32q27 -26 43 -52
q19 -29 40 -94q7 -24 20 -45q10 -18 28 -33q17 -14 45 -20q29 -6 69 -6h16v-295q-112 0 -181 29q-71 29 -125 85q-57 56 -80 142v-1l-4 12q-17 47 -43 58zM459 779q-40 -39 -93 -39q-52 0 -93 39q-40 37 -40 94q0 55 40 95t93 40q55 0 94 -40t39 -95q0 -57 -40 -94zM760 779
q-40 -39 -93 -39q-52 0 -93 39q-40 37 -40 94q0 55 40 95t93 40q55 0 94 -40t39 -95q0 -57 -40 -94z" />
    <glyph glyph-name="uni06C4.fina" unicode="&#x6c4;" horiz-adv-x="861" 
d="M557 375q-24 30 -61 37l-16 1q-27 0 -47 -13q-28 -19 -36 -48l-2 -8v-7q0 -19 15 -33q14 -13 50 -19q30 -5 61 -7q34 -2 60 -2q0 69 -24 99zM264 -67q-27 0 -46 -19q-20 -20 -20 -48q0 -26 20 -46t46 -20t46 20t20 46q0 29 -19 48t-47 19zM514 13q-62 9 -79 13
q-27 4 -77 23q-46 16 -85 50q-36 31 -58 80q-22 45 -22 104q0 55 20 121t56 117q39 54 93 88q55 34 126 34q88 0 149 -46q59 -46 97 -114q38 -69 54 -148q3 -14 7 -40h66v-295h-94q-39 -95 -97 -172q-56 -75 -130 -141q-73 -64 -140 -107q-71 -46 -126 -68q-58 -24 -89 -24
q-69 0 -102 37q-33 38 -33 84q0 33 26 65t68 54l48 24q-8 5 -22 19q-41 39 -41 95q0 55 41 96q40 40 94 40q56 0 95 -40q32 -34 38 -77q72 60 117 128z" />
    </font>
</defs>
</svg>
