<?xml version="1.0" standalone="no"?>
<!DOCTYPE svg PUBLIC "-//W3C//DTD SVG 1.1//EN" "http://www.w3.org/Graphics/SVG/1.1/DTD/svg11.dtd" >
<svg xmlns="http://www.w3.org/2000/svg" xmlns:xlink="http://www.w3.org/1999/xlink" version="1.1">
<metadata>
Created by FontForge 20170731 at Fri Oct 28 00:05:04 2016
 By Aleksey,,,
(c)  2013 Bahij Virtual Academy. All rights reserved.
</metadata>
<defs>
<font id="BahijZar-Bold" horiz-adv-x="0" >
  <font-face 
    font-family="Bahij Zar"
    font-weight="700"
    font-stretch="normal"
    units-per-em="2048"
    panose-1="2 4 7 3 6 2 1 2 2 3"
    ascent="1638"
    descent="-410"
    x-height="753"
    cap-height="1117"
    bbox="-248 -1187 4604 1976"
    underline-thickness="50"
    underline-position="-145"
    unicode-range="U+0020-FEFC"
  />
<missing-glyph horiz-adv-x="728" 
d="M0 0v1020h728v-1020h-728zM117 947l247 -372l248 372h-495zM655 881l-247 -371l247 -372v743zM612 73l-248 371l-247 -371h495zM73 138l247 372l-247 371v-743z" />
    <glyph glyph-name="uniFB01" unicode="fi" horiz-adv-x="1002" 
d="M774 1158q52 0 87 -35t35 -90q0 -51 -36.5 -86t-85.5 -35q-50 0 -86.5 35t-36.5 86q0 55 35 90t88 35zM859 164q0 -56 6 -77q4 -13 15.5 -18.5t37.5 -9.5l57 -3v-61q-53 1 -106 3t-115 2q-55 0 -107 -2t-104 -3v61l57 3q25 4 37 9.5t15 18.5q6 21 6 77v371q0 58 -14.5 82
t-47.5 24h-51l-11 -31h-182v-446q0 -56 7 -77q8 -26 59 -28l57 -3v-61q-57 1 -111.5 3t-116.5 2q-53 0 -108 -2t-123 -3v61l67 3q54 4 62 28q7 21 7 77v446l-130 -8v39q35 17 68 34.5t62 39.5v70q0 50 2.5 80.5t11.5 55t27 44t49 45.5l122 102q29 24 50.5 37t39.5 20.5
t33 9.5t31 2q33 0 66 -10v-159l-26 -12q-22 15 -49 27t-54 12q-37 0 -58.5 -11t-31.5 -31.5t-11.5 -48.5t-1.5 -59v-177h182q52 0 100 5.5t94 19.5l118 36l13 -2v-607z" />
    <glyph glyph-name="uniFB02" unicode="fl" horiz-adv-x="1002" 
d="M656 931q0 35 -1 57t-5.5 34.5t-13.5 17.5t-23 7l-44 4v-54l-24 -7q-13 19 -39 34t-53 15q-56 0 -72.5 -43t-16.5 -107v-177q42 0 95.5 1.5t102.5 4.5l7 -13l-18 -95h-187v-446q0 -56 7 -77q2 -13 25.5 -18.5t49.5 -9.5l40 -3v-61q-56 1 -111 3t-116 2q-54 0 -108.5 -2
t-122.5 -3v61l67 3q53 4 62 28q7 21 7 77v446l-130 -8v39q35 17 68 34.5t62 39.5v70q0 50 2 80.5t11.5 55t27.5 44t49 45.5l121 102q57 48 88 58.5t56 10.5q17 0 28 -2l22 -4v-60q44 6 87 12.5t87 20.5l99 33l14 -10v-1007q0 -56 7 -77q2 -13 14 -18.5t38 -9.5l57 -3v-61
q-52 1 -105.5 3t-116.5 2q-53 0 -105.5 -2t-105.5 -3v61l57 3q27 4 38.5 9.5t14.5 18.5q7 21 7 77v767z" />
    <glyph glyph-name="uniFC31" unicode="&#xfed3;&#xfef0;" horiz-adv-x="2010" arabic-form="isolated" 
d="M1851 583q-69 109 -173 109q-36 0 -57 -22t-21 -52q0 -48 121 -48q61 0 130 13zM1086 2q-186 0 -186 -49q0 -41 186 -41h196q145 0 145 -121q0 -216 -283 -297q-163 -45 -457 -45q-206 0 -338 65q-189 89 -189 286q0 78 27 185q29 113 68 171q23 37 49 37q25 0 25 -32
q0 -8 -3 -31q-36 -77 -36 -162v-3q0 -137 162 -221q147 -75 388 -77h11q269 0 413 46q48 16 48 31q0 20 -63 20h-251q-218 0 -219 124v2q0 47 41 114q169 272 578 272h232q73 0 153 19q113 28 113 79q-77 -8 -187 -14h-6q-217 0 -217 149q0 115 53 235q70 158 183 158
q115 0 195 -98q90 -112 91 -326v-8q0 -221 -116 -343q-119 -125 -344 -125h-462zM1855 1108q4 -4 4 -10q0 -7 -4 -12l-113 -112q-6 -6 -13 -6t-14 6l-114 108q-5 6 -5 13q0 9 11 19l104 106q4 8 12 8t18 -8z" />
    <glyph glyph-name="uniFC32" unicode="&#xfed3;&#xfef2;" horiz-adv-x="2010" arabic-form="isolated" 
d="M989 -760q6 -7 6 -10q0 -5 -6 -13l-107 -104q-6 -7 -11 -7t-9 7l-102 102l-102 -102q-4 -6 -9 -6q-6 0 -13 6l-104 102q-8 6 -8 14q0 7 9 16l95 98q8 7 14 7t14 -7l101 -98l96 98q9 7 14 7t14 -7zM1851 583q-69 109 -173 109q-36 0 -57 -22t-21 -52q0 -48 121 -48
q61 0 130 13zM1086 2q-186 0 -186 -49q0 -41 186 -41h196q145 0 145 -121q0 -216 -283 -297q-163 -45 -457 -45q-206 0 -338 65q-189 89 -189 286q0 78 27 185q29 113 68 171q23 37 49 37q25 0 25 -32q0 -8 -3 -31q-36 -77 -36 -162v-3q0 -137 162 -221q147 -75 388 -77h11
q269 0 413 46q48 16 48 31q0 20 -63 20h-251q-218 0 -219 124v2q0 47 41 114q169 272 578 272h232q73 0 153 19q113 28 113 79q-77 -8 -187 -14h-6q-217 0 -217 149q0 115 53 235q70 158 183 158q115 0 195 -98q90 -112 91 -326v-8q0 -221 -116 -343q-119 -125 -344 -125
h-462zM1855 1108q4 -4 4 -10q0 -7 -4 -12l-113 -112q-6 -6 -13 -6t-14 6l-114 108q-5 6 -5 13q0 9 11 19l104 106q4 8 12 8t18 -8z" />
    <glyph glyph-name="uniFC43" unicode="&#xfedf;&#xfef0;" horiz-adv-x="1822" arabic-form="isolated" 
d="M1086 2q-186 0 -186 -49q0 -41 186 -41h196q145 0 145 -121q0 -216 -283 -297q-163 -45 -457 -45q-206 0 -338 65q-189 89 -189 286q0 78 27 185q29 113 68 171q23 37 49 37q25 0 25 -32q0 -8 -3 -31q-36 -77 -36 -162v-3q0 -137 162 -221q147 -75 388 -77h11
q269 0 413 46q48 16 48 31q0 20 -63 20h-251q-218 0 -219 124v2q0 47 41 114q169 272 578 272h90q115 0 115 82v11q0 73 -25 225q-39 234 -80 373l154 168q19 20 29 20t28 -31l112 -256q0 -3 1 -8v-7q0 -15 -29 -15q-17 0 -51 5v-520q0 -130 -62 -219q-70 -102 -194 -102
h-400z" />
    <glyph glyph-name="uniFC44" unicode="&#xfedf;&#xfef2;" horiz-adv-x="1822" arabic-form="isolated" 
d="M989 -760q6 -7 6 -10q0 -5 -6 -13l-107 -104q-6 -7 -11 -7t-9 7l-102 102l-102 -102q-4 -6 -9 -6q-6 0 -13 6l-104 102q-8 6 -8 14q0 7 9 16l95 98q8 7 14 7t14 -7l101 -98l96 98q9 7 14 7t14 -7zM1086 2q-186 0 -186 -49q0 -41 186 -41h196q145 0 145 -121
q0 -216 -283 -297q-163 -45 -457 -45q-206 0 -338 65q-189 89 -189 286q0 78 27 185q29 113 68 171q23 37 49 37q25 0 25 -32q0 -8 -3 -31q-36 -77 -36 -162v-3q0 -137 162 -221q147 -75 388 -77h11q269 0 413 46q48 16 48 31q0 20 -63 20h-251q-218 0 -219 124v2
q0 47 41 114q169 272 578 272h90q115 0 115 82v11q0 73 -25 225q-39 234 -80 373l154 168q19 20 29 20t28 -31l112 -256q0 -3 1 -8v-7q0 -15 -29 -15q-17 0 -51 5v-520q0 -130 -62 -219q-70 -102 -194 -102h-400z" />
    <glyph glyph-name="uniFC64" unicode="&#xfe8c;&#xfeae;" horiz-adv-x="1344" arabic-form="final" 
d="M1215 874l-37 -69q-191 -61 -294 -140q-8 32 -8 44q0 7 4 15q18 24 87 70q-75 39 -77 90v3q0 50 58 106q60 57 110 57q58 0 86 -41q19 -25 19 -35t-23 -10q-14 0 -24 1q-15 0 -49 3q-45 0 -72 -15q-20 -8 -20 -22q0 -10 29 -37q15 -17 52 -36q33 10 133 43q10 1 18 1
q17 0 17 -8q0 -4 -9 -20zM804 2q-21 0 -40 15v-15q0 -169 -65 -311q-69 -149 -174 -224q-24 -6 -56 -8q-16 -1 -33 -1q-71 0 -174 13q-170 19 -170 57q0 31 73 61q170 72 248 116q119 68 192 136.5t73 122.5v1q0 92 -243 265l135 209q8 9 24 21q7 0 25 -21
q136 -163 213 -163h30q143 0 183 190q12 58 46 58q30 0 38 -58q22 -190 167 -190h76v-274h-76q-155 0 -210 171q-51 -171 -199 -171h-83z" />
    <glyph glyph-name="uniFC67" unicode="&#xfe8c;&#xfee6;" horiz-adv-x="1918" arabic-form="final" 
d="M1789 874l-37 -69q-192 -61 -295 -140q-7 32 -7 44q0 7 4 15q18 24 86 70q-74 39 -76 90v3q0 50 58 106q60 57 109 57q59 0 87 -41q19 -25 19 -35t-24 -10q-13 0 -23 1q-16 0 -50 3q-44 0 -72 -15q-20 -8 -20 -22q0 -10 30 -37q14 -17 51 -36q33 10 134 43q10 1 18 1
q17 0 17 -8q0 -4 -9 -20zM806 555q7 -4 7 -9q0 -6 -9 -13l-112 -112q-3 -9 -10 -9q-6 0 -12 9l-115 108q-6 6 -6 13q0 8 9 17l104 106q7 7 14 7q8 0 15 -7zM1378 2q-96 0 -127 24q3 -57 3 -82q0 -246 -168 -373q-149 -114 -404 -116h-10q-208 0 -344 85q-168 102 -168 304
q0 105 32 207q29 85 59 128q24 36 48 36q22 0 22 -30q0 -12 -7 -34q-34 -100 -34 -173q0 -244 407 -246h16q131 0 258 32q211 57 213 175v1q0 79 -225 318l120 197q12 25 24 25q10 0 24 -19q43 -50 113 -123q76 -62 153 -62h52q143 0 184 190q11 58 46 58q30 0 37 -58
q22 -190 168 -190h76v-274h-76q-156 0 -210 171q-51 -171 -199 -171h-83z" />
    <glyph glyph-name="uniFC6A" unicode="&#xfe92;&#xfeae;" horiz-adv-x="1336" arabic-form="final" 
d="M804 2q-21 0 -40 15v-15q0 -169 -65 -311q-69 -149 -174 -224q-24 -6 -56 -8q-16 -1 -33 -1q-71 0 -174 13q-170 19 -170 57q0 31 73 61q170 72 248 116q119 68 192 136.5t73 122.5v1q0 92 -243 265l135 209q8 9 24 21q7 0 25 -21q136 -163 213 -163h18q149 0 187 190
q12 58 45 58q35 0 41 -58q20 -190 165 -190h76v-274h-76q-153 0 -212 171q-49 -171 -195 -171h-77zM1196 -271q4 -5 4 -10q0 -7 -6 -14l-112 -112q-6 -6 -12 -6t-13 6l-113 110q-7 5 -7 13q0 9 10 20l103 103q6 8 13 8t15 -8z" />
    <glyph glyph-name="uniFC70" unicode="&#xfe98;&#xfeae;" horiz-adv-x="1444" arabic-form="final" 
d="M1321 804q4 -4 4 -8q0 -5 -6 -11l-107 -106q-3 -7 -8 -7t-12 7l-102 101l-102 -101q-3 -4 -10 -4t-12 4l-107 104q-6 6 -6 11q0 7 8 15l100 100q5 6 12 6q5 0 15 -6l97 -100l100 100q7 5 14 5q6 0 12 -5zM804 2q-21 0 -40 15v-15q0 -169 -65 -311q-69 -149 -174 -224
q-24 -6 -56 -8q-16 -1 -33 -1q-71 0 -174 13q-170 19 -170 57q0 31 73 61q170 72 248 116q119 68 192 136.5t73 122.5v1q0 92 -243 265l135 209q8 9 24 21q7 0 25 -21q136 -163 213 -163h136q150 0 187 190q12 58 46 58t41 -58q20 -190 165 -190h65v-274h-65
q-153 0 -213 171q-49 -171 -195 -171h-195z" />
    <glyph glyph-name="uniFC86" unicode="&#xfee0;&#xfef0;" horiz-adv-x="1933" arabic-form="final" 
d="M1086 2q-186 0 -186 -49q0 -41 186 -41h196q145 0 145 -121q0 -216 -283 -297q-163 -45 -457 -45q-206 0 -338 65q-189 89 -189 286q0 78 27 185q29 113 68 171q23 37 49 37q25 0 25 -32q0 -8 -3 -31q-36 -77 -36 -162v-3q0 -137 162 -221q147 -75 388 -77h11
q269 0 413 46q48 16 48 31q0 20 -63 20h-251q-218 0 -219 124v2q0 47 41 114q169 272 578 272h71q57 0 91.5 32.5t34.5 88.5v616l165 149q14 15 26 15q19 0 19 -31v-6l-25 -682q-1 -14 -1 -26q0 -84 35 -127q21 -29 80 -29h67v-274h-79q-145 0 -199 116q-21 -45 -70.5 -80.5
t-102.5 -35.5h-424z" />
    <glyph glyph-name="uniFC87" unicode="&#xfee0;&#xfef2;" horiz-adv-x="1933" arabic-form="final" 
d="M989 -760q6 -7 6 -10q0 -5 -6 -13l-107 -104q-6 -7 -11 -7t-9 7l-102 102l-102 -102q-4 -6 -9 -6q-6 0 -13 6l-104 102q-8 6 -8 14q0 7 9 16l95 98q8 7 14 7t14 -7l101 -98l96 98q9 7 14 7t14 -7zM1086 2q-186 0 -186 -49q0 -41 186 -41h196q145 0 145 -121
q0 -216 -283 -297q-163 -45 -457 -45q-206 0 -338 65q-189 89 -189 286q0 78 27 185q29 113 68 171q23 37 49 37q25 0 25 -32q0 -8 -3 -31q-36 -77 -36 -162v-3q0 -137 162 -221q147 -75 388 -77h11q269 0 413 46q48 16 48 31q0 20 -63 20h-251q-218 0 -219 124v2
q0 47 41 114q169 272 578 272h71q57 0 91.5 32.5t34.5 88.5v616l165 149q14 15 26 15q19 0 19 -31v-6l-25 -682q-1 -14 -1 -26q0 -84 35 -127q21 -29 80 -29h67v-274h-79q-145 0 -199 116q-21 -45 -70.5 -80.5t-102.5 -35.5h-424z" />
    <glyph glyph-name="uniFCCC" unicode="&#xfedf;&#xfee4;" horiz-adv-x="1255" arabic-form="initial" 
d="M553 189q38 0 38 55q0 67 -46 163q-63 129 -148 129q-53 0 -55 -75v-6q0 -63 42 -134q80 -132 169 -132zM844 2q-65 0 -112 39q-20 16 -69 87q-67 -159 -177 -160h-3q-128 0 -255 197q-67 -163 -189 -163h-67v274h71q78 0 107 51q11 23 11 85q0 121 66 196t184 77
q97 0 177 -105q86 -156 103 -181q83 -123 147 -123h83q115 0 115 82v11q0 73 -25 225q-39 234 -80 373l154 168q19 20 29 20t28 -31l112 -256q0 -3 1 -8v-7q0 -15 -29 -15q-17 0 -51 5v-520q0 -130 -62 -219q-70 -102 -194 -102h-75z" />
    <glyph glyph-name="uniFCFB" unicode="&#xfeb3;&#xfef0;" horiz-adv-x="2390" arabic-form="isolated" 
d="M1086 2q-186 0 -186 -49q0 -41 186 -41h196q145 0 145 -121q0 -216 -283 -297q-163 -45 -457 -45q-206 0 -338 65q-189 89 -189 286q0 78 27 185q29 113 68 171q23 37 49 37q25 0 25 -32q0 -8 -3 -31q-36 -77 -36 -162v-3q0 -137 162 -221q147 -75 388 -77h11
q269 0 413 46q48 16 48 31q0 20 -63 20h-251q-218 0 -219 124v2q0 47 41 114q169 272 578 272h119q68 0 95 45q12 17 28 86q8 39 35 42q26 0 34 -44q10 -67 25 -84q26 -45 99 -45q65 0 90 45q14 27 24 86q10 42 37 42q26 0 37 -42q5 -61 30 -86q36 -45 148 -45q81 0 81 65
q0 54 -81 156l98 135q10 14 19 14q10 0 17 -15q57 -129 57 -277q0 -135 -55 -236q-67 -116 -179 -116q-111 0 -159 112q-13 -45 -62.5 -78.5t-101.5 -33.5q-109 0 -168 103q-19 -40 -58 -69q-46 -34 -90 -34h-431z" />
    <glyph glyph-name="uniFCFC" unicode="&#xfeb3;&#xfef2;" horiz-adv-x="2390" arabic-form="isolated" 
d="M989 -732q6 -8 6 -10q0 -6 -6 -14l-107 -104q-6 -7 -11 -7t-9 7l-102 102l-102 -102q-4 -6 -9 -6q-6 0 -13 6l-104 102q-8 7 -8 14q0 8 9 16l95 98q8 8 14 8t14 -8l101 -98l96 98q9 8 14 8t14 -8zM1086 2q-186 0 -186 -49q0 -41 186 -41h196q145 0 145 -121
q0 -216 -283 -297q-163 -45 -457 -45q-206 0 -338 65q-189 89 -189 286q0 78 27 185q29 113 68 171q23 37 49 37q25 0 25 -32q0 -8 -3 -31q-36 -77 -36 -162v-3q0 -137 162 -221q147 -75 388 -77h11q269 0 413 46q48 16 48 31q0 20 -63 20h-251q-218 0 -219 124v2
q0 47 41 114q169 272 578 272h119q68 0 95 45q12 17 28 86q8 39 35 42q26 0 34 -44q10 -67 25 -84q26 -45 99 -45q65 0 90 45q14 27 24 86q10 42 37 42q26 0 37 -42q5 -61 30 -86q36 -45 148 -45q81 0 81 65q0 54 -81 156l98 135q10 14 19 14q10 0 17 -15q57 -129 57 -277
q0 -135 -55 -236q-67 -116 -179 -116q-111 0 -159 112q-13 -45 -62.5 -78.5t-101.5 -33.5q-109 0 -168 103q-19 -40 -58 -69q-46 -34 -90 -34h-431z" />
    <glyph glyph-name="uniFCFD" unicode="&#xfeb7;&#xfef0;" horiz-adv-x="2390" arabic-form="isolated" 
d="M2185 855q8 -5 8 -10t-8 -10l-103 -107q-9 -4 -13 -4t-11 4l-101 105l-102 -105q-6 -4 -11 -4t-11 4l-106 105q-6 6 -6 12q0 7 8 15l98 98q6 6 12 6t12 -6l102 -98l100 98q4 7 10 7q7 0 14 -7zM2075 1061q7 -4 7 -10q0 -4 -7 -8l-102 -105q-6 -3 -12 -3q-4 0 -10 3
l-105 103q-9 4 -9 9q0 7 11 15l97 98q5 6 12 6t15 -6zM1086 2q-186 0 -186 -49q0 -41 186 -41h196q145 0 145 -121q0 -216 -283 -297q-163 -45 -457 -45q-206 0 -338 65q-189 89 -189 286q0 78 27 185q29 113 68 171q23 37 49 37q25 0 25 -32q0 -8 -3 -31q-36 -77 -36 -162
v-3q0 -137 162 -221q147 -75 388 -77h11q269 0 413 46q48 16 48 31q0 20 -63 20h-251q-218 0 -219 124v2q0 47 41 114q169 272 578 272h119q68 0 95 45q12 17 28 86q8 39 35 42q26 0 34 -44q10 -67 25 -84q26 -45 99 -45q65 0 90 45q14 27 24 86q10 42 37 42q26 0 37 -42
q5 -61 30 -86q36 -45 148 -45q81 0 81 65q0 54 -81 156l98 135q10 14 19 14q10 0 17 -15q57 -129 57 -277q0 -135 -55 -236q-67 -116 -179 -116q-111 0 -159 112q-13 -45 -62.5 -78.5t-101.5 -33.5q-109 0 -168 103q-19 -40 -58 -69q-46 -34 -90 -34h-431z" />
    <glyph glyph-name="uniFCFE" unicode="&#xfeb7;&#xfef2;" horiz-adv-x="2390" arabic-form="isolated" 
d="M989 -732q6 -8 6 -10q0 -6 -6 -14l-107 -104q-6 -7 -11 -7t-9 7l-102 102l-102 -102q-4 -6 -9 -6q-6 0 -13 6l-104 102q-8 7 -8 14q0 8 9 16l95 98q8 8 14 8t14 -8l101 -98l96 98q9 8 14 8t14 -8zM2185 855q8 -5 8 -10t-8 -10l-103 -107q-9 -4 -13 -4t-11 4l-101 105
l-102 -105q-6 -4 -11 -4t-11 4l-106 105q-6 6 -6 12q0 7 8 15l98 98q6 6 12 6t12 -6l102 -98l100 98q4 7 10 7q7 0 14 -7zM2075 1061q7 -4 7 -10q0 -4 -7 -8l-102 -105q-6 -3 -12 -3q-4 0 -10 3l-105 103q-9 4 -9 9q0 7 11 15l97 98q5 6 12 6t15 -6zM1086 2q-186 0 -186 -49
q0 -41 186 -41h196q145 0 145 -121q0 -216 -283 -297q-163 -45 -457 -45q-206 0 -338 65q-189 89 -189 286q0 78 27 185q29 113 68 171q23 37 49 37q25 0 25 -32q0 -8 -3 -31q-36 -77 -36 -162v-3q0 -137 162 -221q147 -75 388 -77h11q269 0 413 46q48 16 48 31q0 20 -63 20
h-251q-218 0 -219 124v2q0 47 41 114q169 272 578 272h119q68 0 95 45q12 17 28 86q8 39 35 42q26 0 34 -44q10 -67 25 -84q26 -45 99 -45q65 0 90 45q14 27 24 86q10 42 37 42q26 0 37 -42q5 -61 30 -86q36 -45 148 -45q81 0 81 65q0 54 -81 156l98 135q10 14 19 14
q10 0 17 -15q57 -129 57 -277q0 -135 -55 -236q-67 -116 -179 -116q-111 0 -159 112q-13 -45 -62.5 -78.5t-101.5 -33.5q-109 0 -168 103q-19 -40 -58 -69q-46 -34 -90 -34h-431z" />
    <glyph glyph-name="uniFD05" unicode="&#xfebb;&#xfef0;" horiz-adv-x="2614" arabic-form="isolated" 
d="M2447 356q0 39 -60 81.5t-146 44.5h-6q-90 0 -186 -61q-86 -57 -151 -143q75 -12 169 -12q126 0 252 23t128 67zM1086 2q-186 0 -186 -49q0 -41 186 -41h196q145 0 145 -121q0 -216 -283 -297q-163 -45 -457 -45q-206 0 -338 65q-189 89 -189 286q0 78 27 185
q29 113 68 171q23 37 49 37q25 0 25 -32q0 -8 -3 -31q-36 -77 -36 -162v-3q0 -137 162 -221q147 -75 388 -77h11q269 0 413 46q48 16 48 31q0 20 -63 20h-251q-218 0 -219 124v2q0 47 41 114q169 272 578 272h73q81 0 112 48q17 17 36 88q13 49 33 49q24 0 39 -44
q24 -69 24 -83q22 -42 65 -42q116 156 293 278q191 134 351 136q72 0 131 -58t59 -134q0 -112 -92 -238q-81 -108 -186 -176q-158 -98 -355 -98q-242 0 -329 91q-57 -91 -152 -91h-414z" />
    <glyph glyph-name="uniFD06" unicode="&#xfebb;&#xfef2;" horiz-adv-x="2614" arabic-form="isolated" 
d="M2447 356q0 39 -60 81.5t-146 44.5h-6q-90 0 -186 -61q-86 -57 -151 -143q75 -12 169 -12q126 0 252 23t128 67zM989 -769q6 -7 6 -10q0 -5 -6 -14l-107 -103q-6 -7 -11 -7t-9 7l-102 102l-102 -102q-4 -6 -9 -6q-6 0 -13 6l-104 102q-8 6 -8 14q0 7 9 16l95 98q8 7 14 7
t14 -7l101 -98l96 98q9 7 14 7t14 -7zM1086 2q-186 0 -186 -49q0 -41 186 -41h196q145 0 145 -121q0 -216 -283 -297q-163 -45 -457 -45q-206 0 -338 65q-189 89 -189 286q0 78 27 185q29 113 68 171q23 37 49 37q25 0 25 -32q0 -8 -3 -31q-36 -77 -36 -162v-3
q0 -137 162 -221q147 -75 388 -77h11q269 0 413 46q48 16 48 31q0 20 -63 20h-251q-218 0 -219 124v2q0 47 41 114q169 272 578 272h73q81 0 112 48q17 17 36 88q13 49 33 49q24 0 39 -44q24 -69 24 -83q22 -42 65 -42q116 156 293 278q191 134 351 136q72 0 131 -58
t59 -134q0 -112 -92 -238q-81 -108 -186 -176q-158 -98 -355 -98q-242 0 -329 91q-57 -91 -152 -91h-414z" />
    <glyph glyph-name="uniFD07" unicode="&#xfebf;&#xfef0;" horiz-adv-x="2614" arabic-form="isolated" 
d="M2030 968q7 -5 7 -10q0 -6 -8 -13l-112 -112q-5 -7 -11 -7q-8 0 -14 7l-112 110q-7 7 -7 13q0 8 9 16l104 107q6 6 14 6q7 0 16 -6zM2447 356q0 39 -60 81.5t-146 44.5h-6q-90 0 -186 -61q-86 -57 -151 -143q75 -12 169 -12q126 0 252 23t128 67zM1086 2q-186 0 -186 -49
q0 -41 186 -41h196q145 0 145 -121q0 -216 -283 -297q-163 -45 -457 -45q-206 0 -338 65q-189 89 -189 286q0 78 27 185q29 113 68 171q23 37 49 37q25 0 25 -32q0 -8 -3 -31q-36 -77 -36 -162v-3q0 -137 162 -221q147 -75 388 -77h11q269 0 413 46q48 16 48 31q0 20 -63 20
h-251q-218 0 -219 124v2q0 47 41 114q169 272 578 272h73q81 0 112 48q17 17 36 88q13 49 33 49q24 0 39 -44q24 -69 24 -83q22 -42 65 -42q116 156 293 278q191 134 351 136q72 0 131 -58t59 -134q0 -112 -92 -238q-81 -108 -186 -176q-158 -98 -355 -98q-242 0 -329 91
q-57 -91 -152 -91h-414z" />
    <glyph glyph-name="uniFD08" unicode="&#xfebf;&#xfef2;" horiz-adv-x="2614" arabic-form="isolated" 
d="M2030 968q7 -5 7 -10q0 -6 -8 -13l-112 -112q-5 -7 -11 -7q-8 0 -14 7l-112 110q-7 7 -7 13q0 8 9 16l104 107q6 6 14 6q7 0 16 -6zM2447 356q0 39 -60 81.5t-146 44.5h-6q-90 0 -186 -61q-86 -57 -151 -143q75 -12 169 -12q126 0 252 23t128 67zM989 -769q6 -7 6 -10
q0 -5 -6 -14l-107 -103q-6 -7 -11 -7t-9 7l-102 102l-102 -102q-4 -6 -9 -6q-6 0 -13 6l-104 102q-8 6 -8 14q0 7 9 16l95 98q8 7 14 7t14 -7l101 -98l96 98q9 7 14 7t14 -7zM1086 2q-186 0 -186 -49q0 -41 186 -41h196q145 0 145 -121q0 -216 -283 -297q-163 -45 -457 -45
q-206 0 -338 65q-189 89 -189 286q0 78 27 185q29 113 68 171q23 37 49 37q25 0 25 -32q0 -8 -3 -31q-36 -77 -36 -162v-3q0 -137 162 -221q147 -75 388 -77h11q269 0 413 46q48 16 48 31q0 20 -63 20h-251q-218 0 -219 124v2q0 47 41 114q169 272 578 272h73q81 0 112 48
q17 17 36 88q13 49 33 49q24 0 39 -44q24 -69 24 -83q22 -42 65 -42q116 156 293 278q191 134 351 136q72 0 131 -58t59 -134q0 -112 -92 -238q-81 -108 -186 -176q-158 -98 -355 -98q-242 0 -329 91q-57 -91 -152 -91h-414z" />
    <glyph glyph-name="uniFD0D" unicode="&#xfeb7;&#xfeae;" horiz-adv-x="1780" arabic-form="isolated" 
d="M1465 1061q7 -4 7 -10q0 -4 -7 -8l-102 -105q-6 -3 -12 -3q-5 0 -10 3l-105 103q-9 4 -9 9q0 7 11 15l97 98q5 6 12 6t15 -6zM804 2q-21 0 -40 15v-15q0 -169 -65 -311q-69 -149 -174 -224q-24 -6 -56 -8q-16 -1 -33 -1q-71 0 -174 13q-170 19 -170 57q0 31 73 61
q170 72 248 116q119 68 192 136.5t73 122.5v1q0 92 -243 265l135 209q8 9 24 21q7 0 25 -21q136 -163 213 -163h75q68 0 95 45q12 17 27 86q9 39 36 42q25 0 34 -44q10 -67 25 -84q26 -45 99 -45q65 0 90 45q14 27 24 86q9 42 37 42q26 0 37 -42q5 -61 30 -86
q36 -45 148 -45q81 0 81 65q0 54 -81 156l98 135q10 14 18 14q11 0 18 -15q57 -129 57 -277q0 -135 -55 -236q-67 -116 -179 -116q-111 0 -159 112q-13 -45 -62.5 -78.5t-101.5 -33.5q-109 0 -168 103q-19 -40 -58 -69q-46 -34 -90 -34h-103zM1575 855q7 -5 7 -10t-7 -10
l-103 -107q-9 -4 -13 -4t-11 4l-102 105l-102 -105q-5 -4 -10 -4t-11 4l-106 105q-6 6 -6 12q0 7 8 15l98 98q6 6 12 6t12 -6l102 -98l100 98q4 7 10 7t14 -7z" />
    <glyph glyph-name="uniFD0E" unicode="&#xfeb3;&#xfeae;" horiz-adv-x="1780" arabic-form="isolated" 
d="M804 2q-21 0 -40 15v-15q0 -169 -65 -311q-69 -149 -174 -224q-24 -6 -56 -8q-16 -1 -33 -1q-71 0 -174 13q-170 19 -170 57q0 31 73 61q170 72 248 116q119 68 192 136.5t73 122.5v1q0 92 -243 265l135 209q8 9 24 21q7 0 25 -21q136 -163 213 -163h75q68 0 95 45
q12 17 27 86q9 39 36 42q25 0 34 -44q10 -67 25 -84q26 -45 99 -45q65 0 90 45q14 27 24 86q9 42 37 42q26 0 37 -42q5 -61 30 -86q36 -45 148 -45q81 0 81 65q0 54 -81 156l98 135q10 14 18 14q11 0 18 -15q57 -129 57 -277q0 -135 -55 -236q-67 -116 -179 -116
q-111 0 -159 112q-13 -45 -62.5 -78.5t-101.5 -33.5q-109 0 -168 103q-19 -40 -58 -69q-46 -34 -90 -34h-103z" />
    <glyph glyph-name="uniFD0F" unicode="&#xfebb;&#xfeae;" horiz-adv-x="2004" arabic-form="isolated" 
d="M1837 356q0 39 -60 81.5t-146 44.5h-6q-90 0 -186 -61q-86 -57 -151 -143q75 -12 169 -12q126 0 252 23t128 67zM804 2q-21 0 -40 15v-15q0 -169 -65 -311q-69 -149 -174 -224q-24 -6 -56 -8q-16 -1 -33 -1q-71 0 -174 13q-170 19 -170 57q0 31 73 61q170 72 248 116
q119 68 192 136.5t73 122.5v1q0 92 -243 265l135 209q8 9 24 21q7 0 25 -21q136 -163 213 -163h29q81 0 112 48q17 17 35 88q14 49 34 49q24 0 39 -44q24 -69 24 -83q22 -42 65 -42q116 156 293 278q191 134 351 136q72 0 131 -58t59 -134q0 -112 -92 -238
q-81 -108 -186 -176q-158 -98 -355 -98q-242 0 -329 91q-57 -91 -152 -91h-86z" />
    <glyph glyph-name="uniFD10" unicode="&#xfebf;&#xfeae;" horiz-adv-x="2004" arabic-form="isolated" 
d="M1420 968q7 -5 7 -10q0 -6 -8 -13l-112 -112q-5 -7 -12 -7t-13 7l-112 110q-7 7 -7 13q0 8 9 16l104 107q6 6 13 6q8 0 16 -6zM1837 356q0 39 -60 81.5t-146 44.5h-6q-90 0 -186 -61q-86 -57 -151 -143q75 -12 169 -12q126 0 252 23t128 67zM804 2q-21 0 -40 15v-15
q0 -169 -65 -311q-69 -149 -174 -224q-24 -6 -56 -8q-16 -1 -33 -1q-71 0 -174 13q-170 19 -170 57q0 31 73 61q170 72 248 116q119 68 192 136.5t73 122.5v1q0 92 -243 265l135 209q8 9 24 21q7 0 25 -21q136 -163 213 -163h29q81 0 112 48q17 17 35 88q14 49 34 49
q24 0 39 -44q24 -69 24 -83q22 -42 65 -42q116 156 293 278q191 134 351 136q72 0 131 -58t59 -134q0 -112 -92 -238q-81 -108 -186 -176q-158 -98 -355 -98q-242 0 -329 91q-57 -91 -152 -91h-86z" />
    <glyph glyph-name="uniFD17" unicode="&#xfeb4;&#xfef0;" horiz-adv-x="2329" arabic-form="final" 
d="M1475 276q58 0 74 45q4 6 21 86q8 39 38 42q28 0 37 -44q6 -31 20 -84q17 -45 67 -45q63 0 92 45q4 18 22 86q6 42 36 42q25 0 39 -42q14 -78 20 -86q26 -45 80 -45q55 0 77 45q2 13 18 86q10 42 41 42q20 0 34 -42q13 -64 23 -84q22 -47 79 -47h64v-274h-48
q-71 0 -120 93q-52 -97 -132 -97q-90 0 -150 95q-57 -91 -135 -91q-85 0 -146 88q-14 -23 -53 -53q-47 -35 -93 -35h-394q-186 0 -186 -49q0 -41 186 -41h196q145 0 145 -121q0 -216 -283 -297q-163 -45 -457 -45q-206 0 -338 65q-189 89 -189 286q0 78 27 185
q29 113 68 171q23 37 49 37q25 0 25 -32q0 -8 -3 -31q-36 -77 -36 -162v-3q0 -137 162 -221q147 -75 388 -77h11q269 0 413 46q48 16 48 31q0 20 -63 20h-251q-218 0 -219 124v2q0 47 41 114q169 272 578 272h77z" />
    <glyph glyph-name="uniFD18" unicode="&#xfeb4;&#xfef2;" horiz-adv-x="2329" arabic-form="final" 
d="M989 -760q6 -7 6 -10q0 -5 -6 -13l-107 -104q-6 -7 -11 -7t-9 7l-102 102l-102 -102q-4 -6 -9 -6q-6 0 -13 6l-104 102q-8 6 -8 14q0 7 9 16l95 98q8 7 14 7t14 -7l101 -98l96 98q9 7 14 7t14 -7zM1475 276q58 0 74 45q4 6 21 86q8 39 38 42q28 0 37 -44q6 -31 20 -84
q17 -45 67 -45q63 0 92 45q4 18 22 86q6 42 36 42q25 0 39 -42q14 -78 20 -86q26 -45 80 -45q55 0 77 45q2 13 18 86q10 42 41 42q20 0 34 -42q13 -64 23 -84q22 -47 79 -47h64v-274h-48q-71 0 -120 93q-52 -97 -132 -97q-90 0 -150 95q-57 -91 -135 -91q-85 0 -146 88
q-14 -23 -53 -53q-47 -35 -93 -35h-394q-186 0 -186 -49q0 -41 186 -41h196q145 0 145 -121q0 -216 -283 -297q-163 -45 -457 -45q-206 0 -338 65q-189 89 -189 286q0 78 27 185q29 113 68 171q23 37 49 37q25 0 25 -32q0 -8 -3 -31q-36 -77 -36 -162v-3q0 -137 162 -221
q147 -75 388 -77h11q269 0 413 46q48 16 48 31q0 20 -63 20h-251q-218 0 -219 124v2q0 47 41 114q169 272 578 272h77z" />
    <glyph glyph-name="uniFD19" unicode="&#xfeb8;&#xfef0;" horiz-adv-x="2329" arabic-form="final" 
d="M2039 1061q5 -5 5 -9q0 -5 -5 -9l-104 -105q-7 -3 -12 -3q-6 0 -14 3l-103 103q-8 4 -8 9q0 6 11 15l97 98q6 6 12 6q7 0 15 -6zM1475 276q58 0 74 45q4 6 21 86q8 39 38 42q28 0 37 -44q6 -31 20 -84q17 -45 67 -45q63 0 92 45q4 18 22 86q6 42 36 42q25 0 39 -42
q14 -78 20 -86q26 -45 80 -45q55 0 77 45q2 13 18 86q10 42 41 42q20 0 34 -42q13 -64 23 -84q22 -47 79 -47h64v-274h-48q-71 0 -120 93q-52 -97 -132 -97q-90 0 -150 95q-57 -91 -135 -91q-85 0 -146 88q-14 -23 -53 -53q-47 -35 -93 -35h-394q-186 0 -186 -49
q0 -41 186 -41h196q145 0 145 -121q0 -216 -283 -297q-163 -45 -457 -45q-206 0 -338 65q-189 89 -189 286q0 78 27 185q29 113 68 171q23 37 49 37q25 0 25 -32q0 -8 -3 -31q-36 -77 -36 -162v-3q0 -137 162 -221q147 -75 388 -77h11q269 0 413 46q48 16 48 31q0 20 -63 20
h-251q-218 0 -219 124v2q0 47 41 114q169 272 578 272h77zM2149 855q5 -5 5 -9q0 -6 -7 -11l-108 -107q0 -4 -8 -4q-4 0 -12 4l-102 105l-101 -105q-3 -4 -10 -4t-12 4l-109 105q-3 4 -3 9q0 8 9 18l98 98q5 7 12 7q5 0 13 -7l101 -98l98 98q6 7 14 7q4 0 12 -7z" />
    <glyph glyph-name="uniFD1A" unicode="&#xfeb8;&#xfef2;" horiz-adv-x="2329" arabic-form="final" 
d="M989 -760q6 -7 6 -10q0 -5 -6 -13l-107 -104q-6 -7 -11 -7t-9 7l-102 102l-102 -102q-4 -6 -9 -6q-6 0 -13 6l-104 102q-8 6 -8 14q0 7 9 16l95 98q8 7 14 7t14 -7l101 -98l96 98q9 7 14 7t14 -7zM2039 1061q5 -5 5 -9q0 -5 -5 -9l-104 -105q-7 -3 -12 -3q-6 0 -14 3
l-103 103q-8 4 -8 9q0 6 11 15l97 98q6 6 12 6q7 0 15 -6zM1475 276q58 0 74 45q4 6 21 86q8 39 38 42q28 0 37 -44q6 -31 20 -84q17 -45 67 -45q63 0 92 45q4 18 22 86q6 42 36 42q25 0 39 -42q14 -78 20 -86q26 -45 80 -45q55 0 77 45q2 13 18 86q10 42 41 42q20 0 34 -42
q13 -64 23 -84q22 -47 79 -47h64v-274h-48q-71 0 -120 93q-52 -97 -132 -97q-90 0 -150 95q-57 -91 -135 -91q-85 0 -146 88q-14 -23 -53 -53q-47 -35 -93 -35h-394q-186 0 -186 -49q0 -41 186 -41h196q145 0 145 -121q0 -216 -283 -297q-163 -45 -457 -45q-206 0 -338 65
q-189 89 -189 286q0 78 27 185q29 113 68 171q23 37 49 37q25 0 25 -32q0 -8 -3 -31q-36 -77 -36 -162v-3q0 -137 162 -221q147 -75 388 -77h11q269 0 413 46q48 16 48 31q0 20 -63 20h-251q-218 0 -219 124v2q0 47 41 114q169 272 578 272h77zM2149 855q5 -5 5 -9
q0 -6 -7 -11l-108 -107q0 -4 -8 -4q-4 0 -12 4l-102 105l-101 -105q-3 -4 -10 -4t-12 4l-109 105q-3 4 -3 9q0 8 9 18l98 98q5 7 12 7q5 0 13 -7l101 -98l98 98q6 7 14 7q4 0 12 -7z" />
    <glyph glyph-name="uniFD21" unicode="&#xfebc;&#xfef0;" horiz-adv-x="2664" arabic-form="final" 
d="M2447 356q0 39 -60 81.5t-146 44.5h-6q-90 0 -186 -61q-86 -57 -151 -143q75 -12 169 -12q126 0 252 23t128 67zM1086 2q-186 0 -186 -49q0 -41 186 -41h196q145 0 145 -121q0 -216 -283 -297q-163 -45 -457 -45q-206 0 -338 65q-189 89 -189 286q0 78 27 185
q29 113 68 171q23 37 49 37q25 0 25 -32q0 -8 -3 -31q-36 -77 -36 -162v-3q0 -137 162 -221q147 -75 388 -77h11q269 0 413 46q48 16 48 31q0 20 -63 20h-251q-218 0 -219 124v2q0 47 41 114q169 272 578 272h73q81 0 112 48q17 17 36 88q13 49 33 49q24 0 39 -44
q24 -69 24 -83q22 -42 65 -42q120 153 290 273q198 141 354 141q72 0 131 -58t59 -134q0 -103 -71 -209q24 -29 73 -29h76v-274h-78q-76 0 -134.5 38t-83.5 102q-187 -140 -415 -140q-242 0 -329 91q-57 -91 -152 -91h-414z" />
    <glyph glyph-name="uniFD22" unicode="&#xfebc;&#xfef2;" horiz-adv-x="2664" arabic-form="final" 
d="M989 -760q6 -7 6 -10q0 -5 -6 -13l-107 -104q-6 -7 -11 -7t-9 7l-102 102l-102 -102q-4 -6 -9 -6q-6 0 -13 6l-104 102q-8 6 -8 14q0 7 9 16l95 98q8 7 14 7t14 -7l101 -98l96 98q9 7 14 7t14 -7zM2447 356q0 39 -60 81.5t-146 44.5h-6q-90 0 -186 -61q-86 -57 -151 -143
q75 -12 169 -12q126 0 252 23t128 67zM1086 2q-186 0 -186 -49q0 -41 186 -41h196q145 0 145 -121q0 -216 -283 -297q-163 -45 -457 -45q-206 0 -338 65q-189 89 -189 286q0 78 27 185q29 113 68 171q23 37 49 37q25 0 25 -32q0 -8 -3 -31q-36 -77 -36 -162v-3
q0 -137 162 -221q147 -75 388 -77h11q269 0 413 46q48 16 48 31q0 20 -63 20h-251q-218 0 -219 124v2q0 47 41 114q169 272 578 272h73q81 0 112 48q17 17 36 88q13 49 33 49q24 0 39 -44q24 -69 24 -83q22 -42 65 -42q120 153 290 273q198 141 354 141q72 0 131 -58
t59 -134q0 -103 -71 -209q24 -29 73 -29h76v-274h-78q-76 0 -134.5 38t-83.5 102q-187 -140 -415 -140q-242 0 -329 91q-57 -91 -152 -91h-414z" />
    <glyph glyph-name="uniFD23" unicode="&#xfec0;&#xfef0;" horiz-adv-x="2664" arabic-form="final" 
d="M2447 356q0 39 -60 81.5t-146 44.5h-6q-90 0 -186 -61q-86 -57 -151 -143q75 -12 169 -12q126 0 252 23t128 67zM1086 2q-186 0 -186 -49q0 -41 186 -41h196q145 0 145 -121q0 -216 -283 -297q-163 -45 -457 -45q-206 0 -338 65q-189 89 -189 286q0 78 27 185
q29 113 68 171q23 37 49 37q25 0 25 -32q0 -8 -3 -31q-36 -77 -36 -162v-3q0 -137 162 -221q147 -75 388 -77h11q269 0 413 46q48 16 48 31q0 20 -63 20h-251q-218 0 -219 124v2q0 47 41 114q169 272 578 272h73q81 0 112 48q17 17 36 88q13 49 33 49q24 0 39 -44
q24 -69 24 -83q22 -42 65 -42q120 153 290 273q198 141 354 141q72 0 131 -58t59 -134q0 -103 -71 -209q24 -29 73 -29h76v-274h-78q-76 0 -134.5 38t-83.5 102q-187 -140 -415 -140q-242 0 -329 91q-57 -91 -152 -91h-414zM2030 968q7 -5 7 -10q0 -6 -8 -13l-112 -112
q-5 -7 -11 -7q-8 0 -14 7l-112 110q-7 7 -7 13q0 8 9 16l104 107q6 6 14 6q7 0 16 -6z" />
    <glyph glyph-name="uniFD24" unicode="&#xfec0;&#xfef2;" horiz-adv-x="2664" arabic-form="final" 
d="M989 -760q6 -7 6 -10q0 -5 -6 -13l-107 -104q-6 -7 -11 -7t-9 7l-102 102l-102 -102q-4 -6 -9 -6q-6 0 -13 6l-104 102q-8 6 -8 14q0 7 9 16l95 98q8 7 14 7t14 -7l101 -98l96 98q9 7 14 7t14 -7zM2447 356q0 39 -60 81.5t-146 44.5h-6q-90 0 -186 -61q-86 -57 -151 -143
q75 -12 169 -12q126 0 252 23t128 67zM1086 2q-186 0 -186 -49q0 -41 186 -41h196q145 0 145 -121q0 -216 -283 -297q-163 -45 -457 -45q-206 0 -338 65q-189 89 -189 286q0 78 27 185q29 113 68 171q23 37 49 37q25 0 25 -32q0 -8 -3 -31q-36 -77 -36 -162v-3
q0 -137 162 -221q147 -75 388 -77h11q269 0 413 46q48 16 48 31q0 20 -63 20h-251q-218 0 -219 124v2q0 47 41 114q169 272 578 272h73q81 0 112 48q17 17 36 88q13 49 33 49q24 0 39 -44q24 -69 24 -83q22 -42 65 -42q120 153 290 273q198 141 354 141q72 0 131 -58
t59 -134q0 -103 -71 -209q24 -29 73 -29h76v-274h-78q-76 0 -134.5 38t-83.5 102q-187 -140 -415 -140q-242 0 -329 91q-57 -91 -152 -91h-414zM2030 968q7 -5 7 -10q0 -6 -8 -13l-112 -112q-5 -7 -11 -7q-8 0 -14 7l-112 110q-7 7 -7 13q0 8 9 16l104 107q6 6 14 6
q7 0 16 -6z" />
    <glyph glyph-name="uniFD29" unicode="&#xfeb8;&#xfeae;" horiz-adv-x="1720" arabic-form="final" 
d="M1419 1061q5 -5 5 -9q0 -5 -5 -9l-103 -105q-7 -3 -12 -3q-6 0 -14 3l-103 103q-8 4 -8 9q0 6 11 15l96 98q6 6 13 6t15 -6zM1530 855q5 -5 5 -9q0 -6 -7 -11l-108 -107q-1 -4 -8 -4q-4 0 -12 4l-102 105l-101 -105q-4 -4 -10 -4q-7 0 -12 4l-109 105q-3 5 -3 10
q0 8 8 17l99 98q5 7 12 7q5 0 13 -7l100 -98l99 98q6 7 14 7q4 0 12 -7zM855 276q59 0 75 45q4 6 21 86q8 39 37 42q29 0 38 -44q6 -31 20 -84q17 -45 67 -45q63 0 92 45q4 18 22 86q6 42 36 42q25 0 39 -42q14 -78 20 -86q25 -45 80 -45t77 45q2 13 18 86q10 42 41 42
q20 0 34 -42q13 -64 23 -84q22 -47 79 -47h74v-274h-58q-71 0 -120 93q-52 -97 -132 -97q-91 0 -150 95q-57 -91 -136 -91q-84 0 -145 88q-14 -23 -53 -53q-48 -35 -93 -35h-57q-21 0 -40 15v-15q0 -169 -65 -311q-69 -149 -174 -224q-24 -6 -56 -8q-16 -1 -33 -1
q-71 0 -174 13q-170 19 -170 57q0 31 73 61q170 72 248 116q119 68 192 136.5t73 122.5v1q0 92 -243 265l135 209q8 9 24 21q7 0 25 -21q136 -163 213 -163h23z" />
    <glyph glyph-name="uniFD2A" unicode="&#xfeb4;&#xfeae;" horiz-adv-x="1720" arabic-form="final" 
d="M855 276q59 0 75 45q4 6 21 86q8 39 37 42q29 0 38 -44q6 -31 20 -84q17 -45 67 -45q63 0 92 45q4 18 22 86q6 42 36 42q25 0 39 -42q14 -78 20 -86q25 -45 80 -45t77 45q2 13 18 86q10 42 41 42q20 0 34 -42q13 -64 23 -84q22 -47 79 -47h74v-274h-58q-71 0 -120 93
q-52 -97 -132 -97q-91 0 -150 95q-57 -91 -136 -91q-84 0 -145 88q-14 -23 -53 -53q-48 -35 -93 -35h-57q-21 0 -40 15v-15q0 -169 -65 -311q-69 -149 -174 -224q-24 -6 -56 -8q-16 -1 -33 -1q-71 0 -174 13q-170 19 -170 57q0 31 73 61q170 72 248 116q119 68 192 136.5
t73 122.5v1q0 92 -243 265l135 209q8 9 24 21q7 0 25 -21q136 -163 213 -163h23z" />
    <glyph glyph-name="uniFD2B" unicode="&#xfebc;&#xfeae;" horiz-adv-x="2054" arabic-form="final" 
d="M1837 356q0 39 -60 81.5t-146 44.5h-6q-90 0 -186 -61q-86 -57 -151 -143q75 -12 169 -12q126 0 252 23t128 67zM804 2q-21 0 -40 15v-15q0 -169 -65 -311q-69 -149 -174 -224q-24 -6 -56 -8q-16 -1 -33 -1q-71 0 -174 13q-170 19 -170 57q0 31 73 61q170 72 248 116
q119 68 192 136.5t73 122.5v1q0 92 -243 265l135 209q8 9 24 21q7 0 25 -21q136 -163 213 -163h29q81 0 112 48q17 17 35 88q14 49 34 49q24 0 39 -44q24 -69 24 -83q22 -42 65 -42q120 153 289 273q199 141 355 141q72 0 131 -58t59 -134q0 -103 -71 -209q24 -29 73 -29h76
v-274h-78q-76 0 -134.5 38t-83.5 102q-187 -140 -415 -140q-242 0 -329 91q-57 -91 -152 -91h-86z" />
    <glyph glyph-name="uniFD2C" unicode="&#xfec0;&#xfeae;" horiz-adv-x="2054" arabic-form="final" 
d="M1837 356q0 39 -60 81.5t-146 44.5h-6q-90 0 -186 -61q-86 -57 -151 -143q75 -12 169 -12q126 0 252 23t128 67zM804 2q-21 0 -40 15v-15q0 -169 -65 -311q-69 -149 -174 -224q-24 -6 -56 -8q-16 -1 -33 -1q-71 0 -174 13q-170 19 -170 57q0 31 73 61q170 72 248 116
q119 68 192 136.5t73 122.5v1q0 92 -243 265l135 209q8 9 24 21q7 0 25 -21q136 -163 213 -163h29q81 0 112 48q17 17 35 88q14 49 34 49q24 0 39 -44q24 -69 24 -83q22 -42 65 -42q120 153 289 273q199 141 355 141q72 0 131 -58t59 -134q0 -103 -71 -209q24 -29 73 -29h76
v-274h-78q-76 0 -134.5 38t-83.5 102q-187 -140 -415 -140q-242 0 -329 91q-57 -91 -152 -91h-86zM1420 968q7 -5 7 -10q0 -6 -8 -13l-112 -112q-5 -7 -12 -7t-13 7l-112 110q-7 7 -7 13q0 8 9 16l104 107q6 6 13 6q8 0 16 -6z" />
    <glyph glyph-name="uniFEF5" unicode="&#xfedf;&#xfe82;" horiz-adv-x="994" arabic-form="isolated" 
d="M1028 974q10 -12 16 -27q0 -16 -89 -26q2 -8 3 -26t1 -27q0 -193 -110 -361q-40 -59 -91 -105q45 -61 45 -168q0 -149 -131 -212q-99 -46 -329 -46q-67 0 -69 41q-1 2 -1 5q0 6 3 17q2 7 74 221q49 8 144 56t129 83q-66 98 -168 215q-114 132 -163 175q-39 -68 -57 -68
h-1q-25 0 -143 195q28 90 65 166q35 66 49 66t40 -25q332 -319 471 -621q34 45 51 114q19 77 19 139v17q-7 108 -58 232l93 136q20 31 36 33q13 0 35 -28zM707 246q0 27 -40 81q-34 -25 -226 -130q14 -4 60 -4q74 0 135 14q69 15 71 39zM677 1332q-56 -60 -186 -106
q-117 -41 -225 -41q-91 0 -138 9q-58 12 -68 12q-22 0 -43.5 -19.5t-41.5 -19.5q-18 0 -22 20q0 26 36 102q31 51 55 64.5t75 13.5q23 0 92 -13q78 -19 128 -19h19q70 0 166 12q51 7 136 19q7 1 14 1q17 0 17 -9q0 -11 -14 -26z" />
    <glyph glyph-name="uniFEF6" unicode="&#xfee0;&#xfe82;" horiz-adv-x="1128" arabic-form="final" 
d="M1156 2h-77q-117 0 -158 136q-25 91 -25 262v49l2 104q1 20 1 38q0 36 -3 67q-81 -231 -129 -346q-92 -222 -151 -275q-47 -42 -200 -57q-78 -9 -151 -11h-7q-110 0 -112 33v1q0 25 65 53q42 19 200 103q195 104 202 162v5q0 34 -32 107q-43 93 -148 187
q-116 101 -314 213q-18 7 -18 32v5q6 67 21 214q2 32 14 32t30 -14q110 -77 277 -120q49 -14 49 -31q0 -22 -84 -61q98 -79 181 -230q78 -143 93 -284q167 250 220 756q8 57 45 57q30 0 34 -54l22 -588q5 -161 22 -199q29 -72 105 -72h26v-274zM677 1313q-56 -59 -186 -105
q-117 -41 -225 -41q-91 0 -138 8q-58 12 -68 12q-22 0 -43.5 -19.5t-41.5 -19.5q-18 0 -22 21q0 25 36 102q31 50 55 63.5t75 13.5q23 0 92 -13q78 -19 128 -19h11q72 0 174 12q51 7 136 19q7 1 14 1q17 0 17 -8q0 -12 -14 -27z" />
    <glyph glyph-name="uniFEF7" unicode="&#xfedf;&#xfe84;" horiz-adv-x="994" arabic-form="isolated" 
d="M1026 974q10 -12 16 -27q0 -16 -88 -26q1 -8 2 -26t1 -27q0 -193 -110 -361q-39 -59 -90 -105q44 -61 44 -168q0 -149 -131 -212q-98 -46 -329 -46q-67 0 -69 41q-1 1 -1 4q0 6 4 18q2 7 74 221q49 8 143.5 56t128.5 83q-66 98 -168 215q-113 132 -163 175
q-39 -68 -57 -68h-1q-25 0 -143 195q28 90 66 166q34 66 49 66q13 0 39 -25q332 -319 472 -621q34 45 51 114q19 74 19 135q0 11 -1 21q-6 108 -57 232l93 136q20 31 35 33q14 0 36 -28zM706 246q0 27 -40 81q-35 -25 -226 -130q13 -4 59 -4q75 0 136 14q68 15 71 39z
M475 1388l-41 -67q-183 -59 -291 -144q-10 24 -10 46q0 11 2 13q21 22 91 71q-76 41 -76 92t57.5 108t110.5 58h5q48 0 81 -40q18 -27 18 -35q0 -10 -26 -14l-24 2l-46 2q-88 0 -97 -37q0 -8 25.5 -31.5t59.5 -37.5q12 3 56 17t77 24q12 3 20 3q14 0 14 -9q0 -6 -6 -21z" />
    <glyph glyph-name="uniFEF8" unicode="&#xfee0;&#xfe84;" horiz-adv-x="1126" arabic-form="final" 
d="M1154 2h-77q-116 0 -157 136q-26 93 -26 273v38l2 104q1 20 1 38q0 36 -3 67q-81 -231 -128 -346q-92 -222 -152 -275q-47 -42 -200 -57q-77 -9 -151 -11h-7q-110 0 -112 33v1q0 24 65 53q42 19 200 103q195 104 202 162v5q0 34 -32 107q-43 93 -148 187
q-115 101 -314 213q-18 7 -18 32v5q6 67 22 214q2 32 13 32q12 0 30 -14q110 -77 277 -120q50 -14 50 -31q0 -22 -85 -61q98 -79 181 -230q78 -143 93 -284q167 250 221 756q7 57 44 57q30 0 34 -54l22 -588q5 -161 23 -199q28 -72 104 -72h26v-274zM475 1388l-41 -67
q-183 -59 -291 -144q-10 24 -10 46q0 11 1 13q22 22 91 71q-75 41 -75 92t57.5 108t109.5 58h5q48 0 82 -40q17 -27 17 -35q0 -10 -25 -14l-24 2l-46 2q-88 0 -97 -37q0 -8 33 -34q18 -21 52 -35q12 3 56 17t77 24q12 3 20 3q14 0 14 -9q0 -6 -6 -21z" />
    <glyph glyph-name="uniFEF9" unicode="&#xfedf;&#xfe88;" horiz-adv-x="994" arabic-form="isolated" 
d="M1026 974q10 -12 16 -27q0 -16 -88 -26q1 -8 2 -26t1 -27q0 -193 -110 -361q-39 -59 -90 -105q44 -61 44 -168q0 -149 -131 -212q-98 -46 -329 -46q-67 0 -69 41q-1 1 -1 4q0 6 4 18q2 7 74 221q49 8 143.5 56t128.5 83q-66 98 -168 215q-113 132 -163 175
q-39 -68 -57 -68h-1q-25 0 -143 195q28 90 66 166q34 66 49 66q13 0 39 -25q332 -319 472 -621q34 45 51 114q19 74 19 135q0 11 -1 21q-6 108 -57 232l93 136q20 31 35 33q14 0 36 -28zM706 246q0 27 -40 81q-35 -25 -226 -130q13 -4 59 -4q75 0 136 14q68 15 71 39z
M554 -271l-40 -67q-184 -59 -293 -144q-10 24 -10 47q0 10 3 12q23 23 90 72q-77 40 -77 91q0 53 58 109t111 58h2q51 0 85 -41q16 -27 16 -35q0 -10 -24 -14q-2 0 -25 2l-46 3q-88 0 -95 -37q0 -9 31 -35q19 -20 52 -35q14 3 57.5 17t74.5 24q14 3 21 3q13 0 13 -9
q0 -6 -4 -21z" />
    <glyph glyph-name="uniFEFA" unicode="&#xfee0;&#xfe88;" horiz-adv-x="1126" arabic-form="final" 
d="M1154 2h-77q-116 0 -157 136q-26 93 -26 273v38l2 104q1 20 1 38q0 36 -3 67q-81 -231 -128 -346q-92 -222 -152 -275q-47 -42 -200 -57q-77 -9 -151 -11h-7q-110 0 -112 33v1q0 24 65 53q42 19 200 103q195 104 202 162v5q0 34 -32 107q-43 93 -148 187
q-115 101 -314 213q-18 7 -18 32v5q6 67 22 214q2 32 13 32q12 0 30 -14q110 -77 277 -120q50 -14 50 -31q0 -22 -85 -61q98 -79 181 -230q78 -143 93 -284q167 250 221 756q7 57 44 57q30 0 34 -54l22 -588q5 -161 23 -199q28 -72 104 -72h26v-274zM553 -271l-39 -67
q-185 -59 -293 -144q-10 24 -10 47q0 10 3 12q22 23 90 72q-77 40 -77 91q0 53 58 109t111 58h2q51 0 84 -41q17 -27 17 -35q0 -10 -24 -14q-2 0 -25 2l-46 3q-88 0 -95 -37q0 -9 30 -35q19 -20 53 -35q14 3 57 17t75 24q14 3 21 3q13 0 13 -9q0 -6 -5 -21z" />
    <glyph glyph-name="uniFEFB" unicode="&#xfedf;&#xfe8e;" horiz-adv-x="994" arabic-form="isolated" 
d="M1026 974q10 -12 16 -27q0 -16 -88 -26q1 -8 2 -26t1 -27q0 -193 -110 -361q-39 -59 -90 -105q44 -61 44 -168q0 -149 -131 -212q-98 -46 -329 -46q-67 0 -69 41q-1 1 -1 4q0 6 4 18q2 7 74 221q49 8 143.5 56t128.5 83q-66 98 -168 215q-113 132 -163 175
q-39 -68 -57 -68h-1q-25 0 -143 195q28 90 66 166q34 66 49 66q13 0 39 -25q332 -319 472 -621q34 45 51 114q19 74 19 135q0 11 -1 21q-6 108 -57 232l93 136q20 31 35 33q14 0 36 -28zM706 246q0 27 -40 81q-35 -25 -226 -130q13 -4 59 -4q75 0 136 14q68 15 71 39z" />
    <glyph glyph-name="uniFEFC" unicode="&#xfee0;&#xfe8e;" horiz-adv-x="1126" arabic-form="final" 
d="M1154 2h-77q-116 0 -157 136q-26 93 -26 273v38l2 104q1 20 1 38q0 36 -3 67q-81 -231 -128 -346q-92 -222 -152 -275q-47 -42 -200 -57q-77 -9 -151 -11h-7q-110 0 -112 33v1q0 24 65 53q42 19 200 103q195 104 202 162v5q0 34 -32 107q-43 93 -148 187
q-115 101 -314 213q-18 7 -18 32v5q6 67 22 214q2 32 13 32q12 0 30 -14q110 -77 277 -120q50 -14 50 -31q0 -22 -85 -61q98 -79 181 -230q78 -143 93 -284q167 250 221 756q7 57 44 57q30 0 34 -54l22 -588q5 -161 23 -199q28 -72 104 -72h26v-274z" />
    <glyph glyph-name="uniFE8B_uniFEE4.liga" unicode="&#xfe8b;&#xfee4;" horiz-adv-x="1236" 
d="M1230 976l-39 -69q-185 -61 -293 -142q-11 30 -11 42q0 14 5 16q17 20 88 73q-78 41 -78 90q0 45 62 105.5t109 61.5h5q51 0 80 -42q17 -25 17 -34q0 -16 -21 -16q-10 0 -75 8q-34 0 -70 -12q-20 -16 -22 -28q0 -6 29.5 -33.5t54.5 -33.5q36 10 132 40q6 0 18 4
q15 0 15 -12q0 -10 -6 -18zM553 189q38 0 38 55q0 67 -46 163q-63 129 -148 129q-53 0 -55 -75v-6q0 -63 42 -134q80 -132 169 -132zM844 2q-65 0 -112 39q-20 16 -69 87q-67 -159 -177 -160h-3q-128 0 -255 197q-67 -163 -189 -163h-67v274h71q78 0 107 51q11 23 11 85
q0 121 66 196t184 77q97 0 177 -105q86 -156 103 -181q83 -123 147 -123h81q178 0 178 53q0 45 -161 192l131 201q6 6 15 6q5 0 11 -2q74 -63 110 -178q25 -76 25 -156q0 -142 -64 -251q-81 -139 -233 -139h-87z" />
    <glyph glyph-name="uniFE8B_uniFEF0.liga" unicode="&#xfe8b;&#xfef0;" horiz-adv-x="1794" 
d="M1788 976l-39 -69q-185 -61 -294 -142q-10 30 -10 42q0 14 5 16q17 20 88 73q-78 41 -78 90q0 45 62 105.5t109 61.5h5q51 0 80 -42q17 -25 17 -34q0 -16 -22 -16q-9 0 -74 8q-34 0 -70 -12q-20 -16 -22 -28q0 -6 29.5 -33.5t54.5 -33.5q36 10 132 40q6 0 18 4
q15 0 15 -12q0 -10 -6 -18zM1086 2q-186 0 -186 -49q0 -41 186 -41h196q145 0 145 -121q0 -216 -283 -297q-163 -45 -457 -45q-206 0 -338 65q-189 89 -189 286q0 78 27 185q29 113 68 171q23 37 49 37q25 0 25 -32q0 -8 -3 -31q-36 -77 -36 -162v-3q0 -137 162 -221
q147 -75 388 -77h11q269 0 413 46q48 16 48 31q0 20 -63 20h-251q-218 0 -219 124v2q0 47 41 114q169 272 578 272h79q178 0 178 53q0 45 -161 192l131 201q6 6 14 6q5 0 11 -2q75 -63 111 -178q25 -76 25 -156q0 -142 -64 -251q-81 -139 -233 -139h-403z" />
    <glyph glyph-name="uniFE8B_uniFEF2.liga" unicode="&#xfe8b;&#xfef2;" horiz-adv-x="1794" 
d="M989 -760q6 -7 6 -10q0 -5 -6 -13l-107 -104q-6 -7 -11 -7t-9 7l-102 102l-102 -102q-4 -6 -9 -6q-6 0 -13 6l-104 102q-8 6 -8 14q0 7 9 16l95 98q8 7 14 7t14 -7l101 -98l96 98q9 7 14 7t14 -7zM1788 976l-39 -69q-185 -61 -294 -142q-10 30 -10 42q0 14 5 16
q17 20 88 73q-78 41 -78 90q0 45 62 105.5t109 61.5h5q51 0 80 -42q17 -25 17 -34q0 -16 -22 -16q-9 0 -74 8q-34 0 -70 -12q-20 -16 -22 -28q0 -6 29.5 -33.5t54.5 -33.5q36 10 132 40q6 0 18 4q15 0 15 -12q0 -10 -6 -18zM1086 2q-186 0 -186 -49q0 -41 186 -41h196
q145 0 145 -121q0 -216 -283 -297q-163 -45 -457 -45q-206 0 -338 65q-189 89 -189 286q0 78 27 185q29 113 68 171q23 37 49 37q25 0 25 -32q0 -8 -3 -31q-36 -77 -36 -162v-3q0 -137 162 -221q147 -75 388 -77h11q269 0 413 46q48 16 48 31q0 20 -63 20h-251
q-218 0 -219 124v2q0 47 41 114q169 272 578 272h79q178 0 178 53q0 45 -161 192l131 201q6 6 14 6q5 0 11 -2q75 -63 111 -178q25 -76 25 -156q0 -142 -64 -251q-81 -139 -233 -139h-403z" />
    <glyph glyph-name="uniFE91_uniFEE4.liga" unicode="&#xfe91;&#xfee4;" horiz-adv-x="1218" 
d="M1118 -271q4 -5 4 -10q0 -7 -6 -14l-112 -112q-8 -5 -13 -5q-7 0 -13 5l-114 110q-7 5 -7 12q0 9 9 21l106 103q6 8 13 8t15 -8zM543 189q38 0 38 55q0 67 -46 163q-63 129 -148 129q-53 0 -55 -75v-6q0 -63 42 -134q80 -132 169 -132zM834 2q-65 0 -112 39
q-20 16 -69 87q-67 -159 -177 -160h-3q-128 0 -255 197q-67 -163 -189 -163h-57v274h61q78 0 107 51q11 23 11 85q0 121 66 196t184 77q97 0 177 -105q86 -156 103 -181q83 -123 147 -123h82q178 0 178 53q0 45 -158 192l129 201q5 8 12 8q5 0 11 -4q63 -53 103 -151
q33 -90 33 -183q0 -146 -63 -251q-82 -139 -235 -139h-86z" />
    <glyph glyph-name="uniFE92_uniFEE6.liga" unicode="&#xfe92;&#xfee6;" horiz-adv-x="1919" 
d="M806 555q7 -4 7 -9q0 -6 -9 -13l-112 -112q-3 -9 -10 -9q-6 0 -12 9l-115 108q-6 6 -6 13q0 8 9 17l104 106q7 7 14 7q8 0 15 -7zM1779 -271q4 -5 4 -10q0 -7 -6 -14l-112 -112q-6 -6 -12 -6t-13 6l-113 110q-8 6 -8 13q0 9 10 20l104 103q6 8 13 8t14 -8zM1378 2
q-96 0 -127 24q3 -57 3 -82q0 -246 -168 -373q-149 -114 -404 -116h-10q-208 0 -344 85q-168 102 -168 304q0 105 32 207q29 85 59 128q24 36 48 36q22 0 22 -30q0 -12 -7 -34q-34 -100 -34 -173q0 -244 407 -246h16q131 0 258 32q211 57 213 175v1q0 79 -225 318l120 197
q12 25 24 25q10 0 24 -19q43 -50 113 -123q76 -62 153 -62h50q149 0 186 190q12 58 46 58q35 0 41 -58q20 -190 165 -190h76v-274h-76q-153 0 -212 171q-50 -171 -195 -171h-86z" />
    <glyph glyph-name="uniFE91_uniFEF0.liga" unicode="&#xfe91;&#xfef0;" horiz-adv-x="1786" 
d="M1759 -271q4 -5 4 -10q0 -7 -6 -14l-112 -112q-8 -5 -14 -5t-12 5l-114 110q-7 5 -7 12q0 9 9 21l106 103q6 8 13 8t14 -8zM1086 2q-186 0 -186 -49q0 -41 186 -41h196q145 0 145 -121q0 -216 -283 -297q-163 -45 -457 -45q-206 0 -338 65q-189 89 -189 286q0 78 27 185
q29 113 68 171q23 37 49 37q25 0 25 -32q0 -8 -3 -31q-36 -77 -36 -162v-3q0 -137 162 -221q147 -75 388 -77h11q269 0 413 46q48 16 48 31q0 20 -63 20h-251q-218 0 -219 124v2q0 47 41 114q169 272 578 272h80q178 0 178 53q0 45 -158 192l129 201q5 8 12 8q5 0 11 -4
q63 -53 102 -151q34 -90 34 -183q0 -146 -63 -251q-83 -139 -235 -139h-402z" />
    <glyph glyph-name="uniFE91_uniFEF2.liga" unicode="&#xfe91;&#xfef2;" horiz-adv-x="1786" 
d="M989 -760q6 -7 6 -10q0 -5 -6 -13l-107 -104q-6 -7 -11 -7t-9 7l-102 102l-102 -102q-4 -6 -9 -6q-6 0 -13 6l-104 102q-8 6 -8 14q0 7 9 16l95 98q8 7 14 7t14 -7l101 -98l96 98q9 7 14 7t14 -7zM1759 -271q4 -5 4 -10q0 -7 -6 -14l-112 -112q-8 -5 -14 -5t-12 5
l-114 110q-7 5 -7 12q0 9 9 21l106 103q6 8 13 8t14 -8zM1086 2q-186 0 -186 -49q0 -41 186 -41h196q145 0 145 -121q0 -216 -283 -297q-163 -45 -457 -45q-206 0 -338 65q-189 89 -189 286q0 78 27 185q29 113 68 171q23 37 49 37q25 0 25 -32q0 -8 -3 -31
q-36 -77 -36 -162v-3q0 -137 162 -221q147 -75 388 -77h11q269 0 413 46q48 16 48 31q0 20 -63 20h-251q-218 0 -219 124v2q0 47 41 114q169 272 578 272h80q178 0 178 53q0 45 -158 192l129 201q5 8 12 8q5 0 11 -4q63 -53 102 -151q34 -90 34 -183q0 -146 -63 -251
q-83 -139 -235 -139h-402z" />
    <glyph glyph-name="uniFE97_uniFEE4.liga" unicode="&#xfe97;&#xfee4;" horiz-adv-x="1356" 
d="M1330 988q5 -5 5 -11t-5 -12l-103 -105q-7 -6 -13 -6q-7 0 -13 6l-100 104l-100 -104q-5 -5 -12 -5q-5 0 -10 5l-107 105q-6 5 -6 11q0 7 8 16l97 100q6 6 13 6q5 0 12 -6l100 -100l100 100q6 5 13 5q6 0 13 -5zM553 189q38 0 38 55q0 67 -46 163q-63 129 -148 129
q-53 0 -55 -75v-6q0 -63 42 -134q80 -132 169 -132zM844 2q-65 0 -112 39q-20 16 -69 87q-67 -159 -177 -160h-3q-128 0 -255 197q-67 -163 -189 -163h-67v274h71q78 0 107 51q11 23 11 85q0 121 66 196t184 77q97 0 177 -105q86 -156 103 -181q83 -123 147 -123h210
q178 0 178 53q0 45 -158 192l128 201q6 8 13 8q5 0 10 -4q64 -53 103 -151q34 -90 34 -183q0 -146 -63 -251q-83 -139 -235 -139h-214z" />
    <glyph glyph-name="uniFE98_uniFEE6.liga" unicode="&#xfe98;&#xfee6;" horiz-adv-x="2009" 
d="M1885 804q4 -4 4 -9t-5 -10l-108 -106q-3 -7 -8 -7t-12 7l-102 101l-101 -101q-4 -4 -10 -4q-7 0 -13 4l-106 104q-6 6 -6 12q0 7 7 14l101 100q4 6 11 6q6 0 16 -6l97 -100l100 100q7 5 13 5t12 -5zM806 555q7 -4 7 -9q0 -6 -9 -13l-112 -112q-3 -9 -10 -9q-6 0 -12 9
l-115 108q-6 6 -6 13q0 8 9 17l104 106q7 7 14 7q8 0 15 -7zM1378 2q-96 0 -127 24q3 -57 3 -82q0 -246 -168 -373q-149 -114 -404 -116h-10q-208 0 -344 85q-168 102 -168 304q0 105 32 207q29 85 59 128q24 36 48 36q22 0 22 -30q0 -12 -7 -34q-34 -100 -34 -173
q0 -244 407 -246h16q131 0 258 32q211 57 213 175v1q0 79 -225 318l120 197q12 25 24 25q10 0 24 -19q43 -50 113 -123q76 -62 153 -62h150q149 0 187 190q12 58 45 58q35 0 41 -58q20 -190 165 -190h66v-274h-66q-153 0 -212 171q-49 -171 -195 -171h-186z" />
    <glyph glyph-name="uniFE97_uniFEF0.liga" unicode="&#xfe97;&#xfef0;" horiz-adv-x="1914" 
d="M1888 988q5 -5 5 -11t-5 -12l-104 -105q-6 -6 -13 -6q-6 0 -12 6l-100 104l-100 -104q-5 -5 -12 -5q-5 0 -10 5l-107 105q-6 5 -6 11q0 7 8 16l96 100q7 6 14 6q5 0 12 -6l100 -100l100 100q6 5 13 5q6 0 13 -5zM1086 2q-186 0 -186 -49q0 -41 186 -41h196
q145 0 145 -121q0 -216 -283 -297q-163 -45 -457 -45q-206 0 -338 65q-189 89 -189 286q0 78 27 185q29 113 68 171q23 37 49 37q25 0 25 -32q0 -8 -3 -31q-36 -77 -36 -162v-3q0 -137 162 -221q147 -75 388 -77h11q269 0 413 46q48 16 48 31q0 20 -63 20h-251
q-218 0 -219 124v2q0 47 41 114q169 272 578 272h208q177 0 177 53q0 45 -157 192l128 201q5 8 12 8q5 0 11 -4q64 -53 103 -151q34 -90 34 -183q0 -146 -63 -251q-83 -139 -235 -139h-530z" />
    <glyph glyph-name="uniFE97_uniFEF2.liga" unicode="&#xfe97;&#xfef2;" horiz-adv-x="1914" 
d="M989 -760q6 -7 6 -10q0 -5 -6 -13l-107 -104q-6 -7 -11 -7t-9 7l-102 102l-102 -102q-4 -6 -9 -6q-6 0 -13 6l-104 102q-8 6 -8 14q0 7 9 16l95 98q8 7 14 7t14 -7l101 -98l96 98q9 7 14 7t14 -7zM1881 988q5 -5 5 -11t-5 -12l-104 -105q-6 -6 -13 -6q-6 0 -12 6
l-100 104l-100 -104q-5 -5 -12 -5q-5 0 -10 5l-107 105q-6 5 -6 11q0 7 8 16l96 100q7 6 14 6q5 0 12 -6l100 -100l100 100q6 5 13 5q6 0 13 -5zM1086 2q-186 0 -186 -49q0 -41 186 -41h196q145 0 145 -121q0 -216 -283 -297q-163 -45 -457 -45q-206 0 -338 65
q-189 89 -189 286q0 78 27 185q29 113 68 171q23 37 49 37q25 0 25 -32q0 -8 -3 -31q-36 -77 -36 -162v-3q0 -137 162 -221q147 -75 388 -77h11q269 0 413 46q48 16 48 31q0 20 -63 20h-251q-218 0 -219 124v2q0 47 41 114q169 272 578 272h208q177 0 177 53q0 45 -157 192
l128 201q5 8 12 8q5 0 11 -4q64 -53 103 -151q34 -90 34 -183q0 -146 -63 -251q-83 -139 -235 -139h-530z" />
    <glyph glyph-name="uniFE9C_uniFEAE.liga" unicode="&#xfe9c;&#xfeae;" horiz-adv-x="1444" 
d="M1200 1025q3 -6 3 -11t-3 -12l-106 -101q-2 -7 -8 -7t-12 7l-105 99q-5 6 -5 13t6 15l98 96q4 8 12 8t12 -8zM1310 817q3 -4 3 -10q0 -4 -3 -12l-107 -104q-3 -6 -10 -6t-10 6l-103 100l-101 -100q-4 -6 -10 -6q-5 0 -12 6l-107 103q-5 5 -5 12t5 15l100 98q7 8 12 8
q7 0 16 -8l96 -98l100 98q7 7 14 7t14 -7zM804 2q-21 0 -40 15v-15q0 -169 -65 -311q-69 -149 -174 -224q-24 -6 -56 -8q-16 -1 -33 -1q-71 0 -174 13q-170 19 -170 57q0 31 73 61q170 72 248 116q119 68 192 136.5t73 122.5v1q0 92 -243 265l135 209q8 9 24 21q7 0 25 -21
q136 -163 213 -163h136q150 0 187 190q12 58 46 58t41 -58q20 -190 165 -190h65v-274h-65q-153 0 -213 171q-49 -171 -195 -171h-195z" />
    <glyph glyph-name="uniFE9B_uniFEE4.liga" unicode="&#xfe9b;&#xfee4;" horiz-adv-x="1374" 
d="M1232 1150q5 -4 5 -9q0 -6 -5 -13l-106 -105q-2 -2 -8 -2q-5 0 -12 2l-105 103q-6 6 -6 12q0 7 7 15l98 99q4 6 13 6q7 0 11 -6zM1342 943q5 -4 5 -9q0 -6 -5 -13l-107 -107q-3 -3 -10 -3t-10 3l-102 103l-101 -103q-5 -5 -11 -5q-5 0 -12 5l-107 105q-7 5 -7 12t7 16
l100 100q7 6 12 6q7 0 16 -6l96 -100l100 100q7 6 14 6t14 -6zM553 189q38 0 38 55q0 67 -46 163q-63 129 -148 129q-53 0 -55 -75v-6q0 -63 42 -134q80 -132 169 -132zM844 2q-65 0 -112 39q-20 16 -69 87q-67 -159 -177 -160h-3q-128 0 -255 197q-67 -163 -189 -163h-67
v274h71q78 0 107 51q11 23 11 85q0 121 66 196t184 77q97 0 177 -105q86 -156 103 -181q83 -123 147 -123h228q178 0 178 53q0 45 -158 192l129 201q5 8 12 8q5 0 10 -4q64 -53 103 -151q34 -90 34 -183q0 -146 -63 -251q-83 -139 -235 -139h-232z" />
    <glyph glyph-name="uniFE9C_uniFEE6.liga" unicode="&#xfe9c;&#xfee6;" horiz-adv-x="2018" 
d="M1773 1025q3 -6 3 -11t-3 -12l-105 -101q-2 -7 -8 -7t-12 7l-105 99q-5 6 -5 13t6 15l97 96q5 8 13 8q7 0 12 -8zM1884 817q2 -4 2 -10q0 -4 -2 -12l-108 -104q-3 -6 -10 -6q-6 0 -10 6l-102 100l-101 -100q-4 -6 -10 -6t-13 6l-106 103q-5 5 -5 12t5 15l100 98q6 8 12 8
q7 0 15 -8l97 -98l100 98q7 7 14 7t13 -7zM806 555q7 -4 7 -9q0 -6 -9 -13l-112 -112q-3 -9 -10 -9q-6 0 -12 9l-115 108q-6 6 -6 13q0 8 9 17l104 106q7 7 14 7q8 0 15 -7zM1378 2q-96 0 -127 24q3 -57 3 -82q0 -246 -168 -373q-149 -114 -404 -116h-10q-208 0 -344 85
q-168 102 -168 304q0 105 32 207q29 85 59 128q24 36 48 36q22 0 22 -30q0 -12 -7 -34q-34 -100 -34 -173q0 -244 407 -246h16q131 0 258 32q211 57 213 175v1q0 79 -225 318l120 197q12 25 24 25q10 0 24 -19q43 -50 113 -123q76 -62 153 -62h159q149 0 187 190
q12 58 45 58q35 0 41 -58q20 -190 165 -190h66v-274h-66q-153 0 -212 171q-49 -171 -195 -171h-195z" />
    <glyph glyph-name="uniFE9B_uniFEF0.liga" unicode="&#xfe9b;&#xfef0;" horiz-adv-x="1941" 
d="M1799 1140q5 -4 5 -9q0 -6 -5 -13l-106 -105q-2 -2 -8 -2q-5 0 -12 2l-105 103q-6 6 -6 12q0 7 7 15l98 99q4 6 13 6q7 0 11 -6zM1909 933q5 -4 5 -9q0 -6 -5 -13l-107 -107q-3 -3 -10 -3t-10 3l-102 103l-101 -103q-5 -5 -11 -5q-5 0 -12 5l-107 105q-7 5 -7 12t7 16
l100 100q7 6 12 6q7 0 16 -6l96 -100l100 100q7 6 14 6t14 -6zM1086 2q-186 0 -186 -49q0 -41 186 -41h196q145 0 145 -121q0 -216 -283 -297q-163 -45 -457 -45q-206 0 -338 65q-189 89 -189 286q0 78 27 185q29 113 68 171q23 37 49 37q25 0 25 -32q0 -8 -3 -31
q-36 -77 -36 -162v-3q0 -137 162 -221q147 -75 388 -77h11q269 0 413 46q48 16 48 31q0 20 -63 20h-251q-218 0 -219 124v2q0 47 41 114q169 272 578 272h235q178 0 178 53q0 45 -158 192l129 201q5 8 12 8q5 0 10 -4q64 -53 103 -151q34 -90 34 -183q0 -146 -63 -251
q-83 -139 -235 -139h-557z" />
    <glyph glyph-name="uniFE9B_uniFEF2.liga" unicode="&#xfe9b;&#xfef2;" horiz-adv-x="1941" 
d="M989 -760q6 -7 6 -10q0 -5 -6 -13l-107 -104q-6 -7 -11 -7t-9 7l-102 102l-102 -102q-4 -6 -9 -6q-6 0 -13 6l-104 102q-8 6 -8 14q0 7 9 16l95 98q8 7 14 7t14 -7l101 -98l96 98q9 7 14 7t14 -7zM1799 1140q5 -4 5 -9q0 -6 -5 -13l-106 -105q-2 -2 -8 -2q-5 0 -12 2
l-105 103q-6 6 -6 12q0 7 7 15l98 99q4 6 13 6q7 0 11 -6zM1909 933q5 -4 5 -9q0 -6 -5 -13l-107 -107q-3 -3 -10 -3t-10 3l-102 103l-101 -103q-5 -5 -11 -5q-5 0 -12 5l-107 105q-7 5 -7 12t7 16l100 100q7 6 12 6q7 0 16 -6l96 -100l100 100q7 6 14 6t14 -6zM1086 2
q-186 0 -186 -49q0 -41 186 -41h196q145 0 145 -121q0 -216 -283 -297q-163 -45 -457 -45q-206 0 -338 65q-189 89 -189 286q0 78 27 185q29 113 68 171q23 37 49 37q25 0 25 -32q0 -8 -3 -31q-36 -77 -36 -162v-3q0 -137 162 -221q147 -75 388 -77h11q269 0 413 46
q48 16 48 31q0 20 -63 20h-251q-218 0 -219 124v2q0 47 41 114q169 272 578 272h235q178 0 178 53q0 45 -158 192l129 201q5 8 12 8q5 0 10 -4q64 -53 103 -151q34 -90 34 -183q0 -146 -63 -251q-83 -139 -235 -139h-557z" />
    <glyph glyph-name="uniFEDB_uniFEF0.liga" unicode="&#xfedb;&#xfef0;" horiz-adv-x="2241" 
d="M1086 2q-186 0 -186 -49q0 -41 186 -41h196q145 0 145 -121q0 -216 -283 -297q-163 -45 -457 -45q-206 0 -338 65q-189 89 -189 286q0 78 27 185q29 113 68 171q23 37 49 37q25 0 25 -32q0 -8 -3 -31q-36 -77 -36 -162v-3q0 -137 162 -221q147 -75 388 -77h11
q269 0 413 46q48 16 48 31q0 20 -63 20h-251q-218 0 -219 124v2q0 47 41 114q169 272 578 272h171q253 0 253 53q0 37 -343 373q-1 2 -1 7q0 23 32 114q27 79 40 90l659 225q2 1 4 1h2q3 1 6 1q20 0 20 -24v-168l-500 -171q104 -105 158.5 -202t54.5 -197q0 -161 -87 -264
q-91 -112 -248 -112h-533z" />
    <glyph glyph-name="uniFEDC_uniFEF0.liga" unicode="&#xfedc;&#xfef0;" horiz-adv-x="2327" 
d="M1488 2h-402q-186 0 -186 -49q0 -41 186 -41h196q145 0 145 -121q0 -216 -283 -297q-163 -45 -457 -45q-206 0 -338 65q-189 89 -189 286q0 78 27 185q29 113 68 171q23 37 49 37q25 0 25 -32q0 -8 -3 -31q-36 -77 -36 -162v-3q0 -137 162 -221q147 -75 388 -77h11
q269 0 413 46q48 16 48 31q0 20 -63 20h-251q-218 0 -219 124v2q0 47 41 114q169 272 578 272h50q252 0 252 53q0 37 -211 346q-2 2 -2 16q0 41 18.5 126t33.5 96l664 224q4 2 9 2q3 1 5 1q17 0 19 -24v-167l-562 -191q92 -158 136 -225q98 -153 158 -200q70 -57 161 -57
h226v-274h-161q-163 0 -250 53q-75 43 -150 162q-28 -100 -87 -150q-75 -61 -219 -65z" />
    <glyph glyph-name="uniFEDB_uniFEF2.liga" unicode="&#xfedb;&#xfef2;" horiz-adv-x="2241" 
d="M989 -760q6 -7 6 -10q0 -5 -6 -13l-107 -104q-6 -7 -11 -7t-9 7l-102 102l-102 -102q-4 -6 -9 -6q-6 0 -13 6l-104 102q-8 6 -8 14q0 7 9 16l95 98q8 7 14 7t14 -7l101 -98l96 98q9 7 14 7t14 -7zM1086 2q-186 0 -186 -49q0 -41 186 -41h196q145 0 145 -121
q0 -216 -283 -297q-163 -45 -457 -45q-206 0 -338 65q-189 89 -189 286q0 78 27 185q29 113 68 171q23 37 49 37q25 0 25 -32q0 -8 -3 -31q-36 -77 -36 -162v-3q0 -137 162 -221q147 -75 388 -77h11q269 0 413 46q48 16 48 31q0 20 -63 20h-251q-218 0 -219 124v2
q0 47 41 114q169 272 578 272h171q253 0 253 53q0 37 -343 373q-1 2 -1 7q0 23 32 114q27 79 40 90l659 225q2 1 4 1h2q3 1 6 1q20 0 20 -24v-168l-500 -171q104 -105 158.5 -202t54.5 -197q0 -161 -87 -264q-91 -112 -248 -112h-533z" />
    <glyph glyph-name="uniFEDC_uniFEF2.liga" unicode="&#xfedc;&#xfef2;" horiz-adv-x="2327" 
d="M989 -760q6 -7 6 -10q0 -5 -6 -13l-107 -104q-6 -7 -11 -7t-9 7l-102 102l-102 -102q-4 -6 -9 -6q-6 0 -13 6l-104 102q-8 6 -8 14q0 7 9 16l95 98q8 7 14 7t14 -7l101 -98l96 98q9 7 14 7t14 -7zM1488 2h-402q-186 0 -186 -49q0 -41 186 -41h196q145 0 145 -121
q0 -216 -283 -297q-163 -45 -457 -45q-206 0 -338 65q-189 89 -189 286q0 78 27 185q29 113 68 171q23 37 49 37q25 0 25 -32q0 -8 -3 -31q-36 -77 -36 -162v-3q0 -137 162 -221q147 -75 388 -77h11q269 0 413 46q48 16 48 31q0 20 -63 20h-251q-218 0 -219 124v2
q0 47 41 114q169 272 578 272h50q252 0 252 53q0 37 -211 346q-2 2 -2 16q0 41 18.5 126t33.5 96l664 224q4 2 9 2q3 1 5 1q17 0 19 -24v-167l-562 -191q92 -158 136 -225q98 -153 158 -200q70 -57 161 -57h226v-274h-161q-163 0 -250 53q-75 43 -150 162q-28 -100 -87 -150
q-75 -61 -219 -65z" />
    <glyph glyph-name="uniFEDF_uniFB51.rlig" unicode="&#xfedf;&#xfb51;" horiz-adv-x="994" 
d="M1028 974q10 -12 16 -27q0 -16 -89 -26q2 -8 3 -26t1 -27q0 -193 -110 -361q-39 -59 -90 -105q44 -61 44 -168q0 -149 -131 -212q-98 -46 -329 -46q-67 0 -69 41q-1 1 -1 4q0 6 4 18q1 7 73 221q50 8 144.5 56t128.5 83q-66 98 -168 215q-114 132 -163 175
q-39 -68 -57 -68h-1q-25 0 -143 195q28 90 65 166q35 66 50 66q13 0 39 -25q332 -319 472 -621q33 45 51 114q19 74 19 135q0 11 -1 21q-6 108 -58 232l93 136q20 31 36 33q14 0 35 -28zM708 246q0 27 -41 81q-34 -25 -225 -130q13 -4 59 -4q74 0 135 14q69 15 72 39z
M418 1505q-20 20 -44 20q-6 0 -13 -1q-31 -7 -57 -29q-11 -6 -27 -26t-30 -41.5t-23 -38.5q-7 -13 -7 -18q0 -2 1 -3q8 -4 21 -4h9q19 2 39.5 6.5t37.5 11t25 7.5q31 16 53 30t40 40q0 11 -25 46zM158 1373q12 23 28 50.5t37 58.5q23 30 42.5 56.5t41 48t46.5 35t58 16.5
q37 -7 57 -33t27 -60q4 -19 4 -42q0 -19 -3 -41q-6 -49 -22 -73q-33 -60 -97 -106q-76 -53 -168 -61q-14 -2 -29 -2q-31 0 -65 8q-50 10 -92 37q-2 1 -3 1q-6 0 -13 -8q-10 -10 -20.5 -25.5t-21.5 -32.5t-19 -29q-6 -8 -11 -8q-6 0 -11 10q-10 18 -10 30q5 18 14.5 41.5
t20.5 47.5t23 46.5t23 38.5q9 19 23 32q7 7 18 7q8 0 17 -4q5 -4 18.5 -11t30 -13.5t32 -10.5t24.5 -4z" />
    <glyph glyph-name="uniFEE0_uniFB51.rlig" unicode="&#xfee0;&#xfb51;" horiz-adv-x="1128" 
d="M1156 2h-77q-116 0 -157 136q-26 91 -26 264v47l2 104q1 20 1 38q0 36 -3 67q-81 -231 -128 -346q-92 -222 -152 -275q-47 -42 -200 -57q-77 -9 -151 -11h-7q-110 0 -112 33v1q0 24 65 53q42 19 200 103q195 104 202 162v5q0 34 -32 107q-43 93 -148 187
q-115 101 -314 213q-18 7 -18 32v5q6 67 22 214q1 32 13 32t30 -14q110 -77 277 -120q50 -14 50 -31q0 -22 -85 -61q98 -79 181 -230q78 -143 93 -284q167 250 220 756q8 57 45 57q30 0 34 -54l22 -588q5 -161 22 -199q29 -72 105 -72h26v-274zM418 1505q-20 20 -44 20
q-6 0 -13 -1q-31 -7 -57 -29q-11 -6 -27 -26t-30 -41.5t-23 -38.5q-7 -13 -7 -18q0 -2 1 -3q8 -4 21 -4h9q19 2 39.5 6.5t37.5 11t25 7.5q31 16 53 30t40 40q0 11 -25 46zM158 1373q12 23 28 50.5t37 58.5q23 30 42.5 56.5t41 48t46.5 35t58 16.5q37 -7 57 -33t27 -60
q4 -19 4 -42q0 -19 -3 -41q-6 -49 -22 -73q-33 -60 -97 -106q-76 -53 -168 -61q-14 -2 -29 -2q-31 0 -65 8q-50 10 -92 37q-2 1 -3 1q-6 0 -13 -8q-10 -10 -20.5 -25.5t-21.5 -32.5t-19 -29q-6 -8 -11 -8q-6 0 -11 10q-10 18 -10 30q5 18 14.5 41.5t20.5 47.5t23 46.5
t23 38.5q9 19 23 32q7 7 18 7q8 0 17 -4q5 -4 18.5 -11t30 -13.5t32 -10.5t24.5 -4z" />
    <glyph glyph-name="uniFEDF_uniFEE2.liga" unicode="&#xfedf;&#xfee2;" horiz-adv-x="1457" 
d="M904 5q0 29 -73 72q-113 64 -200 140q0 -99 45 -181q53 -103 144 -103q29 0 56.5 17.5t27.5 54.5zM1056 2q-31 0 -48 16q4 -47 4 -77v-8q0 -220 -173 -220h-4q-156 0 -238 170q-52 109 -55 255q-108 -4 -148 -18q-82 -26 -82 -100v-5l11 -373v-6q0 -49 -15 -109
q-22 -84 -63 -84q-43 0 -49 118l-34 473q-2 25 -2 41q0 191 134 278q95 61 244 62q0 104 24 107q12 0 71 -44q41 -32 126 -88q100 -59 151 -79q79 -35 166 -35h48q115 0 115 82v5q0 74 -26 231q-38 234 -79 373l154 168q19 20 29 20t27 -31l112 -256q0 -3 1 -8v-7
q0 -15 -28 -15q-17 0 -51 5v-520q0 -130 -63 -219q-69 -102 -193 -102h-66z" />
    <glyph glyph-name="uniFEE4_uniFE8E.liga" unicode="&#xfee4;&#xfe8e;" horiz-adv-x="1369" 
d="M1029 189q37 0 37 55q0 67 -45 163q-63 129 -148 129q-53 0 -55 -75v-6q0 -63 42 -134q80 -132 169 -132zM421 2q-239 0 -239 384q0 305 -22 645l166 119q27 19 39 22q10 0 10 -49l-2 -716q0 -69 29 -102q20 -29 81 -29h36q78 0 107 51q11 23 11 85q0 121 66 196t184 77
q97 0 177 -105q86 -156 103 -181q83 -123 147 -123h83v-274h-77q-65 0 -112 39q-20 16 -70 87q-66 -159 -176 -160h-3q-129 0 -255 197q-67 -163 -189 -163h-94z" />
    <glyph glyph-name="uniFEE4_uniFE82.liga" unicode="&#xfee4;&#xfe82;" horiz-adv-x="1440" 
d="M1110 189q37 0 37 55q0 67 -46 163q-62 129 -147 129q-54 0 -56 -75v-6q0 -63 42 -134q80 -132 170 -132zM496 2q-143 0 -198 122q-41 88 -41 262q-1 284 -22 645l163 119q27 19 42 22q13 0 13 -49v-716q0 -76 21.5 -103.5t84.5 -27.5h40q79 0 107 51q12 23 12 85
q0 121 65.5 196t183.5 77q97 0 177 -105q87 -156 103 -181q83 -123 148 -123h73v-274h-68q-64 0 -112 39q-20 16 -69 87q-67 -159 -177 -160h-3q-128 0 -255 197q-66 -163 -188 -163h-100zM772 1375q-56 -60 -186 -106q-118 -41 -224 -41q-92 0 -140 9q-57 12 -67 12
q-22 0 -43.5 -19.5t-41.5 -19.5q-19 0 -20 20q0 26 34 102q32 51 55.5 64.5t74.5 13.5q24 0 92 -13q77 -19 128 -19h19q70 0 166 12q51 7 136 19q7 1 14 1q17 0 17 -9q0 -11 -14 -26z" />
    <glyph glyph-name="uniFEE4_uniFE84.liga" unicode="&#xfee4;&#xfe84;" horiz-adv-x="1406" 
d="M476 1368l-41 -65q-184 -59 -292 -144q-10 24 -10 45q0 10 2 14q22 22 91 71q-76 41 -76 92q0 50 57.5 107t110.5 59h5q48 0 81 -41q18 -26 18 -36t-26 -13l-23 2l-47 3q-87 0 -96 -37q0 -8 25.5 -32.5t58.5 -36.5q12 2 56.5 16t76.5 24q12 3 20 3q14 0 14 -8
q0 -7 -5 -23zM1066 189q37 0 37 55q0 67 -45 163q-63 129 -148 129q-54 0 -55 -75v-6q0 -63 41 -134q81 -132 170 -132zM454 2q-238 0 -238 384q0 305 -24 645l165 119q27 19 41 22q12 0 12 -49l-2 -716q0 -69 27 -102q22 -29 82 -29h39q78 0 106 51q12 23 12 85
q0 121 65.5 196t184.5 77q96 0 177 -105q86 -156 102 -181q83 -123 148 -123h83v-274h-77q-65 0 -113 39q-20 16 -69 87q-66 -159 -177 -160h-3q-128 0 -254 197q-67 -163 -189 -163h-98z" />
    <glyph glyph-name="uniFEE4_uniFE88.liga" unicode="&#xfee4;&#xfe88;" horiz-adv-x="1369" 
d="M516 -271l-39 -67q-185 -59 -293 -144q-10 24 -10 47q0 10 2 12q23 23 91 72q-77 40 -77 91q0 53 58 109t111 58h2q51 0 84 -41q17 -27 17 -35q0 -10 -24 -14q-2 0 -26 2l-45 3q-89 0 -95 -37q0 -9 30 -35q19 -20 53 -35q14 3 57 17t75 24q14 3 21 3q13 0 13 -9
q0 -6 -5 -21zM1029 189q37 0 37 55q0 67 -45 163q-63 129 -148 129q-53 0 -55 -75v-6q0 -63 42 -134q80 -132 169 -132zM421 2q-239 0 -239 384q0 305 -22 645l166 119q27 19 39 22q10 0 10 -49l-2 -716q0 -69 29 -102q20 -29 81 -29h36q78 0 107 51q11 23 11 85
q0 121 66 196t184 77q97 0 177 -105q86 -156 103 -181q83 -123 147 -123h83v-274h-77q-65 0 -112 39q-20 16 -70 87q-66 -159 -176 -160h-3q-129 0 -255 197q-67 -163 -189 -163h-94z" />
    <glyph glyph-name="uniFEE8_uniFEAE.liga" unicode="&#xfee8;&#xfeae;" horiz-adv-x="1345" 
d="M804 2q-21 0 -40 15v-15q0 -169 -65 -311q-69 -149 -174 -224q-24 -6 -56 -8q-16 -1 -33 -1q-71 0 -174 13q-170 19 -170 57q0 31 73 61q170 72 248 116q119 68 192 136.5t73 122.5v1q0 92 -243 265l135 209q8 9 24 21q7 0 25 -21q136 -163 213 -163h27q149 0 187 190
q12 58 45 58q35 0 41 -58q20 -190 165 -190h76v-274h-76q-153 0 -212 171q-49 -171 -195 -171h-86zM1152 797q7 -4 7 -10t-8 -15l-112 -112q-5 -3 -11 -3t-11 3l-117 112q-6 5 -6 11q0 8 11 20l102 104q8 6 15 6t14 -6z" />
    <glyph glyph-name="uniFEE7_uniFEE4.liga" unicode="&#xfee7;&#xfee4;" horiz-adv-x="1228" 
d="M553 189q38 0 38 55q0 67 -46 163q-63 129 -148 129q-53 0 -55 -75v-6q0 -63 42 -134q80 -132 169 -132zM844 2q-65 0 -112 39q-20 16 -69 87q-67 -159 -177 -160h-3q-128 0 -255 197q-67 -163 -189 -163h-67v274h71q78 0 107 51q11 23 11 85q0 121 66 196t184 77
q97 0 177 -105q86 -156 103 -181q83 -123 147 -123h82q178 0 178 53q0 45 -158 192l129 201q5 8 12 8q5 0 11 -4q63 -53 103 -151q33 -90 33 -183q0 -146 -63 -251q-82 -139 -235 -139h-86zM1200 977q6 -3 6 -10q0 -5 -6 -14l-112 -112q-6 -6 -12 -6q-7 0 -14 6l-115 110
q-3 7 -3 14q0 9 6 17l105 107q7 7 14 7q9 0 17 -7z" />
    <glyph glyph-name="uniFEE7_uniFEF0.liga" unicode="&#xfee7;&#xfef0;" horiz-adv-x="1786" 
d="M1086 2q-186 0 -186 -49q0 -41 186 -41h196q145 0 145 -121q0 -216 -283 -297q-163 -45 -457 -45q-206 0 -338 65q-189 89 -189 286q0 78 27 185q29 113 68 171q23 37 49 37q25 0 25 -32q0 -8 -3 -31q-36 -77 -36 -162v-3q0 -137 162 -221q147 -75 388 -77h11
q269 0 413 46q48 16 48 31q0 20 -63 20h-251q-218 0 -219 124v2q0 47 41 114q169 272 578 272h80q178 0 178 53q0 45 -158 192l129 201q5 8 12 8q5 0 11 -4q63 -53 102 -151q34 -90 34 -183q0 -146 -63 -251q-83 -139 -235 -139h-402zM1758 977q6 -3 6 -10q0 -5 -6 -14
l-112 -112q-6 -6 -12 -6q-7 0 -14 6l-115 110q-4 7 -4 14q0 9 7 17l105 107q7 7 14 7q9 0 17 -7z" />
    <glyph glyph-name="uniFEE7_uniFEF2.liga" unicode="&#xfee7;&#xfef2;" horiz-adv-x="1786" 
d="M989 -760q6 -7 6 -10q0 -5 -6 -13l-107 -104q-6 -7 -11 -7t-9 7l-102 102l-102 -102q-4 -6 -9 -6q-6 0 -13 6l-104 102q-8 6 -8 14q0 7 9 16l95 98q8 7 14 7t14 -7l101 -98l96 98q9 7 14 7t14 -7zM1086 2q-186 0 -186 -49q0 -41 186 -41h196q145 0 145 -121
q0 -216 -283 -297q-163 -45 -457 -45q-206 0 -338 65q-189 89 -189 286q0 78 27 185q29 113 68 171q23 37 49 37q25 0 25 -32q0 -8 -3 -31q-36 -77 -36 -162v-3q0 -137 162 -221q147 -75 388 -77h11q269 0 413 46q48 16 48 31q0 20 -63 20h-251q-218 0 -219 124v2
q0 47 41 114q169 272 578 272h80q178 0 178 53q0 45 -158 192l129 201q5 8 12 8q5 0 11 -4q63 -53 102 -151q34 -90 34 -183q0 -146 -63 -251q-83 -139 -235 -139h-402zM1758 977q6 -3 6 -10q0 -5 -6 -14l-112 -112q-6 -6 -12 -6q-7 0 -14 6l-115 110q-4 7 -4 14q0 9 7 17
l105 107q7 7 14 7q9 0 17 -7z" />
    <glyph glyph-name="uniFEF4_uniFEAE.liga" unicode="&#xfef4;&#xfeae;" horiz-adv-x="1444" 
d="M804 2q-21 0 -40 15v-15q0 -169 -65 -311q-69 -149 -174 -224q-24 -6 -56 -8q-16 -1 -33 -1q-71 0 -174 13q-170 19 -170 57q0 31 73 61q170 72 248 116q119 68 192 136.5t73 122.5v1q0 92 -243 265l135 209q8 9 24 21q7 0 25 -21q136 -163 213 -163h136q150 0 187 190
q12 58 46 58t41 -58q20 -190 165 -190h65v-274h-65q-153 0 -213 171q-49 -171 -195 -171h-195zM1305 -273q5 -3 5 -9q0 -7 -5 -13l-105 -104q-7 -6 -12 -6t-12 6l-102 102l-100 -102q-6 -6 -11 -6q-6 0 -11 6l-107 104q-7 6 -7 13t8 16l99 98q5 5 12 5q5 0 13 -5l100 -98
l99 98q7 5 14 5t15 -5z" />
    <glyph glyph-name="uniFEF3_uniFEE4.liga" unicode="&#xfef3;&#xfee4;" horiz-adv-x="1365" 
d="M1347 -273q5 -3 5 -9q0 -7 -5 -13l-105 -104q-7 -6 -12 -6t-12 6l-102 102l-100 -102q-6 -6 -11 -6q-6 0 -11 6l-106 104q-8 6 -8 13q0 8 8 16l99 98q5 5 12 5q5 0 13 -5l101 -98l98 98q7 5 14 5t15 -5zM553 189q38 0 38 55q0 67 -46 163q-63 129 -148 129q-53 0 -55 -75
v-6q0 -63 42 -134q80 -132 169 -132zM844 2q-65 0 -112 39q-20 16 -69 87q-67 -159 -177 -160h-3q-128 0 -255 197q-67 -163 -189 -163h-67v274h71q78 0 107 51q11 23 11 85q0 121 66 196t184 77q97 0 177 -105q86 -156 103 -181q83 -123 147 -123h219q178 0 178 53
q0 45 -158 192l129 201q5 8 12 8q5 0 10 -4q64 -53 103 -151q34 -90 34 -183q0 -146 -63 -251q-83 -139 -235 -139h-223z" />
    <glyph glyph-name="uniFEF4_uniFEE6.liga" unicode="&#xfef4;&#xfee6;" horiz-adv-x="2018" 
d="M806 555q7 -4 7 -9q0 -6 -9 -13l-112 -112q-3 -9 -10 -9q-6 0 -12 9l-115 108q-6 6 -6 13q0 8 9 17l104 106q7 7 14 7q8 0 15 -7zM1878 -273q6 -3 6 -9q0 -7 -6 -13l-105 -104q-7 -6 -11 -6q-6 0 -12 6l-102 102l-100 -102q-6 -6 -11 -6q-6 0 -11 6l-107 104q-7 6 -7 13
t8 16l98 98q6 5 12 5t14 -5l100 -98l98 98q8 5 14 5q7 0 16 -5zM1378 2q-96 0 -127 24q3 -57 3 -82q0 -246 -168 -373q-149 -114 -404 -116h-10q-208 0 -344 85q-168 102 -168 304q0 105 32 207q29 85 59 128q24 36 48 36q22 0 22 -30q0 -12 -7 -34q-34 -100 -34 -173
q0 -244 407 -246h16q131 0 258 32q211 57 213 175v1q0 79 -225 318l120 197q12 25 24 25q10 0 24 -19q43 -50 113 -123q76 -62 153 -62h159q149 0 187 190q12 58 45 58q35 0 41 -58q20 -190 165 -190h66v-274h-66q-153 0 -212 171q-49 -171 -195 -171h-195z" />
    <glyph glyph-name="T_h.liga" unicode="Th" horiz-adv-x="1837" 
d="M985 848h-6l-9 113q-2 14 -5.5 23.5t-9.5 15.5q-7 12 -37.5 13.5t-63.5 1.5h-192v-794q0 -52 1.5 -85t10.5 -47q4 -11 19.5 -15.5t47.5 -7.5l51 -5v-66q-42 1 -106.5 3t-138.5 2t-139.5 -2t-115.5 -3v66l60 5q33 3 47.5 7.5t20.5 15.5q8 14 10 47t2 85v794h-193
q-32 0 -62.5 -1.5t-39.5 -13.5q-4 -6 -8 -15.5t-6 -23.5l-8 -113h-66q-4 80 -8 141t-13 119l9 9q130 -2 257 -3.5t251 -1.5q127 0 255 2q51 0 103 1q30 5 59 9q45 8 92 21l117 36l13 -10v-531l131 102q32 21 65 26t60 5q47 0 96 -16.5t82 -49.5q42 -45 51.5 -104.5
t9.5 -133.5v-305q0 -56 6 -77q3 -13 15 -18.5t38 -9.5l53 -3v-61q-44 1 -82 3t-78 2q-45 0 -81.5 -2t-71.5 -3v446q0 61 -10 95.5t-32 56.5t-51 30t-72 8q-25 0 -48.5 -10.5t-41 -26.5t-28.5 -36t-11 -39v-355q0 -56 7 -77q4 -13 15 -18.5t37 -9.5l59 -3v-61q-53 1 -106.5 3
t-116.5 2q-53 0 -105.5 -2t-96.5 -3v61l48 3q27 4 38.5 9.5t13.5 18.5q8 21 8 77v684z" />
    <glyph glyph-name="f_b.liga" unicode="fb" horiz-adv-x="1573" 
d="M920 174q27 -43 70.5 -67t95.5 -24q59 0 95.5 28t58.5 70t30.5 93t8.5 97q0 49 -11.5 95t-36 81t-63.5 56.5t-94 21.5q-45 0 -88.5 -22.5t-65.5 -59.5v-369zM624 1050v-38l-26 -12q-23 15 -50 27t-54 12q-37 0 -58.5 -11t-31 -31.5t-11.5 -48.5t-2 -59v-177q56 0 111 1.5
t104 4.5l7 -13l-19 -95h-203v-446q0 -56 8 -77q2 -13 25 -19.5t49 -8.5l74 -3v-61q-81 1 -140.5 3t-120.5 2q-53 0 -107.5 -2t-122.5 -3v61l67 3q53 4 61 28q8 21 8 77v446l-130 -8v39q34 17 67 34.5t63 39.5v70q0 50 2 80.5t11.5 55t27 44t48.5 45.5l122 102q29 24 50.5 37
t40 20.5t33 9.5t30.5 2q33 0 67 -10v-57q38 5 71 10q47 8 93 21l119 36l13 -10v-543l100 81q31 23 68.5 43.5t101.5 20.5q66 0 119.5 -24.5t93.5 -65t61 -96t21 -120.5q0 -68 -14.5 -123.5t-37.5 -99.5q-30 -59 -78.5 -99t-98.5 -73q-53 -35 -107 -67.5t-122 -32.5
q-74 0 -126.5 18t-95.5 43l-64 -53l-36 14q3 28 6.5 65t4.5 74t2 72.5t1 60.5v665q0 35 -1 57t-5.5 34.5t-13 17.5t-23.5 7z" />
    <glyph glyph-name="f_f_b.liga" unicode="ffb" horiz-adv-x="2100" 
d="M1448 174q27 -43 70.5 -67t96.5 -24q58 0 95 28t59 70t30 93t8 97q0 49 -11.5 95t-36 81t-63 56.5t-94.5 21.5q-45 0 -88 -22.5t-66 -59.5v-369zM391 610v-446q0 -56 8 -77q2 -13 25 -19.5t49 -8.5l65 -3v-61q-72 1 -131.5 3t-120.5 2q-53 0 -107.5 -2t-122.5 -3v61l67 3
q53 4 61 28q8 21 8 77v446l-130 -8v39q34 17 67 34.5t63 39.5v70q0 50 2 80.5t11.5 55t27 44t48.5 45.5l122 102q29 24 50.5 37t40 20.5t33 9.5t30.5 2q33 0 67 -10v-159l-26 -12q-23 15 -50 27t-54 12q-37 0 -58.5 -11t-31 -31.5t-11.5 -48.5t-2 -59v-177l329 3v70
q0 50 2.5 80.5t11.5 55t26.5 44t48.5 45.5l123 102q29 24 50 37t39.5 20.5t33 9.5t30.5 2q33 0 68 -10v-57q37 5 70 10q47 8 94 21l118 36l13 -10v-543l100 81q31 23 68.5 43.5t102.5 20.5t119 -24.5t93.5 -65t61 -96t21.5 -120.5q0 -68 -14.5 -123.5t-38.5 -99.5
q-29 -59 -78 -99t-99 -73q-53 -35 -107 -67.5t-121 -32.5q-74 0 -127 18t-96 43l-64 -53l-36 14q4 28 7 65t4.5 74t2.5 72.5t1 60.5v665q0 35 -1 57t-5.5 34.5t-13.5 17.5t-23 7l-52 3v-38l-27 -12q-22 15 -49.5 27t-53.5 12q-38 0 -59.5 -11t-31 -31.5t-11 -48.5t-1.5 -59
v-177q55 0 110 1.5t105 4.5l6 -13l-18 -95h-203v-446q0 -56 7 -77q3 -13 25.5 -19.5t49.5 -8.5l73 -3v-61q-81 1 -140.5 3t-119.5 2q-54 0 -108 -2t-113 -3v61l57 3q54 4 62 28q7 21 7 77v446h-329z" />
    <glyph glyph-name="f_f.liga" unicode="ff" horiz-adv-x="1171" 
d="M391 610v-446q0 -56 8 -77q2 -13 25 -19.5t49 -8.5l65 -3v-61q-72 1 -131.5 3t-120.5 2q-53 0 -107.5 -2t-122.5 -3v61l67 3q53 4 61 28q8 21 8 77v446l-130 -8v39q34 17 67 34.5t63 39.5v70q0 50 2 80.5t11.5 55t27 44t48.5 45.5l122 102q29 24 50.5 37t40 20.5t33 9.5
t30.5 2q33 0 67 -10v-159l-26 -12q-23 15 -50 27t-54 12q-37 0 -58.5 -11t-31 -31.5t-11.5 -48.5t-2 -59v-177l329 3v70q0 50 2.5 80.5t11.5 55t26.5 44t48.5 45.5l123 102q29 24 50 37t39.5 20.5t33 9.5t30.5 2q33 0 68 -10v-159l-27 -12q-22 15 -49.5 27t-53.5 12
q-38 0 -59.5 -11t-31 -31.5t-11 -48.5t-1.5 -59v-177q55 0 110 1.5t105 4.5l6 -13l-18 -95h-203v-446q0 -56 7 -77q3 -13 25.5 -19.5t49.5 -8.5l73 -3v-61q-81 1 -140.5 3t-119.5 2q-54 0 -108 -2t-113 -3v61l57 3q54 4 62 28q7 21 7 77v446h-329z" />
    <glyph glyph-name="f_h.liga" unicode="fh" horiz-adv-x="1573" 
d="M624 1050v-38l-26 -12q-23 15 -50 27t-54 12q-37 0 -58.5 -11t-31 -31.5t-11.5 -48.5t-2 -59v-177q56 0 111 1.5t104 4.5l7 -13l-19 -95h-203v-446q0 -56 8 -77q2 -13 25 -19.5t49 -8.5l65 -3v-61q-72 1 -131.5 3t-120.5 2q-53 0 -107.5 -2t-122.5 -3v61l67 3q53 4 61 28
q8 21 8 77v446l-130 -8v39q34 17 67 34.5t63 39.5v70q0 50 2 80.5t11.5 55t27 44t48.5 45.5l122 102q29 24 50.5 37t40 20.5t33 9.5t30.5 2q33 0 67 -10v-59q38 7 73 12q46 8 92 21l118 36l13 -10v-531l131 102q32 21 64.5 26t60.5 5q47 0 96 -16.5t81 -49.5
q42 -45 51.5 -104.5t9.5 -133.5v-305q0 -56 7 -77q2 -13 14 -18.5t39 -9.5l52 -3v-61q-43 1 -81.5 3t-78.5 2q-45 0 -81 -2t-71 -3v446q0 61 -10 95.5t-33 56.5q-22 22 -50.5 30t-72.5 8q-24 0 -48 -10.5t-41 -26.5t-28 -36t-11 -39v-355q0 -56 7 -77q4 -13 14.5 -18.5
t37.5 -9.5l58 -3v-61q-53 1 -106 3t-116 2q-54 0 -106.5 -2t-95.5 -3v61l48 3q26 4 37.5 9.5t14.5 18.5q7 21 7 77v767q0 35 -0.5 57t-6 34.5t-13 17.5t-23.5 7z" />
    <glyph glyph-name="f_f_h.liga" unicode="ffh" horiz-adv-x="2088" 
d="M391 610v-446q0 -56 8 -77q2 -13 25 -19.5t49 -8.5l65 -3v-61q-72 1 -131.5 3t-120.5 2q-53 0 -107.5 -2t-122.5 -3v61l67 3q53 4 61 28q8 21 8 77v446l-130 -8v39q34 17 67 34.5t63 39.5v70q0 50 2 80.5t11.5 55t27 44t48.5 45.5l122 102q29 24 50.5 37t40 20.5t33 9.5
t30.5 2q33 0 67 -10v-159l-26 -12q-23 15 -50 27t-54 12q-37 0 -58.5 -11t-31 -31.5t-11.5 -48.5t-2 -59v-177l329 3v70q0 50 2.5 80.5t11.5 55t26.5 44t48.5 45.5l123 102q29 24 50 37t39.5 20.5t33 9.5t30.5 2q33 0 68 -10v-59q37 7 73 12q45 8 92 21l117 36l13 -10v-531
l131 102q32 21 65 26t60 5q47 0 96 -16.5t82 -49.5q42 -45 51.5 -104.5t9.5 -133.5v-305q0 -56 6 -77q3 -13 15 -18.5t38 -9.5l53 -3v-61q-44 1 -82 3t-79 2q-44 0 -80.5 -2t-71.5 -3v446q0 61 -10 95.5t-32 56.5t-51 30t-72 8q-25 0 -48.5 -10.5t-41 -26.5t-28.5 -36
t-11 -39v-355q0 -56 7 -77q4 -13 15 -18.5t37 -9.5l59 -3v-61q-53 1 -106.5 3t-116.5 2q-53 0 -105.5 -2t-96.5 -3v61l48 3q27 4 38.5 9.5t13.5 18.5q8 21 8 77v767q0 35 -0.5 57t-6 34.5t-13.5 17.5t-23 7l-53 3v-38l-27 -12q-22 15 -49.5 27t-53.5 12q-38 0 -59.5 -11
t-31 -31.5t-11 -48.5t-1.5 -59v-177q55 0 110 1.5t105 4.5l6 -13l-18 -95h-203v-446q0 -56 7 -77q3 -13 25.5 -19.5t49.5 -8.5l64 -3v-61q-72 1 -131.5 3t-119.5 2q-54 0 -108 -2t-113 -3v61l57 3q54 4 62 28q7 21 7 77v446h-329z" />
    <glyph glyph-name="f_f_i.liga" unicode="ffi" horiz-adv-x="1577" 
d="M1330 1158q52 0 87 -35t35 -90q0 -51 -36.5 -86t-85.5 -35q-50 0 -86.5 35t-36.5 86q0 55 35 90t88 35zM391 610v-446q0 -56 8 -77q2 -13 25 -19.5t49 -8.5l56 -3v-61q-63 1 -122.5 3t-120.5 2q-53 0 -107.5 -2t-122.5 -3v61l67 3q53 4 61 28q8 21 8 77v446l-130 -8v39
q34 17 67 34.5t63 39.5v70q0 50 2 80.5t11.5 55t27 44t48.5 45.5l122 102q29 24 50.5 37t40 20.5t33 9.5t30.5 2q33 0 67 -10v-159l-26 -12q-23 15 -50 27t-54 12q-37 0 -58.5 -11t-31 -31.5t-11.5 -48.5t-2 -59v-177l316 3v70q0 50 3 80.5t11.5 55t27 44t49.5 45.5l122 102
q29 24 50.5 37t39.5 20.5t32.5 9.5t31.5 2q32 0 66 -10v-159l-26 -12q-22 15 -49.5 27t-53.5 12q-38 0 -59 -11t-31 -31.5t-11.5 -48.5t-1.5 -59v-177h182q52 0 100 5.5t93 19.5l119 36l12 -2v-607q0 -56 7 -77q3 -13 14.5 -18.5t38.5 -9.5l57 -3v-61q-53 1 -106 3t-115 2
q-55 0 -107.5 -2t-104.5 -3v61l58 3q25 4 37 9.5t15 18.5q6 21 6 77v371q0 58 -14.5 82t-47.5 24h-51l-11 -31h-182v-446q0 -56 7 -77q7 -26 58 -28l58 -3v-61q-58 1 -112 3t-116 2q-54 0 -108.5 -2t-104.5 -3v61l48 3q55 4 63 28q6 21 6 77v446h-316z" />
    <glyph glyph-name="f_j.liga" unicode="fj" horiz-adv-x="1016" 
d="M773 1158q53 0 88 -35t35 -90q0 -51 -37 -86t-86 -35t-86 35t-37 86q0 55 35.5 90t87.5 35zM650 715q46 7 92 22l114 36l18 -10v-602q0 -83 -3.5 -150t-13.5 -124t-29 -106.5t-50 -92.5q-44 -59 -96 -91.5t-101 -32.5q-14 0 -29 0.5t-29 2.5l-17 58l6 9h38q71 0 95 72
q17 48 22.5 103.5t5.5 127.5v586q0 35 -1 57t-5.5 34t-13 17.5t-23.5 6.5l-65 4l-7 -32h-203v-446q0 -56 8 -77q2 -13 25 -19.5t49 -8.5l74 -3v-61q-81 1 -140.5 3t-120.5 2q-53 0 -107.5 -2t-122.5 -3v61l67 3q53 4 61 28q8 21 8 77v446l-130 -8v39q34 17 67 34.5t63 39.5
v70q0 50 2 80.5t11.5 55t27 44t48.5 45.5l122 102q29 24 50.5 37t40 20.5t33 9.5t30.5 2q33 0 67 -10v-159l-26 -12q-23 15 -50 27t-54 12q-37 0 -58.5 -11t-31 -31.5t-11.5 -48.5t-2 -59v-177q56 0 111 1.5t104 4.5l7 -13q36 5 73 10z" />
    <glyph glyph-name="f_f_j.liga" unicode="ffj" horiz-adv-x="1577" 
d="M1329 1158q53 0 88 -35t35 -90q0 -51 -37.5 -86t-85.5 -35q-49 0 -86.5 35t-37.5 86q0 55 35.5 90t88.5 35zM391 610v-446q0 -56 8 -77q2 -13 25 -19.5t49 -8.5l56 -3v-61q-63 1 -122.5 3t-120.5 2q-53 0 -107.5 -2t-122.5 -3v61l67 3q53 4 61 28q8 21 8 77v446l-130 -8
v39q34 17 67 34.5t63 39.5v70q0 50 2 80.5t11.5 55t27 44t48.5 45.5l122 102q29 24 50.5 37t40 20.5t33 9.5t30.5 2q33 0 67 -10v-159l-26 -12q-23 15 -50 27t-54 12q-37 0 -58.5 -11t-31 -31.5t-11.5 -48.5t-2 -59v-177l320 3v70q0 50 2.5 80.5t11.5 55t26.5 44t48.5 45.5
l122 102q30 24 51 37t39.5 20.5t33 9.5t30.5 2q33 0 68 -10v-159l-27 -12q-22 15 -49.5 27t-54.5 12q-37 0 -58.5 -11t-31 -31.5t-11 -48.5t-1.5 -59v-177q55 0 110 1.5t105 4.5l6 -13q36 5 74 10q45 7 92 22l114 36l17 -10v-602q0 -83 -3 -150t-13 -124t-29.5 -106.5
t-50.5 -92.5q-43 -59 -95 -91.5t-102 -32.5q-14 0 -28.5 0.5t-29.5 2.5l-17 58l6 9h39q71 0 94 72q18 48 23 103.5t5 127.5v586q0 35 -0.5 57t-5 34t-13.5 17.5t-23 6.5l-66 4l-6 -32h-203v-446q0 -56 7 -77q3 -13 25.5 -19.5t49.5 -8.5l73 -3v-61q-81 1 -140.5 3t-119.5 2
q-54 0 -108 -2t-104 -3v61l48 3q54 4 62 28q7 21 7 77v446h-320z" />
    <glyph glyph-name="f_k.liga" unicode="fk" horiz-adv-x="1573" 
d="M624 1050v-38l-26 -12q-23 15 -50 27t-54 12q-37 0 -58.5 -11t-31 -31.5t-11.5 -48.5t-2 -59v-177q56 0 111 1.5t104 4.5l7 -13l-19 -95h-203v-446q0 -56 8 -77q2 -13 25 -19.5t49 -8.5l74 -3v-61q-81 1 -140.5 3t-120.5 2q-53 0 -107.5 -2t-122.5 -3v61l67 3q53 4 61 28
q8 21 8 77v446l-130 -8v39q34 17 67 34.5t63 39.5v70q0 50 2 80.5t11.5 55t27 44t48.5 45.5l122 102q29 24 50.5 37t40 20.5t33 9.5t30.5 2q33 0 67 -10v-60q49 7 89 13q47 8 94 21l117 36l14 -10v-763q42 37 87.5 77t86.5 83l175 185h213v-62h-50q-24 0 -44.5 -9.5
t-34.5 -21.5l-102 -73q-35 -27 -67 -57.5t-61 -60.5l322 -361q12 -14 35.5 -31.5t54.5 -20.5v-56h-283q-10 11 -27 33.5t-37.5 48t-41.5 50t-37 42.5l-174 197h-15v-207q0 -56 6 -77q3 -13 15 -18.5t37 -9.5l58 -3v-61q-52 1 -106 3t-115 2q-55 0 -107 -2t-105 -3v61l57 3
q27 4 38.5 9.5t14.5 18.5q6 21 6 77v767q0 35 -0.5 57t-5.5 34.5t-13.5 17.5t-21.5 7z" />
    <glyph glyph-name="f_f_k.liga" unicode="ffk" horiz-adv-x="2113" 
d="M391 610v-446q0 -56 8 -77q2 -13 25 -19.5t49 -8.5l65 -3v-61q-72 1 -131.5 3t-120.5 2q-53 0 -107.5 -2t-122.5 -3v61l67 3q53 4 61 28q8 21 8 77v446l-130 -8v39q34 17 67 34.5t63 39.5v70q0 50 2 80.5t11.5 55t27 44t48.5 45.5l122 102q29 24 50.5 37t40 20.5t33 9.5
t30.5 2q33 0 67 -10v-159l-26 -12q-23 15 -50 27t-54 12q-37 0 -58.5 -11t-31 -31.5t-11.5 -48.5t-2 -59v-177l338 3v70q0 50 2.5 80.5t11.5 55t27 44t49 45.5l122 102q29 24 50.5 37t39.5 20.5t32.5 9.5t31.5 2q32 0 67 -10v-60q48 7 88 13q48 8 94 21l118 36l13 -10v-763
q42 37 87.5 77t86.5 83l175 185h213v-62h-50q-23 0 -43.5 -9.5t-35.5 -21.5l-102 -73q-35 -27 -66.5 -57.5t-60.5 -60.5l321 -361q13 -14 36 -31.5t54 -20.5v-56h-282q-10 11 -27.5 33.5t-38 48t-41.5 50t-36 42.5l-174 197h-16v-207q0 -56 7 -77q2 -13 14 -18.5t38 -9.5
l57 -3v-61q-52 1 -105.5 3t-114.5 2q-55 0 -107.5 -2t-105.5 -3v61l58 3q26 4 38 9.5t15 18.5q6 21 6 77v767q0 35 -1 57t-6 34.5t-13 17.5t-22 7l-71 3v-38l-26 -12q-23 15 -50.5 27t-53.5 12q-38 0 -59 -11t-31 -31.5t-11.5 -48.5t-1.5 -59v-177q55 0 110.5 1.5t104.5 4.5
l6 -13l-18 -95h-203v-446q0 -56 7 -77q3 -13 25.5 -19.5t49.5 -8.5l74 -3v-61q-82 1 -141.5 3t-119.5 2q-54 0 -108 -2t-113 -3v61l57 3q54 4 62 28q7 21 7 77v446h-338z" />
    <glyph glyph-name="f_f_l.liga" unicode="ffl" horiz-adv-x="1565" 
d="M391 610v-446q0 -56 8 -77q2 -13 25 -19.5t49 -8.5l56 -3v-61q-63 1 -122.5 3t-120.5 2q-53 0 -107.5 -2t-122.5 -3v61l67 3q53 4 61 28q8 21 8 77v446l-130 -8v39q34 17 67 34.5t63 39.5v70q0 50 2 80.5t11.5 55t27 44t48.5 45.5l122 102q29 24 50.5 37t40 20.5t33 9.5
t30.5 2q33 0 67 -10v-159l-26 -12q-23 15 -50 27t-54 12q-37 0 -58.5 -11t-31 -31.5t-11.5 -48.5t-2 -59v-177l319 3v70q0 50 2.5 80.5t11.5 55t27 44t49 45.5l121 102q58 48 89 58.5t55 10.5q18 0 29 -2l22 -4v-60q43 6 86.5 12.5t87.5 20.5l99 33l14 -10v-1007
q0 -56 6 -77q3 -13 14.5 -18.5t38.5 -9.5l56 -3v-61q-52 1 -105 3t-116 2q-54 0 -106.5 -2t-105.5 -3v61l58 3q26 4 37.5 9.5t15.5 18.5q6 21 6 77v767q0 35 -1 57t-5.5 34.5t-13 17.5t-23.5 7l-43 4v-54l-25 -7q-13 19 -39 34t-52 15q-57 0 -73 -43t-16 -107v-177
q41 0 94.5 1.5t102.5 4.5l8 -13l-19 -95h-186v-446q0 -56 6 -77q3 -13 26 -18.5t50 -9.5l40 -3v-61q-57 1 -111.5 3t-115.5 2q-55 0 -109 -2t-104 -3v61l49 3q53 4 62 28q6 21 6 77v446h-319z" />
    <glyph glyph-name="f_t.liga" unicode="ft" horiz-adv-x="1100" 
d="M391 610v-446q0 -56 8 -77q2 -13 25 -19.5t49 -8.5l74 -3v-61q-81 1 -140.5 3t-120.5 2q-53 0 -107.5 -2t-122.5 -3v61l67 3q53 4 61 28q8 21 8 77v446l-130 -8v39q34 17 67 34.5t63 39.5v70q0 50 2 80.5t11.5 55t27 44t48.5 45.5l122 102q29 24 50.5 37t40 20.5t33 9.5
t30.5 2q33 0 67 -10v-159l-26 -12q-23 15 -50 27t-54 12q-37 0 -58.5 -11t-31 -31.5t-11.5 -48.5t-2 -59v-177l299 -7v99q0 38 -1.5 75t-4.5 76q54 20 108.5 42t91.5 39l23 -16q-10 -50 -15 -107.5t-5 -115.5v-95l187 10l-13 -107h-174v-390q0 -63 23 -85t79 -22
q26 0 41.5 7t34.5 14l13 -31l-81 -96q-8 -12 -34.5 -21t-65.5 -9q-113 0 -161.5 48.5t-48.5 159.5v425z" />
    <glyph glyph-name="f_f_t.liga" unicode="fft" horiz-adv-x="1619" 
d="M391 610v-446q0 -56 8 -77q2 -13 25 -19.5t49 -8.5l56 -3v-61q-63 1 -122.5 3t-120.5 2q-53 0 -107.5 -2t-122.5 -3v61l67 3q53 4 61 28q8 21 8 77v446l-130 -8v39q34 17 67 34.5t63 39.5v70q0 50 2 80.5t11.5 55t27 44t48.5 45.5l122 102q29 24 50.5 37t40 20.5t33 9.5
t30.5 2q33 0 67 -10v-159l-26 -12q-23 15 -50 27t-54 12q-37 0 -58.5 -11t-31 -31.5t-11.5 -48.5t-2 -59v-177l320 3v70q0 50 2.5 80.5t11.5 55t26.5 44t48.5 45.5l122 102q30 24 51 37t39.5 20.5t33 9.5t30.5 2q33 0 68 -10v-159l-27 -12q-22 15 -49.5 27t-54.5 12
q-37 0 -58.5 -11t-31 -31.5t-11 -48.5t-1.5 -59v-177l298 -7v99q0 38 -1 75t-5 76q55 20 109 42t91 39l23 -16q-10 -50 -15 -107.5t-5 -115.5v-95l187 10l-13 -107h-174v-390q0 -63 23.5 -85t78.5 -22q27 0 42.5 7t33.5 14l13 -31l-81 -96q-8 -12 -34.5 -21t-65.5 -9
q-113 0 -161 48.5t-48 159.5v425l-296 5v-446q0 -56 7 -77q3 -13 25.5 -19.5t49.5 -8.5l73 -3v-61q-81 1 -140.5 3t-119.5 2q-54 0 -108 -2t-104 -3v61l48 3q54 4 62 28q7 21 7 77v446h-320z" />
    <glyph glyph-name="uni0647.fina" unicode="&#x647;" horiz-adv-x="909" arabic-form="final" 
d="M598 460q-109 0 -192 -184h161q91 60 92 133v2q0 49 -61 49zM659 -197q70 0 70 36q0 61 -173 163h-158q15 -73 75 -126q69 -73 186 -73zM313 276q27 148 148 273q130 136 272 136q59 0 99 -51q34 -40 34 -93v-2q0 -72 -73 -165q-50 -65 -95 -98h239v-274h-217
q144 -110 144 -224q0 -58 -41 -101q-55 -57 -173 -57q-120 0 -224 118t-120 264q-10 1 -20 1q-44 0 -73 -15q-5 -2 -9 -2q-29 0 -34 110q-1 16 -1 31q0 98 37 125q36 25 87 25q9 0 20 -1z" />
    <glyph glyph-name="uni0672.fina" unicode="&#x672;" horiz-adv-x="526" 
d="M554 2h-100q-238 0 -238 384q0 305 -24 645l165 119q28 19 41 22q12 0 12 -49l-2 -716q0 -69 27 -102q22 -29 82 -29h37v-274zM401 1425q-32 31 -54 31h-3q-23 -2 -46 -15q-19 -10 -19 -16q2 -19 28 -30q23 -11 58 -11q12 0 25 1q36 3 91 15l5 -7q-14 -36 -39 -85
q-42 -11 -69 -19q-31 -9 -83 -50q-46 -36 -78 -39h-3q-20 0 -46 13q-25 11 -38 11h-4q-17 0 -37 -14l-16 20q28 84 84 87q4 1 9 1q20 0 45 -12q26 -13 49 -13h6l7 8q-55 29 -59 76v8q0 49 48 95q52 50 102 53h8q22 0 39 -13q16 -14 18 -36v-5q0 -23 -15 -53z" />
    <glyph glyph-name="uni0673.fina" unicode="&#x673;" horiz-adv-x="526" 
d="M554 2h-100q-238 0 -238 384q0 305 -23 645l165 119q27 19 41 22q11 0 11 -49l-1 -716q0 -69 26 -102q23 -29 82 -29h37v-274zM456 -206q-32 31 -54 31h-3q-23 -2 -46 -14q-19 -10 -19 -16v-1q2 -19 28 -30q23 -11 58 -11q12 0 25 1q36 3 91 16l5 -8q-14 -36 -39 -85
q-42 -10 -69 -19q-31 -9 -83 -50q-46 -36 -78 -39h-3q-20 0 -46 13q-25 12 -38 12h-4q-17 -1 -37 -15l-16 20q28 84 84 88h6q22 0 48 -12q26 -13 49 -13h6l7 8q-55 29 -59 76v8q0 50 48 96q52 49 102 53h6q23 0 41 -14q16 -14 18 -36v-5q0 -23 -15 -53z" />
    <glyph glyph-name="uni0675.fina" unicode="&#x675;" horiz-adv-x="708" 
d="M736 2h-282q-237 0 -237 384q0 305 -24 645l165 119q27 19 41 22q12 0 12 -49l-2 -716q0 -69 26 -102q23 -29 82 -29h219v-274zM704 1478l-41 -66q-183 -59 -291 -144q-10 24 -10 46q0 10 1 13q22 22 91 71q-75 41 -75 92t57.5 107.5t109.5 58.5h5q48 0 82 -41
q17 -26 17 -35q0 -10 -25 -14l-24 2l-46 4q-88 0 -97 -38q0 -8 33 -34q18 -22 52 -35q12 3 56 16.5t77 23.5q12 4 20 4q14 0 14 -9q0 -7 -6 -22z" />
    <glyph glyph-name="uni0676.fina" unicode="&#x676;" horiz-adv-x="935" 
d="M934 946l-41 -67q-186 -61 -289 -142q-12 22 -12 46q0 1 3 11q10 14 90 71q-77 45 -78 94v3q0 42 61 104q56 58 110 58t82 -41q18 -19 18 -35q0 -12 -22 -12h-24q-16 2 -51 3q-38 0 -63.5 -12t-25.5 -25q0 -31 83 -74q30 13 132 47q14 0 17 2q17 0 17 -12q0 -9 -7 -19z
M630 272q-16 52 -64 95.5t-101 43.5q-39 0 -66 -24.5t-27 -62.5q0 -54 186 -54q51 0 72 2zM785 276h178v-274h-178q-8 -74 -24 -135q-46 -198 -189 -354q-30 -34 -51.5 -44.5t-55.5 -10.5h-20q-74 0 -187 12q-170 21 -170 56q0 30 73 61q153 61 248 117q127 75 190 134
q80 87 95 160q-93 -3 -131 -3q-327 0 -327 170q0 36 26 142q87 354 239 354q127 0 208 -142q58 -103 76 -243z" />
    <glyph glyph-name="uni0677.fina" unicode="&#x677;" horiz-adv-x="936" 
d="M935 927l-41 -66q-186 -61 -289 -142q-12 22 -12 45q0 2 3 12q10 14 90 70q-77 46 -78 95v3q0 42 61 104q56 58 110 58t82 -41q18 -19 18 -36q0 -11 -22 -11h-24q-16 1 -51 3q-38 0 -63.5 -12t-25.5 -25q0 -31 83 -74q30 13 132 47q14 0 17 1q17 0 17 -11q0 -10 -7 -20z
M540 1039q1 -8 1 -16q0 -58 -40 -112q11 -5 46 -15l-15 -76q-51 4 -92 32q-96 -96 -200 -120q-44 0 -50 41q141 60 195 113q-35 30 -38 73v6q0 36 41 87q44 56 81 59h8q56 0 63 -72zM452 1039q-19 -1 -35 -21q-11 -15 -13 -29q2 -17 19.5 -31.5t25.5 -17.5q12 1 28 32
q8 18 8 34v7q-2 22 -33 26zM630 272q-16 52 -64 95.5t-101 43.5q-39 0 -66 -24.5t-27 -62.5q0 -54 186 -54q51 0 72 2zM785 276h178v-274h-178q-8 -74 -24 -135q-46 -198 -189 -354q-30 -34 -51.5 -44.5t-55.5 -10.5h-20q-74 0 -187 12q-170 21 -170 56q0 30 73 61
q153 61 248 117q127 75 190 134q80 87 95 160q-93 -3 -131 -3q-327 0 -327 170q0 36 26 142q87 354 239 354q127 0 208 -142q58 -103 76 -243z" />
    <glyph glyph-name="uni0678.init" unicode="&#x678;" horiz-adv-x="546" 
d="M349 392q0 -142 -64 -251q-81 -139 -233 -139h-68v274h56q178 0 178 53q0 45 -161 192l131 201q6 6 15 6q5 0 11 -2q74 -63 110 -178q25 -76 25 -156zM535 1035l-39 -68q-185 -61 -293 -143q-11 31 -11 42q0 14 5 16q17 20 89 73q-79 41 -79 90q0 46 62 106t109 62h2
q54 0 83 -43q18 -25 18 -34q0 -15 -22 -15q-9 0 -75 7q-34 0 -70 -12q-20 -15 -22 -27q0 -7 29.5 -34t54.5 -34q36 10 132 40q6 0 18 4q16 0 16 -12q0 -10 -7 -18z" />
    <glyph glyph-name="uni0678.medi" unicode="&#x678;" horiz-adv-x="598" 
d="M626 2h-157q-156 0 -211 171q-51 -171 -198 -171h-77v274h51q143 0 183 190q12 58 47 58q30 0 37 -58q22 -190 168 -190h157v-274zM582 886l-38 -68q-191 -61 -294 -140q-7 32 -7 44q0 7 3 15q19 24 87 69q-75 39 -77 90v3q0 50 59 106q60 57 109 57q58 0 86 -40
q20 -25 20 -35t-24 -10q-14 0 -24 1q-15 0 -49 3q-45 0 -72 -15q-20 -9 -20 -22q0 -10 29 -38q15 -16 52 -35q33 10 133 43q10 1 18 1q18 0 18 -9q0 -3 -9 -20z" />
    <glyph glyph-name="uni0678.fina" unicode="&#x678;" horiz-adv-x="1525" 
d="M1553 2h-467q-186 0 -186 -49q0 -41 186 -41h196q145 0 145 -121q0 -216 -283 -297q-163 -45 -457 -45q-206 0 -338 65q-189 89 -189 286q0 78 27 185q29 113 68 171q23 37 49 37q25 0 25 -32q0 -8 -3 -31q-36 -77 -36 -162v-3q0 -137 162 -221q147 -75 388 -77h11
q269 0 413 46q48 16 48 31q0 20 -63 20h-251q-218 0 -219 124v2q0 47 41 114q169 272 578 272h155v-274zM1477 571l-39 -68q-185 -59 -293 -142q-8 22 -8 43q0 12 1 16q22 22 91 71q-75 41 -75 92t57.5 107.5t109.5 56.5h5q48 0 80 -40q17 -27 17 -36q0 -11 -23 -12
q-2 0 -26 1l-46 4q-88 0 -95 -37q0 -10 32 -36q17 -20 51 -35q14 3 57 17.5t76 23.5q13 4 22 4q12 0 12 -10q0 -6 -6 -20z" />
    <glyph glyph-name="uni067C.init" unicode="&#x67c;" horiz-adv-x="518" 
d="M485 988q5 -5 5 -11t-5 -12l-104 -105q-7 -6 -13 -6t-12 6l-101 104l-99 -104q-5 -5 -13 -5q-4 0 -10 5l-106 105q-6 5 -6 12t7 15l97 100q6 6 14 6q4 0 12 -6l100 -100l100 100q6 5 12 5q7 0 13 -5zM300 -108q0 18 -87.5 64t-112.5 46q-13 0 -23 -31q-8 -27 -8 -43
q0 -76 108 -76q123 0 123 40zM41 2h-69v274h238q177 0 177 53q0 45 -157 192l128 201q5 8 12 8q5 0 11 -4q64 -53 103 -151q34 -90 34 -183q0 -146 -63 -251q-58 -95 -147 -126q45 -47 45 -95q0 -84 -53 -147q-57 -67 -142 -67q-151 0 -151 136q0 53 33 156q1 2 1 4z" />
    <glyph glyph-name="uni067C.medi" unicode="&#x67c;" horiz-adv-x="613" 
d="M489 804q4 -4 4 -9t-5 -10l-108 -106q-3 -7 -8 -7t-12 7l-102 101l-101 -101q-4 -4 -10 -4q-7 0 -13 4l-106 104q-6 6 -6 12q0 7 7 14l101 100q4 6 11 6q6 0 16 -6l96 -100l101 100q7 5 13 5t12 -5zM300 -108q0 18 -87.5 64t-112.5 46q-13 0 -23 -31q-8 -27 -8 -43
q0 -76 108 -76q123 0 123 40zM41 2h-69v274h165q149 0 187 190q11 58 45 58q35 0 41 -58q20 -190 165 -190h66v-274h-66q-153 0 -212 171q-27 -91 -80 -134q70 -59 70 -119q0 -84 -53 -147q-57 -67 -142 -67q-151 0 -151 136q0 53 33 156q1 2 1 4z" />
    <glyph glyph-name="uni067C.fina" unicode="&#x67c;" horiz-adv-x="1781" 
d="M1074 730q3 -4 3 -9q0 -7 -3 -12l-107 -107q-4 -3 -10 -3q-7 0 -12 3l-104 104l-100 -104q-5 -5 -10 -5t-10 5l-108 105q-8 6 -8 12q0 7 10 15l96 101q8 5 14 5t15 -5l97 -101l100 101q8 5 14 5q7 0 13 -5zM801 -132q-6 0 -13 -1q-9 -5 -17 -29q-8 -27 -8 -43
q0 -77 109 -77q123 0 123 41q0 18 -88 64q-76 39 -106 45zM735 -136q-42 -2 -85 -2q-490 0 -490 392q0 122 56 224q15 22 32 22q29 0 29 -45q0 -4 -10 -87q0 -179 246 -220q78 -14 215 -14q521 0 799 278q39 39 61 39q19 0 29 -24v-7q0 -17 -7 -32q-9 -20 -9 -47
q0 -63 131 -63h77v-276h-63q-119 0 -182 73q-40 47 -59 122q-109 -134 -246 -209q-117 -63 -268 -94q56 -53 56 -107q0 -84 -52 -147q-58 -67 -143 -67q-151 0 -151 136q0 53 34 155z" />
    <glyph glyph-name="uni067D.init" unicode="&#x67d;" horiz-adv-x="499" 
d="M499 392q0 -146 -62 -251q-83 -139 -235 -139h-230v274h220q177 0 177 53q0 45 -157 192l128 201q5 8 12 8q5 0 11 -4q64 -53 103 -151q33 -90 33 -183zM270 805q-5 -6 -12 -6q-8 0 -13 6l-97 99q-8 8 -8 15q0 6 7 12l105 103q6 2 12 2t8 -2l105 -105q5 -6 5 -12
q0 -5 -5 -10zM379 1010q-6 -6 -13 -6t-14 6l-100 101l-97 -101q-8 -6 -15 -6q-6 0 -12 6l-100 101q-7 9 -7 15q0 7 7 12l106 105q7 6 13 6t10 -6l101 -103l102 103q4 3 10 3q7 0 10 -3l108 -107q5 -7 5 -12q0 -6 -5 -10z" />
    <glyph glyph-name="uni067D.medi" unicode="&#x67d;" horiz-adv-x="622" 
d="M650 2h-66q-153 0 -212 171q-49 -171 -195 -171h-205v274h174q149 0 187 190q12 58 45 58q35 0 41 -58q20 -190 165 -190h66v-274zM270 656q-5 -7 -12 -7q-8 0 -13 7l-97 97q-6 7 -6 14t5 13l105 99q6 7 12 7t8 -7l105 -101q3 -7 3 -12t-3 -11zM379 861q-6 -7 -13 -7
t-14 7l-100 98l-97 -98q-8 -7 -15 -7q-6 0 -12 7l-100 98q-5 9 -5 16t5 12l106 103q7 6 13 6t10 -6l101 -101l102 101q4 5 10 5q7 0 10 -5l108 -105q2 -7 2 -12t-2 -10z" />
    <glyph glyph-name="uni067D.fina" unicode="&#x67d;" horiz-adv-x="1781" 
d="M1809 2h-63q-119 0 -182 73q-40 47 -59 122q-109 -134 -246 -209q-235 -126 -609 -126q-490 0 -490 392q0 122 56 224q15 22 32 22q29 0 29 -45q0 -4 -10 -87q0 -179 246 -220q78 -14 215 -14q521 0 799 278q39 39 61 39q19 0 29 -24v-7q0 -17 -7 -32q-9 -20 -9 -47
q0 -63 131 -63h77v-276zM851 526q-6 -6 -12 -6q-7 0 -14 6l-97 96q-6 11 -6 19q0 6 3 10l106 101q6 7 12 7q5 0 10 -7l104 -102q6 -7 6 -14q0 -4 -2 -8zM963 731q-11 -7 -18 -7t-12 7l-98 96l-98 -96q-8 -7 -15 -7t-14 7l-95 96q-10 10 -10 19q0 7 6 14l106 100q6 6 12 6
t12 -6l98 -100l101 100q6 6 13 6q6 0 13 -6l103 -102q6 -7 6 -13t-4 -10z" />
    <glyph glyph-name="uni0681.init" unicode="&#x681;" horiz-adv-x="1167" 
d="M1157 466l-74 -142q-22 -29 -38 -29h-91q-66 0 -207 -76q-229 -126 -269 -142q-172 -75 -342 -75h-164v274h156q169 0 281 26q51 11 241 78q-44 14 -222 83q-129 51 -164 51q-52 0 -87 -28q-12 -14 -46 -47q-15 -22 -39 -22q-32 0 -32 36q0 17 1 25q25 69 87 144
q86 109 182 109q54 0 190 -50q212 -79 276 -99q190 -56 331 -65q38 -3 40 -20q0 -13 -10 -31zM523 1035l-41 -66q-183 -59 -291 -144q-10 24 -10 46q0 10 1 14q22 21 92 71q-76 41 -76 92q0 50 57.5 107t110.5 58h5q48 0 81 -41q17 -26 17 -35q0 -10 -25 -14l-24 2l-46 4
q-88 0 -97 -38q0 -8 33 -33q18 -23 52 -36q12 3 56 16.5t77 23.5q12 4 20 4q14 0 14 -8t-6 -23z" />
    <glyph glyph-name="uni0681.medi" unicode="&#x681;" horiz-adv-x="1208" 
d="M1236 2h-165q-195 0 -256 106q-34 60 -38 228q-167 -147 -250 -202q-208 -132 -397 -132h-158v274h122q154 0 321 57q103 33 258 112q-358 100 -437 100q-37 0 -71 -26q-8 -9 -43 -46q-22 -25 -45 -25q-28 0 -28 36q0 12 6 30q20 65 81 144q88 117 182 117q64 0 178 -33
q171 -51 224 -63q207 -45 402 -63q41 -4 41 -22q0 -15 -12 -35l-97 -167q-74 8 -114 10h-6q-70 0 -70 -44q0 -82 202 -82h170v-274zM527 1066l-41 -66q-183 -59 -292 -144q-10 24 -10 46q0 10 2 14q22 21 91 71q-75 41 -75 92q0 50 57 107t110 58h5q48 0 82 -41
q17 -26 17 -35q0 -10 -25 -14l-24 2l-47 4q-87 0 -96 -38q0 -8 33 -33q18 -23 52 -36q11 3 55.5 16.5t77.5 23.5q11 4 20 4q13 0 13 -8t-5 -23z" />
    <glyph glyph-name="uni0681.fina" unicode="&#x681;" horiz-adv-x="1335" 
d="M1363 2h-133q-188 0 -263 91q-69 85 -69 297q-221 -37 -348 -168q-122 -124 -124 -297v-4q0 -180 167 -265q128 -67 332 -68h21q105 0 233 18q28 4 44 4q45 0 48 -34q0 -41 -137 -78q-159 -43 -338 -43q-250 0 -419 87q-217 112 -217 336q0 332 404 506q93 39 210 69
q-242 32 -346 32q-61 0 -102 -34q-22 -24 -42 -49q-26 -28 -55 -30q-27 0 -27 35q0 5 4 20q20 77 72 156q87 133 201 136q59 0 189 -28q148 -31 201 -36q302 -24 411 -24q47 0 47 -19q0 -22 -71 -136q-43 -69 -68 -69q-160 0 -204 -3q0 -128 174 -128h205v-274zM822 1046
l-41 -66q-183 -59 -291 -144q-10 24 -10 46q0 10 2 14q21 21 91 71q-76 41 -76 92q0 50 57.5 107t110.5 58h5q48 0 81 -41q18 -26 18 -35q0 -10 -26 -14l-24 2l-46 4q-88 0 -97 -38q0 -8 33 -33q18 -23 52 -36q12 3 56 16.5t77 23.5q12 4 20 4q14 0 14 -8t-6 -23z" />
    <glyph glyph-name="uni0682.init" unicode="&#x682;" horiz-adv-x="1167" 
d="M1157 466l-74 -142q-22 -29 -38 -29h-91q-66 0 -207 -76q-229 -126 -269 -142q-172 -75 -342 -75h-164v274h156q169 0 281 26q51 11 241 78q-44 14 -222 83q-129 51 -164 51q-52 0 -87 -28q-12 -14 -46 -47q-15 -22 -39 -22q-32 0 -32 36q0 17 1 25q25 69 87 144
q86 109 182 109q54 0 190 -50q212 -79 276 -99q190 -56 331 -65q38 -3 40 -20q0 -13 -10 -31zM540 1115h-1l-114 109q-6 5 -6 12q0 9 8 20l107 105q6 8 13 8t14 -8l117 -110q4 -5 4 -11t-6 -13l-112 -112q1 0 1 -1l118 -110q4 -5 4 -11t-6 -13l-112 -112q-7 -6 -12 -6t-14 6
l-114 109q-6 5 -6 12q0 9 8 20l108 105z" />
    <glyph glyph-name="uni0682.medi" unicode="&#x682;" horiz-adv-x="1208" 
d="M1236 2h-165q-195 0 -256 106q-34 60 -38 228q-167 -147 -250 -202q-208 -132 -397 -132h-158v274h122q154 0 321 57q103 33 258 112q-358 100 -437 100q-37 0 -71 -26q-8 -9 -43 -46q-22 -25 -45 -25q-28 0 -28 36q0 12 6 30q20 65 81 144q88 117 182 117q64 0 178 -33
q171 -51 224 -63q207 -45 402 -63q41 -4 41 -22q0 -15 -12 -35l-97 -167q-74 8 -114 10h-6q-70 0 -70 -44q0 -82 202 -82h170v-274zM610 1110l-109 103q-8 6 -8 14t10 18l107 105q6 7 12 7t13 -7l118 -110q6 -5 6 -11t-6 -13l-109 -106l113 -106q6 -5 6 -11t-6 -13
l-114 -112q-6 -6 -11 -6q-6 0 -12 6l-114 109q-8 6 -8 14t10 18z" />
    <glyph glyph-name="uni0682.fina" unicode="&#x682;" horiz-adv-x="1335" 
d="M1363 2h-133q-188 0 -263 91q-69 85 -69 297q-221 -37 -348 -168q-122 -124 -124 -297v-4q0 -180 167 -265q128 -67 332 -68h21q105 0 233 18q28 4 44 4q45 0 48 -34q0 -41 -137 -78q-159 -43 -338 -43q-250 0 -419 87q-217 112 -217 336q0 332 404 506q93 39 210 69
q-242 32 -346 32q-61 0 -102 -34q-22 -24 -42 -49q-26 -28 -55 -30q-27 0 -27 35q0 5 4 20q20 77 72 156q87 133 201 136q59 0 189 -28q148 -31 201 -36q302 -24 411 -24q47 0 47 -19q0 -22 -71 -136q-43 -69 -68 -69q-160 0 -204 -3q0 -128 174 -128h205v-274zM664 1219
q-5 5 -5 12q0 9 8 21l105 105q7 7 14 7q8 0 15 -7l113 -111q7 -6 7 -12q0 -5 -7 -11l-110 -110l112 -109q7 -6 7 -12t-7 -12l-113 -112q-4 -6 -10 -6t-13 6l-114 109q-6 5 -6 12q0 9 8 20l106 105z" />
    <glyph glyph-name="uni0685.init" unicode="&#x685;" horiz-adv-x="1167" 
d="M1157 466l-74 -142q-22 -29 -38 -29h-91q-66 0 -207 -76q-229 -126 -269 -142q-172 -75 -342 -75h-164v274h156q169 0 281 26q51 11 241 78q-44 14 -222 83q-129 51 -164 51q-52 0 -87 -28q-12 -14 -46 -47q-15 -22 -39 -22q-32 0 -32 36q0 17 1 25q25 69 87 144
q86 109 182 109q54 0 190 -50q212 -79 276 -99q190 -56 331 -65q38 -3 40 -20q0 -13 -10 -31zM413 1306q7 6 14 6t14 -6l96 -97q7 -8 7 -16q0 -6 -4 -12l-107 -101q-7 -6 -12 -6t-8 6l-104 103q-6 6 -6 13q0 6 4 12zM304 1101q8 7 15 7t14 -7l96 -101l99 101q9 7 15 7
q8 0 14 -7l96 -101q10 -7 10 -14q0 -6 -6 -12l-106 -102q-6 -6 -13 -6q-6 0 -12 6l-99 100l-101 -100q-7 -7 -13 -7t-10 7l-104 104q-8 6 -8 13q0 5 6 10z" />
    <glyph glyph-name="uni0685.medi" unicode="&#x685;" horiz-adv-x="1208" 
d="M1236 2h-165q-195 0 -256 106q-34 60 -38 228q-167 -147 -250 -202q-208 -132 -397 -132h-158v274h122q154 0 321 57q103 33 258 112q-358 100 -437 100q-37 0 -71 -26q-8 -9 -43 -46q-22 -25 -45 -25q-28 0 -28 36q0 12 6 30q20 65 81 144q88 117 182 117q64 0 178 -33
q171 -51 224 -63q207 -45 402 -63q41 -4 41 -22q0 -15 -12 -35l-97 -167q-74 8 -114 10h-6q-70 0 -70 -44q0 -82 202 -82h170v-274zM415 1319q6 6 13 6t15 -6l96 -97q7 -8 7 -16q0 -7 -5 -13l-106 -100q-7 -6 -12 -6t-8 6l-104 102q-6 7 -6 14q0 6 4 12zM305 1113q8 7 16 7
q7 0 14 -7l96 -100l99 100q9 8 15 8q8 0 14 -8l96 -100q10 -7 10 -14q0 -6 -6 -12l-106 -102q-6 -6 -13 -6q-6 0 -12 6l-99 100l-101 -100q-7 -7 -13 -7t-10 7l-104 103q-8 7 -8 13t6 11z" />
    <glyph glyph-name="uni0685.fina" unicode="&#x685;" horiz-adv-x="1340" 
d="M1368 2h-131q-189 0 -266 102q-66 86 -66 286q-197 -34 -323 -148q-144 -128 -144 -317q0 -163 127.5 -249.5t366.5 -87.5h21q106 0 233 18q26 4 48 4q48 0 48 -34q0 -39 -141 -78q-156 -43 -337 -43q-246 0 -418 89q-219 112 -219 334q0 226 190 378q158 128 428 197
q-244 32 -347 32q-65 0 -102 -34q-18 -18 -55 -59q-20 -18 -41 -20q-26 0 -26 35v20q21 71 77 156q86 133 195 136q39 0 182 -28q150 -31 211 -36q309 -24 408 -24q49 0 49 -19q0 -18 -18.5 -48.5t-50.5 -87.5q-45 -69 -69 -69q-159 0 -205 -3q0 -128 177 -128h198v-274z
M666 1285q6 5 13 5q6 0 13 -5l98 -98q6 -8 6 -16q0 -6 -4 -11l-108 -100q-6 -7 -11 -7t-9 7l-104 102q-4 4 -4 10q0 4 4 11zM558 1078q7 7 14 7t14 -7l97 -98l98 98q8 8 15 8t12 -8l99 -98q7 -9 7 -16q0 -6 -5 -11l-105 -104q-9 -4 -14 -4t-12 4l-98 104l-104 -104
q-5 -6 -12 -6q-6 0 -10 6l-105 106q-5 4 -5 10q0 4 5 12z" />
    <glyph glyph-name="uni0689.fina" unicode="&#x689;" horiz-adv-x="1120" 
d="M419 -5h-24q-8 -8 -14 -28q-9 -26 -9 -43q0 -76 109 -76q123 0 123 40q0 18 -88 65q-66 34 -97 42zM345 -4q-113 11 -158 89q-26 43 -26 106q0 134 44 232q22 47 49 47q25 0 29 -31q0 -18 -5 -37q0 -10 -2 -24v-18q0 -99 168 -99q211 0 343 119l-141 378l124 139
q11 14 21 14q6 0 13 -21l149 -447q56 -167 155 -167h40v-274h-68q-112 0 -178 103q-29 44 -81 190q-70 -132 -131 -188q-47 -44 -104 -71q71 -59 71 -120q0 -84 -53 -146q-58 -68 -142 -68q-152 0 -152 137q0 53 34 156z" />
    <glyph glyph-name="uni068A.fina" unicode="&#x68a;" horiz-adv-x="1119" 
d="M1147 2h-68q-112 0 -178 103q-29 44 -81 190q-70 -132 -131 -188q-119 -112 -305 -112q-145 0 -198 90q-26 43 -26 106q0 134 44 232q22 47 49 47q25 0 29 -31q0 -18 -5 -37q0 -10 -2 -24v-18q0 -99 168 -99q211 0 343 119l-141 378l124 139q11 14 21 14q6 0 13 -21
l149 -447q56 -167 155 -167h40v-274zM571 -257q6 -6 6 -12t-6 -13l-112 -112q-7 -6 -12 -6q-7 0 -12 6l-116 110q-4 6 -4 12q0 9 8 17l105 108q7 5 14 5q5 0 15 -5z" />
    <glyph glyph-name="uni068B.fina" unicode="&#x68b;" horiz-adv-x="1119" 
d="M1147 2h-68q-112 0 -178 103q-29 44 -81 190q-70 -132 -131 -188q-119 -112 -305 -112q-145 0 -198 90q-26 43 -26 106q0 134 44 232q22 47 49 47q25 0 29 -31q0 -18 -5 -37q0 -10 -2 -24v-18q0 -99 168 -99q211 0 343 119l-141 378l124 139q11 14 21 14q6 0 13 -21
l149 -447q56 -167 155 -167h40v-274zM571 -257q6 -6 6 -12t-6 -13l-112 -112q-7 -6 -12 -6q-7 0 -12 6l-116 110q-4 6 -4 12q0 9 8 17l105 108q7 5 14 5q5 0 15 -5zM999 1278q0 -46 -52 -101q-76 -84 -181 -108q-48 -12 -137 -12q-54 0 -192 107q-13 10 -13 18q0 11 18 11h6
l143 -14q13 31 13 77q0 108 -43 226l68 78q8 10 13 10q4 0 9 -11l49 -106q6 -10 6 -18t-10 -8q-12 0 -31 6q0 -81 -10 -138l-15 -75q161 135 270 136h3q34 0 60 -21q26 -22 26 -57zM914 1224v1q0 21 -26 37q-26 12 -48 12q-77 0 -197 -97q39 -4 83 -4q187 0 188 51z" />
    <glyph glyph-name="uni068F.fina" unicode="&#x68f;" horiz-adv-x="1120" 
d="M1148 2h-68q-112 0 -178 103q-29 44 -81 190q-70 -132 -131 -188q-119 -112 -305 -112q-145 0 -198 90q-26 43 -26 106q0 134 44 232q22 47 49 47q25 0 29 -31q0 -18 -5 -37q0 -10 -2 -24v-18q0 -99 168 -99q211 0 343 119l-141 378l124 139q11 14 21 14q6 0 13 -21
l149 -447q56 -167 155 -167h40v-274zM780 1350l-114 -110q-10 -5 -16 -5t-13 5l-105 108q-8 8 -8 17q0 6 4 12l116 111q4 5 12 5q4 0 12 -5l112 -112q1 -1 1 -2l112 112q7 5 12 5q7 0 12 -5l115 -110q5 -7 5 -13q0 -9 -8 -16l-105 -109q-7 -4 -14 -4q-5 0 -15 4l-114 110
q0 2 -1 2zM791 998q-10 -5 -16 -5t-14 5l-104 109q-8 8 -8 16q0 6 4 12l116 110q4 6 12 6q4 0 11 -6l112 -111q6 -6 6 -13q0 -6 -6 -12z" />
    <glyph glyph-name="uni0690.fina" unicode="&#x690;" horiz-adv-x="1120" 
d="M1148 2h-68q-112 0 -178 103q-29 44 -81 190q-70 -132 -131 -188q-119 -112 -305 -112q-145 0 -198 90q-26 43 -26 106q0 134 44 232q22 47 49 47q25 0 29 -31q0 -18 -5 -37q0 -10 -2 -24v-18q0 -99 168 -99q211 0 343 119l-141 378l124 139q11 14 21 14q6 0 13 -21
l149 -447q56 -167 155 -167h40v-274zM655 1186l-4 4l-116 110q-4 7 -4 13q0 8 8 16l105 109q7 4 14 4q5 0 15 -4l114 -111l2 2l114 110q10 5 14 5q7 0 14 -5l106 -108q7 -8 7 -15t-5 -14l-115 -110q-1 -2 -3 -3q6 -1 12 -5l105 -108q8 -8 8 -16q0 -6 -5 -13l-115 -110
q-5 -6 -12 -6q-5 0 -11 6l-112 112l-2 -2l-112 -112q-8 -6 -12 -6q-7 0 -12 6l-116 110q-4 6 -4 12q0 9 8 17l105 109q4 2 9 3zM910 1186q-5 2 -9 6l-112 112l-2 -2l-112 -112q-4 -3 -7 -5q3 -1 7 -2l114 -111l2 2l113 110z" />
    <glyph glyph-name="uni0692.fina" unicode="&#x692;" horiz-adv-x="837" 
d="M865 2h-61q-21 0 -40 15v-15q0 -169 -65 -311q-69 -149 -174 -224q-24 -6 -56 -8q-16 -1 -33 -1q-71 0 -174 13q-170 19 -170 57q0 31 73 61q170 72 248 116q119 68 192 136.5t73 122.5v1q0 92 -243 265l135 209q8 9 24 21q7 0 25 -21q136 -163 213 -163h33v-274z
M620 552h-93l-224 293h98l173 -167l175 167h98z" />
    <glyph glyph-name="uni0693.fina" unicode="&#x693;" horiz-adv-x="837" 
d="M512 -536q-19 -4 -43 -5q-8 0 -18 -1q-2 -6 -5 -13q-8 -26 -8 -43q0 -76 109 -76q123 0 123 40q0 18 -88 65q-43 21 -70 33zM405 -541q-61 2 -143 12q-170 19 -170 57q0 31 73 61q170 72 248 116q119 68 192 136.5t73 122.5v1q0 92 -243 265l135 209q8 9 24 21
q7 0 25 -21q136 -163 213 -163h33v-274h-61q-21 0 -40 15v-15q0 -169 -65 -312q-39 -84 -90 -145q8 -5 17 -11q96 -69 96 -140q0 -84 -52 -147q-58 -67 -143 -67q-151 0 -151 137q0 49 29 142z" />
    <glyph glyph-name="uni0694.fina" unicode="&#x694;" horiz-adv-x="837" 
d="M865 2h-61q-21 0 -40 15v-15q0 -169 -65 -311q-69 -149 -174 -224q-24 -6 -56 -8q-16 -1 -33 -1q-71 0 -174 13q-170 19 -170 57q0 31 73 61q170 72 248 116q119 68 192 136.5t73 122.5v1q0 92 -243 265l135 209q8 9 24 21q7 0 25 -21q136 -163 213 -163h33v-274z
M479 -741q-6 5 -6 10q0 7 8 14l111 112q6 6 11 6q6 0 12 -6l117 -110q4 -6 4 -11q0 -9 -9 -18l-102 -107q-8 -7 -16 -7t-17 7z" />
    <glyph glyph-name="uni0695.fina" unicode="&#x695;" horiz-adv-x="837" 
d="M865 2h-61q-21 0 -40 15v-15q0 -169 -65 -311q-69 -149 -174 -224q-24 -6 -56 -8q-16 -1 -33 -1q-71 0 -174 13q-170 19 -170 57q0 31 73 61q170 72 248 116q119 68 192 136.5t73 122.5v1q0 92 -243 265l135 209q8 9 24 21q7 0 25 -21q136 -163 213 -163h33v-274z
M483 -929h-93l-224 293h97l173 -168l175 168h99z" />
    <glyph glyph-name="uni0696.fina" unicode="&#x696;" horiz-adv-x="837" 
d="M865 2h-61q-21 0 -40 15v-15q0 -169 -65 -311q-69 -149 -174 -224q-24 -6 -56 -8q-16 -1 -33 -1q-71 0 -174 13q-170 19 -170 57q0 31 73 61q170 72 248 116q119 68 192 136.5t73 122.5v1q0 92 -243 265l135 209q8 9 24 21q7 0 25 -21q136 -163 213 -163h33v-274z
M479 -741q-6 5 -6 10q0 7 8 14l111 112q6 6 11 6q6 0 12 -6l117 -110q4 -6 4 -11q0 -9 -9 -18l-102 -107q-8 -7 -16 -7t-17 7zM486 -65q6 -5 6 -10q0 -6 -7 -13l-112 -112q-6 -8 -10 -8q-8 0 -12 8l-118 110q-4 5 -4 10q0 9 10 19l101 107q8 8 16 8t17 -8z" />
    <glyph glyph-name="uni0697.fina" unicode="&#x697;" horiz-adv-x="837" 
d="M865 2h-61q-21 0 -40 15v-15q0 -169 -65 -311q-69 -149 -174 -224q-24 -6 -56 -8q-16 -1 -33 -1q-71 0 -174 13q-170 19 -170 57q0 31 73 61q170 72 248 116q119 68 192 136.5t73 122.5v1q0 92 -243 265l135 209q8 9 24 21q7 0 25 -21q136 -163 213 -163h33v-274z
M779 691q5 -5 5 -10q0 -7 -6 -14l-104 -104q-6 -6 -12 -6t-12 6l-103 100l-99 -100q-5 -7 -11 -7q-5 0 -12 7l-105 102q-7 7 -7 13q0 7 9 14l98 102q6 6 12 6q7 0 13 -6l101 -102l99 102q6 5 12 5q7 0 14 -5z" />
    <glyph glyph-name="uni0699.fina" unicode="&#x699;" horiz-adv-x="837" 
d="M865 2h-61q-21 0 -40 15v-15q0 -169 -65 -311q-69 -149 -174 -224q-24 -6 -56 -8q-16 -1 -33 -1q-71 0 -174 13q-170 19 -170 57q0 31 73 61q170 72 248 116q119 68 192 136.5t73 122.5v1q0 92 -243 265l135 209q8 9 24 21q7 0 25 -21q136 -163 213 -163h33v-274z
M415 789l-101 98q-6 6 -6 13q0 8 8 15l99 101q6 6 12 6t13 -6l100 -101l100 101q5 6 11 6q7 0 14 -6l108 -103q6 -5 6 -11t-6 -13l-99 -98l105 -100q5 -5 5 -10q0 -7 -6 -14l-104 -104q-6 -6 -12 -6t-12 6l-103 100l-99 -100q-5 -7 -11 -7q-5 0 -12 7l-105 102q-7 7 -7 13
q0 7 9 14zM640 789l-99 97l-93 -95l98 -99z" />
    <glyph glyph-name="uni069A.init" unicode="&#x69a;" horiz-adv-x="940" 
d="M940 354q0 -135 -55 -236q-67 -116 -179 -116q-111 0 -159 112q-13 -45 -62 -78.5t-102 -33.5q-109 0 -168 103q-19 -40 -58 -69q-46 -34 -89 -34h-96v274h96q67 0 94 45q12 17 28 86q8 39 35 42q26 0 34 -44q10 -67 25 -84q26 -45 99 -45q65 0 90 45q15 27 25 86
q9 42 36 42t37 -42q5 -61 31 -86q35 -45 147 -45q81 0 81 65q0 54 -81 156l99 135q10 14 18 14q11 0 17 -15q57 -129 57 -277zM663 -240q5 -5 5 -9q0 -5 -7 -9l-100 -105q-8 -5 -15 -5t-13 5l-101 103q-5 5 -5 11q0 7 7 13l96 98q6 6 13 6t14 -6zM535 685q-7 -6 -14 -6
q-6 0 -12 6l-97 98q-8 7 -8 13t6 11l101 104q8 5 15 5t13 -5l100 -105q6 -6 6 -11q0 -4 -4 -8z" />
    <glyph glyph-name="uni069A.medi" unicode="&#x69a;" horiz-adv-x="879" 
d="M907 2h-49q-71 0 -120 93q-52 -97 -132 -97q-90 0 -149 95q-58 -91 -136 -91q-85 0 -146 88q-14 -23 -53 -53q-47 -35 -93 -35h-57v274h52q58 0 75 45q3 6 21 86q8 39 37 42q28 0 37 -44q7 -31 20 -84q18 -45 68 -45q63 0 92 45q3 18 22 86q5 42 35 42q26 0 39 -42
q14 -78 20 -86q26 -45 81 -45q54 0 76 45q3 13 18 86q10 42 41 42q20 0 34 -42q14 -64 24 -84q22 -47 78 -47h65v-274zM561 -240q5 -5 5 -9q0 -5 -6 -9l-101 -105q-6 -5 -13 -5t-14 5l-101 103q-7 5 -7 11t9 13l96 98q6 6 13 6t14 -6zM443 685q-7 -6 -14 -6q-6 0 -12 6
l-97 98q-7 7 -7 13t5 11l101 104q7 6 14 6t14 -6l100 -105q7 -5 7 -10q0 -4 -5 -9z" />
    <glyph glyph-name="uni069A.fina" unicode="&#x69a;" horiz-adv-x="1918" 
d="M1946 2h-50q-71 0 -118 93q-57 -97 -132 -97q-87 0 -150 95q-37 -52 -54 -67q-28 -24 -79 -24q-57 0 -107 16q0 -254 -134 -398q-151 -163 -440 -165h-10q-208 0 -344 85q-168 102 -168 304q0 105 32 207q29 85 59 128q24 36 48 36q22 0 22 -30q0 -12 -7 -34
q-34 -100 -34 -173q0 -244 407 -246h16q131 0 258 32q211 57 213 175v1q0 79 -225 318l110 197q17 23 26 23q12 0 24 -17q70 -91 104 -123q67 -62 128 -62q51 0 71 45q3 13 18 86q7 42 41 42q31 0 39 -42q16 -74 22 -86q17 -45 77 -45q51 0 72 45q9 33 20 86q12 42 45 42
q28 0 37 -42q14 -78 21 -84q20 -47 78 -47h64v-274zM1620 -258q5 -5 5 -9q0 -5 -6 -9l-101 -105q-6 -5 -13 -5q-6 0 -14 5l-101 103q-7 6 -7 11q0 7 9 13l96 98q6 6 13 6t14 -6zM1475 685q-7 -6 -14 -6t-13 6l-96 98q-8 6 -8 13q0 5 6 11l101 104q8 6 14 6q7 0 13 -6
l100 -105q7 -5 7 -10q0 -4 -5 -9z" />
    <glyph glyph-name="uni069B.init" unicode="&#x69b;" horiz-adv-x="940" 
d="M940 354q0 -135 -55 -236q-67 -116 -179 -116q-111 0 -159 112q-13 -45 -62 -78.5t-102 -33.5q-109 0 -168 103q-19 -40 -58 -69q-46 -34 -89 -34h-96v274h96q67 0 94 45q12 17 28 86q8 39 35 42q26 0 34 -44q10 -67 25 -84q26 -45 99 -45q65 0 90 45q15 27 25 86
q9 42 36 42t37 -42q5 -61 31 -86q35 -45 147 -45q81 0 81 65q0 54 -81 156l99 135q10 14 18 14q11 0 17 -15q57 -129 57 -277zM522 -558q-8 -6 -15 -6t-12 6l-97 97q-11 9 -11 15t10 10l104 103q6 3 10 3q6 0 12 -3l102 -105q7 -4 7 -9t-7 -10zM627 -353q-7 -8 -14 -8
q-6 0 -10 8l-100 98l-102 -98q-6 -6 -12 -6t-12 6l-98 98q-8 8 -8 15q0 6 6 12l106 105q6 4 12 4q4 0 10 -4l102 -105l101 105q7 4 11 4t13 -4l103 -107q8 -5 8 -10t-8 -11z" />
    <glyph glyph-name="uni069B.medi" unicode="&#x69b;" horiz-adv-x="879" 
d="M907 2h-49q-71 0 -120 93q-52 -97 -132 -97q-90 0 -149 95q-58 -91 -136 -91q-85 0 -146 88q-14 -23 -53 -53q-47 -35 -93 -35h-57v274h52q58 0 75 45q3 6 21 86q8 39 37 42q28 0 37 -44q7 -31 20 -84q18 -45 68 -45q63 0 92 45q3 18 22 86q5 42 35 42q26 0 39 -42
q14 -78 20 -86q26 -45 81 -45q54 0 76 45q3 13 18 86q10 42 41 42q20 0 34 -42q14 -64 24 -84q22 -47 78 -47h65v-274zM476 -578q-8 -6 -15 -6t-13 6l-96 98q-11 9 -11 15t8 9l103 103q8 4 14 4q5 0 12 -4l103 -104q5 -4 5 -9t-5 -10zM582 -373q-8 -7 -12 -7q-8 0 -14 7
l-98 99l-101 -99q-8 -7 -13 -7q-7 0 -12 7l-99 99q-8 9 -8 17q0 5 3 10l109 105q5 4 12 4t10 -4l101 -105l102 105q8 4 12 4q7 0 8 -4l108 -107q7 -5 7 -11q0 -5 -5 -10z" />
    <glyph glyph-name="uni069B.fina" unicode="&#x69b;" horiz-adv-x="1918" 
d="M1946 2h-50q-71 0 -118 93q-57 -97 -132 -97q-87 0 -150 95q-37 -52 -54 -67q-28 -24 -79 -24q-57 0 -107 16q0 -254 -134 -398q-151 -163 -440 -165h-10q-208 0 -344 85q-168 102 -168 304q0 105 32 207q29 85 59 128q24 36 48 36q22 0 22 -30q0 -12 -7 -34
q-34 -100 -34 -173q0 -244 407 -246h16q131 0 258 32q211 57 213 175v1q0 79 -225 318l110 197q17 23 26 23q12 0 24 -17q70 -91 104 -123q67 -62 128 -62q51 0 71 45q3 13 18 86q7 42 41 42q31 0 39 -42q16 -74 22 -86q17 -45 77 -45q51 0 72 45q9 33 20 86q12 42 45 42
q28 0 37 -42q14 -78 21 -84q20 -47 78 -47h64v-274zM1603 -552q-7 -6 -14 -6q-6 0 -12 6l-97 97q-12 9 -12 16q0 6 10 9l101 103q9 4 16 4q5 0 12 -4l100 -105q7 -5 7 -10q0 -4 -5 -9zM1711 -347q-8 -7 -14 -7q-8 0 -14 7l-98 98l-100 -98q-9 -7 -14 -7q-6 0 -12 7l-98 98
q-8 9 -8 17q0 6 6 11l106 104q6 4 11 4q7 0 10 -4l104 -104l100 104q7 4 11 4q8 0 12 -4l106 -106q4 -6 4 -11t-4 -10z" />
    <glyph glyph-name="uni069C.init" unicode="&#x69c;" horiz-adv-x="940" 
d="M940 354q0 -135 -55 -236q-67 -116 -179 -116q-111 0 -159 112q-13 -45 -62 -78.5t-102 -33.5q-109 0 -168 103q-19 -40 -58 -69q-46 -34 -89 -34h-96v274h96q67 0 94 45q12 17 28 86q8 39 35 42q26 0 34 -44q10 -67 25 -84q26 -45 99 -45q65 0 90 45q15 27 25 86
q9 42 36 42t37 -42q5 -61 31 -86q35 -45 147 -45q81 0 81 65q0 54 -81 156l99 135q10 14 18 14q11 0 17 -15q57 -129 57 -277zM625 1061q7 -4 7 -10q0 -4 -7 -8l-102 -105q-6 -3 -12 -3q-4 0 -10 3l-104 103q-10 4 -10 10t11 14l97 98q5 6 12 6t15 -6zM735 855q8 -5 8 -10
t-8 -10l-103 -107q-9 -4 -13 -4t-11 4l-101 105l-102 -105q-6 -4 -10 -4q-6 0 -12 4l-106 105q-6 6 -6 12q0 7 8 15l98 98q6 6 12 6t12 -6l102 -98l100 98q4 7 10 7q7 0 14 -7zM522 -604q-8 -6 -15 -6t-12 6l-97 97q-11 9 -11 16q0 6 10 9l104 103q6 4 10 4q6 0 12 -4
l102 -105q7 -3 7 -9q0 -4 -7 -10zM627 -399q-7 -7 -14 -7q-6 0 -10 7l-100 98l-102 -98q-6 -6 -12 -6t-12 6l-98 98q-8 9 -8 16q0 6 6 12l106 104q6 4 12 4q4 0 10 -4l102 -104l101 104q7 4 11 4t13 -4l103 -106q8 -6 8 -10q0 -6 -8 -11z" />
    <glyph glyph-name="uni069C.medi" unicode="&#x69c;" horiz-adv-x="879" 
d="M907 2h-49q-71 0 -120 93q-52 -97 -132 -97q-90 0 -149 95q-58 -91 -136 -91q-85 0 -146 88q-14 -23 -53 -53q-47 -35 -93 -35h-57v274h52q58 0 75 45q3 6 21 86q8 39 37 42q28 0 37 -44q7 -31 20 -84q18 -45 68 -45q63 0 92 45q3 18 22 86q5 42 35 42q26 0 39 -42
q14 -78 20 -86q26 -45 81 -45q54 0 76 45q3 13 18 86q10 42 41 42q20 0 34 -42q14 -64 24 -84q22 -47 78 -47h65v-274zM588 1061q5 -5 5 -9q0 -5 -5 -9l-104 -105q-6 -3 -12 -3q-5 0 -14 3l-102 103q-9 4 -9 9q0 7 11 15l97 98q6 6 13 6t14 -6zM698 855q5 -5 5 -9
q0 -6 -7 -11l-107 -107q-1 -4 -8 -4q-5 0 -12 4l-102 105l-101 -105q-4 -4 -10 -4q-8 0 -12 4l-110 105q-3 4 -3 9q0 8 9 18l98 98q6 7 12 7t14 -7l100 -98l98 98q7 7 14 7q5 0 13 -7zM476 -614q-8 -6 -15 -6t-13 6l-96 97q-11 10 -11 16t8 9l103 103q8 4 14 4q5 0 12 -4
l103 -105q5 -4 5 -9t-5 -10zM582 -409q-8 -7 -12 -7q-8 0 -14 7l-98 98l-101 -98q-8 -7 -13 -7q-7 0 -12 7l-99 98q-8 10 -8 18q0 5 3 10l109 104q5 4 12 4t10 -4l101 -104l102 104q8 4 12 4q7 0 8 -4l108 -106q7 -5 7 -11q0 -5 -5 -10z" />
    <glyph glyph-name="uni069C.fina" unicode="&#x69c;" horiz-adv-x="1918" 
d="M1946 2h-50q-71 0 -118 93q-57 -97 -132 -97q-87 0 -150 95q-37 -52 -54 -67q-28 -24 -79 -24q-57 0 -107 16q0 -254 -134 -398q-151 -163 -440 -165h-10q-208 0 -344 85q-168 102 -168 304q0 105 32 207q29 85 59 128q24 36 48 36q22 0 22 -30q0 -12 -7 -34
q-34 -100 -34 -173q0 -244 407 -246h16q131 0 258 32q211 57 213 175v1q0 79 -225 318l110 197q17 23 26 23q12 0 24 -17q70 -91 104 -123q67 -62 128 -62q51 0 71 45q3 13 18 86q7 42 41 42q31 0 39 -42q16 -74 22 -86q17 -45 77 -45q51 0 72 45q9 33 20 86q12 42 45 42
q28 0 37 -42q14 -78 21 -84q20 -47 78 -47h64v-274zM1599 1052q5 -5 5 -9q0 -5 -7 -9l-101 -105q-6 -3 -11 -3q-7 0 -16 3l-101 103q-10 3 -10 9t12 15l96 98q6 6 13 6t14 -6zM1709 845q4 -4 4 -9t-4 -11l-106 -106q-4 -4 -12 -4q-4 0 -12 4l-99 105l-104 -105q-3 -4 -10 -4
q-5 0 -12 4l-105 105q-6 5 -6 11q0 7 8 16l98 98q5 7 12 7q5 0 13 -7l101 -98l98 98q5 7 14 7q6 0 13 -7zM1603 -552q-7 -6 -14 -6q-6 0 -12 6l-97 97q-12 9 -12 16q0 6 10 9l101 103q9 4 16 4q5 0 12 -4l100 -105q7 -5 7 -10q0 -4 -5 -9zM1711 -347q-8 -7 -14 -7
q-8 0 -14 7l-98 98l-100 -98q-9 -7 -14 -7q-6 0 -12 7l-98 98q-8 9 -8 17q0 6 6 11l106 104q6 4 11 4q7 0 10 -4l104 -104l100 104q7 4 11 4q8 0 12 -4l106 -106q4 -6 4 -11t-4 -10z" />
    <glyph glyph-name="uni069D.init" unicode="&#x69d;" horiz-adv-x="1173" 
d="M1173 514q0 -112 -92 -238q-81 -108 -186 -176q-159 -98 -355 -98q-243 0 -329 91q-58 -91 -152 -91h-87v274h57q81 0 112 48q18 17 36 88q14 49 34 49q23 0 39 -44q24 -69 24 -83q21 -42 64 -42q117 156 294 278q191 134 350 136q72 0 131.5 -58t59.5 -134zM1005 356
q0 39 -59.5 81.5t-146.5 44.5h-6q-90 0 -185 -61q-87 -57 -151 -143q74 -12 168 -12q127 0 252.5 23t127.5 67zM926 -268q7 -4 7 -10q0 -4 -7 -10l-103 -106q-9 -4 -14 -4q-3 0 -11 4l-101 104l-102 -104q-5 -4 -10 -4t-12 4l-105 104q-6 6 -6 13t7 15l99 98q6 6 12 6t11 -6
l103 -98l100 98q3 6 10 6q6 0 13 -6z" />
    <glyph glyph-name="uni069D.medi" unicode="&#x69d;" horiz-adv-x="1212" 
d="M1240 2h-67q-77 0 -135 38t-84 102q-187 -140 -414 -140q-243 0 -329 91q-58 -91 -152 -91h-87v274h57q81 0 112 48q18 17 36 88q14 49 34 49q23 0 39 -44q24 -69 24 -83q21 -42 64 -42q120 153 290 273q199 141 354 141q72 0 131.5 -58t59.5 -134q0 -103 -71 -209
q23 -29 73 -29h65v-274zM1005 356q0 39 -59.5 81.5t-146.5 44.5h-6q-90 0 -185 -61q-87 -57 -151 -143q74 -12 168 -12q127 0 252.5 23t127.5 67zM879 -261q8 -5 8 -10t-8 -11l-103 -106q-9 -4 -13 -4t-11 4l-101 105l-102 -105q-6 -4 -10 -4q-6 0 -12 4l-106 105
q-6 6 -6 12q0 7 8 15l98 98q6 6 12 6t12 -6l102 -98l100 98q4 7 10 7q7 0 14 -7z" />
    <glyph glyph-name="uni069D.fina" unicode="&#x69d;" horiz-adv-x="2128" 
d="M2156 2h-76q-74 0 -132 38t-87 102q-183 -140 -395 -140q-76 0 -137 13q-23 7 -68 21q0 -579 -579 -581q-215 0 -354 85q-168 102 -168 304q0 105 32 207q29 85 59 128q24 36 48 36q22 0 22 -30q0 -12 -7 -34q-34 -100 -34 -173q0 -244 407 -246h16q131 0 258 32
q211 57 213 175v1q0 79 -225 318l110 197q17 23 26 23q12 0 24 -17q72 -93 169 -148q126 165 274 266q185 125 338 127q75 0 132.5 -58.5t57.5 -133.5q0 -105 -70 -209q24 -29 70 -29h76v-274zM1912 356q0 38 -56 83q-64 41 -147 43h-6q-91 0 -188 -63q-86 -56 -151 -141
q78 -12 172 -12q126 0 251 23t125 67zM1884 -229q7 -4 7 -10q0 -4 -7 -10l-103 -106q-9 -4 -14 -4q-4 0 -11 4l-101 104l-102 -104q-5 -4 -10 -4q-6 0 -12 4l-106 104q-6 6 -6 12q0 7 8 16l99 98q6 6 11 6q6 0 12 -6l102 -98l101 98q3 7 10 7q6 0 13 -7z" />
    <glyph glyph-name="uni069E.init" unicode="&#x69e;" horiz-adv-x="1173" 
d="M1173 514q0 -112 -92 -238q-81 -108 -186 -176q-159 -98 -355 -98q-243 0 -329 91q-58 -91 -152 -91h-87v274h57q81 0 112 48q18 17 36 88q14 49 34 49q23 0 39 -44q24 -69 24 -83q21 -42 64 -42q117 156 294 278q191 134 350 136q72 0 131.5 -58t59.5 -134zM1005 356
q0 39 -59.5 81.5t-146.5 44.5h-6q-90 0 -185 -61q-87 -57 -151 -143q74 -12 168 -12q127 0 252.5 23t127.5 67zM949 1146q5 -5 5 -9q0 -5 -7 -9l-100 -105q-7 -4 -12 -4q-7 0 -16 4l-101 103q-10 3 -10 9t12 15l97 98q6 6 12 6q7 0 14 -6zM1059 939q4 -4 4 -9t-4 -11
l-106 -106q-4 -4 -12 -4q-4 0 -12 4l-99 104l-104 -104q-3 -4 -10 -4q-5 0 -12 4l-105 104q-6 5 -6 11q0 7 8 17l98 98q5 7 12 7q5 0 13 -7l101 -98l98 98q6 7 14 7q6 0 13 -7z" />
    <glyph glyph-name="uni069E.medi" unicode="&#x69e;" horiz-adv-x="1212" 
d="M1240 2h-67q-77 0 -135 38t-84 102q-187 -140 -414 -140q-243 0 -329 91q-58 -91 -152 -91h-87v274h57q81 0 112 48q18 17 36 88q14 49 34 49q23 0 39 -44q24 -69 24 -83q21 -42 64 -42q120 153 290 273q199 141 354 141q72 0 131.5 -58t59.5 -134q0 -103 -71 -209
q23 -29 73 -29h65v-274zM1005 356q0 39 -59.5 81.5t-146.5 44.5h-6q-90 0 -185 -61q-87 -57 -151 -143q74 -12 168 -12q127 0 252.5 23t127.5 67zM949 1146q5 -5 5 -9q0 -5 -7 -9l-100 -105q-7 -4 -12 -4q-7 0 -16 4l-101 103q-10 3 -10 9t12 15l97 98q6 6 12 6q7 0 14 -6z
M1059 939q4 -4 4 -9t-4 -11l-106 -106q-4 -4 -12 -4q-4 0 -12 4l-99 104l-104 -104q-3 -4 -10 -4q-5 0 -12 4l-105 104q-6 5 -6 11q0 7 8 17l98 98q5 7 12 7q5 0 13 -7l101 -98l98 98q6 7 14 7q6 0 13 -7z" />
    <glyph glyph-name="uni069E.fina" unicode="&#x69e;" horiz-adv-x="2128" 
d="M2156 2h-76q-74 0 -132 38t-87 102q-183 -140 -395 -140q-76 0 -137 13q-23 7 -68 21q0 -579 -579 -581q-215 0 -354 85q-168 102 -168 304q0 105 32 207q29 85 59 128q24 36 48 36q22 0 22 -30q0 -12 -7 -34q-34 -100 -34 -173q0 -244 407 -246h16q131 0 258 32
q211 57 213 175v1q0 79 -225 318l110 197q17 23 26 23q12 0 24 -17q72 -93 169 -148q126 165 274 266q185 125 338 127q75 0 132.5 -58.5t57.5 -133.5q0 -105 -70 -209q24 -29 70 -29h76v-274zM1912 356q0 38 -56 83q-64 41 -147 43h-6q-91 0 -188 -63q-86 -56 -151 -141
q78 -12 172 -12q126 0 251 23t125 67zM1867 1152q5 -5 5 -9q0 -5 -7 -9l-100 -105q-6 -3 -12 -3t-15 3l-101 103q-10 4 -10 9q0 7 12 15l96 98q6 6 13 6t14 -6zM1978 946q4 -4 4 -9t-4 -11l-106 -107q-5 -4 -12 -4q-5 0 -12 4l-99 105l-104 -105q-4 -4 -10 -4t-12 4
l-106 105q-5 5 -5 11q0 7 7 16l99 99q5 6 11 6t14 -6l100 -99l99 99q5 6 13 6q7 0 14 -6z" />
    <glyph glyph-name="uni069F.init" unicode="&#x69f;" horiz-adv-x="1051" 
d="M1051 502q0 -168 -228 -336q-146 -109 -329 -144q-105 -20 -346 -20h-176v274h158q27 70 27 177q0 242 -97 512l151 175q19 22 31 22q8 0 25 -24l109 -239q10 -41 10 -43q0 -18 -22 -18q-24 0 -67 15q0 -151 -27 -312q-13 -85 -34 -169q368 305 612 307h6q80 0 138 -48
q59 -51 59 -129zM860 378v3q0 49 -61 85q-55 26 -110 26q-171 0 -443 -217q87 -9 185 -9q185 0 309 29q118 28 120 83zM824 1101q5 -5 5 -9q0 -5 -7 -10l-100 -104q-7 -4 -12 -4q-6 0 -16 4l-101 102q-10 4 -10 9q0 7 12 15l97 99q6 6 13 6q6 0 13 -6zM934 894q4 -4 4 -9
t-4 -11l-106 -107q-4 -4 -11 -4q-5 0 -12 4l-100 105l-103 -105q-4 -4 -11 -4q-5 0 -11 4l-106 105q-6 5 -6 11q0 7 8 16l98 99q6 6 12 6q5 0 14 -6l100 -99l98 99q6 6 14 6q6 0 14 -6z" />
    <glyph glyph-name="uni069F.medi" unicode="&#x69f;" horiz-adv-x="1088" 
d="M1116 2h-97q-60 0 -124 65q-48 49 -73 101q-175 -166 -674 -166h-176v274h158q27 70 27 177q0 242 -97 512l151 175q19 22 31 22q8 0 25 -24l109 -239q10 -41 10 -43q0 -18 -22 -18q-24 0 -67 15q0 -151 -27 -312q-13 -85 -34 -169q368 305 612 307h6q80 0 138 -48
q59 -51 59 -129q0 -90 -94 -203q48 -23 75 -23h84v-274zM860 378v3q0 49 -61 85q-55 26 -110 26q-171 0 -443 -217q87 -9 185 -9q185 0 309 29q118 28 120 83zM824 1101q5 -5 5 -9q0 -5 -7 -10l-100 -104q-7 -4 -12 -4q-6 0 -16 4l-101 102q-10 4 -10 9q0 7 12 15l97 99
q6 6 13 6q6 0 13 -6zM934 894q4 -4 4 -9t-4 -11l-106 -107q-4 -4 -11 -4q-5 0 -12 4l-100 105l-103 -105q-4 -4 -11 -4q-5 0 -11 4l-106 105q-6 5 -6 11q0 7 8 16l98 99q6 6 12 6q5 0 14 -6l100 -99l98 99q6 6 14 6q6 0 14 -6z" />
    <glyph glyph-name="uni069F.fina" unicode="&#x69f;" horiz-adv-x="1510" 
d="M1538 2h-105q-63 0 -128 65q-49 50 -72 101q-151 -113 -351 -150q-92 -16 -254 -16q-124 0 -437 242q-28 24 -28 41q0 26 41 26h11l326 -33q28 70 28 175q0 242 -98 512l155 175q18 22 29 22q12 0 22 -24l110 -239q12 -23 12 -43q0 -18 -22 -18q-27 0 -70 15
q0 -183 -22 -312q-12 -57 -34 -169q365 305 611 307h6q77 0 136 -47q60 -50 60 -130q0 -93 -94 -203q47 -23 71 -23h97v-274zM1272 378v3q0 49 -59 85q-58 26 -111 26q-173 0 -444 -217q88 -9 186 -9q426 0 428 112zM1256 1101q5 -5 5 -9q0 -5 -7 -10l-100 -104
q-6 -4 -12 -4t-15 4l-101 102q-10 4 -10 9q0 7 12 15l96 99q6 6 13 6t14 -6zM1366 894q5 -4 5 -9t-5 -11l-105 -107q-5 -4 -12 -4q-5 0 -12 4l-99 105l-104 -105q-4 -4 -10 -4t-12 4l-106 105q-5 5 -5 11q0 7 7 16l99 99q5 6 11 6t14 -6l100 -99l99 99q5 6 13 6q7 0 14 -6z
" />
    <glyph glyph-name="uni06A0.init" unicode="&#x6a0;" horiz-adv-x="767" 
d="M757 226q-44 -106 -74 -153q-36 -56 -50 -56q-214 0 -314 54q-71 -69 -209 -69h-138v274h122q-41 35 -41 94v7q0 86 87 208q130 185 275 185q185 0 284 -181q23 -41 25 -67q0 -36 -41 -36q-16 0 -60 16q-93 32 -246 32q-188 0 -188 -95q0 -118 277 -149q77 -9 146 -9
q57 0 108 6q15 3 24 3q23 0 23 -22q0 -20 -10 -42zM541 1178q5 -5 5 -9q0 -5 -6 -9l-101 -105q-6 -4 -12 -4t-15 4l-101 103q-5 5 -5 11t7 13l96 98q6 6 13 6t14 -6zM652 971q4 -4 4 -9t-4 -11l-106 -106q-5 -4 -12 -4q-4 0 -12 4l-99 104l-104 -104q-4 -4 -10 -4
q-5 0 -12 4l-105 104q-6 5 -6 11q0 8 7 17l99 98q5 6 12 6q5 0 13 -6l100 -98l99 98q5 6 14 6q6 0 13 -6z" />
    <glyph glyph-name="uni06A0.medi" unicode="&#x6a0;" horiz-adv-x="612" 
d="M640 2h-64q-96 0 -163 71q-59 61 -97 149q-31 -94 -82 -145q-73 -75 -199 -75h-63v274h28q150 0 234 98q-59 51 -132 98q-53 35 -57 64q0 66 115 115q97 41 173 41h4q124 0 194 -58q45 -35 46 -95q0 -63 -74 -114q-27 -11 -121 -53q25 -34 89 -65t125 -31h44v-274z
M437 1125q5 -5 5 -9q0 -5 -7 -9l-100 -105q-7 -4 -12 -4q-7 0 -16 4l-101 103q-5 5 -5 11t7 13l97 98q6 6 12 6q7 0 14 -6zM547 918q4 -4 4 -9t-4 -11l-106 -106q-4 -4 -12 -4q-4 0 -12 4l-99 104l-104 -104q-3 -4 -10 -4q-5 0 -12 4l-105 104q-6 5 -6 11q0 7 8 17l98 98
q5 7 12 7q5 0 13 -7l101 -98l98 98q6 7 14 7q6 0 13 -7z" />
    <glyph glyph-name="uni06A0.fina" unicode="&#x6a0;" horiz-adv-x="1204" 
d="M1232 2h-78q-151 0 -226 75q-81 67 -149 254q-148 -44 -256 -148q-122 -120 -122 -260q0 -165 127 -277q134 -116 364 -116q111 0 203 10q13 2 23 2q40 0 40 -28q0 -43 -122 -67q-114 -20 -258 -20q-309 0 -474 128q-144 114 -144 297q0 144 112 282q146 181 461 256
q-39 41 -132 95q-55 32 -57 62q0 55 120 108q103 46 169 46q87 0 158 -32q90 -41 92 -118v-5q0 -51 -43 -88q-18 -17 -103 -59q-15 -7 -45 -27q82 -96 266 -96h74v-274zM942 1149q5 -5 5 -9q0 -5 -7 -9l-100 -105q-7 -4 -12 -4q-7 0 -16 4l-101 103q-5 5 -5 10q0 7 7 13
l97 99q6 6 12 6q7 0 14 -6zM1052 942q4 -4 4 -9t-4 -11l-106 -107q-4 -3 -12 -3q-4 0 -11 3l-100 105l-104 -105q-3 -3 -10 -3q-5 0 -11 3l-106 105q-6 5 -6 11q0 7 8 16l98 99q6 6 12 6q5 0 14 -6l100 -99l98 99q6 6 14 6q6 0 13 -6z" />
    <glyph glyph-name="uni06A1.init" unicode="&#x6a1;" horiz-adv-x="569" 
d="M567 478v-8q0 -221 -117 -343q-119 -125 -344 -125h-134v274h217q73 0 153 19q112 28 112 79q-77 -8 -187 -14h-6q-216 0 -216 149q0 115 53 235q69 158 183 158q115 0 195 -98q89 -112 91 -326zM409 583q-69 109 -173 109q-35 0 -56 -22t-21 -52q0 -48 120 -48
q61 0 130 13z" />
    <glyph glyph-name="uni06A1.medi" unicode="&#x6a1;" horiz-adv-x="633" 
d="M661 2h-75q-179 0 -263 90q-112 -90 -256 -90h-95v274h156q-69 49 -69 116q0 86 101 202q109 120 220 120q60 0 123 -54q74 -65 76 -182v-7q0 -127 -71 -195h153v-274zM472 394q0 23 -47.5 57.5t-108.5 34.5q-66 0 -108 -18q-39 -23 -39 -45q0 -33 63 -72q43 -28 89 -46
q151 29 151 89z" />
    <glyph glyph-name="uni06A1.fina" unicode="&#x6a1;" horiz-adv-x="1775" 
d="M1803 2h-57q-80 0 -157 29q-63 24 -103 57q-326 -234 -771 -234q-299 0 -425 90q-130 93 -130 310q0 122 56 224q15 22 32 22q29 0 29 -45q0 -4 -10 -87q0 -83 49 -138q95 -102 429 -102q317 0 563 99q-32 21 -59 68q-36 48 -36 107q0 80 102.5 193.5t204.5 113.5
q93 0 152.5 -66t61.5 -161v-9q0 -55 -23 -115q-24 -56 -51 -82h143v-274zM1625 407v2q0 33 -62 63q-56 26 -94 26q-54 0 -114 -28q-42 -25 -45 -46q0 -19 44 -54q60 -51 122 -73q148 49 149 110z" />
    <glyph glyph-name="uni06A2.init" unicode="&#x6a2;" horiz-adv-x="569" 
d="M567 478v-8q0 -221 -117 -343q-119 -125 -344 -125h-134v274h217q73 0 153 19q112 28 112 79q-77 -8 -187 -14h-6q-216 0 -216 149q0 115 53 235q69 158 183 158q115 0 195 -98q89 -112 91 -326zM409 583q-69 109 -173 109q-35 0 -56 -22t-21 -52q0 -48 120 -48
q61 0 130 13zM413 -205q4 -4 4 -10q0 -7 -4 -12l-112 -112q-7 -6 -14 -6q-6 0 -13 6l-114 109q-5 6 -5 13q0 9 10 18l104 106q5 8 13 8q7 0 17 -8z" />
    <glyph glyph-name="uni06A2.medi" unicode="&#x6a2;" horiz-adv-x="633" 
d="M661 2h-75q-179 0 -263 90q-112 -90 -256 -90h-95v274h156q-69 49 -69 116q0 86 101 202q109 120 220 120q60 0 123 -54q74 -65 76 -182v-7q0 -127 -71 -195h153v-274zM472 394q0 23 -47.5 57.5t-108.5 34.5q-66 0 -108 -18q-39 -23 -39 -45q0 -33 63 -72q43 -28 89 -46
q151 29 151 89zM468 -188q5 -5 5 -10q0 -6 -6 -12l-111 -113q-8 -6 -12 -6q-6 0 -11 6l-117 113q-5 4 -5 9q0 8 10 18l102 106q7 7 14 7t15 -7z" />
    <glyph glyph-name="uni06A2.fina" unicode="&#x6a2;" horiz-adv-x="1775" 
d="M1803 2h-57q-80 0 -157 29q-63 24 -103 57q-326 -234 -771 -234q-299 0 -425 90q-130 93 -130 310q0 122 56 224q15 22 32 22q29 0 29 -45q0 -4 -10 -87q0 -83 49 -138q95 -102 429 -102q317 0 563 99q-32 21 -59 68q-36 48 -36 107q0 80 102.5 193.5t204.5 113.5
q93 0 152.5 -66t61.5 -161v-9q0 -55 -23 -115q-24 -56 -51 -82h143v-274zM1625 407v2q0 33 -62 63q-56 26 -94 26q-54 0 -114 -28q-42 -25 -45 -46q0 -19 44 -54q60 -51 122 -73q148 49 149 110zM1631 -230q6 -5 6 -12q0 -5 -6 -12l-114 -112q-6 -7 -11 -7t-14 7l-112 108
q-8 7 -8 14q0 9 10 19l107 105q4 8 10 8q7 0 15 -8z" />
    <glyph glyph-name="uni06A3.init" unicode="&#x6a3;" horiz-adv-x="569" 
d="M567 478v-8q0 -221 -117 -343q-119 -125 -344 -125h-134v274h217q73 0 153 19q112 28 112 79q-77 -8 -187 -14h-6q-216 0 -216 149q0 115 53 235q69 158 183 158q115 0 195 -98q89 -112 91 -326zM409 583q-69 109 -173 109q-35 0 -56 -22t-21 -52q0 -48 120 -48
q61 0 130 13zM393 -205q4 -4 4 -10q0 -7 -4 -12l-112 -112q-7 -6 -14 -6t-14 6l-113 109q-5 6 -5 13q0 9 10 18l104 106q4 8 13 8q7 0 17 -8zM413 1108q4 -4 4 -10q0 -7 -4 -12l-112 -112q-7 -6 -14 -6q-6 0 -13 6l-114 108q-5 7 -5 13q0 10 10 19l104 106q5 8 13 8
q7 0 17 -8z" />
    <glyph glyph-name="uni06A3.medi" unicode="&#x6a3;" horiz-adv-x="633" 
d="M661 2h-75q-179 0 -263 90q-112 -90 -256 -90h-95v274h156q-69 49 -69 116q0 86 101 202q109 120 220 120q60 0 123 -54q74 -65 76 -182v-7q0 -127 -71 -195h153v-274zM472 394q0 23 -47.5 57.5t-108.5 34.5q-66 0 -108 -18q-39 -23 -39 -45q0 -33 63 -72q43 -28 89 -46
q151 29 151 89zM429 -213q5 -5 5 -10q0 -6 -7 -13l-111 -112q-7 -6 -11 -6q-6 0 -11 6l-117 112q-5 5 -5 10q0 8 10 17l102 107q7 7 14 7t15 -7zM468 988q5 -5 5 -11t-6 -12l-111 -112q-8 -7 -12 -7q-6 0 -11 7l-117 112q-5 5 -5 10q0 8 10 17l102 107q7 7 14 7t15 -7z" />
    <glyph glyph-name="uni06A3.fina" unicode="&#x6a3;" horiz-adv-x="1775" 
d="M1803 2h-57q-80 0 -157 29q-63 24 -103 57q-326 -234 -771 -234q-299 0 -425 90q-130 93 -130 310q0 122 56 224q15 22 32 22q29 0 29 -45q0 -4 -10 -87q0 -83 49 -138q95 -102 429 -102q317 0 563 99q-32 21 -59 68q-36 48 -36 107q0 80 102.5 193.5t204.5 113.5
q93 0 152.5 -66t61.5 -161v-9q0 -55 -23 -115q-24 -56 -51 -82h143v-274zM1625 407v2q0 33 -62 63q-56 26 -94 26q-54 0 -114 -28q-42 -25 -45 -46q0 -19 44 -54q60 -51 122 -73q148 49 149 110zM896 -362q6 -4 6 -12q0 -4 -6 -11l-114 -112q-6 -7 -12 -7q-4 0 -13 7
l-112 108q-8 7 -8 15t9 18l108 105q4 8 10 8q7 0 15 -8zM1644 1004q6 -5 6 -12q0 -4 -6 -12l-114 -112q-6 -6 -12 -6q-4 0 -13 6l-112 109q-8 6 -8 14t9 18l108 105q4 8 10 8q7 0 15 -8z" />
    <glyph glyph-name="uni06A5.init" unicode="&#x6a5;" horiz-adv-x="569" 
d="M567 478v-8q0 -221 -117 -343q-119 -125 -344 -125h-134v274h217q73 0 153 19q112 28 112 79q-77 -8 -187 -14h-6q-216 0 -216 149q0 115 53 235q69 158 183 158q115 0 195 -98q89 -112 91 -326zM409 583q-69 109 -173 109q-35 0 -56 -22t-21 -52q0 -48 120 -48
q61 0 130 13zM282 -527q-6 -5 -12 -5q-7 0 -14 5l-96 99q-8 13 -8 21q0 4 2 6l108 103q6 4 12 4q5 0 10 -4l104 -103q6 -7 6 -13q0 -5 -4 -10zM392 -322q-10 -5 -16 -5t-11 5l-101 101l-98 -101q-8 -5 -15 -5q-5 0 -11 5l-98 101q-9 8 -9 16q0 7 6 13l107 103q6 5 12 5
q5 0 10 -5l98 -103l104 103q5 5 12 5q6 0 12 -5l105 -105q5 -6 5 -12t-4 -11z" />
    <glyph glyph-name="uni06A5.medi" unicode="&#x6a5;" horiz-adv-x="633" 
d="M661 2h-75q-179 0 -263 90q-112 -90 -256 -90h-95v274h156q-69 49 -69 116q0 86 101 202q109 120 220 120q60 0 123 -54q74 -65 76 -182v-7q0 -127 -71 -195h153v-274zM472 394q0 23 -47.5 57.5t-108.5 34.5q-66 0 -108 -18q-39 -23 -39 -45q0 -33 63 -72q43 -28 89 -46
q151 29 151 89zM331 -530q-6 -5 -12 -5q-7 0 -14 5l-96 98q-8 13 -8 21q0 4 2 7l108 102q7 5 12 5q6 0 10 -5l105 -102q5 -6 5 -12q0 -5 -4 -10zM441 -325q-10 -5 -15 -5q-7 0 -12 5l-100 100l-99 -100q-8 -5 -15 -5q-5 0 -12 5l-97 100q-9 8 -9 16q0 6 7 13l106 103
q6 6 12 6q5 0 10 -6l98 -103l104 103q5 6 12 6t12 -6l105 -105q5 -7 5 -13q0 -5 -3 -9z" />
    <glyph glyph-name="uni06A5.fina" unicode="&#x6a5;" horiz-adv-x="1775" 
d="M1803 2h-57q-80 0 -157 29q-63 24 -103 57q-326 -234 -771 -234q-299 0 -425 90q-130 93 -130 310q0 122 56 224q15 22 32 22q29 0 29 -45q0 -4 -10 -87q0 -83 49 -138q95 -102 429 -102q317 0 563 99q-32 21 -59 68q-36 48 -36 107q0 80 102.5 193.5t204.5 113.5
q93 0 152.5 -66t61.5 -161v-9q0 -55 -23 -115q-24 -56 -51 -82h143v-274zM1625 407v2q0 33 -62 63q-56 26 -94 26q-54 0 -114 -28q-42 -25 -45 -46q0 -19 44 -54q60 -51 122 -73q148 49 149 110zM1455 -594q-6 -6 -13 -6t-14 6l-96 97q-7 13 -7 20q0 5 3 7l105 104q7 5 12 5
q6 0 11 -5l104 -104q6 -7 6 -13q0 -5 -4 -9zM1564 -389q-9 -6 -16 -6q-6 0 -11 6l-99 98l-100 -98q-8 -6 -14 -6t-13 6l-95 98q-10 9 -10 18q0 6 6 13l106 102q7 5 13 5q5 0 9 -5l100 -102l102 102q6 5 12 5t13 -5l103 -105q6 -7 6 -13q0 -5 -4 -9z" />
    <glyph glyph-name="uni06A7.init" unicode="&#x6a7;" horiz-adv-x="569" 
d="M567 478v-8q0 -221 -117 -343q-119 -125 -344 -125h-134v274h217q73 0 153 19q112 28 112 79q-77 -8 -187 -14h-6q-216 0 -216 149q0 115 53 235q69 158 183 158q115 0 195 -98q89 -112 91 -326zM409 583q-69 109 -173 109q-35 0 -56 -22t-21 -52q0 -48 120 -48
q61 0 130 13zM413 1108q4 -4 4 -10q0 -7 -4 -12l-112 -112q-7 -6 -14 -6q-6 0 -13 6l-114 108q-5 7 -5 13q0 10 10 19l104 106q5 8 13 8q7 0 17 -8z" />
    <glyph glyph-name="uni06A7.medi" unicode="&#x6a7;" horiz-adv-x="633" 
d="M661 2h-75q-179 0 -263 90q-112 -90 -256 -90h-95v274h156q-69 49 -69 116q0 86 101 202q109 120 220 120q60 0 123 -54q74 -65 76 -182v-7q0 -127 -71 -195h153v-274zM472 394q0 23 -47.5 57.5t-108.5 34.5q-66 0 -108 -18q-39 -23 -39 -45q0 -33 63 -72q43 -28 89 -46
q151 29 151 89zM468 988q5 -5 5 -11t-6 -12l-111 -112q-8 -7 -12 -7q-6 0 -11 7l-117 112q-5 5 -5 10q0 8 10 17l102 107q7 7 14 7t15 -7z" />
    <glyph glyph-name="uni06A7.fina" unicode="&#x6a7;" horiz-adv-x="1437" 
d="M1465 2h-187q0 -170 -83 -303q-148 -240 -508 -240q-527 0 -527 417q0 71 27 161q54 172 105 178q24 0 24 -34q0 -13 -5 -30q-34 -98 -34 -166q0 -249 377 -249q283 0 425 95q105 69 105 167q-219 0 -302 19q-145 34 -145 164q0 120 73 285q84 194 185 194
q142 0 218 -158q46 -93 59 -226h193v-274zM1137 268q-78 144 -180 144q-31 0 -60.5 -20t-29.5 -51q0 -78 141 -78q42 0 129 5zM1115 954q4 -4 4 -10q0 -7 -4 -12l-112 -112q-7 -6 -14 -6t-14 6l-114 108q-4 6 -4 13q0 9 10 19l104 106q4 8 13 8q7 0 17 -8z" />
    <glyph glyph-name="uni06A8.init" unicode="&#x6a8;" horiz-adv-x="569" 
d="M567 478v-8q0 -221 -117 -343q-119 -125 -344 -125h-134v274h217q73 0 153 19q112 28 112 79q-77 -8 -187 -14h-6q-216 0 -216 149q0 115 53 235q69 158 183 158q115 0 195 -98q89 -112 91 -326zM409 583q-69 109 -173 109q-35 0 -56 -22t-21 -52q0 -48 120 -48
q61 0 130 13zM397 1344q4 -5 4 -11t-5 -12l-105 -103q-4 -4 -10 -4q-5 0 -12 4l-108 103q-2 2 -2 6q0 8 8 21l97 99q7 5 13 5t12 -5zM508 1136q3 -4 3 -9q0 -6 -5 -13l-105 -105q-5 -5 -12 -5t-12 5l-103 103l-99 -103q-5 -5 -10 -5q-6 0 -12 5l-106 103q-7 7 -7 14t9 16
l98 100q6 4 12 4t14 -4l99 -100l100 100q5 4 12 4q5 0 15 -4z" />
    <glyph glyph-name="uni06A8.medi" unicode="&#x6a8;" horiz-adv-x="633" 
d="M661 2h-75q-179 0 -263 90q-112 -90 -256 -90h-95v274h156q-69 49 -69 116q0 86 101 202q109 120 220 120q60 0 123 -54q74 -65 76 -182v-7q0 -127 -71 -195h153v-274zM472 394q0 23 -47.5 57.5t-108.5 34.5q-66 0 -108 -18q-39 -23 -39 -45q0 -33 63 -72q43 -28 89 -46
q151 29 151 89zM472 1157q4 -4 4 -9q0 -6 -6 -13l-104 -104q-5 -4 -10 -4q-6 0 -12 4l-108 104q-2 2 -2 6q0 8 8 21l96 98q7 6 14 6q6 0 12 -6zM582 950q3 -5 3 -11t-4 -12l-105 -104q-6 -6 -12 -6q-7 0 -12 6l-104 104l-98 -104q-5 -5 -10 -5q-6 0 -12 5l-107 104
q-6 5 -6 11q0 8 9 17l97 100q7 5 12 5q7 0 15 -5l98 -100l101 100q5 5 11 5t16 -5z" />
    <glyph glyph-name="uni06A8.fina" unicode="&#x6a8;" horiz-adv-x="1437" 
d="M1465 2h-187q0 -170 -83 -303q-148 -240 -508 -240q-527 0 -527 417q0 71 27 161q54 172 105 178q24 0 24 -34q0 -13 -5 -30q-34 -98 -34 -166q0 -249 377 -249q283 0 425 95q105 69 105 167q-219 0 -302 19q-145 34 -145 164q0 120 73 285q84 194 185 194
q142 0 218 -158q46 -93 59 -226h193v-274zM1137 268q-78 144 -180 144q-31 0 -60.5 -20t-29.5 -51q0 -78 141 -78q42 0 129 5zM1138 1081q4 -5 4 -10q0 -6 -5 -12l-105 -103q-4 -4 -10 -4q-5 0 -12 4l-108 103q-2 2 -2 6q0 8 8 21l97 98q7 5 13 5t12 -5zM1249 874q3 -4 3 -9
q0 -6 -5 -13l-105 -105q-5 -5 -12 -5t-12 5l-103 103l-99 -103q-5 -5 -10 -5q-6 0 -12 5l-106 103q-7 7 -7 13q0 8 9 16l98 100q6 5 12 5t14 -5l99 -100l100 100q5 5 12 5q5 0 15 -5z" />
    <glyph glyph-name="uni06AA.init" unicode="&#x6aa;" horiz-adv-x="791" 
d="M791 948l-500 -171q104 -105 158.5 -202t54.5 -197q0 -161 -87 -264q-91 -112 -248 -112h-197v274h147q253 0 253 53q0 37 -343 373q-1 2 -1 7q0 23 32 114q27 79 40 90l659 225q2 1 4 1h2q3 1 6 1q20 0 20 -24v-168z" />
    <glyph glyph-name="uni06AA.medi" unicode="&#x6aa;" horiz-adv-x="887" 
d="M915 2h-161q-163 0 -250 53q-75 43 -150 162q-28 -100 -87 -150q-80 -65 -239 -65h-56v274h36q252 0 252 53q0 37 -211 346q-2 2 -2 16q0 41 18.5 126t33.5 96l664 224q4 2 9 2q3 1 5 1q17 0 19 -24v-167l-562 -191q92 -158 136 -225q98 -153 158 -200q70 -57 161 -57
h226v-274z" />
    <glyph glyph-name="uni06AA.fina" unicode="&#x6aa;" horiz-adv-x="2037" 
d="M721 2q-561 0 -561 376q0 138 56 270q15 39 42 39q30 0 32 -46q0 -1 -4 -21q-9 -47 -9 -84q0 -166 161 -224q98 -36 303 -36h417q252 0 252 53q0 37 -211 346q-2 2 -2 16q0 41 18.5 126t33.5 96l664 224q4 2 9 2q3 1 5 1q17 0 19 -24v-167l-562 -191q92 -158 136 -225
q98 -153 158 -200q70 -57 161 -57h226v-274h-161q-163 0 -250 53q-75 43 -150 162q-28 -100 -87 -150q-80 -65 -239 -65h-457z" />
    <glyph glyph-name="uni06AB.init" unicode="&#x6ab;" horiz-adv-x="790" 
d="M790 1192l-10 -69l-690 -234q-3 0 -6 8q0 12 13 58q17 41 25 44l635 215q9 1 15 1q7 0 12 -1q6 -3 6 -22zM787 851l-487 -158q200 -193 203 -346q-3 -345 -350 -345h-181v274h148q255 0 255 48q-62 145 -340 296q-6 2 -6 12q0 28 19 104q21 83 34 87l673 217q2 0 5 1h5
q3 1 6 1q15 0 16 -23v-168z" />
    <glyph glyph-name="uni06AB.medi" unicode="&#x6ab;" horiz-adv-x="887" 
d="M798 1191l-8 -71l-662 -225q-3 2 -3 6q0 15 15 63q16 37 26 41l599 206q10 1 18 1t13 -1q3 0 3 -9q0 -4 -1 -11zM391 501q84 -126 137 -168q70 -57 161 -57h226v-274h-161q-163 0 -250 53q-75 43 -150 162q-28 -100 -87 -150q-80 -65 -239 -65h-56v274h36q252 0 252 53
q0 25 -95 172q-41 58 -91 134q-2 10 -2 13q0 30 17 103q18 83 34 87l642 199q1 0 5 1h6q3 1 5 1q15 0 15 -23v-159l-524 -164q73 -118 120 -192h-1z" />
    <glyph glyph-name="uni06AB.fina" unicode="&#x6ab;" horiz-adv-x="2007" 
d="M1918 1191l-8 -71l-662 -225q-3 2 -3 6q0 15 15 63q16 37 26 41l599 206q10 1 18 1t13 -1q3 0 3 -9q0 -4 -1 -11zM1161 2h-440q-561 0 -561 376q0 138 56 270q15 39 42 39q30 0 32 -46q0 -1 -4 -21q-9 -47 -9 -84q0 -166 161 -224q98 -36 303 -36h387q252 0 252 53
q0 25 -95 172q-41 58 -91 134q-2 10 -2 13q0 30 17 103q18 83 34 87l642 199q1 0 5 1h6q3 1 5 1q15 0 15 -23v-159l-524 -164q73 -118 120 -192h-1q84 -126 137 -168q70 -57 161 -57h226v-274h-161q-163 0 -250 53q-75 43 -150 162q-28 -100 -87 -150q-77 -62 -226 -65z" />
    <glyph glyph-name="uni06AC.init" unicode="&#x6ac;" horiz-adv-x="791" 
d="M303 1212q5 -4 5 -10q0 -8 -5 -12l-112 -112q-7 -6 -14 -6q-6 0 -13 6l-114 108q-5 7 -5 13q0 10 10 19l104 106q5 8 13 8q7 0 17 -8zM791 948l-500 -171q104 -105 158.5 -202t54.5 -197q0 -161 -87 -264q-91 -112 -248 -112h-197v274h147q253 0 253 53q0 37 -343 373
q-1 2 -1 7q0 23 32 114q27 79 40 90l659 225q2 1 4 1h2q3 1 6 1q20 0 20 -24v-168z" />
    <glyph glyph-name="uni06AC.medi" unicode="&#x6ac;" horiz-adv-x="887" 
d="M303 1193q5 -3 5 -10t-5 -11l-112 -112q-7 -6 -14 -6q-6 0 -13 6l-114 108q-5 6 -5 13q0 9 10 19l104 106q5 8 13 8q7 0 17 -8zM915 2h-161q-163 0 -250 53q-75 43 -150 162q-28 -100 -87 -150q-80 -65 -239 -65h-56v274h36q252 0 252 53q0 37 -211 346q-2 2 -2 16
q0 41 18.5 126t33.5 96l664 224q4 2 9 2q3 1 5 1q17 0 19 -24v-167l-562 -191q92 -158 136 -225q98 -153 158 -200q70 -57 161 -57h226v-274z" />
    <glyph glyph-name="uni06AC.fina" unicode="&#x6ac;" horiz-adv-x="1750" 
d="M1054 911q6 0 10 -14q0 -17 -16 -51q-6 -27 -23 -29q-161 -28 -161 -52q0 -5 71 -43.5t73 -83.5v-3q0 -53 -70 -87q-52 -34 -140 -34h-148q-19 0 -19 10q0 14 22.5 43.5t33.5 29.5q68 -7 114 -7q81 0 81 24q0 6 -71 49t-71 79v1q0 68 125 119q84 32 189 49zM1778 2h-69
q-236 0 -236 309q-61 -89 -120 -136q-83 -65 -203 -104q-167 -56 -493 -56q-497 0 -497 308q0 110 57 248q20 47 50 49q29 0 31 -40q0 -12 -2 -19q-9 -58 -9 -88q0 -11 1 -18q16 -109 201 -146q81 -17 290 -17q231 0 407 37q241 51 269 144q20 65 20 295q0 128 -6 269
l163 123q10 13 28 13q22 0 22 -36q0 -6 -1 -13l-35 -639v-42q0 -167 91 -167h41v-274zM1692 1417q5 -4 5 -10q0 -8 -5 -12l-112 -112q-6 -6 -13 -6t-14 6l-114 108q-5 6 -5 13q0 9 11 19l103 106q5 8 13 8q7 0 17 -8z" />
    <glyph glyph-name="uni06AE.init" unicode="&#x6ae;" horiz-adv-x="791" 
d="M271 -506q-6 -5 -12 -5t-13 5l-97 99q-8 13 -8 20q0 4 3 7l107 103q7 4 12 4q6 0 10 -4l105 -103q6 -7 6 -13q0 -5 -4 -10zM381 -301q-10 -5 -15 -5q-6 0 -12 5l-100 101l-98 -101q-9 -5 -15 -5q-5 0 -12 5l-97 101q-9 8 -9 16q0 7 6 13l107 103q6 5 11 5t10 -5l99 -103
l104 103q4 5 11 5t12 -5l105 -105q5 -7 5 -13q0 -5 -3 -10zM791 948l-500 -171q104 -105 158.5 -202t54.5 -197q0 -161 -87 -264q-91 -112 -248 -112h-197v274h147q253 0 253 53q0 37 -343 373q-1 2 -1 7q0 23 32 114q27 79 40 90l659 225q2 1 4 1h2q3 1 6 1q20 0 20 -24
v-168z" />
    <glyph glyph-name="uni06AE.medi" unicode="&#x6ae;" horiz-adv-x="887" 
d="M264 -536q-6 -5 -12 -5q-7 0 -14 5l-96 99q-8 13 -8 21q0 4 2 6l108 103q7 4 12 4q6 0 10 -4l105 -103q5 -6 5 -12t-4 -11zM374 -331q-10 -5 -15 -5q-7 0 -12 5l-100 101l-99 -101q-8 -5 -14 -5t-12 5l-98 101q-9 8 -9 16q0 6 7 13l106 103q6 5 12 5q5 0 10 -5l98 -103
l104 103q5 5 12 5t12 -5l105 -105q5 -7 5 -13q0 -5 -3 -10zM915 2h-161q-163 0 -250 53q-75 43 -150 162q-28 -100 -87 -150q-80 -65 -239 -65h-56v274h36q252 0 252 53q0 37 -211 346q-2 2 -2 16q0 41 18.5 126t33.5 96l664 224q4 2 9 2q3 1 5 1q17 0 19 -24v-167
l-562 -191q92 -158 136 -225q98 -153 158 -200q70 -57 161 -57h226v-274z" />
    <glyph glyph-name="uni06AE.fina" unicode="&#x6ae;" horiz-adv-x="1832" 
d="M1054 911q6 0 10 -14q0 -17 -16 -51q-6 -27 -23 -29q-161 -28 -161 -52q0 -5 71 -43.5t73 -83.5v-3q0 -53 -70 -87q-52 -34 -140 -34h-148q-19 0 -19 10q0 14 22.5 43.5t33.5 29.5q68 -7 114 -7q81 0 81 24q0 6 -71 49t-71 79v1q0 68 125 119q84 32 189 49zM1860 2h-151
q-236 0 -236 309q-61 -89 -120 -136q-83 -65 -203 -104q-167 -56 -493 -56q-497 0 -497 308q0 110 57 248q20 47 50 49q29 0 31 -40q0 -12 -2 -19q-9 -58 -9 -88q0 -11 1 -18q16 -109 201 -146q81 -17 290 -17q231 0 407 37q241 51 269 144q20 65 20 295q0 128 -6 269
l163 123q10 13 28 13q22 0 22 -36q0 -6 -1 -13l-35 -639v-42q0 -167 91 -167h123v-274zM865 -529q-6 -5 -12 -5t-13 5l-97 98q-8 13 -8 20q0 4 3 7l107 103q7 5 12 5q6 0 10 -5l105 -103q6 -6 6 -12q0 -5 -4 -10zM975 -324q-10 -6 -15 -6q-6 0 -12 6l-100 100l-99 -100
q-8 -6 -14 -6t-12 6l-97 100q-9 8 -9 16q0 7 6 13l106 103q6 5 12 5q5 0 10 -5l99 -103l104 103q4 5 11 5t12 -5l105 -105q5 -7 5 -13q0 -5 -3 -10z" />
    <glyph glyph-name="uni06B0.init" unicode="&#x6b0;" horiz-adv-x="790" 
d="M728 676q0 16 -77 56.5t-99 40.5q-12 0 -21 -28q-7 -23 -7 -37q0 -68 96 -68q108 0 108 36zM790 1192l-10 -69l-690 -234q-3 0 -6 8q0 12 13 58q17 41 25 44l635 215q9 1 15 1q7 0 12 -1q6 -3 6 -22zM496 756l-196 -63q200 -193 203 -346q-3 -345 -350 -345h-181v274h148
q255 0 255 48q-62 145 -340 296q-6 2 -6 12q0 28 19 104q21 83 34 87l673 217q2 0 5 1h5q3 1 6 1q15 0 16 -23v-168l-94 -30q81 -59 81 -120q0 -74 -46 -129q-51 -59 -125 -59q-133 0 -133 120q0 43 26 123z" />
    <glyph glyph-name="uni06B0.medi" unicode="&#x6b0;" horiz-adv-x="887" 
d="M720 680q0 16 -77 56.5t-99 40.5q-12 0 -21 -28q-7 -23 -7 -37q0 -68 96 -68q108 0 108 36zM798 1191l-8 -71l-662 -225q-3 2 -3 6q0 15 15 63q16 37 26 41l599 206q10 1 18 1t13 -1q3 0 3 -9q0 -4 -1 -11zM488 761l-216 -68q73 -118 120 -192h-1q84 -126 137 -168
q70 -57 161 -57h226v-274h-161q-163 0 -250 53q-75 43 -150 162q-28 -100 -87 -150q-80 -65 -239 -65h-56v274h36q252 0 252 53q0 25 -95 172q-41 58 -91 134q-2 10 -2 13q0 30 17 103q18 83 34 87l642 199q1 0 5 1h6q3 1 5 1q15 0 15 -23v-159l-109 -34q79 -58 79 -118
q0 -74 -46 -129q-51 -59 -125 -59q-133 0 -133 120q0 43 26 124z" />
    <glyph glyph-name="uni06B0.fina" unicode="&#x6b0;" horiz-adv-x="2007" 
d="M1830 677q0 16 -77 56.5t-99 40.5q-12 0 -21 -28q-7 -23 -7 -37q0 -68 96 -68q108 0 108 36zM1918 1191l-8 -71l-662 -225q-3 2 -3 6q0 15 15 63q16 37 26 41l599 206q10 1 18 1t13 -1q3 0 3 -9q0 -4 -1 -11zM1598 757l-206 -64q73 -118 120 -192h-1q84 -126 137 -168
q70 -57 161 -57h226v-274h-161q-163 0 -250 53q-75 43 -150 162q-28 -100 -87 -150q-77 -62 -226 -65h-440q-561 0 -561 376q0 138 56 270q15 39 42 39q30 0 32 -46q0 -1 -4 -21q-9 -47 -9 -84q0 -166 161 -224q98 -36 303 -36h387q252 0 252 53q0 25 -95 172
q-41 58 -91 134q-2 10 -2 13q0 30 17 103q18 83 34 87l642 199q1 0 5 1h6q3 1 5 1q15 0 15 -23v-159l-118 -37q78 -58 78 -118q0 -74 -46 -129q-51 -59 -125 -59q-133 0 -133 120q0 42 26 123z" />
    <glyph glyph-name="uni06B2.init" unicode="&#x6b2;" horiz-adv-x="790" 
d="M459 -214q7 -4 7 -8q0 -6 -7 -12l-98 -99q-5 -5 -12 -5q-5 0 -12 5l-95 92l-91 -92q-7 -5 -12 -5t-13 5l-101 99q-5 5 -5 11q0 7 7 15l93 96q7 4 14 4q6 0 15 -4l93 -92l89 92q8 4 15 4t14 -4zM790 1192l-10 -69l-690 -234q-3 0 -6 8q0 12 13 58q17 41 25 44l635 215
q9 1 15 1q7 0 12 -1q6 -3 6 -22zM787 851l-487 -158q200 -193 203 -346q-3 -345 -350 -345h-181v274h148q255 0 255 48q-62 145 -340 296q-6 2 -6 12q0 28 19 104q21 83 34 87l673 217q2 0 5 1h5q3 1 6 1q15 0 16 -23v-168z" />
    <glyph glyph-name="uni06B2.medi" unicode="&#x6b2;" horiz-adv-x="887" 
d="M453 -200q7 -4 7 -9t-7 -11l-99 -99q-4 -5 -12 -5q-4 0 -12 5l-94 91l-91 -91q-8 -5 -12 -5q-6 0 -14 5l-100 99q-6 5 -6 11q0 7 8 15l93 96q7 4 13 4q7 0 16 -4l93 -92l88 92q8 4 16 4q6 0 13 -4zM798 1191l-8 -71l-662 -225q-3 2 -3 6q0 15 15 63q16 37 26 41l599 206
q10 1 18 1t13 -1q3 0 3 -9q0 -4 -1 -11zM391 501q84 -126 137 -168q70 -57 161 -57h226v-274h-161q-163 0 -250 53q-75 43 -150 162q-28 -100 -87 -150q-80 -65 -239 -65h-56v274h36q252 0 252 53q0 25 -95 172q-41 58 -91 134q-2 10 -2 13q0 30 17 103q18 83 34 87l642 199
q1 0 5 1h6q3 1 5 1q15 0 15 -23v-159l-524 -164q73 -118 120 -192h-1z" />
    <glyph glyph-name="uni06B2.fina" unicode="&#x6b2;" horiz-adv-x="2007" 
d="M1083 -202q7 -4 7 -8q0 -6 -7 -12l-99 -99q-4 -5 -11 -5q-5 0 -12 5l-95 91l-91 -91q-7 -5 -12 -5t-14 5l-100 99q-6 6 -6 11q0 7 8 15l93 96q7 4 14 4q6 0 15 -4l93 -92l88 92q9 4 16 4q6 0 14 -4zM1918 1191l-8 -71l-662 -225q-3 2 -3 6q0 15 15 63q16 37 26 41
l599 206q10 1 18 1t13 -1q3 0 3 -9q0 -4 -1 -11zM1161 2h-440q-561 0 -561 376q0 138 56 270q15 39 42 39q30 0 32 -46q0 -1 -4 -21q-9 -47 -9 -84q0 -166 161 -224q98 -36 303 -36h387q252 0 252 53q0 25 -95 172q-41 58 -91 134q-2 10 -2 13q0 30 17 103q18 83 34 87
l642 199q1 0 5 1h6q3 1 5 1q15 0 15 -23v-159l-524 -164q73 -118 120 -192h-1q84 -126 137 -168q70 -57 161 -57h226v-274h-161q-163 0 -250 53q-75 43 -150 162q-28 -100 -87 -150q-77 -62 -226 -65z" />
    <glyph glyph-name="uni06B4.init" unicode="&#x6b4;" horiz-adv-x="790" 
d="M356 1487q4 -5 4 -10q0 -6 -6 -13l-104 -103q-5 -4 -10 -4q-6 0 -12 4l-108 103q-2 2 -2 6q0 8 8 21l96 99q7 5 14 5q6 0 12 -5zM466 1279q4 -5 4 -10q0 -6 -5 -12l-105 -105q-6 -5 -12 -5q-7 0 -12 5l-104 103l-98 -103q-5 -5 -10 -5q-6 0 -12 5l-107 103q-6 6 -6 13
q0 8 9 17l98 100q6 4 11 4q7 0 15 -4l98 -100l101 100q5 4 12 4q5 0 15 -4zM790 1192l-10 -69l-690 -234q-3 0 -6 8q0 12 13 58q17 41 25 44l635 215q9 1 15 1q7 0 12 -1q6 -3 6 -22zM787 851l-487 -158q200 -193 203 -346q-3 -345 -350 -345h-181v274h148q255 0 255 48
q-62 145 -340 296q-6 2 -6 12q0 28 19 104q21 83 34 87l673 217q2 0 5 1h5q3 1 6 1q15 0 16 -23v-168z" />
    <glyph glyph-name="uni06B4.medi" unicode="&#x6b4;" horiz-adv-x="887" 
d="M356 1487q4 -5 4 -10q0 -6 -6 -13l-105 -103q-4 -4 -10 -4q-5 0 -11 4l-108 103q-2 2 -2 7q0 7 7 20l97 99q7 5 14 5q6 0 12 -5zM466 1279q4 -4 4 -9q0 -6 -6 -13l-104 -105q-6 -5 -12 -5q-7 0 -12 5l-104 103l-98 -103q-5 -5 -10 -5q-6 0 -12 5l-107 103q-6 6 -6 13
q0 8 9 17l97 100q7 4 12 4q7 0 15 -4l98 -100l100 100q6 4 12 4t16 -4zM798 1191l-8 -71l-662 -225q-3 2 -3 6q0 15 15 63q16 37 26 41l599 206q10 1 18 1t13 -1q3 0 3 -9q0 -4 -1 -11zM391 501q84 -126 137 -168q70 -57 161 -57h226v-274h-161q-163 0 -250 53
q-75 43 -150 162q-28 -100 -87 -150q-80 -65 -239 -65h-56v274h36q252 0 252 53q0 25 -95 172q-41 58 -91 134q-2 10 -2 13q0 30 17 103q18 83 34 87l642 199q1 0 5 1h6q3 1 5 1q15 0 15 -23v-159l-524 -164q73 -118 120 -192h-1z" />
    <glyph glyph-name="uni06B4.fina" unicode="&#x6b4;" horiz-adv-x="2007" 
d="M1476 1460q4 -5 4 -10q0 -6 -5 -12l-105 -103q-4 -4 -10 -4q-5 0 -12 4l-108 103q-2 2 -2 6q0 8 8 21l97 98q7 5 13 5t12 -5zM1587 1253q3 -4 3 -9q0 -6 -5 -13l-105 -105q-5 -5 -12 -5t-12 5l-103 103l-99 -103q-5 -5 -10 -5q-6 0 -12 5l-106 103q-7 7 -7 13q0 8 9 16
l98 100q6 5 12 5t14 -5l99 -100l100 100q5 5 12 5q5 0 15 -5zM1918 1191l-8 -71l-662 -225q-3 2 -3 6q0 15 15 63q16 37 26 41l599 206q10 1 18 1t13 -1q3 0 3 -9q0 -4 -1 -11zM1161 2h-440q-561 0 -561 376q0 138 56 270q15 39 42 39q30 0 32 -46q0 -1 -4 -21
q-9 -47 -9 -84q0 -166 161 -224q98 -36 303 -36h387q252 0 252 53q0 25 -95 172q-41 58 -91 134q-2 10 -2 13q0 30 17 103q18 83 34 87l642 199q1 0 5 1h6q3 1 5 1q15 0 15 -23v-159l-524 -164q73 -118 120 -192h-1q84 -126 137 -168q70 -57 161 -57h226v-274h-161
q-163 0 -250 53q-75 43 -150 162q-28 -100 -87 -150q-77 -62 -226 -65z" />
    <glyph glyph-name="uni06B5.init" unicode="&#x6b5;" horiz-adv-x="538" 
d="M538 868v-15q0 -15 -28 -15q-17 0 -51 5v-520q0 -130 -63 -219q-69 -102 -193 -102h-254v274h256q115 0 115 82v10q0 74 -26 226q-38 234 -79 373l154 168q19 20 29 20t27 -31zM311 1249h-93l-224 293h97l173 -167l175 167h99z" />
    <glyph glyph-name="uni06B5.medi" unicode="&#x6b5;" horiz-adv-x="545" 
d="M573 2h-133q-145 0 -198 116q-21 -45 -71 -80.5t-102 -35.5h-97v274h56q56 0 90.5 32.5t34.5 88.5v616l165 149q15 15 27 15q19 0 19 -31v-6l-26 -682q-1 -12 -1 -23q0 -87 35 -130q22 -29 80 -29h121v-274zM325 1249h-92l-225 293h98l173 -167l175 167h98z" />
    <glyph glyph-name="uni06B5.fina" unicode="&#x6b5;" horiz-adv-x="1366" 
d="M1394 2h-86q-78 0 -122 69q0 -168 -15 -240q-34 -167 -146 -256q-148 -120 -434 -120q-222 0 -334 118q-97 100 -97 264q0 63 22 171t47 155q19 32 46 36q23 0 23 -33q0 -12 -4 -18q-22 -73 -22 -134q0 -165 98 -231q83 -56 255 -56q193 0 339 68q113 52 113 104v4
l-74 1071l195 166q22 19 35 19q21 0 21 -51v-9l-21 -672v-9q0 -142 130 -142h31v-274zM1156 1275h-93l-224 294h97l173 -168l175 168h99z" />
    <glyph glyph-name="uni06B6.init" unicode="&#x6b6;" horiz-adv-x="380" 
d="M379 868q0 -3 1 -8v-7q0 -15 -28 -15q-17 0 -51 5v-520q0 -130 -63 -219q-69 -102 -193 -102h-73v274h75q114 0 114 82v11q0 73 -25 225q-38 234 -79 373l154 168q19 20 29 20t27 -31zM354 1402q4 -4 4 -10q0 -7 -4 -12l-112 -112q-7 -6 -14 -6t-14 6l-114 109
q-4 6 -4 12q0 9 10 19l104 106q4 8 13 8q7 0 17 -8z" />
    <glyph glyph-name="uni06B6.medi" unicode="&#x6b6;" horiz-adv-x="481" 
d="M509 2h-69q-145 0 -198 116q-21 -45 -71 -80.5t-102 -35.5h-97v274h56q56 0 90.5 32.5t34.5 88.5v616l165 149q15 15 27 15q19 0 19 -31v-6l-26 -682q-1 -12 -1 -23q0 -87 35 -130q22 -29 80 -29h57v-274zM380 1408q5 -3 5 -10t-5 -11l-112 -112q-7 -6 -14 -6q-6 0 -13 6
l-114 108q-5 6 -5 13q0 9 10 19l104 106q5 8 13 8q7 0 17 -8z" />
    <glyph glyph-name="uni06B6.fina" unicode="&#x6b6;" horiz-adv-x="1366" 
d="M1394 2h-86q-78 0 -122 69q0 -168 -15 -240q-34 -167 -146 -256q-148 -120 -434 -120q-222 0 -334 118q-97 100 -97 264q0 63 22 171t47 155q19 32 46 36q23 0 23 -33q0 -12 -4 -18q-22 -73 -22 -134q0 -165 98 -231q83 -56 255 -56q193 0 339 68q113 52 113 104v4
l-74 1071l195 166q22 19 35 19q21 0 21 -51v-9l-21 -672v-9q0 -142 130 -142h31v-274zM1240 1382q4 -4 4 -10q0 -7 -4 -12l-112 -112q-7 -6 -14 -6t-14 6l-114 109q-5 6 -5 12q0 9 11 19l104 106q4 8 12 8t18 -8z" />
    <glyph glyph-name="uni06B7.init" unicode="&#x6b7;" horiz-adv-x="479" 
d="M469 868q0 -3 1 -8v-7q0 -15 -28 -15q-17 0 -51 5v-520q0 -130 -63 -219q-69 -102 -193 -102h-163v274h165q115 0 115 82v10q0 74 -26 226q-38 234 -79 373l154 168q19 20 29 20t27 -31zM361 1544q4 -5 4 -10q0 -6 -6 -13l-105 -103q-4 -4 -10 -4q-5 0 -11 4l-108 103
q-2 3 -2 7q0 8 8 21l96 98q7 5 14 5q6 0 12 -5zM471 1336q4 -4 4 -9q0 -6 -6 -12l-104 -105q-6 -6 -12 -6q-7 0 -12 6l-104 103l-98 -103q-5 -5 -10 -5q-6 0 -12 5l-107 103q-6 6 -6 12q0 8 9 17l97 100q7 5 12 5q7 0 15 -5l98 -100l101 100q5 5 11 5t16 -5z" />
    <glyph glyph-name="uni06B7.medi" unicode="&#x6b7;" horiz-adv-x="481" 
d="M509 2h-69q-145 0 -198 116q-21 -45 -71 -80.5t-102 -35.5h-97v274h56q56 0 90.5 32.5t34.5 88.5v616l165 149q15 15 27 15q19 0 19 -31v-6l-26 -682q-1 -12 -1 -23q0 -87 35 -130q22 -29 80 -29h57v-274zM362 1544q4 -5 4 -10q0 -6 -6 -13l-105 -103q-4 -4 -10 -4
q-5 0 -12 4l-107 103q-2 3 -2 7q0 8 7 21l97 98q7 5 13 5q7 0 12 -5zM472 1336q3 -4 3 -9q0 -6 -5 -12l-104 -105q-6 -6 -12 -6q-8 0 -12 6l-104 103l-98 -103q-5 -5 -10 -5q-6 0 -12 5l-107 103q-6 6 -6 12q0 8 9 17l97 100q7 5 12 5q7 0 15 -5l98 -100l100 100q6 5 12 5
t16 -5z" />
    <glyph glyph-name="uni06B7.fina" unicode="&#x6b7;" horiz-adv-x="1366" 
d="M1394 2h-86q-78 0 -122 69q0 -168 -15 -240q-34 -167 -146 -256q-148 -120 -434 -120q-222 0 -334 118q-97 100 -97 264q0 63 22 171t47 155q19 32 46 36q23 0 23 -33q0 -12 -4 -18q-22 -73 -22 -134q0 -165 98 -231q83 -56 255 -56q193 0 339 68q113 52 113 104v4
l-74 1071l195 166q22 19 35 19q21 0 21 -51v-9l-21 -672v-9q0 -142 130 -142h31v-274zM1254 1571q4 -5 4 -10q0 -6 -6 -13l-104 -103q-5 -4 -10 -4q-6 0 -12 4l-108 103q-2 2 -2 6q0 8 8 21l96 99q7 5 14 5q6 0 12 -5zM1364 1363q4 -5 4 -10q0 -6 -5 -12l-105 -105
q-6 -5 -12 -5q-7 0 -12 5l-104 103l-98 -103q-5 -5 -10 -5q-6 0 -12 5l-107 103q-6 6 -6 13q0 8 9 16l98 101q6 4 11 4q7 0 15 -4l98 -101l101 101q5 4 11 4t16 -4z" />
    <glyph glyph-name="uni06B8.init" unicode="&#x6b8;" horiz-adv-x="482" 
d="M479 868q0 -3 1 -8v-7q0 -15 -28 -15q-17 0 -51 5v-520q0 -130 -63 -219q-69 -102 -193 -102h-173v274h175q115 0 115 82v10q0 74 -26 226q-38 234 -79 373l154 168q19 20 29 20t27 -31zM256 -537q-6 -5 -12 -5t-13 5l-97 99q-8 13 -8 20q0 4 3 7l107 103q7 4 12 4
q6 0 10 -4l105 -103q6 -7 6 -13q0 -5 -4 -10zM366 -332q-10 -5 -15 -5q-6 0 -12 5l-100 101l-98 -101q-9 -5 -15 -5t-12 5l-97 101q-9 8 -9 16q0 7 6 13l106 103q6 5 12 5q5 0 10 -5l99 -103l104 103q4 5 11 5t12 -5l105 -105q5 -7 5 -13q0 -5 -3 -10z" />
    <glyph glyph-name="uni06B8.medi" unicode="&#x6b8;" horiz-adv-x="481" 
d="M509 2h-69q-145 0 -198 116q-21 -45 -71 -80.5t-102 -35.5h-97v274h56q56 0 90.5 32.5t34.5 88.5v616l165 149q15 15 27 15q19 0 19 -31v-6l-26 -682q-1 -12 -1 -23q0 -87 35 -130q22 -29 80 -29h57v-274zM253 -536q-5 -5 -12 -5q-6 0 -13 5l-97 99q-7 13 -7 20q0 5 2 7
l107 103q7 4 12 4q6 0 10 -4l105 -103q6 -7 6 -13q0 -5 -4 -10zM364 -331q-10 -5 -16 -5t-12 5l-100 101l-98 -101q-8 -5 -15 -5q-5 0 -12 5l-97 101q-9 8 -9 16q0 7 6 13l107 103q6 5 12 5q5 0 10 -5l98 -103l104 103q4 5 12 5q6 0 12 -5l104 -105q5 -7 5 -13q0 -5 -3 -10z
" />
    <glyph glyph-name="uni06B8.fina" unicode="&#x6b8;" horiz-adv-x="1366" 
d="M1394 2h-86q-78 0 -122 69q0 -168 -15 -240q-34 -167 -146 -256q-148 -120 -434 -120q-222 0 -334 118q-97 100 -97 264q0 63 22 171t47 155q19 32 46 36q23 0 23 -33q0 -12 -4 -18q-22 -73 -22 -134q0 -165 98 -231q83 -56 255 -56q193 0 339 68q113 52 113 104v4
l-74 1071l195 166q22 19 35 19q21 0 21 -51v-9l-21 -672v-9q0 -142 130 -142h31v-274zM687 -1068q-6 -5 -12 -5q-7 0 -14 5l-97 99q-7 13 -7 20q0 5 2 7l108 103q6 4 11 4q6 0 10 -4l105 -103q6 -7 6 -13q0 -5 -4 -10zM797 -863q-10 -5 -16 -5t-12 5l-100 100l-98 -100
q-8 -5 -15 -5q-5 0 -12 5l-97 100q-9 9 -9 17q0 7 6 13l107 103q6 5 12 5q5 0 10 -5l98 -103l104 103q5 5 12 5q6 0 12 -5l104 -105q6 -7 6 -13q0 -5 -4 -10z" />
    <glyph glyph-name="uni06B9.init" unicode="&#x6b9;" horiz-adv-x="345" 
d="M345 392q0 -146 -63 -251q-83 -139 -235 -139h-75v274h65q177 0 177 53q0 45 -157 192l128 201q5 8 12 8q5 0 11 -4q64 -53 103 -151q34 -90 34 -183zM317 -192q6 -3 6 -10q0 -5 -6 -14l-112 -112q-6 -6 -12 -6q-7 0 -14 6l-116 110q-3 7 -3 14q0 9 7 17l105 107
q7 7 13 7q10 0 18 -7zM316 977q7 -3 7 -10q0 -5 -7 -14l-112 -112q-6 -6 -12 -6t-13 6l-116 110q-3 7 -3 13q0 10 7 18l104 107q8 7 14 7q9 0 17 -7z" />
    <glyph glyph-name="uni06B9.medi" unicode="&#x6b9;" horiz-adv-x="503" 
d="M531 2h-65q-153 0 -213 171q-49 -171 -194 -171h-87v274h56q149 0 186 190q12 58 46 58t41 -58q20 -190 165 -190h65v-274zM314 -227q6 -4 6 -9q0 -7 -8 -16l-111 -112q-6 -3 -12 -3t-11 3l-117 112q-5 5 -5 11q0 8 10 20l102 104q8 6 15 6t14 -6zM294 797q6 -4 6 -9
q0 -7 -8 -16l-111 -112q-6 -3 -12 -3t-11 3l-117 112q-5 5 -5 11q0 8 10 20l102 104q8 6 15 6t14 -6z" />
    <glyph glyph-name="uni06B9.fina" unicode="&#x6b9;" horiz-adv-x="1416" 
d="M1444 2h-66q-96 0 -127 24q3 -57 3 -82q0 -246 -168 -373q-149 -114 -404 -116h-10q-208 0 -344 85q-168 102 -168 304q0 105 32 207q29 85 59 128q24 36 48 36q22 0 22 -30q0 -12 -7 -34q-34 -100 -34 -173q0 -244 407 -246h16q131 0 258 32q211 57 213 175v1
q0 79 -225 318l120 197q12 25 24 25q10 0 24 -19q43 -50 113 -123q76 -62 153 -62h61v-274zM828 -752q8 -4 8 -9t-9 -12l-112 -113q-3 -9 -10 -9t-12 9l-115 109q-6 6 -6 13q0 8 9 17l104 106q7 7 14 7t15 -7zM829 555q7 -4 7 -9q0 -6 -9 -13l-112 -112q-3 -9 -10 -9
q-6 0 -12 9l-115 108q-6 6 -6 13q0 8 9 17l104 106q7 7 14 7q8 0 15 -7z" />
    <glyph glyph-name="uni06BC.init" unicode="&#x6bc;" horiz-adv-x="408" 
d="M316 977q7 -3 7 -10q0 -5 -7 -14l-112 -112q-6 -6 -12 -6t-13 6l-116 110q-3 7 -3 13q0 10 7 18l104 107q8 7 14 7q9 0 17 -7zM296 -108q0 18 -87.5 64t-112.5 46q-13 0 -23 -31q-8 -27 -8 -43q0 -76 108 -76q123 0 123 40zM38 2h-66v274h128q178 0 178 53q0 45 -158 192
l129 201q5 8 12 8q5 0 11 -4q63 -53 103 -151q33 -90 33 -183q0 -146 -62 -251q-35 -57 -81 -91q84 -64 84 -130q0 -84 -53 -147q-57 -67 -142 -67q-151 0 -151 136q0 53 34 156q1 2 1 4z" />
    <glyph glyph-name="uni06BC.medi" unicode="&#x6bc;" horiz-adv-x="613" 
d="M300 -108q0 18 -87.5 64t-112.5 46q-13 0 -23 -31q-8 -27 -8 -43q0 -76 108 -76q123 0 123 40zM41 2h-69v274h165q149 0 187 190q11 58 45 58q35 0 41 -58q20 -190 165 -190h66v-274h-66q-153 0 -212 171q-27 -91 -80 -134q70 -59 70 -119q0 -84 -53 -147
q-57 -67 -142 -67q-151 0 -151 136q0 53 33 156q1 2 1 4zM295 800q7 -3 7 -10q0 -5 -7 -14l-112 -112q-6 -6 -12 -6t-13 6l-116 110q-3 7 -3 14q0 9 7 17l105 107q7 7 13 7q9 0 18 -7z" />
    <glyph glyph-name="uni06BC.fina" unicode="&#x6bc;" horiz-adv-x="1407" 
d="M807 555q7 -4 7 -9q0 -6 -9 -13l-112 -112q-3 -9 -10 -9q-6 0 -12 9l-115 108q-6 6 -6 13q0 8 9 17l104 106q7 7 14 7q8 0 15 -7zM591 -541q-154 14 -262 81q-168 102 -168 304q0 105 32 207q29 85 59 128q24 36 48 36q22 0 22 -30q0 -12 -7 -34q-34 -100 -34 -173
q0 -244 407 -246h16q131 0 258 32q211 57 213 175v1q0 79 -225 318l120 197q12 25 24 25q10 0 24 -19q43 -50 113 -123q76 -62 153 -62h51v-274h-56q-96 0 -127 24q3 -57 3 -82q0 -246 -168 -373q-94 -72 -232 -99q47 -49 47 -98q0 -84 -53 -147q-58 -67 -142 -67
q-152 0 -152 137q0 53 34 155q1 4 2 7zM657 -545h-12q-10 -3 -19 -30q-9 -26 -9 -43q0 -76 109 -76q123 0 123 40q0 18 -88 65q-75 39 -104 44z" />
    <glyph glyph-name="uni06BD.init" unicode="&#x6bd;" horiz-adv-x="499" 
d="M499 392q0 -146 -62 -251q-83 -139 -235 -139h-230v274h220q177 0 177 53q0 45 -157 192l128 201q5 8 12 8q5 0 11 -4q64 -53 103 -151q33 -90 33 -183zM347 1140q5 -4 5 -9q0 -6 -5 -13l-105 -105q-2 -2 -8 -2t-12 2l-105 103q-7 6 -7 12q0 7 8 15l97 99q5 6 13 6
q7 0 12 -6zM458 933q5 -4 5 -9q0 -6 -5 -13l-108 -107q-3 -3 -10 -3q-6 0 -10 3l-102 103l-101 -103q-4 -5 -10 -5t-13 5l-106 105q-7 5 -7 12t7 16l100 100q6 6 12 6q7 0 15 -6l97 -100l100 100q7 6 14 6t13 -6z" />
    <glyph glyph-name="uni06BD.medi" unicode="&#x6bd;" horiz-adv-x="622" 
d="M650 2h-66q-153 0 -212 171q-49 -171 -195 -171h-205v274h174q149 0 187 190q12 58 45 58q35 0 41 -58q20 -190 165 -190h66v-274zM377 1025q3 -6 3 -11t-3 -12l-105 -101q-2 -7 -8 -7t-12 7l-105 99q-5 6 -5 13t6 15l97 96q5 8 13 8q7 0 12 -8zM488 817q2 -4 2 -10
q0 -4 -2 -12l-108 -104q-3 -6 -10 -6q-6 0 -10 6l-102 100l-101 -100q-4 -6 -10 -6t-13 6l-106 103q-5 5 -5 12t5 15l100 98q6 8 12 8q7 0 15 -8l97 -98l100 98q7 7 14 7t13 -7z" />
    <glyph glyph-name="uni06BD.fina" unicode="&#x6bd;" horiz-adv-x="1406" 
d="M1434 2h-56q-96 0 -127 24q3 -57 3 -82q0 -246 -168 -373q-149 -114 -404 -116h-10q-208 0 -344 85q-168 102 -168 304q0 105 32 207q29 85 59 128q24 36 48 36q22 0 22 -30q0 -12 -7 -34q-34 -100 -34 -173q0 -244 407 -246h16q131 0 258 32q211 57 213 175v1
q0 79 -225 318l120 197q12 25 24 25q10 0 24 -19q43 -50 113 -123q76 -62 153 -62h51v-274zM815 698q4 -5 4 -10q0 -6 -6 -13l-105 -103q-4 -4 -10 -4q-5 0 -11 4l-108 103q-2 2 -2 6q0 8 8 21l96 99q7 5 14 5q6 0 12 -5zM925 490q4 -4 4 -9q0 -6 -6 -13l-104 -104
q-6 -6 -12 -6q-7 0 -12 6l-104 102l-98 -102q-5 -5 -10 -5q-6 0 -12 5l-107 102q-6 6 -6 13q0 8 9 17l97 100q7 4 12 4q7 0 15 -4l98 -100l101 100q5 4 11 4t16 -4z" />
    <glyph glyph-name="uni06BF.init" unicode="&#x6bf;" horiz-adv-x="1167" 
d="M1157 466l-74 -142q-22 -29 -38 -29h-91q-66 0 -207 -76q-229 -126 -269 -142q-172 -75 -342 -75h-164v274h156q169 0 281 26q51 11 241 78q-44 14 -222 83q-129 51 -164 51q-52 0 -87 -28q-12 -14 -46 -47q-15 -22 -39 -22q-32 0 -32 36q0 17 1 25q25 69 87 144
q86 109 182 109q54 0 190 -50q212 -79 276 -99q190 -56 331 -65q38 -3 40 -20q0 -13 -10 -31zM683 1004q4 -5 4 -11t-6 -13l-112 -112q-7 -6 -12 -6t-14 6l-114 109q-6 5 -6 12q0 9 8 20l108 105q6 8 12 8q7 0 14 -8zM482 -405q-4 6 -4 11q0 7 6 14l104 102q3 7 8 7t12 -7
l106 -100q5 -6 5 -13q0 -8 -7 -16l-96 -97q-7 -6 -14 -6t-14 6zM372 -197q-6 5 -6 10q0 6 8 14l104 104q4 7 10 7t13 -7l101 -100l99 100q6 6 12 6q7 0 13 -6l106 -102q6 -7 6 -13q0 -8 -10 -15l-96 -100q-6 -6 -14 -6q-6 0 -15 6l-99 100l-96 -100q-7 -6 -14 -6t-15 6z" />
    <glyph glyph-name="uni06BF.medi" unicode="&#x6bf;" horiz-adv-x="1208" 
d="M1236 2h-165q-195 0 -256 106q-34 60 -38 228q-167 -147 -250 -202q-208 -132 -397 -132h-158v274h122q154 0 321 57q103 33 258 112q-358 100 -437 100q-37 0 -71 -26q-8 -9 -43 -46q-22 -25 -45 -25q-28 0 -28 36q0 12 6 30q20 65 81 144q88 117 182 117q64 0 178 -33
q171 -51 224 -63q207 -45 402 -63q41 -4 41 -22q0 -15 -12 -35l-97 -167q-74 8 -114 10h-6q-70 0 -70 -44q0 -82 202 -82h170v-274zM757 1004q6 -5 6 -11t-6 -13l-114 -112q-6 -6 -11 -6q-6 0 -12 6l-114 109q-8 6 -8 14t10 18l106 105q6 7 12 7q7 0 14 -7zM482 -405
q-4 6 -4 11q0 7 6 14l104 102q3 7 8 7t12 -7l106 -100q5 -6 5 -13q0 -8 -7 -16l-96 -97q-7 -6 -14 -6t-14 6zM372 -197q-6 5 -6 10q0 6 8 14l104 104q4 7 10 7t13 -7l101 -100l99 100q6 6 12 6q7 0 13 -6l106 -102q6 -7 6 -13q0 -8 -10 -15l-96 -100q-6 -6 -14 -6
q-6 0 -15 6l-99 100l-96 -100q-7 -6 -14 -6t-15 6z" />
    <glyph glyph-name="uni06BF.fina" unicode="&#x6bf;" horiz-adv-x="1335" 
d="M1363 2h-133q-188 0 -263 91q-69 85 -69 297q-221 -37 -348 -168q-122 -124 -124 -297v-4q0 -180 167 -265q128 -67 332 -68h21q105 0 233 18q28 4 44 4q45 0 48 -34q0 -41 -137 -78q-159 -43 -338 -43q-250 0 -419 87q-217 112 -217 336q0 332 404 506q93 39 210 69
q-242 32 -346 32q-61 0 -102 -34q-22 -24 -42 -49q-26 -28 -55 -30q-27 0 -27 35q0 5 4 20q20 77 72 156q87 133 201 136q59 0 189 -28q148 -31 201 -36q302 -24 411 -24q47 0 47 -19q0 -22 -71 -136q-43 -69 -68 -69q-160 0 -204 -3q0 -128 174 -128h205v-274zM916 1004
q7 -6 7 -12t-7 -12l-113 -112q-4 -6 -10 -6t-13 6l-114 109q-6 5 -6 12q0 9 8 20l106 105q7 7 14 7q8 0 15 -7zM618 -209q-3 7 -3 12q0 6 3 10l105 102q3 7 8 7t12 -7l108 -100q4 -5 4 -11q0 -8 -6 -16l-99 -99q-6 -5 -13 -5q-6 0 -12 5zM508 -2q-5 7 -5 12t5 10l105 106
q3 6 10 6t12 -6l104 -104l98 104q6 4 12 4q4 0 13 -4l105 -104q6 -5 6 -11q0 -7 -8 -16l-98 -99q-6 -7 -13 -7q-6 0 -14 7l-99 99l-96 -99q-7 -6 -15 -6q-7 0 -14 6z" />
    <glyph glyph-name="uni06C2.fina" unicode="&#x6c2;" horiz-adv-x="719" 
d="M372 501h10l18 -1q12 -1 27 -5q17 -4 31 -14q46 -26 76 -87q31 -65 74 -94q35 -24 79 -24h60v-274h-60q-129 0 -190 156q-35 89 -73 119q-15 11 -30 14h-13q-8 0 -17 -3q-72 -27 -103 -161q-21 -89 -42 -118q-10 -14 -21 -14h-1q-28 0 -28 35q-5 30 -6 62v13q0 27 3 55
q6 75 32 162q49 166 164 178zM508 776l-41 -66q-183 -67 -293 -144q-10 25 -10 44q0 20 94 83q-77 44 -77 93q0 51 58.5 107.5t109.5 58.5h4q47 0 82 -40q18 -31 18 -37q0 -11 -23 -14l-24 4q-26 4 -49 4q-68 0 -85 -25q-4 -6 -4 -16q0 -13 24.5 -34t54.5 -35q68 24 132 43
q14 3 19 3q16 0 16 -14q0 -1 -6 -15z" />
    <glyph glyph-name="uni06C3.fina" unicode="&#x6c3;" horiz-adv-x="719" 
d="M372 501h10l18 -1q12 -1 27 -5q17 -4 31 -14q46 -26 76 -87q31 -65 74 -94q35 -24 79 -24h60v-274h-60q-129 0 -190 156q-35 89 -73 119q-15 11 -30 14h-13q-8 0 -17 -3q-72 -27 -103 -161q-21 -89 -42 -118q-10 -14 -21 -14h-1q-28 0 -28 35q-5 30 -6 62v13q0 27 3 55
q6 75 32 162q49 166 164 178zM585 774q6 -5 6 -9q0 -5 -6 -9l-107 -106q-3 -6 -10 -6q-5 0 -10 6l-102 102l-101 -102q-4 -5 -10 -5q-5 0 -12 5l-109 104q-6 4 -6 10q0 7 7 16l101 100q7 5 13 5t14 -5l97 -100l100 100q8 5 13 5q7 0 14 -5z" />
    <glyph glyph-name="uni06C4.fina" unicode="&#x6c4;" horiz-adv-x="935" 
d="M630 272q-16 52 -64 95.5t-101 43.5q-39 0 -66 -24.5t-27 -62.5q0 -54 186 -54q51 0 72 2zM462 -263q-9 46 -35.5 85t-55.5 39q-21 0 -36 -22t-15 -56q0 -48 102 -48q28 0 40 2zM499 -240q62 42 100 78q80 87 95 160q-93 -3 -131 -3q-327 0 -327 170q0 36 26 142
q87 354 239 354q127 0 208 -142q58 -103 76 -243h178v-274h-178q-8 -74 -24 -135q-46 -198 -189 -354q-30 -34 -51.5 -44.5t-55.5 -10.5h-20q-74 0 -187 12q-170 21 -170 56q0 30 73 61q102 40 178 79q-77 14 -77 67q0 16 11 61q37 151 102 151q54 0 89 -61q29 -51 35 -124z
" />
    <glyph glyph-name="uni06CA.fina" unicode="&#x6ca;" horiz-adv-x="935" 
d="M748 884q5 -5 5 -10q0 -4 -5 -9l-107 -106q-3 -6 -10 -6q-5 0 -10 6l-102 103l-101 -103q-4 -5 -10 -5q-5 0 -12 5l-109 105q-6 4 -6 10t7 15l101 100q7 6 13 6t14 -6l96 -100l101 100q8 6 13 6q7 0 14 -6zM630 272q-16 52 -64 95.5t-101 43.5q-39 0 -66 -24.5t-27 -62.5
q0 -54 186 -54q51 0 72 2zM785 276h178v-274h-178q-8 -74 -24 -135q-46 -198 -189 -354q-30 -34 -51.5 -44.5t-55.5 -10.5h-20q-74 0 -187 12q-170 21 -170 56q0 30 73 61q153 61 248 117q127 75 190 134q80 87 95 160q-93 -3 -131 -3q-327 0 -327 170q0 36 26 142
q87 354 239 354q127 0 208 -142q58 -103 76 -243z" />
    <glyph glyph-name="uni06CD.fina" unicode="&#x6cd;" horiz-adv-x="1684" 
d="M403 -22q-24 -51 -109 -51q-20 0 -42 3q-92 11 -92 30q0 17 39 33q84 30 135 60q69 40 113 85q26 26 44 39q15 16 32 16q25 0 25 -32q0 -8 -7 -32q-32 -76 -32 -161v-3q0 -137 162 -221q147 -75 388 -77h11q269 0 413 46q48 16 48 31q0 20 -63 20h-251q-218 0 -219 124v2
q0 47 41 114q169 272 578 272h95v-274h-407q-186 0 -186 -49q0 -41 186 -41h196q145 0 145 -121q0 -216 -283 -297q-163 -45 -457 -45q-206 0 -338 65q-189 89 -189 286v12q0 78 24 166z" />
    <glyph glyph-name="uni06CE.init" unicode="&#x6ce;" horiz-adv-x="527" 
d="M490 392q0 -146 -63 -251q-82 -139 -235 -139h-220v274h210q178 0 178 53q0 45 -158 192l129 201q5 8 12 8q5 0 11 -4q63 -53 103 -151q33 -90 33 -183zM482 -273q6 -3 6 -9q0 -7 -6 -13l-105 -104q-7 -6 -11 -6q-6 0 -12 6l-102 102l-101 -102q-5 -6 -11 -6q-5 0 -10 6
l-107 104q-7 6 -7 13t8 16l98 98q6 5 12 5t14 -5l100 -98l98 98q8 5 14 5q7 0 16 -5zM300 828h-93l-224 293h97l173 -167l175 167h99z" />
    <glyph glyph-name="uni06CE.medi" unicode="&#x6ce;" horiz-adv-x="632" 
d="M660 2h-76q-153 0 -212 171q-49 -171 -195 -171h-205v274h174q149 0 187 190q12 58 45 58q35 0 41 -58q20 -190 165 -190h76v-274zM482 -273q6 -3 6 -9q0 -7 -6 -13l-105 -104q-7 -6 -11 -6q-6 0 -12 6l-102 102l-101 -102q-5 -6 -11 -6q-5 0 -10 6l-107 104q-7 6 -7 13
t8 16l98 98q6 5 12 5t14 -5l100 -98l98 98q8 5 14 5q7 0 16 -5zM339 716h-93l-224 293h98l173 -167l175 167h98z" />
    <glyph glyph-name="uni06CE.fina" unicode="&#x6ce;" horiz-adv-x="1455" 
d="M1483 2h-397q-186 0 -186 -49q0 -41 186 -41h196q145 0 145 -121q0 -216 -283 -297q-163 -45 -457 -45q-206 0 -338 65q-189 89 -189 286q0 78 27 185q29 113 68 171q23 37 49 37q25 0 25 -32q0 -8 -3 -31q-36 -77 -36 -162v-3q0 -137 162 -221q147 -75 388 -77h11
q269 0 413 46q48 16 48 31q0 20 -63 20h-251q-218 0 -219 124v2q0 47 41 114q169 272 578 272h85v-274zM575 290h-92l-225 293h98l173 -168l175 168h98z" />
    <glyph glyph-name="uni06CF.fina" unicode="&#x6cf;" horiz-adv-x="935" 
d="M625 881q4 -5 4 -11t-5 -12l-105 -103q-4 -4 -10 -4q-5 0 -12 4l-108 103q-2 2 -2 6q0 8 8 22l96 98q7 5 14 5q6 0 12 -5zM630 272q-16 52 -64 95.5t-101 43.5q-39 0 -66 -24.5t-27 -62.5q0 -54 186 -54q51 0 72 2zM785 276h178v-274h-178q-8 -74 -24 -135
q-46 -198 -189 -354q-30 -34 -51.5 -44.5t-55.5 -10.5h-20q-74 0 -187 12q-170 21 -170 56q0 30 73 61q153 61 248 117q127 75 190 134q80 87 95 160q-93 -3 -131 -3q-327 0 -327 170q0 36 26 142q87 354 239 354q127 0 208 -142q58 -103 76 -243z" />
    <glyph glyph-name="uni06D1.init" unicode="&#x6d1;" horiz-adv-x="498" 
d="M490 392q0 -146 -63 -251q-82 -139 -235 -139h-220v274h210q178 0 178 53q0 45 -158 192l129 201q5 8 12 8q5 0 11 -4q63 -53 103 -151q33 -90 33 -183zM136 -468q-5 7 -5 12t5 11l104 104q5 3 10 3q7 0 14 -3l103 -102q6 -5 6 -11q0 -8 -9 -16l-95 -97q-7 -6 -14 -6
q-6 0 -13 6zM26 -261q-5 7 -5 11q0 6 5 12l105 106q7 6 12 6t12 -6l100 -102l101 102q6 5 11 5q6 0 12 -5l107 -104q6 -6 6 -13t-8 -14l-100 -99q-5 -6 -11 -6t-13 6l-100 99l-100 -99q-5 -7 -11 -7q-7 0 -15 7z" />
    <glyph glyph-name="uni06D1.medi" unicode="&#x6d1;" horiz-adv-x="623" 
d="M651 2h-76q-153 0 -212 171q-49 -171 -195 -171h-196v274h165q149 0 187 190q11 58 45 58q35 0 41 -58q20 -190 165 -190h76v-274zM127 -468q-5 7 -5 12t5 11l104 104q5 3 10 3q7 0 13 -3l104 -102q6 -5 6 -11q0 -8 -9 -16l-95 -97q-7 -6 -14 -6q-6 0 -13 6zM17 -261
q-5 7 -5 11q0 6 5 12l105 106q7 6 12 6t12 -6l100 -102l101 102q6 5 11 5q6 0 12 -5l107 -104q6 -6 6 -13t-8 -14l-100 -99q-5 -6 -11 -6t-13 6l-100 99l-100 -99q-5 -7 -11 -7q-7 0 -15 7z" />
    <glyph glyph-name="uni06D1.fina" unicode="&#x6d1;" horiz-adv-x="1455" 
d="M1483 2h-397q-186 0 -186 -49q0 -41 186 -41h196q145 0 145 -121q0 -216 -283 -297q-163 -45 -457 -45q-206 0 -338 65q-189 89 -189 286q0 78 27 185q29 113 68 171q23 37 49 37q25 0 25 -32q0 -8 -3 -31q-36 -77 -36 -162v-3q0 -137 162 -221q147 -75 388 -77h11
q269 0 413 46q48 16 48 31q0 20 -63 20h-251q-218 0 -219 124v2q0 47 41 114q169 272 578 272h85v-274zM989 -750q6 -4 6 -10q0 -4 -6 -12l-107 -104q-6 -7 -11 -7t-9 7l-102 103l-102 -103q-4 -4 -9 -4q-6 0 -13 4l-104 103q-8 6 -8 13q0 8 9 16l95 100q8 4 14 4t14 -4
l101 -100l96 100q9 4 14 4t14 -4zM875 -956q4 -5 4 -10q0 -6 -6 -12l-104 -103q-5 -5 -10 -5q-6 0 -12 5l-108 103q-2 2 -2 6q0 8 8 21l96 98q7 5 14 5q6 0 12 -5z" />
    <glyph glyph-name="uni06D5.fina" unicode="&#x6d5;" horiz-adv-x="831" 
d="M859 2h-73q-122 0 -183 96q-22 38 -51 160q-49 -109 -77 -109q-63 0 -176 44q-139 57 -139 118q0 35 30 101q36 74 55 90q51 43 244 144l-12 98l118 167q18 24 31 24q14 0 19 -34l60 -421q16 -124 43.5 -163t78.5 -39h32v-276zM540 343l-27 184q-123 -43 -190 -116
q66 -45 217 -68z" />
    <glyph glyph-name="uni06EE.fina" unicode="&#x6ee;" horiz-adv-x="1119" 
d="M1147 2h-68q-112 0 -178 103q-29 44 -81 190q-70 -132 -131 -188q-119 -112 -305 -112q-145 0 -198 90q-26 43 -26 106q0 134 44 232q22 47 49 47q25 0 29 -31q0 -18 -5 -37q0 -10 -2 -24v-18q0 -99 168 -99q211 0 343 119l-141 378l124 139q11 14 21 14q6 0 13 -21
l149 -447q56 -167 155 -167h40v-274zM1036 916h-98l-175 167l-173 -167h-97l224 293h93z" />
    <glyph glyph-name="uni06EF.fina" unicode="&#x6ef;" horiz-adv-x="837" 
d="M865 2h-61q-21 0 -40 15v-15q0 -169 -65 -311q-69 -149 -174 -224q-24 -6 -56 -8q-16 -1 -33 -1q-71 0 -174 13q-170 19 -170 57q0 31 73 61q170 72 248 116q119 68 192 136.5t73 122.5v1q0 92 -243 265l135 209q8 9 24 21q7 0 25 -21q136 -163 213 -163h33v-274z
M847 543h-98l-175 168l-173 -168h-98l224 293h93z" />
    <glyph glyph-name="uni06FA.init" unicode="&#x6fa;" horiz-adv-x="940" 
d="M940 354q0 -135 -55 -236q-67 -116 -179 -116q-111 0 -159 112q-13 -45 -62 -78.5t-102 -33.5q-109 0 -168 103q-19 -40 -58 -69q-46 -34 -89 -34h-96v274h96q67 0 94 45q12 17 28 86q8 39 35 42q26 0 34 -44q10 -67 25 -84q26 -45 99 -45q65 0 90 45q15 27 25 86
q9 42 36 42t37 -42q5 -61 31 -86q35 -45 147 -45q81 0 81 65q0 54 -81 156l99 135q10 14 18 14q11 0 17 -15q57 -129 57 -277zM625 1061q5 -4 5 -9q0 -4 -5 -9l-102 -105q-6 -3 -12 -3q-4 0 -10 3l-104 103q-5 6 -5 11q0 7 6 13l97 98q5 6 12 6t15 -6zM735 855q8 -5 8 -10
t-8 -10l-103 -107q-9 -4 -13 -4t-11 4l-101 105l-102 -105q-6 -4 -10 -4q-6 0 -12 4l-106 105q-6 6 -6 12q0 7 8 15l98 98q6 6 12 6t12 -6l102 -98l100 98q4 7 10 7q7 0 14 -7zM522 -394q-8 -6 -15 -6t-12 6l-97 97q-7 7 -7 14q0 6 6 11l104 103q6 3 10 3q6 0 12 -3
l102 -105q5 -5 5 -10q0 -4 -5 -9z" />
    <glyph glyph-name="uni06FA.medi" unicode="&#x6fa;" horiz-adv-x="879" 
d="M907 2h-49q-71 0 -120 93q-52 -97 -132 -97q-90 0 -149 95q-58 -91 -136 -91q-85 0 -146 88q-14 -23 -53 -53q-47 -35 -93 -35h-57v274h52q58 0 75 45q3 6 21 86q8 39 37 42q28 0 37 -44q7 -31 20 -84q18 -45 68 -45q63 0 92 45q3 18 22 86q5 42 35 42q26 0 39 -42
q14 -78 20 -86q26 -45 81 -45q54 0 76 45q3 13 18 86q10 42 41 42q20 0 34 -42q14 -64 24 -84q22 -47 78 -47h65v-274zM588 1061q5 -5 5 -9q0 -5 -5 -9l-104 -105q-6 -3 -12 -3q-5 0 -14 3l-102 103q-5 5 -5 11q0 7 7 13l97 98q6 6 13 6t14 -6zM698 855q5 -5 5 -9
q0 -6 -7 -11l-107 -107q-1 -4 -8 -4q-5 0 -12 4l-102 105l-101 -105q-4 -4 -10 -4q-8 0 -12 4l-110 105q-3 4 -3 9q0 8 9 18l98 98q6 7 12 7t14 -7l100 -98l98 98q7 7 14 7q5 0 13 -7zM476 -404q-8 -6 -15 -6t-13 6l-96 97q-7 7 -7 14q0 6 4 11l103 103q8 3 14 3q5 0 12 -3
l103 -105q5 -4 5 -9t-5 -10z" />
    <glyph glyph-name="uni06FA.fina" unicode="&#x6fa;" horiz-adv-x="1919" 
d="M1947 2h-50q-71 0 -118 93q-57 -97 -132 -97q-87 0 -150 95q-37 -52 -54 -67q-28 -24 -79 -24q-57 0 -107 16q0 -254 -134 -398q-151 -163 -440 -165h-10q-208 0 -344 85q-168 102 -168 304q0 105 32 207q29 85 59 128q24 36 48 36q22 0 22 -30q0 -12 -7 -34
q-34 -100 -34 -173q0 -244 407 -246h16q131 0 258 32q211 57 213 175v1q0 79 -225 318l110 197q17 23 26 23q12 0 24 -17q70 -91 104 -123q67 -62 128 -62q51 0 71 45q3 13 18 86q7 42 41 42q31 0 39 -42q16 -74 22 -86q17 -45 77 -45q51 0 72 45q9 33 20 86q12 42 45 42
q28 0 37 -42q14 -78 21 -84q20 -47 78 -47h64v-274zM1600 1052q5 -5 5 -9q0 -5 -7 -9l-101 -105q-6 -3 -11 -3q-7 0 -16 3l-101 103q-5 5 -5 11t7 13l96 98q6 6 13 6t14 -6zM1710 845q4 -4 4 -9t-4 -11l-106 -106q-4 -4 -12 -4q-4 0 -12 4l-99 105l-104 -105q-3 -4 -10 -4
q-5 0 -12 4l-105 105q-6 5 -6 11q0 7 8 16l98 98q5 7 12 7q5 0 13 -7l101 -98l98 98q5 7 14 7q6 0 13 -7zM1513 -352q-7 -6 -14 -6q-6 0 -12 6l-97 98q-8 5 -8 12q0 6 6 12l101 103q9 4 16 4q5 0 12 -4l100 -104q7 -5 7 -11q0 -4 -5 -9z" />
    <glyph glyph-name="uni06FB.init" unicode="&#x6fb;" horiz-adv-x="1173" 
d="M1173 514q0 -112 -92 -238q-81 -108 -186 -176q-159 -98 -355 -98q-243 0 -329 91q-58 -91 -152 -91h-87v274h57q81 0 112 48q18 17 36 88q14 49 34 49q23 0 39 -44q24 -69 24 -83q21 -42 64 -42q117 156 294 278q191 134 350 136q72 0 131.5 -58t59.5 -134zM1005 356
q0 39 -59.5 81.5t-146.5 44.5h-6q-90 0 -185 -61q-87 -57 -151 -143q74 -12 168 -12q127 0 252.5 23t127.5 67zM862 -283q6 -6 6 -11q0 -7 -8 -15l-112 -112q-3 -5 -10 -5t-12 5l-115 112q-6 5 -6 12t9 16l102 106q9 7 16 7q8 0 14 -7zM853 974q6 -6 6 -11q0 -7 -8 -15
l-112 -112q-4 -5 -10 -5q-7 0 -12 5l-115 112q-6 5 -6 12q0 8 9 17l102 105q9 7 16 7q8 0 14 -7z" />
    <glyph glyph-name="uni06FB.medi" unicode="&#x6fb;" horiz-adv-x="1212" 
d="M1240 2h-67q-77 0 -135 38t-84 102q-187 -140 -414 -140q-243 0 -329 91q-58 -91 -152 -91h-87v274h57q81 0 112 48q18 17 36 88q14 49 34 49q23 0 39 -44q24 -69 24 -83q21 -42 64 -42q120 153 290 273q199 141 354 141q72 0 131.5 -58t59.5 -134q0 -103 -71 -209
q23 -29 73 -29h65v-274zM1005 356q0 39 -59.5 81.5t-146.5 44.5h-6q-90 0 -185 -61q-87 -57 -151 -143q74 -12 168 -12q127 0 252.5 23t127.5 67zM862 -283q6 -6 6 -11q0 -7 -8 -15l-112 -112q-3 -5 -10 -5t-12 5l-115 112q-6 5 -6 12t9 16l102 106q9 7 16 7q8 0 14 -7z
M853 974q6 -6 6 -11q0 -7 -8 -15l-112 -112q-4 -5 -10 -5q-7 0 -12 5l-115 112q-6 5 -6 12q0 8 9 17l102 105q9 7 16 7q8 0 14 -7z" />
    <glyph glyph-name="uni06FB.fina" unicode="&#x6fb;" horiz-adv-x="2128" 
d="M2156 2h-76q-74 0 -132 38t-87 102q-183 -140 -395 -140q-76 0 -137 13q-23 7 -68 21q0 -579 -579 -581q-215 0 -354 85q-168 102 -168 304q0 105 32 207q29 85 59 128q24 36 48 36q22 0 22 -30q0 -12 -7 -34q-34 -100 -34 -173q0 -244 407 -246h16q131 0 258 32
q211 57 213 175v1q0 79 -225 318l110 197q17 23 26 23q12 0 24 -17q72 -93 169 -148q126 165 274 266q185 125 338 127q75 0 132.5 -58.5t57.5 -133.5q0 -105 -70 -209q24 -29 70 -29h76v-274zM1912 356q0 38 -56 83q-64 41 -147 43h-6q-91 0 -188 -63q-86 -56 -151 -141
q78 -12 172 -12q126 0 251 23t125 67zM1767 -283q6 -6 6 -11q0 -7 -8 -15l-112 -112q-3 -5 -10 -5t-12 5l-115 112q-6 5 -6 12t9 16l102 106q9 7 16 7q8 0 14 -7zM1758 974q6 -6 6 -11q0 -7 -8 -15l-112 -112q-4 -5 -10 -5q-7 0 -12 5l-115 112q-6 5 -6 12q0 8 9 17l102 105
q9 7 16 7q8 0 14 -7z" />
    <glyph glyph-name="uni06FC.init" unicode="&#x6fc;" horiz-adv-x="767" 
d="M757 226q-44 -106 -74 -153q-36 -56 -50 -56q-214 0 -314 54q-71 -69 -209 -69h-138v274h122q-41 35 -41 94v7q0 86 87 208q130 185 275 185q185 0 284 -181q23 -41 25 -67q0 -36 -41 -36q-16 0 -60 16q-93 32 -246 32q-188 0 -188 -95q0 -118 277 -149q77 -9 146 -9
q57 0 108 6q15 3 24 3q23 0 23 -22q0 -20 -10 -42zM534 -220q6 -4 6 -10q0 -8 -6 -14l-113 -110q-7 -6 -13 -6t-12 6l-116 110q-5 3 -5 9q0 8 9 21l106 104q6 8 13 8t14 -8zM540 1033q5 -4 5 -10q0 -7 -5 -14l-113 -110q-7 -6 -13 -6q-7 0 -13 6l-116 110q-5 4 -5 10
q0 8 9 20l107 104q6 8 12 8q7 0 15 -8z" />
    <glyph glyph-name="uni06FC.medi" unicode="&#x6fc;" horiz-adv-x="612" 
d="M640 2h-64q-96 0 -163 71q-59 61 -97 149q-31 -94 -82 -145q-73 -75 -199 -75h-63v274h28q150 0 234 98q-59 51 -132 98q-53 35 -57 64q0 66 115 115q97 41 173 41h4q124 0 194 -58q45 -35 46 -95q0 -63 -74 -114q-27 -11 -121 -53q25 -34 89 -65t125 -31h44v-274z
M428 -273q5 -5 5 -11t-5 -12l-113 -112q-5 -7 -11 -7q-7 0 -15 7l-113 112q-6 5 -6 11q0 8 9 16l105 107q6 8 13 8q8 0 16 -8zM448 988q5 -5 5 -11t-5 -12l-113 -112q-5 -7 -11 -7q-7 0 -15 7l-113 112q-6 5 -6 11q0 8 9 16l106 107q6 8 13 8t15 -8z" />
    <glyph glyph-name="uni06FC.fina" unicode="&#x6fc;" horiz-adv-x="1213" 
d="M1241 2h-80q-152 0 -242 93q-70 70 -131 236q-149 -44 -257 -148q-124 -118 -124 -260q0 -191 155 -297q140 -96 338 -96q115 0 205 10q12 2 23 2q39 0 42 -28q0 -52 -171 -73q-100 -14 -211 -14q-310 0 -475 128q-146 114 -146 297q0 144 112 282q148 181 463 256
q-46 45 -130 95q-60 34 -61 62q0 53 120 106q107 48 169 48q89 0 159 -32q93 -41 93 -118q0 -54 -46 -93q-31 -27 -84 -52.5t-62 -33.5q81 -96 272 -96h69v-274zM938 -122q5 -5 5 -11t-5 -12l-112 -112q-7 -6 -14 -6t-14 6l-113 112q-5 5 -5 12t6 15l108 107q6 8 13 8t14 -8
zM944 988q5 -5 5 -11t-5 -12l-112 -112q-7 -6 -14 -6q-6 0 -13 6l-113 112q-5 5 -5 12t6 15l107 107q6 8 13 8t14 -8z" />
    <glyph glyph-name="uni06FF.init" unicode="&#x6ff;" horiz-adv-x="930" 
d="M930 240q0 -63 -45 -143q-59 -102 -161 -102q-111 0 -313 129q-57 -47 -162.5 -85.5t-179.5 -38.5h-97v276h163q-87 45 -87 129q0 50 57 111t103 83l-80 32l96 237q12 33 33 33q12 0 37 -14q214 -124 370 -255q266 -223 266 -392zM808 205q0 63 -210 192q0 -29 -22 -74
q-10 -26 -39 -62q154 -88 230 -90q41 0 41 34zM488 392q0 43 -62 86t-108 43q-43 0 -78 -19q-28 -30 -28 -44q0 -31 91 -84q83 -51 104 -51q30 0 55.5 19.5t25.5 49.5zM536 936h-98l-175 167l-173 -167h-98l224 293h93z" />
    <glyph glyph-name="uni06FF.medi" unicode="&#x6ff;" horiz-adv-x="699" 
d="M727 2h-228q145 -110 145 -224q0 -58 -41 -101q-55 -57 -173 -57q-120 0 -224.5 118t-119.5 264h-114v274h121q27 148 148 273q130 136 272 136q58 0 99 -51q34 -40 34 -93v-2q0 -72 -74 -165q-49 -65 -94 -98h249v-274zM377 460q-108 0 -191 -184h161q91 60 91 133v3
q0 48 -61 48zM438 -197q71 0 71 36q0 61 -173 163h-158q14 -73 75 -126q69 -73 185 -73zM684 751h-99l-175 167l-173 -167h-97l224 293h93z" />
    <glyph glyph-name="uni06FF.fina" unicode="&#x6ff;" horiz-adv-x="909" 
d="M598 460q-109 0 -192 -184h161q91 60 92 133v2q0 49 -61 49zM659 -197q70 0 70 36q0 61 -173 163h-158q15 -73 75 -126q69 -73 186 -73zM313 276q27 148 148 273q130 136 272 136q59 0 99 -51q34 -40 34 -93v-2q0 -72 -73 -165q-50 -65 -95 -98h239v-274h-217
q144 -110 144 -224q0 -58 -41 -101q-55 -57 -173 -57q-120 0 -224 118t-120 264q-10 1 -20 1q-44 0 -73 -15q-5 -2 -9 -2q-29 0 -34 110q-1 16 -1 31q0 98 37 125q36 25 87 25q9 0 20 -1zM911 744h-98l-175 168l-173 -168h-98l224 294h93z" />
    <glyph glyph-name="uniFB50" unicode="&#x671;" horiz-adv-x="700" arabic-form="isolated" 
d="M588 1121l-87 -1050q-6 -76 -42 -76t-48 97l-101 878l242 178q18 11 27 11t9 -31v-7zM616 1472q-20 21 -44 21q-6 0 -13 -1q-31 -8 -57 -30q-11 -6 -27 -26t-30 -41.5t-23 -38.5q-7 -13 -7 -18q0 -1 1 -2q9 -5 22 -5h8q19 2 39.5 6.5t37.5 11t25 8.5q31 15 53 29t40 40
q0 12 -25 46zM356 1340q12 23 28 50.5t37 58.5q23 31 42.5 57t41 47.5t46.5 35.5t58 16q37 -7 57 -33t27 -60q4 -18 4 -41q0 -19 -3 -42q-6 -49 -22 -72q-33 -61 -97 -107q-76 -53 -168 -61q-14 -2 -29 -2q-31 0 -65 8q-50 10 -92 38h-2q-7 0 -14 -8q-10 -10 -20.5 -25.5
t-21.5 -32.5t-19 -29q-6 -8 -11 -8q-6 0 -11 10q-10 18 -10 30q5 18 14.5 41.5t20.5 47.5t23 46.5t23 39.5q9 18 23 31q7 7 18 7q8 0 17 -4q5 -4 18.5 -11t30 -13.5t32 -10.5t24.5 -4z" />
    <glyph glyph-name="uniFB51" unicode="&#x671;" horiz-adv-x="658" arabic-form="final" 
d="M686 2h-97q-144 0 -198 122q-41 88 -41 262q-1 284 -22 645l163 119q27 19 42 22q13 0 13 -49v-716q0 -76 21.5 -103.5t84.5 -27.5h34v-274zM616 1500q-20 20 -43 20q-7 0 -14 -1q-31 -8 -57 -29q-11 -7 -27 -27t-30 -41.5t-23 -37.5q-7 -13 -7 -18q0 -2 1 -3q9 -5 23 -5
q3 0 7 1q19 1 39.5 5.5t37.5 11t25 8.5q31 15 53 29.5t40 39.5q0 12 -25 47zM356 1367q12 23 28 51t37 59q23 30 42.5 56.5t41 48t46.5 35t58 16.5q37 -8 57 -34t27 -60q4 -18 4 -41q0 -19 -3 -41q-6 -49 -22 -73q-33 -60 -97 -107q-76 -53 -168 -61q-12 -1 -25 -1
q-33 0 -69 8q-50 10 -92 37q-2 1 -3 1q-6 0 -13 -8q-10 -10 -20.5 -25.5t-21.5 -33t-19 -29.5q-6 -7 -11 -7q-6 0 -11 10q-10 17 -10 29q5 18 14.5 42t20.5 47.5t23 46.5t23 39q9 18 23 31q7 8 18 8q8 0 17 -4q5 -5 18.5 -12t30 -13t32 -10.5t24.5 -4.5z" />
    <glyph glyph-name="uniFB52" unicode="&#x67b;" horiz-adv-x="1573" arabic-form="isolated" 
d="M1573 533q0 -169 -47 -269q-59 -115 -195 -184q-155 -78 -527 -78q-186 0 -280 13q-163 22 -257 97q-107 87 -107 264q0 153 41 244q18 43 44 43q27 0 27 -33q0 -2 -7 -45q0 -15 -3 -37q0 -125 75 -184q110 -88 466 -89h35q165 0 316 17q287 32 287 110q0 51 -170 178
l121 241q6 17 12 19q11 -4 23 -7q58 -48 95 -114q51 -93 51 -186zM889 -384l1 -1l116 -111q4 -5 4 -11q0 -7 -5 -14l-113 -112q-4 -3 -11 -3t-12 3l-115 112q-6 5 -6 11q0 9 11 20l102 105q1 2 4 3l-113 111q-5 5 -5 11q0 8 10 19l102 105q7 8 14 8t15 -8l117 -110
q3 -5 3 -11q0 -7 -5 -14l-112 -113h-2z" />
    <glyph glyph-name="uniFB53" unicode="&#x67b;" horiz-adv-x="1781" arabic-form="final" 
d="M1809 2h-63q-119 0 -182 73q-40 47 -59 122q-109 -134 -246 -209q-235 -126 -609 -126q-490 0 -490 392q0 122 56 224q15 22 32 22q29 0 29 -45q0 -4 -10 -87q0 -179 246 -220q78 -14 215 -14q521 0 799 278q39 39 61 39q19 0 29 -24v-7q0 -17 -7 -32q-9 -20 -9 -47
q0 -63 131 -63h77v-276zM958 -389q5 -6 5 -13q0 -6 -5 -14l-100 -101l100 -96q5 -8 5 -16q0 -4 -5 -13l-100 -97q-9 -9 -16 -9q-6 0 -11 7l-105 110q-5 5 -5 10t5 10l103 100l-103 103q-4 5 -4 12q0 5 4 10l106 107q5 4 12 4q5 0 8 -4z" />
    <glyph glyph-name="uniFB54" unicode="&#x67b;" horiz-adv-x="345" arabic-form="initial" 
d="M345 392q0 -146 -63 -251q-83 -139 -235 -139h-75v274h65q177 0 177 53q0 45 -157 192l128 201q5 8 12 8q5 0 11 -4q64 -53 103 -151q34 -90 34 -183zM146 -127q5 5 11 5q5 0 11 -5l105 -103q6 -7 6 -13q0 -7 -6 -13l-103 -100l103 -100q5 -5 5 -12q0 -5 -5 -10
l-105 -107q-5 -6 -11 -6q-7 0 -16 8l-101 97q-4 6 -4 13q0 5 4 12l101 100l-101 100q-5 6 -5 12q0 7 5 13z" />
    <glyph glyph-name="uniFB55" unicode="&#x67b;" horiz-adv-x="513" arabic-form="medial" 
d="M541 2h-65q-153 0 -213 171q-49 -171 -194 -171h-97v274h66q149 0 186 190q12 58 46 58t41 -58q20 -190 165 -190h65v-274zM153 -145q4 4 8 4q5 0 11 -6l107 -107q7 -3 7 -8t-7 -12l-102 -102l102 -101q4 -4 4 -11t-4 -12l-105 -107q-6 -6 -11 -6q-7 0 -14 8l-101 100
q-5 5 -5 12q0 5 5 16l101 96l-101 100q-5 7 -5 13q0 7 5 13z" />
    <glyph glyph-name="uniFB56" unicode="&#x67e;" horiz-adv-x="1573" arabic-form="isolated" 
d="M1573 533q0 -169 -47 -269q-59 -115 -195 -184q-155 -78 -527 -78q-186 0 -280 13q-163 22 -257 97q-107 87 -107 264q0 153 41 244q18 43 44 43q27 0 27 -33q0 -2 -7 -45q0 -15 -3 -37q0 -125 75 -184q110 -88 466 -89h35q165 0 316 17q287 32 287 110q0 51 -170 178
l121 241q6 17 12 19q11 -4 23 -7q58 -48 95 -114q51 -93 51 -186zM779 -435q-5 6 -5 11q0 7 6 13l102 102q7 7 12 7q7 0 12 -7l104 -100q6 -5 6 -11q0 -8 -8 -19l-95 -95q-6 -7 -13 -7t-14 7zM670 -227q-6 6 -6 12t6 12l106 105q6 5 12 5q5 0 10 -5l102 -102l101 102
q5 5 11 5q4 0 12 -5l106 -104q6 -6 6 -11q0 -8 -11 -16l-97 -100q-6 -7 -12 -7t-13 7l-102 100l-98 -100q-6 -7 -13 -7q-6 0 -12 7z" />
    <glyph glyph-name="uniFB57" unicode="&#x67e;" horiz-adv-x="1781" arabic-form="final" 
d="M1809 2h-63q-119 0 -182 73q-40 47 -59 122q-109 -134 -246 -209q-235 -126 -609 -126q-490 0 -490 392q0 122 56 224q15 22 32 22q29 0 29 -45q0 -4 -10 -87q0 -179 246 -220q78 -14 215 -14q521 0 799 278q39 39 61 39q19 0 29 -24v-7q0 -17 -7 -32q-9 -20 -9 -47
q0 -63 131 -63h77v-276zM728 -570q-3 4 -3 10t3 10l105 106q4 4 10 4q8 0 12 -4l108 -103q5 -5 5 -11q0 -7 -7 -16l-99 -97q-5 -7 -12 -7t-15 7zM618 -364q-5 6 -5 12t5 12l107 105q3 4 10 4q6 0 12 -4l104 -102l98 102q6 4 12 4q4 0 12 -4l106 -103q7 -6 7 -12q0 -8 -9 -17
l-98 -99q-6 -6 -12 -6t-15 6l-99 99l-96 -99q-8 -6 -16 -6q-7 0 -14 6z" />
    <glyph glyph-name="uniFB58" unicode="&#x67e;" horiz-adv-x="498" arabic-form="initial" 
d="M490 392q0 -146 -63 -251q-82 -139 -235 -139h-220v274h210q178 0 178 53q0 45 -158 192l129 201q5 8 12 8q5 0 11 -4q63 -53 103 -151q33 -90 33 -183zM136 -468q-5 7 -5 12t5 11l104 104q5 3 10 3q7 0 14 -3l103 -102q6 -5 6 -11q0 -8 -9 -16l-95 -97q-7 -6 -14 -6
q-6 0 -13 6zM26 -261q-5 7 -5 11q0 6 5 12l105 106q7 6 12 6t12 -6l100 -102l101 102q6 5 11 5q6 0 12 -5l107 -104q6 -6 6 -13t-8 -14l-100 -99q-5 -6 -11 -6t-13 6l-100 99l-100 -99q-5 -7 -11 -7q-7 0 -15 7z" />
    <glyph glyph-name="uniFB59" unicode="&#x67e;" horiz-adv-x="633" arabic-form="medial" 
d="M661 2h-76q-153 0 -212 171q-49 -171 -195 -171h-206v274h175q149 0 187 190q11 58 45 58q35 0 41 -58q20 -190 165 -190h76v-274zM137 -468q-5 7 -5 12t5 11l104 104q5 3 10 3q7 0 13 -3l104 -102q6 -5 6 -11q0 -8 -9 -16l-95 -97q-7 -6 -14 -6q-6 0 -13 6zM27 -261
q-5 7 -5 11q0 6 5 12l105 106q7 6 12 6t12 -6l100 -102l101 102q6 5 11 5q6 0 12 -5l107 -104q6 -6 6 -13t-8 -14l-100 -99q-5 -6 -11 -6t-13 6l-100 99l-100 -99q-5 -7 -11 -7q-7 0 -15 7z" />
    <glyph glyph-name="uniFB5A" unicode="&#x680;" horiz-adv-x="1573" arabic-form="isolated" 
d="M1573 533q0 -169 -47 -269q-59 -115 -195 -184q-155 -78 -527 -78q-186 0 -280 13q-163 22 -257 97q-107 87 -107 264q0 153 41 244q18 43 44 43q27 0 27 -33q0 -2 -7 -45q0 -15 -3 -37q0 -125 75 -184q110 -88 466 -89h35q165 0 316 17q287 32 287 110q0 51 -170 178
l121 241q6 17 12 19q11 -4 23 -7q58 -48 95 -114q51 -93 51 -186zM1025 -333q1 0 3 -1l107 -104q5 -5 5 -11q0 -8 -11 -16l-96 -100q-6 -7 -12 -7q-7 0 -14 7l-102 100l-97 -100q-6 -7 -13 -7q-6 0 -13 7l-107 102q-6 6 -6 12t6 12l105 105q1 1 2 1q-2 1 -4 4l-108 102
q-6 6 -6 12t6 12l106 105q6 5 12 5q5 0 10 -5l102 -102l101 102q5 5 11 5q4 0 12 -5l106 -104q6 -6 6 -11q0 -8 -11 -16l-97 -100q-2 -2 -3 -4zM800 -333q1 0 2 -1l102 -102l101 102q1 1 2 1q-2 1 -4 4l-102 100l-98 -100q-2 -2 -3 -4z" />
    <glyph glyph-name="uniFB5B" unicode="&#x680;" horiz-adv-x="1781" arabic-form="final" 
d="M1809 2h-63q-119 0 -182 73q-40 47 -59 122q-109 -134 -246 -209q-235 -126 -609 -126q-490 0 -490 392q0 122 56 224q15 22 32 22q29 0 29 -45q0 -4 -10 -87q0 -179 246 -220q78 -14 215 -14q521 0 799 278q39 39 61 39q19 0 29 -24v-7q0 -17 -7 -32q-9 -20 -9 -47
q0 -63 131 -63h77v-276zM972 -471h1l106 -103q7 -6 7 -12q0 -8 -9 -17l-98 -98q-6 -7 -12 -7t-15 7l-99 98l-96 -98q-8 -7 -16 -7q-7 0 -14 7l-109 102q-5 5 -5 11t5 12l107 105q2 2 4 3l-2 2l-109 102q-5 6 -5 12t5 12l107 105q3 4 10 4q6 0 12 -4l104 -102l98 102
q6 4 12 4q4 0 12 -4l106 -103q7 -6 7 -12q0 -8 -9 -17l-98 -99q-4 -3 -7 -5zM747 -471l104 -102l98 102l6 3q-1 1 -3 2l-99 99l-96 -99q-5 -4 -10 -5z" />
    <glyph glyph-name="uniFB5C" unicode="&#x680;" horiz-adv-x="498" arabic-form="initial" 
d="M490 392q0 -146 -63 -251q-82 -139 -235 -139h-220v274h210q178 0 178 53q0 45 -158 192l129 201q5 8 12 8q5 0 11 -4q63 -53 103 -151q33 -90 33 -183zM377 -367l107 -104q6 -6 6 -13t-8 -14l-100 -99q-5 -6 -11 -6t-13 6l-100 99l-100 -99q-5 -7 -11 -7q-7 0 -15 7
l-108 100q-5 8 -5 12q0 6 5 12l106 106q2 3 5 4l-1 1l-108 101q-5 7 -5 11q0 6 5 12l105 106q7 6 12 6t12 -6l100 -102l101 102q6 5 11 5q6 0 12 -5l107 -104q6 -6 6 -13t-8 -14l-100 -99zM153 -367l100 -102l102 102q3 3 6 4l-1 1l-100 99l-100 -99q-3 -3 -7 -5z" />
    <glyph glyph-name="uniFB5D" unicode="&#x680;" horiz-adv-x="623" arabic-form="medial" 
d="M651 2h-76q-153 0 -212 171q-49 -171 -195 -171h-196v274h165q149 0 187 190q11 58 45 58q35 0 41 -58q20 -190 165 -190h76v-274zM368 -367q2 -1 3 -2l107 -104q5 -6 5 -12q0 -7 -7 -15l-100 -99q-5 -6 -11 -6t-13 6l-100 99l-101 -99q-5 -7 -11 -7t-14 7l-108 101
q-5 7 -5 12t5 11l105 106q3 3 6 5q-2 0 -4 2l-108 101q-5 7 -5 11q0 6 5 12l105 106q7 6 12 6t12 -6l100 -102l101 102q6 5 11 5q6 0 12 -5l107 -104q6 -6 6 -13t-8 -14l-100 -99q-3 -3 -7 -5zM145 -367l2 -2l100 -102l101 102q4 3 7 5q-2 0 -4 2l-100 99l-100 -99
q-3 -3 -6 -5z" />
    <glyph glyph-name="uniFB5E" unicode="&#x67a;" horiz-adv-x="1573" arabic-form="isolated" 
d="M1573 533q0 -169 -47 -269q-59 -115 -195 -184q-155 -78 -527 -78q-186 0 -280 13q-163 22 -257 97q-107 87 -107 264q0 153 41 244q18 43 44 43q27 0 27 -33q0 -2 -7 -45q0 -15 -3 -37q0 -125 75 -184q110 -88 466 -89h35q165 0 316 17q287 32 287 110q0 51 -170 178
l121 241q6 17 12 19q11 -4 23 -7q58 -48 95 -114q51 -93 51 -186zM849 639q-5 -5 -10 -5q-6 0 -12 6l-105 102q-6 7 -6 14t6 14l101 100l-101 98q-5 9 -5 12q0 5 5 14l103 103q7 7 13 7q7 0 14 -9l99 -97q8 -4 8 -11t-8 -14l-99 -100l99 -99q7 -5 7 -12t-7 -16z" />
    <glyph glyph-name="uniFB5F" unicode="&#x67a;" horiz-adv-x="1781" arabic-form="final" 
d="M1809 2h-63q-119 0 -182 73q-40 47 -59 122q-109 -134 -246 -209q-235 -126 -609 -126q-490 0 -490 392q0 122 56 224q15 22 32 22q29 0 29 -45q0 -4 -10 -87q0 -179 246 -220q78 -14 215 -14q521 0 799 278q39 39 61 39q19 0 29 -24v-7q0 -17 -7 -32q-9 -20 -9 -47
q0 -63 131 -63h77v-276zM958 841q5 -6 5 -13q0 -6 -5 -14l-100 -101l100 -96q5 -8 5 -16q0 -4 -5 -13l-100 -97q-9 -9 -16 -9q-6 0 -11 7l-105 110q-5 5 -5 10t5 10l103 100l-103 103q-4 5 -4 12q0 5 4 10l106 107q5 4 12 4q5 0 8 -4z" />
    <glyph glyph-name="uniFB60" unicode="&#x67a;" horiz-adv-x="345" arabic-form="initial" 
d="M345 392q0 -146 -63 -251q-83 -139 -235 -139h-75v274h65q177 0 177 53q0 45 -157 192l128 201q5 8 12 8q5 0 11 -4q64 -53 103 -151q34 -90 34 -183zM182 1304q5 5 11 5q5 0 11 -5l105 -104q6 -7 6 -13q0 -7 -6 -13l-103 -100l103 -100q6 -5 6 -12q0 -5 -6 -10
l-105 -107q-5 -5 -11 -5q-7 0 -16 7l-100 97q-5 6 -5 13q0 5 5 12l100 101l-100 100q-5 6 -5 12t5 12z" />
    <glyph glyph-name="uniFB61" unicode="&#x67a;" horiz-adv-x="503" arabic-form="medial" 
d="M531 2h-65q-153 0 -213 171q-49 -171 -194 -171h-87v274h56q149 0 186 190q12 58 46 58t41 -58q20 -190 165 -190h65v-274zM253 1112q4 4 9 4t10 -5l106 -108q7 -3 7 -8t-7 -12l-102 -102l102 -101q4 -4 4 -11q0 -6 -4 -12l-104 -107q-5 -5 -11 -5q-7 0 -15 7l-100 101
q-6 4 -6 11q0 5 6 16l100 96l-100 101q-5 6 -5 12q0 7 5 13z" />
    <glyph glyph-name="uniFB62" unicode="&#x67f;" horiz-adv-x="1573" arabic-form="isolated" 
d="M1573 533q0 -169 -47 -269q-59 -115 -195 -184q-155 -78 -527 -78q-186 0 -280 13q-163 22 -257 97q-107 87 -107 264q0 153 41 244q18 43 44 43q27 0 27 -33q0 -2 -7 -45q0 -15 -3 -37q0 -125 75 -184q110 -88 466 -89h35q165 0 316 17q287 32 287 110q0 51 -170 178
l121 241q6 17 12 19q11 -4 23 -7q58 -48 95 -114q51 -93 51 -186zM709 966l-1 1l-105 103q-7 6 -7 13q0 8 10 17l95 99q7 5 14 5t15 -5l99 -99l98 99q5 5 12 5q6 0 17 -5l107 -105q4 -4 4 -9q0 -6 -6 -13l-103 -104q2 -2 5 -3l106 -105q4 -4 4 -9q0 -6 -6 -13l-103 -106
q-7 -4 -12 -4q-7 0 -14 4l-101 104l-98 -104q-5 -5 -11 -5t-13 5l-106 104q-7 6 -7 12q0 9 11 17l95 100q0 1 1 1zM933 966l-1 1l-101 103l-98 -102q2 -2 4 -3l98 -100l98 100v1z" />
    <glyph glyph-name="uniFB63" unicode="&#x67f;" horiz-adv-x="1781" arabic-form="final" 
d="M1809 2h-63q-119 0 -182 73q-40 47 -59 122q-109 -134 -246 -209q-235 -126 -609 -126q-490 0 -490 392q0 122 56 224q15 22 32 22q29 0 29 -45q0 -4 -10 -87q0 -179 246 -220q78 -14 215 -14q521 0 799 278q39 39 61 39q19 0 29 -24v-7q0 -17 -7 -32q-9 -20 -9 -47
q0 -63 131 -63h77v-276zM715 860l-106 100q-6 7 -6 14q0 9 10 18l95 97q7 7 14 7t15 -7l98 -97l98 97q5 7 12 7t18 -7l106 -103q4 -4 4 -10t-6 -14l-103 -102q-2 -2 -5 -4q2 -1 4 -1l106 -103q4 -4 4 -10t-6 -14l-103 -102q-7 -6 -13 -6q-7 0 -13 6l-101 100l-98 -100
q-6 -6 -12 -6t-12 6l-106 100q-6 7 -6 14q0 9 10 18l95 97q3 3 7 5zM938 860l-101 100l-98 -100q-2 -2 -5 -4q2 -1 3 -1l98 -97l98 97q2 3 5 5z" />
    <glyph glyph-name="uniFB64" unicode="&#x67f;" horiz-adv-x="499" arabic-form="initial" 
d="M499 392q0 -146 -62 -251q-83 -139 -235 -139h-230v274h220q177 0 177 53q0 45 -157 192l128 201q5 8 12 8q5 0 11 -4q64 -53 103 -151q33 -90 33 -183zM131 1039l-106 105q-7 5 -7 12t7 16l100 100q6 6 12 6q7 0 15 -6l97 -100l100 100q7 6 14 6t13 -6l109 -104
q5 -4 5 -9q0 -6 -5 -13l-108 -107h-1q2 -1 3 -2l109 -104q5 -4 5 -9q0 -6 -5 -13l-108 -107q-3 -3 -10 -3q-6 0 -10 3l-102 103l-101 -103q-4 -5 -10 -5t-13 5l-106 105q-7 5 -7 12t7 16l100 100q2 2 3 2zM356 1040l-101 102l-101 -103h-1l2 -2l97 -100l100 100q3 2 4 3z
" />
    <glyph glyph-name="uniFB65" unicode="&#x67f;" horiz-adv-x="632" arabic-form="medial" 
d="M660 2h-76q-153 0 -212 171q-49 -171 -195 -171h-205v274h174q149 0 187 190q12 58 45 58q35 0 41 -58q20 -190 165 -190h76v-274zM131 923l-2 2l-107 103q-5 6 -5 12q0 7 5 15l100 98q7 8 12 8q7 0 16 -8l96 -98l100 98q7 7 14 7t14 -7l108 -102q3 -4 3 -10q0 -4 -3 -12
l-107 -104q0 -1 -1 -1l5 -5l109 -102q2 -4 2 -10q0 -4 -2 -12l-108 -104q-3 -6 -10 -6q-6 0 -10 6l-102 100l-101 -100q-4 -6 -10 -6t-13 6l-106 103q-5 5 -5 12t5 15l100 98q2 2 3 4zM356 923q0 1 -1 2l-102 100l-102 -100q0 -1 -1 -2q2 -2 5 -4l97 -98l100 98z" />
    <glyph glyph-name="uniFB66" unicode="&#x679;" horiz-adv-x="1573" arabic-form="isolated" 
d="M1573 533q0 -169 -47 -269q-59 -115 -195 -184q-155 -78 -527 -78q-186 0 -280 13q-163 22 -257 97q-107 87 -107 264q0 153 41 244q18 43 44 43q27 0 27 -33q0 -2 -7 -45q0 -15 -3 -37q0 -125 75 -184q110 -88 466 -89h35q165 0 316 17q287 32 287 110q0 51 -170 178
l121 241q6 17 12 19q11 -4 23 -7q58 -48 95 -114q51 -93 51 -186zM1087 952q0 -46 -50 -98q-73 -81 -175 -104q-45 -12 -132 -12q-53 0 -186 104q-12 10 -12 17q0 11 17 11h5l139 -14q13 30 13 75q0 103 -42 219l65 74q9 10 13 10q5 0 9 -10l48 -103q4 -10 4 -18t-9 -8
q-12 0 -30 6q0 -78 -9 -133q-6 -24 -15 -72q156 131 261 131h3q33 0 58 -20q25 -21 25 -55zM1005 899v1q0 21 -25 37q-25 10 -47 10q-74 0 -190 -92q38 -4 80 -4q182 0 182 48z" />
    <glyph glyph-name="uniFB67" unicode="&#x679;" horiz-adv-x="1781" arabic-form="final" 
d="M1809 2h-63q-119 0 -182 73q-40 47 -59 122q-109 -134 -246 -209q-235 -126 -609 -126q-490 0 -490 392q0 122 56 224q15 22 32 22q29 0 29 -45q0 -4 -10 -87q0 -179 246 -220q78 -14 215 -14q521 0 799 278q39 39 61 39q19 0 29 -24v-7q0 -17 -7 -32q-9 -20 -9 -47
q0 -63 131 -63h77v-276zM1087 815q0 -45 -50 -98q-73 -80 -175 -104q-45 -12 -132 -12q-53 0 -186 104q-12 10 -12 17q0 11 17 11h5l139 -13q13 29 13 74q0 103 -42 219l65 75q9 9 13 9q5 0 9 -10l48 -102q4 -10 4 -18q0 -9 -9 -9q-12 0 -30 7q0 -79 -9 -133q-6 -25 -15 -73
q156 131 261 131h3q33 0 58 -20q25 -21 25 -55zM1005 763v1q0 20 -25 36q-25 11 -47 11q-74 0 -190 -93q38 -4 80 -4q182 0 182 49z" />
    <glyph glyph-name="uniFB68" unicode="&#x679;" horiz-adv-x="523" arabic-form="initial" 
d="M517 392q0 -146 -62 -251q-83 -139 -236 -139h-247v274h237q178 0 178 53q0 45 -157 192l128 201q5 8 12 8q5 0 11 -4q64 -53 103 -151q33 -90 33 -183zM518 1088q0 -47 -52 -101q-77 -84 -181 -109q-48 -12 -137 -12q-55 0 -192 108q-13 10 -13 17q0 12 18 12h6l143 -15
q12 31 12 78q0 107 -42 226l68 77q8 10 13 10q4 0 9 -11l49 -105q6 -10 6 -19q0 -8 -11 -8t-30 7q0 -81 -11 -138q-4 -25 -14 -76q161 135 270 136h3q34 0 60 -21q26 -22 26 -56zM433 1033v2q0 21 -26 36q-26 12 -49 12q-76 0 -196 -96q39 -4 83 -4q187 0 188 50z" />
    <glyph glyph-name="uniFB69" unicode="&#x679;" horiz-adv-x="622" arabic-form="medial" 
d="M650 2h-75q-153 0 -213 171q-49 -171 -195 -171h-195v274h164q150 0 187 190q12 58 46 58t41 -58q20 -190 165 -190h75v-274zM527 887q0 -46 -52 -101q-77 -84 -181 -108q-48 -12 -137 -12q-55 0 -192 107q-13 10 -13 18q0 12 21 12h3l143 -15q12 31 12 77q0 108 -42 226
l68 78q8 10 13 10q4 0 9 -11l49 -106q6 -10 6 -18t-11 -8t-30 6q0 -81 -11 -137q-4 -26 -14 -76q161 135 270 136h3q34 0 60 -21q26 -22 26 -57zM442 833v2q0 21 -26 36q-26 12 -49 12q-76 0 -196 -97q39 -3 83 -3q187 0 188 50z" />
    <glyph glyph-name="uniFB6A" unicode="&#x6a4;" horiz-adv-x="1551" arabic-form="isolated" 
d="M1549 497q0 -17 2 -31v-35q0 -265 -258 -364q-168 -65 -490 -65q-411 0 -552 114q-91 74 -91 242q0 149 54 260q21 42 48 42q22 0 22 -32q0 -12 -2 -18l-10 -89q0 -171 211 -222q92 -23 344 -23q288 0 381 9q231 24 231 101q-98 -14 -192 -14q-219 0 -221 145v4
q0 112 55 235q69 157 183 159h2q115 0 191 -98q92 -113 92 -320zM1393 594q-71 108 -172 108q-32 0 -55.5 -22.5t-23.5 -53.5q0 -47 120 -47q73 0 131 15zM1384 1358q4 -5 4 -10q0 -6 -5 -12l-103 -102q-5 -5 -11 -5t-13 5l-106 102q-3 3 -3 8q0 8 7 20l97 96q7 6 13 6
q7 0 14 -6zM1495 1152q4 -4 4 -9q0 -6 -6 -13l-103 -105q-7 -6 -14 -6q-5 0 -12 6l-102 101l-100 -101q-4 -5 -9 -5q-6 0 -13 5l-104 101q-8 8 -8 15q0 8 10 16l96 98q6 7 13 7q5 0 13 -7l101 -98l98 98q5 7 12 7t15 -7z" />
    <glyph glyph-name="uniFB6B" unicode="&#x6a4;" horiz-adv-x="1775" arabic-form="final" 
d="M1803 2h-57q-80 0 -157 29q-63 24 -103 57q-326 -234 -771 -234q-299 0 -425 90q-130 93 -130 310q0 122 56 224q15 22 32 22q29 0 29 -45q0 -4 -10 -87q0 -83 49 -138q95 -102 429 -102q317 0 563 99q-32 21 -59 68q-36 48 -36 107q0 80 102.5 193.5t204.5 113.5
q93 0 152.5 -66t61.5 -161v-9q0 -55 -23 -115q-24 -56 -51 -82h143v-274zM1625 407v2q0 33 -62 63q-56 26 -94 26q-54 0 -114 -28q-42 -25 -45 -46q0 -19 44 -54q60 -51 122 -73q148 49 149 110zM1609 1191q4 -4 4 -9q0 -6 -6 -13l-104 -104q-5 -5 -11 -5t-13 5l-105 104
q-3 2 -3 7q0 7 7 20l97 97q7 6 13 6q7 0 14 -6zM1719 984q4 -4 4 -9q0 -6 -6 -13l-104 -106q-6 -4 -13 -4q-5 0 -12 4l-102 102l-100 -102q-4 -5 -9 -5q-6 0 -13 5l-105 102q-7 7 -7 14q0 8 10 16l95 99q7 7 14 7q5 0 13 -7l101 -99l98 99q5 7 12 7q6 0 15 -7z" />
    <glyph glyph-name="uniFB6C" unicode="&#x6a4;" horiz-adv-x="569" arabic-form="initial" 
d="M567 478v-8q0 -221 -117 -343q-119 -125 -344 -125h-134v274h217q73 0 153 19q112 28 112 79q-77 -8 -187 -14h-6q-216 0 -216 149q0 115 53 235q69 158 183 158q115 0 195 -98q89 -112 91 -326zM409 583q-69 109 -173 109q-35 0 -56 -22t-21 -52q0 -48 120 -48
q61 0 130 13zM397 1344q4 -5 4 -11t-5 -12l-105 -103q-4 -4 -10 -4q-5 0 -12 4l-108 103q-2 2 -2 6q0 8 8 21l97 99q7 5 13 5t12 -5zM508 1136q3 -4 3 -9q0 -6 -5 -13l-105 -105q-5 -5 -12 -5t-12 5l-103 103l-99 -103q-5 -5 -10 -5q-6 0 -12 5l-106 103q-7 7 -7 14t9 16
l98 100q6 4 12 4t14 -4l99 -100l100 100q5 4 12 4q5 0 15 -4z" />
    <glyph glyph-name="uniFB6D" unicode="&#x6a4;" horiz-adv-x="633" arabic-form="medial" 
d="M661 2h-75q-179 0 -263 90q-112 -90 -256 -90h-95v274h156q-69 49 -69 116q0 86 101 202q109 120 220 120q60 0 123 -54q74 -65 76 -182v-7q0 -127 -71 -195h153v-274zM472 394q0 23 -47.5 57.5t-108.5 34.5q-66 0 -108 -18q-39 -23 -39 -45q0 -33 63 -72q43 -28 89 -46
q151 29 151 89zM472 1157q4 -4 4 -9q0 -6 -6 -13l-104 -104q-5 -4 -10 -4q-6 0 -12 4l-108 104q-2 2 -2 6q0 8 8 21l96 98q7 6 14 6q6 0 12 -6zM582 950q3 -5 3 -11t-4 -12l-105 -104q-6 -6 -12 -6q-7 0 -12 6l-104 104l-98 -104q-5 -5 -10 -5q-6 0 -12 5l-107 104
q-6 5 -6 11q0 8 9 17l97 100q7 5 12 5q7 0 15 -5l98 -100l101 100q5 5 11 5t16 -5z" />
    <glyph glyph-name="uniFB6E" unicode="&#x6a6;" horiz-adv-x="1551" arabic-form="isolated" 
d="M1549 497q0 -17 2 -31v-35q0 -265 -258 -364q-168 -65 -490 -65q-411 0 -552 114q-91 74 -91 242q0 149 54 260q21 42 48 42q22 0 22 -32q0 -12 -2 -18l-10 -89q0 -171 211 -222q92 -23 344 -23q288 0 381 9q231 24 231 101q-98 -14 -192 -14q-219 0 -221 145v4
q0 112 55 235q69 157 183 159h2q115 0 191 -98q92 -113 92 -320zM1393 594q-71 108 -172 108q-32 0 -55.5 -22.5t-23.5 -53.5q0 -47 120 -47q73 0 131 15zM1139 1260l-2 2l-105 101q-7 7 -7 14q0 8 10 17l95 98q7 7 13 7q5 0 14 -7l100 -98l98 98q6 7 12 7q7 0 16 -7
l108 -104q4 -4 4 -9q0 -6 -6 -12l-103 -105q-2 -2 -4 -3l4 -4l109 -103q4 -4 4 -9q0 -6 -6 -13l-103 -105q-7 -6 -14 -6q-5 0 -12 6l-102 101l-100 -101q-4 -5 -9 -5q-6 0 -13 5l-104 101q-8 8 -8 15q0 8 10 16l96 98zM1363 1260q0 1 -2 2l-102 101l-101 -101q-1 -2 -2 -3
l4 -4l101 -98l98 98q2 3 4 5z" />
    <glyph glyph-name="uniFB6F" unicode="&#x6a6;" horiz-adv-x="1776" arabic-form="final" 
d="M1804 2h-57q-80 0 -157 29q-63 24 -103 57q-326 -234 -771 -234q-299 0 -425 90q-130 93 -130 310q0 122 56 224q15 22 32 22q29 0 29 -45q0 -4 -10 -87q0 -83 49 -138q95 -102 429 -102q317 0 563 99q-32 21 -59 68q-36 48 -36 107q0 80 102.5 193.5t204.5 113.5
q93 0 152.5 -66t61.5 -161v-9q0 -55 -23 -115q-24 -56 -51 -82h143v-274zM1626 407v2q0 33 -62 63q-56 26 -94 26q-54 0 -114 -28q-42 -25 -45 -46q0 -19 44 -54q60 -51 122 -73q148 49 149 110zM1364 1091l-4 2l-106 102q-6 7 -6 14q0 8 10 16l95 99q7 7 13 7t14 -7
l100 -99l99 99q5 7 11 7q7 0 16 -7l108 -103q4 -4 4 -9q0 -6 -6 -13l-103 -106l-4 -2q3 -1 6 -4l109 -103q4 -4 4 -9q0 -6 -6 -13l-104 -106q-6 -4 -13 -4q-5 0 -12 4l-102 102l-100 -102q-4 -5 -9 -5q-6 0 -13 5l-105 102q-7 7 -7 14q0 8 10 16l95 99q3 3 6 4zM1588 1091
q-2 0 -4 2l-102 102l-100 -102l-2 -2q3 -1 5 -4l101 -99l98 99q2 3 4 4z" />
    <glyph glyph-name="uniFB70" unicode="&#x6a6;" horiz-adv-x="569" arabic-form="initial" 
d="M567 478v-8q0 -221 -117 -343q-119 -125 -344 -125h-134v274h217q73 0 153 19q112 28 112 79q-77 -8 -187 -14h-6q-216 0 -216 149q0 115 53 235q69 158 183 158q115 0 195 -98q89 -112 91 -326zM409 583q-69 109 -173 109q-35 0 -56 -22t-21 -52q0 -48 120 -48
q61 0 130 13zM149 1243q-1 1 -2 1l-107 103q-6 6 -6 13q0 8 9 17l98 100q6 4 11 4q7 0 15 -4l98 -100l101 100q5 4 11 4t16 -4l108 -106q4 -4 4 -9q0 -6 -6 -13l-104 -105h-1q3 -1 5 -2l109 -106q3 -4 3 -9q0 -6 -5 -13l-105 -105q-5 -5 -12 -5t-12 5l-103 103l-99 -103
q-5 -5 -10 -5q-6 0 -12 5l-106 103q-7 7 -7 14t9 16l98 100q1 1 2 1zM373 1243q-1 1 -2 1l-104 103l-98 -103q2 0 4 -2l99 -100l100 100q1 0 1 1z" />
    <glyph glyph-name="uniFB71" unicode="&#x6a6;" horiz-adv-x="633" arabic-form="medial" 
d="M661 2h-75q-179 0 -263 90q-112 -90 -256 -90h-95v274h156q-69 49 -69 116q0 86 101 202q109 120 220 120q60 0 123 -54q74 -65 76 -182v-7q0 -127 -71 -195h153v-274zM472 394q0 23 -47.5 57.5t-108.5 34.5q-66 0 -108 -18q-39 -23 -39 -45q0 -33 63 -72q43 -28 89 -46
q151 29 151 89zM226 1059q-1 1 -2 1l-106 104q-7 6 -7 13t9 16l97 100q7 5 12 5q7 0 15 -5l99 -100l100 100q5 5 12 5q5 0 15 -5l109 -105q3 -5 3 -10q0 -6 -5 -13l-105 -105l-4 -2q3 -1 6 -3l108 -105q3 -5 3 -11t-4 -12l-105 -104q-6 -6 -12 -6q-7 0 -12 6l-104 104
l-98 -104q-5 -5 -10 -5q-6 0 -12 5l-107 104q-6 5 -6 11q0 8 9 17l97 100q3 3 5 4zM450 1059q-1 1 -2 1l-103 104l-99 -104q-2 -1 -3 -2q2 -1 5 -3l98 -100l101 100q1 2 3 4z" />
    <glyph glyph-name="uniFB72" unicode="&#x684;" horiz-adv-x="1336" arabic-form="isolated" 
d="M1316 561q-93 -154 -117 -154h-1q-33 1 -64 1q-136 0 -229 -18q-200 -39 -323 -149q-144 -127 -144 -316q0 -163 127.5 -249.5t366.5 -87.5h23q113 0 231 18q24 4 47 4q49 0 49 -34q0 -39 -141 -78q-156 -43 -337 -43q-246 0 -418 89q-219 112 -219 334q0 226 190 378
q158 128 428 197q-244 32 -347 32q-65 0 -102 -34q-18 -18 -55 -59q-20 -18 -41 -20q-26 0 -26 35v20q21 71 77 156q86 133 195 136q39 0 182 -28q150 -31 211 -36q309 -24 408 -24q49 0 49 -19q0 -15 -20 -51zM889 -235q-5 -4 -10 -4q-6 0 -12 6l-108 105q-3 5 -3 10t3 12
l106 100l-106 102q-4 5 -4 11t4 12l106 108q4 5 10 5q8 0 18 -9l98 -96q7 -6 7 -13t-7 -15l-98 -100l98 -98q8 -7 8 -14q0 -6 -8 -12z" />
    <glyph glyph-name="uniFB73" unicode="&#x684;" horiz-adv-x="1340" arabic-form="final" 
d="M1368 2h-131q-189 0 -266 102q-66 86 -66 286q-197 -34 -323 -148q-144 -128 -144 -317q0 -163 127.5 -249.5t366.5 -87.5h21q106 0 233 18q26 4 48 4q48 0 48 -34q0 -39 -141 -78q-156 -43 -337 -43q-246 0 -418 89q-219 112 -219 334q0 226 190 378q158 128 428 197
q-244 32 -347 32q-65 0 -102 -34q-18 -18 -55 -59q-20 -18 -41 -20q-26 0 -26 35v20q21 71 77 156q86 133 195 136q39 0 182 -28q150 -31 211 -36q309 -24 408 -24q49 0 49 -19q0 -18 -18.5 -48.5t-50.5 -87.5q-45 -69 -69 -69q-159 0 -205 -3q0 -128 177 -128h198v-274z
M751 -256q-7 -5 -12 -5t-11 5l-105 106q-7 2 -7 10q0 6 7 12l104 102l-104 99q-5 7 -5 12t5 13l104 106q5 6 11 6q7 0 16 -8l98 -98q8 -6 8 -13q0 -6 -8 -14l-98 -99l98 -96q7 -8 7 -15q0 -8 -7 -15z" />
    <glyph glyph-name="uniFB74" unicode="&#x684;" horiz-adv-x="1167" arabic-form="initial" 
d="M1157 466l-74 -142q-22 -29 -38 -29h-91q-66 0 -207 -76q-229 -126 -269 -142q-172 -75 -342 -75h-164v274h156q169 0 281 26q51 11 241 78q-44 14 -222 83q-129 51 -164 51q-52 0 -87 -28q-12 -14 -46 -47q-15 -22 -39 -22q-32 0 -32 36q0 17 1 25q25 69 87 144
q86 109 182 109q54 0 190 -50q212 -79 276 -99q190 -56 331 -65q38 -3 40 -20q0 -13 -10 -31zM615 -524q-5 -6 -11 -6t-13 8l-103 104q-7 4 -7 10t7 14l100 102l-100 98q-6 6 -6 12q0 7 6 13l102 105q6 6 12 6q8 0 15 -9l99 -97q8 -5 8 -14q0 -6 -8 -14l-99 -99l99 -97
q7 -7 7 -14t-7 -14z" />
    <glyph glyph-name="uniFB75" unicode="&#x684;" horiz-adv-x="1208" arabic-form="medial" 
d="M1236 2h-165q-195 0 -256 106q-34 60 -38 228q-167 -147 -250 -202q-208 -132 -397 -132h-158v274h122q154 0 321 57q103 33 258 112q-358 100 -437 100q-37 0 -71 -26q-8 -9 -43 -46q-22 -25 -45 -25q-28 0 -28 36q0 12 6 30q20 65 81 144q88 117 182 117q64 0 178 -33
q171 -51 224 -63q207 -45 402 -63q41 -4 41 -22q0 -15 -12 -35l-97 -167q-74 8 -114 10h-6q-70 0 -70 -44q0 -82 202 -82h170v-274zM615 -469q-5 -6 -11 -6t-13 8l-103 103q-7 5 -7 11t7 13l100 102l-100 99q-6 6 -6 12t6 13l102 105q6 6 12 6q8 0 15 -10l99 -96q8 -5 8 -14
q0 -6 -8 -15l-99 -98l99 -97q7 -7 7 -14t-7 -15z" />
    <glyph glyph-name="uniFB76" unicode="&#x683;" horiz-adv-x="1336" arabic-form="isolated" 
d="M1316 561q-93 -154 -117 -154h-1q-33 1 -64 1q-136 0 -229 -18q-200 -39 -323 -149q-144 -127 -144 -316q0 -163 127.5 -249.5t366.5 -87.5h23q113 0 231 18q24 4 47 4q49 0 49 -34q0 -39 -141 -78q-156 -43 -337 -43q-246 0 -418 89q-219 112 -219 334q0 226 190 378
q158 128 428 197q-244 32 -347 32q-65 0 -102 -34q-18 -18 -55 -59q-20 -18 -41 -20q-26 0 -26 35v20q21 71 77 156q86 133 195 136q39 0 182 -28q150 -31 211 -36q309 -24 408 -24q49 0 49 -19q0 -15 -20 -51zM645 -15q-4 5 -4 10q0 6 6 12l106 107q4 4 10 4q4 0 12 -4
l100 -105l101 105q6 4 12 4t12 -4l107 -105q5 -5 5 -11q0 -8 -8 -18l-97 -97q-6 -7 -13 -7q-6 0 -14 7l-101 97l-98 -97q-6 -9 -14 -9q-6 0 -11 9z" />
    <glyph glyph-name="uniFB77" unicode="&#x683;" horiz-adv-x="1340" arabic-form="final" 
d="M1368 2h-131q-189 0 -266 102q-66 86 -66 286q-197 -34 -323 -148q-144 -128 -144 -317q0 -163 127.5 -249.5t366.5 -87.5h21q106 0 233 18q26 4 48 4q48 0 48 -34q0 -39 -141 -78q-156 -43 -337 -43q-246 0 -418 89q-219 112 -219 334q0 226 190 378q158 128 428 197
q-244 32 -347 32q-65 0 -102 -34q-18 -18 -55 -59q-20 -18 -41 -20q-26 0 -26 35v20q21 71 77 156q86 133 195 136q39 0 182 -28q150 -31 211 -36q309 -24 408 -24q49 0 49 -19q0 -18 -18.5 -48.5t-50.5 -87.5q-45 -69 -69 -69q-159 0 -205 -3q0 -128 177 -128h198v-274z
M509 -38q-6 7 -6 12t6 10l104 105q4 7 10 7q8 0 12 -7l104 -104l99 104q6 5 11 5t14 -5l105 -104q6 -5 6 -11q0 -7 -8 -16l-98 -98q-6 -7 -13 -7t-15 7l-98 98l-97 -98q-7 -6 -14 -6t-14 6z" />
    <glyph glyph-name="uniFB78" unicode="&#x683;" horiz-adv-x="1167" arabic-form="initial" 
d="M1157 466l-74 -142q-22 -29 -38 -29h-91q-66 0 -207 -76q-229 -126 -269 -142q-172 -75 -342 -75h-164v274h156q169 0 281 26q51 11 241 78q-44 14 -222 83q-129 51 -164 51q-52 0 -87 -28q-12 -14 -46 -47q-15 -22 -39 -22q-32 0 -32 36q0 17 1 25q25 69 87 144
q86 109 182 109q54 0 190 -50q212 -79 276 -99q190 -56 331 -65q38 -3 40 -20q0 -13 -10 -31zM372 -197q-6 5 -6 10q0 6 8 14l104 104q4 7 10 7t13 -7l101 -100l99 100q6 6 12 6q7 0 13 -6l106 -102q6 -7 6 -13q0 -8 -10 -15l-96 -100q-6 -6 -14 -6q-6 0 -15 6l-99 100
l-96 -100q-7 -6 -14 -6t-15 6z" />
    <glyph glyph-name="uniFB79" unicode="&#x683;" horiz-adv-x="1208" arabic-form="medial" 
d="M1236 2h-165q-195 0 -256 106q-34 60 -38 228q-167 -147 -250 -202q-208 -132 -397 -132h-158v274h122q154 0 321 57q103 33 258 112q-358 100 -437 100q-37 0 -71 -26q-8 -9 -43 -46q-22 -25 -45 -25q-28 0 -28 36q0 12 6 30q20 65 81 144q88 117 182 117q64 0 178 -33
q171 -51 224 -63q207 -45 402 -63q41 -4 41 -22q0 -15 -12 -35l-97 -167q-74 8 -114 10h-6q-70 0 -70 -44q0 -82 202 -82h170v-274zM372 -197q-6 5 -6 10q0 6 8 14l104 104q4 7 10 7t13 -7l101 -100l99 100q6 6 12 6q7 0 13 -6l106 -102q6 -7 6 -13q0 -8 -10 -15l-96 -100
q-6 -6 -14 -6q-6 0 -15 6l-99 100l-96 -100q-7 -6 -14 -6t-15 6z" />
    </font>
</defs>
</svg>
