<?xml version="1.0" standalone="no"?>
<!DOCTYPE svg PUBLIC "-//W3C//DTD SVG 1.1//EN" "http://www.w3.org/Graphics/SVG/1.1/DTD/svg11.dtd" >
<svg xmlns="http://www.w3.org/2000/svg" xmlns:xlink="http://www.w3.org/1999/xlink" version="1.1">
<metadata>
Created by FontForge 20170731 at Sat Oct 15 04:38:46 2016
 By Aleksey,,,
(c)  2013 Bahij Virtual Academy. All rights reserved.
</metadata>
<defs>
<font id="BahijHassan-Bold" horiz-adv-x="1034" >
  <font-face 
    font-family="Bahij Hassan"
    font-weight="700"
    font-stretch="normal"
    units-per-em="2048"
    panose-1="2 4 7 3 6 2 1 2 2 3"
    ascent="1638"
    descent="-410"
    x-height="698"
    cap-height="1123"
    bbox="-271 -1518 3874 2310"
    underline-thickness="50"
    underline-position="-150"
    unicode-range="U+0020-FEFC"
  />
<missing-glyph horiz-adv-x="728" 
d="M0 0v1020h728v-1020h-728zM117 947l247 -372l248 372h-495zM655 881l-247 -371l247 -372v743zM612 73l-248 371l-247 -371h495zM73 138l247 372l-247 371v-743z" />
    <glyph glyph-name="uniFB01" unicode="fi" horiz-adv-x="962" 
d="M348 117q0 -22 6.5 -35t14 -18.5t15 -7t10.5 -1.5q44 -3 55 -7t11 -13q0 -23 -1.5 -30t-12.5 -7q-48 0 -97.5 2t-100.5 2t-100.5 -2t-96.5 -2q-12 0 -13.5 7t-1.5 30q0 9 11 13t55 7q3 0 10.5 1.5t15 7t14 18.5t6.5 35v370q0 67 -3 90.5t-23 23.5h-75q-22 0 -27 8.5
t-5 33.5q0 6 14.5 10.5t34.5 9.5t40.5 12t30.5 21q8 10 18 91q11 97 53 170t104.5 122.5t141.5 74t164 24.5q63 0 103 -11t64 -27.5t32.5 -37t8.5 -39.5q0 -41 -30 -65t-70 -24q-43 0 -72.5 19.5t-54 43.5t-47 44t-54.5 20q-42 0 -69 -23.5t-43.5 -62t-24.5 -86t-10 -93
t-1.5 -86.5t0.5 -65h282q41 0 73 10.5t56 22t39 22t19 10.5q8 0 13.5 -7.5t5.5 -14.5q0 -10 -4 -70t-4 -173v-368q0 -22 6.5 -35t14.5 -18.5t15 -7t10 -1.5q44 -3 55.5 -7t11.5 -13q0 -23 -2 -30t-13 -7q-47 0 -96.5 2t-101.5 2q-50 0 -100 -2t-97 -2q-11 0 -12.5 7t-1.5 30
q0 9 10.5 13t55.5 7q3 0 10 1.5t15 7t14 18.5t6 35v365q0 39 -1.5 63.5t-6 36.5t-13.5 15.5t-24 3.5h-235v-484z" />
    <glyph glyph-name="uniFB02" unicode="fl" horiz-adv-x="962" 
d="M348 117q0 -22 6.5 -35t14 -18.5t15 -7t10.5 -1.5q44 -3 55 -7t11 -13q0 -23 -1.5 -30t-12.5 -7q-48 0 -97.5 2t-100.5 2t-100.5 -2t-96.5 -2q-12 0 -13.5 7t-1.5 30q0 9 11 13t55 7q3 0 10.5 1.5t15 7t14 18.5t6.5 35v370q0 67 -3 90.5t-23 23.5h-75q-22 0 -27 8.5
t-5 33.5q0 6 14.5 10.5t34.5 9.5t40.5 12t30.5 21q8 10 18 91q14 122 63.5 198t112.5 119t125.5 58.5t99.5 15.5t75.5 -12t61.5 -33q10 3 30 13t41 21t40 19.5t25 8.5q3 0 9.5 -4t6.5 -11q0 -29 -2.5 -51.5t-5 -55t-5 -82.5t-2.5 -137v-737q0 -22 6.5 -35t14.5 -18.5t15 -7
t10 -1.5q44 -3 55.5 -7t11.5 -13q0 -23 -2 -30t-13 -7q-47 0 -96.5 2t-101.5 2q-50 0 -100 -2t-97 -2q-11 0 -12.5 7t-1.5 30q0 9 10.5 13t55.5 7q3 0 10 1.5t15 7t14 18.5t6 35v484h-280v-484zM348 685h280v320q-14 -11 -27 -11q-34 0 -57 15t-41 33t-34.5 33t-37.5 15
q-43 0 -63 -58t-20 -147v-200z" />
    <glyph glyph-name="uniFC31" unicode="&#xfed3;&#xfef0;" horiz-adv-x="1171" arabic-form="isolated" 
d="M879 1179l-127 -125l-125 125l125 127zM1106 98q0 -43 -21 -129q-41 -175 -122 -256q-85 -85 -244.5 -140t-321.5 -55q-331 0 -331 330q0 142 53 295q21 60 57 121q23 39 31 39q4 -2 4 -8q0 -9 -1.5 -12.5t-6.5 -14.5l-8 -27q-45 -146 -45 -209q0 -133 81.5 -206.5
t229.5 -73.5q133 0 284 50t232 122q-46 65 -121 113q-88 56 -180 75l106 217l162 68q12 46 12 90q0 12 -4 39q-1 10 -4 27q-1 6 -6 24q-3 7 -6 21q-30 -127 -162 -127q-123 0 -123 116q0 98 45 215q63 164 160 164q89 0 150 -118.5t61 -290.5q0 -82 -18 -181q-5 -23 -15 -60
t-35 -91q14 -9 31 -19q11 -6 39 -24q37 -31 37 -84zM909 675q-40 103 -106 103q-21 0 -47 -14q-31 -18 -31 -37q0 -21 31.5 -36.5t74.5 -15.5h78z" />
    <glyph glyph-name="uniFC32" unicode="&#xfed3;&#xfef2;" horiz-adv-x="1171" arabic-form="isolated" 
d="M879 1179l-127 -125l-125 125l125 127zM1106 98q0 -43 -21 -129q-41 -175 -122 -256q-85 -85 -244.5 -140t-321.5 -55q-331 0 -331 330q0 142 53 295q21 60 57 121q23 39 31 39q4 -2 4 -8q0 -9 -1.5 -12.5t-6.5 -14.5l-8 -27q-45 -146 -45 -209q0 -133 81.5 -206.5
t229.5 -73.5q133 0 284 50t232 122q-46 65 -121 113q-88 56 -180 75l106 217l162 68q12 46 12 90q0 12 -4 39q-1 10 -4 27q-1 6 -6 24q-3 7 -6 21q-30 -127 -162 -127q-123 0 -123 116q0 98 45 215q63 164 160 164q89 0 150 -118.5t61 -290.5q0 -82 -18 -181q-5 -23 -15 -60
t-35 -91q14 -9 31 -19q11 -6 39 -24q37 -31 37 -84zM721 -729l-127 -127l-117 114l-115 -114l-124 127l124 124l115 -112l117 112zM909 675q-40 103 -106 103q-21 0 -47 -14q-31 -18 -31 -37q0 -21 31.5 -36.5t74.5 -15.5h78z" />
    <glyph glyph-name="uniFC43" unicode="&#xfedf;&#xfef0;" horiz-adv-x="1346" arabic-form="isolated" 
d="M1268 1108q-23 -100 -92 -164v-57l2 -64l4 -231q0 -148 -45 -254q-22 -51 -52 -84q-17 -20 -59 -51q74 -51 74 -101q0 -20 -17 -106q-29 -154 -59 -213q-58 -114 -240.5 -194.5t-386.5 -80.5q-331 0 -331 332q0 140 53 293q22 65 57 123q23 39 31 39q4 -2 4 -8
q0 -8 -1.5 -12t-6.5 -17l-8 -25q-45 -135 -45 -210q0 -133 81.5 -206t229.5 -73q131 0 278.5 48.5t239.5 121.5q-17 20 -29 31q-43 40 -84 71.5t-100 61.5q-23 11 -100 43l114 219q17 5 41 14q14 4 64 19q21 6 59 20q23 8 53 19l31 10l-6 94q-5 72 -12 219q0 61 -4 254
l-2 66q-41 53 -41 100q0 95 75 221l6 10l5 5q1 -2 4 -25q8 -73 51 -127q24 -30 55 -57q24 -21 92 -64z" />
    <glyph glyph-name="uniFC44" unicode="&#xfedf;&#xfef2;" horiz-adv-x="1346" arabic-form="isolated" 
d="M1268 1108q-23 -100 -92 -164v-57l2 -64l4 -231q0 -148 -45 -254q-22 -51 -52 -84q-17 -20 -59 -51q74 -51 74 -101q0 -20 -17 -106q-29 -154 -59 -213q-58 -114 -240.5 -194.5t-386.5 -80.5q-331 0 -331 332q0 140 53 293q22 65 57 123q23 39 31 39q4 -2 4 -8
q0 -8 -1.5 -12t-6.5 -17l-8 -25q-45 -135 -45 -210q0 -133 81.5 -206t229.5 -73q131 0 278.5 48.5t239.5 121.5q-17 20 -29 31q-43 40 -84 71.5t-100 61.5q-23 11 -100 43l114 219q17 5 41 14q14 4 64 19q21 6 59 20q23 8 53 19l31 10l-6 94q-5 72 -12 219q0 61 -4 254
l-2 66q-41 53 -41 100q0 95 75 221l6 10l5 5q1 -2 4 -25q8 -73 51 -127q24 -30 55 -57q24 -21 92 -64zM715 -725l-127 -127l-115 115l-115 -115l-127 127l127 125l115 -113l115 113z" />
    <glyph glyph-name="uniFC64" unicode="&#xfe8c;&#xfeae;" horiz-adv-x="1169" arabic-form="final" 
d="M1194 23q0 -23 -16 -23h-115q-115 0 -155 41.5t-58 181.5q-12 -64 -53.5 -90.5t-132.5 -28.5q-8 -219 -95.5 -359t-216.5 -140q-93 0 -202 41q-71 26 -105 45q-45 25 -45 35q0 8 8 8t23 -4q28 -9 65 -9q134 0 240 89q86 71 137 159q23 40 51 103q15 33 25 69
q-31 49 -51 78l-31 43l-31 39l-16 25l65 252q3 11 7 12q2 0 32 -51q8 -16 27 -43l27 -45q34 -59 53 -76q30 -25 84 -25q77 0 127 27l-8 88v20q1 6 6 17l100 252q3 7 6 8l4 -8l2 -17q0 11 2 -30q1 -11 2 -41l7 -74l6 -94l6 -72q10 -117 42 -149.5t142 -32.5h19q16 0 16 -23
v-198zM991 981q1 -4 -8 -19l-56 -88l-20 -4l-37 -8q-47 -11 -76 -21q-54 -14 -94 -32q-6 -2 -10 -2q-4 3 0 12q11 29 20 41q14 22 41 41l-16 8q-45 22 -45 49q0 68 67 135q52 51 113 51q78 0 78 -30q0 -4 -6 -15l-37 -63q-1 -2 -4 -6q-4 0 -6 2q-22 18 -54 18
q-18 0 -37 -4.5t-32 -15.5q-13 -6 -15 -12q0 -16 45 -37q39 -19 78 -19q56 0 96 15q11 3 15 4z" />
    <glyph glyph-name="uniFC67" unicode="&#xfe8c;&#xfee6;" horiz-adv-x="1485" arabic-form="final" 
d="M600 708l-125 -125l-127 125l127 127zM1509 23q0 -23 -16 -23h-115q-114 0 -155 41q-40 41 -58 182q-11 -60 -49 -87t-117 -31q-17 0 -30 4q0 -24 -1 -47.5t-3 -45.5q-13 -145 -82 -232q-66 -81 -202 -132q-135 -52 -286 -52q-329 0 -329 330q0 141 53 295q21 60 57 120
q22 39 31 39q4 -1 4 -8q0 -8 -2 -13t-6 -13l-8 -27q-45 -147 -45 -203q0 -272 274 -272q124 0 247 46q124 45 183 111q2 45 -8.5 86t-28.5 82t-40.5 84.5t-43.5 92.5l109 225q0 4 2 6q2 0 7 -13.5t16 -39.5q14 -32 28 -62t29.5 -54t34 -40t40.5 -20q7 -1 15 -1.5t16 -0.5
q78 0 128 27l-8 88v20q2 7 6 17l100 252q2 6 6 8l4 -8q2 -21 2.5 -32t1.5 -22t2 -26.5t3 -45t6 -78t10 -124.5q11 -118 41 -150q32 -32 142 -32h19q16 0 16 -23v-198zM1301 981q1 -4 -8 -19l-56 -88l-20 -4l-37 -8q-47 -11 -76 -21q-54 -14 -94 -32q-6 -2 -10 -2q-4 3 0 12
q11 29 20 41q14 22 41 41l-16 8q-45 22 -45 49q0 68 67 135q52 51 113 51q78 0 78 -30q0 -4 -6 -15l-37 -63q-1 -2 -4 -6q-4 0 -6 2q-22 18 -54 18q-18 0 -37 -4.5t-32 -15.5q-13 -6 -15 -12q0 -16 45 -37q39 -19 78 -19q56 0 96 15q11 3 15 4z" />
    <glyph glyph-name="uniFC6A" unicode="&#xfe92;&#xfeae;" horiz-adv-x="1169" arabic-form="final" 
d="M1194 23q0 -23 -16 -23h-115q-115 0 -155 41.5t-58 181.5q-12 -64 -53.5 -90.5t-132.5 -28.5q-8 -219 -95.5 -359t-216.5 -140q-93 0 -202 41q-71 26 -105 45q-45 25 -45 35q0 8 8 8t23 -4q28 -9 65 -9q134 0 240 89q86 71 137 159q23 40 51 103q15 33 25 69
q-31 49 -51 78l-31 43l-31 39l-16 25l65 252q3 11 7 12q2 0 32 -51q8 -16 27 -43l27 -45q34 -59 53 -76q30 -25 84 -25q77 0 127 27l-8 88v20q1 6 6 17l100 252q3 7 6 8l4 -8l2 -17q0 11 2 -30q1 -11 2 -41l7 -74l6 -94l6 -72q10 -117 42 -149.5t142 -32.5h19q16 0 16 -23
v-198zM998 -260l-125 -127l-127 127l127 125z" />
    <glyph glyph-name="uniFC70" unicode="&#xfe98;&#xfeae;" horiz-adv-x="1169" arabic-form="final" 
d="M1194 23q0 -23 -16 -23h-115q-115 0 -155 41.5t-58 181.5q-12 -64 -53.5 -90.5t-132.5 -28.5q-8 -219 -95.5 -359t-216.5 -140q-93 0 -202 41q-71 26 -105 45q-45 25 -45 35q0 8 8 8t23 -4q28 -9 65 -9q134 0 240 89q86 71 137 159q23 40 51 103q15 33 25 69
q-31 49 -51 78l-31 43l-31 39l-16 25l65 252q3 11 7 12q2 0 32 -51q8 -16 27 -43l27 -45q34 -59 53 -76q30 -25 84 -25q77 0 127 27l-8 88v20q1 6 6 17l100 252q3 7 6 8l4 -8l2 -17q0 11 2 -30q1 -11 2 -41l7 -74l6 -94l6 -72q10 -117 42 -149.5t142 -32.5h19q16 0 16 -23
v-198zM1046 965l-125 -125l-117 115l-115 -115l-125 125l125 127l115 -115l117 115z" />
    <glyph glyph-name="uniFC86" unicode="&#xfee0;&#xfef0;" horiz-adv-x="1559" arabic-form="final" 
d="M1583 23q0 -23 -24 -23h-39q-120 0 -179 39q-44 29 -59.5 85t-19.5 195l-2 66l-15 -29q-5 -9 -16 -24l-12 -23q-8 -14 -27 -37l-148 -57q42 -37 52 -53.5t10 -48.5q0 -55 -28 -158q-26 -98 -52 -148q-60 -115 -241.5 -194.5t-385.5 -79.5q-331 0 -331 330q0 142 53 295
q21 60 57 121q23 38 31 38q4 -2 4 -8q0 -8 -2 -13t-6 -13l-8 -27q-45 -146 -45 -209q0 -132 82 -206t229 -74q137 0 288 50.5t228 123.5q-91 127 -305 192l114 223l474 168v56l-3 69q-1 47 -6 150q-4 60 -4 80q-2 8 -10 79q-6 59 -6 64l-8 43q-2 9 -6 33l153 284q2 4 8 13
q2 -1 4 -13l4 -18l5 -37q8 -56 20 -151q10 -109 10 -338v-41l-2 -121v-115l2 -117q2 -113 29.5 -156.5t101.5 -43.5h13q16 0 18 -23v-198z" />
    <glyph glyph-name="uniFC87" unicode="&#xfee0;&#xfef2;" horiz-adv-x="1559" arabic-form="final" 
d="M1583 23q0 -23 -24 -23h-39q-120 0 -179 39q-44 29 -59.5 85t-19.5 195l-2 66l-15 -29q-5 -9 -16 -24l-12 -23q-8 -14 -27 -37l-148 -57q42 -37 52 -53.5t10 -48.5q0 -55 -28 -158q-26 -98 -52 -148q-60 -115 -241.5 -194.5t-385.5 -79.5q-331 0 -331 330q0 142 53 295
q21 60 57 121q23 38 31 38q4 -2 4 -8q0 -8 -2 -13t-6 -13l-8 -27q-45 -146 -45 -209q0 -132 82 -206t229 -74q137 0 288 50.5t228 123.5q-91 127 -305 192l114 223l474 168v56l-3 69q-1 47 -6 150q-4 60 -4 80q-2 8 -10 79q-6 59 -6 64l-8 43q-2 9 -6 33l153 284q2 4 8 13
q2 -1 4 -13l4 -18l5 -37q8 -56 20 -151q10 -109 10 -338v-41l-2 -121v-115l2 -117q2 -113 29.5 -156.5t101.5 -43.5h13q16 0 18 -23v-198zM715 -702l-127 -125l-115 112l-115 -112l-127 125l127 127l115 -115l115 115z" />
    <glyph glyph-name="uniFCCC" unicode="&#xfedf;&#xfee4;" horiz-adv-x="582" arabic-form="initial" 
d="M510 106l-4 -16l-80 -207q-4 -8 -8 -8l-8 4q-2 2 -8 7t-11 10l-26 18q-172 119 -211 119q-21 0 -82 -17q-31 -8 -43 -12l-25 -4h-10q-64 0 -64 122t62 122h14l19 2q92 10 131 30q-25 102 -25 232l4 569l-6 19q-20 61 -20 94q0 68 69 184l6 10l4 5q3 -2 5 -25
q8 -99 106 -184q24 -21 92 -64l17 -10q-21 -92 -84 -164q2 -29 2 -59q0 -13 -1 -49.5t-1 -60t-2 -60.5q-1 -33 0 -45l2 -99v-100q0 -66 8 -141q6 -56 26 -86q18 -26 62 -60q12 -9 33 -24q27 -20 30 -21q27 -20 27 -31z" />
    <glyph glyph-name="uniFCFB" unicode="&#xfeb3;&#xfef0;" horiz-adv-x="2167" arabic-form="isolated" 
d="M2101 360q0 -91 -41 -219q-46 -145 -149 -145q-46 0 -92 12q-61 16 -123 47l-33 17l-4 -6l-12 -13q-32 -32 -84 -41q-72 -12 -156 -12q-109 0 -160 23q-65 28 -112 141q-29 67 -59.5 92t-84.5 25q-62 0 -131 -37q-58 -31 -98 -72q-53 -53 -53 -66q0 -25 196 -94
q96 -33 115 -51q29 -27 29 -82q0 -54 -27 -147q-45 -157 -131 -234q-89 -78 -228 -127t-274 -49q-323 0 -323 330q0 142 53 295q21 60 57 121q23 38 31 38q4 -1 4 -8q0 -8 -1.5 -11.5t-6.5 -14.5l-8 -27q-45 -146 -45 -205q0 -266 264 -266q134 0 284.5 44.5t231.5 109.5
q-72 36 -144 67q-50 22 -133 66q-63 43 -63 110q0 126 108 289q73 110 174 177t195 67q110 0 154 -113q13 -37 28 -78q16 -34 51 -51q39 -18 150 -18h29q112 0 151 12q17 5 31 23q8 16 22 49q45 104 66 104q14 0 14 -20q0 -11 -8 -35l-10 -31l-10 -37l-9 -26q79 -47 197 -47
q10 0 43 4q-4 16 -10 39q-6 15 -21 63l-4 16l107 205q2 4 8 15q4 -5 6 -13l8 -18q41 -92 41 -187z" />
    <glyph glyph-name="uniFCFC" unicode="&#xfeb3;&#xfef2;" horiz-adv-x="2167" arabic-form="isolated" 
d="M2101 360q0 -91 -41 -219q-46 -145 -149 -145q-46 0 -92 12q-61 16 -123 47l-33 17l-4 -6l-12 -13q-32 -32 -84 -41q-72 -12 -156 -12q-109 0 -160 23q-65 28 -112 141q-29 67 -59.5 92t-84.5 25q-62 0 -131 -37q-58 -31 -98 -72q-53 -53 -53 -66q0 -25 196 -94
q96 -33 115 -51q29 -27 29 -82q0 -54 -27 -147q-45 -157 -131 -234q-89 -78 -228 -127t-274 -49q-323 0 -323 330q0 142 53 295q21 60 57 121q23 38 31 38q4 -1 4 -8q0 -8 -1.5 -11.5t-6.5 -14.5l-8 -27q-45 -146 -45 -205q0 -266 264 -266q134 0 284.5 44.5t231.5 109.5
q-72 36 -144 67q-50 22 -133 66q-63 43 -63 110q0 126 108 289q73 110 174 177t195 67q110 0 154 -113q13 -37 28 -78q16 -34 51 -51q39 -18 150 -18h29q112 0 151 12q17 5 31 23q8 16 22 49q45 104 66 104q14 0 14 -20q0 -11 -8 -35l-10 -31l-10 -37l-9 -26q79 -47 197 -47
q10 0 43 4q-4 16 -10 39q-6 15 -21 63l-4 16l107 205q2 4 8 15q4 -5 6 -13l8 -18q41 -92 41 -187zM659 -899l-124 -127l-117 115l-115 -115l-127 127l127 125l115 -115l117 115z" />
    <glyph glyph-name="uniFCFD" unicode="&#xfeb7;&#xfef0;" horiz-adv-x="2167" arabic-form="isolated" 
d="M1729 913l-115 -114l-115 114l115 115zM1835 700l-115 -114l-106 106l-107 -106l-112 114l112 115l107 -104l106 104zM2101 360q0 -91 -41 -219q-46 -145 -149 -145q-46 0 -92 12q-61 16 -123 47l-33 17l-4 -6l-12 -13q-32 -32 -84 -41q-72 -12 -156 -12q-109 0 -160 23
q-65 28 -112 141q-29 67 -59.5 92t-84.5 25q-62 0 -131 -37q-58 -31 -98 -72q-53 -53 -53 -66q0 -25 196 -94q96 -33 115 -51q29 -27 29 -82q0 -54 -27 -147q-45 -157 -131 -234q-89 -78 -228 -127t-274 -49q-323 0 -323 330q0 142 53 295q21 60 57 121q23 38 31 38
q4 -1 4 -8q0 -8 -1.5 -11.5t-6.5 -14.5l-8 -27q-45 -146 -45 -205q0 -266 264 -266q134 0 284.5 44.5t231.5 109.5q-72 36 -144 67q-50 22 -133 66q-63 43 -63 110q0 126 108 289q73 110 174 177t195 67q110 0 154 -113q13 -37 28 -78q16 -34 51 -51q39 -18 150 -18h29
q112 0 151 12q17 5 31 23q8 16 22 49q45 104 66 104q14 0 14 -20q0 -11 -8 -35l-10 -31l-10 -37l-9 -26q79 -47 197 -47q10 0 43 4q-4 16 -10 39q-6 15 -21 63l-4 16l107 205q2 4 8 15q4 -5 6 -13l8 -18q41 -92 41 -187z" />
    <glyph glyph-name="uniFCFE" unicode="&#xfeb7;&#xfef2;" horiz-adv-x="2167" arabic-form="isolated" 
d="M1729 913l-115 -114l-115 114l115 115zM1835 700l-115 -114l-106 106l-107 -106l-112 114l112 115l107 -104l106 104zM2101 360q0 -91 -41 -219q-46 -145 -149 -145q-46 0 -92 12q-61 16 -123 47l-33 17l-4 -6l-12 -13q-32 -32 -84 -41q-72 -12 -156 -12q-109 0 -160 23
q-65 28 -112 141q-29 67 -59.5 92t-84.5 25q-62 0 -131 -37q-58 -31 -98 -72q-53 -53 -53 -66q0 -25 196 -94q96 -33 115 -51q29 -27 29 -82q0 -54 -27 -147q-45 -157 -131 -234q-89 -78 -228 -127t-274 -49q-323 0 -323 330q0 142 53 295q21 60 57 121q23 38 31 38
q4 -1 4 -8q0 -8 -1.5 -11.5t-6.5 -14.5l-8 -27q-45 -146 -45 -205q0 -266 264 -266q134 0 284.5 44.5t231.5 109.5q-72 36 -144 67q-50 22 -133 66q-63 43 -63 110q0 126 108 289q73 110 174 177t195 67q110 0 154 -113q13 -37 28 -78q16 -34 51 -51q39 -18 150 -18h29
q112 0 151 12q17 5 31 23q8 16 22 49q45 104 66 104q14 0 14 -20q0 -11 -8 -35l-10 -31l-10 -37l-9 -26q79 -47 197 -47q10 0 43 4q-4 16 -10 39q-6 15 -21 63l-4 16l107 205q2 4 8 15q4 -5 6 -13l8 -18q41 -92 41 -187zM659 -899l-124 -127l-117 115l-115 -115l-127 127
l127 125l115 -115l117 115z" />
    <glyph glyph-name="uniFD05" unicode="&#xfebb;&#xfef0;" horiz-adv-x="2292" arabic-form="isolated" 
d="M2226 475q0 -68 -43 -168q-70 -162 -141.5 -221.5t-239.5 -77.5q-48 -5 -157 -10q-44 -2 -183 -2q-151 0 -215 26.5t-112 141.5q-29 67 -59.5 92t-86.5 25q-57 0 -126.5 -35.5t-112.5 -87.5l-29 -35q-12 -12 -12 -19q0 -22 196 -92q97 -34 115 -51q29 -27 29 -82
q0 -54 -27 -147q-45 -157 -131 -234q-89 -78 -228 -127t-274 -49q-323 0 -323 330q0 142 53 295q21 60 57 121q23 38 31 38q4 -1 4 -8q0 -8 -1.5 -11.5t-6.5 -14.5l-8 -27q-45 -146 -45 -205q0 -266 264 -266q134 0 284.5 44.5t231.5 109.5q-72 36 -144 67q-50 22 -133 66
q-63 43 -63 110q0 126 108 289q73 110 174 177t195 67q110 0 154 -113q13 -37 28 -78q17 -35 51 -51q41 -18 125 -18h105l29 37l43 51l59 69l55 62q74 82 107 115q104 104 200 104q80 0 141.5 -62.5t61.5 -144.5zM2079 313q-37 148 -154 148q-60 0 -122 -46.5t-173 -172.5
q49 -4 58 -4q109 0 229 20q108 19 162 55z" />
    <glyph glyph-name="uniFD06" unicode="&#xfebb;&#xfef2;" horiz-adv-x="2292" arabic-form="isolated" 
d="M2226 475q0 -68 -43 -168q-70 -162 -141.5 -221.5t-239.5 -77.5q-48 -5 -157 -10q-44 -2 -183 -2q-151 0 -215 26.5t-112 141.5q-29 67 -59.5 92t-86.5 25q-57 0 -126.5 -35.5t-112.5 -87.5l-29 -35q-12 -12 -12 -19q0 -22 196 -92q97 -34 115 -51q29 -27 29 -82
q0 -54 -27 -147q-45 -157 -131 -234q-89 -78 -228 -127t-274 -49q-323 0 -323 330q0 142 53 295q21 60 57 121q23 38 31 38q4 -1 4 -8q0 -8 -1.5 -11.5t-6.5 -14.5l-8 -27q-45 -146 -45 -205q0 -266 264 -266q134 0 284.5 44.5t231.5 109.5q-72 36 -144 67q-50 22 -133 66
q-63 43 -63 110q0 126 108 289q73 110 174 177t195 67q110 0 154 -113q13 -37 28 -78q17 -35 51 -51q41 -18 125 -18h105l29 37l43 51l59 69l55 62q74 82 107 115q104 104 200 104q80 0 141.5 -62.5t61.5 -144.5zM659 -899l-124 -127l-117 115l-115 -115l-127 127l127 125
l115 -115l117 115zM2079 313q-37 148 -154 148q-60 0 -122 -46.5t-173 -172.5q49 -4 58 -4q109 0 229 20q108 19 162 55z" />
    <glyph glyph-name="uniFD07" unicode="&#xfebf;&#xfef0;" horiz-adv-x="2292" arabic-form="isolated" 
d="M1950 901l-127 -127l-125 127l125 125zM2226 475q0 -68 -43 -168q-70 -162 -141.5 -221.5t-239.5 -77.5q-48 -5 -157 -10q-44 -2 -183 -2q-151 0 -215 26.5t-112 141.5q-29 67 -59.5 92t-86.5 25q-57 0 -126.5 -35.5t-112.5 -87.5l-29 -35q-12 -12 -12 -19q0 -22 196 -92
q97 -34 115 -51q29 -27 29 -82q0 -54 -27 -147q-45 -157 -131 -234q-89 -78 -228 -127t-274 -49q-323 0 -323 330q0 142 53 295q21 60 57 121q23 38 31 38q4 -1 4 -8q0 -8 -1.5 -11.5t-6.5 -14.5l-8 -27q-45 -146 -45 -205q0 -266 264 -266q134 0 284.5 44.5t231.5 109.5
q-72 36 -144 67q-50 22 -133 66q-63 43 -63 110q0 126 108 289q73 110 174 177t195 67q110 0 154 -113q13 -37 28 -78q17 -35 51 -51q41 -18 125 -18h105l29 37l43 51l59 69l55 62q74 82 107 115q104 104 200 104q80 0 141.5 -62.5t61.5 -144.5zM2079 313q-37 148 -154 148
q-60 0 -122 -46.5t-173 -172.5q49 -4 58 -4q109 0 229 20q108 19 162 55z" />
    <glyph glyph-name="uniFD08" unicode="&#xfebf;&#xfef2;" horiz-adv-x="2292" arabic-form="isolated" 
d="M1950 901l-127 -127l-125 127l125 125zM2226 475q0 -68 -43 -168q-70 -162 -141.5 -221.5t-239.5 -77.5q-48 -5 -157 -10q-44 -2 -183 -2q-151 0 -215 26.5t-112 141.5q-29 67 -59.5 92t-86.5 25q-57 0 -126.5 -35.5t-112.5 -87.5l-29 -35q-12 -12 -12 -19q0 -22 196 -92
q97 -34 115 -51q29 -27 29 -82q0 -54 -27 -147q-45 -157 -131 -234q-89 -78 -228 -127t-274 -49q-323 0 -323 330q0 142 53 295q21 60 57 121q23 38 31 38q4 -1 4 -8q0 -8 -1.5 -11.5t-6.5 -14.5l-8 -27q-45 -146 -45 -205q0 -266 264 -266q134 0 284.5 44.5t231.5 109.5
q-72 36 -144 67q-50 22 -133 66q-63 43 -63 110q0 126 108 289q73 110 174 177t195 67q110 0 154 -113q13 -37 28 -78q17 -35 51 -51q41 -18 125 -18h105l29 37l43 51l59 69l55 62q74 82 107 115q104 104 200 104q80 0 141.5 -62.5t61.5 -144.5zM659 -899l-124 -127
l-117 115l-115 -115l-127 127l127 125l115 -115l117 115zM2079 313q-37 148 -154 148q-60 0 -122 -46.5t-173 -172.5q49 -4 58 -4q109 0 229 20q108 19 162 55z" />
    <glyph glyph-name="uniFD0D" unicode="&#xfeb7;&#xfeae;" horiz-adv-x="1802" arabic-form="isolated" 
d="M1364 926l-115 -115l-114 115l114 114zM1470 715l-114 -115l-107 105l-106 -105l-111 115l111 112l106 -104l107 104zM1737 379q0 -105 -41 -227q-48 -144 -150 -144q-45 0 -92 12q-61 17 -123 48l-20 10l-11 6l-6 -6q-45 -64 -204 -64q-96 0 -154 31q-40 21 -47 64
q-4 22 -6 73q-55 -18 -125 -32l-60 -13l-32 -8q2 -25 2 -49q0 -249 -89 -407t-229 -158q-91 0 -200 41q-71 26 -105 45q-45 25 -45 34t8 9t23 -4q28 -9 65 -9q134 0 240 88q86 72 137 160q20 35 51 105q15 33 25 69l-21 56l-55 -13l55 246q6 2 13 2q1 0 37 6q28 5 98 17
q24 4 102 22q35 8 90 23q25 6 72 20l23 8l12 4q-19 -58 -19 -98q0 -90 156 -90q37 0 107 10q23 4 47 8q29 13 39 41q3 7 14 31q45 105 65 105q15 0 15 -21q0 -13 -8 -35l-9 -30l-20 -62q82 -47 197 -47q26 0 43 2q-5 16 -11 39q-5 15 -20 65l-4 15l106 207q2 4 8 12
q4 -2 7 -10l8 -19q41 -92 41 -188z" />
    <glyph glyph-name="uniFD0E" unicode="&#xfeb3;&#xfeae;" horiz-adv-x="1802" arabic-form="isolated" 
d="M1737 379q0 -105 -41 -227q-48 -144 -150 -144q-45 0 -92 12q-61 17 -123 48l-20 10l-11 6l-6 -6q-45 -64 -204 -64q-96 0 -154 31q-40 21 -47 64q-4 22 -6 73q-55 -18 -125 -32l-60 -13l-32 -8q2 -25 2 -49q0 -249 -89 -407t-229 -158q-91 0 -200 41q-71 26 -105 45
q-45 25 -45 34t8 9t23 -4q28 -9 65 -9q134 0 240 88q86 72 137 160q20 35 51 105q15 33 25 69l-21 56l-55 -13l55 246q6 2 13 2q1 0 37 6q28 5 98 17q24 4 102 22q35 8 90 23q25 6 72 20l23 8l12 4q-19 -58 -19 -98q0 -90 156 -90q37 0 107 10q23 4 47 8q29 13 39 41
q3 7 14 31q45 105 65 105q15 0 15 -21q0 -13 -8 -35l-9 -30l-20 -62q82 -47 197 -47q26 0 43 2q-5 16 -11 39q-5 15 -20 65l-4 15l106 207q2 4 8 12q4 -2 7 -10l8 -19q41 -92 41 -188z" />
    <glyph glyph-name="uniFD0F" unicode="&#xfebb;&#xfeae;" horiz-adv-x="1927" arabic-form="isolated" 
d="M1862 469q0 -62 -45 -170q-66 -156 -140 -221q-61 -54 -241 -70q-96 -8 -146 -8h-149q-137 0 -188.5 20.5t-63.5 71.5q-4 16 -6 78q-33 -11 -125 -35l-60 -12l-32 -6q2 -27 2 -51q0 -249 -89 -407.5t-229 -158.5q-96 0 -200 41q-67 26 -105 47q-45 25 -45 33q0 10 8 10
q3 -1 23 -6q35 -8 65 -8q136 0 240 88q83 70 137 162q23 38 51 102q15 34 25 70l-21 55l-55 -10l55 246q11 0 14.5 1t35.5 5q11 1 98 18q33 6 102 21q35 8 90 22q24 7 72 23l23 8l12 2q-19 -55 -19 -98q0 -50 43 -70q40 -18 129 -18h35l23 24q24 27 110 125q60 68 160 176
q109 107 201 107q80 0 142.5 -63t62.5 -144zM1714 305q-36 148 -153 148q-61 0 -123 -46.5t-172 -173.5q24 -2 57 -2q109 0 227 21q106 18 164 53z" />
    <glyph glyph-name="uniFD10" unicode="&#xfebf;&#xfeae;" horiz-adv-x="1927" arabic-form="isolated" 
d="M1585 893l-127 -127l-125 127l125 127zM1862 469q0 -62 -45 -170q-66 -156 -140 -221q-61 -54 -241 -70q-96 -8 -146 -8h-149q-137 0 -188.5 20.5t-63.5 71.5q-4 16 -6 78q-33 -11 -125 -35l-60 -12l-32 -6q2 -27 2 -51q0 -249 -89 -407.5t-229 -158.5q-96 0 -200 41
q-67 26 -105 47q-45 25 -45 33q0 10 8 10q3 -1 23 -6q35 -8 65 -8q136 0 240 88q83 70 137 162q23 38 51 102q15 34 25 70l-21 55l-55 -10l55 246q11 0 14.5 1t35.5 5q11 1 98 18q33 6 102 21q35 8 90 22q24 7 72 23l23 8l12 2q-19 -55 -19 -98q0 -50 43 -70q40 -18 129 -18
h35l23 24q24 27 110 125q60 68 160 176q109 107 201 107q80 0 142.5 -63t62.5 -144zM1714 305q-36 148 -153 148q-61 0 -123 -46.5t-172 -173.5q24 -2 57 -2q109 0 227 21q106 18 164 53z" />
    <glyph glyph-name="uniFD17" unicode="&#xfeb4;&#xfef0;" horiz-adv-x="2163" arabic-form="final" 
d="M2187 23q0 -23 -22 -23h-39q-88 0 -113 86l-4 14l-8 -22q-31 -86 -121 -86q-118 0 -227 84q-48 -54 -119 -70q-46 -10 -119 -10q-116 0 -168 23q-65 28 -112 141q-29 67 -59.5 92t-84.5 25q-62 0 -131 -37q-58 -31 -98 -72q-53 -53 -53 -66q0 -25 196 -94q96 -33 115 -51
q29 -27 29 -82q0 -54 -27 -147q-45 -157 -131 -234q-89 -78 -228 -127t-274 -49q-323 0 -323 330q0 142 53 295q21 60 57 121q23 38 31 38q4 -1 4 -8q0 -8 -1.5 -11.5t-6.5 -14.5l-8 -27q-45 -146 -45 -205q0 -266 264 -266q134 0 284.5 44.5t231.5 109.5q-72 36 -144 67
q-50 22 -133 66q-63 43 -63 110q0 126 108 289q73 110 174 177t195 67q110 0 154 -113q13 -37 28 -78q16 -34 51 -51q43 -20 177 -20q127 0 161 20q24 14 45 56t35 75q32 72 51 72q15 0 15 -21q0 -12 -8 -36l-11 -31l-10 -35q-8 -27 -18 -53q92 -49 180 -49q50 0 60 8t30 74
l10 32q23 74 45 74q17 0 17 -27q0 -13 -2 -22q-11 -44 -11 -55q0 -76 91 -76h12q18 0 18 -23v-198z" />
    <glyph glyph-name="uniFD18" unicode="&#xfeb4;&#xfef2;" horiz-adv-x="2163" arabic-form="final" 
d="M2187 23q0 -23 -22 -23h-39q-88 0 -113 86l-4 14l-8 -22q-31 -86 -121 -86q-118 0 -227 84q-48 -54 -119 -70q-46 -10 -119 -10q-116 0 -168 23q-65 28 -112 141q-29 67 -59.5 92t-84.5 25q-62 0 -131 -37q-58 -31 -98 -72q-53 -53 -53 -66q0 -25 196 -94q96 -33 115 -51
q29 -27 29 -82q0 -54 -27 -147q-45 -157 -131 -234q-89 -78 -228 -127t-274 -49q-323 0 -323 330q0 142 53 295q21 60 57 121q23 38 31 38q4 -1 4 -8q0 -8 -1.5 -11.5t-6.5 -14.5l-8 -27q-45 -146 -45 -205q0 -266 264 -266q134 0 284.5 44.5t231.5 109.5q-72 36 -144 67
q-50 22 -133 66q-63 43 -63 110q0 126 108 289q73 110 174 177t195 67q110 0 154 -113q13 -37 28 -78q16 -34 51 -51q43 -20 177 -20q127 0 161 20q24 14 45 56t35 75q32 72 51 72q15 0 15 -21q0 -12 -8 -36l-11 -31l-10 -35q-8 -27 -18 -53q92 -49 180 -49q50 0 60 8t30 74
l10 32q23 74 45 74q17 0 17 -27q0 -13 -2 -22q-11 -44 -11 -55q0 -76 91 -76h12q18 0 18 -23v-198zM659 -903l-124 -127l-117 115l-115 -115l-127 127l127 125l115 -115l117 115z" />
    <glyph glyph-name="uniFD19" unicode="&#xfeb8;&#xfef0;" horiz-adv-x="2163" arabic-form="final" 
d="M1843 934l-114 -115l-115 115l115 115zM1950 721l-115 -115l-106 105l-107 -105l-113 115l113 115l107 -107l106 107zM2187 23q0 -23 -22 -23h-39q-88 0 -113 86l-4 14l-8 -22q-31 -86 -121 -86q-118 0 -227 84q-48 -54 -119 -70q-46 -10 -119 -10q-116 0 -168 23
q-65 28 -112 141q-29 67 -59.5 92t-84.5 25q-62 0 -131 -37q-58 -31 -98 -72q-53 -53 -53 -66q0 -25 196 -94q96 -33 115 -51q29 -27 29 -82q0 -54 -27 -147q-45 -157 -131 -234q-89 -78 -228 -127t-274 -49q-323 0 -323 330q0 142 53 295q21 60 57 121q23 38 31 38
q4 -1 4 -8q0 -8 -1.5 -11.5t-6.5 -14.5l-8 -27q-45 -146 -45 -205q0 -266 264 -266q134 0 284.5 44.5t231.5 109.5q-72 36 -144 67q-50 22 -133 66q-63 43 -63 110q0 126 108 289q73 110 174 177t195 67q110 0 154 -113q13 -37 28 -78q16 -34 51 -51q43 -20 177 -20
q127 0 161 20q24 14 45 56t35 75q32 72 51 72q15 0 15 -21q0 -12 -8 -36l-11 -31l-10 -35q-8 -27 -18 -53q92 -49 180 -49q50 0 60 8t30 74l10 32q23 74 45 74q17 0 17 -27q0 -13 -2 -22q-11 -44 -11 -55q0 -76 91 -76h12q18 0 18 -23v-198z" />
    <glyph glyph-name="uniFD1A" unicode="&#xfeb8;&#xfef2;" horiz-adv-x="2163" arabic-form="final" 
d="M1843 934l-114 -115l-115 115l115 115zM1950 721l-115 -115l-106 105l-107 -105l-113 115l113 115l107 -107l106 107zM2187 23q0 -23 -22 -23h-39q-88 0 -113 86l-4 14l-8 -22q-31 -86 -121 -86q-118 0 -227 84q-48 -54 -119 -70q-46 -10 -119 -10q-116 0 -168 23
q-65 28 -112 141q-29 67 -59.5 92t-84.5 25q-62 0 -131 -37q-58 -31 -98 -72q-53 -53 -53 -66q0 -25 196 -94q96 -33 115 -51q29 -27 29 -82q0 -54 -27 -147q-45 -157 -131 -234q-89 -78 -228 -127t-274 -49q-323 0 -323 330q0 142 53 295q21 60 57 121q23 38 31 38
q4 -1 4 -8q0 -8 -1.5 -11.5t-6.5 -14.5l-8 -27q-45 -146 -45 -205q0 -266 264 -266q134 0 284.5 44.5t231.5 109.5q-72 36 -144 67q-50 22 -133 66q-63 43 -63 110q0 126 108 289q73 110 174 177t195 67q110 0 154 -113q13 -37 28 -78q16 -34 51 -51q43 -20 177 -20
q127 0 161 20q24 14 45 56t35 75q32 72 51 72q15 0 15 -21q0 -12 -8 -36l-11 -31l-10 -35q-8 -27 -18 -53q92 -49 180 -49q50 0 60 8t30 74l10 32q23 74 45 74q17 0 17 -27q0 -13 -2 -22q-11 -44 -11 -55q0 -76 91 -76h12q18 0 18 -23v-198zM659 -903l-124 -127l-117 115
l-115 -115l-127 127l127 125l115 -115l117 115z" />
    <glyph glyph-name="uniFD21" unicode="&#xfebc;&#xfef0;" horiz-adv-x="2292" arabic-form="final" 
d="M2316 23q0 -23 -18 -23h-920q-78 0 -131 23q-65 27 -112 141q-29 67 -59.5 92t-86.5 25q-57 0 -126.5 -35.5t-112.5 -87.5l-29 -35q-12 -12 -12 -19q0 -22 196 -92q97 -34 115 -51q29 -27 29 -82q0 -54 -27 -147q-45 -157 -131 -234q-89 -78 -228 -127t-274 -49
q-323 0 -323 330q0 142 53 295q21 60 57 121q23 38 31 38q4 -1 4 -8q0 -8 -1.5 -11.5t-6.5 -14.5l-8 -27q-45 -146 -45 -205q0 -266 264 -266q134 0 284.5 44.5t231.5 109.5q-72 36 -144 67q-50 22 -133 66q-63 43 -63 110q0 126 108 289q73 110 174 177t195 67
q110 0 154 -113q21 -54 28 -78q17 -30 47 -47q38 -20 117 -20h53l50 4q43 41 81 86l60 70q24 26 55 61q70 79 105 115q102 104 200 104q83 0 144 -63.5t61 -149.5q0 -90 -80 -229h156q18 0 18 -23v-198zM2081 319q-45 150 -150 150q-64 0 -128.5 -47t-178.5 -176
q53 -4 57 -4q126 0 241 22.5t159 54.5z" />
    <glyph glyph-name="uniFD22" unicode="&#xfebc;&#xfef2;" horiz-adv-x="2292" arabic-form="final" 
d="M2316 23q0 -23 -18 -23h-920q-78 0 -131 23q-65 27 -112 141q-29 67 -59.5 92t-86.5 25q-57 0 -126.5 -35.5t-112.5 -87.5l-29 -35q-12 -12 -12 -19q0 -22 196 -92q97 -34 115 -51q29 -27 29 -82q0 -54 -27 -147q-45 -157 -131 -234q-89 -78 -228 -127t-274 -49
q-323 0 -323 330q0 142 53 295q21 60 57 121q23 38 31 38q4 -1 4 -8q0 -8 -1.5 -11.5t-6.5 -14.5l-8 -27q-45 -146 -45 -205q0 -266 264 -266q134 0 284.5 44.5t231.5 109.5q-72 36 -144 67q-50 22 -133 66q-63 43 -63 110q0 126 108 289q73 110 174 177t195 67
q110 0 154 -113q21 -54 28 -78q17 -30 47 -47q38 -20 117 -20h53l50 4q43 41 81 86l60 70q24 26 55 61q70 79 105 115q102 104 200 104q83 0 144 -63.5t61 -149.5q0 -90 -80 -229h156q18 0 18 -23v-198zM659 -899l-124 -127l-117 115l-115 -115l-127 127l127 125l115 -115
l117 115zM2081 319q-45 150 -150 150q-64 0 -128.5 -47t-178.5 -176q53 -4 57 -4q126 0 241 22.5t159 54.5z" />
    <glyph glyph-name="uniFD23" unicode="&#xfec0;&#xfef0;" horiz-adv-x="2292" arabic-form="final" 
d="M1944 905l-125 -127l-127 127l127 125zM2316 23q0 -23 -18 -23h-920q-78 0 -131 23q-65 27 -112 141q-29 67 -59.5 92t-86.5 25q-57 0 -126.5 -35.5t-112.5 -87.5l-29 -35q-12 -12 -12 -19q0 -22 196 -92q97 -34 115 -51q29 -27 29 -82q0 -54 -27 -147
q-45 -157 -131 -234q-89 -78 -228 -127t-274 -49q-323 0 -323 330q0 142 53 295q21 60 57 121q23 38 31 38q4 -1 4 -8q0 -8 -1.5 -11.5t-6.5 -14.5l-8 -27q-45 -146 -45 -205q0 -266 264 -266q134 0 284.5 44.5t231.5 109.5q-72 36 -144 67q-50 22 -133 66q-63 43 -63 110
q0 126 108 289q73 110 174 177t195 67q110 0 154 -113q21 -54 28 -78q17 -30 47 -47q38 -20 117 -20h53l50 4q43 41 81 86l60 70q24 26 55 61q70 79 105 115q102 104 200 104q83 0 144 -63.5t61 -149.5q0 -90 -80 -229h156q18 0 18 -23v-198zM2081 319q-45 150 -150 150
q-64 0 -128.5 -47t-178.5 -176q53 -4 57 -4q126 0 241 22.5t159 54.5z" />
    <glyph glyph-name="uniFD24" unicode="&#xfec0;&#xfef2;" horiz-adv-x="2292" arabic-form="final" 
d="M1944 905l-125 -127l-127 127l127 125zM2316 23q0 -23 -18 -23h-920q-78 0 -131 23q-65 27 -112 141q-29 67 -59.5 92t-86.5 25q-57 0 -126.5 -35.5t-112.5 -87.5l-29 -35q-12 -12 -12 -19q0 -22 196 -92q97 -34 115 -51q29 -27 29 -82q0 -54 -27 -147
q-45 -157 -131 -234q-89 -78 -228 -127t-274 -49q-323 0 -323 330q0 142 53 295q21 60 57 121q23 38 31 38q4 -1 4 -8q0 -8 -1.5 -11.5t-6.5 -14.5l-8 -27q-45 -146 -45 -205q0 -266 264 -266q134 0 284.5 44.5t231.5 109.5q-72 36 -144 67q-50 22 -133 66q-63 43 -63 110
q0 126 108 289q73 110 174 177t195 67q110 0 154 -113q21 -54 28 -78q17 -30 47 -47q38 -20 117 -20h53l50 4q43 41 81 86l60 70q24 26 55 61q70 79 105 115q102 104 200 104q83 0 144 -63.5t61 -149.5q0 -90 -80 -229h156q18 0 18 -23v-198zM659 -899l-124 -127l-117 115
l-115 -115l-127 127l127 125l115 -115l117 115zM2081 319q-45 150 -150 150q-64 0 -128.5 -47t-178.5 -176q53 -4 57 -4q126 0 241 22.5t159 54.5z" />
    <glyph glyph-name="uniFD29" unicode="&#xfeb8;&#xfeae;" horiz-adv-x="1802" arabic-form="final" 
d="M1483 934l-115 -115l-115 115l115 115zM1589 721l-114 -115l-107 105l-106 -105l-113 115l113 115l106 -107l107 107zM1827 23q0 -23 -23 -23h-39q-84 0 -112 86l-4 12l-9 -20q-34 -86 -118 -86q-121 0 -230 84q-40 -50 -77 -66q-32 -14 -99 -14q-118 0 -163.5 29
t-49.5 106l-2 41q-11 -3 -78 -22q-28 -9 -47.5 -13.5t-54.5 -11.5q-12 -2 -43 -8q4 -66 4 -64q0 -227 -97 -390t-231 -163q-110 0 -256 70q-98 47 -98 63q0 9 10 9q16 -2 17 -2q8 -2 36.5 -6.5t57.5 -4.5q132 0 255 113.5t189 296.5l-18 55l-64 -14l66 248q20 2 104 18
q41 8 131 29q56 13 121 33q22 8 78 28q-2 -6 -2 -16q-1 -5 -6 -31q-8 -49 -8 -70q0 -81 166 -81q107 0 145 20q26 18 45 57q6 7 35 74q31 72 51 72q14 0 14 -21q0 -15 -8 -34l-8 -33l-12 -35q-5 -16 -19 -53q93 -49 183 -49q48 0 59 8q8 8 29 73l10 33q23 74 45 74
q16 0 16 -27q0 -14 -2 -20q-8 -38 -8 -58q0 -75 90 -75h12q17 0 17 -23v-198z" />
    <glyph glyph-name="uniFD2A" unicode="&#xfeb4;&#xfeae;" horiz-adv-x="1802" arabic-form="final" 
d="M1827 23q0 -23 -23 -23h-39q-84 0 -112 86l-4 12l-9 -20q-34 -86 -118 -86q-121 0 -230 84q-40 -50 -77 -66q-32 -14 -99 -14q-118 0 -163.5 29t-49.5 106l-2 41q-11 -3 -78 -22q-28 -9 -47.5 -13.5t-54.5 -11.5q-12 -2 -43 -8q4 -66 4 -64q0 -227 -97 -390t-231 -163
q-110 0 -256 70q-98 47 -98 63q0 9 10 9q16 -2 17 -2q8 -2 36.5 -6.5t57.5 -4.5q132 0 255 113.5t189 296.5l-18 55l-64 -14l66 248q20 2 104 18q41 8 131 29q56 13 121 33q22 8 78 28q-2 -6 -2 -16q-1 -5 -6 -31q-8 -49 -8 -70q0 -81 166 -81q107 0 145 20q26 18 45 57
q6 7 35 74q31 72 51 72q14 0 14 -21q0 -15 -8 -34l-8 -33l-12 -35q-5 -16 -19 -53q93 -49 183 -49q48 0 59 8q8 8 29 73l10 33q23 74 45 74q16 0 16 -27q0 -14 -2 -20q-8 -38 -8 -58q0 -75 90 -75h12q17 0 17 -23v-198z" />
    <glyph glyph-name="uniFD2B" unicode="&#xfebc;&#xfeae;" horiz-adv-x="1927" arabic-form="final" 
d="M1952 23q0 -23 -19 -23h-807q-119 0 -174 20q-51 20 -63 72q-4 16 -6 78q-33 -11 -125 -35l-60 -12l-32 -6q2 -27 2 -51q0 -249 -89 -407.5t-229 -158.5q-96 0 -200 41q-67 26 -105 47q-45 25 -45 33q0 10 8 10q3 -1 23 -6q35 -8 65 -8q136 0 240 88q83 70 137 162
q23 38 51 102q15 34 25 70l-21 55l-55 -10l55 246q11 0 14.5 1t35.5 5q11 1 98 18q33 6 102 21q35 8 90 22q24 7 72 23l23 8l12 2q-19 -55 -19 -98q0 -88 166 -88h19q60 56 151 162q105 120 160 176q104 104 201 104q81 0 141.5 -63.5t60.5 -149.5q0 -94 -77 -229h155
q16 0 19 -23v-198zM1716 319q-45 150 -151 150q-63 0 -127.5 -47t-177.5 -176q53 -4 57 -4q125 0 240.5 22.5t158.5 54.5z" />
    <glyph glyph-name="uniFD2C" unicode="&#xfec0;&#xfeae;" horiz-adv-x="1927" arabic-form="final" 
d="M1579 905l-125 -127l-127 127l127 125zM1952 23q0 -23 -19 -23h-807q-119 0 -174 20q-51 20 -63 72q-4 16 -6 78q-33 -11 -125 -35l-60 -12l-32 -6q2 -27 2 -51q0 -249 -89 -407.5t-229 -158.5q-96 0 -200 41q-67 26 -105 47q-45 25 -45 33q0 10 8 10q3 -1 23 -6
q35 -8 65 -8q136 0 240 88q83 70 137 162q23 38 51 102q15 34 25 70l-21 55l-55 -10l55 246q11 0 14.5 1t35.5 5q11 1 98 18q33 6 102 21q35 8 90 22q24 7 72 23l23 8l12 2q-19 -55 -19 -98q0 -88 166 -88h19q60 56 151 162q105 120 160 176q104 104 201 104
q81 0 141.5 -63.5t60.5 -149.5q0 -94 -77 -229h155q16 0 19 -23v-198zM1716 319q-45 150 -151 150q-63 0 -127.5 -47t-177.5 -176q53 -4 57 -4q125 0 240.5 22.5t158.5 54.5z" />
    <glyph glyph-name="uniFEF5" unicode="&#xfedf;&#xfe82;" horiz-adv-x="979" arabic-form="isolated" 
d="M456 1579q0 -4 -2 -8q-20 -74 -86.5 -118t-159.5 -44q-62 0 -104 23q-9 6 -16 6q-25 0 -64 -64q-15 -24 -20 -26v3q0 7 6 23l8 23q49 135 119 135q11 0 33 -6q57 -16 94 -16q130 0 186 65q3 4 6 4zM913 1116q0 -16 -4 -26q-4 -17 -14 -50q-18 -45 -57 -100v-47l-9 -168
q-4 -72 -28 -158q-20 -71 -80 -172q51 -159 51 -311q0 -74 -23 -93t-133 -26q-92 -6 -153 -6q-69 0 -129 4q-56 4 -71.5 16t-16.5 52l-2 51v131q0 16 4 18q6 -1 14 -6q38 -24 123 -24q156 98 219 196q-26 46 -63 101q-14 19 -42 59q-11 14 -42 55l-43 60q-26 36 -43 57
q-11 16 -39 51q-25 30 -64 74q-2 -32 -6 -63q-3 1 -10 8q-24 23 -160 174q-10 11 -10 24v9l6 268q0 17 4 18q5 0 21 -12q10 -11 37 -37q20 -19 34 -35l97 -104l51 -64l55 -65q16 -20 49 -64q40 -53 99 -145q56 -89 135 -229v116l-4 170l-4 84l-3 72q0 15 -2 54l-2 42
q-41 49 -41 103q0 89 60 174l14 20q4 8 8 12q1 0 4 -10l2 -14q12 -79 50 -125.5t137 -104.5zM690 205q0 6 -4 18l-8 35l-10 31l-6 20q-47 -59 -162 -116l-25 -13h62l24 2h66q16 2 32 2q31 0 31 21z" />
    <glyph glyph-name="uniFEF6" unicode="&#xfee0;&#xfe82;" arabic-form="final" 
d="M1059 23q0 -23 -17 -23h-12q-155 0 -217 45q-45 33 -61 88q-7 23 -15 109q-2 23 -2 30q0 2 -1 9t-1 12q-35 -87 -57 -133q-36 -73 -86 -115q-91 -76 -314 -76h-131q-2 0 -9 -1t-11 -1q-27 0 -27 8q6 5 17 9q0 1 20 8l33 12q21 8 115 53q53 26 119 67t114 83q28 25 68 69
q-7 19 -19 48q-22 50 -67 145q-78 148 -150 254l-51 76l-25 39q-3 -25 -6 -33q-2 -17 -6 -33q-3 1 -10 8q-3 4 -10 15q-48 50 -150 178l-8 10v23l12 268q0 4 2 14q11 0 101 -100q9 -11 61 -70q19 -21 123 -155q23 -30 57 -82q63 -96 113 -201t67 -191q12 -53 19 -149
q34 42 57 84q37 68 37 178q0 86 -8 232q-5 93 -16 180q-4 25 -13 96l152 285q6 9 10 10q4 -3 6 -16l8 -54q6 -36 17 -174q8 -105 8 -137l1 -47q1 -50 1 -100v-142l-2 -209q0 -192 27 -229q37 -53 106 -53h14q17 0 17 -23v-198zM463 1565q-20 -74 -87.5 -119t-159.5 -45
q-59 0 -103 24q-10 6 -16 7q-26 0 -64 -66q-16 -23 -20 -25v1q0 5 6 26l8 21q55 137 117 137q14 0 33 -6q49 -17 96 -17q126 0 186 64q2 4 4 6v-8z" />
    <glyph glyph-name="uniFEF7" unicode="&#xfedf;&#xfe84;" horiz-adv-x="979" arabic-form="isolated" 
d="M284 1505v-1q0 -3 -6 -13l-45 -70q-18 -4 -53 -12q-29 -7 -105 -33l-30 -12q-5 -1 -13 -4t-12 -4l-8 -4q-1 0 -2 2q0 2 2 10q6 12 20 37q16 22 41 41l-16 6q-41 20 -41 45q0 65 63 127q45 43 99 43q69 0 69 -29q0 -6 -4 -12l-35 -59q-1 -3 -4 -7q-2 3 -6 5q-18 18 -57 18
q-70 0 -70 -39q0 -19 39 -35q35 -14 76 -14q49 0 86 12q6 2 12 2zM913 1116q0 -16 -4 -26q-4 -17 -14 -50q-18 -45 -57 -100v-47l-9 -168q-4 -72 -28 -158q-20 -71 -80 -172q51 -159 51 -311q0 -74 -23 -93t-133 -26q-92 -6 -153 -6q-69 0 -129 4q-56 4 -71.5 16t-16.5 52
l-2 51v131q0 16 4 18q6 -1 14 -6q38 -24 123 -24q156 98 219 196q-26 46 -63 101q-14 19 -42 59q-11 14 -42 55l-43 60q-26 36 -43 57q-11 16 -39 51q-25 30 -64 74q-2 -32 -6 -63q-3 1 -10 8q-24 23 -160 174q-10 11 -10 24v9l6 268q0 17 4 18q5 0 21 -12q10 -11 37 -37
q20 -19 34 -35l97 -104l51 -64l55 -65q16 -20 49 -64q40 -53 99 -145q56 -89 135 -229v116l-4 170l-4 84l-3 72q0 15 -2 54l-2 42q-41 49 -41 103q0 89 60 174l14 20q4 8 8 12q1 0 4 -10l2 -14q12 -79 50 -125.5t137 -104.5zM690 205q0 6 -4 18l-8 35l-10 31l-6 20
q-47 -59 -162 -116l-25 -13h62l24 2h66q16 2 32 2q31 0 31 21z" />
    <glyph glyph-name="uniFEF8" unicode="&#xfee0;&#xfe84;" arabic-form="final" 
d="M1059 23q0 -23 -17 -23h-12q-155 0 -217 45q-45 33 -61 88q-7 23 -15 109q-2 23 -2 30q0 2 -1 9t-1 12q-35 -87 -57 -133q-36 -73 -86 -115q-91 -76 -314 -76h-131q-2 0 -9 -1t-11 -1q-27 0 -27 8q6 5 17 9q0 1 20 8l33 12q21 8 115 53q53 26 119 67t114 83q28 25 68 69
q-7 19 -19 48q-22 50 -67 145q-78 148 -150 254l-51 76l-25 39q-3 -25 -6 -33q-2 -17 -6 -33q-3 1 -10 8q-3 4 -10 15q-48 50 -150 178l-8 10v23l12 268q0 4 2 14q11 0 101 -100q9 -11 61 -70q19 -21 123 -155q23 -30 57 -82q63 -96 113 -201t67 -191q12 -53 19 -149
q34 42 57 84q37 68 37 178q0 86 -8 232q-5 93 -16 180q-4 25 -13 96l152 285q6 9 10 10q4 -3 6 -16l8 -54q6 -36 17 -174q8 -105 8 -137l1 -47q1 -50 1 -100v-142l-2 -209q0 -192 27 -229q37 -53 106 -53h14q17 0 17 -23v-198zM280 1485v-1q0 -4 -6 -16l-43 -67
q-29 -6 -53 -12q-9 -3 -107 -35l-31 -11q-14 -4 -22 -10q-4 -2 -10 -2q-1 0 -2 2l4 8q8 24 20 37q11 20 39 41l-14 8q-41 24 -41 46q0 65 61 126q43 43 99 43q71 0 71 -28q0 -5 -4 -12l-35 -60q-3 -6 -6 -6q-1 0 -4 4q-23 16 -59 16q-70 0 -70 -36q0 -21 41 -37
q37 -15 74 -15q43 0 86 13q5 2 12 4z" />
    <glyph glyph-name="uniFEF9" unicode="&#xfedf;&#xfe88;" horiz-adv-x="979" arabic-form="isolated" 
d="M913 1116q0 -16 -4 -26q-4 -17 -14 -50q-18 -45 -57 -100v-47l-9 -168q-4 -72 -28 -158q-20 -71 -80 -172q51 -159 51 -311q0 -74 -23 -93t-133 -26q-92 -6 -153 -6q-69 0 -129 4q-56 4 -71.5 16t-16.5 52l-2 51v131q0 16 4 18q6 -1 14 -6q38 -24 123 -24q156 98 219 196
q-26 46 -63 101q-14 19 -42 59q-11 14 -42 55l-43 60q-26 36 -43 57q-11 16 -39 51q-25 30 -64 74q-2 -32 -6 -63q-3 1 -10 8q-24 23 -160 174q-10 11 -10 24v9l6 268q0 17 4 18q5 0 21 -12q10 -11 37 -37q20 -19 34 -35l97 -104l51 -64l55 -65q16 -20 49 -64
q40 -53 99 -145q56 -89 135 -229v116l-4 170l-4 84l-3 72q0 15 -2 54l-2 42q-41 49 -41 103q0 89 60 174l14 20q4 8 8 12q1 0 4 -10l2 -14q12 -79 50 -125.5t137 -104.5zM446 -315q-2 -6 -8 -15l-43 -69q-19 -5 -53 -13q-29 -6 -106 -32l-31 -13q-12 -3 -23 -8q-4 -2 -10 -4
v2q0 3 2 10q5 16 20.5 37.5t41.5 40.5l-17 6q-41 21 -41 47q0 66 62 125q44 43 100 43q70 0 70 -28l-4 -13l-35 -59q-1 -2 -4 -6q-3 0 -7 4q-18 18 -59 18q-70 0 -70 -39q0 -18 41 -34q35 -15 76 -15q50 0 84 13q6 2 14 2zM690 205q0 6 -4 18l-8 35l-10 31l-6 20
q-47 -59 -162 -116l-25 -13h62l24 2h66q16 2 32 2q31 0 31 21z" />
    <glyph glyph-name="uniFEFA" unicode="&#xfee0;&#xfe88;" arabic-form="final" 
d="M1059 23q0 -23 -17 -23h-12q-155 0 -217 45q-45 33 -61 88q-7 23 -15 109q-2 23 -2 30q0 2 -1 9t-1 12q-35 -87 -57 -133q-36 -73 -86 -115q-91 -76 -314 -76h-131q-2 0 -9 -1t-11 -1q-27 0 -27 8q6 5 17 9q0 1 20 8l33 12q21 8 115 53q53 26 119 67t114 83q28 25 68 69
q-7 19 -19 48q-22 50 -67 145q-78 148 -150 254l-51 76l-25 39q-3 -25 -6 -33q-2 -17 -6 -33q-3 1 -10 8q-3 4 -10 15q-48 50 -150 178l-8 10v23l12 268q0 4 2 14q11 0 101 -100q9 -11 61 -70q19 -21 123 -155q23 -30 57 -82q63 -96 113 -201t67 -191q12 -53 19 -149
q34 42 57 84q37 68 37 178q0 86 -8 232q-5 93 -16 180q-4 25 -13 96l152 285q6 9 10 10q4 -3 6 -16l8 -54q6 -36 17 -174q8 -105 8 -137l1 -47q1 -50 1 -100v-142l-2 -209q0 -192 27 -229q37 -53 106 -53h14q17 0 17 -23v-198zM356 -303q-2 -10 -6 -16l-45 -68
q-18 -4 -53 -12q-28 -10 -105 -35l-32 -10q-7 -3 -23 -11q-4 -2 -8 -2q-1 0 -2 2q0 5 2 9q3 12 19.5 35t41.5 42l-16 9q-41 20 -41 45q0 67 62 125q45 43 100 43q69 0 69 -29l-4 -12l-34 -58q-1 -2 -5 -6l-19 11q-18 10 -44 10q-72 0 -72 -37q0 -19 41 -37q32 -14 76 -14
q38 0 84 12q6 2 14 4z" />
    <glyph glyph-name="uniFEFB" unicode="&#xfedf;&#xfe8e;" horiz-adv-x="979" arabic-form="isolated" 
d="M913 1131q0 -16 -4 -26q-4 -17 -14 -50q-18 -45 -61 -100v-47l-7 -179q-3 -76 -26 -162q-20 -71 -80 -172q51 -159 51 -311q0 -74 -23 -93t-133 -26q-92 -6 -153 -6q-69 0 -129 4q-56 4 -71.5 16t-16.5 52l-2 51v131q0 16 4 18q6 -1 14 -6q38 -24 123 -24q156 98 219 196
q-26 46 -63 101q-14 19 -42 59q-11 14 -42 55l-43 60q-26 36 -43 57q-11 16 -39 51q-25 30 -64 74q-2 -32 -6 -63q-3 1 -10 8q-24 23 -160 174q-10 11 -10 24v9l6 268q0 17 4 18q5 0 21 -12q10 -11 37 -37q20 -19 34 -35l97 -104l51 -64l55 -65q16 -20 49 -64
q40 -53 99 -145q56 -89 135 -229v116l-4 170l-3 99l-4 72q0 15 -1 54l-3 38q-41 49 -41 103q0 93 60 178l14 20q4 8 8 12q1 0 4 -10l2 -14q12 -79 50 -125.5t137 -104.5zM690 205q0 6 -4 18l-8 35l-10 31l-6 20q-47 -59 -162 -116l-25 -13h62l24 2h66q16 2 32 2q31 0 31 21z
" />
    <glyph glyph-name="uniFEFC" unicode="&#xfee0;&#xfe8e;" arabic-form="final" 
d="M1059 23q0 -23 -17 -23h-12q-155 0 -217 45q-45 33 -61 88q-7 23 -15 109q-2 23 -2 30q0 2 -1 9t-1 12q-35 -87 -57 -133q-36 -73 -86 -115q-91 -76 -314 -76h-131q-2 0 -9 -1t-11 -1q-27 0 -27 8q6 5 17 9q0 1 20 8l33 12q21 8 115 53q53 26 119 67t114 83q28 25 68 69
q-7 19 -19 48q-22 50 -67 145q-78 148 -150 254l-51 76l-25 39q-3 -25 -6 -33q-2 -17 -6 -33q-3 1 -10 8q-3 4 -10 15q-48 50 -150 178l-8 10v23l12 268q0 4 2 14q11 0 101 -100q9 -11 61 -70q19 -21 123 -155q23 -30 57 -82q63 -96 113 -201t67 -191q12 -53 19 -149
q34 42 57 84q37 68 37 178q0 86 -8 232q-5 93 -16 180q-4 25 -13 96l152 285q6 9 10 10q4 -3 6 -16l8 -54q6 -36 17 -174q8 -105 8 -137l1 -47q1 -50 1 -100v-142l-2 -209q0 -192 27 -229q37 -53 106 -53h14q17 0 17 -23v-198z" />
    <glyph glyph-name="uniFE8B_uniFEE4.liga" unicode="&#xfe8b;&#xfee4;" horiz-adv-x="1319" 
d="M516 131q-34 71 -39 152q-1 24 -20 24q-47 0 -101 -49q-32 -30 -32 -39q0 -15 96 -57q39 -17 96 -31zM1231 881v-1q0 -5 -8 -18l-56 -88l-20 -4l-37 -8q-49 -11 -76 -21q-27 -7 -50.5 -15t-43.5 -17q-8 -2 -10 -2q-2 2 -2 5t2 7q10 28 20 41q7 11 17 21t24 20l-16 8
q-45 22 -45 49q0 68 67 135q52 51 113 51q78 0 78 -30q0 -5 -6 -15l-37 -63l-4 -6q-4 0 -6 2q-23 18 -54 18q-18 0 -37 -4.5t-32 -15.5q-14 -6 -15 -12q0 -16 45 -37q38 -19 78 -19q55 0 96 15q5 2 9 2.5t6 1.5zM725 0q-79 0 -162 57l-10 -26q-52 -135 -68 -135q-9 2 -8 2
l-20 6q-11 3 -34 11t-48 17q-15 6 -51 25q-95 49 -95 127q0 14 2 31q-28 -63 -81 -92q-42 -23 -144 -23h-12q-64 0 -64 122t64 122h39q70 0 110 14q54 19 129 123q11 15 29 41q29 38 59 61q48 37 95 37q44 0 53 -45l10 -53q21 -106 62.5 -142t144.5 -36h397q-23 75 -84 151
l97 201q2 5 8 16q4 -3 12 -14l18 -31q80 -134 80 -272t-61 -232q-42 -63 -191 -63h-276z" />
    <glyph glyph-name="uniFE8B_uniFEF0.liga" unicode="&#xfe8b;&#xfef0;" horiz-adv-x="1208" 
d="M1104 101q0 -48 -14 -114q-41 -189 -121 -279q-83 -93 -242 -151t-330 -58q-331 0 -331 330q0 142 53 295q21 60 57 121q23 39 31 39q4 -2 4 -9q0 -8 -1.5 -11.5t-6.5 -14.5l-8 -27q-45 -146 -45 -209q0 -278 315 -278q137 0 294 62.5t240 150.5q-44 60 -100 90
q-83 45 -225 78l112 229q66 25 93 37q33 15 75 47q-9 22 -12.5 31.5t-19.5 40.5l-23 39l-22 36l-17 29l72 215q3 10 6 10q6 -2 14 -14l29 -43l29 -45q77 -122 77 -276q0 -118 -116 -209q79 -31 106 -59.5t27 -82.5zM1011 1071q1 -4 -8 -19l-56 -88l-20 -4l-37 -8
q-47 -11 -76 -21q-54 -14 -94 -32q-6 -2 -10 -2q-4 3 0 12q11 29 20 41q14 22 41 41l-16 8q-45 22 -45 49q0 68 67 135q52 51 113 51q78 0 78 -30q0 -4 -6 -15l-37 -63q-1 -2 -4 -6q-4 0 -6 2q-22 18 -54 18q-18 0 -37 -4.5t-32 -15.5q-13 -6 -15 -12q0 -16 45 -37
q39 -19 78 -19q56 0 96 15q11 3 15 4z" />
    <glyph glyph-name="uniFE8B_uniFEF2.liga" unicode="&#xfe8b;&#xfef2;" horiz-adv-x="1208" 
d="M1104 101q0 -48 -14 -114q-41 -189 -121 -279q-83 -93 -242 -151t-330 -58q-331 0 -331 330q0 142 53 295q21 60 57 121q23 39 31 39q4 -2 4 -9q0 -8 -1.5 -11.5t-6.5 -14.5l-8 -27q-45 -146 -45 -209q0 -278 315 -278q137 0 294 62.5t240 150.5q-44 60 -100 90
q-83 45 -225 78l112 229q66 25 93 37q33 15 75 47q-9 22 -12.5 31.5t-19.5 40.5l-23 39l-22 36l-17 29l72 215q3 10 6 10q6 -2 14 -14l29 -43l29 -45q77 -122 77 -276q0 -118 -116 -209q79 -31 106 -59.5t27 -82.5zM715 -736l-127 -125l-115 112l-115 -112l-127 125l127 127
l115 -115l115 115zM1011 1071q1 -4 -8 -19l-56 -88l-20 -4l-37 -8q-47 -11 -76 -21q-54 -14 -94 -32q-6 -2 -10 -2q-4 3 0 12q11 29 20 41q14 22 41 41l-16 8q-45 22 -45 49q0 68 67 135q52 51 113 51q78 0 78 -30q0 -4 -6 -15l-37 -63q-1 -2 -4 -6q-4 0 -6 2q-22 18 -54 18
q-18 0 -37 -4.5t-32 -15.5q-13 -6 -15 -12q0 -16 45 -37q39 -19 78 -19q56 0 96 15q11 3 15 4z" />
    <glyph glyph-name="uniFE91_uniFEE4.liga" unicode="&#xfe91;&#xfee4;" horiz-adv-x="1262" 
d="M516 131q-34 71 -39 152q-1 24 -20 24q-47 0 -101 -49q-32 -30 -32 -39q0 -15 96 -57q39 -17 96 -31zM725 0q-79 0 -162 57l-10 -26q-52 -135 -68 -135q-9 2 -8 2l-20 6q-11 3 -34 11t-48 17q-15 6 -51 25q-95 49 -95 127q0 14 2 31q-28 -63 -81 -92q-42 -23 -144 -23
h-12q-64 0 -64 122t64 122h39q70 0 110 14q54 19 129 123q11 15 29 41q29 38 59 61q48 37 95 37q44 0 53 -45l10 -53q21 -106 62.5 -142t144.5 -36h340q-27 76 -86 151l96 201q6 10 10 16q3 -1 13 -14l16 -31q82 -153 82 -272q0 -138 -61 -232q-42 -63 -193 -63h-217z
M1075 -291l-125 -127l-127 127l127 125z" />
    <glyph glyph-name="uniFE92_uniFEE6.liga" unicode="&#xfe92;&#xfee6;" horiz-adv-x="1485" 
d="M600 708l-125 -125l-127 125l127 127zM1509 23q0 -23 -16 -23h-115q-114 0 -155 41q-40 41 -58 182q-11 -60 -49 -87t-117 -31q-17 0 -30 4q0 -24 -1 -47.5t-3 -45.5q-13 -145 -82 -232q-66 -81 -202 -132q-135 -52 -286 -52q-329 0 -329 330q0 141 53 295q21 60 57 120
q22 39 31 39q4 -1 4 -8q0 -8 -2 -13t-6 -13l-8 -27q-45 -147 -45 -203q0 -272 274 -272q124 0 247 46q124 45 183 111q2 45 -8.5 86t-28.5 82t-40.5 84.5t-43.5 92.5l109 225q0 4 2 6q2 0 7 -13.5t16 -39.5q14 -32 28 -62t29.5 -54t34 -40t40.5 -20q7 -1 15 -1.5t16 -0.5
q78 0 128 27l-8 88v20q2 7 6 17l100 252q2 6 6 8l4 -8l2 -17q0 5 0.5 -2.5t1.5 -27.5q1 -5 1 -15.5t1 -25.5l7 -74l6 -94l6 -72q11 -118 41 -150q32 -32 142 -32h19q16 0 16 -23v-198zM1318 -260l-125 -127l-127 127l127 125z" />
    <glyph glyph-name="uniFE91_uniFEF0.liga" unicode="&#xfe91;&#xfef0;" horiz-adv-x="1208" 
d="M1104 101q0 -48 -14 -114q-41 -189 -121 -279q-83 -93 -242 -151t-330 -58q-331 0 -331 330q0 142 53 295q21 60 57 121q23 39 31 39q4 -2 4 -9q0 -8 -1.5 -11.5t-6.5 -14.5l-8 -27q-45 -146 -45 -209q0 -278 315 -278q137 0 294 62.5t240 150.5q-44 60 -100 90
q-83 45 -225 78l112 229q66 25 93 37q33 15 75 47q-9 22 -12.5 31.5t-19.5 40.5l-23 39l-22 36l-17 29l72 215q3 10 6 10q6 -2 14 -14l29 -43l29 -45q77 -122 77 -276q0 -118 -116 -209q79 -31 106 -59.5t27 -82.5zM1038 -650l-125 -127l-127 127l127 125z" />
    <glyph glyph-name="uniFE91_uniFEF2.liga" unicode="&#xfe91;&#xfef2;" horiz-adv-x="1208" 
d="M1104 101q0 -48 -14 -114q-41 -189 -121 -279q-83 -93 -242 -151t-330 -58q-331 0 -331 330q0 142 53 295q21 60 57 121q23 39 31 39q4 -2 4 -9q0 -8 -1.5 -11.5t-6.5 -14.5l-8 -27q-45 -146 -45 -209q0 -278 315 -278q137 0 294 62.5t240 150.5q-44 60 -100 90
q-83 45 -225 78l112 229q66 25 93 37q33 15 75 47q-9 22 -12.5 31.5t-19.5 40.5l-23 39l-22 36l-17 29l72 215q3 10 6 10q6 -2 14 -14l29 -43l29 -45q77 -122 77 -276q0 -118 -116 -209q79 -31 106 -59.5t27 -82.5zM685 -736l-127 -125l-115 112l-115 -112l-127 125l127 127
l115 -115l115 115zM1108 -620l-125 -127l-127 127l127 125z" />
    <glyph glyph-name="uniFE97_uniFEE4.liga" unicode="&#xfe97;&#xfee4;" horiz-adv-x="1319" 
d="M516 131q-34 71 -39 152q-1 24 -20 24q-47 0 -101 -49q-32 -30 -32 -39q0 -15 96 -57q39 -17 96 -31zM1233 801l-115 -115l-106 105l-107 -105l-112 115l112 114l107 -106l106 106zM725 0q-79 0 -162 57l-10 -26q-52 -135 -68 -135q-9 2 -8 2l-20 6q-11 3 -34 11t-48 17
q-15 6 -51 25q-95 49 -95 127q0 14 2 31q-28 -63 -81 -92q-42 -23 -144 -23h-12q-64 0 -64 122t64 122h39q70 0 110 14q54 19 129 123q11 15 29 41q29 38 59 61q48 37 95 37q44 0 53 -45l10 -53q21 -106 62.5 -142t144.5 -36h397q-22 74 -84 151l97 201q2 5 8 16
q5 -3 12 -14l18 -31q80 -133 80 -272q0 -138 -61 -232q-42 -63 -191 -63h-276z" />
    <glyph glyph-name="uniFE98_uniFEE6.liga" unicode="&#xfe98;&#xfee6;" horiz-adv-x="1485" 
d="M600 708l-125 -125l-127 125l127 127zM1509 23q0 -23 -16 -23h-115q-114 0 -155 41q-40 41 -58 182q-11 -60 -49 -87t-117 -31q-17 0 -30 4q0 -24 -1 -47.5t-3 -45.5q-13 -145 -82 -232q-66 -81 -202 -132q-135 -52 -286 -52q-329 0 -329 330q0 141 53 295q21 60 57 120
q22 39 31 39q4 -1 4 -8q0 -8 -2 -13t-6 -13l-8 -27q-45 -147 -45 -203q0 -272 274 -272q124 0 247 46q124 45 183 111q2 45 -8.5 86t-28.5 82t-40.5 84.5t-43.5 92.5l109 225q0 4 2 6q2 0 7 -13.5t16 -39.5q14 -32 28 -62t29.5 -54t34 -40t40.5 -20q7 -1 15 -1.5t16 -0.5
q78 0 128 27l-8 88v20q2 7 6 17l100 252q2 6 6 8l4 -8l2 -17q0 5 0.5 -2.5t1.5 -27.5q1 -5 1 -15.5t1 -25.5l7 -74l6 -94l6 -72q11 -118 41 -150q32 -32 142 -32h19q16 0 16 -23v-198zM1346 965l-125 -125l-117 115l-115 -115l-125 125l125 127l115 -115l117 115z" />
    <glyph glyph-name="uniFE97_uniFEF0.liga" unicode="&#xfe97;&#xfef0;" horiz-adv-x="1208" 
d="M1104 101q0 -48 -14 -114q-41 -189 -121 -279q-83 -93 -242 -151t-330 -58q-331 0 -331 330q0 142 53 295q21 60 57 121q23 39 31 39q4 -2 4 -9q0 -8 -1.5 -11.5t-6.5 -14.5l-8 -27q-45 -146 -45 -209q0 -278 315 -278q137 0 294 62.5t240 150.5q-44 60 -100 90
q-83 45 -225 78l112 229q66 25 93 37q33 15 75 47q-9 22 -12.5 31.5t-19.5 40.5l-23 39l-22 36l-17 29l72 215q3 10 6 10q6 -2 14 -14l29 -43l29 -45q77 -122 77 -276q0 -118 -116 -209q79 -31 106 -59.5t27 -82.5zM1056 1055l-125 -125l-117 115l-115 -115l-125 125
l125 127l115 -115l117 115z" />
    <glyph glyph-name="uniFE97_uniFEF2.liga" unicode="&#xfe97;&#xfef2;" horiz-adv-x="1208" 
d="M1104 101q0 -48 -14 -114q-41 -189 -121 -279q-83 -93 -242 -151t-330 -58q-331 0 -331 330q0 142 53 295q21 60 57 121q23 39 31 39q4 -2 4 -9q0 -8 -1.5 -11.5t-6.5 -14.5l-8 -27q-45 -146 -45 -209q0 -278 315 -278q137 0 294 62.5t240 150.5q-44 60 -100 90
q-83 45 -225 78l112 229q66 25 93 37q33 15 75 47q-9 22 -12.5 31.5t-19.5 40.5l-23 39l-22 36l-17 29l72 215q3 10 6 10q6 -2 14 -14l29 -43l29 -45q77 -122 77 -276q0 -118 -116 -209q79 -31 106 -59.5t27 -82.5zM715 -736l-127 -125l-115 112l-115 -112l-127 125l127 127
l115 -115l115 115zM1056 1055l-125 -125l-117 115l-115 -115l-125 125l125 127l115 -115l117 115z" />
    <glyph glyph-name="uniFE9C_uniFEAE.liga" unicode="&#xfe9c;&#xfeae;" horiz-adv-x="1169" 
d="M1194 23q0 -23 -16 -23h-115q-115 0 -155 41.5t-58 181.5q-12 -64 -53.5 -90.5t-132.5 -28.5q-8 -219 -95.5 -359t-216.5 -140q-93 0 -202 41q-71 26 -105 45q-45 25 -45 35q0 8 8 8t23 -4q28 -9 65 -9q134 0 240 89q86 71 137 159q23 40 51 103q15 33 25 69
q-31 49 -51 78l-31 43l-31 39l-16 25l65 252q3 11 7 12q2 0 32 -51q8 -16 27 -43l27 -45q34 -59 53 -76q30 -25 84 -25q77 0 127 27l-8 88v20q1 6 6 17l100 252q3 7 6 8l4 -8l2 -17q0 11 2 -30q1 -11 2 -41l7 -74l6 -94l6 -72q10 -117 42 -149.5t142 -32.5h19q16 0 16 -23
v-198zM936 1174l-114 -115l-115 115l115 114zM1043 961l-115 -115l-106 105l-107 -105l-112 115l112 114l107 -106l106 106z" />
    <glyph glyph-name="uniFE9B_uniFEE4.liga" unicode="&#xfe9b;&#xfee4;" horiz-adv-x="1319" 
d="M516 131q-34 71 -39 152q-1 24 -20 24q-47 0 -101 -49q-32 -30 -32 -39q0 -15 96 -57q39 -17 96 -31zM1126 1014l-114 -115l-115 115l115 114zM725 0q-79 0 -162 57l-10 -26q-52 -135 -68 -135q-9 2 -8 2l-20 6q-11 3 -34 11t-48 17q-15 6 -51 25q-95 49 -95 127
q0 14 2 31q-28 -63 -81 -92q-42 -23 -144 -23h-12q-64 0 -64 122t64 122h39q70 0 110 14q54 19 129 123q11 15 29 41q29 38 59 61q48 37 95 37q44 0 53 -45l10 -53q21 -106 62.5 -142t144.5 -36h397q-22 74 -84 151l97 201q2 5 8 16q5 -3 12 -14l18 -31q80 -133 80 -272
q0 -138 -61 -232q-42 -63 -191 -63h-276zM1233 801l-115 -115l-106 105l-107 -105l-112 115l112 114l107 -106l106 106z" />
    <glyph glyph-name="uniFE9C_uniFEE6.liga" unicode="&#xfe9c;&#xfee6;" horiz-adv-x="1485" 
d="M600 708l-125 -125l-127 125l127 127zM1509 23q0 -23 -16 -23h-115q-114 0 -155 41q-40 41 -58 182q-11 -60 -49 -87t-117 -31q-17 0 -30 4q0 -24 -1 -47.5t-3 -45.5q-13 -145 -82 -232q-66 -81 -202 -132q-135 -52 -286 -52q-329 0 -329 330q0 141 53 295q21 60 57 120
q22 39 31 39q4 -1 4 -8q0 -8 -2 -13t-6 -13l-8 -27q-45 -147 -45 -203q0 -272 274 -272q124 0 247 46q124 45 183 111q2 45 -8.5 86t-28.5 82t-40.5 84.5t-43.5 92.5l109 225q0 4 2 6q2 0 7 -13.5t16 -39.5q14 -32 28 -62t29.5 -54t34 -40t40.5 -20q7 -1 15 -1.5t16 -0.5
q78 0 128 27l-8 88v20q2 7 6 17l100 252q2 6 6 8l4 -8l2 -17q0 5 0.5 -2.5t1.5 -27.5q1 -5 1 -15.5t1 -25.5l7 -74l6 -94l6 -72q11 -118 41 -150q32 -32 142 -32h19q16 0 16 -23v-198zM1236 1174l-114 -115l-115 115l115 114zM1343 961l-115 -115l-106 105l-107 -105
l-112 115l112 114l107 -106l106 106z" />
    <glyph glyph-name="uniFE9B_uniFEF0.liga" unicode="&#xfe9b;&#xfef0;" horiz-adv-x="1208" 
d="M1104 101q0 -48 -14 -114q-41 -189 -121 -279q-83 -93 -242 -151t-330 -58q-331 0 -331 330q0 142 53 295q21 60 57 121q23 39 31 39q4 -2 4 -9q0 -8 -1.5 -11.5t-6.5 -14.5l-8 -27q-45 -146 -45 -209q0 -278 315 -278q137 0 294 62.5t240 150.5q-44 60 -100 90
q-83 45 -225 78l112 229q66 25 93 37q33 15 75 47q-9 22 -12.5 31.5t-19.5 40.5l-23 39l-22 36l-17 29l72 215q3 10 6 10q6 -2 14 -14l29 -43l29 -45q77 -122 77 -276q0 -118 -116 -209q79 -31 106 -59.5t27 -82.5zM936 1244l-114 -115l-115 115l115 114zM1043 1031
l-115 -115l-106 105l-107 -105l-112 115l112 114l107 -106l106 106z" />
    <glyph glyph-name="uniFE9B_uniFEF2.liga" unicode="&#xfe9b;&#xfef2;" horiz-adv-x="1208" 
d="M1104 101q0 -48 -14 -114q-41 -189 -121 -279q-83 -93 -242 -151t-330 -58q-331 0 -331 330q0 142 53 295q21 60 57 121q23 39 31 39q4 -2 4 -9q0 -8 -1.5 -11.5t-6.5 -14.5l-8 -27q-45 -146 -45 -209q0 -278 315 -278q137 0 294 62.5t240 150.5q-44 60 -100 90
q-83 45 -225 78l112 229q66 25 93 37q33 15 75 47q-9 22 -12.5 31.5t-19.5 40.5l-23 39l-22 36l-17 29l72 215q3 10 6 10q6 -2 14 -14l29 -43l29 -45q77 -122 77 -276q0 -118 -116 -209q79 -31 106 -59.5t27 -82.5zM715 -736l-127 -125l-115 112l-115 -112l-127 125l127 127
l115 -115l115 115zM936 1244l-114 -115l-115 115l115 114zM1043 1031l-115 -115l-106 105l-107 -105l-112 115l112 114l107 -106l106 106z" />
    <glyph glyph-name="uniFEDB_uniFEF0.liga" unicode="&#xfedb;&#xfef0;" horiz-adv-x="1729" 
d="M1067 0q2 -3 10 -16q8 -6 8 -19q0 -2 -4 -43q-3 -18 -10 -51q-27 -144 -104 -221q-83 -83 -247.5 -140t-322.5 -57q-331 0 -331 332q0 142 53 293q24 69 64 134q16 26 24 26q4 -2 4 -9q0 -3 -2 -10.5t-6 -15.5l-8 -25q-45 -135 -45 -211q0 -132 82 -206t229 -74
q132 0 283 50.5t233 121.5q-90 99 -246 135l-45 10l-29 8l103 232h619q-15 59 -45 114q-23 42 -74 103q-30 36 -106 106l-21 -22l-8 -10q-45 33 -109 67q-32 18 -32 45q0 12 4 43l8 62q3 17 10 61q3 21 8 55q9 46 27 131q22 22 66 58q51 42 127 92q58 39 151 94
q121 72 213 113l55 24q33 15 41 15h2q0 -3 -6 -17l-100 -243q-11 -6 -29 -15q-9 -5 -47 -24q-110 -58 -190 -107q-86 -52 -125 -80q-24 -16 -53 -41l65 -65q145 -146 182 -207q82 -137 82 -268q0 -97 -43 -222q-10 -28 -30 -77q-14 -28 -64 -29h-271z" />
    <glyph glyph-name="uniFEDC_uniFEF0.liga" unicode="&#xfedc;&#xfef0;" horiz-adv-x="1807" 
d="M1067 0q2 -3 10 -16q8 -6 8 -19q0 -2 -4 -43q-3 -18 -10 -51q-27 -144 -104 -221q-83 -83 -247.5 -140t-322.5 -57q-331 0 -331 332q0 142 53 293q24 69 64 134q16 26 24 26q4 -2 4 -9q0 -3 -2 -10.5t-6 -15.5l-8 -25q-45 -135 -45 -211q0 -132 82 -206t229 -74
q132 0 283 50.5t233 121.5q-90 99 -246 135l-45 10l-29 8l103 232h609q-32 94 -76 157q-38 55 -88 105q-17 18 -123 117q-17 15 -66 57q-35 31 -35 65q0 25 5 41l6 48q3 28 26 133q20 17 68 55q13 11 49 39q28 22 102 76l62 41q81 53 149 94q99 58 189 98l41 19q13 6 22 6
q1 -3 -6 -21l-100 -254q-10 -5 -27 -14q-12 -7 -51 -29l-61 -35l-140 -88l-166 -116q66 -55 115 -101q95 -89 154 -178l92 -141q11 -17 39 -58q47 -68 98 -94q45 -22 154 -22h12q18 0 18 -23v-198q0 -23 -18 -23h-43q-85 0 -131 16q-71 25 -127 105l-35 49l-27 39l-14 18
q0 -5 -1 -12.5t-1.5 -10t-5.5 -28.5l-6 -33l-6 -28l-7 -33q-10 -40 -14 -51q-11 -31 -59 -31h-269z" />
    <glyph glyph-name="uniFEDB_uniFEF2.liga" unicode="&#xfedb;&#xfef2;" horiz-adv-x="1729" 
d="M715 -780l-127 -127l-115 114l-115 -114l-127 127l127 125l115 -115l115 115zM1067 0q2 -3 10 -16q8 -6 8 -19q0 -2 -4 -43q-3 -18 -10 -51q-27 -144 -104 -221q-83 -83 -247.5 -140t-322.5 -57q-331 0 -331 332q0 142 53 293q24 69 64 134q16 26 24 26q4 -2 4 -9
q0 -3 -2 -10.5t-6 -15.5l-8 -25q-45 -135 -45 -211q0 -132 82 -206t229 -74q132 0 283 50.5t233 121.5q-90 99 -246 135l-45 10l-29 8l103 232h619q-15 59 -45 114q-23 42 -74 103q-30 36 -106 106l-21 -22l-8 -10q-45 33 -109 67q-32 18 -32 45q0 12 4 43l8 62q3 17 10 61
q3 21 8 55q9 46 27 131q22 22 66 58q51 42 127 92q58 39 151 94q121 72 213 113l55 24q33 15 41 15h2q0 -3 -6 -17l-100 -243q-11 -6 -29 -15q-9 -5 -47 -24q-110 -58 -190 -107q-86 -52 -125 -80q-24 -16 -53 -41l65 -65q145 -146 182 -207q82 -137 82 -268q0 -97 -43 -222
q-10 -28 -30 -77q-14 -28 -64 -29h-271z" />
    <glyph glyph-name="uniFEDC_uniFEF2.liga" unicode="&#xfedc;&#xfef2;" horiz-adv-x="1807" 
d="M715 -780l-127 -127l-115 114l-115 -114l-127 127l127 125l115 -115l115 115zM1067 0q2 -3 10 -16q8 -6 8 -19q0 -2 -4 -43q-3 -18 -10 -51q-27 -144 -104 -221q-83 -83 -247.5 -140t-322.5 -57q-331 0 -331 332q0 142 53 293q24 69 64 134q16 26 24 26q4 -2 4 -9
q0 -3 -2 -10.5t-6 -15.5l-8 -25q-45 -135 -45 -211q0 -132 82 -206t229 -74q132 0 283 50.5t233 121.5q-90 99 -246 135l-45 10l-29 8l103 232h609q-32 94 -76 157q-38 55 -88 105q-17 18 -123 117q-17 15 -66 57q-35 31 -35 65q0 25 5 41l6 48q3 28 26 133q20 17 68 55
q13 11 49 39q28 22 102 76l62 41q81 53 149 94q99 58 189 98l41 19q13 6 22 6q1 -3 -6 -21l-100 -254q-10 -5 -27 -14q-12 -7 -51 -29l-61 -35l-140 -88l-166 -116q66 -55 115 -101q95 -89 154 -178l92 -141q11 -17 39 -58q47 -68 98 -94q45 -22 154 -22h12q18 0 18 -23
v-198q0 -23 -18 -23h-43q-85 0 -131 16q-71 25 -127 105l-35 49l-27 39l-14 18q0 -5 -1 -12.5t-1.5 -10t-5.5 -28.5l-6 -33l-6 -28l-7 -33q-10 -40 -14 -51q-11 -31 -59 -31h-269z" />
    <glyph glyph-name="uniFEDF_uniFB51.rlig" unicode="&#xfedf;&#xfb51;" horiz-adv-x="979" 
d="M913 1131q0 -16 -4 -26q-4 -17 -14 -50q-18 -45 -61 -100v-47l-7 -179q-3 -76 -26 -162q-20 -71 -80 -172q51 -159 51 -311q0 -74 -23 -93t-133 -26q-92 -6 -153 -6q-69 0 -129 4q-56 4 -71.5 16t-16.5 52l-2 51v131q0 16 4 18q6 -1 14 -6q38 -24 123 -24q156 98 219 196
q-26 46 -63 101q-14 19 -42 59q-11 14 -42 55l-43 60q-26 36 -43 57q-11 16 -39 51q-25 30 -64 74q-2 -32 -6 -63q-3 1 -10 8q-24 23 -160 174q-10 11 -10 24v9l6 268q0 17 4 18q5 0 21 -12q10 -11 37 -37q20 -19 34 -35l97 -104l51 -64l55 -65q16 -20 49 -64
q40 -53 99 -145q56 -89 135 -229v116l-4 170l-3 99l-4 72q0 15 -1 54l-3 38q-41 49 -41 103q0 93 60 178l14 20q4 8 8 12q1 0 4 -10l2 -14q12 -79 50 -125.5t137 -104.5zM364 1566q0 -51 -43 -112q-55 -78 -139 -78q-36 0 -70 22q-15 13 -22 13q-16 0 -46 -35
q-17 -21 -22 -21q-2 1 -2 4q0 4 4 11l6 18l8 16l11 21q34 69 77 69q20 0 43 -20q5 9 15 25q66 135 125 135q55 0 55 -68zM690 205q0 6 -4 18l-8 35l-10 31l-6 20q-47 -59 -162 -116l-25 -13h62l24 2h66q16 2 32 2q31 0 31 21zM315 1519q0 27 -35 27q-45 0 -90 -78h6
q6 -2 14 -2q40 0 72.5 16.5t32.5 36.5z" />
    <glyph glyph-name="uniFEE0_uniFB51.rlig" unicode="&#xfee0;&#xfb51;" 
d="M1059 23q0 -23 -17 -23h-12q-155 0 -217 45q-45 33 -61 88q-7 23 -15 109q-2 23 -2 30q0 2 -1 9t-1 12q-35 -87 -57 -133q-36 -73 -86 -115q-91 -76 -314 -76h-131q-2 0 -9 -1t-11 -1q-27 0 -27 8q6 5 17 9q0 1 20 8l33 12q21 8 115 53q53 26 119 67t114 83q28 25 68 69
q-7 19 -19 48q-22 50 -67 145q-78 148 -150 254l-51 76l-25 39q-3 -25 -6 -33q-2 -17 -6 -33q-3 1 -10 8q-3 4 -10 15q-48 50 -150 178l-8 10v23l12 268q0 4 2 14q11 0 101 -100q9 -11 61 -70q19 -21 123 -155q23 -30 57 -82q63 -96 113 -201t67 -191q12 -53 19 -149
q34 42 57 84q37 68 37 178q0 86 -8 232q-5 93 -16 180q-4 25 -13 96l152 285q6 9 10 10q4 -3 6 -16l8 -54q6 -36 17 -174q8 -105 8 -137l1 -47q1 -50 1 -100v-142l-2 -209q0 -192 27 -229q37 -53 106 -53h14q17 0 17 -23v-198zM374 1566q0 -51 -43 -112q-55 -78 -139 -78
q-36 0 -70 22q-15 13 -22 13q-16 0 -46 -35q-17 -21 -22 -21q-2 1 -2 4q0 4 4 11l6 18l8 16l11 21q34 69 77 69q20 0 43 -20q5 9 15 25q66 135 125 135q55 0 55 -68zM325 1519q0 27 -35 27q-45 0 -90 -78h6q6 -2 14 -2q40 0 72.5 16.5t32.5 36.5z" />
    <glyph glyph-name="uniFEDF_uniFEE2.liga" unicode="&#xfedf;&#xfee2;" horiz-adv-x="1253" 
d="M532 166l-4 16q-10 43 -12 72l-2 39q-2 37 -20 37q-65 0 -150 -97l14 -4l31 -8q28 -7 66 -22q9 -4 34 -15q14 -6 43 -18zM782 0l-39 2q-105 6 -153 68q-3 -10 -10 -39q-24 -94 -33 -94q-2 0 -29 14q-132 72 -246 72q-69 0 -69 -86q0 -30 2 -72l8 -168l2 -92l4 -92v-23
q0 -119 -24 -184q-20 -52 -54 -103q-11 -14 -32 -43q-7 -5 -15 -10q-1 0 -2 2v14q0 1 2 50l2 53v16q0 92 -10 297l-4 82l-12 182q-4 56 -4 121q0 135 45 199q50 72 151 88q28 114 94 194t133 80q51 0 58 -65l4 -39q11 -103 52 -141.5t140 -38.5h163q25 0 25 49v22l-22 801
q-21 62 -21 94q0 69 70 185l6 10l4 4q1 -1 4 -25q13 -106 107 -184q29 -24 92 -63l16 -11q-23 -100 -92 -163v-68l8 -553q0 -48 -8 -94q-11 -62 -45 -129q-59 -115 -94 -119h-174z" />
    <glyph glyph-name="uniFEE4_uniFE8E.liga" unicode="&#xfee4;&#xfe8e;" horiz-adv-x="1226" 
d="M986 131q-34 71 -39 152q-1 24 -20 24q-47 0 -101 -49q-32 -30 -32 -39q0 -15 96 -57q39 -17 96 -31zM422 0q-120 0 -181 39q-45 30 -63 100q-14 54 -16 181l-2 104v100l-3 111q0 49 -4 164q-1 33 -6 80q0 7 -8 80q-5 43 -8 61q0 10 -8 45q0 4 -4 33l153 284q3 7 8 13
q2 -6 2 -13l4 -18l7 -37q13 -78 18 -151q10 -139 10 -338v-41l-2 -121l4 -234q2 -99 18 -136q27 -62 111 -62h51q70 0 110 14q54 19 129 123q11 15 29 41q29 38 59 61q48 37 95 37q44 0 53 -45l10 -53q21 -106 62.5 -142t144.5 -36h37q18 0 18 -23v-198q0 -23 -26 -23h-29
q-79 0 -162 57l-10 -26q-52 -135 -68 -135q-9 2 -8 2l-20 6q-11 3 -34 11t-48 17q-15 6 -51 25q-95 49 -95 127q0 14 2 31q-28 -63 -81 -92q-42 -23 -144 -23h-54z" />
    <glyph glyph-name="uniFEE4_uniFE82.liga" unicode="&#xfee4;&#xfe82;" horiz-adv-x="1226" 
d="M462 1659l-1 -8q-21 -79 -94 -123q-67 -40 -153 -40q-58 0 -103 24q-11 6 -19 6q-21 0 -66 -70q-12 -19 -17 -20l7 26l8 22q50 137 118 137q12 0 33 -7q52 -17 96 -17q129 0 185 65zM986 131q-34 71 -39 152q-1 24 -20 24q-47 0 -101 -49q-32 -30 -32 -39q0 -15 96 -57
q39 -17 96 -31zM453 0q-162 0 -220 45q-41 32 -57 116q-14 73 -16 264l-2 211q-2 253 -35 429q-2 10 -5 32l162 298l3 -13q1 -4 4 -19l5 -35q30 -213 30 -448v-43l-2 -161l2 -233q1 -94 20 -136q30 -63 111 -63h50q70 0 110 14q54 19 129 123q11 15 29 41q29 38 59 61
q48 37 95 37q44 0 53 -45l10 -53q21 -106 62.5 -142t144.5 -36h37q18 0 18 -23v-198q0 -23 -26 -23h-29q-79 0 -162 57l-10 -26q-52 -135 -68 -135q-9 2 -8 2l-20 6q-11 3 -34 11t-48 17q-15 6 -51 25q-95 49 -95 127q0 14 2 31q-28 -63 -81 -92q-42 -23 -144 -23h-23z" />
    <glyph glyph-name="uniFEE4_uniFE84.liga" unicode="&#xfee4;&#xfe84;" horiz-adv-x="1226" 
d="M336 1581q-3 -5 -9 -14l-43 -70q-28 -6 -53 -12q-33 -8 -106 -33l-31 -10q-8 -3 -23 -10q-8 -4 -10 -4v2q0 3 2 10q5 15 22 38.5t38 39.5l-15 8q-41 16 -41 45q0 66 62 125q44 43 100 43q70 0 70 -29l-4 -12l-35 -59q-2 -2 -4 -6q-3 0 -6 4q-19 18 -60 18q-69 0 -69 -39
q0 -16 41 -35q31 -14 75 -14q50 0 84 12q6 2 15 2zM986 131q-34 71 -39 152q-1 24 -20 24q-47 0 -101 -49q-32 -30 -32 -39q0 -15 96 -57q39 -17 96 -31zM422 0q-120 0 -181 39q-45 30 -63 100q-14 54 -16 181l-2 104v100l-3 111q0 49 -4 164q-1 33 -6 80q0 7 -8 80
q-5 43 -8 61q0 10 -8 45q0 4 -4 33l153 284q3 7 8 13q2 -6 2 -13l4 -18l7 -37q13 -78 18 -151q10 -139 10 -338v-41l-2 -121l4 -234q2 -99 18 -136q27 -62 111 -62h51q70 0 110 14q54 19 129 123q11 15 29 41q29 38 59 61q48 37 95 37q44 0 53 -45l10 -53q21 -106 62.5 -142
t144.5 -36h37q18 0 18 -23v-198q0 -23 -26 -23h-29q-79 0 -162 57l-10 -26q-52 -135 -68 -135q-9 2 -8 2l-20 6q-11 3 -34 11t-48 17q-15 6 -51 25q-95 49 -95 127q0 14 2 31q-28 -63 -81 -92q-42 -23 -144 -23h-54z" />
    <glyph glyph-name="uniFEE4_uniFE88.liga" unicode="&#xfee4;&#xfe88;" horiz-adv-x="1226" 
d="M336 -221l-9 -17l-43 -67q-28 -6 -53 -12q-29 -7 -106 -33l-31 -12q-8 -4 -23 -9q-8 -4 -10 -4v2q0 5 2 8q4 16 21 37q21 28 39 43l-15 6q-41 19 -41 46q0 67 62 127q44 43 100 43q70 0 70 -29q-1 -7 -4 -12l-35 -60q-1 -2 -4 -6q-3 1 -6 4q-20 16 -60 16q-69 0 -69 -36
q0 -20 41 -37q35 -15 75 -15q41 0 84 13q6 2 15 4zM986 131q-34 71 -39 152q-1 24 -20 24q-47 0 -101 -49q-32 -30 -32 -39q0 -15 96 -57q39 -17 96 -31zM422 0q-120 0 -181 39q-45 30 -63 100q-14 54 -16 181l-2 104v100l-3 111q0 49 -4 164q-1 33 -6 80q0 7 -8 80
q-5 43 -8 61q0 10 -8 45q0 4 -4 33l153 284q3 7 8 13q2 -6 2 -13l4 -18l7 -37q13 -78 18 -151q10 -139 10 -338v-41l-2 -121l4 -234q2 -99 18 -136q27 -62 111 -62h51q70 0 110 14q54 19 129 123q11 15 29 41q29 38 59 61q48 37 95 37q44 0 53 -45l10 -53q21 -106 62.5 -142
t144.5 -36h37q18 0 18 -23v-198q0 -23 -26 -23h-29q-79 0 -162 57l-10 -26q-52 -135 -68 -135q-9 2 -8 2l-20 6q-11 3 -34 11t-48 17q-15 6 -51 25q-95 49 -95 127q0 14 2 31q-28 -63 -81 -92q-42 -23 -144 -23h-54z" />
    <glyph glyph-name="uniFEE8_uniFEAE.liga" unicode="&#xfee8;&#xfeae;" horiz-adv-x="1169" 
d="M1194 23q0 -23 -16 -23h-115q-115 0 -155 41.5t-58 181.5q-12 -64 -53.5 -90.5t-132.5 -28.5q-8 -219 -95.5 -359t-216.5 -140q-93 0 -202 41q-71 26 -105 45q-45 25 -45 35q0 8 8 8t23 -4q28 -9 65 -9q134 0 240 89q86 71 137 159q23 40 51 103q15 33 25 69
q-31 49 -51 78l-31 43l-31 39l-16 25l65 252q3 11 7 12q2 0 32 -51q8 -16 27 -43l27 -45q34 -59 53 -76q30 -25 84 -25q77 0 127 27l-8 88v20q1 6 6 17l100 252q3 7 6 8l4 -8l2 -17q0 11 2 -30q1 -11 2 -41l7 -74l6 -94l6 -72q10 -117 42 -149.5t142 -32.5h19q16 0 16 -23
v-198zM980 976l-125 -127l-127 127l127 125z" />
    <glyph glyph-name="uniFEE7_uniFEE4.liga" unicode="&#xfee7;&#xfee4;" horiz-adv-x="1262" 
d="M516 131q-34 71 -39 152q-1 24 -20 24q-47 0 -101 -49q-32 -30 -32 -39q0 -15 96 -57q39 -17 96 -31zM725 0q-79 0 -162 57l-10 -26q-52 -135 -68 -135q-9 2 -8 2l-20 6q-11 3 -34 11t-48 17q-15 6 -51 25q-95 49 -95 127q0 14 2 31q-28 -63 -81 -92q-42 -23 -144 -23
h-12q-64 0 -64 122t64 122h39q70 0 110 14q54 19 129 123q11 15 29 41q29 38 59 61q48 37 95 37q44 0 53 -45l10 -53q21 -106 62.5 -142t144.5 -36h340q-27 76 -86 151l96 201q6 10 10 16q3 -1 13 -14l16 -31q82 -153 82 -272q0 -138 -61 -232q-42 -63 -193 -63h-217z
M1106 879l-127 -127l-125 127l125 125z" />
    <glyph glyph-name="uniFEE7_uniFEF0.liga" unicode="&#xfee7;&#xfef0;" horiz-adv-x="1208" 
d="M940 1066l-125 -127l-127 127l127 125zM1104 101q0 -48 -14 -114q-41 -189 -121 -279q-83 -93 -242 -151t-330 -58q-331 0 -331 330q0 142 53 295q21 60 57 121q23 39 31 39q4 -2 4 -9q0 -8 -1.5 -11.5t-6.5 -14.5l-8 -27q-45 -146 -45 -209q0 -278 315 -278
q137 0 294 62.5t240 150.5q-44 60 -100 90q-83 45 -225 78l112 229q66 25 93 37q33 15 75 47q-9 22 -12.5 31.5t-19.5 40.5l-23 39l-22 36l-17 29l72 215q3 10 6 10q6 -2 14 -14l29 -43l29 -45q77 -122 77 -276q0 -118 -116 -209q79 -31 106 -59.5t27 -82.5z" />
    <glyph glyph-name="uniFEE7_uniFEF2.liga" unicode="&#xfee7;&#xfef2;" horiz-adv-x="1208" 
d="M940 1066l-125 -127l-127 127l127 125zM1104 101q0 -48 -14 -114q-41 -189 -121 -279q-83 -93 -242 -151t-330 -58q-331 0 -331 330q0 142 53 295q21 60 57 121q23 39 31 39q4 -2 4 -9q0 -8 -1.5 -11.5t-6.5 -14.5l-8 -27q-45 -146 -45 -209q0 -278 315 -278
q137 0 294 62.5t240 150.5q-44 60 -100 90q-83 45 -225 78l112 229q66 25 93 37q33 15 75 47q-9 22 -12.5 31.5t-19.5 40.5l-23 39l-22 36l-17 29l72 215q3 10 6 10q6 -2 14 -14l29 -43l29 -45q77 -122 77 -276q0 -118 -116 -209q79 -31 106 -59.5t27 -82.5zM715 -736
l-127 -125l-115 112l-115 -112l-127 125l127 127l115 -115l115 115z" />
    <glyph glyph-name="uniFEF4_uniFEAE.liga" unicode="&#xfef4;&#xfeae;" horiz-adv-x="1199" 
d="M1224 23q0 -23 -16 -23h-135q-115 0 -155 41.5t-58 181.5q-12 -64 -58.5 -90.5t-137.5 -28.5q-8 -219 -95.5 -359t-216.5 -140q-93 0 -202 41q-71 26 -105 45q-45 25 -45 35q0 8 8 8t23 -4q28 -9 65 -9q134 0 240 89q86 71 137 159q23 40 51 103q15 33 25 69
q-31 49 -51 78l-31 43l-31 39l-16 25l65 252q3 11 7 12q2 0 32 -51q8 -16 27 -43l27 -45q34 -59 53 -76q30 -25 84 -25q87 0 137 27l-8 88v20q1 6 6 17l100 252q3 7 6 8l4 -8l2 -17q0 11 2 -30q1 -11 2 -41l7 -74l6 -94l6 -72q10 -117 42 -149.5t142 -32.5h39q16 0 16 -23
v-198zM1159 -260l-127 -127l-117 115l-112 -115l-127 127l127 125l112 -113l117 113z" />
    <glyph glyph-name="uniFEF3_uniFEE4.liga" unicode="&#xfef3;&#xfee4;" horiz-adv-x="1335" 
d="M516 131q-34 71 -39 152q-1 24 -20 24q-47 0 -101 -49q-32 -30 -32 -39q0 -15 96 -57q39 -17 96 -31zM725 0q-79 0 -162 57l-10 -26q-52 -135 -68 -135q-9 2 -8 2l-20 6q-11 3 -34 11t-48 17q-15 6 -51 25q-95 49 -95 127q0 14 2 31q-28 -63 -81 -92q-42 -23 -144 -23
h-12q-64 0 -64 122t64 122h39q70 0 110 14q54 19 129 123q11 15 29 41q29 38 59 61q48 37 95 37q44 0 53 -45l10 -53q21 -106 62.5 -142t144.5 -36h397q-22 74 -84 151l97 201q2 5 8 16q5 -3 12 -14l18 -31q80 -133 80 -272q0 -138 -61 -232q-42 -63 -191 -63h-276z
M1269 -291l-127 -127l-117 115l-113 -115l-127 127l127 125l113 -113l117 113z" />
    <glyph glyph-name="uniFEF4_uniFEE6.liga" unicode="&#xfef4;&#xfee6;" horiz-adv-x="1495" 
d="M600 708l-125 -125l-127 125l127 127zM1519 23q0 -23 -16 -23h-115q-114 0 -155 41q-40 41 -58 182q-11 -60 -54 -86.5t-122 -31.5q-17 0 -30 4q0 -24 -1 -47.5t-3 -45.5q-13 -145 -82 -232q-66 -81 -202 -132q-135 -52 -286 -52q-329 0 -329 330q0 141 53 295
q21 60 57 120q22 39 31 39q4 -1 4 -8q0 -8 -2 -13t-6 -13l-8 -27q-45 -147 -45 -203q0 -272 274 -272q124 0 247 46q124 45 183 111q2 45 -8.5 86t-28.5 82t-40.5 84.5t-43.5 92.5l109 225q0 4 2 6q2 0 7 -13.5t16 -39.5q14 -32 28 -62t29.5 -54t34 -40t40.5 -20
q7 -1 15 -1.5t16 -0.5q38 0 75.5 6.5t62.5 20.5l-8 88v20q2 7 6 17l100 252q2 6 6 8l4 -8l2 -17q0 5 0.5 -2.5t1.5 -27.5q1 -5 1 -15.5t1 -25.5l7 -74l6 -94l6 -72q11 -118 41 -150q32 -32 142 -32h19q16 0 16 -23v-198zM1450 -270l-127 -127l-117 115l-112 -115l-127 127
l127 125l112 -113l117 113z" />
    <glyph glyph-name="T_h.liga" unicode="Th" horiz-adv-x="1884" 
d="M1005 1044q-55 10 -138 10q-37 0 -58.5 -1.5t-31 -13t-11 -33.5t-1.5 -61v-635q0 -86 2.5 -135.5t13.5 -75t35 -32.5t66 -7q36 0 45 -6.5t9 -35.5q0 -21 -21 -21q-69 0 -136 1.5t-136 1.5q-70 0 -137 -1.5t-136 -1.5q-20 0 -20 21q0 29 8.5 35.5t44.5 6.5q43 0 66.5 7
t34.5 32.5t13.5 75t2.5 135.5v635q0 39 -1.5 61t-13 33.5t-33 13t-64.5 1.5q-74 0 -126 -12t-92 -35.5t-71.5 -59.5t-64.5 -86q-9 -12 -15.5 -16.5t-20.5 -4.5q-13 0 -21 3.5t-8 16.5q0 9 11.5 47t26 81t26.5 82t13.5 51.5t7.5 22.5t24 10q7 0 15.5 -6t20 -13.5t30.5 -12.5
t48 -5h759q119 23 159.5 33t72 20.5t52 17.5t24.5 7q3 0 9.5 -4t6.5 -11q0 -29 -2.5 -51.5t-5 -55t-4.5 -82.5l-2 -378q67 47 134 77.5t139 30.5q87 0 144 -55t57 -149v-400q0 -22 6 -35t14 -18.5t15 -7t11 -1.5q43 -3 62 -7t19 -13q0 -23 -4 -30t-25 -7q-48 0 -97.5 2
t-101.5 2q-50 0 -97.5 -2t-83.5 -2q-11 0 -12.5 7t-1.5 30q0 9 9.5 13t40.5 7q3 0 10.5 1.5t15 7t13.5 18.5t6 35v349q0 19 -5 43.5t-20 47.5t-41 38t-66 15q-14 0 -33.5 -5t-40 -13t-38 -19t-26.5 -22q-3 -13 -3 -31v-403q0 -22 6 -35t14 -18.5t15 -7t10 -1.5
q45 -3 55.5 -7t10.5 -13q0 -23 -1.5 -30t-12.5 -7q-47 0 -96.5 2t-101.5 2q-51 0 -100.5 -2t-96.5 -2q-11 0 -12.5 7t-1.5 30q0 9 11 13t55 7q3 0 10 1.5t15 7t14.5 18.5t6.5 35v837q0 38 -17.5 60t-58.5 30z" />
    <glyph glyph-name="f_b.liga" unicode="fb" horiz-adv-x="1414" 
d="M827 248q0 -105 35.5 -158.5t115.5 -53.5q23 0 51 10.5t51.5 43t39 89.5t15.5 152q0 47 -3.5 104.5t-20.5 107t-50 83.5t-91 34q-65 0 -104 -43.5t-39 -104.5v-264zM627 601h-279v-484q0 -22 6.5 -35t14 -18.5t15 -7t10.5 -1.5q44 -3 55 -7t11 -13q0 -23 -1.5 -30
t-12.5 -7q-48 0 -97.5 2t-100.5 2t-100.5 -2t-96.5 -2q-12 0 -13.5 7t-1.5 30q0 9 11 13t55 7q3 0 10.5 1.5t15 7t14 18.5t6.5 35v370q0 67 -3 90.5t-23 23.5h-75q-22 0 -27 8.5t-5 33.5q0 6 14.5 10.5t34.5 9.5t40.5 12t30.5 21q8 10 18 91q14 122 63.5 198t112.5 119
t125.5 58.5t99.5 15.5t76 -12q22 -7 40 -17q3 0 6 1q40 10 71.5 20.5t52 17.5t25.5 7q3 0 9.5 -4t6.5 -11q0 -29 -2.5 -51.5t-5 -55t-4.5 -82.5t-2 -137v-194q41 36 88 53.5t88 17.5q168 0 266.5 -94.5t98.5 -265.5q0 -93 -24 -157t-61.5 -108t-83 -69.5t-88 -38t-78 -16
t-51.5 -3.5q-51 0 -92.5 10.5t-73.5 22.5t-56.5 22t-44.5 10q-10 0 -21 -8t-20 -17.5t-17.5 -17t-9.5 -7.5q-3 0 -15 3t-12 8q0 6 1 19.5t2.5 30.5t2.5 36t1 34v476zM627 685v269q0 28 -2 49q-12 -9 -24 -9q-34 0 -57 15t-41 33t-34.5 33t-37.5 15q-43 0 -63 -58t-20 -147
v-200h279z" />
    <glyph glyph-name="f_f_b.liga" unicode="ffb" horiz-adv-x="1894" 
d="M1307 248q0 -105 35.5 -158.5t115.5 -53.5q23 0 51 10.5t51.5 43t39 89.5t15.5 152q0 47 -3.5 104.5t-20.5 107t-50 83.5t-91 34q-65 0 -104 -43.5t-39 -104.5v-264zM1107 685v269q0 28 -2 49q-12 -9 -24 -9q-34 0 -57 15t-41 33t-34.5 33t-37.5 15q-43 0 -63 -58
t-20 -147v-200h279zM348 601v-484q0 -22 6.5 -35t14 -18.5t15 -7t10.5 -1.5q61 -3 77 -7t16 -13q0 -23 -6.5 -30t-34.5 -7q-48 0 -97.5 2t-100.5 2t-100.5 -2t-96.5 -2q-12 0 -13.5 7t-1.5 30q0 9 11 13t55 7q3 0 10.5 1.5t15 7t14 18.5t6.5 35v370q0 67 -3 90.5t-23 23.5
h-75q-22 0 -27 8.5t-5 33.5q0 6 14.5 10.5t34.5 9.5t40.5 12t30.5 21q8 10 18 91q14 122 63.5 198t112.5 119t125.5 58.5t99.5 15.5q21 0 46 -4.5t46.5 -15.5t35.5 -29.5t14 -44.5q0 -43 -26.5 -66.5t-68.5 -23.5q-34 0 -57 15t-41 33t-34.5 33t-37.5 15q-43 0 -63 -58
t-20 -147v-200q41 -1 76 -1q115 0 125 0.5t42 11t42 91.5q14 122 63.5 198t112.5 119t125.5 58.5t99.5 15.5t76 -12q22 -7 40 -17q3 0 6 1q40 10 71.5 20.5t52 17.5t25.5 7q3 0 9.5 -4t6.5 -11q0 -29 -2.5 -51.5t-5 -55t-4.5 -82.5t-2 -137v-194q41 36 88 53.5t88 17.5
q168 0 266.5 -94.5t98.5 -265.5q0 -93 -24 -157t-61.5 -108t-83 -69.5t-88 -38t-78 -16t-51.5 -3.5q-51 0 -92.5 10.5t-73.5 22.5t-56.5 22t-44.5 10q-10 0 -21 -8t-20 -17.5t-17.5 -17t-9.5 -7.5q-3 0 -15 3t-12 8q0 6 1 19.5t2.5 30.5t2.5 36t1 34v476h-279v-484
q0 -22 6.5 -35t14 -18.5t15 -7t10.5 -1.5q44 -3 55 -7t11 -13q0 -23 -1.5 -30t-12.5 -7q-48 0 -97.5 2t-100.5 2t-100.5 -2t-96.5 -2q-12 0 -13.5 7t-1.5 30q0 9 11 13t55 7q3 0 10.5 1.5t15 7t14 18.5t6.5 35v370q0 67 -3 90.5t-23 23.5h-254z" />
    <glyph glyph-name="f_f.liga" unicode="ff" horiz-adv-x="1004" 
d="M348 685q41 -1 76 -1q137 0 165 10q34 12 44 93q14 122 63.5 198t112.5 119t125.5 58.5t99.5 15.5q21 0 46 -4.5t46.5 -15.5t35.5 -29.5t14 -44.5q0 -43 -26.5 -66.5t-68.5 -23.5q-34 0 -57 15t-41 33t-34.5 33t-37.5 15q-43 0 -63 -58t-20 -147v-200h199q4 0 7.5 -9.5
t3.5 -36.5q0 -28 -4 -33t-22 -5h-184v-484q0 -22 6.5 -35t14 -18.5t15 -7t10.5 -1.5q61 -3 77 -7t16 -13q0 -23 -6.5 -30t-34.5 -7q-48 0 -97.5 2t-100.5 2t-100.5 -2t-96.5 -2q-12 0 -13.5 7t-1.5 30q0 9 11 13t55 7q3 0 10.5 1.5t15 7t14 18.5t6.5 35v370q0 67 -3 90.5
t-23 23.5h-254v-484q0 -22 6.5 -35t14 -18.5t15 -7t10.5 -1.5q61 -3 77 -7t16 -13q0 -23 -6.5 -30t-34.5 -7q-48 0 -97.5 2t-100.5 2t-100.5 -2t-96.5 -2q-12 0 -13.5 7t-1.5 30q0 9 11 13t55 7q3 0 10.5 1.5t15 7t14 18.5t6.5 35v370q0 67 -3 90.5t-23 23.5h-75
q-22 0 -27 8.5t-5 33.5q0 6 14.5 10.5t34.5 9.5t40.5 12t30.5 21q8 10 18 91q14 122 63.5 198t112.5 119t125.5 58.5t99.5 15.5q21 0 46 -4.5t46.5 -15.5t35.5 -29.5t14 -44.5q0 -43 -26.5 -66.5t-68.5 -23.5q-34 0 -57 15t-41 33t-34.5 33t-37.5 15q-43 0 -63 -58t-20 -147
v-200z" />
    <glyph glyph-name="f_h.liga" unicode="fh" horiz-adv-x="1434" 
d="M348 685h280v320q-14 -11 -27 -11q-34 0 -57 15t-41 33t-34.5 33t-37.5 15q-43 0 -63 -58t-20 -147v-200zM628 91v510h-280v-484q0 -22 6.5 -35t14 -18.5t15 -7t10.5 -1.5q44 -3 55 -7t11 -13q0 -23 -1.5 -30t-12.5 -7q-48 0 -97.5 2t-100.5 2t-100.5 -2t-96.5 -2
q-12 0 -13.5 7t-1.5 30q0 9 11 13t55 7q3 0 10.5 1.5t15 7t14 18.5t6.5 35v370q0 67 -3 90.5t-23 23.5h-75q-22 0 -27 8.5t-5 33.5q0 6 14.5 10.5t34.5 9.5t40.5 12t30.5 21q8 10 18 91q14 122 63.5 198t112.5 119t125.5 58.5t99.5 15.5t76 -12q23 -7 41 -18l10 2
q40 10 71.5 20.5t52 17.5t24.5 7q3 0 9.5 -4t6.5 -11q0 -29 -2.5 -51.5t-5 -55t-4.5 -82.5t-2 -137v-241q67 47 134 77.5t139 30.5q87 0 144 -55t57 -149v-400q0 -22 6 -35t14 -18.5t15 -7t11 -1.5q43 -3 62 -7t19 -13q0 -23 -4 -30t-25 -7q-48 0 -97.5 2t-101.5 2
q-50 0 -97.5 -2t-83.5 -2q-11 0 -12.5 7t-1.5 30q0 9 9.5 13t40.5 7q3 0 10.5 1.5t15 7t13.5 18.5t6 35v349q0 19 -5 43.5t-20 47.5t-41 38t-66 15q-14 0 -33.5 -5t-40 -13t-38 -19t-26.5 -22q-3 -13 -3 -31v-403q0 -22 6 -35t14 -18.5t15 -7t10 -1.5q45 -3 55.5 -7
t10.5 -13q0 -23 -1.5 -30t-12.5 -7q-47 0 -96.5 2t-101.5 2q-51 0 -100.5 -2t-96.5 -2q-11 0 -12.5 7t-1.5 30q0 9 11 13t55 7q3 0 10 1.5t15 7t15 18.5q2 4 3 9z" />
    <glyph glyph-name="f_f_h.liga" unicode="ffh" horiz-adv-x="1914" 
d="M828 685h280v320q-14 -11 -27 -11q-34 0 -57 15t-41 33t-34.5 33t-37.5 15q-43 0 -63 -58t-20 -147v-200zM348 601v-484q0 -22 6.5 -35t14 -18.5t15 -7t10.5 -1.5q61 -3 77 -7t16 -13q0 -23 -6.5 -30t-34.5 -7q-48 0 -97.5 2t-100.5 2t-100.5 -2t-96.5 -2q-12 0 -13.5 7
t-1.5 30q0 9 11 13t55 7q3 0 10.5 1.5t15 7t14 18.5t6.5 35v370q0 67 -3 90.5t-23 23.5h-75q-22 0 -27 8.5t-5 33.5q0 6 14.5 10.5t34.5 9.5t40.5 12t30.5 21q8 10 18 91q14 122 63.5 198t112.5 119t125.5 58.5t99.5 15.5q21 0 46 -4.5t46.5 -15.5t35.5 -29.5t14 -44.5
q0 -43 -26.5 -66.5t-68.5 -23.5q-34 0 -57 15t-41 33t-34.5 33t-37.5 15q-43 0 -63 -58t-20 -147v-200q41 -1 76 -1q121 0 141 0.5t39 11t29 91.5q14 122 63.5 198t112.5 119t125.5 58.5t99.5 15.5t76 -12q23 -7 41 -18l10 2q40 10 71.5 20.5t52 17.5t24.5 7q3 0 9.5 -4
t6.5 -11q0 -29 -2.5 -51.5t-5 -55t-4.5 -82.5t-2 -137v-241q67 47 134 77.5t139 30.5q87 0 144 -55t57 -149v-400q0 -22 6 -35t14 -18.5t15 -7t11 -1.5q43 -3 62 -7t19 -13q0 -23 -4 -30t-25 -7q-48 0 -97.5 2t-101.5 2q-50 0 -97.5 -2t-83.5 -2q-11 0 -12.5 7t-1.5 30
q0 9 9.5 13t40.5 7q3 0 10.5 1.5t15 7t13.5 18.5t6 35v349q0 19 -5 43.5t-20 47.5t-41 38t-66 15q-14 0 -33.5 -5t-40 -13t-38 -19t-26.5 -22q-3 -13 -3 -31v-403q0 -22 6 -35t14 -18.5t15 -7t10 -1.5q45 -3 55.5 -7t10.5 -13q0 -23 -1.5 -30t-12.5 -7q-47 0 -96.5 2
t-101.5 2q-51 0 -100.5 -2t-96.5 -2q-11 0 -12.5 7t-1.5 30q0 9 11 13t55 7q3 0 10 1.5t15 7t15 18.5q2 4 3 9v510h-280v-484q0 -22 6.5 -35t14 -18.5t15 -7t10.5 -1.5q44 -3 55 -7t11 -13q0 -23 -1.5 -30t-12.5 -7q-48 0 -97.5 2t-100.5 2t-100.5 -2t-96.5 -2
q-12 0 -13.5 7t-1.5 30q0 9 11 13t55 7q3 0 10.5 1.5t15 7t14 18.5t6.5 35v370q0 67 -3 90.5t-23 23.5h-254z" />
    <glyph glyph-name="f_f_i.liga" unicode="ffi" horiz-adv-x="1442" 
d="M348 601v-484q0 -22 6.5 -35t14 -18.5t15 -7t10.5 -1.5q61 -3 77 -7t16 -13q0 -23 -6.5 -30t-34.5 -7q-48 0 -97.5 2t-100.5 2t-100.5 -2t-96.5 -2q-12 0 -13.5 7t-1.5 30q0 9 11 13t55 7q3 0 10.5 1.5t15 7t14 18.5t6.5 35v370q0 67 -3 90.5t-23 23.5h-75q-22 0 -27 8.5
t-5 33.5q0 6 14.5 10.5t34.5 9.5t40.5 12t30.5 21q8 10 18 91q14 122 63.5 198t112.5 119t125.5 58.5t99.5 15.5q21 0 46 -4.5t46.5 -15.5t35.5 -29.5t14 -44.5q0 -43 -26.5 -66.5t-68.5 -23.5q-34 0 -57 15t-41 33t-34.5 33t-37.5 15q-43 0 -63 -58t-20 -147v-200
q41 -1 76 -1q137 0 152.5 3t33 19t23.5 81q11 97 53 170t104.5 122.5t141.5 74t164 24.5q63 0 103 -11t64 -27.5t32.5 -37t8.5 -39.5q0 -41 -30 -65t-70 -24q-43 0 -72.5 19.5t-54 43.5t-47 44t-54.5 20q-42 0 -69 -23.5t-43.5 -62t-24.5 -86t-10 -93t-1.5 -86.5t0.5 -65
h282q41 0 73 10.5t56 22t39 22t19 10.5q8 0 13.5 -7.5t5.5 -14.5q0 -10 -4 -70t-4 -173v-368q0 -22 6.5 -35t14.5 -18.5t15 -7t10 -1.5q44 -3 55.5 -7t11.5 -13q0 -23 -2 -30t-13 -7q-47 0 -96.5 2t-101.5 2q-50 0 -100 -2t-97 -2q-11 0 -12.5 7t-1.5 30q0 9 10.5 13t55.5 7
q3 0 10 1.5t15 7t14 18.5t6 35v365q0 39 -1.5 63.5t-6 36.5t-13.5 15.5t-24 3.5h-235v-484q0 -22 6.5 -35t14 -18.5t15 -7t10.5 -1.5q44 -3 55 -7t11 -13q0 -23 -1.5 -30t-12.5 -7q-48 0 -97.5 2t-100.5 2t-100.5 -2t-96.5 -2q-12 0 -13.5 7t-1.5 30q0 9 11 13t55 7
q3 0 10.5 1.5t15 7t14 18.5t6.5 35v370q0 67 -3 90.5t-23 23.5h-254z" />
    <glyph glyph-name="f_j.liga" unicode="fj" horiz-adv-x="955" 
d="M772 724q15 8 26 16q15 10 19 10q8 0 13.5 -7.5t5.5 -14.5q0 -10 -4 -70t-4 -173v-482q0 -25 -2 -53t-15.5 -63t-40 -76t-76.5 -89q-27 -27 -59 -54t-60 -48t-50.5 -34.5t-30.5 -13.5q-7 0 -15 15.5t-8 21.5q0 8 17 19t46 40q30 30 48.5 64.5t29 78t13.5 97.5t3 124v450
q0 36 -4.5 58t-15.5 35t-29 19q-10 3 -24 7h-207v-484q0 -22 6.5 -35t14 -18.5t15 -7t10.5 -1.5q44 -3 55 -7t11 -13q0 -23 -1.5 -30t-12.5 -7q-48 0 -97.5 2t-100.5 2t-100.5 -2t-96.5 -2q-12 0 -13.5 7t-1.5 30q0 9 11 13t55 7q3 0 10.5 1.5t15 7t14 18.5t6.5 35v370
q0 67 -3 90.5t-23 23.5h-75q-22 0 -27 8.5t-5 33.5q0 6 14.5 10.5t34.5 9.5t40.5 12t30.5 21q8 10 18 91q11 97 53 170t104.5 122.5t141.5 74t164 24.5q63 0 103 -11t64 -27.5t32.5 -37t8.5 -39.5q0 -41 -30 -65t-70 -24q-43 0 -72.5 19.5t-54 43.5t-47 44t-54.5 20
q-42 0 -69 -23.5t-43.5 -62t-24.5 -86t-10 -92.5q-2 -37 -2 -70q0 -9 1 -17v-65h282q41 0 73 11q16 5 29 10q10 4 19 8q12 5 21 10z" />
    <glyph glyph-name="f_f_j.liga" unicode="ffj" horiz-adv-x="1435" 
d="M1252 724q15 8 26 16q15 10 19 10q8 0 13.5 -7.5t5.5 -14.5q0 -10 -4 -70t-4 -173v-482q0 -25 -2 -53t-15.5 -63t-40 -76t-76.5 -89q-27 -27 -59 -54t-60 -48t-50.5 -34.5t-30.5 -13.5q-7 0 -15 15.5t-8 21.5q0 8 17 19t46 40q30 30 48.5 64.5t29 78t13.5 97.5t3 124v450
q0 36 -4.5 58t-15.5 35t-29 19q-10 3 -24 7h-207v-484q0 -22 6.5 -35t14 -18.5t15 -7t10.5 -1.5q44 -3 55 -7t11 -13q0 -23 -1.5 -30t-12.5 -7q-48 0 -97.5 2t-100.5 2t-100.5 -2t-96.5 -2q-12 0 -13.5 7t-1.5 30q0 9 11 13t55 7q3 0 10.5 1.5t15 7t14 18.5t6.5 35v370
q0 67 -3 90.5t-23 23.5h-254v-484q0 -22 6.5 -35t14 -18.5t15 -7t10.5 -1.5q61 -3 77 -7t16 -13q0 -23 -6.5 -30t-34.5 -7q-48 0 -97.5 2t-100.5 2t-100.5 -2t-96.5 -2q-12 0 -13.5 7t-1.5 30q0 9 11 13t55 7q3 0 10.5 1.5t15 7t14 18.5t6.5 35v370q0 67 -3 90.5t-23 23.5
h-75q-22 0 -27 8.5t-5 33.5q0 6 14.5 10.5t34.5 9.5t40.5 12t30.5 21q8 10 18 91q14 122 63.5 198t112.5 119t125.5 58.5t99.5 15.5q21 0 46 -4.5t46.5 -15.5t35.5 -29.5t14 -44.5q0 -43 -26.5 -66.5t-68.5 -23.5q-34 0 -57 15t-41 33t-34.5 33t-37.5 15q-43 0 -63 -58
t-20 -147v-200q41 -1 76 -1q137 0 152.5 3t33 19t23.5 81q11 97 53 170t104.5 122.5t141.5 74t164 24.5q63 0 103 -11t64 -27.5t32.5 -37t8.5 -39.5q0 -41 -30 -65t-70 -24q-43 0 -72.5 19.5t-54 43.5t-47 44t-54.5 20q-42 0 -69 -23.5t-43.5 -62t-24.5 -86t-10 -93
t-1.5 -86.5t0.5 -65h282q41 0 73 11q16 5 29 10q10 4 19 8q12 5 21 10z" />
    <glyph glyph-name="f_k.liga" unicode="fk" horiz-adv-x="1376" 
d="M348 685h280v320q-14 -11 -27 -11q-34 0 -57 15t-41 33t-34.5 33t-37.5 15q-43 0 -63 -58t-20 -147v-200zM672 1147q5 2 10 3q40 10 71.5 20.5t52 17.5t25.5 7q3 0 9.5 -4t6.5 -11q0 -29 -3 -51.5t-5 -55t-4.5 -82.5t-2.5 -137v-479q24 0 42 11.5t35 29.5l135 131
q3 3 10.5 10t15 15t13 17t5.5 19t-9 21.5t-53 11.5q-27 0 -31.5 11t-4.5 24q0 8 3 15t12 7q42 0 82.5 -2.5t81.5 -2.5q42 0 82.5 2.5t81.5 2.5q8 0 9.5 -7t1.5 -13q0 -12 -1.5 -24.5t-12.5 -12.5q-25 0 -48.5 -5t-50.5 -18.5t-57.5 -37.5t-69.5 -62q-4 -4 -20 -19t-34 -31.5
t-31.5 -31.5t-13.5 -18q0 -2 21.5 -28t53 -64t69.5 -81.5t71 -81t57 -63.5t31 -29q13 -6 22.5 -9.5t18.5 -5t20 -1.5h27q8 0 9.5 -12.5t1.5 -20.5q0 -11 -1.5 -17.5t-9.5 -6.5q-49 0 -94.5 2t-86.5 2q-22 0 -57.5 -1t-68.5 -1t-58 -1h-7l-19 -1q-15 0 -15 27q0 11 4.5 20.5
t28.5 9.5q19 0 26 3.5t7 7.5q0 11 -6 20t-19 22l-123 150q-20 24 -34.5 42t-41.5 18v-201q0 -22 6.5 -35t14.5 -18.5t15 -7t10 -1.5q44 -3 55.5 -7t11.5 -13q0 -23 -2 -30t-13 -7q-47 0 -96.5 2t-102.5 2q-50 0 -99.5 -2t-96.5 -2h-4q-11 0 -12.5 7t-1.5 30q0 9 10.5 13
t55.5 7q3 0 10 1.5t15 7t14 18.5t6 35v484h-280v-484q0 -22 6.5 -35t14 -18.5t15 -7t10.5 -1.5q44 -3 55 -7t11 -13q0 -23 -1.5 -30t-12.5 -7q-48 0 -97.5 2t-100.5 2t-100.5 -2t-96.5 -2q-12 0 -13.5 7t-1.5 30q0 9 11 13t55 7q3 0 10.5 1.5t15 7t14 18.5t6.5 35v370
q0 67 -3 90.5t-23 23.5h-75q-22 0 -27 8.5t-5 33.5q0 6 14.5 10.5t34.5 9.5t40.5 12t30.5 21q8 10 18 91q14 122 63.5 198t112.5 119t125.5 58.5t99.5 15.5t76 -12q24 -7 42 -19z" />
    <glyph glyph-name="f_f_k.liga" unicode="ffk" horiz-adv-x="1856" 
d="M828 685h280v320q-14 -11 -27 -11q-34 0 -57 15t-41 33t-34.5 33t-37.5 15q-43 0 -63 -58t-20 -147v-200zM348 601v-484q0 -22 6.5 -35t14 -18.5t15 -7t10.5 -1.5q61 -3 77 -7t16 -13q0 -23 -6.5 -30t-34.5 -7q-48 0 -97.5 2t-100.5 2t-100.5 -2t-96.5 -2q-12 0 -13.5 7
t-1.5 30q0 9 11 13t55 7q3 0 10.5 1.5t15 7t14 18.5t6.5 35v370q0 67 -3 90.5t-23 23.5h-75q-22 0 -27 8.5t-5 33.5q0 6 14.5 10.5t34.5 9.5t40.5 12t30.5 21q8 10 18 91q14 122 63.5 198t112.5 119t125.5 58.5t99.5 15.5q21 0 46 -4.5t46.5 -15.5t35.5 -29.5t14 -44.5
q0 -43 -26.5 -66.5t-68.5 -23.5q-34 0 -57 15t-41 33t-34.5 33t-37.5 15q-43 0 -63 -58t-20 -147v-200q41 -1 76 -1q121 0 135 0.5t39 11t35 91.5q14 122 63.5 198t112.5 119t125.5 58.5t99.5 15.5t76 -12q24 -7 42 -19q5 2 10 3q40 10 71.5 20.5t52 17.5t25.5 7q3 0 9.5 -4
t6.5 -11q0 -29 -3 -51.5t-5 -55t-4.5 -82.5t-2.5 -137v-479q24 0 42 11.5t35 29.5l135 131q3 3 10.5 10t15 15t13 17t5.5 19t-9 21.5t-53 11.5q-27 0 -31.5 11t-4.5 24q0 8 3 15t12 7q42 0 82.5 -2.5t81.5 -2.5q42 0 82.5 2.5t81.5 2.5q8 0 9.5 -7t1.5 -13q0 -12 -1.5 -24.5
t-12.5 -12.5q-25 0 -48.5 -5t-50.5 -18.5t-57.5 -37.5t-69.5 -62q-4 -4 -20 -19t-34 -31.5t-31.5 -31.5t-13.5 -18q0 -2 21.5 -28t53 -64t69.5 -81.5t71 -81t57 -63.5t31 -29q13 -6 22.5 -9.5t18.5 -5t20 -1.5h27q8 0 9.5 -12.5t1.5 -20.5q0 -11 -1.5 -17.5t-9.5 -6.5
q-49 0 -94.5 2t-86.5 2q-22 0 -57.5 -1t-68.5 -1t-58 -1h-7l-19 -1q-15 0 -15 27q0 11 4.5 20.5t28.5 9.5q19 0 26 3.5t7 7.5q0 11 -6 20t-19 22l-123 150q-20 24 -34.5 42t-41.5 18v-201q0 -22 6.5 -35t14.5 -18.5t15 -7t10 -1.5q44 -3 55.5 -7t11.5 -13q0 -23 -2 -30
t-13 -7q-47 0 -96.5 2t-102.5 2q-50 0 -99.5 -2t-96.5 -2h-4q-11 0 -12.5 7t-1.5 30q0 9 10.5 13t55.5 7q3 0 10 1.5t15 7t14 18.5t6 35v484h-280v-484q0 -22 6.5 -35t14 -18.5t15 -7t10.5 -1.5q44 -3 55 -7t11 -13q0 -23 -1.5 -30t-12.5 -7q-48 0 -97.5 2t-100.5 2
t-100.5 -2t-96.5 -2q-12 0 -13.5 7t-1.5 30q0 9 11 13t55 7q3 0 10.5 1.5t15 7t14 18.5t6.5 35v370q0 67 -3 90.5t-23 23.5h-254z" />
    <glyph glyph-name="f_f_l.liga" unicode="ffl" horiz-adv-x="1442" 
d="M828 685h280v320q-14 -11 -27 -11q-34 0 -57 15t-41 33t-34.5 33t-37.5 15q-43 0 -63 -58t-20 -147v-200zM348 601v-484q0 -22 6.5 -35t14 -18.5t15 -7t10.5 -1.5q61 -3 77 -7t16 -13q0 -23 -6.5 -30t-34.5 -7q-48 0 -97.5 2t-100.5 2t-100.5 -2t-96.5 -2q-12 0 -13.5 7
t-1.5 30q0 9 11 13t55 7q3 0 10.5 1.5t15 7t14 18.5t6.5 35v370q0 67 -3 90.5t-23 23.5h-75q-22 0 -27 8.5t-5 33.5q0 6 14.5 10.5t34.5 9.5t40.5 12t30.5 21q8 10 18 91q14 122 63.5 198t112.5 119t125.5 58.5t99.5 15.5q21 0 46 -4.5t46.5 -15.5t35.5 -29.5t14 -44.5
q0 -43 -26.5 -66.5t-68.5 -23.5q-34 0 -57 15t-41 33t-34.5 33t-37.5 15q-43 0 -63 -58t-20 -147v-200q41 -1 76 -1q128 0 146 4t35 18.5t28 80.5q14 122 63.5 198t112.5 119t125.5 58.5t99.5 15.5t75.5 -12t61.5 -33q10 3 30 13t41 21t40 19.5t25 8.5q3 0 9.5 -4t6.5 -11
q0 -29 -2.5 -51.5t-5 -55t-5 -82.5t-2.5 -137v-737q0 -22 6.5 -35t14.5 -18.5t15 -7t10 -1.5q44 -3 55.5 -7t11.5 -13q0 -23 -2 -30t-13 -7q-47 0 -96.5 2t-101.5 2q-50 0 -100 -2t-97 -2q-11 0 -12.5 7t-1.5 30q0 9 10.5 13t55.5 7q3 0 10 1.5t15 7t14 18.5t6 35v484h-280
v-484q0 -22 6.5 -35t14 -18.5t15 -7t10.5 -1.5q44 -3 55 -7t11 -13q0 -23 -1.5 -30t-12.5 -7q-48 0 -97.5 2t-100.5 2t-100.5 -2t-96.5 -2q-12 0 -13.5 7t-1.5 30q0 9 11 13t55 7q3 0 10.5 1.5t15 7t14 18.5t6.5 35v370q0 67 -3 90.5t-23 23.5h-254z" />
    <glyph glyph-name="f_t.liga" unicode="ft" horiz-adv-x="1083" 
d="M588 685q63 42 104 80q57 52 93 101q3 3 8 4t25 1q11 0 16.5 -2.5t5.5 -13.5q0 -41 -3 -82.5t-5 -87.5h248q4 0 7.5 -9.5t3.5 -36.5q0 -28 -4 -33t-22 -5h-233v-352q0 -28 2.5 -60.5t14.5 -58.5t34.5 -43.5t64.5 -17.5q21 0 42 5.5t37.5 13t27 12.5t12.5 5q8 0 15 -12.5
t7 -20.5q0 -4 -15.5 -19t-46.5 -31.5t-74.5 -29.5t-97.5 -13q-104 0 -163.5 45t-59.5 131v446h-284v-484q0 -22 6.5 -35t14 -18.5t15 -7t10.5 -1.5q44 -3 55 -7t11 -13q0 -23 -1.5 -30t-12.5 -7q-48 0 -97.5 2t-100.5 2t-100.5 -2t-96.5 -2q-12 0 -13.5 7t-1.5 30q0 9 11 13
t55 7q3 0 10.5 1.5t15 7t14 18.5t6.5 35v370q0 67 -3 90.5t-23 23.5h-75q-22 0 -27 8.5t-5 33.5q0 6 14.5 10.5t34.5 9.5t40.5 12t30.5 21q8 10 18 91q11 97 53 170t104.5 122.5t141.5 74t164 24.5q63 0 103 -11t64 -27.5t32.5 -37t8.5 -39.5q0 -41 -30 -65t-70 -24
q-43 0 -72.5 19.5t-54 43.5t-47 44t-54.5 20q-42 0 -69 -23.5t-43.5 -62t-24.5 -86t-10 -93t-1.5 -86.5t0.5 -65h240z" />
    <glyph glyph-name="f_f_t.liga" unicode="fft" horiz-adv-x="1563" 
d="M348 601v-484q0 -22 6.5 -35t14 -18.5t15 -7t10.5 -1.5q61 -3 77 -7t16 -13q0 -23 -6.5 -30t-34.5 -7q-48 0 -97.5 2t-100.5 2t-100.5 -2t-96.5 -2q-12 0 -13.5 7t-1.5 30q0 9 11 13t55 7q3 0 10.5 1.5t15 7t14 18.5t6.5 35v370q0 67 -3 90.5t-23 23.5h-75q-22 0 -27 8.5
t-5 33.5q0 6 14.5 10.5t34.5 9.5t40.5 12t30.5 21q8 10 18 91q14 122 63.5 198t112.5 119t125.5 58.5t99.5 15.5q21 0 46 -4.5t46.5 -15.5t35.5 -29.5t14 -44.5q0 -43 -26.5 -66.5t-68.5 -23.5q-34 0 -57 15t-41 33t-34.5 33t-37.5 15q-43 0 -63 -58t-20 -147v-200
q41 -1 76 -1q137 0 165 10q7 2 21 11.5t23 81.5q11 97 53 170t104.5 122.5t141.5 74t164 24.5q63 0 103 -11t64 -27.5t32.5 -37t8.5 -39.5q0 -41 -30 -65t-70 -24q-43 0 -72.5 19.5t-54 43.5t-47 44t-54.5 20q-42 0 -69 -23.5t-43.5 -62t-24.5 -86t-10 -93t-1.5 -86.5
t0.5 -65h240q63 42 104 80q57 52 93 101q3 3 8 4t25 1q11 0 16.5 -2.5t5.5 -13.5q0 -41 -3 -82.5t-5 -87.5h248q4 0 7.5 -9.5t3.5 -36.5q0 -28 -4 -33t-22 -5h-233v-352q0 -28 2.5 -60.5t14.5 -58.5t34.5 -43.5t64.5 -17.5q21 0 42 5.5t37.5 13t27 12.5t12.5 5q8 0 15 -12.5
t7 -20.5q0 -4 -15.5 -19t-46.5 -31.5t-74.5 -29.5t-97.5 -13q-104 0 -163.5 45t-59.5 131v446h-284v-484q0 -22 6.5 -35t14 -18.5t15 -7t10.5 -1.5q44 -3 55 -7t11 -13q0 -23 -1.5 -30t-12.5 -7q-48 0 -97.5 2t-100.5 2t-100.5 -2t-96.5 -2q-12 0 -13.5 7t-1.5 30q0 9 11 13
t55 7q3 0 10.5 1.5t15 7t14 18.5t6.5 35v370q0 67 -3 90.5t-23 23.5h-254z" />
    <glyph glyph-name="uni0647.fina" unicode="&#x647;" horiz-adv-x="834" arabic-form="final" 
d="M858 23q0 -23 -18 -23h-92q2 -8 3 -14.5t3 -14.5q7 -34 10.5 -62.5t3.5 -53.5q0 -217 -143 -217q-103 0 -184 103q-80 103 -80 232v27q-65 -5 -111 -12.5t-78.5 -21t-55 -34t-41.5 -50.5q-9 -11 -14 -11q-1 0 -2 1q-4 3 -4 12q0 6 1 13q14 72 34.5 136.5t54.5 116.5
q16 25 36.5 43t48 29.5t65 16.5t88.5 5q8 34 21 73q34 109 96 213q23 39 49.5 78t56.5 78q73 94 86 94q11 0 37 -123q23 -109 23 -192q0 -106 -54 -221h142q18 0 18 -23v-198zM629 285q-8 46 -15 82.5t-14 64.5q-4 22 -8 29q-8 45 -14 45q-1 -1 -13 -14q-2 -5 -5 -9.5
t-5 -9.5q-4 -8 -8 -14.5t-8 -14.5q-5 -10 -10.5 -19t-10.5 -19q-33 -63 -57 -160q109 7 168 39zM694 -158q0 56 -75 113q-69 51 -142 51q-3 0 -12.5 -1t-15.5 -1q9 -81 69 -136q61 -56 135 -56q41 0 41 30z" />
    <glyph glyph-name="uni0672.fina" unicode="&#x672;" horiz-adv-x="459" 
d="M483 23q0 -23 -22 -23h-39q-123 0 -181 39q-48 33 -63 100q-11 49 -12 86q-1 18 -3 70l-1 24q-1 43 -2 107l-3 98v113q0 61 -4 162q-1 33 -6 80q0 7 -8 79q-4 39 -8 64q-2 14 -8 43q0 4 -4 33l153 284q3 7 8 13q2 -4 2 -13l4 -18l7 -37q9 -57 18 -151q10 -109 10 -338
v-41l-2 -121l2 -115v-117q0 -113 28.5 -156.5t102.5 -43.5h13q18 0 18 -23v-198zM201 1466q-33 0 -65 21q-14 13 -20 13q-15 0 -43 -34q-16 -21 -20 -21q-2 1 -2 4q0 4 4 11l5 18l8 15l10 21q31 68 71 68q19 0 40 -20q13 -7 21.5 -7.5t16.5 -0.5q7 0 14 1l-8 4
q-37 20 -37 44q0 60 56 119q42 45 93 45q65 0 65 -26q0 -4 -5 -13l-31 -56l-3 -5q-4 0 -5 2q-19 16 -45 16q-15 0 -30.5 -4t-26.5 -14q-11 -6 -12 -11q0 -14 37 -33q31 -16 64 -16q46 0 80 13q5 1 8 1.5t5 1.5v-1q0 -3 -7 -15l-47 -78l-16 -4l-31 -7q-35 -11 -64 -31.5
t-80 -20.5z" />
    <glyph glyph-name="uni0673.fina" unicode="&#x673;" horiz-adv-x="459" 
d="M483 23q0 -23 -22 -23h-39q-123 0 -181 39q-48 33 -63 100q-11 49 -12 86q-1 18 -3 70l-1 24q-1 43 -2 107l-3 98v113q0 61 -4 162q-1 33 -6 80q0 7 -8 79q-4 39 -8 64q-2 14 -8 43q0 4 -4 33l153 284q3 7 8 13q2 -4 2 -13l4 -18l7 -37q9 -57 18 -151q10 -109 10 -338
v-41l-2 -121l2 -115v-117q0 -113 28.5 -156.5t102.5 -43.5h13q18 0 18 -23v-198zM201 -395q-33 0 -65 21q-14 13 -20 13q-15 0 -43 -34q-16 -21 -20 -21q-2 1 -2 4q0 4 4 11l5 18l8 15l10 21q31 68 71 68q19 0 40 -20q13 -7 21.5 -7.5t16.5 -0.5q7 0 14 1l-8 4
q-37 20 -37 44q0 60 56 119q42 45 93 45q65 0 65 -26q0 -4 -5 -13l-31 -56l-3 -5q-4 0 -5 2q-19 16 -45 16q-15 0 -30.5 -4t-26.5 -14q-11 -6 -12 -11q0 -14 37 -33q31 -16 64 -16q46 0 80 13q5 1 8 1.5t5 1.5v-1q0 -3 -7 -15l-47 -78l-16 -4l-31 -7q-35 -11 -64 -31.5
t-80 -20.5z" />
    <glyph glyph-name="uni0675.fina" unicode="&#x675;" horiz-adv-x="709" 
d="M733 23q0 -23 -22 -23h-289q-120 0 -181 39q-45 30 -63 100q-14 54 -16 181l-2 104v100l-3 111q0 49 -4 164q-1 33 -6 80q0 7 -8 80q-5 43 -8 61q0 10 -8 45q0 4 -4 33l153 284q3 7 8 13q2 -6 2 -13l4 -18l7 -37q13 -78 18 -151q10 -139 10 -338v-41l-2 -121l4 -234
q2 -99 18 -136q27 -62 111 -62h263q18 0 18 -23v-198zM674 1352q-2 -10 -6 -16l-45 -68q-19 -4 -53 -12q-29 -10 -105 -35l-33 -10q-7 -3 -22 -10q-4 -2 -8 -2q-1 0 -2 2q0 4 2 8q3 12 20 37q16 22 41 41l-16 8q-41 20 -41 45q0 67 61 125q46 43 100 43q70 0 70 -29l-4 -12
l-35 -60l-4 -4l-19 10q-19 11 -44 11q-72 0 -72 -37q0 -18 41 -37q31 -14 76 -14q38 0 84 12q6 2 14 4z" />
    <glyph glyph-name="uni0676.fina" unicode="&#x676;" horiz-adv-x="840" 
d="M864 23q0 -23 -19 -23h-179l-4 -43q-20 -204 -105 -321t-205 -117q-93 0 -202 41q-71 26 -105 45q-45 25 -45 35q0 8 8 8t23 -4q28 -9 65 -9q134 0 240 89q142 119 184 274q-178 5 -228 32t-50 120q0 100 49 219q73 176 178 176q143 0 178 -301h190q24 0 25 -23zM543 248
q-50 102 -109 102q-20 0 -47 -15q-31 -17 -31 -36q0 -53 142 -53l12 2h33zM764 769v-1q0 -3 -6 -13l-43 -70q-29 -6 -53 -12q-29 -7 -107 -33l-30 -12q-9 -3 -23 -8q-4 -2 -10 -4q-1 0 -2 2q2 9 2 10q6 12 20 37q16 22 41 41l-14 6q-41 18 -41 45q0 66 61 127q43 43 99 43
q71 0 71 -29q0 -2 -6 -12l-32 -59q-4 -6 -7 -7q-1 2 -4 5q-21 18 -59 18q-70 0 -70 -39q0 -19 38 -34t77 -15q20 0 53.5 7t44.5 7z" />
    <glyph glyph-name="uni0677.fina" unicode="&#x677;" horiz-adv-x="840" 
d="M864 23q0 -23 -19 -23h-179l-4 -43q-20 -204 -105 -321t-205 -117q-93 0 -202 41q-71 26 -105 45q-45 25 -45 35q0 8 8 8t23 -4q28 -9 65 -9q134 0 240 89q142 119 184 274q-178 5 -228 32t-50 120q0 100 49 219q73 176 178 176q143 0 178 -301h190q24 0 25 -23zM543 248
q-50 102 -109 102q-20 0 -47 -15q-31 -17 -31 -36q0 -53 142 -53l12 2h33zM764 769v-1q0 -3 -6 -13l-43 -70q-29 -6 -53 -12q-29 -7 -107 -33l-30 -12q-9 -3 -23 -8q-4 -2 -10 -4q-1 0 -2 2q2 9 2 10q6 12 20 37q16 22 41 41l-14 6q-41 18 -41 45q0 66 61 127q43 43 99 43
q71 0 71 -29q0 -2 -6 -12l-32 -59q-4 -6 -7 -7q-1 2 -4 5q-21 18 -59 18q-70 0 -70 -39q0 -19 38 -34t77 -15q20 0 53.5 7t44.5 7zM421 720l-8 1q-21 1 -48 11q-20 -35 -37.5 -60.5t-34.5 -39.5q-18 -16 -55.5 -33.5t-94.5 -35.5l-16 -4q-14 -6 -16 -6l-2 2q2 9 18 20
q2 2 8 5t14 9l26 19q28 20 47.5 35.5t30.5 26.5q41 35 67 72q-61 28 -61 72q0 40 30 89q19 29 37 42t37 13q20 0 32 -17.5t12 -49.5q0 -23 -3.5 -39t-9.5 -41q13 -4 26 -6.5t28 -4.5zM368 822q1 6 1.5 12.5t0.5 12.5q0 16 -4.5 29.5t-17.5 13.5q-8 0 -17 -3.5t-17.5 -8.5
t-14 -11t-5.5 -11q0 -11 23 -22q12 -5 25 -8t26 -4z" />
    <glyph glyph-name="uni0678.init" unicode="&#x678;" horiz-adv-x="721" 
d="M671 881v-1q0 -5 -8 -18l-56 -88l-20 -4l-37 -8q-49 -11 -76 -21q-27 -7 -50.5 -15t-43.5 -17q-8 -2 -10 -2q-2 2 -2 5t2 7q10 28 20 41q7 11 17 21t24 20l-16 8q-45 22 -45 49q0 68 67 135q52 51 113 51q78 0 78 -30q0 -5 -6 -15l-37 -63l-4 -6q-4 0 -6 2q-23 18 -54 18
q-18 0 -37 -4.5t-32 -15.5q-14 -6 -15 -12q0 -16 45 -37q38 -19 78 -19q55 0 96 15q5 2 9 2.5t6 1.5zM483 295q0 -138 -61 -232q-42 -63 -191 -63h-237q-64 0 -64 122t64 122h358q-23 75 -84 151l97 201q2 5 8 16q4 -3 12 -14l18 -31q80 -134 80 -272z" />
    <glyph glyph-name="uni0678.medi" unicode="&#x678;" horiz-adv-x="707" 
d="M732 23q0 -23 -17 -23h-201q-99 0 -139 14q-59 25 -66 99q0 14 -2 22l-4 -12l-6 -17q-26 -67 -62 -86.5t-151 -19.5h-90q-64 0 -64 122t64 122h139q77 0 109 13q46 20 65 83l8 27q23 71 43 71q11 0 11 -18q0 -2 -4 -23q-9 -41 -9 -55q0 -58 43 -80q36 -18 144 -18h172
q17 0 17 -25v-196zM663 662l-8 -17l-55 -88l-21 -4l-37 -8q-31 -7 -77 -21q-55 -16 -95 -32q-4 -3 -10 -5q0 7 2 13q10 27 21 43q14 20 41 39l-17 8q-45 23 -45 51q0 70 68 135q50 49 112 49q78 0 78 -30q-1 -4 -6 -13l-37 -65q-3 -6 -6 -6l-4 4q-21 18 -53 18q-22 0 -37 -6
q-47 -8 -47 -29q0 -13 45 -34q38 -19 78 -19q56 0 96 14q6 3 14 3z" />
    <glyph glyph-name="uni0678.fina" unicode="&#x678;" horiz-adv-x="1158" 
d="M1128 537l-6 -11l-55 -88q-17 -4 -21 -5l-38 -8q-72 -15 -111 -30l-34 -13q-11 -4 -25 -10q-3 -2 -5 -2q-5 0 -5 6q0 44 63 87l-17 8q-45 21 -45 50q0 65 57.5 125.5t122.5 60.5q78 0 78 -32q-1 -6 -5 -13l-38 -64q-4 -6 -5 -6l-6 3q-21 18 -50 18q-19 0 -50 -9
q-37 -11 -37 -25q0 -19 53 -38q45 -16 70 -16q47 0 96 14q3 1 6 1q6 0 7 -3zM1183 23q0 -23 -17 -23h-13l-87 -1l12 -14q8 -9 8 -19q0 -69 -31.5 -161t-74.5 -142q-85 -98 -271 -158q-162 -52 -314 -52q-329 0 -329 331q0 164 64 323q53 131 76 131q6 0 6 -8q0 -2 -9 -27
q-2 -5 -9 -26q-45 -125 -45 -210q0 -138 89 -212q82 -68 223 -68q126 0 272 47q156 49 244 125q-80 90 -245 134l-45 12l-29 7l101 232h406q18 0 18 -23v-198z" />
    <glyph glyph-name="uni067C.init" unicode="&#x67c;" horiz-adv-x="549" 
d="M278 -131q-9 123 -173 131q-8 -37 -8 -60q0 -98 88 -98q49 0 93 27zM463 801l-115 -115l-106 105l-107 -105l-112 115l112 114l107 -106l106 106zM84 0h-90q-64 0 -64 122t64 122h358q-22 74 -84 151l97 201q2 5 8 16q5 -3 12 -14l18 -31q80 -133 80 -272
q0 -138 -61 -232q-28 -41 -101 -56q10 -21 14 -60v-6q0 -56 -38 -129q-49 -94 -139 -94q-53 0 -83.5 28.5t-30.5 76.5q0 59 33 154z" />
    <glyph glyph-name="uni067C.medi" unicode="&#x67c;" horiz-adv-x="717" 
d="M288 -131q-9 123 -173 131q-8 -37 -8 -60q0 -98 88 -98q49 0 93 27zM623 672l-114 -115l-105 107l-106 -107l-113 115l113 114l104 -104l107 104zM94 0h-100q-64 0 -64 122t64 122h299q77 0 109 13q46 20 65 83l8 27q23 71 43 71q11 0 11 -18q0 -2 -4 -23q-9 -41 -9 -55
q0 -58 43 -80q36 -18 144 -18h22q17 0 17 -25v-196q0 -23 -17 -23h-51q-99 0 -139 14q-59 25 -66 99q0 14 -2 22l-4 -12l-6 -17q-26 -67 -62 -86q-20 -11 -63 -16q9 -21 13 -57v-6q0 -56 -38 -129q-49 -94 -139 -94q-53 0 -83.5 28.5t-30.5 76.5q0 59 33 154z" />
    <glyph glyph-name="uni067C.fina" unicode="&#x67c;" horiz-adv-x="1442" 
d="M849 -209q-9 123 -173 131q-8 -37 -8 -60q0 -98 88 -98q49 0 93 27zM981 592l-125 -127l-117 115l-114 -115l-125 127l125 125l114 -113l117 113zM655 -78q-285 1 -410 78q-128 77 -128 256q0 187 94 348l14 25q15 24 21 24q4 -2 4 -8q0 -2 -8 -27q-37 -110 -37 -188
q0 -146 139 -215q62 -30 152 -41q87 -10 178 -10q72 0 198 12q97 10 187 27q79 15 117 28q47 17 67 84q42 136 76 136q16 0 16 -17q0 -2 -6 -26q-16 -46 -16 -78q0 -54 41 -74q25 -12 84 -12h12q16 0 16 -23v-196q0 -25 -22 -25h-6l-33 4q-49 6 -80 39q-13 14 -31 55
q-1 1 -2 3t-2 3l-4 7q0 1 -2 2q-4 0 -7.5 -9.5t-8.5 -21.5l-13 -25q-12 -20 -22 -26q-23 -15 -82 -35q-99 -33 -260 -57q-2 0 -4 -1q14 -20 19 -69v-6q0 -56 -38 -129q-49 -94 -139 -94q-53 0 -83.5 28.5t-30.5 76.5q0 59 33 154z" />
    <glyph glyph-name="uni067D.init" unicode="&#x67d;" horiz-adv-x="549" 
d="M242 686l-115 114l115 115l114 -115zM348 899l-106 106l-107 -106l-112 114l112 115l107 -105l106 105l115 -115zM483 295q0 -138 -61 -232q-42 -63 -191 -63h-237q-64 0 -64 122t64 122h358q-22 74 -84 151l97 201q2 5 8 16q5 -3 12 -14l18 -31q80 -133 80 -272z" />
    <glyph glyph-name="uni067D.medi" unicode="&#x67d;" horiz-adv-x="557" 
d="M262 557l-112 114l112 115l115 -115zM369 770l-107 104l-104 -104l-113 114l113 115l106 -107l105 107l114 -115zM582 23q0 -23 -17 -23h-51q-99 0 -139 14q-59 25 -66 99q0 14 -2 22l-4 -12l-6 -17q-26 -67 -62 -86.5t-151 -19.5h-90q-64 0 -64 122t64 122h139
q77 0 109 13q46 20 65 83l8 27q23 71 43 71q11 0 11 -18q0 -2 -4 -23q-9 -41 -9 -55q0 -58 43 -80q36 -18 144 -18h22q17 0 17 -25v-196z" />
    <glyph glyph-name="uni067D.fina" unicode="&#x67d;" horiz-adv-x="1442" 
d="M735 461l-125 123l125 123l123 -123zM852 668l-119 119l-121 -119l-127 129l127 131l121 -121l119 121l131 -131zM1466 25q0 -25 -22 -25h-6l-33 4q-49 6 -80 39q-13 14 -31 55q-1 1 -2 3t-2 3l-4 7q0 1 -2 2q-4 0 -7.5 -9.5t-8.5 -21.5l-13 -25q-12 -20 -22 -26
q-23 -15 -82 -35q-99 -33 -260 -57q-44 -7 -115 -13q-51 -4 -110 -4q-294 0 -421.5 77.5t-127.5 256.5q0 187 94 348l14 25q15 24 21 24q4 -2 4 -8q0 -2 -8 -27q-37 -110 -37 -188q0 -146 139 -215q62 -30 152 -41q87 -10 178 -10q72 0 198 12q97 10 187 27q79 15 117 28
q47 17 67 84q42 136 76 136q16 0 16 -17q0 -2 -6 -26q-16 -46 -16 -78q0 -54 41 -74q25 -12 84 -12h12q16 0 16 -23v-196z" />
    <glyph glyph-name="uni0681.init" unicode="&#x681;" horiz-adv-x="1167" 
d="M1126 571l-137 -262h-61q-80 0 -164 -24q-54 -16 -117 -47q-28 -15 -125 -70q-23 -13 -63 -35q-70 -37 -154 -70q-76 -29 -164 -47q-82 -16 -135 -16h-12q-64 0 -64 122t62 122h8q55 0 145 14q98 15 174 41l8 2q43 15 86.5 31.5t84.5 34.5l90 39l43 16l20 10
q-28 11 -37 14q-58 23 -137 60q-33 16 -80 39q-60 26 -114 26q-99 0 -160 -94q-13 -20 -23 -20q-8 0 -8 12q0 25 33 123q25 75 51 119q57 94 141 94q27 0 56 -6q57 -13 123 -45l135 -68q116 -58 186 -82q109 -37 256 -37q8 0 53 4zM652 1131l-6 -11l-55 -88q-17 -4 -21 -5
l-38 -8q-72 -15 -111 -30l-34 -13q-11 -4 -25 -10q-3 -2 -5 -2q-5 0 -5 6q0 44 63 87l-17 8q-45 21 -45 50q0 65 57.5 125.5t122.5 60.5q78 0 78 -32q-1 -4 -6 -13l-37 -64q-3 -6 -5 -6l-6 3q-21 18 -50 18q-19 0 -50 -9q-37 -11 -37 -25q0 -19 53 -38q45 -16 70 -16
q20 0 55 7.5t47 7.5q6 0 7 -3z" />
    <glyph glyph-name="uni0681.medi" unicode="&#x681;" horiz-adv-x="1159" 
d="M1184 23q0 -23 -19 -23h-278q-111 0 -162 55q-43 48 -59 191q-21 -10 -27 -13q-11 -6 -49 -28q-3 -2 -62 -35l-69 -39q-135 -75 -228 -103q-96 -28 -225 -28h-12q-64 0 -64 122t62 122h14l43 2q233 11 483 131q70 33 123 72q-80 18 -145 51l-61 30q-91 45 -154 45
q-97 0 -160 -96q-12 -18 -20 -18q-9 0 -9 14q0 12 11 47l10 35q42 142 87.5 197t121.5 55q83 0 250 -90q25 -14 84 -43q89 -45 161 -66q107 -30 228 -30q4 0 78 4l-136 -265h-30q-51 0 -90 -4q-79 -8 -136 -28q14 -43 117 -43h303q19 0 19 -23v-198zM673 1134l-6 -11
l-55 -88q-17 -4 -21 -5l-38 -8q-72 -15 -111 -30l-34 -13q-11 -4 -25 -10q-3 -2 -5 -2q-5 0 -5 6q0 44 63 87l-17 8q-45 21 -45 50q0 65 57.5 125.5t122.5 60.5q78 0 78 -32q-1 -4 -6 -13l-37 -64q-3 -6 -5 -6l-6 3q-21 18 -50 18q-19 0 -50 -9q-37 -11 -37 -25
q0 -19 53 -38q45 -16 70 -16q20 0 55 7.5t47 7.5q6 0 7 -3z" />
    <glyph glyph-name="uni0681.fina" unicode="&#x681;" horiz-adv-x="1120" 
d="M1145 23q0 -23 -23 -23h-174q-138 0 -199.5 58.5t-61.5 164.5q0 18 1 37l2 29q-124 -22 -262 -105q-238 -142 -238 -362q0 -171 153 -257q60 -34 142 -46q107 -17 211 -17q112 0 142 2q41 5 151 17l58 6q57 6 47 6q12 4 32 4q11 0 11 -2q0 -11 -58 -61l-59 -52
q-137 -118 -219 -149q-60 -23 -176 -23q-278 0 -408.5 114.5t-130.5 359.5q0 207 102 376q54 89 146.5 169t181.5 116l8 4q0 5 -75 25q-5 0 -39 8q-26 6 -39 6q-25 6 -56 6q-84 0 -143 -72q-20 -24 -29 -24q-6 0 -6 10q0 2 10 43l7 25l8 26q74 242 207 242q42 0 135 -29
q155 -48 248 -59q66 -8 176 -8q80 0 125 4l24 2h4q0 -3 -4 -6l-166 -271l-26 -4l-43 -4l-37 -2l-23 -2l-14 -2q0 -33 35 -45q12 -2 37 -6q65 -8 274 -8h12q19 0 19 -23v-198zM750 986l-6 -11l-55 -88q-17 -4 -21 -5l-38 -8q-72 -15 -111 -30l-34 -13q-11 -4 -25 -10
q-3 -2 -5 -2q-5 0 -5 6q0 44 63 87l-17 8q-45 21 -45 50q0 65 57.5 125.5t122.5 60.5q78 0 78 -32q-1 -4 -6 -13l-37 -64q-3 -6 -5 -6l-6 3q-21 18 -50 18q-19 0 -50 -9q-37 -11 -37 -25q0 -19 53 -38q45 -16 70 -16q20 0 55 7.5t47 7.5q6 0 7 -3z" />
    <glyph glyph-name="uni0682.init" unicode="&#x682;" horiz-adv-x="1167" 
d="M1126 571l-137 -262h-61q-80 0 -164 -24q-54 -16 -117 -47q-28 -15 -125 -70q-23 -13 -63 -35q-70 -37 -154 -70q-76 -29 -164 -47q-82 -16 -135 -16h-12q-64 0 -64 122t62 122h8q55 0 145 14q98 15 174 41l8 2q43 15 86.5 31.5t84.5 34.5l90 39l43 16l20 10
q-28 11 -37 14q-58 23 -137 60q-33 16 -80 39q-60 26 -114 26q-99 0 -160 -94q-13 -20 -23 -20q-8 0 -8 12q0 25 33 123q25 75 51 119q57 94 141 94q27 0 56 -6q57 -13 123 -45l135 -68q116 -58 186 -82q109 -37 256 -37q8 0 53 4zM617 1332l-119 -121l119 -120l-129 -127
l-131 127l121 120l-121 121l131 129z" />
    <glyph glyph-name="uni0682.medi" unicode="&#x682;" horiz-adv-x="1159" 
d="M1184 23q0 -23 -19 -23h-278q-111 0 -162 55q-43 48 -59 191q-21 -10 -27 -13q-11 -6 -49 -28q-3 -2 -62 -35l-69 -39q-135 -75 -228 -103q-96 -28 -225 -28h-12q-64 0 -64 122t62 122h14l43 2q233 11 483 131q70 33 123 72q-80 18 -145 51l-61 30q-91 45 -154 45
q-97 0 -160 -96q-12 -18 -20 -18q-9 0 -9 14q0 12 11 47l10 35q42 142 87.5 197t121.5 55q83 0 250 -90q25 -14 84 -43q89 -45 161 -66q107 -30 228 -30q4 0 78 4l-136 -265h-30q-51 0 -90 -4q-79 -8 -136 -28q14 -43 117 -43h303q19 0 19 -23v-198zM628 1337l-119 -121
l119 -120l-129 -127l-131 127l121 120l-121 121l131 129z" />
    <glyph glyph-name="uni0682.fina" unicode="&#x682;" horiz-adv-x="1120" 
d="M1145 23q0 -23 -23 -23h-174q-138 0 -199.5 58.5t-61.5 164.5q0 18 1 37l2 29q-124 -22 -262 -105q-238 -142 -238 -362q0 -171 153 -257q60 -34 142 -46q107 -17 211 -17q112 0 142 2q41 5 151 17l58 6q57 6 47 6q12 4 32 4q11 0 11 -2q0 -11 -58 -61l-59 -52
q-137 -118 -219 -149q-60 -23 -176 -23q-278 0 -408.5 114.5t-130.5 359.5q0 207 102 376q54 89 146.5 169t181.5 116l8 4q0 5 -75 25q-5 0 -39 8q-26 6 -39 6q-25 6 -56 6q-84 0 -143 -72q-20 -24 -29 -24q-6 0 -6 10q0 2 10 43l7 25l8 26q74 242 207 242q42 0 135 -29
q155 -48 248 -59q66 -8 176 -8q80 0 125 4l24 2h4q0 -3 -4 -6l-166 -271l-26 -4l-43 -4l-37 -2l-23 -2l-14 -2q0 -33 35 -45q12 -2 37 -6q65 -8 274 -8h12q19 0 19 -23v-198zM728 1190l-119 -121l119 -120l-129 -127l-131 127l121 120l-121 121l131 129z" />
    <glyph glyph-name="uni0685.init" unicode="&#x685;" horiz-adv-x="1167" 
d="M1126 571l-137 -262h-61q-80 0 -164 -24q-54 -16 -117 -47q-28 -15 -125 -70q-23 -13 -63 -35q-70 -37 -154 -70q-76 -29 -164 -47q-82 -16 -135 -16h-12q-64 0 -64 122t62 122h8q55 0 145 14q98 15 174 41l8 2q43 15 86.5 31.5t84.5 34.5l90 39l43 16l20 10
q-28 11 -37 14q-58 23 -137 60q-33 16 -80 39q-60 26 -114 26q-99 0 -160 -94q-13 -20 -23 -20q-8 0 -8 12q0 25 33 123q25 75 51 119q57 94 141 94q27 0 56 -6q57 -13 123 -45l135 -68q116 -58 186 -82q109 -37 256 -37q8 0 53 4zM731 1306l-123 -123l-122 123l122 123z
M856 1093l-129 -131l-121 121l-120 -121l-127 131l127 129l120 -119l121 119z" />
    <glyph glyph-name="uni0685.medi" unicode="&#x685;" horiz-adv-x="1159" 
d="M1184 23q0 -23 -19 -23h-278q-111 0 -162 55q-43 48 -59 191q-21 -10 -27 -13q-11 -6 -49 -28q-3 -2 -62 -35l-69 -39q-135 -75 -228 -103q-96 -28 -225 -28h-12q-64 0 -64 122t62 122h14l43 2q233 11 483 131q70 33 123 72q-80 18 -145 51l-61 30q-91 45 -154 45
q-97 0 -160 -96q-12 -18 -20 -18q-9 0 -9 14q0 12 11 47l10 35q42 142 87.5 197t121.5 55q83 0 250 -90q25 -14 84 -43q89 -45 161 -66q107 -30 228 -30q4 0 78 4l-136 -265h-30q-51 0 -90 -4q-79 -8 -136 -28q14 -43 117 -43h303q19 0 19 -23v-198zM744 1307l-123 -123
l-122 123l122 123zM869 1094l-129 -131l-121 121l-120 -121l-127 131l127 129l120 -119l121 119z" />
    <glyph glyph-name="uni0685.fina" unicode="&#x685;" horiz-adv-x="1120" 
d="M1145 23q0 -23 -23 -23h-174q-138 0 -199.5 58.5t-61.5 164.5q0 18 1 37l2 29q-124 -22 -262 -105q-238 -142 -238 -362q0 -171 153 -257q60 -34 142 -46q107 -17 211 -17q112 0 142 2q41 5 151 17l58 6q57 6 47 6q12 4 32 4q11 0 11 -2q0 -11 -58 -61l-59 -52
q-137 -118 -219 -149q-60 -23 -176 -23q-278 0 -408.5 114.5t-130.5 359.5q0 207 102 376q54 89 146.5 169t181.5 116l8 4q0 5 -75 25q-5 0 -39 8q-26 6 -39 6q-25 6 -56 6q-84 0 -143 -72q-20 -24 -29 -24q-6 0 -6 10q0 2 10 43l7 25l8 26q74 242 207 242q42 0 135 -29
q155 -48 248 -59q66 -8 176 -8q80 0 125 4l24 2h4q0 -3 -4 -6l-166 -271l-26 -4l-43 -4l-37 -2l-23 -2l-14 -2q0 -33 35 -45q12 -2 37 -6q65 -8 274 -8h12q19 0 19 -23v-198zM840 1165l-123 -123l-122 123l122 123zM965 952l-129 -131l-121 121l-120 -121l-127 131l127 129
l120 -119l121 119z" />
    <glyph glyph-name="uni0689.fina" unicode="&#x689;" horiz-adv-x="866" 
d="M474 -161q-8 110 -154 117q-8 -33 -8 -54q0 -87 79 -87q44 0 83 24zM300 -45h-9q-121 0 -171 42.5t-50 143.5q0 62 18 117l8 25q10 28 17 28q4 -1 4 -6v-6q-2 -8 -2 -20q0 -82 209 -82q108 0 202 26q74 21 74 49q0 4 -2 19l-66 323q-2 8 -4 17q0 4 11 39l18 63l47 146
q0 6 6 6q3 0 8 -15l3 -10q0 -4 4 -16q7 -36 14 -70l14 -67l15 -74l14 -84q28 -162 63.5 -233.5t116.5 -71.5h12q17 0 17 -25v-196q0 -23 -23 -23h-39q-159 0 -192 133l-4 17l-6 -19l-6 -31q-16 -76 -103 -108q-10 -4 -20 -7q27 -33 27 -76v-6q0 -50 -34 -115
q-44 -84 -124 -84q-47 0 -74.5 25.5t-27.5 68.5q0 53 29 137z" />
    <glyph glyph-name="uni068A.fina" unicode="&#x68a;" horiz-adv-x="866" 
d="M891 23q0 -23 -23 -23h-39q-159 0 -192 133l-4 17l-6 -19l-6 -31q-16 -76 -103 -108q-100 -37 -227 -37q-121 0 -171 42.5t-50 143.5q0 62 18 117l8 25q10 28 17 28q4 -1 4 -6v-6q-2 -8 -2 -20q0 -82 209 -82q108 0 202 26q74 21 74 49q0 4 -2 19l-66 323q-2 8 -4 17
q0 4 11 39l18 63l47 146q0 6 6 6q3 0 8 -15l3 -10q0 -4 4 -16q7 -36 14 -70l14 -67l15 -74l14 -84q28 -162 63.5 -233.5t116.5 -71.5h12q17 0 17 -25v-196zM515 -291l-125 -127l-127 127l127 125z" />
    <glyph glyph-name="uni068B.fina" unicode="&#x68b;" horiz-adv-x="866" 
d="M891 23q0 -23 -23 -23h-39q-159 0 -192 133l-4 17l-6 -19l-6 -31q-16 -76 -103 -108q-100 -37 -227 -37q-121 0 -171 42.5t-50 143.5q0 62 18 117l8 25q10 28 17 28q4 -1 4 -6v-6q-2 -8 -2 -20q0 -82 209 -82q108 0 202 26q74 21 74 49q0 4 -2 19l-66 323q-2 8 -4 17
q0 4 11 39l18 63l47 146q0 6 6 6q3 0 8 -15l3 -10q0 -4 4 -16q7 -36 14 -70l14 -67l15 -74l14 -84q28 -162 63.5 -233.5t116.5 -71.5h12q17 0 17 -25v-196zM728 1198q0 -36 -16 -73t-44.5 -67.5t-68.5 -49.5t-88 -19q-24 0 -43 4t-37 16t-37 34t-44 59q-2 3 -2 5q0 1 1 2
t3 1h3q29 -4 58.5 -7t58.5 -5q3 11 5.5 24t2.5 27q0 22 -6.5 62.5t-21.5 97.5l63 74q4 3 5 4q1 0 3 -4q4 -12 8 -28.5t6.5 -33t3.5 -31t1 -22.5q0 -18 -1 -35.5t-5 -38.5l2 -2q29 42 59.5 63.5t64.5 21.5q29 0 47.5 -22t18.5 -57zM681 1146q0 17 -13.5 28.5t-36.5 11.5
q-29 0 -61 -23t-70 -68q16 -2 32 -2h33q20 0 40.5 5t37.5 12.5t27.5 17t10.5 18.5zM515 -291l-125 -127l-127 127l127 125z" />
    <glyph glyph-name="uni068F.fina" unicode="&#x68f;" horiz-adv-x="866" 
d="M891 23q0 -23 -23 -23h-39q-159 0 -192 133l-4 17l-6 -19l-6 -31q-16 -76 -103 -108q-100 -37 -227 -37q-121 0 -171 42.5t-50 143.5q0 62 18 117l8 25q10 28 17 28q4 -1 4 -6v-6q-2 -8 -2 -20q0 -82 209 -82q108 0 202 26q74 21 74 49q0 4 -2 19l-66 323q-2 8 -4 17
q0 4 11 39l18 63l47 146q0 6 6 6q3 0 8 -15l3 -10q0 -4 4 -16q7 -36 14 -70l14 -67l15 -74l14 -84q28 -162 63.5 -233.5t116.5 -71.5h12q17 0 17 -25v-196zM508 962l-122 123l122 123l123 -123zM627 1169l-121 119l-120 -119l-127 129l127 131l120 -121l121 121l129 -131z
" />
    <glyph glyph-name="uni0690.fina" unicode="&#x690;" horiz-adv-x="866" 
d="M891 23q0 -23 -23 -23h-39q-159 0 -192 133l-4 17l-6 -19l-6 -31q-16 -76 -103 -108q-100 -37 -227 -37q-121 0 -171 42.5t-50 143.5q0 62 18 117l8 25q10 28 17 28q4 -1 4 -6v-6q-2 -8 -2 -20q0 -82 209 -82q108 0 202 26q74 21 74 49q0 4 -2 19l-66 323q-2 8 -4 17
q0 4 11 39l18 63l47 146q0 6 6 6q3 0 8 -15l3 -10q0 -4 4 -16q7 -36 14 -70l14 -67l15 -74l14 -84q28 -162 63.5 -233.5t116.5 -71.5h12q17 0 17 -25v-196zM388 1188l-104 107l112 114l107 -106l106 106l115 -114l-107 -107l107 -106l-115 -115l-106 105l-107 -105l-112 115
zM601 1188l-98 97l-99 -97l99 -98z" />
    <glyph glyph-name="uni0692.fina" unicode="&#x692;" horiz-adv-x="782" 
d="M807 23q0 -23 -23 -23h-26q-40 0 -94 20v-14q-19 -203 -105.5 -330t-206.5 -127q-87 0 -202 43q-63 24 -105 46q-45 23 -45 34q0 9 8 9q3 -2 23 -7q35 -8 65 -8q136 0 240 88q85 72 137 162q29 49 51 102q25 58 25 72q0 68 -133 223l-13 15l68 229l4 10q5 -1 10 -10
l23 -33l24 -39l54 -82q1 -3 22 -38q11 -16 25 -37q23 -37 47 -56q38 -28 96 -28h12q19 0 19 -23v-198zM425 806l169 154h56l-168 -261h-113l-169 261h56z" />
    <glyph glyph-name="uni0693.fina" unicode="&#x693;" horiz-adv-x="782" 
d="M580 -555q-8 110 -154 117q-8 -33 -8 -54q0 -87 79 -87q44 0 83 24zM405 -444q-26 -7 -53 -7q-87 0 -202 43q-63 24 -105 46q-45 23 -45 34q0 9 8 9q3 -2 23 -7q35 -8 65 -8q136 0 240 88q85 72 137 162q29 49 51 102q25 58 25 72q0 68 -133 223l-13 15l68 229l4 10
q5 -1 10 -10l23 -33l24 -39l54 -82q1 -3 22 -38q11 -16 25 -37q23 -37 47 -56q38 -28 96 -28h12q19 0 19 -23v-198q0 -23 -23 -23h-26q-40 0 -94 20v-14q-19 -203 -105 -330q-11 -15 -22 -29q89 -30 94 -132v-6q0 -50 -34 -115q-44 -84 -124 -84q-47 0 -74.5 25.5
t-27.5 68.5q0 53 29 137z" />
    <glyph glyph-name="uni0694.fina" unicode="&#x694;" horiz-adv-x="782" 
d="M807 23q0 -23 -23 -23h-26q-40 0 -94 20v-14q-19 -203 -105.5 -330t-206.5 -127q-87 0 -202 43q-63 24 -105 46q-45 23 -45 34q0 9 8 9q3 -2 23 -7q35 -8 65 -8q136 0 240 88q85 72 137 162q29 49 51 102q25 58 25 72q0 68 -133 223l-13 15l68 229l4 10q5 -1 10 -10
l23 -33l24 -39l54 -82q1 -3 22 -38q11 -16 25 -37q23 -37 47 -56q38 -28 96 -28h12q19 0 19 -23v-198zM624 -678l-125 -127l-127 127l127 125z" />
    <glyph glyph-name="uni0695.fina" unicode="&#x695;" horiz-adv-x="782" 
d="M807 23q0 -23 -23 -23h-26q-40 0 -94 20v-14q-19 -203 -105.5 -330t-206.5 -127q-87 0 -202 43q-63 24 -105 46q-45 23 -45 34q0 9 8 9q3 -2 23 -7q35 -8 65 -8q136 0 240 88q85 72 137 162q29 49 51 102q25 58 25 72q0 68 -133 223l-13 15l68 229l4 10q5 -1 10 -10
l23 -33l24 -39l54 -82q1 -3 22 -38q11 -16 25 -37q23 -37 47 -56q38 -28 96 -28h12q19 0 19 -23v-198zM369 -727l169 154h56l-168 -261h-113l-169 261h56z" />
    <glyph glyph-name="uni0696.fina" unicode="&#x696;" horiz-adv-x="782" 
d="M807 23q0 -23 -23 -23h-26q-40 0 -94 20v-14q-19 -203 -105.5 -330t-206.5 -127q-87 0 -202 43q-63 24 -105 46q-45 23 -45 34q0 9 8 9q3 -2 23 -7q35 -8 65 -8q136 0 240 88q85 72 137 162q29 49 51 102q25 58 25 72q0 68 -133 223l-13 15l68 229l4 10q5 -1 10 -10
l23 -33l24 -39l54 -82q1 -3 22 -38q11 -16 25 -37q23 -37 47 -56q38 -28 96 -28h12q19 0 19 -23v-198zM624 -678l-125 -127l-127 127l127 125zM377 0l-125 -127l-127 127l127 125z" />
    <glyph glyph-name="uni0697.fina" unicode="&#x697;" horiz-adv-x="782" 
d="M807 23q0 -23 -23 -23h-26q-40 0 -94 20v-14q-19 -203 -105.5 -330t-206.5 -127q-87 0 -202 43q-63 24 -105 46q-45 23 -45 34q0 9 8 9q3 -2 23 -7q35 -8 65 -8q136 0 240 88q85 72 137 162q29 49 51 102q25 58 25 72q0 68 -133 223l-13 15l68 229l4 10q5 -1 10 -10
l23 -33l24 -39l54 -82q1 -3 22 -38q11 -16 25 -37q23 -37 47 -56q38 -28 96 -28h12q19 0 19 -23v-198zM623 781l-115 -115l-106 105l-107 -105l-112 115l112 114l107 -106l106 106z" />
    <glyph glyph-name="uni0699.fina" unicode="&#x699;" horiz-adv-x="782" 
d="M807 23q0 -23 -23 -23h-26q-40 0 -94 20v-14q-19 -203 -105.5 -330t-206.5 -127q-87 0 -202 43q-63 24 -105 46q-45 23 -45 34q0 9 8 9q3 -2 23 -7q35 -8 65 -8q136 0 240 88q85 72 137 162q29 49 51 102q25 58 25 72q0 68 -133 223l-13 15l68 229l4 10q5 -1 10 -10
l23 -33l24 -39l54 -82q1 -3 22 -38q11 -16 25 -37q23 -37 47 -56q38 -28 96 -28h12q19 0 19 -23v-198zM295 888l-104 107l112 114l107 -106l106 106l115 -114l-107 -107l107 -106l-115 -115l-106 105l-107 -105l-112 115zM508 888l-98 97l-99 -97l99 -98z" />
    <glyph glyph-name="uni069A.init" unicode="&#x69a;" horiz-adv-x="1024" 
d="M958 367q0 -101 -40 -226q-48 -145 -150 -145q-47 0 -92 12q-79 22 -125 47l-19 11l-12 6l-6 -6l-10 -13q-43 -51 -199 -51q-77 0 -107 5q-18 3 -18 16v8q2 4 3 9t1 9q-4 -4 -7.5 -6.5t-12.5 -7.5q-43 -29 -105 -33l-28 -2h-37q-64 0 -64 122t62 122h14l47 2q97 4 127 30
q25 23 60 103q22 51 39 51q18 0 18 -29q0 -26 -25 -94l-8 -22q-3 -7 -6 -17q-2 -3 -4 -8q0 -3 41 -6l31 -2h82q38 0 79 12q21 6 29 23q3 5 10 16q4 8 13 33q46 102 65 102q17 0 17 -20q0 -10 -9 -35l-10 -31l-10 -37l-10 -24q81 -47 198 -47q25 0 41 2q-2 10 -10 41
q-3 14 -18 63l-7 17l109 204q4 7 6 15l8 -13l6 -18q43 -129 43 -188zM594 -291l-125 -127l-127 127l127 125zM594 712l-125 -127l-127 127l127 125z" />
    <glyph glyph-name="uni069A.medi" unicode="&#x69a;" horiz-adv-x="1020" 
d="M1044 23q0 -23 -22 -23h-39q-88 0 -113 86l-4 14l-8 -22q-31 -86 -119 -86q-120 0 -229 84q-49 -57 -99 -72q-30 -8 -120 -8q-115 0 -115 24q0 9 4 21l2 6l-8 -6l-24 -16q-37 -25 -119 -25h-37q-64 0 -64 122t64 122h67q74 0 105 15q38 19 63 79l13 29q22 51 39 51
q18 0 18 -29q0 -18 -27 -98l-6 -19l-8 -16q-2 -6 -2 -10q0 -6 39 -6h35q10 0 28 -2q102 0 138 20q23 13 45 57q20 41 34 74q32 72 52 72q14 0 14 -21q0 -15 -8 -34l-10 -33l-11 -35q-8 -27 -18 -53q92 -49 180 -49q51 0 62 8q8 8 28 73l10 33q24 74 46 74q16 0 16 -27
q0 -14 -2 -20q-10 -48 -10 -58q0 -75 90 -75h12q18 0 18 -23v-198zM711 -291l-125 -127l-127 127l127 125zM711 736l-125 -127l-127 127l127 125z" />
    <glyph glyph-name="uni069A.fina" unicode="&#x69a;" horiz-adv-x="1722" 
d="M1747 23q0 -23 -23 -23h-38q-89 0 -113 86l-4 14l-10 -22q-40 -86 -117 -86q-121 0 -230 84l-10 10l-12 -14l-19 -21q-57 -63 -161 -63q-23 0 -45 4l-7 -39l-8 -49q-9 -58 -35 -135q-22 -70 -77 -115q-74 -61 -194 -99t-238 -38q-159 0 -249.5 84t-90.5 233
q0 218 137 445q21 34 30 34t9 -6l-4 -10q-4 -9 -11 -27q-61 -136 -61 -245q0 -120 76.5 -188t210.5 -68q253 0 405 129q0 88 -16 170q-9 43 -21 88q-2 9 -30 90l104 219q0 6 4 6q2 -4 6 -16q2 -6 13 -31l14 -43q12 -29 18 -41q24 -47 41 -66q37 -38 107 -38q61 0 98 24
q29 20 47 53q12 23 35 76q31 72 49 72q16 0 16 -23q0 -13 -18 -65l-12 -35l-10 -35l-7 -18q51 -26 96 -37.5t93 -11.5q42 0 57 19q9 11 25 62l10 33q23 74 45 74q16 0 16 -27q0 -14 -2 -20q-10 -48 -10 -58q0 -75 90 -75h13q18 0 18 -23v-198zM1413 -291l-125 -127l-127 127
l127 125zM1413 735l-125 -127l-127 127l127 125z" />
    <glyph glyph-name="uni069B.init" unicode="&#x69b;" horiz-adv-x="1024" 
d="M958 367q0 -101 -40 -226q-48 -145 -150 -145q-47 0 -92 12q-79 22 -125 47l-19 11l-12 6l-6 -6l-10 -13q-43 -51 -199 -51q-77 0 -107 5q-18 3 -18 16v8q2 4 3 9t1 9q-4 -4 -7.5 -6.5t-12.5 -7.5q-43 -29 -105 -33l-28 -2h-37q-64 0 -64 122t62 122h14l47 2q97 4 127 30
q25 23 60 103q22 51 39 51q18 0 18 -29q0 -26 -25 -94l-8 -22q-3 -7 -6 -17q-2 -3 -4 -8q0 -3 41 -6l31 -2h82q38 0 79 12q21 6 29 23q3 5 10 16q4 8 13 33q46 102 65 102q17 0 17 -20q0 -10 -9 -35l-10 -31l-10 -37l-10 -24q81 -47 198 -47q25 0 41 2q-2 10 -10 41
q-3 14 -18 63l-7 17l109 204q4 7 6 15l8 -13l6 -18q43 -129 43 -188zM467 -596l-115 114l115 115l114 -115zM573 -383l-106 106l-107 -106l-112 114l112 115l107 -105l106 105l115 -115z" />
    <glyph glyph-name="uni069B.medi" unicode="&#x69b;" horiz-adv-x="1020" 
d="M1044 23q0 -23 -22 -23h-39q-88 0 -113 86l-4 14l-8 -22q-31 -86 -119 -86q-120 0 -229 84q-49 -57 -99 -72q-30 -8 -120 -8q-115 0 -115 24q0 9 4 21l2 6l-8 -6l-24 -16q-37 -25 -119 -25h-37q-64 0 -64 122t64 122h67q74 0 105 15q38 19 63 79l13 29q22 51 39 51
q18 0 18 -29q0 -18 -27 -98l-6 -19l-8 -16q-2 -6 -2 -10q0 -6 39 -6h35q10 0 28 -2q102 0 138 20q23 13 45 57q20 41 34 74q32 72 52 72q14 0 14 -21q0 -15 -8 -34l-10 -33l-11 -35q-8 -27 -18 -53q92 -49 180 -49q51 0 62 8q8 8 28 73l10 33q24 74 46 74q16 0 16 -27
q0 -14 -2 -20q-10 -48 -10 -58q0 -75 90 -75h12q18 0 18 -23v-198zM587 -596l-115 114l115 115l114 -115zM693 -383l-106 106l-107 -106l-112 114l112 115l107 -105l106 105l115 -115z" />
    <glyph glyph-name="uni069B.fina" unicode="&#x69b;" horiz-adv-x="1722" 
d="M1747 23q0 -23 -23 -23h-38q-89 0 -113 86l-4 14l-10 -22q-40 -86 -117 -86q-121 0 -230 84l-10 10l-12 -14l-19 -21q-57 -63 -161 -63q-23 0 -45 4l-7 -39l-8 -49q-9 -58 -35 -135q-22 -70 -77 -115q-74 -61 -194 -99t-238 -38q-159 0 -249.5 84t-90.5 233
q0 218 137 445q21 34 30 34t9 -6l-4 -10q-4 -9 -11 -27q-61 -136 -61 -245q0 -120 76.5 -188t210.5 -68q253 0 405 129q0 88 -16 170q-9 43 -21 88q-2 9 -30 90l104 219q0 6 4 6q2 -4 6 -16q2 -6 13 -31l14 -43q12 -29 18 -41q24 -47 41 -66q37 -38 107 -38q61 0 98 24
q29 20 47 53q12 23 35 76q31 72 49 72q16 0 16 -23q0 -13 -18 -65l-12 -35l-10 -35l-7 -18q51 -26 96 -37.5t93 -11.5q42 0 57 19q9 11 25 62l10 33q23 74 45 74q16 0 16 -27q0 -14 -2 -20q-10 -48 -10 -58q0 -75 90 -75h13q18 0 18 -23v-198zM1277 -596l-115 114l115 115
l114 -115zM1383 -383l-106 106l-107 -106l-112 114l112 115l107 -105l106 105l115 -115z" />
    <glyph glyph-name="uni069C.init" unicode="&#x69c;" horiz-adv-x="1024" 
d="M958 367q0 -101 -40 -226q-48 -145 -150 -145q-47 0 -92 12q-79 22 -125 47l-19 11l-12 6l-6 -6l-10 -13q-43 -51 -199 -51q-77 0 -107 5q-18 3 -18 16v8q2 4 3 9t1 9q-4 -4 -7.5 -6.5t-12.5 -7.5q-43 -29 -105 -33l-28 -2h-37q-64 0 -64 122t62 122h14l47 2q97 4 127 30
q25 23 60 103q22 51 39 51q18 0 18 -29q0 -26 -25 -94l-8 -22q-3 -7 -6 -17q-2 -3 -4 -8q0 -3 41 -6l31 -2h82q38 0 79 12q21 6 29 23q3 5 10 16q4 8 13 33q46 102 65 102q17 0 17 -20q0 -10 -9 -35l-10 -31l-10 -37l-10 -24q81 -47 198 -47q25 0 41 2q-2 10 -10 41
q-3 14 -18 63l-7 17l109 204q4 7 6 15l8 -13l6 -18q43 -129 43 -188zM690 700l-115 -114l-104 106l-106 -106l-113 114l113 115l104 -104l106 104zM584 913l-115 -114l-115 114l115 115zM467 -596l-115 114l115 115l114 -115zM573 -383l-106 106l-107 -106l-112 114l112 115
l107 -105l106 105l115 -115z" />
    <glyph glyph-name="uni069C.medi" unicode="&#x69c;" horiz-adv-x="1020" 
d="M700 934l-114 -115l-115 115l115 115zM807 721l-115 -115l-106 105l-107 -105l-112 115l112 115l107 -107l106 107zM1044 23q0 -23 -22 -23h-39q-88 0 -113 86l-4 14l-8 -22q-31 -86 -119 -86q-120 0 -229 84q-49 -57 -99 -72q-30 -8 -120 -8q-115 0 -115 24q0 9 4 21
l2 6l-8 -6l-24 -16q-37 -25 -119 -25h-37q-64 0 -64 122t64 122h67q74 0 105 15q38 19 63 79l13 29q22 51 39 51q18 0 18 -29q0 -18 -27 -98l-6 -19l-8 -16q-2 -6 -2 -10q0 -6 39 -6h35q10 0 28 -2q102 0 138 20q23 13 45 57q20 41 34 74q32 72 52 72q14 0 14 -21
q0 -15 -8 -34l-10 -33l-11 -35q-8 -27 -18 -53q92 -49 180 -49q51 0 62 8q8 8 28 73l10 33q24 74 46 74q16 0 16 -27q0 -14 -2 -20q-10 -48 -10 -58q0 -75 90 -75h12q18 0 18 -23v-198zM587 -596l-115 114l115 115l114 -115zM693 -383l-106 106l-107 -106l-112 114l112 115
l107 -105l106 105l115 -115z" />
    <glyph glyph-name="uni069C.fina" unicode="&#x69c;" horiz-adv-x="1722" 
d="M1747 23q0 -23 -23 -23h-38q-89 0 -113 86l-4 14l-10 -22q-40 -86 -117 -86q-121 0 -230 84l-10 10l-12 -14l-19 -21q-57 -63 -161 -63q-23 0 -45 4l-7 -39l-8 -49q-9 -58 -35 -135q-22 -70 -77 -115q-74 -61 -194 -99t-238 -38q-159 0 -249.5 84t-90.5 233
q0 218 137 445q21 34 30 34t9 -6l-4 -10q-4 -9 -11 -27q-61 -136 -61 -245q0 -120 76.5 -188t210.5 -68q253 0 405 129q0 88 -16 170q-9 43 -21 88q-2 9 -30 90l104 219q0 6 4 6q2 -4 6 -16q2 -6 13 -31l14 -43q12 -29 18 -41q24 -47 41 -66q37 -38 107 -38q61 0 98 24
q29 20 47 53q12 23 35 76q31 72 49 72q16 0 16 -23q0 -13 -18 -65l-12 -35l-10 -35l-7 -18q51 -26 96 -37.5t93 -11.5q42 0 57 19q9 11 25 62l10 33q23 74 45 74q16 0 16 -27q0 -14 -2 -20q-10 -48 -10 -58q0 -75 90 -75h13q18 0 18 -23v-198zM1507 721l-114 -115l-105 105
l-106 -105l-113 115l113 115l104 -107l107 107zM1401 934l-115 -115l-112 115l112 113zM1277 -596l-115 114l115 115l114 -115zM1383 -383l-106 106l-107 -106l-112 114l112 115l107 -105l106 105l115 -115z" />
    <glyph glyph-name="uni069D.init" unicode="&#x69d;" horiz-adv-x="1149" 
d="M1083 475q0 -65 -43 -168q-66 -158 -139 -221q-107 -92 -448 -92q-152 0 -203 88l-6 14l-8 -14l-17 -25q-18 -27 -51 -41q-39 -16 -123 -16h-51q-64 0 -64 122t64 122h96q65 0 95.5 18t50.5 74l12 35q29 82 57 82q19 0 19 -21q0 -8 -5 -24q-8 -54 -8 -72q0 -78 76 -84
l23 24q24 27 110 125q110 126 160 177q103 104 201 104q79 0 140.5 -62.5t61.5 -144.5zM936 313q-34 148 -152 148q-60 0 -123 -46.5t-174 -172.5q54 -4 58 -4q111 0 229 20q109 19 162 55zM880 -291l-125 -127l-117 115l-114 -115l-127 127l127 125l114 -113l117 113z" />
    <glyph glyph-name="uni069D.medi" unicode="&#x69d;" horiz-adv-x="1149" 
d="M1174 23q0 -23 -23 -23h-8l-639 2q-102 0 -153 15t-77 53l-12 22l-4 8l-10 -18q-46 -82 -191 -82h-63q-64 0 -64 122t64 122h125q69 0 108 39q18 17 39 82q29 86 53 86q15 0 15 -19q0 -10 -4 -26q-1 -11 -4 -39q-2 -17 -2 -31q0 -65 57 -80l22 25q25 26 111 125
q102 116 162 176q104 104 198 104q83 0 144 -63.5t61 -149.5q0 -94 -78 -229h154q19 0 19 -23v-198zM938 319q-45 150 -150 150q-64 0 -128 -47t-177 -176q49 -4 58 -4q124 0 239.5 22.5t157.5 54.5zM880 -291l-125 -127l-117 115l-114 -115l-127 127l127 125l114 -113
l117 113z" />
    <glyph glyph-name="uni069D.fina" unicode="&#x69d;" horiz-adv-x="1786" 
d="M1810 23q0 -23 -18 -23l-838 4q-10 -84 -28 -158q-26 -105 -70 -151q-70 -73 -194.5 -118.5t-258.5 -45.5q-337 0 -337 315q0 97 24 195q15 60 53 152q57 135 82 135q6 0 6 -9q0 -3 -2 -8q-4 -9 -12 -26q-59 -138 -59 -248q0 -118 76.5 -186t209.5 -68q263 0 406 133
q0 160 -68 344l105 221q1 3 4 6q4 -6 6 -16l12 -33q36 -96 52 -119q26 -40 83 -63l23 25q24 26 111 125q59 67 159 176q109 106 201 106q83 0 144 -63.5t61 -151.5q0 -92 -80 -229h129q16 0 18 -23v-198zM1595 317q-36 148 -153 148q-60 0 -122.5 -46t-172.5 -173
q24 -2 57 -2q109 0 228 20q111 20 163 53zM1595 -291l-125 -127l-117 115l-114 -115l-127 127l127 125l114 -113l117 113z" />
    <glyph glyph-name="uni069E.init" unicode="&#x69e;" horiz-adv-x="1149" 
d="M1083 475q0 -65 -43 -168q-66 -158 -139 -221q-107 -92 -448 -92q-152 0 -203 88l-6 14l-8 -14l-17 -25q-18 -27 -51 -41q-39 -16 -123 -16h-51q-64 0 -64 122t64 122h96q65 0 95.5 18t50.5 74l12 35q29 82 57 82q19 0 19 -21q0 -8 -5 -24q-8 -54 -8 -72q0 -78 76 -84
l23 24q24 27 110 125q110 126 160 177q103 104 201 104q79 0 140.5 -62.5t61.5 -144.5zM936 313q-34 148 -152 148q-60 0 -123 -46.5t-174 -172.5q54 -4 58 -4q111 0 229 20q109 19 162 55zM899 1102l-114 -115l-115 115l115 115zM1006 889l-115 -115l-106 105l-107 -105
l-112 115l112 115l107 -107l106 107z" />
    <glyph glyph-name="uni069E.medi" unicode="&#x69e;" horiz-adv-x="1149" 
d="M1174 23q0 -23 -23 -23h-8l-639 2q-102 0 -153 15t-77 53l-12 22l-4 8l-10 -18q-46 -82 -191 -82h-63q-64 0 -64 122t64 122h125q69 0 108 39q18 17 39 82q29 86 53 86q15 0 15 -19q0 -10 -4 -26q-1 -11 -4 -39q-2 -17 -2 -31q0 -65 57 -80l22 25q25 26 111 125
q102 116 162 176q104 104 198 104q83 0 144 -63.5t61 -149.5q0 -94 -78 -229h154q19 0 19 -23v-198zM938 319q-45 150 -150 150q-64 0 -128 -47t-177 -176q49 -4 58 -4q124 0 239.5 22.5t157.5 54.5zM899 1107l-114 -115l-115 115l115 115zM1006 894l-115 -115l-106 105
l-107 -105l-112 115l112 115l107 -107l106 107z" />
    <glyph glyph-name="uni069E.fina" unicode="&#x69e;" horiz-adv-x="1786" 
d="M1810 23q0 -23 -18 -23l-838 4q-10 -84 -28 -158q-26 -105 -70 -151q-70 -73 -194.5 -118.5t-258.5 -45.5q-337 0 -337 315q0 97 24 195q15 60 53 152q57 135 82 135q6 0 6 -9q0 -3 -2 -8q-4 -9 -12 -26q-59 -138 -59 -248q0 -118 76.5 -186t209.5 -68q263 0 406 133
q0 160 -68 344l105 221q1 3 4 6q4 -6 6 -16l12 -33q36 -96 52 -119q26 -40 83 -63l23 25q24 26 111 125q59 67 159 176q109 106 201 106q83 0 144 -63.5t61 -151.5q0 -92 -80 -229h129q16 0 18 -23v-198zM1595 317q-36 148 -153 148q-60 0 -122.5 -46t-172.5 -173
q24 -2 57 -2q109 0 228 20q111 20 163 53zM1562 1107l-114 -115l-115 115l115 115zM1669 894l-115 -115l-106 105l-107 -105l-112 115l112 115l107 -107l106 107z" />
    <glyph glyph-name="uni069F.init" unicode="&#x69f;" horiz-adv-x="1108" 
d="M1042 428q0 -89 -118 -233q-72 -88 -142 -136q-86 -59 -223 -59h-565q-64 0 -64 122t64 122h178l102 82l41 34q2 29 2 58v215q0 162 -6 285q-2 46 -10 180q-29 34 -29 88q0 71 47 164q25 48 33 55q4 -2 4 -8q18 -83 52 -133q64 -95 161 -136q-9 -32 -22 -65
q-4 -10 -21 -43q-18 -37 -39 -62l2 -26v-41l3 -55v-74q0 -124 -21 -211l-8 -35l-8 -27l-9 -24l5 -4l20 14l35 31q12 9 47 35l49 37q96 67 182 67q100 0 179 -66.5t79 -150.5zM881 287q-1 5 -7 18q-9 18 -32 51q-61 68 -154 68q-83 0 -186 -57q-55 -30 -88 -54q-8 -4 -33 -22
q-12 -8 -31 -23l-35 -24l-18 -15q3 -2 27 -2q67 0 110 2l88 4q12 1 51 3l62 4l61 8q185 24 185 39zM890 1148l-114 -115l-115 115l115 115zM997 935l-115 -115l-106 105l-107 -105l-112 115l112 115l107 -107l106 107z" />
    <glyph glyph-name="uni069F.medi" unicode="&#x69f;" horiz-adv-x="1090" 
d="M1114 23q0 -23 -18 -23h-1102q-64 0 -64 122t64 122h164l30 22q22 16 84 64l41 32q2 29 2 60v45l-2 68l2 102v12q0 31 -2 135q-1 81 -4 138q-2 46 -10 178q-29 34 -29 88q0 69 47 164q24 47 33 55q4 -1 4 -8q18 -83 52 -133q61 -90 161 -136q-9 -31 -22 -63
q-7 -14 -21 -45q-18 -37 -39 -61l2 -25v-43l2 -53v-76q0 -122 -20 -209l-8 -35l-8 -28l-9 -25l5 -4l18 14l37 31q12 9 47 37q28 22 49 37q97 67 180 67q102 0 181 -66t79 -151q0 -76 -88 -188h144q18 0 18 -23v-198zM879 289q0 6 -7 18q-15 32 -32 51q-59 68 -156 68
q-76 0 -184 -57q-20 -11 -88 -54q-10 -5 -33 -20q-18 -11 -33 -23l-51 -39q5 -4 27 -4h30q21 0 39 2h41l88 5q11 1 51 4q26 1 60 4l63 6q185 18 185 39zM905 1176l-114 -115l-115 115l115 115zM1012 963l-115 -115l-106 105l-107 -105l-112 115l112 115l107 -107l106 107z
" />
    <glyph glyph-name="uni069F.fina" unicode="&#x69f;" horiz-adv-x="1307" 
d="M1331 23q0 -23 -22 -23h-59q-2 0 -562 -12l-125 -2q-199 0 -315.5 64.5t-192.5 215.5l-2 6h8q6 0 13 -1t10 -1q23 0 79 -7q68 -8 83 -9l104 -8q2 0 12.5 -1t18.5 -1l39 30l39 33l78 62q8 131 8 198v97q0 108 -2 122q0 23 -4 99q-5 91 -7 127l-2 61l-2 33q-26 53 -26 100
q0 74 47 160l12 23q4 12 6 15t4 5l2 4q2 -4 2 -12l3 -15q19 -136 215 -256q-21 -89 -84 -161v-25q0 -24 2 -81t2 -83q0 -125 -21 -217l-8 -37l-8 -26l-8 -25l4 -4q61 47 110 82q147 104 230 104q95 0 172.5 -67.5t77.5 -149.5q0 -68 -86 -196h137q18 0 18 -23v-198z
M1102 295q0 50 -66 102q-53 43 -133 43q-132 0 -340 -155l-33 -25q-11 -8 -22 -18q4 -4 18 -4h64l31 2h34l41 2q37 1 99 6l116 8q4 1 50 6q141 17 141 33zM1136 1180l-114 -115l-115 115l115 115zM1243 967l-115 -115l-106 105l-107 -105l-112 115l112 115l107 -107l106 107
z" />
    <glyph glyph-name="uni06A0.init" unicode="&#x6a0;" horiz-adv-x="827" 
d="M795 381q-1 -4 -7 -12l-143 -234q-19 -2 -55 -10q-42 -8 -54 -11.5t-53 -15.5l-55 -18l-59 -19q-78 -24 -195 -43q-30 -6 -63 -10q-76 -8 -105 -8h-12q-64 0 -64 122t62 122h14l158 8l-14 22q-44 68 -44 115q0 74 50 166q98 184 243 184q95 0 191 -73q35 -27 74 -72
q30 -35 30 -45h-2q-3 0 -10 2q-16 6 -53 16q-90 23 -156 23q-125 0 -237 -78q74 -156 237 -211l35 8l49 15l51 14l47 12l43 15q24 6 62 16l18 4h8q9 0 9 -4zM643 963l-114 -115l-105 105l-106 -105l-113 115l113 115l104 -107l107 107zM537 1176l-115 -115l-112 115l112 113
z" />
    <glyph glyph-name="uni06A0.medi" unicode="&#x6a0;" horiz-adv-x="727" 
d="M752 23q0 -23 -19 -23h-104q-95 0 -144 26t-90 95l-6 10l-12 -10l-23 -19q-63 -52 -145 -77q-78 -25 -186 -25h-29q-64 0 -64 122t62 122h14l78 2q82 2 145 16q58 13 111 47q-35 78 -115 78q-56 0 -80 -20q-3 -2 -8 -5v3q0 2 2 14l11 33q8 28 36 96q33 79 70 100
q72 41 182 41q183 0 183 -141q0 -110 -115 -240q18 -7 61 -18q42 -6 109 -6h57q19 0 19 -23v-198zM590 939l-114 -115l-105 105l-106 -105l-113 115l113 115l104 -107l107 107zM484 1152l-115 -115l-112 115l112 113z" />
    <glyph glyph-name="uni06A0.fina" unicode="&#x6a0;" horiz-adv-x="918" 
d="M1122 -532q0 -13 -57 -64l-57 -51q-118 -105 -215 -141q-66 -25 -181 -25q-265 0 -391 92q-155 114 -155 381q0 168 75 326q36 73 88 139q87 107 177 160l49 28l26 17q-32 61 -100 61q-41 0 -68 -18q-3 -2 -6.5 -5t-7.5 -3v2q0 3 2 10l4 18l8 33q27 105 58 150
q47 67 219 67q194 0 194 -147q0 -85 -88 -191q67 -63 222 -63h71q10 0 15.5 -4t5.5 -21v-194q0 -25 -17 -25h-190q-47 0 -98 14q-47 13 -84 43q-49 39 -86 127l-29 -16l-37 -23l-45 -28q-37 -24 -102 -70q-47 -37 -86 -92q-72 -100 -72 -221q0 -301 530 -301q106 0 135 2
q26 2 74 6q81 7 125 14l39 6q39 7 37 7q6 2 16 2zM776 904l-114 -115l-105 105l-106 -105l-113 115l113 115l104 -107l107 107zM670 1117l-115 -115l-112 115l112 113z" />
    <glyph glyph-name="uni06A1.init" unicode="&#x6a1;" horiz-adv-x="596" 
d="M530 459q0 -114 -44.5 -232t-102.5 -159q-94 -68 -377 -68h-12q-64 0 -64 122t62 122h14l60 2q74 2 198 8q40 3 84 12q25 5 60 23q12 46 12 90q0 12 -4 39q-1 9 -4 26q-1 8 -6 23q-3 6 -7 22q-30 -127 -161 -127q-123 0 -123 117q0 98 45 215q62 162 159 162
q87 0 149 -117.5t62 -279.5zM373 567q-41 103 -107 103q-21 0 -47 -15q-31 -17 -31 -37q0 -42 107 -51l24 -2h23l14 2h17z" />
    <glyph glyph-name="uni06A1.medi" unicode="&#x6a1;" horiz-adv-x="702" 
d="M727 23q0 -23 -18 -23h-37q-24 0 -54 2l-59 4q-151 11 -240 66q-127 -72 -313 -72h-12q-64 0 -64 122t62 122h14l41 2h43l39 2q13 0 61 4q-8 24 -8 53q0 74 70 191q116 194 244 194q56 0 90.5 -41t34.5 -108q0 -95 -101 -271l-8 -14q66 -12 127 -12h70q16 0 18 -23v-198z
M492 397q-4 43 -28 72t-56 29q-36 0 -70 -23q-49 -32 -49 -67q0 -51 86 -101q98 45 117 90z" />
    <glyph glyph-name="uni06A1.fina" unicode="&#x6a1;" horiz-adv-x="1544" 
d="M1569 16q0 -16 -19 -16h-63q-81 0 -137 8q-92 13 -174 58q-173 -103 -504 -103q-300 0 -427.5 77t-127.5 257q0 189 94 350l14 25q13 22 21 22q4 -1 4 -6q0 -7 -8 -26q-37 -114 -37 -191q0 -109 76 -172q108 -90 368 -90q96 0 230 10q4 1 22.5 2.5t32.5 3.5q7 1 49 8
q18 4 66 17q-7 43 -7 57q0 82 58 178q133 224 260 224q57 0 91 -43t34 -115q0 -131 -111 -297q65 -10 164 -10h14q15 0 15 -23v-198zM1348 403q-7 101 -86 101q-36 0 -70 -25q-45 -33 -45 -67q0 -50 84 -99q98 46 117 90z" />
    <glyph glyph-name="uni06A2.init" unicode="&#x6a2;" horiz-adv-x="596" 
d="M530 459q0 -114 -44.5 -232t-102.5 -159q-94 -68 -377 -68h-12q-64 0 -64 122t62 122h14l60 2q74 2 198 8q40 3 84 12q25 5 60 23q12 46 12 90q0 12 -4 39q-1 9 -4 26q-1 8 -6 23q-3 6 -7 22q-30 -127 -161 -127q-123 0 -123 117q0 98 45 215q62 162 159 162
q87 0 149 -117.5t62 -279.5zM373 567q-41 103 -107 103q-21 0 -47 -15q-31 -17 -31 -37q0 -42 107 -51l24 -2h23l14 2h17zM390 -291l-125 -127l-127 127l127 125z" />
    <glyph glyph-name="uni06A2.medi" unicode="&#x6a2;" horiz-adv-x="702" 
d="M727 23q0 -23 -18 -23h-37q-24 0 -54 2l-59 4q-151 11 -240 66q-127 -72 -313 -72h-12q-64 0 -64 122t62 122h14l41 2h43l39 2q13 0 61 4q-8 24 -8 53q0 74 70 191q116 194 244 194q56 0 90.5 -41t34.5 -108q0 -95 -101 -271l-8 -14q66 -12 127 -12h70q16 0 18 -23v-198z
M492 397q-4 43 -28 72t-56 29q-36 0 -70 -23q-49 -32 -49 -67q0 -51 86 -101q98 45 117 90zM435 -291l-125 -127l-127 127l127 125z" />
    <glyph glyph-name="uni06A2.fina" unicode="&#x6a2;" horiz-adv-x="1544" 
d="M1569 16q0 -16 -19 -16h-63q-81 0 -137 8q-92 13 -174 58q-173 -103 -504 -103q-300 0 -427.5 77t-127.5 257q0 189 94 350l14 25q13 22 21 22q4 -1 4 -6q0 -7 -8 -26q-37 -114 -37 -191q0 -109 76 -172q108 -90 368 -90q96 0 230 10q4 1 22.5 2.5t32.5 3.5q7 1 49 8
q18 4 66 17q-7 43 -7 57q0 82 58 178q133 224 260 224q57 0 91 -43t34 -115q0 -131 -111 -297q65 -10 164 -10h14q15 0 15 -23v-198zM1348 403q-7 101 -86 101q-36 0 -70 -25q-45 -33 -45 -67q0 -50 84 -99q98 46 117 90zM1308 -291l-125 -127l-127 127l127 125z" />
    <glyph glyph-name="uni06A3.init" unicode="&#x6a3;" horiz-adv-x="596" 
d="M372 1088l-127 -127l-125 127l125 125zM530 459q0 -114 -44.5 -232t-102.5 -159q-94 -68 -377 -68h-12q-64 0 -64 122t62 122h14l60 2q74 2 198 8q40 3 84 12q25 5 60 23q12 46 12 90q0 12 -4 39q-1 9 -4 26q-1 8 -6 23q-3 6 -7 22q-30 -127 -161 -127q-123 0 -123 117
q0 98 45 215q62 162 159 162q87 0 149 -117.5t62 -279.5zM373 567q-41 113 -105 113q-22 0 -49 -17q-31 -18 -31 -38q0 -49 107 -58l24 -2h23l14 2h17zM372 -291l-125 -127l-127 127l127 125z" />
    <glyph glyph-name="uni06A3.medi" unicode="&#x6a3;" horiz-adv-x="672" 
d="M514 955l-125 -127l-127 127l127 125zM696 23q0 -23 -16 -23h-64q-82 0 -137 8q-92 14 -166 53q-56 -23 -139 -43q-79 -18 -168 -18h-12q-64 0 -64 122t64 122h57q35 0 109 8l18 2q-6 37 -6 55q0 80 57 176q135 224 260 224q57 0 91 -43t34 -115q0 -131 -110 -297
q90 -8 108 -8h31l25 -2h12q16 0 16 -23v-198zM477 403q-7 101 -86 101q-36 0 -69 -25q-46 -33 -46 -67q0 -50 84 -99q98 46 117 90zM484 -291l-125 -127l-127 127l127 125z" />
    <glyph glyph-name="uni06A3.fina" unicode="&#x6a3;" horiz-adv-x="1544" 
d="M1384 935l-124 -127l-127 127l127 125zM1569 16q0 -16 -19 -16h-63q-81 0 -137 8q-92 13 -174 58q-173 -103 -504 -103q-300 0 -427.5 77t-127.5 257q0 189 94 350l14 25q13 22 21 22q4 -1 4 -6q0 -7 -8 -26q-37 -114 -37 -191q0 -109 76 -172q108 -90 368 -90
q96 0 230 10q4 1 22.5 2.5t32.5 3.5q7 1 49 8q18 4 66 17q-7 43 -7 57q0 82 58 178q133 224 260 224q57 0 91 -43t34 -115q0 -131 -111 -297q65 -10 164 -10h14q15 0 15 -23v-198zM1348 403q-7 101 -86 101q-36 0 -70 -25q-45 -33 -45 -67q0 -50 84 -99q98 46 117 90z
M898 -291l-125 -127l-127 127l127 125z" />
    <glyph glyph-name="uni06A5.init" unicode="&#x6a5;" horiz-adv-x="596" 
d="M530 459q0 -114 -44.5 -232t-102.5 -159q-94 -68 -377 -68h-12q-64 0 -64 122t62 122h14l60 2q74 2 198 8q40 3 84 12q25 5 60 23q12 46 12 90q0 12 -4 39q-1 9 -4 26q-1 8 -6 23q-3 6 -7 22q-30 -127 -161 -127q-123 0 -123 117q0 98 45 215q62 162 159 162
q87 0 149 -117.5t62 -279.5zM373 567q-41 103 -107 103q-21 0 -47 -15q-31 -17 -31 -37q0 -42 107 -51l24 -2h23l14 2h17zM257 -596l-115 114l115 115l114 -115zM363 -383l-106 106l-107 -106l-112 114l112 115l107 -105l106 105l115 -115z" />
    <glyph glyph-name="uni06A5.medi" unicode="&#x6a5;" horiz-adv-x="702" 
d="M727 23q0 -23 -18 -23h-37q-24 0 -54 2l-59 4q-151 11 -240 66q-127 -72 -313 -72h-12q-64 0 -64 122t62 122h14l41 2h43l39 2q13 0 61 4q-8 24 -8 53q0 74 70 191q116 194 244 194q56 0 90.5 -41t34.5 -108q0 -95 -101 -271l-8 -14q66 -12 127 -12h70q16 0 18 -23v-198z
M492 397q-4 43 -28 72t-56 29q-36 0 -70 -23q-49 -32 -49 -67q0 -51 86 -101q98 45 117 90zM327 -596l-115 114l115 115l114 -115zM433 -383l-106 106l-107 -106l-112 114l112 115l107 -105l106 105l115 -115z" />
    <glyph glyph-name="uni06A5.fina" unicode="&#x6a5;" horiz-adv-x="1544" 
d="M1569 16q0 -16 -19 -16h-63q-81 0 -137 8q-92 13 -174 58q-173 -103 -504 -103q-300 0 -427.5 77t-127.5 257q0 189 94 350l14 25q13 22 21 22q4 -1 4 -6q0 -7 -8 -26q-37 -114 -37 -191q0 -109 76 -172q108 -90 368 -90q96 0 230 10q4 1 22.5 2.5t32.5 3.5q7 1 49 8
q18 4 66 17q-7 43 -7 57q0 82 58 178q133 224 260 224q57 0 91 -43t34 -115q0 -131 -111 -297q65 -10 164 -10h14q15 0 15 -23v-198zM1348 403q-7 101 -86 101q-36 0 -70 -25q-45 -33 -45 -67q0 -50 84 -99q98 46 117 90zM1177 -596l-115 114l115 115l114 -115zM1283 -383
l-106 106l-107 -106l-112 114l112 115l107 -105l106 105l115 -115z" />
    <glyph glyph-name="uni06A7.init" unicode="&#x6a7;" horiz-adv-x="596" 
d="M372 1088l-127 -127l-125 127l125 125zM530 459q0 -114 -44.5 -232t-102.5 -159q-94 -68 -377 -68h-12q-64 0 -64 122t62 122h14l60 2q74 2 198 8q40 3 84 12q25 5 60 23q12 46 12 90q0 12 -4 39q-1 9 -4 26q-1 8 -6 23q-3 6 -7 22q-30 -127 -161 -127q-123 0 -123 117
q0 98 45 215q62 162 159 162q87 0 149 -117.5t62 -279.5zM373 567q-41 113 -105 113q-22 0 -49 -17q-31 -18 -31 -38q0 -49 107 -58l24 -2h23l14 2h17z" />
    <glyph glyph-name="uni06A7.medi" unicode="&#x6a7;" horiz-adv-x="672" 
d="M514 955l-125 -127l-127 127l127 125zM696 23q0 -23 -16 -23h-64q-82 0 -137 8q-92 14 -166 53q-56 -23 -139 -43q-79 -18 -168 -18h-12q-64 0 -64 122t64 122h57q35 0 109 8l18 2q-6 37 -6 55q0 80 57 176q135 224 260 224q57 0 91 -43t34 -115q0 -131 -110 -297
q90 -8 108 -8h31l25 -2h12q16 0 16 -23v-198zM477 403q-7 101 -86 101q-36 0 -69 -25q-46 -33 -46 -67q0 -50 84 -99q98 46 117 90z" />
    <glyph glyph-name="uni06A7.fina" unicode="&#x6a7;" horiz-adv-x="1047" 
d="M1071 23q0 -23 -18 -23h-66q-27 -225 -110 -307q-74 -73 -205.5 -119.5t-261.5 -46.5q-344 0 -344 315q0 133 61 303t90 170q6 0 6 -10q0 -7 -10 -31q-59 -134 -59 -245q0 -120 75.5 -188t210.5 -68t266 53t191 131l-6 39l-148 4q-178 5 -178 129q0 125 60 268
q64 156 166 156q70 0 118 -80q28 -46 45 -117q7 -27 19 -112h80q18 0 18 -23v-198zM885 240q-56 118 -123 118q-28 0 -55 -18q-10 -6 -27 -23q-16 -13 -16 -22q0 -62 116 -62h51l19 3h18zM879 806l-127 -127l-125 127l125 125z" />
    <glyph glyph-name="uni06A8.init" unicode="&#x6a8;" horiz-adv-x="596" 
d="M530 459q0 -114 -44.5 -232t-102.5 -159q-94 -68 -377 -68h-12q-64 0 -64 122t62 122h14l60 2q74 2 198 8q40 3 84 12q25 5 60 23q12 46 12 90q0 12 -4 39q-1 9 -4 26q-1 8 -6 23q-3 6 -7 22q-30 -127 -161 -127q-123 0 -123 117q0 98 45 215q62 162 159 162
q87 0 149 -117.5t62 -279.5zM373 567q-41 103 -107 103q-21 0 -47 -15q-31 -17 -31 -37q0 -42 107 -51l24 -2h23l14 2h17zM404 1268l-114 -115l-115 115l115 114zM511 1055l-115 -115l-106 105l-107 -105l-112 115l112 114l107 -106l106 106z" />
    <glyph glyph-name="uni06A8.medi" unicode="&#x6a8;" horiz-adv-x="702" 
d="M727 23q0 -23 -18 -23h-37q-24 0 -54 2l-59 4q-151 11 -240 66q-127 -72 -313 -72h-12q-64 0 -64 122t62 122h14l41 2h43l39 2q13 0 61 4q-8 24 -8 53q0 74 70 191q116 194 244 194q56 0 90.5 -41t34.5 -108q0 -95 -101 -271l-8 -14q66 -12 127 -12h70q16 0 18 -23v-198z
M492 397q-4 43 -28 72t-56 29q-36 0 -70 -23q-49 -32 -49 -67q0 -51 86 -101q98 45 117 90zM517 1160l-114 -115l-115 115l115 114zM624 947l-115 -115l-106 105l-107 -105l-112 115l112 114l107 -106l106 106z" />
    <glyph glyph-name="uni06A8.fina" unicode="&#x6a8;" horiz-adv-x="1047" 
d="M1071 23q0 -23 -18 -23h-66q-27 -225 -110 -307q-74 -73 -205.5 -119.5t-261.5 -46.5q-344 0 -344 315q0 133 61 303t90 170q6 0 6 -10q0 -7 -10 -31q-59 -134 -59 -245q0 -120 75.5 -188t210.5 -68t266 53t191 131l-6 39l-148 4q-178 5 -178 129q0 125 60 268
q64 156 166 156q70 0 118 -80q28 -46 45 -117q7 -27 19 -112h80q18 0 18 -23v-198zM885 240q-56 118 -123 118q-28 0 -55 -18q-10 -6 -27 -23q-16 -13 -16 -22q0 -62 116 -62h51l19 3h18zM829 1005l-114 -115l-115 115l115 114zM936 792l-115 -115l-106 105l-107 -105
l-112 115l112 114l107 -106l106 106z" />
    <glyph glyph-name="uni06AA.init" unicode="&#x6aa;" horiz-adv-x="819" 
d="M786 1395q0 -3 -6 -17l-100 -243q-11 -6 -29 -15q-9 -5 -47 -24q-110 -58 -190 -107q-86 -52 -125 -80q-24 -16 -53 -41l65 -65q145 -146 182 -207q82 -137 82 -268q0 -97 -43 -222q-10 -28 -30 -77q-14 -28 -64 -29h-434q-64 0 -64 122t64 122h475q-15 59 -45 114
q-23 42 -74 103q-30 36 -106 106l-21 -22l-8 -10q-45 33 -109 67q-32 18 -32 45q0 12 4 43l8 62q3 17 10 61q3 21 8 55q9 46 27 131q22 22 66 58q51 42 127 92q58 39 151 94q121 72 213 113l55 24q33 15 41 15h2z" />
    <glyph glyph-name="uni06AA.medi" unicode="&#x6aa;" horiz-adv-x="887" 
d="M911 23q0 -23 -18 -23h-43q-85 0 -131 16q-71 25 -127 105l-35 49l-27 39l-14 18q0 -5 -1 -12.5t-1.5 -10t-5.5 -28.5l-6 -33l-6 -28l-7 -33q-10 -40 -14 -51q-11 -31 -59 -31h-422q-64 0 -64 122t64 122h455q-32 94 -76 157q-38 55 -88 105q-17 18 -123 117
q-17 15 -66 57q-35 31 -35 65q0 25 5 41l6 48q3 28 26 133q20 17 68 55q13 11 49 39q28 22 102 76l62 41q81 53 149 94q99 58 189 98l41 19q13 6 22 6q1 -3 -6 -21l-100 -254q-10 -5 -27 -14q-12 -7 -51 -29l-61 -35l-140 -88l-166 -116q66 -55 115 -101q95 -89 154 -178
l92 -141q11 -17 39 -58q47 -68 98 -94q45 -22 154 -22h12q18 0 18 -23v-198z" />
    <glyph glyph-name="uni06AA.fina" unicode="&#x6aa;" horiz-adv-x="1746" 
d="M1292 286q-27 67 -62.5 118.5t-85.5 101.5q-3 3 -14 13.5t-27 26t-36 33.5l-40 37q-20 19 -39 35.5t-33 28.5q-35 32 -35 65q0 6 0.5 12.5t1.5 16t3.5 24t5.5 36.5q2 14 8.5 47t17.5 86q33 27 65.5 53t66 52t70.5 52t79 54q41 26 78 50t71 44q50 29 97 53.5t92 44.5
l41 19q13 6 22 6q1 -3 -6 -21l-100 -254q-5 -2 -12 -5.5t-15 -8.5q-6 -4 -18.5 -11t-32.5 -18l-61 -35l-140 -88l-166 -116q42 -33 83 -70.5t83 -80.5q48 -52 92 -112t85 -130q41 -66 73.5 -106t66 -61t73.5 -27.5t96 -6.5h12q18 0 18 -23v-198q0 -23 -18 -23h-43
q-86 0 -131 16q-72 26 -127 105q-17 24 -35.5 51.5t-37.5 53.5q-17 -66 -34.5 -110.5t-29.5 -55.5q-33 -26 -119 -48.5t-215 -40.5q-77 -11 -156 -16.5t-152 -5.5q-297 0 -427 77q-128 77 -128 257q0 187 94 348l14 24q15 25 21 25q2 -1 4 -6q0 -2 -8 -29q-37 -108 -37 -188
q0 -264 461 -264q57 0 110 2t103.5 6.5t100.5 11.5t103 16q70 13 123 26t85 31h1z" />
    <glyph glyph-name="uni06AB.init" unicode="&#x6ab;" horiz-adv-x="819" 
d="M786 1395q0 -3 -6 -17l-100 -243q-11 -6 -29 -15q-9 -5 -47 -24q-110 -58 -190 -107q-86 -52 -125 -80q-24 -16 -53 -41l65 -65q145 -146 182 -207q82 -137 82 -268q0 -97 -43 -222q-10 -28 -30 -77q-14 -28 -64 -29h-434q-64 0 -64 122t64 122h475q-15 59 -45 114
q-23 42 -74 103q-30 36 -106 106l-21 -22l-8 -10q-45 33 -109 67q-32 18 -32 45q0 12 4 43l8 62q3 17 10 61q3 21 8 55q9 46 27 131q22 22 66 58q51 42 127 92q58 39 151 94q121 72 213 113l55 24q33 15 41 15h2zM755 1568q0 -2 -4 -12t-11 -26t-15.5 -35.5t-17.5 -39.5
q-57 -27 -130.5 -65t-150.5 -83.5t-151 -97t-132 -104.5q3 16 7 36.5t8.5 39t8.5 31.5t5 14q27 25 64 53t80.5 56.5t91 57.5t94 55t90.5 49t80 41q8 4 20 9.5t23.5 11t21.5 9t15 3.5q3 0 3 -3z" />
    <glyph glyph-name="uni06AB.medi" unicode="&#x6ab;" horiz-adv-x="887" 
d="M911 23q0 -23 -18 -23h-43q-85 0 -131 16q-71 25 -127 105l-35 49l-27 39l-14 18q0 -5 -1 -12.5t-1.5 -10t-5.5 -28.5l-6 -33l-6 -28l-7 -33q-10 -40 -14 -51q-11 -31 -59 -31h-422q-64 0 -64 122t64 122h455q-32 94 -76 157q-38 55 -88 105q-17 18 -123 117
q-17 15 -66 57q-35 31 -35 65q0 25 5 41l6 48q3 28 26 133q20 17 68 55q13 11 49 39q28 22 102 76l62 41q81 53 149 94q99 58 189 98l41 19q13 6 22 6q1 -3 -6 -21l-100 -254q-10 -5 -27 -14q-12 -7 -51 -29l-61 -35l-140 -88l-166 -116q66 -55 115 -101q95 -89 154 -178
l92 -141q11 -17 39 -58q47 -68 98 -94q45 -22 154 -22h12q18 0 18 -23v-198zM725 1568q0 -2 -4 -12t-11 -26t-15.5 -35.5t-17.5 -39.5q-57 -27 -130.5 -67t-150.5 -88.5t-151 -101.5t-132 -105q3 16 7 36.5t8.5 39t8.5 31.5t5 14q27 25 64 53.5t80.5 59t91 60.5t94 58
t90.5 51.5t80 41.5q8 4 20 9.5t23.5 11t21.5 9t15 3.5q3 0 3 -3z" />
    <glyph glyph-name="uni06AB.fina" unicode="&#x6ab;" horiz-adv-x="1746" 
d="M1292 286q-27 67 -62.5 118.5t-85.5 101.5q-3 3 -14 13.5t-27 26t-36 33.5l-40 37q-20 19 -39 35.5t-33 28.5q-35 32 -35 65q0 6 0.5 12.5t1.5 16t3.5 24t5.5 36.5q2 14 8.5 47t17.5 86q33 27 65.5 53t66 52t70.5 52t79 54q41 26 78 50t71 44q50 29 97 53.5t92 44.5
l41 19q13 6 22 6q1 -3 -6 -21l-100 -254q-5 -2 -12 -5.5t-15 -8.5q-6 -4 -18.5 -11t-32.5 -18l-61 -35l-140 -88l-166 -116q42 -33 83 -70.5t83 -80.5q48 -52 92 -112t85 -130q41 -66 73.5 -106t66 -61t73.5 -27.5t96 -6.5h12q18 0 18 -23v-198q0 -23 -18 -23h-43
q-86 0 -131 16q-72 26 -127 105q-17 24 -35.5 51.5t-37.5 53.5q-17 -66 -34.5 -110.5t-29.5 -55.5q-33 -26 -119 -48.5t-215 -40.5q-77 -11 -156 -16.5t-152 -5.5q-297 0 -427 77q-128 77 -128 257q0 187 94 348l14 24q15 25 21 25q2 -1 4 -6q0 -2 -8 -29q-37 -108 -37 -188
q0 -264 461 -264q57 0 110 2t103.5 6.5t100.5 11.5t103 16q70 13 123 26t85 31h1zM1582 1568q0 -2 -4 -12t-11 -26t-15.5 -35.5t-17.5 -39.5q-57 -27 -130.5 -67t-150.5 -88.5t-151 -101.5t-132 -105q3 16 7 36.5t8.5 39t8.5 31.5t5 14q27 25 64 53.5t80.5 59t91 60.5t94 58
t90.5 51.5t80 41.5q8 4 20 9.5t23.5 11t21.5 9t15 3.5q3 0 3 -3z" />
    <glyph glyph-name="uni06AC.init" unicode="&#x6ac;" horiz-adv-x="819" 
d="M786 1395q0 -3 -6 -17l-100 -243q-11 -6 -29 -15q-9 -5 -47 -24q-110 -58 -190 -107q-86 -52 -125 -80q-24 -16 -53 -41l65 -65q145 -146 182 -207q82 -137 82 -268q0 -97 -43 -222q-10 -28 -30 -77q-14 -28 -64 -29h-434q-64 0 -64 122t64 122h475q-15 59 -45 114
q-23 42 -74 103q-30 36 -106 106l-21 -22l-8 -10q-45 33 -109 67q-32 18 -32 45q0 12 4 43l8 62q3 17 10 61q3 21 8 55q9 46 27 131q22 22 66 58q51 42 127 92q58 39 151 94q121 72 213 113l55 24q33 15 41 15h2zM430 1454l-114 -115l-115 115l115 114z" />
    <glyph glyph-name="uni06AC.medi" unicode="&#x6ac;" horiz-adv-x="887" 
d="M911 23q0 -23 -18 -23h-43q-85 0 -131 16q-71 25 -127 105l-35 49l-27 39l-14 18q0 -5 -1 -12.5t-1.5 -10t-5.5 -28.5l-6 -33l-6 -28l-7 -33q-10 -40 -14 -51q-11 -31 -59 -31h-422q-64 0 -64 122t64 122h455q-32 94 -76 157q-38 55 -88 105q-17 18 -123 117
q-17 15 -66 57q-35 31 -35 65q0 25 5 41l6 48q3 28 26 133q20 17 68 55q13 11 49 39q28 22 102 76l62 41q81 53 149 94q99 58 189 98l41 19q13 6 22 6v-1q0 -4 -6 -20l-100 -254q-10 -5 -27 -14q-12 -7 -51 -29l-61 -35l-140 -88l-166 -116q66 -55 115 -101q95 -89 154 -178
l92 -141q11 -17 39 -58q47 -68 98 -94q45 -22 154 -22h12q18 0 18 -23v-198zM430 1454l-114 -115l-115 115l115 114z" />
    <glyph glyph-name="uni06AC.fina" unicode="&#x6ac;" horiz-adv-x="1477" 
d="M1501 23q0 -23 -18 -23h-56q-81 0 -139 43q-35 26 -61 84l-10 -18l-19 -35l-22 -39q-32 -14 -84 -29q-37 -10 -152 -33q-88 -13 -182 -18q-115 -6 -127 -6q-298 0 -426.5 77t-128.5 257q0 188 94 350l14 24q13 23 21 23q4 -1 4 -6t-8 -29q-37 -108 -37 -188
q0 -144 139 -213q104 -51 369 -51q167 0 311 24q74 13 203 51q-11 78 -17 221l-4 111l-2 105l-12 204l-8 99l-10 94l-9 59l-6 37l164 240l6 -11l4 -22l4 -31q4 -10 11 -61q4 -31 8 -72q1 -16 4 -98q6 -203 6 -273v-368q0 -153 29 -205.5t116 -52.5h13q18 0 18 -23v-198z
M877 848q-3 -2 -3 -6l-36 -97q-8 -3 -19.5 -8t-25.5 -12l-33 -16q-18 -9 -19 -13q0 -2 41 -16l35 -12q49 -18 49 -43q0 -64 -69 -127q-30 -27 -78 -33t-105 -6q-24 0 -63 4q18 15 41 24q16 7 84 25l53 14q43 12 43 27q0 12 -16 14q-80 21 -80 58q0 26 27 79q24 49 45 72
q18 21 63.5 47.5t62.5 26.5q2 0 3 -2zM1299 1598l-114 -115l-115 115l115 114z" />
    <glyph glyph-name="uni06AE.init" unicode="&#x6ae;" horiz-adv-x="819" 
d="M786 1395q0 -3 -6 -17l-100 -243q-11 -6 -29 -15q-9 -5 -47 -24q-110 -58 -190 -107q-86 -52 -125 -80q-24 -16 -53 -41l65 -65q145 -146 182 -207q82 -137 82 -268q0 -97 -43 -222q-10 -28 -30 -77q-14 -28 -64 -29h-434q-64 0 -64 122t64 122h475q-15 59 -45 114
q-23 42 -74 103q-30 36 -106 106l-21 -22l-8 -10q-45 33 -109 67q-32 18 -32 45q0 12 4 43l8 62q3 17 10 61q3 21 8 55q9 46 27 131q22 22 66 58q51 42 127 92q58 39 151 94q121 72 213 113l55 24q33 15 41 15h2zM247 -596l-115 114l115 115l114 -115zM353 -383l-106 106
l-107 -106l-112 114l112 115l107 -105l106 105l115 -115z" />
    <glyph glyph-name="uni06AE.medi" unicode="&#x6ae;" horiz-adv-x="887" 
d="M911 23q0 -23 -18 -23h-43q-85 0 -131 16q-71 25 -127 105l-35 49l-27 39l-14 18q0 -5 -1 -12.5t-1.5 -10t-5.5 -28.5l-6 -33l-6 -28l-7 -33q-10 -40 -14 -51q-11 -31 -59 -31h-422q-64 0 -64 122t64 122h455q-32 94 -76 157q-38 55 -88 105q-17 18 -123 117
q-17 15 -66 57q-35 31 -35 65q0 25 5 41l6 48q3 28 26 133q20 17 68 55q13 11 49 39q28 22 102 76l62 41q81 53 149 94q99 58 189 98l41 19q13 6 22 6v-1q0 -4 -6 -20l-100 -254q-10 -5 -27 -14q-12 -7 -51 -29l-61 -35l-140 -88l-166 -116q66 -55 115 -101q95 -89 154 -178
l92 -141q11 -17 39 -58q47 -68 98 -94q45 -22 154 -22h12q18 0 18 -23v-198zM247 -596l-115 114l115 115l114 -115zM353 -383l-106 106l-107 -106l-112 114l112 115l107 -105l106 105l115 -115z" />
    <glyph glyph-name="uni06AE.fina" unicode="&#x6ae;" horiz-adv-x="1477" 
d="M1501 23q0 -23 -18 -23h-56q-81 0 -139 43q-35 26 -61 84l-10 -18l-19 -35l-22 -39q-32 -14 -84 -29q-37 -10 -152 -33q-88 -13 -182 -18q-115 -6 -127 -6q-298 0 -426.5 77t-128.5 257q0 188 94 350l14 24q13 23 21 23q4 -1 4 -6t-8 -29q-37 -108 -37 -188
q0 -144 139 -213q104 -51 369 -51q167 0 311 24q74 13 203 51q-11 78 -17 221l-4 111l-2 105l-12 204l-8 99l-10 94l-9 59l-6 37l164 240l6 -11l4 -22l4 -31q4 -10 11 -61q4 -31 8 -72q1 -16 4 -98q6 -203 6 -273v-368q0 -153 29 -205.5t116 -52.5h13q18 0 18 -23v-198z
M877 848q-3 -2 -3 -6l-36 -97q-8 -3 -19.5 -8t-25.5 -12l-33 -16q-18 -9 -19 -13q0 -2 41 -16l35 -12q49 -18 49 -43q0 -64 -69 -127q-30 -27 -78 -33t-105 -6q-24 0 -63 4q18 15 41 24q16 7 84 25l53 14q43 12 43 27q0 12 -16 14q-80 21 -80 58q0 26 27 79q24 49 45 72
q18 21 63.5 47.5t62.5 26.5q2 0 3 -2zM737 -596l-115 114l115 115l114 -115zM843 -383l-106 106l-107 -106l-112 114l112 115l107 -105l106 105l115 -115z" />
    <glyph glyph-name="uni06B0.init" unicode="&#x6b0;" horiz-adv-x="819" 
d="M755 1568q0 -2 -4 -12t-11 -26t-15.5 -35.5t-17.5 -39.5q-57 -27 -130.5 -65t-150.5 -83.5t-151 -97t-132 -104.5q3 16 7 36.5t8.5 39t8.5 31.5t5 14q27 25 64 53t80.5 56.5t91 57.5t94 55t90.5 49t80 41q8 4 20 9.5t23.5 11t21.5 9t15 3.5q3 0 3 -3zM435 1002
q-11 -7 -21 -13q-86 -52 -125 -80q-24 -16 -53 -41l65 -65q145 -146 182 -207q82 -137 82 -268q0 -97 -43 -222q-10 -28 -30 -77q-14 -28 -64 -29h-434q-64 0 -64 122t64 122h475q-15 59 -45 114q-23 42 -74 103q-30 36 -106 106l-21 -22l-8 -10q-45 33 -109 67
q-32 18 -32 45q0 12 4 43l8 62q3 17 10 61q3 21 8 55q9 46 27 131q22 22 66 58q51 42 127 92q58 39 151 94q121 72 213 113l55 24q33 15 41 15h2q0 -3 -6 -17l-100 -243q-11 -6 -29 -15q-9 -5 -47 -24q-14 -7 -27 -15q56 -40 59 -107v-5q0 -44 -30 -101q-38 -73 -109 -73
q-41 0 -65 22t-24 60q0 46 26 121zM459 1016l-4 -2q-5 -28 -5 -45q0 -77 69 -77q38 0 72 21q-7 96 -132 103z" />
    <glyph glyph-name="uni06B0.medi" unicode="&#x6b0;" horiz-adv-x="887" 
d="M725 1568q0 -2 -4 -12t-11 -26t-15.5 -35.5t-17.5 -39.5q-57 -27 -130.5 -67t-150.5 -88.5t-151 -101.5t-132 -105q3 16 7 36.5t8.5 39t8.5 31.5t5 14q27 25 64 53.5t80.5 59t91 60.5t94 58t90.5 51.5t80 41.5q8 4 20 9.5t23.5 11t21.5 9t15 3.5q3 0 3 -3zM441 983
l-46 -29l-166 -116q66 -55 115 -101q95 -89 154 -178l92 -141q11 -17 39 -58q47 -68 98 -94q45 -22 154 -22h12q18 0 18 -23v-198q0 -23 -18 -23h-43q-85 0 -131 16q-71 25 -127 105l-35 49l-27 39l-14 18q0 -5 -1 -12.5t-1.5 -10t-5.5 -28.5l-6 -33l-6 -28l-7 -33
q-10 -40 -14 -51q-11 -31 -59 -31h-422q-64 0 -64 122t64 122h455q-32 94 -76 157q-38 55 -88 105q-17 18 -123 117q-17 15 -66 57q-35 31 -35 65q0 25 5 41l6 48q3 28 26 133q20 17 68 55q13 11 49 39q28 22 102 76l62 41q81 53 149 94q99 58 189 98l41 19q13 6 22 6
q1 -3 -6 -21l-100 -254q-10 -5 -27 -14q-12 -7 -51 -29l-18 -10q60 -36 64 -110v-5q0 -44 -30 -101q-38 -73 -109 -73q-41 0 -65 22t-24 60q0 46 26 121zM466 999l-5 -3q-5 -27 -5 -44q0 -77 69 -77q38 0 72 21q-7 95 -131 103z" />
    <glyph glyph-name="uni06B0.fina" unicode="&#x6b0;" horiz-adv-x="1746" 
d="M1582 1568q0 -2 -4 -12t-11 -26t-15.5 -35.5t-17.5 -39.5q-57 -27 -130.5 -67t-150.5 -88.5t-151 -101.5t-132 -105q3 16 7 36.5t8.5 39t8.5 31.5t5 14q27 25 64 53.5t80.5 59t91 60.5t94 58t90.5 51.5t80 41.5q8 4 20 9.5t23.5 11t21.5 9t15 3.5q3 0 3 -3zM1454 888
q-7 97 -135 103q-6 -29 -6 -47q0 -77 69 -77q38 0 72 21zM1427 1061q65 -34 72 -112v-5q0 -44 -30 -101q-38 -73 -109 -73q-41 0 -65 22t-24 60q0 46 26 121l3 10l-46 -29l-166 -116q42 -33 83 -70.5t83 -80.5q48 -52 92 -112t85 -130q41 -66 73.5 -106t66 -61t73.5 -27.5
t96 -6.5h12q18 0 18 -23v-198q0 -23 -18 -23h-43q-86 0 -131 16q-72 26 -127 105q-17 24 -35.5 51.5t-37.5 53.5q-17 -66 -34.5 -110.5t-29.5 -55.5q-33 -26 -119 -48.5t-215 -40.5q-77 -11 -156 -16.5t-152 -5.5q-297 0 -427 77q-128 77 -128 257q0 187 94 348l14 24
q15 25 21 25q2 -1 4 -6q0 -2 -8 -29q-37 -108 -37 -188q0 -264 461 -264q57 0 110 2t103.5 6.5t100.5 11.5t103 16q70 13 123 26t85 31h1q-27 67 -62.5 118.5t-85.5 101.5q-3 3 -14 13.5t-27 26t-36 33.5l-40 37q-20 19 -39 35.5t-33 28.5q-35 32 -35 65q0 6 0.5 12.5
t1.5 16t3.5 24t5.5 36.5q2 14 8.5 47t17.5 86q33 27 65.5 53t66 52t70.5 52t79 54q41 26 78 50t71 44q50 29 97 53.5t92 44.5l41 19q13 6 22 6q1 -3 -6 -21l-100 -254q-5 -2 -12 -5.5t-15 -8.5q-6 -4 -18.5 -11t-32.5 -18z" />
    <glyph glyph-name="uni06B2.init" unicode="&#x6b2;" horiz-adv-x="819" 
d="M786 1395q0 -3 -6 -17l-100 -243q-11 -6 -29 -15q-9 -5 -47 -24q-110 -58 -190 -107q-86 -52 -125 -80q-24 -16 -53 -41l65 -65q145 -146 182 -207q82 -137 82 -268q0 -97 -43 -222q-10 -28 -30 -77q-14 -28 -64 -29h-434q-64 0 -64 122t64 122h475q-15 59 -45 114
q-23 42 -74 103q-30 36 -106 106l-21 -22l-8 -10q-45 33 -109 67q-32 18 -32 45q0 12 4 43l8 62q3 17 10 61q3 21 8 55q9 46 27 131q22 22 66 58q51 42 127 92q58 39 151 94q121 72 213 113l55 24q33 15 41 15h2zM755 1568q0 -2 -4 -12t-11 -26t-15.5 -35.5t-17.5 -39.5
q-57 -27 -130.5 -65t-150.5 -83.5t-151 -97t-132 -104.5q3 16 7 36.5t8.5 39t8.5 31.5t5 14q27 25 64 53t80.5 56.5t91 57.5t94 55t90.5 49t80 41q8 4 20 9.5t23.5 11t21.5 9t15 3.5q3 0 3 -3zM353 -383l-106 106l-107 -106l-112 114l112 115l107 -105l106 105l115 -115z
" />
    <glyph glyph-name="uni06B2.medi" unicode="&#x6b2;" horiz-adv-x="887" 
d="M911 23q0 -23 -18 -23h-43q-85 0 -131 16q-71 25 -127 105l-35 49l-27 39l-14 18q0 -5 -1 -12.5t-1.5 -10t-5.5 -28.5l-6 -33l-6 -28l-7 -33q-10 -40 -14 -51q-11 -31 -59 -31h-422q-64 0 -64 122t64 122h455q-32 94 -76 157q-38 55 -88 105q-17 18 -123 117
q-17 15 -66 57q-35 31 -35 65q0 25 5 41l6 48q3 28 26 133q20 17 68 55q13 11 49 39q28 22 102 76l62 41q81 53 149 94q99 58 189 98l41 19q13 6 22 6q1 -3 -6 -21l-100 -254q-10 -5 -27 -14q-12 -7 -51 -29l-61 -35l-140 -88l-166 -116q66 -55 115 -101q95 -89 154 -178
l92 -141q11 -17 39 -58q47 -68 98 -94q45 -22 154 -22h12q18 0 18 -23v-198zM725 1568q0 -2 -4 -12t-11 -26t-15.5 -35.5t-17.5 -39.5q-57 -27 -130.5 -67t-150.5 -88.5t-151 -101.5t-132 -105q3 16 7 36.5t8.5 39t8.5 31.5t5 14q27 25 64 53.5t80.5 59t91 60.5t94 58
t90.5 51.5t80 41.5q8 4 20 9.5t23.5 11t21.5 9t15 3.5q3 0 3 -3zM353 -383l-106 106l-107 -106l-112 114l112 115l107 -105l106 105l115 -115z" />
    <glyph glyph-name="uni06B2.fina" unicode="&#x6b2;" horiz-adv-x="1746" 
d="M1292 286q-27 67 -62.5 118.5t-85.5 101.5q-3 3 -14 13.5t-27 26t-36 33.5l-40 37q-20 19 -39 35.5t-33 28.5q-35 32 -35 65q0 6 0.5 12.5t1.5 16t3.5 24t5.5 36.5q2 14 8.5 47t17.5 86q33 27 65.5 53t66 52t70.5 52t79 54q41 26 78 50t71 44q50 29 97 53.5t92 44.5
l41 19q13 6 22 6q1 -3 -6 -21l-100 -254q-5 -2 -12 -5.5t-15 -8.5q-6 -4 -18.5 -11t-32.5 -18l-61 -35l-140 -88l-166 -116q42 -33 83 -70.5t83 -80.5q48 -52 92 -112t85 -130q41 -66 73.5 -106t66 -61t73.5 -27.5t96 -6.5h12q18 0 18 -23v-198q0 -23 -18 -23h-43
q-86 0 -131 16q-72 26 -127 105q-17 24 -35.5 51.5t-37.5 53.5q-17 -66 -34.5 -110.5t-29.5 -55.5q-33 -26 -119 -48.5t-215 -40.5q-77 -11 -156 -16.5t-152 -5.5q-297 0 -427 77q-128 77 -128 257q0 187 94 348l14 24q15 25 21 25q2 -1 4 -6q0 -2 -8 -29q-37 -108 -37 -188
q0 -264 461 -264q57 0 110 2t103.5 6.5t100.5 11.5t103 16q70 13 123 26t85 31h1zM1582 1568q0 -2 -4 -12t-11 -26t-15.5 -35.5t-17.5 -39.5q-57 -27 -130.5 -67t-150.5 -88.5t-151 -101.5t-132 -105q3 16 7 36.5t8.5 39t8.5 31.5t5 14q27 25 64 53.5t80.5 59t91 60.5t94 58
t90.5 51.5t80 41.5q8 4 20 9.5t23.5 11t21.5 9t15 3.5q3 0 3 -3zM843 -383l-106 106l-107 -106l-112 114l112 115l107 -105l106 105l115 -115z" />
    <glyph glyph-name="uni06B4.init" unicode="&#x6b4;" horiz-adv-x="819" 
d="M786 1395q0 -3 -6 -17l-100 -243q-11 -6 -29 -15q-9 -5 -47 -24q-110 -58 -190 -107q-86 -52 -125 -80q-24 -16 -53 -41l65 -65q145 -146 182 -207q82 -137 82 -268q0 -97 -43 -222q-10 -28 -30 -77q-14 -28 -64 -29h-434q-64 0 -64 122t64 122h475q-15 59 -45 114
q-23 42 -74 103q-30 36 -106 106l-21 -22l-8 -10q-45 33 -109 67q-32 18 -32 45q0 12 4 43l8 62q3 17 10 61q3 21 8 55q9 46 27 131q22 22 66 58q51 42 127 92q58 39 151 94q121 72 213 113l55 24q33 15 41 15h2zM755 1568q0 -2 -4 -12t-11 -26t-15.5 -35.5t-17.5 -39.5
q-57 -27 -130.5 -65t-150.5 -83.5t-151 -97t-132 -104.5q3 16 7 36.5t8.5 39t8.5 31.5t5 14q27 25 64 53t80.5 56.5t91 57.5t94 55t90.5 49t80 41q8 4 20 9.5t23.5 11t21.5 9t15 3.5q3 0 3 -3zM400 1797l-114 -115l-115 115l115 114zM507 1584l-115 -115l-106 105l-107 -105
l-112 115l112 114l107 -106l106 106z" />
    <glyph glyph-name="uni06B4.medi" unicode="&#x6b4;" horiz-adv-x="887" 
d="M911 23q0 -23 -18 -23h-43q-85 0 -131 16q-71 25 -127 105l-35 49l-27 39l-14 18q0 -5 -1 -12.5t-1.5 -10t-5.5 -28.5l-6 -33l-6 -28l-7 -33q-10 -40 -14 -51q-11 -31 -59 -31h-422q-64 0 -64 122t64 122h455q-32 94 -76 157q-38 55 -88 105q-17 18 -123 117
q-17 15 -66 57q-35 31 -35 65q0 25 5 41l6 48q3 28 26 133q20 17 68 55q13 11 49 39q28 22 102 76l62 41q81 53 149 94q99 58 189 98l41 19q13 6 22 6v-1q0 -4 -6 -20l-100 -254q-10 -5 -27 -14q-12 -7 -51 -29l-61 -35l-140 -88l-166 -116q66 -55 115 -101q95 -89 154 -178
l92 -141q11 -17 39 -58q47 -68 98 -94q45 -22 154 -22h12q18 0 18 -23v-198zM725 1568q0 -2 -4 -12t-11 -26t-15.5 -35.5t-17.5 -39.5q-57 -27 -130.5 -67t-150.5 -88.5t-151 -101.5t-132 -105q3 16 7 36.5t8.5 39t8.5 31.5t5 14q27 25 64 53.5t80.5 59t91 60.5t94 58
t90.5 51.5t80 41.5q8 4 20 9.5t23.5 11t21.5 9t15 3.5q3 0 3 -3zM400 1797l-114 -115l-115 115l115 114zM507 1584l-115 -115l-106 105l-107 -105l-112 115l112 114l107 -106l106 106z" />
    <glyph glyph-name="uni06B4.fina" unicode="&#x6b4;" horiz-adv-x="1746" 
d="M1292 286q-27 67 -62.5 118.5t-85.5 101.5q-3 3 -14 13.5t-27 26t-36 33.5l-40 37q-20 19 -39 35.5t-33 28.5q-35 32 -35 65q0 6 0.5 12.5t1.5 16t3.5 24t5.5 36.5q2 14 8.5 47t17.5 86q33 27 65.5 53t66 52t70.5 52t79 54q41 26 78 50t71 44q50 29 97 53.5t92 44.5
l41 19q13 6 22 6q1 -3 -6 -21l-100 -254q-5 -2 -12 -5.5t-15 -8.5q-6 -4 -18.5 -11t-32.5 -18l-61 -35l-140 -88l-166 -116q42 -33 83 -70.5t83 -80.5q48 -52 92 -112t85 -130q41 -66 73.5 -106t66 -61t73.5 -27.5t96 -6.5h12q18 0 18 -23v-198q0 -23 -18 -23h-43
q-86 0 -131 16q-72 26 -127 105q-17 24 -35.5 51.5t-37.5 53.5q-17 -66 -34.5 -110.5t-29.5 -55.5q-33 -26 -119 -48.5t-215 -40.5q-77 -11 -156 -16.5t-152 -5.5q-297 0 -427 77q-128 77 -128 257q0 187 94 348l14 24q15 25 21 25q2 -1 4 -6q0 -2 -8 -29q-37 -108 -37 -188
q0 -264 461 -264q57 0 110 2t103.5 6.5t100.5 11.5t103 16q70 13 123 26t85 31h1zM1582 1568q0 -2 -4 -12t-11 -26t-15.5 -35.5t-17.5 -39.5q-57 -27 -130.5 -67t-150.5 -88.5t-151 -101.5t-132 -105q3 16 7 36.5t8.5 39t8.5 31.5t5 14q27 25 64 53.5t80.5 59t91 60.5t94 58
t90.5 51.5t80 41.5q8 4 20 9.5t23.5 11t21.5 9t15 3.5q3 0 3 -3zM1240 1797l-114 -115l-115 115l115 114zM1347 1584l-115 -115l-106 105l-107 -105l-112 115l112 114l107 -106l106 106z" />
    <glyph glyph-name="uni06B5.init" unicode="&#x6b5;" horiz-adv-x="583" 
d="M517 1126q-23 -100 -92 -163v-68l8 -553q0 -48 -8 -94q-11 -62 -45 -129q-59 -115 -94 -119h-292q-64 0 -64 122t62 122h244q25 0 25 49v22l-22 801q-21 62 -21 94q0 69 70 185l6 10l4 4q1 -1 4 -25q13 -106 107 -184q29 -24 92 -63zM298 1609l169 154h56l-168 -261h-113
l-169 261h56z" />
    <glyph glyph-name="uni06B5.medi" unicode="&#x6b5;" horiz-adv-x="529" 
d="M554 23q0 -23 -19 -23h-82q-84 0 -137 27.5t-87 119.5q-34 -91 -72.5 -119t-133.5 -28h-29q-64 0 -64 122t64 122h43q117 0 149 59v94l-6 135l-4 132q-2 77 -10 241l-10 223l147 302q4 8 6 8q0 -6 2 -13l4 -41q2 -27 4 -52l7 -93q4 -55 8 -332l2 -168v-319q0 -51 10 -90
q20 -77 113 -86h76q19 0 19 -23v-198zM268 1609l169 154h56l-168 -261h-113l-169 261h56z" />
    <glyph glyph-name="uni06B5.fina" unicode="&#x6b5;" horiz-adv-x="1139" 
d="M1163 23q0 -23 -16 -23h-12q-76 0 -142 25q-59 -163 -162 -240q-171 -129 -425 -129q-160 0 -250 78.5t-90 216.5q0 174 94 389q46 104 59 104q6 0 6 -10q0 -8 -2 -12l-4 -12q-1 -7 -6 -17q-49 -145 -49 -225q0 -262 299 -262q252 0 416 164q-27 296 -33 450
q-4 103 -8 164l-31 416l125 315q2 8 6 15q4 -3 4 -13l2 -18v4q2 0 14 -105q4 -31 9 -106l8 -133q5 -89 6 -131l6 -432q6 -167 31 -207q27 -45 117 -45h12q16 0 16 -17v-204zM908 1609l169 154h56l-168 -261h-113l-169 261h56z" />
    <glyph glyph-name="uni06B6.init" unicode="&#x6b6;" horiz-adv-x="583" 
d="M517 1126q-23 -100 -92 -163v-68l8 -553q0 -48 -8 -94q-11 -62 -45 -129q-59 -115 -94 -119h-292q-64 0 -64 122t62 122h244q25 0 25 49v22l-22 801q-21 62 -21 94q0 69 70 185l6 10l4 4q1 -1 4 -25q13 -106 107 -184q29 -24 92 -63zM410 1617l-114 -115l-115 115
l115 114z" />
    <glyph glyph-name="uni06B6.medi" unicode="&#x6b6;" horiz-adv-x="529" 
d="M554 23q0 -23 -19 -23h-82q-84 0 -137 27.5t-87 119.5q-34 -91 -72.5 -119t-133.5 -28h-29q-64 0 -64 122t64 122h43q117 0 149 59v94l-6 135l-4 132q-2 77 -10 241l-10 223l147 302q4 8 6 8q0 -6 2 -13l4 -41q2 -27 4 -52l7 -93q4 -55 8 -332l2 -168v-319q0 -51 10 -90
q20 -77 113 -86h76q19 0 19 -23v-198zM410 1617l-114 -115l-115 115l115 114z" />
    <glyph glyph-name="uni06B6.fina" unicode="&#x6b6;" horiz-adv-x="1139" 
d="M1163 23q0 -23 -16 -23h-12q-76 0 -142 25q-59 -163 -162 -240q-171 -129 -425 -129q-160 0 -250 78.5t-90 216.5q0 174 94 389q46 104 59 104q6 0 6 -10q0 -8 -2 -12l-4 -12q-1 -7 -6 -17q-49 -145 -49 -225q0 -262 299 -262q252 0 416 164q-27 296 -33 450
q-4 103 -8 164l-31 416l125 315q2 8 6 15q4 -3 4 -13l2 -18v4q2 0 14 -105q4 -31 9 -106l8 -133q5 -89 6 -131l6 -432q6 -167 31 -207q27 -45 117 -45h12q16 0 16 -17v-204zM1018 1617l-114 -115l-115 115l115 114z" />
    <glyph glyph-name="uni06B7.init" unicode="&#x6b7;" horiz-adv-x="583" 
d="M517 1126q-23 -100 -92 -163v-68l8 -553q0 -48 -8 -94q-11 -62 -45 -129q-59 -115 -94 -119h-292q-64 0 -64 122t62 122h244q25 0 25 49v22l-22 801q-21 62 -21 94q0 69 70 185l6 10l4 4q1 -1 4 -25q13 -106 107 -184q29 -24 92 -63zM412 1824l-114 -115l-115 115
l115 114zM519 1611l-115 -115l-106 105l-107 -105l-112 115l112 114l107 -106l106 106z" />
    <glyph glyph-name="uni06B7.medi" unicode="&#x6b7;" horiz-adv-x="529" 
d="M554 23q0 -23 -19 -23h-82q-84 0 -137 27.5t-87 119.5q-34 -91 -72.5 -119t-133.5 -28h-29q-64 0 -64 122t64 122h43q117 0 149 59v94l-6 135l-4 132q-2 77 -10 241l-10 223l147 302q4 8 6 8q0 -6 2 -13l4 -41q2 -27 4 -52l7 -93q4 -55 8 -332l2 -168v-319q0 -51 10 -90
q20 -77 113 -86h76q19 0 19 -23v-198zM392 1824l-114 -115l-115 115l115 114zM499 1611l-115 -115l-106 105l-107 -105l-112 115l112 114l107 -106l106 106z" />
    <glyph glyph-name="uni06B7.fina" unicode="&#x6b7;" horiz-adv-x="1139" 
d="M1163 23q0 -23 -16 -23h-12q-76 0 -142 25q-59 -163 -162 -240q-171 -129 -425 -129q-160 0 -250 78.5t-90 216.5q0 174 94 389q46 104 59 104q6 0 6 -10q0 -8 -2 -12l-4 -12q-1 -7 -6 -17q-49 -145 -49 -225q0 -262 299 -262q252 0 416 164q-27 296 -33 450
q-4 103 -8 164l-31 416l125 315q2 8 6 15q4 -3 4 -13l2 -18v4q2 0 14 -105q4 -31 9 -106l8 -133q5 -89 6 -131l6 -432q6 -167 31 -207q27 -45 117 -45h12q16 0 16 -17v-204zM1012 1824l-114 -115l-115 115l115 114zM1119 1611l-115 -115l-106 105l-107 -105l-112 115
l112 114l107 -106l106 106z" />
    <glyph glyph-name="uni06B8.init" unicode="&#x6b8;" horiz-adv-x="583" 
d="M517 1126q-23 -100 -92 -163v-68l8 -553q0 -48 -8 -94q-11 -62 -45 -129q-59 -115 -94 -119h-292q-64 0 -64 122t62 122h244q25 0 25 49v22l-22 801q-21 62 -21 94q0 69 70 185l6 10l4 4q1 -1 4 -25q13 -106 107 -184q29 -24 92 -63zM247 -596l-115 114l115 115l114 -115
zM353 -383l-106 106l-107 -106l-112 114l112 115l107 -105l106 105l115 -115z" />
    <glyph glyph-name="uni06B8.medi" unicode="&#x6b8;" horiz-adv-x="529" 
d="M554 23q0 -23 -19 -23h-82q-84 0 -137 27.5t-87 119.5q-34 -91 -72.5 -119t-133.5 -28h-29q-64 0 -64 122t64 122h43q117 0 149 59v94l-6 135l-4 132q-2 77 -10 241l-10 223l147 302q4 8 6 8q0 -6 2 -13l4 -41q2 -27 4 -52l7 -93q4 -55 8 -332l2 -168v-319q0 -51 10 -90
q20 -77 113 -86h76q19 0 19 -23v-198zM227 -596l-115 114l115 115l114 -115zM333 -383l-106 106l-107 -106l-112 114l112 115l107 -105l106 105l115 -115z" />
    <glyph glyph-name="uni06B8.fina" unicode="&#x6b8;" horiz-adv-x="1139" 
d="M1163 23q0 -23 -16 -23h-12q-76 0 -142 25q-59 -163 -162 -240q-171 -129 -425 -129q-160 0 -250 78.5t-90 216.5q0 174 94 389q46 104 59 104q6 0 6 -10q0 -8 -2 -12l-4 -12q-1 -7 -6 -17q-49 -145 -49 -225q0 -262 299 -262q252 0 416 164q-27 296 -33 450
q-4 103 -8 164l-31 416l125 315q2 8 6 15q4 -3 4 -13l2 -18v4q2 0 14 -105q4 -31 9 -106l8 -133q5 -89 6 -131l6 -432q6 -167 31 -207q27 -45 117 -45h12q16 0 16 -17v-204zM489 -908l-115 114l115 115l114 -115zM595 -695l-106 106l-107 -106l-112 114l112 115l107 -105
l106 105l115 -115z" />
    <glyph glyph-name="uni06B9.init" unicode="&#x6b9;" horiz-adv-x="492" 
d="M-6 0q-64 0 -64 122t64 122h301q-27 76 -86 151l96 201q6 10 10 16q3 -1 13 -14l16 -31q82 -153 82 -272q0 -138 -61 -232q-42 -63 -193 -63h-178zM336 879l-127 -127l-125 127l125 125zM336 -291l-125 -127l-127 127l127 125z" />
    <glyph glyph-name="uni06B9.medi" unicode="&#x6b9;" horiz-adv-x="520" 
d="M545 23q0 -23 -19 -23h-90l-30 2q-52 3 -76 21t-45 69l-2 8l-13 -24q-16 -32 -45 -53q-34 -23 -143 -23h-88q-64 0 -64 122t64 122h186q73 0 115 106l14 37q23 59 49 59q17 0 17 -16q0 -2 -6 -27q-17 -45 -17 -77q0 -55 39 -72q23 -10 88 -10h47q19 0 19 -23v-198z
M371 883l-125 -127l-127 127l127 125zM371 -291l-125 -127l-127 127l127 125z" />
    <glyph glyph-name="uni06B9.fina" unicode="&#x6b9;" horiz-adv-x="1155" 
d="M600 637l-125 -125l-127 125l127 127zM1180 23q0 -23 -23 -23h-6l-35 1q-40 3 -78 13q-19 5 -69 29q0 -55 -4 -98q-14 -146 -82 -232q-66 -81 -202 -132.5t-286 -51.5q-329 0 -329 330q0 142 53 295q21 60 57 120q23 39 31 39q4 -2 4 -8q0 -8 -2 -13t-6 -13l-8 -27
q-45 -147 -45 -203q0 -272 274 -272q123 0 247.5 45.5t182.5 111.5q-11 161 -88 355l106 215q0 4 2 6q4 0 23 -53q46 -127 102 -176q51 -37 138 -37h32q11 -4 11 -25v-196zM600 -724l-127 -127l-125 127l125 125z" />
    <glyph glyph-name="uni06BC.init" unicode="&#x6bc;" horiz-adv-x="549" 
d="M278 -131q-9 123 -173 131q-8 -37 -8 -60q0 -98 88 -98q49 0 93 27zM84 0h-90q-64 0 -64 122t64 122h358q-22 74 -84 151l97 201q2 5 8 16q5 -3 12 -14l18 -31q80 -133 80 -272q0 -138 -61 -232q-28 -41 -101 -56q10 -21 14 -60v-6q0 -56 -38 -129q-49 -94 -139 -94
q-53 0 -83.5 28.5t-30.5 76.5q0 59 33 154zM336 813l-127 -127l-125 127l125 125z" />
    <glyph glyph-name="uni06BC.medi" unicode="&#x6bc;" horiz-adv-x="717" 
d="M288 -131q-9 123 -173 131q-8 -37 -8 -60q0 -98 88 -98q49 0 93 27zM94 0h-100q-64 0 -64 122t64 122h299q77 0 109 13q46 20 65 83l8 27q23 71 43 71q11 0 11 -18q0 -2 -4 -23q-9 -41 -9 -55q0 -58 43 -80q36 -18 144 -18h22q17 0 17 -25v-196q0 -23 -17 -23h-51
q-99 0 -139 14q-59 25 -66 99q0 14 -2 22l-4 -12l-6 -17q-26 -67 -62 -86q-20 -11 -63 -16q9 -21 13 -57v-6q0 -56 -38 -129q-49 -94 -139 -94q-53 0 -83.5 28.5t-30.5 76.5q0 59 33 154zM371 684l-125 -127l-127 127l127 125z" />
    <glyph glyph-name="uni06BC.fina" unicode="&#x6bc;" horiz-adv-x="1155" 
d="M600 637l-125 -125l-127 125l127 127zM407 -471h-14q-8 -36 -8 -59q0 -98 88 -98q49 0 93 27q-9 118 -159 130zM372 -471q-306 12 -306 330q0 142 53 295q21 60 57 120q23 39 31 39q4 -2 4 -8q0 -8 -2 -13t-6 -13l-8 -27q-45 -147 -45 -203q0 -272 274 -272
q123 0 247.5 45.5t182.5 111.5q-11 161 -88 355l106 215q0 4 2 6q4 0 23 -53q46 -127 102 -176q51 -37 138 -37h32q11 -4 11 -25v-196q0 -23 -23 -23h-6l-35 1q-40 3 -78 13q-19 5 -69 29q0 -55 -4 -98q-14 -146 -82 -232q-66 -81 -202 -132q-41 -16 -83 -27l1 -2
q18 -19 24 -75v-6q0 -56 -38 -129q-49 -94 -139 -94q-53 0 -83.5 28.5t-30.5 76.5q0 59 33 154z" />
    <glyph glyph-name="uni06BD.init" unicode="&#x6bd;" horiz-adv-x="549" 
d="M356 1014l-114 -115l-115 115l115 114zM463 801l-115 -115l-106 105l-107 -105l-112 115l112 114l107 -106l106 106zM483 295q0 -138 -61 -232q-42 -63 -191 -63h-237q-64 0 -64 122t64 122h358q-22 74 -84 151l97 201q2 5 8 16q5 -3 12 -14l18 -31q80 -133 80 -272z" />
    <glyph glyph-name="uni06BD.medi" unicode="&#x6bd;" horiz-adv-x="557" 
d="M377 885l-115 -115l-112 115l112 114zM483 672l-114 -115l-105 107l-106 -107l-113 115l113 114l104 -104l107 104zM582 23q0 -23 -17 -23h-51q-99 0 -139 14q-59 25 -66 99q0 14 -2 22l-4 -12l-6 -17q-26 -67 -62 -86.5t-151 -19.5h-90q-64 0 -64 122t64 122h139
q77 0 109 13q46 20 65 83l8 27q23 71 43 71q11 0 11 -18q0 -2 -4 -23q-9 -41 -9 -55q0 -58 43 -80q36 -18 144 -18h22q17 0 17 -25v-196z" />
    <glyph glyph-name="uni06BD.fina" unicode="&#x6bd;" horiz-adv-x="1155" 
d="M1180 23q0 -23 -23 -23h-6l-35 1q-40 3 -78 13q-19 5 -69 29q0 -55 -4 -98q-14 -146 -82 -232q-66 -81 -202 -132.5t-286 -51.5q-329 0 -329 330q0 142 53 295q21 60 57 120q23 39 31 39q4 -2 4 -8q0 -8 -2 -13t-6 -13l-8 -27q-45 -147 -45 -203q0 -272 274 -272
q123 0 247.5 45.5t182.5 111.5q-11 161 -88 355l106 215q0 4 2 6q4 0 23 -53q46 -127 102 -176q51 -37 138 -37h32q11 -4 11 -25v-196zM599 840l-114 -115l-115 115l115 114zM706 627l-115 -115l-106 105l-107 -105l-112 115l112 114l107 -106l106 106z" />
    <glyph glyph-name="uni06BF.init" unicode="&#x6bf;" horiz-adv-x="1167" 
d="M614 1087l-125 -126l-127 126l127 125zM1126 571l-137 -262h-61q-80 0 -164 -24q-54 -16 -117 -47q-28 -15 -125 -70q-23 -13 -63 -35q-70 -37 -154 -70q-76 -29 -164 -47q-82 -16 -135 -16h-12q-64 0 -64 122t62 122h8q55 0 145 14q98 15 174 41l8 2q43 15 86.5 31.5
t84.5 34.5l90 39l43 16l20 10q-28 11 -37 14q-58 23 -137 60q-33 16 -80 39q-60 26 -114 26q-99 0 -160 -94q-13 -20 -23 -20q-8 0 -8 12q0 25 33 123q25 75 51 119q57 94 141 94q27 0 56 -6q57 -13 123 -45l135 -68q116 -58 186 -82q109 -37 256 -37q8 0 53 4zM532 -494
l-115 114l115 115l114 -115zM638 -281l-106 106l-107 -106l-112 114l112 115l107 -105l106 105l115 -115z" />
    <glyph glyph-name="uni06BF.medi" unicode="&#x6bf;" horiz-adv-x="1159" 
d="M625 1092l-125 -127l-127 127l127 125zM1184 23q0 -23 -19 -23h-278q-111 0 -162 55q-43 48 -59 191q-21 -10 -27 -13q-11 -6 -49 -28q-3 -2 -62 -35l-69 -39q-135 -75 -228 -103q-96 -28 -225 -28h-12q-64 0 -64 122t62 122h14l43 2q233 11 483 131q70 33 123 72
q-80 18 -145 51l-61 30q-91 45 -154 45q-97 0 -160 -96q-12 -18 -20 -18q-9 0 -9 14q0 12 11 47l10 35q42 142 87.5 197t121.5 55q83 0 250 -90q25 -14 84 -43q89 -45 161 -66q107 -30 228 -30q4 0 78 4l-136 -265h-30q-51 0 -90 -4q-79 -8 -136 -28q14 -43 117 -43h303
q19 0 19 -23v-198zM502 -504l-115 114l115 115l114 -115zM608 -291l-106 106l-107 -106l-112 114l112 115l107 -105l106 105l115 -115z" />
    <glyph glyph-name="uni06BF.fina" unicode="&#x6bf;" horiz-adv-x="1120" 
d="M1145 23q0 -23 -23 -23h-174q-138 0 -199.5 58.5t-61.5 164.5q0 18 1 37l2 29q-124 -22 -262 -105q-238 -142 -238 -362q0 -171 153 -257q60 -34 142 -46q107 -17 211 -17q112 0 142 2q41 5 151 17l58 6q48 5 48 6h-1q12 4 32 4q11 0 11 -2q0 -11 -58 -61l-59 -52
q-137 -118 -219 -149q-60 -23 -176 -23q-278 0 -408.5 114.5t-130.5 359.5q0 207 102 376q54 89 146.5 169t181.5 116l8 4q0 5 -75 25q-5 0 -39 8q-26 6 -39 6q-25 6 -56 6q-84 0 -143 -72q-20 -24 -29 -24q-6 0 -6 10q0 2 10 43l7 25l8 26q74 242 207 242q42 0 135 -29
q155 -48 248 -59q66 -8 176 -8q80 0 125 4l24 2h4q0 -3 -4 -6l-166 -271l-26 -4l-43 -4l-37 -2l-23 -2l-14 -2q0 -33 35 -45q12 -2 37 -6q65 -8 274 -8h12q19 0 19 -23v-198zM725 948l-127 -125l-125 125l125 127zM648 -201l-106 106l-107 -106l-112 114l112 115l107 -105
l106 105l115 -115zM542 -414l-115 114l115 115l114 -115z" />
    <glyph glyph-name="uni06C2.fina" unicode="&#x6c2;" horiz-adv-x="764" 
d="M788 23q0 -23 -18 -23h-24q-72 0 -116.5 18.5t-71.5 47t-41.5 61t-28.5 61t-31.5 47t-49.5 18.5q-103 0 -339 -170q-18 -12 -13 6q19 52 40 98t47 98q18 35 39 59.5t53 46.5q39 25 76 45t70 33.5t60 20.5t47 7q36 0 59 -24t42 -75q28 -75 68 -114.5t108 -39.5h6
q18 0 18 -23v-198zM561 861q1 -4 -8 -19l-56 -88l-20 -4l-37 -8q-47 -11 -76 -21q-54 -14 -94 -32q-6 -2 -10 -2q-4 3 0 12q11 29 20 41q14 22 41 41l-16 8q-45 22 -45 49q0 68 67 135q52 51 113 51q78 0 78 -30q0 -4 -6 -15l-37 -63q-1 -2 -4 -6q-4 0 -6 2q-22 18 -54 18
q-18 0 -37 -4.5t-32 -15.5q-13 -6 -15 -12q0 -16 45 -37q39 -19 78 -19q56 0 96 15q11 3 15 4z" />
    <glyph glyph-name="uni06C3.fina" unicode="&#x6c3;" horiz-adv-x="764" 
d="M788 23q0 -23 -18 -23h-24q-72 0 -116.5 18.5t-71.5 47t-41.5 61t-28.5 61t-31.5 47t-49.5 18.5q-103 0 -339 -170q-18 -12 -13 6q19 52 40 98t47 98q18 35 39 59.5t53 46.5q39 25 76 45t70 33.5t60 20.5t47 7q36 0 59 -24t42 -75q28 -75 68 -114.5t108 -39.5h6
q18 0 18 -23v-198zM629 824l-127 -124l-117 112l-112 -112l-127 124l127 127l112 -114l117 114z" />
    <glyph glyph-name="uni06C4.fina" unicode="&#x6c4;" horiz-adv-x="729" 
d="M543 248q-50 102 -109 102q-20 0 -47 -15q-31 -17 -31 -36q0 -53 142 -53l12 2h33zM351 -263l2 2q-13 29 -30 44q-32 28 -80 29q-8 -17 -8 -35q0 -56 58 -56q31 0 58 16zM398 -217q90 97 122 215q-178 5 -228 32t-50 120q0 100 49 219q73 176 178 176q143 0 178 -301h80
q24 0 25 -23l2 -198q0 -23 -19 -23h-69l-4 -43q-20 -204 -105 -321t-205 -117q-93 0 -202 41q-71 26 -105 45q-45 25 -45 35q0 8 8 8t23 -4q28 -9 65 -9q51 0 97 13q-11 16 -11 39q0 27 10 61q5 13 41 105l12 28q4 11 9 23q3 6 5 11q22 3 29 3q47 0 80.5 -28.5t33.5 -68.5
q0 -18 -4 -38z" />
    <glyph glyph-name="uni06CA.fina" unicode="&#x6ca;" horiz-adv-x="729" 
d="M754 23q0 -23 -19 -23h-69l-4 -43q-20 -204 -105 -321t-205 -117q-93 0 -202 41q-71 26 -105 45q-45 25 -45 35q0 8 8 8t23 -4q28 -9 65 -9q134 0 240 89q142 119 184 274q-178 5 -228 32t-50 120q0 100 49 219q73 176 178 176q143 0 178 -301h80q24 0 25 -23zM543 248
q-50 102 -109 102q-20 0 -47 -15q-31 -17 -31 -36q0 -53 142 -53l12 2h33zM656 816l-115 -115l-106 105l-107 -105l-112 115l112 114l107 -106l106 106z" />
    <glyph glyph-name="uni06CD.fina" unicode="&#x6cd;" horiz-adv-x="1392" 
d="M440 238q4 -2 4 -9q0 -3 -2 -10.5t-6 -15.5l-8 -25q-45 -135 -45 -211q0 -132 82 -206t229 -74q132 0 283 50.5t233 121.5q-90 99 -246 135l-45 10l-29 8l103 232h405q19 0 19 -23v-198q0 -23 -19 -23h-98q2 -3 10 -16q8 -6 8 -19q0 -2 -4 -43q-3 -18 -10 -51
q-27 -144 -104 -221q-83 -83 -247.5 -140t-322.5 -57q-331 0 -331 332q0 115 35 237q1 4 3 13q-48 -32 -96 -32q-20 0 -41 5q-68 20 -132 73l-15 13q-20 15 -20 19v1q1 1 4 1h2q1 -1 10 -6q17 -7 40 -13q30 -9 60 -9q53 0 121.5 31t125.5 82q17 15 31 28q3 4 5 6q5 4 8 4z
" />
    <glyph glyph-name="uni06CE.init" unicode="&#x6ce;" horiz-adv-x="549" 
d="M483 295q0 -138 -61 -232q-42 -63 -191 -63h-237q-64 0 -64 122t64 122h358q-22 74 -84 151l97 201q2 5 8 16q5 -3 12 -14l18 -31q80 -133 80 -272zM499 -291l-127 -127l-117 115l-113 -115l-127 127l127 125l113 -113l117 113zM324 846l169 154h56l-168 -261h-113
l-169 261h56z" />
    <glyph glyph-name="uni06CE.medi" unicode="&#x6ce;" horiz-adv-x="557" 
d="M582 23q0 -23 -17 -23h-51q-99 0 -139 14q-59 25 -66 99q0 14 -2 22l-4 -12l-6 -17q-26 -67 -62 -86.5t-151 -19.5h-90q-64 0 -64 122t64 122h139q77 0 109 13q46 20 65 83l8 27q23 71 43 71q11 0 11 -18q0 -2 -4 -23q-9 -41 -9 -55q0 -58 43 -80q36 -18 144 -18h22
q17 0 17 -25v-196zM507 -291l-125 -127l-117 115l-114 -115l-127 127l127 125l114 -113l117 113zM295 700l169 154h56l-168 -261h-113l-169 261h56z" />
    <glyph glyph-name="uni06CE.fina" unicode="&#x6ce;" horiz-adv-x="1159" 
d="M1184 23q0 -23 -19 -23h-98q2 -3 10 -16q8 -6 8 -19q0 -2 -4 -43q-3 -18 -10 -51q-27 -144 -104 -221q-83 -83 -247.5 -140t-322.5 -57q-331 0 -331 332q0 142 53 293q24 69 64 134q16 26 24 26q4 -2 4 -9q0 -3 -2 -10.5t-6 -15.5l-8 -25q-45 -135 -45 -211
q0 -132 82 -206t229 -74q132 0 283 50.5t233 121.5q-90 99 -246 135l-45 10l-29 8l103 232h405q19 0 19 -23v-198zM339 447l169 154h56l-168 -261h-113l-169 261h56z" />
    <glyph glyph-name="uni06CF.fina" unicode="&#x6cf;" horiz-adv-x="729" 
d="M754 23q0 -23 -19 -23h-69l-4 -43q-20 -204 -105 -321t-205 -117q-93 0 -202 41q-71 26 -105 45q-45 25 -45 35q0 8 8 8t23 -4q28 -9 65 -9q134 0 240 89q142 119 184 274q-178 5 -228 32t-50 120q0 100 49 219q73 176 178 176q143 0 178 -301h80q24 0 25 -23zM543 248
q-50 102 -109 102q-20 0 -47 -15q-31 -17 -31 -36q0 -53 142 -53l12 2h33zM549 816l-114 -115l-115 115l115 114z" />
    <glyph glyph-name="uni06D1.init" unicode="&#x6d1;" horiz-adv-x="549" 
d="M483 295q0 -138 -61 -232q-42 -63 -191 -63h-237q-64 0 -64 122t64 122h358q-22 74 -84 151l97 201q2 5 8 16q5 -3 12 -14l18 -31q80 -133 80 -272zM257 -596l-115 114l115 115l114 -115zM363 -383l-106 106l-107 -106l-112 114l112 115l107 -105l106 105l115 -115z" />
    <glyph glyph-name="uni06D1.medi" unicode="&#x6d1;" horiz-adv-x="557" 
d="M582 23q0 -23 -17 -23h-51q-99 0 -139 14q-59 25 -66 99q0 14 -2 22l-4 -12l-6 -17q-26 -67 -62 -86.5t-151 -19.5h-90q-64 0 -64 122t64 122h139q77 0 109 13q46 20 65 83l8 27q23 71 43 71q11 0 11 -18q0 -2 -4 -23q-9 -41 -9 -55q0 -58 43 -80q36 -18 144 -18h22
q17 0 17 -25v-196zM257 -596l-115 114l115 115l114 -115zM363 -383l-106 106l-107 -106l-112 114l112 115l107 -105l106 105l115 -115z" />
    <glyph glyph-name="uni06D1.fina" unicode="&#x6d1;" horiz-adv-x="1159" 
d="M1184 23q0 -23 -19 -23h-98q2 -3 10 -16q8 -6 8 -19q0 -2 -4 -43q-3 -18 -10 -51q-27 -144 -104 -221q-83 -83 -247.5 -140t-322.5 -57q-331 0 -331 332q0 142 53 293q24 69 64 134q16 26 24 26q4 -2 4 -9q0 -3 -2 -10.5t-6 -15.5l-8 -25q-45 -135 -45 -211
q0 -132 82 -206t229 -74q132 0 283 50.5t233 121.5q-90 99 -246 135l-45 10l-29 8l103 232h405q19 0 19 -23v-198zM469 -1102l-115 114l115 115l114 -115zM575 -889l-106 106l-107 -106l-112 114l112 115l107 -105l106 105l115 -115z" />
    <glyph glyph-name="uni06D5.fina" unicode="&#x6d5;" horiz-adv-x="764" 
d="M788 23q0 -23 -16 -23h-22q-126 0 -182 42.5t-66 143.5l-4 41l-4 25q-10 -23 -29 -62q-44 -71 -150 -71q-108 0 -216 37q-33 11 -33 30q0 12 8 37l18 58q17 51 47.5 121t85.5 106l252 164l-10 55l104 240l2 -13l7 -24q13 -56 30 -387l6 -121q6 -105 41 -139
q41 -39 103 -39h12q16 0 16 -23v-198zM496 360v2q-6 66 -13 193l-18 -31q-17 -28 -41 -43l-184 -112q-4 -2 -13 -9q16 -5 82 -14q3 0 16.5 -1t23 -1t23 -1t17.5 -1q33 0 60 4l26 4q21 3 21 10z" />
    <glyph glyph-name="uni06EE.fina" unicode="&#x6ee;" horiz-adv-x="866" 
d="M891 23q0 -23 -23 -23h-39q-159 0 -192 133l-4 17l-6 -19l-6 -31q-16 -76 -103 -108q-100 -37 -227 -37q-121 0 -171 42.5t-50 143.5q0 62 18 117l8 25q10 28 17 28q4 -1 4 -6v-6q-2 -8 -2 -20q0 -82 209 -82q108 0 202 26q74 21 74 49q0 4 -2 19l-66 323q-2 8 -4 17
q0 4 11 39l18 63l47 146q0 6 6 6q3 0 8 -15l3 -10q0 -4 4 -16q7 -36 14 -70l14 -67l15 -74l14 -84q28 -162 63.5 -233.5t116.5 -71.5h12q17 0 17 -25v-196zM321 956h-56l169 261h113l168 -261h-56l-169 154z" />
    <glyph glyph-name="uni06EF.fina" unicode="&#x6ef;" horiz-adv-x="782" 
d="M807 23q0 -23 -23 -23h-26q-40 0 -94 20v-14q-19 -203 -105.5 -330t-206.5 -127q-87 0 -202 43q-63 24 -105 46q-45 23 -45 34q0 9 8 9q3 -2 23 -7q35 -8 65 -8q136 0 240 88q85 72 137 162q29 49 51 102q25 58 25 72q0 68 -133 223l-13 15l68 229l4 10q5 -1 10 -10
l23 -33l24 -39l54 -82q1 -3 22 -38q11 -16 25 -37q23 -37 47 -56q38 -28 96 -28h12q19 0 19 -23v-198zM256 699h-56l169 261h113l168 -261h-56l-169 154z" />
    <glyph glyph-name="uni06FA.init" unicode="&#x6fa;" horiz-adv-x="1024" 
d="M958 367q0 -101 -40 -226q-48 -145 -150 -145q-47 0 -92 12q-79 22 -125 47l-19 11l-12 6l-6 -6l-10 -13q-43 -51 -199 -51q-77 0 -107 5q-18 3 -18 16v8q2 4 3 9t1 9q-4 -4 -7.5 -6.5t-12.5 -7.5q-43 -29 -105 -33l-28 -2h-37q-64 0 -64 122t62 122h14l47 2q97 4 127 30
q25 23 60 103q22 51 39 51q18 0 18 -29q0 -26 -25 -94l-8 -22q-3 -7 -6 -17q-2 -3 -4 -8q0 -3 41 -6l31 -2h82q38 0 79 12q21 6 29 23q3 5 10 16q4 8 13 33q46 102 65 102q17 0 17 -20q0 -10 -9 -35l-10 -31l-10 -37l-10 -24q81 -47 198 -47q25 0 41 2q-2 10 -10 41
q-3 14 -18 63l-7 17l109 204q4 7 6 15l8 -13l6 -18q43 -129 43 -188zM690 700l-115 -114l-104 106l-106 -106l-113 114l113 115l104 -104l106 104zM584 913l-115 -114l-115 114l115 115zM467 -383l-115 114l115 115l114 -115z" />
    <glyph glyph-name="uni06FA.medi" unicode="&#x6fa;" horiz-adv-x="1020" 
d="M700 934l-114 -115l-115 115l115 115zM807 721l-115 -115l-106 105l-107 -105l-112 115l112 115l107 -107l106 107zM1044 23q0 -23 -22 -23h-39q-88 0 -113 86l-4 14l-8 -22q-31 -86 -119 -86q-120 0 -229 84q-49 -57 -99 -72q-30 -8 -120 -8q-115 0 -115 24q0 9 4 21
l2 6l-8 -6l-24 -16q-37 -25 -119 -25h-37q-64 0 -64 122t64 122h67q74 0 105 15q38 19 63 79l13 29q22 51 39 51q18 0 18 -29q0 -18 -27 -98l-6 -19l-8 -16q-2 -6 -2 -10q0 -6 39 -6h35q10 0 28 -2q102 0 138 20q23 13 45 57q20 41 34 74q32 72 52 72q14 0 14 -21
q0 -15 -8 -34l-10 -33l-11 -35q-8 -27 -18 -53q92 -49 180 -49q51 0 62 8q8 8 28 73l10 33q24 74 46 74q16 0 16 -27q0 -14 -2 -20q-10 -48 -10 -58q0 -75 90 -75h12q18 0 18 -23v-198zM587 -383l-115 114l115 115l114 -115z" />
    <glyph glyph-name="uni06FA.fina" unicode="&#x6fa;" horiz-adv-x="1722" 
d="M1747 23q0 -23 -23 -23h-38q-89 0 -113 86l-4 14l-10 -22q-40 -86 -117 -86q-121 0 -230 84l-10 10l-12 -14l-19 -21q-57 -63 -161 -63q-23 0 -45 4l-7 -39l-8 -49q-9 -58 -35 -135q-22 -70 -77 -115q-74 -61 -194 -99t-238 -38q-159 0 -249.5 84t-90.5 233
q0 218 137 445q21 34 30 34t9 -6l-4 -10q-4 -9 -11 -27q-61 -136 -61 -245q0 -120 76.5 -188t210.5 -68q253 0 405 129q0 88 -16 170q-9 43 -21 88q-2 9 -30 90l104 219q0 6 4 6q2 -4 6 -16q2 -6 13 -31l14 -43q12 -29 18 -41q24 -47 41 -66q37 -38 107 -38q61 0 98 24
q29 20 47 53q12 23 35 76q31 72 49 72q16 0 16 -23q0 -13 -18 -65l-12 -35l-10 -35l-7 -18q51 -26 96 -37.5t93 -11.5q42 0 57 19q9 11 25 62l10 33q23 74 45 74q16 0 16 -27q0 -14 -2 -20q-10 -48 -10 -58q0 -75 90 -75h13q18 0 18 -23v-198zM1507 721l-114 -115l-105 105
l-106 -105l-113 115l113 115l104 -107l107 107zM1401 934l-115 -115l-112 115l112 113zM1277 -383l-115 114l115 115l114 -115z" />
    <glyph glyph-name="uni06FB.init" unicode="&#x6fb;" horiz-adv-x="1149" 
d="M809 901l-127 -127l-127 127l127 125zM1083 475q0 -65 -43 -168q-66 -158 -139 -221q-107 -92 -448 -92q-152 0 -203 88l-6 14l-8 -14l-17 -25q-18 -27 -51 -41q-39 -16 -123 -16h-51q-64 0 -64 122t64 122h96q65 0 95.5 18t50.5 74l12 35q29 82 57 82q19 0 19 -21
q0 -8 -5 -24q-8 -54 -8 -72q0 -78 76 -84l23 24q24 27 110 125q110 126 160 177q103 104 201 104q79 0 140.5 -62.5t61.5 -144.5zM936 313q-34 148 -152 148q-60 0 -123 -46.5t-174 -172.5q54 -4 58 -4q111 0 229 20q109 19 162 55zM809 -291l-125 -127l-127 127l127 125z
" />
    <glyph glyph-name="uni06FB.medi" unicode="&#x6fb;" horiz-adv-x="1149" 
d="M803 905l-127 -127l-125 127l125 125zM1174 23q0 -23 -23 -23h-8l-639 2q-102 0 -153 15t-77 53l-12 22l-4 8l-10 -18q-46 -82 -191 -82h-63q-64 0 -64 122t64 122h125q69 0 108 39q18 17 39 82q29 86 53 86q15 0 15 -19q0 -10 -4 -26q-1 -11 -4 -39q-2 -17 -2 -31
q0 -65 57 -80l22 25q25 26 111 125q102 116 162 176q104 104 198 104q83 0 144 -63.5t61 -149.5q0 -94 -78 -229h154q19 0 19 -23v-198zM938 319q-45 150 -150 150q-64 0 -128 -47t-177 -176q49 -4 58 -4q124 0 239.5 22.5t157.5 54.5zM803 -291l-125 -127l-127 127l127 125
z" />
    <glyph glyph-name="uni06FB.fina" unicode="&#x6fb;" horiz-adv-x="1786" 
d="M1466 905l-127 -127l-125 127l125 125zM1810 23q0 -23 -18 -23l-838 4q-10 -84 -28 -158q-26 -105 -70 -151q-70 -73 -194.5 -118.5t-258.5 -45.5q-337 0 -337 315q0 97 24 195q15 60 53 152q57 135 82 135q6 0 6 -9q0 -3 -2 -8q-4 -9 -12 -26q-59 -138 -59 -248
q0 -118 76.5 -186t209.5 -68q263 0 406 133q0 160 -68 344l105 221q1 3 4 6q4 -6 6 -16l12 -33q36 -96 52 -119q26 -40 83 -63l23 25q24 26 111 125q59 67 159 176q109 106 201 106q83 0 144 -63.5t61 -151.5q0 -92 -80 -229h129q16 0 18 -23v-198zM1595 317
q-36 148 -153 148q-60 0 -122.5 -46t-172.5 -173q24 -2 57 -2q109 0 228 20q111 20 163 53zM1466 -291l-125 -127l-127 127l127 125z" />
    <glyph glyph-name="uni06FC.init" unicode="&#x6fc;" horiz-adv-x="827" 
d="M446 975l-127 -127l-124 127l124 125zM795 381q-1 -4 -7 -12l-143 -234q-19 -2 -55 -10q-42 -8 -54 -11.5t-53 -15.5l-55 -18l-59 -19q-78 -24 -195 -43q-30 -6 -63 -10q-76 -8 -105 -8h-12q-64 0 -64 122t62 122h14l158 8l-14 22q-44 68 -44 115q0 74 50 166
q98 184 243 184q95 0 191 -73q35 -27 74 -72q30 -35 30 -45h-2q-3 0 -10 2q-16 6 -53 16q-90 23 -156 23q-125 0 -237 -78q74 -156 237 -211l35 8l49 15l51 14l47 12l43 15q24 6 62 16l18 4h8q9 0 9 -4zM447 -291l-125 -127l-127 127l127 125z" />
    <glyph glyph-name="uni06FC.medi" unicode="&#x6fc;" horiz-adv-x="727" 
d="M502 950l-127 -127l-125 127l125 125zM752 23q0 -23 -19 -23h-104q-95 0 -144 26t-90 95l-6 10l-12 -10l-23 -19q-63 -52 -145 -77q-78 -25 -186 -25h-29q-64 0 -64 122t62 122h14l78 2q82 2 145 16q58 13 111 47q-35 78 -115 78q-56 0 -80 -20q-3 -2 -8 -5v3q0 2 2 14
l11 33q8 28 36 96q33 79 70 100q72 41 182 41q183 0 183 -141q0 -110 -115 -240q18 -7 61 -18q42 -6 109 -6h57q19 0 19 -23v-198zM502 -291l-125 -127l-127 127l127 125z" />
    <glyph glyph-name="uni06FC.fina" unicode="&#x6fc;" horiz-adv-x="918" 
d="M680 911l-125 -125l-127 125l127 127zM1122 -532q0 -13 -57 -64l-57 -51q-118 -105 -215 -141q-66 -25 -181 -25q-265 0 -391 92q-155 114 -155 381q0 168 75 326q36 73 88 139q87 107 177 160l49 28l26 17q-32 61 -100 61q-41 0 -68 -18q-3 -2 -6.5 -5t-7.5 -3v2
q0 3 2 10l4 18l8 33q27 105 58 150q47 67 219 67q194 0 194 -147q0 -85 -88 -191q67 -63 222 -63h71q10 0 15.5 -4t5.5 -21v-194q0 -25 -17 -25h-190q-47 0 -98 14q-47 13 -84 43q-49 39 -86 127l-29 -16l-37 -23l-45 -28q-37 -24 -102 -70q-47 -37 -86 -92
q-72 -100 -72 -221q0 -301 530 -301q106 0 135 2q26 2 74 6q81 7 125 14l39 6q39 7 37 7q6 2 16 2zM680 -269l-127 -125l-125 125l125 127z" />
    <glyph glyph-name="uni06FF.init" unicode="&#x6ff;" horiz-adv-x="838" 
d="M772 326q0 -90 -44.5 -193.5t-92.5 -159.5q-20 -22 -51 -22q-23 0 -101 20q-48 13 -84 25q-63 21 -118 51q-120 -47 -277 -47h-10q-64 0 -64 122t64 122h12l29 2l88 4q12 0 22 2q-4 22 -4 49q0 133 119 264q-14 8 -45 13q-14 1 -14 14q0 18 8 47q13 44 31 86q32 76 92 76
q82 0 213 -99q227 -171 227 -376zM657 205q0 26 -34 92q-27 40 -58 76q-27 32 -57 57q-2 -14 -19 -88q-12 -33 -49 -94q11 -4 33 -13q19 -8 41 -14l49 -14q68 -19 82 -19q12 0 12 17zM410 362q0 109 -54 109q-61 0 -131 -100q42 -56 107 -80q20 8 26 10q23 8 48 18
q4 21 4 43zM149 868h-56l169 261h113l168 -261h-56l-169 154z" />
    <glyph glyph-name="uni06FF.medi" unicode="&#x6ff;" horiz-adv-x="711" 
d="M-8 0q-62 0 -62 122t64 122h137q9 36 21 73q34 110 96 213q46 78 106 156q73 94 86 94q11 0 37 -123q23 -106 23 -192q0 -106 -54 -221h272q16 0 18 -23v-198q0 -23 -18 -23h-222l6 -29q14 -67 14 -116q0 -217 -143 -217q-103 0 -183.5 102.5t-80.5 232.5v27h-117z
M442 -158q0 56 -75 113q-69 51 -142 51q-3 0 -12.5 -1t-15.5 -1q9 -80 69 -136t135 -56q41 0 41 30zM377 285q-16 92 -29 147q-5 23 -8 29q-8 45 -14 45q-3 -2 -13 -14l-10 -19l-16 -29l-21 -38q-33 -63 -57 -160q110 8 168 39zM259 868h-56l169 261h113l168 -261h-56
l-169 154z" />
    <glyph glyph-name="uni06FF.fina" unicode="&#x6ff;" horiz-adv-x="943" 
d="M968 23q0 -23 -18 -23h-202q2 -8 3 -14.5t3 -14.5q7 -34 10.5 -62.5t3.5 -53.5q0 -217 -143 -217q-103 0 -184 103q-80 103 -80 232v27q-65 -5 -111 -12.5t-78.5 -21t-55 -34t-41.5 -50.5q-9 -11 -14 -11q-1 0 -2 1q-4 3 -4 12q0 6 1 13q14 72 34.5 136.5t54.5 116.5
q16 25 36.5 43t48 29.5t65 16.5t88.5 5q8 34 21 73q34 109 96 213q23 39 49.5 78t56.5 78q73 94 86 94q11 0 37 -123q23 -109 23 -192q0 -106 -54 -221h252q18 0 18 -23v-198zM629 285q-8 46 -15 82.5t-14 64.5q-4 22 -8 29q-8 45 -14 45q-1 -1 -13 -14q-2 -5 -5 -9.5
t-5 -9.5q-4 -8 -8 -14.5t-8 -14.5q-5 -10 -10.5 -19t-10.5 -19q-33 -63 -57 -160q109 7 168 39zM694 -158q0 56 -75 113q-69 51 -142 51q-3 0 -12.5 -1t-15.5 -1q9 -81 69 -136q61 -56 135 -56q41 0 41 30zM499 868h-56l169 261h113l168 -261h-56l-169 154z" />
    <glyph glyph-name="uniFB50" unicode="&#x671;" horiz-adv-x="494" arabic-form="isolated" 
d="M367 519q0 -281 -50 -387q-30 -66 -86 -115q-17 -16 -32 -25q-33 -24 -41 -24l-2 2l2 10q2 16 2.5 21t3.5 26q0 1 4 35q2 17 4 39q6 58 6 201q0 68 -2 104l-6 109l-4 100l-21 461l174 284q4 6 7 9q5 0 8 -39l2 -31l4 -90l4 -53l4 -123l6 -125q13 -250 13 -389zM404 1616
q0 -51 -43 -112q-55 -78 -139 -78q-36 0 -70 22q-15 13 -22 13q-16 0 -46 -35q-17 -21 -22 -21q-2 1 -2 4q0 4 4 11l6 18l8 16l11 21q34 69 77 69q20 0 43 -20q5 9 15 25q66 135 125 135q55 0 55 -68zM355 1569q0 27 -35 27q-45 0 -90 -78h6q6 -2 14 -2q40 0 72.5 16.5
t32.5 36.5z" />
    <glyph glyph-name="uniFB51" unicode="&#x671;" horiz-adv-x="459" arabic-form="final" 
d="M483 23q0 -23 -22 -23h-39q-123 0 -181 39q-48 33 -63 100q-11 49 -12 86q-1 18 -3 70l-1 24q-1 43 -2 107l-3 98v113q0 61 -4 162q-1 33 -6 80q0 7 -8 79q-4 39 -8 64q-2 14 -8 43q0 4 -4 33l153 284q3 7 8 13q2 -4 2 -13l4 -18l7 -37q9 -57 18 -151q10 -109 10 -338
v-41l-2 -121l2 -115v-117q0 -113 28.5 -156.5t102.5 -43.5h13q18 0 18 -23v-198zM389 1650q0 -54 -41 -112q-56 -80 -139 -80q-37 0 -70 22q-18 13 -24 13q-16 0 -45 -35q-16 -18 -23 -18q-1 0 -2 2l4 12l8 16q2 4 9 17l10 20q35 70 76 70q19 0 45 -21q5 10 12 25
q69 135 125 135q55 0 55 -66zM340 1601q0 27 -35 27q-45 0 -90 -78h6q8 -2 17 -2q39 0 70.5 16.5t31.5 36.5z" />
    <glyph glyph-name="uniFB52" unicode="&#x67b;" horiz-adv-x="1423" arabic-form="isolated" 
d="M1358 374q0 -57 -15 -108q-11 -43 -38.5 -115.5t-49.5 -85.5q-47 -28 -190 -62q-218 -51 -426 -51q-275 0 -398.5 78.5t-123.5 253.5q0 189 94 350l14 25q13 22 21 22q4 -1 4 -6q0 -4 -8 -29q-37 -110 -37 -188q0 -264 463 -264q58 0 96 2q111 6 199 18q136 20 249 76
l9 4q-20 64 -43 98l-17 25q-7 12 -18 29q-1 2 -6 8l114 203q3 7 6 8q6 -2 9 -10q1 -1 14 -25q78 -139 78 -256zM845 -283l-119 -121l119 -120l-129 -127l-131 127l121 120l-121 121l131 129z" />
    <glyph glyph-name="uniFB53" unicode="&#x67b;" horiz-adv-x="1442" arabic-form="final" 
d="M1466 25q0 -25 -22 -25h-6l-33 4q-49 6 -80 39q-13 14 -31 55q-1 1 -2 3t-2 3l-4 7q0 1 -2 2q-4 0 -7.5 -9.5t-8.5 -21.5l-13 -25q-12 -20 -22 -26q-23 -15 -82 -35q-99 -33 -260 -57q-44 -7 -115 -13q-51 -4 -110 -4q-294 0 -421.5 77.5t-127.5 256.5q0 187 94 348
l14 25q15 24 21 24q4 -2 4 -8q0 -2 -8 -27q-37 -110 -37 -188q0 -146 139 -215q62 -30 152 -41q87 -10 178 -10q72 0 198 12q97 10 187 27q79 15 117 28q47 17 67 84q42 136 76 136q16 0 16 -17q0 -2 -6 -26q-16 -46 -16 -78q0 -54 41 -74q25 -12 84 -12h12q16 0 16 -23
v-196zM842 -312l-119 -121l119 -120l-129 -127l-131 127l121 120l-121 121l131 129z" />
    <glyph glyph-name="uniFB54" unicode="&#x67b;" horiz-adv-x="549" arabic-form="initial" 
d="M483 295q0 -138 -61 -232q-42 -63 -191 -63h-237q-64 0 -64 122t64 122h358q-22 74 -84 151l97 201q2 5 8 16q5 -3 12 -14l18 -31q80 -133 80 -272zM359 -283l-119 -121l119 -120l-129 -127l-131 127l121 120l-121 121l131 129z" />
    <glyph glyph-name="uniFB55" unicode="&#x67b;" horiz-adv-x="557" arabic-form="medial" 
d="M582 23q0 -23 -17 -23h-51q-99 0 -139 14q-59 25 -66 99q0 14 -2 22l-4 -12l-6 -17q-26 -67 -62 -86.5t-151 -19.5h-90q-64 0 -64 122t64 122h139q77 0 109 13q46 20 65 83l8 27q23 71 43 71q11 0 11 -18q0 -2 -4 -23q-9 -41 -9 -55q0 -58 43 -80q36 -18 144 -18h22
q17 0 17 -25v-196zM359 -283l-119 -121l119 -120l-129 -127l-131 127l121 120l-121 121l131 129z" />
    <glyph glyph-name="uniFB56" unicode="&#x67e;" horiz-adv-x="1423" arabic-form="isolated" 
d="M1358 374q0 -57 -15 -108q-11 -43 -38.5 -115.5t-49.5 -85.5q-47 -28 -190 -62q-218 -51 -426 -51q-275 0 -398.5 78.5t-123.5 253.5q0 189 94 350l14 25q13 22 21 22q4 -1 4 -6q0 -4 -8 -29q-37 -110 -37 -188q0 -264 463 -264q58 0 96 2q111 6 199 18q136 20 249 76
l9 4q-20 64 -43 98l-17 25q-7 12 -18 29q-1 2 -6 8l114 203q3 7 6 8q6 -2 9 -10q1 -1 14 -25q78 -139 78 -256zM712 -620l-122 123l122 123l123 -123zM831 -413l-121 119l-120 -119l-127 129l127 131l120 -121l121 121l129 -131z" />
    <glyph glyph-name="uniFB57" unicode="&#x67e;" horiz-adv-x="1442" arabic-form="final" 
d="M1466 25q0 -25 -22 -25h-6l-33 4q-49 6 -80 39q-13 14 -31 55q-1 1 -2 3t-2 3l-4 7q0 1 -2 2q-4 0 -7.5 -9.5t-8.5 -21.5l-13 -25q-12 -20 -22 -26q-23 -15 -82 -35q-99 -33 -260 -57q-44 -7 -115 -13q-51 -4 -110 -4q-294 0 -421.5 77.5t-127.5 256.5q0 187 94 348
l14 25q15 24 21 24q4 -2 4 -8q0 -2 -8 -27q-37 -110 -37 -188q0 -146 139 -215q62 -30 152 -41q87 -10 178 -10q72 0 198 12q97 10 187 27q79 15 117 28q47 17 67 84q42 136 76 136q16 0 16 -17q0 -2 -6 -26q-16 -46 -16 -78q0 -54 41 -74q25 -12 84 -12h12q16 0 16 -23
v-196zM712 -650l-122 123l122 123l123 -123zM831 -443l-121 119l-120 -119l-127 129l127 131l120 -121l121 121l129 -131z" />
    <glyph glyph-name="uniFB58" unicode="&#x67e;" horiz-adv-x="549" arabic-form="initial" 
d="M483 295q0 -138 -61 -232q-42 -63 -191 -63h-237q-64 0 -64 122t64 122h358q-22 74 -84 151l97 201q2 5 8 16q5 -3 12 -14l18 -31q80 -133 80 -272zM257 -596l-115 114l115 115l114 -115zM363 -383l-106 106l-107 -106l-112 114l112 115l107 -105l106 105l115 -115z" />
    <glyph glyph-name="uniFB59" unicode="&#x67e;" horiz-adv-x="557" arabic-form="medial" 
d="M582 23q0 -23 -17 -23h-51q-99 0 -139 14q-59 25 -66 99q0 14 -2 22l-4 -12l-6 -17q-26 -67 -62 -86.5t-151 -19.5h-90q-64 0 -64 122t64 122h139q77 0 109 13q46 20 65 83l8 27q23 71 43 71q11 0 11 -18q0 -2 -4 -23q-9 -41 -9 -55q0 -58 43 -80q36 -18 144 -18h22
q17 0 17 -25v-196zM257 -596l-115 114l115 115l114 -115zM363 -383l-106 106l-107 -106l-112 114l112 115l107 -105l106 105l115 -115z" />
    <glyph glyph-name="uniFB5A" unicode="&#x680;" horiz-adv-x="1423" arabic-form="isolated" 
d="M1358 374q0 -57 -15 -108q-11 -43 -38.5 -115.5t-49.5 -85.5q-47 -28 -190 -62q-218 -51 -426 -51q-275 0 -398.5 78.5t-123.5 253.5q0 189 94 350l14 25q13 22 21 22q4 -1 4 -6q0 -4 -8 -29q-37 -110 -37 -188q0 -264 463 -264q58 0 96 2q111 6 199 18q136 20 249 76
l9 4q-20 64 -43 98l-17 25q-7 12 -18 29q-1 2 -6 8l114 203q3 7 6 8q6 -2 9 -10q1 -1 14 -25q78 -139 78 -256zM595 -374l-104 107l112 114l107 -106l106 106l115 -114l-107 -107l107 -106l-115 -115l-106 105l-107 -105l-112 115zM808 -374l-98 97l-99 -97l99 -98z" />
    <glyph glyph-name="uniFB5B" unicode="&#x680;" horiz-adv-x="1442" arabic-form="final" 
d="M1466 25q0 -25 -22 -25h-6l-33 4q-49 6 -80 39q-13 14 -31 55q-1 1 -2 3t-2 3l-4 7q0 1 -2 2q-4 0 -7.5 -9.5t-8.5 -21.5l-13 -25q-12 -20 -22 -26q-23 -15 -82 -35q-99 -33 -260 -57q-44 -7 -115 -13q-51 -4 -110 -4q-294 0 -421.5 77.5t-127.5 256.5q0 187 94 348
l14 25q15 24 21 24q4 -2 4 -8q0 -2 -8 -27q-37 -110 -37 -188q0 -146 139 -215q62 -30 152 -41q87 -10 178 -10q72 0 198 12q97 10 187 27q79 15 117 28q47 17 67 84q42 136 76 136q16 0 16 -17q0 -2 -6 -26q-16 -46 -16 -78q0 -54 41 -74q25 -12 84 -12h12q16 0 16 -23
v-196zM598 -406l-104 107l112 114l107 -106l106 106l115 -114l-107 -107l107 -106l-115 -115l-106 105l-107 -105l-112 115zM811 -406l-98 97l-99 -97l99 -98z" />
    <glyph glyph-name="uniFB5C" unicode="&#x680;" horiz-adv-x="549" arabic-form="initial" 
d="M483 295q0 -138 -61 -232q-42 -63 -191 -63h-237q-64 0 -64 122t64 122h358q-22 74 -84 151l97 201q2 5 8 16q5 -3 12 -14l18 -31q80 -133 80 -272zM139 -374l-104 107l112 114l107 -106l106 106l115 -114l-107 -107l107 -106l-115 -115l-106 105l-107 -105l-112 115z
M352 -374l-98 97l-99 -97l99 -98z" />
    <glyph glyph-name="uniFB5D" unicode="&#x680;" horiz-adv-x="557" arabic-form="medial" 
d="M582 23q0 -23 -17 -23h-51q-99 0 -139 14q-59 25 -66 99q0 14 -2 22l-4 -12l-6 -17q-26 -67 -62 -86.5t-151 -19.5h-90q-64 0 -64 122t64 122h139q77 0 109 13q46 20 65 83l8 27q23 71 43 71q11 0 11 -18q0 -2 -4 -23q-9 -41 -9 -55q0 -58 43 -80q36 -18 144 -18h22
q17 0 17 -25v-196zM139 -374l-104 107l112 114l107 -106l106 106l115 -114l-107 -107l107 -106l-115 -115l-106 105l-107 -105l-112 115zM352 -374l-98 97l-99 -97l99 -98z" />
    <glyph glyph-name="uniFB5E" unicode="&#x67a;" horiz-adv-x="1423" arabic-form="isolated" 
d="M1358 374q0 -57 -15 -108q-11 -43 -38.5 -115.5t-49.5 -85.5q-47 -28 -190 -62q-218 -51 -426 -51q-275 0 -398.5 78.5t-123.5 253.5q0 189 94 350l14 25q13 22 21 22q4 -1 4 -6q0 -4 -8 -29q-37 -110 -37 -188q0 -264 463 -264q58 0 96 2q111 6 199 18q136 20 249 76
l9 4q-20 64 -43 98l-17 25q-7 12 -18 29q-1 2 -6 8l114 203q3 7 6 8q6 -2 9 -10q1 -1 14 -25q78 -139 78 -256zM862 880l-119 -121l119 -120l-129 -127l-131 127l121 120l-121 121l131 129z" />
    <glyph glyph-name="uniFB5F" unicode="&#x67a;" horiz-adv-x="1442" arabic-form="final" 
d="M1466 25q0 -25 -22 -25h-6l-33 4q-49 6 -80 39q-13 14 -31 55q-1 1 -2 3t-2 3l-4 7q0 1 -2 2q-4 0 -7.5 -9.5t-8.5 -21.5l-13 -25q-12 -20 -22 -26q-23 -15 -82 -35q-99 -33 -260 -57q-44 -7 -115 -13q-51 -4 -110 -4q-294 0 -421.5 77.5t-127.5 256.5q0 187 94 348
l14 25q15 24 21 24q4 -2 4 -8q0 -2 -8 -27q-37 -110 -37 -188q0 -146 139 -215q62 -30 152 -41q87 -10 178 -10q72 0 198 12q97 10 187 27q79 15 117 28q47 17 67 84q42 136 76 136q16 0 16 -17q0 -2 -6 -26q-16 -46 -16 -78q0 -54 41 -74q25 -12 84 -12h12q16 0 16 -23
v-196zM862 828l-119 -121l119 -120l-129 -127l-131 127l121 120l-121 121l131 129z" />
    <glyph glyph-name="uniFB60" unicode="&#x67a;" horiz-adv-x="549" arabic-form="initial" 
d="M483 295q0 -138 -61 -232q-42 -63 -191 -63h-237q-64 0 -64 122t64 122h358q-22 74 -84 151l97 201q2 5 8 16q5 -3 12 -14l18 -31q80 -133 80 -272zM366 1053l-119 -121l119 -120l-129 -127l-131 127l121 120l-121 121l131 129z" />
    <glyph glyph-name="uniFB61" unicode="&#x67a;" horiz-adv-x="557" arabic-form="medial" 
d="M582 23q0 -23 -17 -23h-51q-99 0 -139 14q-59 25 -66 99q0 14 -2 22l-4 -12l-6 -17q-26 -67 -62 -86.5t-151 -19.5h-90q-64 0 -64 122t64 122h139q77 0 109 13q46 20 65 83l8 27q23 71 43 71q11 0 11 -18q0 -2 -4 -23q-9 -41 -9 -55q0 -58 43 -80q36 -18 144 -18h22
q17 0 17 -25v-196zM395 924l-119 -121l119 -120l-129 -127l-131 127l121 120l-121 121l131 129z" />
    <glyph glyph-name="uniFB62" unicode="&#x67f;" horiz-adv-x="1423" arabic-form="isolated" 
d="M1358 374q0 -57 -15 -108q-11 -43 -38.5 -115.5t-49.5 -85.5q-47 -28 -190 -62q-218 -51 -426 -51q-275 0 -398.5 78.5t-123.5 253.5q0 189 94 350l14 25q13 22 21 22q4 -1 4 -6q0 -4 -8 -29q-37 -110 -37 -188q0 -264 463 -264q58 0 96 2q111 6 199 18q136 20 249 76
l9 4q-20 64 -43 98l-17 25q-7 12 -18 29q-1 2 -6 8l114 203q3 7 6 8q6 -2 9 -10q1 -1 14 -25q78 -139 78 -256zM618 725l-104 107l112 114l107 -106l106 106l115 -114l-107 -107l107 -106l-115 -115l-106 105l-107 -105l-112 115zM831 725l-98 97l-99 -97l99 -98z" />
    <glyph glyph-name="uniFB63" unicode="&#x67f;" horiz-adv-x="1442" arabic-form="final" 
d="M1466 25q0 -25 -22 -25h-6l-33 4q-49 6 -80 39q-13 14 -31 55q-1 1 -2 3t-2 3l-4 7q0 1 -2 2q-4 0 -7.5 -9.5t-8.5 -21.5l-13 -25q-12 -20 -22 -26q-23 -15 -82 -35q-99 -33 -260 -57q-44 -7 -115 -13q-51 -4 -110 -4q-294 0 -421.5 77.5t-127.5 256.5q0 187 94 348
l14 25q15 24 21 24q4 -2 4 -8q0 -2 -8 -27q-37 -110 -37 -188q0 -146 139 -215q62 -30 152 -41q87 -10 178 -10q72 0 198 12q97 10 187 27q79 15 117 28q47 17 67 84q42 136 76 136q16 0 16 -17q0 -2 -6 -26q-16 -46 -16 -78q0 -54 41 -74q25 -12 84 -12h12q16 0 16 -23
v-196zM618 685l-104 107l112 114l107 -106l106 106l115 -114l-107 -107l107 -106l-115 -115l-106 105l-107 -105l-112 115zM831 685l-98 97l-99 -97l99 -98z" />
    <glyph glyph-name="uniFB64" unicode="&#x67f;" horiz-adv-x="549" arabic-form="initial" 
d="M483 295q0 -138 -61 -232q-42 -63 -191 -63h-237q-64 0 -64 122t64 122h358q-22 74 -84 151l97 201q2 5 8 16q5 -3 12 -14l18 -31q80 -133 80 -272zM127 907l-104 107l112 114l107 -106l106 106l115 -114l-107 -107l107 -106l-115 -115l-106 105l-107 -105l-112 115z
M340 907l-98 97l-99 -97l99 -98z" />
    <glyph glyph-name="uniFB65" unicode="&#x67f;" horiz-adv-x="557" arabic-form="medial" 
d="M582 23q0 -23 -17 -23h-51q-99 0 -139 14q-59 25 -66 99q0 14 -2 22l-4 -12l-6 -17q-26 -67 -62 -86.5t-151 -19.5h-90q-64 0 -64 122t64 122h139q77 0 109 13q46 20 65 83l8 27q23 71 43 71q11 0 11 -18q0 -2 -4 -23q-9 -41 -9 -55q0 -58 43 -80q36 -18 144 -18h22
q17 0 17 -25v-196zM153 778l-104 107l112 114l107 -106l106 106l115 -114l-107 -107l107 -106l-115 -115l-106 105l-107 -105l-112 115zM366 778l-98 97l-99 -97l99 -98z" />
    <glyph glyph-name="uniFB66" unicode="&#x679;" horiz-adv-x="1423" arabic-form="isolated" 
d="M1358 374q0 -57 -15 -108q-11 -43 -38.5 -115.5t-49.5 -85.5q-47 -28 -190 -62q-218 -51 -426 -51q-275 0 -398.5 78.5t-123.5 253.5q0 189 94 350l14 25q13 22 21 22q4 -1 4 -6q0 -4 -8 -29q-37 -110 -37 -188q0 -264 463 -264q58 0 96 2q111 6 199 18q136 20 249 76
l9 4q-20 64 -43 98l-17 25q-7 12 -18 29q-1 2 -6 8l114 203q3 7 6 8q6 -2 9 -10q1 -1 14 -25q78 -139 78 -256zM918 748q0 -36 -16 -73t-44.5 -67.5t-68.5 -49.5t-88 -19q-24 0 -43 4t-37 16t-37 34t-44 59q-2 3 -2 5q0 1 1 2t3 1h3q29 -4 58.5 -7t58.5 -5q3 11 5.5 24
t2.5 27q0 22 -6.5 62.5t-21.5 97.5l63 74q4 3 5 4q1 0 3 -4q4 -12 8 -28.5t6.5 -33t3.5 -31t1 -22.5q0 -18 -1 -35.5t-5 -38.5l2 -2q29 42 59.5 63.5t64.5 21.5q29 0 47.5 -22t18.5 -57zM871 696q0 17 -13.5 28.5t-36.5 11.5q-29 0 -61 -23t-70 -68q16 -2 32 -2h33
q20 0 40.5 5t37.5 12.5t27.5 17t10.5 18.5z" />
    <glyph glyph-name="uniFB67" unicode="&#x679;" horiz-adv-x="1442" arabic-form="final" 
d="M1466 25q0 -25 -22 -25h-6l-33 4q-49 6 -80 39q-13 14 -31 55q-1 1 -2 3t-2 3l-4 7q0 1 -2 2q-4 0 -7.5 -9.5t-8.5 -21.5l-13 -25q-12 -20 -22 -26q-23 -15 -82 -35q-99 -33 -260 -57q-44 -7 -115 -13q-51 -4 -110 -4q-294 0 -421.5 77.5t-127.5 256.5q0 187 94 348
l14 25q15 24 21 24q4 -2 4 -8q0 -2 -8 -27q-37 -110 -37 -188q0 -146 139 -215q62 -30 152 -41q87 -10 178 -10q72 0 198 12q97 10 187 27q79 15 117 28q47 17 67 84q42 136 76 136q16 0 16 -17q0 -2 -6 -26q-16 -46 -16 -78q0 -54 41 -74q25 -12 84 -12h12q16 0 16 -23
v-196zM938 728q0 -36 -16 -73t-44.5 -67.5t-68.5 -49.5t-88 -19q-24 0 -43 4t-37 16t-37 34t-44 59q-2 3 -2 5q0 1 1 2t3 1h3q29 -4 58.5 -7t58.5 -5q3 11 5.5 24t2.5 27q0 22 -6.5 62.5t-21.5 97.5l63 74q4 3 5 4q1 0 3 -4q4 -12 8 -28.5t6.5 -33t3.5 -31t1 -22.5
q0 -18 -1 -35.5t-5 -38.5l2 -2q29 42 59.5 63.5t64.5 21.5q29 0 47.5 -22t18.5 -57zM891 676q0 17 -13.5 28.5t-36.5 11.5q-29 0 -61 -23t-70 -68q16 -2 32 -2h33q20 0 40.5 5t37.5 12.5t27.5 17t10.5 18.5z" />
    <glyph glyph-name="uniFB68" unicode="&#x679;" horiz-adv-x="549" arabic-form="initial" 
d="M483 295q0 -138 -61 -232q-42 -63 -191 -63h-237q-64 0 -64 122t64 122h358q-22 74 -84 151l97 201q2 5 8 16q5 -3 12 -14l18 -31q80 -133 80 -272zM448 898q0 -36 -16 -73t-44.5 -67.5t-68.5 -49.5t-88 -19q-24 0 -43 4t-37 16t-37 34t-44 59q-2 3 -2 5q0 1 1 2t3 1h3
q29 -4 58.5 -7t58.5 -5q3 11 5.5 24t2.5 27q0 22 -6.5 62.5t-21.5 97.5l63 74q4 3 5 4q1 0 3 -4q4 -12 8 -28.5t6.5 -33t3.5 -31t1 -22.5q0 -18 -1 -35.5t-5 -38.5l2 -2q29 42 59.5 63.5t64.5 21.5q29 0 47.5 -22t18.5 -57zM401 846q0 17 -13.5 28.5t-36.5 11.5
q-29 0 -61 -23t-70 -68q16 -2 32 -2h33q20 0 40.5 5t37.5 12.5t27.5 17t10.5 18.5z" />
    <glyph glyph-name="uniFB69" unicode="&#x679;" horiz-adv-x="557" arabic-form="medial" 
d="M582 23q0 -23 -17 -23h-51q-99 0 -139 14q-59 25 -66 99q0 14 -2 22l-4 -12l-6 -17q-26 -67 -62 -86.5t-151 -19.5h-90q-64 0 -64 122t64 122h139q77 0 109 13q46 20 65 83l8 27q23 71 43 71q11 0 11 -18q0 -2 -4 -23q-9 -41 -9 -55q0 -58 43 -80q36 -18 144 -18h22
q17 0 17 -25v-196zM468 778q0 -36 -16 -73t-44.5 -67.5t-68.5 -49.5t-88 -19q-24 0 -43 4t-37 16t-37 34t-44 59q-2 3 -2 5q0 1 1 2t3 1h3q29 -4 58.5 -7t58.5 -5q3 11 5.5 24t2.5 27q0 22 -6.5 62.5t-21.5 97.5l63 74q4 3 5 4q1 0 3 -4q4 -12 8 -28.5t6.5 -33t3.5 -31
t1 -22.5q0 -18 -1 -35.5t-5 -38.5l2 -2q29 42 59.5 63.5t64.5 21.5q29 0 47.5 -22t18.5 -57zM421 726q0 17 -13.5 28.5t-36.5 11.5q-29 0 -61 -23t-70 -68q16 -2 32 -2h33q20 0 40.5 5t37.5 12.5t27.5 17t10.5 18.5z" />
    <glyph glyph-name="uniFB6A" unicode="&#x6a4;" horiz-adv-x="1493" arabic-form="isolated" 
d="M1427 465q0 -74 -28 -160q-63 -189 -123 -242q-64 -56 -305 -92q-153 -22 -299 -22q-298 0 -426.5 77t-128.5 257q0 186 94 348l14 24q15 25 21 25q3 -2 4 -6q0 -4 -8 -29q-37 -110 -37 -188q0 -264 461 -264q112 0 180 6q37 1 90 8q91 11 147 22q64 13 117 27
q47 12 103 43q12 40 12 90v33q-1 4 -3 13t-3 14l-6 24l-5 21q-30 -127 -161 -127q-125 0 -125 116q0 96 47 215q65 164 160 164q84 0 146 -118t62 -279zM1410 1060l-115 -115l-106 105l-107 -105l-112 115l112 114l107 -106l106 106zM1303 1273l-114 -115l-115 115l115 114z
M1272 563q-43 113 -107 113q-22 0 -49 -17q-31 -18 -31 -38q0 -24 32 -41t75 -17h80z" />
    <glyph glyph-name="uniFB6B" unicode="&#x6a4;" horiz-adv-x="1544" arabic-form="final" 
d="M1569 16q0 -16 -19 -16h-63q-81 0 -137 8q-92 13 -174 58q-173 -103 -504 -103q-300 0 -427.5 77t-127.5 257q0 189 94 350l14 25q13 22 21 22q4 -1 4 -6q0 -7 -8 -26q-37 -114 -37 -191q0 -109 76 -172q108 -90 368 -90q96 0 230 10q4 1 22.5 2.5t32.5 3.5q7 1 49 8
q18 4 66 17q-7 43 -7 57q0 82 58 178q133 224 260 224q57 0 91 -43t34 -115q0 -131 -111 -297q65 -10 164 -10h14q15 0 15 -23v-198zM1348 403q-7 101 -86 101q-36 0 -70 -25q-45 -33 -45 -67q0 -50 84 -99q98 46 117 90zM1367 1160l-114 -115l-115 115l115 114zM1474 947
l-115 -115l-106 105l-107 -105l-112 115l112 114l107 -106l106 106z" />
    <glyph glyph-name="uniFB6C" unicode="&#x6a4;" horiz-adv-x="596" arabic-form="initial" 
d="M530 459q0 -114 -44.5 -232t-102.5 -159q-94 -68 -377 -68h-12q-64 0 -64 122t62 122h14l60 2q74 2 198 8q40 3 84 12q25 5 60 23q12 46 12 90q0 12 -4 39q-1 9 -4 26q-1 8 -6 23q-3 6 -7 22q-30 -127 -161 -127q-123 0 -123 117q0 98 45 215q62 162 159 162
q87 0 149 -117.5t62 -279.5zM373 567q-41 103 -107 103q-21 0 -47 -15q-31 -17 -31 -37q0 -42 107 -51l24 -2h23l14 2h17zM404 1268l-114 -115l-115 115l115 114zM511 1055l-115 -115l-106 105l-107 -105l-112 115l112 114l107 -106l106 106z" />
    </font>
</defs>
</svg>
